{
  "jsonPath": "Animes/Wedding Peach MIDI Collection/virgin-love.json",
  "path": "Animes\\Wedding Peach MIDI Collection\\Virgin Love.mid",
  "name": "Virgin Love",
  "difficulty": "Advanced",
  "bpm": 132.0050689946494,
  "notes": [
    {
      "midi": 69,
      "hit": false,
      "t": 1818.1119999999928,
      "d": 85.22399999999993,
      "v": 90
    },
    {
      "midi": 45,
      "hit": false,
      "t": 1818.1119999999928,
      "d": 1799.1733333333354,
      "v": 100
    },
    {
      "midi": 64,
      "hit": false,
      "t": 1818.1119999999928,
      "d": 1799.1733333333354,
      "v": 120
    },
    {
      "midi": 72,
      "hit": false,
      "t": 1931.7439999999926,
      "d": 85.22399999999993,
      "v": 80
    },
    {
      "midi": 76,
      "hit": false,
      "t": 2045.3759999999925,
      "d": 85.22400000000016,
      "v": 80
    },
    {
      "midi": 81,
      "hit": false,
      "t": 2159.0079999999925,
      "d": 85.22400000000016,
      "v": 80
    },
    {
      "midi": 76,
      "hit": false,
      "t": 2263.1706666666596,
      "d": 208.32533333333367,
      "v": 100
    },
    {
      "midi": 84,
      "hit": false,
      "t": 2272.639999999993,
      "d": 85.22400000000016,
      "v": 80
    },
    {
      "midi": 74,
      "hit": false,
      "t": 2272.639999999993,
      "d": 208.32533333333367,
      "v": 90
    },
    {
      "midi": 88,
      "hit": false,
      "t": 2386.271999999993,
      "d": 85.22400000000016,
      "v": 80
    },
    {
      "midi": 93,
      "hit": false,
      "t": 2499.903999999993,
      "d": 85.22400000000016,
      "v": 80
    },
    {
      "midi": 76,
      "hit": false,
      "t": 2499.903999999993,
      "d": 208.32533333333367,
      "v": 90
    },
    {
      "midi": 88,
      "hit": false,
      "t": 2613.5359999999932,
      "d": 85.22400000000016,
      "v": 80
    },
    {
      "midi": 84,
      "hit": false,
      "t": 2727.1679999999938,
      "d": 85.22400000000016,
      "v": 80
    },
    {
      "midi": 72,
      "hit": false,
      "t": 2727.1679999999938,
      "d": 198.85600000000022,
      "v": 90
    },
    {
      "midi": 81,
      "hit": false,
      "t": 2840.799999999994,
      "d": 85.22400000000016,
      "v": 80
    },
    {
      "midi": 76,
      "hit": false,
      "t": 2954.431999999994,
      "d": 85.22400000000016,
      "v": 80
    },
    {
      "midi": 69,
      "hit": false,
      "t": 2954.431999999994,
      "d": 208.32533333333367,
      "v": 90
    },
    {
      "midi": 72,
      "hit": false,
      "t": 3068.063999999994,
      "d": 85.22400000000016,
      "v": 80
    },
    {
      "midi": 69,
      "hit": false,
      "t": 3181.6959999999945,
      "d": 85.22400000000016,
      "v": 90
    },
    {
      "midi": 71,
      "hit": false,
      "t": 3181.6959999999945,
      "d": 198.85600000000022,
      "v": 90
    },
    {
      "midi": 74,
      "hit": false,
      "t": 3181.6959999999945,
      "d": 208.32533333333367,
      "v": 127
    },
    {
      "midi": 72,
      "hit": false,
      "t": 3295.3279999999945,
      "d": 85.22400000000016,
      "v": 80
    },
    {
      "midi": 76,
      "hit": false,
      "t": 3408.9599999999946,
      "d": 85.22400000000016,
      "v": 80
    },
    {
      "midi": 69,
      "hit": false,
      "t": 3408.9599999999946,
      "d": 208.32533333333367,
      "v": 90
    },
    {
      "midi": 81,
      "hit": false,
      "t": 3522.5919999999946,
      "d": 85.22400000000016,
      "v": 80
    },
    {
      "midi": 74,
      "hit": false,
      "t": 3636.223999999995,
      "d": 85.22400000000016,
      "v": 80
    },
    {
      "midi": 50,
      "hit": false,
      "t": 3636.223999999995,
      "d": 1136.3200000000038,
      "v": 100
    },
    {
      "midi": 65,
      "hit": false,
      "t": 3636.223999999995,
      "d": 1136.3200000000038,
      "v": 117
    },
    {
      "midi": 69,
      "hit": false,
      "t": 3749.855999999995,
      "d": 85.22400000000016,
      "v": 80
    },
    {
      "midi": 77,
      "hit": false,
      "t": 3863.4879999999953,
      "d": 85.22400000000016,
      "v": 80
    },
    {
      "midi": 81,
      "hit": false,
      "t": 3977.1199999999953,
      "d": 85.22400000000016,
      "v": 80
    },
    {
      "midi": 77,
      "hit": false,
      "t": 4081.2826666666624,
      "d": 208.32533333333413,
      "v": 100
    },
    {
      "midi": 86,
      "hit": false,
      "t": 4090.751999999996,
      "d": 85.22400000000016,
      "v": 80
    },
    {
      "midi": 79,
      "hit": false,
      "t": 4090.751999999996,
      "d": 208.32533333333413,
      "v": 127
    },
    {
      "midi": 76,
      "hit": false,
      "t": 4090.751999999996,
      "d": 208.32533333333413,
      "v": 90
    },
    {
      "midi": 69,
      "hit": false,
      "t": 4090.751999999996,
      "d": 208.32533333333413,
      "v": 90
    },
    {
      "midi": 89,
      "hit": false,
      "t": 4204.383999999996,
      "d": 85.22400000000016,
      "v": 80
    },
    {
      "midi": 93,
      "hit": false,
      "t": 4318.015999999997,
      "d": 85.22400000000016,
      "v": 80
    },
    {
      "midi": 77,
      "hit": false,
      "t": 4318.015999999997,
      "d": 208.32533333333413,
      "v": 90
    },
    {
      "midi": 69,
      "hit": false,
      "t": 4318.015999999997,
      "d": 426.1200000000017,
      "v": 90
    },
    {
      "midi": 89,
      "hit": false,
      "t": 4431.647999999997,
      "d": 85.22400000000016,
      "v": 80
    },
    {
      "midi": 86,
      "hit": false,
      "t": 4545.279999999998,
      "d": 85.22400000000016,
      "v": 80
    },
    {
      "midi": 74,
      "hit": false,
      "t": 4545.279999999998,
      "d": 198.85600000000068,
      "v": 90
    },
    {
      "midi": 81,
      "hit": false,
      "t": 4658.911999999998,
      "d": 85.22400000000016,
      "v": 80
    },
    {
      "midi": 77,
      "hit": false,
      "t": 4772.543999999999,
      "d": 85.22400000000016,
      "v": 80
    },
    {
      "midi": 50,
      "hit": false,
      "t": 4772.543999999999,
      "d": 208.32533333333413,
      "v": 100
    },
    {
      "midi": 76,
      "hit": false,
      "t": 4772.543999999999,
      "d": 426.1200000000017,
      "v": 117
    },
    {
      "midi": 64,
      "hit": false,
      "t": 4772.543999999999,
      "d": 643.9146666666693,
      "v": 117
    },
    {
      "midi": 74,
      "hit": false,
      "t": 4886.1759999999995,
      "d": 85.22400000000016,
      "v": 80
    },
    {
      "midi": 69,
      "hit": false,
      "t": 4999.808,
      "d": 85.22400000000016,
      "v": 80
    },
    {
      "midi": 72,
      "hit": false,
      "t": 4999.808,
      "d": 198.85600000000068,
      "v": 90
    },
    {
      "midi": 48,
      "hit": false,
      "t": 4999.808,
      "d": 208.32533333333413,
      "v": 100
    },
    {
      "midi": 74,
      "hit": false,
      "t": 5113.4400000000005,
      "d": 85.22400000000016,
      "v": 80
    },
    {
      "midi": 77,
      "hit": false,
      "t": 5227.072000000001,
      "d": 85.22400000000016,
      "v": 80
    },
    {
      "midi": 47,
      "hit": false,
      "t": 5227.072000000001,
      "d": 208.32533333333413,
      "v": 100
    },
    {
      "midi": 81,
      "hit": false,
      "t": 5340.7040000000015,
      "d": 85.22400000000016,
      "v": 80
    },
    {
      "midi": 71,
      "hit": false,
      "t": 5454.336000000002,
      "d": 85.22400000000016,
      "v": 80
    },
    {
      "midi": 67,
      "hit": false,
      "t": 5454.336000000002,
      "d": 198.85600000000068,
      "v": 117
    },
    {
      "midi": 43,
      "hit": false,
      "t": 5454.336000000002,
      "d": 871.1786666666703,
      "v": 100
    },
    {
      "midi": 62,
      "hit": false,
      "t": 5454.336000000002,
      "d": 1799.1733333333414,
      "v": 117
    },
    {
      "midi": 74,
      "hit": false,
      "t": 5567.968000000003,
      "d": 85.22400000000016,
      "v": 80
    },
    {
      "midi": 79,
      "hit": false,
      "t": 5681.600000000003,
      "d": 85.22400000000016,
      "v": 80
    },
    {
      "midi": 83,
      "hit": false,
      "t": 5795.232000000004,
      "d": 85.22400000000016,
      "v": 80
    },
    {
      "midi": 86,
      "hit": false,
      "t": 5908.864000000004,
      "d": 85.22400000000016,
      "v": 80
    },
    {
      "midi": 77,
      "hit": false,
      "t": 5908.864000000004,
      "d": 198.85600000000068,
      "v": 90
    },
    {
      "midi": 91,
      "hit": false,
      "t": 6022.496000000005,
      "d": 85.22400000000016,
      "v": 80
    },
    {
      "midi": 95,
      "hit": false,
      "t": 6136.128000000005,
      "d": 85.22400000000016,
      "v": 80
    },
    {
      "midi": 79,
      "hit": false,
      "t": 6136.128000000005,
      "d": 208.32533333333413,
      "v": 90
    },
    {
      "midi": 91,
      "hit": false,
      "t": 6249.760000000006,
      "d": 85.22400000000016,
      "v": 80
    },
    {
      "midi": 74,
      "hit": false,
      "t": 6353.922666666673,
      "d": 198.85600000000068,
      "v": 100
    },
    {
      "midi": 86,
      "hit": false,
      "t": 6363.392000000006,
      "d": 85.22400000000016,
      "v": 80
    },
    {
      "midi": 76,
      "hit": false,
      "t": 6363.392000000006,
      "d": 208.32533333333413,
      "v": 90
    },
    {
      "midi": 55,
      "hit": false,
      "t": 6363.392000000006,
      "d": 426.1200000000017,
      "v": 100
    },
    {
      "midi": 83,
      "hit": false,
      "t": 6477.024000000007,
      "d": 85.22400000000016,
      "v": 80
    },
    {
      "midi": 79,
      "hit": false,
      "t": 6590.656000000007,
      "d": 85.22400000000016,
      "v": 80
    },
    {
      "midi": 67,
      "hit": false,
      "t": 6590.656000000007,
      "d": 208.32533333333413,
      "v": 90
    },
    {
      "midi": 74,
      "hit": false,
      "t": 6704.288000000008,
      "d": 85.22400000000016,
      "v": 80
    },
    {
      "midi": 71,
      "hit": false,
      "t": 6817.920000000008,
      "d": 85.22400000000016,
      "v": 80
    },
    {
      "midi": 67,
      "hit": false,
      "t": 6817.920000000008,
      "d": 198.85600000000068,
      "v": 90
    },
    {
      "midi": 72,
      "hit": false,
      "t": 6817.920000000008,
      "d": 208.32533333333413,
      "v": 127
    },
    {
      "midi": 50,
      "hit": false,
      "t": 6817.920000000008,
      "d": 426.1200000000017,
      "v": 100
    },
    {
      "midi": 74,
      "hit": false,
      "t": 6931.552000000009,
      "d": 85.22400000000016,
      "v": 80
    },
    {
      "midi": 79,
      "hit": false,
      "t": 7045.184000000009,
      "d": 85.22400000000016,
      "v": 80
    },
    {
      "midi": 74,
      "hit": false,
      "t": 7045.184000000009,
      "d": 208.32533333333413,
      "v": 127
    },
    {
      "midi": 67,
      "hit": false,
      "t": 7045.184000000009,
      "d": 208.32533333333413,
      "v": 90
    },
    {
      "midi": 83,
      "hit": false,
      "t": 7158.81600000001,
      "d": 85.22400000000016,
      "v": 80
    },
    {
      "midi": 67,
      "hit": false,
      "t": 7272.44800000001,
      "d": 85.22400000000016,
      "v": 90
    },
    {
      "midi": 48,
      "hit": false,
      "t": 7272.44800000001,
      "d": 871.1786666666703,
      "v": 100
    },
    {
      "midi": 64,
      "hit": false,
      "t": 7272.44800000001,
      "d": 871.1786666666703,
      "v": 117
    },
    {
      "midi": 72,
      "hit": false,
      "t": 7386.080000000011,
      "d": 85.22400000000016,
      "v": 80
    },
    {
      "midi": 76,
      "hit": false,
      "t": 7499.712000000011,
      "d": 85.22400000000016,
      "v": 80
    },
    {
      "midi": 79,
      "hit": false,
      "t": 7613.344000000012,
      "d": 85.22400000000016,
      "v": 80
    },
    {
      "midi": 84,
      "hit": false,
      "t": 7726.976000000012,
      "d": 85.22400000000016,
      "v": 80
    },
    {
      "midi": 77,
      "hit": false,
      "t": 7726.976000000012,
      "d": 198.85600000000068,
      "v": 90
    },
    {
      "midi": 67,
      "hit": false,
      "t": 7726.976000000012,
      "d": 208.32533333333413,
      "v": 90
    },
    {
      "midi": 88,
      "hit": false,
      "t": 7840.608000000013,
      "d": 85.22400000000016,
      "v": 80
    },
    {
      "midi": 84,
      "hit": false,
      "t": 7954.240000000013,
      "d": 85.22400000000016,
      "v": 80
    },
    {
      "midi": 76,
      "hit": false,
      "t": 7954.240000000013,
      "d": 189.38666666666722,
      "v": 127
    },
    {
      "midi": 67,
      "hit": false,
      "t": 7954.240000000013,
      "d": 189.38666666666722,
      "v": 90
    },
    {
      "midi": 79,
      "hit": false,
      "t": 8067.872000000014,
      "d": 85.22400000000016,
      "v": 80
    },
    {
      "midi": 76,
      "hit": false,
      "t": 8181.5040000000145,
      "d": 85.22399999999925,
      "v": 80
    },
    {
      "midi": 67,
      "hit": false,
      "t": 8181.5040000000145,
      "d": 198.85599999999886,
      "v": 117
    },
    {
      "midi": 47,
      "hit": false,
      "t": 8181.5040000000145,
      "d": 871.1786666666603,
      "v": 100
    },
    {
      "midi": 62,
      "hit": false,
      "t": 8181.5040000000145,
      "d": 871.1786666666603,
      "v": 117
    },
    {
      "midi": 71,
      "hit": false,
      "t": 8181.5040000000145,
      "d": 871.1786666666603,
      "v": 117
    },
    {
      "midi": 72,
      "hit": false,
      "t": 8295.136000000013,
      "d": 85.22400000000016,
      "v": 80
    },
    {
      "midi": 67,
      "hit": false,
      "t": 8408.768000000013,
      "d": 85.22400000000016,
      "v": 90
    },
    {
      "midi": 79,
      "hit": false,
      "t": 8408.768000000013,
      "d": 208.3253333333323,
      "v": 90
    },
    {
      "midi": 74,
      "hit": false,
      "t": 8408.768000000013,
      "d": 426.11999999999716,
      "v": 127
    },
    {
      "midi": 64,
      "hit": false,
      "t": 8522.400000000012,
      "d": 85.22400000000016,
      "v": 80
    },
    {
      "midi": 60,
      "hit": false,
      "t": 8636.03200000001,
      "d": 85.22400000000016,
      "v": 80
    },
    {
      "midi": 72,
      "hit": false,
      "t": 8636.03200000001,
      "d": 198.85599999999977,
      "v": 90
    },
    {
      "midi": 64,
      "hit": false,
      "t": 8749.66400000001,
      "d": 85.22400000000016,
      "v": 80
    },
    {
      "midi": 67,
      "hit": false,
      "t": 8863.29600000001,
      "d": 85.22400000000016,
      "v": 80
    },
    {
      "midi": 79,
      "hit": false,
      "t": 8863.29600000001,
      "d": 208.3253333333305,
      "v": 90
    },
    {
      "midi": 72,
      "hit": false,
      "t": 8976.928000000009,
      "d": 85.22399999999834,
      "v": 80
    },
    {
      "midi": 69,
      "hit": false,
      "t": 9090.560000000005,
      "d": 85.22400000000016,
      "v": 80
    },
    {
      "midi": 65,
      "hit": false,
      "t": 9090.560000000005,
      "d": 198.85599999999977,
      "v": 90
    },
    {
      "midi": 41,
      "hit": false,
      "t": 9090.560000000005,
      "d": 1136.319999999987,
      "v": 110
    },
    {
      "midi": 62,
      "hit": false,
      "t": 9090.560000000005,
      "d": 1799.173333333316,
      "v": 117
    },
    {
      "midi": 74,
      "hit": false,
      "t": 9204.192000000005,
      "d": 85.22400000000016,
      "v": 80
    },
    {
      "midi": 77,
      "hit": false,
      "t": 9317.824000000002,
      "d": 85.22400000000016,
      "v": 80
    },
    {
      "midi": 81,
      "hit": false,
      "t": 9431.456000000002,
      "d": 85.22400000000016,
      "v": 80
    },
    {
      "midi": 86,
      "hit": false,
      "t": 9545.088,
      "d": 85.22400000000016,
      "v": 80
    },
    {
      "midi": 76,
      "hit": false,
      "t": 9545.088,
      "d": 198.85599999999977,
      "v": 90
    },
    {
      "midi": 89,
      "hit": false,
      "t": 9658.72,
      "d": 85.22400000000016,
      "v": 80
    },
    {
      "midi": 93,
      "hit": false,
      "t": 9772.351999999997,
      "d": 85.22400000000016,
      "v": 80
    },
    {
      "midi": 77,
      "hit": false,
      "t": 9772.351999999997,
      "d": 198.85599999999977,
      "v": 90
    },
    {
      "midi": 89,
      "hit": false,
      "t": 9885.983999999997,
      "d": 85.22400000000016,
      "v": 80
    },
    {
      "midi": 86,
      "hit": false,
      "t": 9999.615999999995,
      "d": 85.22400000000016,
      "v": 80
    },
    {
      "midi": 72,
      "hit": false,
      "t": 9999.615999999995,
      "d": 189.3866666666654,
      "v": 90
    },
    {
      "midi": 81,
      "hit": false,
      "t": 10113.247999999994,
      "d": 85.22399999999834,
      "v": 80
    },
    {
      "midi": 77,
      "hit": false,
      "t": 10226.879999999992,
      "d": 85.22400000000016,
      "v": 80
    },
    {
      "midi": 69,
      "hit": false,
      "t": 10226.879999999992,
      "d": 208.3253333333323,
      "v": 127
    },
    {
      "midi": 41,
      "hit": false,
      "t": 10226.879999999992,
      "d": 208.3253333333323,
      "v": 110
    },
    {
      "midi": 65,
      "hit": false,
      "t": 10226.879999999992,
      "d": 208.3253333333323,
      "v": 90
    },
    {
      "midi": 74,
      "hit": false,
      "t": 10340.511999999992,
      "d": 85.22400000000016,
      "v": 80
    },
    {
      "midi": 69,
      "hit": false,
      "t": 10454.14399999999,
      "d": 85.22400000000016,
      "v": 80
    },
    {
      "midi": 65,
      "hit": false,
      "t": 10454.14399999999,
      "d": 198.85599999999977,
      "v": 90
    },
    {
      "midi": 71,
      "hit": false,
      "t": 10454.14399999999,
      "d": 208.3253333333323,
      "v": 127
    },
    {
      "midi": 40,
      "hit": false,
      "t": 10454.14399999999,
      "d": 208.3253333333323,
      "v": 110
    },
    {
      "midi": 74,
      "hit": false,
      "t": 10567.775999999989,
      "d": 85.22400000000016,
      "v": 80
    },
    {
      "midi": 77,
      "hit": false,
      "t": 10681.407999999989,
      "d": 85.22400000000016,
      "v": 80
    },
    {
      "midi": 65,
      "hit": false,
      "t": 10681.407999999989,
      "d": 208.3253333333323,
      "v": 90
    },
    {
      "midi": 72,
      "hit": false,
      "t": 10681.407999999989,
      "d": 208.3253333333323,
      "v": 127
    },
    {
      "midi": 41,
      "hit": false,
      "t": 10681.407999999989,
      "d": 208.3253333333323,
      "v": 110
    },
    {
      "midi": 81,
      "hit": false,
      "t": 10795.039999999988,
      "d": 85.22400000000016,
      "v": 80
    },
    {
      "midi": 69,
      "hit": false,
      "t": 10908.671999999986,
      "d": 85.22400000000016,
      "v": 80
    },
    {
      "midi": 62,
      "hit": false,
      "t": 10908.671999999986,
      "d": 198.85599999999977,
      "v": 117
    },
    {
      "midi": 65,
      "hit": false,
      "t": 10908.671999999986,
      "d": 208.3253333333323,
      "v": 90
    },
    {
      "midi": 38,
      "hit": false,
      "t": 10908.671999999986,
      "d": 1136.3199999999852,
      "v": 110
    },
    {
      "midi": 74,
      "hit": false,
      "t": 11022.303999999986,
      "d": 85.22400000000016,
      "v": 80
    },
    {
      "midi": 77,
      "hit": false,
      "t": 11135.935999999983,
      "d": 85.22400000000016,
      "v": 80
    },
    {
      "midi": 81,
      "hit": false,
      "t": 11249.567999999983,
      "d": 85.22400000000016,
      "v": 80
    },
    {
      "midi": 86,
      "hit": false,
      "t": 11363.19999999998,
      "d": 85.22400000000016,
      "v": 80
    },
    {
      "midi": 76,
      "hit": false,
      "t": 11363.19999999998,
      "d": 198.85599999999977,
      "v": 90
    },
    {
      "midi": 89,
      "hit": false,
      "t": 11476.83199999998,
      "d": 85.22400000000016,
      "v": 80
    },
    {
      "midi": 86,
      "hit": false,
      "t": 11590.463999999978,
      "d": 85.22400000000016,
      "v": 80
    },
    {
      "midi": 77,
      "hit": false,
      "t": 11590.463999999978,
      "d": 198.85599999999977,
      "v": 90
    },
    {
      "midi": 81,
      "hit": false,
      "t": 11704.095999999978,
      "d": 85.22400000000016,
      "v": 80
    },
    {
      "midi": 77,
      "hit": false,
      "t": 11817.727999999976,
      "d": 85.22400000000016,
      "v": 80
    },
    {
      "midi": 74,
      "hit": false,
      "t": 11931.359999999975,
      "d": 85.22399999999834,
      "v": 80
    },
    {
      "midi": 69,
      "hit": false,
      "t": 12044.991999999971,
      "d": 85.22400000000016,
      "v": 80
    },
    {
      "midi": 77,
      "hit": false,
      "t": 12044.991999999971,
      "d": 198.85599999999977,
      "v": 90
    },
    {
      "midi": 38,
      "hit": false,
      "t": 12044.991999999971,
      "d": 208.3253333333323,
      "v": 110
    },
    {
      "midi": 65,
      "hit": false,
      "t": 12158.62399999997,
      "d": 85.22400000000016,
      "v": 80
    },
    {
      "midi": 62,
      "hit": false,
      "t": 12272.255999999968,
      "d": 85.22400000000016,
      "v": 80
    },
    {
      "midi": 71,
      "hit": false,
      "t": 12272.255999999968,
      "d": 208.3253333333323,
      "v": 127
    },
    {
      "midi": 41,
      "hit": false,
      "t": 12272.255999999968,
      "d": 208.3253333333323,
      "v": 110
    },
    {
      "midi": 69,
      "hit": false,
      "t": 12272.255999999968,
      "d": 208.3253333333323,
      "v": 90
    },
    {
      "midi": 65,
      "hit": false,
      "t": 12385.887999999968,
      "d": 85.22400000000016,
      "v": 80
    },
    {
      "midi": 62,
      "hit": false,
      "t": 12490.050666666633,
      "d": 208.3253333333323,
      "v": 100
    },
    {
      "midi": 69,
      "hit": false,
      "t": 12499.519999999966,
      "d": 85.22400000000016,
      "v": 80
    },
    {
      "midi": 72,
      "hit": false,
      "t": 12499.519999999966,
      "d": 208.3253333333323,
      "v": 127
    },
    {
      "midi": 38,
      "hit": false,
      "t": 12499.519999999966,
      "d": 208.3253333333323,
      "v": 110
    },
    {
      "midi": 65,
      "hit": false,
      "t": 12613.151999999965,
      "d": 85.22400000000016,
      "v": 80
    },
    {
      "midi": 71,
      "hit": false,
      "t": 12726.783999999963,
      "d": 85.22400000000016,
      "v": 80
    },
    {
      "midi": 72,
      "hit": false,
      "t": 12726.783999999963,
      "d": 198.85599999999977,
      "v": 90
    },
    {
      "midi": 40,
      "hit": false,
      "t": 12726.783999999963,
      "d": 643.914666666662,
      "v": 110
    },
    {
      "midi": 65,
      "hit": false,
      "t": 12726.783999999963,
      "d": 643.914666666662,
      "v": 117
    },
    {
      "midi": 68,
      "hit": false,
      "t": 12840.415999999963,
      "d": 85.22400000000016,
      "v": 80
    },
    {
      "midi": 76,
      "hit": false,
      "t": 12954.047999999962,
      "d": 85.22400000000016,
      "v": 80
    },
    {
      "midi": 64,
      "hit": false,
      "t": 12954.047999999962,
      "d": 208.3253333333323,
      "v": 90
    },
    {
      "midi": 80,
      "hit": false,
      "t": 13067.679999999962,
      "d": 85.22400000000016,
      "v": 80
    },
    {
      "midi": 64,
      "hit": false,
      "t": 13171.842666666627,
      "d": 198.85599999999795,
      "v": 100
    },
    {
      "midi": 83,
      "hit": false,
      "t": 13181.31199999996,
      "d": 85.22400000000016,
      "v": 80
    },
    {
      "midi": 68,
      "hit": false,
      "t": 13181.31199999996,
      "d": 189.3866666666654,
      "v": 90
    },
    {
      "midi": 88,
      "hit": false,
      "t": 13294.94399999996,
      "d": 85.22399999999834,
      "v": 80
    },
    {
      "midi": 92,
      "hit": false,
      "t": 13408.575999999957,
      "d": 85.22400000000016,
      "v": 80
    },
    {
      "midi": 40,
      "hit": false,
      "t": 13408.575999999957,
      "d": 113.6319999999996,
      "v": 110
    },
    {
      "midi": 71,
      "hit": false,
      "t": 13408.575999999957,
      "d": 208.3253333333323,
      "v": 90
    },
    {
      "midi": 68,
      "hit": false,
      "t": 13408.575999999957,
      "d": 208.3253333333323,
      "v": 117
    },
    {
      "midi": 64,
      "hit": false,
      "t": 13408.575999999957,
      "d": 208.3253333333323,
      "v": 90
    },
    {
      "midi": 88,
      "hit": false,
      "t": 13522.207999999957,
      "d": 85.22400000000016,
      "v": 80
    },
    {
      "midi": 83,
      "hit": false,
      "t": 13635.839999999955,
      "d": 85.22400000000016,
      "v": 80
    },
    {
      "midi": 72,
      "hit": false,
      "t": 13635.839999999955,
      "d": 198.85599999999977,
      "v": 90
    },
    {
      "midi": 40,
      "hit": false,
      "t": 13635.839999999955,
      "d": 871.1786666666612,
      "v": 110
    },
    {
      "midi": 80,
      "hit": false,
      "t": 13749.471999999954,
      "d": 85.22400000000016,
      "v": 80
    },
    {
      "midi": 76,
      "hit": false,
      "t": 13863.103999999954,
      "d": 85.22400000000016,
      "v": 80
    },
    {
      "midi": 71,
      "hit": false,
      "t": 13976.735999999953,
      "d": 85.22400000000016,
      "v": 80
    },
    {
      "midi": 71,
      "hit": false,
      "t": 14080.898666666619,
      "d": 208.3253333333323,
      "v": 100
    },
    {
      "midi": 68,
      "hit": false,
      "t": 14090.367999999951,
      "d": 85.22400000000016,
      "v": 80
    },
    {
      "midi": 80,
      "hit": false,
      "t": 14090.367999999951,
      "d": 208.3253333333323,
      "v": 90
    },
    {
      "midi": 64,
      "hit": false,
      "t": 14203.99999999995,
      "d": 85.22400000000016,
      "v": 80
    },
    {
      "midi": 59,
      "hit": false,
      "t": 14317.63199999995,
      "d": 85.22400000000016,
      "v": 80
    },
    {
      "midi": 83,
      "hit": false,
      "t": 14317.63199999995,
      "d": 208.3253333333305,
      "v": 90
    },
    {
      "midi": 56,
      "hit": false,
      "t": 14431.26399999995,
      "d": 85.22399999999834,
      "v": 80
    },
    {
      "midi": 68,
      "hit": false,
      "t": 14544.895999999946,
      "d": 85.22399999999288,
      "v": 80
    },
    {
      "midi": 88,
      "hit": false,
      "t": 14544.895999999946,
      "d": 198.8559999999925,
      "v": 117
    },
    {
      "midi": 52,
      "hit": false,
      "t": 14544.895999999946,
      "d": 426.1199999999899,
      "v": 127
    },
    {
      "midi": 100,
      "hit": false,
      "t": 14544.895999999946,
      "d": 426.1199999999899,
      "v": 90
    },
    {
      "midi": 64,
      "hit": false,
      "t": 14544.895999999946,
      "d": 454.5279999999875,
      "v": 117
    },
    {
      "midi": 71,
      "hit": false,
      "t": 14658.527999999938,
      "d": 85.22400000000016,
      "v": 80
    },
    {
      "midi": 76,
      "hit": false,
      "t": 14772.159999999936,
      "d": 85.22400000000016,
      "v": 80
    },
    {
      "midi": 86,
      "hit": false,
      "t": 14772.159999999936,
      "d": 198.85599999999977,
      "v": 90
    },
    {
      "midi": 80,
      "hit": false,
      "t": 14885.791999999936,
      "d": 85.22400000000016,
      "v": 80
    },
    {
      "midi": 83,
      "hit": false,
      "t": 14999.423999999934,
      "d": 85.22400000000016,
      "v": 80
    },
    {
      "midi": 84,
      "hit": false,
      "t": 14999.423999999934,
      "d": 198.85599999999977,
      "v": 90
    },
    {
      "midi": 50,
      "hit": false,
      "t": 14999.423999999934,
      "d": 426.11999999999716,
      "v": 127
    },
    {
      "midi": 98,
      "hit": false,
      "t": 14999.423999999934,
      "d": 426.11999999999716,
      "v": 90
    },
    {
      "midi": 86,
      "hit": false,
      "t": 14999.423999999934,
      "d": 426.11999999999716,
      "v": 117
    },
    {
      "midi": 71,
      "hit": false,
      "t": 14999.423999999934,
      "d": 454.5279999999948,
      "v": 117
    },
    {
      "midi": 68,
      "hit": false,
      "t": 14999.423999999934,
      "d": 454.5279999999948,
      "v": 117
    },
    {
      "midi": 64,
      "hit": false,
      "t": 14999.423999999934,
      "d": 454.5279999999948,
      "v": 117
    },
    {
      "midi": 88,
      "hit": false,
      "t": 15113.055999999933,
      "d": 85.22400000000016,
      "v": 80
    },
    {
      "midi": 92,
      "hit": false,
      "t": 15226.687999999931,
      "d": 85.22400000000016,
      "v": 80
    },
    {
      "midi": 83,
      "hit": false,
      "t": 15226.687999999931,
      "d": 198.85599999999977,
      "v": 90
    },
    {
      "midi": 88,
      "hit": false,
      "t": 15340.31999999993,
      "d": 85.22400000000016,
      "v": 80
    },
    {
      "midi": 83,
      "hit": false,
      "t": 15453.951999999928,
      "d": 85.22400000000016,
      "v": 80
    },
    {
      "midi": 81,
      "hit": false,
      "t": 15453.951999999928,
      "d": 198.85599999999977,
      "v": 90
    },
    {
      "midi": 48,
      "hit": false,
      "t": 15453.951999999928,
      "d": 426.11999999999716,
      "v": 127
    },
    {
      "midi": 96,
      "hit": false,
      "t": 15453.951999999928,
      "d": 426.11999999999716,
      "v": 90
    },
    {
      "midi": 84,
      "hit": false,
      "t": 15453.951999999928,
      "d": 426.11999999999716,
      "v": 117
    },
    {
      "midi": 68,
      "hit": false,
      "t": 15453.951999999928,
      "d": 454.5279999999948,
      "v": 117
    },
    {
      "midi": 64,
      "hit": false,
      "t": 15453.951999999928,
      "d": 454.5279999999948,
      "v": 117
    },
    {
      "midi": 80,
      "hit": false,
      "t": 15567.583999999928,
      "d": 85.22400000000016,
      "v": 80
    },
    {
      "midi": 76,
      "hit": false,
      "t": 15681.215999999926,
      "d": 85.22400000000016,
      "v": 80
    },
    {
      "midi": 80,
      "hit": false,
      "t": 15681.215999999926,
      "d": 198.85599999999977,
      "v": 90
    },
    {
      "midi": 71,
      "hit": false,
      "t": 15794.847999999925,
      "d": 85.22400000000016,
      "v": 80
    },
    {
      "midi": 68,
      "hit": false,
      "t": 15908.479999999923,
      "d": 85.22400000000016,
      "v": 80
    },
    {
      "midi": 76,
      "hit": false,
      "t": 15908.479999999923,
      "d": 198.85599999999977,
      "v": 90
    },
    {
      "midi": 47,
      "hit": false,
      "t": 15908.479999999923,
      "d": 426.11999999999716,
      "v": 127
    },
    {
      "midi": 98,
      "hit": false,
      "t": 15908.479999999923,
      "d": 426.11999999999716,
      "v": 90
    },
    {
      "midi": 86,
      "hit": false,
      "t": 15908.479999999923,
      "d": 426.11999999999716,
      "v": 117
    },
    {
      "midi": 64,
      "hit": false,
      "t": 16022.111999999923,
      "d": 85.22400000000016,
      "v": 80
    },
    {
      "midi": 59,
      "hit": false,
      "t": 16135.74399999992,
      "d": 85.22400000000016,
      "v": 80
    },
    {
      "midi": 71,
      "hit": false,
      "t": 16135.74399999992,
      "d": 198.85599999999977,
      "v": 90
    },
    {
      "midi": 56,
      "hit": false,
      "t": 16249.37599999992,
      "d": 85.22400000000016,
      "v": 80
    },
    {
      "midi": 69,
      "hit": false,
      "t": 16363.007999999918,
      "d": 85.22399999999834,
      "v": 80
    },
    {
      "midi": 45,
      "hit": false,
      "t": 16363.007999999918,
      "d": 1136.319999999996,
      "v": 127
    },
    {
      "midi": 64,
      "hit": false,
      "t": 16363.007999999918,
      "d": 1136.319999999996,
      "v": 117
    },
    {
      "midi": 100,
      "hit": false,
      "t": 16363.007999999918,
      "d": 1136.319999999996,
      "v": 90
    },
    {
      "midi": 72,
      "hit": false,
      "t": 16476.639999999916,
      "d": 85.22399999999834,
      "v": 80
    },
    {
      "midi": 76,
      "hit": false,
      "t": 16590.271999999917,
      "d": 85.22399999999834,
      "v": 80
    },
    {
      "midi": 81,
      "hit": false,
      "t": 16703.903999999915,
      "d": 85.22399999999834,
      "v": 80
    },
    {
      "midi": 84,
      "hit": false,
      "t": 16817.535999999916,
      "d": 85.22399999999834,
      "v": 80
    },
    {
      "midi": 74,
      "hit": false,
      "t": 16817.535999999916,
      "d": 198.85599999999613,
      "v": 90
    },
    {
      "midi": 88,
      "hit": false,
      "t": 16931.167999999914,
      "d": 85.22399999999834,
      "v": 80
    },
    {
      "midi": 93,
      "hit": false,
      "t": 17044.799999999916,
      "d": 85.22399999999834,
      "v": 80
    },
    {
      "midi": 76,
      "hit": false,
      "t": 17044.799999999916,
      "d": 198.85599999999613,
      "v": 90
    },
    {
      "midi": 88,
      "hit": false,
      "t": 17158.431999999913,
      "d": 85.22399999999834,
      "v": 80
    },
    {
      "midi": 84,
      "hit": false,
      "t": 17272.063999999915,
      "d": 85.22399999999834,
      "v": 80
    },
    {
      "midi": 72,
      "hit": false,
      "t": 17272.063999999915,
      "d": 198.85599999999613,
      "v": 90
    },
    {
      "midi": 81,
      "hit": false,
      "t": 17385.695999999913,
      "d": 85.22399999999834,
      "v": 80
    },
    {
      "midi": 76,
      "hit": false,
      "t": 17489.85866666658,
      "d": 9.469333333334362,
      "v": 100
    },
    {
      "midi": 76,
      "hit": false,
      "t": 17499.327999999914,
      "d": 85.22399999999834,
      "v": 80
    },
    {
      "midi": 43,
      "hit": false,
      "t": 17499.327999999914,
      "d": 208.3253333333305,
      "v": 127
    },
    {
      "midi": 74,
      "hit": false,
      "t": 17499.327999999914,
      "d": 426.11999999999534,
      "v": 117
    },
    {
      "midi": 67,
      "hit": false,
      "t": 17499.327999999914,
      "d": 426.11999999999534,
      "v": 117
    },
    {
      "midi": 62,
      "hit": false,
      "t": 17499.327999999914,
      "d": 426.11999999999534,
      "v": 117
    },
    {
      "midi": 98,
      "hit": false,
      "t": 17499.327999999914,
      "d": 426.11999999999534,
      "v": 90
    },
    {
      "midi": 86,
      "hit": false,
      "t": 17499.327999999914,
      "d": 426.11999999999534,
      "v": 117
    },
    {
      "midi": 72,
      "hit": false,
      "t": 17612.95999999991,
      "d": 85.22399999999834,
      "v": 80
    },
    {
      "midi": 69,
      "hit": false,
      "t": 17726.591999999913,
      "d": 85.22399999999834,
      "v": 80
    },
    {
      "midi": 71,
      "hit": false,
      "t": 17726.591999999913,
      "d": 198.85599999999613,
      "v": 90
    },
    {
      "midi": 72,
      "hit": false,
      "t": 17840.22399999991,
      "d": 85.22399999999834,
      "v": 80
    },
    {
      "midi": 76,
      "hit": false,
      "t": 17953.855999999912,
      "d": 85.22399999999834,
      "v": 80
    },
    {
      "midi": 41,
      "hit": false,
      "t": 17953.855999999912,
      "d": 1818.1119999999937,
      "v": 127
    },
    {
      "midi": 60,
      "hit": false,
      "t": 17953.855999999912,
      "d": 2026.4373333333242,
      "v": 117
    },
    {
      "midi": 81,
      "hit": false,
      "t": 18067.48799999991,
      "d": 85.22399999999834,
      "v": 80
    },
    {
      "midi": 84,
      "hit": false,
      "t": 18181.11999999991,
      "d": 85.22399999999834,
      "v": 80
    },
    {
      "midi": 65,
      "hit": false,
      "t": 18181.11999999991,
      "d": 198.85599999999613,
      "v": 90
    },
    {
      "midi": 88,
      "hit": false,
      "t": 18294.75199999991,
      "d": 85.22399999999834,
      "v": 80
    },
    {
      "midi": 93,
      "hit": false,
      "t": 18408.38399999991,
      "d": 85.22399999999834,
      "v": 80
    },
    {
      "midi": 69,
      "hit": false,
      "t": 18408.38399999991,
      "d": 198.85599999999613,
      "v": 90
    },
    {
      "midi": 88,
      "hit": false,
      "t": 18522.01599999991,
      "d": 85.22399999999834,
      "v": 80
    },
    {
      "midi": 84,
      "hit": false,
      "t": 18635.64799999991,
      "d": 85.22399999999834,
      "v": 80
    },
    {
      "midi": 72,
      "hit": false,
      "t": 18635.64799999991,
      "d": 198.85599999999613,
      "v": 90
    },
    {
      "midi": 81,
      "hit": false,
      "t": 18749.279999999908,
      "d": 85.22399999999834,
      "v": 80
    },
    {
      "midi": 76,
      "hit": false,
      "t": 18862.91199999991,
      "d": 85.22399999999834,
      "v": 80
    },
    {
      "midi": 72,
      "hit": false,
      "t": 18976.543999999907,
      "d": 85.22399999999834,
      "v": 80
    },
    {
      "midi": 69,
      "hit": false,
      "t": 19090.17599999991,
      "d": 85.22399999999834,
      "v": 80
    },
    {
      "midi": 77,
      "hit": false,
      "t": 19090.17599999991,
      "d": 198.85599999999613,
      "v": 90
    },
    {
      "midi": 72,
      "hit": false,
      "t": 19203.807999999906,
      "d": 85.22399999999834,
      "v": 80
    },
    {
      "midi": 76,
      "hit": false,
      "t": 19317.439999999908,
      "d": 85.22399999999834,
      "v": 80
    },
    {
      "midi": 81,
      "hit": false,
      "t": 19431.071999999906,
      "d": 85.22399999999834,
      "v": 80
    },
    {
      "midi": 84,
      "hit": false,
      "t": 19544.703999999907,
      "d": 85.22399999999834,
      "v": 80
    },
    {
      "midi": 113,
      "hit": false,
      "t": 19544.703999999907,
      "d": 94.6933333333327,
      "v": 100
    },
    {
      "midi": 105,
      "hit": false,
      "t": 19544.703999999907,
      "d": 94.6933333333327,
      "v": 127
    },
    {
      "midi": 40,
      "hit": false,
      "t": 19544.703999999907,
      "d": 94.6933333333327,
      "v": 127
    },
    {
      "midi": 88,
      "hit": false,
      "t": 19658.335999999905,
      "d": 85.22399999999834,
      "v": 80
    },
    {
      "midi": 113,
      "hit": false,
      "t": 19658.335999999905,
      "d": 94.6933333333327,
      "v": 100
    },
    {
      "midi": 105,
      "hit": false,
      "t": 19658.335999999905,
      "d": 94.6933333333327,
      "v": 127
    },
    {
      "midi": 40,
      "hit": false,
      "t": 19658.335999999905,
      "d": 94.6933333333327,
      "v": 127
    },
    {
      "midi": 93,
      "hit": false,
      "t": 19771.967999999906,
      "d": 85.22399999999834,
      "v": 80
    },
    {
      "midi": 88,
      "hit": false,
      "t": 19771.967999999906,
      "d": 198.85599999999613,
      "v": 90
    },
    {
      "midi": 96,
      "hit": false,
      "t": 19885.599999999904,
      "d": 85.22399999999834,
      "v": 80
    },
    {
      "midi": 69,
      "hit": false,
      "t": 19999.231999999905,
      "d": 85.22400000000198,
      "v": 115
    },
    {
      "midi": 33,
      "hit": false,
      "t": 19999.231999999905,
      "d": 94.69333333333634,
      "v": 127
    },
    {
      "midi": 48,
      "hit": false,
      "t": 19999.231999999905,
      "d": 94.69333333333634,
      "v": 64
    },
    {
      "midi": 15,
      "hit": false,
      "t": 19999.231999999905,
      "d": 94.69333333333634,
      "v": 100
    },
    {
      "midi": 13,
      "hit": false,
      "t": 19999.231999999905,
      "d": 94.69333333333634,
      "v": 100
    },
    {
      "midi": 10,
      "hit": false,
      "t": 19999.231999999905,
      "d": 94.69333333333634,
      "v": 127
    },
    {
      "midi": 42,
      "hit": false,
      "t": 19999.231999999905,
      "d": 94.69333333333634,
      "v": 92
    },
    {
      "midi": 64,
      "hit": false,
      "t": 20008.70133333324,
      "d": 94.69333333333634,
      "v": 70
    },
    {
      "midi": 52,
      "hit": false,
      "t": 20008.70133333324,
      "d": 142.04000000000815,
      "v": 115
    },
    {
      "midi": 60,
      "hit": false,
      "t": 20018.170666666574,
      "d": 94.69333333333634,
      "v": 70
    },
    {
      "midi": 45,
      "hit": false,
      "t": 20018.170666666574,
      "d": 416.650666666701,
      "v": 115
    },
    {
      "midi": 48,
      "hit": false,
      "t": 20093.92533333324,
      "d": 18.938666666668723,
      "v": 64
    },
    {
      "midi": 49,
      "hit": false,
      "t": 20112.86399999991,
      "d": 18.938666666668723,
      "v": 64
    },
    {
      "midi": 72,
      "hit": false,
      "t": 20112.86399999991,
      "d": 85.22400000000562,
      "v": 80
    },
    {
      "midi": 33,
      "hit": false,
      "t": 20112.86399999991,
      "d": 94.69333333333998,
      "v": 127
    },
    {
      "midi": 60,
      "hit": false,
      "t": 20112.86399999991,
      "d": 94.69333333333998,
      "v": 70
    },
    {
      "midi": 50,
      "hit": false,
      "t": 20122.333333333245,
      "d": 18.938666666668723,
      "v": 64
    },
    {
      "midi": 42,
      "hit": false,
      "t": 20122.333333333245,
      "d": 94.69333333333998,
      "v": 78
    },
    {
      "midi": 64,
      "hit": false,
      "t": 20122.333333333245,
      "d": 94.69333333333998,
      "v": 70
    },
    {
      "midi": 69,
      "hit": false,
      "t": 20131.80266666658,
      "d": 94.69333333333998,
      "v": 70
    },
    {
      "midi": 51,
      "hit": false,
      "t": 20141.271999999914,
      "d": 18.938666666668723,
      "v": 64
    },
    {
      "midi": 52,
      "hit": false,
      "t": 20150.741333333248,
      "d": 18.938666666668723,
      "v": 64
    },
    {
      "midi": 53,
      "hit": false,
      "t": 20169.679999999917,
      "d": 18.938666666665085,
      "v": 64
    },
    {
      "midi": 54,
      "hit": false,
      "t": 20188.61866666658,
      "d": 18.938666666668723,
      "v": 64
    },
    {
      "midi": 55,
      "hit": false,
      "t": 20198.087999999916,
      "d": 18.938666666668723,
      "v": 64
    },
    {
      "midi": 56,
      "hit": false,
      "t": 20217.026666666585,
      "d": 18.938666666668723,
      "v": 64
    },
    {
      "midi": 57,
      "hit": false,
      "t": 20226.49599999992,
      "d": 18.938666666668723,
      "v": 64
    },
    {
      "midi": 69,
      "hit": false,
      "t": 20226.49599999992,
      "d": 47.34666666667181,
      "v": 70
    },
    {
      "midi": 76,
      "hit": false,
      "t": 20226.49599999992,
      "d": 85.22400000000926,
      "v": 80
    },
    {
      "midi": 33,
      "hit": false,
      "t": 20226.49599999992,
      "d": 94.69333333334362,
      "v": 127
    },
    {
      "midi": 64,
      "hit": false,
      "t": 20235.965333333254,
      "d": 47.34666666667181,
      "v": 70
    },
    {
      "midi": 58,
      "hit": false,
      "t": 20245.434666666588,
      "d": 18.938666666668723,
      "v": 64
    },
    {
      "midi": 46,
      "hit": false,
      "t": 20245.434666666588,
      "d": 94.69333333334362,
      "v": 92
    },
    {
      "midi": 59,
      "hit": false,
      "t": 20254.903999999922,
      "d": 18.938666666668723,
      "v": 64
    },
    {
      "midi": 60,
      "hit": false,
      "t": 20273.84266666659,
      "d": 18.938666666668723,
      "v": 64
    },
    {
      "midi": 61,
      "hit": false,
      "t": 20292.78133333326,
      "d": 18.938666666668723,
      "v": 64
    },
    {
      "midi": 62,
      "hit": false,
      "t": 20302.250666666594,
      "d": 18.938666666668723,
      "v": 64
    },
    {
      "midi": 63,
      "hit": false,
      "t": 20321.189333333263,
      "d": 18.938666666668723,
      "v": 64
    },
    {
      "midi": 64,
      "hit": false,
      "t": 20340.12799999993,
      "d": 9.469333333334362,
      "v": 70
    },
    {
      "midi": 60,
      "hit": false,
      "t": 20340.12799999993,
      "d": 75.7546666666749,
      "v": 70
    },
    {
      "midi": 81,
      "hit": false,
      "t": 20340.12799999993,
      "d": 85.22400000000926,
      "v": 80
    },
    {
      "midi": 33,
      "hit": false,
      "t": 20340.12799999993,
      "d": 94.69333333334362,
      "v": 127
    },
    {
      "midi": 65,
      "hit": false,
      "t": 20349.597333333266,
      "d": 18.938666666668723,
      "v": 64
    },
    {
      "midi": 64,
      "hit": false,
      "t": 20349.597333333266,
      "d": 66.28533333334053,
      "v": 70
    },
    {
      "midi": 66,
      "hit": false,
      "t": 20368.535999999935,
      "d": 18.938666666668723,
      "v": 64
    },
    {
      "midi": 67,
      "hit": false,
      "t": 20378.00533333327,
      "d": 18.938666666668723,
      "v": 64
    },
    {
      "midi": 68,
      "hit": false,
      "t": 20396.943999999938,
      "d": 18.938666666668723,
      "v": 64
    },
    {
      "midi": 69,
      "hit": false,
      "t": 20406.413333333272,
      "d": 18.938666666668723,
      "v": 64
    },
    {
      "midi": 70,
      "hit": false,
      "t": 20425.35199999994,
      "d": 18.938666666668723,
      "v": 64
    },
    {
      "midi": 71,
      "hit": false,
      "t": 20434.821333333275,
      "d": 18.938666666668723,
      "v": 64
    },
    {
      "midi": 84,
      "hit": false,
      "t": 20453.759999999944,
      "d": 85.22400000000198,
      "v": 80
    },
    {
      "midi": 33,
      "hit": false,
      "t": 20453.759999999944,
      "d": 94.69333333333634,
      "v": 127
    },
    {
      "midi": 15,
      "hit": false,
      "t": 20453.759999999944,
      "d": 94.69333333333634,
      "v": 100
    },
    {
      "midi": 13,
      "hit": false,
      "t": 20453.759999999944,
      "d": 94.69333333333634,
      "v": 100
    },
    {
      "midi": 10,
      "hit": false,
      "t": 20453.759999999944,
      "d": 94.69333333333634,
      "v": 127
    },
    {
      "midi": 127,
      "hit": false,
      "t": 20453.759999999944,
      "d": 94.69333333333634,
      "v": 60
    },
    {
      "midi": 108,
      "hit": false,
      "t": 20453.759999999944,
      "d": 94.69333333333634,
      "v": 80
    },
    {
      "midi": 105,
      "hit": false,
      "t": 20453.759999999944,
      "d": 94.69333333333634,
      "v": 100
    },
    {
      "midi": 42,
      "hit": false,
      "t": 20453.759999999944,
      "d": 94.69333333333634,
      "v": 92
    },
    {
      "midi": 69,
      "hit": false,
      "t": 20453.759999999944,
      "d": 94.69333333333634,
      "v": 115
    },
    {
      "midi": 63,
      "hit": false,
      "t": 20453.759999999944,
      "d": 94.69333333333634,
      "v": 70
    },
    {
      "midi": 57,
      "hit": false,
      "t": 20453.759999999944,
      "d": 208.3253333333414,
      "v": 110
    },
    {
      "midi": 76,
      "hit": false,
      "t": 20453.759999999944,
      "d": 208.3253333333414,
      "v": 127
    },
    {
      "midi": 72,
      "hit": false,
      "t": 20453.759999999944,
      "d": 208.3253333333414,
      "v": 127
    },
    {
      "midi": 64,
      "hit": false,
      "t": 20463.22933333328,
      "d": 94.69333333333634,
      "v": 70
    },
    {
      "midi": 52,
      "hit": false,
      "t": 20463.22933333328,
      "d": 198.85600000000704,
      "v": 115
    },
    {
      "midi": 60,
      "hit": false,
      "t": 20472.698666666613,
      "d": 94.69333333333634,
      "v": 70
    },
    {
      "midi": 45,
      "hit": false,
      "t": 20472.698666666613,
      "d": 198.85600000000704,
      "v": 115
    },
    {
      "midi": 88,
      "hit": false,
      "t": 20567.39199999995,
      "d": 85.22400000000198,
      "v": 80
    },
    {
      "midi": 42,
      "hit": false,
      "t": 20576.861333333283,
      "d": 94.69333333333634,
      "v": 78
    },
    {
      "midi": 45,
      "hit": false,
      "t": 20671.55466666662,
      "d": 9.469333333334362,
      "v": 90
    },
    {
      "midi": 45,
      "hit": false,
      "t": 20681.023999999954,
      "d": 85.22400000000198,
      "v": 115
    },
    {
      "midi": 52,
      "hit": false,
      "t": 20681.023999999954,
      "d": 85.22400000000198,
      "v": 115
    },
    {
      "midi": 93,
      "hit": false,
      "t": 20681.023999999954,
      "d": 85.22400000000198,
      "v": 80
    },
    {
      "midi": 33,
      "hit": false,
      "t": 20681.023999999954,
      "d": 94.69333333333634,
      "v": 127
    },
    {
      "midi": 57,
      "hit": false,
      "t": 20681.023999999954,
      "d": 94.69333333333634,
      "v": 90
    },
    {
      "midi": 76,
      "hit": false,
      "t": 20681.023999999954,
      "d": 94.69333333333634,
      "v": 127
    },
    {
      "midi": 72,
      "hit": false,
      "t": 20681.023999999954,
      "d": 94.69333333333634,
      "v": 127
    },
    {
      "midi": 64,
      "hit": false,
      "t": 20690.49333333329,
      "d": 94.69333333333634,
      "v": 115
    },
    {
      "midi": 60,
      "hit": false,
      "t": 20699.962666666623,
      "d": 75.75466666666762,
      "v": 70
    },
    {
      "midi": 69,
      "hit": false,
      "t": 20699.962666666623,
      "d": 75.75466666666762,
      "v": 115
    },
    {
      "midi": 46,
      "hit": false,
      "t": 20699.962666666623,
      "d": 94.69333333333634,
      "v": 92
    },
    {
      "midi": 60,
      "hit": false,
      "t": 20785.186666666625,
      "d": 9.469333333334362,
      "v": 110
    },
    {
      "midi": 88,
      "hit": false,
      "t": 20794.65599999996,
      "d": 85.22400000000198,
      "v": 80
    },
    {
      "midi": 33,
      "hit": false,
      "t": 20794.65599999996,
      "d": 94.69333333333634,
      "v": 127
    },
    {
      "midi": 57,
      "hit": false,
      "t": 20794.65599999996,
      "d": 94.69333333333634,
      "v": 110
    },
    {
      "midi": 76,
      "hit": false,
      "t": 20794.65599999996,
      "d": 94.69333333333634,
      "v": 127
    },
    {
      "midi": 72,
      "hit": false,
      "t": 20794.65599999996,
      "d": 94.69333333333634,
      "v": 127
    },
    {
      "midi": 64,
      "hit": false,
      "t": 20804.125333333293,
      "d": 75.75466666666762,
      "v": 70
    },
    {
      "midi": 60,
      "hit": false,
      "t": 20804.125333333293,
      "d": 75.75466666666762,
      "v": 115
    },
    {
      "midi": 52,
      "hit": false,
      "t": 20804.125333333293,
      "d": 85.22400000000198,
      "v": 115
    },
    {
      "midi": 69,
      "hit": false,
      "t": 20813.594666666628,
      "d": 75.75466666666762,
      "v": 70
    },
    {
      "midi": 45,
      "hit": false,
      "t": 20813.594666666628,
      "d": 85.22400000000198,
      "v": 115
    },
    {
      "midi": 45,
      "hit": false,
      "t": 20898.81866666663,
      "d": 9.469333333334362,
      "v": 100
    },
    {
      "midi": 84,
      "hit": false,
      "t": 20908.287999999964,
      "d": 85.22400000000198,
      "v": 80
    },
    {
      "midi": 33,
      "hit": false,
      "t": 20908.287999999964,
      "d": 94.69333333333634,
      "v": 127
    },
    {
      "midi": 15,
      "hit": false,
      "t": 20908.287999999964,
      "d": 94.69333333333634,
      "v": 100
    },
    {
      "midi": 13,
      "hit": false,
      "t": 20908.287999999964,
      "d": 94.69333333333634,
      "v": 100
    },
    {
      "midi": 10,
      "hit": false,
      "t": 20908.287999999964,
      "d": 94.69333333333634,
      "v": 127
    },
    {
      "midi": 42,
      "hit": false,
      "t": 20908.287999999964,
      "d": 94.69333333333634,
      "v": 92
    },
    {
      "midi": 74,
      "hit": false,
      "t": 20908.287999999964,
      "d": 151.50933333333523,
      "v": 110
    },
    {
      "midi": 71,
      "hit": false,
      "t": 20908.287999999964,
      "d": 151.50933333333523,
      "v": 110
    },
    {
      "midi": 45,
      "hit": false,
      "t": 20908.287999999964,
      "d": 198.8560000000034,
      "v": 95
    },
    {
      "midi": 52,
      "hit": false,
      "t": 20908.287999999964,
      "d": 198.8560000000034,
      "v": 95
    },
    {
      "midi": 57,
      "hit": false,
      "t": 20908.287999999964,
      "d": 208.32533333333777,
      "v": 100
    },
    {
      "midi": 60,
      "hit": false,
      "t": 20917.7573333333,
      "d": 198.8560000000034,
      "v": 95
    },
    {
      "midi": 64,
      "hit": false,
      "t": 20917.7573333333,
      "d": 208.32533333333777,
      "v": 95
    },
    {
      "midi": 69,
      "hit": false,
      "t": 20927.226666666633,
      "d": 208.32533333333777,
      "v": 95
    },
    {
      "midi": 81,
      "hit": false,
      "t": 21021.919999999966,
      "d": 85.22400000000198,
      "v": 80
    },
    {
      "midi": 42,
      "hit": false,
      "t": 21031.3893333333,
      "d": 94.69333333333634,
      "v": 78
    },
    {
      "midi": 76,
      "hit": false,
      "t": 21135.55199999997,
      "d": 85.22400000000198,
      "v": 127
    },
    {
      "midi": 72,
      "hit": false,
      "t": 21135.55199999997,
      "d": 113.63200000000143,
      "v": 127
    },
    {
      "midi": 64,
      "hit": false,
      "t": 21135.55199999997,
      "d": 198.8560000000034,
      "v": 95
    },
    {
      "midi": 33,
      "hit": false,
      "t": 21135.55199999997,
      "d": 208.32533333333777,
      "v": 127
    },
    {
      "midi": 57,
      "hit": false,
      "t": 21135.55199999997,
      "d": 208.32533333333777,
      "v": 90
    },
    {
      "midi": 69,
      "hit": false,
      "t": 21135.55199999997,
      "d": 208.32533333333777,
      "v": 95
    },
    {
      "midi": 60,
      "hit": false,
      "t": 21145.021333333305,
      "d": 189.38666666666904,
      "v": 95
    },
    {
      "midi": 52,
      "hit": false,
      "t": 21145.021333333305,
      "d": 198.8560000000034,
      "v": 95
    },
    {
      "midi": 46,
      "hit": false,
      "t": 21154.49066666664,
      "d": 94.6933333333327,
      "v": 92
    },
    {
      "midi": 45,
      "hit": false,
      "t": 21154.49066666664,
      "d": 198.8560000000034,
      "v": 95
    },
    {
      "midi": 72,
      "hit": false,
      "t": 21249.183999999972,
      "d": 85.22400000000198,
      "v": 80
    },
    {
      "midi": 63,
      "hit": false,
      "t": 21249.183999999972,
      "d": 94.69333333333634,
      "v": 80
    },
    {
      "midi": 69,
      "hit": false,
      "t": 21362.815999999977,
      "d": 85.22400000000198,
      "v": 115
    },
    {
      "midi": 33,
      "hit": false,
      "t": 21362.815999999977,
      "d": 94.69333333333634,
      "v": 127
    },
    {
      "midi": 15,
      "hit": false,
      "t": 21362.815999999977,
      "d": 94.69333333333634,
      "v": 100
    },
    {
      "midi": 13,
      "hit": false,
      "t": 21362.815999999977,
      "d": 94.69333333333634,
      "v": 100
    },
    {
      "midi": 10,
      "hit": false,
      "t": 21362.815999999977,
      "d": 94.69333333333634,
      "v": 127
    },
    {
      "midi": 127,
      "hit": false,
      "t": 21362.815999999977,
      "d": 94.69333333333634,
      "v": 60
    },
    {
      "midi": 108,
      "hit": false,
      "t": 21362.815999999977,
      "d": 94.69333333333634,
      "v": 80
    },
    {
      "midi": 105,
      "hit": false,
      "t": 21362.815999999977,
      "d": 94.69333333333634,
      "v": 100
    },
    {
      "midi": 42,
      "hit": false,
      "t": 21362.815999999977,
      "d": 94.69333333333634,
      "v": 92
    },
    {
      "midi": 64,
      "hit": false,
      "t": 21362.815999999977,
      "d": 94.69333333333634,
      "v": 70
    },
    {
      "midi": 57,
      "hit": false,
      "t": 21362.815999999977,
      "d": 426.12000000000626,
      "v": 110
    },
    {
      "midi": 60,
      "hit": false,
      "t": 21372.28533333331,
      "d": 407.18133333333753,
      "v": 115
    },
    {
      "midi": 52,
      "hit": false,
      "t": 21372.28533333331,
      "d": 416.6506666666719,
      "v": 115
    },
    {
      "midi": 45,
      "hit": false,
      "t": 21381.754666666646,
      "d": 416.6506666666719,
      "v": 115
    },
    {
      "midi": 72,
      "hit": false,
      "t": 21476.44799999998,
      "d": 85.22400000000198,
      "v": 80
    },
    {
      "midi": 33,
      "hit": false,
      "t": 21476.44799999998,
      "d": 94.69333333333634,
      "v": 127
    },
    {
      "midi": 42,
      "hit": false,
      "t": 21485.917333333313,
      "d": 94.69333333333634,
      "v": 78
    },
    {
      "midi": 76,
      "hit": false,
      "t": 21590.079999999984,
      "d": 85.22399999999834,
      "v": 80
    },
    {
      "midi": 33,
      "hit": false,
      "t": 21590.079999999984,
      "d": 94.6933333333327,
      "v": 127
    },
    {
      "midi": 77,
      "hit": false,
      "t": 21590.079999999984,
      "d": 435.58933333334426,
      "v": 127
    },
    {
      "midi": 46,
      "hit": false,
      "t": 21609.01866666665,
      "d": 94.6933333333327,
      "v": 92
    },
    {
      "midi": 81,
      "hit": false,
      "t": 21703.71199999998,
      "d": 85.22400000000198,
      "v": 80
    },
    {
      "midi": 74,
      "hit": false,
      "t": 21817.343999999986,
      "d": 85.22400000000198,
      "v": 115
    },
    {
      "midi": 26,
      "hit": false,
      "t": 21817.343999999986,
      "d": 94.69333333333634,
      "v": 127
    },
    {
      "midi": 15,
      "hit": false,
      "t": 21817.343999999986,
      "d": 94.69333333333634,
      "v": 100
    },
    {
      "midi": 13,
      "hit": false,
      "t": 21817.343999999986,
      "d": 94.69333333333634,
      "v": 100
    },
    {
      "midi": 10,
      "hit": false,
      "t": 21817.343999999986,
      "d": 94.69333333333634,
      "v": 127
    },
    {
      "midi": 42,
      "hit": false,
      "t": 21817.343999999986,
      "d": 94.69333333333634,
      "v": 92
    },
    {
      "midi": 69,
      "hit": false,
      "t": 21817.343999999986,
      "d": 94.69333333333634,
      "v": 70
    },
    {
      "midi": 65,
      "hit": false,
      "t": 21826.81333333332,
      "d": 85.22400000000198,
      "v": 70
    },
    {
      "midi": 57,
      "hit": false,
      "t": 21826.81333333332,
      "d": 94.69333333333634,
      "v": 115
    },
    {
      "midi": 50,
      "hit": false,
      "t": 21826.81333333332,
      "d": 94.69333333333634,
      "v": 115
    },
    {
      "midi": 62,
      "hit": false,
      "t": 21836.282666666655,
      "d": 94.69333333333634,
      "v": 70
    },
    {
      "midi": 45,
      "hit": false,
      "t": 21836.282666666655,
      "d": 94.69333333333634,
      "v": 115
    },
    {
      "midi": 26,
      "hit": false,
      "t": 21930.97599999999,
      "d": 94.69333333333634,
      "v": 127
    },
    {
      "midi": 62,
      "hit": false,
      "t": 21930.97599999999,
      "d": 94.69333333333634,
      "v": 70
    },
    {
      "midi": 45,
      "hit": false,
      "t": 21930.97599999999,
      "d": 94.69333333333634,
      "v": 115
    },
    {
      "midi": 50,
      "hit": false,
      "t": 21930.97599999999,
      "d": 94.69333333333634,
      "v": 115
    },
    {
      "midi": 42,
      "hit": false,
      "t": 21940.445333333326,
      "d": 94.69333333333634,
      "v": 78
    },
    {
      "midi": 65,
      "hit": false,
      "t": 21940.445333333326,
      "d": 94.69333333333634,
      "v": 115
    },
    {
      "midi": 57,
      "hit": false,
      "t": 21940.445333333326,
      "d": 94.69333333333634,
      "v": 115
    },
    {
      "midi": 69,
      "hit": false,
      "t": 21949.91466666666,
      "d": 66.28533333333326,
      "v": 70
    },
    {
      "midi": 74,
      "hit": false,
      "t": 21949.91466666666,
      "d": 75.75466666666762,
      "v": 115
    },
    {
      "midi": 77,
      "hit": false,
      "t": 22044.607999999997,
      "d": 85.22400000000198,
      "v": 80
    },
    {
      "midi": 26,
      "hit": false,
      "t": 22044.607999999997,
      "d": 94.69333333333634,
      "v": 127
    },
    {
      "midi": 74,
      "hit": false,
      "t": 22044.607999999997,
      "d": 94.69333333333634,
      "v": 95
    },
    {
      "midi": 65,
      "hit": false,
      "t": 22044.607999999997,
      "d": 94.69333333333634,
      "v": 95
    },
    {
      "midi": 76,
      "hit": false,
      "t": 22044.607999999997,
      "d": 151.50933333333887,
      "v": 120
    },
    {
      "midi": 72,
      "hit": false,
      "t": 22044.607999999997,
      "d": 151.50933333333887,
      "v": 120
    },
    {
      "midi": 57,
      "hit": false,
      "t": 22054.07733333333,
      "d": 94.69333333333634,
      "v": 95
    },
    {
      "midi": 50,
      "hit": false,
      "t": 22054.07733333333,
      "d": 94.69333333333634,
      "v": 95
    },
    {
      "midi": 46,
      "hit": false,
      "t": 22063.546666666665,
      "d": 94.69333333333634,
      "v": 92
    },
    {
      "midi": 45,
      "hit": false,
      "t": 22063.546666666665,
      "d": 94.69333333333634,
      "v": 95
    },
    {
      "midi": 50,
      "hit": false,
      "t": 22158.24,
      "d": 85.22400000000198,
      "v": 95
    },
    {
      "midi": 81,
      "hit": false,
      "t": 22158.24,
      "d": 85.22400000000198,
      "v": 80
    },
    {
      "midi": 45,
      "hit": false,
      "t": 22158.24,
      "d": 94.69333333333634,
      "v": 95
    },
    {
      "midi": 26,
      "hit": false,
      "t": 22158.24,
      "d": 94.69333333333634,
      "v": 127
    },
    {
      "midi": 69,
      "hit": false,
      "t": 22158.24,
      "d": 94.69333333333634,
      "v": 70
    },
    {
      "midi": 64,
      "hit": false,
      "t": 22158.24,
      "d": 94.69333333333634,
      "v": 70
    },
    {
      "midi": 65,
      "hit": false,
      "t": 22167.709333333336,
      "d": 66.28533333333326,
      "v": 95
    },
    {
      "midi": 57,
      "hit": false,
      "t": 22167.709333333336,
      "d": 75.75466666666762,
      "v": 95
    },
    {
      "midi": 62,
      "hit": false,
      "t": 22177.17866666667,
      "d": 56.815999999998894,
      "v": 70
    },
    {
      "midi": 74,
      "hit": false,
      "t": 22177.17866666667,
      "d": 94.69333333333634,
      "v": 95
    },
    {
      "midi": 62,
      "hit": false,
      "t": 22262.402666666672,
      "d": 9.469333333334362,
      "v": 110
    },
    {
      "midi": 86,
      "hit": false,
      "t": 22271.872000000007,
      "d": 85.22400000000198,
      "v": 80
    },
    {
      "midi": 26,
      "hit": false,
      "t": 22271.872000000007,
      "d": 94.69333333333634,
      "v": 127
    },
    {
      "midi": 15,
      "hit": false,
      "t": 22271.872000000007,
      "d": 94.69333333333634,
      "v": 100
    },
    {
      "midi": 13,
      "hit": false,
      "t": 22271.872000000007,
      "d": 94.69333333333634,
      "v": 100
    },
    {
      "midi": 10,
      "hit": false,
      "t": 22271.872000000007,
      "d": 94.69333333333634,
      "v": 127
    },
    {
      "midi": 127,
      "hit": false,
      "t": 22271.872000000007,
      "d": 94.69333333333634,
      "v": 60
    },
    {
      "midi": 108,
      "hit": false,
      "t": 22271.872000000007,
      "d": 94.69333333333634,
      "v": 80
    },
    {
      "midi": 105,
      "hit": false,
      "t": 22271.872000000007,
      "d": 94.69333333333634,
      "v": 100
    },
    {
      "midi": 42,
      "hit": false,
      "t": 22271.872000000007,
      "d": 94.69333333333634,
      "v": 92
    },
    {
      "midi": 62,
      "hit": false,
      "t": 22271.872000000007,
      "d": 94.69333333333634,
      "v": 70
    },
    {
      "midi": 63,
      "hit": false,
      "t": 22271.872000000007,
      "d": 94.69333333333634,
      "v": 70
    },
    {
      "midi": 65,
      "hit": false,
      "t": 22281.34133333334,
      "d": 94.69333333333634,
      "v": 70
    },
    {
      "midi": 57,
      "hit": false,
      "t": 22281.34133333334,
      "d": 198.85600000000704,
      "v": 115
    },
    {
      "midi": 50,
      "hit": false,
      "t": 22281.34133333334,
      "d": 198.85600000000704,
      "v": 115
    },
    {
      "midi": 69,
      "hit": false,
      "t": 22290.810666666675,
      "d": 94.69333333333634,
      "v": 70
    },
    {
      "midi": 45,
      "hit": false,
      "t": 22290.810666666675,
      "d": 198.85600000000704,
      "v": 115
    },
    {
      "midi": 89,
      "hit": false,
      "t": 22385.50400000001,
      "d": 85.22400000000198,
      "v": 80
    },
    {
      "midi": 42,
      "hit": false,
      "t": 22394.973333333346,
      "d": 94.69333333333634,
      "v": 78
    },
    {
      "midi": 45,
      "hit": false,
      "t": 22489.666666666682,
      "d": 56.81600000000253,
      "v": 90
    },
    {
      "midi": 50,
      "hit": false,
      "t": 22489.666666666682,
      "d": 56.81600000000253,
      "v": 90
    },
    {
      "midi": 57,
      "hit": false,
      "t": 22499.136000000017,
      "d": 56.81600000000253,
      "v": 90
    },
    {
      "midi": 86,
      "hit": false,
      "t": 22499.136000000017,
      "d": 85.22400000000198,
      "v": 80
    },
    {
      "midi": 74,
      "hit": false,
      "t": 22499.136000000017,
      "d": 94.69333333333634,
      "v": 127
    },
    {
      "midi": 69,
      "hit": false,
      "t": 22499.136000000017,
      "d": 94.69333333333634,
      "v": 70
    },
    {
      "midi": 26,
      "hit": false,
      "t": 22499.136000000017,
      "d": 208.3253333333414,
      "v": 127
    },
    {
      "midi": 65,
      "hit": false,
      "t": 22508.60533333335,
      "d": 56.81600000000253,
      "v": 70
    },
    {
      "midi": 62,
      "hit": false,
      "t": 22518.074666666686,
      "d": 37.87733333333381,
      "v": 70
    },
    {
      "midi": 46,
      "hit": false,
      "t": 22518.074666666686,
      "d": 94.69333333333634,
      "v": 92
    },
    {
      "midi": 62,
      "hit": false,
      "t": 22603.298666666687,
      "d": 9.469333333334362,
      "v": 100
    },
    {
      "midi": 62,
      "hit": false,
      "t": 22612.768000000022,
      "d": 47.34666666666817,
      "v": 70
    },
    {
      "midi": 50,
      "hit": false,
      "t": 22612.768000000022,
      "d": 56.81600000000253,
      "v": 95
    },
    {
      "midi": 81,
      "hit": false,
      "t": 22612.768000000022,
      "d": 85.22400000000198,
      "v": 80
    },
    {
      "midi": 65,
      "hit": false,
      "t": 22622.237333333356,
      "d": 37.87733333333381,
      "v": 95
    },
    {
      "midi": 57,
      "hit": false,
      "t": 22622.237333333356,
      "d": 47.34666666666817,
      "v": 95
    },
    {
      "midi": 45,
      "hit": false,
      "t": 22622.237333333356,
      "d": 56.81600000000253,
      "v": 100
    },
    {
      "midi": 69,
      "hit": false,
      "t": 22631.70666666669,
      "d": 94.69333333333634,
      "v": 70
    },
    {
      "midi": 74,
      "hit": false,
      "t": 22631.70666666669,
      "d": 94.69333333333634,
      "v": 95
    },
    {
      "midi": 45,
      "hit": false,
      "t": 22716.930666666693,
      "d": 18.938666666668723,
      "v": 110
    },
    {
      "midi": 50,
      "hit": false,
      "t": 22716.930666666693,
      "d": 18.938666666668723,
      "v": 110
    },
    {
      "midi": 62,
      "hit": false,
      "t": 22726.400000000027,
      "d": 18.938666666668723,
      "v": 110
    },
    {
      "midi": 77,
      "hit": false,
      "t": 22726.400000000027,
      "d": 85.22400000000198,
      "v": 80
    },
    {
      "midi": 26,
      "hit": false,
      "t": 22726.400000000027,
      "d": 94.69333333333634,
      "v": 127
    },
    {
      "midi": 15,
      "hit": false,
      "t": 22726.400000000027,
      "d": 94.69333333333634,
      "v": 100
    },
    {
      "midi": 13,
      "hit": false,
      "t": 22726.400000000027,
      "d": 94.69333333333634,
      "v": 100
    },
    {
      "midi": 10,
      "hit": false,
      "t": 22726.400000000027,
      "d": 94.69333333333634,
      "v": 127
    },
    {
      "midi": 42,
      "hit": false,
      "t": 22726.400000000027,
      "d": 94.69333333333634,
      "v": 92
    },
    {
      "midi": 74,
      "hit": false,
      "t": 22726.400000000027,
      "d": 94.69333333333634,
      "v": 95
    },
    {
      "midi": 57,
      "hit": false,
      "t": 22735.86933333336,
      "d": 9.469333333334362,
      "v": 95
    },
    {
      "midi": 65,
      "hit": false,
      "t": 22735.86933333336,
      "d": 18.938666666668723,
      "v": 110
    },
    {
      "midi": 50,
      "hit": false,
      "t": 22735.86933333336,
      "d": 94.69333333333634,
      "v": 95
    },
    {
      "midi": 45,
      "hit": false,
      "t": 22745.338666666696,
      "d": 94.69333333333634,
      "v": 95
    },
    {
      "midi": 65,
      "hit": false,
      "t": 22830.562666666698,
      "d": 18.938666666668723,
      "v": 100
    },
    {
      "midi": 62,
      "hit": false,
      "t": 22830.562666666698,
      "d": 18.938666666668723,
      "v": 100
    },
    {
      "midi": 50,
      "hit": false,
      "t": 22840.032000000032,
      "d": 18.938666666668723,
      "v": 95
    },
    {
      "midi": 57,
      "hit": false,
      "t": 22849.501333333366,
      "d": 9.469333333334362,
      "v": 95
    },
    {
      "midi": 45,
      "hit": false,
      "t": 22849.501333333366,
      "d": 18.938666666668723,
      "v": 100
    },
    {
      "midi": 42,
      "hit": false,
      "t": 22849.501333333366,
      "d": 94.69333333333998,
      "v": 78
    },
    {
      "midi": 65,
      "hit": false,
      "t": 22849.501333333366,
      "d": 94.69333333333998,
      "v": 95
    },
    {
      "midi": 74,
      "hit": false,
      "t": 22858.9706666667,
      "d": 66.2853333333369,
      "v": 95
    },
    {
      "midi": 69,
      "hit": false,
      "t": 22953.66400000004,
      "d": 85.22400000000198,
      "v": 80
    },
    {
      "midi": 62,
      "hit": false,
      "t": 22953.66400000004,
      "d": 94.69333333333634,
      "v": 100
    },
    {
      "midi": 74,
      "hit": false,
      "t": 22953.66400000004,
      "d": 94.69333333333634,
      "v": 95
    },
    {
      "midi": 76,
      "hit": false,
      "t": 22953.66400000004,
      "d": 113.63200000000506,
      "v": 127
    },
    {
      "midi": 72,
      "hit": false,
      "t": 22953.66400000004,
      "d": 113.63200000000506,
      "v": 127
    },
    {
      "midi": 26,
      "hit": false,
      "t": 22953.66400000004,
      "d": 208.3253333333414,
      "v": 127
    },
    {
      "midi": 50,
      "hit": false,
      "t": 22963.133333333375,
      "d": 75.75466666666762,
      "v": 95
    },
    {
      "midi": 57,
      "hit": false,
      "t": 22963.133333333375,
      "d": 85.22400000000198,
      "v": 95
    },
    {
      "midi": 65,
      "hit": false,
      "t": 22963.133333333375,
      "d": 85.22400000000198,
      "v": 100
    },
    {
      "midi": 45,
      "hit": false,
      "t": 22972.60266666671,
      "d": 66.28533333333326,
      "v": 95
    },
    {
      "midi": 46,
      "hit": false,
      "t": 22972.60266666671,
      "d": 94.69333333333634,
      "v": 92
    },
    {
      "midi": 62,
      "hit": false,
      "t": 23057.82666666671,
      "d": 94.69333333333634,
      "v": 90
    },
    {
      "midi": 50,
      "hit": false,
      "t": 23067.296000000046,
      "d": 47.34666666666817,
      "v": 115
    },
    {
      "midi": 63,
      "hit": false,
      "t": 23067.296000000046,
      "d": 94.69333333333634,
      "v": 80
    },
    {
      "midi": 45,
      "hit": false,
      "t": 23076.76533333338,
      "d": 37.87733333333381,
      "v": 90
    },
    {
      "midi": 57,
      "hit": false,
      "t": 23076.76533333338,
      "d": 47.34666666666817,
      "v": 115
    },
    {
      "midi": 65,
      "hit": false,
      "t": 23076.76533333338,
      "d": 47.34666666666817,
      "v": 115
    },
    {
      "midi": 74,
      "hit": false,
      "t": 23086.234666666714,
      "d": 47.34666666666817,
      "v": 115
    },
    {
      "midi": 62,
      "hit": false,
      "t": 23180.92800000005,
      "d": 85.22400000000198,
      "v": 90
    },
    {
      "midi": 26,
      "hit": false,
      "t": 23180.92800000005,
      "d": 94.69333333333634,
      "v": 127
    },
    {
      "midi": 15,
      "hit": false,
      "t": 23180.92800000005,
      "d": 94.69333333333634,
      "v": 100
    },
    {
      "midi": 13,
      "hit": false,
      "t": 23180.92800000005,
      "d": 94.69333333333634,
      "v": 100
    },
    {
      "midi": 10,
      "hit": false,
      "t": 23180.92800000005,
      "d": 94.69333333333634,
      "v": 127
    },
    {
      "midi": 127,
      "hit": false,
      "t": 23180.92800000005,
      "d": 94.69333333333634,
      "v": 60
    },
    {
      "midi": 108,
      "hit": false,
      "t": 23180.92800000005,
      "d": 94.69333333333634,
      "v": 80
    },
    {
      "midi": 105,
      "hit": false,
      "t": 23180.92800000005,
      "d": 94.69333333333634,
      "v": 100
    },
    {
      "midi": 42,
      "hit": false,
      "t": 23180.92800000005,
      "d": 94.69333333333634,
      "v": 92
    },
    {
      "midi": 64,
      "hit": false,
      "t": 23180.92800000005,
      "d": 94.69333333333634,
      "v": 70
    },
    {
      "midi": 72,
      "hit": false,
      "t": 23180.92800000005,
      "d": 208.3253333333414,
      "v": 127
    },
    {
      "midi": 69,
      "hit": false,
      "t": 23180.92800000005,
      "d": 208.3253333333414,
      "v": 127
    },
    {
      "midi": 50,
      "hit": false,
      "t": 23190.397333333385,
      "d": 75.75466666666762,
      "v": 115
    },
    {
      "midi": 57,
      "hit": false,
      "t": 23190.397333333385,
      "d": 85.22400000000198,
      "v": 115
    },
    {
      "midi": 65,
      "hit": false,
      "t": 23190.397333333385,
      "d": 94.69333333333634,
      "v": 90
    },
    {
      "midi": 45,
      "hit": false,
      "t": 23199.86666666672,
      "d": 66.28533333333326,
      "v": 115
    },
    {
      "midi": 62,
      "hit": false,
      "t": 23285.09066666672,
      "d": 94.69333333333634,
      "v": 90
    },
    {
      "midi": 65,
      "hit": false,
      "t": 23294.560000000056,
      "d": 85.22400000000198,
      "v": 80
    },
    {
      "midi": 26,
      "hit": false,
      "t": 23294.560000000056,
      "d": 94.69333333333634,
      "v": 127
    },
    {
      "midi": 57,
      "hit": false,
      "t": 23294.560000000056,
      "d": 94.69333333333634,
      "v": 90
    },
    {
      "midi": 50,
      "hit": false,
      "t": 23294.560000000056,
      "d": 94.69333333333634,
      "v": 90
    },
    {
      "midi": 45,
      "hit": false,
      "t": 23304.02933333339,
      "d": 94.69333333333634,
      "v": 90
    },
    {
      "midi": 42,
      "hit": false,
      "t": 23304.02933333339,
      "d": 94.69333333333634,
      "v": 78
    },
    {
      "midi": 45,
      "hit": false,
      "t": 23398.722666666727,
      "d": 37.87733333333745,
      "v": 100
    },
    {
      "midi": 50,
      "hit": false,
      "t": 23398.722666666727,
      "d": 37.87733333333745,
      "v": 100
    },
    {
      "midi": 57,
      "hit": false,
      "t": 23408.19200000006,
      "d": 37.87733333333745,
      "v": 100
    },
    {
      "midi": 62,
      "hit": false,
      "t": 23408.19200000006,
      "d": 37.87733333333745,
      "v": 100
    },
    {
      "midi": 69,
      "hit": false,
      "t": 23408.19200000006,
      "d": 85.22400000000562,
      "v": 80
    },
    {
      "midi": 26,
      "hit": false,
      "t": 23408.19200000006,
      "d": 94.69333333333998,
      "v": 127
    },
    {
      "midi": 15,
      "hit": false,
      "t": 23408.19200000006,
      "d": 94.69333333333998,
      "v": 100
    },
    {
      "midi": 13,
      "hit": false,
      "t": 23408.19200000006,
      "d": 94.69333333333998,
      "v": 100
    },
    {
      "midi": 10,
      "hit": false,
      "t": 23408.19200000006,
      "d": 94.69333333333998,
      "v": 127
    },
    {
      "midi": 71,
      "hit": false,
      "t": 23408.19200000006,
      "d": 208.32533333334504,
      "v": 127
    },
    {
      "midi": 65,
      "hit": false,
      "t": 23417.661333333395,
      "d": 37.87733333333745,
      "v": 100
    },
    {
      "midi": 46,
      "hit": false,
      "t": 23427.13066666673,
      "d": 94.69333333333998,
      "v": 92
    },
    {
      "midi": 65,
      "hit": false,
      "t": 23512.354666666735,
      "d": 37.87733333333381,
      "v": 100
    },
    {
      "midi": 62,
      "hit": false,
      "t": 23512.354666666735,
      "d": 37.87733333333381,
      "v": 100
    },
    {
      "midi": 57,
      "hit": false,
      "t": 23521.82400000007,
      "d": 37.87733333333381,
      "v": 100
    },
    {
      "midi": 50,
      "hit": false,
      "t": 23521.82400000007,
      "d": 37.87733333333381,
      "v": 100
    },
    {
      "midi": 74,
      "hit": false,
      "t": 23521.82400000007,
      "d": 85.22400000000198,
      "v": 80
    },
    {
      "midi": 45,
      "hit": false,
      "t": 23531.293333333404,
      "d": 37.87733333333381,
      "v": 100
    },
    {
      "midi": 71,
      "hit": false,
      "t": 23635.456000000075,
      "d": 85.22400000000198,
      "v": 80
    },
    {
      "midi": 31,
      "hit": false,
      "t": 23635.456000000075,
      "d": 94.69333333333634,
      "v": 127
    },
    {
      "midi": 15,
      "hit": false,
      "t": 23635.456000000075,
      "d": 94.69333333333634,
      "v": 100
    },
    {
      "midi": 13,
      "hit": false,
      "t": 23635.456000000075,
      "d": 94.69333333333634,
      "v": 100
    },
    {
      "midi": 10,
      "hit": false,
      "t": 23635.456000000075,
      "d": 94.69333333333634,
      "v": 127
    },
    {
      "midi": 42,
      "hit": false,
      "t": 23635.456000000075,
      "d": 94.69333333333634,
      "v": 92
    },
    {
      "midi": 67,
      "hit": false,
      "t": 23635.456000000075,
      "d": 94.69333333333634,
      "v": 115
    },
    {
      "midi": 50,
      "hit": false,
      "t": 23644.92533333341,
      "d": 94.69333333333634,
      "v": 115
    },
    {
      "midi": 62,
      "hit": false,
      "t": 23644.92533333341,
      "d": 94.69333333333634,
      "v": 70
    },
    {
      "midi": 47,
      "hit": false,
      "t": 23654.394666666743,
      "d": 75.75466666666762,
      "v": 115
    },
    {
      "midi": 59,
      "hit": false,
      "t": 23654.394666666743,
      "d": 94.69333333333634,
      "v": 70
    },
    {
      "midi": 43,
      "hit": false,
      "t": 23654.394666666743,
      "d": 416.65066666669736,
      "v": 115
    },
    {
      "midi": 49,
      "hit": false,
      "t": 23730.14933333341,
      "d": 18.938666666668723,
      "v": 64
    },
    {
      "midi": 50,
      "hit": false,
      "t": 23739.618666666745,
      "d": 18.938666666668723,
      "v": 64
    },
    {
      "midi": 74,
      "hit": false,
      "t": 23749.08800000008,
      "d": 85.22400000000562,
      "v": 80
    },
    {
      "midi": 31,
      "hit": false,
      "t": 23749.08800000008,
      "d": 94.69333333333998,
      "v": 127
    },
    {
      "midi": 59,
      "hit": false,
      "t": 23749.08800000008,
      "d": 94.69333333333998,
      "v": 70
    },
    {
      "midi": 51,
      "hit": false,
      "t": 23758.557333333414,
      "d": 18.938666666668723,
      "v": 64
    },
    {
      "midi": 42,
      "hit": false,
      "t": 23758.557333333414,
      "d": 94.69333333333998,
      "v": 78
    },
    {
      "midi": 62,
      "hit": false,
      "t": 23758.557333333414,
      "d": 94.69333333333998,
      "v": 70
    },
    {
      "midi": 52,
      "hit": false,
      "t": 23768.02666666675,
      "d": 18.938666666668723,
      "v": 64
    },
    {
      "midi": 67,
      "hit": false,
      "t": 23768.02666666675,
      "d": 94.69333333333998,
      "v": 70
    },
    {
      "midi": 53,
      "hit": false,
      "t": 23786.965333333417,
      "d": 18.938666666665085,
      "v": 64
    },
    {
      "midi": 54,
      "hit": false,
      "t": 23805.904000000082,
      "d": 18.938666666668723,
      "v": 64
    },
    {
      "midi": 55,
      "hit": false,
      "t": 23815.373333333417,
      "d": 18.938666666668723,
      "v": 64
    },
    {
      "midi": 56,
      "hit": false,
      "t": 23834.312000000085,
      "d": 18.938666666668723,
      "v": 64
    },
    {
      "midi": 57,
      "hit": false,
      "t": 23843.78133333342,
      "d": 18.938666666668723,
      "v": 64
    },
    {
      "midi": 58,
      "hit": false,
      "t": 23862.72000000009,
      "d": 18.938666666668723,
      "v": 64
    },
    {
      "midi": 79,
      "hit": false,
      "t": 23862.72000000009,
      "d": 85.22400000000562,
      "v": 80
    },
    {
      "midi": 31,
      "hit": false,
      "t": 23862.72000000009,
      "d": 94.69333333333998,
      "v": 127
    },
    {
      "midi": 59,
      "hit": false,
      "t": 23872.189333333423,
      "d": 18.938666666668723,
      "v": 64
    },
    {
      "midi": 46,
      "hit": false,
      "t": 23881.658666666757,
      "d": 94.69333333333998,
      "v": 92
    },
    {
      "midi": 60,
      "hit": false,
      "t": 23891.12800000009,
      "d": 18.938666666665085,
      "v": 64
    },
    {
      "midi": 61,
      "hit": false,
      "t": 23910.066666666757,
      "d": 18.938666666668723,
      "v": 64
    },
    {
      "midi": 62,
      "hit": false,
      "t": 23919.53600000009,
      "d": 18.938666666668723,
      "v": 64
    },
    {
      "midi": 63,
      "hit": false,
      "t": 23938.47466666676,
      "d": 18.938666666668723,
      "v": 64
    },
    {
      "midi": 64,
      "hit": false,
      "t": 23947.944000000094,
      "d": 18.938666666668723,
      "v": 64
    },
    {
      "midi": 65,
      "hit": false,
      "t": 23966.882666666763,
      "d": 18.938666666668723,
      "v": 64
    },
    {
      "midi": 83,
      "hit": false,
      "t": 23976.352000000097,
      "d": 85.22400000000926,
      "v": 80
    },
    {
      "midi": 31,
      "hit": false,
      "t": 23976.352000000097,
      "d": 94.69333333334362,
      "v": 127
    },
    {
      "midi": 64,
      "hit": false,
      "t": 23976.352000000097,
      "d": 94.69333333334362,
      "v": 70
    },
    {
      "midi": 66,
      "hit": false,
      "t": 23985.82133333343,
      "d": 18.938666666668723,
      "v": 64
    },
    {
      "midi": 62,
      "hit": false,
      "t": 23985.82133333343,
      "d": 66.28533333334053,
      "v": 70
    },
    {
      "midi": 67,
      "hit": false,
      "t": 23995.290666666766,
      "d": 18.938666666668723,
      "v": 64
    },
    {
      "midi": 59,
      "hit": false,
      "t": 23995.290666666766,
      "d": 66.28533333334053,
      "v": 70
    },
    {
      "midi": 68,
      "hit": false,
      "t": 24014.229333333435,
      "d": 18.938666666668723,
      "v": 64
    },
    {
      "midi": 69,
      "hit": false,
      "t": 24023.69866666677,
      "d": 18.938666666668723,
      "v": 64
    },
    {
      "midi": 70,
      "hit": false,
      "t": 24042.637333333438,
      "d": 18.938666666668723,
      "v": 64
    },
    {
      "midi": 71,
      "hit": false,
      "t": 24052.106666666772,
      "d": 18.938666666668723,
      "v": 64
    },
    {
      "midi": 72,
      "hit": false,
      "t": 24071.04533333344,
      "d": 18.938666666668723,
      "v": 64
    },
    {
      "midi": 86,
      "hit": false,
      "t": 24089.98400000011,
      "d": 85.22400000000198,
      "v": 80
    },
    {
      "midi": 31,
      "hit": false,
      "t": 24089.98400000011,
      "d": 94.69333333333634,
      "v": 127
    },
    {
      "midi": 15,
      "hit": false,
      "t": 24089.98400000011,
      "d": 94.69333333333634,
      "v": 100
    },
    {
      "midi": 13,
      "hit": false,
      "t": 24089.98400000011,
      "d": 94.69333333333634,
      "v": 100
    },
    {
      "midi": 10,
      "hit": false,
      "t": 24089.98400000011,
      "d": 94.69333333333634,
      "v": 127
    },
    {
      "midi": 127,
      "hit": false,
      "t": 24089.98400000011,
      "d": 94.69333333333634,
      "v": 60
    },
    {
      "midi": 108,
      "hit": false,
      "t": 24089.98400000011,
      "d": 94.69333333333634,
      "v": 80
    },
    {
      "midi": 105,
      "hit": false,
      "t": 24089.98400000011,
      "d": 94.69333333333634,
      "v": 100
    },
    {
      "midi": 42,
      "hit": false,
      "t": 24089.98400000011,
      "d": 94.69333333333634,
      "v": 92
    },
    {
      "midi": 63,
      "hit": false,
      "t": 24089.98400000011,
      "d": 94.69333333333634,
      "v": 70
    },
    {
      "midi": 74,
      "hit": false,
      "t": 24089.98400000011,
      "d": 227.26400000001013,
      "v": 127
    },
    {
      "midi": 71,
      "hit": false,
      "t": 24089.98400000011,
      "d": 227.26400000001013,
      "v": 127
    },
    {
      "midi": 59,
      "hit": false,
      "t": 24099.453333333444,
      "d": 85.22400000000198,
      "v": 105
    },
    {
      "midi": 62,
      "hit": false,
      "t": 24099.453333333444,
      "d": 94.69333333333634,
      "v": 70
    },
    {
      "midi": 50,
      "hit": false,
      "t": 24099.453333333444,
      "d": 198.85600000000704,
      "v": 105
    },
    {
      "midi": 67,
      "hit": false,
      "t": 24108.92266666678,
      "d": 94.69333333333634,
      "v": 70
    },
    {
      "midi": 43,
      "hit": false,
      "t": 24108.92266666678,
      "d": 198.85600000000704,
      "v": 105
    },
    {
      "midi": 47,
      "hit": false,
      "t": 24108.92266666678,
      "d": 208.3253333333414,
      "v": 105
    },
    {
      "midi": 91,
      "hit": false,
      "t": 24203.616000000115,
      "d": 85.22400000000198,
      "v": 80
    },
    {
      "midi": 42,
      "hit": false,
      "t": 24213.08533333345,
      "d": 94.69333333333634,
      "v": 78
    },
    {
      "midi": 43,
      "hit": false,
      "t": 24307.778666666785,
      "d": 9.469333333334362,
      "v": 90
    },
    {
      "midi": 43,
      "hit": false,
      "t": 24317.24800000012,
      "d": 47.34666666666817,
      "v": 105
    },
    {
      "midi": 74,
      "hit": false,
      "t": 24317.24800000012,
      "d": 66.2853333333369,
      "v": 127
    },
    {
      "midi": 71,
      "hit": false,
      "t": 24317.24800000012,
      "d": 66.2853333333369,
      "v": 127
    },
    {
      "midi": 86,
      "hit": false,
      "t": 24317.24800000012,
      "d": 85.22400000000198,
      "v": 80
    },
    {
      "midi": 31,
      "hit": false,
      "t": 24317.24800000012,
      "d": 94.69333333333634,
      "v": 127
    },
    {
      "midi": 47,
      "hit": false,
      "t": 24317.24800000012,
      "d": 94.69333333333634,
      "v": 105
    },
    {
      "midi": 50,
      "hit": false,
      "t": 24326.717333333454,
      "d": 37.87733333333381,
      "v": 105
    },
    {
      "midi": 59,
      "hit": false,
      "t": 24336.18666666679,
      "d": 37.87733333333381,
      "v": 70
    },
    {
      "midi": 62,
      "hit": false,
      "t": 24336.18666666679,
      "d": 37.87733333333381,
      "v": 105
    },
    {
      "midi": 67,
      "hit": false,
      "t": 24336.18666666679,
      "d": 47.34666666666817,
      "v": 105
    },
    {
      "midi": 46,
      "hit": false,
      "t": 24336.18666666679,
      "d": 94.69333333333634,
      "v": 92
    },
    {
      "midi": 62,
      "hit": false,
      "t": 24421.41066666679,
      "d": 9.469333333334362,
      "v": 100
    },
    {
      "midi": 67,
      "hit": false,
      "t": 24421.41066666679,
      "d": 9.469333333334362,
      "v": 100
    },
    {
      "midi": 74,
      "hit": false,
      "t": 24430.880000000125,
      "d": 66.2853333333369,
      "v": 127
    },
    {
      "midi": 71,
      "hit": false,
      "t": 24430.880000000125,
      "d": 66.2853333333369,
      "v": 127
    },
    {
      "midi": 83,
      "hit": false,
      "t": 24430.880000000125,
      "d": 85.22400000000562,
      "v": 80
    },
    {
      "midi": 31,
      "hit": false,
      "t": 24430.880000000125,
      "d": 94.69333333333998,
      "v": 127
    },
    {
      "midi": 62,
      "hit": false,
      "t": 24440.34933333346,
      "d": 56.81600000000253,
      "v": 70
    },
    {
      "midi": 59,
      "hit": false,
      "t": 24440.34933333346,
      "d": 66.2853333333369,
      "v": 105
    },
    {
      "midi": 50,
      "hit": false,
      "t": 24440.34933333346,
      "d": 66.2853333333369,
      "v": 105
    },
    {
      "midi": 67,
      "hit": false,
      "t": 24449.818666666793,
      "d": 47.34666666666817,
      "v": 70
    },
    {
      "midi": 43,
      "hit": false,
      "t": 24449.818666666793,
      "d": 66.2853333333369,
      "v": 105
    },
    {
      "midi": 47,
      "hit": false,
      "t": 24449.818666666793,
      "d": 94.69333333333998,
      "v": 105
    },
    {
      "midi": 43,
      "hit": false,
      "t": 24535.0426666668,
      "d": 9.469333333334362,
      "v": 90
    },
    {
      "midi": 79,
      "hit": false,
      "t": 24544.512000000133,
      "d": 85.22400000000198,
      "v": 80
    },
    {
      "midi": 31,
      "hit": false,
      "t": 24544.512000000133,
      "d": 94.69333333333634,
      "v": 127
    },
    {
      "midi": 15,
      "hit": false,
      "t": 24544.512000000133,
      "d": 94.69333333333634,
      "v": 100
    },
    {
      "midi": 13,
      "hit": false,
      "t": 24544.512000000133,
      "d": 94.69333333333634,
      "v": 100
    },
    {
      "midi": 10,
      "hit": false,
      "t": 24544.512000000133,
      "d": 94.69333333333634,
      "v": 127
    },
    {
      "midi": 42,
      "hit": false,
      "t": 24544.512000000133,
      "d": 94.69333333333634,
      "v": 92
    },
    {
      "midi": 43,
      "hit": false,
      "t": 24544.512000000133,
      "d": 198.8560000000034,
      "v": 105
    },
    {
      "midi": 72,
      "hit": false,
      "t": 24544.512000000133,
      "d": 208.32533333333777,
      "v": 127
    },
    {
      "midi": 69,
      "hit": false,
      "t": 24544.512000000133,
      "d": 208.32533333333777,
      "v": 127
    },
    {
      "midi": 47,
      "hit": false,
      "t": 24544.512000000133,
      "d": 208.32533333333777,
      "v": 105
    },
    {
      "midi": 50,
      "hit": false,
      "t": 24553.981333333468,
      "d": 189.38666666666904,
      "v": 105
    },
    {
      "midi": 59,
      "hit": false,
      "t": 24553.981333333468,
      "d": 198.8560000000034,
      "v": 105
    },
    {
      "midi": 62,
      "hit": false,
      "t": 24563.450666666802,
      "d": 189.38666666666904,
      "v": 105
    },
    {
      "midi": 67,
      "hit": false,
      "t": 24563.450666666802,
      "d": 198.8560000000034,
      "v": 105
    },
    {
      "midi": 74,
      "hit": false,
      "t": 24658.144000000135,
      "d": 85.22400000000198,
      "v": 80
    },
    {
      "midi": 42,
      "hit": false,
      "t": 24667.61333333347,
      "d": 94.69333333333634,
      "v": 78
    },
    {
      "midi": 62,
      "hit": false,
      "t": 24762.306666666806,
      "d": 9.469333333334362,
      "v": 100
    },
    {
      "midi": 67,
      "hit": false,
      "t": 24762.306666666806,
      "d": 9.469333333334362,
      "v": 100
    },
    {
      "midi": 71,
      "hit": false,
      "t": 24771.77600000014,
      "d": 85.22400000000198,
      "v": 127
    },
    {
      "midi": 74,
      "hit": false,
      "t": 24771.77600000014,
      "d": 113.63200000000143,
      "v": 127
    },
    {
      "midi": 62,
      "hit": false,
      "t": 24771.77600000014,
      "d": 198.85599999999977,
      "v": 105
    },
    {
      "midi": 31,
      "hit": false,
      "t": 24771.77600000014,
      "d": 208.32533333333413,
      "v": 127
    },
    {
      "midi": 59,
      "hit": false,
      "t": 24781.245333333474,
      "d": 198.85599999999977,
      "v": 105
    },
    {
      "midi": 50,
      "hit": false,
      "t": 24781.245333333474,
      "d": 198.85599999999977,
      "v": 105
    },
    {
      "midi": 46,
      "hit": false,
      "t": 24790.71466666681,
      "d": 94.6933333333327,
      "v": 92
    },
    {
      "midi": 43,
      "hit": false,
      "t": 24790.71466666681,
      "d": 198.85599999999977,
      "v": 105
    },
    {
      "midi": 47,
      "hit": false,
      "t": 24790.71466666681,
      "d": 208.32533333333413,
      "v": 105
    },
    {
      "midi": 67,
      "hit": false,
      "t": 24885.40800000014,
      "d": 85.22399999999834,
      "v": 80
    },
    {
      "midi": 63,
      "hit": false,
      "t": 24885.40800000014,
      "d": 94.6933333333327,
      "v": 80
    },
    {
      "midi": 43,
      "hit": false,
      "t": 24989.57066666681,
      "d": 9.469333333334362,
      "v": 110
    },
    {
      "midi": 31,
      "hit": false,
      "t": 24999.040000000143,
      "d": 94.69333333333634,
      "v": 127
    },
    {
      "midi": 15,
      "hit": false,
      "t": 24999.040000000143,
      "d": 94.69333333333634,
      "v": 100
    },
    {
      "midi": 13,
      "hit": false,
      "t": 24999.040000000143,
      "d": 94.69333333333634,
      "v": 100
    },
    {
      "midi": 10,
      "hit": false,
      "t": 24999.040000000143,
      "d": 94.69333333333634,
      "v": 127
    },
    {
      "midi": 127,
      "hit": false,
      "t": 24999.040000000143,
      "d": 94.69333333333634,
      "v": 60
    },
    {
      "midi": 108,
      "hit": false,
      "t": 24999.040000000143,
      "d": 94.69333333333634,
      "v": 80
    },
    {
      "midi": 105,
      "hit": false,
      "t": 24999.040000000143,
      "d": 94.69333333333634,
      "v": 100
    },
    {
      "midi": 42,
      "hit": false,
      "t": 24999.040000000143,
      "d": 94.69333333333634,
      "v": 92
    },
    {
      "midi": 64,
      "hit": false,
      "t": 24999.040000000143,
      "d": 94.69333333333634,
      "v": 70
    },
    {
      "midi": 43,
      "hit": false,
      "t": 24999.040000000143,
      "d": 198.8560000000034,
      "v": 115
    },
    {
      "midi": 47,
      "hit": false,
      "t": 24999.040000000143,
      "d": 208.32533333333777,
      "v": 115
    },
    {
      "midi": 50,
      "hit": false,
      "t": 25008.509333333477,
      "d": 189.38666666666904,
      "v": 115
    },
    {
      "midi": 59,
      "hit": false,
      "t": 25008.509333333477,
      "d": 198.8560000000034,
      "v": 115
    },
    {
      "midi": 62,
      "hit": false,
      "t": 25017.97866666681,
      "d": 66.28533333333326,
      "v": 115
    },
    {
      "midi": 67,
      "hit": false,
      "t": 25112.672000000144,
      "d": 85.22400000000198,
      "v": 80
    },
    {
      "midi": 31,
      "hit": false,
      "t": 25112.672000000144,
      "d": 94.69333333333634,
      "v": 127
    },
    {
      "midi": 42,
      "hit": false,
      "t": 25122.14133333348,
      "d": 94.69333333333634,
      "v": 78
    },
    {
      "midi": 62,
      "hit": false,
      "t": 25216.834666666815,
      "d": 9.469333333334362,
      "v": 100
    },
    {
      "midi": 67,
      "hit": false,
      "t": 25216.834666666815,
      "d": 9.469333333334362,
      "v": 100
    },
    {
      "midi": 67,
      "hit": false,
      "t": 25226.30400000015,
      "d": 85.22400000000198,
      "v": 105
    },
    {
      "midi": 62,
      "hit": false,
      "t": 25226.30400000015,
      "d": 85.22400000000198,
      "v": 105
    },
    {
      "midi": 71,
      "hit": false,
      "t": 25226.30400000015,
      "d": 85.22400000000198,
      "v": 80
    },
    {
      "midi": 31,
      "hit": false,
      "t": 25226.30400000015,
      "d": 94.69333333333634,
      "v": 127
    },
    {
      "midi": 77,
      "hit": false,
      "t": 25226.30400000015,
      "d": 435.58933333335153,
      "v": 127
    },
    {
      "midi": 59,
      "hit": false,
      "t": 25235.773333333484,
      "d": 85.22400000000198,
      "v": 105
    },
    {
      "midi": 50,
      "hit": false,
      "t": 25235.773333333484,
      "d": 85.22400000000198,
      "v": 105
    },
    {
      "midi": 43,
      "hit": false,
      "t": 25245.242666666818,
      "d": 85.22400000000198,
      "v": 105
    },
    {
      "midi": 46,
      "hit": false,
      "t": 25245.242666666818,
      "d": 94.69333333333634,
      "v": 92
    },
    {
      "midi": 47,
      "hit": false,
      "t": 25245.242666666818,
      "d": 94.69333333333634,
      "v": 105
    },
    {
      "midi": 43,
      "hit": false,
      "t": 25330.46666666682,
      "d": 9.469333333334362,
      "v": 100
    },
    {
      "midi": 43,
      "hit": false,
      "t": 25339.936000000154,
      "d": 85.22400000000198,
      "v": 105
    },
    {
      "midi": 74,
      "hit": false,
      "t": 25339.936000000154,
      "d": 85.22400000000198,
      "v": 80
    },
    {
      "midi": 47,
      "hit": false,
      "t": 25339.936000000154,
      "d": 94.69333333333634,
      "v": 105
    },
    {
      "midi": 50,
      "hit": false,
      "t": 25349.40533333349,
      "d": 75.75466666666762,
      "v": 105
    },
    {
      "midi": 59,
      "hit": false,
      "t": 25349.40533333349,
      "d": 85.22400000000198,
      "v": 105
    },
    {
      "midi": 62,
      "hit": false,
      "t": 25358.874666666823,
      "d": 75.75466666666762,
      "v": 105
    },
    {
      "midi": 67,
      "hit": false,
      "t": 25358.874666666823,
      "d": 85.22400000000198,
      "v": 105
    },
    {
      "midi": 24,
      "hit": false,
      "t": 25453.56800000016,
      "d": 94.69333333333634,
      "v": 127
    },
    {
      "midi": 15,
      "hit": false,
      "t": 25453.56800000016,
      "d": 94.69333333333634,
      "v": 100
    },
    {
      "midi": 13,
      "hit": false,
      "t": 25453.56800000016,
      "d": 94.69333333333634,
      "v": 100
    },
    {
      "midi": 10,
      "hit": false,
      "t": 25453.56800000016,
      "d": 94.69333333333634,
      "v": 127
    },
    {
      "midi": 42,
      "hit": false,
      "t": 25453.56800000016,
      "d": 94.69333333333634,
      "v": 92
    },
    {
      "midi": 72,
      "hit": false,
      "t": 25453.56800000016,
      "d": 94.69333333333634,
      "v": 70
    },
    {
      "midi": 60,
      "hit": false,
      "t": 25453.56800000016,
      "d": 416.65066666668645,
      "v": 105
    },
    {
      "midi": 67,
      "hit": false,
      "t": 25463.037333333494,
      "d": 75.75466666666762,
      "v": 70
    },
    {
      "midi": 52,
      "hit": false,
      "t": 25463.037333333494,
      "d": 416.65066666668645,
      "v": 105
    },
    {
      "midi": 48,
      "hit": false,
      "t": 25463.037333333494,
      "d": 416.65066666668645,
      "v": 105
    },
    {
      "midi": 64,
      "hit": false,
      "t": 25472.506666666828,
      "d": 94.69333333333634,
      "v": 70
    },
    {
      "midi": 43,
      "hit": false,
      "t": 25472.506666666828,
      "d": 416.65066666668645,
      "v": 105
    },
    {
      "midi": 24,
      "hit": false,
      "t": 25567.200000000164,
      "d": 94.69333333333634,
      "v": 127
    },
    {
      "midi": 64,
      "hit": false,
      "t": 25567.200000000164,
      "d": 94.69333333333634,
      "v": 70
    },
    {
      "midi": 42,
      "hit": false,
      "t": 25576.6693333335,
      "d": 94.69333333333634,
      "v": 78
    },
    {
      "midi": 67,
      "hit": false,
      "t": 25576.6693333335,
      "d": 94.69333333333634,
      "v": 70
    },
    {
      "midi": 72,
      "hit": false,
      "t": 25586.138666666833,
      "d": 66.28533333333326,
      "v": 70
    },
    {
      "midi": 76,
      "hit": false,
      "t": 25680.83200000017,
      "d": 75.75466666666762,
      "v": 127
    },
    {
      "midi": 72,
      "hit": false,
      "t": 25680.83200000017,
      "d": 75.75466666666762,
      "v": 70
    },
    {
      "midi": 24,
      "hit": false,
      "t": 25680.83200000017,
      "d": 94.69333333333634,
      "v": 127
    },
    {
      "midi": 67,
      "hit": false,
      "t": 25690.301333333504,
      "d": 94.69333333333634,
      "v": 70
    },
    {
      "midi": 46,
      "hit": false,
      "t": 25699.77066666684,
      "d": 94.69333333333634,
      "v": 92
    },
    {
      "midi": 64,
      "hit": false,
      "t": 25699.77066666684,
      "d": 94.69333333333634,
      "v": 70
    },
    {
      "midi": 64,
      "hit": false,
      "t": 25794.464000000175,
      "d": 47.34666666666817,
      "v": 70
    },
    {
      "midi": 79,
      "hit": false,
      "t": 25794.464000000175,
      "d": 85.22400000000562,
      "v": 80
    },
    {
      "midi": 24,
      "hit": false,
      "t": 25794.464000000175,
      "d": 94.69333333333998,
      "v": 127
    },
    {
      "midi": 67,
      "hit": false,
      "t": 25803.93333333351,
      "d": 47.34666666666817,
      "v": 70
    },
    {
      "midi": 72,
      "hit": false,
      "t": 25813.402666666843,
      "d": 47.34666666666817,
      "v": 70
    },
    {
      "midi": 74,
      "hit": false,
      "t": 25908.096000000183,
      "d": 75.75466666666762,
      "v": 127
    },
    {
      "midi": 71,
      "hit": false,
      "t": 25908.096000000183,
      "d": 75.75466666666762,
      "v": 127
    },
    {
      "midi": 84,
      "hit": false,
      "t": 25908.096000000183,
      "d": 85.22400000000198,
      "v": 80
    },
    {
      "midi": 24,
      "hit": false,
      "t": 25908.096000000183,
      "d": 94.69333333333634,
      "v": 127
    },
    {
      "midi": 15,
      "hit": false,
      "t": 25908.096000000183,
      "d": 94.69333333333634,
      "v": 100
    },
    {
      "midi": 13,
      "hit": false,
      "t": 25908.096000000183,
      "d": 94.69333333333634,
      "v": 100
    },
    {
      "midi": 10,
      "hit": false,
      "t": 25908.096000000183,
      "d": 94.69333333333634,
      "v": 127
    },
    {
      "midi": 127,
      "hit": false,
      "t": 25908.096000000183,
      "d": 94.69333333333634,
      "v": 60
    },
    {
      "midi": 108,
      "hit": false,
      "t": 25908.096000000183,
      "d": 94.69333333333634,
      "v": 80
    },
    {
      "midi": 105,
      "hit": false,
      "t": 25908.096000000183,
      "d": 94.69333333333634,
      "v": 100
    },
    {
      "midi": 42,
      "hit": false,
      "t": 25908.096000000183,
      "d": 94.69333333333634,
      "v": 92
    },
    {
      "midi": 72,
      "hit": false,
      "t": 25908.096000000183,
      "d": 94.69333333333634,
      "v": 70
    },
    {
      "midi": 63,
      "hit": false,
      "t": 25908.096000000183,
      "d": 94.69333333333634,
      "v": 70
    },
    {
      "midi": 60,
      "hit": false,
      "t": 25908.096000000183,
      "d": 198.85600000000704,
      "v": 105
    },
    {
      "midi": 67,
      "hit": false,
      "t": 25917.565333333518,
      "d": 94.69333333333634,
      "v": 70
    },
    {
      "midi": 52,
      "hit": false,
      "t": 25917.565333333518,
      "d": 198.85600000000704,
      "v": 105
    },
    {
      "midi": 48,
      "hit": false,
      "t": 25917.565333333518,
      "d": 198.85600000000704,
      "v": 105
    },
    {
      "midi": 64,
      "hit": false,
      "t": 25927.034666666852,
      "d": 94.69333333333634,
      "v": 70
    },
    {
      "midi": 43,
      "hit": false,
      "t": 25927.034666666852,
      "d": 198.85600000000704,
      "v": 105
    },
    {
      "midi": 88,
      "hit": false,
      "t": 26021.72800000019,
      "d": 85.22400000000198,
      "v": 80
    },
    {
      "midi": 42,
      "hit": false,
      "t": 26031.197333333523,
      "d": 94.69333333333634,
      "v": 78
    },
    {
      "midi": 43,
      "hit": false,
      "t": 26125.89066666686,
      "d": 9.469333333334362,
      "v": 100
    },
    {
      "midi": 43,
      "hit": false,
      "t": 26135.360000000193,
      "d": 85.22400000000198,
      "v": 105
    },
    {
      "midi": 48,
      "hit": false,
      "t": 26135.360000000193,
      "d": 85.22400000000198,
      "v": 105
    },
    {
      "midi": 84,
      "hit": false,
      "t": 26135.360000000193,
      "d": 85.22400000000198,
      "v": 80
    },
    {
      "midi": 24,
      "hit": false,
      "t": 26135.360000000193,
      "d": 208.3253333333414,
      "v": 127
    },
    {
      "midi": 52,
      "hit": false,
      "t": 26144.829333333528,
      "d": 85.22400000000198,
      "v": 105
    },
    {
      "midi": 60,
      "hit": false,
      "t": 26144.829333333528,
      "d": 85.22400000000198,
      "v": 105
    },
    {
      "midi": 67,
      "hit": false,
      "t": 26144.829333333528,
      "d": 94.69333333333634,
      "v": 70
    },
    {
      "midi": 64,
      "hit": false,
      "t": 26154.298666666862,
      "d": 75.75466666666762,
      "v": 105
    },
    {
      "midi": 46,
      "hit": false,
      "t": 26154.298666666862,
      "d": 94.69333333333634,
      "v": 92
    },
    {
      "midi": 72,
      "hit": false,
      "t": 26154.298666666862,
      "d": 94.69333333333634,
      "v": 70
    },
    {
      "midi": 64,
      "hit": false,
      "t": 26239.522666666864,
      "d": 9.469333333334362,
      "v": 90
    },
    {
      "midi": 60,
      "hit": false,
      "t": 26248.9920000002,
      "d": 85.22400000000198,
      "v": 105
    },
    {
      "midi": 79,
      "hit": false,
      "t": 26248.9920000002,
      "d": 85.22400000000198,
      "v": 80
    },
    {
      "midi": 72,
      "hit": false,
      "t": 26248.9920000002,
      "d": 94.69333333333634,
      "v": 70
    },
    {
      "midi": 52,
      "hit": false,
      "t": 26258.461333333533,
      "d": 85.22400000000198,
      "v": 105
    },
    {
      "midi": 48,
      "hit": false,
      "t": 26258.461333333533,
      "d": 85.22400000000198,
      "v": 105
    },
    {
      "midi": 67,
      "hit": false,
      "t": 26258.461333333533,
      "d": 94.69333333333634,
      "v": 70
    },
    {
      "midi": 64,
      "hit": false,
      "t": 26267.930666666867,
      "d": 66.28533333333326,
      "v": 70
    },
    {
      "midi": 43,
      "hit": false,
      "t": 26267.930666666867,
      "d": 85.22400000000198,
      "v": 105
    },
    {
      "midi": 43,
      "hit": false,
      "t": 26353.15466666687,
      "d": 9.469333333334362,
      "v": 100
    },
    {
      "midi": 76,
      "hit": false,
      "t": 26362.624000000204,
      "d": 85.22400000000198,
      "v": 80
    },
    {
      "midi": 24,
      "hit": false,
      "t": 26362.624000000204,
      "d": 94.69333333333634,
      "v": 127
    },
    {
      "midi": 15,
      "hit": false,
      "t": 26362.624000000204,
      "d": 94.69333333333634,
      "v": 100
    },
    {
      "midi": 13,
      "hit": false,
      "t": 26362.624000000204,
      "d": 94.69333333333634,
      "v": 100
    },
    {
      "midi": 10,
      "hit": false,
      "t": 26362.624000000204,
      "d": 94.69333333333634,
      "v": 127
    },
    {
      "midi": 42,
      "hit": false,
      "t": 26362.624000000204,
      "d": 94.69333333333634,
      "v": 92
    },
    {
      "midi": 43,
      "hit": false,
      "t": 26362.624000000204,
      "d": 198.8560000000034,
      "v": 105
    },
    {
      "midi": 48,
      "hit": false,
      "t": 26362.624000000204,
      "d": 198.8560000000034,
      "v": 105
    },
    {
      "midi": 52,
      "hit": false,
      "t": 26372.093333333538,
      "d": 198.8560000000034,
      "v": 105
    },
    {
      "midi": 60,
      "hit": false,
      "t": 26372.093333333538,
      "d": 198.8560000000034,
      "v": 105
    },
    {
      "midi": 64,
      "hit": false,
      "t": 26381.562666666872,
      "d": 198.8560000000034,
      "v": 105
    },
    {
      "midi": 72,
      "hit": false,
      "t": 26476.256000000205,
      "d": 85.22400000000198,
      "v": 80
    },
    {
      "midi": 42,
      "hit": false,
      "t": 26485.72533333354,
      "d": 94.69333333333634,
      "v": 78
    },
    {
      "midi": 64,
      "hit": false,
      "t": 26580.418666666876,
      "d": 9.469333333334362,
      "v": 110
    },
    {
      "midi": 67,
      "hit": false,
      "t": 26589.88800000021,
      "d": 85.22400000000198,
      "v": 80
    },
    {
      "midi": 60,
      "hit": false,
      "t": 26589.88800000021,
      "d": 198.85599999999977,
      "v": 105
    },
    {
      "midi": 24,
      "hit": false,
      "t": 26589.88800000021,
      "d": 208.32533333333413,
      "v": 127
    },
    {
      "midi": 74,
      "hit": false,
      "t": 26589.88800000021,
      "d": 426.12000000000626,
      "v": 127
    },
    {
      "midi": 71,
      "hit": false,
      "t": 26589.88800000021,
      "d": 426.12000000000626,
      "v": 127
    },
    {
      "midi": 52,
      "hit": false,
      "t": 26599.357333333544,
      "d": 198.85599999999977,
      "v": 105
    },
    {
      "midi": 48,
      "hit": false,
      "t": 26599.357333333544,
      "d": 198.85599999999977,
      "v": 105
    },
    {
      "midi": 46,
      "hit": false,
      "t": 26608.82666666688,
      "d": 94.6933333333327,
      "v": 92
    },
    {
      "midi": 43,
      "hit": false,
      "t": 26608.82666666688,
      "d": 198.85599999999977,
      "v": 105
    },
    {
      "midi": 64,
      "hit": false,
      "t": 26703.52000000021,
      "d": 85.22399999999834,
      "v": 80
    },
    {
      "midi": 63,
      "hit": false,
      "t": 26703.52000000021,
      "d": 94.6933333333327,
      "v": 80
    },
    {
      "midi": 43,
      "hit": false,
      "t": 26807.68266666688,
      "d": 9.469333333334362,
      "v": 110
    },
    {
      "midi": 24,
      "hit": false,
      "t": 26817.152000000213,
      "d": 94.69333333333634,
      "v": 127
    },
    {
      "midi": 15,
      "hit": false,
      "t": 26817.152000000213,
      "d": 94.69333333333634,
      "v": 100
    },
    {
      "midi": 13,
      "hit": false,
      "t": 26817.152000000213,
      "d": 94.69333333333634,
      "v": 100
    },
    {
      "midi": 10,
      "hit": false,
      "t": 26817.152000000213,
      "d": 94.69333333333634,
      "v": 127
    },
    {
      "midi": 127,
      "hit": false,
      "t": 26817.152000000213,
      "d": 94.69333333333634,
      "v": 60
    },
    {
      "midi": 108,
      "hit": false,
      "t": 26817.152000000213,
      "d": 94.69333333333634,
      "v": 80
    },
    {
      "midi": 105,
      "hit": false,
      "t": 26817.152000000213,
      "d": 94.69333333333634,
      "v": 100
    },
    {
      "midi": 42,
      "hit": false,
      "t": 26817.152000000213,
      "d": 94.69333333333634,
      "v": 92
    },
    {
      "midi": 43,
      "hit": false,
      "t": 26817.152000000213,
      "d": 198.8560000000034,
      "v": 105
    },
    {
      "midi": 48,
      "hit": false,
      "t": 26817.152000000213,
      "d": 198.8560000000034,
      "v": 105
    },
    {
      "midi": 60,
      "hit": false,
      "t": 26826.621333333547,
      "d": 75.75466666666762,
      "v": 105
    },
    {
      "midi": 52,
      "hit": false,
      "t": 26826.621333333547,
      "d": 198.8560000000034,
      "v": 105
    },
    {
      "midi": 64,
      "hit": false,
      "t": 26836.09066666688,
      "d": 75.75466666666762,
      "v": 105
    },
    {
      "midi": 64,
      "hit": false,
      "t": 26930.784000000214,
      "d": 85.22400000000198,
      "v": 80
    },
    {
      "midi": 23,
      "hit": false,
      "t": 26930.784000000214,
      "d": 94.69333333333634,
      "v": 127
    },
    {
      "midi": 42,
      "hit": false,
      "t": 26940.25333333355,
      "d": 94.69333333333634,
      "v": 78
    },
    {
      "midi": 64,
      "hit": false,
      "t": 27034.946666666885,
      "d": 9.469333333334362,
      "v": 100
    },
    {
      "midi": 64,
      "hit": false,
      "t": 27044.41600000022,
      "d": 85.22400000000198,
      "v": 105
    },
    {
      "midi": 60,
      "hit": false,
      "t": 27044.41600000022,
      "d": 85.22400000000198,
      "v": 105
    },
    {
      "midi": 67,
      "hit": false,
      "t": 27044.41600000022,
      "d": 85.22400000000198,
      "v": 80
    },
    {
      "midi": 19,
      "hit": false,
      "t": 27044.41600000022,
      "d": 94.69333333333634,
      "v": 127
    },
    {
      "midi": 15,
      "hit": false,
      "t": 27044.41600000022,
      "d": 94.69333333333634,
      "v": 100
    },
    {
      "midi": 13,
      "hit": false,
      "t": 27044.41600000022,
      "d": 94.69333333333634,
      "v": 100
    },
    {
      "midi": 10,
      "hit": false,
      "t": 27044.41600000022,
      "d": 94.69333333333634,
      "v": 127
    },
    {
      "midi": 69,
      "hit": false,
      "t": 27044.41600000022,
      "d": 151.50933333333887,
      "v": 127
    },
    {
      "midi": 52,
      "hit": false,
      "t": 27053.885333333554,
      "d": 85.22400000000198,
      "v": 105
    },
    {
      "midi": 48,
      "hit": false,
      "t": 27053.885333333554,
      "d": 85.22400000000198,
      "v": 105
    },
    {
      "midi": 43,
      "hit": false,
      "t": 27063.354666666888,
      "d": 85.22400000000198,
      "v": 105
    },
    {
      "midi": 46,
      "hit": false,
      "t": 27063.354666666888,
      "d": 94.69333333333634,
      "v": 92
    },
    {
      "midi": 43,
      "hit": false,
      "t": 27148.57866666689,
      "d": 9.469333333334362,
      "v": 100
    },
    {
      "midi": 72,
      "hit": false,
      "t": 27158.048000000224,
      "d": 37.87733333333381,
      "v": 80
    },
    {
      "midi": 43,
      "hit": false,
      "t": 27158.048000000224,
      "d": 85.22400000000198,
      "v": 105
    },
    {
      "midi": 48,
      "hit": false,
      "t": 27158.048000000224,
      "d": 85.22400000000198,
      "v": 105
    },
    {
      "midi": 52,
      "hit": false,
      "t": 27167.51733333356,
      "d": 85.22400000000198,
      "v": 105
    },
    {
      "midi": 60,
      "hit": false,
      "t": 27167.51733333356,
      "d": 85.22400000000198,
      "v": 105
    },
    {
      "midi": 64,
      "hit": false,
      "t": 27176.986666666893,
      "d": 85.22400000000198,
      "v": 105
    },
    {
      "midi": 53,
      "hit": false,
      "t": 27271.68000000023,
      "d": 18.938666666668723,
      "v": 64
    },
    {
      "midi": 29,
      "hit": false,
      "t": 27271.68000000023,
      "d": 94.6933333333327,
      "v": 127
    },
    {
      "midi": 15,
      "hit": false,
      "t": 27271.68000000023,
      "d": 94.6933333333327,
      "v": 100
    },
    {
      "midi": 13,
      "hit": false,
      "t": 27271.68000000023,
      "d": 94.6933333333327,
      "v": 100
    },
    {
      "midi": 10,
      "hit": false,
      "t": 27271.68000000023,
      "d": 94.6933333333327,
      "v": 127
    },
    {
      "midi": 42,
      "hit": false,
      "t": 27271.68000000023,
      "d": 94.6933333333327,
      "v": 92
    },
    {
      "midi": 72,
      "hit": false,
      "t": 27271.68000000023,
      "d": 94.6933333333327,
      "v": 70
    },
    {
      "midi": 126,
      "hit": false,
      "t": 27271.68000000023,
      "d": 94.6933333333327,
      "v": 70
    },
    {
      "midi": 69,
      "hit": false,
      "t": 27281.149333333564,
      "d": 75.75466666666398,
      "v": 70
    },
    {
      "midi": 52,
      "hit": false,
      "t": 27281.149333333564,
      "d": 416.6506666666719,
      "v": 105
    },
    {
      "midi": 54,
      "hit": false,
      "t": 27290.6186666669,
      "d": 18.938666666665085,
      "v": 64
    },
    {
      "midi": 65,
      "hit": false,
      "t": 27290.6186666669,
      "d": 94.6933333333327,
      "v": 70
    },
    {
      "midi": 48,
      "hit": false,
      "t": 27290.6186666669,
      "d": 416.6506666666719,
      "v": 105
    },
    {
      "midi": 41,
      "hit": false,
      "t": 27290.6186666669,
      "d": 416.6506666666719,
      "v": 105
    },
    {
      "midi": 55,
      "hit": false,
      "t": 27309.557333333563,
      "d": 18.938666666665085,
      "v": 64
    },
    {
      "midi": 56,
      "hit": false,
      "t": 27328.49600000023,
      "d": 18.938666666665085,
      "v": 64
    },
    {
      "midi": 57,
      "hit": false,
      "t": 27347.434666666893,
      "d": 18.938666666668723,
      "v": 64
    },
    {
      "midi": 58,
      "hit": false,
      "t": 27366.373333333562,
      "d": 18.938666666668723,
      "v": 64
    },
    {
      "midi": 59,
      "hit": false,
      "t": 27385.31200000023,
      "d": 18.938666666668723,
      "v": 64
    },
    {
      "midi": 74,
      "hit": false,
      "t": 27385.31200000023,
      "d": 85.22399999999834,
      "v": 80
    },
    {
      "midi": 29,
      "hit": false,
      "t": 27385.31200000023,
      "d": 94.6933333333327,
      "v": 127
    },
    {
      "midi": 65,
      "hit": false,
      "t": 27385.31200000023,
      "d": 94.6933333333327,
      "v": 70
    },
    {
      "midi": 42,
      "hit": false,
      "t": 27394.781333333565,
      "d": 94.6933333333327,
      "v": 78
    },
    {
      "midi": 69,
      "hit": false,
      "t": 27394.781333333565,
      "d": 94.6933333333327,
      "v": 70
    },
    {
      "midi": 60,
      "hit": false,
      "t": 27404.2506666669,
      "d": 18.938666666665085,
      "v": 64
    },
    {
      "midi": 72,
      "hit": false,
      "t": 27404.2506666669,
      "d": 94.6933333333327,
      "v": 70
    },
    {
      "midi": 61,
      "hit": false,
      "t": 27423.189333333565,
      "d": 18.938666666665085,
      "v": 64
    },
    {
      "midi": 62,
      "hit": false,
      "t": 27442.12800000023,
      "d": 18.938666666665085,
      "v": 64
    },
    {
      "midi": 63,
      "hit": false,
      "t": 27461.066666666895,
      "d": 18.938666666668723,
      "v": 64
    },
    {
      "midi": 64,
      "hit": false,
      "t": 27480.005333333564,
      "d": 18.938666666668723,
      "v": 64
    },
    {
      "midi": 65,
      "hit": false,
      "t": 27498.944000000232,
      "d": 18.938666666668723,
      "v": 64
    },
    {
      "midi": 72,
      "hit": false,
      "t": 27498.944000000232,
      "d": 47.34666666666817,
      "v": 70
    },
    {
      "midi": 77,
      "hit": false,
      "t": 27498.944000000232,
      "d": 85.22400000000562,
      "v": 80
    },
    {
      "midi": 29,
      "hit": false,
      "t": 27498.944000000232,
      "d": 94.69333333333998,
      "v": 127
    },
    {
      "midi": 69,
      "hit": false,
      "t": 27508.413333333567,
      "d": 47.34666666666817,
      "v": 70
    },
    {
      "midi": 66,
      "hit": false,
      "t": 27517.8826666669,
      "d": 18.938666666665085,
      "v": 64
    },
    {
      "midi": 65,
      "hit": false,
      "t": 27517.8826666669,
      "d": 47.34666666666817,
      "v": 70
    },
    {
      "midi": 46,
      "hit": false,
      "t": 27517.8826666669,
      "d": 94.69333333333634,
      "v": 92
    },
    {
      "midi": 67,
      "hit": false,
      "t": 27536.821333333566,
      "d": 18.938666666668723,
      "v": 64
    },
    {
      "midi": 68,
      "hit": false,
      "t": 27555.760000000235,
      "d": 18.938666666668723,
      "v": 64
    },
    {
      "midi": 69,
      "hit": false,
      "t": 27574.698666666904,
      "d": 18.938666666668723,
      "v": 64
    },
    {
      "midi": 70,
      "hit": false,
      "t": 27593.637333333572,
      "d": 18.938666666665085,
      "v": 64
    },
    {
      "midi": 71,
      "hit": false,
      "t": 27612.576000000237,
      "d": 18.938666666668723,
      "v": 64
    },
    {
      "midi": 65,
      "hit": false,
      "t": 27612.576000000237,
      "d": 75.75466666666398,
      "v": 70
    },
    {
      "midi": 81,
      "hit": false,
      "t": 27612.576000000237,
      "d": 85.22399999999834,
      "v": 80
    },
    {
      "midi": 29,
      "hit": false,
      "t": 27612.576000000237,
      "d": 94.6933333333327,
      "v": 127
    },
    {
      "midi": 64,
      "hit": false,
      "t": 27612.576000000237,
      "d": 94.6933333333327,
      "v": 70
    },
    {
      "midi": 69,
      "hit": false,
      "t": 27622.04533333357,
      "d": 94.6933333333327,
      "v": 70
    },
    {
      "midi": 72,
      "hit": false,
      "t": 27631.514666666906,
      "d": 18.938666666665085,
      "v": 70
    },
    {
      "midi": 73,
      "hit": false,
      "t": 27650.45333333357,
      "d": 18.938666666665085,
      "v": 64
    },
    {
      "midi": 74,
      "hit": false,
      "t": 27669.392000000236,
      "d": 18.938666666665085,
      "v": 64
    },
    {
      "midi": 75,
      "hit": false,
      "t": 27688.3306666669,
      "d": 18.938666666668723,
      "v": 64
    },
    {
      "midi": 76,
      "hit": false,
      "t": 27707.26933333357,
      "d": 18.938666666668723,
      "v": 64
    },
    {
      "midi": 86,
      "hit": false,
      "t": 27726.20800000024,
      "d": 85.22400000000198,
      "v": 80
    },
    {
      "midi": 29,
      "hit": false,
      "t": 27726.20800000024,
      "d": 94.69333333333634,
      "v": 127
    },
    {
      "midi": 72,
      "hit": false,
      "t": 27726.20800000024,
      "d": 94.69333333333634,
      "v": 70
    },
    {
      "midi": 15,
      "hit": false,
      "t": 27726.20800000024,
      "d": 94.69333333333634,
      "v": 100
    },
    {
      "midi": 13,
      "hit": false,
      "t": 27726.20800000024,
      "d": 94.69333333333634,
      "v": 100
    },
    {
      "midi": 10,
      "hit": false,
      "t": 27726.20800000024,
      "d": 94.69333333333634,
      "v": 127
    },
    {
      "midi": 127,
      "hit": false,
      "t": 27726.20800000024,
      "d": 94.69333333333634,
      "v": 60
    },
    {
      "midi": 108,
      "hit": false,
      "t": 27726.20800000024,
      "d": 94.69333333333634,
      "v": 80
    },
    {
      "midi": 105,
      "hit": false,
      "t": 27726.20800000024,
      "d": 94.69333333333634,
      "v": 100
    },
    {
      "midi": 42,
      "hit": false,
      "t": 27726.20800000024,
      "d": 94.69333333333634,
      "v": 92
    },
    {
      "midi": 63,
      "hit": false,
      "t": 27726.20800000024,
      "d": 94.69333333333634,
      "v": 70
    },
    {
      "midi": 60,
      "hit": false,
      "t": 27726.20800000024,
      "d": 198.85600000000704,
      "v": 105
    },
    {
      "midi": 69,
      "hit": false,
      "t": 27735.677333333573,
      "d": 85.22400000000198,
      "v": 70
    },
    {
      "midi": 57,
      "hit": false,
      "t": 27735.677333333573,
      "d": 198.85600000000704,
      "v": 105
    },
    {
      "midi": 52,
      "hit": false,
      "t": 27735.677333333573,
      "d": 198.85600000000704,
      "v": 105
    },
    {
      "midi": 65,
      "hit": false,
      "t": 27745.146666666908,
      "d": 94.69333333333634,
      "v": 70
    },
    {
      "midi": 48,
      "hit": false,
      "t": 27745.146666666908,
      "d": 198.85600000000704,
      "v": 105
    },
    {
      "midi": 41,
      "hit": false,
      "t": 27745.146666666908,
      "d": 198.85600000000704,
      "v": 105
    },
    {
      "midi": 89,
      "hit": false,
      "t": 27839.840000000244,
      "d": 85.22400000000198,
      "v": 80
    },
    {
      "midi": 72,
      "hit": false,
      "t": 27839.840000000244,
      "d": 94.69333333333634,
      "v": 127
    },
    {
      "midi": 69,
      "hit": false,
      "t": 27839.840000000244,
      "d": 94.69333333333634,
      "v": 127
    },
    {
      "midi": 42,
      "hit": false,
      "t": 27849.30933333358,
      "d": 94.69333333333634,
      "v": 78
    },
    {
      "midi": 48,
      "hit": false,
      "t": 27944.002666666915,
      "d": 9.469333333334362,
      "v": 100
    },
    {
      "midi": 41,
      "hit": false,
      "t": 27944.002666666915,
      "d": 9.469333333334362,
      "v": 100
    },
    {
      "midi": 41,
      "hit": false,
      "t": 27953.47200000025,
      "d": 85.22400000000198,
      "v": 105
    },
    {
      "midi": 48,
      "hit": false,
      "t": 27953.47200000025,
      "d": 85.22400000000198,
      "v": 105
    },
    {
      "midi": 93,
      "hit": false,
      "t": 27953.47200000025,
      "d": 85.22400000000198,
      "v": 80
    },
    {
      "midi": 29,
      "hit": false,
      "t": 27953.47200000025,
      "d": 94.69333333333634,
      "v": 127
    },
    {
      "midi": 52,
      "hit": false,
      "t": 27962.941333333583,
      "d": 85.22400000000198,
      "v": 105
    },
    {
      "midi": 57,
      "hit": false,
      "t": 27962.941333333583,
      "d": 85.22400000000198,
      "v": 105
    },
    {
      "midi": 69,
      "hit": false,
      "t": 27962.941333333583,
      "d": 85.22400000000198,
      "v": 70
    },
    {
      "midi": 72,
      "hit": false,
      "t": 27972.410666666918,
      "d": 75.75466666666762,
      "v": 70
    },
    {
      "midi": 65,
      "hit": false,
      "t": 27972.410666666918,
      "d": 75.75466666666762,
      "v": 105
    },
    {
      "midi": 60,
      "hit": false,
      "t": 27972.410666666918,
      "d": 85.22400000000198,
      "v": 105
    },
    {
      "midi": 46,
      "hit": false,
      "t": 27972.410666666918,
      "d": 94.69333333333634,
      "v": 92
    },
    {
      "midi": 60,
      "hit": false,
      "t": 28057.63466666692,
      "d": 9.469333333334362,
      "v": 90
    },
    {
      "midi": 65,
      "hit": false,
      "t": 28057.63466666692,
      "d": 9.469333333334362,
      "v": 90
    },
    {
      "midi": 60,
      "hit": false,
      "t": 28067.104000000254,
      "d": 85.22400000000198,
      "v": 105
    },
    {
      "midi": 89,
      "hit": false,
      "t": 28067.104000000254,
      "d": 85.22400000000198,
      "v": 80
    },
    {
      "midi": 29,
      "hit": false,
      "t": 28067.104000000254,
      "d": 94.69333333333634,
      "v": 127
    },
    {
      "midi": 72,
      "hit": false,
      "t": 28067.104000000254,
      "d": 94.69333333333634,
      "v": 70
    },
    {
      "midi": 57,
      "hit": false,
      "t": 28076.57333333359,
      "d": 85.22400000000198,
      "v": 105
    },
    {
      "midi": 52,
      "hit": false,
      "t": 28076.57333333359,
      "d": 85.22400000000198,
      "v": 105
    },
    {
      "midi": 69,
      "hit": false,
      "t": 28076.57333333359,
      "d": 85.22400000000198,
      "v": 70
    },
    {
      "midi": 65,
      "hit": false,
      "t": 28086.042666666923,
      "d": 66.28533333333326,
      "v": 70
    },
    {
      "midi": 48,
      "hit": false,
      "t": 28086.042666666923,
      "d": 85.22400000000198,
      "v": 105
    },
    {
      "midi": 41,
      "hit": false,
      "t": 28086.042666666923,
      "d": 85.22400000000198,
      "v": 105
    },
    {
      "midi": 48,
      "hit": false,
      "t": 28171.266666666925,
      "d": 9.469333333334362,
      "v": 90
    },
    {
      "midi": 41,
      "hit": false,
      "t": 28171.266666666925,
      "d": 9.469333333334362,
      "v": 90
    },
    {
      "midi": 86,
      "hit": false,
      "t": 28180.73600000026,
      "d": 85.22400000000198,
      "v": 80
    },
    {
      "midi": 29,
      "hit": false,
      "t": 28180.73600000026,
      "d": 94.69333333333634,
      "v": 127
    },
    {
      "midi": 15,
      "hit": false,
      "t": 28180.73600000026,
      "d": 94.69333333333634,
      "v": 100
    },
    {
      "midi": 13,
      "hit": false,
      "t": 28180.73600000026,
      "d": 94.69333333333634,
      "v": 100
    },
    {
      "midi": 10,
      "hit": false,
      "t": 28180.73600000026,
      "d": 94.69333333333634,
      "v": 127
    },
    {
      "midi": 42,
      "hit": false,
      "t": 28180.73600000026,
      "d": 94.69333333333634,
      "v": 92
    },
    {
      "midi": 41,
      "hit": false,
      "t": 28180.73600000026,
      "d": 198.8560000000034,
      "v": 105
    },
    {
      "midi": 48,
      "hit": false,
      "t": 28180.73600000026,
      "d": 198.8560000000034,
      "v": 105
    },
    {
      "midi": 71,
      "hit": false,
      "t": 28180.73600000026,
      "d": 208.32533333333777,
      "v": 127
    },
    {
      "midi": 67,
      "hit": false,
      "t": 28180.73600000026,
      "d": 208.32533333333777,
      "v": 127
    },
    {
      "midi": 52,
      "hit": false,
      "t": 28190.205333333593,
      "d": 198.8560000000034,
      "v": 105
    },
    {
      "midi": 57,
      "hit": false,
      "t": 28190.205333333593,
      "d": 198.8560000000034,
      "v": 105
    },
    {
      "midi": 60,
      "hit": false,
      "t": 28199.674666666928,
      "d": 198.8560000000034,
      "v": 105
    },
    {
      "midi": 65,
      "hit": false,
      "t": 28199.674666666928,
      "d": 198.8560000000034,
      "v": 105
    },
    {
      "midi": 81,
      "hit": false,
      "t": 28294.36800000026,
      "d": 85.22400000000198,
      "v": 80
    },
    {
      "midi": 42,
      "hit": false,
      "t": 28303.837333333595,
      "d": 94.69333333333634,
      "v": 78
    },
    {
      "midi": 60,
      "hit": false,
      "t": 28398.53066666693,
      "d": 9.469333333334362,
      "v": 100
    },
    {
      "midi": 65,
      "hit": false,
      "t": 28398.53066666693,
      "d": 9.469333333334362,
      "v": 100
    },
    {
      "midi": 77,
      "hit": false,
      "t": 28408.000000000266,
      "d": 85.22400000000198,
      "v": 80
    },
    {
      "midi": 72,
      "hit": false,
      "t": 28408.000000000266,
      "d": 189.3866666666654,
      "v": 127
    },
    {
      "midi": 69,
      "hit": false,
      "t": 28408.000000000266,
      "d": 189.3866666666654,
      "v": 127
    },
    {
      "midi": 65,
      "hit": false,
      "t": 28408.000000000266,
      "d": 198.85599999999977,
      "v": 105
    },
    {
      "midi": 60,
      "hit": false,
      "t": 28408.000000000266,
      "d": 198.85599999999977,
      "v": 105
    },
    {
      "midi": 29,
      "hit": false,
      "t": 28408.000000000266,
      "d": 208.32533333333413,
      "v": 127
    },
    {
      "midi": 57,
      "hit": false,
      "t": 28417.4693333336,
      "d": 198.85599999999977,
      "v": 105
    },
    {
      "midi": 52,
      "hit": false,
      "t": 28417.4693333336,
      "d": 198.85599999999977,
      "v": 105
    },
    {
      "midi": 46,
      "hit": false,
      "t": 28426.938666666934,
      "d": 94.6933333333327,
      "v": 92
    },
    {
      "midi": 48,
      "hit": false,
      "t": 28426.938666666934,
      "d": 198.85599999999977,
      "v": 105
    },
    {
      "midi": 41,
      "hit": false,
      "t": 28426.938666666934,
      "d": 198.85599999999977,
      "v": 105
    },
    {
      "midi": 74,
      "hit": false,
      "t": 28521.632000000267,
      "d": 85.22399999999834,
      "v": 80
    },
    {
      "midi": 63,
      "hit": false,
      "t": 28521.632000000267,
      "d": 94.6933333333327,
      "v": 80
    },
    {
      "midi": 48,
      "hit": false,
      "t": 28625.794666666934,
      "d": 9.469333333334362,
      "v": 110
    },
    {
      "midi": 41,
      "hit": false,
      "t": 28625.794666666934,
      "d": 9.469333333334362,
      "v": 110
    },
    {
      "midi": 69,
      "hit": false,
      "t": 28635.26400000027,
      "d": 85.22400000000198,
      "v": 80
    },
    {
      "midi": 29,
      "hit": false,
      "t": 28635.26400000027,
      "d": 94.69333333333634,
      "v": 127
    },
    {
      "midi": 15,
      "hit": false,
      "t": 28635.26400000027,
      "d": 94.69333333333634,
      "v": 100
    },
    {
      "midi": 13,
      "hit": false,
      "t": 28635.26400000027,
      "d": 94.69333333333634,
      "v": 100
    },
    {
      "midi": 10,
      "hit": false,
      "t": 28635.26400000027,
      "d": 94.69333333333634,
      "v": 127
    },
    {
      "midi": 127,
      "hit": false,
      "t": 28635.26400000027,
      "d": 94.69333333333634,
      "v": 60
    },
    {
      "midi": 108,
      "hit": false,
      "t": 28635.26400000027,
      "d": 94.69333333333634,
      "v": 80
    },
    {
      "midi": 105,
      "hit": false,
      "t": 28635.26400000027,
      "d": 94.69333333333634,
      "v": 100
    },
    {
      "midi": 42,
      "hit": false,
      "t": 28635.26400000027,
      "d": 94.69333333333634,
      "v": 92
    },
    {
      "midi": 64,
      "hit": false,
      "t": 28635.26400000027,
      "d": 94.69333333333634,
      "v": 70
    },
    {
      "midi": 41,
      "hit": false,
      "t": 28635.26400000027,
      "d": 416.6506666666719,
      "v": 105
    },
    {
      "midi": 48,
      "hit": false,
      "t": 28635.26400000027,
      "d": 416.6506666666719,
      "v": 105
    },
    {
      "midi": 52,
      "hit": false,
      "t": 28644.733333333603,
      "d": 416.6506666666719,
      "v": 105
    },
    {
      "midi": 57,
      "hit": false,
      "t": 28644.733333333603,
      "d": 416.6506666666719,
      "v": 105
    },
    {
      "midi": 60,
      "hit": false,
      "t": 28654.202666666937,
      "d": 416.6506666666719,
      "v": 105
    },
    {
      "midi": 65,
      "hit": false,
      "t": 28748.89600000027,
      "d": 85.22400000000198,
      "v": 80
    },
    {
      "midi": 29,
      "hit": false,
      "t": 28748.89600000027,
      "d": 94.69333333333634,
      "v": 127
    },
    {
      "midi": 42,
      "hit": false,
      "t": 28758.365333333604,
      "d": 94.69333333333634,
      "v": 78
    },
    {
      "midi": 69,
      "hit": false,
      "t": 28862.528000000275,
      "d": 85.22399999999834,
      "v": 127
    },
    {
      "midi": 29,
      "hit": false,
      "t": 28862.528000000275,
      "d": 94.6933333333327,
      "v": 127
    },
    {
      "midi": 72,
      "hit": false,
      "t": 28862.528000000275,
      "d": 151.5093333333316,
      "v": 127
    },
    {
      "midi": 46,
      "hit": false,
      "t": 28881.46666666694,
      "d": 94.6933333333327,
      "v": 92
    },
    {
      "midi": 74,
      "hit": false,
      "t": 28976.160000000273,
      "d": 85.22400000000198,
      "v": 80
    },
    {
      "midi": 48,
      "hit": false,
      "t": 29089.792000000278,
      "d": 18.938666666668723,
      "v": 64
    },
    {
      "midi": 26,
      "hit": false,
      "t": 29089.792000000278,
      "d": 94.6933333333327,
      "v": 127
    },
    {
      "midi": 15,
      "hit": false,
      "t": 29089.792000000278,
      "d": 94.6933333333327,
      "v": 100
    },
    {
      "midi": 13,
      "hit": false,
      "t": 29089.792000000278,
      "d": 94.6933333333327,
      "v": 100
    },
    {
      "midi": 10,
      "hit": false,
      "t": 29089.792000000278,
      "d": 94.6933333333327,
      "v": 127
    },
    {
      "midi": 42,
      "hit": false,
      "t": 29089.792000000278,
      "d": 94.6933333333327,
      "v": 92
    },
    {
      "midi": 62,
      "hit": false,
      "t": 29089.792000000278,
      "d": 94.6933333333327,
      "v": 105
    },
    {
      "midi": 65,
      "hit": false,
      "t": 29099.261333333612,
      "d": 94.6933333333327,
      "v": 70
    },
    {
      "midi": 45,
      "hit": false,
      "t": 29099.261333333612,
      "d": 416.6506666666646,
      "v": 105
    },
    {
      "midi": 49,
      "hit": false,
      "t": 29108.730666666946,
      "d": 18.938666666665085,
      "v": 64
    },
    {
      "midi": 69,
      "hit": false,
      "t": 29108.730666666946,
      "d": 66.28533333332962,
      "v": 70
    },
    {
      "midi": 38,
      "hit": false,
      "t": 29108.730666666946,
      "d": 416.6506666666646,
      "v": 105
    },
    {
      "midi": 50,
      "hit": false,
      "t": 29127.66933333361,
      "d": 18.938666666665085,
      "v": 64
    },
    {
      "midi": 51,
      "hit": false,
      "t": 29146.608000000277,
      "d": 18.938666666665085,
      "v": 64
    },
    {
      "midi": 52,
      "hit": false,
      "t": 29165.54666666694,
      "d": 18.938666666668723,
      "v": 64
    },
    {
      "midi": 53,
      "hit": false,
      "t": 29184.48533333361,
      "d": 18.938666666668723,
      "v": 64
    },
    {
      "midi": 54,
      "hit": false,
      "t": 29203.42400000028,
      "d": 18.938666666668723,
      "v": 64
    },
    {
      "midi": 74,
      "hit": false,
      "t": 29203.42400000028,
      "d": 85.22399999999834,
      "v": 80
    },
    {
      "midi": 26,
      "hit": false,
      "t": 29203.42400000028,
      "d": 94.6933333333327,
      "v": 127
    },
    {
      "midi": 69,
      "hit": false,
      "t": 29203.42400000028,
      "d": 94.6933333333327,
      "v": 70
    },
    {
      "midi": 42,
      "hit": false,
      "t": 29212.893333333614,
      "d": 94.6933333333327,
      "v": 78
    },
    {
      "midi": 65,
      "hit": false,
      "t": 29212.893333333614,
      "d": 94.6933333333327,
      "v": 70
    },
    {
      "midi": 55,
      "hit": false,
      "t": 29222.362666666948,
      "d": 18.938666666665085,
      "v": 64
    },
    {
      "midi": 62,
      "hit": false,
      "t": 29222.362666666948,
      "d": 94.6933333333327,
      "v": 70
    },
    {
      "midi": 56,
      "hit": false,
      "t": 29241.301333333613,
      "d": 18.938666666665085,
      "v": 64
    },
    {
      "midi": 57,
      "hit": false,
      "t": 29260.240000000278,
      "d": 18.938666666665085,
      "v": 64
    },
    {
      "midi": 58,
      "hit": false,
      "t": 29279.178666666943,
      "d": 18.938666666668723,
      "v": 64
    },
    {
      "midi": 59,
      "hit": false,
      "t": 29298.117333333612,
      "d": 18.938666666668723,
      "v": 64
    },
    {
      "midi": 62,
      "hit": false,
      "t": 29317.05600000028,
      "d": 9.469333333334362,
      "v": 60
    },
    {
      "midi": 65,
      "hit": false,
      "t": 29317.05600000028,
      "d": 9.469333333334362,
      "v": 60
    },
    {
      "midi": 69,
      "hit": false,
      "t": 29317.05600000028,
      "d": 9.469333333334362,
      "v": 60
    },
    {
      "midi": 60,
      "hit": false,
      "t": 29317.05600000028,
      "d": 18.938666666668723,
      "v": 64
    },
    {
      "midi": 77,
      "hit": false,
      "t": 29317.05600000028,
      "d": 85.22399999999834,
      "v": 80
    },
    {
      "midi": 26,
      "hit": false,
      "t": 29317.05600000028,
      "d": 94.6933333333327,
      "v": 127
    },
    {
      "midi": 61,
      "hit": false,
      "t": 29335.99466666695,
      "d": 18.938666666665085,
      "v": 64
    },
    {
      "midi": 46,
      "hit": false,
      "t": 29335.99466666695,
      "d": 94.69333333332906,
      "v": 92
    },
    {
      "midi": 62,
      "hit": false,
      "t": 29354.933333333614,
      "d": 18.938666666665085,
      "v": 64
    },
    {
      "midi": 63,
      "hit": false,
      "t": 29373.87200000028,
      "d": 18.938666666665085,
      "v": 64
    },
    {
      "midi": 64,
      "hit": false,
      "t": 29392.810666666945,
      "d": 18.938666666668723,
      "v": 64
    },
    {
      "midi": 65,
      "hit": false,
      "t": 29411.749333333613,
      "d": 18.938666666665085,
      "v": 64
    },
    {
      "midi": 66,
      "hit": false,
      "t": 29430.68800000028,
      "d": 18.938666666668723,
      "v": 64
    },
    {
      "midi": 81,
      "hit": false,
      "t": 29430.68800000028,
      "d": 85.22399999999834,
      "v": 80
    },
    {
      "midi": 26,
      "hit": false,
      "t": 29430.68800000028,
      "d": 94.6933333333327,
      "v": 127
    },
    {
      "midi": 64,
      "hit": false,
      "t": 29430.68800000028,
      "d": 94.6933333333327,
      "v": 70
    },
    {
      "midi": 65,
      "hit": false,
      "t": 29440.157333333613,
      "d": 94.6933333333327,
      "v": 70
    },
    {
      "midi": 67,
      "hit": false,
      "t": 29449.626666666947,
      "d": 18.938666666665085,
      "v": 64
    },
    {
      "midi": 62,
      "hit": false,
      "t": 29449.626666666947,
      "d": 56.815999999995256,
      "v": 70
    },
    {
      "midi": 68,
      "hit": false,
      "t": 29468.565333333612,
      "d": 18.938666666665085,
      "v": 64
    },
    {
      "midi": 69,
      "hit": false,
      "t": 29487.504000000277,
      "d": 18.938666666665085,
      "v": 64
    },
    {
      "midi": 70,
      "hit": false,
      "t": 29506.442666666942,
      "d": 18.938666666668723,
      "v": 64
    },
    {
      "midi": 71,
      "hit": false,
      "t": 29525.38133333361,
      "d": 18.938666666668723,
      "v": 64
    },
    {
      "midi": 62,
      "hit": false,
      "t": 29534.850666666945,
      "d": 9.469333333334362,
      "v": 110
    },
    {
      "midi": 86,
      "hit": false,
      "t": 29544.32000000028,
      "d": 85.22400000000198,
      "v": 80
    },
    {
      "midi": 26,
      "hit": false,
      "t": 29544.32000000028,
      "d": 94.69333333333634,
      "v": 127
    },
    {
      "midi": 72,
      "hit": false,
      "t": 29544.32000000028,
      "d": 94.69333333333634,
      "v": 127
    },
    {
      "midi": 15,
      "hit": false,
      "t": 29544.32000000028,
      "d": 94.69333333333634,
      "v": 100
    },
    {
      "midi": 13,
      "hit": false,
      "t": 29544.32000000028,
      "d": 94.69333333333634,
      "v": 100
    },
    {
      "midi": 10,
      "hit": false,
      "t": 29544.32000000028,
      "d": 94.69333333333634,
      "v": 127
    },
    {
      "midi": 127,
      "hit": false,
      "t": 29544.32000000028,
      "d": 94.69333333333634,
      "v": 60
    },
    {
      "midi": 108,
      "hit": false,
      "t": 29544.32000000028,
      "d": 94.69333333333634,
      "v": 80
    },
    {
      "midi": 105,
      "hit": false,
      "t": 29544.32000000028,
      "d": 94.69333333333634,
      "v": 100
    },
    {
      "midi": 42,
      "hit": false,
      "t": 29544.32000000028,
      "d": 94.69333333333634,
      "v": 92
    },
    {
      "midi": 62,
      "hit": false,
      "t": 29544.32000000028,
      "d": 94.69333333333634,
      "v": 105
    },
    {
      "midi": 63,
      "hit": false,
      "t": 29544.32000000028,
      "d": 94.69333333333634,
      "v": 70
    },
    {
      "midi": 57,
      "hit": false,
      "t": 29544.32000000028,
      "d": 198.85600000000704,
      "v": 105
    },
    {
      "midi": 65,
      "hit": false,
      "t": 29553.789333333614,
      "d": 94.69333333333634,
      "v": 70
    },
    {
      "midi": 53,
      "hit": false,
      "t": 29553.789333333614,
      "d": 198.85600000000704,
      "v": 105
    },
    {
      "midi": 45,
      "hit": false,
      "t": 29553.789333333614,
      "d": 198.85600000000704,
      "v": 105
    },
    {
      "midi": 69,
      "hit": false,
      "t": 29563.25866666695,
      "d": 75.75466666666762,
      "v": 70
    },
    {
      "midi": 38,
      "hit": false,
      "t": 29563.25866666695,
      "d": 198.85600000000704,
      "v": 105
    },
    {
      "midi": 69,
      "hit": false,
      "t": 29657.952000000285,
      "d": 9.469333333334362,
      "v": 60
    },
    {
      "midi": 65,
      "hit": false,
      "t": 29657.952000000285,
      "d": 9.469333333334362,
      "v": 60
    },
    {
      "midi": 62,
      "hit": false,
      "t": 29657.952000000285,
      "d": 9.469333333334362,
      "v": 60
    },
    {
      "midi": 89,
      "hit": false,
      "t": 29657.952000000285,
      "d": 85.22400000000198,
      "v": 80
    },
    {
      "midi": 72,
      "hit": false,
      "t": 29657.952000000285,
      "d": 94.69333333333634,
      "v": 127
    },
    {
      "midi": 42,
      "hit": false,
      "t": 29667.42133333362,
      "d": 94.69333333333634,
      "v": 78
    },
    {
      "midi": 38,
      "hit": false,
      "t": 29762.114666666956,
      "d": 9.469333333334362,
      "v": 100
    },
    {
      "midi": 38,
      "hit": false,
      "t": 29771.58400000029,
      "d": 66.2853333333369,
      "v": 105
    },
    {
      "midi": 45,
      "hit": false,
      "t": 29771.58400000029,
      "d": 66.2853333333369,
      "v": 105
    },
    {
      "midi": 86,
      "hit": false,
      "t": 29771.58400000029,
      "d": 85.22400000000562,
      "v": 80
    },
    {
      "midi": 26,
      "hit": false,
      "t": 29771.58400000029,
      "d": 208.32533333334868,
      "v": 127
    },
    {
      "midi": 72,
      "hit": false,
      "t": 29771.58400000029,
      "d": 227.2640000000174,
      "v": 127
    },
    {
      "midi": 53,
      "hit": false,
      "t": 29781.053333333624,
      "d": 66.2853333333369,
      "v": 105
    },
    {
      "midi": 57,
      "hit": false,
      "t": 29781.053333333624,
      "d": 66.2853333333369,
      "v": 105
    },
    {
      "midi": 65,
      "hit": false,
      "t": 29781.053333333624,
      "d": 94.69333333333998,
      "v": 70
    },
    {
      "midi": 62,
      "hit": false,
      "t": 29790.52266666696,
      "d": 66.2853333333369,
      "v": 105
    },
    {
      "midi": 46,
      "hit": false,
      "t": 29790.52266666696,
      "d": 94.69333333333998,
      "v": 92
    },
    {
      "midi": 69,
      "hit": false,
      "t": 29790.52266666696,
      "d": 94.69333333333998,
      "v": 70
    },
    {
      "midi": 62,
      "hit": false,
      "t": 29875.746666666964,
      "d": 9.469333333334362,
      "v": 100
    },
    {
      "midi": 57,
      "hit": false,
      "t": 29885.2160000003,
      "d": 66.2853333333369,
      "v": 105
    },
    {
      "midi": 81,
      "hit": false,
      "t": 29885.2160000003,
      "d": 85.22400000000562,
      "v": 80
    },
    {
      "midi": 69,
      "hit": false,
      "t": 29885.2160000003,
      "d": 94.69333333333998,
      "v": 70
    },
    {
      "midi": 53,
      "hit": false,
      "t": 29894.685333333633,
      "d": 66.2853333333369,
      "v": 105
    },
    {
      "midi": 45,
      "hit": false,
      "t": 29894.685333333633,
      "d": 66.2853333333369,
      "v": 105
    },
    {
      "midi": 65,
      "hit": false,
      "t": 29894.685333333633,
      "d": 94.69333333333998,
      "v": 70
    },
    {
      "midi": 62,
      "hit": false,
      "t": 29904.154666666967,
      "d": 47.34666666666817,
      "v": 70
    },
    {
      "midi": 38,
      "hit": false,
      "t": 29904.154666666967,
      "d": 66.2853333333369,
      "v": 105
    },
    {
      "midi": 38,
      "hit": false,
      "t": 29989.378666666973,
      "d": 9.469333333334362,
      "v": 120
    },
    {
      "midi": 38,
      "hit": false,
      "t": 29998.848000000307,
      "d": 28.408000000003085,
      "v": 105
    },
    {
      "midi": 45,
      "hit": false,
      "t": 29998.848000000307,
      "d": 28.408000000003085,
      "v": 105
    },
    {
      "midi": 77,
      "hit": false,
      "t": 29998.848000000307,
      "d": 85.22400000000562,
      "v": 80
    },
    {
      "midi": 26,
      "hit": false,
      "t": 29998.848000000307,
      "d": 94.69333333333998,
      "v": 127
    },
    {
      "midi": 15,
      "hit": false,
      "t": 29998.848000000307,
      "d": 94.69333333333998,
      "v": 100
    },
    {
      "midi": 13,
      "hit": false,
      "t": 29998.848000000307,
      "d": 94.69333333333998,
      "v": 100
    },
    {
      "midi": 10,
      "hit": false,
      "t": 29998.848000000307,
      "d": 94.69333333333998,
      "v": 127
    },
    {
      "midi": 42,
      "hit": false,
      "t": 29998.848000000307,
      "d": 94.69333333333998,
      "v": 92
    },
    {
      "midi": 71,
      "hit": false,
      "t": 29998.848000000307,
      "d": 208.32533333334868,
      "v": 127
    },
    {
      "midi": 67,
      "hit": false,
      "t": 29998.848000000307,
      "d": 208.32533333334868,
      "v": 127
    },
    {
      "midi": 53,
      "hit": false,
      "t": 30008.31733333364,
      "d": 28.408000000003085,
      "v": 105
    },
    {
      "midi": 57,
      "hit": false,
      "t": 30008.31733333364,
      "d": 28.408000000003085,
      "v": 105
    },
    {
      "midi": 62,
      "hit": false,
      "t": 30017.786666666976,
      "d": 28.408000000003085,
      "v": 105
    },
    {
      "midi": 62,
      "hit": false,
      "t": 30112.480000000316,
      "d": 28.408000000003085,
      "v": 105
    },
    {
      "midi": 57,
      "hit": false,
      "t": 30112.480000000316,
      "d": 28.408000000003085,
      "v": 105
    },
    {
      "midi": 74,
      "hit": false,
      "t": 30112.480000000316,
      "d": 85.22400000000562,
      "v": 80
    },
    {
      "midi": 53,
      "hit": false,
      "t": 30121.94933333365,
      "d": 28.408000000003085,
      "v": 105
    },
    {
      "midi": 45,
      "hit": false,
      "t": 30121.94933333365,
      "d": 28.408000000003085,
      "v": 105
    },
    {
      "midi": 42,
      "hit": false,
      "t": 30121.94933333365,
      "d": 94.69333333333998,
      "v": 78
    },
    {
      "midi": 38,
      "hit": false,
      "t": 30131.418666666985,
      "d": 28.408000000003085,
      "v": 105
    },
    {
      "midi": 69,
      "hit": false,
      "t": 30226.112000000325,
      "d": 85.22400000000198,
      "v": 127
    },
    {
      "midi": 72,
      "hit": false,
      "t": 30226.112000000325,
      "d": 113.63200000000143,
      "v": 127
    },
    {
      "midi": 38,
      "hit": false,
      "t": 30226.112000000325,
      "d": 198.8560000000034,
      "v": 105
    },
    {
      "midi": 45,
      "hit": false,
      "t": 30226.112000000325,
      "d": 198.8560000000034,
      "v": 105
    },
    {
      "midi": 26,
      "hit": false,
      "t": 30226.112000000325,
      "d": 208.32533333333777,
      "v": 127
    },
    {
      "midi": 53,
      "hit": false,
      "t": 30235.58133333366,
      "d": 198.8560000000034,
      "v": 105
    },
    {
      "midi": 57,
      "hit": false,
      "t": 30235.58133333366,
      "d": 198.8560000000034,
      "v": 105
    },
    {
      "midi": 46,
      "hit": false,
      "t": 30245.050666666993,
      "d": 94.6933333333327,
      "v": 92
    },
    {
      "midi": 62,
      "hit": false,
      "t": 30245.050666666993,
      "d": 198.8560000000034,
      "v": 105
    },
    {
      "midi": 65,
      "hit": false,
      "t": 30339.744000000326,
      "d": 85.22400000000198,
      "v": 80
    },
    {
      "midi": 63,
      "hit": false,
      "t": 30339.744000000326,
      "d": 94.69333333333634,
      "v": 80
    },
    {
      "midi": 62,
      "hit": false,
      "t": 30443.906666666997,
      "d": 9.469333333334362,
      "v": 110
    },
    {
      "midi": 62,
      "hit": false,
      "t": 30453.37600000033,
      "d": 85.22400000000198,
      "v": 105
    },
    {
      "midi": 26,
      "hit": false,
      "t": 30453.37600000033,
      "d": 94.69333333333634,
      "v": 127
    },
    {
      "midi": 15,
      "hit": false,
      "t": 30453.37600000033,
      "d": 94.69333333333634,
      "v": 100
    },
    {
      "midi": 13,
      "hit": false,
      "t": 30453.37600000033,
      "d": 94.69333333333634,
      "v": 100
    },
    {
      "midi": 10,
      "hit": false,
      "t": 30453.37600000033,
      "d": 94.69333333333634,
      "v": 127
    },
    {
      "midi": 127,
      "hit": false,
      "t": 30453.37600000033,
      "d": 94.69333333333634,
      "v": 60
    },
    {
      "midi": 108,
      "hit": false,
      "t": 30453.37600000033,
      "d": 94.69333333333634,
      "v": 80
    },
    {
      "midi": 105,
      "hit": false,
      "t": 30453.37600000033,
      "d": 94.69333333333634,
      "v": 100
    },
    {
      "midi": 42,
      "hit": false,
      "t": 30453.37600000033,
      "d": 94.69333333333634,
      "v": 92
    },
    {
      "midi": 64,
      "hit": false,
      "t": 30453.37600000033,
      "d": 94.69333333333634,
      "v": 70
    },
    {
      "midi": 72,
      "hit": false,
      "t": 30453.37600000033,
      "d": 113.63200000000143,
      "v": 127
    },
    {
      "midi": 69,
      "hit": false,
      "t": 30453.37600000033,
      "d": 113.63200000000143,
      "v": 127
    },
    {
      "midi": 57,
      "hit": false,
      "t": 30453.37600000033,
      "d": 198.8560000000034,
      "v": 105
    },
    {
      "midi": 53,
      "hit": false,
      "t": 30462.845333333666,
      "d": 198.8560000000034,
      "v": 105
    },
    {
      "midi": 45,
      "hit": false,
      "t": 30462.845333333666,
      "d": 198.8560000000034,
      "v": 105
    },
    {
      "midi": 38,
      "hit": false,
      "t": 30472.314666667,
      "d": 198.8560000000034,
      "v": 105
    },
    {
      "midi": 65,
      "hit": false,
      "t": 30567.008000000333,
      "d": 85.22400000000198,
      "v": 80
    },
    {
      "midi": 26,
      "hit": false,
      "t": 30567.008000000333,
      "d": 94.69333333333634,
      "v": 127
    },
    {
      "midi": 42,
      "hit": false,
      "t": 30576.477333333667,
      "d": 94.69333333333634,
      "v": 78
    },
    {
      "midi": 38,
      "hit": false,
      "t": 30671.170666667003,
      "d": 9.469333333334362,
      "v": 100
    },
    {
      "midi": 38,
      "hit": false,
      "t": 30680.640000000338,
      "d": 9.469333333334362,
      "v": 105
    },
    {
      "midi": 45,
      "hit": false,
      "t": 30680.640000000338,
      "d": 9.469333333334362,
      "v": 105
    },
    {
      "midi": 69,
      "hit": false,
      "t": 30680.640000000338,
      "d": 85.22400000000562,
      "v": 80
    },
    {
      "midi": 26,
      "hit": false,
      "t": 30680.640000000338,
      "d": 94.69333333333998,
      "v": 127
    },
    {
      "midi": 15,
      "hit": false,
      "t": 30680.640000000338,
      "d": 94.69333333333998,
      "v": 100
    },
    {
      "midi": 13,
      "hit": false,
      "t": 30680.640000000338,
      "d": 94.69333333333998,
      "v": 100
    },
    {
      "midi": 10,
      "hit": false,
      "t": 30680.640000000338,
      "d": 94.69333333333998,
      "v": 127
    },
    {
      "midi": 77,
      "hit": false,
      "t": 30680.640000000338,
      "d": 435.5893333333588,
      "v": 127
    },
    {
      "midi": 74,
      "hit": false,
      "t": 30680.640000000338,
      "d": 435.5893333333588,
      "v": 127
    },
    {
      "midi": 53,
      "hit": false,
      "t": 30690.109333333672,
      "d": 9.469333333334362,
      "v": 105
    },
    {
      "midi": 57,
      "hit": false,
      "t": 30690.109333333672,
      "d": 9.469333333334362,
      "v": 105
    },
    {
      "midi": 62,
      "hit": false,
      "t": 30699.578666667006,
      "d": 9.469333333334362,
      "v": 105
    },
    {
      "midi": 46,
      "hit": false,
      "t": 30699.578666667006,
      "d": 94.69333333333998,
      "v": 92
    },
    {
      "midi": 62,
      "hit": false,
      "t": 30794.272000000346,
      "d": 28.408000000003085,
      "v": 105
    },
    {
      "midi": 57,
      "hit": false,
      "t": 30794.272000000346,
      "d": 28.408000000003085,
      "v": 105
    },
    {
      "midi": 65,
      "hit": false,
      "t": 30794.272000000346,
      "d": 85.22400000000562,
      "v": 80
    },
    {
      "midi": 53,
      "hit": false,
      "t": 30803.74133333368,
      "d": 28.408000000003085,
      "v": 105
    },
    {
      "midi": 45,
      "hit": false,
      "t": 30803.74133333368,
      "d": 28.408000000003085,
      "v": 105
    },
    {
      "midi": 38,
      "hit": false,
      "t": 30813.210666667015,
      "d": 28.408000000003085,
      "v": 105
    },
    {
      "midi": 71,
      "hit": false,
      "t": 30907.904000000355,
      "d": 85.22400000000198,
      "v": 70
    },
    {
      "midi": 28,
      "hit": false,
      "t": 30907.904000000355,
      "d": 94.69333333333634,
      "v": 127
    },
    {
      "midi": 15,
      "hit": false,
      "t": 30907.904000000355,
      "d": 94.69333333333634,
      "v": 100
    },
    {
      "midi": 13,
      "hit": false,
      "t": 30907.904000000355,
      "d": 94.69333333333634,
      "v": 100
    },
    {
      "midi": 10,
      "hit": false,
      "t": 30907.904000000355,
      "d": 94.69333333333634,
      "v": 127
    },
    {
      "midi": 42,
      "hit": false,
      "t": 30907.904000000355,
      "d": 94.69333333333634,
      "v": 92
    },
    {
      "midi": 40,
      "hit": false,
      "t": 30907.904000000355,
      "d": 416.6506666666792,
      "v": 115
    },
    {
      "midi": 47,
      "hit": false,
      "t": 30907.904000000355,
      "d": 416.6506666666792,
      "v": 115
    },
    {
      "midi": 68,
      "hit": false,
      "t": 30917.37333333369,
      "d": 94.69333333333634,
      "v": 70
    },
    {
      "midi": 56,
      "hit": false,
      "t": 30917.37333333369,
      "d": 416.6506666666792,
      "v": 115
    },
    {
      "midi": 59,
      "hit": false,
      "t": 30917.37333333369,
      "d": 416.6506666666792,
      "v": 115
    },
    {
      "midi": 64,
      "hit": false,
      "t": 30926.842666667024,
      "d": 94.69333333333634,
      "v": 115
    },
    {
      "midi": 28,
      "hit": false,
      "t": 31021.53600000036,
      "d": 94.69333333333634,
      "v": 127
    },
    {
      "midi": 64,
      "hit": false,
      "t": 31021.53600000036,
      "d": 94.69333333333634,
      "v": 70
    },
    {
      "midi": 68,
      "hit": false,
      "t": 31031.005333333695,
      "d": 75.75466666666762,
      "v": 70
    },
    {
      "midi": 42,
      "hit": false,
      "t": 31031.005333333695,
      "d": 94.69333333333634,
      "v": 78
    },
    {
      "midi": 71,
      "hit": false,
      "t": 31040.47466666703,
      "d": 94.69333333333634,
      "v": 70
    },
    {
      "midi": 71,
      "hit": false,
      "t": 31135.168000000365,
      "d": 9.469333333334362,
      "v": 60
    },
    {
      "midi": 68,
      "hit": false,
      "t": 31135.168000000365,
      "d": 9.469333333334362,
      "v": 60
    },
    {
      "midi": 64,
      "hit": false,
      "t": 31135.168000000365,
      "d": 9.469333333334362,
      "v": 60
    },
    {
      "midi": 76,
      "hit": false,
      "t": 31135.168000000365,
      "d": 85.22400000000198,
      "v": 127
    },
    {
      "midi": 28,
      "hit": false,
      "t": 31135.168000000365,
      "d": 94.69333333333634,
      "v": 127
    },
    {
      "midi": 46,
      "hit": false,
      "t": 31154.106666667034,
      "d": 94.6933333333327,
      "v": 92
    },
    {
      "midi": 80,
      "hit": false,
      "t": 31248.800000000367,
      "d": 85.22400000000198,
      "v": 80
    },
    {
      "midi": 64,
      "hit": false,
      "t": 31248.800000000367,
      "d": 94.69333333333634,
      "v": 70
    },
    {
      "midi": 28,
      "hit": false,
      "t": 31248.800000000367,
      "d": 94.69333333333634,
      "v": 127
    },
    {
      "midi": 68,
      "hit": false,
      "t": 31258.2693333337,
      "d": 94.69333333333634,
      "v": 70
    },
    {
      "midi": 71,
      "hit": false,
      "t": 31267.738666667035,
      "d": 94.69333333333634,
      "v": 70
    },
    {
      "midi": 83,
      "hit": false,
      "t": 31362.43200000037,
      "d": 85.22400000000198,
      "v": 80
    },
    {
      "midi": 28,
      "hit": false,
      "t": 31362.43200000037,
      "d": 94.69333333333634,
      "v": 127
    },
    {
      "midi": 15,
      "hit": false,
      "t": 31362.43200000037,
      "d": 94.69333333333634,
      "v": 100
    },
    {
      "midi": 13,
      "hit": false,
      "t": 31362.43200000037,
      "d": 94.69333333333634,
      "v": 100
    },
    {
      "midi": 10,
      "hit": false,
      "t": 31362.43200000037,
      "d": 94.69333333333634,
      "v": 127
    },
    {
      "midi": 127,
      "hit": false,
      "t": 31362.43200000037,
      "d": 94.69333333333634,
      "v": 60
    },
    {
      "midi": 108,
      "hit": false,
      "t": 31362.43200000037,
      "d": 94.69333333333634,
      "v": 80
    },
    {
      "midi": 105,
      "hit": false,
      "t": 31362.43200000037,
      "d": 94.69333333333634,
      "v": 100
    },
    {
      "midi": 42,
      "hit": false,
      "t": 31362.43200000037,
      "d": 94.69333333333634,
      "v": 92
    },
    {
      "midi": 71,
      "hit": false,
      "t": 31362.43200000037,
      "d": 94.69333333333634,
      "v": 70
    },
    {
      "midi": 63,
      "hit": false,
      "t": 31362.43200000037,
      "d": 94.69333333333634,
      "v": 70
    },
    {
      "midi": 59,
      "hit": false,
      "t": 31362.43200000037,
      "d": 198.85600000000704,
      "v": 115
    },
    {
      "midi": 57,
      "hit": false,
      "t": 31362.43200000037,
      "d": 208.3253333333414,
      "v": 110
    },
    {
      "midi": 68,
      "hit": false,
      "t": 31371.901333333706,
      "d": 94.69333333333634,
      "v": 70
    },
    {
      "midi": 47,
      "hit": false,
      "t": 31371.901333333706,
      "d": 198.85600000000704,
      "v": 115
    },
    {
      "midi": 56,
      "hit": false,
      "t": 31371.901333333706,
      "d": 208.3253333333414,
      "v": 115
    },
    {
      "midi": 64,
      "hit": false,
      "t": 31381.37066666704,
      "d": 94.69333333333634,
      "v": 70
    },
    {
      "midi": 40,
      "hit": false,
      "t": 31381.37066666704,
      "d": 198.85600000000704,
      "v": 115
    },
    {
      "midi": 64,
      "hit": false,
      "t": 31476.064000000377,
      "d": 9.469333333334362,
      "v": 60
    },
    {
      "midi": 68,
      "hit": false,
      "t": 31476.064000000377,
      "d": 9.469333333334362,
      "v": 60
    },
    {
      "midi": 71,
      "hit": false,
      "t": 31476.064000000377,
      "d": 9.469333333334362,
      "v": 60
    },
    {
      "midi": 88,
      "hit": false,
      "t": 31476.064000000377,
      "d": 85.22400000000198,
      "v": 80
    },
    {
      "midi": 42,
      "hit": false,
      "t": 31485.53333333371,
      "d": 94.69333333333634,
      "v": 78
    },
    {
      "midi": 40,
      "hit": false,
      "t": 31580.226666667048,
      "d": 9.469333333334362,
      "v": 100
    },
    {
      "midi": 40,
      "hit": false,
      "t": 31589.696000000382,
      "d": 85.22400000000198,
      "v": 115
    },
    {
      "midi": 47,
      "hit": false,
      "t": 31589.696000000382,
      "d": 85.22400000000198,
      "v": 115
    },
    {
      "midi": 83,
      "hit": false,
      "t": 31589.696000000382,
      "d": 85.22400000000198,
      "v": 80
    },
    {
      "midi": 28,
      "hit": false,
      "t": 31589.696000000382,
      "d": 94.69333333333634,
      "v": 127
    },
    {
      "midi": 71,
      "hit": false,
      "t": 31589.696000000382,
      "d": 94.69333333333634,
      "v": 70
    },
    {
      "midi": 56,
      "hit": false,
      "t": 31599.165333333716,
      "d": 85.22400000000198,
      "v": 115
    },
    {
      "midi": 59,
      "hit": false,
      "t": 31599.165333333716,
      "d": 85.22400000000198,
      "v": 115
    },
    {
      "midi": 68,
      "hit": false,
      "t": 31599.165333333716,
      "d": 94.69333333333634,
      "v": 70
    },
    {
      "midi": 64,
      "hit": false,
      "t": 31608.63466666705,
      "d": 85.22400000000198,
      "v": 115
    },
    {
      "midi": 46,
      "hit": false,
      "t": 31608.63466666705,
      "d": 94.69333333333634,
      "v": 92
    },
    {
      "midi": 64,
      "hit": false,
      "t": 31693.858666667053,
      "d": 9.469333333334362,
      "v": 90
    },
    {
      "midi": 64,
      "hit": false,
      "t": 31703.328000000387,
      "d": 85.22400000000198,
      "v": 115
    },
    {
      "midi": 59,
      "hit": false,
      "t": 31703.328000000387,
      "d": 85.22400000000198,
      "v": 115
    },
    {
      "midi": 80,
      "hit": false,
      "t": 31703.328000000387,
      "d": 85.22400000000198,
      "v": 80
    },
    {
      "midi": 56,
      "hit": false,
      "t": 31712.79733333372,
      "d": 85.22400000000198,
      "v": 115
    },
    {
      "midi": 47,
      "hit": false,
      "t": 31712.79733333372,
      "d": 85.22400000000198,
      "v": 115
    },
    {
      "midi": 68,
      "hit": false,
      "t": 31712.79733333372,
      "d": 94.69333333333634,
      "v": 70
    },
    {
      "midi": 40,
      "hit": false,
      "t": 31722.266666667056,
      "d": 85.22400000000198,
      "v": 115
    },
    {
      "midi": 71,
      "hit": false,
      "t": 31722.266666667056,
      "d": 94.69333333333634,
      "v": 70
    },
    {
      "midi": 40,
      "hit": false,
      "t": 31807.490666667058,
      "d": 9.469333333334362,
      "v": 100
    },
    {
      "midi": 40,
      "hit": false,
      "t": 31816.960000000392,
      "d": 85.22400000000198,
      "v": 115
    },
    {
      "midi": 47,
      "hit": false,
      "t": 31816.960000000392,
      "d": 85.22400000000198,
      "v": 115
    },
    {
      "midi": 76,
      "hit": false,
      "t": 31816.960000000392,
      "d": 85.22400000000198,
      "v": 80
    },
    {
      "midi": 28,
      "hit": false,
      "t": 31816.960000000392,
      "d": 94.69333333333634,
      "v": 127
    },
    {
      "midi": 15,
      "hit": false,
      "t": 31816.960000000392,
      "d": 94.69333333333634,
      "v": 100
    },
    {
      "midi": 13,
      "hit": false,
      "t": 31816.960000000392,
      "d": 94.69333333333634,
      "v": 100
    },
    {
      "midi": 10,
      "hit": false,
      "t": 31816.960000000392,
      "d": 94.69333333333634,
      "v": 127
    },
    {
      "midi": 42,
      "hit": false,
      "t": 31816.960000000392,
      "d": 94.69333333333634,
      "v": 92
    },
    {
      "midi": 56,
      "hit": false,
      "t": 31826.429333333726,
      "d": 85.22400000000198,
      "v": 115
    },
    {
      "midi": 59,
      "hit": false,
      "t": 31826.429333333726,
      "d": 85.22400000000198,
      "v": 115
    },
    {
      "midi": 64,
      "hit": false,
      "t": 31835.89866666706,
      "d": 85.22400000000198,
      "v": 115
    },
    {
      "midi": 64,
      "hit": false,
      "t": 31921.122666667063,
      "d": 9.469333333334362,
      "v": 90
    },
    {
      "midi": 64,
      "hit": false,
      "t": 31930.592000000397,
      "d": 85.22400000000198,
      "v": 115
    },
    {
      "midi": 59,
      "hit": false,
      "t": 31930.592000000397,
      "d": 85.22400000000198,
      "v": 115
    },
    {
      "midi": 71,
      "hit": false,
      "t": 31930.592000000397,
      "d": 85.22400000000198,
      "v": 80
    },
    {
      "midi": 56,
      "hit": false,
      "t": 31940.06133333373,
      "d": 85.22400000000198,
      "v": 115
    },
    {
      "midi": 47,
      "hit": false,
      "t": 31940.06133333373,
      "d": 85.22400000000198,
      "v": 115
    },
    {
      "midi": 42,
      "hit": false,
      "t": 31940.06133333373,
      "d": 94.69333333333634,
      "v": 78
    },
    {
      "midi": 40,
      "hit": false,
      "t": 31949.530666667066,
      "d": 85.22400000000198,
      "v": 115
    },
    {
      "midi": 40,
      "hit": false,
      "t": 32034.754666667068,
      "d": 9.469333333334362,
      "v": 100
    },
    {
      "midi": 68,
      "hit": false,
      "t": 32044.224000000402,
      "d": 85.22400000000198,
      "v": 80
    },
    {
      "midi": 40,
      "hit": false,
      "t": 32044.224000000402,
      "d": 198.8560000000034,
      "v": 115
    },
    {
      "midi": 47,
      "hit": false,
      "t": 32044.224000000402,
      "d": 198.8560000000034,
      "v": 115
    },
    {
      "midi": 28,
      "hit": false,
      "t": 32044.224000000402,
      "d": 208.32533333333777,
      "v": 127
    },
    {
      "midi": 56,
      "hit": false,
      "t": 32053.693333333737,
      "d": 198.8560000000034,
      "v": 115
    },
    {
      "midi": 59,
      "hit": false,
      "t": 32053.693333333737,
      "d": 198.8560000000034,
      "v": 115
    },
    {
      "midi": 46,
      "hit": false,
      "t": 32063.16266666707,
      "d": 94.6933333333327,
      "v": 92
    },
    {
      "midi": 64,
      "hit": false,
      "t": 32157.856000000404,
      "d": 85.22400000000198,
      "v": 80
    },
    {
      "midi": 63,
      "hit": false,
      "t": 32157.856000000404,
      "d": 94.69333333333634,
      "v": 80
    },
    {
      "midi": 64,
      "hit": false,
      "t": 32262.018666667074,
      "d": 9.469333333334362,
      "v": 110
    },
    {
      "midi": 59,
      "hit": false,
      "t": 32271.48800000041,
      "d": 85.22400000000198,
      "v": 115
    },
    {
      "midi": 28,
      "hit": false,
      "t": 32271.48800000041,
      "d": 94.69333333333634,
      "v": 127
    },
    {
      "midi": 15,
      "hit": false,
      "t": 32271.48800000041,
      "d": 94.69333333333634,
      "v": 100
    },
    {
      "midi": 13,
      "hit": false,
      "t": 32271.48800000041,
      "d": 94.69333333333634,
      "v": 100
    },
    {
      "midi": 10,
      "hit": false,
      "t": 32271.48800000041,
      "d": 94.69333333333634,
      "v": 127
    },
    {
      "midi": 127,
      "hit": false,
      "t": 32271.48800000041,
      "d": 94.69333333333634,
      "v": 60
    },
    {
      "midi": 108,
      "hit": false,
      "t": 32271.48800000041,
      "d": 94.69333333333634,
      "v": 80
    },
    {
      "midi": 105,
      "hit": false,
      "t": 32271.48800000041,
      "d": 94.69333333333634,
      "v": 100
    },
    {
      "midi": 42,
      "hit": false,
      "t": 32271.48800000041,
      "d": 94.69333333333634,
      "v": 92
    },
    {
      "midi": 64,
      "hit": false,
      "t": 32271.48800000041,
      "d": 94.69333333333634,
      "v": 70
    },
    {
      "midi": 57,
      "hit": false,
      "t": 32271.48800000041,
      "d": 208.32533333333777,
      "v": 110
    },
    {
      "midi": 47,
      "hit": false,
      "t": 32280.957333333743,
      "d": 198.8560000000034,
      "v": 115
    },
    {
      "midi": 56,
      "hit": false,
      "t": 32280.957333333743,
      "d": 208.32533333333777,
      "v": 115
    },
    {
      "midi": 40,
      "hit": false,
      "t": 32290.426666667077,
      "d": 198.8560000000034,
      "v": 115
    },
    {
      "midi": 64,
      "hit": false,
      "t": 32385.12000000041,
      "d": 85.22400000000198,
      "v": 80
    },
    {
      "midi": 28,
      "hit": false,
      "t": 32385.12000000041,
      "d": 94.69333333333634,
      "v": 127
    },
    {
      "midi": 42,
      "hit": false,
      "t": 32394.589333333744,
      "d": 94.69333333333634,
      "v": 78
    },
    {
      "midi": 40,
      "hit": false,
      "t": 32489.28266666708,
      "d": 9.469333333334362,
      "v": 100
    },
    {
      "midi": 40,
      "hit": false,
      "t": 32498.752000000415,
      "d": 85.22400000000198,
      "v": 115
    },
    {
      "midi": 47,
      "hit": false,
      "t": 32498.752000000415,
      "d": 85.22400000000198,
      "v": 115
    },
    {
      "midi": 68,
      "hit": false,
      "t": 32498.752000000415,
      "d": 85.22400000000198,
      "v": 80
    },
    {
      "midi": 28,
      "hit": false,
      "t": 32498.752000000415,
      "d": 94.69333333333634,
      "v": 127
    },
    {
      "midi": 127,
      "hit": false,
      "t": 32498.752000000415,
      "d": 94.69333333333634,
      "v": 60
    },
    {
      "midi": 108,
      "hit": false,
      "t": 32498.752000000415,
      "d": 94.69333333333634,
      "v": 80
    },
    {
      "midi": 105,
      "hit": false,
      "t": 32498.752000000415,
      "d": 94.69333333333634,
      "v": 100
    },
    {
      "midi": 56,
      "hit": false,
      "t": 32508.22133333375,
      "d": 85.22400000000198,
      "v": 115
    },
    {
      "midi": 59,
      "hit": false,
      "t": 32508.22133333375,
      "d": 85.22400000000198,
      "v": 115
    },
    {
      "midi": 64,
      "hit": false,
      "t": 32517.690666667084,
      "d": 85.22400000000198,
      "v": 115
    },
    {
      "midi": 46,
      "hit": false,
      "t": 32517.690666667084,
      "d": 94.69333333333634,
      "v": 92
    },
    {
      "midi": 64,
      "hit": false,
      "t": 32602.914666667086,
      "d": 9.469333333334362,
      "v": 100
    },
    {
      "midi": 64,
      "hit": false,
      "t": 32612.38400000042,
      "d": 85.22400000000198,
      "v": 115
    },
    {
      "midi": 59,
      "hit": false,
      "t": 32612.38400000042,
      "d": 85.22400000000198,
      "v": 115
    },
    {
      "midi": 71,
      "hit": false,
      "t": 32612.38400000042,
      "d": 85.22400000000198,
      "v": 80
    },
    {
      "midi": 127,
      "hit": false,
      "t": 32612.38400000042,
      "d": 94.69333333333634,
      "v": 60
    },
    {
      "midi": 108,
      "hit": false,
      "t": 32612.38400000042,
      "d": 94.69333333333634,
      "v": 80
    },
    {
      "midi": 105,
      "hit": false,
      "t": 32612.38400000042,
      "d": 94.69333333333634,
      "v": 100
    },
    {
      "midi": 56,
      "hit": false,
      "t": 32621.853333333755,
      "d": 85.22400000000198,
      "v": 115
    },
    {
      "midi": 47,
      "hit": false,
      "t": 32621.853333333755,
      "d": 85.22400000000198,
      "v": 115
    },
    {
      "midi": 40,
      "hit": false,
      "t": 32631.32266666709,
      "d": 85.22400000000198,
      "v": 115
    },
    {
      "midi": 40,
      "hit": false,
      "t": 32716.54666666709,
      "d": 9.469333333334362,
      "v": 100
    },
    {
      "midi": 28,
      "hit": false,
      "t": 32726.016000000425,
      "d": 94.69333333333634,
      "v": 127
    },
    {
      "midi": 15,
      "hit": false,
      "t": 32726.016000000425,
      "d": 94.69333333333634,
      "v": 100
    },
    {
      "midi": 13,
      "hit": false,
      "t": 32726.016000000425,
      "d": 94.69333333333634,
      "v": 100
    },
    {
      "midi": 10,
      "hit": false,
      "t": 32726.016000000425,
      "d": 94.69333333333634,
      "v": 127
    },
    {
      "midi": 127,
      "hit": false,
      "t": 32726.016000000425,
      "d": 94.69333333333634,
      "v": 60
    },
    {
      "midi": 108,
      "hit": false,
      "t": 32726.016000000425,
      "d": 94.69333333333634,
      "v": 80
    },
    {
      "midi": 105,
      "hit": false,
      "t": 32726.016000000425,
      "d": 94.69333333333634,
      "v": 100
    },
    {
      "midi": 42,
      "hit": false,
      "t": 32726.016000000425,
      "d": 94.69333333333634,
      "v": 92
    },
    {
      "midi": 71,
      "hit": false,
      "t": 32726.016000000425,
      "d": 94.69333333333634,
      "v": 70
    },
    {
      "midi": 40,
      "hit": false,
      "t": 32726.016000000425,
      "d": 416.6506666666828,
      "v": 115
    },
    {
      "midi": 47,
      "hit": false,
      "t": 32726.016000000425,
      "d": 416.6506666666828,
      "v": 115
    },
    {
      "midi": 68,
      "hit": false,
      "t": 32735.48533333376,
      "d": 75.75466666666762,
      "v": 70
    },
    {
      "midi": 56,
      "hit": false,
      "t": 32735.48533333376,
      "d": 416.6506666666828,
      "v": 115
    },
    {
      "midi": 59,
      "hit": false,
      "t": 32735.48533333376,
      "d": 416.6506666666828,
      "v": 115
    },
    {
      "midi": 64,
      "hit": false,
      "t": 32744.954666667094,
      "d": 94.69333333333634,
      "v": 115
    },
    {
      "midi": 28,
      "hit": false,
      "t": 32839.64800000043,
      "d": 94.69333333333634,
      "v": 127
    },
    {
      "midi": 127,
      "hit": false,
      "t": 32839.64800000043,
      "d": 94.69333333333634,
      "v": 60
    },
    {
      "midi": 108,
      "hit": false,
      "t": 32839.64800000043,
      "d": 94.69333333333634,
      "v": 80
    },
    {
      "midi": 105,
      "hit": false,
      "t": 32839.64800000043,
      "d": 94.69333333333634,
      "v": 100
    },
    {
      "midi": 64,
      "hit": false,
      "t": 32839.64800000043,
      "d": 94.69333333333634,
      "v": 70
    },
    {
      "midi": 42,
      "hit": false,
      "t": 32849.117333333765,
      "d": 94.69333333333634,
      "v": 78
    },
    {
      "midi": 68,
      "hit": false,
      "t": 32849.117333333765,
      "d": 94.69333333333634,
      "v": 70
    },
    {
      "midi": 71,
      "hit": false,
      "t": 32858.5866666671,
      "d": 66.28533333333326,
      "v": 70
    },
    {
      "midi": 71,
      "hit": false,
      "t": 32953.280000000435,
      "d": 9.469333333334362,
      "v": 60
    },
    {
      "midi": 68,
      "hit": false,
      "t": 32953.280000000435,
      "d": 9.469333333334362,
      "v": 60
    },
    {
      "midi": 64,
      "hit": false,
      "t": 32953.280000000435,
      "d": 9.469333333334362,
      "v": 60
    },
    {
      "midi": 76,
      "hit": false,
      "t": 32953.280000000435,
      "d": 85.22400000000198,
      "v": 80
    },
    {
      "midi": 28,
      "hit": false,
      "t": 32953.280000000435,
      "d": 94.69333333333634,
      "v": 127
    },
    {
      "midi": 127,
      "hit": false,
      "t": 32953.280000000435,
      "d": 94.69333333333634,
      "v": 60
    },
    {
      "midi": 108,
      "hit": false,
      "t": 32953.280000000435,
      "d": 94.69333333333634,
      "v": 80
    },
    {
      "midi": 105,
      "hit": false,
      "t": 32953.280000000435,
      "d": 94.69333333333634,
      "v": 100
    },
    {
      "midi": 46,
      "hit": false,
      "t": 32972.218666667104,
      "d": 94.69333333333634,
      "v": 92
    },
    {
      "midi": 80,
      "hit": false,
      "t": 33066.91200000044,
      "d": 85.22400000000198,
      "v": 80
    },
    {
      "midi": 64,
      "hit": false,
      "t": 33066.91200000044,
      "d": 94.69333333333634,
      "v": 70
    },
    {
      "midi": 28,
      "hit": false,
      "t": 33066.91200000044,
      "d": 94.69333333333634,
      "v": 127
    },
    {
      "midi": 127,
      "hit": false,
      "t": 33066.91200000044,
      "d": 94.69333333333634,
      "v": 60
    },
    {
      "midi": 108,
      "hit": false,
      "t": 33066.91200000044,
      "d": 94.69333333333634,
      "v": 80
    },
    {
      "midi": 105,
      "hit": false,
      "t": 33066.91200000044,
      "d": 94.69333333333634,
      "v": 100
    },
    {
      "midi": 68,
      "hit": false,
      "t": 33076.381333333775,
      "d": 94.69333333333634,
      "v": 70
    },
    {
      "midi": 71,
      "hit": false,
      "t": 33085.85066666711,
      "d": 94.69333333333634,
      "v": 70
    },
    {
      "midi": 83,
      "hit": false,
      "t": 33180.544000000446,
      "d": 85.22400000000198,
      "v": 80
    },
    {
      "midi": 28,
      "hit": false,
      "t": 33180.544000000446,
      "d": 94.69333333333634,
      "v": 127
    },
    {
      "midi": 15,
      "hit": false,
      "t": 33180.544000000446,
      "d": 94.69333333333634,
      "v": 100
    },
    {
      "midi": 13,
      "hit": false,
      "t": 33180.544000000446,
      "d": 94.69333333333634,
      "v": 100
    },
    {
      "midi": 10,
      "hit": false,
      "t": 33180.544000000446,
      "d": 94.69333333333634,
      "v": 127
    },
    {
      "midi": 127,
      "hit": false,
      "t": 33180.544000000446,
      "d": 94.69333333333634,
      "v": 60
    },
    {
      "midi": 108,
      "hit": false,
      "t": 33180.544000000446,
      "d": 94.69333333333634,
      "v": 80
    },
    {
      "midi": 105,
      "hit": false,
      "t": 33180.544000000446,
      "d": 94.69333333333634,
      "v": 100
    },
    {
      "midi": 42,
      "hit": false,
      "t": 33180.544000000446,
      "d": 94.69333333333634,
      "v": 92
    },
    {
      "midi": 71,
      "hit": false,
      "t": 33180.544000000446,
      "d": 94.69333333333634,
      "v": 70
    },
    {
      "midi": 63,
      "hit": false,
      "t": 33180.544000000446,
      "d": 94.69333333333634,
      "v": 70
    },
    {
      "midi": 59,
      "hit": false,
      "t": 33180.544000000446,
      "d": 198.85600000000704,
      "v": 115
    },
    {
      "midi": 57,
      "hit": false,
      "t": 33180.544000000446,
      "d": 208.3253333333414,
      "v": 110
    },
    {
      "midi": 77,
      "hit": false,
      "t": 33180.544000000446,
      "d": 227.26400000001013,
      "v": 127
    },
    {
      "midi": 74,
      "hit": false,
      "t": 33180.544000000446,
      "d": 227.26400000001013,
      "v": 127
    },
    {
      "midi": 68,
      "hit": false,
      "t": 33190.01333333378,
      "d": 94.69333333333634,
      "v": 70
    },
    {
      "midi": 47,
      "hit": false,
      "t": 33190.01333333378,
      "d": 198.85600000000704,
      "v": 115
    },
    {
      "midi": 56,
      "hit": false,
      "t": 33190.01333333378,
      "d": 208.3253333333414,
      "v": 115
    },
    {
      "midi": 64,
      "hit": false,
      "t": 33199.482666667114,
      "d": 94.69333333333634,
      "v": 70
    },
    {
      "midi": 40,
      "hit": false,
      "t": 33199.482666667114,
      "d": 198.85600000000704,
      "v": 115
    },
    {
      "midi": 64,
      "hit": false,
      "t": 33294.17600000045,
      "d": 9.469333333334362,
      "v": 60
    },
    {
      "midi": 68,
      "hit": false,
      "t": 33294.17600000045,
      "d": 9.469333333334362,
      "v": 60
    },
    {
      "midi": 71,
      "hit": false,
      "t": 33294.17600000045,
      "d": 9.469333333334362,
      "v": 60
    },
    {
      "midi": 88,
      "hit": false,
      "t": 33294.17600000045,
      "d": 85.22400000000198,
      "v": 80
    },
    {
      "midi": 42,
      "hit": false,
      "t": 33303.645333333785,
      "d": 94.69333333333634,
      "v": 78
    },
    {
      "midi": 40,
      "hit": false,
      "t": 33398.33866666712,
      "d": 9.469333333334362,
      "v": 100
    },
    {
      "midi": 40,
      "hit": false,
      "t": 33407.808000000456,
      "d": 85.22400000000198,
      "v": 115
    },
    {
      "midi": 47,
      "hit": false,
      "t": 33407.808000000456,
      "d": 85.22400000000198,
      "v": 115
    },
    {
      "midi": 83,
      "hit": false,
      "t": 33407.808000000456,
      "d": 85.22400000000198,
      "v": 80
    },
    {
      "midi": 127,
      "hit": false,
      "t": 33407.808000000456,
      "d": 94.69333333333634,
      "v": 60
    },
    {
      "midi": 108,
      "hit": false,
      "t": 33407.808000000456,
      "d": 94.69333333333634,
      "v": 80
    },
    {
      "midi": 105,
      "hit": false,
      "t": 33407.808000000456,
      "d": 94.69333333333634,
      "v": 100
    },
    {
      "midi": 71,
      "hit": false,
      "t": 33407.808000000456,
      "d": 94.69333333333634,
      "v": 70
    },
    {
      "midi": 28,
      "hit": false,
      "t": 33407.808000000456,
      "d": 208.3253333333414,
      "v": 127
    },
    {
      "midi": 76,
      "hit": false,
      "t": 33407.808000000456,
      "d": 227.26400000001013,
      "v": 127
    },
    {
      "midi": 72,
      "hit": false,
      "t": 33407.808000000456,
      "d": 227.26400000001013,
      "v": 127
    },
    {
      "midi": 56,
      "hit": false,
      "t": 33417.27733333379,
      "d": 85.22400000000198,
      "v": 115
    },
    {
      "midi": 59,
      "hit": false,
      "t": 33417.27733333379,
      "d": 85.22400000000198,
      "v": 115
    },
    {
      "midi": 68,
      "hit": false,
      "t": 33417.27733333379,
      "d": 94.69333333333634,
      "v": 70
    },
    {
      "midi": 64,
      "hit": false,
      "t": 33426.746666667124,
      "d": 85.22400000000198,
      "v": 115
    },
    {
      "midi": 46,
      "hit": false,
      "t": 33426.746666667124,
      "d": 94.69333333333634,
      "v": 92
    },
    {
      "midi": 64,
      "hit": false,
      "t": 33511.970666667126,
      "d": 9.469333333334362,
      "v": 90
    },
    {
      "midi": 64,
      "hit": false,
      "t": 33521.44000000046,
      "d": 85.22400000000198,
      "v": 115
    },
    {
      "midi": 59,
      "hit": false,
      "t": 33521.44000000046,
      "d": 85.22400000000198,
      "v": 115
    },
    {
      "midi": 80,
      "hit": false,
      "t": 33521.44000000046,
      "d": 85.22400000000198,
      "v": 80
    },
    {
      "midi": 127,
      "hit": false,
      "t": 33521.44000000046,
      "d": 94.69333333333634,
      "v": 60
    },
    {
      "midi": 108,
      "hit": false,
      "t": 33521.44000000046,
      "d": 94.69333333333634,
      "v": 80
    },
    {
      "midi": 105,
      "hit": false,
      "t": 33521.44000000046,
      "d": 94.69333333333634,
      "v": 100
    },
    {
      "midi": 56,
      "hit": false,
      "t": 33530.909333333795,
      "d": 85.22400000000198,
      "v": 115
    },
    {
      "midi": 47,
      "hit": false,
      "t": 33530.909333333795,
      "d": 85.22400000000198,
      "v": 115
    },
    {
      "midi": 68,
      "hit": false,
      "t": 33530.909333333795,
      "d": 94.69333333333634,
      "v": 70
    },
    {
      "midi": 40,
      "hit": false,
      "t": 33540.37866666713,
      "d": 85.22400000000198,
      "v": 115
    },
    {
      "midi": 71,
      "hit": false,
      "t": 33540.37866666713,
      "d": 94.69333333333634,
      "v": 70
    },
    {
      "midi": 40,
      "hit": false,
      "t": 33625.60266666713,
      "d": 9.469333333334362,
      "v": 100
    },
    {
      "midi": 40,
      "hit": false,
      "t": 33635.072000000466,
      "d": 85.22400000000198,
      "v": 115
    },
    {
      "midi": 47,
      "hit": false,
      "t": 33635.072000000466,
      "d": 85.22400000000198,
      "v": 115
    },
    {
      "midi": 76,
      "hit": false,
      "t": 33635.072000000466,
      "d": 85.22400000000198,
      "v": 80
    },
    {
      "midi": 28,
      "hit": false,
      "t": 33635.072000000466,
      "d": 94.69333333333634,
      "v": 127
    },
    {
      "midi": 15,
      "hit": false,
      "t": 33635.072000000466,
      "d": 94.69333333333634,
      "v": 100
    },
    {
      "midi": 13,
      "hit": false,
      "t": 33635.072000000466,
      "d": 94.69333333333634,
      "v": 100
    },
    {
      "midi": 10,
      "hit": false,
      "t": 33635.072000000466,
      "d": 94.69333333333634,
      "v": 127
    },
    {
      "midi": 127,
      "hit": false,
      "t": 33635.072000000466,
      "d": 94.69333333333634,
      "v": 60
    },
    {
      "midi": 108,
      "hit": false,
      "t": 33635.072000000466,
      "d": 94.69333333333634,
      "v": 80
    },
    {
      "midi": 105,
      "hit": false,
      "t": 33635.072000000466,
      "d": 94.69333333333634,
      "v": 100
    },
    {
      "midi": 42,
      "hit": false,
      "t": 33635.072000000466,
      "d": 94.69333333333634,
      "v": 92
    },
    {
      "midi": 74,
      "hit": false,
      "t": 33635.072000000466,
      "d": 303.01866666667775,
      "v": 127
    },
    {
      "midi": 56,
      "hit": false,
      "t": 33644.5413333338,
      "d": 85.22400000000198,
      "v": 115
    },
    {
      "midi": 59,
      "hit": false,
      "t": 33644.5413333338,
      "d": 85.22400000000198,
      "v": 115
    },
    {
      "midi": 64,
      "hit": false,
      "t": 33654.010666667135,
      "d": 85.22400000000198,
      "v": 115
    },
    {
      "midi": 64,
      "hit": false,
      "t": 33739.23466666714,
      "d": 9.469333333334362,
      "v": 90
    },
    {
      "midi": 64,
      "hit": false,
      "t": 33748.70400000047,
      "d": 85.22400000000198,
      "v": 115
    },
    {
      "midi": 59,
      "hit": false,
      "t": 33748.70400000047,
      "d": 85.22400000000198,
      "v": 115
    },
    {
      "midi": 71,
      "hit": false,
      "t": 33748.70400000047,
      "d": 85.22400000000198,
      "v": 80
    },
    {
      "midi": 127,
      "hit": false,
      "t": 33748.70400000047,
      "d": 94.69333333333634,
      "v": 60
    },
    {
      "midi": 108,
      "hit": false,
      "t": 33748.70400000047,
      "d": 94.69333333333634,
      "v": 80
    },
    {
      "midi": 105,
      "hit": false,
      "t": 33748.70400000047,
      "d": 94.69333333333634,
      "v": 100
    },
    {
      "midi": 56,
      "hit": false,
      "t": 33758.173333333805,
      "d": 85.22400000000198,
      "v": 115
    },
    {
      "midi": 47,
      "hit": false,
      "t": 33758.173333333805,
      "d": 85.22400000000198,
      "v": 115
    },
    {
      "midi": 42,
      "hit": false,
      "t": 33758.173333333805,
      "d": 94.69333333333634,
      "v": 78
    },
    {
      "midi": 40,
      "hit": false,
      "t": 33767.64266666714,
      "d": 85.22400000000198,
      "v": 115
    },
    {
      "midi": 40,
      "hit": false,
      "t": 33852.86666666714,
      "d": 9.469333333334362,
      "v": 100
    },
    {
      "midi": 40,
      "hit": false,
      "t": 33862.336000000476,
      "d": 85.22400000000198,
      "v": 115
    },
    {
      "midi": 47,
      "hit": false,
      "t": 33862.336000000476,
      "d": 85.22400000000198,
      "v": 115
    },
    {
      "midi": 68,
      "hit": false,
      "t": 33862.336000000476,
      "d": 85.22400000000198,
      "v": 80
    },
    {
      "midi": 127,
      "hit": false,
      "t": 33862.336000000476,
      "d": 94.69333333333634,
      "v": 60
    },
    {
      "midi": 108,
      "hit": false,
      "t": 33862.336000000476,
      "d": 94.69333333333634,
      "v": 80
    },
    {
      "midi": 105,
      "hit": false,
      "t": 33862.336000000476,
      "d": 94.69333333333634,
      "v": 100
    },
    {
      "midi": 28,
      "hit": false,
      "t": 33862.336000000476,
      "d": 208.3253333333414,
      "v": 127
    },
    {
      "midi": 56,
      "hit": false,
      "t": 33871.80533333381,
      "d": 85.22400000000198,
      "v": 115
    },
    {
      "midi": 59,
      "hit": false,
      "t": 33871.80533333381,
      "d": 85.22400000000198,
      "v": 115
    },
    {
      "midi": 64,
      "hit": false,
      "t": 33881.274666667145,
      "d": 85.22400000000198,
      "v": 115
    },
    {
      "midi": 46,
      "hit": false,
      "t": 33881.274666667145,
      "d": 94.69333333333634,
      "v": 92
    },
    {
      "midi": 64,
      "hit": false,
      "t": 33966.49866666715,
      "d": 9.469333333334362,
      "v": 90
    },
    {
      "midi": 64,
      "hit": false,
      "t": 33975.96800000048,
      "d": 85.22400000000198,
      "v": 115
    },
    {
      "midi": 59,
      "hit": false,
      "t": 33975.96800000048,
      "d": 85.22400000000198,
      "v": 115
    },
    {
      "midi": 63,
      "hit": false,
      "t": 33975.96800000048,
      "d": 94.69333333333634,
      "v": 80
    },
    {
      "midi": 72,
      "hit": false,
      "t": 33975.96800000048,
      "d": 303.01866666667775,
      "v": 127
    },
    {
      "midi": 69,
      "hit": false,
      "t": 33975.96800000048,
      "d": 303.01866666667775,
      "v": 127
    },
    {
      "midi": 56,
      "hit": false,
      "t": 33985.437333333815,
      "d": 85.22400000000198,
      "v": 115
    },
    {
      "midi": 47,
      "hit": false,
      "t": 33985.437333333815,
      "d": 85.22400000000198,
      "v": 115
    },
    {
      "midi": 40,
      "hit": false,
      "t": 33994.90666666715,
      "d": 85.22400000000198,
      "v": 115
    },
    {
      "midi": 40,
      "hit": false,
      "t": 34080.13066666715,
      "d": 9.469333333334362,
      "v": 100
    },
    {
      "midi": 40,
      "hit": false,
      "t": 34089.600000000486,
      "d": 85.22400000000198,
      "v": 115
    },
    {
      "midi": 47,
      "hit": false,
      "t": 34089.600000000486,
      "d": 85.22400000000198,
      "v": 115
    },
    {
      "midi": 28,
      "hit": false,
      "t": 34089.600000000486,
      "d": 94.69333333333634,
      "v": 127
    },
    {
      "midi": 15,
      "hit": false,
      "t": 34089.600000000486,
      "d": 94.69333333333634,
      "v": 100
    },
    {
      "midi": 13,
      "hit": false,
      "t": 34089.600000000486,
      "d": 94.69333333333634,
      "v": 100
    },
    {
      "midi": 10,
      "hit": false,
      "t": 34089.600000000486,
      "d": 94.69333333333634,
      "v": 127
    },
    {
      "midi": 127,
      "hit": false,
      "t": 34089.600000000486,
      "d": 94.69333333333634,
      "v": 60
    },
    {
      "midi": 108,
      "hit": false,
      "t": 34089.600000000486,
      "d": 94.69333333333634,
      "v": 80
    },
    {
      "midi": 105,
      "hit": false,
      "t": 34089.600000000486,
      "d": 94.69333333333634,
      "v": 100
    },
    {
      "midi": 42,
      "hit": false,
      "t": 34089.600000000486,
      "d": 94.69333333333634,
      "v": 92
    },
    {
      "midi": 59,
      "hit": false,
      "t": 34099.06933333382,
      "d": 75.75466666666762,
      "v": 115
    },
    {
      "midi": 56,
      "hit": false,
      "t": 34099.06933333382,
      "d": 85.22400000000198,
      "v": 115
    },
    {
      "midi": 64,
      "hit": false,
      "t": 34108.538666667155,
      "d": 75.75466666666762,
      "v": 115
    },
    {
      "midi": 64,
      "hit": false,
      "t": 34193.76266666716,
      "d": 9.469333333334362,
      "v": 100
    },
    {
      "midi": 64,
      "hit": false,
      "t": 34203.23200000049,
      "d": 85.22400000000198,
      "v": 115
    },
    {
      "midi": 28,
      "hit": false,
      "t": 34203.23200000049,
      "d": 94.69333333333634,
      "v": 127
    },
    {
      "midi": 127,
      "hit": false,
      "t": 34203.23200000049,
      "d": 94.69333333333634,
      "v": 60
    },
    {
      "midi": 108,
      "hit": false,
      "t": 34203.23200000049,
      "d": 94.69333333333634,
      "v": 80
    },
    {
      "midi": 105,
      "hit": false,
      "t": 34203.23200000049,
      "d": 94.69333333333634,
      "v": 100
    },
    {
      "midi": 59,
      "hit": false,
      "t": 34203.23200000049,
      "d": 293.5493333333434,
      "v": 115
    },
    {
      "midi": 42,
      "hit": false,
      "t": 34212.701333333825,
      "d": 94.69333333333634,
      "v": 78
    },
    {
      "midi": 56,
      "hit": false,
      "t": 34212.701333333825,
      "d": 293.5493333333434,
      "v": 115
    },
    {
      "midi": 47,
      "hit": false,
      "t": 34212.701333333825,
      "d": 293.5493333333434,
      "v": 115
    },
    {
      "midi": 40,
      "hit": false,
      "t": 34222.17066666716,
      "d": 293.5493333333434,
      "v": 115
    },
    {
      "midi": 68,
      "hit": false,
      "t": 34316.864000000496,
      "d": 85.22400000000198,
      "v": 127
    },
    {
      "midi": 28,
      "hit": false,
      "t": 34316.864000000496,
      "d": 94.69333333333634,
      "v": 127
    },
    {
      "midi": 15,
      "hit": false,
      "t": 34316.864000000496,
      "d": 94.69333333333634,
      "v": 100
    },
    {
      "midi": 13,
      "hit": false,
      "t": 34316.864000000496,
      "d": 94.69333333333634,
      "v": 100
    },
    {
      "midi": 10,
      "hit": false,
      "t": 34316.864000000496,
      "d": 94.69333333333634,
      "v": 127
    },
    {
      "midi": 127,
      "hit": false,
      "t": 34316.864000000496,
      "d": 94.69333333333634,
      "v": 60
    },
    {
      "midi": 108,
      "hit": false,
      "t": 34316.864000000496,
      "d": 94.69333333333634,
      "v": 80
    },
    {
      "midi": 105,
      "hit": false,
      "t": 34316.864000000496,
      "d": 94.69333333333634,
      "v": 100
    },
    {
      "midi": 46,
      "hit": false,
      "t": 34335.802666667165,
      "d": 94.69333333333634,
      "v": 92
    },
    {
      "midi": 71,
      "hit": false,
      "t": 34430.4960000005,
      "d": 85.22400000000198,
      "v": 80
    },
    {
      "midi": 69,
      "hit": false,
      "t": 34544.128000000506,
      "d": 85.22400000000198,
      "v": 95
    },
    {
      "midi": 33,
      "hit": false,
      "t": 34544.128000000506,
      "d": 94.69333333333634,
      "v": 127
    },
    {
      "midi": 15,
      "hit": false,
      "t": 34544.128000000506,
      "d": 94.69333333333634,
      "v": 100
    },
    {
      "midi": 13,
      "hit": false,
      "t": 34544.128000000506,
      "d": 94.69333333333634,
      "v": 100
    },
    {
      "midi": 10,
      "hit": false,
      "t": 34544.128000000506,
      "d": 94.69333333333634,
      "v": 127
    },
    {
      "midi": 42,
      "hit": false,
      "t": 34544.128000000506,
      "d": 94.69333333333634,
      "v": 92
    },
    {
      "midi": 57,
      "hit": false,
      "t": 34544.128000000506,
      "d": 426.12000000002445,
      "v": 80
    },
    {
      "midi": 52,
      "hit": false,
      "t": 34553.59733333384,
      "d": 9.469333333334362,
      "v": 95
    },
    {
      "midi": 64,
      "hit": false,
      "t": 34553.59733333384,
      "d": 94.69333333333634,
      "v": 70
    },
    {
      "midi": 60,
      "hit": false,
      "t": 34563.066666667175,
      "d": 94.69333333333634,
      "v": 70
    },
    {
      "midi": 45,
      "hit": false,
      "t": 34563.066666667175,
      "d": 416.6506666666901,
      "v": 95
    },
    {
      "midi": 52,
      "hit": false,
      "t": 34648.29066666718,
      "d": 28.408000000003085,
      "v": 85
    },
    {
      "midi": 72,
      "hit": false,
      "t": 34657.76000000051,
      "d": 85.22400000000198,
      "v": 80
    },
    {
      "midi": 33,
      "hit": false,
      "t": 34657.76000000051,
      "d": 94.69333333333634,
      "v": 127
    },
    {
      "midi": 60,
      "hit": false,
      "t": 34657.76000000051,
      "d": 94.69333333333634,
      "v": 70
    },
    {
      "midi": 42,
      "hit": false,
      "t": 34667.229333333846,
      "d": 94.69333333333634,
      "v": 78
    },
    {
      "midi": 64,
      "hit": false,
      "t": 34667.229333333846,
      "d": 94.69333333333634,
      "v": 70
    },
    {
      "midi": 69,
      "hit": false,
      "t": 34676.69866666718,
      "d": 94.69333333333634,
      "v": 70
    },
    {
      "midi": 69,
      "hit": false,
      "t": 34771.39200000052,
      "d": 47.34666666667181,
      "v": 70
    },
    {
      "midi": 76,
      "hit": false,
      "t": 34771.39200000052,
      "d": 85.22400000000926,
      "v": 80
    },
    {
      "midi": 33,
      "hit": false,
      "t": 34771.39200000052,
      "d": 94.69333333334362,
      "v": 127
    },
    {
      "midi": 64,
      "hit": false,
      "t": 34780.86133333385,
      "d": 47.34666666667181,
      "v": 70
    },
    {
      "midi": 60,
      "hit": false,
      "t": 34790.330666667185,
      "d": 47.34666666667181,
      "v": 70
    },
    {
      "midi": 46,
      "hit": false,
      "t": 34790.330666667185,
      "d": 94.69333333334362,
      "v": 92
    },
    {
      "midi": 52,
      "hit": false,
      "t": 34875.554666667194,
      "d": 28.408000000003085,
      "v": 85
    },
    {
      "midi": 60,
      "hit": false,
      "t": 34885.02400000053,
      "d": 75.75466666666762,
      "v": 70
    },
    {
      "midi": 81,
      "hit": false,
      "t": 34885.02400000053,
      "d": 85.22400000000198,
      "v": 80
    },
    {
      "midi": 33,
      "hit": false,
      "t": 34885.02400000053,
      "d": 94.69333333333634,
      "v": 127
    },
    {
      "midi": 64,
      "hit": false,
      "t": 34894.49333333386,
      "d": 66.28533333333326,
      "v": 70
    },
    {
      "midi": 69,
      "hit": false,
      "t": 34903.9626666672,
      "d": 66.28533333333326,
      "v": 70
    },
    {
      "midi": 52,
      "hit": false,
      "t": 34998.656000000534,
      "d": 18.938666666668723,
      "v": 115
    },
    {
      "midi": 84,
      "hit": false,
      "t": 34998.656000000534,
      "d": 85.22400000000198,
      "v": 80
    },
    {
      "midi": 33,
      "hit": false,
      "t": 34998.656000000534,
      "d": 94.69333333333634,
      "v": 127
    },
    {
      "midi": 15,
      "hit": false,
      "t": 34998.656000000534,
      "d": 94.69333333333634,
      "v": 100
    },
    {
      "midi": 13,
      "hit": false,
      "t": 34998.656000000534,
      "d": 94.69333333333634,
      "v": 100
    },
    {
      "midi": 10,
      "hit": false,
      "t": 34998.656000000534,
      "d": 94.69333333333634,
      "v": 127
    },
    {
      "midi": 127,
      "hit": false,
      "t": 34998.656000000534,
      "d": 94.69333333333634,
      "v": 60
    },
    {
      "midi": 108,
      "hit": false,
      "t": 34998.656000000534,
      "d": 94.69333333333634,
      "v": 80
    },
    {
      "midi": 105,
      "hit": false,
      "t": 34998.656000000534,
      "d": 94.69333333333634,
      "v": 100
    },
    {
      "midi": 42,
      "hit": false,
      "t": 34998.656000000534,
      "d": 94.69333333333634,
      "v": 92
    },
    {
      "midi": 118,
      "hit": false,
      "t": 34998.656000000534,
      "d": 94.69333333333634,
      "v": 50
    },
    {
      "midi": 63,
      "hit": false,
      "t": 34998.656000000534,
      "d": 94.69333333333634,
      "v": 70
    },
    {
      "midi": 57,
      "hit": false,
      "t": 34998.656000000534,
      "d": 208.3253333333414,
      "v": 100
    },
    {
      "midi": 64,
      "hit": false,
      "t": 35008.12533333387,
      "d": 94.69333333333634,
      "v": 115
    },
    {
      "midi": 45,
      "hit": false,
      "t": 35008.12533333387,
      "d": 198.85600000000704,
      "v": 100
    },
    {
      "midi": 69,
      "hit": false,
      "t": 35017.5946666672,
      "d": 75.75466666666762,
      "v": 115
    },
    {
      "midi": 60,
      "hit": false,
      "t": 35017.5946666672,
      "d": 94.69333333333634,
      "v": 70
    },
    {
      "midi": 88,
      "hit": false,
      "t": 35112.28800000054,
      "d": 85.22400000000198,
      "v": 80
    },
    {
      "midi": 42,
      "hit": false,
      "t": 35121.75733333387,
      "d": 94.69333333333634,
      "v": 78
    },
    {
      "midi": 57,
      "hit": false,
      "t": 35225.920000000544,
      "d": 75.75466666666762,
      "v": 80
    },
    {
      "midi": 93,
      "hit": false,
      "t": 35225.920000000544,
      "d": 85.22400000000198,
      "v": 80
    },
    {
      "midi": 33,
      "hit": false,
      "t": 35225.920000000544,
      "d": 94.69333333333634,
      "v": 127
    },
    {
      "midi": 69,
      "hit": false,
      "t": 35225.920000000544,
      "d": 94.69333333333634,
      "v": 95
    },
    {
      "midi": 52,
      "hit": false,
      "t": 35235.38933333388,
      "d": 9.469333333334362,
      "v": 95
    },
    {
      "midi": 64,
      "hit": false,
      "t": 35235.38933333388,
      "d": 75.75466666666762,
      "v": 70
    },
    {
      "midi": 45,
      "hit": false,
      "t": 35244.85866666721,
      "d": 47.34666666666453,
      "v": 95
    },
    {
      "midi": 60,
      "hit": false,
      "t": 35244.85866666721,
      "d": 56.815999999998894,
      "v": 70
    },
    {
      "midi": 46,
      "hit": false,
      "t": 35244.85866666721,
      "d": 94.69333333333634,
      "v": 92
    },
    {
      "midi": 60,
      "hit": false,
      "t": 35330.082666667215,
      "d": 9.469333333334362,
      "v": 100
    },
    {
      "midi": 52,
      "hit": false,
      "t": 35339.55200000055,
      "d": 18.938666666668723,
      "v": 115
    },
    {
      "midi": 57,
      "hit": false,
      "t": 35339.55200000055,
      "d": 47.34666666667181,
      "v": 100
    },
    {
      "midi": 88,
      "hit": false,
      "t": 35339.55200000055,
      "d": 85.22400000000926,
      "v": 80
    },
    {
      "midi": 33,
      "hit": false,
      "t": 35339.55200000055,
      "d": 94.69333333334362,
      "v": 127
    },
    {
      "midi": 118,
      "hit": false,
      "t": 35339.55200000055,
      "d": 94.69333333334362,
      "v": 50
    },
    {
      "midi": 64,
      "hit": false,
      "t": 35349.02133333388,
      "d": 28.408000000003085,
      "v": 115
    },
    {
      "midi": 60,
      "hit": false,
      "t": 35349.02133333388,
      "d": 28.408000000003085,
      "v": 115
    },
    {
      "midi": 45,
      "hit": false,
      "t": 35349.02133333388,
      "d": 47.34666666667181,
      "v": 100
    },
    {
      "midi": 69,
      "hit": false,
      "t": 35358.49066666722,
      "d": 94.69333333334362,
      "v": 115
    },
    {
      "midi": 45,
      "hit": false,
      "t": 35443.71466666723,
      "d": 18.938666666668723,
      "v": 105
    },
    {
      "midi": 52,
      "hit": false,
      "t": 35443.71466666723,
      "d": 18.938666666668723,
      "v": 105
    },
    {
      "midi": 57,
      "hit": false,
      "t": 35453.18400000056,
      "d": 18.938666666668723,
      "v": 105
    },
    {
      "midi": 60,
      "hit": false,
      "t": 35453.18400000056,
      "d": 18.938666666668723,
      "v": 105
    },
    {
      "midi": 84,
      "hit": false,
      "t": 35453.18400000056,
      "d": 85.22400000000198,
      "v": 80
    },
    {
      "midi": 33,
      "hit": false,
      "t": 35453.18400000056,
      "d": 94.69333333333634,
      "v": 127
    },
    {
      "midi": 15,
      "hit": false,
      "t": 35453.18400000056,
      "d": 94.69333333333634,
      "v": 100
    },
    {
      "midi": 13,
      "hit": false,
      "t": 35453.18400000056,
      "d": 94.69333333333634,
      "v": 100
    },
    {
      "midi": 10,
      "hit": false,
      "t": 35453.18400000056,
      "d": 94.69333333333634,
      "v": 127
    },
    {
      "midi": 42,
      "hit": false,
      "t": 35453.18400000056,
      "d": 94.69333333333634,
      "v": 92
    },
    {
      "midi": 64,
      "hit": false,
      "t": 35462.653333333896,
      "d": 18.938666666668723,
      "v": 105
    },
    {
      "midi": 60,
      "hit": false,
      "t": 35557.34666666723,
      "d": 18.938666666668723,
      "v": 90
    },
    {
      "midi": 64,
      "hit": false,
      "t": 35566.81600000057,
      "d": 9.469333333334362,
      "v": 95
    },
    {
      "midi": 57,
      "hit": false,
      "t": 35566.81600000057,
      "d": 18.938666666668723,
      "v": 90
    },
    {
      "midi": 81,
      "hit": false,
      "t": 35566.81600000057,
      "d": 85.22400000000198,
      "v": 80
    },
    {
      "midi": 69,
      "hit": false,
      "t": 35566.81600000057,
      "d": 94.69333333333634,
      "v": 95
    },
    {
      "midi": 118,
      "hit": false,
      "t": 35566.81600000057,
      "d": 94.69333333333634,
      "v": 50
    },
    {
      "midi": 52,
      "hit": false,
      "t": 35576.2853333339,
      "d": 9.469333333334362,
      "v": 95
    },
    {
      "midi": 42,
      "hit": false,
      "t": 35576.2853333339,
      "d": 94.69333333333634,
      "v": 78
    },
    {
      "midi": 60,
      "hit": false,
      "t": 35576.2853333339,
      "d": 94.69333333333634,
      "v": 95
    },
    {
      "midi": 45,
      "hit": false,
      "t": 35585.754666667235,
      "d": 9.469333333334362,
      "v": 95
    },
    {
      "midi": 45,
      "hit": false,
      "t": 35670.97866666724,
      "d": 9.469333333334362,
      "v": 90
    },
    {
      "midi": 76,
      "hit": false,
      "t": 35680.44800000057,
      "d": 85.22400000000198,
      "v": 80
    },
    {
      "midi": 118,
      "hit": false,
      "t": 35680.44800000057,
      "d": 94.69333333333634,
      "v": 30
    },
    {
      "midi": 45,
      "hit": false,
      "t": 35680.44800000057,
      "d": 198.85600000000704,
      "v": 95
    },
    {
      "midi": 52,
      "hit": false,
      "t": 35680.44800000057,
      "d": 198.85600000000704,
      "v": 95
    },
    {
      "midi": 33,
      "hit": false,
      "t": 35680.44800000057,
      "d": 208.3253333333414,
      "v": 127
    },
    {
      "midi": 57,
      "hit": false,
      "t": 35680.44800000057,
      "d": 208.3253333333414,
      "v": 90
    },
    {
      "midi": 64,
      "hit": false,
      "t": 35689.917333333906,
      "d": 198.85600000000704,
      "v": 95
    },
    {
      "midi": 60,
      "hit": false,
      "t": 35689.917333333906,
      "d": 198.85600000000704,
      "v": 95
    },
    {
      "midi": 46,
      "hit": false,
      "t": 35699.38666666724,
      "d": 94.69333333333634,
      "v": 92
    },
    {
      "midi": 69,
      "hit": false,
      "t": 35699.38666666724,
      "d": 208.3253333333414,
      "v": 95
    },
    {
      "midi": 72,
      "hit": false,
      "t": 35794.08000000058,
      "d": 85.22400000000198,
      "v": 80
    },
    {
      "midi": 63,
      "hit": false,
      "t": 35794.08000000058,
      "d": 94.69333333333634,
      "v": 80
    },
    {
      "midi": 69,
      "hit": false,
      "t": 35907.71200000058,
      "d": 85.22400000000198,
      "v": 115
    },
    {
      "midi": 33,
      "hit": false,
      "t": 35907.71200000058,
      "d": 94.69333333333634,
      "v": 127
    },
    {
      "midi": 15,
      "hit": false,
      "t": 35907.71200000058,
      "d": 94.69333333333634,
      "v": 100
    },
    {
      "midi": 13,
      "hit": false,
      "t": 35907.71200000058,
      "d": 94.69333333333634,
      "v": 100
    },
    {
      "midi": 10,
      "hit": false,
      "t": 35907.71200000058,
      "d": 94.69333333333634,
      "v": 127
    },
    {
      "midi": 127,
      "hit": false,
      "t": 35907.71200000058,
      "d": 94.69333333333634,
      "v": 60
    },
    {
      "midi": 108,
      "hit": false,
      "t": 35907.71200000058,
      "d": 94.69333333333634,
      "v": 80
    },
    {
      "midi": 105,
      "hit": false,
      "t": 35907.71200000058,
      "d": 94.69333333333634,
      "v": 100
    },
    {
      "midi": 42,
      "hit": false,
      "t": 35907.71200000058,
      "d": 94.69333333333634,
      "v": 92
    },
    {
      "midi": 118,
      "hit": false,
      "t": 35907.71200000058,
      "d": 94.69333333333634,
      "v": 50
    },
    {
      "midi": 64,
      "hit": false,
      "t": 35907.71200000058,
      "d": 94.69333333333634,
      "v": 70
    },
    {
      "midi": 62,
      "hit": false,
      "t": 35907.71200000058,
      "d": 208.3253333333414,
      "v": 127
    },
    {
      "midi": 57,
      "hit": false,
      "t": 35907.71200000058,
      "d": 208.3253333333414,
      "v": 100
    },
    {
      "midi": 60,
      "hit": false,
      "t": 35917.181333333916,
      "d": 189.38666666667268,
      "v": 115
    },
    {
      "midi": 52,
      "hit": false,
      "t": 35917.181333333916,
      "d": 198.85600000000704,
      "v": 115
    },
    {
      "midi": 45,
      "hit": false,
      "t": 35926.65066666725,
      "d": 198.85600000000704,
      "v": 115
    },
    {
      "midi": 72,
      "hit": false,
      "t": 36021.34400000059,
      "d": 85.22400000000198,
      "v": 80
    },
    {
      "midi": 33,
      "hit": false,
      "t": 36021.34400000059,
      "d": 94.69333333333634,
      "v": 127
    },
    {
      "midi": 42,
      "hit": false,
      "t": 36030.81333333392,
      "d": 94.69333333333634,
      "v": 78
    },
    {
      "midi": 45,
      "hit": false,
      "t": 36125.50666666726,
      "d": 9.469333333334362,
      "v": 80
    },
    {
      "midi": 52,
      "hit": false,
      "t": 36125.50666666726,
      "d": 94.69333333333634,
      "v": 80
    },
    {
      "midi": 76,
      "hit": false,
      "t": 36134.97600000059,
      "d": 85.22400000000198,
      "v": 80
    },
    {
      "midi": 33,
      "hit": false,
      "t": 36134.97600000059,
      "d": 94.69333333333634,
      "v": 127
    },
    {
      "midi": 57,
      "hit": false,
      "t": 36134.97600000059,
      "d": 94.69333333333634,
      "v": 80
    },
    {
      "midi": 60,
      "hit": false,
      "t": 36134.97600000059,
      "d": 94.69333333333634,
      "v": 80
    },
    {
      "midi": 118,
      "hit": false,
      "t": 36134.97600000059,
      "d": 94.69333333333634,
      "v": 50
    },
    {
      "midi": 64,
      "hit": false,
      "t": 36144.445333333926,
      "d": 94.69333333333634,
      "v": 80
    },
    {
      "midi": 46,
      "hit": false,
      "t": 36153.91466666726,
      "d": 94.69333333333634,
      "v": 92
    },
    {
      "midi": 64,
      "hit": false,
      "t": 36239.13866666726,
      "d": 94.69333333333634,
      "v": 90
    },
    {
      "midi": 60,
      "hit": false,
      "t": 36239.13866666726,
      "d": 94.69333333333634,
      "v": 90
    },
    {
      "midi": 81,
      "hit": false,
      "t": 36248.6080000006,
      "d": 85.22400000000198,
      "v": 80
    },
    {
      "midi": 57,
      "hit": false,
      "t": 36248.6080000006,
      "d": 94.69333333333634,
      "v": 90
    },
    {
      "midi": 52,
      "hit": false,
      "t": 36248.6080000006,
      "d": 94.69333333333634,
      "v": 90
    },
    {
      "midi": 118,
      "hit": false,
      "t": 36248.6080000006,
      "d": 94.69333333333634,
      "v": 30
    },
    {
      "midi": 45,
      "hit": false,
      "t": 36258.07733333393,
      "d": 94.69333333333634,
      "v": 90
    },
    {
      "midi": 53,
      "hit": false,
      "t": 36352.77066666727,
      "d": 28.408000000003085,
      "v": 85
    },
    {
      "midi": 74,
      "hit": false,
      "t": 36362.2400000006,
      "d": 85.22400000000198,
      "v": 115
    },
    {
      "midi": 26,
      "hit": false,
      "t": 36362.2400000006,
      "d": 94.69333333333634,
      "v": 127
    },
    {
      "midi": 15,
      "hit": false,
      "t": 36362.2400000006,
      "d": 94.69333333333634,
      "v": 100
    },
    {
      "midi": 13,
      "hit": false,
      "t": 36362.2400000006,
      "d": 94.69333333333634,
      "v": 100
    },
    {
      "midi": 10,
      "hit": false,
      "t": 36362.2400000006,
      "d": 94.69333333333634,
      "v": 127
    },
    {
      "midi": 42,
      "hit": false,
      "t": 36362.2400000006,
      "d": 94.69333333333634,
      "v": 92
    },
    {
      "midi": 69,
      "hit": false,
      "t": 36362.2400000006,
      "d": 94.69333333333634,
      "v": 70
    },
    {
      "midi": 65,
      "hit": false,
      "t": 36371.709333333936,
      "d": 94.69333333333634,
      "v": 70
    },
    {
      "midi": 57,
      "hit": false,
      "t": 36371.709333333936,
      "d": 416.6506666666828,
      "v": 115
    },
    {
      "midi": 50,
      "hit": false,
      "t": 36371.709333333936,
      "d": 416.6506666666828,
      "v": 115
    },
    {
      "midi": 62,
      "hit": false,
      "t": 36381.17866666727,
      "d": 94.69333333333634,
      "v": 70
    },
    {
      "midi": 45,
      "hit": false,
      "t": 36381.17866666727,
      "d": 416.6506666666828,
      "v": 115
    },
    {
      "midi": 53,
      "hit": false,
      "t": 36466.40266666727,
      "d": 28.408000000003085,
      "v": 85
    },
    {
      "midi": 26,
      "hit": false,
      "t": 36475.87200000061,
      "d": 94.69333333333634,
      "v": 127
    },
    {
      "midi": 62,
      "hit": false,
      "t": 36475.87200000061,
      "d": 94.69333333333634,
      "v": 70
    },
    {
      "midi": 42,
      "hit": false,
      "t": 36485.34133333394,
      "d": 94.69333333333634,
      "v": 78
    },
    {
      "midi": 65,
      "hit": false,
      "t": 36485.34133333394,
      "d": 94.69333333333634,
      "v": 70
    },
    {
      "midi": 69,
      "hit": false,
      "t": 36494.810666667276,
      "d": 66.28533333333326,
      "v": 70
    },
    {
      "midi": 77,
      "hit": false,
      "t": 36589.50400000061,
      "d": 85.22400000000198,
      "v": 80
    },
    {
      "midi": 26,
      "hit": false,
      "t": 36589.50400000061,
      "d": 94.69333333333634,
      "v": 127
    },
    {
      "midi": 46,
      "hit": false,
      "t": 36608.44266666728,
      "d": 94.69333333333634,
      "v": 92
    },
    {
      "midi": 53,
      "hit": false,
      "t": 36693.66666666728,
      "d": 28.408000000003085,
      "v": 85
    },
    {
      "midi": 81,
      "hit": false,
      "t": 36703.13600000062,
      "d": 85.22400000000198,
      "v": 80
    },
    {
      "midi": 26,
      "hit": false,
      "t": 36703.13600000062,
      "d": 94.69333333333634,
      "v": 127
    },
    {
      "midi": 69,
      "hit": false,
      "t": 36703.13600000062,
      "d": 94.69333333333634,
      "v": 70
    },
    {
      "midi": 64,
      "hit": false,
      "t": 36703.13600000062,
      "d": 94.69333333333634,
      "v": 70
    },
    {
      "midi": 65,
      "hit": false,
      "t": 36712.60533333395,
      "d": 66.28533333333326,
      "v": 70
    },
    {
      "midi": 62,
      "hit": false,
      "t": 36722.074666667286,
      "d": 56.815999999998894,
      "v": 70
    },
    {
      "midi": 62,
      "hit": false,
      "t": 36807.29866666729,
      "d": 9.469333333334362,
      "v": 100
    },
    {
      "midi": 53,
      "hit": false,
      "t": 36807.29866666729,
      "d": 28.408000000003085,
      "v": 85
    },
    {
      "midi": 86,
      "hit": false,
      "t": 36816.76800000062,
      "d": 85.22400000000198,
      "v": 80
    },
    {
      "midi": 26,
      "hit": false,
      "t": 36816.76800000062,
      "d": 94.69333333333634,
      "v": 127
    },
    {
      "midi": 15,
      "hit": false,
      "t": 36816.76800000062,
      "d": 94.69333333333634,
      "v": 100
    },
    {
      "midi": 13,
      "hit": false,
      "t": 36816.76800000062,
      "d": 94.69333333333634,
      "v": 100
    },
    {
      "midi": 10,
      "hit": false,
      "t": 36816.76800000062,
      "d": 94.69333333333634,
      "v": 127
    },
    {
      "midi": 127,
      "hit": false,
      "t": 36816.76800000062,
      "d": 94.69333333333634,
      "v": 60
    },
    {
      "midi": 108,
      "hit": false,
      "t": 36816.76800000062,
      "d": 94.69333333333634,
      "v": 80
    },
    {
      "midi": 105,
      "hit": false,
      "t": 36816.76800000062,
      "d": 94.69333333333634,
      "v": 100
    },
    {
      "midi": 42,
      "hit": false,
      "t": 36816.76800000062,
      "d": 94.69333333333634,
      "v": 92
    },
    {
      "midi": 62,
      "hit": false,
      "t": 36816.76800000062,
      "d": 94.69333333333634,
      "v": 70
    },
    {
      "midi": 118,
      "hit": false,
      "t": 36816.76800000062,
      "d": 94.69333333333634,
      "v": 50
    },
    {
      "midi": 63,
      "hit": false,
      "t": 36816.76800000062,
      "d": 94.69333333333634,
      "v": 70
    },
    {
      "midi": 67,
      "hit": false,
      "t": 36816.76800000062,
      "d": 208.3253333333414,
      "v": 127
    },
    {
      "midi": 74,
      "hit": false,
      "t": 36816.76800000062,
      "d": 208.3253333333414,
      "v": 115
    },
    {
      "midi": 65,
      "hit": false,
      "t": 36826.23733333396,
      "d": 94.69333333333634,
      "v": 70
    },
    {
      "midi": 57,
      "hit": false,
      "t": 36826.23733333396,
      "d": 198.85600000000704,
      "v": 115
    },
    {
      "midi": 50,
      "hit": false,
      "t": 36826.23733333396,
      "d": 198.85600000000704,
      "v": 115
    },
    {
      "midi": 69,
      "hit": false,
      "t": 36835.70666666729,
      "d": 94.69333333333634,
      "v": 70
    },
    {
      "midi": 45,
      "hit": false,
      "t": 36835.70666666729,
      "d": 198.85600000000704,
      "v": 115
    },
    {
      "midi": 89,
      "hit": false,
      "t": 36930.40000000063,
      "d": 85.22400000000198,
      "v": 80
    },
    {
      "midi": 42,
      "hit": false,
      "t": 36939.86933333396,
      "d": 94.69333333333634,
      "v": 78
    },
    {
      "midi": 45,
      "hit": false,
      "t": 37034.5626666673,
      "d": 9.469333333334362,
      "v": 80
    },
    {
      "midi": 53,
      "hit": false,
      "t": 37034.5626666673,
      "d": 28.408000000003085,
      "v": 85
    },
    {
      "midi": 45,
      "hit": false,
      "t": 37044.03200000063,
      "d": 85.22400000000198,
      "v": 95
    },
    {
      "midi": 50,
      "hit": false,
      "t": 37044.03200000063,
      "d": 85.22400000000198,
      "v": 95
    },
    {
      "midi": 86,
      "hit": false,
      "t": 37044.03200000063,
      "d": 85.22400000000198,
      "v": 80
    },
    {
      "midi": 26,
      "hit": false,
      "t": 37044.03200000063,
      "d": 94.69333333333634,
      "v": 127
    },
    {
      "midi": 69,
      "hit": false,
      "t": 37044.03200000063,
      "d": 94.69333333333634,
      "v": 70
    },
    {
      "midi": 57,
      "hit": false,
      "t": 37053.50133333397,
      "d": 85.22400000000198,
      "v": 95
    },
    {
      "midi": 65,
      "hit": false,
      "t": 37053.50133333397,
      "d": 94.69333333333634,
      "v": 95
    },
    {
      "midi": 62,
      "hit": false,
      "t": 37062.9706666673,
      "d": 75.75466666666762,
      "v": 70
    },
    {
      "midi": 46,
      "hit": false,
      "t": 37062.9706666673,
      "d": 94.69333333333634,
      "v": 92
    },
    {
      "midi": 74,
      "hit": false,
      "t": 37062.9706666673,
      "d": 94.69333333333634,
      "v": 95
    },
    {
      "midi": 62,
      "hit": false,
      "t": 37148.1946666673,
      "d": 9.469333333334362,
      "v": 90
    },
    {
      "midi": 53,
      "hit": false,
      "t": 37148.1946666673,
      "d": 28.408000000003085,
      "v": 85
    },
    {
      "midi": 62,
      "hit": false,
      "t": 37157.66400000064,
      "d": 85.22400000000198,
      "v": 70
    },
    {
      "midi": 81,
      "hit": false,
      "t": 37157.66400000064,
      "d": 85.22400000000198,
      "v": 80
    },
    {
      "midi": 26,
      "hit": false,
      "t": 37157.66400000064,
      "d": 94.69333333333634,
      "v": 127
    },
    {
      "midi": 74,
      "hit": false,
      "t": 37157.66400000064,
      "d": 94.69333333333634,
      "v": 95
    },
    {
      "midi": 118,
      "hit": false,
      "t": 37157.66400000064,
      "d": 94.69333333333634,
      "v": 50
    },
    {
      "midi": 65,
      "hit": false,
      "t": 37167.13333333397,
      "d": 75.75466666666762,
      "v": 70
    },
    {
      "midi": 57,
      "hit": false,
      "t": 37167.13333333397,
      "d": 85.22400000000198,
      "v": 95
    },
    {
      "midi": 50,
      "hit": false,
      "t": 37167.13333333397,
      "d": 85.22400000000198,
      "v": 95
    },
    {
      "midi": 45,
      "hit": false,
      "t": 37176.602666667306,
      "d": 85.22400000000198,
      "v": 95
    },
    {
      "midi": 69,
      "hit": false,
      "t": 37176.602666667306,
      "d": 94.69333333333634,
      "v": 70
    },
    {
      "midi": 45,
      "hit": false,
      "t": 37261.82666666731,
      "d": 9.469333333334362,
      "v": 80
    },
    {
      "midi": 45,
      "hit": false,
      "t": 37271.29600000064,
      "d": 85.22400000000198,
      "v": 95
    },
    {
      "midi": 50,
      "hit": false,
      "t": 37271.29600000064,
      "d": 85.22400000000198,
      "v": 95
    },
    {
      "midi": 77,
      "hit": false,
      "t": 37271.29600000064,
      "d": 85.22400000000198,
      "v": 80
    },
    {
      "midi": 26,
      "hit": false,
      "t": 37271.29600000064,
      "d": 94.69333333333634,
      "v": 127
    },
    {
      "midi": 62,
      "hit": false,
      "t": 37271.29600000064,
      "d": 94.69333333333634,
      "v": 80
    },
    {
      "midi": 15,
      "hit": false,
      "t": 37271.29600000064,
      "d": 94.69333333333634,
      "v": 100
    },
    {
      "midi": 13,
      "hit": false,
      "t": 37271.29600000064,
      "d": 94.69333333333634,
      "v": 100
    },
    {
      "midi": 10,
      "hit": false,
      "t": 37271.29600000064,
      "d": 94.69333333333634,
      "v": 127
    },
    {
      "midi": 42,
      "hit": false,
      "t": 37271.29600000064,
      "d": 94.69333333333634,
      "v": 92
    },
    {
      "midi": 57,
      "hit": false,
      "t": 37280.76533333398,
      "d": 85.22400000000198,
      "v": 95
    },
    {
      "midi": 65,
      "hit": false,
      "t": 37280.76533333398,
      "d": 94.69333333333634,
      "v": 95
    },
    {
      "midi": 74,
      "hit": false,
      "t": 37290.23466666731,
      "d": 94.69333333333634,
      "v": 95
    },
    {
      "midi": 62,
      "hit": false,
      "t": 37375.45866666731,
      "d": 94.69333333333634,
      "v": 80
    },
    {
      "midi": 65,
      "hit": false,
      "t": 37384.92800000065,
      "d": 85.22400000000198,
      "v": 95
    },
    {
      "midi": 74,
      "hit": false,
      "t": 37384.92800000065,
      "d": 85.22400000000198,
      "v": 95
    },
    {
      "midi": 118,
      "hit": false,
      "t": 37384.92800000065,
      "d": 94.69333333333634,
      "v": 50
    },
    {
      "midi": 57,
      "hit": false,
      "t": 37394.39733333398,
      "d": 85.22400000000198,
      "v": 95
    },
    {
      "midi": 50,
      "hit": false,
      "t": 37394.39733333398,
      "d": 85.22400000000198,
      "v": 95
    },
    {
      "midi": 42,
      "hit": false,
      "t": 37394.39733333398,
      "d": 94.69333333333634,
      "v": 78
    },
    {
      "midi": 45,
      "hit": false,
      "t": 37403.866666667316,
      "d": 85.22400000000198,
      "v": 95
    },
    {
      "midi": 45,
      "hit": false,
      "t": 37489.09066666732,
      "d": 9.469333333334362,
      "v": 105
    },
    {
      "midi": 45,
      "hit": false,
      "t": 37498.56000000065,
      "d": 85.22400000000198,
      "v": 95
    },
    {
      "midi": 50,
      "hit": false,
      "t": 37498.56000000065,
      "d": 85.22400000000198,
      "v": 95
    },
    {
      "midi": 69,
      "hit": false,
      "t": 37498.56000000065,
      "d": 85.22400000000198,
      "v": 80
    },
    {
      "midi": 62,
      "hit": false,
      "t": 37498.56000000065,
      "d": 94.69333333333634,
      "v": 105
    },
    {
      "midi": 118,
      "hit": false,
      "t": 37498.56000000065,
      "d": 94.69333333333634,
      "v": 30
    },
    {
      "midi": 26,
      "hit": false,
      "t": 37498.56000000065,
      "d": 208.3253333333414,
      "v": 127
    },
    {
      "midi": 57,
      "hit": false,
      "t": 37508.02933333399,
      "d": 85.22400000000198,
      "v": 95
    },
    {
      "midi": 65,
      "hit": false,
      "t": 37508.02933333399,
      "d": 94.69333333333634,
      "v": 95
    },
    {
      "midi": 46,
      "hit": false,
      "t": 37517.49866666732,
      "d": 94.69333333333634,
      "v": 92
    },
    {
      "midi": 74,
      "hit": false,
      "t": 37517.49866666732,
      "d": 94.69333333333634,
      "v": 95
    },
    {
      "midi": 62,
      "hit": false,
      "t": 37602.72266666732,
      "d": 94.69333333333634,
      "v": 90
    },
    {
      "midi": 65,
      "hit": false,
      "t": 37612.19200000066,
      "d": 85.22400000000198,
      "v": 95
    },
    {
      "midi": 74,
      "hit": false,
      "t": 37612.19200000066,
      "d": 94.69333333333634,
      "v": 95
    },
    {
      "midi": 63,
      "hit": false,
      "t": 37612.19200000066,
      "d": 94.69333333333634,
      "v": 80
    },
    {
      "midi": 57,
      "hit": false,
      "t": 37621.66133333399,
      "d": 85.22400000000198,
      "v": 95
    },
    {
      "midi": 50,
      "hit": false,
      "t": 37621.66133333399,
      "d": 85.22400000000198,
      "v": 95
    },
    {
      "midi": 45,
      "hit": false,
      "t": 37631.130666667326,
      "d": 85.22400000000198,
      "v": 95
    },
    {
      "midi": 45,
      "hit": false,
      "t": 37716.35466666733,
      "d": 9.469333333334362,
      "v": 100
    },
    {
      "midi": 62,
      "hit": false,
      "t": 37725.82400000066,
      "d": 85.22400000000198,
      "v": 100
    },
    {
      "midi": 26,
      "hit": false,
      "t": 37725.82400000066,
      "d": 94.69333333333634,
      "v": 127
    },
    {
      "midi": 15,
      "hit": false,
      "t": 37725.82400000066,
      "d": 94.69333333333634,
      "v": 100
    },
    {
      "midi": 13,
      "hit": false,
      "t": 37725.82400000066,
      "d": 94.69333333333634,
      "v": 100
    },
    {
      "midi": 10,
      "hit": false,
      "t": 37725.82400000066,
      "d": 94.69333333333634,
      "v": 127
    },
    {
      "midi": 127,
      "hit": false,
      "t": 37725.82400000066,
      "d": 94.69333333333634,
      "v": 60
    },
    {
      "midi": 108,
      "hit": false,
      "t": 37725.82400000066,
      "d": 94.69333333333634,
      "v": 80
    },
    {
      "midi": 105,
      "hit": false,
      "t": 37725.82400000066,
      "d": 94.69333333333634,
      "v": 100
    },
    {
      "midi": 42,
      "hit": false,
      "t": 37725.82400000066,
      "d": 94.69333333333634,
      "v": 92
    },
    {
      "midi": 118,
      "hit": false,
      "t": 37725.82400000066,
      "d": 94.69333333333634,
      "v": 50
    },
    {
      "midi": 64,
      "hit": false,
      "t": 37725.82400000066,
      "d": 94.69333333333634,
      "v": 70
    },
    {
      "midi": 45,
      "hit": false,
      "t": 37725.82400000066,
      "d": 198.85600000000704,
      "v": 115
    },
    {
      "midi": 50,
      "hit": false,
      "t": 37725.82400000066,
      "d": 198.85600000000704,
      "v": 115
    },
    {
      "midi": 57,
      "hit": false,
      "t": 37735.293333334,
      "d": 198.85600000000704,
      "v": 115
    },
    {
      "midi": 74,
      "hit": false,
      "t": 37744.76266666733,
      "d": 208.3253333333414,
      "v": 115
    },
    {
      "midi": 65,
      "hit": false,
      "t": 37839.45600000067,
      "d": 85.22400000000198,
      "v": 80
    },
    {
      "midi": 26,
      "hit": false,
      "t": 37839.45600000067,
      "d": 94.69333333333634,
      "v": 127
    },
    {
      "midi": 42,
      "hit": false,
      "t": 37848.925333334,
      "d": 94.69333333333634,
      "v": 78
    },
    {
      "midi": 65,
      "hit": false,
      "t": 37953.08800000067,
      "d": 85.22400000000198,
      "v": 105
    },
    {
      "midi": 62,
      "hit": false,
      "t": 37953.08800000067,
      "d": 85.22400000000198,
      "v": 127
    },
    {
      "midi": 69,
      "hit": false,
      "t": 37953.08800000067,
      "d": 85.22400000000198,
      "v": 80
    },
    {
      "midi": 26,
      "hit": false,
      "t": 37953.08800000067,
      "d": 94.69333333333634,
      "v": 127
    },
    {
      "midi": 15,
      "hit": false,
      "t": 37953.08800000067,
      "d": 94.69333333333634,
      "v": 100
    },
    {
      "midi": 13,
      "hit": false,
      "t": 37953.08800000067,
      "d": 94.69333333333634,
      "v": 100
    },
    {
      "midi": 10,
      "hit": false,
      "t": 37953.08800000067,
      "d": 94.69333333333634,
      "v": 127
    },
    {
      "midi": 74,
      "hit": false,
      "t": 37953.08800000067,
      "d": 94.69333333333634,
      "v": 105
    },
    {
      "midi": 118,
      "hit": false,
      "t": 37953.08800000067,
      "d": 94.69333333333634,
      "v": 50
    },
    {
      "midi": 57,
      "hit": false,
      "t": 37962.55733333401,
      "d": 85.22400000000198,
      "v": 105
    },
    {
      "midi": 50,
      "hit": false,
      "t": 37962.55733333401,
      "d": 85.22400000000198,
      "v": 105
    },
    {
      "midi": 45,
      "hit": false,
      "t": 37972.02666666734,
      "d": 85.22400000000198,
      "v": 105
    },
    {
      "midi": 46,
      "hit": false,
      "t": 37972.02666666734,
      "d": 94.69333333333634,
      "v": 92
    },
    {
      "midi": 45,
      "hit": false,
      "t": 38057.25066666734,
      "d": 9.469333333334362,
      "v": 90
    },
    {
      "midi": 45,
      "hit": false,
      "t": 38066.72000000068,
      "d": 85.22400000000198,
      "v": 115
    },
    {
      "midi": 50,
      "hit": false,
      "t": 38066.72000000068,
      "d": 85.22400000000198,
      "v": 115
    },
    {
      "midi": 62,
      "hit": false,
      "t": 38066.72000000068,
      "d": 94.69333333333634,
      "v": 90
    },
    {
      "midi": 118,
      "hit": false,
      "t": 38066.72000000068,
      "d": 94.69333333333634,
      "v": 30
    },
    {
      "midi": 57,
      "hit": false,
      "t": 38076.18933333401,
      "d": 85.22400000000198,
      "v": 115
    },
    {
      "midi": 65,
      "hit": false,
      "t": 38076.18933333401,
      "d": 94.69333333333634,
      "v": 115
    },
    {
      "midi": 74,
      "hit": false,
      "t": 38085.65866666735,
      "d": 66.28533333333326,
      "v": 115
    },
    {
      "midi": 55,
      "hit": false,
      "t": 38170.88266666735,
      "d": 28.408000000003085,
      "v": 85
    },
    {
      "midi": 71,
      "hit": false,
      "t": 38180.35200000068,
      "d": 85.22400000000198,
      "v": 80
    },
    {
      "midi": 31,
      "hit": false,
      "t": 38180.35200000068,
      "d": 94.69333333333634,
      "v": 127
    },
    {
      "midi": 15,
      "hit": false,
      "t": 38180.35200000068,
      "d": 94.69333333333634,
      "v": 100
    },
    {
      "midi": 13,
      "hit": false,
      "t": 38180.35200000068,
      "d": 94.69333333333634,
      "v": 100
    },
    {
      "midi": 10,
      "hit": false,
      "t": 38180.35200000068,
      "d": 94.69333333333634,
      "v": 127
    },
    {
      "midi": 42,
      "hit": false,
      "t": 38180.35200000068,
      "d": 94.69333333333634,
      "v": 92
    },
    {
      "midi": 67,
      "hit": false,
      "t": 38180.35200000068,
      "d": 94.69333333333634,
      "v": 115
    },
    {
      "midi": 62,
      "hit": false,
      "t": 38189.82133333402,
      "d": 94.69333333333634,
      "v": 70
    },
    {
      "midi": 50,
      "hit": false,
      "t": 38189.82133333402,
      "d": 416.6506666666828,
      "v": 115
    },
    {
      "midi": 43,
      "hit": false,
      "t": 38189.82133333402,
      "d": 426.12000000001717,
      "v": 100
    },
    {
      "midi": 59,
      "hit": false,
      "t": 38199.29066666735,
      "d": 94.69333333333634,
      "v": 70
    },
    {
      "midi": 47,
      "hit": false,
      "t": 38199.29066666735,
      "d": 426.12000000001717,
      "v": 115
    },
    {
      "midi": 55,
      "hit": false,
      "t": 38284.51466666735,
      "d": 28.408000000003085,
      "v": 85
    },
    {
      "midi": 74,
      "hit": false,
      "t": 38293.98400000069,
      "d": 85.22400000000198,
      "v": 80
    },
    {
      "midi": 31,
      "hit": false,
      "t": 38293.98400000069,
      "d": 94.69333333333634,
      "v": 127
    },
    {
      "midi": 59,
      "hit": false,
      "t": 38293.98400000069,
      "d": 94.69333333333634,
      "v": 70
    },
    {
      "midi": 62,
      "hit": false,
      "t": 38303.45333333402,
      "d": 85.22400000000198,
      "v": 70
    },
    {
      "midi": 42,
      "hit": false,
      "t": 38303.45333333402,
      "d": 94.69333333333634,
      "v": 78
    },
    {
      "midi": 67,
      "hit": false,
      "t": 38312.92266666736,
      "d": 94.69333333333634,
      "v": 70
    },
    {
      "midi": 79,
      "hit": false,
      "t": 38407.61600000069,
      "d": 85.22400000000198,
      "v": 80
    },
    {
      "midi": 31,
      "hit": false,
      "t": 38407.61600000069,
      "d": 94.69333333333634,
      "v": 127
    },
    {
      "midi": 46,
      "hit": false,
      "t": 38426.55466666736,
      "d": 94.69333333333634,
      "v": 92
    },
    {
      "midi": 55,
      "hit": false,
      "t": 38511.778666667364,
      "d": 28.408000000003085,
      "v": 85
    },
    {
      "midi": 67,
      "hit": false,
      "t": 38521.2480000007,
      "d": 75.75466666666762,
      "v": 70
    },
    {
      "midi": 83,
      "hit": false,
      "t": 38521.2480000007,
      "d": 85.22400000000198,
      "v": 80
    },
    {
      "midi": 31,
      "hit": false,
      "t": 38521.2480000007,
      "d": 94.69333333333634,
      "v": 127
    },
    {
      "midi": 64,
      "hit": false,
      "t": 38521.2480000007,
      "d": 94.69333333333634,
      "v": 70
    },
    {
      "midi": 62,
      "hit": false,
      "t": 38530.71733333403,
      "d": 66.28533333333326,
      "v": 70
    },
    {
      "midi": 59,
      "hit": false,
      "t": 38540.18666666737,
      "d": 66.28533333333326,
      "v": 70
    },
    {
      "midi": 55,
      "hit": false,
      "t": 38625.41066666737,
      "d": 28.408000000003085,
      "v": 85
    },
    {
      "midi": 86,
      "hit": false,
      "t": 38634.8800000007,
      "d": 85.22400000000198,
      "v": 80
    },
    {
      "midi": 31,
      "hit": false,
      "t": 38634.8800000007,
      "d": 94.69333333333634,
      "v": 127
    },
    {
      "midi": 15,
      "hit": false,
      "t": 38634.8800000007,
      "d": 94.69333333333634,
      "v": 100
    },
    {
      "midi": 13,
      "hit": false,
      "t": 38634.8800000007,
      "d": 94.69333333333634,
      "v": 100
    },
    {
      "midi": 10,
      "hit": false,
      "t": 38634.8800000007,
      "d": 94.69333333333634,
      "v": 127
    },
    {
      "midi": 127,
      "hit": false,
      "t": 38634.8800000007,
      "d": 94.69333333333634,
      "v": 60
    },
    {
      "midi": 108,
      "hit": false,
      "t": 38634.8800000007,
      "d": 94.69333333333634,
      "v": 80
    },
    {
      "midi": 105,
      "hit": false,
      "t": 38634.8800000007,
      "d": 94.69333333333634,
      "v": 100
    },
    {
      "midi": 42,
      "hit": false,
      "t": 38634.8800000007,
      "d": 94.69333333333634,
      "v": 92
    },
    {
      "midi": 118,
      "hit": false,
      "t": 38634.8800000007,
      "d": 94.69333333333634,
      "v": 50
    },
    {
      "midi": 63,
      "hit": false,
      "t": 38634.8800000007,
      "d": 94.69333333333634,
      "v": 70
    },
    {
      "midi": 59,
      "hit": false,
      "t": 38644.34933333404,
      "d": 85.22400000000198,
      "v": 115
    },
    {
      "midi": 62,
      "hit": false,
      "t": 38644.34933333404,
      "d": 94.69333333333634,
      "v": 70
    },
    {
      "midi": 50,
      "hit": false,
      "t": 38644.34933333404,
      "d": 198.85600000000704,
      "v": 115
    },
    {
      "midi": 43,
      "hit": false,
      "t": 38644.34933333404,
      "d": 208.3253333333414,
      "v": 110
    },
    {
      "midi": 67,
      "hit": false,
      "t": 38653.81866666737,
      "d": 94.69333333333634,
      "v": 70
    },
    {
      "midi": 47,
      "hit": false,
      "t": 38653.81866666737,
      "d": 208.3253333333414,
      "v": 115
    },
    {
      "midi": 91,
      "hit": false,
      "t": 38748.51200000071,
      "d": 85.22400000000198,
      "v": 80
    },
    {
      "midi": 42,
      "hit": false,
      "t": 38757.98133333404,
      "d": 94.69333333333634,
      "v": 78
    },
    {
      "midi": 55,
      "hit": false,
      "t": 38852.67466666738,
      "d": 28.408000000003085,
      "v": 85
    },
    {
      "midi": 43,
      "hit": false,
      "t": 38852.67466666738,
      "d": 94.69333333333634,
      "v": 80
    },
    {
      "midi": 50,
      "hit": false,
      "t": 38862.14400000071,
      "d": 85.22400000000198,
      "v": 95
    },
    {
      "midi": 86,
      "hit": false,
      "t": 38862.14400000071,
      "d": 85.22400000000198,
      "v": 80
    },
    {
      "midi": 31,
      "hit": false,
      "t": 38862.14400000071,
      "d": 94.69333333333634,
      "v": 127
    },
    {
      "midi": 47,
      "hit": false,
      "t": 38862.14400000071,
      "d": 94.69333333333634,
      "v": 95
    },
    {
      "midi": 62,
      "hit": false,
      "t": 38871.61333333405,
      "d": 85.22400000000198,
      "v": 95
    },
    {
      "midi": 59,
      "hit": false,
      "t": 38881.08266666738,
      "d": 75.75466666666762,
      "v": 70
    },
    {
      "midi": 67,
      "hit": false,
      "t": 38881.08266666738,
      "d": 75.75466666666762,
      "v": 95
    },
    {
      "midi": 46,
      "hit": false,
      "t": 38881.08266666738,
      "d": 94.69333333333634,
      "v": 92
    },
    {
      "midi": 67,
      "hit": false,
      "t": 38966.306666667384,
      "d": 9.469333333334362,
      "v": 90
    },
    {
      "midi": 55,
      "hit": false,
      "t": 38966.306666667384,
      "d": 28.408000000003085,
      "v": 85
    },
    {
      "midi": 83,
      "hit": false,
      "t": 38975.77600000072,
      "d": 85.22400000000198,
      "v": 80
    },
    {
      "midi": 31,
      "hit": false,
      "t": 38975.77600000072,
      "d": 94.69333333333634,
      "v": 127
    },
    {
      "midi": 118,
      "hit": false,
      "t": 38975.77600000072,
      "d": 94.69333333333634,
      "v": 50
    },
    {
      "midi": 59,
      "hit": false,
      "t": 38985.24533333405,
      "d": 85.22400000000198,
      "v": 115
    },
    {
      "midi": 62,
      "hit": false,
      "t": 38985.24533333405,
      "d": 94.69333333333634,
      "v": 70
    },
    {
      "midi": 50,
      "hit": false,
      "t": 38985.24533333405,
      "d": 208.32533333333413,
      "v": 115
    },
    {
      "midi": 43,
      "hit": false,
      "t": 38985.24533333405,
      "d": 321.9573333333392,
      "v": 90
    },
    {
      "midi": 67,
      "hit": false,
      "t": 38994.71466666739,
      "d": 94.69333333333634,
      "v": 70
    },
    {
      "midi": 47,
      "hit": false,
      "t": 38994.71466666739,
      "d": 208.32533333333413,
      "v": 115
    },
    {
      "midi": 79,
      "hit": false,
      "t": 39089.40800000072,
      "d": 85.2239999999947,
      "v": 80
    },
    {
      "midi": 31,
      "hit": false,
      "t": 39089.40800000072,
      "d": 94.69333333332906,
      "v": 127
    },
    {
      "midi": 15,
      "hit": false,
      "t": 39089.40800000072,
      "d": 94.69333333332906,
      "v": 100
    },
    {
      "midi": 13,
      "hit": false,
      "t": 39089.40800000072,
      "d": 94.69333333332906,
      "v": 100
    },
    {
      "midi": 10,
      "hit": false,
      "t": 39089.40800000072,
      "d": 94.69333333332906,
      "v": 127
    },
    {
      "midi": 42,
      "hit": false,
      "t": 39089.40800000072,
      "d": 94.69333333332906,
      "v": 92
    },
    {
      "midi": 74,
      "hit": false,
      "t": 39203.04000000072,
      "d": 85.22400000000198,
      "v": 80
    },
    {
      "midi": 118,
      "hit": false,
      "t": 39203.04000000072,
      "d": 94.69333333333634,
      "v": 50
    },
    {
      "midi": 42,
      "hit": false,
      "t": 39212.509333334056,
      "d": 94.69333333333634,
      "v": 78
    },
    {
      "midi": 43,
      "hit": false,
      "t": 39307.20266666739,
      "d": 208.32533333334868,
      "v": 100
    },
    {
      "midi": 71,
      "hit": false,
      "t": 39316.672000000726,
      "d": 85.22400000000926,
      "v": 80
    },
    {
      "midi": 47,
      "hit": false,
      "t": 39316.672000000726,
      "d": 94.69333333334362,
      "v": 115
    },
    {
      "midi": 50,
      "hit": false,
      "t": 39316.672000000726,
      "d": 94.69333333334362,
      "v": 115
    },
    {
      "midi": 118,
      "hit": false,
      "t": 39316.672000000726,
      "d": 94.69333333334362,
      "v": 30
    },
    {
      "midi": 31,
      "hit": false,
      "t": 39316.672000000726,
      "d": 208.32533333334868,
      "v": 127
    },
    {
      "midi": 59,
      "hit": false,
      "t": 39326.14133333406,
      "d": 94.69333333334362,
      "v": 115
    },
    {
      "midi": 62,
      "hit": false,
      "t": 39326.14133333406,
      "d": 94.69333333334362,
      "v": 115
    },
    {
      "midi": 46,
      "hit": false,
      "t": 39335.610666667395,
      "d": 94.69333333334362,
      "v": 92
    },
    {
      "midi": 67,
      "hit": false,
      "t": 39335.610666667395,
      "d": 94.69333333334362,
      "v": 115
    },
    {
      "midi": 67,
      "hit": false,
      "t": 39430.30400000074,
      "d": 85.22400000000198,
      "v": 80
    },
    {
      "midi": 63,
      "hit": false,
      "t": 39430.30400000074,
      "d": 94.69333333333634,
      "v": 80
    },
    {
      "midi": 62,
      "hit": false,
      "t": 39543.936000000744,
      "d": 85.22400000000198,
      "v": 115
    },
    {
      "midi": 31,
      "hit": false,
      "t": 39543.936000000744,
      "d": 94.69333333333634,
      "v": 127
    },
    {
      "midi": 15,
      "hit": false,
      "t": 39543.936000000744,
      "d": 94.69333333333634,
      "v": 100
    },
    {
      "midi": 13,
      "hit": false,
      "t": 39543.936000000744,
      "d": 94.69333333333634,
      "v": 100
    },
    {
      "midi": 10,
      "hit": false,
      "t": 39543.936000000744,
      "d": 94.69333333333634,
      "v": 127
    },
    {
      "midi": 127,
      "hit": false,
      "t": 39543.936000000744,
      "d": 94.69333333333634,
      "v": 60
    },
    {
      "midi": 108,
      "hit": false,
      "t": 39543.936000000744,
      "d": 94.69333333333634,
      "v": 80
    },
    {
      "midi": 105,
      "hit": false,
      "t": 39543.936000000744,
      "d": 94.69333333333634,
      "v": 100
    },
    {
      "midi": 42,
      "hit": false,
      "t": 39543.936000000744,
      "d": 94.69333333333634,
      "v": 92
    },
    {
      "midi": 118,
      "hit": false,
      "t": 39543.936000000744,
      "d": 94.69333333333634,
      "v": 50
    },
    {
      "midi": 64,
      "hit": false,
      "t": 39543.936000000744,
      "d": 94.69333333333634,
      "v": 70
    },
    {
      "midi": 60,
      "hit": false,
      "t": 39543.936000000744,
      "d": 208.3253333333414,
      "v": 127
    },
    {
      "midi": 59,
      "hit": false,
      "t": 39553.40533333408,
      "d": 198.85600000000704,
      "v": 115
    },
    {
      "midi": 50,
      "hit": false,
      "t": 39553.40533333408,
      "d": 198.85600000000704,
      "v": 115
    },
    {
      "midi": 43,
      "hit": false,
      "t": 39553.40533333408,
      "d": 208.3253333333414,
      "v": 110
    },
    {
      "midi": 47,
      "hit": false,
      "t": 39562.87466666741,
      "d": 208.3253333333414,
      "v": 115
    },
    {
      "midi": 67,
      "hit": false,
      "t": 39657.56800000075,
      "d": 85.22400000000198,
      "v": 80
    },
    {
      "midi": 31,
      "hit": false,
      "t": 39657.56800000075,
      "d": 94.69333333333634,
      "v": 127
    },
    {
      "midi": 42,
      "hit": false,
      "t": 39667.03733333408,
      "d": 94.69333333333634,
      "v": 78
    },
    {
      "midi": 43,
      "hit": false,
      "t": 39761.73066666742,
      "d": 94.69333333333634,
      "v": 80
    },
    {
      "midi": 50,
      "hit": false,
      "t": 39771.200000000754,
      "d": 85.22400000000198,
      "v": 95
    },
    {
      "midi": 71,
      "hit": false,
      "t": 39771.200000000754,
      "d": 85.22400000000198,
      "v": 80
    },
    {
      "midi": 31,
      "hit": false,
      "t": 39771.200000000754,
      "d": 94.69333333333634,
      "v": 127
    },
    {
      "midi": 47,
      "hit": false,
      "t": 39771.200000000754,
      "d": 94.69333333333634,
      "v": 95
    },
    {
      "midi": 118,
      "hit": false,
      "t": 39771.200000000754,
      "d": 94.69333333333634,
      "v": 50
    },
    {
      "midi": 59,
      "hit": false,
      "t": 39780.66933333409,
      "d": 85.22400000000198,
      "v": 95
    },
    {
      "midi": 62,
      "hit": false,
      "t": 39780.66933333409,
      "d": 85.22400000000198,
      "v": 95
    },
    {
      "midi": 67,
      "hit": false,
      "t": 39790.13866666742,
      "d": 85.22400000000198,
      "v": 95
    },
    {
      "midi": 46,
      "hit": false,
      "t": 39790.13866666742,
      "d": 94.69333333333634,
      "v": 92
    },
    {
      "midi": 67,
      "hit": false,
      "t": 39875.362666667424,
      "d": 9.469333333334362,
      "v": 90
    },
    {
      "midi": 67,
      "hit": false,
      "t": 39884.83200000076,
      "d": 85.22400000000198,
      "v": 95
    },
    {
      "midi": 62,
      "hit": false,
      "t": 39884.83200000076,
      "d": 85.22400000000198,
      "v": 95
    },
    {
      "midi": 74,
      "hit": false,
      "t": 39884.83200000076,
      "d": 85.22400000000198,
      "v": 80
    },
    {
      "midi": 118,
      "hit": false,
      "t": 39884.83200000076,
      "d": 94.69333333333634,
      "v": 30
    },
    {
      "midi": 59,
      "hit": false,
      "t": 39894.30133333409,
      "d": 85.22400000000198,
      "v": 95
    },
    {
      "midi": 50,
      "hit": false,
      "t": 39894.30133333409,
      "d": 85.22400000000198,
      "v": 95
    },
    {
      "midi": 43,
      "hit": false,
      "t": 39894.30133333409,
      "d": 94.69333333333634,
      "v": 90
    },
    {
      "midi": 47,
      "hit": false,
      "t": 39903.77066666743,
      "d": 94.69333333333634,
      "v": 95
    },
    {
      "midi": 24,
      "hit": false,
      "t": 39998.464000000764,
      "d": 94.69333333333634,
      "v": 127
    },
    {
      "midi": 15,
      "hit": false,
      "t": 39998.464000000764,
      "d": 94.69333333333634,
      "v": 100
    },
    {
      "midi": 13,
      "hit": false,
      "t": 39998.464000000764,
      "d": 94.69333333333634,
      "v": 100
    },
    {
      "midi": 10,
      "hit": false,
      "t": 39998.464000000764,
      "d": 94.69333333333634,
      "v": 127
    },
    {
      "midi": 42,
      "hit": false,
      "t": 39998.464000000764,
      "d": 94.69333333333634,
      "v": 92
    },
    {
      "midi": 72,
      "hit": false,
      "t": 39998.464000000764,
      "d": 94.69333333333634,
      "v": 70
    },
    {
      "midi": 60,
      "hit": false,
      "t": 39998.464000000764,
      "d": 416.6506666666901,
      "v": 105
    },
    {
      "midi": 55,
      "hit": false,
      "t": 40007.9333333341,
      "d": 9.469333333334362,
      "v": 105
    },
    {
      "midi": 67,
      "hit": false,
      "t": 40007.9333333341,
      "d": 75.75466666666762,
      "v": 70
    },
    {
      "midi": 43,
      "hit": false,
      "t": 40007.9333333341,
      "d": 426.12000000002445,
      "v": 105
    },
    {
      "midi": 52,
      "hit": false,
      "t": 40007.9333333341,
      "d": 426.12000000002445,
      "v": 105
    },
    {
      "midi": 64,
      "hit": false,
      "t": 40017.40266666743,
      "d": 94.69333333333634,
      "v": 70
    },
    {
      "midi": 48,
      "hit": false,
      "t": 40017.40266666743,
      "d": 407.1813333333557,
      "v": 105
    },
    {
      "midi": 55,
      "hit": false,
      "t": 40102.626666667435,
      "d": 28.408000000003085,
      "v": 85
    },
    {
      "midi": 24,
      "hit": false,
      "t": 40112.09600000077,
      "d": 94.69333333333634,
      "v": 127
    },
    {
      "midi": 64,
      "hit": false,
      "t": 40112.09600000077,
      "d": 94.69333333333634,
      "v": 70
    },
    {
      "midi": 42,
      "hit": false,
      "t": 40121.5653333341,
      "d": 94.69333333333634,
      "v": 78
    },
    {
      "midi": 67,
      "hit": false,
      "t": 40121.5653333341,
      "d": 94.69333333333634,
      "v": 70
    },
    {
      "midi": 72,
      "hit": false,
      "t": 40131.03466666744,
      "d": 66.28533333333326,
      "v": 70
    },
    {
      "midi": 72,
      "hit": false,
      "t": 40225.728000000774,
      "d": 47.34666666667181,
      "v": 70
    },
    {
      "midi": 76,
      "hit": false,
      "t": 40225.728000000774,
      "d": 85.22400000000926,
      "v": 80
    },
    {
      "midi": 24,
      "hit": false,
      "t": 40225.728000000774,
      "d": 94.69333333334362,
      "v": 127
    },
    {
      "midi": 67,
      "hit": false,
      "t": 40235.19733333411,
      "d": 47.34666666667181,
      "v": 70
    },
    {
      "midi": 64,
      "hit": false,
      "t": 40244.66666666744,
      "d": 47.34666666667181,
      "v": 70
    },
    {
      "midi": 46,
      "hit": false,
      "t": 40244.66666666744,
      "d": 94.69333333334362,
      "v": 92
    },
    {
      "midi": 55,
      "hit": false,
      "t": 40329.89066666745,
      "d": 28.408000000003085,
      "v": 85
    },
    {
      "midi": 64,
      "hit": false,
      "t": 40339.36000000079,
      "d": 75.75466666666762,
      "v": 70
    },
    {
      "midi": 79,
      "hit": false,
      "t": 40339.36000000079,
      "d": 85.22400000000198,
      "v": 80
    },
    {
      "midi": 24,
      "hit": false,
      "t": 40339.36000000079,
      "d": 94.69333333333634,
      "v": 127
    },
    {
      "midi": 67,
      "hit": false,
      "t": 40348.82933333412,
      "d": 94.69333333333634,
      "v": 70
    },
    {
      "midi": 72,
      "hit": false,
      "t": 40358.298666667455,
      "d": 94.69333333333634,
      "v": 70
    },
    {
      "midi": 84,
      "hit": false,
      "t": 40452.99200000079,
      "d": 85.22400000000198,
      "v": 80
    },
    {
      "midi": 24,
      "hit": false,
      "t": 40452.99200000079,
      "d": 94.69333333333634,
      "v": 127
    },
    {
      "midi": 15,
      "hit": false,
      "t": 40452.99200000079,
      "d": 94.69333333333634,
      "v": 100
    },
    {
      "midi": 13,
      "hit": false,
      "t": 40452.99200000079,
      "d": 94.69333333333634,
      "v": 100
    },
    {
      "midi": 10,
      "hit": false,
      "t": 40452.99200000079,
      "d": 94.69333333333634,
      "v": 127
    },
    {
      "midi": 127,
      "hit": false,
      "t": 40452.99200000079,
      "d": 94.69333333333634,
      "v": 60
    },
    {
      "midi": 108,
      "hit": false,
      "t": 40452.99200000079,
      "d": 94.69333333333634,
      "v": 80
    },
    {
      "midi": 105,
      "hit": false,
      "t": 40452.99200000079,
      "d": 94.69333333333634,
      "v": 100
    },
    {
      "midi": 42,
      "hit": false,
      "t": 40452.99200000079,
      "d": 94.69333333333634,
      "v": 92
    },
    {
      "midi": 72,
      "hit": false,
      "t": 40452.99200000079,
      "d": 94.69333333333634,
      "v": 70
    },
    {
      "midi": 118,
      "hit": false,
      "t": 40452.99200000079,
      "d": 94.69333333333634,
      "v": 50
    },
    {
      "midi": 63,
      "hit": false,
      "t": 40452.99200000079,
      "d": 94.69333333333634,
      "v": 70
    },
    {
      "midi": 60,
      "hit": false,
      "t": 40452.99200000079,
      "d": 198.85600000000704,
      "v": 115
    },
    {
      "midi": 65,
      "hit": false,
      "t": 40452.99200000079,
      "d": 208.3253333333414,
      "v": 127
    },
    {
      "midi": 55,
      "hit": false,
      "t": 40462.461333334126,
      "d": 9.469333333334362,
      "v": 115
    },
    {
      "midi": 67,
      "hit": false,
      "t": 40462.461333334126,
      "d": 94.69333333333634,
      "v": 70
    },
    {
      "midi": 43,
      "hit": false,
      "t": 40462.461333334126,
      "d": 208.3253333333414,
      "v": 105
    },
    {
      "midi": 52,
      "hit": false,
      "t": 40462.461333334126,
      "d": 208.3253333333414,
      "v": 115
    },
    {
      "midi": 64,
      "hit": false,
      "t": 40471.93066666746,
      "d": 94.69333333333634,
      "v": 70
    },
    {
      "midi": 48,
      "hit": false,
      "t": 40471.93066666746,
      "d": 189.38666666667268,
      "v": 115
    },
    {
      "midi": 88,
      "hit": false,
      "t": 40566.6240000008,
      "d": 85.22400000000198,
      "v": 80
    },
    {
      "midi": 42,
      "hit": false,
      "t": 40576.09333333413,
      "d": 94.69333333333634,
      "v": 78
    },
    {
      "midi": 48,
      "hit": false,
      "t": 40670.78666666747,
      "d": 9.469333333334362,
      "v": 80
    },
    {
      "midi": 43,
      "hit": false,
      "t": 40670.78666666747,
      "d": 94.69333333333634,
      "v": 80
    },
    {
      "midi": 48,
      "hit": false,
      "t": 40680.2560000008,
      "d": 85.22400000000198,
      "v": 95
    },
    {
      "midi": 84,
      "hit": false,
      "t": 40680.2560000008,
      "d": 85.22400000000198,
      "v": 80
    },
    {
      "midi": 24,
      "hit": false,
      "t": 40680.2560000008,
      "d": 94.69333333333634,
      "v": 127
    },
    {
      "midi": 52,
      "hit": false,
      "t": 40680.2560000008,
      "d": 94.69333333333634,
      "v": 95
    },
    {
      "midi": 55,
      "hit": false,
      "t": 40689.725333334136,
      "d": 9.469333333334362,
      "v": 95
    },
    {
      "midi": 60,
      "hit": false,
      "t": 40689.725333334136,
      "d": 85.22400000000198,
      "v": 95
    },
    {
      "midi": 67,
      "hit": false,
      "t": 40689.725333334136,
      "d": 94.69333333333634,
      "v": 70
    },
    {
      "midi": 64,
      "hit": false,
      "t": 40699.19466666747,
      "d": 75.75466666666762,
      "v": 95
    },
    {
      "midi": 46,
      "hit": false,
      "t": 40699.19466666747,
      "d": 94.69333333333634,
      "v": 92
    },
    {
      "midi": 72,
      "hit": false,
      "t": 40699.19466666747,
      "d": 94.69333333333634,
      "v": 70
    },
    {
      "midi": 64,
      "hit": false,
      "t": 40784.41866666747,
      "d": 9.469333333334362,
      "v": 100
    },
    {
      "midi": 79,
      "hit": false,
      "t": 40793.88800000081,
      "d": 85.22400000000198,
      "v": 80
    },
    {
      "midi": 24,
      "hit": false,
      "t": 40793.88800000081,
      "d": 94.69333333333634,
      "v": 127
    },
    {
      "midi": 72,
      "hit": false,
      "t": 40793.88800000081,
      "d": 94.69333333333634,
      "v": 70
    },
    {
      "midi": 118,
      "hit": false,
      "t": 40793.88800000081,
      "d": 94.69333333333634,
      "v": 50
    },
    {
      "midi": 60,
      "hit": false,
      "t": 40793.88800000081,
      "d": 198.85600000000704,
      "v": 115
    },
    {
      "midi": 43,
      "hit": false,
      "t": 40793.88800000081,
      "d": 208.3253333333414,
      "v": 100
    },
    {
      "midi": 55,
      "hit": false,
      "t": 40803.35733333414,
      "d": 9.469333333334362,
      "v": 115
    },
    {
      "midi": 67,
      "hit": false,
      "t": 40803.35733333414,
      "d": 94.69333333333634,
      "v": 70
    },
    {
      "midi": 52,
      "hit": false,
      "t": 40803.35733333414,
      "d": 208.3253333333414,
      "v": 115
    },
    {
      "midi": 64,
      "hit": false,
      "t": 40812.826666667475,
      "d": 75.75466666666762,
      "v": 70
    },
    {
      "midi": 48,
      "hit": false,
      "t": 40812.826666667475,
      "d": 198.85600000000704,
      "v": 115
    },
    {
      "midi": 76,
      "hit": false,
      "t": 40907.52000000081,
      "d": 85.22400000000198,
      "v": 80
    },
    {
      "midi": 24,
      "hit": false,
      "t": 40907.52000000081,
      "d": 94.69333333333634,
      "v": 127
    },
    {
      "midi": 15,
      "hit": false,
      "t": 40907.52000000081,
      "d": 94.69333333333634,
      "v": 100
    },
    {
      "midi": 13,
      "hit": false,
      "t": 40907.52000000081,
      "d": 94.69333333333634,
      "v": 100
    },
    {
      "midi": 10,
      "hit": false,
      "t": 40907.52000000081,
      "d": 94.69333333333634,
      "v": 127
    },
    {
      "midi": 42,
      "hit": false,
      "t": 40907.52000000081,
      "d": 94.69333333333634,
      "v": 92
    },
    {
      "midi": 48,
      "hit": false,
      "t": 41011.68266666748,
      "d": 9.469333333334362,
      "v": 90
    },
    {
      "midi": 43,
      "hit": false,
      "t": 41011.68266666748,
      "d": 94.69333333333634,
      "v": 90
    },
    {
      "midi": 48,
      "hit": false,
      "t": 41021.15200000082,
      "d": 85.22400000000198,
      "v": 95
    },
    {
      "midi": 72,
      "hit": false,
      "t": 41021.15200000082,
      "d": 85.22400000000198,
      "v": 80
    },
    {
      "midi": 52,
      "hit": false,
      "t": 41021.15200000082,
      "d": 94.69333333333634,
      "v": 95
    },
    {
      "midi": 118,
      "hit": false,
      "t": 41021.15200000082,
      "d": 94.69333333333634,
      "v": 50
    },
    {
      "midi": 55,
      "hit": false,
      "t": 41030.62133333415,
      "d": 85.22400000000198,
      "v": 95
    },
    {
      "midi": 60,
      "hit": false,
      "t": 41030.62133333415,
      "d": 85.22400000000198,
      "v": 95
    },
    {
      "midi": 42,
      "hit": false,
      "t": 41030.62133333415,
      "d": 94.69333333333634,
      "v": 78
    },
    {
      "midi": 64,
      "hit": false,
      "t": 41040.090666667485,
      "d": 85.22400000000198,
      "v": 95
    },
    {
      "midi": 64,
      "hit": false,
      "t": 41125.31466666749,
      "d": 9.469333333334362,
      "v": 90
    },
    {
      "midi": 67,
      "hit": false,
      "t": 41134.78400000082,
      "d": 85.22400000000198,
      "v": 80
    },
    {
      "midi": 118,
      "hit": false,
      "t": 41134.78400000082,
      "d": 94.69333333333634,
      "v": 30
    },
    {
      "midi": 60,
      "hit": false,
      "t": 41134.78400000082,
      "d": 198.85599999999977,
      "v": 95
    },
    {
      "midi": 24,
      "hit": false,
      "t": 41134.78400000082,
      "d": 208.32533333333413,
      "v": 127
    },
    {
      "midi": 62,
      "hit": false,
      "t": 41134.78400000082,
      "d": 426.1200000000099,
      "v": 127
    },
    {
      "midi": 55,
      "hit": false,
      "t": 41144.253333334156,
      "d": 198.85599999999977,
      "v": 95
    },
    {
      "midi": 43,
      "hit": false,
      "t": 41144.253333334156,
      "d": 208.32533333333413,
      "v": 90
    },
    {
      "midi": 52,
      "hit": false,
      "t": 41144.253333334156,
      "d": 208.32533333333413,
      "v": 95
    },
    {
      "midi": 46,
      "hit": false,
      "t": 41153.72266666749,
      "d": 94.69333333333634,
      "v": 92
    },
    {
      "midi": 48,
      "hit": false,
      "t": 41153.72266666749,
      "d": 189.3866666666654,
      "v": 95
    },
    {
      "midi": 64,
      "hit": false,
      "t": 41248.41600000083,
      "d": 85.2239999999947,
      "v": 80
    },
    {
      "midi": 63,
      "hit": false,
      "t": 41248.41600000083,
      "d": 94.69333333332906,
      "v": 80
    },
    {
      "midi": 48,
      "hit": false,
      "t": 41352.57866666749,
      "d": 9.469333333334362,
      "v": 105
    },
    {
      "midi": 43,
      "hit": false,
      "t": 41352.57866666749,
      "d": 94.69333333333634,
      "v": 105
    },
    {
      "midi": 48,
      "hit": false,
      "t": 41362.048000000825,
      "d": 85.22400000000198,
      "v": 115
    },
    {
      "midi": 24,
      "hit": false,
      "t": 41362.048000000825,
      "d": 94.69333333333634,
      "v": 127
    },
    {
      "midi": 15,
      "hit": false,
      "t": 41362.048000000825,
      "d": 94.69333333333634,
      "v": 100
    },
    {
      "midi": 13,
      "hit": false,
      "t": 41362.048000000825,
      "d": 94.69333333333634,
      "v": 100
    },
    {
      "midi": 10,
      "hit": false,
      "t": 41362.048000000825,
      "d": 94.69333333333634,
      "v": 127
    },
    {
      "midi": 127,
      "hit": false,
      "t": 41362.048000000825,
      "d": 94.69333333333634,
      "v": 60
    },
    {
      "midi": 108,
      "hit": false,
      "t": 41362.048000000825,
      "d": 94.69333333333634,
      "v": 80
    },
    {
      "midi": 105,
      "hit": false,
      "t": 41362.048000000825,
      "d": 94.69333333333634,
      "v": 100
    },
    {
      "midi": 42,
      "hit": false,
      "t": 41362.048000000825,
      "d": 94.69333333333634,
      "v": 92
    },
    {
      "midi": 52,
      "hit": false,
      "t": 41362.048000000825,
      "d": 94.69333333333634,
      "v": 115
    },
    {
      "midi": 118,
      "hit": false,
      "t": 41362.048000000825,
      "d": 94.69333333333634,
      "v": 50
    },
    {
      "midi": 60,
      "hit": false,
      "t": 41371.51733333416,
      "d": 75.75466666666762,
      "v": 115
    },
    {
      "midi": 55,
      "hit": false,
      "t": 41371.51733333416,
      "d": 85.22400000000198,
      "v": 115
    },
    {
      "midi": 64,
      "hit": false,
      "t": 41380.98666666749,
      "d": 75.75466666666762,
      "v": 115
    },
    {
      "midi": 64,
      "hit": false,
      "t": 41466.210666667495,
      "d": 9.469333333334362,
      "v": 90
    },
    {
      "midi": 64,
      "hit": false,
      "t": 41475.68000000083,
      "d": 85.22400000000198,
      "v": 105
    },
    {
      "midi": 60,
      "hit": false,
      "t": 41475.68000000083,
      "d": 85.22400000000198,
      "v": 105
    },
    {
      "midi": 23,
      "hit": false,
      "t": 41475.68000000083,
      "d": 94.69333333333634,
      "v": 127
    },
    {
      "midi": 55,
      "hit": false,
      "t": 41485.149333334164,
      "d": 85.22400000000198,
      "v": 105
    },
    {
      "midi": 43,
      "hit": false,
      "t": 41485.149333334164,
      "d": 94.69333333333634,
      "v": 90
    },
    {
      "midi": 42,
      "hit": false,
      "t": 41485.149333334164,
      "d": 94.69333333333634,
      "v": 78
    },
    {
      "midi": 52,
      "hit": false,
      "t": 41485.149333334164,
      "d": 94.69333333333634,
      "v": 105
    },
    {
      "midi": 48,
      "hit": false,
      "t": 41494.6186666675,
      "d": 75.75466666666762,
      "v": 105
    },
    {
      "midi": 48,
      "hit": false,
      "t": 41579.8426666675,
      "d": 9.469333333334362,
      "v": 90
    },
    {
      "midi": 43,
      "hit": false,
      "t": 41579.8426666675,
      "d": 94.69333333333634,
      "v": 90
    },
    {
      "midi": 48,
      "hit": false,
      "t": 41589.312000000835,
      "d": 85.22400000000198,
      "v": 95
    },
    {
      "midi": 67,
      "hit": false,
      "t": 41589.312000000835,
      "d": 85.22400000000198,
      "v": 80
    },
    {
      "midi": 19,
      "hit": false,
      "t": 41589.312000000835,
      "d": 94.69333333333634,
      "v": 127
    },
    {
      "midi": 15,
      "hit": false,
      "t": 41589.312000000835,
      "d": 94.69333333333634,
      "v": 100
    },
    {
      "midi": 13,
      "hit": false,
      "t": 41589.312000000835,
      "d": 94.69333333333634,
      "v": 100
    },
    {
      "midi": 10,
      "hit": false,
      "t": 41589.312000000835,
      "d": 94.69333333333634,
      "v": 127
    },
    {
      "midi": 52,
      "hit": false,
      "t": 41589.312000000835,
      "d": 94.69333333333634,
      "v": 95
    },
    {
      "midi": 118,
      "hit": false,
      "t": 41589.312000000835,
      "d": 94.69333333333634,
      "v": 50
    },
    {
      "midi": 55,
      "hit": false,
      "t": 41598.78133333417,
      "d": 85.22400000000198,
      "v": 95
    },
    {
      "midi": 60,
      "hit": false,
      "t": 41598.78133333417,
      "d": 85.22400000000198,
      "v": 95
    },
    {
      "midi": 64,
      "hit": false,
      "t": 41608.2506666675,
      "d": 85.22400000000198,
      "v": 95
    },
    {
      "midi": 46,
      "hit": false,
      "t": 41608.2506666675,
      "d": 94.69333333333634,
      "v": 92
    },
    {
      "midi": 64,
      "hit": false,
      "t": 41693.474666667506,
      "d": 9.469333333334362,
      "v": 80
    },
    {
      "midi": 64,
      "hit": false,
      "t": 41702.94400000084,
      "d": 85.22400000000198,
      "v": 115
    },
    {
      "midi": 60,
      "hit": false,
      "t": 41702.94400000084,
      "d": 85.22400000000198,
      "v": 115
    },
    {
      "midi": 72,
      "hit": false,
      "t": 41702.94400000084,
      "d": 85.22400000000198,
      "v": 80
    },
    {
      "midi": 118,
      "hit": false,
      "t": 41702.94400000084,
      "d": 94.69333333333634,
      "v": 30
    },
    {
      "midi": 55,
      "hit": false,
      "t": 41712.413333334174,
      "d": 85.22400000000198,
      "v": 115
    },
    {
      "midi": 43,
      "hit": false,
      "t": 41712.413333334174,
      "d": 94.69333333333634,
      "v": 80
    },
    {
      "midi": 52,
      "hit": false,
      "t": 41712.413333334174,
      "d": 94.69333333333634,
      "v": 115
    },
    {
      "midi": 48,
      "hit": false,
      "t": 41721.88266666751,
      "d": 75.75466666666762,
      "v": 115
    },
    {
      "midi": 60,
      "hit": false,
      "t": 41816.576000000845,
      "d": 18.938666666668723,
      "v": 115
    },
    {
      "midi": 29,
      "hit": false,
      "t": 41816.576000000845,
      "d": 94.69333333333634,
      "v": 127
    },
    {
      "midi": 15,
      "hit": false,
      "t": 41816.576000000845,
      "d": 94.69333333333634,
      "v": 100
    },
    {
      "midi": 13,
      "hit": false,
      "t": 41816.576000000845,
      "d": 94.69333333333634,
      "v": 100
    },
    {
      "midi": 10,
      "hit": false,
      "t": 41816.576000000845,
      "d": 94.69333333333634,
      "v": 127
    },
    {
      "midi": 42,
      "hit": false,
      "t": 41816.576000000845,
      "d": 94.69333333333634,
      "v": 92
    },
    {
      "midi": 72,
      "hit": false,
      "t": 41816.576000000845,
      "d": 94.69333333333634,
      "v": 70
    },
    {
      "midi": 57,
      "hit": false,
      "t": 41826.04533333418,
      "d": 18.938666666668723,
      "v": 115
    },
    {
      "midi": 53,
      "hit": false,
      "t": 41826.04533333418,
      "d": 28.408000000003085,
      "v": 90
    },
    {
      "midi": 69,
      "hit": false,
      "t": 41826.04533333418,
      "d": 75.75466666666762,
      "v": 70
    },
    {
      "midi": 52,
      "hit": false,
      "t": 41826.04533333418,
      "d": 416.6506666666901,
      "v": 115
    },
    {
      "midi": 65,
      "hit": false,
      "t": 41835.514666667514,
      "d": 94.69333333333634,
      "v": 70
    },
    {
      "midi": 48,
      "hit": false,
      "t": 41835.514666667514,
      "d": 416.6506666666901,
      "v": 115
    },
    {
      "midi": 41,
      "hit": false,
      "t": 41835.514666667514,
      "d": 416.6506666666901,
      "v": 115
    },
    {
      "midi": 53,
      "hit": false,
      "t": 41920.738666667516,
      "d": 28.408000000003085,
      "v": 90
    },
    {
      "midi": 57,
      "hit": false,
      "t": 41930.20800000085,
      "d": 28.408000000003085,
      "v": 90
    },
    {
      "midi": 74,
      "hit": false,
      "t": 41930.20800000085,
      "d": 85.22400000000198,
      "v": 80
    },
    {
      "midi": 29,
      "hit": false,
      "t": 41930.20800000085,
      "d": 94.69333333333634,
      "v": 127
    },
    {
      "midi": 65,
      "hit": false,
      "t": 41930.20800000085,
      "d": 94.69333333333634,
      "v": 70
    },
    {
      "midi": 60,
      "hit": false,
      "t": 41939.677333334184,
      "d": 28.408000000003085,
      "v": 90
    },
    {
      "midi": 42,
      "hit": false,
      "t": 41939.677333334184,
      "d": 94.69333333333634,
      "v": 78
    },
    {
      "midi": 69,
      "hit": false,
      "t": 41939.677333334184,
      "d": 94.69333333333634,
      "v": 70
    },
    {
      "midi": 72,
      "hit": false,
      "t": 41949.14666666752,
      "d": 94.69333333333634,
      "v": 70
    },
    {
      "midi": 60,
      "hit": false,
      "t": 42034.37066666752,
      "d": 28.408000000003085,
      "v": 60
    },
    {
      "midi": 57,
      "hit": false,
      "t": 42043.840000000855,
      "d": 28.408000000003085,
      "v": 60
    },
    {
      "midi": 72,
      "hit": false,
      "t": 42043.840000000855,
      "d": 47.34666666667181,
      "v": 70
    },
    {
      "midi": 77,
      "hit": false,
      "t": 42043.840000000855,
      "d": 85.22400000000926,
      "v": 80
    },
    {
      "midi": 29,
      "hit": false,
      "t": 42043.840000000855,
      "d": 94.69333333334362,
      "v": 127
    },
    {
      "midi": 53,
      "hit": false,
      "t": 42053.30933333419,
      "d": 28.408000000003085,
      "v": 60
    },
    {
      "midi": 69,
      "hit": false,
      "t": 42053.30933333419,
      "d": 47.34666666667181,
      "v": 70
    },
    {
      "midi": 65,
      "hit": false,
      "t": 42062.778666667524,
      "d": 47.34666666667181,
      "v": 70
    },
    {
      "midi": 46,
      "hit": false,
      "t": 42062.778666667524,
      "d": 94.69333333334362,
      "v": 92
    },
    {
      "midi": 53,
      "hit": false,
      "t": 42148.00266666753,
      "d": 28.408000000003085,
      "v": 90
    },
    {
      "midi": 57,
      "hit": false,
      "t": 42157.47200000087,
      "d": 28.408000000003085,
      "v": 90
    },
    {
      "midi": 65,
      "hit": false,
      "t": 42157.47200000087,
      "d": 75.75466666666762,
      "v": 70
    },
    {
      "midi": 81,
      "hit": false,
      "t": 42157.47200000087,
      "d": 85.22400000000198,
      "v": 80
    },
    {
      "midi": 29,
      "hit": false,
      "t": 42157.47200000087,
      "d": 94.69333333333634,
      "v": 127
    },
    {
      "midi": 64,
      "hit": false,
      "t": 42157.47200000087,
      "d": 94.69333333333634,
      "v": 70
    },
    {
      "midi": 60,
      "hit": false,
      "t": 42166.9413333342,
      "d": 28.408000000003085,
      "v": 90
    },
    {
      "midi": 69,
      "hit": false,
      "t": 42166.9413333342,
      "d": 94.69333333333634,
      "v": 70
    },
    {
      "midi": 72,
      "hit": false,
      "t": 42176.410666667536,
      "d": 94.69333333333634,
      "v": 70
    },
    {
      "midi": 60,
      "hit": false,
      "t": 42271.10400000087,
      "d": 18.938666666668723,
      "v": 115
    },
    {
      "midi": 86,
      "hit": false,
      "t": 42271.10400000087,
      "d": 85.22400000000926,
      "v": 80
    },
    {
      "midi": 29,
      "hit": false,
      "t": 42271.10400000087,
      "d": 94.69333333334362,
      "v": 127
    },
    {
      "midi": 15,
      "hit": false,
      "t": 42271.10400000087,
      "d": 94.69333333334362,
      "v": 100
    },
    {
      "midi": 13,
      "hit": false,
      "t": 42271.10400000087,
      "d": 94.69333333334362,
      "v": 100
    },
    {
      "midi": 10,
      "hit": false,
      "t": 42271.10400000087,
      "d": 94.69333333334362,
      "v": 127
    },
    {
      "midi": 127,
      "hit": false,
      "t": 42271.10400000087,
      "d": 94.69333333334362,
      "v": 60
    },
    {
      "midi": 108,
      "hit": false,
      "t": 42271.10400000087,
      "d": 94.69333333334362,
      "v": 80
    },
    {
      "midi": 105,
      "hit": false,
      "t": 42271.10400000087,
      "d": 94.69333333334362,
      "v": 100
    },
    {
      "midi": 42,
      "hit": false,
      "t": 42271.10400000087,
      "d": 94.69333333334362,
      "v": 92
    },
    {
      "midi": 72,
      "hit": false,
      "t": 42271.10400000087,
      "d": 94.69333333334362,
      "v": 70
    },
    {
      "midi": 118,
      "hit": false,
      "t": 42271.10400000087,
      "d": 94.69333333334362,
      "v": 50
    },
    {
      "midi": 63,
      "hit": false,
      "t": 42271.10400000087,
      "d": 94.69333333334362,
      "v": 70
    },
    {
      "midi": 57,
      "hit": false,
      "t": 42280.57333333421,
      "d": 18.938666666668723,
      "v": 115
    },
    {
      "midi": 53,
      "hit": false,
      "t": 42280.57333333421,
      "d": 28.408000000003085,
      "v": 90
    },
    {
      "midi": 69,
      "hit": false,
      "t": 42280.57333333421,
      "d": 94.69333333334362,
      "v": 70
    },
    {
      "midi": 52,
      "hit": false,
      "t": 42280.57333333421,
      "d": 198.85600000001432,
      "v": 115
    },
    {
      "midi": 65,
      "hit": false,
      "t": 42290.04266666754,
      "d": 94.69333333334362,
      "v": 70
    },
    {
      "midi": 48,
      "hit": false,
      "t": 42290.04266666754,
      "d": 198.85600000001432,
      "v": 115
    },
    {
      "midi": 41,
      "hit": false,
      "t": 42290.04266666754,
      "d": 198.85600000001432,
      "v": 115
    },
    {
      "midi": 89,
      "hit": false,
      "t": 42384.736000000885,
      "d": 85.22400000000198,
      "v": 80
    },
    {
      "midi": 42,
      "hit": false,
      "t": 42394.20533333422,
      "d": 94.69333333333634,
      "v": 78
    },
    {
      "midi": 48,
      "hit": false,
      "t": 42488.898666667556,
      "d": 9.469333333334362,
      "v": 70
    },
    {
      "midi": 41,
      "hit": false,
      "t": 42488.898666667556,
      "d": 9.469333333334362,
      "v": 70
    },
    {
      "midi": 53,
      "hit": false,
      "t": 42488.898666667556,
      "d": 28.408000000003085,
      "v": 90
    },
    {
      "midi": 41,
      "hit": false,
      "t": 42498.36800000089,
      "d": 85.22400000000198,
      "v": 95
    },
    {
      "midi": 48,
      "hit": false,
      "t": 42498.36800000089,
      "d": 85.22400000000198,
      "v": 95
    },
    {
      "midi": 93,
      "hit": false,
      "t": 42498.36800000089,
      "d": 85.22400000000198,
      "v": 80
    },
    {
      "midi": 29,
      "hit": false,
      "t": 42498.36800000089,
      "d": 94.69333333333634,
      "v": 127
    },
    {
      "midi": 57,
      "hit": false,
      "t": 42507.837333334224,
      "d": 18.938666666668723,
      "v": 95
    },
    {
      "midi": 52,
      "hit": false,
      "t": 42507.837333334224,
      "d": 85.22400000000198,
      "v": 95
    },
    {
      "midi": 69,
      "hit": false,
      "t": 42507.837333334224,
      "d": 94.69333333333634,
      "v": 70
    },
    {
      "midi": 60,
      "hit": false,
      "t": 42517.30666666756,
      "d": 18.938666666668723,
      "v": 95
    },
    {
      "midi": 65,
      "hit": false,
      "t": 42517.30666666756,
      "d": 75.75466666666762,
      "v": 95
    },
    {
      "midi": 46,
      "hit": false,
      "t": 42517.30666666756,
      "d": 94.69333333333634,
      "v": 92
    },
    {
      "midi": 72,
      "hit": false,
      "t": 42517.30666666756,
      "d": 94.69333333333634,
      "v": 70
    },
    {
      "midi": 60,
      "hit": false,
      "t": 42602.53066666756,
      "d": 9.469333333334362,
      "v": 90
    },
    {
      "midi": 65,
      "hit": false,
      "t": 42602.53066666756,
      "d": 9.469333333334362,
      "v": 95
    },
    {
      "midi": 60,
      "hit": false,
      "t": 42612.000000000895,
      "d": 18.938666666668723,
      "v": 115
    },
    {
      "midi": 89,
      "hit": false,
      "t": 42612.000000000895,
      "d": 85.22400000000198,
      "v": 80
    },
    {
      "midi": 29,
      "hit": false,
      "t": 42612.000000000895,
      "d": 94.69333333333634,
      "v": 127
    },
    {
      "midi": 72,
      "hit": false,
      "t": 42612.000000000895,
      "d": 94.69333333333634,
      "v": 70
    },
    {
      "midi": 118,
      "hit": false,
      "t": 42612.000000000895,
      "d": 94.69333333333634,
      "v": 50
    },
    {
      "midi": 57,
      "hit": false,
      "t": 42621.46933333423,
      "d": 18.938666666668723,
      "v": 115
    },
    {
      "midi": 53,
      "hit": false,
      "t": 42621.46933333423,
      "d": 28.408000000003085,
      "v": 90
    },
    {
      "midi": 52,
      "hit": false,
      "t": 42621.46933333423,
      "d": 85.22400000000198,
      "v": 115
    },
    {
      "midi": 69,
      "hit": false,
      "t": 42621.46933333423,
      "d": 94.69333333333634,
      "v": 70
    },
    {
      "midi": 65,
      "hit": false,
      "t": 42630.938666667564,
      "d": 66.28533333333326,
      "v": 70
    },
    {
      "midi": 48,
      "hit": false,
      "t": 42630.938666667564,
      "d": 85.22400000000198,
      "v": 115
    },
    {
      "midi": 41,
      "hit": false,
      "t": 42630.938666667564,
      "d": 85.22400000000198,
      "v": 115
    },
    {
      "midi": 41,
      "hit": false,
      "t": 42716.162666667566,
      "d": 94.69333333333634,
      "v": 80
    },
    {
      "midi": 48,
      "hit": false,
      "t": 42716.162666667566,
      "d": 94.69333333333634,
      "v": 80
    },
    {
      "midi": 86,
      "hit": false,
      "t": 42725.6320000009,
      "d": 85.22400000000198,
      "v": 80
    },
    {
      "midi": 29,
      "hit": false,
      "t": 42725.6320000009,
      "d": 94.69333333333634,
      "v": 127
    },
    {
      "midi": 52,
      "hit": false,
      "t": 42725.6320000009,
      "d": 94.69333333333634,
      "v": 80
    },
    {
      "midi": 57,
      "hit": false,
      "t": 42725.6320000009,
      "d": 94.69333333333634,
      "v": 80
    },
    {
      "midi": 15,
      "hit": false,
      "t": 42725.6320000009,
      "d": 94.69333333333634,
      "v": 100
    },
    {
      "midi": 13,
      "hit": false,
      "t": 42725.6320000009,
      "d": 94.69333333333634,
      "v": 100
    },
    {
      "midi": 10,
      "hit": false,
      "t": 42725.6320000009,
      "d": 94.69333333333634,
      "v": 127
    },
    {
      "midi": 42,
      "hit": false,
      "t": 42725.6320000009,
      "d": 94.69333333333634,
      "v": 92
    },
    {
      "midi": 65,
      "hit": false,
      "t": 42735.101333334234,
      "d": 85.22400000000198,
      "v": 80
    },
    {
      "midi": 60,
      "hit": false,
      "t": 42735.101333334234,
      "d": 85.22400000000198,
      "v": 80
    },
    {
      "midi": 81,
      "hit": false,
      "t": 42839.264000000905,
      "d": 85.22400000000198,
      "v": 80
    },
    {
      "midi": 118,
      "hit": false,
      "t": 42839.264000000905,
      "d": 94.69333333333634,
      "v": 50
    },
    {
      "midi": 57,
      "hit": false,
      "t": 42848.73333333424,
      "d": 85.22400000000198,
      "v": 95
    },
    {
      "midi": 52,
      "hit": false,
      "t": 42848.73333333424,
      "d": 85.22400000000198,
      "v": 95
    },
    {
      "midi": 41,
      "hit": false,
      "t": 42848.73333333424,
      "d": 85.22400000000198,
      "v": 90
    },
    {
      "midi": 48,
      "hit": false,
      "t": 42848.73333333424,
      "d": 85.22400000000198,
      "v": 90
    },
    {
      "midi": 42,
      "hit": false,
      "t": 42848.73333333424,
      "d": 94.69333333333634,
      "v": 78
    },
    {
      "midi": 65,
      "hit": false,
      "t": 42858.202666667574,
      "d": 66.28533333333326,
      "v": 95
    },
    {
      "midi": 60,
      "hit": false,
      "t": 42858.202666667574,
      "d": 66.28533333333326,
      "v": 95
    },
    {
      "midi": 77,
      "hit": false,
      "t": 42952.89600000091,
      "d": 85.22400000000198,
      "v": 80
    },
    {
      "midi": 118,
      "hit": false,
      "t": 42952.89600000091,
      "d": 94.69333333333634,
      "v": 30
    },
    {
      "midi": 29,
      "hit": false,
      "t": 42952.89600000091,
      "d": 208.3253333333414,
      "v": 127
    },
    {
      "midi": 52,
      "hit": false,
      "t": 42962.365333334244,
      "d": 85.22400000000198,
      "v": 95
    },
    {
      "midi": 57,
      "hit": false,
      "t": 42962.365333334244,
      "d": 85.22400000000198,
      "v": 95
    },
    {
      "midi": 65,
      "hit": false,
      "t": 42962.365333334244,
      "d": 85.22400000000198,
      "v": 100
    },
    {
      "midi": 60,
      "hit": false,
      "t": 42962.365333334244,
      "d": 85.22400000000198,
      "v": 100
    },
    {
      "midi": 41,
      "hit": false,
      "t": 42971.83466666758,
      "d": 66.28533333333326,
      "v": 95
    },
    {
      "midi": 48,
      "hit": false,
      "t": 42971.83466666758,
      "d": 66.28533333333326,
      "v": 95
    },
    {
      "midi": 46,
      "hit": false,
      "t": 42971.83466666758,
      "d": 94.69333333333634,
      "v": 92
    },
    {
      "midi": 74,
      "hit": false,
      "t": 43066.528000000915,
      "d": 85.22400000000198,
      "v": 80
    },
    {
      "midi": 63,
      "hit": false,
      "t": 43066.528000000915,
      "d": 94.69333333333634,
      "v": 80
    },
    {
      "midi": 57,
      "hit": false,
      "t": 43075.99733333425,
      "d": 85.22400000000198,
      "v": 95
    },
    {
      "midi": 52,
      "hit": false,
      "t": 43075.99733333425,
      "d": 85.22400000000198,
      "v": 95
    },
    {
      "midi": 41,
      "hit": false,
      "t": 43075.99733333425,
      "d": 85.22400000000198,
      "v": 80
    },
    {
      "midi": 48,
      "hit": false,
      "t": 43075.99733333425,
      "d": 85.22400000000198,
      "v": 80
    },
    {
      "midi": 65,
      "hit": false,
      "t": 43085.466666667584,
      "d": 66.28533333333326,
      "v": 95
    },
    {
      "midi": 60,
      "hit": false,
      "t": 43085.466666667584,
      "d": 66.28533333333326,
      "v": 95
    },
    {
      "midi": 69,
      "hit": false,
      "t": 43180.16000000092,
      "d": 85.22400000000198,
      "v": 80
    },
    {
      "midi": 29,
      "hit": false,
      "t": 43180.16000000092,
      "d": 94.69333333333634,
      "v": 127
    },
    {
      "midi": 15,
      "hit": false,
      "t": 43180.16000000092,
      "d": 94.69333333333634,
      "v": 100
    },
    {
      "midi": 13,
      "hit": false,
      "t": 43180.16000000092,
      "d": 94.69333333333634,
      "v": 100
    },
    {
      "midi": 10,
      "hit": false,
      "t": 43180.16000000092,
      "d": 94.69333333333634,
      "v": 127
    },
    {
      "midi": 127,
      "hit": false,
      "t": 43180.16000000092,
      "d": 94.69333333333634,
      "v": 60
    },
    {
      "midi": 108,
      "hit": false,
      "t": 43180.16000000092,
      "d": 94.69333333333634,
      "v": 80
    },
    {
      "midi": 105,
      "hit": false,
      "t": 43180.16000000092,
      "d": 94.69333333333634,
      "v": 100
    },
    {
      "midi": 42,
      "hit": false,
      "t": 43180.16000000092,
      "d": 94.69333333333634,
      "v": 92
    },
    {
      "midi": 118,
      "hit": false,
      "t": 43180.16000000092,
      "d": 94.69333333333634,
      "v": 50
    },
    {
      "midi": 64,
      "hit": false,
      "t": 43180.16000000092,
      "d": 94.69333333333634,
      "v": 70
    },
    {
      "midi": 59,
      "hit": false,
      "t": 43180.16000000092,
      "d": 208.3253333333414,
      "v": 127
    },
    {
      "midi": 52,
      "hit": false,
      "t": 43189.629333334255,
      "d": 198.85600000000704,
      "v": 115
    },
    {
      "midi": 57,
      "hit": false,
      "t": 43189.629333334255,
      "d": 198.85600000000704,
      "v": 115
    },
    {
      "midi": 60,
      "hit": false,
      "t": 43189.629333334255,
      "d": 198.85600000000704,
      "v": 100
    },
    {
      "midi": 41,
      "hit": false,
      "t": 43199.09866666759,
      "d": 179.91733333333832,
      "v": 115
    },
    {
      "midi": 48,
      "hit": false,
      "t": 43199.09866666759,
      "d": 179.91733333333832,
      "v": 115
    },
    {
      "midi": 65,
      "hit": false,
      "t": 43293.792000000925,
      "d": 85.22400000000198,
      "v": 80
    },
    {
      "midi": 29,
      "hit": false,
      "t": 43293.792000000925,
      "d": 94.69333333333634,
      "v": 127
    },
    {
      "midi": 42,
      "hit": false,
      "t": 43303.26133333426,
      "d": 94.69333333333634,
      "v": 78
    },
    {
      "midi": 69,
      "hit": false,
      "t": 43407.42400000093,
      "d": 85.22400000000198,
      "v": 80
    },
    {
      "midi": 29,
      "hit": false,
      "t": 43407.42400000093,
      "d": 94.69333333333634,
      "v": 127
    },
    {
      "midi": 118,
      "hit": false,
      "t": 43407.42400000093,
      "d": 94.69333333333634,
      "v": 50
    },
    {
      "midi": 57,
      "hit": false,
      "t": 43416.893333334265,
      "d": 85.22400000000198,
      "v": 95
    },
    {
      "midi": 52,
      "hit": false,
      "t": 43416.893333334265,
      "d": 85.22400000000198,
      "v": 95
    },
    {
      "midi": 41,
      "hit": false,
      "t": 43416.893333334265,
      "d": 85.22400000000198,
      "v": 80
    },
    {
      "midi": 48,
      "hit": false,
      "t": 43416.893333334265,
      "d": 85.22400000000198,
      "v": 80
    },
    {
      "midi": 65,
      "hit": false,
      "t": 43426.3626666676,
      "d": 66.28533333333326,
      "v": 95
    },
    {
      "midi": 60,
      "hit": false,
      "t": 43426.3626666676,
      "d": 66.28533333333326,
      "v": 95
    },
    {
      "midi": 46,
      "hit": false,
      "t": 43426.3626666676,
      "d": 94.69333333333634,
      "v": 92
    },
    {
      "midi": 74,
      "hit": false,
      "t": 43521.056000000935,
      "d": 85.22400000000198,
      "v": 80
    },
    {
      "midi": 118,
      "hit": false,
      "t": 43521.056000000935,
      "d": 94.69333333333634,
      "v": 30
    },
    {
      "midi": 60,
      "hit": false,
      "t": 43530.52533333427,
      "d": 85.22400000000198,
      "v": 90
    },
    {
      "midi": 52,
      "hit": false,
      "t": 43530.52533333427,
      "d": 85.22400000000198,
      "v": 95
    },
    {
      "midi": 57,
      "hit": false,
      "t": 43530.52533333427,
      "d": 85.22400000000198,
      "v": 95
    },
    {
      "midi": 65,
      "hit": false,
      "t": 43530.52533333427,
      "d": 85.22400000000198,
      "v": 90
    },
    {
      "midi": 41,
      "hit": false,
      "t": 43539.994666667604,
      "d": 66.28533333333326,
      "v": 95
    },
    {
      "midi": 48,
      "hit": false,
      "t": 43539.994666667604,
      "d": 66.28533333333326,
      "v": 95
    },
    {
      "midi": 74,
      "hit": false,
      "t": 43634.68800000094,
      "d": 18.938666666668723,
      "v": 70
    },
    {
      "midi": 26,
      "hit": false,
      "t": 43634.68800000094,
      "d": 94.69333333333634,
      "v": 127
    },
    {
      "midi": 15,
      "hit": false,
      "t": 43634.68800000094,
      "d": 94.69333333333634,
      "v": 100
    },
    {
      "midi": 13,
      "hit": false,
      "t": 43634.68800000094,
      "d": 94.69333333333634,
      "v": 100
    },
    {
      "midi": 10,
      "hit": false,
      "t": 43634.68800000094,
      "d": 94.69333333333634,
      "v": 127
    },
    {
      "midi": 42,
      "hit": false,
      "t": 43634.68800000094,
      "d": 94.69333333333634,
      "v": 92
    },
    {
      "midi": 57,
      "hit": false,
      "t": 43634.68800000094,
      "d": 303.018666666685,
      "v": 115
    },
    {
      "midi": 62,
      "hit": false,
      "t": 43634.68800000094,
      "d": 416.6506666666901,
      "v": 115
    },
    {
      "midi": 69,
      "hit": false,
      "t": 43644.157333334275,
      "d": 18.938666666668723,
      "v": 70
    },
    {
      "midi": 53,
      "hit": false,
      "t": 43644.157333334275,
      "d": 416.6506666666901,
      "v": 115
    },
    {
      "midi": 45,
      "hit": false,
      "t": 43644.157333334275,
      "d": 416.6506666666901,
      "v": 115
    },
    {
      "midi": 65,
      "hit": false,
      "t": 43653.62666666761,
      "d": 18.938666666668723,
      "v": 70
    },
    {
      "midi": 38,
      "hit": false,
      "t": 43653.62666666761,
      "d": 416.6506666666901,
      "v": 115
    },
    {
      "midi": 65,
      "hit": false,
      "t": 43738.85066666761,
      "d": 9.469333333334362,
      "v": 70
    },
    {
      "midi": 65,
      "hit": false,
      "t": 43748.320000000946,
      "d": 18.938666666668723,
      "v": 70
    },
    {
      "midi": 26,
      "hit": false,
      "t": 43748.320000000946,
      "d": 94.69333333333634,
      "v": 127
    },
    {
      "midi": 69,
      "hit": false,
      "t": 43757.78933333428,
      "d": 18.938666666668723,
      "v": 70
    },
    {
      "midi": 42,
      "hit": false,
      "t": 43757.78933333428,
      "d": 94.69333333333634,
      "v": 78
    },
    {
      "midi": 74,
      "hit": false,
      "t": 43767.258666667614,
      "d": 18.938666666668723,
      "v": 70
    },
    {
      "midi": 74,
      "hit": false,
      "t": 43852.482666667616,
      "d": 9.469333333334362,
      "v": 30
    },
    {
      "midi": 74,
      "hit": false,
      "t": 43861.95200000095,
      "d": 9.469333333334362,
      "v": 60
    },
    {
      "midi": 69,
      "hit": false,
      "t": 43861.95200000095,
      "d": 9.469333333334362,
      "v": 60
    },
    {
      "midi": 65,
      "hit": false,
      "t": 43861.95200000095,
      "d": 9.469333333334362,
      "v": 60
    },
    {
      "midi": 77,
      "hit": false,
      "t": 43861.95200000095,
      "d": 85.22400000000926,
      "v": 80
    },
    {
      "midi": 26,
      "hit": false,
      "t": 43861.95200000095,
      "d": 94.69333333334362,
      "v": 127
    },
    {
      "midi": 65,
      "hit": false,
      "t": 43871.421333334285,
      "d": 28.408000000003085,
      "v": 30
    },
    {
      "midi": 46,
      "hit": false,
      "t": 43880.89066666762,
      "d": 94.69333333334362,
      "v": 92
    },
    {
      "midi": 65,
      "hit": false,
      "t": 43975.58400000096,
      "d": 18.938666666668723,
      "v": 70
    },
    {
      "midi": 81,
      "hit": false,
      "t": 43975.58400000096,
      "d": 85.22400000000198,
      "v": 80
    },
    {
      "midi": 26,
      "hit": false,
      "t": 43975.58400000096,
      "d": 94.69333333333634,
      "v": 127
    },
    {
      "midi": 64,
      "hit": false,
      "t": 43975.58400000096,
      "d": 94.69333333333634,
      "v": 70
    },
    {
      "midi": 69,
      "hit": false,
      "t": 43985.0533333343,
      "d": 18.938666666668723,
      "v": 70
    },
    {
      "midi": 74,
      "hit": false,
      "t": 43994.52266666763,
      "d": 18.938666666668723,
      "v": 70
    },
    {
      "midi": 74,
      "hit": false,
      "t": 44079.746666667634,
      "d": 9.469333333334362,
      "v": 70
    },
    {
      "midi": 74,
      "hit": false,
      "t": 44089.21600000097,
      "d": 18.938666666668723,
      "v": 70
    },
    {
      "midi": 86,
      "hit": false,
      "t": 44089.21600000097,
      "d": 85.22400000000198,
      "v": 80
    },
    {
      "midi": 26,
      "hit": false,
      "t": 44089.21600000097,
      "d": 94.69333333333634,
      "v": 127
    },
    {
      "midi": 15,
      "hit": false,
      "t": 44089.21600000097,
      "d": 94.69333333333634,
      "v": 100
    },
    {
      "midi": 13,
      "hit": false,
      "t": 44089.21600000097,
      "d": 94.69333333333634,
      "v": 100
    },
    {
      "midi": 10,
      "hit": false,
      "t": 44089.21600000097,
      "d": 94.69333333333634,
      "v": 127
    },
    {
      "midi": 127,
      "hit": false,
      "t": 44089.21600000097,
      "d": 94.69333333333634,
      "v": 60
    },
    {
      "midi": 108,
      "hit": false,
      "t": 44089.21600000097,
      "d": 94.69333333333634,
      "v": 80
    },
    {
      "midi": 105,
      "hit": false,
      "t": 44089.21600000097,
      "d": 94.69333333333634,
      "v": 100
    },
    {
      "midi": 42,
      "hit": false,
      "t": 44089.21600000097,
      "d": 94.69333333333634,
      "v": 92
    },
    {
      "midi": 118,
      "hit": false,
      "t": 44089.21600000097,
      "d": 94.69333333333634,
      "v": 50
    },
    {
      "midi": 63,
      "hit": false,
      "t": 44089.21600000097,
      "d": 94.69333333333634,
      "v": 70
    },
    {
      "midi": 62,
      "hit": false,
      "t": 44089.21600000097,
      "d": 312.4880000000194,
      "v": 95
    },
    {
      "midi": 57,
      "hit": false,
      "t": 44089.21600000097,
      "d": 312.4880000000194,
      "v": 95
    },
    {
      "midi": 69,
      "hit": false,
      "t": 44098.6853333343,
      "d": 18.938666666668723,
      "v": 70
    },
    {
      "midi": 53,
      "hit": false,
      "t": 44098.6853333343,
      "d": 312.4880000000194,
      "v": 95
    },
    {
      "midi": 45,
      "hit": false,
      "t": 44098.6853333343,
      "d": 312.4880000000194,
      "v": 95
    },
    {
      "midi": 65,
      "hit": false,
      "t": 44108.15466666764,
      "d": 18.938666666668723,
      "v": 70
    },
    {
      "midi": 38,
      "hit": false,
      "t": 44108.15466666764,
      "d": 312.4880000000194,
      "v": 95
    },
    {
      "midi": 65,
      "hit": false,
      "t": 44193.37866666764,
      "d": 9.469333333334362,
      "v": 30
    },
    {
      "midi": 65,
      "hit": false,
      "t": 44202.84800000097,
      "d": 9.469333333334362,
      "v": 60
    },
    {
      "midi": 69,
      "hit": false,
      "t": 44202.84800000097,
      "d": 9.469333333334362,
      "v": 60
    },
    {
      "midi": 74,
      "hit": false,
      "t": 44202.84800000097,
      "d": 9.469333333334362,
      "v": 60
    },
    {
      "midi": 89,
      "hit": false,
      "t": 44202.84800000097,
      "d": 85.22400000000198,
      "v": 80
    },
    {
      "midi": 74,
      "hit": false,
      "t": 44212.31733333431,
      "d": 28.408000000003085,
      "v": 30
    },
    {
      "midi": 42,
      "hit": false,
      "t": 44212.31733333431,
      "d": 94.69333333333634,
      "v": 78
    },
    {
      "midi": 74,
      "hit": false,
      "t": 44316.48000000098,
      "d": 18.938666666668723,
      "v": 70
    },
    {
      "midi": 86,
      "hit": false,
      "t": 44316.48000000098,
      "d": 85.22400000000926,
      "v": 80
    },
    {
      "midi": 26,
      "hit": false,
      "t": 44316.48000000098,
      "d": 151.5093333333498,
      "v": 127
    },
    {
      "midi": 69,
      "hit": false,
      "t": 44325.94933333431,
      "d": 18.938666666668723,
      "v": 70
    },
    {
      "midi": 65,
      "hit": false,
      "t": 44335.41866666765,
      "d": 18.938666666668723,
      "v": 70
    },
    {
      "midi": 46,
      "hit": false,
      "t": 44335.41866666765,
      "d": 94.69333333334362,
      "v": 92
    },
    {
      "midi": 38,
      "hit": false,
      "t": 44420.642666667656,
      "d": 9.469333333334362,
      "v": 100
    },
    {
      "midi": 65,
      "hit": false,
      "t": 44420.642666667656,
      "d": 9.469333333334362,
      "v": 70
    },
    {
      "midi": 65,
      "hit": false,
      "t": 44430.11200000099,
      "d": 18.938666666668723,
      "v": 70
    },
    {
      "midi": 38,
      "hit": false,
      "t": 44430.11200000099,
      "d": 85.22400000000198,
      "v": 115
    },
    {
      "midi": 45,
      "hit": false,
      "t": 44430.11200000099,
      "d": 85.22400000000198,
      "v": 115
    },
    {
      "midi": 81,
      "hit": false,
      "t": 44430.11200000099,
      "d": 85.22400000000198,
      "v": 80
    },
    {
      "midi": 118,
      "hit": false,
      "t": 44430.11200000099,
      "d": 94.69333333333634,
      "v": 50
    },
    {
      "midi": 69,
      "hit": false,
      "t": 44439.581333334325,
      "d": 18.938666666668723,
      "v": 70
    },
    {
      "midi": 53,
      "hit": false,
      "t": 44439.581333334325,
      "d": 85.22400000000198,
      "v": 115
    },
    {
      "midi": 57,
      "hit": false,
      "t": 44439.581333334325,
      "d": 85.22400000000198,
      "v": 115
    },
    {
      "midi": 74,
      "hit": false,
      "t": 44449.05066666766,
      "d": 18.938666666668723,
      "v": 70
    },
    {
      "midi": 62,
      "hit": false,
      "t": 44449.05066666766,
      "d": 85.22400000000198,
      "v": 115
    },
    {
      "midi": 62,
      "hit": false,
      "t": 44534.27466666766,
      "d": 9.469333333334362,
      "v": 100
    },
    {
      "midi": 62,
      "hit": false,
      "t": 44543.744000000996,
      "d": 9.469333333334362,
      "v": 115
    },
    {
      "midi": 57,
      "hit": false,
      "t": 44543.744000000996,
      "d": 9.469333333334362,
      "v": 115
    },
    {
      "midi": 74,
      "hit": false,
      "t": 44543.744000000996,
      "d": 9.469333333334362,
      "v": 60
    },
    {
      "midi": 69,
      "hit": false,
      "t": 44543.744000000996,
      "d": 9.469333333334362,
      "v": 60
    },
    {
      "midi": 65,
      "hit": false,
      "t": 44543.744000000996,
      "d": 9.469333333334362,
      "v": 60
    },
    {
      "midi": 77,
      "hit": false,
      "t": 44543.744000000996,
      "d": 85.22400000000198,
      "v": 80
    },
    {
      "midi": 26,
      "hit": false,
      "t": 44543.744000000996,
      "d": 94.69333333333634,
      "v": 127
    },
    {
      "midi": 15,
      "hit": false,
      "t": 44543.744000000996,
      "d": 94.69333333333634,
      "v": 100
    },
    {
      "midi": 13,
      "hit": false,
      "t": 44543.744000000996,
      "d": 94.69333333333634,
      "v": 100
    },
    {
      "midi": 10,
      "hit": false,
      "t": 44543.744000000996,
      "d": 94.69333333333634,
      "v": 127
    },
    {
      "midi": 42,
      "hit": false,
      "t": 44543.744000000996,
      "d": 94.69333333333634,
      "v": 92
    },
    {
      "midi": 53,
      "hit": false,
      "t": 44553.21333333433,
      "d": 9.469333333334362,
      "v": 115
    },
    {
      "midi": 45,
      "hit": false,
      "t": 44553.21333333433,
      "d": 9.469333333334362,
      "v": 115
    },
    {
      "midi": 38,
      "hit": false,
      "t": 44562.682666667664,
      "d": 9.469333333334362,
      "v": 115
    },
    {
      "midi": 38,
      "hit": false,
      "t": 44647.906666667666,
      "d": 18.938666666668723,
      "v": 100
    },
    {
      "midi": 45,
      "hit": false,
      "t": 44647.906666667666,
      "d": 18.938666666668723,
      "v": 100
    },
    {
      "midi": 53,
      "hit": false,
      "t": 44657.376000001,
      "d": 18.938666666668723,
      "v": 100
    },
    {
      "midi": 57,
      "hit": false,
      "t": 44657.376000001,
      "d": 18.938666666668723,
      "v": 100
    },
    {
      "midi": 65,
      "hit": false,
      "t": 44657.376000001,
      "d": 94.69333333333634,
      "v": 70
    },
    {
      "midi": 118,
      "hit": false,
      "t": 44657.376000001,
      "d": 94.69333333333634,
      "v": 50
    },
    {
      "midi": 62,
      "hit": false,
      "t": 44666.845333334335,
      "d": 18.938666666668723,
      "v": 100
    },
    {
      "midi": 42,
      "hit": false,
      "t": 44666.845333334335,
      "d": 94.69333333333634,
      "v": 78
    },
    {
      "midi": 69,
      "hit": false,
      "t": 44666.845333334335,
      "d": 94.69333333333634,
      "v": 70
    },
    {
      "midi": 74,
      "hit": false,
      "t": 44676.31466666767,
      "d": 66.28533333333326,
      "v": 70
    },
    {
      "midi": 26,
      "hit": false,
      "t": 44771.008000001006,
      "d": 94.69333333333634,
      "v": 127
    },
    {
      "midi": 45,
      "hit": false,
      "t": 44771.008000001006,
      "d": 94.69333333333634,
      "v": 95
    },
    {
      "midi": 74,
      "hit": false,
      "t": 44771.008000001006,
      "d": 94.69333333333634,
      "v": 70
    },
    {
      "midi": 118,
      "hit": false,
      "t": 44771.008000001006,
      "d": 94.69333333333634,
      "v": 30
    },
    {
      "midi": 57,
      "hit": false,
      "t": 44780.47733333434,
      "d": 75.75466666666762,
      "v": 95
    },
    {
      "midi": 69,
      "hit": false,
      "t": 44780.47733333434,
      "d": 75.75466666666762,
      "v": 70
    },
    {
      "midi": 53,
      "hit": false,
      "t": 44780.47733333434,
      "d": 85.22400000000198,
      "v": 95
    },
    {
      "midi": 38,
      "hit": false,
      "t": 44780.47733333434,
      "d": 85.22400000000198,
      "v": 110
    },
    {
      "midi": 62,
      "hit": false,
      "t": 44789.946666667674,
      "d": 66.28533333333326,
      "v": 95
    },
    {
      "midi": 46,
      "hit": false,
      "t": 44789.946666667674,
      "d": 94.69333333333634,
      "v": 92
    },
    {
      "midi": 65,
      "hit": false,
      "t": 44789.946666667674,
      "d": 94.69333333333634,
      "v": 70
    },
    {
      "midi": 65,
      "hit": false,
      "t": 44884.64000000101,
      "d": 9.469333333334362,
      "v": 60
    },
    {
      "midi": 69,
      "hit": false,
      "t": 44884.64000000101,
      "d": 9.469333333334362,
      "v": 60
    },
    {
      "midi": 74,
      "hit": false,
      "t": 44884.64000000101,
      "d": 9.469333333334362,
      "v": 60
    },
    {
      "midi": 57,
      "hit": false,
      "t": 44884.64000000101,
      "d": 94.69333333333634,
      "v": 95
    },
    {
      "midi": 63,
      "hit": false,
      "t": 44884.64000000101,
      "d": 94.69333333333634,
      "v": 80
    },
    {
      "midi": 45,
      "hit": false,
      "t": 44894.109333334345,
      "d": 75.75466666666762,
      "v": 95
    },
    {
      "midi": 53,
      "hit": false,
      "t": 44894.109333334345,
      "d": 85.22400000000198,
      "v": 95
    },
    {
      "midi": 62,
      "hit": false,
      "t": 44894.109333334345,
      "d": 85.22400000000198,
      "v": 110
    },
    {
      "midi": 38,
      "hit": false,
      "t": 44903.57866666768,
      "d": 66.28533333333326,
      "v": 95
    },
    {
      "midi": 26,
      "hit": false,
      "t": 44998.272000001016,
      "d": 94.69333333333634,
      "v": 127
    },
    {
      "midi": 45,
      "hit": false,
      "t": 44998.272000001016,
      "d": 94.69333333333634,
      "v": 115
    },
    {
      "midi": 15,
      "hit": false,
      "t": 44998.272000001016,
      "d": 94.69333333333634,
      "v": 100
    },
    {
      "midi": 13,
      "hit": false,
      "t": 44998.272000001016,
      "d": 94.69333333333634,
      "v": 100
    },
    {
      "midi": 10,
      "hit": false,
      "t": 44998.272000001016,
      "d": 94.69333333333634,
      "v": 127
    },
    {
      "midi": 127,
      "hit": false,
      "t": 44998.272000001016,
      "d": 94.69333333333634,
      "v": 60
    },
    {
      "midi": 108,
      "hit": false,
      "t": 44998.272000001016,
      "d": 94.69333333333634,
      "v": 80
    },
    {
      "midi": 105,
      "hit": false,
      "t": 44998.272000001016,
      "d": 94.69333333333634,
      "v": 100
    },
    {
      "midi": 42,
      "hit": false,
      "t": 44998.272000001016,
      "d": 94.69333333333634,
      "v": 92
    },
    {
      "midi": 74,
      "hit": false,
      "t": 44998.272000001016,
      "d": 94.69333333333634,
      "v": 70
    },
    {
      "midi": 118,
      "hit": false,
      "t": 44998.272000001016,
      "d": 94.69333333333634,
      "v": 50
    },
    {
      "midi": 64,
      "hit": false,
      "t": 44998.272000001016,
      "d": 94.69333333333634,
      "v": 70
    },
    {
      "midi": 59,
      "hit": false,
      "t": 44998.272000001016,
      "d": 208.3253333333414,
      "v": 127
    },
    {
      "midi": 57,
      "hit": false,
      "t": 45007.74133333435,
      "d": 75.75466666666762,
      "v": 115
    },
    {
      "midi": 53,
      "hit": false,
      "t": 45007.74133333435,
      "d": 85.22400000000198,
      "v": 115
    },
    {
      "midi": 38,
      "hit": false,
      "t": 45007.74133333435,
      "d": 85.22400000000198,
      "v": 100
    },
    {
      "midi": 69,
      "hit": false,
      "t": 45007.74133333435,
      "d": 94.69333333333634,
      "v": 70
    },
    {
      "midi": 62,
      "hit": false,
      "t": 45017.210666667685,
      "d": 66.28533333333326,
      "v": 115
    },
    {
      "midi": 65,
      "hit": false,
      "t": 45017.210666667685,
      "d": 94.69333333333634,
      "v": 70
    },
    {
      "midi": 65,
      "hit": false,
      "t": 45111.90400000102,
      "d": 85.22400000000198,
      "v": 70
    },
    {
      "midi": 26,
      "hit": false,
      "t": 45111.90400000102,
      "d": 94.69333333333634,
      "v": 127
    },
    {
      "midi": 57,
      "hit": false,
      "t": 45111.90400000102,
      "d": 208.3253333333414,
      "v": 115
    },
    {
      "midi": 42,
      "hit": false,
      "t": 45121.373333334355,
      "d": 94.69333333333634,
      "v": 78
    },
    {
      "midi": 69,
      "hit": false,
      "t": 45121.373333334355,
      "d": 94.69333333333634,
      "v": 70
    },
    {
      "midi": 45,
      "hit": false,
      "t": 45121.373333334355,
      "d": 189.38666666667268,
      "v": 115
    },
    {
      "midi": 53,
      "hit": false,
      "t": 45121.373333334355,
      "d": 198.85600000000704,
      "v": 115
    },
    {
      "midi": 62,
      "hit": false,
      "t": 45121.373333334355,
      "d": 198.85600000000704,
      "v": 100
    },
    {
      "midi": 74,
      "hit": false,
      "t": 45130.84266666769,
      "d": 94.69333333333634,
      "v": 70
    },
    {
      "midi": 38,
      "hit": false,
      "t": 45130.84266666769,
      "d": 179.91733333333832,
      "v": 115
    },
    {
      "midi": 69,
      "hit": false,
      "t": 45225.536000001026,
      "d": 85.22400000000198,
      "v": 80
    },
    {
      "midi": 26,
      "hit": false,
      "t": 45225.536000001026,
      "d": 94.69333333333634,
      "v": 127
    },
    {
      "midi": 15,
      "hit": false,
      "t": 45225.536000001026,
      "d": 94.69333333333634,
      "v": 100
    },
    {
      "midi": 13,
      "hit": false,
      "t": 45225.536000001026,
      "d": 94.69333333333634,
      "v": 100
    },
    {
      "midi": 10,
      "hit": false,
      "t": 45225.536000001026,
      "d": 94.69333333333634,
      "v": 127
    },
    {
      "midi": 118,
      "hit": false,
      "t": 45225.536000001026,
      "d": 94.69333333333634,
      "v": 50
    },
    {
      "midi": 60,
      "hit": false,
      "t": 45225.536000001026,
      "d": 208.3253333333414,
      "v": 127
    },
    {
      "midi": 46,
      "hit": false,
      "t": 45244.474666667695,
      "d": 94.69333333333634,
      "v": 92
    },
    {
      "midi": 65,
      "hit": false,
      "t": 45339.16800000103,
      "d": 85.22400000000198,
      "v": 80
    },
    {
      "midi": 45,
      "hit": false,
      "t": 45339.16800000103,
      "d": 94.69333333333634,
      "v": 95
    },
    {
      "midi": 118,
      "hit": false,
      "t": 45339.16800000103,
      "d": 94.69333333333634,
      "v": 30
    },
    {
      "midi": 57,
      "hit": false,
      "t": 45348.637333334365,
      "d": 75.75466666666762,
      "v": 95
    },
    {
      "midi": 53,
      "hit": false,
      "t": 45348.637333334365,
      "d": 85.22400000000198,
      "v": 95
    },
    {
      "midi": 38,
      "hit": false,
      "t": 45348.637333334365,
      "d": 85.22400000000198,
      "v": 100
    },
    {
      "midi": 62,
      "hit": false,
      "t": 45358.1066666677,
      "d": 66.28533333333326,
      "v": 95
    },
    {
      "midi": 72,
      "hit": false,
      "t": 45452.800000001036,
      "d": 18.938666666668723,
      "v": 70
    },
    {
      "midi": 71,
      "hit": false,
      "t": 45452.800000001036,
      "d": 85.22400000000926,
      "v": 80
    },
    {
      "midi": 28,
      "hit": false,
      "t": 45452.800000001036,
      "d": 94.69333333334362,
      "v": 127
    },
    {
      "midi": 15,
      "hit": false,
      "t": 45452.800000001036,
      "d": 94.69333333334362,
      "v": 100
    },
    {
      "midi": 13,
      "hit": false,
      "t": 45452.800000001036,
      "d": 94.69333333334362,
      "v": 100
    },
    {
      "midi": 10,
      "hit": false,
      "t": 45452.800000001036,
      "d": 94.69333333334362,
      "v": 127
    },
    {
      "midi": 42,
      "hit": false,
      "t": 45452.800000001036,
      "d": 94.69333333334362,
      "v": 92
    },
    {
      "midi": 40,
      "hit": false,
      "t": 45452.800000001036,
      "d": 416.6506666666901,
      "v": 105
    },
    {
      "midi": 47,
      "hit": false,
      "t": 45452.800000001036,
      "d": 416.6506666666901,
      "v": 105
    },
    {
      "midi": 60,
      "hit": false,
      "t": 45452.800000001036,
      "d": 643.9146666667075,
      "v": 127
    },
    {
      "midi": 68,
      "hit": false,
      "t": 45462.26933333437,
      "d": 18.938666666668723,
      "v": 70
    },
    {
      "midi": 56,
      "hit": false,
      "t": 45462.26933333437,
      "d": 416.6506666666901,
      "v": 105
    },
    {
      "midi": 59,
      "hit": false,
      "t": 45462.26933333437,
      "d": 416.6506666666901,
      "v": 105
    },
    {
      "midi": 65,
      "hit": false,
      "t": 45471.738666667705,
      "d": 18.938666666668723,
      "v": 70
    },
    {
      "midi": 65,
      "hit": false,
      "t": 45556.962666667714,
      "d": 9.469333333334362,
      "v": 80
    },
    {
      "midi": 65,
      "hit": false,
      "t": 45566.43200000105,
      "d": 18.938666666668723,
      "v": 70
    },
    {
      "midi": 28,
      "hit": false,
      "t": 45566.43200000105,
      "d": 94.69333333333634,
      "v": 127
    },
    {
      "midi": 68,
      "hit": false,
      "t": 45575.90133333438,
      "d": 18.938666666668723,
      "v": 70
    },
    {
      "midi": 42,
      "hit": false,
      "t": 45575.90133333438,
      "d": 94.69333333333634,
      "v": 78
    },
    {
      "midi": 72,
      "hit": false,
      "t": 45585.37066666772,
      "d": 18.938666666668723,
      "v": 70
    },
    {
      "midi": 72,
      "hit": false,
      "t": 45670.59466666772,
      "d": 9.469333333334362,
      "v": 40
    },
    {
      "midi": 72,
      "hit": false,
      "t": 45680.06400000105,
      "d": 9.469333333334362,
      "v": 40
    },
    {
      "midi": 68,
      "hit": false,
      "t": 45680.06400000105,
      "d": 9.469333333334362,
      "v": 40
    },
    {
      "midi": 65,
      "hit": false,
      "t": 45680.06400000105,
      "d": 9.469333333334362,
      "v": 40
    },
    {
      "midi": 76,
      "hit": false,
      "t": 45680.06400000105,
      "d": 85.22400000000198,
      "v": 80
    },
    {
      "midi": 28,
      "hit": false,
      "t": 45680.06400000105,
      "d": 94.69333333333634,
      "v": 127
    },
    {
      "midi": 65,
      "hit": false,
      "t": 45689.53333333439,
      "d": 28.408000000003085,
      "v": 40
    },
    {
      "midi": 46,
      "hit": false,
      "t": 45699.00266666772,
      "d": 94.69333333333634,
      "v": 92
    },
    {
      "midi": 65,
      "hit": false,
      "t": 45793.69600000106,
      "d": 18.938666666668723,
      "v": 70
    },
    {
      "midi": 80,
      "hit": false,
      "t": 45793.69600000106,
      "d": 85.22400000000198,
      "v": 80
    },
    {
      "midi": 64,
      "hit": false,
      "t": 45793.69600000106,
      "d": 94.69333333333634,
      "v": 70
    },
    {
      "midi": 28,
      "hit": false,
      "t": 45793.69600000106,
      "d": 94.69333333333634,
      "v": 127
    },
    {
      "midi": 68,
      "hit": false,
      "t": 45803.16533333439,
      "d": 18.938666666668723,
      "v": 70
    },
    {
      "midi": 72,
      "hit": false,
      "t": 45812.63466666773,
      "d": 18.938666666668723,
      "v": 70
    },
    {
      "midi": 72,
      "hit": false,
      "t": 45897.85866666773,
      "d": 9.469333333334362,
      "v": 80
    },
    {
      "midi": 72,
      "hit": false,
      "t": 45907.32800000106,
      "d": 18.938666666668723,
      "v": 70
    },
    {
      "midi": 83,
      "hit": false,
      "t": 45907.32800000106,
      "d": 85.22400000000198,
      "v": 80
    },
    {
      "midi": 28,
      "hit": false,
      "t": 45907.32800000106,
      "d": 94.69333333333634,
      "v": 127
    },
    {
      "midi": 15,
      "hit": false,
      "t": 45907.32800000106,
      "d": 94.69333333333634,
      "v": 100
    },
    {
      "midi": 13,
      "hit": false,
      "t": 45907.32800000106,
      "d": 94.69333333333634,
      "v": 100
    },
    {
      "midi": 10,
      "hit": false,
      "t": 45907.32800000106,
      "d": 94.69333333333634,
      "v": 127
    },
    {
      "midi": 127,
      "hit": false,
      "t": 45907.32800000106,
      "d": 94.69333333333634,
      "v": 60
    },
    {
      "midi": 108,
      "hit": false,
      "t": 45907.32800000106,
      "d": 94.69333333333634,
      "v": 80
    },
    {
      "midi": 105,
      "hit": false,
      "t": 45907.32800000106,
      "d": 94.69333333333634,
      "v": 100
    },
    {
      "midi": 42,
      "hit": false,
      "t": 45907.32800000106,
      "d": 94.69333333333634,
      "v": 92
    },
    {
      "midi": 118,
      "hit": false,
      "t": 45907.32800000106,
      "d": 94.69333333333634,
      "v": 50
    },
    {
      "midi": 63,
      "hit": false,
      "t": 45907.32800000106,
      "d": 94.69333333333634,
      "v": 70
    },
    {
      "midi": 64,
      "hit": false,
      "t": 45907.32800000106,
      "d": 198.85600000001432,
      "v": 115
    },
    {
      "midi": 59,
      "hit": false,
      "t": 45907.32800000106,
      "d": 198.85600000001432,
      "v": 115
    },
    {
      "midi": 68,
      "hit": false,
      "t": 45916.7973333344,
      "d": 18.938666666668723,
      "v": 70
    },
    {
      "midi": 56,
      "hit": false,
      "t": 45916.7973333344,
      "d": 198.85600000001432,
      "v": 115
    },
    {
      "midi": 47,
      "hit": false,
      "t": 45916.7973333344,
      "d": 198.85600000001432,
      "v": 115
    },
    {
      "midi": 65,
      "hit": false,
      "t": 45926.26666666773,
      "d": 18.938666666668723,
      "v": 70
    },
    {
      "midi": 40,
      "hit": false,
      "t": 45926.26666666773,
      "d": 198.85600000001432,
      "v": 115
    },
    {
      "midi": 65,
      "hit": false,
      "t": 46011.490666667734,
      "d": 9.469333333334362,
      "v": 40
    },
    {
      "midi": 65,
      "hit": false,
      "t": 46020.96000000107,
      "d": 9.469333333334362,
      "v": 40
    },
    {
      "midi": 68,
      "hit": false,
      "t": 46020.96000000107,
      "d": 9.469333333334362,
      "v": 40
    },
    {
      "midi": 72,
      "hit": false,
      "t": 46020.96000000107,
      "d": 9.469333333334362,
      "v": 40
    },
    {
      "midi": 88,
      "hit": false,
      "t": 46020.96000000107,
      "d": 85.22400000000926,
      "v": 80
    },
    {
      "midi": 72,
      "hit": false,
      "t": 46030.4293333344,
      "d": 28.408000000003085,
      "v": 40
    },
    {
      "midi": 42,
      "hit": false,
      "t": 46030.4293333344,
      "d": 94.69333333334362,
      "v": 78
    },
    {
      "midi": 40,
      "hit": false,
      "t": 46125.12266666775,
      "d": 9.469333333334362,
      "v": 90
    },
    {
      "midi": 71,
      "hit": false,
      "t": 46134.59200000108,
      "d": 18.938666666668723,
      "v": 70
    },
    {
      "midi": 40,
      "hit": false,
      "t": 46134.59200000108,
      "d": 85.22400000000198,
      "v": 95
    },
    {
      "midi": 47,
      "hit": false,
      "t": 46134.59200000108,
      "d": 85.22400000000198,
      "v": 95
    },
    {
      "midi": 83,
      "hit": false,
      "t": 46134.59200000108,
      "d": 85.22400000000198,
      "v": 80
    },
    {
      "midi": 28,
      "hit": false,
      "t": 46134.59200000108,
      "d": 94.69333333333634,
      "v": 127
    },
    {
      "midi": 68,
      "hit": false,
      "t": 46144.061333334415,
      "d": 18.938666666668723,
      "v": 70
    },
    {
      "midi": 56,
      "hit": false,
      "t": 46144.061333334415,
      "d": 85.22400000000198,
      "v": 95
    },
    {
      "midi": 59,
      "hit": false,
      "t": 46144.061333334415,
      "d": 85.22400000000198,
      "v": 95
    },
    {
      "midi": 64,
      "hit": false,
      "t": 46153.53066666775,
      "d": 18.938666666668723,
      "v": 95
    },
    {
      "midi": 46,
      "hit": false,
      "t": 46153.53066666775,
      "d": 94.69333333333634,
      "v": 92
    },
    {
      "midi": 64,
      "hit": false,
      "t": 46238.75466666775,
      "d": 9.469333333334362,
      "v": 90
    },
    {
      "midi": 64,
      "hit": false,
      "t": 46248.224000001086,
      "d": 18.938666666668723,
      "v": 115
    },
    {
      "midi": 80,
      "hit": false,
      "t": 46248.224000001086,
      "d": 85.22400000000198,
      "v": 80
    },
    {
      "midi": 59,
      "hit": false,
      "t": 46248.224000001086,
      "d": 94.69333333333634,
      "v": 115
    },
    {
      "midi": 118,
      "hit": false,
      "t": 46248.224000001086,
      "d": 94.69333333333634,
      "v": 50
    },
    {
      "midi": 68,
      "hit": false,
      "t": 46257.69333333442,
      "d": 18.938666666668723,
      "v": 70
    },
    {
      "midi": 56,
      "hit": false,
      "t": 46257.69333333442,
      "d": 198.85600000000704,
      "v": 115
    },
    {
      "midi": 47,
      "hit": false,
      "t": 46257.69333333442,
      "d": 198.85600000000704,
      "v": 115
    },
    {
      "midi": 71,
      "hit": false,
      "t": 46267.162666667755,
      "d": 18.938666666668723,
      "v": 70
    },
    {
      "midi": 40,
      "hit": false,
      "t": 46267.162666667755,
      "d": 198.85600000000704,
      "v": 115
    },
    {
      "midi": 59,
      "hit": false,
      "t": 46361.85600000109,
      "d": 85.22400000000198,
      "v": 127
    },
    {
      "midi": 76,
      "hit": false,
      "t": 46361.85600000109,
      "d": 85.22400000000198,
      "v": 80
    },
    {
      "midi": 28,
      "hit": false,
      "t": 46361.85600000109,
      "d": 94.69333333333634,
      "v": 127
    },
    {
      "midi": 15,
      "hit": false,
      "t": 46361.85600000109,
      "d": 94.69333333333634,
      "v": 100
    },
    {
      "midi": 13,
      "hit": false,
      "t": 46361.85600000109,
      "d": 94.69333333333634,
      "v": 100
    },
    {
      "midi": 10,
      "hit": false,
      "t": 46361.85600000109,
      "d": 94.69333333333634,
      "v": 127
    },
    {
      "midi": 42,
      "hit": false,
      "t": 46361.85600000109,
      "d": 94.69333333333634,
      "v": 92
    },
    {
      "midi": 40,
      "hit": false,
      "t": 46466.01866666776,
      "d": 9.469333333334362,
      "v": 90
    },
    {
      "midi": 40,
      "hit": false,
      "t": 46475.488000001096,
      "d": 85.22400000000198,
      "v": 95
    },
    {
      "midi": 47,
      "hit": false,
      "t": 46475.488000001096,
      "d": 85.22400000000198,
      "v": 95
    },
    {
      "midi": 71,
      "hit": false,
      "t": 46475.488000001096,
      "d": 85.22400000000198,
      "v": 80
    },
    {
      "midi": 118,
      "hit": false,
      "t": 46475.488000001096,
      "d": 94.69333333333634,
      "v": 50
    },
    {
      "midi": 56,
      "hit": false,
      "t": 46484.95733333443,
      "d": 85.22400000000198,
      "v": 95
    },
    {
      "midi": 59,
      "hit": false,
      "t": 46484.95733333443,
      "d": 85.22400000000198,
      "v": 95
    },
    {
      "midi": 42,
      "hit": false,
      "t": 46484.95733333443,
      "d": 94.69333333333634,
      "v": 78
    },
    {
      "midi": 64,
      "hit": false,
      "t": 46494.426666667765,
      "d": 85.22400000000198,
      "v": 95
    },
    {
      "midi": 64,
      "hit": false,
      "t": 46579.65066666777,
      "d": 9.469333333334362,
      "v": 90
    },
    {
      "midi": 68,
      "hit": false,
      "t": 46589.1200000011,
      "d": 85.22400000000198,
      "v": 80
    },
    {
      "midi": 28,
      "hit": false,
      "t": 46589.1200000011,
      "d": 94.69333333333634,
      "v": 127
    },
    {
      "midi": 118,
      "hit": false,
      "t": 46589.1200000011,
      "d": 94.69333333333634,
      "v": 30
    },
    {
      "midi": 59,
      "hit": false,
      "t": 46589.1200000011,
      "d": 198.85600000000704,
      "v": 95
    },
    {
      "midi": 56,
      "hit": false,
      "t": 46598.589333334436,
      "d": 198.85600000000704,
      "v": 95
    },
    {
      "midi": 47,
      "hit": false,
      "t": 46598.589333334436,
      "d": 198.85600000000704,
      "v": 95
    },
    {
      "midi": 46,
      "hit": false,
      "t": 46608.05866666777,
      "d": 94.69333333333634,
      "v": 92
    },
    {
      "midi": 40,
      "hit": false,
      "t": 46608.05866666777,
      "d": 198.85600000000704,
      "v": 95
    },
    {
      "midi": 64,
      "hit": false,
      "t": 46702.752000001106,
      "d": 85.22400000000198,
      "v": 80
    },
    {
      "midi": 63,
      "hit": false,
      "t": 46702.752000001106,
      "d": 94.69333333333634,
      "v": 80
    },
    {
      "midi": 40,
      "hit": false,
      "t": 46806.91466666778,
      "d": 9.469333333334362,
      "v": 105
    },
    {
      "midi": 40,
      "hit": false,
      "t": 46816.38400000111,
      "d": 85.22400000000198,
      "v": 115
    },
    {
      "midi": 47,
      "hit": false,
      "t": 46816.38400000111,
      "d": 85.22400000000198,
      "v": 115
    },
    {
      "midi": 28,
      "hit": false,
      "t": 46816.38400000111,
      "d": 94.69333333333634,
      "v": 127
    },
    {
      "midi": 15,
      "hit": false,
      "t": 46816.38400000111,
      "d": 94.69333333333634,
      "v": 100
    },
    {
      "midi": 13,
      "hit": false,
      "t": 46816.38400000111,
      "d": 94.69333333333634,
      "v": 100
    },
    {
      "midi": 10,
      "hit": false,
      "t": 46816.38400000111,
      "d": 94.69333333333634,
      "v": 127
    },
    {
      "midi": 127,
      "hit": false,
      "t": 46816.38400000111,
      "d": 94.69333333333634,
      "v": 60
    },
    {
      "midi": 108,
      "hit": false,
      "t": 46816.38400000111,
      "d": 94.69333333333634,
      "v": 80
    },
    {
      "midi": 105,
      "hit": false,
      "t": 46816.38400000111,
      "d": 94.69333333333634,
      "v": 100
    },
    {
      "midi": 42,
      "hit": false,
      "t": 46816.38400000111,
      "d": 94.69333333333634,
      "v": 92
    },
    {
      "midi": 118,
      "hit": false,
      "t": 46816.38400000111,
      "d": 94.69333333333634,
      "v": 50
    },
    {
      "midi": 59,
      "hit": false,
      "t": 46825.853333334446,
      "d": 75.75466666666762,
      "v": 115
    },
    {
      "midi": 56,
      "hit": false,
      "t": 46825.853333334446,
      "d": 85.22400000000198,
      "v": 115
    },
    {
      "midi": 64,
      "hit": false,
      "t": 46835.32266666778,
      "d": 75.75466666666762,
      "v": 115
    },
    {
      "midi": 59,
      "hit": false,
      "t": 46920.54666666778,
      "d": 208.3253333333414,
      "v": 100
    },
    {
      "midi": 64,
      "hit": false,
      "t": 46930.01600000112,
      "d": 85.22400000000198,
      "v": 80
    },
    {
      "midi": 28,
      "hit": false,
      "t": 46930.01600000112,
      "d": 94.69333333333634,
      "v": 127
    },
    {
      "midi": 47,
      "hit": false,
      "t": 46930.01600000112,
      "d": 208.3253333333414,
      "v": 100
    },
    {
      "midi": 56,
      "hit": false,
      "t": 46930.01600000112,
      "d": 208.3253333333414,
      "v": 100
    },
    {
      "midi": 42,
      "hit": false,
      "t": 46939.48533333445,
      "d": 94.69333333333634,
      "v": 78
    },
    {
      "midi": 40,
      "hit": false,
      "t": 46939.48533333445,
      "d": 198.85600000000704,
      "v": 100
    },
    {
      "midi": 68,
      "hit": false,
      "t": 47043.64800000112,
      "d": 85.22400000000198,
      "v": 80
    },
    {
      "midi": 28,
      "hit": false,
      "t": 47043.64800000112,
      "d": 94.69333333333634,
      "v": 127
    },
    {
      "midi": 127,
      "hit": false,
      "t": 47043.64800000112,
      "d": 94.69333333333634,
      "v": 60
    },
    {
      "midi": 108,
      "hit": false,
      "t": 47043.64800000112,
      "d": 94.69333333333634,
      "v": 80
    },
    {
      "midi": 105,
      "hit": false,
      "t": 47043.64800000112,
      "d": 94.69333333333634,
      "v": 100
    },
    {
      "midi": 118,
      "hit": false,
      "t": 47043.64800000112,
      "d": 94.69333333333634,
      "v": 50
    },
    {
      "midi": 46,
      "hit": false,
      "t": 47062.58666666779,
      "d": 94.69333333333634,
      "v": 92
    },
    {
      "midi": 71,
      "hit": false,
      "t": 47157.28000000113,
      "d": 85.22400000000198,
      "v": 80
    },
    {
      "midi": 59,
      "hit": false,
      "t": 47157.28000000113,
      "d": 94.69333333333634,
      "v": 95
    },
    {
      "midi": 127,
      "hit": false,
      "t": 47157.28000000113,
      "d": 94.69333333333634,
      "v": 60
    },
    {
      "midi": 108,
      "hit": false,
      "t": 47157.28000000113,
      "d": 94.69333333333634,
      "v": 80
    },
    {
      "midi": 105,
      "hit": false,
      "t": 47157.28000000113,
      "d": 94.69333333333634,
      "v": 100
    },
    {
      "midi": 118,
      "hit": false,
      "t": 47157.28000000113,
      "d": 94.69333333333634,
      "v": 30
    },
    {
      "midi": 47,
      "hit": false,
      "t": 47166.74933333446,
      "d": 75.75466666666762,
      "v": 95
    },
    {
      "midi": 56,
      "hit": false,
      "t": 47166.74933333446,
      "d": 85.22400000000198,
      "v": 95
    },
    {
      "midi": 64,
      "hit": false,
      "t": 47166.74933333446,
      "d": 85.22400000000198,
      "v": 90
    },
    {
      "midi": 40,
      "hit": false,
      "t": 47176.218666667795,
      "d": 66.28533333333326,
      "v": 95
    },
    {
      "midi": 40,
      "hit": false,
      "t": 47261.4426666678,
      "d": 9.469333333334362,
      "v": 100
    },
    {
      "midi": 71,
      "hit": false,
      "t": 47270.91200000113,
      "d": 18.938666666668723,
      "v": 70
    },
    {
      "midi": 28,
      "hit": false,
      "t": 47270.91200000113,
      "d": 94.69333333333634,
      "v": 127
    },
    {
      "midi": 15,
      "hit": false,
      "t": 47270.91200000113,
      "d": 94.69333333333634,
      "v": 100
    },
    {
      "midi": 13,
      "hit": false,
      "t": 47270.91200000113,
      "d": 94.69333333333634,
      "v": 100
    },
    {
      "midi": 10,
      "hit": false,
      "t": 47270.91200000113,
      "d": 94.69333333333634,
      "v": 127
    },
    {
      "midi": 127,
      "hit": false,
      "t": 47270.91200000113,
      "d": 94.69333333333634,
      "v": 60
    },
    {
      "midi": 108,
      "hit": false,
      "t": 47270.91200000113,
      "d": 94.69333333333634,
      "v": 80
    },
    {
      "midi": 105,
      "hit": false,
      "t": 47270.91200000113,
      "d": 94.69333333333634,
      "v": 100
    },
    {
      "midi": 42,
      "hit": false,
      "t": 47270.91200000113,
      "d": 94.69333333333634,
      "v": 92
    },
    {
      "midi": 40,
      "hit": false,
      "t": 47270.91200000113,
      "d": 416.6506666666901,
      "v": 115
    },
    {
      "midi": 47,
      "hit": false,
      "t": 47270.91200000113,
      "d": 416.6506666666901,
      "v": 115
    },
    {
      "midi": 68,
      "hit": false,
      "t": 47280.381333334466,
      "d": 18.938666666668723,
      "v": 70
    },
    {
      "midi": 56,
      "hit": false,
      "t": 47280.381333334466,
      "d": 416.6506666666901,
      "v": 115
    },
    {
      "midi": 59,
      "hit": false,
      "t": 47280.381333334466,
      "d": 416.6506666666901,
      "v": 115
    },
    {
      "midi": 64,
      "hit": false,
      "t": 47289.8506666678,
      "d": 18.938666666668723,
      "v": 115
    },
    {
      "midi": 64,
      "hit": false,
      "t": 47375.0746666678,
      "d": 9.469333333334362,
      "v": 70
    },
    {
      "midi": 64,
      "hit": false,
      "t": 47384.54400000114,
      "d": 18.938666666668723,
      "v": 70
    },
    {
      "midi": 28,
      "hit": false,
      "t": 47384.54400000114,
      "d": 94.69333333333634,
      "v": 127
    },
    {
      "midi": 127,
      "hit": false,
      "t": 47384.54400000114,
      "d": 94.69333333333634,
      "v": 60
    },
    {
      "midi": 108,
      "hit": false,
      "t": 47384.54400000114,
      "d": 94.69333333333634,
      "v": 80
    },
    {
      "midi": 105,
      "hit": false,
      "t": 47384.54400000114,
      "d": 94.69333333333634,
      "v": 100
    },
    {
      "midi": 68,
      "hit": false,
      "t": 47394.01333333447,
      "d": 18.938666666668723,
      "v": 70
    },
    {
      "midi": 42,
      "hit": false,
      "t": 47394.01333333447,
      "d": 94.69333333333634,
      "v": 78
    },
    {
      "midi": 71,
      "hit": false,
      "t": 47403.482666667805,
      "d": 18.938666666668723,
      "v": 70
    },
    {
      "midi": 71,
      "hit": false,
      "t": 47488.70666666781,
      "d": 9.469333333334362,
      "v": 30
    },
    {
      "midi": 71,
      "hit": false,
      "t": 47498.17600000114,
      "d": 9.469333333334362,
      "v": 40
    },
    {
      "midi": 68,
      "hit": false,
      "t": 47498.17600000114,
      "d": 9.469333333334362,
      "v": 40
    },
    {
      "midi": 64,
      "hit": false,
      "t": 47498.17600000114,
      "d": 9.469333333334362,
      "v": 40
    },
    {
      "midi": 76,
      "hit": false,
      "t": 47498.17600000114,
      "d": 85.22400000000198,
      "v": 80
    },
    {
      "midi": 28,
      "hit": false,
      "t": 47498.17600000114,
      "d": 94.69333333333634,
      "v": 127
    },
    {
      "midi": 127,
      "hit": false,
      "t": 47498.17600000114,
      "d": 94.69333333333634,
      "v": 60
    },
    {
      "midi": 108,
      "hit": false,
      "t": 47498.17600000114,
      "d": 94.69333333333634,
      "v": 80
    },
    {
      "midi": 105,
      "hit": false,
      "t": 47498.17600000114,
      "d": 94.69333333333634,
      "v": 100
    },
    {
      "midi": 64,
      "hit": false,
      "t": 47507.645333334476,
      "d": 28.408000000003085,
      "v": 30
    },
    {
      "midi": 46,
      "hit": false,
      "t": 47517.11466666781,
      "d": 94.69333333333634,
      "v": 92
    },
    {
      "midi": 64,
      "hit": false,
      "t": 47611.80800000115,
      "d": 18.938666666668723,
      "v": 70
    },
    {
      "midi": 80,
      "hit": false,
      "t": 47611.80800000115,
      "d": 85.22400000000926,
      "v": 80
    },
    {
      "midi": 28,
      "hit": false,
      "t": 47611.80800000115,
      "d": 94.69333333334362,
      "v": 127
    },
    {
      "midi": 127,
      "hit": false,
      "t": 47611.80800000115,
      "d": 94.69333333334362,
      "v": 60
    },
    {
      "midi": 108,
      "hit": false,
      "t": 47611.80800000115,
      "d": 94.69333333334362,
      "v": 80
    },
    {
      "midi": 105,
      "hit": false,
      "t": 47611.80800000115,
      "d": 94.69333333334362,
      "v": 100
    },
    {
      "midi": 68,
      "hit": false,
      "t": 47621.27733333448,
      "d": 18.938666666668723,
      "v": 70
    },
    {
      "midi": 71,
      "hit": false,
      "t": 47630.746666667816,
      "d": 18.938666666668723,
      "v": 70
    },
    {
      "midi": 71,
      "hit": false,
      "t": 47715.970666667825,
      "d": 9.469333333334362,
      "v": 70
    },
    {
      "midi": 71,
      "hit": false,
      "t": 47725.44000000116,
      "d": 18.938666666668723,
      "v": 70
    },
    {
      "midi": 83,
      "hit": false,
      "t": 47725.44000000116,
      "d": 85.22400000000198,
      "v": 80
    },
    {
      "midi": 28,
      "hit": false,
      "t": 47725.44000000116,
      "d": 94.69333333333634,
      "v": 127
    },
    {
      "midi": 15,
      "hit": false,
      "t": 47725.44000000116,
      "d": 94.69333333333634,
      "v": 100
    },
    {
      "midi": 13,
      "hit": false,
      "t": 47725.44000000116,
      "d": 94.69333333333634,
      "v": 100
    },
    {
      "midi": 10,
      "hit": false,
      "t": 47725.44000000116,
      "d": 94.69333333333634,
      "v": 127
    },
    {
      "midi": 127,
      "hit": false,
      "t": 47725.44000000116,
      "d": 94.69333333333634,
      "v": 60
    },
    {
      "midi": 108,
      "hit": false,
      "t": 47725.44000000116,
      "d": 94.69333333333634,
      "v": 80
    },
    {
      "midi": 105,
      "hit": false,
      "t": 47725.44000000116,
      "d": 94.69333333333634,
      "v": 100
    },
    {
      "midi": 42,
      "hit": false,
      "t": 47725.44000000116,
      "d": 94.69333333333634,
      "v": 92
    },
    {
      "midi": 118,
      "hit": false,
      "t": 47725.44000000116,
      "d": 94.69333333333634,
      "v": 50
    },
    {
      "midi": 63,
      "hit": false,
      "t": 47725.44000000116,
      "d": 94.69333333333634,
      "v": 70
    },
    {
      "midi": 59,
      "hit": false,
      "t": 47725.44000000116,
      "d": 198.85600000000704,
      "v": 115
    },
    {
      "midi": 62,
      "hit": false,
      "t": 47725.44000000116,
      "d": 303.01866666667775,
      "v": 127
    },
    {
      "midi": 68,
      "hit": false,
      "t": 47734.90933333449,
      "d": 18.938666666668723,
      "v": 70
    },
    {
      "midi": 56,
      "hit": false,
      "t": 47734.90933333449,
      "d": 198.85600000000704,
      "v": 115
    },
    {
      "midi": 47,
      "hit": false,
      "t": 47734.90933333449,
      "d": 198.85600000000704,
      "v": 115
    },
    {
      "midi": 64,
      "hit": false,
      "t": 47744.37866666783,
      "d": 18.938666666668723,
      "v": 70
    },
    {
      "midi": 40,
      "hit": false,
      "t": 47744.37866666783,
      "d": 198.85600000000704,
      "v": 115
    },
    {
      "midi": 64,
      "hit": false,
      "t": 47829.60266666783,
      "d": 9.469333333334362,
      "v": 30
    },
    {
      "midi": 64,
      "hit": false,
      "t": 47839.072000001164,
      "d": 9.469333333334362,
      "v": 40
    },
    {
      "midi": 68,
      "hit": false,
      "t": 47839.072000001164,
      "d": 9.469333333334362,
      "v": 40
    },
    {
      "midi": 71,
      "hit": false,
      "t": 47839.072000001164,
      "d": 9.469333333334362,
      "v": 40
    },
    {
      "midi": 88,
      "hit": false,
      "t": 47839.072000001164,
      "d": 85.22400000000198,
      "v": 80
    },
    {
      "midi": 71,
      "hit": false,
      "t": 47848.5413333345,
      "d": 28.408000000003085,
      "v": 30
    },
    {
      "midi": 42,
      "hit": false,
      "t": 47848.5413333345,
      "d": 94.69333333333634,
      "v": 78
    },
    {
      "midi": 40,
      "hit": false,
      "t": 47943.234666667835,
      "d": 9.469333333334362,
      "v": 90
    },
    {
      "midi": 71,
      "hit": false,
      "t": 47952.70400000117,
      "d": 18.938666666668723,
      "v": 70
    },
    {
      "midi": 40,
      "hit": false,
      "t": 47952.70400000117,
      "d": 85.22400000000198,
      "v": 95
    },
    {
      "midi": 47,
      "hit": false,
      "t": 47952.70400000117,
      "d": 85.22400000000198,
      "v": 95
    },
    {
      "midi": 83,
      "hit": false,
      "t": 47952.70400000117,
      "d": 85.22400000000198,
      "v": 80
    },
    {
      "midi": 28,
      "hit": false,
      "t": 47952.70400000117,
      "d": 94.69333333333634,
      "v": 127
    },
    {
      "midi": 127,
      "hit": false,
      "t": 47952.70400000117,
      "d": 94.69333333333634,
      "v": 60
    },
    {
      "midi": 108,
      "hit": false,
      "t": 47952.70400000117,
      "d": 94.69333333333634,
      "v": 80
    },
    {
      "midi": 105,
      "hit": false,
      "t": 47952.70400000117,
      "d": 94.69333333333634,
      "v": 100
    },
    {
      "midi": 68,
      "hit": false,
      "t": 47962.173333334504,
      "d": 18.938666666668723,
      "v": 70
    },
    {
      "midi": 56,
      "hit": false,
      "t": 47962.173333334504,
      "d": 85.22400000000198,
      "v": 95
    },
    {
      "midi": 59,
      "hit": false,
      "t": 47962.173333334504,
      "d": 85.22400000000198,
      "v": 95
    },
    {
      "midi": 64,
      "hit": false,
      "t": 47971.64266666784,
      "d": 18.938666666668723,
      "v": 95
    },
    {
      "midi": 46,
      "hit": false,
      "t": 47971.64266666784,
      "d": 94.69333333333634,
      "v": 92
    },
    {
      "midi": 64,
      "hit": false,
      "t": 48056.86666666784,
      "d": 9.469333333334362,
      "v": 70
    },
    {
      "midi": 64,
      "hit": false,
      "t": 48066.336000001174,
      "d": 18.938666666668723,
      "v": 115
    },
    {
      "midi": 59,
      "hit": false,
      "t": 48066.336000001174,
      "d": 85.22400000000926,
      "v": 115
    },
    {
      "midi": 80,
      "hit": false,
      "t": 48066.336000001174,
      "d": 85.22400000000926,
      "v": 80
    },
    {
      "midi": 28,
      "hit": false,
      "t": 48066.336000001174,
      "d": 94.69333333334362,
      "v": 127
    },
    {
      "midi": 127,
      "hit": false,
      "t": 48066.336000001174,
      "d": 94.69333333334362,
      "v": 60
    },
    {
      "midi": 108,
      "hit": false,
      "t": 48066.336000001174,
      "d": 94.69333333334362,
      "v": 80
    },
    {
      "midi": 105,
      "hit": false,
      "t": 48066.336000001174,
      "d": 94.69333333334362,
      "v": 100
    },
    {
      "midi": 118,
      "hit": false,
      "t": 48066.336000001174,
      "d": 94.69333333334362,
      "v": 50
    },
    {
      "midi": 68,
      "hit": false,
      "t": 48075.80533333451,
      "d": 18.938666666668723,
      "v": 70
    },
    {
      "midi": 56,
      "hit": false,
      "t": 48075.80533333451,
      "d": 85.22400000000926,
      "v": 115
    },
    {
      "midi": 47,
      "hit": false,
      "t": 48075.80533333451,
      "d": 85.22400000000926,
      "v": 115
    },
    {
      "midi": 71,
      "hit": false,
      "t": 48085.27466666784,
      "d": 18.938666666668723,
      "v": 70
    },
    {
      "midi": 40,
      "hit": false,
      "t": 48085.27466666784,
      "d": 85.22400000000926,
      "v": 115
    },
    {
      "midi": 40,
      "hit": false,
      "t": 48170.49866666785,
      "d": 94.69333333333634,
      "v": 90
    },
    {
      "midi": 47,
      "hit": false,
      "t": 48170.49866666785,
      "d": 94.69333333333634,
      "v": 90
    },
    {
      "midi": 76,
      "hit": false,
      "t": 48179.96800000119,
      "d": 85.22400000000198,
      "v": 80
    },
    {
      "midi": 59,
      "hit": false,
      "t": 48179.96800000119,
      "d": 94.69333333333634,
      "v": 90
    },
    {
      "midi": 28,
      "hit": false,
      "t": 48179.96800000119,
      "d": 94.69333333333634,
      "v": 127
    },
    {
      "midi": 56,
      "hit": false,
      "t": 48179.96800000119,
      "d": 94.69333333333634,
      "v": 90
    },
    {
      "midi": 15,
      "hit": false,
      "t": 48179.96800000119,
      "d": 94.69333333333634,
      "v": 100
    },
    {
      "midi": 13,
      "hit": false,
      "t": 48179.96800000119,
      "d": 94.69333333333634,
      "v": 100
    },
    {
      "midi": 10,
      "hit": false,
      "t": 48179.96800000119,
      "d": 94.69333333333634,
      "v": 127
    },
    {
      "midi": 127,
      "hit": false,
      "t": 48179.96800000119,
      "d": 94.69333333333634,
      "v": 60
    },
    {
      "midi": 108,
      "hit": false,
      "t": 48179.96800000119,
      "d": 94.69333333333634,
      "v": 80
    },
    {
      "midi": 105,
      "hit": false,
      "t": 48179.96800000119,
      "d": 94.69333333333634,
      "v": 100
    },
    {
      "midi": 42,
      "hit": false,
      "t": 48179.96800000119,
      "d": 94.69333333333634,
      "v": 92
    },
    {
      "midi": 60,
      "hit": false,
      "t": 48179.96800000119,
      "d": 303.01866666667775,
      "v": 127
    },
    {
      "midi": 64,
      "hit": false,
      "t": 48189.43733333452,
      "d": 85.22400000000198,
      "v": 90
    },
    {
      "midi": 71,
      "hit": false,
      "t": 48293.60000000119,
      "d": 85.22400000000198,
      "v": 80
    },
    {
      "midi": 47,
      "hit": false,
      "t": 48293.60000000119,
      "d": 94.69333333333634,
      "v": 95
    },
    {
      "midi": 127,
      "hit": false,
      "t": 48293.60000000119,
      "d": 94.69333333333634,
      "v": 60
    },
    {
      "midi": 108,
      "hit": false,
      "t": 48293.60000000119,
      "d": 94.69333333333634,
      "v": 80
    },
    {
      "midi": 105,
      "hit": false,
      "t": 48293.60000000119,
      "d": 94.69333333333634,
      "v": 100
    },
    {
      "midi": 118,
      "hit": false,
      "t": 48293.60000000119,
      "d": 94.69333333333634,
      "v": 50
    },
    {
      "midi": 59,
      "hit": false,
      "t": 48303.069333334526,
      "d": 75.75466666666762,
      "v": 95
    },
    {
      "midi": 56,
      "hit": false,
      "t": 48303.069333334526,
      "d": 85.22400000000198,
      "v": 95
    },
    {
      "midi": 40,
      "hit": false,
      "t": 48303.069333334526,
      "d": 85.22400000000198,
      "v": 100
    },
    {
      "midi": 42,
      "hit": false,
      "t": 48303.069333334526,
      "d": 94.69333333333634,
      "v": 78
    },
    {
      "midi": 64,
      "hit": false,
      "t": 48312.53866666786,
      "d": 66.28533333333326,
      "v": 95
    },
    {
      "midi": 68,
      "hit": false,
      "t": 48407.2320000012,
      "d": 85.22400000000198,
      "v": 80
    },
    {
      "midi": 28,
      "hit": false,
      "t": 48407.2320000012,
      "d": 94.69333333333634,
      "v": 127
    },
    {
      "midi": 59,
      "hit": false,
      "t": 48407.2320000012,
      "d": 94.69333333333634,
      "v": 95
    },
    {
      "midi": 127,
      "hit": false,
      "t": 48407.2320000012,
      "d": 94.69333333333634,
      "v": 60
    },
    {
      "midi": 108,
      "hit": false,
      "t": 48407.2320000012,
      "d": 94.69333333333634,
      "v": 80
    },
    {
      "midi": 105,
      "hit": false,
      "t": 48407.2320000012,
      "d": 94.69333333333634,
      "v": 100
    },
    {
      "midi": 118,
      "hit": false,
      "t": 48407.2320000012,
      "d": 94.69333333333634,
      "v": 30
    },
    {
      "midi": 47,
      "hit": false,
      "t": 48416.70133333453,
      "d": 75.75466666666762,
      "v": 95
    },
    {
      "midi": 56,
      "hit": false,
      "t": 48416.70133333453,
      "d": 85.22400000000198,
      "v": 95
    },
    {
      "midi": 64,
      "hit": false,
      "t": 48416.70133333453,
      "d": 85.22400000000198,
      "v": 105
    },
    {
      "midi": 40,
      "hit": false,
      "t": 48426.170666667866,
      "d": 66.28533333333326,
      "v": 95
    },
    {
      "midi": 46,
      "hit": false,
      "t": 48426.170666667866,
      "d": 94.69333333333634,
      "v": 92
    },
    {
      "midi": 47,
      "hit": false,
      "t": 48520.8640000012,
      "d": 94.69333333333634,
      "v": 95
    },
    {
      "midi": 63,
      "hit": false,
      "t": 48520.8640000012,
      "d": 94.69333333333634,
      "v": 80
    },
    {
      "midi": 59,
      "hit": false,
      "t": 48530.333333334536,
      "d": 75.75466666666762,
      "v": 95
    },
    {
      "midi": 56,
      "hit": false,
      "t": 48530.333333334536,
      "d": 85.22400000000198,
      "v": 95
    },
    {
      "midi": 40,
      "hit": false,
      "t": 48530.333333334536,
      "d": 85.22400000000198,
      "v": 105
    },
    {
      "midi": 64,
      "hit": false,
      "t": 48539.80266666787,
      "d": 66.28533333333326,
      "v": 95
    },
    {
      "midi": 59,
      "hit": false,
      "t": 48634.49600000121,
      "d": 85.22400000000198,
      "v": 115
    },
    {
      "midi": 28,
      "hit": false,
      "t": 48634.49600000121,
      "d": 94.69333333333634,
      "v": 127
    },
    {
      "midi": 15,
      "hit": false,
      "t": 48634.49600000121,
      "d": 94.69333333333634,
      "v": 100
    },
    {
      "midi": 13,
      "hit": false,
      "t": 48634.49600000121,
      "d": 94.69333333333634,
      "v": 100
    },
    {
      "midi": 10,
      "hit": false,
      "t": 48634.49600000121,
      "d": 94.69333333333634,
      "v": 127
    },
    {
      "midi": 127,
      "hit": false,
      "t": 48634.49600000121,
      "d": 94.69333333333634,
      "v": 60
    },
    {
      "midi": 108,
      "hit": false,
      "t": 48634.49600000121,
      "d": 94.69333333333634,
      "v": 80
    },
    {
      "midi": 105,
      "hit": false,
      "t": 48634.49600000121,
      "d": 94.69333333333634,
      "v": 100
    },
    {
      "midi": 42,
      "hit": false,
      "t": 48634.49600000121,
      "d": 94.69333333333634,
      "v": 92
    },
    {
      "midi": 118,
      "hit": false,
      "t": 48634.49600000121,
      "d": 94.69333333333634,
      "v": 50
    },
    {
      "midi": 62,
      "hit": false,
      "t": 48634.49600000121,
      "d": 303.01866666667775,
      "v": 127
    },
    {
      "midi": 47,
      "hit": false,
      "t": 48643.96533333454,
      "d": 75.75466666666762,
      "v": 115
    },
    {
      "midi": 56,
      "hit": false,
      "t": 48643.96533333454,
      "d": 85.22400000000198,
      "v": 115
    },
    {
      "midi": 64,
      "hit": false,
      "t": 48643.96533333454,
      "d": 85.22400000000198,
      "v": 90
    },
    {
      "midi": 40,
      "hit": false,
      "t": 48653.434666667876,
      "d": 66.28533333333326,
      "v": 115
    },
    {
      "midi": 59,
      "hit": false,
      "t": 48738.65866666788,
      "d": 303.01866666667775,
      "v": 100
    },
    {
      "midi": 64,
      "hit": false,
      "t": 48748.12800000121,
      "d": 85.22400000000198,
      "v": 80
    },
    {
      "midi": 28,
      "hit": false,
      "t": 48748.12800000121,
      "d": 94.69333333333634,
      "v": 127
    },
    {
      "midi": 127,
      "hit": false,
      "t": 48748.12800000121,
      "d": 94.69333333333634,
      "v": 60
    },
    {
      "midi": 108,
      "hit": false,
      "t": 48748.12800000121,
      "d": 94.69333333333634,
      "v": 80
    },
    {
      "midi": 105,
      "hit": false,
      "t": 48748.12800000121,
      "d": 94.69333333333634,
      "v": 100
    },
    {
      "midi": 56,
      "hit": false,
      "t": 48748.12800000121,
      "d": 303.01866666667775,
      "v": 100
    },
    {
      "midi": 47,
      "hit": false,
      "t": 48748.12800000121,
      "d": 303.01866666667775,
      "v": 100
    },
    {
      "midi": 42,
      "hit": false,
      "t": 48757.59733333455,
      "d": 94.69333333333634,
      "v": 78
    },
    {
      "midi": 40,
      "hit": false,
      "t": 48757.59733333455,
      "d": 303.01866666667775,
      "v": 100
    },
    {
      "midi": 68,
      "hit": false,
      "t": 48861.76000000122,
      "d": 85.22400000000198,
      "v": 80
    },
    {
      "midi": 28,
      "hit": false,
      "t": 48861.76000000122,
      "d": 94.69333333333634,
      "v": 127
    },
    {
      "midi": 15,
      "hit": false,
      "t": 48861.76000000122,
      "d": 94.69333333333634,
      "v": 100
    },
    {
      "midi": 13,
      "hit": false,
      "t": 48861.76000000122,
      "d": 94.69333333333634,
      "v": 100
    },
    {
      "midi": 10,
      "hit": false,
      "t": 48861.76000000122,
      "d": 94.69333333333634,
      "v": 127
    },
    {
      "midi": 127,
      "hit": false,
      "t": 48861.76000000122,
      "d": 94.69333333333634,
      "v": 60
    },
    {
      "midi": 108,
      "hit": false,
      "t": 48861.76000000122,
      "d": 94.69333333333634,
      "v": 80
    },
    {
      "midi": 105,
      "hit": false,
      "t": 48861.76000000122,
      "d": 94.69333333333634,
      "v": 100
    },
    {
      "midi": 118,
      "hit": false,
      "t": 48861.76000000122,
      "d": 94.69333333333634,
      "v": 50
    },
    {
      "midi": 46,
      "hit": false,
      "t": 48880.698666667886,
      "d": 94.69333333333634,
      "v": 92
    },
    {
      "midi": 71,
      "hit": false,
      "t": 48975.39200000122,
      "d": 85.22400000000198,
      "v": 80
    },
    {
      "midi": 28,
      "hit": false,
      "t": 48975.39200000122,
      "d": 94.69333333333634,
      "v": 127
    },
    {
      "midi": 118,
      "hit": false,
      "t": 48975.39200000122,
      "d": 94.69333333333634,
      "v": 30
    },
    {
      "midi": 86,
      "hit": false,
      "t": 49089.02400000123,
      "d": 85.22400000000198,
      "v": 80
    },
    {
      "midi": 26,
      "hit": false,
      "t": 49089.02400000123,
      "d": 94.69333333333634,
      "v": 127
    },
    {
      "midi": 15,
      "hit": false,
      "t": 49089.02400000123,
      "d": 94.69333333333634,
      "v": 100
    },
    {
      "midi": 13,
      "hit": false,
      "t": 49089.02400000123,
      "d": 94.69333333333634,
      "v": 100
    },
    {
      "midi": 10,
      "hit": false,
      "t": 49089.02400000123,
      "d": 94.69333333333634,
      "v": 127
    },
    {
      "midi": 42,
      "hit": false,
      "t": 49089.02400000123,
      "d": 94.69333333333634,
      "v": 92
    },
    {
      "midi": 126,
      "hit": false,
      "t": 49089.02400000123,
      "d": 94.69333333333634,
      "v": 90
    },
    {
      "midi": 72,
      "hit": false,
      "t": 49089.02400000123,
      "d": 312.4880000000121,
      "v": 100
    },
    {
      "midi": 64,
      "hit": false,
      "t": 49089.02400000123,
      "d": 321.95733333334647,
      "v": 127
    },
    {
      "midi": 55,
      "hit": false,
      "t": 49089.02400000123,
      "d": 426.12000000001717,
      "v": 80
    },
    {
      "midi": 62,
      "hit": false,
      "t": 49089.02400000123,
      "d": 653.3840000000273,
      "v": 115
    },
    {
      "midi": 57,
      "hit": false,
      "t": 49089.02400000123,
      "d": 653.3840000000273,
      "v": 115
    },
    {
      "midi": 53,
      "hit": false,
      "t": 49098.49333333456,
      "d": 653.3840000000273,
      "v": 115
    },
    {
      "midi": 45,
      "hit": false,
      "t": 49098.49333333456,
      "d": 653.3840000000273,
      "v": 115
    },
    {
      "midi": 38,
      "hit": false,
      "t": 49107.962666667896,
      "d": 653.3840000000273,
      "v": 115
    },
    {
      "midi": 84,
      "hit": false,
      "t": 49145.840000001226,
      "d": 426.12000000002445,
      "v": 127
    },
    {
      "midi": 81,
      "hit": false,
      "t": 49202.65600000123,
      "d": 85.22400000000198,
      "v": 80
    },
    {
      "midi": 26,
      "hit": false,
      "t": 49202.65600000123,
      "d": 94.69333333333634,
      "v": 127
    },
    {
      "midi": 42,
      "hit": false,
      "t": 49212.12533333457,
      "d": 94.69333333333634,
      "v": 78
    },
    {
      "midi": 77,
      "hit": false,
      "t": 49316.28800000124,
      "d": 85.22400000000198,
      "v": 80
    },
    {
      "midi": 26,
      "hit": false,
      "t": 49316.28800000124,
      "d": 94.69333333333634,
      "v": 127
    },
    {
      "midi": 46,
      "hit": false,
      "t": 49335.226666667906,
      "d": 94.69333333333634,
      "v": 92
    },
    {
      "midi": 74,
      "hit": false,
      "t": 49429.92000000124,
      "d": 85.22400000000198,
      "v": 80
    },
    {
      "midi": 26,
      "hit": false,
      "t": 49429.92000000124,
      "d": 94.69333333333634,
      "v": 127
    },
    {
      "midi": 64,
      "hit": false,
      "t": 49429.92000000124,
      "d": 94.69333333333634,
      "v": 70
    },
    {
      "midi": 69,
      "hit": false,
      "t": 49543.55200000125,
      "d": 85.22400000000198,
      "v": 80
    },
    {
      "midi": 26,
      "hit": false,
      "t": 49543.55200000125,
      "d": 94.69333333333634,
      "v": 127
    },
    {
      "midi": 15,
      "hit": false,
      "t": 49543.55200000125,
      "d": 94.69333333333634,
      "v": 100
    },
    {
      "midi": 13,
      "hit": false,
      "t": 49543.55200000125,
      "d": 94.69333333333634,
      "v": 100
    },
    {
      "midi": 10,
      "hit": false,
      "t": 49543.55200000125,
      "d": 94.69333333333634,
      "v": 127
    },
    {
      "midi": 127,
      "hit": false,
      "t": 49543.55200000125,
      "d": 94.69333333333634,
      "v": 60
    },
    {
      "midi": 108,
      "hit": false,
      "t": 49543.55200000125,
      "d": 94.69333333333634,
      "v": 80
    },
    {
      "midi": 105,
      "hit": false,
      "t": 49543.55200000125,
      "d": 94.69333333333634,
      "v": 100
    },
    {
      "midi": 42,
      "hit": false,
      "t": 49543.55200000125,
      "d": 94.69333333333634,
      "v": 92
    },
    {
      "midi": 118,
      "hit": false,
      "t": 49543.55200000125,
      "d": 94.69333333333634,
      "v": 50
    },
    {
      "midi": 63,
      "hit": false,
      "t": 49543.55200000125,
      "d": 94.69333333333634,
      "v": 70
    },
    {
      "midi": 65,
      "hit": false,
      "t": 49657.18400000125,
      "d": 85.22400000000198,
      "v": 80
    },
    {
      "midi": 42,
      "hit": false,
      "t": 49666.65333333459,
      "d": 94.69333333333634,
      "v": 78
    },
    {
      "midi": 62,
      "hit": false,
      "t": 49770.81600000126,
      "d": 85.22400000000198,
      "v": 115
    },
    {
      "midi": 26,
      "hit": false,
      "t": 49770.81600000126,
      "d": 208.32533333333413,
      "v": 127
    },
    {
      "midi": 64,
      "hit": false,
      "t": 49770.81600000126,
      "d": 303.01866666667047,
      "v": 127
    },
    {
      "midi": 57,
      "hit": false,
      "t": 49770.81600000126,
      "d": 416.65066666667553,
      "v": 115
    },
    {
      "midi": 53,
      "hit": false,
      "t": 49780.28533333459,
      "d": 416.65066666667553,
      "v": 115
    },
    {
      "midi": 45,
      "hit": false,
      "t": 49780.28533333459,
      "d": 416.65066666667553,
      "v": 115
    },
    {
      "midi": 46,
      "hit": false,
      "t": 49789.754666667926,
      "d": 94.69333333333634,
      "v": 92
    },
    {
      "midi": 38,
      "hit": false,
      "t": 49789.754666667926,
      "d": 416.65066666667553,
      "v": 115
    },
    {
      "midi": 65,
      "hit": false,
      "t": 49884.44800000126,
      "d": 85.2239999999947,
      "v": 80
    },
    {
      "midi": 118,
      "hit": false,
      "t": 49884.44800000126,
      "d": 94.69333333332906,
      "v": 50
    },
    {
      "midi": 69,
      "hit": false,
      "t": 49998.08000000126,
      "d": 85.22400000000198,
      "v": 80
    },
    {
      "midi": 26,
      "hit": false,
      "t": 49998.08000000126,
      "d": 94.69333333333634,
      "v": 127
    },
    {
      "midi": 15,
      "hit": false,
      "t": 49998.08000000126,
      "d": 94.69333333333634,
      "v": 100
    },
    {
      "midi": 13,
      "hit": false,
      "t": 49998.08000000126,
      "d": 94.69333333333634,
      "v": 100
    },
    {
      "midi": 10,
      "hit": false,
      "t": 49998.08000000126,
      "d": 94.69333333333634,
      "v": 127
    },
    {
      "midi": 42,
      "hit": false,
      "t": 49998.08000000126,
      "d": 94.69333333333634,
      "v": 92
    },
    {
      "midi": 74,
      "hit": false,
      "t": 50111.712000001266,
      "d": 85.22400000000198,
      "v": 80
    },
    {
      "midi": 118,
      "hit": false,
      "t": 50111.712000001266,
      "d": 94.69333333333634,
      "v": 50
    },
    {
      "midi": 42,
      "hit": false,
      "t": 50121.1813333346,
      "d": 94.69333333333634,
      "v": 78
    },
    {
      "midi": 38,
      "hit": false,
      "t": 50215.874666667936,
      "d": 208.32533333333413,
      "v": 100
    },
    {
      "midi": 45,
      "hit": false,
      "t": 50215.874666667936,
      "d": 208.32533333333413,
      "v": 100
    },
    {
      "midi": 77,
      "hit": false,
      "t": 50225.34400000127,
      "d": 85.22400000000198,
      "v": 80
    },
    {
      "midi": 26,
      "hit": false,
      "t": 50225.34400000127,
      "d": 94.69333333333634,
      "v": 127
    },
    {
      "midi": 118,
      "hit": false,
      "t": 50225.34400000127,
      "d": 94.69333333333634,
      "v": 30
    },
    {
      "midi": 53,
      "hit": false,
      "t": 50225.34400000127,
      "d": 208.32533333333413,
      "v": 100
    },
    {
      "midi": 57,
      "hit": false,
      "t": 50225.34400000127,
      "d": 208.32533333333413,
      "v": 100
    },
    {
      "midi": 62,
      "hit": false,
      "t": 50234.813333334605,
      "d": 198.85599999999977,
      "v": 100
    },
    {
      "midi": 46,
      "hit": false,
      "t": 50244.28266666794,
      "d": 94.69333333333634,
      "v": 92
    },
    {
      "midi": 81,
      "hit": false,
      "t": 50338.976000001276,
      "d": 85.2239999999947,
      "v": 80
    },
    {
      "midi": 63,
      "hit": false,
      "t": 50338.976000001276,
      "d": 94.69333333332906,
      "v": 80
    },
    {
      "midi": 62,
      "hit": false,
      "t": 50443.13866666794,
      "d": 208.3253333333414,
      "v": 100
    },
    {
      "midi": 57,
      "hit": false,
      "t": 50443.13866666794,
      "d": 208.3253333333414,
      "v": 100
    },
    {
      "midi": 86,
      "hit": false,
      "t": 50452.60800000127,
      "d": 85.22400000000198,
      "v": 80
    },
    {
      "midi": 26,
      "hit": false,
      "t": 50452.60800000127,
      "d": 94.69333333333634,
      "v": 127
    },
    {
      "midi": 15,
      "hit": false,
      "t": 50452.60800000127,
      "d": 94.69333333333634,
      "v": 100
    },
    {
      "midi": 13,
      "hit": false,
      "t": 50452.60800000127,
      "d": 94.69333333333634,
      "v": 100
    },
    {
      "midi": 10,
      "hit": false,
      "t": 50452.60800000127,
      "d": 94.69333333333634,
      "v": 127
    },
    {
      "midi": 127,
      "hit": false,
      "t": 50452.60800000127,
      "d": 94.69333333333634,
      "v": 60
    },
    {
      "midi": 108,
      "hit": false,
      "t": 50452.60800000127,
      "d": 94.69333333333634,
      "v": 80
    },
    {
      "midi": 105,
      "hit": false,
      "t": 50452.60800000127,
      "d": 94.69333333333634,
      "v": 100
    },
    {
      "midi": 42,
      "hit": false,
      "t": 50452.60800000127,
      "d": 94.69333333333634,
      "v": 92
    },
    {
      "midi": 118,
      "hit": false,
      "t": 50452.60800000127,
      "d": 94.69333333333634,
      "v": 50
    },
    {
      "midi": 64,
      "hit": false,
      "t": 50452.60800000127,
      "d": 94.69333333333634,
      "v": 70
    },
    {
      "midi": 60,
      "hit": false,
      "t": 50452.60800000127,
      "d": 208.3253333333414,
      "v": 127
    },
    {
      "midi": 71,
      "hit": false,
      "t": 50452.60800000127,
      "d": 208.3253333333414,
      "v": 100
    },
    {
      "midi": 53,
      "hit": false,
      "t": 50452.60800000127,
      "d": 208.3253333333414,
      "v": 100
    },
    {
      "midi": 45,
      "hit": false,
      "t": 50452.60800000127,
      "d": 208.3253333333414,
      "v": 100
    },
    {
      "midi": 38,
      "hit": false,
      "t": 50462.07733333461,
      "d": 208.3253333333414,
      "v": 100
    },
    {
      "midi": 81,
      "hit": false,
      "t": 50566.24000000128,
      "d": 85.22400000000198,
      "v": 80
    },
    {
      "midi": 26,
      "hit": false,
      "t": 50566.24000000128,
      "d": 94.69333333333634,
      "v": 127
    },
    {
      "midi": 42,
      "hit": false,
      "t": 50575.70933333461,
      "d": 94.69333333333634,
      "v": 78
    },
    {
      "midi": 38,
      "hit": false,
      "t": 50670.40266666795,
      "d": 94.69333333333634,
      "v": 90
    },
    {
      "midi": 45,
      "hit": false,
      "t": 50670.40266666795,
      "d": 94.69333333333634,
      "v": 90
    },
    {
      "midi": 77,
      "hit": false,
      "t": 50679.87200000128,
      "d": 85.22400000000198,
      "v": 80
    },
    {
      "midi": 26,
      "hit": false,
      "t": 50679.87200000128,
      "d": 94.69333333333634,
      "v": 127
    },
    {
      "midi": 53,
      "hit": false,
      "t": 50679.87200000128,
      "d": 94.69333333333634,
      "v": 90
    },
    {
      "midi": 57,
      "hit": false,
      "t": 50679.87200000128,
      "d": 94.69333333333634,
      "v": 90
    },
    {
      "midi": 118,
      "hit": false,
      "t": 50679.87200000128,
      "d": 94.69333333333634,
      "v": 50
    },
    {
      "midi": 72,
      "hit": false,
      "t": 50679.87200000128,
      "d": 208.3253333333414,
      "v": 100
    },
    {
      "midi": 62,
      "hit": false,
      "t": 50689.34133333462,
      "d": 94.69333333333634,
      "v": 90
    },
    {
      "midi": 46,
      "hit": false,
      "t": 50698.81066666795,
      "d": 94.69333333333634,
      "v": 92
    },
    {
      "midi": 62,
      "hit": false,
      "t": 50784.034666667954,
      "d": 94.69333333333634,
      "v": 80
    },
    {
      "midi": 57,
      "hit": false,
      "t": 50784.034666667954,
      "d": 94.69333333333634,
      "v": 80
    },
    {
      "midi": 74,
      "hit": false,
      "t": 50793.50400000129,
      "d": 85.22400000000198,
      "v": 127
    },
    {
      "midi": 53,
      "hit": false,
      "t": 50793.50400000129,
      "d": 94.69333333333634,
      "v": 80
    },
    {
      "midi": 45,
      "hit": false,
      "t": 50793.50400000129,
      "d": 94.69333333333634,
      "v": 80
    },
    {
      "midi": 118,
      "hit": false,
      "t": 50793.50400000129,
      "d": 94.69333333333634,
      "v": 30
    },
    {
      "midi": 38,
      "hit": false,
      "t": 50802.97333333462,
      "d": 94.69333333333634,
      "v": 80
    },
    {
      "midi": 31,
      "hit": false,
      "t": 50907.136000001294,
      "d": 94.69333333334362,
      "v": 127
    },
    {
      "midi": 15,
      "hit": false,
      "t": 50907.136000001294,
      "d": 94.69333333334362,
      "v": 100
    },
    {
      "midi": 13,
      "hit": false,
      "t": 50907.136000001294,
      "d": 94.69333333334362,
      "v": 100
    },
    {
      "midi": 10,
      "hit": false,
      "t": 50907.136000001294,
      "d": 94.69333333334362,
      "v": 127
    },
    {
      "midi": 42,
      "hit": false,
      "t": 50907.136000001294,
      "d": 94.69333333334362,
      "v": 92
    },
    {
      "midi": 74,
      "hit": false,
      "t": 50907.136000001294,
      "d": 312.4880000000194,
      "v": 100
    },
    {
      "midi": 64,
      "hit": false,
      "t": 50907.136000001294,
      "d": 321.95733333335374,
      "v": 127
    },
    {
      "midi": 62,
      "hit": false,
      "t": 50907.136000001294,
      "d": 653.3840000000419,
      "v": 107
    },
    {
      "midi": 59,
      "hit": false,
      "t": 50916.60533333463,
      "d": 653.3840000000419,
      "v": 115
    },
    {
      "midi": 43,
      "hit": false,
      "t": 50916.60533333463,
      "d": 662.8533333333762,
      "v": 100
    },
    {
      "midi": 55,
      "hit": false,
      "t": 50916.60533333463,
      "d": 662.8533333333762,
      "v": 115
    },
    {
      "midi": 50,
      "hit": false,
      "t": 50926.07466666796,
      "d": 643.9146666667075,
      "v": 115
    },
    {
      "midi": 47,
      "hit": false,
      "t": 50926.07466666796,
      "d": 662.8533333333762,
      "v": 115
    },
    {
      "midi": 86,
      "hit": false,
      "t": 50963.9520000013,
      "d": 28.408000000003085,
      "v": 127
    },
    {
      "midi": 83,
      "hit": false,
      "t": 51020.768000001306,
      "d": 85.22400000000198,
      "v": 80
    },
    {
      "midi": 31,
      "hit": false,
      "t": 51020.768000001306,
      "d": 94.69333333333634,
      "v": 127
    },
    {
      "midi": 42,
      "hit": false,
      "t": 51030.23733333464,
      "d": 94.69333333333634,
      "v": 78
    },
    {
      "midi": 79,
      "hit": false,
      "t": 51134.40000000131,
      "d": 85.22400000000198,
      "v": 80
    },
    {
      "midi": 31,
      "hit": false,
      "t": 51134.40000000131,
      "d": 94.69333333333634,
      "v": 127
    },
    {
      "midi": 46,
      "hit": false,
      "t": 51153.33866666798,
      "d": 94.69333333333634,
      "v": 92
    },
    {
      "midi": 74,
      "hit": false,
      "t": 51248.032000001316,
      "d": 85.22400000000198,
      "v": 80
    },
    {
      "midi": 31,
      "hit": false,
      "t": 51248.032000001316,
      "d": 94.69333333333634,
      "v": 127
    },
    {
      "midi": 64,
      "hit": false,
      "t": 51248.032000001316,
      "d": 94.69333333333634,
      "v": 70
    },
    {
      "midi": 71,
      "hit": false,
      "t": 51361.66400000132,
      "d": 85.22400000000926,
      "v": 80
    },
    {
      "midi": 31,
      "hit": false,
      "t": 51361.66400000132,
      "d": 94.69333333334362,
      "v": 127
    },
    {
      "midi": 15,
      "hit": false,
      "t": 51361.66400000132,
      "d": 94.69333333334362,
      "v": 100
    },
    {
      "midi": 13,
      "hit": false,
      "t": 51361.66400000132,
      "d": 94.69333333334362,
      "v": 100
    },
    {
      "midi": 10,
      "hit": false,
      "t": 51361.66400000132,
      "d": 94.69333333334362,
      "v": 127
    },
    {
      "midi": 127,
      "hit": false,
      "t": 51361.66400000132,
      "d": 94.69333333334362,
      "v": 60
    },
    {
      "midi": 108,
      "hit": false,
      "t": 51361.66400000132,
      "d": 94.69333333334362,
      "v": 80
    },
    {
      "midi": 105,
      "hit": false,
      "t": 51361.66400000132,
      "d": 94.69333333334362,
      "v": 100
    },
    {
      "midi": 42,
      "hit": false,
      "t": 51361.66400000132,
      "d": 94.69333333334362,
      "v": 92
    },
    {
      "midi": 118,
      "hit": false,
      "t": 51361.66400000132,
      "d": 94.69333333334362,
      "v": 50
    },
    {
      "midi": 63,
      "hit": false,
      "t": 51361.66400000132,
      "d": 94.69333333334362,
      "v": 70
    },
    {
      "midi": 67,
      "hit": false,
      "t": 51475.29600000133,
      "d": 85.22400000000198,
      "v": 80
    },
    {
      "midi": 42,
      "hit": false,
      "t": 51484.76533333467,
      "d": 94.69333333333634,
      "v": 78
    },
    {
      "midi": 62,
      "hit": false,
      "t": 51588.92800000134,
      "d": 85.22400000000198,
      "v": 115
    },
    {
      "midi": 31,
      "hit": false,
      "t": 51588.92800000134,
      "d": 94.69333333333634,
      "v": 127
    },
    {
      "midi": 59,
      "hit": false,
      "t": 51598.39733333467,
      "d": 653.3840000000273,
      "v": 115
    },
    {
      "midi": 43,
      "hit": false,
      "t": 51598.39733333467,
      "d": 662.8533333333617,
      "v": 110
    },
    {
      "midi": 55,
      "hit": false,
      "t": 51598.39733333467,
      "d": 1117.381333333382,
      "v": 115
    },
    {
      "midi": 46,
      "hit": false,
      "t": 51607.86666666801,
      "d": 94.69333333333634,
      "v": 92
    },
    {
      "midi": 50,
      "hit": false,
      "t": 51607.86666666801,
      "d": 643.9146666666929,
      "v": 115
    },
    {
      "midi": 47,
      "hit": false,
      "t": 51607.86666666801,
      "d": 1117.381333333382,
      "v": 115
    },
    {
      "midi": 67,
      "hit": false,
      "t": 51702.560000001344,
      "d": 75.75466666666762,
      "v": 80
    },
    {
      "midi": 118,
      "hit": false,
      "t": 51702.560000001344,
      "d": 94.69333333333634,
      "v": 50
    },
    {
      "midi": 71,
      "hit": false,
      "t": 51816.19200000135,
      "d": 85.22400000000198,
      "v": 80
    },
    {
      "midi": 31,
      "hit": false,
      "t": 51816.19200000135,
      "d": 94.69333333333634,
      "v": 127
    },
    {
      "midi": 15,
      "hit": false,
      "t": 51816.19200000135,
      "d": 94.69333333333634,
      "v": 100
    },
    {
      "midi": 13,
      "hit": false,
      "t": 51816.19200000135,
      "d": 94.69333333333634,
      "v": 100
    },
    {
      "midi": 10,
      "hit": false,
      "t": 51816.19200000135,
      "d": 94.69333333333634,
      "v": 127
    },
    {
      "midi": 42,
      "hit": false,
      "t": 51816.19200000135,
      "d": 94.69333333333634,
      "v": 92
    },
    {
      "midi": 67,
      "hit": false,
      "t": 51816.19200000135,
      "d": 426.12000000001717,
      "v": 100
    },
    {
      "midi": 74,
      "hit": false,
      "t": 51929.824000001354,
      "d": 85.22400000000198,
      "v": 80
    },
    {
      "midi": 118,
      "hit": false,
      "t": 51929.824000001354,
      "d": 94.69333333333634,
      "v": 50
    },
    {
      "midi": 42,
      "hit": false,
      "t": 51939.29333333469,
      "d": 94.69333333333634,
      "v": 78
    },
    {
      "midi": 79,
      "hit": false,
      "t": 52043.45600000136,
      "d": 85.22400000000198,
      "v": 80
    },
    {
      "midi": 31,
      "hit": false,
      "t": 52043.45600000136,
      "d": 94.69333333333634,
      "v": 127
    },
    {
      "midi": 118,
      "hit": false,
      "t": 52043.45600000136,
      "d": 94.69333333333634,
      "v": 30
    },
    {
      "midi": 60,
      "hit": false,
      "t": 52043.45600000136,
      "d": 208.3253333333414,
      "v": 127
    },
    {
      "midi": 65,
      "hit": false,
      "t": 52043.45600000136,
      "d": 208.3253333333414,
      "v": 107
    },
    {
      "midi": 46,
      "hit": false,
      "t": 52062.39466666803,
      "d": 94.69333333333634,
      "v": 92
    },
    {
      "midi": 83,
      "hit": false,
      "t": 52157.088000001364,
      "d": 85.22400000000198,
      "v": 80
    },
    {
      "midi": 63,
      "hit": false,
      "t": 52157.088000001364,
      "d": 94.69333333333634,
      "v": 80
    },
    {
      "midi": 67,
      "hit": false,
      "t": 52261.250666668035,
      "d": 426.12000000001717,
      "v": 100
    },
    {
      "midi": 86,
      "hit": false,
      "t": 52270.72000000137,
      "d": 85.22400000000198,
      "v": 80
    },
    {
      "midi": 31,
      "hit": false,
      "t": 52270.72000000137,
      "d": 94.69333333333634,
      "v": 127
    },
    {
      "midi": 15,
      "hit": false,
      "t": 52270.72000000137,
      "d": 94.69333333333634,
      "v": 100
    },
    {
      "midi": 13,
      "hit": false,
      "t": 52270.72000000137,
      "d": 94.69333333333634,
      "v": 100
    },
    {
      "midi": 10,
      "hit": false,
      "t": 52270.72000000137,
      "d": 94.69333333333634,
      "v": 127
    },
    {
      "midi": 127,
      "hit": false,
      "t": 52270.72000000137,
      "d": 94.69333333333634,
      "v": 60
    },
    {
      "midi": 108,
      "hit": false,
      "t": 52270.72000000137,
      "d": 94.69333333333634,
      "v": 80
    },
    {
      "midi": 105,
      "hit": false,
      "t": 52270.72000000137,
      "d": 94.69333333333634,
      "v": 100
    },
    {
      "midi": 42,
      "hit": false,
      "t": 52270.72000000137,
      "d": 94.69333333333634,
      "v": 92
    },
    {
      "midi": 118,
      "hit": false,
      "t": 52270.72000000137,
      "d": 94.69333333333634,
      "v": 50
    },
    {
      "midi": 64,
      "hit": false,
      "t": 52270.72000000137,
      "d": 94.69333333333634,
      "v": 70
    },
    {
      "midi": 62,
      "hit": false,
      "t": 52270.72000000137,
      "d": 208.3253333333414,
      "v": 127
    },
    {
      "midi": 79,
      "hit": false,
      "t": 52270.72000000137,
      "d": 208.3253333333414,
      "v": 100
    },
    {
      "midi": 65,
      "hit": false,
      "t": 52270.72000000137,
      "d": 208.3253333333414,
      "v": 107
    },
    {
      "midi": 59,
      "hit": false,
      "t": 52270.72000000137,
      "d": 426.12000000001717,
      "v": 100
    },
    {
      "midi": 50,
      "hit": false,
      "t": 52270.72000000137,
      "d": 426.12000000001717,
      "v": 100
    },
    {
      "midi": 43,
      "hit": false,
      "t": 52280.1893333347,
      "d": 426.12000000001717,
      "v": 100
    },
    {
      "midi": 83,
      "hit": false,
      "t": 52384.352000001374,
      "d": 85.22400000000198,
      "v": 80
    },
    {
      "midi": 31,
      "hit": false,
      "t": 52384.352000001374,
      "d": 94.69333333333634,
      "v": 127
    },
    {
      "midi": 42,
      "hit": false,
      "t": 52393.82133333471,
      "d": 94.69333333333634,
      "v": 78
    },
    {
      "midi": 79,
      "hit": false,
      "t": 52497.98400000138,
      "d": 85.22400000000198,
      "v": 80
    },
    {
      "midi": 31,
      "hit": false,
      "t": 52497.98400000138,
      "d": 94.69333333333634,
      "v": 127
    },
    {
      "midi": 15,
      "hit": false,
      "t": 52497.98400000138,
      "d": 94.69333333333634,
      "v": 100
    },
    {
      "midi": 13,
      "hit": false,
      "t": 52497.98400000138,
      "d": 94.69333333333634,
      "v": 100
    },
    {
      "midi": 10,
      "hit": false,
      "t": 52497.98400000138,
      "d": 94.69333333333634,
      "v": 127
    },
    {
      "midi": 118,
      "hit": false,
      "t": 52497.98400000138,
      "d": 94.69333333333634,
      "v": 50
    },
    {
      "midi": 60,
      "hit": false,
      "t": 52497.98400000138,
      "d": 208.3253333333414,
      "v": 127
    },
    {
      "midi": 65,
      "hit": false,
      "t": 52497.98400000138,
      "d": 208.3253333333414,
      "v": 107
    },
    {
      "midi": 46,
      "hit": false,
      "t": 52516.92266666805,
      "d": 94.69333333333634,
      "v": 92
    },
    {
      "midi": 74,
      "hit": false,
      "t": 52611.616000001384,
      "d": 85.22400000000198,
      "v": 80
    },
    {
      "midi": 118,
      "hit": false,
      "t": 52611.616000001384,
      "d": 94.69333333333634,
      "v": 30
    },
    {
      "midi": 84,
      "hit": false,
      "t": 52725.24800000139,
      "d": 56.815999999998894,
      "v": 80
    },
    {
      "midi": 24,
      "hit": false,
      "t": 52725.24800000139,
      "d": 94.69333333333634,
      "v": 127
    },
    {
      "midi": 15,
      "hit": false,
      "t": 52725.24800000139,
      "d": 94.69333333333634,
      "v": 100
    },
    {
      "midi": 13,
      "hit": false,
      "t": 52725.24800000139,
      "d": 94.69333333333634,
      "v": 100
    },
    {
      "midi": 10,
      "hit": false,
      "t": 52725.24800000139,
      "d": 94.69333333333634,
      "v": 127
    },
    {
      "midi": 42,
      "hit": false,
      "t": 52725.24800000139,
      "d": 94.69333333333634,
      "v": 92
    },
    {
      "midi": 88,
      "hit": false,
      "t": 52725.24800000139,
      "d": 426.12000000001717,
      "v": 127
    },
    {
      "midi": 60,
      "hit": false,
      "t": 52725.24800000139,
      "d": 634.4453333333586,
      "v": 115
    },
    {
      "midi": 62,
      "hit": false,
      "t": 52725.24800000139,
      "d": 643.9146666666929,
      "v": 127
    },
    {
      "midi": 74,
      "hit": false,
      "t": 52725.24800000139,
      "d": 643.9146666666929,
      "v": 100
    },
    {
      "midi": 65,
      "hit": false,
      "t": 52725.24800000139,
      "d": 643.9146666666929,
      "v": 107
    },
    {
      "midi": 55,
      "hit": false,
      "t": 52734.717333334724,
      "d": 634.4453333333586,
      "v": 115
    },
    {
      "midi": 52,
      "hit": false,
      "t": 52734.717333334724,
      "d": 643.9146666666929,
      "v": 115
    },
    {
      "midi": 48,
      "hit": false,
      "t": 52744.18666666806,
      "d": 624.9760000000242,
      "v": 115
    },
    {
      "midi": 43,
      "hit": false,
      "t": 52744.18666666806,
      "d": 634.4453333333586,
      "v": 115
    },
    {
      "midi": 84,
      "hit": false,
      "t": 52782.06400000139,
      "d": 28.408000000003085,
      "v": 127
    },
    {
      "midi": 79,
      "hit": false,
      "t": 52838.880000001394,
      "d": 85.22400000000198,
      "v": 80
    },
    {
      "midi": 24,
      "hit": false,
      "t": 52838.880000001394,
      "d": 94.69333333333634,
      "v": 127
    },
    {
      "midi": 42,
      "hit": false,
      "t": 52848.34933333473,
      "d": 94.69333333333634,
      "v": 78
    },
    {
      "midi": 76,
      "hit": false,
      "t": 52952.5120000014,
      "d": 85.22400000000198,
      "v": 80
    },
    {
      "midi": 24,
      "hit": false,
      "t": 52952.5120000014,
      "d": 94.69333333333634,
      "v": 127
    },
    {
      "midi": 46,
      "hit": false,
      "t": 52971.45066666807,
      "d": 94.69333333333634,
      "v": 92
    },
    {
      "midi": 72,
      "hit": false,
      "t": 53066.144000001404,
      "d": 85.22400000000198,
      "v": 80
    },
    {
      "midi": 24,
      "hit": false,
      "t": 53066.144000001404,
      "d": 94.69333333333634,
      "v": 127
    },
    {
      "midi": 64,
      "hit": false,
      "t": 53066.144000001404,
      "d": 94.69333333333634,
      "v": 70
    },
    {
      "midi": 67,
      "hit": false,
      "t": 53179.77600000141,
      "d": 85.22400000000198,
      "v": 80
    },
    {
      "midi": 15,
      "hit": false,
      "t": 53179.77600000141,
      "d": 94.69333333333634,
      "v": 100
    },
    {
      "midi": 13,
      "hit": false,
      "t": 53179.77600000141,
      "d": 94.69333333333634,
      "v": 100
    },
    {
      "midi": 10,
      "hit": false,
      "t": 53179.77600000141,
      "d": 94.69333333333634,
      "v": 127
    },
    {
      "midi": 127,
      "hit": false,
      "t": 53179.77600000141,
      "d": 94.69333333333634,
      "v": 60
    },
    {
      "midi": 108,
      "hit": false,
      "t": 53179.77600000141,
      "d": 94.69333333333634,
      "v": 80
    },
    {
      "midi": 105,
      "hit": false,
      "t": 53179.77600000141,
      "d": 94.69333333333634,
      "v": 100
    },
    {
      "midi": 42,
      "hit": false,
      "t": 53179.77600000141,
      "d": 94.69333333333634,
      "v": 92
    },
    {
      "midi": 118,
      "hit": false,
      "t": 53179.77600000141,
      "d": 94.69333333333634,
      "v": 50
    },
    {
      "midi": 63,
      "hit": false,
      "t": 53179.77600000141,
      "d": 94.69333333333634,
      "v": 70
    },
    {
      "midi": 24,
      "hit": false,
      "t": 53179.77600000141,
      "d": 208.3253333333414,
      "v": 127
    },
    {
      "midi": 64,
      "hit": false,
      "t": 53293.408000001415,
      "d": 66.28533333333326,
      "v": 80
    },
    {
      "midi": 42,
      "hit": false,
      "t": 53302.87733333475,
      "d": 94.69333333333634,
      "v": 78
    },
    {
      "midi": 60,
      "hit": false,
      "t": 53407.04000000142,
      "d": 85.22400000000198,
      "v": 115
    },
    {
      "midi": 24,
      "hit": false,
      "t": 53407.04000000142,
      "d": 208.3253333333414,
      "v": 127
    },
    {
      "midi": 55,
      "hit": false,
      "t": 53416.509333334754,
      "d": 312.48800000000483,
      "v": 115
    },
    {
      "midi": 52,
      "hit": false,
      "t": 53416.509333334754,
      "d": 890.1173333333645,
      "v": 115
    },
    {
      "midi": 46,
      "hit": false,
      "t": 53425.97866666809,
      "d": 94.69333333333634,
      "v": 92
    },
    {
      "midi": 48,
      "hit": false,
      "t": 53425.97866666809,
      "d": 303.01866666667047,
      "v": 115
    },
    {
      "midi": 43,
      "hit": false,
      "t": 53425.97866666809,
      "d": 312.48800000000483,
      "v": 115
    },
    {
      "midi": 64,
      "hit": false,
      "t": 53520.672000001425,
      "d": 85.22400000000198,
      "v": 80
    },
    {
      "midi": 118,
      "hit": false,
      "t": 53520.672000001425,
      "d": 94.69333333333634,
      "v": 50
    },
    {
      "midi": 67,
      "hit": false,
      "t": 53634.30400000143,
      "d": 85.2239999999947,
      "v": 80
    },
    {
      "midi": 24,
      "hit": false,
      "t": 53634.30400000143,
      "d": 94.69333333332906,
      "v": 127
    },
    {
      "midi": 15,
      "hit": false,
      "t": 53634.30400000143,
      "d": 94.69333333332906,
      "v": 100
    },
    {
      "midi": 13,
      "hit": false,
      "t": 53634.30400000143,
      "d": 94.69333333332906,
      "v": 100
    },
    {
      "midi": 10,
      "hit": false,
      "t": 53634.30400000143,
      "d": 94.69333333332906,
      "v": 127
    },
    {
      "midi": 42,
      "hit": false,
      "t": 53634.30400000143,
      "d": 94.69333333332906,
      "v": 92
    },
    {
      "midi": 43,
      "hit": false,
      "t": 53738.46666666809,
      "d": 94.69333333333634,
      "v": 90
    },
    {
      "midi": 48,
      "hit": false,
      "t": 53738.46666666809,
      "d": 94.69333333333634,
      "v": 90
    },
    {
      "midi": 72,
      "hit": false,
      "t": 53747.93600000143,
      "d": 85.22400000000198,
      "v": 80
    },
    {
      "midi": 55,
      "hit": false,
      "t": 53747.93600000143,
      "d": 94.69333333333634,
      "v": 90
    },
    {
      "midi": 60,
      "hit": false,
      "t": 53747.93600000143,
      "d": 94.69333333333634,
      "v": 90
    },
    {
      "midi": 118,
      "hit": false,
      "t": 53747.93600000143,
      "d": 94.69333333333634,
      "v": 50
    },
    {
      "midi": 64,
      "hit": false,
      "t": 53757.40533333476,
      "d": 94.69333333333634,
      "v": 90
    },
    {
      "midi": 42,
      "hit": false,
      "t": 53757.40533333476,
      "d": 94.69333333333634,
      "v": 78
    },
    {
      "midi": 64,
      "hit": false,
      "t": 53852.0986666681,
      "d": 208.3253333333414,
      "v": 100
    },
    {
      "midi": 60,
      "hit": false,
      "t": 53852.0986666681,
      "d": 208.3253333333414,
      "v": 100
    },
    {
      "midi": 76,
      "hit": false,
      "t": 53861.56800000143,
      "d": 85.22400000000198,
      "v": 80
    },
    {
      "midi": 24,
      "hit": false,
      "t": 53861.56800000143,
      "d": 94.69333333333634,
      "v": 127
    },
    {
      "midi": 118,
      "hit": false,
      "t": 53861.56800000143,
      "d": 94.69333333333634,
      "v": 30
    },
    {
      "midi": 55,
      "hit": false,
      "t": 53861.56800000143,
      "d": 208.3253333333414,
      "v": 100
    },
    {
      "midi": 48,
      "hit": false,
      "t": 53861.56800000143,
      "d": 208.3253333333414,
      "v": 100
    },
    {
      "midi": 43,
      "hit": false,
      "t": 53871.03733333477,
      "d": 208.3253333333414,
      "v": 100
    },
    {
      "midi": 46,
      "hit": false,
      "t": 53880.5066666681,
      "d": 94.69333333333634,
      "v": 92
    },
    {
      "midi": 79,
      "hit": false,
      "t": 53975.20000000144,
      "d": 85.22400000000198,
      "v": 80
    },
    {
      "midi": 63,
      "hit": false,
      "t": 53975.20000000144,
      "d": 94.69333333333634,
      "v": 80
    },
    {
      "midi": 43,
      "hit": false,
      "t": 54079.36266666811,
      "d": 208.3253333333414,
      "v": 100
    },
    {
      "midi": 48,
      "hit": false,
      "t": 54079.36266666811,
      "d": 208.3253333333414,
      "v": 100
    },
    {
      "midi": 84,
      "hit": false,
      "t": 54088.83200000144,
      "d": 85.22400000000198,
      "v": 80
    },
    {
      "midi": 24,
      "hit": false,
      "t": 54088.83200000144,
      "d": 94.69333333333634,
      "v": 127
    },
    {
      "midi": 15,
      "hit": false,
      "t": 54088.83200000144,
      "d": 94.69333333333634,
      "v": 100
    },
    {
      "midi": 13,
      "hit": false,
      "t": 54088.83200000144,
      "d": 94.69333333333634,
      "v": 100
    },
    {
      "midi": 10,
      "hit": false,
      "t": 54088.83200000144,
      "d": 94.69333333333634,
      "v": 127
    },
    {
      "midi": 127,
      "hit": false,
      "t": 54088.83200000144,
      "d": 94.69333333333634,
      "v": 60
    },
    {
      "midi": 108,
      "hit": false,
      "t": 54088.83200000144,
      "d": 94.69333333333634,
      "v": 80
    },
    {
      "midi": 105,
      "hit": false,
      "t": 54088.83200000144,
      "d": 94.69333333333634,
      "v": 100
    },
    {
      "midi": 42,
      "hit": false,
      "t": 54088.83200000144,
      "d": 94.69333333333634,
      "v": 92
    },
    {
      "midi": 118,
      "hit": false,
      "t": 54088.83200000144,
      "d": 94.69333333333634,
      "v": 50
    },
    {
      "midi": 60,
      "hit": false,
      "t": 54088.83200000144,
      "d": 208.3253333333414,
      "v": 100
    },
    {
      "midi": 55,
      "hit": false,
      "t": 54088.83200000144,
      "d": 208.3253333333414,
      "v": 100
    },
    {
      "midi": 91,
      "hit": false,
      "t": 54088.83200000144,
      "d": 426.12000000001717,
      "v": 90
    },
    {
      "midi": 64,
      "hit": false,
      "t": 54098.30133333478,
      "d": 85.22400000000198,
      "v": 100
    },
    {
      "midi": 79,
      "hit": false,
      "t": 54202.46400000145,
      "d": 85.22400000000198,
      "v": 80
    },
    {
      "midi": 24,
      "hit": false,
      "t": 54202.46400000145,
      "d": 94.69333333333634,
      "v": 127
    },
    {
      "midi": 42,
      "hit": false,
      "t": 54211.93333333478,
      "d": 94.69333333333634,
      "v": 78
    },
    {
      "midi": 76,
      "hit": false,
      "t": 54316.09600000145,
      "d": 85.22400000000198,
      "v": 80
    },
    {
      "midi": 24,
      "hit": false,
      "t": 54316.09600000145,
      "d": 94.69333333333634,
      "v": 127
    },
    {
      "midi": 48,
      "hit": false,
      "t": 54316.09600000145,
      "d": 94.69333333333634,
      "v": 110
    },
    {
      "midi": 118,
      "hit": false,
      "t": 54316.09600000145,
      "d": 94.69333333333634,
      "v": 50
    },
    {
      "midi": 55,
      "hit": false,
      "t": 54325.56533333479,
      "d": 85.22400000000198,
      "v": 110
    },
    {
      "midi": 43,
      "hit": false,
      "t": 54325.56533333479,
      "d": 85.22400000000198,
      "v": 90
    },
    {
      "midi": 52,
      "hit": false,
      "t": 54325.56533333479,
      "d": 94.69333333333634,
      "v": 110
    },
    {
      "midi": 64,
      "hit": false,
      "t": 54335.03466666812,
      "d": 66.28533333333326,
      "v": 110
    },
    {
      "midi": 60,
      "hit": false,
      "t": 54335.03466666812,
      "d": 66.28533333333326,
      "v": 110
    },
    {
      "midi": 46,
      "hit": false,
      "t": 54335.03466666812,
      "d": 94.69333333333634,
      "v": 92
    },
    {
      "midi": 72,
      "hit": false,
      "t": 54429.72800000146,
      "d": 85.22400000000198,
      "v": 80
    },
    {
      "midi": 60,
      "hit": false,
      "t": 54429.72800000146,
      "d": 94.69333333333634,
      "v": 110
    },
    {
      "midi": 118,
      "hit": false,
      "t": 54429.72800000146,
      "d": 94.69333333333634,
      "v": 30
    },
    {
      "midi": 55,
      "hit": false,
      "t": 54439.19733333479,
      "d": 85.22400000000198,
      "v": 110
    },
    {
      "midi": 64,
      "hit": false,
      "t": 54439.19733333479,
      "d": 85.22400000000198,
      "v": 90
    },
    {
      "midi": 52,
      "hit": false,
      "t": 54439.19733333479,
      "d": 94.69333333333634,
      "v": 110
    },
    {
      "midi": 43,
      "hit": false,
      "t": 54448.66666666813,
      "d": 66.28533333333326,
      "v": 110
    },
    {
      "midi": 48,
      "hit": false,
      "t": 54448.66666666813,
      "d": 66.28533333333326,
      "v": 110
    },
    {
      "midi": 64,
      "hit": false,
      "t": 54533.89066666813,
      "d": 9.469333333334362,
      "v": 100
    },
    {
      "midi": 88,
      "hit": false,
      "t": 54543.36000000146,
      "d": 85.22400000000198,
      "v": 117
    },
    {
      "midi": 33,
      "hit": false,
      "t": 54543.36000000146,
      "d": 94.69333333333634,
      "v": 127
    },
    {
      "midi": 15,
      "hit": false,
      "t": 54543.36000000146,
      "d": 94.69333333333634,
      "v": 100
    },
    {
      "midi": 13,
      "hit": false,
      "t": 54543.36000000146,
      "d": 94.69333333333634,
      "v": 100
    },
    {
      "midi": 10,
      "hit": false,
      "t": 54543.36000000146,
      "d": 94.69333333333634,
      "v": 127
    },
    {
      "midi": 42,
      "hit": false,
      "t": 54543.36000000146,
      "d": 94.69333333333634,
      "v": 92
    },
    {
      "midi": 100,
      "hit": false,
      "t": 54543.36000000146,
      "d": 426.12000000001717,
      "v": 90
    },
    {
      "midi": 52,
      "hit": false,
      "t": 54552.8293333348,
      "d": 653.3840000000273,
      "v": 115
    },
    {
      "midi": 49,
      "hit": false,
      "t": 54552.8293333348,
      "d": 653.3840000000273,
      "v": 115
    },
    {
      "midi": 45,
      "hit": false,
      "t": 54562.29866666813,
      "d": 653.3840000000273,
      "v": 115
    },
    {
      "midi": 85,
      "hit": false,
      "t": 54656.99200000147,
      "d": 85.22400000000198,
      "v": 80
    },
    {
      "midi": 33,
      "hit": false,
      "t": 54656.99200000147,
      "d": 94.69333333333634,
      "v": 127
    },
    {
      "midi": 42,
      "hit": false,
      "t": 54666.4613333348,
      "d": 94.69333333333634,
      "v": 78
    },
    {
      "midi": 81,
      "hit": false,
      "t": 54770.62400000147,
      "d": 85.22400000000198,
      "v": 80
    },
    {
      "midi": 33,
      "hit": false,
      "t": 54770.62400000147,
      "d": 94.69333333333634,
      "v": 127
    },
    {
      "midi": 46,
      "hit": false,
      "t": 54789.56266666814,
      "d": 94.69333333333634,
      "v": 92
    },
    {
      "midi": 76,
      "hit": false,
      "t": 54884.25600000148,
      "d": 85.22400000000198,
      "v": 80
    },
    {
      "midi": 33,
      "hit": false,
      "t": 54884.25600000148,
      "d": 94.69333333333634,
      "v": 127
    },
    {
      "midi": 64,
      "hit": false,
      "t": 54884.25600000148,
      "d": 94.69333333333634,
      "v": 70
    },
    {
      "midi": 73,
      "hit": false,
      "t": 54997.88800000148,
      "d": 85.22400000000198,
      "v": 80
    },
    {
      "midi": 33,
      "hit": false,
      "t": 54997.88800000148,
      "d": 94.69333333333634,
      "v": 127
    },
    {
      "midi": 15,
      "hit": false,
      "t": 54997.88800000148,
      "d": 94.69333333333634,
      "v": 100
    },
    {
      "midi": 13,
      "hit": false,
      "t": 54997.88800000148,
      "d": 94.69333333333634,
      "v": 100
    },
    {
      "midi": 10,
      "hit": false,
      "t": 54997.88800000148,
      "d": 94.69333333333634,
      "v": 127
    },
    {
      "midi": 127,
      "hit": false,
      "t": 54997.88800000148,
      "d": 94.69333333333634,
      "v": 60
    },
    {
      "midi": 108,
      "hit": false,
      "t": 54997.88800000148,
      "d": 94.69333333333634,
      "v": 80
    },
    {
      "midi": 105,
      "hit": false,
      "t": 54997.88800000148,
      "d": 94.69333333333634,
      "v": 100
    },
    {
      "midi": 42,
      "hit": false,
      "t": 54997.88800000148,
      "d": 94.69333333333634,
      "v": 92
    },
    {
      "midi": 118,
      "hit": false,
      "t": 54997.88800000148,
      "d": 94.69333333333634,
      "v": 50
    },
    {
      "midi": 63,
      "hit": false,
      "t": 54997.88800000148,
      "d": 94.69333333333634,
      "v": 70
    },
    {
      "midi": 57,
      "hit": false,
      "t": 54997.88800000148,
      "d": 198.85600000000704,
      "v": 127
    },
    {
      "midi": 93,
      "hit": false,
      "t": 54997.88800000148,
      "d": 426.12000000001717,
      "v": 117
    },
    {
      "midi": 69,
      "hit": false,
      "t": 55111.52000000149,
      "d": 85.22400000000198,
      "v": 80
    },
    {
      "midi": 42,
      "hit": false,
      "t": 55120.98933333482,
      "d": 94.69333333333634,
      "v": 78
    },
    {
      "midi": 45,
      "hit": false,
      "t": 55215.68266666816,
      "d": 9.469333333334362,
      "v": 90
    },
    {
      "midi": 45,
      "hit": false,
      "t": 55225.15200000149,
      "d": 85.22400000000198,
      "v": 105
    },
    {
      "midi": 49,
      "hit": false,
      "t": 55225.15200000149,
      "d": 85.22400000000198,
      "v": 105
    },
    {
      "midi": 33,
      "hit": false,
      "t": 55225.15200000149,
      "d": 94.69333333333634,
      "v": 127
    },
    {
      "midi": 52,
      "hit": false,
      "t": 55234.62133333483,
      "d": 85.22400000000198,
      "v": 105
    },
    {
      "midi": 57,
      "hit": false,
      "t": 55234.62133333483,
      "d": 85.22400000000198,
      "v": 105
    },
    {
      "midi": 64,
      "hit": false,
      "t": 55244.09066666816,
      "d": 66.28533333333326,
      "v": 105
    },
    {
      "midi": 46,
      "hit": false,
      "t": 55244.09066666816,
      "d": 94.69333333333634,
      "v": 92
    },
    {
      "midi": 64,
      "hit": false,
      "t": 55329.314666668164,
      "d": 9.469333333334362,
      "v": 100
    },
    {
      "midi": 57,
      "hit": false,
      "t": 55338.7840000015,
      "d": 85.22400000000198,
      "v": 115
    },
    {
      "midi": 73,
      "hit": false,
      "t": 55338.7840000015,
      "d": 85.22400000000198,
      "v": 80
    },
    {
      "midi": 33,
      "hit": false,
      "t": 55338.7840000015,
      "d": 94.69333333333634,
      "v": 127
    },
    {
      "midi": 118,
      "hit": false,
      "t": 55338.7840000015,
      "d": 94.69333333333634,
      "v": 50
    },
    {
      "midi": 64,
      "hit": false,
      "t": 55338.7840000015,
      "d": 312.4880000000121,
      "v": 115
    },
    {
      "midi": 52,
      "hit": false,
      "t": 55348.25333333483,
      "d": 312.4880000000121,
      "v": 115
    },
    {
      "midi": 49,
      "hit": false,
      "t": 55348.25333333483,
      "d": 312.4880000000121,
      "v": 115
    },
    {
      "midi": 45,
      "hit": false,
      "t": 55357.72266666817,
      "d": 312.4880000000121,
      "v": 115
    },
    {
      "midi": 76,
      "hit": false,
      "t": 55452.4160000015,
      "d": 85.22400000000198,
      "v": 80
    },
    {
      "midi": 15,
      "hit": false,
      "t": 55452.4160000015,
      "d": 94.69333333333634,
      "v": 100
    },
    {
      "midi": 13,
      "hit": false,
      "t": 55452.4160000015,
      "d": 94.69333333333634,
      "v": 100
    },
    {
      "midi": 10,
      "hit": false,
      "t": 55452.4160000015,
      "d": 94.69333333333634,
      "v": 127
    },
    {
      "midi": 42,
      "hit": false,
      "t": 55452.4160000015,
      "d": 94.69333333333634,
      "v": 92
    },
    {
      "midi": 33,
      "hit": false,
      "t": 55452.4160000015,
      "d": 208.3253333333414,
      "v": 127
    },
    {
      "midi": 58,
      "hit": false,
      "t": 55452.4160000015,
      "d": 426.12000000001717,
      "v": 127
    },
    {
      "midi": 70,
      "hit": false,
      "t": 55452.4160000015,
      "d": 426.12000000001717,
      "v": 100
    },
    {
      "midi": 106,
      "hit": false,
      "t": 55452.4160000015,
      "d": 426.12000000001717,
      "v": 90
    },
    {
      "midi": 94,
      "hit": false,
      "t": 55452.4160000015,
      "d": 426.12000000001717,
      "v": 117
    },
    {
      "midi": 81,
      "hit": false,
      "t": 55566.04800000151,
      "d": 85.22400000000198,
      "v": 80
    },
    {
      "midi": 118,
      "hit": false,
      "t": 55566.04800000151,
      "d": 94.69333333333634,
      "v": 50
    },
    {
      "midi": 42,
      "hit": false,
      "t": 55575.51733333484,
      "d": 94.69333333333634,
      "v": 78
    },
    {
      "midi": 45,
      "hit": false,
      "t": 55670.21066666818,
      "d": 208.3253333333414,
      "v": 90
    },
    {
      "midi": 49,
      "hit": false,
      "t": 55670.21066666818,
      "d": 208.3253333333414,
      "v": 90
    },
    {
      "midi": 85,
      "hit": false,
      "t": 55679.680000001514,
      "d": 85.22400000000198,
      "v": 80
    },
    {
      "midi": 105,
      "hit": false,
      "t": 55679.680000001514,
      "d": 94.69333333333634,
      "v": 100
    },
    {
      "midi": 108,
      "hit": false,
      "t": 55679.680000001514,
      "d": 94.69333333333634,
      "v": 80
    },
    {
      "midi": 127,
      "hit": false,
      "t": 55679.680000001514,
      "d": 94.69333333333634,
      "v": 60
    },
    {
      "midi": 118,
      "hit": false,
      "t": 55679.680000001514,
      "d": 94.69333333333634,
      "v": 30
    },
    {
      "midi": 24,
      "hit": false,
      "t": 55679.680000001514,
      "d": 208.3253333333414,
      "v": 127
    },
    {
      "midi": 52,
      "hit": false,
      "t": 55679.680000001514,
      "d": 208.3253333333414,
      "v": 90
    },
    {
      "midi": 57,
      "hit": false,
      "t": 55679.680000001514,
      "d": 208.3253333333414,
      "v": 90
    },
    {
      "midi": 64,
      "hit": false,
      "t": 55689.14933333485,
      "d": 208.3253333333414,
      "v": 90
    },
    {
      "midi": 46,
      "hit": false,
      "t": 55698.61866666818,
      "d": 94.69333333333634,
      "v": 92
    },
    {
      "midi": 88,
      "hit": false,
      "t": 55793.31200000152,
      "d": 85.22400000000198,
      "v": 80
    },
    {
      "midi": 63,
      "hit": false,
      "t": 55793.31200000152,
      "d": 94.69333333333634,
      "v": 80
    },
    {
      "midi": 93,
      "hit": false,
      "t": 55906.944000001524,
      "d": 85.22400000000198,
      "v": 117
    },
    {
      "midi": 15,
      "hit": false,
      "t": 55906.944000001524,
      "d": 94.69333333333634,
      "v": 100
    },
    {
      "midi": 13,
      "hit": false,
      "t": 55906.944000001524,
      "d": 94.69333333333634,
      "v": 100
    },
    {
      "midi": 10,
      "hit": false,
      "t": 55906.944000001524,
      "d": 94.69333333333634,
      "v": 127
    },
    {
      "midi": 105,
      "hit": false,
      "t": 55906.944000001524,
      "d": 94.69333333333634,
      "v": 100
    },
    {
      "midi": 108,
      "hit": false,
      "t": 55906.944000001524,
      "d": 94.69333333333634,
      "v": 80
    },
    {
      "midi": 127,
      "hit": false,
      "t": 55906.944000001524,
      "d": 94.69333333333634,
      "v": 60
    },
    {
      "midi": 42,
      "hit": false,
      "t": 55906.944000001524,
      "d": 94.69333333333634,
      "v": 92
    },
    {
      "midi": 118,
      "hit": false,
      "t": 55906.944000001524,
      "d": 94.69333333333634,
      "v": 50
    },
    {
      "midi": 64,
      "hit": false,
      "t": 55906.944000001524,
      "d": 94.69333333333634,
      "v": 70
    },
    {
      "midi": 57,
      "hit": false,
      "t": 55906.944000001524,
      "d": 198.85600000000704,
      "v": 127
    },
    {
      "midi": 26,
      "hit": false,
      "t": 55906.944000001524,
      "d": 208.3253333333414,
      "v": 127
    },
    {
      "midi": 52,
      "hit": false,
      "t": 55906.944000001524,
      "d": 208.3253333333414,
      "v": 90
    },
    {
      "midi": 49,
      "hit": false,
      "t": 55906.944000001524,
      "d": 208.3253333333414,
      "v": 90
    },
    {
      "midi": 69,
      "hit": false,
      "t": 55906.944000001524,
      "d": 426.12000000002445,
      "v": 100
    },
    {
      "midi": 45,
      "hit": false,
      "t": 55916.41333333486,
      "d": 208.3253333333414,
      "v": 90
    },
    {
      "midi": 88,
      "hit": false,
      "t": 56020.57600000153,
      "d": 85.22400000000198,
      "v": 80
    },
    {
      "midi": 42,
      "hit": false,
      "t": 56030.04533333486,
      "d": 94.69333333333634,
      "v": 78
    },
    {
      "midi": 45,
      "hit": false,
      "t": 56124.7386666682,
      "d": 94.69333333333634,
      "v": 100
    },
    {
      "midi": 49,
      "hit": false,
      "t": 56124.7386666682,
      "d": 94.69333333333634,
      "v": 100
    },
    {
      "midi": 85,
      "hit": false,
      "t": 56134.208000001534,
      "d": 85.22400000000198,
      "v": 80
    },
    {
      "midi": 52,
      "hit": false,
      "t": 56134.208000001534,
      "d": 94.69333333333634,
      "v": 100
    },
    {
      "midi": 57,
      "hit": false,
      "t": 56134.208000001534,
      "d": 94.69333333333634,
      "v": 100
    },
    {
      "midi": 15,
      "hit": false,
      "t": 56134.208000001534,
      "d": 94.69333333333634,
      "v": 100
    },
    {
      "midi": 13,
      "hit": false,
      "t": 56134.208000001534,
      "d": 94.69333333333634,
      "v": 100
    },
    {
      "midi": 10,
      "hit": false,
      "t": 56134.208000001534,
      "d": 94.69333333333634,
      "v": 127
    },
    {
      "midi": 105,
      "hit": false,
      "t": 56134.208000001534,
      "d": 94.69333333333634,
      "v": 100
    },
    {
      "midi": 108,
      "hit": false,
      "t": 56134.208000001534,
      "d": 94.69333333333634,
      "v": 80
    },
    {
      "midi": 127,
      "hit": false,
      "t": 56134.208000001534,
      "d": 94.69333333333634,
      "v": 60
    },
    {
      "midi": 118,
      "hit": false,
      "t": 56134.208000001534,
      "d": 94.69333333333634,
      "v": 50
    },
    {
      "midi": 28,
      "hit": false,
      "t": 56134.208000001534,
      "d": 208.32533333334868,
      "v": 127
    },
    {
      "midi": 64,
      "hit": false,
      "t": 56143.67733333487,
      "d": 94.69333333333634,
      "v": 100
    },
    {
      "midi": 46,
      "hit": false,
      "t": 56153.1466666682,
      "d": 94.69333333333634,
      "v": 92
    },
    {
      "midi": 57,
      "hit": false,
      "t": 56238.370666668205,
      "d": 94.69333333334362,
      "v": 95
    },
    {
      "midi": 64,
      "hit": false,
      "t": 56238.370666668205,
      "d": 94.69333333334362,
      "v": 95
    },
    {
      "midi": 105,
      "hit": false,
      "t": 56247.84000000154,
      "d": 85.22400000000926,
      "v": 100
    },
    {
      "midi": 52,
      "hit": false,
      "t": 56247.84000000154,
      "d": 94.69333333334362,
      "v": 95
    },
    {
      "midi": 49,
      "hit": false,
      "t": 56247.84000000154,
      "d": 94.69333333334362,
      "v": 95
    },
    {
      "midi": 108,
      "hit": false,
      "t": 56247.84000000154,
      "d": 94.69333333334362,
      "v": 80
    },
    {
      "midi": 127,
      "hit": false,
      "t": 56247.84000000154,
      "d": 94.69333333334362,
      "v": 60
    },
    {
      "midi": 118,
      "hit": false,
      "t": 56247.84000000154,
      "d": 94.69333333334362,
      "v": 30
    },
    {
      "midi": 45,
      "hit": false,
      "t": 56257.30933333487,
      "d": 94.69333333334362,
      "v": 95
    },
    {
      "midi": 81,
      "hit": false,
      "t": 56304.656000001545,
      "d": 28.408000000003085,
      "v": 127
    },
    {
      "midi": 86,
      "hit": false,
      "t": 56361.47200000155,
      "d": 85.22400000000926,
      "v": 80
    },
    {
      "midi": 26,
      "hit": false,
      "t": 56361.47200000155,
      "d": 94.69333333334362,
      "v": 127
    },
    {
      "midi": 15,
      "hit": false,
      "t": 56361.47200000155,
      "d": 94.69333333334362,
      "v": 100
    },
    {
      "midi": 13,
      "hit": false,
      "t": 56361.47200000155,
      "d": 94.69333333334362,
      "v": 100
    },
    {
      "midi": 10,
      "hit": false,
      "t": 56361.47200000155,
      "d": 94.69333333334362,
      "v": 127
    },
    {
      "midi": 42,
      "hit": false,
      "t": 56361.47200000155,
      "d": 94.69333333334362,
      "v": 92
    },
    {
      "midi": 76,
      "hit": false,
      "t": 56361.47200000155,
      "d": 312.4880000000194,
      "v": 100
    },
    {
      "midi": 64,
      "hit": false,
      "t": 56361.47200000155,
      "d": 321.95733333335374,
      "v": 127
    },
    {
      "midi": 84,
      "hit": false,
      "t": 56361.47200000155,
      "d": 426.1200000000317,
      "v": 127
    },
    {
      "midi": 62,
      "hit": false,
      "t": 56361.47200000155,
      "d": 653.3840000000419,
      "v": 115
    },
    {
      "midi": 57,
      "hit": false,
      "t": 56361.47200000155,
      "d": 653.3840000000419,
      "v": 115
    },
    {
      "midi": 112,
      "hit": false,
      "t": 56361.47200000155,
      "d": 1799.1733333334269,
      "v": 90
    },
    {
      "midi": 100,
      "hit": false,
      "t": 56361.47200000155,
      "d": 1799.1733333334269,
      "v": 117
    },
    {
      "midi": 53,
      "hit": false,
      "t": 56370.941333334886,
      "d": 653.3840000000419,
      "v": 115
    },
    {
      "midi": 45,
      "hit": false,
      "t": 56370.941333334886,
      "d": 653.3840000000419,
      "v": 115
    },
    {
      "midi": 50,
      "hit": false,
      "t": 56370.941333334886,
      "d": 662.8533333333762,
      "v": 115
    },
    {
      "midi": 38,
      "hit": false,
      "t": 56380.41066666822,
      "d": 653.3840000000419,
      "v": 115
    },
    {
      "midi": 88,
      "hit": false,
      "t": 56418.28800000156,
      "d": 426.1200000000317,
      "v": 127
    },
    {
      "midi": 81,
      "hit": false,
      "t": 56475.104000001564,
      "d": 85.22400000000198,
      "v": 80
    },
    {
      "midi": 26,
      "hit": false,
      "t": 56475.104000001564,
      "d": 94.69333333333634,
      "v": 127
    },
    {
      "midi": 42,
      "hit": false,
      "t": 56484.5733333349,
      "d": 94.69333333333634,
      "v": 78
    },
    {
      "midi": 77,
      "hit": false,
      "t": 56588.73600000157,
      "d": 85.22400000000198,
      "v": 80
    },
    {
      "midi": 26,
      "hit": false,
      "t": 56588.73600000157,
      "d": 94.69333333333634,
      "v": 127
    },
    {
      "midi": 46,
      "hit": false,
      "t": 56607.67466666824,
      "d": 94.69333333333634,
      "v": 92
    },
    {
      "midi": 74,
      "hit": false,
      "t": 56702.368000001574,
      "d": 85.22400000000926,
      "v": 80
    },
    {
      "midi": 26,
      "hit": false,
      "t": 56702.368000001574,
      "d": 94.69333333334362,
      "v": 127
    },
    {
      "midi": 64,
      "hit": false,
      "t": 56702.368000001574,
      "d": 94.69333333334362,
      "v": 70
    },
    {
      "midi": 69,
      "hit": false,
      "t": 56816.000000001586,
      "d": 85.22400000000198,
      "v": 80
    },
    {
      "midi": 26,
      "hit": false,
      "t": 56816.000000001586,
      "d": 94.69333333333634,
      "v": 127
    },
    {
      "midi": 15,
      "hit": false,
      "t": 56816.000000001586,
      "d": 94.69333333333634,
      "v": 100
    },
    {
      "midi": 13,
      "hit": false,
      "t": 56816.000000001586,
      "d": 94.69333333333634,
      "v": 100
    },
    {
      "midi": 10,
      "hit": false,
      "t": 56816.000000001586,
      "d": 94.69333333333634,
      "v": 127
    },
    {
      "midi": 127,
      "hit": false,
      "t": 56816.000000001586,
      "d": 94.69333333333634,
      "v": 60
    },
    {
      "midi": 108,
      "hit": false,
      "t": 56816.000000001586,
      "d": 94.69333333333634,
      "v": 80
    },
    {
      "midi": 105,
      "hit": false,
      "t": 56816.000000001586,
      "d": 94.69333333333634,
      "v": 100
    },
    {
      "midi": 42,
      "hit": false,
      "t": 56816.000000001586,
      "d": 94.69333333333634,
      "v": 92
    },
    {
      "midi": 118,
      "hit": false,
      "t": 56816.000000001586,
      "d": 94.69333333333634,
      "v": 50
    },
    {
      "midi": 63,
      "hit": false,
      "t": 56816.000000001586,
      "d": 94.69333333333634,
      "v": 70
    },
    {
      "midi": 65,
      "hit": false,
      "t": 56929.63200000159,
      "d": 85.22400000000198,
      "v": 80
    },
    {
      "midi": 42,
      "hit": false,
      "t": 56939.101333334926,
      "d": 94.69333333333634,
      "v": 78
    },
    {
      "midi": 38,
      "hit": false,
      "t": 57033.79466666826,
      "d": 9.469333333334362,
      "v": 90
    },
    {
      "midi": 38,
      "hit": false,
      "t": 57043.264000001596,
      "d": 85.22400000000198,
      "v": 115
    },
    {
      "midi": 45,
      "hit": false,
      "t": 57043.264000001596,
      "d": 85.22400000000198,
      "v": 115
    },
    {
      "midi": 26,
      "hit": false,
      "t": 57043.264000001596,
      "d": 94.69333333333634,
      "v": 127
    },
    {
      "midi": 64,
      "hit": false,
      "t": 57043.264000001596,
      "d": 303.01866666667775,
      "v": 127
    },
    {
      "midi": 53,
      "hit": false,
      "t": 57052.73333333493,
      "d": 85.22400000000198,
      "v": 115
    },
    {
      "midi": 57,
      "hit": false,
      "t": 57052.73333333493,
      "d": 85.22400000000198,
      "v": 115
    },
    {
      "midi": 50,
      "hit": false,
      "t": 57052.73333333493,
      "d": 1117.381333333382,
      "v": 115
    },
    {
      "midi": 62,
      "hit": false,
      "t": 57062.202666668265,
      "d": 66.28533333333326,
      "v": 115
    },
    {
      "midi": 46,
      "hit": false,
      "t": 57062.202666668265,
      "d": 94.69333333333634,
      "v": 92
    },
    {
      "midi": 62,
      "hit": false,
      "t": 57147.42666666827,
      "d": 321.95733333334647,
      "v": 100
    },
    {
      "midi": 57,
      "hit": false,
      "t": 57147.42666666827,
      "d": 321.95733333334647,
      "v": 100
    },
    {
      "midi": 65,
      "hit": false,
      "t": 57156.8960000016,
      "d": 85.22400000000198,
      "v": 80
    },
    {
      "midi": 26,
      "hit": false,
      "t": 57156.8960000016,
      "d": 94.69333333333634,
      "v": 127
    },
    {
      "midi": 118,
      "hit": false,
      "t": 57156.8960000016,
      "d": 94.69333333333634,
      "v": 50
    },
    {
      "midi": 53,
      "hit": false,
      "t": 57156.8960000016,
      "d": 321.95733333334647,
      "v": 100
    },
    {
      "midi": 45,
      "hit": false,
      "t": 57156.8960000016,
      "d": 321.95733333334647,
      "v": 100
    },
    {
      "midi": 38,
      "hit": false,
      "t": 57166.365333334936,
      "d": 321.95733333334647,
      "v": 100
    },
    {
      "midi": 69,
      "hit": false,
      "t": 57270.52800000161,
      "d": 85.22400000000198,
      "v": 80
    },
    {
      "midi": 26,
      "hit": false,
      "t": 57270.52800000161,
      "d": 94.69333333333634,
      "v": 127
    },
    {
      "midi": 15,
      "hit": false,
      "t": 57270.52800000161,
      "d": 94.69333333333634,
      "v": 100
    },
    {
      "midi": 13,
      "hit": false,
      "t": 57270.52800000161,
      "d": 94.69333333333634,
      "v": 100
    },
    {
      "midi": 10,
      "hit": false,
      "t": 57270.52800000161,
      "d": 94.69333333333634,
      "v": 127
    },
    {
      "midi": 42,
      "hit": false,
      "t": 57270.52800000161,
      "d": 94.69333333333634,
      "v": 92
    },
    {
      "midi": 74,
      "hit": false,
      "t": 57384.16000000161,
      "d": 85.22400000000198,
      "v": 80
    },
    {
      "midi": 118,
      "hit": false,
      "t": 57384.16000000161,
      "d": 94.69333333333634,
      "v": 50
    },
    {
      "midi": 42,
      "hit": false,
      "t": 57393.629333334946,
      "d": 94.69333333333634,
      "v": 78
    },
    {
      "midi": 38,
      "hit": false,
      "t": 57488.32266666828,
      "d": 208.3253333333414,
      "v": 90
    },
    {
      "midi": 45,
      "hit": false,
      "t": 57488.32266666828,
      "d": 208.3253333333414,
      "v": 90
    },
    {
      "midi": 77,
      "hit": false,
      "t": 57497.79200000162,
      "d": 85.22400000000198,
      "v": 80
    },
    {
      "midi": 26,
      "hit": false,
      "t": 57497.79200000162,
      "d": 94.69333333333634,
      "v": 127
    },
    {
      "midi": 118,
      "hit": false,
      "t": 57497.79200000162,
      "d": 94.69333333333634,
      "v": 30
    },
    {
      "midi": 53,
      "hit": false,
      "t": 57497.79200000162,
      "d": 208.3253333333414,
      "v": 90
    },
    {
      "midi": 57,
      "hit": false,
      "t": 57497.79200000162,
      "d": 208.3253333333414,
      "v": 90
    },
    {
      "midi": 62,
      "hit": false,
      "t": 57507.26133333495,
      "d": 198.85600000000704,
      "v": 90
    },
    {
      "midi": 46,
      "hit": false,
      "t": 57516.730666668285,
      "d": 94.69333333333634,
      "v": 92
    },
    {
      "midi": 81,
      "hit": false,
      "t": 57611.42400000162,
      "d": 85.22400000000198,
      "v": 80
    },
    {
      "midi": 63,
      "hit": false,
      "t": 57611.42400000162,
      "d": 94.69333333333634,
      "v": 80
    },
    {
      "midi": 62,
      "hit": false,
      "t": 57715.58666666829,
      "d": 208.3253333333414,
      "v": 90
    },
    {
      "midi": 57,
      "hit": false,
      "t": 57715.58666666829,
      "d": 208.3253333333414,
      "v": 90
    },
    {
      "midi": 86,
      "hit": false,
      "t": 57725.05600000163,
      "d": 85.22400000000198,
      "v": 80
    },
    {
      "midi": 26,
      "hit": false,
      "t": 57725.05600000163,
      "d": 94.69333333333634,
      "v": 127
    },
    {
      "midi": 15,
      "hit": false,
      "t": 57725.05600000163,
      "d": 94.69333333333634,
      "v": 100
    },
    {
      "midi": 13,
      "hit": false,
      "t": 57725.05600000163,
      "d": 94.69333333333634,
      "v": 100
    },
    {
      "midi": 10,
      "hit": false,
      "t": 57725.05600000163,
      "d": 94.69333333333634,
      "v": 127
    },
    {
      "midi": 127,
      "hit": false,
      "t": 57725.05600000163,
      "d": 94.69333333333634,
      "v": 60
    },
    {
      "midi": 108,
      "hit": false,
      "t": 57725.05600000163,
      "d": 94.69333333333634,
      "v": 80
    },
    {
      "midi": 105,
      "hit": false,
      "t": 57725.05600000163,
      "d": 94.69333333333634,
      "v": 100
    },
    {
      "midi": 42,
      "hit": false,
      "t": 57725.05600000163,
      "d": 94.69333333333634,
      "v": 92
    },
    {
      "midi": 118,
      "hit": false,
      "t": 57725.05600000163,
      "d": 94.69333333333634,
      "v": 50
    },
    {
      "midi": 64,
      "hit": false,
      "t": 57725.05600000163,
      "d": 94.69333333333634,
      "v": 70
    },
    {
      "midi": 61,
      "hit": false,
      "t": 57725.05600000163,
      "d": 208.3253333333414,
      "v": 127
    },
    {
      "midi": 53,
      "hit": false,
      "t": 57725.05600000163,
      "d": 208.3253333333414,
      "v": 90
    },
    {
      "midi": 45,
      "hit": false,
      "t": 57725.05600000163,
      "d": 208.3253333333414,
      "v": 90
    },
    {
      "midi": 38,
      "hit": false,
      "t": 57734.52533333496,
      "d": 208.3253333333414,
      "v": 90
    },
    {
      "midi": 81,
      "hit": false,
      "t": 57838.68800000163,
      "d": 85.22400000000198,
      "v": 80
    },
    {
      "midi": 26,
      "hit": false,
      "t": 57838.68800000163,
      "d": 94.69333333333634,
      "v": 127
    },
    {
      "midi": 42,
      "hit": false,
      "t": 57848.157333334966,
      "d": 94.69333333333634,
      "v": 78
    },
    {
      "midi": 38,
      "hit": false,
      "t": 57942.8506666683,
      "d": 94.69333333333634,
      "v": 80
    },
    {
      "midi": 45,
      "hit": false,
      "t": 57942.8506666683,
      "d": 94.69333333333634,
      "v": 80
    },
    {
      "midi": 77,
      "hit": false,
      "t": 57952.32000000164,
      "d": 85.22400000000198,
      "v": 80
    },
    {
      "midi": 26,
      "hit": false,
      "t": 57952.32000000164,
      "d": 94.69333333333634,
      "v": 127
    },
    {
      "midi": 53,
      "hit": false,
      "t": 57952.32000000164,
      "d": 94.69333333333634,
      "v": 80
    },
    {
      "midi": 57,
      "hit": false,
      "t": 57952.32000000164,
      "d": 94.69333333333634,
      "v": 80
    },
    {
      "midi": 118,
      "hit": false,
      "t": 57952.32000000164,
      "d": 94.69333333333634,
      "v": 50
    },
    {
      "midi": 62,
      "hit": false,
      "t": 57961.78933333497,
      "d": 94.69333333333634,
      "v": 80
    },
    {
      "midi": 46,
      "hit": false,
      "t": 57971.258666668306,
      "d": 94.69333333333634,
      "v": 92
    },
    {
      "midi": 62,
      "hit": false,
      "t": 58056.48266666831,
      "d": 94.69333333333634,
      "v": 80
    },
    {
      "midi": 57,
      "hit": false,
      "t": 58056.48266666831,
      "d": 94.69333333333634,
      "v": 80
    },
    {
      "midi": 74,
      "hit": false,
      "t": 58065.95200000164,
      "d": 85.22400000000198,
      "v": 127
    },
    {
      "midi": 45,
      "hit": false,
      "t": 58065.95200000164,
      "d": 94.69333333333634,
      "v": 80
    },
    {
      "midi": 53,
      "hit": false,
      "t": 58065.95200000164,
      "d": 94.69333333333634,
      "v": 80
    },
    {
      "midi": 118,
      "hit": false,
      "t": 58065.95200000164,
      "d": 94.69333333333634,
      "v": 30
    },
    {
      "midi": 38,
      "hit": false,
      "t": 58075.421333334976,
      "d": 85.22400000000198,
      "v": 80
    },
    {
      "midi": 62,
      "hit": false,
      "t": 58170.11466666831,
      "d": 9.469333333334362,
      "v": 100
    },
    {
      "midi": 31,
      "hit": false,
      "t": 58179.58400000165,
      "d": 94.69333333333634,
      "v": 127
    },
    {
      "midi": 15,
      "hit": false,
      "t": 58179.58400000165,
      "d": 94.69333333333634,
      "v": 100
    },
    {
      "midi": 13,
      "hit": false,
      "t": 58179.58400000165,
      "d": 94.69333333333634,
      "v": 100
    },
    {
      "midi": 10,
      "hit": false,
      "t": 58179.58400000165,
      "d": 94.69333333333634,
      "v": 127
    },
    {
      "midi": 42,
      "hit": false,
      "t": 58179.58400000165,
      "d": 94.69333333333634,
      "v": 92
    },
    {
      "midi": 64,
      "hit": false,
      "t": 58179.58400000165,
      "d": 321.95733333334647,
      "v": 127
    },
    {
      "midi": 62,
      "hit": false,
      "t": 58179.58400000165,
      "d": 653.3840000000273,
      "v": 107
    },
    {
      "midi": 59,
      "hit": false,
      "t": 58189.05333333498,
      "d": 653.3840000000273,
      "v": 115
    },
    {
      "midi": 43,
      "hit": false,
      "t": 58189.05333333498,
      "d": 662.8533333333617,
      "v": 100
    },
    {
      "midi": 55,
      "hit": false,
      "t": 58189.05333333498,
      "d": 662.8533333333617,
      "v": 115
    },
    {
      "midi": 50,
      "hit": false,
      "t": 58198.522666668316,
      "d": 643.9146666666929,
      "v": 115
    },
    {
      "midi": 47,
      "hit": false,
      "t": 58198.522666668316,
      "d": 662.8533333333617,
      "v": 115
    },
    {
      "midi": 86,
      "hit": false,
      "t": 58236.400000001646,
      "d": 28.408000000003085,
      "v": 127
    },
    {
      "midi": 83,
      "hit": false,
      "t": 58293.21600000165,
      "d": 85.22400000000198,
      "v": 80
    },
    {
      "midi": 31,
      "hit": false,
      "t": 58293.21600000165,
      "d": 94.69333333333634,
      "v": 127
    },
    {
      "midi": 42,
      "hit": false,
      "t": 58302.685333334986,
      "d": 94.69333333333634,
      "v": 78
    },
    {
      "midi": 79,
      "hit": false,
      "t": 58406.84800000166,
      "d": 85.22400000000198,
      "v": 80
    },
    {
      "midi": 31,
      "hit": false,
      "t": 58406.84800000166,
      "d": 94.69333333333634,
      "v": 127
    },
    {
      "midi": 46,
      "hit": false,
      "t": 58425.786666668326,
      "d": 94.69333333333634,
      "v": 92
    },
    {
      "midi": 74,
      "hit": false,
      "t": 58520.48000000166,
      "d": 85.22400000000198,
      "v": 80
    },
    {
      "midi": 31,
      "hit": false,
      "t": 58520.48000000166,
      "d": 94.69333333333634,
      "v": 127
    },
    {
      "midi": 64,
      "hit": false,
      "t": 58520.48000000166,
      "d": 94.69333333333634,
      "v": 70
    },
    {
      "midi": 71,
      "hit": false,
      "t": 58634.11200000167,
      "d": 85.22400000000198,
      "v": 80
    },
    {
      "midi": 31,
      "hit": false,
      "t": 58634.11200000167,
      "d": 94.69333333333634,
      "v": 127
    },
    {
      "midi": 15,
      "hit": false,
      "t": 58634.11200000167,
      "d": 94.69333333333634,
      "v": 100
    },
    {
      "midi": 13,
      "hit": false,
      "t": 58634.11200000167,
      "d": 94.69333333333634,
      "v": 100
    },
    {
      "midi": 10,
      "hit": false,
      "t": 58634.11200000167,
      "d": 94.69333333333634,
      "v": 127
    },
    {
      "midi": 127,
      "hit": false,
      "t": 58634.11200000167,
      "d": 94.69333333333634,
      "v": 60
    },
    {
      "midi": 108,
      "hit": false,
      "t": 58634.11200000167,
      "d": 94.69333333333634,
      "v": 80
    },
    {
      "midi": 105,
      "hit": false,
      "t": 58634.11200000167,
      "d": 94.69333333333634,
      "v": 100
    },
    {
      "midi": 42,
      "hit": false,
      "t": 58634.11200000167,
      "d": 94.69333333333634,
      "v": 92
    },
    {
      "midi": 118,
      "hit": false,
      "t": 58634.11200000167,
      "d": 94.69333333333634,
      "v": 50
    },
    {
      "midi": 63,
      "hit": false,
      "t": 58634.11200000167,
      "d": 94.69333333333634,
      "v": 70
    },
    {
      "midi": 67,
      "hit": false,
      "t": 58747.74400000167,
      "d": 85.22400000000198,
      "v": 80
    },
    {
      "midi": 42,
      "hit": false,
      "t": 58757.21333333501,
      "d": 94.69333333333634,
      "v": 78
    },
    {
      "midi": 62,
      "hit": false,
      "t": 58861.37600000168,
      "d": 85.22400000000198,
      "v": 115
    },
    {
      "midi": 67,
      "hit": false,
      "t": 58861.37600000168,
      "d": 189.3866666666654,
      "v": 115
    },
    {
      "midi": 31,
      "hit": false,
      "t": 58861.37600000168,
      "d": 208.32533333333413,
      "v": 127
    },
    {
      "midi": 59,
      "hit": false,
      "t": 58870.84533333501,
      "d": 416.65066666667553,
      "v": 115
    },
    {
      "midi": 43,
      "hit": false,
      "t": 58870.84533333501,
      "d": 426.1200000000099,
      "v": 110
    },
    {
      "midi": 55,
      "hit": false,
      "t": 58870.84533333501,
      "d": 1117.3813333333674,
      "v": 115
    },
    {
      "midi": 46,
      "hit": false,
      "t": 58880.314666668346,
      "d": 94.69333333333634,
      "v": 92
    },
    {
      "midi": 50,
      "hit": false,
      "t": 58880.314666668346,
      "d": 407.1813333333412,
      "v": 115
    },
    {
      "midi": 47,
      "hit": false,
      "t": 58880.314666668346,
      "d": 1117.3813333333674,
      "v": 115
    },
    {
      "midi": 71,
      "hit": false,
      "t": 58975.00800000168,
      "d": 85.2239999999947,
      "v": 80
    },
    {
      "midi": 118,
      "hit": false,
      "t": 58975.00800000168,
      "d": 94.69333333332906,
      "v": 50
    },
    {
      "midi": 74,
      "hit": false,
      "t": 59088.64000000168,
      "d": 85.22400000000198,
      "v": 80
    },
    {
      "midi": 31,
      "hit": false,
      "t": 59088.64000000168,
      "d": 94.69333333333634,
      "v": 127
    },
    {
      "midi": 15,
      "hit": false,
      "t": 59088.64000000168,
      "d": 94.69333333333634,
      "v": 100
    },
    {
      "midi": 13,
      "hit": false,
      "t": 59088.64000000168,
      "d": 94.69333333333634,
      "v": 100
    },
    {
      "midi": 10,
      "hit": false,
      "t": 59088.64000000168,
      "d": 94.69333333333634,
      "v": 127
    },
    {
      "midi": 42,
      "hit": false,
      "t": 59088.64000000168,
      "d": 94.69333333333634,
      "v": 92
    },
    {
      "midi": 79,
      "hit": false,
      "t": 59202.272000001685,
      "d": 85.22400000000198,
      "v": 80
    },
    {
      "midi": 118,
      "hit": false,
      "t": 59202.272000001685,
      "d": 94.69333333333634,
      "v": 50
    },
    {
      "midi": 42,
      "hit": false,
      "t": 59211.74133333502,
      "d": 94.69333333333634,
      "v": 78
    },
    {
      "midi": 43,
      "hit": false,
      "t": 59306.434666668356,
      "d": 208.32533333333413,
      "v": 100
    },
    {
      "midi": 50,
      "hit": false,
      "t": 59306.434666668356,
      "d": 208.32533333333413,
      "v": 100
    },
    {
      "midi": 83,
      "hit": false,
      "t": 59315.90400000169,
      "d": 85.22400000000198,
      "v": 80
    },
    {
      "midi": 31,
      "hit": false,
      "t": 59315.90400000169,
      "d": 94.69333333333634,
      "v": 127
    },
    {
      "midi": 118,
      "hit": false,
      "t": 59315.90400000169,
      "d": 94.69333333333634,
      "v": 30
    },
    {
      "midi": 60,
      "hit": false,
      "t": 59315.90400000169,
      "d": 208.32533333333413,
      "v": 127
    },
    {
      "midi": 74,
      "hit": false,
      "t": 59315.90400000169,
      "d": 208.32533333333413,
      "v": 100
    },
    {
      "midi": 59,
      "hit": false,
      "t": 59315.90400000169,
      "d": 208.32533333333413,
      "v": 100
    },
    {
      "midi": 62,
      "hit": false,
      "t": 59315.90400000169,
      "d": 208.32533333333413,
      "v": 100
    },
    {
      "midi": 67,
      "hit": false,
      "t": 59325.373333335025,
      "d": 198.85599999999977,
      "v": 100
    },
    {
      "midi": 46,
      "hit": false,
      "t": 59334.84266666836,
      "d": 94.69333333333634,
      "v": 92
    },
    {
      "midi": 86,
      "hit": false,
      "t": 59429.536000001695,
      "d": 85.2239999999947,
      "v": 80
    },
    {
      "midi": 63,
      "hit": false,
      "t": 59429.536000001695,
      "d": 94.69333333332906,
      "v": 80
    },
    {
      "midi": 62,
      "hit": false,
      "t": 59533.69866666836,
      "d": 208.3253333333414,
      "v": 100
    },
    {
      "midi": 91,
      "hit": false,
      "t": 59543.16800000169,
      "d": 85.22400000000198,
      "v": 80
    },
    {
      "midi": 31,
      "hit": false,
      "t": 59543.16800000169,
      "d": 94.69333333333634,
      "v": 127
    },
    {
      "midi": 15,
      "hit": false,
      "t": 59543.16800000169,
      "d": 94.69333333333634,
      "v": 100
    },
    {
      "midi": 13,
      "hit": false,
      "t": 59543.16800000169,
      "d": 94.69333333333634,
      "v": 100
    },
    {
      "midi": 10,
      "hit": false,
      "t": 59543.16800000169,
      "d": 94.69333333333634,
      "v": 127
    },
    {
      "midi": 127,
      "hit": false,
      "t": 59543.16800000169,
      "d": 94.69333333333634,
      "v": 60
    },
    {
      "midi": 108,
      "hit": false,
      "t": 59543.16800000169,
      "d": 94.69333333333634,
      "v": 80
    },
    {
      "midi": 105,
      "hit": false,
      "t": 59543.16800000169,
      "d": 94.69333333333634,
      "v": 100
    },
    {
      "midi": 42,
      "hit": false,
      "t": 59543.16800000169,
      "d": 94.69333333333634,
      "v": 92
    },
    {
      "midi": 118,
      "hit": false,
      "t": 59543.16800000169,
      "d": 94.69333333333634,
      "v": 50
    },
    {
      "midi": 64,
      "hit": false,
      "t": 59543.16800000169,
      "d": 94.69333333333634,
      "v": 70
    },
    {
      "midi": 67,
      "hit": false,
      "t": 59543.16800000169,
      "d": 198.85600000000704,
      "v": 107
    },
    {
      "midi": 60,
      "hit": false,
      "t": 59543.16800000169,
      "d": 208.3253333333414,
      "v": 127
    },
    {
      "midi": 72,
      "hit": false,
      "t": 59543.16800000169,
      "d": 208.3253333333414,
      "v": 100
    },
    {
      "midi": 59,
      "hit": false,
      "t": 59543.16800000169,
      "d": 208.3253333333414,
      "v": 100
    },
    {
      "midi": 50,
      "hit": false,
      "t": 59543.16800000169,
      "d": 208.3253333333414,
      "v": 100
    },
    {
      "midi": 43,
      "hit": false,
      "t": 59552.63733333503,
      "d": 208.3253333333414,
      "v": 100
    },
    {
      "midi": 86,
      "hit": false,
      "t": 59656.8000000017,
      "d": 85.22400000000198,
      "v": 80
    },
    {
      "midi": 31,
      "hit": false,
      "t": 59656.8000000017,
      "d": 94.69333333333634,
      "v": 127
    },
    {
      "midi": 42,
      "hit": false,
      "t": 59666.26933333503,
      "d": 94.69333333333634,
      "v": 78
    },
    {
      "midi": 43,
      "hit": false,
      "t": 59760.96266666837,
      "d": 94.69333333333634,
      "v": 90
    },
    {
      "midi": 50,
      "hit": false,
      "t": 59760.96266666837,
      "d": 94.69333333333634,
      "v": 90
    },
    {
      "midi": 83,
      "hit": false,
      "t": 59770.4320000017,
      "d": 85.22400000000198,
      "v": 80
    },
    {
      "midi": 31,
      "hit": false,
      "t": 59770.4320000017,
      "d": 94.69333333333634,
      "v": 127
    },
    {
      "midi": 59,
      "hit": false,
      "t": 59770.4320000017,
      "d": 94.69333333333634,
      "v": 90
    },
    {
      "midi": 62,
      "hit": false,
      "t": 59770.4320000017,
      "d": 94.69333333333634,
      "v": 90
    },
    {
      "midi": 15,
      "hit": false,
      "t": 59770.4320000017,
      "d": 94.69333333333634,
      "v": 100
    },
    {
      "midi": 13,
      "hit": false,
      "t": 59770.4320000017,
      "d": 94.69333333333634,
      "v": 100
    },
    {
      "midi": 10,
      "hit": false,
      "t": 59770.4320000017,
      "d": 94.69333333333634,
      "v": 127
    },
    {
      "midi": 118,
      "hit": false,
      "t": 59770.4320000017,
      "d": 94.69333333333634,
      "v": 50
    },
    {
      "midi": 74,
      "hit": false,
      "t": 59770.4320000017,
      "d": 208.3253333333414,
      "v": 100
    },
    {
      "midi": 67,
      "hit": false,
      "t": 59779.90133333504,
      "d": 94.69333333333634,
      "v": 90
    },
    {
      "midi": 46,
      "hit": false,
      "t": 59789.37066666837,
      "d": 94.69333333333634,
      "v": 92
    },
    {
      "midi": 67,
      "hit": false,
      "t": 59874.594666668374,
      "d": 94.69333333333634,
      "v": 90
    },
    {
      "midi": 62,
      "hit": false,
      "t": 59874.594666668374,
      "d": 94.69333333333634,
      "v": 90
    },
    {
      "midi": 79,
      "hit": false,
      "t": 59884.06400000171,
      "d": 85.22400000000198,
      "v": 80
    },
    {
      "midi": 59,
      "hit": false,
      "t": 59884.06400000171,
      "d": 94.69333333333634,
      "v": 90
    },
    {
      "midi": 50,
      "hit": false,
      "t": 59884.06400000171,
      "d": 94.69333333333634,
      "v": 90
    },
    {
      "midi": 118,
      "hit": false,
      "t": 59884.06400000171,
      "d": 94.69333333333634,
      "v": 30
    },
    {
      "midi": 43,
      "hit": false,
      "t": 59893.53333333504,
      "d": 94.69333333333634,
      "v": 90
    },
    {
      "midi": 88,
      "hit": false,
      "t": 59940.88000000171,
      "d": 426.1200000000317,
      "v": 127
    },
    {
      "midi": 84,
      "hit": false,
      "t": 59997.69600000171,
      "d": 85.22400000000926,
      "v": 80
    },
    {
      "midi": 24,
      "hit": false,
      "t": 59997.69600000171,
      "d": 94.69333333334362,
      "v": 127
    },
    {
      "midi": 15,
      "hit": false,
      "t": 59997.69600000171,
      "d": 94.69333333334362,
      "v": 100
    },
    {
      "midi": 13,
      "hit": false,
      "t": 59997.69600000171,
      "d": 94.69333333334362,
      "v": 100
    },
    {
      "midi": 10,
      "hit": false,
      "t": 59997.69600000171,
      "d": 94.69333333334362,
      "v": 127
    },
    {
      "midi": 42,
      "hit": false,
      "t": 59997.69600000171,
      "d": 94.69333333334362,
      "v": 92
    },
    {
      "midi": 91,
      "hit": false,
      "t": 59997.69600000171,
      "d": 426.12000000002445,
      "v": 127
    },
    {
      "midi": 60,
      "hit": false,
      "t": 59997.69600000171,
      "d": 634.4453333333804,
      "v": 115
    },
    {
      "midi": 55,
      "hit": false,
      "t": 60007.16533333505,
      "d": 634.4453333333804,
      "v": 115
    },
    {
      "midi": 52,
      "hit": false,
      "t": 60007.16533333505,
      "d": 643.9146666667148,
      "v": 115
    },
    {
      "midi": 48,
      "hit": false,
      "t": 60016.63466666838,
      "d": 624.976000000046,
      "v": 115
    },
    {
      "midi": 43,
      "hit": false,
      "t": 60016.63466666838,
      "d": 634.4453333333804,
      "v": 115
    },
    {
      "midi": 96,
      "hit": false,
      "t": 60054.51200000172,
      "d": 426.12000000002445,
      "v": 127
    },
    {
      "midi": 79,
      "hit": false,
      "t": 60111.328000001726,
      "d": 85.22400000000198,
      "v": 80
    },
    {
      "midi": 24,
      "hit": false,
      "t": 60111.328000001726,
      "d": 94.69333333333634,
      "v": 127
    },
    {
      "midi": 42,
      "hit": false,
      "t": 60120.79733333506,
      "d": 94.69333333333634,
      "v": 78
    },
    {
      "midi": 76,
      "hit": false,
      "t": 60224.96000000173,
      "d": 85.22400000000198,
      "v": 80
    },
    {
      "midi": 24,
      "hit": false,
      "t": 60224.96000000173,
      "d": 94.69333333333634,
      "v": 127
    },
    {
      "midi": 46,
      "hit": false,
      "t": 60243.8986666684,
      "d": 94.69333333333634,
      "v": 92
    },
    {
      "midi": 72,
      "hit": false,
      "t": 60338.592000001736,
      "d": 85.22400000000198,
      "v": 80
    },
    {
      "midi": 24,
      "hit": false,
      "t": 60338.592000001736,
      "d": 94.69333333333634,
      "v": 127
    },
    {
      "midi": 64,
      "hit": false,
      "t": 60338.592000001736,
      "d": 94.69333333333634,
      "v": 70
    },
    {
      "midi": 67,
      "hit": false,
      "t": 60452.22400000174,
      "d": 85.22400000000926,
      "v": 80
    },
    {
      "midi": 24,
      "hit": false,
      "t": 60452.22400000174,
      "d": 94.69333333334362,
      "v": 127
    },
    {
      "midi": 15,
      "hit": false,
      "t": 60452.22400000174,
      "d": 94.69333333334362,
      "v": 100
    },
    {
      "midi": 13,
      "hit": false,
      "t": 60452.22400000174,
      "d": 94.69333333334362,
      "v": 100
    },
    {
      "midi": 10,
      "hit": false,
      "t": 60452.22400000174,
      "d": 94.69333333334362,
      "v": 127
    },
    {
      "midi": 127,
      "hit": false,
      "t": 60452.22400000174,
      "d": 94.69333333334362,
      "v": 60
    },
    {
      "midi": 108,
      "hit": false,
      "t": 60452.22400000174,
      "d": 94.69333333334362,
      "v": 80
    },
    {
      "midi": 105,
      "hit": false,
      "t": 60452.22400000174,
      "d": 94.69333333334362,
      "v": 100
    },
    {
      "midi": 42,
      "hit": false,
      "t": 60452.22400000174,
      "d": 94.69333333334362,
      "v": 92
    },
    {
      "midi": 118,
      "hit": false,
      "t": 60452.22400000174,
      "d": 94.69333333334362,
      "v": 50
    },
    {
      "midi": 63,
      "hit": false,
      "t": 60452.22400000174,
      "d": 94.69333333334362,
      "v": 70
    },
    {
      "midi": 64,
      "hit": false,
      "t": 60565.85600000175,
      "d": 66.28533333334053,
      "v": 80
    },
    {
      "midi": 42,
      "hit": false,
      "t": 60575.32533333509,
      "d": 94.69333333334362,
      "v": 78
    },
    {
      "midi": 60,
      "hit": false,
      "t": 60679.488000001766,
      "d": 85.22400000000198,
      "v": 115
    },
    {
      "midi": 24,
      "hit": false,
      "t": 60679.488000001766,
      "d": 94.69333333333634,
      "v": 127
    },
    {
      "midi": 62,
      "hit": false,
      "t": 60679.488000001766,
      "d": 208.3253333333414,
      "v": 127
    },
    {
      "midi": 74,
      "hit": false,
      "t": 60679.488000001766,
      "d": 208.3253333333414,
      "v": 100
    },
    {
      "midi": 67,
      "hit": false,
      "t": 60679.488000001766,
      "d": 208.3253333333414,
      "v": 107
    },
    {
      "midi": 55,
      "hit": false,
      "t": 60688.9573333351,
      "d": 416.6506666666828,
      "v": 115
    },
    {
      "midi": 52,
      "hit": false,
      "t": 60688.9573333351,
      "d": 1117.381333333382,
      "v": 115
    },
    {
      "midi": 46,
      "hit": false,
      "t": 60698.426666668434,
      "d": 94.69333333333634,
      "v": 92
    },
    {
      "midi": 48,
      "hit": false,
      "t": 60698.426666668434,
      "d": 407.18133333334845,
      "v": 115
    },
    {
      "midi": 43,
      "hit": false,
      "t": 60698.426666668434,
      "d": 416.6506666666828,
      "v": 115
    },
    {
      "midi": 64,
      "hit": false,
      "t": 60793.12000000177,
      "d": 85.22400000000198,
      "v": 80
    },
    {
      "midi": 24,
      "hit": false,
      "t": 60793.12000000177,
      "d": 94.69333333333634,
      "v": 127
    },
    {
      "midi": 118,
      "hit": false,
      "t": 60793.12000000177,
      "d": 94.69333333333634,
      "v": 50
    },
    {
      "midi": 67,
      "hit": false,
      "t": 60906.752000001776,
      "d": 85.22400000000198,
      "v": 107
    },
    {
      "midi": 24,
      "hit": false,
      "t": 60906.752000001776,
      "d": 94.69333333333634,
      "v": 127
    },
    {
      "midi": 15,
      "hit": false,
      "t": 60906.752000001776,
      "d": 94.69333333333634,
      "v": 100
    },
    {
      "midi": 13,
      "hit": false,
      "t": 60906.752000001776,
      "d": 94.69333333333634,
      "v": 100
    },
    {
      "midi": 10,
      "hit": false,
      "t": 60906.752000001776,
      "d": 94.69333333333634,
      "v": 127
    },
    {
      "midi": 42,
      "hit": false,
      "t": 60906.752000001776,
      "d": 94.69333333333634,
      "v": 92
    },
    {
      "midi": 64,
      "hit": false,
      "t": 60906.752000001776,
      "d": 189.38666666667268,
      "v": 107
    },
    {
      "midi": 72,
      "hit": false,
      "t": 61020.38400000178,
      "d": 85.22400000000198,
      "v": 80
    },
    {
      "midi": 118,
      "hit": false,
      "t": 61020.38400000178,
      "d": 94.69333333333634,
      "v": 50
    },
    {
      "midi": 42,
      "hit": false,
      "t": 61029.853333335115,
      "d": 94.69333333333634,
      "v": 78
    },
    {
      "midi": 43,
      "hit": false,
      "t": 61124.54666666845,
      "d": 208.3253333333414,
      "v": 90
    },
    {
      "midi": 48,
      "hit": false,
      "t": 61124.54666666845,
      "d": 208.3253333333414,
      "v": 90
    },
    {
      "midi": 76,
      "hit": false,
      "t": 61134.016000001786,
      "d": 85.22400000000198,
      "v": 80
    },
    {
      "midi": 24,
      "hit": false,
      "t": 61134.016000001786,
      "d": 94.69333333333634,
      "v": 127
    },
    {
      "midi": 118,
      "hit": false,
      "t": 61134.016000001786,
      "d": 94.69333333333634,
      "v": 30
    },
    {
      "midi": 55,
      "hit": false,
      "t": 61134.016000001786,
      "d": 208.3253333333414,
      "v": 90
    },
    {
      "midi": 60,
      "hit": false,
      "t": 61134.016000001786,
      "d": 208.3253333333414,
      "v": 90
    },
    {
      "midi": 64,
      "hit": false,
      "t": 61143.48533333512,
      "d": 208.3253333333414,
      "v": 90
    },
    {
      "midi": 46,
      "hit": false,
      "t": 61152.954666668455,
      "d": 94.69333333333634,
      "v": 92
    },
    {
      "midi": 79,
      "hit": false,
      "t": 61247.64800000179,
      "d": 85.22400000000198,
      "v": 80
    },
    {
      "midi": 63,
      "hit": false,
      "t": 61247.64800000179,
      "d": 94.69333333333634,
      "v": 80
    },
    {
      "midi": 60,
      "hit": false,
      "t": 61351.81066666846,
      "d": 208.3253333333414,
      "v": 100
    },
    {
      "midi": 84,
      "hit": false,
      "t": 61361.280000001796,
      "d": 85.22400000000198,
      "v": 80
    },
    {
      "midi": 24,
      "hit": false,
      "t": 61361.280000001796,
      "d": 94.69333333333634,
      "v": 127
    },
    {
      "midi": 15,
      "hit": false,
      "t": 61361.280000001796,
      "d": 94.69333333333634,
      "v": 100
    },
    {
      "midi": 13,
      "hit": false,
      "t": 61361.280000001796,
      "d": 94.69333333333634,
      "v": 100
    },
    {
      "midi": 10,
      "hit": false,
      "t": 61361.280000001796,
      "d": 94.69333333333634,
      "v": 127
    },
    {
      "midi": 127,
      "hit": false,
      "t": 61361.280000001796,
      "d": 94.69333333333634,
      "v": 60
    },
    {
      "midi": 108,
      "hit": false,
      "t": 61361.280000001796,
      "d": 94.69333333333634,
      "v": 80
    },
    {
      "midi": 105,
      "hit": false,
      "t": 61361.280000001796,
      "d": 94.69333333333634,
      "v": 100
    },
    {
      "midi": 42,
      "hit": false,
      "t": 61361.280000001796,
      "d": 94.69333333333634,
      "v": 92
    },
    {
      "midi": 118,
      "hit": false,
      "t": 61361.280000001796,
      "d": 94.69333333333634,
      "v": 50
    },
    {
      "midi": 64,
      "hit": false,
      "t": 61361.280000001796,
      "d": 94.69333333333634,
      "v": 70
    },
    {
      "midi": 55,
      "hit": false,
      "t": 61361.280000001796,
      "d": 208.3253333333414,
      "v": 100
    },
    {
      "midi": 48,
      "hit": false,
      "t": 61361.280000001796,
      "d": 208.3253333333414,
      "v": 100
    },
    {
      "midi": 91,
      "hit": false,
      "t": 61361.280000001796,
      "d": 426.12000000001717,
      "v": 90
    },
    {
      "midi": 43,
      "hit": false,
      "t": 61370.74933333513,
      "d": 208.3253333333414,
      "v": 100
    },
    {
      "midi": 79,
      "hit": false,
      "t": 61474.9120000018,
      "d": 85.22400000000198,
      "v": 80
    },
    {
      "midi": 24,
      "hit": false,
      "t": 61474.9120000018,
      "d": 94.69333333333634,
      "v": 127
    },
    {
      "midi": 42,
      "hit": false,
      "t": 61484.381333335135,
      "d": 94.69333333333634,
      "v": 78
    },
    {
      "midi": 43,
      "hit": false,
      "t": 61579.07466666847,
      "d": 94.69333333333634,
      "v": 90
    },
    {
      "midi": 48,
      "hit": false,
      "t": 61579.07466666847,
      "d": 94.69333333333634,
      "v": 90
    },
    {
      "midi": 76,
      "hit": false,
      "t": 61588.544000001806,
      "d": 85.22400000000198,
      "v": 80
    },
    {
      "midi": 24,
      "hit": false,
      "t": 61588.544000001806,
      "d": 94.69333333333634,
      "v": 127
    },
    {
      "midi": 55,
      "hit": false,
      "t": 61588.544000001806,
      "d": 94.69333333333634,
      "v": 90
    },
    {
      "midi": 60,
      "hit": false,
      "t": 61588.544000001806,
      "d": 94.69333333333634,
      "v": 90
    },
    {
      "midi": 118,
      "hit": false,
      "t": 61588.544000001806,
      "d": 94.69333333333634,
      "v": 50
    },
    {
      "midi": 64,
      "hit": false,
      "t": 61598.01333333514,
      "d": 94.69333333333634,
      "v": 90
    },
    {
      "midi": 46,
      "hit": false,
      "t": 61607.482666668475,
      "d": 94.69333333333634,
      "v": 92
    },
    {
      "midi": 64,
      "hit": false,
      "t": 61692.70666666848,
      "d": 85.22400000000198,
      "v": 90
    },
    {
      "midi": 60,
      "hit": false,
      "t": 61692.70666666848,
      "d": 94.69333333333634,
      "v": 90
    },
    {
      "midi": 72,
      "hit": false,
      "t": 61702.17600000181,
      "d": 85.22400000000198,
      "v": 80
    },
    {
      "midi": 55,
      "hit": false,
      "t": 61702.17600000181,
      "d": 94.69333333333634,
      "v": 90
    },
    {
      "midi": 48,
      "hit": false,
      "t": 61702.17600000181,
      "d": 94.69333333333634,
      "v": 90
    },
    {
      "midi": 118,
      "hit": false,
      "t": 61702.17600000181,
      "d": 94.69333333333634,
      "v": 30
    },
    {
      "midi": 43,
      "hit": false,
      "t": 61711.645333335146,
      "d": 94.69333333333634,
      "v": 90
    },
    {
      "midi": 84,
      "hit": false,
      "t": 61815.808000001816,
      "d": 85.22400000000198,
      "v": 117
    },
    {
      "midi": 24,
      "hit": false,
      "t": 61815.808000001816,
      "d": 94.69333333333634,
      "v": 127
    },
    {
      "midi": 15,
      "hit": false,
      "t": 61815.808000001816,
      "d": 94.69333333333634,
      "v": 100
    },
    {
      "midi": 13,
      "hit": false,
      "t": 61815.808000001816,
      "d": 94.69333333333634,
      "v": 100
    },
    {
      "midi": 10,
      "hit": false,
      "t": 61815.808000001816,
      "d": 94.69333333333634,
      "v": 127
    },
    {
      "midi": 42,
      "hit": false,
      "t": 61815.808000001816,
      "d": 94.69333333333634,
      "v": 92
    },
    {
      "midi": 96,
      "hit": false,
      "t": 61815.808000001816,
      "d": 426.1200000000099,
      "v": 90
    },
    {
      "midi": 60,
      "hit": false,
      "t": 61815.808000001816,
      "d": 634.4453333333513,
      "v": 115
    },
    {
      "midi": 55,
      "hit": false,
      "t": 61825.27733333515,
      "d": 634.4453333333513,
      "v": 115
    },
    {
      "midi": 52,
      "hit": false,
      "t": 61825.27733333515,
      "d": 643.9146666666857,
      "v": 115
    },
    {
      "midi": 48,
      "hit": false,
      "t": 61834.746666668485,
      "d": 624.9760000000169,
      "v": 115
    },
    {
      "midi": 43,
      "hit": false,
      "t": 61834.746666668485,
      "d": 634.4453333333513,
      "v": 115
    },
    {
      "midi": 79,
      "hit": false,
      "t": 61929.44000000182,
      "d": 85.22400000000198,
      "v": 80
    },
    {
      "midi": 24,
      "hit": false,
      "t": 61929.44000000182,
      "d": 94.69333333333634,
      "v": 127
    },
    {
      "midi": 42,
      "hit": false,
      "t": 61938.909333335156,
      "d": 94.69333333333634,
      "v": 78
    },
    {
      "midi": 76,
      "hit": false,
      "t": 62043.07200000183,
      "d": 85.22400000000198,
      "v": 80
    },
    {
      "midi": 24,
      "hit": false,
      "t": 62043.07200000183,
      "d": 94.69333333333634,
      "v": 127
    },
    {
      "midi": 46,
      "hit": false,
      "t": 62062.010666668495,
      "d": 94.69333333333634,
      "v": 92
    },
    {
      "midi": 72,
      "hit": false,
      "t": 62156.70400000183,
      "d": 85.2239999999947,
      "v": 80
    },
    {
      "midi": 24,
      "hit": false,
      "t": 62156.70400000183,
      "d": 94.69333333332906,
      "v": 127
    },
    {
      "midi": 64,
      "hit": false,
      "t": 62156.70400000183,
      "d": 94.69333333332906,
      "v": 70
    },
    {
      "midi": 67,
      "hit": false,
      "t": 62270.33600000183,
      "d": 85.22400000000198,
      "v": 80
    },
    {
      "midi": 24,
      "hit": false,
      "t": 62270.33600000183,
      "d": 94.69333333333634,
      "v": 127
    },
    {
      "midi": 15,
      "hit": false,
      "t": 62270.33600000183,
      "d": 94.69333333333634,
      "v": 100
    },
    {
      "midi": 13,
      "hit": false,
      "t": 62270.33600000183,
      "d": 94.69333333333634,
      "v": 100
    },
    {
      "midi": 10,
      "hit": false,
      "t": 62270.33600000183,
      "d": 94.69333333333634,
      "v": 127
    },
    {
      "midi": 127,
      "hit": false,
      "t": 62270.33600000183,
      "d": 94.69333333333634,
      "v": 60
    },
    {
      "midi": 108,
      "hit": false,
      "t": 62270.33600000183,
      "d": 94.69333333333634,
      "v": 80
    },
    {
      "midi": 105,
      "hit": false,
      "t": 62270.33600000183,
      "d": 94.69333333333634,
      "v": 100
    },
    {
      "midi": 42,
      "hit": false,
      "t": 62270.33600000183,
      "d": 94.69333333333634,
      "v": 92
    },
    {
      "midi": 118,
      "hit": false,
      "t": 62270.33600000183,
      "d": 94.69333333333634,
      "v": 50
    },
    {
      "midi": 63,
      "hit": false,
      "t": 62270.33600000183,
      "d": 94.69333333333634,
      "v": 70
    },
    {
      "midi": 76,
      "hit": false,
      "t": 62270.33600000183,
      "d": 426.12000000001717,
      "v": 100
    },
    {
      "midi": 100,
      "hit": false,
      "t": 62270.33600000183,
      "d": 426.12000000001717,
      "v": 90
    },
    {
      "midi": 88,
      "hit": false,
      "t": 62270.33600000183,
      "d": 426.12000000001717,
      "v": 117
    },
    {
      "midi": 64,
      "hit": false,
      "t": 62383.968000001834,
      "d": 66.28533333333326,
      "v": 80
    },
    {
      "midi": 42,
      "hit": false,
      "t": 62393.43733333517,
      "d": 94.69333333333634,
      "v": 78
    },
    {
      "midi": 60,
      "hit": false,
      "t": 62497.60000000184,
      "d": 85.22400000000198,
      "v": 115
    },
    {
      "midi": 24,
      "hit": false,
      "t": 62497.60000000184,
      "d": 94.69333333333634,
      "v": 127
    },
    {
      "midi": 55,
      "hit": false,
      "t": 62507.069333335174,
      "d": 85.22400000000198,
      "v": 115
    },
    {
      "midi": 64,
      "hit": false,
      "t": 62507.069333335174,
      "d": 94.69333333333634,
      "v": 100
    },
    {
      "midi": 52,
      "hit": false,
      "t": 62507.069333335174,
      "d": 1117.3813333333746,
      "v": 115
    },
    {
      "midi": 43,
      "hit": false,
      "t": 62516.53866666851,
      "d": 66.28533333333326,
      "v": 115
    },
    {
      "midi": 48,
      "hit": false,
      "t": 62516.53866666851,
      "d": 66.28533333333326,
      "v": 115
    },
    {
      "midi": 46,
      "hit": false,
      "t": 62516.53866666851,
      "d": 94.69333333333634,
      "v": 92
    },
    {
      "midi": 60,
      "hit": false,
      "t": 62601.76266666851,
      "d": 321.9573333333392,
      "v": 100
    },
    {
      "midi": 64,
      "hit": false,
      "t": 62611.232000001844,
      "d": 85.22400000000198,
      "v": 80
    },
    {
      "midi": 24,
      "hit": false,
      "t": 62611.232000001844,
      "d": 94.69333333333634,
      "v": 127
    },
    {
      "midi": 118,
      "hit": false,
      "t": 62611.232000001844,
      "d": 94.69333333333634,
      "v": 50
    },
    {
      "midi": 55,
      "hit": false,
      "t": 62611.232000001844,
      "d": 321.9573333333392,
      "v": 100
    },
    {
      "midi": 48,
      "hit": false,
      "t": 62611.232000001844,
      "d": 321.9573333333392,
      "v": 100
    },
    {
      "midi": 43,
      "hit": false,
      "t": 62620.70133333518,
      "d": 321.9573333333392,
      "v": 100
    },
    {
      "midi": 67,
      "hit": false,
      "t": 62724.86400000185,
      "d": 85.2239999999947,
      "v": 80
    },
    {
      "midi": 15,
      "hit": false,
      "t": 62724.86400000185,
      "d": 94.69333333332906,
      "v": 100
    },
    {
      "midi": 13,
      "hit": false,
      "t": 62724.86400000185,
      "d": 94.69333333332906,
      "v": 100
    },
    {
      "midi": 10,
      "hit": false,
      "t": 62724.86400000185,
      "d": 94.69333333332906,
      "v": 127
    },
    {
      "midi": 42,
      "hit": false,
      "t": 62724.86400000185,
      "d": 94.69333333332906,
      "v": 92
    },
    {
      "midi": 24,
      "hit": false,
      "t": 62724.86400000185,
      "d": 208.32533333333413,
      "v": 127
    },
    {
      "midi": 65,
      "hit": false,
      "t": 62724.86400000185,
      "d": 426.1200000000099,
      "v": 127
    },
    {
      "midi": 77,
      "hit": false,
      "t": 62724.86400000185,
      "d": 426.1200000000099,
      "v": 100
    },
    {
      "midi": 101,
      "hit": false,
      "t": 62724.86400000185,
      "d": 426.1200000000099,
      "v": 90
    },
    {
      "midi": 89,
      "hit": false,
      "t": 62724.86400000185,
      "d": 426.1200000000099,
      "v": 117
    },
    {
      "midi": 72,
      "hit": false,
      "t": 62838.49600000185,
      "d": 85.22400000000198,
      "v": 80
    },
    {
      "midi": 118,
      "hit": false,
      "t": 62838.49600000185,
      "d": 94.69333333333634,
      "v": 50
    },
    {
      "midi": 42,
      "hit": false,
      "t": 62847.96533333518,
      "d": 94.69333333333634,
      "v": 78
    },
    {
      "midi": 43,
      "hit": false,
      "t": 62942.65866666852,
      "d": 208.3253333333414,
      "v": 90
    },
    {
      "midi": 48,
      "hit": false,
      "t": 62942.65866666852,
      "d": 208.3253333333414,
      "v": 90
    },
    {
      "midi": 76,
      "hit": false,
      "t": 62952.12800000185,
      "d": 85.22400000000198,
      "v": 80
    },
    {
      "midi": 105,
      "hit": false,
      "t": 62952.12800000185,
      "d": 94.69333333333634,
      "v": 100
    },
    {
      "midi": 108,
      "hit": false,
      "t": 62952.12800000185,
      "d": 94.69333333333634,
      "v": 80
    },
    {
      "midi": 127,
      "hit": false,
      "t": 62952.12800000185,
      "d": 94.69333333333634,
      "v": 60
    },
    {
      "midi": 118,
      "hit": false,
      "t": 62952.12800000185,
      "d": 94.69333333333634,
      "v": 30
    },
    {
      "midi": 28,
      "hit": false,
      "t": 62952.12800000185,
      "d": 208.3253333333414,
      "v": 127
    },
    {
      "midi": 55,
      "hit": false,
      "t": 62952.12800000185,
      "d": 208.3253333333414,
      "v": 90
    },
    {
      "midi": 60,
      "hit": false,
      "t": 62952.12800000185,
      "d": 208.3253333333414,
      "v": 90
    },
    {
      "midi": 64,
      "hit": false,
      "t": 62961.59733333519,
      "d": 208.3253333333414,
      "v": 90
    },
    {
      "midi": 46,
      "hit": false,
      "t": 62971.06666666852,
      "d": 94.69333333333634,
      "v": 92
    },
    {
      "midi": 79,
      "hit": false,
      "t": 63065.76000000186,
      "d": 85.22400000000198,
      "v": 80
    },
    {
      "midi": 63,
      "hit": false,
      "t": 63065.76000000186,
      "d": 94.69333333333634,
      "v": 80
    },
    {
      "midi": 60,
      "hit": false,
      "t": 63169.92266666853,
      "d": 208.3253333333414,
      "v": 90
    },
    {
      "midi": 84,
      "hit": false,
      "t": 63179.39200000186,
      "d": 85.22400000000198,
      "v": 80
    },
    {
      "midi": 15,
      "hit": false,
      "t": 63179.39200000186,
      "d": 94.69333333333634,
      "v": 100
    },
    {
      "midi": 13,
      "hit": false,
      "t": 63179.39200000186,
      "d": 94.69333333333634,
      "v": 100
    },
    {
      "midi": 10,
      "hit": false,
      "t": 63179.39200000186,
      "d": 94.69333333333634,
      "v": 127
    },
    {
      "midi": 105,
      "hit": false,
      "t": 63179.39200000186,
      "d": 94.69333333333634,
      "v": 100
    },
    {
      "midi": 108,
      "hit": false,
      "t": 63179.39200000186,
      "d": 94.69333333333634,
      "v": 80
    },
    {
      "midi": 127,
      "hit": false,
      "t": 63179.39200000186,
      "d": 94.69333333333634,
      "v": 60
    },
    {
      "midi": 42,
      "hit": false,
      "t": 63179.39200000186,
      "d": 94.69333333333634,
      "v": 92
    },
    {
      "midi": 118,
      "hit": false,
      "t": 63179.39200000186,
      "d": 94.69333333333634,
      "v": 50
    },
    {
      "midi": 64,
      "hit": false,
      "t": 63179.39200000186,
      "d": 94.69333333333634,
      "v": 70
    },
    {
      "midi": 29,
      "hit": false,
      "t": 63179.39200000186,
      "d": 208.3253333333414,
      "v": 127
    },
    {
      "midi": 55,
      "hit": false,
      "t": 63179.39200000186,
      "d": 208.3253333333414,
      "v": 90
    },
    {
      "midi": 48,
      "hit": false,
      "t": 63179.39200000186,
      "d": 208.3253333333414,
      "v": 90
    },
    {
      "midi": 67,
      "hit": false,
      "t": 63179.39200000186,
      "d": 426.12000000001717,
      "v": 127
    },
    {
      "midi": 79,
      "hit": false,
      "t": 63179.39200000186,
      "d": 426.12000000001717,
      "v": 100
    },
    {
      "midi": 103,
      "hit": false,
      "t": 63179.39200000186,
      "d": 426.12000000001717,
      "v": 90
    },
    {
      "midi": 43,
      "hit": false,
      "t": 63188.8613333352,
      "d": 208.3253333333414,
      "v": 90
    },
    {
      "midi": 88,
      "hit": false,
      "t": 63293.02400000187,
      "d": 85.22400000000198,
      "v": 80
    },
    {
      "midi": 42,
      "hit": false,
      "t": 63302.4933333352,
      "d": 94.69333333333634,
      "v": 78
    },
    {
      "midi": 43,
      "hit": false,
      "t": 63397.18666666854,
      "d": 208.3253333333414,
      "v": 90
    },
    {
      "midi": 48,
      "hit": false,
      "t": 63397.18666666854,
      "d": 208.3253333333414,
      "v": 90
    },
    {
      "midi": 91,
      "hit": false,
      "t": 63406.65600000187,
      "d": 85.22400000000198,
      "v": 80
    },
    {
      "midi": 15,
      "hit": false,
      "t": 63406.65600000187,
      "d": 94.69333333333634,
      "v": 100
    },
    {
      "midi": 13,
      "hit": false,
      "t": 63406.65600000187,
      "d": 94.69333333333634,
      "v": 100
    },
    {
      "midi": 10,
      "hit": false,
      "t": 63406.65600000187,
      "d": 94.69333333333634,
      "v": 127
    },
    {
      "midi": 105,
      "hit": false,
      "t": 63406.65600000187,
      "d": 94.69333333333634,
      "v": 100
    },
    {
      "midi": 108,
      "hit": false,
      "t": 63406.65600000187,
      "d": 94.69333333333634,
      "v": 80
    },
    {
      "midi": 127,
      "hit": false,
      "t": 63406.65600000187,
      "d": 94.69333333333634,
      "v": 60
    },
    {
      "midi": 118,
      "hit": false,
      "t": 63406.65600000187,
      "d": 94.69333333333634,
      "v": 50
    },
    {
      "midi": 60,
      "hit": false,
      "t": 63406.65600000187,
      "d": 208.3253333333414,
      "v": 90
    },
    {
      "midi": 31,
      "hit": false,
      "t": 63406.65600000187,
      "d": 208.3253333333414,
      "v": 127
    },
    {
      "midi": 55,
      "hit": false,
      "t": 63406.65600000187,
      "d": 208.3253333333414,
      "v": 90
    },
    {
      "midi": 64,
      "hit": false,
      "t": 63416.12533333521,
      "d": 198.85600000000704,
      "v": 90
    },
    {
      "midi": 46,
      "hit": false,
      "t": 63425.59466666854,
      "d": 94.69333333333634,
      "v": 92
    },
    {
      "midi": 96,
      "hit": false,
      "t": 63520.28800000188,
      "d": 85.22400000000198,
      "v": 80
    },
    {
      "midi": 105,
      "hit": false,
      "t": 63520.28800000188,
      "d": 94.69333333333634,
      "v": 100
    },
    {
      "midi": 108,
      "hit": false,
      "t": 63520.28800000188,
      "d": 94.69333333333634,
      "v": 80
    },
    {
      "midi": 127,
      "hit": false,
      "t": 63520.28800000188,
      "d": 94.69333333333634,
      "v": 60
    },
    {
      "midi": 118,
      "hit": false,
      "t": 63520.28800000188,
      "d": 94.69333333333634,
      "v": 30
    },
    {
      "midi": 86,
      "hit": false,
      "t": 63633.92000000188,
      "d": 85.22400000000926,
      "v": 80
    },
    {
      "midi": 26,
      "hit": false,
      "t": 63633.92000000188,
      "d": 94.69333333334362,
      "v": 127
    },
    {
      "midi": 15,
      "hit": false,
      "t": 63633.92000000188,
      "d": 94.69333333334362,
      "v": 100
    },
    {
      "midi": 13,
      "hit": false,
      "t": 63633.92000000188,
      "d": 94.69333333334362,
      "v": 100
    },
    {
      "midi": 10,
      "hit": false,
      "t": 63633.92000000188,
      "d": 94.69333333334362,
      "v": 127
    },
    {
      "midi": 42,
      "hit": false,
      "t": 63633.92000000188,
      "d": 94.69333333334362,
      "v": 92
    },
    {
      "midi": 65,
      "hit": false,
      "t": 63633.92000000188,
      "d": 94.69333333334362,
      "v": 80
    },
    {
      "midi": 126,
      "hit": false,
      "t": 63633.92000000188,
      "d": 94.69333333334362,
      "v": 90
    },
    {
      "midi": 67,
      "hit": false,
      "t": 63633.92000000188,
      "d": 426.1200000000317,
      "v": 127
    },
    {
      "midi": 55,
      "hit": false,
      "t": 63633.92000000188,
      "d": 426.1200000000317,
      "v": 80
    },
    {
      "midi": 103,
      "hit": false,
      "t": 63633.92000000188,
      "d": 1799.1733333334341,
      "v": 90
    },
    {
      "midi": 91,
      "hit": false,
      "t": 63633.92000000188,
      "d": 1799.1733333334341,
      "v": 117
    },
    {
      "midi": 62,
      "hit": false,
      "t": 63643.38933333522,
      "d": 9.469333333334362,
      "v": 80
    },
    {
      "midi": 53,
      "hit": false,
      "t": 63643.38933333522,
      "d": 28.408000000003085,
      "v": 100
    },
    {
      "midi": 45,
      "hit": false,
      "t": 63643.38933333522,
      "d": 416.65066666669736,
      "v": 100
    },
    {
      "midi": 57,
      "hit": false,
      "t": 63652.85866666855,
      "d": 9.469333333334362,
      "v": 80
    },
    {
      "midi": 38,
      "hit": false,
      "t": 63652.85866666855,
      "d": 416.65066666669736,
      "v": 100
    },
    {
      "midi": 53,
      "hit": false,
      "t": 63738.08266666856,
      "d": 28.408000000003085,
      "v": 80
    },
    {
      "midi": 57,
      "hit": false,
      "t": 63747.552000001895,
      "d": 28.408000000003085,
      "v": 80
    },
    {
      "midi": 81,
      "hit": false,
      "t": 63747.552000001895,
      "d": 85.22400000000198,
      "v": 80
    },
    {
      "midi": 26,
      "hit": false,
      "t": 63747.552000001895,
      "d": 94.69333333333634,
      "v": 127
    },
    {
      "midi": 62,
      "hit": false,
      "t": 63757.02133333523,
      "d": 28.408000000003085,
      "v": 80
    },
    {
      "midi": 42,
      "hit": false,
      "t": 63757.02133333523,
      "d": 94.69333333333634,
      "v": 78
    },
    {
      "midi": 65,
      "hit": false,
      "t": 63766.490666668564,
      "d": 94.69333333333634,
      "v": 80
    },
    {
      "midi": 65,
      "hit": false,
      "t": 63861.1840000019,
      "d": 47.34666666667181,
      "v": 80
    },
    {
      "midi": 77,
      "hit": false,
      "t": 63861.1840000019,
      "d": 85.22400000000926,
      "v": 80
    },
    {
      "midi": 26,
      "hit": false,
      "t": 63861.1840000019,
      "d": 94.69333333334362,
      "v": 127
    },
    {
      "midi": 62,
      "hit": false,
      "t": 63870.653333335234,
      "d": 47.34666666667181,
      "v": 80
    },
    {
      "midi": 57,
      "hit": false,
      "t": 63880.12266666857,
      "d": 47.34666666667181,
      "v": 80
    },
    {
      "midi": 46,
      "hit": false,
      "t": 63880.12266666857,
      "d": 94.69333333334362,
      "v": 92
    },
    {
      "midi": 53,
      "hit": false,
      "t": 63965.34666666858,
      "d": 28.408000000003085,
      "v": 80
    },
    {
      "midi": 57,
      "hit": false,
      "t": 63974.81600000191,
      "d": 28.408000000003085,
      "v": 80
    },
    {
      "midi": 74,
      "hit": false,
      "t": 63974.81600000191,
      "d": 85.22400000000198,
      "v": 80
    },
    {
      "midi": 26,
      "hit": false,
      "t": 63974.81600000191,
      "d": 94.69333333333634,
      "v": 127
    },
    {
      "midi": 64,
      "hit": false,
      "t": 63974.81600000191,
      "d": 94.69333333333634,
      "v": 70
    },
    {
      "midi": 62,
      "hit": false,
      "t": 63984.28533333525,
      "d": 28.408000000003085,
      "v": 80
    },
    {
      "midi": 65,
      "hit": false,
      "t": 63993.75466666858,
      "d": 94.69333333333634,
      "v": 80
    },
    {
      "midi": 69,
      "hit": false,
      "t": 64088.44800000192,
      "d": 85.22400000000198,
      "v": 80
    },
    {
      "midi": 26,
      "hit": false,
      "t": 64088.44800000192,
      "d": 94.69333333333634,
      "v": 127
    },
    {
      "midi": 15,
      "hit": false,
      "t": 64088.44800000192,
      "d": 94.69333333333634,
      "v": 100
    },
    {
      "midi": 13,
      "hit": false,
      "t": 64088.44800000192,
      "d": 94.69333333333634,
      "v": 100
    },
    {
      "midi": 10,
      "hit": false,
      "t": 64088.44800000192,
      "d": 94.69333333333634,
      "v": 127
    },
    {
      "midi": 127,
      "hit": false,
      "t": 64088.44800000192,
      "d": 94.69333333333634,
      "v": 60
    },
    {
      "midi": 108,
      "hit": false,
      "t": 64088.44800000192,
      "d": 94.69333333333634,
      "v": 80
    },
    {
      "midi": 105,
      "hit": false,
      "t": 64088.44800000192,
      "d": 94.69333333333634,
      "v": 100
    },
    {
      "midi": 42,
      "hit": false,
      "t": 64088.44800000192,
      "d": 94.69333333333634,
      "v": 92
    },
    {
      "midi": 65,
      "hit": false,
      "t": 64088.44800000192,
      "d": 94.69333333333634,
      "v": 80
    },
    {
      "midi": 118,
      "hit": false,
      "t": 64088.44800000192,
      "d": 94.69333333333634,
      "v": 50
    },
    {
      "midi": 63,
      "hit": false,
      "t": 64088.44800000192,
      "d": 94.69333333333634,
      "v": 70
    },
    {
      "midi": 38,
      "hit": false,
      "t": 64088.44800000192,
      "d": 198.85600000000704,
      "v": 100
    },
    {
      "midi": 45,
      "hit": false,
      "t": 64088.44800000192,
      "d": 198.85600000000704,
      "v": 100
    },
    {
      "midi": 62,
      "hit": false,
      "t": 64097.91733333525,
      "d": 9.469333333334362,
      "v": 80
    },
    {
      "midi": 53,
      "hit": false,
      "t": 64097.91733333525,
      "d": 28.408000000003085,
      "v": 100
    },
    {
      "midi": 57,
      "hit": false,
      "t": 64107.386666668586,
      "d": 9.469333333334362,
      "v": 80
    },
    {
      "midi": 65,
      "hit": false,
      "t": 64202.08000000192,
      "d": 85.22400000000198,
      "v": 80
    },
    {
      "midi": 42,
      "hit": false,
      "t": 64211.54933333526,
      "d": 94.69333333333634,
      "v": 78
    },
    {
      "midi": 57,
      "hit": false,
      "t": 64315.71200000193,
      "d": 28.408000000003085,
      "v": 100
    },
    {
      "midi": 26,
      "hit": false,
      "t": 64315.71200000193,
      "d": 94.69333333333634,
      "v": 127
    },
    {
      "midi": 64,
      "hit": false,
      "t": 64315.71200000193,
      "d": 426.12000000002445,
      "v": 127
    },
    {
      "midi": 53,
      "hit": false,
      "t": 64325.18133333526,
      "d": 9.469333333334362,
      "v": 100
    },
    {
      "midi": 62,
      "hit": false,
      "t": 64325.18133333526,
      "d": 28.408000000003085,
      "v": 80
    },
    {
      "midi": 45,
      "hit": false,
      "t": 64325.18133333526,
      "d": 85.22400000000198,
      "v": 100
    },
    {
      "midi": 38,
      "hit": false,
      "t": 64334.6506666686,
      "d": 85.22400000000198,
      "v": 100
    },
    {
      "midi": 46,
      "hit": false,
      "t": 64334.6506666686,
      "d": 94.69333333333634,
      "v": 92
    },
    {
      "midi": 65,
      "hit": false,
      "t": 64334.6506666686,
      "d": 94.69333333333634,
      "v": 80
    },
    {
      "midi": 38,
      "hit": false,
      "t": 64419.8746666686,
      "d": 9.469333333334362,
      "v": 110
    },
    {
      "midi": 38,
      "hit": false,
      "t": 64429.34400000193,
      "d": 37.87733333333745,
      "v": 100
    },
    {
      "midi": 45,
      "hit": false,
      "t": 64429.34400000193,
      "d": 37.87733333333745,
      "v": 100
    },
    {
      "midi": 65,
      "hit": false,
      "t": 64429.34400000193,
      "d": 85.22400000000926,
      "v": 80
    },
    {
      "midi": 26,
      "hit": false,
      "t": 64429.34400000193,
      "d": 94.69333333334362,
      "v": 127
    },
    {
      "midi": 118,
      "hit": false,
      "t": 64429.34400000193,
      "d": 94.69333333334362,
      "v": 50
    },
    {
      "midi": 62,
      "hit": false,
      "t": 64438.81333333527,
      "d": 9.469333333334362,
      "v": 80
    },
    {
      "midi": 53,
      "hit": false,
      "t": 64438.81333333527,
      "d": 28.408000000003085,
      "v": 100
    },
    {
      "midi": 57,
      "hit": false,
      "t": 64448.2826666686,
      "d": 9.469333333334362,
      "v": 80
    },
    {
      "midi": 62,
      "hit": false,
      "t": 64448.2826666686,
      "d": 37.87733333333745,
      "v": 100
    },
    {
      "midi": 57,
      "hit": false,
      "t": 64533.50666666861,
      "d": 9.469333333334362,
      "v": 100
    },
    {
      "midi": 62,
      "hit": false,
      "t": 64542.976000001945,
      "d": 9.469333333334362,
      "v": 100
    },
    {
      "midi": 57,
      "hit": false,
      "t": 64542.976000001945,
      "d": 9.469333333334362,
      "v": 100
    },
    {
      "midi": 69,
      "hit": false,
      "t": 64542.976000001945,
      "d": 85.22400000000198,
      "v": 80
    },
    {
      "midi": 26,
      "hit": false,
      "t": 64542.976000001945,
      "d": 94.69333333333634,
      "v": 127
    },
    {
      "midi": 15,
      "hit": false,
      "t": 64542.976000001945,
      "d": 94.69333333333634,
      "v": 100
    },
    {
      "midi": 13,
      "hit": false,
      "t": 64542.976000001945,
      "d": 94.69333333333634,
      "v": 100
    },
    {
      "midi": 10,
      "hit": false,
      "t": 64542.976000001945,
      "d": 94.69333333333634,
      "v": 127
    },
    {
      "midi": 42,
      "hit": false,
      "t": 64542.976000001945,
      "d": 94.69333333333634,
      "v": 92
    },
    {
      "midi": 53,
      "hit": false,
      "t": 64552.44533333528,
      "d": 9.469333333334362,
      "v": 100
    },
    {
      "midi": 45,
      "hit": false,
      "t": 64552.44533333528,
      "d": 9.469333333334362,
      "v": 100
    },
    {
      "midi": 38,
      "hit": false,
      "t": 64561.914666668614,
      "d": 9.469333333334362,
      "v": 100
    },
    {
      "midi": 38,
      "hit": false,
      "t": 64656.60800000195,
      "d": 9.469333333334362,
      "v": 100
    },
    {
      "midi": 45,
      "hit": false,
      "t": 64656.60800000195,
      "d": 9.469333333334362,
      "v": 100
    },
    {
      "midi": 74,
      "hit": false,
      "t": 64656.60800000195,
      "d": 85.22400000000198,
      "v": 80
    },
    {
      "midi": 118,
      "hit": false,
      "t": 64656.60800000195,
      "d": 94.69333333333634,
      "v": 50
    },
    {
      "midi": 53,
      "hit": false,
      "t": 64666.077333335284,
      "d": 9.469333333334362,
      "v": 100
    },
    {
      "midi": 57,
      "hit": false,
      "t": 64666.077333335284,
      "d": 9.469333333334362,
      "v": 100
    },
    {
      "midi": 42,
      "hit": false,
      "t": 64666.077333335284,
      "d": 94.69333333333634,
      "v": 78
    },
    {
      "midi": 62,
      "hit": false,
      "t": 64675.54666666862,
      "d": 9.469333333334362,
      "v": 100
    },
    {
      "midi": 62,
      "hit": false,
      "t": 64770.240000001955,
      "d": 85.22400000000198,
      "v": 100
    },
    {
      "midi": 57,
      "hit": false,
      "t": 64770.240000001955,
      "d": 85.22400000000198,
      "v": 100
    },
    {
      "midi": 77,
      "hit": false,
      "t": 64770.240000001955,
      "d": 85.22400000000198,
      "v": 80
    },
    {
      "midi": 26,
      "hit": false,
      "t": 64770.240000001955,
      "d": 94.69333333333634,
      "v": 127
    },
    {
      "midi": 118,
      "hit": false,
      "t": 64770.240000001955,
      "d": 94.69333333333634,
      "v": 30
    },
    {
      "midi": 53,
      "hit": false,
      "t": 64779.70933333529,
      "d": 85.22400000000198,
      "v": 100
    },
    {
      "midi": 45,
      "hit": false,
      "t": 64779.70933333529,
      "d": 85.22400000000198,
      "v": 100
    },
    {
      "midi": 38,
      "hit": false,
      "t": 64789.178666668624,
      "d": 85.22400000000198,
      "v": 100
    },
    {
      "midi": 46,
      "hit": false,
      "t": 64789.178666668624,
      "d": 94.69333333333634,
      "v": 92
    },
    {
      "midi": 38,
      "hit": false,
      "t": 64874.402666668626,
      "d": 9.469333333334362,
      "v": 100
    },
    {
      "midi": 38,
      "hit": false,
      "t": 64883.87200000196,
      "d": 85.22400000000198,
      "v": 100
    },
    {
      "midi": 45,
      "hit": false,
      "t": 64883.87200000196,
      "d": 85.22400000000198,
      "v": 100
    },
    {
      "midi": 81,
      "hit": false,
      "t": 64883.87200000196,
      "d": 85.22400000000198,
      "v": 80
    },
    {
      "midi": 63,
      "hit": false,
      "t": 64883.87200000196,
      "d": 94.69333333333634,
      "v": 80
    },
    {
      "midi": 53,
      "hit": false,
      "t": 64893.341333335295,
      "d": 85.22400000000198,
      "v": 100
    },
    {
      "midi": 57,
      "hit": false,
      "t": 64893.341333335295,
      "d": 85.22400000000198,
      "v": 100
    },
    {
      "midi": 62,
      "hit": false,
      "t": 64902.81066666863,
      "d": 85.22400000000198,
      "v": 100
    },
    {
      "midi": 62,
      "hit": false,
      "t": 64988.03466666863,
      "d": 9.469333333334362,
      "v": 90
    },
    {
      "midi": 62,
      "hit": false,
      "t": 64997.504000001965,
      "d": 85.22400000000198,
      "v": 100
    },
    {
      "midi": 57,
      "hit": false,
      "t": 64997.504000001965,
      "d": 85.22400000000198,
      "v": 100
    },
    {
      "midi": 86,
      "hit": false,
      "t": 64997.504000001965,
      "d": 85.22400000000198,
      "v": 80
    },
    {
      "midi": 26,
      "hit": false,
      "t": 64997.504000001965,
      "d": 94.69333333333634,
      "v": 127
    },
    {
      "midi": 15,
      "hit": false,
      "t": 64997.504000001965,
      "d": 94.69333333333634,
      "v": 100
    },
    {
      "midi": 13,
      "hit": false,
      "t": 64997.504000001965,
      "d": 94.69333333333634,
      "v": 100
    },
    {
      "midi": 10,
      "hit": false,
      "t": 64997.504000001965,
      "d": 94.69333333333634,
      "v": 127
    },
    {
      "midi": 127,
      "hit": false,
      "t": 64997.504000001965,
      "d": 94.69333333333634,
      "v": 60
    },
    {
      "midi": 108,
      "hit": false,
      "t": 64997.504000001965,
      "d": 94.69333333333634,
      "v": 80
    },
    {
      "midi": 105,
      "hit": false,
      "t": 64997.504000001965,
      "d": 94.69333333333634,
      "v": 100
    },
    {
      "midi": 42,
      "hit": false,
      "t": 64997.504000001965,
      "d": 94.69333333333634,
      "v": 92
    },
    {
      "midi": 118,
      "hit": false,
      "t": 64997.504000001965,
      "d": 94.69333333333634,
      "v": 50
    },
    {
      "midi": 64,
      "hit": false,
      "t": 64997.504000001965,
      "d": 94.69333333333634,
      "v": 70
    },
    {
      "midi": 53,
      "hit": false,
      "t": 65006.9733333353,
      "d": 85.22400000000198,
      "v": 100
    },
    {
      "midi": 45,
      "hit": false,
      "t": 65006.9733333353,
      "d": 85.22400000000198,
      "v": 100
    },
    {
      "midi": 38,
      "hit": false,
      "t": 65016.442666668634,
      "d": 85.22400000000198,
      "v": 100
    },
    {
      "midi": 38,
      "hit": false,
      "t": 65101.666666668636,
      "d": 208.3253333333414,
      "v": 100
    },
    {
      "midi": 45,
      "hit": false,
      "t": 65101.666666668636,
      "d": 208.3253333333414,
      "v": 100
    },
    {
      "midi": 81,
      "hit": false,
      "t": 65111.13600000197,
      "d": 85.22400000000198,
      "v": 80
    },
    {
      "midi": 26,
      "hit": false,
      "t": 65111.13600000197,
      "d": 94.69333333333634,
      "v": 127
    },
    {
      "midi": 53,
      "hit": false,
      "t": 65111.13600000197,
      "d": 208.3253333333414,
      "v": 100
    },
    {
      "midi": 57,
      "hit": false,
      "t": 65111.13600000197,
      "d": 208.3253333333414,
      "v": 100
    },
    {
      "midi": 62,
      "hit": false,
      "t": 65120.605333335305,
      "d": 75.75466666666762,
      "v": 100
    },
    {
      "midi": 42,
      "hit": false,
      "t": 65120.605333335305,
      "d": 94.69333333333634,
      "v": 78
    },
    {
      "midi": 77,
      "hit": false,
      "t": 65224.768000001975,
      "d": 85.22400000000198,
      "v": 80
    },
    {
      "midi": 26,
      "hit": false,
      "t": 65224.768000001975,
      "d": 94.69333333333634,
      "v": 127
    },
    {
      "midi": 118,
      "hit": false,
      "t": 65224.768000001975,
      "d": 94.69333333333634,
      "v": 50
    },
    {
      "midi": 81,
      "hit": false,
      "t": 65224.768000001975,
      "d": 236.7333333333445,
      "v": 100
    },
    {
      "midi": 46,
      "hit": false,
      "t": 65243.706666668644,
      "d": 94.69333333333634,
      "v": 92
    },
    {
      "midi": 62,
      "hit": false,
      "t": 65328.930666668646,
      "d": 94.69333333333634,
      "v": 90
    },
    {
      "midi": 57,
      "hit": false,
      "t": 65328.930666668646,
      "d": 94.69333333333634,
      "v": 90
    },
    {
      "midi": 74,
      "hit": false,
      "t": 65338.40000000198,
      "d": 85.22400000000198,
      "v": 80
    },
    {
      "midi": 53,
      "hit": false,
      "t": 65338.40000000198,
      "d": 94.69333333333634,
      "v": 90
    },
    {
      "midi": 45,
      "hit": false,
      "t": 65338.40000000198,
      "d": 94.69333333333634,
      "v": 90
    },
    {
      "midi": 118,
      "hit": false,
      "t": 65338.40000000198,
      "d": 94.69333333333634,
      "v": 30
    },
    {
      "midi": 38,
      "hit": false,
      "t": 65347.869333335315,
      "d": 94.69333333333634,
      "v": 90
    },
    {
      "midi": 88,
      "hit": false,
      "t": 65452.032000001986,
      "d": 85.22400000000198,
      "v": 117
    },
    {
      "midi": 28,
      "hit": false,
      "t": 65452.032000001986,
      "d": 94.69333333332906,
      "v": 127
    },
    {
      "midi": 15,
      "hit": false,
      "t": 65452.032000001986,
      "d": 94.69333333332906,
      "v": 100
    },
    {
      "midi": 13,
      "hit": false,
      "t": 65452.032000001986,
      "d": 94.69333333332906,
      "v": 100
    },
    {
      "midi": 10,
      "hit": false,
      "t": 65452.032000001986,
      "d": 94.69333333332906,
      "v": 127
    },
    {
      "midi": 42,
      "hit": false,
      "t": 65452.032000001986,
      "d": 94.69333333332906,
      "v": 92
    },
    {
      "midi": 68,
      "hit": false,
      "t": 65452.032000001986,
      "d": 94.69333333332906,
      "v": 107
    },
    {
      "midi": 40,
      "hit": false,
      "t": 65452.032000001986,
      "d": 416.6506666665664,
      "v": 110
    },
    {
      "midi": 47,
      "hit": false,
      "t": 65452.032000001986,
      "d": 416.6506666665664,
      "v": 110
    },
    {
      "midi": 100,
      "hit": false,
      "t": 65452.032000001986,
      "d": 1799.1733333328448,
      "v": 90
    },
    {
      "midi": 64,
      "hit": false,
      "t": 65461.50133333532,
      "d": 9.469333333334362,
      "v": 80
    },
    {
      "midi": 56,
      "hit": false,
      "t": 65461.50133333532,
      "d": 28.408000000003085,
      "v": 110
    },
    {
      "midi": 59,
      "hit": false,
      "t": 65470.970666668654,
      "d": 9.469333333334362,
      "v": 80
    },
    {
      "midi": 64,
      "hit": false,
      "t": 65470.970666668654,
      "d": 85.22399999998743,
      "v": 110
    },
    {
      "midi": 56,
      "hit": false,
      "t": 65556.19466666864,
      "d": 28.407999999981257,
      "v": 80
    },
    {
      "midi": 59,
      "hit": false,
      "t": 65565.66400000197,
      "d": 28.407999999981257,
      "v": 80
    },
    {
      "midi": 83,
      "hit": false,
      "t": 65565.66400000197,
      "d": 85.22399999997288,
      "v": 80
    },
    {
      "midi": 28,
      "hit": false,
      "t": 65565.66400000197,
      "d": 94.69333333329996,
      "v": 127
    },
    {
      "midi": 64,
      "hit": false,
      "t": 65575.1333333353,
      "d": 28.407999999981257,
      "v": 80
    },
    {
      "midi": 42,
      "hit": false,
      "t": 65575.1333333353,
      "d": 94.69333333329996,
      "v": 78
    },
    {
      "midi": 68,
      "hit": false,
      "t": 65584.60266666862,
      "d": 94.69333333329996,
      "v": 80
    },
    {
      "midi": 80,
      "hit": false,
      "t": 65679.29600000192,
      "d": 85.22400000000198,
      "v": 80
    },
    {
      "midi": 28,
      "hit": false,
      "t": 65679.29600000192,
      "d": 94.69333333332906,
      "v": 127
    },
    {
      "midi": 46,
      "hit": false,
      "t": 65698.23466666859,
      "d": 94.69333333331451,
      "v": 92
    },
    {
      "midi": 76,
      "hit": false,
      "t": 65792.9280000019,
      "d": 85.22399999997288,
      "v": 80
    },
    {
      "midi": 28,
      "hit": false,
      "t": 65792.9280000019,
      "d": 94.69333333329996,
      "v": 127
    },
    {
      "midi": 68,
      "hit": false,
      "t": 65792.9280000019,
      "d": 94.69333333329996,
      "v": 80
    },
    {
      "midi": 64,
      "hit": false,
      "t": 65802.39733333523,
      "d": 9.469333333327086,
      "v": 80
    },
    {
      "midi": 56,
      "hit": false,
      "t": 65802.39733333523,
      "d": 28.407999999981257,
      "v": 80
    },
    {
      "midi": 59,
      "hit": false,
      "t": 65811.86666666856,
      "d": 9.469333333327086,
      "v": 80
    },
    {
      "midi": 59,
      "hit": false,
      "t": 65897.09066666853,
      "d": 9.469333333327086,
      "v": 100
    },
    {
      "midi": 59,
      "hit": false,
      "t": 65906.56000000186,
      "d": 28.407999999981257,
      "v": 115
    },
    {
      "midi": 71,
      "hit": false,
      "t": 65906.56000000186,
      "d": 85.22399999997288,
      "v": 80
    },
    {
      "midi": 28,
      "hit": false,
      "t": 65906.56000000186,
      "d": 94.69333333329996,
      "v": 127
    },
    {
      "midi": 15,
      "hit": false,
      "t": 65906.56000000186,
      "d": 94.69333333329996,
      "v": 100
    },
    {
      "midi": 13,
      "hit": false,
      "t": 65906.56000000186,
      "d": 94.69333333329996,
      "v": 100
    },
    {
      "midi": 10,
      "hit": false,
      "t": 65906.56000000186,
      "d": 94.69333333329996,
      "v": 127
    },
    {
      "midi": 127,
      "hit": false,
      "t": 65906.56000000186,
      "d": 94.69333333329996,
      "v": 60
    },
    {
      "midi": 108,
      "hit": false,
      "t": 65906.56000000186,
      "d": 94.69333333329996,
      "v": 80
    },
    {
      "midi": 105,
      "hit": false,
      "t": 65906.56000000186,
      "d": 94.69333333329996,
      "v": 100
    },
    {
      "midi": 42,
      "hit": false,
      "t": 65906.56000000186,
      "d": 94.69333333329996,
      "v": 92
    },
    {
      "midi": 118,
      "hit": false,
      "t": 65906.56000000186,
      "d": 94.69333333329996,
      "v": 50
    },
    {
      "midi": 63,
      "hit": false,
      "t": 65906.56000000186,
      "d": 94.69333333329996,
      "v": 70
    },
    {
      "midi": 56,
      "hit": false,
      "t": 65916.02933333519,
      "d": 9.469333333327086,
      "v": 115
    },
    {
      "midi": 64,
      "hit": false,
      "t": 65916.02933333519,
      "d": 28.407999999981257,
      "v": 80
    },
    {
      "midi": 47,
      "hit": false,
      "t": 65916.02933333519,
      "d": 198.85599999994156,
      "v": 115
    },
    {
      "midi": 40,
      "hit": false,
      "t": 65916.02933333519,
      "d": 208.32533333326865,
      "v": 100
    },
    {
      "midi": 68,
      "hit": false,
      "t": 65925.49866666851,
      "d": 94.69333333329996,
      "v": 80
    },
    {
      "midi": 68,
      "hit": false,
      "t": 66020.19200000181,
      "d": 85.22399999998743,
      "v": 80
    },
    {
      "midi": 42,
      "hit": false,
      "t": 66029.66133333514,
      "d": 94.69333333331451,
      "v": 78
    },
    {
      "midi": 40,
      "hit": false,
      "t": 66133.82400000178,
      "d": 85.22399999997288,
      "v": 95
    },
    {
      "midi": 47,
      "hit": false,
      "t": 66133.82400000178,
      "d": 85.22399999997288,
      "v": 95
    },
    {
      "midi": 28,
      "hit": false,
      "t": 66133.82400000178,
      "d": 94.69333333329996,
      "v": 127
    },
    {
      "midi": 68,
      "hit": false,
      "t": 66133.82400000178,
      "d": 94.69333333329996,
      "v": 80
    },
    {
      "midi": 64,
      "hit": false,
      "t": 66143.29333333511,
      "d": 9.469333333327086,
      "v": 80
    },
    {
      "midi": 56,
      "hit": false,
      "t": 66143.29333333511,
      "d": 28.407999999981257,
      "v": 95
    },
    {
      "midi": 59,
      "hit": false,
      "t": 66152.76266666844,
      "d": 9.469333333327086,
      "v": 80
    },
    {
      "midi": 64,
      "hit": false,
      "t": 66152.76266666844,
      "d": 66.2853333333187,
      "v": 95
    },
    {
      "midi": 46,
      "hit": false,
      "t": 66152.76266666844,
      "d": 94.69333333329996,
      "v": 92
    },
    {
      "midi": 59,
      "hit": false,
      "t": 66237.98666666841,
      "d": 9.469333333327086,
      "v": 90
    },
    {
      "midi": 64,
      "hit": false,
      "t": 66237.98666666841,
      "d": 9.469333333327086,
      "v": 90
    },
    {
      "midi": 59,
      "hit": false,
      "t": 66247.45600000174,
      "d": 28.407999999981257,
      "v": 95
    },
    {
      "midi": 118,
      "hit": false,
      "t": 66247.45600000174,
      "d": 94.69333333329996,
      "v": 50
    },
    {
      "midi": 56,
      "hit": false,
      "t": 66256.92533333506,
      "d": 9.469333333327086,
      "v": 95
    },
    {
      "midi": 64,
      "hit": false,
      "t": 66256.92533333506,
      "d": 28.407999999981257,
      "v": 80
    },
    {
      "midi": 47,
      "hit": false,
      "t": 66256.92533333506,
      "d": 94.69333333329996,
      "v": 95
    },
    {
      "midi": 68,
      "hit": false,
      "t": 66266.39466666839,
      "d": 66.2853333333187,
      "v": 80
    },
    {
      "midi": 40,
      "hit": false,
      "t": 66266.39466666839,
      "d": 94.69333333329996,
      "v": 95
    },
    {
      "midi": 71,
      "hit": false,
      "t": 66361.08800000169,
      "d": 85.22399999998743,
      "v": 80
    },
    {
      "midi": 47,
      "hit": false,
      "t": 66361.08800000169,
      "d": 94.69333333331451,
      "v": 95
    },
    {
      "midi": 28,
      "hit": false,
      "t": 66361.08800000169,
      "d": 94.69333333331451,
      "v": 127
    },
    {
      "midi": 15,
      "hit": false,
      "t": 66361.08800000169,
      "d": 94.69333333331451,
      "v": 100
    },
    {
      "midi": 13,
      "hit": false,
      "t": 66361.08800000169,
      "d": 94.69333333331451,
      "v": 100
    },
    {
      "midi": 10,
      "hit": false,
      "t": 66361.08800000169,
      "d": 94.69333333331451,
      "v": 127
    },
    {
      "midi": 42,
      "hit": false,
      "t": 66361.08800000169,
      "d": 94.69333333331451,
      "v": 92
    },
    {
      "midi": 40,
      "hit": false,
      "t": 66361.08800000169,
      "d": 94.69333333331451,
      "v": 95
    },
    {
      "midi": 59,
      "hit": false,
      "t": 66370.55733333502,
      "d": 75.75466666666034,
      "v": 95
    },
    {
      "midi": 56,
      "hit": false,
      "t": 66370.55733333502,
      "d": 85.22399999998743,
      "v": 95
    },
    {
      "midi": 64,
      "hit": false,
      "t": 66380.02666666835,
      "d": 66.28533333333326,
      "v": 95
    },
    {
      "midi": 76,
      "hit": false,
      "t": 66474.72000000166,
      "d": 85.22399999998743,
      "v": 80
    },
    {
      "midi": 59,
      "hit": false,
      "t": 66474.72000000166,
      "d": 94.69333333331451,
      "v": 95
    },
    {
      "midi": 118,
      "hit": false,
      "t": 66474.72000000166,
      "d": 94.69333333331451,
      "v": 50
    },
    {
      "midi": 47,
      "hit": false,
      "t": 66484.18933333499,
      "d": 75.75466666666034,
      "v": 95
    },
    {
      "midi": 56,
      "hit": false,
      "t": 66484.18933333499,
      "d": 85.22399999998743,
      "v": 95
    },
    {
      "midi": 64,
      "hit": false,
      "t": 66484.18933333499,
      "d": 85.22399999998743,
      "v": 90
    },
    {
      "midi": 42,
      "hit": false,
      "t": 66484.18933333499,
      "d": 94.69333333331451,
      "v": 78
    },
    {
      "midi": 40,
      "hit": false,
      "t": 66493.65866666831,
      "d": 66.28533333333326,
      "v": 95
    },
    {
      "midi": 80,
      "hit": false,
      "t": 66588.35200000163,
      "d": 85.22399999998743,
      "v": 80
    },
    {
      "midi": 28,
      "hit": false,
      "t": 66588.35200000163,
      "d": 94.69333333331451,
      "v": 127
    },
    {
      "midi": 47,
      "hit": false,
      "t": 66588.35200000163,
      "d": 94.69333333331451,
      "v": 115
    },
    {
      "midi": 118,
      "hit": false,
      "t": 66588.35200000163,
      "d": 94.69333333331451,
      "v": 30
    },
    {
      "midi": 59,
      "hit": false,
      "t": 66597.82133333496,
      "d": 75.75466666666034,
      "v": 115
    },
    {
      "midi": 56,
      "hit": false,
      "t": 66597.82133333496,
      "d": 85.22399999998743,
      "v": 115
    },
    {
      "midi": 40,
      "hit": false,
      "t": 66597.82133333496,
      "d": 94.69333333331451,
      "v": 90
    },
    {
      "midi": 64,
      "hit": false,
      "t": 66607.29066666828,
      "d": 66.28533333333326,
      "v": 115
    },
    {
      "midi": 46,
      "hit": false,
      "t": 66607.29066666828,
      "d": 94.69333333331451,
      "v": 92
    },
    {
      "midi": 40,
      "hit": false,
      "t": 66692.51466666827,
      "d": 94.69333333331451,
      "v": 100
    },
    {
      "midi": 47,
      "hit": false,
      "t": 66692.51466666827,
      "d": 94.69333333331451,
      "v": 100
    },
    {
      "midi": 83,
      "hit": false,
      "t": 66701.9840000016,
      "d": 85.22399999998743,
      "v": 80
    },
    {
      "midi": 56,
      "hit": false,
      "t": 66701.9840000016,
      "d": 94.69333333331451,
      "v": 100
    },
    {
      "midi": 59,
      "hit": false,
      "t": 66701.9840000016,
      "d": 94.69333333331451,
      "v": 100
    },
    {
      "midi": 63,
      "hit": false,
      "t": 66701.9840000016,
      "d": 94.69333333331451,
      "v": 80
    },
    {
      "midi": 64,
      "hit": false,
      "t": 66711.45333333492,
      "d": 85.22399999998743,
      "v": 100
    },
    {
      "midi": 64,
      "hit": false,
      "t": 66806.14666666824,
      "d": 9.469333333327086,
      "v": 100
    },
    {
      "midi": 88,
      "hit": false,
      "t": 66815.61600000157,
      "d": 85.22399999998743,
      "v": 80
    },
    {
      "midi": 28,
      "hit": false,
      "t": 66815.61600000157,
      "d": 94.69333333331451,
      "v": 127
    },
    {
      "midi": 15,
      "hit": false,
      "t": 66815.61600000157,
      "d": 94.69333333331451,
      "v": 100
    },
    {
      "midi": 13,
      "hit": false,
      "t": 66815.61600000157,
      "d": 94.69333333331451,
      "v": 100
    },
    {
      "midi": 10,
      "hit": false,
      "t": 66815.61600000157,
      "d": 94.69333333331451,
      "v": 127
    },
    {
      "midi": 127,
      "hit": false,
      "t": 66815.61600000157,
      "d": 94.69333333331451,
      "v": 60
    },
    {
      "midi": 108,
      "hit": false,
      "t": 66815.61600000157,
      "d": 94.69333333331451,
      "v": 80
    },
    {
      "midi": 105,
      "hit": false,
      "t": 66815.61600000157,
      "d": 94.69333333331451,
      "v": 100
    },
    {
      "midi": 42,
      "hit": false,
      "t": 66815.61600000157,
      "d": 94.69333333331451,
      "v": 92
    },
    {
      "midi": 118,
      "hit": false,
      "t": 66815.61600000157,
      "d": 94.69333333331451,
      "v": 50
    },
    {
      "midi": 64,
      "hit": false,
      "t": 66815.61600000157,
      "d": 94.69333333331451,
      "v": 70
    },
    {
      "midi": 59,
      "hit": false,
      "t": 66815.61600000157,
      "d": 416.65066666661005,
      "v": 115
    },
    {
      "midi": 56,
      "hit": false,
      "t": 66825.0853333349,
      "d": 416.65066666661005,
      "v": 115
    },
    {
      "midi": 47,
      "hit": false,
      "t": 66825.0853333349,
      "d": 416.65066666661005,
      "v": 115
    },
    {
      "midi": 40,
      "hit": false,
      "t": 66834.55466666822,
      "d": 416.65066666661005,
      "v": 115
    },
    {
      "midi": 83,
      "hit": false,
      "t": 66929.24800000155,
      "d": 85.22399999998743,
      "v": 80
    },
    {
      "midi": 28,
      "hit": false,
      "t": 66929.24800000155,
      "d": 94.69333333331451,
      "v": 127
    },
    {
      "midi": 42,
      "hit": false,
      "t": 66938.71733333488,
      "d": 94.69333333331451,
      "v": 78
    },
    {
      "midi": 80,
      "hit": false,
      "t": 67042.88000000152,
      "d": 85.22400000000198,
      "v": 80
    },
    {
      "midi": 28,
      "hit": false,
      "t": 67042.88000000152,
      "d": 94.69333333332906,
      "v": 127
    },
    {
      "midi": 15,
      "hit": false,
      "t": 67042.88000000152,
      "d": 94.69333333332906,
      "v": 100
    },
    {
      "midi": 13,
      "hit": false,
      "t": 67042.88000000152,
      "d": 94.69333333332906,
      "v": 100
    },
    {
      "midi": 10,
      "hit": false,
      "t": 67042.88000000152,
      "d": 94.69333333332906,
      "v": 127
    },
    {
      "midi": 118,
      "hit": false,
      "t": 67042.88000000152,
      "d": 94.69333333332906,
      "v": 50
    },
    {
      "midi": 65,
      "hit": false,
      "t": 67042.88000000152,
      "d": 208.3253333333123,
      "v": 127
    },
    {
      "midi": 46,
      "hit": false,
      "t": 67061.81866666819,
      "d": 94.69333333332906,
      "v": 92
    },
    {
      "midi": 76,
      "hit": false,
      "t": 67156.51200000152,
      "d": 85.22399999998743,
      "v": 80
    },
    {
      "midi": 118,
      "hit": false,
      "t": 67156.51200000152,
      "d": 94.69333333331451,
      "v": 30
    },
    {
      "midi": 89,
      "hit": false,
      "t": 67270.14400000148,
      "d": 85.22399999997288,
      "v": 80
    },
    {
      "midi": 29,
      "hit": false,
      "t": 67270.14400000148,
      "d": 94.69333333329996,
      "v": 127
    },
    {
      "midi": 15,
      "hit": false,
      "t": 67270.14400000148,
      "d": 94.69333333329996,
      "v": 100
    },
    {
      "midi": 13,
      "hit": false,
      "t": 67270.14400000148,
      "d": 94.69333333329996,
      "v": 100
    },
    {
      "midi": 10,
      "hit": false,
      "t": 67270.14400000148,
      "d": 94.69333333329996,
      "v": 127
    },
    {
      "midi": 42,
      "hit": false,
      "t": 67270.14400000148,
      "d": 94.69333333329996,
      "v": 92
    },
    {
      "midi": 69,
      "hit": false,
      "t": 67270.14400000148,
      "d": 94.69333333329996,
      "v": 107
    },
    {
      "midi": 67,
      "hit": false,
      "t": 67270.14400000148,
      "d": 426.1199999998644,
      "v": 127
    },
    {
      "midi": 84,
      "hit": false,
      "t": 67270.14400000148,
      "d": 1571.9093333328783,
      "v": 100
    },
    {
      "midi": 103,
      "hit": false,
      "t": 67270.14400000148,
      "d": 1799.1733333327284,
      "v": 90
    },
    {
      "midi": 91,
      "hit": false,
      "t": 67270.14400000148,
      "d": 1799.1733333327284,
      "v": 117
    },
    {
      "midi": 65,
      "hit": false,
      "t": 67279.61333333481,
      "d": 9.469333333327086,
      "v": 80
    },
    {
      "midi": 57,
      "hit": false,
      "t": 67279.61333333481,
      "d": 28.407999999981257,
      "v": 115
    },
    {
      "midi": 52,
      "hit": false,
      "t": 67279.61333333481,
      "d": 416.6506666665373,
      "v": 115
    },
    {
      "midi": 60,
      "hit": false,
      "t": 67289.08266666814,
      "d": 9.469333333327086,
      "v": 80
    },
    {
      "midi": 48,
      "hit": false,
      "t": 67289.08266666814,
      "d": 416.6506666665373,
      "v": 115
    },
    {
      "midi": 41,
      "hit": false,
      "t": 67289.08266666814,
      "d": 416.6506666665373,
      "v": 115
    },
    {
      "midi": 57,
      "hit": false,
      "t": 67374.30666666811,
      "d": 28.407999999981257,
      "v": 80
    },
    {
      "midi": 60,
      "hit": false,
      "t": 67383.77600000144,
      "d": 28.407999999981257,
      "v": 80
    },
    {
      "midi": 86,
      "hit": false,
      "t": 67383.77600000144,
      "d": 85.22399999997288,
      "v": 80
    },
    {
      "midi": 29,
      "hit": false,
      "t": 67383.77600000144,
      "d": 94.69333333329996,
      "v": 127
    },
    {
      "midi": 65,
      "hit": false,
      "t": 67393.24533333477,
      "d": 28.407999999981257,
      "v": 80
    },
    {
      "midi": 42,
      "hit": false,
      "t": 67393.24533333477,
      "d": 94.69333333329996,
      "v": 78
    },
    {
      "midi": 69,
      "hit": false,
      "t": 67402.7146666681,
      "d": 94.69333333329996,
      "v": 80
    },
    {
      "midi": 81,
      "hit": false,
      "t": 67497.4080000014,
      "d": 85.22400000000198,
      "v": 80
    },
    {
      "midi": 29,
      "hit": false,
      "t": 67497.4080000014,
      "d": 94.69333333332906,
      "v": 127
    },
    {
      "midi": 46,
      "hit": false,
      "t": 67516.34666666806,
      "d": 94.69333333331451,
      "v": 92
    },
    {
      "midi": 77,
      "hit": false,
      "t": 67611.04000000138,
      "d": 85.22399999997288,
      "v": 80
    },
    {
      "midi": 29,
      "hit": false,
      "t": 67611.04000000138,
      "d": 94.69333333329996,
      "v": 127
    },
    {
      "midi": 69,
      "hit": false,
      "t": 67611.04000000138,
      "d": 94.69333333329996,
      "v": 80
    },
    {
      "midi": 64,
      "hit": false,
      "t": 67611.04000000138,
      "d": 94.69333333329996,
      "v": 70
    },
    {
      "midi": 65,
      "hit": false,
      "t": 67620.5093333347,
      "d": 9.469333333327086,
      "v": 80
    },
    {
      "midi": 57,
      "hit": false,
      "t": 67620.5093333347,
      "d": 28.407999999981257,
      "v": 80
    },
    {
      "midi": 60,
      "hit": false,
      "t": 67629.97866666803,
      "d": 9.469333333327086,
      "v": 80
    },
    {
      "midi": 60,
      "hit": false,
      "t": 67715.202666668,
      "d": 9.469333333327086,
      "v": 105
    },
    {
      "midi": 60,
      "hit": false,
      "t": 67724.67200000133,
      "d": 28.407999999981257,
      "v": 115
    },
    {
      "midi": 74,
      "hit": false,
      "t": 67724.67200000133,
      "d": 85.22399999997288,
      "v": 80
    },
    {
      "midi": 29,
      "hit": false,
      "t": 67724.67200000133,
      "d": 94.69333333329996,
      "v": 127
    },
    {
      "midi": 15,
      "hit": false,
      "t": 67724.67200000133,
      "d": 94.69333333329996,
      "v": 100
    },
    {
      "midi": 13,
      "hit": false,
      "t": 67724.67200000133,
      "d": 94.69333333329996,
      "v": 100
    },
    {
      "midi": 10,
      "hit": false,
      "t": 67724.67200000133,
      "d": 94.69333333329996,
      "v": 127
    },
    {
      "midi": 127,
      "hit": false,
      "t": 67724.67200000133,
      "d": 94.69333333329996,
      "v": 60
    },
    {
      "midi": 108,
      "hit": false,
      "t": 67724.67200000133,
      "d": 94.69333333329996,
      "v": 80
    },
    {
      "midi": 105,
      "hit": false,
      "t": 67724.67200000133,
      "d": 94.69333333329996,
      "v": 100
    },
    {
      "midi": 42,
      "hit": false,
      "t": 67724.67200000133,
      "d": 94.69333333329996,
      "v": 92
    },
    {
      "midi": 118,
      "hit": false,
      "t": 67724.67200000133,
      "d": 94.69333333329996,
      "v": 50
    },
    {
      "midi": 63,
      "hit": false,
      "t": 67724.67200000133,
      "d": 94.69333333329996,
      "v": 70
    },
    {
      "midi": 52,
      "hit": false,
      "t": 67724.67200000133,
      "d": 208.32533333326865,
      "v": 105
    },
    {
      "midi": 57,
      "hit": false,
      "t": 67734.14133333466,
      "d": 9.469333333327086,
      "v": 115
    },
    {
      "midi": 65,
      "hit": false,
      "t": 67734.14133333466,
      "d": 28.407999999981257,
      "v": 80
    },
    {
      "midi": 48,
      "hit": false,
      "t": 67734.14133333466,
      "d": 208.32533333326865,
      "v": 105
    },
    {
      "midi": 41,
      "hit": false,
      "t": 67734.14133333466,
      "d": 208.32533333326865,
      "v": 105
    },
    {
      "midi": 69,
      "hit": false,
      "t": 67743.61066666798,
      "d": 94.69333333329996,
      "v": 80
    },
    {
      "midi": 69,
      "hit": false,
      "t": 67838.30400000128,
      "d": 85.22399999998743,
      "v": 80
    },
    {
      "midi": 42,
      "hit": false,
      "t": 67847.77333333461,
      "d": 94.69333333331451,
      "v": 78
    },
    {
      "midi": 41,
      "hit": false,
      "t": 67951.93600000125,
      "d": 85.22399999997288,
      "v": 95
    },
    {
      "midi": 48,
      "hit": false,
      "t": 67951.93600000125,
      "d": 85.22399999997288,
      "v": 95
    },
    {
      "midi": 29,
      "hit": false,
      "t": 67951.93600000125,
      "d": 94.69333333329996,
      "v": 127
    },
    {
      "midi": 69,
      "hit": false,
      "t": 67951.93600000125,
      "d": 94.69333333329996,
      "v": 80
    },
    {
      "midi": 64,
      "hit": false,
      "t": 67951.93600000125,
      "d": 303.0186666665686,
      "v": 127
    },
    {
      "midi": 65,
      "hit": false,
      "t": 67961.40533333458,
      "d": 9.469333333327086,
      "v": 80
    },
    {
      "midi": 57,
      "hit": false,
      "t": 67961.40533333458,
      "d": 28.407999999981257,
      "v": 95
    },
    {
      "midi": 52,
      "hit": false,
      "t": 67961.40533333458,
      "d": 85.22399999997288,
      "v": 95
    },
    {
      "midi": 60,
      "hit": false,
      "t": 67970.8746666679,
      "d": 9.469333333327086,
      "v": 95
    },
    {
      "midi": 65,
      "hit": false,
      "t": 67970.8746666679,
      "d": 66.2853333333187,
      "v": 95
    },
    {
      "midi": 46,
      "hit": false,
      "t": 67970.8746666679,
      "d": 94.69333333329996,
      "v": 92
    },
    {
      "midi": 60,
      "hit": false,
      "t": 68056.09866666788,
      "d": 9.469333333327086,
      "v": 100
    },
    {
      "midi": 65,
      "hit": false,
      "t": 68056.09866666788,
      "d": 9.469333333327086,
      "v": 100
    },
    {
      "midi": 60,
      "hit": false,
      "t": 68065.5680000012,
      "d": 28.407999999981257,
      "v": 95
    },
    {
      "midi": 118,
      "hit": false,
      "t": 68065.5680000012,
      "d": 94.69333333329996,
      "v": 50
    },
    {
      "midi": 57,
      "hit": false,
      "t": 68075.03733333453,
      "d": 9.469333333327086,
      "v": 95
    },
    {
      "midi": 65,
      "hit": false,
      "t": 68075.03733333453,
      "d": 28.407999999981257,
      "v": 80
    },
    {
      "midi": 52,
      "hit": false,
      "t": 68075.03733333453,
      "d": 85.22399999997288,
      "v": 95
    },
    {
      "midi": 69,
      "hit": false,
      "t": 68084.50666666786,
      "d": 66.2853333333187,
      "v": 80
    },
    {
      "midi": 48,
      "hit": false,
      "t": 68084.50666666786,
      "d": 85.22399999997288,
      "v": 95
    },
    {
      "midi": 41,
      "hit": false,
      "t": 68084.50666666786,
      "d": 85.22399999997288,
      "v": 95
    },
    {
      "midi": 48,
      "hit": false,
      "t": 68169.73066666783,
      "d": 9.469333333327086,
      "v": 90
    },
    {
      "midi": 41,
      "hit": false,
      "t": 68169.73066666783,
      "d": 9.469333333327086,
      "v": 90
    },
    {
      "midi": 41,
      "hit": false,
      "t": 68179.20000000116,
      "d": 85.22399999998743,
      "v": 95
    },
    {
      "midi": 48,
      "hit": false,
      "t": 68179.20000000116,
      "d": 85.22399999998743,
      "v": 95
    },
    {
      "midi": 74,
      "hit": false,
      "t": 68179.20000000116,
      "d": 85.22399999998743,
      "v": 80
    },
    {
      "midi": 29,
      "hit": false,
      "t": 68179.20000000116,
      "d": 94.69333333331451,
      "v": 127
    },
    {
      "midi": 15,
      "hit": false,
      "t": 68179.20000000116,
      "d": 94.69333333331451,
      "v": 100
    },
    {
      "midi": 13,
      "hit": false,
      "t": 68179.20000000116,
      "d": 94.69333333331451,
      "v": 100
    },
    {
      "midi": 10,
      "hit": false,
      "t": 68179.20000000116,
      "d": 94.69333333331451,
      "v": 127
    },
    {
      "midi": 42,
      "hit": false,
      "t": 68179.20000000116,
      "d": 94.69333333331451,
      "v": 92
    },
    {
      "midi": 52,
      "hit": false,
      "t": 68188.66933333449,
      "d": 85.22399999998743,
      "v": 95
    },
    {
      "midi": 57,
      "hit": false,
      "t": 68188.66933333449,
      "d": 85.22399999998743,
      "v": 95
    },
    {
      "midi": 60,
      "hit": false,
      "t": 68198.13866666782,
      "d": 85.22399999998743,
      "v": 95
    },
    {
      "midi": 65,
      "hit": false,
      "t": 68198.13866666782,
      "d": 85.22399999998743,
      "v": 95
    },
    {
      "midi": 60,
      "hit": false,
      "t": 68283.3626666678,
      "d": 9.469333333327086,
      "v": 90
    },
    {
      "midi": 65,
      "hit": false,
      "t": 68283.3626666678,
      "d": 9.469333333327086,
      "v": 90
    },
    {
      "midi": 65,
      "hit": false,
      "t": 68292.83200000113,
      "d": 85.22399999998743,
      "v": 95
    },
    {
      "midi": 60,
      "hit": false,
      "t": 68292.83200000113,
      "d": 85.22399999998743,
      "v": 95
    },
    {
      "midi": 77,
      "hit": false,
      "t": 68292.83200000113,
      "d": 85.22399999998743,
      "v": 80
    },
    {
      "midi": 118,
      "hit": false,
      "t": 68292.83200000113,
      "d": 94.69333333331451,
      "v": 50
    },
    {
      "midi": 57,
      "hit": false,
      "t": 68302.30133333446,
      "d": 85.22399999998743,
      "v": 95
    },
    {
      "midi": 52,
      "hit": false,
      "t": 68302.30133333446,
      "d": 85.22399999998743,
      "v": 95
    },
    {
      "midi": 42,
      "hit": false,
      "t": 68302.30133333446,
      "d": 94.69333333331451,
      "v": 78
    },
    {
      "midi": 48,
      "hit": false,
      "t": 68311.77066666778,
      "d": 85.22399999998743,
      "v": 95
    },
    {
      "midi": 41,
      "hit": false,
      "t": 68311.77066666778,
      "d": 85.22399999998743,
      "v": 95
    },
    {
      "midi": 48,
      "hit": false,
      "t": 68396.99466666777,
      "d": 9.469333333327086,
      "v": 105
    },
    {
      "midi": 41,
      "hit": false,
      "t": 68396.99466666777,
      "d": 9.469333333327086,
      "v": 105
    },
    {
      "midi": 81,
      "hit": false,
      "t": 68406.4640000011,
      "d": 85.22399999998743,
      "v": 80
    },
    {
      "midi": 29,
      "hit": false,
      "t": 68406.4640000011,
      "d": 94.69333333331451,
      "v": 127
    },
    {
      "midi": 118,
      "hit": false,
      "t": 68406.4640000011,
      "d": 94.69333333331451,
      "v": 30
    },
    {
      "midi": 41,
      "hit": false,
      "t": 68406.4640000011,
      "d": 198.85599999998522,
      "v": 115
    },
    {
      "midi": 48,
      "hit": false,
      "t": 68406.4640000011,
      "d": 198.85599999998522,
      "v": 115
    },
    {
      "midi": 52,
      "hit": false,
      "t": 68415.93333333443,
      "d": 198.85599999998522,
      "v": 115
    },
    {
      "midi": 57,
      "hit": false,
      "t": 68415.93333333443,
      "d": 198.85599999998522,
      "v": 115
    },
    {
      "midi": 46,
      "hit": false,
      "t": 68425.40266666775,
      "d": 94.69333333332906,
      "v": 92
    },
    {
      "midi": 60,
      "hit": false,
      "t": 68425.40266666775,
      "d": 198.85599999998522,
      "v": 115
    },
    {
      "midi": 65,
      "hit": false,
      "t": 68425.40266666775,
      "d": 198.85599999998522,
      "v": 115
    },
    {
      "midi": 86,
      "hit": false,
      "t": 68520.09600000108,
      "d": 85.22400000000198,
      "v": 80
    },
    {
      "midi": 63,
      "hit": false,
      "t": 68520.09600000108,
      "d": 94.69333333332906,
      "v": 80
    },
    {
      "midi": 60,
      "hit": false,
      "t": 68624.25866666774,
      "d": 9.469333333327086,
      "v": 100
    },
    {
      "midi": 65,
      "hit": false,
      "t": 68624.25866666774,
      "d": 9.469333333327086,
      "v": 100
    },
    {
      "midi": 89,
      "hit": false,
      "t": 68633.72800000107,
      "d": 85.22399999998743,
      "v": 80
    },
    {
      "midi": 29,
      "hit": false,
      "t": 68633.72800000107,
      "d": 94.69333333331451,
      "v": 127
    },
    {
      "midi": 15,
      "hit": false,
      "t": 68633.72800000107,
      "d": 94.69333333331451,
      "v": 100
    },
    {
      "midi": 13,
      "hit": false,
      "t": 68633.72800000107,
      "d": 94.69333333331451,
      "v": 100
    },
    {
      "midi": 10,
      "hit": false,
      "t": 68633.72800000107,
      "d": 94.69333333331451,
      "v": 127
    },
    {
      "midi": 127,
      "hit": false,
      "t": 68633.72800000107,
      "d": 94.69333333331451,
      "v": 60
    },
    {
      "midi": 108,
      "hit": false,
      "t": 68633.72800000107,
      "d": 94.69333333331451,
      "v": 80
    },
    {
      "midi": 105,
      "hit": false,
      "t": 68633.72800000107,
      "d": 94.69333333331451,
      "v": 100
    },
    {
      "midi": 42,
      "hit": false,
      "t": 68633.72800000107,
      "d": 94.69333333331451,
      "v": 92
    },
    {
      "midi": 118,
      "hit": false,
      "t": 68633.72800000107,
      "d": 94.69333333331451,
      "v": 50
    },
    {
      "midi": 64,
      "hit": false,
      "t": 68633.72800000107,
      "d": 94.69333333331451,
      "v": 70
    },
    {
      "midi": 65,
      "hit": false,
      "t": 68633.72800000107,
      "d": 198.85599999997066,
      "v": 115
    },
    {
      "midi": 60,
      "hit": false,
      "t": 68633.72800000107,
      "d": 198.85599999997066,
      "v": 115
    },
    {
      "midi": 57,
      "hit": false,
      "t": 68643.19733333439,
      "d": 198.85599999997066,
      "v": 115
    },
    {
      "midi": 52,
      "hit": false,
      "t": 68643.19733333439,
      "d": 198.85599999997066,
      "v": 115
    },
    {
      "midi": 48,
      "hit": false,
      "t": 68652.66666666772,
      "d": 198.85599999997066,
      "v": 115
    },
    {
      "midi": 41,
      "hit": false,
      "t": 68652.66666666772,
      "d": 198.85599999997066,
      "v": 115
    },
    {
      "midi": 93,
      "hit": false,
      "t": 68747.36000000105,
      "d": 85.22399999998743,
      "v": 80
    },
    {
      "midi": 29,
      "hit": false,
      "t": 68747.36000000105,
      "d": 94.69333333331451,
      "v": 127
    },
    {
      "midi": 42,
      "hit": false,
      "t": 68756.82933333438,
      "d": 94.69333333331451,
      "v": 78
    },
    {
      "midi": 41,
      "hit": false,
      "t": 68851.52266666769,
      "d": 94.69333333327086,
      "v": 90
    },
    {
      "midi": 47,
      "hit": false,
      "t": 68860.99200000102,
      "d": 18.93866666665417,
      "v": 64
    },
    {
      "midi": 98,
      "hit": false,
      "t": 68860.99200000102,
      "d": 85.22399999994377,
      "v": 80
    },
    {
      "midi": 29,
      "hit": false,
      "t": 68860.99200000102,
      "d": 94.69333333327086,
      "v": 127
    },
    {
      "midi": 83,
      "hit": false,
      "t": 68860.99200000102,
      "d": 94.69333333327086,
      "v": 110
    },
    {
      "midi": 57,
      "hit": false,
      "t": 68860.99200000102,
      "d": 94.69333333327086,
      "v": 90
    },
    {
      "midi": 118,
      "hit": false,
      "t": 68860.99200000102,
      "d": 94.69333333327086,
      "v": 50
    },
    {
      "midi": 48,
      "hit": false,
      "t": 68870.46133333434,
      "d": 18.93866666665417,
      "v": 64
    },
    {
      "midi": 60,
      "hit": false,
      "t": 68870.46133333434,
      "d": 94.69333333327086,
      "v": 90
    },
    {
      "midi": 65,
      "hit": false,
      "t": 68870.46133333434,
      "d": 94.69333333327086,
      "v": 90
    },
    {
      "midi": 49,
      "hit": false,
      "t": 68879.93066666767,
      "d": 18.93866666665417,
      "v": 64
    },
    {
      "midi": 46,
      "hit": false,
      "t": 68879.93066666767,
      "d": 94.69333333327086,
      "v": 92
    },
    {
      "midi": 50,
      "hit": false,
      "t": 68889.400000001,
      "d": 18.93866666665417,
      "v": 64
    },
    {
      "midi": 51,
      "hit": false,
      "t": 68898.86933333433,
      "d": 18.93866666665417,
      "v": 64
    },
    {
      "midi": 52,
      "hit": false,
      "t": 68908.33866666765,
      "d": 18.93866666665417,
      "v": 64
    },
    {
      "midi": 53,
      "hit": false,
      "t": 68917.80800000098,
      "d": 18.93866666665417,
      "v": 64
    },
    {
      "midi": 54,
      "hit": false,
      "t": 68927.2773333343,
      "d": 18.93866666665417,
      "v": 64
    },
    {
      "midi": 55,
      "hit": false,
      "t": 68936.74666666763,
      "d": 18.93866666665417,
      "v": 64
    },
    {
      "midi": 56,
      "hit": false,
      "t": 68946.21600000096,
      "d": 18.93866666665417,
      "v": 64
    },
    {
      "midi": 57,
      "hit": false,
      "t": 68955.68533333429,
      "d": 18.93866666665417,
      "v": 64
    },
    {
      "midi": 58,
      "hit": false,
      "t": 68965.15466666761,
      "d": 18.93866666665417,
      "v": 64
    },
    {
      "midi": 59,
      "hit": false,
      "t": 68974.62400000094,
      "d": 18.93866666665417,
      "v": 64
    },
    {
      "midi": 101,
      "hit": false,
      "t": 68974.62400000094,
      "d": 85.22399999994377,
      "v": 80
    },
    {
      "midi": 57,
      "hit": false,
      "t": 68974.62400000094,
      "d": 94.69333333327086,
      "v": 100
    },
    {
      "midi": 52,
      "hit": false,
      "t": 68974.62400000094,
      "d": 94.69333333327086,
      "v": 100
    },
    {
      "midi": 29,
      "hit": false,
      "t": 68974.62400000094,
      "d": 94.69333333327086,
      "v": 127
    },
    {
      "midi": 84,
      "hit": false,
      "t": 68974.62400000094,
      "d": 94.69333333327086,
      "v": 110
    },
    {
      "midi": 118,
      "hit": false,
      "t": 68974.62400000094,
      "d": 94.69333333327086,
      "v": 30
    },
    {
      "midi": 60,
      "hit": false,
      "t": 68984.09333333427,
      "d": 18.93866666665417,
      "v": 64
    },
    {
      "midi": 48,
      "hit": false,
      "t": 68984.09333333427,
      "d": 94.69333333327086,
      "v": 100
    },
    {
      "midi": 41,
      "hit": false,
      "t": 68984.09333333427,
      "d": 94.69333333327086,
      "v": 100
    },
    {
      "midi": 61,
      "hit": false,
      "t": 68993.5626666676,
      "d": 18.93866666665417,
      "v": 64
    },
    {
      "midi": 62,
      "hit": false,
      "t": 69003.03200000092,
      "d": 18.93866666665417,
      "v": 64
    },
    {
      "midi": 63,
      "hit": false,
      "t": 69012.50133333425,
      "d": 18.93866666665417,
      "v": 64
    },
    {
      "midi": 64,
      "hit": false,
      "t": 69021.97066666758,
      "d": 18.93866666665417,
      "v": 64
    },
    {
      "midi": 65,
      "hit": false,
      "t": 69031.4400000009,
      "d": 18.93866666665417,
      "v": 64
    },
    {
      "midi": 66,
      "hit": false,
      "t": 69040.90933333423,
      "d": 18.93866666665417,
      "v": 64
    },
    {
      "midi": 67,
      "hit": false,
      "t": 69050.37866666756,
      "d": 18.93866666665417,
      "v": 64
    },
    {
      "midi": 68,
      "hit": false,
      "t": 69059.84800000089,
      "d": 18.93866666665417,
      "v": 64
    },
    {
      "midi": 69,
      "hit": false,
      "t": 69069.31733333421,
      "d": 18.93866666665417,
      "v": 64
    },
    {
      "midi": 70,
      "hit": false,
      "t": 69078.78666666754,
      "d": 18.93866666665417,
      "v": 64
    },
    {
      "midi": 103,
      "hit": false,
      "t": 69088.25600000087,
      "d": 85.22399999998743,
      "v": 90
    },
    {
      "midi": 15,
      "hit": false,
      "t": 69088.25600000087,
      "d": 94.69333333331451,
      "v": 100
    },
    {
      "midi": 13,
      "hit": false,
      "t": 69088.25600000087,
      "d": 94.69333333331451,
      "v": 100
    },
    {
      "midi": 10,
      "hit": false,
      "t": 69088.25600000087,
      "d": 94.69333333331451,
      "v": 127
    },
    {
      "midi": 127,
      "hit": false,
      "t": 69088.25600000087,
      "d": 94.69333333331451,
      "v": 60
    },
    {
      "midi": 108,
      "hit": false,
      "t": 69088.25600000087,
      "d": 94.69333333331451,
      "v": 80
    },
    {
      "midi": 105,
      "hit": false,
      "t": 69088.25600000087,
      "d": 94.69333333331451,
      "v": 100
    },
    {
      "midi": 42,
      "hit": false,
      "t": 69088.25600000087,
      "d": 94.69333333331451,
      "v": 92
    },
    {
      "midi": 31,
      "hit": false,
      "t": 69088.25600000087,
      "d": 321.957333333281,
      "v": 127
    },
    {
      "midi": 62,
      "hit": false,
      "t": 69088.25600000087,
      "d": 321.957333333281,
      "v": 80
    },
    {
      "midi": 70,
      "hit": false,
      "t": 69097.7253333342,
      "d": 9.469333333327086,
      "v": 64
    },
    {
      "midi": 79,
      "hit": false,
      "t": 69097.7253333342,
      "d": 284.07999999997264,
      "v": 117
    },
    {
      "midi": 74,
      "hit": false,
      "t": 69097.7253333342,
      "d": 284.07999999997264,
      "v": 117
    },
    {
      "midi": 71,
      "hit": false,
      "t": 69097.7253333342,
      "d": 284.07999999997264,
      "v": 117
    },
    {
      "midi": 67,
      "hit": false,
      "t": 69097.7253333342,
      "d": 284.07999999997264,
      "v": 80
    },
    {
      "midi": 59,
      "hit": false,
      "t": 69097.7253333342,
      "d": 321.957333333281,
      "v": 80
    },
    {
      "midi": 50,
      "hit": false,
      "t": 69097.7253333342,
      "d": 321.957333333281,
      "v": 110
    },
    {
      "midi": 43,
      "hit": false,
      "t": 69107.19466666752,
      "d": 321.957333333281,
      "v": 110
    },
    {
      "midi": 98,
      "hit": false,
      "t": 69201.88800000085,
      "d": 85.22399999998743,
      "v": 80
    },
    {
      "midi": 42,
      "hit": false,
      "t": 69211.35733333418,
      "d": 94.69333333332906,
      "v": 78
    },
    {
      "midi": 95,
      "hit": false,
      "t": 69315.52000000083,
      "d": 85.22399999998743,
      "v": 80
    },
    {
      "midi": 46,
      "hit": false,
      "t": 69334.4586666675,
      "d": 94.69333333329996,
      "v": 92
    },
    {
      "midi": 91,
      "hit": false,
      "t": 69429.1520000008,
      "d": 85.22399999998743,
      "v": 80
    },
    {
      "midi": 127,
      "hit": false,
      "t": 69429.1520000008,
      "d": 94.69333333331451,
      "v": 60
    },
    {
      "midi": 108,
      "hit": false,
      "t": 69429.1520000008,
      "d": 94.69333333331451,
      "v": 80
    },
    {
      "midi": 105,
      "hit": false,
      "t": 69429.1520000008,
      "d": 94.69333333331451,
      "v": 100
    },
    {
      "midi": 126,
      "hit": false,
      "t": 69429.1520000008,
      "d": 94.69333333331451,
      "v": 120
    },
    {
      "midi": 31,
      "hit": false,
      "t": 69429.1520000008,
      "d": 321.95733333329554,
      "v": 127
    },
    {
      "midi": 43,
      "hit": false,
      "t": 69429.1520000008,
      "d": 321.95733333329554,
      "v": 100
    },
    {
      "midi": 50,
      "hit": false,
      "t": 69429.1520000008,
      "d": 321.95733333329554,
      "v": 100
    },
    {
      "midi": 83,
      "hit": false,
      "t": 69429.1520000008,
      "d": 321.95733333329554,
      "v": 116
    },
    {
      "midi": 79,
      "hit": false,
      "t": 69438.62133333413,
      "d": 284.07999999997264,
      "v": 117
    },
    {
      "midi": 74,
      "hit": false,
      "t": 69438.62133333413,
      "d": 284.07999999997264,
      "v": 117
    },
    {
      "midi": 59,
      "hit": false,
      "t": 69438.62133333413,
      "d": 303.01866666664137,
      "v": 100
    },
    {
      "midi": 62,
      "hit": false,
      "t": 69438.62133333413,
      "d": 312.48799999996845,
      "v": 100
    },
    {
      "midi": 71,
      "hit": false,
      "t": 69448.09066666746,
      "d": 274.61066666664556,
      "v": 80
    },
    {
      "midi": 67,
      "hit": false,
      "t": 69448.09066666746,
      "d": 274.61066666664556,
      "v": 100
    },
    {
      "midi": 95,
      "hit": false,
      "t": 69542.78400000079,
      "d": 85.22400000000198,
      "v": 80
    },
    {
      "midi": 15,
      "hit": false,
      "t": 69542.78400000079,
      "d": 94.69333333332906,
      "v": 100
    },
    {
      "midi": 13,
      "hit": false,
      "t": 69542.78400000079,
      "d": 94.69333333332906,
      "v": 100
    },
    {
      "midi": 10,
      "hit": false,
      "t": 69542.78400000079,
      "d": 94.69333333332906,
      "v": 127
    },
    {
      "midi": 42,
      "hit": false,
      "t": 69542.78400000079,
      "d": 94.69333333332906,
      "v": 92
    },
    {
      "midi": 118,
      "hit": false,
      "t": 69542.78400000079,
      "d": 94.69333333332906,
      "v": 50
    },
    {
      "midi": 91,
      "hit": false,
      "t": 69656.41600000078,
      "d": 85.22399999998743,
      "v": 80
    },
    {
      "midi": 42,
      "hit": false,
      "t": 69665.88533333411,
      "d": 94.69333333331451,
      "v": 78
    },
    {
      "midi": 67,
      "hit": false,
      "t": 69760.57866666742,
      "d": 9.469333333327086,
      "v": 80
    },
    {
      "midi": 83,
      "hit": false,
      "t": 69770.04800000075,
      "d": 85.22399999998743,
      "v": 80
    },
    {
      "midi": 127,
      "hit": false,
      "t": 69770.04800000075,
      "d": 94.69333333331451,
      "v": 60
    },
    {
      "midi": 108,
      "hit": false,
      "t": 69770.04800000075,
      "d": 94.69333333331451,
      "v": 80
    },
    {
      "midi": 105,
      "hit": false,
      "t": 69770.04800000075,
      "d": 94.69333333331451,
      "v": 100
    },
    {
      "midi": 86,
      "hit": false,
      "t": 69770.04800000075,
      "d": 189.38666666664358,
      "v": 116
    },
    {
      "midi": 31,
      "hit": false,
      "t": 69770.04800000075,
      "d": 208.32533333329775,
      "v": 127
    },
    {
      "midi": 67,
      "hit": false,
      "t": 69779.51733333408,
      "d": 189.38666666664358,
      "v": 80
    },
    {
      "midi": 71,
      "hit": false,
      "t": 69779.51733333408,
      "d": 198.85599999997066,
      "v": 117
    },
    {
      "midi": 59,
      "hit": false,
      "t": 69779.51733333408,
      "d": 208.32533333329775,
      "v": 80
    },
    {
      "midi": 50,
      "hit": false,
      "t": 69779.51733333408,
      "d": 208.32533333329775,
      "v": 100
    },
    {
      "midi": 74,
      "hit": false,
      "t": 69779.51733333408,
      "d": 227.26399999995192,
      "v": 117
    },
    {
      "midi": 46,
      "hit": false,
      "t": 69788.9866666674,
      "d": 94.69333333332906,
      "v": 92
    },
    {
      "midi": 62,
      "hit": false,
      "t": 69788.9866666674,
      "d": 189.38666666664358,
      "v": 80
    },
    {
      "midi": 43,
      "hit": false,
      "t": 69788.9866666674,
      "d": 208.32533333329775,
      "v": 100
    },
    {
      "midi": 79,
      "hit": false,
      "t": 69883.68000000074,
      "d": 85.22399999998743,
      "v": 80
    },
    {
      "midi": 118,
      "hit": false,
      "t": 69883.68000000074,
      "d": 94.69333333331451,
      "v": 50
    },
    {
      "midi": 31,
      "hit": false,
      "t": 69997.3120000007,
      "d": 94.69333333332906,
      "v": 127
    },
    {
      "midi": 15,
      "hit": false,
      "t": 69997.3120000007,
      "d": 94.69333333332906,
      "v": 100
    },
    {
      "midi": 13,
      "hit": false,
      "t": 69997.3120000007,
      "d": 94.69333333332906,
      "v": 100
    },
    {
      "midi": 10,
      "hit": false,
      "t": 69997.3120000007,
      "d": 94.69333333332906,
      "v": 127
    },
    {
      "midi": 42,
      "hit": false,
      "t": 69997.3120000007,
      "d": 94.69333333332906,
      "v": 92
    },
    {
      "midi": 55,
      "hit": false,
      "t": 69997.3120000007,
      "d": 113.63199999999779,
      "v": 70
    },
    {
      "midi": 33,
      "hit": false,
      "t": 70110.9440000007,
      "d": 94.69333333332906,
      "v": 127
    },
    {
      "midi": 57,
      "hit": false,
      "t": 70110.9440000007,
      "d": 113.63199999998324,
      "v": 70
    },
    {
      "midi": 42,
      "hit": false,
      "t": 70120.41333333403,
      "d": 94.69333333332906,
      "v": 78
    },
    {
      "midi": 35,
      "hit": false,
      "t": 70224.57600000068,
      "d": 94.69333333331451,
      "v": 127
    },
    {
      "midi": 48,
      "hit": false,
      "t": 70224.57600000068,
      "d": 94.69333333331451,
      "v": 127
    },
    {
      "midi": 59,
      "hit": false,
      "t": 70224.57600000068,
      "d": 113.63199999998324,
      "v": 70
    },
    {
      "midi": 46,
      "hit": false,
      "t": 70243.51466666734,
      "d": 94.69333333332906,
      "v": 92
    },
    {
      "midi": 36,
      "hit": false,
      "t": 70338.20800000067,
      "d": 94.69333333331451,
      "v": 127
    },
    {
      "midi": 60,
      "hit": false,
      "t": 70338.20800000067,
      "d": 113.63199999996868,
      "v": 70
    },
    {
      "midi": 38,
      "hit": false,
      "t": 70451.84000000064,
      "d": 94.69333333332906,
      "v": 127
    },
    {
      "midi": 15,
      "hit": false,
      "t": 70451.84000000064,
      "d": 94.69333333332906,
      "v": 100
    },
    {
      "midi": 45,
      "hit": false,
      "t": 70451.84000000064,
      "d": 94.69333333332906,
      "v": 127
    },
    {
      "midi": 13,
      "hit": false,
      "t": 70451.84000000064,
      "d": 94.69333333332906,
      "v": 100
    },
    {
      "midi": 10,
      "hit": false,
      "t": 70451.84000000064,
      "d": 94.69333333332906,
      "v": 127
    },
    {
      "midi": 42,
      "hit": false,
      "t": 70451.84000000064,
      "d": 94.69333333332906,
      "v": 92
    },
    {
      "midi": 62,
      "hit": false,
      "t": 70451.84000000064,
      "d": 113.63199999999779,
      "v": 70
    },
    {
      "midi": 40,
      "hit": false,
      "t": 70565.47200000063,
      "d": 94.69333333332906,
      "v": 127
    },
    {
      "midi": 43,
      "hit": false,
      "t": 70565.47200000063,
      "d": 94.69333333332906,
      "v": 127
    },
    {
      "midi": 64,
      "hit": false,
      "t": 70565.47200000063,
      "d": 113.63199999998324,
      "v": 70
    },
    {
      "midi": 42,
      "hit": false,
      "t": 70574.94133333396,
      "d": 94.69333333332906,
      "v": 78
    },
    {
      "midi": 41,
      "hit": false,
      "t": 70679.10400000062,
      "d": 94.69333333332906,
      "v": 127
    },
    {
      "midi": 65,
      "hit": false,
      "t": 70679.10400000062,
      "d": 113.63199999999779,
      "v": 70
    },
    {
      "midi": 46,
      "hit": false,
      "t": 70698.04266666727,
      "d": 94.69333333334362,
      "v": 92
    },
    {
      "midi": 43,
      "hit": false,
      "t": 70792.73600000062,
      "d": 94.69333333331451,
      "v": 127
    },
    {
      "midi": 67,
      "hit": false,
      "t": 70792.73600000062,
      "d": 113.63199999996868,
      "v": 70
    },
    {
      "midi": 60,
      "hit": false,
      "t": 70906.36800000058,
      "d": 66.28533333333326,
      "v": 110
    },
    {
      "midi": 24,
      "hit": false,
      "t": 70906.36800000058,
      "d": 94.69333333332906,
      "v": 127
    },
    {
      "midi": 15,
      "hit": false,
      "t": 70906.36800000058,
      "d": 94.69333333332906,
      "v": 100
    },
    {
      "midi": 13,
      "hit": false,
      "t": 70906.36800000058,
      "d": 94.69333333332906,
      "v": 100
    },
    {
      "midi": 10,
      "hit": false,
      "t": 70906.36800000058,
      "d": 94.69333333332906,
      "v": 127
    },
    {
      "midi": 42,
      "hit": false,
      "t": 70906.36800000058,
      "d": 94.69333333332906,
      "v": 92
    },
    {
      "midi": 57,
      "hit": false,
      "t": 70906.36800000058,
      "d": 909.0559999998222,
      "v": 80
    },
    {
      "midi": 60,
      "hit": false,
      "t": 71010.53066666724,
      "d": 75.75466666666034,
      "v": 100
    },
    {
      "midi": 24,
      "hit": false,
      "t": 71020.00000000057,
      "d": 94.69333333332906,
      "v": 127
    },
    {
      "midi": 64,
      "hit": false,
      "t": 71020.00000000057,
      "d": 94.69333333332906,
      "v": 110
    },
    {
      "midi": 42,
      "hit": false,
      "t": 71029.4693333339,
      "d": 94.69333333332906,
      "v": 78
    },
    {
      "midi": 60,
      "hit": false,
      "t": 71124.16266666722,
      "d": 75.75466666666034,
      "v": 100
    },
    {
      "midi": 79,
      "hit": false,
      "t": 71124.16266666722,
      "d": 94.69333333332906,
      "v": 100
    },
    {
      "midi": 48,
      "hit": false,
      "t": 71133.63200000055,
      "d": 94.69333333332906,
      "v": 80
    },
    {
      "midi": 36,
      "hit": false,
      "t": 71133.63200000055,
      "d": 94.69333333332906,
      "v": 127
    },
    {
      "midi": 64,
      "hit": false,
      "t": 71133.63200000055,
      "d": 94.69333333332906,
      "v": 110
    },
    {
      "midi": 62,
      "hit": false,
      "t": 71133.63200000055,
      "d": 94.69333333332906,
      "v": 100
    },
    {
      "midi": 72,
      "hit": false,
      "t": 71133.63200000055,
      "d": 94.69333333332906,
      "v": 100
    },
    {
      "midi": 46,
      "hit": false,
      "t": 71152.57066666722,
      "d": 94.69333333331451,
      "v": 92
    },
    {
      "midi": 60,
      "hit": false,
      "t": 71237.7946666672,
      "d": 75.75466666664579,
      "v": 100
    },
    {
      "midi": 72,
      "hit": false,
      "t": 71237.7946666672,
      "d": 94.69333333331451,
      "v": 100
    },
    {
      "midi": 64,
      "hit": false,
      "t": 71247.26400000053,
      "d": 85.22399999998743,
      "v": 70
    },
    {
      "midi": 24,
      "hit": false,
      "t": 71247.26400000053,
      "d": 94.69333333331451,
      "v": 127
    },
    {
      "midi": 79,
      "hit": false,
      "t": 71247.26400000053,
      "d": 94.69333333331451,
      "v": 100
    },
    {
      "midi": 79,
      "hit": false,
      "t": 71351.42666666718,
      "d": 94.69333333332906,
      "v": 100
    },
    {
      "midi": 62,
      "hit": false,
      "t": 71360.8960000005,
      "d": 18.938666666668723,
      "v": 70
    },
    {
      "midi": 60,
      "hit": false,
      "t": 71360.8960000005,
      "d": 66.28533333333326,
      "v": 127
    },
    {
      "midi": 24,
      "hit": false,
      "t": 71360.8960000005,
      "d": 94.69333333332906,
      "v": 127
    },
    {
      "midi": 67,
      "hit": false,
      "t": 71360.8960000005,
      "d": 94.69333333332906,
      "v": 110
    },
    {
      "midi": 15,
      "hit": false,
      "t": 71360.8960000005,
      "d": 94.69333333332906,
      "v": 100
    },
    {
      "midi": 13,
      "hit": false,
      "t": 71360.8960000005,
      "d": 94.69333333332906,
      "v": 100
    },
    {
      "midi": 10,
      "hit": false,
      "t": 71360.8960000005,
      "d": 94.69333333332906,
      "v": 127
    },
    {
      "midi": 127,
      "hit": false,
      "t": 71360.8960000005,
      "d": 94.69333333332906,
      "v": 60
    },
    {
      "midi": 108,
      "hit": false,
      "t": 71360.8960000005,
      "d": 94.69333333332906,
      "v": 80
    },
    {
      "midi": 105,
      "hit": false,
      "t": 71360.8960000005,
      "d": 94.69333333332906,
      "v": 100
    },
    {
      "midi": 42,
      "hit": false,
      "t": 71360.8960000005,
      "d": 94.69333333332906,
      "v": 92
    },
    {
      "midi": 72,
      "hit": false,
      "t": 71360.8960000005,
      "d": 94.69333333332906,
      "v": 100
    },
    {
      "midi": 118,
      "hit": false,
      "t": 71360.8960000005,
      "d": 94.69333333332906,
      "v": 60
    },
    {
      "midi": 63,
      "hit": false,
      "t": 71360.8960000005,
      "d": 94.69333333332906,
      "v": 70
    },
    {
      "midi": 72,
      "hit": false,
      "t": 71465.05866666716,
      "d": 94.69333333332906,
      "v": 100
    },
    {
      "midi": 60,
      "hit": false,
      "t": 71474.52800000049,
      "d": 66.28533333333326,
      "v": 110
    },
    {
      "midi": 24,
      "hit": false,
      "t": 71474.52800000049,
      "d": 94.69333333332906,
      "v": 127
    },
    {
      "midi": 67,
      "hit": false,
      "t": 71474.52800000049,
      "d": 94.69333333332906,
      "v": 73
    },
    {
      "midi": 79,
      "hit": false,
      "t": 71474.52800000049,
      "d": 94.69333333332906,
      "v": 100
    },
    {
      "midi": 42,
      "hit": false,
      "t": 71483.99733333381,
      "d": 94.69333333332906,
      "v": 78
    },
    {
      "midi": 60,
      "hit": false,
      "t": 71578.69066666714,
      "d": 75.75466666666034,
      "v": 100
    },
    {
      "midi": 79,
      "hit": false,
      "t": 71578.69066666714,
      "d": 94.69333333331451,
      "v": 100
    },
    {
      "midi": 48,
      "hit": false,
      "t": 71588.16000000047,
      "d": 94.69333333331451,
      "v": 80
    },
    {
      "midi": 36,
      "hit": false,
      "t": 71588.16000000047,
      "d": 94.69333333331451,
      "v": 127
    },
    {
      "midi": 62,
      "hit": false,
      "t": 71588.16000000047,
      "d": 94.69333333331451,
      "v": 100
    },
    {
      "midi": 72,
      "hit": false,
      "t": 71588.16000000047,
      "d": 94.69333333331451,
      "v": 100
    },
    {
      "midi": 46,
      "hit": false,
      "t": 71607.09866666714,
      "d": 94.69333333329996,
      "v": 92
    },
    {
      "midi": 60,
      "hit": false,
      "t": 71692.32266666711,
      "d": 75.75466666664579,
      "v": 100
    },
    {
      "midi": 72,
      "hit": false,
      "t": 71692.32266666711,
      "d": 94.69333333331451,
      "v": 100
    },
    {
      "midi": 24,
      "hit": false,
      "t": 71701.79200000044,
      "d": 94.69333333331451,
      "v": 127
    },
    {
      "midi": 64,
      "hit": false,
      "t": 71701.79200000044,
      "d": 94.69333333331451,
      "v": 110
    },
    {
      "midi": 79,
      "hit": false,
      "t": 71701.79200000044,
      "d": 94.69333333331451,
      "v": 100
    },
    {
      "midi": 118,
      "hit": false,
      "t": 71701.79200000044,
      "d": 94.69333333331451,
      "v": 60
    },
    {
      "midi": 79,
      "hit": false,
      "t": 71805.95466666708,
      "d": 94.69333333332906,
      "v": 100
    },
    {
      "midi": 62,
      "hit": false,
      "t": 71815.4240000004,
      "d": 18.938666666668723,
      "v": 70
    },
    {
      "midi": 24,
      "hit": false,
      "t": 71815.4240000004,
      "d": 94.69333333332906,
      "v": 127
    },
    {
      "midi": 15,
      "hit": false,
      "t": 71815.4240000004,
      "d": 94.69333333332906,
      "v": 100
    },
    {
      "midi": 13,
      "hit": false,
      "t": 71815.4240000004,
      "d": 94.69333333332906,
      "v": 100
    },
    {
      "midi": 10,
      "hit": false,
      "t": 71815.4240000004,
      "d": 94.69333333332906,
      "v": 127
    },
    {
      "midi": 42,
      "hit": false,
      "t": 71815.4240000004,
      "d": 94.69333333332906,
      "v": 92
    },
    {
      "midi": 72,
      "hit": false,
      "t": 71815.4240000004,
      "d": 94.69333333332906,
      "v": 100
    },
    {
      "midi": 60,
      "hit": false,
      "t": 71919.58666666706,
      "d": 9.469333333327086,
      "v": 100
    },
    {
      "midi": 72,
      "hit": false,
      "t": 71919.58666666706,
      "d": 9.469333333327086,
      "v": 100
    },
    {
      "midi": 62,
      "hit": false,
      "t": 71929.05600000039,
      "d": 18.93866666665417,
      "v": 70
    },
    {
      "midi": 60,
      "hit": false,
      "t": 71929.05600000039,
      "d": 66.2853333333187,
      "v": 110
    },
    {
      "midi": 24,
      "hit": false,
      "t": 71929.05600000039,
      "d": 94.69333333331451,
      "v": 127
    },
    {
      "midi": 79,
      "hit": false,
      "t": 71929.05600000039,
      "d": 94.69333333331451,
      "v": 100
    },
    {
      "midi": 118,
      "hit": false,
      "t": 71929.05600000039,
      "d": 94.69333333331451,
      "v": 60
    },
    {
      "midi": 42,
      "hit": false,
      "t": 71938.52533333372,
      "d": 94.69333333331451,
      "v": 78
    },
    {
      "midi": 60,
      "hit": false,
      "t": 72033.21866666703,
      "d": 75.75466666666034,
      "v": 100
    },
    {
      "midi": 79,
      "hit": false,
      "t": 72033.21866666703,
      "d": 94.69333333331451,
      "v": 100
    },
    {
      "midi": 59,
      "hit": false,
      "t": 72042.68800000036,
      "d": 75.75466666666034,
      "v": 110
    },
    {
      "midi": 71,
      "hit": false,
      "t": 72042.68800000036,
      "d": 75.75466666666034,
      "v": 120
    },
    {
      "midi": 48,
      "hit": false,
      "t": 72042.68800000036,
      "d": 94.69333333331451,
      "v": 80
    },
    {
      "midi": 36,
      "hit": false,
      "t": 72042.68800000036,
      "d": 94.69333333331451,
      "v": 127
    },
    {
      "midi": 64,
      "hit": false,
      "t": 72042.68800000036,
      "d": 94.69333333331451,
      "v": 110
    },
    {
      "midi": 62,
      "hit": false,
      "t": 72042.68800000036,
      "d": 94.69333333331451,
      "v": 100
    },
    {
      "midi": 72,
      "hit": false,
      "t": 72042.68800000036,
      "d": 94.69333333331451,
      "v": 100
    },
    {
      "midi": 118,
      "hit": false,
      "t": 72042.68800000036,
      "d": 94.69333333331451,
      "v": 40
    },
    {
      "midi": 46,
      "hit": false,
      "t": 72061.62666666703,
      "d": 94.69333333329996,
      "v": 92
    },
    {
      "midi": 60,
      "hit": false,
      "t": 72146.850666667,
      "d": 75.75466666666034,
      "v": 100
    },
    {
      "midi": 62,
      "hit": false,
      "t": 72156.32000000033,
      "d": 85.22399999998743,
      "v": 110
    },
    {
      "midi": 24,
      "hit": false,
      "t": 72156.32000000033,
      "d": 94.69333333331451,
      "v": 127
    },
    {
      "midi": 63,
      "hit": false,
      "t": 72156.32000000033,
      "d": 94.69333333331451,
      "v": 80
    },
    {
      "midi": 79,
      "hit": false,
      "t": 72260.48266666697,
      "d": 94.69333333331451,
      "v": 100
    },
    {
      "midi": 62,
      "hit": false,
      "t": 72269.9520000003,
      "d": 18.938666666668723,
      "v": 70
    },
    {
      "midi": 60,
      "hit": false,
      "t": 72269.9520000003,
      "d": 66.28533333333326,
      "v": 110
    },
    {
      "midi": 72,
      "hit": false,
      "t": 72269.9520000003,
      "d": 75.75466666666034,
      "v": 100
    },
    {
      "midi": 24,
      "hit": false,
      "t": 72269.9520000003,
      "d": 94.69333333331451,
      "v": 127
    },
    {
      "midi": 15,
      "hit": false,
      "t": 72269.9520000003,
      "d": 94.69333333331451,
      "v": 100
    },
    {
      "midi": 13,
      "hit": false,
      "t": 72269.9520000003,
      "d": 94.69333333331451,
      "v": 100
    },
    {
      "midi": 10,
      "hit": false,
      "t": 72269.9520000003,
      "d": 94.69333333331451,
      "v": 127
    },
    {
      "midi": 127,
      "hit": false,
      "t": 72269.9520000003,
      "d": 94.69333333331451,
      "v": 60
    },
    {
      "midi": 108,
      "hit": false,
      "t": 72269.9520000003,
      "d": 94.69333333331451,
      "v": 80
    },
    {
      "midi": 105,
      "hit": false,
      "t": 72269.9520000003,
      "d": 94.69333333331451,
      "v": 100
    },
    {
      "midi": 42,
      "hit": false,
      "t": 72269.9520000003,
      "d": 94.69333333331451,
      "v": 92
    },
    {
      "midi": 118,
      "hit": false,
      "t": 72269.9520000003,
      "d": 94.69333333331451,
      "v": 60
    },
    {
      "midi": 64,
      "hit": false,
      "t": 72269.9520000003,
      "d": 94.69333333331451,
      "v": 70
    },
    {
      "midi": 72,
      "hit": false,
      "t": 72374.11466666694,
      "d": 94.69333333331451,
      "v": 100
    },
    {
      "midi": 60,
      "hit": false,
      "t": 72383.58400000026,
      "d": 66.2853333333187,
      "v": 110
    },
    {
      "midi": 24,
      "hit": false,
      "t": 72383.58400000026,
      "d": 94.69333333331451,
      "v": 127
    },
    {
      "midi": 79,
      "hit": false,
      "t": 72383.58400000026,
      "d": 94.69333333331451,
      "v": 100
    },
    {
      "midi": 42,
      "hit": false,
      "t": 72393.05333333359,
      "d": 94.69333333331451,
      "v": 78
    },
    {
      "midi": 60,
      "hit": false,
      "t": 72487.7466666669,
      "d": 75.75466666666034,
      "v": 100
    },
    {
      "midi": 79,
      "hit": false,
      "t": 72497.21600000023,
      "d": 85.22399999998743,
      "v": 120
    },
    {
      "midi": 48,
      "hit": false,
      "t": 72497.21600000023,
      "d": 94.69333333331451,
      "v": 80
    },
    {
      "midi": 36,
      "hit": false,
      "t": 72497.21600000023,
      "d": 94.69333333331451,
      "v": 127
    },
    {
      "midi": 62,
      "hit": false,
      "t": 72497.21600000023,
      "d": 94.69333333331451,
      "v": 100
    },
    {
      "midi": 72,
      "hit": false,
      "t": 72497.21600000023,
      "d": 94.69333333331451,
      "v": 100
    },
    {
      "midi": 118,
      "hit": false,
      "t": 72497.21600000023,
      "d": 94.69333333331451,
      "v": 60
    },
    {
      "midi": 46,
      "hit": false,
      "t": 72516.1546666669,
      "d": 94.69333333329996,
      "v": 92
    },
    {
      "midi": 60,
      "hit": false,
      "t": 72601.37866666687,
      "d": 75.75466666666034,
      "v": 100
    },
    {
      "midi": 72,
      "hit": false,
      "t": 72601.37866666687,
      "d": 94.69333333331451,
      "v": 100
    },
    {
      "midi": 64,
      "hit": false,
      "t": 72610.8480000002,
      "d": 85.22399999998743,
      "v": 110
    },
    {
      "midi": 24,
      "hit": false,
      "t": 72610.8480000002,
      "d": 94.69333333331451,
      "v": 127
    },
    {
      "midi": 79,
      "hit": false,
      "t": 72610.8480000002,
      "d": 94.69333333331451,
      "v": 100
    },
    {
      "midi": 118,
      "hit": false,
      "t": 72610.8480000002,
      "d": 94.69333333331451,
      "v": 40
    },
    {
      "midi": 64,
      "hit": false,
      "t": 72715.01066666684,
      "d": 75.75466666666034,
      "v": 100
    },
    {
      "midi": 62,
      "hit": false,
      "t": 72724.48000000017,
      "d": 18.938666666668723,
      "v": 70
    },
    {
      "midi": 28,
      "hit": false,
      "t": 72724.48000000017,
      "d": 94.69333333331451,
      "v": 127
    },
    {
      "midi": 15,
      "hit": false,
      "t": 72724.48000000017,
      "d": 94.69333333331451,
      "v": 100
    },
    {
      "midi": 13,
      "hit": false,
      "t": 72724.48000000017,
      "d": 94.69333333331451,
      "v": 100
    },
    {
      "midi": 10,
      "hit": false,
      "t": 72724.48000000017,
      "d": 94.69333333331451,
      "v": 127
    },
    {
      "midi": 42,
      "hit": false,
      "t": 72724.48000000017,
      "d": 94.69333333331451,
      "v": 92
    },
    {
      "midi": 59,
      "hit": false,
      "t": 72724.48000000017,
      "d": 321.95733333323733,
      "v": 110
    },
    {
      "midi": 69,
      "hit": false,
      "t": 72724.48000000017,
      "d": 643.9146666664892,
      "v": 127
    },
    {
      "midi": 64,
      "hit": false,
      "t": 72828.64266666681,
      "d": 75.75466666663124,
      "v": 100
    },
    {
      "midi": 28,
      "hit": false,
      "t": 72838.11200000014,
      "d": 94.69333333329996,
      "v": 127
    },
    {
      "midi": 42,
      "hit": false,
      "t": 72847.58133333347,
      "d": 94.69333333329996,
      "v": 78
    },
    {
      "midi": 64,
      "hit": false,
      "t": 72942.27466666677,
      "d": 75.75466666666034,
      "v": 100
    },
    {
      "midi": 79,
      "hit": false,
      "t": 72942.27466666677,
      "d": 94.69333333331451,
      "v": 100
    },
    {
      "midi": 52,
      "hit": false,
      "t": 72951.7440000001,
      "d": 94.69333333331451,
      "v": 80
    },
    {
      "midi": 40,
      "hit": false,
      "t": 72951.7440000001,
      "d": 94.69333333331451,
      "v": 127
    },
    {
      "midi": 62,
      "hit": false,
      "t": 72951.7440000001,
      "d": 94.69333333331451,
      "v": 100
    },
    {
      "midi": 72,
      "hit": false,
      "t": 72951.7440000001,
      "d": 94.69333333331451,
      "v": 100
    },
    {
      "midi": 46,
      "hit": false,
      "t": 72970.68266666676,
      "d": 94.69333333329996,
      "v": 92
    },
    {
      "midi": 64,
      "hit": false,
      "t": 73065.37600000006,
      "d": 66.28533333333326,
      "v": 70
    },
    {
      "midi": 28,
      "hit": false,
      "t": 73065.37600000006,
      "d": 94.69333333332906,
      "v": 127
    },
    {
      "midi": 59,
      "hit": false,
      "t": 73065.37600000006,
      "d": 94.69333333332906,
      "v": 110
    },
    {
      "midi": 64,
      "hit": false,
      "t": 73169.53866666672,
      "d": 75.75466666666034,
      "v": 100
    },
    {
      "midi": 72,
      "hit": false,
      "t": 73169.53866666672,
      "d": 94.69333333331451,
      "v": 100
    },
    {
      "midi": 62,
      "hit": false,
      "t": 73179.00800000005,
      "d": 18.938666666668723,
      "v": 70
    },
    {
      "midi": 28,
      "hit": false,
      "t": 73179.00800000005,
      "d": 94.69333333331451,
      "v": 127
    },
    {
      "midi": 15,
      "hit": false,
      "t": 73179.00800000005,
      "d": 94.69333333331451,
      "v": 100
    },
    {
      "midi": 13,
      "hit": false,
      "t": 73179.00800000005,
      "d": 94.69333333331451,
      "v": 100
    },
    {
      "midi": 10,
      "hit": false,
      "t": 73179.00800000005,
      "d": 94.69333333331451,
      "v": 127
    },
    {
      "midi": 127,
      "hit": false,
      "t": 73179.00800000005,
      "d": 94.69333333331451,
      "v": 60
    },
    {
      "midi": 108,
      "hit": false,
      "t": 73179.00800000005,
      "d": 94.69333333331451,
      "v": 80
    },
    {
      "midi": 105,
      "hit": false,
      "t": 73179.00800000005,
      "d": 94.69333333331451,
      "v": 100
    },
    {
      "midi": 42,
      "hit": false,
      "t": 73179.00800000005,
      "d": 94.69333333331451,
      "v": 92
    },
    {
      "midi": 79,
      "hit": false,
      "t": 73179.00800000005,
      "d": 94.69333333331451,
      "v": 100
    },
    {
      "midi": 118,
      "hit": false,
      "t": 73179.00800000005,
      "d": 94.69333333331451,
      "v": 60
    },
    {
      "midi": 63,
      "hit": false,
      "t": 73179.00800000005,
      "d": 94.69333333331451,
      "v": 70
    },
    {
      "midi": 64,
      "hit": false,
      "t": 73283.17066666669,
      "d": 75.75466666664579,
      "v": 100
    },
    {
      "midi": 79,
      "hit": false,
      "t": 73283.17066666669,
      "d": 94.69333333329996,
      "v": 100
    },
    {
      "midi": 28,
      "hit": false,
      "t": 73292.64000000001,
      "d": 94.69333333329996,
      "v": 127
    },
    {
      "midi": 59,
      "hit": false,
      "t": 73292.64000000001,
      "d": 94.69333333329996,
      "v": 110
    },
    {
      "midi": 72,
      "hit": false,
      "t": 73292.64000000001,
      "d": 94.69333333329996,
      "v": 100
    },
    {
      "midi": 42,
      "hit": false,
      "t": 73302.10933333334,
      "d": 94.69333333329996,
      "v": 78
    },
    {
      "midi": 72,
      "hit": false,
      "t": 73396.80266666664,
      "d": 94.69333333331451,
      "v": 100
    },
    {
      "midi": 64,
      "hit": false,
      "t": 73406.27199999997,
      "d": 66.28533333333326,
      "v": 110
    },
    {
      "midi": 52,
      "hit": false,
      "t": 73406.27199999997,
      "d": 94.69333333331451,
      "v": 80
    },
    {
      "midi": 40,
      "hit": false,
      "t": 73406.27199999997,
      "d": 94.69333333331451,
      "v": 127
    },
    {
      "midi": 62,
      "hit": false,
      "t": 73406.27199999997,
      "d": 94.69333333331451,
      "v": 100
    },
    {
      "midi": 79,
      "hit": false,
      "t": 73406.27199999997,
      "d": 94.69333333331451,
      "v": 100
    },
    {
      "midi": 67,
      "hit": false,
      "t": 73406.27199999997,
      "d": 113.63199999996868,
      "v": 127
    },
    {
      "midi": 46,
      "hit": false,
      "t": 73425.21066666664,
      "d": 94.69333333329996,
      "v": 92
    },
    {
      "midi": 79,
      "hit": false,
      "t": 73510.43466666661,
      "d": 94.69333333332906,
      "v": 100
    },
    {
      "midi": 62,
      "hit": false,
      "t": 73519.90399999994,
      "d": 18.938666666668723,
      "v": 70
    },
    {
      "midi": 64,
      "hit": false,
      "t": 73519.90399999994,
      "d": 66.28533333333326,
      "v": 110
    },
    {
      "midi": 28,
      "hit": false,
      "t": 73519.90399999994,
      "d": 94.69333333332906,
      "v": 127
    },
    {
      "midi": 72,
      "hit": false,
      "t": 73519.90399999994,
      "d": 94.69333333332906,
      "v": 100
    },
    {
      "midi": 118,
      "hit": false,
      "t": 73519.90399999994,
      "d": 94.69333333332906,
      "v": 60
    },
    {
      "midi": 72,
      "hit": false,
      "t": 73624.0666666666,
      "d": 94.69333333332906,
      "v": 100
    },
    {
      "midi": 62,
      "hit": false,
      "t": 73633.53599999992,
      "d": 37.87733333333745,
      "v": 80
    },
    {
      "midi": 28,
      "hit": false,
      "t": 73633.53599999992,
      "d": 94.69333333332906,
      "v": 127
    },
    {
      "midi": 15,
      "hit": false,
      "t": 73633.53599999992,
      "d": 94.69333333332906,
      "v": 100
    },
    {
      "midi": 13,
      "hit": false,
      "t": 73633.53599999992,
      "d": 94.69333333332906,
      "v": 100
    },
    {
      "midi": 10,
      "hit": false,
      "t": 73633.53599999992,
      "d": 94.69333333332906,
      "v": 127
    },
    {
      "midi": 42,
      "hit": false,
      "t": 73633.53599999992,
      "d": 94.69333333332906,
      "v": 92
    },
    {
      "midi": 79,
      "hit": false,
      "t": 73633.53599999992,
      "d": 94.69333333332906,
      "v": 100
    },
    {
      "midi": 67,
      "hit": false,
      "t": 73633.53599999992,
      "d": 568.1599999998871,
      "v": 127
    },
    {
      "midi": 64,
      "hit": false,
      "t": 73737.69866666658,
      "d": 75.75466666664579,
      "v": 100
    },
    {
      "midi": 28,
      "hit": false,
      "t": 73747.1679999999,
      "d": 94.69333333331451,
      "v": 127
    },
    {
      "midi": 60,
      "hit": false,
      "t": 73747.1679999999,
      "d": 94.69333333331451,
      "v": 110
    },
    {
      "midi": 118,
      "hit": false,
      "t": 73747.1679999999,
      "d": 94.69333333331451,
      "v": 60
    },
    {
      "midi": 42,
      "hit": false,
      "t": 73756.63733333323,
      "d": 94.69333333331451,
      "v": 78
    },
    {
      "midi": 64,
      "hit": false,
      "t": 73860.79999999987,
      "d": 66.28533333333326,
      "v": 110
    },
    {
      "midi": 52,
      "hit": false,
      "t": 73860.79999999987,
      "d": 94.69333333332906,
      "v": 80
    },
    {
      "midi": 40,
      "hit": false,
      "t": 73860.79999999987,
      "d": 94.69333333332906,
      "v": 127
    },
    {
      "midi": 62,
      "hit": false,
      "t": 73860.79999999987,
      "d": 94.69333333332906,
      "v": 100
    },
    {
      "midi": 118,
      "hit": false,
      "t": 73860.79999999987,
      "d": 94.69333333332906,
      "v": 40
    },
    {
      "midi": 46,
      "hit": false,
      "t": 73879.73866666654,
      "d": 94.69333333331451,
      "v": 92
    },
    {
      "midi": 64,
      "hit": false,
      "t": 73964.96266666653,
      "d": 75.75466666666034,
      "v": 100
    },
    {
      "midi": 28,
      "hit": false,
      "t": 73974.43199999986,
      "d": 94.69333333332906,
      "v": 127
    },
    {
      "midi": 62,
      "hit": false,
      "t": 73974.43199999986,
      "d": 94.69333333332906,
      "v": 110
    },
    {
      "midi": 63,
      "hit": false,
      "t": 73974.43199999986,
      "d": 94.69333333332906,
      "v": 80
    },
    {
      "midi": 79,
      "hit": false,
      "t": 74078.59466666651,
      "d": 94.69333333331451,
      "v": 100
    },
    {
      "midi": 62,
      "hit": false,
      "t": 74088.06399999984,
      "d": 18.938666666668723,
      "v": 70
    },
    {
      "midi": 64,
      "hit": false,
      "t": 74088.06399999984,
      "d": 66.28533333333326,
      "v": 70
    },
    {
      "midi": 28,
      "hit": false,
      "t": 74088.06399999984,
      "d": 94.69333333331451,
      "v": 127
    },
    {
      "midi": 60,
      "hit": false,
      "t": 74088.06399999984,
      "d": 94.69333333331451,
      "v": 110
    },
    {
      "midi": 15,
      "hit": false,
      "t": 74088.06399999984,
      "d": 94.69333333331451,
      "v": 100
    },
    {
      "midi": 13,
      "hit": false,
      "t": 74088.06399999984,
      "d": 94.69333333331451,
      "v": 100
    },
    {
      "midi": 10,
      "hit": false,
      "t": 74088.06399999984,
      "d": 94.69333333331451,
      "v": 127
    },
    {
      "midi": 127,
      "hit": false,
      "t": 74088.06399999984,
      "d": 94.69333333331451,
      "v": 60
    },
    {
      "midi": 108,
      "hit": false,
      "t": 74088.06399999984,
      "d": 94.69333333331451,
      "v": 80
    },
    {
      "midi": 105,
      "hit": false,
      "t": 74088.06399999984,
      "d": 94.69333333331451,
      "v": 100
    },
    {
      "midi": 42,
      "hit": false,
      "t": 74088.06399999984,
      "d": 94.69333333331451,
      "v": 92
    },
    {
      "midi": 72,
      "hit": false,
      "t": 74088.06399999984,
      "d": 94.69333333331451,
      "v": 100
    },
    {
      "midi": 118,
      "hit": false,
      "t": 74088.06399999984,
      "d": 94.69333333331451,
      "v": 60
    },
    {
      "midi": 64,
      "hit": false,
      "t": 74192.22666666648,
      "d": 75.75466666664579,
      "v": 100
    },
    {
      "midi": 72,
      "hit": false,
      "t": 74192.22666666648,
      "d": 94.69333333331451,
      "v": 100
    },
    {
      "midi": 79,
      "hit": false,
      "t": 74201.6959999998,
      "d": 37.877333333322895,
      "v": 100
    },
    {
      "midi": 28,
      "hit": false,
      "t": 74201.6959999998,
      "d": 94.69333333331451,
      "v": 127
    },
    {
      "midi": 60,
      "hit": false,
      "t": 74201.6959999998,
      "d": 94.69333333331451,
      "v": 110
    },
    {
      "midi": 42,
      "hit": false,
      "t": 74211.16533333313,
      "d": 94.69333333331451,
      "v": 78
    },
    {
      "midi": 64,
      "hit": false,
      "t": 74305.85866666645,
      "d": 75.75466666666034,
      "v": 100
    },
    {
      "midi": 79,
      "hit": false,
      "t": 74305.85866666645,
      "d": 94.69333333331451,
      "v": 100
    },
    {
      "midi": 59,
      "hit": false,
      "t": 74315.32799999978,
      "d": 75.75466666666034,
      "v": 110
    },
    {
      "midi": 71,
      "hit": false,
      "t": 74315.32799999978,
      "d": 75.75466666666034,
      "v": 120
    },
    {
      "midi": 52,
      "hit": false,
      "t": 74315.32799999978,
      "d": 94.69333333331451,
      "v": 80
    },
    {
      "midi": 40,
      "hit": false,
      "t": 74315.32799999978,
      "d": 94.69333333331451,
      "v": 127
    },
    {
      "midi": 62,
      "hit": false,
      "t": 74315.32799999978,
      "d": 94.69333333331451,
      "v": 100
    },
    {
      "midi": 15,
      "hit": false,
      "t": 74315.32799999978,
      "d": 94.69333333331451,
      "v": 100
    },
    {
      "midi": 13,
      "hit": false,
      "t": 74315.32799999978,
      "d": 94.69333333331451,
      "v": 100
    },
    {
      "midi": 10,
      "hit": false,
      "t": 74315.32799999978,
      "d": 94.69333333331451,
      "v": 127
    },
    {
      "midi": 72,
      "hit": false,
      "t": 74315.32799999978,
      "d": 94.69333333331451,
      "v": 100
    },
    {
      "midi": 118,
      "hit": false,
      "t": 74315.32799999978,
      "d": 94.69333333331451,
      "v": 60
    },
    {
      "midi": 46,
      "hit": false,
      "t": 74334.26666666644,
      "d": 94.69333333329996,
      "v": 92
    },
    {
      "midi": 72,
      "hit": false,
      "t": 74419.49066666642,
      "d": 94.69333333332906,
      "v": 100
    },
    {
      "midi": 64,
      "hit": false,
      "t": 74428.95999999974,
      "d": 66.28533333333326,
      "v": 110
    },
    {
      "midi": 28,
      "hit": false,
      "t": 74428.95999999974,
      "d": 94.69333333332906,
      "v": 127
    },
    {
      "midi": 79,
      "hit": false,
      "t": 74428.95999999974,
      "d": 94.69333333332906,
      "v": 100
    },
    {
      "midi": 118,
      "hit": false,
      "t": 74428.95999999974,
      "d": 94.69333333332906,
      "v": 40
    },
    {
      "midi": 65,
      "hit": false,
      "t": 74542.59199999973,
      "d": 66.2853333333187,
      "v": 110
    },
    {
      "midi": 29,
      "hit": false,
      "t": 74542.59199999973,
      "d": 94.69333333331451,
      "v": 127
    },
    {
      "midi": 15,
      "hit": false,
      "t": 74542.59199999973,
      "d": 94.69333333331451,
      "v": 100
    },
    {
      "midi": 13,
      "hit": false,
      "t": 74542.59199999973,
      "d": 94.69333333331451,
      "v": 100
    },
    {
      "midi": 10,
      "hit": false,
      "t": 74542.59199999973,
      "d": 94.69333333331451,
      "v": 127
    },
    {
      "midi": 42,
      "hit": false,
      "t": 74542.59199999973,
      "d": 94.69333333331451,
      "v": 92
    },
    {
      "midi": 60,
      "hit": false,
      "t": 74542.59199999973,
      "d": 1022.6879999997473,
      "v": 110
    },
    {
      "midi": 65,
      "hit": false,
      "t": 74646.75466666637,
      "d": 75.75466666666034,
      "v": 100
    },
    {
      "midi": 29,
      "hit": false,
      "t": 74656.2239999997,
      "d": 94.69333333332906,
      "v": 127
    },
    {
      "midi": 69,
      "hit": false,
      "t": 74656.2239999997,
      "d": 94.69333333332906,
      "v": 110
    },
    {
      "midi": 42,
      "hit": false,
      "t": 74665.69333333302,
      "d": 94.69333333332906,
      "v": 78
    },
    {
      "midi": 79,
      "hit": false,
      "t": 74760.38666666635,
      "d": 94.69333333331451,
      "v": 100
    },
    {
      "midi": 65,
      "hit": false,
      "t": 74769.85599999968,
      "d": 66.28533333333326,
      "v": 100
    },
    {
      "midi": 53,
      "hit": false,
      "t": 74769.85599999968,
      "d": 94.69333333331451,
      "v": 80
    },
    {
      "midi": 41,
      "hit": false,
      "t": 74769.85599999968,
      "d": 94.69333333331451,
      "v": 127
    },
    {
      "midi": 69,
      "hit": false,
      "t": 74769.85599999968,
      "d": 94.69333333331451,
      "v": 110
    },
    {
      "midi": 72,
      "hit": false,
      "t": 74769.85599999968,
      "d": 94.69333333331451,
      "v": 100
    },
    {
      "midi": 46,
      "hit": false,
      "t": 74788.79466666635,
      "d": 94.69333333329996,
      "v": 92
    },
    {
      "midi": 72,
      "hit": false,
      "t": 74874.01866666632,
      "d": 94.69333333331451,
      "v": 50
    },
    {
      "midi": 65,
      "hit": false,
      "t": 74883.48799999965,
      "d": 66.2853333333187,
      "v": 110
    },
    {
      "midi": 29,
      "hit": false,
      "t": 74883.48799999965,
      "d": 94.69333333331451,
      "v": 127
    },
    {
      "midi": 79,
      "hit": false,
      "t": 74883.48799999965,
      "d": 94.69333333331451,
      "v": 50
    },
    {
      "midi": 64,
      "hit": false,
      "t": 74883.48799999965,
      "d": 94.69333333331451,
      "v": 70
    },
    {
      "midi": 79,
      "hit": false,
      "t": 74987.65066666629,
      "d": 94.69333333332906,
      "v": 100
    },
    {
      "midi": 65,
      "hit": false,
      "t": 74997.11999999962,
      "d": 18.938666666668723,
      "v": 70
    },
    {
      "midi": 29,
      "hit": false,
      "t": 74997.11999999962,
      "d": 94.69333333332906,
      "v": 127
    },
    {
      "midi": 69,
      "hit": false,
      "t": 74997.11999999962,
      "d": 94.69333333332906,
      "v": 110
    },
    {
      "midi": 15,
      "hit": false,
      "t": 74997.11999999962,
      "d": 94.69333333332906,
      "v": 100
    },
    {
      "midi": 13,
      "hit": false,
      "t": 74997.11999999962,
      "d": 94.69333333332906,
      "v": 100
    },
    {
      "midi": 10,
      "hit": false,
      "t": 74997.11999999962,
      "d": 94.69333333332906,
      "v": 127
    },
    {
      "midi": 127,
      "hit": false,
      "t": 74997.11999999962,
      "d": 94.69333333332906,
      "v": 60
    },
    {
      "midi": 108,
      "hit": false,
      "t": 74997.11999999962,
      "d": 94.69333333332906,
      "v": 80
    },
    {
      "midi": 105,
      "hit": false,
      "t": 74997.11999999962,
      "d": 94.69333333332906,
      "v": 100
    },
    {
      "midi": 42,
      "hit": false,
      "t": 74997.11999999962,
      "d": 94.69333333332906,
      "v": 92
    },
    {
      "midi": 72,
      "hit": false,
      "t": 74997.11999999962,
      "d": 94.69333333332906,
      "v": 100
    },
    {
      "midi": 118,
      "hit": false,
      "t": 74997.11999999962,
      "d": 94.69333333332906,
      "v": 60
    },
    {
      "midi": 63,
      "hit": false,
      "t": 74997.11999999962,
      "d": 94.69333333332906,
      "v": 70
    },
    {
      "midi": 65,
      "hit": false,
      "t": 75101.28266666627,
      "d": 75.75466666664579,
      "v": 100
    },
    {
      "midi": 72,
      "hit": false,
      "t": 75101.28266666627,
      "d": 94.69333333331451,
      "v": 100
    },
    {
      "midi": 29,
      "hit": false,
      "t": 75110.7519999996,
      "d": 94.69333333331451,
      "v": 127
    },
    {
      "midi": 79,
      "hit": false,
      "t": 75110.7519999996,
      "d": 94.69333333331451,
      "v": 100
    },
    {
      "midi": 42,
      "hit": false,
      "t": 75120.22133333293,
      "d": 94.69333333331451,
      "v": 78
    },
    {
      "midi": 79,
      "hit": false,
      "t": 75214.91466666624,
      "d": 94.69333333332906,
      "v": 100
    },
    {
      "midi": 65,
      "hit": false,
      "t": 75224.38399999957,
      "d": 66.28533333333326,
      "v": 100
    },
    {
      "midi": 53,
      "hit": false,
      "t": 75224.38399999957,
      "d": 94.69333333332906,
      "v": 80
    },
    {
      "midi": 41,
      "hit": false,
      "t": 75224.38399999957,
      "d": 94.69333333332906,
      "v": 127
    },
    {
      "midi": 69,
      "hit": false,
      "t": 75224.38399999957,
      "d": 94.69333333332906,
      "v": 110
    },
    {
      "midi": 72,
      "hit": false,
      "t": 75224.38399999957,
      "d": 94.69333333332906,
      "v": 100
    },
    {
      "midi": 46,
      "hit": false,
      "t": 75243.32266666624,
      "d": 94.69333333331451,
      "v": 92
    },
    {
      "midi": 72,
      "hit": false,
      "t": 75328.54666666623,
      "d": 94.69333333331451,
      "v": 100
    },
    {
      "midi": 65,
      "hit": false,
      "t": 75338.01599999955,
      "d": 18.938666666668723,
      "v": 70
    },
    {
      "midi": 29,
      "hit": false,
      "t": 75338.01599999955,
      "d": 94.69333333331451,
      "v": 127
    },
    {
      "midi": 79,
      "hit": false,
      "t": 75338.01599999955,
      "d": 94.69333333331451,
      "v": 100
    },
    {
      "midi": 118,
      "hit": false,
      "t": 75338.01599999955,
      "d": 94.69333333331451,
      "v": 60
    },
    {
      "midi": 79,
      "hit": false,
      "t": 75442.1786666662,
      "d": 94.69333333329996,
      "v": 100
    },
    {
      "midi": 65,
      "hit": false,
      "t": 75451.64799999952,
      "d": 18.938666666668723,
      "v": 70
    },
    {
      "midi": 29,
      "hit": false,
      "t": 75451.64799999952,
      "d": 94.69333333329996,
      "v": 127
    },
    {
      "midi": 15,
      "hit": false,
      "t": 75451.64799999952,
      "d": 94.69333333329996,
      "v": 100
    },
    {
      "midi": 13,
      "hit": false,
      "t": 75451.64799999952,
      "d": 94.69333333329996,
      "v": 100
    },
    {
      "midi": 10,
      "hit": false,
      "t": 75451.64799999952,
      "d": 94.69333333329996,
      "v": 127
    },
    {
      "midi": 42,
      "hit": false,
      "t": 75451.64799999952,
      "d": 94.69333333329996,
      "v": 92
    },
    {
      "midi": 72,
      "hit": false,
      "t": 75451.64799999952,
      "d": 94.69333333329996,
      "v": 100
    },
    {
      "midi": 65,
      "hit": false,
      "t": 75555.81066666615,
      "d": 75.75466666664579,
      "v": 100
    },
    {
      "midi": 29,
      "hit": false,
      "t": 75565.27999999947,
      "d": 94.69333333331451,
      "v": 127
    },
    {
      "midi": 69,
      "hit": false,
      "t": 75565.27999999947,
      "d": 94.69333333331451,
      "v": 110
    },
    {
      "midi": 118,
      "hit": false,
      "t": 75565.27999999947,
      "d": 94.69333333331451,
      "v": 60
    },
    {
      "midi": 42,
      "hit": false,
      "t": 75574.7493333328,
      "d": 94.69333333331451,
      "v": 78
    },
    {
      "midi": 65,
      "hit": false,
      "t": 75678.91199999944,
      "d": 66.28533333333326,
      "v": 100
    },
    {
      "midi": 59,
      "hit": false,
      "t": 75678.91199999944,
      "d": 75.75466666666034,
      "v": 110
    },
    {
      "midi": 71,
      "hit": false,
      "t": 75678.91199999944,
      "d": 75.75466666666034,
      "v": 120
    },
    {
      "midi": 53,
      "hit": false,
      "t": 75678.91199999944,
      "d": 94.69333333332906,
      "v": 80
    },
    {
      "midi": 41,
      "hit": false,
      "t": 75678.91199999944,
      "d": 94.69333333332906,
      "v": 127
    },
    {
      "midi": 69,
      "hit": false,
      "t": 75678.91199999944,
      "d": 94.69333333332906,
      "v": 110
    },
    {
      "midi": 118,
      "hit": false,
      "t": 75678.91199999944,
      "d": 94.69333333332906,
      "v": 40
    },
    {
      "midi": 46,
      "hit": false,
      "t": 75697.85066666611,
      "d": 94.69333333331451,
      "v": 92
    },
    {
      "midi": 65,
      "hit": false,
      "t": 75792.54399999943,
      "d": 66.28533333333326,
      "v": 110
    },
    {
      "midi": 29,
      "hit": false,
      "t": 75792.54399999943,
      "d": 94.69333333332906,
      "v": 127
    },
    {
      "midi": 63,
      "hit": false,
      "t": 75792.54399999943,
      "d": 94.69333333332906,
      "v": 80
    },
    {
      "midi": 79,
      "hit": false,
      "t": 75896.70666666608,
      "d": 94.69333333331451,
      "v": 100
    },
    {
      "midi": 65,
      "hit": false,
      "t": 75906.17599999941,
      "d": 18.938666666668723,
      "v": 70
    },
    {
      "midi": 60,
      "hit": false,
      "t": 75906.17599999941,
      "d": 75.75466666666034,
      "v": 110
    },
    {
      "midi": 72,
      "hit": false,
      "t": 75906.17599999941,
      "d": 75.75466666666034,
      "v": 100
    },
    {
      "midi": 29,
      "hit": false,
      "t": 75906.17599999941,
      "d": 94.69333333331451,
      "v": 127
    },
    {
      "midi": 69,
      "hit": false,
      "t": 75906.17599999941,
      "d": 94.69333333331451,
      "v": 110
    },
    {
      "midi": 15,
      "hit": false,
      "t": 75906.17599999941,
      "d": 94.69333333331451,
      "v": 100
    },
    {
      "midi": 13,
      "hit": false,
      "t": 75906.17599999941,
      "d": 94.69333333331451,
      "v": 100
    },
    {
      "midi": 10,
      "hit": false,
      "t": 75906.17599999941,
      "d": 94.69333333331451,
      "v": 127
    },
    {
      "midi": 127,
      "hit": false,
      "t": 75906.17599999941,
      "d": 94.69333333331451,
      "v": 60
    },
    {
      "midi": 108,
      "hit": false,
      "t": 75906.17599999941,
      "d": 94.69333333331451,
      "v": 80
    },
    {
      "midi": 105,
      "hit": false,
      "t": 75906.17599999941,
      "d": 94.69333333331451,
      "v": 100
    },
    {
      "midi": 42,
      "hit": false,
      "t": 75906.17599999941,
      "d": 94.69333333331451,
      "v": 92
    },
    {
      "midi": 118,
      "hit": false,
      "t": 75906.17599999941,
      "d": 94.69333333331451,
      "v": 60
    },
    {
      "midi": 64,
      "hit": false,
      "t": 75906.17599999941,
      "d": 94.69333333331451,
      "v": 70
    },
    {
      "midi": 65,
      "hit": false,
      "t": 76010.33866666605,
      "d": 75.75466666664579,
      "v": 100
    },
    {
      "midi": 72,
      "hit": false,
      "t": 76010.33866666605,
      "d": 94.69333333331451,
      "v": 100
    },
    {
      "midi": 29,
      "hit": false,
      "t": 76019.80799999938,
      "d": 94.69333333331451,
      "v": 127
    },
    {
      "midi": 79,
      "hit": false,
      "t": 76019.80799999938,
      "d": 94.69333333331451,
      "v": 100
    },
    {
      "midi": 42,
      "hit": false,
      "t": 76029.2773333327,
      "d": 94.69333333331451,
      "v": 78
    },
    {
      "midi": 65,
      "hit": false,
      "t": 76133.43999999935,
      "d": 66.28533333333326,
      "v": 100
    },
    {
      "midi": 79,
      "hit": false,
      "t": 76133.43999999935,
      "d": 85.22399999998743,
      "v": 120
    },
    {
      "midi": 53,
      "hit": false,
      "t": 76133.43999999935,
      "d": 94.69333333331451,
      "v": 80
    },
    {
      "midi": 41,
      "hit": false,
      "t": 76133.43999999935,
      "d": 94.69333333331451,
      "v": 127
    },
    {
      "midi": 69,
      "hit": false,
      "t": 76133.43999999935,
      "d": 94.69333333331451,
      "v": 110
    },
    {
      "midi": 72,
      "hit": false,
      "t": 76133.43999999935,
      "d": 94.69333333331451,
      "v": 100
    },
    {
      "midi": 118,
      "hit": false,
      "t": 76133.43999999935,
      "d": 94.69333333331451,
      "v": 60
    },
    {
      "midi": 46,
      "hit": false,
      "t": 76152.37866666602,
      "d": 94.69333333329996,
      "v": 92
    },
    {
      "midi": 72,
      "hit": false,
      "t": 76237.60266666599,
      "d": 94.69333333332906,
      "v": 100
    },
    {
      "midi": 65,
      "hit": false,
      "t": 76247.07199999932,
      "d": 66.28533333333326,
      "v": 110
    },
    {
      "midi": 29,
      "hit": false,
      "t": 76247.07199999932,
      "d": 94.69333333332906,
      "v": 127
    },
    {
      "midi": 79,
      "hit": false,
      "t": 76247.07199999932,
      "d": 94.69333333332906,
      "v": 100
    },
    {
      "midi": 118,
      "hit": false,
      "t": 76247.07199999932,
      "d": 94.69333333332906,
      "v": 40
    },
    {
      "midi": 67,
      "hit": false,
      "t": 76351.23466666597,
      "d": 75.75466666666034,
      "v": 100
    },
    {
      "midi": 62,
      "hit": false,
      "t": 76360.7039999993,
      "d": 18.938666666668723,
      "v": 70
    },
    {
      "midi": 31,
      "hit": false,
      "t": 76360.7039999993,
      "d": 94.69333333332906,
      "v": 127
    },
    {
      "midi": 15,
      "hit": false,
      "t": 76360.7039999993,
      "d": 94.69333333332906,
      "v": 100
    },
    {
      "midi": 13,
      "hit": false,
      "t": 76360.7039999993,
      "d": 94.69333333332906,
      "v": 100
    },
    {
      "midi": 10,
      "hit": false,
      "t": 76360.7039999993,
      "d": 94.69333333332906,
      "v": 127
    },
    {
      "midi": 42,
      "hit": false,
      "t": 76360.7039999993,
      "d": 94.69333333332906,
      "v": 92
    },
    {
      "midi": 67,
      "hit": false,
      "t": 76464.86666666596,
      "d": 75.75466666664579,
      "v": 100
    },
    {
      "midi": 31,
      "hit": false,
      "t": 76474.33599999928,
      "d": 94.69333333331451,
      "v": 127
    },
    {
      "midi": 59,
      "hit": false,
      "t": 76474.33599999928,
      "d": 94.69333333331451,
      "v": 110
    },
    {
      "midi": 42,
      "hit": false,
      "t": 76483.80533333261,
      "d": 94.69333333331451,
      "v": 78
    },
    {
      "midi": 67,
      "hit": false,
      "t": 76578.49866666592,
      "d": 75.75466666666034,
      "v": 100
    },
    {
      "midi": 79,
      "hit": false,
      "t": 76578.49866666592,
      "d": 94.69333333332906,
      "v": 100
    },
    {
      "midi": 55,
      "hit": false,
      "t": 76587.96799999925,
      "d": 94.69333333332906,
      "v": 80
    },
    {
      "midi": 43,
      "hit": false,
      "t": 76587.96799999925,
      "d": 94.69333333332906,
      "v": 127
    },
    {
      "midi": 62,
      "hit": false,
      "t": 76587.96799999925,
      "d": 94.69333333332906,
      "v": 100
    },
    {
      "midi": 72,
      "hit": false,
      "t": 76587.96799999925,
      "d": 94.69333333332906,
      "v": 100
    },
    {
      "midi": 77,
      "hit": false,
      "t": 76587.96799999925,
      "d": 284.07999999997264,
      "v": 120
    },
    {
      "midi": 65,
      "hit": false,
      "t": 76587.96799999925,
      "d": 284.07999999997264,
      "v": 110
    },
    {
      "midi": 46,
      "hit": false,
      "t": 76606.90666666592,
      "d": 94.69333333331451,
      "v": 92
    },
    {
      "midi": 72,
      "hit": false,
      "t": 76692.13066666591,
      "d": 94.69333333332906,
      "v": 100
    },
    {
      "midi": 67,
      "hit": false,
      "t": 76701.59999999923,
      "d": 66.28533333333326,
      "v": 110
    },
    {
      "midi": 31,
      "hit": false,
      "t": 76701.59999999923,
      "d": 94.69333333332906,
      "v": 127
    },
    {
      "midi": 79,
      "hit": false,
      "t": 76701.59999999923,
      "d": 94.69333333332906,
      "v": 100
    },
    {
      "midi": 64,
      "hit": false,
      "t": 76701.59999999923,
      "d": 94.69333333332906,
      "v": 70
    },
    {
      "midi": 67,
      "hit": false,
      "t": 76805.76266666589,
      "d": 75.75466666666034,
      "v": 100
    },
    {
      "midi": 79,
      "hit": false,
      "t": 76805.76266666589,
      "d": 94.69333333332906,
      "v": 100
    },
    {
      "midi": 62,
      "hit": false,
      "t": 76815.23199999922,
      "d": 18.938666666668723,
      "v": 70
    },
    {
      "midi": 31,
      "hit": false,
      "t": 76815.23199999922,
      "d": 94.69333333332906,
      "v": 127
    },
    {
      "midi": 71,
      "hit": false,
      "t": 76815.23199999922,
      "d": 94.69333333332906,
      "v": 110
    },
    {
      "midi": 15,
      "hit": false,
      "t": 76815.23199999922,
      "d": 94.69333333332906,
      "v": 100
    },
    {
      "midi": 13,
      "hit": false,
      "t": 76815.23199999922,
      "d": 94.69333333332906,
      "v": 100
    },
    {
      "midi": 10,
      "hit": false,
      "t": 76815.23199999922,
      "d": 94.69333333332906,
      "v": 127
    },
    {
      "midi": 127,
      "hit": false,
      "t": 76815.23199999922,
      "d": 94.69333333332906,
      "v": 60
    },
    {
      "midi": 108,
      "hit": false,
      "t": 76815.23199999922,
      "d": 94.69333333332906,
      "v": 80
    },
    {
      "midi": 105,
      "hit": false,
      "t": 76815.23199999922,
      "d": 94.69333333332906,
      "v": 100
    },
    {
      "midi": 42,
      "hit": false,
      "t": 76815.23199999922,
      "d": 94.69333333332906,
      "v": 92
    },
    {
      "midi": 72,
      "hit": false,
      "t": 76815.23199999922,
      "d": 94.69333333332906,
      "v": 100
    },
    {
      "midi": 118,
      "hit": false,
      "t": 76815.23199999922,
      "d": 94.69333333332906,
      "v": 60
    },
    {
      "midi": 63,
      "hit": false,
      "t": 76815.23199999922,
      "d": 94.69333333332906,
      "v": 70
    },
    {
      "midi": 72,
      "hit": false,
      "t": 76919.39466666587,
      "d": 94.69333333331451,
      "v": 100
    },
    {
      "midi": 67,
      "hit": false,
      "t": 76928.8639999992,
      "d": 66.28533333333326,
      "v": 110
    },
    {
      "midi": 31,
      "hit": false,
      "t": 76928.8639999992,
      "d": 94.69333333331451,
      "v": 127
    },
    {
      "midi": 79,
      "hit": false,
      "t": 76928.8639999992,
      "d": 94.69333333331451,
      "v": 100
    },
    {
      "midi": 42,
      "hit": false,
      "t": 76938.33333333253,
      "d": 94.69333333331451,
      "v": 78
    },
    {
      "midi": 67,
      "hit": false,
      "t": 77033.02666666584,
      "d": 75.75466666666034,
      "v": 100
    },
    {
      "midi": 79,
      "hit": false,
      "t": 77033.02666666584,
      "d": 94.69333333332906,
      "v": 100
    },
    {
      "midi": 55,
      "hit": false,
      "t": 77042.49599999917,
      "d": 94.69333333332906,
      "v": 80
    },
    {
      "midi": 43,
      "hit": false,
      "t": 77042.49599999917,
      "d": 94.69333333332906,
      "v": 127
    },
    {
      "midi": 62,
      "hit": false,
      "t": 77042.49599999917,
      "d": 94.69333333332906,
      "v": 100
    },
    {
      "midi": 72,
      "hit": false,
      "t": 77042.49599999917,
      "d": 94.69333333332906,
      "v": 100
    },
    {
      "midi": 76,
      "hit": false,
      "t": 77042.49599999917,
      "d": 284.07999999997264,
      "v": 120
    },
    {
      "midi": 64,
      "hit": false,
      "t": 77042.49599999917,
      "d": 284.07999999997264,
      "v": 110
    },
    {
      "midi": 46,
      "hit": false,
      "t": 77061.43466666584,
      "d": 94.69333333331451,
      "v": 92
    },
    {
      "midi": 67,
      "hit": false,
      "t": 77146.65866666583,
      "d": 75.75466666666034,
      "v": 100
    },
    {
      "midi": 72,
      "hit": false,
      "t": 77146.65866666583,
      "d": 94.69333333332906,
      "v": 100
    },
    {
      "midi": 31,
      "hit": false,
      "t": 77156.12799999915,
      "d": 94.69333333332906,
      "v": 127
    },
    {
      "midi": 59,
      "hit": false,
      "t": 77156.12799999915,
      "d": 94.69333333332906,
      "v": 110
    },
    {
      "midi": 79,
      "hit": false,
      "t": 77156.12799999915,
      "d": 94.69333333332906,
      "v": 100
    },
    {
      "midi": 118,
      "hit": false,
      "t": 77156.12799999915,
      "d": 94.69333333332906,
      "v": 60
    },
    {
      "midi": 79,
      "hit": false,
      "t": 77260.29066666581,
      "d": 94.69333333332906,
      "v": 100
    },
    {
      "midi": 62,
      "hit": false,
      "t": 77269.75999999914,
      "d": 18.938666666668723,
      "v": 70
    },
    {
      "midi": 15,
      "hit": false,
      "t": 77269.75999999914,
      "d": 94.69333333332906,
      "v": 100
    },
    {
      "midi": 13,
      "hit": false,
      "t": 77269.75999999914,
      "d": 94.69333333332906,
      "v": 100
    },
    {
      "midi": 10,
      "hit": false,
      "t": 77269.75999999914,
      "d": 94.69333333332906,
      "v": 127
    },
    {
      "midi": 42,
      "hit": false,
      "t": 77269.75999999914,
      "d": 94.69333333332906,
      "v": 92
    },
    {
      "midi": 72,
      "hit": false,
      "t": 77269.75999999914,
      "d": 94.69333333332906,
      "v": 100
    },
    {
      "midi": 31,
      "hit": false,
      "t": 77269.75999999914,
      "d": 208.3253333333123,
      "v": 127
    },
    {
      "midi": 67,
      "hit": false,
      "t": 77373.92266666579,
      "d": 75.75466666666034,
      "v": 100
    },
    {
      "midi": 72,
      "hit": false,
      "t": 77373.92266666579,
      "d": 94.69333333332906,
      "v": 100
    },
    {
      "midi": 59,
      "hit": false,
      "t": 77383.39199999912,
      "d": 94.69333333332906,
      "v": 110
    },
    {
      "midi": 79,
      "hit": false,
      "t": 77383.39199999912,
      "d": 94.69333333332906,
      "v": 100
    },
    {
      "midi": 118,
      "hit": false,
      "t": 77383.39199999912,
      "d": 94.69333333332906,
      "v": 60
    },
    {
      "midi": 42,
      "hit": false,
      "t": 77392.86133333245,
      "d": 94.69333333332906,
      "v": 78
    },
    {
      "midi": 67,
      "hit": false,
      "t": 77487.55466666578,
      "d": 75.75466666666034,
      "v": 100
    },
    {
      "midi": 74,
      "hit": false,
      "t": 77497.0239999991,
      "d": 75.75466666666034,
      "v": 120
    },
    {
      "midi": 62,
      "hit": false,
      "t": 77497.0239999991,
      "d": 75.75466666666034,
      "v": 100
    },
    {
      "midi": 105,
      "hit": false,
      "t": 77497.0239999991,
      "d": 94.69333333332906,
      "v": 100
    },
    {
      "midi": 108,
      "hit": false,
      "t": 77497.0239999991,
      "d": 94.69333333332906,
      "v": 80
    },
    {
      "midi": 127,
      "hit": false,
      "t": 77497.0239999991,
      "d": 94.69333333332906,
      "v": 60
    },
    {
      "midi": 118,
      "hit": false,
      "t": 77497.0239999991,
      "d": 94.69333333332906,
      "v": 40
    },
    {
      "midi": 55,
      "hit": false,
      "t": 77497.0239999991,
      "d": 208.3253333333123,
      "v": 80
    },
    {
      "midi": 43,
      "hit": false,
      "t": 77497.0239999991,
      "d": 208.3253333333123,
      "v": 127
    },
    {
      "midi": 46,
      "hit": false,
      "t": 77515.96266666577,
      "d": 94.69333333331451,
      "v": 92
    },
    {
      "midi": 67,
      "hit": false,
      "t": 77610.65599999909,
      "d": 66.28533333333326,
      "v": 110
    },
    {
      "midi": 63,
      "hit": false,
      "t": 77610.65599999909,
      "d": 94.69333333332906,
      "v": 80
    },
    {
      "midi": 79,
      "hit": false,
      "t": 77714.81866666574,
      "d": 94.69333333332906,
      "v": 100
    },
    {
      "midi": 62,
      "hit": false,
      "t": 77724.28799999907,
      "d": 18.938666666668723,
      "v": 70
    },
    {
      "midi": 67,
      "hit": false,
      "t": 77724.28799999907,
      "d": 66.28533333333326,
      "v": 120
    },
    {
      "midi": 55,
      "hit": false,
      "t": 77724.28799999907,
      "d": 94.69333333332906,
      "v": 110
    },
    {
      "midi": 43,
      "hit": false,
      "t": 77724.28799999907,
      "d": 94.69333333332906,
      "v": 127
    },
    {
      "midi": 71,
      "hit": false,
      "t": 77724.28799999907,
      "d": 94.69333333332906,
      "v": 110
    },
    {
      "midi": 15,
      "hit": false,
      "t": 77724.28799999907,
      "d": 94.69333333332906,
      "v": 100
    },
    {
      "midi": 13,
      "hit": false,
      "t": 77724.28799999907,
      "d": 94.69333333332906,
      "v": 100
    },
    {
      "midi": 10,
      "hit": false,
      "t": 77724.28799999907,
      "d": 94.69333333332906,
      "v": 127
    },
    {
      "midi": 105,
      "hit": false,
      "t": 77724.28799999907,
      "d": 94.69333333332906,
      "v": 100
    },
    {
      "midi": 108,
      "hit": false,
      "t": 77724.28799999907,
      "d": 94.69333333332906,
      "v": 80
    },
    {
      "midi": 127,
      "hit": false,
      "t": 77724.28799999907,
      "d": 94.69333333332906,
      "v": 60
    },
    {
      "midi": 42,
      "hit": false,
      "t": 77724.28799999907,
      "d": 94.69333333332906,
      "v": 92
    },
    {
      "midi": 72,
      "hit": false,
      "t": 77724.28799999907,
      "d": 94.69333333332906,
      "v": 100
    },
    {
      "midi": 118,
      "hit": false,
      "t": 77724.28799999907,
      "d": 94.69333333332906,
      "v": 60
    },
    {
      "midi": 64,
      "hit": false,
      "t": 77724.28799999907,
      "d": 94.69333333332906,
      "v": 70
    },
    {
      "midi": 72,
      "hit": false,
      "t": 77828.45066666573,
      "d": 94.69333333329996,
      "v": 100
    },
    {
      "midi": 67,
      "hit": false,
      "t": 77837.91999999905,
      "d": 66.2853333333187,
      "v": 110
    },
    {
      "midi": 53,
      "hit": false,
      "t": 77837.91999999905,
      "d": 94.69333333329996,
      "v": 80
    },
    {
      "midi": 41,
      "hit": false,
      "t": 77837.91999999905,
      "d": 94.69333333329996,
      "v": 127
    },
    {
      "midi": 79,
      "hit": false,
      "t": 77837.91999999905,
      "d": 94.69333333329996,
      "v": 100
    },
    {
      "midi": 42,
      "hit": false,
      "t": 77847.38933333238,
      "d": 94.69333333329996,
      "v": 78
    },
    {
      "midi": 79,
      "hit": false,
      "t": 77942.08266666568,
      "d": 94.69333333332906,
      "v": 100
    },
    {
      "midi": 67,
      "hit": false,
      "t": 77951.551999999,
      "d": 66.28533333333326,
      "v": 127
    },
    {
      "midi": 52,
      "hit": false,
      "t": 77951.551999999,
      "d": 94.69333333332906,
      "v": 80
    },
    {
      "midi": 40,
      "hit": false,
      "t": 77951.551999999,
      "d": 94.69333333332906,
      "v": 127
    },
    {
      "midi": 62,
      "hit": false,
      "t": 77951.551999999,
      "d": 94.69333333332906,
      "v": 100
    },
    {
      "midi": 15,
      "hit": false,
      "t": 77951.551999999,
      "d": 94.69333333332906,
      "v": 100
    },
    {
      "midi": 13,
      "hit": false,
      "t": 77951.551999999,
      "d": 94.69333333332906,
      "v": 100
    },
    {
      "midi": 10,
      "hit": false,
      "t": 77951.551999999,
      "d": 94.69333333332906,
      "v": 127
    },
    {
      "midi": 105,
      "hit": false,
      "t": 77951.551999999,
      "d": 94.69333333332906,
      "v": 100
    },
    {
      "midi": 108,
      "hit": false,
      "t": 77951.551999999,
      "d": 94.69333333332906,
      "v": 80
    },
    {
      "midi": 127,
      "hit": false,
      "t": 77951.551999999,
      "d": 94.69333333332906,
      "v": 60
    },
    {
      "midi": 72,
      "hit": false,
      "t": 77951.551999999,
      "d": 94.69333333332906,
      "v": 100
    },
    {
      "midi": 118,
      "hit": false,
      "t": 77951.551999999,
      "d": 94.69333333332906,
      "v": 60
    },
    {
      "midi": 46,
      "hit": false,
      "t": 77970.49066666568,
      "d": 94.69333333331451,
      "v": 92
    },
    {
      "midi": 67,
      "hit": false,
      "t": 78055.71466666566,
      "d": 75.75466666666034,
      "v": 100
    },
    {
      "midi": 72,
      "hit": false,
      "t": 78055.71466666566,
      "d": 94.69333333332906,
      "v": 100
    },
    {
      "midi": 59,
      "hit": false,
      "t": 78065.18399999899,
      "d": 94.69333333332906,
      "v": 110
    },
    {
      "midi": 50,
      "hit": false,
      "t": 78065.18399999899,
      "d": 94.69333333332906,
      "v": 80
    },
    {
      "midi": 38,
      "hit": false,
      "t": 78065.18399999899,
      "d": 94.69333333332906,
      "v": 127
    },
    {
      "midi": 79,
      "hit": false,
      "t": 78065.18399999899,
      "d": 94.69333333332906,
      "v": 100
    },
    {
      "midi": 118,
      "hit": false,
      "t": 78065.18399999899,
      "d": 94.69333333332906,
      "v": 40
    },
    {
      "midi": 79,
      "hit": false,
      "t": 78169.34666666565,
      "d": 94.69333333331451,
      "v": 100
    },
    {
      "midi": 62,
      "hit": false,
      "t": 78178.81599999897,
      "d": 18.938666666668723,
      "v": 70
    },
    {
      "midi": 60,
      "hit": false,
      "t": 78178.81599999897,
      "d": 66.28533333333326,
      "v": 127
    },
    {
      "midi": 24,
      "hit": false,
      "t": 78178.81599999897,
      "d": 94.69333333331451,
      "v": 127
    },
    {
      "midi": 15,
      "hit": false,
      "t": 78178.81599999897,
      "d": 94.69333333331451,
      "v": 100
    },
    {
      "midi": 13,
      "hit": false,
      "t": 78178.81599999897,
      "d": 94.69333333331451,
      "v": 100
    },
    {
      "midi": 10,
      "hit": false,
      "t": 78178.81599999897,
      "d": 94.69333333331451,
      "v": 127
    },
    {
      "midi": 42,
      "hit": false,
      "t": 78178.81599999897,
      "d": 94.69333333331451,
      "v": 92
    },
    {
      "midi": 72,
      "hit": false,
      "t": 78178.81599999897,
      "d": 94.69333333331451,
      "v": 100
    },
    {
      "midi": 60,
      "hit": false,
      "t": 78282.97866666561,
      "d": 75.75466666664579,
      "v": 100
    },
    {
      "midi": 24,
      "hit": false,
      "t": 78292.44799999894,
      "d": 94.69333333331451,
      "v": 127
    },
    {
      "midi": 64,
      "hit": false,
      "t": 78292.44799999894,
      "d": 94.69333333331451,
      "v": 110
    },
    {
      "midi": 42,
      "hit": false,
      "t": 78301.91733333227,
      "d": 94.69333333331451,
      "v": 78
    },
    {
      "midi": 60,
      "hit": false,
      "t": 78396.61066666558,
      "d": 75.75466666666034,
      "v": 100
    },
    {
      "midi": 79,
      "hit": false,
      "t": 78396.61066666558,
      "d": 94.69333333332906,
      "v": 100
    },
    {
      "midi": 48,
      "hit": false,
      "t": 78406.07999999891,
      "d": 94.69333333332906,
      "v": 80
    },
    {
      "midi": 36,
      "hit": false,
      "t": 78406.07999999891,
      "d": 94.69333333332906,
      "v": 127
    },
    {
      "midi": 64,
      "hit": false,
      "t": 78406.07999999891,
      "d": 94.69333333332906,
      "v": 110
    },
    {
      "midi": 62,
      "hit": false,
      "t": 78406.07999999891,
      "d": 94.69333333332906,
      "v": 100
    },
    {
      "midi": 72,
      "hit": false,
      "t": 78406.07999999891,
      "d": 94.69333333332906,
      "v": 100
    },
    {
      "midi": 46,
      "hit": false,
      "t": 78425.01866666558,
      "d": 94.69333333331451,
      "v": 92
    },
    {
      "midi": 60,
      "hit": false,
      "t": 78510.24266666557,
      "d": 75.75466666666034,
      "v": 100
    },
    {
      "midi": 72,
      "hit": false,
      "t": 78510.24266666557,
      "d": 94.69333333331451,
      "v": 100
    },
    {
      "midi": 64,
      "hit": false,
      "t": 78519.7119999989,
      "d": 85.22399999998743,
      "v": 70
    },
    {
      "midi": 24,
      "hit": false,
      "t": 78519.7119999989,
      "d": 94.69333333331451,
      "v": 127
    },
    {
      "midi": 79,
      "hit": false,
      "t": 78519.7119999989,
      "d": 94.69333333331451,
      "v": 100
    },
    {
      "midi": 79,
      "hit": false,
      "t": 78623.87466666554,
      "d": 94.69333333332906,
      "v": 100
    },
    {
      "midi": 62,
      "hit": false,
      "t": 78633.34399999886,
      "d": 18.938666666668723,
      "v": 70
    },
    {
      "midi": 60,
      "hit": false,
      "t": 78633.34399999886,
      "d": 66.28533333333326,
      "v": 127
    },
    {
      "midi": 24,
      "hit": false,
      "t": 78633.34399999886,
      "d": 94.69333333332906,
      "v": 127
    },
    {
      "midi": 67,
      "hit": false,
      "t": 78633.34399999886,
      "d": 94.69333333332906,
      "v": 110
    },
    {
      "midi": 15,
      "hit": false,
      "t": 78633.34399999886,
      "d": 94.69333333332906,
      "v": 100
    },
    {
      "midi": 13,
      "hit": false,
      "t": 78633.34399999886,
      "d": 94.69333333332906,
      "v": 100
    },
    {
      "midi": 10,
      "hit": false,
      "t": 78633.34399999886,
      "d": 94.69333333332906,
      "v": 127
    },
    {
      "midi": 127,
      "hit": false,
      "t": 78633.34399999886,
      "d": 94.69333333332906,
      "v": 60
    },
    {
      "midi": 108,
      "hit": false,
      "t": 78633.34399999886,
      "d": 94.69333333332906,
      "v": 80
    },
    {
      "midi": 105,
      "hit": false,
      "t": 78633.34399999886,
      "d": 94.69333333332906,
      "v": 100
    },
    {
      "midi": 42,
      "hit": false,
      "t": 78633.34399999886,
      "d": 94.69333333332906,
      "v": 92
    },
    {
      "midi": 72,
      "hit": false,
      "t": 78633.34399999886,
      "d": 94.69333333332906,
      "v": 100
    },
    {
      "midi": 118,
      "hit": false,
      "t": 78633.34399999886,
      "d": 94.69333333332906,
      "v": 60
    },
    {
      "midi": 63,
      "hit": false,
      "t": 78633.34399999886,
      "d": 94.69333333332906,
      "v": 70
    },
    {
      "midi": 72,
      "hit": false,
      "t": 78737.50666666552,
      "d": 94.69333333331451,
      "v": 100
    },
    {
      "midi": 60,
      "hit": false,
      "t": 78746.97599999885,
      "d": 66.2853333333187,
      "v": 110
    },
    {
      "midi": 24,
      "hit": false,
      "t": 78746.97599999885,
      "d": 94.69333333331451,
      "v": 127
    },
    {
      "midi": 79,
      "hit": false,
      "t": 78746.97599999885,
      "d": 94.69333333331451,
      "v": 100
    },
    {
      "midi": 42,
      "hit": false,
      "t": 78756.44533333217,
      "d": 94.69333333331451,
      "v": 78
    },
    {
      "midi": 60,
      "hit": false,
      "t": 78851.13866666549,
      "d": 75.75466666666034,
      "v": 100
    },
    {
      "midi": 79,
      "hit": false,
      "t": 78851.13866666549,
      "d": 94.69333333331451,
      "v": 100
    },
    {
      "midi": 48,
      "hit": false,
      "t": 78860.60799999881,
      "d": 94.69333333331451,
      "v": 80
    },
    {
      "midi": 36,
      "hit": false,
      "t": 78860.60799999881,
      "d": 94.69333333331451,
      "v": 127
    },
    {
      "midi": 62,
      "hit": false,
      "t": 78860.60799999881,
      "d": 94.69333333331451,
      "v": 100
    },
    {
      "midi": 72,
      "hit": false,
      "t": 78860.60799999881,
      "d": 94.69333333331451,
      "v": 100
    },
    {
      "midi": 46,
      "hit": false,
      "t": 78879.54666666548,
      "d": 94.69333333329996,
      "v": 92
    },
    {
      "midi": 60,
      "hit": false,
      "t": 78964.77066666546,
      "d": 75.75466666666034,
      "v": 100
    },
    {
      "midi": 72,
      "hit": false,
      "t": 78964.77066666546,
      "d": 94.69333333332906,
      "v": 100
    },
    {
      "midi": 24,
      "hit": false,
      "t": 78974.23999999878,
      "d": 94.69333333332906,
      "v": 127
    },
    {
      "midi": 64,
      "hit": false,
      "t": 78974.23999999878,
      "d": 94.69333333332906,
      "v": 110
    },
    {
      "midi": 79,
      "hit": false,
      "t": 78974.23999999878,
      "d": 94.69333333332906,
      "v": 100
    },
    {
      "midi": 118,
      "hit": false,
      "t": 78974.23999999878,
      "d": 94.69333333332906,
      "v": 60
    },
    {
      "midi": 62,
      "hit": false,
      "t": 79087.87199999878,
      "d": 18.938666666668723,
      "v": 70
    },
    {
      "midi": 24,
      "hit": false,
      "t": 79087.87199999878,
      "d": 94.69333333334362,
      "v": 127
    },
    {
      "midi": 15,
      "hit": false,
      "t": 79087.87199999878,
      "d": 94.69333333334362,
      "v": 100
    },
    {
      "midi": 13,
      "hit": false,
      "t": 79087.87199999878,
      "d": 94.69333333334362,
      "v": 100
    },
    {
      "midi": 10,
      "hit": false,
      "t": 79087.87199999878,
      "d": 94.69333333334362,
      "v": 127
    },
    {
      "midi": 42,
      "hit": false,
      "t": 79087.87199999878,
      "d": 94.69333333334362,
      "v": 92
    },
    {
      "midi": 60,
      "hit": false,
      "t": 79192.03466666545,
      "d": 9.469333333327086,
      "v": 100
    },
    {
      "midi": 60,
      "hit": false,
      "t": 79201.50399999878,
      "d": 66.2853333333187,
      "v": 110
    },
    {
      "midi": 24,
      "hit": false,
      "t": 79201.50399999878,
      "d": 94.69333333331451,
      "v": 127
    },
    {
      "midi": 118,
      "hit": false,
      "t": 79201.50399999878,
      "d": 94.69333333331451,
      "v": 60
    },
    {
      "midi": 42,
      "hit": false,
      "t": 79210.9733333321,
      "d": 94.69333333331451,
      "v": 78
    },
    {
      "midi": 60,
      "hit": false,
      "t": 79305.66666666542,
      "d": 75.75466666666034,
      "v": 100
    },
    {
      "midi": 62,
      "hit": false,
      "t": 79315.13599999875,
      "d": 75.75466666666034,
      "v": 100
    },
    {
      "midi": 59,
      "hit": false,
      "t": 79315.13599999875,
      "d": 75.75466666666034,
      "v": 110
    },
    {
      "midi": 71,
      "hit": false,
      "t": 79315.13599999875,
      "d": 75.75466666666034,
      "v": 120
    },
    {
      "midi": 48,
      "hit": false,
      "t": 79315.13599999875,
      "d": 94.69333333332906,
      "v": 80
    },
    {
      "midi": 36,
      "hit": false,
      "t": 79315.13599999875,
      "d": 94.69333333332906,
      "v": 127
    },
    {
      "midi": 64,
      "hit": false,
      "t": 79315.13599999875,
      "d": 94.69333333332906,
      "v": 110
    },
    {
      "midi": 118,
      "hit": false,
      "t": 79315.13599999875,
      "d": 94.69333333332906,
      "v": 40
    },
    {
      "midi": 46,
      "hit": false,
      "t": 79334.07466666542,
      "d": 94.69333333331451,
      "v": 92
    },
    {
      "midi": 60,
      "hit": false,
      "t": 79419.2986666654,
      "d": 75.75466666666034,
      "v": 100
    },
    {
      "midi": 24,
      "hit": false,
      "t": 79428.76799999873,
      "d": 94.69333333332906,
      "v": 127
    },
    {
      "midi": 62,
      "hit": false,
      "t": 79428.76799999873,
      "d": 94.69333333332906,
      "v": 110
    },
    {
      "midi": 63,
      "hit": false,
      "t": 79428.76799999873,
      "d": 94.69333333332906,
      "v": 80
    },
    {
      "midi": 79,
      "hit": false,
      "t": 79532.93066666539,
      "d": 94.69333333331451,
      "v": 100
    },
    {
      "midi": 62,
      "hit": false,
      "t": 79542.39999999871,
      "d": 18.938666666668723,
      "v": 70
    },
    {
      "midi": 60,
      "hit": false,
      "t": 79542.39999999871,
      "d": 66.28533333333326,
      "v": 110
    },
    {
      "midi": 72,
      "hit": false,
      "t": 79542.39999999871,
      "d": 75.75466666666034,
      "v": 100
    },
    {
      "midi": 24,
      "hit": false,
      "t": 79542.39999999871,
      "d": 94.69333333331451,
      "v": 127
    },
    {
      "midi": 15,
      "hit": false,
      "t": 79542.39999999871,
      "d": 94.69333333331451,
      "v": 100
    },
    {
      "midi": 13,
      "hit": false,
      "t": 79542.39999999871,
      "d": 94.69333333331451,
      "v": 100
    },
    {
      "midi": 10,
      "hit": false,
      "t": 79542.39999999871,
      "d": 94.69333333331451,
      "v": 127
    },
    {
      "midi": 127,
      "hit": false,
      "t": 79542.39999999871,
      "d": 94.69333333331451,
      "v": 60
    },
    {
      "midi": 108,
      "hit": false,
      "t": 79542.39999999871,
      "d": 94.69333333331451,
      "v": 80
    },
    {
      "midi": 105,
      "hit": false,
      "t": 79542.39999999871,
      "d": 94.69333333331451,
      "v": 100
    },
    {
      "midi": 42,
      "hit": false,
      "t": 79542.39999999871,
      "d": 94.69333333331451,
      "v": 92
    },
    {
      "midi": 118,
      "hit": false,
      "t": 79542.39999999871,
      "d": 94.69333333331451,
      "v": 60
    },
    {
      "midi": 64,
      "hit": false,
      "t": 79542.39999999871,
      "d": 94.69333333331451,
      "v": 70
    },
    {
      "midi": 72,
      "hit": false,
      "t": 79646.56266666536,
      "d": 94.69333333331451,
      "v": 100
    },
    {
      "midi": 60,
      "hit": false,
      "t": 79656.03199999868,
      "d": 66.28533333333326,
      "v": 110
    },
    {
      "midi": 24,
      "hit": false,
      "t": 79656.03199999868,
      "d": 94.69333333331451,
      "v": 127
    },
    {
      "midi": 79,
      "hit": false,
      "t": 79656.03199999868,
      "d": 94.69333333331451,
      "v": 100
    },
    {
      "midi": 42,
      "hit": false,
      "t": 79665.50133333201,
      "d": 94.69333333331451,
      "v": 78
    },
    {
      "midi": 60,
      "hit": false,
      "t": 79760.19466666532,
      "d": 75.75466666666034,
      "v": 100
    },
    {
      "midi": 79,
      "hit": false,
      "t": 79769.66399999865,
      "d": 85.22399999998743,
      "v": 120
    },
    {
      "midi": 48,
      "hit": false,
      "t": 79769.66399999865,
      "d": 94.69333333331451,
      "v": 80
    },
    {
      "midi": 36,
      "hit": false,
      "t": 79769.66399999865,
      "d": 94.69333333331451,
      "v": 127
    },
    {
      "midi": 62,
      "hit": false,
      "t": 79769.66399999865,
      "d": 94.69333333331451,
      "v": 100
    },
    {
      "midi": 72,
      "hit": false,
      "t": 79769.66399999865,
      "d": 94.69333333331451,
      "v": 100
    },
    {
      "midi": 118,
      "hit": false,
      "t": 79769.66399999865,
      "d": 94.69333333331451,
      "v": 60
    },
    {
      "midi": 46,
      "hit": false,
      "t": 79788.60266666532,
      "d": 94.69333333329996,
      "v": 92
    },
    {
      "midi": 60,
      "hit": false,
      "t": 79873.82666666529,
      "d": 75.75466666666034,
      "v": 100
    },
    {
      "midi": 72,
      "hit": false,
      "t": 79873.82666666529,
      "d": 94.69333333332906,
      "v": 100
    },
    {
      "midi": 64,
      "hit": false,
      "t": 79883.29599999862,
      "d": 94.69333333332906,
      "v": 110
    },
    {
      "midi": 24,
      "hit": false,
      "t": 79883.29599999862,
      "d": 94.69333333332906,
      "v": 127
    },
    {
      "midi": 79,
      "hit": false,
      "t": 79883.29599999862,
      "d": 94.69333333332906,
      "v": 100
    },
    {
      "midi": 118,
      "hit": false,
      "t": 79883.29599999862,
      "d": 94.69333333332906,
      "v": 40
    },
    {
      "midi": 64,
      "hit": false,
      "t": 79987.45866666528,
      "d": 75.75466666666034,
      "v": 100
    },
    {
      "midi": 62,
      "hit": false,
      "t": 79996.9279999986,
      "d": 18.938666666668723,
      "v": 70
    },
    {
      "midi": 28,
      "hit": false,
      "t": 79996.9279999986,
      "d": 94.69333333331451,
      "v": 127
    },
    {
      "midi": 60,
      "hit": false,
      "t": 79996.9279999986,
      "d": 94.69333333331451,
      "v": 110
    },
    {
      "midi": 15,
      "hit": false,
      "t": 79996.9279999986,
      "d": 94.69333333331451,
      "v": 100
    },
    {
      "midi": 13,
      "hit": false,
      "t": 79996.9279999986,
      "d": 94.69333333331451,
      "v": 100
    },
    {
      "midi": 10,
      "hit": false,
      "t": 79996.9279999986,
      "d": 94.69333333331451,
      "v": 127
    },
    {
      "midi": 42,
      "hit": false,
      "t": 79996.9279999986,
      "d": 94.69333333331451,
      "v": 92
    },
    {
      "midi": 69,
      "hit": false,
      "t": 79996.9279999986,
      "d": 643.9146666664892,
      "v": 127
    },
    {
      "midi": 64,
      "hit": false,
      "t": 80110.55999999857,
      "d": 66.28533333330415,
      "v": 110
    },
    {
      "midi": 28,
      "hit": false,
      "t": 80110.55999999857,
      "d": 94.69333333329996,
      "v": 127
    },
    {
      "midi": 42,
      "hit": false,
      "t": 80120.0293333319,
      "d": 94.69333333329996,
      "v": 78
    },
    {
      "midi": 79,
      "hit": false,
      "t": 80214.7226666652,
      "d": 94.69333333331451,
      "v": 100
    },
    {
      "midi": 64,
      "hit": false,
      "t": 80224.19199999853,
      "d": 66.28533333333326,
      "v": 110
    },
    {
      "midi": 52,
      "hit": false,
      "t": 80224.19199999853,
      "d": 94.69333333331451,
      "v": 80
    },
    {
      "midi": 40,
      "hit": false,
      "t": 80224.19199999853,
      "d": 94.69333333331451,
      "v": 127
    },
    {
      "midi": 62,
      "hit": false,
      "t": 80224.19199999853,
      "d": 94.69333333331451,
      "v": 100
    },
    {
      "midi": 72,
      "hit": false,
      "t": 80224.19199999853,
      "d": 94.69333333331451,
      "v": 100
    },
    {
      "midi": 46,
      "hit": false,
      "t": 80243.1306666652,
      "d": 94.69333333329996,
      "v": 92
    },
    {
      "midi": 72,
      "hit": false,
      "t": 80328.35466666517,
      "d": 94.69333333332906,
      "v": 100
    },
    {
      "midi": 64,
      "hit": false,
      "t": 80337.8239999985,
      "d": 66.28533333333326,
      "v": 70
    },
    {
      "midi": 28,
      "hit": false,
      "t": 80337.8239999985,
      "d": 94.69333333332906,
      "v": 127
    },
    {
      "midi": 79,
      "hit": false,
      "t": 80337.8239999985,
      "d": 94.69333333332906,
      "v": 100
    },
    {
      "midi": 64,
      "hit": false,
      "t": 80441.98666666515,
      "d": 75.75466666666034,
      "v": 100
    },
    {
      "midi": 79,
      "hit": false,
      "t": 80441.98666666515,
      "d": 94.69333333331451,
      "v": 100
    },
    {
      "midi": 62,
      "hit": false,
      "t": 80451.45599999848,
      "d": 18.938666666668723,
      "v": 70
    },
    {
      "midi": 28,
      "hit": false,
      "t": 80451.45599999848,
      "d": 94.69333333331451,
      "v": 127
    },
    {
      "midi": 67,
      "hit": false,
      "t": 80451.45599999848,
      "d": 94.69333333331451,
      "v": 110
    },
    {
      "midi": 15,
      "hit": false,
      "t": 80451.45599999848,
      "d": 94.69333333331451,
      "v": 100
    },
    {
      "midi": 13,
      "hit": false,
      "t": 80451.45599999848,
      "d": 94.69333333331451,
      "v": 100
    },
    {
      "midi": 10,
      "hit": false,
      "t": 80451.45599999848,
      "d": 94.69333333331451,
      "v": 127
    },
    {
      "midi": 127,
      "hit": false,
      "t": 80451.45599999848,
      "d": 94.69333333331451,
      "v": 60
    },
    {
      "midi": 108,
      "hit": false,
      "t": 80451.45599999848,
      "d": 94.69333333331451,
      "v": 80
    },
    {
      "midi": 105,
      "hit": false,
      "t": 80451.45599999848,
      "d": 94.69333333331451,
      "v": 100
    },
    {
      "midi": 42,
      "hit": false,
      "t": 80451.45599999848,
      "d": 94.69333333331451,
      "v": 92
    },
    {
      "midi": 72,
      "hit": false,
      "t": 80451.45599999848,
      "d": 94.69333333331451,
      "v": 100
    },
    {
      "midi": 118,
      "hit": false,
      "t": 80451.45599999848,
      "d": 94.69333333331451,
      "v": 60
    },
    {
      "midi": 63,
      "hit": false,
      "t": 80451.45599999848,
      "d": 94.69333333331451,
      "v": 70
    },
    {
      "midi": 72,
      "hit": false,
      "t": 80555.61866666512,
      "d": 94.69333333329996,
      "v": 100
    },
    {
      "midi": 64,
      "hit": false,
      "t": 80565.08799999845,
      "d": 66.2853333333187,
      "v": 110
    },
    {
      "midi": 28,
      "hit": false,
      "t": 80565.08799999845,
      "d": 94.69333333329996,
      "v": 127
    },
    {
      "midi": 79,
      "hit": false,
      "t": 80565.08799999845,
      "d": 94.69333333329996,
      "v": 100
    },
    {
      "midi": 42,
      "hit": false,
      "t": 80574.55733333177,
      "d": 94.69333333329996,
      "v": 78
    },
    {
      "midi": 64,
      "hit": false,
      "t": 80669.25066666507,
      "d": 75.75466666666034,
      "v": 100
    },
    {
      "midi": 79,
      "hit": false,
      "t": 80669.25066666507,
      "d": 94.69333333331451,
      "v": 100
    },
    {
      "midi": 52,
      "hit": false,
      "t": 80678.7199999984,
      "d": 94.69333333331451,
      "v": 80
    },
    {
      "midi": 40,
      "hit": false,
      "t": 80678.7199999984,
      "d": 94.69333333331451,
      "v": 127
    },
    {
      "midi": 67,
      "hit": false,
      "t": 80678.7199999984,
      "d": 94.69333333331451,
      "v": 110
    },
    {
      "midi": 62,
      "hit": false,
      "t": 80678.7199999984,
      "d": 94.69333333331451,
      "v": 100
    },
    {
      "midi": 72,
      "hit": false,
      "t": 80678.7199999984,
      "d": 94.69333333331451,
      "v": 100
    },
    {
      "midi": 46,
      "hit": false,
      "t": 80697.65866666507,
      "d": 94.69333333329996,
      "v": 92
    },
    {
      "midi": 64,
      "hit": false,
      "t": 80782.88266666504,
      "d": 75.75466666666034,
      "v": 100
    },
    {
      "midi": 72,
      "hit": false,
      "t": 80782.88266666504,
      "d": 94.69333333332906,
      "v": 100
    },
    {
      "midi": 28,
      "hit": false,
      "t": 80792.35199999837,
      "d": 94.69333333332906,
      "v": 127
    },
    {
      "midi": 60,
      "hit": false,
      "t": 80792.35199999837,
      "d": 94.69333333332906,
      "v": 110
    },
    {
      "midi": 79,
      "hit": false,
      "t": 80792.35199999837,
      "d": 94.69333333332906,
      "v": 100
    },
    {
      "midi": 118,
      "hit": false,
      "t": 80792.35199999837,
      "d": 94.69333333332906,
      "v": 60
    },
    {
      "midi": 79,
      "hit": false,
      "t": 80896.51466666503,
      "d": 94.69333333332906,
      "v": 100
    },
    {
      "midi": 62,
      "hit": false,
      "t": 80905.98399999835,
      "d": 18.938666666668723,
      "v": 70
    },
    {
      "midi": 28,
      "hit": false,
      "t": 80905.98399999835,
      "d": 94.69333333332906,
      "v": 127
    },
    {
      "midi": 15,
      "hit": false,
      "t": 80905.98399999835,
      "d": 94.69333333332906,
      "v": 100
    },
    {
      "midi": 13,
      "hit": false,
      "t": 80905.98399999835,
      "d": 94.69333333332906,
      "v": 100
    },
    {
      "midi": 10,
      "hit": false,
      "t": 80905.98399999835,
      "d": 94.69333333332906,
      "v": 127
    },
    {
      "midi": 42,
      "hit": false,
      "t": 80905.98399999835,
      "d": 94.69333333332906,
      "v": 92
    },
    {
      "midi": 72,
      "hit": false,
      "t": 80905.98399999835,
      "d": 94.69333333332906,
      "v": 100
    },
    {
      "midi": 64,
      "hit": false,
      "t": 81010.14666666501,
      "d": 75.75466666664579,
      "v": 100
    },
    {
      "midi": 72,
      "hit": false,
      "t": 81010.14666666501,
      "d": 94.69333333331451,
      "v": 100
    },
    {
      "midi": 62,
      "hit": false,
      "t": 81019.61599999834,
      "d": 18.93866666665417,
      "v": 70
    },
    {
      "midi": 28,
      "hit": false,
      "t": 81019.61599999834,
      "d": 94.69333333331451,
      "v": 127
    },
    {
      "midi": 60,
      "hit": false,
      "t": 81019.61599999834,
      "d": 94.69333333331451,
      "v": 110
    },
    {
      "midi": 79,
      "hit": false,
      "t": 81019.61599999834,
      "d": 94.69333333331451,
      "v": 100
    },
    {
      "midi": 118,
      "hit": false,
      "t": 81019.61599999834,
      "d": 94.69333333331451,
      "v": 60
    },
    {
      "midi": 42,
      "hit": false,
      "t": 81029.08533333166,
      "d": 94.69333333331451,
      "v": 78
    },
    {
      "midi": 64,
      "hit": false,
      "t": 81133.2479999983,
      "d": 66.28533333333326,
      "v": 110
    },
    {
      "midi": 52,
      "hit": false,
      "t": 81133.2479999983,
      "d": 94.69333333332906,
      "v": 80
    },
    {
      "midi": 40,
      "hit": false,
      "t": 81133.2479999983,
      "d": 94.69333333332906,
      "v": 127
    },
    {
      "midi": 62,
      "hit": false,
      "t": 81133.2479999983,
      "d": 94.69333333332906,
      "v": 100
    },
    {
      "midi": 118,
      "hit": false,
      "t": 81133.2479999983,
      "d": 94.69333333332906,
      "v": 40
    },
    {
      "midi": 46,
      "hit": false,
      "t": 81152.18666666497,
      "d": 94.69333333331451,
      "v": 92
    },
    {
      "midi": 64,
      "hit": false,
      "t": 81246.87999999829,
      "d": 66.28533333333326,
      "v": 110
    },
    {
      "midi": 28,
      "hit": false,
      "t": 81246.87999999829,
      "d": 94.69333333332906,
      "v": 127
    },
    {
      "midi": 63,
      "hit": false,
      "t": 81246.87999999829,
      "d": 94.69333333332906,
      "v": 80
    },
    {
      "midi": 79,
      "hit": false,
      "t": 81351.04266666494,
      "d": 94.69333333331451,
      "v": 100
    },
    {
      "midi": 62,
      "hit": false,
      "t": 81360.51199999827,
      "d": 18.938666666668723,
      "v": 70
    },
    {
      "midi": 64,
      "hit": false,
      "t": 81360.51199999827,
      "d": 66.28533333333326,
      "v": 70
    },
    {
      "midi": 28,
      "hit": false,
      "t": 81360.51199999827,
      "d": 94.69333333331451,
      "v": 127
    },
    {
      "midi": 67,
      "hit": false,
      "t": 81360.51199999827,
      "d": 94.69333333331451,
      "v": 110
    },
    {
      "midi": 15,
      "hit": false,
      "t": 81360.51199999827,
      "d": 94.69333333331451,
      "v": 100
    },
    {
      "midi": 13,
      "hit": false,
      "t": 81360.51199999827,
      "d": 94.69333333331451,
      "v": 100
    },
    {
      "midi": 10,
      "hit": false,
      "t": 81360.51199999827,
      "d": 94.69333333331451,
      "v": 127
    },
    {
      "midi": 127,
      "hit": false,
      "t": 81360.51199999827,
      "d": 94.69333333331451,
      "v": 60
    },
    {
      "midi": 108,
      "hit": false,
      "t": 81360.51199999827,
      "d": 94.69333333331451,
      "v": 80
    },
    {
      "midi": 105,
      "hit": false,
      "t": 81360.51199999827,
      "d": 94.69333333331451,
      "v": 100
    },
    {
      "midi": 42,
      "hit": false,
      "t": 81360.51199999827,
      "d": 94.69333333331451,
      "v": 92
    },
    {
      "midi": 72,
      "hit": false,
      "t": 81360.51199999827,
      "d": 94.69333333331451,
      "v": 100
    },
    {
      "midi": 118,
      "hit": false,
      "t": 81360.51199999827,
      "d": 94.69333333331451,
      "v": 60
    },
    {
      "midi": 72,
      "hit": false,
      "t": 81464.67466666491,
      "d": 94.69333333331451,
      "v": 100
    },
    {
      "midi": 79,
      "hit": false,
      "t": 81474.14399999824,
      "d": 37.877333333322895,
      "v": 100
    },
    {
      "midi": 64,
      "hit": false,
      "t": 81474.14399999824,
      "d": 66.2853333333187,
      "v": 110
    },
    {
      "midi": 28,
      "hit": false,
      "t": 81474.14399999824,
      "d": 94.69333333331451,
      "v": 127
    },
    {
      "midi": 42,
      "hit": false,
      "t": 81483.61333333157,
      "d": 94.69333333331451,
      "v": 78
    },
    {
      "midi": 64,
      "hit": false,
      "t": 81578.30666666488,
      "d": 75.75466666666034,
      "v": 100
    },
    {
      "midi": 79,
      "hit": false,
      "t": 81578.30666666488,
      "d": 94.69333333331451,
      "v": 100
    },
    {
      "midi": 59,
      "hit": false,
      "t": 81587.77599999821,
      "d": 75.75466666666034,
      "v": 110
    },
    {
      "midi": 71,
      "hit": false,
      "t": 81587.77599999821,
      "d": 75.75466666666034,
      "v": 120
    },
    {
      "midi": 52,
      "hit": false,
      "t": 81587.77599999821,
      "d": 94.69333333331451,
      "v": 80
    },
    {
      "midi": 40,
      "hit": false,
      "t": 81587.77599999821,
      "d": 94.69333333331451,
      "v": 127
    },
    {
      "midi": 67,
      "hit": false,
      "t": 81587.77599999821,
      "d": 94.69333333331451,
      "v": 110
    },
    {
      "midi": 62,
      "hit": false,
      "t": 81587.77599999821,
      "d": 94.69333333331451,
      "v": 100
    },
    {
      "midi": 15,
      "hit": false,
      "t": 81587.77599999821,
      "d": 94.69333333331451,
      "v": 100
    },
    {
      "midi": 13,
      "hit": false,
      "t": 81587.77599999821,
      "d": 94.69333333331451,
      "v": 100
    },
    {
      "midi": 10,
      "hit": false,
      "t": 81587.77599999821,
      "d": 94.69333333331451,
      "v": 127
    },
    {
      "midi": 72,
      "hit": false,
      "t": 81587.77599999821,
      "d": 94.69333333331451,
      "v": 100
    },
    {
      "midi": 118,
      "hit": false,
      "t": 81587.77599999821,
      "d": 94.69333333331451,
      "v": 60
    },
    {
      "midi": 46,
      "hit": false,
      "t": 81606.71466666488,
      "d": 94.69333333329996,
      "v": 92
    },
    {
      "midi": 64,
      "hit": false,
      "t": 81691.93866666485,
      "d": 75.75466666666034,
      "v": 100
    },
    {
      "midi": 72,
      "hit": false,
      "t": 81691.93866666485,
      "d": 94.69333333332906,
      "v": 100
    },
    {
      "midi": 28,
      "hit": false,
      "t": 81701.40799999818,
      "d": 94.69333333332906,
      "v": 127
    },
    {
      "midi": 60,
      "hit": false,
      "t": 81701.40799999818,
      "d": 94.69333333332906,
      "v": 110
    },
    {
      "midi": 79,
      "hit": false,
      "t": 81701.40799999818,
      "d": 94.69333333332906,
      "v": 100
    },
    {
      "midi": 118,
      "hit": false,
      "t": 81701.40799999818,
      "d": 94.69333333332906,
      "v": 40
    },
    {
      "midi": 65,
      "hit": false,
      "t": 81815.03999999816,
      "d": 18.93866666665417,
      "v": 70
    },
    {
      "midi": 29,
      "hit": false,
      "t": 81815.03999999816,
      "d": 94.69333333329996,
      "v": 127
    },
    {
      "midi": 15,
      "hit": false,
      "t": 81815.03999999816,
      "d": 94.69333333329996,
      "v": 100
    },
    {
      "midi": 13,
      "hit": false,
      "t": 81815.03999999816,
      "d": 94.69333333329996,
      "v": 100
    },
    {
      "midi": 10,
      "hit": false,
      "t": 81815.03999999816,
      "d": 94.69333333329996,
      "v": 127
    },
    {
      "midi": 42,
      "hit": false,
      "t": 81815.03999999816,
      "d": 94.69333333329996,
      "v": 92
    },
    {
      "midi": 60,
      "hit": false,
      "t": 81815.03999999816,
      "d": 1022.6879999998055,
      "v": 110
    },
    {
      "midi": 65,
      "hit": false,
      "t": 81919.20266666479,
      "d": 75.75466666664579,
      "v": 100
    },
    {
      "midi": 29,
      "hit": false,
      "t": 81928.67199999811,
      "d": 94.69333333331451,
      "v": 127
    },
    {
      "midi": 69,
      "hit": false,
      "t": 81928.67199999811,
      "d": 94.69333333331451,
      "v": 110
    },
    {
      "midi": 42,
      "hit": false,
      "t": 81938.14133333144,
      "d": 94.69333333331451,
      "v": 78
    },
    {
      "midi": 72,
      "hit": false,
      "t": 82032.83466666476,
      "d": 94.69333333332906,
      "v": 120
    },
    {
      "midi": 65,
      "hit": false,
      "t": 82042.30399999808,
      "d": 66.28533333333326,
      "v": 100
    },
    {
      "midi": 53,
      "hit": false,
      "t": 82042.30399999808,
      "d": 94.69333333332906,
      "v": 80
    },
    {
      "midi": 41,
      "hit": false,
      "t": 82042.30399999808,
      "d": 94.69333333332906,
      "v": 127
    },
    {
      "midi": 69,
      "hit": false,
      "t": 82042.30399999808,
      "d": 94.69333333332906,
      "v": 110
    },
    {
      "midi": 79,
      "hit": false,
      "t": 82042.30399999808,
      "d": 94.69333333332906,
      "v": 120
    },
    {
      "midi": 46,
      "hit": false,
      "t": 82061.24266666475,
      "d": 94.69333333331451,
      "v": 92
    },
    {
      "midi": 79,
      "hit": false,
      "t": 82146.46666666474,
      "d": 94.69333333332906,
      "v": 120
    },
    {
      "midi": 65,
      "hit": false,
      "t": 82155.93599999807,
      "d": 66.28533333333326,
      "v": 110
    },
    {
      "midi": 29,
      "hit": false,
      "t": 82155.93599999807,
      "d": 94.69333333332906,
      "v": 127
    },
    {
      "midi": 72,
      "hit": false,
      "t": 82155.93599999807,
      "d": 94.69333333332906,
      "v": 120
    },
    {
      "midi": 64,
      "hit": false,
      "t": 82155.93599999807,
      "d": 94.69333333332906,
      "v": 70
    },
    {
      "midi": 72,
      "hit": false,
      "t": 82260.09866666472,
      "d": 94.69333333331451,
      "v": 90
    },
    {
      "midi": 65,
      "hit": false,
      "t": 82269.56799999805,
      "d": 18.938666666668723,
      "v": 70
    },
    {
      "midi": 29,
      "hit": false,
      "t": 82269.56799999805,
      "d": 94.69333333331451,
      "v": 127
    },
    {
      "midi": 69,
      "hit": false,
      "t": 82269.56799999805,
      "d": 94.69333333331451,
      "v": 110
    },
    {
      "midi": 15,
      "hit": false,
      "t": 82269.56799999805,
      "d": 94.69333333331451,
      "v": 100
    },
    {
      "midi": 13,
      "hit": false,
      "t": 82269.56799999805,
      "d": 94.69333333331451,
      "v": 100
    },
    {
      "midi": 10,
      "hit": false,
      "t": 82269.56799999805,
      "d": 94.69333333331451,
      "v": 127
    },
    {
      "midi": 127,
      "hit": false,
      "t": 82269.56799999805,
      "d": 94.69333333331451,
      "v": 60
    },
    {
      "midi": 108,
      "hit": false,
      "t": 82269.56799999805,
      "d": 94.69333333331451,
      "v": 80
    },
    {
      "midi": 105,
      "hit": false,
      "t": 82269.56799999805,
      "d": 94.69333333331451,
      "v": 100
    },
    {
      "midi": 42,
      "hit": false,
      "t": 82269.56799999805,
      "d": 94.69333333331451,
      "v": 92
    },
    {
      "midi": 79,
      "hit": false,
      "t": 82269.56799999805,
      "d": 94.69333333331451,
      "v": 90
    },
    {
      "midi": 118,
      "hit": false,
      "t": 82269.56799999805,
      "d": 94.69333333331451,
      "v": 60
    },
    {
      "midi": 63,
      "hit": false,
      "t": 82269.56799999805,
      "d": 94.69333333331451,
      "v": 70
    },
    {
      "midi": 65,
      "hit": false,
      "t": 82373.73066666469,
      "d": 75.75466666664579,
      "v": 100
    },
    {
      "midi": 79,
      "hit": false,
      "t": 82373.73066666469,
      "d": 94.69333333331451,
      "v": 120
    },
    {
      "midi": 29,
      "hit": false,
      "t": 82383.19999999802,
      "d": 94.69333333331451,
      "v": 127
    },
    {
      "midi": 72,
      "hit": false,
      "t": 82383.19999999802,
      "d": 94.69333333331451,
      "v": 120
    },
    {
      "midi": 42,
      "hit": false,
      "t": 82392.66933333135,
      "d": 94.69333333331451,
      "v": 78
    },
    {
      "midi": 72,
      "hit": false,
      "t": 82487.36266666466,
      "d": 94.69333333332906,
      "v": 120
    },
    {
      "midi": 65,
      "hit": false,
      "t": 82496.83199999799,
      "d": 66.28533333333326,
      "v": 100
    },
    {
      "midi": 53,
      "hit": false,
      "t": 82496.83199999799,
      "d": 94.69333333332906,
      "v": 80
    },
    {
      "midi": 41,
      "hit": false,
      "t": 82496.83199999799,
      "d": 94.69333333332906,
      "v": 127
    },
    {
      "midi": 69,
      "hit": false,
      "t": 82496.83199999799,
      "d": 94.69333333332906,
      "v": 110
    },
    {
      "midi": 79,
      "hit": false,
      "t": 82496.83199999799,
      "d": 94.69333333332906,
      "v": 120
    },
    {
      "midi": 46,
      "hit": false,
      "t": 82515.77066666466,
      "d": 94.69333333331451,
      "v": 92
    },
    {
      "midi": 65,
      "hit": false,
      "t": 82610.46399999797,
      "d": 66.28533333333326,
      "v": 110
    },
    {
      "midi": 29,
      "hit": false,
      "t": 82610.46399999797,
      "d": 94.69333333332906,
      "v": 127
    },
    {
      "midi": 118,
      "hit": false,
      "t": 82610.46399999797,
      "d": 94.69333333332906,
      "v": 60
    },
    {
      "midi": 65,
      "hit": false,
      "t": 82724.09599999797,
      "d": 18.938666666668723,
      "v": 70
    },
    {
      "midi": 29,
      "hit": false,
      "t": 82724.09599999797,
      "d": 94.69333333334362,
      "v": 127
    },
    {
      "midi": 15,
      "hit": false,
      "t": 82724.09599999797,
      "d": 94.69333333334362,
      "v": 100
    },
    {
      "midi": 13,
      "hit": false,
      "t": 82724.09599999797,
      "d": 94.69333333334362,
      "v": 100
    },
    {
      "midi": 10,
      "hit": false,
      "t": 82724.09599999797,
      "d": 94.69333333334362,
      "v": 127
    },
    {
      "midi": 42,
      "hit": false,
      "t": 82724.09599999797,
      "d": 94.69333333334362,
      "v": 92
    },
    {
      "midi": 72,
      "hit": false,
      "t": 82724.09599999797,
      "d": 113.63199999999779,
      "v": 127
    },
    {
      "midi": 65,
      "hit": false,
      "t": 82837.72799999797,
      "d": 18.93866666665417,
      "v": 70
    },
    {
      "midi": 29,
      "hit": false,
      "t": 82837.72799999797,
      "d": 94.69333333331451,
      "v": 127
    },
    {
      "midi": 69,
      "hit": false,
      "t": 82837.72799999797,
      "d": 94.69333333331451,
      "v": 110
    },
    {
      "midi": 118,
      "hit": false,
      "t": 82837.72799999797,
      "d": 94.69333333331451,
      "v": 60
    },
    {
      "midi": 42,
      "hit": false,
      "t": 82847.19733333129,
      "d": 94.69333333331451,
      "v": 78
    },
    {
      "midi": 65,
      "hit": false,
      "t": 82951.35999999793,
      "d": 66.28533333333326,
      "v": 100
    },
    {
      "midi": 59,
      "hit": false,
      "t": 82951.35999999793,
      "d": 75.75466666666034,
      "v": 110
    },
    {
      "midi": 71,
      "hit": false,
      "t": 82951.35999999793,
      "d": 75.75466666666034,
      "v": 120
    },
    {
      "midi": 53,
      "hit": false,
      "t": 82951.35999999793,
      "d": 94.69333333332906,
      "v": 80
    },
    {
      "midi": 41,
      "hit": false,
      "t": 82951.35999999793,
      "d": 94.69333333332906,
      "v": 127
    },
    {
      "midi": 69,
      "hit": false,
      "t": 82951.35999999793,
      "d": 94.69333333332906,
      "v": 110
    },
    {
      "midi": 118,
      "hit": false,
      "t": 82951.35999999793,
      "d": 94.69333333332906,
      "v": 40
    },
    {
      "midi": 46,
      "hit": false,
      "t": 82970.2986666646,
      "d": 94.69333333331451,
      "v": 92
    },
    {
      "midi": 79,
      "hit": false,
      "t": 83055.52266666459,
      "d": 94.69333333332906,
      "v": 120
    },
    {
      "midi": 65,
      "hit": false,
      "t": 83064.99199999792,
      "d": 66.28533333333326,
      "v": 110
    },
    {
      "midi": 29,
      "hit": false,
      "t": 83064.99199999792,
      "d": 94.69333333332906,
      "v": 127
    },
    {
      "midi": 72,
      "hit": false,
      "t": 83064.99199999792,
      "d": 94.69333333332906,
      "v": 120
    },
    {
      "midi": 63,
      "hit": false,
      "t": 83064.99199999792,
      "d": 94.69333333332906,
      "v": 80
    },
    {
      "midi": 65,
      "hit": false,
      "t": 83178.6239999979,
      "d": 18.938666666668723,
      "v": 70
    },
    {
      "midi": 60,
      "hit": false,
      "t": 83178.6239999979,
      "d": 75.75466666666034,
      "v": 110
    },
    {
      "midi": 72,
      "hit": false,
      "t": 83178.6239999979,
      "d": 75.75466666666034,
      "v": 120
    },
    {
      "midi": 29,
      "hit": false,
      "t": 83178.6239999979,
      "d": 94.69333333331451,
      "v": 127
    },
    {
      "midi": 69,
      "hit": false,
      "t": 83178.6239999979,
      "d": 94.69333333331451,
      "v": 110
    },
    {
      "midi": 15,
      "hit": false,
      "t": 83178.6239999979,
      "d": 94.69333333331451,
      "v": 100
    },
    {
      "midi": 13,
      "hit": false,
      "t": 83178.6239999979,
      "d": 94.69333333331451,
      "v": 100
    },
    {
      "midi": 10,
      "hit": false,
      "t": 83178.6239999979,
      "d": 94.69333333331451,
      "v": 127
    },
    {
      "midi": 127,
      "hit": false,
      "t": 83178.6239999979,
      "d": 94.69333333331451,
      "v": 60
    },
    {
      "midi": 108,
      "hit": false,
      "t": 83178.6239999979,
      "d": 94.69333333331451,
      "v": 80
    },
    {
      "midi": 105,
      "hit": false,
      "t": 83178.6239999979,
      "d": 94.69333333331451,
      "v": 100
    },
    {
      "midi": 42,
      "hit": false,
      "t": 83178.6239999979,
      "d": 94.69333333331451,
      "v": 92
    },
    {
      "midi": 79,
      "hit": false,
      "t": 83178.6239999979,
      "d": 94.69333333331451,
      "v": 120
    },
    {
      "midi": 118,
      "hit": false,
      "t": 83178.6239999979,
      "d": 94.69333333331451,
      "v": 60
    },
    {
      "midi": 64,
      "hit": false,
      "t": 83178.6239999979,
      "d": 94.69333333331451,
      "v": 70
    },
    {
      "midi": 65,
      "hit": false,
      "t": 83282.78666666454,
      "d": 75.75466666666034,
      "v": 100
    },
    {
      "midi": 79,
      "hit": false,
      "t": 83282.78666666454,
      "d": 94.69333333332906,
      "v": 90
    },
    {
      "midi": 29,
      "hit": false,
      "t": 83292.25599999787,
      "d": 94.69333333332906,
      "v": 127
    },
    {
      "midi": 72,
      "hit": false,
      "t": 83292.25599999787,
      "d": 94.69333333332906,
      "v": 90
    },
    {
      "midi": 42,
      "hit": false,
      "t": 83301.7253333312,
      "d": 94.69333333332906,
      "v": 78
    },
    {
      "midi": 72,
      "hit": false,
      "t": 83396.41866666453,
      "d": 94.69333333331451,
      "v": 120
    },
    {
      "midi": 65,
      "hit": false,
      "t": 83405.88799999785,
      "d": 66.28533333333326,
      "v": 100
    },
    {
      "midi": 53,
      "hit": false,
      "t": 83405.88799999785,
      "d": 94.69333333331451,
      "v": 80
    },
    {
      "midi": 41,
      "hit": false,
      "t": 83405.88799999785,
      "d": 94.69333333331451,
      "v": 127
    },
    {
      "midi": 69,
      "hit": false,
      "t": 83405.88799999785,
      "d": 94.69333333331451,
      "v": 110
    },
    {
      "midi": 79,
      "hit": false,
      "t": 83405.88799999785,
      "d": 94.69333333331451,
      "v": 120
    },
    {
      "midi": 118,
      "hit": false,
      "t": 83405.88799999785,
      "d": 94.69333333331451,
      "v": 60
    },
    {
      "midi": 46,
      "hit": false,
      "t": 83424.82666666452,
      "d": 94.69333333329996,
      "v": 92
    },
    {
      "midi": 79,
      "hit": false,
      "t": 83510.0506666645,
      "d": 94.69333333332906,
      "v": 120
    },
    {
      "midi": 65,
      "hit": false,
      "t": 83519.51999999782,
      "d": 66.28533333333326,
      "v": 110
    },
    {
      "midi": 29,
      "hit": false,
      "t": 83519.51999999782,
      "d": 94.69333333332906,
      "v": 127
    },
    {
      "midi": 72,
      "hit": false,
      "t": 83519.51999999782,
      "d": 94.69333333332906,
      "v": 120
    },
    {
      "midi": 118,
      "hit": false,
      "t": 83519.51999999782,
      "d": 94.69333333332906,
      "v": 40
    },
    {
      "midi": 67,
      "hit": false,
      "t": 83623.68266666448,
      "d": 75.75466666663124,
      "v": 100
    },
    {
      "midi": 62,
      "hit": false,
      "t": 83633.1519999978,
      "d": 18.938666666668723,
      "v": 70
    },
    {
      "midi": 31,
      "hit": false,
      "t": 83633.1519999978,
      "d": 94.69333333329996,
      "v": 127
    },
    {
      "midi": 15,
      "hit": false,
      "t": 83633.1519999978,
      "d": 94.69333333329996,
      "v": 100
    },
    {
      "midi": 13,
      "hit": false,
      "t": 83633.1519999978,
      "d": 94.69333333329996,
      "v": 100
    },
    {
      "midi": 10,
      "hit": false,
      "t": 83633.1519999978,
      "d": 94.69333333329996,
      "v": 127
    },
    {
      "midi": 42,
      "hit": false,
      "t": 83633.1519999978,
      "d": 94.69333333329996,
      "v": 92
    },
    {
      "midi": 67,
      "hit": false,
      "t": 83737.31466666443,
      "d": 75.75466666666034,
      "v": 100
    },
    {
      "midi": 31,
      "hit": false,
      "t": 83746.78399999776,
      "d": 94.69333333332906,
      "v": 127
    },
    {
      "midi": 59,
      "hit": false,
      "t": 83746.78399999776,
      "d": 94.69333333332906,
      "v": 110
    },
    {
      "midi": 42,
      "hit": false,
      "t": 83756.25333333109,
      "d": 94.69333333332906,
      "v": 78
    },
    {
      "midi": 67,
      "hit": false,
      "t": 83850.94666666441,
      "d": 75.75466666666034,
      "v": 100
    },
    {
      "midi": 55,
      "hit": false,
      "t": 83860.41599999774,
      "d": 94.69333333332906,
      "v": 80
    },
    {
      "midi": 43,
      "hit": false,
      "t": 83860.41599999774,
      "d": 94.69333333332906,
      "v": 127
    },
    {
      "midi": 62,
      "hit": false,
      "t": 83860.41599999774,
      "d": 94.69333333332906,
      "v": 100
    },
    {
      "midi": 77,
      "hit": false,
      "t": 83860.41599999774,
      "d": 227.26399999996647,
      "v": 120
    },
    {
      "midi": 65,
      "hit": false,
      "t": 83860.41599999774,
      "d": 227.26399999996647,
      "v": 110
    },
    {
      "midi": 46,
      "hit": false,
      "t": 83879.35466666441,
      "d": 94.69333333331451,
      "v": 92
    },
    {
      "midi": 72,
      "hit": false,
      "t": 83964.5786666644,
      "d": 94.69333333332906,
      "v": 120
    },
    {
      "midi": 67,
      "hit": false,
      "t": 83974.04799999773,
      "d": 66.28533333333326,
      "v": 110
    },
    {
      "midi": 31,
      "hit": false,
      "t": 83974.04799999773,
      "d": 94.69333333332906,
      "v": 127
    },
    {
      "midi": 79,
      "hit": false,
      "t": 83974.04799999773,
      "d": 94.69333333332906,
      "v": 120
    },
    {
      "midi": 64,
      "hit": false,
      "t": 83974.04799999773,
      "d": 94.69333333332906,
      "v": 70
    },
    {
      "midi": 67,
      "hit": false,
      "t": 84078.21066666438,
      "d": 75.75466666666034,
      "v": 100
    },
    {
      "midi": 79,
      "hit": false,
      "t": 84078.21066666438,
      "d": 94.69333333332906,
      "v": 120
    },
    {
      "midi": 62,
      "hit": false,
      "t": 84087.67999999771,
      "d": 18.938666666668723,
      "v": 70
    },
    {
      "midi": 31,
      "hit": false,
      "t": 84087.67999999771,
      "d": 94.69333333332906,
      "v": 127
    },
    {
      "midi": 71,
      "hit": false,
      "t": 84087.67999999771,
      "d": 94.69333333332906,
      "v": 110
    },
    {
      "midi": 15,
      "hit": false,
      "t": 84087.67999999771,
      "d": 94.69333333332906,
      "v": 100
    },
    {
      "midi": 13,
      "hit": false,
      "t": 84087.67999999771,
      "d": 94.69333333332906,
      "v": 100
    },
    {
      "midi": 10,
      "hit": false,
      "t": 84087.67999999771,
      "d": 94.69333333332906,
      "v": 127
    },
    {
      "midi": 127,
      "hit": false,
      "t": 84087.67999999771,
      "d": 94.69333333332906,
      "v": 60
    },
    {
      "midi": 108,
      "hit": false,
      "t": 84087.67999999771,
      "d": 94.69333333332906,
      "v": 80
    },
    {
      "midi": 105,
      "hit": false,
      "t": 84087.67999999771,
      "d": 94.69333333332906,
      "v": 100
    },
    {
      "midi": 42,
      "hit": false,
      "t": 84087.67999999771,
      "d": 94.69333333332906,
      "v": 92
    },
    {
      "midi": 72,
      "hit": false,
      "t": 84087.67999999771,
      "d": 94.69333333332906,
      "v": 120
    },
    {
      "midi": 118,
      "hit": false,
      "t": 84087.67999999771,
      "d": 94.69333333332906,
      "v": 60
    },
    {
      "midi": 63,
      "hit": false,
      "t": 84087.67999999771,
      "d": 94.69333333332906,
      "v": 70
    },
    {
      "midi": 72,
      "hit": false,
      "t": 84191.84266666436,
      "d": 94.69333333329996,
      "v": 90
    },
    {
      "midi": 67,
      "hit": false,
      "t": 84201.31199999769,
      "d": 66.2853333333187,
      "v": 110
    },
    {
      "midi": 31,
      "hit": false,
      "t": 84201.31199999769,
      "d": 94.69333333329996,
      "v": 127
    },
    {
      "midi": 79,
      "hit": false,
      "t": 84201.31199999769,
      "d": 94.69333333329996,
      "v": 90
    },
    {
      "midi": 42,
      "hit": false,
      "t": 84210.78133333102,
      "d": 94.69333333329996,
      "v": 78
    },
    {
      "midi": 67,
      "hit": false,
      "t": 84305.47466666432,
      "d": 75.75466666666034,
      "v": 100
    },
    {
      "midi": 79,
      "hit": false,
      "t": 84305.47466666432,
      "d": 94.69333333332906,
      "v": 120
    },
    {
      "midi": 55,
      "hit": false,
      "t": 84314.94399999765,
      "d": 94.69333333332906,
      "v": 80
    },
    {
      "midi": 43,
      "hit": false,
      "t": 84314.94399999765,
      "d": 94.69333333332906,
      "v": 127
    },
    {
      "midi": 62,
      "hit": false,
      "t": 84314.94399999765,
      "d": 94.69333333332906,
      "v": 100
    },
    {
      "midi": 72,
      "hit": false,
      "t": 84314.94399999765,
      "d": 94.69333333332906,
      "v": 120
    },
    {
      "midi": 64,
      "hit": false,
      "t": 84314.94399999765,
      "d": 208.32533333329775,
      "v": 110
    },
    {
      "midi": 76,
      "hit": false,
      "t": 84314.94399999765,
      "d": 227.26399999995192,
      "v": 120
    },
    {
      "midi": 46,
      "hit": false,
      "t": 84333.88266666431,
      "d": 94.69333333331451,
      "v": 92
    },
    {
      "midi": 67,
      "hit": false,
      "t": 84419.1066666643,
      "d": 75.75466666666034,
      "v": 100
    },
    {
      "midi": 72,
      "hit": false,
      "t": 84419.1066666643,
      "d": 94.69333333331451,
      "v": 90
    },
    {
      "midi": 31,
      "hit": false,
      "t": 84428.57599999763,
      "d": 94.69333333331451,
      "v": 127
    },
    {
      "midi": 59,
      "hit": false,
      "t": 84428.57599999763,
      "d": 94.69333333331451,
      "v": 110
    },
    {
      "midi": 79,
      "hit": false,
      "t": 84428.57599999763,
      "d": 94.69333333331451,
      "v": 90
    },
    {
      "midi": 118,
      "hit": false,
      "t": 84428.57599999763,
      "d": 94.69333333331451,
      "v": 60
    },
    {
      "midi": 80,
      "hit": false,
      "t": 84532.73866666427,
      "d": 94.69333333332906,
      "v": 120
    },
    {
      "midi": 62,
      "hit": false,
      "t": 84542.2079999976,
      "d": 18.938666666668723,
      "v": 70
    },
    {
      "midi": 68,
      "hit": false,
      "t": 84542.2079999976,
      "d": 66.28533333333326,
      "v": 127
    },
    {
      "midi": 32,
      "hit": false,
      "t": 84542.2079999976,
      "d": 94.69333333332906,
      "v": 127
    },
    {
      "midi": 15,
      "hit": false,
      "t": 84542.2079999976,
      "d": 94.69333333332906,
      "v": 100
    },
    {
      "midi": 13,
      "hit": false,
      "t": 84542.2079999976,
      "d": 94.69333333332906,
      "v": 100
    },
    {
      "midi": 10,
      "hit": false,
      "t": 84542.2079999976,
      "d": 94.69333333332906,
      "v": 127
    },
    {
      "midi": 42,
      "hit": false,
      "t": 84542.2079999976,
      "d": 94.69333333332906,
      "v": 92
    },
    {
      "midi": 72,
      "hit": false,
      "t": 84542.2079999976,
      "d": 94.69333333332906,
      "v": 120
    },
    {
      "midi": 68,
      "hit": false,
      "t": 84646.37066666425,
      "d": 75.75466666664579,
      "v": 100
    },
    {
      "midi": 72,
      "hit": false,
      "t": 84646.37066666425,
      "d": 94.69333333331451,
      "v": 120
    },
    {
      "midi": 32,
      "hit": false,
      "t": 84655.83999999758,
      "d": 94.69333333331451,
      "v": 127
    },
    {
      "midi": 80,
      "hit": false,
      "t": 84655.83999999758,
      "d": 94.69333333331451,
      "v": 120
    },
    {
      "midi": 118,
      "hit": false,
      "t": 84655.83999999758,
      "d": 94.69333333331451,
      "v": 60
    },
    {
      "midi": 42,
      "hit": false,
      "t": 84665.30933333091,
      "d": 94.69333333331451,
      "v": 78
    },
    {
      "midi": 68,
      "hit": false,
      "t": 84760.00266666422,
      "d": 75.75466666666034,
      "v": 100
    },
    {
      "midi": 80,
      "hit": false,
      "t": 84760.00266666422,
      "d": 94.69333333331451,
      "v": 90
    },
    {
      "midi": 74,
      "hit": false,
      "t": 84769.47199999755,
      "d": 75.75466666666034,
      "v": 120
    },
    {
      "midi": 62,
      "hit": false,
      "t": 84769.47199999755,
      "d": 75.75466666666034,
      "v": 100
    },
    {
      "midi": 56,
      "hit": false,
      "t": 84769.47199999755,
      "d": 94.69333333331451,
      "v": 80
    },
    {
      "midi": 44,
      "hit": false,
      "t": 84769.47199999755,
      "d": 94.69333333331451,
      "v": 127
    },
    {
      "midi": 76,
      "hit": false,
      "t": 84769.47199999755,
      "d": 94.69333333331451,
      "v": 110
    },
    {
      "midi": 105,
      "hit": false,
      "t": 84769.47199999755,
      "d": 94.69333333331451,
      "v": 100
    },
    {
      "midi": 108,
      "hit": false,
      "t": 84769.47199999755,
      "d": 94.69333333331451,
      "v": 80
    },
    {
      "midi": 127,
      "hit": false,
      "t": 84769.47199999755,
      "d": 94.69333333331451,
      "v": 60
    },
    {
      "midi": 72,
      "hit": false,
      "t": 84769.47199999755,
      "d": 94.69333333331451,
      "v": 90
    },
    {
      "midi": 118,
      "hit": false,
      "t": 84769.47199999755,
      "d": 94.69333333331451,
      "v": 40
    },
    {
      "midi": 46,
      "hit": false,
      "t": 84788.41066666422,
      "d": 94.69333333329996,
      "v": 92
    },
    {
      "midi": 68,
      "hit": false,
      "t": 84873.63466666419,
      "d": 75.75466666666034,
      "v": 100
    },
    {
      "midi": 72,
      "hit": false,
      "t": 84873.63466666419,
      "d": 94.69333333332906,
      "v": 120
    },
    {
      "midi": 32,
      "hit": false,
      "t": 84883.10399999752,
      "d": 94.69333333332906,
      "v": 127
    },
    {
      "midi": 74,
      "hit": false,
      "t": 84883.10399999752,
      "d": 94.69333333332906,
      "v": 110
    },
    {
      "midi": 80,
      "hit": false,
      "t": 84883.10399999752,
      "d": 94.69333333332906,
      "v": 120
    },
    {
      "midi": 63,
      "hit": false,
      "t": 84883.10399999752,
      "d": 94.69333333332906,
      "v": 80
    },
    {
      "midi": 68,
      "hit": false,
      "t": 84987.26666666417,
      "d": 75.75466666666034,
      "v": 100
    },
    {
      "midi": 80,
      "hit": false,
      "t": 84987.26666666417,
      "d": 94.69333333331451,
      "v": 120
    },
    {
      "midi": 62,
      "hit": false,
      "t": 84996.7359999975,
      "d": 18.938666666668723,
      "v": 70
    },
    {
      "midi": 32,
      "hit": false,
      "t": 84996.7359999975,
      "d": 94.69333333331451,
      "v": 127
    },
    {
      "midi": 71,
      "hit": false,
      "t": 84996.7359999975,
      "d": 94.69333333331451,
      "v": 120
    },
    {
      "midi": 15,
      "hit": false,
      "t": 84996.7359999975,
      "d": 94.69333333331451,
      "v": 100
    },
    {
      "midi": 13,
      "hit": false,
      "t": 84996.7359999975,
      "d": 94.69333333331451,
      "v": 100
    },
    {
      "midi": 10,
      "hit": false,
      "t": 84996.7359999975,
      "d": 94.69333333331451,
      "v": 127
    },
    {
      "midi": 105,
      "hit": false,
      "t": 84996.7359999975,
      "d": 94.69333333331451,
      "v": 100
    },
    {
      "midi": 108,
      "hit": false,
      "t": 84996.7359999975,
      "d": 94.69333333331451,
      "v": 80
    },
    {
      "midi": 127,
      "hit": false,
      "t": 84996.7359999975,
      "d": 94.69333333331451,
      "v": 60
    },
    {
      "midi": 42,
      "hit": false,
      "t": 84996.7359999975,
      "d": 94.69333333331451,
      "v": 92
    },
    {
      "midi": 72,
      "hit": false,
      "t": 84996.7359999975,
      "d": 94.69333333331451,
      "v": 120
    },
    {
      "midi": 118,
      "hit": false,
      "t": 84996.7359999975,
      "d": 94.69333333331451,
      "v": 60
    },
    {
      "midi": 64,
      "hit": false,
      "t": 84996.7359999975,
      "d": 94.69333333331451,
      "v": 70
    },
    {
      "midi": 59,
      "hit": false,
      "t": 84996.7359999975,
      "d": 189.38666666661447,
      "v": 110
    },
    {
      "midi": 72,
      "hit": false,
      "t": 85100.89866666414,
      "d": 94.69333333329996,
      "v": 90
    },
    {
      "midi": 68,
      "hit": false,
      "t": 85110.36799999747,
      "d": 66.2853333333187,
      "v": 110
    },
    {
      "midi": 56,
      "hit": false,
      "t": 85110.36799999747,
      "d": 94.69333333329996,
      "v": 80
    },
    {
      "midi": 44,
      "hit": false,
      "t": 85110.36799999747,
      "d": 94.69333333329996,
      "v": 127
    },
    {
      "midi": 105,
      "hit": false,
      "t": 85110.36799999747,
      "d": 94.69333333329996,
      "v": 100
    },
    {
      "midi": 108,
      "hit": false,
      "t": 85110.36799999747,
      "d": 94.69333333329996,
      "v": 80
    },
    {
      "midi": 127,
      "hit": false,
      "t": 85110.36799999747,
      "d": 94.69333333329996,
      "v": 60
    },
    {
      "midi": 80,
      "hit": false,
      "t": 85110.36799999747,
      "d": 94.69333333329996,
      "v": 90
    },
    {
      "midi": 42,
      "hit": false,
      "t": 85119.8373333308,
      "d": 94.69333333329996,
      "v": 78
    },
    {
      "midi": 68,
      "hit": false,
      "t": 85223.99999999742,
      "d": 66.28533333333326,
      "v": 127
    },
    {
      "midi": 59,
      "hit": false,
      "t": 85223.99999999742,
      "d": 94.69333333332906,
      "v": 127
    },
    {
      "midi": 52,
      "hit": false,
      "t": 85223.99999999742,
      "d": 94.69333333332906,
      "v": 80
    },
    {
      "midi": 40,
      "hit": false,
      "t": 85223.99999999742,
      "d": 94.69333333332906,
      "v": 127
    },
    {
      "midi": 64,
      "hit": false,
      "t": 85223.99999999742,
      "d": 94.69333333332906,
      "v": 110
    },
    {
      "midi": 15,
      "hit": false,
      "t": 85223.99999999742,
      "d": 94.69333333332906,
      "v": 100
    },
    {
      "midi": 13,
      "hit": false,
      "t": 85223.99999999742,
      "d": 94.69333333332906,
      "v": 100
    },
    {
      "midi": 10,
      "hit": false,
      "t": 85223.99999999742,
      "d": 94.69333333332906,
      "v": 127
    },
    {
      "midi": 118,
      "hit": false,
      "t": 85223.99999999742,
      "d": 94.69333333332906,
      "v": 60
    },
    {
      "midi": 46,
      "hit": false,
      "t": 85242.9386666641,
      "d": 94.69333333331451,
      "v": 92
    },
    {
      "midi": 68,
      "hit": false,
      "t": 85328.16266666408,
      "d": 75.75466666666034,
      "v": 100
    },
    {
      "midi": 59,
      "hit": false,
      "t": 85337.63199999741,
      "d": 94.69333333332906,
      "v": 110
    },
    {
      "midi": 39,
      "hit": false,
      "t": 85337.63199999741,
      "d": 94.69333333332906,
      "v": 127
    },
    {
      "midi": 118,
      "hit": false,
      "t": 85337.63199999741,
      "d": 94.69333333332906,
      "v": 40
    },
    {
      "midi": 59,
      "hit": false,
      "t": 85451.26399999739,
      "d": 18.938666666668723,
      "v": 70
    },
    {
      "midi": 69,
      "hit": false,
      "t": 85451.26399999739,
      "d": 66.28533333333326,
      "v": 127
    },
    {
      "midi": 33,
      "hit": false,
      "t": 85451.26399999739,
      "d": 94.69333333332906,
      "v": 127
    },
    {
      "midi": 15,
      "hit": false,
      "t": 85451.26399999739,
      "d": 94.69333333332906,
      "v": 100
    },
    {
      "midi": 13,
      "hit": false,
      "t": 85451.26399999739,
      "d": 94.69333333332906,
      "v": 100
    },
    {
      "midi": 10,
      "hit": false,
      "t": 85451.26399999739,
      "d": 94.69333333332906,
      "v": 127
    },
    {
      "midi": 42,
      "hit": false,
      "t": 85451.26399999739,
      "d": 94.69333333332906,
      "v": 92
    },
    {
      "midi": 60,
      "hit": false,
      "t": 85451.26399999739,
      "d": 303.01866666658316,
      "v": 127
    },
    {
      "midi": 55,
      "hit": false,
      "t": 85451.26399999739,
      "d": 426.1199999998789,
      "v": 70
    },
    {
      "midi": 72,
      "hit": false,
      "t": 85451.26399999739,
      "d": 473.46666666651436,
      "v": 120
    },
    {
      "midi": 69,
      "hit": false,
      "t": 85555.42666666405,
      "d": 75.75466666664579,
      "v": 100
    },
    {
      "midi": 33,
      "hit": false,
      "t": 85564.89599999737,
      "d": 94.69333333331451,
      "v": 127
    },
    {
      "midi": 57,
      "hit": false,
      "t": 85564.89599999737,
      "d": 94.69333333331451,
      "v": 110
    },
    {
      "midi": 42,
      "hit": false,
      "t": 85574.3653333307,
      "d": 94.69333333331451,
      "v": 78
    },
    {
      "midi": 69,
      "hit": false,
      "t": 85669.05866666402,
      "d": 75.75466666663124,
      "v": 100
    },
    {
      "midi": 76,
      "hit": false,
      "t": 85669.05866666402,
      "d": 94.69333333328541,
      "v": 120
    },
    {
      "midi": 45,
      "hit": false,
      "t": 85678.52799999734,
      "d": 94.69333333328541,
      "v": 127
    },
    {
      "midi": 59,
      "hit": false,
      "t": 85678.52799999734,
      "d": 94.69333333328541,
      "v": 100
    },
    {
      "midi": 64,
      "hit": false,
      "t": 85678.52799999734,
      "d": 94.69333333328541,
      "v": 120
    },
    {
      "midi": 57,
      "hit": false,
      "t": 85687.99733333067,
      "d": 85.22399999995832,
      "v": 120
    },
    {
      "midi": 46,
      "hit": false,
      "t": 85697.466666664,
      "d": 94.69333333328541,
      "v": 92
    },
    {
      "midi": 57,
      "hit": false,
      "t": 85782.69066666396,
      "d": 94.69333333331451,
      "v": 120
    },
    {
      "midi": 69,
      "hit": false,
      "t": 85792.15999999728,
      "d": 66.2853333333187,
      "v": 110
    },
    {
      "midi": 33,
      "hit": false,
      "t": 85792.15999999728,
      "d": 94.69333333331451,
      "v": 127
    },
    {
      "midi": 64,
      "hit": false,
      "t": 85792.15999999728,
      "d": 94.69333333331451,
      "v": 70
    },
    {
      "midi": 76,
      "hit": false,
      "t": 85801.62933333061,
      "d": 94.69333333331451,
      "v": 120
    },
    {
      "midi": 69,
      "hit": false,
      "t": 85896.32266666392,
      "d": 75.75466666664579,
      "v": 100
    },
    {
      "midi": 76,
      "hit": false,
      "t": 85896.32266666392,
      "d": 94.69333333331451,
      "v": 120
    },
    {
      "midi": 59,
      "hit": false,
      "t": 85905.79199999725,
      "d": 18.93866666665417,
      "v": 70
    },
    {
      "midi": 33,
      "hit": false,
      "t": 85905.79199999725,
      "d": 94.69333333331451,
      "v": 127
    },
    {
      "midi": 15,
      "hit": false,
      "t": 85905.79199999725,
      "d": 94.69333333331451,
      "v": 100
    },
    {
      "midi": 13,
      "hit": false,
      "t": 85905.79199999725,
      "d": 94.69333333331451,
      "v": 100
    },
    {
      "midi": 10,
      "hit": false,
      "t": 85905.79199999725,
      "d": 94.69333333331451,
      "v": 127
    },
    {
      "midi": 127,
      "hit": false,
      "t": 85905.79199999725,
      "d": 94.69333333331451,
      "v": 60
    },
    {
      "midi": 108,
      "hit": false,
      "t": 85905.79199999725,
      "d": 94.69333333331451,
      "v": 80
    },
    {
      "midi": 105,
      "hit": false,
      "t": 85905.79199999725,
      "d": 94.69333333331451,
      "v": 100
    },
    {
      "midi": 42,
      "hit": false,
      "t": 85905.79199999725,
      "d": 94.69333333331451,
      "v": 92
    },
    {
      "midi": 64,
      "hit": false,
      "t": 85905.79199999725,
      "d": 94.69333333331451,
      "v": 120
    },
    {
      "midi": 118,
      "hit": false,
      "t": 85905.79199999725,
      "d": 94.69333333331451,
      "v": 60
    },
    {
      "midi": 63,
      "hit": false,
      "t": 85905.79199999725,
      "d": 94.69333333331451,
      "v": 70
    },
    {
      "midi": 62,
      "hit": false,
      "t": 85905.79199999725,
      "d": 303.0186666665977,
      "v": 127
    },
    {
      "midi": 57,
      "hit": false,
      "t": 85915.26133333058,
      "d": 85.22399999998743,
      "v": 120
    },
    {
      "midi": 69,
      "hit": false,
      "t": 86009.95466666389,
      "d": 75.75466666666034,
      "v": 100
    },
    {
      "midi": 57,
      "hit": false,
      "t": 86019.42399999722,
      "d": 85.22399999998743,
      "v": 110
    },
    {
      "midi": 33,
      "hit": false,
      "t": 86019.42399999722,
      "d": 94.69333333331451,
      "v": 127
    },
    {
      "midi": 64,
      "hit": false,
      "t": 86019.42399999722,
      "d": 94.69333333331451,
      "v": 120
    },
    {
      "midi": 42,
      "hit": false,
      "t": 86028.89333333055,
      "d": 94.69333333331451,
      "v": 78
    },
    {
      "midi": 76,
      "hit": false,
      "t": 86028.89333333055,
      "d": 94.69333333331451,
      "v": 120
    },
    {
      "midi": 69,
      "hit": false,
      "t": 86133.05599999719,
      "d": 66.28533333333326,
      "v": 110
    },
    {
      "midi": 57,
      "hit": false,
      "t": 86133.05599999719,
      "d": 94.69333333332906,
      "v": 80
    },
    {
      "midi": 45,
      "hit": false,
      "t": 86133.05599999719,
      "d": 94.69333333332906,
      "v": 127
    },
    {
      "midi": 59,
      "hit": false,
      "t": 86133.05599999719,
      "d": 94.69333333332906,
      "v": 100
    },
    {
      "midi": 71,
      "hit": false,
      "t": 86133.05599999719,
      "d": 94.69333333332906,
      "v": 120
    },
    {
      "midi": 46,
      "hit": false,
      "t": 86151.99466666386,
      "d": 94.69333333331451,
      "v": 92
    },
    {
      "midi": 69,
      "hit": false,
      "t": 86237.21866666384,
      "d": 75.75466666666034,
      "v": 100
    },
    {
      "midi": 72,
      "hit": false,
      "t": 86246.68799999717,
      "d": 37.87733333333745,
      "v": 120
    },
    {
      "midi": 60,
      "hit": false,
      "t": 86246.68799999717,
      "d": 37.87733333333745,
      "v": 110
    },
    {
      "midi": 33,
      "hit": false,
      "t": 86246.68799999717,
      "d": 94.69333333332906,
      "v": 127
    },
    {
      "midi": 57,
      "hit": false,
      "t": 86246.68799999717,
      "d": 94.69333333332906,
      "v": 110
    },
    {
      "midi": 118,
      "hit": false,
      "t": 86246.68799999717,
      "d": 94.69333333332906,
      "v": 60
    },
    {
      "midi": 59,
      "hit": false,
      "t": 86360.31999999715,
      "d": 18.938666666668723,
      "v": 70
    },
    {
      "midi": 68,
      "hit": false,
      "t": 86360.31999999715,
      "d": 66.28533333333326,
      "v": 127
    },
    {
      "midi": 32,
      "hit": false,
      "t": 86360.31999999715,
      "d": 94.69333333332906,
      "v": 127
    },
    {
      "midi": 15,
      "hit": false,
      "t": 86360.31999999715,
      "d": 94.69333333332906,
      "v": 100
    },
    {
      "midi": 13,
      "hit": false,
      "t": 86360.31999999715,
      "d": 94.69333333332906,
      "v": 100
    },
    {
      "midi": 10,
      "hit": false,
      "t": 86360.31999999715,
      "d": 94.69333333332906,
      "v": 127
    },
    {
      "midi": 42,
      "hit": false,
      "t": 86360.31999999715,
      "d": 94.69333333332906,
      "v": 92
    },
    {
      "midi": 74,
      "hit": false,
      "t": 86360.31999999715,
      "d": 473.4666666665289,
      "v": 120
    },
    {
      "midi": 62,
      "hit": false,
      "t": 86360.31999999715,
      "d": 473.4666666665289,
      "v": 127
    },
    {
      "midi": 68,
      "hit": false,
      "t": 86464.48266666381,
      "d": 75.75466666664579,
      "v": 100
    },
    {
      "midi": 32,
      "hit": false,
      "t": 86473.95199999714,
      "d": 94.69333333331451,
      "v": 127
    },
    {
      "midi": 56,
      "hit": false,
      "t": 86473.95199999714,
      "d": 94.69333333331451,
      "v": 110
    },
    {
      "midi": 118,
      "hit": false,
      "t": 86473.95199999714,
      "d": 94.69333333331451,
      "v": 60
    },
    {
      "midi": 42,
      "hit": false,
      "t": 86483.42133333047,
      "d": 94.69333333331451,
      "v": 78
    },
    {
      "midi": 68,
      "hit": false,
      "t": 86578.11466666378,
      "d": 75.75466666664579,
      "v": 100
    },
    {
      "midi": 76,
      "hit": false,
      "t": 86578.11466666378,
      "d": 94.69333333329996,
      "v": 120
    },
    {
      "midi": 64,
      "hit": false,
      "t": 86587.5839999971,
      "d": 75.75466666664579,
      "v": 120
    },
    {
      "midi": 56,
      "hit": false,
      "t": 86587.5839999971,
      "d": 94.69333333329996,
      "v": 110
    },
    {
      "midi": 44,
      "hit": false,
      "t": 86587.5839999971,
      "d": 94.69333333329996,
      "v": 127
    },
    {
      "midi": 59,
      "hit": false,
      "t": 86587.5839999971,
      "d": 94.69333333329996,
      "v": 100
    },
    {
      "midi": 118,
      "hit": false,
      "t": 86587.5839999971,
      "d": 94.69333333329996,
      "v": 40
    },
    {
      "midi": 57,
      "hit": false,
      "t": 86597.05333333043,
      "d": 94.69333333329996,
      "v": 120
    },
    {
      "midi": 46,
      "hit": false,
      "t": 86606.52266666376,
      "d": 94.69333333329996,
      "v": 92
    },
    {
      "midi": 57,
      "hit": false,
      "t": 86691.74666666373,
      "d": 94.69333333331451,
      "v": 120
    },
    {
      "midi": 68,
      "hit": false,
      "t": 86701.21599999706,
      "d": 66.2853333333187,
      "v": 110
    },
    {
      "midi": 32,
      "hit": false,
      "t": 86701.21599999706,
      "d": 94.69333333331451,
      "v": 127
    },
    {
      "midi": 64,
      "hit": false,
      "t": 86701.21599999706,
      "d": 94.69333333331451,
      "v": 120
    },
    {
      "midi": 63,
      "hit": false,
      "t": 86701.21599999706,
      "d": 94.69333333331451,
      "v": 80
    },
    {
      "midi": 76,
      "hit": false,
      "t": 86710.68533333039,
      "d": 94.69333333331451,
      "v": 120
    },
    {
      "midi": 68,
      "hit": false,
      "t": 86805.3786666637,
      "d": 75.75466666664579,
      "v": 100
    },
    {
      "midi": 76,
      "hit": false,
      "t": 86805.3786666637,
      "d": 94.69333333331451,
      "v": 120
    },
    {
      "midi": 59,
      "hit": false,
      "t": 86814.84799999703,
      "d": 18.93866666665417,
      "v": 70
    },
    {
      "midi": 32,
      "hit": false,
      "t": 86814.84799999703,
      "d": 94.69333333331451,
      "v": 127
    },
    {
      "midi": 56,
      "hit": false,
      "t": 86814.84799999703,
      "d": 94.69333333331451,
      "v": 110
    },
    {
      "midi": 15,
      "hit": false,
      "t": 86814.84799999703,
      "d": 94.69333333331451,
      "v": 100
    },
    {
      "midi": 13,
      "hit": false,
      "t": 86814.84799999703,
      "d": 94.69333333331451,
      "v": 100
    },
    {
      "midi": 10,
      "hit": false,
      "t": 86814.84799999703,
      "d": 94.69333333331451,
      "v": 127
    },
    {
      "midi": 127,
      "hit": false,
      "t": 86814.84799999703,
      "d": 94.69333333331451,
      "v": 60
    },
    {
      "midi": 108,
      "hit": false,
      "t": 86814.84799999703,
      "d": 94.69333333331451,
      "v": 80
    },
    {
      "midi": 105,
      "hit": false,
      "t": 86814.84799999703,
      "d": 94.69333333331451,
      "v": 100
    },
    {
      "midi": 42,
      "hit": false,
      "t": 86814.84799999703,
      "d": 94.69333333331451,
      "v": 92
    },
    {
      "midi": 64,
      "hit": false,
      "t": 86814.84799999703,
      "d": 94.69333333331451,
      "v": 70
    },
    {
      "midi": 118,
      "hit": false,
      "t": 86814.84799999703,
      "d": 94.69333333331451,
      "v": 60
    },
    {
      "midi": 57,
      "hit": false,
      "t": 86824.31733333036,
      "d": 94.69333333331451,
      "v": 120
    },
    {
      "midi": 68,
      "hit": false,
      "t": 86919.01066666367,
      "d": 75.75466666664579,
      "v": 100
    },
    {
      "midi": 57,
      "hit": false,
      "t": 86919.01066666367,
      "d": 94.69333333331451,
      "v": 120
    },
    {
      "midi": 32,
      "hit": false,
      "t": 86928.479999997,
      "d": 94.69333333331451,
      "v": 127
    },
    {
      "midi": 56,
      "hit": false,
      "t": 86928.479999997,
      "d": 94.69333333331451,
      "v": 110
    },
    {
      "midi": 64,
      "hit": false,
      "t": 86928.479999997,
      "d": 94.69333333331451,
      "v": 120
    },
    {
      "midi": 42,
      "hit": false,
      "t": 86937.94933333033,
      "d": 94.69333333331451,
      "v": 78
    },
    {
      "midi": 76,
      "hit": false,
      "t": 86937.94933333033,
      "d": 94.69333333331451,
      "v": 120
    },
    {
      "midi": 72,
      "hit": false,
      "t": 87042.11199999697,
      "d": 56.81600000000617,
      "v": 120
    },
    {
      "midi": 60,
      "hit": false,
      "t": 87042.11199999697,
      "d": 56.81600000000617,
      "v": 110
    },
    {
      "midi": 68,
      "hit": false,
      "t": 87042.11199999697,
      "d": 66.28533333333326,
      "v": 110
    },
    {
      "midi": 56,
      "hit": false,
      "t": 87042.11199999697,
      "d": 94.69333333332906,
      "v": 80
    },
    {
      "midi": 44,
      "hit": false,
      "t": 87042.11199999697,
      "d": 94.69333333332906,
      "v": 127
    },
    {
      "midi": 59,
      "hit": false,
      "t": 87042.11199999697,
      "d": 94.69333333332906,
      "v": 100
    },
    {
      "midi": 118,
      "hit": false,
      "t": 87042.11199999697,
      "d": 94.69333333332906,
      "v": 60
    },
    {
      "midi": 46,
      "hit": false,
      "t": 87061.05066666364,
      "d": 94.69333333331451,
      "v": 92
    },
    {
      "midi": 68,
      "hit": false,
      "t": 87146.27466666362,
      "d": 75.75466666666034,
      "v": 100
    },
    {
      "midi": 62,
      "hit": false,
      "t": 87155.74399999695,
      "d": 75.75466666666034,
      "v": 110
    },
    {
      "midi": 32,
      "hit": false,
      "t": 87155.74399999695,
      "d": 94.69333333332906,
      "v": 127
    },
    {
      "midi": 56,
      "hit": false,
      "t": 87155.74399999695,
      "d": 94.69333333332906,
      "v": 110
    },
    {
      "midi": 74,
      "hit": false,
      "t": 87155.74399999695,
      "d": 94.69333333332906,
      "v": 120
    },
    {
      "midi": 118,
      "hit": false,
      "t": 87155.74399999695,
      "d": 94.69333333332906,
      "v": 40
    },
    {
      "midi": 59,
      "hit": false,
      "t": 87269.37599999693,
      "d": 18.938666666668723,
      "v": 70
    },
    {
      "midi": 67,
      "hit": false,
      "t": 87269.37599999693,
      "d": 66.28533333333326,
      "v": 127
    },
    {
      "midi": 31,
      "hit": false,
      "t": 87269.37599999693,
      "d": 94.69333333332906,
      "v": 127
    },
    {
      "midi": 15,
      "hit": false,
      "t": 87269.37599999693,
      "d": 94.69333333332906,
      "v": 100
    },
    {
      "midi": 13,
      "hit": false,
      "t": 87269.37599999693,
      "d": 94.69333333332906,
      "v": 100
    },
    {
      "midi": 10,
      "hit": false,
      "t": 87269.37599999693,
      "d": 94.69333333332906,
      "v": 127
    },
    {
      "midi": 42,
      "hit": false,
      "t": 87269.37599999693,
      "d": 94.69333333332906,
      "v": 92
    },
    {
      "midi": 76,
      "hit": false,
      "t": 87269.37599999693,
      "d": 643.9146666665183,
      "v": 120
    },
    {
      "midi": 67,
      "hit": false,
      "t": 87373.53866666359,
      "d": 75.75466666664579,
      "v": 100
    },
    {
      "midi": 31,
      "hit": false,
      "t": 87383.00799999692,
      "d": 94.69333333331451,
      "v": 127
    },
    {
      "midi": 55,
      "hit": false,
      "t": 87383.00799999692,
      "d": 94.69333333331451,
      "v": 110
    },
    {
      "midi": 42,
      "hit": false,
      "t": 87392.47733333024,
      "d": 94.69333333331451,
      "v": 78
    },
    {
      "midi": 67,
      "hit": false,
      "t": 87487.17066666356,
      "d": 75.75466666666034,
      "v": 120
    },
    {
      "midi": 62,
      "hit": false,
      "t": 87496.63999999689,
      "d": 75.75466666666034,
      "v": 120
    },
    {
      "midi": 55,
      "hit": false,
      "t": 87496.63999999689,
      "d": 94.69333333331451,
      "v": 110
    },
    {
      "midi": 43,
      "hit": false,
      "t": 87496.63999999689,
      "d": 94.69333333331451,
      "v": 127
    },
    {
      "midi": 59,
      "hit": false,
      "t": 87496.63999999689,
      "d": 94.69333333331451,
      "v": 100
    },
    {
      "midi": 46,
      "hit": false,
      "t": 87515.57866666355,
      "d": 94.69333333329996,
      "v": 92
    },
    {
      "midi": 62,
      "hit": false,
      "t": 87600.80266666353,
      "d": 94.69333333331451,
      "v": 120
    },
    {
      "midi": 67,
      "hit": false,
      "t": 87610.27199999685,
      "d": 66.28533333333326,
      "v": 120
    },
    {
      "midi": 31,
      "hit": false,
      "t": 87610.27199999685,
      "d": 94.69333333331451,
      "v": 127
    },
    {
      "midi": 64,
      "hit": false,
      "t": 87610.27199999685,
      "d": 94.69333333331451,
      "v": 70
    },
    {
      "midi": 67,
      "hit": false,
      "t": 87714.4346666635,
      "d": 75.75466666666034,
      "v": 120
    },
    {
      "midi": 59,
      "hit": false,
      "t": 87723.90399999682,
      "d": 18.938666666668723,
      "v": 70
    },
    {
      "midi": 31,
      "hit": false,
      "t": 87723.90399999682,
      "d": 94.69333333332906,
      "v": 127
    },
    {
      "midi": 55,
      "hit": false,
      "t": 87723.90399999682,
      "d": 94.69333333332906,
      "v": 110
    },
    {
      "midi": 15,
      "hit": false,
      "t": 87723.90399999682,
      "d": 94.69333333332906,
      "v": 100
    },
    {
      "midi": 13,
      "hit": false,
      "t": 87723.90399999682,
      "d": 94.69333333332906,
      "v": 100
    },
    {
      "midi": 10,
      "hit": false,
      "t": 87723.90399999682,
      "d": 94.69333333332906,
      "v": 127
    },
    {
      "midi": 127,
      "hit": false,
      "t": 87723.90399999682,
      "d": 94.69333333332906,
      "v": 60
    },
    {
      "midi": 108,
      "hit": false,
      "t": 87723.90399999682,
      "d": 94.69333333332906,
      "v": 80
    },
    {
      "midi": 105,
      "hit": false,
      "t": 87723.90399999682,
      "d": 94.69333333332906,
      "v": 100
    },
    {
      "midi": 42,
      "hit": false,
      "t": 87723.90399999682,
      "d": 94.69333333332906,
      "v": 92
    },
    {
      "midi": 62,
      "hit": false,
      "t": 87723.90399999682,
      "d": 94.69333333332906,
      "v": 120
    },
    {
      "midi": 118,
      "hit": false,
      "t": 87723.90399999682,
      "d": 94.69333333332906,
      "v": 60
    },
    {
      "midi": 63,
      "hit": false,
      "t": 87723.90399999682,
      "d": 94.69333333332906,
      "v": 70
    },
    {
      "midi": 64,
      "hit": false,
      "t": 87723.90399999682,
      "d": 189.38666666662903,
      "v": 127
    },
    {
      "midi": 62,
      "hit": false,
      "t": 87828.06666666348,
      "d": 94.69333333329996,
      "v": 120
    },
    {
      "midi": 67,
      "hit": false,
      "t": 87837.5359999968,
      "d": 66.2853333333187,
      "v": 120
    },
    {
      "midi": 31,
      "hit": false,
      "t": 87837.5359999968,
      "d": 94.69333333329996,
      "v": 127
    },
    {
      "midi": 55,
      "hit": false,
      "t": 87837.5359999968,
      "d": 94.69333333329996,
      "v": 110
    },
    {
      "midi": 42,
      "hit": false,
      "t": 87847.00533333013,
      "d": 94.69333333329996,
      "v": 78
    },
    {
      "midi": 67,
      "hit": false,
      "t": 87951.16799999676,
      "d": 66.28533333333326,
      "v": 110
    },
    {
      "midi": 74,
      "hit": false,
      "t": 87951.16799999676,
      "d": 75.75466666666034,
      "v": 120
    },
    {
      "midi": 62,
      "hit": false,
      "t": 87951.16799999676,
      "d": 75.75466666666034,
      "v": 110
    },
    {
      "midi": 55,
      "hit": false,
      "t": 87951.16799999676,
      "d": 94.69333333332906,
      "v": 80
    },
    {
      "midi": 43,
      "hit": false,
      "t": 87951.16799999676,
      "d": 94.69333333332906,
      "v": 127
    },
    {
      "midi": 59,
      "hit": false,
      "t": 87951.16799999676,
      "d": 94.69333333332906,
      "v": 100
    },
    {
      "midi": 46,
      "hit": false,
      "t": 87970.10666666343,
      "d": 94.69333333331451,
      "v": 92
    },
    {
      "midi": 67,
      "hit": false,
      "t": 88055.33066666342,
      "d": 75.75466666666034,
      "v": 100
    },
    {
      "midi": 76,
      "hit": false,
      "t": 88064.79999999674,
      "d": 56.81600000000617,
      "v": 120
    },
    {
      "midi": 64,
      "hit": false,
      "t": 88064.79999999674,
      "d": 56.81600000000617,
      "v": 110
    },
    {
      "midi": 31,
      "hit": false,
      "t": 88064.79999999674,
      "d": 94.69333333332906,
      "v": 127
    },
    {
      "midi": 55,
      "hit": false,
      "t": 88064.79999999674,
      "d": 94.69333333332906,
      "v": 110
    },
    {
      "midi": 118,
      "hit": false,
      "t": 88064.79999999674,
      "d": 94.69333333332906,
      "v": 60
    },
    {
      "midi": 59,
      "hit": false,
      "t": 88178.43199999673,
      "d": 18.938666666668723,
      "v": 70
    },
    {
      "midi": 78,
      "hit": false,
      "t": 88178.43199999673,
      "d": 56.81600000000617,
      "v": 120
    },
    {
      "midi": 66,
      "hit": false,
      "t": 88178.43199999673,
      "d": 56.81600000000617,
      "v": 127
    },
    {
      "midi": 30,
      "hit": false,
      "t": 88178.43199999673,
      "d": 94.69333333332906,
      "v": 127
    },
    {
      "midi": 15,
      "hit": false,
      "t": 88178.43199999673,
      "d": 94.69333333332906,
      "v": 100
    },
    {
      "midi": 13,
      "hit": false,
      "t": 88178.43199999673,
      "d": 94.69333333332906,
      "v": 100
    },
    {
      "midi": 10,
      "hit": false,
      "t": 88178.43199999673,
      "d": 94.69333333332906,
      "v": 127
    },
    {
      "midi": 42,
      "hit": false,
      "t": 88178.43199999673,
      "d": 94.69333333332906,
      "v": 92
    },
    {
      "midi": 66,
      "hit": false,
      "t": 88282.59466666338,
      "d": 75.75466666664579,
      "v": 100
    },
    {
      "midi": 59,
      "hit": false,
      "t": 88292.06399999671,
      "d": 18.93866666665417,
      "v": 70
    },
    {
      "midi": 30,
      "hit": false,
      "t": 88292.06399999671,
      "d": 94.69333333331451,
      "v": 127
    },
    {
      "midi": 54,
      "hit": false,
      "t": 88292.06399999671,
      "d": 94.69333333331451,
      "v": 110
    },
    {
      "midi": 118,
      "hit": false,
      "t": 88292.06399999671,
      "d": 94.69333333331451,
      "v": 60
    },
    {
      "midi": 42,
      "hit": false,
      "t": 88301.53333333004,
      "d": 94.69333333331451,
      "v": 78
    },
    {
      "midi": 66,
      "hit": false,
      "t": 88396.22666666335,
      "d": 75.75466666666034,
      "v": 100
    },
    {
      "midi": 62,
      "hit": false,
      "t": 88396.22666666335,
      "d": 94.69333333332906,
      "v": 120
    },
    {
      "midi": 79,
      "hit": false,
      "t": 88405.69599999668,
      "d": 56.81600000000617,
      "v": 120
    },
    {
      "midi": 67,
      "hit": false,
      "t": 88405.69599999668,
      "d": 56.81600000000617,
      "v": 120
    },
    {
      "midi": 54,
      "hit": false,
      "t": 88405.69599999668,
      "d": 94.69333333332906,
      "v": 110
    },
    {
      "midi": 42,
      "hit": false,
      "t": 88405.69599999668,
      "d": 94.69333333332906,
      "v": 127
    },
    {
      "midi": 59,
      "hit": false,
      "t": 88405.69599999668,
      "d": 94.69333333332906,
      "v": 100
    },
    {
      "midi": 118,
      "hit": false,
      "t": 88405.69599999668,
      "d": 94.69333333332906,
      "v": 40
    },
    {
      "midi": 46,
      "hit": false,
      "t": 88424.63466666335,
      "d": 94.69333333331451,
      "v": 92
    },
    {
      "midi": 67,
      "hit": false,
      "t": 88509.85866666333,
      "d": 94.69333333332906,
      "v": 120
    },
    {
      "midi": 59,
      "hit": false,
      "t": 88519.32799999666,
      "d": 18.938666666668723,
      "v": 70
    },
    {
      "midi": 66,
      "hit": false,
      "t": 88519.32799999666,
      "d": 66.28533333333326,
      "v": 110
    },
    {
      "midi": 30,
      "hit": false,
      "t": 88519.32799999666,
      "d": 94.69333333332906,
      "v": 127
    },
    {
      "midi": 62,
      "hit": false,
      "t": 88519.32799999666,
      "d": 94.69333333332906,
      "v": 120
    },
    {
      "midi": 63,
      "hit": false,
      "t": 88519.32799999666,
      "d": 94.69333333332906,
      "v": 80
    },
    {
      "midi": 66,
      "hit": false,
      "t": 88623.49066666332,
      "d": 75.75466666666034,
      "v": 100
    },
    {
      "midi": 62,
      "hit": false,
      "t": 88623.49066666332,
      "d": 94.69333333332906,
      "v": 120
    },
    {
      "midi": 59,
      "hit": false,
      "t": 88632.95999999664,
      "d": 18.938666666668723,
      "v": 70
    },
    {
      "midi": 30,
      "hit": false,
      "t": 88632.95999999664,
      "d": 94.69333333332906,
      "v": 127
    },
    {
      "midi": 54,
      "hit": false,
      "t": 88632.95999999664,
      "d": 94.69333333332906,
      "v": 110
    },
    {
      "midi": 15,
      "hit": false,
      "t": 88632.95999999664,
      "d": 94.69333333332906,
      "v": 100
    },
    {
      "midi": 13,
      "hit": false,
      "t": 88632.95999999664,
      "d": 94.69333333332906,
      "v": 100
    },
    {
      "midi": 10,
      "hit": false,
      "t": 88632.95999999664,
      "d": 94.69333333332906,
      "v": 127
    },
    {
      "midi": 127,
      "hit": false,
      "t": 88632.95999999664,
      "d": 94.69333333332906,
      "v": 60
    },
    {
      "midi": 108,
      "hit": false,
      "t": 88632.95999999664,
      "d": 94.69333333332906,
      "v": 80
    },
    {
      "midi": 105,
      "hit": false,
      "t": 88632.95999999664,
      "d": 94.69333333332906,
      "v": 100
    },
    {
      "midi": 42,
      "hit": false,
      "t": 88632.95999999664,
      "d": 94.69333333332906,
      "v": 92
    },
    {
      "midi": 67,
      "hit": false,
      "t": 88632.95999999664,
      "d": 94.69333333332906,
      "v": 120
    },
    {
      "midi": 118,
      "hit": false,
      "t": 88632.95999999664,
      "d": 94.69333333332906,
      "v": 60
    },
    {
      "midi": 64,
      "hit": false,
      "t": 88632.95999999664,
      "d": 94.69333333332906,
      "v": 70
    },
    {
      "midi": 69,
      "hit": false,
      "t": 88632.95999999664,
      "d": 189.38666666664358,
      "v": 110
    },
    {
      "midi": 81,
      "hit": false,
      "t": 88632.95999999664,
      "d": 340.89599999993516,
      "v": 120
    },
    {
      "midi": 66,
      "hit": false,
      "t": 88737.1226666633,
      "d": 75.75466666666034,
      "v": 100
    },
    {
      "midi": 67,
      "hit": false,
      "t": 88737.1226666633,
      "d": 94.69333333331451,
      "v": 120
    },
    {
      "midi": 30,
      "hit": false,
      "t": 88746.59199999663,
      "d": 94.69333333331451,
      "v": 127
    },
    {
      "midi": 54,
      "hit": false,
      "t": 88746.59199999663,
      "d": 94.69333333331451,
      "v": 110
    },
    {
      "midi": 62,
      "hit": false,
      "t": 88746.59199999663,
      "d": 94.69333333331451,
      "v": 120
    },
    {
      "midi": 42,
      "hit": false,
      "t": 88756.06133332996,
      "d": 94.69333333331451,
      "v": 78
    },
    {
      "midi": 66,
      "hit": false,
      "t": 88860.2239999966,
      "d": 66.28533333333326,
      "v": 110
    },
    {
      "midi": 54,
      "hit": false,
      "t": 88860.2239999966,
      "d": 94.69333333332906,
      "v": 80
    },
    {
      "midi": 42,
      "hit": false,
      "t": 88860.2239999966,
      "d": 94.69333333332906,
      "v": 127
    },
    {
      "midi": 59,
      "hit": false,
      "t": 88860.2239999966,
      "d": 94.69333333332906,
      "v": 100
    },
    {
      "midi": 15,
      "hit": false,
      "t": 88860.2239999966,
      "d": 94.69333333332906,
      "v": 100
    },
    {
      "midi": 13,
      "hit": false,
      "t": 88860.2239999966,
      "d": 94.69333333332906,
      "v": 100
    },
    {
      "midi": 10,
      "hit": false,
      "t": 88860.2239999966,
      "d": 94.69333333332906,
      "v": 127
    },
    {
      "midi": 118,
      "hit": false,
      "t": 88860.2239999966,
      "d": 94.69333333332906,
      "v": 60
    },
    {
      "midi": 46,
      "hit": false,
      "t": 88879.16266666327,
      "d": 94.69333333331451,
      "v": 92
    },
    {
      "midi": 66,
      "hit": false,
      "t": 88964.38666666325,
      "d": 75.75466666666034,
      "v": 100
    },
    {
      "midi": 30,
      "hit": false,
      "t": 88973.85599999658,
      "d": 94.69333333332906,
      "v": 127
    },
    {
      "midi": 54,
      "hit": false,
      "t": 88973.85599999658,
      "d": 94.69333333332906,
      "v": 110
    },
    {
      "midi": 118,
      "hit": false,
      "t": 88973.85599999658,
      "d": 94.69333333332906,
      "v": 40
    },
    {
      "midi": 83,
      "hit": false,
      "t": 88992.79466666325,
      "d": 94.69333333331451,
      "v": 120
    },
    {
      "midi": 71,
      "hit": false,
      "t": 88992.79466666325,
      "d": 94.69333333331451,
      "v": 110
    },
    {
      "midi": 65,
      "hit": false,
      "t": 89078.01866666324,
      "d": 75.75466666664579,
      "v": 100
    },
    {
      "midi": 57,
      "hit": false,
      "t": 89087.48799999656,
      "d": 18.938666666668723,
      "v": 60
    },
    {
      "midi": 29,
      "hit": false,
      "t": 89087.48799999656,
      "d": 94.69333333331451,
      "v": 127
    },
    {
      "midi": 60,
      "hit": false,
      "t": 89087.48799999656,
      "d": 94.69333333331451,
      "v": 127
    },
    {
      "midi": 15,
      "hit": false,
      "t": 89087.48799999656,
      "d": 94.69333333331451,
      "v": 100
    },
    {
      "midi": 13,
      "hit": false,
      "t": 89087.48799999656,
      "d": 94.69333333331451,
      "v": 100
    },
    {
      "midi": 10,
      "hit": false,
      "t": 89087.48799999656,
      "d": 94.69333333331451,
      "v": 127
    },
    {
      "midi": 42,
      "hit": false,
      "t": 89087.48799999656,
      "d": 94.69333333331451,
      "v": 92
    },
    {
      "midi": 84,
      "hit": false,
      "t": 89087.48799999656,
      "d": 871.1786666664848,
      "v": 120
    },
    {
      "midi": 65,
      "hit": false,
      "t": 89191.6506666632,
      "d": 75.75466666664579,
      "v": 100
    },
    {
      "midi": 29,
      "hit": false,
      "t": 89201.11999999653,
      "d": 94.69333333331451,
      "v": 127
    },
    {
      "midi": 57,
      "hit": false,
      "t": 89201.11999999653,
      "d": 94.69333333331451,
      "v": 90
    },
    {
      "midi": 42,
      "hit": false,
      "t": 89210.58933332986,
      "d": 94.69333333331451,
      "v": 78
    },
    {
      "midi": 65,
      "hit": false,
      "t": 89305.28266666317,
      "d": 75.75466666666034,
      "v": 120
    },
    {
      "midi": 29,
      "hit": false,
      "t": 89314.7519999965,
      "d": 94.69333333332906,
      "v": 127
    },
    {
      "midi": 60,
      "hit": false,
      "t": 89314.7519999965,
      "d": 94.69333333332906,
      "v": 110
    },
    {
      "midi": 72,
      "hit": false,
      "t": 89314.7519999965,
      "d": 94.69333333332906,
      "v": 120
    },
    {
      "midi": 46,
      "hit": false,
      "t": 89333.69066666317,
      "d": 94.69333333331451,
      "v": 92
    },
    {
      "midi": 72,
      "hit": false,
      "t": 89418.91466666316,
      "d": 94.69333333332906,
      "v": 120
    },
    {
      "midi": 60,
      "hit": false,
      "t": 89428.38399999648,
      "d": 56.81600000000617,
      "v": 70
    },
    {
      "midi": 65,
      "hit": false,
      "t": 89428.38399999648,
      "d": 66.28533333333326,
      "v": 120
    },
    {
      "midi": 29,
      "hit": false,
      "t": 89428.38399999648,
      "d": 94.69333333332906,
      "v": 127
    },
    {
      "midi": 64,
      "hit": false,
      "t": 89428.38399999648,
      "d": 94.69333333332906,
      "v": 70
    },
    {
      "midi": 65,
      "hit": false,
      "t": 89532.54666666314,
      "d": 75.75466666666034,
      "v": 120
    },
    {
      "midi": 60,
      "hit": false,
      "t": 89542.01599999647,
      "d": 18.938666666668723,
      "v": 60
    },
    {
      "midi": 29,
      "hit": false,
      "t": 89542.01599999647,
      "d": 94.69333333332906,
      "v": 127
    },
    {
      "midi": 69,
      "hit": false,
      "t": 89542.01599999647,
      "d": 94.69333333332906,
      "v": 110
    },
    {
      "midi": 15,
      "hit": false,
      "t": 89542.01599999647,
      "d": 94.69333333332906,
      "v": 100
    },
    {
      "midi": 13,
      "hit": false,
      "t": 89542.01599999647,
      "d": 94.69333333332906,
      "v": 100
    },
    {
      "midi": 10,
      "hit": false,
      "t": 89542.01599999647,
      "d": 94.69333333332906,
      "v": 127
    },
    {
      "midi": 127,
      "hit": false,
      "t": 89542.01599999647,
      "d": 94.69333333332906,
      "v": 60
    },
    {
      "midi": 108,
      "hit": false,
      "t": 89542.01599999647,
      "d": 94.69333333332906,
      "v": 80
    },
    {
      "midi": 105,
      "hit": false,
      "t": 89542.01599999647,
      "d": 94.69333333332906,
      "v": 100
    },
    {
      "midi": 42,
      "hit": false,
      "t": 89542.01599999647,
      "d": 94.69333333332906,
      "v": 92
    },
    {
      "midi": 72,
      "hit": false,
      "t": 89542.01599999647,
      "d": 94.69333333332906,
      "v": 120
    },
    {
      "midi": 118,
      "hit": false,
      "t": 89542.01599999647,
      "d": 94.69333333332906,
      "v": 60
    },
    {
      "midi": 63,
      "hit": false,
      "t": 89542.01599999647,
      "d": 94.69333333332906,
      "v": 70
    },
    {
      "midi": 72,
      "hit": false,
      "t": 89646.17866666312,
      "d": 94.69333333329996,
      "v": 120
    },
    {
      "midi": 65,
      "hit": false,
      "t": 89655.64799999645,
      "d": 66.2853333333187,
      "v": 120
    },
    {
      "midi": 42,
      "hit": false,
      "t": 89665.11733332978,
      "d": 94.69333333329996,
      "v": 78
    },
    {
      "midi": 65,
      "hit": false,
      "t": 89759.81066666308,
      "d": 75.75466666666034,
      "v": 100
    },
    {
      "midi": 29,
      "hit": false,
      "t": 89769.2799999964,
      "d": 94.69333333332906,
      "v": 127
    },
    {
      "midi": 60,
      "hit": false,
      "t": 89769.2799999964,
      "d": 94.69333333332906,
      "v": 90
    },
    {
      "midi": 46,
      "hit": false,
      "t": 89788.21866666307,
      "d": 94.69333333331451,
      "v": 92
    },
    {
      "midi": 65,
      "hit": false,
      "t": 89873.44266666306,
      "d": 75.75466666666034,
      "v": 100
    },
    {
      "midi": 29,
      "hit": false,
      "t": 89882.91199999639,
      "d": 94.69333333332906,
      "v": 127
    },
    {
      "midi": 57,
      "hit": false,
      "t": 89882.91199999639,
      "d": 94.69333333332906,
      "v": 110
    },
    {
      "midi": 118,
      "hit": false,
      "t": 89882.91199999639,
      "d": 94.69333333332906,
      "v": 60
    },
    {
      "midi": 59,
      "hit": false,
      "t": 89996.54399999637,
      "d": 18.938666666668723,
      "v": 60
    },
    {
      "midi": 67,
      "hit": false,
      "t": 89996.54399999637,
      "d": 66.28533333333326,
      "v": 127
    },
    {
      "midi": 31,
      "hit": false,
      "t": 89996.54399999637,
      "d": 94.69333333332906,
      "v": 127
    },
    {
      "midi": 15,
      "hit": false,
      "t": 89996.54399999637,
      "d": 94.69333333332906,
      "v": 100
    },
    {
      "midi": 13,
      "hit": false,
      "t": 89996.54399999637,
      "d": 94.69333333332906,
      "v": 100
    },
    {
      "midi": 10,
      "hit": false,
      "t": 89996.54399999637,
      "d": 94.69333333332906,
      "v": 127
    },
    {
      "midi": 42,
      "hit": false,
      "t": 89996.54399999637,
      "d": 94.69333333332906,
      "v": 92
    },
    {
      "midi": 62,
      "hit": false,
      "t": 89996.54399999637,
      "d": 208.32533333329775,
      "v": 127
    },
    {
      "midi": 79,
      "hit": false,
      "t": 89996.54399999637,
      "d": 871.1786666664993,
      "v": 120
    },
    {
      "midi": 67,
      "hit": false,
      "t": 90100.70666666303,
      "d": 75.75466666664579,
      "v": 100
    },
    {
      "midi": 59,
      "hit": false,
      "t": 90110.17599999635,
      "d": 94.69333333331451,
      "v": 110
    },
    {
      "midi": 118,
      "hit": false,
      "t": 90110.17599999635,
      "d": 94.69333333331451,
      "v": 60
    },
    {
      "midi": 42,
      "hit": false,
      "t": 90119.64533332968,
      "d": 94.69333333331451,
      "v": 78
    },
    {
      "midi": 74,
      "hit": false,
      "t": 90214.338666663,
      "d": 94.69333333332906,
      "v": 120
    },
    {
      "midi": 67,
      "hit": false,
      "t": 90223.80799999632,
      "d": 66.28533333333326,
      "v": 127
    },
    {
      "midi": 31,
      "hit": false,
      "t": 90223.80799999632,
      "d": 94.69333333332906,
      "v": 127
    },
    {
      "midi": 62,
      "hit": false,
      "t": 90223.80799999632,
      "d": 94.69333333332906,
      "v": 127
    },
    {
      "midi": 105,
      "hit": false,
      "t": 90223.80799999632,
      "d": 94.69333333332906,
      "v": 100
    },
    {
      "midi": 108,
      "hit": false,
      "t": 90223.80799999632,
      "d": 94.69333333332906,
      "v": 80
    },
    {
      "midi": 127,
      "hit": false,
      "t": 90223.80799999632,
      "d": 94.69333333332906,
      "v": 60
    },
    {
      "midi": 118,
      "hit": false,
      "t": 90223.80799999632,
      "d": 94.69333333332906,
      "v": 40
    },
    {
      "midi": 60,
      "hit": false,
      "t": 90223.80799999632,
      "d": 208.32533333329775,
      "v": 127
    },
    {
      "midi": 59,
      "hit": false,
      "t": 90223.80799999632,
      "d": 208.32533333329775,
      "v": 90
    },
    {
      "midi": 46,
      "hit": false,
      "t": 90242.74666666299,
      "d": 94.69333333331451,
      "v": 92
    },
    {
      "midi": 67,
      "hit": false,
      "t": 90337.4399999963,
      "d": 66.28533333333326,
      "v": 110
    },
    {
      "midi": 74,
      "hit": false,
      "t": 90337.4399999963,
      "d": 94.69333333331451,
      "v": 120
    },
    {
      "midi": 63,
      "hit": false,
      "t": 90337.4399999963,
      "d": 94.69333333331451,
      "v": 80
    },
    {
      "midi": 74,
      "hit": false,
      "t": 90441.60266666295,
      "d": 94.69333333332906,
      "v": 120
    },
    {
      "midi": 62,
      "hit": false,
      "t": 90451.07199999627,
      "d": 18.938666666668723,
      "v": 127
    },
    {
      "midi": 67,
      "hit": false,
      "t": 90451.07199999627,
      "d": 66.28533333333326,
      "v": 127
    },
    {
      "midi": 31,
      "hit": false,
      "t": 90451.07199999627,
      "d": 94.69333333332906,
      "v": 127
    },
    {
      "midi": 71,
      "hit": false,
      "t": 90451.07199999627,
      "d": 94.69333333332906,
      "v": 110
    },
    {
      "midi": 15,
      "hit": false,
      "t": 90451.07199999627,
      "d": 94.69333333332906,
      "v": 100
    },
    {
      "midi": 13,
      "hit": false,
      "t": 90451.07199999627,
      "d": 94.69333333332906,
      "v": 100
    },
    {
      "midi": 10,
      "hit": false,
      "t": 90451.07199999627,
      "d": 94.69333333332906,
      "v": 127
    },
    {
      "midi": 105,
      "hit": false,
      "t": 90451.07199999627,
      "d": 94.69333333332906,
      "v": 100
    },
    {
      "midi": 108,
      "hit": false,
      "t": 90451.07199999627,
      "d": 94.69333333332906,
      "v": 80
    },
    {
      "midi": 127,
      "hit": false,
      "t": 90451.07199999627,
      "d": 94.69333333332906,
      "v": 60
    },
    {
      "midi": 42,
      "hit": false,
      "t": 90451.07199999627,
      "d": 94.69333333332906,
      "v": 92
    },
    {
      "midi": 118,
      "hit": false,
      "t": 90451.07199999627,
      "d": 94.69333333332906,
      "v": 60
    },
    {
      "midi": 64,
      "hit": false,
      "t": 90451.07199999627,
      "d": 94.69333333332906,
      "v": 70
    },
    {
      "midi": 59,
      "hit": false,
      "t": 90451.07199999627,
      "d": 208.32533333329775,
      "v": 127
    },
    {
      "midi": 67,
      "hit": false,
      "t": 90564.70399999626,
      "d": 66.2853333333187,
      "v": 110
    },
    {
      "midi": 31,
      "hit": false,
      "t": 90564.70399999626,
      "d": 94.69333333331451,
      "v": 127
    },
    {
      "midi": 74,
      "hit": false,
      "t": 90564.70399999626,
      "d": 94.69333333331451,
      "v": 120
    },
    {
      "midi": 42,
      "hit": false,
      "t": 90574.17333332959,
      "d": 94.69333333331451,
      "v": 78
    },
    {
      "midi": 67,
      "hit": false,
      "t": 90668.8666666629,
      "d": 75.75466666666034,
      "v": 100
    },
    {
      "midi": 31,
      "hit": false,
      "t": 90678.33599999623,
      "d": 94.69333333332906,
      "v": 127
    },
    {
      "midi": 62,
      "hit": false,
      "t": 90678.33599999623,
      "d": 94.69333333332906,
      "v": 90
    },
    {
      "midi": 105,
      "hit": false,
      "t": 90678.33599999623,
      "d": 94.69333333332906,
      "v": 100
    },
    {
      "midi": 108,
      "hit": false,
      "t": 90678.33599999623,
      "d": 94.69333333332906,
      "v": 80
    },
    {
      "midi": 127,
      "hit": false,
      "t": 90678.33599999623,
      "d": 94.69333333332906,
      "v": 60
    },
    {
      "midi": 118,
      "hit": false,
      "t": 90678.33599999623,
      "d": 94.69333333332906,
      "v": 60
    },
    {
      "midi": 46,
      "hit": false,
      "t": 90697.2746666629,
      "d": 94.69333333331451,
      "v": 92
    },
    {
      "midi": 67,
      "hit": false,
      "t": 90782.49866666288,
      "d": 75.75466666666034,
      "v": 100
    },
    {
      "midi": 31,
      "hit": false,
      "t": 90791.96799999621,
      "d": 94.69333333332906,
      "v": 127
    },
    {
      "midi": 59,
      "hit": false,
      "t": 90791.96799999621,
      "d": 94.69333333332906,
      "v": 110
    },
    {
      "midi": 105,
      "hit": false,
      "t": 90791.96799999621,
      "d": 94.69333333332906,
      "v": 100
    },
    {
      "midi": 108,
      "hit": false,
      "t": 90791.96799999621,
      "d": 94.69333333332906,
      "v": 80
    },
    {
      "midi": 127,
      "hit": false,
      "t": 90791.96799999621,
      "d": 94.69333333332906,
      "v": 60
    },
    {
      "midi": 118,
      "hit": false,
      "t": 90791.96799999621,
      "d": 94.69333333332906,
      "v": 40
    },
    {
      "midi": 69,
      "hit": false,
      "t": 90905.5999999962,
      "d": 85.22399999997288,
      "v": 115
    },
    {
      "midi": 33,
      "hit": false,
      "t": 90905.5999999962,
      "d": 94.69333333329996,
      "v": 127
    },
    {
      "midi": 48,
      "hit": false,
      "t": 90905.5999999962,
      "d": 94.69333333329996,
      "v": 64
    },
    {
      "midi": 15,
      "hit": false,
      "t": 90905.5999999962,
      "d": 94.69333333329996,
      "v": 100
    },
    {
      "midi": 13,
      "hit": false,
      "t": 90905.5999999962,
      "d": 94.69333333329996,
      "v": 100
    },
    {
      "midi": 10,
      "hit": false,
      "t": 90905.5999999962,
      "d": 94.69333333329996,
      "v": 127
    },
    {
      "midi": 42,
      "hit": false,
      "t": 90905.5999999962,
      "d": 94.69333333329996,
      "v": 92
    },
    {
      "midi": 64,
      "hit": false,
      "t": 90915.06933332952,
      "d": 94.69333333329996,
      "v": 80
    },
    {
      "midi": 52,
      "hit": false,
      "t": 90915.06933332952,
      "d": 142.0399999999354,
      "v": 115
    },
    {
      "midi": 60,
      "hit": false,
      "t": 90924.53866666285,
      "d": 94.69333333329996,
      "v": 80
    },
    {
      "midi": 45,
      "hit": false,
      "t": 90924.53866666285,
      "d": 416.6506666664354,
      "v": 115
    },
    {
      "midi": 48,
      "hit": false,
      "t": 91000.2933333295,
      "d": 18.93866666665417,
      "v": 64
    },
    {
      "midi": 49,
      "hit": false,
      "t": 91019.23199999615,
      "d": 18.93866666665417,
      "v": 64
    },
    {
      "midi": 72,
      "hit": false,
      "t": 91019.23199999615,
      "d": 85.22399999995832,
      "v": 80
    },
    {
      "midi": 33,
      "hit": false,
      "t": 91019.23199999615,
      "d": 94.69333333328541,
      "v": 127
    },
    {
      "midi": 60,
      "hit": false,
      "t": 91019.23199999615,
      "d": 94.69333333328541,
      "v": 80
    },
    {
      "midi": 50,
      "hit": false,
      "t": 91028.70133332947,
      "d": 18.93866666665417,
      "v": 64
    },
    {
      "midi": 42,
      "hit": false,
      "t": 91028.70133332947,
      "d": 94.69333333328541,
      "v": 78
    },
    {
      "midi": 64,
      "hit": false,
      "t": 91028.70133332947,
      "d": 94.69333333328541,
      "v": 80
    },
    {
      "midi": 69,
      "hit": false,
      "t": 91038.1706666628,
      "d": 94.69333333328541,
      "v": 80
    },
    {
      "midi": 51,
      "hit": false,
      "t": 91047.63999999613,
      "d": 18.93866666665417,
      "v": 64
    },
    {
      "midi": 52,
      "hit": false,
      "t": 91057.10933332946,
      "d": 18.93866666665417,
      "v": 64
    },
    {
      "midi": 53,
      "hit": false,
      "t": 91076.04799999611,
      "d": 18.938666666668723,
      "v": 64
    },
    {
      "midi": 54,
      "hit": false,
      "t": 91094.98666666278,
      "d": 18.93866666665417,
      "v": 64
    },
    {
      "midi": 55,
      "hit": false,
      "t": 91104.4559999961,
      "d": 18.93866666665417,
      "v": 64
    },
    {
      "midi": 56,
      "hit": false,
      "t": 91123.39466666276,
      "d": 18.93866666665417,
      "v": 64
    },
    {
      "midi": 57,
      "hit": false,
      "t": 91132.86399999609,
      "d": 18.93866666665417,
      "v": 64
    },
    {
      "midi": 69,
      "hit": false,
      "t": 91132.86399999609,
      "d": 47.34666666663543,
      "v": 80
    },
    {
      "midi": 76,
      "hit": false,
      "t": 91132.86399999609,
      "d": 85.22399999994377,
      "v": 80
    },
    {
      "midi": 33,
      "hit": false,
      "t": 91132.86399999609,
      "d": 94.69333333327086,
      "v": 127
    },
    {
      "midi": 64,
      "hit": false,
      "t": 91142.33333332941,
      "d": 47.34666666663543,
      "v": 80
    },
    {
      "midi": 58,
      "hit": false,
      "t": 91151.80266666274,
      "d": 18.93866666665417,
      "v": 64
    },
    {
      "midi": 46,
      "hit": false,
      "t": 91151.80266666274,
      "d": 94.69333333327086,
      "v": 92
    },
    {
      "midi": 59,
      "hit": false,
      "t": 91161.27199999607,
      "d": 18.93866666665417,
      "v": 64
    },
    {
      "midi": 60,
      "hit": false,
      "t": 91180.21066666272,
      "d": 18.93866666665417,
      "v": 64
    },
    {
      "midi": 61,
      "hit": false,
      "t": 91199.14933332938,
      "d": 18.93866666665417,
      "v": 64
    },
    {
      "midi": 62,
      "hit": false,
      "t": 91208.6186666627,
      "d": 18.93866666665417,
      "v": 64
    },
    {
      "midi": 63,
      "hit": false,
      "t": 91227.55733332936,
      "d": 18.93866666665417,
      "v": 64
    },
    {
      "midi": 64,
      "hit": false,
      "t": 91246.49599999601,
      "d": 9.469333333327086,
      "v": 70
    },
    {
      "midi": 60,
      "hit": false,
      "t": 91246.49599999601,
      "d": 75.75466666661669,
      "v": 80
    },
    {
      "midi": 81,
      "hit": false,
      "t": 91246.49599999601,
      "d": 85.22399999994377,
      "v": 80
    },
    {
      "midi": 33,
      "hit": false,
      "t": 91246.49599999601,
      "d": 94.69333333327086,
      "v": 127
    },
    {
      "midi": 65,
      "hit": false,
      "t": 91255.96533332934,
      "d": 18.93866666665417,
      "v": 64
    },
    {
      "midi": 64,
      "hit": false,
      "t": 91255.96533332934,
      "d": 66.2853333332896,
      "v": 80
    },
    {
      "midi": 66,
      "hit": false,
      "t": 91274.903999996,
      "d": 18.93866666665417,
      "v": 64
    },
    {
      "midi": 67,
      "hit": false,
      "t": 91284.37333332932,
      "d": 18.93866666665417,
      "v": 64
    },
    {
      "midi": 68,
      "hit": false,
      "t": 91303.31199999597,
      "d": 18.93866666665417,
      "v": 64
    },
    {
      "midi": 69,
      "hit": false,
      "t": 91312.7813333293,
      "d": 18.93866666665417,
      "v": 64
    },
    {
      "midi": 70,
      "hit": false,
      "t": 91331.71999999596,
      "d": 18.93866666665417,
      "v": 64
    },
    {
      "midi": 71,
      "hit": false,
      "t": 91341.18933332928,
      "d": 18.93866666665417,
      "v": 64
    },
    {
      "midi": 76,
      "hit": false,
      "t": 91360.12799999594,
      "d": 75.75466666666034,
      "v": 127
    },
    {
      "midi": 72,
      "hit": false,
      "t": 91360.12799999594,
      "d": 75.75466666666034,
      "v": 127
    },
    {
      "midi": 84,
      "hit": false,
      "t": 91360.12799999594,
      "d": 85.22399999998743,
      "v": 80
    },
    {
      "midi": 33,
      "hit": false,
      "t": 91360.12799999594,
      "d": 94.69333333331451,
      "v": 127
    },
    {
      "midi": 15,
      "hit": false,
      "t": 91360.12799999594,
      "d": 94.69333333331451,
      "v": 100
    },
    {
      "midi": 13,
      "hit": false,
      "t": 91360.12799999594,
      "d": 94.69333333331451,
      "v": 100
    },
    {
      "midi": 10,
      "hit": false,
      "t": 91360.12799999594,
      "d": 94.69333333331451,
      "v": 127
    },
    {
      "midi": 127,
      "hit": false,
      "t": 91360.12799999594,
      "d": 94.69333333331451,
      "v": 60
    },
    {
      "midi": 108,
      "hit": false,
      "t": 91360.12799999594,
      "d": 94.69333333331451,
      "v": 80
    },
    {
      "midi": 105,
      "hit": false,
      "t": 91360.12799999594,
      "d": 94.69333333331451,
      "v": 100
    },
    {
      "midi": 42,
      "hit": false,
      "t": 91360.12799999594,
      "d": 94.69333333331451,
      "v": 92
    },
    {
      "midi": 69,
      "hit": false,
      "t": 91360.12799999594,
      "d": 94.69333333331451,
      "v": 115
    },
    {
      "midi": 63,
      "hit": false,
      "t": 91360.12799999594,
      "d": 94.69333333331451,
      "v": 70
    },
    {
      "midi": 57,
      "hit": false,
      "t": 91360.12799999594,
      "d": 208.3253333332832,
      "v": 110
    },
    {
      "midi": 64,
      "hit": false,
      "t": 91369.59733332926,
      "d": 94.69333333331451,
      "v": 80
    },
    {
      "midi": 52,
      "hit": false,
      "t": 91369.59733332926,
      "d": 198.8559999999561,
      "v": 115
    },
    {
      "midi": 60,
      "hit": false,
      "t": 91379.06666666259,
      "d": 94.69333333331451,
      "v": 80
    },
    {
      "midi": 45,
      "hit": false,
      "t": 91379.06666666259,
      "d": 198.8559999999561,
      "v": 115
    },
    {
      "midi": 88,
      "hit": false,
      "t": 91473.7599999959,
      "d": 85.22399999998743,
      "v": 80
    },
    {
      "midi": 76,
      "hit": false,
      "t": 91473.7599999959,
      "d": 94.69333333331451,
      "v": 127
    },
    {
      "midi": 72,
      "hit": false,
      "t": 91473.7599999959,
      "d": 94.69333333331451,
      "v": 127
    },
    {
      "midi": 42,
      "hit": false,
      "t": 91483.22933332923,
      "d": 94.69333333331451,
      "v": 78
    },
    {
      "midi": 45,
      "hit": false,
      "t": 91577.92266666255,
      "d": 9.469333333327086,
      "v": 90
    },
    {
      "midi": 76,
      "hit": false,
      "t": 91587.39199999587,
      "d": 75.75466666666034,
      "v": 127
    },
    {
      "midi": 72,
      "hit": false,
      "t": 91587.39199999587,
      "d": 75.75466666666034,
      "v": 127
    },
    {
      "midi": 45,
      "hit": false,
      "t": 91587.39199999587,
      "d": 85.22399999998743,
      "v": 115
    },
    {
      "midi": 52,
      "hit": false,
      "t": 91587.39199999587,
      "d": 85.22399999998743,
      "v": 115
    },
    {
      "midi": 93,
      "hit": false,
      "t": 91587.39199999587,
      "d": 85.22399999998743,
      "v": 80
    },
    {
      "midi": 33,
      "hit": false,
      "t": 91587.39199999587,
      "d": 94.69333333331451,
      "v": 127
    },
    {
      "midi": 57,
      "hit": false,
      "t": 91587.39199999587,
      "d": 94.69333333331451,
      "v": 90
    },
    {
      "midi": 64,
      "hit": false,
      "t": 91596.8613333292,
      "d": 94.69333333331451,
      "v": 115
    },
    {
      "midi": 60,
      "hit": false,
      "t": 91606.33066666253,
      "d": 75.75466666666034,
      "v": 80
    },
    {
      "midi": 69,
      "hit": false,
      "t": 91606.33066666253,
      "d": 75.75466666666034,
      "v": 115
    },
    {
      "midi": 46,
      "hit": false,
      "t": 91606.33066666253,
      "d": 94.69333333331451,
      "v": 92
    },
    {
      "midi": 60,
      "hit": false,
      "t": 91691.55466666252,
      "d": 9.469333333327086,
      "v": 110
    },
    {
      "midi": 88,
      "hit": false,
      "t": 91701.02399999584,
      "d": 85.22399999998743,
      "v": 80
    },
    {
      "midi": 33,
      "hit": false,
      "t": 91701.02399999584,
      "d": 94.69333333331451,
      "v": 127
    },
    {
      "midi": 57,
      "hit": false,
      "t": 91701.02399999584,
      "d": 94.69333333331451,
      "v": 110
    },
    {
      "midi": 76,
      "hit": false,
      "t": 91701.02399999584,
      "d": 94.69333333331451,
      "v": 127
    },
    {
      "midi": 72,
      "hit": false,
      "t": 91701.02399999584,
      "d": 94.69333333331451,
      "v": 127
    },
    {
      "midi": 64,
      "hit": false,
      "t": 91710.49333332917,
      "d": 75.75466666666034,
      "v": 80
    },
    {
      "midi": 60,
      "hit": false,
      "t": 91710.49333332917,
      "d": 75.75466666666034,
      "v": 115
    },
    {
      "midi": 52,
      "hit": false,
      "t": 91710.49333332917,
      "d": 85.22399999998743,
      "v": 115
    },
    {
      "midi": 69,
      "hit": false,
      "t": 91719.9626666625,
      "d": 75.75466666666034,
      "v": 80
    },
    {
      "midi": 45,
      "hit": false,
      "t": 91719.9626666625,
      "d": 85.22399999998743,
      "v": 115
    },
    {
      "midi": 45,
      "hit": false,
      "t": 91805.18666666248,
      "d": 9.469333333327086,
      "v": 100
    },
    {
      "midi": 84,
      "hit": false,
      "t": 91814.65599999581,
      "d": 85.22399999998743,
      "v": 80
    },
    {
      "midi": 33,
      "hit": false,
      "t": 91814.65599999581,
      "d": 94.69333333331451,
      "v": 127
    },
    {
      "midi": 15,
      "hit": false,
      "t": 91814.65599999581,
      "d": 94.69333333331451,
      "v": 100
    },
    {
      "midi": 13,
      "hit": false,
      "t": 91814.65599999581,
      "d": 94.69333333331451,
      "v": 100
    },
    {
      "midi": 10,
      "hit": false,
      "t": 91814.65599999581,
      "d": 94.69333333331451,
      "v": 127
    },
    {
      "midi": 42,
      "hit": false,
      "t": 91814.65599999581,
      "d": 94.69333333331451,
      "v": 92
    },
    {
      "midi": 74,
      "hit": false,
      "t": 91814.65599999581,
      "d": 113.63199999998324,
      "v": 127
    },
    {
      "midi": 71,
      "hit": false,
      "t": 91814.65599999581,
      "d": 113.63199999998324,
      "v": 127
    },
    {
      "midi": 45,
      "hit": false,
      "t": 91814.65599999581,
      "d": 198.85599999997066,
      "v": 95
    },
    {
      "midi": 52,
      "hit": false,
      "t": 91814.65599999581,
      "d": 198.85599999997066,
      "v": 95
    },
    {
      "midi": 57,
      "hit": false,
      "t": 91814.65599999581,
      "d": 208.32533333329775,
      "v": 100
    },
    {
      "midi": 60,
      "hit": false,
      "t": 91824.12533332914,
      "d": 198.85599999997066,
      "v": 95
    },
    {
      "midi": 64,
      "hit": false,
      "t": 91824.12533332914,
      "d": 208.32533333329775,
      "v": 95
    },
    {
      "midi": 69,
      "hit": false,
      "t": 91833.59466666247,
      "d": 208.32533333329775,
      "v": 95
    },
    {
      "midi": 81,
      "hit": false,
      "t": 91928.2879999958,
      "d": 85.22399999998743,
      "v": 80
    },
    {
      "midi": 42,
      "hit": false,
      "t": 91937.75733332912,
      "d": 94.69333333331451,
      "v": 78
    },
    {
      "midi": 76,
      "hit": false,
      "t": 92041.91999999576,
      "d": 85.22399999998743,
      "v": 127
    },
    {
      "midi": 64,
      "hit": false,
      "t": 92041.91999999576,
      "d": 198.85599999998522,
      "v": 95
    },
    {
      "midi": 33,
      "hit": false,
      "t": 92041.91999999576,
      "d": 208.3253333333123,
      "v": 127
    },
    {
      "midi": 57,
      "hit": false,
      "t": 92041.91999999576,
      "d": 208.3253333333123,
      "v": 90
    },
    {
      "midi": 69,
      "hit": false,
      "t": 92041.91999999576,
      "d": 208.3253333333123,
      "v": 95
    },
    {
      "midi": 60,
      "hit": false,
      "t": 92051.38933332909,
      "d": 189.38666666665813,
      "v": 95
    },
    {
      "midi": 52,
      "hit": false,
      "t": 92051.38933332909,
      "d": 198.85599999998522,
      "v": 95
    },
    {
      "midi": 46,
      "hit": false,
      "t": 92060.85866666242,
      "d": 94.69333333332906,
      "v": 92
    },
    {
      "midi": 45,
      "hit": false,
      "t": 92060.85866666242,
      "d": 198.85599999998522,
      "v": 95
    },
    {
      "midi": 72,
      "hit": false,
      "t": 92155.55199999575,
      "d": 37.87733333333745,
      "v": 80
    },
    {
      "midi": 63,
      "hit": false,
      "t": 92155.55199999575,
      "d": 94.69333333332906,
      "v": 80
    },
    {
      "midi": 69,
      "hit": false,
      "t": 92269.18399999573,
      "d": 85.22399999998743,
      "v": 115
    },
    {
      "midi": 33,
      "hit": false,
      "t": 92269.18399999573,
      "d": 94.69333333331451,
      "v": 127
    },
    {
      "midi": 15,
      "hit": false,
      "t": 92269.18399999573,
      "d": 94.69333333331451,
      "v": 100
    },
    {
      "midi": 13,
      "hit": false,
      "t": 92269.18399999573,
      "d": 94.69333333331451,
      "v": 100
    },
    {
      "midi": 10,
      "hit": false,
      "t": 92269.18399999573,
      "d": 94.69333333331451,
      "v": 127
    },
    {
      "midi": 127,
      "hit": false,
      "t": 92269.18399999573,
      "d": 94.69333333331451,
      "v": 60
    },
    {
      "midi": 108,
      "hit": false,
      "t": 92269.18399999573,
      "d": 94.69333333331451,
      "v": 80
    },
    {
      "midi": 105,
      "hit": false,
      "t": 92269.18399999573,
      "d": 94.69333333331451,
      "v": 100
    },
    {
      "midi": 42,
      "hit": false,
      "t": 92269.18399999573,
      "d": 94.69333333331451,
      "v": 92
    },
    {
      "midi": 64,
      "hit": false,
      "t": 92269.18399999573,
      "d": 94.69333333331451,
      "v": 70
    },
    {
      "midi": 57,
      "hit": false,
      "t": 92269.18399999573,
      "d": 426.1199999999517,
      "v": 110
    },
    {
      "midi": 60,
      "hit": false,
      "t": 92278.65333332906,
      "d": 407.1813333332975,
      "v": 115
    },
    {
      "midi": 52,
      "hit": false,
      "t": 92278.65333332906,
      "d": 416.6506666666246,
      "v": 115
    },
    {
      "midi": 45,
      "hit": false,
      "t": 92288.12266666238,
      "d": 416.6506666666246,
      "v": 115
    },
    {
      "midi": 72,
      "hit": false,
      "t": 92382.81599999571,
      "d": 85.22399999998743,
      "v": 80
    },
    {
      "midi": 33,
      "hit": false,
      "t": 92382.81599999571,
      "d": 94.69333333331451,
      "v": 127
    },
    {
      "midi": 42,
      "hit": false,
      "t": 92392.28533332904,
      "d": 94.69333333331451,
      "v": 78
    },
    {
      "midi": 76,
      "hit": false,
      "t": 92496.44799999568,
      "d": 85.22400000000198,
      "v": 80
    },
    {
      "midi": 33,
      "hit": false,
      "t": 92496.44799999568,
      "d": 94.69333333332906,
      "v": 127
    },
    {
      "midi": 77,
      "hit": false,
      "t": 92496.44799999568,
      "d": 435.5893333332642,
      "v": 127
    },
    {
      "midi": 46,
      "hit": false,
      "t": 92515.38666666235,
      "d": 94.69333333332906,
      "v": 92
    },
    {
      "midi": 81,
      "hit": false,
      "t": 92610.07999999568,
      "d": 85.22400000000198,
      "v": 80
    },
    {
      "midi": 74,
      "hit": false,
      "t": 92723.71199999566,
      "d": 85.22399999998743,
      "v": 115
    },
    {
      "midi": 26,
      "hit": false,
      "t": 92723.71199999566,
      "d": 94.69333333331451,
      "v": 127
    },
    {
      "midi": 15,
      "hit": false,
      "t": 92723.71199999566,
      "d": 94.69333333331451,
      "v": 100
    },
    {
      "midi": 13,
      "hit": false,
      "t": 92723.71199999566,
      "d": 94.69333333331451,
      "v": 100
    },
    {
      "midi": 10,
      "hit": false,
      "t": 92723.71199999566,
      "d": 94.69333333331451,
      "v": 127
    },
    {
      "midi": 42,
      "hit": false,
      "t": 92723.71199999566,
      "d": 94.69333333331451,
      "v": 92
    },
    {
      "midi": 69,
      "hit": false,
      "t": 92723.71199999566,
      "d": 94.69333333331451,
      "v": 70
    },
    {
      "midi": 65,
      "hit": false,
      "t": 92733.18133332899,
      "d": 85.22399999998743,
      "v": 70
    },
    {
      "midi": 57,
      "hit": false,
      "t": 92733.18133332899,
      "d": 94.69333333331451,
      "v": 115
    },
    {
      "midi": 50,
      "hit": false,
      "t": 92733.18133332899,
      "d": 94.69333333331451,
      "v": 115
    },
    {
      "midi": 62,
      "hit": false,
      "t": 92742.65066666232,
      "d": 94.69333333331451,
      "v": 70
    },
    {
      "midi": 45,
      "hit": false,
      "t": 92742.65066666232,
      "d": 94.69333333331451,
      "v": 115
    },
    {
      "midi": 26,
      "hit": false,
      "t": 92837.34399999563,
      "d": 94.69333333331451,
      "v": 127
    },
    {
      "midi": 62,
      "hit": false,
      "t": 92837.34399999563,
      "d": 94.69333333331451,
      "v": 70
    },
    {
      "midi": 45,
      "hit": false,
      "t": 92837.34399999563,
      "d": 94.69333333331451,
      "v": 115
    },
    {
      "midi": 50,
      "hit": false,
      "t": 92837.34399999563,
      "d": 94.69333333331451,
      "v": 115
    },
    {
      "midi": 42,
      "hit": false,
      "t": 92846.81333332896,
      "d": 94.69333333331451,
      "v": 78
    },
    {
      "midi": 65,
      "hit": false,
      "t": 92846.81333332896,
      "d": 94.69333333331451,
      "v": 115
    },
    {
      "midi": 57,
      "hit": false,
      "t": 92846.81333332896,
      "d": 94.69333333331451,
      "v": 115
    },
    {
      "midi": 69,
      "hit": false,
      "t": 92856.28266666229,
      "d": 66.28533333333326,
      "v": 70
    },
    {
      "midi": 74,
      "hit": false,
      "t": 92856.28266666229,
      "d": 75.75466666666034,
      "v": 115
    },
    {
      "midi": 77,
      "hit": false,
      "t": 92950.9759999956,
      "d": 85.22399999998743,
      "v": 80
    },
    {
      "midi": 26,
      "hit": false,
      "t": 92950.9759999956,
      "d": 94.69333333331451,
      "v": 127
    },
    {
      "midi": 74,
      "hit": false,
      "t": 92950.9759999956,
      "d": 94.69333333331451,
      "v": 95
    },
    {
      "midi": 65,
      "hit": false,
      "t": 92950.9759999956,
      "d": 94.69333333331451,
      "v": 95
    },
    {
      "midi": 76,
      "hit": false,
      "t": 92950.9759999956,
      "d": 151.50933333329158,
      "v": 120
    },
    {
      "midi": 72,
      "hit": false,
      "t": 92950.9759999956,
      "d": 151.50933333329158,
      "v": 120
    },
    {
      "midi": 57,
      "hit": false,
      "t": 92960.44533332893,
      "d": 94.69333333331451,
      "v": 95
    },
    {
      "midi": 50,
      "hit": false,
      "t": 92960.44533332893,
      "d": 94.69333333331451,
      "v": 95
    },
    {
      "midi": 46,
      "hit": false,
      "t": 92969.91466666225,
      "d": 94.69333333331451,
      "v": 92
    },
    {
      "midi": 45,
      "hit": false,
      "t": 92969.91466666225,
      "d": 94.69333333331451,
      "v": 95
    },
    {
      "midi": 50,
      "hit": false,
      "t": 93064.60799999557,
      "d": 85.22399999998743,
      "v": 95
    },
    {
      "midi": 81,
      "hit": false,
      "t": 93064.60799999557,
      "d": 85.22399999998743,
      "v": 80
    },
    {
      "midi": 45,
      "hit": false,
      "t": 93064.60799999557,
      "d": 94.69333333331451,
      "v": 95
    },
    {
      "midi": 26,
      "hit": false,
      "t": 93064.60799999557,
      "d": 94.69333333331451,
      "v": 127
    },
    {
      "midi": 69,
      "hit": false,
      "t": 93064.60799999557,
      "d": 94.69333333331451,
      "v": 70
    },
    {
      "midi": 64,
      "hit": false,
      "t": 93064.60799999557,
      "d": 94.69333333331451,
      "v": 70
    },
    {
      "midi": 65,
      "hit": false,
      "t": 93074.0773333289,
      "d": 66.28533333333326,
      "v": 95
    },
    {
      "midi": 57,
      "hit": false,
      "t": 93074.0773333289,
      "d": 75.75466666666034,
      "v": 95
    },
    {
      "midi": 62,
      "hit": false,
      "t": 93083.54666666222,
      "d": 56.81600000000617,
      "v": 70
    },
    {
      "midi": 74,
      "hit": false,
      "t": 93083.54666666222,
      "d": 94.69333333331451,
      "v": 95
    },
    {
      "midi": 62,
      "hit": false,
      "t": 93168.77066666221,
      "d": 9.469333333327086,
      "v": 110
    },
    {
      "midi": 86,
      "hit": false,
      "t": 93178.23999999554,
      "d": 85.22399999998743,
      "v": 80
    },
    {
      "midi": 26,
      "hit": false,
      "t": 93178.23999999554,
      "d": 94.69333333331451,
      "v": 127
    },
    {
      "midi": 15,
      "hit": false,
      "t": 93178.23999999554,
      "d": 94.69333333331451,
      "v": 100
    },
    {
      "midi": 13,
      "hit": false,
      "t": 93178.23999999554,
      "d": 94.69333333331451,
      "v": 100
    },
    {
      "midi": 10,
      "hit": false,
      "t": 93178.23999999554,
      "d": 94.69333333331451,
      "v": 127
    },
    {
      "midi": 127,
      "hit": false,
      "t": 93178.23999999554,
      "d": 94.69333333331451,
      "v": 60
    },
    {
      "midi": 108,
      "hit": false,
      "t": 93178.23999999554,
      "d": 94.69333333331451,
      "v": 80
    },
    {
      "midi": 105,
      "hit": false,
      "t": 93178.23999999554,
      "d": 94.69333333331451,
      "v": 100
    },
    {
      "midi": 42,
      "hit": false,
      "t": 93178.23999999554,
      "d": 94.69333333331451,
      "v": 92
    },
    {
      "midi": 62,
      "hit": false,
      "t": 93178.23999999554,
      "d": 94.69333333331451,
      "v": 70
    },
    {
      "midi": 63,
      "hit": false,
      "t": 93178.23999999554,
      "d": 94.69333333331451,
      "v": 70
    },
    {
      "midi": 65,
      "hit": false,
      "t": 93187.70933332886,
      "d": 94.69333333331451,
      "v": 70
    },
    {
      "midi": 57,
      "hit": false,
      "t": 93187.70933332886,
      "d": 198.8559999999561,
      "v": 115
    },
    {
      "midi": 50,
      "hit": false,
      "t": 93187.70933332886,
      "d": 198.8559999999561,
      "v": 115
    },
    {
      "midi": 69,
      "hit": false,
      "t": 93197.17866666219,
      "d": 94.69333333331451,
      "v": 70
    },
    {
      "midi": 45,
      "hit": false,
      "t": 93197.17866666219,
      "d": 198.8559999999561,
      "v": 115
    },
    {
      "midi": 89,
      "hit": false,
      "t": 93291.8719999955,
      "d": 85.22399999998743,
      "v": 80
    },
    {
      "midi": 42,
      "hit": false,
      "t": 93301.34133332883,
      "d": 94.69333333331451,
      "v": 78
    },
    {
      "midi": 45,
      "hit": false,
      "t": 93396.03466666215,
      "d": 56.815999999977066,
      "v": 90
    },
    {
      "midi": 50,
      "hit": false,
      "t": 93396.03466666215,
      "d": 56.815999999977066,
      "v": 90
    },
    {
      "midi": 57,
      "hit": false,
      "t": 93405.50399999548,
      "d": 56.815999999977066,
      "v": 90
    },
    {
      "midi": 86,
      "hit": false,
      "t": 93405.50399999548,
      "d": 85.22399999997288,
      "v": 80
    },
    {
      "midi": 74,
      "hit": false,
      "t": 93405.50399999548,
      "d": 94.69333333329996,
      "v": 127
    },
    {
      "midi": 69,
      "hit": false,
      "t": 93405.50399999548,
      "d": 94.69333333329996,
      "v": 70
    },
    {
      "midi": 26,
      "hit": false,
      "t": 93405.50399999548,
      "d": 208.32533333323954,
      "v": 127
    },
    {
      "midi": 65,
      "hit": false,
      "t": 93414.9733333288,
      "d": 56.815999999977066,
      "v": 70
    },
    {
      "midi": 62,
      "hit": false,
      "t": 93424.44266666213,
      "d": 37.877333333322895,
      "v": 70
    },
    {
      "midi": 46,
      "hit": false,
      "t": 93424.44266666213,
      "d": 94.69333333329996,
      "v": 92
    },
    {
      "midi": 62,
      "hit": false,
      "t": 93509.6666666621,
      "d": 9.469333333327086,
      "v": 100
    },
    {
      "midi": 62,
      "hit": false,
      "t": 93519.13599999543,
      "d": 47.34666666664998,
      "v": 70
    },
    {
      "midi": 50,
      "hit": false,
      "t": 93519.13599999543,
      "d": 56.815999999977066,
      "v": 95
    },
    {
      "midi": 81,
      "hit": false,
      "t": 93519.13599999543,
      "d": 85.22399999995832,
      "v": 80
    },
    {
      "midi": 65,
      "hit": false,
      "t": 93528.60533332876,
      "d": 37.877333333322895,
      "v": 95
    },
    {
      "midi": 57,
      "hit": false,
      "t": 93528.60533332876,
      "d": 47.34666666664998,
      "v": 95
    },
    {
      "midi": 45,
      "hit": false,
      "t": 93528.60533332876,
      "d": 56.815999999977066,
      "v": 100
    },
    {
      "midi": 69,
      "hit": false,
      "t": 93538.07466666208,
      "d": 94.69333333328541,
      "v": 70
    },
    {
      "midi": 74,
      "hit": false,
      "t": 93538.07466666208,
      "d": 94.69333333328541,
      "v": 95
    },
    {
      "midi": 45,
      "hit": false,
      "t": 93623.29866666204,
      "d": 18.93866666665417,
      "v": 110
    },
    {
      "midi": 50,
      "hit": false,
      "t": 93623.29866666204,
      "d": 18.93866666665417,
      "v": 110
    },
    {
      "midi": 62,
      "hit": false,
      "t": 93632.76799999537,
      "d": 18.93866666665417,
      "v": 110
    },
    {
      "midi": 77,
      "hit": false,
      "t": 93632.76799999537,
      "d": 85.22399999997288,
      "v": 80
    },
    {
      "midi": 26,
      "hit": false,
      "t": 93632.76799999537,
      "d": 94.69333333329996,
      "v": 127
    },
    {
      "midi": 15,
      "hit": false,
      "t": 93632.76799999537,
      "d": 94.69333333329996,
      "v": 100
    },
    {
      "midi": 13,
      "hit": false,
      "t": 93632.76799999537,
      "d": 94.69333333329996,
      "v": 100
    },
    {
      "midi": 10,
      "hit": false,
      "t": 93632.76799999537,
      "d": 94.69333333329996,
      "v": 127
    },
    {
      "midi": 42,
      "hit": false,
      "t": 93632.76799999537,
      "d": 94.69333333329996,
      "v": 92
    },
    {
      "midi": 74,
      "hit": false,
      "t": 93632.76799999537,
      "d": 94.69333333329996,
      "v": 95
    },
    {
      "midi": 57,
      "hit": false,
      "t": 93642.2373333287,
      "d": 9.469333333327086,
      "v": 95
    },
    {
      "midi": 65,
      "hit": false,
      "t": 93642.2373333287,
      "d": 18.93866666665417,
      "v": 110
    },
    {
      "midi": 50,
      "hit": false,
      "t": 93642.2373333287,
      "d": 94.69333333329996,
      "v": 95
    },
    {
      "midi": 45,
      "hit": false,
      "t": 93651.70666666202,
      "d": 94.69333333329996,
      "v": 95
    },
    {
      "midi": 65,
      "hit": false,
      "t": 93736.930666662,
      "d": 18.93866666665417,
      "v": 100
    },
    {
      "midi": 62,
      "hit": false,
      "t": 93736.930666662,
      "d": 18.93866666665417,
      "v": 100
    },
    {
      "midi": 50,
      "hit": false,
      "t": 93746.39999999532,
      "d": 18.93866666665417,
      "v": 95
    },
    {
      "midi": 57,
      "hit": false,
      "t": 93755.86933332865,
      "d": 9.469333333327086,
      "v": 95
    },
    {
      "midi": 45,
      "hit": false,
      "t": 93755.86933332865,
      "d": 18.93866666665417,
      "v": 100
    },
    {
      "midi": 42,
      "hit": false,
      "t": 93755.86933332865,
      "d": 94.69333333329996,
      "v": 78
    },
    {
      "midi": 65,
      "hit": false,
      "t": 93755.86933332865,
      "d": 94.69333333329996,
      "v": 95
    },
    {
      "midi": 74,
      "hit": false,
      "t": 93765.33866666198,
      "d": 66.2853333333187,
      "v": 95
    },
    {
      "midi": 69,
      "hit": false,
      "t": 93860.03199999528,
      "d": 85.22399999998743,
      "v": 80
    },
    {
      "midi": 62,
      "hit": false,
      "t": 93860.03199999528,
      "d": 94.69333333331451,
      "v": 100
    },
    {
      "midi": 74,
      "hit": false,
      "t": 93860.03199999528,
      "d": 94.69333333331451,
      "v": 95
    },
    {
      "midi": 76,
      "hit": false,
      "t": 93860.03199999528,
      "d": 113.63199999996868,
      "v": 127
    },
    {
      "midi": 72,
      "hit": false,
      "t": 93860.03199999528,
      "d": 113.63199999996868,
      "v": 127
    },
    {
      "midi": 26,
      "hit": false,
      "t": 93860.03199999528,
      "d": 208.32533333326865,
      "v": 127
    },
    {
      "midi": 50,
      "hit": false,
      "t": 93869.5013333286,
      "d": 75.75466666666034,
      "v": 95
    },
    {
      "midi": 57,
      "hit": false,
      "t": 93869.5013333286,
      "d": 85.22399999998743,
      "v": 95
    },
    {
      "midi": 65,
      "hit": false,
      "t": 93869.5013333286,
      "d": 85.22399999998743,
      "v": 100
    },
    {
      "midi": 45,
      "hit": false,
      "t": 93878.97066666193,
      "d": 66.28533333333326,
      "v": 95
    },
    {
      "midi": 46,
      "hit": false,
      "t": 93878.97066666193,
      "d": 94.69333333331451,
      "v": 92
    },
    {
      "midi": 62,
      "hit": false,
      "t": 93964.19466666192,
      "d": 94.69333333329996,
      "v": 90
    },
    {
      "midi": 50,
      "hit": false,
      "t": 93973.66399999525,
      "d": 47.34666666664998,
      "v": 115
    },
    {
      "midi": 63,
      "hit": false,
      "t": 93973.66399999525,
      "d": 94.69333333329996,
      "v": 80
    },
    {
      "midi": 45,
      "hit": false,
      "t": 93983.13333332857,
      "d": 37.877333333322895,
      "v": 90
    },
    {
      "midi": 57,
      "hit": false,
      "t": 93983.13333332857,
      "d": 47.34666666664998,
      "v": 115
    },
    {
      "midi": 65,
      "hit": false,
      "t": 93983.13333332857,
      "d": 47.34666666664998,
      "v": 115
    },
    {
      "midi": 74,
      "hit": false,
      "t": 93992.6026666619,
      "d": 47.34666666664998,
      "v": 115
    },
    {
      "midi": 62,
      "hit": false,
      "t": 94087.2959999952,
      "d": 85.22399999998743,
      "v": 90
    },
    {
      "midi": 26,
      "hit": false,
      "t": 94087.2959999952,
      "d": 94.69333333331451,
      "v": 127
    },
    {
      "midi": 15,
      "hit": false,
      "t": 94087.2959999952,
      "d": 94.69333333331451,
      "v": 100
    },
    {
      "midi": 13,
      "hit": false,
      "t": 94087.2959999952,
      "d": 94.69333333331451,
      "v": 100
    },
    {
      "midi": 10,
      "hit": false,
      "t": 94087.2959999952,
      "d": 94.69333333331451,
      "v": 127
    },
    {
      "midi": 127,
      "hit": false,
      "t": 94087.2959999952,
      "d": 94.69333333331451,
      "v": 60
    },
    {
      "midi": 108,
      "hit": false,
      "t": 94087.2959999952,
      "d": 94.69333333331451,
      "v": 80
    },
    {
      "midi": 105,
      "hit": false,
      "t": 94087.2959999952,
      "d": 94.69333333331451,
      "v": 100
    },
    {
      "midi": 42,
      "hit": false,
      "t": 94087.2959999952,
      "d": 94.69333333331451,
      "v": 92
    },
    {
      "midi": 64,
      "hit": false,
      "t": 94087.2959999952,
      "d": 94.69333333331451,
      "v": 70
    },
    {
      "midi": 72,
      "hit": false,
      "t": 94087.2959999952,
      "d": 208.3253333332832,
      "v": 127
    },
    {
      "midi": 69,
      "hit": false,
      "t": 94087.2959999952,
      "d": 208.3253333332832,
      "v": 127
    },
    {
      "midi": 50,
      "hit": false,
      "t": 94096.76533332853,
      "d": 75.75466666666034,
      "v": 115
    },
    {
      "midi": 57,
      "hit": false,
      "t": 94096.76533332853,
      "d": 85.22399999998743,
      "v": 115
    },
    {
      "midi": 65,
      "hit": false,
      "t": 94096.76533332853,
      "d": 94.69333333331451,
      "v": 90
    },
    {
      "midi": 45,
      "hit": false,
      "t": 94106.23466666185,
      "d": 66.28533333333326,
      "v": 115
    },
    {
      "midi": 62,
      "hit": false,
      "t": 94191.45866666184,
      "d": 94.69333333331451,
      "v": 90
    },
    {
      "midi": 65,
      "hit": false,
      "t": 94200.92799999517,
      "d": 85.22399999998743,
      "v": 80
    },
    {
      "midi": 26,
      "hit": false,
      "t": 94200.92799999517,
      "d": 94.69333333331451,
      "v": 127
    },
    {
      "midi": 57,
      "hit": false,
      "t": 94200.92799999517,
      "d": 94.69333333331451,
      "v": 90
    },
    {
      "midi": 50,
      "hit": false,
      "t": 94200.92799999517,
      "d": 94.69333333331451,
      "v": 90
    },
    {
      "midi": 45,
      "hit": false,
      "t": 94210.3973333285,
      "d": 94.69333333331451,
      "v": 90
    },
    {
      "midi": 42,
      "hit": false,
      "t": 94210.3973333285,
      "d": 94.69333333331451,
      "v": 78
    },
    {
      "midi": 45,
      "hit": false,
      "t": 94305.09066666181,
      "d": 37.87733333330834,
      "v": 100
    },
    {
      "midi": 50,
      "hit": false,
      "t": 94305.09066666181,
      "d": 37.87733333330834,
      "v": 100
    },
    {
      "midi": 57,
      "hit": false,
      "t": 94314.55999999514,
      "d": 37.87733333330834,
      "v": 100
    },
    {
      "midi": 62,
      "hit": false,
      "t": 94314.55999999514,
      "d": 37.87733333330834,
      "v": 100
    },
    {
      "midi": 69,
      "hit": false,
      "t": 94314.55999999514,
      "d": 85.22399999997288,
      "v": 80
    },
    {
      "midi": 26,
      "hit": false,
      "t": 94314.55999999514,
      "d": 94.69333333329996,
      "v": 127
    },
    {
      "midi": 15,
      "hit": false,
      "t": 94314.55999999514,
      "d": 94.69333333329996,
      "v": 100
    },
    {
      "midi": 13,
      "hit": false,
      "t": 94314.55999999514,
      "d": 94.69333333329996,
      "v": 100
    },
    {
      "midi": 10,
      "hit": false,
      "t": 94314.55999999514,
      "d": 94.69333333329996,
      "v": 127
    },
    {
      "midi": 71,
      "hit": false,
      "t": 94314.55999999514,
      "d": 208.3253333332541,
      "v": 127
    },
    {
      "midi": 65,
      "hit": false,
      "t": 94324.02933332846,
      "d": 37.87733333330834,
      "v": 100
    },
    {
      "midi": 46,
      "hit": false,
      "t": 94333.49866666179,
      "d": 94.69333333329996,
      "v": 92
    },
    {
      "midi": 65,
      "hit": false,
      "t": 94418.72266666176,
      "d": 37.87733333330834,
      "v": 100
    },
    {
      "midi": 62,
      "hit": false,
      "t": 94418.72266666176,
      "d": 37.87733333330834,
      "v": 100
    },
    {
      "midi": 57,
      "hit": false,
      "t": 94428.19199999509,
      "d": 37.87733333330834,
      "v": 100
    },
    {
      "midi": 50,
      "hit": false,
      "t": 94428.19199999509,
      "d": 37.87733333330834,
      "v": 100
    },
    {
      "midi": 74,
      "hit": false,
      "t": 94428.19199999509,
      "d": 85.22399999997288,
      "v": 80
    },
    {
      "midi": 45,
      "hit": false,
      "t": 94437.66133332842,
      "d": 37.87733333330834,
      "v": 100
    },
    {
      "midi": 71,
      "hit": false,
      "t": 94541.82399999505,
      "d": 85.22399999998743,
      "v": 80
    },
    {
      "midi": 31,
      "hit": false,
      "t": 94541.82399999505,
      "d": 94.69333333331451,
      "v": 127
    },
    {
      "midi": 15,
      "hit": false,
      "t": 94541.82399999505,
      "d": 94.69333333331451,
      "v": 100
    },
    {
      "midi": 13,
      "hit": false,
      "t": 94541.82399999505,
      "d": 94.69333333331451,
      "v": 100
    },
    {
      "midi": 10,
      "hit": false,
      "t": 94541.82399999505,
      "d": 94.69333333331451,
      "v": 127
    },
    {
      "midi": 42,
      "hit": false,
      "t": 94541.82399999505,
      "d": 94.69333333331451,
      "v": 92
    },
    {
      "midi": 67,
      "hit": false,
      "t": 94541.82399999505,
      "d": 94.69333333331451,
      "v": 115
    },
    {
      "midi": 50,
      "hit": false,
      "t": 94551.29333332837,
      "d": 94.69333333331451,
      "v": 115
    },
    {
      "midi": 62,
      "hit": false,
      "t": 94551.29333332837,
      "d": 94.69333333331451,
      "v": 70
    },
    {
      "midi": 47,
      "hit": false,
      "t": 94560.7626666617,
      "d": 75.75466666666034,
      "v": 115
    },
    {
      "midi": 59,
      "hit": false,
      "t": 94560.7626666617,
      "d": 94.69333333331451,
      "v": 70
    },
    {
      "midi": 43,
      "hit": false,
      "t": 94560.7626666617,
      "d": 416.65066666646453,
      "v": 115
    },
    {
      "midi": 49,
      "hit": false,
      "t": 94636.51733332836,
      "d": 18.93866666665417,
      "v": 64
    },
    {
      "midi": 50,
      "hit": false,
      "t": 94645.98666666169,
      "d": 18.93866666665417,
      "v": 64
    },
    {
      "midi": 74,
      "hit": false,
      "t": 94655.45599999501,
      "d": 85.22399999995832,
      "v": 80
    },
    {
      "midi": 31,
      "hit": false,
      "t": 94655.45599999501,
      "d": 94.69333333328541,
      "v": 127
    },
    {
      "midi": 59,
      "hit": false,
      "t": 94655.45599999501,
      "d": 94.69333333328541,
      "v": 70
    },
    {
      "midi": 51,
      "hit": false,
      "t": 94664.92533332834,
      "d": 18.93866666665417,
      "v": 64
    },
    {
      "midi": 42,
      "hit": false,
      "t": 94664.92533332834,
      "d": 94.69333333328541,
      "v": 78
    },
    {
      "midi": 62,
      "hit": false,
      "t": 94664.92533332834,
      "d": 94.69333333328541,
      "v": 70
    },
    {
      "midi": 52,
      "hit": false,
      "t": 94674.39466666167,
      "d": 18.93866666665417,
      "v": 64
    },
    {
      "midi": 67,
      "hit": false,
      "t": 94674.39466666167,
      "d": 94.69333333328541,
      "v": 70
    },
    {
      "midi": 53,
      "hit": false,
      "t": 94693.33333332832,
      "d": 18.938666666668723,
      "v": 64
    },
    {
      "midi": 54,
      "hit": false,
      "t": 94712.27199999499,
      "d": 18.93866666665417,
      "v": 64
    },
    {
      "midi": 55,
      "hit": false,
      "t": 94721.74133332832,
      "d": 18.93866666665417,
      "v": 64
    },
    {
      "midi": 56,
      "hit": false,
      "t": 94740.67999999497,
      "d": 18.93866666665417,
      "v": 64
    },
    {
      "midi": 57,
      "hit": false,
      "t": 94750.1493333283,
      "d": 18.93866666665417,
      "v": 64
    },
    {
      "midi": 58,
      "hit": false,
      "t": 94769.08799999495,
      "d": 18.93866666665417,
      "v": 64
    },
    {
      "midi": 79,
      "hit": false,
      "t": 94769.08799999495,
      "d": 85.22399999995832,
      "v": 80
    },
    {
      "midi": 31,
      "hit": false,
      "t": 94769.08799999495,
      "d": 94.69333333328541,
      "v": 127
    },
    {
      "midi": 59,
      "hit": false,
      "t": 94778.55733332828,
      "d": 18.93866666665417,
      "v": 64
    },
    {
      "midi": 46,
      "hit": false,
      "t": 94788.02666666161,
      "d": 94.69333333328541,
      "v": 92
    },
    {
      "midi": 60,
      "hit": false,
      "t": 94797.49599999494,
      "d": 18.938666666668723,
      "v": 64
    },
    {
      "midi": 61,
      "hit": false,
      "t": 94816.4346666616,
      "d": 18.93866666665417,
      "v": 64
    },
    {
      "midi": 62,
      "hit": false,
      "t": 94825.90399999493,
      "d": 18.93866666665417,
      "v": 64
    },
    {
      "midi": 63,
      "hit": false,
      "t": 94844.84266666159,
      "d": 18.93866666665417,
      "v": 64
    },
    {
      "midi": 64,
      "hit": false,
      "t": 94854.31199999491,
      "d": 18.93866666665417,
      "v": 64
    },
    {
      "midi": 65,
      "hit": false,
      "t": 94873.25066666157,
      "d": 18.93866666665417,
      "v": 64
    },
    {
      "midi": 83,
      "hit": false,
      "t": 94882.7199999949,
      "d": 85.22399999994377,
      "v": 80
    },
    {
      "midi": 31,
      "hit": false,
      "t": 94882.7199999949,
      "d": 94.69333333327086,
      "v": 127
    },
    {
      "midi": 64,
      "hit": false,
      "t": 94882.7199999949,
      "d": 94.69333333327086,
      "v": 70
    },
    {
      "midi": 66,
      "hit": false,
      "t": 94892.18933332822,
      "d": 18.93866666665417,
      "v": 64
    },
    {
      "midi": 62,
      "hit": false,
      "t": 94892.18933332822,
      "d": 66.2853333332896,
      "v": 70
    },
    {
      "midi": 67,
      "hit": false,
      "t": 94901.65866666155,
      "d": 18.93866666665417,
      "v": 64
    },
    {
      "midi": 59,
      "hit": false,
      "t": 94901.65866666155,
      "d": 66.2853333332896,
      "v": 70
    },
    {
      "midi": 68,
      "hit": false,
      "t": 94920.5973333282,
      "d": 18.93866666665417,
      "v": 64
    },
    {
      "midi": 69,
      "hit": false,
      "t": 94930.06666666153,
      "d": 18.93866666665417,
      "v": 64
    },
    {
      "midi": 70,
      "hit": false,
      "t": 94949.00533332818,
      "d": 18.93866666665417,
      "v": 64
    },
    {
      "midi": 71,
      "hit": false,
      "t": 94958.47466666151,
      "d": 18.93866666665417,
      "v": 64
    },
    {
      "midi": 72,
      "hit": false,
      "t": 94977.41333332816,
      "d": 18.93866666665417,
      "v": 64
    },
    {
      "midi": 86,
      "hit": false,
      "t": 94996.35199999482,
      "d": 85.22399999998743,
      "v": 80
    },
    {
      "midi": 31,
      "hit": false,
      "t": 94996.35199999482,
      "d": 94.69333333331451,
      "v": 127
    },
    {
      "midi": 74,
      "hit": false,
      "t": 94996.35199999482,
      "d": 94.69333333331451,
      "v": 127
    },
    {
      "midi": 71,
      "hit": false,
      "t": 94996.35199999482,
      "d": 94.69333333331451,
      "v": 127
    },
    {
      "midi": 15,
      "hit": false,
      "t": 94996.35199999482,
      "d": 94.69333333331451,
      "v": 100
    },
    {
      "midi": 13,
      "hit": false,
      "t": 94996.35199999482,
      "d": 94.69333333331451,
      "v": 100
    },
    {
      "midi": 10,
      "hit": false,
      "t": 94996.35199999482,
      "d": 94.69333333331451,
      "v": 127
    },
    {
      "midi": 127,
      "hit": false,
      "t": 94996.35199999482,
      "d": 94.69333333331451,
      "v": 60
    },
    {
      "midi": 108,
      "hit": false,
      "t": 94996.35199999482,
      "d": 94.69333333331451,
      "v": 80
    },
    {
      "midi": 105,
      "hit": false,
      "t": 94996.35199999482,
      "d": 94.69333333331451,
      "v": 100
    },
    {
      "midi": 42,
      "hit": false,
      "t": 94996.35199999482,
      "d": 94.69333333331451,
      "v": 92
    },
    {
      "midi": 63,
      "hit": false,
      "t": 94996.35199999482,
      "d": 94.69333333331451,
      "v": 70
    },
    {
      "midi": 59,
      "hit": false,
      "t": 95005.82133332815,
      "d": 85.22399999998743,
      "v": 105
    },
    {
      "midi": 62,
      "hit": false,
      "t": 95005.82133332815,
      "d": 94.69333333331451,
      "v": 70
    },
    {
      "midi": 50,
      "hit": false,
      "t": 95005.82133332815,
      "d": 198.8559999999561,
      "v": 105
    },
    {
      "midi": 67,
      "hit": false,
      "t": 95015.29066666147,
      "d": 94.69333333331451,
      "v": 70
    },
    {
      "midi": 43,
      "hit": false,
      "t": 95015.29066666147,
      "d": 198.8559999999561,
      "v": 105
    },
    {
      "midi": 47,
      "hit": false,
      "t": 95015.29066666147,
      "d": 208.3253333332832,
      "v": 105
    },
    {
      "midi": 91,
      "hit": false,
      "t": 95109.98399999479,
      "d": 85.22399999998743,
      "v": 80
    },
    {
      "midi": 74,
      "hit": false,
      "t": 95109.98399999479,
      "d": 94.69333333331451,
      "v": 127
    },
    {
      "midi": 71,
      "hit": false,
      "t": 95109.98399999479,
      "d": 94.69333333331451,
      "v": 127
    },
    {
      "midi": 42,
      "hit": false,
      "t": 95119.45333332811,
      "d": 94.69333333331451,
      "v": 78
    },
    {
      "midi": 43,
      "hit": false,
      "t": 95214.14666666143,
      "d": 9.469333333327086,
      "v": 90
    },
    {
      "midi": 43,
      "hit": false,
      "t": 95223.61599999476,
      "d": 47.34666666664998,
      "v": 105
    },
    {
      "midi": 86,
      "hit": false,
      "t": 95223.61599999476,
      "d": 85.22399999997288,
      "v": 80
    },
    {
      "midi": 31,
      "hit": false,
      "t": 95223.61599999476,
      "d": 94.69333333329996,
      "v": 127
    },
    {
      "midi": 74,
      "hit": false,
      "t": 95223.61599999476,
      "d": 94.69333333329996,
      "v": 127
    },
    {
      "midi": 71,
      "hit": false,
      "t": 95223.61599999476,
      "d": 94.69333333329996,
      "v": 127
    },
    {
      "midi": 47,
      "hit": false,
      "t": 95223.61599999476,
      "d": 94.69333333329996,
      "v": 105
    },
    {
      "midi": 50,
      "hit": false,
      "t": 95233.08533332808,
      "d": 37.877333333322895,
      "v": 105
    },
    {
      "midi": 59,
      "hit": false,
      "t": 95242.55466666141,
      "d": 37.877333333322895,
      "v": 70
    },
    {
      "midi": 62,
      "hit": false,
      "t": 95242.55466666141,
      "d": 37.877333333322895,
      "v": 105
    },
    {
      "midi": 67,
      "hit": false,
      "t": 95242.55466666141,
      "d": 47.34666666664998,
      "v": 105
    },
    {
      "midi": 46,
      "hit": false,
      "t": 95242.55466666141,
      "d": 94.69333333329996,
      "v": 92
    },
    {
      "midi": 62,
      "hit": false,
      "t": 95327.77866666138,
      "d": 9.469333333327086,
      "v": 100
    },
    {
      "midi": 67,
      "hit": false,
      "t": 95327.77866666138,
      "d": 9.469333333327086,
      "v": 100
    },
    {
      "midi": 83,
      "hit": false,
      "t": 95337.24799999471,
      "d": 85.22399999997288,
      "v": 80
    },
    {
      "midi": 31,
      "hit": false,
      "t": 95337.24799999471,
      "d": 94.69333333329996,
      "v": 127
    },
    {
      "midi": 74,
      "hit": false,
      "t": 95337.24799999471,
      "d": 94.69333333329996,
      "v": 127
    },
    {
      "midi": 71,
      "hit": false,
      "t": 95337.24799999471,
      "d": 94.69333333329996,
      "v": 127
    },
    {
      "midi": 62,
      "hit": false,
      "t": 95346.71733332804,
      "d": 56.81599999999162,
      "v": 70
    },
    {
      "midi": 59,
      "hit": false,
      "t": 95346.71733332804,
      "d": 66.2853333333187,
      "v": 105
    },
    {
      "midi": 50,
      "hit": false,
      "t": 95346.71733332804,
      "d": 66.2853333333187,
      "v": 105
    },
    {
      "midi": 67,
      "hit": false,
      "t": 95356.18666666136,
      "d": 47.34666666666453,
      "v": 70
    },
    {
      "midi": 43,
      "hit": false,
      "t": 95356.18666666136,
      "d": 66.2853333333187,
      "v": 105
    },
    {
      "midi": 47,
      "hit": false,
      "t": 95356.18666666136,
      "d": 94.69333333329996,
      "v": 105
    },
    {
      "midi": 43,
      "hit": false,
      "t": 95441.41066666134,
      "d": 9.469333333327086,
      "v": 90
    },
    {
      "midi": 79,
      "hit": false,
      "t": 95450.87999999466,
      "d": 85.22399999998743,
      "v": 80
    },
    {
      "midi": 31,
      "hit": false,
      "t": 95450.87999999466,
      "d": 94.69333333331451,
      "v": 127
    },
    {
      "midi": 15,
      "hit": false,
      "t": 95450.87999999466,
      "d": 94.69333333331451,
      "v": 100
    },
    {
      "midi": 13,
      "hit": false,
      "t": 95450.87999999466,
      "d": 94.69333333331451,
      "v": 100
    },
    {
      "midi": 10,
      "hit": false,
      "t": 95450.87999999466,
      "d": 94.69333333331451,
      "v": 127
    },
    {
      "midi": 42,
      "hit": false,
      "t": 95450.87999999466,
      "d": 94.69333333331451,
      "v": 92
    },
    {
      "midi": 72,
      "hit": false,
      "t": 95450.87999999466,
      "d": 113.63199999998324,
      "v": 127
    },
    {
      "midi": 69,
      "hit": false,
      "t": 95450.87999999466,
      "d": 113.63199999998324,
      "v": 127
    },
    {
      "midi": 43,
      "hit": false,
      "t": 95450.87999999466,
      "d": 198.85599999997066,
      "v": 105
    },
    {
      "midi": 47,
      "hit": false,
      "t": 95450.87999999466,
      "d": 208.32533333329775,
      "v": 105
    },
    {
      "midi": 50,
      "hit": false,
      "t": 95460.34933332799,
      "d": 189.38666666664358,
      "v": 105
    },
    {
      "midi": 59,
      "hit": false,
      "t": 95460.34933332799,
      "d": 198.85599999997066,
      "v": 105
    },
    {
      "midi": 62,
      "hit": false,
      "t": 95469.81866666132,
      "d": 189.38666666664358,
      "v": 105
    },
    {
      "midi": 67,
      "hit": false,
      "t": 95469.81866666132,
      "d": 198.85599999997066,
      "v": 105
    },
    {
      "midi": 74,
      "hit": false,
      "t": 95564.51199999465,
      "d": 85.22399999998743,
      "v": 80
    },
    {
      "midi": 42,
      "hit": false,
      "t": 95573.98133332797,
      "d": 94.69333333331451,
      "v": 78
    },
    {
      "midi": 62,
      "hit": false,
      "t": 95668.67466666129,
      "d": 9.469333333327086,
      "v": 100
    },
    {
      "midi": 67,
      "hit": false,
      "t": 95668.67466666129,
      "d": 9.469333333327086,
      "v": 100
    },
    {
      "midi": 71,
      "hit": false,
      "t": 95678.14399999462,
      "d": 85.22399999998743,
      "v": 127
    },
    {
      "midi": 74,
      "hit": false,
      "t": 95678.14399999462,
      "d": 151.50933333332068,
      "v": 127
    },
    {
      "midi": 62,
      "hit": false,
      "t": 95678.14399999462,
      "d": 198.85599999998522,
      "v": 105
    },
    {
      "midi": 31,
      "hit": false,
      "t": 95678.14399999462,
      "d": 208.3253333333123,
      "v": 127
    },
    {
      "midi": 59,
      "hit": false,
      "t": 95687.61333332794,
      "d": 198.85599999998522,
      "v": 105
    },
    {
      "midi": 50,
      "hit": false,
      "t": 95687.61333332794,
      "d": 198.85599999998522,
      "v": 105
    },
    {
      "midi": 46,
      "hit": false,
      "t": 95697.08266666127,
      "d": 94.69333333332906,
      "v": 92
    },
    {
      "midi": 43,
      "hit": false,
      "t": 95697.08266666127,
      "d": 198.85599999998522,
      "v": 105
    },
    {
      "midi": 47,
      "hit": false,
      "t": 95697.08266666127,
      "d": 208.3253333333123,
      "v": 105
    },
    {
      "midi": 67,
      "hit": false,
      "t": 95791.7759999946,
      "d": 85.22400000000198,
      "v": 80
    },
    {
      "midi": 63,
      "hit": false,
      "t": 95791.7759999946,
      "d": 94.69333333332906,
      "v": 80
    },
    {
      "midi": 43,
      "hit": false,
      "t": 95895.93866666126,
      "d": 9.469333333327086,
      "v": 110
    },
    {
      "midi": 31,
      "hit": false,
      "t": 95905.40799999458,
      "d": 94.69333333331451,
      "v": 127
    },
    {
      "midi": 15,
      "hit": false,
      "t": 95905.40799999458,
      "d": 94.69333333331451,
      "v": 100
    },
    {
      "midi": 13,
      "hit": false,
      "t": 95905.40799999458,
      "d": 94.69333333331451,
      "v": 100
    },
    {
      "midi": 10,
      "hit": false,
      "t": 95905.40799999458,
      "d": 94.69333333331451,
      "v": 127
    },
    {
      "midi": 127,
      "hit": false,
      "t": 95905.40799999458,
      "d": 94.69333333331451,
      "v": 60
    },
    {
      "midi": 108,
      "hit": false,
      "t": 95905.40799999458,
      "d": 94.69333333331451,
      "v": 80
    },
    {
      "midi": 105,
      "hit": false,
      "t": 95905.40799999458,
      "d": 94.69333333331451,
      "v": 100
    },
    {
      "midi": 42,
      "hit": false,
      "t": 95905.40799999458,
      "d": 94.69333333331451,
      "v": 92
    },
    {
      "midi": 64,
      "hit": false,
      "t": 95905.40799999458,
      "d": 94.69333333331451,
      "v": 70
    },
    {
      "midi": 43,
      "hit": false,
      "t": 95905.40799999458,
      "d": 198.85599999997066,
      "v": 115
    },
    {
      "midi": 47,
      "hit": false,
      "t": 95905.40799999458,
      "d": 208.32533333329775,
      "v": 115
    },
    {
      "midi": 50,
      "hit": false,
      "t": 95914.87733332791,
      "d": 189.38666666664358,
      "v": 115
    },
    {
      "midi": 59,
      "hit": false,
      "t": 95914.87733332791,
      "d": 198.85599999997066,
      "v": 115
    },
    {
      "midi": 62,
      "hit": false,
      "t": 95924.34666666124,
      "d": 66.28533333333326,
      "v": 115
    },
    {
      "midi": 67,
      "hit": false,
      "t": 96019.03999999457,
      "d": 85.22399999998743,
      "v": 80
    },
    {
      "midi": 31,
      "hit": false,
      "t": 96019.03999999457,
      "d": 94.69333333331451,
      "v": 127
    },
    {
      "midi": 42,
      "hit": false,
      "t": 96028.5093333279,
      "d": 94.69333333331451,
      "v": 78
    },
    {
      "midi": 62,
      "hit": false,
      "t": 96123.20266666121,
      "d": 9.469333333327086,
      "v": 100
    },
    {
      "midi": 67,
      "hit": false,
      "t": 96123.20266666121,
      "d": 9.469333333327086,
      "v": 100
    },
    {
      "midi": 67,
      "hit": false,
      "t": 96132.67199999453,
      "d": 85.22399999998743,
      "v": 105
    },
    {
      "midi": 62,
      "hit": false,
      "t": 96132.67199999453,
      "d": 85.22399999998743,
      "v": 105
    },
    {
      "midi": 71,
      "hit": false,
      "t": 96132.67199999453,
      "d": 85.22399999998743,
      "v": 80
    },
    {
      "midi": 31,
      "hit": false,
      "t": 96132.67199999453,
      "d": 94.69333333331451,
      "v": 127
    },
    {
      "midi": 77,
      "hit": false,
      "t": 96132.67199999453,
      "d": 435.58933333322057,
      "v": 127
    },
    {
      "midi": 59,
      "hit": false,
      "t": 96142.14133332786,
      "d": 85.22399999998743,
      "v": 105
    },
    {
      "midi": 50,
      "hit": false,
      "t": 96142.14133332786,
      "d": 85.22399999998743,
      "v": 105
    },
    {
      "midi": 43,
      "hit": false,
      "t": 96151.61066666119,
      "d": 85.22399999998743,
      "v": 105
    },
    {
      "midi": 46,
      "hit": false,
      "t": 96151.61066666119,
      "d": 94.69333333331451,
      "v": 92
    },
    {
      "midi": 47,
      "hit": false,
      "t": 96151.61066666119,
      "d": 94.69333333331451,
      "v": 105
    },
    {
      "midi": 43,
      "hit": false,
      "t": 96236.83466666118,
      "d": 9.469333333327086,
      "v": 100
    },
    {
      "midi": 43,
      "hit": false,
      "t": 96246.3039999945,
      "d": 85.22399999998743,
      "v": 105
    },
    {
      "midi": 74,
      "hit": false,
      "t": 96246.3039999945,
      "d": 85.22399999998743,
      "v": 80
    },
    {
      "midi": 47,
      "hit": false,
      "t": 96246.3039999945,
      "d": 94.69333333331451,
      "v": 105
    },
    {
      "midi": 50,
      "hit": false,
      "t": 96255.77333332783,
      "d": 75.75466666666034,
      "v": 105
    },
    {
      "midi": 59,
      "hit": false,
      "t": 96255.77333332783,
      "d": 85.22399999998743,
      "v": 105
    },
    {
      "midi": 62,
      "hit": false,
      "t": 96265.24266666116,
      "d": 75.75466666666034,
      "v": 105
    },
    {
      "midi": 67,
      "hit": false,
      "t": 96265.24266666116,
      "d": 85.22399999998743,
      "v": 105
    },
    {
      "midi": 24,
      "hit": false,
      "t": 96359.93599999447,
      "d": 94.69333333331451,
      "v": 127
    },
    {
      "midi": 15,
      "hit": false,
      "t": 96359.93599999447,
      "d": 94.69333333331451,
      "v": 100
    },
    {
      "midi": 13,
      "hit": false,
      "t": 96359.93599999447,
      "d": 94.69333333331451,
      "v": 100
    },
    {
      "midi": 10,
      "hit": false,
      "t": 96359.93599999447,
      "d": 94.69333333331451,
      "v": 127
    },
    {
      "midi": 42,
      "hit": false,
      "t": 96359.93599999447,
      "d": 94.69333333331451,
      "v": 92
    },
    {
      "midi": 72,
      "hit": false,
      "t": 96359.93599999447,
      "d": 94.69333333331451,
      "v": 70
    },
    {
      "midi": 60,
      "hit": false,
      "t": 96359.93599999447,
      "d": 416.6506666665373,
      "v": 105
    },
    {
      "midi": 67,
      "hit": false,
      "t": 96369.4053333278,
      "d": 75.75466666666034,
      "v": 70
    },
    {
      "midi": 52,
      "hit": false,
      "t": 96369.4053333278,
      "d": 416.6506666665373,
      "v": 105
    },
    {
      "midi": 48,
      "hit": false,
      "t": 96369.4053333278,
      "d": 416.6506666665373,
      "v": 105
    },
    {
      "midi": 64,
      "hit": false,
      "t": 96378.87466666113,
      "d": 94.69333333331451,
      "v": 70
    },
    {
      "midi": 43,
      "hit": false,
      "t": 96378.87466666113,
      "d": 416.6506666665373,
      "v": 105
    },
    {
      "midi": 24,
      "hit": false,
      "t": 96473.56799999444,
      "d": 94.69333333331451,
      "v": 127
    },
    {
      "midi": 64,
      "hit": false,
      "t": 96473.56799999444,
      "d": 94.69333333331451,
      "v": 70
    },
    {
      "midi": 42,
      "hit": false,
      "t": 96483.03733332777,
      "d": 94.69333333331451,
      "v": 78
    },
    {
      "midi": 67,
      "hit": false,
      "t": 96483.03733332777,
      "d": 94.69333333331451,
      "v": 70
    },
    {
      "midi": 72,
      "hit": false,
      "t": 96492.5066666611,
      "d": 66.28533333333326,
      "v": 70
    },
    {
      "midi": 76,
      "hit": false,
      "t": 96587.19999999441,
      "d": 75.75466666666034,
      "v": 127
    },
    {
      "midi": 72,
      "hit": false,
      "t": 96587.19999999441,
      "d": 75.75466666666034,
      "v": 70
    },
    {
      "midi": 24,
      "hit": false,
      "t": 96587.19999999441,
      "d": 94.69333333331451,
      "v": 127
    },
    {
      "midi": 67,
      "hit": false,
      "t": 96596.66933332774,
      "d": 94.69333333331451,
      "v": 70
    },
    {
      "midi": 46,
      "hit": false,
      "t": 96606.13866666106,
      "d": 94.69333333331451,
      "v": 92
    },
    {
      "midi": 64,
      "hit": false,
      "t": 96606.13866666106,
      "d": 94.69333333331451,
      "v": 70
    },
    {
      "midi": 64,
      "hit": false,
      "t": 96700.83199999438,
      "d": 47.34666666664998,
      "v": 70
    },
    {
      "midi": 79,
      "hit": false,
      "t": 96700.83199999438,
      "d": 85.22399999995832,
      "v": 80
    },
    {
      "midi": 24,
      "hit": false,
      "t": 96700.83199999438,
      "d": 94.69333333328541,
      "v": 127
    },
    {
      "midi": 67,
      "hit": false,
      "t": 96710.3013333277,
      "d": 47.34666666664998,
      "v": 70
    },
    {
      "midi": 72,
      "hit": false,
      "t": 96719.77066666103,
      "d": 47.34666666664998,
      "v": 70
    },
    {
      "midi": 74,
      "hit": false,
      "t": 96814.46399999432,
      "d": 75.75466666666034,
      "v": 127
    },
    {
      "midi": 71,
      "hit": false,
      "t": 96814.46399999432,
      "d": 75.75466666666034,
      "v": 127
    },
    {
      "midi": 84,
      "hit": false,
      "t": 96814.46399999432,
      "d": 85.22399999998743,
      "v": 80
    },
    {
      "midi": 24,
      "hit": false,
      "t": 96814.46399999432,
      "d": 94.69333333331451,
      "v": 127
    },
    {
      "midi": 15,
      "hit": false,
      "t": 96814.46399999432,
      "d": 94.69333333331451,
      "v": 100
    },
    {
      "midi": 13,
      "hit": false,
      "t": 96814.46399999432,
      "d": 94.69333333331451,
      "v": 100
    },
    {
      "midi": 10,
      "hit": false,
      "t": 96814.46399999432,
      "d": 94.69333333331451,
      "v": 127
    },
    {
      "midi": 127,
      "hit": false,
      "t": 96814.46399999432,
      "d": 94.69333333331451,
      "v": 60
    },
    {
      "midi": 108,
      "hit": false,
      "t": 96814.46399999432,
      "d": 94.69333333331451,
      "v": 80
    },
    {
      "midi": 105,
      "hit": false,
      "t": 96814.46399999432,
      "d": 94.69333333331451,
      "v": 100
    },
    {
      "midi": 42,
      "hit": false,
      "t": 96814.46399999432,
      "d": 94.69333333331451,
      "v": 92
    },
    {
      "midi": 72,
      "hit": false,
      "t": 96814.46399999432,
      "d": 94.69333333331451,
      "v": 70
    },
    {
      "midi": 63,
      "hit": false,
      "t": 96814.46399999432,
      "d": 94.69333333331451,
      "v": 70
    },
    {
      "midi": 60,
      "hit": false,
      "t": 96814.46399999432,
      "d": 198.8559999999561,
      "v": 105
    },
    {
      "midi": 67,
      "hit": false,
      "t": 96823.93333332764,
      "d": 94.69333333331451,
      "v": 70
    },
    {
      "midi": 52,
      "hit": false,
      "t": 96823.93333332764,
      "d": 198.8559999999561,
      "v": 105
    },
    {
      "midi": 48,
      "hit": false,
      "t": 96823.93333332764,
      "d": 198.8559999999561,
      "v": 105
    },
    {
      "midi": 64,
      "hit": false,
      "t": 96833.40266666097,
      "d": 94.69333333331451,
      "v": 70
    },
    {
      "midi": 43,
      "hit": false,
      "t": 96833.40266666097,
      "d": 198.8559999999561,
      "v": 105
    },
    {
      "midi": 88,
      "hit": false,
      "t": 96928.09599999429,
      "d": 85.22399999998743,
      "v": 80
    },
    {
      "midi": 42,
      "hit": false,
      "t": 96937.56533332761,
      "d": 94.69333333331451,
      "v": 78
    },
    {
      "midi": 43,
      "hit": false,
      "t": 97032.25866666093,
      "d": 9.469333333327086,
      "v": 100
    },
    {
      "midi": 43,
      "hit": false,
      "t": 97041.72799999425,
      "d": 85.22399999998743,
      "v": 105
    },
    {
      "midi": 48,
      "hit": false,
      "t": 97041.72799999425,
      "d": 85.22399999998743,
      "v": 105
    },
    {
      "midi": 84,
      "hit": false,
      "t": 97041.72799999425,
      "d": 85.22399999998743,
      "v": 80
    },
    {
      "midi": 24,
      "hit": false,
      "t": 97041.72799999425,
      "d": 208.3253333332832,
      "v": 127
    },
    {
      "midi": 52,
      "hit": false,
      "t": 97051.19733332758,
      "d": 85.22399999998743,
      "v": 105
    },
    {
      "midi": 60,
      "hit": false,
      "t": 97051.19733332758,
      "d": 85.22399999998743,
      "v": 105
    },
    {
      "midi": 67,
      "hit": false,
      "t": 97051.19733332758,
      "d": 94.69333333331451,
      "v": 70
    },
    {
      "midi": 64,
      "hit": false,
      "t": 97060.66666666091,
      "d": 75.75466666666034,
      "v": 105
    },
    {
      "midi": 46,
      "hit": false,
      "t": 97060.66666666091,
      "d": 94.69333333331451,
      "v": 92
    },
    {
      "midi": 72,
      "hit": false,
      "t": 97060.66666666091,
      "d": 94.69333333331451,
      "v": 70
    },
    {
      "midi": 64,
      "hit": false,
      "t": 97145.8906666609,
      "d": 9.469333333327086,
      "v": 90
    },
    {
      "midi": 60,
      "hit": false,
      "t": 97155.35999999422,
      "d": 85.22399999998743,
      "v": 105
    },
    {
      "midi": 79,
      "hit": false,
      "t": 97155.35999999422,
      "d": 85.22399999998743,
      "v": 80
    },
    {
      "midi": 72,
      "hit": false,
      "t": 97155.35999999422,
      "d": 94.69333333331451,
      "v": 70
    },
    {
      "midi": 52,
      "hit": false,
      "t": 97164.82933332755,
      "d": 85.22399999998743,
      "v": 105
    },
    {
      "midi": 48,
      "hit": false,
      "t": 97164.82933332755,
      "d": 85.22399999998743,
      "v": 105
    },
    {
      "midi": 67,
      "hit": false,
      "t": 97164.82933332755,
      "d": 94.69333333331451,
      "v": 70
    },
    {
      "midi": 64,
      "hit": false,
      "t": 97174.29866666088,
      "d": 66.28533333333326,
      "v": 70
    },
    {
      "midi": 43,
      "hit": false,
      "t": 97174.29866666088,
      "d": 85.22399999998743,
      "v": 105
    },
    {
      "midi": 43,
      "hit": false,
      "t": 97259.52266666087,
      "d": 9.469333333327086,
      "v": 100
    },
    {
      "midi": 76,
      "hit": false,
      "t": 97268.99199999419,
      "d": 85.22399999998743,
      "v": 80
    },
    {
      "midi": 24,
      "hit": false,
      "t": 97268.99199999419,
      "d": 94.69333333331451,
      "v": 127
    },
    {
      "midi": 15,
      "hit": false,
      "t": 97268.99199999419,
      "d": 94.69333333331451,
      "v": 100
    },
    {
      "midi": 13,
      "hit": false,
      "t": 97268.99199999419,
      "d": 94.69333333331451,
      "v": 100
    },
    {
      "midi": 10,
      "hit": false,
      "t": 97268.99199999419,
      "d": 94.69333333331451,
      "v": 127
    },
    {
      "midi": 42,
      "hit": false,
      "t": 97268.99199999419,
      "d": 94.69333333331451,
      "v": 92
    },
    {
      "midi": 43,
      "hit": false,
      "t": 97268.99199999419,
      "d": 198.85599999997066,
      "v": 105
    },
    {
      "midi": 48,
      "hit": false,
      "t": 97268.99199999419,
      "d": 198.85599999997066,
      "v": 105
    },
    {
      "midi": 52,
      "hit": false,
      "t": 97278.46133332752,
      "d": 198.85599999997066,
      "v": 105
    },
    {
      "midi": 60,
      "hit": false,
      "t": 97278.46133332752,
      "d": 198.85599999997066,
      "v": 105
    },
    {
      "midi": 64,
      "hit": false,
      "t": 97287.93066666085,
      "d": 198.85599999997066,
      "v": 105
    },
    {
      "midi": 72,
      "hit": false,
      "t": 97382.62399999418,
      "d": 85.22399999998743,
      "v": 80
    },
    {
      "midi": 42,
      "hit": false,
      "t": 97392.0933333275,
      "d": 94.69333333331451,
      "v": 78
    },
    {
      "midi": 64,
      "hit": false,
      "t": 97486.78666666082,
      "d": 9.469333333327086,
      "v": 110
    },
    {
      "midi": 67,
      "hit": false,
      "t": 97496.25599999414,
      "d": 85.22399999998743,
      "v": 80
    },
    {
      "midi": 60,
      "hit": false,
      "t": 97496.25599999414,
      "d": 198.85599999998522,
      "v": 105
    },
    {
      "midi": 24,
      "hit": false,
      "t": 97496.25599999414,
      "d": 208.3253333333123,
      "v": 127
    },
    {
      "midi": 74,
      "hit": false,
      "t": 97496.25599999414,
      "d": 426.11999999993714,
      "v": 127
    },
    {
      "midi": 71,
      "hit": false,
      "t": 97496.25599999414,
      "d": 426.11999999993714,
      "v": 127
    },
    {
      "midi": 52,
      "hit": false,
      "t": 97505.72533332747,
      "d": 198.85599999998522,
      "v": 105
    },
    {
      "midi": 48,
      "hit": false,
      "t": 97505.72533332747,
      "d": 198.85599999998522,
      "v": 105
    },
    {
      "midi": 46,
      "hit": false,
      "t": 97515.1946666608,
      "d": 94.69333333332906,
      "v": 92
    },
    {
      "midi": 43,
      "hit": false,
      "t": 97515.1946666608,
      "d": 198.85599999998522,
      "v": 105
    },
    {
      "midi": 64,
      "hit": false,
      "t": 97609.88799999413,
      "d": 85.22400000000198,
      "v": 80
    },
    {
      "midi": 63,
      "hit": false,
      "t": 97609.88799999413,
      "d": 94.69333333332906,
      "v": 80
    },
    {
      "midi": 43,
      "hit": false,
      "t": 97714.05066666078,
      "d": 9.469333333327086,
      "v": 110
    },
    {
      "midi": 24,
      "hit": false,
      "t": 97723.51999999411,
      "d": 94.69333333331451,
      "v": 127
    },
    {
      "midi": 15,
      "hit": false,
      "t": 97723.51999999411,
      "d": 94.69333333331451,
      "v": 100
    },
    {
      "midi": 13,
      "hit": false,
      "t": 97723.51999999411,
      "d": 94.69333333331451,
      "v": 100
    },
    {
      "midi": 10,
      "hit": false,
      "t": 97723.51999999411,
      "d": 94.69333333331451,
      "v": 127
    },
    {
      "midi": 127,
      "hit": false,
      "t": 97723.51999999411,
      "d": 94.69333333331451,
      "v": 60
    },
    {
      "midi": 108,
      "hit": false,
      "t": 97723.51999999411,
      "d": 94.69333333331451,
      "v": 80
    },
    {
      "midi": 105,
      "hit": false,
      "t": 97723.51999999411,
      "d": 94.69333333331451,
      "v": 100
    },
    {
      "midi": 42,
      "hit": false,
      "t": 97723.51999999411,
      "d": 94.69333333331451,
      "v": 92
    },
    {
      "midi": 43,
      "hit": false,
      "t": 97723.51999999411,
      "d": 198.85599999997066,
      "v": 105
    },
    {
      "midi": 48,
      "hit": false,
      "t": 97723.51999999411,
      "d": 198.85599999997066,
      "v": 105
    },
    {
      "midi": 60,
      "hit": false,
      "t": 97732.98933332744,
      "d": 75.75466666666034,
      "v": 105
    },
    {
      "midi": 52,
      "hit": false,
      "t": 97732.98933332744,
      "d": 198.85599999997066,
      "v": 105
    },
    {
      "midi": 64,
      "hit": false,
      "t": 97742.45866666076,
      "d": 75.75466666666034,
      "v": 105
    },
    {
      "midi": 64,
      "hit": false,
      "t": 97837.1519999941,
      "d": 85.22399999998743,
      "v": 80
    },
    {
      "midi": 23,
      "hit": false,
      "t": 97837.1519999941,
      "d": 94.69333333331451,
      "v": 127
    },
    {
      "midi": 42,
      "hit": false,
      "t": 97846.62133332742,
      "d": 94.69333333331451,
      "v": 78
    },
    {
      "midi": 64,
      "hit": false,
      "t": 97941.31466666074,
      "d": 9.469333333327086,
      "v": 100
    },
    {
      "midi": 64,
      "hit": false,
      "t": 97950.78399999406,
      "d": 85.22399999998743,
      "v": 105
    },
    {
      "midi": 60,
      "hit": false,
      "t": 97950.78399999406,
      "d": 85.22399999998743,
      "v": 105
    },
    {
      "midi": 67,
      "hit": false,
      "t": 97950.78399999406,
      "d": 85.22399999998743,
      "v": 80
    },
    {
      "midi": 19,
      "hit": false,
      "t": 97950.78399999406,
      "d": 94.69333333331451,
      "v": 127
    },
    {
      "midi": 15,
      "hit": false,
      "t": 97950.78399999406,
      "d": 94.69333333331451,
      "v": 100
    },
    {
      "midi": 13,
      "hit": false,
      "t": 97950.78399999406,
      "d": 94.69333333331451,
      "v": 100
    },
    {
      "midi": 10,
      "hit": false,
      "t": 97950.78399999406,
      "d": 94.69333333331451,
      "v": 127
    },
    {
      "midi": 69,
      "hit": false,
      "t": 97950.78399999406,
      "d": 151.50933333329158,
      "v": 127
    },
    {
      "midi": 52,
      "hit": false,
      "t": 97960.25333332739,
      "d": 85.22399999998743,
      "v": 105
    },
    {
      "midi": 48,
      "hit": false,
      "t": 97960.25333332739,
      "d": 85.22399999998743,
      "v": 105
    },
    {
      "midi": 43,
      "hit": false,
      "t": 97969.72266666072,
      "d": 85.22399999998743,
      "v": 105
    },
    {
      "midi": 46,
      "hit": false,
      "t": 97969.72266666072,
      "d": 94.69333333331451,
      "v": 92
    },
    {
      "midi": 43,
      "hit": false,
      "t": 98054.9466666607,
      "d": 9.469333333327086,
      "v": 100
    },
    {
      "midi": 72,
      "hit": false,
      "t": 98064.41599999403,
      "d": 37.877333333322895,
      "v": 80
    },
    {
      "midi": 43,
      "hit": false,
      "t": 98064.41599999403,
      "d": 85.22399999998743,
      "v": 105
    },
    {
      "midi": 48,
      "hit": false,
      "t": 98064.41599999403,
      "d": 85.22399999998743,
      "v": 105
    },
    {
      "midi": 52,
      "hit": false,
      "t": 98073.88533332736,
      "d": 85.22399999998743,
      "v": 105
    },
    {
      "midi": 60,
      "hit": false,
      "t": 98073.88533332736,
      "d": 85.22399999998743,
      "v": 105
    },
    {
      "midi": 64,
      "hit": false,
      "t": 98083.35466666069,
      "d": 85.22399999998743,
      "v": 105
    },
    {
      "midi": 51,
      "hit": false,
      "t": 98178.047999994,
      "d": 18.93866666665417,
      "v": 64
    },
    {
      "midi": 29,
      "hit": false,
      "t": 98178.047999994,
      "d": 94.69333333331451,
      "v": 127
    },
    {
      "midi": 15,
      "hit": false,
      "t": 98178.047999994,
      "d": 94.69333333331451,
      "v": 100
    },
    {
      "midi": 13,
      "hit": false,
      "t": 98178.047999994,
      "d": 94.69333333331451,
      "v": 100
    },
    {
      "midi": 10,
      "hit": false,
      "t": 98178.047999994,
      "d": 94.69333333331451,
      "v": 127
    },
    {
      "midi": 42,
      "hit": false,
      "t": 98178.047999994,
      "d": 94.69333333331451,
      "v": 92
    },
    {
      "midi": 72,
      "hit": false,
      "t": 98178.047999994,
      "d": 94.69333333331451,
      "v": 70
    },
    {
      "midi": 126,
      "hit": false,
      "t": 98178.047999994,
      "d": 94.69333333331451,
      "v": 70
    },
    {
      "midi": 69,
      "hit": false,
      "t": 98187.51733332733,
      "d": 75.75466666666034,
      "v": 70
    },
    {
      "midi": 52,
      "hit": false,
      "t": 98196.98666666065,
      "d": 18.938666666668723,
      "v": 64
    },
    {
      "midi": 65,
      "hit": false,
      "t": 98196.98666666065,
      "d": 94.69333333331451,
      "v": 70
    },
    {
      "midi": 48,
      "hit": false,
      "t": 98196.98666666065,
      "d": 416.65066666655184,
      "v": 105
    },
    {
      "midi": 41,
      "hit": false,
      "t": 98196.98666666065,
      "d": 416.65066666655184,
      "v": 105
    },
    {
      "midi": 53,
      "hit": false,
      "t": 98215.92533332732,
      "d": 18.938666666668723,
      "v": 64
    },
    {
      "midi": 54,
      "hit": false,
      "t": 98234.86399999399,
      "d": 18.938666666668723,
      "v": 64
    },
    {
      "midi": 55,
      "hit": false,
      "t": 98253.80266666066,
      "d": 18.93866666665417,
      "v": 64
    },
    {
      "midi": 56,
      "hit": false,
      "t": 98272.74133332731,
      "d": 18.93866666665417,
      "v": 64
    },
    {
      "midi": 57,
      "hit": false,
      "t": 98291.67999999397,
      "d": 18.93866666665417,
      "v": 64
    },
    {
      "midi": 74,
      "hit": false,
      "t": 98291.67999999397,
      "d": 85.22399999998743,
      "v": 80
    },
    {
      "midi": 29,
      "hit": false,
      "t": 98291.67999999397,
      "d": 94.69333333331451,
      "v": 127
    },
    {
      "midi": 65,
      "hit": false,
      "t": 98291.67999999397,
      "d": 94.69333333331451,
      "v": 70
    },
    {
      "midi": 42,
      "hit": false,
      "t": 98301.1493333273,
      "d": 94.69333333331451,
      "v": 78
    },
    {
      "midi": 69,
      "hit": false,
      "t": 98301.1493333273,
      "d": 94.69333333331451,
      "v": 70
    },
    {
      "midi": 58,
      "hit": false,
      "t": 98310.61866666062,
      "d": 18.938666666668723,
      "v": 64
    },
    {
      "midi": 72,
      "hit": false,
      "t": 98310.61866666062,
      "d": 94.69333333331451,
      "v": 70
    },
    {
      "midi": 59,
      "hit": false,
      "t": 98329.55733332729,
      "d": 18.938666666668723,
      "v": 64
    },
    {
      "midi": 60,
      "hit": false,
      "t": 98348.49599999396,
      "d": 18.938666666668723,
      "v": 64
    },
    {
      "midi": 61,
      "hit": false,
      "t": 98367.43466666063,
      "d": 18.93866666665417,
      "v": 64
    },
    {
      "midi": 62,
      "hit": false,
      "t": 98386.37333332728,
      "d": 18.93866666665417,
      "v": 64
    },
    {
      "midi": 63,
      "hit": false,
      "t": 98405.31199999394,
      "d": 18.93866666665417,
      "v": 64
    },
    {
      "midi": 72,
      "hit": false,
      "t": 98405.31199999394,
      "d": 47.34666666664998,
      "v": 70
    },
    {
      "midi": 77,
      "hit": false,
      "t": 98405.31199999394,
      "d": 85.22399999995832,
      "v": 80
    },
    {
      "midi": 29,
      "hit": false,
      "t": 98405.31199999394,
      "d": 94.69333333328541,
      "v": 127
    },
    {
      "midi": 69,
      "hit": false,
      "t": 98414.78133332726,
      "d": 47.34666666664998,
      "v": 70
    },
    {
      "midi": 64,
      "hit": false,
      "t": 98424.25066666059,
      "d": 18.938666666668723,
      "v": 64
    },
    {
      "midi": 46,
      "hit": false,
      "t": 98424.25066666059,
      "d": 94.69333333329996,
      "v": 92
    },
    {
      "midi": 65,
      "hit": false,
      "t": 98443.18933332726,
      "d": 18.93866666665417,
      "v": 64
    },
    {
      "midi": 66,
      "hit": false,
      "t": 98462.12799999391,
      "d": 18.93866666665417,
      "v": 64
    },
    {
      "midi": 67,
      "hit": false,
      "t": 98481.06666666057,
      "d": 18.93866666665417,
      "v": 64
    },
    {
      "midi": 68,
      "hit": false,
      "t": 98500.00533332722,
      "d": 18.938666666668723,
      "v": 64
    },
    {
      "midi": 65,
      "hit": false,
      "t": 98518.94399999389,
      "d": 75.75466666666034,
      "v": 70
    },
    {
      "midi": 81,
      "hit": false,
      "t": 98518.94399999389,
      "d": 85.22399999998743,
      "v": 80
    },
    {
      "midi": 29,
      "hit": false,
      "t": 98518.94399999389,
      "d": 94.69333333331451,
      "v": 127
    },
    {
      "midi": 64,
      "hit": false,
      "t": 98518.94399999389,
      "d": 94.69333333331451,
      "v": 70
    },
    {
      "midi": 69,
      "hit": false,
      "t": 98528.41333332722,
      "d": 9.469333333327086,
      "v": 70
    },
    {
      "midi": 70,
      "hit": false,
      "t": 98537.88266666055,
      "d": 18.938666666668723,
      "v": 64
    },
    {
      "midi": 71,
      "hit": false,
      "t": 98556.82133332721,
      "d": 18.938666666668723,
      "v": 64
    },
    {
      "midi": 72,
      "hit": false,
      "t": 98575.75999999388,
      "d": 18.938666666668723,
      "v": 64
    },
    {
      "midi": 73,
      "hit": false,
      "t": 98594.69866666055,
      "d": 18.93866666665417,
      "v": 64
    },
    {
      "midi": 74,
      "hit": false,
      "t": 98613.6373333272,
      "d": 18.93866666665417,
      "v": 64
    },
    {
      "midi": 86,
      "hit": false,
      "t": 98632.57599999386,
      "d": 85.22399999998743,
      "v": 80
    },
    {
      "midi": 29,
      "hit": false,
      "t": 98632.57599999386,
      "d": 94.69333333331451,
      "v": 127
    },
    {
      "midi": 15,
      "hit": false,
      "t": 98632.57599999386,
      "d": 94.69333333331451,
      "v": 100
    },
    {
      "midi": 13,
      "hit": false,
      "t": 98632.57599999386,
      "d": 94.69333333331451,
      "v": 100
    },
    {
      "midi": 10,
      "hit": false,
      "t": 98632.57599999386,
      "d": 94.69333333331451,
      "v": 127
    },
    {
      "midi": 127,
      "hit": false,
      "t": 98632.57599999386,
      "d": 94.69333333331451,
      "v": 60
    },
    {
      "midi": 108,
      "hit": false,
      "t": 98632.57599999386,
      "d": 94.69333333331451,
      "v": 80
    },
    {
      "midi": 105,
      "hit": false,
      "t": 98632.57599999386,
      "d": 94.69333333331451,
      "v": 100
    },
    {
      "midi": 42,
      "hit": false,
      "t": 98632.57599999386,
      "d": 94.69333333331451,
      "v": 92
    },
    {
      "midi": 72,
      "hit": false,
      "t": 98632.57599999386,
      "d": 94.69333333331451,
      "v": 70
    },
    {
      "midi": 63,
      "hit": false,
      "t": 98632.57599999386,
      "d": 94.69333333331451,
      "v": 70
    },
    {
      "midi": 60,
      "hit": false,
      "t": 98632.57599999386,
      "d": 198.8559999999561,
      "v": 105
    },
    {
      "midi": 69,
      "hit": false,
      "t": 98642.04533332719,
      "d": 94.69333333331451,
      "v": 70
    },
    {
      "midi": 57,
      "hit": false,
      "t": 98642.04533332719,
      "d": 198.8559999999561,
      "v": 105
    },
    {
      "midi": 52,
      "hit": false,
      "t": 98642.04533332719,
      "d": 198.8559999999561,
      "v": 105
    },
    {
      "midi": 65,
      "hit": false,
      "t": 98651.51466666051,
      "d": 94.69333333331451,
      "v": 70
    },
    {
      "midi": 48,
      "hit": false,
      "t": 98651.51466666051,
      "d": 198.8559999999561,
      "v": 105
    },
    {
      "midi": 41,
      "hit": false,
      "t": 98651.51466666051,
      "d": 198.8559999999561,
      "v": 105
    },
    {
      "midi": 89,
      "hit": false,
      "t": 98746.20799999383,
      "d": 85.22399999998743,
      "v": 80
    },
    {
      "midi": 72,
      "hit": false,
      "t": 98746.20799999383,
      "d": 113.63199999996868,
      "v": 127
    },
    {
      "midi": 69,
      "hit": false,
      "t": 98746.20799999383,
      "d": 113.63199999996868,
      "v": 127
    },
    {
      "midi": 42,
      "hit": false,
      "t": 98755.67733332716,
      "d": 94.69333333331451,
      "v": 78
    },
    {
      "midi": 48,
      "hit": false,
      "t": 98850.37066666047,
      "d": 9.469333333327086,
      "v": 100
    },
    {
      "midi": 41,
      "hit": false,
      "t": 98850.37066666047,
      "d": 9.469333333327086,
      "v": 100
    },
    {
      "midi": 41,
      "hit": false,
      "t": 98859.8399999938,
      "d": 85.22399999998743,
      "v": 105
    },
    {
      "midi": 48,
      "hit": false,
      "t": 98859.8399999938,
      "d": 85.22399999998743,
      "v": 105
    },
    {
      "midi": 93,
      "hit": false,
      "t": 98859.8399999938,
      "d": 85.22399999998743,
      "v": 80
    },
    {
      "midi": 29,
      "hit": false,
      "t": 98859.8399999938,
      "d": 94.69333333331451,
      "v": 127
    },
    {
      "midi": 52,
      "hit": false,
      "t": 98869.30933332712,
      "d": 85.22399999998743,
      "v": 105
    },
    {
      "midi": 57,
      "hit": false,
      "t": 98869.30933332712,
      "d": 85.22399999998743,
      "v": 105
    },
    {
      "midi": 69,
      "hit": false,
      "t": 98869.30933332712,
      "d": 94.69333333331451,
      "v": 70
    },
    {
      "midi": 65,
      "hit": false,
      "t": 98878.77866666045,
      "d": 75.75466666666034,
      "v": 105
    },
    {
      "midi": 60,
      "hit": false,
      "t": 98878.77866666045,
      "d": 85.22399999998743,
      "v": 105
    },
    {
      "midi": 72,
      "hit": false,
      "t": 98878.77866666045,
      "d": 94.69333333331451,
      "v": 70
    },
    {
      "midi": 46,
      "hit": false,
      "t": 98878.77866666045,
      "d": 94.69333333331451,
      "v": 92
    },
    {
      "midi": 60,
      "hit": false,
      "t": 98964.00266666044,
      "d": 9.469333333327086,
      "v": 90
    },
    {
      "midi": 65,
      "hit": false,
      "t": 98964.00266666044,
      "d": 9.469333333327086,
      "v": 90
    },
    {
      "midi": 60,
      "hit": false,
      "t": 98973.47199999377,
      "d": 85.22399999998743,
      "v": 105
    },
    {
      "midi": 89,
      "hit": false,
      "t": 98973.47199999377,
      "d": 85.22399999998743,
      "v": 80
    },
    {
      "midi": 29,
      "hit": false,
      "t": 98973.47199999377,
      "d": 94.69333333331451,
      "v": 127
    },
    {
      "midi": 72,
      "hit": false,
      "t": 98973.47199999377,
      "d": 94.69333333331451,
      "v": 70
    },
    {
      "midi": 57,
      "hit": false,
      "t": 98982.9413333271,
      "d": 85.22399999998743,
      "v": 105
    },
    {
      "midi": 52,
      "hit": false,
      "t": 98982.9413333271,
      "d": 85.22399999998743,
      "v": 105
    },
    {
      "midi": 69,
      "hit": false,
      "t": 98982.9413333271,
      "d": 94.69333333331451,
      "v": 70
    },
    {
      "midi": 65,
      "hit": false,
      "t": 98992.41066666042,
      "d": 66.28533333333326,
      "v": 70
    },
    {
      "midi": 48,
      "hit": false,
      "t": 98992.41066666042,
      "d": 85.22399999998743,
      "v": 105
    },
    {
      "midi": 41,
      "hit": false,
      "t": 98992.41066666042,
      "d": 85.22399999998743,
      "v": 105
    },
    {
      "midi": 48,
      "hit": false,
      "t": 99077.63466666041,
      "d": 9.469333333327086,
      "v": 90
    },
    {
      "midi": 41,
      "hit": false,
      "t": 99077.63466666041,
      "d": 9.469333333327086,
      "v": 90
    },
    {
      "midi": 86,
      "hit": false,
      "t": 99087.10399999373,
      "d": 85.22399999998743,
      "v": 80
    },
    {
      "midi": 29,
      "hit": false,
      "t": 99087.10399999373,
      "d": 94.69333333331451,
      "v": 127
    },
    {
      "midi": 15,
      "hit": false,
      "t": 99087.10399999373,
      "d": 94.69333333331451,
      "v": 100
    },
    {
      "midi": 13,
      "hit": false,
      "t": 99087.10399999373,
      "d": 94.69333333331451,
      "v": 100
    },
    {
      "midi": 10,
      "hit": false,
      "t": 99087.10399999373,
      "d": 94.69333333331451,
      "v": 127
    },
    {
      "midi": 42,
      "hit": false,
      "t": 99087.10399999373,
      "d": 94.69333333331451,
      "v": 92
    },
    {
      "midi": 41,
      "hit": false,
      "t": 99087.10399999373,
      "d": 198.85599999997066,
      "v": 105
    },
    {
      "midi": 48,
      "hit": false,
      "t": 99087.10399999373,
      "d": 198.85599999997066,
      "v": 105
    },
    {
      "midi": 71,
      "hit": false,
      "t": 99087.10399999373,
      "d": 208.32533333329775,
      "v": 127
    },
    {
      "midi": 67,
      "hit": false,
      "t": 99087.10399999373,
      "d": 208.32533333329775,
      "v": 127
    },
    {
      "midi": 52,
      "hit": false,
      "t": 99096.57333332706,
      "d": 198.85599999997066,
      "v": 105
    },
    {
      "midi": 57,
      "hit": false,
      "t": 99096.57333332706,
      "d": 198.85599999997066,
      "v": 105
    },
    {
      "midi": 60,
      "hit": false,
      "t": 99106.04266666039,
      "d": 198.85599999997066,
      "v": 105
    },
    {
      "midi": 65,
      "hit": false,
      "t": 99106.04266666039,
      "d": 198.85599999997066,
      "v": 105
    },
    {
      "midi": 81,
      "hit": false,
      "t": 99200.73599999372,
      "d": 85.22399999998743,
      "v": 80
    },
    {
      "midi": 42,
      "hit": false,
      "t": 99210.20533332705,
      "d": 94.69333333331451,
      "v": 78
    },
    {
      "midi": 60,
      "hit": false,
      "t": 99304.89866666036,
      "d": 9.469333333327086,
      "v": 100
    },
    {
      "midi": 65,
      "hit": false,
      "t": 99304.89866666036,
      "d": 9.469333333327086,
      "v": 100
    },
    {
      "midi": 77,
      "hit": false,
      "t": 99314.36799999369,
      "d": 85.22399999998743,
      "v": 80
    },
    {
      "midi": 72,
      "hit": false,
      "t": 99314.36799999369,
      "d": 151.50933333332068,
      "v": 127
    },
    {
      "midi": 69,
      "hit": false,
      "t": 99314.36799999369,
      "d": 151.50933333332068,
      "v": 127
    },
    {
      "midi": 65,
      "hit": false,
      "t": 99314.36799999369,
      "d": 198.85599999998522,
      "v": 105
    },
    {
      "midi": 60,
      "hit": false,
      "t": 99314.36799999369,
      "d": 198.85599999998522,
      "v": 105
    },
    {
      "midi": 29,
      "hit": false,
      "t": 99314.36799999369,
      "d": 208.3253333333123,
      "v": 127
    },
    {
      "midi": 57,
      "hit": false,
      "t": 99323.83733332701,
      "d": 198.85599999998522,
      "v": 105
    },
    {
      "midi": 52,
      "hit": false,
      "t": 99323.83733332701,
      "d": 198.85599999998522,
      "v": 105
    },
    {
      "midi": 46,
      "hit": false,
      "t": 99333.30666666034,
      "d": 94.69333333332906,
      "v": 92
    },
    {
      "midi": 48,
      "hit": false,
      "t": 99333.30666666034,
      "d": 198.85599999998522,
      "v": 105
    },
    {
      "midi": 41,
      "hit": false,
      "t": 99333.30666666034,
      "d": 198.85599999998522,
      "v": 105
    },
    {
      "midi": 74,
      "hit": false,
      "t": 99427.99999999367,
      "d": 85.22400000000198,
      "v": 80
    },
    {
      "midi": 63,
      "hit": false,
      "t": 99427.99999999367,
      "d": 94.69333333332906,
      "v": 80
    },
    {
      "midi": 48,
      "hit": false,
      "t": 99532.16266666033,
      "d": 9.469333333327086,
      "v": 110
    },
    {
      "midi": 41,
      "hit": false,
      "t": 99532.16266666033,
      "d": 9.469333333327086,
      "v": 110
    },
    {
      "midi": 69,
      "hit": false,
      "t": 99541.63199999365,
      "d": 85.22399999998743,
      "v": 80
    },
    {
      "midi": 29,
      "hit": false,
      "t": 99541.63199999365,
      "d": 94.69333333331451,
      "v": 127
    },
    {
      "midi": 15,
      "hit": false,
      "t": 99541.63199999365,
      "d": 94.69333333331451,
      "v": 100
    },
    {
      "midi": 13,
      "hit": false,
      "t": 99541.63199999365,
      "d": 94.69333333331451,
      "v": 100
    },
    {
      "midi": 10,
      "hit": false,
      "t": 99541.63199999365,
      "d": 94.69333333331451,
      "v": 127
    },
    {
      "midi": 127,
      "hit": false,
      "t": 99541.63199999365,
      "d": 94.69333333331451,
      "v": 60
    },
    {
      "midi": 108,
      "hit": false,
      "t": 99541.63199999365,
      "d": 94.69333333331451,
      "v": 80
    },
    {
      "midi": 105,
      "hit": false,
      "t": 99541.63199999365,
      "d": 94.69333333331451,
      "v": 100
    },
    {
      "midi": 42,
      "hit": false,
      "t": 99541.63199999365,
      "d": 94.69333333331451,
      "v": 92
    },
    {
      "midi": 64,
      "hit": false,
      "t": 99541.63199999365,
      "d": 94.69333333331451,
      "v": 70
    },
    {
      "midi": 41,
      "hit": false,
      "t": 99541.63199999365,
      "d": 416.65066666661005,
      "v": 105
    },
    {
      "midi": 48,
      "hit": false,
      "t": 99541.63199999365,
      "d": 416.65066666661005,
      "v": 105
    },
    {
      "midi": 52,
      "hit": false,
      "t": 99551.10133332698,
      "d": 416.65066666661005,
      "v": 105
    },
    {
      "midi": 57,
      "hit": false,
      "t": 99551.10133332698,
      "d": 416.65066666661005,
      "v": 105
    },
    {
      "midi": 60,
      "hit": false,
      "t": 99560.57066666031,
      "d": 416.65066666661005,
      "v": 105
    },
    {
      "midi": 65,
      "hit": false,
      "t": 99655.26399999364,
      "d": 85.22399999998743,
      "v": 80
    },
    {
      "midi": 29,
      "hit": false,
      "t": 99655.26399999364,
      "d": 94.69333333331451,
      "v": 127
    },
    {
      "midi": 42,
      "hit": false,
      "t": 99664.73333332696,
      "d": 94.69333333331451,
      "v": 78
    },
    {
      "midi": 69,
      "hit": false,
      "t": 99768.8959999936,
      "d": 85.22400000000198,
      "v": 127
    },
    {
      "midi": 29,
      "hit": false,
      "t": 99768.8959999936,
      "d": 94.69333333332906,
      "v": 127
    },
    {
      "midi": 72,
      "hit": false,
      "t": 99768.8959999936,
      "d": 208.3253333333123,
      "v": 127
    },
    {
      "midi": 46,
      "hit": false,
      "t": 99787.83466666027,
      "d": 94.69333333332906,
      "v": 92
    },
    {
      "midi": 74,
      "hit": false,
      "t": 99882.5279999936,
      "d": 85.22399999998743,
      "v": 80
    },
    {
      "midi": 47,
      "hit": false,
      "t": 99996.15999999357,
      "d": 18.93866666665417,
      "v": 64
    },
    {
      "midi": 26,
      "hit": false,
      "t": 99996.15999999357,
      "d": 94.69333333331451,
      "v": 127
    },
    {
      "midi": 15,
      "hit": false,
      "t": 99996.15999999357,
      "d": 94.69333333331451,
      "v": 100
    },
    {
      "midi": 13,
      "hit": false,
      "t": 99996.15999999357,
      "d": 94.69333333331451,
      "v": 100
    },
    {
      "midi": 10,
      "hit": false,
      "t": 99996.15999999357,
      "d": 94.69333333331451,
      "v": 127
    },
    {
      "midi": 42,
      "hit": false,
      "t": 99996.15999999357,
      "d": 94.69333333331451,
      "v": 92
    },
    {
      "midi": 62,
      "hit": false,
      "t": 99996.15999999357,
      "d": 94.69333333331451,
      "v": 105
    },
    {
      "midi": 65,
      "hit": false,
      "t": 100005.6293333269,
      "d": 94.69333333331451,
      "v": 70
    },
    {
      "midi": 45,
      "hit": false,
      "t": 100005.6293333269,
      "d": 416.65066666658095,
      "v": 105
    },
    {
      "midi": 48,
      "hit": false,
      "t": 100015.09866666023,
      "d": 18.938666666668723,
      "v": 64
    },
    {
      "midi": 69,
      "hit": false,
      "t": 100015.09866666023,
      "d": 66.28533333333326,
      "v": 70
    },
    {
      "midi": 38,
      "hit": false,
      "t": 100015.09866666023,
      "d": 416.65066666658095,
      "v": 105
    },
    {
      "midi": 49,
      "hit": false,
      "t": 100034.0373333269,
      "d": 18.938666666668723,
      "v": 64
    },
    {
      "midi": 50,
      "hit": false,
      "t": 100052.97599999356,
      "d": 18.938666666668723,
      "v": 64
    },
    {
      "midi": 51,
      "hit": false,
      "t": 100071.91466666023,
      "d": 18.93866666665417,
      "v": 64
    },
    {
      "midi": 52,
      "hit": false,
      "t": 100090.85333332689,
      "d": 18.93866666665417,
      "v": 64
    },
    {
      "midi": 53,
      "hit": false,
      "t": 100109.79199999354,
      "d": 18.93866666665417,
      "v": 64
    },
    {
      "midi": 74,
      "hit": false,
      "t": 100109.79199999354,
      "d": 85.22399999998743,
      "v": 80
    },
    {
      "midi": 26,
      "hit": false,
      "t": 100109.79199999354,
      "d": 94.69333333331451,
      "v": 127
    },
    {
      "midi": 69,
      "hit": false,
      "t": 100109.79199999354,
      "d": 94.69333333331451,
      "v": 70
    },
    {
      "midi": 42,
      "hit": false,
      "t": 100119.26133332687,
      "d": 94.69333333331451,
      "v": 78
    },
    {
      "midi": 65,
      "hit": false,
      "t": 100119.26133332687,
      "d": 94.69333333331451,
      "v": 70
    },
    {
      "midi": 54,
      "hit": false,
      "t": 100128.7306666602,
      "d": 18.938666666668723,
      "v": 64
    },
    {
      "midi": 62,
      "hit": false,
      "t": 100128.7306666602,
      "d": 94.69333333331451,
      "v": 70
    },
    {
      "midi": 55,
      "hit": false,
      "t": 100147.66933332686,
      "d": 18.938666666668723,
      "v": 64
    },
    {
      "midi": 56,
      "hit": false,
      "t": 100166.60799999353,
      "d": 18.938666666668723,
      "v": 64
    },
    {
      "midi": 57,
      "hit": false,
      "t": 100185.5466666602,
      "d": 18.93866666665417,
      "v": 64
    },
    {
      "midi": 58,
      "hit": false,
      "t": 100204.48533332685,
      "d": 18.93866666665417,
      "v": 64
    },
    {
      "midi": 62,
      "hit": false,
      "t": 100223.42399999351,
      "d": 9.469333333327086,
      "v": 60
    },
    {
      "midi": 65,
      "hit": false,
      "t": 100223.42399999351,
      "d": 9.469333333327086,
      "v": 60
    },
    {
      "midi": 69,
      "hit": false,
      "t": 100223.42399999351,
      "d": 9.469333333327086,
      "v": 60
    },
    {
      "midi": 59,
      "hit": false,
      "t": 100223.42399999351,
      "d": 18.93866666665417,
      "v": 64
    },
    {
      "midi": 77,
      "hit": false,
      "t": 100223.42399999351,
      "d": 85.22399999998743,
      "v": 80
    },
    {
      "midi": 26,
      "hit": false,
      "t": 100223.42399999351,
      "d": 94.69333333331451,
      "v": 127
    },
    {
      "midi": 60,
      "hit": false,
      "t": 100242.36266666016,
      "d": 18.938666666668723,
      "v": 64
    },
    {
      "midi": 46,
      "hit": false,
      "t": 100242.36266666016,
      "d": 94.69333333332906,
      "v": 92
    },
    {
      "midi": 61,
      "hit": false,
      "t": 100261.30133332683,
      "d": 18.938666666668723,
      "v": 64
    },
    {
      "midi": 62,
      "hit": false,
      "t": 100280.2399999935,
      "d": 18.938666666668723,
      "v": 64
    },
    {
      "midi": 63,
      "hit": false,
      "t": 100299.17866666017,
      "d": 18.93866666665417,
      "v": 64
    },
    {
      "midi": 64,
      "hit": false,
      "t": 100318.11733332682,
      "d": 18.938666666668723,
      "v": 64
    },
    {
      "midi": 81,
      "hit": false,
      "t": 100337.05599999349,
      "d": 85.22399999998743,
      "v": 80
    },
    {
      "midi": 26,
      "hit": false,
      "t": 100337.05599999349,
      "d": 94.69333333331451,
      "v": 127
    },
    {
      "midi": 64,
      "hit": false,
      "t": 100337.05599999349,
      "d": 94.69333333331451,
      "v": 70
    },
    {
      "midi": 65,
      "hit": false,
      "t": 100346.52533332682,
      "d": 9.469333333327086,
      "v": 70
    },
    {
      "midi": 66,
      "hit": false,
      "t": 100355.99466666015,
      "d": 18.938666666668723,
      "v": 64
    },
    {
      "midi": 62,
      "hit": false,
      "t": 100355.99466666015,
      "d": 56.81600000000617,
      "v": 70
    },
    {
      "midi": 67,
      "hit": false,
      "t": 100374.93333332682,
      "d": 18.938666666668723,
      "v": 64
    },
    {
      "midi": 68,
      "hit": false,
      "t": 100393.87199999348,
      "d": 18.938666666668723,
      "v": 64
    },
    {
      "midi": 69,
      "hit": false,
      "t": 100412.81066666015,
      "d": 18.93866666665417,
      "v": 64
    },
    {
      "midi": 70,
      "hit": false,
      "t": 100431.7493333268,
      "d": 18.93866666665417,
      "v": 64
    },
    {
      "midi": 62,
      "hit": false,
      "t": 100441.21866666013,
      "d": 9.469333333327086,
      "v": 110
    },
    {
      "midi": 86,
      "hit": false,
      "t": 100450.68799999346,
      "d": 85.22399999998743,
      "v": 80
    },
    {
      "midi": 26,
      "hit": false,
      "t": 100450.68799999346,
      "d": 94.69333333331451,
      "v": 127
    },
    {
      "midi": 15,
      "hit": false,
      "t": 100450.68799999346,
      "d": 94.69333333331451,
      "v": 100
    },
    {
      "midi": 13,
      "hit": false,
      "t": 100450.68799999346,
      "d": 94.69333333331451,
      "v": 100
    },
    {
      "midi": 10,
      "hit": false,
      "t": 100450.68799999346,
      "d": 94.69333333331451,
      "v": 127
    },
    {
      "midi": 127,
      "hit": false,
      "t": 100450.68799999346,
      "d": 94.69333333331451,
      "v": 60
    },
    {
      "midi": 108,
      "hit": false,
      "t": 100450.68799999346,
      "d": 94.69333333331451,
      "v": 80
    },
    {
      "midi": 105,
      "hit": false,
      "t": 100450.68799999346,
      "d": 94.69333333331451,
      "v": 100
    },
    {
      "midi": 42,
      "hit": false,
      "t": 100450.68799999346,
      "d": 94.69333333331451,
      "v": 92
    },
    {
      "midi": 62,
      "hit": false,
      "t": 100450.68799999346,
      "d": 94.69333333331451,
      "v": 105
    },
    {
      "midi": 63,
      "hit": false,
      "t": 100450.68799999346,
      "d": 94.69333333331451,
      "v": 70
    },
    {
      "midi": 72,
      "hit": false,
      "t": 100450.68799999346,
      "d": 113.63199999996868,
      "v": 127
    },
    {
      "midi": 57,
      "hit": false,
      "t": 100450.68799999346,
      "d": 198.8559999999561,
      "v": 105
    },
    {
      "midi": 65,
      "hit": false,
      "t": 100460.15733332679,
      "d": 94.69333333331451,
      "v": 70
    },
    {
      "midi": 53,
      "hit": false,
      "t": 100460.15733332679,
      "d": 198.8559999999561,
      "v": 105
    },
    {
      "midi": 45,
      "hit": false,
      "t": 100460.15733332679,
      "d": 198.8559999999561,
      "v": 105
    },
    {
      "midi": 69,
      "hit": false,
      "t": 100469.62666666012,
      "d": 94.69333333331451,
      "v": 70
    },
    {
      "midi": 38,
      "hit": false,
      "t": 100469.62666666012,
      "d": 198.8559999999561,
      "v": 105
    },
    {
      "midi": 69,
      "hit": false,
      "t": 100564.31999999343,
      "d": 9.469333333327086,
      "v": 60
    },
    {
      "midi": 65,
      "hit": false,
      "t": 100564.31999999343,
      "d": 9.469333333327086,
      "v": 60
    },
    {
      "midi": 62,
      "hit": false,
      "t": 100564.31999999343,
      "d": 9.469333333327086,
      "v": 60
    },
    {
      "midi": 89,
      "hit": false,
      "t": 100564.31999999343,
      "d": 85.22399999998743,
      "v": 80
    },
    {
      "midi": 72,
      "hit": false,
      "t": 100564.31999999343,
      "d": 113.63199999996868,
      "v": 127
    },
    {
      "midi": 42,
      "hit": false,
      "t": 100573.78933332676,
      "d": 94.69333333331451,
      "v": 78
    },
    {
      "midi": 38,
      "hit": false,
      "t": 100668.48266666007,
      "d": 9.469333333327086,
      "v": 100
    },
    {
      "midi": 38,
      "hit": false,
      "t": 100677.9519999934,
      "d": 66.2853333333187,
      "v": 105
    },
    {
      "midi": 45,
      "hit": false,
      "t": 100677.9519999934,
      "d": 66.2853333333187,
      "v": 105
    },
    {
      "midi": 86,
      "hit": false,
      "t": 100677.9519999934,
      "d": 85.22399999997288,
      "v": 80
    },
    {
      "midi": 26,
      "hit": false,
      "t": 100677.9519999934,
      "d": 208.3253333332541,
      "v": 127
    },
    {
      "midi": 72,
      "hit": false,
      "t": 100677.9519999934,
      "d": 227.26399999990826,
      "v": 127
    },
    {
      "midi": 53,
      "hit": false,
      "t": 100687.42133332673,
      "d": 66.2853333333187,
      "v": 105
    },
    {
      "midi": 57,
      "hit": false,
      "t": 100687.42133332673,
      "d": 66.2853333333187,
      "v": 105
    },
    {
      "midi": 65,
      "hit": false,
      "t": 100687.42133332673,
      "d": 94.69333333329996,
      "v": 70
    },
    {
      "midi": 62,
      "hit": false,
      "t": 100696.89066666005,
      "d": 66.2853333333187,
      "v": 105
    },
    {
      "midi": 46,
      "hit": false,
      "t": 100696.89066666005,
      "d": 94.69333333329996,
      "v": 92
    },
    {
      "midi": 69,
      "hit": false,
      "t": 100696.89066666005,
      "d": 94.69333333329996,
      "v": 70
    },
    {
      "midi": 62,
      "hit": false,
      "t": 100782.11466666003,
      "d": 9.469333333327086,
      "v": 100
    },
    {
      "midi": 57,
      "hit": false,
      "t": 100791.58399999335,
      "d": 66.2853333333187,
      "v": 105
    },
    {
      "midi": 81,
      "hit": false,
      "t": 100791.58399999335,
      "d": 85.22399999997288,
      "v": 80
    },
    {
      "midi": 69,
      "hit": false,
      "t": 100791.58399999335,
      "d": 94.69333333329996,
      "v": 70
    },
    {
      "midi": 53,
      "hit": false,
      "t": 100801.05333332668,
      "d": 66.2853333333187,
      "v": 105
    },
    {
      "midi": 45,
      "hit": false,
      "t": 100801.05333332668,
      "d": 66.2853333333187,
      "v": 105
    },
    {
      "midi": 65,
      "hit": false,
      "t": 100801.05333332668,
      "d": 94.69333333329996,
      "v": 70
    },
    {
      "midi": 62,
      "hit": false,
      "t": 100810.52266666,
      "d": 47.34666666666453,
      "v": 70
    },
    {
      "midi": 38,
      "hit": false,
      "t": 100810.52266666,
      "d": 66.2853333333187,
      "v": 105
    },
    {
      "midi": 38,
      "hit": false,
      "t": 100895.74666665998,
      "d": 9.469333333327086,
      "v": 120
    },
    {
      "midi": 38,
      "hit": false,
      "t": 100905.2159999933,
      "d": 28.407999999981257,
      "v": 105
    },
    {
      "midi": 45,
      "hit": false,
      "t": 100905.2159999933,
      "d": 28.407999999981257,
      "v": 105
    },
    {
      "midi": 77,
      "hit": false,
      "t": 100905.2159999933,
      "d": 85.22399999995832,
      "v": 80
    },
    {
      "midi": 26,
      "hit": false,
      "t": 100905.2159999933,
      "d": 94.69333333328541,
      "v": 127
    },
    {
      "midi": 15,
      "hit": false,
      "t": 100905.2159999933,
      "d": 94.69333333328541,
      "v": 100
    },
    {
      "midi": 13,
      "hit": false,
      "t": 100905.2159999933,
      "d": 94.69333333328541,
      "v": 100
    },
    {
      "midi": 10,
      "hit": false,
      "t": 100905.2159999933,
      "d": 94.69333333328541,
      "v": 127
    },
    {
      "midi": 42,
      "hit": false,
      "t": 100905.2159999933,
      "d": 94.69333333328541,
      "v": 92
    },
    {
      "midi": 71,
      "hit": false,
      "t": 100905.2159999933,
      "d": 208.325333333225,
      "v": 127
    },
    {
      "midi": 67,
      "hit": false,
      "t": 100905.2159999933,
      "d": 208.325333333225,
      "v": 127
    },
    {
      "midi": 53,
      "hit": false,
      "t": 100914.68533332663,
      "d": 28.407999999981257,
      "v": 105
    },
    {
      "midi": 57,
      "hit": false,
      "t": 100914.68533332663,
      "d": 28.407999999981257,
      "v": 105
    },
    {
      "midi": 62,
      "hit": false,
      "t": 100924.15466665996,
      "d": 28.407999999981257,
      "v": 105
    },
    {
      "midi": 62,
      "hit": false,
      "t": 101018.84799999325,
      "d": 28.407999999981257,
      "v": 105
    },
    {
      "midi": 57,
      "hit": false,
      "t": 101018.84799999325,
      "d": 28.407999999981257,
      "v": 105
    },
    {
      "midi": 74,
      "hit": false,
      "t": 101018.84799999325,
      "d": 85.22399999995832,
      "v": 80
    },
    {
      "midi": 53,
      "hit": false,
      "t": 101028.31733332657,
      "d": 28.407999999981257,
      "v": 105
    },
    {
      "midi": 45,
      "hit": false,
      "t": 101028.31733332657,
      "d": 28.407999999981257,
      "v": 105
    },
    {
      "midi": 42,
      "hit": false,
      "t": 101028.31733332657,
      "d": 94.69333333328541,
      "v": 78
    },
    {
      "midi": 38,
      "hit": false,
      "t": 101037.7866666599,
      "d": 28.407999999981257,
      "v": 105
    },
    {
      "midi": 69,
      "hit": false,
      "t": 101132.47999999319,
      "d": 85.22399999998743,
      "v": 127
    },
    {
      "midi": 72,
      "hit": false,
      "t": 101132.47999999319,
      "d": 113.63199999998324,
      "v": 127
    },
    {
      "midi": 38,
      "hit": false,
      "t": 101132.47999999319,
      "d": 198.85599999998522,
      "v": 105
    },
    {
      "midi": 45,
      "hit": false,
      "t": 101132.47999999319,
      "d": 198.85599999998522,
      "v": 105
    },
    {
      "midi": 26,
      "hit": false,
      "t": 101132.47999999319,
      "d": 208.3253333333123,
      "v": 127
    },
    {
      "midi": 53,
      "hit": false,
      "t": 101141.94933332651,
      "d": 198.85599999998522,
      "v": 105
    },
    {
      "midi": 57,
      "hit": false,
      "t": 101141.94933332651,
      "d": 198.85599999998522,
      "v": 105
    },
    {
      "midi": 46,
      "hit": false,
      "t": 101151.41866665984,
      "d": 94.69333333332906,
      "v": 92
    },
    {
      "midi": 62,
      "hit": false,
      "t": 101151.41866665984,
      "d": 198.85599999998522,
      "v": 105
    },
    {
      "midi": 65,
      "hit": false,
      "t": 101246.11199999317,
      "d": 85.22400000000198,
      "v": 80
    },
    {
      "midi": 63,
      "hit": false,
      "t": 101246.11199999317,
      "d": 94.69333333332906,
      "v": 80
    },
    {
      "midi": 62,
      "hit": false,
      "t": 101350.27466665983,
      "d": 9.469333333327086,
      "v": 110
    },
    {
      "midi": 62,
      "hit": false,
      "t": 101359.74399999315,
      "d": 85.22399999998743,
      "v": 105
    },
    {
      "midi": 26,
      "hit": false,
      "t": 101359.74399999315,
      "d": 94.69333333331451,
      "v": 127
    },
    {
      "midi": 15,
      "hit": false,
      "t": 101359.74399999315,
      "d": 94.69333333331451,
      "v": 100
    },
    {
      "midi": 13,
      "hit": false,
      "t": 101359.74399999315,
      "d": 94.69333333331451,
      "v": 100
    },
    {
      "midi": 10,
      "hit": false,
      "t": 101359.74399999315,
      "d": 94.69333333331451,
      "v": 127
    },
    {
      "midi": 127,
      "hit": false,
      "t": 101359.74399999315,
      "d": 94.69333333331451,
      "v": 60
    },
    {
      "midi": 108,
      "hit": false,
      "t": 101359.74399999315,
      "d": 94.69333333331451,
      "v": 80
    },
    {
      "midi": 105,
      "hit": false,
      "t": 101359.74399999315,
      "d": 94.69333333331451,
      "v": 100
    },
    {
      "midi": 42,
      "hit": false,
      "t": 101359.74399999315,
      "d": 94.69333333331451,
      "v": 92
    },
    {
      "midi": 64,
      "hit": false,
      "t": 101359.74399999315,
      "d": 94.69333333331451,
      "v": 70
    },
    {
      "midi": 72,
      "hit": false,
      "t": 101359.74399999315,
      "d": 151.50933333330613,
      "v": 127
    },
    {
      "midi": 69,
      "hit": false,
      "t": 101359.74399999315,
      "d": 151.50933333330613,
      "v": 127
    },
    {
      "midi": 57,
      "hit": false,
      "t": 101359.74399999315,
      "d": 198.85599999997066,
      "v": 105
    },
    {
      "midi": 53,
      "hit": false,
      "t": 101369.21333332648,
      "d": 198.85599999997066,
      "v": 105
    },
    {
      "midi": 45,
      "hit": false,
      "t": 101369.21333332648,
      "d": 198.85599999997066,
      "v": 105
    },
    {
      "midi": 38,
      "hit": false,
      "t": 101378.6826666598,
      "d": 198.85599999997066,
      "v": 105
    },
    {
      "midi": 65,
      "hit": false,
      "t": 101473.37599999314,
      "d": 85.22399999998743,
      "v": 80
    },
    {
      "midi": 26,
      "hit": false,
      "t": 101473.37599999314,
      "d": 94.69333333331451,
      "v": 127
    },
    {
      "midi": 42,
      "hit": false,
      "t": 101482.84533332646,
      "d": 94.69333333331451,
      "v": 78
    },
    {
      "midi": 38,
      "hit": false,
      "t": 101577.53866665978,
      "d": 9.469333333327086,
      "v": 100
    },
    {
      "midi": 38,
      "hit": false,
      "t": 101587.0079999931,
      "d": 9.469333333327086,
      "v": 105
    },
    {
      "midi": 45,
      "hit": false,
      "t": 101587.0079999931,
      "d": 9.469333333327086,
      "v": 105
    },
    {
      "midi": 69,
      "hit": false,
      "t": 101587.0079999931,
      "d": 85.22399999997288,
      "v": 80
    },
    {
      "midi": 26,
      "hit": false,
      "t": 101587.0079999931,
      "d": 94.69333333329996,
      "v": 127
    },
    {
      "midi": 15,
      "hit": false,
      "t": 101587.0079999931,
      "d": 94.69333333329996,
      "v": 100
    },
    {
      "midi": 13,
      "hit": false,
      "t": 101587.0079999931,
      "d": 94.69333333329996,
      "v": 100
    },
    {
      "midi": 10,
      "hit": false,
      "t": 101587.0079999931,
      "d": 94.69333333329996,
      "v": 127
    },
    {
      "midi": 77,
      "hit": false,
      "t": 101587.0079999931,
      "d": 435.58933333319146,
      "v": 127
    },
    {
      "midi": 74,
      "hit": false,
      "t": 101587.0079999931,
      "d": 435.58933333319146,
      "v": 127
    },
    {
      "midi": 53,
      "hit": false,
      "t": 101596.47733332643,
      "d": 9.469333333327086,
      "v": 105
    },
    {
      "midi": 57,
      "hit": false,
      "t": 101596.47733332643,
      "d": 9.469333333327086,
      "v": 105
    },
    {
      "midi": 62,
      "hit": false,
      "t": 101605.94666665976,
      "d": 9.469333333327086,
      "v": 105
    },
    {
      "midi": 46,
      "hit": false,
      "t": 101605.94666665976,
      "d": 94.69333333329996,
      "v": 92
    },
    {
      "midi": 62,
      "hit": false,
      "t": 101700.63999999306,
      "d": 28.407999999981257,
      "v": 105
    },
    {
      "midi": 57,
      "hit": false,
      "t": 101700.63999999306,
      "d": 28.407999999981257,
      "v": 105
    },
    {
      "midi": 65,
      "hit": false,
      "t": 101700.63999999306,
      "d": 85.22399999995832,
      "v": 80
    },
    {
      "midi": 53,
      "hit": false,
      "t": 101710.10933332639,
      "d": 28.407999999981257,
      "v": 105
    },
    {
      "midi": 45,
      "hit": false,
      "t": 101710.10933332639,
      "d": 28.407999999981257,
      "v": 105
    },
    {
      "midi": 38,
      "hit": false,
      "t": 101719.57866665971,
      "d": 28.407999999981257,
      "v": 105
    },
    {
      "midi": 71,
      "hit": false,
      "t": 101814.27199999301,
      "d": 85.22399999998743,
      "v": 70
    },
    {
      "midi": 28,
      "hit": false,
      "t": 101814.27199999301,
      "d": 94.69333333331451,
      "v": 127
    },
    {
      "midi": 15,
      "hit": false,
      "t": 101814.27199999301,
      "d": 94.69333333331451,
      "v": 100
    },
    {
      "midi": 13,
      "hit": false,
      "t": 101814.27199999301,
      "d": 94.69333333331451,
      "v": 100
    },
    {
      "midi": 10,
      "hit": false,
      "t": 101814.27199999301,
      "d": 94.69333333331451,
      "v": 127
    },
    {
      "midi": 42,
      "hit": false,
      "t": 101814.27199999301,
      "d": 94.69333333331451,
      "v": 92
    },
    {
      "midi": 40,
      "hit": false,
      "t": 101814.27199999301,
      "d": 416.65066666658095,
      "v": 115
    },
    {
      "midi": 47,
      "hit": false,
      "t": 101814.27199999301,
      "d": 416.65066666658095,
      "v": 115
    },
    {
      "midi": 68,
      "hit": false,
      "t": 101823.74133332634,
      "d": 94.69333333331451,
      "v": 70
    },
    {
      "midi": 56,
      "hit": false,
      "t": 101823.74133332634,
      "d": 416.65066666658095,
      "v": 115
    },
    {
      "midi": 59,
      "hit": false,
      "t": 101823.74133332634,
      "d": 416.65066666658095,
      "v": 115
    },
    {
      "midi": 64,
      "hit": false,
      "t": 101833.21066665967,
      "d": 94.69333333331451,
      "v": 115
    },
    {
      "midi": 28,
      "hit": false,
      "t": 101927.90399999298,
      "d": 94.69333333331451,
      "v": 127
    },
    {
      "midi": 64,
      "hit": false,
      "t": 101927.90399999298,
      "d": 94.69333333331451,
      "v": 70
    },
    {
      "midi": 68,
      "hit": false,
      "t": 101937.37333332631,
      "d": 75.75466666666034,
      "v": 70
    },
    {
      "midi": 42,
      "hit": false,
      "t": 101937.37333332631,
      "d": 94.69333333331451,
      "v": 78
    },
    {
      "midi": 71,
      "hit": false,
      "t": 101946.84266665964,
      "d": 94.69333333331451,
      "v": 70
    },
    {
      "midi": 71,
      "hit": false,
      "t": 102041.53599999295,
      "d": 9.469333333327086,
      "v": 60
    },
    {
      "midi": 68,
      "hit": false,
      "t": 102041.53599999295,
      "d": 9.469333333327086,
      "v": 60
    },
    {
      "midi": 64,
      "hit": false,
      "t": 102041.53599999295,
      "d": 9.469333333327086,
      "v": 60
    },
    {
      "midi": 76,
      "hit": false,
      "t": 102041.53599999295,
      "d": 85.22399999998743,
      "v": 127
    },
    {
      "midi": 28,
      "hit": false,
      "t": 102041.53599999295,
      "d": 94.69333333331451,
      "v": 127
    },
    {
      "midi": 46,
      "hit": false,
      "t": 102060.4746666596,
      "d": 94.69333333332906,
      "v": 92
    },
    {
      "midi": 80,
      "hit": false,
      "t": 102155.16799999293,
      "d": 85.22399999998743,
      "v": 80
    },
    {
      "midi": 64,
      "hit": false,
      "t": 102155.16799999293,
      "d": 94.69333333331451,
      "v": 70
    },
    {
      "midi": 28,
      "hit": false,
      "t": 102155.16799999293,
      "d": 94.69333333331451,
      "v": 127
    },
    {
      "midi": 68,
      "hit": false,
      "t": 102164.63733332626,
      "d": 94.69333333331451,
      "v": 70
    },
    {
      "midi": 71,
      "hit": false,
      "t": 102174.10666665959,
      "d": 94.69333333331451,
      "v": 70
    },
    {
      "midi": 83,
      "hit": false,
      "t": 102268.7999999929,
      "d": 85.22399999998743,
      "v": 80
    },
    {
      "midi": 28,
      "hit": false,
      "t": 102268.7999999929,
      "d": 94.69333333331451,
      "v": 127
    },
    {
      "midi": 15,
      "hit": false,
      "t": 102268.7999999929,
      "d": 94.69333333331451,
      "v": 100
    },
    {
      "midi": 13,
      "hit": false,
      "t": 102268.7999999929,
      "d": 94.69333333331451,
      "v": 100
    },
    {
      "midi": 10,
      "hit": false,
      "t": 102268.7999999929,
      "d": 94.69333333331451,
      "v": 127
    },
    {
      "midi": 127,
      "hit": false,
      "t": 102268.7999999929,
      "d": 94.69333333331451,
      "v": 60
    },
    {
      "midi": 108,
      "hit": false,
      "t": 102268.7999999929,
      "d": 94.69333333331451,
      "v": 80
    },
    {
      "midi": 105,
      "hit": false,
      "t": 102268.7999999929,
      "d": 94.69333333331451,
      "v": 100
    },
    {
      "midi": 42,
      "hit": false,
      "t": 102268.7999999929,
      "d": 94.69333333331451,
      "v": 92
    },
    {
      "midi": 71,
      "hit": false,
      "t": 102268.7999999929,
      "d": 94.69333333331451,
      "v": 70
    },
    {
      "midi": 63,
      "hit": false,
      "t": 102268.7999999929,
      "d": 94.69333333331451,
      "v": 70
    },
    {
      "midi": 59,
      "hit": false,
      "t": 102268.7999999929,
      "d": 198.8559999999561,
      "v": 115
    },
    {
      "midi": 57,
      "hit": false,
      "t": 102268.7999999929,
      "d": 208.3253333332832,
      "v": 110
    },
    {
      "midi": 68,
      "hit": false,
      "t": 102278.26933332623,
      "d": 94.69333333331451,
      "v": 70
    },
    {
      "midi": 47,
      "hit": false,
      "t": 102278.26933332623,
      "d": 198.8559999999561,
      "v": 115
    },
    {
      "midi": 56,
      "hit": false,
      "t": 102278.26933332623,
      "d": 208.3253333332832,
      "v": 115
    },
    {
      "midi": 64,
      "hit": false,
      "t": 102287.73866665956,
      "d": 94.69333333331451,
      "v": 70
    },
    {
      "midi": 40,
      "hit": false,
      "t": 102287.73866665956,
      "d": 198.8559999999561,
      "v": 115
    },
    {
      "midi": 64,
      "hit": false,
      "t": 102382.43199999287,
      "d": 9.469333333327086,
      "v": 60
    },
    {
      "midi": 68,
      "hit": false,
      "t": 102382.43199999287,
      "d": 9.469333333327086,
      "v": 60
    },
    {
      "midi": 71,
      "hit": false,
      "t": 102382.43199999287,
      "d": 9.469333333327086,
      "v": 60
    },
    {
      "midi": 88,
      "hit": false,
      "t": 102382.43199999287,
      "d": 85.22399999998743,
      "v": 80
    },
    {
      "midi": 42,
      "hit": false,
      "t": 102391.9013333262,
      "d": 94.69333333331451,
      "v": 78
    },
    {
      "midi": 40,
      "hit": false,
      "t": 102486.59466665951,
      "d": 9.469333333327086,
      "v": 100
    },
    {
      "midi": 40,
      "hit": false,
      "t": 102496.06399999284,
      "d": 85.22399999998743,
      "v": 115
    },
    {
      "midi": 47,
      "hit": false,
      "t": 102496.06399999284,
      "d": 85.22399999998743,
      "v": 115
    },
    {
      "midi": 83,
      "hit": false,
      "t": 102496.06399999284,
      "d": 85.22399999998743,
      "v": 80
    },
    {
      "midi": 28,
      "hit": false,
      "t": 102496.06399999284,
      "d": 94.69333333331451,
      "v": 127
    },
    {
      "midi": 71,
      "hit": false,
      "t": 102496.06399999284,
      "d": 94.69333333331451,
      "v": 70
    },
    {
      "midi": 56,
      "hit": false,
      "t": 102505.53333332617,
      "d": 85.22399999998743,
      "v": 115
    },
    {
      "midi": 59,
      "hit": false,
      "t": 102505.53333332617,
      "d": 85.22399999998743,
      "v": 115
    },
    {
      "midi": 68,
      "hit": false,
      "t": 102505.53333332617,
      "d": 94.69333333331451,
      "v": 70
    },
    {
      "midi": 64,
      "hit": false,
      "t": 102515.0026666595,
      "d": 85.22399999998743,
      "v": 115
    },
    {
      "midi": 46,
      "hit": false,
      "t": 102515.0026666595,
      "d": 94.69333333331451,
      "v": 92
    },
    {
      "midi": 64,
      "hit": false,
      "t": 102600.22666665948,
      "d": 9.469333333327086,
      "v": 90
    },
    {
      "midi": 64,
      "hit": false,
      "t": 102609.69599999281,
      "d": 85.22399999998743,
      "v": 115
    },
    {
      "midi": 59,
      "hit": false,
      "t": 102609.69599999281,
      "d": 85.22399999998743,
      "v": 115
    },
    {
      "midi": 80,
      "hit": false,
      "t": 102609.69599999281,
      "d": 85.22399999998743,
      "v": 80
    },
    {
      "midi": 56,
      "hit": false,
      "t": 102619.16533332613,
      "d": 85.22399999998743,
      "v": 115
    },
    {
      "midi": 47,
      "hit": false,
      "t": 102619.16533332613,
      "d": 85.22399999998743,
      "v": 115
    },
    {
      "midi": 68,
      "hit": false,
      "t": 102619.16533332613,
      "d": 94.69333333331451,
      "v": 70
    },
    {
      "midi": 40,
      "hit": false,
      "t": 102628.63466665946,
      "d": 85.22399999998743,
      "v": 115
    },
    {
      "midi": 71,
      "hit": false,
      "t": 102628.63466665946,
      "d": 94.69333333331451,
      "v": 70
    },
    {
      "midi": 40,
      "hit": false,
      "t": 102713.85866665945,
      "d": 9.469333333327086,
      "v": 100
    },
    {
      "midi": 40,
      "hit": false,
      "t": 102723.32799999278,
      "d": 85.22399999998743,
      "v": 115
    },
    {
      "midi": 47,
      "hit": false,
      "t": 102723.32799999278,
      "d": 85.22399999998743,
      "v": 115
    },
    {
      "midi": 76,
      "hit": false,
      "t": 102723.32799999278,
      "d": 85.22399999998743,
      "v": 80
    },
    {
      "midi": 28,
      "hit": false,
      "t": 102723.32799999278,
      "d": 94.69333333331451,
      "v": 127
    },
    {
      "midi": 15,
      "hit": false,
      "t": 102723.32799999278,
      "d": 94.69333333331451,
      "v": 100
    },
    {
      "midi": 13,
      "hit": false,
      "t": 102723.32799999278,
      "d": 94.69333333331451,
      "v": 100
    },
    {
      "midi": 10,
      "hit": false,
      "t": 102723.32799999278,
      "d": 94.69333333331451,
      "v": 127
    },
    {
      "midi": 42,
      "hit": false,
      "t": 102723.32799999278,
      "d": 94.69333333331451,
      "v": 92
    },
    {
      "midi": 56,
      "hit": false,
      "t": 102732.7973333261,
      "d": 85.22399999998743,
      "v": 115
    },
    {
      "midi": 59,
      "hit": false,
      "t": 102732.7973333261,
      "d": 85.22399999998743,
      "v": 115
    },
    {
      "midi": 64,
      "hit": false,
      "t": 102742.26666665943,
      "d": 85.22399999998743,
      "v": 115
    },
    {
      "midi": 64,
      "hit": false,
      "t": 102827.49066665942,
      "d": 9.469333333327086,
      "v": 90
    },
    {
      "midi": 64,
      "hit": false,
      "t": 102836.95999999274,
      "d": 85.22399999998743,
      "v": 115
    },
    {
      "midi": 59,
      "hit": false,
      "t": 102836.95999999274,
      "d": 85.22399999998743,
      "v": 115
    },
    {
      "midi": 71,
      "hit": false,
      "t": 102836.95999999274,
      "d": 85.22399999998743,
      "v": 80
    },
    {
      "midi": 56,
      "hit": false,
      "t": 102846.42933332607,
      "d": 85.22399999998743,
      "v": 115
    },
    {
      "midi": 47,
      "hit": false,
      "t": 102846.42933332607,
      "d": 85.22399999998743,
      "v": 115
    },
    {
      "midi": 42,
      "hit": false,
      "t": 102846.42933332607,
      "d": 94.69333333331451,
      "v": 78
    },
    {
      "midi": 40,
      "hit": false,
      "t": 102855.8986666594,
      "d": 85.22399999998743,
      "v": 115
    },
    {
      "midi": 40,
      "hit": false,
      "t": 102941.12266665939,
      "d": 9.469333333327086,
      "v": 100
    },
    {
      "midi": 68,
      "hit": false,
      "t": 102950.59199999271,
      "d": 85.22399999998743,
      "v": 80
    },
    {
      "midi": 40,
      "hit": false,
      "t": 102950.59199999271,
      "d": 198.85599999998522,
      "v": 115
    },
    {
      "midi": 47,
      "hit": false,
      "t": 102950.59199999271,
      "d": 198.85599999998522,
      "v": 115
    },
    {
      "midi": 28,
      "hit": false,
      "t": 102950.59199999271,
      "d": 208.3253333333123,
      "v": 127
    },
    {
      "midi": 56,
      "hit": false,
      "t": 102960.06133332604,
      "d": 198.85599999998522,
      "v": 115
    },
    {
      "midi": 59,
      "hit": false,
      "t": 102960.06133332604,
      "d": 198.85599999998522,
      "v": 115
    },
    {
      "midi": 46,
      "hit": false,
      "t": 102969.53066665937,
      "d": 94.69333333332906,
      "v": 92
    },
    {
      "midi": 64,
      "hit": false,
      "t": 103064.2239999927,
      "d": 85.22400000000198,
      "v": 80
    },
    {
      "midi": 63,
      "hit": false,
      "t": 103064.2239999927,
      "d": 94.69333333332906,
      "v": 80
    },
    {
      "midi": 64,
      "hit": false,
      "t": 103168.38666665935,
      "d": 9.469333333327086,
      "v": 110
    },
    {
      "midi": 59,
      "hit": false,
      "t": 103177.85599999268,
      "d": 85.22399999998743,
      "v": 115
    },
    {
      "midi": 28,
      "hit": false,
      "t": 103177.85599999268,
      "d": 94.69333333331451,
      "v": 127
    },
    {
      "midi": 15,
      "hit": false,
      "t": 103177.85599999268,
      "d": 94.69333333331451,
      "v": 100
    },
    {
      "midi": 13,
      "hit": false,
      "t": 103177.85599999268,
      "d": 94.69333333331451,
      "v": 100
    },
    {
      "midi": 10,
      "hit": false,
      "t": 103177.85599999268,
      "d": 94.69333333331451,
      "v": 127
    },
    {
      "midi": 127,
      "hit": false,
      "t": 103177.85599999268,
      "d": 94.69333333331451,
      "v": 60
    },
    {
      "midi": 108,
      "hit": false,
      "t": 103177.85599999268,
      "d": 94.69333333331451,
      "v": 80
    },
    {
      "midi": 105,
      "hit": false,
      "t": 103177.85599999268,
      "d": 94.69333333331451,
      "v": 100
    },
    {
      "midi": 42,
      "hit": false,
      "t": 103177.85599999268,
      "d": 94.69333333331451,
      "v": 92
    },
    {
      "midi": 64,
      "hit": false,
      "t": 103177.85599999268,
      "d": 94.69333333331451,
      "v": 70
    },
    {
      "midi": 57,
      "hit": false,
      "t": 103177.85599999268,
      "d": 208.32533333329775,
      "v": 110
    },
    {
      "midi": 47,
      "hit": false,
      "t": 103187.325333326,
      "d": 198.85599999997066,
      "v": 115
    },
    {
      "midi": 56,
      "hit": false,
      "t": 103187.325333326,
      "d": 208.32533333329775,
      "v": 115
    },
    {
      "midi": 40,
      "hit": false,
      "t": 103196.79466665933,
      "d": 198.85599999997066,
      "v": 115
    },
    {
      "midi": 64,
      "hit": false,
      "t": 103291.48799999266,
      "d": 85.22399999998743,
      "v": 80
    },
    {
      "midi": 28,
      "hit": false,
      "t": 103291.48799999266,
      "d": 94.69333333331451,
      "v": 127
    },
    {
      "midi": 42,
      "hit": false,
      "t": 103300.95733332599,
      "d": 94.69333333331451,
      "v": 78
    },
    {
      "midi": 40,
      "hit": false,
      "t": 103395.6506666593,
      "d": 9.469333333327086,
      "v": 100
    },
    {
      "midi": 40,
      "hit": false,
      "t": 103405.11999999263,
      "d": 85.22399999998743,
      "v": 115
    },
    {
      "midi": 47,
      "hit": false,
      "t": 103405.11999999263,
      "d": 85.22399999998743,
      "v": 115
    },
    {
      "midi": 68,
      "hit": false,
      "t": 103405.11999999263,
      "d": 85.22399999998743,
      "v": 80
    },
    {
      "midi": 28,
      "hit": false,
      "t": 103405.11999999263,
      "d": 94.69333333331451,
      "v": 127
    },
    {
      "midi": 127,
      "hit": false,
      "t": 103405.11999999263,
      "d": 94.69333333331451,
      "v": 60
    },
    {
      "midi": 108,
      "hit": false,
      "t": 103405.11999999263,
      "d": 94.69333333331451,
      "v": 80
    },
    {
      "midi": 105,
      "hit": false,
      "t": 103405.11999999263,
      "d": 94.69333333331451,
      "v": 100
    },
    {
      "midi": 56,
      "hit": false,
      "t": 103414.58933332596,
      "d": 85.22399999998743,
      "v": 115
    },
    {
      "midi": 59,
      "hit": false,
      "t": 103414.58933332596,
      "d": 85.22399999998743,
      "v": 115
    },
    {
      "midi": 64,
      "hit": false,
      "t": 103424.05866665929,
      "d": 85.22399999998743,
      "v": 115
    },
    {
      "midi": 46,
      "hit": false,
      "t": 103424.05866665929,
      "d": 94.69333333331451,
      "v": 92
    },
    {
      "midi": 64,
      "hit": false,
      "t": 103509.28266665927,
      "d": 9.469333333327086,
      "v": 100
    },
    {
      "midi": 64,
      "hit": false,
      "t": 103518.7519999926,
      "d": 85.22399999998743,
      "v": 115
    },
    {
      "midi": 59,
      "hit": false,
      "t": 103518.7519999926,
      "d": 85.22399999998743,
      "v": 115
    },
    {
      "midi": 71,
      "hit": false,
      "t": 103518.7519999926,
      "d": 85.22399999998743,
      "v": 80
    },
    {
      "midi": 127,
      "hit": false,
      "t": 103518.7519999926,
      "d": 94.69333333331451,
      "v": 60
    },
    {
      "midi": 108,
      "hit": false,
      "t": 103518.7519999926,
      "d": 94.69333333331451,
      "v": 80
    },
    {
      "midi": 105,
      "hit": false,
      "t": 103518.7519999926,
      "d": 94.69333333331451,
      "v": 100
    },
    {
      "midi": 56,
      "hit": false,
      "t": 103528.22133332593,
      "d": 85.22399999998743,
      "v": 115
    },
    {
      "midi": 47,
      "hit": false,
      "t": 103528.22133332593,
      "d": 85.22399999998743,
      "v": 115
    },
    {
      "midi": 40,
      "hit": false,
      "t": 103537.69066665925,
      "d": 85.22399999998743,
      "v": 115
    },
    {
      "midi": 40,
      "hit": false,
      "t": 103622.91466665924,
      "d": 9.469333333327086,
      "v": 100
    },
    {
      "midi": 28,
      "hit": false,
      "t": 103632.38399999257,
      "d": 94.69333333331451,
      "v": 127
    },
    {
      "midi": 15,
      "hit": false,
      "t": 103632.38399999257,
      "d": 94.69333333331451,
      "v": 100
    },
    {
      "midi": 13,
      "hit": false,
      "t": 103632.38399999257,
      "d": 94.69333333331451,
      "v": 100
    },
    {
      "midi": 10,
      "hit": false,
      "t": 103632.38399999257,
      "d": 94.69333333331451,
      "v": 127
    },
    {
      "midi": 127,
      "hit": false,
      "t": 103632.38399999257,
      "d": 94.69333333331451,
      "v": 60
    },
    {
      "midi": 108,
      "hit": false,
      "t": 103632.38399999257,
      "d": 94.69333333331451,
      "v": 80
    },
    {
      "midi": 105,
      "hit": false,
      "t": 103632.38399999257,
      "d": 94.69333333331451,
      "v": 100
    },
    {
      "midi": 42,
      "hit": false,
      "t": 103632.38399999257,
      "d": 94.69333333331451,
      "v": 92
    },
    {
      "midi": 71,
      "hit": false,
      "t": 103632.38399999257,
      "d": 94.69333333331451,
      "v": 70
    },
    {
      "midi": 80,
      "hit": false,
      "t": 103632.38399999257,
      "d": 340.8959999999206,
      "v": 127
    },
    {
      "midi": 40,
      "hit": false,
      "t": 103632.38399999257,
      "d": 416.65066666658095,
      "v": 115
    },
    {
      "midi": 47,
      "hit": false,
      "t": 103632.38399999257,
      "d": 416.65066666658095,
      "v": 115
    },
    {
      "midi": 68,
      "hit": false,
      "t": 103641.8533333259,
      "d": 75.75466666666034,
      "v": 70
    },
    {
      "midi": 56,
      "hit": false,
      "t": 103641.8533333259,
      "d": 416.65066666658095,
      "v": 115
    },
    {
      "midi": 59,
      "hit": false,
      "t": 103641.8533333259,
      "d": 416.65066666658095,
      "v": 115
    },
    {
      "midi": 64,
      "hit": false,
      "t": 103651.32266665922,
      "d": 94.69333333331451,
      "v": 115
    },
    {
      "midi": 28,
      "hit": false,
      "t": 103746.01599999254,
      "d": 94.69333333331451,
      "v": 127
    },
    {
      "midi": 127,
      "hit": false,
      "t": 103746.01599999254,
      "d": 94.69333333331451,
      "v": 60
    },
    {
      "midi": 108,
      "hit": false,
      "t": 103746.01599999254,
      "d": 94.69333333331451,
      "v": 80
    },
    {
      "midi": 105,
      "hit": false,
      "t": 103746.01599999254,
      "d": 94.69333333331451,
      "v": 100
    },
    {
      "midi": 64,
      "hit": false,
      "t": 103746.01599999254,
      "d": 94.69333333331451,
      "v": 70
    },
    {
      "midi": 42,
      "hit": false,
      "t": 103755.48533332587,
      "d": 94.69333333331451,
      "v": 78
    },
    {
      "midi": 68,
      "hit": false,
      "t": 103755.48533332587,
      "d": 94.69333333331451,
      "v": 70
    },
    {
      "midi": 71,
      "hit": false,
      "t": 103764.95466665919,
      "d": 66.28533333333326,
      "v": 70
    },
    {
      "midi": 71,
      "hit": false,
      "t": 103859.6479999925,
      "d": 9.469333333327086,
      "v": 60
    },
    {
      "midi": 68,
      "hit": false,
      "t": 103859.6479999925,
      "d": 9.469333333327086,
      "v": 60
    },
    {
      "midi": 64,
      "hit": false,
      "t": 103859.6479999925,
      "d": 9.469333333327086,
      "v": 60
    },
    {
      "midi": 76,
      "hit": false,
      "t": 103859.6479999925,
      "d": 85.22399999998743,
      "v": 80
    },
    {
      "midi": 28,
      "hit": false,
      "t": 103859.6479999925,
      "d": 94.69333333331451,
      "v": 127
    },
    {
      "midi": 127,
      "hit": false,
      "t": 103859.6479999925,
      "d": 94.69333333331451,
      "v": 60
    },
    {
      "midi": 108,
      "hit": false,
      "t": 103859.6479999925,
      "d": 94.69333333331451,
      "v": 80
    },
    {
      "midi": 105,
      "hit": false,
      "t": 103859.6479999925,
      "d": 94.69333333331451,
      "v": 100
    },
    {
      "midi": 46,
      "hit": false,
      "t": 103878.58666665916,
      "d": 94.69333333332906,
      "v": 92
    },
    {
      "midi": 80,
      "hit": false,
      "t": 103973.27999999249,
      "d": 85.22399999998743,
      "v": 80
    },
    {
      "midi": 64,
      "hit": false,
      "t": 103973.27999999249,
      "d": 94.69333333331451,
      "v": 70
    },
    {
      "midi": 28,
      "hit": false,
      "t": 103973.27999999249,
      "d": 94.69333333331451,
      "v": 127
    },
    {
      "midi": 127,
      "hit": false,
      "t": 103973.27999999249,
      "d": 94.69333333331451,
      "v": 60
    },
    {
      "midi": 108,
      "hit": false,
      "t": 103973.27999999249,
      "d": 94.69333333331451,
      "v": 80
    },
    {
      "midi": 105,
      "hit": false,
      "t": 103973.27999999249,
      "d": 94.69333333331451,
      "v": 100
    },
    {
      "midi": 77,
      "hit": false,
      "t": 103973.27999999249,
      "d": 340.89599999990605,
      "v": 127
    },
    {
      "midi": 74,
      "hit": false,
      "t": 103973.27999999249,
      "d": 340.89599999990605,
      "v": 127
    },
    {
      "midi": 68,
      "hit": false,
      "t": 103982.74933332582,
      "d": 94.69333333331451,
      "v": 70
    },
    {
      "midi": 71,
      "hit": false,
      "t": 103992.21866665914,
      "d": 94.69333333331451,
      "v": 70
    },
    {
      "midi": 83,
      "hit": false,
      "t": 104086.91199999246,
      "d": 85.22399999998743,
      "v": 80
    },
    {
      "midi": 28,
      "hit": false,
      "t": 104086.91199999246,
      "d": 94.69333333331451,
      "v": 127
    },
    {
      "midi": 15,
      "hit": false,
      "t": 104086.91199999246,
      "d": 94.69333333331451,
      "v": 100
    },
    {
      "midi": 13,
      "hit": false,
      "t": 104086.91199999246,
      "d": 94.69333333331451,
      "v": 100
    },
    {
      "midi": 10,
      "hit": false,
      "t": 104086.91199999246,
      "d": 94.69333333331451,
      "v": 127
    },
    {
      "midi": 127,
      "hit": false,
      "t": 104086.91199999246,
      "d": 94.69333333331451,
      "v": 60
    },
    {
      "midi": 108,
      "hit": false,
      "t": 104086.91199999246,
      "d": 94.69333333331451,
      "v": 80
    },
    {
      "midi": 105,
      "hit": false,
      "t": 104086.91199999246,
      "d": 94.69333333331451,
      "v": 100
    },
    {
      "midi": 42,
      "hit": false,
      "t": 104086.91199999246,
      "d": 94.69333333331451,
      "v": 92
    },
    {
      "midi": 71,
      "hit": false,
      "t": 104086.91199999246,
      "d": 94.69333333331451,
      "v": 70
    },
    {
      "midi": 63,
      "hit": false,
      "t": 104086.91199999246,
      "d": 94.69333333331451,
      "v": 70
    },
    {
      "midi": 59,
      "hit": false,
      "t": 104086.91199999246,
      "d": 198.8559999999561,
      "v": 115
    },
    {
      "midi": 57,
      "hit": false,
      "t": 104086.91199999246,
      "d": 208.3253333332832,
      "v": 110
    },
    {
      "midi": 68,
      "hit": false,
      "t": 104096.38133332579,
      "d": 94.69333333331451,
      "v": 70
    },
    {
      "midi": 47,
      "hit": false,
      "t": 104096.38133332579,
      "d": 198.8559999999561,
      "v": 115
    },
    {
      "midi": 56,
      "hit": false,
      "t": 104096.38133332579,
      "d": 208.3253333332832,
      "v": 115
    },
    {
      "midi": 64,
      "hit": false,
      "t": 104105.85066665911,
      "d": 94.69333333331451,
      "v": 70
    },
    {
      "midi": 40,
      "hit": false,
      "t": 104105.85066665911,
      "d": 198.8559999999561,
      "v": 115
    },
    {
      "midi": 64,
      "hit": false,
      "t": 104200.54399999243,
      "d": 9.469333333327086,
      "v": 60
    },
    {
      "midi": 68,
      "hit": false,
      "t": 104200.54399999243,
      "d": 9.469333333327086,
      "v": 60
    },
    {
      "midi": 71,
      "hit": false,
      "t": 104200.54399999243,
      "d": 9.469333333327086,
      "v": 60
    },
    {
      "midi": 88,
      "hit": false,
      "t": 104200.54399999243,
      "d": 85.22399999998743,
      "v": 80
    },
    {
      "midi": 42,
      "hit": false,
      "t": 104210.01333332575,
      "d": 94.69333333331451,
      "v": 78
    },
    {
      "midi": 40,
      "hit": false,
      "t": 104304.70666665907,
      "d": 9.469333333327086,
      "v": 100
    },
    {
      "midi": 40,
      "hit": false,
      "t": 104314.1759999924,
      "d": 85.22399999998743,
      "v": 115
    },
    {
      "midi": 47,
      "hit": false,
      "t": 104314.1759999924,
      "d": 85.22399999998743,
      "v": 115
    },
    {
      "midi": 83,
      "hit": false,
      "t": 104314.1759999924,
      "d": 85.22399999998743,
      "v": 80
    },
    {
      "midi": 127,
      "hit": false,
      "t": 104314.1759999924,
      "d": 94.69333333331451,
      "v": 60
    },
    {
      "midi": 108,
      "hit": false,
      "t": 104314.1759999924,
      "d": 94.69333333331451,
      "v": 80
    },
    {
      "midi": 105,
      "hit": false,
      "t": 104314.1759999924,
      "d": 94.69333333331451,
      "v": 100
    },
    {
      "midi": 71,
      "hit": false,
      "t": 104314.1759999924,
      "d": 94.69333333331451,
      "v": 70
    },
    {
      "midi": 28,
      "hit": false,
      "t": 104314.1759999924,
      "d": 208.3253333332832,
      "v": 127
    },
    {
      "midi": 76,
      "hit": false,
      "t": 104314.1759999924,
      "d": 227.26399999993737,
      "v": 127
    },
    {
      "midi": 72,
      "hit": false,
      "t": 104314.1759999924,
      "d": 227.26399999993737,
      "v": 127
    },
    {
      "midi": 56,
      "hit": false,
      "t": 104323.64533332572,
      "d": 85.22399999998743,
      "v": 115
    },
    {
      "midi": 59,
      "hit": false,
      "t": 104323.64533332572,
      "d": 85.22399999998743,
      "v": 115
    },
    {
      "midi": 68,
      "hit": false,
      "t": 104323.64533332572,
      "d": 94.69333333331451,
      "v": 70
    },
    {
      "midi": 64,
      "hit": false,
      "t": 104333.11466665905,
      "d": 85.22399999998743,
      "v": 115
    },
    {
      "midi": 46,
      "hit": false,
      "t": 104333.11466665905,
      "d": 94.69333333331451,
      "v": 92
    },
    {
      "midi": 64,
      "hit": false,
      "t": 104418.33866665904,
      "d": 9.469333333327086,
      "v": 90
    },
    {
      "midi": 64,
      "hit": false,
      "t": 104427.80799999236,
      "d": 85.22399999998743,
      "v": 115
    },
    {
      "midi": 59,
      "hit": false,
      "t": 104427.80799999236,
      "d": 85.22399999998743,
      "v": 115
    },
    {
      "midi": 80,
      "hit": false,
      "t": 104427.80799999236,
      "d": 85.22399999998743,
      "v": 80
    },
    {
      "midi": 127,
      "hit": false,
      "t": 104427.80799999236,
      "d": 94.69333333331451,
      "v": 60
    },
    {
      "midi": 108,
      "hit": false,
      "t": 104427.80799999236,
      "d": 94.69333333331451,
      "v": 80
    },
    {
      "midi": 105,
      "hit": false,
      "t": 104427.80799999236,
      "d": 94.69333333331451,
      "v": 100
    },
    {
      "midi": 56,
      "hit": false,
      "t": 104437.27733332569,
      "d": 85.22399999998743,
      "v": 115
    },
    {
      "midi": 47,
      "hit": false,
      "t": 104437.27733332569,
      "d": 85.22399999998743,
      "v": 115
    },
    {
      "midi": 68,
      "hit": false,
      "t": 104437.27733332569,
      "d": 94.69333333331451,
      "v": 70
    },
    {
      "midi": 40,
      "hit": false,
      "t": 104446.74666665902,
      "d": 85.22399999998743,
      "v": 115
    },
    {
      "midi": 71,
      "hit": false,
      "t": 104446.74666665902,
      "d": 94.69333333331451,
      "v": 70
    },
    {
      "midi": 40,
      "hit": false,
      "t": 104531.970666659,
      "d": 9.469333333327086,
      "v": 100
    },
    {
      "midi": 40,
      "hit": false,
      "t": 104541.43999999233,
      "d": 85.22399999998743,
      "v": 115
    },
    {
      "midi": 47,
      "hit": false,
      "t": 104541.43999999233,
      "d": 85.22399999998743,
      "v": 115
    },
    {
      "midi": 76,
      "hit": false,
      "t": 104541.43999999233,
      "d": 85.22399999998743,
      "v": 80
    },
    {
      "midi": 28,
      "hit": false,
      "t": 104541.43999999233,
      "d": 94.69333333331451,
      "v": 127
    },
    {
      "midi": 15,
      "hit": false,
      "t": 104541.43999999233,
      "d": 94.69333333331451,
      "v": 100
    },
    {
      "midi": 13,
      "hit": false,
      "t": 104541.43999999233,
      "d": 94.69333333331451,
      "v": 100
    },
    {
      "midi": 10,
      "hit": false,
      "t": 104541.43999999233,
      "d": 94.69333333331451,
      "v": 127
    },
    {
      "midi": 127,
      "hit": false,
      "t": 104541.43999999233,
      "d": 94.69333333331451,
      "v": 60
    },
    {
      "midi": 108,
      "hit": false,
      "t": 104541.43999999233,
      "d": 94.69333333331451,
      "v": 80
    },
    {
      "midi": 105,
      "hit": false,
      "t": 104541.43999999233,
      "d": 94.69333333331451,
      "v": 100
    },
    {
      "midi": 42,
      "hit": false,
      "t": 104541.43999999233,
      "d": 94.69333333331451,
      "v": 92
    },
    {
      "midi": 74,
      "hit": false,
      "t": 104541.43999999233,
      "d": 340.89599999990605,
      "v": 127
    },
    {
      "midi": 56,
      "hit": false,
      "t": 104550.90933332566,
      "d": 85.22399999998743,
      "v": 115
    },
    {
      "midi": 59,
      "hit": false,
      "t": 104550.90933332566,
      "d": 85.22399999998743,
      "v": 115
    },
    {
      "midi": 64,
      "hit": false,
      "t": 104560.37866665899,
      "d": 85.22399999998743,
      "v": 115
    },
    {
      "midi": 64,
      "hit": false,
      "t": 104645.60266665898,
      "d": 9.469333333327086,
      "v": 90
    },
    {
      "midi": 64,
      "hit": false,
      "t": 104655.0719999923,
      "d": 85.22399999998743,
      "v": 115
    },
    {
      "midi": 59,
      "hit": false,
      "t": 104655.0719999923,
      "d": 85.22399999998743,
      "v": 115
    },
    {
      "midi": 71,
      "hit": false,
      "t": 104655.0719999923,
      "d": 85.22399999998743,
      "v": 80
    },
    {
      "midi": 127,
      "hit": false,
      "t": 104655.0719999923,
      "d": 94.69333333331451,
      "v": 60
    },
    {
      "midi": 108,
      "hit": false,
      "t": 104655.0719999923,
      "d": 94.69333333331451,
      "v": 80
    },
    {
      "midi": 105,
      "hit": false,
      "t": 104655.0719999923,
      "d": 94.69333333331451,
      "v": 100
    },
    {
      "midi": 56,
      "hit": false,
      "t": 104664.54133332563,
      "d": 85.22399999998743,
      "v": 115
    },
    {
      "midi": 47,
      "hit": false,
      "t": 104664.54133332563,
      "d": 85.22399999998743,
      "v": 115
    },
    {
      "midi": 42,
      "hit": false,
      "t": 104664.54133332563,
      "d": 94.69333333331451,
      "v": 78
    },
    {
      "midi": 40,
      "hit": false,
      "t": 104674.01066665896,
      "d": 85.22399999998743,
      "v": 115
    },
    {
      "midi": 40,
      "hit": false,
      "t": 104759.23466665894,
      "d": 9.469333333327086,
      "v": 100
    },
    {
      "midi": 40,
      "hit": false,
      "t": 104768.70399999227,
      "d": 85.22399999998743,
      "v": 115
    },
    {
      "midi": 47,
      "hit": false,
      "t": 104768.70399999227,
      "d": 85.22399999998743,
      "v": 115
    },
    {
      "midi": 68,
      "hit": false,
      "t": 104768.70399999227,
      "d": 85.22399999998743,
      "v": 80
    },
    {
      "midi": 127,
      "hit": false,
      "t": 104768.70399999227,
      "d": 94.69333333331451,
      "v": 60
    },
    {
      "midi": 108,
      "hit": false,
      "t": 104768.70399999227,
      "d": 94.69333333331451,
      "v": 80
    },
    {
      "midi": 105,
      "hit": false,
      "t": 104768.70399999227,
      "d": 94.69333333331451,
      "v": 100
    },
    {
      "midi": 28,
      "hit": false,
      "t": 104768.70399999227,
      "d": 208.3253333332832,
      "v": 127
    },
    {
      "midi": 56,
      "hit": false,
      "t": 104778.1733333256,
      "d": 85.22399999998743,
      "v": 115
    },
    {
      "midi": 59,
      "hit": false,
      "t": 104778.1733333256,
      "d": 85.22399999998743,
      "v": 115
    },
    {
      "midi": 64,
      "hit": false,
      "t": 104787.64266665893,
      "d": 85.22399999998743,
      "v": 115
    },
    {
      "midi": 46,
      "hit": false,
      "t": 104787.64266665893,
      "d": 94.69333333331451,
      "v": 92
    },
    {
      "midi": 64,
      "hit": false,
      "t": 104872.86666665891,
      "d": 9.469333333327086,
      "v": 90
    },
    {
      "midi": 64,
      "hit": false,
      "t": 104882.33599999224,
      "d": 85.22399999998743,
      "v": 115
    },
    {
      "midi": 59,
      "hit": false,
      "t": 104882.33599999224,
      "d": 85.22399999998743,
      "v": 115
    },
    {
      "midi": 63,
      "hit": false,
      "t": 104882.33599999224,
      "d": 94.69333333331451,
      "v": 80
    },
    {
      "midi": 72,
      "hit": false,
      "t": 104882.33599999224,
      "d": 340.89599999990605,
      "v": 127
    },
    {
      "midi": 69,
      "hit": false,
      "t": 104882.33599999224,
      "d": 340.89599999990605,
      "v": 127
    },
    {
      "midi": 56,
      "hit": false,
      "t": 104891.80533332557,
      "d": 85.22399999998743,
      "v": 115
    },
    {
      "midi": 47,
      "hit": false,
      "t": 104891.80533332557,
      "d": 85.22399999998743,
      "v": 115
    },
    {
      "midi": 40,
      "hit": false,
      "t": 104901.2746666589,
      "d": 85.22399999998743,
      "v": 115
    },
    {
      "midi": 40,
      "hit": false,
      "t": 104986.49866665888,
      "d": 9.469333333327086,
      "v": 100
    },
    {
      "midi": 40,
      "hit": false,
      "t": 104995.96799999221,
      "d": 85.22399999998743,
      "v": 115
    },
    {
      "midi": 47,
      "hit": false,
      "t": 104995.96799999221,
      "d": 85.22399999998743,
      "v": 115
    },
    {
      "midi": 28,
      "hit": false,
      "t": 104995.96799999221,
      "d": 94.69333333331451,
      "v": 127
    },
    {
      "midi": 15,
      "hit": false,
      "t": 104995.96799999221,
      "d": 94.69333333331451,
      "v": 100
    },
    {
      "midi": 13,
      "hit": false,
      "t": 104995.96799999221,
      "d": 94.69333333331451,
      "v": 100
    },
    {
      "midi": 10,
      "hit": false,
      "t": 104995.96799999221,
      "d": 94.69333333331451,
      "v": 127
    },
    {
      "midi": 127,
      "hit": false,
      "t": 104995.96799999221,
      "d": 94.69333333331451,
      "v": 60
    },
    {
      "midi": 108,
      "hit": false,
      "t": 104995.96799999221,
      "d": 94.69333333331451,
      "v": 80
    },
    {
      "midi": 105,
      "hit": false,
      "t": 104995.96799999221,
      "d": 94.69333333331451,
      "v": 100
    },
    {
      "midi": 42,
      "hit": false,
      "t": 104995.96799999221,
      "d": 94.69333333331451,
      "v": 92
    },
    {
      "midi": 59,
      "hit": false,
      "t": 105005.43733332554,
      "d": 75.75466666666034,
      "v": 115
    },
    {
      "midi": 56,
      "hit": false,
      "t": 105005.43733332554,
      "d": 85.22399999998743,
      "v": 115
    },
    {
      "midi": 64,
      "hit": false,
      "t": 105014.90666665886,
      "d": 75.75466666666034,
      "v": 115
    },
    {
      "midi": 64,
      "hit": false,
      "t": 105100.13066665885,
      "d": 9.469333333327086,
      "v": 100
    },
    {
      "midi": 64,
      "hit": false,
      "t": 105109.59999999218,
      "d": 85.22399999998743,
      "v": 115
    },
    {
      "midi": 28,
      "hit": false,
      "t": 105109.59999999218,
      "d": 94.69333333331451,
      "v": 127
    },
    {
      "midi": 127,
      "hit": false,
      "t": 105109.59999999218,
      "d": 94.69333333331451,
      "v": 60
    },
    {
      "midi": 108,
      "hit": false,
      "t": 105109.59999999218,
      "d": 94.69333333331451,
      "v": 80
    },
    {
      "midi": 105,
      "hit": false,
      "t": 105109.59999999218,
      "d": 94.69333333331451,
      "v": 100
    },
    {
      "midi": 59,
      "hit": false,
      "t": 105109.59999999218,
      "d": 293.5493333332997,
      "v": 115
    },
    {
      "midi": 42,
      "hit": false,
      "t": 105119.0693333255,
      "d": 94.69333333331451,
      "v": 78
    },
    {
      "midi": 56,
      "hit": false,
      "t": 105119.0693333255,
      "d": 293.5493333332997,
      "v": 115
    },
    {
      "midi": 47,
      "hit": false,
      "t": 105119.0693333255,
      "d": 293.5493333332997,
      "v": 115
    },
    {
      "midi": 40,
      "hit": false,
      "t": 105128.53866665883,
      "d": 293.5493333332997,
      "v": 115
    },
    {
      "midi": 68,
      "hit": false,
      "t": 105223.23199999215,
      "d": 85.22400000000198,
      "v": 127
    },
    {
      "midi": 28,
      "hit": false,
      "t": 105223.23199999215,
      "d": 94.69333333332906,
      "v": 127
    },
    {
      "midi": 15,
      "hit": false,
      "t": 105223.23199999215,
      "d": 94.69333333332906,
      "v": 100
    },
    {
      "midi": 13,
      "hit": false,
      "t": 105223.23199999215,
      "d": 94.69333333332906,
      "v": 100
    },
    {
      "midi": 10,
      "hit": false,
      "t": 105223.23199999215,
      "d": 94.69333333332906,
      "v": 127
    },
    {
      "midi": 127,
      "hit": false,
      "t": 105223.23199999215,
      "d": 94.69333333332906,
      "v": 60
    },
    {
      "midi": 108,
      "hit": false,
      "t": 105223.23199999215,
      "d": 94.69333333332906,
      "v": 80
    },
    {
      "midi": 105,
      "hit": false,
      "t": 105223.23199999215,
      "d": 94.69333333332906,
      "v": 100
    },
    {
      "midi": 46,
      "hit": false,
      "t": 105242.17066665881,
      "d": 94.69333333332906,
      "v": 92
    },
    {
      "midi": 71,
      "hit": false,
      "t": 105336.86399999214,
      "d": 85.22399999998743,
      "v": 80
    },
    {
      "midi": 69,
      "hit": false,
      "t": 105450.49599999211,
      "d": 85.22399999998743,
      "v": 95
    },
    {
      "midi": 33,
      "hit": false,
      "t": 105450.49599999211,
      "d": 94.69333333331451,
      "v": 127
    },
    {
      "midi": 15,
      "hit": false,
      "t": 105450.49599999211,
      "d": 94.69333333331451,
      "v": 100
    },
    {
      "midi": 13,
      "hit": false,
      "t": 105450.49599999211,
      "d": 94.69333333331451,
      "v": 100
    },
    {
      "midi": 10,
      "hit": false,
      "t": 105450.49599999211,
      "d": 94.69333333331451,
      "v": 127
    },
    {
      "midi": 42,
      "hit": false,
      "t": 105450.49599999211,
      "d": 94.69333333331451,
      "v": 92
    },
    {
      "midi": 57,
      "hit": false,
      "t": 105450.49599999211,
      "d": 426.1199999998644,
      "v": 80
    },
    {
      "midi": 52,
      "hit": false,
      "t": 105459.96533332544,
      "d": 9.469333333327086,
      "v": 95
    },
    {
      "midi": 64,
      "hit": false,
      "t": 105459.96533332544,
      "d": 94.69333333331451,
      "v": 70
    },
    {
      "midi": 60,
      "hit": false,
      "t": 105469.43466665877,
      "d": 94.69333333331451,
      "v": 70
    },
    {
      "midi": 45,
      "hit": false,
      "t": 105469.43466665877,
      "d": 416.6506666665373,
      "v": 95
    },
    {
      "midi": 52,
      "hit": false,
      "t": 105554.65866665875,
      "d": 28.407999999981257,
      "v": 85
    },
    {
      "midi": 72,
      "hit": false,
      "t": 105564.12799999208,
      "d": 85.22399999998743,
      "v": 80
    },
    {
      "midi": 33,
      "hit": false,
      "t": 105564.12799999208,
      "d": 94.69333333331451,
      "v": 127
    },
    {
      "midi": 60,
      "hit": false,
      "t": 105564.12799999208,
      "d": 94.69333333331451,
      "v": 70
    },
    {
      "midi": 42,
      "hit": false,
      "t": 105573.59733332541,
      "d": 94.69333333331451,
      "v": 78
    },
    {
      "midi": 64,
      "hit": false,
      "t": 105573.59733332541,
      "d": 94.69333333331451,
      "v": 70
    },
    {
      "midi": 69,
      "hit": false,
      "t": 105583.06666665873,
      "d": 94.69333333331451,
      "v": 70
    },
    {
      "midi": 69,
      "hit": false,
      "t": 105677.75999999205,
      "d": 47.34666666664998,
      "v": 70
    },
    {
      "midi": 76,
      "hit": false,
      "t": 105677.75999999205,
      "d": 85.22399999995832,
      "v": 80
    },
    {
      "midi": 33,
      "hit": false,
      "t": 105677.75999999205,
      "d": 94.69333333328541,
      "v": 127
    },
    {
      "midi": 64,
      "hit": false,
      "t": 105687.22933332538,
      "d": 47.34666666664998,
      "v": 70
    },
    {
      "midi": 60,
      "hit": false,
      "t": 105696.6986666587,
      "d": 47.34666666664998,
      "v": 70
    },
    {
      "midi": 46,
      "hit": false,
      "t": 105696.6986666587,
      "d": 94.69333333328541,
      "v": 92
    },
    {
      "midi": 52,
      "hit": false,
      "t": 105781.92266665866,
      "d": 28.407999999981257,
      "v": 85
    },
    {
      "midi": 60,
      "hit": false,
      "t": 105791.39199999199,
      "d": 75.75466666666034,
      "v": 70
    },
    {
      "midi": 81,
      "hit": false,
      "t": 105791.39199999199,
      "d": 85.22399999998743,
      "v": 80
    },
    {
      "midi": 33,
      "hit": false,
      "t": 105791.39199999199,
      "d": 94.69333333331451,
      "v": 127
    },
    {
      "midi": 64,
      "hit": false,
      "t": 105800.86133332532,
      "d": 66.28533333333326,
      "v": 70
    },
    {
      "midi": 69,
      "hit": false,
      "t": 105810.33066665864,
      "d": 66.28533333333326,
      "v": 70
    },
    {
      "midi": 52,
      "hit": false,
      "t": 105905.02399999196,
      "d": 18.93866666665417,
      "v": 115
    },
    {
      "midi": 84,
      "hit": false,
      "t": 105905.02399999196,
      "d": 85.22399999998743,
      "v": 80
    },
    {
      "midi": 33,
      "hit": false,
      "t": 105905.02399999196,
      "d": 94.69333333331451,
      "v": 127
    },
    {
      "midi": 15,
      "hit": false,
      "t": 105905.02399999196,
      "d": 94.69333333331451,
      "v": 100
    },
    {
      "midi": 13,
      "hit": false,
      "t": 105905.02399999196,
      "d": 94.69333333331451,
      "v": 100
    },
    {
      "midi": 10,
      "hit": false,
      "t": 105905.02399999196,
      "d": 94.69333333331451,
      "v": 127
    },
    {
      "midi": 127,
      "hit": false,
      "t": 105905.02399999196,
      "d": 94.69333333331451,
      "v": 60
    },
    {
      "midi": 108,
      "hit": false,
      "t": 105905.02399999196,
      "d": 94.69333333331451,
      "v": 80
    },
    {
      "midi": 105,
      "hit": false,
      "t": 105905.02399999196,
      "d": 94.69333333331451,
      "v": 100
    },
    {
      "midi": 42,
      "hit": false,
      "t": 105905.02399999196,
      "d": 94.69333333331451,
      "v": 92
    },
    {
      "midi": 118,
      "hit": false,
      "t": 105905.02399999196,
      "d": 94.69333333331451,
      "v": 50
    },
    {
      "midi": 63,
      "hit": false,
      "t": 105905.02399999196,
      "d": 94.69333333331451,
      "v": 70
    },
    {
      "midi": 57,
      "hit": false,
      "t": 105905.02399999196,
      "d": 208.3253333332832,
      "v": 100
    },
    {
      "midi": 64,
      "hit": false,
      "t": 105914.49333332528,
      "d": 94.69333333331451,
      "v": 115
    },
    {
      "midi": 45,
      "hit": false,
      "t": 105914.49333332528,
      "d": 198.8559999999561,
      "v": 100
    },
    {
      "midi": 69,
      "hit": false,
      "t": 105923.96266665861,
      "d": 75.75466666666034,
      "v": 115
    },
    {
      "midi": 60,
      "hit": false,
      "t": 105923.96266665861,
      "d": 94.69333333331451,
      "v": 70
    },
    {
      "midi": 88,
      "hit": false,
      "t": 106018.65599999193,
      "d": 85.22399999998743,
      "v": 80
    },
    {
      "midi": 42,
      "hit": false,
      "t": 106028.12533332525,
      "d": 94.69333333331451,
      "v": 78
    },
    {
      "midi": 57,
      "hit": false,
      "t": 106132.2879999919,
      "d": 75.75466666664579,
      "v": 80
    },
    {
      "midi": 93,
      "hit": false,
      "t": 106132.2879999919,
      "d": 85.22399999997288,
      "v": 80
    },
    {
      "midi": 33,
      "hit": false,
      "t": 106132.2879999919,
      "d": 94.69333333329996,
      "v": 127
    },
    {
      "midi": 69,
      "hit": false,
      "t": 106132.2879999919,
      "d": 94.69333333329996,
      "v": 95
    },
    {
      "midi": 52,
      "hit": false,
      "t": 106141.75733332522,
      "d": 9.469333333327086,
      "v": 95
    },
    {
      "midi": 64,
      "hit": false,
      "t": 106141.75733332522,
      "d": 75.75466666664579,
      "v": 70
    },
    {
      "midi": 45,
      "hit": false,
      "t": 106151.22666665855,
      "d": 47.34666666666453,
      "v": 95
    },
    {
      "midi": 60,
      "hit": false,
      "t": 106151.22666665855,
      "d": 56.81599999999162,
      "v": 70
    },
    {
      "midi": 46,
      "hit": false,
      "t": 106151.22666665855,
      "d": 94.69333333329996,
      "v": 92
    },
    {
      "midi": 60,
      "hit": false,
      "t": 106236.45066665852,
      "d": 9.469333333327086,
      "v": 100
    },
    {
      "midi": 52,
      "hit": false,
      "t": 106245.91999999185,
      "d": 18.93866666665417,
      "v": 115
    },
    {
      "midi": 57,
      "hit": false,
      "t": 106245.91999999185,
      "d": 47.34666666664998,
      "v": 100
    },
    {
      "midi": 88,
      "hit": false,
      "t": 106245.91999999185,
      "d": 85.22399999997288,
      "v": 80
    },
    {
      "midi": 33,
      "hit": false,
      "t": 106245.91999999185,
      "d": 94.69333333329996,
      "v": 127
    },
    {
      "midi": 118,
      "hit": false,
      "t": 106245.91999999185,
      "d": 94.69333333329996,
      "v": 50
    },
    {
      "midi": 64,
      "hit": false,
      "t": 106255.38933332518,
      "d": 28.40799999999581,
      "v": 115
    },
    {
      "midi": 60,
      "hit": false,
      "t": 106255.38933332518,
      "d": 28.40799999999581,
      "v": 115
    },
    {
      "midi": 45,
      "hit": false,
      "t": 106255.38933332518,
      "d": 47.34666666664998,
      "v": 100
    },
    {
      "midi": 69,
      "hit": false,
      "t": 106264.8586666585,
      "d": 94.69333333329996,
      "v": 115
    },
    {
      "midi": 45,
      "hit": false,
      "t": 106350.08266665848,
      "d": 18.93866666665417,
      "v": 105
    },
    {
      "midi": 52,
      "hit": false,
      "t": 106350.08266665848,
      "d": 18.93866666665417,
      "v": 105
    },
    {
      "midi": 57,
      "hit": false,
      "t": 106359.5519999918,
      "d": 18.93866666665417,
      "v": 105
    },
    {
      "midi": 60,
      "hit": false,
      "t": 106359.5519999918,
      "d": 18.93866666665417,
      "v": 105
    },
    {
      "midi": 84,
      "hit": false,
      "t": 106359.5519999918,
      "d": 85.22399999997288,
      "v": 80
    },
    {
      "midi": 33,
      "hit": false,
      "t": 106359.5519999918,
      "d": 94.69333333329996,
      "v": 127
    },
    {
      "midi": 15,
      "hit": false,
      "t": 106359.5519999918,
      "d": 94.69333333329996,
      "v": 100
    },
    {
      "midi": 13,
      "hit": false,
      "t": 106359.5519999918,
      "d": 94.69333333329996,
      "v": 100
    },
    {
      "midi": 10,
      "hit": false,
      "t": 106359.5519999918,
      "d": 94.69333333329996,
      "v": 127
    },
    {
      "midi": 42,
      "hit": false,
      "t": 106359.5519999918,
      "d": 94.69333333329996,
      "v": 92
    },
    {
      "midi": 64,
      "hit": false,
      "t": 106369.02133332513,
      "d": 18.93866666665417,
      "v": 105
    },
    {
      "midi": 60,
      "hit": false,
      "t": 106463.71466665843,
      "d": 18.93866666665417,
      "v": 90
    },
    {
      "midi": 64,
      "hit": false,
      "t": 106473.18399999176,
      "d": 9.469333333327086,
      "v": 95
    },
    {
      "midi": 57,
      "hit": false,
      "t": 106473.18399999176,
      "d": 18.93866666665417,
      "v": 90
    },
    {
      "midi": 81,
      "hit": false,
      "t": 106473.18399999176,
      "d": 85.22399999997288,
      "v": 80
    },
    {
      "midi": 69,
      "hit": false,
      "t": 106473.18399999176,
      "d": 94.69333333329996,
      "v": 95
    },
    {
      "midi": 118,
      "hit": false,
      "t": 106473.18399999176,
      "d": 94.69333333329996,
      "v": 50
    },
    {
      "midi": 52,
      "hit": false,
      "t": 106482.65333332508,
      "d": 9.469333333327086,
      "v": 95
    },
    {
      "midi": 42,
      "hit": false,
      "t": 106482.65333332508,
      "d": 94.69333333329996,
      "v": 78
    },
    {
      "midi": 60,
      "hit": false,
      "t": 106482.65333332508,
      "d": 94.69333333329996,
      "v": 95
    },
    {
      "midi": 45,
      "hit": false,
      "t": 106492.12266665841,
      "d": 9.469333333327086,
      "v": 95
    },
    {
      "midi": 45,
      "hit": false,
      "t": 106577.34666665838,
      "d": 9.469333333327086,
      "v": 90
    },
    {
      "midi": 76,
      "hit": false,
      "t": 106586.81599999171,
      "d": 85.22399999997288,
      "v": 80
    },
    {
      "midi": 118,
      "hit": false,
      "t": 106586.81599999171,
      "d": 94.69333333329996,
      "v": 30
    },
    {
      "midi": 45,
      "hit": false,
      "t": 106586.81599999171,
      "d": 198.85599999997066,
      "v": 95
    },
    {
      "midi": 52,
      "hit": false,
      "t": 106586.81599999171,
      "d": 198.85599999997066,
      "v": 95
    },
    {
      "midi": 33,
      "hit": false,
      "t": 106586.81599999171,
      "d": 208.32533333329775,
      "v": 127
    },
    {
      "midi": 57,
      "hit": false,
      "t": 106586.81599999171,
      "d": 208.32533333329775,
      "v": 90
    },
    {
      "midi": 64,
      "hit": false,
      "t": 106596.28533332504,
      "d": 198.85599999997066,
      "v": 95
    },
    {
      "midi": 60,
      "hit": false,
      "t": 106596.28533332504,
      "d": 198.85599999997066,
      "v": 95
    },
    {
      "midi": 46,
      "hit": false,
      "t": 106605.75466665837,
      "d": 94.69333333331451,
      "v": 92
    },
    {
      "midi": 69,
      "hit": false,
      "t": 106605.75466665837,
      "d": 208.32533333329775,
      "v": 95
    },
    {
      "midi": 72,
      "hit": false,
      "t": 106700.44799999168,
      "d": 85.22400000000198,
      "v": 80
    },
    {
      "midi": 63,
      "hit": false,
      "t": 106700.44799999168,
      "d": 94.69333333332906,
      "v": 80
    },
    {
      "midi": 69,
      "hit": false,
      "t": 106814.07999999166,
      "d": 85.22399999998743,
      "v": 115
    },
    {
      "midi": 33,
      "hit": false,
      "t": 106814.07999999166,
      "d": 94.69333333331451,
      "v": 127
    },
    {
      "midi": 15,
      "hit": false,
      "t": 106814.07999999166,
      "d": 94.69333333331451,
      "v": 100
    },
    {
      "midi": 13,
      "hit": false,
      "t": 106814.07999999166,
      "d": 94.69333333331451,
      "v": 100
    },
    {
      "midi": 10,
      "hit": false,
      "t": 106814.07999999166,
      "d": 94.69333333331451,
      "v": 127
    },
    {
      "midi": 127,
      "hit": false,
      "t": 106814.07999999166,
      "d": 94.69333333331451,
      "v": 60
    },
    {
      "midi": 108,
      "hit": false,
      "t": 106814.07999999166,
      "d": 94.69333333331451,
      "v": 80
    },
    {
      "midi": 105,
      "hit": false,
      "t": 106814.07999999166,
      "d": 94.69333333331451,
      "v": 100
    },
    {
      "midi": 42,
      "hit": false,
      "t": 106814.07999999166,
      "d": 94.69333333331451,
      "v": 92
    },
    {
      "midi": 118,
      "hit": false,
      "t": 106814.07999999166,
      "d": 94.69333333331451,
      "v": 50
    },
    {
      "midi": 64,
      "hit": false,
      "t": 106814.07999999166,
      "d": 94.69333333331451,
      "v": 70
    },
    {
      "midi": 62,
      "hit": false,
      "t": 106814.07999999166,
      "d": 208.32533333329775,
      "v": 127
    },
    {
      "midi": 57,
      "hit": false,
      "t": 106814.07999999166,
      "d": 208.32533333329775,
      "v": 100
    },
    {
      "midi": 60,
      "hit": false,
      "t": 106823.54933332499,
      "d": 189.38666666664358,
      "v": 115
    },
    {
      "midi": 52,
      "hit": false,
      "t": 106823.54933332499,
      "d": 198.85599999997066,
      "v": 115
    },
    {
      "midi": 45,
      "hit": false,
      "t": 106833.01866665832,
      "d": 198.85599999997066,
      "v": 115
    },
    {
      "midi": 72,
      "hit": false,
      "t": 106927.71199999165,
      "d": 85.22399999998743,
      "v": 80
    },
    {
      "midi": 33,
      "hit": false,
      "t": 106927.71199999165,
      "d": 94.69333333331451,
      "v": 127
    },
    {
      "midi": 42,
      "hit": false,
      "t": 106937.18133332497,
      "d": 94.69333333331451,
      "v": 78
    },
    {
      "midi": 45,
      "hit": false,
      "t": 107031.87466665829,
      "d": 9.469333333327086,
      "v": 80
    },
    {
      "midi": 52,
      "hit": false,
      "t": 107031.87466665829,
      "d": 94.69333333331451,
      "v": 80
    },
    {
      "midi": 76,
      "hit": false,
      "t": 107041.34399999162,
      "d": 85.22399999998743,
      "v": 80
    },
    {
      "midi": 33,
      "hit": false,
      "t": 107041.34399999162,
      "d": 94.69333333331451,
      "v": 127
    },
    {
      "midi": 57,
      "hit": false,
      "t": 107041.34399999162,
      "d": 94.69333333331451,
      "v": 80
    },
    {
      "midi": 60,
      "hit": false,
      "t": 107041.34399999162,
      "d": 94.69333333331451,
      "v": 80
    },
    {
      "midi": 118,
      "hit": false,
      "t": 107041.34399999162,
      "d": 94.69333333331451,
      "v": 50
    },
    {
      "midi": 64,
      "hit": false,
      "t": 107050.81333332494,
      "d": 94.69333333331451,
      "v": 80
    },
    {
      "midi": 46,
      "hit": false,
      "t": 107060.28266665827,
      "d": 94.69333333331451,
      "v": 92
    },
    {
      "midi": 64,
      "hit": false,
      "t": 107145.50666665826,
      "d": 94.69333333331451,
      "v": 90
    },
    {
      "midi": 60,
      "hit": false,
      "t": 107145.50666665826,
      "d": 94.69333333331451,
      "v": 90
    },
    {
      "midi": 81,
      "hit": false,
      "t": 107154.97599999158,
      "d": 85.22399999998743,
      "v": 80
    },
    {
      "midi": 57,
      "hit": false,
      "t": 107154.97599999158,
      "d": 94.69333333331451,
      "v": 90
    },
    {
      "midi": 52,
      "hit": false,
      "t": 107154.97599999158,
      "d": 94.69333333331451,
      "v": 90
    },
    {
      "midi": 118,
      "hit": false,
      "t": 107154.97599999158,
      "d": 94.69333333331451,
      "v": 30
    },
    {
      "midi": 45,
      "hit": false,
      "t": 107164.44533332491,
      "d": 94.69333333331451,
      "v": 90
    },
    {
      "midi": 53,
      "hit": false,
      "t": 107259.13866665823,
      "d": 28.407999999981257,
      "v": 85
    },
    {
      "midi": 74,
      "hit": false,
      "t": 107268.60799999155,
      "d": 85.22399999998743,
      "v": 115
    },
    {
      "midi": 26,
      "hit": false,
      "t": 107268.60799999155,
      "d": 94.69333333331451,
      "v": 127
    },
    {
      "midi": 15,
      "hit": false,
      "t": 107268.60799999155,
      "d": 94.69333333331451,
      "v": 100
    },
    {
      "midi": 13,
      "hit": false,
      "t": 107268.60799999155,
      "d": 94.69333333331451,
      "v": 100
    },
    {
      "midi": 10,
      "hit": false,
      "t": 107268.60799999155,
      "d": 94.69333333331451,
      "v": 127
    },
    {
      "midi": 42,
      "hit": false,
      "t": 107268.60799999155,
      "d": 94.69333333331451,
      "v": 92
    },
    {
      "midi": 69,
      "hit": false,
      "t": 107268.60799999155,
      "d": 94.69333333331451,
      "v": 70
    },
    {
      "midi": 65,
      "hit": false,
      "t": 107278.07733332488,
      "d": 94.69333333331451,
      "v": 70
    },
    {
      "midi": 57,
      "hit": false,
      "t": 107278.07733332488,
      "d": 416.65066666658095,
      "v": 115
    },
    {
      "midi": 50,
      "hit": false,
      "t": 107278.07733332488,
      "d": 416.65066666658095,
      "v": 115
    },
    {
      "midi": 62,
      "hit": false,
      "t": 107287.5466666582,
      "d": 94.69333333331451,
      "v": 70
    },
    {
      "midi": 45,
      "hit": false,
      "t": 107287.5466666582,
      "d": 416.65066666658095,
      "v": 115
    },
    {
      "midi": 53,
      "hit": false,
      "t": 107372.7706666582,
      "d": 28.407999999981257,
      "v": 85
    },
    {
      "midi": 26,
      "hit": false,
      "t": 107382.23999999152,
      "d": 94.69333333331451,
      "v": 127
    },
    {
      "midi": 62,
      "hit": false,
      "t": 107382.23999999152,
      "d": 94.69333333331451,
      "v": 70
    },
    {
      "midi": 42,
      "hit": false,
      "t": 107391.70933332485,
      "d": 94.69333333331451,
      "v": 78
    },
    {
      "midi": 65,
      "hit": false,
      "t": 107391.70933332485,
      "d": 94.69333333331451,
      "v": 70
    },
    {
      "midi": 69,
      "hit": false,
      "t": 107401.17866665818,
      "d": 66.28533333333326,
      "v": 70
    },
    {
      "midi": 77,
      "hit": false,
      "t": 107495.87199999149,
      "d": 85.22400000000198,
      "v": 80
    },
    {
      "midi": 26,
      "hit": false,
      "t": 107495.87199999149,
      "d": 94.69333333332906,
      "v": 127
    },
    {
      "midi": 46,
      "hit": false,
      "t": 107514.81066665816,
      "d": 94.69333333331451,
      "v": 92
    },
    {
      "midi": 53,
      "hit": false,
      "t": 107600.03466665815,
      "d": 28.407999999981257,
      "v": 85
    },
    {
      "midi": 81,
      "hit": false,
      "t": 107609.50399999147,
      "d": 85.22399999998743,
      "v": 80
    },
    {
      "midi": 26,
      "hit": false,
      "t": 107609.50399999147,
      "d": 94.69333333331451,
      "v": 127
    },
    {
      "midi": 69,
      "hit": false,
      "t": 107609.50399999147,
      "d": 94.69333333331451,
      "v": 70
    },
    {
      "midi": 64,
      "hit": false,
      "t": 107609.50399999147,
      "d": 94.69333333331451,
      "v": 70
    },
    {
      "midi": 65,
      "hit": false,
      "t": 107618.9733333248,
      "d": 66.28533333333326,
      "v": 70
    },
    {
      "midi": 62,
      "hit": false,
      "t": 107628.44266665813,
      "d": 56.81600000000617,
      "v": 70
    },
    {
      "midi": 62,
      "hit": false,
      "t": 107713.66666665811,
      "d": 9.469333333327086,
      "v": 100
    },
    {
      "midi": 53,
      "hit": false,
      "t": 107713.66666665811,
      "d": 28.407999999981257,
      "v": 85
    },
    {
      "midi": 86,
      "hit": false,
      "t": 107723.13599999144,
      "d": 85.22399999998743,
      "v": 80
    },
    {
      "midi": 26,
      "hit": false,
      "t": 107723.13599999144,
      "d": 94.69333333331451,
      "v": 127
    },
    {
      "midi": 15,
      "hit": false,
      "t": 107723.13599999144,
      "d": 94.69333333331451,
      "v": 100
    },
    {
      "midi": 13,
      "hit": false,
      "t": 107723.13599999144,
      "d": 94.69333333331451,
      "v": 100
    },
    {
      "midi": 10,
      "hit": false,
      "t": 107723.13599999144,
      "d": 94.69333333331451,
      "v": 127
    },
    {
      "midi": 127,
      "hit": false,
      "t": 107723.13599999144,
      "d": 94.69333333331451,
      "v": 60
    },
    {
      "midi": 108,
      "hit": false,
      "t": 107723.13599999144,
      "d": 94.69333333331451,
      "v": 80
    },
    {
      "midi": 105,
      "hit": false,
      "t": 107723.13599999144,
      "d": 94.69333333331451,
      "v": 100
    },
    {
      "midi": 42,
      "hit": false,
      "t": 107723.13599999144,
      "d": 94.69333333331451,
      "v": 92
    },
    {
      "midi": 62,
      "hit": false,
      "t": 107723.13599999144,
      "d": 94.69333333331451,
      "v": 70
    },
    {
      "midi": 118,
      "hit": false,
      "t": 107723.13599999144,
      "d": 94.69333333331451,
      "v": 50
    },
    {
      "midi": 63,
      "hit": false,
      "t": 107723.13599999144,
      "d": 94.69333333331451,
      "v": 70
    },
    {
      "midi": 67,
      "hit": false,
      "t": 107723.13599999144,
      "d": 208.3253333332832,
      "v": 127
    },
    {
      "midi": 74,
      "hit": false,
      "t": 107723.13599999144,
      "d": 208.3253333332832,
      "v": 115
    },
    {
      "midi": 65,
      "hit": false,
      "t": 107732.60533332477,
      "d": 94.69333333331451,
      "v": 70
    },
    {
      "midi": 57,
      "hit": false,
      "t": 107732.60533332477,
      "d": 198.8559999999561,
      "v": 115
    },
    {
      "midi": 50,
      "hit": false,
      "t": 107732.60533332477,
      "d": 198.8559999999561,
      "v": 115
    },
    {
      "midi": 69,
      "hit": false,
      "t": 107742.0746666581,
      "d": 94.69333333331451,
      "v": 70
    },
    {
      "midi": 45,
      "hit": false,
      "t": 107742.0746666581,
      "d": 198.8559999999561,
      "v": 115
    },
    {
      "midi": 89,
      "hit": false,
      "t": 107836.76799999141,
      "d": 85.22399999998743,
      "v": 80
    },
    {
      "midi": 42,
      "hit": false,
      "t": 107846.23733332474,
      "d": 94.69333333331451,
      "v": 78
    },
    {
      "midi": 45,
      "hit": false,
      "t": 107940.93066665805,
      "d": 9.469333333327086,
      "v": 80
    },
    {
      "midi": 53,
      "hit": false,
      "t": 107940.93066665805,
      "d": 28.407999999981257,
      "v": 85
    },
    {
      "midi": 45,
      "hit": false,
      "t": 107950.39999999138,
      "d": 85.22399999998743,
      "v": 95
    },
    {
      "midi": 50,
      "hit": false,
      "t": 107950.39999999138,
      "d": 85.22399999998743,
      "v": 95
    },
    {
      "midi": 86,
      "hit": false,
      "t": 107950.39999999138,
      "d": 85.22399999998743,
      "v": 80
    },
    {
      "midi": 26,
      "hit": false,
      "t": 107950.39999999138,
      "d": 94.69333333331451,
      "v": 127
    },
    {
      "midi": 69,
      "hit": false,
      "t": 107950.39999999138,
      "d": 94.69333333331451,
      "v": 70
    },
    {
      "midi": 57,
      "hit": false,
      "t": 107959.8693333247,
      "d": 85.22399999998743,
      "v": 95
    },
    {
      "midi": 65,
      "hit": false,
      "t": 107959.8693333247,
      "d": 94.69333333331451,
      "v": 95
    },
    {
      "midi": 62,
      "hit": false,
      "t": 107969.33866665803,
      "d": 75.75466666666034,
      "v": 70
    },
    {
      "midi": 46,
      "hit": false,
      "t": 107969.33866665803,
      "d": 94.69333333331451,
      "v": 92
    },
    {
      "midi": 74,
      "hit": false,
      "t": 107969.33866665803,
      "d": 94.69333333331451,
      "v": 95
    },
    {
      "midi": 62,
      "hit": false,
      "t": 108054.56266665802,
      "d": 9.469333333327086,
      "v": 90
    },
    {
      "midi": 53,
      "hit": false,
      "t": 108054.56266665802,
      "d": 28.407999999981257,
      "v": 85
    },
    {
      "midi": 62,
      "hit": false,
      "t": 108064.03199999135,
      "d": 85.22399999998743,
      "v": 70
    },
    {
      "midi": 81,
      "hit": false,
      "t": 108064.03199999135,
      "d": 85.22399999998743,
      "v": 80
    },
    {
      "midi": 26,
      "hit": false,
      "t": 108064.03199999135,
      "d": 94.69333333331451,
      "v": 127
    },
    {
      "midi": 74,
      "hit": false,
      "t": 108064.03199999135,
      "d": 94.69333333331451,
      "v": 95
    },
    {
      "midi": 118,
      "hit": false,
      "t": 108064.03199999135,
      "d": 94.69333333331451,
      "v": 50
    },
    {
      "midi": 65,
      "hit": false,
      "t": 108073.50133332468,
      "d": 75.75466666666034,
      "v": 70
    },
    {
      "midi": 57,
      "hit": false,
      "t": 108073.50133332468,
      "d": 85.22399999998743,
      "v": 95
    },
    {
      "midi": 50,
      "hit": false,
      "t": 108073.50133332468,
      "d": 85.22399999998743,
      "v": 95
    },
    {
      "midi": 45,
      "hit": false,
      "t": 108082.970666658,
      "d": 85.22399999998743,
      "v": 95
    },
    {
      "midi": 69,
      "hit": false,
      "t": 108082.970666658,
      "d": 94.69333333331451,
      "v": 70
    },
    {
      "midi": 45,
      "hit": false,
      "t": 108168.19466665799,
      "d": 9.469333333327086,
      "v": 80
    },
    {
      "midi": 45,
      "hit": false,
      "t": 108177.66399999132,
      "d": 85.22399999998743,
      "v": 95
    },
    {
      "midi": 50,
      "hit": false,
      "t": 108177.66399999132,
      "d": 85.22399999998743,
      "v": 95
    },
    {
      "midi": 77,
      "hit": false,
      "t": 108177.66399999132,
      "d": 85.22399999998743,
      "v": 80
    },
    {
      "midi": 26,
      "hit": false,
      "t": 108177.66399999132,
      "d": 94.69333333331451,
      "v": 127
    },
    {
      "midi": 62,
      "hit": false,
      "t": 108177.66399999132,
      "d": 94.69333333331451,
      "v": 80
    },
    {
      "midi": 15,
      "hit": false,
      "t": 108177.66399999132,
      "d": 94.69333333331451,
      "v": 100
    },
    {
      "midi": 13,
      "hit": false,
      "t": 108177.66399999132,
      "d": 94.69333333331451,
      "v": 100
    },
    {
      "midi": 10,
      "hit": false,
      "t": 108177.66399999132,
      "d": 94.69333333331451,
      "v": 127
    },
    {
      "midi": 42,
      "hit": false,
      "t": 108177.66399999132,
      "d": 94.69333333331451,
      "v": 92
    },
    {
      "midi": 57,
      "hit": false,
      "t": 108187.13333332464,
      "d": 85.22399999998743,
      "v": 95
    },
    {
      "midi": 65,
      "hit": false,
      "t": 108187.13333332464,
      "d": 94.69333333331451,
      "v": 95
    },
    {
      "midi": 74,
      "hit": false,
      "t": 108196.60266665797,
      "d": 94.69333333331451,
      "v": 95
    },
    {
      "midi": 62,
      "hit": false,
      "t": 108281.82666665796,
      "d": 94.69333333331451,
      "v": 80
    },
    {
      "midi": 65,
      "hit": false,
      "t": 108291.29599999129,
      "d": 85.22399999998743,
      "v": 95
    },
    {
      "midi": 74,
      "hit": false,
      "t": 108291.29599999129,
      "d": 85.22399999998743,
      "v": 95
    },
    {
      "midi": 118,
      "hit": false,
      "t": 108291.29599999129,
      "d": 94.69333333331451,
      "v": 50
    },
    {
      "midi": 57,
      "hit": false,
      "t": 108300.76533332461,
      "d": 85.22399999998743,
      "v": 95
    },
    {
      "midi": 50,
      "hit": false,
      "t": 108300.76533332461,
      "d": 85.22399999998743,
      "v": 95
    },
    {
      "midi": 42,
      "hit": false,
      "t": 108300.76533332461,
      "d": 94.69333333331451,
      "v": 78
    },
    {
      "midi": 45,
      "hit": false,
      "t": 108310.23466665794,
      "d": 85.22399999998743,
      "v": 95
    },
    {
      "midi": 45,
      "hit": false,
      "t": 108395.45866665793,
      "d": 9.469333333327086,
      "v": 105
    },
    {
      "midi": 45,
      "hit": false,
      "t": 108404.92799999125,
      "d": 85.22399999998743,
      "v": 95
    },
    {
      "midi": 50,
      "hit": false,
      "t": 108404.92799999125,
      "d": 85.22399999998743,
      "v": 95
    },
    {
      "midi": 69,
      "hit": false,
      "t": 108404.92799999125,
      "d": 85.22399999998743,
      "v": 80
    },
    {
      "midi": 62,
      "hit": false,
      "t": 108404.92799999125,
      "d": 94.69333333331451,
      "v": 105
    },
    {
      "midi": 118,
      "hit": false,
      "t": 108404.92799999125,
      "d": 94.69333333331451,
      "v": 30
    },
    {
      "midi": 26,
      "hit": false,
      "t": 108404.92799999125,
      "d": 208.3253333332832,
      "v": 127
    },
    {
      "midi": 57,
      "hit": false,
      "t": 108414.39733332458,
      "d": 85.22399999998743,
      "v": 95
    },
    {
      "midi": 65,
      "hit": false,
      "t": 108414.39733332458,
      "d": 94.69333333331451,
      "v": 95
    },
    {
      "midi": 46,
      "hit": false,
      "t": 108423.86666665791,
      "d": 94.69333333331451,
      "v": 92
    },
    {
      "midi": 74,
      "hit": false,
      "t": 108423.86666665791,
      "d": 94.69333333331451,
      "v": 95
    },
    {
      "midi": 62,
      "hit": false,
      "t": 108509.0906666579,
      "d": 94.69333333331451,
      "v": 90
    },
    {
      "midi": 65,
      "hit": false,
      "t": 108518.55999999122,
      "d": 85.22399999998743,
      "v": 95
    },
    {
      "midi": 74,
      "hit": false,
      "t": 108518.55999999122,
      "d": 94.69333333331451,
      "v": 95
    },
    {
      "midi": 63,
      "hit": false,
      "t": 108518.55999999122,
      "d": 94.69333333331451,
      "v": 80
    },
    {
      "midi": 57,
      "hit": false,
      "t": 108528.02933332455,
      "d": 85.22399999998743,
      "v": 95
    },
    {
      "midi": 50,
      "hit": false,
      "t": 108528.02933332455,
      "d": 85.22399999998743,
      "v": 95
    },
    {
      "midi": 45,
      "hit": false,
      "t": 108537.49866665788,
      "d": 85.22399999998743,
      "v": 95
    },
    {
      "midi": 45,
      "hit": false,
      "t": 108622.72266665786,
      "d": 9.469333333327086,
      "v": 100
    },
    {
      "midi": 62,
      "hit": false,
      "t": 108632.19199999119,
      "d": 85.22399999998743,
      "v": 100
    },
    {
      "midi": 26,
      "hit": false,
      "t": 108632.19199999119,
      "d": 94.69333333331451,
      "v": 127
    },
    {
      "midi": 15,
      "hit": false,
      "t": 108632.19199999119,
      "d": 94.69333333331451,
      "v": 100
    },
    {
      "midi": 13,
      "hit": false,
      "t": 108632.19199999119,
      "d": 94.69333333331451,
      "v": 100
    },
    {
      "midi": 10,
      "hit": false,
      "t": 108632.19199999119,
      "d": 94.69333333331451,
      "v": 127
    },
    {
      "midi": 127,
      "hit": false,
      "t": 108632.19199999119,
      "d": 94.69333333331451,
      "v": 60
    },
    {
      "midi": 108,
      "hit": false,
      "t": 108632.19199999119,
      "d": 94.69333333331451,
      "v": 80
    },
    {
      "midi": 105,
      "hit": false,
      "t": 108632.19199999119,
      "d": 94.69333333331451,
      "v": 100
    },
    {
      "midi": 42,
      "hit": false,
      "t": 108632.19199999119,
      "d": 94.69333333331451,
      "v": 92
    },
    {
      "midi": 118,
      "hit": false,
      "t": 108632.19199999119,
      "d": 94.69333333331451,
      "v": 50
    },
    {
      "midi": 64,
      "hit": false,
      "t": 108632.19199999119,
      "d": 94.69333333331451,
      "v": 70
    },
    {
      "midi": 45,
      "hit": false,
      "t": 108632.19199999119,
      "d": 198.85599999997066,
      "v": 115
    },
    {
      "midi": 50,
      "hit": false,
      "t": 108632.19199999119,
      "d": 198.85599999997066,
      "v": 115
    },
    {
      "midi": 57,
      "hit": false,
      "t": 108641.66133332452,
      "d": 198.85599999997066,
      "v": 115
    },
    {
      "midi": 74,
      "hit": false,
      "t": 108651.13066665785,
      "d": 208.32533333329775,
      "v": 115
    },
    {
      "midi": 65,
      "hit": false,
      "t": 108745.82399999117,
      "d": 85.22399999998743,
      "v": 80
    },
    {
      "midi": 26,
      "hit": false,
      "t": 108745.82399999117,
      "d": 94.69333333331451,
      "v": 127
    },
    {
      "midi": 42,
      "hit": false,
      "t": 108755.2933333245,
      "d": 94.69333333331451,
      "v": 78
    },
    {
      "midi": 65,
      "hit": false,
      "t": 108859.45599999114,
      "d": 85.22399999998743,
      "v": 105
    },
    {
      "midi": 62,
      "hit": false,
      "t": 108859.45599999114,
      "d": 85.22399999998743,
      "v": 127
    },
    {
      "midi": 69,
      "hit": false,
      "t": 108859.45599999114,
      "d": 85.22399999998743,
      "v": 80
    },
    {
      "midi": 26,
      "hit": false,
      "t": 108859.45599999114,
      "d": 94.69333333331451,
      "v": 127
    },
    {
      "midi": 15,
      "hit": false,
      "t": 108859.45599999114,
      "d": 94.69333333331451,
      "v": 100
    },
    {
      "midi": 13,
      "hit": false,
      "t": 108859.45599999114,
      "d": 94.69333333331451,
      "v": 100
    },
    {
      "midi": 10,
      "hit": false,
      "t": 108859.45599999114,
      "d": 94.69333333331451,
      "v": 127
    },
    {
      "midi": 74,
      "hit": false,
      "t": 108859.45599999114,
      "d": 94.69333333331451,
      "v": 105
    },
    {
      "midi": 118,
      "hit": false,
      "t": 108859.45599999114,
      "d": 94.69333333331451,
      "v": 50
    },
    {
      "midi": 57,
      "hit": false,
      "t": 108868.92533332447,
      "d": 85.22399999998743,
      "v": 105
    },
    {
      "midi": 50,
      "hit": false,
      "t": 108868.92533332447,
      "d": 85.22399999998743,
      "v": 105
    },
    {
      "midi": 45,
      "hit": false,
      "t": 108878.3946666578,
      "d": 85.22399999998743,
      "v": 105
    },
    {
      "midi": 46,
      "hit": false,
      "t": 108878.3946666578,
      "d": 94.69333333331451,
      "v": 92
    },
    {
      "midi": 45,
      "hit": false,
      "t": 108963.61866665779,
      "d": 9.469333333327086,
      "v": 90
    },
    {
      "midi": 45,
      "hit": false,
      "t": 108973.08799999111,
      "d": 85.22399999998743,
      "v": 115
    },
    {
      "midi": 50,
      "hit": false,
      "t": 108973.08799999111,
      "d": 85.22399999998743,
      "v": 115
    },
    {
      "midi": 62,
      "hit": false,
      "t": 108973.08799999111,
      "d": 94.69333333331451,
      "v": 90
    },
    {
      "midi": 118,
      "hit": false,
      "t": 108973.08799999111,
      "d": 94.69333333331451,
      "v": 30
    },
    {
      "midi": 57,
      "hit": false,
      "t": 108982.55733332444,
      "d": 85.22399999998743,
      "v": 115
    },
    {
      "midi": 65,
      "hit": false,
      "t": 108982.55733332444,
      "d": 94.69333333331451,
      "v": 115
    },
    {
      "midi": 74,
      "hit": false,
      "t": 108992.02666665777,
      "d": 66.28533333333326,
      "v": 115
    },
    {
      "midi": 55,
      "hit": false,
      "t": 109077.25066665775,
      "d": 28.407999999981257,
      "v": 85
    },
    {
      "midi": 71,
      "hit": false,
      "t": 109086.71999999108,
      "d": 85.22399999998743,
      "v": 80
    },
    {
      "midi": 31,
      "hit": false,
      "t": 109086.71999999108,
      "d": 94.69333333331451,
      "v": 127
    },
    {
      "midi": 15,
      "hit": false,
      "t": 109086.71999999108,
      "d": 94.69333333331451,
      "v": 100
    },
    {
      "midi": 13,
      "hit": false,
      "t": 109086.71999999108,
      "d": 94.69333333331451,
      "v": 100
    },
    {
      "midi": 10,
      "hit": false,
      "t": 109086.71999999108,
      "d": 94.69333333331451,
      "v": 127
    },
    {
      "midi": 42,
      "hit": false,
      "t": 109086.71999999108,
      "d": 94.69333333331451,
      "v": 92
    },
    {
      "midi": 67,
      "hit": false,
      "t": 109086.71999999108,
      "d": 94.69333333331451,
      "v": 115
    },
    {
      "midi": 62,
      "hit": false,
      "t": 109096.18933332441,
      "d": 94.69333333331451,
      "v": 70
    },
    {
      "midi": 50,
      "hit": false,
      "t": 109096.18933332441,
      "d": 416.65066666658095,
      "v": 115
    },
    {
      "midi": 43,
      "hit": false,
      "t": 109096.18933332441,
      "d": 426.11999999990803,
      "v": 100
    },
    {
      "midi": 59,
      "hit": false,
      "t": 109105.65866665774,
      "d": 94.69333333331451,
      "v": 70
    },
    {
      "midi": 47,
      "hit": false,
      "t": 109105.65866665774,
      "d": 426.11999999990803,
      "v": 115
    },
    {
      "midi": 55,
      "hit": false,
      "t": 109190.88266665772,
      "d": 28.407999999981257,
      "v": 85
    },
    {
      "midi": 74,
      "hit": false,
      "t": 109200.35199999105,
      "d": 85.22399999998743,
      "v": 80
    },
    {
      "midi": 31,
      "hit": false,
      "t": 109200.35199999105,
      "d": 94.69333333331451,
      "v": 127
    },
    {
      "midi": 59,
      "hit": false,
      "t": 109200.35199999105,
      "d": 94.69333333331451,
      "v": 70
    },
    {
      "midi": 62,
      "hit": false,
      "t": 109209.82133332438,
      "d": 85.22399999998743,
      "v": 70
    },
    {
      "midi": 42,
      "hit": false,
      "t": 109209.82133332438,
      "d": 94.69333333331451,
      "v": 78
    },
    {
      "midi": 67,
      "hit": false,
      "t": 109219.2906666577,
      "d": 94.69333333331451,
      "v": 70
    },
    {
      "midi": 79,
      "hit": false,
      "t": 109313.98399999102,
      "d": 85.22400000000198,
      "v": 80
    },
    {
      "midi": 31,
      "hit": false,
      "t": 109313.98399999102,
      "d": 94.69333333332906,
      "v": 127
    },
    {
      "midi": 46,
      "hit": false,
      "t": 109332.92266665769,
      "d": 94.69333333331451,
      "v": 92
    },
    {
      "midi": 55,
      "hit": false,
      "t": 109418.14666665767,
      "d": 28.407999999981257,
      "v": 85
    },
    {
      "midi": 67,
      "hit": false,
      "t": 109427.615999991,
      "d": 75.75466666666034,
      "v": 70
    },
    {
      "midi": 83,
      "hit": false,
      "t": 109427.615999991,
      "d": 85.22399999998743,
      "v": 80
    },
    {
      "midi": 31,
      "hit": false,
      "t": 109427.615999991,
      "d": 94.69333333331451,
      "v": 127
    },
    {
      "midi": 64,
      "hit": false,
      "t": 109427.615999991,
      "d": 94.69333333331451,
      "v": 70
    },
    {
      "midi": 62,
      "hit": false,
      "t": 109437.08533332433,
      "d": 66.28533333333326,
      "v": 70
    },
    {
      "midi": 59,
      "hit": false,
      "t": 109446.55466665766,
      "d": 66.28533333333326,
      "v": 70
    },
    {
      "midi": 55,
      "hit": false,
      "t": 109531.77866665764,
      "d": 28.407999999981257,
      "v": 85
    },
    {
      "midi": 86,
      "hit": false,
      "t": 109541.24799999097,
      "d": 85.22399999998743,
      "v": 80
    },
    {
      "midi": 31,
      "hit": false,
      "t": 109541.24799999097,
      "d": 94.69333333331451,
      "v": 127
    },
    {
      "midi": 15,
      "hit": false,
      "t": 109541.24799999097,
      "d": 94.69333333331451,
      "v": 100
    },
    {
      "midi": 13,
      "hit": false,
      "t": 109541.24799999097,
      "d": 94.69333333331451,
      "v": 100
    },
    {
      "midi": 10,
      "hit": false,
      "t": 109541.24799999097,
      "d": 94.69333333331451,
      "v": 127
    },
    {
      "midi": 127,
      "hit": false,
      "t": 109541.24799999097,
      "d": 94.69333333331451,
      "v": 60
    },
    {
      "midi": 108,
      "hit": false,
      "t": 109541.24799999097,
      "d": 94.69333333331451,
      "v": 80
    },
    {
      "midi": 105,
      "hit": false,
      "t": 109541.24799999097,
      "d": 94.69333333331451,
      "v": 100
    },
    {
      "midi": 42,
      "hit": false,
      "t": 109541.24799999097,
      "d": 94.69333333331451,
      "v": 92
    },
    {
      "midi": 118,
      "hit": false,
      "t": 109541.24799999097,
      "d": 94.69333333331451,
      "v": 50
    },
    {
      "midi": 63,
      "hit": false,
      "t": 109541.24799999097,
      "d": 94.69333333331451,
      "v": 70
    },
    {
      "midi": 59,
      "hit": false,
      "t": 109550.7173333243,
      "d": 85.22399999998743,
      "v": 115
    },
    {
      "midi": 62,
      "hit": false,
      "t": 109550.7173333243,
      "d": 94.69333333331451,
      "v": 70
    },
    {
      "midi": 50,
      "hit": false,
      "t": 109550.7173333243,
      "d": 198.8559999999561,
      "v": 115
    },
    {
      "midi": 43,
      "hit": false,
      "t": 109550.7173333243,
      "d": 208.3253333332832,
      "v": 110
    },
    {
      "midi": 67,
      "hit": false,
      "t": 109560.18666665762,
      "d": 94.69333333331451,
      "v": 70
    },
    {
      "midi": 47,
      "hit": false,
      "t": 109560.18666665762,
      "d": 208.3253333332832,
      "v": 115
    },
    {
      "midi": 91,
      "hit": false,
      "t": 109654.87999999094,
      "d": 85.22399999998743,
      "v": 80
    },
    {
      "midi": 42,
      "hit": false,
      "t": 109664.34933332427,
      "d": 94.69333333331451,
      "v": 78
    },
    {
      "midi": 55,
      "hit": false,
      "t": 109759.04266665758,
      "d": 28.407999999981257,
      "v": 85
    },
    {
      "midi": 43,
      "hit": false,
      "t": 109759.04266665758,
      "d": 94.69333333331451,
      "v": 80
    },
    {
      "midi": 50,
      "hit": false,
      "t": 109768.51199999091,
      "d": 85.22399999998743,
      "v": 95
    },
    {
      "midi": 86,
      "hit": false,
      "t": 109768.51199999091,
      "d": 85.22399999998743,
      "v": 80
    },
    {
      "midi": 31,
      "hit": false,
      "t": 109768.51199999091,
      "d": 94.69333333331451,
      "v": 127
    },
    {
      "midi": 47,
      "hit": false,
      "t": 109768.51199999091,
      "d": 94.69333333331451,
      "v": 95
    },
    {
      "midi": 62,
      "hit": false,
      "t": 109777.98133332423,
      "d": 85.22399999998743,
      "v": 95
    },
    {
      "midi": 59,
      "hit": false,
      "t": 109787.45066665756,
      "d": 75.75466666666034,
      "v": 70
    },
    {
      "midi": 67,
      "hit": false,
      "t": 109787.45066665756,
      "d": 75.75466666666034,
      "v": 95
    },
    {
      "midi": 46,
      "hit": false,
      "t": 109787.45066665756,
      "d": 94.69333333331451,
      "v": 92
    },
    {
      "midi": 67,
      "hit": false,
      "t": 109872.67466665755,
      "d": 9.469333333327086,
      "v": 90
    },
    {
      "midi": 55,
      "hit": false,
      "t": 109872.67466665755,
      "d": 28.407999999981257,
      "v": 85
    },
    {
      "midi": 83,
      "hit": false,
      "t": 109882.14399999088,
      "d": 85.22399999998743,
      "v": 80
    },
    {
      "midi": 31,
      "hit": false,
      "t": 109882.14399999088,
      "d": 94.69333333331451,
      "v": 127
    },
    {
      "midi": 118,
      "hit": false,
      "t": 109882.14399999088,
      "d": 94.69333333331451,
      "v": 50
    },
    {
      "midi": 59,
      "hit": false,
      "t": 109891.6133333242,
      "d": 85.22399999998743,
      "v": 115
    },
    {
      "midi": 62,
      "hit": false,
      "t": 109891.6133333242,
      "d": 94.69333333331451,
      "v": 70
    },
    {
      "midi": 50,
      "hit": false,
      "t": 109891.6133333242,
      "d": 208.32533333329775,
      "v": 115
    },
    {
      "midi": 43,
      "hit": false,
      "t": 109891.6133333242,
      "d": 321.95733333326643,
      "v": 90
    },
    {
      "midi": 67,
      "hit": false,
      "t": 109901.08266665753,
      "d": 94.69333333331451,
      "v": 70
    },
    {
      "midi": 47,
      "hit": false,
      "t": 109901.08266665753,
      "d": 208.32533333329775,
      "v": 115
    },
    {
      "midi": 79,
      "hit": false,
      "t": 109995.77599999084,
      "d": 85.22400000000198,
      "v": 80
    },
    {
      "midi": 31,
      "hit": false,
      "t": 109995.77599999084,
      "d": 94.69333333332906,
      "v": 127
    },
    {
      "midi": 15,
      "hit": false,
      "t": 109995.77599999084,
      "d": 94.69333333332906,
      "v": 100
    },
    {
      "midi": 13,
      "hit": false,
      "t": 109995.77599999084,
      "d": 94.69333333332906,
      "v": 100
    },
    {
      "midi": 10,
      "hit": false,
      "t": 109995.77599999084,
      "d": 94.69333333332906,
      "v": 127
    },
    {
      "midi": 42,
      "hit": false,
      "t": 109995.77599999084,
      "d": 94.69333333332906,
      "v": 92
    },
    {
      "midi": 74,
      "hit": false,
      "t": 110109.40799999083,
      "d": 85.22399999998743,
      "v": 80
    },
    {
      "midi": 118,
      "hit": false,
      "t": 110109.40799999083,
      "d": 94.69333333331451,
      "v": 50
    },
    {
      "midi": 42,
      "hit": false,
      "t": 110118.87733332416,
      "d": 94.69333333331451,
      "v": 78
    },
    {
      "midi": 43,
      "hit": false,
      "t": 110213.57066665747,
      "d": 208.3253333332832,
      "v": 100
    },
    {
      "midi": 71,
      "hit": false,
      "t": 110223.0399999908,
      "d": 85.22399999997288,
      "v": 80
    },
    {
      "midi": 47,
      "hit": false,
      "t": 110223.0399999908,
      "d": 94.69333333329996,
      "v": 115
    },
    {
      "midi": 50,
      "hit": false,
      "t": 110223.0399999908,
      "d": 94.69333333329996,
      "v": 115
    },
    {
      "midi": 118,
      "hit": false,
      "t": 110223.0399999908,
      "d": 94.69333333329996,
      "v": 30
    },
    {
      "midi": 31,
      "hit": false,
      "t": 110223.0399999908,
      "d": 208.3253333332832,
      "v": 127
    },
    {
      "midi": 59,
      "hit": false,
      "t": 110232.50933332412,
      "d": 94.69333333329996,
      "v": 115
    },
    {
      "midi": 62,
      "hit": false,
      "t": 110232.50933332412,
      "d": 94.69333333329996,
      "v": 115
    },
    {
      "midi": 46,
      "hit": false,
      "t": 110241.97866665745,
      "d": 94.69333333329996,
      "v": 92
    },
    {
      "midi": 67,
      "hit": false,
      "t": 110241.97866665745,
      "d": 94.69333333329996,
      "v": 115
    },
    {
      "midi": 67,
      "hit": false,
      "t": 110336.67199999075,
      "d": 85.22400000000198,
      "v": 80
    },
    {
      "midi": 63,
      "hit": false,
      "t": 110336.67199999075,
      "d": 94.69333333332906,
      "v": 80
    },
    {
      "midi": 62,
      "hit": false,
      "t": 110450.30399999073,
      "d": 85.22399999998743,
      "v": 115
    },
    {
      "midi": 31,
      "hit": false,
      "t": 110450.30399999073,
      "d": 94.69333333331451,
      "v": 127
    },
    {
      "midi": 15,
      "hit": false,
      "t": 110450.30399999073,
      "d": 94.69333333331451,
      "v": 100
    },
    {
      "midi": 13,
      "hit": false,
      "t": 110450.30399999073,
      "d": 94.69333333331451,
      "v": 100
    },
    {
      "midi": 10,
      "hit": false,
      "t": 110450.30399999073,
      "d": 94.69333333331451,
      "v": 127
    },
    {
      "midi": 127,
      "hit": false,
      "t": 110450.30399999073,
      "d": 94.69333333331451,
      "v": 60
    },
    {
      "midi": 108,
      "hit": false,
      "t": 110450.30399999073,
      "d": 94.69333333331451,
      "v": 80
    },
    {
      "midi": 105,
      "hit": false,
      "t": 110450.30399999073,
      "d": 94.69333333331451,
      "v": 100
    },
    {
      "midi": 42,
      "hit": false,
      "t": 110450.30399999073,
      "d": 94.69333333331451,
      "v": 92
    },
    {
      "midi": 118,
      "hit": false,
      "t": 110450.30399999073,
      "d": 94.69333333331451,
      "v": 50
    },
    {
      "midi": 64,
      "hit": false,
      "t": 110450.30399999073,
      "d": 94.69333333331451,
      "v": 70
    },
    {
      "midi": 60,
      "hit": false,
      "t": 110450.30399999073,
      "d": 208.32533333329775,
      "v": 127
    },
    {
      "midi": 59,
      "hit": false,
      "t": 110459.77333332406,
      "d": 198.85599999997066,
      "v": 115
    },
    {
      "midi": 50,
      "hit": false,
      "t": 110459.77333332406,
      "d": 198.85599999997066,
      "v": 115
    },
    {
      "midi": 43,
      "hit": false,
      "t": 110459.77333332406,
      "d": 208.32533333329775,
      "v": 110
    },
    {
      "midi": 47,
      "hit": false,
      "t": 110469.24266665739,
      "d": 208.32533333329775,
      "v": 115
    },
    {
      "midi": 67,
      "hit": false,
      "t": 110563.93599999072,
      "d": 85.22399999998743,
      "v": 80
    },
    {
      "midi": 31,
      "hit": false,
      "t": 110563.93599999072,
      "d": 94.69333333331451,
      "v": 127
    },
    {
      "midi": 42,
      "hit": false,
      "t": 110573.40533332404,
      "d": 94.69333333331451,
      "v": 78
    },
    {
      "midi": 43,
      "hit": false,
      "t": 110668.09866665736,
      "d": 94.69333333331451,
      "v": 80
    },
    {
      "midi": 50,
      "hit": false,
      "t": 110677.56799999069,
      "d": 85.22399999998743,
      "v": 95
    },
    {
      "midi": 71,
      "hit": false,
      "t": 110677.56799999069,
      "d": 85.22399999998743,
      "v": 80
    },
    {
      "midi": 31,
      "hit": false,
      "t": 110677.56799999069,
      "d": 94.69333333331451,
      "v": 127
    },
    {
      "midi": 47,
      "hit": false,
      "t": 110677.56799999069,
      "d": 94.69333333331451,
      "v": 95
    },
    {
      "midi": 118,
      "hit": false,
      "t": 110677.56799999069,
      "d": 94.69333333331451,
      "v": 50
    },
    {
      "midi": 59,
      "hit": false,
      "t": 110687.03733332401,
      "d": 85.22399999998743,
      "v": 95
    },
    {
      "midi": 62,
      "hit": false,
      "t": 110687.03733332401,
      "d": 85.22399999998743,
      "v": 95
    },
    {
      "midi": 67,
      "hit": false,
      "t": 110696.50666665734,
      "d": 85.22399999998743,
      "v": 95
    },
    {
      "midi": 46,
      "hit": false,
      "t": 110696.50666665734,
      "d": 94.69333333331451,
      "v": 92
    },
    {
      "midi": 67,
      "hit": false,
      "t": 110781.73066665733,
      "d": 9.469333333327086,
      "v": 90
    },
    {
      "midi": 67,
      "hit": false,
      "t": 110791.19999999065,
      "d": 85.22399999998743,
      "v": 95
    },
    {
      "midi": 62,
      "hit": false,
      "t": 110791.19999999065,
      "d": 85.22399999998743,
      "v": 95
    },
    {
      "midi": 74,
      "hit": false,
      "t": 110791.19999999065,
      "d": 85.22399999998743,
      "v": 80
    },
    {
      "midi": 118,
      "hit": false,
      "t": 110791.19999999065,
      "d": 94.69333333331451,
      "v": 30
    },
    {
      "midi": 59,
      "hit": false,
      "t": 110800.66933332398,
      "d": 85.22399999998743,
      "v": 95
    },
    {
      "midi": 50,
      "hit": false,
      "t": 110800.66933332398,
      "d": 85.22399999998743,
      "v": 95
    },
    {
      "midi": 43,
      "hit": false,
      "t": 110800.66933332398,
      "d": 94.69333333331451,
      "v": 90
    },
    {
      "midi": 47,
      "hit": false,
      "t": 110810.13866665731,
      "d": 94.69333333331451,
      "v": 95
    },
    {
      "midi": 24,
      "hit": false,
      "t": 110904.83199999062,
      "d": 94.69333333328541,
      "v": 127
    },
    {
      "midi": 15,
      "hit": false,
      "t": 110904.83199999062,
      "d": 94.69333333328541,
      "v": 100
    },
    {
      "midi": 13,
      "hit": false,
      "t": 110904.83199999062,
      "d": 94.69333333328541,
      "v": 100
    },
    {
      "midi": 10,
      "hit": false,
      "t": 110904.83199999062,
      "d": 94.69333333328541,
      "v": 127
    },
    {
      "midi": 42,
      "hit": false,
      "t": 110904.83199999062,
      "d": 94.69333333328541,
      "v": 92
    },
    {
      "midi": 72,
      "hit": false,
      "t": 110904.83199999062,
      "d": 94.69333333328541,
      "v": 70
    },
    {
      "midi": 60,
      "hit": false,
      "t": 110904.83199999062,
      "d": 416.65066666652274,
      "v": 105
    },
    {
      "midi": 55,
      "hit": false,
      "t": 110914.30133332395,
      "d": 9.469333333327086,
      "v": 105
    },
    {
      "midi": 67,
      "hit": false,
      "t": 110914.30133332395,
      "d": 75.75466666663124,
      "v": 70
    },
    {
      "midi": 43,
      "hit": false,
      "t": 110914.30133332395,
      "d": 426.1199999998498,
      "v": 105
    },
    {
      "midi": 52,
      "hit": false,
      "t": 110914.30133332395,
      "d": 426.1199999998498,
      "v": 105
    },
    {
      "midi": 64,
      "hit": false,
      "t": 110923.77066665728,
      "d": 94.69333333328541,
      "v": 70
    },
    {
      "midi": 48,
      "hit": false,
      "t": 110923.77066665728,
      "d": 407.18133333319565,
      "v": 105
    },
    {
      "midi": 55,
      "hit": false,
      "t": 111008.99466665724,
      "d": 28.407999999981257,
      "v": 85
    },
    {
      "midi": 24,
      "hit": false,
      "t": 111018.46399999056,
      "d": 94.69333333331451,
      "v": 127
    },
    {
      "midi": 64,
      "hit": false,
      "t": 111018.46399999056,
      "d": 94.69333333331451,
      "v": 70
    },
    {
      "midi": 42,
      "hit": false,
      "t": 111027.93333332389,
      "d": 94.69333333331451,
      "v": 78
    },
    {
      "midi": 67,
      "hit": false,
      "t": 111027.93333332389,
      "d": 94.69333333331451,
      "v": 70
    },
    {
      "midi": 72,
      "hit": false,
      "t": 111037.40266665722,
      "d": 66.28533333333326,
      "v": 70
    },
    {
      "midi": 72,
      "hit": false,
      "t": 111132.09599999053,
      "d": 47.34666666664998,
      "v": 70
    },
    {
      "midi": 76,
      "hit": false,
      "t": 111132.09599999053,
      "d": 85.22399999997288,
      "v": 80
    },
    {
      "midi": 24,
      "hit": false,
      "t": 111132.09599999053,
      "d": 94.69333333329996,
      "v": 127
    },
    {
      "midi": 67,
      "hit": false,
      "t": 111141.56533332386,
      "d": 47.34666666664998,
      "v": 70
    },
    {
      "midi": 64,
      "hit": false,
      "t": 111151.03466665719,
      "d": 47.34666666664998,
      "v": 70
    },
    {
      "midi": 46,
      "hit": false,
      "t": 111151.03466665719,
      "d": 94.69333333329996,
      "v": 92
    },
    {
      "midi": 55,
      "hit": false,
      "t": 111236.25866665716,
      "d": 28.407999999981257,
      "v": 85
    },
    {
      "midi": 64,
      "hit": false,
      "t": 111245.72799999049,
      "d": 75.75466666666034,
      "v": 70
    },
    {
      "midi": 79,
      "hit": false,
      "t": 111245.72799999049,
      "d": 85.22399999998743,
      "v": 80
    },
    {
      "midi": 24,
      "hit": false,
      "t": 111245.72799999049,
      "d": 94.69333333331451,
      "v": 127
    },
    {
      "midi": 67,
      "hit": false,
      "t": 111255.19733332381,
      "d": 94.69333333331451,
      "v": 70
    },
    {
      "midi": 72,
      "hit": false,
      "t": 111264.66666665714,
      "d": 94.69333333331451,
      "v": 70
    },
    {
      "midi": 84,
      "hit": false,
      "t": 111359.35999999045,
      "d": 85.22399999998743,
      "v": 80
    },
    {
      "midi": 24,
      "hit": false,
      "t": 111359.35999999045,
      "d": 94.69333333331451,
      "v": 127
    },
    {
      "midi": 15,
      "hit": false,
      "t": 111359.35999999045,
      "d": 94.69333333331451,
      "v": 100
    },
    {
      "midi": 13,
      "hit": false,
      "t": 111359.35999999045,
      "d": 94.69333333331451,
      "v": 100
    },
    {
      "midi": 10,
      "hit": false,
      "t": 111359.35999999045,
      "d": 94.69333333331451,
      "v": 127
    },
    {
      "midi": 127,
      "hit": false,
      "t": 111359.35999999045,
      "d": 94.69333333331451,
      "v": 60
    },
    {
      "midi": 108,
      "hit": false,
      "t": 111359.35999999045,
      "d": 94.69333333331451,
      "v": 80
    },
    {
      "midi": 105,
      "hit": false,
      "t": 111359.35999999045,
      "d": 94.69333333331451,
      "v": 100
    },
    {
      "midi": 42,
      "hit": false,
      "t": 111359.35999999045,
      "d": 94.69333333331451,
      "v": 92
    },
    {
      "midi": 72,
      "hit": false,
      "t": 111359.35999999045,
      "d": 94.69333333331451,
      "v": 70
    },
    {
      "midi": 118,
      "hit": false,
      "t": 111359.35999999045,
      "d": 94.69333333331451,
      "v": 50
    },
    {
      "midi": 63,
      "hit": false,
      "t": 111359.35999999045,
      "d": 94.69333333331451,
      "v": 70
    },
    {
      "midi": 60,
      "hit": false,
      "t": 111359.35999999045,
      "d": 198.8559999999561,
      "v": 115
    },
    {
      "midi": 65,
      "hit": false,
      "t": 111359.35999999045,
      "d": 208.3253333332832,
      "v": 127
    },
    {
      "midi": 55,
      "hit": false,
      "t": 111368.82933332378,
      "d": 9.469333333327086,
      "v": 115
    },
    {
      "midi": 67,
      "hit": false,
      "t": 111368.82933332378,
      "d": 94.69333333331451,
      "v": 70
    },
    {
      "midi": 43,
      "hit": false,
      "t": 111368.82933332378,
      "d": 208.3253333332832,
      "v": 105
    },
    {
      "midi": 52,
      "hit": false,
      "t": 111368.82933332378,
      "d": 208.3253333332832,
      "v": 115
    },
    {
      "midi": 64,
      "hit": false,
      "t": 111378.29866665711,
      "d": 94.69333333331451,
      "v": 70
    },
    {
      "midi": 48,
      "hit": false,
      "t": 111378.29866665711,
      "d": 189.38666666662903,
      "v": 115
    },
    {
      "midi": 88,
      "hit": false,
      "t": 111472.99199999042,
      "d": 85.22399999998743,
      "v": 80
    },
    {
      "midi": 42,
      "hit": false,
      "t": 111482.46133332375,
      "d": 94.69333333331451,
      "v": 78
    },
    {
      "midi": 48,
      "hit": false,
      "t": 111577.15466665706,
      "d": 9.469333333327086,
      "v": 80
    },
    {
      "midi": 43,
      "hit": false,
      "t": 111577.15466665706,
      "d": 94.69333333331451,
      "v": 80
    },
    {
      "midi": 48,
      "hit": false,
      "t": 111586.62399999039,
      "d": 85.22399999998743,
      "v": 95
    },
    {
      "midi": 84,
      "hit": false,
      "t": 111586.62399999039,
      "d": 85.22399999998743,
      "v": 80
    },
    {
      "midi": 24,
      "hit": false,
      "t": 111586.62399999039,
      "d": 94.69333333331451,
      "v": 127
    },
    {
      "midi": 52,
      "hit": false,
      "t": 111586.62399999039,
      "d": 94.69333333331451,
      "v": 95
    },
    {
      "midi": 55,
      "hit": false,
      "t": 111596.09333332372,
      "d": 9.469333333327086,
      "v": 95
    },
    {
      "midi": 60,
      "hit": false,
      "t": 111596.09333332372,
      "d": 85.22399999998743,
      "v": 95
    },
    {
      "midi": 67,
      "hit": false,
      "t": 111596.09333332372,
      "d": 94.69333333331451,
      "v": 70
    },
    {
      "midi": 64,
      "hit": false,
      "t": 111605.56266665705,
      "d": 75.75466666666034,
      "v": 95
    },
    {
      "midi": 46,
      "hit": false,
      "t": 111605.56266665705,
      "d": 94.69333333331451,
      "v": 92
    },
    {
      "midi": 72,
      "hit": false,
      "t": 111605.56266665705,
      "d": 94.69333333331451,
      "v": 70
    },
    {
      "midi": 64,
      "hit": false,
      "t": 111690.78666665703,
      "d": 9.469333333327086,
      "v": 100
    },
    {
      "midi": 79,
      "hit": false,
      "t": 111700.25599999036,
      "d": 85.22399999998743,
      "v": 80
    },
    {
      "midi": 24,
      "hit": false,
      "t": 111700.25599999036,
      "d": 94.69333333331451,
      "v": 127
    },
    {
      "midi": 72,
      "hit": false,
      "t": 111700.25599999036,
      "d": 94.69333333331451,
      "v": 70
    },
    {
      "midi": 118,
      "hit": false,
      "t": 111700.25599999036,
      "d": 94.69333333331451,
      "v": 50
    },
    {
      "midi": 60,
      "hit": false,
      "t": 111700.25599999036,
      "d": 198.85599999997066,
      "v": 115
    },
    {
      "midi": 43,
      "hit": false,
      "t": 111700.25599999036,
      "d": 208.32533333329775,
      "v": 100
    },
    {
      "midi": 55,
      "hit": false,
      "t": 111709.72533332369,
      "d": 9.469333333327086,
      "v": 115
    },
    {
      "midi": 67,
      "hit": false,
      "t": 111709.72533332369,
      "d": 94.69333333331451,
      "v": 70
    },
    {
      "midi": 52,
      "hit": false,
      "t": 111709.72533332369,
      "d": 208.32533333329775,
      "v": 115
    },
    {
      "midi": 64,
      "hit": false,
      "t": 111719.19466665701,
      "d": 94.69333333331451,
      "v": 70
    },
    {
      "midi": 48,
      "hit": false,
      "t": 111719.19466665701,
      "d": 198.85599999997066,
      "v": 115
    },
    {
      "midi": 76,
      "hit": false,
      "t": 111813.88799999033,
      "d": 85.22400000000198,
      "v": 80
    },
    {
      "midi": 24,
      "hit": false,
      "t": 111813.88799999033,
      "d": 94.69333333332906,
      "v": 127
    },
    {
      "midi": 15,
      "hit": false,
      "t": 111813.88799999033,
      "d": 94.69333333332906,
      "v": 100
    },
    {
      "midi": 13,
      "hit": false,
      "t": 111813.88799999033,
      "d": 94.69333333332906,
      "v": 100
    },
    {
      "midi": 10,
      "hit": false,
      "t": 111813.88799999033,
      "d": 94.69333333332906,
      "v": 127
    },
    {
      "midi": 42,
      "hit": false,
      "t": 111813.88799999033,
      "d": 94.69333333332906,
      "v": 92
    },
    {
      "midi": 48,
      "hit": false,
      "t": 111918.05066665699,
      "d": 9.469333333327086,
      "v": 90
    },
    {
      "midi": 43,
      "hit": false,
      "t": 111918.05066665699,
      "d": 94.69333333331451,
      "v": 90
    },
    {
      "midi": 48,
      "hit": false,
      "t": 111927.51999999031,
      "d": 85.22399999998743,
      "v": 95
    },
    {
      "midi": 72,
      "hit": false,
      "t": 111927.51999999031,
      "d": 85.22399999998743,
      "v": 80
    },
    {
      "midi": 52,
      "hit": false,
      "t": 111927.51999999031,
      "d": 94.69333333331451,
      "v": 95
    },
    {
      "midi": 118,
      "hit": false,
      "t": 111927.51999999031,
      "d": 94.69333333331451,
      "v": 50
    },
    {
      "midi": 55,
      "hit": false,
      "t": 111936.98933332364,
      "d": 85.22399999998743,
      "v": 95
    },
    {
      "midi": 60,
      "hit": false,
      "t": 111936.98933332364,
      "d": 85.22399999998743,
      "v": 95
    },
    {
      "midi": 42,
      "hit": false,
      "t": 111936.98933332364,
      "d": 94.69333333331451,
      "v": 78
    },
    {
      "midi": 64,
      "hit": false,
      "t": 111946.45866665697,
      "d": 66.28533333333326,
      "v": 95
    },
    {
      "midi": 64,
      "hit": false,
      "t": 112031.68266665695,
      "d": 9.469333333327086,
      "v": 90
    },
    {
      "midi": 67,
      "hit": false,
      "t": 112041.15199999028,
      "d": 85.22399999998743,
      "v": 80
    },
    {
      "midi": 118,
      "hit": false,
      "t": 112041.15199999028,
      "d": 94.69333333331451,
      "v": 30
    },
    {
      "midi": 60,
      "hit": false,
      "t": 112041.15199999028,
      "d": 198.85599999998522,
      "v": 95
    },
    {
      "midi": 24,
      "hit": false,
      "t": 112041.15199999028,
      "d": 208.3253333333123,
      "v": 127
    },
    {
      "midi": 62,
      "hit": false,
      "t": 112041.15199999028,
      "d": 426.1199999999226,
      "v": 127
    },
    {
      "midi": 55,
      "hit": false,
      "t": 112050.62133332361,
      "d": 198.85599999998522,
      "v": 95
    },
    {
      "midi": 43,
      "hit": false,
      "t": 112050.62133332361,
      "d": 208.3253333333123,
      "v": 90
    },
    {
      "midi": 52,
      "hit": false,
      "t": 112050.62133332361,
      "d": 208.3253333333123,
      "v": 95
    },
    {
      "midi": 46,
      "hit": false,
      "t": 112060.09066665694,
      "d": 94.69333333332906,
      "v": 92
    },
    {
      "midi": 48,
      "hit": false,
      "t": 112060.09066665694,
      "d": 189.38666666665813,
      "v": 95
    },
    {
      "midi": 64,
      "hit": false,
      "t": 112154.78399999026,
      "d": 85.22400000000198,
      "v": 80
    },
    {
      "midi": 63,
      "hit": false,
      "t": 112154.78399999026,
      "d": 94.69333333332906,
      "v": 80
    },
    {
      "midi": 48,
      "hit": false,
      "t": 112258.94666665692,
      "d": 9.469333333327086,
      "v": 105
    },
    {
      "midi": 43,
      "hit": false,
      "t": 112258.94666665692,
      "d": 94.69333333331451,
      "v": 105
    },
    {
      "midi": 48,
      "hit": false,
      "t": 112268.41599999025,
      "d": 85.22399999998743,
      "v": 115
    },
    {
      "midi": 24,
      "hit": false,
      "t": 112268.41599999025,
      "d": 94.69333333331451,
      "v": 127
    },
    {
      "midi": 15,
      "hit": false,
      "t": 112268.41599999025,
      "d": 94.69333333331451,
      "v": 100
    },
    {
      "midi": 13,
      "hit": false,
      "t": 112268.41599999025,
      "d": 94.69333333331451,
      "v": 100
    },
    {
      "midi": 10,
      "hit": false,
      "t": 112268.41599999025,
      "d": 94.69333333331451,
      "v": 127
    },
    {
      "midi": 127,
      "hit": false,
      "t": 112268.41599999025,
      "d": 94.69333333331451,
      "v": 60
    },
    {
      "midi": 108,
      "hit": false,
      "t": 112268.41599999025,
      "d": 94.69333333331451,
      "v": 80
    },
    {
      "midi": 105,
      "hit": false,
      "t": 112268.41599999025,
      "d": 94.69333333331451,
      "v": 100
    },
    {
      "midi": 42,
      "hit": false,
      "t": 112268.41599999025,
      "d": 94.69333333331451,
      "v": 92
    },
    {
      "midi": 52,
      "hit": false,
      "t": 112268.41599999025,
      "d": 94.69333333331451,
      "v": 115
    },
    {
      "midi": 118,
      "hit": false,
      "t": 112268.41599999025,
      "d": 94.69333333331451,
      "v": 50
    },
    {
      "midi": 60,
      "hit": false,
      "t": 112277.88533332357,
      "d": 75.75466666666034,
      "v": 115
    },
    {
      "midi": 55,
      "hit": false,
      "t": 112277.88533332357,
      "d": 85.22399999998743,
      "v": 115
    },
    {
      "midi": 64,
      "hit": false,
      "t": 112287.3546666569,
      "d": 75.75466666666034,
      "v": 115
    },
    {
      "midi": 64,
      "hit": false,
      "t": 112372.57866665689,
      "d": 9.469333333327086,
      "v": 90
    },
    {
      "midi": 64,
      "hit": false,
      "t": 112382.04799999022,
      "d": 85.22399999998743,
      "v": 105
    },
    {
      "midi": 60,
      "hit": false,
      "t": 112382.04799999022,
      "d": 85.22399999998743,
      "v": 105
    },
    {
      "midi": 23,
      "hit": false,
      "t": 112382.04799999022,
      "d": 94.69333333331451,
      "v": 127
    },
    {
      "midi": 55,
      "hit": false,
      "t": 112391.51733332354,
      "d": 85.22399999998743,
      "v": 105
    },
    {
      "midi": 43,
      "hit": false,
      "t": 112391.51733332354,
      "d": 94.69333333331451,
      "v": 90
    },
    {
      "midi": 42,
      "hit": false,
      "t": 112391.51733332354,
      "d": 94.69333333331451,
      "v": 78
    },
    {
      "midi": 52,
      "hit": false,
      "t": 112391.51733332354,
      "d": 94.69333333331451,
      "v": 105
    },
    {
      "midi": 48,
      "hit": false,
      "t": 112400.98666665687,
      "d": 75.75466666666034,
      "v": 105
    },
    {
      "midi": 48,
      "hit": false,
      "t": 112486.21066665686,
      "d": 9.469333333327086,
      "v": 90
    },
    {
      "midi": 43,
      "hit": false,
      "t": 112486.21066665686,
      "d": 94.69333333331451,
      "v": 90
    },
    {
      "midi": 48,
      "hit": false,
      "t": 112495.67999999019,
      "d": 85.22399999998743,
      "v": 95
    },
    {
      "midi": 67,
      "hit": false,
      "t": 112495.67999999019,
      "d": 85.22399999998743,
      "v": 80
    },
    {
      "midi": 19,
      "hit": false,
      "t": 112495.67999999019,
      "d": 94.69333333331451,
      "v": 127
    },
    {
      "midi": 15,
      "hit": false,
      "t": 112495.67999999019,
      "d": 94.69333333331451,
      "v": 100
    },
    {
      "midi": 13,
      "hit": false,
      "t": 112495.67999999019,
      "d": 94.69333333331451,
      "v": 100
    },
    {
      "midi": 10,
      "hit": false,
      "t": 112495.67999999019,
      "d": 94.69333333331451,
      "v": 127
    },
    {
      "midi": 52,
      "hit": false,
      "t": 112495.67999999019,
      "d": 94.69333333331451,
      "v": 95
    },
    {
      "midi": 118,
      "hit": false,
      "t": 112495.67999999019,
      "d": 94.69333333331451,
      "v": 50
    },
    {
      "midi": 55,
      "hit": false,
      "t": 112505.14933332351,
      "d": 85.22399999998743,
      "v": 95
    },
    {
      "midi": 60,
      "hit": false,
      "t": 112505.14933332351,
      "d": 85.22399999998743,
      "v": 95
    },
    {
      "midi": 64,
      "hit": false,
      "t": 112514.61866665684,
      "d": 85.22399999998743,
      "v": 95
    },
    {
      "midi": 46,
      "hit": false,
      "t": 112514.61866665684,
      "d": 94.69333333331451,
      "v": 92
    },
    {
      "midi": 64,
      "hit": false,
      "t": 112599.84266665683,
      "d": 9.469333333327086,
      "v": 80
    },
    {
      "midi": 64,
      "hit": false,
      "t": 112609.31199999015,
      "d": 85.22399999998743,
      "v": 115
    },
    {
      "midi": 60,
      "hit": false,
      "t": 112609.31199999015,
      "d": 85.22399999998743,
      "v": 115
    },
    {
      "midi": 72,
      "hit": false,
      "t": 112609.31199999015,
      "d": 85.22399999998743,
      "v": 80
    },
    {
      "midi": 118,
      "hit": false,
      "t": 112609.31199999015,
      "d": 94.69333333331451,
      "v": 30
    },
    {
      "midi": 55,
      "hit": false,
      "t": 112618.78133332348,
      "d": 85.22399999998743,
      "v": 115
    },
    {
      "midi": 43,
      "hit": false,
      "t": 112618.78133332348,
      "d": 94.69333333331451,
      "v": 80
    },
    {
      "midi": 52,
      "hit": false,
      "t": 112618.78133332348,
      "d": 94.69333333331451,
      "v": 115
    },
    {
      "midi": 48,
      "hit": false,
      "t": 112628.25066665681,
      "d": 75.75466666666034,
      "v": 115
    },
    {
      "midi": 60,
      "hit": false,
      "t": 112722.94399999012,
      "d": 18.93866666665417,
      "v": 115
    },
    {
      "midi": 29,
      "hit": false,
      "t": 112722.94399999012,
      "d": 94.69333333329996,
      "v": 127
    },
    {
      "midi": 15,
      "hit": false,
      "t": 112722.94399999012,
      "d": 94.69333333329996,
      "v": 100
    },
    {
      "midi": 13,
      "hit": false,
      "t": 112722.94399999012,
      "d": 94.69333333329996,
      "v": 100
    },
    {
      "midi": 10,
      "hit": false,
      "t": 112722.94399999012,
      "d": 94.69333333329996,
      "v": 127
    },
    {
      "midi": 42,
      "hit": false,
      "t": 112722.94399999012,
      "d": 94.69333333329996,
      "v": 92
    },
    {
      "midi": 72,
      "hit": false,
      "t": 112722.94399999012,
      "d": 94.69333333329996,
      "v": 70
    },
    {
      "midi": 57,
      "hit": false,
      "t": 112732.41333332345,
      "d": 18.93866666665417,
      "v": 115
    },
    {
      "midi": 53,
      "hit": false,
      "t": 112732.41333332345,
      "d": 28.407999999981257,
      "v": 90
    },
    {
      "midi": 69,
      "hit": false,
      "t": 112732.41333332345,
      "d": 75.75466666664579,
      "v": 70
    },
    {
      "midi": 52,
      "hit": false,
      "t": 112732.41333332345,
      "d": 416.65066666649363,
      "v": 115
    },
    {
      "midi": 65,
      "hit": false,
      "t": 112741.88266665678,
      "d": 94.69333333329996,
      "v": 70
    },
    {
      "midi": 48,
      "hit": false,
      "t": 112741.88266665678,
      "d": 416.65066666649363,
      "v": 115
    },
    {
      "midi": 41,
      "hit": false,
      "t": 112741.88266665678,
      "d": 416.65066666649363,
      "v": 115
    },
    {
      "midi": 53,
      "hit": false,
      "t": 112827.10666665675,
      "d": 28.407999999981257,
      "v": 90
    },
    {
      "midi": 57,
      "hit": false,
      "t": 112836.57599999008,
      "d": 28.407999999981257,
      "v": 90
    },
    {
      "midi": 74,
      "hit": false,
      "t": 112836.57599999008,
      "d": 85.22399999997288,
      "v": 80
    },
    {
      "midi": 29,
      "hit": false,
      "t": 112836.57599999008,
      "d": 94.69333333329996,
      "v": 127
    },
    {
      "midi": 65,
      "hit": false,
      "t": 112836.57599999008,
      "d": 94.69333333329996,
      "v": 70
    },
    {
      "midi": 60,
      "hit": false,
      "t": 112846.0453333234,
      "d": 28.407999999981257,
      "v": 90
    },
    {
      "midi": 42,
      "hit": false,
      "t": 112846.0453333234,
      "d": 94.69333333329996,
      "v": 78
    },
    {
      "midi": 69,
      "hit": false,
      "t": 112846.0453333234,
      "d": 94.69333333329996,
      "v": 70
    },
    {
      "midi": 72,
      "hit": false,
      "t": 112855.51466665673,
      "d": 94.69333333329996,
      "v": 70
    },
    {
      "midi": 60,
      "hit": false,
      "t": 112940.7386666567,
      "d": 28.407999999981257,
      "v": 60
    },
    {
      "midi": 57,
      "hit": false,
      "t": 112950.20799999003,
      "d": 28.407999999981257,
      "v": 60
    },
    {
      "midi": 72,
      "hit": false,
      "t": 112950.20799999003,
      "d": 47.34666666663543,
      "v": 70
    },
    {
      "midi": 77,
      "hit": false,
      "t": 112950.20799999003,
      "d": 85.22399999995832,
      "v": 80
    },
    {
      "midi": 29,
      "hit": false,
      "t": 112950.20799999003,
      "d": 94.69333333328541,
      "v": 127
    },
    {
      "midi": 53,
      "hit": false,
      "t": 112959.67733332336,
      "d": 28.407999999981257,
      "v": 60
    },
    {
      "midi": 69,
      "hit": false,
      "t": 112959.67733332336,
      "d": 47.34666666663543,
      "v": 70
    },
    {
      "midi": 65,
      "hit": false,
      "t": 112969.14666665668,
      "d": 47.34666666663543,
      "v": 70
    },
    {
      "midi": 46,
      "hit": false,
      "t": 112969.14666665668,
      "d": 94.69333333328541,
      "v": 92
    },
    {
      "midi": 53,
      "hit": false,
      "t": 113054.37066665664,
      "d": 28.407999999981257,
      "v": 90
    },
    {
      "midi": 57,
      "hit": false,
      "t": 113063.83999998997,
      "d": 28.407999999981257,
      "v": 90
    },
    {
      "midi": 65,
      "hit": false,
      "t": 113063.83999998997,
      "d": 75.75466666664579,
      "v": 70
    },
    {
      "midi": 81,
      "hit": false,
      "t": 113063.83999998997,
      "d": 85.22399999997288,
      "v": 80
    },
    {
      "midi": 29,
      "hit": false,
      "t": 113063.83999998997,
      "d": 94.69333333329996,
      "v": 127
    },
    {
      "midi": 64,
      "hit": false,
      "t": 113063.83999998997,
      "d": 94.69333333329996,
      "v": 70
    },
    {
      "midi": 60,
      "hit": false,
      "t": 113073.3093333233,
      "d": 28.407999999981257,
      "v": 90
    },
    {
      "midi": 69,
      "hit": false,
      "t": 113073.3093333233,
      "d": 94.69333333329996,
      "v": 70
    },
    {
      "midi": 72,
      "hit": false,
      "t": 113082.77866665662,
      "d": 94.69333333329996,
      "v": 70
    },
    {
      "midi": 60,
      "hit": false,
      "t": 113177.47199998992,
      "d": 18.93866666665417,
      "v": 115
    },
    {
      "midi": 86,
      "hit": false,
      "t": 113177.47199998992,
      "d": 85.22399999997288,
      "v": 80
    },
    {
      "midi": 29,
      "hit": false,
      "t": 113177.47199998992,
      "d": 94.69333333329996,
      "v": 127
    },
    {
      "midi": 15,
      "hit": false,
      "t": 113177.47199998992,
      "d": 94.69333333329996,
      "v": 100
    },
    {
      "midi": 13,
      "hit": false,
      "t": 113177.47199998992,
      "d": 94.69333333329996,
      "v": 100
    },
    {
      "midi": 10,
      "hit": false,
      "t": 113177.47199998992,
      "d": 94.69333333329996,
      "v": 127
    },
    {
      "midi": 127,
      "hit": false,
      "t": 113177.47199998992,
      "d": 94.69333333329996,
      "v": 60
    },
    {
      "midi": 108,
      "hit": false,
      "t": 113177.47199998992,
      "d": 94.69333333329996,
      "v": 80
    },
    {
      "midi": 105,
      "hit": false,
      "t": 113177.47199998992,
      "d": 94.69333333329996,
      "v": 100
    },
    {
      "midi": 42,
      "hit": false,
      "t": 113177.47199998992,
      "d": 94.69333333329996,
      "v": 92
    },
    {
      "midi": 72,
      "hit": false,
      "t": 113177.47199998992,
      "d": 94.69333333329996,
      "v": 70
    },
    {
      "midi": 118,
      "hit": false,
      "t": 113177.47199998992,
      "d": 94.69333333329996,
      "v": 50
    },
    {
      "midi": 63,
      "hit": false,
      "t": 113177.47199998992,
      "d": 94.69333333329996,
      "v": 70
    },
    {
      "midi": 57,
      "hit": false,
      "t": 113186.94133332325,
      "d": 18.93866666665417,
      "v": 115
    },
    {
      "midi": 53,
      "hit": false,
      "t": 113186.94133332325,
      "d": 28.407999999981257,
      "v": 90
    },
    {
      "midi": 69,
      "hit": false,
      "t": 113186.94133332325,
      "d": 94.69333333329996,
      "v": 70
    },
    {
      "midi": 52,
      "hit": false,
      "t": 113186.94133332325,
      "d": 198.85599999994156,
      "v": 115
    },
    {
      "midi": 65,
      "hit": false,
      "t": 113196.41066665658,
      "d": 94.69333333329996,
      "v": 70
    },
    {
      "midi": 48,
      "hit": false,
      "t": 113196.41066665658,
      "d": 198.85599999994156,
      "v": 115
    },
    {
      "midi": 41,
      "hit": false,
      "t": 113196.41066665658,
      "d": 198.85599999994156,
      "v": 115
    },
    {
      "midi": 89,
      "hit": false,
      "t": 113291.10399998988,
      "d": 85.22399999998743,
      "v": 80
    },
    {
      "midi": 42,
      "hit": false,
      "t": 113300.5733333232,
      "d": 94.69333333331451,
      "v": 78
    },
    {
      "midi": 48,
      "hit": false,
      "t": 113395.26666665652,
      "d": 9.469333333327086,
      "v": 70
    },
    {
      "midi": 41,
      "hit": false,
      "t": 113395.26666665652,
      "d": 9.469333333327086,
      "v": 70
    },
    {
      "midi": 53,
      "hit": false,
      "t": 113395.26666665652,
      "d": 28.407999999981257,
      "v": 90
    },
    {
      "midi": 41,
      "hit": false,
      "t": 113404.73599998985,
      "d": 85.22399999997288,
      "v": 95
    },
    {
      "midi": 48,
      "hit": false,
      "t": 113404.73599998985,
      "d": 85.22399999997288,
      "v": 95
    },
    {
      "midi": 93,
      "hit": false,
      "t": 113404.73599998985,
      "d": 85.22399999997288,
      "v": 80
    },
    {
      "midi": 29,
      "hit": false,
      "t": 113404.73599998985,
      "d": 94.69333333329996,
      "v": 127
    },
    {
      "midi": 57,
      "hit": false,
      "t": 113414.20533332317,
      "d": 18.93866666665417,
      "v": 95
    },
    {
      "midi": 52,
      "hit": false,
      "t": 113414.20533332317,
      "d": 85.22399999997288,
      "v": 95
    },
    {
      "midi": 69,
      "hit": false,
      "t": 113414.20533332317,
      "d": 94.69333333329996,
      "v": 70
    },
    {
      "midi": 60,
      "hit": false,
      "t": 113423.6746666565,
      "d": 18.93866666665417,
      "v": 95
    },
    {
      "midi": 65,
      "hit": false,
      "t": 113423.6746666565,
      "d": 75.75466666664579,
      "v": 95
    },
    {
      "midi": 46,
      "hit": false,
      "t": 113423.6746666565,
      "d": 94.69333333329996,
      "v": 92
    },
    {
      "midi": 72,
      "hit": false,
      "t": 113423.6746666565,
      "d": 94.69333333329996,
      "v": 70
    },
    {
      "midi": 60,
      "hit": false,
      "t": 113508.89866665647,
      "d": 9.469333333327086,
      "v": 90
    },
    {
      "midi": 65,
      "hit": false,
      "t": 113508.89866665647,
      "d": 9.469333333327086,
      "v": 95
    },
    {
      "midi": 60,
      "hit": false,
      "t": 113518.3679999898,
      "d": 18.93866666665417,
      "v": 115
    },
    {
      "midi": 89,
      "hit": false,
      "t": 113518.3679999898,
      "d": 85.22399999997288,
      "v": 80
    },
    {
      "midi": 29,
      "hit": false,
      "t": 113518.3679999898,
      "d": 94.69333333329996,
      "v": 127
    },
    {
      "midi": 72,
      "hit": false,
      "t": 113518.3679999898,
      "d": 94.69333333329996,
      "v": 70
    },
    {
      "midi": 118,
      "hit": false,
      "t": 113518.3679999898,
      "d": 94.69333333329996,
      "v": 50
    },
    {
      "midi": 57,
      "hit": false,
      "t": 113527.83733332313,
      "d": 18.93866666665417,
      "v": 115
    },
    {
      "midi": 53,
      "hit": false,
      "t": 113527.83733332313,
      "d": 28.407999999981257,
      "v": 90
    },
    {
      "midi": 52,
      "hit": false,
      "t": 113527.83733332313,
      "d": 85.22399999997288,
      "v": 115
    },
    {
      "midi": 69,
      "hit": false,
      "t": 113527.83733332313,
      "d": 94.69333333329996,
      "v": 70
    },
    {
      "midi": 65,
      "hit": false,
      "t": 113537.30666665646,
      "d": 66.2853333333187,
      "v": 70
    },
    {
      "midi": 48,
      "hit": false,
      "t": 113537.30666665646,
      "d": 85.22399999997288,
      "v": 115
    },
    {
      "midi": 41,
      "hit": false,
      "t": 113537.30666665646,
      "d": 85.22399999997288,
      "v": 115
    },
    {
      "midi": 41,
      "hit": false,
      "t": 113622.53066665643,
      "d": 94.69333333331451,
      "v": 80
    },
    {
      "midi": 48,
      "hit": false,
      "t": 113622.53066665643,
      "d": 94.69333333331451,
      "v": 80
    },
    {
      "midi": 86,
      "hit": false,
      "t": 113631.99999998976,
      "d": 85.22399999998743,
      "v": 80
    },
    {
      "midi": 29,
      "hit": false,
      "t": 113631.99999998976,
      "d": 94.69333333331451,
      "v": 127
    },
    {
      "midi": 52,
      "hit": false,
      "t": 113631.99999998976,
      "d": 94.69333333331451,
      "v": 80
    },
    {
      "midi": 57,
      "hit": false,
      "t": 113631.99999998976,
      "d": 94.69333333331451,
      "v": 80
    },
    {
      "midi": 15,
      "hit": false,
      "t": 113631.99999998976,
      "d": 94.69333333331451,
      "v": 100
    },
    {
      "midi": 13,
      "hit": false,
      "t": 113631.99999998976,
      "d": 94.69333333331451,
      "v": 100
    },
    {
      "midi": 10,
      "hit": false,
      "t": 113631.99999998976,
      "d": 94.69333333331451,
      "v": 127
    },
    {
      "midi": 42,
      "hit": false,
      "t": 113631.99999998976,
      "d": 94.69333333331451,
      "v": 92
    },
    {
      "midi": 65,
      "hit": false,
      "t": 113641.46933332308,
      "d": 85.22399999998743,
      "v": 80
    },
    {
      "midi": 60,
      "hit": false,
      "t": 113641.46933332308,
      "d": 85.22399999998743,
      "v": 80
    },
    {
      "midi": 81,
      "hit": false,
      "t": 113745.63199998972,
      "d": 85.22399999998743,
      "v": 80
    },
    {
      "midi": 118,
      "hit": false,
      "t": 113745.63199998972,
      "d": 94.69333333331451,
      "v": 50
    },
    {
      "midi": 57,
      "hit": false,
      "t": 113755.10133332305,
      "d": 85.22399999998743,
      "v": 95
    },
    {
      "midi": 52,
      "hit": false,
      "t": 113755.10133332305,
      "d": 85.22399999998743,
      "v": 95
    },
    {
      "midi": 41,
      "hit": false,
      "t": 113755.10133332305,
      "d": 85.22399999998743,
      "v": 90
    },
    {
      "midi": 48,
      "hit": false,
      "t": 113755.10133332305,
      "d": 85.22399999998743,
      "v": 90
    },
    {
      "midi": 42,
      "hit": false,
      "t": 113755.10133332305,
      "d": 94.69333333331451,
      "v": 78
    },
    {
      "midi": 65,
      "hit": false,
      "t": 113764.57066665638,
      "d": 66.28533333333326,
      "v": 95
    },
    {
      "midi": 60,
      "hit": false,
      "t": 113764.57066665638,
      "d": 66.28533333333326,
      "v": 95
    },
    {
      "midi": 77,
      "hit": false,
      "t": 113859.2639999897,
      "d": 85.22399999998743,
      "v": 80
    },
    {
      "midi": 118,
      "hit": false,
      "t": 113859.2639999897,
      "d": 94.69333333331451,
      "v": 30
    },
    {
      "midi": 29,
      "hit": false,
      "t": 113859.2639999897,
      "d": 208.3253333332832,
      "v": 127
    },
    {
      "midi": 52,
      "hit": false,
      "t": 113868.73333332302,
      "d": 85.22399999998743,
      "v": 95
    },
    {
      "midi": 57,
      "hit": false,
      "t": 113868.73333332302,
      "d": 85.22399999998743,
      "v": 95
    },
    {
      "midi": 65,
      "hit": false,
      "t": 113868.73333332302,
      "d": 85.22399999998743,
      "v": 100
    },
    {
      "midi": 60,
      "hit": false,
      "t": 113868.73333332302,
      "d": 85.22399999998743,
      "v": 100
    },
    {
      "midi": 41,
      "hit": false,
      "t": 113878.20266665635,
      "d": 66.28533333333326,
      "v": 95
    },
    {
      "midi": 48,
      "hit": false,
      "t": 113878.20266665635,
      "d": 66.28533333333326,
      "v": 95
    },
    {
      "midi": 46,
      "hit": false,
      "t": 113878.20266665635,
      "d": 94.69333333331451,
      "v": 92
    },
    {
      "midi": 74,
      "hit": false,
      "t": 113972.89599998966,
      "d": 85.22399999998743,
      "v": 80
    },
    {
      "midi": 63,
      "hit": false,
      "t": 113972.89599998966,
      "d": 94.69333333331451,
      "v": 80
    },
    {
      "midi": 57,
      "hit": false,
      "t": 113982.36533332299,
      "d": 85.22399999998743,
      "v": 95
    },
    {
      "midi": 52,
      "hit": false,
      "t": 113982.36533332299,
      "d": 85.22399999998743,
      "v": 95
    },
    {
      "midi": 41,
      "hit": false,
      "t": 113982.36533332299,
      "d": 85.22399999998743,
      "v": 80
    },
    {
      "midi": 48,
      "hit": false,
      "t": 113982.36533332299,
      "d": 85.22399999998743,
      "v": 80
    },
    {
      "midi": 65,
      "hit": false,
      "t": 113991.83466665632,
      "d": 66.28533333333326,
      "v": 95
    },
    {
      "midi": 60,
      "hit": false,
      "t": 113991.83466665632,
      "d": 66.28533333333326,
      "v": 95
    },
    {
      "midi": 69,
      "hit": false,
      "t": 114086.52799998963,
      "d": 85.22399999998743,
      "v": 80
    },
    {
      "midi": 29,
      "hit": false,
      "t": 114086.52799998963,
      "d": 94.69333333331451,
      "v": 127
    },
    {
      "midi": 15,
      "hit": false,
      "t": 114086.52799998963,
      "d": 94.69333333331451,
      "v": 100
    },
    {
      "midi": 13,
      "hit": false,
      "t": 114086.52799998963,
      "d": 94.69333333331451,
      "v": 100
    },
    {
      "midi": 10,
      "hit": false,
      "t": 114086.52799998963,
      "d": 94.69333333331451,
      "v": 127
    },
    {
      "midi": 127,
      "hit": false,
      "t": 114086.52799998963,
      "d": 94.69333333331451,
      "v": 60
    },
    {
      "midi": 108,
      "hit": false,
      "t": 114086.52799998963,
      "d": 94.69333333331451,
      "v": 80
    },
    {
      "midi": 105,
      "hit": false,
      "t": 114086.52799998963,
      "d": 94.69333333331451,
      "v": 100
    },
    {
      "midi": 42,
      "hit": false,
      "t": 114086.52799998963,
      "d": 94.69333333331451,
      "v": 92
    },
    {
      "midi": 118,
      "hit": false,
      "t": 114086.52799998963,
      "d": 94.69333333331451,
      "v": 50
    },
    {
      "midi": 64,
      "hit": false,
      "t": 114086.52799998963,
      "d": 94.69333333331451,
      "v": 70
    },
    {
      "midi": 59,
      "hit": false,
      "t": 114086.52799998963,
      "d": 208.32533333329775,
      "v": 127
    },
    {
      "midi": 52,
      "hit": false,
      "t": 114095.99733332296,
      "d": 198.85599999997066,
      "v": 115
    },
    {
      "midi": 57,
      "hit": false,
      "t": 114095.99733332296,
      "d": 198.85599999997066,
      "v": 115
    },
    {
      "midi": 60,
      "hit": false,
      "t": 114095.99733332296,
      "d": 198.85599999997066,
      "v": 100
    },
    {
      "midi": 41,
      "hit": false,
      "t": 114105.46666665628,
      "d": 179.9173333333165,
      "v": 115
    },
    {
      "midi": 48,
      "hit": false,
      "t": 114105.46666665628,
      "d": 179.9173333333165,
      "v": 115
    },
    {
      "midi": 65,
      "hit": false,
      "t": 114200.15999998961,
      "d": 85.22399999998743,
      "v": 80
    },
    {
      "midi": 29,
      "hit": false,
      "t": 114200.15999998961,
      "d": 94.69333333331451,
      "v": 127
    },
    {
      "midi": 42,
      "hit": false,
      "t": 114209.62933332294,
      "d": 94.69333333331451,
      "v": 78
    },
    {
      "midi": 69,
      "hit": false,
      "t": 114313.79199998958,
      "d": 85.22399999998743,
      "v": 80
    },
    {
      "midi": 29,
      "hit": false,
      "t": 114313.79199998958,
      "d": 94.69333333331451,
      "v": 127
    },
    {
      "midi": 118,
      "hit": false,
      "t": 114313.79199998958,
      "d": 94.69333333331451,
      "v": 50
    },
    {
      "midi": 57,
      "hit": false,
      "t": 114323.26133332291,
      "d": 85.22399999998743,
      "v": 95
    },
    {
      "midi": 52,
      "hit": false,
      "t": 114323.26133332291,
      "d": 85.22399999998743,
      "v": 95
    },
    {
      "midi": 41,
      "hit": false,
      "t": 114323.26133332291,
      "d": 85.22399999998743,
      "v": 80
    },
    {
      "midi": 48,
      "hit": false,
      "t": 114323.26133332291,
      "d": 85.22399999998743,
      "v": 80
    },
    {
      "midi": 65,
      "hit": false,
      "t": 114332.73066665624,
      "d": 66.28533333333326,
      "v": 95
    },
    {
      "midi": 60,
      "hit": false,
      "t": 114332.73066665624,
      "d": 66.28533333333326,
      "v": 95
    },
    {
      "midi": 46,
      "hit": false,
      "t": 114332.73066665624,
      "d": 94.69333333331451,
      "v": 92
    },
    {
      "midi": 74,
      "hit": false,
      "t": 114427.42399998955,
      "d": 85.22399999998743,
      "v": 80
    },
    {
      "midi": 118,
      "hit": false,
      "t": 114427.42399998955,
      "d": 94.69333333331451,
      "v": 30
    },
    {
      "midi": 60,
      "hit": false,
      "t": 114436.89333332288,
      "d": 85.22399999998743,
      "v": 90
    },
    {
      "midi": 52,
      "hit": false,
      "t": 114436.89333332288,
      "d": 85.22399999998743,
      "v": 95
    },
    {
      "midi": 57,
      "hit": false,
      "t": 114436.89333332288,
      "d": 85.22399999998743,
      "v": 95
    },
    {
      "midi": 65,
      "hit": false,
      "t": 114436.89333332288,
      "d": 85.22399999998743,
      "v": 90
    },
    {
      "midi": 41,
      "hit": false,
      "t": 114446.3626666562,
      "d": 66.28533333333326,
      "v": 95
    },
    {
      "midi": 48,
      "hit": false,
      "t": 114446.3626666562,
      "d": 66.28533333333326,
      "v": 95
    },
    {
      "midi": 74,
      "hit": false,
      "t": 114541.05599998952,
      "d": 18.93866666665417,
      "v": 70
    },
    {
      "midi": 26,
      "hit": false,
      "t": 114541.05599998952,
      "d": 94.69333333329996,
      "v": 127
    },
    {
      "midi": 15,
      "hit": false,
      "t": 114541.05599998952,
      "d": 94.69333333329996,
      "v": 100
    },
    {
      "midi": 13,
      "hit": false,
      "t": 114541.05599998952,
      "d": 94.69333333329996,
      "v": 100
    },
    {
      "midi": 10,
      "hit": false,
      "t": 114541.05599998952,
      "d": 94.69333333329996,
      "v": 127
    },
    {
      "midi": 42,
      "hit": false,
      "t": 114541.05599998952,
      "d": 94.69333333329996,
      "v": 92
    },
    {
      "midi": 57,
      "hit": false,
      "t": 114541.05599998952,
      "d": 303.01866666655405,
      "v": 115
    },
    {
      "midi": 62,
      "hit": false,
      "t": 114541.05599998952,
      "d": 416.6506666665082,
      "v": 115
    },
    {
      "midi": 69,
      "hit": false,
      "t": 114550.52533332285,
      "d": 18.93866666665417,
      "v": 70
    },
    {
      "midi": 53,
      "hit": false,
      "t": 114550.52533332285,
      "d": 416.6506666665082,
      "v": 115
    },
    {
      "midi": 45,
      "hit": false,
      "t": 114550.52533332285,
      "d": 416.6506666665082,
      "v": 115
    },
    {
      "midi": 65,
      "hit": false,
      "t": 114559.99466665617,
      "d": 18.93866666665417,
      "v": 70
    },
    {
      "midi": 38,
      "hit": false,
      "t": 114559.99466665617,
      "d": 416.6506666665082,
      "v": 115
    },
    {
      "midi": 65,
      "hit": false,
      "t": 114645.21866665615,
      "d": 9.469333333327086,
      "v": 70
    },
    {
      "midi": 65,
      "hit": false,
      "t": 114654.68799998947,
      "d": 18.93866666665417,
      "v": 70
    },
    {
      "midi": 26,
      "hit": false,
      "t": 114654.68799998947,
      "d": 94.69333333329996,
      "v": 127
    },
    {
      "midi": 69,
      "hit": false,
      "t": 114664.1573333228,
      "d": 18.93866666665417,
      "v": 70
    },
    {
      "midi": 42,
      "hit": false,
      "t": 114664.1573333228,
      "d": 94.69333333329996,
      "v": 78
    },
    {
      "midi": 74,
      "hit": false,
      "t": 114673.62666665613,
      "d": 18.93866666665417,
      "v": 70
    },
    {
      "midi": 74,
      "hit": false,
      "t": 114758.8506666561,
      "d": 9.469333333327086,
      "v": 30
    },
    {
      "midi": 74,
      "hit": false,
      "t": 114768.31999998943,
      "d": 9.469333333327086,
      "v": 60
    },
    {
      "midi": 69,
      "hit": false,
      "t": 114768.31999998943,
      "d": 9.469333333327086,
      "v": 60
    },
    {
      "midi": 65,
      "hit": false,
      "t": 114768.31999998943,
      "d": 9.469333333327086,
      "v": 60
    },
    {
      "midi": 77,
      "hit": false,
      "t": 114768.31999998943,
      "d": 85.22399999997288,
      "v": 80
    },
    {
      "midi": 26,
      "hit": false,
      "t": 114768.31999998943,
      "d": 94.69333333329996,
      "v": 127
    },
    {
      "midi": 65,
      "hit": false,
      "t": 114777.78933332275,
      "d": 28.407999999981257,
      "v": 30
    },
    {
      "midi": 46,
      "hit": false,
      "t": 114787.25866665608,
      "d": 94.69333333329996,
      "v": 92
    },
    {
      "midi": 65,
      "hit": false,
      "t": 114881.95199998938,
      "d": 18.93866666665417,
      "v": 70
    },
    {
      "midi": 81,
      "hit": false,
      "t": 114881.95199998938,
      "d": 85.22399999997288,
      "v": 80
    },
    {
      "midi": 26,
      "hit": false,
      "t": 114881.95199998938,
      "d": 94.69333333329996,
      "v": 127
    },
    {
      "midi": 64,
      "hit": false,
      "t": 114881.95199998938,
      "d": 94.69333333329996,
      "v": 70
    },
    {
      "midi": 69,
      "hit": false,
      "t": 114891.42133332271,
      "d": 18.93866666665417,
      "v": 70
    },
    {
      "midi": 74,
      "hit": false,
      "t": 114900.89066665604,
      "d": 18.93866666665417,
      "v": 70
    },
    {
      "midi": 74,
      "hit": false,
      "t": 114986.11466665601,
      "d": 9.469333333327086,
      "v": 70
    },
    {
      "midi": 74,
      "hit": false,
      "t": 114995.58399998934,
      "d": 18.93866666665417,
      "v": 70
    },
    {
      "midi": 86,
      "hit": false,
      "t": 114995.58399998934,
      "d": 85.22399999997288,
      "v": 80
    },
    {
      "midi": 26,
      "hit": false,
      "t": 114995.58399998934,
      "d": 94.69333333329996,
      "v": 127
    },
    {
      "midi": 15,
      "hit": false,
      "t": 114995.58399998934,
      "d": 94.69333333329996,
      "v": 100
    },
    {
      "midi": 13,
      "hit": false,
      "t": 114995.58399998934,
      "d": 94.69333333329996,
      "v": 100
    },
    {
      "midi": 10,
      "hit": false,
      "t": 114995.58399998934,
      "d": 94.69333333329996,
      "v": 127
    },
    {
      "midi": 127,
      "hit": false,
      "t": 114995.58399998934,
      "d": 94.69333333329996,
      "v": 60
    },
    {
      "midi": 108,
      "hit": false,
      "t": 114995.58399998934,
      "d": 94.69333333329996,
      "v": 80
    },
    {
      "midi": 105,
      "hit": false,
      "t": 114995.58399998934,
      "d": 94.69333333329996,
      "v": 100
    },
    {
      "midi": 42,
      "hit": false,
      "t": 114995.58399998934,
      "d": 94.69333333329996,
      "v": 92
    },
    {
      "midi": 118,
      "hit": false,
      "t": 114995.58399998934,
      "d": 94.69333333329996,
      "v": 50
    },
    {
      "midi": 63,
      "hit": false,
      "t": 114995.58399998934,
      "d": 94.69333333329996,
      "v": 70
    },
    {
      "midi": 62,
      "hit": false,
      "t": 114995.58399998934,
      "d": 312.4879999998957,
      "v": 95
    },
    {
      "midi": 57,
      "hit": false,
      "t": 114995.58399998934,
      "d": 312.4879999998957,
      "v": 95
    },
    {
      "midi": 69,
      "hit": false,
      "t": 115005.05333332266,
      "d": 18.93866666665417,
      "v": 70
    },
    {
      "midi": 53,
      "hit": false,
      "t": 115005.05333332266,
      "d": 312.4879999998957,
      "v": 95
    },
    {
      "midi": 45,
      "hit": false,
      "t": 115005.05333332266,
      "d": 312.4879999998957,
      "v": 95
    },
    {
      "midi": 65,
      "hit": false,
      "t": 115014.52266665599,
      "d": 18.93866666665417,
      "v": 70
    },
    {
      "midi": 38,
      "hit": false,
      "t": 115014.52266665599,
      "d": 312.4879999998957,
      "v": 95
    },
    {
      "midi": 65,
      "hit": false,
      "t": 115099.74666665596,
      "d": 9.469333333327086,
      "v": 30
    },
    {
      "midi": 65,
      "hit": false,
      "t": 115109.21599998929,
      "d": 9.469333333327086,
      "v": 60
    },
    {
      "midi": 69,
      "hit": false,
      "t": 115109.21599998929,
      "d": 9.469333333327086,
      "v": 60
    },
    {
      "midi": 74,
      "hit": false,
      "t": 115109.21599998929,
      "d": 9.469333333327086,
      "v": 60
    },
    {
      "midi": 89,
      "hit": false,
      "t": 115109.21599998929,
      "d": 85.22399999997288,
      "v": 80
    },
    {
      "midi": 74,
      "hit": false,
      "t": 115118.68533332262,
      "d": 28.407999999981257,
      "v": 30
    },
    {
      "midi": 42,
      "hit": false,
      "t": 115118.68533332262,
      "d": 94.69333333331451,
      "v": 78
    },
    {
      "midi": 74,
      "hit": false,
      "t": 115222.84799998926,
      "d": 18.93866666665417,
      "v": 70
    },
    {
      "midi": 86,
      "hit": false,
      "t": 115222.84799998926,
      "d": 85.22399999997288,
      "v": 80
    },
    {
      "midi": 26,
      "hit": false,
      "t": 115222.84799998926,
      "d": 151.50933333326248,
      "v": 127
    },
    {
      "midi": 69,
      "hit": false,
      "t": 115232.31733332259,
      "d": 18.93866666665417,
      "v": 70
    },
    {
      "midi": 65,
      "hit": false,
      "t": 115241.78666665591,
      "d": 18.93866666665417,
      "v": 70
    },
    {
      "midi": 46,
      "hit": false,
      "t": 115241.78666665591,
      "d": 94.69333333329996,
      "v": 92
    },
    {
      "midi": 38,
      "hit": false,
      "t": 115327.01066665589,
      "d": 9.469333333327086,
      "v": 100
    },
    {
      "midi": 65,
      "hit": false,
      "t": 115327.01066665589,
      "d": 9.469333333327086,
      "v": 70
    },
    {
      "midi": 65,
      "hit": false,
      "t": 115336.47999998921,
      "d": 18.93866666665417,
      "v": 70
    },
    {
      "midi": 38,
      "hit": false,
      "t": 115336.47999998921,
      "d": 85.22399999997288,
      "v": 115
    },
    {
      "midi": 45,
      "hit": false,
      "t": 115336.47999998921,
      "d": 85.22399999997288,
      "v": 115
    },
    {
      "midi": 81,
      "hit": false,
      "t": 115336.47999998921,
      "d": 85.22399999997288,
      "v": 80
    },
    {
      "midi": 118,
      "hit": false,
      "t": 115336.47999998921,
      "d": 94.69333333329996,
      "v": 50
    },
    {
      "midi": 69,
      "hit": false,
      "t": 115345.94933332254,
      "d": 18.93866666665417,
      "v": 70
    },
    {
      "midi": 53,
      "hit": false,
      "t": 115345.94933332254,
      "d": 85.22399999997288,
      "v": 115
    },
    {
      "midi": 57,
      "hit": false,
      "t": 115345.94933332254,
      "d": 85.22399999997288,
      "v": 115
    },
    {
      "midi": 74,
      "hit": false,
      "t": 115355.41866665587,
      "d": 18.93866666665417,
      "v": 70
    },
    {
      "midi": 62,
      "hit": false,
      "t": 115355.41866665587,
      "d": 85.22399999997288,
      "v": 115
    },
    {
      "midi": 62,
      "hit": false,
      "t": 115440.64266665584,
      "d": 9.469333333327086,
      "v": 100
    },
    {
      "midi": 62,
      "hit": false,
      "t": 115450.11199998917,
      "d": 9.469333333327086,
      "v": 115
    },
    {
      "midi": 57,
      "hit": false,
      "t": 115450.11199998917,
      "d": 9.469333333327086,
      "v": 115
    },
    {
      "midi": 74,
      "hit": false,
      "t": 115450.11199998917,
      "d": 9.469333333327086,
      "v": 60
    },
    {
      "midi": 69,
      "hit": false,
      "t": 115450.11199998917,
      "d": 9.469333333327086,
      "v": 60
    },
    {
      "midi": 65,
      "hit": false,
      "t": 115450.11199998917,
      "d": 9.469333333327086,
      "v": 60
    },
    {
      "midi": 77,
      "hit": false,
      "t": 115450.11199998917,
      "d": 85.22399999998743,
      "v": 80
    },
    {
      "midi": 26,
      "hit": false,
      "t": 115450.11199998917,
      "d": 94.69333333331451,
      "v": 127
    },
    {
      "midi": 15,
      "hit": false,
      "t": 115450.11199998917,
      "d": 94.69333333331451,
      "v": 100
    },
    {
      "midi": 13,
      "hit": false,
      "t": 115450.11199998917,
      "d": 94.69333333331451,
      "v": 100
    },
    {
      "midi": 10,
      "hit": false,
      "t": 115450.11199998917,
      "d": 94.69333333331451,
      "v": 127
    },
    {
      "midi": 42,
      "hit": false,
      "t": 115450.11199998917,
      "d": 94.69333333331451,
      "v": 92
    },
    {
      "midi": 53,
      "hit": false,
      "t": 115459.5813333225,
      "d": 9.469333333327086,
      "v": 115
    },
    {
      "midi": 45,
      "hit": false,
      "t": 115459.5813333225,
      "d": 9.469333333327086,
      "v": 115
    },
    {
      "midi": 38,
      "hit": false,
      "t": 115469.05066665582,
      "d": 9.469333333327086,
      "v": 115
    },
    {
      "midi": 38,
      "hit": false,
      "t": 115554.27466665581,
      "d": 18.93866666665417,
      "v": 100
    },
    {
      "midi": 45,
      "hit": false,
      "t": 115554.27466665581,
      "d": 18.93866666665417,
      "v": 100
    },
    {
      "midi": 53,
      "hit": false,
      "t": 115563.74399998914,
      "d": 18.93866666665417,
      "v": 100
    },
    {
      "midi": 57,
      "hit": false,
      "t": 115563.74399998914,
      "d": 18.93866666665417,
      "v": 100
    },
    {
      "midi": 65,
      "hit": false,
      "t": 115563.74399998914,
      "d": 94.69333333329996,
      "v": 70
    },
    {
      "midi": 118,
      "hit": false,
      "t": 115563.74399998914,
      "d": 94.69333333329996,
      "v": 50
    },
    {
      "midi": 62,
      "hit": false,
      "t": 115573.21333332246,
      "d": 18.93866666665417,
      "v": 100
    },
    {
      "midi": 42,
      "hit": false,
      "t": 115573.21333332246,
      "d": 94.69333333329996,
      "v": 78
    },
    {
      "midi": 69,
      "hit": false,
      "t": 115573.21333332246,
      "d": 94.69333333329996,
      "v": 70
    },
    {
      "midi": 74,
      "hit": false,
      "t": 115582.68266665579,
      "d": 66.2853333333187,
      "v": 70
    },
    {
      "midi": 26,
      "hit": false,
      "t": 115677.37599998909,
      "d": 94.69333333331451,
      "v": 127
    },
    {
      "midi": 45,
      "hit": false,
      "t": 115677.37599998909,
      "d": 94.69333333331451,
      "v": 95
    },
    {
      "midi": 74,
      "hit": false,
      "t": 115677.37599998909,
      "d": 94.69333333331451,
      "v": 70
    },
    {
      "midi": 118,
      "hit": false,
      "t": 115677.37599998909,
      "d": 94.69333333331451,
      "v": 30
    },
    {
      "midi": 57,
      "hit": false,
      "t": 115686.84533332242,
      "d": 75.75466666666034,
      "v": 95
    },
    {
      "midi": 69,
      "hit": false,
      "t": 115686.84533332242,
      "d": 75.75466666666034,
      "v": 70
    },
    {
      "midi": 53,
      "hit": false,
      "t": 115686.84533332242,
      "d": 85.22399999998743,
      "v": 95
    },
    {
      "midi": 38,
      "hit": false,
      "t": 115686.84533332242,
      "d": 85.22399999998743,
      "v": 110
    },
    {
      "midi": 62,
      "hit": false,
      "t": 115696.31466665574,
      "d": 66.28533333333326,
      "v": 95
    },
    {
      "midi": 46,
      "hit": false,
      "t": 115696.31466665574,
      "d": 94.69333333331451,
      "v": 92
    },
    {
      "midi": 65,
      "hit": false,
      "t": 115696.31466665574,
      "d": 94.69333333331451,
      "v": 70
    },
    {
      "midi": 65,
      "hit": false,
      "t": 115791.00799998906,
      "d": 9.469333333327086,
      "v": 60
    },
    {
      "midi": 69,
      "hit": false,
      "t": 115791.00799998906,
      "d": 9.469333333327086,
      "v": 60
    },
    {
      "midi": 74,
      "hit": false,
      "t": 115791.00799998906,
      "d": 9.469333333327086,
      "v": 60
    },
    {
      "midi": 57,
      "hit": false,
      "t": 115791.00799998906,
      "d": 94.69333333331451,
      "v": 95
    },
    {
      "midi": 63,
      "hit": false,
      "t": 115791.00799998906,
      "d": 94.69333333331451,
      "v": 80
    },
    {
      "midi": 45,
      "hit": false,
      "t": 115800.47733332239,
      "d": 75.75466666666034,
      "v": 95
    },
    {
      "midi": 53,
      "hit": false,
      "t": 115800.47733332239,
      "d": 85.22399999998743,
      "v": 95
    },
    {
      "midi": 62,
      "hit": false,
      "t": 115800.47733332239,
      "d": 85.22399999998743,
      "v": 110
    },
    {
      "midi": 38,
      "hit": false,
      "t": 115809.94666665571,
      "d": 66.28533333333326,
      "v": 95
    },
    {
      "midi": 26,
      "hit": false,
      "t": 115904.63999998903,
      "d": 94.69333333331451,
      "v": 127
    },
    {
      "midi": 45,
      "hit": false,
      "t": 115904.63999998903,
      "d": 94.69333333331451,
      "v": 115
    },
    {
      "midi": 15,
      "hit": false,
      "t": 115904.63999998903,
      "d": 94.69333333331451,
      "v": 100
    },
    {
      "midi": 13,
      "hit": false,
      "t": 115904.63999998903,
      "d": 94.69333333331451,
      "v": 100
    },
    {
      "midi": 10,
      "hit": false,
      "t": 115904.63999998903,
      "d": 94.69333333331451,
      "v": 127
    },
    {
      "midi": 127,
      "hit": false,
      "t": 115904.63999998903,
      "d": 94.69333333331451,
      "v": 60
    },
    {
      "midi": 108,
      "hit": false,
      "t": 115904.63999998903,
      "d": 94.69333333331451,
      "v": 80
    },
    {
      "midi": 105,
      "hit": false,
      "t": 115904.63999998903,
      "d": 94.69333333331451,
      "v": 100
    },
    {
      "midi": 42,
      "hit": false,
      "t": 115904.63999998903,
      "d": 94.69333333331451,
      "v": 92
    },
    {
      "midi": 74,
      "hit": false,
      "t": 115904.63999998903,
      "d": 94.69333333331451,
      "v": 70
    },
    {
      "midi": 118,
      "hit": false,
      "t": 115904.63999998903,
      "d": 94.69333333331451,
      "v": 50
    },
    {
      "midi": 64,
      "hit": false,
      "t": 115904.63999998903,
      "d": 94.69333333331451,
      "v": 70
    },
    {
      "midi": 59,
      "hit": false,
      "t": 115904.63999998903,
      "d": 208.3253333332832,
      "v": 127
    },
    {
      "midi": 57,
      "hit": false,
      "t": 115914.10933332235,
      "d": 75.75466666666034,
      "v": 115
    },
    {
      "midi": 53,
      "hit": false,
      "t": 115914.10933332235,
      "d": 85.22399999998743,
      "v": 115
    },
    {
      "midi": 38,
      "hit": false,
      "t": 115914.10933332235,
      "d": 85.22399999998743,
      "v": 100
    },
    {
      "midi": 69,
      "hit": false,
      "t": 115914.10933332235,
      "d": 94.69333333331451,
      "v": 70
    },
    {
      "midi": 62,
      "hit": false,
      "t": 115923.57866665568,
      "d": 66.28533333333326,
      "v": 115
    },
    {
      "midi": 65,
      "hit": false,
      "t": 115923.57866665568,
      "d": 94.69333333331451,
      "v": 70
    },
    {
      "midi": 65,
      "hit": false,
      "t": 116018.271999989,
      "d": 85.22399999998743,
      "v": 70
    },
    {
      "midi": 26,
      "hit": false,
      "t": 116018.271999989,
      "d": 94.69333333331451,
      "v": 127
    },
    {
      "midi": 57,
      "hit": false,
      "t": 116018.271999989,
      "d": 208.32533333329775,
      "v": 115
    },
    {
      "midi": 42,
      "hit": false,
      "t": 116027.74133332232,
      "d": 94.69333333331451,
      "v": 78
    },
    {
      "midi": 69,
      "hit": false,
      "t": 116027.74133332232,
      "d": 94.69333333331451,
      "v": 70
    },
    {
      "midi": 45,
      "hit": false,
      "t": 116027.74133332232,
      "d": 189.38666666664358,
      "v": 115
    },
    {
      "midi": 53,
      "hit": false,
      "t": 116027.74133332232,
      "d": 198.85599999997066,
      "v": 115
    },
    {
      "midi": 62,
      "hit": false,
      "t": 116027.74133332232,
      "d": 198.85599999997066,
      "v": 100
    },
    {
      "midi": 74,
      "hit": false,
      "t": 116037.21066665565,
      "d": 94.69333333331451,
      "v": 70
    },
    {
      "midi": 38,
      "hit": false,
      "t": 116037.21066665565,
      "d": 179.9173333333165,
      "v": 115
    },
    {
      "midi": 69,
      "hit": false,
      "t": 116131.90399998896,
      "d": 85.22400000000198,
      "v": 80
    },
    {
      "midi": 26,
      "hit": false,
      "t": 116131.90399998896,
      "d": 94.69333333332906,
      "v": 127
    },
    {
      "midi": 15,
      "hit": false,
      "t": 116131.90399998896,
      "d": 94.69333333332906,
      "v": 100
    },
    {
      "midi": 13,
      "hit": false,
      "t": 116131.90399998896,
      "d": 94.69333333332906,
      "v": 100
    },
    {
      "midi": 10,
      "hit": false,
      "t": 116131.90399998896,
      "d": 94.69333333332906,
      "v": 127
    },
    {
      "midi": 118,
      "hit": false,
      "t": 116131.90399998896,
      "d": 94.69333333332906,
      "v": 50
    },
    {
      "midi": 60,
      "hit": false,
      "t": 116131.90399998896,
      "d": 208.32533333329775,
      "v": 127
    },
    {
      "midi": 46,
      "hit": false,
      "t": 116150.84266665563,
      "d": 94.69333333331451,
      "v": 92
    },
    {
      "midi": 65,
      "hit": false,
      "t": 116245.53599998895,
      "d": 85.22399999998743,
      "v": 80
    },
    {
      "midi": 45,
      "hit": false,
      "t": 116245.53599998895,
      "d": 94.69333333331451,
      "v": 95
    },
    {
      "midi": 118,
      "hit": false,
      "t": 116245.53599998895,
      "d": 94.69333333331451,
      "v": 30
    },
    {
      "midi": 57,
      "hit": false,
      "t": 116255.00533332227,
      "d": 75.75466666666034,
      "v": 95
    },
    {
      "midi": 53,
      "hit": false,
      "t": 116255.00533332227,
      "d": 85.22399999998743,
      "v": 95
    },
    {
      "midi": 38,
      "hit": false,
      "t": 116255.00533332227,
      "d": 85.22399999998743,
      "v": 100
    },
    {
      "midi": 62,
      "hit": false,
      "t": 116264.4746666556,
      "d": 66.28533333333326,
      "v": 95
    },
    {
      "midi": 72,
      "hit": false,
      "t": 116359.16799998892,
      "d": 18.93866666665417,
      "v": 70
    },
    {
      "midi": 71,
      "hit": false,
      "t": 116359.16799998892,
      "d": 85.22399999997288,
      "v": 80
    },
    {
      "midi": 28,
      "hit": false,
      "t": 116359.16799998892,
      "d": 94.69333333329996,
      "v": 127
    },
    {
      "midi": 15,
      "hit": false,
      "t": 116359.16799998892,
      "d": 94.69333333329996,
      "v": 100
    },
    {
      "midi": 13,
      "hit": false,
      "t": 116359.16799998892,
      "d": 94.69333333329996,
      "v": 100
    },
    {
      "midi": 10,
      "hit": false,
      "t": 116359.16799998892,
      "d": 94.69333333329996,
      "v": 127
    },
    {
      "midi": 42,
      "hit": false,
      "t": 116359.16799998892,
      "d": 94.69333333329996,
      "v": 92
    },
    {
      "midi": 40,
      "hit": false,
      "t": 116359.16799998892,
      "d": 416.6506666665082,
      "v": 105
    },
    {
      "midi": 47,
      "hit": false,
      "t": 116359.16799998892,
      "d": 416.6506666665082,
      "v": 105
    },
    {
      "midi": 60,
      "hit": false,
      "t": 116359.16799998892,
      "d": 643.9146666664165,
      "v": 127
    },
    {
      "midi": 68,
      "hit": false,
      "t": 116368.63733332224,
      "d": 18.93866666665417,
      "v": 70
    },
    {
      "midi": 56,
      "hit": false,
      "t": 116368.63733332224,
      "d": 416.6506666665082,
      "v": 105
    },
    {
      "midi": 59,
      "hit": false,
      "t": 116368.63733332224,
      "d": 416.6506666665082,
      "v": 105
    },
    {
      "midi": 65,
      "hit": false,
      "t": 116378.10666665557,
      "d": 18.93866666665417,
      "v": 70
    },
    {
      "midi": 65,
      "hit": false,
      "t": 116463.33066665554,
      "d": 9.469333333327086,
      "v": 80
    },
    {
      "midi": 65,
      "hit": false,
      "t": 116472.79999998887,
      "d": 18.93866666665417,
      "v": 70
    },
    {
      "midi": 28,
      "hit": false,
      "t": 116472.79999998887,
      "d": 94.69333333329996,
      "v": 127
    },
    {
      "midi": 68,
      "hit": false,
      "t": 116482.2693333222,
      "d": 18.93866666665417,
      "v": 70
    },
    {
      "midi": 42,
      "hit": false,
      "t": 116482.2693333222,
      "d": 94.69333333329996,
      "v": 78
    },
    {
      "midi": 72,
      "hit": false,
      "t": 116491.73866665552,
      "d": 18.93866666665417,
      "v": 70
    },
    {
      "midi": 72,
      "hit": false,
      "t": 116576.9626666555,
      "d": 9.469333333327086,
      "v": 40
    },
    {
      "midi": 72,
      "hit": false,
      "t": 116586.43199998882,
      "d": 9.469333333327086,
      "v": 40
    },
    {
      "midi": 68,
      "hit": false,
      "t": 116586.43199998882,
      "d": 9.469333333327086,
      "v": 40
    },
    {
      "midi": 65,
      "hit": false,
      "t": 116586.43199998882,
      "d": 9.469333333327086,
      "v": 40
    },
    {
      "midi": 76,
      "hit": false,
      "t": 116586.43199998882,
      "d": 85.22399999997288,
      "v": 80
    },
    {
      "midi": 28,
      "hit": false,
      "t": 116586.43199998882,
      "d": 94.69333333329996,
      "v": 127
    },
    {
      "midi": 65,
      "hit": false,
      "t": 116595.90133332215,
      "d": 28.407999999981257,
      "v": 40
    },
    {
      "midi": 46,
      "hit": false,
      "t": 116605.37066665548,
      "d": 94.69333333329996,
      "v": 92
    },
    {
      "midi": 65,
      "hit": false,
      "t": 116700.06399998878,
      "d": 18.93866666665417,
      "v": 70
    },
    {
      "midi": 80,
      "hit": false,
      "t": 116700.06399998878,
      "d": 85.22399999997288,
      "v": 80
    },
    {
      "midi": 64,
      "hit": false,
      "t": 116700.06399998878,
      "d": 94.69333333329996,
      "v": 70
    },
    {
      "midi": 28,
      "hit": false,
      "t": 116700.06399998878,
      "d": 94.69333333329996,
      "v": 127
    },
    {
      "midi": 68,
      "hit": false,
      "t": 116709.5333333221,
      "d": 18.93866666665417,
      "v": 70
    },
    {
      "midi": 72,
      "hit": false,
      "t": 116719.00266665543,
      "d": 18.93866666665417,
      "v": 70
    },
    {
      "midi": 72,
      "hit": false,
      "t": 116804.2266666554,
      "d": 9.469333333327086,
      "v": 80
    },
    {
      "midi": 72,
      "hit": false,
      "t": 116813.69599998873,
      "d": 18.93866666665417,
      "v": 70
    },
    {
      "midi": 83,
      "hit": false,
      "t": 116813.69599998873,
      "d": 85.22399999997288,
      "v": 80
    },
    {
      "midi": 28,
      "hit": false,
      "t": 116813.69599998873,
      "d": 94.69333333329996,
      "v": 127
    },
    {
      "midi": 15,
      "hit": false,
      "t": 116813.69599998873,
      "d": 94.69333333329996,
      "v": 100
    },
    {
      "midi": 13,
      "hit": false,
      "t": 116813.69599998873,
      "d": 94.69333333329996,
      "v": 100
    },
    {
      "midi": 10,
      "hit": false,
      "t": 116813.69599998873,
      "d": 94.69333333329996,
      "v": 127
    },
    {
      "midi": 127,
      "hit": false,
      "t": 116813.69599998873,
      "d": 94.69333333329996,
      "v": 60
    },
    {
      "midi": 108,
      "hit": false,
      "t": 116813.69599998873,
      "d": 94.69333333329996,
      "v": 80
    },
    {
      "midi": 105,
      "hit": false,
      "t": 116813.69599998873,
      "d": 94.69333333329996,
      "v": 100
    },
    {
      "midi": 42,
      "hit": false,
      "t": 116813.69599998873,
      "d": 94.69333333329996,
      "v": 92
    },
    {
      "midi": 118,
      "hit": false,
      "t": 116813.69599998873,
      "d": 94.69333333329996,
      "v": 50
    },
    {
      "midi": 63,
      "hit": false,
      "t": 116813.69599998873,
      "d": 94.69333333329996,
      "v": 70
    },
    {
      "midi": 64,
      "hit": false,
      "t": 116813.69599998873,
      "d": 198.855999999927,
      "v": 115
    },
    {
      "midi": 59,
      "hit": false,
      "t": 116813.69599998873,
      "d": 198.855999999927,
      "v": 115
    },
    {
      "midi": 68,
      "hit": false,
      "t": 116823.16533332206,
      "d": 18.93866666665417,
      "v": 70
    },
    {
      "midi": 56,
      "hit": false,
      "t": 116823.16533332206,
      "d": 198.855999999927,
      "v": 115
    },
    {
      "midi": 47,
      "hit": false,
      "t": 116823.16533332206,
      "d": 198.855999999927,
      "v": 115
    },
    {
      "midi": 65,
      "hit": false,
      "t": 116832.63466665539,
      "d": 18.93866666665417,
      "v": 70
    },
    {
      "midi": 40,
      "hit": false,
      "t": 116832.63466665539,
      "d": 198.855999999927,
      "v": 115
    },
    {
      "midi": 65,
      "hit": false,
      "t": 116917.85866665536,
      "d": 9.469333333327086,
      "v": 40
    },
    {
      "midi": 65,
      "hit": false,
      "t": 116927.32799998869,
      "d": 9.469333333327086,
      "v": 40
    },
    {
      "midi": 68,
      "hit": false,
      "t": 116927.32799998869,
      "d": 9.469333333327086,
      "v": 40
    },
    {
      "midi": 72,
      "hit": false,
      "t": 116927.32799998869,
      "d": 9.469333333327086,
      "v": 40
    },
    {
      "midi": 88,
      "hit": false,
      "t": 116927.32799998869,
      "d": 85.22399999997288,
      "v": 80
    },
    {
      "midi": 72,
      "hit": false,
      "t": 116936.79733332201,
      "d": 28.407999999981257,
      "v": 40
    },
    {
      "midi": 42,
      "hit": false,
      "t": 116936.79733332201,
      "d": 94.69333333329996,
      "v": 78
    },
    {
      "midi": 40,
      "hit": false,
      "t": 117031.49066665531,
      "d": 9.469333333327086,
      "v": 90
    },
    {
      "midi": 71,
      "hit": false,
      "t": 117040.95999998864,
      "d": 18.93866666665417,
      "v": 70
    },
    {
      "midi": 40,
      "hit": false,
      "t": 117040.95999998864,
      "d": 85.22399999997288,
      "v": 95
    },
    {
      "midi": 47,
      "hit": false,
      "t": 117040.95999998864,
      "d": 85.22399999997288,
      "v": 95
    },
    {
      "midi": 83,
      "hit": false,
      "t": 117040.95999998864,
      "d": 85.22399999997288,
      "v": 80
    },
    {
      "midi": 28,
      "hit": false,
      "t": 117040.95999998864,
      "d": 94.69333333329996,
      "v": 127
    },
    {
      "midi": 68,
      "hit": false,
      "t": 117050.42933332197,
      "d": 18.93866666665417,
      "v": 70
    },
    {
      "midi": 56,
      "hit": false,
      "t": 117050.42933332197,
      "d": 85.22399999997288,
      "v": 95
    },
    {
      "midi": 59,
      "hit": false,
      "t": 117050.42933332197,
      "d": 85.22399999997288,
      "v": 95
    },
    {
      "midi": 64,
      "hit": false,
      "t": 117059.8986666553,
      "d": 18.93866666665417,
      "v": 95
    },
    {
      "midi": 46,
      "hit": false,
      "t": 117059.8986666553,
      "d": 94.69333333329996,
      "v": 92
    },
    {
      "midi": 59,
      "hit": false,
      "t": 117145.12266665527,
      "d": 9.469333333327086,
      "v": 105
    },
    {
      "midi": 64,
      "hit": false,
      "t": 117145.12266665527,
      "d": 9.469333333327086,
      "v": 90
    },
    {
      "midi": 64,
      "hit": false,
      "t": 117154.5919999886,
      "d": 18.93866666665417,
      "v": 115
    },
    {
      "midi": 80,
      "hit": false,
      "t": 117154.5919999886,
      "d": 85.22399999997288,
      "v": 80
    },
    {
      "midi": 118,
      "hit": false,
      "t": 117154.5919999886,
      "d": 94.69333333329996,
      "v": 50
    },
    {
      "midi": 68,
      "hit": false,
      "t": 117164.06133332192,
      "d": 18.93866666665417,
      "v": 70
    },
    {
      "midi": 56,
      "hit": false,
      "t": 117164.06133332192,
      "d": 198.8559999999561,
      "v": 115
    },
    {
      "midi": 47,
      "hit": false,
      "t": 117164.06133332192,
      "d": 198.8559999999561,
      "v": 115
    },
    {
      "midi": 71,
      "hit": false,
      "t": 117173.53066665525,
      "d": 18.93866666665417,
      "v": 70
    },
    {
      "midi": 40,
      "hit": false,
      "t": 117173.53066665525,
      "d": 198.8559999999561,
      "v": 115
    },
    {
      "midi": 59,
      "hit": false,
      "t": 117268.22399998855,
      "d": 85.22400000000198,
      "v": 127
    },
    {
      "midi": 76,
      "hit": false,
      "t": 117268.22399998855,
      "d": 85.22400000000198,
      "v": 80
    },
    {
      "midi": 28,
      "hit": false,
      "t": 117268.22399998855,
      "d": 94.69333333332906,
      "v": 127
    },
    {
      "midi": 15,
      "hit": false,
      "t": 117268.22399998855,
      "d": 94.69333333332906,
      "v": 100
    },
    {
      "midi": 13,
      "hit": false,
      "t": 117268.22399998855,
      "d": 94.69333333332906,
      "v": 100
    },
    {
      "midi": 10,
      "hit": false,
      "t": 117268.22399998855,
      "d": 94.69333333332906,
      "v": 127
    },
    {
      "midi": 42,
      "hit": false,
      "t": 117268.22399998855,
      "d": 94.69333333332906,
      "v": 92
    },
    {
      "midi": 40,
      "hit": false,
      "t": 117372.3866666552,
      "d": 9.469333333327086,
      "v": 90
    },
    {
      "midi": 40,
      "hit": false,
      "t": 117381.85599998853,
      "d": 85.22399999998743,
      "v": 95
    },
    {
      "midi": 47,
      "hit": false,
      "t": 117381.85599998853,
      "d": 85.22399999998743,
      "v": 95
    },
    {
      "midi": 71,
      "hit": false,
      "t": 117381.85599998853,
      "d": 85.22399999998743,
      "v": 80
    },
    {
      "midi": 118,
      "hit": false,
      "t": 117381.85599998853,
      "d": 94.69333333331451,
      "v": 50
    },
    {
      "midi": 56,
      "hit": false,
      "t": 117391.32533332186,
      "d": 85.22399999998743,
      "v": 95
    },
    {
      "midi": 59,
      "hit": false,
      "t": 117391.32533332186,
      "d": 85.22399999998743,
      "v": 95
    },
    {
      "midi": 42,
      "hit": false,
      "t": 117391.32533332186,
      "d": 94.69333333331451,
      "v": 78
    },
    {
      "midi": 64,
      "hit": false,
      "t": 117400.79466665519,
      "d": 85.22399999998743,
      "v": 95
    },
    {
      "midi": 64,
      "hit": false,
      "t": 117486.01866665517,
      "d": 9.469333333327086,
      "v": 90
    },
    {
      "midi": 68,
      "hit": false,
      "t": 117495.4879999885,
      "d": 85.22399999998743,
      "v": 80
    },
    {
      "midi": 28,
      "hit": false,
      "t": 117495.4879999885,
      "d": 94.69333333331451,
      "v": 127
    },
    {
      "midi": 118,
      "hit": false,
      "t": 117495.4879999885,
      "d": 94.69333333331451,
      "v": 30
    },
    {
      "midi": 59,
      "hit": false,
      "t": 117495.4879999885,
      "d": 198.85599999997066,
      "v": 95
    },
    {
      "midi": 56,
      "hit": false,
      "t": 117504.95733332183,
      "d": 198.85599999997066,
      "v": 95
    },
    {
      "midi": 47,
      "hit": false,
      "t": 117504.95733332183,
      "d": 198.85599999997066,
      "v": 95
    },
    {
      "midi": 46,
      "hit": false,
      "t": 117514.42666665516,
      "d": 94.69333333332906,
      "v": 92
    },
    {
      "midi": 40,
      "hit": false,
      "t": 117514.42666665516,
      "d": 198.85599999997066,
      "v": 95
    },
    {
      "midi": 64,
      "hit": false,
      "t": 117609.11999998848,
      "d": 85.22399999998743,
      "v": 80
    },
    {
      "midi": 63,
      "hit": false,
      "t": 117609.11999998848,
      "d": 94.69333333331451,
      "v": 80
    },
    {
      "midi": 40,
      "hit": false,
      "t": 117713.28266665513,
      "d": 9.469333333327086,
      "v": 105
    },
    {
      "midi": 40,
      "hit": false,
      "t": 117722.75199998845,
      "d": 85.22399999998743,
      "v": 115
    },
    {
      "midi": 47,
      "hit": false,
      "t": 117722.75199998845,
      "d": 85.22399999998743,
      "v": 115
    },
    {
      "midi": 28,
      "hit": false,
      "t": 117722.75199998845,
      "d": 94.69333333331451,
      "v": 127
    },
    {
      "midi": 15,
      "hit": false,
      "t": 117722.75199998845,
      "d": 94.69333333331451,
      "v": 100
    },
    {
      "midi": 13,
      "hit": false,
      "t": 117722.75199998845,
      "d": 94.69333333331451,
      "v": 100
    },
    {
      "midi": 10,
      "hit": false,
      "t": 117722.75199998845,
      "d": 94.69333333331451,
      "v": 127
    },
    {
      "midi": 127,
      "hit": false,
      "t": 117722.75199998845,
      "d": 94.69333333331451,
      "v": 60
    },
    {
      "midi": 108,
      "hit": false,
      "t": 117722.75199998845,
      "d": 94.69333333331451,
      "v": 80
    },
    {
      "midi": 105,
      "hit": false,
      "t": 117722.75199998845,
      "d": 94.69333333331451,
      "v": 100
    },
    {
      "midi": 42,
      "hit": false,
      "t": 117722.75199998845,
      "d": 94.69333333331451,
      "v": 92
    },
    {
      "midi": 118,
      "hit": false,
      "t": 117722.75199998845,
      "d": 94.69333333331451,
      "v": 50
    },
    {
      "midi": 59,
      "hit": false,
      "t": 117732.22133332178,
      "d": 75.75466666666034,
      "v": 115
    },
    {
      "midi": 56,
      "hit": false,
      "t": 117732.22133332178,
      "d": 85.22399999998743,
      "v": 115
    },
    {
      "midi": 64,
      "hit": false,
      "t": 117741.69066665511,
      "d": 75.75466666666034,
      "v": 115
    },
    {
      "midi": 59,
      "hit": false,
      "t": 117826.9146666551,
      "d": 208.32533333329775,
      "v": 100
    },
    {
      "midi": 64,
      "hit": false,
      "t": 117836.38399998842,
      "d": 85.22399999998743,
      "v": 80
    },
    {
      "midi": 28,
      "hit": false,
      "t": 117836.38399998842,
      "d": 94.69333333331451,
      "v": 127
    },
    {
      "midi": 47,
      "hit": false,
      "t": 117836.38399998842,
      "d": 208.32533333329775,
      "v": 100
    },
    {
      "midi": 56,
      "hit": false,
      "t": 117836.38399998842,
      "d": 208.32533333329775,
      "v": 100
    },
    {
      "midi": 42,
      "hit": false,
      "t": 117845.85333332175,
      "d": 94.69333333331451,
      "v": 78
    },
    {
      "midi": 40,
      "hit": false,
      "t": 117845.85333332175,
      "d": 198.85599999997066,
      "v": 100
    },
    {
      "midi": 68,
      "hit": false,
      "t": 117950.01599998839,
      "d": 85.22400000000198,
      "v": 80
    },
    {
      "midi": 28,
      "hit": false,
      "t": 117950.01599998839,
      "d": 94.69333333332906,
      "v": 127
    },
    {
      "midi": 127,
      "hit": false,
      "t": 117950.01599998839,
      "d": 94.69333333332906,
      "v": 60
    },
    {
      "midi": 108,
      "hit": false,
      "t": 117950.01599998839,
      "d": 94.69333333332906,
      "v": 80
    },
    {
      "midi": 105,
      "hit": false,
      "t": 117950.01599998839,
      "d": 94.69333333332906,
      "v": 100
    },
    {
      "midi": 118,
      "hit": false,
      "t": 117950.01599998839,
      "d": 94.69333333332906,
      "v": 50
    },
    {
      "midi": 46,
      "hit": false,
      "t": 117968.95466665506,
      "d": 94.69333333331451,
      "v": 92
    },
    {
      "midi": 71,
      "hit": false,
      "t": 118063.64799998837,
      "d": 85.22399999998743,
      "v": 80
    },
    {
      "midi": 59,
      "hit": false,
      "t": 118063.64799998837,
      "d": 94.69333333331451,
      "v": 95
    },
    {
      "midi": 127,
      "hit": false,
      "t": 118063.64799998837,
      "d": 94.69333333331451,
      "v": 60
    },
    {
      "midi": 108,
      "hit": false,
      "t": 118063.64799998837,
      "d": 94.69333333331451,
      "v": 80
    },
    {
      "midi": 105,
      "hit": false,
      "t": 118063.64799998837,
      "d": 94.69333333331451,
      "v": 100
    },
    {
      "midi": 118,
      "hit": false,
      "t": 118063.64799998837,
      "d": 94.69333333331451,
      "v": 30
    },
    {
      "midi": 47,
      "hit": false,
      "t": 118073.1173333217,
      "d": 75.75466666666034,
      "v": 95
    },
    {
      "midi": 56,
      "hit": false,
      "t": 118073.1173333217,
      "d": 85.22399999998743,
      "v": 95
    },
    {
      "midi": 64,
      "hit": false,
      "t": 118073.1173333217,
      "d": 85.22399999998743,
      "v": 90
    },
    {
      "midi": 40,
      "hit": false,
      "t": 118082.58666665503,
      "d": 66.28533333333326,
      "v": 95
    },
    {
      "midi": 40,
      "hit": false,
      "t": 118167.81066665502,
      "d": 9.469333333327086,
      "v": 100
    },
    {
      "midi": 71,
      "hit": false,
      "t": 118177.27999998834,
      "d": 18.93866666665417,
      "v": 70
    },
    {
      "midi": 28,
      "hit": false,
      "t": 118177.27999998834,
      "d": 94.69333333329996,
      "v": 127
    },
    {
      "midi": 15,
      "hit": false,
      "t": 118177.27999998834,
      "d": 94.69333333329996,
      "v": 100
    },
    {
      "midi": 13,
      "hit": false,
      "t": 118177.27999998834,
      "d": 94.69333333329996,
      "v": 100
    },
    {
      "midi": 10,
      "hit": false,
      "t": 118177.27999998834,
      "d": 94.69333333329996,
      "v": 127
    },
    {
      "midi": 127,
      "hit": false,
      "t": 118177.27999998834,
      "d": 94.69333333329996,
      "v": 60
    },
    {
      "midi": 108,
      "hit": false,
      "t": 118177.27999998834,
      "d": 94.69333333329996,
      "v": 80
    },
    {
      "midi": 105,
      "hit": false,
      "t": 118177.27999998834,
      "d": 94.69333333329996,
      "v": 100
    },
    {
      "midi": 42,
      "hit": false,
      "t": 118177.27999998834,
      "d": 94.69333333329996,
      "v": 92
    },
    {
      "midi": 40,
      "hit": false,
      "t": 118177.27999998834,
      "d": 416.6506666665082,
      "v": 115
    },
    {
      "midi": 47,
      "hit": false,
      "t": 118177.27999998834,
      "d": 416.6506666665082,
      "v": 115
    },
    {
      "midi": 68,
      "hit": false,
      "t": 118186.74933332167,
      "d": 18.93866666665417,
      "v": 70
    },
    {
      "midi": 56,
      "hit": false,
      "t": 118186.74933332167,
      "d": 416.6506666665082,
      "v": 115
    },
    {
      "midi": 59,
      "hit": false,
      "t": 118186.74933332167,
      "d": 416.6506666665082,
      "v": 115
    },
    {
      "midi": 64,
      "hit": false,
      "t": 118196.218666655,
      "d": 18.93866666665417,
      "v": 115
    },
    {
      "midi": 64,
      "hit": false,
      "t": 118281.44266665497,
      "d": 9.469333333327086,
      "v": 70
    },
    {
      "midi": 64,
      "hit": false,
      "t": 118290.9119999883,
      "d": 18.93866666665417,
      "v": 70
    },
    {
      "midi": 28,
      "hit": false,
      "t": 118290.9119999883,
      "d": 94.69333333329996,
      "v": 127
    },
    {
      "midi": 127,
      "hit": false,
      "t": 118290.9119999883,
      "d": 94.69333333329996,
      "v": 60
    },
    {
      "midi": 108,
      "hit": false,
      "t": 118290.9119999883,
      "d": 94.69333333329996,
      "v": 80
    },
    {
      "midi": 105,
      "hit": false,
      "t": 118290.9119999883,
      "d": 94.69333333329996,
      "v": 100
    },
    {
      "midi": 68,
      "hit": false,
      "t": 118300.38133332162,
      "d": 18.93866666665417,
      "v": 70
    },
    {
      "midi": 42,
      "hit": false,
      "t": 118300.38133332162,
      "d": 94.69333333329996,
      "v": 78
    },
    {
      "midi": 71,
      "hit": false,
      "t": 118309.85066665495,
      "d": 18.93866666665417,
      "v": 70
    },
    {
      "midi": 71,
      "hit": false,
      "t": 118395.07466665492,
      "d": 9.469333333327086,
      "v": 30
    },
    {
      "midi": 71,
      "hit": false,
      "t": 118404.54399998825,
      "d": 9.469333333327086,
      "v": 40
    },
    {
      "midi": 68,
      "hit": false,
      "t": 118404.54399998825,
      "d": 9.469333333327086,
      "v": 40
    },
    {
      "midi": 64,
      "hit": false,
      "t": 118404.54399998825,
      "d": 9.469333333327086,
      "v": 40
    },
    {
      "midi": 76,
      "hit": false,
      "t": 118404.54399998825,
      "d": 85.22399999997288,
      "v": 80
    },
    {
      "midi": 28,
      "hit": false,
      "t": 118404.54399998825,
      "d": 94.69333333329996,
      "v": 127
    },
    {
      "midi": 127,
      "hit": false,
      "t": 118404.54399998825,
      "d": 94.69333333329996,
      "v": 60
    },
    {
      "midi": 108,
      "hit": false,
      "t": 118404.54399998825,
      "d": 94.69333333329996,
      "v": 80
    },
    {
      "midi": 105,
      "hit": false,
      "t": 118404.54399998825,
      "d": 94.69333333329996,
      "v": 100
    },
    {
      "midi": 64,
      "hit": false,
      "t": 118414.01333332158,
      "d": 28.407999999981257,
      "v": 30
    },
    {
      "midi": 46,
      "hit": false,
      "t": 118423.4826666549,
      "d": 94.69333333329996,
      "v": 92
    },
    {
      "midi": 64,
      "hit": false,
      "t": 118518.1759999882,
      "d": 18.93866666665417,
      "v": 70
    },
    {
      "midi": 80,
      "hit": false,
      "t": 118518.1759999882,
      "d": 85.22399999997288,
      "v": 80
    },
    {
      "midi": 28,
      "hit": false,
      "t": 118518.1759999882,
      "d": 94.69333333329996,
      "v": 127
    },
    {
      "midi": 127,
      "hit": false,
      "t": 118518.1759999882,
      "d": 94.69333333329996,
      "v": 60
    },
    {
      "midi": 108,
      "hit": false,
      "t": 118518.1759999882,
      "d": 94.69333333329996,
      "v": 80
    },
    {
      "midi": 105,
      "hit": false,
      "t": 118518.1759999882,
      "d": 94.69333333329996,
      "v": 100
    },
    {
      "midi": 68,
      "hit": false,
      "t": 118527.64533332153,
      "d": 18.93866666665417,
      "v": 70
    },
    {
      "midi": 71,
      "hit": false,
      "t": 118537.11466665486,
      "d": 18.93866666665417,
      "v": 70
    },
    {
      "midi": 71,
      "hit": false,
      "t": 118622.33866665483,
      "d": 9.469333333327086,
      "v": 70
    },
    {
      "midi": 71,
      "hit": false,
      "t": 118631.80799998816,
      "d": 18.93866666665417,
      "v": 70
    },
    {
      "midi": 83,
      "hit": false,
      "t": 118631.80799998816,
      "d": 85.22399999997288,
      "v": 80
    },
    {
      "midi": 28,
      "hit": false,
      "t": 118631.80799998816,
      "d": 94.69333333329996,
      "v": 127
    },
    {
      "midi": 15,
      "hit": false,
      "t": 118631.80799998816,
      "d": 94.69333333329996,
      "v": 100
    },
    {
      "midi": 13,
      "hit": false,
      "t": 118631.80799998816,
      "d": 94.69333333329996,
      "v": 100
    },
    {
      "midi": 10,
      "hit": false,
      "t": 118631.80799998816,
      "d": 94.69333333329996,
      "v": 127
    },
    {
      "midi": 127,
      "hit": false,
      "t": 118631.80799998816,
      "d": 94.69333333329996,
      "v": 60
    },
    {
      "midi": 108,
      "hit": false,
      "t": 118631.80799998816,
      "d": 94.69333333329996,
      "v": 80
    },
    {
      "midi": 105,
      "hit": false,
      "t": 118631.80799998816,
      "d": 94.69333333329996,
      "v": 100
    },
    {
      "midi": 42,
      "hit": false,
      "t": 118631.80799998816,
      "d": 94.69333333329996,
      "v": 92
    },
    {
      "midi": 118,
      "hit": false,
      "t": 118631.80799998816,
      "d": 94.69333333329996,
      "v": 50
    },
    {
      "midi": 63,
      "hit": false,
      "t": 118631.80799998816,
      "d": 94.69333333329996,
      "v": 70
    },
    {
      "midi": 59,
      "hit": false,
      "t": 118631.80799998816,
      "d": 198.855999999927,
      "v": 115
    },
    {
      "midi": 62,
      "hit": false,
      "t": 118631.80799998816,
      "d": 303.01866666655405,
      "v": 127
    },
    {
      "midi": 68,
      "hit": false,
      "t": 118641.27733332149,
      "d": 18.93866666665417,
      "v": 70
    },
    {
      "midi": 56,
      "hit": false,
      "t": 118641.27733332149,
      "d": 198.855999999927,
      "v": 115
    },
    {
      "midi": 47,
      "hit": false,
      "t": 118641.27733332149,
      "d": 198.855999999927,
      "v": 115
    },
    {
      "midi": 64,
      "hit": false,
      "t": 118650.74666665481,
      "d": 18.93866666665417,
      "v": 70
    },
    {
      "midi": 40,
      "hit": false,
      "t": 118650.74666665481,
      "d": 198.855999999927,
      "v": 115
    },
    {
      "midi": 64,
      "hit": false,
      "t": 118735.97066665479,
      "d": 9.469333333327086,
      "v": 30
    },
    {
      "midi": 64,
      "hit": false,
      "t": 118745.43999998811,
      "d": 9.469333333327086,
      "v": 40
    },
    {
      "midi": 68,
      "hit": false,
      "t": 118745.43999998811,
      "d": 9.469333333327086,
      "v": 40
    },
    {
      "midi": 71,
      "hit": false,
      "t": 118745.43999998811,
      "d": 9.469333333327086,
      "v": 40
    },
    {
      "midi": 88,
      "hit": false,
      "t": 118745.43999998811,
      "d": 85.22399999997288,
      "v": 80
    },
    {
      "midi": 71,
      "hit": false,
      "t": 118754.90933332144,
      "d": 28.407999999981257,
      "v": 30
    },
    {
      "midi": 42,
      "hit": false,
      "t": 118754.90933332144,
      "d": 94.69333333329996,
      "v": 78
    },
    {
      "midi": 40,
      "hit": false,
      "t": 118849.60266665474,
      "d": 9.469333333327086,
      "v": 90
    },
    {
      "midi": 71,
      "hit": false,
      "t": 118859.07199998807,
      "d": 18.93866666665417,
      "v": 70
    },
    {
      "midi": 40,
      "hit": false,
      "t": 118859.07199998807,
      "d": 85.22399999997288,
      "v": 95
    },
    {
      "midi": 47,
      "hit": false,
      "t": 118859.07199998807,
      "d": 85.22399999997288,
      "v": 95
    },
    {
      "midi": 83,
      "hit": false,
      "t": 118859.07199998807,
      "d": 85.22399999997288,
      "v": 80
    },
    {
      "midi": 28,
      "hit": false,
      "t": 118859.07199998807,
      "d": 94.69333333329996,
      "v": 127
    },
    {
      "midi": 127,
      "hit": false,
      "t": 118859.07199998807,
      "d": 94.69333333329996,
      "v": 60
    },
    {
      "midi": 108,
      "hit": false,
      "t": 118859.07199998807,
      "d": 94.69333333329996,
      "v": 80
    },
    {
      "midi": 105,
      "hit": false,
      "t": 118859.07199998807,
      "d": 94.69333333329996,
      "v": 100
    },
    {
      "midi": 68,
      "hit": false,
      "t": 118868.5413333214,
      "d": 18.93866666665417,
      "v": 70
    },
    {
      "midi": 56,
      "hit": false,
      "t": 118868.5413333214,
      "d": 85.22399999997288,
      "v": 95
    },
    {
      "midi": 59,
      "hit": false,
      "t": 118868.5413333214,
      "d": 85.22399999997288,
      "v": 95
    },
    {
      "midi": 64,
      "hit": false,
      "t": 118878.01066665472,
      "d": 18.93866666665417,
      "v": 95
    },
    {
      "midi": 46,
      "hit": false,
      "t": 118878.01066665472,
      "d": 94.69333333329996,
      "v": 92
    },
    {
      "midi": 64,
      "hit": false,
      "t": 118963.2346666547,
      "d": 9.469333333327086,
      "v": 70
    },
    {
      "midi": 64,
      "hit": false,
      "t": 118972.70399998802,
      "d": 18.93866666665417,
      "v": 115
    },
    {
      "midi": 59,
      "hit": false,
      "t": 118972.70399998802,
      "d": 85.22399999997288,
      "v": 115
    },
    {
      "midi": 80,
      "hit": false,
      "t": 118972.70399998802,
      "d": 85.22399999997288,
      "v": 80
    },
    {
      "midi": 28,
      "hit": false,
      "t": 118972.70399998802,
      "d": 94.69333333329996,
      "v": 127
    },
    {
      "midi": 127,
      "hit": false,
      "t": 118972.70399998802,
      "d": 94.69333333329996,
      "v": 60
    },
    {
      "midi": 108,
      "hit": false,
      "t": 118972.70399998802,
      "d": 94.69333333329996,
      "v": 80
    },
    {
      "midi": 105,
      "hit": false,
      "t": 118972.70399998802,
      "d": 94.69333333329996,
      "v": 100
    },
    {
      "midi": 118,
      "hit": false,
      "t": 118972.70399998802,
      "d": 94.69333333329996,
      "v": 50
    },
    {
      "midi": 68,
      "hit": false,
      "t": 118982.17333332135,
      "d": 18.93866666665417,
      "v": 70
    },
    {
      "midi": 56,
      "hit": false,
      "t": 118982.17333332135,
      "d": 85.22399999997288,
      "v": 115
    },
    {
      "midi": 47,
      "hit": false,
      "t": 118982.17333332135,
      "d": 85.22399999997288,
      "v": 115
    },
    {
      "midi": 71,
      "hit": false,
      "t": 118991.64266665468,
      "d": 18.93866666665417,
      "v": 70
    },
    {
      "midi": 40,
      "hit": false,
      "t": 118991.64266665468,
      "d": 85.22399999997288,
      "v": 115
    },
    {
      "midi": 40,
      "hit": false,
      "t": 119076.86666665465,
      "d": 94.69333333331451,
      "v": 90
    },
    {
      "midi": 47,
      "hit": false,
      "t": 119076.86666665465,
      "d": 94.69333333331451,
      "v": 90
    },
    {
      "midi": 76,
      "hit": false,
      "t": 119086.33599998798,
      "d": 85.22399999998743,
      "v": 80
    },
    {
      "midi": 59,
      "hit": false,
      "t": 119086.33599998798,
      "d": 94.69333333331451,
      "v": 90
    },
    {
      "midi": 28,
      "hit": false,
      "t": 119086.33599998798,
      "d": 94.69333333331451,
      "v": 127
    },
    {
      "midi": 56,
      "hit": false,
      "t": 119086.33599998798,
      "d": 94.69333333331451,
      "v": 90
    },
    {
      "midi": 15,
      "hit": false,
      "t": 119086.33599998798,
      "d": 94.69333333331451,
      "v": 100
    },
    {
      "midi": 13,
      "hit": false,
      "t": 119086.33599998798,
      "d": 94.69333333331451,
      "v": 100
    },
    {
      "midi": 10,
      "hit": false,
      "t": 119086.33599998798,
      "d": 94.69333333331451,
      "v": 127
    },
    {
      "midi": 127,
      "hit": false,
      "t": 119086.33599998798,
      "d": 94.69333333331451,
      "v": 60
    },
    {
      "midi": 108,
      "hit": false,
      "t": 119086.33599998798,
      "d": 94.69333333331451,
      "v": 80
    },
    {
      "midi": 105,
      "hit": false,
      "t": 119086.33599998798,
      "d": 94.69333333331451,
      "v": 100
    },
    {
      "midi": 42,
      "hit": false,
      "t": 119086.33599998798,
      "d": 94.69333333331451,
      "v": 92
    },
    {
      "midi": 60,
      "hit": false,
      "t": 119086.33599998798,
      "d": 303.0186666665977,
      "v": 127
    },
    {
      "midi": 64,
      "hit": false,
      "t": 119095.8053333213,
      "d": 85.22399999998743,
      "v": 90
    },
    {
      "midi": 71,
      "hit": false,
      "t": 119199.96799998794,
      "d": 85.22399999998743,
      "v": 80
    },
    {
      "midi": 47,
      "hit": false,
      "t": 119199.96799998794,
      "d": 94.69333333331451,
      "v": 95
    },
    {
      "midi": 127,
      "hit": false,
      "t": 119199.96799998794,
      "d": 94.69333333331451,
      "v": 60
    },
    {
      "midi": 108,
      "hit": false,
      "t": 119199.96799998794,
      "d": 94.69333333331451,
      "v": 80
    },
    {
      "midi": 105,
      "hit": false,
      "t": 119199.96799998794,
      "d": 94.69333333331451,
      "v": 100
    },
    {
      "midi": 118,
      "hit": false,
      "t": 119199.96799998794,
      "d": 94.69333333331451,
      "v": 50
    },
    {
      "midi": 59,
      "hit": false,
      "t": 119209.43733332127,
      "d": 75.75466666666034,
      "v": 95
    },
    {
      "midi": 56,
      "hit": false,
      "t": 119209.43733332127,
      "d": 85.22399999998743,
      "v": 95
    },
    {
      "midi": 40,
      "hit": false,
      "t": 119209.43733332127,
      "d": 85.22399999998743,
      "v": 100
    },
    {
      "midi": 42,
      "hit": false,
      "t": 119209.43733332127,
      "d": 94.69333333331451,
      "v": 78
    },
    {
      "midi": 64,
      "hit": false,
      "t": 119218.9066666546,
      "d": 66.28533333333326,
      "v": 95
    },
    {
      "midi": 68,
      "hit": false,
      "t": 119313.59999998791,
      "d": 85.22399999998743,
      "v": 80
    },
    {
      "midi": 28,
      "hit": false,
      "t": 119313.59999998791,
      "d": 94.69333333331451,
      "v": 127
    },
    {
      "midi": 59,
      "hit": false,
      "t": 119313.59999998791,
      "d": 94.69333333331451,
      "v": 95
    },
    {
      "midi": 127,
      "hit": false,
      "t": 119313.59999998791,
      "d": 94.69333333331451,
      "v": 60
    },
    {
      "midi": 108,
      "hit": false,
      "t": 119313.59999998791,
      "d": 94.69333333331451,
      "v": 80
    },
    {
      "midi": 105,
      "hit": false,
      "t": 119313.59999998791,
      "d": 94.69333333331451,
      "v": 100
    },
    {
      "midi": 118,
      "hit": false,
      "t": 119313.59999998791,
      "d": 94.69333333331451,
      "v": 30
    },
    {
      "midi": 47,
      "hit": false,
      "t": 119323.06933332124,
      "d": 75.75466666666034,
      "v": 95
    },
    {
      "midi": 56,
      "hit": false,
      "t": 119323.06933332124,
      "d": 85.22399999998743,
      "v": 95
    },
    {
      "midi": 64,
      "hit": false,
      "t": 119323.06933332124,
      "d": 85.22399999998743,
      "v": 105
    },
    {
      "midi": 40,
      "hit": false,
      "t": 119332.53866665457,
      "d": 66.28533333333326,
      "v": 95
    },
    {
      "midi": 46,
      "hit": false,
      "t": 119332.53866665457,
      "d": 94.69333333331451,
      "v": 92
    },
    {
      "midi": 47,
      "hit": false,
      "t": 119427.23199998788,
      "d": 94.69333333331451,
      "v": 95
    },
    {
      "midi": 63,
      "hit": false,
      "t": 119427.23199998788,
      "d": 94.69333333331451,
      "v": 80
    },
    {
      "midi": 59,
      "hit": false,
      "t": 119436.70133332121,
      "d": 75.75466666666034,
      "v": 95
    },
    {
      "midi": 56,
      "hit": false,
      "t": 119436.70133332121,
      "d": 85.22399999998743,
      "v": 95
    },
    {
      "midi": 40,
      "hit": false,
      "t": 119436.70133332121,
      "d": 85.22399999998743,
      "v": 105
    },
    {
      "midi": 64,
      "hit": false,
      "t": 119446.17066665454,
      "d": 66.28533333333326,
      "v": 95
    },
    {
      "midi": 59,
      "hit": false,
      "t": 119540.86399998785,
      "d": 85.22399999998743,
      "v": 115
    },
    {
      "midi": 28,
      "hit": false,
      "t": 119540.86399998785,
      "d": 94.69333333331451,
      "v": 127
    },
    {
      "midi": 15,
      "hit": false,
      "t": 119540.86399998785,
      "d": 94.69333333331451,
      "v": 100
    },
    {
      "midi": 13,
      "hit": false,
      "t": 119540.86399998785,
      "d": 94.69333333331451,
      "v": 100
    },
    {
      "midi": 10,
      "hit": false,
      "t": 119540.86399998785,
      "d": 94.69333333331451,
      "v": 127
    },
    {
      "midi": 127,
      "hit": false,
      "t": 119540.86399998785,
      "d": 94.69333333331451,
      "v": 60
    },
    {
      "midi": 108,
      "hit": false,
      "t": 119540.86399998785,
      "d": 94.69333333331451,
      "v": 80
    },
    {
      "midi": 105,
      "hit": false,
      "t": 119540.86399998785,
      "d": 94.69333333331451,
      "v": 100
    },
    {
      "midi": 42,
      "hit": false,
      "t": 119540.86399998785,
      "d": 94.69333333331451,
      "v": 92
    },
    {
      "midi": 118,
      "hit": false,
      "t": 119540.86399998785,
      "d": 94.69333333331451,
      "v": 50
    },
    {
      "midi": 62,
      "hit": false,
      "t": 119540.86399998785,
      "d": 303.01866666661226,
      "v": 127
    },
    {
      "midi": 47,
      "hit": false,
      "t": 119550.33333332118,
      "d": 75.75466666666034,
      "v": 115
    },
    {
      "midi": 56,
      "hit": false,
      "t": 119550.33333332118,
      "d": 85.22399999998743,
      "v": 115
    },
    {
      "midi": 64,
      "hit": false,
      "t": 119550.33333332118,
      "d": 85.22399999998743,
      "v": 90
    },
    {
      "midi": 40,
      "hit": false,
      "t": 119559.8026666545,
      "d": 66.28533333333326,
      "v": 115
    },
    {
      "midi": 59,
      "hit": false,
      "t": 119645.02666665449,
      "d": 303.0186666666268,
      "v": 100
    },
    {
      "midi": 64,
      "hit": false,
      "t": 119654.49599998782,
      "d": 85.22399999998743,
      "v": 80
    },
    {
      "midi": 28,
      "hit": false,
      "t": 119654.49599998782,
      "d": 94.69333333331451,
      "v": 127
    },
    {
      "midi": 127,
      "hit": false,
      "t": 119654.49599998782,
      "d": 94.69333333331451,
      "v": 60
    },
    {
      "midi": 108,
      "hit": false,
      "t": 119654.49599998782,
      "d": 94.69333333331451,
      "v": 80
    },
    {
      "midi": 105,
      "hit": false,
      "t": 119654.49599998782,
      "d": 94.69333333331451,
      "v": 100
    },
    {
      "midi": 56,
      "hit": false,
      "t": 119654.49599998782,
      "d": 303.0186666666268,
      "v": 100
    },
    {
      "midi": 47,
      "hit": false,
      "t": 119654.49599998782,
      "d": 303.0186666666268,
      "v": 100
    },
    {
      "midi": 42,
      "hit": false,
      "t": 119663.96533332115,
      "d": 94.69333333331451,
      "v": 78
    },
    {
      "midi": 40,
      "hit": false,
      "t": 119663.96533332115,
      "d": 303.0186666666268,
      "v": 100
    },
    {
      "midi": 68,
      "hit": false,
      "t": 119768.12799998779,
      "d": 85.22400000000198,
      "v": 80
    },
    {
      "midi": 28,
      "hit": false,
      "t": 119768.12799998779,
      "d": 94.69333333332906,
      "v": 127
    },
    {
      "midi": 15,
      "hit": false,
      "t": 119768.12799998779,
      "d": 94.69333333332906,
      "v": 100
    },
    {
      "midi": 13,
      "hit": false,
      "t": 119768.12799998779,
      "d": 94.69333333332906,
      "v": 100
    },
    {
      "midi": 10,
      "hit": false,
      "t": 119768.12799998779,
      "d": 94.69333333332906,
      "v": 127
    },
    {
      "midi": 127,
      "hit": false,
      "t": 119768.12799998779,
      "d": 94.69333333332906,
      "v": 60
    },
    {
      "midi": 108,
      "hit": false,
      "t": 119768.12799998779,
      "d": 94.69333333332906,
      "v": 80
    },
    {
      "midi": 105,
      "hit": false,
      "t": 119768.12799998779,
      "d": 94.69333333332906,
      "v": 100
    },
    {
      "midi": 118,
      "hit": false,
      "t": 119768.12799998779,
      "d": 94.69333333332906,
      "v": 50
    },
    {
      "midi": 46,
      "hit": false,
      "t": 119787.06666665446,
      "d": 94.69333333332906,
      "v": 92
    },
    {
      "midi": 71,
      "hit": false,
      "t": 119881.75999998779,
      "d": 85.22399999998743,
      "v": 80
    },
    {
      "midi": 28,
      "hit": false,
      "t": 119881.75999998779,
      "d": 94.69333333331451,
      "v": 127
    },
    {
      "midi": 118,
      "hit": false,
      "t": 119881.75999998779,
      "d": 94.69333333331451,
      "v": 30
    },
    {
      "midi": 86,
      "hit": false,
      "t": 119995.39199998775,
      "d": 85.22399999995832,
      "v": 80
    },
    {
      "midi": 26,
      "hit": false,
      "t": 119995.39199998775,
      "d": 94.69333333328541,
      "v": 127
    },
    {
      "midi": 15,
      "hit": false,
      "t": 119995.39199998775,
      "d": 94.69333333328541,
      "v": 100
    },
    {
      "midi": 13,
      "hit": false,
      "t": 119995.39199998775,
      "d": 94.69333333328541,
      "v": 100
    },
    {
      "midi": 10,
      "hit": false,
      "t": 119995.39199998775,
      "d": 94.69333333328541,
      "v": 127
    },
    {
      "midi": 42,
      "hit": false,
      "t": 119995.39199998775,
      "d": 94.69333333328541,
      "v": 92
    },
    {
      "midi": 126,
      "hit": false,
      "t": 119995.39199998775,
      "d": 94.69333333328541,
      "v": 80
    },
    {
      "midi": 72,
      "hit": false,
      "t": 119995.39199998775,
      "d": 312.4879999999248,
      "v": 100
    },
    {
      "midi": 64,
      "hit": false,
      "t": 119995.39199998775,
      "d": 321.9573333332519,
      "v": 127
    },
    {
      "midi": 55,
      "hit": false,
      "t": 119995.39199998775,
      "d": 426.11999999990803,
      "v": 80
    },
    {
      "midi": 62,
      "hit": false,
      "t": 119995.39199998775,
      "d": 653.3839999998745,
      "v": 115
    },
    {
      "midi": 57,
      "hit": false,
      "t": 119995.39199998775,
      "d": 653.3839999998745,
      "v": 115
    },
    {
      "midi": 53,
      "hit": false,
      "t": 120004.86133332108,
      "d": 653.3839999998745,
      "v": 115
    },
    {
      "midi": 45,
      "hit": false,
      "t": 120004.86133332108,
      "d": 653.3839999998745,
      "v": 115
    },
    {
      "midi": 38,
      "hit": false,
      "t": 120014.33066665441,
      "d": 653.3839999998745,
      "v": 115
    },
    {
      "midi": 84,
      "hit": false,
      "t": 120052.20799998772,
      "d": 426.11999999993714,
      "v": 127
    },
    {
      "midi": 81,
      "hit": false,
      "t": 120109.02399998771,
      "d": 85.22399999998743,
      "v": 80
    },
    {
      "midi": 26,
      "hit": false,
      "t": 120109.02399998771,
      "d": 94.69333333331451,
      "v": 127
    },
    {
      "midi": 42,
      "hit": false,
      "t": 120118.49333332104,
      "d": 94.69333333331451,
      "v": 78
    },
    {
      "midi": 77,
      "hit": false,
      "t": 120222.65599998768,
      "d": 85.22400000000198,
      "v": 80
    },
    {
      "midi": 26,
      "hit": false,
      "t": 120222.65599998768,
      "d": 94.69333333332906,
      "v": 127
    },
    {
      "midi": 46,
      "hit": false,
      "t": 120241.59466665435,
      "d": 94.69333333332906,
      "v": 92
    },
    {
      "midi": 74,
      "hit": false,
      "t": 120336.28799998767,
      "d": 85.22399999998743,
      "v": 80
    },
    {
      "midi": 26,
      "hit": false,
      "t": 120336.28799998767,
      "d": 94.69333333331451,
      "v": 127
    },
    {
      "midi": 64,
      "hit": false,
      "t": 120336.28799998767,
      "d": 94.69333333331451,
      "v": 70
    },
    {
      "midi": 69,
      "hit": false,
      "t": 120449.91999998766,
      "d": 85.22399999998743,
      "v": 80
    },
    {
      "midi": 26,
      "hit": false,
      "t": 120449.91999998766,
      "d": 94.69333333331451,
      "v": 127
    },
    {
      "midi": 15,
      "hit": false,
      "t": 120449.91999998766,
      "d": 94.69333333331451,
      "v": 100
    },
    {
      "midi": 13,
      "hit": false,
      "t": 120449.91999998766,
      "d": 94.69333333331451,
      "v": 100
    },
    {
      "midi": 10,
      "hit": false,
      "t": 120449.91999998766,
      "d": 94.69333333331451,
      "v": 127
    },
    {
      "midi": 127,
      "hit": false,
      "t": 120449.91999998766,
      "d": 94.69333333331451,
      "v": 60
    },
    {
      "midi": 108,
      "hit": false,
      "t": 120449.91999998766,
      "d": 94.69333333331451,
      "v": 80
    },
    {
      "midi": 105,
      "hit": false,
      "t": 120449.91999998766,
      "d": 94.69333333331451,
      "v": 100
    },
    {
      "midi": 42,
      "hit": false,
      "t": 120449.91999998766,
      "d": 94.69333333331451,
      "v": 92
    },
    {
      "midi": 118,
      "hit": false,
      "t": 120449.91999998766,
      "d": 94.69333333331451,
      "v": 50
    },
    {
      "midi": 63,
      "hit": false,
      "t": 120449.91999998766,
      "d": 94.69333333331451,
      "v": 70
    },
    {
      "midi": 65,
      "hit": false,
      "t": 120563.55199998764,
      "d": 85.22399999998743,
      "v": 80
    },
    {
      "midi": 42,
      "hit": false,
      "t": 120573.02133332097,
      "d": 94.69333333331451,
      "v": 78
    },
    {
      "midi": 62,
      "hit": false,
      "t": 120677.18399998761,
      "d": 85.22399999998743,
      "v": 115
    },
    {
      "midi": 26,
      "hit": false,
      "t": 120677.18399998761,
      "d": 208.3253333333123,
      "v": 127
    },
    {
      "midi": 57,
      "hit": false,
      "t": 120677.18399998761,
      "d": 416.6506666666246,
      "v": 115
    },
    {
      "midi": 64,
      "hit": false,
      "t": 120677.18399998761,
      "d": 426.1199999999517,
      "v": 127
    },
    {
      "midi": 53,
      "hit": false,
      "t": 120686.65333332094,
      "d": 416.6506666666246,
      "v": 115
    },
    {
      "midi": 45,
      "hit": false,
      "t": 120686.65333332094,
      "d": 416.6506666666246,
      "v": 115
    },
    {
      "midi": 46,
      "hit": false,
      "t": 120696.12266665426,
      "d": 94.69333333332906,
      "v": 92
    },
    {
      "midi": 38,
      "hit": false,
      "t": 120696.12266665426,
      "d": 416.6506666666246,
      "v": 115
    },
    {
      "midi": 65,
      "hit": false,
      "t": 120790.8159999876,
      "d": 85.22400000000198,
      "v": 80
    },
    {
      "midi": 118,
      "hit": false,
      "t": 120790.8159999876,
      "d": 94.69333333332906,
      "v": 50
    },
    {
      "midi": 69,
      "hit": false,
      "t": 120904.44799998759,
      "d": 85.22399999998743,
      "v": 80
    },
    {
      "midi": 26,
      "hit": false,
      "t": 120904.44799998759,
      "d": 94.69333333331451,
      "v": 127
    },
    {
      "midi": 15,
      "hit": false,
      "t": 120904.44799998759,
      "d": 94.69333333331451,
      "v": 100
    },
    {
      "midi": 13,
      "hit": false,
      "t": 120904.44799998759,
      "d": 94.69333333331451,
      "v": 100
    },
    {
      "midi": 10,
      "hit": false,
      "t": 120904.44799998759,
      "d": 94.69333333331451,
      "v": 127
    },
    {
      "midi": 42,
      "hit": false,
      "t": 120904.44799998759,
      "d": 94.69333333331451,
      "v": 92
    },
    {
      "midi": 74,
      "hit": false,
      "t": 121018.07999998757,
      "d": 85.22399999998743,
      "v": 80
    },
    {
      "midi": 118,
      "hit": false,
      "t": 121018.07999998757,
      "d": 94.69333333331451,
      "v": 50
    },
    {
      "midi": 42,
      "hit": false,
      "t": 121027.5493333209,
      "d": 94.69333333331451,
      "v": 78
    },
    {
      "midi": 38,
      "hit": false,
      "t": 121122.24266665422,
      "d": 208.3253333333123,
      "v": 100
    },
    {
      "midi": 45,
      "hit": false,
      "t": 121122.24266665422,
      "d": 208.3253333333123,
      "v": 100
    },
    {
      "midi": 77,
      "hit": false,
      "t": 121131.71199998754,
      "d": 85.22399999998743,
      "v": 80
    },
    {
      "midi": 26,
      "hit": false,
      "t": 121131.71199998754,
      "d": 94.69333333331451,
      "v": 127
    },
    {
      "midi": 118,
      "hit": false,
      "t": 121131.71199998754,
      "d": 94.69333333331451,
      "v": 30
    },
    {
      "midi": 53,
      "hit": false,
      "t": 121131.71199998754,
      "d": 208.3253333333123,
      "v": 100
    },
    {
      "midi": 57,
      "hit": false,
      "t": 121131.71199998754,
      "d": 208.3253333333123,
      "v": 100
    },
    {
      "midi": 62,
      "hit": false,
      "t": 121141.18133332087,
      "d": 198.85599999998522,
      "v": 100
    },
    {
      "midi": 46,
      "hit": false,
      "t": 121150.6506666542,
      "d": 94.69333333332906,
      "v": 92
    },
    {
      "midi": 81,
      "hit": false,
      "t": 121245.34399998753,
      "d": 85.22400000000198,
      "v": 80
    },
    {
      "midi": 63,
      "hit": false,
      "t": 121245.34399998753,
      "d": 94.69333333332906,
      "v": 80
    },
    {
      "midi": 62,
      "hit": false,
      "t": 121349.50666665418,
      "d": 208.32533333329775,
      "v": 100
    },
    {
      "midi": 57,
      "hit": false,
      "t": 121349.50666665418,
      "d": 208.32533333329775,
      "v": 100
    },
    {
      "midi": 86,
      "hit": false,
      "t": 121358.97599998751,
      "d": 85.22399999998743,
      "v": 80
    },
    {
      "midi": 26,
      "hit": false,
      "t": 121358.97599998751,
      "d": 94.69333333331451,
      "v": 127
    },
    {
      "midi": 15,
      "hit": false,
      "t": 121358.97599998751,
      "d": 94.69333333331451,
      "v": 100
    },
    {
      "midi": 13,
      "hit": false,
      "t": 121358.97599998751,
      "d": 94.69333333331451,
      "v": 100
    },
    {
      "midi": 10,
      "hit": false,
      "t": 121358.97599998751,
      "d": 94.69333333331451,
      "v": 127
    },
    {
      "midi": 127,
      "hit": false,
      "t": 121358.97599998751,
      "d": 94.69333333331451,
      "v": 60
    },
    {
      "midi": 108,
      "hit": false,
      "t": 121358.97599998751,
      "d": 94.69333333331451,
      "v": 80
    },
    {
      "midi": 105,
      "hit": false,
      "t": 121358.97599998751,
      "d": 94.69333333331451,
      "v": 100
    },
    {
      "midi": 42,
      "hit": false,
      "t": 121358.97599998751,
      "d": 94.69333333331451,
      "v": 92
    },
    {
      "midi": 118,
      "hit": false,
      "t": 121358.97599998751,
      "d": 94.69333333331451,
      "v": 50
    },
    {
      "midi": 64,
      "hit": false,
      "t": 121358.97599998751,
      "d": 94.69333333331451,
      "v": 70
    },
    {
      "midi": 60,
      "hit": false,
      "t": 121358.97599998751,
      "d": 208.32533333329775,
      "v": 127
    },
    {
      "midi": 71,
      "hit": false,
      "t": 121358.97599998751,
      "d": 208.32533333329775,
      "v": 100
    },
    {
      "midi": 53,
      "hit": false,
      "t": 121358.97599998751,
      "d": 208.32533333329775,
      "v": 100
    },
    {
      "midi": 45,
      "hit": false,
      "t": 121358.97599998751,
      "d": 208.32533333329775,
      "v": 100
    },
    {
      "midi": 38,
      "hit": false,
      "t": 121368.44533332084,
      "d": 208.32533333329775,
      "v": 100
    },
    {
      "midi": 81,
      "hit": false,
      "t": 121472.6079999875,
      "d": 85.22399999998743,
      "v": 80
    },
    {
      "midi": 26,
      "hit": false,
      "t": 121472.6079999875,
      "d": 94.69333333331451,
      "v": 127
    },
    {
      "midi": 42,
      "hit": false,
      "t": 121482.07733332082,
      "d": 94.69333333331451,
      "v": 78
    },
    {
      "midi": 38,
      "hit": false,
      "t": 121576.77066665413,
      "d": 94.69333333331451,
      "v": 90
    },
    {
      "midi": 45,
      "hit": false,
      "t": 121576.77066665413,
      "d": 94.69333333331451,
      "v": 90
    },
    {
      "midi": 77,
      "hit": false,
      "t": 121586.23999998746,
      "d": 85.22399999998743,
      "v": 80
    },
    {
      "midi": 26,
      "hit": false,
      "t": 121586.23999998746,
      "d": 94.69333333331451,
      "v": 127
    },
    {
      "midi": 53,
      "hit": false,
      "t": 121586.23999998746,
      "d": 94.69333333331451,
      "v": 90
    },
    {
      "midi": 57,
      "hit": false,
      "t": 121586.23999998746,
      "d": 94.69333333331451,
      "v": 90
    },
    {
      "midi": 118,
      "hit": false,
      "t": 121586.23999998746,
      "d": 94.69333333331451,
      "v": 50
    },
    {
      "midi": 72,
      "hit": false,
      "t": 121586.23999998746,
      "d": 208.3253333332832,
      "v": 100
    },
    {
      "midi": 62,
      "hit": false,
      "t": 121595.70933332079,
      "d": 94.69333333331451,
      "v": 90
    },
    {
      "midi": 46,
      "hit": false,
      "t": 121605.17866665412,
      "d": 94.69333333331451,
      "v": 92
    },
    {
      "midi": 62,
      "hit": false,
      "t": 121690.4026666541,
      "d": 94.69333333331451,
      "v": 80
    },
    {
      "midi": 57,
      "hit": false,
      "t": 121690.4026666541,
      "d": 94.69333333331451,
      "v": 80
    },
    {
      "midi": 74,
      "hit": false,
      "t": 121699.87199998743,
      "d": 85.22399999998743,
      "v": 127
    },
    {
      "midi": 53,
      "hit": false,
      "t": 121699.87199998743,
      "d": 94.69333333331451,
      "v": 80
    },
    {
      "midi": 45,
      "hit": false,
      "t": 121699.87199998743,
      "d": 94.69333333331451,
      "v": 80
    },
    {
      "midi": 118,
      "hit": false,
      "t": 121699.87199998743,
      "d": 94.69333333331451,
      "v": 30
    },
    {
      "midi": 38,
      "hit": false,
      "t": 121709.34133332076,
      "d": 94.69333333331451,
      "v": 80
    },
    {
      "midi": 31,
      "hit": false,
      "t": 121813.5039999874,
      "d": 94.69333333331451,
      "v": 127
    },
    {
      "midi": 15,
      "hit": false,
      "t": 121813.5039999874,
      "d": 94.69333333331451,
      "v": 100
    },
    {
      "midi": 13,
      "hit": false,
      "t": 121813.5039999874,
      "d": 94.69333333331451,
      "v": 100
    },
    {
      "midi": 10,
      "hit": false,
      "t": 121813.5039999874,
      "d": 94.69333333331451,
      "v": 127
    },
    {
      "midi": 42,
      "hit": false,
      "t": 121813.5039999874,
      "d": 94.69333333331451,
      "v": 92
    },
    {
      "midi": 74,
      "hit": false,
      "t": 121813.5039999874,
      "d": 312.4879999999539,
      "v": 100
    },
    {
      "midi": 64,
      "hit": false,
      "t": 121813.5039999874,
      "d": 321.957333333281,
      "v": 127
    },
    {
      "midi": 62,
      "hit": false,
      "t": 121813.5039999874,
      "d": 653.3839999999182,
      "v": 107
    },
    {
      "midi": 59,
      "hit": false,
      "t": 121822.97333332073,
      "d": 653.3839999999182,
      "v": 115
    },
    {
      "midi": 43,
      "hit": false,
      "t": 121822.97333332073,
      "d": 662.8533333332452,
      "v": 100
    },
    {
      "midi": 55,
      "hit": false,
      "t": 121822.97333332073,
      "d": 662.8533333332452,
      "v": 115
    },
    {
      "midi": 50,
      "hit": false,
      "t": 121832.44266665405,
      "d": 643.9146666665911,
      "v": 115
    },
    {
      "midi": 47,
      "hit": false,
      "t": 121832.44266665405,
      "d": 662.8533333332452,
      "v": 115
    },
    {
      "midi": 86,
      "hit": false,
      "t": 121870.31999998739,
      "d": 28.40799999999581,
      "v": 127
    },
    {
      "midi": 83,
      "hit": false,
      "t": 121927.13599998738,
      "d": 85.22399999998743,
      "v": 80
    },
    {
      "midi": 31,
      "hit": false,
      "t": 121927.13599998738,
      "d": 94.69333333331451,
      "v": 127
    },
    {
      "midi": 42,
      "hit": false,
      "t": 121936.60533332071,
      "d": 94.69333333331451,
      "v": 78
    },
    {
      "midi": 79,
      "hit": false,
      "t": 122040.76799998735,
      "d": 85.22400000000198,
      "v": 80
    },
    {
      "midi": 31,
      "hit": false,
      "t": 122040.76799998735,
      "d": 94.69333333332906,
      "v": 127
    },
    {
      "midi": 46,
      "hit": false,
      "t": 122059.70666665402,
      "d": 94.69333333332906,
      "v": 92
    },
    {
      "midi": 74,
      "hit": false,
      "t": 122154.39999998735,
      "d": 85.22399999998743,
      "v": 80
    },
    {
      "midi": 31,
      "hit": false,
      "t": 122154.39999998735,
      "d": 94.69333333331451,
      "v": 127
    },
    {
      "midi": 64,
      "hit": false,
      "t": 122154.39999998735,
      "d": 94.69333333331451,
      "v": 70
    },
    {
      "midi": 71,
      "hit": false,
      "t": 122268.03199998733,
      "d": 85.22400000000198,
      "v": 80
    },
    {
      "midi": 31,
      "hit": false,
      "t": 122268.03199998733,
      "d": 94.69333333332906,
      "v": 127
    },
    {
      "midi": 15,
      "hit": false,
      "t": 122268.03199998733,
      "d": 94.69333333332906,
      "v": 100
    },
    {
      "midi": 13,
      "hit": false,
      "t": 122268.03199998733,
      "d": 94.69333333332906,
      "v": 100
    },
    {
      "midi": 10,
      "hit": false,
      "t": 122268.03199998733,
      "d": 94.69333333332906,
      "v": 127
    },
    {
      "midi": 127,
      "hit": false,
      "t": 122268.03199998733,
      "d": 94.69333333332906,
      "v": 60
    },
    {
      "midi": 108,
      "hit": false,
      "t": 122268.03199998733,
      "d": 94.69333333332906,
      "v": 80
    },
    {
      "midi": 105,
      "hit": false,
      "t": 122268.03199998733,
      "d": 94.69333333332906,
      "v": 100
    },
    {
      "midi": 42,
      "hit": false,
      "t": 122268.03199998733,
      "d": 94.69333333332906,
      "v": 92
    },
    {
      "midi": 118,
      "hit": false,
      "t": 122268.03199998733,
      "d": 94.69333333332906,
      "v": 50
    },
    {
      "midi": 63,
      "hit": false,
      "t": 122268.03199998733,
      "d": 94.69333333332906,
      "v": 70
    },
    {
      "midi": 67,
      "hit": false,
      "t": 122381.66399998733,
      "d": 85.22399999998743,
      "v": 80
    },
    {
      "midi": 42,
      "hit": false,
      "t": 122391.13333332066,
      "d": 94.69333333331451,
      "v": 78
    },
    {
      "midi": 62,
      "hit": false,
      "t": 122495.2959999873,
      "d": 85.22399999998743,
      "v": 115
    },
    {
      "midi": 31,
      "hit": false,
      "t": 122495.2959999873,
      "d": 94.69333333331451,
      "v": 127
    },
    {
      "midi": 59,
      "hit": false,
      "t": 122504.76533332063,
      "d": 416.65066666663915,
      "v": 115
    },
    {
      "midi": 43,
      "hit": false,
      "t": 122504.76533332063,
      "d": 426.11999999996624,
      "v": 110
    },
    {
      "midi": 55,
      "hit": false,
      "t": 122504.76533332063,
      "d": 1117.3813333331927,
      "v": 115
    },
    {
      "midi": 46,
      "hit": false,
      "t": 122514.23466665395,
      "d": 94.69333333332906,
      "v": 92
    },
    {
      "midi": 50,
      "hit": false,
      "t": 122514.23466665395,
      "d": 407.18133333331207,
      "v": 115
    },
    {
      "midi": 47,
      "hit": false,
      "t": 122514.23466665395,
      "d": 1117.3813333331927,
      "v": 115
    },
    {
      "midi": 67,
      "hit": false,
      "t": 122608.92799998728,
      "d": 75.7546666666749,
      "v": 80
    },
    {
      "midi": 118,
      "hit": false,
      "t": 122608.92799998728,
      "d": 94.69333333332906,
      "v": 50
    },
    {
      "midi": 71,
      "hit": false,
      "t": 122722.55999998728,
      "d": 85.22400000000198,
      "v": 80
    },
    {
      "midi": 31,
      "hit": false,
      "t": 122722.55999998728,
      "d": 94.69333333332906,
      "v": 127
    },
    {
      "midi": 15,
      "hit": false,
      "t": 122722.55999998728,
      "d": 94.69333333332906,
      "v": 100
    },
    {
      "midi": 13,
      "hit": false,
      "t": 122722.55999998728,
      "d": 94.69333333332906,
      "v": 100
    },
    {
      "midi": 10,
      "hit": false,
      "t": 122722.55999998728,
      "d": 94.69333333332906,
      "v": 127
    },
    {
      "midi": 42,
      "hit": false,
      "t": 122722.55999998728,
      "d": 94.69333333332906,
      "v": 92
    },
    {
      "midi": 67,
      "hit": false,
      "t": 122722.55999998728,
      "d": 189.38666666665813,
      "v": 100
    },
    {
      "midi": 74,
      "hit": false,
      "t": 122836.19199998728,
      "d": 85.22399999998743,
      "v": 80
    },
    {
      "midi": 118,
      "hit": false,
      "t": 122836.19199998728,
      "d": 94.69333333331451,
      "v": 50
    },
    {
      "midi": 42,
      "hit": false,
      "t": 122845.6613333206,
      "d": 94.69333333331451,
      "v": 78
    },
    {
      "midi": 67,
      "hit": false,
      "t": 122940.35466665392,
      "d": 208.3253333333123,
      "v": 100
    },
    {
      "midi": 62,
      "hit": false,
      "t": 122940.35466665392,
      "d": 208.3253333333123,
      "v": 100
    },
    {
      "midi": 79,
      "hit": false,
      "t": 122949.82399998725,
      "d": 85.22399999998743,
      "v": 80
    },
    {
      "midi": 31,
      "hit": false,
      "t": 122949.82399998725,
      "d": 94.69333333331451,
      "v": 127
    },
    {
      "midi": 118,
      "hit": false,
      "t": 122949.82399998725,
      "d": 94.69333333331451,
      "v": 30
    },
    {
      "midi": 60,
      "hit": false,
      "t": 122949.82399998725,
      "d": 208.3253333333123,
      "v": 127
    },
    {
      "midi": 59,
      "hit": false,
      "t": 122949.82399998725,
      "d": 208.3253333333123,
      "v": 100
    },
    {
      "midi": 50,
      "hit": false,
      "t": 122949.82399998725,
      "d": 208.3253333333123,
      "v": 100
    },
    {
      "midi": 65,
      "hit": false,
      "t": 122949.82399998725,
      "d": 208.3253333333123,
      "v": 107
    },
    {
      "midi": 43,
      "hit": false,
      "t": 122959.29333332057,
      "d": 208.3253333333123,
      "v": 100
    },
    {
      "midi": 46,
      "hit": false,
      "t": 122968.7626666539,
      "d": 94.69333333332906,
      "v": 92
    },
    {
      "midi": 83,
      "hit": false,
      "t": 123063.45599998723,
      "d": 85.22400000000198,
      "v": 80
    },
    {
      "midi": 63,
      "hit": false,
      "t": 123063.45599998723,
      "d": 94.69333333332906,
      "v": 80
    },
    {
      "midi": 43,
      "hit": false,
      "t": 123167.61866665389,
      "d": 426.1199999999517,
      "v": 100
    },
    {
      "midi": 50,
      "hit": false,
      "t": 123167.61866665389,
      "d": 426.1199999999517,
      "v": 100
    },
    {
      "midi": 86,
      "hit": false,
      "t": 123177.08799998721,
      "d": 85.22399999998743,
      "v": 80
    },
    {
      "midi": 31,
      "hit": false,
      "t": 123177.08799998721,
      "d": 94.69333333331451,
      "v": 127
    },
    {
      "midi": 15,
      "hit": false,
      "t": 123177.08799998721,
      "d": 94.69333333331451,
      "v": 100
    },
    {
      "midi": 13,
      "hit": false,
      "t": 123177.08799998721,
      "d": 94.69333333331451,
      "v": 100
    },
    {
      "midi": 10,
      "hit": false,
      "t": 123177.08799998721,
      "d": 94.69333333331451,
      "v": 127
    },
    {
      "midi": 127,
      "hit": false,
      "t": 123177.08799998721,
      "d": 94.69333333331451,
      "v": 60
    },
    {
      "midi": 108,
      "hit": false,
      "t": 123177.08799998721,
      "d": 94.69333333331451,
      "v": 80
    },
    {
      "midi": 105,
      "hit": false,
      "t": 123177.08799998721,
      "d": 94.69333333331451,
      "v": 100
    },
    {
      "midi": 42,
      "hit": false,
      "t": 123177.08799998721,
      "d": 94.69333333331451,
      "v": 92
    },
    {
      "midi": 118,
      "hit": false,
      "t": 123177.08799998721,
      "d": 94.69333333331451,
      "v": 50
    },
    {
      "midi": 64,
      "hit": false,
      "t": 123177.08799998721,
      "d": 94.69333333331451,
      "v": 70
    },
    {
      "midi": 62,
      "hit": false,
      "t": 123177.08799998721,
      "d": 208.32533333329775,
      "v": 100
    },
    {
      "midi": 79,
      "hit": false,
      "t": 123177.08799998721,
      "d": 208.32533333329775,
      "v": 100
    },
    {
      "midi": 65,
      "hit": false,
      "t": 123177.08799998721,
      "d": 208.32533333329775,
      "v": 107
    },
    {
      "midi": 59,
      "hit": false,
      "t": 123177.08799998721,
      "d": 426.1199999999517,
      "v": 100
    },
    {
      "midi": 67,
      "hit": false,
      "t": 123186.55733332054,
      "d": 426.1199999999517,
      "v": 100
    },
    {
      "midi": 83,
      "hit": false,
      "t": 123290.7199999872,
      "d": 85.22399999998743,
      "v": 80
    },
    {
      "midi": 31,
      "hit": false,
      "t": 123290.7199999872,
      "d": 94.69333333331451,
      "v": 127
    },
    {
      "midi": 42,
      "hit": false,
      "t": 123300.18933332052,
      "d": 94.69333333331451,
      "v": 78
    },
    {
      "midi": 79,
      "hit": false,
      "t": 123404.35199998716,
      "d": 85.22400000000198,
      "v": 80
    },
    {
      "midi": 31,
      "hit": false,
      "t": 123404.35199998716,
      "d": 94.69333333332906,
      "v": 127
    },
    {
      "midi": 15,
      "hit": false,
      "t": 123404.35199998716,
      "d": 94.69333333332906,
      "v": 100
    },
    {
      "midi": 13,
      "hit": false,
      "t": 123404.35199998716,
      "d": 94.69333333332906,
      "v": 100
    },
    {
      "midi": 10,
      "hit": false,
      "t": 123404.35199998716,
      "d": 94.69333333332906,
      "v": 127
    },
    {
      "midi": 118,
      "hit": false,
      "t": 123404.35199998716,
      "d": 94.69333333332906,
      "v": 50
    },
    {
      "midi": 60,
      "hit": false,
      "t": 123404.35199998716,
      "d": 208.32533333332685,
      "v": 127
    },
    {
      "midi": 65,
      "hit": false,
      "t": 123404.35199998716,
      "d": 208.32533333332685,
      "v": 107
    },
    {
      "midi": 46,
      "hit": false,
      "t": 123423.29066665383,
      "d": 94.69333333332906,
      "v": 92
    },
    {
      "midi": 74,
      "hit": false,
      "t": 123517.98399998716,
      "d": 85.22400000000198,
      "v": 80
    },
    {
      "midi": 118,
      "hit": false,
      "t": 123517.98399998716,
      "d": 94.69333333332906,
      "v": 30
    },
    {
      "midi": 84,
      "hit": false,
      "t": 123631.61599998715,
      "d": 56.81599999999162,
      "v": 80
    },
    {
      "midi": 24,
      "hit": false,
      "t": 123631.61599998715,
      "d": 94.69333333331451,
      "v": 127
    },
    {
      "midi": 15,
      "hit": false,
      "t": 123631.61599998715,
      "d": 94.69333333331451,
      "v": 100
    },
    {
      "midi": 13,
      "hit": false,
      "t": 123631.61599998715,
      "d": 94.69333333331451,
      "v": 100
    },
    {
      "midi": 10,
      "hit": false,
      "t": 123631.61599998715,
      "d": 94.69333333331451,
      "v": 127
    },
    {
      "midi": 42,
      "hit": false,
      "t": 123631.61599998715,
      "d": 94.69333333331451,
      "v": 92
    },
    {
      "midi": 88,
      "hit": false,
      "t": 123631.61599998715,
      "d": 426.1199999999517,
      "v": 127
    },
    {
      "midi": 60,
      "hit": false,
      "t": 123631.61599998715,
      "d": 634.4453333332494,
      "v": 115
    },
    {
      "midi": 62,
      "hit": false,
      "t": 123631.61599998715,
      "d": 643.9146666665765,
      "v": 127
    },
    {
      "midi": 74,
      "hit": false,
      "t": 123631.61599998715,
      "d": 643.9146666665765,
      "v": 100
    },
    {
      "midi": 65,
      "hit": false,
      "t": 123631.61599998715,
      "d": 643.9146666665765,
      "v": 107
    },
    {
      "midi": 55,
      "hit": false,
      "t": 123641.08533332047,
      "d": 634.4453333332494,
      "v": 115
    },
    {
      "midi": 52,
      "hit": false,
      "t": 123641.08533332047,
      "d": 643.9146666665765,
      "v": 115
    },
    {
      "midi": 48,
      "hit": false,
      "t": 123650.5546666538,
      "d": 624.9759999999224,
      "v": 115
    },
    {
      "midi": 43,
      "hit": false,
      "t": 123650.5546666538,
      "d": 634.4453333332494,
      "v": 115
    },
    {
      "midi": 84,
      "hit": false,
      "t": 123688.43199998714,
      "d": 28.40799999999581,
      "v": 127
    },
    {
      "midi": 79,
      "hit": false,
      "t": 123745.24799998713,
      "d": 85.22399999998743,
      "v": 80
    },
    {
      "midi": 24,
      "hit": false,
      "t": 123745.24799998713,
      "d": 94.69333333331451,
      "v": 127
    },
    {
      "midi": 42,
      "hit": false,
      "t": 123754.71733332046,
      "d": 94.69333333331451,
      "v": 78
    },
    {
      "midi": 76,
      "hit": false,
      "t": 123858.8799999871,
      "d": 85.22400000000198,
      "v": 80
    },
    {
      "midi": 24,
      "hit": false,
      "t": 123858.8799999871,
      "d": 94.69333333332906,
      "v": 127
    },
    {
      "midi": 46,
      "hit": false,
      "t": 123877.81866665377,
      "d": 94.69333333332906,
      "v": 92
    },
    {
      "midi": 72,
      "hit": false,
      "t": 123972.5119999871,
      "d": 85.22400000000198,
      "v": 80
    },
    {
      "midi": 24,
      "hit": false,
      "t": 123972.5119999871,
      "d": 94.69333333332906,
      "v": 127
    },
    {
      "midi": 64,
      "hit": false,
      "t": 123972.5119999871,
      "d": 94.69333333332906,
      "v": 70
    },
    {
      "midi": 67,
      "hit": false,
      "t": 124086.14399998709,
      "d": 85.22399999998743,
      "v": 80
    },
    {
      "midi": 15,
      "hit": false,
      "t": 124086.14399998709,
      "d": 94.69333333331451,
      "v": 100
    },
    {
      "midi": 13,
      "hit": false,
      "t": 124086.14399998709,
      "d": 94.69333333331451,
      "v": 100
    },
    {
      "midi": 10,
      "hit": false,
      "t": 124086.14399998709,
      "d": 94.69333333331451,
      "v": 127
    },
    {
      "midi": 127,
      "hit": false,
      "t": 124086.14399998709,
      "d": 94.69333333331451,
      "v": 60
    },
    {
      "midi": 108,
      "hit": false,
      "t": 124086.14399998709,
      "d": 94.69333333331451,
      "v": 80
    },
    {
      "midi": 105,
      "hit": false,
      "t": 124086.14399998709,
      "d": 94.69333333331451,
      "v": 100
    },
    {
      "midi": 42,
      "hit": false,
      "t": 124086.14399998709,
      "d": 94.69333333331451,
      "v": 92
    },
    {
      "midi": 118,
      "hit": false,
      "t": 124086.14399998709,
      "d": 94.69333333331451,
      "v": 50
    },
    {
      "midi": 63,
      "hit": false,
      "t": 124086.14399998709,
      "d": 94.69333333331451,
      "v": 70
    },
    {
      "midi": 24,
      "hit": false,
      "t": 124086.14399998709,
      "d": 208.3253333332832,
      "v": 127
    },
    {
      "midi": 64,
      "hit": false,
      "t": 124199.77599998708,
      "d": 66.2853333333187,
      "v": 80
    },
    {
      "midi": 42,
      "hit": false,
      "t": 124209.2453333204,
      "d": 94.69333333329996,
      "v": 78
    },
    {
      "midi": 60,
      "hit": false,
      "t": 124313.40799998703,
      "d": 85.22399999998743,
      "v": 115
    },
    {
      "midi": 24,
      "hit": false,
      "t": 124313.40799998703,
      "d": 208.3253333333123,
      "v": 127
    },
    {
      "midi": 55,
      "hit": false,
      "t": 124322.87733332036,
      "d": 312.487999999983,
      "v": 115
    },
    {
      "midi": 52,
      "hit": false,
      "t": 124322.87733332036,
      "d": 890.1173333331972,
      "v": 115
    },
    {
      "midi": 46,
      "hit": false,
      "t": 124332.34666665368,
      "d": 94.69333333332906,
      "v": 92
    },
    {
      "midi": 48,
      "hit": false,
      "t": 124332.34666665368,
      "d": 303.0186666666559,
      "v": 115
    },
    {
      "midi": 43,
      "hit": false,
      "t": 124332.34666665368,
      "d": 312.487999999983,
      "v": 115
    },
    {
      "midi": 64,
      "hit": false,
      "t": 124427.03999998701,
      "d": 85.22400000000198,
      "v": 80
    },
    {
      "midi": 118,
      "hit": false,
      "t": 124427.03999998701,
      "d": 94.69333333332906,
      "v": 50
    },
    {
      "midi": 67,
      "hit": false,
      "t": 124540.67199998701,
      "d": 85.22400000000198,
      "v": 80
    },
    {
      "midi": 24,
      "hit": false,
      "t": 124540.67199998701,
      "d": 94.69333333332906,
      "v": 127
    },
    {
      "midi": 15,
      "hit": false,
      "t": 124540.67199998701,
      "d": 94.69333333332906,
      "v": 100
    },
    {
      "midi": 13,
      "hit": false,
      "t": 124540.67199998701,
      "d": 94.69333333332906,
      "v": 100
    },
    {
      "midi": 10,
      "hit": false,
      "t": 124540.67199998701,
      "d": 94.69333333332906,
      "v": 127
    },
    {
      "midi": 42,
      "hit": false,
      "t": 124540.67199998701,
      "d": 94.69333333332906,
      "v": 92
    },
    {
      "midi": 43,
      "hit": false,
      "t": 124644.83466665367,
      "d": 94.69333333331451,
      "v": 90
    },
    {
      "midi": 48,
      "hit": false,
      "t": 124644.83466665367,
      "d": 94.69333333331451,
      "v": 90
    },
    {
      "midi": 72,
      "hit": false,
      "t": 124654.303999987,
      "d": 85.22399999998743,
      "v": 80
    },
    {
      "midi": 55,
      "hit": false,
      "t": 124654.303999987,
      "d": 94.69333333331451,
      "v": 90
    },
    {
      "midi": 60,
      "hit": false,
      "t": 124654.303999987,
      "d": 94.69333333331451,
      "v": 90
    },
    {
      "midi": 118,
      "hit": false,
      "t": 124654.303999987,
      "d": 94.69333333331451,
      "v": 50
    },
    {
      "midi": 64,
      "hit": false,
      "t": 124663.77333332032,
      "d": 94.69333333331451,
      "v": 90
    },
    {
      "midi": 42,
      "hit": false,
      "t": 124663.77333332032,
      "d": 94.69333333331451,
      "v": 78
    },
    {
      "midi": 64,
      "hit": false,
      "t": 124758.46666665364,
      "d": 208.3253333333123,
      "v": 100
    },
    {
      "midi": 60,
      "hit": false,
      "t": 124758.46666665364,
      "d": 208.3253333333123,
      "v": 100
    },
    {
      "midi": 76,
      "hit": false,
      "t": 124767.93599998696,
      "d": 85.22399999998743,
      "v": 80
    },
    {
      "midi": 24,
      "hit": false,
      "t": 124767.93599998696,
      "d": 94.69333333331451,
      "v": 127
    },
    {
      "midi": 118,
      "hit": false,
      "t": 124767.93599998696,
      "d": 94.69333333331451,
      "v": 30
    },
    {
      "midi": 55,
      "hit": false,
      "t": 124767.93599998696,
      "d": 208.3253333333123,
      "v": 100
    },
    {
      "midi": 48,
      "hit": false,
      "t": 124767.93599998696,
      "d": 208.3253333333123,
      "v": 100
    },
    {
      "midi": 43,
      "hit": false,
      "t": 124777.40533332029,
      "d": 208.3253333333123,
      "v": 100
    },
    {
      "midi": 46,
      "hit": false,
      "t": 124786.87466665362,
      "d": 94.69333333332906,
      "v": 92
    },
    {
      "midi": 79,
      "hit": false,
      "t": 124881.56799998695,
      "d": 85.22400000000198,
      "v": 80
    },
    {
      "midi": 63,
      "hit": false,
      "t": 124881.56799998695,
      "d": 94.69333333332906,
      "v": 80
    },
    {
      "midi": 43,
      "hit": false,
      "t": 124985.7306666536,
      "d": 208.32533333329775,
      "v": 100
    },
    {
      "midi": 48,
      "hit": false,
      "t": 124985.7306666536,
      "d": 208.32533333329775,
      "v": 100
    },
    {
      "midi": 84,
      "hit": false,
      "t": 124995.19999998693,
      "d": 85.22399999998743,
      "v": 80
    },
    {
      "midi": 24,
      "hit": false,
      "t": 124995.19999998693,
      "d": 94.69333333331451,
      "v": 127
    },
    {
      "midi": 15,
      "hit": false,
      "t": 124995.19999998693,
      "d": 94.69333333331451,
      "v": 100
    },
    {
      "midi": 13,
      "hit": false,
      "t": 124995.19999998693,
      "d": 94.69333333331451,
      "v": 100
    },
    {
      "midi": 10,
      "hit": false,
      "t": 124995.19999998693,
      "d": 94.69333333331451,
      "v": 127
    },
    {
      "midi": 127,
      "hit": false,
      "t": 124995.19999998693,
      "d": 94.69333333331451,
      "v": 60
    },
    {
      "midi": 108,
      "hit": false,
      "t": 124995.19999998693,
      "d": 94.69333333331451,
      "v": 80
    },
    {
      "midi": 105,
      "hit": false,
      "t": 124995.19999998693,
      "d": 94.69333333331451,
      "v": 100
    },
    {
      "midi": 42,
      "hit": false,
      "t": 124995.19999998693,
      "d": 94.69333333331451,
      "v": 92
    },
    {
      "midi": 118,
      "hit": false,
      "t": 124995.19999998693,
      "d": 94.69333333331451,
      "v": 50
    },
    {
      "midi": 60,
      "hit": false,
      "t": 124995.19999998693,
      "d": 208.32533333329775,
      "v": 100
    },
    {
      "midi": 55,
      "hit": false,
      "t": 124995.19999998693,
      "d": 208.32533333329775,
      "v": 100
    },
    {
      "midi": 91,
      "hit": false,
      "t": 124995.19999998693,
      "d": 426.11999999990803,
      "v": 90
    },
    {
      "midi": 64,
      "hit": false,
      "t": 125004.66933332026,
      "d": 85.22399999998743,
      "v": 100
    },
    {
      "midi": 79,
      "hit": false,
      "t": 125108.83199998691,
      "d": 85.22399999998743,
      "v": 80
    },
    {
      "midi": 24,
      "hit": false,
      "t": 125108.83199998691,
      "d": 94.69333333331451,
      "v": 127
    },
    {
      "midi": 42,
      "hit": false,
      "t": 125118.30133332024,
      "d": 94.69333333331451,
      "v": 78
    },
    {
      "midi": 76,
      "hit": false,
      "t": 125222.46399998688,
      "d": 85.22399999998743,
      "v": 80
    },
    {
      "midi": 24,
      "hit": false,
      "t": 125222.46399998688,
      "d": 94.69333333331451,
      "v": 127
    },
    {
      "midi": 48,
      "hit": false,
      "t": 125222.46399998688,
      "d": 94.69333333331451,
      "v": 110
    },
    {
      "midi": 118,
      "hit": false,
      "t": 125222.46399998688,
      "d": 94.69333333331451,
      "v": 50
    },
    {
      "midi": 55,
      "hit": false,
      "t": 125231.93333332021,
      "d": 85.22399999998743,
      "v": 110
    },
    {
      "midi": 43,
      "hit": false,
      "t": 125231.93333332021,
      "d": 85.22399999998743,
      "v": 90
    },
    {
      "midi": 52,
      "hit": false,
      "t": 125231.93333332021,
      "d": 94.69333333331451,
      "v": 110
    },
    {
      "midi": 64,
      "hit": false,
      "t": 125241.40266665354,
      "d": 66.28533333333326,
      "v": 110
    },
    {
      "midi": 60,
      "hit": false,
      "t": 125241.40266665354,
      "d": 66.28533333333326,
      "v": 110
    },
    {
      "midi": 46,
      "hit": false,
      "t": 125241.40266665354,
      "d": 94.69333333331451,
      "v": 92
    },
    {
      "midi": 72,
      "hit": false,
      "t": 125336.09599998685,
      "d": 85.22399999998743,
      "v": 80
    },
    {
      "midi": 60,
      "hit": false,
      "t": 125336.09599998685,
      "d": 94.69333333331451,
      "v": 110
    },
    {
      "midi": 118,
      "hit": false,
      "t": 125336.09599998685,
      "d": 94.69333333331451,
      "v": 30
    },
    {
      "midi": 55,
      "hit": false,
      "t": 125345.56533332018,
      "d": 85.22399999998743,
      "v": 110
    },
    {
      "midi": 64,
      "hit": false,
      "t": 125345.56533332018,
      "d": 85.22399999998743,
      "v": 90
    },
    {
      "midi": 52,
      "hit": false,
      "t": 125345.56533332018,
      "d": 94.69333333331451,
      "v": 110
    },
    {
      "midi": 43,
      "hit": false,
      "t": 125355.0346666535,
      "d": 66.28533333333326,
      "v": 110
    },
    {
      "midi": 48,
      "hit": false,
      "t": 125355.0346666535,
      "d": 66.28533333333326,
      "v": 110
    },
    {
      "midi": 64,
      "hit": false,
      "t": 125440.25866665349,
      "d": 9.469333333327086,
      "v": 100
    },
    {
      "midi": 88,
      "hit": false,
      "t": 125449.72799998682,
      "d": 85.22399999998743,
      "v": 117
    },
    {
      "midi": 33,
      "hit": false,
      "t": 125449.72799998682,
      "d": 94.69333333331451,
      "v": 127
    },
    {
      "midi": 15,
      "hit": false,
      "t": 125449.72799998682,
      "d": 94.69333333331451,
      "v": 100
    },
    {
      "midi": 13,
      "hit": false,
      "t": 125449.72799998682,
      "d": 94.69333333331451,
      "v": 100
    },
    {
      "midi": 10,
      "hit": false,
      "t": 125449.72799998682,
      "d": 94.69333333331451,
      "v": 127
    },
    {
      "midi": 42,
      "hit": false,
      "t": 125449.72799998682,
      "d": 94.69333333331451,
      "v": 92
    },
    {
      "midi": 100,
      "hit": false,
      "t": 125449.72799998682,
      "d": 426.1199999999517,
      "v": 90
    },
    {
      "midi": 52,
      "hit": false,
      "t": 125459.19733332015,
      "d": 653.3839999999327,
      "v": 115
    },
    {
      "midi": 49,
      "hit": false,
      "t": 125459.19733332015,
      "d": 653.3839999999327,
      "v": 115
    },
    {
      "midi": 45,
      "hit": false,
      "t": 125468.66666665347,
      "d": 653.3839999999327,
      "v": 115
    },
    {
      "midi": 85,
      "hit": false,
      "t": 125563.3599999868,
      "d": 85.22399999998743,
      "v": 80
    },
    {
      "midi": 33,
      "hit": false,
      "t": 125563.3599999868,
      "d": 94.69333333331451,
      "v": 127
    },
    {
      "midi": 42,
      "hit": false,
      "t": 125572.82933332013,
      "d": 94.69333333331451,
      "v": 78
    },
    {
      "midi": 81,
      "hit": false,
      "t": 125676.99199998677,
      "d": 85.22400000000198,
      "v": 80
    },
    {
      "midi": 33,
      "hit": false,
      "t": 125676.99199998677,
      "d": 94.69333333332906,
      "v": 127
    },
    {
      "midi": 46,
      "hit": false,
      "t": 125695.93066665344,
      "d": 94.69333333332906,
      "v": 92
    },
    {
      "midi": 76,
      "hit": false,
      "t": 125790.62399998677,
      "d": 85.22400000000198,
      "v": 80
    },
    {
      "midi": 33,
      "hit": false,
      "t": 125790.62399998677,
      "d": 94.69333333332906,
      "v": 127
    },
    {
      "midi": 64,
      "hit": false,
      "t": 125790.62399998677,
      "d": 94.69333333332906,
      "v": 70
    },
    {
      "midi": 73,
      "hit": false,
      "t": 125904.25599998677,
      "d": 85.22400000000198,
      "v": 80
    },
    {
      "midi": 33,
      "hit": false,
      "t": 125904.25599998677,
      "d": 94.69333333332906,
      "v": 127
    },
    {
      "midi": 15,
      "hit": false,
      "t": 125904.25599998677,
      "d": 94.69333333332906,
      "v": 100
    },
    {
      "midi": 13,
      "hit": false,
      "t": 125904.25599998677,
      "d": 94.69333333332906,
      "v": 100
    },
    {
      "midi": 10,
      "hit": false,
      "t": 125904.25599998677,
      "d": 94.69333333332906,
      "v": 127
    },
    {
      "midi": 127,
      "hit": false,
      "t": 125904.25599998677,
      "d": 94.69333333332906,
      "v": 60
    },
    {
      "midi": 108,
      "hit": false,
      "t": 125904.25599998677,
      "d": 94.69333333332906,
      "v": 80
    },
    {
      "midi": 105,
      "hit": false,
      "t": 125904.25599998677,
      "d": 94.69333333332906,
      "v": 100
    },
    {
      "midi": 42,
      "hit": false,
      "t": 125904.25599998677,
      "d": 94.69333333332906,
      "v": 92
    },
    {
      "midi": 118,
      "hit": false,
      "t": 125904.25599998677,
      "d": 94.69333333332906,
      "v": 50
    },
    {
      "midi": 63,
      "hit": false,
      "t": 125904.25599998677,
      "d": 94.69333333332906,
      "v": 70
    },
    {
      "midi": 57,
      "hit": false,
      "t": 125904.25599998677,
      "d": 198.85599999998522,
      "v": 127
    },
    {
      "midi": 93,
      "hit": false,
      "t": 125904.25599998677,
      "d": 426.1199999999226,
      "v": 117
    },
    {
      "midi": 69,
      "hit": false,
      "t": 126017.88799998676,
      "d": 85.22399999998743,
      "v": 80
    },
    {
      "midi": 42,
      "hit": false,
      "t": 126027.35733332009,
      "d": 94.69333333331451,
      "v": 78
    },
    {
      "midi": 45,
      "hit": false,
      "t": 126122.0506666534,
      "d": 9.469333333327086,
      "v": 90
    },
    {
      "midi": 45,
      "hit": false,
      "t": 126131.51999998673,
      "d": 85.22399999998743,
      "v": 105
    },
    {
      "midi": 49,
      "hit": false,
      "t": 126131.51999998673,
      "d": 85.22399999998743,
      "v": 105
    },
    {
      "midi": 33,
      "hit": false,
      "t": 126131.51999998673,
      "d": 94.69333333331451,
      "v": 127
    },
    {
      "midi": 52,
      "hit": false,
      "t": 126140.98933332006,
      "d": 85.22399999998743,
      "v": 105
    },
    {
      "midi": 57,
      "hit": false,
      "t": 126140.98933332006,
      "d": 85.22399999998743,
      "v": 105
    },
    {
      "midi": 64,
      "hit": false,
      "t": 126150.45866665339,
      "d": 66.28533333333326,
      "v": 105
    },
    {
      "midi": 46,
      "hit": false,
      "t": 126150.45866665339,
      "d": 94.69333333331451,
      "v": 92
    },
    {
      "midi": 64,
      "hit": false,
      "t": 126235.68266665337,
      "d": 9.469333333327086,
      "v": 100
    },
    {
      "midi": 57,
      "hit": false,
      "t": 126245.1519999867,
      "d": 85.22399999998743,
      "v": 115
    },
    {
      "midi": 73,
      "hit": false,
      "t": 126245.1519999867,
      "d": 85.22399999998743,
      "v": 80
    },
    {
      "midi": 33,
      "hit": false,
      "t": 126245.1519999867,
      "d": 94.69333333331451,
      "v": 127
    },
    {
      "midi": 118,
      "hit": false,
      "t": 126245.1519999867,
      "d": 94.69333333331451,
      "v": 50
    },
    {
      "midi": 64,
      "hit": false,
      "t": 126245.1519999867,
      "d": 312.48799999996845,
      "v": 115
    },
    {
      "midi": 52,
      "hit": false,
      "t": 126254.62133332003,
      "d": 312.48799999996845,
      "v": 115
    },
    {
      "midi": 49,
      "hit": false,
      "t": 126254.62133332003,
      "d": 312.48799999996845,
      "v": 115
    },
    {
      "midi": 45,
      "hit": false,
      "t": 126264.09066665336,
      "d": 312.48799999996845,
      "v": 115
    },
    {
      "midi": 76,
      "hit": false,
      "t": 126358.78399998668,
      "d": 85.22400000000198,
      "v": 80
    },
    {
      "midi": 15,
      "hit": false,
      "t": 126358.78399998668,
      "d": 94.69333333332906,
      "v": 100
    },
    {
      "midi": 13,
      "hit": false,
      "t": 126358.78399998668,
      "d": 94.69333333332906,
      "v": 100
    },
    {
      "midi": 10,
      "hit": false,
      "t": 126358.78399998668,
      "d": 94.69333333332906,
      "v": 127
    },
    {
      "midi": 42,
      "hit": false,
      "t": 126358.78399998668,
      "d": 94.69333333332906,
      "v": 92
    },
    {
      "midi": 33,
      "hit": false,
      "t": 126358.78399998668,
      "d": 208.3253333333123,
      "v": 127
    },
    {
      "midi": 58,
      "hit": false,
      "t": 126358.78399998668,
      "d": 426.1199999999517,
      "v": 127
    },
    {
      "midi": 70,
      "hit": false,
      "t": 126358.78399998668,
      "d": 426.1199999999517,
      "v": 100
    },
    {
      "midi": 106,
      "hit": false,
      "t": 126358.78399998668,
      "d": 426.1199999999517,
      "v": 90
    },
    {
      "midi": 94,
      "hit": false,
      "t": 126358.78399998668,
      "d": 426.1199999999517,
      "v": 117
    },
    {
      "midi": 81,
      "hit": false,
      "t": 126472.41599998668,
      "d": 85.22399999998743,
      "v": 80
    },
    {
      "midi": 118,
      "hit": false,
      "t": 126472.41599998668,
      "d": 94.69333333331451,
      "v": 50
    },
    {
      "midi": 42,
      "hit": false,
      "t": 126481.88533332001,
      "d": 94.69333333331451,
      "v": 78
    },
    {
      "midi": 45,
      "hit": false,
      "t": 126576.57866665332,
      "d": 208.3253333333123,
      "v": 90
    },
    {
      "midi": 49,
      "hit": false,
      "t": 126576.57866665332,
      "d": 208.3253333333123,
      "v": 90
    },
    {
      "midi": 85,
      "hit": false,
      "t": 126586.04799998665,
      "d": 85.22399999998743,
      "v": 80
    },
    {
      "midi": 105,
      "hit": false,
      "t": 126586.04799998665,
      "d": 94.69333333331451,
      "v": 100
    },
    {
      "midi": 108,
      "hit": false,
      "t": 126586.04799998665,
      "d": 94.69333333331451,
      "v": 80
    },
    {
      "midi": 127,
      "hit": false,
      "t": 126586.04799998665,
      "d": 94.69333333331451,
      "v": 60
    },
    {
      "midi": 118,
      "hit": false,
      "t": 126586.04799998665,
      "d": 94.69333333331451,
      "v": 30
    },
    {
      "midi": 24,
      "hit": false,
      "t": 126586.04799998665,
      "d": 208.3253333333123,
      "v": 127
    },
    {
      "midi": 52,
      "hit": false,
      "t": 126586.04799998665,
      "d": 208.3253333333123,
      "v": 90
    },
    {
      "midi": 57,
      "hit": false,
      "t": 126586.04799998665,
      "d": 208.3253333333123,
      "v": 90
    },
    {
      "midi": 64,
      "hit": false,
      "t": 126595.51733331998,
      "d": 208.3253333333123,
      "v": 90
    },
    {
      "midi": 46,
      "hit": false,
      "t": 126604.9866666533,
      "d": 94.69333333332906,
      "v": 92
    },
    {
      "midi": 88,
      "hit": false,
      "t": 126699.67999998663,
      "d": 85.22400000000198,
      "v": 80
    },
    {
      "midi": 63,
      "hit": false,
      "t": 126699.67999998663,
      "d": 94.69333333332906,
      "v": 80
    },
    {
      "midi": 93,
      "hit": false,
      "t": 126813.31199998662,
      "d": 85.22399999998743,
      "v": 117
    },
    {
      "midi": 15,
      "hit": false,
      "t": 126813.31199998662,
      "d": 94.69333333331451,
      "v": 100
    },
    {
      "midi": 13,
      "hit": false,
      "t": 126813.31199998662,
      "d": 94.69333333331451,
      "v": 100
    },
    {
      "midi": 10,
      "hit": false,
      "t": 126813.31199998662,
      "d": 94.69333333331451,
      "v": 127
    },
    {
      "midi": 105,
      "hit": false,
      "t": 126813.31199998662,
      "d": 94.69333333331451,
      "v": 100
    },
    {
      "midi": 108,
      "hit": false,
      "t": 126813.31199998662,
      "d": 94.69333333331451,
      "v": 80
    },
    {
      "midi": 127,
      "hit": false,
      "t": 126813.31199998662,
      "d": 94.69333333331451,
      "v": 60
    },
    {
      "midi": 42,
      "hit": false,
      "t": 126813.31199998662,
      "d": 94.69333333331451,
      "v": 92
    },
    {
      "midi": 118,
      "hit": false,
      "t": 126813.31199998662,
      "d": 94.69333333331451,
      "v": 50
    },
    {
      "midi": 64,
      "hit": false,
      "t": 126813.31199998662,
      "d": 94.69333333331451,
      "v": 70
    },
    {
      "midi": 57,
      "hit": false,
      "t": 126813.31199998662,
      "d": 198.85599999997066,
      "v": 127
    },
    {
      "midi": 26,
      "hit": false,
      "t": 126813.31199998662,
      "d": 208.32533333329775,
      "v": 127
    },
    {
      "midi": 52,
      "hit": false,
      "t": 126813.31199998662,
      "d": 208.32533333329775,
      "v": 90
    },
    {
      "midi": 49,
      "hit": false,
      "t": 126813.31199998662,
      "d": 208.32533333329775,
      "v": 90
    },
    {
      "midi": 69,
      "hit": false,
      "t": 126813.31199998662,
      "d": 426.11999999990803,
      "v": 100
    },
    {
      "midi": 45,
      "hit": false,
      "t": 126822.78133331994,
      "d": 208.32533333329775,
      "v": 90
    },
    {
      "midi": 88,
      "hit": false,
      "t": 126926.9439999866,
      "d": 85.22399999998743,
      "v": 80
    },
    {
      "midi": 42,
      "hit": false,
      "t": 126936.41333331993,
      "d": 94.69333333331451,
      "v": 78
    },
    {
      "midi": 45,
      "hit": false,
      "t": 127031.10666665324,
      "d": 94.69333333331451,
      "v": 100
    },
    {
      "midi": 49,
      "hit": false,
      "t": 127031.10666665324,
      "d": 94.69333333331451,
      "v": 100
    },
    {
      "midi": 85,
      "hit": false,
      "t": 127040.57599998657,
      "d": 85.22399999998743,
      "v": 80
    },
    {
      "midi": 52,
      "hit": false,
      "t": 127040.57599998657,
      "d": 94.69333333331451,
      "v": 100
    },
    {
      "midi": 57,
      "hit": false,
      "t": 127040.57599998657,
      "d": 94.69333333331451,
      "v": 100
    },
    {
      "midi": 15,
      "hit": false,
      "t": 127040.57599998657,
      "d": 94.69333333331451,
      "v": 100
    },
    {
      "midi": 13,
      "hit": false,
      "t": 127040.57599998657,
      "d": 94.69333333331451,
      "v": 100
    },
    {
      "midi": 10,
      "hit": false,
      "t": 127040.57599998657,
      "d": 94.69333333331451,
      "v": 127
    },
    {
      "midi": 105,
      "hit": false,
      "t": 127040.57599998657,
      "d": 94.69333333331451,
      "v": 100
    },
    {
      "midi": 108,
      "hit": false,
      "t": 127040.57599998657,
      "d": 94.69333333331451,
      "v": 80
    },
    {
      "midi": 127,
      "hit": false,
      "t": 127040.57599998657,
      "d": 94.69333333331451,
      "v": 60
    },
    {
      "midi": 118,
      "hit": false,
      "t": 127040.57599998657,
      "d": 94.69333333331451,
      "v": 50
    },
    {
      "midi": 28,
      "hit": false,
      "t": 127040.57599998657,
      "d": 208.3253333332832,
      "v": 127
    },
    {
      "midi": 64,
      "hit": false,
      "t": 127050.0453333199,
      "d": 94.69333333331451,
      "v": 100
    },
    {
      "midi": 46,
      "hit": false,
      "t": 127059.51466665322,
      "d": 94.69333333331451,
      "v": 92
    },
    {
      "midi": 57,
      "hit": false,
      "t": 127144.73866665321,
      "d": 94.69333333331451,
      "v": 95
    },
    {
      "midi": 64,
      "hit": false,
      "t": 127144.73866665321,
      "d": 94.69333333331451,
      "v": 95
    },
    {
      "midi": 105,
      "hit": false,
      "t": 127154.20799998654,
      "d": 85.22399999998743,
      "v": 100
    },
    {
      "midi": 52,
      "hit": false,
      "t": 127154.20799998654,
      "d": 94.69333333331451,
      "v": 95
    },
    {
      "midi": 49,
      "hit": false,
      "t": 127154.20799998654,
      "d": 94.69333333331451,
      "v": 95
    },
    {
      "midi": 108,
      "hit": false,
      "t": 127154.20799998654,
      "d": 94.69333333331451,
      "v": 80
    },
    {
      "midi": 127,
      "hit": false,
      "t": 127154.20799998654,
      "d": 94.69333333331451,
      "v": 60
    },
    {
      "midi": 118,
      "hit": false,
      "t": 127154.20799998654,
      "d": 94.69333333331451,
      "v": 30
    },
    {
      "midi": 45,
      "hit": false,
      "t": 127163.67733331987,
      "d": 94.69333333331451,
      "v": 95
    },
    {
      "midi": 81,
      "hit": false,
      "t": 127211.02399998653,
      "d": 28.40799999999581,
      "v": 127
    },
    {
      "midi": 86,
      "hit": false,
      "t": 127267.8399999865,
      "d": 85.22399999995832,
      "v": 80
    },
    {
      "midi": 26,
      "hit": false,
      "t": 127267.8399999865,
      "d": 94.69333333328541,
      "v": 127
    },
    {
      "midi": 15,
      "hit": false,
      "t": 127267.8399999865,
      "d": 94.69333333328541,
      "v": 100
    },
    {
      "midi": 13,
      "hit": false,
      "t": 127267.8399999865,
      "d": 94.69333333328541,
      "v": 100
    },
    {
      "midi": 10,
      "hit": false,
      "t": 127267.8399999865,
      "d": 94.69333333328541,
      "v": 127
    },
    {
      "midi": 42,
      "hit": false,
      "t": 127267.8399999865,
      "d": 94.69333333328541,
      "v": 92
    },
    {
      "midi": 76,
      "hit": false,
      "t": 127267.8399999865,
      "d": 312.4879999999248,
      "v": 100
    },
    {
      "midi": 64,
      "hit": false,
      "t": 127267.8399999865,
      "d": 321.9573333332519,
      "v": 127
    },
    {
      "midi": 84,
      "hit": false,
      "t": 127267.8399999865,
      "d": 426.1199999999226,
      "v": 127
    },
    {
      "midi": 62,
      "hit": false,
      "t": 127267.8399999865,
      "d": 653.3839999999036,
      "v": 115
    },
    {
      "midi": 57,
      "hit": false,
      "t": 127267.8399999865,
      "d": 653.3839999999036,
      "v": 115
    },
    {
      "midi": 112,
      "hit": false,
      "t": 127267.8399999865,
      "d": 1799.1733333330048,
      "v": 90
    },
    {
      "midi": 100,
      "hit": false,
      "t": 127267.8399999865,
      "d": 1799.1733333330048,
      "v": 117
    },
    {
      "midi": 53,
      "hit": false,
      "t": 127277.30933331983,
      "d": 653.3839999999036,
      "v": 115
    },
    {
      "midi": 45,
      "hit": false,
      "t": 127277.30933331983,
      "d": 653.3839999999036,
      "v": 115
    },
    {
      "midi": 50,
      "hit": false,
      "t": 127277.30933331983,
      "d": 662.8533333332307,
      "v": 115
    },
    {
      "midi": 38,
      "hit": false,
      "t": 127286.77866665316,
      "d": 653.3839999999036,
      "v": 115
    },
    {
      "midi": 88,
      "hit": false,
      "t": 127324.65599998647,
      "d": 426.1199999999517,
      "v": 127
    },
    {
      "midi": 81,
      "hit": false,
      "t": 127381.47199998646,
      "d": 85.22399999998743,
      "v": 80
    },
    {
      "midi": 26,
      "hit": false,
      "t": 127381.47199998646,
      "d": 94.69333333331451,
      "v": 127
    },
    {
      "midi": 42,
      "hit": false,
      "t": 127390.94133331979,
      "d": 94.69333333331451,
      "v": 78
    },
    {
      "midi": 77,
      "hit": false,
      "t": 127495.10399998643,
      "d": 85.22400000000198,
      "v": 80
    },
    {
      "midi": 26,
      "hit": false,
      "t": 127495.10399998643,
      "d": 94.69333333332906,
      "v": 127
    },
    {
      "midi": 46,
      "hit": false,
      "t": 127514.0426666531,
      "d": 94.69333333332906,
      "v": 92
    },
    {
      "midi": 74,
      "hit": false,
      "t": 127608.73599998643,
      "d": 85.22400000000198,
      "v": 80
    },
    {
      "midi": 26,
      "hit": false,
      "t": 127608.73599998643,
      "d": 94.69333333332906,
      "v": 127
    },
    {
      "midi": 64,
      "hit": false,
      "t": 127608.73599998643,
      "d": 94.69333333332906,
      "v": 70
    },
    {
      "midi": 69,
      "hit": false,
      "t": 127722.36799998643,
      "d": 85.22400000000198,
      "v": 80
    },
    {
      "midi": 26,
      "hit": false,
      "t": 127722.36799998643,
      "d": 94.69333333332906,
      "v": 127
    },
    {
      "midi": 15,
      "hit": false,
      "t": 127722.36799998643,
      "d": 94.69333333332906,
      "v": 100
    },
    {
      "midi": 13,
      "hit": false,
      "t": 127722.36799998643,
      "d": 94.69333333332906,
      "v": 100
    },
    {
      "midi": 10,
      "hit": false,
      "t": 127722.36799998643,
      "d": 94.69333333332906,
      "v": 127
    },
    {
      "midi": 127,
      "hit": false,
      "t": 127722.36799998643,
      "d": 94.69333333332906,
      "v": 60
    },
    {
      "midi": 108,
      "hit": false,
      "t": 127722.36799998643,
      "d": 94.69333333332906,
      "v": 80
    },
    {
      "midi": 105,
      "hit": false,
      "t": 127722.36799998643,
      "d": 94.69333333332906,
      "v": 100
    },
    {
      "midi": 42,
      "hit": false,
      "t": 127722.36799998643,
      "d": 94.69333333332906,
      "v": 92
    },
    {
      "midi": 118,
      "hit": false,
      "t": 127722.36799998643,
      "d": 94.69333333332906,
      "v": 50
    },
    {
      "midi": 63,
      "hit": false,
      "t": 127722.36799998643,
      "d": 94.69333333332906,
      "v": 70
    },
    {
      "midi": 65,
      "hit": false,
      "t": 127835.99999998642,
      "d": 85.22399999998743,
      "v": 80
    },
    {
      "midi": 42,
      "hit": false,
      "t": 127845.46933331975,
      "d": 94.69333333331451,
      "v": 78
    },
    {
      "midi": 38,
      "hit": false,
      "t": 127940.16266665306,
      "d": 9.469333333327086,
      "v": 90
    },
    {
      "midi": 38,
      "hit": false,
      "t": 127949.63199998639,
      "d": 85.22399999998743,
      "v": 115
    },
    {
      "midi": 45,
      "hit": false,
      "t": 127949.63199998639,
      "d": 85.22399999998743,
      "v": 115
    },
    {
      "midi": 26,
      "hit": false,
      "t": 127949.63199998639,
      "d": 94.69333333331451,
      "v": 127
    },
    {
      "midi": 64,
      "hit": false,
      "t": 127949.63199998639,
      "d": 303.0186666666268,
      "v": 127
    },
    {
      "midi": 53,
      "hit": false,
      "t": 127959.10133331972,
      "d": 85.22399999998743,
      "v": 115
    },
    {
      "midi": 57,
      "hit": false,
      "t": 127959.10133331972,
      "d": 85.22399999998743,
      "v": 115
    },
    {
      "midi": 50,
      "hit": false,
      "t": 127959.10133331972,
      "d": 1117.38133333312,
      "v": 115
    },
    {
      "midi": 62,
      "hit": false,
      "t": 127968.57066665305,
      "d": 66.28533333333326,
      "v": 115
    },
    {
      "midi": 46,
      "hit": false,
      "t": 127968.57066665305,
      "d": 94.69333333331451,
      "v": 92
    },
    {
      "midi": 62,
      "hit": false,
      "t": 128053.79466665303,
      "d": 321.95733333329554,
      "v": 100
    },
    {
      "midi": 57,
      "hit": false,
      "t": 128053.79466665303,
      "d": 321.95733333329554,
      "v": 100
    },
    {
      "midi": 65,
      "hit": false,
      "t": 128063.26399998636,
      "d": 85.22399999998743,
      "v": 80
    },
    {
      "midi": 26,
      "hit": false,
      "t": 128063.26399998636,
      "d": 94.69333333331451,
      "v": 127
    },
    {
      "midi": 118,
      "hit": false,
      "t": 128063.26399998636,
      "d": 94.69333333331451,
      "v": 50
    },
    {
      "midi": 53,
      "hit": false,
      "t": 128063.26399998636,
      "d": 321.95733333329554,
      "v": 100
    },
    {
      "midi": 45,
      "hit": false,
      "t": 128063.26399998636,
      "d": 321.95733333329554,
      "v": 100
    },
    {
      "midi": 38,
      "hit": false,
      "t": 128072.73333331969,
      "d": 321.95733333329554,
      "v": 100
    },
    {
      "midi": 69,
      "hit": false,
      "t": 128176.89599998634,
      "d": 85.22400000000198,
      "v": 80
    },
    {
      "midi": 26,
      "hit": false,
      "t": 128176.89599998634,
      "d": 94.69333333332906,
      "v": 127
    },
    {
      "midi": 15,
      "hit": false,
      "t": 128176.89599998634,
      "d": 94.69333333332906,
      "v": 100
    },
    {
      "midi": 13,
      "hit": false,
      "t": 128176.89599998634,
      "d": 94.69333333332906,
      "v": 100
    },
    {
      "midi": 10,
      "hit": false,
      "t": 128176.89599998634,
      "d": 94.69333333332906,
      "v": 127
    },
    {
      "midi": 42,
      "hit": false,
      "t": 128176.89599998634,
      "d": 94.69333333332906,
      "v": 92
    },
    {
      "midi": 74,
      "hit": false,
      "t": 128290.52799998634,
      "d": 85.22399999998743,
      "v": 80
    },
    {
      "midi": 118,
      "hit": false,
      "t": 128290.52799998634,
      "d": 94.69333333331451,
      "v": 50
    },
    {
      "midi": 42,
      "hit": false,
      "t": 128299.99733331967,
      "d": 94.69333333331451,
      "v": 78
    },
    {
      "midi": 38,
      "hit": false,
      "t": 128394.69066665298,
      "d": 208.3253333333123,
      "v": 90
    },
    {
      "midi": 45,
      "hit": false,
      "t": 128394.69066665298,
      "d": 208.3253333333123,
      "v": 90
    },
    {
      "midi": 77,
      "hit": false,
      "t": 128404.15999998631,
      "d": 85.22399999998743,
      "v": 80
    },
    {
      "midi": 26,
      "hit": false,
      "t": 128404.15999998631,
      "d": 94.69333333331451,
      "v": 127
    },
    {
      "midi": 118,
      "hit": false,
      "t": 128404.15999998631,
      "d": 94.69333333331451,
      "v": 30
    },
    {
      "midi": 53,
      "hit": false,
      "t": 128404.15999998631,
      "d": 208.3253333333123,
      "v": 90
    },
    {
      "midi": 57,
      "hit": false,
      "t": 128404.15999998631,
      "d": 208.3253333333123,
      "v": 90
    },
    {
      "midi": 62,
      "hit": false,
      "t": 128413.62933331964,
      "d": 198.85599999998522,
      "v": 90
    },
    {
      "midi": 46,
      "hit": false,
      "t": 128423.09866665296,
      "d": 94.69333333332906,
      "v": 92
    },
    {
      "midi": 81,
      "hit": false,
      "t": 128517.7919999863,
      "d": 85.22400000000198,
      "v": 80
    },
    {
      "midi": 63,
      "hit": false,
      "t": 128517.7919999863,
      "d": 94.69333333332906,
      "v": 80
    },
    {
      "midi": 62,
      "hit": false,
      "t": 128621.95466665295,
      "d": 208.32533333329775,
      "v": 90
    },
    {
      "midi": 57,
      "hit": false,
      "t": 128621.95466665295,
      "d": 208.32533333329775,
      "v": 90
    },
    {
      "midi": 86,
      "hit": false,
      "t": 128631.42399998628,
      "d": 85.22399999998743,
      "v": 80
    },
    {
      "midi": 26,
      "hit": false,
      "t": 128631.42399998628,
      "d": 94.69333333331451,
      "v": 127
    },
    {
      "midi": 15,
      "hit": false,
      "t": 128631.42399998628,
      "d": 94.69333333331451,
      "v": 100
    },
    {
      "midi": 13,
      "hit": false,
      "t": 128631.42399998628,
      "d": 94.69333333331451,
      "v": 100
    },
    {
      "midi": 10,
      "hit": false,
      "t": 128631.42399998628,
      "d": 94.69333333331451,
      "v": 127
    },
    {
      "midi": 127,
      "hit": false,
      "t": 128631.42399998628,
      "d": 94.69333333331451,
      "v": 60
    },
    {
      "midi": 108,
      "hit": false,
      "t": 128631.42399998628,
      "d": 94.69333333331451,
      "v": 80
    },
    {
      "midi": 105,
      "hit": false,
      "t": 128631.42399998628,
      "d": 94.69333333331451,
      "v": 100
    },
    {
      "midi": 42,
      "hit": false,
      "t": 128631.42399998628,
      "d": 94.69333333331451,
      "v": 92
    },
    {
      "midi": 118,
      "hit": false,
      "t": 128631.42399998628,
      "d": 94.69333333331451,
      "v": 50
    },
    {
      "midi": 64,
      "hit": false,
      "t": 128631.42399998628,
      "d": 94.69333333331451,
      "v": 70
    },
    {
      "midi": 61,
      "hit": false,
      "t": 128631.42399998628,
      "d": 208.32533333329775,
      "v": 127
    },
    {
      "midi": 53,
      "hit": false,
      "t": 128631.42399998628,
      "d": 208.32533333329775,
      "v": 90
    },
    {
      "midi": 45,
      "hit": false,
      "t": 128631.42399998628,
      "d": 208.32533333329775,
      "v": 90
    },
    {
      "midi": 38,
      "hit": false,
      "t": 128640.8933333196,
      "d": 208.32533333329775,
      "v": 90
    },
    {
      "midi": 81,
      "hit": false,
      "t": 128745.05599998626,
      "d": 85.22399999998743,
      "v": 80
    },
    {
      "midi": 26,
      "hit": false,
      "t": 128745.05599998626,
      "d": 94.69333333331451,
      "v": 127
    },
    {
      "midi": 42,
      "hit": false,
      "t": 128754.52533331959,
      "d": 94.69333333331451,
      "v": 78
    },
    {
      "midi": 38,
      "hit": false,
      "t": 128849.2186666529,
      "d": 94.69333333331451,
      "v": 80
    },
    {
      "midi": 45,
      "hit": false,
      "t": 128849.2186666529,
      "d": 94.69333333331451,
      "v": 80
    },
    {
      "midi": 77,
      "hit": false,
      "t": 128858.68799998623,
      "d": 85.22399999998743,
      "v": 80
    },
    {
      "midi": 26,
      "hit": false,
      "t": 128858.68799998623,
      "d": 94.69333333331451,
      "v": 127
    },
    {
      "midi": 53,
      "hit": false,
      "t": 128858.68799998623,
      "d": 94.69333333331451,
      "v": 80
    },
    {
      "midi": 57,
      "hit": false,
      "t": 128858.68799998623,
      "d": 94.69333333331451,
      "v": 80
    },
    {
      "midi": 118,
      "hit": false,
      "t": 128858.68799998623,
      "d": 94.69333333331451,
      "v": 50
    },
    {
      "midi": 62,
      "hit": false,
      "t": 128868.15733331956,
      "d": 94.69333333331451,
      "v": 80
    },
    {
      "midi": 46,
      "hit": false,
      "t": 128877.62666665288,
      "d": 94.69333333331451,
      "v": 92
    },
    {
      "midi": 62,
      "hit": false,
      "t": 128962.85066665287,
      "d": 94.69333333331451,
      "v": 80
    },
    {
      "midi": 57,
      "hit": false,
      "t": 128962.85066665287,
      "d": 94.69333333331451,
      "v": 80
    },
    {
      "midi": 74,
      "hit": false,
      "t": 128972.3199999862,
      "d": 85.22399999998743,
      "v": 127
    },
    {
      "midi": 45,
      "hit": false,
      "t": 128972.3199999862,
      "d": 94.69333333331451,
      "v": 80
    },
    {
      "midi": 53,
      "hit": false,
      "t": 128972.3199999862,
      "d": 94.69333333331451,
      "v": 80
    },
    {
      "midi": 118,
      "hit": false,
      "t": 128972.3199999862,
      "d": 94.69333333331451,
      "v": 30
    },
    {
      "midi": 38,
      "hit": false,
      "t": 128981.78933331952,
      "d": 85.22399999998743,
      "v": 80
    },
    {
      "midi": 62,
      "hit": false,
      "t": 129076.48266665284,
      "d": 9.469333333327086,
      "v": 100
    },
    {
      "midi": 31,
      "hit": false,
      "t": 129085.95199998617,
      "d": 94.69333333328541,
      "v": 127
    },
    {
      "midi": 15,
      "hit": false,
      "t": 129085.95199998617,
      "d": 94.69333333328541,
      "v": 100
    },
    {
      "midi": 13,
      "hit": false,
      "t": 129085.95199998617,
      "d": 94.69333333328541,
      "v": 100
    },
    {
      "midi": 10,
      "hit": false,
      "t": 129085.95199998617,
      "d": 94.69333333328541,
      "v": 127
    },
    {
      "midi": 42,
      "hit": false,
      "t": 129085.95199998617,
      "d": 94.69333333328541,
      "v": 92
    },
    {
      "midi": 64,
      "hit": false,
      "t": 129085.95199998617,
      "d": 321.9573333332519,
      "v": 127
    },
    {
      "midi": 62,
      "hit": false,
      "t": 129085.95199998617,
      "d": 653.3839999998745,
      "v": 107
    },
    {
      "midi": 59,
      "hit": false,
      "t": 129095.4213333195,
      "d": 653.3839999998745,
      "v": 115
    },
    {
      "midi": 43,
      "hit": false,
      "t": 129095.4213333195,
      "d": 662.8533333332016,
      "v": 100
    },
    {
      "midi": 55,
      "hit": false,
      "t": 129095.4213333195,
      "d": 662.8533333332016,
      "v": 115
    },
    {
      "midi": 50,
      "hit": false,
      "t": 129104.89066665282,
      "d": 643.9146666665474,
      "v": 115
    },
    {
      "midi": 47,
      "hit": false,
      "t": 129104.89066665282,
      "d": 662.8533333332016,
      "v": 115
    },
    {
      "midi": 86,
      "hit": false,
      "t": 129142.76799998613,
      "d": 28.40799999999581,
      "v": 127
    },
    {
      "midi": 83,
      "hit": false,
      "t": 129199.58399998612,
      "d": 85.22399999998743,
      "v": 80
    },
    {
      "midi": 31,
      "hit": false,
      "t": 129199.58399998612,
      "d": 94.69333333331451,
      "v": 127
    },
    {
      "midi": 42,
      "hit": false,
      "t": 129209.05333331945,
      "d": 94.69333333331451,
      "v": 78
    },
    {
      "midi": 79,
      "hit": false,
      "t": 129313.21599998609,
      "d": 85.22400000000198,
      "v": 80
    },
    {
      "midi": 31,
      "hit": false,
      "t": 129313.21599998609,
      "d": 94.69333333332906,
      "v": 127
    },
    {
      "midi": 46,
      "hit": false,
      "t": 129332.15466665276,
      "d": 94.69333333332906,
      "v": 92
    },
    {
      "midi": 74,
      "hit": false,
      "t": 129426.84799998609,
      "d": 85.22399999998743,
      "v": 80
    },
    {
      "midi": 31,
      "hit": false,
      "t": 129426.84799998609,
      "d": 94.69333333331451,
      "v": 127
    },
    {
      "midi": 64,
      "hit": false,
      "t": 129426.84799998609,
      "d": 94.69333333331451,
      "v": 70
    },
    {
      "midi": 71,
      "hit": false,
      "t": 129540.47999998607,
      "d": 85.22399999998743,
      "v": 80
    },
    {
      "midi": 31,
      "hit": false,
      "t": 129540.47999998607,
      "d": 94.69333333331451,
      "v": 127
    },
    {
      "midi": 15,
      "hit": false,
      "t": 129540.47999998607,
      "d": 94.69333333331451,
      "v": 100
    },
    {
      "midi": 13,
      "hit": false,
      "t": 129540.47999998607,
      "d": 94.69333333331451,
      "v": 100
    },
    {
      "midi": 10,
      "hit": false,
      "t": 129540.47999998607,
      "d": 94.69333333331451,
      "v": 127
    },
    {
      "midi": 127,
      "hit": false,
      "t": 129540.47999998607,
      "d": 94.69333333331451,
      "v": 60
    },
    {
      "midi": 108,
      "hit": false,
      "t": 129540.47999998607,
      "d": 94.69333333331451,
      "v": 80
    },
    {
      "midi": 105,
      "hit": false,
      "t": 129540.47999998607,
      "d": 94.69333333331451,
      "v": 100
    },
    {
      "midi": 42,
      "hit": false,
      "t": 129540.47999998607,
      "d": 94.69333333331451,
      "v": 92
    },
    {
      "midi": 118,
      "hit": false,
      "t": 129540.47999998607,
      "d": 94.69333333331451,
      "v": 50
    },
    {
      "midi": 63,
      "hit": false,
      "t": 129540.47999998607,
      "d": 94.69333333331451,
      "v": 70
    },
    {
      "midi": 67,
      "hit": false,
      "t": 129654.11199998605,
      "d": 85.22399999998743,
      "v": 80
    },
    {
      "midi": 42,
      "hit": false,
      "t": 129663.58133331938,
      "d": 94.69333333331451,
      "v": 78
    },
    {
      "midi": 62,
      "hit": false,
      "t": 129767.74399998602,
      "d": 85.22399999998743,
      "v": 115
    },
    {
      "midi": 67,
      "hit": false,
      "t": 129767.74399998602,
      "d": 189.38666666664358,
      "v": 115
    },
    {
      "midi": 31,
      "hit": false,
      "t": 129767.74399998602,
      "d": 208.32533333329775,
      "v": 127
    },
    {
      "midi": 59,
      "hit": false,
      "t": 129777.21333331935,
      "d": 416.65066666661005,
      "v": 115
    },
    {
      "midi": 43,
      "hit": false,
      "t": 129777.21333331935,
      "d": 426.11999999993714,
      "v": 110
    },
    {
      "midi": 55,
      "hit": false,
      "t": 129777.21333331935,
      "d": 1117.38133333312,
      "v": 115
    },
    {
      "midi": 46,
      "hit": false,
      "t": 129786.68266665268,
      "d": 94.69333333332906,
      "v": 92
    },
    {
      "midi": 50,
      "hit": false,
      "t": 129786.68266665268,
      "d": 407.18133333328296,
      "v": 115
    },
    {
      "midi": 47,
      "hit": false,
      "t": 129786.68266665268,
      "d": 1117.38133333312,
      "v": 115
    },
    {
      "midi": 71,
      "hit": false,
      "t": 129881.375999986,
      "d": 85.22399999998743,
      "v": 80
    },
    {
      "midi": 118,
      "hit": false,
      "t": 129881.375999986,
      "d": 94.69333333331451,
      "v": 50
    },
    {
      "midi": 74,
      "hit": false,
      "t": 129995.00799998599,
      "d": 85.22399999998743,
      "v": 80
    },
    {
      "midi": 31,
      "hit": false,
      "t": 129995.00799998599,
      "d": 94.69333333331451,
      "v": 127
    },
    {
      "midi": 15,
      "hit": false,
      "t": 129995.00799998599,
      "d": 94.69333333331451,
      "v": 100
    },
    {
      "midi": 13,
      "hit": false,
      "t": 129995.00799998599,
      "d": 94.69333333331451,
      "v": 100
    },
    {
      "midi": 10,
      "hit": false,
      "t": 129995.00799998599,
      "d": 94.69333333331451,
      "v": 127
    },
    {
      "midi": 42,
      "hit": false,
      "t": 129995.00799998599,
      "d": 94.69333333331451,
      "v": 92
    },
    {
      "midi": 79,
      "hit": false,
      "t": 130108.63999998597,
      "d": 85.22399999998743,
      "v": 80
    },
    {
      "midi": 118,
      "hit": false,
      "t": 130108.63999998597,
      "d": 94.69333333331451,
      "v": 50
    },
    {
      "midi": 42,
      "hit": false,
      "t": 130118.1093333193,
      "d": 94.69333333331451,
      "v": 78
    },
    {
      "midi": 43,
      "hit": false,
      "t": 130212.80266665261,
      "d": 208.3253333333123,
      "v": 100
    },
    {
      "midi": 50,
      "hit": false,
      "t": 130212.80266665261,
      "d": 208.3253333333123,
      "v": 100
    },
    {
      "midi": 83,
      "hit": false,
      "t": 130222.27199998594,
      "d": 85.22399999998743,
      "v": 80
    },
    {
      "midi": 31,
      "hit": false,
      "t": 130222.27199998594,
      "d": 94.69333333331451,
      "v": 127
    },
    {
      "midi": 118,
      "hit": false,
      "t": 130222.27199998594,
      "d": 94.69333333331451,
      "v": 30
    },
    {
      "midi": 60,
      "hit": false,
      "t": 130222.27199998594,
      "d": 208.3253333333123,
      "v": 127
    },
    {
      "midi": 74,
      "hit": false,
      "t": 130222.27199998594,
      "d": 208.3253333333123,
      "v": 100
    },
    {
      "midi": 59,
      "hit": false,
      "t": 130222.27199998594,
      "d": 208.3253333333123,
      "v": 100
    },
    {
      "midi": 62,
      "hit": false,
      "t": 130222.27199998594,
      "d": 208.3253333333123,
      "v": 100
    },
    {
      "midi": 67,
      "hit": false,
      "t": 130231.74133331927,
      "d": 198.85599999998522,
      "v": 100
    },
    {
      "midi": 46,
      "hit": false,
      "t": 130241.2106666526,
      "d": 94.69333333332906,
      "v": 92
    },
    {
      "midi": 86,
      "hit": false,
      "t": 130335.90399998592,
      "d": 85.22400000000198,
      "v": 80
    },
    {
      "midi": 63,
      "hit": false,
      "t": 130335.90399998592,
      "d": 94.69333333332906,
      "v": 80
    },
    {
      "midi": 62,
      "hit": false,
      "t": 130440.06666665258,
      "d": 208.32533333329775,
      "v": 100
    },
    {
      "midi": 91,
      "hit": false,
      "t": 130449.5359999859,
      "d": 85.22399999998743,
      "v": 80
    },
    {
      "midi": 31,
      "hit": false,
      "t": 130449.5359999859,
      "d": 94.69333333331451,
      "v": 127
    },
    {
      "midi": 15,
      "hit": false,
      "t": 130449.5359999859,
      "d": 94.69333333331451,
      "v": 100
    },
    {
      "midi": 13,
      "hit": false,
      "t": 130449.5359999859,
      "d": 94.69333333331451,
      "v": 100
    },
    {
      "midi": 10,
      "hit": false,
      "t": 130449.5359999859,
      "d": 94.69333333331451,
      "v": 127
    },
    {
      "midi": 127,
      "hit": false,
      "t": 130449.5359999859,
      "d": 94.69333333331451,
      "v": 60
    },
    {
      "midi": 108,
      "hit": false,
      "t": 130449.5359999859,
      "d": 94.69333333331451,
      "v": 80
    },
    {
      "midi": 105,
      "hit": false,
      "t": 130449.5359999859,
      "d": 94.69333333331451,
      "v": 100
    },
    {
      "midi": 42,
      "hit": false,
      "t": 130449.5359999859,
      "d": 94.69333333331451,
      "v": 92
    },
    {
      "midi": 118,
      "hit": false,
      "t": 130449.5359999859,
      "d": 94.69333333331451,
      "v": 50
    },
    {
      "midi": 64,
      "hit": false,
      "t": 130449.5359999859,
      "d": 94.69333333331451,
      "v": 70
    },
    {
      "midi": 67,
      "hit": false,
      "t": 130449.5359999859,
      "d": 198.85599999997066,
      "v": 107
    },
    {
      "midi": 60,
      "hit": false,
      "t": 130449.5359999859,
      "d": 208.32533333329775,
      "v": 127
    },
    {
      "midi": 72,
      "hit": false,
      "t": 130449.5359999859,
      "d": 208.32533333329775,
      "v": 100
    },
    {
      "midi": 59,
      "hit": false,
      "t": 130449.5359999859,
      "d": 208.32533333329775,
      "v": 100
    },
    {
      "midi": 50,
      "hit": false,
      "t": 130449.5359999859,
      "d": 208.32533333329775,
      "v": 100
    },
    {
      "midi": 43,
      "hit": false,
      "t": 130459.00533331923,
      "d": 208.32533333329775,
      "v": 100
    },
    {
      "midi": 86,
      "hit": false,
      "t": 130563.16799998589,
      "d": 85.22399999998743,
      "v": 80
    },
    {
      "midi": 31,
      "hit": false,
      "t": 130563.16799998589,
      "d": 94.69333333331451,
      "v": 127
    },
    {
      "midi": 42,
      "hit": false,
      "t": 130572.63733331922,
      "d": 94.69333333331451,
      "v": 78
    },
    {
      "midi": 43,
      "hit": false,
      "t": 130667.33066665253,
      "d": 94.69333333331451,
      "v": 90
    },
    {
      "midi": 50,
      "hit": false,
      "t": 130667.33066665253,
      "d": 94.69333333331451,
      "v": 90
    },
    {
      "midi": 83,
      "hit": false,
      "t": 130676.79999998586,
      "d": 85.22399999998743,
      "v": 80
    },
    {
      "midi": 31,
      "hit": false,
      "t": 130676.79999998586,
      "d": 94.69333333331451,
      "v": 127
    },
    {
      "midi": 59,
      "hit": false,
      "t": 130676.79999998586,
      "d": 94.69333333331451,
      "v": 90
    },
    {
      "midi": 62,
      "hit": false,
      "t": 130676.79999998586,
      "d": 94.69333333331451,
      "v": 90
    },
    {
      "midi": 15,
      "hit": false,
      "t": 130676.79999998586,
      "d": 94.69333333331451,
      "v": 100
    },
    {
      "midi": 13,
      "hit": false,
      "t": 130676.79999998586,
      "d": 94.69333333331451,
      "v": 100
    },
    {
      "midi": 10,
      "hit": false,
      "t": 130676.79999998586,
      "d": 94.69333333331451,
      "v": 127
    },
    {
      "midi": 118,
      "hit": false,
      "t": 130676.79999998586,
      "d": 94.69333333331451,
      "v": 50
    },
    {
      "midi": 74,
      "hit": false,
      "t": 130676.79999998586,
      "d": 208.3253333332832,
      "v": 100
    },
    {
      "midi": 67,
      "hit": false,
      "t": 130686.26933331919,
      "d": 94.69333333331451,
      "v": 90
    },
    {
      "midi": 46,
      "hit": false,
      "t": 130695.73866665251,
      "d": 94.69333333331451,
      "v": 92
    },
    {
      "midi": 67,
      "hit": false,
      "t": 130780.9626666525,
      "d": 94.69333333331451,
      "v": 90
    },
    {
      "midi": 62,
      "hit": false,
      "t": 130780.9626666525,
      "d": 94.69333333331451,
      "v": 90
    },
    {
      "midi": 79,
      "hit": false,
      "t": 130790.43199998583,
      "d": 85.22399999998743,
      "v": 80
    },
    {
      "midi": 59,
      "hit": false,
      "t": 130790.43199998583,
      "d": 94.69333333331451,
      "v": 90
    },
    {
      "midi": 50,
      "hit": false,
      "t": 130790.43199998583,
      "d": 94.69333333331451,
      "v": 90
    },
    {
      "midi": 118,
      "hit": false,
      "t": 130790.43199998583,
      "d": 94.69333333331451,
      "v": 30
    },
    {
      "midi": 43,
      "hit": false,
      "t": 130799.90133331915,
      "d": 94.69333333331451,
      "v": 90
    },
    {
      "midi": 88,
      "hit": false,
      "t": 130847.24799998582,
      "d": 426.11999999996624,
      "v": 127
    },
    {
      "midi": 84,
      "hit": false,
      "t": 130904.0639999858,
      "d": 85.22399999997288,
      "v": 80
    },
    {
      "midi": 24,
      "hit": false,
      "t": 130904.0639999858,
      "d": 94.69333333329996,
      "v": 127
    },
    {
      "midi": 15,
      "hit": false,
      "t": 130904.0639999858,
      "d": 94.69333333329996,
      "v": 100
    },
    {
      "midi": 13,
      "hit": false,
      "t": 130904.0639999858,
      "d": 94.69333333329996,
      "v": 100
    },
    {
      "midi": 10,
      "hit": false,
      "t": 130904.0639999858,
      "d": 94.69333333329996,
      "v": 127
    },
    {
      "midi": 42,
      "hit": false,
      "t": 130904.0639999858,
      "d": 94.69333333329996,
      "v": 92
    },
    {
      "midi": 91,
      "hit": false,
      "t": 130904.0639999858,
      "d": 426.1200000000099,
      "v": 127
    },
    {
      "midi": 60,
      "hit": false,
      "t": 130904.0639999858,
      "d": 634.4453333333222,
      "v": 115
    },
    {
      "midi": 55,
      "hit": false,
      "t": 130913.53333331912,
      "d": 634.4453333333367,
      "v": 115
    },
    {
      "midi": 52,
      "hit": false,
      "t": 130913.53333331912,
      "d": 643.9146666666784,
      "v": 115
    },
    {
      "midi": 48,
      "hit": false,
      "t": 130923.00266665245,
      "d": 624.9760000000097,
      "v": 115
    },
    {
      "midi": 43,
      "hit": false,
      "t": 130923.00266665245,
      "d": 634.4453333333513,
      "v": 115
    },
    {
      "midi": 96,
      "hit": false,
      "t": 130960.87999998577,
      "d": 426.12000000002445,
      "v": 127
    },
    {
      "midi": 79,
      "hit": false,
      "t": 131017.69599998576,
      "d": 85.22400000001653,
      "v": 80
    },
    {
      "midi": 24,
      "hit": false,
      "t": 131017.69599998576,
      "d": 94.69333333335817,
      "v": 127
    },
    {
      "midi": 42,
      "hit": false,
      "t": 131027.16533331909,
      "d": 94.69333333337272,
      "v": 78
    },
    {
      "midi": 76,
      "hit": false,
      "t": 131131.3279999858,
      "d": 85.22399999998743,
      "v": 80
    },
    {
      "midi": 24,
      "hit": false,
      "t": 131131.3279999858,
      "d": 94.69333333332906,
      "v": 127
    },
    {
      "midi": 46,
      "hit": false,
      "t": 131150.26666665246,
      "d": 94.69333333332906,
      "v": 92
    },
    {
      "midi": 72,
      "hit": false,
      "t": 131244.9599999858,
      "d": 85.22400000001653,
      "v": 80
    },
    {
      "midi": 24,
      "hit": false,
      "t": 131244.9599999858,
      "d": 94.69333333335817,
      "v": 127
    },
    {
      "midi": 64,
      "hit": false,
      "t": 131244.9599999858,
      "d": 94.69333333335817,
      "v": 70
    },
    {
      "midi": 67,
      "hit": false,
      "t": 131358.5919999858,
      "d": 85.22399999998743,
      "v": 80
    },
    {
      "midi": 24,
      "hit": false,
      "t": 131358.5919999858,
      "d": 94.69333333332906,
      "v": 127
    },
    {
      "midi": 15,
      "hit": false,
      "t": 131358.5919999858,
      "d": 94.69333333332906,
      "v": 100
    },
    {
      "midi": 13,
      "hit": false,
      "t": 131358.5919999858,
      "d": 94.69333333332906,
      "v": 100
    },
    {
      "midi": 10,
      "hit": false,
      "t": 131358.5919999858,
      "d": 94.69333333332906,
      "v": 127
    },
    {
      "midi": 127,
      "hit": false,
      "t": 131358.5919999858,
      "d": 94.69333333332906,
      "v": 60
    },
    {
      "midi": 108,
      "hit": false,
      "t": 131358.5919999858,
      "d": 94.69333333332906,
      "v": 80
    },
    {
      "midi": 105,
      "hit": false,
      "t": 131358.5919999858,
      "d": 94.69333333332906,
      "v": 100
    },
    {
      "midi": 42,
      "hit": false,
      "t": 131358.5919999858,
      "d": 94.69333333332906,
      "v": 92
    },
    {
      "midi": 118,
      "hit": false,
      "t": 131358.5919999858,
      "d": 94.69333333332906,
      "v": 50
    },
    {
      "midi": 63,
      "hit": false,
      "t": 131358.5919999858,
      "d": 94.69333333332906,
      "v": 70
    },
    {
      "midi": 64,
      "hit": false,
      "t": 131472.22399998578,
      "d": 66.28533333333326,
      "v": 80
    },
    {
      "midi": 42,
      "hit": false,
      "t": 131481.69333331913,
      "d": 94.69333333335817,
      "v": 78
    },
    {
      "midi": 60,
      "hit": false,
      "t": 131585.85599998583,
      "d": 85.22400000001653,
      "v": 115
    },
    {
      "midi": 24,
      "hit": false,
      "t": 131585.85599998583,
      "d": 94.69333333335817,
      "v": 127
    },
    {
      "midi": 62,
      "hit": false,
      "t": 131585.85599998583,
      "d": 113.63200000001234,
      "v": 110
    },
    {
      "midi": 74,
      "hit": false,
      "t": 131585.85599998583,
      "d": 208.3253333333414,
      "v": 100
    },
    {
      "midi": 67,
      "hit": false,
      "t": 131585.85599998583,
      "d": 208.3253333333414,
      "v": 107
    },
    {
      "midi": 55,
      "hit": false,
      "t": 131595.32533331917,
      "d": 416.6506666666828,
      "v": 115
    },
    {
      "midi": 52,
      "hit": false,
      "t": 131595.32533331917,
      "d": 1117.3813333335565,
      "v": 115
    },
    {
      "midi": 46,
      "hit": false,
      "t": 131604.7946666525,
      "d": 94.69333333332906,
      "v": 92
    },
    {
      "midi": 48,
      "hit": false,
      "t": 131604.7946666525,
      "d": 407.1813333333412,
      "v": 115
    },
    {
      "midi": 43,
      "hit": false,
      "t": 131604.7946666525,
      "d": 416.6506666666828,
      "v": 115
    },
    {
      "midi": 64,
      "hit": false,
      "t": 131699.48799998584,
      "d": 85.22399999998743,
      "v": 80
    },
    {
      "midi": 24,
      "hit": false,
      "t": 131699.48799998584,
      "d": 94.69333333332906,
      "v": 127
    },
    {
      "midi": 118,
      "hit": false,
      "t": 131699.48799998584,
      "d": 94.69333333332906,
      "v": 50
    },
    {
      "midi": 67,
      "hit": false,
      "t": 131813.11999998582,
      "d": 85.22400000001653,
      "v": 107
    },
    {
      "midi": 24,
      "hit": false,
      "t": 131813.11999998582,
      "d": 94.69333333335817,
      "v": 127
    },
    {
      "midi": 15,
      "hit": false,
      "t": 131813.11999998582,
      "d": 94.69333333335817,
      "v": 100
    },
    {
      "midi": 13,
      "hit": false,
      "t": 131813.11999998582,
      "d": 94.69333333335817,
      "v": 100
    },
    {
      "midi": 10,
      "hit": false,
      "t": 131813.11999998582,
      "d": 94.69333333335817,
      "v": 127
    },
    {
      "midi": 42,
      "hit": false,
      "t": 131813.11999998582,
      "d": 94.69333333335817,
      "v": 92
    },
    {
      "midi": 64,
      "hit": false,
      "t": 131813.11999998582,
      "d": 189.38666666668723,
      "v": 107
    },
    {
      "midi": 72,
      "hit": false,
      "t": 131926.75199998583,
      "d": 85.22400000001653,
      "v": 80
    },
    {
      "midi": 118,
      "hit": false,
      "t": 131926.75199998583,
      "d": 94.69333333335817,
      "v": 50
    },
    {
      "midi": 42,
      "hit": false,
      "t": 131936.22133331918,
      "d": 94.69333333335817,
      "v": 78
    },
    {
      "midi": 43,
      "hit": false,
      "t": 132030.91466665253,
      "d": 208.3253333333705,
      "v": 90
    },
    {
      "midi": 48,
      "hit": false,
      "t": 132030.91466665253,
      "d": 208.3253333333705,
      "v": 90
    },
    {
      "midi": 76,
      "hit": false,
      "t": 132040.38399998588,
      "d": 85.22400000001653,
      "v": 80
    },
    {
      "midi": 24,
      "hit": false,
      "t": 132040.38399998588,
      "d": 94.69333333335817,
      "v": 127
    },
    {
      "midi": 118,
      "hit": false,
      "t": 132040.38399998588,
      "d": 94.69333333335817,
      "v": 30
    },
    {
      "midi": 55,
      "hit": false,
      "t": 132040.38399998588,
      "d": 208.3253333333705,
      "v": 90
    },
    {
      "midi": 60,
      "hit": false,
      "t": 132040.38399998588,
      "d": 208.3253333333705,
      "v": 90
    },
    {
      "midi": 64,
      "hit": false,
      "t": 132049.85333331922,
      "d": 208.3253333333705,
      "v": 90
    },
    {
      "midi": 46,
      "hit": false,
      "t": 132059.32266665256,
      "d": 94.69333333332906,
      "v": 92
    },
    {
      "midi": 79,
      "hit": false,
      "t": 132154.0159999859,
      "d": 85.22400000001653,
      "v": 80
    },
    {
      "midi": 63,
      "hit": false,
      "t": 132154.0159999859,
      "d": 94.69333333335817,
      "v": 80
    },
    {
      "midi": 60,
      "hit": false,
      "t": 132258.1786666526,
      "d": 208.3253333333705,
      "v": 100
    },
    {
      "midi": 84,
      "hit": false,
      "t": 132267.64799998593,
      "d": 85.22400000001653,
      "v": 80
    },
    {
      "midi": 24,
      "hit": false,
      "t": 132267.64799998593,
      "d": 94.69333333335817,
      "v": 127
    },
    {
      "midi": 15,
      "hit": false,
      "t": 132267.64799998593,
      "d": 94.69333333335817,
      "v": 100
    },
    {
      "midi": 13,
      "hit": false,
      "t": 132267.64799998593,
      "d": 94.69333333335817,
      "v": 100
    },
    {
      "midi": 10,
      "hit": false,
      "t": 132267.64799998593,
      "d": 94.69333333335817,
      "v": 127
    },
    {
      "midi": 127,
      "hit": false,
      "t": 132267.64799998593,
      "d": 94.69333333335817,
      "v": 60
    },
    {
      "midi": 108,
      "hit": false,
      "t": 132267.64799998593,
      "d": 94.69333333335817,
      "v": 80
    },
    {
      "midi": 105,
      "hit": false,
      "t": 132267.64799998593,
      "d": 94.69333333335817,
      "v": 100
    },
    {
      "midi": 42,
      "hit": false,
      "t": 132267.64799998593,
      "d": 94.69333333335817,
      "v": 92
    },
    {
      "midi": 118,
      "hit": false,
      "t": 132267.64799998593,
      "d": 94.69333333335817,
      "v": 50
    },
    {
      "midi": 64,
      "hit": false,
      "t": 132267.64799998593,
      "d": 94.69333333335817,
      "v": 70
    },
    {
      "midi": 55,
      "hit": false,
      "t": 132267.64799998593,
      "d": 208.3253333333705,
      "v": 100
    },
    {
      "midi": 48,
      "hit": false,
      "t": 132267.64799998593,
      "d": 208.3253333333705,
      "v": 100
    },
    {
      "midi": 91,
      "hit": false,
      "t": 132267.64799998593,
      "d": 426.12000000011176,
      "v": 90
    },
    {
      "midi": 43,
      "hit": false,
      "t": 132277.11733331927,
      "d": 208.3253333333705,
      "v": 100
    },
    {
      "midi": 79,
      "hit": false,
      "t": 132381.27999998594,
      "d": 85.22400000001653,
      "v": 80
    },
    {
      "midi": 24,
      "hit": false,
      "t": 132381.27999998594,
      "d": 94.69333333335817,
      "v": 127
    },
    {
      "midi": 42,
      "hit": false,
      "t": 132390.74933331928,
      "d": 94.69333333335817,
      "v": 78
    },
    {
      "midi": 43,
      "hit": false,
      "t": 132485.44266665264,
      "d": 94.69333333335817,
      "v": 90
    },
    {
      "midi": 48,
      "hit": false,
      "t": 132485.44266665264,
      "d": 94.69333333335817,
      "v": 90
    },
    {
      "midi": 76,
      "hit": false,
      "t": 132494.91199998598,
      "d": 85.22400000001653,
      "v": 80
    },
    {
      "midi": 24,
      "hit": false,
      "t": 132494.91199998598,
      "d": 94.69333333335817,
      "v": 127
    },
    {
      "midi": 55,
      "hit": false,
      "t": 132494.91199998598,
      "d": 94.69333333335817,
      "v": 90
    },
    {
      "midi": 60,
      "hit": false,
      "t": 132494.91199998598,
      "d": 94.69333333335817,
      "v": 90
    },
    {
      "midi": 118,
      "hit": false,
      "t": 132494.91199998598,
      "d": 94.69333333335817,
      "v": 50
    },
    {
      "midi": 64,
      "hit": false,
      "t": 132504.38133331932,
      "d": 66.28533333333326,
      "v": 90
    },
    {
      "midi": 46,
      "hit": false,
      "t": 132513.85066665267,
      "d": 94.69333333335817,
      "v": 92
    },
    {
      "midi": 64,
      "hit": false,
      "t": 132599.07466665268,
      "d": 85.22400000001653,
      "v": 90
    },
    {
      "midi": 60,
      "hit": false,
      "t": 132599.07466665268,
      "d": 94.69333333335817,
      "v": 90
    },
    {
      "midi": 72,
      "hit": false,
      "t": 132608.54399998602,
      "d": 85.22400000001653,
      "v": 80
    },
    {
      "midi": 55,
      "hit": false,
      "t": 132608.54399998602,
      "d": 94.69333333335817,
      "v": 90
    },
    {
      "midi": 48,
      "hit": false,
      "t": 132608.54399998602,
      "d": 94.69333333335817,
      "v": 90
    },
    {
      "midi": 118,
      "hit": false,
      "t": 132608.54399998602,
      "d": 94.69333333335817,
      "v": 30
    },
    {
      "midi": 43,
      "hit": false,
      "t": 132618.01333331937,
      "d": 94.69333333335817,
      "v": 90
    },
    {
      "midi": 84,
      "hit": false,
      "t": 132722.17599998607,
      "d": 85.22400000001653,
      "v": 117
    },
    {
      "midi": 24,
      "hit": false,
      "t": 132722.17599998607,
      "d": 94.69333333335817,
      "v": 127
    },
    {
      "midi": 15,
      "hit": false,
      "t": 132722.17599998607,
      "d": 94.69333333335817,
      "v": 100
    },
    {
      "midi": 13,
      "hit": false,
      "t": 132722.17599998607,
      "d": 94.69333333335817,
      "v": 100
    },
    {
      "midi": 10,
      "hit": false,
      "t": 132722.17599998607,
      "d": 94.69333333335817,
      "v": 127
    },
    {
      "midi": 42,
      "hit": false,
      "t": 132722.17599998607,
      "d": 94.69333333335817,
      "v": 92
    },
    {
      "midi": 96,
      "hit": false,
      "t": 132722.17599998607,
      "d": 426.12000000002445,
      "v": 90
    },
    {
      "midi": 60,
      "hit": false,
      "t": 132722.17599998607,
      "d": 634.445333333395,
      "v": 115
    },
    {
      "midi": 55,
      "hit": false,
      "t": 132731.6453333194,
      "d": 634.445333333395,
      "v": 115
    },
    {
      "midi": 52,
      "hit": false,
      "t": 132731.6453333194,
      "d": 643.9146666667366,
      "v": 115
    },
    {
      "midi": 48,
      "hit": false,
      "t": 132741.11466665275,
      "d": 624.9760000000533,
      "v": 115
    },
    {
      "midi": 43,
      "hit": false,
      "t": 132741.11466665275,
      "d": 634.445333333395,
      "v": 115
    },
    {
      "midi": 79,
      "hit": false,
      "t": 132835.80799998608,
      "d": 85.22400000001653,
      "v": 80
    },
    {
      "midi": 24,
      "hit": false,
      "t": 132835.80799998608,
      "d": 94.69333333335817,
      "v": 127
    },
    {
      "midi": 42,
      "hit": false,
      "t": 132845.27733331942,
      "d": 94.69333333335817,
      "v": 78
    },
    {
      "midi": 76,
      "hit": false,
      "t": 132949.43999998612,
      "d": 85.22399999998743,
      "v": 80
    },
    {
      "midi": 24,
      "hit": false,
      "t": 132949.43999998612,
      "d": 94.69333333332906,
      "v": 127
    },
    {
      "midi": 46,
      "hit": false,
      "t": 132968.37866665277,
      "d": 94.69333333332906,
      "v": 92
    },
    {
      "midi": 72,
      "hit": false,
      "t": 133063.0719999861,
      "d": 85.22399999998743,
      "v": 80
    },
    {
      "midi": 24,
      "hit": false,
      "t": 133063.0719999861,
      "d": 94.69333333332906,
      "v": 127
    },
    {
      "midi": 64,
      "hit": false,
      "t": 133063.0719999861,
      "d": 94.69333333332906,
      "v": 70
    },
    {
      "midi": 67,
      "hit": false,
      "t": 133176.7039999861,
      "d": 85.22400000001653,
      "v": 80
    },
    {
      "midi": 24,
      "hit": false,
      "t": 133176.7039999861,
      "d": 94.69333333335817,
      "v": 127
    },
    {
      "midi": 15,
      "hit": false,
      "t": 133176.7039999861,
      "d": 94.69333333335817,
      "v": 100
    },
    {
      "midi": 13,
      "hit": false,
      "t": 133176.7039999861,
      "d": 94.69333333335817,
      "v": 100
    },
    {
      "midi": 10,
      "hit": false,
      "t": 133176.7039999861,
      "d": 94.69333333335817,
      "v": 127
    },
    {
      "midi": 127,
      "hit": false,
      "t": 133176.7039999861,
      "d": 94.69333333335817,
      "v": 60
    },
    {
      "midi": 108,
      "hit": false,
      "t": 133176.7039999861,
      "d": 94.69333333335817,
      "v": 80
    },
    {
      "midi": 105,
      "hit": false,
      "t": 133176.7039999861,
      "d": 94.69333333335817,
      "v": 100
    },
    {
      "midi": 42,
      "hit": false,
      "t": 133176.7039999861,
      "d": 94.69333333335817,
      "v": 92
    },
    {
      "midi": 118,
      "hit": false,
      "t": 133176.7039999861,
      "d": 94.69333333335817,
      "v": 50
    },
    {
      "midi": 63,
      "hit": false,
      "t": 133176.7039999861,
      "d": 94.69333333335817,
      "v": 70
    },
    {
      "midi": 76,
      "hit": false,
      "t": 133176.7039999861,
      "d": 426.12000000014086,
      "v": 100
    },
    {
      "midi": 100,
      "hit": false,
      "t": 133176.7039999861,
      "d": 426.12000000014086,
      "v": 90
    },
    {
      "midi": 88,
      "hit": false,
      "t": 133176.7039999861,
      "d": 426.12000000014086,
      "v": 117
    },
    {
      "midi": 64,
      "hit": false,
      "t": 133290.3359999861,
      "d": 66.28533333336236,
      "v": 80
    },
    {
      "midi": 42,
      "hit": false,
      "t": 133299.80533331944,
      "d": 94.69333333338727,
      "v": 78
    },
    {
      "midi": 60,
      "hit": false,
      "t": 133403.96799998617,
      "d": 85.22400000001653,
      "v": 115
    },
    {
      "midi": 24,
      "hit": false,
      "t": 133403.96799998617,
      "d": 94.69333333335817,
      "v": 127
    },
    {
      "midi": 55,
      "hit": false,
      "t": 133413.4373333195,
      "d": 85.22400000001653,
      "v": 115
    },
    {
      "midi": 64,
      "hit": false,
      "t": 133413.4373333195,
      "d": 94.69333333335817,
      "v": 100
    },
    {
      "midi": 52,
      "hit": false,
      "t": 133413.4373333195,
      "d": 1117.3813333335565,
      "v": 115
    },
    {
      "midi": 43,
      "hit": false,
      "t": 133422.90666665285,
      "d": 66.28533333333326,
      "v": 115
    },
    {
      "midi": 48,
      "hit": false,
      "t": 133422.90666665285,
      "d": 66.28533333333326,
      "v": 115
    },
    {
      "midi": 46,
      "hit": false,
      "t": 133422.90666665285,
      "d": 94.69333333335817,
      "v": 92
    },
    {
      "midi": 60,
      "hit": false,
      "t": 133508.13066665287,
      "d": 321.95733333335374,
      "v": 100
    },
    {
      "midi": 64,
      "hit": false,
      "t": 133517.5999999862,
      "d": 85.22400000001653,
      "v": 80
    },
    {
      "midi": 24,
      "hit": false,
      "t": 133517.5999999862,
      "d": 94.69333333335817,
      "v": 127
    },
    {
      "midi": 118,
      "hit": false,
      "t": 133517.5999999862,
      "d": 94.69333333335817,
      "v": 50
    },
    {
      "midi": 55,
      "hit": false,
      "t": 133517.5999999862,
      "d": 321.95733333335374,
      "v": 100
    },
    {
      "midi": 48,
      "hit": false,
      "t": 133517.5999999862,
      "d": 321.95733333335374,
      "v": 100
    },
    {
      "midi": 43,
      "hit": false,
      "t": 133527.06933331955,
      "d": 321.95733333335374,
      "v": 100
    },
    {
      "midi": 67,
      "hit": false,
      "t": 133631.23199998622,
      "d": 85.22399999998743,
      "v": 80
    },
    {
      "midi": 15,
      "hit": false,
      "t": 133631.23199998622,
      "d": 94.69333333332906,
      "v": 100
    },
    {
      "midi": 13,
      "hit": false,
      "t": 133631.23199998622,
      "d": 94.69333333332906,
      "v": 100
    },
    {
      "midi": 10,
      "hit": false,
      "t": 133631.23199998622,
      "d": 94.69333333332906,
      "v": 127
    },
    {
      "midi": 42,
      "hit": false,
      "t": 133631.23199998622,
      "d": 94.69333333332906,
      "v": 92
    },
    {
      "midi": 24,
      "hit": false,
      "t": 133631.23199998622,
      "d": 208.3253333333414,
      "v": 127
    },
    {
      "midi": 65,
      "hit": false,
      "t": 133631.23199998622,
      "d": 426.12000000005355,
      "v": 127
    },
    {
      "midi": 77,
      "hit": false,
      "t": 133631.23199998622,
      "d": 426.12000000005355,
      "v": 100
    },
    {
      "midi": 101,
      "hit": false,
      "t": 133631.23199998622,
      "d": 426.12000000005355,
      "v": 90
    },
    {
      "midi": 89,
      "hit": false,
      "t": 133631.23199998622,
      "d": 426.12000000005355,
      "v": 117
    },
    {
      "midi": 72,
      "hit": false,
      "t": 133744.8639999862,
      "d": 85.22400000001653,
      "v": 80
    },
    {
      "midi": 118,
      "hit": false,
      "t": 133744.8639999862,
      "d": 94.69333333335817,
      "v": 50
    },
    {
      "midi": 42,
      "hit": false,
      "t": 133754.33333331955,
      "d": 94.69333333335817,
      "v": 78
    },
    {
      "midi": 43,
      "hit": false,
      "t": 133849.0266666529,
      "d": 208.3253333333705,
      "v": 90
    },
    {
      "midi": 48,
      "hit": false,
      "t": 133849.0266666529,
      "d": 208.3253333333705,
      "v": 90
    },
    {
      "midi": 76,
      "hit": false,
      "t": 133858.49599998625,
      "d": 85.22400000001653,
      "v": 80
    },
    {
      "midi": 105,
      "hit": false,
      "t": 133858.49599998625,
      "d": 94.69333333335817,
      "v": 100
    },
    {
      "midi": 108,
      "hit": false,
      "t": 133858.49599998625,
      "d": 94.69333333335817,
      "v": 80
    },
    {
      "midi": 127,
      "hit": false,
      "t": 133858.49599998625,
      "d": 94.69333333335817,
      "v": 60
    },
    {
      "midi": 118,
      "hit": false,
      "t": 133858.49599998625,
      "d": 94.69333333335817,
      "v": 30
    },
    {
      "midi": 28,
      "hit": false,
      "t": 133858.49599998625,
      "d": 208.3253333333705,
      "v": 127
    },
    {
      "midi": 55,
      "hit": false,
      "t": 133858.49599998625,
      "d": 208.3253333333705,
      "v": 90
    },
    {
      "midi": 60,
      "hit": false,
      "t": 133858.49599998625,
      "d": 208.3253333333705,
      "v": 90
    },
    {
      "midi": 64,
      "hit": false,
      "t": 133867.9653333196,
      "d": 208.3253333333705,
      "v": 90
    },
    {
      "midi": 46,
      "hit": false,
      "t": 133877.43466665293,
      "d": 94.69333333332906,
      "v": 92
    },
    {
      "midi": 79,
      "hit": false,
      "t": 133972.12799998626,
      "d": 85.22400000001653,
      "v": 80
    },
    {
      "midi": 63,
      "hit": false,
      "t": 133972.12799998626,
      "d": 94.69333333335817,
      "v": 80
    },
    {
      "midi": 60,
      "hit": false,
      "t": 134076.29066665296,
      "d": 208.3253333333705,
      "v": 90
    },
    {
      "midi": 84,
      "hit": false,
      "t": 134085.7599999863,
      "d": 85.22400000001653,
      "v": 80
    },
    {
      "midi": 15,
      "hit": false,
      "t": 134085.7599999863,
      "d": 94.69333333335817,
      "v": 100
    },
    {
      "midi": 13,
      "hit": false,
      "t": 134085.7599999863,
      "d": 94.69333333335817,
      "v": 100
    },
    {
      "midi": 10,
      "hit": false,
      "t": 134085.7599999863,
      "d": 94.69333333335817,
      "v": 127
    },
    {
      "midi": 105,
      "hit": false,
      "t": 134085.7599999863,
      "d": 94.69333333335817,
      "v": 100
    },
    {
      "midi": 108,
      "hit": false,
      "t": 134085.7599999863,
      "d": 94.69333333335817,
      "v": 80
    },
    {
      "midi": 127,
      "hit": false,
      "t": 134085.7599999863,
      "d": 94.69333333335817,
      "v": 60
    },
    {
      "midi": 42,
      "hit": false,
      "t": 134085.7599999863,
      "d": 94.69333333335817,
      "v": 92
    },
    {
      "midi": 118,
      "hit": false,
      "t": 134085.7599999863,
      "d": 94.69333333335817,
      "v": 50
    },
    {
      "midi": 64,
      "hit": false,
      "t": 134085.7599999863,
      "d": 94.69333333335817,
      "v": 70
    },
    {
      "midi": 29,
      "hit": false,
      "t": 134085.7599999863,
      "d": 208.3253333333705,
      "v": 127
    },
    {
      "midi": 55,
      "hit": false,
      "t": 134085.7599999863,
      "d": 208.3253333333705,
      "v": 90
    },
    {
      "midi": 48,
      "hit": false,
      "t": 134085.7599999863,
      "d": 208.3253333333705,
      "v": 90
    },
    {
      "midi": 67,
      "hit": false,
      "t": 134085.7599999863,
      "d": 426.12000000008265,
      "v": 127
    },
    {
      "midi": 79,
      "hit": false,
      "t": 134085.7599999863,
      "d": 426.12000000008265,
      "v": 100
    },
    {
      "midi": 103,
      "hit": false,
      "t": 134085.7599999863,
      "d": 426.12000000008265,
      "v": 90
    },
    {
      "midi": 43,
      "hit": false,
      "t": 134095.22933331964,
      "d": 208.3253333333705,
      "v": 90
    },
    {
      "midi": 88,
      "hit": false,
      "t": 134199.3919999863,
      "d": 85.22400000001653,
      "v": 80
    },
    {
      "midi": 42,
      "hit": false,
      "t": 134208.86133331966,
      "d": 94.69333333335817,
      "v": 78
    },
    {
      "midi": 43,
      "hit": false,
      "t": 134303.554666653,
      "d": 208.3253333333705,
      "v": 90
    },
    {
      "midi": 48,
      "hit": false,
      "t": 134303.554666653,
      "d": 208.3253333333705,
      "v": 90
    },
    {
      "midi": 91,
      "hit": false,
      "t": 134313.02399998636,
      "d": 85.22400000001653,
      "v": 80
    },
    {
      "midi": 15,
      "hit": false,
      "t": 134313.02399998636,
      "d": 94.69333333335817,
      "v": 100
    },
    {
      "midi": 13,
      "hit": false,
      "t": 134313.02399998636,
      "d": 94.69333333335817,
      "v": 100
    },
    {
      "midi": 10,
      "hit": false,
      "t": 134313.02399998636,
      "d": 94.69333333335817,
      "v": 127
    },
    {
      "midi": 105,
      "hit": false,
      "t": 134313.02399998636,
      "d": 94.69333333335817,
      "v": 100
    },
    {
      "midi": 108,
      "hit": false,
      "t": 134313.02399998636,
      "d": 94.69333333335817,
      "v": 80
    },
    {
      "midi": 127,
      "hit": false,
      "t": 134313.02399998636,
      "d": 94.69333333335817,
      "v": 60
    },
    {
      "midi": 118,
      "hit": false,
      "t": 134313.02399998636,
      "d": 94.69333333335817,
      "v": 50
    },
    {
      "midi": 60,
      "hit": false,
      "t": 134313.02399998636,
      "d": 208.3253333333705,
      "v": 90
    },
    {
      "midi": 31,
      "hit": false,
      "t": 134313.02399998636,
      "d": 208.3253333333705,
      "v": 127
    },
    {
      "midi": 55,
      "hit": false,
      "t": 134313.02399998636,
      "d": 208.3253333333705,
      "v": 90
    },
    {
      "midi": 64,
      "hit": false,
      "t": 134322.4933333197,
      "d": 198.85600000002887,
      "v": 90
    },
    {
      "midi": 46,
      "hit": false,
      "t": 134331.96266665304,
      "d": 94.69333333332906,
      "v": 92
    },
    {
      "midi": 96,
      "hit": false,
      "t": 134426.65599998637,
      "d": 85.22400000001653,
      "v": 80
    },
    {
      "midi": 105,
      "hit": false,
      "t": 134426.65599998637,
      "d": 94.69333333335817,
      "v": 100
    },
    {
      "midi": 108,
      "hit": false,
      "t": 134426.65599998637,
      "d": 94.69333333335817,
      "v": 80
    },
    {
      "midi": 127,
      "hit": false,
      "t": 134426.65599998637,
      "d": 94.69333333335817,
      "v": 60
    },
    {
      "midi": 118,
      "hit": false,
      "t": 134426.65599998637,
      "d": 94.69333333335817,
      "v": 30
    },
    {
      "midi": 86,
      "hit": false,
      "t": 134540.2879999864,
      "d": 85.22400000004563,
      "v": 80
    },
    {
      "midi": 26,
      "hit": false,
      "t": 134540.2879999864,
      "d": 94.69333333338727,
      "v": 127
    },
    {
      "midi": 15,
      "hit": false,
      "t": 134540.2879999864,
      "d": 94.69333333338727,
      "v": 100
    },
    {
      "midi": 13,
      "hit": false,
      "t": 134540.2879999864,
      "d": 94.69333333338727,
      "v": 100
    },
    {
      "midi": 10,
      "hit": false,
      "t": 134540.2879999864,
      "d": 94.69333333338727,
      "v": 127
    },
    {
      "midi": 42,
      "hit": false,
      "t": 134540.2879999864,
      "d": 94.69333333338727,
      "v": 92
    },
    {
      "midi": 65,
      "hit": false,
      "t": 134540.2879999864,
      "d": 94.69333333338727,
      "v": 80
    },
    {
      "midi": 126,
      "hit": false,
      "t": 134540.2879999864,
      "d": 94.69333333338727,
      "v": 80
    },
    {
      "midi": 67,
      "hit": false,
      "t": 134540.2879999864,
      "d": 426.1200000002282,
      "v": 127
    },
    {
      "midi": 55,
      "hit": false,
      "t": 134540.2879999864,
      "d": 426.1200000002282,
      "v": 80
    },
    {
      "midi": 103,
      "hit": false,
      "t": 134540.2879999864,
      "d": 1799.1733333341836,
      "v": 90
    },
    {
      "midi": 91,
      "hit": false,
      "t": 134540.2879999864,
      "d": 1799.1733333341836,
      "v": 117
    },
    {
      "midi": 62,
      "hit": false,
      "t": 134549.75733331975,
      "d": 9.469333333341638,
      "v": 80
    },
    {
      "midi": 53,
      "hit": false,
      "t": 134549.75733331975,
      "d": 28.408000000024913,
      "v": 100
    },
    {
      "midi": 45,
      "hit": false,
      "t": 134549.75733331975,
      "d": 416.65066666688654,
      "v": 100
    },
    {
      "midi": 57,
      "hit": false,
      "t": 134559.2266666531,
      "d": 9.469333333341638,
      "v": 80
    },
    {
      "midi": 38,
      "hit": false,
      "t": 134559.2266666531,
      "d": 416.65066666688654,
      "v": 100
    },
    {
      "midi": 53,
      "hit": false,
      "t": 134644.45066665314,
      "d": 28.408000000024913,
      "v": 80
    },
    {
      "midi": 57,
      "hit": false,
      "t": 134653.91999998648,
      "d": 28.408000000024913,
      "v": 80
    },
    {
      "midi": 81,
      "hit": false,
      "t": 134653.91999998648,
      "d": 85.22400000004563,
      "v": 80
    },
    {
      "midi": 26,
      "hit": false,
      "t": 134653.91999998648,
      "d": 94.69333333338727,
      "v": 127
    },
    {
      "midi": 62,
      "hit": false,
      "t": 134663.38933331982,
      "d": 28.408000000024913,
      "v": 80
    },
    {
      "midi": 42,
      "hit": false,
      "t": 134663.38933331982,
      "d": 94.69333333338727,
      "v": 78
    },
    {
      "midi": 65,
      "hit": false,
      "t": 134672.85866665316,
      "d": 94.69333333338727,
      "v": 80
    },
    {
      "midi": 65,
      "hit": false,
      "t": 134767.55199998655,
      "d": 47.346666666679084,
      "v": 80
    },
    {
      "midi": 77,
      "hit": false,
      "t": 134767.55199998655,
      "d": 85.22400000004563,
      "v": 80
    },
    {
      "midi": 26,
      "hit": false,
      "t": 134767.55199998655,
      "d": 94.69333333338727,
      "v": 127
    },
    {
      "midi": 62,
      "hit": false,
      "t": 134777.0213333199,
      "d": 47.346666666679084,
      "v": 80
    },
    {
      "midi": 57,
      "hit": false,
      "t": 134786.49066665323,
      "d": 47.346666666679084,
      "v": 80
    },
    {
      "midi": 46,
      "hit": false,
      "t": 134786.49066665323,
      "d": 94.69333333338727,
      "v": 92
    },
    {
      "midi": 53,
      "hit": false,
      "t": 134871.71466665328,
      "d": 28.408000000024913,
      "v": 80
    },
    {
      "midi": 57,
      "hit": false,
      "t": 134881.18399998662,
      "d": 28.408000000024913,
      "v": 80
    },
    {
      "midi": 74,
      "hit": false,
      "t": 134881.18399998662,
      "d": 85.22400000001653,
      "v": 80
    },
    {
      "midi": 26,
      "hit": false,
      "t": 134881.18399998662,
      "d": 94.69333333335817,
      "v": 127
    },
    {
      "midi": 64,
      "hit": false,
      "t": 134881.18399998662,
      "d": 94.69333333335817,
      "v": 70
    },
    {
      "midi": 62,
      "hit": false,
      "t": 134890.65333331996,
      "d": 28.408000000024913,
      "v": 80
    },
    {
      "midi": 65,
      "hit": false,
      "t": 134900.1226666533,
      "d": 94.69333333335817,
      "v": 80
    },
    {
      "midi": 69,
      "hit": false,
      "t": 134994.81599998666,
      "d": 85.22400000004563,
      "v": 80
    },
    {
      "midi": 26,
      "hit": false,
      "t": 134994.81599998666,
      "d": 94.69333333338727,
      "v": 127
    },
    {
      "midi": 15,
      "hit": false,
      "t": 134994.81599998666,
      "d": 94.69333333338727,
      "v": 100
    },
    {
      "midi": 13,
      "hit": false,
      "t": 134994.81599998666,
      "d": 94.69333333338727,
      "v": 100
    },
    {
      "midi": 10,
      "hit": false,
      "t": 134994.81599998666,
      "d": 94.69333333338727,
      "v": 127
    },
    {
      "midi": 127,
      "hit": false,
      "t": 134994.81599998666,
      "d": 94.69333333338727,
      "v": 60
    },
    {
      "midi": 108,
      "hit": false,
      "t": 134994.81599998666,
      "d": 94.69333333338727,
      "v": 80
    },
    {
      "midi": 105,
      "hit": false,
      "t": 134994.81599998666,
      "d": 94.69333333338727,
      "v": 100
    },
    {
      "midi": 42,
      "hit": false,
      "t": 134994.81599998666,
      "d": 94.69333333338727,
      "v": 92
    },
    {
      "midi": 65,
      "hit": false,
      "t": 134994.81599998666,
      "d": 94.69333333338727,
      "v": 80
    },
    {
      "midi": 118,
      "hit": false,
      "t": 134994.81599998666,
      "d": 94.69333333338727,
      "v": 50
    },
    {
      "midi": 63,
      "hit": false,
      "t": 134994.81599998666,
      "d": 94.69333333338727,
      "v": 70
    },
    {
      "midi": 38,
      "hit": false,
      "t": 134994.81599998666,
      "d": 198.85600000008708,
      "v": 100
    },
    {
      "midi": 45,
      "hit": false,
      "t": 134994.81599998666,
      "d": 198.85600000008708,
      "v": 100
    },
    {
      "midi": 62,
      "hit": false,
      "t": 135004.28533332,
      "d": 9.469333333341638,
      "v": 80
    },
    {
      "midi": 53,
      "hit": false,
      "t": 135004.28533332,
      "d": 28.408000000024913,
      "v": 100
    },
    {
      "midi": 57,
      "hit": false,
      "t": 135013.75466665335,
      "d": 9.469333333341638,
      "v": 80
    },
    {
      "midi": 65,
      "hit": false,
      "t": 135108.44799998673,
      "d": 85.22400000001653,
      "v": 80
    },
    {
      "midi": 42,
      "hit": false,
      "t": 135117.91733332007,
      "d": 94.69333333335817,
      "v": 78
    },
    {
      "midi": 57,
      "hit": false,
      "t": 135222.07999998677,
      "d": 28.408000000024913,
      "v": 100
    },
    {
      "midi": 26,
      "hit": false,
      "t": 135222.07999998677,
      "d": 94.69333333338727,
      "v": 127
    },
    {
      "midi": 64,
      "hit": false,
      "t": 135222.07999998677,
      "d": 426.1200000002573,
      "v": 127
    },
    {
      "midi": 53,
      "hit": false,
      "t": 135231.54933332012,
      "d": 9.469333333341638,
      "v": 100
    },
    {
      "midi": 62,
      "hit": false,
      "t": 135231.54933332012,
      "d": 28.408000000024913,
      "v": 80
    },
    {
      "midi": 45,
      "hit": false,
      "t": 135231.54933332012,
      "d": 85.22400000004563,
      "v": 100
    },
    {
      "midi": 38,
      "hit": false,
      "t": 135241.01866665346,
      "d": 85.22400000004563,
      "v": 100
    },
    {
      "midi": 46,
      "hit": false,
      "t": 135241.01866665346,
      "d": 94.69333333338727,
      "v": 92
    },
    {
      "midi": 65,
      "hit": false,
      "t": 135241.01866665346,
      "d": 94.69333333338727,
      "v": 80
    },
    {
      "midi": 38,
      "hit": false,
      "t": 135326.2426666535,
      "d": 9.469333333341638,
      "v": 110
    },
    {
      "midi": 38,
      "hit": false,
      "t": 135335.71199998684,
      "d": 37.87733333336655,
      "v": 100
    },
    {
      "midi": 45,
      "hit": false,
      "t": 135335.71199998684,
      "d": 37.87733333336655,
      "v": 100
    },
    {
      "midi": 65,
      "hit": false,
      "t": 135335.71199998684,
      "d": 85.22400000007474,
      "v": 80
    },
    {
      "midi": 26,
      "hit": false,
      "t": 135335.71199998684,
      "d": 94.69333333341638,
      "v": 127
    },
    {
      "midi": 118,
      "hit": false,
      "t": 135335.71199998684,
      "d": 94.69333333341638,
      "v": 50
    },
    {
      "midi": 62,
      "hit": false,
      "t": 135345.1813333202,
      "d": 9.469333333341638,
      "v": 80
    },
    {
      "midi": 53,
      "hit": false,
      "t": 135345.1813333202,
      "d": 28.408000000024913,
      "v": 100
    },
    {
      "midi": 57,
      "hit": false,
      "t": 135354.65066665353,
      "d": 9.469333333341638,
      "v": 80
    },
    {
      "midi": 62,
      "hit": false,
      "t": 135354.65066665353,
      "d": 37.87733333336655,
      "v": 100
    },
    {
      "midi": 57,
      "hit": false,
      "t": 135439.8746666536,
      "d": 9.469333333341638,
      "v": 100
    },
    {
      "midi": 62,
      "hit": false,
      "t": 135449.34399998694,
      "d": 9.469333333341638,
      "v": 100
    },
    {
      "midi": 57,
      "hit": false,
      "t": 135449.34399998694,
      "d": 9.469333333341638,
      "v": 100
    },
    {
      "midi": 69,
      "hit": false,
      "t": 135449.34399998694,
      "d": 85.22400000001653,
      "v": 80
    },
    {
      "midi": 26,
      "hit": false,
      "t": 135449.34399998694,
      "d": 94.69333333335817,
      "v": 127
    },
    {
      "midi": 15,
      "hit": false,
      "t": 135449.34399998694,
      "d": 94.69333333335817,
      "v": 100
    },
    {
      "midi": 13,
      "hit": false,
      "t": 135449.34399998694,
      "d": 94.69333333335817,
      "v": 100
    },
    {
      "midi": 10,
      "hit": false,
      "t": 135449.34399998694,
      "d": 94.69333333335817,
      "v": 127
    },
    {
      "midi": 42,
      "hit": false,
      "t": 135449.34399998694,
      "d": 94.69333333335817,
      "v": 92
    },
    {
      "midi": 53,
      "hit": false,
      "t": 135458.8133333203,
      "d": 9.469333333341638,
      "v": 100
    },
    {
      "midi": 45,
      "hit": false,
      "t": 135458.8133333203,
      "d": 9.469333333341638,
      "v": 100
    },
    {
      "midi": 38,
      "hit": false,
      "t": 135468.28266665363,
      "d": 9.469333333341638,
      "v": 100
    },
    {
      "midi": 38,
      "hit": false,
      "t": 135562.975999987,
      "d": 9.469333333341638,
      "v": 100
    },
    {
      "midi": 45,
      "hit": false,
      "t": 135562.975999987,
      "d": 9.469333333341638,
      "v": 100
    },
    {
      "midi": 74,
      "hit": false,
      "t": 135562.975999987,
      "d": 85.22400000004563,
      "v": 80
    },
    {
      "midi": 118,
      "hit": false,
      "t": 135562.975999987,
      "d": 94.69333333338727,
      "v": 50
    },
    {
      "midi": 53,
      "hit": false,
      "t": 135572.44533332033,
      "d": 9.469333333341638,
      "v": 100
    },
    {
      "midi": 57,
      "hit": false,
      "t": 135572.44533332033,
      "d": 9.469333333341638,
      "v": 100
    },
    {
      "midi": 42,
      "hit": false,
      "t": 135572.44533332033,
      "d": 94.69333333338727,
      "v": 78
    },
    {
      "midi": 62,
      "hit": false,
      "t": 135581.91466665367,
      "d": 9.469333333341638,
      "v": 100
    },
    {
      "midi": 62,
      "hit": false,
      "t": 135676.60799998706,
      "d": 85.22400000001653,
      "v": 100
    },
    {
      "midi": 57,
      "hit": false,
      "t": 135676.60799998706,
      "d": 85.22400000001653,
      "v": 100
    },
    {
      "midi": 77,
      "hit": false,
      "t": 135676.60799998706,
      "d": 85.22400000001653,
      "v": 80
    },
    {
      "midi": 26,
      "hit": false,
      "t": 135676.60799998706,
      "d": 94.69333333335817,
      "v": 127
    },
    {
      "midi": 118,
      "hit": false,
      "t": 135676.60799998706,
      "d": 94.69333333335817,
      "v": 30
    },
    {
      "midi": 53,
      "hit": false,
      "t": 135686.0773333204,
      "d": 85.22400000001653,
      "v": 100
    },
    {
      "midi": 45,
      "hit": false,
      "t": 135686.0773333204,
      "d": 85.22400000001653,
      "v": 100
    },
    {
      "midi": 38,
      "hit": false,
      "t": 135695.54666665374,
      "d": 85.22400000001653,
      "v": 100
    },
    {
      "midi": 46,
      "hit": false,
      "t": 135695.54666665374,
      "d": 94.69333333335817,
      "v": 92
    },
    {
      "midi": 38,
      "hit": false,
      "t": 135780.77066665376,
      "d": 9.469333333341638,
      "v": 100
    },
    {
      "midi": 38,
      "hit": false,
      "t": 135790.2399999871,
      "d": 85.22400000001653,
      "v": 100
    },
    {
      "midi": 45,
      "hit": false,
      "t": 135790.2399999871,
      "d": 85.22400000001653,
      "v": 100
    },
    {
      "midi": 81,
      "hit": false,
      "t": 135790.2399999871,
      "d": 85.22400000001653,
      "v": 80
    },
    {
      "midi": 63,
      "hit": false,
      "t": 135790.2399999871,
      "d": 94.69333333335817,
      "v": 80
    },
    {
      "midi": 53,
      "hit": false,
      "t": 135799.70933332044,
      "d": 85.22400000001653,
      "v": 100
    },
    {
      "midi": 57,
      "hit": false,
      "t": 135799.70933332044,
      "d": 85.22400000001653,
      "v": 100
    },
    {
      "midi": 62,
      "hit": false,
      "t": 135809.17866665378,
      "d": 85.22400000001653,
      "v": 100
    },
    {
      "midi": 62,
      "hit": false,
      "t": 135894.4026666538,
      "d": 9.469333333341638,
      "v": 90
    },
    {
      "midi": 62,
      "hit": false,
      "t": 135903.87199998714,
      "d": 85.22400000001653,
      "v": 100
    },
    {
      "midi": 57,
      "hit": false,
      "t": 135903.87199998714,
      "d": 85.22400000001653,
      "v": 100
    },
    {
      "midi": 86,
      "hit": false,
      "t": 135903.87199998714,
      "d": 85.22400000001653,
      "v": 80
    },
    {
      "midi": 26,
      "hit": false,
      "t": 135903.87199998714,
      "d": 94.69333333335817,
      "v": 127
    },
    {
      "midi": 15,
      "hit": false,
      "t": 135903.87199998714,
      "d": 94.69333333335817,
      "v": 100
    },
    {
      "midi": 13,
      "hit": false,
      "t": 135903.87199998714,
      "d": 94.69333333335817,
      "v": 100
    },
    {
      "midi": 10,
      "hit": false,
      "t": 135903.87199998714,
      "d": 94.69333333335817,
      "v": 127
    },
    {
      "midi": 127,
      "hit": false,
      "t": 135903.87199998714,
      "d": 94.69333333335817,
      "v": 60
    },
    {
      "midi": 108,
      "hit": false,
      "t": 135903.87199998714,
      "d": 94.69333333335817,
      "v": 80
    },
    {
      "midi": 105,
      "hit": false,
      "t": 135903.87199998714,
      "d": 94.69333333335817,
      "v": 100
    },
    {
      "midi": 42,
      "hit": false,
      "t": 135903.87199998714,
      "d": 94.69333333335817,
      "v": 92
    },
    {
      "midi": 118,
      "hit": false,
      "t": 135903.87199998714,
      "d": 94.69333333335817,
      "v": 50
    },
    {
      "midi": 64,
      "hit": false,
      "t": 135903.87199998714,
      "d": 94.69333333335817,
      "v": 70
    },
    {
      "midi": 53,
      "hit": false,
      "t": 135913.34133332048,
      "d": 85.22400000001653,
      "v": 100
    },
    {
      "midi": 45,
      "hit": false,
      "t": 135913.34133332048,
      "d": 85.22400000001653,
      "v": 100
    },
    {
      "midi": 38,
      "hit": false,
      "t": 135922.81066665382,
      "d": 85.22400000001653,
      "v": 100
    },
    {
      "midi": 38,
      "hit": false,
      "t": 136008.03466665384,
      "d": 208.3253333333705,
      "v": 100
    },
    {
      "midi": 45,
      "hit": false,
      "t": 136008.03466665384,
      "d": 208.3253333333705,
      "v": 100
    },
    {
      "midi": 81,
      "hit": false,
      "t": 136017.50399998718,
      "d": 85.22400000001653,
      "v": 80
    },
    {
      "midi": 26,
      "hit": false,
      "t": 136017.50399998718,
      "d": 94.69333333335817,
      "v": 127
    },
    {
      "midi": 53,
      "hit": false,
      "t": 136017.50399998718,
      "d": 208.3253333333705,
      "v": 100
    },
    {
      "midi": 57,
      "hit": false,
      "t": 136017.50399998718,
      "d": 208.3253333333705,
      "v": 100
    },
    {
      "midi": 62,
      "hit": false,
      "t": 136026.97333332052,
      "d": 75.7546666666749,
      "v": 100
    },
    {
      "midi": 42,
      "hit": false,
      "t": 136026.97333332052,
      "d": 94.69333333335817,
      "v": 78
    },
    {
      "midi": 77,
      "hit": false,
      "t": 136131.13599998722,
      "d": 85.22399999998743,
      "v": 80
    },
    {
      "midi": 26,
      "hit": false,
      "t": 136131.13599998722,
      "d": 94.69333333332906,
      "v": 127
    },
    {
      "midi": 118,
      "hit": false,
      "t": 136131.13599998722,
      "d": 94.69333333332906,
      "v": 50
    },
    {
      "midi": 81,
      "hit": false,
      "t": 136131.13599998722,
      "d": 236.73333333339542,
      "v": 100
    },
    {
      "midi": 46,
      "hit": false,
      "t": 136150.07466665388,
      "d": 94.69333333335817,
      "v": 92
    },
    {
      "midi": 62,
      "hit": false,
      "t": 136235.2986666539,
      "d": 94.69333333335817,
      "v": 90
    },
    {
      "midi": 57,
      "hit": false,
      "t": 136235.2986666539,
      "d": 94.69333333335817,
      "v": 90
    },
    {
      "midi": 74,
      "hit": false,
      "t": 136244.76799998723,
      "d": 85.22400000001653,
      "v": 80
    },
    {
      "midi": 53,
      "hit": false,
      "t": 136244.76799998723,
      "d": 94.69333333335817,
      "v": 90
    },
    {
      "midi": 45,
      "hit": false,
      "t": 136244.76799998723,
      "d": 94.69333333335817,
      "v": 90
    },
    {
      "midi": 118,
      "hit": false,
      "t": 136244.76799998723,
      "d": 94.69333333335817,
      "v": 30
    },
    {
      "midi": 38,
      "hit": false,
      "t": 136254.23733332058,
      "d": 94.69333333335817,
      "v": 90
    },
    {
      "midi": 88,
      "hit": false,
      "t": 136358.39999998728,
      "d": 85.22400000004563,
      "v": 117
    },
    {
      "midi": 28,
      "hit": false,
      "t": 136358.39999998728,
      "d": 94.69333333338727,
      "v": 127
    },
    {
      "midi": 15,
      "hit": false,
      "t": 136358.39999998728,
      "d": 94.69333333338727,
      "v": 100
    },
    {
      "midi": 13,
      "hit": false,
      "t": 136358.39999998728,
      "d": 94.69333333338727,
      "v": 100
    },
    {
      "midi": 10,
      "hit": false,
      "t": 136358.39999998728,
      "d": 94.69333333338727,
      "v": 127
    },
    {
      "midi": 42,
      "hit": false,
      "t": 136358.39999998728,
      "d": 94.69333333338727,
      "v": 92
    },
    {
      "midi": 68,
      "hit": false,
      "t": 136358.39999998728,
      "d": 94.69333333338727,
      "v": 107
    },
    {
      "midi": 40,
      "hit": false,
      "t": 136358.39999998728,
      "d": 416.65066666682833,
      "v": 100
    },
    {
      "midi": 47,
      "hit": false,
      "t": 136358.39999998728,
      "d": 416.65066666682833,
      "v": 100
    },
    {
      "midi": 100,
      "hit": false,
      "t": 136358.39999998728,
      "d": 1799.173333334009,
      "v": 90
    },
    {
      "midi": 64,
      "hit": false,
      "t": 136367.86933332062,
      "d": 9.469333333341638,
      "v": 80
    },
    {
      "midi": 56,
      "hit": false,
      "t": 136367.86933332062,
      "d": 28.408000000024913,
      "v": 100
    },
    {
      "midi": 59,
      "hit": false,
      "t": 136377.33866665396,
      "d": 9.469333333341638,
      "v": 80
    },
    {
      "midi": 64,
      "hit": false,
      "t": 136377.33866665396,
      "d": 85.22400000004563,
      "v": 100
    },
    {
      "midi": 56,
      "hit": false,
      "t": 136462.562666654,
      "d": 28.408000000024913,
      "v": 80
    },
    {
      "midi": 59,
      "hit": false,
      "t": 136472.03199998735,
      "d": 28.408000000024913,
      "v": 80
    },
    {
      "midi": 83,
      "hit": false,
      "t": 136472.03199998735,
      "d": 85.22400000001653,
      "v": 80
    },
    {
      "midi": 28,
      "hit": false,
      "t": 136472.03199998735,
      "d": 94.69333333335817,
      "v": 127
    },
    {
      "midi": 64,
      "hit": false,
      "t": 136481.5013333207,
      "d": 28.408000000024913,
      "v": 80
    },
    {
      "midi": 42,
      "hit": false,
      "t": 136481.5013333207,
      "d": 94.69333333335817,
      "v": 78
    },
    {
      "midi": 68,
      "hit": false,
      "t": 136490.97066665403,
      "d": 94.69333333335817,
      "v": 80
    },
    {
      "midi": 80,
      "hit": false,
      "t": 136585.6639999874,
      "d": 85.22399999998743,
      "v": 80
    },
    {
      "midi": 28,
      "hit": false,
      "t": 136585.6639999874,
      "d": 94.69333333332906,
      "v": 127
    },
    {
      "midi": 46,
      "hit": false,
      "t": 136604.60266665404,
      "d": 94.69333333335817,
      "v": 92
    },
    {
      "midi": 76,
      "hit": false,
      "t": 136699.2959999874,
      "d": 85.22400000004563,
      "v": 80
    },
    {
      "midi": 28,
      "hit": false,
      "t": 136699.2959999874,
      "d": 94.69333333338727,
      "v": 127
    },
    {
      "midi": 68,
      "hit": false,
      "t": 136699.2959999874,
      "d": 94.69333333338727,
      "v": 80
    },
    {
      "midi": 64,
      "hit": false,
      "t": 136708.76533332074,
      "d": 9.469333333341638,
      "v": 80
    },
    {
      "midi": 56,
      "hit": false,
      "t": 136708.76533332074,
      "d": 28.408000000024913,
      "v": 80
    },
    {
      "midi": 59,
      "hit": false,
      "t": 136718.23466665408,
      "d": 9.469333333341638,
      "v": 80
    },
    {
      "midi": 59,
      "hit": false,
      "t": 136803.45866665413,
      "d": 9.469333333341638,
      "v": 110
    },
    {
      "midi": 59,
      "hit": false,
      "t": 136812.92799998747,
      "d": 28.408000000024913,
      "v": 115
    },
    {
      "midi": 71,
      "hit": false,
      "t": 136812.92799998747,
      "d": 85.22400000004563,
      "v": 80
    },
    {
      "midi": 28,
      "hit": false,
      "t": 136812.92799998747,
      "d": 94.69333333338727,
      "v": 127
    },
    {
      "midi": 15,
      "hit": false,
      "t": 136812.92799998747,
      "d": 94.69333333338727,
      "v": 100
    },
    {
      "midi": 13,
      "hit": false,
      "t": 136812.92799998747,
      "d": 94.69333333338727,
      "v": 100
    },
    {
      "midi": 10,
      "hit": false,
      "t": 136812.92799998747,
      "d": 94.69333333338727,
      "v": 127
    },
    {
      "midi": 127,
      "hit": false,
      "t": 136812.92799998747,
      "d": 94.69333333338727,
      "v": 60
    },
    {
      "midi": 108,
      "hit": false,
      "t": 136812.92799998747,
      "d": 94.69333333338727,
      "v": 80
    },
    {
      "midi": 105,
      "hit": false,
      "t": 136812.92799998747,
      "d": 94.69333333338727,
      "v": 100
    },
    {
      "midi": 42,
      "hit": false,
      "t": 136812.92799998747,
      "d": 94.69333333338727,
      "v": 92
    },
    {
      "midi": 118,
      "hit": false,
      "t": 136812.92799998747,
      "d": 94.69333333338727,
      "v": 50
    },
    {
      "midi": 63,
      "hit": false,
      "t": 136812.92799998747,
      "d": 94.69333333338727,
      "v": 70
    },
    {
      "midi": 56,
      "hit": false,
      "t": 136822.3973333208,
      "d": 9.469333333341638,
      "v": 115
    },
    {
      "midi": 64,
      "hit": false,
      "t": 136822.3973333208,
      "d": 28.408000000024913,
      "v": 80
    },
    {
      "midi": 47,
      "hit": false,
      "t": 136822.3973333208,
      "d": 198.85600000008708,
      "v": 115
    },
    {
      "midi": 40,
      "hit": false,
      "t": 136822.3973333208,
      "d": 208.32533333342872,
      "v": 110
    },
    {
      "midi": 68,
      "hit": false,
      "t": 136831.86666665415,
      "d": 94.69333333338727,
      "v": 80
    },
    {
      "midi": 68,
      "hit": false,
      "t": 136926.55999998754,
      "d": 85.22400000001653,
      "v": 80
    },
    {
      "midi": 42,
      "hit": false,
      "t": 136936.02933332088,
      "d": 94.69333333335817,
      "v": 78
    },
    {
      "midi": 40,
      "hit": false,
      "t": 137040.19199998758,
      "d": 85.22400000001653,
      "v": 80
    },
    {
      "midi": 47,
      "hit": false,
      "t": 137040.19199998758,
      "d": 85.22400000001653,
      "v": 80
    },
    {
      "midi": 28,
      "hit": false,
      "t": 137040.19199998758,
      "d": 94.69333333335817,
      "v": 127
    },
    {
      "midi": 68,
      "hit": false,
      "t": 137040.19199998758,
      "d": 94.69333333335817,
      "v": 80
    },
    {
      "midi": 64,
      "hit": false,
      "t": 137049.66133332092,
      "d": 9.469333333341638,
      "v": 80
    },
    {
      "midi": 56,
      "hit": false,
      "t": 137049.66133332092,
      "d": 28.408000000024913,
      "v": 80
    },
    {
      "midi": 59,
      "hit": false,
      "t": 137059.13066665427,
      "d": 9.469333333341638,
      "v": 80
    },
    {
      "midi": 64,
      "hit": false,
      "t": 137059.13066665427,
      "d": 66.28533333333326,
      "v": 80
    },
    {
      "midi": 46,
      "hit": false,
      "t": 137059.13066665427,
      "d": 94.69333333335817,
      "v": 92
    },
    {
      "midi": 59,
      "hit": false,
      "t": 137144.35466665428,
      "d": 9.469333333341638,
      "v": 100
    },
    {
      "midi": 64,
      "hit": false,
      "t": 137144.35466665428,
      "d": 9.469333333341638,
      "v": 100
    },
    {
      "midi": 59,
      "hit": false,
      "t": 137153.82399998762,
      "d": 28.408000000024913,
      "v": 80
    },
    {
      "midi": 118,
      "hit": false,
      "t": 137153.82399998762,
      "d": 94.69333333338727,
      "v": 50
    },
    {
      "midi": 56,
      "hit": false,
      "t": 137163.29333332097,
      "d": 9.469333333341638,
      "v": 80
    },
    {
      "midi": 64,
      "hit": false,
      "t": 137163.29333332097,
      "d": 28.408000000024913,
      "v": 80
    },
    {
      "midi": 47,
      "hit": false,
      "t": 137163.29333332097,
      "d": 85.22400000004563,
      "v": 80
    },
    {
      "midi": 68,
      "hit": false,
      "t": 137172.7626666543,
      "d": 66.28533333336236,
      "v": 80
    },
    {
      "midi": 40,
      "hit": false,
      "t": 137172.7626666543,
      "d": 85.22400000004563,
      "v": 80
    },
    {
      "midi": 40,
      "hit": false,
      "t": 137257.98666665435,
      "d": 9.469333333341638,
      "v": 110
    },
    {
      "midi": 40,
      "hit": false,
      "t": 137267.4559999877,
      "d": 9.469333333341638,
      "v": 115
    },
    {
      "midi": 47,
      "hit": false,
      "t": 137267.4559999877,
      "d": 9.469333333341638,
      "v": 115
    },
    {
      "midi": 71,
      "hit": false,
      "t": 137267.4559999877,
      "d": 85.22400000004563,
      "v": 80
    },
    {
      "midi": 28,
      "hit": false,
      "t": 137267.4559999877,
      "d": 94.69333333338727,
      "v": 127
    },
    {
      "midi": 15,
      "hit": false,
      "t": 137267.4559999877,
      "d": 94.69333333338727,
      "v": 100
    },
    {
      "midi": 13,
      "hit": false,
      "t": 137267.4559999877,
      "d": 94.69333333338727,
      "v": 100
    },
    {
      "midi": 10,
      "hit": false,
      "t": 137267.4559999877,
      "d": 94.69333333338727,
      "v": 127
    },
    {
      "midi": 42,
      "hit": false,
      "t": 137267.4559999877,
      "d": 94.69333333338727,
      "v": 92
    },
    {
      "midi": 56,
      "hit": false,
      "t": 137276.92533332104,
      "d": 9.469333333341638,
      "v": 115
    },
    {
      "midi": 59,
      "hit": false,
      "t": 137276.92533332104,
      "d": 9.469333333341638,
      "v": 115
    },
    {
      "midi": 64,
      "hit": false,
      "t": 137286.39466665438,
      "d": 9.469333333341638,
      "v": 115
    },
    {
      "midi": 64,
      "hit": false,
      "t": 137381.08799998777,
      "d": 9.469333333341638,
      "v": 115
    },
    {
      "midi": 59,
      "hit": false,
      "t": 137381.08799998777,
      "d": 9.469333333341638,
      "v": 115
    },
    {
      "midi": 76,
      "hit": false,
      "t": 137381.08799998777,
      "d": 85.22400000004563,
      "v": 80
    },
    {
      "midi": 118,
      "hit": false,
      "t": 137381.08799998777,
      "d": 94.69333333338727,
      "v": 50
    },
    {
      "midi": 56,
      "hit": false,
      "t": 137390.5573333211,
      "d": 9.469333333341638,
      "v": 115
    },
    {
      "midi": 47,
      "hit": false,
      "t": 137390.5573333211,
      "d": 9.469333333341638,
      "v": 115
    },
    {
      "midi": 42,
      "hit": false,
      "t": 137390.5573333211,
      "d": 94.69333333338727,
      "v": 78
    },
    {
      "midi": 40,
      "hit": false,
      "t": 137400.02666665445,
      "d": 9.469333333341638,
      "v": 115
    },
    {
      "midi": 40,
      "hit": false,
      "t": 137494.71999998784,
      "d": 85.22400000001653,
      "v": 115
    },
    {
      "midi": 47,
      "hit": false,
      "t": 137494.71999998784,
      "d": 85.22400000001653,
      "v": 115
    },
    {
      "midi": 80,
      "hit": false,
      "t": 137494.71999998784,
      "d": 85.22400000001653,
      "v": 80
    },
    {
      "midi": 28,
      "hit": false,
      "t": 137494.71999998784,
      "d": 94.69333333335817,
      "v": 127
    },
    {
      "midi": 118,
      "hit": false,
      "t": 137494.71999998784,
      "d": 94.69333333335817,
      "v": 30
    },
    {
      "midi": 56,
      "hit": false,
      "t": 137504.18933332118,
      "d": 85.22400000001653,
      "v": 115
    },
    {
      "midi": 59,
      "hit": false,
      "t": 137504.18933332118,
      "d": 85.22400000001653,
      "v": 115
    },
    {
      "midi": 64,
      "hit": false,
      "t": 137513.65866665452,
      "d": 85.22400000001653,
      "v": 115
    },
    {
      "midi": 46,
      "hit": false,
      "t": 137513.65866665452,
      "d": 94.69333333335817,
      "v": 92
    },
    {
      "midi": 64,
      "hit": false,
      "t": 137598.88266665454,
      "d": 94.69333333335817,
      "v": 90
    },
    {
      "midi": 59,
      "hit": false,
      "t": 137598.88266665454,
      "d": 94.69333333335817,
      "v": 90
    },
    {
      "midi": 83,
      "hit": false,
      "t": 137608.35199998788,
      "d": 85.22400000001653,
      "v": 80
    },
    {
      "midi": 47,
      "hit": false,
      "t": 137608.35199998788,
      "d": 94.69333333335817,
      "v": 90
    },
    {
      "midi": 56,
      "hit": false,
      "t": 137608.35199998788,
      "d": 94.69333333335817,
      "v": 90
    },
    {
      "midi": 63,
      "hit": false,
      "t": 137608.35199998788,
      "d": 94.69333333335817,
      "v": 80
    },
    {
      "midi": 40,
      "hit": false,
      "t": 137617.82133332122,
      "d": 85.22400000001653,
      "v": 90
    },
    {
      "midi": 88,
      "hit": false,
      "t": 137721.98399998792,
      "d": 85.22400000001653,
      "v": 80
    },
    {
      "midi": 28,
      "hit": false,
      "t": 137721.98399998792,
      "d": 94.69333333335817,
      "v": 127
    },
    {
      "midi": 15,
      "hit": false,
      "t": 137721.98399998792,
      "d": 94.69333333335817,
      "v": 100
    },
    {
      "midi": 13,
      "hit": false,
      "t": 137721.98399998792,
      "d": 94.69333333335817,
      "v": 100
    },
    {
      "midi": 10,
      "hit": false,
      "t": 137721.98399998792,
      "d": 94.69333333335817,
      "v": 127
    },
    {
      "midi": 127,
      "hit": false,
      "t": 137721.98399998792,
      "d": 94.69333333335817,
      "v": 60
    },
    {
      "midi": 108,
      "hit": false,
      "t": 137721.98399998792,
      "d": 94.69333333335817,
      "v": 80
    },
    {
      "midi": 105,
      "hit": false,
      "t": 137721.98399998792,
      "d": 94.69333333335817,
      "v": 100
    },
    {
      "midi": 42,
      "hit": false,
      "t": 137721.98399998792,
      "d": 94.69333333335817,
      "v": 92
    },
    {
      "midi": 118,
      "hit": false,
      "t": 137721.98399998792,
      "d": 94.69333333335817,
      "v": 50
    },
    {
      "midi": 59,
      "hit": false,
      "t": 137721.98399998792,
      "d": 426.12000000002445,
      "v": 115
    },
    {
      "midi": 64,
      "hit": false,
      "t": 137731.45333332126,
      "d": 85.22400000001653,
      "v": 100
    },
    {
      "midi": 47,
      "hit": false,
      "t": 137731.45333332126,
      "d": 407.1813333333412,
      "v": 115
    },
    {
      "midi": 56,
      "hit": false,
      "t": 137731.45333332126,
      "d": 416.6506666666828,
      "v": 115
    },
    {
      "midi": 40,
      "hit": false,
      "t": 137740.9226666546,
      "d": 397.71199999999953,
      "v": 115
    },
    {
      "midi": 83,
      "hit": false,
      "t": 137835.61599998793,
      "d": 85.22400000001653,
      "v": 80
    },
    {
      "midi": 28,
      "hit": false,
      "t": 137835.61599998793,
      "d": 94.69333333335817,
      "v": 127
    },
    {
      "midi": 42,
      "hit": false,
      "t": 137845.08533332127,
      "d": 94.69333333335817,
      "v": 78
    },
    {
      "midi": 80,
      "hit": false,
      "t": 137949.24799998797,
      "d": 85.22399999998743,
      "v": 80
    },
    {
      "midi": 28,
      "hit": false,
      "t": 137949.24799998797,
      "d": 94.69333333332906,
      "v": 127
    },
    {
      "midi": 15,
      "hit": false,
      "t": 137949.24799998797,
      "d": 94.69333333332906,
      "v": 100
    },
    {
      "midi": 13,
      "hit": false,
      "t": 137949.24799998797,
      "d": 94.69333333332906,
      "v": 100
    },
    {
      "midi": 10,
      "hit": false,
      "t": 137949.24799998797,
      "d": 94.69333333332906,
      "v": 127
    },
    {
      "midi": 118,
      "hit": false,
      "t": 137949.24799998797,
      "d": 94.69333333332906,
      "v": 50
    },
    {
      "midi": 65,
      "hit": false,
      "t": 137949.24799998797,
      "d": 208.3253333333123,
      "v": 127
    },
    {
      "midi": 46,
      "hit": false,
      "t": 137968.18666665463,
      "d": 94.69333333332906,
      "v": 92
    },
    {
      "midi": 76,
      "hit": false,
      "t": 138062.87999998796,
      "d": 85.22399999998743,
      "v": 80
    },
    {
      "midi": 118,
      "hit": false,
      "t": 138062.87999998796,
      "d": 94.69333333332906,
      "v": 30
    },
    {
      "midi": 89,
      "hit": false,
      "t": 138176.51199998797,
      "d": 85.22400000004563,
      "v": 80
    },
    {
      "midi": 29,
      "hit": false,
      "t": 138176.51199998797,
      "d": 94.69333333338727,
      "v": 127
    },
    {
      "midi": 15,
      "hit": false,
      "t": 138176.51199998797,
      "d": 94.69333333338727,
      "v": 100
    },
    {
      "midi": 13,
      "hit": false,
      "t": 138176.51199998797,
      "d": 94.69333333338727,
      "v": 100
    },
    {
      "midi": 10,
      "hit": false,
      "t": 138176.51199998797,
      "d": 94.69333333338727,
      "v": 127
    },
    {
      "midi": 42,
      "hit": false,
      "t": 138176.51199998797,
      "d": 94.69333333338727,
      "v": 92
    },
    {
      "midi": 69,
      "hit": false,
      "t": 138176.51199998797,
      "d": 94.69333333338727,
      "v": 107
    },
    {
      "midi": 67,
      "hit": false,
      "t": 138176.51199998797,
      "d": 426.12000000019907,
      "v": 127
    },
    {
      "midi": 84,
      "hit": false,
      "t": 138176.51199998797,
      "d": 1571.9093333339551,
      "v": 100
    },
    {
      "midi": 103,
      "hit": false,
      "t": 138176.51199998797,
      "d": 1799.1733333341544,
      "v": 90
    },
    {
      "midi": 91,
      "hit": false,
      "t": 138176.51199998797,
      "d": 1799.1733333341544,
      "v": 117
    },
    {
      "midi": 65,
      "hit": false,
      "t": 138185.9813333213,
      "d": 9.469333333341638,
      "v": 80
    },
    {
      "midi": 57,
      "hit": false,
      "t": 138185.9813333213,
      "d": 28.408000000024913,
      "v": 115
    },
    {
      "midi": 52,
      "hit": false,
      "t": 138185.9813333213,
      "d": 416.65066666685743,
      "v": 115
    },
    {
      "midi": 60,
      "hit": false,
      "t": 138195.45066665465,
      "d": 9.469333333341638,
      "v": 80
    },
    {
      "midi": 48,
      "hit": false,
      "t": 138195.45066665465,
      "d": 416.65066666685743,
      "v": 115
    },
    {
      "midi": 41,
      "hit": false,
      "t": 138195.45066665465,
      "d": 416.65066666685743,
      "v": 115
    },
    {
      "midi": 57,
      "hit": false,
      "t": 138280.6746666547,
      "d": 28.408000000024913,
      "v": 80
    },
    {
      "midi": 60,
      "hit": false,
      "t": 138290.14399998804,
      "d": 28.408000000024913,
      "v": 80
    },
    {
      "midi": 86,
      "hit": false,
      "t": 138290.14399998804,
      "d": 85.22400000004563,
      "v": 80
    },
    {
      "midi": 29,
      "hit": false,
      "t": 138290.14399998804,
      "d": 94.69333333338727,
      "v": 127
    },
    {
      "midi": 65,
      "hit": false,
      "t": 138299.61333332138,
      "d": 28.408000000024913,
      "v": 80
    },
    {
      "midi": 42,
      "hit": false,
      "t": 138299.61333332138,
      "d": 94.69333333338727,
      "v": 78
    },
    {
      "midi": 69,
      "hit": false,
      "t": 138309.08266665472,
      "d": 94.69333333338727,
      "v": 80
    },
    {
      "midi": 81,
      "hit": false,
      "t": 138403.7759999881,
      "d": 85.22399999998743,
      "v": 80
    },
    {
      "midi": 29,
      "hit": false,
      "t": 138403.7759999881,
      "d": 94.69333333332906,
      "v": 127
    },
    {
      "midi": 46,
      "hit": false,
      "t": 138422.71466665476,
      "d": 94.69333333335817,
      "v": 92
    },
    {
      "midi": 77,
      "hit": false,
      "t": 138517.40799998812,
      "d": 85.22400000004563,
      "v": 80
    },
    {
      "midi": 29,
      "hit": false,
      "t": 138517.40799998812,
      "d": 94.69333333338727,
      "v": 127
    },
    {
      "midi": 69,
      "hit": false,
      "t": 138517.40799998812,
      "d": 94.69333333338727,
      "v": 80
    },
    {
      "midi": 64,
      "hit": false,
      "t": 138517.40799998812,
      "d": 94.69333333338727,
      "v": 70
    },
    {
      "midi": 65,
      "hit": false,
      "t": 138526.87733332146,
      "d": 9.469333333341638,
      "v": 80
    },
    {
      "midi": 57,
      "hit": false,
      "t": 138526.87733332146,
      "d": 28.408000000024913,
      "v": 80
    },
    {
      "midi": 60,
      "hit": false,
      "t": 138536.3466666548,
      "d": 9.469333333341638,
      "v": 80
    },
    {
      "midi": 60,
      "hit": false,
      "t": 138621.57066665485,
      "d": 9.469333333341638,
      "v": 105
    },
    {
      "midi": 60,
      "hit": false,
      "t": 138631.0399999882,
      "d": 28.408000000024913,
      "v": 115
    },
    {
      "midi": 74,
      "hit": false,
      "t": 138631.0399999882,
      "d": 85.22400000001653,
      "v": 80
    },
    {
      "midi": 29,
      "hit": false,
      "t": 138631.0399999882,
      "d": 94.69333333335817,
      "v": 127
    },
    {
      "midi": 15,
      "hit": false,
      "t": 138631.0399999882,
      "d": 94.69333333335817,
      "v": 100
    },
    {
      "midi": 13,
      "hit": false,
      "t": 138631.0399999882,
      "d": 94.69333333335817,
      "v": 100
    },
    {
      "midi": 10,
      "hit": false,
      "t": 138631.0399999882,
      "d": 94.69333333335817,
      "v": 127
    },
    {
      "midi": 127,
      "hit": false,
      "t": 138631.0399999882,
      "d": 94.69333333335817,
      "v": 60
    },
    {
      "midi": 108,
      "hit": false,
      "t": 138631.0399999882,
      "d": 94.69333333335817,
      "v": 80
    },
    {
      "midi": 105,
      "hit": false,
      "t": 138631.0399999882,
      "d": 94.69333333335817,
      "v": 100
    },
    {
      "midi": 42,
      "hit": false,
      "t": 138631.0399999882,
      "d": 94.69333333335817,
      "v": 92
    },
    {
      "midi": 118,
      "hit": false,
      "t": 138631.0399999882,
      "d": 94.69333333335817,
      "v": 50
    },
    {
      "midi": 63,
      "hit": false,
      "t": 138631.0399999882,
      "d": 94.69333333335817,
      "v": 70
    },
    {
      "midi": 52,
      "hit": false,
      "t": 138631.0399999882,
      "d": 208.3253333333996,
      "v": 105
    },
    {
      "midi": 57,
      "hit": false,
      "t": 138640.50933332153,
      "d": 9.469333333341638,
      "v": 115
    },
    {
      "midi": 65,
      "hit": false,
      "t": 138640.50933332153,
      "d": 28.408000000024913,
      "v": 80
    },
    {
      "midi": 48,
      "hit": false,
      "t": 138640.50933332153,
      "d": 208.3253333333996,
      "v": 105
    },
    {
      "midi": 41,
      "hit": false,
      "t": 138640.50933332153,
      "d": 208.3253333333996,
      "v": 105
    },
    {
      "midi": 69,
      "hit": false,
      "t": 138649.97866665488,
      "d": 94.69333333335817,
      "v": 80
    },
    {
      "midi": 69,
      "hit": false,
      "t": 138744.67199998823,
      "d": 85.22400000001653,
      "v": 80
    },
    {
      "midi": 42,
      "hit": false,
      "t": 138754.14133332158,
      "d": 94.69333333335817,
      "v": 78
    },
    {
      "midi": 41,
      "hit": false,
      "t": 138858.30399998827,
      "d": 47.34666666670819,
      "v": 80
    },
    {
      "midi": 48,
      "hit": false,
      "t": 138858.30399998827,
      "d": 47.34666666670819,
      "v": 80
    },
    {
      "midi": 29,
      "hit": false,
      "t": 138858.30399998827,
      "d": 94.69333333338727,
      "v": 127
    },
    {
      "midi": 69,
      "hit": false,
      "t": 138858.30399998827,
      "d": 94.69333333338727,
      "v": 80
    },
    {
      "midi": 64,
      "hit": false,
      "t": 138858.30399998827,
      "d": 426.1200000002282,
      "v": 127
    },
    {
      "midi": 65,
      "hit": false,
      "t": 138867.77333332162,
      "d": 9.469333333341638,
      "v": 80
    },
    {
      "midi": 57,
      "hit": false,
      "t": 138867.77333332162,
      "d": 28.408000000024913,
      "v": 80
    },
    {
      "midi": 52,
      "hit": false,
      "t": 138867.77333332162,
      "d": 47.34666666670819,
      "v": 80
    },
    {
      "midi": 60,
      "hit": false,
      "t": 138877.24266665496,
      "d": 9.469333333341638,
      "v": 80
    },
    {
      "midi": 65,
      "hit": false,
      "t": 138877.24266665496,
      "d": 47.34666666670819,
      "v": 80
    },
    {
      "midi": 46,
      "hit": false,
      "t": 138877.24266665496,
      "d": 94.69333333338727,
      "v": 92
    },
    {
      "midi": 60,
      "hit": false,
      "t": 138962.466666655,
      "d": 9.469333333341638,
      "v": 110
    },
    {
      "midi": 65,
      "hit": false,
      "t": 138962.466666655,
      "d": 9.469333333341638,
      "v": 110
    },
    {
      "midi": 60,
      "hit": false,
      "t": 138971.93599998835,
      "d": 28.408000000024913,
      "v": 80
    },
    {
      "midi": 118,
      "hit": false,
      "t": 138971.93599998835,
      "d": 94.69333333338727,
      "v": 50
    },
    {
      "midi": 57,
      "hit": false,
      "t": 138981.4053333217,
      "d": 9.469333333341638,
      "v": 80
    },
    {
      "midi": 65,
      "hit": false,
      "t": 138981.4053333217,
      "d": 28.408000000024913,
      "v": 80
    },
    {
      "midi": 52,
      "hit": false,
      "t": 138981.4053333217,
      "d": 47.34666666670819,
      "v": 80
    },
    {
      "midi": 48,
      "hit": false,
      "t": 138990.87466665503,
      "d": 47.34666666670819,
      "v": 80
    },
    {
      "midi": 41,
      "hit": false,
      "t": 138990.87466665503,
      "d": 47.34666666670819,
      "v": 80
    },
    {
      "midi": 69,
      "hit": false,
      "t": 138990.87466665503,
      "d": 66.28533333336236,
      "v": 80
    },
    {
      "midi": 48,
      "hit": false,
      "t": 139076.09866665507,
      "d": 9.469333333341638,
      "v": 100
    },
    {
      "midi": 41,
      "hit": false,
      "t": 139076.09866665507,
      "d": 9.469333333341638,
      "v": 100
    },
    {
      "midi": 41,
      "hit": false,
      "t": 139085.56799998842,
      "d": 9.469333333341638,
      "v": 115
    },
    {
      "midi": 48,
      "hit": false,
      "t": 139085.56799998842,
      "d": 9.469333333341638,
      "v": 115
    },
    {
      "midi": 74,
      "hit": false,
      "t": 139085.56799998842,
      "d": 85.22400000004563,
      "v": 80
    },
    {
      "midi": 29,
      "hit": false,
      "t": 139085.56799998842,
      "d": 94.69333333338727,
      "v": 127
    },
    {
      "midi": 15,
      "hit": false,
      "t": 139085.56799998842,
      "d": 94.69333333338727,
      "v": 100
    },
    {
      "midi": 13,
      "hit": false,
      "t": 139085.56799998842,
      "d": 94.69333333338727,
      "v": 100
    },
    {
      "midi": 10,
      "hit": false,
      "t": 139085.56799998842,
      "d": 94.69333333338727,
      "v": 127
    },
    {
      "midi": 42,
      "hit": false,
      "t": 139085.56799998842,
      "d": 94.69333333338727,
      "v": 92
    },
    {
      "midi": 52,
      "hit": false,
      "t": 139095.03733332176,
      "d": 9.469333333341638,
      "v": 115
    },
    {
      "midi": 57,
      "hit": false,
      "t": 139095.03733332176,
      "d": 9.469333333341638,
      "v": 115
    },
    {
      "midi": 60,
      "hit": false,
      "t": 139104.5066666551,
      "d": 9.469333333341638,
      "v": 115
    },
    {
      "midi": 65,
      "hit": false,
      "t": 139104.5066666551,
      "d": 9.469333333341638,
      "v": 115
    },
    {
      "midi": 65,
      "hit": false,
      "t": 139199.1999999885,
      "d": 9.469333333341638,
      "v": 115
    },
    {
      "midi": 60,
      "hit": false,
      "t": 139199.1999999885,
      "d": 9.469333333341638,
      "v": 115
    },
    {
      "midi": 77,
      "hit": false,
      "t": 139199.1999999885,
      "d": 85.22400000001653,
      "v": 80
    },
    {
      "midi": 118,
      "hit": false,
      "t": 139199.1999999885,
      "d": 94.69333333335817,
      "v": 50
    },
    {
      "midi": 57,
      "hit": false,
      "t": 139208.66933332183,
      "d": 9.469333333341638,
      "v": 115
    },
    {
      "midi": 52,
      "hit": false,
      "t": 139208.66933332183,
      "d": 9.469333333341638,
      "v": 115
    },
    {
      "midi": 42,
      "hit": false,
      "t": 139208.66933332183,
      "d": 94.69333333335817,
      "v": 78
    },
    {
      "midi": 48,
      "hit": false,
      "t": 139218.13866665517,
      "d": 9.469333333341638,
      "v": 115
    },
    {
      "midi": 41,
      "hit": false,
      "t": 139218.13866665517,
      "d": 9.469333333341638,
      "v": 115
    },
    {
      "midi": 81,
      "hit": false,
      "t": 139312.83199998853,
      "d": 85.22400000001653,
      "v": 80
    },
    {
      "midi": 29,
      "hit": false,
      "t": 139312.83199998853,
      "d": 94.69333333335817,
      "v": 127
    },
    {
      "midi": 118,
      "hit": false,
      "t": 139312.83199998853,
      "d": 94.69333333335817,
      "v": 30
    },
    {
      "midi": 41,
      "hit": false,
      "t": 139312.83199998853,
      "d": 198.85599999999977,
      "v": 115
    },
    {
      "midi": 48,
      "hit": false,
      "t": 139312.83199998853,
      "d": 198.85599999999977,
      "v": 115
    },
    {
      "midi": 52,
      "hit": false,
      "t": 139322.30133332187,
      "d": 198.85599999999977,
      "v": 115
    },
    {
      "midi": 57,
      "hit": false,
      "t": 139322.30133332187,
      "d": 198.85599999999977,
      "v": 115
    },
    {
      "midi": 46,
      "hit": false,
      "t": 139331.7706666552,
      "d": 94.69333333332906,
      "v": 92
    },
    {
      "midi": 60,
      "hit": false,
      "t": 139331.7706666552,
      "d": 198.85599999999977,
      "v": 115
    },
    {
      "midi": 65,
      "hit": false,
      "t": 139331.7706666552,
      "d": 198.85599999999977,
      "v": 115
    },
    {
      "midi": 86,
      "hit": false,
      "t": 139426.46399998854,
      "d": 85.22399999998743,
      "v": 80
    },
    {
      "midi": 63,
      "hit": false,
      "t": 139426.46399998854,
      "d": 94.69333333332906,
      "v": 80
    },
    {
      "midi": 60,
      "hit": false,
      "t": 139530.6266666552,
      "d": 9.469333333341638,
      "v": 110
    },
    {
      "midi": 65,
      "hit": false,
      "t": 139530.6266666552,
      "d": 9.469333333341638,
      "v": 110
    },
    {
      "midi": 89,
      "hit": false,
      "t": 139540.09599998855,
      "d": 85.22400000001653,
      "v": 80
    },
    {
      "midi": 29,
      "hit": false,
      "t": 139540.09599998855,
      "d": 94.69333333335817,
      "v": 127
    },
    {
      "midi": 15,
      "hit": false,
      "t": 139540.09599998855,
      "d": 94.69333333335817,
      "v": 100
    },
    {
      "midi": 13,
      "hit": false,
      "t": 139540.09599998855,
      "d": 94.69333333335817,
      "v": 100
    },
    {
      "midi": 10,
      "hit": false,
      "t": 139540.09599998855,
      "d": 94.69333333335817,
      "v": 127
    },
    {
      "midi": 127,
      "hit": false,
      "t": 139540.09599998855,
      "d": 94.69333333335817,
      "v": 60
    },
    {
      "midi": 108,
      "hit": false,
      "t": 139540.09599998855,
      "d": 94.69333333335817,
      "v": 80
    },
    {
      "midi": 105,
      "hit": false,
      "t": 139540.09599998855,
      "d": 94.69333333335817,
      "v": 100
    },
    {
      "midi": 42,
      "hit": false,
      "t": 139540.09599998855,
      "d": 94.69333333335817,
      "v": 92
    },
    {
      "midi": 118,
      "hit": false,
      "t": 139540.09599998855,
      "d": 94.69333333335817,
      "v": 50
    },
    {
      "midi": 64,
      "hit": false,
      "t": 139540.09599998855,
      "d": 94.69333333335817,
      "v": 70
    },
    {
      "midi": 65,
      "hit": false,
      "t": 139540.09599998855,
      "d": 198.85600000002887,
      "v": 115
    },
    {
      "midi": 60,
      "hit": false,
      "t": 139540.09599998855,
      "d": 198.85600000002887,
      "v": 115
    },
    {
      "midi": 57,
      "hit": false,
      "t": 139549.5653333219,
      "d": 198.85600000002887,
      "v": 115
    },
    {
      "midi": 52,
      "hit": false,
      "t": 139549.5653333219,
      "d": 198.85600000002887,
      "v": 115
    },
    {
      "midi": 48,
      "hit": false,
      "t": 139559.03466665524,
      "d": 198.85600000002887,
      "v": 115
    },
    {
      "midi": 41,
      "hit": false,
      "t": 139559.03466665524,
      "d": 198.85600000002887,
      "v": 115
    },
    {
      "midi": 93,
      "hit": false,
      "t": 139653.72799998856,
      "d": 85.22400000001653,
      "v": 80
    },
    {
      "midi": 29,
      "hit": false,
      "t": 139653.72799998856,
      "d": 94.69333333335817,
      "v": 127
    },
    {
      "midi": 42,
      "hit": false,
      "t": 139663.1973333219,
      "d": 94.69333333335817,
      "v": 78
    },
    {
      "midi": 41,
      "hit": false,
      "t": 139757.89066665526,
      "d": 94.69333333341638,
      "v": 90
    },
    {
      "midi": 47,
      "hit": false,
      "t": 139767.3599999886,
      "d": 18.938666666683275,
      "v": 64
    },
    {
      "midi": 98,
      "hit": false,
      "t": 139767.3599999886,
      "d": 85.22400000007474,
      "v": 80
    },
    {
      "midi": 29,
      "hit": false,
      "t": 139767.3599999886,
      "d": 94.69333333341638,
      "v": 127
    },
    {
      "midi": 83,
      "hit": false,
      "t": 139767.3599999886,
      "d": 94.69333333341638,
      "v": 110
    },
    {
      "midi": 57,
      "hit": false,
      "t": 139767.3599999886,
      "d": 94.69333333341638,
      "v": 90
    },
    {
      "midi": 118,
      "hit": false,
      "t": 139767.3599999886,
      "d": 94.69333333341638,
      "v": 50
    },
    {
      "midi": 48,
      "hit": false,
      "t": 139776.82933332195,
      "d": 18.938666666683275,
      "v": 64
    },
    {
      "midi": 60,
      "hit": false,
      "t": 139776.82933332195,
      "d": 94.69333333341638,
      "v": 90
    },
    {
      "midi": 65,
      "hit": false,
      "t": 139776.82933332195,
      "d": 94.69333333341638,
      "v": 90
    },
    {
      "midi": 49,
      "hit": false,
      "t": 139786.2986666553,
      "d": 18.938666666683275,
      "v": 64
    },
    {
      "midi": 46,
      "hit": false,
      "t": 139786.2986666553,
      "d": 94.69333333341638,
      "v": 92
    },
    {
      "midi": 50,
      "hit": false,
      "t": 139795.76799998863,
      "d": 18.938666666683275,
      "v": 64
    },
    {
      "midi": 51,
      "hit": false,
      "t": 139805.23733332197,
      "d": 18.938666666683275,
      "v": 64
    },
    {
      "midi": 52,
      "hit": false,
      "t": 139814.70666665531,
      "d": 18.938666666683275,
      "v": 64
    },
    {
      "midi": 53,
      "hit": false,
      "t": 139824.17599998866,
      "d": 18.938666666683275,
      "v": 64
    },
    {
      "midi": 54,
      "hit": false,
      "t": 139833.645333322,
      "d": 18.938666666683275,
      "v": 64
    },
    {
      "midi": 55,
      "hit": false,
      "t": 139843.11466665534,
      "d": 18.938666666683275,
      "v": 64
    },
    {
      "midi": 56,
      "hit": false,
      "t": 139852.58399998868,
      "d": 18.938666666683275,
      "v": 64
    },
    {
      "midi": 57,
      "hit": false,
      "t": 139862.05333332202,
      "d": 18.938666666683275,
      "v": 64
    },
    {
      "midi": 58,
      "hit": false,
      "t": 139871.52266665536,
      "d": 18.938666666683275,
      "v": 64
    },
    {
      "midi": 59,
      "hit": false,
      "t": 139880.9919999887,
      "d": 18.938666666683275,
      "v": 64
    },
    {
      "midi": 101,
      "hit": false,
      "t": 139880.9919999887,
      "d": 85.22400000007474,
      "v": 80
    },
    {
      "midi": 57,
      "hit": false,
      "t": 139880.9919999887,
      "d": 94.69333333341638,
      "v": 100
    },
    {
      "midi": 52,
      "hit": false,
      "t": 139880.9919999887,
      "d": 94.69333333341638,
      "v": 100
    },
    {
      "midi": 29,
      "hit": false,
      "t": 139880.9919999887,
      "d": 94.69333333341638,
      "v": 127
    },
    {
      "midi": 84,
      "hit": false,
      "t": 139880.9919999887,
      "d": 94.69333333341638,
      "v": 110
    },
    {
      "midi": 118,
      "hit": false,
      "t": 139880.9919999887,
      "d": 94.69333333341638,
      "v": 30
    },
    {
      "midi": 60,
      "hit": false,
      "t": 139890.46133332205,
      "d": 18.938666666683275,
      "v": 64
    },
    {
      "midi": 48,
      "hit": false,
      "t": 139890.46133332205,
      "d": 94.69333333341638,
      "v": 100
    },
    {
      "midi": 41,
      "hit": false,
      "t": 139890.46133332205,
      "d": 94.69333333341638,
      "v": 100
    },
    {
      "midi": 61,
      "hit": false,
      "t": 139899.9306666554,
      "d": 18.938666666683275,
      "v": 64
    },
    {
      "midi": 62,
      "hit": false,
      "t": 139909.39999998873,
      "d": 18.938666666683275,
      "v": 64
    },
    {
      "midi": 63,
      "hit": false,
      "t": 139918.86933332207,
      "d": 18.938666666683275,
      "v": 64
    },
    {
      "midi": 64,
      "hit": false,
      "t": 139928.3386666554,
      "d": 18.938666666683275,
      "v": 64
    },
    {
      "midi": 65,
      "hit": false,
      "t": 139937.80799998876,
      "d": 18.938666666683275,
      "v": 64
    },
    {
      "midi": 66,
      "hit": false,
      "t": 139947.2773333221,
      "d": 18.938666666683275,
      "v": 64
    },
    {
      "midi": 67,
      "hit": false,
      "t": 139956.74666665544,
      "d": 18.938666666683275,
      "v": 64
    },
    {
      "midi": 68,
      "hit": false,
      "t": 139966.21599998878,
      "d": 18.938666666683275,
      "v": 64
    },
    {
      "midi": 69,
      "hit": false,
      "t": 139975.68533332212,
      "d": 18.938666666683275,
      "v": 64
    },
    {
      "midi": 70,
      "hit": false,
      "t": 139985.15466665546,
      "d": 18.938666666683275,
      "v": 64
    },
    {
      "midi": 103,
      "hit": false,
      "t": 139994.6239999888,
      "d": 85.22400000001653,
      "v": 90
    },
    {
      "midi": 15,
      "hit": false,
      "t": 139994.6239999888,
      "d": 94.69333333335817,
      "v": 100
    },
    {
      "midi": 13,
      "hit": false,
      "t": 139994.6239999888,
      "d": 94.69333333335817,
      "v": 100
    },
    {
      "midi": 10,
      "hit": false,
      "t": 139994.6239999888,
      "d": 94.69333333335817,
      "v": 127
    },
    {
      "midi": 127,
      "hit": false,
      "t": 139994.6239999888,
      "d": 94.69333333335817,
      "v": 60
    },
    {
      "midi": 108,
      "hit": false,
      "t": 139994.6239999888,
      "d": 94.69333333335817,
      "v": 80
    },
    {
      "midi": 105,
      "hit": false,
      "t": 139994.6239999888,
      "d": 94.69333333335817,
      "v": 100
    },
    {
      "midi": 42,
      "hit": false,
      "t": 139994.6239999888,
      "d": 94.69333333335817,
      "v": 92
    },
    {
      "midi": 31,
      "hit": false,
      "t": 139994.6239999888,
      "d": 321.95733333335374,
      "v": 127
    },
    {
      "midi": 62,
      "hit": false,
      "t": 139994.6239999888,
      "d": 321.95733333335374,
      "v": 80
    },
    {
      "midi": 70,
      "hit": false,
      "t": 140004.09333332215,
      "d": 9.469333333341638,
      "v": 64
    },
    {
      "midi": 79,
      "hit": false,
      "t": 140004.09333332215,
      "d": 284.0800000000163,
      "v": 117
    },
    {
      "midi": 74,
      "hit": false,
      "t": 140004.09333332215,
      "d": 284.0800000000163,
      "v": 117
    },
    {
      "midi": 71,
      "hit": false,
      "t": 140004.09333332215,
      "d": 284.0800000000163,
      "v": 117
    },
    {
      "midi": 67,
      "hit": false,
      "t": 140004.09333332215,
      "d": 284.0800000000163,
      "v": 80
    },
    {
      "midi": 59,
      "hit": false,
      "t": 140004.09333332215,
      "d": 321.95733333335374,
      "v": 80
    },
    {
      "midi": 50,
      "hit": false,
      "t": 140004.09333332215,
      "d": 321.95733333335374,
      "v": 110
    },
    {
      "midi": 43,
      "hit": false,
      "t": 140013.5626666555,
      "d": 321.95733333335374,
      "v": 110
    },
    {
      "midi": 98,
      "hit": false,
      "t": 140108.25599998882,
      "d": 85.22400000001653,
      "v": 80
    },
    {
      "midi": 42,
      "hit": false,
      "t": 140117.72533332216,
      "d": 94.69333333332906,
      "v": 78
    },
    {
      "midi": 95,
      "hit": false,
      "t": 140221.88799998883,
      "d": 85.22399999998743,
      "v": 80
    },
    {
      "midi": 46,
      "hit": false,
      "t": 140240.82666665548,
      "d": 94.69333333335817,
      "v": 92
    },
    {
      "midi": 91,
      "hit": false,
      "t": 140335.51999998884,
      "d": 85.22400000001653,
      "v": 80
    },
    {
      "midi": 127,
      "hit": false,
      "t": 140335.51999998884,
      "d": 94.69333333335817,
      "v": 60
    },
    {
      "midi": 108,
      "hit": false,
      "t": 140335.51999998884,
      "d": 94.69333333335817,
      "v": 80
    },
    {
      "midi": 105,
      "hit": false,
      "t": 140335.51999998884,
      "d": 94.69333333335817,
      "v": 100
    },
    {
      "midi": 126,
      "hit": false,
      "t": 140335.51999998884,
      "d": 94.69333333335817,
      "v": 100
    },
    {
      "midi": 31,
      "hit": false,
      "t": 140335.51999998884,
      "d": 321.95733333332464,
      "v": 127
    },
    {
      "midi": 43,
      "hit": false,
      "t": 140335.51999998884,
      "d": 321.95733333332464,
      "v": 100
    },
    {
      "midi": 50,
      "hit": false,
      "t": 140335.51999998884,
      "d": 321.95733333332464,
      "v": 100
    },
    {
      "midi": 83,
      "hit": false,
      "t": 140335.51999998884,
      "d": 321.95733333332464,
      "v": 116
    },
    {
      "midi": 79,
      "hit": false,
      "t": 140344.98933332218,
      "d": 284.0799999999872,
      "v": 117
    },
    {
      "midi": 74,
      "hit": false,
      "t": 140344.98933332218,
      "d": 284.0799999999872,
      "v": 117
    },
    {
      "midi": 59,
      "hit": false,
      "t": 140344.98933332218,
      "d": 303.01866666664137,
      "v": 100
    },
    {
      "midi": 62,
      "hit": false,
      "t": 140344.98933332218,
      "d": 312.487999999983,
      "v": 100
    },
    {
      "midi": 71,
      "hit": false,
      "t": 140354.45866665553,
      "d": 274.61066666664556,
      "v": 80
    },
    {
      "midi": 67,
      "hit": false,
      "t": 140354.45866665553,
      "d": 274.61066666664556,
      "v": 100
    },
    {
      "midi": 95,
      "hit": false,
      "t": 140449.15199998886,
      "d": 85.22399999998743,
      "v": 80
    },
    {
      "midi": 15,
      "hit": false,
      "t": 140449.15199998886,
      "d": 94.69333333332906,
      "v": 100
    },
    {
      "midi": 13,
      "hit": false,
      "t": 140449.15199998886,
      "d": 94.69333333332906,
      "v": 100
    },
    {
      "midi": 10,
      "hit": false,
      "t": 140449.15199998886,
      "d": 94.69333333332906,
      "v": 127
    },
    {
      "midi": 42,
      "hit": false,
      "t": 140449.15199998886,
      "d": 94.69333333332906,
      "v": 92
    },
    {
      "midi": 118,
      "hit": false,
      "t": 140449.15199998886,
      "d": 94.69333333332906,
      "v": 50
    },
    {
      "midi": 91,
      "hit": false,
      "t": 140562.78399998884,
      "d": 85.22399999998743,
      "v": 80
    },
    {
      "midi": 42,
      "hit": false,
      "t": 140572.25333332218,
      "d": 94.69333333332906,
      "v": 78
    },
    {
      "midi": 67,
      "hit": false,
      "t": 140666.9466666555,
      "d": 9.469333333341638,
      "v": 80
    },
    {
      "midi": 83,
      "hit": false,
      "t": 140676.41599998885,
      "d": 85.22400000001653,
      "v": 80
    },
    {
      "midi": 127,
      "hit": false,
      "t": 140676.41599998885,
      "d": 94.69333333335817,
      "v": 60
    },
    {
      "midi": 108,
      "hit": false,
      "t": 140676.41599998885,
      "d": 94.69333333335817,
      "v": 80
    },
    {
      "midi": 105,
      "hit": false,
      "t": 140676.41599998885,
      "d": 94.69333333335817,
      "v": 100
    },
    {
      "midi": 86,
      "hit": false,
      "t": 140676.41599998885,
      "d": 189.38666666665813,
      "v": 116
    },
    {
      "midi": 31,
      "hit": false,
      "t": 140676.41599998885,
      "d": 208.3253333333414,
      "v": 127
    },
    {
      "midi": 67,
      "hit": false,
      "t": 140685.8853333222,
      "d": 189.38666666665813,
      "v": 80
    },
    {
      "midi": 71,
      "hit": false,
      "t": 140685.8853333222,
      "d": 198.85599999999977,
      "v": 117
    },
    {
      "midi": 59,
      "hit": false,
      "t": 140685.8853333222,
      "d": 208.3253333333414,
      "v": 80
    },
    {
      "midi": 50,
      "hit": false,
      "t": 140685.8853333222,
      "d": 208.3253333333414,
      "v": 100
    },
    {
      "midi": 74,
      "hit": false,
      "t": 140685.8853333222,
      "d": 227.26400000002468,
      "v": 117
    },
    {
      "midi": 46,
      "hit": false,
      "t": 140695.35466665553,
      "d": 94.69333333332906,
      "v": 92
    },
    {
      "midi": 62,
      "hit": false,
      "t": 140695.35466665553,
      "d": 189.38666666665813,
      "v": 80
    },
    {
      "midi": 43,
      "hit": false,
      "t": 140695.35466665553,
      "d": 208.3253333333414,
      "v": 100
    },
    {
      "midi": 79,
      "hit": false,
      "t": 140790.04799998886,
      "d": 85.22399999998743,
      "v": 80
    },
    {
      "midi": 118,
      "hit": false,
      "t": 140790.04799998886,
      "d": 94.69333333332906,
      "v": 50
    },
    {
      "midi": 31,
      "hit": false,
      "t": 140903.67999998888,
      "d": 94.69333333335817,
      "v": 127
    },
    {
      "midi": 15,
      "hit": false,
      "t": 140903.67999998888,
      "d": 94.69333333335817,
      "v": 100
    },
    {
      "midi": 13,
      "hit": false,
      "t": 140903.67999998888,
      "d": 94.69333333335817,
      "v": 100
    },
    {
      "midi": 10,
      "hit": false,
      "t": 140903.67999998888,
      "d": 94.69333333335817,
      "v": 127
    },
    {
      "midi": 42,
      "hit": false,
      "t": 140903.67999998888,
      "d": 94.69333333335817,
      "v": 92
    },
    {
      "midi": 55,
      "hit": false,
      "t": 140903.67999998888,
      "d": 113.63200000001234,
      "v": 70
    },
    {
      "midi": 33,
      "hit": false,
      "t": 141017.3119999889,
      "d": 94.69333333335817,
      "v": 127
    },
    {
      "midi": 57,
      "hit": false,
      "t": 141017.3119999889,
      "d": 113.63200000004144,
      "v": 70
    },
    {
      "midi": 42,
      "hit": false,
      "t": 141026.78133332223,
      "d": 94.69333333335817,
      "v": 78
    },
    {
      "midi": 35,
      "hit": false,
      "t": 141130.94399998893,
      "d": 94.69333333335817,
      "v": 127
    },
    {
      "midi": 48,
      "hit": false,
      "t": 141130.94399998893,
      "d": 94.69333333335817,
      "v": 127
    },
    {
      "midi": 59,
      "hit": false,
      "t": 141130.94399998893,
      "d": 113.63200000001234,
      "v": 70
    },
    {
      "midi": 46,
      "hit": false,
      "t": 141149.8826666556,
      "d": 94.69333333332906,
      "v": 92
    },
    {
      "midi": 36,
      "hit": false,
      "t": 141244.57599998894,
      "d": 94.69333333332906,
      "v": 127
    },
    {
      "midi": 60,
      "hit": false,
      "t": 141244.57599998894,
      "d": 113.63199999998324,
      "v": 70
    },
    {
      "midi": 38,
      "hit": false,
      "t": 141358.20799998892,
      "d": 94.69333333335817,
      "v": 127
    },
    {
      "midi": 15,
      "hit": false,
      "t": 141358.20799998892,
      "d": 94.69333333335817,
      "v": 100
    },
    {
      "midi": 45,
      "hit": false,
      "t": 141358.20799998892,
      "d": 94.69333333335817,
      "v": 127
    },
    {
      "midi": 13,
      "hit": false,
      "t": 141358.20799998892,
      "d": 94.69333333335817,
      "v": 100
    },
    {
      "midi": 10,
      "hit": false,
      "t": 141358.20799998892,
      "d": 94.69333333335817,
      "v": 127
    },
    {
      "midi": 42,
      "hit": false,
      "t": 141358.20799998892,
      "d": 94.69333333335817,
      "v": 92
    },
    {
      "midi": 62,
      "hit": false,
      "t": 141358.20799998892,
      "d": 113.63200000001234,
      "v": 70
    },
    {
      "midi": 40,
      "hit": false,
      "t": 141471.83999998894,
      "d": 94.69333333332906,
      "v": 127
    },
    {
      "midi": 43,
      "hit": false,
      "t": 141471.83999998894,
      "d": 94.69333333332906,
      "v": 127
    },
    {
      "midi": 64,
      "hit": false,
      "t": 141471.83999998894,
      "d": 113.63200000001234,
      "v": 70
    },
    {
      "midi": 42,
      "hit": false,
      "t": 141481.30933332228,
      "d": 94.69333333332906,
      "v": 78
    },
    {
      "midi": 41,
      "hit": false,
      "t": 141585.47199998895,
      "d": 94.69333333335817,
      "v": 127
    },
    {
      "midi": 65,
      "hit": false,
      "t": 141585.47199998895,
      "d": 113.63200000001234,
      "v": 70
    },
    {
      "midi": 46,
      "hit": false,
      "t": 141604.41066665563,
      "d": 94.69333333332906,
      "v": 92
    },
    {
      "midi": 43,
      "hit": false,
      "t": 141699.10399998896,
      "d": 94.69333333332906,
      "v": 127
    },
    {
      "midi": 67,
      "hit": false,
      "t": 141699.10399998896,
      "d": 113.63200000001234,
      "v": 70
    },
    {
      "midi": 60,
      "hit": false,
      "t": 141812.73599998897,
      "d": 66.28533333336236,
      "v": 110
    },
    {
      "midi": 24,
      "hit": false,
      "t": 141812.73599998897,
      "d": 94.69333333335817,
      "v": 127
    },
    {
      "midi": 15,
      "hit": false,
      "t": 141812.73599998897,
      "d": 94.69333333335817,
      "v": 100
    },
    {
      "midi": 13,
      "hit": false,
      "t": 141812.73599998897,
      "d": 94.69333333335817,
      "v": 100
    },
    {
      "midi": 10,
      "hit": false,
      "t": 141812.73599998897,
      "d": 94.69333333335817,
      "v": 127
    },
    {
      "midi": 42,
      "hit": false,
      "t": 141812.73599998897,
      "d": 94.69333333335817,
      "v": 92
    },
    {
      "midi": 57,
      "hit": false,
      "t": 141812.73599998897,
      "d": 909.0560000001278,
      "v": 80
    },
    {
      "midi": 60,
      "hit": false,
      "t": 141916.89866665567,
      "d": 75.7546666666749,
      "v": 100
    },
    {
      "midi": 24,
      "hit": false,
      "t": 141926.36799998902,
      "d": 94.69333333332906,
      "v": 127
    },
    {
      "midi": 64,
      "hit": false,
      "t": 141926.36799998902,
      "d": 94.69333333332906,
      "v": 110
    },
    {
      "midi": 42,
      "hit": false,
      "t": 141935.83733332236,
      "d": 94.69333333332906,
      "v": 78
    },
    {
      "midi": 60,
      "hit": false,
      "t": 142030.5306666557,
      "d": 75.7546666666749,
      "v": 100
    },
    {
      "midi": 48,
      "hit": false,
      "t": 142039.99999998903,
      "d": 94.69333333332906,
      "v": 80
    },
    {
      "midi": 36,
      "hit": false,
      "t": 142039.99999998903,
      "d": 94.69333333332906,
      "v": 127
    },
    {
      "midi": 64,
      "hit": false,
      "t": 142039.99999998903,
      "d": 94.69333333332906,
      "v": 110
    },
    {
      "midi": 62,
      "hit": false,
      "t": 142039.99999998903,
      "d": 94.69333333332906,
      "v": 100
    },
    {
      "midi": 46,
      "hit": false,
      "t": 142058.93866665568,
      "d": 94.69333333335817,
      "v": 92
    },
    {
      "midi": 60,
      "hit": false,
      "t": 142144.1626666557,
      "d": 75.7546666666749,
      "v": 100
    },
    {
      "midi": 64,
      "hit": false,
      "t": 142153.63199998904,
      "d": 85.22399999998743,
      "v": 70
    },
    {
      "midi": 24,
      "hit": false,
      "t": 142153.63199998904,
      "d": 94.69333333332906,
      "v": 127
    },
    {
      "midi": 79,
      "hit": false,
      "t": 142257.7946666557,
      "d": 94.69333333332906,
      "v": 100
    },
    {
      "midi": 62,
      "hit": false,
      "t": 142267.26399998905,
      "d": 18.93866666665417,
      "v": 70
    },
    {
      "midi": 60,
      "hit": false,
      "t": 142267.26399998905,
      "d": 66.28533333330415,
      "v": 127
    },
    {
      "midi": 24,
      "hit": false,
      "t": 142267.26399998905,
      "d": 94.69333333332906,
      "v": 127
    },
    {
      "midi": 67,
      "hit": false,
      "t": 142267.26399998905,
      "d": 94.69333333332906,
      "v": 110
    },
    {
      "midi": 15,
      "hit": false,
      "t": 142267.26399998905,
      "d": 94.69333333332906,
      "v": 100
    },
    {
      "midi": 13,
      "hit": false,
      "t": 142267.26399998905,
      "d": 94.69333333332906,
      "v": 100
    },
    {
      "midi": 10,
      "hit": false,
      "t": 142267.26399998905,
      "d": 94.69333333332906,
      "v": 127
    },
    {
      "midi": 127,
      "hit": false,
      "t": 142267.26399998905,
      "d": 94.69333333332906,
      "v": 60
    },
    {
      "midi": 108,
      "hit": false,
      "t": 142267.26399998905,
      "d": 94.69333333332906,
      "v": 80
    },
    {
      "midi": 105,
      "hit": false,
      "t": 142267.26399998905,
      "d": 94.69333333332906,
      "v": 100
    },
    {
      "midi": 42,
      "hit": false,
      "t": 142267.26399998905,
      "d": 94.69333333332906,
      "v": 92
    },
    {
      "midi": 72,
      "hit": false,
      "t": 142267.26399998905,
      "d": 94.69333333332906,
      "v": 100
    },
    {
      "midi": 118,
      "hit": false,
      "t": 142267.26399998905,
      "d": 94.69333333332906,
      "v": 60
    },
    {
      "midi": 63,
      "hit": false,
      "t": 142267.26399998905,
      "d": 94.69333333332906,
      "v": 70
    },
    {
      "midi": 72,
      "hit": false,
      "t": 142371.42666665572,
      "d": 94.69333333335817,
      "v": 100
    },
    {
      "midi": 60,
      "hit": false,
      "t": 142380.89599998906,
      "d": 66.28533333336236,
      "v": 110
    },
    {
      "midi": 24,
      "hit": false,
      "t": 142380.89599998906,
      "d": 94.69333333335817,
      "v": 127
    },
    {
      "midi": 67,
      "hit": false,
      "t": 142380.89599998906,
      "d": 94.69333333335817,
      "v": 73
    },
    {
      "midi": 79,
      "hit": false,
      "t": 142380.89599998906,
      "d": 94.69333333335817,
      "v": 100
    },
    {
      "midi": 42,
      "hit": false,
      "t": 142390.3653333224,
      "d": 94.69333333335817,
      "v": 78
    },
    {
      "midi": 60,
      "hit": false,
      "t": 142485.05866665576,
      "d": 75.75466666664579,
      "v": 100
    },
    {
      "midi": 79,
      "hit": false,
      "t": 142485.05866665576,
      "d": 94.69333333332906,
      "v": 100
    },
    {
      "midi": 48,
      "hit": false,
      "t": 142494.5279999891,
      "d": 94.69333333332906,
      "v": 80
    },
    {
      "midi": 36,
      "hit": false,
      "t": 142494.5279999891,
      "d": 94.69333333332906,
      "v": 127
    },
    {
      "midi": 62,
      "hit": false,
      "t": 142494.5279999891,
      "d": 94.69333333332906,
      "v": 100
    },
    {
      "midi": 72,
      "hit": false,
      "t": 142494.5279999891,
      "d": 94.69333333332906,
      "v": 100
    },
    {
      "midi": 46,
      "hit": false,
      "t": 142513.46666665576,
      "d": 94.69333333335817,
      "v": 92
    },
    {
      "midi": 60,
      "hit": false,
      "t": 142598.69066665578,
      "d": 75.75466666664579,
      "v": 100
    },
    {
      "midi": 72,
      "hit": false,
      "t": 142598.69066665578,
      "d": 94.69333333329996,
      "v": 100
    },
    {
      "midi": 24,
      "hit": false,
      "t": 142608.15999998912,
      "d": 94.69333333329996,
      "v": 127
    },
    {
      "midi": 64,
      "hit": false,
      "t": 142608.15999998912,
      "d": 94.69333333329996,
      "v": 110
    },
    {
      "midi": 79,
      "hit": false,
      "t": 142608.15999998912,
      "d": 94.69333333329996,
      "v": 100
    },
    {
      "midi": 118,
      "hit": false,
      "t": 142608.15999998912,
      "d": 94.69333333329996,
      "v": 60
    },
    {
      "midi": 79,
      "hit": false,
      "t": 142712.32266665576,
      "d": 94.69333333332906,
      "v": 60
    },
    {
      "midi": 62,
      "hit": false,
      "t": 142721.7919999891,
      "d": 18.93866666665417,
      "v": 70
    },
    {
      "midi": 24,
      "hit": false,
      "t": 142721.7919999891,
      "d": 94.69333333332906,
      "v": 127
    },
    {
      "midi": 15,
      "hit": false,
      "t": 142721.7919999891,
      "d": 94.69333333332906,
      "v": 100
    },
    {
      "midi": 13,
      "hit": false,
      "t": 142721.7919999891,
      "d": 94.69333333332906,
      "v": 100
    },
    {
      "midi": 10,
      "hit": false,
      "t": 142721.7919999891,
      "d": 94.69333333332906,
      "v": 127
    },
    {
      "midi": 42,
      "hit": false,
      "t": 142721.7919999891,
      "d": 94.69333333332906,
      "v": 92
    },
    {
      "midi": 72,
      "hit": false,
      "t": 142721.7919999891,
      "d": 94.69333333332906,
      "v": 60
    },
    {
      "midi": 60,
      "hit": false,
      "t": 142825.95466665577,
      "d": 9.469333333341638,
      "v": 100
    },
    {
      "midi": 72,
      "hit": false,
      "t": 142825.95466665577,
      "d": 9.469333333341638,
      "v": 60
    },
    {
      "midi": 62,
      "hit": false,
      "t": 142835.4239999891,
      "d": 18.938666666683275,
      "v": 70
    },
    {
      "midi": 60,
      "hit": false,
      "t": 142835.4239999891,
      "d": 66.28533333336236,
      "v": 110
    },
    {
      "midi": 24,
      "hit": false,
      "t": 142835.4239999891,
      "d": 94.69333333338727,
      "v": 127
    },
    {
      "midi": 79,
      "hit": false,
      "t": 142835.4239999891,
      "d": 94.69333333338727,
      "v": 60
    },
    {
      "midi": 118,
      "hit": false,
      "t": 142835.4239999891,
      "d": 94.69333333338727,
      "v": 60
    },
    {
      "midi": 42,
      "hit": false,
      "t": 142844.89333332246,
      "d": 94.69333333338727,
      "v": 78
    },
    {
      "midi": 60,
      "hit": false,
      "t": 142939.58666665584,
      "d": 75.7546666666749,
      "v": 100
    },
    {
      "midi": 79,
      "hit": false,
      "t": 142939.58666665584,
      "d": 94.69333333335817,
      "v": 60
    },
    {
      "midi": 62,
      "hit": false,
      "t": 142949.05599998918,
      "d": 75.7546666666749,
      "v": 100
    },
    {
      "midi": 59,
      "hit": false,
      "t": 142949.05599998918,
      "d": 75.7546666666749,
      "v": 110
    },
    {
      "midi": 71,
      "hit": false,
      "t": 142949.05599998918,
      "d": 75.7546666666749,
      "v": 120
    },
    {
      "midi": 48,
      "hit": false,
      "t": 142949.05599998918,
      "d": 94.69333333335817,
      "v": 80
    },
    {
      "midi": 36,
      "hit": false,
      "t": 142949.05599998918,
      "d": 94.69333333335817,
      "v": 127
    },
    {
      "midi": 64,
      "hit": false,
      "t": 142949.05599998918,
      "d": 94.69333333335817,
      "v": 110
    },
    {
      "midi": 72,
      "hit": false,
      "t": 142949.05599998918,
      "d": 94.69333333335817,
      "v": 60
    },
    {
      "midi": 118,
      "hit": false,
      "t": 142949.05599998918,
      "d": 94.69333333335817,
      "v": 40
    },
    {
      "midi": 46,
      "hit": false,
      "t": 142967.99466665584,
      "d": 94.69333333338727,
      "v": 92
    },
    {
      "midi": 60,
      "hit": false,
      "t": 143053.21866665588,
      "d": 75.7546666666749,
      "v": 100
    },
    {
      "midi": 24,
      "hit": false,
      "t": 143062.68799998923,
      "d": 94.69333333332906,
      "v": 127
    },
    {
      "midi": 62,
      "hit": false,
      "t": 143062.68799998923,
      "d": 94.69333333332906,
      "v": 110
    },
    {
      "midi": 63,
      "hit": false,
      "t": 143062.68799998923,
      "d": 94.69333333332906,
      "v": 80
    },
    {
      "midi": 79,
      "hit": false,
      "t": 143166.8506666559,
      "d": 94.69333333335817,
      "v": 110
    },
    {
      "midi": 62,
      "hit": false,
      "t": 143176.31999998924,
      "d": 18.93866666665417,
      "v": 70
    },
    {
      "midi": 60,
      "hit": false,
      "t": 143176.31999998924,
      "d": 66.28533333333326,
      "v": 110
    },
    {
      "midi": 72,
      "hit": false,
      "t": 143176.31999998924,
      "d": 75.7546666666749,
      "v": 110
    },
    {
      "midi": 24,
      "hit": false,
      "t": 143176.31999998924,
      "d": 94.69333333335817,
      "v": 127
    },
    {
      "midi": 15,
      "hit": false,
      "t": 143176.31999998924,
      "d": 94.69333333335817,
      "v": 100
    },
    {
      "midi": 13,
      "hit": false,
      "t": 143176.31999998924,
      "d": 94.69333333335817,
      "v": 100
    },
    {
      "midi": 10,
      "hit": false,
      "t": 143176.31999998924,
      "d": 94.69333333335817,
      "v": 127
    },
    {
      "midi": 127,
      "hit": false,
      "t": 143176.31999998924,
      "d": 94.69333333335817,
      "v": 60
    },
    {
      "midi": 108,
      "hit": false,
      "t": 143176.31999998924,
      "d": 94.69333333335817,
      "v": 80
    },
    {
      "midi": 105,
      "hit": false,
      "t": 143176.31999998924,
      "d": 94.69333333335817,
      "v": 100
    },
    {
      "midi": 42,
      "hit": false,
      "t": 143176.31999998924,
      "d": 94.69333333335817,
      "v": 92
    },
    {
      "midi": 118,
      "hit": false,
      "t": 143176.31999998924,
      "d": 94.69333333335817,
      "v": 60
    },
    {
      "midi": 64,
      "hit": false,
      "t": 143176.31999998924,
      "d": 94.69333333335817,
      "v": 70
    },
    {
      "midi": 72,
      "hit": false,
      "t": 143280.48266665594,
      "d": 94.69333333332906,
      "v": 110
    },
    {
      "midi": 60,
      "hit": false,
      "t": 143289.95199998928,
      "d": 66.28533333333326,
      "v": 110
    },
    {
      "midi": 24,
      "hit": false,
      "t": 143289.95199998928,
      "d": 94.69333333332906,
      "v": 127
    },
    {
      "midi": 79,
      "hit": false,
      "t": 143289.95199998928,
      "d": 94.69333333332906,
      "v": 110
    },
    {
      "midi": 42,
      "hit": false,
      "t": 143299.42133332262,
      "d": 94.69333333332906,
      "v": 78
    },
    {
      "midi": 60,
      "hit": false,
      "t": 143394.11466665595,
      "d": 75.7546666666749,
      "v": 100
    },
    {
      "midi": 79,
      "hit": false,
      "t": 143403.5839999893,
      "d": 85.22400000001653,
      "v": 120
    },
    {
      "midi": 48,
      "hit": false,
      "t": 143403.5839999893,
      "d": 94.69333333335817,
      "v": 80
    },
    {
      "midi": 36,
      "hit": false,
      "t": 143403.5839999893,
      "d": 94.69333333335817,
      "v": 127
    },
    {
      "midi": 62,
      "hit": false,
      "t": 143403.5839999893,
      "d": 94.69333333335817,
      "v": 100
    },
    {
      "midi": 72,
      "hit": false,
      "t": 143403.5839999893,
      "d": 94.69333333335817,
      "v": 110
    },
    {
      "midi": 118,
      "hit": false,
      "t": 143403.5839999893,
      "d": 94.69333333335817,
      "v": 60
    },
    {
      "midi": 46,
      "hit": false,
      "t": 143422.52266665595,
      "d": 94.69333333338727,
      "v": 92
    },
    {
      "midi": 60,
      "hit": false,
      "t": 143507.746666656,
      "d": 75.7546666666749,
      "v": 100
    },
    {
      "midi": 72,
      "hit": false,
      "t": 143507.746666656,
      "d": 94.69333333332906,
      "v": 110
    },
    {
      "midi": 24,
      "hit": false,
      "t": 143517.21599998933,
      "d": 94.69333333332906,
      "v": 127
    },
    {
      "midi": 64,
      "hit": false,
      "t": 143517.21599998933,
      "d": 94.69333333332906,
      "v": 110
    },
    {
      "midi": 79,
      "hit": false,
      "t": 143517.21599998933,
      "d": 94.69333333332906,
      "v": 110
    },
    {
      "midi": 118,
      "hit": false,
      "t": 143517.21599998933,
      "d": 94.69333333332906,
      "v": 40
    },
    {
      "midi": 64,
      "hit": false,
      "t": 143621.378666656,
      "d": 75.75466666664579,
      "v": 100
    },
    {
      "midi": 62,
      "hit": false,
      "t": 143630.84799998935,
      "d": 18.93866666665417,
      "v": 70
    },
    {
      "midi": 28,
      "hit": false,
      "t": 143630.84799998935,
      "d": 94.69333333329996,
      "v": 127
    },
    {
      "midi": 15,
      "hit": false,
      "t": 143630.84799998935,
      "d": 94.69333333329996,
      "v": 100
    },
    {
      "midi": 13,
      "hit": false,
      "t": 143630.84799998935,
      "d": 94.69333333329996,
      "v": 100
    },
    {
      "midi": 10,
      "hit": false,
      "t": 143630.84799998935,
      "d": 94.69333333329996,
      "v": 127
    },
    {
      "midi": 42,
      "hit": false,
      "t": 143630.84799998935,
      "d": 94.69333333329996,
      "v": 92
    },
    {
      "midi": 59,
      "hit": false,
      "t": 143630.84799998935,
      "d": 321.95733333332464,
      "v": 110
    },
    {
      "midi": 69,
      "hit": false,
      "t": 143630.84799998935,
      "d": 643.9146666667075,
      "v": 127
    },
    {
      "midi": 64,
      "hit": false,
      "t": 143735.010666656,
      "d": 75.7546666666749,
      "v": 100
    },
    {
      "midi": 28,
      "hit": false,
      "t": 143744.47999998933,
      "d": 94.69333333332906,
      "v": 127
    },
    {
      "midi": 42,
      "hit": false,
      "t": 143753.94933332267,
      "d": 94.69333333332906,
      "v": 78
    },
    {
      "midi": 64,
      "hit": false,
      "t": 143848.642666656,
      "d": 75.7546666666749,
      "v": 100
    },
    {
      "midi": 52,
      "hit": false,
      "t": 143858.11199998934,
      "d": 94.69333333332906,
      "v": 80
    },
    {
      "midi": 40,
      "hit": false,
      "t": 143858.11199998934,
      "d": 94.69333333332906,
      "v": 127
    },
    {
      "midi": 62,
      "hit": false,
      "t": 143858.11199998934,
      "d": 94.69333333332906,
      "v": 100
    },
    {
      "midi": 46,
      "hit": false,
      "t": 143877.050666656,
      "d": 94.69333333335817,
      "v": 92
    },
    {
      "midi": 64,
      "hit": false,
      "t": 143971.74399998935,
      "d": 66.28533333333326,
      "v": 70
    },
    {
      "midi": 28,
      "hit": false,
      "t": 143971.74399998935,
      "d": 94.69333333332906,
      "v": 127
    },
    {
      "midi": 59,
      "hit": false,
      "t": 143971.74399998935,
      "d": 94.69333333332906,
      "v": 110
    },
    {
      "midi": 64,
      "hit": false,
      "t": 144075.90666665602,
      "d": 75.75466666664579,
      "v": 100
    },
    {
      "midi": 72,
      "hit": false,
      "t": 144075.90666665602,
      "d": 94.69333333332906,
      "v": 110
    },
    {
      "midi": 62,
      "hit": false,
      "t": 144085.37599998937,
      "d": 18.93866666665417,
      "v": 70
    },
    {
      "midi": 28,
      "hit": false,
      "t": 144085.37599998937,
      "d": 94.69333333332906,
      "v": 127
    },
    {
      "midi": 15,
      "hit": false,
      "t": 144085.37599998937,
      "d": 94.69333333332906,
      "v": 100
    },
    {
      "midi": 13,
      "hit": false,
      "t": 144085.37599998937,
      "d": 94.69333333332906,
      "v": 100
    },
    {
      "midi": 10,
      "hit": false,
      "t": 144085.37599998937,
      "d": 94.69333333332906,
      "v": 127
    },
    {
      "midi": 127,
      "hit": false,
      "t": 144085.37599998937,
      "d": 94.69333333332906,
      "v": 60
    },
    {
      "midi": 108,
      "hit": false,
      "t": 144085.37599998937,
      "d": 94.69333333332906,
      "v": 80
    },
    {
      "midi": 105,
      "hit": false,
      "t": 144085.37599998937,
      "d": 94.69333333332906,
      "v": 100
    },
    {
      "midi": 42,
      "hit": false,
      "t": 144085.37599998937,
      "d": 94.69333333332906,
      "v": 92
    },
    {
      "midi": 79,
      "hit": false,
      "t": 144085.37599998937,
      "d": 94.69333333332906,
      "v": 110
    },
    {
      "midi": 118,
      "hit": false,
      "t": 144085.37599998937,
      "d": 94.69333333332906,
      "v": 60
    },
    {
      "midi": 63,
      "hit": false,
      "t": 144085.37599998937,
      "d": 94.69333333332906,
      "v": 70
    },
    {
      "midi": 64,
      "hit": false,
      "t": 144189.53866665604,
      "d": 75.7546666666749,
      "v": 100
    },
    {
      "midi": 79,
      "hit": false,
      "t": 144189.53866665604,
      "d": 94.69333333335817,
      "v": 110
    },
    {
      "midi": 28,
      "hit": false,
      "t": 144199.00799998938,
      "d": 94.69333333335817,
      "v": 127
    },
    {
      "midi": 59,
      "hit": false,
      "t": 144199.00799998938,
      "d": 94.69333333335817,
      "v": 110
    },
    {
      "midi": 72,
      "hit": false,
      "t": 144199.00799998938,
      "d": 94.69333333335817,
      "v": 110
    },
    {
      "midi": 42,
      "hit": false,
      "t": 144208.47733332272,
      "d": 94.69333333335817,
      "v": 78
    },
    {
      "midi": 72,
      "hit": false,
      "t": 144303.17066665608,
      "d": 94.69333333335817,
      "v": 110
    },
    {
      "midi": 64,
      "hit": false,
      "t": 144312.63999998942,
      "d": 66.28533333333326,
      "v": 110
    },
    {
      "midi": 52,
      "hit": false,
      "t": 144312.63999998942,
      "d": 94.69333333335817,
      "v": 80
    },
    {
      "midi": 40,
      "hit": false,
      "t": 144312.63999998942,
      "d": 94.69333333335817,
      "v": 127
    },
    {
      "midi": 62,
      "hit": false,
      "t": 144312.63999998942,
      "d": 94.69333333335817,
      "v": 100
    },
    {
      "midi": 79,
      "hit": false,
      "t": 144312.63999998942,
      "d": 94.69333333335817,
      "v": 110
    },
    {
      "midi": 67,
      "hit": false,
      "t": 144312.63999998942,
      "d": 208.3253333333705,
      "v": 127
    },
    {
      "midi": 46,
      "hit": false,
      "t": 144331.57866665607,
      "d": 94.69333333338727,
      "v": 92
    },
    {
      "midi": 79,
      "hit": false,
      "t": 144416.80266665612,
      "d": 94.69333333332906,
      "v": 110
    },
    {
      "midi": 62,
      "hit": false,
      "t": 144426.27199998946,
      "d": 18.93866666665417,
      "v": 70
    },
    {
      "midi": 64,
      "hit": false,
      "t": 144426.27199998946,
      "d": 66.28533333330415,
      "v": 110
    },
    {
      "midi": 28,
      "hit": false,
      "t": 144426.27199998946,
      "d": 94.69333333332906,
      "v": 127
    },
    {
      "midi": 72,
      "hit": false,
      "t": 144426.27199998946,
      "d": 94.69333333332906,
      "v": 110
    },
    {
      "midi": 118,
      "hit": false,
      "t": 144426.27199998946,
      "d": 94.69333333332906,
      "v": 60
    },
    {
      "midi": 72,
      "hit": false,
      "t": 144530.43466665613,
      "d": 94.69333333332906,
      "v": 60
    },
    {
      "midi": 62,
      "hit": false,
      "t": 144539.90399998947,
      "d": 37.87733333333745,
      "v": 80
    },
    {
      "midi": 28,
      "hit": false,
      "t": 144539.90399998947,
      "d": 94.69333333332906,
      "v": 127
    },
    {
      "midi": 15,
      "hit": false,
      "t": 144539.90399998947,
      "d": 94.69333333332906,
      "v": 100
    },
    {
      "midi": 13,
      "hit": false,
      "t": 144539.90399998947,
      "d": 94.69333333332906,
      "v": 100
    },
    {
      "midi": 10,
      "hit": false,
      "t": 144539.90399998947,
      "d": 94.69333333332906,
      "v": 127
    },
    {
      "midi": 42,
      "hit": false,
      "t": 144539.90399998947,
      "d": 94.69333333332906,
      "v": 92
    },
    {
      "midi": 79,
      "hit": false,
      "t": 144539.90399998947,
      "d": 94.69333333332906,
      "v": 60
    },
    {
      "midi": 67,
      "hit": false,
      "t": 144539.90399998947,
      "d": 568.1600000000908,
      "v": 127
    },
    {
      "midi": 64,
      "hit": false,
      "t": 144644.06666665614,
      "d": 75.7546666666749,
      "v": 100
    },
    {
      "midi": 28,
      "hit": false,
      "t": 144653.5359999895,
      "d": 94.69333333332906,
      "v": 127
    },
    {
      "midi": 60,
      "hit": false,
      "t": 144653.5359999895,
      "d": 94.69333333332906,
      "v": 110
    },
    {
      "midi": 118,
      "hit": false,
      "t": 144653.5359999895,
      "d": 94.69333333332906,
      "v": 60
    },
    {
      "midi": 42,
      "hit": false,
      "t": 144663.00533332283,
      "d": 94.69333333332906,
      "v": 78
    },
    {
      "midi": 64,
      "hit": false,
      "t": 144767.1679999895,
      "d": 66.28533333333326,
      "v": 110
    },
    {
      "midi": 52,
      "hit": false,
      "t": 144767.1679999895,
      "d": 94.69333333332906,
      "v": 80
    },
    {
      "midi": 40,
      "hit": false,
      "t": 144767.1679999895,
      "d": 94.69333333332906,
      "v": 127
    },
    {
      "midi": 62,
      "hit": false,
      "t": 144767.1679999895,
      "d": 94.69333333332906,
      "v": 100
    },
    {
      "midi": 118,
      "hit": false,
      "t": 144767.1679999895,
      "d": 94.69333333332906,
      "v": 40
    },
    {
      "midi": 46,
      "hit": false,
      "t": 144786.10666665615,
      "d": 94.69333333335817,
      "v": 92
    },
    {
      "midi": 64,
      "hit": false,
      "t": 144871.33066665617,
      "d": 75.7546666666749,
      "v": 100
    },
    {
      "midi": 28,
      "hit": false,
      "t": 144880.7999999895,
      "d": 94.69333333332906,
      "v": 127
    },
    {
      "midi": 62,
      "hit": false,
      "t": 144880.7999999895,
      "d": 94.69333333332906,
      "v": 110
    },
    {
      "midi": 63,
      "hit": false,
      "t": 144880.7999999895,
      "d": 94.69333333332906,
      "v": 80
    },
    {
      "midi": 79,
      "hit": false,
      "t": 144984.96266665618,
      "d": 94.69333333335817,
      "v": 110
    },
    {
      "midi": 62,
      "hit": false,
      "t": 144994.43199998952,
      "d": 18.93866666665417,
      "v": 70
    },
    {
      "midi": 64,
      "hit": false,
      "t": 144994.43199998952,
      "d": 66.28533333333326,
      "v": 70
    },
    {
      "midi": 28,
      "hit": false,
      "t": 144994.43199998952,
      "d": 94.69333333335817,
      "v": 127
    },
    {
      "midi": 60,
      "hit": false,
      "t": 144994.43199998952,
      "d": 94.69333333335817,
      "v": 110
    },
    {
      "midi": 15,
      "hit": false,
      "t": 144994.43199998952,
      "d": 94.69333333335817,
      "v": 100
    },
    {
      "midi": 13,
      "hit": false,
      "t": 144994.43199998952,
      "d": 94.69333333335817,
      "v": 100
    },
    {
      "midi": 10,
      "hit": false,
      "t": 144994.43199998952,
      "d": 94.69333333335817,
      "v": 127
    },
    {
      "midi": 127,
      "hit": false,
      "t": 144994.43199998952,
      "d": 94.69333333335817,
      "v": 60
    },
    {
      "midi": 108,
      "hit": false,
      "t": 144994.43199998952,
      "d": 94.69333333335817,
      "v": 80
    },
    {
      "midi": 105,
      "hit": false,
      "t": 144994.43199998952,
      "d": 94.69333333335817,
      "v": 100
    },
    {
      "midi": 42,
      "hit": false,
      "t": 144994.43199998952,
      "d": 94.69333333335817,
      "v": 92
    },
    {
      "midi": 72,
      "hit": false,
      "t": 144994.43199998952,
      "d": 94.69333333335817,
      "v": 110
    },
    {
      "midi": 118,
      "hit": false,
      "t": 144994.43199998952,
      "d": 94.69333333335817,
      "v": 60
    },
    {
      "midi": 64,
      "hit": false,
      "t": 145098.59466665622,
      "d": 75.7546666666749,
      "v": 100
    },
    {
      "midi": 72,
      "hit": false,
      "t": 145098.59466665622,
      "d": 94.69333333332906,
      "v": 110
    },
    {
      "midi": 79,
      "hit": false,
      "t": 145108.06399998956,
      "d": 37.87733333333745,
      "v": 110
    },
    {
      "midi": 28,
      "hit": false,
      "t": 145108.06399998956,
      "d": 94.69333333332906,
      "v": 127
    },
    {
      "midi": 60,
      "hit": false,
      "t": 145108.06399998956,
      "d": 94.69333333332906,
      "v": 110
    },
    {
      "midi": 42,
      "hit": false,
      "t": 145117.5333333229,
      "d": 94.69333333332906,
      "v": 78
    },
    {
      "midi": 64,
      "hit": false,
      "t": 145212.22666665624,
      "d": 75.75466666664579,
      "v": 100
    },
    {
      "midi": 79,
      "hit": false,
      "t": 145212.22666665624,
      "d": 94.69333333332906,
      "v": 110
    },
    {
      "midi": 59,
      "hit": false,
      "t": 145221.69599998958,
      "d": 75.75466666664579,
      "v": 110
    },
    {
      "midi": 71,
      "hit": false,
      "t": 145221.69599998958,
      "d": 75.75466666664579,
      "v": 120
    },
    {
      "midi": 52,
      "hit": false,
      "t": 145221.69599998958,
      "d": 94.69333333332906,
      "v": 80
    },
    {
      "midi": 40,
      "hit": false,
      "t": 145221.69599998958,
      "d": 94.69333333332906,
      "v": 127
    },
    {
      "midi": 62,
      "hit": false,
      "t": 145221.69599998958,
      "d": 94.69333333332906,
      "v": 100
    },
    {
      "midi": 15,
      "hit": false,
      "t": 145221.69599998958,
      "d": 94.69333333332906,
      "v": 100
    },
    {
      "midi": 13,
      "hit": false,
      "t": 145221.69599998958,
      "d": 94.69333333332906,
      "v": 100
    },
    {
      "midi": 10,
      "hit": false,
      "t": 145221.69599998958,
      "d": 94.69333333332906,
      "v": 127
    },
    {
      "midi": 72,
      "hit": false,
      "t": 145221.69599998958,
      "d": 94.69333333332906,
      "v": 110
    },
    {
      "midi": 118,
      "hit": false,
      "t": 145221.69599998958,
      "d": 94.69333333332906,
      "v": 60
    },
    {
      "midi": 46,
      "hit": false,
      "t": 145240.63466665623,
      "d": 94.69333333335817,
      "v": 92
    },
    {
      "midi": 72,
      "hit": false,
      "t": 145325.85866665625,
      "d": 94.69333333332906,
      "v": 110
    },
    {
      "midi": 64,
      "hit": false,
      "t": 145335.3279999896,
      "d": 66.28533333333326,
      "v": 110
    },
    {
      "midi": 28,
      "hit": false,
      "t": 145335.3279999896,
      "d": 94.69333333332906,
      "v": 127
    },
    {
      "midi": 79,
      "hit": false,
      "t": 145335.3279999896,
      "d": 94.69333333332906,
      "v": 110
    },
    {
      "midi": 118,
      "hit": false,
      "t": 145335.3279999896,
      "d": 94.69333333332906,
      "v": 40
    },
    {
      "midi": 65,
      "hit": false,
      "t": 145448.9599999896,
      "d": 66.28533333336236,
      "v": 127
    },
    {
      "midi": 29,
      "hit": false,
      "t": 145448.9599999896,
      "d": 94.69333333335817,
      "v": 127
    },
    {
      "midi": 60,
      "hit": false,
      "t": 145448.9599999896,
      "d": 94.69333333335817,
      "v": 110
    },
    {
      "midi": 15,
      "hit": false,
      "t": 145448.9599999896,
      "d": 94.69333333335817,
      "v": 100
    },
    {
      "midi": 13,
      "hit": false,
      "t": 145448.9599999896,
      "d": 94.69333333335817,
      "v": 100
    },
    {
      "midi": 10,
      "hit": false,
      "t": 145448.9599999896,
      "d": 94.69333333335817,
      "v": 127
    },
    {
      "midi": 42,
      "hit": false,
      "t": 145448.9599999896,
      "d": 94.69333333335817,
      "v": 92
    },
    {
      "midi": 65,
      "hit": false,
      "t": 145553.1226666563,
      "d": 75.7546666666749,
      "v": 100
    },
    {
      "midi": 29,
      "hit": false,
      "t": 145562.59199998964,
      "d": 94.69333333332906,
      "v": 127
    },
    {
      "midi": 60,
      "hit": false,
      "t": 145562.59199998964,
      "d": 94.69333333332906,
      "v": 110
    },
    {
      "midi": 42,
      "hit": false,
      "t": 145572.06133332298,
      "d": 94.69333333332906,
      "v": 78
    },
    {
      "midi": 65,
      "hit": false,
      "t": 145676.22399998966,
      "d": 66.28533333330415,
      "v": 100
    },
    {
      "midi": 53,
      "hit": false,
      "t": 145676.22399998966,
      "d": 94.69333333329996,
      "v": 80
    },
    {
      "midi": 41,
      "hit": false,
      "t": 145676.22399998966,
      "d": 94.69333333329996,
      "v": 127
    },
    {
      "midi": 46,
      "hit": false,
      "t": 145695.1626666563,
      "d": 94.69333333332906,
      "v": 92
    },
    {
      "midi": 65,
      "hit": false,
      "t": 145780.3866666563,
      "d": 75.754666666704,
      "v": 100
    },
    {
      "midi": 29,
      "hit": false,
      "t": 145789.85599998964,
      "d": 94.69333333335817,
      "v": 127
    },
    {
      "midi": 64,
      "hit": false,
      "t": 145789.85599998964,
      "d": 94.69333333335817,
      "v": 70
    },
    {
      "midi": 79,
      "hit": false,
      "t": 145894.01866665634,
      "d": 94.69333333329996,
      "v": 110
    },
    {
      "midi": 65,
      "hit": false,
      "t": 145903.48799998968,
      "d": 18.93866666665417,
      "v": 70
    },
    {
      "midi": 29,
      "hit": false,
      "t": 145903.48799998968,
      "d": 94.69333333329996,
      "v": 127
    },
    {
      "midi": 15,
      "hit": false,
      "t": 145903.48799998968,
      "d": 94.69333333329996,
      "v": 100
    },
    {
      "midi": 13,
      "hit": false,
      "t": 145903.48799998968,
      "d": 94.69333333329996,
      "v": 100
    },
    {
      "midi": 10,
      "hit": false,
      "t": 145903.48799998968,
      "d": 94.69333333329996,
      "v": 127
    },
    {
      "midi": 127,
      "hit": false,
      "t": 145903.48799998968,
      "d": 94.69333333329996,
      "v": 60
    },
    {
      "midi": 108,
      "hit": false,
      "t": 145903.48799998968,
      "d": 94.69333333329996,
      "v": 80
    },
    {
      "midi": 105,
      "hit": false,
      "t": 145903.48799998968,
      "d": 94.69333333329996,
      "v": 100
    },
    {
      "midi": 42,
      "hit": false,
      "t": 145903.48799998968,
      "d": 94.69333333329996,
      "v": 92
    },
    {
      "midi": 72,
      "hit": false,
      "t": 145903.48799998968,
      "d": 94.69333333329996,
      "v": 110
    },
    {
      "midi": 118,
      "hit": false,
      "t": 145903.48799998968,
      "d": 94.69333333329996,
      "v": 60
    },
    {
      "midi": 63,
      "hit": false,
      "t": 145903.48799998968,
      "d": 94.69333333329996,
      "v": 70
    },
    {
      "midi": 65,
      "hit": false,
      "t": 146007.65066665632,
      "d": 75.7546666666749,
      "v": 100
    },
    {
      "midi": 72,
      "hit": false,
      "t": 146007.65066665632,
      "d": 94.69333333335817,
      "v": 110
    },
    {
      "midi": 29,
      "hit": false,
      "t": 146017.11999998966,
      "d": 94.69333333335817,
      "v": 127
    },
    {
      "midi": 79,
      "hit": false,
      "t": 146017.11999998966,
      "d": 94.69333333335817,
      "v": 110
    },
    {
      "midi": 42,
      "hit": false,
      "t": 146026.589333323,
      "d": 94.69333333335817,
      "v": 78
    },
    {
      "midi": 79,
      "hit": false,
      "t": 146121.28266665636,
      "d": 94.69333333332906,
      "v": 110
    },
    {
      "midi": 65,
      "hit": false,
      "t": 146130.7519999897,
      "d": 66.28533333333326,
      "v": 100
    },
    {
      "midi": 53,
      "hit": false,
      "t": 146130.7519999897,
      "d": 94.69333333332906,
      "v": 80
    },
    {
      "midi": 41,
      "hit": false,
      "t": 146130.7519999897,
      "d": 94.69333333332906,
      "v": 127
    },
    {
      "midi": 72,
      "hit": false,
      "t": 146130.7519999897,
      "d": 94.69333333332906,
      "v": 110
    },
    {
      "midi": 46,
      "hit": false,
      "t": 146149.69066665636,
      "d": 94.69333333335817,
      "v": 92
    },
    {
      "midi": 72,
      "hit": false,
      "t": 146234.91466665638,
      "d": 94.69333333329996,
      "v": 110
    },
    {
      "midi": 65,
      "hit": false,
      "t": 146244.38399998972,
      "d": 18.93866666665417,
      "v": 70
    },
    {
      "midi": 29,
      "hit": false,
      "t": 146244.38399998972,
      "d": 94.69333333329996,
      "v": 127
    },
    {
      "midi": 79,
      "hit": false,
      "t": 146244.38399998972,
      "d": 94.69333333329996,
      "v": 110
    },
    {
      "midi": 118,
      "hit": false,
      "t": 146244.38399998972,
      "d": 94.69333333329996,
      "v": 60
    },
    {
      "midi": 79,
      "hit": false,
      "t": 146348.54666665636,
      "d": 94.69333333332906,
      "v": 60
    },
    {
      "midi": 65,
      "hit": false,
      "t": 146358.0159999897,
      "d": 18.93866666665417,
      "v": 70
    },
    {
      "midi": 29,
      "hit": false,
      "t": 146358.0159999897,
      "d": 94.69333333332906,
      "v": 127
    },
    {
      "midi": 15,
      "hit": false,
      "t": 146358.0159999897,
      "d": 94.69333333332906,
      "v": 100
    },
    {
      "midi": 13,
      "hit": false,
      "t": 146358.0159999897,
      "d": 94.69333333332906,
      "v": 100
    },
    {
      "midi": 10,
      "hit": false,
      "t": 146358.0159999897,
      "d": 94.69333333332906,
      "v": 127
    },
    {
      "midi": 42,
      "hit": false,
      "t": 146358.0159999897,
      "d": 94.69333333332906,
      "v": 92
    },
    {
      "midi": 72,
      "hit": false,
      "t": 146358.0159999897,
      "d": 94.69333333332906,
      "v": 60
    },
    {
      "midi": 65,
      "hit": false,
      "t": 146462.17866665637,
      "d": 75.7546666666749,
      "v": 100
    },
    {
      "midi": 29,
      "hit": false,
      "t": 146471.6479999897,
      "d": 94.69333333332906,
      "v": 127
    },
    {
      "midi": 118,
      "hit": false,
      "t": 146471.6479999897,
      "d": 94.69333333332906,
      "v": 60
    },
    {
      "midi": 42,
      "hit": false,
      "t": 146481.11733332305,
      "d": 94.69333333332906,
      "v": 78
    },
    {
      "midi": 65,
      "hit": false,
      "t": 146585.27999998973,
      "d": 66.28533333333326,
      "v": 100
    },
    {
      "midi": 59,
      "hit": false,
      "t": 146585.27999998973,
      "d": 75.7546666666749,
      "v": 110
    },
    {
      "midi": 71,
      "hit": false,
      "t": 146585.27999998973,
      "d": 75.7546666666749,
      "v": 120
    },
    {
      "midi": 53,
      "hit": false,
      "t": 146585.27999998973,
      "d": 94.69333333332906,
      "v": 80
    },
    {
      "midi": 41,
      "hit": false,
      "t": 146585.27999998973,
      "d": 94.69333333332906,
      "v": 127
    },
    {
      "midi": 118,
      "hit": false,
      "t": 146585.27999998973,
      "d": 94.69333333332906,
      "v": 40
    },
    {
      "midi": 46,
      "hit": false,
      "t": 146604.21866665638,
      "d": 94.69333333335817,
      "v": 92
    },
    {
      "midi": 65,
      "hit": false,
      "t": 146689.4426666564,
      "d": 75.7546666666749,
      "v": 100
    },
    {
      "midi": 29,
      "hit": false,
      "t": 146698.91199998974,
      "d": 94.69333333332906,
      "v": 127
    },
    {
      "midi": 63,
      "hit": false,
      "t": 146698.91199998974,
      "d": 94.69333333332906,
      "v": 80
    },
    {
      "midi": 79,
      "hit": false,
      "t": 146803.0746666564,
      "d": 94.69333333332906,
      "v": 110
    },
    {
      "midi": 65,
      "hit": false,
      "t": 146812.54399998975,
      "d": 18.93866666665417,
      "v": 70
    },
    {
      "midi": 60,
      "hit": false,
      "t": 146812.54399998975,
      "d": 75.75466666664579,
      "v": 110
    },
    {
      "midi": 72,
      "hit": false,
      "t": 146812.54399998975,
      "d": 75.75466666664579,
      "v": 110
    },
    {
      "midi": 29,
      "hit": false,
      "t": 146812.54399998975,
      "d": 94.69333333332906,
      "v": 127
    },
    {
      "midi": 15,
      "hit": false,
      "t": 146812.54399998975,
      "d": 94.69333333332906,
      "v": 100
    },
    {
      "midi": 13,
      "hit": false,
      "t": 146812.54399998975,
      "d": 94.69333333332906,
      "v": 100
    },
    {
      "midi": 10,
      "hit": false,
      "t": 146812.54399998975,
      "d": 94.69333333332906,
      "v": 127
    },
    {
      "midi": 127,
      "hit": false,
      "t": 146812.54399998975,
      "d": 94.69333333332906,
      "v": 60
    },
    {
      "midi": 108,
      "hit": false,
      "t": 146812.54399998975,
      "d": 94.69333333332906,
      "v": 80
    },
    {
      "midi": 105,
      "hit": false,
      "t": 146812.54399998975,
      "d": 94.69333333332906,
      "v": 100
    },
    {
      "midi": 42,
      "hit": false,
      "t": 146812.54399998975,
      "d": 94.69333333332906,
      "v": 92
    },
    {
      "midi": 118,
      "hit": false,
      "t": 146812.54399998975,
      "d": 94.69333333332906,
      "v": 60
    },
    {
      "midi": 64,
      "hit": false,
      "t": 146812.54399998975,
      "d": 94.69333333332906,
      "v": 70
    },
    {
      "midi": 65,
      "hit": false,
      "t": 146916.70666665642,
      "d": 75.754666666704,
      "v": 100
    },
    {
      "midi": 72,
      "hit": false,
      "t": 146916.70666665642,
      "d": 94.69333333335817,
      "v": 110
    },
    {
      "midi": 29,
      "hit": false,
      "t": 146926.17599998976,
      "d": 94.69333333335817,
      "v": 127
    },
    {
      "midi": 79,
      "hit": false,
      "t": 146926.17599998976,
      "d": 94.69333333335817,
      "v": 110
    },
    {
      "midi": 42,
      "hit": false,
      "t": 146935.6453333231,
      "d": 94.69333333335817,
      "v": 78
    },
    {
      "midi": 65,
      "hit": false,
      "t": 147039.8079999898,
      "d": 66.28533333333326,
      "v": 100
    },
    {
      "midi": 79,
      "hit": false,
      "t": 147039.8079999898,
      "d": 85.22400000001653,
      "v": 120
    },
    {
      "midi": 53,
      "hit": false,
      "t": 147039.8079999898,
      "d": 94.69333333335817,
      "v": 80
    },
    {
      "midi": 41,
      "hit": false,
      "t": 147039.8079999898,
      "d": 94.69333333335817,
      "v": 127
    },
    {
      "midi": 72,
      "hit": false,
      "t": 147039.8079999898,
      "d": 94.69333333335817,
      "v": 110
    },
    {
      "midi": 118,
      "hit": false,
      "t": 147039.8079999898,
      "d": 94.69333333335817,
      "v": 60
    },
    {
      "midi": 46,
      "hit": false,
      "t": 147058.74666665646,
      "d": 94.69333333338727,
      "v": 92
    },
    {
      "midi": 65,
      "hit": false,
      "t": 147143.9706666565,
      "d": 75.7546666666749,
      "v": 100
    },
    {
      "midi": 72,
      "hit": false,
      "t": 147143.9706666565,
      "d": 94.69333333335817,
      "v": 110
    },
    {
      "midi": 29,
      "hit": false,
      "t": 147153.43999998985,
      "d": 94.69333333335817,
      "v": 127
    },
    {
      "midi": 79,
      "hit": false,
      "t": 147153.43999998985,
      "d": 94.69333333335817,
      "v": 110
    },
    {
      "midi": 118,
      "hit": false,
      "t": 147153.43999998985,
      "d": 94.69333333335817,
      "v": 40
    },
    {
      "midi": 67,
      "hit": false,
      "t": 147257.60266665654,
      "d": 75.7546666666749,
      "v": 100
    },
    {
      "midi": 62,
      "hit": false,
      "t": 147267.0719999899,
      "d": 18.93866666665417,
      "v": 70
    },
    {
      "midi": 31,
      "hit": false,
      "t": 147267.0719999899,
      "d": 94.69333333332906,
      "v": 127
    },
    {
      "midi": 59,
      "hit": false,
      "t": 147267.0719999899,
      "d": 94.69333333332906,
      "v": 110
    },
    {
      "midi": 15,
      "hit": false,
      "t": 147267.0719999899,
      "d": 94.69333333332906,
      "v": 100
    },
    {
      "midi": 13,
      "hit": false,
      "t": 147267.0719999899,
      "d": 94.69333333332906,
      "v": 100
    },
    {
      "midi": 10,
      "hit": false,
      "t": 147267.0719999899,
      "d": 94.69333333332906,
      "v": 127
    },
    {
      "midi": 42,
      "hit": false,
      "t": 147267.0719999899,
      "d": 94.69333333332906,
      "v": 92
    },
    {
      "midi": 67,
      "hit": false,
      "t": 147371.23466665656,
      "d": 75.7546666666749,
      "v": 100
    },
    {
      "midi": 31,
      "hit": false,
      "t": 147380.7039999899,
      "d": 94.69333333332906,
      "v": 127
    },
    {
      "midi": 42,
      "hit": false,
      "t": 147390.17333332324,
      "d": 94.69333333332906,
      "v": 78
    },
    {
      "midi": 67,
      "hit": false,
      "t": 147484.86666665657,
      "d": 75.7546666666749,
      "v": 100
    },
    {
      "midi": 55,
      "hit": false,
      "t": 147494.3359999899,
      "d": 94.69333333332906,
      "v": 80
    },
    {
      "midi": 43,
      "hit": false,
      "t": 147494.3359999899,
      "d": 94.69333333332906,
      "v": 127
    },
    {
      "midi": 59,
      "hit": false,
      "t": 147494.3359999899,
      "d": 94.69333333332906,
      "v": 110
    },
    {
      "midi": 62,
      "hit": false,
      "t": 147494.3359999899,
      "d": 94.69333333332906,
      "v": 100
    },
    {
      "midi": 77,
      "hit": false,
      "t": 147494.3359999899,
      "d": 284.0799999999872,
      "v": 120
    },
    {
      "midi": 65,
      "hit": false,
      "t": 147494.3359999899,
      "d": 284.0799999999872,
      "v": 110
    },
    {
      "midi": 46,
      "hit": false,
      "t": 147513.27466665657,
      "d": 94.69333333335817,
      "v": 92
    },
    {
      "midi": 67,
      "hit": false,
      "t": 147607.96799998992,
      "d": 66.28533333333326,
      "v": 110
    },
    {
      "midi": 31,
      "hit": false,
      "t": 147607.96799998992,
      "d": 94.69333333332906,
      "v": 127
    },
    {
      "midi": 64,
      "hit": false,
      "t": 147607.96799998992,
      "d": 94.69333333332906,
      "v": 70
    },
    {
      "midi": 67,
      "hit": false,
      "t": 147712.1306666566,
      "d": 47.34666666664998,
      "v": 100
    },
    {
      "midi": 79,
      "hit": false,
      "t": 147712.1306666566,
      "d": 94.69333333329996,
      "v": 110
    },
    {
      "midi": 62,
      "hit": false,
      "t": 147721.59999998994,
      "d": 18.93866666665417,
      "v": 70
    },
    {
      "midi": 31,
      "hit": false,
      "t": 147721.59999998994,
      "d": 94.69333333329996,
      "v": 127
    },
    {
      "midi": 15,
      "hit": false,
      "t": 147721.59999998994,
      "d": 94.69333333329996,
      "v": 100
    },
    {
      "midi": 13,
      "hit": false,
      "t": 147721.59999998994,
      "d": 94.69333333329996,
      "v": 100
    },
    {
      "midi": 10,
      "hit": false,
      "t": 147721.59999998994,
      "d": 94.69333333329996,
      "v": 127
    },
    {
      "midi": 127,
      "hit": false,
      "t": 147721.59999998994,
      "d": 94.69333333329996,
      "v": 60
    },
    {
      "midi": 108,
      "hit": false,
      "t": 147721.59999998994,
      "d": 94.69333333329996,
      "v": 80
    },
    {
      "midi": 105,
      "hit": false,
      "t": 147721.59999998994,
      "d": 94.69333333329996,
      "v": 100
    },
    {
      "midi": 42,
      "hit": false,
      "t": 147721.59999998994,
      "d": 94.69333333329996,
      "v": 92
    },
    {
      "midi": 72,
      "hit": false,
      "t": 147721.59999998994,
      "d": 94.69333333329996,
      "v": 110
    },
    {
      "midi": 118,
      "hit": false,
      "t": 147721.59999998994,
      "d": 94.69333333329996,
      "v": 60
    },
    {
      "midi": 63,
      "hit": false,
      "t": 147721.59999998994,
      "d": 94.69333333329996,
      "v": 70
    },
    {
      "midi": 67,
      "hit": false,
      "t": 147825.76266665658,
      "d": 75.7546666666749,
      "v": 100
    },
    {
      "midi": 72,
      "hit": false,
      "t": 147825.76266665658,
      "d": 94.69333333335817,
      "v": 110
    },
    {
      "midi": 31,
      "hit": false,
      "t": 147835.23199998992,
      "d": 94.69333333335817,
      "v": 127
    },
    {
      "midi": 79,
      "hit": false,
      "t": 147835.23199998992,
      "d": 94.69333333335817,
      "v": 110
    },
    {
      "midi": 42,
      "hit": false,
      "t": 147844.70133332326,
      "d": 94.69333333335817,
      "v": 78
    },
    {
      "midi": 79,
      "hit": false,
      "t": 147939.39466665662,
      "d": 94.69333333332906,
      "v": 110
    },
    {
      "midi": 67,
      "hit": false,
      "t": 147948.86399998996,
      "d": 66.28533333333326,
      "v": 110
    },
    {
      "midi": 55,
      "hit": false,
      "t": 147948.86399998996,
      "d": 94.69333333332906,
      "v": 80
    },
    {
      "midi": 43,
      "hit": false,
      "t": 147948.86399998996,
      "d": 94.69333333332906,
      "v": 127
    },
    {
      "midi": 62,
      "hit": false,
      "t": 147948.86399998996,
      "d": 94.69333333332906,
      "v": 100
    },
    {
      "midi": 72,
      "hit": false,
      "t": 147948.86399998996,
      "d": 94.69333333332906,
      "v": 110
    },
    {
      "midi": 76,
      "hit": false,
      "t": 147948.86399998996,
      "d": 284.0799999999872,
      "v": 120
    },
    {
      "midi": 64,
      "hit": false,
      "t": 147948.86399998996,
      "d": 284.0799999999872,
      "v": 110
    },
    {
      "midi": 46,
      "hit": false,
      "t": 147967.80266665661,
      "d": 94.69333333335817,
      "v": 92
    },
    {
      "midi": 67,
      "hit": false,
      "t": 148053.02666665663,
      "d": 75.7546666666749,
      "v": 100
    },
    {
      "midi": 72,
      "hit": false,
      "t": 148053.02666665663,
      "d": 94.69333333332906,
      "v": 110
    },
    {
      "midi": 31,
      "hit": false,
      "t": 148062.49599998997,
      "d": 94.69333333332906,
      "v": 127
    },
    {
      "midi": 59,
      "hit": false,
      "t": 148062.49599998997,
      "d": 94.69333333332906,
      "v": 110
    },
    {
      "midi": 79,
      "hit": false,
      "t": 148062.49599998997,
      "d": 94.69333333332906,
      "v": 110
    },
    {
      "midi": 118,
      "hit": false,
      "t": 148062.49599998997,
      "d": 94.69333333332906,
      "v": 60
    },
    {
      "midi": 62,
      "hit": false,
      "t": 148176.12799998996,
      "d": 18.93866666665417,
      "v": 70
    },
    {
      "midi": 59,
      "hit": false,
      "t": 148176.12799998996,
      "d": 94.69333333329996,
      "v": 127
    },
    {
      "midi": 15,
      "hit": false,
      "t": 148176.12799998996,
      "d": 94.69333333329996,
      "v": 100
    },
    {
      "midi": 13,
      "hit": false,
      "t": 148176.12799998996,
      "d": 94.69333333329996,
      "v": 100
    },
    {
      "midi": 10,
      "hit": false,
      "t": 148176.12799998996,
      "d": 94.69333333329996,
      "v": 127
    },
    {
      "midi": 42,
      "hit": false,
      "t": 148176.12799998996,
      "d": 94.69333333329996,
      "v": 92
    },
    {
      "midi": 31,
      "hit": false,
      "t": 148176.12799998996,
      "d": 208.3253333333414,
      "v": 127
    },
    {
      "midi": 67,
      "hit": false,
      "t": 148280.2906666566,
      "d": 75.754666666704,
      "v": 100
    },
    {
      "midi": 118,
      "hit": false,
      "t": 148289.75999998994,
      "d": 94.69333333335817,
      "v": 60
    },
    {
      "midi": 42,
      "hit": false,
      "t": 148299.22933332328,
      "d": 94.69333333335817,
      "v": 78
    },
    {
      "midi": 67,
      "hit": false,
      "t": 148393.92266665664,
      "d": 75.75466666664579,
      "v": 100
    },
    {
      "midi": 79,
      "hit": false,
      "t": 148393.92266665664,
      "d": 94.69333333332906,
      "v": 110
    },
    {
      "midi": 74,
      "hit": false,
      "t": 148403.39199998998,
      "d": 75.75466666664579,
      "v": 120
    },
    {
      "midi": 62,
      "hit": false,
      "t": 148403.39199998998,
      "d": 75.75466666664579,
      "v": 100
    },
    {
      "midi": 59,
      "hit": false,
      "t": 148403.39199998998,
      "d": 94.69333333332906,
      "v": 110
    },
    {
      "midi": 105,
      "hit": false,
      "t": 148403.39199998998,
      "d": 94.69333333332906,
      "v": 100
    },
    {
      "midi": 108,
      "hit": false,
      "t": 148403.39199998998,
      "d": 94.69333333332906,
      "v": 80
    },
    {
      "midi": 127,
      "hit": false,
      "t": 148403.39199998998,
      "d": 94.69333333332906,
      "v": 60
    },
    {
      "midi": 72,
      "hit": false,
      "t": 148403.39199998998,
      "d": 94.69333333332906,
      "v": 110
    },
    {
      "midi": 118,
      "hit": false,
      "t": 148403.39199998998,
      "d": 94.69333333332906,
      "v": 40
    },
    {
      "midi": 55,
      "hit": false,
      "t": 148403.39199998998,
      "d": 208.3253333333414,
      "v": 80
    },
    {
      "midi": 43,
      "hit": false,
      "t": 148403.39199998998,
      "d": 208.3253333333414,
      "v": 127
    },
    {
      "midi": 46,
      "hit": false,
      "t": 148422.33066665664,
      "d": 94.69333333335817,
      "v": 92
    },
    {
      "midi": 67,
      "hit": false,
      "t": 148517.02399999,
      "d": 66.28533333333326,
      "v": 110
    },
    {
      "midi": 63,
      "hit": false,
      "t": 148517.02399999,
      "d": 94.69333333332906,
      "v": 80
    },
    {
      "midi": 79,
      "hit": false,
      "t": 148621.18666665666,
      "d": 94.69333333329996,
      "v": 110
    },
    {
      "midi": 62,
      "hit": false,
      "t": 148630.65599999,
      "d": 18.93866666665417,
      "v": 70
    },
    {
      "midi": 67,
      "hit": false,
      "t": 148630.65599999,
      "d": 37.87733333330834,
      "v": 120
    },
    {
      "midi": 55,
      "hit": false,
      "t": 148630.65599999,
      "d": 94.69333333329996,
      "v": 110
    },
    {
      "midi": 43,
      "hit": false,
      "t": 148630.65599999,
      "d": 94.69333333329996,
      "v": 127
    },
    {
      "midi": 15,
      "hit": false,
      "t": 148630.65599999,
      "d": 94.69333333329996,
      "v": 100
    },
    {
      "midi": 13,
      "hit": false,
      "t": 148630.65599999,
      "d": 94.69333333329996,
      "v": 100
    },
    {
      "midi": 10,
      "hit": false,
      "t": 148630.65599999,
      "d": 94.69333333329996,
      "v": 127
    },
    {
      "midi": 105,
      "hit": false,
      "t": 148630.65599999,
      "d": 94.69333333329996,
      "v": 100
    },
    {
      "midi": 108,
      "hit": false,
      "t": 148630.65599999,
      "d": 94.69333333329996,
      "v": 80
    },
    {
      "midi": 127,
      "hit": false,
      "t": 148630.65599999,
      "d": 94.69333333329996,
      "v": 60
    },
    {
      "midi": 42,
      "hit": false,
      "t": 148630.65599999,
      "d": 94.69333333329996,
      "v": 92
    },
    {
      "midi": 72,
      "hit": false,
      "t": 148630.65599999,
      "d": 94.69333333329996,
      "v": 110
    },
    {
      "midi": 118,
      "hit": false,
      "t": 148630.65599999,
      "d": 94.69333333329996,
      "v": 60
    },
    {
      "midi": 64,
      "hit": false,
      "t": 148630.65599999,
      "d": 94.69333333329996,
      "v": 70
    },
    {
      "midi": 72,
      "hit": false,
      "t": 148734.81866665665,
      "d": 94.69333333335817,
      "v": 110
    },
    {
      "midi": 67,
      "hit": false,
      "t": 148744.28799999,
      "d": 66.28533333333326,
      "v": 110
    },
    {
      "midi": 53,
      "hit": false,
      "t": 148744.28799999,
      "d": 94.69333333335817,
      "v": 80
    },
    {
      "midi": 41,
      "hit": false,
      "t": 148744.28799999,
      "d": 94.69333333335817,
      "v": 127
    },
    {
      "midi": 79,
      "hit": false,
      "t": 148744.28799999,
      "d": 94.69333333335817,
      "v": 110
    },
    {
      "midi": 42,
      "hit": false,
      "t": 148753.75733332333,
      "d": 94.69333333335817,
      "v": 78
    },
    {
      "midi": 79,
      "hit": false,
      "t": 148848.4506666567,
      "d": 94.69333333332906,
      "v": 110
    },
    {
      "midi": 67,
      "hit": false,
      "t": 148857.91999999003,
      "d": 66.28533333333326,
      "v": 127
    },
    {
      "midi": 52,
      "hit": false,
      "t": 148857.91999999003,
      "d": 94.69333333332906,
      "v": 80
    },
    {
      "midi": 40,
      "hit": false,
      "t": 148857.91999999003,
      "d": 94.69333333332906,
      "v": 127
    },
    {
      "midi": 62,
      "hit": false,
      "t": 148857.91999999003,
      "d": 94.69333333332906,
      "v": 100
    },
    {
      "midi": 15,
      "hit": false,
      "t": 148857.91999999003,
      "d": 94.69333333332906,
      "v": 100
    },
    {
      "midi": 13,
      "hit": false,
      "t": 148857.91999999003,
      "d": 94.69333333332906,
      "v": 100
    },
    {
      "midi": 10,
      "hit": false,
      "t": 148857.91999999003,
      "d": 94.69333333332906,
      "v": 127
    },
    {
      "midi": 105,
      "hit": false,
      "t": 148857.91999999003,
      "d": 94.69333333332906,
      "v": 100
    },
    {
      "midi": 108,
      "hit": false,
      "t": 148857.91999999003,
      "d": 94.69333333332906,
      "v": 80
    },
    {
      "midi": 127,
      "hit": false,
      "t": 148857.91999999003,
      "d": 94.69333333332906,
      "v": 60
    },
    {
      "midi": 72,
      "hit": false,
      "t": 148857.91999999003,
      "d": 94.69333333332906,
      "v": 110
    },
    {
      "midi": 118,
      "hit": false,
      "t": 148857.91999999003,
      "d": 94.69333333332906,
      "v": 60
    },
    {
      "midi": 46,
      "hit": false,
      "t": 148876.85866665668,
      "d": 94.69333333335817,
      "v": 92
    },
    {
      "midi": 67,
      "hit": false,
      "t": 148962.0826666567,
      "d": 75.7546666666749,
      "v": 100
    },
    {
      "midi": 72,
      "hit": false,
      "t": 148962.0826666567,
      "d": 94.69333333332906,
      "v": 110
    },
    {
      "midi": 59,
      "hit": false,
      "t": 148971.55199999004,
      "d": 94.69333333332906,
      "v": 110
    },
    {
      "midi": 50,
      "hit": false,
      "t": 148971.55199999004,
      "d": 94.69333333332906,
      "v": 80
    },
    {
      "midi": 38,
      "hit": false,
      "t": 148971.55199999004,
      "d": 94.69333333332906,
      "v": 127
    },
    {
      "midi": 79,
      "hit": false,
      "t": 148971.55199999004,
      "d": 94.69333333332906,
      "v": 110
    },
    {
      "midi": 118,
      "hit": false,
      "t": 148971.55199999004,
      "d": 94.69333333332906,
      "v": 40
    },
    {
      "midi": 79,
      "hit": false,
      "t": 149075.7146666567,
      "d": 94.69333333335817,
      "v": 110
    },
    {
      "midi": 62,
      "hit": false,
      "t": 149085.18399999005,
      "d": 18.93866666665417,
      "v": 70
    },
    {
      "midi": 60,
      "hit": false,
      "t": 149085.18399999005,
      "d": 66.28533333333326,
      "v": 127
    },
    {
      "midi": 24,
      "hit": false,
      "t": 149085.18399999005,
      "d": 94.69333333335817,
      "v": 127
    },
    {
      "midi": 15,
      "hit": false,
      "t": 149085.18399999005,
      "d": 94.69333333335817,
      "v": 100
    },
    {
      "midi": 13,
      "hit": false,
      "t": 149085.18399999005,
      "d": 94.69333333335817,
      "v": 100
    },
    {
      "midi": 10,
      "hit": false,
      "t": 149085.18399999005,
      "d": 94.69333333335817,
      "v": 127
    },
    {
      "midi": 42,
      "hit": false,
      "t": 149085.18399999005,
      "d": 94.69333333335817,
      "v": 92
    },
    {
      "midi": 72,
      "hit": false,
      "t": 149085.18399999005,
      "d": 94.69333333335817,
      "v": 110
    },
    {
      "midi": 60,
      "hit": false,
      "t": 149189.34666665675,
      "d": 75.7546666666749,
      "v": 100
    },
    {
      "midi": 24,
      "hit": false,
      "t": 149198.8159999901,
      "d": 94.69333333332906,
      "v": 127
    },
    {
      "midi": 67,
      "hit": false,
      "t": 149198.8159999901,
      "d": 94.69333333332906,
      "v": 110
    },
    {
      "midi": 42,
      "hit": false,
      "t": 149208.28533332344,
      "d": 94.69333333332906,
      "v": 78
    },
    {
      "midi": 60,
      "hit": false,
      "t": 149302.97866665677,
      "d": 75.7546666666749,
      "v": 100
    },
    {
      "midi": 48,
      "hit": false,
      "t": 149312.4479999901,
      "d": 94.69333333332906,
      "v": 80
    },
    {
      "midi": 36,
      "hit": false,
      "t": 149312.4479999901,
      "d": 94.69333333332906,
      "v": 127
    },
    {
      "midi": 67,
      "hit": false,
      "t": 149312.4479999901,
      "d": 94.69333333332906,
      "v": 110
    },
    {
      "midi": 62,
      "hit": false,
      "t": 149312.4479999901,
      "d": 94.69333333332906,
      "v": 100
    },
    {
      "midi": 46,
      "hit": false,
      "t": 149331.38666665676,
      "d": 94.69333333335817,
      "v": 92
    },
    {
      "midi": 60,
      "hit": false,
      "t": 149426.07999999012,
      "d": 66.28533333333326,
      "v": 110
    },
    {
      "midi": 64,
      "hit": false,
      "t": 149426.07999999012,
      "d": 85.22399999998743,
      "v": 70
    },
    {
      "midi": 24,
      "hit": false,
      "t": 149426.07999999012,
      "d": 94.69333333332906,
      "v": 127
    },
    {
      "midi": 79,
      "hit": false,
      "t": 149530.2426666568,
      "d": 94.69333333329996,
      "v": 110
    },
    {
      "midi": 62,
      "hit": false,
      "t": 149539.71199999013,
      "d": 18.93866666665417,
      "v": 70
    },
    {
      "midi": 60,
      "hit": false,
      "t": 149539.71199999013,
      "d": 66.28533333330415,
      "v": 110
    },
    {
      "midi": 24,
      "hit": false,
      "t": 149539.71199999013,
      "d": 94.69333333329996,
      "v": 127
    },
    {
      "midi": 15,
      "hit": false,
      "t": 149539.71199999013,
      "d": 94.69333333329996,
      "v": 100
    },
    {
      "midi": 13,
      "hit": false,
      "t": 149539.71199999013,
      "d": 94.69333333329996,
      "v": 100
    },
    {
      "midi": 10,
      "hit": false,
      "t": 149539.71199999013,
      "d": 94.69333333329996,
      "v": 127
    },
    {
      "midi": 127,
      "hit": false,
      "t": 149539.71199999013,
      "d": 94.69333333329996,
      "v": 60
    },
    {
      "midi": 108,
      "hit": false,
      "t": 149539.71199999013,
      "d": 94.69333333329996,
      "v": 80
    },
    {
      "midi": 105,
      "hit": false,
      "t": 149539.71199999013,
      "d": 94.69333333329996,
      "v": 100
    },
    {
      "midi": 42,
      "hit": false,
      "t": 149539.71199999013,
      "d": 94.69333333329996,
      "v": 92
    },
    {
      "midi": 72,
      "hit": false,
      "t": 149539.71199999013,
      "d": 94.69333333329996,
      "v": 110
    },
    {
      "midi": 118,
      "hit": false,
      "t": 149539.71199999013,
      "d": 94.69333333329996,
      "v": 60
    },
    {
      "midi": 63,
      "hit": false,
      "t": 149539.71199999013,
      "d": 94.69333333329996,
      "v": 70
    },
    {
      "midi": 60,
      "hit": false,
      "t": 149643.87466665677,
      "d": 75.7546666666749,
      "v": 100
    },
    {
      "midi": 72,
      "hit": false,
      "t": 149643.87466665677,
      "d": 94.69333333332906,
      "v": 110
    },
    {
      "midi": 24,
      "hit": false,
      "t": 149653.34399999012,
      "d": 94.69333333332906,
      "v": 127
    },
    {
      "midi": 67,
      "hit": false,
      "t": 149653.34399999012,
      "d": 94.69333333332906,
      "v": 110
    },
    {
      "midi": 79,
      "hit": false,
      "t": 149653.34399999012,
      "d": 94.69333333332906,
      "v": 110
    },
    {
      "midi": 42,
      "hit": false,
      "t": 149662.81333332346,
      "d": 94.69333333332906,
      "v": 78
    },
    {
      "midi": 60,
      "hit": false,
      "t": 149757.5066666568,
      "d": 75.7546666666749,
      "v": 100
    },
    {
      "midi": 79,
      "hit": false,
      "t": 149757.5066666568,
      "d": 94.69333333335817,
      "v": 110
    },
    {
      "midi": 48,
      "hit": false,
      "t": 149766.97599999013,
      "d": 94.69333333335817,
      "v": 80
    },
    {
      "midi": 36,
      "hit": false,
      "t": 149766.97599999013,
      "d": 94.69333333335817,
      "v": 127
    },
    {
      "midi": 64,
      "hit": false,
      "t": 149766.97599999013,
      "d": 94.69333333335817,
      "v": 110
    },
    {
      "midi": 62,
      "hit": false,
      "t": 149766.97599999013,
      "d": 94.69333333335817,
      "v": 100
    },
    {
      "midi": 72,
      "hit": false,
      "t": 149766.97599999013,
      "d": 94.69333333335817,
      "v": 110
    },
    {
      "midi": 46,
      "hit": false,
      "t": 149785.91466665678,
      "d": 94.69333333338727,
      "v": 92
    },
    {
      "midi": 60,
      "hit": false,
      "t": 149871.13866665683,
      "d": 75.754666666704,
      "v": 100
    },
    {
      "midi": 72,
      "hit": false,
      "t": 149871.13866665683,
      "d": 94.69333333335817,
      "v": 110
    },
    {
      "midi": 24,
      "hit": false,
      "t": 149880.60799999017,
      "d": 94.69333333335817,
      "v": 127
    },
    {
      "midi": 64,
      "hit": false,
      "t": 149880.60799999017,
      "d": 94.69333333335817,
      "v": 110
    },
    {
      "midi": 79,
      "hit": false,
      "t": 149880.60799999017,
      "d": 94.69333333335817,
      "v": 110
    },
    {
      "midi": 118,
      "hit": false,
      "t": 149880.60799999017,
      "d": 94.69333333335817,
      "v": 60
    },
    {
      "midi": 79,
      "hit": false,
      "t": 149984.77066665687,
      "d": 94.69333333332906,
      "v": 110
    },
    {
      "midi": 62,
      "hit": false,
      "t": 149994.2399999902,
      "d": 18.93866666665417,
      "v": 70
    },
    {
      "midi": 24,
      "hit": false,
      "t": 149994.2399999902,
      "d": 94.69333333332906,
      "v": 127
    },
    {
      "midi": 15,
      "hit": false,
      "t": 149994.2399999902,
      "d": 94.69333333332906,
      "v": 100
    },
    {
      "midi": 13,
      "hit": false,
      "t": 149994.2399999902,
      "d": 94.69333333332906,
      "v": 100
    },
    {
      "midi": 10,
      "hit": false,
      "t": 149994.2399999902,
      "d": 94.69333333332906,
      "v": 127
    },
    {
      "midi": 42,
      "hit": false,
      "t": 149994.2399999902,
      "d": 94.69333333332906,
      "v": 92
    },
    {
      "midi": 72,
      "hit": false,
      "t": 149994.2399999902,
      "d": 94.69333333332906,
      "v": 110
    },
    {
      "midi": 60,
      "hit": false,
      "t": 150098.40266665688,
      "d": 9.469333333341638,
      "v": 100
    },
    {
      "midi": 72,
      "hit": false,
      "t": 150098.40266665688,
      "d": 9.469333333341638,
      "v": 60
    },
    {
      "midi": 60,
      "hit": false,
      "t": 150107.87199999022,
      "d": 66.28533333336236,
      "v": 110
    },
    {
      "midi": 24,
      "hit": false,
      "t": 150107.87199999022,
      "d": 94.69333333335817,
      "v": 127
    },
    {
      "midi": 79,
      "hit": false,
      "t": 150107.87199999022,
      "d": 94.69333333335817,
      "v": 60
    },
    {
      "midi": 118,
      "hit": false,
      "t": 150107.87199999022,
      "d": 94.69333333335817,
      "v": 60
    },
    {
      "midi": 42,
      "hit": false,
      "t": 150117.34133332357,
      "d": 94.69333333335817,
      "v": 78
    },
    {
      "midi": 60,
      "hit": false,
      "t": 150212.03466665692,
      "d": 75.7546666666749,
      "v": 100
    },
    {
      "midi": 59,
      "hit": false,
      "t": 150221.50399999027,
      "d": 75.7546666666749,
      "v": 110
    },
    {
      "midi": 71,
      "hit": false,
      "t": 150221.50399999027,
      "d": 75.7546666666749,
      "v": 120
    },
    {
      "midi": 48,
      "hit": false,
      "t": 150221.50399999027,
      "d": 94.69333333332906,
      "v": 80
    },
    {
      "midi": 36,
      "hit": false,
      "t": 150221.50399999027,
      "d": 94.69333333332906,
      "v": 127
    },
    {
      "midi": 67,
      "hit": false,
      "t": 150221.50399999027,
      "d": 94.69333333332906,
      "v": 110
    },
    {
      "midi": 62,
      "hit": false,
      "t": 150221.50399999027,
      "d": 94.69333333332906,
      "v": 100
    },
    {
      "midi": 118,
      "hit": false,
      "t": 150221.50399999027,
      "d": 94.69333333332906,
      "v": 40
    },
    {
      "midi": 46,
      "hit": false,
      "t": 150240.44266665692,
      "d": 94.69333333335817,
      "v": 92
    },
    {
      "midi": 60,
      "hit": false,
      "t": 150325.66666665694,
      "d": 75.7546666666749,
      "v": 100
    },
    {
      "midi": 24,
      "hit": false,
      "t": 150335.13599999028,
      "d": 94.69333333335817,
      "v": 127
    },
    {
      "midi": 67,
      "hit": false,
      "t": 150335.13599999028,
      "d": 94.69333333335817,
      "v": 110
    },
    {
      "midi": 63,
      "hit": false,
      "t": 150335.13599999028,
      "d": 94.69333333335817,
      "v": 80
    },
    {
      "midi": 79,
      "hit": false,
      "t": 150439.29866665698,
      "d": 94.69333333335817,
      "v": 110
    },
    {
      "midi": 62,
      "hit": false,
      "t": 150448.76799999032,
      "d": 18.93866666665417,
      "v": 70
    },
    {
      "midi": 60,
      "hit": false,
      "t": 150448.76799999032,
      "d": 66.28533333333326,
      "v": 110
    },
    {
      "midi": 72,
      "hit": false,
      "t": 150448.76799999032,
      "d": 75.7546666666749,
      "v": 110
    },
    {
      "midi": 24,
      "hit": false,
      "t": 150448.76799999032,
      "d": 94.69333333335817,
      "v": 127
    },
    {
      "midi": 64,
      "hit": false,
      "t": 150448.76799999032,
      "d": 94.69333333335817,
      "v": 70
    },
    {
      "midi": 15,
      "hit": false,
      "t": 150448.76799999032,
      "d": 94.69333333335817,
      "v": 100
    },
    {
      "midi": 13,
      "hit": false,
      "t": 150448.76799999032,
      "d": 94.69333333335817,
      "v": 100
    },
    {
      "midi": 10,
      "hit": false,
      "t": 150448.76799999032,
      "d": 94.69333333335817,
      "v": 127
    },
    {
      "midi": 127,
      "hit": false,
      "t": 150448.76799999032,
      "d": 94.69333333335817,
      "v": 60
    },
    {
      "midi": 108,
      "hit": false,
      "t": 150448.76799999032,
      "d": 94.69333333335817,
      "v": 80
    },
    {
      "midi": 105,
      "hit": false,
      "t": 150448.76799999032,
      "d": 94.69333333335817,
      "v": 100
    },
    {
      "midi": 42,
      "hit": false,
      "t": 150448.76799999032,
      "d": 94.69333333335817,
      "v": 92
    },
    {
      "midi": 118,
      "hit": false,
      "t": 150448.76799999032,
      "d": 94.69333333335817,
      "v": 60
    },
    {
      "midi": 60,
      "hit": false,
      "t": 150552.93066665702,
      "d": 75.7546666666749,
      "v": 100
    },
    {
      "midi": 72,
      "hit": false,
      "t": 150552.93066665702,
      "d": 94.69333333332906,
      "v": 110
    },
    {
      "midi": 24,
      "hit": false,
      "t": 150562.39999999036,
      "d": 94.69333333332906,
      "v": 127
    },
    {
      "midi": 64,
      "hit": false,
      "t": 150562.39999999036,
      "d": 94.69333333332906,
      "v": 110
    },
    {
      "midi": 79,
      "hit": false,
      "t": 150562.39999999036,
      "d": 94.69333333332906,
      "v": 110
    },
    {
      "midi": 42,
      "hit": false,
      "t": 150571.8693333237,
      "d": 94.69333333332906,
      "v": 78
    },
    {
      "midi": 60,
      "hit": false,
      "t": 150666.56266665703,
      "d": 75.7546666666749,
      "v": 100
    },
    {
      "midi": 79,
      "hit": false,
      "t": 150676.03199999037,
      "d": 85.22400000001653,
      "v": 120
    },
    {
      "midi": 48,
      "hit": false,
      "t": 150676.03199999037,
      "d": 94.69333333335817,
      "v": 80
    },
    {
      "midi": 36,
      "hit": false,
      "t": 150676.03199999037,
      "d": 94.69333333335817,
      "v": 127
    },
    {
      "midi": 67,
      "hit": false,
      "t": 150676.03199999037,
      "d": 94.69333333335817,
      "v": 110
    },
    {
      "midi": 62,
      "hit": false,
      "t": 150676.03199999037,
      "d": 94.69333333335817,
      "v": 100
    },
    {
      "midi": 72,
      "hit": false,
      "t": 150676.03199999037,
      "d": 94.69333333335817,
      "v": 110
    },
    {
      "midi": 118,
      "hit": false,
      "t": 150676.03199999037,
      "d": 94.69333333335817,
      "v": 60
    },
    {
      "midi": 46,
      "hit": false,
      "t": 150694.97066665703,
      "d": 94.69333333338727,
      "v": 92
    },
    {
      "midi": 60,
      "hit": false,
      "t": 150780.19466665707,
      "d": 75.7546666666749,
      "v": 100
    },
    {
      "midi": 72,
      "hit": false,
      "t": 150780.19466665707,
      "d": 94.69333333332906,
      "v": 110
    },
    {
      "midi": 24,
      "hit": false,
      "t": 150789.66399999041,
      "d": 94.69333333332906,
      "v": 127
    },
    {
      "midi": 67,
      "hit": false,
      "t": 150789.66399999041,
      "d": 94.69333333332906,
      "v": 110
    },
    {
      "midi": 79,
      "hit": false,
      "t": 150789.66399999041,
      "d": 94.69333333332906,
      "v": 110
    },
    {
      "midi": 118,
      "hit": false,
      "t": 150789.66399999041,
      "d": 94.69333333332906,
      "v": 40
    },
    {
      "midi": 64,
      "hit": false,
      "t": 150893.82666665709,
      "d": 75.7546666666749,
      "v": 100
    },
    {
      "midi": 79,
      "hit": false,
      "t": 150893.82666665709,
      "d": 94.69333333335817,
      "v": 110
    },
    {
      "midi": 62,
      "hit": false,
      "t": 150903.29599999043,
      "d": 18.93866666665417,
      "v": 70
    },
    {
      "midi": 28,
      "hit": false,
      "t": 150903.29599999043,
      "d": 94.69333333335817,
      "v": 127
    },
    {
      "midi": 60,
      "hit": false,
      "t": 150903.29599999043,
      "d": 94.69333333335817,
      "v": 110
    },
    {
      "midi": 15,
      "hit": false,
      "t": 150903.29599999043,
      "d": 94.69333333335817,
      "v": 100
    },
    {
      "midi": 13,
      "hit": false,
      "t": 150903.29599999043,
      "d": 94.69333333335817,
      "v": 100
    },
    {
      "midi": 10,
      "hit": false,
      "t": 150903.29599999043,
      "d": 94.69333333335817,
      "v": 127
    },
    {
      "midi": 42,
      "hit": false,
      "t": 150903.29599999043,
      "d": 94.69333333335817,
      "v": 92
    },
    {
      "midi": 72,
      "hit": false,
      "t": 150903.29599999043,
      "d": 94.69333333335817,
      "v": 110
    },
    {
      "midi": 69,
      "hit": false,
      "t": 150903.29599999043,
      "d": 643.9146666667657,
      "v": 127
    },
    {
      "midi": 64,
      "hit": false,
      "t": 151007.45866665713,
      "d": 75.7546666666749,
      "v": 100
    },
    {
      "midi": 28,
      "hit": false,
      "t": 151016.92799999047,
      "d": 94.69333333332906,
      "v": 127
    },
    {
      "midi": 42,
      "hit": false,
      "t": 151026.3973333238,
      "d": 94.69333333332906,
      "v": 78
    },
    {
      "midi": 64,
      "hit": false,
      "t": 151121.09066665714,
      "d": 75.75466666664579,
      "v": 100
    },
    {
      "midi": 52,
      "hit": false,
      "t": 151130.55999999048,
      "d": 94.69333333329996,
      "v": 80
    },
    {
      "midi": 40,
      "hit": false,
      "t": 151130.55999999048,
      "d": 94.69333333329996,
      "v": 127
    },
    {
      "midi": 60,
      "hit": false,
      "t": 151130.55999999048,
      "d": 94.69333333329996,
      "v": 110
    },
    {
      "midi": 62,
      "hit": false,
      "t": 151130.55999999048,
      "d": 94.69333333329996,
      "v": 100
    },
    {
      "midi": 46,
      "hit": false,
      "t": 151149.49866665713,
      "d": 94.69333333332906,
      "v": 92
    },
    {
      "midi": 64,
      "hit": false,
      "t": 151244.19199999046,
      "d": 66.28533333333326,
      "v": 70
    },
    {
      "midi": 28,
      "hit": false,
      "t": 151244.19199999046,
      "d": 94.69333333332906,
      "v": 127
    },
    {
      "midi": 64,
      "hit": false,
      "t": 151348.35466665713,
      "d": 75.7546666666749,
      "v": 100
    },
    {
      "midi": 79,
      "hit": false,
      "t": 151348.35466665713,
      "d": 94.69333333335817,
      "v": 110
    },
    {
      "midi": 62,
      "hit": false,
      "t": 151357.82399999048,
      "d": 18.93866666665417,
      "v": 70
    },
    {
      "midi": 28,
      "hit": false,
      "t": 151357.82399999048,
      "d": 94.69333333335817,
      "v": 127
    },
    {
      "midi": 72,
      "hit": false,
      "t": 151357.82399999048,
      "d": 94.69333333335817,
      "v": 110
    },
    {
      "midi": 15,
      "hit": false,
      "t": 151357.82399999048,
      "d": 94.69333333335817,
      "v": 100
    },
    {
      "midi": 13,
      "hit": false,
      "t": 151357.82399999048,
      "d": 94.69333333335817,
      "v": 100
    },
    {
      "midi": 10,
      "hit": false,
      "t": 151357.82399999048,
      "d": 94.69333333335817,
      "v": 127
    },
    {
      "midi": 127,
      "hit": false,
      "t": 151357.82399999048,
      "d": 94.69333333335817,
      "v": 60
    },
    {
      "midi": 108,
      "hit": false,
      "t": 151357.82399999048,
      "d": 94.69333333335817,
      "v": 80
    },
    {
      "midi": 105,
      "hit": false,
      "t": 151357.82399999048,
      "d": 94.69333333335817,
      "v": 100
    },
    {
      "midi": 42,
      "hit": false,
      "t": 151357.82399999048,
      "d": 94.69333333335817,
      "v": 92
    },
    {
      "midi": 118,
      "hit": false,
      "t": 151357.82399999048,
      "d": 94.69333333335817,
      "v": 60
    },
    {
      "midi": 63,
      "hit": false,
      "t": 151357.82399999048,
      "d": 94.69333333335817,
      "v": 70
    },
    {
      "midi": 64,
      "hit": false,
      "t": 151461.98666665718,
      "d": 75.7546666666749,
      "v": 100
    },
    {
      "midi": 72,
      "hit": false,
      "t": 151461.98666665718,
      "d": 94.69333333335817,
      "v": 110
    },
    {
      "midi": 28,
      "hit": false,
      "t": 151471.45599999052,
      "d": 94.69333333335817,
      "v": 127
    },
    {
      "midi": 67,
      "hit": false,
      "t": 151471.45599999052,
      "d": 94.69333333335817,
      "v": 110
    },
    {
      "midi": 79,
      "hit": false,
      "t": 151471.45599999052,
      "d": 94.69333333335817,
      "v": 110
    },
    {
      "midi": 42,
      "hit": false,
      "t": 151480.92533332386,
      "d": 94.69333333335817,
      "v": 78
    },
    {
      "midi": 79,
      "hit": false,
      "t": 151575.61866665722,
      "d": 94.69333333332906,
      "v": 110
    },
    {
      "midi": 64,
      "hit": false,
      "t": 151585.08799999056,
      "d": 66.28533333330415,
      "v": 110
    },
    {
      "midi": 52,
      "hit": false,
      "t": 151585.08799999056,
      "d": 94.69333333332906,
      "v": 80
    },
    {
      "midi": 40,
      "hit": false,
      "t": 151585.08799999056,
      "d": 94.69333333332906,
      "v": 127
    },
    {
      "midi": 62,
      "hit": false,
      "t": 151585.08799999056,
      "d": 94.69333333332906,
      "v": 100
    },
    {
      "midi": 72,
      "hit": false,
      "t": 151585.08799999056,
      "d": 94.69333333332906,
      "v": 110
    },
    {
      "midi": 67,
      "hit": false,
      "t": 151585.08799999056,
      "d": 113.63200000001234,
      "v": 127
    },
    {
      "midi": 46,
      "hit": false,
      "t": 151604.0266666572,
      "d": 94.69333333335817,
      "v": 92
    },
    {
      "midi": 64,
      "hit": false,
      "t": 151689.25066665723,
      "d": 75.75466666664579,
      "v": 100
    },
    {
      "midi": 72,
      "hit": false,
      "t": 151689.25066665723,
      "d": 94.69333333329996,
      "v": 110
    },
    {
      "midi": 28,
      "hit": false,
      "t": 151698.71999999057,
      "d": 94.69333333329996,
      "v": 127
    },
    {
      "midi": 60,
      "hit": false,
      "t": 151698.71999999057,
      "d": 94.69333333329996,
      "v": 110
    },
    {
      "midi": 79,
      "hit": false,
      "t": 151698.71999999057,
      "d": 94.69333333329996,
      "v": 110
    },
    {
      "midi": 118,
      "hit": false,
      "t": 151698.71999999057,
      "d": 94.69333333329996,
      "v": 60
    },
    {
      "midi": 79,
      "hit": false,
      "t": 151802.8826666572,
      "d": 94.69333333332906,
      "v": 110
    },
    {
      "midi": 62,
      "hit": false,
      "t": 151812.35199999055,
      "d": 18.93866666665417,
      "v": 70
    },
    {
      "midi": 28,
      "hit": false,
      "t": 151812.35199999055,
      "d": 94.69333333332906,
      "v": 127
    },
    {
      "midi": 15,
      "hit": false,
      "t": 151812.35199999055,
      "d": 94.69333333332906,
      "v": 100
    },
    {
      "midi": 13,
      "hit": false,
      "t": 151812.35199999055,
      "d": 94.69333333332906,
      "v": 100
    },
    {
      "midi": 10,
      "hit": false,
      "t": 151812.35199999055,
      "d": 94.69333333332906,
      "v": 127
    },
    {
      "midi": 42,
      "hit": false,
      "t": 151812.35199999055,
      "d": 94.69333333332906,
      "v": 92
    },
    {
      "midi": 72,
      "hit": false,
      "t": 151812.35199999055,
      "d": 94.69333333332906,
      "v": 110
    },
    {
      "midi": 67,
      "hit": false,
      "t": 151812.35199999055,
      "d": 568.1600000001199,
      "v": 127
    },
    {
      "midi": 64,
      "hit": false,
      "t": 151916.51466665723,
      "d": 75.7546666666749,
      "v": 100
    },
    {
      "midi": 72,
      "hit": false,
      "t": 151916.51466665723,
      "d": 94.69333333335817,
      "v": 60
    },
    {
      "midi": 62,
      "hit": false,
      "t": 151925.98399999057,
      "d": 18.938666666683275,
      "v": 70
    },
    {
      "midi": 28,
      "hit": false,
      "t": 151925.98399999057,
      "d": 94.69333333335817,
      "v": 127
    },
    {
      "midi": 60,
      "hit": false,
      "t": 151925.98399999057,
      "d": 94.69333333335817,
      "v": 110
    },
    {
      "midi": 79,
      "hit": false,
      "t": 151925.98399999057,
      "d": 94.69333333335817,
      "v": 60
    },
    {
      "midi": 118,
      "hit": false,
      "t": 151925.98399999057,
      "d": 94.69333333335817,
      "v": 60
    },
    {
      "midi": 42,
      "hit": false,
      "t": 151935.4533333239,
      "d": 94.69333333335817,
      "v": 78
    },
    {
      "midi": 64,
      "hit": false,
      "t": 152039.6159999906,
      "d": 66.28533333333326,
      "v": 110
    },
    {
      "midi": 52,
      "hit": false,
      "t": 152039.6159999906,
      "d": 94.69333333332906,
      "v": 80
    },
    {
      "midi": 40,
      "hit": false,
      "t": 152039.6159999906,
      "d": 94.69333333332906,
      "v": 127
    },
    {
      "midi": 62,
      "hit": false,
      "t": 152039.6159999906,
      "d": 94.69333333332906,
      "v": 100
    },
    {
      "midi": 118,
      "hit": false,
      "t": 152039.6159999906,
      "d": 94.69333333332906,
      "v": 40
    },
    {
      "midi": 46,
      "hit": false,
      "t": 152058.55466665726,
      "d": 94.69333333335817,
      "v": 92
    },
    {
      "midi": 64,
      "hit": false,
      "t": 152153.24799999062,
      "d": 66.28533333333326,
      "v": 110
    },
    {
      "midi": 28,
      "hit": false,
      "t": 152153.24799999062,
      "d": 94.69333333332906,
      "v": 127
    },
    {
      "midi": 63,
      "hit": false,
      "t": 152153.24799999062,
      "d": 94.69333333332906,
      "v": 80
    },
    {
      "midi": 79,
      "hit": false,
      "t": 152257.4106666573,
      "d": 94.69333333335817,
      "v": 110
    },
    {
      "midi": 62,
      "hit": false,
      "t": 152266.87999999063,
      "d": 18.93866666665417,
      "v": 70
    },
    {
      "midi": 64,
      "hit": false,
      "t": 152266.87999999063,
      "d": 66.28533333333326,
      "v": 70
    },
    {
      "midi": 28,
      "hit": false,
      "t": 152266.87999999063,
      "d": 94.69333333335817,
      "v": 127
    },
    {
      "midi": 72,
      "hit": false,
      "t": 152266.87999999063,
      "d": 94.69333333335817,
      "v": 110
    },
    {
      "midi": 15,
      "hit": false,
      "t": 152266.87999999063,
      "d": 94.69333333335817,
      "v": 100
    },
    {
      "midi": 13,
      "hit": false,
      "t": 152266.87999999063,
      "d": 94.69333333335817,
      "v": 100
    },
    {
      "midi": 10,
      "hit": false,
      "t": 152266.87999999063,
      "d": 94.69333333335817,
      "v": 127
    },
    {
      "midi": 127,
      "hit": false,
      "t": 152266.87999999063,
      "d": 94.69333333335817,
      "v": 60
    },
    {
      "midi": 108,
      "hit": false,
      "t": 152266.87999999063,
      "d": 94.69333333335817,
      "v": 80
    },
    {
      "midi": 105,
      "hit": false,
      "t": 152266.87999999063,
      "d": 94.69333333335817,
      "v": 100
    },
    {
      "midi": 42,
      "hit": false,
      "t": 152266.87999999063,
      "d": 94.69333333335817,
      "v": 92
    },
    {
      "midi": 118,
      "hit": false,
      "t": 152266.87999999063,
      "d": 94.69333333335817,
      "v": 60
    },
    {
      "midi": 64,
      "hit": false,
      "t": 152371.04266665733,
      "d": 75.7546666666749,
      "v": 100
    },
    {
      "midi": 79,
      "hit": false,
      "t": 152380.51199999067,
      "d": 37.87733333333745,
      "v": 110
    },
    {
      "midi": 72,
      "hit": false,
      "t": 152380.51199999067,
      "d": 85.22399999998743,
      "v": 110
    },
    {
      "midi": 28,
      "hit": false,
      "t": 152380.51199999067,
      "d": 94.69333333332906,
      "v": 127
    },
    {
      "midi": 42,
      "hit": false,
      "t": 152389.98133332402,
      "d": 94.69333333332906,
      "v": 78
    },
    {
      "midi": 64,
      "hit": false,
      "t": 152484.67466665735,
      "d": 75.7546666666749,
      "v": 100
    },
    {
      "midi": 79,
      "hit": false,
      "t": 152484.67466665735,
      "d": 94.69333333335817,
      "v": 110
    },
    {
      "midi": 59,
      "hit": false,
      "t": 152494.1439999907,
      "d": 75.7546666666749,
      "v": 110
    },
    {
      "midi": 71,
      "hit": false,
      "t": 152494.1439999907,
      "d": 75.7546666666749,
      "v": 120
    },
    {
      "midi": 52,
      "hit": false,
      "t": 152494.1439999907,
      "d": 94.69333333335817,
      "v": 80
    },
    {
      "midi": 40,
      "hit": false,
      "t": 152494.1439999907,
      "d": 94.69333333335817,
      "v": 127
    },
    {
      "midi": 67,
      "hit": false,
      "t": 152494.1439999907,
      "d": 94.69333333335817,
      "v": 110
    },
    {
      "midi": 62,
      "hit": false,
      "t": 152494.1439999907,
      "d": 94.69333333335817,
      "v": 100
    },
    {
      "midi": 15,
      "hit": false,
      "t": 152494.1439999907,
      "d": 94.69333333335817,
      "v": 100
    },
    {
      "midi": 13,
      "hit": false,
      "t": 152494.1439999907,
      "d": 94.69333333335817,
      "v": 100
    },
    {
      "midi": 10,
      "hit": false,
      "t": 152494.1439999907,
      "d": 94.69333333335817,
      "v": 127
    },
    {
      "midi": 72,
      "hit": false,
      "t": 152494.1439999907,
      "d": 94.69333333335817,
      "v": 110
    },
    {
      "midi": 118,
      "hit": false,
      "t": 152494.1439999907,
      "d": 94.69333333335817,
      "v": 60
    },
    {
      "midi": 46,
      "hit": false,
      "t": 152513.08266665734,
      "d": 94.69333333338727,
      "v": 92
    },
    {
      "midi": 64,
      "hit": false,
      "t": 152598.3066666574,
      "d": 75.7546666666749,
      "v": 100
    },
    {
      "midi": 72,
      "hit": false,
      "t": 152598.3066666574,
      "d": 94.69333333332906,
      "v": 110
    },
    {
      "midi": 28,
      "hit": false,
      "t": 152607.77599999073,
      "d": 94.69333333332906,
      "v": 127
    },
    {
      "midi": 60,
      "hit": false,
      "t": 152607.77599999073,
      "d": 94.69333333332906,
      "v": 110
    },
    {
      "midi": 79,
      "hit": false,
      "t": 152607.77599999073,
      "d": 94.69333333332906,
      "v": 110
    },
    {
      "midi": 118,
      "hit": false,
      "t": 152607.77599999073,
      "d": 94.69333333332906,
      "v": 40
    },
    {
      "midi": 79,
      "hit": false,
      "t": 152711.9386666574,
      "d": 94.69333333338727,
      "v": 110
    },
    {
      "midi": 65,
      "hit": false,
      "t": 152721.40799999074,
      "d": 18.938666666683275,
      "v": 70
    },
    {
      "midi": 29,
      "hit": false,
      "t": 152721.40799999074,
      "d": 94.69333333338727,
      "v": 127
    },
    {
      "midi": 69,
      "hit": false,
      "t": 152721.40799999074,
      "d": 94.69333333338727,
      "v": 110
    },
    {
      "midi": 15,
      "hit": false,
      "t": 152721.40799999074,
      "d": 94.69333333338727,
      "v": 100
    },
    {
      "midi": 13,
      "hit": false,
      "t": 152721.40799999074,
      "d": 94.69333333338727,
      "v": 100
    },
    {
      "midi": 10,
      "hit": false,
      "t": 152721.40799999074,
      "d": 94.69333333338727,
      "v": 127
    },
    {
      "midi": 42,
      "hit": false,
      "t": 152721.40799999074,
      "d": 94.69333333338727,
      "v": 92
    },
    {
      "midi": 72,
      "hit": false,
      "t": 152721.40799999074,
      "d": 94.69333333338727,
      "v": 110
    },
    {
      "midi": 60,
      "hit": false,
      "t": 152721.40799999074,
      "d": 1022.6880000002566,
      "v": 110
    },
    {
      "midi": 65,
      "hit": false,
      "t": 152825.57066665747,
      "d": 75.754666666704,
      "v": 100
    },
    {
      "midi": 29,
      "hit": false,
      "t": 152835.0399999908,
      "d": 94.69333333335817,
      "v": 127
    },
    {
      "midi": 69,
      "hit": false,
      "t": 152835.0399999908,
      "d": 94.69333333335817,
      "v": 110
    },
    {
      "midi": 42,
      "hit": false,
      "t": 152844.50933332415,
      "d": 94.69333333335817,
      "v": 78
    },
    {
      "midi": 65,
      "hit": false,
      "t": 152948.67199999085,
      "d": 66.28533333333326,
      "v": 100
    },
    {
      "midi": 53,
      "hit": false,
      "t": 152948.67199999085,
      "d": 94.69333333332906,
      "v": 80
    },
    {
      "midi": 41,
      "hit": false,
      "t": 152948.67199999085,
      "d": 94.69333333332906,
      "v": 127
    },
    {
      "midi": 46,
      "hit": false,
      "t": 152967.6106666575,
      "d": 94.69333333335817,
      "v": 92
    },
    {
      "midi": 65,
      "hit": false,
      "t": 153052.83466665752,
      "d": 75.754666666704,
      "v": 100
    },
    {
      "midi": 29,
      "hit": false,
      "t": 153062.30399999087,
      "d": 94.69333333335817,
      "v": 127
    },
    {
      "midi": 69,
      "hit": false,
      "t": 153062.30399999087,
      "d": 94.69333333335817,
      "v": 110
    },
    {
      "midi": 64,
      "hit": false,
      "t": 153062.30399999087,
      "d": 94.69333333335817,
      "v": 70
    },
    {
      "midi": 72,
      "hit": false,
      "t": 153166.46666665756,
      "d": 94.69333333329996,
      "v": 110
    },
    {
      "midi": 65,
      "hit": false,
      "t": 153175.9359999909,
      "d": 18.93866666665417,
      "v": 70
    },
    {
      "midi": 29,
      "hit": false,
      "t": 153175.9359999909,
      "d": 94.69333333329996,
      "v": 127
    },
    {
      "midi": 69,
      "hit": false,
      "t": 153175.9359999909,
      "d": 94.69333333329996,
      "v": 110
    },
    {
      "midi": 15,
      "hit": false,
      "t": 153175.9359999909,
      "d": 94.69333333329996,
      "v": 100
    },
    {
      "midi": 13,
      "hit": false,
      "t": 153175.9359999909,
      "d": 94.69333333329996,
      "v": 100
    },
    {
      "midi": 10,
      "hit": false,
      "t": 153175.9359999909,
      "d": 94.69333333329996,
      "v": 127
    },
    {
      "midi": 127,
      "hit": false,
      "t": 153175.9359999909,
      "d": 94.69333333329996,
      "v": 60
    },
    {
      "midi": 108,
      "hit": false,
      "t": 153175.9359999909,
      "d": 94.69333333329996,
      "v": 80
    },
    {
      "midi": 105,
      "hit": false,
      "t": 153175.9359999909,
      "d": 94.69333333329996,
      "v": 100
    },
    {
      "midi": 42,
      "hit": false,
      "t": 153175.9359999909,
      "d": 94.69333333329996,
      "v": 92
    },
    {
      "midi": 79,
      "hit": false,
      "t": 153175.9359999909,
      "d": 94.69333333329996,
      "v": 110
    },
    {
      "midi": 118,
      "hit": false,
      "t": 153175.9359999909,
      "d": 94.69333333329996,
      "v": 60
    },
    {
      "midi": 63,
      "hit": false,
      "t": 153175.9359999909,
      "d": 94.69333333329996,
      "v": 70
    },
    {
      "midi": 65,
      "hit": false,
      "t": 153280.09866665755,
      "d": 75.754666666704,
      "v": 100
    },
    {
      "midi": 79,
      "hit": false,
      "t": 153280.09866665755,
      "d": 94.69333333335817,
      "v": 110
    },
    {
      "midi": 29,
      "hit": false,
      "t": 153289.5679999909,
      "d": 94.69333333335817,
      "v": 127
    },
    {
      "midi": 72,
      "hit": false,
      "t": 153289.5679999909,
      "d": 94.69333333335817,
      "v": 110
    },
    {
      "midi": 42,
      "hit": false,
      "t": 153299.03733332423,
      "d": 94.69333333335817,
      "v": 78
    },
    {
      "midi": 72,
      "hit": false,
      "t": 153393.7306666576,
      "d": 94.69333333332906,
      "v": 80
    },
    {
      "midi": 65,
      "hit": false,
      "t": 153403.19999999093,
      "d": 66.28533333333326,
      "v": 100
    },
    {
      "midi": 53,
      "hit": false,
      "t": 153403.19999999093,
      "d": 94.69333333332906,
      "v": 80
    },
    {
      "midi": 41,
      "hit": false,
      "t": 153403.19999999093,
      "d": 94.69333333332906,
      "v": 127
    },
    {
      "midi": 69,
      "hit": false,
      "t": 153403.19999999093,
      "d": 94.69333333332906,
      "v": 110
    },
    {
      "midi": 79,
      "hit": false,
      "t": 153403.19999999093,
      "d": 94.69333333332906,
      "v": 80
    },
    {
      "midi": 46,
      "hit": false,
      "t": 153422.13866665759,
      "d": 94.69333333335817,
      "v": 92
    },
    {
      "midi": 79,
      "hit": false,
      "t": 153507.3626666576,
      "d": 94.69333333335817,
      "v": 110
    },
    {
      "midi": 65,
      "hit": false,
      "t": 153516.83199999094,
      "d": 66.28533333333326,
      "v": 110
    },
    {
      "midi": 29,
      "hit": false,
      "t": 153516.83199999094,
      "d": 94.69333333335817,
      "v": 127
    },
    {
      "midi": 72,
      "hit": false,
      "t": 153516.83199999094,
      "d": 94.69333333335817,
      "v": 110
    },
    {
      "midi": 118,
      "hit": false,
      "t": 153516.83199999094,
      "d": 94.69333333335817,
      "v": 60
    },
    {
      "midi": 65,
      "hit": false,
      "t": 153630.46399999099,
      "d": 18.93866666665417,
      "v": 70
    },
    {
      "midi": 72,
      "hit": false,
      "t": 153630.46399999099,
      "d": 85.22399999998743,
      "v": 127
    },
    {
      "midi": 29,
      "hit": false,
      "t": 153630.46399999099,
      "d": 94.69333333332906,
      "v": 127
    },
    {
      "midi": 15,
      "hit": false,
      "t": 153630.46399999099,
      "d": 94.69333333332906,
      "v": 100
    },
    {
      "midi": 13,
      "hit": false,
      "t": 153630.46399999099,
      "d": 94.69333333332906,
      "v": 100
    },
    {
      "midi": 10,
      "hit": false,
      "t": 153630.46399999099,
      "d": 94.69333333332906,
      "v": 127
    },
    {
      "midi": 42,
      "hit": false,
      "t": 153630.46399999099,
      "d": 94.69333333332906,
      "v": 92
    },
    {
      "midi": 79,
      "hit": false,
      "t": 153630.46399999099,
      "d": 94.69333333332906,
      "v": 110
    },
    {
      "midi": 65,
      "hit": false,
      "t": 153744.095999991,
      "d": 18.938666666683275,
      "v": 70
    },
    {
      "midi": 29,
      "hit": false,
      "t": 153744.095999991,
      "d": 94.69333333335817,
      "v": 127
    },
    {
      "midi": 69,
      "hit": false,
      "t": 153744.095999991,
      "d": 94.69333333335817,
      "v": 110
    },
    {
      "midi": 118,
      "hit": false,
      "t": 153744.095999991,
      "d": 94.69333333335817,
      "v": 60
    },
    {
      "midi": 42,
      "hit": false,
      "t": 153753.56533332434,
      "d": 94.69333333335817,
      "v": 78
    },
    {
      "midi": 65,
      "hit": false,
      "t": 153857.72799999104,
      "d": 66.28533333333326,
      "v": 100
    },
    {
      "midi": 59,
      "hit": false,
      "t": 153857.72799999104,
      "d": 75.7546666666749,
      "v": 110
    },
    {
      "midi": 71,
      "hit": false,
      "t": 153857.72799999104,
      "d": 75.7546666666749,
      "v": 120
    },
    {
      "midi": 53,
      "hit": false,
      "t": 153857.72799999104,
      "d": 94.69333333332906,
      "v": 80
    },
    {
      "midi": 41,
      "hit": false,
      "t": 153857.72799999104,
      "d": 94.69333333332906,
      "v": 127
    },
    {
      "midi": 69,
      "hit": false,
      "t": 153857.72799999104,
      "d": 94.69333333332906,
      "v": 110
    },
    {
      "midi": 118,
      "hit": false,
      "t": 153857.72799999104,
      "d": 94.69333333332906,
      "v": 40
    },
    {
      "midi": 46,
      "hit": false,
      "t": 153876.6666666577,
      "d": 94.69333333335817,
      "v": 92
    },
    {
      "midi": 65,
      "hit": false,
      "t": 153971.35999999105,
      "d": 66.28533333333326,
      "v": 110
    },
    {
      "midi": 29,
      "hit": false,
      "t": 153971.35999999105,
      "d": 94.69333333332906,
      "v": 127
    },
    {
      "midi": 63,
      "hit": false,
      "t": 153971.35999999105,
      "d": 94.69333333332906,
      "v": 80
    },
    {
      "midi": 79,
      "hit": false,
      "t": 154075.52266665772,
      "d": 94.69333333335817,
      "v": 110
    },
    {
      "midi": 65,
      "hit": false,
      "t": 154084.99199999106,
      "d": 18.93866666665417,
      "v": 70
    },
    {
      "midi": 60,
      "hit": false,
      "t": 154084.99199999106,
      "d": 75.7546666666749,
      "v": 110
    },
    {
      "midi": 72,
      "hit": false,
      "t": 154084.99199999106,
      "d": 75.7546666666749,
      "v": 110
    },
    {
      "midi": 29,
      "hit": false,
      "t": 154084.99199999106,
      "d": 94.69333333335817,
      "v": 127
    },
    {
      "midi": 69,
      "hit": false,
      "t": 154084.99199999106,
      "d": 94.69333333335817,
      "v": 110
    },
    {
      "midi": 15,
      "hit": false,
      "t": 154084.99199999106,
      "d": 94.69333333335817,
      "v": 100
    },
    {
      "midi": 13,
      "hit": false,
      "t": 154084.99199999106,
      "d": 94.69333333335817,
      "v": 100
    },
    {
      "midi": 10,
      "hit": false,
      "t": 154084.99199999106,
      "d": 94.69333333335817,
      "v": 127
    },
    {
      "midi": 127,
      "hit": false,
      "t": 154084.99199999106,
      "d": 94.69333333335817,
      "v": 60
    },
    {
      "midi": 108,
      "hit": false,
      "t": 154084.99199999106,
      "d": 94.69333333335817,
      "v": 80
    },
    {
      "midi": 105,
      "hit": false,
      "t": 154084.99199999106,
      "d": 94.69333333335817,
      "v": 100
    },
    {
      "midi": 42,
      "hit": false,
      "t": 154084.99199999106,
      "d": 94.69333333335817,
      "v": 92
    },
    {
      "midi": 118,
      "hit": false,
      "t": 154084.99199999106,
      "d": 94.69333333335817,
      "v": 60
    },
    {
      "midi": 64,
      "hit": false,
      "t": 154084.99199999106,
      "d": 94.69333333335817,
      "v": 70
    },
    {
      "midi": 65,
      "hit": false,
      "t": 154189.15466665776,
      "d": 75.754666666704,
      "v": 100
    },
    {
      "midi": 72,
      "hit": false,
      "t": 154189.15466665776,
      "d": 94.69333333335817,
      "v": 110
    },
    {
      "midi": 29,
      "hit": false,
      "t": 154198.6239999911,
      "d": 94.69333333335817,
      "v": 127
    },
    {
      "midi": 79,
      "hit": false,
      "t": 154198.6239999911,
      "d": 94.69333333335817,
      "v": 110
    },
    {
      "midi": 42,
      "hit": false,
      "t": 154208.09333332445,
      "d": 94.69333333335817,
      "v": 78
    },
    {
      "midi": 65,
      "hit": false,
      "t": 154312.25599999115,
      "d": 66.28533333330415,
      "v": 100
    },
    {
      "midi": 79,
      "hit": false,
      "t": 154312.25599999115,
      "d": 85.22399999998743,
      "v": 120
    },
    {
      "midi": 53,
      "hit": false,
      "t": 154312.25599999115,
      "d": 94.69333333332906,
      "v": 80
    },
    {
      "midi": 41,
      "hit": false,
      "t": 154312.25599999115,
      "d": 94.69333333332906,
      "v": 127
    },
    {
      "midi": 69,
      "hit": false,
      "t": 154312.25599999115,
      "d": 94.69333333332906,
      "v": 110
    },
    {
      "midi": 72,
      "hit": false,
      "t": 154312.25599999115,
      "d": 94.69333333332906,
      "v": 80
    },
    {
      "midi": 118,
      "hit": false,
      "t": 154312.25599999115,
      "d": 94.69333333332906,
      "v": 60
    },
    {
      "midi": 46,
      "hit": false,
      "t": 154331.1946666578,
      "d": 94.69333333335817,
      "v": 92
    },
    {
      "midi": 72,
      "hit": false,
      "t": 154416.41866665782,
      "d": 94.69333333329996,
      "v": 110
    },
    {
      "midi": 65,
      "hit": false,
      "t": 154425.88799999116,
      "d": 66.28533333330415,
      "v": 110
    },
    {
      "midi": 29,
      "hit": false,
      "t": 154425.88799999116,
      "d": 94.69333333329996,
      "v": 127
    },
    {
      "midi": 79,
      "hit": false,
      "t": 154425.88799999116,
      "d": 94.69333333329996,
      "v": 110
    },
    {
      "midi": 118,
      "hit": false,
      "t": 154425.88799999116,
      "d": 94.69333333329996,
      "v": 40
    },
    {
      "midi": 67,
      "hit": false,
      "t": 154530.0506666578,
      "d": 75.7546666666749,
      "v": 100
    },
    {
      "midi": 79,
      "hit": false,
      "t": 154530.0506666578,
      "d": 85.22400000001653,
      "v": 110
    },
    {
      "midi": 62,
      "hit": false,
      "t": 154539.51999999114,
      "d": 18.93866666665417,
      "v": 70
    },
    {
      "midi": 31,
      "hit": false,
      "t": 154539.51999999114,
      "d": 94.69333333335817,
      "v": 127
    },
    {
      "midi": 15,
      "hit": false,
      "t": 154539.51999999114,
      "d": 94.69333333335817,
      "v": 100
    },
    {
      "midi": 13,
      "hit": false,
      "t": 154539.51999999114,
      "d": 94.69333333335817,
      "v": 100
    },
    {
      "midi": 10,
      "hit": false,
      "t": 154539.51999999114,
      "d": 94.69333333335817,
      "v": 127
    },
    {
      "midi": 42,
      "hit": false,
      "t": 154539.51999999114,
      "d": 94.69333333335817,
      "v": 92
    },
    {
      "midi": 72,
      "hit": false,
      "t": 154539.51999999114,
      "d": 94.69333333335817,
      "v": 110
    },
    {
      "midi": 67,
      "hit": false,
      "t": 154643.68266665784,
      "d": 75.7546666666749,
      "v": 100
    },
    {
      "midi": 31,
      "hit": false,
      "t": 154653.15199999118,
      "d": 94.69333333332906,
      "v": 127
    },
    {
      "midi": 59,
      "hit": false,
      "t": 154653.15199999118,
      "d": 94.69333333332906,
      "v": 110
    },
    {
      "midi": 42,
      "hit": false,
      "t": 154662.62133332453,
      "d": 94.69333333332906,
      "v": 78
    },
    {
      "midi": 67,
      "hit": false,
      "t": 154757.31466665785,
      "d": 75.7546666666749,
      "v": 100
    },
    {
      "midi": 55,
      "hit": false,
      "t": 154766.7839999912,
      "d": 94.69333333332906,
      "v": 80
    },
    {
      "midi": 43,
      "hit": false,
      "t": 154766.7839999912,
      "d": 94.69333333332906,
      "v": 127
    },
    {
      "midi": 62,
      "hit": false,
      "t": 154766.7839999912,
      "d": 94.69333333332906,
      "v": 100
    },
    {
      "midi": 77,
      "hit": false,
      "t": 154766.7839999912,
      "d": 227.26400000002468,
      "v": 120
    },
    {
      "midi": 65,
      "hit": false,
      "t": 154766.7839999912,
      "d": 227.26400000002468,
      "v": 110
    },
    {
      "midi": 46,
      "hit": false,
      "t": 154785.72266665785,
      "d": 94.69333333335817,
      "v": 92
    },
    {
      "midi": 67,
      "hit": false,
      "t": 154880.4159999912,
      "d": 66.28533333333326,
      "v": 110
    },
    {
      "midi": 31,
      "hit": false,
      "t": 154880.4159999912,
      "d": 94.69333333332906,
      "v": 127
    },
    {
      "midi": 64,
      "hit": false,
      "t": 154880.4159999912,
      "d": 94.69333333332906,
      "v": 70
    },
    {
      "midi": 67,
      "hit": false,
      "t": 154984.57866665788,
      "d": 75.7546666666749,
      "v": 100
    },
    {
      "midi": 72,
      "hit": false,
      "t": 154984.57866665788,
      "d": 94.69333333332906,
      "v": 110
    },
    {
      "midi": 62,
      "hit": false,
      "t": 154994.04799999122,
      "d": 18.93866666665417,
      "v": 70
    },
    {
      "midi": 31,
      "hit": false,
      "t": 154994.04799999122,
      "d": 94.69333333332906,
      "v": 127
    },
    {
      "midi": 71,
      "hit": false,
      "t": 154994.04799999122,
      "d": 94.69333333332906,
      "v": 110
    },
    {
      "midi": 15,
      "hit": false,
      "t": 154994.04799999122,
      "d": 94.69333333332906,
      "v": 100
    },
    {
      "midi": 13,
      "hit": false,
      "t": 154994.04799999122,
      "d": 94.69333333332906,
      "v": 100
    },
    {
      "midi": 10,
      "hit": false,
      "t": 154994.04799999122,
      "d": 94.69333333332906,
      "v": 127
    },
    {
      "midi": 127,
      "hit": false,
      "t": 154994.04799999122,
      "d": 94.69333333332906,
      "v": 60
    },
    {
      "midi": 108,
      "hit": false,
      "t": 154994.04799999122,
      "d": 94.69333333332906,
      "v": 80
    },
    {
      "midi": 105,
      "hit": false,
      "t": 154994.04799999122,
      "d": 94.69333333332906,
      "v": 100
    },
    {
      "midi": 42,
      "hit": false,
      "t": 154994.04799999122,
      "d": 94.69333333332906,
      "v": 92
    },
    {
      "midi": 79,
      "hit": false,
      "t": 154994.04799999122,
      "d": 94.69333333332906,
      "v": 110
    },
    {
      "midi": 118,
      "hit": false,
      "t": 154994.04799999122,
      "d": 94.69333333332906,
      "v": 60
    },
    {
      "midi": 63,
      "hit": false,
      "t": 154994.04799999122,
      "d": 94.69333333332906,
      "v": 70
    },
    {
      "midi": 79,
      "hit": false,
      "t": 155098.2106666579,
      "d": 94.69333333335817,
      "v": 110
    },
    {
      "midi": 67,
      "hit": false,
      "t": 155107.67999999123,
      "d": 66.28533333333326,
      "v": 110
    },
    {
      "midi": 31,
      "hit": false,
      "t": 155107.67999999123,
      "d": 94.69333333335817,
      "v": 127
    },
    {
      "midi": 72,
      "hit": false,
      "t": 155107.67999999123,
      "d": 94.69333333335817,
      "v": 110
    },
    {
      "midi": 42,
      "hit": false,
      "t": 155117.14933332457,
      "d": 94.69333333335817,
      "v": 78
    },
    {
      "midi": 67,
      "hit": false,
      "t": 155211.84266665793,
      "d": 75.7546666666749,
      "v": 100
    },
    {
      "midi": 72,
      "hit": false,
      "t": 155211.84266665793,
      "d": 94.69333333332906,
      "v": 80
    },
    {
      "midi": 55,
      "hit": false,
      "t": 155221.31199999127,
      "d": 94.69333333332906,
      "v": 80
    },
    {
      "midi": 43,
      "hit": false,
      "t": 155221.31199999127,
      "d": 94.69333333332906,
      "v": 127
    },
    {
      "midi": 62,
      "hit": false,
      "t": 155221.31199999127,
      "d": 94.69333333332906,
      "v": 100
    },
    {
      "midi": 79,
      "hit": false,
      "t": 155221.31199999127,
      "d": 94.69333333332906,
      "v": 80
    },
    {
      "midi": 64,
      "hit": false,
      "t": 155221.31199999127,
      "d": 208.3253333333414,
      "v": 110
    },
    {
      "midi": 76,
      "hit": false,
      "t": 155221.31199999127,
      "d": 227.26400000002468,
      "v": 120
    },
    {
      "midi": 46,
      "hit": false,
      "t": 155240.25066665793,
      "d": 94.69333333335817,
      "v": 92
    },
    {
      "midi": 67,
      "hit": false,
      "t": 155325.47466665794,
      "d": 75.7546666666749,
      "v": 100
    },
    {
      "midi": 79,
      "hit": false,
      "t": 155325.47466665794,
      "d": 94.69333333332906,
      "v": 110
    },
    {
      "midi": 31,
      "hit": false,
      "t": 155334.9439999913,
      "d": 94.69333333332906,
      "v": 127
    },
    {
      "midi": 59,
      "hit": false,
      "t": 155334.9439999913,
      "d": 94.69333333332906,
      "v": 110
    },
    {
      "midi": 72,
      "hit": false,
      "t": 155334.9439999913,
      "d": 94.69333333332906,
      "v": 110
    },
    {
      "midi": 118,
      "hit": false,
      "t": 155334.9439999913,
      "d": 94.69333333332906,
      "v": 60
    },
    {
      "midi": 72,
      "hit": false,
      "t": 155439.10666665796,
      "d": 94.69333333332906,
      "v": 110
    },
    {
      "midi": 62,
      "hit": false,
      "t": 155448.5759999913,
      "d": 18.93866666665417,
      "v": 70
    },
    {
      "midi": 68,
      "hit": false,
      "t": 155448.5759999913,
      "d": 66.28533333333326,
      "v": 127
    },
    {
      "midi": 32,
      "hit": false,
      "t": 155448.5759999913,
      "d": 94.69333333332906,
      "v": 127
    },
    {
      "midi": 15,
      "hit": false,
      "t": 155448.5759999913,
      "d": 94.69333333332906,
      "v": 100
    },
    {
      "midi": 13,
      "hit": false,
      "t": 155448.5759999913,
      "d": 94.69333333332906,
      "v": 100
    },
    {
      "midi": 10,
      "hit": false,
      "t": 155448.5759999913,
      "d": 94.69333333332906,
      "v": 127
    },
    {
      "midi": 42,
      "hit": false,
      "t": 155448.5759999913,
      "d": 94.69333333332906,
      "v": 92
    },
    {
      "midi": 80,
      "hit": false,
      "t": 155448.5759999913,
      "d": 94.69333333332906,
      "v": 110
    },
    {
      "midi": 68,
      "hit": false,
      "t": 155552.73866665797,
      "d": 75.7546666666749,
      "v": 100
    },
    {
      "midi": 80,
      "hit": false,
      "t": 155552.73866665797,
      "d": 94.69333333332906,
      "v": 110
    },
    {
      "midi": 32,
      "hit": false,
      "t": 155562.2079999913,
      "d": 94.69333333332906,
      "v": 127
    },
    {
      "midi": 72,
      "hit": false,
      "t": 155562.2079999913,
      "d": 94.69333333332906,
      "v": 110
    },
    {
      "midi": 118,
      "hit": false,
      "t": 155562.2079999913,
      "d": 94.69333333332906,
      "v": 60
    },
    {
      "midi": 42,
      "hit": false,
      "t": 155571.67733332465,
      "d": 94.69333333332906,
      "v": 78
    },
    {
      "midi": 68,
      "hit": false,
      "t": 155666.37066665798,
      "d": 75.7546666666749,
      "v": 100
    },
    {
      "midi": 72,
      "hit": false,
      "t": 155666.37066665798,
      "d": 94.69333333335817,
      "v": 80
    },
    {
      "midi": 74,
      "hit": false,
      "t": 155675.83999999132,
      "d": 75.7546666666749,
      "v": 120
    },
    {
      "midi": 62,
      "hit": false,
      "t": 155675.83999999132,
      "d": 75.7546666666749,
      "v": 100
    },
    {
      "midi": 56,
      "hit": false,
      "t": 155675.83999999132,
      "d": 94.69333333335817,
      "v": 80
    },
    {
      "midi": 44,
      "hit": false,
      "t": 155675.83999999132,
      "d": 94.69333333335817,
      "v": 127
    },
    {
      "midi": 76,
      "hit": false,
      "t": 155675.83999999132,
      "d": 94.69333333335817,
      "v": 110
    },
    {
      "midi": 105,
      "hit": false,
      "t": 155675.83999999132,
      "d": 94.69333333335817,
      "v": 100
    },
    {
      "midi": 108,
      "hit": false,
      "t": 155675.83999999132,
      "d": 94.69333333335817,
      "v": 80
    },
    {
      "midi": 127,
      "hit": false,
      "t": 155675.83999999132,
      "d": 94.69333333335817,
      "v": 60
    },
    {
      "midi": 80,
      "hit": false,
      "t": 155675.83999999132,
      "d": 94.69333333335817,
      "v": 80
    },
    {
      "midi": 118,
      "hit": false,
      "t": 155675.83999999132,
      "d": 94.69333333335817,
      "v": 40
    },
    {
      "midi": 46,
      "hit": false,
      "t": 155694.77866665798,
      "d": 94.69333333338727,
      "v": 92
    },
    {
      "midi": 68,
      "hit": false,
      "t": 155780.00266665802,
      "d": 75.7546666666749,
      "v": 100
    },
    {
      "midi": 80,
      "hit": false,
      "t": 155780.00266665802,
      "d": 94.69333333332906,
      "v": 110
    },
    {
      "midi": 32,
      "hit": false,
      "t": 155789.47199999137,
      "d": 94.69333333332906,
      "v": 127
    },
    {
      "midi": 74,
      "hit": false,
      "t": 155789.47199999137,
      "d": 94.69333333332906,
      "v": 110
    },
    {
      "midi": 72,
      "hit": false,
      "t": 155789.47199999137,
      "d": 94.69333333332906,
      "v": 110
    },
    {
      "midi": 63,
      "hit": false,
      "t": 155789.47199999137,
      "d": 94.69333333332906,
      "v": 80
    },
    {
      "midi": 68,
      "hit": false,
      "t": 155893.63466665804,
      "d": 75.75466666664579,
      "v": 100
    },
    {
      "midi": 72,
      "hit": false,
      "t": 155893.63466665804,
      "d": 94.69333333329996,
      "v": 110
    },
    {
      "midi": 62,
      "hit": false,
      "t": 155903.10399999138,
      "d": 18.93866666665417,
      "v": 70
    },
    {
      "midi": 32,
      "hit": false,
      "t": 155903.10399999138,
      "d": 94.69333333329996,
      "v": 127
    },
    {
      "midi": 71,
      "hit": false,
      "t": 155903.10399999138,
      "d": 94.69333333329996,
      "v": 120
    },
    {
      "midi": 15,
      "hit": false,
      "t": 155903.10399999138,
      "d": 94.69333333329996,
      "v": 100
    },
    {
      "midi": 13,
      "hit": false,
      "t": 155903.10399999138,
      "d": 94.69333333329996,
      "v": 100
    },
    {
      "midi": 10,
      "hit": false,
      "t": 155903.10399999138,
      "d": 94.69333333329996,
      "v": 127
    },
    {
      "midi": 105,
      "hit": false,
      "t": 155903.10399999138,
      "d": 94.69333333329996,
      "v": 100
    },
    {
      "midi": 108,
      "hit": false,
      "t": 155903.10399999138,
      "d": 94.69333333329996,
      "v": 80
    },
    {
      "midi": 127,
      "hit": false,
      "t": 155903.10399999138,
      "d": 94.69333333329996,
      "v": 60
    },
    {
      "midi": 42,
      "hit": false,
      "t": 155903.10399999138,
      "d": 94.69333333329996,
      "v": 92
    },
    {
      "midi": 80,
      "hit": false,
      "t": 155903.10399999138,
      "d": 94.69333333329996,
      "v": 110
    },
    {
      "midi": 118,
      "hit": false,
      "t": 155903.10399999138,
      "d": 94.69333333329996,
      "v": 60
    },
    {
      "midi": 64,
      "hit": false,
      "t": 155903.10399999138,
      "d": 94.69333333329996,
      "v": 70
    },
    {
      "midi": 59,
      "hit": false,
      "t": 155903.10399999138,
      "d": 189.38666666668723,
      "v": 110
    },
    {
      "midi": 80,
      "hit": false,
      "t": 156007.26666665802,
      "d": 94.69333333338727,
      "v": 110
    },
    {
      "midi": 68,
      "hit": false,
      "t": 156016.73599999136,
      "d": 66.28533333336236,
      "v": 110
    },
    {
      "midi": 56,
      "hit": false,
      "t": 156016.73599999136,
      "d": 94.69333333338727,
      "v": 80
    },
    {
      "midi": 44,
      "hit": false,
      "t": 156016.73599999136,
      "d": 94.69333333338727,
      "v": 127
    },
    {
      "midi": 105,
      "hit": false,
      "t": 156016.73599999136,
      "d": 94.69333333338727,
      "v": 100
    },
    {
      "midi": 108,
      "hit": false,
      "t": 156016.73599999136,
      "d": 94.69333333338727,
      "v": 80
    },
    {
      "midi": 127,
      "hit": false,
      "t": 156016.73599999136,
      "d": 94.69333333338727,
      "v": 60
    },
    {
      "midi": 72,
      "hit": false,
      "t": 156016.73599999136,
      "d": 94.69333333338727,
      "v": 110
    },
    {
      "midi": 42,
      "hit": false,
      "t": 156026.2053333247,
      "d": 94.69333333338727,
      "v": 78
    },
    {
      "midi": 68,
      "hit": false,
      "t": 156130.36799999143,
      "d": 66.28533333333326,
      "v": 127
    },
    {
      "midi": 59,
      "hit": false,
      "t": 156130.36799999143,
      "d": 94.69333333332906,
      "v": 127
    },
    {
      "midi": 52,
      "hit": false,
      "t": 156130.36799999143,
      "d": 94.69333333332906,
      "v": 80
    },
    {
      "midi": 40,
      "hit": false,
      "t": 156130.36799999143,
      "d": 94.69333333332906,
      "v": 127
    },
    {
      "midi": 64,
      "hit": false,
      "t": 156130.36799999143,
      "d": 94.69333333332906,
      "v": 110
    },
    {
      "midi": 15,
      "hit": false,
      "t": 156130.36799999143,
      "d": 94.69333333332906,
      "v": 100
    },
    {
      "midi": 13,
      "hit": false,
      "t": 156130.36799999143,
      "d": 94.69333333332906,
      "v": 100
    },
    {
      "midi": 10,
      "hit": false,
      "t": 156130.36799999143,
      "d": 94.69333333332906,
      "v": 127
    },
    {
      "midi": 118,
      "hit": false,
      "t": 156130.36799999143,
      "d": 94.69333333332906,
      "v": 60
    },
    {
      "midi": 46,
      "hit": false,
      "t": 156149.30666665809,
      "d": 94.69333333335817,
      "v": 92
    },
    {
      "midi": 68,
      "hit": false,
      "t": 156234.5306666581,
      "d": 75.7546666666749,
      "v": 100
    },
    {
      "midi": 59,
      "hit": false,
      "t": 156243.99999999144,
      "d": 94.69333333332906,
      "v": 110
    },
    {
      "midi": 39,
      "hit": false,
      "t": 156243.99999999144,
      "d": 94.69333333332906,
      "v": 127
    },
    {
      "midi": 118,
      "hit": false,
      "t": 156243.99999999144,
      "d": 94.69333333332906,
      "v": 40
    },
    {
      "midi": 59,
      "hit": false,
      "t": 156357.63199999146,
      "d": 18.93866666665417,
      "v": 70
    },
    {
      "midi": 69,
      "hit": false,
      "t": 156357.63199999146,
      "d": 66.28533333333326,
      "v": 127
    },
    {
      "midi": 33,
      "hit": false,
      "t": 156357.63199999146,
      "d": 94.69333333332906,
      "v": 127
    },
    {
      "midi": 15,
      "hit": false,
      "t": 156357.63199999146,
      "d": 94.69333333332906,
      "v": 100
    },
    {
      "midi": 13,
      "hit": false,
      "t": 156357.63199999146,
      "d": 94.69333333332906,
      "v": 100
    },
    {
      "midi": 10,
      "hit": false,
      "t": 156357.63199999146,
      "d": 94.69333333332906,
      "v": 127
    },
    {
      "midi": 42,
      "hit": false,
      "t": 156357.63199999146,
      "d": 94.69333333332906,
      "v": 92
    },
    {
      "midi": 60,
      "hit": false,
      "t": 156357.63199999146,
      "d": 303.0186666667287,
      "v": 127
    },
    {
      "midi": 55,
      "hit": false,
      "t": 156357.63199999146,
      "d": 426.12000000008265,
      "v": 70
    },
    {
      "midi": 72,
      "hit": false,
      "t": 156357.63199999146,
      "d": 473.46666666679084,
      "v": 120
    },
    {
      "midi": 69,
      "hit": false,
      "t": 156461.79466665813,
      "d": 75.7546666666749,
      "v": 100
    },
    {
      "midi": 33,
      "hit": false,
      "t": 156471.26399999147,
      "d": 94.69333333332906,
      "v": 127
    },
    {
      "midi": 57,
      "hit": false,
      "t": 156471.26399999147,
      "d": 94.69333333332906,
      "v": 110
    },
    {
      "midi": 42,
      "hit": false,
      "t": 156480.7333333248,
      "d": 94.69333333332906,
      "v": 78
    },
    {
      "midi": 69,
      "hit": false,
      "t": 156575.42666665814,
      "d": 75.754666666704,
      "v": 100
    },
    {
      "midi": 76,
      "hit": false,
      "t": 156575.42666665814,
      "d": 94.69333333338727,
      "v": 110
    },
    {
      "midi": 45,
      "hit": false,
      "t": 156584.89599999148,
      "d": 94.69333333338727,
      "v": 127
    },
    {
      "midi": 59,
      "hit": false,
      "t": 156584.89599999148,
      "d": 94.69333333338727,
      "v": 100
    },
    {
      "midi": 64,
      "hit": false,
      "t": 156584.89599999148,
      "d": 94.69333333338727,
      "v": 110
    },
    {
      "midi": 57,
      "hit": false,
      "t": 156594.36533332482,
      "d": 85.22400000004563,
      "v": 110
    },
    {
      "midi": 46,
      "hit": false,
      "t": 156603.83466665816,
      "d": 94.69333333338727,
      "v": 92
    },
    {
      "midi": 57,
      "hit": false,
      "t": 156689.0586666582,
      "d": 94.69333333332906,
      "v": 110
    },
    {
      "midi": 69,
      "hit": false,
      "t": 156698.52799999155,
      "d": 66.28533333333326,
      "v": 110
    },
    {
      "midi": 33,
      "hit": false,
      "t": 156698.52799999155,
      "d": 94.69333333332906,
      "v": 127
    },
    {
      "midi": 64,
      "hit": false,
      "t": 156698.52799999155,
      "d": 94.69333333332906,
      "v": 70
    },
    {
      "midi": 76,
      "hit": false,
      "t": 156707.9973333249,
      "d": 94.69333333332906,
      "v": 110
    },
    {
      "midi": 69,
      "hit": false,
      "t": 156802.69066665822,
      "d": 75.754666666704,
      "v": 100
    },
    {
      "midi": 76,
      "hit": false,
      "t": 156802.69066665822,
      "d": 94.69333333335817,
      "v": 110
    },
    {
      "midi": 59,
      "hit": false,
      "t": 156812.15999999156,
      "d": 18.938666666683275,
      "v": 70
    },
    {
      "midi": 33,
      "hit": false,
      "t": 156812.15999999156,
      "d": 94.69333333335817,
      "v": 127
    },
    {
      "midi": 15,
      "hit": false,
      "t": 156812.15999999156,
      "d": 94.69333333335817,
      "v": 100
    },
    {
      "midi": 13,
      "hit": false,
      "t": 156812.15999999156,
      "d": 94.69333333335817,
      "v": 100
    },
    {
      "midi": 10,
      "hit": false,
      "t": 156812.15999999156,
      "d": 94.69333333335817,
      "v": 127
    },
    {
      "midi": 127,
      "hit": false,
      "t": 156812.15999999156,
      "d": 94.69333333335817,
      "v": 60
    },
    {
      "midi": 108,
      "hit": false,
      "t": 156812.15999999156,
      "d": 94.69333333335817,
      "v": 80
    },
    {
      "midi": 105,
      "hit": false,
      "t": 156812.15999999156,
      "d": 94.69333333335817,
      "v": 100
    },
    {
      "midi": 42,
      "hit": false,
      "t": 156812.15999999156,
      "d": 94.69333333335817,
      "v": 92
    },
    {
      "midi": 64,
      "hit": false,
      "t": 156812.15999999156,
      "d": 94.69333333335817,
      "v": 110
    },
    {
      "midi": 118,
      "hit": false,
      "t": 156812.15999999156,
      "d": 94.69333333335817,
      "v": 60
    },
    {
      "midi": 63,
      "hit": false,
      "t": 156812.15999999156,
      "d": 94.69333333335817,
      "v": 70
    },
    {
      "midi": 62,
      "hit": false,
      "t": 156812.15999999156,
      "d": 426.12000000008265,
      "v": 127
    },
    {
      "midi": 57,
      "hit": false,
      "t": 156821.6293333249,
      "d": 85.22400000001653,
      "v": 110
    },
    {
      "midi": 69,
      "hit": false,
      "t": 156916.32266665826,
      "d": 75.7546666666749,
      "v": 100
    },
    {
      "midi": 57,
      "hit": false,
      "t": 156925.7919999916,
      "d": 85.22399999998743,
      "v": 110
    },
    {
      "midi": 33,
      "hit": false,
      "t": 156925.7919999916,
      "d": 94.69333333332906,
      "v": 127
    },
    {
      "midi": 64,
      "hit": false,
      "t": 156925.7919999916,
      "d": 94.69333333332906,
      "v": 110
    },
    {
      "midi": 42,
      "hit": false,
      "t": 156935.26133332495,
      "d": 94.69333333332906,
      "v": 78
    },
    {
      "midi": 76,
      "hit": false,
      "t": 156935.26133332495,
      "d": 94.69333333332906,
      "v": 110
    },
    {
      "midi": 69,
      "hit": false,
      "t": 157039.42399999162,
      "d": 66.28533333333326,
      "v": 110
    },
    {
      "midi": 57,
      "hit": false,
      "t": 157039.42399999162,
      "d": 94.69333333332906,
      "v": 80
    },
    {
      "midi": 45,
      "hit": false,
      "t": 157039.42399999162,
      "d": 94.69333333332906,
      "v": 127
    },
    {
      "midi": 59,
      "hit": false,
      "t": 157039.42399999162,
      "d": 94.69333333332906,
      "v": 100
    },
    {
      "midi": 71,
      "hit": false,
      "t": 157039.42399999162,
      "d": 94.69333333332906,
      "v": 120
    },
    {
      "midi": 46,
      "hit": false,
      "t": 157058.36266665827,
      "d": 94.69333333335817,
      "v": 92
    },
    {
      "midi": 69,
      "hit": false,
      "t": 157143.5866666583,
      "d": 75.7546666666749,
      "v": 100
    },
    {
      "midi": 72,
      "hit": false,
      "t": 157153.05599999163,
      "d": 37.87733333333745,
      "v": 120
    },
    {
      "midi": 60,
      "hit": false,
      "t": 157153.05599999163,
      "d": 37.87733333333745,
      "v": 110
    },
    {
      "midi": 33,
      "hit": false,
      "t": 157153.05599999163,
      "d": 94.69333333335817,
      "v": 127
    },
    {
      "midi": 57,
      "hit": false,
      "t": 157153.05599999163,
      "d": 94.69333333335817,
      "v": 110
    },
    {
      "midi": 118,
      "hit": false,
      "t": 157153.05599999163,
      "d": 94.69333333335817,
      "v": 60
    },
    {
      "midi": 59,
      "hit": false,
      "t": 157266.68799999167,
      "d": 18.93866666665417,
      "v": 70
    },
    {
      "midi": 68,
      "hit": false,
      "t": 157266.68799999167,
      "d": 66.28533333333326,
      "v": 127
    },
    {
      "midi": 32,
      "hit": false,
      "t": 157266.68799999167,
      "d": 94.69333333335817,
      "v": 127
    },
    {
      "midi": 15,
      "hit": false,
      "t": 157266.68799999167,
      "d": 94.69333333335817,
      "v": 100
    },
    {
      "midi": 13,
      "hit": false,
      "t": 157266.68799999167,
      "d": 94.69333333335817,
      "v": 100
    },
    {
      "midi": 10,
      "hit": false,
      "t": 157266.68799999167,
      "d": 94.69333333335817,
      "v": 127
    },
    {
      "midi": 42,
      "hit": false,
      "t": 157266.68799999167,
      "d": 94.69333333335817,
      "v": 92
    },
    {
      "midi": 74,
      "hit": false,
      "t": 157266.68799999167,
      "d": 473.46666666687815,
      "v": 120
    },
    {
      "midi": 62,
      "hit": false,
      "t": 157266.68799999167,
      "d": 473.46666666687815,
      "v": 127
    },
    {
      "midi": 68,
      "hit": false,
      "t": 157370.85066665837,
      "d": 75.754666666704,
      "v": 100
    },
    {
      "midi": 32,
      "hit": false,
      "t": 157380.3199999917,
      "d": 94.69333333335817,
      "v": 127
    },
    {
      "midi": 56,
      "hit": false,
      "t": 157380.3199999917,
      "d": 94.69333333335817,
      "v": 110
    },
    {
      "midi": 118,
      "hit": false,
      "t": 157380.3199999917,
      "d": 94.69333333335817,
      "v": 60
    },
    {
      "midi": 42,
      "hit": false,
      "t": 157389.78933332505,
      "d": 94.69333333335817,
      "v": 78
    },
    {
      "midi": 68,
      "hit": false,
      "t": 157484.4826666584,
      "d": 75.754666666704,
      "v": 100
    },
    {
      "midi": 76,
      "hit": false,
      "t": 157484.4826666584,
      "d": 94.69333333338727,
      "v": 110
    },
    {
      "midi": 56,
      "hit": false,
      "t": 157493.95199999175,
      "d": 94.69333333338727,
      "v": 110
    },
    {
      "midi": 44,
      "hit": false,
      "t": 157493.95199999175,
      "d": 94.69333333338727,
      "v": 127
    },
    {
      "midi": 59,
      "hit": false,
      "t": 157493.95199999175,
      "d": 94.69333333338727,
      "v": 100
    },
    {
      "midi": 69,
      "hit": false,
      "t": 157493.95199999175,
      "d": 94.69333333338727,
      "v": 110
    },
    {
      "midi": 118,
      "hit": false,
      "t": 157493.95199999175,
      "d": 94.69333333338727,
      "v": 40
    },
    {
      "midi": 64,
      "hit": false,
      "t": 157503.4213333251,
      "d": 66.28533333336236,
      "v": 110
    },
    {
      "midi": 46,
      "hit": false,
      "t": 157512.89066665844,
      "d": 94.69333333338727,
      "v": 92
    },
    {
      "midi": 64,
      "hit": false,
      "t": 157598.11466665848,
      "d": 94.69333333335817,
      "v": 110
    },
    {
      "midi": 68,
      "hit": false,
      "t": 157607.58399999182,
      "d": 66.28533333336236,
      "v": 110
    },
    {
      "midi": 32,
      "hit": false,
      "t": 157607.58399999182,
      "d": 94.69333333335817,
      "v": 127
    },
    {
      "midi": 69,
      "hit": false,
      "t": 157607.58399999182,
      "d": 94.69333333335817,
      "v": 110
    },
    {
      "midi": 63,
      "hit": false,
      "t": 157607.58399999182,
      "d": 94.69333333335817,
      "v": 80
    },
    {
      "midi": 76,
      "hit": false,
      "t": 157617.05333332517,
      "d": 94.69333333335817,
      "v": 110
    },
    {
      "midi": 68,
      "hit": false,
      "t": 157711.74666665852,
      "d": 75.754666666704,
      "v": 100
    },
    {
      "midi": 76,
      "hit": false,
      "t": 157711.74666665852,
      "d": 94.69333333335817,
      "v": 110
    },
    {
      "midi": 59,
      "hit": false,
      "t": 157721.21599999187,
      "d": 18.938666666683275,
      "v": 70
    },
    {
      "midi": 32,
      "hit": false,
      "t": 157721.21599999187,
      "d": 94.69333333335817,
      "v": 127
    },
    {
      "midi": 56,
      "hit": false,
      "t": 157721.21599999187,
      "d": 94.69333333335817,
      "v": 110
    },
    {
      "midi": 15,
      "hit": false,
      "t": 157721.21599999187,
      "d": 94.69333333335817,
      "v": 100
    },
    {
      "midi": 13,
      "hit": false,
      "t": 157721.21599999187,
      "d": 94.69333333335817,
      "v": 100
    },
    {
      "midi": 10,
      "hit": false,
      "t": 157721.21599999187,
      "d": 94.69333333335817,
      "v": 127
    },
    {
      "midi": 127,
      "hit": false,
      "t": 157721.21599999187,
      "d": 94.69333333335817,
      "v": 60
    },
    {
      "midi": 108,
      "hit": false,
      "t": 157721.21599999187,
      "d": 94.69333333335817,
      "v": 80
    },
    {
      "midi": 105,
      "hit": false,
      "t": 157721.21599999187,
      "d": 94.69333333335817,
      "v": 100
    },
    {
      "midi": 42,
      "hit": false,
      "t": 157721.21599999187,
      "d": 94.69333333335817,
      "v": 92
    },
    {
      "midi": 69,
      "hit": false,
      "t": 157721.21599999187,
      "d": 94.69333333335817,
      "v": 110
    },
    {
      "midi": 118,
      "hit": false,
      "t": 157721.21599999187,
      "d": 94.69333333335817,
      "v": 60
    },
    {
      "midi": 64,
      "hit": false,
      "t": 157730.6853333252,
      "d": 85.22400000001653,
      "v": 110
    },
    {
      "midi": 68,
      "hit": false,
      "t": 157825.37866665857,
      "d": 75.7546666666749,
      "v": 100
    },
    {
      "midi": 64,
      "hit": false,
      "t": 157825.37866665857,
      "d": 94.69333333335817,
      "v": 110
    },
    {
      "midi": 32,
      "hit": false,
      "t": 157834.8479999919,
      "d": 94.69333333335817,
      "v": 127
    },
    {
      "midi": 56,
      "hit": false,
      "t": 157834.8479999919,
      "d": 94.69333333335817,
      "v": 110
    },
    {
      "midi": 69,
      "hit": false,
      "t": 157834.8479999919,
      "d": 94.69333333335817,
      "v": 110
    },
    {
      "midi": 42,
      "hit": false,
      "t": 157844.31733332525,
      "d": 94.69333333335817,
      "v": 78
    },
    {
      "midi": 76,
      "hit": false,
      "t": 157844.31733332525,
      "d": 94.69333333335817,
      "v": 110
    },
    {
      "midi": 72,
      "hit": false,
      "t": 157948.47999999195,
      "d": 56.81599999999162,
      "v": 120
    },
    {
      "midi": 60,
      "hit": false,
      "t": 157948.47999999195,
      "d": 56.81599999999162,
      "v": 110
    },
    {
      "midi": 68,
      "hit": false,
      "t": 157948.47999999195,
      "d": 66.28533333333326,
      "v": 110
    },
    {
      "midi": 56,
      "hit": false,
      "t": 157948.47999999195,
      "d": 94.69333333332906,
      "v": 80
    },
    {
      "midi": 44,
      "hit": false,
      "t": 157948.47999999195,
      "d": 94.69333333332906,
      "v": 127
    },
    {
      "midi": 59,
      "hit": false,
      "t": 157948.47999999195,
      "d": 94.69333333332906,
      "v": 100
    },
    {
      "midi": 118,
      "hit": false,
      "t": 157948.47999999195,
      "d": 94.69333333332906,
      "v": 60
    },
    {
      "midi": 46,
      "hit": false,
      "t": 157967.4186666586,
      "d": 94.69333333335817,
      "v": 92
    },
    {
      "midi": 68,
      "hit": false,
      "t": 158052.64266665862,
      "d": 75.7546666666749,
      "v": 100
    },
    {
      "midi": 62,
      "hit": false,
      "t": 158062.11199999196,
      "d": 75.7546666666749,
      "v": 110
    },
    {
      "midi": 32,
      "hit": false,
      "t": 158062.11199999196,
      "d": 94.69333333332906,
      "v": 127
    },
    {
      "midi": 56,
      "hit": false,
      "t": 158062.11199999196,
      "d": 94.69333333332906,
      "v": 110
    },
    {
      "midi": 74,
      "hit": false,
      "t": 158062.11199999196,
      "d": 94.69333333332906,
      "v": 120
    },
    {
      "midi": 118,
      "hit": false,
      "t": 158062.11199999196,
      "d": 94.69333333332906,
      "v": 40
    },
    {
      "midi": 59,
      "hit": false,
      "t": 158175.74399999197,
      "d": 18.93866666665417,
      "v": 70
    },
    {
      "midi": 67,
      "hit": false,
      "t": 158175.74399999197,
      "d": 66.28533333333326,
      "v": 127
    },
    {
      "midi": 31,
      "hit": false,
      "t": 158175.74399999197,
      "d": 94.69333333332906,
      "v": 127
    },
    {
      "midi": 15,
      "hit": false,
      "t": 158175.74399999197,
      "d": 94.69333333332906,
      "v": 100
    },
    {
      "midi": 13,
      "hit": false,
      "t": 158175.74399999197,
      "d": 94.69333333332906,
      "v": 100
    },
    {
      "midi": 10,
      "hit": false,
      "t": 158175.74399999197,
      "d": 94.69333333332906,
      "v": 127
    },
    {
      "midi": 42,
      "hit": false,
      "t": 158175.74399999197,
      "d": 94.69333333332906,
      "v": 92
    },
    {
      "midi": 62,
      "hit": false,
      "t": 158175.74399999197,
      "d": 426.12000000005355,
      "v": 127
    },
    {
      "midi": 76,
      "hit": false,
      "t": 158175.74399999197,
      "d": 643.9146666667366,
      "v": 120
    },
    {
      "midi": 67,
      "hit": false,
      "t": 158279.90666665864,
      "d": 75.754666666704,
      "v": 100
    },
    {
      "midi": 31,
      "hit": false,
      "t": 158289.375999992,
      "d": 94.69333333335817,
      "v": 127
    },
    {
      "midi": 55,
      "hit": false,
      "t": 158289.375999992,
      "d": 94.69333333335817,
      "v": 110
    },
    {
      "midi": 42,
      "hit": false,
      "t": 158298.84533332533,
      "d": 94.69333333335817,
      "v": 78
    },
    {
      "midi": 67,
      "hit": false,
      "t": 158393.5386666587,
      "d": 75.7546666666749,
      "v": 100
    },
    {
      "midi": 55,
      "hit": false,
      "t": 158403.00799999203,
      "d": 94.69333333332906,
      "v": 110
    },
    {
      "midi": 43,
      "hit": false,
      "t": 158403.00799999203,
      "d": 94.69333333332906,
      "v": 127
    },
    {
      "midi": 59,
      "hit": false,
      "t": 158403.00799999203,
      "d": 94.69333333332906,
      "v": 100
    },
    {
      "midi": 46,
      "hit": false,
      "t": 158421.94666665868,
      "d": 94.69333333335817,
      "v": 92
    },
    {
      "midi": 67,
      "hit": false,
      "t": 158507.1706666587,
      "d": 75.7546666666749,
      "v": 100
    },
    {
      "midi": 31,
      "hit": false,
      "t": 158516.63999999204,
      "d": 94.69333333332906,
      "v": 127
    },
    {
      "midi": 79,
      "hit": false,
      "t": 158516.63999999204,
      "d": 94.69333333332906,
      "v": 90
    },
    {
      "midi": 64,
      "hit": false,
      "t": 158516.63999999204,
      "d": 94.69333333332906,
      "v": 70
    },
    {
      "midi": 67,
      "hit": false,
      "t": 158620.8026666587,
      "d": 75.75466666664579,
      "v": 100
    },
    {
      "midi": 59,
      "hit": false,
      "t": 158630.27199999205,
      "d": 18.93866666665417,
      "v": 70
    },
    {
      "midi": 31,
      "hit": false,
      "t": 158630.27199999205,
      "d": 94.69333333329996,
      "v": 127
    },
    {
      "midi": 55,
      "hit": false,
      "t": 158630.27199999205,
      "d": 94.69333333329996,
      "v": 110
    },
    {
      "midi": 15,
      "hit": false,
      "t": 158630.27199999205,
      "d": 94.69333333329996,
      "v": 100
    },
    {
      "midi": 13,
      "hit": false,
      "t": 158630.27199999205,
      "d": 94.69333333329996,
      "v": 100
    },
    {
      "midi": 10,
      "hit": false,
      "t": 158630.27199999205,
      "d": 94.69333333329996,
      "v": 127
    },
    {
      "midi": 127,
      "hit": false,
      "t": 158630.27199999205,
      "d": 94.69333333329996,
      "v": 60
    },
    {
      "midi": 108,
      "hit": false,
      "t": 158630.27199999205,
      "d": 94.69333333329996,
      "v": 80
    },
    {
      "midi": 105,
      "hit": false,
      "t": 158630.27199999205,
      "d": 94.69333333329996,
      "v": 100
    },
    {
      "midi": 42,
      "hit": false,
      "t": 158630.27199999205,
      "d": 94.69333333329996,
      "v": 92
    },
    {
      "midi": 118,
      "hit": false,
      "t": 158630.27199999205,
      "d": 94.69333333329996,
      "v": 60
    },
    {
      "midi": 63,
      "hit": false,
      "t": 158630.27199999205,
      "d": 94.69333333329996,
      "v": 70
    },
    {
      "midi": 64,
      "hit": false,
      "t": 158630.27199999205,
      "d": 189.38666666665813,
      "v": 127
    },
    {
      "midi": 67,
      "hit": false,
      "t": 158734.4346666587,
      "d": 75.7546666666749,
      "v": 100
    },
    {
      "midi": 31,
      "hit": false,
      "t": 158743.90399999204,
      "d": 94.69333333332906,
      "v": 127
    },
    {
      "midi": 55,
      "hit": false,
      "t": 158743.90399999204,
      "d": 94.69333333332906,
      "v": 110
    },
    {
      "midi": 42,
      "hit": false,
      "t": 158753.37333332538,
      "d": 94.69333333332906,
      "v": 78
    },
    {
      "midi": 67,
      "hit": false,
      "t": 158857.53599999205,
      "d": 66.28533333333326,
      "v": 110
    },
    {
      "midi": 74,
      "hit": false,
      "t": 158857.53599999205,
      "d": 75.7546666666749,
      "v": 120
    },
    {
      "midi": 62,
      "hit": false,
      "t": 158857.53599999205,
      "d": 75.7546666666749,
      "v": 110
    },
    {
      "midi": 55,
      "hit": false,
      "t": 158857.53599999205,
      "d": 94.69333333332906,
      "v": 80
    },
    {
      "midi": 43,
      "hit": false,
      "t": 158857.53599999205,
      "d": 94.69333333332906,
      "v": 127
    },
    {
      "midi": 59,
      "hit": false,
      "t": 158857.53599999205,
      "d": 94.69333333332906,
      "v": 100
    },
    {
      "midi": 46,
      "hit": false,
      "t": 158876.4746666587,
      "d": 94.69333333335817,
      "v": 92
    },
    {
      "midi": 67,
      "hit": false,
      "t": 158961.69866665872,
      "d": 75.7546666666749,
      "v": 100
    },
    {
      "midi": 76,
      "hit": false,
      "t": 158971.16799999206,
      "d": 56.81599999999162,
      "v": 120
    },
    {
      "midi": 64,
      "hit": false,
      "t": 158971.16799999206,
      "d": 56.81599999999162,
      "v": 110
    },
    {
      "midi": 31,
      "hit": false,
      "t": 158971.16799999206,
      "d": 94.69333333335817,
      "v": 127
    },
    {
      "midi": 55,
      "hit": false,
      "t": 158971.16799999206,
      "d": 94.69333333335817,
      "v": 110
    },
    {
      "midi": 118,
      "hit": false,
      "t": 158971.16799999206,
      "d": 94.69333333335817,
      "v": 60
    },
    {
      "midi": 59,
      "hit": false,
      "t": 159084.7999999921,
      "d": 18.93866666665417,
      "v": 70
    },
    {
      "midi": 78,
      "hit": false,
      "t": 159084.7999999921,
      "d": 56.81599999999162,
      "v": 120
    },
    {
      "midi": 66,
      "hit": false,
      "t": 159084.7999999921,
      "d": 56.81599999999162,
      "v": 127
    },
    {
      "midi": 30,
      "hit": false,
      "t": 159084.7999999921,
      "d": 94.69333333332906,
      "v": 127
    },
    {
      "midi": 15,
      "hit": false,
      "t": 159084.7999999921,
      "d": 94.69333333332906,
      "v": 100
    },
    {
      "midi": 13,
      "hit": false,
      "t": 159084.7999999921,
      "d": 94.69333333332906,
      "v": 100
    },
    {
      "midi": 10,
      "hit": false,
      "t": 159084.7999999921,
      "d": 94.69333333332906,
      "v": 127
    },
    {
      "midi": 42,
      "hit": false,
      "t": 159084.7999999921,
      "d": 94.69333333332906,
      "v": 92
    },
    {
      "midi": 66,
      "hit": false,
      "t": 159188.96266665877,
      "d": 75.754666666704,
      "v": 100
    },
    {
      "midi": 59,
      "hit": false,
      "t": 159198.4319999921,
      "d": 18.938666666683275,
      "v": 70
    },
    {
      "midi": 30,
      "hit": false,
      "t": 159198.4319999921,
      "d": 94.69333333335817,
      "v": 127
    },
    {
      "midi": 54,
      "hit": false,
      "t": 159198.4319999921,
      "d": 94.69333333335817,
      "v": 110
    },
    {
      "midi": 118,
      "hit": false,
      "t": 159198.4319999921,
      "d": 94.69333333335817,
      "v": 60
    },
    {
      "midi": 42,
      "hit": false,
      "t": 159207.90133332546,
      "d": 94.69333333335817,
      "v": 78
    },
    {
      "midi": 66,
      "hit": false,
      "t": 159302.5946666588,
      "d": 75.7546666666749,
      "v": 100
    },
    {
      "midi": 79,
      "hit": false,
      "t": 159312.06399999216,
      "d": 56.81599999999162,
      "v": 120
    },
    {
      "midi": 67,
      "hit": false,
      "t": 159312.06399999216,
      "d": 56.81599999999162,
      "v": 110
    },
    {
      "midi": 54,
      "hit": false,
      "t": 159312.06399999216,
      "d": 94.69333333332906,
      "v": 110
    },
    {
      "midi": 42,
      "hit": false,
      "t": 159312.06399999216,
      "d": 94.69333333332906,
      "v": 127
    },
    {
      "midi": 59,
      "hit": false,
      "t": 159312.06399999216,
      "d": 94.69333333332906,
      "v": 100
    },
    {
      "midi": 118,
      "hit": false,
      "t": 159312.06399999216,
      "d": 94.69333333332906,
      "v": 40
    },
    {
      "midi": 46,
      "hit": false,
      "t": 159331.0026666588,
      "d": 94.69333333335817,
      "v": 92
    },
    {
      "midi": 59,
      "hit": false,
      "t": 159425.69599999217,
      "d": 18.93866666665417,
      "v": 70
    },
    {
      "midi": 66,
      "hit": false,
      "t": 159425.69599999217,
      "d": 66.28533333333326,
      "v": 110
    },
    {
      "midi": 30,
      "hit": false,
      "t": 159425.69599999217,
      "d": 94.69333333332906,
      "v": 127
    },
    {
      "midi": 63,
      "hit": false,
      "t": 159425.69599999217,
      "d": 94.69333333332906,
      "v": 80
    },
    {
      "midi": 66,
      "hit": false,
      "t": 159529.85866665884,
      "d": 75.7546666666749,
      "v": 100
    },
    {
      "midi": 59,
      "hit": false,
      "t": 159539.32799999218,
      "d": 18.93866666665417,
      "v": 70
    },
    {
      "midi": 30,
      "hit": false,
      "t": 159539.32799999218,
      "d": 94.69333333332906,
      "v": 127
    },
    {
      "midi": 54,
      "hit": false,
      "t": 159539.32799999218,
      "d": 94.69333333332906,
      "v": 110
    },
    {
      "midi": 15,
      "hit": false,
      "t": 159539.32799999218,
      "d": 94.69333333332906,
      "v": 100
    },
    {
      "midi": 13,
      "hit": false,
      "t": 159539.32799999218,
      "d": 94.69333333332906,
      "v": 100
    },
    {
      "midi": 10,
      "hit": false,
      "t": 159539.32799999218,
      "d": 94.69333333332906,
      "v": 127
    },
    {
      "midi": 127,
      "hit": false,
      "t": 159539.32799999218,
      "d": 94.69333333332906,
      "v": 60
    },
    {
      "midi": 108,
      "hit": false,
      "t": 159539.32799999218,
      "d": 94.69333333332906,
      "v": 80
    },
    {
      "midi": 105,
      "hit": false,
      "t": 159539.32799999218,
      "d": 94.69333333332906,
      "v": 100
    },
    {
      "midi": 42,
      "hit": false,
      "t": 159539.32799999218,
      "d": 94.69333333332906,
      "v": 92
    },
    {
      "midi": 118,
      "hit": false,
      "t": 159539.32799999218,
      "d": 94.69333333332906,
      "v": 60
    },
    {
      "midi": 64,
      "hit": false,
      "t": 159539.32799999218,
      "d": 94.69333333332906,
      "v": 70
    },
    {
      "midi": 69,
      "hit": false,
      "t": 159539.32799999218,
      "d": 189.38666666668723,
      "v": 110
    },
    {
      "midi": 81,
      "hit": false,
      "t": 159539.32799999218,
      "d": 340.896000000037,
      "v": 120
    },
    {
      "midi": 66,
      "hit": false,
      "t": 159643.49066665885,
      "d": 75.7546666666749,
      "v": 100
    },
    {
      "midi": 30,
      "hit": false,
      "t": 159652.9599999922,
      "d": 94.69333333332906,
      "v": 127
    },
    {
      "midi": 54,
      "hit": false,
      "t": 159652.9599999922,
      "d": 94.69333333332906,
      "v": 110
    },
    {
      "midi": 42,
      "hit": false,
      "t": 159662.42933332553,
      "d": 94.69333333332906,
      "v": 78
    },
    {
      "midi": 66,
      "hit": false,
      "t": 159766.5919999922,
      "d": 66.28533333333326,
      "v": 110
    },
    {
      "midi": 54,
      "hit": false,
      "t": 159766.5919999922,
      "d": 94.69333333332906,
      "v": 80
    },
    {
      "midi": 42,
      "hit": false,
      "t": 159766.5919999922,
      "d": 94.69333333332906,
      "v": 127
    },
    {
      "midi": 59,
      "hit": false,
      "t": 159766.5919999922,
      "d": 94.69333333332906,
      "v": 100
    },
    {
      "midi": 15,
      "hit": false,
      "t": 159766.5919999922,
      "d": 94.69333333332906,
      "v": 100
    },
    {
      "midi": 13,
      "hit": false,
      "t": 159766.5919999922,
      "d": 94.69333333332906,
      "v": 100
    },
    {
      "midi": 10,
      "hit": false,
      "t": 159766.5919999922,
      "d": 94.69333333332906,
      "v": 127
    },
    {
      "midi": 118,
      "hit": false,
      "t": 159766.5919999922,
      "d": 94.69333333332906,
      "v": 60
    },
    {
      "midi": 46,
      "hit": false,
      "t": 159785.53066665886,
      "d": 94.69333333335817,
      "v": 92
    },
    {
      "midi": 66,
      "hit": false,
      "t": 159870.75466665888,
      "d": 75.7546666666749,
      "v": 100
    },
    {
      "midi": 30,
      "hit": false,
      "t": 159880.22399999222,
      "d": 94.69333333332906,
      "v": 127
    },
    {
      "midi": 54,
      "hit": false,
      "t": 159880.22399999222,
      "d": 94.69333333332906,
      "v": 110
    },
    {
      "midi": 118,
      "hit": false,
      "t": 159880.22399999222,
      "d": 94.69333333332906,
      "v": 40
    },
    {
      "midi": 83,
      "hit": false,
      "t": 159899.16266665887,
      "d": 94.69333333335817,
      "v": 120
    },
    {
      "midi": 71,
      "hit": false,
      "t": 159899.16266665887,
      "d": 94.69333333335817,
      "v": 110
    },
    {
      "midi": 57,
      "hit": false,
      "t": 159993.85599999223,
      "d": 18.93866666665417,
      "v": 60
    },
    {
      "midi": 65,
      "hit": false,
      "t": 159993.85599999223,
      "d": 66.28533333333326,
      "v": 110
    },
    {
      "midi": 29,
      "hit": false,
      "t": 159993.85599999223,
      "d": 94.69333333332906,
      "v": 127
    },
    {
      "midi": 15,
      "hit": false,
      "t": 159993.85599999223,
      "d": 94.69333333332906,
      "v": 100
    },
    {
      "midi": 13,
      "hit": false,
      "t": 159993.85599999223,
      "d": 94.69333333332906,
      "v": 100
    },
    {
      "midi": 10,
      "hit": false,
      "t": 159993.85599999223,
      "d": 94.69333333332906,
      "v": 127
    },
    {
      "midi": 42,
      "hit": false,
      "t": 159993.85599999223,
      "d": 94.69333333332906,
      "v": 92
    },
    {
      "midi": 84,
      "hit": false,
      "t": 159993.85599999223,
      "d": 871.1786666667904,
      "v": 120
    },
    {
      "midi": 69,
      "hit": false,
      "t": 159993.85599999223,
      "d": 871.1786666667904,
      "v": 127
    },
    {
      "midi": 65,
      "hit": false,
      "t": 160098.0186666589,
      "d": 75.754666666704,
      "v": 100
    },
    {
      "midi": 29,
      "hit": false,
      "t": 160107.48799999224,
      "d": 94.69333333335817,
      "v": 127
    },
    {
      "midi": 53,
      "hit": false,
      "t": 160107.48799999224,
      "d": 94.69333333335817,
      "v": 110
    },
    {
      "midi": 57,
      "hit": false,
      "t": 160107.48799999224,
      "d": 208.3253333333414,
      "v": 90
    },
    {
      "midi": 42,
      "hit": false,
      "t": 160116.95733332558,
      "d": 94.69333333335817,
      "v": 78
    },
    {
      "midi": 65,
      "hit": false,
      "t": 160211.65066665894,
      "d": 75.75466666664579,
      "v": 90
    },
    {
      "midi": 29,
      "hit": false,
      "t": 160221.11999999228,
      "d": 94.69333333329996,
      "v": 127
    },
    {
      "midi": 53,
      "hit": false,
      "t": 160221.11999999228,
      "d": 94.69333333329996,
      "v": 110
    },
    {
      "midi": 72,
      "hit": false,
      "t": 160221.11999999228,
      "d": 94.69333333329996,
      "v": 90
    },
    {
      "midi": 46,
      "hit": false,
      "t": 160240.05866665894,
      "d": 94.69333333332906,
      "v": 92
    },
    {
      "midi": 72,
      "hit": false,
      "t": 160325.28266665892,
      "d": 94.69333333332906,
      "v": 90
    },
    {
      "midi": 60,
      "hit": false,
      "t": 160334.75199999227,
      "d": 56.81599999999162,
      "v": 70
    },
    {
      "midi": 65,
      "hit": false,
      "t": 160334.75199999227,
      "d": 66.28533333333326,
      "v": 90
    },
    {
      "midi": 29,
      "hit": false,
      "t": 160334.75199999227,
      "d": 94.69333333332906,
      "v": 127
    },
    {
      "midi": 64,
      "hit": false,
      "t": 160334.75199999227,
      "d": 94.69333333332906,
      "v": 70
    },
    {
      "midi": 65,
      "hit": false,
      "t": 160438.91466665894,
      "d": 75.7546666666749,
      "v": 90
    },
    {
      "midi": 60,
      "hit": false,
      "t": 160448.38399999228,
      "d": 18.93866666665417,
      "v": 60
    },
    {
      "midi": 29,
      "hit": false,
      "t": 160448.38399999228,
      "d": 94.69333333332906,
      "v": 127
    },
    {
      "midi": 53,
      "hit": false,
      "t": 160448.38399999228,
      "d": 94.69333333332906,
      "v": 110
    },
    {
      "midi": 15,
      "hit": false,
      "t": 160448.38399999228,
      "d": 94.69333333332906,
      "v": 100
    },
    {
      "midi": 13,
      "hit": false,
      "t": 160448.38399999228,
      "d": 94.69333333332906,
      "v": 100
    },
    {
      "midi": 10,
      "hit": false,
      "t": 160448.38399999228,
      "d": 94.69333333332906,
      "v": 127
    },
    {
      "midi": 127,
      "hit": false,
      "t": 160448.38399999228,
      "d": 94.69333333332906,
      "v": 60
    },
    {
      "midi": 108,
      "hit": false,
      "t": 160448.38399999228,
      "d": 94.69333333332906,
      "v": 80
    },
    {
      "midi": 105,
      "hit": false,
      "t": 160448.38399999228,
      "d": 94.69333333332906,
      "v": 100
    },
    {
      "midi": 42,
      "hit": false,
      "t": 160448.38399999228,
      "d": 94.69333333332906,
      "v": 92
    },
    {
      "midi": 72,
      "hit": false,
      "t": 160448.38399999228,
      "d": 94.69333333332906,
      "v": 90
    },
    {
      "midi": 118,
      "hit": false,
      "t": 160448.38399999228,
      "d": 94.69333333332906,
      "v": 60
    },
    {
      "midi": 63,
      "hit": false,
      "t": 160448.38399999228,
      "d": 94.69333333332906,
      "v": 70
    },
    {
      "midi": 72,
      "hit": false,
      "t": 160552.54666665895,
      "d": 94.69333333338727,
      "v": 90
    },
    {
      "midi": 65,
      "hit": false,
      "t": 160562.0159999923,
      "d": 66.28533333336236,
      "v": 90
    },
    {
      "midi": 42,
      "hit": false,
      "t": 160571.48533332563,
      "d": 94.69333333338727,
      "v": 78
    },
    {
      "midi": 65,
      "hit": false,
      "t": 160675.64799999236,
      "d": 66.28533333330415,
      "v": 110
    },
    {
      "midi": 29,
      "hit": false,
      "t": 160675.64799999236,
      "d": 94.69333333329996,
      "v": 127
    },
    {
      "midi": 60,
      "hit": false,
      "t": 160675.64799999236,
      "d": 94.69333333329996,
      "v": 90
    },
    {
      "midi": 46,
      "hit": false,
      "t": 160694.58666665902,
      "d": 94.69333333332906,
      "v": 92
    },
    {
      "midi": 65,
      "hit": false,
      "t": 160779.810666659,
      "d": 75.7546666666749,
      "v": 100
    },
    {
      "midi": 29,
      "hit": false,
      "t": 160789.27999999234,
      "d": 94.69333333332906,
      "v": 127
    },
    {
      "midi": 53,
      "hit": false,
      "t": 160789.27999999234,
      "d": 94.69333333332906,
      "v": 110
    },
    {
      "midi": 118,
      "hit": false,
      "t": 160789.27999999234,
      "d": 94.69333333332906,
      "v": 60
    },
    {
      "midi": 59,
      "hit": false,
      "t": 160902.91199999236,
      "d": 18.93866666665417,
      "v": 60
    },
    {
      "midi": 67,
      "hit": false,
      "t": 160902.91199999236,
      "d": 66.28533333333326,
      "v": 127
    },
    {
      "midi": 31,
      "hit": false,
      "t": 160902.91199999236,
      "d": 94.69333333332906,
      "v": 127
    },
    {
      "midi": 55,
      "hit": false,
      "t": 160902.91199999236,
      "d": 94.69333333332906,
      "v": 110
    },
    {
      "midi": 15,
      "hit": false,
      "t": 160902.91199999236,
      "d": 94.69333333332906,
      "v": 100
    },
    {
      "midi": 13,
      "hit": false,
      "t": 160902.91199999236,
      "d": 94.69333333332906,
      "v": 100
    },
    {
      "midi": 10,
      "hit": false,
      "t": 160902.91199999236,
      "d": 94.69333333332906,
      "v": 127
    },
    {
      "midi": 42,
      "hit": false,
      "t": 160902.91199999236,
      "d": 94.69333333332906,
      "v": 92
    },
    {
      "midi": 62,
      "hit": false,
      "t": 160902.91199999236,
      "d": 208.3253333333705,
      "v": 127
    },
    {
      "midi": 79,
      "hit": false,
      "t": 160902.91199999236,
      "d": 871.178666666965,
      "v": 120
    },
    {
      "midi": 67,
      "hit": false,
      "t": 161007.07466665903,
      "d": 75.754666666704,
      "v": 100
    },
    {
      "midi": 118,
      "hit": false,
      "t": 161016.54399999237,
      "d": 94.69333333335817,
      "v": 60
    },
    {
      "midi": 42,
      "hit": false,
      "t": 161026.0133333257,
      "d": 94.69333333335817,
      "v": 78
    },
    {
      "midi": 74,
      "hit": false,
      "t": 161120.70666665907,
      "d": 94.69333333332906,
      "v": 90
    },
    {
      "midi": 67,
      "hit": false,
      "t": 161130.1759999924,
      "d": 66.28533333333326,
      "v": 127
    },
    {
      "midi": 31,
      "hit": false,
      "t": 161130.1759999924,
      "d": 94.69333333332906,
      "v": 127
    },
    {
      "midi": 105,
      "hit": false,
      "t": 161130.1759999924,
      "d": 94.69333333332906,
      "v": 100
    },
    {
      "midi": 108,
      "hit": false,
      "t": 161130.1759999924,
      "d": 94.69333333332906,
      "v": 80
    },
    {
      "midi": 127,
      "hit": false,
      "t": 161130.1759999924,
      "d": 94.69333333332906,
      "v": 60
    },
    {
      "midi": 118,
      "hit": false,
      "t": 161130.1759999924,
      "d": 94.69333333332906,
      "v": 40
    },
    {
      "midi": 60,
      "hit": false,
      "t": 161130.1759999924,
      "d": 208.3253333333414,
      "v": 127
    },
    {
      "midi": 59,
      "hit": false,
      "t": 161130.1759999924,
      "d": 208.3253333333414,
      "v": 90
    },
    {
      "midi": 62,
      "hit": false,
      "t": 161130.1759999924,
      "d": 208.3253333333414,
      "v": 127
    },
    {
      "midi": 46,
      "hit": false,
      "t": 161149.11466665906,
      "d": 94.69333333335817,
      "v": 92
    },
    {
      "midi": 67,
      "hit": false,
      "t": 161234.33866665908,
      "d": 75.7546666666749,
      "v": 90
    },
    {
      "midi": 74,
      "hit": false,
      "t": 161243.80799999242,
      "d": 94.69333333332906,
      "v": 90
    },
    {
      "midi": 63,
      "hit": false,
      "t": 161243.80799999242,
      "d": 94.69333333332906,
      "v": 80
    },
    {
      "midi": 74,
      "hit": false,
      "t": 161347.9706666591,
      "d": 94.69333333332906,
      "v": 90
    },
    {
      "midi": 62,
      "hit": false,
      "t": 161357.43999999244,
      "d": 18.93866666665417,
      "v": 127
    },
    {
      "midi": 67,
      "hit": false,
      "t": 161357.43999999244,
      "d": 66.28533333333326,
      "v": 127
    },
    {
      "midi": 31,
      "hit": false,
      "t": 161357.43999999244,
      "d": 94.69333333332906,
      "v": 127
    },
    {
      "midi": 71,
      "hit": false,
      "t": 161357.43999999244,
      "d": 94.69333333332906,
      "v": 110
    },
    {
      "midi": 15,
      "hit": false,
      "t": 161357.43999999244,
      "d": 94.69333333332906,
      "v": 100
    },
    {
      "midi": 13,
      "hit": false,
      "t": 161357.43999999244,
      "d": 94.69333333332906,
      "v": 100
    },
    {
      "midi": 10,
      "hit": false,
      "t": 161357.43999999244,
      "d": 94.69333333332906,
      "v": 127
    },
    {
      "midi": 105,
      "hit": false,
      "t": 161357.43999999244,
      "d": 94.69333333332906,
      "v": 100
    },
    {
      "midi": 108,
      "hit": false,
      "t": 161357.43999999244,
      "d": 94.69333333332906,
      "v": 80
    },
    {
      "midi": 127,
      "hit": false,
      "t": 161357.43999999244,
      "d": 94.69333333332906,
      "v": 60
    },
    {
      "midi": 42,
      "hit": false,
      "t": 161357.43999999244,
      "d": 94.69333333332906,
      "v": 92
    },
    {
      "midi": 118,
      "hit": false,
      "t": 161357.43999999244,
      "d": 94.69333333332906,
      "v": 60
    },
    {
      "midi": 64,
      "hit": false,
      "t": 161357.43999999244,
      "d": 94.69333333332906,
      "v": 70
    },
    {
      "midi": 59,
      "hit": false,
      "t": 161357.43999999244,
      "d": 208.3253333333705,
      "v": 127
    },
    {
      "midi": 67,
      "hit": false,
      "t": 161471.07199999245,
      "d": 66.28533333336236,
      "v": 110
    },
    {
      "midi": 31,
      "hit": false,
      "t": 161471.07199999245,
      "d": 94.69333333335817,
      "v": 127
    },
    {
      "midi": 74,
      "hit": false,
      "t": 161471.07199999245,
      "d": 94.69333333335817,
      "v": 90
    },
    {
      "midi": 42,
      "hit": false,
      "t": 161480.5413333258,
      "d": 94.69333333335817,
      "v": 78
    },
    {
      "midi": 67,
      "hit": false,
      "t": 161584.7039999925,
      "d": 56.816000000049826,
      "v": 127
    },
    {
      "midi": 31,
      "hit": false,
      "t": 161584.7039999925,
      "d": 94.69333333341638,
      "v": 127
    },
    {
      "midi": 62,
      "hit": false,
      "t": 161584.7039999925,
      "d": 94.69333333341638,
      "v": 90
    },
    {
      "midi": 105,
      "hit": false,
      "t": 161584.7039999925,
      "d": 94.69333333341638,
      "v": 100
    },
    {
      "midi": 108,
      "hit": false,
      "t": 161584.7039999925,
      "d": 94.69333333341638,
      "v": 80
    },
    {
      "midi": 127,
      "hit": false,
      "t": 161584.7039999925,
      "d": 94.69333333341638,
      "v": 60
    },
    {
      "midi": 118,
      "hit": false,
      "t": 161584.7039999925,
      "d": 94.69333333341638,
      "v": 60
    },
    {
      "midi": 69,
      "hit": false,
      "t": 161584.7039999925,
      "d": 662.8533333335945,
      "v": 127
    },
    {
      "midi": 46,
      "hit": false,
      "t": 161603.64266665917,
      "d": 94.69333333341638,
      "v": 92
    },
    {
      "midi": 67,
      "hit": false,
      "t": 161688.86666665925,
      "d": 75.7546666667331,
      "v": 100
    },
    {
      "midi": 31,
      "hit": false,
      "t": 161698.3359999926,
      "d": 94.69333333341638,
      "v": 127
    },
    {
      "midi": 59,
      "hit": false,
      "t": 161698.3359999926,
      "d": 94.69333333341638,
      "v": 110
    },
    {
      "midi": 105,
      "hit": false,
      "t": 161698.3359999926,
      "d": 94.69333333341638,
      "v": 100
    },
    {
      "midi": 108,
      "hit": false,
      "t": 161698.3359999926,
      "d": 94.69333333341638,
      "v": 80
    },
    {
      "midi": 127,
      "hit": false,
      "t": 161698.3359999926,
      "d": 94.69333333341638,
      "v": 60
    },
    {
      "midi": 118,
      "hit": false,
      "t": 161698.3359999926,
      "d": 94.69333333341638,
      "v": 40
    },
    {
      "midi": 79,
      "hit": false,
      "t": 161811.9679999927,
      "d": 85.22400000001653,
      "v": 70
    },
    {
      "midi": 36,
      "hit": false,
      "t": 161811.9679999927,
      "d": 94.69333333335817,
      "v": 127
    },
    {
      "midi": 15,
      "hit": false,
      "t": 161811.9679999927,
      "d": 94.69333333335817,
      "v": 100
    },
    {
      "midi": 13,
      "hit": false,
      "t": 161811.9679999927,
      "d": 94.69333333335817,
      "v": 100
    },
    {
      "midi": 10,
      "hit": false,
      "t": 161811.9679999927,
      "d": 94.69333333335817,
      "v": 127
    },
    {
      "midi": 42,
      "hit": false,
      "t": 161811.9679999927,
      "d": 94.69333333335817,
      "v": 92
    },
    {
      "midi": 64,
      "hit": false,
      "t": 161811.9679999927,
      "d": 416.6506666667119,
      "v": 100
    },
    {
      "midi": 60,
      "hit": false,
      "t": 161811.9679999927,
      "d": 416.6506666667119,
      "v": 100
    },
    {
      "midi": 57,
      "hit": false,
      "t": 161811.9679999927,
      "d": 909.056000000186,
      "v": 80
    },
    {
      "midi": 55,
      "hit": false,
      "t": 161821.43733332603,
      "d": 416.6506666667119,
      "v": 100
    },
    {
      "midi": 52,
      "hit": false,
      "t": 161821.43733332603,
      "d": 416.6506666667119,
      "v": 100
    },
    {
      "midi": 48,
      "hit": false,
      "t": 161830.90666665937,
      "d": 416.6506666667119,
      "v": 100
    },
    {
      "midi": 43,
      "hit": false,
      "t": 161830.90666665937,
      "d": 416.6506666667119,
      "v": 100
    },
    {
      "midi": 76,
      "hit": false,
      "t": 161925.5999999927,
      "d": 85.22400000001653,
      "v": 70
    },
    {
      "midi": 36,
      "hit": false,
      "t": 161925.5999999927,
      "d": 94.69333333335817,
      "v": 127
    },
    {
      "midi": 42,
      "hit": false,
      "t": 161935.06933332604,
      "d": 94.69333333335817,
      "v": 78
    },
    {
      "midi": 72,
      "hit": false,
      "t": 162039.23199999274,
      "d": 85.22399999998743,
      "v": 70
    },
    {
      "midi": 36,
      "hit": false,
      "t": 162039.23199999274,
      "d": 94.69333333332906,
      "v": 127
    },
    {
      "midi": 46,
      "hit": false,
      "t": 162058.1706666594,
      "d": 94.69333333332906,
      "v": 92
    },
    {
      "midi": 76,
      "hit": false,
      "t": 162152.86399999273,
      "d": 85.22400000001653,
      "v": 70
    },
    {
      "midi": 36,
      "hit": false,
      "t": 162152.86399999273,
      "d": 94.69333333335817,
      "v": 127
    },
    {
      "midi": 79,
      "hit": false,
      "t": 162266.49599999277,
      "d": 85.22399999998743,
      "v": 70
    },
    {
      "midi": 36,
      "hit": false,
      "t": 162266.49599999277,
      "d": 94.69333333332906,
      "v": 127
    },
    {
      "midi": 15,
      "hit": false,
      "t": 162266.49599999277,
      "d": 94.69333333332906,
      "v": 100
    },
    {
      "midi": 13,
      "hit": false,
      "t": 162266.49599999277,
      "d": 94.69333333332906,
      "v": 100
    },
    {
      "midi": 10,
      "hit": false,
      "t": 162266.49599999277,
      "d": 94.69333333332906,
      "v": 127
    },
    {
      "midi": 105,
      "hit": false,
      "t": 162266.49599999277,
      "d": 94.69333333332906,
      "v": 80
    },
    {
      "midi": 127,
      "hit": false,
      "t": 162266.49599999277,
      "d": 94.69333333332906,
      "v": 60
    },
    {
      "midi": 42,
      "hit": false,
      "t": 162266.49599999277,
      "d": 94.69333333332906,
      "v": 92
    },
    {
      "midi": 118,
      "hit": false,
      "t": 162266.49599999277,
      "d": 94.69333333332906,
      "v": 60
    },
    {
      "midi": 43,
      "hit": false,
      "t": 162266.49599999277,
      "d": 198.85599999999977,
      "v": 115
    },
    {
      "midi": 48,
      "hit": false,
      "t": 162266.49599999277,
      "d": 198.85599999999977,
      "v": 115
    },
    {
      "midi": 52,
      "hit": false,
      "t": 162275.9653333261,
      "d": 198.85599999999977,
      "v": 115
    },
    {
      "midi": 55,
      "hit": false,
      "t": 162275.9653333261,
      "d": 198.85599999999977,
      "v": 115
    },
    {
      "midi": 60,
      "hit": false,
      "t": 162285.43466665945,
      "d": 94.69333333329996,
      "v": 115
    },
    {
      "midi": 64,
      "hit": false,
      "t": 162285.43466665945,
      "d": 198.85599999999977,
      "v": 115
    },
    {
      "midi": 84,
      "hit": false,
      "t": 162380.12799999275,
      "d": 85.22400000001653,
      "v": 70
    },
    {
      "midi": 42,
      "hit": false,
      "t": 162389.5973333261,
      "d": 94.69333333335817,
      "v": 78
    },
    {
      "midi": 60,
      "hit": false,
      "t": 162484.29066665945,
      "d": 9.469333333341638,
      "v": 100
    },
    {
      "midi": 64,
      "hit": false,
      "t": 162484.29066665945,
      "d": 9.469333333341638,
      "v": 100
    },
    {
      "midi": 64,
      "hit": false,
      "t": 162493.7599999928,
      "d": 18.938666666683275,
      "v": 100
    },
    {
      "midi": 60,
      "hit": false,
      "t": 162493.7599999928,
      "d": 18.938666666683275,
      "v": 100
    },
    {
      "midi": 88,
      "hit": false,
      "t": 162493.7599999928,
      "d": 85.22400000004563,
      "v": 70
    },
    {
      "midi": 36,
      "hit": false,
      "t": 162493.7599999928,
      "d": 94.69333333338727,
      "v": 127
    },
    {
      "midi": 55,
      "hit": false,
      "t": 162503.22933332613,
      "d": 18.938666666683275,
      "v": 100
    },
    {
      "midi": 52,
      "hit": false,
      "t": 162503.22933332613,
      "d": 18.938666666683275,
      "v": 100
    },
    {
      "midi": 48,
      "hit": false,
      "t": 162512.69866665947,
      "d": 18.938666666683275,
      "v": 100
    },
    {
      "midi": 43,
      "hit": false,
      "t": 162512.69866665947,
      "d": 18.938666666683275,
      "v": 100
    },
    {
      "midi": 46,
      "hit": false,
      "t": 162512.69866665947,
      "d": 94.69333333338727,
      "v": 92
    },
    {
      "midi": 91,
      "hit": false,
      "t": 162607.39199999286,
      "d": 85.22400000001653,
      "v": 70
    },
    {
      "midi": 36,
      "hit": false,
      "t": 162607.39199999286,
      "d": 94.69333333335817,
      "v": 127
    },
    {
      "midi": 118,
      "hit": false,
      "t": 162607.39199999286,
      "d": 94.69333333335817,
      "v": 60
    },
    {
      "midi": 43,
      "hit": false,
      "t": 162607.39199999286,
      "d": 208.3253333333414,
      "v": 105
    },
    {
      "midi": 48,
      "hit": false,
      "t": 162607.39199999286,
      "d": 208.3253333333414,
      "v": 105
    },
    {
      "midi": 52,
      "hit": false,
      "t": 162616.8613333262,
      "d": 208.3253333333414,
      "v": 105
    },
    {
      "midi": 55,
      "hit": false,
      "t": 162616.8613333262,
      "d": 208.3253333333414,
      "v": 105
    },
    {
      "midi": 60,
      "hit": false,
      "t": 162626.33066665955,
      "d": 208.3253333333414,
      "v": 105
    },
    {
      "midi": 64,
      "hit": false,
      "t": 162626.33066665955,
      "d": 208.3253333333414,
      "v": 105
    },
    {
      "midi": 96,
      "hit": false,
      "t": 162721.02399999287,
      "d": 85.22399999998743,
      "v": 70
    },
    {
      "midi": 36,
      "hit": false,
      "t": 162721.02399999287,
      "d": 94.69333333332906,
      "v": 127
    },
    {
      "midi": 15,
      "hit": false,
      "t": 162721.02399999287,
      "d": 94.69333333332906,
      "v": 100
    },
    {
      "midi": 13,
      "hit": false,
      "t": 162721.02399999287,
      "d": 94.69333333332906,
      "v": 100
    },
    {
      "midi": 10,
      "hit": false,
      "t": 162721.02399999287,
      "d": 94.69333333332906,
      "v": 127
    },
    {
      "midi": 42,
      "hit": false,
      "t": 162721.02399999287,
      "d": 94.69333333332906,
      "v": 92
    },
    {
      "midi": 64,
      "hit": false,
      "t": 162834.6559999929,
      "d": 18.938666666683275,
      "v": 105
    },
    {
      "midi": 60,
      "hit": false,
      "t": 162834.6559999929,
      "d": 18.938666666683275,
      "v": 105
    },
    {
      "midi": 100,
      "hit": false,
      "t": 162834.6559999929,
      "d": 85.22400000004563,
      "v": 70
    },
    {
      "midi": 118,
      "hit": false,
      "t": 162834.6559999929,
      "d": 94.69333333338727,
      "v": 60
    },
    {
      "midi": 55,
      "hit": false,
      "t": 162844.12533332623,
      "d": 18.938666666683275,
      "v": 105
    },
    {
      "midi": 52,
      "hit": false,
      "t": 162844.12533332623,
      "d": 18.938666666683275,
      "v": 105
    },
    {
      "midi": 42,
      "hit": false,
      "t": 162844.12533332623,
      "d": 94.69333333338727,
      "v": 78
    },
    {
      "midi": 48,
      "hit": false,
      "t": 162853.59466665957,
      "d": 18.938666666683275,
      "v": 105
    },
    {
      "midi": 43,
      "hit": false,
      "t": 162853.59466665957,
      "d": 18.938666666683275,
      "v": 105
    },
    {
      "midi": 103,
      "hit": false,
      "t": 162948.28799999296,
      "d": 85.22400000001653,
      "v": 70
    },
    {
      "midi": 36,
      "hit": false,
      "t": 162948.28799999296,
      "d": 94.69333333335817,
      "v": 127
    },
    {
      "midi": 118,
      "hit": false,
      "t": 162948.28799999296,
      "d": 94.69333333335817,
      "v": 40
    },
    {
      "midi": 43,
      "hit": false,
      "t": 162948.28799999296,
      "d": 198.85599999999977,
      "v": 105
    },
    {
      "midi": 48,
      "hit": false,
      "t": 162948.28799999296,
      "d": 198.85599999999977,
      "v": 105
    },
    {
      "midi": 71,
      "hit": false,
      "t": 162948.28799999296,
      "d": 340.896000000037,
      "v": 127
    },
    {
      "midi": 52,
      "hit": false,
      "t": 162957.7573333263,
      "d": 198.85599999999977,
      "v": 105
    },
    {
      "midi": 55,
      "hit": false,
      "t": 162957.7573333263,
      "d": 198.85599999999977,
      "v": 105
    },
    {
      "midi": 46,
      "hit": false,
      "t": 162967.22666665964,
      "d": 94.69333333332906,
      "v": 92
    },
    {
      "midi": 60,
      "hit": false,
      "t": 162967.22666665964,
      "d": 198.85599999999977,
      "v": 105
    },
    {
      "midi": 64,
      "hit": false,
      "t": 162967.22666665964,
      "d": 198.85599999999977,
      "v": 105
    },
    {
      "midi": 100,
      "hit": false,
      "t": 163061.91999999297,
      "d": 85.22399999998743,
      "v": 70
    },
    {
      "midi": 63,
      "hit": false,
      "t": 163061.91999999297,
      "d": 94.69333333332906,
      "v": 80
    },
    {
      "midi": 60,
      "hit": false,
      "t": 163166.08266665964,
      "d": 9.469333333341638,
      "v": 110
    },
    {
      "midi": 64,
      "hit": false,
      "t": 163166.08266665964,
      "d": 9.469333333341638,
      "v": 110
    },
    {
      "midi": 96,
      "hit": false,
      "t": 163175.55199999298,
      "d": 85.22400000001653,
      "v": 70
    },
    {
      "midi": 36,
      "hit": false,
      "t": 163175.55199999298,
      "d": 94.69333333335817,
      "v": 127
    },
    {
      "midi": 15,
      "hit": false,
      "t": 163175.55199999298,
      "d": 94.69333333335817,
      "v": 100
    },
    {
      "midi": 13,
      "hit": false,
      "t": 163175.55199999298,
      "d": 94.69333333335817,
      "v": 100
    },
    {
      "midi": 10,
      "hit": false,
      "t": 163175.55199999298,
      "d": 94.69333333335817,
      "v": 127
    },
    {
      "midi": 105,
      "hit": false,
      "t": 163175.55199999298,
      "d": 94.69333333335817,
      "v": 80
    },
    {
      "midi": 127,
      "hit": false,
      "t": 163175.55199999298,
      "d": 94.69333333335817,
      "v": 60
    },
    {
      "midi": 42,
      "hit": false,
      "t": 163175.55199999298,
      "d": 94.69333333335817,
      "v": 92
    },
    {
      "midi": 118,
      "hit": false,
      "t": 163175.55199999298,
      "d": 94.69333333335817,
      "v": 60
    },
    {
      "midi": 64,
      "hit": false,
      "t": 163175.55199999298,
      "d": 94.69333333335817,
      "v": 80
    },
    {
      "midi": 60,
      "hit": false,
      "t": 163175.55199999298,
      "d": 416.6506666666828,
      "v": 115
    },
    {
      "midi": 55,
      "hit": false,
      "t": 163185.02133332632,
      "d": 416.6506666666828,
      "v": 115
    },
    {
      "midi": 52,
      "hit": false,
      "t": 163185.02133332632,
      "d": 416.6506666666828,
      "v": 115
    },
    {
      "midi": 48,
      "hit": false,
      "t": 163194.49066665967,
      "d": 416.6506666666828,
      "v": 115
    },
    {
      "midi": 43,
      "hit": false,
      "t": 163194.49066665967,
      "d": 416.6506666666828,
      "v": 115
    },
    {
      "midi": 91,
      "hit": false,
      "t": 163289.183999993,
      "d": 85.22400000001653,
      "v": 70
    },
    {
      "midi": 36,
      "hit": false,
      "t": 163289.183999993,
      "d": 94.69333333335817,
      "v": 127
    },
    {
      "midi": 72,
      "hit": false,
      "t": 163289.183999993,
      "d": 303.01866666667047,
      "v": 127
    },
    {
      "midi": 42,
      "hit": false,
      "t": 163298.65333332634,
      "d": 94.69333333335817,
      "v": 78
    },
    {
      "midi": 88,
      "hit": false,
      "t": 163402.81599999304,
      "d": 85.22399999998743,
      "v": 70
    },
    {
      "midi": 36,
      "hit": false,
      "t": 163402.81599999304,
      "d": 94.69333333332906,
      "v": 127
    },
    {
      "midi": 118,
      "hit": false,
      "t": 163402.81599999304,
      "d": 94.69333333332906,
      "v": 60
    },
    {
      "midi": 46,
      "hit": false,
      "t": 163421.7546666597,
      "d": 94.69333333332906,
      "v": 92
    },
    {
      "midi": 84,
      "hit": false,
      "t": 163516.44799999302,
      "d": 85.22399999998743,
      "v": 70
    },
    {
      "midi": 118,
      "hit": false,
      "t": 163516.44799999302,
      "d": 94.69333333332906,
      "v": 40
    },
    {
      "midi": 78,
      "hit": false,
      "t": 163630.07999999303,
      "d": 85.22400000001653,
      "v": 70
    },
    {
      "midi": 35,
      "hit": false,
      "t": 163630.07999999303,
      "d": 94.69333333335817,
      "v": 127
    },
    {
      "midi": 15,
      "hit": false,
      "t": 163630.07999999303,
      "d": 94.69333333335817,
      "v": 100
    },
    {
      "midi": 13,
      "hit": false,
      "t": 163630.07999999303,
      "d": 94.69333333335817,
      "v": 100
    },
    {
      "midi": 10,
      "hit": false,
      "t": 163630.07999999303,
      "d": 94.69333333335817,
      "v": 127
    },
    {
      "midi": 59,
      "hit": false,
      "t": 163630.07999999303,
      "d": 416.6506666666828,
      "v": 100
    },
    {
      "midi": 54,
      "hit": false,
      "t": 163630.07999999303,
      "d": 416.6506666666828,
      "v": 100
    },
    {
      "midi": 50,
      "hit": false,
      "t": 163639.54933332637,
      "d": 416.6506666666828,
      "v": 100
    },
    {
      "midi": 47,
      "hit": false,
      "t": 163639.54933332637,
      "d": 416.6506666666828,
      "v": 100
    },
    {
      "midi": 42,
      "hit": false,
      "t": 163649.01866665971,
      "d": 75.7546666666749,
      "v": 100
    },
    {
      "midi": 74,
      "hit": false,
      "t": 163743.71199999304,
      "d": 85.22400000001653,
      "v": 70
    },
    {
      "midi": 35,
      "hit": false,
      "t": 163743.71199999304,
      "d": 94.69333333335817,
      "v": 127
    },
    {
      "midi": 42,
      "hit": false,
      "t": 163753.18133332639,
      "d": 94.69333333335817,
      "v": 78
    },
    {
      "midi": 71,
      "hit": false,
      "t": 163857.34399999309,
      "d": 85.22399999998743,
      "v": 70
    },
    {
      "midi": 35,
      "hit": false,
      "t": 163857.34399999309,
      "d": 94.69333333332906,
      "v": 127
    },
    {
      "midi": 46,
      "hit": false,
      "t": 163876.28266665974,
      "d": 94.69333333332906,
      "v": 92
    },
    {
      "midi": 74,
      "hit": false,
      "t": 163970.97599999307,
      "d": 85.22399999998743,
      "v": 70
    },
    {
      "midi": 35,
      "hit": false,
      "t": 163970.97599999307,
      "d": 94.69333333332906,
      "v": 127
    },
    {
      "midi": 79,
      "hit": false,
      "t": 164084.60799999308,
      "d": 85.22400000001653,
      "v": 70
    },
    {
      "midi": 35,
      "hit": false,
      "t": 164084.60799999308,
      "d": 94.69333333335817,
      "v": 127
    },
    {
      "midi": 15,
      "hit": false,
      "t": 164084.60799999308,
      "d": 94.69333333335817,
      "v": 100
    },
    {
      "midi": 13,
      "hit": false,
      "t": 164084.60799999308,
      "d": 94.69333333335817,
      "v": 100
    },
    {
      "midi": 10,
      "hit": false,
      "t": 164084.60799999308,
      "d": 94.69333333335817,
      "v": 127
    },
    {
      "midi": 105,
      "hit": false,
      "t": 164084.60799999308,
      "d": 94.69333333335817,
      "v": 80
    },
    {
      "midi": 127,
      "hit": false,
      "t": 164084.60799999308,
      "d": 94.69333333335817,
      "v": 60
    },
    {
      "midi": 42,
      "hit": false,
      "t": 164084.60799999308,
      "d": 94.69333333335817,
      "v": 100
    },
    {
      "midi": 118,
      "hit": false,
      "t": 164084.60799999308,
      "d": 94.69333333335817,
      "v": 60
    },
    {
      "midi": 47,
      "hit": false,
      "t": 164084.60799999308,
      "d": 198.85600000002887,
      "v": 100
    },
    {
      "midi": 50,
      "hit": false,
      "t": 164094.07733332642,
      "d": 198.85600000002887,
      "v": 100
    },
    {
      "midi": 54,
      "hit": false,
      "t": 164094.07733332642,
      "d": 198.85600000002887,
      "v": 100
    },
    {
      "midi": 59,
      "hit": false,
      "t": 164103.54666665976,
      "d": 198.85600000002887,
      "v": 100
    },
    {
      "midi": 83,
      "hit": false,
      "t": 164198.2399999931,
      "d": 85.22400000001653,
      "v": 70
    },
    {
      "midi": 42,
      "hit": false,
      "t": 164207.70933332643,
      "d": 75.7546666666749,
      "v": 78
    },
    {
      "midi": 59,
      "hit": false,
      "t": 164302.4026666598,
      "d": 9.469333333341638,
      "v": 100
    },
    {
      "midi": 59,
      "hit": false,
      "t": 164311.87199999313,
      "d": 85.22400000001653,
      "v": 115
    },
    {
      "midi": 54,
      "hit": false,
      "t": 164311.87199999313,
      "d": 85.22400000001653,
      "v": 115
    },
    {
      "midi": 86,
      "hit": false,
      "t": 164311.87199999313,
      "d": 85.22400000001653,
      "v": 70
    },
    {
      "midi": 35,
      "hit": false,
      "t": 164311.87199999313,
      "d": 94.69333333335817,
      "v": 127
    },
    {
      "midi": 50,
      "hit": false,
      "t": 164321.34133332648,
      "d": 85.22400000001653,
      "v": 115
    },
    {
      "midi": 47,
      "hit": false,
      "t": 164321.34133332648,
      "d": 85.22400000001653,
      "v": 115
    },
    {
      "midi": 42,
      "hit": false,
      "t": 164330.81066665982,
      "d": 85.22400000001653,
      "v": 115
    },
    {
      "midi": 46,
      "hit": false,
      "t": 164330.81066665982,
      "d": 94.69333333335817,
      "v": 92
    },
    {
      "midi": 42,
      "hit": false,
      "t": 164416.03466665983,
      "d": 9.469333333341638,
      "v": 100
    },
    {
      "midi": 42,
      "hit": false,
      "t": 164425.50399999318,
      "d": 18.938666666683275,
      "v": 115
    },
    {
      "midi": 47,
      "hit": false,
      "t": 164425.50399999318,
      "d": 18.938666666683275,
      "v": 115
    },
    {
      "midi": 90,
      "hit": false,
      "t": 164425.50399999318,
      "d": 85.22400000004563,
      "v": 70
    },
    {
      "midi": 35,
      "hit": false,
      "t": 164425.50399999318,
      "d": 94.69333333338727,
      "v": 127
    },
    {
      "midi": 118,
      "hit": false,
      "t": 164425.50399999318,
      "d": 94.69333333338727,
      "v": 60
    },
    {
      "midi": 50,
      "hit": false,
      "t": 164434.97333332652,
      "d": 18.938666666683275,
      "v": 115
    },
    {
      "midi": 54,
      "hit": false,
      "t": 164434.97333332652,
      "d": 18.938666666683275,
      "v": 115
    },
    {
      "midi": 59,
      "hit": false,
      "t": 164444.44266665986,
      "d": 18.938666666683275,
      "v": 115
    },
    {
      "midi": 59,
      "hit": false,
      "t": 164539.13599999322,
      "d": 18.938666666683275,
      "v": 115
    },
    {
      "midi": 54,
      "hit": false,
      "t": 164539.13599999322,
      "d": 18.938666666683275,
      "v": 115
    },
    {
      "midi": 95,
      "hit": false,
      "t": 164539.13599999322,
      "d": 85.22400000001653,
      "v": 70
    },
    {
      "midi": 35,
      "hit": false,
      "t": 164539.13599999322,
      "d": 94.69333333335817,
      "v": 127
    },
    {
      "midi": 15,
      "hit": false,
      "t": 164539.13599999322,
      "d": 94.69333333335817,
      "v": 100
    },
    {
      "midi": 13,
      "hit": false,
      "t": 164539.13599999322,
      "d": 94.69333333335817,
      "v": 100
    },
    {
      "midi": 10,
      "hit": false,
      "t": 164539.13599999322,
      "d": 94.69333333335817,
      "v": 127
    },
    {
      "midi": 50,
      "hit": false,
      "t": 164548.60533332656,
      "d": 18.938666666683275,
      "v": 115
    },
    {
      "midi": 47,
      "hit": false,
      "t": 164548.60533332656,
      "d": 18.938666666683275,
      "v": 115
    },
    {
      "midi": 42,
      "hit": false,
      "t": 164558.0746666599,
      "d": 18.938666666683275,
      "v": 115
    },
    {
      "midi": 98,
      "hit": false,
      "t": 164652.76799999323,
      "d": 85.22400000001653,
      "v": 70
    },
    {
      "midi": 118,
      "hit": false,
      "t": 164652.76799999323,
      "d": 94.69333333335817,
      "v": 60
    },
    {
      "midi": 47,
      "hit": false,
      "t": 164652.76799999323,
      "d": 312.487999999983,
      "v": 90
    },
    {
      "midi": 42,
      "hit": false,
      "t": 164662.23733332657,
      "d": 94.69333333335817,
      "v": 78
    },
    {
      "midi": 50,
      "hit": false,
      "t": 164662.23733332657,
      "d": 312.487999999983,
      "v": 90
    },
    {
      "midi": 54,
      "hit": false,
      "t": 164662.23733332657,
      "d": 312.487999999983,
      "v": 90
    },
    {
      "midi": 59,
      "hit": false,
      "t": 164671.7066666599,
      "d": 312.487999999983,
      "v": 90
    },
    {
      "midi": 102,
      "hit": false,
      "t": 164766.39999999327,
      "d": 85.22399999995832,
      "v": 70
    },
    {
      "midi": 35,
      "hit": false,
      "t": 164766.39999999327,
      "d": 94.69333333329996,
      "v": 127
    },
    {
      "midi": 118,
      "hit": false,
      "t": 164766.39999999327,
      "d": 94.69333333329996,
      "v": 40
    },
    {
      "midi": 46,
      "hit": false,
      "t": 164785.33866665993,
      "d": 94.69333333329996,
      "v": 92
    },
    {
      "midi": 77,
      "hit": false,
      "t": 164823.21599999323,
      "d": 170.44800000000396,
      "v": 70
    },
    {
      "midi": 98,
      "hit": false,
      "t": 164880.03199999323,
      "d": 85.22399999998743,
      "v": 70
    },
    {
      "midi": 63,
      "hit": false,
      "t": 164880.03199999323,
      "d": 94.69333333332906,
      "v": 80
    },
    {
      "midi": 59,
      "hit": false,
      "t": 164984.1946666599,
      "d": 9.469333333341638,
      "v": 110
    },
    {
      "midi": 95,
      "hit": false,
      "t": 164993.66399999324,
      "d": 85.22400000001653,
      "v": 70
    },
    {
      "midi": 35,
      "hit": false,
      "t": 164993.66399999324,
      "d": 94.69333333335817,
      "v": 127
    },
    {
      "midi": 15,
      "hit": false,
      "t": 164993.66399999324,
      "d": 94.69333333335817,
      "v": 100
    },
    {
      "midi": 13,
      "hit": false,
      "t": 164993.66399999324,
      "d": 94.69333333335817,
      "v": 100
    },
    {
      "midi": 10,
      "hit": false,
      "t": 164993.66399999324,
      "d": 94.69333333335817,
      "v": 127
    },
    {
      "midi": 105,
      "hit": false,
      "t": 164993.66399999324,
      "d": 94.69333333335817,
      "v": 80
    },
    {
      "midi": 127,
      "hit": false,
      "t": 164993.66399999324,
      "d": 94.69333333335817,
      "v": 60
    },
    {
      "midi": 118,
      "hit": false,
      "t": 164993.66399999324,
      "d": 94.69333333335817,
      "v": 60
    },
    {
      "midi": 64,
      "hit": false,
      "t": 164993.66399999324,
      "d": 94.69333333335817,
      "v": 80
    },
    {
      "midi": 76,
      "hit": false,
      "t": 164993.66399999324,
      "d": 160.97866666669142,
      "v": 70
    },
    {
      "midi": 59,
      "hit": false,
      "t": 164993.66399999324,
      "d": 416.6506666667119,
      "v": 110
    },
    {
      "midi": 54,
      "hit": false,
      "t": 164993.66399999324,
      "d": 416.6506666667119,
      "v": 110
    },
    {
      "midi": 50,
      "hit": false,
      "t": 165003.13333332658,
      "d": 416.6506666667119,
      "v": 110
    },
    {
      "midi": 47,
      "hit": false,
      "t": 165003.13333332658,
      "d": 416.6506666667119,
      "v": 110
    },
    {
      "midi": 42,
      "hit": false,
      "t": 165012.60266665992,
      "d": 75.7546666666749,
      "v": 110
    },
    {
      "midi": 90,
      "hit": false,
      "t": 165107.29599999325,
      "d": 85.22400000001653,
      "v": 70
    },
    {
      "midi": 33,
      "hit": false,
      "t": 165107.29599999325,
      "d": 94.69333333335817,
      "v": 127
    },
    {
      "midi": 42,
      "hit": false,
      "t": 165116.7653333266,
      "d": 94.69333333335817,
      "v": 78
    },
    {
      "midi": 77,
      "hit": false,
      "t": 165145.1733333266,
      "d": 160.97866666669142,
      "v": 127
    },
    {
      "midi": 86,
      "hit": false,
      "t": 165220.9279999933,
      "d": 85.22399999998743,
      "v": 70
    },
    {
      "midi": 35,
      "hit": false,
      "t": 165220.9279999933,
      "d": 94.69333333332906,
      "v": 127
    },
    {
      "midi": 15,
      "hit": false,
      "t": 165220.9279999933,
      "d": 94.69333333332906,
      "v": 100
    },
    {
      "midi": 13,
      "hit": false,
      "t": 165220.9279999933,
      "d": 94.69333333332906,
      "v": 100
    },
    {
      "midi": 10,
      "hit": false,
      "t": 165220.9279999933,
      "d": 94.69333333332906,
      "v": 127
    },
    {
      "midi": 118,
      "hit": false,
      "t": 165220.9279999933,
      "d": 94.69333333332906,
      "v": 60
    },
    {
      "midi": 46,
      "hit": false,
      "t": 165239.86666665995,
      "d": 94.69333333332906,
      "v": 92
    },
    {
      "midi": 79,
      "hit": false,
      "t": 165296.68266665994,
      "d": 160.97866666672053,
      "v": 127
    },
    {
      "midi": 83,
      "hit": false,
      "t": 165334.55999999327,
      "d": 85.22400000001653,
      "v": 70
    },
    {
      "midi": 29,
      "hit": false,
      "t": 165334.55999999327,
      "d": 94.69333333335817,
      "v": 127
    },
    {
      "midi": 118,
      "hit": false,
      "t": 165334.55999999327,
      "d": 94.69333333335817,
      "v": 40
    },
    {
      "midi": 77,
      "hit": false,
      "t": 165448.19199999332,
      "d": 85.22400000001653,
      "v": 70
    },
    {
      "midi": 33,
      "hit": false,
      "t": 165448.19199999332,
      "d": 94.69333333335817,
      "v": 127
    },
    {
      "midi": 15,
      "hit": false,
      "t": 165448.19199999332,
      "d": 94.69333333335817,
      "v": 100
    },
    {
      "midi": 13,
      "hit": false,
      "t": 165448.19199999332,
      "d": 94.69333333335817,
      "v": 100
    },
    {
      "midi": 10,
      "hit": false,
      "t": 165448.19199999332,
      "d": 94.69333333335817,
      "v": 127
    },
    {
      "midi": 42,
      "hit": false,
      "t": 165448.19199999332,
      "d": 94.69333333335817,
      "v": 92
    },
    {
      "midi": 76,
      "hit": false,
      "t": 165448.19199999332,
      "d": 236.73333333345363,
      "v": 127
    },
    {
      "midi": 60,
      "hit": false,
      "t": 165448.19199999332,
      "d": 416.6506666667992,
      "v": 100
    },
    {
      "midi": 57,
      "hit": false,
      "t": 165448.19199999332,
      "d": 416.6506666667992,
      "v": 100
    },
    {
      "midi": 53,
      "hit": false,
      "t": 165457.66133332666,
      "d": 416.6506666667992,
      "v": 100
    },
    {
      "midi": 45,
      "hit": false,
      "t": 165457.66133332666,
      "d": 416.6506666667992,
      "v": 100
    },
    {
      "midi": 41,
      "hit": false,
      "t": 165467.13066666,
      "d": 416.6506666667992,
      "v": 100
    },
    {
      "midi": 72,
      "hit": false,
      "t": 165561.82399999336,
      "d": 85.22400000004563,
      "v": 70
    },
    {
      "midi": 33,
      "hit": false,
      "t": 165561.82399999336,
      "d": 94.69333333338727,
      "v": 127
    },
    {
      "midi": 42,
      "hit": false,
      "t": 165571.2933333267,
      "d": 94.69333333338727,
      "v": 78
    },
    {
      "midi": 69,
      "hit": false,
      "t": 165675.45599999343,
      "d": 85.22400000001653,
      "v": 70
    },
    {
      "midi": 33,
      "hit": false,
      "t": 165675.45599999343,
      "d": 94.69333333335817,
      "v": 127
    },
    {
      "midi": 46,
      "hit": false,
      "t": 165694.3946666601,
      "d": 94.69333333332906,
      "v": 92
    },
    {
      "midi": 72,
      "hit": false,
      "t": 165789.08799999344,
      "d": 85.22400000001653,
      "v": 70
    },
    {
      "midi": 33,
      "hit": false,
      "t": 165789.08799999344,
      "d": 94.69333333335817,
      "v": 127
    },
    {
      "midi": 77,
      "hit": false,
      "t": 165902.71999999348,
      "d": 85.22400000001653,
      "v": 70
    },
    {
      "midi": 33,
      "hit": false,
      "t": 165902.71999999348,
      "d": 94.69333333335817,
      "v": 127
    },
    {
      "midi": 15,
      "hit": false,
      "t": 165902.71999999348,
      "d": 94.69333333335817,
      "v": 100
    },
    {
      "midi": 13,
      "hit": false,
      "t": 165902.71999999348,
      "d": 94.69333333335817,
      "v": 100
    },
    {
      "midi": 10,
      "hit": false,
      "t": 165902.71999999348,
      "d": 94.69333333335817,
      "v": 127
    },
    {
      "midi": 105,
      "hit": false,
      "t": 165902.71999999348,
      "d": 94.69333333335817,
      "v": 80
    },
    {
      "midi": 127,
      "hit": false,
      "t": 165902.71999999348,
      "d": 94.69333333335817,
      "v": 60
    },
    {
      "midi": 42,
      "hit": false,
      "t": 165902.71999999348,
      "d": 94.69333333335817,
      "v": 92
    },
    {
      "midi": 118,
      "hit": false,
      "t": 165902.71999999348,
      "d": 94.69333333335817,
      "v": 60
    },
    {
      "midi": 41,
      "hit": false,
      "t": 165902.71999999348,
      "d": 198.85600000002887,
      "v": 105
    },
    {
      "midi": 45,
      "hit": false,
      "t": 165902.71999999348,
      "d": 198.85600000002887,
      "v": 105
    },
    {
      "midi": 53,
      "hit": false,
      "t": 165912.18933332682,
      "d": 198.85600000002887,
      "v": 105
    },
    {
      "midi": 57,
      "hit": false,
      "t": 165912.18933332682,
      "d": 198.85600000002887,
      "v": 105
    },
    {
      "midi": 60,
      "hit": false,
      "t": 165921.65866666017,
      "d": 198.85600000002887,
      "v": 105
    },
    {
      "midi": 81,
      "hit": false,
      "t": 166016.3519999935,
      "d": 85.22400000001653,
      "v": 70
    },
    {
      "midi": 42,
      "hit": false,
      "t": 166025.82133332684,
      "d": 94.69333333335817,
      "v": 78
    },
    {
      "midi": 60,
      "hit": false,
      "t": 166120.5146666602,
      "d": 9.469333333341638,
      "v": 100
    },
    {
      "midi": 60,
      "hit": false,
      "t": 166129.98399999354,
      "d": 18.938666666683275,
      "v": 100
    },
    {
      "midi": 57,
      "hit": false,
      "t": 166129.98399999354,
      "d": 18.938666666683275,
      "v": 100
    },
    {
      "midi": 84,
      "hit": false,
      "t": 166129.98399999354,
      "d": 85.22400000004563,
      "v": 70
    },
    {
      "midi": 33,
      "hit": false,
      "t": 166129.98399999354,
      "d": 94.69333333338727,
      "v": 127
    },
    {
      "midi": 53,
      "hit": false,
      "t": 166139.45333332688,
      "d": 18.938666666683275,
      "v": 100
    },
    {
      "midi": 45,
      "hit": false,
      "t": 166139.45333332688,
      "d": 18.938666666683275,
      "v": 100
    },
    {
      "midi": 41,
      "hit": false,
      "t": 166148.92266666022,
      "d": 18.938666666683275,
      "v": 100
    },
    {
      "midi": 46,
      "hit": false,
      "t": 166148.92266666022,
      "d": 94.69333333338727,
      "v": 92
    },
    {
      "midi": 41,
      "hit": false,
      "t": 166243.6159999936,
      "d": 18.938666666683275,
      "v": 100
    },
    {
      "midi": 45,
      "hit": false,
      "t": 166243.6159999936,
      "d": 18.938666666683275,
      "v": 100
    },
    {
      "midi": 89,
      "hit": false,
      "t": 166243.6159999936,
      "d": 85.22400000004563,
      "v": 70
    },
    {
      "midi": 33,
      "hit": false,
      "t": 166243.6159999936,
      "d": 94.69333333338727,
      "v": 127
    },
    {
      "midi": 118,
      "hit": false,
      "t": 166243.6159999936,
      "d": 94.69333333338727,
      "v": 60
    },
    {
      "midi": 53,
      "hit": false,
      "t": 166253.08533332695,
      "d": 18.938666666683275,
      "v": 100
    },
    {
      "midi": 57,
      "hit": false,
      "t": 166253.08533332695,
      "d": 18.938666666683275,
      "v": 100
    },
    {
      "midi": 60,
      "hit": false,
      "t": 166262.5546666603,
      "d": 18.938666666683275,
      "v": 100
    },
    {
      "midi": 60,
      "hit": false,
      "t": 166357.24799999365,
      "d": 75.7546666666749,
      "v": 100
    },
    {
      "midi": 57,
      "hit": false,
      "t": 166357.24799999365,
      "d": 75.7546666666749,
      "v": 100
    },
    {
      "midi": 93,
      "hit": false,
      "t": 166357.24799999365,
      "d": 85.22400000001653,
      "v": 70
    },
    {
      "midi": 33,
      "hit": false,
      "t": 166357.24799999365,
      "d": 94.69333333335817,
      "v": 127
    },
    {
      "midi": 15,
      "hit": false,
      "t": 166357.24799999365,
      "d": 94.69333333335817,
      "v": 100
    },
    {
      "midi": 13,
      "hit": false,
      "t": 166357.24799999365,
      "d": 94.69333333335817,
      "v": 100
    },
    {
      "midi": 10,
      "hit": false,
      "t": 166357.24799999365,
      "d": 94.69333333335817,
      "v": 127
    },
    {
      "midi": 42,
      "hit": false,
      "t": 166357.24799999365,
      "d": 94.69333333335817,
      "v": 92
    },
    {
      "midi": 53,
      "hit": false,
      "t": 166366.717333327,
      "d": 75.7546666666749,
      "v": 100
    },
    {
      "midi": 45,
      "hit": false,
      "t": 166366.717333327,
      "d": 75.7546666666749,
      "v": 100
    },
    {
      "midi": 41,
      "hit": false,
      "t": 166376.18666666033,
      "d": 75.7546666666749,
      "v": 100
    },
    {
      "midi": 41,
      "hit": false,
      "t": 166470.87999999366,
      "d": 75.7546666666749,
      "v": 100
    },
    {
      "midi": 45,
      "hit": false,
      "t": 166470.87999999366,
      "d": 75.7546666666749,
      "v": 100
    },
    {
      "midi": 96,
      "hit": false,
      "t": 166470.87999999366,
      "d": 85.22400000001653,
      "v": 70
    },
    {
      "midi": 118,
      "hit": false,
      "t": 166470.87999999366,
      "d": 94.69333333335817,
      "v": 60
    },
    {
      "midi": 53,
      "hit": false,
      "t": 166480.349333327,
      "d": 75.7546666666749,
      "v": 100
    },
    {
      "midi": 57,
      "hit": false,
      "t": 166480.349333327,
      "d": 75.7546666666749,
      "v": 100
    },
    {
      "midi": 42,
      "hit": false,
      "t": 166480.349333327,
      "d": 94.69333333335817,
      "v": 78
    },
    {
      "midi": 60,
      "hit": false,
      "t": 166489.81866666034,
      "d": 75.7546666666749,
      "v": 100
    },
    {
      "midi": 101,
      "hit": false,
      "t": 166584.5119999937,
      "d": 85.22400000007474,
      "v": 70
    },
    {
      "midi": 33,
      "hit": false,
      "t": 166584.5119999937,
      "d": 94.69333333341638,
      "v": 127
    },
    {
      "midi": 118,
      "hit": false,
      "t": 166584.5119999937,
      "d": 94.69333333341638,
      "v": 40
    },
    {
      "midi": 57,
      "hit": false,
      "t": 166584.5119999937,
      "d": 208.32533333345782,
      "v": 110
    },
    {
      "midi": 60,
      "hit": false,
      "t": 166584.5119999937,
      "d": 208.32533333345782,
      "v": 110
    },
    {
      "midi": 71,
      "hit": false,
      "t": 166593.98133332704,
      "d": 37.87733333336655,
      "v": 127
    },
    {
      "midi": 45,
      "hit": false,
      "t": 166593.98133332704,
      "d": 47.34666666670819,
      "v": 110
    },
    {
      "midi": 53,
      "hit": false,
      "t": 166593.98133332704,
      "d": 198.85600000011618,
      "v": 110
    },
    {
      "midi": 46,
      "hit": false,
      "t": 166603.45066666038,
      "d": 94.69333333338727,
      "v": 92
    },
    {
      "midi": 41,
      "hit": false,
      "t": 166603.45066666038,
      "d": 179.9173333334329,
      "v": 110
    },
    {
      "midi": 76,
      "hit": false,
      "t": 166603.45066666038,
      "d": 643.9146666669112,
      "v": 127
    },
    {
      "midi": 96,
      "hit": false,
      "t": 166698.14399999377,
      "d": 85.22400000004563,
      "v": 70
    },
    {
      "midi": 63,
      "hit": false,
      "t": 166698.14399999377,
      "d": 94.69333333338727,
      "v": 80
    },
    {
      "midi": 93,
      "hit": false,
      "t": 166811.77599999384,
      "d": 85.22400000001653,
      "v": 70
    },
    {
      "midi": 33,
      "hit": false,
      "t": 166811.77599999384,
      "d": 94.69333333335817,
      "v": 127
    },
    {
      "midi": 15,
      "hit": false,
      "t": 166811.77599999384,
      "d": 94.69333333335817,
      "v": 100
    },
    {
      "midi": 13,
      "hit": false,
      "t": 166811.77599999384,
      "d": 94.69333333335817,
      "v": 100
    },
    {
      "midi": 10,
      "hit": false,
      "t": 166811.77599999384,
      "d": 94.69333333335817,
      "v": 127
    },
    {
      "midi": 105,
      "hit": false,
      "t": 166811.77599999384,
      "d": 94.69333333335817,
      "v": 80
    },
    {
      "midi": 127,
      "hit": false,
      "t": 166811.77599999384,
      "d": 94.69333333335817,
      "v": 60
    },
    {
      "midi": 42,
      "hit": false,
      "t": 166811.77599999384,
      "d": 94.69333333335817,
      "v": 92
    },
    {
      "midi": 118,
      "hit": false,
      "t": 166811.77599999384,
      "d": 94.69333333335817,
      "v": 60
    },
    {
      "midi": 64,
      "hit": false,
      "t": 166811.77599999384,
      "d": 94.69333333335817,
      "v": 80
    },
    {
      "midi": 45,
      "hit": false,
      "t": 166811.77599999384,
      "d": 426.12000000011176,
      "v": 100
    },
    {
      "midi": 57,
      "hit": false,
      "t": 166821.24533332718,
      "d": 407.1813333334285,
      "v": 100
    },
    {
      "midi": 53,
      "hit": false,
      "t": 166821.24533332718,
      "d": 416.6506666667701,
      "v": 100
    },
    {
      "midi": 41,
      "hit": false,
      "t": 166821.24533332718,
      "d": 416.6506666667701,
      "v": 110
    },
    {
      "midi": 60,
      "hit": false,
      "t": 166830.71466666053,
      "d": 397.71200000008685,
      "v": 100
    },
    {
      "midi": 89,
      "hit": false,
      "t": 166925.40799999388,
      "d": 85.22400000004563,
      "v": 70
    },
    {
      "midi": 33,
      "hit": false,
      "t": 166925.40799999388,
      "d": 94.69333333338727,
      "v": 127
    },
    {
      "midi": 42,
      "hit": false,
      "t": 166934.87733332723,
      "d": 94.69333333338727,
      "v": 78
    },
    {
      "midi": 84,
      "hit": false,
      "t": 167039.03999999395,
      "d": 85.22399999998743,
      "v": 70
    },
    {
      "midi": 33,
      "hit": false,
      "t": 167039.03999999395,
      "d": 94.69333333332906,
      "v": 127
    },
    {
      "midi": 118,
      "hit": false,
      "t": 167039.03999999395,
      "d": 94.69333333332906,
      "v": 60
    },
    {
      "midi": 46,
      "hit": false,
      "t": 167057.9786666606,
      "d": 94.69333333332906,
      "v": 92
    },
    {
      "midi": 81,
      "hit": false,
      "t": 167152.67199999394,
      "d": 85.22400000001653,
      "v": 70
    },
    {
      "midi": 118,
      "hit": false,
      "t": 167152.67199999394,
      "d": 94.69333333335817,
      "v": 40
    },
    {
      "midi": 78,
      "hit": false,
      "t": 167266.30399999398,
      "d": 85.22400000001653,
      "v": 70
    },
    {
      "midi": 35,
      "hit": false,
      "t": 167266.30399999398,
      "d": 94.69333333335817,
      "v": 127
    },
    {
      "midi": 15,
      "hit": false,
      "t": 167266.30399999398,
      "d": 94.69333333335817,
      "v": 100
    },
    {
      "midi": 13,
      "hit": false,
      "t": 167266.30399999398,
      "d": 94.69333333335817,
      "v": 100
    },
    {
      "midi": 10,
      "hit": false,
      "t": 167266.30399999398,
      "d": 94.69333333335817,
      "v": 127
    },
    {
      "midi": 59,
      "hit": false,
      "t": 167266.30399999398,
      "d": 416.6506666666828,
      "v": 100
    },
    {
      "midi": 54,
      "hit": false,
      "t": 167266.30399999398,
      "d": 416.6506666666828,
      "v": 100
    },
    {
      "midi": 67,
      "hit": false,
      "t": 167266.30399999398,
      "d": 1354.1146666671266,
      "v": 127
    },
    {
      "midi": 50,
      "hit": false,
      "t": 167275.77333332732,
      "d": 416.6506666666828,
      "v": 100
    },
    {
      "midi": 47,
      "hit": false,
      "t": 167275.77333332732,
      "d": 416.6506666666828,
      "v": 100
    },
    {
      "midi": 42,
      "hit": false,
      "t": 167285.24266666066,
      "d": 75.7546666666749,
      "v": 100
    },
    {
      "midi": 74,
      "hit": false,
      "t": 167379.935999994,
      "d": 85.22400000001653,
      "v": 70
    },
    {
      "midi": 35,
      "hit": false,
      "t": 167379.935999994,
      "d": 94.69333333335817,
      "v": 127
    },
    {
      "midi": 42,
      "hit": false,
      "t": 167389.40533332733,
      "d": 94.69333333335817,
      "v": 78
    },
    {
      "midi": 71,
      "hit": false,
      "t": 167493.56799999403,
      "d": 85.22399999998743,
      "v": 70
    },
    {
      "midi": 35,
      "hit": false,
      "t": 167493.56799999403,
      "d": 94.69333333332906,
      "v": 127
    },
    {
      "midi": 46,
      "hit": false,
      "t": 167512.5066666607,
      "d": 94.69333333332906,
      "v": 92
    },
    {
      "midi": 74,
      "hit": false,
      "t": 167607.19999999402,
      "d": 85.22399999998743,
      "v": 70
    },
    {
      "midi": 35,
      "hit": false,
      "t": 167607.19999999402,
      "d": 94.69333333332906,
      "v": 127
    },
    {
      "midi": 79,
      "hit": false,
      "t": 167720.83199999403,
      "d": 85.22400000001653,
      "v": 70
    },
    {
      "midi": 35,
      "hit": false,
      "t": 167720.83199999403,
      "d": 94.69333333335817,
      "v": 127
    },
    {
      "midi": 15,
      "hit": false,
      "t": 167720.83199999403,
      "d": 94.69333333335817,
      "v": 100
    },
    {
      "midi": 13,
      "hit": false,
      "t": 167720.83199999403,
      "d": 94.69333333335817,
      "v": 100
    },
    {
      "midi": 10,
      "hit": false,
      "t": 167720.83199999403,
      "d": 94.69333333335817,
      "v": 127
    },
    {
      "midi": 105,
      "hit": false,
      "t": 167720.83199999403,
      "d": 94.69333333335817,
      "v": 80
    },
    {
      "midi": 127,
      "hit": false,
      "t": 167720.83199999403,
      "d": 94.69333333335817,
      "v": 60
    },
    {
      "midi": 42,
      "hit": false,
      "t": 167720.83199999403,
      "d": 94.69333333335817,
      "v": 110
    },
    {
      "midi": 118,
      "hit": false,
      "t": 167720.83199999403,
      "d": 94.69333333335817,
      "v": 60
    },
    {
      "midi": 47,
      "hit": false,
      "t": 167720.83199999403,
      "d": 198.85600000002887,
      "v": 110
    },
    {
      "midi": 50,
      "hit": false,
      "t": 167730.30133332737,
      "d": 198.85600000002887,
      "v": 110
    },
    {
      "midi": 54,
      "hit": false,
      "t": 167730.30133332737,
      "d": 198.85600000002887,
      "v": 110
    },
    {
      "midi": 59,
      "hit": false,
      "t": 167739.7706666607,
      "d": 198.85600000002887,
      "v": 110
    },
    {
      "midi": 83,
      "hit": false,
      "t": 167834.46399999404,
      "d": 85.22400000001653,
      "v": 70
    },
    {
      "midi": 42,
      "hit": false,
      "t": 167843.93333332738,
      "d": 75.7546666666749,
      "v": 78
    },
    {
      "midi": 59,
      "hit": false,
      "t": 167938.62666666074,
      "d": 9.469333333341638,
      "v": 100
    },
    {
      "midi": 59,
      "hit": false,
      "t": 167948.09599999408,
      "d": 85.22400000001653,
      "v": 90
    },
    {
      "midi": 54,
      "hit": false,
      "t": 167948.09599999408,
      "d": 85.22400000001653,
      "v": 90
    },
    {
      "midi": 86,
      "hit": false,
      "t": 167948.09599999408,
      "d": 85.22400000001653,
      "v": 70
    },
    {
      "midi": 35,
      "hit": false,
      "t": 167948.09599999408,
      "d": 94.69333333335817,
      "v": 127
    },
    {
      "midi": 50,
      "hit": false,
      "t": 167957.56533332742,
      "d": 85.22400000001653,
      "v": 90
    },
    {
      "midi": 47,
      "hit": false,
      "t": 167957.56533332742,
      "d": 85.22400000001653,
      "v": 90
    },
    {
      "midi": 42,
      "hit": false,
      "t": 167967.03466666077,
      "d": 85.22400000001653,
      "v": 90
    },
    {
      "midi": 46,
      "hit": false,
      "t": 167967.03466666077,
      "d": 94.69333333335817,
      "v": 92
    },
    {
      "midi": 42,
      "hit": false,
      "t": 168052.25866666078,
      "d": 9.469333333341638,
      "v": 100
    },
    {
      "midi": 42,
      "hit": false,
      "t": 168061.72799999412,
      "d": 18.938666666683275,
      "v": 110
    },
    {
      "midi": 47,
      "hit": false,
      "t": 168061.72799999412,
      "d": 18.938666666683275,
      "v": 110
    },
    {
      "midi": 90,
      "hit": false,
      "t": 168061.72799999412,
      "d": 85.22400000001653,
      "v": 70
    },
    {
      "midi": 35,
      "hit": false,
      "t": 168061.72799999412,
      "d": 94.69333333335817,
      "v": 127
    },
    {
      "midi": 118,
      "hit": false,
      "t": 168061.72799999412,
      "d": 94.69333333335817,
      "v": 60
    },
    {
      "midi": 50,
      "hit": false,
      "t": 168071.19733332747,
      "d": 18.938666666683275,
      "v": 110
    },
    {
      "midi": 54,
      "hit": false,
      "t": 168071.19733332747,
      "d": 18.938666666683275,
      "v": 110
    },
    {
      "midi": 59,
      "hit": false,
      "t": 168080.6666666608,
      "d": 18.938666666683275,
      "v": 110
    },
    {
      "midi": 59,
      "hit": false,
      "t": 168175.35999999414,
      "d": 18.938666666683275,
      "v": 110
    },
    {
      "midi": 54,
      "hit": false,
      "t": 168175.35999999414,
      "d": 18.938666666683275,
      "v": 110
    },
    {
      "midi": 95,
      "hit": false,
      "t": 168175.35999999414,
      "d": 85.22400000007474,
      "v": 70
    },
    {
      "midi": 35,
      "hit": false,
      "t": 168175.35999999414,
      "d": 94.69333333341638,
      "v": 127
    },
    {
      "midi": 15,
      "hit": false,
      "t": 168175.35999999414,
      "d": 94.69333333341638,
      "v": 100
    },
    {
      "midi": 13,
      "hit": false,
      "t": 168175.35999999414,
      "d": 94.69333333341638,
      "v": 100
    },
    {
      "midi": 10,
      "hit": false,
      "t": 168175.35999999414,
      "d": 94.69333333341638,
      "v": 127
    },
    {
      "midi": 50,
      "hit": false,
      "t": 168184.82933332748,
      "d": 18.938666666683275,
      "v": 110
    },
    {
      "midi": 47,
      "hit": false,
      "t": 168184.82933332748,
      "d": 18.938666666683275,
      "v": 110
    },
    {
      "midi": 42,
      "hit": false,
      "t": 168194.29866666082,
      "d": 18.938666666683275,
      "v": 110
    },
    {
      "midi": 98,
      "hit": false,
      "t": 168288.99199999424,
      "d": 85.22400000007474,
      "v": 70
    },
    {
      "midi": 118,
      "hit": false,
      "t": 168288.99199999424,
      "d": 94.69333333341638,
      "v": 60
    },
    {
      "midi": 47,
      "hit": false,
      "t": 168288.99199999424,
      "d": 312.48800000018673,
      "v": 90
    },
    {
      "midi": 42,
      "hit": false,
      "t": 168298.46133332758,
      "d": 94.69333333341638,
      "v": 78
    },
    {
      "midi": 50,
      "hit": false,
      "t": 168298.46133332758,
      "d": 312.48800000018673,
      "v": 90
    },
    {
      "midi": 54,
      "hit": false,
      "t": 168298.46133332758,
      "d": 312.48800000018673,
      "v": 90
    },
    {
      "midi": 59,
      "hit": false,
      "t": 168307.93066666092,
      "d": 312.48800000018673,
      "v": 90
    },
    {
      "midi": 102,
      "hit": false,
      "t": 168402.62399999434,
      "d": 85.22400000001653,
      "v": 70
    },
    {
      "midi": 35,
      "hit": false,
      "t": 168402.62399999434,
      "d": 94.69333333335817,
      "v": 127
    },
    {
      "midi": 118,
      "hit": false,
      "t": 168402.62399999434,
      "d": 94.69333333335817,
      "v": 40
    },
    {
      "midi": 46,
      "hit": false,
      "t": 168421.56266666102,
      "d": 94.69333333332906,
      "v": 92
    },
    {
      "midi": 98,
      "hit": false,
      "t": 168516.25599999435,
      "d": 85.22400000007474,
      "v": 70
    },
    {
      "midi": 63,
      "hit": false,
      "t": 168516.25599999435,
      "d": 94.69333333341638,
      "v": 80
    },
    {
      "midi": 59,
      "hit": false,
      "t": 168620.4186666611,
      "d": 9.469333333341638,
      "v": 110
    },
    {
      "midi": 67,
      "hit": false,
      "t": 168620.4186666611,
      "d": 123.10133333338308,
      "v": 60
    },
    {
      "midi": 95,
      "hit": false,
      "t": 168629.88799999445,
      "d": 85.22400000001653,
      "v": 70
    },
    {
      "midi": 35,
      "hit": false,
      "t": 168629.88799999445,
      "d": 94.69333333335817,
      "v": 127
    },
    {
      "midi": 15,
      "hit": false,
      "t": 168629.88799999445,
      "d": 94.69333333335817,
      "v": 100
    },
    {
      "midi": 13,
      "hit": false,
      "t": 168629.88799999445,
      "d": 94.69333333335817,
      "v": 100
    },
    {
      "midi": 10,
      "hit": false,
      "t": 168629.88799999445,
      "d": 94.69333333335817,
      "v": 127
    },
    {
      "midi": 105,
      "hit": false,
      "t": 168629.88799999445,
      "d": 94.69333333335817,
      "v": 80
    },
    {
      "midi": 127,
      "hit": false,
      "t": 168629.88799999445,
      "d": 94.69333333335817,
      "v": 60
    },
    {
      "midi": 118,
      "hit": false,
      "t": 168629.88799999445,
      "d": 94.69333333335817,
      "v": 60
    },
    {
      "midi": 64,
      "hit": false,
      "t": 168629.88799999445,
      "d": 94.69333333335817,
      "v": 80
    },
    {
      "midi": 59,
      "hit": false,
      "t": 168629.88799999445,
      "d": 416.650666666741,
      "v": 110
    },
    {
      "midi": 54,
      "hit": false,
      "t": 168629.88799999445,
      "d": 416.650666666741,
      "v": 110
    },
    {
      "midi": 50,
      "hit": false,
      "t": 168639.3573333278,
      "d": 416.650666666741,
      "v": 110
    },
    {
      "midi": 47,
      "hit": false,
      "t": 168639.3573333278,
      "d": 416.650666666741,
      "v": 110
    },
    {
      "midi": 42,
      "hit": false,
      "t": 168648.82666666113,
      "d": 75.7546666666749,
      "v": 110
    },
    {
      "midi": 60,
      "hit": false,
      "t": 168734.05066666115,
      "d": 123.10133333338308,
      "v": 60
    },
    {
      "midi": 90,
      "hit": false,
      "t": 168743.5199999945,
      "d": 85.22400000001653,
      "v": 70
    },
    {
      "midi": 33,
      "hit": false,
      "t": 168743.5199999945,
      "d": 94.69333333335817,
      "v": 127
    },
    {
      "midi": 42,
      "hit": false,
      "t": 168752.98933332783,
      "d": 94.69333333335817,
      "v": 78
    },
    {
      "midi": 72,
      "hit": false,
      "t": 168819.27466666116,
      "d": 227.26400000002468,
      "v": 127
    },
    {
      "midi": 86,
      "hit": false,
      "t": 168857.15199999453,
      "d": 85.22399999998743,
      "v": 70
    },
    {
      "midi": 35,
      "hit": false,
      "t": 168857.15199999453,
      "d": 94.69333333332906,
      "v": 127
    },
    {
      "midi": 15,
      "hit": false,
      "t": 168857.15199999453,
      "d": 94.69333333332906,
      "v": 100
    },
    {
      "midi": 13,
      "hit": false,
      "t": 168857.15199999453,
      "d": 94.69333333332906,
      "v": 100
    },
    {
      "midi": 10,
      "hit": false,
      "t": 168857.15199999453,
      "d": 94.69333333332906,
      "v": 127
    },
    {
      "midi": 118,
      "hit": false,
      "t": 168857.15199999453,
      "d": 94.69333333332906,
      "v": 60
    },
    {
      "midi": 46,
      "hit": false,
      "t": 168876.09066666118,
      "d": 94.69333333332906,
      "v": 92
    },
    {
      "midi": 83,
      "hit": false,
      "t": 168970.7839999945,
      "d": 85.22400000001653,
      "v": 70
    },
    {
      "midi": 29,
      "hit": false,
      "t": 168970.7839999945,
      "d": 94.69333333335817,
      "v": 127
    },
    {
      "midi": 118,
      "hit": false,
      "t": 168970.7839999945,
      "d": 94.69333333335817,
      "v": 40
    },
    {
      "midi": 79,
      "hit": false,
      "t": 169084.41599999456,
      "d": 85.22400000001653,
      "v": 70
    },
    {
      "midi": 36,
      "hit": false,
      "t": 169084.41599999456,
      "d": 94.69333333335817,
      "v": 127
    },
    {
      "midi": 15,
      "hit": false,
      "t": 169084.41599999456,
      "d": 94.69333333335817,
      "v": 100
    },
    {
      "midi": 13,
      "hit": false,
      "t": 169084.41599999456,
      "d": 94.69333333335817,
      "v": 100
    },
    {
      "midi": 10,
      "hit": false,
      "t": 169084.41599999456,
      "d": 94.69333333335817,
      "v": 127
    },
    {
      "midi": 42,
      "hit": false,
      "t": 169084.41599999456,
      "d": 94.69333333335817,
      "v": 92
    },
    {
      "midi": 64,
      "hit": false,
      "t": 169084.41599999456,
      "d": 416.6506666666537,
      "v": 100
    },
    {
      "midi": 60,
      "hit": false,
      "t": 169084.41599999456,
      "d": 416.6506666666537,
      "v": 100
    },
    {
      "midi": 55,
      "hit": false,
      "t": 169093.8853333279,
      "d": 416.6506666666537,
      "v": 100
    },
    {
      "midi": 52,
      "hit": false,
      "t": 169093.8853333279,
      "d": 416.6506666666537,
      "v": 100
    },
    {
      "midi": 48,
      "hit": false,
      "t": 169103.35466666124,
      "d": 416.6506666666537,
      "v": 100
    },
    {
      "midi": 43,
      "hit": false,
      "t": 169103.35466666124,
      "d": 416.6506666666537,
      "v": 100
    },
    {
      "midi": 76,
      "hit": false,
      "t": 169198.04799999457,
      "d": 85.22399999998743,
      "v": 70
    },
    {
      "midi": 36,
      "hit": false,
      "t": 169198.04799999457,
      "d": 94.69333333332906,
      "v": 127
    },
    {
      "midi": 42,
      "hit": false,
      "t": 169207.5173333279,
      "d": 94.69333333332906,
      "v": 78
    },
    {
      "midi": 72,
      "hit": false,
      "t": 169311.67999999458,
      "d": 85.22399999998743,
      "v": 70
    },
    {
      "midi": 36,
      "hit": false,
      "t": 169311.67999999458,
      "d": 94.69333333332906,
      "v": 127
    },
    {
      "midi": 46,
      "hit": false,
      "t": 169330.61866666123,
      "d": 94.69333333332906,
      "v": 92
    },
    {
      "midi": 76,
      "hit": false,
      "t": 169425.31199999456,
      "d": 85.22399999998743,
      "v": 70
    },
    {
      "midi": 36,
      "hit": false,
      "t": 169425.31199999456,
      "d": 94.69333333332906,
      "v": 127
    },
    {
      "midi": 79,
      "hit": false,
      "t": 169538.94399999458,
      "d": 85.22400000001653,
      "v": 70
    },
    {
      "midi": 36,
      "hit": false,
      "t": 169538.94399999458,
      "d": 94.69333333335817,
      "v": 127
    },
    {
      "midi": 15,
      "hit": false,
      "t": 169538.94399999458,
      "d": 94.69333333335817,
      "v": 100
    },
    {
      "midi": 13,
      "hit": false,
      "t": 169538.94399999458,
      "d": 94.69333333335817,
      "v": 100
    },
    {
      "midi": 10,
      "hit": false,
      "t": 169538.94399999458,
      "d": 94.69333333335817,
      "v": 127
    },
    {
      "midi": 105,
      "hit": false,
      "t": 169538.94399999458,
      "d": 94.69333333335817,
      "v": 80
    },
    {
      "midi": 127,
      "hit": false,
      "t": 169538.94399999458,
      "d": 94.69333333335817,
      "v": 60
    },
    {
      "midi": 42,
      "hit": false,
      "t": 169538.94399999458,
      "d": 94.69333333335817,
      "v": 92
    },
    {
      "midi": 118,
      "hit": false,
      "t": 169538.94399999458,
      "d": 94.69333333335817,
      "v": 60
    },
    {
      "midi": 43,
      "hit": false,
      "t": 169538.94399999458,
      "d": 198.85600000002887,
      "v": 115
    },
    {
      "midi": 48,
      "hit": false,
      "t": 169538.94399999458,
      "d": 198.85600000002887,
      "v": 115
    },
    {
      "midi": 52,
      "hit": false,
      "t": 169548.41333332792,
      "d": 198.85600000002887,
      "v": 115
    },
    {
      "midi": 55,
      "hit": false,
      "t": 169548.41333332792,
      "d": 198.85600000002887,
      "v": 115
    },
    {
      "midi": 60,
      "hit": false,
      "t": 169557.88266666126,
      "d": 198.85600000002887,
      "v": 115
    },
    {
      "midi": 64,
      "hit": false,
      "t": 169557.88266666126,
      "d": 198.85600000002887,
      "v": 115
    },
    {
      "midi": 84,
      "hit": false,
      "t": 169652.5759999946,
      "d": 85.22400000001653,
      "v": 70
    },
    {
      "midi": 42,
      "hit": false,
      "t": 169662.04533332793,
      "d": 94.69333333335817,
      "v": 78
    },
    {
      "midi": 60,
      "hit": false,
      "t": 169756.7386666613,
      "d": 9.469333333341638,
      "v": 100
    },
    {
      "midi": 64,
      "hit": false,
      "t": 169756.7386666613,
      "d": 9.469333333341638,
      "v": 100
    },
    {
      "midi": 64,
      "hit": false,
      "t": 169766.20799999463,
      "d": 18.938666666683275,
      "v": 100
    },
    {
      "midi": 60,
      "hit": false,
      "t": 169766.20799999463,
      "d": 18.938666666683275,
      "v": 100
    },
    {
      "midi": 88,
      "hit": false,
      "t": 169766.20799999463,
      "d": 85.22400000001653,
      "v": 70
    },
    {
      "midi": 36,
      "hit": false,
      "t": 169766.20799999463,
      "d": 94.69333333335817,
      "v": 127
    },
    {
      "midi": 55,
      "hit": false,
      "t": 169775.67733332797,
      "d": 18.938666666683275,
      "v": 100
    },
    {
      "midi": 52,
      "hit": false,
      "t": 169775.67733332797,
      "d": 18.938666666683275,
      "v": 100
    },
    {
      "midi": 48,
      "hit": false,
      "t": 169785.1466666613,
      "d": 18.938666666683275,
      "v": 100
    },
    {
      "midi": 43,
      "hit": false,
      "t": 169785.1466666613,
      "d": 18.938666666683275,
      "v": 100
    },
    {
      "midi": 46,
      "hit": false,
      "t": 169785.1466666613,
      "d": 94.69333333335817,
      "v": 92
    },
    {
      "midi": 43,
      "hit": false,
      "t": 169879.83999999467,
      "d": 18.938666666683275,
      "v": 100
    },
    {
      "midi": 48,
      "hit": false,
      "t": 169879.83999999467,
      "d": 18.938666666683275,
      "v": 100
    },
    {
      "midi": 91,
      "hit": false,
      "t": 169879.83999999467,
      "d": 85.22400000004563,
      "v": 70
    },
    {
      "midi": 36,
      "hit": false,
      "t": 169879.83999999467,
      "d": 94.69333333338727,
      "v": 127
    },
    {
      "midi": 118,
      "hit": false,
      "t": 169879.83999999467,
      "d": 94.69333333338727,
      "v": 60
    },
    {
      "midi": 52,
      "hit": false,
      "t": 169889.309333328,
      "d": 18.938666666683275,
      "v": 100
    },
    {
      "midi": 55,
      "hit": false,
      "t": 169889.309333328,
      "d": 18.938666666683275,
      "v": 100
    },
    {
      "midi": 60,
      "hit": false,
      "t": 169898.77866666135,
      "d": 18.938666666683275,
      "v": 100
    },
    {
      "midi": 64,
      "hit": false,
      "t": 169898.77866666135,
      "d": 18.938666666683275,
      "v": 100
    },
    {
      "midi": 64,
      "hit": false,
      "t": 169993.4719999947,
      "d": 75.7546666666749,
      "v": 100
    },
    {
      "midi": 60,
      "hit": false,
      "t": 169993.4719999947,
      "d": 75.7546666666749,
      "v": 100
    },
    {
      "midi": 96,
      "hit": false,
      "t": 169993.4719999947,
      "d": 85.22400000001653,
      "v": 70
    },
    {
      "midi": 36,
      "hit": false,
      "t": 169993.4719999947,
      "d": 94.69333333335817,
      "v": 127
    },
    {
      "midi": 15,
      "hit": false,
      "t": 169993.4719999947,
      "d": 94.69333333335817,
      "v": 100
    },
    {
      "midi": 13,
      "hit": false,
      "t": 169993.4719999947,
      "d": 94.69333333335817,
      "v": 100
    },
    {
      "midi": 10,
      "hit": false,
      "t": 169993.4719999947,
      "d": 94.69333333335817,
      "v": 127
    },
    {
      "midi": 42,
      "hit": false,
      "t": 169993.4719999947,
      "d": 94.69333333335817,
      "v": 92
    },
    {
      "midi": 55,
      "hit": false,
      "t": 170002.94133332805,
      "d": 75.7546666666749,
      "v": 100
    },
    {
      "midi": 52,
      "hit": false,
      "t": 170002.94133332805,
      "d": 75.7546666666749,
      "v": 100
    },
    {
      "midi": 48,
      "hit": false,
      "t": 170012.4106666614,
      "d": 75.7546666666749,
      "v": 100
    },
    {
      "midi": 43,
      "hit": false,
      "t": 170012.4106666614,
      "d": 75.7546666666749,
      "v": 100
    },
    {
      "midi": 43,
      "hit": false,
      "t": 170107.10399999472,
      "d": 75.7546666666749,
      "v": 100
    },
    {
      "midi": 48,
      "hit": false,
      "t": 170107.10399999472,
      "d": 75.7546666666749,
      "v": 100
    },
    {
      "midi": 100,
      "hit": false,
      "t": 170107.10399999472,
      "d": 85.22400000001653,
      "v": 70
    },
    {
      "midi": 118,
      "hit": false,
      "t": 170107.10399999472,
      "d": 94.69333333335817,
      "v": 60
    },
    {
      "midi": 52,
      "hit": false,
      "t": 170116.57333332807,
      "d": 75.7546666666749,
      "v": 100
    },
    {
      "midi": 55,
      "hit": false,
      "t": 170116.57333332807,
      "d": 75.7546666666749,
      "v": 100
    },
    {
      "midi": 42,
      "hit": false,
      "t": 170116.57333332807,
      "d": 94.69333333335817,
      "v": 78
    },
    {
      "midi": 60,
      "hit": false,
      "t": 170126.0426666614,
      "d": 75.7546666666749,
      "v": 100
    },
    {
      "midi": 64,
      "hit": false,
      "t": 170126.0426666614,
      "d": 75.7546666666749,
      "v": 100
    },
    {
      "midi": 103,
      "hit": false,
      "t": 170220.73599999477,
      "d": 85.22400000001653,
      "v": 70
    },
    {
      "midi": 36,
      "hit": false,
      "t": 170220.73599999477,
      "d": 94.69333333335817,
      "v": 127
    },
    {
      "midi": 118,
      "hit": false,
      "t": 170220.73599999477,
      "d": 94.69333333335817,
      "v": 40
    },
    {
      "midi": 64,
      "hit": false,
      "t": 170220.73599999477,
      "d": 208.3253333333705,
      "v": 115
    },
    {
      "midi": 60,
      "hit": false,
      "t": 170220.73599999477,
      "d": 208.3253333333705,
      "v": 115
    },
    {
      "midi": 71,
      "hit": false,
      "t": 170220.73599999477,
      "d": 236.73333333339542,
      "v": 127
    },
    {
      "midi": 52,
      "hit": false,
      "t": 170230.2053333281,
      "d": 198.85600000002887,
      "v": 115
    },
    {
      "midi": 55,
      "hit": false,
      "t": 170230.2053333281,
      "d": 198.85600000002887,
      "v": 115
    },
    {
      "midi": 46,
      "hit": false,
      "t": 170239.67466666145,
      "d": 94.69333333332906,
      "v": 92
    },
    {
      "midi": 43,
      "hit": false,
      "t": 170239.67466666145,
      "d": 179.9173333333456,
      "v": 115
    },
    {
      "midi": 48,
      "hit": false,
      "t": 170239.67466666145,
      "d": 179.9173333333456,
      "v": 115
    },
    {
      "midi": 100,
      "hit": false,
      "t": 170334.36799999478,
      "d": 85.22400000001653,
      "v": 70
    },
    {
      "midi": 63,
      "hit": false,
      "t": 170334.36799999478,
      "d": 94.69333333335817,
      "v": 80
    },
    {
      "midi": 96,
      "hit": false,
      "t": 170447.99999999482,
      "d": 85.22400000001653,
      "v": 70
    },
    {
      "midi": 36,
      "hit": false,
      "t": 170447.99999999482,
      "d": 94.69333333335817,
      "v": 127
    },
    {
      "midi": 15,
      "hit": false,
      "t": 170447.99999999482,
      "d": 94.69333333335817,
      "v": 100
    },
    {
      "midi": 13,
      "hit": false,
      "t": 170447.99999999482,
      "d": 94.69333333335817,
      "v": 100
    },
    {
      "midi": 10,
      "hit": false,
      "t": 170447.99999999482,
      "d": 94.69333333335817,
      "v": 127
    },
    {
      "midi": 105,
      "hit": false,
      "t": 170447.99999999482,
      "d": 94.69333333335817,
      "v": 80
    },
    {
      "midi": 127,
      "hit": false,
      "t": 170447.99999999482,
      "d": 94.69333333335817,
      "v": 60
    },
    {
      "midi": 42,
      "hit": false,
      "t": 170447.99999999482,
      "d": 94.69333333335817,
      "v": 92
    },
    {
      "midi": 118,
      "hit": false,
      "t": 170447.99999999482,
      "d": 94.69333333335817,
      "v": 60
    },
    {
      "midi": 72,
      "hit": false,
      "t": 170447.99999999482,
      "d": 236.73333333339542,
      "v": 127
    },
    {
      "midi": 48,
      "hit": false,
      "t": 170447.99999999482,
      "d": 426.12000000005355,
      "v": 110
    },
    {
      "midi": 55,
      "hit": false,
      "t": 170457.46933332816,
      "d": 407.1813333333703,
      "v": 110
    },
    {
      "midi": 52,
      "hit": false,
      "t": 170457.46933332816,
      "d": 416.6506666667119,
      "v": 110
    },
    {
      "midi": 43,
      "hit": false,
      "t": 170457.46933332816,
      "d": 416.6506666667119,
      "v": 110
    },
    {
      "midi": 64,
      "hit": false,
      "t": 170466.9386666615,
      "d": 75.7546666666749,
      "v": 110
    },
    {
      "midi": 60,
      "hit": false,
      "t": 170466.9386666615,
      "d": 397.71200000002864,
      "v": 110
    },
    {
      "midi": 91,
      "hit": false,
      "t": 170561.63199999483,
      "d": 85.22400000001653,
      "v": 70
    },
    {
      "midi": 36,
      "hit": false,
      "t": 170561.63199999483,
      "d": 94.69333333335817,
      "v": 127
    },
    {
      "midi": 42,
      "hit": false,
      "t": 170571.10133332817,
      "d": 94.69333333335817,
      "v": 78
    },
    {
      "midi": 88,
      "hit": false,
      "t": 170675.26399999487,
      "d": 85.22400000001653,
      "v": 70
    },
    {
      "midi": 36,
      "hit": false,
      "t": 170675.26399999487,
      "d": 94.69333333335817,
      "v": 127
    },
    {
      "midi": 118,
      "hit": false,
      "t": 170675.26399999487,
      "d": 94.69333333335817,
      "v": 60
    },
    {
      "midi": 79,
      "hit": false,
      "t": 170675.26399999487,
      "d": 672.3226666667615,
      "v": 127
    },
    {
      "midi": 46,
      "hit": false,
      "t": 170694.20266666156,
      "d": 94.69333333332906,
      "v": 92
    },
    {
      "midi": 84,
      "hit": false,
      "t": 170788.8959999949,
      "d": 85.22399999998743,
      "v": 70
    },
    {
      "midi": 118,
      "hit": false,
      "t": 170788.8959999949,
      "d": 94.69333333332906,
      "v": 40
    },
    {
      "midi": 78,
      "hit": false,
      "t": 170902.5279999949,
      "d": 85.22400000001653,
      "v": 70
    },
    {
      "midi": 35,
      "hit": false,
      "t": 170902.5279999949,
      "d": 94.69333333335817,
      "v": 127
    },
    {
      "midi": 15,
      "hit": false,
      "t": 170902.5279999949,
      "d": 94.69333333335817,
      "v": 100
    },
    {
      "midi": 13,
      "hit": false,
      "t": 170902.5279999949,
      "d": 94.69333333335817,
      "v": 100
    },
    {
      "midi": 10,
      "hit": false,
      "t": 170902.5279999949,
      "d": 94.69333333335817,
      "v": 127
    },
    {
      "midi": 62,
      "hit": false,
      "t": 170902.5279999949,
      "d": 416.6506666667119,
      "v": 100
    },
    {
      "midi": 59,
      "hit": false,
      "t": 170902.5279999949,
      "d": 416.6506666667119,
      "v": 100
    },
    {
      "midi": 54,
      "hit": false,
      "t": 170911.99733332824,
      "d": 416.6506666667119,
      "v": 100
    },
    {
      "midi": 50,
      "hit": false,
      "t": 170911.99733332824,
      "d": 416.6506666667119,
      "v": 100
    },
    {
      "midi": 47,
      "hit": false,
      "t": 170911.99733332824,
      "d": 426.12000000005355,
      "v": 100
    },
    {
      "midi": 42,
      "hit": false,
      "t": 170921.46666666158,
      "d": 75.7546666666749,
      "v": 100
    },
    {
      "midi": 74,
      "hit": false,
      "t": 171016.1599999949,
      "d": 85.22400000001653,
      "v": 70
    },
    {
      "midi": 35,
      "hit": false,
      "t": 171016.1599999949,
      "d": 94.69333333335817,
      "v": 127
    },
    {
      "midi": 42,
      "hit": false,
      "t": 171025.62933332825,
      "d": 94.69333333335817,
      "v": 78
    },
    {
      "midi": 71,
      "hit": false,
      "t": 171129.79199999495,
      "d": 85.22399999998743,
      "v": 70
    },
    {
      "midi": 35,
      "hit": false,
      "t": 171129.79199999495,
      "d": 94.69333333332906,
      "v": 127
    },
    {
      "midi": 46,
      "hit": false,
      "t": 171148.7306666616,
      "d": 94.69333333332906,
      "v": 92
    },
    {
      "midi": 74,
      "hit": false,
      "t": 171243.42399999494,
      "d": 85.22400000001653,
      "v": 70
    },
    {
      "midi": 35,
      "hit": false,
      "t": 171243.42399999494,
      "d": 94.69333333335817,
      "v": 127
    },
    {
      "midi": 47,
      "hit": false,
      "t": 171347.58666666163,
      "d": 208.3253333333705,
      "v": 110
    },
    {
      "midi": 52,
      "hit": false,
      "t": 171357.05599999498,
      "d": 75.7546666666749,
      "v": 127
    },
    {
      "midi": 79,
      "hit": false,
      "t": 171357.05599999498,
      "d": 85.22400000001653,
      "v": 70
    },
    {
      "midi": 35,
      "hit": false,
      "t": 171357.05599999498,
      "d": 94.69333333335817,
      "v": 127
    },
    {
      "midi": 15,
      "hit": false,
      "t": 171357.05599999498,
      "d": 94.69333333335817,
      "v": 100
    },
    {
      "midi": 13,
      "hit": false,
      "t": 171357.05599999498,
      "d": 94.69333333335817,
      "v": 100
    },
    {
      "midi": 10,
      "hit": false,
      "t": 171357.05599999498,
      "d": 94.69333333335817,
      "v": 127
    },
    {
      "midi": 105,
      "hit": false,
      "t": 171357.05599999498,
      "d": 94.69333333335817,
      "v": 80
    },
    {
      "midi": 127,
      "hit": false,
      "t": 171357.05599999498,
      "d": 94.69333333335817,
      "v": 60
    },
    {
      "midi": 42,
      "hit": false,
      "t": 171357.05599999498,
      "d": 94.69333333335817,
      "v": 110
    },
    {
      "midi": 118,
      "hit": false,
      "t": 171357.05599999498,
      "d": 94.69333333335817,
      "v": 60
    },
    {
      "midi": 50,
      "hit": false,
      "t": 171357.05599999498,
      "d": 208.3253333333705,
      "v": 110
    },
    {
      "midi": 69,
      "hit": false,
      "t": 171366.52533332832,
      "d": 75.7546666666749,
      "v": 127
    },
    {
      "midi": 54,
      "hit": false,
      "t": 171366.52533332832,
      "d": 198.85600000002887,
      "v": 110
    },
    {
      "midi": 59,
      "hit": false,
      "t": 171366.52533332832,
      "d": 208.3253333333705,
      "v": 110
    },
    {
      "midi": 62,
      "hit": false,
      "t": 171375.99466666166,
      "d": 198.85600000002887,
      "v": 110
    },
    {
      "midi": 81,
      "hit": false,
      "t": 171375.99466666166,
      "d": 634.4453333335114,
      "v": 127
    },
    {
      "midi": 83,
      "hit": false,
      "t": 171470.687999995,
      "d": 85.22400000001653,
      "v": 70
    },
    {
      "midi": 42,
      "hit": false,
      "t": 171480.15733332833,
      "d": 75.7546666666749,
      "v": 78
    },
    {
      "midi": 62,
      "hit": false,
      "t": 171574.8506666617,
      "d": 9.469333333341638,
      "v": 100
    },
    {
      "midi": 62,
      "hit": false,
      "t": 171584.31999999503,
      "d": 18.938666666683275,
      "v": 100
    },
    {
      "midi": 59,
      "hit": false,
      "t": 171584.31999999503,
      "d": 18.938666666683275,
      "v": 100
    },
    {
      "midi": 86,
      "hit": false,
      "t": 171584.31999999503,
      "d": 85.22400000004563,
      "v": 70
    },
    {
      "midi": 35,
      "hit": false,
      "t": 171584.31999999503,
      "d": 94.69333333338727,
      "v": 127
    },
    {
      "midi": 54,
      "hit": false,
      "t": 171593.78933332837,
      "d": 18.938666666683275,
      "v": 100
    },
    {
      "midi": 50,
      "hit": false,
      "t": 171593.78933332837,
      "d": 18.938666666683275,
      "v": 100
    },
    {
      "midi": 47,
      "hit": false,
      "t": 171593.78933332837,
      "d": 94.69333333338727,
      "v": 100
    },
    {
      "midi": 42,
      "hit": false,
      "t": 171603.2586666617,
      "d": 18.938666666683275,
      "v": 100
    },
    {
      "midi": 46,
      "hit": false,
      "t": 171603.2586666617,
      "d": 94.69333333338727,
      "v": 92
    },
    {
      "midi": 47,
      "hit": false,
      "t": 171688.48266666176,
      "d": 549.2213333334366,
      "v": 100
    },
    {
      "midi": 42,
      "hit": false,
      "t": 171697.9519999951,
      "d": 18.938666666683275,
      "v": 100
    },
    {
      "midi": 50,
      "hit": false,
      "t": 171697.9519999951,
      "d": 18.938666666683275,
      "v": 100
    },
    {
      "midi": 90,
      "hit": false,
      "t": 171697.9519999951,
      "d": 85.22400000004563,
      "v": 70
    },
    {
      "midi": 35,
      "hit": false,
      "t": 171697.9519999951,
      "d": 94.69333333338727,
      "v": 127
    },
    {
      "midi": 118,
      "hit": false,
      "t": 171697.9519999951,
      "d": 94.69333333338727,
      "v": 60
    },
    {
      "midi": 54,
      "hit": false,
      "t": 171707.42133332844,
      "d": 18.938666666683275,
      "v": 100
    },
    {
      "midi": 59,
      "hit": false,
      "t": 171707.42133332844,
      "d": 18.938666666683275,
      "v": 100
    },
    {
      "midi": 62,
      "hit": false,
      "t": 171716.89066666178,
      "d": 18.938666666683275,
      "v": 100
    },
    {
      "midi": 62,
      "hit": false,
      "t": 171811.58399999514,
      "d": 75.7546666666749,
      "v": 100
    },
    {
      "midi": 59,
      "hit": false,
      "t": 171811.58399999514,
      "d": 75.7546666666749,
      "v": 100
    },
    {
      "midi": 95,
      "hit": false,
      "t": 171811.58399999514,
      "d": 85.22400000001653,
      "v": 70
    },
    {
      "midi": 35,
      "hit": false,
      "t": 171811.58399999514,
      "d": 94.69333333335817,
      "v": 127
    },
    {
      "midi": 15,
      "hit": false,
      "t": 171811.58399999514,
      "d": 94.69333333335817,
      "v": 100
    },
    {
      "midi": 13,
      "hit": false,
      "t": 171811.58399999514,
      "d": 94.69333333335817,
      "v": 100
    },
    {
      "midi": 10,
      "hit": false,
      "t": 171811.58399999514,
      "d": 94.69333333335817,
      "v": 127
    },
    {
      "midi": 54,
      "hit": false,
      "t": 171821.05333332848,
      "d": 75.7546666666749,
      "v": 100
    },
    {
      "midi": 50,
      "hit": false,
      "t": 171821.05333332848,
      "d": 75.7546666666749,
      "v": 100
    },
    {
      "midi": 42,
      "hit": false,
      "t": 171830.52266666183,
      "d": 75.7546666666749,
      "v": 100
    },
    {
      "midi": 50,
      "hit": false,
      "t": 171925.21599999515,
      "d": 75.7546666666749,
      "v": 100
    },
    {
      "midi": 98,
      "hit": false,
      "t": 171925.21599999515,
      "d": 85.22400000001653,
      "v": 70
    },
    {
      "midi": 118,
      "hit": false,
      "t": 171925.21599999515,
      "d": 94.69333333335817,
      "v": 60
    },
    {
      "midi": 42,
      "hit": false,
      "t": 171934.6853333285,
      "d": 66.28533333333326,
      "v": 78
    },
    {
      "midi": 54,
      "hit": false,
      "t": 171934.6853333285,
      "d": 75.7546666666749,
      "v": 100
    },
    {
      "midi": 59,
      "hit": false,
      "t": 171934.6853333285,
      "d": 75.7546666666749,
      "v": 100
    },
    {
      "midi": 62,
      "hit": false,
      "t": 171944.15466666184,
      "d": 75.7546666666749,
      "v": 100
    },
    {
      "midi": 102,
      "hit": false,
      "t": 172038.8479999952,
      "d": 85.22400000001653,
      "v": 70
    },
    {
      "midi": 35,
      "hit": false,
      "t": 172038.8479999952,
      "d": 94.69333333335817,
      "v": 127
    },
    {
      "midi": 118,
      "hit": false,
      "t": 172038.8479999952,
      "d": 94.69333333335817,
      "v": 40
    },
    {
      "midi": 77,
      "hit": false,
      "t": 172038.8479999952,
      "d": 208.3253333333414,
      "v": 127
    },
    {
      "midi": 62,
      "hit": false,
      "t": 172038.8479999952,
      "d": 208.3253333333414,
      "v": 110
    },
    {
      "midi": 59,
      "hit": false,
      "t": 172038.8479999952,
      "d": 208.3253333333414,
      "v": 110
    },
    {
      "midi": 50,
      "hit": false,
      "t": 172048.31733332854,
      "d": 198.85599999999977,
      "v": 110
    },
    {
      "midi": 54,
      "hit": false,
      "t": 172048.31733332854,
      "d": 198.85599999999977,
      "v": 110
    },
    {
      "midi": 46,
      "hit": false,
      "t": 172057.78666666188,
      "d": 94.69333333332906,
      "v": 92
    },
    {
      "midi": 42,
      "hit": false,
      "t": 172057.78666666188,
      "d": 179.9173333333165,
      "v": 110
    },
    {
      "midi": 98,
      "hit": false,
      "t": 172152.4799999952,
      "d": 85.22399999998743,
      "v": 70
    },
    {
      "midi": 63,
      "hit": false,
      "t": 172152.4799999952,
      "d": 94.69333333332906,
      "v": 80
    },
    {
      "midi": 64,
      "hit": false,
      "t": 172266.11199999522,
      "d": 75.754666666704,
      "v": 80
    },
    {
      "midi": 95,
      "hit": false,
      "t": 172266.11199999522,
      "d": 85.22400000004563,
      "v": 70
    },
    {
      "midi": 35,
      "hit": false,
      "t": 172266.11199999522,
      "d": 94.69333333338727,
      "v": 127
    },
    {
      "midi": 15,
      "hit": false,
      "t": 172266.11199999522,
      "d": 94.69333333338727,
      "v": 100
    },
    {
      "midi": 13,
      "hit": false,
      "t": 172266.11199999522,
      "d": 94.69333333338727,
      "v": 100
    },
    {
      "midi": 10,
      "hit": false,
      "t": 172266.11199999522,
      "d": 94.69333333338727,
      "v": 127
    },
    {
      "midi": 105,
      "hit": false,
      "t": 172266.11199999522,
      "d": 94.69333333338727,
      "v": 80
    },
    {
      "midi": 127,
      "hit": false,
      "t": 172266.11199999522,
      "d": 94.69333333338727,
      "v": 60
    },
    {
      "midi": 118,
      "hit": false,
      "t": 172266.11199999522,
      "d": 94.69333333338727,
      "v": 60
    },
    {
      "midi": 50,
      "hit": false,
      "t": 172266.11199999522,
      "d": 426.12000000002445,
      "v": 100
    },
    {
      "midi": 47,
      "hit": false,
      "t": 172275.58133332856,
      "d": 56.81600000002072,
      "v": 110
    },
    {
      "midi": 42,
      "hit": false,
      "t": 172275.58133332856,
      "d": 85.22400000004563,
      "v": 110
    },
    {
      "midi": 59,
      "hit": false,
      "t": 172275.58133332856,
      "d": 407.1813333333412,
      "v": 100
    },
    {
      "midi": 54,
      "hit": false,
      "t": 172275.58133332856,
      "d": 416.6506666666828,
      "v": 100
    },
    {
      "midi": 76,
      "hit": false,
      "t": 172275.58133332856,
      "d": 445.0586666667077,
      "v": 127
    },
    {
      "midi": 62,
      "hit": false,
      "t": 172285.0506666619,
      "d": 397.71199999999953,
      "v": 100
    },
    {
      "midi": 90,
      "hit": false,
      "t": 172379.7439999953,
      "d": 85.22399999998743,
      "v": 70
    },
    {
      "midi": 33,
      "hit": false,
      "t": 172379.7439999953,
      "d": 94.69333333332906,
      "v": 127
    },
    {
      "midi": 42,
      "hit": false,
      "t": 172389.21333332863,
      "d": 94.69333333332906,
      "v": 78
    },
    {
      "midi": 86,
      "hit": false,
      "t": 172493.3759999953,
      "d": 85.22399999995832,
      "v": 70
    },
    {
      "midi": 35,
      "hit": false,
      "t": 172493.3759999953,
      "d": 94.69333333329996,
      "v": 127
    },
    {
      "midi": 15,
      "hit": false,
      "t": 172493.3759999953,
      "d": 94.69333333329996,
      "v": 100
    },
    {
      "midi": 13,
      "hit": false,
      "t": 172493.3759999953,
      "d": 94.69333333329996,
      "v": 100
    },
    {
      "midi": 10,
      "hit": false,
      "t": 172493.3759999953,
      "d": 94.69333333329996,
      "v": 127
    },
    {
      "midi": 118,
      "hit": false,
      "t": 172493.3759999953,
      "d": 94.69333333329996,
      "v": 60
    },
    {
      "midi": 46,
      "hit": false,
      "t": 172512.31466666196,
      "d": 94.69333333329996,
      "v": 92
    },
    {
      "midi": 83,
      "hit": false,
      "t": 172607.00799999526,
      "d": 85.22399999998743,
      "v": 70
    },
    {
      "midi": 29,
      "hit": false,
      "t": 172607.00799999526,
      "d": 94.69333333332906,
      "v": 127
    },
    {
      "midi": 118,
      "hit": false,
      "t": 172607.00799999526,
      "d": 94.69333333332906,
      "v": 40
    },
    {
      "midi": 77,
      "hit": false,
      "t": 172720.63999999527,
      "d": 85.22400000001653,
      "v": 127
    },
    {
      "midi": 29,
      "hit": false,
      "t": 172720.63999999527,
      "d": 94.69333333335817,
      "v": 127
    },
    {
      "midi": 15,
      "hit": false,
      "t": 172720.63999999527,
      "d": 94.69333333335817,
      "v": 100
    },
    {
      "midi": 13,
      "hit": false,
      "t": 172720.63999999527,
      "d": 94.69333333335817,
      "v": 100
    },
    {
      "midi": 10,
      "hit": false,
      "t": 172720.63999999527,
      "d": 94.69333333335817,
      "v": 127
    },
    {
      "midi": 42,
      "hit": false,
      "t": 172720.63999999527,
      "d": 94.69333333335817,
      "v": 92
    },
    {
      "midi": 60,
      "hit": false,
      "t": 172720.63999999527,
      "d": 416.650666666741,
      "v": 100
    },
    {
      "midi": 57,
      "hit": false,
      "t": 172720.63999999527,
      "d": 416.650666666741,
      "v": 100
    },
    {
      "midi": 53,
      "hit": false,
      "t": 172730.1093333286,
      "d": 416.650666666741,
      "v": 100
    },
    {
      "midi": 45,
      "hit": false,
      "t": 172730.1093333286,
      "d": 416.650666666741,
      "v": 100
    },
    {
      "midi": 41,
      "hit": false,
      "t": 172739.57866666195,
      "d": 416.650666666741,
      "v": 100
    },
    {
      "midi": 72,
      "hit": false,
      "t": 172834.27199999528,
      "d": 85.22400000001653,
      "v": 70
    },
    {
      "midi": 29,
      "hit": false,
      "t": 172834.27199999528,
      "d": 94.69333333335817,
      "v": 127
    },
    {
      "midi": 42,
      "hit": false,
      "t": 172843.74133332862,
      "d": 94.69333333335817,
      "v": 78
    },
    {
      "midi": 69,
      "hit": false,
      "t": 172947.90399999532,
      "d": 85.22400000001653,
      "v": 70
    },
    {
      "midi": 29,
      "hit": false,
      "t": 172947.90399999532,
      "d": 94.69333333335817,
      "v": 127
    },
    {
      "midi": 76,
      "hit": false,
      "t": 172947.90399999532,
      "d": 1136.3200000003271,
      "v": 127
    },
    {
      "midi": 46,
      "hit": false,
      "t": 172966.842666662,
      "d": 94.69333333332906,
      "v": 92
    },
    {
      "midi": 72,
      "hit": false,
      "t": 173061.53599999534,
      "d": 85.22400000001653,
      "v": 70
    },
    {
      "midi": 29,
      "hit": false,
      "t": 173061.53599999534,
      "d": 94.69333333335817,
      "v": 127
    },
    {
      "midi": 77,
      "hit": false,
      "t": 173175.16799999538,
      "d": 85.22400000001653,
      "v": 70
    },
    {
      "midi": 29,
      "hit": false,
      "t": 173175.16799999538,
      "d": 94.69333333335817,
      "v": 127
    },
    {
      "midi": 15,
      "hit": false,
      "t": 173175.16799999538,
      "d": 94.69333333335817,
      "v": 100
    },
    {
      "midi": 13,
      "hit": false,
      "t": 173175.16799999538,
      "d": 94.69333333335817,
      "v": 100
    },
    {
      "midi": 10,
      "hit": false,
      "t": 173175.16799999538,
      "d": 94.69333333335817,
      "v": 127
    },
    {
      "midi": 105,
      "hit": false,
      "t": 173175.16799999538,
      "d": 94.69333333335817,
      "v": 80
    },
    {
      "midi": 127,
      "hit": false,
      "t": 173175.16799999538,
      "d": 94.69333333335817,
      "v": 60
    },
    {
      "midi": 42,
      "hit": false,
      "t": 173175.16799999538,
      "d": 94.69333333335817,
      "v": 92
    },
    {
      "midi": 118,
      "hit": false,
      "t": 173175.16799999538,
      "d": 94.69333333335817,
      "v": 60
    },
    {
      "midi": 41,
      "hit": false,
      "t": 173175.16799999538,
      "d": 198.85600000005797,
      "v": 110
    },
    {
      "midi": 45,
      "hit": false,
      "t": 173175.16799999538,
      "d": 198.85600000005797,
      "v": 110
    },
    {
      "midi": 53,
      "hit": false,
      "t": 173184.63733332872,
      "d": 198.85600000005797,
      "v": 110
    },
    {
      "midi": 57,
      "hit": false,
      "t": 173184.63733332872,
      "d": 198.85600000005797,
      "v": 110
    },
    {
      "midi": 60,
      "hit": false,
      "t": 173194.10666666206,
      "d": 198.85600000005797,
      "v": 110
    },
    {
      "midi": 81,
      "hit": false,
      "t": 173288.79999999542,
      "d": 85.22400000001653,
      "v": 70
    },
    {
      "midi": 42,
      "hit": false,
      "t": 173298.26933332876,
      "d": 94.69333333335817,
      "v": 78
    },
    {
      "midi": 60,
      "hit": false,
      "t": 173392.96266666212,
      "d": 9.469333333341638,
      "v": 100
    },
    {
      "midi": 60,
      "hit": false,
      "t": 173402.43199999546,
      "d": 18.938666666683275,
      "v": 100
    },
    {
      "midi": 57,
      "hit": false,
      "t": 173402.43199999546,
      "d": 18.938666666683275,
      "v": 100
    },
    {
      "midi": 84,
      "hit": false,
      "t": 173402.43199999546,
      "d": 85.22400000004563,
      "v": 70
    },
    {
      "midi": 29,
      "hit": false,
      "t": 173402.43199999546,
      "d": 94.69333333338727,
      "v": 127
    },
    {
      "midi": 53,
      "hit": false,
      "t": 173411.9013333288,
      "d": 18.938666666683275,
      "v": 100
    },
    {
      "midi": 45,
      "hit": false,
      "t": 173411.9013333288,
      "d": 18.938666666683275,
      "v": 100
    },
    {
      "midi": 41,
      "hit": false,
      "t": 173421.37066666214,
      "d": 18.938666666683275,
      "v": 100
    },
    {
      "midi": 46,
      "hit": false,
      "t": 173421.37066666214,
      "d": 94.69333333338727,
      "v": 92
    },
    {
      "midi": 41,
      "hit": false,
      "t": 173516.06399999553,
      "d": 18.938666666683275,
      "v": 100
    },
    {
      "midi": 45,
      "hit": false,
      "t": 173516.06399999553,
      "d": 18.938666666683275,
      "v": 100
    },
    {
      "midi": 89,
      "hit": false,
      "t": 173516.06399999553,
      "d": 85.22400000001653,
      "v": 70
    },
    {
      "midi": 29,
      "hit": false,
      "t": 173516.06399999553,
      "d": 94.69333333335817,
      "v": 127
    },
    {
      "midi": 118,
      "hit": false,
      "t": 173516.06399999553,
      "d": 94.69333333335817,
      "v": 60
    },
    {
      "midi": 53,
      "hit": false,
      "t": 173525.53333332887,
      "d": 18.938666666683275,
      "v": 100
    },
    {
      "midi": 57,
      "hit": false,
      "t": 173525.53333332887,
      "d": 18.938666666683275,
      "v": 100
    },
    {
      "midi": 60,
      "hit": false,
      "t": 173535.0026666622,
      "d": 18.938666666683275,
      "v": 100
    },
    {
      "midi": 93,
      "hit": false,
      "t": 173629.69599999554,
      "d": 85.22400000001653,
      "v": 70
    },
    {
      "midi": 29,
      "hit": false,
      "t": 173629.69599999554,
      "d": 94.69333333335817,
      "v": 127
    },
    {
      "midi": 15,
      "hit": false,
      "t": 173629.69599999554,
      "d": 94.69333333335817,
      "v": 100
    },
    {
      "midi": 13,
      "hit": false,
      "t": 173629.69599999554,
      "d": 94.69333333335817,
      "v": 100
    },
    {
      "midi": 10,
      "hit": false,
      "t": 173629.69599999554,
      "d": 94.69333333335817,
      "v": 127
    },
    {
      "midi": 42,
      "hit": false,
      "t": 173629.69599999554,
      "d": 94.69333333335817,
      "v": 92
    },
    {
      "midi": 60,
      "hit": false,
      "t": 173629.69599999554,
      "d": 94.69333333335817,
      "v": 100
    },
    {
      "midi": 57,
      "hit": false,
      "t": 173629.69599999554,
      "d": 94.69333333335817,
      "v": 100
    },
    {
      "midi": 53,
      "hit": false,
      "t": 173639.16533332889,
      "d": 94.69333333335817,
      "v": 100
    },
    {
      "midi": 45,
      "hit": false,
      "t": 173639.16533332889,
      "d": 94.69333333335817,
      "v": 100
    },
    {
      "midi": 41,
      "hit": false,
      "t": 173648.63466666223,
      "d": 94.69333333335817,
      "v": 100
    },
    {
      "midi": 96,
      "hit": false,
      "t": 173743.32799999558,
      "d": 85.22400000001653,
      "v": 70
    },
    {
      "midi": 41,
      "hit": false,
      "t": 173743.32799999558,
      "d": 94.69333333335817,
      "v": 100
    },
    {
      "midi": 45,
      "hit": false,
      "t": 173743.32799999558,
      "d": 94.69333333335817,
      "v": 100
    },
    {
      "midi": 118,
      "hit": false,
      "t": 173743.32799999558,
      "d": 94.69333333335817,
      "v": 60
    },
    {
      "midi": 42,
      "hit": false,
      "t": 173752.79733332893,
      "d": 94.69333333335817,
      "v": 78
    },
    {
      "midi": 53,
      "hit": false,
      "t": 173752.79733332893,
      "d": 94.69333333335817,
      "v": 100
    },
    {
      "midi": 57,
      "hit": false,
      "t": 173752.79733332893,
      "d": 94.69333333335817,
      "v": 100
    },
    {
      "midi": 60,
      "hit": false,
      "t": 173762.26666666227,
      "d": 94.69333333335817,
      "v": 100
    },
    {
      "midi": 101,
      "hit": false,
      "t": 173856.95999999563,
      "d": 85.22400000001653,
      "v": 70
    },
    {
      "midi": 29,
      "hit": false,
      "t": 173856.95999999563,
      "d": 94.69333333335817,
      "v": 127
    },
    {
      "midi": 118,
      "hit": false,
      "t": 173856.95999999563,
      "d": 94.69333333335817,
      "v": 40
    },
    {
      "midi": 57,
      "hit": false,
      "t": 173856.95999999563,
      "d": 208.3253333333414,
      "v": 110
    },
    {
      "midi": 60,
      "hit": false,
      "t": 173856.95999999563,
      "d": 208.3253333333414,
      "v": 110
    },
    {
      "midi": 45,
      "hit": false,
      "t": 173866.42933332897,
      "d": 189.38666666665813,
      "v": 110
    },
    {
      "midi": 53,
      "hit": false,
      "t": 173866.42933332897,
      "d": 198.85599999999977,
      "v": 110
    },
    {
      "midi": 46,
      "hit": false,
      "t": 173875.8986666623,
      "d": 94.69333333332906,
      "v": 92
    },
    {
      "midi": 41,
      "hit": false,
      "t": 173875.8986666623,
      "d": 179.9173333333165,
      "v": 110
    },
    {
      "midi": 96,
      "hit": false,
      "t": 173970.59199999564,
      "d": 85.22399999998743,
      "v": 70
    },
    {
      "midi": 63,
      "hit": false,
      "t": 173970.59199999564,
      "d": 94.69333333332906,
      "v": 80
    },
    {
      "midi": 93,
      "hit": false,
      "t": 174084.22399999565,
      "d": 85.22400000004563,
      "v": 70
    },
    {
      "midi": 29,
      "hit": false,
      "t": 174084.22399999565,
      "d": 94.69333333338727,
      "v": 127
    },
    {
      "midi": 15,
      "hit": false,
      "t": 174084.22399999565,
      "d": 94.69333333338727,
      "v": 100
    },
    {
      "midi": 13,
      "hit": false,
      "t": 174084.22399999565,
      "d": 94.69333333338727,
      "v": 100
    },
    {
      "midi": 10,
      "hit": false,
      "t": 174084.22399999565,
      "d": 94.69333333338727,
      "v": 127
    },
    {
      "midi": 105,
      "hit": false,
      "t": 174084.22399999565,
      "d": 94.69333333338727,
      "v": 80
    },
    {
      "midi": 127,
      "hit": false,
      "t": 174084.22399999565,
      "d": 94.69333333338727,
      "v": 60
    },
    {
      "midi": 42,
      "hit": false,
      "t": 174084.22399999565,
      "d": 94.69333333338727,
      "v": 92
    },
    {
      "midi": 118,
      "hit": false,
      "t": 174084.22399999565,
      "d": 94.69333333338727,
      "v": 60
    },
    {
      "midi": 64,
      "hit": false,
      "t": 174084.22399999565,
      "d": 94.69333333338727,
      "v": 80
    },
    {
      "midi": 76,
      "hit": false,
      "t": 174084.22399999565,
      "d": 331.4266666669282,
      "v": 127
    },
    {
      "midi": 45,
      "hit": false,
      "t": 174084.22399999565,
      "d": 426.1200000003446,
      "v": 110
    },
    {
      "midi": 41,
      "hit": false,
      "t": 174093.693333329,
      "d": 416.65066666700295,
      "v": 110
    },
    {
      "midi": 89,
      "hit": false,
      "t": 174197.85599999572,
      "d": 85.22400000007474,
      "v": 70
    },
    {
      "midi": 29,
      "hit": false,
      "t": 174197.85599999572,
      "d": 94.69333333341638,
      "v": 127
    },
    {
      "midi": 42,
      "hit": false,
      "t": 174207.32533332906,
      "d": 94.69333333341638,
      "v": 78
    },
    {
      "midi": 47,
      "hit": false,
      "t": 174311.48799999582,
      "d": 18.938666666683275,
      "v": 64
    },
    {
      "midi": 84,
      "hit": false,
      "t": 174311.48799999582,
      "d": 85.22400000007474,
      "v": 70
    },
    {
      "midi": 29,
      "hit": false,
      "t": 174311.48799999582,
      "d": 94.69333333341638,
      "v": 127
    },
    {
      "midi": 118,
      "hit": false,
      "t": 174311.48799999582,
      "d": 94.69333333341638,
      "v": 60
    },
    {
      "midi": 48,
      "hit": false,
      "t": 174320.95733332916,
      "d": 18.938666666683275,
      "v": 64
    },
    {
      "midi": 49,
      "hit": false,
      "t": 174330.4266666625,
      "d": 18.938666666683275,
      "v": 64
    },
    {
      "midi": 46,
      "hit": false,
      "t": 174330.4266666625,
      "d": 94.69333333341638,
      "v": 92
    },
    {
      "midi": 50,
      "hit": false,
      "t": 174339.89599999585,
      "d": 18.938666666683275,
      "v": 64
    },
    {
      "midi": 51,
      "hit": false,
      "t": 174349.3653333292,
      "d": 18.938666666683275,
      "v": 64
    },
    {
      "midi": 52,
      "hit": false,
      "t": 174358.83466666253,
      "d": 18.938666666683275,
      "v": 64
    },
    {
      "midi": 53,
      "hit": false,
      "t": 174368.30399999587,
      "d": 18.938666666683275,
      "v": 64
    },
    {
      "midi": 54,
      "hit": false,
      "t": 174377.7733333292,
      "d": 18.938666666683275,
      "v": 64
    },
    {
      "midi": 55,
      "hit": false,
      "t": 174387.24266666255,
      "d": 18.938666666683275,
      "v": 64
    },
    {
      "midi": 56,
      "hit": false,
      "t": 174396.7119999959,
      "d": 18.938666666683275,
      "v": 64
    },
    {
      "midi": 57,
      "hit": false,
      "t": 174406.18133332924,
      "d": 18.938666666683275,
      "v": 64
    },
    {
      "midi": 58,
      "hit": false,
      "t": 174415.65066666258,
      "d": 18.938666666683275,
      "v": 64
    },
    {
      "midi": 59,
      "hit": false,
      "t": 174425.11999999592,
      "d": 18.938666666683275,
      "v": 64
    },
    {
      "midi": 81,
      "hit": false,
      "t": 174425.11999999592,
      "d": 85.22400000007474,
      "v": 70
    },
    {
      "midi": 118,
      "hit": false,
      "t": 174425.11999999592,
      "d": 94.69333333341638,
      "v": 40
    },
    {
      "midi": 72,
      "hit": false,
      "t": 174425.11999999592,
      "d": 123.10133333344129,
      "v": 127
    },
    {
      "midi": 60,
      "hit": false,
      "t": 174434.58933332926,
      "d": 18.938666666683275,
      "v": 64
    },
    {
      "midi": 61,
      "hit": false,
      "t": 174444.0586666626,
      "d": 18.938666666683275,
      "v": 64
    },
    {
      "midi": 62,
      "hit": false,
      "t": 174453.52799999595,
      "d": 18.938666666683275,
      "v": 64
    },
    {
      "midi": 63,
      "hit": false,
      "t": 174462.9973333293,
      "d": 18.938666666683275,
      "v": 64
    },
    {
      "midi": 64,
      "hit": false,
      "t": 174472.46666666263,
      "d": 18.938666666683275,
      "v": 64
    },
    {
      "midi": 65,
      "hit": false,
      "t": 174481.93599999597,
      "d": 18.938666666683275,
      "v": 64
    },
    {
      "midi": 66,
      "hit": false,
      "t": 174491.4053333293,
      "d": 18.938666666683275,
      "v": 64
    },
    {
      "midi": 67,
      "hit": false,
      "t": 174500.87466666265,
      "d": 18.938666666683275,
      "v": 64
    },
    {
      "midi": 68,
      "hit": false,
      "t": 174510.343999996,
      "d": 18.938666666683275,
      "v": 64
    },
    {
      "midi": 69,
      "hit": false,
      "t": 174519.81333332934,
      "d": 18.938666666683275,
      "v": 64
    },
    {
      "midi": 70,
      "hit": false,
      "t": 174529.28266666268,
      "d": 18.938666666683275,
      "v": 64
    },
    {
      "midi": 15,
      "hit": false,
      "t": 174538.75199999602,
      "d": 94.69333333335817,
      "v": 100
    },
    {
      "midi": 13,
      "hit": false,
      "t": 174538.75199999602,
      "d": 94.69333333335817,
      "v": 100
    },
    {
      "midi": 10,
      "hit": false,
      "t": 174538.75199999602,
      "d": 94.69333333335817,
      "v": 127
    },
    {
      "midi": 127,
      "hit": false,
      "t": 174538.75199999602,
      "d": 94.69333333335817,
      "v": 60
    },
    {
      "midi": 108,
      "hit": false,
      "t": 174538.75199999602,
      "d": 94.69333333335817,
      "v": 80
    },
    {
      "midi": 105,
      "hit": false,
      "t": 174538.75199999602,
      "d": 94.69333333335817,
      "v": 100
    },
    {
      "midi": 42,
      "hit": false,
      "t": 174538.75199999602,
      "d": 94.69333333335817,
      "v": 92
    },
    {
      "midi": 31,
      "hit": false,
      "t": 174538.75199999602,
      "d": 321.95733333338285,
      "v": 127
    },
    {
      "midi": 70,
      "hit": false,
      "t": 174548.22133332936,
      "d": 9.469333333341638,
      "v": 64
    },
    {
      "midi": 79,
      "hit": false,
      "t": 174548.22133332936,
      "d": 75.7546666666749,
      "v": 117
    },
    {
      "midi": 67,
      "hit": false,
      "t": 174548.22133332936,
      "d": 284.0800000000163,
      "v": 80
    },
    {
      "midi": 62,
      "hit": false,
      "t": 174557.6906666627,
      "d": 303.0186666666996,
      "v": 80
    },
    {
      "midi": 43,
      "hit": false,
      "t": 174557.6906666627,
      "d": 321.95733333338285,
      "v": 110
    },
    {
      "midi": 47,
      "hit": false,
      "t": 174557.6906666627,
      "d": 946.9333333336399,
      "v": 115
    },
    {
      "midi": 50,
      "hit": false,
      "t": 174567.15999999605,
      "d": 303.0186666666996,
      "v": 115
    },
    {
      "midi": 59,
      "hit": false,
      "t": 174576.6293333294,
      "d": 293.54933333335794,
      "v": 115
    },
    {
      "midi": 74,
      "hit": false,
      "t": 174652.38399999603,
      "d": 85.22400000001653,
      "v": 70
    },
    {
      "midi": 42,
      "hit": false,
      "t": 174661.85333332937,
      "d": 94.69333333332906,
      "v": 78
    },
    {
      "midi": 71,
      "hit": false,
      "t": 174766.01599999605,
      "d": 66.28533333333326,
      "v": 70
    },
    {
      "midi": 46,
      "hit": false,
      "t": 174784.9546666627,
      "d": 94.69333333338727,
      "v": 92
    },
    {
      "midi": 127,
      "hit": false,
      "t": 174879.6479999961,
      "d": 94.69333333335817,
      "v": 60
    },
    {
      "midi": 108,
      "hit": false,
      "t": 174879.6479999961,
      "d": 94.69333333335817,
      "v": 80
    },
    {
      "midi": 105,
      "hit": false,
      "t": 174879.6479999961,
      "d": 94.69333333335817,
      "v": 100
    },
    {
      "midi": 126,
      "hit": false,
      "t": 174879.6479999961,
      "d": 94.69333333335817,
      "v": 100
    },
    {
      "midi": 31,
      "hit": false,
      "t": 174879.6479999961,
      "d": 321.95733333335374,
      "v": 127
    },
    {
      "midi": 43,
      "hit": false,
      "t": 174879.6479999961,
      "d": 321.95733333335374,
      "v": 100
    },
    {
      "midi": 50,
      "hit": false,
      "t": 174879.6479999961,
      "d": 321.95733333335374,
      "v": 100
    },
    {
      "midi": 74,
      "hit": false,
      "t": 174889.11733332943,
      "d": 75.7546666666749,
      "v": 117
    },
    {
      "midi": 59,
      "hit": false,
      "t": 174889.11733332943,
      "d": 303.01866666667047,
      "v": 100
    },
    {
      "midi": 62,
      "hit": false,
      "t": 174889.11733332943,
      "d": 312.4880000000121,
      "v": 100
    },
    {
      "midi": 71,
      "hit": false,
      "t": 174898.58666666277,
      "d": 274.61066666667466,
      "v": 80
    },
    {
      "midi": 67,
      "hit": false,
      "t": 174898.58666666277,
      "d": 274.61066666667466,
      "v": 100
    },
    {
      "midi": 79,
      "hit": false,
      "t": 174993.2799999961,
      "d": 85.22400000001653,
      "v": 70
    },
    {
      "midi": 15,
      "hit": false,
      "t": 174993.2799999961,
      "d": 94.69333333335817,
      "v": 100
    },
    {
      "midi": 13,
      "hit": false,
      "t": 174993.2799999961,
      "d": 94.69333333335817,
      "v": 100
    },
    {
      "midi": 10,
      "hit": false,
      "t": 174993.2799999961,
      "d": 94.69333333335817,
      "v": 127
    },
    {
      "midi": 42,
      "hit": false,
      "t": 174993.2799999961,
      "d": 94.69333333335817,
      "v": 92
    },
    {
      "midi": 118,
      "hit": false,
      "t": 174993.2799999961,
      "d": 94.69333333335817,
      "v": 50
    },
    {
      "midi": 83,
      "hit": false,
      "t": 175106.9119999961,
      "d": 85.22399999998743,
      "v": 70
    },
    {
      "midi": 42,
      "hit": false,
      "t": 175116.38133332945,
      "d": 94.69333333332906,
      "v": 78
    },
    {
      "midi": 67,
      "hit": false,
      "t": 175211.07466666278,
      "d": 9.469333333341638,
      "v": 80
    },
    {
      "midi": 86,
      "hit": false,
      "t": 175220.54399999612,
      "d": 85.22400000004563,
      "v": 116
    },
    {
      "midi": 127,
      "hit": false,
      "t": 175220.54399999612,
      "d": 94.69333333338727,
      "v": 60
    },
    {
      "midi": 108,
      "hit": false,
      "t": 175220.54399999612,
      "d": 94.69333333338727,
      "v": 80
    },
    {
      "midi": 105,
      "hit": false,
      "t": 175220.54399999612,
      "d": 94.69333333338727,
      "v": 100
    },
    {
      "midi": 31,
      "hit": false,
      "t": 175220.54399999612,
      "d": 208.32533333348692,
      "v": 127
    },
    {
      "midi": 67,
      "hit": false,
      "t": 175230.01333332947,
      "d": 189.38666666680365,
      "v": 80
    },
    {
      "midi": 71,
      "hit": false,
      "t": 175230.01333332947,
      "d": 198.8560000001453,
      "v": 117
    },
    {
      "midi": 59,
      "hit": false,
      "t": 175230.01333332947,
      "d": 208.32533333348692,
      "v": 80
    },
    {
      "midi": 50,
      "hit": false,
      "t": 175230.01333332947,
      "d": 208.32533333348692,
      "v": 100
    },
    {
      "midi": 74,
      "hit": false,
      "t": 175230.01333332947,
      "d": 227.2640000001702,
      "v": 117
    },
    {
      "midi": 79,
      "hit": false,
      "t": 175230.01333332947,
      "d": 227.2640000001702,
      "v": 117
    },
    {
      "midi": 46,
      "hit": false,
      "t": 175239.4826666628,
      "d": 94.69333333338727,
      "v": 92
    },
    {
      "midi": 62,
      "hit": false,
      "t": 175239.4826666628,
      "d": 189.38666666680365,
      "v": 80
    },
    {
      "midi": 43,
      "hit": false,
      "t": 175239.4826666628,
      "d": 208.32533333348692,
      "v": 100
    },
    {
      "midi": 91,
      "hit": false,
      "t": 175334.1759999962,
      "d": 85.22400000007474,
      "v": 70
    },
    {
      "midi": 118,
      "hit": false,
      "t": 175334.1759999962,
      "d": 94.69333333341638,
      "v": 50
    },
    {
      "midi": 95,
      "hit": false,
      "t": 175447.8079999963,
      "d": 85.22400000007474,
      "v": 70
    },
    {
      "midi": 31,
      "hit": false,
      "t": 175447.8079999963,
      "d": 94.69333333341638,
      "v": 127
    },
    {
      "midi": 15,
      "hit": false,
      "t": 175447.8079999963,
      "d": 94.69333333341638,
      "v": 100
    },
    {
      "midi": 13,
      "hit": false,
      "t": 175447.8079999963,
      "d": 94.69333333341638,
      "v": 100
    },
    {
      "midi": 10,
      "hit": false,
      "t": 175447.8079999963,
      "d": 94.69333333341638,
      "v": 127
    },
    {
      "midi": 42,
      "hit": false,
      "t": 175447.8079999963,
      "d": 94.69333333341638,
      "v": 92
    },
    {
      "midi": 55,
      "hit": false,
      "t": 175447.8079999963,
      "d": 123.10133333341219,
      "v": 105
    },
    {
      "midi": 72,
      "hit": false,
      "t": 175447.8079999963,
      "d": 208.32533333342872,
      "v": 127
    },
    {
      "midi": 98,
      "hit": false,
      "t": 175561.43999999636,
      "d": 85.22400000001653,
      "v": 70
    },
    {
      "midi": 33,
      "hit": false,
      "t": 175561.43999999636,
      "d": 94.69333333335817,
      "v": 127
    },
    {
      "midi": 57,
      "hit": false,
      "t": 175561.43999999636,
      "d": 123.10133333338308,
      "v": 105
    },
    {
      "midi": 42,
      "hit": false,
      "t": 175570.9093333297,
      "d": 94.69333333335817,
      "v": 78
    },
    {
      "midi": 103,
      "hit": false,
      "t": 175675.0719999964,
      "d": 85.22400000001653,
      "v": 70
    },
    {
      "midi": 35,
      "hit": false,
      "t": 175675.0719999964,
      "d": 94.69333333335817,
      "v": 127
    },
    {
      "midi": 48,
      "hit": false,
      "t": 175675.0719999964,
      "d": 94.69333333335817,
      "v": 127
    },
    {
      "midi": 59,
      "hit": false,
      "t": 175675.0719999964,
      "d": 123.10133333335398,
      "v": 105
    },
    {
      "midi": 76,
      "hit": false,
      "t": 175675.0719999964,
      "d": 445.05866666676593,
      "v": 127
    },
    {
      "midi": 46,
      "hit": false,
      "t": 175694.0106666631,
      "d": 94.69333333332906,
      "v": 92
    },
    {
      "midi": 98,
      "hit": false,
      "t": 175788.70399999642,
      "d": 85.22400000001653,
      "v": 70
    },
    {
      "midi": 36,
      "hit": false,
      "t": 175788.70399999642,
      "d": 94.69333333335817,
      "v": 127
    },
    {
      "midi": 60,
      "hit": false,
      "t": 175788.70399999642,
      "d": 123.10133333338308,
      "v": 105
    },
    {
      "midi": 95,
      "hit": false,
      "t": 175902.33599999646,
      "d": 85.22400000001653,
      "v": 70
    },
    {
      "midi": 38,
      "hit": false,
      "t": 175902.33599999646,
      "d": 94.69333333335817,
      "v": 127
    },
    {
      "midi": 15,
      "hit": false,
      "t": 175902.33599999646,
      "d": 94.69333333335817,
      "v": 100
    },
    {
      "midi": 45,
      "hit": false,
      "t": 175902.33599999646,
      "d": 94.69333333335817,
      "v": 127
    },
    {
      "midi": 13,
      "hit": false,
      "t": 175902.33599999646,
      "d": 94.69333333335817,
      "v": 100
    },
    {
      "midi": 10,
      "hit": false,
      "t": 175902.33599999646,
      "d": 94.69333333335817,
      "v": 127
    },
    {
      "midi": 42,
      "hit": false,
      "t": 175902.33599999646,
      "d": 94.69333333335817,
      "v": 92
    },
    {
      "midi": 62,
      "hit": false,
      "t": 175902.33599999646,
      "d": 123.10133333335398,
      "v": 105
    },
    {
      "midi": 91,
      "hit": false,
      "t": 176015.96799999647,
      "d": 85.22400000001653,
      "v": 70
    },
    {
      "midi": 40,
      "hit": false,
      "t": 176015.96799999647,
      "d": 94.69333333335817,
      "v": 127
    },
    {
      "midi": 43,
      "hit": false,
      "t": 176015.96799999647,
      "d": 94.69333333335817,
      "v": 127
    },
    {
      "midi": 64,
      "hit": false,
      "t": 176015.96799999647,
      "d": 123.10133333338308,
      "v": 105
    },
    {
      "midi": 42,
      "hit": false,
      "t": 176025.4373333298,
      "d": 94.69333333335817,
      "v": 78
    },
    {
      "midi": 86,
      "hit": false,
      "t": 176129.5999999965,
      "d": 85.22399999998743,
      "v": 70
    },
    {
      "midi": 41,
      "hit": false,
      "t": 176129.5999999965,
      "d": 94.69333333332906,
      "v": 127
    },
    {
      "midi": 65,
      "hit": false,
      "t": 176129.5999999965,
      "d": 123.10133333332487,
      "v": 105
    },
    {
      "midi": 84,
      "hit": false,
      "t": 176129.5999999965,
      "d": 3844.5493333343184,
      "v": 87
    },
    {
      "midi": 46,
      "hit": false,
      "t": 176148.5386666632,
      "d": 94.69333333329996,
      "v": 92
    },
    {
      "midi": 83,
      "hit": false,
      "t": 176243.2319999965,
      "d": 85.22400000001653,
      "v": 70
    },
    {
      "midi": 43,
      "hit": false,
      "t": 176243.2319999965,
      "d": 94.69333333335817,
      "v": 127
    },
    {
      "midi": 67,
      "hit": false,
      "t": 176243.2319999965,
      "d": 123.10133333338308,
      "v": 105
    },
    {
      "midi": 60,
      "hit": false,
      "t": 176356.86399999654,
      "d": 66.28533333336236,
      "v": 110
    },
    {
      "midi": 24,
      "hit": false,
      "t": 176356.86399999654,
      "d": 94.69333333335817,
      "v": 127
    },
    {
      "midi": 15,
      "hit": false,
      "t": 176356.86399999654,
      "d": 94.69333333335817,
      "v": 100
    },
    {
      "midi": 13,
      "hit": false,
      "t": 176356.86399999654,
      "d": 94.69333333335817,
      "v": 100
    },
    {
      "midi": 10,
      "hit": false,
      "t": 176356.86399999654,
      "d": 94.69333333335817,
      "v": 127
    },
    {
      "midi": 42,
      "hit": false,
      "t": 176356.86399999654,
      "d": 94.69333333335817,
      "v": 92
    },
    {
      "midi": 57,
      "hit": false,
      "t": 176356.86399999654,
      "d": 909.0560000002151,
      "v": 80
    },
    {
      "midi": 60,
      "hit": false,
      "t": 176461.02666666324,
      "d": 75.7546666666749,
      "v": 100
    },
    {
      "midi": 24,
      "hit": false,
      "t": 176470.49599999658,
      "d": 94.69333333332906,
      "v": 127
    },
    {
      "midi": 64,
      "hit": false,
      "t": 176470.49599999658,
      "d": 94.69333333332906,
      "v": 110
    },
    {
      "midi": 42,
      "hit": false,
      "t": 176479.96533332992,
      "d": 94.69333333332906,
      "v": 78
    },
    {
      "midi": 60,
      "hit": false,
      "t": 176574.65866666325,
      "d": 75.7546666666749,
      "v": 100
    },
    {
      "midi": 79,
      "hit": false,
      "t": 176574.65866666325,
      "d": 94.69333333335817,
      "v": 80
    },
    {
      "midi": 48,
      "hit": false,
      "t": 176584.1279999966,
      "d": 94.69333333335817,
      "v": 80
    },
    {
      "midi": 36,
      "hit": false,
      "t": 176584.1279999966,
      "d": 94.69333333335817,
      "v": 127
    },
    {
      "midi": 64,
      "hit": false,
      "t": 176584.1279999966,
      "d": 94.69333333335817,
      "v": 110
    },
    {
      "midi": 62,
      "hit": false,
      "t": 176584.1279999966,
      "d": 94.69333333335817,
      "v": 100
    },
    {
      "midi": 72,
      "hit": false,
      "t": 176584.1279999966,
      "d": 94.69333333335817,
      "v": 80
    },
    {
      "midi": 46,
      "hit": false,
      "t": 176603.06666666325,
      "d": 94.69333333338727,
      "v": 92
    },
    {
      "midi": 60,
      "hit": false,
      "t": 176688.2906666633,
      "d": 75.7546666666749,
      "v": 100
    },
    {
      "midi": 72,
      "hit": false,
      "t": 176688.2906666633,
      "d": 94.69333333332906,
      "v": 80
    },
    {
      "midi": 64,
      "hit": false,
      "t": 176697.75999999663,
      "d": 85.22399999998743,
      "v": 70
    },
    {
      "midi": 24,
      "hit": false,
      "t": 176697.75999999663,
      "d": 94.69333333332906,
      "v": 127
    },
    {
      "midi": 79,
      "hit": false,
      "t": 176697.75999999663,
      "d": 94.69333333332906,
      "v": 80
    },
    {
      "midi": 79,
      "hit": false,
      "t": 176801.9226666633,
      "d": 94.69333333332906,
      "v": 80
    },
    {
      "midi": 62,
      "hit": false,
      "t": 176811.39199999665,
      "d": 18.93866666665417,
      "v": 70
    },
    {
      "midi": 60,
      "hit": false,
      "t": 176811.39199999665,
      "d": 66.28533333330415,
      "v": 127
    },
    {
      "midi": 24,
      "hit": false,
      "t": 176811.39199999665,
      "d": 94.69333333332906,
      "v": 127
    },
    {
      "midi": 67,
      "hit": false,
      "t": 176811.39199999665,
      "d": 94.69333333332906,
      "v": 110
    },
    {
      "midi": 15,
      "hit": false,
      "t": 176811.39199999665,
      "d": 94.69333333332906,
      "v": 100
    },
    {
      "midi": 13,
      "hit": false,
      "t": 176811.39199999665,
      "d": 94.69333333332906,
      "v": 100
    },
    {
      "midi": 10,
      "hit": false,
      "t": 176811.39199999665,
      "d": 94.69333333332906,
      "v": 127
    },
    {
      "midi": 127,
      "hit": false,
      "t": 176811.39199999665,
      "d": 94.69333333332906,
      "v": 60
    },
    {
      "midi": 108,
      "hit": false,
      "t": 176811.39199999665,
      "d": 94.69333333332906,
      "v": 80
    },
    {
      "midi": 105,
      "hit": false,
      "t": 176811.39199999665,
      "d": 94.69333333332906,
      "v": 100
    },
    {
      "midi": 42,
      "hit": false,
      "t": 176811.39199999665,
      "d": 94.69333333332906,
      "v": 92
    },
    {
      "midi": 72,
      "hit": false,
      "t": 176811.39199999665,
      "d": 94.69333333332906,
      "v": 80
    },
    {
      "midi": 118,
      "hit": false,
      "t": 176811.39199999665,
      "d": 94.69333333332906,
      "v": 60
    },
    {
      "midi": 63,
      "hit": false,
      "t": 176811.39199999665,
      "d": 94.69333333332906,
      "v": 70
    },
    {
      "midi": 72,
      "hit": false,
      "t": 176915.55466666332,
      "d": 94.69333333335817,
      "v": 80
    },
    {
      "midi": 60,
      "hit": false,
      "t": 176925.02399999666,
      "d": 66.28533333336236,
      "v": 110
    },
    {
      "midi": 24,
      "hit": false,
      "t": 176925.02399999666,
      "d": 94.69333333335817,
      "v": 127
    },
    {
      "midi": 67,
      "hit": false,
      "t": 176925.02399999666,
      "d": 94.69333333335817,
      "v": 73
    },
    {
      "midi": 79,
      "hit": false,
      "t": 176925.02399999666,
      "d": 94.69333333335817,
      "v": 80
    },
    {
      "midi": 42,
      "hit": false,
      "t": 176934.49333333,
      "d": 94.69333333335817,
      "v": 78
    },
    {
      "midi": 60,
      "hit": false,
      "t": 177029.18666666336,
      "d": 75.7546666666749,
      "v": 100
    },
    {
      "midi": 79,
      "hit": false,
      "t": 177029.18666666336,
      "d": 94.69333333332906,
      "v": 80
    },
    {
      "midi": 48,
      "hit": false,
      "t": 177038.6559999967,
      "d": 94.69333333332906,
      "v": 80
    },
    {
      "midi": 36,
      "hit": false,
      "t": 177038.6559999967,
      "d": 94.69333333332906,
      "v": 127
    },
    {
      "midi": 62,
      "hit": false,
      "t": 177038.6559999967,
      "d": 94.69333333332906,
      "v": 100
    },
    {
      "midi": 72,
      "hit": false,
      "t": 177038.6559999967,
      "d": 94.69333333332906,
      "v": 80
    },
    {
      "midi": 46,
      "hit": false,
      "t": 177057.59466666335,
      "d": 94.69333333335817,
      "v": 92
    },
    {
      "midi": 60,
      "hit": false,
      "t": 177142.81866666337,
      "d": 75.7546666666749,
      "v": 100
    },
    {
      "midi": 72,
      "hit": false,
      "t": 177142.81866666337,
      "d": 94.69333333335817,
      "v": 80
    },
    {
      "midi": 24,
      "hit": false,
      "t": 177152.2879999967,
      "d": 94.69333333335817,
      "v": 127
    },
    {
      "midi": 64,
      "hit": false,
      "t": 177152.2879999967,
      "d": 94.69333333335817,
      "v": 110
    },
    {
      "midi": 79,
      "hit": false,
      "t": 177152.2879999967,
      "d": 94.69333333335817,
      "v": 80
    },
    {
      "midi": 118,
      "hit": false,
      "t": 177152.2879999967,
      "d": 94.69333333335817,
      "v": 60
    },
    {
      "midi": 79,
      "hit": false,
      "t": 177256.4506666634,
      "d": 94.69333333332906,
      "v": 80
    },
    {
      "midi": 62,
      "hit": false,
      "t": 177265.91999999675,
      "d": 18.93866666665417,
      "v": 70
    },
    {
      "midi": 24,
      "hit": false,
      "t": 177265.91999999675,
      "d": 94.69333333332906,
      "v": 127
    },
    {
      "midi": 15,
      "hit": false,
      "t": 177265.91999999675,
      "d": 94.69333333332906,
      "v": 100
    },
    {
      "midi": 13,
      "hit": false,
      "t": 177265.91999999675,
      "d": 94.69333333332906,
      "v": 100
    },
    {
      "midi": 10,
      "hit": false,
      "t": 177265.91999999675,
      "d": 94.69333333332906,
      "v": 127
    },
    {
      "midi": 42,
      "hit": false,
      "t": 177265.91999999675,
      "d": 94.69333333332906,
      "v": 92
    },
    {
      "midi": 72,
      "hit": false,
      "t": 177265.91999999675,
      "d": 94.69333333332906,
      "v": 80
    },
    {
      "midi": 60,
      "hit": false,
      "t": 177370.08266666342,
      "d": 9.469333333341638,
      "v": 100
    },
    {
      "midi": 72,
      "hit": false,
      "t": 177370.08266666342,
      "d": 9.469333333341638,
      "v": 80
    },
    {
      "midi": 62,
      "hit": false,
      "t": 177379.55199999677,
      "d": 18.938666666683275,
      "v": 70
    },
    {
      "midi": 60,
      "hit": false,
      "t": 177379.55199999677,
      "d": 66.28533333333326,
      "v": 110
    },
    {
      "midi": 24,
      "hit": false,
      "t": 177379.55199999677,
      "d": 94.69333333332906,
      "v": 127
    },
    {
      "midi": 79,
      "hit": false,
      "t": 177379.55199999677,
      "d": 94.69333333332906,
      "v": 80
    },
    {
      "midi": 118,
      "hit": false,
      "t": 177379.55199999677,
      "d": 94.69333333332906,
      "v": 60
    },
    {
      "midi": 42,
      "hit": false,
      "t": 177389.0213333301,
      "d": 94.69333333332906,
      "v": 78
    },
    {
      "midi": 60,
      "hit": false,
      "t": 177483.71466666344,
      "d": 75.7546666666749,
      "v": 100
    },
    {
      "midi": 79,
      "hit": false,
      "t": 177483.71466666344,
      "d": 94.69333333335817,
      "v": 80
    },
    {
      "midi": 59,
      "hit": false,
      "t": 177493.18399999678,
      "d": 75.7546666666749,
      "v": 110
    },
    {
      "midi": 71,
      "hit": false,
      "t": 177493.18399999678,
      "d": 75.7546666666749,
      "v": 120
    },
    {
      "midi": 48,
      "hit": false,
      "t": 177493.18399999678,
      "d": 94.69333333335817,
      "v": 80
    },
    {
      "midi": 36,
      "hit": false,
      "t": 177493.18399999678,
      "d": 94.69333333335817,
      "v": 127
    },
    {
      "midi": 64,
      "hit": false,
      "t": 177493.18399999678,
      "d": 94.69333333335817,
      "v": 110
    },
    {
      "midi": 62,
      "hit": false,
      "t": 177493.18399999678,
      "d": 94.69333333335817,
      "v": 100
    },
    {
      "midi": 72,
      "hit": false,
      "t": 177493.18399999678,
      "d": 94.69333333335817,
      "v": 80
    },
    {
      "midi": 118,
      "hit": false,
      "t": 177493.18399999678,
      "d": 94.69333333335817,
      "v": 40
    },
    {
      "midi": 46,
      "hit": false,
      "t": 177512.12266666343,
      "d": 94.69333333338727,
      "v": 92
    },
    {
      "midi": 60,
      "hit": false,
      "t": 177597.34666666348,
      "d": 75.7546666666749,
      "v": 100
    },
    {
      "midi": 62,
      "hit": false,
      "t": 177606.81599999682,
      "d": 85.22400000001653,
      "v": 110
    },
    {
      "midi": 24,
      "hit": false,
      "t": 177606.81599999682,
      "d": 94.69333333335817,
      "v": 127
    },
    {
      "midi": 63,
      "hit": false,
      "t": 177606.81599999682,
      "d": 94.69333333335817,
      "v": 80
    },
    {
      "midi": 79,
      "hit": false,
      "t": 177710.97866666352,
      "d": 94.69333333335817,
      "v": 80
    },
    {
      "midi": 62,
      "hit": false,
      "t": 177720.44799999686,
      "d": 18.93866666665417,
      "v": 70
    },
    {
      "midi": 60,
      "hit": false,
      "t": 177720.44799999686,
      "d": 66.28533333333326,
      "v": 110
    },
    {
      "midi": 72,
      "hit": false,
      "t": 177720.44799999686,
      "d": 75.7546666666749,
      "v": 80
    },
    {
      "midi": 24,
      "hit": false,
      "t": 177720.44799999686,
      "d": 94.69333333335817,
      "v": 127
    },
    {
      "midi": 15,
      "hit": false,
      "t": 177720.44799999686,
      "d": 94.69333333335817,
      "v": 100
    },
    {
      "midi": 13,
      "hit": false,
      "t": 177720.44799999686,
      "d": 94.69333333335817,
      "v": 100
    },
    {
      "midi": 10,
      "hit": false,
      "t": 177720.44799999686,
      "d": 94.69333333335817,
      "v": 127
    },
    {
      "midi": 127,
      "hit": false,
      "t": 177720.44799999686,
      "d": 94.69333333335817,
      "v": 60
    },
    {
      "midi": 108,
      "hit": false,
      "t": 177720.44799999686,
      "d": 94.69333333335817,
      "v": 80
    },
    {
      "midi": 105,
      "hit": false,
      "t": 177720.44799999686,
      "d": 94.69333333335817,
      "v": 100
    },
    {
      "midi": 42,
      "hit": false,
      "t": 177720.44799999686,
      "d": 94.69333333335817,
      "v": 92
    },
    {
      "midi": 118,
      "hit": false,
      "t": 177720.44799999686,
      "d": 94.69333333335817,
      "v": 60
    },
    {
      "midi": 64,
      "hit": false,
      "t": 177720.44799999686,
      "d": 94.69333333335817,
      "v": 70
    },
    {
      "midi": 72,
      "hit": false,
      "t": 177824.61066666356,
      "d": 94.69333333332906,
      "v": 80
    },
    {
      "midi": 60,
      "hit": false,
      "t": 177834.0799999969,
      "d": 66.28533333333326,
      "v": 110
    },
    {
      "midi": 24,
      "hit": false,
      "t": 177834.0799999969,
      "d": 94.69333333332906,
      "v": 127
    },
    {
      "midi": 79,
      "hit": false,
      "t": 177834.0799999969,
      "d": 94.69333333332906,
      "v": 80
    },
    {
      "midi": 42,
      "hit": false,
      "t": 177843.54933333024,
      "d": 94.69333333332906,
      "v": 78
    },
    {
      "midi": 60,
      "hit": false,
      "t": 177938.24266666357,
      "d": 75.7546666666749,
      "v": 100
    },
    {
      "midi": 79,
      "hit": false,
      "t": 177947.7119999969,
      "d": 85.22399999998743,
      "v": 120
    },
    {
      "midi": 48,
      "hit": false,
      "t": 177947.7119999969,
      "d": 94.69333333332906,
      "v": 80
    },
    {
      "midi": 36,
      "hit": false,
      "t": 177947.7119999969,
      "d": 94.69333333332906,
      "v": 127
    },
    {
      "midi": 62,
      "hit": false,
      "t": 177947.7119999969,
      "d": 94.69333333332906,
      "v": 100
    },
    {
      "midi": 72,
      "hit": false,
      "t": 177947.7119999969,
      "d": 94.69333333332906,
      "v": 80
    },
    {
      "midi": 118,
      "hit": false,
      "t": 177947.7119999969,
      "d": 94.69333333332906,
      "v": 60
    },
    {
      "midi": 46,
      "hit": false,
      "t": 177966.65066666357,
      "d": 94.69333333335817,
      "v": 92
    },
    {
      "midi": 60,
      "hit": false,
      "t": 178051.87466666359,
      "d": 75.7546666666749,
      "v": 100
    },
    {
      "midi": 72,
      "hit": false,
      "t": 178051.87466666359,
      "d": 94.69333333332906,
      "v": 80
    },
    {
      "midi": 64,
      "hit": false,
      "t": 178061.34399999693,
      "d": 85.22399999998743,
      "v": 110
    },
    {
      "midi": 24,
      "hit": false,
      "t": 178061.34399999693,
      "d": 94.69333333332906,
      "v": 127
    },
    {
      "midi": 79,
      "hit": false,
      "t": 178061.34399999693,
      "d": 94.69333333332906,
      "v": 80
    },
    {
      "midi": 118,
      "hit": false,
      "t": 178061.34399999693,
      "d": 94.69333333332906,
      "v": 40
    },
    {
      "midi": 64,
      "hit": false,
      "t": 178165.5066666636,
      "d": 75.75466666664579,
      "v": 100
    },
    {
      "midi": 62,
      "hit": false,
      "t": 178174.97599999694,
      "d": 18.93866666665417,
      "v": 70
    },
    {
      "midi": 28,
      "hit": false,
      "t": 178174.97599999694,
      "d": 94.69333333329996,
      "v": 127
    },
    {
      "midi": 15,
      "hit": false,
      "t": 178174.97599999694,
      "d": 94.69333333329996,
      "v": 100
    },
    {
      "midi": 13,
      "hit": false,
      "t": 178174.97599999694,
      "d": 94.69333333329996,
      "v": 100
    },
    {
      "midi": 10,
      "hit": false,
      "t": 178174.97599999694,
      "d": 94.69333333329996,
      "v": 127
    },
    {
      "midi": 42,
      "hit": false,
      "t": 178174.97599999694,
      "d": 94.69333333329996,
      "v": 92
    },
    {
      "midi": 59,
      "hit": false,
      "t": 178174.97599999694,
      "d": 321.95733333338285,
      "v": 110
    },
    {
      "midi": 69,
      "hit": false,
      "t": 178174.97599999694,
      "d": 643.9146666667948,
      "v": 127
    },
    {
      "midi": 64,
      "hit": false,
      "t": 178279.13866666358,
      "d": 75.754666666704,
      "v": 100
    },
    {
      "midi": 28,
      "hit": false,
      "t": 178288.60799999692,
      "d": 94.69333333335817,
      "v": 127
    },
    {
      "midi": 42,
      "hit": false,
      "t": 178298.07733333026,
      "d": 94.69333333335817,
      "v": 78
    },
    {
      "midi": 64,
      "hit": false,
      "t": 178392.77066666362,
      "d": 75.7546666666749,
      "v": 100
    },
    {
      "midi": 79,
      "hit": false,
      "t": 178392.77066666362,
      "d": 94.69333333335817,
      "v": 80
    },
    {
      "midi": 52,
      "hit": false,
      "t": 178402.23999999696,
      "d": 94.69333333335817,
      "v": 80
    },
    {
      "midi": 40,
      "hit": false,
      "t": 178402.23999999696,
      "d": 94.69333333335817,
      "v": 127
    },
    {
      "midi": 62,
      "hit": false,
      "t": 178402.23999999696,
      "d": 94.69333333335817,
      "v": 100
    },
    {
      "midi": 72,
      "hit": false,
      "t": 178402.23999999696,
      "d": 94.69333333335817,
      "v": 80
    },
    {
      "midi": 46,
      "hit": false,
      "t": 178421.17866666365,
      "d": 94.69333333335817,
      "v": 92
    },
    {
      "midi": 64,
      "hit": false,
      "t": 178515.871999997,
      "d": 66.28533333333326,
      "v": 70
    },
    {
      "midi": 28,
      "hit": false,
      "t": 178515.871999997,
      "d": 94.69333333332906,
      "v": 127
    },
    {
      "midi": 59,
      "hit": false,
      "t": 178515.871999997,
      "d": 94.69333333332906,
      "v": 110
    },
    {
      "midi": 64,
      "hit": false,
      "t": 178620.03466666368,
      "d": 75.7546666666749,
      "v": 100
    },
    {
      "midi": 72,
      "hit": false,
      "t": 178620.03466666368,
      "d": 94.69333333335817,
      "v": 80
    },
    {
      "midi": 62,
      "hit": false,
      "t": 178629.50399999702,
      "d": 18.938666666683275,
      "v": 70
    },
    {
      "midi": 28,
      "hit": false,
      "t": 178629.50399999702,
      "d": 94.69333333335817,
      "v": 127
    },
    {
      "midi": 15,
      "hit": false,
      "t": 178629.50399999702,
      "d": 94.69333333335817,
      "v": 100
    },
    {
      "midi": 13,
      "hit": false,
      "t": 178629.50399999702,
      "d": 94.69333333335817,
      "v": 100
    },
    {
      "midi": 10,
      "hit": false,
      "t": 178629.50399999702,
      "d": 94.69333333335817,
      "v": 127
    },
    {
      "midi": 127,
      "hit": false,
      "t": 178629.50399999702,
      "d": 94.69333333335817,
      "v": 60
    },
    {
      "midi": 108,
      "hit": false,
      "t": 178629.50399999702,
      "d": 94.69333333335817,
      "v": 80
    },
    {
      "midi": 105,
      "hit": false,
      "t": 178629.50399999702,
      "d": 94.69333333335817,
      "v": 100
    },
    {
      "midi": 42,
      "hit": false,
      "t": 178629.50399999702,
      "d": 94.69333333335817,
      "v": 92
    },
    {
      "midi": 79,
      "hit": false,
      "t": 178629.50399999702,
      "d": 94.69333333335817,
      "v": 80
    },
    {
      "midi": 118,
      "hit": false,
      "t": 178629.50399999702,
      "d": 94.69333333335817,
      "v": 60
    },
    {
      "midi": 63,
      "hit": false,
      "t": 178629.50399999702,
      "d": 94.69333333335817,
      "v": 70
    },
    {
      "midi": 64,
      "hit": false,
      "t": 178733.66666666372,
      "d": 75.7546666666749,
      "v": 100
    },
    {
      "midi": 79,
      "hit": false,
      "t": 178733.66666666372,
      "d": 94.69333333335817,
      "v": 80
    },
    {
      "midi": 28,
      "hit": false,
      "t": 178743.13599999706,
      "d": 94.69333333335817,
      "v": 127
    },
    {
      "midi": 59,
      "hit": false,
      "t": 178743.13599999706,
      "d": 94.69333333335817,
      "v": 110
    },
    {
      "midi": 72,
      "hit": false,
      "t": 178743.13599999706,
      "d": 94.69333333335817,
      "v": 80
    },
    {
      "midi": 42,
      "hit": false,
      "t": 178752.6053333304,
      "d": 94.69333333335817,
      "v": 78
    },
    {
      "midi": 72,
      "hit": false,
      "t": 178847.29866666376,
      "d": 94.69333333338727,
      "v": 80
    },
    {
      "midi": 64,
      "hit": false,
      "t": 178856.7679999971,
      "d": 66.28533333336236,
      "v": 110
    },
    {
      "midi": 52,
      "hit": false,
      "t": 178856.7679999971,
      "d": 94.69333333338727,
      "v": 80
    },
    {
      "midi": 40,
      "hit": false,
      "t": 178856.7679999971,
      "d": 94.69333333338727,
      "v": 127
    },
    {
      "midi": 62,
      "hit": false,
      "t": 178856.7679999971,
      "d": 94.69333333338727,
      "v": 100
    },
    {
      "midi": 79,
      "hit": false,
      "t": 178856.7679999971,
      "d": 94.69333333338727,
      "v": 80
    },
    {
      "midi": 67,
      "hit": false,
      "t": 178856.7679999971,
      "d": 113.63200000007055,
      "v": 127
    },
    {
      "midi": 46,
      "hit": false,
      "t": 178875.70666666378,
      "d": 94.69333333338727,
      "v": 92
    },
    {
      "midi": 79,
      "hit": false,
      "t": 178960.93066666383,
      "d": 94.69333333335817,
      "v": 80
    },
    {
      "midi": 62,
      "hit": false,
      "t": 178970.39999999717,
      "d": 18.938666666683275,
      "v": 70
    },
    {
      "midi": 64,
      "hit": false,
      "t": 178970.39999999717,
      "d": 66.28533333333326,
      "v": 110
    },
    {
      "midi": 28,
      "hit": false,
      "t": 178970.39999999717,
      "d": 94.69333333335817,
      "v": 127
    },
    {
      "midi": 72,
      "hit": false,
      "t": 178970.39999999717,
      "d": 94.69333333335817,
      "v": 80
    },
    {
      "midi": 118,
      "hit": false,
      "t": 178970.39999999717,
      "d": 94.69333333335817,
      "v": 60
    },
    {
      "midi": 72,
      "hit": false,
      "t": 179074.56266666387,
      "d": 94.69333333335817,
      "v": 80
    },
    {
      "midi": 62,
      "hit": false,
      "t": 179084.0319999972,
      "d": 37.87733333333745,
      "v": 80
    },
    {
      "midi": 28,
      "hit": false,
      "t": 179084.0319999972,
      "d": 94.69333333335817,
      "v": 127
    },
    {
      "midi": 15,
      "hit": false,
      "t": 179084.0319999972,
      "d": 94.69333333335817,
      "v": 100
    },
    {
      "midi": 13,
      "hit": false,
      "t": 179084.0319999972,
      "d": 94.69333333335817,
      "v": 100
    },
    {
      "midi": 10,
      "hit": false,
      "t": 179084.0319999972,
      "d": 94.69333333335817,
      "v": 127
    },
    {
      "midi": 42,
      "hit": false,
      "t": 179084.0319999972,
      "d": 94.69333333335817,
      "v": 92
    },
    {
      "midi": 79,
      "hit": false,
      "t": 179084.0319999972,
      "d": 94.69333333335817,
      "v": 80
    },
    {
      "midi": 67,
      "hit": false,
      "t": 179084.0319999972,
      "d": 568.160000000149,
      "v": 127
    },
    {
      "midi": 64,
      "hit": false,
      "t": 179188.1946666639,
      "d": 75.7546666666749,
      "v": 100
    },
    {
      "midi": 28,
      "hit": false,
      "t": 179197.66399999725,
      "d": 94.69333333332906,
      "v": 127
    },
    {
      "midi": 60,
      "hit": false,
      "t": 179197.66399999725,
      "d": 94.69333333332906,
      "v": 110
    },
    {
      "midi": 118,
      "hit": false,
      "t": 179197.66399999725,
      "d": 94.69333333332906,
      "v": 60
    },
    {
      "midi": 42,
      "hit": false,
      "t": 179207.1333333306,
      "d": 94.69333333332906,
      "v": 78
    },
    {
      "midi": 64,
      "hit": false,
      "t": 179311.29599999727,
      "d": 66.28533333336236,
      "v": 110
    },
    {
      "midi": 52,
      "hit": false,
      "t": 179311.29599999727,
      "d": 94.69333333335817,
      "v": 80
    },
    {
      "midi": 40,
      "hit": false,
      "t": 179311.29599999727,
      "d": 94.69333333335817,
      "v": 127
    },
    {
      "midi": 62,
      "hit": false,
      "t": 179311.29599999727,
      "d": 94.69333333335817,
      "v": 100
    },
    {
      "midi": 118,
      "hit": false,
      "t": 179311.29599999727,
      "d": 94.69333333335817,
      "v": 40
    },
    {
      "midi": 46,
      "hit": false,
      "t": 179330.23466666395,
      "d": 94.69333333335817,
      "v": 92
    },
    {
      "midi": 64,
      "hit": false,
      "t": 179415.45866666397,
      "d": 75.7546666666749,
      "v": 100
    },
    {
      "midi": 28,
      "hit": false,
      "t": 179424.9279999973,
      "d": 94.69333333332906,
      "v": 127
    },
    {
      "midi": 62,
      "hit": false,
      "t": 179424.9279999973,
      "d": 94.69333333332906,
      "v": 110
    },
    {
      "midi": 63,
      "hit": false,
      "t": 179424.9279999973,
      "d": 94.69333333332906,
      "v": 80
    },
    {
      "midi": 79,
      "hit": false,
      "t": 179529.09066666398,
      "d": 94.69333333335817,
      "v": 80
    },
    {
      "midi": 62,
      "hit": false,
      "t": 179538.55999999732,
      "d": 18.938666666683275,
      "v": 70
    },
    {
      "midi": 64,
      "hit": false,
      "t": 179538.55999999732,
      "d": 66.28533333333326,
      "v": 70
    },
    {
      "midi": 28,
      "hit": false,
      "t": 179538.55999999732,
      "d": 94.69333333335817,
      "v": 127
    },
    {
      "midi": 60,
      "hit": false,
      "t": 179538.55999999732,
      "d": 94.69333333335817,
      "v": 110
    },
    {
      "midi": 15,
      "hit": false,
      "t": 179538.55999999732,
      "d": 94.69333333335817,
      "v": 100
    },
    {
      "midi": 13,
      "hit": false,
      "t": 179538.55999999732,
      "d": 94.69333333335817,
      "v": 100
    },
    {
      "midi": 10,
      "hit": false,
      "t": 179538.55999999732,
      "d": 94.69333333335817,
      "v": 127
    },
    {
      "midi": 127,
      "hit": false,
      "t": 179538.55999999732,
      "d": 94.69333333335817,
      "v": 60
    },
    {
      "midi": 108,
      "hit": false,
      "t": 179538.55999999732,
      "d": 94.69333333335817,
      "v": 80
    },
    {
      "midi": 105,
      "hit": false,
      "t": 179538.55999999732,
      "d": 94.69333333335817,
      "v": 100
    },
    {
      "midi": 42,
      "hit": false,
      "t": 179538.55999999732,
      "d": 94.69333333335817,
      "v": 92
    },
    {
      "midi": 72,
      "hit": false,
      "t": 179538.55999999732,
      "d": 94.69333333335817,
      "v": 80
    },
    {
      "midi": 118,
      "hit": false,
      "t": 179538.55999999732,
      "d": 94.69333333335817,
      "v": 60
    },
    {
      "midi": 64,
      "hit": false,
      "t": 179642.72266666402,
      "d": 75.7546666666749,
      "v": 100
    },
    {
      "midi": 72,
      "hit": false,
      "t": 179642.72266666402,
      "d": 94.69333333335817,
      "v": 80
    },
    {
      "midi": 79,
      "hit": false,
      "t": 179652.19199999736,
      "d": 37.87733333333745,
      "v": 80
    },
    {
      "midi": 28,
      "hit": false,
      "t": 179652.19199999736,
      "d": 94.69333333335817,
      "v": 127
    },
    {
      "midi": 60,
      "hit": false,
      "t": 179652.19199999736,
      "d": 94.69333333335817,
      "v": 110
    },
    {
      "midi": 42,
      "hit": false,
      "t": 179661.6613333307,
      "d": 94.69333333335817,
      "v": 78
    },
    {
      "midi": 64,
      "hit": false,
      "t": 179756.35466666406,
      "d": 75.7546666666749,
      "v": 100
    },
    {
      "midi": 79,
      "hit": false,
      "t": 179756.35466666406,
      "d": 94.69333333335817,
      "v": 80
    },
    {
      "midi": 59,
      "hit": false,
      "t": 179765.8239999974,
      "d": 75.7546666666749,
      "v": 110
    },
    {
      "midi": 71,
      "hit": false,
      "t": 179765.8239999974,
      "d": 75.7546666666749,
      "v": 120
    },
    {
      "midi": 52,
      "hit": false,
      "t": 179765.8239999974,
      "d": 94.69333333335817,
      "v": 80
    },
    {
      "midi": 40,
      "hit": false,
      "t": 179765.8239999974,
      "d": 94.69333333335817,
      "v": 127
    },
    {
      "midi": 62,
      "hit": false,
      "t": 179765.8239999974,
      "d": 94.69333333335817,
      "v": 100
    },
    {
      "midi": 15,
      "hit": false,
      "t": 179765.8239999974,
      "d": 94.69333333335817,
      "v": 100
    },
    {
      "midi": 13,
      "hit": false,
      "t": 179765.8239999974,
      "d": 94.69333333335817,
      "v": 100
    },
    {
      "midi": 10,
      "hit": false,
      "t": 179765.8239999974,
      "d": 94.69333333335817,
      "v": 127
    },
    {
      "midi": 72,
      "hit": false,
      "t": 179765.8239999974,
      "d": 94.69333333335817,
      "v": 80
    },
    {
      "midi": 118,
      "hit": false,
      "t": 179765.8239999974,
      "d": 94.69333333335817,
      "v": 60
    },
    {
      "midi": 46,
      "hit": false,
      "t": 179784.7626666641,
      "d": 94.69333333335817,
      "v": 92
    },
    {
      "midi": 72,
      "hit": false,
      "t": 179869.9866666641,
      "d": 94.69333333338727,
      "v": 80
    },
    {
      "midi": 64,
      "hit": false,
      "t": 179879.45599999744,
      "d": 66.28533333336236,
      "v": 110
    },
    {
      "midi": 28,
      "hit": false,
      "t": 179879.45599999744,
      "d": 94.69333333338727,
      "v": 127
    },
    {
      "midi": 79,
      "hit": false,
      "t": 179879.45599999744,
      "d": 94.69333333338727,
      "v": 80
    },
    {
      "midi": 118,
      "hit": false,
      "t": 179879.45599999744,
      "d": 94.69333333338727,
      "v": 40
    },
    {
      "midi": 65,
      "hit": false,
      "t": 179993.08799999751,
      "d": 66.28533333336236,
      "v": 110
    },
    {
      "midi": 29,
      "hit": false,
      "t": 179993.08799999751,
      "d": 94.69333333335817,
      "v": 127
    },
    {
      "midi": 15,
      "hit": false,
      "t": 179993.08799999751,
      "d": 94.69333333335817,
      "v": 100
    },
    {
      "midi": 13,
      "hit": false,
      "t": 179993.08799999751,
      "d": 94.69333333335817,
      "v": 100
    },
    {
      "midi": 10,
      "hit": false,
      "t": 179993.08799999751,
      "d": 94.69333333335817,
      "v": 127
    },
    {
      "midi": 42,
      "hit": false,
      "t": 179993.08799999751,
      "d": 94.69333333335817,
      "v": 92
    },
    {
      "midi": 60,
      "hit": false,
      "t": 179993.08799999751,
      "d": 1022.6880000001402,
      "v": 110
    },
    {
      "midi": 65,
      "hit": false,
      "t": 180097.25066666421,
      "d": 75.754666666704,
      "v": 100
    },
    {
      "midi": 29,
      "hit": false,
      "t": 180106.71999999756,
      "d": 94.69333333335817,
      "v": 127
    },
    {
      "midi": 69,
      "hit": false,
      "t": 180106.71999999756,
      "d": 94.69333333335817,
      "v": 110
    },
    {
      "midi": 42,
      "hit": false,
      "t": 180116.1893333309,
      "d": 94.69333333335817,
      "v": 78
    },
    {
      "midi": 79,
      "hit": false,
      "t": 180210.88266666426,
      "d": 94.69333333332906,
      "v": 100
    },
    {
      "midi": 65,
      "hit": false,
      "t": 180220.3519999976,
      "d": 66.28533333333326,
      "v": 100
    },
    {
      "midi": 53,
      "hit": false,
      "t": 180220.3519999976,
      "d": 94.69333333332906,
      "v": 80
    },
    {
      "midi": 41,
      "hit": false,
      "t": 180220.3519999976,
      "d": 94.69333333332906,
      "v": 127
    },
    {
      "midi": 69,
      "hit": false,
      "t": 180220.3519999976,
      "d": 94.69333333332906,
      "v": 110
    },
    {
      "midi": 72,
      "hit": false,
      "t": 180220.3519999976,
      "d": 94.69333333332906,
      "v": 100
    },
    {
      "midi": 46,
      "hit": false,
      "t": 180239.29066666425,
      "d": 94.69333333335817,
      "v": 92
    },
    {
      "midi": 72,
      "hit": false,
      "t": 180324.51466666427,
      "d": 94.69333333335817,
      "v": 50
    },
    {
      "midi": 65,
      "hit": false,
      "t": 180333.9839999976,
      "d": 66.28533333333326,
      "v": 110
    },
    {
      "midi": 29,
      "hit": false,
      "t": 180333.9839999976,
      "d": 94.69333333335817,
      "v": 127
    },
    {
      "midi": 79,
      "hit": false,
      "t": 180333.9839999976,
      "d": 94.69333333335817,
      "v": 50
    },
    {
      "midi": 64,
      "hit": false,
      "t": 180333.9839999976,
      "d": 94.69333333335817,
      "v": 70
    },
    {
      "midi": 79,
      "hit": false,
      "t": 180438.1466666643,
      "d": 94.69333333329996,
      "v": 100
    },
    {
      "midi": 65,
      "hit": false,
      "t": 180447.61599999765,
      "d": 18.93866666665417,
      "v": 70
    },
    {
      "midi": 29,
      "hit": false,
      "t": 180447.61599999765,
      "d": 94.69333333329996,
      "v": 127
    },
    {
      "midi": 69,
      "hit": false,
      "t": 180447.61599999765,
      "d": 94.69333333329996,
      "v": 110
    },
    {
      "midi": 15,
      "hit": false,
      "t": 180447.61599999765,
      "d": 94.69333333329996,
      "v": 100
    },
    {
      "midi": 13,
      "hit": false,
      "t": 180447.61599999765,
      "d": 94.69333333329996,
      "v": 100
    },
    {
      "midi": 10,
      "hit": false,
      "t": 180447.61599999765,
      "d": 94.69333333329996,
      "v": 127
    },
    {
      "midi": 127,
      "hit": false,
      "t": 180447.61599999765,
      "d": 94.69333333329996,
      "v": 60
    },
    {
      "midi": 108,
      "hit": false,
      "t": 180447.61599999765,
      "d": 94.69333333329996,
      "v": 80
    },
    {
      "midi": 105,
      "hit": false,
      "t": 180447.61599999765,
      "d": 94.69333333329996,
      "v": 100
    },
    {
      "midi": 42,
      "hit": false,
      "t": 180447.61599999765,
      "d": 94.69333333329996,
      "v": 92
    },
    {
      "midi": 72,
      "hit": false,
      "t": 180447.61599999765,
      "d": 94.69333333329996,
      "v": 100
    },
    {
      "midi": 118,
      "hit": false,
      "t": 180447.61599999765,
      "d": 94.69333333329996,
      "v": 60
    },
    {
      "midi": 63,
      "hit": false,
      "t": 180447.61599999765,
      "d": 94.69333333329996,
      "v": 70
    },
    {
      "midi": 65,
      "hit": false,
      "t": 180551.7786666643,
      "d": 75.7546666666749,
      "v": 100
    },
    {
      "midi": 72,
      "hit": false,
      "t": 180551.7786666643,
      "d": 94.69333333332906,
      "v": 100
    },
    {
      "midi": 29,
      "hit": false,
      "t": 180561.24799999763,
      "d": 94.69333333332906,
      "v": 127
    },
    {
      "midi": 79,
      "hit": false,
      "t": 180561.24799999763,
      "d": 94.69333333332906,
      "v": 100
    },
    {
      "midi": 42,
      "hit": false,
      "t": 180570.71733333098,
      "d": 94.69333333332906,
      "v": 78
    },
    {
      "midi": 79,
      "hit": false,
      "t": 180665.4106666643,
      "d": 94.69333333332906,
      "v": 100
    },
    {
      "midi": 65,
      "hit": false,
      "t": 180674.87999999765,
      "d": 66.28533333333326,
      "v": 100
    },
    {
      "midi": 53,
      "hit": false,
      "t": 180674.87999999765,
      "d": 94.69333333332906,
      "v": 80
    },
    {
      "midi": 41,
      "hit": false,
      "t": 180674.87999999765,
      "d": 94.69333333332906,
      "v": 127
    },
    {
      "midi": 69,
      "hit": false,
      "t": 180674.87999999765,
      "d": 94.69333333332906,
      "v": 110
    },
    {
      "midi": 72,
      "hit": false,
      "t": 180674.87999999765,
      "d": 94.69333333332906,
      "v": 100
    },
    {
      "midi": 46,
      "hit": false,
      "t": 180693.8186666643,
      "d": 94.69333333335817,
      "v": 92
    },
    {
      "midi": 72,
      "hit": false,
      "t": 180779.04266666432,
      "d": 94.69333333329996,
      "v": 100
    },
    {
      "midi": 65,
      "hit": false,
      "t": 180788.51199999766,
      "d": 18.93866666665417,
      "v": 70
    },
    {
      "midi": 29,
      "hit": false,
      "t": 180788.51199999766,
      "d": 94.69333333329996,
      "v": 127
    },
    {
      "midi": 79,
      "hit": false,
      "t": 180788.51199999766,
      "d": 94.69333333329996,
      "v": 100
    },
    {
      "midi": 118,
      "hit": false,
      "t": 180788.51199999766,
      "d": 94.69333333329996,
      "v": 60
    },
    {
      "midi": 79,
      "hit": false,
      "t": 180892.6746666643,
      "d": 94.69333333332906,
      "v": 100
    },
    {
      "midi": 65,
      "hit": false,
      "t": 180902.14399999764,
      "d": 18.93866666665417,
      "v": 70
    },
    {
      "midi": 29,
      "hit": false,
      "t": 180902.14399999764,
      "d": 94.69333333332906,
      "v": 127
    },
    {
      "midi": 15,
      "hit": false,
      "t": 180902.14399999764,
      "d": 94.69333333332906,
      "v": 100
    },
    {
      "midi": 13,
      "hit": false,
      "t": 180902.14399999764,
      "d": 94.69333333332906,
      "v": 100
    },
    {
      "midi": 10,
      "hit": false,
      "t": 180902.14399999764,
      "d": 94.69333333332906,
      "v": 127
    },
    {
      "midi": 42,
      "hit": false,
      "t": 180902.14399999764,
      "d": 94.69333333332906,
      "v": 92
    },
    {
      "midi": 72,
      "hit": false,
      "t": 180902.14399999764,
      "d": 94.69333333332906,
      "v": 100
    },
    {
      "midi": 65,
      "hit": false,
      "t": 181006.3066666643,
      "d": 75.7546666666749,
      "v": 100
    },
    {
      "midi": 29,
      "hit": false,
      "t": 181015.77599999766,
      "d": 94.69333333332906,
      "v": 127
    },
    {
      "midi": 69,
      "hit": false,
      "t": 181015.77599999766,
      "d": 94.69333333332906,
      "v": 110
    },
    {
      "midi": 118,
      "hit": false,
      "t": 181015.77599999766,
      "d": 94.69333333332906,
      "v": 60
    },
    {
      "midi": 42,
      "hit": false,
      "t": 181025.245333331,
      "d": 94.69333333332906,
      "v": 78
    },
    {
      "midi": 65,
      "hit": false,
      "t": 181129.40799999767,
      "d": 66.28533333330415,
      "v": 100
    },
    {
      "midi": 59,
      "hit": false,
      "t": 181129.40799999767,
      "d": 75.75466666664579,
      "v": 110
    },
    {
      "midi": 71,
      "hit": false,
      "t": 181129.40799999767,
      "d": 75.75466666664579,
      "v": 120
    },
    {
      "midi": 53,
      "hit": false,
      "t": 181129.40799999767,
      "d": 94.69333333329996,
      "v": 80
    },
    {
      "midi": 41,
      "hit": false,
      "t": 181129.40799999767,
      "d": 94.69333333329996,
      "v": 127
    },
    {
      "midi": 69,
      "hit": false,
      "t": 181129.40799999767,
      "d": 94.69333333329996,
      "v": 110
    },
    {
      "midi": 118,
      "hit": false,
      "t": 181129.40799999767,
      "d": 94.69333333329996,
      "v": 40
    },
    {
      "midi": 46,
      "hit": false,
      "t": 181148.34666666432,
      "d": 94.69333333332906,
      "v": 92
    },
    {
      "midi": 65,
      "hit": false,
      "t": 181243.03999999765,
      "d": 66.28533333333326,
      "v": 110
    },
    {
      "midi": 29,
      "hit": false,
      "t": 181243.03999999765,
      "d": 94.69333333332906,
      "v": 127
    },
    {
      "midi": 63,
      "hit": false,
      "t": 181243.03999999765,
      "d": 94.69333333332906,
      "v": 80
    },
    {
      "midi": 79,
      "hit": false,
      "t": 181347.20266666432,
      "d": 94.69333333335817,
      "v": 100
    },
    {
      "midi": 65,
      "hit": false,
      "t": 181356.67199999766,
      "d": 18.93866666665417,
      "v": 70
    },
    {
      "midi": 60,
      "hit": false,
      "t": 181356.67199999766,
      "d": 75.7546666666749,
      "v": 110
    },
    {
      "midi": 72,
      "hit": false,
      "t": 181356.67199999766,
      "d": 75.7546666666749,
      "v": 100
    },
    {
      "midi": 29,
      "hit": false,
      "t": 181356.67199999766,
      "d": 94.69333333335817,
      "v": 127
    },
    {
      "midi": 69,
      "hit": false,
      "t": 181356.67199999766,
      "d": 94.69333333335817,
      "v": 110
    },
    {
      "midi": 15,
      "hit": false,
      "t": 181356.67199999766,
      "d": 94.69333333335817,
      "v": 100
    },
    {
      "midi": 13,
      "hit": false,
      "t": 181356.67199999766,
      "d": 94.69333333335817,
      "v": 100
    },
    {
      "midi": 10,
      "hit": false,
      "t": 181356.67199999766,
      "d": 94.69333333335817,
      "v": 127
    },
    {
      "midi": 127,
      "hit": false,
      "t": 181356.67199999766,
      "d": 94.69333333335817,
      "v": 60
    },
    {
      "midi": 108,
      "hit": false,
      "t": 181356.67199999766,
      "d": 94.69333333335817,
      "v": 80
    },
    {
      "midi": 105,
      "hit": false,
      "t": 181356.67199999766,
      "d": 94.69333333335817,
      "v": 100
    },
    {
      "midi": 42,
      "hit": false,
      "t": 181356.67199999766,
      "d": 94.69333333335817,
      "v": 92
    },
    {
      "midi": 118,
      "hit": false,
      "t": 181356.67199999766,
      "d": 94.69333333335817,
      "v": 60
    },
    {
      "midi": 64,
      "hit": false,
      "t": 181356.67199999766,
      "d": 94.69333333335817,
      "v": 70
    },
    {
      "midi": 65,
      "hit": false,
      "t": 181460.83466666436,
      "d": 75.754666666704,
      "v": 100
    },
    {
      "midi": 72,
      "hit": false,
      "t": 181460.83466666436,
      "d": 94.69333333335817,
      "v": 100
    },
    {
      "midi": 29,
      "hit": false,
      "t": 181470.3039999977,
      "d": 94.69333333335817,
      "v": 127
    },
    {
      "midi": 79,
      "hit": false,
      "t": 181470.3039999977,
      "d": 94.69333333335817,
      "v": 100
    },
    {
      "midi": 42,
      "hit": false,
      "t": 181479.77333333105,
      "d": 94.69333333335817,
      "v": 78
    },
    {
      "midi": 65,
      "hit": false,
      "t": 181583.93599999775,
      "d": 66.28533333330415,
      "v": 100
    },
    {
      "midi": 79,
      "hit": false,
      "t": 181583.93599999775,
      "d": 85.22399999998743,
      "v": 120
    },
    {
      "midi": 53,
      "hit": false,
      "t": 181583.93599999775,
      "d": 94.69333333332906,
      "v": 80
    },
    {
      "midi": 41,
      "hit": false,
      "t": 181583.93599999775,
      "d": 94.69333333332906,
      "v": 127
    },
    {
      "midi": 69,
      "hit": false,
      "t": 181583.93599999775,
      "d": 94.69333333332906,
      "v": 110
    },
    {
      "midi": 72,
      "hit": false,
      "t": 181583.93599999775,
      "d": 94.69333333332906,
      "v": 100
    },
    {
      "midi": 118,
      "hit": false,
      "t": 181583.93599999775,
      "d": 94.69333333332906,
      "v": 60
    },
    {
      "midi": 46,
      "hit": false,
      "t": 181602.8746666644,
      "d": 94.69333333335817,
      "v": 92
    },
    {
      "midi": 72,
      "hit": false,
      "t": 181688.09866666442,
      "d": 94.69333333329996,
      "v": 100
    },
    {
      "midi": 65,
      "hit": false,
      "t": 181697.56799999776,
      "d": 66.28533333330415,
      "v": 110
    },
    {
      "midi": 29,
      "hit": false,
      "t": 181697.56799999776,
      "d": 94.69333333329996,
      "v": 127
    },
    {
      "midi": 79,
      "hit": false,
      "t": 181697.56799999776,
      "d": 94.69333333329996,
      "v": 100
    },
    {
      "midi": 118,
      "hit": false,
      "t": 181697.56799999776,
      "d": 94.69333333329996,
      "v": 40
    },
    {
      "midi": 67,
      "hit": false,
      "t": 181801.7306666644,
      "d": 75.7546666666749,
      "v": 100
    },
    {
      "midi": 62,
      "hit": false,
      "t": 181811.19999999774,
      "d": 18.93866666665417,
      "v": 70
    },
    {
      "midi": 31,
      "hit": false,
      "t": 181811.19999999774,
      "d": 94.69333333332906,
      "v": 127
    },
    {
      "midi": 15,
      "hit": false,
      "t": 181811.19999999774,
      "d": 94.69333333332906,
      "v": 100
    },
    {
      "midi": 13,
      "hit": false,
      "t": 181811.19999999774,
      "d": 94.69333333332906,
      "v": 100
    },
    {
      "midi": 10,
      "hit": false,
      "t": 181811.19999999774,
      "d": 94.69333333332906,
      "v": 127
    },
    {
      "midi": 42,
      "hit": false,
      "t": 181811.19999999774,
      "d": 94.69333333332906,
      "v": 92
    },
    {
      "midi": 67,
      "hit": false,
      "t": 181915.3626666644,
      "d": 75.7546666666749,
      "v": 100
    },
    {
      "midi": 31,
      "hit": false,
      "t": 181924.83199999775,
      "d": 94.69333333332906,
      "v": 127
    },
    {
      "midi": 59,
      "hit": false,
      "t": 181924.83199999775,
      "d": 94.69333333332906,
      "v": 110
    },
    {
      "midi": 42,
      "hit": false,
      "t": 181934.3013333311,
      "d": 94.69333333332906,
      "v": 78
    },
    {
      "midi": 67,
      "hit": false,
      "t": 182028.99466666442,
      "d": 75.7546666666749,
      "v": 100
    },
    {
      "midi": 79,
      "hit": false,
      "t": 182028.99466666442,
      "d": 94.69333333332906,
      "v": 100
    },
    {
      "midi": 55,
      "hit": false,
      "t": 182038.46399999777,
      "d": 94.69333333332906,
      "v": 80
    },
    {
      "midi": 43,
      "hit": false,
      "t": 182038.46399999777,
      "d": 94.69333333332906,
      "v": 127
    },
    {
      "midi": 62,
      "hit": false,
      "t": 182038.46399999777,
      "d": 94.69333333332906,
      "v": 100
    },
    {
      "midi": 72,
      "hit": false,
      "t": 182038.46399999777,
      "d": 94.69333333332906,
      "v": 100
    },
    {
      "midi": 77,
      "hit": false,
      "t": 182038.46399999777,
      "d": 284.0800000000163,
      "v": 120
    },
    {
      "midi": 65,
      "hit": false,
      "t": 182038.46399999777,
      "d": 284.0800000000163,
      "v": 110
    },
    {
      "midi": 46,
      "hit": false,
      "t": 182057.40266666442,
      "d": 94.69333333335817,
      "v": 92
    },
    {
      "midi": 72,
      "hit": false,
      "t": 182142.62666666444,
      "d": 94.69333333332906,
      "v": 100
    },
    {
      "midi": 67,
      "hit": false,
      "t": 182152.09599999778,
      "d": 66.28533333333326,
      "v": 110
    },
    {
      "midi": 31,
      "hit": false,
      "t": 182152.09599999778,
      "d": 94.69333333332906,
      "v": 127
    },
    {
      "midi": 79,
      "hit": false,
      "t": 182152.09599999778,
      "d": 94.69333333332906,
      "v": 100
    },
    {
      "midi": 64,
      "hit": false,
      "t": 182152.09599999778,
      "d": 94.69333333332906,
      "v": 70
    },
    {
      "midi": 67,
      "hit": false,
      "t": 182256.25866666445,
      "d": 75.7546666666749,
      "v": 100
    },
    {
      "midi": 79,
      "hit": false,
      "t": 182256.25866666445,
      "d": 94.69333333332906,
      "v": 100
    },
    {
      "midi": 62,
      "hit": false,
      "t": 182265.7279999978,
      "d": 18.93866666665417,
      "v": 70
    },
    {
      "midi": 31,
      "hit": false,
      "t": 182265.7279999978,
      "d": 94.69333333332906,
      "v": 127
    },
    {
      "midi": 71,
      "hit": false,
      "t": 182265.7279999978,
      "d": 94.69333333332906,
      "v": 110
    },
    {
      "midi": 15,
      "hit": false,
      "t": 182265.7279999978,
      "d": 94.69333333332906,
      "v": 100
    },
    {
      "midi": 13,
      "hit": false,
      "t": 182265.7279999978,
      "d": 94.69333333332906,
      "v": 100
    },
    {
      "midi": 10,
      "hit": false,
      "t": 182265.7279999978,
      "d": 94.69333333332906,
      "v": 127
    },
    {
      "midi": 127,
      "hit": false,
      "t": 182265.7279999978,
      "d": 94.69333333332906,
      "v": 60
    },
    {
      "midi": 108,
      "hit": false,
      "t": 182265.7279999978,
      "d": 94.69333333332906,
      "v": 80
    },
    {
      "midi": 105,
      "hit": false,
      "t": 182265.7279999978,
      "d": 94.69333333332906,
      "v": 100
    },
    {
      "midi": 42,
      "hit": false,
      "t": 182265.7279999978,
      "d": 94.69333333332906,
      "v": 92
    },
    {
      "midi": 72,
      "hit": false,
      "t": 182265.7279999978,
      "d": 94.69333333332906,
      "v": 100
    },
    {
      "midi": 118,
      "hit": false,
      "t": 182265.7279999978,
      "d": 94.69333333332906,
      "v": 60
    },
    {
      "midi": 63,
      "hit": false,
      "t": 182265.7279999978,
      "d": 94.69333333332906,
      "v": 70
    },
    {
      "midi": 72,
      "hit": false,
      "t": 182369.89066666446,
      "d": 94.69333333335817,
      "v": 100
    },
    {
      "midi": 67,
      "hit": false,
      "t": 182379.3599999978,
      "d": 66.28533333333326,
      "v": 110
    },
    {
      "midi": 31,
      "hit": false,
      "t": 182379.3599999978,
      "d": 94.69333333335817,
      "v": 127
    },
    {
      "midi": 79,
      "hit": false,
      "t": 182379.3599999978,
      "d": 94.69333333335817,
      "v": 100
    },
    {
      "midi": 42,
      "hit": false,
      "t": 182388.82933333114,
      "d": 94.69333333335817,
      "v": 78
    },
    {
      "midi": 67,
      "hit": false,
      "t": 182483.5226666645,
      "d": 75.7546666666749,
      "v": 100
    },
    {
      "midi": 79,
      "hit": false,
      "t": 182483.5226666645,
      "d": 94.69333333335817,
      "v": 100
    },
    {
      "midi": 55,
      "hit": false,
      "t": 182492.99199999784,
      "d": 94.69333333335817,
      "v": 80
    },
    {
      "midi": 43,
      "hit": false,
      "t": 182492.99199999784,
      "d": 94.69333333335817,
      "v": 127
    },
    {
      "midi": 62,
      "hit": false,
      "t": 182492.99199999784,
      "d": 94.69333333335817,
      "v": 100
    },
    {
      "midi": 72,
      "hit": false,
      "t": 182492.99199999784,
      "d": 94.69333333335817,
      "v": 100
    },
    {
      "midi": 76,
      "hit": false,
      "t": 182492.99199999784,
      "d": 284.0800000000163,
      "v": 120
    },
    {
      "midi": 64,
      "hit": false,
      "t": 182492.99199999784,
      "d": 284.0800000000163,
      "v": 110
    },
    {
      "midi": 46,
      "hit": false,
      "t": 182511.9306666645,
      "d": 94.69333333338727,
      "v": 92
    },
    {
      "midi": 67,
      "hit": false,
      "t": 182597.15466666454,
      "d": 75.7546666666749,
      "v": 100
    },
    {
      "midi": 72,
      "hit": false,
      "t": 182597.15466666454,
      "d": 94.69333333332906,
      "v": 100
    },
    {
      "midi": 31,
      "hit": false,
      "t": 182606.6239999979,
      "d": 94.69333333332906,
      "v": 127
    },
    {
      "midi": 59,
      "hit": false,
      "t": 182606.6239999979,
      "d": 94.69333333332906,
      "v": 110
    },
    {
      "midi": 79,
      "hit": false,
      "t": 182606.6239999979,
      "d": 94.69333333332906,
      "v": 100
    },
    {
      "midi": 118,
      "hit": false,
      "t": 182606.6239999979,
      "d": 94.69333333332906,
      "v": 60
    },
    {
      "midi": 79,
      "hit": false,
      "t": 182710.78666666456,
      "d": 94.69333333329996,
      "v": 100
    },
    {
      "midi": 62,
      "hit": false,
      "t": 182720.2559999979,
      "d": 18.93866666665417,
      "v": 70
    },
    {
      "midi": 15,
      "hit": false,
      "t": 182720.2559999979,
      "d": 94.69333333329996,
      "v": 100
    },
    {
      "midi": 13,
      "hit": false,
      "t": 182720.2559999979,
      "d": 94.69333333329996,
      "v": 100
    },
    {
      "midi": 10,
      "hit": false,
      "t": 182720.2559999979,
      "d": 94.69333333329996,
      "v": 127
    },
    {
      "midi": 42,
      "hit": false,
      "t": 182720.2559999979,
      "d": 94.69333333329996,
      "v": 92
    },
    {
      "midi": 72,
      "hit": false,
      "t": 182720.2559999979,
      "d": 94.69333333329996,
      "v": 100
    },
    {
      "midi": 31,
      "hit": false,
      "t": 182720.2559999979,
      "d": 208.3253333333414,
      "v": 127
    },
    {
      "midi": 67,
      "hit": false,
      "t": 182824.41866666454,
      "d": 75.754666666704,
      "v": 100
    },
    {
      "midi": 72,
      "hit": false,
      "t": 182824.41866666454,
      "d": 94.69333333335817,
      "v": 100
    },
    {
      "midi": 59,
      "hit": false,
      "t": 182833.88799999788,
      "d": 94.69333333335817,
      "v": 110
    },
    {
      "midi": 79,
      "hit": false,
      "t": 182833.88799999788,
      "d": 94.69333333335817,
      "v": 100
    },
    {
      "midi": 118,
      "hit": false,
      "t": 182833.88799999788,
      "d": 94.69333333335817,
      "v": 60
    },
    {
      "midi": 42,
      "hit": false,
      "t": 182843.35733333122,
      "d": 94.69333333335817,
      "v": 78
    },
    {
      "midi": 67,
      "hit": false,
      "t": 182938.05066666458,
      "d": 75.7546666666749,
      "v": 100
    },
    {
      "midi": 74,
      "hit": false,
      "t": 182947.51999999792,
      "d": 75.7546666666749,
      "v": 120
    },
    {
      "midi": 62,
      "hit": false,
      "t": 182947.51999999792,
      "d": 75.7546666666749,
      "v": 100
    },
    {
      "midi": 105,
      "hit": false,
      "t": 182947.51999999792,
      "d": 94.69333333332906,
      "v": 100
    },
    {
      "midi": 108,
      "hit": false,
      "t": 182947.51999999792,
      "d": 94.69333333332906,
      "v": 80
    },
    {
      "midi": 127,
      "hit": false,
      "t": 182947.51999999792,
      "d": 94.69333333332906,
      "v": 60
    },
    {
      "midi": 118,
      "hit": false,
      "t": 182947.51999999792,
      "d": 94.69333333332906,
      "v": 40
    },
    {
      "midi": 55,
      "hit": false,
      "t": 182947.51999999792,
      "d": 208.3253333333414,
      "v": 80
    },
    {
      "midi": 43,
      "hit": false,
      "t": 182947.51999999792,
      "d": 208.3253333333414,
      "v": 127
    },
    {
      "midi": 46,
      "hit": false,
      "t": 182966.45866666458,
      "d": 94.69333333335817,
      "v": 92
    },
    {
      "midi": 67,
      "hit": false,
      "t": 183061.15199999794,
      "d": 66.28533333333326,
      "v": 110
    },
    {
      "midi": 63,
      "hit": false,
      "t": 183061.15199999794,
      "d": 94.69333333332906,
      "v": 80
    },
    {
      "midi": 79,
      "hit": false,
      "t": 183165.3146666646,
      "d": 94.69333333329996,
      "v": 100
    },
    {
      "midi": 62,
      "hit": false,
      "t": 183174.78399999795,
      "d": 18.93866666665417,
      "v": 70
    },
    {
      "midi": 67,
      "hit": false,
      "t": 183174.78399999795,
      "d": 66.28533333330415,
      "v": 120
    },
    {
      "midi": 55,
      "hit": false,
      "t": 183174.78399999795,
      "d": 94.69333333329996,
      "v": 110
    },
    {
      "midi": 43,
      "hit": false,
      "t": 183174.78399999795,
      "d": 94.69333333329996,
      "v": 127
    },
    {
      "midi": 71,
      "hit": false,
      "t": 183174.78399999795,
      "d": 94.69333333329996,
      "v": 110
    },
    {
      "midi": 15,
      "hit": false,
      "t": 183174.78399999795,
      "d": 94.69333333329996,
      "v": 100
    },
    {
      "midi": 13,
      "hit": false,
      "t": 183174.78399999795,
      "d": 94.69333333329996,
      "v": 100
    },
    {
      "midi": 10,
      "hit": false,
      "t": 183174.78399999795,
      "d": 94.69333333329996,
      "v": 127
    },
    {
      "midi": 105,
      "hit": false,
      "t": 183174.78399999795,
      "d": 94.69333333329996,
      "v": 100
    },
    {
      "midi": 108,
      "hit": false,
      "t": 183174.78399999795,
      "d": 94.69333333329996,
      "v": 80
    },
    {
      "midi": 127,
      "hit": false,
      "t": 183174.78399999795,
      "d": 94.69333333329996,
      "v": 60
    },
    {
      "midi": 42,
      "hit": false,
      "t": 183174.78399999795,
      "d": 94.69333333329996,
      "v": 92
    },
    {
      "midi": 72,
      "hit": false,
      "t": 183174.78399999795,
      "d": 94.69333333329996,
      "v": 100
    },
    {
      "midi": 118,
      "hit": false,
      "t": 183174.78399999795,
      "d": 94.69333333329996,
      "v": 60
    },
    {
      "midi": 64,
      "hit": false,
      "t": 183174.78399999795,
      "d": 94.69333333329996,
      "v": 70
    },
    {
      "midi": 72,
      "hit": false,
      "t": 183278.9466666646,
      "d": 94.69333333338727,
      "v": 100
    },
    {
      "midi": 67,
      "hit": false,
      "t": 183288.41599999793,
      "d": 66.28533333336236,
      "v": 110
    },
    {
      "midi": 53,
      "hit": false,
      "t": 183288.41599999793,
      "d": 94.69333333338727,
      "v": 80
    },
    {
      "midi": 41,
      "hit": false,
      "t": 183288.41599999793,
      "d": 94.69333333338727,
      "v": 127
    },
    {
      "midi": 79,
      "hit": false,
      "t": 183288.41599999793,
      "d": 94.69333333338727,
      "v": 100
    },
    {
      "midi": 42,
      "hit": false,
      "t": 183297.88533333127,
      "d": 94.69333333338727,
      "v": 78
    },
    {
      "midi": 79,
      "hit": false,
      "t": 183392.57866666466,
      "d": 94.69333333332906,
      "v": 100
    },
    {
      "midi": 67,
      "hit": false,
      "t": 183402.047999998,
      "d": 66.28533333333326,
      "v": 127
    },
    {
      "midi": 52,
      "hit": false,
      "t": 183402.047999998,
      "d": 94.69333333332906,
      "v": 80
    },
    {
      "midi": 40,
      "hit": false,
      "t": 183402.047999998,
      "d": 94.69333333332906,
      "v": 127
    },
    {
      "midi": 62,
      "hit": false,
      "t": 183402.047999998,
      "d": 94.69333333332906,
      "v": 100
    },
    {
      "midi": 15,
      "hit": false,
      "t": 183402.047999998,
      "d": 94.69333333332906,
      "v": 100
    },
    {
      "midi": 13,
      "hit": false,
      "t": 183402.047999998,
      "d": 94.69333333332906,
      "v": 100
    },
    {
      "midi": 10,
      "hit": false,
      "t": 183402.047999998,
      "d": 94.69333333332906,
      "v": 127
    },
    {
      "midi": 105,
      "hit": false,
      "t": 183402.047999998,
      "d": 94.69333333332906,
      "v": 100
    },
    {
      "midi": 108,
      "hit": false,
      "t": 183402.047999998,
      "d": 94.69333333332906,
      "v": 80
    },
    {
      "midi": 127,
      "hit": false,
      "t": 183402.047999998,
      "d": 94.69333333332906,
      "v": 60
    },
    {
      "midi": 72,
      "hit": false,
      "t": 183402.047999998,
      "d": 94.69333333332906,
      "v": 100
    },
    {
      "midi": 118,
      "hit": false,
      "t": 183402.047999998,
      "d": 94.69333333332906,
      "v": 60
    },
    {
      "midi": 46,
      "hit": false,
      "t": 183420.98666666466,
      "d": 94.69333333335817,
      "v": 92
    },
    {
      "midi": 67,
      "hit": false,
      "t": 183506.21066666467,
      "d": 75.7546666666749,
      "v": 100
    },
    {
      "midi": 72,
      "hit": false,
      "t": 183506.21066666467,
      "d": 94.69333333335817,
      "v": 100
    },
    {
      "midi": 59,
      "hit": false,
      "t": 183515.679999998,
      "d": 94.69333333335817,
      "v": 110
    },
    {
      "midi": 50,
      "hit": false,
      "t": 183515.679999998,
      "d": 94.69333333335817,
      "v": 80
    },
    {
      "midi": 38,
      "hit": false,
      "t": 183515.679999998,
      "d": 94.69333333335817,
      "v": 127
    },
    {
      "midi": 79,
      "hit": false,
      "t": 183515.679999998,
      "d": 94.69333333335817,
      "v": 100
    },
    {
      "midi": 118,
      "hit": false,
      "t": 183515.679999998,
      "d": 94.69333333335817,
      "v": 40
    },
    {
      "midi": 79,
      "hit": false,
      "t": 183619.8426666647,
      "d": 94.69333333335817,
      "v": 100
    },
    {
      "midi": 62,
      "hit": false,
      "t": 183629.31199999806,
      "d": 18.93866666665417,
      "v": 70
    },
    {
      "midi": 60,
      "hit": false,
      "t": 183629.31199999806,
      "d": 66.28533333333326,
      "v": 127
    },
    {
      "midi": 24,
      "hit": false,
      "t": 183629.31199999806,
      "d": 94.69333333335817,
      "v": 127
    },
    {
      "midi": 15,
      "hit": false,
      "t": 183629.31199999806,
      "d": 94.69333333335817,
      "v": 100
    },
    {
      "midi": 13,
      "hit": false,
      "t": 183629.31199999806,
      "d": 94.69333333335817,
      "v": 100
    },
    {
      "midi": 10,
      "hit": false,
      "t": 183629.31199999806,
      "d": 94.69333333335817,
      "v": 127
    },
    {
      "midi": 42,
      "hit": false,
      "t": 183629.31199999806,
      "d": 94.69333333335817,
      "v": 92
    },
    {
      "midi": 72,
      "hit": false,
      "t": 183629.31199999806,
      "d": 94.69333333335817,
      "v": 100
    },
    {
      "midi": 60,
      "hit": false,
      "t": 183733.47466666476,
      "d": 75.7546666666749,
      "v": 100
    },
    {
      "midi": 24,
      "hit": false,
      "t": 183742.9439999981,
      "d": 94.69333333332906,
      "v": 127
    },
    {
      "midi": 64,
      "hit": false,
      "t": 183742.9439999981,
      "d": 94.69333333332906,
      "v": 110
    },
    {
      "midi": 42,
      "hit": false,
      "t": 183752.41333333144,
      "d": 94.69333333332906,
      "v": 78
    },
    {
      "midi": 60,
      "hit": false,
      "t": 183847.10666666477,
      "d": 75.7546666666749,
      "v": 100
    },
    {
      "midi": 79,
      "hit": false,
      "t": 183847.10666666477,
      "d": 94.69333333332906,
      "v": 100
    },
    {
      "midi": 48,
      "hit": false,
      "t": 183856.5759999981,
      "d": 94.69333333332906,
      "v": 80
    },
    {
      "midi": 36,
      "hit": false,
      "t": 183856.5759999981,
      "d": 94.69333333332906,
      "v": 127
    },
    {
      "midi": 64,
      "hit": false,
      "t": 183856.5759999981,
      "d": 94.69333333332906,
      "v": 110
    },
    {
      "midi": 62,
      "hit": false,
      "t": 183856.5759999981,
      "d": 94.69333333332906,
      "v": 100
    },
    {
      "midi": 72,
      "hit": false,
      "t": 183856.5759999981,
      "d": 94.69333333332906,
      "v": 100
    },
    {
      "midi": 46,
      "hit": false,
      "t": 183875.51466666476,
      "d": 94.69333333335817,
      "v": 92
    },
    {
      "midi": 60,
      "hit": false,
      "t": 183960.73866666478,
      "d": 75.7546666666749,
      "v": 100
    },
    {
      "midi": 72,
      "hit": false,
      "t": 183960.73866666478,
      "d": 94.69333333332906,
      "v": 100
    },
    {
      "midi": 64,
      "hit": false,
      "t": 183970.20799999812,
      "d": 85.22399999998743,
      "v": 70
    },
    {
      "midi": 24,
      "hit": false,
      "t": 183970.20799999812,
      "d": 94.69333333332906,
      "v": 127
    },
    {
      "midi": 79,
      "hit": false,
      "t": 183970.20799999812,
      "d": 94.69333333332906,
      "v": 100
    },
    {
      "midi": 79,
      "hit": false,
      "t": 184074.3706666648,
      "d": 94.69333333332906,
      "v": 100
    },
    {
      "midi": 62,
      "hit": false,
      "t": 184083.83999999813,
      "d": 18.93866666665417,
      "v": 70
    },
    {
      "midi": 60,
      "hit": false,
      "t": 184083.83999999813,
      "d": 66.28533333330415,
      "v": 127
    },
    {
      "midi": 24,
      "hit": false,
      "t": 184083.83999999813,
      "d": 94.69333333332906,
      "v": 127
    },
    {
      "midi": 67,
      "hit": false,
      "t": 184083.83999999813,
      "d": 94.69333333332906,
      "v": 110
    },
    {
      "midi": 15,
      "hit": false,
      "t": 184083.83999999813,
      "d": 94.69333333332906,
      "v": 100
    },
    {
      "midi": 13,
      "hit": false,
      "t": 184083.83999999813,
      "d": 94.69333333332906,
      "v": 100
    },
    {
      "midi": 10,
      "hit": false,
      "t": 184083.83999999813,
      "d": 94.69333333332906,
      "v": 127
    },
    {
      "midi": 127,
      "hit": false,
      "t": 184083.83999999813,
      "d": 94.69333333332906,
      "v": 60
    },
    {
      "midi": 108,
      "hit": false,
      "t": 184083.83999999813,
      "d": 94.69333333332906,
      "v": 80
    },
    {
      "midi": 105,
      "hit": false,
      "t": 184083.83999999813,
      "d": 94.69333333332906,
      "v": 100
    },
    {
      "midi": 42,
      "hit": false,
      "t": 184083.83999999813,
      "d": 94.69333333332906,
      "v": 92
    },
    {
      "midi": 72,
      "hit": false,
      "t": 184083.83999999813,
      "d": 94.69333333332906,
      "v": 100
    },
    {
      "midi": 118,
      "hit": false,
      "t": 184083.83999999813,
      "d": 94.69333333332906,
      "v": 60
    },
    {
      "midi": 63,
      "hit": false,
      "t": 184083.83999999813,
      "d": 94.69333333332906,
      "v": 70
    },
    {
      "midi": 72,
      "hit": false,
      "t": 184188.0026666648,
      "d": 94.69333333335817,
      "v": 100
    },
    {
      "midi": 60,
      "hit": false,
      "t": 184197.47199999815,
      "d": 66.28533333336236,
      "v": 110
    },
    {
      "midi": 24,
      "hit": false,
      "t": 184197.47199999815,
      "d": 94.69333333335817,
      "v": 127
    },
    {
      "midi": 79,
      "hit": false,
      "t": 184197.47199999815,
      "d": 94.69333333335817,
      "v": 100
    },
    {
      "midi": 42,
      "hit": false,
      "t": 184206.9413333315,
      "d": 94.69333333335817,
      "v": 78
    },
    {
      "midi": 60,
      "hit": false,
      "t": 184301.63466666485,
      "d": 75.75466666664579,
      "v": 100
    },
    {
      "midi": 79,
      "hit": false,
      "t": 184301.63466666485,
      "d": 94.69333333332906,
      "v": 100
    },
    {
      "midi": 48,
      "hit": false,
      "t": 184311.1039999982,
      "d": 94.69333333332906,
      "v": 80
    },
    {
      "midi": 36,
      "hit": false,
      "t": 184311.1039999982,
      "d": 94.69333333332906,
      "v": 127
    },
    {
      "midi": 62,
      "hit": false,
      "t": 184311.1039999982,
      "d": 94.69333333332906,
      "v": 100
    },
    {
      "midi": 72,
      "hit": false,
      "t": 184311.1039999982,
      "d": 94.69333333332906,
      "v": 100
    },
    {
      "midi": 46,
      "hit": false,
      "t": 184330.04266666484,
      "d": 94.69333333335817,
      "v": 92
    },
    {
      "midi": 60,
      "hit": false,
      "t": 184415.26666666486,
      "d": 75.75466666664579,
      "v": 100
    },
    {
      "midi": 72,
      "hit": false,
      "t": 184415.26666666486,
      "d": 94.69333333329996,
      "v": 100
    },
    {
      "midi": 24,
      "hit": false,
      "t": 184424.7359999982,
      "d": 94.69333333329996,
      "v": 127
    },
    {
      "midi": 64,
      "hit": false,
      "t": 184424.7359999982,
      "d": 94.69333333329996,
      "v": 110
    },
    {
      "midi": 79,
      "hit": false,
      "t": 184424.7359999982,
      "d": 94.69333333329996,
      "v": 100
    },
    {
      "midi": 118,
      "hit": false,
      "t": 184424.7359999982,
      "d": 94.69333333329996,
      "v": 60
    },
    {
      "midi": 62,
      "hit": false,
      "t": 184538.36799999815,
      "d": 18.93866666665417,
      "v": 70
    },
    {
      "midi": 24,
      "hit": false,
      "t": 184538.36799999815,
      "d": 94.69333333329996,
      "v": 127
    },
    {
      "midi": 15,
      "hit": false,
      "t": 184538.36799999815,
      "d": 94.69333333329996,
      "v": 100
    },
    {
      "midi": 13,
      "hit": false,
      "t": 184538.36799999815,
      "d": 94.69333333329996,
      "v": 100
    },
    {
      "midi": 10,
      "hit": false,
      "t": 184538.36799999815,
      "d": 94.69333333329996,
      "v": 127
    },
    {
      "midi": 42,
      "hit": false,
      "t": 184538.36799999815,
      "d": 94.69333333329996,
      "v": 92
    },
    {
      "midi": 60,
      "hit": false,
      "t": 184642.5306666648,
      "d": 9.469333333341638,
      "v": 100
    },
    {
      "midi": 60,
      "hit": false,
      "t": 184651.99999999814,
      "d": 66.28533333333326,
      "v": 110
    },
    {
      "midi": 24,
      "hit": false,
      "t": 184651.99999999814,
      "d": 94.69333333332906,
      "v": 127
    },
    {
      "midi": 118,
      "hit": false,
      "t": 184651.99999999814,
      "d": 94.69333333332906,
      "v": 60
    },
    {
      "midi": 42,
      "hit": false,
      "t": 184661.46933333148,
      "d": 94.69333333332906,
      "v": 78
    },
    {
      "midi": 60,
      "hit": false,
      "t": 184756.1626666648,
      "d": 75.7546666666749,
      "v": 100
    },
    {
      "midi": 62,
      "hit": false,
      "t": 184765.63199999815,
      "d": 75.7546666666749,
      "v": 100
    },
    {
      "midi": 59,
      "hit": false,
      "t": 184765.63199999815,
      "d": 75.7546666666749,
      "v": 110
    },
    {
      "midi": 71,
      "hit": false,
      "t": 184765.63199999815,
      "d": 75.7546666666749,
      "v": 120
    },
    {
      "midi": 48,
      "hit": false,
      "t": 184765.63199999815,
      "d": 94.69333333332906,
      "v": 80
    },
    {
      "midi": 36,
      "hit": false,
      "t": 184765.63199999815,
      "d": 94.69333333332906,
      "v": 127
    },
    {
      "midi": 64,
      "hit": false,
      "t": 184765.63199999815,
      "d": 94.69333333332906,
      "v": 110
    },
    {
      "midi": 118,
      "hit": false,
      "t": 184765.63199999815,
      "d": 94.69333333332906,
      "v": 40
    },
    {
      "midi": 46,
      "hit": false,
      "t": 184784.5706666648,
      "d": 94.69333333335817,
      "v": 92
    },
    {
      "midi": 60,
      "hit": false,
      "t": 184869.79466666482,
      "d": 75.7546666666749,
      "v": 100
    },
    {
      "midi": 24,
      "hit": false,
      "t": 184879.26399999816,
      "d": 94.69333333332906,
      "v": 127
    },
    {
      "midi": 62,
      "hit": false,
      "t": 184879.26399999816,
      "d": 94.69333333332906,
      "v": 110
    },
    {
      "midi": 63,
      "hit": false,
      "t": 184879.26399999816,
      "d": 94.69333333332906,
      "v": 80
    },
    {
      "midi": 79,
      "hit": false,
      "t": 184983.42666666483,
      "d": 94.69333333335817,
      "v": 100
    },
    {
      "midi": 62,
      "hit": false,
      "t": 184992.89599999817,
      "d": 18.93866666665417,
      "v": 70
    },
    {
      "midi": 60,
      "hit": false,
      "t": 184992.89599999817,
      "d": 66.28533333333326,
      "v": 110
    },
    {
      "midi": 72,
      "hit": false,
      "t": 184992.89599999817,
      "d": 75.7546666666749,
      "v": 100
    },
    {
      "midi": 24,
      "hit": false,
      "t": 184992.89599999817,
      "d": 94.69333333335817,
      "v": 127
    },
    {
      "midi": 15,
      "hit": false,
      "t": 184992.89599999817,
      "d": 94.69333333335817,
      "v": 100
    },
    {
      "midi": 13,
      "hit": false,
      "t": 184992.89599999817,
      "d": 94.69333333335817,
      "v": 100
    },
    {
      "midi": 10,
      "hit": false,
      "t": 184992.89599999817,
      "d": 94.69333333335817,
      "v": 127
    },
    {
      "midi": 127,
      "hit": false,
      "t": 184992.89599999817,
      "d": 94.69333333335817,
      "v": 60
    },
    {
      "midi": 108,
      "hit": false,
      "t": 184992.89599999817,
      "d": 94.69333333335817,
      "v": 80
    },
    {
      "midi": 105,
      "hit": false,
      "t": 184992.89599999817,
      "d": 94.69333333335817,
      "v": 100
    },
    {
      "midi": 42,
      "hit": false,
      "t": 184992.89599999817,
      "d": 94.69333333335817,
      "v": 92
    },
    {
      "midi": 118,
      "hit": false,
      "t": 184992.89599999817,
      "d": 94.69333333335817,
      "v": 60
    },
    {
      "midi": 64,
      "hit": false,
      "t": 184992.89599999817,
      "d": 94.69333333335817,
      "v": 70
    },
    {
      "midi": 72,
      "hit": false,
      "t": 185097.05866666487,
      "d": 94.69333333335817,
      "v": 100
    },
    {
      "midi": 60,
      "hit": false,
      "t": 185106.52799999822,
      "d": 66.28533333333326,
      "v": 110
    },
    {
      "midi": 24,
      "hit": false,
      "t": 185106.52799999822,
      "d": 94.69333333335817,
      "v": 127
    },
    {
      "midi": 79,
      "hit": false,
      "t": 185106.52799999822,
      "d": 94.69333333335817,
      "v": 100
    },
    {
      "midi": 42,
      "hit": false,
      "t": 185115.99733333156,
      "d": 94.69333333335817,
      "v": 78
    },
    {
      "midi": 60,
      "hit": false,
      "t": 185210.69066666492,
      "d": 75.7546666666749,
      "v": 100
    },
    {
      "midi": 79,
      "hit": false,
      "t": 185220.15999999826,
      "d": 85.22400000001653,
      "v": 120
    },
    {
      "midi": 48,
      "hit": false,
      "t": 185220.15999999826,
      "d": 94.69333333335817,
      "v": 80
    },
    {
      "midi": 36,
      "hit": false,
      "t": 185220.15999999826,
      "d": 94.69333333335817,
      "v": 127
    },
    {
      "midi": 62,
      "hit": false,
      "t": 185220.15999999826,
      "d": 94.69333333335817,
      "v": 100
    },
    {
      "midi": 72,
      "hit": false,
      "t": 185220.15999999826,
      "d": 94.69333333335817,
      "v": 100
    },
    {
      "midi": 118,
      "hit": false,
      "t": 185220.15999999826,
      "d": 94.69333333335817,
      "v": 60
    },
    {
      "midi": 46,
      "hit": false,
      "t": 185239.0986666649,
      "d": 94.69333333338727,
      "v": 92
    },
    {
      "midi": 60,
      "hit": false,
      "t": 185324.32266666496,
      "d": 75.7546666666749,
      "v": 100
    },
    {
      "midi": 72,
      "hit": false,
      "t": 185324.32266666496,
      "d": 94.69333333332906,
      "v": 100
    },
    {
      "midi": 64,
      "hit": false,
      "t": 185333.7919999983,
      "d": 94.69333333332906,
      "v": 110
    },
    {
      "midi": 24,
      "hit": false,
      "t": 185333.7919999983,
      "d": 94.69333333332906,
      "v": 127
    },
    {
      "midi": 79,
      "hit": false,
      "t": 185333.7919999983,
      "d": 94.69333333332906,
      "v": 100
    },
    {
      "midi": 118,
      "hit": false,
      "t": 185333.7919999983,
      "d": 94.69333333332906,
      "v": 40
    },
    {
      "midi": 64,
      "hit": false,
      "t": 185437.95466666497,
      "d": 75.7546666666749,
      "v": 100
    },
    {
      "midi": 62,
      "hit": false,
      "t": 185447.4239999983,
      "d": 18.93866666665417,
      "v": 70
    },
    {
      "midi": 28,
      "hit": false,
      "t": 185447.4239999983,
      "d": 94.69333333332906,
      "v": 127
    },
    {
      "midi": 60,
      "hit": false,
      "t": 185447.4239999983,
      "d": 94.69333333332906,
      "v": 110
    },
    {
      "midi": 15,
      "hit": false,
      "t": 185447.4239999983,
      "d": 94.69333333332906,
      "v": 100
    },
    {
      "midi": 13,
      "hit": false,
      "t": 185447.4239999983,
      "d": 94.69333333332906,
      "v": 100
    },
    {
      "midi": 10,
      "hit": false,
      "t": 185447.4239999983,
      "d": 94.69333333332906,
      "v": 127
    },
    {
      "midi": 42,
      "hit": false,
      "t": 185447.4239999983,
      "d": 94.69333333332906,
      "v": 92
    },
    {
      "midi": 69,
      "hit": false,
      "t": 185447.4239999983,
      "d": 643.9146666667657,
      "v": 127
    },
    {
      "midi": 64,
      "hit": false,
      "t": 185561.05599999832,
      "d": 66.28533333333326,
      "v": 110
    },
    {
      "midi": 28,
      "hit": false,
      "t": 185561.05599999832,
      "d": 94.69333333332906,
      "v": 127
    },
    {
      "midi": 42,
      "hit": false,
      "t": 185570.52533333167,
      "d": 94.69333333332906,
      "v": 78
    },
    {
      "midi": 79,
      "hit": false,
      "t": 185665.218666665,
      "d": 94.69333333335817,
      "v": 100
    },
    {
      "midi": 64,
      "hit": false,
      "t": 185674.68799999834,
      "d": 66.28533333333326,
      "v": 110
    },
    {
      "midi": 52,
      "hit": false,
      "t": 185674.68799999834,
      "d": 94.69333333335817,
      "v": 80
    },
    {
      "midi": 40,
      "hit": false,
      "t": 185674.68799999834,
      "d": 94.69333333335817,
      "v": 127
    },
    {
      "midi": 62,
      "hit": false,
      "t": 185674.68799999834,
      "d": 94.69333333335817,
      "v": 100
    },
    {
      "midi": 72,
      "hit": false,
      "t": 185674.68799999834,
      "d": 94.69333333335817,
      "v": 100
    },
    {
      "midi": 46,
      "hit": false,
      "t": 185693.626666665,
      "d": 94.69333333338727,
      "v": 92
    },
    {
      "midi": 72,
      "hit": false,
      "t": 185778.85066666504,
      "d": 94.69333333332906,
      "v": 100
    },
    {
      "midi": 64,
      "hit": false,
      "t": 185788.31999999838,
      "d": 66.28533333333326,
      "v": 70
    },
    {
      "midi": 28,
      "hit": false,
      "t": 185788.31999999838,
      "d": 94.69333333332906,
      "v": 127
    },
    {
      "midi": 79,
      "hit": false,
      "t": 185788.31999999838,
      "d": 94.69333333332906,
      "v": 100
    },
    {
      "midi": 64,
      "hit": false,
      "t": 185892.48266666505,
      "d": 75.75466666664579,
      "v": 100
    },
    {
      "midi": 79,
      "hit": false,
      "t": 185892.48266666505,
      "d": 94.69333333332906,
      "v": 100
    },
    {
      "midi": 62,
      "hit": false,
      "t": 185901.9519999984,
      "d": 18.93866666665417,
      "v": 70
    },
    {
      "midi": 28,
      "hit": false,
      "t": 185901.9519999984,
      "d": 94.69333333332906,
      "v": 127
    },
    {
      "midi": 67,
      "hit": false,
      "t": 185901.9519999984,
      "d": 94.69333333332906,
      "v": 110
    },
    {
      "midi": 15,
      "hit": false,
      "t": 185901.9519999984,
      "d": 94.69333333332906,
      "v": 100
    },
    {
      "midi": 13,
      "hit": false,
      "t": 185901.9519999984,
      "d": 94.69333333332906,
      "v": 100
    },
    {
      "midi": 10,
      "hit": false,
      "t": 185901.9519999984,
      "d": 94.69333333332906,
      "v": 127
    },
    {
      "midi": 127,
      "hit": false,
      "t": 185901.9519999984,
      "d": 94.69333333332906,
      "v": 60
    },
    {
      "midi": 108,
      "hit": false,
      "t": 185901.9519999984,
      "d": 94.69333333332906,
      "v": 80
    },
    {
      "midi": 105,
      "hit": false,
      "t": 185901.9519999984,
      "d": 94.69333333332906,
      "v": 100
    },
    {
      "midi": 42,
      "hit": false,
      "t": 185901.9519999984,
      "d": 94.69333333332906,
      "v": 92
    },
    {
      "midi": 72,
      "hit": false,
      "t": 185901.9519999984,
      "d": 94.69333333332906,
      "v": 100
    },
    {
      "midi": 118,
      "hit": false,
      "t": 185901.9519999984,
      "d": 94.69333333332906,
      "v": 60
    },
    {
      "midi": 63,
      "hit": false,
      "t": 185901.9519999984,
      "d": 94.69333333332906,
      "v": 70
    },
    {
      "midi": 72,
      "hit": false,
      "t": 186006.11466666506,
      "d": 94.69333333335817,
      "v": 100
    },
    {
      "midi": 64,
      "hit": false,
      "t": 186015.5839999984,
      "d": 66.28533333333326,
      "v": 110
    },
    {
      "midi": 28,
      "hit": false,
      "t": 186015.5839999984,
      "d": 94.69333333335817,
      "v": 127
    },
    {
      "midi": 79,
      "hit": false,
      "t": 186015.5839999984,
      "d": 94.69333333335817,
      "v": 100
    },
    {
      "midi": 42,
      "hit": false,
      "t": 186025.05333333174,
      "d": 94.69333333335817,
      "v": 78
    },
    {
      "midi": 64,
      "hit": false,
      "t": 186119.7466666651,
      "d": 75.7546666666749,
      "v": 100
    },
    {
      "midi": 79,
      "hit": false,
      "t": 186119.7466666651,
      "d": 94.69333333335817,
      "v": 100
    },
    {
      "midi": 52,
      "hit": false,
      "t": 186129.21599999844,
      "d": 94.69333333335817,
      "v": 80
    },
    {
      "midi": 40,
      "hit": false,
      "t": 186129.21599999844,
      "d": 94.69333333335817,
      "v": 127
    },
    {
      "midi": 67,
      "hit": false,
      "t": 186129.21599999844,
      "d": 94.69333333335817,
      "v": 110
    },
    {
      "midi": 62,
      "hit": false,
      "t": 186129.21599999844,
      "d": 94.69333333335817,
      "v": 100
    },
    {
      "midi": 72,
      "hit": false,
      "t": 186129.21599999844,
      "d": 94.69333333335817,
      "v": 100
    },
    {
      "midi": 46,
      "hit": false,
      "t": 186148.1546666651,
      "d": 94.69333333338727,
      "v": 92
    },
    {
      "midi": 64,
      "hit": false,
      "t": 186233.37866666514,
      "d": 75.7546666666749,
      "v": 100
    },
    {
      "midi": 72,
      "hit": false,
      "t": 186233.37866666514,
      "d": 94.69333333335817,
      "v": 100
    },
    {
      "midi": 28,
      "hit": false,
      "t": 186242.84799999848,
      "d": 94.69333333335817,
      "v": 127
    },
    {
      "midi": 60,
      "hit": false,
      "t": 186242.84799999848,
      "d": 94.69333333335817,
      "v": 110
    },
    {
      "midi": 79,
      "hit": false,
      "t": 186242.84799999848,
      "d": 94.69333333335817,
      "v": 100
    },
    {
      "midi": 118,
      "hit": false,
      "t": 186242.84799999848,
      "d": 94.69333333335817,
      "v": 60
    },
    {
      "midi": 79,
      "hit": false,
      "t": 186347.01066666518,
      "d": 94.69333333332906,
      "v": 100
    },
    {
      "midi": 62,
      "hit": false,
      "t": 186356.47999999853,
      "d": 18.93866666665417,
      "v": 70
    },
    {
      "midi": 28,
      "hit": false,
      "t": 186356.47999999853,
      "d": 94.69333333332906,
      "v": 127
    },
    {
      "midi": 15,
      "hit": false,
      "t": 186356.47999999853,
      "d": 94.69333333332906,
      "v": 100
    },
    {
      "midi": 13,
      "hit": false,
      "t": 186356.47999999853,
      "d": 94.69333333332906,
      "v": 100
    },
    {
      "midi": 10,
      "hit": false,
      "t": 186356.47999999853,
      "d": 94.69333333332906,
      "v": 127
    },
    {
      "midi": 42,
      "hit": false,
      "t": 186356.47999999853,
      "d": 94.69333333332906,
      "v": 92
    },
    {
      "midi": 72,
      "hit": false,
      "t": 186356.47999999853,
      "d": 94.69333333332906,
      "v": 100
    },
    {
      "midi": 64,
      "hit": false,
      "t": 186460.6426666652,
      "d": 75.7546666666749,
      "v": 100
    },
    {
      "midi": 72,
      "hit": false,
      "t": 186460.6426666652,
      "d": 94.69333333332906,
      "v": 100
    },
    {
      "midi": 62,
      "hit": false,
      "t": 186470.11199999854,
      "d": 18.938666666683275,
      "v": 70
    },
    {
      "midi": 28,
      "hit": false,
      "t": 186470.11199999854,
      "d": 94.69333333332906,
      "v": 127
    },
    {
      "midi": 60,
      "hit": false,
      "t": 186470.11199999854,
      "d": 94.69333333332906,
      "v": 110
    },
    {
      "midi": 79,
      "hit": false,
      "t": 186470.11199999854,
      "d": 94.69333333332906,
      "v": 100
    },
    {
      "midi": 118,
      "hit": false,
      "t": 186470.11199999854,
      "d": 94.69333333332906,
      "v": 60
    },
    {
      "midi": 42,
      "hit": false,
      "t": 186479.58133333188,
      "d": 94.69333333332906,
      "v": 78
    },
    {
      "midi": 64,
      "hit": false,
      "t": 186583.74399999855,
      "d": 66.28533333333326,
      "v": 110
    },
    {
      "midi": 52,
      "hit": false,
      "t": 186583.74399999855,
      "d": 94.69333333332906,
      "v": 80
    },
    {
      "midi": 40,
      "hit": false,
      "t": 186583.74399999855,
      "d": 94.69333333332906,
      "v": 127
    },
    {
      "midi": 62,
      "hit": false,
      "t": 186583.74399999855,
      "d": 94.69333333332906,
      "v": 100
    },
    {
      "midi": 118,
      "hit": false,
      "t": 186583.74399999855,
      "d": 94.69333333332906,
      "v": 40
    },
    {
      "midi": 46,
      "hit": false,
      "t": 186602.6826666652,
      "d": 94.69333333335817,
      "v": 92
    },
    {
      "midi": 64,
      "hit": false,
      "t": 186697.37599999856,
      "d": 66.28533333333326,
      "v": 110
    },
    {
      "midi": 28,
      "hit": false,
      "t": 186697.37599999856,
      "d": 94.69333333332906,
      "v": 127
    },
    {
      "midi": 63,
      "hit": false,
      "t": 186697.37599999856,
      "d": 94.69333333332906,
      "v": 80
    },
    {
      "midi": 79,
      "hit": false,
      "t": 186801.53866666523,
      "d": 94.69333333335817,
      "v": 100
    },
    {
      "midi": 62,
      "hit": false,
      "t": 186811.00799999858,
      "d": 18.93866666665417,
      "v": 70
    },
    {
      "midi": 64,
      "hit": false,
      "t": 186811.00799999858,
      "d": 66.28533333333326,
      "v": 70
    },
    {
      "midi": 28,
      "hit": false,
      "t": 186811.00799999858,
      "d": 94.69333333335817,
      "v": 127
    },
    {
      "midi": 67,
      "hit": false,
      "t": 186811.00799999858,
      "d": 94.69333333335817,
      "v": 110
    },
    {
      "midi": 15,
      "hit": false,
      "t": 186811.00799999858,
      "d": 94.69333333335817,
      "v": 100
    },
    {
      "midi": 13,
      "hit": false,
      "t": 186811.00799999858,
      "d": 94.69333333335817,
      "v": 100
    },
    {
      "midi": 10,
      "hit": false,
      "t": 186811.00799999858,
      "d": 94.69333333335817,
      "v": 127
    },
    {
      "midi": 127,
      "hit": false,
      "t": 186811.00799999858,
      "d": 94.69333333335817,
      "v": 60
    },
    {
      "midi": 108,
      "hit": false,
      "t": 186811.00799999858,
      "d": 94.69333333335817,
      "v": 80
    },
    {
      "midi": 105,
      "hit": false,
      "t": 186811.00799999858,
      "d": 94.69333333335817,
      "v": 100
    },
    {
      "midi": 42,
      "hit": false,
      "t": 186811.00799999858,
      "d": 94.69333333335817,
      "v": 92
    },
    {
      "midi": 72,
      "hit": false,
      "t": 186811.00799999858,
      "d": 94.69333333335817,
      "v": 100
    },
    {
      "midi": 118,
      "hit": false,
      "t": 186811.00799999858,
      "d": 94.69333333335817,
      "v": 60
    },
    {
      "midi": 72,
      "hit": false,
      "t": 186915.17066666528,
      "d": 94.69333333332906,
      "v": 100
    },
    {
      "midi": 79,
      "hit": false,
      "t": 186924.63999999862,
      "d": 37.87733333333745,
      "v": 100
    },
    {
      "midi": 64,
      "hit": false,
      "t": 186924.63999999862,
      "d": 66.28533333333326,
      "v": 110
    },
    {
      "midi": 28,
      "hit": false,
      "t": 186924.63999999862,
      "d": 94.69333333332906,
      "v": 127
    },
    {
      "midi": 42,
      "hit": false,
      "t": 186934.10933333196,
      "d": 94.69333333332906,
      "v": 78
    },
    {
      "midi": 64,
      "hit": false,
      "t": 187028.8026666653,
      "d": 75.7546666666749,
      "v": 100
    },
    {
      "midi": 79,
      "hit": false,
      "t": 187028.8026666653,
      "d": 94.69333333335817,
      "v": 100
    },
    {
      "midi": 59,
      "hit": false,
      "t": 187038.27199999863,
      "d": 75.7546666666749,
      "v": 110
    },
    {
      "midi": 71,
      "hit": false,
      "t": 187038.27199999863,
      "d": 75.7546666666749,
      "v": 120
    },
    {
      "midi": 52,
      "hit": false,
      "t": 187038.27199999863,
      "d": 94.69333333335817,
      "v": 80
    },
    {
      "midi": 40,
      "hit": false,
      "t": 187038.27199999863,
      "d": 94.69333333335817,
      "v": 127
    },
    {
      "midi": 67,
      "hit": false,
      "t": 187038.27199999863,
      "d": 94.69333333335817,
      "v": 110
    },
    {
      "midi": 62,
      "hit": false,
      "t": 187038.27199999863,
      "d": 94.69333333335817,
      "v": 100
    },
    {
      "midi": 15,
      "hit": false,
      "t": 187038.27199999863,
      "d": 94.69333333335817,
      "v": 100
    },
    {
      "midi": 13,
      "hit": false,
      "t": 187038.27199999863,
      "d": 94.69333333335817,
      "v": 100
    },
    {
      "midi": 10,
      "hit": false,
      "t": 187038.27199999863,
      "d": 94.69333333335817,
      "v": 127
    },
    {
      "midi": 72,
      "hit": false,
      "t": 187038.27199999863,
      "d": 94.69333333335817,
      "v": 100
    },
    {
      "midi": 118,
      "hit": false,
      "t": 187038.27199999863,
      "d": 94.69333333335817,
      "v": 60
    },
    {
      "midi": 46,
      "hit": false,
      "t": 187057.21066666528,
      "d": 94.69333333338727,
      "v": 92
    },
    {
      "midi": 64,
      "hit": false,
      "t": 187142.43466666533,
      "d": 75.7546666666749,
      "v": 100
    },
    {
      "midi": 72,
      "hit": false,
      "t": 187142.43466666533,
      "d": 94.69333333332906,
      "v": 100
    },
    {
      "midi": 28,
      "hit": false,
      "t": 187151.90399999867,
      "d": 94.69333333332906,
      "v": 127
    },
    {
      "midi": 60,
      "hit": false,
      "t": 187151.90399999867,
      "d": 94.69333333332906,
      "v": 110
    },
    {
      "midi": 79,
      "hit": false,
      "t": 187151.90399999867,
      "d": 94.69333333332906,
      "v": 100
    },
    {
      "midi": 118,
      "hit": false,
      "t": 187151.90399999867,
      "d": 94.69333333332906,
      "v": 40
    },
    {
      "midi": 65,
      "hit": false,
      "t": 187265.53599999868,
      "d": 18.938666666683275,
      "v": 70
    },
    {
      "midi": 29,
      "hit": false,
      "t": 187265.53599999868,
      "d": 94.69333333335817,
      "v": 127
    },
    {
      "midi": 15,
      "hit": false,
      "t": 187265.53599999868,
      "d": 94.69333333335817,
      "v": 100
    },
    {
      "midi": 13,
      "hit": false,
      "t": 187265.53599999868,
      "d": 94.69333333335817,
      "v": 100
    },
    {
      "midi": 10,
      "hit": false,
      "t": 187265.53599999868,
      "d": 94.69333333335817,
      "v": 127
    },
    {
      "midi": 42,
      "hit": false,
      "t": 187265.53599999868,
      "d": 94.69333333335817,
      "v": 92
    },
    {
      "midi": 60,
      "hit": false,
      "t": 187265.53599999868,
      "d": 1022.688000000082,
      "v": 110
    },
    {
      "midi": 65,
      "hit": false,
      "t": 187369.69866666538,
      "d": 75.7546666666749,
      "v": 100
    },
    {
      "midi": 29,
      "hit": false,
      "t": 187379.16799999872,
      "d": 94.69333333332906,
      "v": 127
    },
    {
      "midi": 69,
      "hit": false,
      "t": 187379.16799999872,
      "d": 94.69333333332906,
      "v": 110
    },
    {
      "midi": 42,
      "hit": false,
      "t": 187388.63733333207,
      "d": 94.69333333332906,
      "v": 78
    },
    {
      "midi": 72,
      "hit": false,
      "t": 187483.3306666654,
      "d": 94.69333333329996,
      "v": 120
    },
    {
      "midi": 65,
      "hit": false,
      "t": 187492.79999999874,
      "d": 66.28533333330415,
      "v": 100
    },
    {
      "midi": 53,
      "hit": false,
      "t": 187492.79999999874,
      "d": 94.69333333329996,
      "v": 80
    },
    {
      "midi": 41,
      "hit": false,
      "t": 187492.79999999874,
      "d": 94.69333333329996,
      "v": 127
    },
    {
      "midi": 69,
      "hit": false,
      "t": 187492.79999999874,
      "d": 94.69333333329996,
      "v": 110
    },
    {
      "midi": 79,
      "hit": false,
      "t": 187492.79999999874,
      "d": 94.69333333329996,
      "v": 120
    },
    {
      "midi": 46,
      "hit": false,
      "t": 187511.7386666654,
      "d": 94.69333333332906,
      "v": 92
    },
    {
      "midi": 79,
      "hit": false,
      "t": 187596.96266666538,
      "d": 94.69333333335817,
      "v": 120
    },
    {
      "midi": 65,
      "hit": false,
      "t": 187606.43199999872,
      "d": 66.28533333336236,
      "v": 110
    },
    {
      "midi": 29,
      "hit": false,
      "t": 187606.43199999872,
      "d": 94.69333333335817,
      "v": 127
    },
    {
      "midi": 72,
      "hit": false,
      "t": 187606.43199999872,
      "d": 94.69333333335817,
      "v": 120
    },
    {
      "midi": 64,
      "hit": false,
      "t": 187606.43199999872,
      "d": 94.69333333335817,
      "v": 70
    },
    {
      "midi": 72,
      "hit": false,
      "t": 187710.59466666542,
      "d": 94.69333333329996,
      "v": 90
    },
    {
      "midi": 65,
      "hit": false,
      "t": 187720.06399999876,
      "d": 18.93866666665417,
      "v": 70
    },
    {
      "midi": 29,
      "hit": false,
      "t": 187720.06399999876,
      "d": 94.69333333329996,
      "v": 127
    },
    {
      "midi": 69,
      "hit": false,
      "t": 187720.06399999876,
      "d": 94.69333333329996,
      "v": 110
    },
    {
      "midi": 15,
      "hit": false,
      "t": 187720.06399999876,
      "d": 94.69333333329996,
      "v": 100
    },
    {
      "midi": 13,
      "hit": false,
      "t": 187720.06399999876,
      "d": 94.69333333329996,
      "v": 100
    },
    {
      "midi": 10,
      "hit": false,
      "t": 187720.06399999876,
      "d": 94.69333333329996,
      "v": 127
    },
    {
      "midi": 127,
      "hit": false,
      "t": 187720.06399999876,
      "d": 94.69333333329996,
      "v": 60
    },
    {
      "midi": 108,
      "hit": false,
      "t": 187720.06399999876,
      "d": 94.69333333329996,
      "v": 80
    },
    {
      "midi": 105,
      "hit": false,
      "t": 187720.06399999876,
      "d": 94.69333333329996,
      "v": 100
    },
    {
      "midi": 42,
      "hit": false,
      "t": 187720.06399999876,
      "d": 94.69333333329996,
      "v": 92
    },
    {
      "midi": 79,
      "hit": false,
      "t": 187720.06399999876,
      "d": 94.69333333329996,
      "v": 90
    },
    {
      "midi": 118,
      "hit": false,
      "t": 187720.06399999876,
      "d": 94.69333333329996,
      "v": 60
    },
    {
      "midi": 63,
      "hit": false,
      "t": 187720.06399999876,
      "d": 94.69333333329996,
      "v": 70
    },
    {
      "midi": 65,
      "hit": false,
      "t": 187824.2266666654,
      "d": 75.7546666666749,
      "v": 100
    },
    {
      "midi": 79,
      "hit": false,
      "t": 187824.2266666654,
      "d": 94.69333333335817,
      "v": 120
    },
    {
      "midi": 29,
      "hit": false,
      "t": 187833.69599999874,
      "d": 94.69333333335817,
      "v": 127
    },
    {
      "midi": 72,
      "hit": false,
      "t": 187833.69599999874,
      "d": 94.69333333335817,
      "v": 120
    },
    {
      "midi": 42,
      "hit": false,
      "t": 187843.1653333321,
      "d": 94.69333333335817,
      "v": 78
    },
    {
      "midi": 72,
      "hit": false,
      "t": 187937.85866666544,
      "d": 94.69333333332906,
      "v": 120
    },
    {
      "midi": 65,
      "hit": false,
      "t": 187947.3279999988,
      "d": 66.28533333333326,
      "v": 100
    },
    {
      "midi": 53,
      "hit": false,
      "t": 187947.3279999988,
      "d": 94.69333333332906,
      "v": 80
    },
    {
      "midi": 41,
      "hit": false,
      "t": 187947.3279999988,
      "d": 94.69333333332906,
      "v": 127
    },
    {
      "midi": 69,
      "hit": false,
      "t": 187947.3279999988,
      "d": 94.69333333332906,
      "v": 110
    },
    {
      "midi": 79,
      "hit": false,
      "t": 187947.3279999988,
      "d": 94.69333333332906,
      "v": 120
    },
    {
      "midi": 46,
      "hit": false,
      "t": 187966.26666666544,
      "d": 94.69333333335817,
      "v": 92
    },
    {
      "midi": 65,
      "hit": false,
      "t": 188060.9599999988,
      "d": 66.28533333333326,
      "v": 110
    },
    {
      "midi": 29,
      "hit": false,
      "t": 188060.9599999988,
      "d": 94.69333333332906,
      "v": 127
    },
    {
      "midi": 118,
      "hit": false,
      "t": 188060.9599999988,
      "d": 94.69333333332906,
      "v": 60
    },
    {
      "midi": 65,
      "hit": false,
      "t": 188174.59199999878,
      "d": 18.93866666665417,
      "v": 70
    },
    {
      "midi": 29,
      "hit": false,
      "t": 188174.59199999878,
      "d": 94.69333333329996,
      "v": 127
    },
    {
      "midi": 15,
      "hit": false,
      "t": 188174.59199999878,
      "d": 94.69333333329996,
      "v": 100
    },
    {
      "midi": 13,
      "hit": false,
      "t": 188174.59199999878,
      "d": 94.69333333329996,
      "v": 100
    },
    {
      "midi": 10,
      "hit": false,
      "t": 188174.59199999878,
      "d": 94.69333333329996,
      "v": 127
    },
    {
      "midi": 42,
      "hit": false,
      "t": 188174.59199999878,
      "d": 94.69333333329996,
      "v": 92
    },
    {
      "midi": 72,
      "hit": false,
      "t": 188174.59199999878,
      "d": 113.63199999998324,
      "v": 127
    },
    {
      "midi": 65,
      "hit": false,
      "t": 188288.22399999877,
      "d": 18.938666666683275,
      "v": 70
    },
    {
      "midi": 29,
      "hit": false,
      "t": 188288.22399999877,
      "d": 94.69333333335817,
      "v": 127
    },
    {
      "midi": 69,
      "hit": false,
      "t": 188288.22399999877,
      "d": 94.69333333335817,
      "v": 110
    },
    {
      "midi": 118,
      "hit": false,
      "t": 188288.22399999877,
      "d": 94.69333333335817,
      "v": 60
    },
    {
      "midi": 42,
      "hit": false,
      "t": 188297.6933333321,
      "d": 94.69333333335817,
      "v": 78
    },
    {
      "midi": 65,
      "hit": false,
      "t": 188401.8559999988,
      "d": 66.28533333333326,
      "v": 100
    },
    {
      "midi": 59,
      "hit": false,
      "t": 188401.8559999988,
      "d": 75.7546666666749,
      "v": 110
    },
    {
      "midi": 71,
      "hit": false,
      "t": 188401.8559999988,
      "d": 75.7546666666749,
      "v": 120
    },
    {
      "midi": 53,
      "hit": false,
      "t": 188401.8559999988,
      "d": 94.69333333332906,
      "v": 80
    },
    {
      "midi": 41,
      "hit": false,
      "t": 188401.8559999988,
      "d": 94.69333333332906,
      "v": 127
    },
    {
      "midi": 69,
      "hit": false,
      "t": 188401.8559999988,
      "d": 94.69333333332906,
      "v": 110
    },
    {
      "midi": 118,
      "hit": false,
      "t": 188401.8559999988,
      "d": 94.69333333332906,
      "v": 40
    },
    {
      "midi": 46,
      "hit": false,
      "t": 188420.79466666546,
      "d": 94.69333333335817,
      "v": 92
    },
    {
      "midi": 79,
      "hit": false,
      "t": 188506.01866666548,
      "d": 94.69333333332906,
      "v": 120
    },
    {
      "midi": 65,
      "hit": false,
      "t": 188515.48799999882,
      "d": 66.28533333333326,
      "v": 110
    },
    {
      "midi": 29,
      "hit": false,
      "t": 188515.48799999882,
      "d": 94.69333333332906,
      "v": 127
    },
    {
      "midi": 72,
      "hit": false,
      "t": 188515.48799999882,
      "d": 94.69333333332906,
      "v": 120
    },
    {
      "midi": 63,
      "hit": false,
      "t": 188515.48799999882,
      "d": 94.69333333332906,
      "v": 80
    },
    {
      "midi": 65,
      "hit": false,
      "t": 188629.11999999883,
      "d": 18.93866666665417,
      "v": 70
    },
    {
      "midi": 60,
      "hit": false,
      "t": 188629.11999999883,
      "d": 75.75466666664579,
      "v": 110
    },
    {
      "midi": 72,
      "hit": false,
      "t": 188629.11999999883,
      "d": 75.75466666664579,
      "v": 120
    },
    {
      "midi": 29,
      "hit": false,
      "t": 188629.11999999883,
      "d": 94.69333333332906,
      "v": 127
    },
    {
      "midi": 69,
      "hit": false,
      "t": 188629.11999999883,
      "d": 94.69333333332906,
      "v": 110
    },
    {
      "midi": 15,
      "hit": false,
      "t": 188629.11999999883,
      "d": 94.69333333332906,
      "v": 100
    },
    {
      "midi": 13,
      "hit": false,
      "t": 188629.11999999883,
      "d": 94.69333333332906,
      "v": 100
    },
    {
      "midi": 10,
      "hit": false,
      "t": 188629.11999999883,
      "d": 94.69333333332906,
      "v": 127
    },
    {
      "midi": 127,
      "hit": false,
      "t": 188629.11999999883,
      "d": 94.69333333332906,
      "v": 60
    },
    {
      "midi": 108,
      "hit": false,
      "t": 188629.11999999883,
      "d": 94.69333333332906,
      "v": 80
    },
    {
      "midi": 105,
      "hit": false,
      "t": 188629.11999999883,
      "d": 94.69333333332906,
      "v": 100
    },
    {
      "midi": 42,
      "hit": false,
      "t": 188629.11999999883,
      "d": 94.69333333332906,
      "v": 92
    },
    {
      "midi": 79,
      "hit": false,
      "t": 188629.11999999883,
      "d": 94.69333333332906,
      "v": 120
    },
    {
      "midi": 118,
      "hit": false,
      "t": 188629.11999999883,
      "d": 94.69333333332906,
      "v": 60
    },
    {
      "midi": 64,
      "hit": false,
      "t": 188629.11999999883,
      "d": 94.69333333332906,
      "v": 70
    },
    {
      "midi": 65,
      "hit": false,
      "t": 188733.2826666655,
      "d": 75.7546666666749,
      "v": 100
    },
    {
      "midi": 79,
      "hit": false,
      "t": 188733.2826666655,
      "d": 94.69333333332906,
      "v": 90
    },
    {
      "midi": 29,
      "hit": false,
      "t": 188742.75199999884,
      "d": 94.69333333332906,
      "v": 127
    },
    {
      "midi": 72,
      "hit": false,
      "t": 188742.75199999884,
      "d": 94.69333333332906,
      "v": 90
    },
    {
      "midi": 42,
      "hit": false,
      "t": 188752.22133333219,
      "d": 94.69333333332906,
      "v": 78
    },
    {
      "midi": 72,
      "hit": false,
      "t": 188846.9146666655,
      "d": 94.69333333335817,
      "v": 120
    },
    {
      "midi": 65,
      "hit": false,
      "t": 188856.38399999886,
      "d": 66.28533333333326,
      "v": 100
    },
    {
      "midi": 53,
      "hit": false,
      "t": 188856.38399999886,
      "d": 94.69333333335817,
      "v": 80
    },
    {
      "midi": 41,
      "hit": false,
      "t": 188856.38399999886,
      "d": 94.69333333335817,
      "v": 127
    },
    {
      "midi": 69,
      "hit": false,
      "t": 188856.38399999886,
      "d": 94.69333333335817,
      "v": 110
    },
    {
      "midi": 79,
      "hit": false,
      "t": 188856.38399999886,
      "d": 94.69333333335817,
      "v": 120
    },
    {
      "midi": 118,
      "hit": false,
      "t": 188856.38399999886,
      "d": 94.69333333335817,
      "v": 60
    },
    {
      "midi": 46,
      "hit": false,
      "t": 188875.3226666655,
      "d": 94.69333333338727,
      "v": 92
    },
    {
      "midi": 79,
      "hit": false,
      "t": 188960.54666666556,
      "d": 94.69333333332906,
      "v": 120
    },
    {
      "midi": 65,
      "hit": false,
      "t": 188970.0159999989,
      "d": 66.28533333333326,
      "v": 110
    },
    {
      "midi": 29,
      "hit": false,
      "t": 188970.0159999989,
      "d": 94.69333333332906,
      "v": 127
    },
    {
      "midi": 72,
      "hit": false,
      "t": 188970.0159999989,
      "d": 94.69333333332906,
      "v": 120
    },
    {
      "midi": 118,
      "hit": false,
      "t": 188970.0159999989,
      "d": 94.69333333332906,
      "v": 40
    },
    {
      "midi": 67,
      "hit": false,
      "t": 189074.17866666557,
      "d": 75.754666666704,
      "v": 100
    },
    {
      "midi": 62,
      "hit": false,
      "t": 189083.6479999989,
      "d": 18.938666666683275,
      "v": 70
    },
    {
      "midi": 31,
      "hit": false,
      "t": 189083.6479999989,
      "d": 94.69333333335817,
      "v": 127
    },
    {
      "midi": 15,
      "hit": false,
      "t": 189083.6479999989,
      "d": 94.69333333335817,
      "v": 100
    },
    {
      "midi": 13,
      "hit": false,
      "t": 189083.6479999989,
      "d": 94.69333333335817,
      "v": 100
    },
    {
      "midi": 10,
      "hit": false,
      "t": 189083.6479999989,
      "d": 94.69333333335817,
      "v": 127
    },
    {
      "midi": 42,
      "hit": false,
      "t": 189083.6479999989,
      "d": 94.69333333335817,
      "v": 92
    },
    {
      "midi": 67,
      "hit": false,
      "t": 189187.8106666656,
      "d": 75.754666666704,
      "v": 100
    },
    {
      "midi": 31,
      "hit": false,
      "t": 189197.27999999895,
      "d": 94.69333333335817,
      "v": 127
    },
    {
      "midi": 59,
      "hit": false,
      "t": 189197.27999999895,
      "d": 94.69333333335817,
      "v": 110
    },
    {
      "midi": 42,
      "hit": false,
      "t": 189206.7493333323,
      "d": 94.69333333335817,
      "v": 78
    },
    {
      "midi": 67,
      "hit": false,
      "t": 189301.44266666565,
      "d": 75.7546666666749,
      "v": 100
    },
    {
      "midi": 55,
      "hit": false,
      "t": 189310.911999999,
      "d": 94.69333333332906,
      "v": 80
    },
    {
      "midi": 43,
      "hit": false,
      "t": 189310.911999999,
      "d": 94.69333333332906,
      "v": 127
    },
    {
      "midi": 62,
      "hit": false,
      "t": 189310.911999999,
      "d": 94.69333333332906,
      "v": 100
    },
    {
      "midi": 77,
      "hit": false,
      "t": 189310.911999999,
      "d": 227.26400000005378,
      "v": 120
    },
    {
      "midi": 65,
      "hit": false,
      "t": 189310.911999999,
      "d": 227.26400000005378,
      "v": 110
    },
    {
      "midi": 46,
      "hit": false,
      "t": 189329.85066666565,
      "d": 94.69333333335817,
      "v": 92
    },
    {
      "midi": 72,
      "hit": false,
      "t": 189415.07466666566,
      "d": 94.69333333335817,
      "v": 120
    },
    {
      "midi": 67,
      "hit": false,
      "t": 189424.543999999,
      "d": 66.28533333333326,
      "v": 110
    },
    {
      "midi": 31,
      "hit": false,
      "t": 189424.543999999,
      "d": 94.69333333335817,
      "v": 127
    },
    {
      "midi": 79,
      "hit": false,
      "t": 189424.543999999,
      "d": 94.69333333335817,
      "v": 120
    },
    {
      "midi": 64,
      "hit": false,
      "t": 189424.543999999,
      "d": 94.69333333335817,
      "v": 70
    },
    {
      "midi": 67,
      "hit": false,
      "t": 189528.7066666657,
      "d": 75.7546666666749,
      "v": 100
    },
    {
      "midi": 79,
      "hit": false,
      "t": 189528.7066666657,
      "d": 94.69333333332906,
      "v": 120
    },
    {
      "midi": 62,
      "hit": false,
      "t": 189538.17599999905,
      "d": 18.93866666665417,
      "v": 70
    },
    {
      "midi": 31,
      "hit": false,
      "t": 189538.17599999905,
      "d": 94.69333333332906,
      "v": 127
    },
    {
      "midi": 71,
      "hit": false,
      "t": 189538.17599999905,
      "d": 94.69333333332906,
      "v": 110
    },
    {
      "midi": 15,
      "hit": false,
      "t": 189538.17599999905,
      "d": 94.69333333332906,
      "v": 100
    },
    {
      "midi": 13,
      "hit": false,
      "t": 189538.17599999905,
      "d": 94.69333333332906,
      "v": 100
    },
    {
      "midi": 10,
      "hit": false,
      "t": 189538.17599999905,
      "d": 94.69333333332906,
      "v": 127
    },
    {
      "midi": 127,
      "hit": false,
      "t": 189538.17599999905,
      "d": 94.69333333332906,
      "v": 60
    },
    {
      "midi": 108,
      "hit": false,
      "t": 189538.17599999905,
      "d": 94.69333333332906,
      "v": 80
    },
    {
      "midi": 105,
      "hit": false,
      "t": 189538.17599999905,
      "d": 94.69333333332906,
      "v": 100
    },
    {
      "midi": 42,
      "hit": false,
      "t": 189538.17599999905,
      "d": 94.69333333332906,
      "v": 92
    },
    {
      "midi": 72,
      "hit": false,
      "t": 189538.17599999905,
      "d": 94.69333333332906,
      "v": 120
    },
    {
      "midi": 118,
      "hit": false,
      "t": 189538.17599999905,
      "d": 94.69333333332906,
      "v": 60
    },
    {
      "midi": 63,
      "hit": false,
      "t": 189538.17599999905,
      "d": 94.69333333332906,
      "v": 70
    },
    {
      "midi": 72,
      "hit": false,
      "t": 189642.33866666572,
      "d": 94.69333333335817,
      "v": 90
    },
    {
      "midi": 67,
      "hit": false,
      "t": 189651.80799999906,
      "d": 66.28533333333326,
      "v": 110
    },
    {
      "midi": 31,
      "hit": false,
      "t": 189651.80799999906,
      "d": 94.69333333335817,
      "v": 127
    },
    {
      "midi": 79,
      "hit": false,
      "t": 189651.80799999906,
      "d": 94.69333333335817,
      "v": 90
    },
    {
      "midi": 42,
      "hit": false,
      "t": 189661.2773333324,
      "d": 94.69333333335817,
      "v": 78
    },
    {
      "midi": 67,
      "hit": false,
      "t": 189755.97066666576,
      "d": 75.7546666666749,
      "v": 100
    },
    {
      "midi": 79,
      "hit": false,
      "t": 189755.97066666576,
      "d": 94.69333333332906,
      "v": 120
    },
    {
      "midi": 55,
      "hit": false,
      "t": 189765.4399999991,
      "d": 94.69333333332906,
      "v": 80
    },
    {
      "midi": 43,
      "hit": false,
      "t": 189765.4399999991,
      "d": 94.69333333332906,
      "v": 127
    },
    {
      "midi": 62,
      "hit": false,
      "t": 189765.4399999991,
      "d": 94.69333333332906,
      "v": 100
    },
    {
      "midi": 72,
      "hit": false,
      "t": 189765.4399999991,
      "d": 94.69333333332906,
      "v": 120
    },
    {
      "midi": 64,
      "hit": false,
      "t": 189765.4399999991,
      "d": 208.3253333333414,
      "v": 110
    },
    {
      "midi": 76,
      "hit": false,
      "t": 189765.4399999991,
      "d": 227.26400000002468,
      "v": 120
    },
    {
      "midi": 46,
      "hit": false,
      "t": 189784.37866666575,
      "d": 94.69333333335817,
      "v": 92
    },
    {
      "midi": 67,
      "hit": false,
      "t": 189869.60266666577,
      "d": 75.7546666666749,
      "v": 100
    },
    {
      "midi": 72,
      "hit": false,
      "t": 189869.60266666577,
      "d": 94.69333333332906,
      "v": 90
    },
    {
      "midi": 31,
      "hit": false,
      "t": 189879.0719999991,
      "d": 94.69333333332906,
      "v": 127
    },
    {
      "midi": 59,
      "hit": false,
      "t": 189879.0719999991,
      "d": 94.69333333332906,
      "v": 110
    },
    {
      "midi": 79,
      "hit": false,
      "t": 189879.0719999991,
      "d": 94.69333333332906,
      "v": 90
    },
    {
      "midi": 118,
      "hit": false,
      "t": 189879.0719999991,
      "d": 94.69333333332906,
      "v": 60
    },
    {
      "midi": 80,
      "hit": false,
      "t": 189983.23466666578,
      "d": 94.69333333335817,
      "v": 120
    },
    {
      "midi": 62,
      "hit": false,
      "t": 189992.70399999912,
      "d": 18.93866666665417,
      "v": 70
    },
    {
      "midi": 68,
      "hit": false,
      "t": 189992.70399999912,
      "d": 66.28533333333326,
      "v": 127
    },
    {
      "midi": 32,
      "hit": false,
      "t": 189992.70399999912,
      "d": 94.69333333335817,
      "v": 127
    },
    {
      "midi": 15,
      "hit": false,
      "t": 189992.70399999912,
      "d": 94.69333333335817,
      "v": 100
    },
    {
      "midi": 13,
      "hit": false,
      "t": 189992.70399999912,
      "d": 94.69333333335817,
      "v": 100
    },
    {
      "midi": 10,
      "hit": false,
      "t": 189992.70399999912,
      "d": 94.69333333335817,
      "v": 127
    },
    {
      "midi": 42,
      "hit": false,
      "t": 189992.70399999912,
      "d": 94.69333333335817,
      "v": 92
    },
    {
      "midi": 72,
      "hit": false,
      "t": 189992.70399999912,
      "d": 94.69333333335817,
      "v": 120
    },
    {
      "midi": 68,
      "hit": false,
      "t": 190096.86666666582,
      "d": 75.754666666704,
      "v": 100
    },
    {
      "midi": 72,
      "hit": false,
      "t": 190096.86666666582,
      "d": 94.69333333335817,
      "v": 120
    },
    {
      "midi": 32,
      "hit": false,
      "t": 190106.33599999917,
      "d": 94.69333333335817,
      "v": 127
    },
    {
      "midi": 80,
      "hit": false,
      "t": 190106.33599999917,
      "d": 94.69333333335817,
      "v": 120
    },
    {
      "midi": 118,
      "hit": false,
      "t": 190106.33599999917,
      "d": 94.69333333335817,
      "v": 60
    },
    {
      "midi": 42,
      "hit": false,
      "t": 190115.8053333325,
      "d": 94.69333333335817,
      "v": 78
    },
    {
      "midi": 68,
      "hit": false,
      "t": 190210.49866666587,
      "d": 75.75466666664579,
      "v": 100
    },
    {
      "midi": 80,
      "hit": false,
      "t": 190210.49866666587,
      "d": 94.69333333332906,
      "v": 90
    },
    {
      "midi": 74,
      "hit": false,
      "t": 190219.9679999992,
      "d": 75.75466666664579,
      "v": 120
    },
    {
      "midi": 62,
      "hit": false,
      "t": 190219.9679999992,
      "d": 75.75466666664579,
      "v": 100
    },
    {
      "midi": 56,
      "hit": false,
      "t": 190219.9679999992,
      "d": 94.69333333332906,
      "v": 80
    },
    {
      "midi": 44,
      "hit": false,
      "t": 190219.9679999992,
      "d": 94.69333333332906,
      "v": 127
    },
    {
      "midi": 76,
      "hit": false,
      "t": 190219.9679999992,
      "d": 94.69333333332906,
      "v": 110
    },
    {
      "midi": 105,
      "hit": false,
      "t": 190219.9679999992,
      "d": 94.69333333332906,
      "v": 100
    },
    {
      "midi": 108,
      "hit": false,
      "t": 190219.9679999992,
      "d": 94.69333333332906,
      "v": 80
    },
    {
      "midi": 127,
      "hit": false,
      "t": 190219.9679999992,
      "d": 94.69333333332906,
      "v": 60
    },
    {
      "midi": 72,
      "hit": false,
      "t": 190219.9679999992,
      "d": 94.69333333332906,
      "v": 90
    },
    {
      "midi": 118,
      "hit": false,
      "t": 190219.9679999992,
      "d": 94.69333333332906,
      "v": 40
    },
    {
      "midi": 46,
      "hit": false,
      "t": 190238.90666666586,
      "d": 94.69333333335817,
      "v": 92
    },
    {
      "midi": 68,
      "hit": false,
      "t": 190324.13066666588,
      "d": 75.7546666666749,
      "v": 100
    },
    {
      "midi": 72,
      "hit": false,
      "t": 190324.13066666588,
      "d": 94.69333333332906,
      "v": 120
    },
    {
      "midi": 32,
      "hit": false,
      "t": 190333.59999999922,
      "d": 94.69333333332906,
      "v": 127
    },
    {
      "midi": 74,
      "hit": false,
      "t": 190333.59999999922,
      "d": 94.69333333332906,
      "v": 110
    },
    {
      "midi": 80,
      "hit": false,
      "t": 190333.59999999922,
      "d": 94.69333333332906,
      "v": 120
    },
    {
      "midi": 63,
      "hit": false,
      "t": 190333.59999999922,
      "d": 94.69333333332906,
      "v": 80
    },
    {
      "midi": 68,
      "hit": false,
      "t": 190437.7626666659,
      "d": 75.7546666666749,
      "v": 100
    },
    {
      "midi": 80,
      "hit": false,
      "t": 190437.7626666659,
      "d": 94.69333333332906,
      "v": 120
    },
    {
      "midi": 62,
      "hit": false,
      "t": 190447.23199999923,
      "d": 18.93866666665417,
      "v": 70
    },
    {
      "midi": 32,
      "hit": false,
      "t": 190447.23199999923,
      "d": 94.69333333332906,
      "v": 127
    },
    {
      "midi": 71,
      "hit": false,
      "t": 190447.23199999923,
      "d": 94.69333333332906,
      "v": 120
    },
    {
      "midi": 15,
      "hit": false,
      "t": 190447.23199999923,
      "d": 94.69333333332906,
      "v": 100
    },
    {
      "midi": 13,
      "hit": false,
      "t": 190447.23199999923,
      "d": 94.69333333332906,
      "v": 100
    },
    {
      "midi": 10,
      "hit": false,
      "t": 190447.23199999923,
      "d": 94.69333333332906,
      "v": 127
    },
    {
      "midi": 105,
      "hit": false,
      "t": 190447.23199999923,
      "d": 94.69333333332906,
      "v": 100
    },
    {
      "midi": 108,
      "hit": false,
      "t": 190447.23199999923,
      "d": 94.69333333332906,
      "v": 80
    },
    {
      "midi": 127,
      "hit": false,
      "t": 190447.23199999923,
      "d": 94.69333333332906,
      "v": 60
    },
    {
      "midi": 42,
      "hit": false,
      "t": 190447.23199999923,
      "d": 94.69333333332906,
      "v": 92
    },
    {
      "midi": 72,
      "hit": false,
      "t": 190447.23199999923,
      "d": 94.69333333332906,
      "v": 120
    },
    {
      "midi": 118,
      "hit": false,
      "t": 190447.23199999923,
      "d": 94.69333333332906,
      "v": 60
    },
    {
      "midi": 64,
      "hit": false,
      "t": 190447.23199999923,
      "d": 94.69333333332906,
      "v": 70
    },
    {
      "midi": 59,
      "hit": false,
      "t": 190447.23199999923,
      "d": 189.38666666671634,
      "v": 110
    },
    {
      "midi": 72,
      "hit": false,
      "t": 190551.3946666659,
      "d": 94.69333333338727,
      "v": 90
    },
    {
      "midi": 68,
      "hit": false,
      "t": 190560.86399999924,
      "d": 66.28533333336236,
      "v": 110
    },
    {
      "midi": 56,
      "hit": false,
      "t": 190560.86399999924,
      "d": 94.69333333338727,
      "v": 80
    },
    {
      "midi": 44,
      "hit": false,
      "t": 190560.86399999924,
      "d": 94.69333333338727,
      "v": 127
    },
    {
      "midi": 105,
      "hit": false,
      "t": 190560.86399999924,
      "d": 94.69333333338727,
      "v": 100
    },
    {
      "midi": 108,
      "hit": false,
      "t": 190560.86399999924,
      "d": 94.69333333338727,
      "v": 80
    },
    {
      "midi": 127,
      "hit": false,
      "t": 190560.86399999924,
      "d": 94.69333333338727,
      "v": 60
    },
    {
      "midi": 80,
      "hit": false,
      "t": 190560.86399999924,
      "d": 94.69333333338727,
      "v": 90
    },
    {
      "midi": 42,
      "hit": false,
      "t": 190570.3333333326,
      "d": 94.69333333338727,
      "v": 78
    },
    {
      "midi": 68,
      "hit": false,
      "t": 190674.49599999932,
      "d": 66.28533333330415,
      "v": 127
    },
    {
      "midi": 59,
      "hit": false,
      "t": 190674.49599999932,
      "d": 94.69333333329996,
      "v": 127
    },
    {
      "midi": 52,
      "hit": false,
      "t": 190674.49599999932,
      "d": 94.69333333329996,
      "v": 80
    },
    {
      "midi": 40,
      "hit": false,
      "t": 190674.49599999932,
      "d": 94.69333333329996,
      "v": 127
    },
    {
      "midi": 64,
      "hit": false,
      "t": 190674.49599999932,
      "d": 94.69333333329996,
      "v": 110
    },
    {
      "midi": 15,
      "hit": false,
      "t": 190674.49599999932,
      "d": 94.69333333329996,
      "v": 100
    },
    {
      "midi": 13,
      "hit": false,
      "t": 190674.49599999932,
      "d": 94.69333333329996,
      "v": 100
    },
    {
      "midi": 10,
      "hit": false,
      "t": 190674.49599999932,
      "d": 94.69333333329996,
      "v": 127
    },
    {
      "midi": 118,
      "hit": false,
      "t": 190674.49599999932,
      "d": 94.69333333329996,
      "v": 60
    },
    {
      "midi": 46,
      "hit": false,
      "t": 190693.43466666597,
      "d": 94.69333333332906,
      "v": 92
    },
    {
      "midi": 68,
      "hit": false,
      "t": 190778.65866666596,
      "d": 75.7546666666749,
      "v": 100
    },
    {
      "midi": 59,
      "hit": false,
      "t": 190788.1279999993,
      "d": 94.69333333332906,
      "v": 110
    },
    {
      "midi": 39,
      "hit": false,
      "t": 190788.1279999993,
      "d": 94.69333333332906,
      "v": 127
    },
    {
      "midi": 118,
      "hit": false,
      "t": 190788.1279999993,
      "d": 94.69333333332906,
      "v": 40
    },
    {
      "midi": 59,
      "hit": false,
      "t": 190901.7599999993,
      "d": 18.93866666665417,
      "v": 70
    },
    {
      "midi": 69,
      "hit": false,
      "t": 190901.7599999993,
      "d": 66.28533333333326,
      "v": 127
    },
    {
      "midi": 33,
      "hit": false,
      "t": 190901.7599999993,
      "d": 94.69333333332906,
      "v": 127
    },
    {
      "midi": 15,
      "hit": false,
      "t": 190901.7599999993,
      "d": 94.69333333332906,
      "v": 100
    },
    {
      "midi": 13,
      "hit": false,
      "t": 190901.7599999993,
      "d": 94.69333333332906,
      "v": 100
    },
    {
      "midi": 10,
      "hit": false,
      "t": 190901.7599999993,
      "d": 94.69333333332906,
      "v": 127
    },
    {
      "midi": 42,
      "hit": false,
      "t": 190901.7599999993,
      "d": 94.69333333332906,
      "v": 92
    },
    {
      "midi": 60,
      "hit": false,
      "t": 190901.7599999993,
      "d": 303.0186666667287,
      "v": 127
    },
    {
      "midi": 55,
      "hit": false,
      "t": 190901.7599999993,
      "d": 426.12000000005355,
      "v": 70
    },
    {
      "midi": 72,
      "hit": false,
      "t": 190901.7599999993,
      "d": 473.46666666676174,
      "v": 120
    },
    {
      "midi": 69,
      "hit": false,
      "t": 191005.92266666598,
      "d": 75.754666666704,
      "v": 100
    },
    {
      "midi": 33,
      "hit": false,
      "t": 191015.39199999932,
      "d": 94.69333333335817,
      "v": 127
    },
    {
      "midi": 57,
      "hit": false,
      "t": 191015.39199999932,
      "d": 94.69333333335817,
      "v": 110
    },
    {
      "midi": 42,
      "hit": false,
      "t": 191024.86133333266,
      "d": 94.69333333335817,
      "v": 78
    },
    {
      "midi": 69,
      "hit": false,
      "t": 191119.55466666602,
      "d": 75.7546666666749,
      "v": 100
    },
    {
      "midi": 57,
      "hit": false,
      "t": 191129.02399999936,
      "d": 94.69333333332906,
      "v": 110
    },
    {
      "midi": 45,
      "hit": false,
      "t": 191129.02399999936,
      "d": 94.69333333332906,
      "v": 127
    },
    {
      "midi": 59,
      "hit": false,
      "t": 191129.02399999936,
      "d": 94.69333333332906,
      "v": 100
    },
    {
      "midi": 46,
      "hit": false,
      "t": 191147.96266666602,
      "d": 94.69333333335817,
      "v": 92
    },
    {
      "midi": 69,
      "hit": false,
      "t": 191242.65599999938,
      "d": 66.28533333333326,
      "v": 110
    },
    {
      "midi": 33,
      "hit": false,
      "t": 191242.65599999938,
      "d": 94.69333333332906,
      "v": 127
    },
    {
      "midi": 64,
      "hit": false,
      "t": 191242.65599999938,
      "d": 94.69333333332906,
      "v": 70
    },
    {
      "midi": 69,
      "hit": false,
      "t": 191346.81866666605,
      "d": 75.754666666704,
      "v": 100
    },
    {
      "midi": 76,
      "hit": false,
      "t": 191346.81866666605,
      "d": 94.69333333335817,
      "v": 120
    },
    {
      "midi": 59,
      "hit": false,
      "t": 191356.2879999994,
      "d": 18.938666666683275,
      "v": 70
    },
    {
      "midi": 33,
      "hit": false,
      "t": 191356.2879999994,
      "d": 94.69333333335817,
      "v": 127
    },
    {
      "midi": 15,
      "hit": false,
      "t": 191356.2879999994,
      "d": 94.69333333335817,
      "v": 100
    },
    {
      "midi": 13,
      "hit": false,
      "t": 191356.2879999994,
      "d": 94.69333333335817,
      "v": 100
    },
    {
      "midi": 10,
      "hit": false,
      "t": 191356.2879999994,
      "d": 94.69333333335817,
      "v": 127
    },
    {
      "midi": 127,
      "hit": false,
      "t": 191356.2879999994,
      "d": 94.69333333335817,
      "v": 60
    },
    {
      "midi": 108,
      "hit": false,
      "t": 191356.2879999994,
      "d": 94.69333333335817,
      "v": 80
    },
    {
      "midi": 105,
      "hit": false,
      "t": 191356.2879999994,
      "d": 94.69333333335817,
      "v": 100
    },
    {
      "midi": 42,
      "hit": false,
      "t": 191356.2879999994,
      "d": 94.69333333335817,
      "v": 92
    },
    {
      "midi": 64,
      "hit": false,
      "t": 191356.2879999994,
      "d": 94.69333333335817,
      "v": 120
    },
    {
      "midi": 118,
      "hit": false,
      "t": 191356.2879999994,
      "d": 94.69333333335817,
      "v": 60
    },
    {
      "midi": 63,
      "hit": false,
      "t": 191356.2879999994,
      "d": 94.69333333335817,
      "v": 70
    },
    {
      "midi": 62,
      "hit": false,
      "t": 191356.2879999994,
      "d": 426.12000000014086,
      "v": 127
    },
    {
      "midi": 57,
      "hit": false,
      "t": 191365.75733333273,
      "d": 85.22400000001653,
      "v": 120
    },
    {
      "midi": 69,
      "hit": false,
      "t": 191460.4506666661,
      "d": 75.7546666666749,
      "v": 100
    },
    {
      "midi": 57,
      "hit": false,
      "t": 191469.91999999943,
      "d": 85.22399999998743,
      "v": 110
    },
    {
      "midi": 33,
      "hit": false,
      "t": 191469.91999999943,
      "d": 94.69333333332906,
      "v": 127
    },
    {
      "midi": 64,
      "hit": false,
      "t": 191469.91999999943,
      "d": 94.69333333332906,
      "v": 120
    },
    {
      "midi": 42,
      "hit": false,
      "t": 191479.38933333277,
      "d": 94.69333333332906,
      "v": 78
    },
    {
      "midi": 76,
      "hit": false,
      "t": 191479.38933333277,
      "d": 94.69333333332906,
      "v": 120
    },
    {
      "midi": 76,
      "hit": false,
      "t": 191574.0826666661,
      "d": 94.69333333338727,
      "v": 120
    },
    {
      "midi": 69,
      "hit": false,
      "t": 191583.55199999944,
      "d": 66.28533333336236,
      "v": 110
    },
    {
      "midi": 45,
      "hit": false,
      "t": 191583.55199999944,
      "d": 94.69333333338727,
      "v": 127
    },
    {
      "midi": 59,
      "hit": false,
      "t": 191583.55199999944,
      "d": 94.69333333338727,
      "v": 100
    },
    {
      "midi": 71,
      "hit": false,
      "t": 191583.55199999944,
      "d": 94.69333333338727,
      "v": 120
    },
    {
      "midi": 64,
      "hit": false,
      "t": 191583.55199999944,
      "d": 94.69333333338727,
      "v": 120
    },
    {
      "midi": 57,
      "hit": false,
      "t": 191593.02133333278,
      "d": 85.22400000004563,
      "v": 120
    },
    {
      "midi": 46,
      "hit": false,
      "t": 191602.49066666613,
      "d": 94.69333333338727,
      "v": 92
    },
    {
      "midi": 69,
      "hit": false,
      "t": 191687.71466666617,
      "d": 75.7546666666749,
      "v": 100
    },
    {
      "midi": 72,
      "hit": false,
      "t": 191697.1839999995,
      "d": 37.87733333333745,
      "v": 120
    },
    {
      "midi": 60,
      "hit": false,
      "t": 191697.1839999995,
      "d": 37.87733333333745,
      "v": 110
    },
    {
      "midi": 57,
      "hit": false,
      "t": 191697.1839999995,
      "d": 85.22400000001653,
      "v": 110
    },
    {
      "midi": 33,
      "hit": false,
      "t": 191697.1839999995,
      "d": 94.69333333335817,
      "v": 127
    },
    {
      "midi": 64,
      "hit": false,
      "t": 191697.1839999995,
      "d": 94.69333333335817,
      "v": 120
    },
    {
      "midi": 118,
      "hit": false,
      "t": 191697.1839999995,
      "d": 94.69333333335817,
      "v": 60
    },
    {
      "midi": 76,
      "hit": false,
      "t": 191706.65333333286,
      "d": 94.69333333335817,
      "v": 120
    },
    {
      "midi": 76,
      "hit": false,
      "t": 191801.3466666662,
      "d": 94.69333333332906,
      "v": 120
    },
    {
      "midi": 59,
      "hit": false,
      "t": 191810.81599999956,
      "d": 18.938666666683275,
      "v": 70
    },
    {
      "midi": 68,
      "hit": false,
      "t": 191810.81599999956,
      "d": 66.28533333333326,
      "v": 127
    },
    {
      "midi": 32,
      "hit": false,
      "t": 191810.81599999956,
      "d": 94.69333333332906,
      "v": 127
    },
    {
      "midi": 15,
      "hit": false,
      "t": 191810.81599999956,
      "d": 94.69333333332906,
      "v": 100
    },
    {
      "midi": 13,
      "hit": false,
      "t": 191810.81599999956,
      "d": 94.69333333332906,
      "v": 100
    },
    {
      "midi": 10,
      "hit": false,
      "t": 191810.81599999956,
      "d": 94.69333333332906,
      "v": 127
    },
    {
      "midi": 42,
      "hit": false,
      "t": 191810.81599999956,
      "d": 94.69333333332906,
      "v": 92
    },
    {
      "midi": 64,
      "hit": false,
      "t": 191810.81599999956,
      "d": 94.69333333332906,
      "v": 120
    },
    {
      "midi": 74,
      "hit": false,
      "t": 191810.81599999956,
      "d": 473.46666666679084,
      "v": 120
    },
    {
      "midi": 62,
      "hit": false,
      "t": 191810.81599999956,
      "d": 473.46666666679084,
      "v": 127
    },
    {
      "midi": 57,
      "hit": false,
      "t": 191820.2853333329,
      "d": 94.69333333332906,
      "v": 120
    },
    {
      "midi": 68,
      "hit": false,
      "t": 191914.97866666623,
      "d": 75.754666666704,
      "v": 100
    },
    {
      "midi": 32,
      "hit": false,
      "t": 191924.44799999957,
      "d": 94.69333333335817,
      "v": 127
    },
    {
      "midi": 56,
      "hit": false,
      "t": 191924.44799999957,
      "d": 94.69333333335817,
      "v": 110
    },
    {
      "midi": 118,
      "hit": false,
      "t": 191924.44799999957,
      "d": 94.69333333335817,
      "v": 60
    },
    {
      "midi": 42,
      "hit": false,
      "t": 191933.9173333329,
      "d": 94.69333333335817,
      "v": 78
    },
    {
      "midi": 68,
      "hit": false,
      "t": 192028.61066666627,
      "d": 75.7546666666749,
      "v": 100
    },
    {
      "midi": 56,
      "hit": false,
      "t": 192038.0799999996,
      "d": 94.69333333332906,
      "v": 110
    },
    {
      "midi": 44,
      "hit": false,
      "t": 192038.0799999996,
      "d": 94.69333333332906,
      "v": 127
    },
    {
      "midi": 59,
      "hit": false,
      "t": 192038.0799999996,
      "d": 94.69333333332906,
      "v": 100
    },
    {
      "midi": 118,
      "hit": false,
      "t": 192038.0799999996,
      "d": 94.69333333332906,
      "v": 40
    },
    {
      "midi": 46,
      "hit": false,
      "t": 192057.01866666626,
      "d": 94.69333333335817,
      "v": 92
    },
    {
      "midi": 68,
      "hit": false,
      "t": 192151.71199999962,
      "d": 66.28533333333326,
      "v": 110
    },
    {
      "midi": 32,
      "hit": false,
      "t": 192151.71199999962,
      "d": 94.69333333335817,
      "v": 127
    },
    {
      "midi": 63,
      "hit": false,
      "t": 192151.71199999962,
      "d": 94.69333333335817,
      "v": 80
    },
    {
      "midi": 68,
      "hit": false,
      "t": 192255.87466666632,
      "d": 75.754666666704,
      "v": 100
    },
    {
      "midi": 76,
      "hit": false,
      "t": 192255.87466666632,
      "d": 94.69333333335817,
      "v": 120
    },
    {
      "midi": 59,
      "hit": false,
      "t": 192265.34399999966,
      "d": 18.938666666683275,
      "v": 70
    },
    {
      "midi": 32,
      "hit": false,
      "t": 192265.34399999966,
      "d": 94.69333333335817,
      "v": 127
    },
    {
      "midi": 56,
      "hit": false,
      "t": 192265.34399999966,
      "d": 94.69333333335817,
      "v": 110
    },
    {
      "midi": 15,
      "hit": false,
      "t": 192265.34399999966,
      "d": 94.69333333335817,
      "v": 100
    },
    {
      "midi": 13,
      "hit": false,
      "t": 192265.34399999966,
      "d": 94.69333333335817,
      "v": 100
    },
    {
      "midi": 10,
      "hit": false,
      "t": 192265.34399999966,
      "d": 94.69333333335817,
      "v": 127
    },
    {
      "midi": 127,
      "hit": false,
      "t": 192265.34399999966,
      "d": 94.69333333335817,
      "v": 60
    },
    {
      "midi": 108,
      "hit": false,
      "t": 192265.34399999966,
      "d": 94.69333333335817,
      "v": 80
    },
    {
      "midi": 105,
      "hit": false,
      "t": 192265.34399999966,
      "d": 94.69333333335817,
      "v": 100
    },
    {
      "midi": 42,
      "hit": false,
      "t": 192265.34399999966,
      "d": 94.69333333335817,
      "v": 92
    },
    {
      "midi": 64,
      "hit": false,
      "t": 192265.34399999966,
      "d": 94.69333333335817,
      "v": 70
    },
    {
      "midi": 118,
      "hit": false,
      "t": 192265.34399999966,
      "d": 94.69333333335817,
      "v": 60
    },
    {
      "midi": 57,
      "hit": false,
      "t": 192274.813333333,
      "d": 94.69333333335817,
      "v": 120
    },
    {
      "midi": 68,
      "hit": false,
      "t": 192369.50666666636,
      "d": 75.7546666666749,
      "v": 100
    },
    {
      "midi": 57,
      "hit": false,
      "t": 192369.50666666636,
      "d": 94.69333333332906,
      "v": 120
    },
    {
      "midi": 32,
      "hit": false,
      "t": 192378.9759999997,
      "d": 94.69333333332906,
      "v": 127
    },
    {
      "midi": 56,
      "hit": false,
      "t": 192378.9759999997,
      "d": 94.69333333332906,
      "v": 110
    },
    {
      "midi": 64,
      "hit": false,
      "t": 192378.9759999997,
      "d": 94.69333333332906,
      "v": 120
    },
    {
      "midi": 42,
      "hit": false,
      "t": 192388.44533333305,
      "d": 94.69333333332906,
      "v": 78
    },
    {
      "midi": 76,
      "hit": false,
      "t": 192388.44533333305,
      "d": 94.69333333332906,
      "v": 120
    },
    {
      "midi": 76,
      "hit": false,
      "t": 192483.13866666637,
      "d": 94.69333333338727,
      "v": 120
    },
    {
      "midi": 72,
      "hit": false,
      "t": 192492.60799999972,
      "d": 56.81600000002072,
      "v": 120
    },
    {
      "midi": 60,
      "hit": false,
      "t": 192492.60799999972,
      "d": 56.81600000002072,
      "v": 110
    },
    {
      "midi": 68,
      "hit": false,
      "t": 192492.60799999972,
      "d": 66.28533333336236,
      "v": 110
    },
    {
      "midi": 56,
      "hit": false,
      "t": 192492.60799999972,
      "d": 94.69333333338727,
      "v": 80
    },
    {
      "midi": 44,
      "hit": false,
      "t": 192492.60799999972,
      "d": 94.69333333338727,
      "v": 127
    },
    {
      "midi": 59,
      "hit": false,
      "t": 192492.60799999972,
      "d": 94.69333333338727,
      "v": 100
    },
    {
      "midi": 64,
      "hit": false,
      "t": 192492.60799999972,
      "d": 94.69333333338727,
      "v": 120
    },
    {
      "midi": 118,
      "hit": false,
      "t": 192492.60799999972,
      "d": 94.69333333338727,
      "v": 60
    },
    {
      "midi": 57,
      "hit": false,
      "t": 192502.07733333306,
      "d": 94.69333333338727,
      "v": 120
    },
    {
      "midi": 46,
      "hit": false,
      "t": 192511.5466666664,
      "d": 94.69333333338727,
      "v": 92
    },
    {
      "midi": 68,
      "hit": false,
      "t": 192596.77066666645,
      "d": 75.7546666666749,
      "v": 100
    },
    {
      "midi": 57,
      "hit": false,
      "t": 192596.77066666645,
      "d": 94.69333333335817,
      "v": 120
    },
    {
      "midi": 62,
      "hit": false,
      "t": 192606.2399999998,
      "d": 75.7546666666749,
      "v": 110
    },
    {
      "midi": 32,
      "hit": false,
      "t": 192606.2399999998,
      "d": 94.69333333335817,
      "v": 127
    },
    {
      "midi": 56,
      "hit": false,
      "t": 192606.2399999998,
      "d": 94.69333333335817,
      "v": 110
    },
    {
      "midi": 74,
      "hit": false,
      "t": 192606.2399999998,
      "d": 94.69333333335817,
      "v": 120
    },
    {
      "midi": 64,
      "hit": false,
      "t": 192606.2399999998,
      "d": 94.69333333335817,
      "v": 120
    },
    {
      "midi": 118,
      "hit": false,
      "t": 192606.2399999998,
      "d": 94.69333333335817,
      "v": 40
    },
    {
      "midi": 76,
      "hit": false,
      "t": 192615.70933333313,
      "d": 94.69333333335817,
      "v": 120
    },
    {
      "midi": 59,
      "hit": false,
      "t": 192719.87199999983,
      "d": 18.938666666683275,
      "v": 70
    },
    {
      "midi": 67,
      "hit": false,
      "t": 192719.87199999983,
      "d": 66.28533333336236,
      "v": 127
    },
    {
      "midi": 76,
      "hit": false,
      "t": 192719.87199999983,
      "d": 85.22400000001653,
      "v": 120
    },
    {
      "midi": 31,
      "hit": false,
      "t": 192719.87199999983,
      "d": 94.69333333335817,
      "v": 127
    },
    {
      "midi": 15,
      "hit": false,
      "t": 192719.87199999983,
      "d": 94.69333333335817,
      "v": 100
    },
    {
      "midi": 13,
      "hit": false,
      "t": 192719.87199999983,
      "d": 94.69333333335817,
      "v": 100
    },
    {
      "midi": 10,
      "hit": false,
      "t": 192719.87199999983,
      "d": 94.69333333335817,
      "v": 127
    },
    {
      "midi": 42,
      "hit": false,
      "t": 192719.87199999983,
      "d": 94.69333333335817,
      "v": 92
    },
    {
      "midi": 64,
      "hit": false,
      "t": 192719.87199999983,
      "d": 94.69333333335817,
      "v": 127
    },
    {
      "midi": 62,
      "hit": false,
      "t": 192719.87199999983,
      "d": 303.0186666667287,
      "v": 127
    },
    {
      "midi": 57,
      "hit": false,
      "t": 192729.34133333317,
      "d": 94.69333333335817,
      "v": 120
    },
    {
      "midi": 67,
      "hit": false,
      "t": 192824.03466666653,
      "d": 75.7546666666749,
      "v": 100
    },
    {
      "midi": 31,
      "hit": false,
      "t": 192833.50399999987,
      "d": 94.69333333332906,
      "v": 127
    },
    {
      "midi": 55,
      "hit": false,
      "t": 192833.50399999987,
      "d": 94.69333333332906,
      "v": 110
    },
    {
      "midi": 42,
      "hit": false,
      "t": 192842.9733333332,
      "d": 94.69333333332906,
      "v": 78
    },
    {
      "midi": 67,
      "hit": false,
      "t": 192937.66666666654,
      "d": 75.7546666666749,
      "v": 100
    },
    {
      "midi": 55,
      "hit": false,
      "t": 192947.13599999988,
      "d": 94.69333333332906,
      "v": 110
    },
    {
      "midi": 43,
      "hit": false,
      "t": 192947.13599999988,
      "d": 94.69333333332906,
      "v": 127
    },
    {
      "midi": 59,
      "hit": false,
      "t": 192947.13599999988,
      "d": 94.69333333332906,
      "v": 100
    },
    {
      "midi": 46,
      "hit": false,
      "t": 192966.07466666654,
      "d": 94.69333333335817,
      "v": 92
    },
    {
      "midi": 67,
      "hit": false,
      "t": 193060.7679999999,
      "d": 66.28533333333326,
      "v": 110
    },
    {
      "midi": 31,
      "hit": false,
      "t": 193060.7679999999,
      "d": 94.69333333332906,
      "v": 127
    },
    {
      "midi": 64,
      "hit": false,
      "t": 193060.7679999999,
      "d": 94.69333333332906,
      "v": 70
    },
    {
      "midi": 67,
      "hit": false,
      "t": 193164.93066666657,
      "d": 75.7546666666749,
      "v": 120
    },
    {
      "midi": 59,
      "hit": false,
      "t": 193174.3999999999,
      "d": 18.93866666665417,
      "v": 70
    },
    {
      "midi": 31,
      "hit": false,
      "t": 193174.3999999999,
      "d": 94.69333333335817,
      "v": 127
    },
    {
      "midi": 55,
      "hit": false,
      "t": 193174.3999999999,
      "d": 94.69333333335817,
      "v": 110
    },
    {
      "midi": 15,
      "hit": false,
      "t": 193174.3999999999,
      "d": 94.69333333335817,
      "v": 100
    },
    {
      "midi": 13,
      "hit": false,
      "t": 193174.3999999999,
      "d": 94.69333333335817,
      "v": 100
    },
    {
      "midi": 10,
      "hit": false,
      "t": 193174.3999999999,
      "d": 94.69333333335817,
      "v": 127
    },
    {
      "midi": 127,
      "hit": false,
      "t": 193174.3999999999,
      "d": 94.69333333335817,
      "v": 60
    },
    {
      "midi": 108,
      "hit": false,
      "t": 193174.3999999999,
      "d": 94.69333333335817,
      "v": 80
    },
    {
      "midi": 105,
      "hit": false,
      "t": 193174.3999999999,
      "d": 94.69333333335817,
      "v": 100
    },
    {
      "midi": 42,
      "hit": false,
      "t": 193174.3999999999,
      "d": 94.69333333335817,
      "v": 92
    },
    {
      "midi": 62,
      "hit": false,
      "t": 193174.3999999999,
      "d": 94.69333333335817,
      "v": 120
    },
    {
      "midi": 118,
      "hit": false,
      "t": 193174.3999999999,
      "d": 94.69333333335817,
      "v": 60
    },
    {
      "midi": 63,
      "hit": false,
      "t": 193174.3999999999,
      "d": 94.69333333335817,
      "v": 70
    },
    {
      "midi": 64,
      "hit": false,
      "t": 193174.3999999999,
      "d": 189.38666666671634,
      "v": 127
    },
    {
      "midi": 62,
      "hit": false,
      "t": 193278.5626666666,
      "d": 94.69333333335817,
      "v": 120
    },
    {
      "midi": 67,
      "hit": false,
      "t": 193288.03199999995,
      "d": 66.28533333333326,
      "v": 120
    },
    {
      "midi": 31,
      "hit": false,
      "t": 193288.03199999995,
      "d": 94.69333333335817,
      "v": 127
    },
    {
      "midi": 55,
      "hit": false,
      "t": 193288.03199999995,
      "d": 94.69333333335817,
      "v": 110
    },
    {
      "midi": 42,
      "hit": false,
      "t": 193297.5013333333,
      "d": 94.69333333335817,
      "v": 78
    },
    {
      "midi": 67,
      "hit": false,
      "t": 193401.664,
      "d": 66.28533333330415,
      "v": 110
    },
    {
      "midi": 74,
      "hit": false,
      "t": 193401.664,
      "d": 75.75466666664579,
      "v": 120
    },
    {
      "midi": 62,
      "hit": false,
      "t": 193401.664,
      "d": 75.75466666664579,
      "v": 120
    },
    {
      "midi": 55,
      "hit": false,
      "t": 193401.664,
      "d": 94.69333333332906,
      "v": 80
    },
    {
      "midi": 43,
      "hit": false,
      "t": 193401.664,
      "d": 94.69333333332906,
      "v": 127
    },
    {
      "midi": 59,
      "hit": false,
      "t": 193401.664,
      "d": 94.69333333332906,
      "v": 100
    },
    {
      "midi": 46,
      "hit": false,
      "t": 193420.60266666664,
      "d": 94.69333333335817,
      "v": 92
    },
    {
      "midi": 62,
      "hit": false,
      "t": 193505.82666666666,
      "d": 94.69333333335817,
      "v": 120
    },
    {
      "midi": 76,
      "hit": false,
      "t": 193515.296,
      "d": 56.81599999999162,
      "v": 120
    },
    {
      "midi": 64,
      "hit": false,
      "t": 193515.296,
      "d": 56.81599999999162,
      "v": 110
    },
    {
      "midi": 67,
      "hit": false,
      "t": 193515.296,
      "d": 66.28533333333326,
      "v": 120
    },
    {
      "midi": 31,
      "hit": false,
      "t": 193515.296,
      "d": 94.69333333335817,
      "v": 127
    },
    {
      "midi": 55,
      "hit": false,
      "t": 193515.296,
      "d": 94.69333333335817,
      "v": 110
    },
    {
      "midi": 118,
      "hit": false,
      "t": 193515.296,
      "d": 94.69333333335817,
      "v": 60
    },
    {
      "midi": 67,
      "hit": false,
      "t": 193619.4586666667,
      "d": 94.69333333332906,
      "v": 70
    },
    {
      "midi": 59,
      "hit": false,
      "t": 193628.92800000004,
      "d": 18.93866666665417,
      "v": 70
    },
    {
      "midi": 78,
      "hit": false,
      "t": 193628.92800000004,
      "d": 56.81599999999162,
      "v": 120
    },
    {
      "midi": 66,
      "hit": false,
      "t": 193628.92800000004,
      "d": 56.81599999999162,
      "v": 127
    },
    {
      "midi": 30,
      "hit": false,
      "t": 193628.92800000004,
      "d": 94.69333333332906,
      "v": 127
    },
    {
      "midi": 15,
      "hit": false,
      "t": 193628.92800000004,
      "d": 94.69333333332906,
      "v": 100
    },
    {
      "midi": 13,
      "hit": false,
      "t": 193628.92800000004,
      "d": 94.69333333332906,
      "v": 100
    },
    {
      "midi": 10,
      "hit": false,
      "t": 193628.92800000004,
      "d": 94.69333333332906,
      "v": 127
    },
    {
      "midi": 42,
      "hit": false,
      "t": 193628.92800000004,
      "d": 94.69333333332906,
      "v": 92
    },
    {
      "midi": 62,
      "hit": false,
      "t": 193628.92800000004,
      "d": 94.69333333332906,
      "v": 70
    },
    {
      "midi": 66,
      "hit": false,
      "t": 193733.0906666667,
      "d": 75.754666666704,
      "v": 100
    },
    {
      "midi": 59,
      "hit": false,
      "t": 193742.56000000006,
      "d": 18.938666666683275,
      "v": 70
    },
    {
      "midi": 30,
      "hit": false,
      "t": 193742.56000000006,
      "d": 94.69333333335817,
      "v": 127
    },
    {
      "midi": 54,
      "hit": false,
      "t": 193742.56000000006,
      "d": 94.69333333335817,
      "v": 110
    },
    {
      "midi": 118,
      "hit": false,
      "t": 193742.56000000006,
      "d": 94.69333333335817,
      "v": 60
    },
    {
      "midi": 42,
      "hit": false,
      "t": 193752.0293333334,
      "d": 94.69333333335817,
      "v": 78
    },
    {
      "midi": 66,
      "hit": false,
      "t": 193846.72266666676,
      "d": 75.7546666666749,
      "v": 100
    },
    {
      "midi": 79,
      "hit": false,
      "t": 193856.1920000001,
      "d": 56.81599999999162,
      "v": 120
    },
    {
      "midi": 67,
      "hit": false,
      "t": 193856.1920000001,
      "d": 56.81599999999162,
      "v": 110
    },
    {
      "midi": 54,
      "hit": false,
      "t": 193856.1920000001,
      "d": 94.69333333332906,
      "v": 110
    },
    {
      "midi": 42,
      "hit": false,
      "t": 193856.1920000001,
      "d": 94.69333333332906,
      "v": 127
    },
    {
      "midi": 59,
      "hit": false,
      "t": 193856.1920000001,
      "d": 94.69333333332906,
      "v": 100
    },
    {
      "midi": 118,
      "hit": false,
      "t": 193856.1920000001,
      "d": 94.69333333332906,
      "v": 40
    },
    {
      "midi": 46,
      "hit": false,
      "t": 193875.13066666675,
      "d": 94.69333333335817,
      "v": 92
    },
    {
      "midi": 59,
      "hit": false,
      "t": 193969.8240000001,
      "d": 18.93866666665417,
      "v": 70
    },
    {
      "midi": 66,
      "hit": false,
      "t": 193969.8240000001,
      "d": 66.28533333330415,
      "v": 110
    },
    {
      "midi": 30,
      "hit": false,
      "t": 193969.8240000001,
      "d": 94.69333333329996,
      "v": 127
    },
    {
      "midi": 63,
      "hit": false,
      "t": 193969.8240000001,
      "d": 94.69333333329996,
      "v": 80
    },
    {
      "midi": 66,
      "hit": false,
      "t": 194073.98666666675,
      "d": 75.7546666666749,
      "v": 100
    },
    {
      "midi": 62,
      "hit": false,
      "t": 194073.98666666675,
      "d": 94.69333333332906,
      "v": 120
    },
    {
      "midi": 59,
      "hit": false,
      "t": 194083.4560000001,
      "d": 18.93866666665417,
      "v": 70
    },
    {
      "midi": 30,
      "hit": false,
      "t": 194083.4560000001,
      "d": 94.69333333332906,
      "v": 127
    },
    {
      "midi": 54,
      "hit": false,
      "t": 194083.4560000001,
      "d": 94.69333333332906,
      "v": 110
    },
    {
      "midi": 15,
      "hit": false,
      "t": 194083.4560000001,
      "d": 94.69333333332906,
      "v": 100
    },
    {
      "midi": 13,
      "hit": false,
      "t": 194083.4560000001,
      "d": 94.69333333332906,
      "v": 100
    },
    {
      "midi": 10,
      "hit": false,
      "t": 194083.4560000001,
      "d": 94.69333333332906,
      "v": 127
    },
    {
      "midi": 127,
      "hit": false,
      "t": 194083.4560000001,
      "d": 94.69333333332906,
      "v": 60
    },
    {
      "midi": 108,
      "hit": false,
      "t": 194083.4560000001,
      "d": 94.69333333332906,
      "v": 80
    },
    {
      "midi": 105,
      "hit": false,
      "t": 194083.4560000001,
      "d": 94.69333333332906,
      "v": 100
    },
    {
      "midi": 42,
      "hit": false,
      "t": 194083.4560000001,
      "d": 94.69333333332906,
      "v": 92
    },
    {
      "midi": 67,
      "hit": false,
      "t": 194083.4560000001,
      "d": 94.69333333332906,
      "v": 120
    },
    {
      "midi": 118,
      "hit": false,
      "t": 194083.4560000001,
      "d": 94.69333333332906,
      "v": 60
    },
    {
      "midi": 64,
      "hit": false,
      "t": 194083.4560000001,
      "d": 94.69333333332906,
      "v": 70
    },
    {
      "midi": 69,
      "hit": false,
      "t": 194083.4560000001,
      "d": 189.38666666668723,
      "v": 110
    },
    {
      "midi": 81,
      "hit": false,
      "t": 194083.4560000001,
      "d": 340.8960000000661,
      "v": 120
    },
    {
      "midi": 66,
      "hit": false,
      "t": 194187.61866666676,
      "d": 75.7546666666749,
      "v": 100
    },
    {
      "midi": 67,
      "hit": false,
      "t": 194187.61866666676,
      "d": 94.69333333335817,
      "v": 120
    },
    {
      "midi": 30,
      "hit": false,
      "t": 194197.0880000001,
      "d": 94.69333333335817,
      "v": 127
    },
    {
      "midi": 54,
      "hit": false,
      "t": 194197.0880000001,
      "d": 94.69333333335817,
      "v": 110
    },
    {
      "midi": 62,
      "hit": false,
      "t": 194197.0880000001,
      "d": 94.69333333335817,
      "v": 120
    },
    {
      "midi": 42,
      "hit": false,
      "t": 194206.55733333345,
      "d": 94.69333333335817,
      "v": 78
    },
    {
      "midi": 62,
      "hit": false,
      "t": 194301.2506666668,
      "d": 94.69333333332906,
      "v": 40
    },
    {
      "midi": 66,
      "hit": false,
      "t": 194310.72000000015,
      "d": 66.28533333333326,
      "v": 110
    },
    {
      "midi": 54,
      "hit": false,
      "t": 194310.72000000015,
      "d": 94.69333333332906,
      "v": 80
    },
    {
      "midi": 42,
      "hit": false,
      "t": 194310.72000000015,
      "d": 94.69333333332906,
      "v": 127
    },
    {
      "midi": 59,
      "hit": false,
      "t": 194310.72000000015,
      "d": 94.69333333332906,
      "v": 100
    },
    {
      "midi": 15,
      "hit": false,
      "t": 194310.72000000015,
      "d": 94.69333333332906,
      "v": 100
    },
    {
      "midi": 13,
      "hit": false,
      "t": 194310.72000000015,
      "d": 94.69333333332906,
      "v": 100
    },
    {
      "midi": 10,
      "hit": false,
      "t": 194310.72000000015,
      "d": 94.69333333332906,
      "v": 127
    },
    {
      "midi": 67,
      "hit": false,
      "t": 194310.72000000015,
      "d": 94.69333333332906,
      "v": 40
    },
    {
      "midi": 118,
      "hit": false,
      "t": 194310.72000000015,
      "d": 94.69333333332906,
      "v": 60
    },
    {
      "midi": 46,
      "hit": false,
      "t": 194329.6586666668,
      "d": 94.69333333335817,
      "v": 92
    },
    {
      "midi": 66,
      "hit": false,
      "t": 194414.88266666682,
      "d": 75.75466666664579,
      "v": 100
    },
    {
      "midi": 67,
      "hit": false,
      "t": 194414.88266666682,
      "d": 94.69333333332906,
      "v": 120
    },
    {
      "midi": 30,
      "hit": false,
      "t": 194424.35200000016,
      "d": 94.69333333332906,
      "v": 127
    },
    {
      "midi": 54,
      "hit": false,
      "t": 194424.35200000016,
      "d": 94.69333333332906,
      "v": 110
    },
    {
      "midi": 62,
      "hit": false,
      "t": 194424.35200000016,
      "d": 94.69333333332906,
      "v": 120
    },
    {
      "midi": 118,
      "hit": false,
      "t": 194424.35200000016,
      "d": 94.69333333332906,
      "v": 40
    },
    {
      "midi": 83,
      "hit": false,
      "t": 194443.2906666668,
      "d": 94.69333333335817,
      "v": 120
    },
    {
      "midi": 71,
      "hit": false,
      "t": 194443.2906666668,
      "d": 94.69333333335817,
      "v": 110
    },
    {
      "midi": 65,
      "hit": false,
      "t": 194528.51466666683,
      "d": 75.75466666664579,
      "v": 100
    },
    {
      "midi": 62,
      "hit": false,
      "t": 194528.51466666683,
      "d": 94.69333333332906,
      "v": 40
    },
    {
      "midi": 57,
      "hit": false,
      "t": 194537.98400000017,
      "d": 18.93866666665417,
      "v": 60
    },
    {
      "midi": 29,
      "hit": false,
      "t": 194537.98400000017,
      "d": 94.69333333332906,
      "v": 127
    },
    {
      "midi": 60,
      "hit": false,
      "t": 194537.98400000017,
      "d": 94.69333333332906,
      "v": 127
    },
    {
      "midi": 15,
      "hit": false,
      "t": 194537.98400000017,
      "d": 94.69333333332906,
      "v": 100
    },
    {
      "midi": 13,
      "hit": false,
      "t": 194537.98400000017,
      "d": 94.69333333332906,
      "v": 100
    },
    {
      "midi": 10,
      "hit": false,
      "t": 194537.98400000017,
      "d": 94.69333333332906,
      "v": 127
    },
    {
      "midi": 42,
      "hit": false,
      "t": 194537.98400000017,
      "d": 94.69333333332906,
      "v": 92
    },
    {
      "midi": 67,
      "hit": false,
      "t": 194537.98400000017,
      "d": 94.69333333332906,
      "v": 40
    },
    {
      "midi": 84,
      "hit": false,
      "t": 194537.98400000017,
      "d": 871.1786666668195,
      "v": 120
    },
    {
      "midi": 65,
      "hit": false,
      "t": 194642.14666666684,
      "d": 75.754666666704,
      "v": 100
    },
    {
      "midi": 29,
      "hit": false,
      "t": 194651.61600000018,
      "d": 94.69333333335817,
      "v": 127
    },
    {
      "midi": 57,
      "hit": false,
      "t": 194651.61600000018,
      "d": 94.69333333335817,
      "v": 90
    },
    {
      "midi": 42,
      "hit": false,
      "t": 194661.08533333353,
      "d": 94.69333333335817,
      "v": 78
    },
    {
      "midi": 65,
      "hit": false,
      "t": 194755.77866666688,
      "d": 75.7546666666749,
      "v": 100
    },
    {
      "midi": 29,
      "hit": false,
      "t": 194765.24800000023,
      "d": 94.69333333332906,
      "v": 127
    },
    {
      "midi": 60,
      "hit": false,
      "t": 194765.24800000023,
      "d": 94.69333333332906,
      "v": 110
    },
    {
      "midi": 46,
      "hit": false,
      "t": 194784.18666666688,
      "d": 94.69333333335817,
      "v": 92
    },
    {
      "midi": 60,
      "hit": false,
      "t": 194878.88000000024,
      "d": 56.81599999999162,
      "v": 70
    },
    {
      "midi": 65,
      "hit": false,
      "t": 194878.88000000024,
      "d": 66.28533333333326,
      "v": 110
    },
    {
      "midi": 29,
      "hit": false,
      "t": 194878.88000000024,
      "d": 94.69333333332906,
      "v": 127
    },
    {
      "midi": 64,
      "hit": false,
      "t": 194878.88000000024,
      "d": 94.69333333332906,
      "v": 70
    },
    {
      "midi": 65,
      "hit": false,
      "t": 194983.0426666669,
      "d": 75.75466666664579,
      "v": 120
    },
    {
      "midi": 60,
      "hit": false,
      "t": 194992.51200000025,
      "d": 18.93866666665417,
      "v": 60
    },
    {
      "midi": 29,
      "hit": false,
      "t": 194992.51200000025,
      "d": 94.69333333329996,
      "v": 127
    },
    {
      "midi": 69,
      "hit": false,
      "t": 194992.51200000025,
      "d": 94.69333333329996,
      "v": 110
    },
    {
      "midi": 15,
      "hit": false,
      "t": 194992.51200000025,
      "d": 94.69333333329996,
      "v": 100
    },
    {
      "midi": 13,
      "hit": false,
      "t": 194992.51200000025,
      "d": 94.69333333329996,
      "v": 100
    },
    {
      "midi": 10,
      "hit": false,
      "t": 194992.51200000025,
      "d": 94.69333333329996,
      "v": 127
    },
    {
      "midi": 127,
      "hit": false,
      "t": 194992.51200000025,
      "d": 94.69333333329996,
      "v": 60
    },
    {
      "midi": 108,
      "hit": false,
      "t": 194992.51200000025,
      "d": 94.69333333329996,
      "v": 80
    },
    {
      "midi": 105,
      "hit": false,
      "t": 194992.51200000025,
      "d": 94.69333333329996,
      "v": 100
    },
    {
      "midi": 42,
      "hit": false,
      "t": 194992.51200000025,
      "d": 94.69333333329996,
      "v": 92
    },
    {
      "midi": 72,
      "hit": false,
      "t": 194992.51200000025,
      "d": 94.69333333329996,
      "v": 120
    },
    {
      "midi": 118,
      "hit": false,
      "t": 194992.51200000025,
      "d": 94.69333333329996,
      "v": 60
    },
    {
      "midi": 63,
      "hit": false,
      "t": 194992.51200000025,
      "d": 94.69333333329996,
      "v": 70
    },
    {
      "midi": 72,
      "hit": false,
      "t": 195096.6746666669,
      "d": 94.69333333338727,
      "v": 120
    },
    {
      "midi": 65,
      "hit": false,
      "t": 195106.14400000023,
      "d": 66.28533333336236,
      "v": 120
    },
    {
      "midi": 42,
      "hit": false,
      "t": 195115.61333333357,
      "d": 94.69333333338727,
      "v": 78
    },
    {
      "midi": 65,
      "hit": false,
      "t": 195210.30666666696,
      "d": 75.7546666666749,
      "v": 70
    },
    {
      "midi": 29,
      "hit": false,
      "t": 195219.7760000003,
      "d": 94.69333333332906,
      "v": 127
    },
    {
      "midi": 60,
      "hit": false,
      "t": 195219.7760000003,
      "d": 94.69333333332906,
      "v": 90
    },
    {
      "midi": 72,
      "hit": false,
      "t": 195219.7760000003,
      "d": 94.69333333332906,
      "v": 70
    },
    {
      "midi": 46,
      "hit": false,
      "t": 195238.71466666696,
      "d": 94.69333333335817,
      "v": 92
    },
    {
      "midi": 72,
      "hit": false,
      "t": 195323.93866666697,
      "d": 85.22400000001653,
      "v": 120
    },
    {
      "midi": 65,
      "hit": false,
      "t": 195333.40800000032,
      "d": 66.28533333333326,
      "v": 120
    },
    {
      "midi": 29,
      "hit": false,
      "t": 195333.40800000032,
      "d": 94.69333333335817,
      "v": 127
    },
    {
      "midi": 57,
      "hit": false,
      "t": 195333.40800000032,
      "d": 94.69333333335817,
      "v": 110
    },
    {
      "midi": 118,
      "hit": false,
      "t": 195333.40800000032,
      "d": 94.69333333335817,
      "v": 60
    },
    {
      "midi": 59,
      "hit": false,
      "t": 195447.04000000036,
      "d": 18.93866666665417,
      "v": 60
    },
    {
      "midi": 67,
      "hit": false,
      "t": 195447.04000000036,
      "d": 66.28533333333326,
      "v": 127
    },
    {
      "midi": 31,
      "hit": false,
      "t": 195447.04000000036,
      "d": 94.69333333332906,
      "v": 127
    },
    {
      "midi": 15,
      "hit": false,
      "t": 195447.04000000036,
      "d": 94.69333333332906,
      "v": 100
    },
    {
      "midi": 13,
      "hit": false,
      "t": 195447.04000000036,
      "d": 94.69333333332906,
      "v": 100
    },
    {
      "midi": 10,
      "hit": false,
      "t": 195447.04000000036,
      "d": 94.69333333332906,
      "v": 127
    },
    {
      "midi": 42,
      "hit": false,
      "t": 195447.04000000036,
      "d": 94.69333333332906,
      "v": 92
    },
    {
      "midi": 62,
      "hit": false,
      "t": 195447.04000000036,
      "d": 208.3253333333414,
      "v": 127
    },
    {
      "midi": 79,
      "hit": false,
      "t": 195447.04000000036,
      "d": 871.1786666668777,
      "v": 120
    },
    {
      "midi": 67,
      "hit": false,
      "t": 195551.20266666703,
      "d": 75.7546666666749,
      "v": 100
    },
    {
      "midi": 59,
      "hit": false,
      "t": 195560.67200000037,
      "d": 94.69333333332906,
      "v": 110
    },
    {
      "midi": 118,
      "hit": false,
      "t": 195560.67200000037,
      "d": 94.69333333332906,
      "v": 60
    },
    {
      "midi": 42,
      "hit": false,
      "t": 195570.1413333337,
      "d": 94.69333333332906,
      "v": 78
    },
    {
      "midi": 67,
      "hit": false,
      "t": 195674.30400000038,
      "d": 66.28533333333326,
      "v": 127
    },
    {
      "midi": 31,
      "hit": false,
      "t": 195674.30400000038,
      "d": 94.69333333332906,
      "v": 127
    },
    {
      "midi": 62,
      "hit": false,
      "t": 195674.30400000038,
      "d": 94.69333333332906,
      "v": 127
    },
    {
      "midi": 105,
      "hit": false,
      "t": 195674.30400000038,
      "d": 94.69333333332906,
      "v": 100
    },
    {
      "midi": 108,
      "hit": false,
      "t": 195674.30400000038,
      "d": 94.69333333332906,
      "v": 80
    },
    {
      "midi": 127,
      "hit": false,
      "t": 195674.30400000038,
      "d": 94.69333333332906,
      "v": 60
    },
    {
      "midi": 118,
      "hit": false,
      "t": 195674.30400000038,
      "d": 94.69333333332906,
      "v": 40
    },
    {
      "midi": 60,
      "hit": false,
      "t": 195674.30400000038,
      "d": 208.3253333333414,
      "v": 127
    },
    {
      "midi": 59,
      "hit": false,
      "t": 195674.30400000038,
      "d": 208.3253333333414,
      "v": 90
    },
    {
      "midi": 46,
      "hit": false,
      "t": 195693.24266666704,
      "d": 94.69333333335817,
      "v": 92
    },
    {
      "midi": 67,
      "hit": false,
      "t": 195787.9360000004,
      "d": 66.28533333333326,
      "v": 110
    },
    {
      "midi": 63,
      "hit": false,
      "t": 195787.9360000004,
      "d": 94.69333333332906,
      "v": 80
    },
    {
      "midi": 74,
      "hit": false,
      "t": 195892.09866666707,
      "d": 94.69333333335817,
      "v": 120
    },
    {
      "midi": 62,
      "hit": false,
      "t": 195901.5680000004,
      "d": 18.93866666665417,
      "v": 127
    },
    {
      "midi": 67,
      "hit": false,
      "t": 195901.5680000004,
      "d": 66.28533333333326,
      "v": 127
    },
    {
      "midi": 31,
      "hit": false,
      "t": 195901.5680000004,
      "d": 94.69333333335817,
      "v": 127
    },
    {
      "midi": 71,
      "hit": false,
      "t": 195901.5680000004,
      "d": 94.69333333335817,
      "v": 110
    },
    {
      "midi": 15,
      "hit": false,
      "t": 195901.5680000004,
      "d": 94.69333333335817,
      "v": 100
    },
    {
      "midi": 13,
      "hit": false,
      "t": 195901.5680000004,
      "d": 94.69333333335817,
      "v": 100
    },
    {
      "midi": 10,
      "hit": false,
      "t": 195901.5680000004,
      "d": 94.69333333335817,
      "v": 127
    },
    {
      "midi": 105,
      "hit": false,
      "t": 195901.5680000004,
      "d": 94.69333333335817,
      "v": 100
    },
    {
      "midi": 108,
      "hit": false,
      "t": 195901.5680000004,
      "d": 94.69333333335817,
      "v": 80
    },
    {
      "midi": 127,
      "hit": false,
      "t": 195901.5680000004,
      "d": 94.69333333335817,
      "v": 60
    },
    {
      "midi": 42,
      "hit": false,
      "t": 195901.5680000004,
      "d": 94.69333333335817,
      "v": 92
    },
    {
      "midi": 118,
      "hit": false,
      "t": 195901.5680000004,
      "d": 94.69333333335817,
      "v": 60
    },
    {
      "midi": 64,
      "hit": false,
      "t": 195901.5680000004,
      "d": 94.69333333335817,
      "v": 70
    },
    {
      "midi": 59,
      "hit": false,
      "t": 195901.5680000004,
      "d": 208.3253333333996,
      "v": 127
    },
    {
      "midi": 67,
      "hit": false,
      "t": 196015.20000000045,
      "d": 66.28533333336236,
      "v": 110
    },
    {
      "midi": 31,
      "hit": false,
      "t": 196015.20000000045,
      "d": 94.69333333335817,
      "v": 127
    },
    {
      "midi": 74,
      "hit": false,
      "t": 196015.20000000045,
      "d": 94.69333333335817,
      "v": 120
    },
    {
      "midi": 42,
      "hit": false,
      "t": 196024.6693333338,
      "d": 94.69333333335817,
      "v": 78
    },
    {
      "midi": 74,
      "hit": false,
      "t": 196119.36266666715,
      "d": 9.469333333341638,
      "v": 120
    },
    {
      "midi": 67,
      "hit": false,
      "t": 196128.8320000005,
      "d": 9.469333333341638,
      "v": 120
    },
    {
      "midi": 31,
      "hit": false,
      "t": 196128.8320000005,
      "d": 94.69333333332906,
      "v": 127
    },
    {
      "midi": 62,
      "hit": false,
      "t": 196128.8320000005,
      "d": 94.69333333332906,
      "v": 90
    },
    {
      "midi": 105,
      "hit": false,
      "t": 196128.8320000005,
      "d": 94.69333333332906,
      "v": 100
    },
    {
      "midi": 108,
      "hit": false,
      "t": 196128.8320000005,
      "d": 94.69333333332906,
      "v": 80
    },
    {
      "midi": 127,
      "hit": false,
      "t": 196128.8320000005,
      "d": 94.69333333332906,
      "v": 60
    },
    {
      "midi": 118,
      "hit": false,
      "t": 196128.8320000005,
      "d": 94.69333333332906,
      "v": 60
    },
    {
      "midi": 69,
      "hit": false,
      "t": 196128.8320000005,
      "d": 662.8533333334781,
      "v": 127
    },
    {
      "midi": 46,
      "hit": false,
      "t": 196147.77066666717,
      "d": 94.69333333332906,
      "v": 92
    },
    {
      "midi": 67,
      "hit": false,
      "t": 196232.99466666716,
      "d": 75.7546666667331,
      "v": 100
    },
    {
      "midi": 31,
      "hit": false,
      "t": 196242.4640000005,
      "d": 94.69333333341638,
      "v": 127
    },
    {
      "midi": 59,
      "hit": false,
      "t": 196242.4640000005,
      "d": 94.69333333341638,
      "v": 110
    },
    {
      "midi": 105,
      "hit": false,
      "t": 196242.4640000005,
      "d": 94.69333333341638,
      "v": 100
    },
    {
      "midi": 108,
      "hit": false,
      "t": 196242.4640000005,
      "d": 94.69333333341638,
      "v": 80
    },
    {
      "midi": 127,
      "hit": false,
      "t": 196242.4640000005,
      "d": 94.69333333341638,
      "v": 60
    },
    {
      "midi": 118,
      "hit": false,
      "t": 196242.4640000005,
      "d": 94.69333333341638,
      "v": 40
    },
    {
      "midi": 60,
      "hit": false,
      "t": 196346.62666666726,
      "d": 9.469333333341638,
      "v": 100
    },
    {
      "midi": 60,
      "hit": false,
      "t": 196356.0960000006,
      "d": 66.28533333333326,
      "v": 110
    },
    {
      "midi": 24,
      "hit": false,
      "t": 196356.0960000006,
      "d": 94.69333333332906,
      "v": 127
    },
    {
      "midi": 15,
      "hit": false,
      "t": 196356.0960000006,
      "d": 94.69333333332906,
      "v": 100
    },
    {
      "midi": 13,
      "hit": false,
      "t": 196356.0960000006,
      "d": 94.69333333332906,
      "v": 100
    },
    {
      "midi": 10,
      "hit": false,
      "t": 196356.0960000006,
      "d": 94.69333333332906,
      "v": 127
    },
    {
      "midi": 42,
      "hit": false,
      "t": 196356.0960000006,
      "d": 94.69333333332906,
      "v": 92
    },
    {
      "midi": 57,
      "hit": false,
      "t": 196356.0960000006,
      "d": 909.0560000001278,
      "v": 80
    },
    {
      "midi": 60,
      "hit": false,
      "t": 196460.25866666727,
      "d": 75.7546666666749,
      "v": 100
    },
    {
      "midi": 24,
      "hit": false,
      "t": 196469.7280000006,
      "d": 94.69333333332906,
      "v": 127
    },
    {
      "midi": 64,
      "hit": false,
      "t": 196469.7280000006,
      "d": 94.69333333332906,
      "v": 110
    },
    {
      "midi": 42,
      "hit": false,
      "t": 196479.19733333396,
      "d": 94.69333333332906,
      "v": 78
    },
    {
      "midi": 60,
      "hit": false,
      "t": 196573.89066666728,
      "d": 75.75466666664579,
      "v": 100
    },
    {
      "midi": 48,
      "hit": false,
      "t": 196583.36000000063,
      "d": 94.69333333329996,
      "v": 80
    },
    {
      "midi": 36,
      "hit": false,
      "t": 196583.36000000063,
      "d": 94.69333333329996,
      "v": 127
    },
    {
      "midi": 64,
      "hit": false,
      "t": 196583.36000000063,
      "d": 94.69333333329996,
      "v": 110
    },
    {
      "midi": 62,
      "hit": false,
      "t": 196583.36000000063,
      "d": 94.69333333329996,
      "v": 100
    },
    {
      "midi": 46,
      "hit": false,
      "t": 196602.29866666728,
      "d": 94.69333333332906,
      "v": 92
    },
    {
      "midi": 60,
      "hit": false,
      "t": 196687.52266666727,
      "d": 75.754666666704,
      "v": 100
    },
    {
      "midi": 64,
      "hit": false,
      "t": 196696.9920000006,
      "d": 85.22400000001653,
      "v": 70
    },
    {
      "midi": 24,
      "hit": false,
      "t": 196696.9920000006,
      "d": 94.69333333335817,
      "v": 127
    },
    {
      "midi": 79,
      "hit": false,
      "t": 196801.1546666673,
      "d": 94.69333333329996,
      "v": 110
    },
    {
      "midi": 62,
      "hit": false,
      "t": 196810.62400000065,
      "d": 18.93866666665417,
      "v": 70
    },
    {
      "midi": 60,
      "hit": false,
      "t": 196810.62400000065,
      "d": 66.28533333330415,
      "v": 127
    },
    {
      "midi": 24,
      "hit": false,
      "t": 196810.62400000065,
      "d": 94.69333333329996,
      "v": 127
    },
    {
      "midi": 67,
      "hit": false,
      "t": 196810.62400000065,
      "d": 94.69333333329996,
      "v": 110
    },
    {
      "midi": 15,
      "hit": false,
      "t": 196810.62400000065,
      "d": 94.69333333329996,
      "v": 100
    },
    {
      "midi": 13,
      "hit": false,
      "t": 196810.62400000065,
      "d": 94.69333333329996,
      "v": 100
    },
    {
      "midi": 10,
      "hit": false,
      "t": 196810.62400000065,
      "d": 94.69333333329996,
      "v": 127
    },
    {
      "midi": 127,
      "hit": false,
      "t": 196810.62400000065,
      "d": 94.69333333329996,
      "v": 60
    },
    {
      "midi": 108,
      "hit": false,
      "t": 196810.62400000065,
      "d": 94.69333333329996,
      "v": 80
    },
    {
      "midi": 105,
      "hit": false,
      "t": 196810.62400000065,
      "d": 94.69333333329996,
      "v": 100
    },
    {
      "midi": 42,
      "hit": false,
      "t": 196810.62400000065,
      "d": 94.69333333329996,
      "v": 92
    },
    {
      "midi": 72,
      "hit": false,
      "t": 196810.62400000065,
      "d": 94.69333333329996,
      "v": 110
    },
    {
      "midi": 118,
      "hit": false,
      "t": 196810.62400000065,
      "d": 94.69333333329996,
      "v": 60
    },
    {
      "midi": 63,
      "hit": false,
      "t": 196810.62400000065,
      "d": 94.69333333329996,
      "v": 70
    },
    {
      "midi": 72,
      "hit": false,
      "t": 196914.7866666673,
      "d": 94.69333333335817,
      "v": 110
    },
    {
      "midi": 60,
      "hit": false,
      "t": 196924.25600000063,
      "d": 66.28533333333326,
      "v": 110
    },
    {
      "midi": 24,
      "hit": false,
      "t": 196924.25600000063,
      "d": 94.69333333335817,
      "v": 127
    },
    {
      "midi": 67,
      "hit": false,
      "t": 196924.25600000063,
      "d": 94.69333333335817,
      "v": 73
    },
    {
      "midi": 79,
      "hit": false,
      "t": 196924.25600000063,
      "d": 94.69333333335817,
      "v": 110
    },
    {
      "midi": 42,
      "hit": false,
      "t": 196933.72533333398,
      "d": 94.69333333335817,
      "v": 78
    },
    {
      "midi": 60,
      "hit": false,
      "t": 197028.41866666733,
      "d": 75.7546666666749,
      "v": 100
    },
    {
      "midi": 79,
      "hit": false,
      "t": 197028.41866666733,
      "d": 94.69333333335817,
      "v": 110
    },
    {
      "midi": 48,
      "hit": false,
      "t": 197037.88800000068,
      "d": 94.69333333335817,
      "v": 80
    },
    {
      "midi": 36,
      "hit": false,
      "t": 197037.88800000068,
      "d": 94.69333333335817,
      "v": 127
    },
    {
      "midi": 62,
      "hit": false,
      "t": 197037.88800000068,
      "d": 94.69333333335817,
      "v": 100
    },
    {
      "midi": 72,
      "hit": false,
      "t": 197037.88800000068,
      "d": 94.69333333335817,
      "v": 110
    },
    {
      "midi": 46,
      "hit": false,
      "t": 197056.82666666733,
      "d": 94.69333333338727,
      "v": 92
    },
    {
      "midi": 60,
      "hit": false,
      "t": 197142.05066666738,
      "d": 75.7546666666749,
      "v": 100
    },
    {
      "midi": 72,
      "hit": false,
      "t": 197142.05066666738,
      "d": 94.69333333332906,
      "v": 110
    },
    {
      "midi": 24,
      "hit": false,
      "t": 197151.52000000072,
      "d": 94.69333333332906,
      "v": 127
    },
    {
      "midi": 64,
      "hit": false,
      "t": 197151.52000000072,
      "d": 94.69333333332906,
      "v": 110
    },
    {
      "midi": 79,
      "hit": false,
      "t": 197151.52000000072,
      "d": 94.69333333332906,
      "v": 110
    },
    {
      "midi": 118,
      "hit": false,
      "t": 197151.52000000072,
      "d": 94.69333333332906,
      "v": 60
    },
    {
      "midi": 79,
      "hit": false,
      "t": 197255.6826666674,
      "d": 94.69333333332906,
      "v": 70
    },
    {
      "midi": 62,
      "hit": false,
      "t": 197265.15200000073,
      "d": 18.93866666665417,
      "v": 70
    },
    {
      "midi": 24,
      "hit": false,
      "t": 197265.15200000073,
      "d": 94.69333333332906,
      "v": 127
    },
    {
      "midi": 15,
      "hit": false,
      "t": 197265.15200000073,
      "d": 94.69333333332906,
      "v": 100
    },
    {
      "midi": 13,
      "hit": false,
      "t": 197265.15200000073,
      "d": 94.69333333332906,
      "v": 100
    },
    {
      "midi": 10,
      "hit": false,
      "t": 197265.15200000073,
      "d": 94.69333333332906,
      "v": 127
    },
    {
      "midi": 42,
      "hit": false,
      "t": 197265.15200000073,
      "d": 94.69333333332906,
      "v": 92
    },
    {
      "midi": 72,
      "hit": false,
      "t": 197265.15200000073,
      "d": 94.69333333332906,
      "v": 70
    },
    {
      "midi": 60,
      "hit": false,
      "t": 197369.3146666674,
      "d": 9.469333333341638,
      "v": 100
    },
    {
      "midi": 72,
      "hit": false,
      "t": 197369.3146666674,
      "d": 9.469333333341638,
      "v": 70
    },
    {
      "midi": 62,
      "hit": false,
      "t": 197378.78400000074,
      "d": 18.938666666683275,
      "v": 70
    },
    {
      "midi": 60,
      "hit": false,
      "t": 197378.78400000074,
      "d": 66.28533333336236,
      "v": 110
    },
    {
      "midi": 24,
      "hit": false,
      "t": 197378.78400000074,
      "d": 94.69333333335817,
      "v": 127
    },
    {
      "midi": 79,
      "hit": false,
      "t": 197378.78400000074,
      "d": 94.69333333335817,
      "v": 70
    },
    {
      "midi": 118,
      "hit": false,
      "t": 197378.78400000074,
      "d": 94.69333333335817,
      "v": 60
    },
    {
      "midi": 42,
      "hit": false,
      "t": 197388.25333333408,
      "d": 94.69333333335817,
      "v": 78
    },
    {
      "midi": 60,
      "hit": false,
      "t": 197482.94666666744,
      "d": 75.7546666666749,
      "v": 100
    },
    {
      "midi": 79,
      "hit": false,
      "t": 197482.94666666744,
      "d": 94.69333333335817,
      "v": 70
    },
    {
      "midi": 59,
      "hit": false,
      "t": 197492.41600000078,
      "d": 75.7546666666749,
      "v": 110
    },
    {
      "midi": 71,
      "hit": false,
      "t": 197492.41600000078,
      "d": 75.7546666666749,
      "v": 120
    },
    {
      "midi": 48,
      "hit": false,
      "t": 197492.41600000078,
      "d": 94.69333333335817,
      "v": 80
    },
    {
      "midi": 36,
      "hit": false,
      "t": 197492.41600000078,
      "d": 94.69333333335817,
      "v": 127
    },
    {
      "midi": 64,
      "hit": false,
      "t": 197492.41600000078,
      "d": 94.69333333335817,
      "v": 110
    },
    {
      "midi": 62,
      "hit": false,
      "t": 197492.41600000078,
      "d": 94.69333333335817,
      "v": 100
    },
    {
      "midi": 72,
      "hit": false,
      "t": 197492.41600000078,
      "d": 94.69333333335817,
      "v": 70
    },
    {
      "midi": 118,
      "hit": false,
      "t": 197492.41600000078,
      "d": 94.69333333335817,
      "v": 40
    },
    {
      "midi": 46,
      "hit": false,
      "t": 197511.35466666744,
      "d": 94.69333333338727,
      "v": 92
    },
    {
      "midi": 60,
      "hit": false,
      "t": 197596.57866666748,
      "d": 75.7546666666749,
      "v": 100
    },
    {
      "midi": 62,
      "hit": false,
      "t": 197606.04800000082,
      "d": 85.22399999998743,
      "v": 110
    },
    {
      "midi": 24,
      "hit": false,
      "t": 197606.04800000082,
      "d": 94.69333333332906,
      "v": 127
    },
    {
      "midi": 63,
      "hit": false,
      "t": 197606.04800000082,
      "d": 94.69333333332906,
      "v": 80
    },
    {
      "midi": 79,
      "hit": false,
      "t": 197710.2106666675,
      "d": 94.69333333332906,
      "v": 110
    },
    {
      "midi": 62,
      "hit": false,
      "t": 197719.68000000084,
      "d": 18.93866666665417,
      "v": 70
    },
    {
      "midi": 60,
      "hit": false,
      "t": 197719.68000000084,
      "d": 66.28533333330415,
      "v": 110
    },
    {
      "midi": 72,
      "hit": false,
      "t": 197719.68000000084,
      "d": 75.75466666664579,
      "v": 110
    },
    {
      "midi": 24,
      "hit": false,
      "t": 197719.68000000084,
      "d": 94.69333333332906,
      "v": 127
    },
    {
      "midi": 15,
      "hit": false,
      "t": 197719.68000000084,
      "d": 94.69333333332906,
      "v": 100
    },
    {
      "midi": 13,
      "hit": false,
      "t": 197719.68000000084,
      "d": 94.69333333332906,
      "v": 100
    },
    {
      "midi": 10,
      "hit": false,
      "t": 197719.68000000084,
      "d": 94.69333333332906,
      "v": 127
    },
    {
      "midi": 127,
      "hit": false,
      "t": 197719.68000000084,
      "d": 94.69333333332906,
      "v": 60
    },
    {
      "midi": 108,
      "hit": false,
      "t": 197719.68000000084,
      "d": 94.69333333332906,
      "v": 80
    },
    {
      "midi": 105,
      "hit": false,
      "t": 197719.68000000084,
      "d": 94.69333333332906,
      "v": 100
    },
    {
      "midi": 42,
      "hit": false,
      "t": 197719.68000000084,
      "d": 94.69333333332906,
      "v": 92
    },
    {
      "midi": 118,
      "hit": false,
      "t": 197719.68000000084,
      "d": 94.69333333332906,
      "v": 60
    },
    {
      "midi": 64,
      "hit": false,
      "t": 197719.68000000084,
      "d": 94.69333333332906,
      "v": 70
    },
    {
      "midi": 72,
      "hit": false,
      "t": 197823.8426666675,
      "d": 94.69333333335817,
      "v": 110
    },
    {
      "midi": 60,
      "hit": false,
      "t": 197833.31200000085,
      "d": 66.28533333336236,
      "v": 110
    },
    {
      "midi": 24,
      "hit": false,
      "t": 197833.31200000085,
      "d": 94.69333333335817,
      "v": 127
    },
    {
      "midi": 79,
      "hit": false,
      "t": 197833.31200000085,
      "d": 94.69333333335817,
      "v": 110
    },
    {
      "midi": 42,
      "hit": false,
      "t": 197842.7813333342,
      "d": 94.69333333335817,
      "v": 78
    },
    {
      "midi": 60,
      "hit": false,
      "t": 197937.47466666755,
      "d": 75.7546666666749,
      "v": 100
    },
    {
      "midi": 79,
      "hit": false,
      "t": 197946.9440000009,
      "d": 85.22400000001653,
      "v": 120
    },
    {
      "midi": 48,
      "hit": false,
      "t": 197946.9440000009,
      "d": 94.69333333335817,
      "v": 80
    },
    {
      "midi": 36,
      "hit": false,
      "t": 197946.9440000009,
      "d": 94.69333333335817,
      "v": 127
    },
    {
      "midi": 62,
      "hit": false,
      "t": 197946.9440000009,
      "d": 94.69333333335817,
      "v": 100
    },
    {
      "midi": 72,
      "hit": false,
      "t": 197946.9440000009,
      "d": 94.69333333335817,
      "v": 110
    },
    {
      "midi": 118,
      "hit": false,
      "t": 197946.9440000009,
      "d": 94.69333333335817,
      "v": 60
    },
    {
      "midi": 46,
      "hit": false,
      "t": 197965.88266666754,
      "d": 94.69333333338727,
      "v": 92
    },
    {
      "midi": 60,
      "hit": false,
      "t": 198051.1066666676,
      "d": 75.7546666666749,
      "v": 100
    },
    {
      "midi": 72,
      "hit": false,
      "t": 198051.1066666676,
      "d": 94.69333333332906,
      "v": 110
    },
    {
      "midi": 64,
      "hit": false,
      "t": 198060.57600000093,
      "d": 85.22399999998743,
      "v": 110
    },
    {
      "midi": 24,
      "hit": false,
      "t": 198060.57600000093,
      "d": 94.69333333332906,
      "v": 127
    },
    {
      "midi": 79,
      "hit": false,
      "t": 198060.57600000093,
      "d": 94.69333333332906,
      "v": 110
    },
    {
      "midi": 118,
      "hit": false,
      "t": 198060.57600000093,
      "d": 94.69333333332906,
      "v": 40
    },
    {
      "midi": 64,
      "hit": false,
      "t": 198164.7386666676,
      "d": 75.75466666664579,
      "v": 100
    },
    {
      "midi": 62,
      "hit": false,
      "t": 198174.20800000094,
      "d": 18.93866666665417,
      "v": 70
    },
    {
      "midi": 28,
      "hit": false,
      "t": 198174.20800000094,
      "d": 94.69333333329996,
      "v": 127
    },
    {
      "midi": 15,
      "hit": false,
      "t": 198174.20800000094,
      "d": 94.69333333329996,
      "v": 100
    },
    {
      "midi": 13,
      "hit": false,
      "t": 198174.20800000094,
      "d": 94.69333333329996,
      "v": 100
    },
    {
      "midi": 10,
      "hit": false,
      "t": 198174.20800000094,
      "d": 94.69333333329996,
      "v": 127
    },
    {
      "midi": 42,
      "hit": false,
      "t": 198174.20800000094,
      "d": 94.69333333329996,
      "v": 92
    },
    {
      "midi": 59,
      "hit": false,
      "t": 198174.20800000094,
      "d": 321.95733333332464,
      "v": 110
    },
    {
      "midi": 69,
      "hit": false,
      "t": 198174.20800000094,
      "d": 643.9146666667366,
      "v": 127
    },
    {
      "midi": 64,
      "hit": false,
      "t": 198278.3706666676,
      "d": 75.7546666666749,
      "v": 100
    },
    {
      "midi": 28,
      "hit": false,
      "t": 198287.84000000093,
      "d": 94.69333333332906,
      "v": 127
    },
    {
      "midi": 42,
      "hit": false,
      "t": 198297.30933333427,
      "d": 94.69333333332906,
      "v": 78
    },
    {
      "midi": 64,
      "hit": false,
      "t": 198392.0026666676,
      "d": 75.7546666666749,
      "v": 100
    },
    {
      "midi": 52,
      "hit": false,
      "t": 198401.47200000094,
      "d": 94.69333333332906,
      "v": 80
    },
    {
      "midi": 40,
      "hit": false,
      "t": 198401.47200000094,
      "d": 94.69333333332906,
      "v": 127
    },
    {
      "midi": 62,
      "hit": false,
      "t": 198401.47200000094,
      "d": 94.69333333332906,
      "v": 100
    },
    {
      "midi": 46,
      "hit": false,
      "t": 198420.4106666676,
      "d": 94.69333333335817,
      "v": 92
    },
    {
      "midi": 64,
      "hit": false,
      "t": 198515.10400000095,
      "d": 66.28533333333326,
      "v": 70
    },
    {
      "midi": 28,
      "hit": false,
      "t": 198515.10400000095,
      "d": 94.69333333332906,
      "v": 127
    },
    {
      "midi": 59,
      "hit": false,
      "t": 198515.10400000095,
      "d": 94.69333333332906,
      "v": 110
    },
    {
      "midi": 64,
      "hit": false,
      "t": 198619.26666666762,
      "d": 75.7546666666749,
      "v": 100
    },
    {
      "midi": 72,
      "hit": false,
      "t": 198619.26666666762,
      "d": 94.69333333335817,
      "v": 110
    },
    {
      "midi": 62,
      "hit": false,
      "t": 198628.73600000096,
      "d": 18.93866666665417,
      "v": 70
    },
    {
      "midi": 28,
      "hit": false,
      "t": 198628.73600000096,
      "d": 94.69333333335817,
      "v": 127
    },
    {
      "midi": 15,
      "hit": false,
      "t": 198628.73600000096,
      "d": 94.69333333335817,
      "v": 100
    },
    {
      "midi": 13,
      "hit": false,
      "t": 198628.73600000096,
      "d": 94.69333333335817,
      "v": 100
    },
    {
      "midi": 10,
      "hit": false,
      "t": 198628.73600000096,
      "d": 94.69333333335817,
      "v": 127
    },
    {
      "midi": 127,
      "hit": false,
      "t": 198628.73600000096,
      "d": 94.69333333335817,
      "v": 60
    },
    {
      "midi": 108,
      "hit": false,
      "t": 198628.73600000096,
      "d": 94.69333333335817,
      "v": 80
    },
    {
      "midi": 105,
      "hit": false,
      "t": 198628.73600000096,
      "d": 94.69333333335817,
      "v": 100
    },
    {
      "midi": 42,
      "hit": false,
      "t": 198628.73600000096,
      "d": 94.69333333335817,
      "v": 92
    },
    {
      "midi": 79,
      "hit": false,
      "t": 198628.73600000096,
      "d": 94.69333333335817,
      "v": 110
    },
    {
      "midi": 118,
      "hit": false,
      "t": 198628.73600000096,
      "d": 94.69333333335817,
      "v": 60
    },
    {
      "midi": 63,
      "hit": false,
      "t": 198628.73600000096,
      "d": 94.69333333335817,
      "v": 70
    },
    {
      "midi": 64,
      "hit": false,
      "t": 198732.89866666766,
      "d": 75.7546666666749,
      "v": 100
    },
    {
      "midi": 79,
      "hit": false,
      "t": 198732.89866666766,
      "d": 94.69333333335817,
      "v": 110
    },
    {
      "midi": 28,
      "hit": false,
      "t": 198742.368000001,
      "d": 94.69333333335817,
      "v": 127
    },
    {
      "midi": 59,
      "hit": false,
      "t": 198742.368000001,
      "d": 94.69333333335817,
      "v": 110
    },
    {
      "midi": 72,
      "hit": false,
      "t": 198742.368000001,
      "d": 94.69333333335817,
      "v": 110
    },
    {
      "midi": 42,
      "hit": false,
      "t": 198751.83733333435,
      "d": 94.69333333335817,
      "v": 78
    },
    {
      "midi": 72,
      "hit": false,
      "t": 198846.5306666677,
      "d": 94.69333333335817,
      "v": 110
    },
    {
      "midi": 64,
      "hit": false,
      "t": 198856.00000000105,
      "d": 66.28533333333326,
      "v": 110
    },
    {
      "midi": 52,
      "hit": false,
      "t": 198856.00000000105,
      "d": 94.69333333335817,
      "v": 80
    },
    {
      "midi": 40,
      "hit": false,
      "t": 198856.00000000105,
      "d": 94.69333333335817,
      "v": 127
    },
    {
      "midi": 62,
      "hit": false,
      "t": 198856.00000000105,
      "d": 94.69333333335817,
      "v": 100
    },
    {
      "midi": 79,
      "hit": false,
      "t": 198856.00000000105,
      "d": 94.69333333335817,
      "v": 110
    },
    {
      "midi": 67,
      "hit": false,
      "t": 198856.00000000105,
      "d": 208.3253333333414,
      "v": 127
    },
    {
      "midi": 46,
      "hit": false,
      "t": 198874.9386666677,
      "d": 94.69333333338727,
      "v": 92
    },
    {
      "midi": 79,
      "hit": false,
      "t": 198960.16266666775,
      "d": 94.69333333329996,
      "v": 110
    },
    {
      "midi": 62,
      "hit": false,
      "t": 198969.6320000011,
      "d": 18.93866666665417,
      "v": 70
    },
    {
      "midi": 64,
      "hit": false,
      "t": 198969.6320000011,
      "d": 66.28533333330415,
      "v": 110
    },
    {
      "midi": 28,
      "hit": false,
      "t": 198969.6320000011,
      "d": 94.69333333329996,
      "v": 127
    },
    {
      "midi": 72,
      "hit": false,
      "t": 198969.6320000011,
      "d": 94.69333333329996,
      "v": 110
    },
    {
      "midi": 118,
      "hit": false,
      "t": 198969.6320000011,
      "d": 94.69333333329996,
      "v": 60
    },
    {
      "midi": 72,
      "hit": false,
      "t": 199073.79466666773,
      "d": 94.69333333335817,
      "v": 60
    },
    {
      "midi": 62,
      "hit": false,
      "t": 199083.26400000107,
      "d": 37.87733333333745,
      "v": 80
    },
    {
      "midi": 28,
      "hit": false,
      "t": 199083.26400000107,
      "d": 94.69333333335817,
      "v": 127
    },
    {
      "midi": 15,
      "hit": false,
      "t": 199083.26400000107,
      "d": 94.69333333335817,
      "v": 100
    },
    {
      "midi": 13,
      "hit": false,
      "t": 199083.26400000107,
      "d": 94.69333333335817,
      "v": 100
    },
    {
      "midi": 10,
      "hit": false,
      "t": 199083.26400000107,
      "d": 94.69333333335817,
      "v": 127
    },
    {
      "midi": 42,
      "hit": false,
      "t": 199083.26400000107,
      "d": 94.69333333335817,
      "v": 92
    },
    {
      "midi": 79,
      "hit": false,
      "t": 199083.26400000107,
      "d": 94.69333333335817,
      "v": 60
    },
    {
      "midi": 67,
      "hit": false,
      "t": 199083.26400000107,
      "d": 568.1600000000617,
      "v": 127
    },
    {
      "midi": 64,
      "hit": false,
      "t": 199187.42666666777,
      "d": 75.7546666666749,
      "v": 100
    },
    {
      "midi": 28,
      "hit": false,
      "t": 199196.8960000011,
      "d": 94.69333333332906,
      "v": 127
    },
    {
      "midi": 60,
      "hit": false,
      "t": 199196.8960000011,
      "d": 94.69333333332906,
      "v": 110
    },
    {
      "midi": 118,
      "hit": false,
      "t": 199196.8960000011,
      "d": 94.69333333332906,
      "v": 60
    },
    {
      "midi": 42,
      "hit": false,
      "t": 199206.36533333446,
      "d": 94.69333333332906,
      "v": 78
    },
    {
      "midi": 64,
      "hit": false,
      "t": 199310.52800000113,
      "d": 66.28533333330415,
      "v": 110
    },
    {
      "midi": 52,
      "hit": false,
      "t": 199310.52800000113,
      "d": 94.69333333329996,
      "v": 80
    },
    {
      "midi": 40,
      "hit": false,
      "t": 199310.52800000113,
      "d": 94.69333333329996,
      "v": 127
    },
    {
      "midi": 62,
      "hit": false,
      "t": 199310.52800000113,
      "d": 94.69333333329996,
      "v": 100
    },
    {
      "midi": 118,
      "hit": false,
      "t": 199310.52800000113,
      "d": 94.69333333329996,
      "v": 40
    },
    {
      "midi": 46,
      "hit": false,
      "t": 199329.46666666778,
      "d": 94.69333333332906,
      "v": 92
    },
    {
      "midi": 64,
      "hit": false,
      "t": 199414.69066666777,
      "d": 75.75466666664579,
      "v": 100
    },
    {
      "midi": 28,
      "hit": false,
      "t": 199424.1600000011,
      "d": 94.69333333329996,
      "v": 127
    },
    {
      "midi": 62,
      "hit": false,
      "t": 199424.1600000011,
      "d": 94.69333333329996,
      "v": 110
    },
    {
      "midi": 63,
      "hit": false,
      "t": 199424.1600000011,
      "d": 94.69333333329996,
      "v": 80
    },
    {
      "midi": 79,
      "hit": false,
      "t": 199528.32266666775,
      "d": 94.69333333335817,
      "v": 110
    },
    {
      "midi": 62,
      "hit": false,
      "t": 199537.7920000011,
      "d": 18.93866666665417,
      "v": 70
    },
    {
      "midi": 64,
      "hit": false,
      "t": 199537.7920000011,
      "d": 66.28533333333326,
      "v": 70
    },
    {
      "midi": 28,
      "hit": false,
      "t": 199537.7920000011,
      "d": 94.69333333335817,
      "v": 127
    },
    {
      "midi": 60,
      "hit": false,
      "t": 199537.7920000011,
      "d": 94.69333333335817,
      "v": 110
    },
    {
      "midi": 15,
      "hit": false,
      "t": 199537.7920000011,
      "d": 94.69333333335817,
      "v": 100
    },
    {
      "midi": 13,
      "hit": false,
      "t": 199537.7920000011,
      "d": 94.69333333335817,
      "v": 100
    },
    {
      "midi": 10,
      "hit": false,
      "t": 199537.7920000011,
      "d": 94.69333333335817,
      "v": 127
    },
    {
      "midi": 127,
      "hit": false,
      "t": 199537.7920000011,
      "d": 94.69333333335817,
      "v": 60
    },
    {
      "midi": 108,
      "hit": false,
      "t": 199537.7920000011,
      "d": 94.69333333335817,
      "v": 80
    },
    {
      "midi": 105,
      "hit": false,
      "t": 199537.7920000011,
      "d": 94.69333333335817,
      "v": 100
    },
    {
      "midi": 42,
      "hit": false,
      "t": 199537.7920000011,
      "d": 94.69333333335817,
      "v": 92
    },
    {
      "midi": 72,
      "hit": false,
      "t": 199537.7920000011,
      "d": 94.69333333335817,
      "v": 110
    },
    {
      "midi": 118,
      "hit": false,
      "t": 199537.7920000011,
      "d": 94.69333333335817,
      "v": 60
    },
    {
      "midi": 64,
      "hit": false,
      "t": 199641.9546666678,
      "d": 75.7546666666749,
      "v": 100
    },
    {
      "midi": 72,
      "hit": false,
      "t": 199641.9546666678,
      "d": 94.69333333335817,
      "v": 110
    },
    {
      "midi": 79,
      "hit": false,
      "t": 199651.42400000113,
      "d": 37.87733333333745,
      "v": 110
    },
    {
      "midi": 28,
      "hit": false,
      "t": 199651.42400000113,
      "d": 94.69333333335817,
      "v": 127
    },
    {
      "midi": 60,
      "hit": false,
      "t": 199651.42400000113,
      "d": 94.69333333335817,
      "v": 110
    },
    {
      "midi": 42,
      "hit": false,
      "t": 199660.89333333448,
      "d": 94.69333333335817,
      "v": 78
    },
    {
      "midi": 64,
      "hit": false,
      "t": 199755.58666666783,
      "d": 75.7546666666749,
      "v": 100
    },
    {
      "midi": 79,
      "hit": false,
      "t": 199755.58666666783,
      "d": 94.69333333335817,
      "v": 110
    },
    {
      "midi": 59,
      "hit": false,
      "t": 199765.05600000118,
      "d": 75.7546666666749,
      "v": 110
    },
    {
      "midi": 71,
      "hit": false,
      "t": 199765.05600000118,
      "d": 75.7546666666749,
      "v": 120
    },
    {
      "midi": 52,
      "hit": false,
      "t": 199765.05600000118,
      "d": 94.69333333335817,
      "v": 80
    },
    {
      "midi": 40,
      "hit": false,
      "t": 199765.05600000118,
      "d": 94.69333333335817,
      "v": 127
    },
    {
      "midi": 62,
      "hit": false,
      "t": 199765.05600000118,
      "d": 94.69333333335817,
      "v": 100
    },
    {
      "midi": 15,
      "hit": false,
      "t": 199765.05600000118,
      "d": 94.69333333335817,
      "v": 100
    },
    {
      "midi": 13,
      "hit": false,
      "t": 199765.05600000118,
      "d": 94.69333333335817,
      "v": 100
    },
    {
      "midi": 10,
      "hit": false,
      "t": 199765.05600000118,
      "d": 94.69333333335817,
      "v": 127
    },
    {
      "midi": 72,
      "hit": false,
      "t": 199765.05600000118,
      "d": 94.69333333335817,
      "v": 110
    },
    {
      "midi": 118,
      "hit": false,
      "t": 199765.05600000118,
      "d": 94.69333333335817,
      "v": 60
    },
    {
      "midi": 46,
      "hit": false,
      "t": 199783.99466666783,
      "d": 94.69333333338727,
      "v": 92
    },
    {
      "midi": 72,
      "hit": false,
      "t": 199869.21866666788,
      "d": 94.69333333332906,
      "v": 110
    },
    {
      "midi": 64,
      "hit": false,
      "t": 199878.68800000122,
      "d": 66.28533333333326,
      "v": 110
    },
    {
      "midi": 28,
      "hit": false,
      "t": 199878.68800000122,
      "d": 94.69333333332906,
      "v": 127
    },
    {
      "midi": 79,
      "hit": false,
      "t": 199878.68800000122,
      "d": 94.69333333332906,
      "v": 110
    },
    {
      "midi": 118,
      "hit": false,
      "t": 199878.68800000122,
      "d": 94.69333333332906,
      "v": 40
    },
    {
      "midi": 65,
      "hit": false,
      "t": 199992.32000000123,
      "d": 66.28533333336236,
      "v": 127
    },
    {
      "midi": 29,
      "hit": false,
      "t": 199992.32000000123,
      "d": 94.69333333335817,
      "v": 127
    },
    {
      "midi": 60,
      "hit": false,
      "t": 199992.32000000123,
      "d": 94.69333333335817,
      "v": 110
    },
    {
      "midi": 15,
      "hit": false,
      "t": 199992.32000000123,
      "d": 94.69333333335817,
      "v": 100
    },
    {
      "midi": 13,
      "hit": false,
      "t": 199992.32000000123,
      "d": 94.69333333335817,
      "v": 100
    },
    {
      "midi": 10,
      "hit": false,
      "t": 199992.32000000123,
      "d": 94.69333333335817,
      "v": 127
    },
    {
      "midi": 42,
      "hit": false,
      "t": 199992.32000000123,
      "d": 94.69333333335817,
      "v": 92
    },
    {
      "midi": 65,
      "hit": false,
      "t": 200096.48266666793,
      "d": 75.7546666666749,
      "v": 100
    },
    {
      "midi": 29,
      "hit": false,
      "t": 200105.95200000127,
      "d": 94.69333333332906,
      "v": 127
    },
    {
      "midi": 60,
      "hit": false,
      "t": 200105.95200000127,
      "d": 94.69333333332906,
      "v": 110
    },
    {
      "midi": 42,
      "hit": false,
      "t": 200115.4213333346,
      "d": 94.69333333332906,
      "v": 78
    },
    {
      "midi": 65,
      "hit": false,
      "t": 200219.58400000128,
      "d": 66.28533333333326,
      "v": 100
    },
    {
      "midi": 53,
      "hit": false,
      "t": 200219.58400000128,
      "d": 94.69333333332906,
      "v": 80
    },
    {
      "midi": 41,
      "hit": false,
      "t": 200219.58400000128,
      "d": 94.69333333332906,
      "v": 127
    },
    {
      "midi": 46,
      "hit": false,
      "t": 200238.52266666794,
      "d": 94.69333333335817,
      "v": 92
    },
    {
      "midi": 65,
      "hit": false,
      "t": 200323.74666666795,
      "d": 75.7546666666749,
      "v": 100
    },
    {
      "midi": 29,
      "hit": false,
      "t": 200333.2160000013,
      "d": 94.69333333332906,
      "v": 127
    },
    {
      "midi": 64,
      "hit": false,
      "t": 200333.2160000013,
      "d": 94.69333333332906,
      "v": 70
    },
    {
      "midi": 79,
      "hit": false,
      "t": 200437.37866666797,
      "d": 94.69333333329996,
      "v": 110
    },
    {
      "midi": 65,
      "hit": false,
      "t": 200446.8480000013,
      "d": 18.93866666665417,
      "v": 70
    },
    {
      "midi": 29,
      "hit": false,
      "t": 200446.8480000013,
      "d": 94.69333333329996,
      "v": 127
    },
    {
      "midi": 15,
      "hit": false,
      "t": 200446.8480000013,
      "d": 94.69333333329996,
      "v": 100
    },
    {
      "midi": 13,
      "hit": false,
      "t": 200446.8480000013,
      "d": 94.69333333329996,
      "v": 100
    },
    {
      "midi": 10,
      "hit": false,
      "t": 200446.8480000013,
      "d": 94.69333333329996,
      "v": 127
    },
    {
      "midi": 127,
      "hit": false,
      "t": 200446.8480000013,
      "d": 94.69333333329996,
      "v": 60
    },
    {
      "midi": 108,
      "hit": false,
      "t": 200446.8480000013,
      "d": 94.69333333329996,
      "v": 80
    },
    {
      "midi": 105,
      "hit": false,
      "t": 200446.8480000013,
      "d": 94.69333333329996,
      "v": 100
    },
    {
      "midi": 42,
      "hit": false,
      "t": 200446.8480000013,
      "d": 94.69333333329996,
      "v": 92
    },
    {
      "midi": 72,
      "hit": false,
      "t": 200446.8480000013,
      "d": 94.69333333329996,
      "v": 110
    },
    {
      "midi": 118,
      "hit": false,
      "t": 200446.8480000013,
      "d": 94.69333333329996,
      "v": 60
    },
    {
      "midi": 63,
      "hit": false,
      "t": 200446.8480000013,
      "d": 94.69333333329996,
      "v": 70
    },
    {
      "midi": 65,
      "hit": false,
      "t": 200551.01066666795,
      "d": 75.7546666666749,
      "v": 100
    },
    {
      "midi": 72,
      "hit": false,
      "t": 200551.01066666795,
      "d": 94.69333333332906,
      "v": 110
    },
    {
      "midi": 29,
      "hit": false,
      "t": 200560.4800000013,
      "d": 94.69333333332906,
      "v": 127
    },
    {
      "midi": 79,
      "hit": false,
      "t": 200560.4800000013,
      "d": 94.69333333332906,
      "v": 110
    },
    {
      "midi": 42,
      "hit": false,
      "t": 200569.94933333463,
      "d": 94.69333333332906,
      "v": 78
    },
    {
      "midi": 79,
      "hit": false,
      "t": 200664.64266666796,
      "d": 94.69333333335817,
      "v": 110
    },
    {
      "midi": 65,
      "hit": false,
      "t": 200674.1120000013,
      "d": 66.28533333333326,
      "v": 100
    },
    {
      "midi": 53,
      "hit": false,
      "t": 200674.1120000013,
      "d": 94.69333333335817,
      "v": 80
    },
    {
      "midi": 41,
      "hit": false,
      "t": 200674.1120000013,
      "d": 94.69333333335817,
      "v": 127
    },
    {
      "midi": 72,
      "hit": false,
      "t": 200674.1120000013,
      "d": 94.69333333335817,
      "v": 110
    },
    {
      "midi": 46,
      "hit": false,
      "t": 200693.05066666796,
      "d": 94.69333333338727,
      "v": 92
    },
    {
      "midi": 72,
      "hit": false,
      "t": 200778.274666668,
      "d": 94.69333333332906,
      "v": 110
    },
    {
      "midi": 65,
      "hit": false,
      "t": 200787.74400000134,
      "d": 18.93866666665417,
      "v": 70
    },
    {
      "midi": 29,
      "hit": false,
      "t": 200787.74400000134,
      "d": 94.69333333332906,
      "v": 127
    },
    {
      "midi": 79,
      "hit": false,
      "t": 200787.74400000134,
      "d": 94.69333333332906,
      "v": 110
    },
    {
      "midi": 118,
      "hit": false,
      "t": 200787.74400000134,
      "d": 94.69333333332906,
      "v": 60
    },
    {
      "midi": 79,
      "hit": false,
      "t": 200891.90666666802,
      "d": 94.69333333332906,
      "v": 60
    },
    {
      "midi": 65,
      "hit": false,
      "t": 200901.37600000136,
      "d": 18.93866666665417,
      "v": 70
    },
    {
      "midi": 29,
      "hit": false,
      "t": 200901.37600000136,
      "d": 94.69333333332906,
      "v": 127
    },
    {
      "midi": 15,
      "hit": false,
      "t": 200901.37600000136,
      "d": 94.69333333332906,
      "v": 100
    },
    {
      "midi": 13,
      "hit": false,
      "t": 200901.37600000136,
      "d": 94.69333333332906,
      "v": 100
    },
    {
      "midi": 10,
      "hit": false,
      "t": 200901.37600000136,
      "d": 94.69333333332906,
      "v": 127
    },
    {
      "midi": 42,
      "hit": false,
      "t": 200901.37600000136,
      "d": 94.69333333332906,
      "v": 92
    },
    {
      "midi": 72,
      "hit": false,
      "t": 200901.37600000136,
      "d": 94.69333333332906,
      "v": 60
    },
    {
      "midi": 65,
      "hit": false,
      "t": 201005.53866666803,
      "d": 75.754666666704,
      "v": 100
    },
    {
      "midi": 29,
      "hit": false,
      "t": 201015.00800000137,
      "d": 94.69333333335817,
      "v": 127
    },
    {
      "midi": 118,
      "hit": false,
      "t": 201015.00800000137,
      "d": 94.69333333335817,
      "v": 60
    },
    {
      "midi": 42,
      "hit": false,
      "t": 201024.4773333347,
      "d": 94.69333333335817,
      "v": 78
    },
    {
      "midi": 65,
      "hit": false,
      "t": 201128.6400000014,
      "d": 66.28533333333326,
      "v": 100
    },
    {
      "midi": 59,
      "hit": false,
      "t": 201128.6400000014,
      "d": 75.7546666666749,
      "v": 110
    },
    {
      "midi": 71,
      "hit": false,
      "t": 201128.6400000014,
      "d": 75.7546666666749,
      "v": 120
    },
    {
      "midi": 53,
      "hit": false,
      "t": 201128.6400000014,
      "d": 94.69333333332906,
      "v": 80
    },
    {
      "midi": 41,
      "hit": false,
      "t": 201128.6400000014,
      "d": 94.69333333332906,
      "v": 127
    },
    {
      "midi": 118,
      "hit": false,
      "t": 201128.6400000014,
      "d": 94.69333333332906,
      "v": 40
    },
    {
      "midi": 46,
      "hit": false,
      "t": 201147.57866666807,
      "d": 94.69333333335817,
      "v": 92
    },
    {
      "midi": 65,
      "hit": false,
      "t": 201232.80266666808,
      "d": 75.7546666666749,
      "v": 100
    },
    {
      "midi": 29,
      "hit": false,
      "t": 201242.27200000142,
      "d": 94.69333333332906,
      "v": 127
    },
    {
      "midi": 63,
      "hit": false,
      "t": 201242.27200000142,
      "d": 94.69333333332906,
      "v": 80
    },
    {
      "midi": 79,
      "hit": false,
      "t": 201346.4346666681,
      "d": 94.69333333335817,
      "v": 110
    },
    {
      "midi": 65,
      "hit": false,
      "t": 201355.90400000144,
      "d": 18.93866666665417,
      "v": 70
    },
    {
      "midi": 60,
      "hit": false,
      "t": 201355.90400000144,
      "d": 75.7546666666749,
      "v": 110
    },
    {
      "midi": 72,
      "hit": false,
      "t": 201355.90400000144,
      "d": 75.7546666666749,
      "v": 110
    },
    {
      "midi": 29,
      "hit": false,
      "t": 201355.90400000144,
      "d": 94.69333333335817,
      "v": 127
    },
    {
      "midi": 15,
      "hit": false,
      "t": 201355.90400000144,
      "d": 94.69333333335817,
      "v": 100
    },
    {
      "midi": 13,
      "hit": false,
      "t": 201355.90400000144,
      "d": 94.69333333335817,
      "v": 100
    },
    {
      "midi": 10,
      "hit": false,
      "t": 201355.90400000144,
      "d": 94.69333333335817,
      "v": 127
    },
    {
      "midi": 127,
      "hit": false,
      "t": 201355.90400000144,
      "d": 94.69333333335817,
      "v": 60
    },
    {
      "midi": 108,
      "hit": false,
      "t": 201355.90400000144,
      "d": 94.69333333335817,
      "v": 80
    },
    {
      "midi": 105,
      "hit": false,
      "t": 201355.90400000144,
      "d": 94.69333333335817,
      "v": 100
    },
    {
      "midi": 42,
      "hit": false,
      "t": 201355.90400000144,
      "d": 94.69333333335817,
      "v": 92
    },
    {
      "midi": 118,
      "hit": false,
      "t": 201355.90400000144,
      "d": 94.69333333335817,
      "v": 60
    },
    {
      "midi": 64,
      "hit": false,
      "t": 201355.90400000144,
      "d": 94.69333333335817,
      "v": 70
    },
    {
      "midi": 65,
      "hit": false,
      "t": 201460.06666666814,
      "d": 75.7546666666749,
      "v": 100
    },
    {
      "midi": 72,
      "hit": false,
      "t": 201460.06666666814,
      "d": 94.69333333332906,
      "v": 110
    },
    {
      "midi": 29,
      "hit": false,
      "t": 201469.53600000148,
      "d": 94.69333333332906,
      "v": 127
    },
    {
      "midi": 79,
      "hit": false,
      "t": 201469.53600000148,
      "d": 94.69333333332906,
      "v": 110
    },
    {
      "midi": 42,
      "hit": false,
      "t": 201479.00533333482,
      "d": 94.69333333332906,
      "v": 78
    },
    {
      "midi": 65,
      "hit": false,
      "t": 201583.1680000015,
      "d": 66.28533333333326,
      "v": 100
    },
    {
      "midi": 79,
      "hit": false,
      "t": 201583.1680000015,
      "d": 85.22400000001653,
      "v": 120
    },
    {
      "midi": 53,
      "hit": false,
      "t": 201583.1680000015,
      "d": 94.69333333335817,
      "v": 80
    },
    {
      "midi": 41,
      "hit": false,
      "t": 201583.1680000015,
      "d": 94.69333333335817,
      "v": 127
    },
    {
      "midi": 72,
      "hit": false,
      "t": 201583.1680000015,
      "d": 94.69333333335817,
      "v": 110
    },
    {
      "midi": 118,
      "hit": false,
      "t": 201583.1680000015,
      "d": 94.69333333335817,
      "v": 60
    },
    {
      "midi": 46,
      "hit": false,
      "t": 201602.10666666814,
      "d": 94.69333333338727,
      "v": 92
    },
    {
      "midi": 65,
      "hit": false,
      "t": 201687.3306666682,
      "d": 75.7546666666749,
      "v": 100
    },
    {
      "midi": 72,
      "hit": false,
      "t": 201687.3306666682,
      "d": 94.69333333332906,
      "v": 110
    },
    {
      "midi": 29,
      "hit": false,
      "t": 201696.80000000153,
      "d": 94.69333333332906,
      "v": 127
    },
    {
      "midi": 79,
      "hit": false,
      "t": 201696.80000000153,
      "d": 94.69333333332906,
      "v": 110
    },
    {
      "midi": 118,
      "hit": false,
      "t": 201696.80000000153,
      "d": 94.69333333332906,
      "v": 40
    },
    {
      "midi": 67,
      "hit": false,
      "t": 201800.9626666682,
      "d": 75.754666666704,
      "v": 100
    },
    {
      "midi": 62,
      "hit": false,
      "t": 201810.43200000154,
      "d": 18.938666666683275,
      "v": 70
    },
    {
      "midi": 31,
      "hit": false,
      "t": 201810.43200000154,
      "d": 94.69333333335817,
      "v": 127
    },
    {
      "midi": 59,
      "hit": false,
      "t": 201810.43200000154,
      "d": 94.69333333335817,
      "v": 110
    },
    {
      "midi": 15,
      "hit": false,
      "t": 201810.43200000154,
      "d": 94.69333333335817,
      "v": 100
    },
    {
      "midi": 13,
      "hit": false,
      "t": 201810.43200000154,
      "d": 94.69333333335817,
      "v": 100
    },
    {
      "midi": 10,
      "hit": false,
      "t": 201810.43200000154,
      "d": 94.69333333335817,
      "v": 127
    },
    {
      "midi": 42,
      "hit": false,
      "t": 201810.43200000154,
      "d": 94.69333333335817,
      "v": 92
    },
    {
      "midi": 67,
      "hit": false,
      "t": 201914.59466666824,
      "d": 75.7546666666749,
      "v": 100
    },
    {
      "midi": 31,
      "hit": false,
      "t": 201924.06400000158,
      "d": 94.69333333332906,
      "v": 127
    },
    {
      "midi": 42,
      "hit": false,
      "t": 201933.53333333493,
      "d": 94.69333333332906,
      "v": 78
    },
    {
      "midi": 67,
      "hit": false,
      "t": 202028.22666666826,
      "d": 75.7546666666749,
      "v": 100
    },
    {
      "midi": 55,
      "hit": false,
      "t": 202037.6960000016,
      "d": 94.69333333332906,
      "v": 80
    },
    {
      "midi": 43,
      "hit": false,
      "t": 202037.6960000016,
      "d": 94.69333333332906,
      "v": 127
    },
    {
      "midi": 59,
      "hit": false,
      "t": 202037.6960000016,
      "d": 94.69333333332906,
      "v": 110
    },
    {
      "midi": 62,
      "hit": false,
      "t": 202037.6960000016,
      "d": 94.69333333332906,
      "v": 100
    },
    {
      "midi": 77,
      "hit": false,
      "t": 202037.6960000016,
      "d": 284.0799999999872,
      "v": 120
    },
    {
      "midi": 65,
      "hit": false,
      "t": 202037.6960000016,
      "d": 284.0799999999872,
      "v": 110
    },
    {
      "midi": 46,
      "hit": false,
      "t": 202056.63466666825,
      "d": 94.69333333335817,
      "v": 92
    },
    {
      "midi": 67,
      "hit": false,
      "t": 202151.3280000016,
      "d": 66.28533333333326,
      "v": 110
    },
    {
      "midi": 31,
      "hit": false,
      "t": 202151.3280000016,
      "d": 94.69333333332906,
      "v": 127
    },
    {
      "midi": 64,
      "hit": false,
      "t": 202151.3280000016,
      "d": 94.69333333332906,
      "v": 70
    },
    {
      "midi": 67,
      "hit": false,
      "t": 202255.49066666828,
      "d": 47.34666666664998,
      "v": 100
    },
    {
      "midi": 79,
      "hit": false,
      "t": 202255.49066666828,
      "d": 94.69333333332906,
      "v": 110
    },
    {
      "midi": 62,
      "hit": false,
      "t": 202264.96000000162,
      "d": 18.93866666665417,
      "v": 70
    },
    {
      "midi": 31,
      "hit": false,
      "t": 202264.96000000162,
      "d": 94.69333333332906,
      "v": 127
    },
    {
      "midi": 15,
      "hit": false,
      "t": 202264.96000000162,
      "d": 94.69333333332906,
      "v": 100
    },
    {
      "midi": 13,
      "hit": false,
      "t": 202264.96000000162,
      "d": 94.69333333332906,
      "v": 100
    },
    {
      "midi": 10,
      "hit": false,
      "t": 202264.96000000162,
      "d": 94.69333333332906,
      "v": 127
    },
    {
      "midi": 127,
      "hit": false,
      "t": 202264.96000000162,
      "d": 94.69333333332906,
      "v": 60
    },
    {
      "midi": 108,
      "hit": false,
      "t": 202264.96000000162,
      "d": 94.69333333332906,
      "v": 80
    },
    {
      "midi": 105,
      "hit": false,
      "t": 202264.96000000162,
      "d": 94.69333333332906,
      "v": 100
    },
    {
      "midi": 42,
      "hit": false,
      "t": 202264.96000000162,
      "d": 94.69333333332906,
      "v": 92
    },
    {
      "midi": 72,
      "hit": false,
      "t": 202264.96000000162,
      "d": 94.69333333332906,
      "v": 110
    },
    {
      "midi": 118,
      "hit": false,
      "t": 202264.96000000162,
      "d": 94.69333333332906,
      "v": 60
    },
    {
      "midi": 63,
      "hit": false,
      "t": 202264.96000000162,
      "d": 94.69333333332906,
      "v": 70
    },
    {
      "midi": 67,
      "hit": false,
      "t": 202369.1226666683,
      "d": 75.754666666704,
      "v": 100
    },
    {
      "midi": 72,
      "hit": false,
      "t": 202369.1226666683,
      "d": 94.69333333338727,
      "v": 110
    },
    {
      "midi": 31,
      "hit": false,
      "t": 202378.59200000163,
      "d": 94.69333333338727,
      "v": 127
    },
    {
      "midi": 79,
      "hit": false,
      "t": 202378.59200000163,
      "d": 94.69333333338727,
      "v": 110
    },
    {
      "midi": 42,
      "hit": false,
      "t": 202388.06133333498,
      "d": 94.69333333338727,
      "v": 78
    },
    {
      "midi": 79,
      "hit": false,
      "t": 202482.75466666836,
      "d": 94.69333333329996,
      "v": 110
    },
    {
      "midi": 67,
      "hit": false,
      "t": 202492.2240000017,
      "d": 66.28533333330415,
      "v": 110
    },
    {
      "midi": 55,
      "hit": false,
      "t": 202492.2240000017,
      "d": 94.69333333329996,
      "v": 80
    },
    {
      "midi": 43,
      "hit": false,
      "t": 202492.2240000017,
      "d": 94.69333333329996,
      "v": 127
    },
    {
      "midi": 62,
      "hit": false,
      "t": 202492.2240000017,
      "d": 94.69333333329996,
      "v": 100
    },
    {
      "midi": 72,
      "hit": false,
      "t": 202492.2240000017,
      "d": 94.69333333329996,
      "v": 110
    },
    {
      "midi": 76,
      "hit": false,
      "t": 202492.2240000017,
      "d": 284.0799999999581,
      "v": 120
    },
    {
      "midi": 64,
      "hit": false,
      "t": 202492.2240000017,
      "d": 284.0799999999581,
      "v": 110
    },
    {
      "midi": 46,
      "hit": false,
      "t": 202511.16266666836,
      "d": 94.69333333332906,
      "v": 92
    },
    {
      "midi": 67,
      "hit": false,
      "t": 202596.38666666835,
      "d": 75.7546666666749,
      "v": 100
    },
    {
      "midi": 72,
      "hit": false,
      "t": 202596.38666666835,
      "d": 94.69333333332906,
      "v": 110
    },
    {
      "midi": 31,
      "hit": false,
      "t": 202605.8560000017,
      "d": 94.69333333332906,
      "v": 127
    },
    {
      "midi": 59,
      "hit": false,
      "t": 202605.8560000017,
      "d": 94.69333333332906,
      "v": 110
    },
    {
      "midi": 79,
      "hit": false,
      "t": 202605.8560000017,
      "d": 94.69333333332906,
      "v": 110
    },
    {
      "midi": 118,
      "hit": false,
      "t": 202605.8560000017,
      "d": 94.69333333332906,
      "v": 60
    },
    {
      "midi": 62,
      "hit": false,
      "t": 202719.48800000167,
      "d": 18.93866666665417,
      "v": 70
    },
    {
      "midi": 59,
      "hit": false,
      "t": 202719.48800000167,
      "d": 94.69333333332906,
      "v": 127
    },
    {
      "midi": 15,
      "hit": false,
      "t": 202719.48800000167,
      "d": 94.69333333332906,
      "v": 100
    },
    {
      "midi": 13,
      "hit": false,
      "t": 202719.48800000167,
      "d": 94.69333333332906,
      "v": 100
    },
    {
      "midi": 10,
      "hit": false,
      "t": 202719.48800000167,
      "d": 94.69333333332906,
      "v": 127
    },
    {
      "midi": 42,
      "hit": false,
      "t": 202719.48800000167,
      "d": 94.69333333332906,
      "v": 92
    },
    {
      "midi": 31,
      "hit": false,
      "t": 202719.48800000167,
      "d": 208.3253333333414,
      "v": 127
    },
    {
      "midi": 67,
      "hit": false,
      "t": 202823.65066666834,
      "d": 75.7546666666749,
      "v": 100
    },
    {
      "midi": 118,
      "hit": false,
      "t": 202833.12000000168,
      "d": 94.69333333332906,
      "v": 60
    },
    {
      "midi": 42,
      "hit": false,
      "t": 202842.58933333503,
      "d": 94.69333333332906,
      "v": 78
    },
    {
      "midi": 67,
      "hit": false,
      "t": 202937.28266666835,
      "d": 75.7546666666749,
      "v": 100
    },
    {
      "midi": 79,
      "hit": false,
      "t": 202937.28266666835,
      "d": 94.69333333335817,
      "v": 110
    },
    {
      "midi": 74,
      "hit": false,
      "t": 202946.7520000017,
      "d": 75.7546666666749,
      "v": 120
    },
    {
      "midi": 62,
      "hit": false,
      "t": 202946.7520000017,
      "d": 75.7546666666749,
      "v": 100
    },
    {
      "midi": 59,
      "hit": false,
      "t": 202946.7520000017,
      "d": 94.69333333335817,
      "v": 110
    },
    {
      "midi": 105,
      "hit": false,
      "t": 202946.7520000017,
      "d": 94.69333333335817,
      "v": 100
    },
    {
      "midi": 108,
      "hit": false,
      "t": 202946.7520000017,
      "d": 94.69333333335817,
      "v": 80
    },
    {
      "midi": 127,
      "hit": false,
      "t": 202946.7520000017,
      "d": 94.69333333335817,
      "v": 60
    },
    {
      "midi": 72,
      "hit": false,
      "t": 202946.7520000017,
      "d": 94.69333333335817,
      "v": 110
    },
    {
      "midi": 118,
      "hit": false,
      "t": 202946.7520000017,
      "d": 94.69333333335817,
      "v": 40
    },
    {
      "midi": 55,
      "hit": false,
      "t": 202946.7520000017,
      "d": 208.3253333333705,
      "v": 80
    },
    {
      "midi": 43,
      "hit": false,
      "t": 202946.7520000017,
      "d": 208.3253333333705,
      "v": 127
    },
    {
      "midi": 46,
      "hit": false,
      "t": 202965.69066666835,
      "d": 94.69333333338727,
      "v": 92
    },
    {
      "midi": 67,
      "hit": false,
      "t": 203060.38400000174,
      "d": 66.28533333333326,
      "v": 110
    },
    {
      "midi": 63,
      "hit": false,
      "t": 203060.38400000174,
      "d": 94.69333333332906,
      "v": 80
    },
    {
      "midi": 79,
      "hit": false,
      "t": 203164.5466666684,
      "d": 94.69333333329996,
      "v": 110
    },
    {
      "midi": 62,
      "hit": false,
      "t": 203174.01600000175,
      "d": 18.93866666665417,
      "v": 70
    },
    {
      "midi": 67,
      "hit": false,
      "t": 203174.01600000175,
      "d": 37.87733333330834,
      "v": 120
    },
    {
      "midi": 55,
      "hit": false,
      "t": 203174.01600000175,
      "d": 94.69333333329996,
      "v": 110
    },
    {
      "midi": 43,
      "hit": false,
      "t": 203174.01600000175,
      "d": 94.69333333329996,
      "v": 127
    },
    {
      "midi": 15,
      "hit": false,
      "t": 203174.01600000175,
      "d": 94.69333333329996,
      "v": 100
    },
    {
      "midi": 13,
      "hit": false,
      "t": 203174.01600000175,
      "d": 94.69333333329996,
      "v": 100
    },
    {
      "midi": 10,
      "hit": false,
      "t": 203174.01600000175,
      "d": 94.69333333329996,
      "v": 127
    },
    {
      "midi": 105,
      "hit": false,
      "t": 203174.01600000175,
      "d": 94.69333333329996,
      "v": 100
    },
    {
      "midi": 108,
      "hit": false,
      "t": 203174.01600000175,
      "d": 94.69333333329996,
      "v": 80
    },
    {
      "midi": 127,
      "hit": false,
      "t": 203174.01600000175,
      "d": 94.69333333329996,
      "v": 60
    },
    {
      "midi": 42,
      "hit": false,
      "t": 203174.01600000175,
      "d": 94.69333333329996,
      "v": 92
    },
    {
      "midi": 72,
      "hit": false,
      "t": 203174.01600000175,
      "d": 94.69333333329996,
      "v": 110
    },
    {
      "midi": 118,
      "hit": false,
      "t": 203174.01600000175,
      "d": 94.69333333329996,
      "v": 60
    },
    {
      "midi": 64,
      "hit": false,
      "t": 203174.01600000175,
      "d": 94.69333333329996,
      "v": 70
    },
    {
      "midi": 72,
      "hit": false,
      "t": 203278.1786666684,
      "d": 94.69333333335817,
      "v": 110
    },
    {
      "midi": 67,
      "hit": false,
      "t": 203287.64800000173,
      "d": 66.28533333333326,
      "v": 110
    },
    {
      "midi": 53,
      "hit": false,
      "t": 203287.64800000173,
      "d": 94.69333333335817,
      "v": 80
    },
    {
      "midi": 41,
      "hit": false,
      "t": 203287.64800000173,
      "d": 94.69333333335817,
      "v": 127
    },
    {
      "midi": 79,
      "hit": false,
      "t": 203287.64800000173,
      "d": 94.69333333335817,
      "v": 110
    },
    {
      "midi": 42,
      "hit": false,
      "t": 203297.11733333507,
      "d": 94.69333333335817,
      "v": 78
    },
    {
      "midi": 79,
      "hit": false,
      "t": 203391.81066666843,
      "d": 94.69333333335817,
      "v": 110
    },
    {
      "midi": 67,
      "hit": false,
      "t": 203401.28000000177,
      "d": 66.28533333333326,
      "v": 127
    },
    {
      "midi": 52,
      "hit": false,
      "t": 203401.28000000177,
      "d": 94.69333333335817,
      "v": 80
    },
    {
      "midi": 40,
      "hit": false,
      "t": 203401.28000000177,
      "d": 94.69333333335817,
      "v": 127
    },
    {
      "midi": 62,
      "hit": false,
      "t": 203401.28000000177,
      "d": 94.69333333335817,
      "v": 100
    },
    {
      "midi": 15,
      "hit": false,
      "t": 203401.28000000177,
      "d": 94.69333333335817,
      "v": 100
    },
    {
      "midi": 13,
      "hit": false,
      "t": 203401.28000000177,
      "d": 94.69333333335817,
      "v": 100
    },
    {
      "midi": 10,
      "hit": false,
      "t": 203401.28000000177,
      "d": 94.69333333335817,
      "v": 127
    },
    {
      "midi": 105,
      "hit": false,
      "t": 203401.28000000177,
      "d": 94.69333333335817,
      "v": 100
    },
    {
      "midi": 108,
      "hit": false,
      "t": 203401.28000000177,
      "d": 94.69333333335817,
      "v": 80
    },
    {
      "midi": 127,
      "hit": false,
      "t": 203401.28000000177,
      "d": 94.69333333335817,
      "v": 60
    },
    {
      "midi": 72,
      "hit": false,
      "t": 203401.28000000177,
      "d": 94.69333333335817,
      "v": 110
    },
    {
      "midi": 118,
      "hit": false,
      "t": 203401.28000000177,
      "d": 94.69333333335817,
      "v": 60
    },
    {
      "midi": 46,
      "hit": false,
      "t": 203420.21866666843,
      "d": 94.69333333338727,
      "v": 92
    },
    {
      "midi": 67,
      "hit": false,
      "t": 203505.44266666847,
      "d": 75.7546666666749,
      "v": 100
    },
    {
      "midi": 72,
      "hit": false,
      "t": 203505.44266666847,
      "d": 94.69333333332906,
      "v": 110
    },
    {
      "midi": 59,
      "hit": false,
      "t": 203514.91200000182,
      "d": 94.69333333332906,
      "v": 110
    },
    {
      "midi": 50,
      "hit": false,
      "t": 203514.91200000182,
      "d": 94.69333333332906,
      "v": 80
    },
    {
      "midi": 38,
      "hit": false,
      "t": 203514.91200000182,
      "d": 94.69333333332906,
      "v": 127
    },
    {
      "midi": 79,
      "hit": false,
      "t": 203514.91200000182,
      "d": 94.69333333332906,
      "v": 110
    },
    {
      "midi": 118,
      "hit": false,
      "t": 203514.91200000182,
      "d": 94.69333333332906,
      "v": 40
    },
    {
      "midi": 79,
      "hit": false,
      "t": 203619.0746666685,
      "d": 94.69333333332906,
      "v": 110
    },
    {
      "midi": 62,
      "hit": false,
      "t": 203628.54400000183,
      "d": 18.93866666665417,
      "v": 70
    },
    {
      "midi": 60,
      "hit": false,
      "t": 203628.54400000183,
      "d": 66.28533333330415,
      "v": 127
    },
    {
      "midi": 24,
      "hit": false,
      "t": 203628.54400000183,
      "d": 94.69333333332906,
      "v": 127
    },
    {
      "midi": 15,
      "hit": false,
      "t": 203628.54400000183,
      "d": 94.69333333332906,
      "v": 100
    },
    {
      "midi": 13,
      "hit": false,
      "t": 203628.54400000183,
      "d": 94.69333333332906,
      "v": 100
    },
    {
      "midi": 10,
      "hit": false,
      "t": 203628.54400000183,
      "d": 94.69333333332906,
      "v": 127
    },
    {
      "midi": 42,
      "hit": false,
      "t": 203628.54400000183,
      "d": 94.69333333332906,
      "v": 92
    },
    {
      "midi": 72,
      "hit": false,
      "t": 203628.54400000183,
      "d": 94.69333333332906,
      "v": 110
    },
    {
      "midi": 60,
      "hit": false,
      "t": 203732.7066666685,
      "d": 75.7546666666749,
      "v": 100
    },
    {
      "midi": 24,
      "hit": false,
      "t": 203742.17600000184,
      "d": 94.69333333332906,
      "v": 127
    },
    {
      "midi": 67,
      "hit": false,
      "t": 203742.17600000184,
      "d": 94.69333333332906,
      "v": 110
    },
    {
      "midi": 42,
      "hit": false,
      "t": 203751.64533333518,
      "d": 94.69333333332906,
      "v": 78
    },
    {
      "midi": 60,
      "hit": false,
      "t": 203846.3386666685,
      "d": 75.7546666666749,
      "v": 100
    },
    {
      "midi": 48,
      "hit": false,
      "t": 203855.80800000185,
      "d": 94.69333333332906,
      "v": 80
    },
    {
      "midi": 36,
      "hit": false,
      "t": 203855.80800000185,
      "d": 94.69333333332906,
      "v": 127
    },
    {
      "midi": 67,
      "hit": false,
      "t": 203855.80800000185,
      "d": 94.69333333332906,
      "v": 110
    },
    {
      "midi": 62,
      "hit": false,
      "t": 203855.80800000185,
      "d": 94.69333333332906,
      "v": 100
    },
    {
      "midi": 46,
      "hit": false,
      "t": 203874.7466666685,
      "d": 94.69333333335817,
      "v": 92
    },
    {
      "midi": 60,
      "hit": false,
      "t": 203969.44000000186,
      "d": 66.28533333336236,
      "v": 110
    },
    {
      "midi": 64,
      "hit": false,
      "t": 203969.44000000186,
      "d": 85.22400000001653,
      "v": 70
    },
    {
      "midi": 24,
      "hit": false,
      "t": 203969.44000000186,
      "d": 94.69333333335817,
      "v": 127
    },
    {
      "midi": 79,
      "hit": false,
      "t": 204073.60266666856,
      "d": 94.69333333329996,
      "v": 110
    },
    {
      "midi": 62,
      "hit": false,
      "t": 204083.0720000019,
      "d": 18.93866666665417,
      "v": 70
    },
    {
      "midi": 60,
      "hit": false,
      "t": 204083.0720000019,
      "d": 66.28533333330415,
      "v": 110
    },
    {
      "midi": 24,
      "hit": false,
      "t": 204083.0720000019,
      "d": 94.69333333329996,
      "v": 127
    },
    {
      "midi": 15,
      "hit": false,
      "t": 204083.0720000019,
      "d": 94.69333333329996,
      "v": 100
    },
    {
      "midi": 13,
      "hit": false,
      "t": 204083.0720000019,
      "d": 94.69333333329996,
      "v": 100
    },
    {
      "midi": 10,
      "hit": false,
      "t": 204083.0720000019,
      "d": 94.69333333329996,
      "v": 127
    },
    {
      "midi": 127,
      "hit": false,
      "t": 204083.0720000019,
      "d": 94.69333333329996,
      "v": 60
    },
    {
      "midi": 108,
      "hit": false,
      "t": 204083.0720000019,
      "d": 94.69333333329996,
      "v": 80
    },
    {
      "midi": 105,
      "hit": false,
      "t": 204083.0720000019,
      "d": 94.69333333329996,
      "v": 100
    },
    {
      "midi": 42,
      "hit": false,
      "t": 204083.0720000019,
      "d": 94.69333333329996,
      "v": 92
    },
    {
      "midi": 72,
      "hit": false,
      "t": 204083.0720000019,
      "d": 94.69333333329996,
      "v": 110
    },
    {
      "midi": 118,
      "hit": false,
      "t": 204083.0720000019,
      "d": 94.69333333329996,
      "v": 60
    },
    {
      "midi": 63,
      "hit": false,
      "t": 204083.0720000019,
      "d": 94.69333333329996,
      "v": 70
    },
    {
      "midi": 60,
      "hit": false,
      "t": 204187.23466666855,
      "d": 75.754666666704,
      "v": 100
    },
    {
      "midi": 72,
      "hit": false,
      "t": 204187.23466666855,
      "d": 94.69333333335817,
      "v": 110
    },
    {
      "midi": 24,
      "hit": false,
      "t": 204196.7040000019,
      "d": 94.69333333335817,
      "v": 127
    },
    {
      "midi": 67,
      "hit": false,
      "t": 204196.7040000019,
      "d": 94.69333333335817,
      "v": 110
    },
    {
      "midi": 79,
      "hit": false,
      "t": 204196.7040000019,
      "d": 94.69333333335817,
      "v": 110
    },
    {
      "midi": 42,
      "hit": false,
      "t": 204206.17333333523,
      "d": 94.69333333335817,
      "v": 78
    },
    {
      "midi": 60,
      "hit": false,
      "t": 204300.8666666686,
      "d": 75.7546666666749,
      "v": 100
    },
    {
      "midi": 79,
      "hit": false,
      "t": 204300.8666666686,
      "d": 94.69333333332906,
      "v": 110
    },
    {
      "midi": 48,
      "hit": false,
      "t": 204310.33600000193,
      "d": 94.69333333332906,
      "v": 80
    },
    {
      "midi": 36,
      "hit": false,
      "t": 204310.33600000193,
      "d": 94.69333333332906,
      "v": 127
    },
    {
      "midi": 64,
      "hit": false,
      "t": 204310.33600000193,
      "d": 94.69333333332906,
      "v": 110
    },
    {
      "midi": 62,
      "hit": false,
      "t": 204310.33600000193,
      "d": 94.69333333332906,
      "v": 100
    },
    {
      "midi": 72,
      "hit": false,
      "t": 204310.33600000193,
      "d": 94.69333333332906,
      "v": 110
    },
    {
      "midi": 46,
      "hit": false,
      "t": 204329.27466666859,
      "d": 94.69333333335817,
      "v": 92
    },
    {
      "midi": 60,
      "hit": false,
      "t": 204414.4986666686,
      "d": 75.7546666666749,
      "v": 100
    },
    {
      "midi": 72,
      "hit": false,
      "t": 204414.4986666686,
      "d": 94.69333333335817,
      "v": 110
    },
    {
      "midi": 24,
      "hit": false,
      "t": 204423.96800000194,
      "d": 94.69333333335817,
      "v": 127
    },
    {
      "midi": 64,
      "hit": false,
      "t": 204423.96800000194,
      "d": 94.69333333335817,
      "v": 110
    },
    {
      "midi": 79,
      "hit": false,
      "t": 204423.96800000194,
      "d": 94.69333333335817,
      "v": 110
    },
    {
      "midi": 118,
      "hit": false,
      "t": 204423.96800000194,
      "d": 94.69333333335817,
      "v": 60
    },
    {
      "midi": 79,
      "hit": false,
      "t": 204528.13066666864,
      "d": 94.69333333332906,
      "v": 110
    },
    {
      "midi": 62,
      "hit": false,
      "t": 204537.60000000198,
      "d": 18.93866666665417,
      "v": 70
    },
    {
      "midi": 24,
      "hit": false,
      "t": 204537.60000000198,
      "d": 94.69333333332906,
      "v": 127
    },
    {
      "midi": 15,
      "hit": false,
      "t": 204537.60000000198,
      "d": 94.69333333332906,
      "v": 100
    },
    {
      "midi": 13,
      "hit": false,
      "t": 204537.60000000198,
      "d": 94.69333333332906,
      "v": 100
    },
    {
      "midi": 10,
      "hit": false,
      "t": 204537.60000000198,
      "d": 94.69333333332906,
      "v": 127
    },
    {
      "midi": 42,
      "hit": false,
      "t": 204537.60000000198,
      "d": 94.69333333332906,
      "v": 92
    },
    {
      "midi": 72,
      "hit": false,
      "t": 204537.60000000198,
      "d": 94.69333333332906,
      "v": 110
    },
    {
      "midi": 60,
      "hit": false,
      "t": 204641.76266666866,
      "d": 9.469333333341638,
      "v": 100
    },
    {
      "midi": 72,
      "hit": false,
      "t": 204641.76266666866,
      "d": 9.469333333341638,
      "v": 60
    },
    {
      "midi": 60,
      "hit": false,
      "t": 204651.232000002,
      "d": 66.28533333333326,
      "v": 110
    },
    {
      "midi": 24,
      "hit": false,
      "t": 204651.232000002,
      "d": 94.69333333332906,
      "v": 127
    },
    {
      "midi": 79,
      "hit": false,
      "t": 204651.232000002,
      "d": 94.69333333332906,
      "v": 60
    },
    {
      "midi": 118,
      "hit": false,
      "t": 204651.232000002,
      "d": 94.69333333332906,
      "v": 60
    },
    {
      "midi": 42,
      "hit": false,
      "t": 204660.70133333534,
      "d": 94.69333333332906,
      "v": 78
    },
    {
      "midi": 60,
      "hit": false,
      "t": 204755.39466666867,
      "d": 75.7546666666749,
      "v": 100
    },
    {
      "midi": 59,
      "hit": false,
      "t": 204764.864000002,
      "d": 75.7546666666749,
      "v": 110
    },
    {
      "midi": 71,
      "hit": false,
      "t": 204764.864000002,
      "d": 75.7546666666749,
      "v": 120
    },
    {
      "midi": 48,
      "hit": false,
      "t": 204764.864000002,
      "d": 94.69333333332906,
      "v": 80
    },
    {
      "midi": 36,
      "hit": false,
      "t": 204764.864000002,
      "d": 94.69333333332906,
      "v": 127
    },
    {
      "midi": 67,
      "hit": false,
      "t": 204764.864000002,
      "d": 94.69333333332906,
      "v": 110
    },
    {
      "midi": 62,
      "hit": false,
      "t": 204764.864000002,
      "d": 94.69333333332906,
      "v": 100
    },
    {
      "midi": 118,
      "hit": false,
      "t": 204764.864000002,
      "d": 94.69333333332906,
      "v": 40
    },
    {
      "midi": 46,
      "hit": false,
      "t": 204783.80266666866,
      "d": 94.69333333335817,
      "v": 92
    },
    {
      "midi": 60,
      "hit": false,
      "t": 204869.02666666868,
      "d": 75.7546666666749,
      "v": 100
    },
    {
      "midi": 24,
      "hit": false,
      "t": 204878.49600000202,
      "d": 94.69333333332906,
      "v": 127
    },
    {
      "midi": 67,
      "hit": false,
      "t": 204878.49600000202,
      "d": 94.69333333332906,
      "v": 110
    },
    {
      "midi": 63,
      "hit": false,
      "t": 204878.49600000202,
      "d": 94.69333333332906,
      "v": 80
    },
    {
      "midi": 79,
      "hit": false,
      "t": 204982.6586666687,
      "d": 94.69333333335817,
      "v": 110
    },
    {
      "midi": 62,
      "hit": false,
      "t": 204992.12800000203,
      "d": 18.93866666665417,
      "v": 70
    },
    {
      "midi": 60,
      "hit": false,
      "t": 204992.12800000203,
      "d": 66.28533333333326,
      "v": 110
    },
    {
      "midi": 72,
      "hit": false,
      "t": 204992.12800000203,
      "d": 75.7546666666749,
      "v": 110
    },
    {
      "midi": 24,
      "hit": false,
      "t": 204992.12800000203,
      "d": 94.69333333335817,
      "v": 127
    },
    {
      "midi": 64,
      "hit": false,
      "t": 204992.12800000203,
      "d": 94.69333333335817,
      "v": 70
    },
    {
      "midi": 15,
      "hit": false,
      "t": 204992.12800000203,
      "d": 94.69333333335817,
      "v": 100
    },
    {
      "midi": 13,
      "hit": false,
      "t": 204992.12800000203,
      "d": 94.69333333335817,
      "v": 100
    },
    {
      "midi": 10,
      "hit": false,
      "t": 204992.12800000203,
      "d": 94.69333333335817,
      "v": 127
    },
    {
      "midi": 127,
      "hit": false,
      "t": 204992.12800000203,
      "d": 94.69333333335817,
      "v": 60
    },
    {
      "midi": 108,
      "hit": false,
      "t": 204992.12800000203,
      "d": 94.69333333335817,
      "v": 80
    },
    {
      "midi": 105,
      "hit": false,
      "t": 204992.12800000203,
      "d": 94.69333333335817,
      "v": 100
    },
    {
      "midi": 42,
      "hit": false,
      "t": 204992.12800000203,
      "d": 94.69333333335817,
      "v": 92
    },
    {
      "midi": 118,
      "hit": false,
      "t": 204992.12800000203,
      "d": 94.69333333335817,
      "v": 60
    },
    {
      "midi": 60,
      "hit": false,
      "t": 205096.29066666873,
      "d": 75.754666666704,
      "v": 100
    },
    {
      "midi": 72,
      "hit": false,
      "t": 205096.29066666873,
      "d": 94.69333333335817,
      "v": 110
    },
    {
      "midi": 24,
      "hit": false,
      "t": 205105.76000000208,
      "d": 94.69333333335817,
      "v": 127
    },
    {
      "midi": 64,
      "hit": false,
      "t": 205105.76000000208,
      "d": 94.69333333335817,
      "v": 110
    },
    {
      "midi": 79,
      "hit": false,
      "t": 205105.76000000208,
      "d": 94.69333333335817,
      "v": 110
    },
    {
      "midi": 42,
      "hit": false,
      "t": 205115.22933333542,
      "d": 94.69333333335817,
      "v": 78
    },
    {
      "midi": 60,
      "hit": false,
      "t": 205209.92266666878,
      "d": 75.75466666664579,
      "v": 100
    },
    {
      "midi": 79,
      "hit": false,
      "t": 205219.39200000212,
      "d": 85.22399999998743,
      "v": 120
    },
    {
      "midi": 48,
      "hit": false,
      "t": 205219.39200000212,
      "d": 94.69333333332906,
      "v": 80
    },
    {
      "midi": 36,
      "hit": false,
      "t": 205219.39200000212,
      "d": 94.69333333332906,
      "v": 127
    },
    {
      "midi": 67,
      "hit": false,
      "t": 205219.39200000212,
      "d": 94.69333333332906,
      "v": 110
    },
    {
      "midi": 62,
      "hit": false,
      "t": 205219.39200000212,
      "d": 94.69333333332906,
      "v": 100
    },
    {
      "midi": 72,
      "hit": false,
      "t": 205219.39200000212,
      "d": 94.69333333332906,
      "v": 110
    },
    {
      "midi": 118,
      "hit": false,
      "t": 205219.39200000212,
      "d": 94.69333333332906,
      "v": 60
    },
    {
      "midi": 46,
      "hit": false,
      "t": 205238.33066666877,
      "d": 94.69333333335817,
      "v": 92
    },
    {
      "midi": 60,
      "hit": false,
      "t": 205323.5546666688,
      "d": 75.75466666664579,
      "v": 100
    },
    {
      "midi": 72,
      "hit": false,
      "t": 205323.5546666688,
      "d": 94.69333333329996,
      "v": 110
    },
    {
      "midi": 24,
      "hit": false,
      "t": 205333.02400000213,
      "d": 94.69333333329996,
      "v": 127
    },
    {
      "midi": 67,
      "hit": false,
      "t": 205333.02400000213,
      "d": 94.69333333329996,
      "v": 110
    },
    {
      "midi": 79,
      "hit": false,
      "t": 205333.02400000213,
      "d": 94.69333333329996,
      "v": 110
    },
    {
      "midi": 118,
      "hit": false,
      "t": 205333.02400000213,
      "d": 94.69333333329996,
      "v": 40
    },
    {
      "midi": 64,
      "hit": false,
      "t": 205437.18666666877,
      "d": 75.7546666666749,
      "v": 100
    },
    {
      "midi": 79,
      "hit": false,
      "t": 205437.18666666877,
      "d": 94.69333333335817,
      "v": 110
    },
    {
      "midi": 62,
      "hit": false,
      "t": 205446.6560000021,
      "d": 18.93866666665417,
      "v": 70
    },
    {
      "midi": 28,
      "hit": false,
      "t": 205446.6560000021,
      "d": 94.69333333335817,
      "v": 127
    },
    {
      "midi": 60,
      "hit": false,
      "t": 205446.6560000021,
      "d": 94.69333333335817,
      "v": 110
    },
    {
      "midi": 15,
      "hit": false,
      "t": 205446.6560000021,
      "d": 94.69333333335817,
      "v": 100
    },
    {
      "midi": 13,
      "hit": false,
      "t": 205446.6560000021,
      "d": 94.69333333335817,
      "v": 100
    },
    {
      "midi": 10,
      "hit": false,
      "t": 205446.6560000021,
      "d": 94.69333333335817,
      "v": 127
    },
    {
      "midi": 42,
      "hit": false,
      "t": 205446.6560000021,
      "d": 94.69333333335817,
      "v": 92
    },
    {
      "midi": 72,
      "hit": false,
      "t": 205446.6560000021,
      "d": 94.69333333335817,
      "v": 110
    },
    {
      "midi": 69,
      "hit": false,
      "t": 205446.6560000021,
      "d": 643.9146666667366,
      "v": 127
    },
    {
      "midi": 64,
      "hit": false,
      "t": 205550.8186666688,
      "d": 75.7546666666749,
      "v": 100
    },
    {
      "midi": 28,
      "hit": false,
      "t": 205560.28800000215,
      "d": 94.69333333332906,
      "v": 127
    },
    {
      "midi": 42,
      "hit": false,
      "t": 205569.7573333355,
      "d": 94.69333333332906,
      "v": 78
    },
    {
      "midi": 64,
      "hit": false,
      "t": 205664.45066666882,
      "d": 75.75466666664579,
      "v": 100
    },
    {
      "midi": 52,
      "hit": false,
      "t": 205673.92000000217,
      "d": 94.69333333329996,
      "v": 80
    },
    {
      "midi": 40,
      "hit": false,
      "t": 205673.92000000217,
      "d": 94.69333333329996,
      "v": 127
    },
    {
      "midi": 60,
      "hit": false,
      "t": 205673.92000000217,
      "d": 94.69333333329996,
      "v": 110
    },
    {
      "midi": 62,
      "hit": false,
      "t": 205673.92000000217,
      "d": 94.69333333329996,
      "v": 100
    },
    {
      "midi": 46,
      "hit": false,
      "t": 205692.85866666882,
      "d": 94.69333333332906,
      "v": 92
    },
    {
      "midi": 64,
      "hit": false,
      "t": 205787.55200000215,
      "d": 66.28533333330415,
      "v": 70
    },
    {
      "midi": 28,
      "hit": false,
      "t": 205787.55200000215,
      "d": 94.69333333329996,
      "v": 127
    },
    {
      "midi": 64,
      "hit": false,
      "t": 205891.7146666688,
      "d": 75.7546666666749,
      "v": 100
    },
    {
      "midi": 79,
      "hit": false,
      "t": 205891.7146666688,
      "d": 94.69333333335817,
      "v": 110
    },
    {
      "midi": 62,
      "hit": false,
      "t": 205901.18400000213,
      "d": 18.93866666665417,
      "v": 70
    },
    {
      "midi": 28,
      "hit": false,
      "t": 205901.18400000213,
      "d": 94.69333333335817,
      "v": 127
    },
    {
      "midi": 72,
      "hit": false,
      "t": 205901.18400000213,
      "d": 94.69333333335817,
      "v": 110
    },
    {
      "midi": 15,
      "hit": false,
      "t": 205901.18400000213,
      "d": 94.69333333335817,
      "v": 100
    },
    {
      "midi": 13,
      "hit": false,
      "t": 205901.18400000213,
      "d": 94.69333333335817,
      "v": 100
    },
    {
      "midi": 10,
      "hit": false,
      "t": 205901.18400000213,
      "d": 94.69333333335817,
      "v": 127
    },
    {
      "midi": 127,
      "hit": false,
      "t": 205901.18400000213,
      "d": 94.69333333335817,
      "v": 60
    },
    {
      "midi": 108,
      "hit": false,
      "t": 205901.18400000213,
      "d": 94.69333333335817,
      "v": 80
    },
    {
      "midi": 105,
      "hit": false,
      "t": 205901.18400000213,
      "d": 94.69333333335817,
      "v": 100
    },
    {
      "midi": 42,
      "hit": false,
      "t": 205901.18400000213,
      "d": 94.69333333335817,
      "v": 92
    },
    {
      "midi": 118,
      "hit": false,
      "t": 205901.18400000213,
      "d": 94.69333333335817,
      "v": 60
    },
    {
      "midi": 63,
      "hit": false,
      "t": 205901.18400000213,
      "d": 94.69333333335817,
      "v": 70
    },
    {
      "midi": 64,
      "hit": false,
      "t": 206005.34666666883,
      "d": 75.7546666666749,
      "v": 100
    },
    {
      "midi": 72,
      "hit": false,
      "t": 206005.34666666883,
      "d": 94.69333333335817,
      "v": 110
    },
    {
      "midi": 28,
      "hit": false,
      "t": 206014.81600000217,
      "d": 94.69333333335817,
      "v": 127
    },
    {
      "midi": 67,
      "hit": false,
      "t": 206014.81600000217,
      "d": 94.69333333335817,
      "v": 110
    },
    {
      "midi": 79,
      "hit": false,
      "t": 206014.81600000217,
      "d": 94.69333333335817,
      "v": 110
    },
    {
      "midi": 42,
      "hit": false,
      "t": 206024.28533333552,
      "d": 94.69333333335817,
      "v": 78
    },
    {
      "midi": 79,
      "hit": false,
      "t": 206118.97866666887,
      "d": 94.69333333335817,
      "v": 110
    },
    {
      "midi": 64,
      "hit": false,
      "t": 206128.44800000222,
      "d": 66.28533333333326,
      "v": 110
    },
    {
      "midi": 52,
      "hit": false,
      "t": 206128.44800000222,
      "d": 94.69333333335817,
      "v": 80
    },
    {
      "midi": 40,
      "hit": false,
      "t": 206128.44800000222,
      "d": 94.69333333335817,
      "v": 127
    },
    {
      "midi": 62,
      "hit": false,
      "t": 206128.44800000222,
      "d": 94.69333333335817,
      "v": 100
    },
    {
      "midi": 72,
      "hit": false,
      "t": 206128.44800000222,
      "d": 94.69333333335817,
      "v": 110
    },
    {
      "midi": 67,
      "hit": false,
      "t": 206128.44800000222,
      "d": 113.63200000004144,
      "v": 127
    },
    {
      "midi": 46,
      "hit": false,
      "t": 206147.38666666887,
      "d": 94.69333333338727,
      "v": 92
    },
    {
      "midi": 64,
      "hit": false,
      "t": 206232.61066666892,
      "d": 75.7546666666749,
      "v": 100
    },
    {
      "midi": 72,
      "hit": false,
      "t": 206232.61066666892,
      "d": 94.69333333332906,
      "v": 110
    },
    {
      "midi": 28,
      "hit": false,
      "t": 206242.08000000226,
      "d": 94.69333333332906,
      "v": 127
    },
    {
      "midi": 60,
      "hit": false,
      "t": 206242.08000000226,
      "d": 94.69333333332906,
      "v": 110
    },
    {
      "midi": 79,
      "hit": false,
      "t": 206242.08000000226,
      "d": 94.69333333332906,
      "v": 110
    },
    {
      "midi": 118,
      "hit": false,
      "t": 206242.08000000226,
      "d": 94.69333333332906,
      "v": 60
    },
    {
      "midi": 79,
      "hit": false,
      "t": 206346.24266666893,
      "d": 94.69333333332906,
      "v": 110
    },
    {
      "midi": 62,
      "hit": false,
      "t": 206355.71200000227,
      "d": 18.93866666665417,
      "v": 70
    },
    {
      "midi": 28,
      "hit": false,
      "t": 206355.71200000227,
      "d": 94.69333333332906,
      "v": 127
    },
    {
      "midi": 15,
      "hit": false,
      "t": 206355.71200000227,
      "d": 94.69333333332906,
      "v": 100
    },
    {
      "midi": 13,
      "hit": false,
      "t": 206355.71200000227,
      "d": 94.69333333332906,
      "v": 100
    },
    {
      "midi": 10,
      "hit": false,
      "t": 206355.71200000227,
      "d": 94.69333333332906,
      "v": 127
    },
    {
      "midi": 42,
      "hit": false,
      "t": 206355.71200000227,
      "d": 94.69333333332906,
      "v": 92
    },
    {
      "midi": 72,
      "hit": false,
      "t": 206355.71200000227,
      "d": 94.69333333332906,
      "v": 110
    },
    {
      "midi": 67,
      "hit": false,
      "t": 206355.71200000227,
      "d": 568.1600000000617,
      "v": 127
    },
    {
      "midi": 64,
      "hit": false,
      "t": 206459.87466666894,
      "d": 75.7546666666749,
      "v": 100
    },
    {
      "midi": 72,
      "hit": false,
      "t": 206459.87466666894,
      "d": 94.69333333332906,
      "v": 60
    },
    {
      "midi": 62,
      "hit": false,
      "t": 206469.34400000228,
      "d": 18.938666666683275,
      "v": 70
    },
    {
      "midi": 28,
      "hit": false,
      "t": 206469.34400000228,
      "d": 94.69333333332906,
      "v": 127
    },
    {
      "midi": 60,
      "hit": false,
      "t": 206469.34400000228,
      "d": 94.69333333332906,
      "v": 110
    },
    {
      "midi": 79,
      "hit": false,
      "t": 206469.34400000228,
      "d": 94.69333333332906,
      "v": 60
    },
    {
      "midi": 118,
      "hit": false,
      "t": 206469.34400000228,
      "d": 94.69333333332906,
      "v": 60
    },
    {
      "midi": 42,
      "hit": false,
      "t": 206478.81333333562,
      "d": 94.69333333332906,
      "v": 78
    },
    {
      "midi": 64,
      "hit": false,
      "t": 206582.9760000023,
      "d": 66.28533333333326,
      "v": 110
    },
    {
      "midi": 52,
      "hit": false,
      "t": 206582.9760000023,
      "d": 94.69333333332906,
      "v": 80
    },
    {
      "midi": 40,
      "hit": false,
      "t": 206582.9760000023,
      "d": 94.69333333332906,
      "v": 127
    },
    {
      "midi": 62,
      "hit": false,
      "t": 206582.9760000023,
      "d": 94.69333333332906,
      "v": 100
    },
    {
      "midi": 118,
      "hit": false,
      "t": 206582.9760000023,
      "d": 94.69333333332906,
      "v": 40
    },
    {
      "midi": 46,
      "hit": false,
      "t": 206601.91466666895,
      "d": 94.69333333335817,
      "v": 92
    },
    {
      "midi": 64,
      "hit": false,
      "t": 206696.6080000023,
      "d": 66.28533333333326,
      "v": 110
    },
    {
      "midi": 28,
      "hit": false,
      "t": 206696.6080000023,
      "d": 94.69333333332906,
      "v": 127
    },
    {
      "midi": 63,
      "hit": false,
      "t": 206696.6080000023,
      "d": 94.69333333332906,
      "v": 80
    },
    {
      "midi": 79,
      "hit": false,
      "t": 206800.77066666898,
      "d": 94.69333333332906,
      "v": 110
    },
    {
      "midi": 62,
      "hit": false,
      "t": 206810.24000000232,
      "d": 18.93866666665417,
      "v": 70
    },
    {
      "midi": 64,
      "hit": false,
      "t": 206810.24000000232,
      "d": 66.28533333330415,
      "v": 70
    },
    {
      "midi": 28,
      "hit": false,
      "t": 206810.24000000232,
      "d": 94.69333333332906,
      "v": 127
    },
    {
      "midi": 72,
      "hit": false,
      "t": 206810.24000000232,
      "d": 94.69333333332906,
      "v": 110
    },
    {
      "midi": 15,
      "hit": false,
      "t": 206810.24000000232,
      "d": 94.69333333332906,
      "v": 100
    },
    {
      "midi": 13,
      "hit": false,
      "t": 206810.24000000232,
      "d": 94.69333333332906,
      "v": 100
    },
    {
      "midi": 10,
      "hit": false,
      "t": 206810.24000000232,
      "d": 94.69333333332906,
      "v": 127
    },
    {
      "midi": 127,
      "hit": false,
      "t": 206810.24000000232,
      "d": 94.69333333332906,
      "v": 60
    },
    {
      "midi": 108,
      "hit": false,
      "t": 206810.24000000232,
      "d": 94.69333333332906,
      "v": 80
    },
    {
      "midi": 105,
      "hit": false,
      "t": 206810.24000000232,
      "d": 94.69333333332906,
      "v": 100
    },
    {
      "midi": 42,
      "hit": false,
      "t": 206810.24000000232,
      "d": 94.69333333332906,
      "v": 92
    },
    {
      "midi": 118,
      "hit": false,
      "t": 206810.24000000232,
      "d": 94.69333333332906,
      "v": 60
    },
    {
      "midi": 64,
      "hit": false,
      "t": 206914.402666669,
      "d": 75.7546666666749,
      "v": 100
    },
    {
      "midi": 79,
      "hit": false,
      "t": 206923.87200000233,
      "d": 37.87733333333745,
      "v": 110
    },
    {
      "midi": 72,
      "hit": false,
      "t": 206923.87200000233,
      "d": 85.22399999998743,
      "v": 110
    },
    {
      "midi": 28,
      "hit": false,
      "t": 206923.87200000233,
      "d": 94.69333333332906,
      "v": 127
    },
    {
      "midi": 42,
      "hit": false,
      "t": 206933.34133333567,
      "d": 94.69333333332906,
      "v": 78
    },
    {
      "midi": 64,
      "hit": false,
      "t": 207028.034666669,
      "d": 75.7546666666749,
      "v": 100
    },
    {
      "midi": 79,
      "hit": false,
      "t": 207028.034666669,
      "d": 94.69333333335817,
      "v": 110
    },
    {
      "midi": 59,
      "hit": false,
      "t": 207037.50400000234,
      "d": 75.7546666666749,
      "v": 110
    },
    {
      "midi": 71,
      "hit": false,
      "t": 207037.50400000234,
      "d": 75.7546666666749,
      "v": 120
    },
    {
      "midi": 52,
      "hit": false,
      "t": 207037.50400000234,
      "d": 94.69333333335817,
      "v": 80
    },
    {
      "midi": 40,
      "hit": false,
      "t": 207037.50400000234,
      "d": 94.69333333335817,
      "v": 127
    },
    {
      "midi": 67,
      "hit": false,
      "t": 207037.50400000234,
      "d": 94.69333333335817,
      "v": 110
    },
    {
      "midi": 62,
      "hit": false,
      "t": 207037.50400000234,
      "d": 94.69333333335817,
      "v": 100
    },
    {
      "midi": 15,
      "hit": false,
      "t": 207037.50400000234,
      "d": 94.69333333335817,
      "v": 100
    },
    {
      "midi": 13,
      "hit": false,
      "t": 207037.50400000234,
      "d": 94.69333333335817,
      "v": 100
    },
    {
      "midi": 10,
      "hit": false,
      "t": 207037.50400000234,
      "d": 94.69333333335817,
      "v": 127
    },
    {
      "midi": 72,
      "hit": false,
      "t": 207037.50400000234,
      "d": 94.69333333335817,
      "v": 110
    },
    {
      "midi": 118,
      "hit": false,
      "t": 207037.50400000234,
      "d": 94.69333333335817,
      "v": 60
    },
    {
      "midi": 46,
      "hit": false,
      "t": 207056.442666669,
      "d": 94.69333333338727,
      "v": 92
    },
    {
      "midi": 64,
      "hit": false,
      "t": 207141.66666666904,
      "d": 75.7546666666749,
      "v": 100
    },
    {
      "midi": 72,
      "hit": false,
      "t": 207141.66666666904,
      "d": 94.69333333335817,
      "v": 110
    },
    {
      "midi": 28,
      "hit": false,
      "t": 207151.13600000239,
      "d": 94.69333333335817,
      "v": 127
    },
    {
      "midi": 60,
      "hit": false,
      "t": 207151.13600000239,
      "d": 94.69333333335817,
      "v": 110
    },
    {
      "midi": 79,
      "hit": false,
      "t": 207151.13600000239,
      "d": 94.69333333335817,
      "v": 110
    },
    {
      "midi": 118,
      "hit": false,
      "t": 207151.13600000239,
      "d": 94.69333333335817,
      "v": 40
    },
    {
      "midi": 79,
      "hit": false,
      "t": 207255.29866666908,
      "d": 94.69333333335817,
      "v": 110
    },
    {
      "midi": 65,
      "hit": false,
      "t": 207264.76800000243,
      "d": 18.93866666665417,
      "v": 70
    },
    {
      "midi": 29,
      "hit": false,
      "t": 207264.76800000243,
      "d": 94.69333333335817,
      "v": 127
    },
    {
      "midi": 69,
      "hit": false,
      "t": 207264.76800000243,
      "d": 94.69333333335817,
      "v": 110
    },
    {
      "midi": 15,
      "hit": false,
      "t": 207264.76800000243,
      "d": 94.69333333335817,
      "v": 100
    },
    {
      "midi": 13,
      "hit": false,
      "t": 207264.76800000243,
      "d": 94.69333333335817,
      "v": 100
    },
    {
      "midi": 10,
      "hit": false,
      "t": 207264.76800000243,
      "d": 94.69333333335817,
      "v": 127
    },
    {
      "midi": 42,
      "hit": false,
      "t": 207264.76800000243,
      "d": 94.69333333335817,
      "v": 92
    },
    {
      "midi": 72,
      "hit": false,
      "t": 207264.76800000243,
      "d": 94.69333333335817,
      "v": 110
    },
    {
      "midi": 60,
      "hit": false,
      "t": 207264.76800000243,
      "d": 1022.6880000001402,
      "v": 110
    },
    {
      "midi": 65,
      "hit": false,
      "t": 207368.93066666913,
      "d": 75.7546666666749,
      "v": 100
    },
    {
      "midi": 29,
      "hit": false,
      "t": 207378.40000000247,
      "d": 94.69333333332906,
      "v": 127
    },
    {
      "midi": 69,
      "hit": false,
      "t": 207378.40000000247,
      "d": 94.69333333332906,
      "v": 110
    },
    {
      "midi": 42,
      "hit": false,
      "t": 207387.8693333358,
      "d": 94.69333333332906,
      "v": 78
    },
    {
      "midi": 65,
      "hit": false,
      "t": 207492.03200000248,
      "d": 66.28533333333326,
      "v": 100
    },
    {
      "midi": 53,
      "hit": false,
      "t": 207492.03200000248,
      "d": 94.69333333332906,
      "v": 80
    },
    {
      "midi": 41,
      "hit": false,
      "t": 207492.03200000248,
      "d": 94.69333333332906,
      "v": 127
    },
    {
      "midi": 46,
      "hit": false,
      "t": 207510.97066666913,
      "d": 94.69333333335817,
      "v": 92
    },
    {
      "midi": 65,
      "hit": false,
      "t": 207596.19466666915,
      "d": 75.7546666666749,
      "v": 100
    },
    {
      "midi": 29,
      "hit": false,
      "t": 207605.6640000025,
      "d": 94.69333333335817,
      "v": 127
    },
    {
      "midi": 69,
      "hit": false,
      "t": 207605.6640000025,
      "d": 94.69333333335817,
      "v": 110
    },
    {
      "midi": 64,
      "hit": false,
      "t": 207605.6640000025,
      "d": 94.69333333335817,
      "v": 70
    },
    {
      "midi": 72,
      "hit": false,
      "t": 207709.8266666692,
      "d": 94.69333333329996,
      "v": 110
    },
    {
      "midi": 65,
      "hit": false,
      "t": 207719.29600000253,
      "d": 18.93866666665417,
      "v": 70
    },
    {
      "midi": 29,
      "hit": false,
      "t": 207719.29600000253,
      "d": 94.69333333329996,
      "v": 127
    },
    {
      "midi": 69,
      "hit": false,
      "t": 207719.29600000253,
      "d": 94.69333333329996,
      "v": 110
    },
    {
      "midi": 15,
      "hit": false,
      "t": 207719.29600000253,
      "d": 94.69333333329996,
      "v": 100
    },
    {
      "midi": 13,
      "hit": false,
      "t": 207719.29600000253,
      "d": 94.69333333329996,
      "v": 100
    },
    {
      "midi": 10,
      "hit": false,
      "t": 207719.29600000253,
      "d": 94.69333333329996,
      "v": 127
    },
    {
      "midi": 127,
      "hit": false,
      "t": 207719.29600000253,
      "d": 94.69333333329996,
      "v": 60
    },
    {
      "midi": 108,
      "hit": false,
      "t": 207719.29600000253,
      "d": 94.69333333329996,
      "v": 80
    },
    {
      "midi": 105,
      "hit": false,
      "t": 207719.29600000253,
      "d": 94.69333333329996,
      "v": 100
    },
    {
      "midi": 42,
      "hit": false,
      "t": 207719.29600000253,
      "d": 94.69333333329996,
      "v": 92
    },
    {
      "midi": 79,
      "hit": false,
      "t": 207719.29600000253,
      "d": 94.69333333329996,
      "v": 110
    },
    {
      "midi": 118,
      "hit": false,
      "t": 207719.29600000253,
      "d": 94.69333333329996,
      "v": 60
    },
    {
      "midi": 63,
      "hit": false,
      "t": 207719.29600000253,
      "d": 94.69333333329996,
      "v": 70
    },
    {
      "midi": 65,
      "hit": false,
      "t": 207823.45866666918,
      "d": 75.7546666666749,
      "v": 100
    },
    {
      "midi": 79,
      "hit": false,
      "t": 207823.45866666918,
      "d": 94.69333333332906,
      "v": 110
    },
    {
      "midi": 29,
      "hit": false,
      "t": 207832.92800000252,
      "d": 94.69333333332906,
      "v": 127
    },
    {
      "midi": 72,
      "hit": false,
      "t": 207832.92800000252,
      "d": 94.69333333332906,
      "v": 110
    },
    {
      "midi": 42,
      "hit": false,
      "t": 207842.39733333586,
      "d": 94.69333333332906,
      "v": 78
    },
    {
      "midi": 72,
      "hit": false,
      "t": 207937.0906666692,
      "d": 94.69333333332906,
      "v": 80
    },
    {
      "midi": 65,
      "hit": false,
      "t": 207946.56000000253,
      "d": 66.28533333333326,
      "v": 100
    },
    {
      "midi": 53,
      "hit": false,
      "t": 207946.56000000253,
      "d": 94.69333333332906,
      "v": 80
    },
    {
      "midi": 41,
      "hit": false,
      "t": 207946.56000000253,
      "d": 94.69333333332906,
      "v": 127
    },
    {
      "midi": 69,
      "hit": false,
      "t": 207946.56000000253,
      "d": 94.69333333332906,
      "v": 110
    },
    {
      "midi": 79,
      "hit": false,
      "t": 207946.56000000253,
      "d": 94.69333333332906,
      "v": 80
    },
    {
      "midi": 46,
      "hit": false,
      "t": 207965.49866666918,
      "d": 94.69333333335817,
      "v": 92
    },
    {
      "midi": 79,
      "hit": false,
      "t": 208050.7226666692,
      "d": 94.69333333332906,
      "v": 110
    },
    {
      "midi": 65,
      "hit": false,
      "t": 208060.19200000254,
      "d": 66.28533333333326,
      "v": 110
    },
    {
      "midi": 29,
      "hit": false,
      "t": 208060.19200000254,
      "d": 94.69333333332906,
      "v": 127
    },
    {
      "midi": 72,
      "hit": false,
      "t": 208060.19200000254,
      "d": 94.69333333332906,
      "v": 110
    },
    {
      "midi": 118,
      "hit": false,
      "t": 208060.19200000254,
      "d": 94.69333333332906,
      "v": 60
    },
    {
      "midi": 65,
      "hit": false,
      "t": 208173.82400000255,
      "d": 18.93866666665417,
      "v": 70
    },
    {
      "midi": 72,
      "hit": false,
      "t": 208173.82400000255,
      "d": 85.22399999998743,
      "v": 127
    },
    {
      "midi": 29,
      "hit": false,
      "t": 208173.82400000255,
      "d": 94.69333333332906,
      "v": 127
    },
    {
      "midi": 15,
      "hit": false,
      "t": 208173.82400000255,
      "d": 94.69333333332906,
      "v": 100
    },
    {
      "midi": 13,
      "hit": false,
      "t": 208173.82400000255,
      "d": 94.69333333332906,
      "v": 100
    },
    {
      "midi": 10,
      "hit": false,
      "t": 208173.82400000255,
      "d": 94.69333333332906,
      "v": 127
    },
    {
      "midi": 42,
      "hit": false,
      "t": 208173.82400000255,
      "d": 94.69333333332906,
      "v": 92
    },
    {
      "midi": 79,
      "hit": false,
      "t": 208173.82400000255,
      "d": 94.69333333332906,
      "v": 110
    },
    {
      "midi": 65,
      "hit": false,
      "t": 208287.45600000257,
      "d": 18.938666666683275,
      "v": 70
    },
    {
      "midi": 29,
      "hit": false,
      "t": 208287.45600000257,
      "d": 94.69333333335817,
      "v": 127
    },
    {
      "midi": 69,
      "hit": false,
      "t": 208287.45600000257,
      "d": 94.69333333335817,
      "v": 110
    },
    {
      "midi": 118,
      "hit": false,
      "t": 208287.45600000257,
      "d": 94.69333333335817,
      "v": 60
    },
    {
      "midi": 42,
      "hit": false,
      "t": 208296.9253333359,
      "d": 94.69333333335817,
      "v": 78
    },
    {
      "midi": 65,
      "hit": false,
      "t": 208401.0880000026,
      "d": 66.28533333330415,
      "v": 100
    },
    {
      "midi": 59,
      "hit": false,
      "t": 208401.0880000026,
      "d": 75.75466666664579,
      "v": 110
    },
    {
      "midi": 71,
      "hit": false,
      "t": 208401.0880000026,
      "d": 75.75466666664579,
      "v": 120
    },
    {
      "midi": 53,
      "hit": false,
      "t": 208401.0880000026,
      "d": 94.69333333329996,
      "v": 80
    },
    {
      "midi": 41,
      "hit": false,
      "t": 208401.0880000026,
      "d": 94.69333333329996,
      "v": 127
    },
    {
      "midi": 69,
      "hit": false,
      "t": 208401.0880000026,
      "d": 94.69333333329996,
      "v": 110
    },
    {
      "midi": 118,
      "hit": false,
      "t": 208401.0880000026,
      "d": 94.69333333329996,
      "v": 40
    },
    {
      "midi": 46,
      "hit": false,
      "t": 208420.02666666926,
      "d": 94.69333333332906,
      "v": 92
    },
    {
      "midi": 65,
      "hit": false,
      "t": 208514.7200000026,
      "d": 66.28533333333326,
      "v": 110
    },
    {
      "midi": 29,
      "hit": false,
      "t": 208514.7200000026,
      "d": 94.69333333332906,
      "v": 127
    },
    {
      "midi": 63,
      "hit": false,
      "t": 208514.7200000026,
      "d": 94.69333333332906,
      "v": 80
    },
    {
      "midi": 79,
      "hit": false,
      "t": 208618.88266666926,
      "d": 94.69333333335817,
      "v": 110
    },
    {
      "midi": 65,
      "hit": false,
      "t": 208628.3520000026,
      "d": 18.93866666665417,
      "v": 70
    },
    {
      "midi": 60,
      "hit": false,
      "t": 208628.3520000026,
      "d": 75.7546666666749,
      "v": 110
    },
    {
      "midi": 72,
      "hit": false,
      "t": 208628.3520000026,
      "d": 75.7546666666749,
      "v": 110
    },
    {
      "midi": 29,
      "hit": false,
      "t": 208628.3520000026,
      "d": 94.69333333335817,
      "v": 127
    },
    {
      "midi": 69,
      "hit": false,
      "t": 208628.3520000026,
      "d": 94.69333333335817,
      "v": 110
    },
    {
      "midi": 15,
      "hit": false,
      "t": 208628.3520000026,
      "d": 94.69333333335817,
      "v": 100
    },
    {
      "midi": 13,
      "hit": false,
      "t": 208628.3520000026,
      "d": 94.69333333335817,
      "v": 100
    },
    {
      "midi": 10,
      "hit": false,
      "t": 208628.3520000026,
      "d": 94.69333333335817,
      "v": 127
    },
    {
      "midi": 127,
      "hit": false,
      "t": 208628.3520000026,
      "d": 94.69333333335817,
      "v": 60
    },
    {
      "midi": 108,
      "hit": false,
      "t": 208628.3520000026,
      "d": 94.69333333335817,
      "v": 80
    },
    {
      "midi": 105,
      "hit": false,
      "t": 208628.3520000026,
      "d": 94.69333333335817,
      "v": 100
    },
    {
      "midi": 42,
      "hit": false,
      "t": 208628.3520000026,
      "d": 94.69333333335817,
      "v": 92
    },
    {
      "midi": 118,
      "hit": false,
      "t": 208628.3520000026,
      "d": 94.69333333335817,
      "v": 60
    },
    {
      "midi": 64,
      "hit": false,
      "t": 208628.3520000026,
      "d": 94.69333333335817,
      "v": 70
    },
    {
      "midi": 65,
      "hit": false,
      "t": 208732.5146666693,
      "d": 75.7546666666749,
      "v": 100
    },
    {
      "midi": 72,
      "hit": false,
      "t": 208732.5146666693,
      "d": 94.69333333335817,
      "v": 110
    },
    {
      "midi": 29,
      "hit": false,
      "t": 208741.98400000265,
      "d": 94.69333333335817,
      "v": 127
    },
    {
      "midi": 79,
      "hit": false,
      "t": 208741.98400000265,
      "d": 94.69333333335817,
      "v": 110
    },
    {
      "midi": 42,
      "hit": false,
      "t": 208751.453333336,
      "d": 94.69333333335817,
      "v": 78
    },
    {
      "midi": 65,
      "hit": false,
      "t": 208855.6160000027,
      "d": 66.28533333333326,
      "v": 100
    },
    {
      "midi": 79,
      "hit": false,
      "t": 208855.6160000027,
      "d": 85.22400000001653,
      "v": 120
    },
    {
      "midi": 53,
      "hit": false,
      "t": 208855.6160000027,
      "d": 94.69333333335817,
      "v": 80
    },
    {
      "midi": 41,
      "hit": false,
      "t": 208855.6160000027,
      "d": 94.69333333335817,
      "v": 127
    },
    {
      "midi": 69,
      "hit": false,
      "t": 208855.6160000027,
      "d": 94.69333333335817,
      "v": 110
    },
    {
      "midi": 72,
      "hit": false,
      "t": 208855.6160000027,
      "d": 94.69333333335817,
      "v": 80
    },
    {
      "midi": 118,
      "hit": false,
      "t": 208855.6160000027,
      "d": 94.69333333335817,
      "v": 60
    },
    {
      "midi": 46,
      "hit": false,
      "t": 208874.55466666934,
      "d": 94.69333333338727,
      "v": 92
    },
    {
      "midi": 72,
      "hit": false,
      "t": 208959.7786666694,
      "d": 94.69333333332906,
      "v": 110
    },
    {
      "midi": 65,
      "hit": false,
      "t": 208969.24800000273,
      "d": 66.28533333333326,
      "v": 110
    },
    {
      "midi": 29,
      "hit": false,
      "t": 208969.24800000273,
      "d": 94.69333333332906,
      "v": 127
    },
    {
      "midi": 79,
      "hit": false,
      "t": 208969.24800000273,
      "d": 94.69333333332906,
      "v": 110
    },
    {
      "midi": 118,
      "hit": false,
      "t": 208969.24800000273,
      "d": 94.69333333332906,
      "v": 40
    },
    {
      "midi": 67,
      "hit": false,
      "t": 209073.4106666694,
      "d": 75.754666666704,
      "v": 100
    },
    {
      "midi": 79,
      "hit": false,
      "t": 209073.4106666694,
      "d": 85.22400000004563,
      "v": 110
    },
    {
      "midi": 62,
      "hit": false,
      "t": 209082.88000000274,
      "d": 18.938666666683275,
      "v": 70
    },
    {
      "midi": 31,
      "hit": false,
      "t": 209082.88000000274,
      "d": 94.69333333338727,
      "v": 127
    },
    {
      "midi": 15,
      "hit": false,
      "t": 209082.88000000274,
      "d": 94.69333333338727,
      "v": 100
    },
    {
      "midi": 13,
      "hit": false,
      "t": 209082.88000000274,
      "d": 94.69333333338727,
      "v": 100
    },
    {
      "midi": 10,
      "hit": false,
      "t": 209082.88000000274,
      "d": 94.69333333338727,
      "v": 127
    },
    {
      "midi": 42,
      "hit": false,
      "t": 209082.88000000274,
      "d": 94.69333333338727,
      "v": 92
    },
    {
      "midi": 72,
      "hit": false,
      "t": 209082.88000000274,
      "d": 94.69333333338727,
      "v": 110
    },
    {
      "midi": 67,
      "hit": false,
      "t": 209187.04266666947,
      "d": 75.7546666666749,
      "v": 100
    },
    {
      "midi": 31,
      "hit": false,
      "t": 209196.5120000028,
      "d": 94.69333333332906,
      "v": 127
    },
    {
      "midi": 59,
      "hit": false,
      "t": 209196.5120000028,
      "d": 94.69333333332906,
      "v": 110
    },
    {
      "midi": 42,
      "hit": false,
      "t": 209205.98133333615,
      "d": 94.69333333332906,
      "v": 78
    },
    {
      "midi": 67,
      "hit": false,
      "t": 209300.67466666948,
      "d": 75.7546666666749,
      "v": 100
    },
    {
      "midi": 55,
      "hit": false,
      "t": 209310.14400000282,
      "d": 94.69333333332906,
      "v": 80
    },
    {
      "midi": 43,
      "hit": false,
      "t": 209310.14400000282,
      "d": 94.69333333332906,
      "v": 127
    },
    {
      "midi": 62,
      "hit": false,
      "t": 209310.14400000282,
      "d": 94.69333333332906,
      "v": 100
    },
    {
      "midi": 77,
      "hit": false,
      "t": 209310.14400000282,
      "d": 227.26400000002468,
      "v": 120
    },
    {
      "midi": 65,
      "hit": false,
      "t": 209310.14400000282,
      "d": 227.26400000002468,
      "v": 110
    },
    {
      "midi": 46,
      "hit": false,
      "t": 209329.08266666948,
      "d": 94.69333333335817,
      "v": 92
    },
    {
      "midi": 67,
      "hit": false,
      "t": 209423.77600000284,
      "d": 66.28533333333326,
      "v": 110
    },
    {
      "midi": 31,
      "hit": false,
      "t": 209423.77600000284,
      "d": 94.69333333332906,
      "v": 127
    },
    {
      "midi": 64,
      "hit": false,
      "t": 209423.77600000284,
      "d": 94.69333333332906,
      "v": 70
    },
    {
      "midi": 67,
      "hit": false,
      "t": 209527.9386666695,
      "d": 75.7546666666749,
      "v": 100
    },
    {
      "midi": 72,
      "hit": false,
      "t": 209527.9386666695,
      "d": 94.69333333332906,
      "v": 110
    },
    {
      "midi": 62,
      "hit": false,
      "t": 209537.40800000285,
      "d": 18.93866666665417,
      "v": 70
    },
    {
      "midi": 31,
      "hit": false,
      "t": 209537.40800000285,
      "d": 94.69333333332906,
      "v": 127
    },
    {
      "midi": 71,
      "hit": false,
      "t": 209537.40800000285,
      "d": 94.69333333332906,
      "v": 110
    },
    {
      "midi": 15,
      "hit": false,
      "t": 209537.40800000285,
      "d": 94.69333333332906,
      "v": 100
    },
    {
      "midi": 13,
      "hit": false,
      "t": 209537.40800000285,
      "d": 94.69333333332906,
      "v": 100
    },
    {
      "midi": 10,
      "hit": false,
      "t": 209537.40800000285,
      "d": 94.69333333332906,
      "v": 127
    },
    {
      "midi": 127,
      "hit": false,
      "t": 209537.40800000285,
      "d": 94.69333333332906,
      "v": 60
    },
    {
      "midi": 108,
      "hit": false,
      "t": 209537.40800000285,
      "d": 94.69333333332906,
      "v": 80
    },
    {
      "midi": 105,
      "hit": false,
      "t": 209537.40800000285,
      "d": 94.69333333332906,
      "v": 100
    },
    {
      "midi": 42,
      "hit": false,
      "t": 209537.40800000285,
      "d": 94.69333333332906,
      "v": 92
    },
    {
      "midi": 79,
      "hit": false,
      "t": 209537.40800000285,
      "d": 94.69333333332906,
      "v": 110
    },
    {
      "midi": 118,
      "hit": false,
      "t": 209537.40800000285,
      "d": 94.69333333332906,
      "v": 60
    },
    {
      "midi": 63,
      "hit": false,
      "t": 209537.40800000285,
      "d": 94.69333333332906,
      "v": 70
    },
    {
      "midi": 79,
      "hit": false,
      "t": 209641.57066666952,
      "d": 94.69333333335817,
      "v": 110
    },
    {
      "midi": 67,
      "hit": false,
      "t": 209651.04000000286,
      "d": 66.28533333333326,
      "v": 110
    },
    {
      "midi": 31,
      "hit": false,
      "t": 209651.04000000286,
      "d": 94.69333333335817,
      "v": 127
    },
    {
      "midi": 72,
      "hit": false,
      "t": 209651.04000000286,
      "d": 94.69333333335817,
      "v": 110
    },
    {
      "midi": 42,
      "hit": false,
      "t": 209660.5093333362,
      "d": 94.69333333335817,
      "v": 78
    },
    {
      "midi": 67,
      "hit": false,
      "t": 209755.20266666956,
      "d": 75.7546666666749,
      "v": 100
    },
    {
      "midi": 72,
      "hit": false,
      "t": 209755.20266666956,
      "d": 94.69333333335817,
      "v": 80
    },
    {
      "midi": 55,
      "hit": false,
      "t": 209764.6720000029,
      "d": 94.69333333335817,
      "v": 80
    },
    {
      "midi": 43,
      "hit": false,
      "t": 209764.6720000029,
      "d": 94.69333333335817,
      "v": 127
    },
    {
      "midi": 62,
      "hit": false,
      "t": 209764.6720000029,
      "d": 94.69333333335817,
      "v": 100
    },
    {
      "midi": 79,
      "hit": false,
      "t": 209764.6720000029,
      "d": 94.69333333335817,
      "v": 80
    },
    {
      "midi": 64,
      "hit": false,
      "t": 209764.6720000029,
      "d": 208.3253333333705,
      "v": 110
    },
    {
      "midi": 76,
      "hit": false,
      "t": 209764.6720000029,
      "d": 227.26400000005378,
      "v": 120
    },
    {
      "midi": 46,
      "hit": false,
      "t": 209783.61066666956,
      "d": 94.69333333338727,
      "v": 92
    },
    {
      "midi": 67,
      "hit": false,
      "t": 209868.8346666696,
      "d": 75.7546666666749,
      "v": 100
    },
    {
      "midi": 79,
      "hit": false,
      "t": 209868.8346666696,
      "d": 94.69333333332906,
      "v": 110
    },
    {
      "midi": 31,
      "hit": false,
      "t": 209878.30400000294,
      "d": 94.69333333332906,
      "v": 127
    },
    {
      "midi": 59,
      "hit": false,
      "t": 209878.30400000294,
      "d": 94.69333333332906,
      "v": 110
    },
    {
      "midi": 72,
      "hit": false,
      "t": 209878.30400000294,
      "d": 94.69333333332906,
      "v": 110
    },
    {
      "midi": 118,
      "hit": false,
      "t": 209878.30400000294,
      "d": 94.69333333332906,
      "v": 60
    },
    {
      "midi": 72,
      "hit": false,
      "t": 209982.4666666696,
      "d": 94.69333333329996,
      "v": 110
    },
    {
      "midi": 62,
      "hit": false,
      "t": 209991.93600000296,
      "d": 18.93866666665417,
      "v": 70
    },
    {
      "midi": 68,
      "hit": false,
      "t": 209991.93600000296,
      "d": 66.28533333330415,
      "v": 127
    },
    {
      "midi": 32,
      "hit": false,
      "t": 209991.93600000296,
      "d": 94.69333333329996,
      "v": 127
    },
    {
      "midi": 15,
      "hit": false,
      "t": 209991.93600000296,
      "d": 94.69333333329996,
      "v": 100
    },
    {
      "midi": 13,
      "hit": false,
      "t": 209991.93600000296,
      "d": 94.69333333329996,
      "v": 100
    },
    {
      "midi": 10,
      "hit": false,
      "t": 209991.93600000296,
      "d": 94.69333333329996,
      "v": 127
    },
    {
      "midi": 42,
      "hit": false,
      "t": 209991.93600000296,
      "d": 94.69333333329996,
      "v": 92
    },
    {
      "midi": 80,
      "hit": false,
      "t": 209991.93600000296,
      "d": 94.69333333329996,
      "v": 110
    },
    {
      "midi": 68,
      "hit": false,
      "t": 210096.0986666696,
      "d": 75.754666666704,
      "v": 100
    },
    {
      "midi": 80,
      "hit": false,
      "t": 210096.0986666696,
      "d": 94.69333333335817,
      "v": 110
    },
    {
      "midi": 32,
      "hit": false,
      "t": 210105.56800000294,
      "d": 94.69333333335817,
      "v": 127
    },
    {
      "midi": 72,
      "hit": false,
      "t": 210105.56800000294,
      "d": 94.69333333335817,
      "v": 110
    },
    {
      "midi": 118,
      "hit": false,
      "t": 210105.56800000294,
      "d": 94.69333333335817,
      "v": 60
    },
    {
      "midi": 42,
      "hit": false,
      "t": 210115.03733333628,
      "d": 94.69333333335817,
      "v": 78
    },
    {
      "midi": 68,
      "hit": false,
      "t": 210209.73066666964,
      "d": 75.7546666666749,
      "v": 100
    },
    {
      "midi": 72,
      "hit": false,
      "t": 210209.73066666964,
      "d": 94.69333333335817,
      "v": 80
    },
    {
      "midi": 74,
      "hit": false,
      "t": 210219.20000000298,
      "d": 75.7546666666749,
      "v": 120
    },
    {
      "midi": 62,
      "hit": false,
      "t": 210219.20000000298,
      "d": 75.7546666666749,
      "v": 100
    },
    {
      "midi": 56,
      "hit": false,
      "t": 210219.20000000298,
      "d": 94.69333333335817,
      "v": 80
    },
    {
      "midi": 44,
      "hit": false,
      "t": 210219.20000000298,
      "d": 94.69333333335817,
      "v": 127
    },
    {
      "midi": 76,
      "hit": false,
      "t": 210219.20000000298,
      "d": 94.69333333335817,
      "v": 110
    },
    {
      "midi": 105,
      "hit": false,
      "t": 210219.20000000298,
      "d": 94.69333333335817,
      "v": 100
    },
    {
      "midi": 108,
      "hit": false,
      "t": 210219.20000000298,
      "d": 94.69333333335817,
      "v": 80
    },
    {
      "midi": 127,
      "hit": false,
      "t": 210219.20000000298,
      "d": 94.69333333335817,
      "v": 60
    },
    {
      "midi": 80,
      "hit": false,
      "t": 210219.20000000298,
      "d": 94.69333333335817,
      "v": 80
    },
    {
      "midi": 118,
      "hit": false,
      "t": 210219.20000000298,
      "d": 94.69333333335817,
      "v": 40
    },
    {
      "midi": 46,
      "hit": false,
      "t": 210238.13866666963,
      "d": 94.69333333338727,
      "v": 92
    },
    {
      "midi": 68,
      "hit": false,
      "t": 210323.36266666968,
      "d": 75.7546666666749,
      "v": 100
    },
    {
      "midi": 80,
      "hit": false,
      "t": 210323.36266666968,
      "d": 94.69333333335817,
      "v": 110
    },
    {
      "midi": 32,
      "hit": false,
      "t": 210332.83200000302,
      "d": 94.69333333335817,
      "v": 127
    },
    {
      "midi": 74,
      "hit": false,
      "t": 210332.83200000302,
      "d": 94.69333333335817,
      "v": 110
    },
    {
      "midi": 72,
      "hit": false,
      "t": 210332.83200000302,
      "d": 94.69333333335817,
      "v": 110
    },
    {
      "midi": 63,
      "hit": false,
      "t": 210332.83200000302,
      "d": 94.69333333335817,
      "v": 80
    },
    {
      "midi": 68,
      "hit": false,
      "t": 210436.99466666972,
      "d": 75.7546666666749,
      "v": 100
    },
    {
      "midi": 72,
      "hit": false,
      "t": 210436.99466666972,
      "d": 94.69333333332906,
      "v": 110
    },
    {
      "midi": 62,
      "hit": false,
      "t": 210446.46400000306,
      "d": 18.93866666665417,
      "v": 70
    },
    {
      "midi": 32,
      "hit": false,
      "t": 210446.46400000306,
      "d": 94.69333333332906,
      "v": 127
    },
    {
      "midi": 71,
      "hit": false,
      "t": 210446.46400000306,
      "d": 94.69333333332906,
      "v": 120
    },
    {
      "midi": 15,
      "hit": false,
      "t": 210446.46400000306,
      "d": 94.69333333332906,
      "v": 100
    },
    {
      "midi": 13,
      "hit": false,
      "t": 210446.46400000306,
      "d": 94.69333333332906,
      "v": 100
    },
    {
      "midi": 10,
      "hit": false,
      "t": 210446.46400000306,
      "d": 94.69333333332906,
      "v": 127
    },
    {
      "midi": 105,
      "hit": false,
      "t": 210446.46400000306,
      "d": 94.69333333332906,
      "v": 100
    },
    {
      "midi": 108,
      "hit": false,
      "t": 210446.46400000306,
      "d": 94.69333333332906,
      "v": 80
    },
    {
      "midi": 127,
      "hit": false,
      "t": 210446.46400000306,
      "d": 94.69333333332906,
      "v": 60
    },
    {
      "midi": 42,
      "hit": false,
      "t": 210446.46400000306,
      "d": 94.69333333332906,
      "v": 92
    },
    {
      "midi": 80,
      "hit": false,
      "t": 210446.46400000306,
      "d": 94.69333333332906,
      "v": 110
    },
    {
      "midi": 118,
      "hit": false,
      "t": 210446.46400000306,
      "d": 94.69333333332906,
      "v": 60
    },
    {
      "midi": 64,
      "hit": false,
      "t": 210446.46400000306,
      "d": 94.69333333332906,
      "v": 70
    },
    {
      "midi": 59,
      "hit": false,
      "t": 210446.46400000306,
      "d": 189.38666666668723,
      "v": 110
    },
    {
      "midi": 80,
      "hit": false,
      "t": 210550.62666666973,
      "d": 94.69333333335817,
      "v": 110
    },
    {
      "midi": 68,
      "hit": false,
      "t": 210560.09600000308,
      "d": 66.28533333333326,
      "v": 110
    },
    {
      "midi": 56,
      "hit": false,
      "t": 210560.09600000308,
      "d": 94.69333333335817,
      "v": 80
    },
    {
      "midi": 44,
      "hit": false,
      "t": 210560.09600000308,
      "d": 94.69333333335817,
      "v": 127
    },
    {
      "midi": 105,
      "hit": false,
      "t": 210560.09600000308,
      "d": 94.69333333335817,
      "v": 100
    },
    {
      "midi": 108,
      "hit": false,
      "t": 210560.09600000308,
      "d": 94.69333333335817,
      "v": 80
    },
    {
      "midi": 127,
      "hit": false,
      "t": 210560.09600000308,
      "d": 94.69333333335817,
      "v": 60
    },
    {
      "midi": 72,
      "hit": false,
      "t": 210560.09600000308,
      "d": 94.69333333335817,
      "v": 110
    },
    {
      "midi": 42,
      "hit": false,
      "t": 210569.56533333642,
      "d": 94.69333333335817,
      "v": 78
    },
    {
      "midi": 68,
      "hit": false,
      "t": 210673.72800000312,
      "d": 66.28533333333326,
      "v": 127
    },
    {
      "midi": 59,
      "hit": false,
      "t": 210673.72800000312,
      "d": 94.69333333332906,
      "v": 127
    },
    {
      "midi": 52,
      "hit": false,
      "t": 210673.72800000312,
      "d": 94.69333333332906,
      "v": 80
    },
    {
      "midi": 40,
      "hit": false,
      "t": 210673.72800000312,
      "d": 94.69333333332906,
      "v": 127
    },
    {
      "midi": 64,
      "hit": false,
      "t": 210673.72800000312,
      "d": 94.69333333332906,
      "v": 110
    },
    {
      "midi": 15,
      "hit": false,
      "t": 210673.72800000312,
      "d": 94.69333333332906,
      "v": 100
    },
    {
      "midi": 13,
      "hit": false,
      "t": 210673.72800000312,
      "d": 94.69333333332906,
      "v": 100
    },
    {
      "midi": 10,
      "hit": false,
      "t": 210673.72800000312,
      "d": 94.69333333332906,
      "v": 127
    },
    {
      "midi": 118,
      "hit": false,
      "t": 210673.72800000312,
      "d": 94.69333333332906,
      "v": 60
    },
    {
      "midi": 46,
      "hit": false,
      "t": 210692.66666666977,
      "d": 94.69333333335817,
      "v": 92
    },
    {
      "midi": 68,
      "hit": false,
      "t": 210777.8906666698,
      "d": 75.7546666666749,
      "v": 100
    },
    {
      "midi": 59,
      "hit": false,
      "t": 210787.36000000313,
      "d": 94.69333333332906,
      "v": 110
    },
    {
      "midi": 39,
      "hit": false,
      "t": 210787.36000000313,
      "d": 94.69333333332906,
      "v": 127
    },
    {
      "midi": 118,
      "hit": false,
      "t": 210787.36000000313,
      "d": 94.69333333332906,
      "v": 40
    },
    {
      "midi": 59,
      "hit": false,
      "t": 210900.99200000314,
      "d": 18.93866666665417,
      "v": 70
    },
    {
      "midi": 69,
      "hit": false,
      "t": 210900.99200000314,
      "d": 66.28533333333326,
      "v": 127
    },
    {
      "midi": 33,
      "hit": false,
      "t": 210900.99200000314,
      "d": 94.69333333335817,
      "v": 127
    },
    {
      "midi": 15,
      "hit": false,
      "t": 210900.99200000314,
      "d": 94.69333333335817,
      "v": 100
    },
    {
      "midi": 13,
      "hit": false,
      "t": 210900.99200000314,
      "d": 94.69333333335817,
      "v": 100
    },
    {
      "midi": 10,
      "hit": false,
      "t": 210900.99200000314,
      "d": 94.69333333335817,
      "v": 127
    },
    {
      "midi": 42,
      "hit": false,
      "t": 210900.99200000314,
      "d": 94.69333333335817,
      "v": 92
    },
    {
      "midi": 60,
      "hit": false,
      "t": 210900.99200000314,
      "d": 303.0186666667869,
      "v": 127
    },
    {
      "midi": 55,
      "hit": false,
      "t": 210900.99200000314,
      "d": 426.12000000014086,
      "v": 70
    },
    {
      "midi": 72,
      "hit": false,
      "t": 210900.99200000314,
      "d": 473.46666666684905,
      "v": 120
    },
    {
      "midi": 69,
      "hit": false,
      "t": 211005.15466666984,
      "d": 75.754666666704,
      "v": 100
    },
    {
      "midi": 33,
      "hit": false,
      "t": 211014.62400000318,
      "d": 94.69333333335817,
      "v": 127
    },
    {
      "midi": 57,
      "hit": false,
      "t": 211014.62400000318,
      "d": 94.69333333335817,
      "v": 110
    },
    {
      "midi": 42,
      "hit": false,
      "t": 211024.09333333652,
      "d": 94.69333333335817,
      "v": 78
    },
    {
      "midi": 69,
      "hit": false,
      "t": 211118.78666666988,
      "d": 75.754666666704,
      "v": 100
    },
    {
      "midi": 76,
      "hit": false,
      "t": 211118.78666666988,
      "d": 94.69333333338727,
      "v": 110
    },
    {
      "midi": 45,
      "hit": false,
      "t": 211128.25600000322,
      "d": 94.69333333338727,
      "v": 127
    },
    {
      "midi": 59,
      "hit": false,
      "t": 211128.25600000322,
      "d": 94.69333333338727,
      "v": 100
    },
    {
      "midi": 64,
      "hit": false,
      "t": 211128.25600000322,
      "d": 94.69333333338727,
      "v": 110
    },
    {
      "midi": 57,
      "hit": false,
      "t": 211137.72533333657,
      "d": 85.22400000004563,
      "v": 110
    },
    {
      "midi": 46,
      "hit": false,
      "t": 211147.1946666699,
      "d": 94.69333333338727,
      "v": 92
    },
    {
      "midi": 57,
      "hit": false,
      "t": 211232.41866666995,
      "d": 94.69333333332906,
      "v": 110
    },
    {
      "midi": 69,
      "hit": false,
      "t": 211241.8880000033,
      "d": 66.28533333333326,
      "v": 110
    },
    {
      "midi": 33,
      "hit": false,
      "t": 211241.8880000033,
      "d": 94.69333333332906,
      "v": 127
    },
    {
      "midi": 64,
      "hit": false,
      "t": 211241.8880000033,
      "d": 94.69333333332906,
      "v": 70
    },
    {
      "midi": 76,
      "hit": false,
      "t": 211251.35733333664,
      "d": 94.69333333332906,
      "v": 110
    },
    {
      "midi": 69,
      "hit": false,
      "t": 211346.05066666997,
      "d": 75.754666666704,
      "v": 100
    },
    {
      "midi": 76,
      "hit": false,
      "t": 211346.05066666997,
      "d": 94.69333333338727,
      "v": 110
    },
    {
      "midi": 59,
      "hit": false,
      "t": 211355.5200000033,
      "d": 18.938666666683275,
      "v": 70
    },
    {
      "midi": 33,
      "hit": false,
      "t": 211355.5200000033,
      "d": 94.69333333338727,
      "v": 127
    },
    {
      "midi": 15,
      "hit": false,
      "t": 211355.5200000033,
      "d": 94.69333333338727,
      "v": 100
    },
    {
      "midi": 13,
      "hit": false,
      "t": 211355.5200000033,
      "d": 94.69333333338727,
      "v": 100
    },
    {
      "midi": 10,
      "hit": false,
      "t": 211355.5200000033,
      "d": 94.69333333338727,
      "v": 127
    },
    {
      "midi": 127,
      "hit": false,
      "t": 211355.5200000033,
      "d": 94.69333333338727,
      "v": 60
    },
    {
      "midi": 108,
      "hit": false,
      "t": 211355.5200000033,
      "d": 94.69333333338727,
      "v": 80
    },
    {
      "midi": 105,
      "hit": false,
      "t": 211355.5200000033,
      "d": 94.69333333338727,
      "v": 100
    },
    {
      "midi": 42,
      "hit": false,
      "t": 211355.5200000033,
      "d": 94.69333333338727,
      "v": 92
    },
    {
      "midi": 64,
      "hit": false,
      "t": 211355.5200000033,
      "d": 94.69333333338727,
      "v": 110
    },
    {
      "midi": 118,
      "hit": false,
      "t": 211355.5200000033,
      "d": 94.69333333338727,
      "v": 60
    },
    {
      "midi": 63,
      "hit": false,
      "t": 211355.5200000033,
      "d": 94.69333333338727,
      "v": 70
    },
    {
      "midi": 62,
      "hit": false,
      "t": 211355.5200000033,
      "d": 426.12000000005355,
      "v": 127
    },
    {
      "midi": 57,
      "hit": false,
      "t": 211364.98933333665,
      "d": 85.22400000004563,
      "v": 110
    },
    {
      "midi": 69,
      "hit": false,
      "t": 211459.68266667004,
      "d": 75.7546666666749,
      "v": 100
    },
    {
      "midi": 57,
      "hit": false,
      "t": 211469.15200000338,
      "d": 85.22399999998743,
      "v": 110
    },
    {
      "midi": 33,
      "hit": false,
      "t": 211469.15200000338,
      "d": 94.69333333332906,
      "v": 127
    },
    {
      "midi": 64,
      "hit": false,
      "t": 211469.15200000338,
      "d": 94.69333333332906,
      "v": 110
    },
    {
      "midi": 42,
      "hit": false,
      "t": 211478.62133333672,
      "d": 94.69333333332906,
      "v": 78
    },
    {
      "midi": 76,
      "hit": false,
      "t": 211478.62133333672,
      "d": 94.69333333332906,
      "v": 110
    },
    {
      "midi": 69,
      "hit": false,
      "t": 211582.7840000034,
      "d": 66.28533333330415,
      "v": 110
    },
    {
      "midi": 57,
      "hit": false,
      "t": 211582.7840000034,
      "d": 94.69333333329996,
      "v": 80
    },
    {
      "midi": 45,
      "hit": false,
      "t": 211582.7840000034,
      "d": 94.69333333329996,
      "v": 127
    },
    {
      "midi": 59,
      "hit": false,
      "t": 211582.7840000034,
      "d": 94.69333333329996,
      "v": 100
    },
    {
      "midi": 71,
      "hit": false,
      "t": 211582.7840000034,
      "d": 94.69333333329996,
      "v": 120
    },
    {
      "midi": 46,
      "hit": false,
      "t": 211601.72266667004,
      "d": 94.69333333332906,
      "v": 92
    },
    {
      "midi": 69,
      "hit": false,
      "t": 211686.94666667003,
      "d": 75.75466666664579,
      "v": 100
    },
    {
      "midi": 72,
      "hit": false,
      "t": 211696.41600000337,
      "d": 37.87733333330834,
      "v": 120
    },
    {
      "midi": 60,
      "hit": false,
      "t": 211696.41600000337,
      "d": 37.87733333330834,
      "v": 110
    },
    {
      "midi": 33,
      "hit": false,
      "t": 211696.41600000337,
      "d": 94.69333333332906,
      "v": 127
    },
    {
      "midi": 57,
      "hit": false,
      "t": 211696.41600000337,
      "d": 94.69333333332906,
      "v": 110
    },
    {
      "midi": 118,
      "hit": false,
      "t": 211696.41600000337,
      "d": 94.69333333332906,
      "v": 60
    },
    {
      "midi": 59,
      "hit": false,
      "t": 211810.0480000034,
      "d": 18.93866666665417,
      "v": 70
    },
    {
      "midi": 68,
      "hit": false,
      "t": 211810.0480000034,
      "d": 66.28533333333326,
      "v": 127
    },
    {
      "midi": 32,
      "hit": false,
      "t": 211810.0480000034,
      "d": 94.69333333332906,
      "v": 127
    },
    {
      "midi": 15,
      "hit": false,
      "t": 211810.0480000034,
      "d": 94.69333333332906,
      "v": 100
    },
    {
      "midi": 13,
      "hit": false,
      "t": 211810.0480000034,
      "d": 94.69333333332906,
      "v": 100
    },
    {
      "midi": 10,
      "hit": false,
      "t": 211810.0480000034,
      "d": 94.69333333332906,
      "v": 127
    },
    {
      "midi": 42,
      "hit": false,
      "t": 211810.0480000034,
      "d": 94.69333333332906,
      "v": 92
    },
    {
      "midi": 74,
      "hit": false,
      "t": 211810.0480000034,
      "d": 473.46666666681995,
      "v": 120
    },
    {
      "midi": 62,
      "hit": false,
      "t": 211810.0480000034,
      "d": 473.46666666681995,
      "v": 127
    },
    {
      "midi": 68,
      "hit": false,
      "t": 211914.21066667006,
      "d": 75.754666666704,
      "v": 100
    },
    {
      "midi": 32,
      "hit": false,
      "t": 211923.6800000034,
      "d": 94.69333333335817,
      "v": 127
    },
    {
      "midi": 56,
      "hit": false,
      "t": 211923.6800000034,
      "d": 94.69333333335817,
      "v": 110
    },
    {
      "midi": 118,
      "hit": false,
      "t": 211923.6800000034,
      "d": 94.69333333335817,
      "v": 60
    },
    {
      "midi": 42,
      "hit": false,
      "t": 211933.14933333674,
      "d": 94.69333333335817,
      "v": 78
    },
    {
      "midi": 68,
      "hit": false,
      "t": 212027.8426666701,
      "d": 75.754666666704,
      "v": 100
    },
    {
      "midi": 76,
      "hit": false,
      "t": 212027.8426666701,
      "d": 94.69333333338727,
      "v": 110
    },
    {
      "midi": 56,
      "hit": false,
      "t": 212037.31200000344,
      "d": 94.69333333338727,
      "v": 110
    },
    {
      "midi": 44,
      "hit": false,
      "t": 212037.31200000344,
      "d": 94.69333333338727,
      "v": 127
    },
    {
      "midi": 59,
      "hit": false,
      "t": 212037.31200000344,
      "d": 94.69333333338727,
      "v": 100
    },
    {
      "midi": 69,
      "hit": false,
      "t": 212037.31200000344,
      "d": 94.69333333338727,
      "v": 110
    },
    {
      "midi": 118,
      "hit": false,
      "t": 212037.31200000344,
      "d": 94.69333333338727,
      "v": 40
    },
    {
      "midi": 64,
      "hit": false,
      "t": 212046.78133333678,
      "d": 66.28533333336236,
      "v": 110
    },
    {
      "midi": 46,
      "hit": false,
      "t": 212056.25066667012,
      "d": 94.69333333338727,
      "v": 92
    },
    {
      "midi": 64,
      "hit": false,
      "t": 212141.47466667017,
      "d": 94.69333333332906,
      "v": 110
    },
    {
      "midi": 68,
      "hit": false,
      "t": 212150.9440000035,
      "d": 66.28533333333326,
      "v": 110
    },
    {
      "midi": 32,
      "hit": false,
      "t": 212150.9440000035,
      "d": 94.69333333332906,
      "v": 127
    },
    {
      "midi": 69,
      "hit": false,
      "t": 212150.9440000035,
      "d": 94.69333333332906,
      "v": 110
    },
    {
      "midi": 63,
      "hit": false,
      "t": 212150.9440000035,
      "d": 94.69333333332906,
      "v": 80
    },
    {
      "midi": 76,
      "hit": false,
      "t": 212160.41333333685,
      "d": 94.69333333332906,
      "v": 110
    },
    {
      "midi": 68,
      "hit": false,
      "t": 212255.10666667018,
      "d": 75.754666666704,
      "v": 100
    },
    {
      "midi": 76,
      "hit": false,
      "t": 212255.10666667018,
      "d": 94.69333333335817,
      "v": 110
    },
    {
      "midi": 59,
      "hit": false,
      "t": 212264.57600000352,
      "d": 18.938666666683275,
      "v": 70
    },
    {
      "midi": 32,
      "hit": false,
      "t": 212264.57600000352,
      "d": 94.69333333335817,
      "v": 127
    },
    {
      "midi": 56,
      "hit": false,
      "t": 212264.57600000352,
      "d": 94.69333333335817,
      "v": 110
    },
    {
      "midi": 15,
      "hit": false,
      "t": 212264.57600000352,
      "d": 94.69333333335817,
      "v": 100
    },
    {
      "midi": 13,
      "hit": false,
      "t": 212264.57600000352,
      "d": 94.69333333335817,
      "v": 100
    },
    {
      "midi": 10,
      "hit": false,
      "t": 212264.57600000352,
      "d": 94.69333333335817,
      "v": 127
    },
    {
      "midi": 127,
      "hit": false,
      "t": 212264.57600000352,
      "d": 94.69333333335817,
      "v": 60
    },
    {
      "midi": 108,
      "hit": false,
      "t": 212264.57600000352,
      "d": 94.69333333335817,
      "v": 80
    },
    {
      "midi": 105,
      "hit": false,
      "t": 212264.57600000352,
      "d": 94.69333333335817,
      "v": 100
    },
    {
      "midi": 42,
      "hit": false,
      "t": 212264.57600000352,
      "d": 94.69333333335817,
      "v": 92
    },
    {
      "midi": 69,
      "hit": false,
      "t": 212264.57600000352,
      "d": 94.69333333335817,
      "v": 110
    },
    {
      "midi": 118,
      "hit": false,
      "t": 212264.57600000352,
      "d": 94.69333333335817,
      "v": 60
    },
    {
      "midi": 64,
      "hit": false,
      "t": 212274.04533333686,
      "d": 85.22400000001653,
      "v": 110
    },
    {
      "midi": 68,
      "hit": false,
      "t": 212368.73866667022,
      "d": 75.7546666666749,
      "v": 100
    },
    {
      "midi": 64,
      "hit": false,
      "t": 212368.73866667022,
      "d": 94.69333333332906,
      "v": 110
    },
    {
      "midi": 32,
      "hit": false,
      "t": 212378.20800000356,
      "d": 94.69333333332906,
      "v": 127
    },
    {
      "midi": 56,
      "hit": false,
      "t": 212378.20800000356,
      "d": 94.69333333332906,
      "v": 110
    },
    {
      "midi": 69,
      "hit": false,
      "t": 212378.20800000356,
      "d": 94.69333333332906,
      "v": 110
    },
    {
      "midi": 42,
      "hit": false,
      "t": 212387.6773333369,
      "d": 94.69333333332906,
      "v": 78
    },
    {
      "midi": 76,
      "hit": false,
      "t": 212387.6773333369,
      "d": 94.69333333332906,
      "v": 110
    },
    {
      "midi": 72,
      "hit": false,
      "t": 212491.84000000358,
      "d": 56.81599999999162,
      "v": 120
    },
    {
      "midi": 60,
      "hit": false,
      "t": 212491.84000000358,
      "d": 56.81599999999162,
      "v": 110
    },
    {
      "midi": 68,
      "hit": false,
      "t": 212491.84000000358,
      "d": 66.28533333333326,
      "v": 110
    },
    {
      "midi": 56,
      "hit": false,
      "t": 212491.84000000358,
      "d": 94.69333333332906,
      "v": 80
    },
    {
      "midi": 44,
      "hit": false,
      "t": 212491.84000000358,
      "d": 94.69333333332906,
      "v": 127
    },
    {
      "midi": 59,
      "hit": false,
      "t": 212491.84000000358,
      "d": 94.69333333332906,
      "v": 100
    },
    {
      "midi": 118,
      "hit": false,
      "t": 212491.84000000358,
      "d": 94.69333333332906,
      "v": 60
    },
    {
      "midi": 46,
      "hit": false,
      "t": 212510.77866667023,
      "d": 94.69333333335817,
      "v": 92
    },
    {
      "midi": 68,
      "hit": false,
      "t": 212596.00266667025,
      "d": 75.7546666666749,
      "v": 100
    },
    {
      "midi": 62,
      "hit": false,
      "t": 212605.4720000036,
      "d": 75.7546666666749,
      "v": 110
    },
    {
      "midi": 32,
      "hit": false,
      "t": 212605.4720000036,
      "d": 94.69333333332906,
      "v": 127
    },
    {
      "midi": 56,
      "hit": false,
      "t": 212605.4720000036,
      "d": 94.69333333332906,
      "v": 110
    },
    {
      "midi": 74,
      "hit": false,
      "t": 212605.4720000036,
      "d": 94.69333333332906,
      "v": 120
    },
    {
      "midi": 118,
      "hit": false,
      "t": 212605.4720000036,
      "d": 94.69333333332906,
      "v": 40
    },
    {
      "midi": 59,
      "hit": false,
      "t": 212719.1040000036,
      "d": 18.93866666665417,
      "v": 70
    },
    {
      "midi": 67,
      "hit": false,
      "t": 212719.1040000036,
      "d": 66.28533333330415,
      "v": 127
    },
    {
      "midi": 31,
      "hit": false,
      "t": 212719.1040000036,
      "d": 94.69333333329996,
      "v": 127
    },
    {
      "midi": 15,
      "hit": false,
      "t": 212719.1040000036,
      "d": 94.69333333329996,
      "v": 100
    },
    {
      "midi": 13,
      "hit": false,
      "t": 212719.1040000036,
      "d": 94.69333333329996,
      "v": 100
    },
    {
      "midi": 10,
      "hit": false,
      "t": 212719.1040000036,
      "d": 94.69333333329996,
      "v": 127
    },
    {
      "midi": 42,
      "hit": false,
      "t": 212719.1040000036,
      "d": 94.69333333329996,
      "v": 92
    },
    {
      "midi": 76,
      "hit": false,
      "t": 212719.1040000036,
      "d": 643.9146666667366,
      "v": 120
    },
    {
      "midi": 67,
      "hit": false,
      "t": 212823.26666667024,
      "d": 75.754666666704,
      "v": 100
    },
    {
      "midi": 31,
      "hit": false,
      "t": 212832.73600000358,
      "d": 94.69333333335817,
      "v": 127
    },
    {
      "midi": 55,
      "hit": false,
      "t": 212832.73600000358,
      "d": 94.69333333335817,
      "v": 110
    },
    {
      "midi": 42,
      "hit": false,
      "t": 212842.20533333693,
      "d": 94.69333333335817,
      "v": 78
    },
    {
      "midi": 67,
      "hit": false,
      "t": 212936.89866667028,
      "d": 75.7546666666749,
      "v": 120
    },
    {
      "midi": 55,
      "hit": false,
      "t": 212946.36800000363,
      "d": 94.69333333332906,
      "v": 110
    },
    {
      "midi": 43,
      "hit": false,
      "t": 212946.36800000363,
      "d": 94.69333333332906,
      "v": 127
    },
    {
      "midi": 59,
      "hit": false,
      "t": 212946.36800000363,
      "d": 94.69333333332906,
      "v": 100
    },
    {
      "midi": 62,
      "hit": false,
      "t": 212946.36800000363,
      "d": 94.69333333332906,
      "v": 120
    },
    {
      "midi": 46,
      "hit": false,
      "t": 212965.30666667028,
      "d": 94.69333333335817,
      "v": 92
    },
    {
      "midi": 62,
      "hit": false,
      "t": 213050.5306666703,
      "d": 94.69333333332906,
      "v": 120
    },
    {
      "midi": 67,
      "hit": false,
      "t": 213060.00000000364,
      "d": 66.28533333333326,
      "v": 120
    },
    {
      "midi": 31,
      "hit": false,
      "t": 213060.00000000364,
      "d": 94.69333333332906,
      "v": 127
    },
    {
      "midi": 79,
      "hit": false,
      "t": 213060.00000000364,
      "d": 94.69333333332906,
      "v": 90
    },
    {
      "midi": 64,
      "hit": false,
      "t": 213060.00000000364,
      "d": 94.69333333332906,
      "v": 70
    },
    {
      "midi": 67,
      "hit": false,
      "t": 213164.1626666703,
      "d": 75.75466666664579,
      "v": 120
    },
    {
      "midi": 59,
      "hit": false,
      "t": 213173.63200000365,
      "d": 18.93866666665417,
      "v": 70
    },
    {
      "midi": 31,
      "hit": false,
      "t": 213173.63200000365,
      "d": 94.69333333329996,
      "v": 127
    },
    {
      "midi": 55,
      "hit": false,
      "t": 213173.63200000365,
      "d": 94.69333333329996,
      "v": 110
    },
    {
      "midi": 15,
      "hit": false,
      "t": 213173.63200000365,
      "d": 94.69333333329996,
      "v": 100
    },
    {
      "midi": 13,
      "hit": false,
      "t": 213173.63200000365,
      "d": 94.69333333329996,
      "v": 100
    },
    {
      "midi": 10,
      "hit": false,
      "t": 213173.63200000365,
      "d": 94.69333333329996,
      "v": 127
    },
    {
      "midi": 127,
      "hit": false,
      "t": 213173.63200000365,
      "d": 94.69333333329996,
      "v": 60
    },
    {
      "midi": 108,
      "hit": false,
      "t": 213173.63200000365,
      "d": 94.69333333329996,
      "v": 80
    },
    {
      "midi": 105,
      "hit": false,
      "t": 213173.63200000365,
      "d": 94.69333333329996,
      "v": 100
    },
    {
      "midi": 42,
      "hit": false,
      "t": 213173.63200000365,
      "d": 94.69333333329996,
      "v": 92
    },
    {
      "midi": 62,
      "hit": false,
      "t": 213173.63200000365,
      "d": 94.69333333329996,
      "v": 120
    },
    {
      "midi": 118,
      "hit": false,
      "t": 213173.63200000365,
      "d": 94.69333333329996,
      "v": 60
    },
    {
      "midi": 63,
      "hit": false,
      "t": 213173.63200000365,
      "d": 94.69333333329996,
      "v": 70
    },
    {
      "midi": 64,
      "hit": false,
      "t": 213173.63200000365,
      "d": 189.38666666668723,
      "v": 127
    },
    {
      "midi": 62,
      "hit": false,
      "t": 213277.7946666703,
      "d": 94.69333333338727,
      "v": 120
    },
    {
      "midi": 67,
      "hit": false,
      "t": 213287.26400000363,
      "d": 66.28533333336236,
      "v": 120
    },
    {
      "midi": 31,
      "hit": false,
      "t": 213287.26400000363,
      "d": 94.69333333338727,
      "v": 127
    },
    {
      "midi": 55,
      "hit": false,
      "t": 213287.26400000363,
      "d": 94.69333333338727,
      "v": 110
    },
    {
      "midi": 42,
      "hit": false,
      "t": 213296.73333333698,
      "d": 94.69333333338727,
      "v": 78
    },
    {
      "midi": 67,
      "hit": false,
      "t": 213400.8960000037,
      "d": 66.28533333333326,
      "v": 110
    },
    {
      "midi": 74,
      "hit": false,
      "t": 213400.8960000037,
      "d": 75.7546666666749,
      "v": 120
    },
    {
      "midi": 62,
      "hit": false,
      "t": 213400.8960000037,
      "d": 75.7546666666749,
      "v": 110
    },
    {
      "midi": 55,
      "hit": false,
      "t": 213400.8960000037,
      "d": 94.69333333332906,
      "v": 80
    },
    {
      "midi": 43,
      "hit": false,
      "t": 213400.8960000037,
      "d": 94.69333333332906,
      "v": 127
    },
    {
      "midi": 59,
      "hit": false,
      "t": 213400.8960000037,
      "d": 94.69333333332906,
      "v": 100
    },
    {
      "midi": 46,
      "hit": false,
      "t": 213419.83466667036,
      "d": 94.69333333335817,
      "v": 92
    },
    {
      "midi": 67,
      "hit": false,
      "t": 213505.05866667037,
      "d": 75.7546666666749,
      "v": 100
    },
    {
      "midi": 76,
      "hit": false,
      "t": 213514.52800000372,
      "d": 56.81599999999162,
      "v": 120
    },
    {
      "midi": 64,
      "hit": false,
      "t": 213514.52800000372,
      "d": 56.81599999999162,
      "v": 110
    },
    {
      "midi": 31,
      "hit": false,
      "t": 213514.52800000372,
      "d": 94.69333333335817,
      "v": 127
    },
    {
      "midi": 55,
      "hit": false,
      "t": 213514.52800000372,
      "d": 94.69333333335817,
      "v": 110
    },
    {
      "midi": 118,
      "hit": false,
      "t": 213514.52800000372,
      "d": 94.69333333335817,
      "v": 60
    },
    {
      "midi": 59,
      "hit": false,
      "t": 213628.16000000376,
      "d": 18.93866666665417,
      "v": 70
    },
    {
      "midi": 78,
      "hit": false,
      "t": 213628.16000000376,
      "d": 56.81599999999162,
      "v": 120
    },
    {
      "midi": 66,
      "hit": false,
      "t": 213628.16000000376,
      "d": 56.81599999999162,
      "v": 127
    },
    {
      "midi": 30,
      "hit": false,
      "t": 213628.16000000376,
      "d": 94.69333333332906,
      "v": 127
    },
    {
      "midi": 15,
      "hit": false,
      "t": 213628.16000000376,
      "d": 94.69333333332906,
      "v": 100
    },
    {
      "midi": 13,
      "hit": false,
      "t": 213628.16000000376,
      "d": 94.69333333332906,
      "v": 100
    },
    {
      "midi": 10,
      "hit": false,
      "t": 213628.16000000376,
      "d": 94.69333333332906,
      "v": 127
    },
    {
      "midi": 42,
      "hit": false,
      "t": 213628.16000000376,
      "d": 94.69333333332906,
      "v": 92
    },
    {
      "midi": 66,
      "hit": false,
      "t": 213732.32266667043,
      "d": 75.754666666704,
      "v": 100
    },
    {
      "midi": 59,
      "hit": false,
      "t": 213741.79200000377,
      "d": 18.938666666683275,
      "v": 70
    },
    {
      "midi": 30,
      "hit": false,
      "t": 213741.79200000377,
      "d": 94.69333333335817,
      "v": 127
    },
    {
      "midi": 54,
      "hit": false,
      "t": 213741.79200000377,
      "d": 94.69333333335817,
      "v": 110
    },
    {
      "midi": 118,
      "hit": false,
      "t": 213741.79200000377,
      "d": 94.69333333335817,
      "v": 60
    },
    {
      "midi": 42,
      "hit": false,
      "t": 213751.2613333371,
      "d": 94.69333333335817,
      "v": 78
    },
    {
      "midi": 66,
      "hit": false,
      "t": 213845.95466667047,
      "d": 75.7546666666749,
      "v": 100
    },
    {
      "midi": 62,
      "hit": false,
      "t": 213845.95466667047,
      "d": 94.69333333332906,
      "v": 120
    },
    {
      "midi": 79,
      "hit": false,
      "t": 213855.4240000038,
      "d": 56.81599999999162,
      "v": 120
    },
    {
      "midi": 67,
      "hit": false,
      "t": 213855.4240000038,
      "d": 56.81599999999162,
      "v": 120
    },
    {
      "midi": 54,
      "hit": false,
      "t": 213855.4240000038,
      "d": 94.69333333332906,
      "v": 110
    },
    {
      "midi": 42,
      "hit": false,
      "t": 213855.4240000038,
      "d": 94.69333333332906,
      "v": 127
    },
    {
      "midi": 59,
      "hit": false,
      "t": 213855.4240000038,
      "d": 94.69333333332906,
      "v": 100
    },
    {
      "midi": 118,
      "hit": false,
      "t": 213855.4240000038,
      "d": 94.69333333332906,
      "v": 40
    },
    {
      "midi": 46,
      "hit": false,
      "t": 213874.36266667047,
      "d": 94.69333333335817,
      "v": 92
    },
    {
      "midi": 67,
      "hit": false,
      "t": 213959.58666667048,
      "d": 94.69333333332906,
      "v": 120
    },
    {
      "midi": 59,
      "hit": false,
      "t": 213969.05600000382,
      "d": 18.93866666665417,
      "v": 70
    },
    {
      "midi": 66,
      "hit": false,
      "t": 213969.05600000382,
      "d": 66.28533333333326,
      "v": 110
    },
    {
      "midi": 30,
      "hit": false,
      "t": 213969.05600000382,
      "d": 94.69333333332906,
      "v": 127
    },
    {
      "midi": 62,
      "hit": false,
      "t": 213969.05600000382,
      "d": 94.69333333332906,
      "v": 120
    },
    {
      "midi": 63,
      "hit": false,
      "t": 213969.05600000382,
      "d": 94.69333333332906,
      "v": 80
    },
    {
      "midi": 66,
      "hit": false,
      "t": 214073.2186666705,
      "d": 75.7546666666749,
      "v": 100
    },
    {
      "midi": 62,
      "hit": false,
      "t": 214073.2186666705,
      "d": 94.69333333335817,
      "v": 120
    },
    {
      "midi": 59,
      "hit": false,
      "t": 214082.68800000384,
      "d": 18.93866666665417,
      "v": 70
    },
    {
      "midi": 30,
      "hit": false,
      "t": 214082.68800000384,
      "d": 94.69333333335817,
      "v": 127
    },
    {
      "midi": 54,
      "hit": false,
      "t": 214082.68800000384,
      "d": 94.69333333335817,
      "v": 110
    },
    {
      "midi": 15,
      "hit": false,
      "t": 214082.68800000384,
      "d": 94.69333333335817,
      "v": 100
    },
    {
      "midi": 13,
      "hit": false,
      "t": 214082.68800000384,
      "d": 94.69333333335817,
      "v": 100
    },
    {
      "midi": 10,
      "hit": false,
      "t": 214082.68800000384,
      "d": 94.69333333335817,
      "v": 127
    },
    {
      "midi": 127,
      "hit": false,
      "t": 214082.68800000384,
      "d": 94.69333333335817,
      "v": 60
    },
    {
      "midi": 108,
      "hit": false,
      "t": 214082.68800000384,
      "d": 94.69333333335817,
      "v": 80
    },
    {
      "midi": 105,
      "hit": false,
      "t": 214082.68800000384,
      "d": 94.69333333335817,
      "v": 100
    },
    {
      "midi": 42,
      "hit": false,
      "t": 214082.68800000384,
      "d": 94.69333333335817,
      "v": 92
    },
    {
      "midi": 67,
      "hit": false,
      "t": 214082.68800000384,
      "d": 94.69333333335817,
      "v": 120
    },
    {
      "midi": 118,
      "hit": false,
      "t": 214082.68800000384,
      "d": 94.69333333335817,
      "v": 60
    },
    {
      "midi": 64,
      "hit": false,
      "t": 214082.68800000384,
      "d": 94.69333333335817,
      "v": 70
    },
    {
      "midi": 69,
      "hit": false,
      "t": 214082.68800000384,
      "d": 189.38666666674544,
      "v": 110
    },
    {
      "midi": 81,
      "hit": false,
      "t": 214082.68800000384,
      "d": 340.8960000000952,
      "v": 120
    },
    {
      "midi": 66,
      "hit": false,
      "t": 214186.85066667054,
      "d": 75.754666666704,
      "v": 100
    },
    {
      "midi": 67,
      "hit": false,
      "t": 214186.85066667054,
      "d": 94.69333333338727,
      "v": 120
    },
    {
      "midi": 30,
      "hit": false,
      "t": 214196.32000000388,
      "d": 94.69333333338727,
      "v": 127
    },
    {
      "midi": 54,
      "hit": false,
      "t": 214196.32000000388,
      "d": 94.69333333338727,
      "v": 110
    },
    {
      "midi": 62,
      "hit": false,
      "t": 214196.32000000388,
      "d": 94.69333333338727,
      "v": 120
    },
    {
      "midi": 42,
      "hit": false,
      "t": 214205.78933333722,
      "d": 94.69333333338727,
      "v": 78
    },
    {
      "midi": 66,
      "hit": false,
      "t": 214309.95200000395,
      "d": 66.28533333330415,
      "v": 110
    },
    {
      "midi": 54,
      "hit": false,
      "t": 214309.95200000395,
      "d": 94.69333333329996,
      "v": 80
    },
    {
      "midi": 42,
      "hit": false,
      "t": 214309.95200000395,
      "d": 94.69333333329996,
      "v": 127
    },
    {
      "midi": 59,
      "hit": false,
      "t": 214309.95200000395,
      "d": 94.69333333329996,
      "v": 100
    },
    {
      "midi": 15,
      "hit": false,
      "t": 214309.95200000395,
      "d": 94.69333333329996,
      "v": 100
    },
    {
      "midi": 13,
      "hit": false,
      "t": 214309.95200000395,
      "d": 94.69333333329996,
      "v": 100
    },
    {
      "midi": 10,
      "hit": false,
      "t": 214309.95200000395,
      "d": 94.69333333329996,
      "v": 127
    },
    {
      "midi": 118,
      "hit": false,
      "t": 214309.95200000395,
      "d": 94.69333333329996,
      "v": 60
    },
    {
      "midi": 46,
      "hit": false,
      "t": 214328.8906666706,
      "d": 94.69333333332906,
      "v": 92
    },
    {
      "midi": 66,
      "hit": false,
      "t": 214414.1146666706,
      "d": 75.7546666666749,
      "v": 100
    },
    {
      "midi": 30,
      "hit": false,
      "t": 214423.58400000393,
      "d": 94.69333333332906,
      "v": 127
    },
    {
      "midi": 54,
      "hit": false,
      "t": 214423.58400000393,
      "d": 94.69333333332906,
      "v": 110
    },
    {
      "midi": 118,
      "hit": false,
      "t": 214423.58400000393,
      "d": 94.69333333332906,
      "v": 40
    },
    {
      "midi": 83,
      "hit": false,
      "t": 214442.5226666706,
      "d": 94.69333333335817,
      "v": 120
    },
    {
      "midi": 71,
      "hit": false,
      "t": 214442.5226666706,
      "d": 94.69333333335817,
      "v": 110
    },
    {
      "midi": 57,
      "hit": false,
      "t": 214537.21600000394,
      "d": 18.93866666665417,
      "v": 60
    },
    {
      "midi": 65,
      "hit": false,
      "t": 214537.21600000394,
      "d": 66.28533333330415,
      "v": 110
    },
    {
      "midi": 29,
      "hit": false,
      "t": 214537.21600000394,
      "d": 94.69333333329996,
      "v": 127
    },
    {
      "midi": 15,
      "hit": false,
      "t": 214537.21600000394,
      "d": 94.69333333329996,
      "v": 100
    },
    {
      "midi": 13,
      "hit": false,
      "t": 214537.21600000394,
      "d": 94.69333333329996,
      "v": 100
    },
    {
      "midi": 10,
      "hit": false,
      "t": 214537.21600000394,
      "d": 94.69333333329996,
      "v": 127
    },
    {
      "midi": 42,
      "hit": false,
      "t": 214537.21600000394,
      "d": 94.69333333329996,
      "v": 92
    },
    {
      "midi": 84,
      "hit": false,
      "t": 214537.21600000394,
      "d": 871.1786666668195,
      "v": 120
    },
    {
      "midi": 69,
      "hit": false,
      "t": 214537.21600000394,
      "d": 871.1786666668195,
      "v": 127
    },
    {
      "midi": 65,
      "hit": false,
      "t": 214641.3786666706,
      "d": 75.754666666704,
      "v": 100
    },
    {
      "midi": 29,
      "hit": false,
      "t": 214650.84800000393,
      "d": 94.69333333335817,
      "v": 127
    },
    {
      "midi": 53,
      "hit": false,
      "t": 214650.84800000393,
      "d": 94.69333333335817,
      "v": 110
    },
    {
      "midi": 57,
      "hit": false,
      "t": 214650.84800000393,
      "d": 208.3253333333705,
      "v": 90
    },
    {
      "midi": 42,
      "hit": false,
      "t": 214660.31733333727,
      "d": 94.69333333335817,
      "v": 78
    },
    {
      "midi": 65,
      "hit": false,
      "t": 214755.01066667063,
      "d": 75.7546666666749,
      "v": 120
    },
    {
      "midi": 29,
      "hit": false,
      "t": 214764.48000000397,
      "d": 94.69333333332906,
      "v": 127
    },
    {
      "midi": 53,
      "hit": false,
      "t": 214764.48000000397,
      "d": 94.69333333332906,
      "v": 110
    },
    {
      "midi": 72,
      "hit": false,
      "t": 214764.48000000397,
      "d": 94.69333333332906,
      "v": 120
    },
    {
      "midi": 46,
      "hit": false,
      "t": 214783.41866667062,
      "d": 94.69333333335817,
      "v": 92
    },
    {
      "midi": 72,
      "hit": false,
      "t": 214868.64266667064,
      "d": 94.69333333332906,
      "v": 120
    },
    {
      "midi": 60,
      "hit": false,
      "t": 214878.11200000398,
      "d": 56.81599999999162,
      "v": 70
    },
    {
      "midi": 65,
      "hit": false,
      "t": 214878.11200000398,
      "d": 66.28533333333326,
      "v": 120
    },
    {
      "midi": 29,
      "hit": false,
      "t": 214878.11200000398,
      "d": 94.69333333332906,
      "v": 127
    },
    {
      "midi": 64,
      "hit": false,
      "t": 214878.11200000398,
      "d": 94.69333333332906,
      "v": 70
    },
    {
      "midi": 65,
      "hit": false,
      "t": 214982.27466667065,
      "d": 75.7546666666749,
      "v": 120
    },
    {
      "midi": 60,
      "hit": false,
      "t": 214991.744000004,
      "d": 18.93866666665417,
      "v": 60
    },
    {
      "midi": 29,
      "hit": false,
      "t": 214991.744000004,
      "d": 94.69333333332906,
      "v": 127
    },
    {
      "midi": 53,
      "hit": false,
      "t": 214991.744000004,
      "d": 94.69333333332906,
      "v": 110
    },
    {
      "midi": 15,
      "hit": false,
      "t": 214991.744000004,
      "d": 94.69333333332906,
      "v": 100
    },
    {
      "midi": 13,
      "hit": false,
      "t": 214991.744000004,
      "d": 94.69333333332906,
      "v": 100
    },
    {
      "midi": 10,
      "hit": false,
      "t": 214991.744000004,
      "d": 94.69333333332906,
      "v": 127
    },
    {
      "midi": 127,
      "hit": false,
      "t": 214991.744000004,
      "d": 94.69333333332906,
      "v": 60
    },
    {
      "midi": 108,
      "hit": false,
      "t": 214991.744000004,
      "d": 94.69333333332906,
      "v": 80
    },
    {
      "midi": 105,
      "hit": false,
      "t": 214991.744000004,
      "d": 94.69333333332906,
      "v": 100
    },
    {
      "midi": 42,
      "hit": false,
      "t": 214991.744000004,
      "d": 94.69333333332906,
      "v": 92
    },
    {
      "midi": 72,
      "hit": false,
      "t": 214991.744000004,
      "d": 94.69333333332906,
      "v": 120
    },
    {
      "midi": 118,
      "hit": false,
      "t": 214991.744000004,
      "d": 94.69333333332906,
      "v": 60
    },
    {
      "midi": 63,
      "hit": false,
      "t": 214991.744000004,
      "d": 94.69333333332906,
      "v": 70
    },
    {
      "midi": 72,
      "hit": false,
      "t": 215095.90666667066,
      "d": 94.69333333338727,
      "v": 120
    },
    {
      "midi": 65,
      "hit": false,
      "t": 215105.376000004,
      "d": 66.28533333336236,
      "v": 120
    },
    {
      "midi": 42,
      "hit": false,
      "t": 215114.84533333735,
      "d": 94.69333333338727,
      "v": 78
    },
    {
      "midi": 65,
      "hit": false,
      "t": 215219.00800000408,
      "d": 66.28533333333326,
      "v": 110
    },
    {
      "midi": 29,
      "hit": false,
      "t": 215219.00800000408,
      "d": 94.69333333332906,
      "v": 127
    },
    {
      "midi": 60,
      "hit": false,
      "t": 215219.00800000408,
      "d": 94.69333333332906,
      "v": 90
    },
    {
      "midi": 46,
      "hit": false,
      "t": 215237.94666667073,
      "d": 94.69333333335817,
      "v": 92
    },
    {
      "midi": 65,
      "hit": false,
      "t": 215323.17066667075,
      "d": 75.7546666666749,
      "v": 100
    },
    {
      "midi": 29,
      "hit": false,
      "t": 215332.6400000041,
      "d": 94.69333333332906,
      "v": 127
    },
    {
      "midi": 53,
      "hit": false,
      "t": 215332.6400000041,
      "d": 94.69333333332906,
      "v": 110
    },
    {
      "midi": 118,
      "hit": false,
      "t": 215332.6400000041,
      "d": 94.69333333332906,
      "v": 60
    },
    {
      "midi": 59,
      "hit": false,
      "t": 215446.2720000041,
      "d": 18.938666666683275,
      "v": 60
    },
    {
      "midi": 67,
      "hit": false,
      "t": 215446.2720000041,
      "d": 66.28533333336236,
      "v": 127
    },
    {
      "midi": 31,
      "hit": false,
      "t": 215446.2720000041,
      "d": 94.69333333335817,
      "v": 127
    },
    {
      "midi": 55,
      "hit": false,
      "t": 215446.2720000041,
      "d": 94.69333333335817,
      "v": 110
    },
    {
      "midi": 15,
      "hit": false,
      "t": 215446.2720000041,
      "d": 94.69333333335817,
      "v": 100
    },
    {
      "midi": 13,
      "hit": false,
      "t": 215446.2720000041,
      "d": 94.69333333335817,
      "v": 100
    },
    {
      "midi": 10,
      "hit": false,
      "t": 215446.2720000041,
      "d": 94.69333333335817,
      "v": 127
    },
    {
      "midi": 42,
      "hit": false,
      "t": 215446.2720000041,
      "d": 94.69333333335817,
      "v": 92
    },
    {
      "midi": 62,
      "hit": false,
      "t": 215446.2720000041,
      "d": 208.3253333333996,
      "v": 127
    },
    {
      "midi": 79,
      "hit": false,
      "t": 215446.2720000041,
      "d": 871.1786666668486,
      "v": 120
    },
    {
      "midi": 67,
      "hit": false,
      "t": 215550.4346666708,
      "d": 75.754666666704,
      "v": 100
    },
    {
      "midi": 118,
      "hit": false,
      "t": 215559.90400000414,
      "d": 94.69333333335817,
      "v": 60
    },
    {
      "midi": 42,
      "hit": false,
      "t": 215569.37333333748,
      "d": 94.69333333335817,
      "v": 78
    },
    {
      "midi": 74,
      "hit": false,
      "t": 215664.06666667084,
      "d": 94.69333333335817,
      "v": 120
    },
    {
      "midi": 67,
      "hit": false,
      "t": 215673.53600000418,
      "d": 66.28533333333326,
      "v": 127
    },
    {
      "midi": 31,
      "hit": false,
      "t": 215673.53600000418,
      "d": 94.69333333335817,
      "v": 127
    },
    {
      "midi": 105,
      "hit": false,
      "t": 215673.53600000418,
      "d": 94.69333333335817,
      "v": 100
    },
    {
      "midi": 108,
      "hit": false,
      "t": 215673.53600000418,
      "d": 94.69333333335817,
      "v": 80
    },
    {
      "midi": 127,
      "hit": false,
      "t": 215673.53600000418,
      "d": 94.69333333335817,
      "v": 60
    },
    {
      "midi": 118,
      "hit": false,
      "t": 215673.53600000418,
      "d": 94.69333333335817,
      "v": 40
    },
    {
      "midi": 60,
      "hit": false,
      "t": 215673.53600000418,
      "d": 208.3253333333705,
      "v": 127
    },
    {
      "midi": 59,
      "hit": false,
      "t": 215673.53600000418,
      "d": 208.3253333333705,
      "v": 90
    },
    {
      "midi": 62,
      "hit": false,
      "t": 215673.53600000418,
      "d": 208.3253333333705,
      "v": 127
    },
    {
      "midi": 46,
      "hit": false,
      "t": 215692.47466667084,
      "d": 94.69333333338727,
      "v": 92
    },
    {
      "midi": 67,
      "hit": false,
      "t": 215777.69866667088,
      "d": 75.7546666666749,
      "v": 120
    },
    {
      "midi": 74,
      "hit": false,
      "t": 215787.16800000423,
      "d": 94.69333333332906,
      "v": 120
    },
    {
      "midi": 63,
      "hit": false,
      "t": 215787.16800000423,
      "d": 94.69333333332906,
      "v": 80
    },
    {
      "midi": 74,
      "hit": false,
      "t": 215891.3306666709,
      "d": 94.69333333329996,
      "v": 120
    },
    {
      "midi": 62,
      "hit": false,
      "t": 215900.80000000424,
      "d": 18.93866666665417,
      "v": 127
    },
    {
      "midi": 67,
      "hit": false,
      "t": 215900.80000000424,
      "d": 66.28533333330415,
      "v": 127
    },
    {
      "midi": 31,
      "hit": false,
      "t": 215900.80000000424,
      "d": 94.69333333329996,
      "v": 127
    },
    {
      "midi": 71,
      "hit": false,
      "t": 215900.80000000424,
      "d": 94.69333333329996,
      "v": 110
    },
    {
      "midi": 15,
      "hit": false,
      "t": 215900.80000000424,
      "d": 94.69333333329996,
      "v": 100
    },
    {
      "midi": 13,
      "hit": false,
      "t": 215900.80000000424,
      "d": 94.69333333329996,
      "v": 100
    },
    {
      "midi": 10,
      "hit": false,
      "t": 215900.80000000424,
      "d": 94.69333333329996,
      "v": 127
    },
    {
      "midi": 105,
      "hit": false,
      "t": 215900.80000000424,
      "d": 94.69333333329996,
      "v": 100
    },
    {
      "midi": 108,
      "hit": false,
      "t": 215900.80000000424,
      "d": 94.69333333329996,
      "v": 80
    },
    {
      "midi": 127,
      "hit": false,
      "t": 215900.80000000424,
      "d": 94.69333333329996,
      "v": 60
    },
    {
      "midi": 42,
      "hit": false,
      "t": 215900.80000000424,
      "d": 94.69333333329996,
      "v": 92
    },
    {
      "midi": 118,
      "hit": false,
      "t": 215900.80000000424,
      "d": 94.69333333329996,
      "v": 60
    },
    {
      "midi": 64,
      "hit": false,
      "t": 215900.80000000424,
      "d": 94.69333333329996,
      "v": 70
    },
    {
      "midi": 59,
      "hit": false,
      "t": 215900.80000000424,
      "d": 208.3253333333414,
      "v": 127
    },
    {
      "midi": 67,
      "hit": false,
      "t": 216014.43200000422,
      "d": 66.28533333336236,
      "v": 110
    },
    {
      "midi": 31,
      "hit": false,
      "t": 216014.43200000422,
      "d": 94.69333333335817,
      "v": 127
    },
    {
      "midi": 74,
      "hit": false,
      "t": 216014.43200000422,
      "d": 94.69333333335817,
      "v": 120
    },
    {
      "midi": 42,
      "hit": false,
      "t": 216023.90133333756,
      "d": 94.69333333335817,
      "v": 78
    },
    {
      "midi": 67,
      "hit": false,
      "t": 216118.59466667092,
      "d": 75.7546666666749,
      "v": 100
    },
    {
      "midi": 31,
      "hit": false,
      "t": 216128.06400000426,
      "d": 94.69333333332906,
      "v": 127
    },
    {
      "midi": 62,
      "hit": false,
      "t": 216128.06400000426,
      "d": 94.69333333332906,
      "v": 90
    },
    {
      "midi": 105,
      "hit": false,
      "t": 216128.06400000426,
      "d": 94.69333333332906,
      "v": 100
    },
    {
      "midi": 108,
      "hit": false,
      "t": 216128.06400000426,
      "d": 94.69333333332906,
      "v": 80
    },
    {
      "midi": 127,
      "hit": false,
      "t": 216128.06400000426,
      "d": 94.69333333332906,
      "v": 60
    },
    {
      "midi": 118,
      "hit": false,
      "t": 216128.06400000426,
      "d": 94.69333333332906,
      "v": 60
    },
    {
      "midi": 46,
      "hit": false,
      "t": 216147.00266667092,
      "d": 94.69333333335817,
      "v": 92
    },
    {
      "midi": 67,
      "hit": false,
      "t": 216232.22666667093,
      "d": 75.7546666666749,
      "v": 100
    },
    {
      "midi": 31,
      "hit": false,
      "t": 216241.69600000427,
      "d": 94.69333333332906,
      "v": 127
    },
    {
      "midi": 59,
      "hit": false,
      "t": 216241.69600000427,
      "d": 94.69333333332906,
      "v": 110
    },
    {
      "midi": 105,
      "hit": false,
      "t": 216241.69600000427,
      "d": 94.69333333332906,
      "v": 100
    },
    {
      "midi": 108,
      "hit": false,
      "t": 216241.69600000427,
      "d": 94.69333333332906,
      "v": 80
    },
    {
      "midi": 127,
      "hit": false,
      "t": 216241.69600000427,
      "d": 94.69333333332906,
      "v": 60
    },
    {
      "midi": 118,
      "hit": false,
      "t": 216241.69600000427,
      "d": 94.69333333332906,
      "v": 40
    },
    {
      "midi": 69,
      "hit": false,
      "t": 216355.3280000043,
      "d": 85.22400000001653,
      "v": 115
    },
    {
      "midi": 33,
      "hit": false,
      "t": 216355.3280000043,
      "d": 94.69333333335817,
      "v": 127
    },
    {
      "midi": 48,
      "hit": false,
      "t": 216355.3280000043,
      "d": 94.69333333335817,
      "v": 64
    },
    {
      "midi": 15,
      "hit": false,
      "t": 216355.3280000043,
      "d": 94.69333333335817,
      "v": 100
    },
    {
      "midi": 13,
      "hit": false,
      "t": 216355.3280000043,
      "d": 94.69333333335817,
      "v": 100
    },
    {
      "midi": 10,
      "hit": false,
      "t": 216355.3280000043,
      "d": 94.69333333335817,
      "v": 127
    },
    {
      "midi": 42,
      "hit": false,
      "t": 216355.3280000043,
      "d": 94.69333333335817,
      "v": 92
    },
    {
      "midi": 64,
      "hit": false,
      "t": 216364.79733333763,
      "d": 94.69333333335817,
      "v": 80
    },
    {
      "midi": 52,
      "hit": false,
      "t": 216364.79733333763,
      "d": 142.04000000006636,
      "v": 115
    },
    {
      "midi": 60,
      "hit": false,
      "t": 216374.26666667097,
      "d": 94.69333333335817,
      "v": 80
    },
    {
      "midi": 45,
      "hit": false,
      "t": 216374.26666667097,
      "d": 416.65066666694474,
      "v": 115
    },
    {
      "midi": 48,
      "hit": false,
      "t": 216450.02133333765,
      "d": 18.938666666683275,
      "v": 64
    },
    {
      "midi": 49,
      "hit": false,
      "t": 216468.96000000433,
      "d": 18.938666666683275,
      "v": 64
    },
    {
      "midi": 72,
      "hit": false,
      "t": 216468.96000000433,
      "d": 85.22400000004563,
      "v": 80
    },
    {
      "midi": 33,
      "hit": false,
      "t": 216468.96000000433,
      "d": 94.69333333338727,
      "v": 127
    },
    {
      "midi": 60,
      "hit": false,
      "t": 216468.96000000433,
      "d": 94.69333333338727,
      "v": 80
    },
    {
      "midi": 50,
      "hit": false,
      "t": 216478.42933333767,
      "d": 18.938666666683275,
      "v": 64
    },
    {
      "midi": 42,
      "hit": false,
      "t": 216478.42933333767,
      "d": 94.69333333338727,
      "v": 78
    },
    {
      "midi": 64,
      "hit": false,
      "t": 216478.42933333767,
      "d": 94.69333333338727,
      "v": 80
    },
    {
      "midi": 69,
      "hit": false,
      "t": 216487.898666671,
      "d": 94.69333333338727,
      "v": 80
    },
    {
      "midi": 51,
      "hit": false,
      "t": 216497.36800000435,
      "d": 18.938666666683275,
      "v": 64
    },
    {
      "midi": 52,
      "hit": false,
      "t": 216506.8373333377,
      "d": 18.938666666683275,
      "v": 64
    },
    {
      "midi": 53,
      "hit": false,
      "t": 216525.77600000438,
      "d": 18.93866666665417,
      "v": 64
    },
    {
      "midi": 54,
      "hit": false,
      "t": 216544.71466667103,
      "d": 18.938666666683275,
      "v": 64
    },
    {
      "midi": 55,
      "hit": false,
      "t": 216554.18400000437,
      "d": 18.938666666683275,
      "v": 64
    },
    {
      "midi": 56,
      "hit": false,
      "t": 216573.12266667106,
      "d": 18.938666666683275,
      "v": 64
    },
    {
      "midi": 57,
      "hit": false,
      "t": 216582.5920000044,
      "d": 18.938666666683275,
      "v": 64
    },
    {
      "midi": 69,
      "hit": false,
      "t": 216582.5920000044,
      "d": 47.34666666670819,
      "v": 80
    },
    {
      "midi": 76,
      "hit": false,
      "t": 216582.5920000044,
      "d": 85.22400000007474,
      "v": 80
    },
    {
      "midi": 33,
      "hit": false,
      "t": 216582.5920000044,
      "d": 94.69333333341638,
      "v": 127
    },
    {
      "midi": 64,
      "hit": false,
      "t": 216592.06133333774,
      "d": 47.34666666670819,
      "v": 80
    },
    {
      "midi": 58,
      "hit": false,
      "t": 216601.53066667108,
      "d": 18.938666666683275,
      "v": 64
    },
    {
      "midi": 46,
      "hit": false,
      "t": 216601.53066667108,
      "d": 94.69333333341638,
      "v": 92
    },
    {
      "midi": 59,
      "hit": false,
      "t": 216611.00000000442,
      "d": 18.938666666683275,
      "v": 64
    },
    {
      "midi": 60,
      "hit": false,
      "t": 216629.9386666711,
      "d": 18.938666666683275,
      "v": 64
    },
    {
      "midi": 61,
      "hit": false,
      "t": 216648.8773333378,
      "d": 18.938666666683275,
      "v": 64
    },
    {
      "midi": 62,
      "hit": false,
      "t": 216658.34666667113,
      "d": 18.938666666683275,
      "v": 64
    },
    {
      "midi": 63,
      "hit": false,
      "t": 216677.28533333782,
      "d": 18.938666666683275,
      "v": 64
    },
    {
      "midi": 64,
      "hit": false,
      "t": 216696.2240000045,
      "d": 9.469333333341638,
      "v": 70
    },
    {
      "midi": 60,
      "hit": false,
      "t": 216696.2240000045,
      "d": 75.7546666667331,
      "v": 80
    },
    {
      "midi": 81,
      "hit": false,
      "t": 216696.2240000045,
      "d": 85.22400000007474,
      "v": 80
    },
    {
      "midi": 33,
      "hit": false,
      "t": 216696.2240000045,
      "d": 94.69333333341638,
      "v": 127
    },
    {
      "midi": 65,
      "hit": false,
      "t": 216705.69333333784,
      "d": 18.938666666683275,
      "v": 64
    },
    {
      "midi": 64,
      "hit": false,
      "t": 216705.69333333784,
      "d": 66.28533333339146,
      "v": 80
    },
    {
      "midi": 66,
      "hit": false,
      "t": 216724.63200000452,
      "d": 18.938666666683275,
      "v": 64
    },
    {
      "midi": 67,
      "hit": false,
      "t": 216734.10133333787,
      "d": 18.938666666683275,
      "v": 64
    },
    {
      "midi": 68,
      "hit": false,
      "t": 216753.04000000455,
      "d": 18.938666666683275,
      "v": 64
    },
    {
      "midi": 69,
      "hit": false,
      "t": 216762.5093333379,
      "d": 18.938666666683275,
      "v": 64
    },
    {
      "midi": 70,
      "hit": false,
      "t": 216781.44800000457,
      "d": 18.938666666683275,
      "v": 64
    },
    {
      "midi": 71,
      "hit": false,
      "t": 216790.91733333791,
      "d": 18.938666666683275,
      "v": 64
    },
    {
      "midi": 60,
      "hit": false,
      "t": 216800.38666667126,
      "d": 9.469333333341638,
      "v": 110
    },
    {
      "midi": 76,
      "hit": false,
      "t": 216809.8560000046,
      "d": 75.7546666666749,
      "v": 127
    },
    {
      "midi": 72,
      "hit": false,
      "t": 216809.8560000046,
      "d": 75.7546666666749,
      "v": 127
    },
    {
      "midi": 84,
      "hit": false,
      "t": 216809.8560000046,
      "d": 85.22400000001653,
      "v": 80
    },
    {
      "midi": 33,
      "hit": false,
      "t": 216809.8560000046,
      "d": 94.69333333335817,
      "v": 127
    },
    {
      "midi": 15,
      "hit": false,
      "t": 216809.8560000046,
      "d": 94.69333333335817,
      "v": 100
    },
    {
      "midi": 13,
      "hit": false,
      "t": 216809.8560000046,
      "d": 94.69333333335817,
      "v": 100
    },
    {
      "midi": 10,
      "hit": false,
      "t": 216809.8560000046,
      "d": 94.69333333335817,
      "v": 127
    },
    {
      "midi": 127,
      "hit": false,
      "t": 216809.8560000046,
      "d": 94.69333333335817,
      "v": 60
    },
    {
      "midi": 108,
      "hit": false,
      "t": 216809.8560000046,
      "d": 94.69333333335817,
      "v": 80
    },
    {
      "midi": 105,
      "hit": false,
      "t": 216809.8560000046,
      "d": 94.69333333335817,
      "v": 100
    },
    {
      "midi": 42,
      "hit": false,
      "t": 216809.8560000046,
      "d": 94.69333333335817,
      "v": 92
    },
    {
      "midi": 69,
      "hit": false,
      "t": 216809.8560000046,
      "d": 94.69333333335817,
      "v": 115
    },
    {
      "midi": 63,
      "hit": false,
      "t": 216809.8560000046,
      "d": 94.69333333335817,
      "v": 70
    },
    {
      "midi": 57,
      "hit": false,
      "t": 216809.8560000046,
      "d": 208.3253333333996,
      "v": 110
    },
    {
      "midi": 64,
      "hit": false,
      "t": 216819.32533333794,
      "d": 94.69333333335817,
      "v": 80
    },
    {
      "midi": 52,
      "hit": false,
      "t": 216819.32533333794,
      "d": 198.85600000005797,
      "v": 115
    },
    {
      "midi": 60,
      "hit": false,
      "t": 216828.79466667128,
      "d": 94.69333333335817,
      "v": 80
    },
    {
      "midi": 45,
      "hit": false,
      "t": 216828.79466667128,
      "d": 198.85600000005797,
      "v": 115
    },
    {
      "midi": 88,
      "hit": false,
      "t": 216923.48800000464,
      "d": 85.22400000001653,
      "v": 80
    },
    {
      "midi": 76,
      "hit": false,
      "t": 216923.48800000464,
      "d": 94.69333333335817,
      "v": 127
    },
    {
      "midi": 72,
      "hit": false,
      "t": 216923.48800000464,
      "d": 94.69333333335817,
      "v": 127
    },
    {
      "midi": 42,
      "hit": false,
      "t": 216932.95733333798,
      "d": 94.69333333335817,
      "v": 78
    },
    {
      "midi": 45,
      "hit": false,
      "t": 217027.65066667134,
      "d": 9.469333333341638,
      "v": 90
    },
    {
      "midi": 76,
      "hit": false,
      "t": 217037.12000000468,
      "d": 75.7546666666749,
      "v": 127
    },
    {
      "midi": 72,
      "hit": false,
      "t": 217037.12000000468,
      "d": 75.7546666666749,
      "v": 127
    },
    {
      "midi": 45,
      "hit": false,
      "t": 217037.12000000468,
      "d": 85.22400000001653,
      "v": 115
    },
    {
      "midi": 52,
      "hit": false,
      "t": 217037.12000000468,
      "d": 85.22400000001653,
      "v": 115
    },
    {
      "midi": 93,
      "hit": false,
      "t": 217037.12000000468,
      "d": 85.22400000001653,
      "v": 80
    },
    {
      "midi": 33,
      "hit": false,
      "t": 217037.12000000468,
      "d": 94.69333333335817,
      "v": 127
    },
    {
      "midi": 57,
      "hit": false,
      "t": 217037.12000000468,
      "d": 94.69333333335817,
      "v": 90
    },
    {
      "midi": 64,
      "hit": false,
      "t": 217046.58933333802,
      "d": 94.69333333335817,
      "v": 115
    },
    {
      "midi": 60,
      "hit": false,
      "t": 217056.05866667136,
      "d": 75.7546666666749,
      "v": 80
    },
    {
      "midi": 69,
      "hit": false,
      "t": 217056.05866667136,
      "d": 75.7546666666749,
      "v": 115
    },
    {
      "midi": 46,
      "hit": false,
      "t": 217056.05866667136,
      "d": 94.69333333335817,
      "v": 92
    },
    {
      "midi": 60,
      "hit": false,
      "t": 217141.28266667138,
      "d": 9.469333333341638,
      "v": 110
    },
    {
      "midi": 88,
      "hit": false,
      "t": 217150.75200000472,
      "d": 85.22400000001653,
      "v": 80
    },
    {
      "midi": 33,
      "hit": false,
      "t": 217150.75200000472,
      "d": 94.69333333335817,
      "v": 127
    },
    {
      "midi": 57,
      "hit": false,
      "t": 217150.75200000472,
      "d": 94.69333333335817,
      "v": 110
    },
    {
      "midi": 76,
      "hit": false,
      "t": 217150.75200000472,
      "d": 94.69333333335817,
      "v": 127
    },
    {
      "midi": 72,
      "hit": false,
      "t": 217150.75200000472,
      "d": 94.69333333335817,
      "v": 127
    },
    {
      "midi": 64,
      "hit": false,
      "t": 217160.22133333806,
      "d": 75.7546666666749,
      "v": 80
    },
    {
      "midi": 60,
      "hit": false,
      "t": 217160.22133333806,
      "d": 75.7546666666749,
      "v": 115
    },
    {
      "midi": 52,
      "hit": false,
      "t": 217160.22133333806,
      "d": 85.22400000001653,
      "v": 115
    },
    {
      "midi": 69,
      "hit": false,
      "t": 217169.6906666714,
      "d": 75.7546666666749,
      "v": 80
    },
    {
      "midi": 45,
      "hit": false,
      "t": 217169.6906666714,
      "d": 85.22400000001653,
      "v": 115
    },
    {
      "midi": 45,
      "hit": false,
      "t": 217254.91466667142,
      "d": 9.469333333341638,
      "v": 100
    },
    {
      "midi": 84,
      "hit": false,
      "t": 217264.38400000476,
      "d": 85.22400000001653,
      "v": 80
    },
    {
      "midi": 33,
      "hit": false,
      "t": 217264.38400000476,
      "d": 94.69333333335817,
      "v": 127
    },
    {
      "midi": 15,
      "hit": false,
      "t": 217264.38400000476,
      "d": 94.69333333335817,
      "v": 100
    },
    {
      "midi": 13,
      "hit": false,
      "t": 217264.38400000476,
      "d": 94.69333333335817,
      "v": 100
    },
    {
      "midi": 10,
      "hit": false,
      "t": 217264.38400000476,
      "d": 94.69333333335817,
      "v": 127
    },
    {
      "midi": 42,
      "hit": false,
      "t": 217264.38400000476,
      "d": 94.69333333335817,
      "v": 92
    },
    {
      "midi": 74,
      "hit": false,
      "t": 217264.38400000476,
      "d": 113.63200000001234,
      "v": 127
    },
    {
      "midi": 71,
      "hit": false,
      "t": 217264.38400000476,
      "d": 113.63200000001234,
      "v": 127
    },
    {
      "midi": 45,
      "hit": false,
      "t": 217264.38400000476,
      "d": 198.85600000002887,
      "v": 95
    },
    {
      "midi": 52,
      "hit": false,
      "t": 217264.38400000476,
      "d": 198.85600000002887,
      "v": 95
    },
    {
      "midi": 57,
      "hit": false,
      "t": 217264.38400000476,
      "d": 208.3253333333705,
      "v": 100
    },
    {
      "midi": 60,
      "hit": false,
      "t": 217273.8533333381,
      "d": 198.85600000002887,
      "v": 95
    },
    {
      "midi": 64,
      "hit": false,
      "t": 217273.8533333381,
      "d": 208.3253333333705,
      "v": 95
    },
    {
      "midi": 69,
      "hit": false,
      "t": 217283.32266667145,
      "d": 208.3253333333705,
      "v": 95
    },
    {
      "midi": 81,
      "hit": false,
      "t": 217378.01600000478,
      "d": 85.22400000001653,
      "v": 80
    },
    {
      "midi": 42,
      "hit": false,
      "t": 217387.48533333812,
      "d": 94.69333333335817,
      "v": 78
    },
    {
      "midi": 76,
      "hit": false,
      "t": 217491.64800000482,
      "d": 85.22400000001653,
      "v": 127
    },
    {
      "midi": 64,
      "hit": false,
      "t": 217491.64800000482,
      "d": 198.85599999999977,
      "v": 95
    },
    {
      "midi": 33,
      "hit": false,
      "t": 217491.64800000482,
      "d": 208.3253333333414,
      "v": 127
    },
    {
      "midi": 57,
      "hit": false,
      "t": 217491.64800000482,
      "d": 208.3253333333414,
      "v": 90
    },
    {
      "midi": 69,
      "hit": false,
      "t": 217491.64800000482,
      "d": 208.3253333333414,
      "v": 95
    },
    {
      "midi": 60,
      "hit": false,
      "t": 217501.11733333816,
      "d": 189.38666666665813,
      "v": 95
    },
    {
      "midi": 52,
      "hit": false,
      "t": 217501.11733333816,
      "d": 198.85599999999977,
      "v": 95
    },
    {
      "midi": 46,
      "hit": false,
      "t": 217510.5866666715,
      "d": 94.69333333332906,
      "v": 92
    },
    {
      "midi": 45,
      "hit": false,
      "t": 217510.5866666715,
      "d": 198.85599999999977,
      "v": 95
    },
    {
      "midi": 72,
      "hit": false,
      "t": 217605.28000000483,
      "d": 37.87733333330834,
      "v": 80
    },
    {
      "midi": 63,
      "hit": false,
      "t": 217605.28000000483,
      "d": 94.69333333332906,
      "v": 80
    },
    {
      "midi": 69,
      "hit": false,
      "t": 217718.91200000484,
      "d": 85.22400000001653,
      "v": 115
    },
    {
      "midi": 33,
      "hit": false,
      "t": 217718.91200000484,
      "d": 94.69333333335817,
      "v": 127
    },
    {
      "midi": 15,
      "hit": false,
      "t": 217718.91200000484,
      "d": 94.69333333335817,
      "v": 100
    },
    {
      "midi": 13,
      "hit": false,
      "t": 217718.91200000484,
      "d": 94.69333333335817,
      "v": 100
    },
    {
      "midi": 10,
      "hit": false,
      "t": 217718.91200000484,
      "d": 94.69333333335817,
      "v": 127
    },
    {
      "midi": 127,
      "hit": false,
      "t": 217718.91200000484,
      "d": 94.69333333335817,
      "v": 60
    },
    {
      "midi": 108,
      "hit": false,
      "t": 217718.91200000484,
      "d": 94.69333333335817,
      "v": 80
    },
    {
      "midi": 105,
      "hit": false,
      "t": 217718.91200000484,
      "d": 94.69333333335817,
      "v": 100
    },
    {
      "midi": 42,
      "hit": false,
      "t": 217718.91200000484,
      "d": 94.69333333335817,
      "v": 92
    },
    {
      "midi": 64,
      "hit": false,
      "t": 217718.91200000484,
      "d": 94.69333333335817,
      "v": 70
    },
    {
      "midi": 57,
      "hit": false,
      "t": 217718.91200000484,
      "d": 426.12000000005355,
      "v": 110
    },
    {
      "midi": 60,
      "hit": false,
      "t": 217728.38133333818,
      "d": 407.1813333333703,
      "v": 115
    },
    {
      "midi": 52,
      "hit": false,
      "t": 217728.38133333818,
      "d": 416.6506666667119,
      "v": 115
    },
    {
      "midi": 45,
      "hit": false,
      "t": 217737.85066667153,
      "d": 416.6506666667119,
      "v": 115
    },
    {
      "midi": 72,
      "hit": false,
      "t": 217832.54400000485,
      "d": 85.22400000001653,
      "v": 80
    },
    {
      "midi": 33,
      "hit": false,
      "t": 217832.54400000485,
      "d": 94.69333333335817,
      "v": 127
    },
    {
      "midi": 42,
      "hit": false,
      "t": 217842.0133333382,
      "d": 94.69333333335817,
      "v": 78
    },
    {
      "midi": 76,
      "hit": false,
      "t": 217946.1760000049,
      "d": 85.22399999998743,
      "v": 80
    },
    {
      "midi": 33,
      "hit": false,
      "t": 217946.1760000049,
      "d": 94.69333333332906,
      "v": 127
    },
    {
      "midi": 77,
      "hit": false,
      "t": 217946.1760000049,
      "d": 435.5893333334243,
      "v": 127
    },
    {
      "midi": 46,
      "hit": false,
      "t": 217965.11466667155,
      "d": 94.69333333332906,
      "v": 92
    },
    {
      "midi": 81,
      "hit": false,
      "t": 218059.80800000488,
      "d": 85.22400000001653,
      "v": 80
    },
    {
      "midi": 74,
      "hit": false,
      "t": 218173.44000000492,
      "d": 85.22400000001653,
      "v": 115
    },
    {
      "midi": 26,
      "hit": false,
      "t": 218173.44000000492,
      "d": 94.69333333335817,
      "v": 127
    },
    {
      "midi": 15,
      "hit": false,
      "t": 218173.44000000492,
      "d": 94.69333333335817,
      "v": 100
    },
    {
      "midi": 13,
      "hit": false,
      "t": 218173.44000000492,
      "d": 94.69333333335817,
      "v": 100
    },
    {
      "midi": 10,
      "hit": false,
      "t": 218173.44000000492,
      "d": 94.69333333335817,
      "v": 127
    },
    {
      "midi": 42,
      "hit": false,
      "t": 218173.44000000492,
      "d": 94.69333333335817,
      "v": 92
    },
    {
      "midi": 69,
      "hit": false,
      "t": 218173.44000000492,
      "d": 94.69333333335817,
      "v": 70
    },
    {
      "midi": 65,
      "hit": false,
      "t": 218182.90933333826,
      "d": 85.22400000001653,
      "v": 70
    },
    {
      "midi": 57,
      "hit": false,
      "t": 218182.90933333826,
      "d": 94.69333333335817,
      "v": 115
    },
    {
      "midi": 50,
      "hit": false,
      "t": 218182.90933333826,
      "d": 94.69333333335817,
      "v": 115
    },
    {
      "midi": 62,
      "hit": false,
      "t": 218192.3786666716,
      "d": 94.69333333335817,
      "v": 70
    },
    {
      "midi": 45,
      "hit": false,
      "t": 218192.3786666716,
      "d": 94.69333333335817,
      "v": 115
    },
    {
      "midi": 26,
      "hit": false,
      "t": 218287.07200000496,
      "d": 94.69333333335817,
      "v": 127
    },
    {
      "midi": 62,
      "hit": false,
      "t": 218287.07200000496,
      "d": 94.69333333335817,
      "v": 70
    },
    {
      "midi": 45,
      "hit": false,
      "t": 218287.07200000496,
      "d": 94.69333333335817,
      "v": 115
    },
    {
      "midi": 50,
      "hit": false,
      "t": 218287.07200000496,
      "d": 94.69333333335817,
      "v": 115
    },
    {
      "midi": 42,
      "hit": false,
      "t": 218296.5413333383,
      "d": 94.69333333335817,
      "v": 78
    },
    {
      "midi": 65,
      "hit": false,
      "t": 218296.5413333383,
      "d": 94.69333333335817,
      "v": 115
    },
    {
      "midi": 57,
      "hit": false,
      "t": 218296.5413333383,
      "d": 94.69333333335817,
      "v": 115
    },
    {
      "midi": 69,
      "hit": false,
      "t": 218306.01066667165,
      "d": 66.28533333333326,
      "v": 70
    },
    {
      "midi": 74,
      "hit": false,
      "t": 218306.01066667165,
      "d": 75.7546666666749,
      "v": 115
    },
    {
      "midi": 77,
      "hit": false,
      "t": 218400.704000005,
      "d": 85.22400000001653,
      "v": 80
    },
    {
      "midi": 26,
      "hit": false,
      "t": 218400.704000005,
      "d": 94.69333333335817,
      "v": 127
    },
    {
      "midi": 74,
      "hit": false,
      "t": 218400.704000005,
      "d": 94.69333333335817,
      "v": 95
    },
    {
      "midi": 65,
      "hit": false,
      "t": 218400.704000005,
      "d": 94.69333333335817,
      "v": 95
    },
    {
      "midi": 76,
      "hit": false,
      "t": 218400.704000005,
      "d": 151.5093333333789,
      "v": 120
    },
    {
      "midi": 72,
      "hit": false,
      "t": 218400.704000005,
      "d": 151.5093333333789,
      "v": 120
    },
    {
      "midi": 57,
      "hit": false,
      "t": 218410.17333333835,
      "d": 94.69333333335817,
      "v": 95
    },
    {
      "midi": 50,
      "hit": false,
      "t": 218410.17333333835,
      "d": 94.69333333335817,
      "v": 95
    },
    {
      "midi": 46,
      "hit": false,
      "t": 218419.6426666717,
      "d": 94.69333333335817,
      "v": 92
    },
    {
      "midi": 45,
      "hit": false,
      "t": 218419.6426666717,
      "d": 94.69333333335817,
      "v": 95
    },
    {
      "midi": 50,
      "hit": false,
      "t": 218514.33600000505,
      "d": 85.22399999998743,
      "v": 95
    },
    {
      "midi": 81,
      "hit": false,
      "t": 218514.33600000505,
      "d": 85.22399999998743,
      "v": 80
    },
    {
      "midi": 45,
      "hit": false,
      "t": 218514.33600000505,
      "d": 94.69333333332906,
      "v": 95
    },
    {
      "midi": 26,
      "hit": false,
      "t": 218514.33600000505,
      "d": 94.69333333332906,
      "v": 127
    },
    {
      "midi": 69,
      "hit": false,
      "t": 218514.33600000505,
      "d": 94.69333333332906,
      "v": 70
    },
    {
      "midi": 64,
      "hit": false,
      "t": 218514.33600000505,
      "d": 94.69333333332906,
      "v": 70
    },
    {
      "midi": 65,
      "hit": false,
      "t": 218523.8053333384,
      "d": 66.28533333330415,
      "v": 95
    },
    {
      "midi": 57,
      "hit": false,
      "t": 218523.8053333384,
      "d": 75.75466666664579,
      "v": 95
    },
    {
      "midi": 62,
      "hit": false,
      "t": 218533.27466667173,
      "d": 56.815999999962514,
      "v": 70
    },
    {
      "midi": 74,
      "hit": false,
      "t": 218533.27466667173,
      "d": 94.69333333332906,
      "v": 95
    },
    {
      "midi": 62,
      "hit": false,
      "t": 218618.49866667172,
      "d": 9.469333333341638,
      "v": 110
    },
    {
      "midi": 86,
      "hit": false,
      "t": 218627.96800000506,
      "d": 85.22400000001653,
      "v": 80
    },
    {
      "midi": 26,
      "hit": false,
      "t": 218627.96800000506,
      "d": 94.69333333335817,
      "v": 127
    },
    {
      "midi": 15,
      "hit": false,
      "t": 218627.96800000506,
      "d": 94.69333333335817,
      "v": 100
    },
    {
      "midi": 13,
      "hit": false,
      "t": 218627.96800000506,
      "d": 94.69333333335817,
      "v": 100
    },
    {
      "midi": 10,
      "hit": false,
      "t": 218627.96800000506,
      "d": 94.69333333335817,
      "v": 127
    },
    {
      "midi": 127,
      "hit": false,
      "t": 218627.96800000506,
      "d": 94.69333333335817,
      "v": 60
    },
    {
      "midi": 108,
      "hit": false,
      "t": 218627.96800000506,
      "d": 94.69333333335817,
      "v": 80
    },
    {
      "midi": 105,
      "hit": false,
      "t": 218627.96800000506,
      "d": 94.69333333335817,
      "v": 100
    },
    {
      "midi": 42,
      "hit": false,
      "t": 218627.96800000506,
      "d": 94.69333333335817,
      "v": 92
    },
    {
      "midi": 62,
      "hit": false,
      "t": 218627.96800000506,
      "d": 94.69333333335817,
      "v": 70
    },
    {
      "midi": 63,
      "hit": false,
      "t": 218627.96800000506,
      "d": 94.69333333335817,
      "v": 70
    },
    {
      "midi": 65,
      "hit": false,
      "t": 218637.4373333384,
      "d": 94.69333333335817,
      "v": 70
    },
    {
      "midi": 57,
      "hit": false,
      "t": 218637.4373333384,
      "d": 198.85600000005797,
      "v": 115
    },
    {
      "midi": 50,
      "hit": false,
      "t": 218637.4373333384,
      "d": 198.85600000005797,
      "v": 115
    },
    {
      "midi": 69,
      "hit": false,
      "t": 218646.90666667174,
      "d": 94.69333333335817,
      "v": 70
    },
    {
      "midi": 45,
      "hit": false,
      "t": 218646.90666667174,
      "d": 198.85600000005797,
      "v": 115
    },
    {
      "midi": 89,
      "hit": false,
      "t": 218741.6000000051,
      "d": 85.22400000001653,
      "v": 80
    },
    {
      "midi": 42,
      "hit": false,
      "t": 218751.06933333844,
      "d": 94.69333333335817,
      "v": 78
    },
    {
      "midi": 45,
      "hit": false,
      "t": 218845.7626666718,
      "d": 56.81600000002072,
      "v": 90
    },
    {
      "midi": 50,
      "hit": false,
      "t": 218845.7626666718,
      "d": 56.81600000002072,
      "v": 90
    },
    {
      "midi": 57,
      "hit": false,
      "t": 218855.23200000514,
      "d": 56.81600000002072,
      "v": 90
    },
    {
      "midi": 86,
      "hit": false,
      "t": 218855.23200000514,
      "d": 85.22400000004563,
      "v": 80
    },
    {
      "midi": 74,
      "hit": false,
      "t": 218855.23200000514,
      "d": 94.69333333338727,
      "v": 127
    },
    {
      "midi": 69,
      "hit": false,
      "t": 218855.23200000514,
      "d": 94.69333333338727,
      "v": 70
    },
    {
      "midi": 26,
      "hit": false,
      "t": 218855.23200000514,
      "d": 208.32533333342872,
      "v": 127
    },
    {
      "midi": 65,
      "hit": false,
      "t": 218864.70133333848,
      "d": 56.81600000002072,
      "v": 70
    },
    {
      "midi": 62,
      "hit": false,
      "t": 218874.17066667182,
      "d": 37.87733333333745,
      "v": 70
    },
    {
      "midi": 46,
      "hit": false,
      "t": 218874.17066667182,
      "d": 94.69333333338727,
      "v": 92
    },
    {
      "midi": 62,
      "hit": false,
      "t": 218959.39466667187,
      "d": 9.469333333341638,
      "v": 100
    },
    {
      "midi": 62,
      "hit": false,
      "t": 218968.8640000052,
      "d": 47.346666666679084,
      "v": 70
    },
    {
      "midi": 50,
      "hit": false,
      "t": 218968.8640000052,
      "d": 56.81600000002072,
      "v": 95
    },
    {
      "midi": 81,
      "hit": false,
      "t": 218968.8640000052,
      "d": 85.22400000001653,
      "v": 80
    },
    {
      "midi": 65,
      "hit": false,
      "t": 218978.33333333855,
      "d": 37.87733333333745,
      "v": 95
    },
    {
      "midi": 57,
      "hit": false,
      "t": 218978.33333333855,
      "d": 47.346666666679084,
      "v": 95
    },
    {
      "midi": 45,
      "hit": false,
      "t": 218978.33333333855,
      "d": 56.81600000002072,
      "v": 100
    },
    {
      "midi": 69,
      "hit": false,
      "t": 218987.8026666719,
      "d": 94.69333333335817,
      "v": 70
    },
    {
      "midi": 74,
      "hit": false,
      "t": 218987.8026666719,
      "d": 94.69333333335817,
      "v": 95
    },
    {
      "midi": 45,
      "hit": false,
      "t": 219073.0266666719,
      "d": 18.938666666683275,
      "v": 110
    },
    {
      "midi": 50,
      "hit": false,
      "t": 219073.0266666719,
      "d": 18.938666666683275,
      "v": 110
    },
    {
      "midi": 62,
      "hit": false,
      "t": 219082.49600000525,
      "d": 18.938666666683275,
      "v": 110
    },
    {
      "midi": 77,
      "hit": false,
      "t": 219082.49600000525,
      "d": 85.22400000004563,
      "v": 80
    },
    {
      "midi": 26,
      "hit": false,
      "t": 219082.49600000525,
      "d": 94.69333333338727,
      "v": 127
    },
    {
      "midi": 15,
      "hit": false,
      "t": 219082.49600000525,
      "d": 94.69333333338727,
      "v": 100
    },
    {
      "midi": 13,
      "hit": false,
      "t": 219082.49600000525,
      "d": 94.69333333338727,
      "v": 100
    },
    {
      "midi": 10,
      "hit": false,
      "t": 219082.49600000525,
      "d": 94.69333333338727,
      "v": 127
    },
    {
      "midi": 42,
      "hit": false,
      "t": 219082.49600000525,
      "d": 94.69333333338727,
      "v": 92
    },
    {
      "midi": 74,
      "hit": false,
      "t": 219082.49600000525,
      "d": 94.69333333338727,
      "v": 95
    },
    {
      "midi": 57,
      "hit": false,
      "t": 219091.9653333386,
      "d": 9.469333333341638,
      "v": 95
    },
    {
      "midi": 65,
      "hit": false,
      "t": 219091.9653333386,
      "d": 18.938666666683275,
      "v": 110
    },
    {
      "midi": 50,
      "hit": false,
      "t": 219091.9653333386,
      "d": 94.69333333338727,
      "v": 95
    },
    {
      "midi": 45,
      "hit": false,
      "t": 219101.43466667194,
      "d": 94.69333333338727,
      "v": 95
    },
    {
      "midi": 65,
      "hit": false,
      "t": 219186.65866667198,
      "d": 18.938666666683275,
      "v": 100
    },
    {
      "midi": 62,
      "hit": false,
      "t": 219186.65866667198,
      "d": 18.938666666683275,
      "v": 100
    },
    {
      "midi": 50,
      "hit": false,
      "t": 219196.12800000532,
      "d": 18.938666666683275,
      "v": 95
    },
    {
      "midi": 57,
      "hit": false,
      "t": 219205.59733333866,
      "d": 9.469333333341638,
      "v": 95
    },
    {
      "midi": 45,
      "hit": false,
      "t": 219205.59733333866,
      "d": 18.938666666683275,
      "v": 100
    },
    {
      "midi": 42,
      "hit": false,
      "t": 219205.59733333866,
      "d": 94.69333333335817,
      "v": 78
    },
    {
      "midi": 65,
      "hit": false,
      "t": 219205.59733333866,
      "d": 94.69333333335817,
      "v": 95
    },
    {
      "midi": 74,
      "hit": false,
      "t": 219215.066666672,
      "d": 66.28533333333326,
      "v": 95
    },
    {
      "midi": 69,
      "hit": false,
      "t": 219309.76000000536,
      "d": 85.22400000001653,
      "v": 80
    },
    {
      "midi": 62,
      "hit": false,
      "t": 219309.76000000536,
      "d": 94.69333333335817,
      "v": 100
    },
    {
      "midi": 74,
      "hit": false,
      "t": 219309.76000000536,
      "d": 94.69333333335817,
      "v": 95
    },
    {
      "midi": 76,
      "hit": false,
      "t": 219309.76000000536,
      "d": 113.63200000004144,
      "v": 127
    },
    {
      "midi": 72,
      "hit": false,
      "t": 219309.76000000536,
      "d": 113.63200000004144,
      "v": 127
    },
    {
      "midi": 26,
      "hit": false,
      "t": 219309.76000000536,
      "d": 208.32533333342872,
      "v": 127
    },
    {
      "midi": 50,
      "hit": false,
      "t": 219319.2293333387,
      "d": 75.7546666666749,
      "v": 95
    },
    {
      "midi": 57,
      "hit": false,
      "t": 219319.2293333387,
      "d": 85.22400000001653,
      "v": 95
    },
    {
      "midi": 65,
      "hit": false,
      "t": 219319.2293333387,
      "d": 85.22400000001653,
      "v": 100
    },
    {
      "midi": 45,
      "hit": false,
      "t": 219328.69866667205,
      "d": 66.28533333333326,
      "v": 95
    },
    {
      "midi": 46,
      "hit": false,
      "t": 219328.69866667205,
      "d": 94.69333333335817,
      "v": 92
    },
    {
      "midi": 62,
      "hit": false,
      "t": 219413.92266667206,
      "d": 94.69333333338727,
      "v": 90
    },
    {
      "midi": 50,
      "hit": false,
      "t": 219423.3920000054,
      "d": 47.346666666679084,
      "v": 115
    },
    {
      "midi": 63,
      "hit": false,
      "t": 219423.3920000054,
      "d": 94.69333333338727,
      "v": 80
    },
    {
      "midi": 45,
      "hit": false,
      "t": 219432.86133333875,
      "d": 37.87733333333745,
      "v": 90
    },
    {
      "midi": 57,
      "hit": false,
      "t": 219432.86133333875,
      "d": 47.346666666679084,
      "v": 115
    },
    {
      "midi": 65,
      "hit": false,
      "t": 219432.86133333875,
      "d": 47.346666666679084,
      "v": 115
    },
    {
      "midi": 74,
      "hit": false,
      "t": 219442.3306666721,
      "d": 47.346666666679084,
      "v": 115
    },
    {
      "midi": 62,
      "hit": false,
      "t": 219537.02400000548,
      "d": 85.22400000001653,
      "v": 90
    },
    {
      "midi": 26,
      "hit": false,
      "t": 219537.02400000548,
      "d": 94.69333333335817,
      "v": 127
    },
    {
      "midi": 15,
      "hit": false,
      "t": 219537.02400000548,
      "d": 94.69333333335817,
      "v": 100
    },
    {
      "midi": 13,
      "hit": false,
      "t": 219537.02400000548,
      "d": 94.69333333335817,
      "v": 100
    },
    {
      "midi": 10,
      "hit": false,
      "t": 219537.02400000548,
      "d": 94.69333333335817,
      "v": 127
    },
    {
      "midi": 127,
      "hit": false,
      "t": 219537.02400000548,
      "d": 94.69333333335817,
      "v": 60
    },
    {
      "midi": 108,
      "hit": false,
      "t": 219537.02400000548,
      "d": 94.69333333335817,
      "v": 80
    },
    {
      "midi": 105,
      "hit": false,
      "t": 219537.02400000548,
      "d": 94.69333333335817,
      "v": 100
    },
    {
      "midi": 42,
      "hit": false,
      "t": 219537.02400000548,
      "d": 94.69333333335817,
      "v": 92
    },
    {
      "midi": 64,
      "hit": false,
      "t": 219537.02400000548,
      "d": 94.69333333335817,
      "v": 70
    },
    {
      "midi": 72,
      "hit": false,
      "t": 219537.02400000548,
      "d": 208.3253333333996,
      "v": 127
    },
    {
      "midi": 69,
      "hit": false,
      "t": 219537.02400000548,
      "d": 208.3253333333996,
      "v": 127
    },
    {
      "midi": 50,
      "hit": false,
      "t": 219546.49333333882,
      "d": 75.7546666666749,
      "v": 115
    },
    {
      "midi": 57,
      "hit": false,
      "t": 219546.49333333882,
      "d": 85.22400000001653,
      "v": 115
    },
    {
      "midi": 65,
      "hit": false,
      "t": 219546.49333333882,
      "d": 94.69333333335817,
      "v": 90
    },
    {
      "midi": 45,
      "hit": false,
      "t": 219555.96266667216,
      "d": 66.28533333333326,
      "v": 115
    },
    {
      "midi": 62,
      "hit": false,
      "t": 219641.18666667218,
      "d": 94.69333333335817,
      "v": 90
    },
    {
      "midi": 65,
      "hit": false,
      "t": 219650.65600000552,
      "d": 85.22400000001653,
      "v": 80
    },
    {
      "midi": 26,
      "hit": false,
      "t": 219650.65600000552,
      "d": 94.69333333335817,
      "v": 127
    },
    {
      "midi": 57,
      "hit": false,
      "t": 219650.65600000552,
      "d": 94.69333333335817,
      "v": 90
    },
    {
      "midi": 50,
      "hit": false,
      "t": 219650.65600000552,
      "d": 94.69333333335817,
      "v": 90
    },
    {
      "midi": 45,
      "hit": false,
      "t": 219660.12533333886,
      "d": 94.69333333335817,
      "v": 90
    },
    {
      "midi": 42,
      "hit": false,
      "t": 219660.12533333886,
      "d": 94.69333333335817,
      "v": 78
    },
    {
      "midi": 45,
      "hit": false,
      "t": 219754.81866667222,
      "d": 37.87733333336655,
      "v": 100
    },
    {
      "midi": 50,
      "hit": false,
      "t": 219754.81866667222,
      "d": 37.87733333336655,
      "v": 100
    },
    {
      "midi": 57,
      "hit": false,
      "t": 219764.28800000556,
      "d": 37.87733333336655,
      "v": 100
    },
    {
      "midi": 62,
      "hit": false,
      "t": 219764.28800000556,
      "d": 37.87733333336655,
      "v": 100
    },
    {
      "midi": 69,
      "hit": false,
      "t": 219764.28800000556,
      "d": 85.22400000004563,
      "v": 80
    },
    {
      "midi": 26,
      "hit": false,
      "t": 219764.28800000556,
      "d": 94.69333333338727,
      "v": 127
    },
    {
      "midi": 15,
      "hit": false,
      "t": 219764.28800000556,
      "d": 94.69333333338727,
      "v": 100
    },
    {
      "midi": 13,
      "hit": false,
      "t": 219764.28800000556,
      "d": 94.69333333338727,
      "v": 100
    },
    {
      "midi": 10,
      "hit": false,
      "t": 219764.28800000556,
      "d": 94.69333333338727,
      "v": 127
    },
    {
      "midi": 71,
      "hit": false,
      "t": 219764.28800000556,
      "d": 208.32533333342872,
      "v": 127
    },
    {
      "midi": 65,
      "hit": false,
      "t": 219773.7573333389,
      "d": 37.87733333336655,
      "v": 100
    },
    {
      "midi": 46,
      "hit": false,
      "t": 219783.22666667224,
      "d": 94.69333333338727,
      "v": 92
    },
    {
      "midi": 65,
      "hit": false,
      "t": 219868.4506666723,
      "d": 37.87733333333745,
      "v": 100
    },
    {
      "midi": 62,
      "hit": false,
      "t": 219868.4506666723,
      "d": 37.87733333333745,
      "v": 100
    },
    {
      "midi": 57,
      "hit": false,
      "t": 219877.92000000563,
      "d": 37.87733333333745,
      "v": 100
    },
    {
      "midi": 50,
      "hit": false,
      "t": 219877.92000000563,
      "d": 37.87733333333745,
      "v": 100
    },
    {
      "midi": 74,
      "hit": false,
      "t": 219877.92000000563,
      "d": 85.22400000001653,
      "v": 80
    },
    {
      "midi": 45,
      "hit": false,
      "t": 219887.38933333897,
      "d": 37.87733333333745,
      "v": 100
    },
    {
      "midi": 71,
      "hit": false,
      "t": 219991.55200000567,
      "d": 85.22400000001653,
      "v": 80
    },
    {
      "midi": 31,
      "hit": false,
      "t": 219991.55200000567,
      "d": 94.69333333335817,
      "v": 127
    },
    {
      "midi": 15,
      "hit": false,
      "t": 219991.55200000567,
      "d": 94.69333333335817,
      "v": 100
    },
    {
      "midi": 13,
      "hit": false,
      "t": 219991.55200000567,
      "d": 94.69333333335817,
      "v": 100
    },
    {
      "midi": 10,
      "hit": false,
      "t": 219991.55200000567,
      "d": 94.69333333335817,
      "v": 127
    },
    {
      "midi": 42,
      "hit": false,
      "t": 219991.55200000567,
      "d": 94.69333333335817,
      "v": 92
    },
    {
      "midi": 67,
      "hit": false,
      "t": 219991.55200000567,
      "d": 94.69333333335817,
      "v": 115
    },
    {
      "midi": 50,
      "hit": false,
      "t": 220001.021333339,
      "d": 94.69333333335817,
      "v": 115
    },
    {
      "midi": 62,
      "hit": false,
      "t": 220001.021333339,
      "d": 94.69333333335817,
      "v": 70
    },
    {
      "midi": 47,
      "hit": false,
      "t": 220010.49066667235,
      "d": 75.7546666666749,
      "v": 115
    },
    {
      "midi": 59,
      "hit": false,
      "t": 220010.49066667235,
      "d": 94.69333333335817,
      "v": 70
    },
    {
      "midi": 43,
      "hit": false,
      "t": 220010.49066667235,
      "d": 416.65066666694474,
      "v": 115
    },
    {
      "midi": 49,
      "hit": false,
      "t": 220086.24533333903,
      "d": 18.938666666683275,
      "v": 64
    },
    {
      "midi": 50,
      "hit": false,
      "t": 220095.71466667237,
      "d": 18.938666666683275,
      "v": 64
    },
    {
      "midi": 74,
      "hit": false,
      "t": 220105.1840000057,
      "d": 85.22400000004563,
      "v": 80
    },
    {
      "midi": 31,
      "hit": false,
      "t": 220105.1840000057,
      "d": 94.69333333338727,
      "v": 127
    },
    {
      "midi": 59,
      "hit": false,
      "t": 220105.1840000057,
      "d": 94.69333333338727,
      "v": 70
    },
    {
      "midi": 51,
      "hit": false,
      "t": 220114.65333333905,
      "d": 18.938666666683275,
      "v": 64
    },
    {
      "midi": 42,
      "hit": false,
      "t": 220114.65333333905,
      "d": 94.69333333338727,
      "v": 78
    },
    {
      "midi": 62,
      "hit": false,
      "t": 220114.65333333905,
      "d": 94.69333333338727,
      "v": 70
    },
    {
      "midi": 52,
      "hit": false,
      "t": 220124.1226666724,
      "d": 18.938666666683275,
      "v": 64
    },
    {
      "midi": 67,
      "hit": false,
      "t": 220124.1226666724,
      "d": 94.69333333338727,
      "v": 70
    },
    {
      "midi": 53,
      "hit": false,
      "t": 220143.06133333908,
      "d": 18.93866666665417,
      "v": 64
    },
    {
      "midi": 54,
      "hit": false,
      "t": 220162.00000000573,
      "d": 18.938666666683275,
      "v": 64
    },
    {
      "midi": 55,
      "hit": false,
      "t": 220171.46933333908,
      "d": 18.938666666683275,
      "v": 64
    },
    {
      "midi": 56,
      "hit": false,
      "t": 220190.40800000576,
      "d": 18.938666666683275,
      "v": 64
    },
    {
      "midi": 57,
      "hit": false,
      "t": 220199.8773333391,
      "d": 18.938666666683275,
      "v": 64
    },
    {
      "midi": 58,
      "hit": false,
      "t": 220218.81600000578,
      "d": 18.938666666683275,
      "v": 64
    },
    {
      "midi": 79,
      "hit": false,
      "t": 220218.81600000578,
      "d": 85.22400000007474,
      "v": 80
    },
    {
      "midi": 31,
      "hit": false,
      "t": 220218.81600000578,
      "d": 94.69333333341638,
      "v": 127
    },
    {
      "midi": 59,
      "hit": false,
      "t": 220228.28533333912,
      "d": 18.938666666683275,
      "v": 64
    },
    {
      "midi": 46,
      "hit": false,
      "t": 220237.75466667247,
      "d": 94.69333333341638,
      "v": 92
    },
    {
      "midi": 60,
      "hit": false,
      "t": 220247.2240000058,
      "d": 18.938666666683275,
      "v": 64
    },
    {
      "midi": 61,
      "hit": false,
      "t": 220266.1626666725,
      "d": 18.938666666683275,
      "v": 64
    },
    {
      "midi": 62,
      "hit": false,
      "t": 220275.63200000583,
      "d": 18.938666666683275,
      "v": 64
    },
    {
      "midi": 63,
      "hit": false,
      "t": 220294.57066667252,
      "d": 18.938666666683275,
      "v": 64
    },
    {
      "midi": 64,
      "hit": false,
      "t": 220304.04000000586,
      "d": 18.938666666683275,
      "v": 64
    },
    {
      "midi": 65,
      "hit": false,
      "t": 220322.97866667254,
      "d": 18.938666666683275,
      "v": 64
    },
    {
      "midi": 83,
      "hit": false,
      "t": 220332.44800000588,
      "d": 85.22400000007474,
      "v": 80
    },
    {
      "midi": 31,
      "hit": false,
      "t": 220332.44800000588,
      "d": 94.69333333341638,
      "v": 127
    },
    {
      "midi": 64,
      "hit": false,
      "t": 220332.44800000588,
      "d": 94.69333333341638,
      "v": 70
    },
    {
      "midi": 66,
      "hit": false,
      "t": 220341.91733333922,
      "d": 18.938666666683275,
      "v": 64
    },
    {
      "midi": 62,
      "hit": false,
      "t": 220341.91733333922,
      "d": 66.28533333339146,
      "v": 70
    },
    {
      "midi": 67,
      "hit": false,
      "t": 220351.38666667257,
      "d": 18.938666666683275,
      "v": 64
    },
    {
      "midi": 59,
      "hit": false,
      "t": 220351.38666667257,
      "d": 66.28533333339146,
      "v": 70
    },
    {
      "midi": 68,
      "hit": false,
      "t": 220370.32533333925,
      "d": 18.938666666683275,
      "v": 64
    },
    {
      "midi": 69,
      "hit": false,
      "t": 220379.7946666726,
      "d": 18.938666666683275,
      "v": 64
    },
    {
      "midi": 70,
      "hit": false,
      "t": 220398.73333333927,
      "d": 18.938666666683275,
      "v": 64
    },
    {
      "midi": 71,
      "hit": false,
      "t": 220408.20266667262,
      "d": 18.938666666683275,
      "v": 64
    },
    {
      "midi": 72,
      "hit": false,
      "t": 220427.1413333393,
      "d": 18.938666666683275,
      "v": 64
    },
    {
      "midi": 86,
      "hit": false,
      "t": 220446.08000000598,
      "d": 85.22400000001653,
      "v": 80
    },
    {
      "midi": 31,
      "hit": false,
      "t": 220446.08000000598,
      "d": 94.69333333335817,
      "v": 127
    },
    {
      "midi": 74,
      "hit": false,
      "t": 220446.08000000598,
      "d": 94.69333333335817,
      "v": 127
    },
    {
      "midi": 71,
      "hit": false,
      "t": 220446.08000000598,
      "d": 94.69333333335817,
      "v": 127
    },
    {
      "midi": 15,
      "hit": false,
      "t": 220446.08000000598,
      "d": 94.69333333335817,
      "v": 100
    },
    {
      "midi": 13,
      "hit": false,
      "t": 220446.08000000598,
      "d": 94.69333333335817,
      "v": 100
    },
    {
      "midi": 10,
      "hit": false,
      "t": 220446.08000000598,
      "d": 94.69333333335817,
      "v": 127
    },
    {
      "midi": 127,
      "hit": false,
      "t": 220446.08000000598,
      "d": 94.69333333335817,
      "v": 60
    },
    {
      "midi": 108,
      "hit": false,
      "t": 220446.08000000598,
      "d": 94.69333333335817,
      "v": 80
    },
    {
      "midi": 105,
      "hit": false,
      "t": 220446.08000000598,
      "d": 94.69333333335817,
      "v": 100
    },
    {
      "midi": 42,
      "hit": false,
      "t": 220446.08000000598,
      "d": 94.69333333335817,
      "v": 92
    },
    {
      "midi": 63,
      "hit": false,
      "t": 220446.08000000598,
      "d": 94.69333333335817,
      "v": 70
    },
    {
      "midi": 59,
      "hit": false,
      "t": 220455.54933333932,
      "d": 85.22400000001653,
      "v": 105
    },
    {
      "midi": 62,
      "hit": false,
      "t": 220455.54933333932,
      "d": 94.69333333335817,
      "v": 70
    },
    {
      "midi": 50,
      "hit": false,
      "t": 220455.54933333932,
      "d": 198.85600000005797,
      "v": 105
    },
    {
      "midi": 67,
      "hit": false,
      "t": 220465.01866667267,
      "d": 94.69333333335817,
      "v": 70
    },
    {
      "midi": 43,
      "hit": false,
      "t": 220465.01866667267,
      "d": 198.85600000005797,
      "v": 105
    },
    {
      "midi": 47,
      "hit": false,
      "t": 220465.01866667267,
      "d": 208.3253333333996,
      "v": 105
    },
    {
      "midi": 91,
      "hit": false,
      "t": 220559.71200000602,
      "d": 85.22400000001653,
      "v": 80
    },
    {
      "midi": 74,
      "hit": false,
      "t": 220559.71200000602,
      "d": 94.69333333335817,
      "v": 127
    },
    {
      "midi": 71,
      "hit": false,
      "t": 220559.71200000602,
      "d": 94.69333333335817,
      "v": 127
    },
    {
      "midi": 42,
      "hit": false,
      "t": 220569.18133333937,
      "d": 94.69333333335817,
      "v": 78
    },
    {
      "midi": 43,
      "hit": false,
      "t": 220663.87466667272,
      "d": 9.469333333341638,
      "v": 90
    },
    {
      "midi": 43,
      "hit": false,
      "t": 220673.34400000607,
      "d": 47.346666666679084,
      "v": 105
    },
    {
      "midi": 86,
      "hit": false,
      "t": 220673.34400000607,
      "d": 85.22400000001653,
      "v": 80
    },
    {
      "midi": 31,
      "hit": false,
      "t": 220673.34400000607,
      "d": 94.69333333335817,
      "v": 127
    },
    {
      "midi": 74,
      "hit": false,
      "t": 220673.34400000607,
      "d": 94.69333333335817,
      "v": 127
    },
    {
      "midi": 71,
      "hit": false,
      "t": 220673.34400000607,
      "d": 94.69333333335817,
      "v": 127
    },
    {
      "midi": 47,
      "hit": false,
      "t": 220673.34400000607,
      "d": 94.69333333335817,
      "v": 105
    },
    {
      "midi": 50,
      "hit": false,
      "t": 220682.8133333394,
      "d": 37.87733333333745,
      "v": 105
    },
    {
      "midi": 59,
      "hit": false,
      "t": 220692.28266667275,
      "d": 37.87733333333745,
      "v": 70
    },
    {
      "midi": 62,
      "hit": false,
      "t": 220692.28266667275,
      "d": 37.87733333333745,
      "v": 105
    },
    {
      "midi": 67,
      "hit": false,
      "t": 220692.28266667275,
      "d": 47.346666666679084,
      "v": 105
    },
    {
      "midi": 46,
      "hit": false,
      "t": 220692.28266667275,
      "d": 94.69333333335817,
      "v": 92
    },
    {
      "midi": 62,
      "hit": false,
      "t": 220777.50666667277,
      "d": 9.469333333341638,
      "v": 100
    },
    {
      "midi": 67,
      "hit": false,
      "t": 220777.50666667277,
      "d": 9.469333333341638,
      "v": 100
    },
    {
      "midi": 83,
      "hit": false,
      "t": 220786.9760000061,
      "d": 85.22400000004563,
      "v": 80
    },
    {
      "midi": 31,
      "hit": false,
      "t": 220786.9760000061,
      "d": 94.69333333338727,
      "v": 127
    },
    {
      "midi": 74,
      "hit": false,
      "t": 220786.9760000061,
      "d": 94.69333333338727,
      "v": 127
    },
    {
      "midi": 71,
      "hit": false,
      "t": 220786.9760000061,
      "d": 94.69333333338727,
      "v": 127
    },
    {
      "midi": 62,
      "hit": false,
      "t": 220796.44533333945,
      "d": 56.81600000002072,
      "v": 70
    },
    {
      "midi": 59,
      "hit": false,
      "t": 220796.44533333945,
      "d": 66.28533333336236,
      "v": 105
    },
    {
      "midi": 50,
      "hit": false,
      "t": 220796.44533333945,
      "d": 66.28533333336236,
      "v": 105
    },
    {
      "midi": 67,
      "hit": false,
      "t": 220805.9146666728,
      "d": 47.346666666679084,
      "v": 70
    },
    {
      "midi": 43,
      "hit": false,
      "t": 220805.9146666728,
      "d": 66.28533333336236,
      "v": 105
    },
    {
      "midi": 47,
      "hit": false,
      "t": 220805.9146666728,
      "d": 94.69333333338727,
      "v": 105
    },
    {
      "midi": 43,
      "hit": false,
      "t": 220891.13866667284,
      "d": 9.469333333341638,
      "v": 90
    },
    {
      "midi": 79,
      "hit": false,
      "t": 220900.60800000618,
      "d": 85.22400000001653,
      "v": 80
    },
    {
      "midi": 31,
      "hit": false,
      "t": 220900.60800000618,
      "d": 94.69333333335817,
      "v": 127
    },
    {
      "midi": 15,
      "hit": false,
      "t": 220900.60800000618,
      "d": 94.69333333335817,
      "v": 100
    },
    {
      "midi": 13,
      "hit": false,
      "t": 220900.60800000618,
      "d": 94.69333333335817,
      "v": 100
    },
    {
      "midi": 10,
      "hit": false,
      "t": 220900.60800000618,
      "d": 94.69333333335817,
      "v": 127
    },
    {
      "midi": 42,
      "hit": false,
      "t": 220900.60800000618,
      "d": 94.69333333335817,
      "v": 92
    },
    {
      "midi": 72,
      "hit": false,
      "t": 220900.60800000618,
      "d": 113.63200000001234,
      "v": 127
    },
    {
      "midi": 69,
      "hit": false,
      "t": 220900.60800000618,
      "d": 113.63200000001234,
      "v": 127
    },
    {
      "midi": 43,
      "hit": false,
      "t": 220900.60800000618,
      "d": 198.85600000002887,
      "v": 105
    },
    {
      "midi": 47,
      "hit": false,
      "t": 220900.60800000618,
      "d": 208.3253333333705,
      "v": 105
    },
    {
      "midi": 50,
      "hit": false,
      "t": 220910.07733333952,
      "d": 189.38666666668723,
      "v": 105
    },
    {
      "midi": 59,
      "hit": false,
      "t": 220910.07733333952,
      "d": 198.85600000002887,
      "v": 105
    },
    {
      "midi": 62,
      "hit": false,
      "t": 220919.54666667286,
      "d": 189.38666666668723,
      "v": 105
    },
    {
      "midi": 67,
      "hit": false,
      "t": 220919.54666667286,
      "d": 198.85600000002887,
      "v": 105
    },
    {
      "midi": 74,
      "hit": false,
      "t": 221014.2400000062,
      "d": 85.22400000001653,
      "v": 80
    },
    {
      "midi": 42,
      "hit": false,
      "t": 221023.70933333953,
      "d": 94.69333333335817,
      "v": 78
    },
    {
      "midi": 62,
      "hit": false,
      "t": 221118.4026666729,
      "d": 9.469333333341638,
      "v": 100
    },
    {
      "midi": 67,
      "hit": false,
      "t": 221118.4026666729,
      "d": 9.469333333341638,
      "v": 100
    },
    {
      "midi": 71,
      "hit": false,
      "t": 221127.87200000623,
      "d": 85.22400000001653,
      "v": 127
    },
    {
      "midi": 74,
      "hit": false,
      "t": 221127.87200000623,
      "d": 151.5093333333498,
      "v": 127
    },
    {
      "midi": 62,
      "hit": false,
      "t": 221127.87200000623,
      "d": 198.85600000002887,
      "v": 105
    },
    {
      "midi": 31,
      "hit": false,
      "t": 221127.87200000623,
      "d": 208.3253333333705,
      "v": 127
    },
    {
      "midi": 59,
      "hit": false,
      "t": 221137.34133333957,
      "d": 198.85600000002887,
      "v": 105
    },
    {
      "midi": 50,
      "hit": false,
      "t": 221137.34133333957,
      "d": 198.85600000002887,
      "v": 105
    },
    {
      "midi": 46,
      "hit": false,
      "t": 221146.8106666729,
      "d": 94.69333333332906,
      "v": 92
    },
    {
      "midi": 43,
      "hit": false,
      "t": 221146.8106666729,
      "d": 198.85600000002887,
      "v": 105
    },
    {
      "midi": 47,
      "hit": false,
      "t": 221146.8106666729,
      "d": 208.3253333333705,
      "v": 105
    },
    {
      "midi": 67,
      "hit": false,
      "t": 221241.50400000624,
      "d": 85.22400000001653,
      "v": 80
    },
    {
      "midi": 63,
      "hit": false,
      "t": 221241.50400000624,
      "d": 94.69333333335817,
      "v": 80
    },
    {
      "midi": 43,
      "hit": false,
      "t": 221345.66666667294,
      "d": 9.469333333341638,
      "v": 110
    },
    {
      "midi": 31,
      "hit": false,
      "t": 221355.13600000629,
      "d": 94.69333333335817,
      "v": 127
    },
    {
      "midi": 15,
      "hit": false,
      "t": 221355.13600000629,
      "d": 94.69333333335817,
      "v": 100
    },
    {
      "midi": 13,
      "hit": false,
      "t": 221355.13600000629,
      "d": 94.69333333335817,
      "v": 100
    },
    {
      "midi": 10,
      "hit": false,
      "t": 221355.13600000629,
      "d": 94.69333333335817,
      "v": 127
    },
    {
      "midi": 127,
      "hit": false,
      "t": 221355.13600000629,
      "d": 94.69333333335817,
      "v": 60
    },
    {
      "midi": 108,
      "hit": false,
      "t": 221355.13600000629,
      "d": 94.69333333335817,
      "v": 80
    },
    {
      "midi": 105,
      "hit": false,
      "t": 221355.13600000629,
      "d": 94.69333333335817,
      "v": 100
    },
    {
      "midi": 42,
      "hit": false,
      "t": 221355.13600000629,
      "d": 94.69333333335817,
      "v": 92
    },
    {
      "midi": 64,
      "hit": false,
      "t": 221355.13600000629,
      "d": 94.69333333335817,
      "v": 70
    },
    {
      "midi": 43,
      "hit": false,
      "t": 221355.13600000629,
      "d": 198.85600000002887,
      "v": 115
    },
    {
      "midi": 47,
      "hit": false,
      "t": 221355.13600000629,
      "d": 208.3253333333705,
      "v": 115
    },
    {
      "midi": 50,
      "hit": false,
      "t": 221364.60533333963,
      "d": 189.38666666668723,
      "v": 115
    },
    {
      "midi": 59,
      "hit": false,
      "t": 221364.60533333963,
      "d": 198.85600000002887,
      "v": 115
    },
    {
      "midi": 62,
      "hit": false,
      "t": 221374.07466667297,
      "d": 66.28533333333326,
      "v": 115
    },
    {
      "midi": 67,
      "hit": false,
      "t": 221468.7680000063,
      "d": 85.22400000001653,
      "v": 80
    },
    {
      "midi": 31,
      "hit": false,
      "t": 221468.7680000063,
      "d": 94.69333333335817,
      "v": 127
    },
    {
      "midi": 42,
      "hit": false,
      "t": 221478.23733333964,
      "d": 94.69333333335817,
      "v": 78
    },
    {
      "midi": 62,
      "hit": false,
      "t": 221572.930666673,
      "d": 9.469333333341638,
      "v": 100
    },
    {
      "midi": 67,
      "hit": false,
      "t": 221572.930666673,
      "d": 9.469333333341638,
      "v": 100
    },
    {
      "midi": 67,
      "hit": false,
      "t": 221582.40000000634,
      "d": 85.22400000001653,
      "v": 105
    },
    {
      "midi": 62,
      "hit": false,
      "t": 221582.40000000634,
      "d": 85.22400000001653,
      "v": 105
    },
    {
      "midi": 71,
      "hit": false,
      "t": 221582.40000000634,
      "d": 85.22400000001653,
      "v": 80
    },
    {
      "midi": 31,
      "hit": false,
      "t": 221582.40000000634,
      "d": 94.69333333335817,
      "v": 127
    },
    {
      "midi": 77,
      "hit": false,
      "t": 221582.40000000634,
      "d": 435.5893333334825,
      "v": 127
    },
    {
      "midi": 59,
      "hit": false,
      "t": 221591.86933333968,
      "d": 85.22400000001653,
      "v": 105
    },
    {
      "midi": 50,
      "hit": false,
      "t": 221591.86933333968,
      "d": 85.22400000001653,
      "v": 105
    },
    {
      "midi": 43,
      "hit": false,
      "t": 221601.33866667302,
      "d": 85.22400000001653,
      "v": 105
    },
    {
      "midi": 46,
      "hit": false,
      "t": 221601.33866667302,
      "d": 94.69333333335817,
      "v": 92
    },
    {
      "midi": 47,
      "hit": false,
      "t": 221601.33866667302,
      "d": 94.69333333335817,
      "v": 105
    },
    {
      "midi": 43,
      "hit": false,
      "t": 221686.56266667304,
      "d": 9.469333333341638,
      "v": 100
    },
    {
      "midi": 43,
      "hit": false,
      "t": 221696.03200000638,
      "d": 85.22400000001653,
      "v": 105
    },
    {
      "midi": 74,
      "hit": false,
      "t": 221696.03200000638,
      "d": 85.22400000001653,
      "v": 80
    },
    {
      "midi": 47,
      "hit": false,
      "t": 221696.03200000638,
      "d": 94.69333333335817,
      "v": 105
    },
    {
      "midi": 50,
      "hit": false,
      "t": 221705.50133333972,
      "d": 75.7546666666749,
      "v": 105
    },
    {
      "midi": 59,
      "hit": false,
      "t": 221705.50133333972,
      "d": 85.22400000001653,
      "v": 105
    },
    {
      "midi": 62,
      "hit": false,
      "t": 221714.97066667306,
      "d": 75.7546666666749,
      "v": 105
    },
    {
      "midi": 67,
      "hit": false,
      "t": 221714.97066667306,
      "d": 85.22400000001653,
      "v": 105
    },
    {
      "midi": 24,
      "hit": false,
      "t": 221809.66400000642,
      "d": 94.69333333335817,
      "v": 127
    },
    {
      "midi": 15,
      "hit": false,
      "t": 221809.66400000642,
      "d": 94.69333333335817,
      "v": 100
    },
    {
      "midi": 13,
      "hit": false,
      "t": 221809.66400000642,
      "d": 94.69333333335817,
      "v": 100
    },
    {
      "midi": 10,
      "hit": false,
      "t": 221809.66400000642,
      "d": 94.69333333335817,
      "v": 127
    },
    {
      "midi": 42,
      "hit": false,
      "t": 221809.66400000642,
      "d": 94.69333333335817,
      "v": 92
    },
    {
      "midi": 72,
      "hit": false,
      "t": 221809.66400000642,
      "d": 94.69333333335817,
      "v": 70
    },
    {
      "midi": 60,
      "hit": false,
      "t": 221809.66400000642,
      "d": 416.65066666682833,
      "v": 105
    },
    {
      "midi": 67,
      "hit": false,
      "t": 221819.13333333976,
      "d": 75.7546666666749,
      "v": 70
    },
    {
      "midi": 52,
      "hit": false,
      "t": 221819.13333333976,
      "d": 416.65066666682833,
      "v": 105
    },
    {
      "midi": 48,
      "hit": false,
      "t": 221819.13333333976,
      "d": 416.65066666682833,
      "v": 105
    },
    {
      "midi": 64,
      "hit": false,
      "t": 221828.6026666731,
      "d": 94.69333333335817,
      "v": 70
    },
    {
      "midi": 43,
      "hit": false,
      "t": 221828.6026666731,
      "d": 416.65066666682833,
      "v": 105
    },
    {
      "midi": 24,
      "hit": false,
      "t": 221923.29600000646,
      "d": 94.69333333335817,
      "v": 127
    },
    {
      "midi": 64,
      "hit": false,
      "t": 221923.29600000646,
      "d": 94.69333333335817,
      "v": 70
    },
    {
      "midi": 42,
      "hit": false,
      "t": 221932.7653333398,
      "d": 94.69333333335817,
      "v": 78
    },
    {
      "midi": 67,
      "hit": false,
      "t": 221932.7653333398,
      "d": 94.69333333335817,
      "v": 70
    },
    {
      "midi": 72,
      "hit": false,
      "t": 221942.23466667315,
      "d": 66.28533333333326,
      "v": 70
    },
    {
      "midi": 76,
      "hit": false,
      "t": 222036.9280000065,
      "d": 75.7546666666749,
      "v": 127
    },
    {
      "midi": 72,
      "hit": false,
      "t": 222036.9280000065,
      "d": 75.7546666666749,
      "v": 70
    },
    {
      "midi": 24,
      "hit": false,
      "t": 222036.9280000065,
      "d": 94.69333333335817,
      "v": 127
    },
    {
      "midi": 67,
      "hit": false,
      "t": 222046.39733333985,
      "d": 94.69333333335817,
      "v": 70
    },
    {
      "midi": 46,
      "hit": false,
      "t": 222055.8666666732,
      "d": 94.69333333335817,
      "v": 92
    },
    {
      "midi": 64,
      "hit": false,
      "t": 222055.8666666732,
      "d": 94.69333333335817,
      "v": 70
    },
    {
      "midi": 64,
      "hit": false,
      "t": 222150.56000000655,
      "d": 47.346666666679084,
      "v": 70
    },
    {
      "midi": 79,
      "hit": false,
      "t": 222150.56000000655,
      "d": 85.22400000004563,
      "v": 80
    },
    {
      "midi": 24,
      "hit": false,
      "t": 222150.56000000655,
      "d": 94.69333333338727,
      "v": 127
    },
    {
      "midi": 67,
      "hit": false,
      "t": 222160.0293333399,
      "d": 47.346666666679084,
      "v": 70
    },
    {
      "midi": 72,
      "hit": false,
      "t": 222169.49866667323,
      "d": 47.346666666679084,
      "v": 70
    },
    {
      "midi": 74,
      "hit": false,
      "t": 222264.19200000662,
      "d": 75.7546666666749,
      "v": 127
    },
    {
      "midi": 71,
      "hit": false,
      "t": 222264.19200000662,
      "d": 75.7546666666749,
      "v": 127
    },
    {
      "midi": 84,
      "hit": false,
      "t": 222264.19200000662,
      "d": 85.22400000001653,
      "v": 80
    },
    {
      "midi": 24,
      "hit": false,
      "t": 222264.19200000662,
      "d": 94.69333333335817,
      "v": 127
    },
    {
      "midi": 15,
      "hit": false,
      "t": 222264.19200000662,
      "d": 94.69333333335817,
      "v": 100
    },
    {
      "midi": 13,
      "hit": false,
      "t": 222264.19200000662,
      "d": 94.69333333335817,
      "v": 100
    },
    {
      "midi": 10,
      "hit": false,
      "t": 222264.19200000662,
      "d": 94.69333333335817,
      "v": 127
    },
    {
      "midi": 127,
      "hit": false,
      "t": 222264.19200000662,
      "d": 94.69333333335817,
      "v": 60
    },
    {
      "midi": 108,
      "hit": false,
      "t": 222264.19200000662,
      "d": 94.69333333335817,
      "v": 80
    },
    {
      "midi": 105,
      "hit": false,
      "t": 222264.19200000662,
      "d": 94.69333333335817,
      "v": 100
    },
    {
      "midi": 42,
      "hit": false,
      "t": 222264.19200000662,
      "d": 94.69333333335817,
      "v": 92
    },
    {
      "midi": 72,
      "hit": false,
      "t": 222264.19200000662,
      "d": 94.69333333335817,
      "v": 70
    },
    {
      "midi": 63,
      "hit": false,
      "t": 222264.19200000662,
      "d": 94.69333333335817,
      "v": 70
    },
    {
      "midi": 60,
      "hit": false,
      "t": 222264.19200000662,
      "d": 198.85600000005797,
      "v": 105
    },
    {
      "midi": 67,
      "hit": false,
      "t": 222273.66133333996,
      "d": 94.69333333335817,
      "v": 70
    },
    {
      "midi": 52,
      "hit": false,
      "t": 222273.66133333996,
      "d": 198.85600000005797,
      "v": 105
    },
    {
      "midi": 48,
      "hit": false,
      "t": 222273.66133333996,
      "d": 198.85600000005797,
      "v": 105
    },
    {
      "midi": 64,
      "hit": false,
      "t": 222283.1306666733,
      "d": 94.69333333335817,
      "v": 70
    },
    {
      "midi": 43,
      "hit": false,
      "t": 222283.1306666733,
      "d": 198.85600000005797,
      "v": 105
    },
    {
      "midi": 88,
      "hit": false,
      "t": 222377.82400000666,
      "d": 85.22400000001653,
      "v": 80
    },
    {
      "midi": 42,
      "hit": false,
      "t": 222387.29333334,
      "d": 94.69333333335817,
      "v": 78
    },
    {
      "midi": 43,
      "hit": false,
      "t": 222481.98666667336,
      "d": 9.469333333341638,
      "v": 100
    },
    {
      "midi": 43,
      "hit": false,
      "t": 222491.4560000067,
      "d": 85.22400000001653,
      "v": 105
    },
    {
      "midi": 48,
      "hit": false,
      "t": 222491.4560000067,
      "d": 85.22400000001653,
      "v": 105
    },
    {
      "midi": 84,
      "hit": false,
      "t": 222491.4560000067,
      "d": 85.22400000001653,
      "v": 80
    },
    {
      "midi": 24,
      "hit": false,
      "t": 222491.4560000067,
      "d": 208.3253333333996,
      "v": 127
    },
    {
      "midi": 52,
      "hit": false,
      "t": 222500.92533334004,
      "d": 85.22400000001653,
      "v": 105
    },
    {
      "midi": 60,
      "hit": false,
      "t": 222500.92533334004,
      "d": 85.22400000001653,
      "v": 105
    },
    {
      "midi": 67,
      "hit": false,
      "t": 222500.92533334004,
      "d": 94.69333333335817,
      "v": 70
    },
    {
      "midi": 64,
      "hit": false,
      "t": 222510.39466667338,
      "d": 75.7546666666749,
      "v": 105
    },
    {
      "midi": 46,
      "hit": false,
      "t": 222510.39466667338,
      "d": 94.69333333335817,
      "v": 92
    },
    {
      "midi": 72,
      "hit": false,
      "t": 222510.39466667338,
      "d": 94.69333333335817,
      "v": 70
    },
    {
      "midi": 64,
      "hit": false,
      "t": 222595.6186666734,
      "d": 9.469333333341638,
      "v": 90
    },
    {
      "midi": 60,
      "hit": false,
      "t": 222605.08800000674,
      "d": 85.22400000001653,
      "v": 105
    },
    {
      "midi": 79,
      "hit": false,
      "t": 222605.08800000674,
      "d": 85.22400000001653,
      "v": 80
    },
    {
      "midi": 72,
      "hit": false,
      "t": 222605.08800000674,
      "d": 94.69333333335817,
      "v": 70
    },
    {
      "midi": 52,
      "hit": false,
      "t": 222614.55733334008,
      "d": 85.22400000001653,
      "v": 105
    },
    {
      "midi": 48,
      "hit": false,
      "t": 222614.55733334008,
      "d": 85.22400000001653,
      "v": 105
    },
    {
      "midi": 67,
      "hit": false,
      "t": 222614.55733334008,
      "d": 94.69333333335817,
      "v": 70
    },
    {
      "midi": 64,
      "hit": false,
      "t": 222624.02666667342,
      "d": 66.28533333333326,
      "v": 70
    },
    {
      "midi": 43,
      "hit": false,
      "t": 222624.02666667342,
      "d": 85.22400000001653,
      "v": 105
    },
    {
      "midi": 43,
      "hit": false,
      "t": 222709.25066667344,
      "d": 9.469333333341638,
      "v": 100
    },
    {
      "midi": 76,
      "hit": false,
      "t": 222718.72000000678,
      "d": 85.22400000001653,
      "v": 80
    },
    {
      "midi": 24,
      "hit": false,
      "t": 222718.72000000678,
      "d": 94.69333333335817,
      "v": 127
    },
    {
      "midi": 15,
      "hit": false,
      "t": 222718.72000000678,
      "d": 94.69333333335817,
      "v": 100
    },
    {
      "midi": 13,
      "hit": false,
      "t": 222718.72000000678,
      "d": 94.69333333335817,
      "v": 100
    },
    {
      "midi": 10,
      "hit": false,
      "t": 222718.72000000678,
      "d": 94.69333333335817,
      "v": 127
    },
    {
      "midi": 42,
      "hit": false,
      "t": 222718.72000000678,
      "d": 94.69333333335817,
      "v": 92
    },
    {
      "midi": 43,
      "hit": false,
      "t": 222718.72000000678,
      "d": 198.85600000002887,
      "v": 105
    },
    {
      "midi": 48,
      "hit": false,
      "t": 222718.72000000678,
      "d": 198.85600000002887,
      "v": 105
    },
    {
      "midi": 52,
      "hit": false,
      "t": 222728.18933334012,
      "d": 198.85600000002887,
      "v": 105
    },
    {
      "midi": 60,
      "hit": false,
      "t": 222728.18933334012,
      "d": 198.85600000002887,
      "v": 105
    },
    {
      "midi": 64,
      "hit": false,
      "t": 222737.65866667347,
      "d": 198.85600000002887,
      "v": 105
    },
    {
      "midi": 72,
      "hit": false,
      "t": 222832.3520000068,
      "d": 85.22400000001653,
      "v": 80
    },
    {
      "midi": 42,
      "hit": false,
      "t": 222841.82133334014,
      "d": 94.69333333335817,
      "v": 78
    },
    {
      "midi": 64,
      "hit": false,
      "t": 222936.5146666735,
      "d": 9.469333333341638,
      "v": 110
    },
    {
      "midi": 67,
      "hit": false,
      "t": 222945.98400000684,
      "d": 85.22400000001653,
      "v": 80
    },
    {
      "midi": 60,
      "hit": false,
      "t": 222945.98400000684,
      "d": 198.85599999999977,
      "v": 105
    },
    {
      "midi": 24,
      "hit": false,
      "t": 222945.98400000684,
      "d": 208.3253333333414,
      "v": 127
    },
    {
      "midi": 74,
      "hit": false,
      "t": 222945.98400000684,
      "d": 426.12000000005355,
      "v": 127
    },
    {
      "midi": 71,
      "hit": false,
      "t": 222945.98400000684,
      "d": 426.12000000005355,
      "v": 127
    },
    {
      "midi": 52,
      "hit": false,
      "t": 222955.45333334018,
      "d": 198.85599999999977,
      "v": 105
    },
    {
      "midi": 48,
      "hit": false,
      "t": 222955.45333334018,
      "d": 198.85599999999977,
      "v": 105
    },
    {
      "midi": 46,
      "hit": false,
      "t": 222964.92266667352,
      "d": 94.69333333332906,
      "v": 92
    },
    {
      "midi": 43,
      "hit": false,
      "t": 222964.92266667352,
      "d": 198.85599999999977,
      "v": 105
    },
    {
      "midi": 64,
      "hit": false,
      "t": 223059.61600000685,
      "d": 85.22399999998743,
      "v": 80
    },
    {
      "midi": 63,
      "hit": false,
      "t": 223059.61600000685,
      "d": 94.69333333332906,
      "v": 80
    },
    {
      "midi": 43,
      "hit": false,
      "t": 223163.77866667352,
      "d": 9.469333333341638,
      "v": 110
    },
    {
      "midi": 24,
      "hit": false,
      "t": 223173.24800000686,
      "d": 94.69333333335817,
      "v": 127
    },
    {
      "midi": 15,
      "hit": false,
      "t": 223173.24800000686,
      "d": 94.69333333335817,
      "v": 100
    },
    {
      "midi": 13,
      "hit": false,
      "t": 223173.24800000686,
      "d": 94.69333333335817,
      "v": 100
    },
    {
      "midi": 10,
      "hit": false,
      "t": 223173.24800000686,
      "d": 94.69333333335817,
      "v": 127
    },
    {
      "midi": 127,
      "hit": false,
      "t": 223173.24800000686,
      "d": 94.69333333335817,
      "v": 60
    },
    {
      "midi": 108,
      "hit": false,
      "t": 223173.24800000686,
      "d": 94.69333333335817,
      "v": 80
    },
    {
      "midi": 105,
      "hit": false,
      "t": 223173.24800000686,
      "d": 94.69333333335817,
      "v": 100
    },
    {
      "midi": 42,
      "hit": false,
      "t": 223173.24800000686,
      "d": 94.69333333335817,
      "v": 92
    },
    {
      "midi": 43,
      "hit": false,
      "t": 223173.24800000686,
      "d": 198.85600000002887,
      "v": 105
    },
    {
      "midi": 48,
      "hit": false,
      "t": 223173.24800000686,
      "d": 198.85600000002887,
      "v": 105
    },
    {
      "midi": 60,
      "hit": false,
      "t": 223182.7173333402,
      "d": 75.7546666666749,
      "v": 105
    },
    {
      "midi": 52,
      "hit": false,
      "t": 223182.7173333402,
      "d": 198.85600000002887,
      "v": 105
    },
    {
      "midi": 64,
      "hit": false,
      "t": 223192.18666667354,
      "d": 75.7546666666749,
      "v": 105
    },
    {
      "midi": 64,
      "hit": false,
      "t": 223286.88000000687,
      "d": 85.22400000001653,
      "v": 80
    },
    {
      "midi": 23,
      "hit": false,
      "t": 223286.88000000687,
      "d": 94.69333333335817,
      "v": 127
    },
    {
      "midi": 42,
      "hit": false,
      "t": 223296.34933334021,
      "d": 94.69333333335817,
      "v": 78
    },
    {
      "midi": 64,
      "hit": false,
      "t": 223391.04266667357,
      "d": 9.469333333341638,
      "v": 100
    },
    {
      "midi": 64,
      "hit": false,
      "t": 223400.51200000691,
      "d": 85.22400000001653,
      "v": 105
    },
    {
      "midi": 60,
      "hit": false,
      "t": 223400.51200000691,
      "d": 85.22400000001653,
      "v": 105
    },
    {
      "midi": 67,
      "hit": false,
      "t": 223400.51200000691,
      "d": 85.22400000001653,
      "v": 80
    },
    {
      "midi": 19,
      "hit": false,
      "t": 223400.51200000691,
      "d": 94.69333333335817,
      "v": 127
    },
    {
      "midi": 15,
      "hit": false,
      "t": 223400.51200000691,
      "d": 94.69333333335817,
      "v": 100
    },
    {
      "midi": 13,
      "hit": false,
      "t": 223400.51200000691,
      "d": 94.69333333335817,
      "v": 100
    },
    {
      "midi": 10,
      "hit": false,
      "t": 223400.51200000691,
      "d": 94.69333333335817,
      "v": 127
    },
    {
      "midi": 69,
      "hit": false,
      "t": 223400.51200000691,
      "d": 151.5093333333789,
      "v": 127
    },
    {
      "midi": 52,
      "hit": false,
      "t": 223409.98133334026,
      "d": 85.22400000001653,
      "v": 105
    },
    {
      "midi": 48,
      "hit": false,
      "t": 223409.98133334026,
      "d": 85.22400000001653,
      "v": 105
    },
    {
      "midi": 43,
      "hit": false,
      "t": 223419.4506666736,
      "d": 85.22400000001653,
      "v": 105
    },
    {
      "midi": 46,
      "hit": false,
      "t": 223419.4506666736,
      "d": 94.69333333335817,
      "v": 92
    },
    {
      "midi": 43,
      "hit": false,
      "t": 223504.6746666736,
      "d": 9.469333333341638,
      "v": 100
    },
    {
      "midi": 72,
      "hit": false,
      "t": 223514.14400000696,
      "d": 37.87733333333745,
      "v": 80
    },
    {
      "midi": 43,
      "hit": false,
      "t": 223514.14400000696,
      "d": 85.22400000001653,
      "v": 105
    },
    {
      "midi": 48,
      "hit": false,
      "t": 223514.14400000696,
      "d": 85.22400000001653,
      "v": 105
    },
    {
      "midi": 52,
      "hit": false,
      "t": 223523.6133333403,
      "d": 85.22400000001653,
      "v": 105
    },
    {
      "midi": 60,
      "hit": false,
      "t": 223523.6133333403,
      "d": 85.22400000001653,
      "v": 105
    },
    {
      "midi": 64,
      "hit": false,
      "t": 223533.08266667364,
      "d": 85.22400000001653,
      "v": 105
    },
    {
      "midi": 51,
      "hit": false,
      "t": 223627.776000007,
      "d": 18.938666666683275,
      "v": 64
    },
    {
      "midi": 29,
      "hit": false,
      "t": 223627.776000007,
      "d": 94.69333333332906,
      "v": 127
    },
    {
      "midi": 15,
      "hit": false,
      "t": 223627.776000007,
      "d": 94.69333333332906,
      "v": 100
    },
    {
      "midi": 13,
      "hit": false,
      "t": 223627.776000007,
      "d": 94.69333333332906,
      "v": 100
    },
    {
      "midi": 10,
      "hit": false,
      "t": 223627.776000007,
      "d": 94.69333333332906,
      "v": 127
    },
    {
      "midi": 42,
      "hit": false,
      "t": 223627.776000007,
      "d": 94.69333333332906,
      "v": 92
    },
    {
      "midi": 72,
      "hit": false,
      "t": 223627.776000007,
      "d": 94.69333333332906,
      "v": 70
    },
    {
      "midi": 126,
      "hit": false,
      "t": 223627.776000007,
      "d": 94.69333333332906,
      "v": 70
    },
    {
      "midi": 69,
      "hit": false,
      "t": 223637.24533334034,
      "d": 75.75466666664579,
      "v": 70
    },
    {
      "midi": 52,
      "hit": false,
      "t": 223646.71466667368,
      "d": 18.93866666665417,
      "v": 64
    },
    {
      "midi": 65,
      "hit": false,
      "t": 223646.71466667368,
      "d": 94.69333333332906,
      "v": 70
    },
    {
      "midi": 48,
      "hit": false,
      "t": 223646.71466667368,
      "d": 416.6506666667119,
      "v": 105
    },
    {
      "midi": 41,
      "hit": false,
      "t": 223646.71466667368,
      "d": 416.6506666667119,
      "v": 105
    },
    {
      "midi": 53,
      "hit": false,
      "t": 223665.65333334033,
      "d": 18.93866666665417,
      "v": 64
    },
    {
      "midi": 54,
      "hit": false,
      "t": 223684.592000007,
      "d": 18.93866666665417,
      "v": 64
    },
    {
      "midi": 55,
      "hit": false,
      "t": 223703.53066667364,
      "d": 18.938666666683275,
      "v": 64
    },
    {
      "midi": 56,
      "hit": false,
      "t": 223722.46933334033,
      "d": 18.938666666683275,
      "v": 64
    },
    {
      "midi": 57,
      "hit": false,
      "t": 223741.408000007,
      "d": 18.938666666683275,
      "v": 64
    },
    {
      "midi": 74,
      "hit": false,
      "t": 223741.408000007,
      "d": 85.22399999998743,
      "v": 80
    },
    {
      "midi": 29,
      "hit": false,
      "t": 223741.408000007,
      "d": 94.69333333332906,
      "v": 127
    },
    {
      "midi": 65,
      "hit": false,
      "t": 223741.408000007,
      "d": 94.69333333332906,
      "v": 70
    },
    {
      "midi": 42,
      "hit": false,
      "t": 223750.87733334035,
      "d": 94.69333333332906,
      "v": 78
    },
    {
      "midi": 69,
      "hit": false,
      "t": 223750.87733334035,
      "d": 94.69333333332906,
      "v": 70
    },
    {
      "midi": 58,
      "hit": false,
      "t": 223760.3466666737,
      "d": 18.93866666665417,
      "v": 64
    },
    {
      "midi": 72,
      "hit": false,
      "t": 223760.3466666737,
      "d": 94.69333333332906,
      "v": 70
    },
    {
      "midi": 59,
      "hit": false,
      "t": 223779.28533334035,
      "d": 18.93866666665417,
      "v": 64
    },
    {
      "midi": 60,
      "hit": false,
      "t": 223798.224000007,
      "d": 18.93866666665417,
      "v": 64
    },
    {
      "midi": 61,
      "hit": false,
      "t": 223817.16266667366,
      "d": 18.938666666683275,
      "v": 64
    },
    {
      "midi": 62,
      "hit": false,
      "t": 223836.10133334034,
      "d": 18.938666666683275,
      "v": 64
    },
    {
      "midi": 63,
      "hit": false,
      "t": 223855.04000000702,
      "d": 18.938666666683275,
      "v": 64
    },
    {
      "midi": 72,
      "hit": false,
      "t": 223855.04000000702,
      "d": 47.346666666679084,
      "v": 70
    },
    {
      "midi": 77,
      "hit": false,
      "t": 223855.04000000702,
      "d": 85.22400000004563,
      "v": 80
    },
    {
      "midi": 29,
      "hit": false,
      "t": 223855.04000000702,
      "d": 94.69333333338727,
      "v": 127
    },
    {
      "midi": 69,
      "hit": false,
      "t": 223864.50933334036,
      "d": 47.346666666679084,
      "v": 70
    },
    {
      "midi": 64,
      "hit": false,
      "t": 223873.9786666737,
      "d": 18.93866666665417,
      "v": 64
    },
    {
      "midi": 46,
      "hit": false,
      "t": 223873.9786666737,
      "d": 94.69333333335817,
      "v": 92
    },
    {
      "midi": 65,
      "hit": false,
      "t": 223892.91733334036,
      "d": 18.938666666683275,
      "v": 64
    },
    {
      "midi": 66,
      "hit": false,
      "t": 223911.85600000704,
      "d": 18.938666666683275,
      "v": 64
    },
    {
      "midi": 67,
      "hit": false,
      "t": 223930.79466667373,
      "d": 18.938666666683275,
      "v": 64
    },
    {
      "midi": 68,
      "hit": false,
      "t": 223949.7333333404,
      "d": 18.93866666665417,
      "v": 64
    },
    {
      "midi": 65,
      "hit": false,
      "t": 223968.67200000706,
      "d": 75.75466666664579,
      "v": 70
    },
    {
      "midi": 81,
      "hit": false,
      "t": 223968.67200000706,
      "d": 85.22399999998743,
      "v": 80
    },
    {
      "midi": 29,
      "hit": false,
      "t": 223968.67200000706,
      "d": 94.69333333332906,
      "v": 127
    },
    {
      "midi": 64,
      "hit": false,
      "t": 223968.67200000706,
      "d": 94.69333333332906,
      "v": 70
    },
    {
      "midi": 69,
      "hit": false,
      "t": 223978.1413333404,
      "d": 9.469333333341638,
      "v": 70
    },
    {
      "midi": 70,
      "hit": false,
      "t": 223987.61066667375,
      "d": 18.93866666665417,
      "v": 64
    },
    {
      "midi": 71,
      "hit": false,
      "t": 224006.5493333404,
      "d": 18.93866666665417,
      "v": 64
    },
    {
      "midi": 72,
      "hit": false,
      "t": 224025.48800000706,
      "d": 18.93866666665417,
      "v": 64
    },
    {
      "midi": 73,
      "hit": false,
      "t": 224044.4266666737,
      "d": 18.938666666683275,
      "v": 64
    },
    {
      "midi": 74,
      "hit": false,
      "t": 224063.3653333404,
      "d": 18.938666666683275,
      "v": 64
    },
    {
      "midi": 86,
      "hit": false,
      "t": 224082.30400000708,
      "d": 85.22400000001653,
      "v": 80
    },
    {
      "midi": 29,
      "hit": false,
      "t": 224082.30400000708,
      "d": 94.69333333335817,
      "v": 127
    },
    {
      "midi": 15,
      "hit": false,
      "t": 224082.30400000708,
      "d": 94.69333333335817,
      "v": 100
    },
    {
      "midi": 13,
      "hit": false,
      "t": 224082.30400000708,
      "d": 94.69333333335817,
      "v": 100
    },
    {
      "midi": 10,
      "hit": false,
      "t": 224082.30400000708,
      "d": 94.69333333335817,
      "v": 127
    },
    {
      "midi": 127,
      "hit": false,
      "t": 224082.30400000708,
      "d": 94.69333333335817,
      "v": 60
    },
    {
      "midi": 108,
      "hit": false,
      "t": 224082.30400000708,
      "d": 94.69333333335817,
      "v": 80
    },
    {
      "midi": 105,
      "hit": false,
      "t": 224082.30400000708,
      "d": 94.69333333335817,
      "v": 100
    },
    {
      "midi": 42,
      "hit": false,
      "t": 224082.30400000708,
      "d": 94.69333333335817,
      "v": 92
    },
    {
      "midi": 72,
      "hit": false,
      "t": 224082.30400000708,
      "d": 94.69333333335817,
      "v": 70
    },
    {
      "midi": 63,
      "hit": false,
      "t": 224082.30400000708,
      "d": 94.69333333335817,
      "v": 70
    },
    {
      "midi": 60,
      "hit": false,
      "t": 224082.30400000708,
      "d": 198.85600000005797,
      "v": 105
    },
    {
      "midi": 69,
      "hit": false,
      "t": 224091.77333334042,
      "d": 94.69333333335817,
      "v": 70
    },
    {
      "midi": 57,
      "hit": false,
      "t": 224091.77333334042,
      "d": 198.85600000005797,
      "v": 105
    },
    {
      "midi": 52,
      "hit": false,
      "t": 224091.77333334042,
      "d": 198.85600000005797,
      "v": 105
    },
    {
      "midi": 65,
      "hit": false,
      "t": 224101.24266667376,
      "d": 94.69333333335817,
      "v": 70
    },
    {
      "midi": 48,
      "hit": false,
      "t": 224101.24266667376,
      "d": 198.85600000005797,
      "v": 105
    },
    {
      "midi": 41,
      "hit": false,
      "t": 224101.24266667376,
      "d": 198.85600000005797,
      "v": 105
    },
    {
      "midi": 89,
      "hit": false,
      "t": 224195.93600000712,
      "d": 85.22400000001653,
      "v": 80
    },
    {
      "midi": 72,
      "hit": false,
      "t": 224195.93600000712,
      "d": 113.63200000004144,
      "v": 127
    },
    {
      "midi": 69,
      "hit": false,
      "t": 224195.93600000712,
      "d": 113.63200000004144,
      "v": 127
    },
    {
      "midi": 42,
      "hit": false,
      "t": 224205.40533334046,
      "d": 94.69333333335817,
      "v": 78
    },
    {
      "midi": 48,
      "hit": false,
      "t": 224300.09866667382,
      "d": 9.469333333341638,
      "v": 100
    },
    {
      "midi": 41,
      "hit": false,
      "t": 224300.09866667382,
      "d": 9.469333333341638,
      "v": 100
    },
    {
      "midi": 41,
      "hit": false,
      "t": 224309.56800000716,
      "d": 85.22400000001653,
      "v": 105
    },
    {
      "midi": 48,
      "hit": false,
      "t": 224309.56800000716,
      "d": 85.22400000001653,
      "v": 105
    },
    {
      "midi": 93,
      "hit": false,
      "t": 224309.56800000716,
      "d": 85.22400000001653,
      "v": 80
    },
    {
      "midi": 29,
      "hit": false,
      "t": 224309.56800000716,
      "d": 94.69333333335817,
      "v": 127
    },
    {
      "midi": 52,
      "hit": false,
      "t": 224319.0373333405,
      "d": 85.22400000001653,
      "v": 105
    },
    {
      "midi": 57,
      "hit": false,
      "t": 224319.0373333405,
      "d": 85.22400000001653,
      "v": 105
    },
    {
      "midi": 69,
      "hit": false,
      "t": 224319.0373333405,
      "d": 94.69333333335817,
      "v": 70
    },
    {
      "midi": 65,
      "hit": false,
      "t": 224328.50666667384,
      "d": 75.7546666666749,
      "v": 105
    },
    {
      "midi": 60,
      "hit": false,
      "t": 224328.50666667384,
      "d": 85.22400000001653,
      "v": 105
    },
    {
      "midi": 72,
      "hit": false,
      "t": 224328.50666667384,
      "d": 94.69333333335817,
      "v": 70
    },
    {
      "midi": 46,
      "hit": false,
      "t": 224328.50666667384,
      "d": 94.69333333335817,
      "v": 92
    },
    {
      "midi": 60,
      "hit": false,
      "t": 224413.73066667386,
      "d": 9.469333333341638,
      "v": 90
    },
    {
      "midi": 65,
      "hit": false,
      "t": 224413.73066667386,
      "d": 9.469333333341638,
      "v": 90
    },
    {
      "midi": 60,
      "hit": false,
      "t": 224423.2000000072,
      "d": 85.22400000001653,
      "v": 105
    },
    {
      "midi": 89,
      "hit": false,
      "t": 224423.2000000072,
      "d": 85.22400000001653,
      "v": 80
    },
    {
      "midi": 29,
      "hit": false,
      "t": 224423.2000000072,
      "d": 94.69333333335817,
      "v": 127
    },
    {
      "midi": 72,
      "hit": false,
      "t": 224423.2000000072,
      "d": 94.69333333335817,
      "v": 70
    },
    {
      "midi": 57,
      "hit": false,
      "t": 224432.66933334054,
      "d": 85.22400000001653,
      "v": 105
    },
    {
      "midi": 52,
      "hit": false,
      "t": 224432.66933334054,
      "d": 85.22400000001653,
      "v": 105
    },
    {
      "midi": 69,
      "hit": false,
      "t": 224432.66933334054,
      "d": 94.69333333335817,
      "v": 70
    },
    {
      "midi": 65,
      "hit": false,
      "t": 224442.13866667388,
      "d": 66.28533333333326,
      "v": 70
    },
    {
      "midi": 48,
      "hit": false,
      "t": 224442.13866667388,
      "d": 85.22400000001653,
      "v": 105
    },
    {
      "midi": 41,
      "hit": false,
      "t": 224442.13866667388,
      "d": 85.22400000001653,
      "v": 105
    },
    {
      "midi": 48,
      "hit": false,
      "t": 224527.3626666739,
      "d": 9.469333333341638,
      "v": 90
    },
    {
      "midi": 41,
      "hit": false,
      "t": 224527.3626666739,
      "d": 9.469333333341638,
      "v": 90
    },
    {
      "midi": 86,
      "hit": false,
      "t": 224536.83200000724,
      "d": 85.22400000001653,
      "v": 80
    },
    {
      "midi": 29,
      "hit": false,
      "t": 224536.83200000724,
      "d": 94.69333333335817,
      "v": 127
    },
    {
      "midi": 15,
      "hit": false,
      "t": 224536.83200000724,
      "d": 94.69333333335817,
      "v": 100
    },
    {
      "midi": 13,
      "hit": false,
      "t": 224536.83200000724,
      "d": 94.69333333335817,
      "v": 100
    },
    {
      "midi": 10,
      "hit": false,
      "t": 224536.83200000724,
      "d": 94.69333333335817,
      "v": 127
    },
    {
      "midi": 42,
      "hit": false,
      "t": 224536.83200000724,
      "d": 94.69333333335817,
      "v": 92
    },
    {
      "midi": 41,
      "hit": false,
      "t": 224536.83200000724,
      "d": 198.85600000002887,
      "v": 105
    },
    {
      "midi": 48,
      "hit": false,
      "t": 224536.83200000724,
      "d": 198.85600000002887,
      "v": 105
    },
    {
      "midi": 71,
      "hit": false,
      "t": 224536.83200000724,
      "d": 208.3253333333705,
      "v": 127
    },
    {
      "midi": 67,
      "hit": false,
      "t": 224536.83200000724,
      "d": 208.3253333333705,
      "v": 127
    },
    {
      "midi": 52,
      "hit": false,
      "t": 224546.30133334058,
      "d": 198.85600000002887,
      "v": 105
    },
    {
      "midi": 57,
      "hit": false,
      "t": 224546.30133334058,
      "d": 198.85600000002887,
      "v": 105
    },
    {
      "midi": 60,
      "hit": false,
      "t": 224555.77066667393,
      "d": 198.85600000002887,
      "v": 105
    },
    {
      "midi": 65,
      "hit": false,
      "t": 224555.77066667393,
      "d": 198.85600000002887,
      "v": 105
    },
    {
      "midi": 81,
      "hit": false,
      "t": 224650.46400000725,
      "d": 85.22400000001653,
      "v": 80
    },
    {
      "midi": 42,
      "hit": false,
      "t": 224659.9333333406,
      "d": 94.69333333335817,
      "v": 78
    },
    {
      "midi": 60,
      "hit": false,
      "t": 224754.62666667395,
      "d": 9.469333333341638,
      "v": 100
    },
    {
      "midi": 65,
      "hit": false,
      "t": 224754.62666667395,
      "d": 9.469333333341638,
      "v": 100
    },
    {
      "midi": 77,
      "hit": false,
      "t": 224764.0960000073,
      "d": 85.22400000001653,
      "v": 80
    },
    {
      "midi": 72,
      "hit": false,
      "t": 224764.0960000073,
      "d": 151.5093333333498,
      "v": 127
    },
    {
      "midi": 69,
      "hit": false,
      "t": 224764.0960000073,
      "d": 151.5093333333498,
      "v": 127
    },
    {
      "midi": 65,
      "hit": false,
      "t": 224764.0960000073,
      "d": 198.85599999999977,
      "v": 105
    },
    {
      "midi": 60,
      "hit": false,
      "t": 224764.0960000073,
      "d": 198.85599999999977,
      "v": 105
    },
    {
      "midi": 29,
      "hit": false,
      "t": 224764.0960000073,
      "d": 208.3253333333414,
      "v": 127
    },
    {
      "midi": 57,
      "hit": false,
      "t": 224773.56533334064,
      "d": 198.85599999999977,
      "v": 105
    },
    {
      "midi": 52,
      "hit": false,
      "t": 224773.56533334064,
      "d": 198.85599999999977,
      "v": 105
    },
    {
      "midi": 46,
      "hit": false,
      "t": 224783.03466667398,
      "d": 94.69333333332906,
      "v": 92
    },
    {
      "midi": 48,
      "hit": false,
      "t": 224783.03466667398,
      "d": 198.85599999999977,
      "v": 105
    },
    {
      "midi": 41,
      "hit": false,
      "t": 224783.03466667398,
      "d": 198.85599999999977,
      "v": 105
    },
    {
      "midi": 74,
      "hit": false,
      "t": 224877.7280000073,
      "d": 85.22399999998743,
      "v": 80
    },
    {
      "midi": 63,
      "hit": false,
      "t": 224877.7280000073,
      "d": 94.69333333332906,
      "v": 80
    },
    {
      "midi": 48,
      "hit": false,
      "t": 224981.89066667398,
      "d": 9.469333333341638,
      "v": 110
    },
    {
      "midi": 41,
      "hit": false,
      "t": 224981.89066667398,
      "d": 9.469333333341638,
      "v": 110
    },
    {
      "midi": 69,
      "hit": false,
      "t": 224991.36000000732,
      "d": 85.22400000001653,
      "v": 80
    },
    {
      "midi": 29,
      "hit": false,
      "t": 224991.36000000732,
      "d": 94.69333333335817,
      "v": 127
    },
    {
      "midi": 15,
      "hit": false,
      "t": 224991.36000000732,
      "d": 94.69333333335817,
      "v": 100
    },
    {
      "midi": 13,
      "hit": false,
      "t": 224991.36000000732,
      "d": 94.69333333335817,
      "v": 100
    },
    {
      "midi": 10,
      "hit": false,
      "t": 224991.36000000732,
      "d": 94.69333333335817,
      "v": 127
    },
    {
      "midi": 127,
      "hit": false,
      "t": 224991.36000000732,
      "d": 94.69333333335817,
      "v": 60
    },
    {
      "midi": 108,
      "hit": false,
      "t": 224991.36000000732,
      "d": 94.69333333335817,
      "v": 80
    },
    {
      "midi": 105,
      "hit": false,
      "t": 224991.36000000732,
      "d": 94.69333333335817,
      "v": 100
    },
    {
      "midi": 42,
      "hit": false,
      "t": 224991.36000000732,
      "d": 94.69333333335817,
      "v": 92
    },
    {
      "midi": 64,
      "hit": false,
      "t": 224991.36000000732,
      "d": 94.69333333335817,
      "v": 70
    },
    {
      "midi": 41,
      "hit": false,
      "t": 224991.36000000732,
      "d": 416.6506666667119,
      "v": 105
    },
    {
      "midi": 48,
      "hit": false,
      "t": 224991.36000000732,
      "d": 416.6506666667119,
      "v": 105
    },
    {
      "midi": 52,
      "hit": false,
      "t": 225000.82933334066,
      "d": 416.6506666667119,
      "v": 105
    },
    {
      "midi": 57,
      "hit": false,
      "t": 225000.82933334066,
      "d": 416.6506666667119,
      "v": 105
    },
    {
      "midi": 60,
      "hit": false,
      "t": 225010.298666674,
      "d": 416.6506666667119,
      "v": 105
    },
    {
      "midi": 65,
      "hit": false,
      "t": 225104.99200000733,
      "d": 85.22400000001653,
      "v": 80
    },
    {
      "midi": 29,
      "hit": false,
      "t": 225104.99200000733,
      "d": 94.69333333335817,
      "v": 127
    },
    {
      "midi": 42,
      "hit": false,
      "t": 225114.46133334067,
      "d": 94.69333333335817,
      "v": 78
    },
    {
      "midi": 69,
      "hit": false,
      "t": 225218.62400000737,
      "d": 85.22399999998743,
      "v": 127
    },
    {
      "midi": 29,
      "hit": false,
      "t": 225218.62400000737,
      "d": 94.69333333332906,
      "v": 127
    },
    {
      "midi": 72,
      "hit": false,
      "t": 225218.62400000737,
      "d": 208.3253333333414,
      "v": 127
    },
    {
      "midi": 46,
      "hit": false,
      "t": 225237.56266667403,
      "d": 94.69333333332906,
      "v": 92
    },
    {
      "midi": 74,
      "hit": false,
      "t": 225332.25600000736,
      "d": 85.22400000001653,
      "v": 80
    },
    {
      "midi": 47,
      "hit": false,
      "t": 225445.8880000074,
      "d": 18.938666666683275,
      "v": 64
    },
    {
      "midi": 26,
      "hit": false,
      "t": 225445.8880000074,
      "d": 94.69333333332906,
      "v": 127
    },
    {
      "midi": 15,
      "hit": false,
      "t": 225445.8880000074,
      "d": 94.69333333332906,
      "v": 100
    },
    {
      "midi": 13,
      "hit": false,
      "t": 225445.8880000074,
      "d": 94.69333333332906,
      "v": 100
    },
    {
      "midi": 10,
      "hit": false,
      "t": 225445.8880000074,
      "d": 94.69333333332906,
      "v": 127
    },
    {
      "midi": 42,
      "hit": false,
      "t": 225445.8880000074,
      "d": 94.69333333332906,
      "v": 92
    },
    {
      "midi": 62,
      "hit": false,
      "t": 225445.8880000074,
      "d": 94.69333333332906,
      "v": 105
    },
    {
      "midi": 65,
      "hit": false,
      "t": 225455.35733334074,
      "d": 94.69333333332906,
      "v": 70
    },
    {
      "midi": 45,
      "hit": false,
      "t": 225455.35733334074,
      "d": 416.6506666666537,
      "v": 105
    },
    {
      "midi": 48,
      "hit": false,
      "t": 225464.82666667408,
      "d": 18.93866666665417,
      "v": 64
    },
    {
      "midi": 69,
      "hit": false,
      "t": 225464.82666667408,
      "d": 66.28533333330415,
      "v": 70
    },
    {
      "midi": 38,
      "hit": false,
      "t": 225464.82666667408,
      "d": 416.6506666666537,
      "v": 105
    },
    {
      "midi": 49,
      "hit": false,
      "t": 225483.76533334074,
      "d": 18.93866666665417,
      "v": 64
    },
    {
      "midi": 50,
      "hit": false,
      "t": 225502.7040000074,
      "d": 18.93866666665417,
      "v": 64
    },
    {
      "midi": 51,
      "hit": false,
      "t": 225521.64266667404,
      "d": 18.938666666683275,
      "v": 64
    },
    {
      "midi": 52,
      "hit": false,
      "t": 225540.58133334073,
      "d": 18.938666666683275,
      "v": 64
    },
    {
      "midi": 53,
      "hit": false,
      "t": 225559.5200000074,
      "d": 18.938666666683275,
      "v": 64
    },
    {
      "midi": 74,
      "hit": false,
      "t": 225559.5200000074,
      "d": 85.22399999998743,
      "v": 80
    },
    {
      "midi": 26,
      "hit": false,
      "t": 225559.5200000074,
      "d": 94.69333333332906,
      "v": 127
    },
    {
      "midi": 69,
      "hit": false,
      "t": 225559.5200000074,
      "d": 94.69333333332906,
      "v": 70
    },
    {
      "midi": 42,
      "hit": false,
      "t": 225568.98933334075,
      "d": 94.69333333332906,
      "v": 78
    },
    {
      "midi": 65,
      "hit": false,
      "t": 225568.98933334075,
      "d": 94.69333333332906,
      "v": 70
    },
    {
      "midi": 54,
      "hit": false,
      "t": 225578.4586666741,
      "d": 18.93866666665417,
      "v": 64
    },
    {
      "midi": 62,
      "hit": false,
      "t": 225578.4586666741,
      "d": 94.69333333332906,
      "v": 70
    },
    {
      "midi": 55,
      "hit": false,
      "t": 225597.39733334075,
      "d": 18.93866666665417,
      "v": 64
    },
    {
      "midi": 56,
      "hit": false,
      "t": 225616.3360000074,
      "d": 18.93866666665417,
      "v": 64
    },
    {
      "midi": 57,
      "hit": false,
      "t": 225635.27466667406,
      "d": 18.938666666683275,
      "v": 64
    },
    {
      "midi": 58,
      "hit": false,
      "t": 225654.21333334074,
      "d": 18.938666666683275,
      "v": 64
    },
    {
      "midi": 62,
      "hit": false,
      "t": 225673.15200000742,
      "d": 9.469333333341638,
      "v": 60
    },
    {
      "midi": 65,
      "hit": false,
      "t": 225673.15200000742,
      "d": 9.469333333341638,
      "v": 60
    },
    {
      "midi": 69,
      "hit": false,
      "t": 225673.15200000742,
      "d": 9.469333333341638,
      "v": 60
    },
    {
      "midi": 59,
      "hit": false,
      "t": 225673.15200000742,
      "d": 18.938666666683275,
      "v": 64
    },
    {
      "midi": 77,
      "hit": false,
      "t": 225673.15200000742,
      "d": 85.22399999998743,
      "v": 80
    },
    {
      "midi": 26,
      "hit": false,
      "t": 225673.15200000742,
      "d": 94.69333333332906,
      "v": 127
    },
    {
      "midi": 60,
      "hit": false,
      "t": 225692.0906666741,
      "d": 18.93866666665417,
      "v": 64
    },
    {
      "midi": 46,
      "hit": false,
      "t": 225692.0906666741,
      "d": 94.69333333329996,
      "v": 92
    },
    {
      "midi": 61,
      "hit": false,
      "t": 225711.02933334076,
      "d": 18.93866666665417,
      "v": 64
    },
    {
      "midi": 62,
      "hit": false,
      "t": 225729.96800000741,
      "d": 18.93866666665417,
      "v": 64
    },
    {
      "midi": 63,
      "hit": false,
      "t": 225748.90666667407,
      "d": 18.938666666683275,
      "v": 64
    },
    {
      "midi": 64,
      "hit": false,
      "t": 225767.84533334075,
      "d": 18.93866666665417,
      "v": 64
    },
    {
      "midi": 81,
      "hit": false,
      "t": 225786.7840000074,
      "d": 85.22399999998743,
      "v": 80
    },
    {
      "midi": 26,
      "hit": false,
      "t": 225786.7840000074,
      "d": 94.69333333332906,
      "v": 127
    },
    {
      "midi": 64,
      "hit": false,
      "t": 225786.7840000074,
      "d": 94.69333333332906,
      "v": 70
    },
    {
      "midi": 65,
      "hit": false,
      "t": 225796.25333334075,
      "d": 9.469333333341638,
      "v": 70
    },
    {
      "midi": 66,
      "hit": false,
      "t": 225805.7226666741,
      "d": 18.93866666665417,
      "v": 64
    },
    {
      "midi": 62,
      "hit": false,
      "t": 225805.7226666741,
      "d": 56.815999999962514,
      "v": 70
    },
    {
      "midi": 67,
      "hit": false,
      "t": 225824.66133334074,
      "d": 18.93866666665417,
      "v": 64
    },
    {
      "midi": 68,
      "hit": false,
      "t": 225843.6000000074,
      "d": 18.93866666665417,
      "v": 64
    },
    {
      "midi": 69,
      "hit": false,
      "t": 225862.53866667405,
      "d": 18.938666666683275,
      "v": 64
    },
    {
      "midi": 70,
      "hit": false,
      "t": 225881.47733334074,
      "d": 18.938666666683275,
      "v": 64
    },
    {
      "midi": 62,
      "hit": false,
      "t": 225890.94666667408,
      "d": 9.469333333341638,
      "v": 110
    },
    {
      "midi": 86,
      "hit": false,
      "t": 225900.41600000742,
      "d": 85.22400000001653,
      "v": 80
    },
    {
      "midi": 26,
      "hit": false,
      "t": 225900.41600000742,
      "d": 94.69333333335817,
      "v": 127
    },
    {
      "midi": 15,
      "hit": false,
      "t": 225900.41600000742,
      "d": 94.69333333335817,
      "v": 100
    },
    {
      "midi": 13,
      "hit": false,
      "t": 225900.41600000742,
      "d": 94.69333333335817,
      "v": 100
    },
    {
      "midi": 10,
      "hit": false,
      "t": 225900.41600000742,
      "d": 94.69333333335817,
      "v": 127
    },
    {
      "midi": 127,
      "hit": false,
      "t": 225900.41600000742,
      "d": 94.69333333335817,
      "v": 60
    },
    {
      "midi": 108,
      "hit": false,
      "t": 225900.41600000742,
      "d": 94.69333333335817,
      "v": 80
    },
    {
      "midi": 105,
      "hit": false,
      "t": 225900.41600000742,
      "d": 94.69333333335817,
      "v": 100
    },
    {
      "midi": 42,
      "hit": false,
      "t": 225900.41600000742,
      "d": 94.69333333335817,
      "v": 92
    },
    {
      "midi": 62,
      "hit": false,
      "t": 225900.41600000742,
      "d": 94.69333333335817,
      "v": 105
    },
    {
      "midi": 63,
      "hit": false,
      "t": 225900.41600000742,
      "d": 94.69333333335817,
      "v": 70
    },
    {
      "midi": 72,
      "hit": false,
      "t": 225900.41600000742,
      "d": 113.63200000004144,
      "v": 127
    },
    {
      "midi": 57,
      "hit": false,
      "t": 225900.41600000742,
      "d": 198.85600000005797,
      "v": 105
    },
    {
      "midi": 65,
      "hit": false,
      "t": 225909.88533334076,
      "d": 94.69333333335817,
      "v": 70
    },
    {
      "midi": 53,
      "hit": false,
      "t": 225909.88533334076,
      "d": 198.85600000005797,
      "v": 105
    },
    {
      "midi": 45,
      "hit": false,
      "t": 225909.88533334076,
      "d": 198.85600000005797,
      "v": 105
    },
    {
      "midi": 69,
      "hit": false,
      "t": 225919.3546666741,
      "d": 94.69333333335817,
      "v": 70
    },
    {
      "midi": 38,
      "hit": false,
      "t": 225919.3546666741,
      "d": 198.85600000005797,
      "v": 105
    },
    {
      "midi": 69,
      "hit": false,
      "t": 226014.04800000746,
      "d": 9.469333333341638,
      "v": 60
    },
    {
      "midi": 65,
      "hit": false,
      "t": 226014.04800000746,
      "d": 9.469333333341638,
      "v": 60
    },
    {
      "midi": 62,
      "hit": false,
      "t": 226014.04800000746,
      "d": 9.469333333341638,
      "v": 60
    },
    {
      "midi": 89,
      "hit": false,
      "t": 226014.04800000746,
      "d": 85.22400000001653,
      "v": 80
    },
    {
      "midi": 72,
      "hit": false,
      "t": 226014.04800000746,
      "d": 113.63200000004144,
      "v": 127
    },
    {
      "midi": 42,
      "hit": false,
      "t": 226023.5173333408,
      "d": 94.69333333335817,
      "v": 78
    },
    {
      "midi": 38,
      "hit": false,
      "t": 226118.21066667416,
      "d": 9.469333333341638,
      "v": 100
    },
    {
      "midi": 38,
      "hit": false,
      "t": 226127.6800000075,
      "d": 66.28533333333326,
      "v": 105
    },
    {
      "midi": 45,
      "hit": false,
      "t": 226127.6800000075,
      "d": 66.28533333333326,
      "v": 105
    },
    {
      "midi": 86,
      "hit": false,
      "t": 226127.6800000075,
      "d": 85.22400000001653,
      "v": 80
    },
    {
      "midi": 26,
      "hit": false,
      "t": 226127.6800000075,
      "d": 208.32533333342872,
      "v": 127
    },
    {
      "midi": 72,
      "hit": false,
      "t": 226127.6800000075,
      "d": 227.264000000112,
      "v": 127
    },
    {
      "midi": 53,
      "hit": false,
      "t": 226137.14933334084,
      "d": 66.28533333333326,
      "v": 105
    },
    {
      "midi": 57,
      "hit": false,
      "t": 226137.14933334084,
      "d": 66.28533333333326,
      "v": 105
    },
    {
      "midi": 65,
      "hit": false,
      "t": 226137.14933334084,
      "d": 94.69333333335817,
      "v": 70
    },
    {
      "midi": 62,
      "hit": false,
      "t": 226146.61866667419,
      "d": 66.28533333333326,
      "v": 105
    },
    {
      "midi": 46,
      "hit": false,
      "t": 226146.61866667419,
      "d": 94.69333333335817,
      "v": 92
    },
    {
      "midi": 69,
      "hit": false,
      "t": 226146.61866667419,
      "d": 94.69333333335817,
      "v": 70
    },
    {
      "midi": 62,
      "hit": false,
      "t": 226231.8426666742,
      "d": 9.469333333341638,
      "v": 100
    },
    {
      "midi": 57,
      "hit": false,
      "t": 226241.31200000754,
      "d": 66.28533333336236,
      "v": 105
    },
    {
      "midi": 81,
      "hit": false,
      "t": 226241.31200000754,
      "d": 85.22400000004563,
      "v": 80
    },
    {
      "midi": 69,
      "hit": false,
      "t": 226241.31200000754,
      "d": 94.69333333338727,
      "v": 70
    },
    {
      "midi": 53,
      "hit": false,
      "t": 226250.78133334088,
      "d": 66.28533333336236,
      "v": 105
    },
    {
      "midi": 45,
      "hit": false,
      "t": 226250.78133334088,
      "d": 66.28533333336236,
      "v": 105
    },
    {
      "midi": 65,
      "hit": false,
      "t": 226250.78133334088,
      "d": 94.69333333338727,
      "v": 70
    },
    {
      "midi": 62,
      "hit": false,
      "t": 226260.25066667423,
      "d": 47.346666666679084,
      "v": 70
    },
    {
      "midi": 38,
      "hit": false,
      "t": 226260.25066667423,
      "d": 66.28533333336236,
      "v": 105
    },
    {
      "midi": 38,
      "hit": false,
      "t": 226345.47466667427,
      "d": 9.469333333341638,
      "v": 120
    },
    {
      "midi": 38,
      "hit": false,
      "t": 226354.9440000076,
      "d": 28.408000000024913,
      "v": 105
    },
    {
      "midi": 45,
      "hit": false,
      "t": 226354.9440000076,
      "d": 28.408000000024913,
      "v": 105
    },
    {
      "midi": 77,
      "hit": false,
      "t": 226354.9440000076,
      "d": 85.22400000004563,
      "v": 80
    },
    {
      "midi": 26,
      "hit": false,
      "t": 226354.9440000076,
      "d": 94.69333333338727,
      "v": 127
    },
    {
      "midi": 15,
      "hit": false,
      "t": 226354.9440000076,
      "d": 94.69333333338727,
      "v": 100
    },
    {
      "midi": 13,
      "hit": false,
      "t": 226354.9440000076,
      "d": 94.69333333338727,
      "v": 100
    },
    {
      "midi": 10,
      "hit": false,
      "t": 226354.9440000076,
      "d": 94.69333333338727,
      "v": 127
    },
    {
      "midi": 42,
      "hit": false,
      "t": 226354.9440000076,
      "d": 94.69333333338727,
      "v": 92
    },
    {
      "midi": 71,
      "hit": false,
      "t": 226354.9440000076,
      "d": 208.32533333345782,
      "v": 127
    },
    {
      "midi": 67,
      "hit": false,
      "t": 226354.9440000076,
      "d": 208.32533333345782,
      "v": 127
    },
    {
      "midi": 53,
      "hit": false,
      "t": 226364.41333334096,
      "d": 28.408000000024913,
      "v": 105
    },
    {
      "midi": 57,
      "hit": false,
      "t": 226364.41333334096,
      "d": 28.408000000024913,
      "v": 105
    },
    {
      "midi": 62,
      "hit": false,
      "t": 226373.8826666743,
      "d": 28.408000000024913,
      "v": 105
    },
    {
      "midi": 62,
      "hit": false,
      "t": 226468.57600000768,
      "d": 28.408000000024913,
      "v": 105
    },
    {
      "midi": 57,
      "hit": false,
      "t": 226468.57600000768,
      "d": 28.408000000024913,
      "v": 105
    },
    {
      "midi": 74,
      "hit": false,
      "t": 226468.57600000768,
      "d": 85.22400000004563,
      "v": 80
    },
    {
      "midi": 53,
      "hit": false,
      "t": 226478.04533334103,
      "d": 28.408000000024913,
      "v": 105
    },
    {
      "midi": 45,
      "hit": false,
      "t": 226478.04533334103,
      "d": 28.408000000024913,
      "v": 105
    },
    {
      "midi": 42,
      "hit": false,
      "t": 226478.04533334103,
      "d": 94.69333333338727,
      "v": 78
    },
    {
      "midi": 38,
      "hit": false,
      "t": 226487.51466667437,
      "d": 28.408000000024913,
      "v": 105
    },
    {
      "midi": 69,
      "hit": false,
      "t": 226582.20800000775,
      "d": 85.22400000001653,
      "v": 127
    },
    {
      "midi": 72,
      "hit": false,
      "t": 226582.20800000775,
      "d": 113.63200000001234,
      "v": 127
    },
    {
      "midi": 38,
      "hit": false,
      "t": 226582.20800000775,
      "d": 198.85599999999977,
      "v": 105
    },
    {
      "midi": 45,
      "hit": false,
      "t": 226582.20800000775,
      "d": 198.85599999999977,
      "v": 105
    },
    {
      "midi": 26,
      "hit": false,
      "t": 226582.20800000775,
      "d": 208.3253333333414,
      "v": 127
    },
    {
      "midi": 53,
      "hit": false,
      "t": 226591.6773333411,
      "d": 198.85599999999977,
      "v": 105
    },
    {
      "midi": 57,
      "hit": false,
      "t": 226591.6773333411,
      "d": 198.85599999999977,
      "v": 105
    },
    {
      "midi": 46,
      "hit": false,
      "t": 226601.14666667444,
      "d": 94.69333333332906,
      "v": 92
    },
    {
      "midi": 62,
      "hit": false,
      "t": 226601.14666667444,
      "d": 198.85599999999977,
      "v": 105
    },
    {
      "midi": 65,
      "hit": false,
      "t": 226695.84000000777,
      "d": 85.22399999998743,
      "v": 80
    },
    {
      "midi": 63,
      "hit": false,
      "t": 226695.84000000777,
      "d": 94.69333333332906,
      "v": 80
    },
    {
      "midi": 62,
      "hit": false,
      "t": 226800.00266667444,
      "d": 9.469333333341638,
      "v": 110
    },
    {
      "midi": 62,
      "hit": false,
      "t": 226809.47200000778,
      "d": 85.22400000001653,
      "v": 105
    },
    {
      "midi": 26,
      "hit": false,
      "t": 226809.47200000778,
      "d": 94.69333333335817,
      "v": 127
    },
    {
      "midi": 15,
      "hit": false,
      "t": 226809.47200000778,
      "d": 94.69333333335817,
      "v": 100
    },
    {
      "midi": 13,
      "hit": false,
      "t": 226809.47200000778,
      "d": 94.69333333335817,
      "v": 100
    },
    {
      "midi": 10,
      "hit": false,
      "t": 226809.47200000778,
      "d": 94.69333333335817,
      "v": 127
    },
    {
      "midi": 127,
      "hit": false,
      "t": 226809.47200000778,
      "d": 94.69333333335817,
      "v": 60
    },
    {
      "midi": 108,
      "hit": false,
      "t": 226809.47200000778,
      "d": 94.69333333335817,
      "v": 80
    },
    {
      "midi": 105,
      "hit": false,
      "t": 226809.47200000778,
      "d": 94.69333333335817,
      "v": 100
    },
    {
      "midi": 42,
      "hit": false,
      "t": 226809.47200000778,
      "d": 94.69333333335817,
      "v": 92
    },
    {
      "midi": 64,
      "hit": false,
      "t": 226809.47200000778,
      "d": 94.69333333335817,
      "v": 70
    },
    {
      "midi": 72,
      "hit": false,
      "t": 226809.47200000778,
      "d": 151.5093333333498,
      "v": 127
    },
    {
      "midi": 69,
      "hit": false,
      "t": 226809.47200000778,
      "d": 151.5093333333498,
      "v": 127
    },
    {
      "midi": 57,
      "hit": false,
      "t": 226809.47200000778,
      "d": 198.85600000002887,
      "v": 105
    },
    {
      "midi": 53,
      "hit": false,
      "t": 226818.94133334112,
      "d": 198.85600000002887,
      "v": 105
    },
    {
      "midi": 45,
      "hit": false,
      "t": 226818.94133334112,
      "d": 198.85600000002887,
      "v": 105
    },
    {
      "midi": 38,
      "hit": false,
      "t": 226828.41066667446,
      "d": 198.85600000002887,
      "v": 105
    },
    {
      "midi": 65,
      "hit": false,
      "t": 226923.1040000078,
      "d": 85.22400000001653,
      "v": 80
    },
    {
      "midi": 26,
      "hit": false,
      "t": 226923.1040000078,
      "d": 94.69333333335817,
      "v": 127
    },
    {
      "midi": 42,
      "hit": false,
      "t": 226932.57333334113,
      "d": 94.69333333335817,
      "v": 78
    },
    {
      "midi": 38,
      "hit": false,
      "t": 227027.2666666745,
      "d": 9.469333333341638,
      "v": 100
    },
    {
      "midi": 38,
      "hit": false,
      "t": 227036.73600000783,
      "d": 9.469333333341638,
      "v": 105
    },
    {
      "midi": 45,
      "hit": false,
      "t": 227036.73600000783,
      "d": 9.469333333341638,
      "v": 105
    },
    {
      "midi": 69,
      "hit": false,
      "t": 227036.73600000783,
      "d": 85.22400000001653,
      "v": 80
    },
    {
      "midi": 26,
      "hit": false,
      "t": 227036.73600000783,
      "d": 94.69333333335817,
      "v": 127
    },
    {
      "midi": 15,
      "hit": false,
      "t": 227036.73600000783,
      "d": 94.69333333335817,
      "v": 100
    },
    {
      "midi": 13,
      "hit": false,
      "t": 227036.73600000783,
      "d": 94.69333333335817,
      "v": 100
    },
    {
      "midi": 10,
      "hit": false,
      "t": 227036.73600000783,
      "d": 94.69333333335817,
      "v": 127
    },
    {
      "midi": 77,
      "hit": false,
      "t": 227036.73600000783,
      "d": 435.5893333334825,
      "v": 127
    },
    {
      "midi": 74,
      "hit": false,
      "t": 227036.73600000783,
      "d": 435.5893333334825,
      "v": 127
    },
    {
      "midi": 53,
      "hit": false,
      "t": 227046.20533334117,
      "d": 9.469333333341638,
      "v": 105
    },
    {
      "midi": 57,
      "hit": false,
      "t": 227046.20533334117,
      "d": 9.469333333341638,
      "v": 105
    },
    {
      "midi": 62,
      "hit": false,
      "t": 227055.67466667452,
      "d": 9.469333333341638,
      "v": 105
    },
    {
      "midi": 46,
      "hit": false,
      "t": 227055.67466667452,
      "d": 94.69333333335817,
      "v": 92
    },
    {
      "midi": 62,
      "hit": false,
      "t": 227150.36800000787,
      "d": 28.408000000024913,
      "v": 105
    },
    {
      "midi": 57,
      "hit": false,
      "t": 227150.36800000787,
      "d": 28.408000000024913,
      "v": 105
    },
    {
      "midi": 65,
      "hit": false,
      "t": 227150.36800000787,
      "d": 85.22400000004563,
      "v": 80
    },
    {
      "midi": 53,
      "hit": false,
      "t": 227159.83733334122,
      "d": 28.408000000024913,
      "v": 105
    },
    {
      "midi": 45,
      "hit": false,
      "t": 227159.83733334122,
      "d": 28.408000000024913,
      "v": 105
    },
    {
      "midi": 38,
      "hit": false,
      "t": 227169.30666667456,
      "d": 28.408000000024913,
      "v": 105
    },
    {
      "midi": 71,
      "hit": false,
      "t": 227264.00000000792,
      "d": 85.22400000001653,
      "v": 70
    },
    {
      "midi": 28,
      "hit": false,
      "t": 227264.00000000792,
      "d": 94.69333333335817,
      "v": 127
    },
    {
      "midi": 15,
      "hit": false,
      "t": 227264.00000000792,
      "d": 94.69333333335817,
      "v": 100
    },
    {
      "midi": 13,
      "hit": false,
      "t": 227264.00000000792,
      "d": 94.69333333335817,
      "v": 100
    },
    {
      "midi": 10,
      "hit": false,
      "t": 227264.00000000792,
      "d": 94.69333333335817,
      "v": 127
    },
    {
      "midi": 42,
      "hit": false,
      "t": 227264.00000000792,
      "d": 94.69333333335817,
      "v": 92
    },
    {
      "midi": 40,
      "hit": false,
      "t": 227264.00000000792,
      "d": 416.6506666667701,
      "v": 115
    },
    {
      "midi": 47,
      "hit": false,
      "t": 227264.00000000792,
      "d": 416.6506666667701,
      "v": 115
    },
    {
      "midi": 68,
      "hit": false,
      "t": 227273.46933334126,
      "d": 94.69333333335817,
      "v": 70
    },
    {
      "midi": 56,
      "hit": false,
      "t": 227273.46933334126,
      "d": 416.6506666667701,
      "v": 115
    },
    {
      "midi": 59,
      "hit": false,
      "t": 227273.46933334126,
      "d": 416.6506666667701,
      "v": 115
    },
    {
      "midi": 64,
      "hit": false,
      "t": 227282.9386666746,
      "d": 94.69333333335817,
      "v": 115
    },
    {
      "midi": 28,
      "hit": false,
      "t": 227377.63200000796,
      "d": 94.69333333335817,
      "v": 127
    },
    {
      "midi": 64,
      "hit": false,
      "t": 227377.63200000796,
      "d": 94.69333333335817,
      "v": 70
    },
    {
      "midi": 68,
      "hit": false,
      "t": 227387.1013333413,
      "d": 75.7546666666749,
      "v": 70
    },
    {
      "midi": 42,
      "hit": false,
      "t": 227387.1013333413,
      "d": 94.69333333335817,
      "v": 78
    },
    {
      "midi": 71,
      "hit": false,
      "t": 227396.57066667464,
      "d": 94.69333333335817,
      "v": 70
    },
    {
      "midi": 71,
      "hit": false,
      "t": 227491.264000008,
      "d": 9.469333333341638,
      "v": 60
    },
    {
      "midi": 68,
      "hit": false,
      "t": 227491.264000008,
      "d": 9.469333333341638,
      "v": 60
    },
    {
      "midi": 64,
      "hit": false,
      "t": 227491.264000008,
      "d": 9.469333333341638,
      "v": 60
    },
    {
      "midi": 76,
      "hit": false,
      "t": 227491.264000008,
      "d": 85.22400000001653,
      "v": 127
    },
    {
      "midi": 28,
      "hit": false,
      "t": 227491.264000008,
      "d": 94.69333333335817,
      "v": 127
    },
    {
      "midi": 46,
      "hit": false,
      "t": 227510.20266667468,
      "d": 94.69333333332906,
      "v": 92
    },
    {
      "midi": 80,
      "hit": false,
      "t": 227604.896000008,
      "d": 85.22400000001653,
      "v": 80
    },
    {
      "midi": 64,
      "hit": false,
      "t": 227604.896000008,
      "d": 94.69333333335817,
      "v": 70
    },
    {
      "midi": 28,
      "hit": false,
      "t": 227604.896000008,
      "d": 94.69333333335817,
      "v": 127
    },
    {
      "midi": 68,
      "hit": false,
      "t": 227614.36533334135,
      "d": 94.69333333335817,
      "v": 70
    },
    {
      "midi": 71,
      "hit": false,
      "t": 227623.8346666747,
      "d": 94.69333333335817,
      "v": 70
    },
    {
      "midi": 83,
      "hit": false,
      "t": 227718.52800000805,
      "d": 85.22400000001653,
      "v": 80
    },
    {
      "midi": 28,
      "hit": false,
      "t": 227718.52800000805,
      "d": 94.69333333335817,
      "v": 127
    },
    {
      "midi": 15,
      "hit": false,
      "t": 227718.52800000805,
      "d": 94.69333333335817,
      "v": 100
    },
    {
      "midi": 13,
      "hit": false,
      "t": 227718.52800000805,
      "d": 94.69333333335817,
      "v": 100
    },
    {
      "midi": 10,
      "hit": false,
      "t": 227718.52800000805,
      "d": 94.69333333335817,
      "v": 127
    },
    {
      "midi": 127,
      "hit": false,
      "t": 227718.52800000805,
      "d": 94.69333333335817,
      "v": 60
    },
    {
      "midi": 108,
      "hit": false,
      "t": 227718.52800000805,
      "d": 94.69333333335817,
      "v": 80
    },
    {
      "midi": 105,
      "hit": false,
      "t": 227718.52800000805,
      "d": 94.69333333335817,
      "v": 100
    },
    {
      "midi": 42,
      "hit": false,
      "t": 227718.52800000805,
      "d": 94.69333333335817,
      "v": 92
    },
    {
      "midi": 71,
      "hit": false,
      "t": 227718.52800000805,
      "d": 94.69333333335817,
      "v": 70
    },
    {
      "midi": 63,
      "hit": false,
      "t": 227718.52800000805,
      "d": 94.69333333335817,
      "v": 70
    },
    {
      "midi": 59,
      "hit": false,
      "t": 227718.52800000805,
      "d": 198.85600000005797,
      "v": 115
    },
    {
      "midi": 57,
      "hit": false,
      "t": 227718.52800000805,
      "d": 208.3253333333996,
      "v": 110
    },
    {
      "midi": 68,
      "hit": false,
      "t": 227727.9973333414,
      "d": 94.69333333335817,
      "v": 70
    },
    {
      "midi": 47,
      "hit": false,
      "t": 227727.9973333414,
      "d": 198.85600000005797,
      "v": 115
    },
    {
      "midi": 56,
      "hit": false,
      "t": 227727.9973333414,
      "d": 208.3253333333996,
      "v": 115
    },
    {
      "midi": 64,
      "hit": false,
      "t": 227737.46666667474,
      "d": 94.69333333335817,
      "v": 70
    },
    {
      "midi": 40,
      "hit": false,
      "t": 227737.46666667474,
      "d": 198.85600000005797,
      "v": 115
    },
    {
      "midi": 64,
      "hit": false,
      "t": 227832.1600000081,
      "d": 9.469333333341638,
      "v": 60
    },
    {
      "midi": 68,
      "hit": false,
      "t": 227832.1600000081,
      "d": 9.469333333341638,
      "v": 60
    },
    {
      "midi": 71,
      "hit": false,
      "t": 227832.1600000081,
      "d": 9.469333333341638,
      "v": 60
    },
    {
      "midi": 88,
      "hit": false,
      "t": 227832.1600000081,
      "d": 85.22400000001653,
      "v": 80
    },
    {
      "midi": 42,
      "hit": false,
      "t": 227841.62933334144,
      "d": 94.69333333335817,
      "v": 78
    },
    {
      "midi": 40,
      "hit": false,
      "t": 227936.3226666748,
      "d": 9.469333333341638,
      "v": 100
    },
    {
      "midi": 40,
      "hit": false,
      "t": 227945.79200000814,
      "d": 85.22400000001653,
      "v": 115
    },
    {
      "midi": 47,
      "hit": false,
      "t": 227945.79200000814,
      "d": 85.22400000001653,
      "v": 115
    },
    {
      "midi": 83,
      "hit": false,
      "t": 227945.79200000814,
      "d": 85.22400000001653,
      "v": 80
    },
    {
      "midi": 28,
      "hit": false,
      "t": 227945.79200000814,
      "d": 94.69333333335817,
      "v": 127
    },
    {
      "midi": 71,
      "hit": false,
      "t": 227945.79200000814,
      "d": 94.69333333335817,
      "v": 70
    },
    {
      "midi": 56,
      "hit": false,
      "t": 227955.26133334148,
      "d": 85.22400000001653,
      "v": 115
    },
    {
      "midi": 59,
      "hit": false,
      "t": 227955.26133334148,
      "d": 85.22400000001653,
      "v": 115
    },
    {
      "midi": 68,
      "hit": false,
      "t": 227955.26133334148,
      "d": 94.69333333335817,
      "v": 70
    },
    {
      "midi": 64,
      "hit": false,
      "t": 227964.73066667482,
      "d": 85.22400000001653,
      "v": 115
    },
    {
      "midi": 46,
      "hit": false,
      "t": 227964.73066667482,
      "d": 94.69333333335817,
      "v": 92
    },
    {
      "midi": 64,
      "hit": false,
      "t": 228049.95466667484,
      "d": 9.469333333341638,
      "v": 90
    },
    {
      "midi": 64,
      "hit": false,
      "t": 228059.42400000818,
      "d": 85.22400000001653,
      "v": 115
    },
    {
      "midi": 59,
      "hit": false,
      "t": 228059.42400000818,
      "d": 85.22400000001653,
      "v": 115
    },
    {
      "midi": 80,
      "hit": false,
      "t": 228059.42400000818,
      "d": 85.22400000001653,
      "v": 80
    },
    {
      "midi": 56,
      "hit": false,
      "t": 228068.89333334152,
      "d": 85.22400000001653,
      "v": 115
    },
    {
      "midi": 47,
      "hit": false,
      "t": 228068.89333334152,
      "d": 85.22400000001653,
      "v": 115
    },
    {
      "midi": 68,
      "hit": false,
      "t": 228068.89333334152,
      "d": 94.69333333335817,
      "v": 70
    },
    {
      "midi": 40,
      "hit": false,
      "t": 228078.36266667486,
      "d": 85.22400000001653,
      "v": 115
    },
    {
      "midi": 71,
      "hit": false,
      "t": 228078.36266667486,
      "d": 94.69333333335817,
      "v": 70
    },
    {
      "midi": 40,
      "hit": false,
      "t": 228163.58666667488,
      "d": 9.469333333341638,
      "v": 100
    },
    {
      "midi": 40,
      "hit": false,
      "t": 228173.05600000822,
      "d": 85.22400000001653,
      "v": 115
    },
    {
      "midi": 47,
      "hit": false,
      "t": 228173.05600000822,
      "d": 85.22400000001653,
      "v": 115
    },
    {
      "midi": 76,
      "hit": false,
      "t": 228173.05600000822,
      "d": 85.22400000001653,
      "v": 80
    },
    {
      "midi": 28,
      "hit": false,
      "t": 228173.05600000822,
      "d": 94.69333333335817,
      "v": 127
    },
    {
      "midi": 15,
      "hit": false,
      "t": 228173.05600000822,
      "d": 94.69333333335817,
      "v": 100
    },
    {
      "midi": 13,
      "hit": false,
      "t": 228173.05600000822,
      "d": 94.69333333335817,
      "v": 100
    },
    {
      "midi": 10,
      "hit": false,
      "t": 228173.05600000822,
      "d": 94.69333333335817,
      "v": 127
    },
    {
      "midi": 42,
      "hit": false,
      "t": 228173.05600000822,
      "d": 94.69333333335817,
      "v": 92
    },
    {
      "midi": 56,
      "hit": false,
      "t": 228182.52533334156,
      "d": 85.22400000001653,
      "v": 115
    },
    {
      "midi": 59,
      "hit": false,
      "t": 228182.52533334156,
      "d": 85.22400000001653,
      "v": 115
    },
    {
      "midi": 64,
      "hit": false,
      "t": 228191.9946666749,
      "d": 85.22400000001653,
      "v": 115
    },
    {
      "midi": 64,
      "hit": false,
      "t": 228277.21866667492,
      "d": 9.469333333341638,
      "v": 90
    },
    {
      "midi": 64,
      "hit": false,
      "t": 228286.68800000826,
      "d": 85.22400000001653,
      "v": 115
    },
    {
      "midi": 59,
      "hit": false,
      "t": 228286.68800000826,
      "d": 85.22400000001653,
      "v": 115
    },
    {
      "midi": 71,
      "hit": false,
      "t": 228286.68800000826,
      "d": 85.22400000001653,
      "v": 80
    },
    {
      "midi": 56,
      "hit": false,
      "t": 228296.1573333416,
      "d": 85.22400000001653,
      "v": 115
    },
    {
      "midi": 47,
      "hit": false,
      "t": 228296.1573333416,
      "d": 85.22400000001653,
      "v": 115
    },
    {
      "midi": 42,
      "hit": false,
      "t": 228296.1573333416,
      "d": 94.69333333335817,
      "v": 78
    },
    {
      "midi": 40,
      "hit": false,
      "t": 228305.62666667494,
      "d": 85.22400000001653,
      "v": 115
    },
    {
      "midi": 40,
      "hit": false,
      "t": 228390.85066667496,
      "d": 9.469333333341638,
      "v": 100
    },
    {
      "midi": 68,
      "hit": false,
      "t": 228400.3200000083,
      "d": 85.22400000001653,
      "v": 80
    },
    {
      "midi": 40,
      "hit": false,
      "t": 228400.3200000083,
      "d": 198.85600000002887,
      "v": 115
    },
    {
      "midi": 47,
      "hit": false,
      "t": 228400.3200000083,
      "d": 198.85600000002887,
      "v": 115
    },
    {
      "midi": 28,
      "hit": false,
      "t": 228400.3200000083,
      "d": 208.3253333333705,
      "v": 127
    },
    {
      "midi": 56,
      "hit": false,
      "t": 228409.78933334164,
      "d": 198.85600000002887,
      "v": 115
    },
    {
      "midi": 59,
      "hit": false,
      "t": 228409.78933334164,
      "d": 198.85600000002887,
      "v": 115
    },
    {
      "midi": 46,
      "hit": false,
      "t": 228419.25866667498,
      "d": 94.69333333332906,
      "v": 92
    },
    {
      "midi": 64,
      "hit": false,
      "t": 228513.9520000083,
      "d": 85.22400000001653,
      "v": 80
    },
    {
      "midi": 63,
      "hit": false,
      "t": 228513.9520000083,
      "d": 94.69333333335817,
      "v": 80
    },
    {
      "midi": 64,
      "hit": false,
      "t": 228618.114666675,
      "d": 9.469333333341638,
      "v": 110
    },
    {
      "midi": 59,
      "hit": false,
      "t": 228627.58400000836,
      "d": 85.22400000001653,
      "v": 115
    },
    {
      "midi": 28,
      "hit": false,
      "t": 228627.58400000836,
      "d": 94.69333333335817,
      "v": 127
    },
    {
      "midi": 15,
      "hit": false,
      "t": 228627.58400000836,
      "d": 94.69333333335817,
      "v": 100
    },
    {
      "midi": 13,
      "hit": false,
      "t": 228627.58400000836,
      "d": 94.69333333335817,
      "v": 100
    },
    {
      "midi": 10,
      "hit": false,
      "t": 228627.58400000836,
      "d": 94.69333333335817,
      "v": 127
    },
    {
      "midi": 127,
      "hit": false,
      "t": 228627.58400000836,
      "d": 94.69333333335817,
      "v": 60
    },
    {
      "midi": 108,
      "hit": false,
      "t": 228627.58400000836,
      "d": 94.69333333335817,
      "v": 80
    },
    {
      "midi": 105,
      "hit": false,
      "t": 228627.58400000836,
      "d": 94.69333333335817,
      "v": 100
    },
    {
      "midi": 42,
      "hit": false,
      "t": 228627.58400000836,
      "d": 94.69333333335817,
      "v": 92
    },
    {
      "midi": 64,
      "hit": false,
      "t": 228627.58400000836,
      "d": 94.69333333335817,
      "v": 70
    },
    {
      "midi": 57,
      "hit": false,
      "t": 228627.58400000836,
      "d": 208.3253333333705,
      "v": 110
    },
    {
      "midi": 47,
      "hit": false,
      "t": 228637.0533333417,
      "d": 198.85600000002887,
      "v": 115
    },
    {
      "midi": 56,
      "hit": false,
      "t": 228637.0533333417,
      "d": 208.3253333333705,
      "v": 115
    },
    {
      "midi": 40,
      "hit": false,
      "t": 228646.52266667504,
      "d": 198.85600000002887,
      "v": 115
    },
    {
      "midi": 64,
      "hit": false,
      "t": 228741.21600000837,
      "d": 85.22400000001653,
      "v": 80
    },
    {
      "midi": 28,
      "hit": false,
      "t": 228741.21600000837,
      "d": 94.69333333335817,
      "v": 127
    },
    {
      "midi": 42,
      "hit": false,
      "t": 228750.6853333417,
      "d": 94.69333333335817,
      "v": 78
    },
    {
      "midi": 40,
      "hit": false,
      "t": 228845.37866667507,
      "d": 9.469333333341638,
      "v": 100
    },
    {
      "midi": 40,
      "hit": false,
      "t": 228854.8480000084,
      "d": 85.22400000001653,
      "v": 115
    },
    {
      "midi": 47,
      "hit": false,
      "t": 228854.8480000084,
      "d": 85.22400000001653,
      "v": 115
    },
    {
      "midi": 68,
      "hit": false,
      "t": 228854.8480000084,
      "d": 85.22400000001653,
      "v": 80
    },
    {
      "midi": 28,
      "hit": false,
      "t": 228854.8480000084,
      "d": 94.69333333335817,
      "v": 127
    },
    {
      "midi": 127,
      "hit": false,
      "t": 228854.8480000084,
      "d": 94.69333333335817,
      "v": 60
    },
    {
      "midi": 108,
      "hit": false,
      "t": 228854.8480000084,
      "d": 94.69333333335817,
      "v": 80
    },
    {
      "midi": 105,
      "hit": false,
      "t": 228854.8480000084,
      "d": 94.69333333335817,
      "v": 100
    },
    {
      "midi": 56,
      "hit": false,
      "t": 228864.31733334175,
      "d": 85.22400000001653,
      "v": 115
    },
    {
      "midi": 59,
      "hit": false,
      "t": 228864.31733334175,
      "d": 85.22400000001653,
      "v": 115
    },
    {
      "midi": 64,
      "hit": false,
      "t": 228873.7866666751,
      "d": 85.22400000001653,
      "v": 115
    },
    {
      "midi": 46,
      "hit": false,
      "t": 228873.7866666751,
      "d": 94.69333333335817,
      "v": 92
    },
    {
      "midi": 64,
      "hit": false,
      "t": 228959.0106666751,
      "d": 9.469333333341638,
      "v": 100
    },
    {
      "midi": 64,
      "hit": false,
      "t": 228968.48000000845,
      "d": 85.22400000001653,
      "v": 115
    },
    {
      "midi": 59,
      "hit": false,
      "t": 228968.48000000845,
      "d": 85.22400000001653,
      "v": 115
    },
    {
      "midi": 71,
      "hit": false,
      "t": 228968.48000000845,
      "d": 85.22400000001653,
      "v": 80
    },
    {
      "midi": 127,
      "hit": false,
      "t": 228968.48000000845,
      "d": 94.69333333335817,
      "v": 60
    },
    {
      "midi": 108,
      "hit": false,
      "t": 228968.48000000845,
      "d": 94.69333333335817,
      "v": 80
    },
    {
      "midi": 105,
      "hit": false,
      "t": 228968.48000000845,
      "d": 94.69333333335817,
      "v": 100
    },
    {
      "midi": 56,
      "hit": false,
      "t": 228977.9493333418,
      "d": 85.22400000001653,
      "v": 115
    },
    {
      "midi": 47,
      "hit": false,
      "t": 228977.9493333418,
      "d": 85.22400000001653,
      "v": 115
    },
    {
      "midi": 40,
      "hit": false,
      "t": 228987.41866667513,
      "d": 85.22400000001653,
      "v": 115
    },
    {
      "midi": 40,
      "hit": false,
      "t": 229072.64266667515,
      "d": 9.469333333341638,
      "v": 100
    },
    {
      "midi": 28,
      "hit": false,
      "t": 229082.1120000085,
      "d": 94.69333333335817,
      "v": 127
    },
    {
      "midi": 15,
      "hit": false,
      "t": 229082.1120000085,
      "d": 94.69333333335817,
      "v": 100
    },
    {
      "midi": 13,
      "hit": false,
      "t": 229082.1120000085,
      "d": 94.69333333335817,
      "v": 100
    },
    {
      "midi": 10,
      "hit": false,
      "t": 229082.1120000085,
      "d": 94.69333333335817,
      "v": 127
    },
    {
      "midi": 127,
      "hit": false,
      "t": 229082.1120000085,
      "d": 94.69333333335817,
      "v": 60
    },
    {
      "midi": 108,
      "hit": false,
      "t": 229082.1120000085,
      "d": 94.69333333335817,
      "v": 80
    },
    {
      "midi": 105,
      "hit": false,
      "t": 229082.1120000085,
      "d": 94.69333333335817,
      "v": 100
    },
    {
      "midi": 42,
      "hit": false,
      "t": 229082.1120000085,
      "d": 94.69333333335817,
      "v": 92
    },
    {
      "midi": 71,
      "hit": false,
      "t": 229082.1120000085,
      "d": 94.69333333335817,
      "v": 70
    },
    {
      "midi": 40,
      "hit": false,
      "t": 229082.1120000085,
      "d": 416.6506666667701,
      "v": 115
    },
    {
      "midi": 47,
      "hit": false,
      "t": 229082.1120000085,
      "d": 416.6506666667701,
      "v": 115
    },
    {
      "midi": 68,
      "hit": false,
      "t": 229091.58133334183,
      "d": 75.7546666666749,
      "v": 70
    },
    {
      "midi": 56,
      "hit": false,
      "t": 229091.58133334183,
      "d": 416.6506666667701,
      "v": 115
    },
    {
      "midi": 59,
      "hit": false,
      "t": 229091.58133334183,
      "d": 416.6506666667701,
      "v": 115
    },
    {
      "midi": 64,
      "hit": false,
      "t": 229101.05066667518,
      "d": 94.69333333335817,
      "v": 115
    },
    {
      "midi": 28,
      "hit": false,
      "t": 229195.74400000853,
      "d": 94.69333333335817,
      "v": 127
    },
    {
      "midi": 127,
      "hit": false,
      "t": 229195.74400000853,
      "d": 94.69333333335817,
      "v": 60
    },
    {
      "midi": 108,
      "hit": false,
      "t": 229195.74400000853,
      "d": 94.69333333335817,
      "v": 80
    },
    {
      "midi": 105,
      "hit": false,
      "t": 229195.74400000853,
      "d": 94.69333333335817,
      "v": 100
    },
    {
      "midi": 64,
      "hit": false,
      "t": 229195.74400000853,
      "d": 94.69333333335817,
      "v": 70
    },
    {
      "midi": 42,
      "hit": false,
      "t": 229205.21333334188,
      "d": 94.69333333335817,
      "v": 78
    },
    {
      "midi": 68,
      "hit": false,
      "t": 229205.21333334188,
      "d": 94.69333333335817,
      "v": 70
    },
    {
      "midi": 71,
      "hit": false,
      "t": 229214.68266667522,
      "d": 66.28533333333326,
      "v": 70
    },
    {
      "midi": 71,
      "hit": false,
      "t": 229309.37600000857,
      "d": 9.469333333341638,
      "v": 60
    },
    {
      "midi": 68,
      "hit": false,
      "t": 229309.37600000857,
      "d": 9.469333333341638,
      "v": 60
    },
    {
      "midi": 64,
      "hit": false,
      "t": 229309.37600000857,
      "d": 9.469333333341638,
      "v": 60
    },
    {
      "midi": 76,
      "hit": false,
      "t": 229309.37600000857,
      "d": 85.22400000001653,
      "v": 80
    },
    {
      "midi": 28,
      "hit": false,
      "t": 229309.37600000857,
      "d": 94.69333333335817,
      "v": 127
    },
    {
      "midi": 127,
      "hit": false,
      "t": 229309.37600000857,
      "d": 94.69333333335817,
      "v": 60
    },
    {
      "midi": 108,
      "hit": false,
      "t": 229309.37600000857,
      "d": 94.69333333335817,
      "v": 80
    },
    {
      "midi": 105,
      "hit": false,
      "t": 229309.37600000857,
      "d": 94.69333333335817,
      "v": 100
    },
    {
      "midi": 46,
      "hit": false,
      "t": 229328.31466667526,
      "d": 94.69333333332906,
      "v": 92
    },
    {
      "midi": 80,
      "hit": false,
      "t": 229423.0080000086,
      "d": 85.22400000001653,
      "v": 80
    },
    {
      "midi": 64,
      "hit": false,
      "t": 229423.0080000086,
      "d": 94.69333333335817,
      "v": 70
    },
    {
      "midi": 28,
      "hit": false,
      "t": 229423.0080000086,
      "d": 94.69333333335817,
      "v": 127
    },
    {
      "midi": 127,
      "hit": false,
      "t": 229423.0080000086,
      "d": 94.69333333335817,
      "v": 60
    },
    {
      "midi": 108,
      "hit": false,
      "t": 229423.0080000086,
      "d": 94.69333333335817,
      "v": 80
    },
    {
      "midi": 105,
      "hit": false,
      "t": 229423.0080000086,
      "d": 94.69333333335817,
      "v": 100
    },
    {
      "midi": 68,
      "hit": false,
      "t": 229432.47733334193,
      "d": 94.69333333335817,
      "v": 70
    },
    {
      "midi": 71,
      "hit": false,
      "t": 229441.94666667527,
      "d": 94.69333333335817,
      "v": 70
    },
    {
      "midi": 83,
      "hit": false,
      "t": 229536.64000000863,
      "d": 85.22400000001653,
      "v": 80
    },
    {
      "midi": 28,
      "hit": false,
      "t": 229536.64000000863,
      "d": 94.69333333335817,
      "v": 127
    },
    {
      "midi": 15,
      "hit": false,
      "t": 229536.64000000863,
      "d": 94.69333333335817,
      "v": 100
    },
    {
      "midi": 13,
      "hit": false,
      "t": 229536.64000000863,
      "d": 94.69333333335817,
      "v": 100
    },
    {
      "midi": 10,
      "hit": false,
      "t": 229536.64000000863,
      "d": 94.69333333335817,
      "v": 127
    },
    {
      "midi": 127,
      "hit": false,
      "t": 229536.64000000863,
      "d": 94.69333333335817,
      "v": 60
    },
    {
      "midi": 108,
      "hit": false,
      "t": 229536.64000000863,
      "d": 94.69333333335817,
      "v": 80
    },
    {
      "midi": 105,
      "hit": false,
      "t": 229536.64000000863,
      "d": 94.69333333335817,
      "v": 100
    },
    {
      "midi": 42,
      "hit": false,
      "t": 229536.64000000863,
      "d": 94.69333333335817,
      "v": 92
    },
    {
      "midi": 71,
      "hit": false,
      "t": 229536.64000000863,
      "d": 94.69333333335817,
      "v": 70
    },
    {
      "midi": 63,
      "hit": false,
      "t": 229536.64000000863,
      "d": 94.69333333335817,
      "v": 70
    },
    {
      "midi": 59,
      "hit": false,
      "t": 229536.64000000863,
      "d": 198.85600000005797,
      "v": 115
    },
    {
      "midi": 57,
      "hit": false,
      "t": 229536.64000000863,
      "d": 208.3253333333996,
      "v": 110
    },
    {
      "midi": 77,
      "hit": false,
      "t": 229536.64000000863,
      "d": 227.2640000000829,
      "v": 127
    },
    {
      "midi": 74,
      "hit": false,
      "t": 229536.64000000863,
      "d": 227.2640000000829,
      "v": 127
    },
    {
      "midi": 68,
      "hit": false,
      "t": 229546.10933334197,
      "d": 94.69333333335817,
      "v": 70
    },
    {
      "midi": 47,
      "hit": false,
      "t": 229546.10933334197,
      "d": 198.85600000005797,
      "v": 115
    },
    {
      "midi": 56,
      "hit": false,
      "t": 229546.10933334197,
      "d": 208.3253333333996,
      "v": 115
    },
    {
      "midi": 64,
      "hit": false,
      "t": 229555.5786666753,
      "d": 94.69333333335817,
      "v": 70
    },
    {
      "midi": 40,
      "hit": false,
      "t": 229555.5786666753,
      "d": 198.85600000005797,
      "v": 115
    },
    {
      "midi": 64,
      "hit": false,
      "t": 229650.27200000867,
      "d": 9.469333333341638,
      "v": 60
    },
    {
      "midi": 68,
      "hit": false,
      "t": 229650.27200000867,
      "d": 9.469333333341638,
      "v": 60
    },
    {
      "midi": 71,
      "hit": false,
      "t": 229650.27200000867,
      "d": 9.469333333341638,
      "v": 60
    },
    {
      "midi": 88,
      "hit": false,
      "t": 229650.27200000867,
      "d": 85.22400000001653,
      "v": 80
    },
    {
      "midi": 42,
      "hit": false,
      "t": 229659.741333342,
      "d": 94.69333333335817,
      "v": 78
    },
    {
      "midi": 40,
      "hit": false,
      "t": 229754.43466667537,
      "d": 9.469333333341638,
      "v": 100
    },
    {
      "midi": 40,
      "hit": false,
      "t": 229763.9040000087,
      "d": 85.22400000001653,
      "v": 115
    },
    {
      "midi": 47,
      "hit": false,
      "t": 229763.9040000087,
      "d": 85.22400000001653,
      "v": 115
    },
    {
      "midi": 83,
      "hit": false,
      "t": 229763.9040000087,
      "d": 85.22400000001653,
      "v": 80
    },
    {
      "midi": 127,
      "hit": false,
      "t": 229763.9040000087,
      "d": 94.69333333335817,
      "v": 60
    },
    {
      "midi": 108,
      "hit": false,
      "t": 229763.9040000087,
      "d": 94.69333333335817,
      "v": 80
    },
    {
      "midi": 105,
      "hit": false,
      "t": 229763.9040000087,
      "d": 94.69333333335817,
      "v": 100
    },
    {
      "midi": 71,
      "hit": false,
      "t": 229763.9040000087,
      "d": 94.69333333335817,
      "v": 70
    },
    {
      "midi": 28,
      "hit": false,
      "t": 229763.9040000087,
      "d": 208.3253333333996,
      "v": 127
    },
    {
      "midi": 76,
      "hit": false,
      "t": 229763.9040000087,
      "d": 227.2640000000829,
      "v": 127
    },
    {
      "midi": 72,
      "hit": false,
      "t": 229763.9040000087,
      "d": 227.2640000000829,
      "v": 127
    },
    {
      "midi": 56,
      "hit": false,
      "t": 229773.37333334205,
      "d": 85.22400000001653,
      "v": 115
    },
    {
      "midi": 59,
      "hit": false,
      "t": 229773.37333334205,
      "d": 85.22400000001653,
      "v": 115
    },
    {
      "midi": 68,
      "hit": false,
      "t": 229773.37333334205,
      "d": 94.69333333335817,
      "v": 70
    },
    {
      "midi": 64,
      "hit": false,
      "t": 229782.8426666754,
      "d": 85.22400000001653,
      "v": 115
    },
    {
      "midi": 46,
      "hit": false,
      "t": 229782.8426666754,
      "d": 94.69333333335817,
      "v": 92
    },
    {
      "midi": 64,
      "hit": false,
      "t": 229868.0666666754,
      "d": 9.469333333341638,
      "v": 90
    },
    {
      "midi": 64,
      "hit": false,
      "t": 229877.53600000875,
      "d": 85.22400000001653,
      "v": 115
    },
    {
      "midi": 59,
      "hit": false,
      "t": 229877.53600000875,
      "d": 85.22400000001653,
      "v": 115
    },
    {
      "midi": 80,
      "hit": false,
      "t": 229877.53600000875,
      "d": 85.22400000001653,
      "v": 80
    },
    {
      "midi": 127,
      "hit": false,
      "t": 229877.53600000875,
      "d": 94.69333333335817,
      "v": 60
    },
    {
      "midi": 108,
      "hit": false,
      "t": 229877.53600000875,
      "d": 94.69333333335817,
      "v": 80
    },
    {
      "midi": 105,
      "hit": false,
      "t": 229877.53600000875,
      "d": 94.69333333335817,
      "v": 100
    },
    {
      "midi": 56,
      "hit": false,
      "t": 229887.0053333421,
      "d": 85.22400000001653,
      "v": 115
    },
    {
      "midi": 47,
      "hit": false,
      "t": 229887.0053333421,
      "d": 85.22400000001653,
      "v": 115
    },
    {
      "midi": 68,
      "hit": false,
      "t": 229887.0053333421,
      "d": 94.69333333335817,
      "v": 70
    },
    {
      "midi": 40,
      "hit": false,
      "t": 229896.47466667544,
      "d": 85.22400000001653,
      "v": 115
    },
    {
      "midi": 71,
      "hit": false,
      "t": 229896.47466667544,
      "d": 94.69333333335817,
      "v": 70
    },
    {
      "midi": 40,
      "hit": false,
      "t": 229981.69866667545,
      "d": 9.469333333341638,
      "v": 100
    },
    {
      "midi": 40,
      "hit": false,
      "t": 229991.1680000088,
      "d": 85.22400000001653,
      "v": 115
    },
    {
      "midi": 47,
      "hit": false,
      "t": 229991.1680000088,
      "d": 85.22400000001653,
      "v": 115
    },
    {
      "midi": 76,
      "hit": false,
      "t": 229991.1680000088,
      "d": 85.22400000001653,
      "v": 80
    },
    {
      "midi": 28,
      "hit": false,
      "t": 229991.1680000088,
      "d": 94.69333333335817,
      "v": 127
    },
    {
      "midi": 15,
      "hit": false,
      "t": 229991.1680000088,
      "d": 94.69333333335817,
      "v": 100
    },
    {
      "midi": 13,
      "hit": false,
      "t": 229991.1680000088,
      "d": 94.69333333335817,
      "v": 100
    },
    {
      "midi": 10,
      "hit": false,
      "t": 229991.1680000088,
      "d": 94.69333333335817,
      "v": 127
    },
    {
      "midi": 127,
      "hit": false,
      "t": 229991.1680000088,
      "d": 94.69333333335817,
      "v": 60
    },
    {
      "midi": 108,
      "hit": false,
      "t": 229991.1680000088,
      "d": 94.69333333335817,
      "v": 80
    },
    {
      "midi": 105,
      "hit": false,
      "t": 229991.1680000088,
      "d": 94.69333333335817,
      "v": 100
    },
    {
      "midi": 42,
      "hit": false,
      "t": 229991.1680000088,
      "d": 94.69333333335817,
      "v": 92
    },
    {
      "midi": 74,
      "hit": false,
      "t": 229991.1680000088,
      "d": 303.0186666667578,
      "v": 127
    },
    {
      "midi": 56,
      "hit": false,
      "t": 230000.63733334214,
      "d": 85.22400000001653,
      "v": 115
    },
    {
      "midi": 59,
      "hit": false,
      "t": 230000.63733334214,
      "d": 85.22400000001653,
      "v": 115
    },
    {
      "midi": 64,
      "hit": false,
      "t": 230010.10666667548,
      "d": 85.22400000001653,
      "v": 115
    },
    {
      "midi": 64,
      "hit": false,
      "t": 230095.3306666755,
      "d": 9.469333333341638,
      "v": 90
    },
    {
      "midi": 64,
      "hit": false,
      "t": 230104.80000000884,
      "d": 85.22400000001653,
      "v": 115
    },
    {
      "midi": 59,
      "hit": false,
      "t": 230104.80000000884,
      "d": 85.22400000001653,
      "v": 115
    },
    {
      "midi": 71,
      "hit": false,
      "t": 230104.80000000884,
      "d": 85.22400000001653,
      "v": 80
    },
    {
      "midi": 127,
      "hit": false,
      "t": 230104.80000000884,
      "d": 94.69333333335817,
      "v": 60
    },
    {
      "midi": 108,
      "hit": false,
      "t": 230104.80000000884,
      "d": 94.69333333335817,
      "v": 80
    },
    {
      "midi": 105,
      "hit": false,
      "t": 230104.80000000884,
      "d": 94.69333333335817,
      "v": 100
    },
    {
      "midi": 56,
      "hit": false,
      "t": 230114.26933334218,
      "d": 85.22400000001653,
      "v": 115
    },
    {
      "midi": 47,
      "hit": false,
      "t": 230114.26933334218,
      "d": 85.22400000001653,
      "v": 115
    },
    {
      "midi": 42,
      "hit": false,
      "t": 230114.26933334218,
      "d": 94.69333333335817,
      "v": 78
    },
    {
      "midi": 40,
      "hit": false,
      "t": 230123.73866667552,
      "d": 85.22400000001653,
      "v": 115
    },
    {
      "midi": 40,
      "hit": false,
      "t": 230208.96266667554,
      "d": 9.469333333341638,
      "v": 100
    },
    {
      "midi": 40,
      "hit": false,
      "t": 230218.43200000888,
      "d": 85.22400000001653,
      "v": 115
    },
    {
      "midi": 47,
      "hit": false,
      "t": 230218.43200000888,
      "d": 85.22400000001653,
      "v": 115
    },
    {
      "midi": 68,
      "hit": false,
      "t": 230218.43200000888,
      "d": 85.22400000001653,
      "v": 80
    },
    {
      "midi": 127,
      "hit": false,
      "t": 230218.43200000888,
      "d": 94.69333333335817,
      "v": 60
    },
    {
      "midi": 108,
      "hit": false,
      "t": 230218.43200000888,
      "d": 94.69333333335817,
      "v": 80
    },
    {
      "midi": 105,
      "hit": false,
      "t": 230218.43200000888,
      "d": 94.69333333335817,
      "v": 100
    },
    {
      "midi": 28,
      "hit": false,
      "t": 230218.43200000888,
      "d": 208.3253333333996,
      "v": 127
    },
    {
      "midi": 56,
      "hit": false,
      "t": 230227.90133334222,
      "d": 85.22400000001653,
      "v": 115
    },
    {
      "midi": 59,
      "hit": false,
      "t": 230227.90133334222,
      "d": 85.22400000001653,
      "v": 115
    },
    {
      "midi": 64,
      "hit": false,
      "t": 230237.37066667556,
      "d": 85.22400000001653,
      "v": 115
    },
    {
      "midi": 46,
      "hit": false,
      "t": 230237.37066667556,
      "d": 94.69333333335817,
      "v": 92
    },
    {
      "midi": 64,
      "hit": false,
      "t": 230322.59466667558,
      "d": 9.469333333341638,
      "v": 90
    },
    {
      "midi": 64,
      "hit": false,
      "t": 230332.06400000892,
      "d": 85.22400000001653,
      "v": 115
    },
    {
      "midi": 59,
      "hit": false,
      "t": 230332.06400000892,
      "d": 85.22400000001653,
      "v": 115
    },
    {
      "midi": 63,
      "hit": false,
      "t": 230332.06400000892,
      "d": 94.69333333335817,
      "v": 80
    },
    {
      "midi": 72,
      "hit": false,
      "t": 230332.06400000892,
      "d": 303.0186666667578,
      "v": 127
    },
    {
      "midi": 69,
      "hit": false,
      "t": 230332.06400000892,
      "d": 303.0186666667578,
      "v": 127
    },
    {
      "midi": 56,
      "hit": false,
      "t": 230341.53333334226,
      "d": 85.22400000001653,
      "v": 115
    },
    {
      "midi": 47,
      "hit": false,
      "t": 230341.53333334226,
      "d": 85.22400000001653,
      "v": 115
    },
    {
      "midi": 40,
      "hit": false,
      "t": 230351.0026666756,
      "d": 85.22400000001653,
      "v": 115
    },
    {
      "midi": 40,
      "hit": false,
      "t": 230436.22666667562,
      "d": 9.469333333341638,
      "v": 100
    },
    {
      "midi": 40,
      "hit": false,
      "t": 230445.69600000896,
      "d": 85.22400000001653,
      "v": 115
    },
    {
      "midi": 47,
      "hit": false,
      "t": 230445.69600000896,
      "d": 85.22400000001653,
      "v": 115
    },
    {
      "midi": 28,
      "hit": false,
      "t": 230445.69600000896,
      "d": 94.69333333335817,
      "v": 127
    },
    {
      "midi": 15,
      "hit": false,
      "t": 230445.69600000896,
      "d": 94.69333333335817,
      "v": 100
    },
    {
      "midi": 13,
      "hit": false,
      "t": 230445.69600000896,
      "d": 94.69333333335817,
      "v": 100
    },
    {
      "midi": 10,
      "hit": false,
      "t": 230445.69600000896,
      "d": 94.69333333335817,
      "v": 127
    },
    {
      "midi": 127,
      "hit": false,
      "t": 230445.69600000896,
      "d": 94.69333333335817,
      "v": 60
    },
    {
      "midi": 108,
      "hit": false,
      "t": 230445.69600000896,
      "d": 94.69333333335817,
      "v": 80
    },
    {
      "midi": 105,
      "hit": false,
      "t": 230445.69600000896,
      "d": 94.69333333335817,
      "v": 100
    },
    {
      "midi": 42,
      "hit": false,
      "t": 230445.69600000896,
      "d": 94.69333333335817,
      "v": 92
    },
    {
      "midi": 59,
      "hit": false,
      "t": 230455.1653333423,
      "d": 75.7546666666749,
      "v": 115
    },
    {
      "midi": 56,
      "hit": false,
      "t": 230455.1653333423,
      "d": 85.22400000001653,
      "v": 115
    },
    {
      "midi": 64,
      "hit": false,
      "t": 230464.63466667564,
      "d": 75.7546666666749,
      "v": 115
    },
    {
      "midi": 64,
      "hit": false,
      "t": 230549.85866667566,
      "d": 9.469333333341638,
      "v": 100
    },
    {
      "midi": 64,
      "hit": false,
      "t": 230559.328000009,
      "d": 85.22400000001653,
      "v": 115
    },
    {
      "midi": 28,
      "hit": false,
      "t": 230559.328000009,
      "d": 94.69333333335817,
      "v": 127
    },
    {
      "midi": 127,
      "hit": false,
      "t": 230559.328000009,
      "d": 94.69333333335817,
      "v": 60
    },
    {
      "midi": 108,
      "hit": false,
      "t": 230559.328000009,
      "d": 94.69333333335817,
      "v": 80
    },
    {
      "midi": 105,
      "hit": false,
      "t": 230559.328000009,
      "d": 94.69333333335817,
      "v": 100
    },
    {
      "midi": 59,
      "hit": false,
      "t": 230559.328000009,
      "d": 293.54933333335794,
      "v": 115
    },
    {
      "midi": 42,
      "hit": false,
      "t": 230568.79733334234,
      "d": 94.69333333335817,
      "v": 78
    },
    {
      "midi": 56,
      "hit": false,
      "t": 230568.79733334234,
      "d": 293.54933333335794,
      "v": 115
    },
    {
      "midi": 47,
      "hit": false,
      "t": 230568.79733334234,
      "d": 293.54933333335794,
      "v": 115
    },
    {
      "midi": 40,
      "hit": false,
      "t": 230578.26666667568,
      "d": 293.54933333335794,
      "v": 115
    },
    {
      "midi": 68,
      "hit": false,
      "t": 230672.96000000904,
      "d": 85.22399999998743,
      "v": 127
    },
    {
      "midi": 28,
      "hit": false,
      "t": 230672.96000000904,
      "d": 94.69333333332906,
      "v": 127
    },
    {
      "midi": 15,
      "hit": false,
      "t": 230672.96000000904,
      "d": 94.69333333332906,
      "v": 100
    },
    {
      "midi": 13,
      "hit": false,
      "t": 230672.96000000904,
      "d": 94.69333333332906,
      "v": 100
    },
    {
      "midi": 10,
      "hit": false,
      "t": 230672.96000000904,
      "d": 94.69333333332906,
      "v": 127
    },
    {
      "midi": 127,
      "hit": false,
      "t": 230672.96000000904,
      "d": 94.69333333332906,
      "v": 60
    },
    {
      "midi": 108,
      "hit": false,
      "t": 230672.96000000904,
      "d": 94.69333333332906,
      "v": 80
    },
    {
      "midi": 105,
      "hit": false,
      "t": 230672.96000000904,
      "d": 94.69333333332906,
      "v": 100
    },
    {
      "midi": 46,
      "hit": false,
      "t": 230691.8986666757,
      "d": 94.69333333332906,
      "v": 92
    },
    {
      "midi": 71,
      "hit": false,
      "t": 230786.59200000903,
      "d": 85.22400000001653,
      "v": 80
    },
    {
      "midi": 81,
      "hit": false,
      "t": 230900.22400000904,
      "d": 85.22400000004563,
      "v": 80
    },
    {
      "midi": 33,
      "hit": false,
      "t": 230900.22400000904,
      "d": 871.178666666674,
      "v": 127
    },
    {
      "midi": 45,
      "hit": false,
      "t": 230900.22400000904,
      "d": 871.178666666674,
      "v": 115
    },
    {
      "midi": 48,
      "hit": false,
      "t": 230909.69333334238,
      "d": 861.7093333333323,
      "v": 100
    },
    {
      "midi": 52,
      "hit": false,
      "t": 230919.16266667572,
      "d": 861.7093333333323,
      "v": 100
    },
    {
      "midi": 57,
      "hit": false,
      "t": 230919.16266667572,
      "d": 861.7093333333323,
      "v": 110
    },
    {
      "midi": 60,
      "hit": false,
      "t": 230928.63200000906,
      "d": 861.7093333333323,
      "v": 110
    },
    {
      "midi": 69,
      "hit": false,
      "t": 230928.63200000906,
      "d": 861.7093333333323,
      "v": 110
    },
    {
      "midi": 72,
      "hit": false,
      "t": 231013.85600000908,
      "d": 85.22399999998743,
      "v": 80
    },
    {
      "midi": 76,
      "hit": false,
      "t": 231127.48800000906,
      "d": 85.22399999998743,
      "v": 80
    },
    {
      "midi": 81,
      "hit": false,
      "t": 231241.12000000905,
      "d": 85.22400000001653,
      "v": 80
    },
    {
      "midi": 84,
      "hit": false,
      "t": 231354.75200000906,
      "d": 85.22399999998743,
      "v": 80
    },
    {
      "midi": 88,
      "hit": false,
      "t": 231468.38400000904,
      "d": 85.22400000001653,
      "v": 80
    },
    {
      "midi": 93,
      "hit": false,
      "t": 231582.01600000905,
      "d": 85.22399999998743,
      "v": 80
    },
    {
      "midi": 88,
      "hit": false,
      "t": 231695.64800000904,
      "d": 85.22400000001653,
      "v": 80
    },
    {
      "midi": 84,
      "hit": false,
      "t": 231809.28000000908,
      "d": 85.22399999998743,
      "v": 80
    },
    {
      "midi": 81,
      "hit": false,
      "t": 231922.91200000906,
      "d": 85.22400000001653,
      "v": 80
    },
    {
      "midi": 76,
      "hit": false,
      "t": 232036.54400000907,
      "d": 85.22400000004563,
      "v": 80
    },
    {
      "midi": 74,
      "hit": false,
      "t": 232036.54400000907,
      "d": 151.509333333408,
      "v": 110
    },
    {
      "midi": 71,
      "hit": false,
      "t": 232036.54400000907,
      "d": 151.509333333408,
      "v": 110
    },
    {
      "midi": 31,
      "hit": false,
      "t": 232036.54400000907,
      "d": 284.0800000000745,
      "v": 127
    },
    {
      "midi": 67,
      "hit": false,
      "t": 232046.01333334242,
      "d": 85.22400000004563,
      "v": 125
    },
    {
      "midi": 62,
      "hit": false,
      "t": 232055.48266667576,
      "d": 85.22400000004563,
      "v": 125
    },
    {
      "midi": 55,
      "hit": false,
      "t": 232064.9520000091,
      "d": 85.22400000004563,
      "v": 125
    },
    {
      "midi": 50,
      "hit": false,
      "t": 232064.9520000091,
      "d": 85.22400000004563,
      "v": 125
    },
    {
      "midi": 47,
      "hit": false,
      "t": 232074.42133334244,
      "d": 85.22400000004563,
      "v": 125
    },
    {
      "midi": 43,
      "hit": false,
      "t": 232074.42133334244,
      "d": 85.22400000004563,
      "v": 125
    },
    {
      "midi": 72,
      "hit": false,
      "t": 232150.17600000915,
      "d": 85.22400000001653,
      "v": 80
    },
    {
      "midi": 57,
      "hit": false,
      "t": 232169.11466667583,
      "d": 94.69333333332906,
      "v": 127
    },
    {
      "midi": 69,
      "hit": false,
      "t": 232263.80800000916,
      "d": 85.22399999998743,
      "v": 80
    },
    {
      "midi": 72,
      "hit": false,
      "t": 232377.44000000914,
      "d": 85.22399999998743,
      "v": 80
    },
    {
      "midi": 76,
      "hit": false,
      "t": 232491.07200000912,
      "d": 85.22400000001653,
      "v": 80
    },
    {
      "midi": 41,
      "hit": false,
      "t": 232491.07200000912,
      "d": 217.79466666665394,
      "v": 105
    },
    {
      "midi": 45,
      "hit": false,
      "t": 232491.07200000912,
      "d": 12944.578666666057,
      "v": 105
    },
    {
      "midi": 29,
      "hit": false,
      "t": 232491.07200000912,
      "d": 12963.51733333274,
      "v": 127
    },
    {
      "midi": 48,
      "hit": false,
      "t": 232500.54133334247,
      "d": 12935.109333332715,
      "v": 105
    },
    {
      "midi": 53,
      "hit": false,
      "t": 232500.54133334247,
      "d": 12935.109333332715,
      "v": 105
    },
    {
      "midi": 60,
      "hit": false,
      "t": 232510.0106666758,
      "d": 12925.639999999374,
      "v": 105
    },
    {
      "midi": 65,
      "hit": false,
      "t": 232510.0106666758,
      "d": 12925.639999999374,
      "v": 105
    },
    {
      "midi": 81,
      "hit": false,
      "t": 232604.70400000914,
      "d": 85.22399999998743,
      "v": 80
    },
    {
      "midi": 41,
      "hit": false,
      "t": 232708.86666667578,
      "d": 12726.783999999403,
      "v": 105
    },
    {
      "midi": 84,
      "hit": false,
      "t": 232718.33600000912,
      "d": 85.22399999998743,
      "v": 80
    },
    {
      "midi": 88,
      "hit": false,
      "t": 232831.96800000913,
      "d": 85.22400000001653,
      "v": 80
    },
    {
      "midi": 93,
      "hit": false,
      "t": 232945.60000000914,
      "d": 85.22399999998743,
      "v": 80
    },
    {
      "midi": 88,
      "hit": false,
      "t": 233059.23200000913,
      "d": 85.22399999998743,
      "v": 80
    },
    {
      "midi": 84,
      "hit": false,
      "t": 233172.8640000091,
      "d": 85.22399999998743,
      "v": 80
    },
    {
      "midi": 81,
      "hit": false,
      "t": 233286.4960000091,
      "d": 85.22400000001653,
      "v": 80
    },
    {
      "midi": 76,
      "hit": false,
      "t": 233400.1280000091,
      "d": 85.22400000001653,
      "v": 80
    },
    {
      "midi": 72,
      "hit": false,
      "t": 233513.76000000912,
      "d": 85.22400000001653,
      "v": 80
    },
    {
      "midi": 69,
      "hit": false,
      "t": 233627.39200000913,
      "d": 85.22400000001653,
      "v": 80
    },
    {
      "midi": 72,
      "hit": false,
      "t": 233741.02400000914,
      "d": 85.22399999998743,
      "v": 80
    },
    {
      "midi": 76,
      "hit": false,
      "t": 233854.65600000913,
      "d": 85.22399999998743,
      "v": 80
    },
    {
      "midi": 81,
      "hit": false,
      "t": 233968.2880000091,
      "d": 85.22399999998743,
      "v": 80
    },
    {
      "midi": 84,
      "hit": false,
      "t": 234081.9200000091,
      "d": 85.22400000001653,
      "v": 80
    },
    {
      "midi": 88,
      "hit": false,
      "t": 234195.5520000091,
      "d": 85.22399999998743,
      "v": 80
    },
    {
      "midi": 93,
      "hit": false,
      "t": 234309.1840000091,
      "d": 85.22399999998743,
      "v": 80
    },
    {
      "midi": 88,
      "hit": false,
      "t": 234422.81600000907,
      "d": 85.22399999998743,
      "v": 80
    },
    {
      "midi": 84,
      "hit": false,
      "t": 234536.44800000906,
      "d": 85.22399999998743,
      "v": 80
    },
    {
      "midi": 81,
      "hit": false,
      "t": 234650.08000000904,
      "d": 85.22400000001653,
      "v": 80
    },
    {
      "midi": 76,
      "hit": false,
      "t": 234763.71200000905,
      "d": 85.22399999998743,
      "v": 80
    },
    {
      "midi": 72,
      "hit": false,
      "t": 234877.34400000903,
      "d": 85.22400000001653,
      "v": 80
    },
    {
      "midi": 69,
      "hit": false,
      "t": 234990.97600000905,
      "d": 85.22400000001653,
      "v": 80
    },
    {
      "midi": 72,
      "hit": false,
      "t": 235104.60800000906,
      "d": 85.22399999998743,
      "v": 80
    },
    {
      "midi": 76,
      "hit": false,
      "t": 235218.24000000904,
      "d": 85.22400000001653,
      "v": 80
    },
    {
      "midi": 81,
      "hit": false,
      "t": 235331.87200000905,
      "d": 85.22399999998743,
      "v": 80
    },
    {
      "midi": 84,
      "hit": false,
      "t": 235445.50400000904,
      "d": 85.22399999998743,
      "v": 80
    },
    {
      "midi": 88,
      "hit": false,
      "t": 235559.13600000902,
      "d": 85.22399999998743,
      "v": 80
    },
    {
      "midi": 93,
      "hit": false,
      "t": 235672.768000009,
      "d": 85.22399999998743,
      "v": 80
    },
    {
      "midi": 88,
      "hit": false,
      "t": 235786.400000009,
      "d": 85.22400000001653,
      "v": 80
    },
    {
      "midi": 84,
      "hit": false,
      "t": 235900.032000009,
      "d": 85.22399999998743,
      "v": 80
    },
    {
      "midi": 81,
      "hit": false,
      "t": 236013.66400000898,
      "d": 85.22400000001653,
      "v": 80
    },
    {
      "midi": 76,
      "hit": false,
      "t": 236127.296000009,
      "d": 85.22399999998743,
      "v": 80
    },
    {
      "midi": 72,
      "hit": false,
      "t": 236240.92800000898,
      "d": 85.22399999998743,
      "v": 80
    },
    {
      "midi": 69,
      "hit": false,
      "t": 236354.56000000896,
      "d": 85.22400000001653,
      "v": 80
    },
    {
      "midi": 72,
      "hit": false,
      "t": 236468.19200000897,
      "d": 85.22399999998743,
      "v": 80
    },
    {
      "midi": 76,
      "hit": false,
      "t": 236581.82400000896,
      "d": 85.22400000001653,
      "v": 80
    },
    {
      "midi": 81,
      "hit": false,
      "t": 236695.45600000897,
      "d": 85.22399999998743,
      "v": 80
    },
    {
      "midi": 84,
      "hit": false,
      "t": 236809.08800000895,
      "d": 85.22399999998743,
      "v": 80
    },
    {
      "midi": 88,
      "hit": false,
      "t": 236922.72000000894,
      "d": 85.22400000001653,
      "v": 80
    },
    {
      "midi": 93,
      "hit": false,
      "t": 237036.35200000895,
      "d": 85.22399999998743,
      "v": 80
    },
    {
      "midi": 88,
      "hit": false,
      "t": 237149.98400000893,
      "d": 85.22400000001653,
      "v": 80
    },
    {
      "midi": 84,
      "hit": false,
      "t": 237263.61600000894,
      "d": 85.22399999998743,
      "v": 80
    },
    {
      "midi": 81,
      "hit": false,
      "t": 237377.24800000893,
      "d": 85.22399999998743,
      "v": 80
    },
    {
      "midi": 76,
      "hit": false,
      "t": 237490.8800000089,
      "d": 85.22400000001653,
      "v": 80
    },
    {
      "midi": 72,
      "hit": false,
      "t": 237604.51200000892,
      "d": 85.22399999998743,
      "v": 80
    },
    {
      "midi": 69,
      "hit": false,
      "t": 237718.1440000089,
      "d": 85.22400000001653,
      "v": 80
    },
    {
      "midi": 72,
      "hit": false,
      "t": 237831.77600000892,
      "d": 85.22399999998743,
      "v": 80
    },
    {
      "midi": 76,
      "hit": false,
      "t": 237945.4080000089,
      "d": 85.22399999998743,
      "v": 80
    },
    {
      "midi": 81,
      "hit": false,
      "t": 238059.04000000888,
      "d": 85.22400000001653,
      "v": 80
    },
    {
      "midi": 84,
      "hit": false,
      "t": 238172.6720000089,
      "d": 85.22399999998743,
      "v": 80
    },
    {
      "midi": 88,
      "hit": false,
      "t": 238286.30400000888,
      "d": 85.22400000001653,
      "v": 80
    },
    {
      "midi": 93,
      "hit": false,
      "t": 238399.9360000089,
      "d": 85.22399999998743,
      "v": 80
    },
    {
      "midi": 88,
      "hit": false,
      "t": 238513.56800000888,
      "d": 85.22399999998743,
      "v": 80
    },
    {
      "midi": 84,
      "hit": false,
      "t": 238627.20000000886,
      "d": 85.22399999998743,
      "v": 80
    },
    {
      "midi": 81,
      "hit": false,
      "t": 238740.83200000884,
      "d": 85.22399999998743,
      "v": 80
    },
    {
      "midi": 76,
      "hit": false,
      "t": 238854.46400000883,
      "d": 85.22400000001653,
      "v": 80
    },
    {
      "midi": 72,
      "hit": false,
      "t": 238968.09600000884,
      "d": 85.22399999998743,
      "v": 80
    },
    {
      "midi": 69,
      "hit": false,
      "t": 239081.72800000882,
      "d": 85.22400000001653,
      "v": 80
    },
    {
      "midi": 72,
      "hit": false,
      "t": 239195.36000000883,
      "d": 85.22400000001653,
      "v": 80
    },
    {
      "midi": 76,
      "hit": false,
      "t": 239308.99200000885,
      "d": 85.22399999998743,
      "v": 80
    },
    {
      "midi": 81,
      "hit": false,
      "t": 239422.62400000883,
      "d": 85.22400000001653,
      "v": 80
    },
    {
      "midi": 84,
      "hit": false,
      "t": 239536.25600000884,
      "d": 85.22399999998743,
      "v": 80
    },
    {
      "midi": 88,
      "hit": false,
      "t": 239649.88800000882,
      "d": 85.22399999998743,
      "v": 80
    },
    {
      "midi": 93,
      "hit": false,
      "t": 239763.5200000088,
      "d": 85.22399999998743,
      "v": 80
    },
    {
      "midi": 88,
      "hit": false,
      "t": 239877.1520000088,
      "d": 85.22399999998743,
      "v": 80
    },
    {
      "midi": 84,
      "hit": false,
      "t": 239990.78400000877,
      "d": 85.22400000001653,
      "v": 80
    },
    {
      "midi": 81,
      "hit": false,
      "t": 240104.4160000088,
      "d": 85.22399999998743,
      "v": 80
    },
    {
      "midi": 76,
      "hit": false,
      "t": 240218.04800000877,
      "d": 85.22399999998743,
      "v": 80
    },
    {
      "midi": 72,
      "hit": false,
      "t": 240331.68000000875,
      "d": 85.22399999998743,
      "v": 80
    },
    {
      "midi": 69,
      "hit": false,
      "t": 240445.31200000874,
      "d": 85.22399999998743,
      "v": 80
    },
    {
      "midi": 72,
      "hit": false,
      "t": 240558.94400000872,
      "d": 85.22400000001653,
      "v": 80
    },
    {
      "midi": 76,
      "hit": false,
      "t": 240672.57600000873,
      "d": 85.22399999998743,
      "v": 80
    },
    {
      "midi": 81,
      "hit": false,
      "t": 240786.20800000872,
      "d": 85.22400000001653,
      "v": 80
    },
    {
      "midi": 84,
      "hit": false,
      "t": 240899.84000000873,
      "d": 85.22400000001653,
      "v": 80
    },
    {
      "midi": 88,
      "hit": false,
      "t": 241013.47200000874,
      "d": 85.22399999998743,
      "v": 80
    },
    {
      "midi": 93,
      "hit": false,
      "t": 241127.10400000872,
      "d": 85.22400000001653,
      "v": 80
    },
    {
      "midi": 88,
      "hit": false,
      "t": 241240.73600000874,
      "d": 85.22399999998743,
      "v": 80
    },
    {
      "midi": 84,
      "hit": false,
      "t": 241354.36800000872,
      "d": 85.22399999998743,
      "v": 80
    },
    {
      "midi": 81,
      "hit": false,
      "t": 241468.0000000087,
      "d": 85.22399999998743,
      "v": 80
    },
    {
      "midi": 76,
      "hit": false,
      "t": 241581.63200000869,
      "d": 85.22399999998743,
      "v": 80
    },
    {
      "midi": 72,
      "hit": false,
      "t": 241695.26400000867,
      "d": 85.22400000001653,
      "v": 80
    },
    {
      "midi": 69,
      "hit": false,
      "t": 241808.89600000868,
      "d": 85.22399999998743,
      "v": 80
    },
    {
      "midi": 72,
      "hit": false,
      "t": 241922.52800000866,
      "d": 85.22400000001653,
      "v": 80
    },
    {
      "midi": 76,
      "hit": false,
      "t": 242036.16000000868,
      "d": 85.22399999998743,
      "v": 80
    },
    {
      "midi": 81,
      "hit": false,
      "t": 242149.79200000866,
      "d": 85.22399999998743,
      "v": 80
    },
    {
      "midi": 84,
      "hit": false,
      "t": 242263.42400000864,
      "d": 85.22400000001653,
      "v": 80
    },
    {
      "midi": 88,
      "hit": false,
      "t": 242377.05600000866,
      "d": 85.22399999998743,
      "v": 80
    },
    {
      "midi": 93,
      "hit": false,
      "t": 242490.68800000864,
      "d": 85.22400000001653,
      "v": 80
    },
    {
      "midi": 88,
      "hit": false,
      "t": 242604.32000000865,
      "d": 85.22399999998743,
      "v": 80
    },
    {
      "midi": 84,
      "hit": false,
      "t": 242717.95200000863,
      "d": 85.22399999998743,
      "v": 80
    },
    {
      "midi": 81,
      "hit": false,
      "t": 242831.58400000862,
      "d": 85.22400000001653,
      "v": 80
    },
    {
      "midi": 76,
      "hit": false,
      "t": 242945.21600000863,
      "d": 85.22399999998743,
      "v": 80
    },
    {
      "midi": 72,
      "hit": false,
      "t": 243058.8480000086,
      "d": 85.22400000001653,
      "v": 80
    },
    {
      "midi": 69,
      "hit": false,
      "t": 243172.48000000863,
      "d": 85.22399999998743,
      "v": 80
    },
    {
      "midi": 72,
      "hit": false,
      "t": 243286.1120000086,
      "d": 85.22400000001653,
      "v": 80
    },
    {
      "midi": 76,
      "hit": false,
      "t": 243399.74400000862,
      "d": 85.22400000001653,
      "v": 80
    },
    {
      "midi": 81,
      "hit": false,
      "t": 243513.37600000863,
      "d": 85.22399999998743,
      "v": 80
    },
    {
      "midi": 84,
      "hit": false,
      "t": 243627.00800000862,
      "d": 85.22400000001653,
      "v": 80
    },
    {
      "midi": 88,
      "hit": false,
      "t": 243740.64000000863,
      "d": 85.22399999998743,
      "v": 80
    },
    {
      "midi": 93,
      "hit": false,
      "t": 243854.2720000086,
      "d": 85.22399999998743,
      "v": 80
    },
    {
      "midi": 88,
      "hit": false,
      "t": 243967.9040000086,
      "d": 85.22399999998743,
      "v": 80
    },
    {
      "midi": 84,
      "hit": false,
      "t": 244081.53600000858,
      "d": 85.22399999998743,
      "v": 80
    },
    {
      "midi": 81,
      "hit": false,
      "t": 244195.16800000856,
      "d": 85.22400000001653,
      "v": 80
    },
    {
      "midi": 76,
      "hit": false,
      "t": 244308.80000000857,
      "d": 85.22399999998743,
      "v": 80
    },
    {
      "midi": 72,
      "hit": false,
      "t": 244422.43200000856,
      "d": 85.22399999998743,
      "v": 80
    },
    {
      "midi": 69,
      "hit": false,
      "t": 244536.06400000854,
      "d": 85.22399999998743,
      "v": 80
    },
    {
      "midi": 72,
      "hit": false,
      "t": 244649.69600000852,
      "d": 85.22399999998743,
      "v": 80
    },
    {
      "midi": 76,
      "hit": false,
      "t": 244763.3280000085,
      "d": 85.22400000001653,
      "v": 80
    },
    {
      "midi": 81,
      "hit": false,
      "t": 244876.96000000852,
      "d": 85.22399999998743,
      "v": 80
    },
    {
      "midi": 84,
      "hit": false,
      "t": 244990.5920000085,
      "d": 85.22400000001653,
      "v": 80
    },
    {
      "midi": 88,
      "hit": false,
      "t": 245104.22400000851,
      "d": 85.22400000001653,
      "v": 80
    },
    {
      "midi": 93,
      "hit": false,
      "t": 245217.85600000853,
      "d": 85.22399999998743,
      "v": 80
    },
    {
      "midi": 88,
      "hit": false,
      "t": 245331.4880000085,
      "d": 85.22400000001653,
      "v": 80
    }
  ]
}