{
  "jsonPath": "Animes/Card Captor Sakura MIDI Collection/chase.json",
  "path": "Animes\\Card Captor Sakura MIDI Collection\\Chase.mid",
  "name": "Chase",
  "difficulty": "Advanced",
  "bpm": 125,
  "notes": [
    {
      "midi": 31,
      "hit": false,
      "t": 1920,
      "d": 216,
      "v": 100
    },
    {
      "midi": 37,
      "hit": false,
      "t": 2160,
      "d": 216,
      "v": 100
    },
    {
      "midi": 62,
      "hit": false,
      "t": 2400,
      "d": 10,
      "v": 80
    },
    {
      "midi": 42,
      "hit": false,
      "t": 2400,
      "d": 10,
      "v": 80
    },
    {
      "midi": 65,
      "hit": false,
      "t": 2400,
      "d": 216,
      "v": 100
    },
    {
      "midi": 38,
      "hit": false,
      "t": 2400,
      "d": 216,
      "v": 100
    },
    {
      "midi": 85,
      "hit": false,
      "t": 2640,
      "d": 10,
      "v": 100
    },
    {
      "midi": 70,
      "hit": false,
      "t": 2640,
      "d": 10,
      "v": 100
    },
    {
      "midi": 41,
      "hit": false,
      "t": 2640,
      "d": 216,
      "v": 100
    },
    {
      "midi": 62,
      "hit": false,
      "t": 2880,
      "d": 10,
      "v": 80
    },
    {
      "midi": 65,
      "hit": false,
      "t": 2880,
      "d": 216,
      "v": 100
    },
    {
      "midi": 59,
      "hit": false,
      "t": 2880,
      "d": 216,
      "v": 100
    },
    {
      "midi": 85,
      "hit": false,
      "t": 3120,
      "d": 10,
      "v": 100
    },
    {
      "midi": 70,
      "hit": false,
      "t": 3120,
      "d": 10,
      "v": 70
    },
    {
      "midi": 42,
      "hit": false,
      "t": 3360,
      "d": 10,
      "v": 80
    },
    {
      "midi": 85,
      "hit": false,
      "t": 3600,
      "d": 10,
      "v": 70
    },
    {
      "midi": 70,
      "hit": false,
      "t": 3600,
      "d": 10,
      "v": 50
    },
    {
      "midi": 29,
      "hit": false,
      "t": 3600,
      "d": 216,
      "v": 100
    },
    {
      "midi": 58,
      "hit": false,
      "t": 3600,
      "d": 888,
      "v": 100
    },
    {
      "midi": 60,
      "hit": false,
      "t": 3600,
      "d": 888,
      "v": 100
    },
    {
      "midi": 85,
      "hit": false,
      "t": 4080,
      "d": 10,
      "v": 50
    },
    {
      "midi": 70,
      "hit": false,
      "t": 4080,
      "d": 10,
      "v": 30
    },
    {
      "midi": 42,
      "hit": false,
      "t": 4320,
      "d": 10,
      "v": 80
    },
    {
      "midi": 85,
      "hit": false,
      "t": 4560,
      "d": 10,
      "v": 30
    },
    {
      "midi": 70,
      "hit": false,
      "t": 4560,
      "d": 10,
      "v": 100
    },
    {
      "midi": 29,
      "hit": false,
      "t": 4560,
      "d": 216,
      "v": 100
    },
    {
      "midi": 57,
      "hit": false,
      "t": 4560,
      "d": 960,
      "v": 100
    },
    {
      "midi": 58,
      "hit": false,
      "t": 4560,
      "d": 960,
      "v": 100
    },
    {
      "midi": 85,
      "hit": false,
      "t": 5040,
      "d": 10,
      "v": 10
    },
    {
      "midi": 70,
      "hit": false,
      "t": 5040,
      "d": 10,
      "v": 70
    },
    {
      "midi": 42,
      "hit": false,
      "t": 5280,
      "d": 10,
      "v": 80
    },
    {
      "midi": 70,
      "hit": false,
      "t": 5520,
      "d": 10,
      "v": 50
    },
    {
      "midi": 31,
      "hit": false,
      "t": 5520,
      "d": 456,
      "v": 100
    },
    {
      "midi": 70,
      "hit": false,
      "t": 6000,
      "d": 10,
      "v": 30
    },
    {
      "midi": 37,
      "hit": false,
      "t": 6000,
      "d": 216,
      "v": 100
    },
    {
      "midi": 62,
      "hit": false,
      "t": 6240,
      "d": 10,
      "v": 80
    },
    {
      "midi": 42,
      "hit": false,
      "t": 6240,
      "d": 10,
      "v": 80
    },
    {
      "midi": 65,
      "hit": false,
      "t": 6240,
      "d": 216,
      "v": 100
    },
    {
      "midi": 38,
      "hit": false,
      "t": 6240,
      "d": 216,
      "v": 100
    },
    {
      "midi": 85,
      "hit": false,
      "t": 6480,
      "d": 10,
      "v": 100
    },
    {
      "midi": 70,
      "hit": false,
      "t": 6480,
      "d": 10,
      "v": 100
    },
    {
      "midi": 41,
      "hit": false,
      "t": 6480,
      "d": 216,
      "v": 100
    },
    {
      "midi": 62,
      "hit": false,
      "t": 6720,
      "d": 10,
      "v": 80
    },
    {
      "midi": 65,
      "hit": false,
      "t": 6720,
      "d": 216,
      "v": 100
    },
    {
      "midi": 59,
      "hit": false,
      "t": 6720,
      "d": 216,
      "v": 100
    },
    {
      "midi": 85,
      "hit": false,
      "t": 6960,
      "d": 10,
      "v": 100
    },
    {
      "midi": 70,
      "hit": false,
      "t": 6960,
      "d": 10,
      "v": 70
    },
    {
      "midi": 42,
      "hit": false,
      "t": 7200,
      "d": 10,
      "v": 80
    },
    {
      "midi": 85,
      "hit": false,
      "t": 7440,
      "d": 10,
      "v": 70
    },
    {
      "midi": 70,
      "hit": false,
      "t": 7440,
      "d": 10,
      "v": 50
    },
    {
      "midi": 67,
      "hit": false,
      "t": 7440,
      "d": 216,
      "v": 100
    },
    {
      "midi": 55,
      "hit": false,
      "t": 7440,
      "d": 216,
      "v": 100
    },
    {
      "midi": 29,
      "hit": false,
      "t": 7440,
      "d": 216,
      "v": 100
    },
    {
      "midi": 85,
      "hit": false,
      "t": 7680,
      "d": 10,
      "v": 30
    },
    {
      "midi": 70,
      "hit": false,
      "t": 7680,
      "d": 10,
      "v": 10
    },
    {
      "midi": 85,
      "hit": false,
      "t": 7920,
      "d": 10,
      "v": 50
    },
    {
      "midi": 70,
      "hit": false,
      "t": 7920,
      "d": 10,
      "v": 30
    },
    {
      "midi": 70,
      "hit": false,
      "t": 8160,
      "d": 10,
      "v": 10
    },
    {
      "midi": 85,
      "hit": false,
      "t": 8160,
      "d": 10,
      "v": 10
    },
    {
      "midi": 70,
      "hit": false,
      "t": 8400,
      "d": 10,
      "v": 10
    },
    {
      "midi": 85,
      "hit": false,
      "t": 8400,
      "d": 10,
      "v": 30
    },
    {
      "midi": 85,
      "hit": false,
      "t": 8640,
      "d": 10,
      "v": 10
    },
    {
      "midi": 70,
      "hit": false,
      "t": 8640,
      "d": 10,
      "v": 10
    },
    {
      "midi": 85,
      "hit": false,
      "t": 8880,
      "d": 10,
      "v": 20
    },
    {
      "midi": 42,
      "hit": false,
      "t": 8880,
      "d": 10,
      "v": 80
    },
    {
      "midi": 70,
      "hit": false,
      "t": 8880,
      "d": 10,
      "v": 5
    },
    {
      "midi": 46,
      "hit": false,
      "t": 9120,
      "d": 10,
      "v": 80
    },
    {
      "midi": 85,
      "hit": false,
      "t": 9120,
      "d": 10,
      "v": 5
    },
    {
      "midi": 31,
      "hit": false,
      "t": 9600,
      "d": 216,
      "v": 100
    },
    {
      "midi": 37,
      "hit": false,
      "t": 9840,
      "d": 216,
      "v": 100
    },
    {
      "midi": 62,
      "hit": false,
      "t": 10080,
      "d": 10,
      "v": 80
    },
    {
      "midi": 42,
      "hit": false,
      "t": 10080,
      "d": 10,
      "v": 80
    },
    {
      "midi": 65,
      "hit": false,
      "t": 10080,
      "d": 216,
      "v": 100
    },
    {
      "midi": 38,
      "hit": false,
      "t": 10080,
      "d": 216,
      "v": 100
    },
    {
      "midi": 85,
      "hit": false,
      "t": 10320,
      "d": 10,
      "v": 100
    },
    {
      "midi": 70,
      "hit": false,
      "t": 10320,
      "d": 10,
      "v": 100
    },
    {
      "midi": 41,
      "hit": false,
      "t": 10320,
      "d": 216,
      "v": 100
    },
    {
      "midi": 62,
      "hit": false,
      "t": 10560,
      "d": 10,
      "v": 80
    },
    {
      "midi": 65,
      "hit": false,
      "t": 10560,
      "d": 216,
      "v": 100
    },
    {
      "midi": 59,
      "hit": false,
      "t": 10560,
      "d": 216,
      "v": 100
    },
    {
      "midi": 85,
      "hit": false,
      "t": 10800,
      "d": 10,
      "v": 100
    },
    {
      "midi": 70,
      "hit": false,
      "t": 10800,
      "d": 10,
      "v": 70
    },
    {
      "midi": 42,
      "hit": false,
      "t": 11040,
      "d": 10,
      "v": 80
    },
    {
      "midi": 85,
      "hit": false,
      "t": 11280,
      "d": 10,
      "v": 70
    },
    {
      "midi": 70,
      "hit": false,
      "t": 11280,
      "d": 10,
      "v": 50
    },
    {
      "midi": 29,
      "hit": false,
      "t": 11280,
      "d": 216,
      "v": 100
    },
    {
      "midi": 58,
      "hit": false,
      "t": 11280,
      "d": 888,
      "v": 100
    },
    {
      "midi": 60,
      "hit": false,
      "t": 11280,
      "d": 888,
      "v": 100
    },
    {
      "midi": 85,
      "hit": false,
      "t": 11760,
      "d": 10,
      "v": 50
    },
    {
      "midi": 70,
      "hit": false,
      "t": 11760,
      "d": 10,
      "v": 30
    },
    {
      "midi": 42,
      "hit": false,
      "t": 12000,
      "d": 10,
      "v": 80
    },
    {
      "midi": 85,
      "hit": false,
      "t": 12240,
      "d": 10,
      "v": 30
    },
    {
      "midi": 70,
      "hit": false,
      "t": 12240,
      "d": 10,
      "v": 100
    },
    {
      "midi": 29,
      "hit": false,
      "t": 12240,
      "d": 216,
      "v": 100
    },
    {
      "midi": 57,
      "hit": false,
      "t": 12240,
      "d": 960,
      "v": 100
    },
    {
      "midi": 58,
      "hit": false,
      "t": 12240,
      "d": 960,
      "v": 100
    },
    {
      "midi": 85,
      "hit": false,
      "t": 12720,
      "d": 10,
      "v": 10
    },
    {
      "midi": 70,
      "hit": false,
      "t": 12720,
      "d": 10,
      "v": 70
    },
    {
      "midi": 42,
      "hit": false,
      "t": 12960,
      "d": 10,
      "v": 80
    },
    {
      "midi": 70,
      "hit": false,
      "t": 13200,
      "d": 10,
      "v": 50
    },
    {
      "midi": 31,
      "hit": false,
      "t": 13200,
      "d": 456,
      "v": 100
    },
    {
      "midi": 70,
      "hit": false,
      "t": 13680,
      "d": 10,
      "v": 30
    },
    {
      "midi": 37,
      "hit": false,
      "t": 13680,
      "d": 216,
      "v": 100
    },
    {
      "midi": 62,
      "hit": false,
      "t": 13920,
      "d": 10,
      "v": 80
    },
    {
      "midi": 42,
      "hit": false,
      "t": 13920,
      "d": 10,
      "v": 80
    },
    {
      "midi": 65,
      "hit": false,
      "t": 13920,
      "d": 216,
      "v": 100
    },
    {
      "midi": 38,
      "hit": false,
      "t": 13920,
      "d": 216,
      "v": 100
    },
    {
      "midi": 85,
      "hit": false,
      "t": 14160,
      "d": 10,
      "v": 100
    },
    {
      "midi": 70,
      "hit": false,
      "t": 14160,
      "d": 10,
      "v": 100
    },
    {
      "midi": 41,
      "hit": false,
      "t": 14160,
      "d": 216,
      "v": 100
    },
    {
      "midi": 62,
      "hit": false,
      "t": 14400,
      "d": 10,
      "v": 80
    },
    {
      "midi": 65,
      "hit": false,
      "t": 14400,
      "d": 216,
      "v": 100
    },
    {
      "midi": 59,
      "hit": false,
      "t": 14400,
      "d": 216,
      "v": 100
    },
    {
      "midi": 85,
      "hit": false,
      "t": 14640,
      "d": 10,
      "v": 100
    },
    {
      "midi": 70,
      "hit": false,
      "t": 14640,
      "d": 10,
      "v": 70
    },
    {
      "midi": 42,
      "hit": false,
      "t": 14880,
      "d": 10,
      "v": 80
    },
    {
      "midi": 85,
      "hit": false,
      "t": 15120,
      "d": 10,
      "v": 70
    },
    {
      "midi": 70,
      "hit": false,
      "t": 15120,
      "d": 10,
      "v": 50
    },
    {
      "midi": 65,
      "hit": false,
      "t": 15120,
      "d": 216,
      "v": 100
    },
    {
      "midi": 77,
      "hit": false,
      "t": 15120,
      "d": 216,
      "v": 100
    },
    {
      "midi": 29,
      "hit": false,
      "t": 15120,
      "d": 216,
      "v": 100
    },
    {
      "midi": 85,
      "hit": false,
      "t": 15360,
      "d": 10,
      "v": 30
    },
    {
      "midi": 70,
      "hit": false,
      "t": 15360,
      "d": 10,
      "v": 10
    },
    {
      "midi": 85,
      "hit": false,
      "t": 15600,
      "d": 10,
      "v": 50
    },
    {
      "midi": 70,
      "hit": false,
      "t": 15600,
      "d": 10,
      "v": 30
    },
    {
      "midi": 70,
      "hit": false,
      "t": 15840,
      "d": 10,
      "v": 10
    },
    {
      "midi": 85,
      "hit": false,
      "t": 15840,
      "d": 10,
      "v": 10
    },
    {
      "midi": 70,
      "hit": false,
      "t": 16080,
      "d": 10,
      "v": 10
    },
    {
      "midi": 85,
      "hit": false,
      "t": 16080,
      "d": 10,
      "v": 30
    },
    {
      "midi": 85,
      "hit": false,
      "t": 16320,
      "d": 10,
      "v": 10
    },
    {
      "midi": 70,
      "hit": false,
      "t": 16320,
      "d": 10,
      "v": 10
    },
    {
      "midi": 70,
      "hit": false,
      "t": 16560,
      "d": 10,
      "v": 5
    },
    {
      "midi": 85,
      "hit": false,
      "t": 16560,
      "d": 10,
      "v": 20
    },
    {
      "midi": 85,
      "hit": false,
      "t": 16800,
      "d": 10,
      "v": 5
    },
    {
      "midi": 31,
      "hit": false,
      "t": 17280,
      "d": 216,
      "v": 100
    },
    {
      "midi": 37,
      "hit": false,
      "t": 17520,
      "d": 216,
      "v": 100
    },
    {
      "midi": 62,
      "hit": false,
      "t": 17760,
      "d": 10,
      "v": 80
    },
    {
      "midi": 42,
      "hit": false,
      "t": 17760,
      "d": 10,
      "v": 80
    },
    {
      "midi": 65,
      "hit": false,
      "t": 17760,
      "d": 216,
      "v": 100
    },
    {
      "midi": 38,
      "hit": false,
      "t": 17760,
      "d": 216,
      "v": 100
    },
    {
      "midi": 83,
      "hit": false,
      "t": 17760,
      "d": 240,
      "v": 100
    },
    {
      "midi": 85,
      "hit": false,
      "t": 18000,
      "d": 10,
      "v": 100
    },
    {
      "midi": 70,
      "hit": false,
      "t": 18000,
      "d": 10,
      "v": 100
    },
    {
      "midi": 41,
      "hit": false,
      "t": 18000,
      "d": 216,
      "v": 100
    },
    {
      "midi": 62,
      "hit": false,
      "t": 18240,
      "d": 10,
      "v": 80
    },
    {
      "midi": 65,
      "hit": false,
      "t": 18240,
      "d": 216,
      "v": 100
    },
    {
      "midi": 59,
      "hit": false,
      "t": 18240,
      "d": 216,
      "v": 100
    },
    {
      "midi": 84,
      "hit": false,
      "t": 18240,
      "d": 240,
      "v": 100
    },
    {
      "midi": 85,
      "hit": false,
      "t": 18480,
      "d": 10,
      "v": 100
    },
    {
      "midi": 70,
      "hit": false,
      "t": 18480,
      "d": 10,
      "v": 70
    },
    {
      "midi": 86,
      "hit": false,
      "t": 18480,
      "d": 240,
      "v": 100
    },
    {
      "midi": 42,
      "hit": false,
      "t": 18720,
      "d": 10,
      "v": 80
    },
    {
      "midi": 85,
      "hit": false,
      "t": 18960,
      "d": 10,
      "v": 70
    },
    {
      "midi": 70,
      "hit": false,
      "t": 18960,
      "d": 10,
      "v": 50
    },
    {
      "midi": 29,
      "hit": false,
      "t": 18960,
      "d": 216,
      "v": 100
    },
    {
      "midi": 89,
      "hit": false,
      "t": 18960,
      "d": 624,
      "v": 100
    },
    {
      "midi": 58,
      "hit": false,
      "t": 18960,
      "d": 888,
      "v": 100
    },
    {
      "midi": 60,
      "hit": false,
      "t": 18960,
      "d": 888,
      "v": 100
    },
    {
      "midi": 85,
      "hit": false,
      "t": 19440,
      "d": 10,
      "v": 50
    },
    {
      "midi": 70,
      "hit": false,
      "t": 19440,
      "d": 10,
      "v": 30
    },
    {
      "midi": 88,
      "hit": false,
      "t": 19610,
      "d": 30,
      "v": 50
    },
    {
      "midi": 86,
      "hit": false,
      "t": 19620,
      "d": 30,
      "v": 80
    },
    {
      "midi": 42,
      "hit": false,
      "t": 19680,
      "d": 10,
      "v": 80
    },
    {
      "midi": 88,
      "hit": false,
      "t": 19680,
      "d": 240,
      "v": 100
    },
    {
      "midi": 85,
      "hit": false,
      "t": 19920,
      "d": 10,
      "v": 30
    },
    {
      "midi": 70,
      "hit": false,
      "t": 19920,
      "d": 10,
      "v": 100
    },
    {
      "midi": 29,
      "hit": false,
      "t": 19920,
      "d": 216,
      "v": 100
    },
    {
      "midi": 57,
      "hit": false,
      "t": 19920,
      "d": 960,
      "v": 100
    },
    {
      "midi": 58,
      "hit": false,
      "t": 19920,
      "d": 960,
      "v": 100
    },
    {
      "midi": 86,
      "hit": false,
      "t": 20160,
      "d": 384,
      "v": 100
    },
    {
      "midi": 85,
      "hit": false,
      "t": 20400,
      "d": 10,
      "v": 10
    },
    {
      "midi": 70,
      "hit": false,
      "t": 20400,
      "d": 10,
      "v": 70
    },
    {
      "midi": 84,
      "hit": false,
      "t": 20570,
      "d": 30,
      "v": 50
    },
    {
      "midi": 83,
      "hit": false,
      "t": 20580,
      "d": 30,
      "v": 80
    },
    {
      "midi": 42,
      "hit": false,
      "t": 20640,
      "d": 10,
      "v": 80
    },
    {
      "midi": 84,
      "hit": false,
      "t": 20640,
      "d": 240,
      "v": 100
    },
    {
      "midi": 70,
      "hit": false,
      "t": 20880,
      "d": 10,
      "v": 50
    },
    {
      "midi": 31,
      "hit": false,
      "t": 20880,
      "d": 456,
      "v": 100
    },
    {
      "midi": 83,
      "hit": false,
      "t": 20880,
      "d": 624,
      "v": 100
    },
    {
      "midi": 70,
      "hit": false,
      "t": 21360,
      "d": 10,
      "v": 30
    },
    {
      "midi": 37,
      "hit": false,
      "t": 21360,
      "d": 216,
      "v": 100
    },
    {
      "midi": 81,
      "hit": false,
      "t": 21530,
      "d": 30,
      "v": 50
    },
    {
      "midi": 79,
      "hit": false,
      "t": 21540,
      "d": 30,
      "v": 80
    },
    {
      "midi": 62,
      "hit": false,
      "t": 21600,
      "d": 10,
      "v": 80
    },
    {
      "midi": 42,
      "hit": false,
      "t": 21600,
      "d": 10,
      "v": 80
    },
    {
      "midi": 65,
      "hit": false,
      "t": 21600,
      "d": 216,
      "v": 100
    },
    {
      "midi": 38,
      "hit": false,
      "t": 21600,
      "d": 216,
      "v": 100
    },
    {
      "midi": 81,
      "hit": false,
      "t": 21600,
      "d": 240,
      "v": 100
    },
    {
      "midi": 85,
      "hit": false,
      "t": 21840,
      "d": 10,
      "v": 100
    },
    {
      "midi": 70,
      "hit": false,
      "t": 21840,
      "d": 10,
      "v": 100
    },
    {
      "midi": 41,
      "hit": false,
      "t": 21840,
      "d": 216,
      "v": 100
    },
    {
      "midi": 62,
      "hit": false,
      "t": 22080,
      "d": 10,
      "v": 80
    },
    {
      "midi": 65,
      "hit": false,
      "t": 22080,
      "d": 216,
      "v": 100
    },
    {
      "midi": 59,
      "hit": false,
      "t": 22080,
      "d": 216,
      "v": 100
    },
    {
      "midi": 79,
      "hit": false,
      "t": 22080,
      "d": 240,
      "v": 100
    },
    {
      "midi": 85,
      "hit": false,
      "t": 22320,
      "d": 10,
      "v": 100
    },
    {
      "midi": 70,
      "hit": false,
      "t": 22320,
      "d": 10,
      "v": 70
    },
    {
      "midi": 74,
      "hit": false,
      "t": 22320,
      "d": 240,
      "v": 100
    },
    {
      "midi": 42,
      "hit": false,
      "t": 22560,
      "d": 10,
      "v": 80
    },
    {
      "midi": 76,
      "hit": false,
      "t": 22560,
      "d": 240,
      "v": 100
    },
    {
      "midi": 85,
      "hit": false,
      "t": 22800,
      "d": 10,
      "v": 70
    },
    {
      "midi": 70,
      "hit": false,
      "t": 22800,
      "d": 10,
      "v": 50
    },
    {
      "midi": 67,
      "hit": false,
      "t": 22800,
      "d": 216,
      "v": 100
    },
    {
      "midi": 55,
      "hit": false,
      "t": 22800,
      "d": 216,
      "v": 100
    },
    {
      "midi": 29,
      "hit": false,
      "t": 22800,
      "d": 216,
      "v": 100
    },
    {
      "midi": 77,
      "hit": false,
      "t": 22800,
      "d": 240,
      "v": 100
    },
    {
      "midi": 85,
      "hit": false,
      "t": 23040,
      "d": 10,
      "v": 30
    },
    {
      "midi": 70,
      "hit": false,
      "t": 23040,
      "d": 10,
      "v": 10
    },
    {
      "midi": 85,
      "hit": false,
      "t": 23280,
      "d": 10,
      "v": 50
    },
    {
      "midi": 70,
      "hit": false,
      "t": 23280,
      "d": 10,
      "v": 30
    },
    {
      "midi": 70,
      "hit": false,
      "t": 23520,
      "d": 10,
      "v": 10
    },
    {
      "midi": 85,
      "hit": false,
      "t": 23520,
      "d": 10,
      "v": 10
    },
    {
      "midi": 70,
      "hit": false,
      "t": 23760,
      "d": 10,
      "v": 10
    },
    {
      "midi": 85,
      "hit": false,
      "t": 23760,
      "d": 10,
      "v": 30
    },
    {
      "midi": 85,
      "hit": false,
      "t": 24000,
      "d": 10,
      "v": 10
    },
    {
      "midi": 70,
      "hit": false,
      "t": 24000,
      "d": 10,
      "v": 10
    },
    {
      "midi": 85,
      "hit": false,
      "t": 24240,
      "d": 10,
      "v": 20
    },
    {
      "midi": 42,
      "hit": false,
      "t": 24240,
      "d": 10,
      "v": 80
    },
    {
      "midi": 70,
      "hit": false,
      "t": 24240,
      "d": 10,
      "v": 5
    },
    {
      "midi": 46,
      "hit": false,
      "t": 24480,
      "d": 10,
      "v": 80
    },
    {
      "midi": 85,
      "hit": false,
      "t": 24480,
      "d": 10,
      "v": 5
    },
    {
      "midi": 31,
      "hit": false,
      "t": 24960,
      "d": 216,
      "v": 100
    },
    {
      "midi": 37,
      "hit": false,
      "t": 25200,
      "d": 216,
      "v": 100
    },
    {
      "midi": 62,
      "hit": false,
      "t": 25440,
      "d": 10,
      "v": 80
    },
    {
      "midi": 42,
      "hit": false,
      "t": 25440,
      "d": 10,
      "v": 80
    },
    {
      "midi": 65,
      "hit": false,
      "t": 25440,
      "d": 216,
      "v": 100
    },
    {
      "midi": 38,
      "hit": false,
      "t": 25440,
      "d": 216,
      "v": 100
    },
    {
      "midi": 83,
      "hit": false,
      "t": 25440,
      "d": 240,
      "v": 100
    },
    {
      "midi": 85,
      "hit": false,
      "t": 25680,
      "d": 10,
      "v": 100
    },
    {
      "midi": 70,
      "hit": false,
      "t": 25680,
      "d": 10,
      "v": 100
    },
    {
      "midi": 41,
      "hit": false,
      "t": 25680,
      "d": 216,
      "v": 100
    },
    {
      "midi": 62,
      "hit": false,
      "t": 25920,
      "d": 10,
      "v": 80
    },
    {
      "midi": 65,
      "hit": false,
      "t": 25920,
      "d": 216,
      "v": 100
    },
    {
      "midi": 59,
      "hit": false,
      "t": 25920,
      "d": 216,
      "v": 100
    },
    {
      "midi": 84,
      "hit": false,
      "t": 25920,
      "d": 240,
      "v": 100
    },
    {
      "midi": 85,
      "hit": false,
      "t": 26160,
      "d": 10,
      "v": 100
    },
    {
      "midi": 70,
      "hit": false,
      "t": 26160,
      "d": 10,
      "v": 70
    },
    {
      "midi": 86,
      "hit": false,
      "t": 26160,
      "d": 240,
      "v": 100
    },
    {
      "midi": 42,
      "hit": false,
      "t": 26400,
      "d": 10,
      "v": 80
    },
    {
      "midi": 85,
      "hit": false,
      "t": 26640,
      "d": 10,
      "v": 70
    },
    {
      "midi": 70,
      "hit": false,
      "t": 26640,
      "d": 10,
      "v": 50
    },
    {
      "midi": 29,
      "hit": false,
      "t": 26640,
      "d": 216,
      "v": 100
    },
    {
      "midi": 89,
      "hit": false,
      "t": 26640,
      "d": 624,
      "v": 100
    },
    {
      "midi": 58,
      "hit": false,
      "t": 26640,
      "d": 888,
      "v": 100
    },
    {
      "midi": 60,
      "hit": false,
      "t": 26640,
      "d": 888,
      "v": 100
    },
    {
      "midi": 85,
      "hit": false,
      "t": 27120,
      "d": 10,
      "v": 50
    },
    {
      "midi": 70,
      "hit": false,
      "t": 27120,
      "d": 10,
      "v": 30
    },
    {
      "midi": 88,
      "hit": false,
      "t": 27290,
      "d": 30,
      "v": 50
    },
    {
      "midi": 86,
      "hit": false,
      "t": 27300,
      "d": 30,
      "v": 80
    },
    {
      "midi": 42,
      "hit": false,
      "t": 27360,
      "d": 10,
      "v": 80
    },
    {
      "midi": 88,
      "hit": false,
      "t": 27360,
      "d": 240,
      "v": 100
    },
    {
      "midi": 85,
      "hit": false,
      "t": 27600,
      "d": 10,
      "v": 30
    },
    {
      "midi": 70,
      "hit": false,
      "t": 27600,
      "d": 10,
      "v": 100
    },
    {
      "midi": 29,
      "hit": false,
      "t": 27600,
      "d": 216,
      "v": 100
    },
    {
      "midi": 57,
      "hit": false,
      "t": 27600,
      "d": 960,
      "v": 100
    },
    {
      "midi": 58,
      "hit": false,
      "t": 27600,
      "d": 960,
      "v": 100
    },
    {
      "midi": 86,
      "hit": false,
      "t": 27840,
      "d": 384,
      "v": 100
    },
    {
      "midi": 85,
      "hit": false,
      "t": 28080,
      "d": 10,
      "v": 10
    },
    {
      "midi": 70,
      "hit": false,
      "t": 28080,
      "d": 10,
      "v": 70
    },
    {
      "midi": 84,
      "hit": false,
      "t": 28250,
      "d": 30,
      "v": 50
    },
    {
      "midi": 83,
      "hit": false,
      "t": 28260,
      "d": 30,
      "v": 80
    },
    {
      "midi": 42,
      "hit": false,
      "t": 28320,
      "d": 10,
      "v": 80
    },
    {
      "midi": 84,
      "hit": false,
      "t": 28320,
      "d": 240,
      "v": 100
    },
    {
      "midi": 70,
      "hit": false,
      "t": 28560,
      "d": 10,
      "v": 50
    },
    {
      "midi": 31,
      "hit": false,
      "t": 28560,
      "d": 456,
      "v": 100
    },
    {
      "midi": 83,
      "hit": false,
      "t": 28560,
      "d": 624,
      "v": 100
    },
    {
      "midi": 70,
      "hit": false,
      "t": 29040,
      "d": 10,
      "v": 30
    },
    {
      "midi": 37,
      "hit": false,
      "t": 29040,
      "d": 216,
      "v": 100
    },
    {
      "midi": 81,
      "hit": false,
      "t": 29210,
      "d": 30,
      "v": 50
    },
    {
      "midi": 79,
      "hit": false,
      "t": 29220,
      "d": 30,
      "v": 80
    },
    {
      "midi": 62,
      "hit": false,
      "t": 29280,
      "d": 10,
      "v": 80
    },
    {
      "midi": 42,
      "hit": false,
      "t": 29280,
      "d": 10,
      "v": 80
    },
    {
      "midi": 65,
      "hit": false,
      "t": 29280,
      "d": 216,
      "v": 100
    },
    {
      "midi": 38,
      "hit": false,
      "t": 29280,
      "d": 216,
      "v": 100
    },
    {
      "midi": 81,
      "hit": false,
      "t": 29280,
      "d": 240,
      "v": 100
    },
    {
      "midi": 85,
      "hit": false,
      "t": 29520,
      "d": 10,
      "v": 100
    },
    {
      "midi": 70,
      "hit": false,
      "t": 29520,
      "d": 10,
      "v": 100
    },
    {
      "midi": 41,
      "hit": false,
      "t": 29520,
      "d": 216,
      "v": 100
    },
    {
      "midi": 62,
      "hit": false,
      "t": 29760,
      "d": 10,
      "v": 80
    },
    {
      "midi": 65,
      "hit": false,
      "t": 29760,
      "d": 216,
      "v": 100
    },
    {
      "midi": 59,
      "hit": false,
      "t": 29760,
      "d": 216,
      "v": 100
    },
    {
      "midi": 79,
      "hit": false,
      "t": 29760,
      "d": 240,
      "v": 100
    },
    {
      "midi": 85,
      "hit": false,
      "t": 30000,
      "d": 10,
      "v": 100
    },
    {
      "midi": 70,
      "hit": false,
      "t": 30000,
      "d": 10,
      "v": 70
    },
    {
      "midi": 86,
      "hit": false,
      "t": 30000,
      "d": 240,
      "v": 100
    },
    {
      "midi": 42,
      "hit": false,
      "t": 30240,
      "d": 10,
      "v": 80
    },
    {
      "midi": 91,
      "hit": false,
      "t": 30240,
      "d": 240,
      "v": 100
    },
    {
      "midi": 85,
      "hit": false,
      "t": 30480,
      "d": 10,
      "v": 70
    },
    {
      "midi": 70,
      "hit": false,
      "t": 30480,
      "d": 10,
      "v": 50
    },
    {
      "midi": 65,
      "hit": false,
      "t": 30480,
      "d": 216,
      "v": 100
    },
    {
      "midi": 77,
      "hit": false,
      "t": 30480,
      "d": 216,
      "v": 100
    },
    {
      "midi": 29,
      "hit": false,
      "t": 30480,
      "d": 216,
      "v": 100
    },
    {
      "midi": 89,
      "hit": false,
      "t": 30480,
      "d": 240,
      "v": 100
    },
    {
      "midi": 85,
      "hit": false,
      "t": 30720,
      "d": 10,
      "v": 30
    },
    {
      "midi": 70,
      "hit": false,
      "t": 30720,
      "d": 10,
      "v": 10
    },
    {
      "midi": 85,
      "hit": false,
      "t": 30960,
      "d": 10,
      "v": 50
    },
    {
      "midi": 70,
      "hit": false,
      "t": 30960,
      "d": 10,
      "v": 30
    },
    {
      "midi": 70,
      "hit": false,
      "t": 31200,
      "d": 10,
      "v": 10
    },
    {
      "midi": 85,
      "hit": false,
      "t": 31200,
      "d": 10,
      "v": 10
    },
    {
      "midi": 70,
      "hit": false,
      "t": 31440,
      "d": 10,
      "v": 10
    },
    {
      "midi": 85,
      "hit": false,
      "t": 31440,
      "d": 10,
      "v": 30
    },
    {
      "midi": 85,
      "hit": false,
      "t": 31680,
      "d": 10,
      "v": 10
    },
    {
      "midi": 70,
      "hit": false,
      "t": 31680,
      "d": 10,
      "v": 10
    },
    {
      "midi": 85,
      "hit": false,
      "t": 31920,
      "d": 10,
      "v": 20
    },
    {
      "midi": 42,
      "hit": false,
      "t": 31920,
      "d": 10,
      "v": 80
    },
    {
      "midi": 70,
      "hit": false,
      "t": 31920,
      "d": 10,
      "v": 5
    },
    {
      "midi": 46,
      "hit": false,
      "t": 32160,
      "d": 10,
      "v": 80
    },
    {
      "midi": 85,
      "hit": false,
      "t": 32160,
      "d": 10,
      "v": 5
    },
    {
      "midi": 33,
      "hit": false,
      "t": 32640,
      "d": 216,
      "v": 100
    },
    {
      "midi": 79,
      "hit": false,
      "t": 32640,
      "d": 240,
      "v": 100
    },
    {
      "midi": 39,
      "hit": false,
      "t": 32880,
      "d": 216,
      "v": 100
    },
    {
      "midi": 79,
      "hit": false,
      "t": 32880,
      "d": 240,
      "v": 100
    },
    {
      "midi": 62,
      "hit": false,
      "t": 33120,
      "d": 10,
      "v": 80
    },
    {
      "midi": 42,
      "hit": false,
      "t": 33120,
      "d": 10,
      "v": 80
    },
    {
      "midi": 67,
      "hit": false,
      "t": 33120,
      "d": 216,
      "v": 100
    },
    {
      "midi": 40,
      "hit": false,
      "t": 33120,
      "d": 216,
      "v": 100
    },
    {
      "midi": 85,
      "hit": false,
      "t": 33360,
      "d": 10,
      "v": 100
    },
    {
      "midi": 70,
      "hit": false,
      "t": 33360,
      "d": 10,
      "v": 100
    },
    {
      "midi": 43,
      "hit": false,
      "t": 33360,
      "d": 216,
      "v": 100
    },
    {
      "midi": 76,
      "hit": false,
      "t": 33360,
      "d": 240,
      "v": 100
    },
    {
      "midi": 62,
      "hit": false,
      "t": 33600,
      "d": 10,
      "v": 80
    },
    {
      "midi": 67,
      "hit": false,
      "t": 33600,
      "d": 216,
      "v": 100
    },
    {
      "midi": 61,
      "hit": false,
      "t": 33600,
      "d": 216,
      "v": 100
    },
    {
      "midi": 79,
      "hit": false,
      "t": 33600,
      "d": 240,
      "v": 100
    },
    {
      "midi": 85,
      "hit": false,
      "t": 33840,
      "d": 10,
      "v": 100
    },
    {
      "midi": 70,
      "hit": false,
      "t": 33840,
      "d": 10,
      "v": 70
    },
    {
      "midi": 79,
      "hit": false,
      "t": 33840,
      "d": 240,
      "v": 100
    },
    {
      "midi": 42,
      "hit": false,
      "t": 34080,
      "d": 10,
      "v": 80
    },
    {
      "midi": 70,
      "hit": false,
      "t": 34320,
      "d": 10,
      "v": 50
    },
    {
      "midi": 85,
      "hit": false,
      "t": 34320,
      "d": 10,
      "v": 70
    },
    {
      "midi": 31,
      "hit": false,
      "t": 34320,
      "d": 216,
      "v": 100
    },
    {
      "midi": 86,
      "hit": false,
      "t": 34320,
      "d": 624,
      "v": 100
    },
    {
      "midi": 55,
      "hit": false,
      "t": 34320,
      "d": 888,
      "v": 100
    },
    {
      "midi": 62,
      "hit": false,
      "t": 34320,
      "d": 888,
      "v": 100
    },
    {
      "midi": 85,
      "hit": false,
      "t": 34800,
      "d": 10,
      "v": 50
    },
    {
      "midi": 70,
      "hit": false,
      "t": 34800,
      "d": 10,
      "v": 30
    },
    {
      "midi": 84,
      "hit": false,
      "t": 34970,
      "d": 30,
      "v": 50
    },
    {
      "midi": 83,
      "hit": false,
      "t": 34980,
      "d": 30,
      "v": 80
    },
    {
      "midi": 42,
      "hit": false,
      "t": 35040,
      "d": 10,
      "v": 80
    },
    {
      "midi": 84,
      "hit": false,
      "t": 35040,
      "d": 240,
      "v": 100
    },
    {
      "midi": 85,
      "hit": false,
      "t": 35280,
      "d": 10,
      "v": 30
    },
    {
      "midi": 70,
      "hit": false,
      "t": 35280,
      "d": 10,
      "v": 100
    },
    {
      "midi": 31,
      "hit": false,
      "t": 35280,
      "d": 216,
      "v": 100
    },
    {
      "midi": 59,
      "hit": false,
      "t": 35280,
      "d": 960,
      "v": 100
    },
    {
      "midi": 62,
      "hit": false,
      "t": 35280,
      "d": 960,
      "v": 100
    },
    {
      "midi": 83,
      "hit": false,
      "t": 35520,
      "d": 384,
      "v": 100
    },
    {
      "midi": 85,
      "hit": false,
      "t": 35760,
      "d": 10,
      "v": 10
    },
    {
      "midi": 70,
      "hit": false,
      "t": 35760,
      "d": 10,
      "v": 70
    },
    {
      "midi": 81,
      "hit": false,
      "t": 35930,
      "d": 30,
      "v": 50
    },
    {
      "midi": 79,
      "hit": false,
      "t": 35940,
      "d": 30,
      "v": 80
    },
    {
      "midi": 42,
      "hit": false,
      "t": 36000,
      "d": 10,
      "v": 80
    },
    {
      "midi": 81,
      "hit": false,
      "t": 36000,
      "d": 240,
      "v": 100
    },
    {
      "midi": 70,
      "hit": false,
      "t": 36240,
      "d": 10,
      "v": 50
    },
    {
      "midi": 33,
      "hit": false,
      "t": 36240,
      "d": 456,
      "v": 100
    },
    {
      "midi": 79,
      "hit": false,
      "t": 36240,
      "d": 480,
      "v": 100
    },
    {
      "midi": 70,
      "hit": false,
      "t": 36720,
      "d": 10,
      "v": 30
    },
    {
      "midi": 39,
      "hit": false,
      "t": 36720,
      "d": 216,
      "v": 100
    },
    {
      "midi": 79,
      "hit": false,
      "t": 36720,
      "d": 240,
      "v": 100
    },
    {
      "midi": 62,
      "hit": false,
      "t": 36960,
      "d": 10,
      "v": 80
    },
    {
      "midi": 42,
      "hit": false,
      "t": 36960,
      "d": 10,
      "v": 80
    },
    {
      "midi": 67,
      "hit": false,
      "t": 36960,
      "d": 216,
      "v": 100
    },
    {
      "midi": 40,
      "hit": false,
      "t": 36960,
      "d": 216,
      "v": 100
    },
    {
      "midi": 85,
      "hit": false,
      "t": 37200,
      "d": 10,
      "v": 100
    },
    {
      "midi": 70,
      "hit": false,
      "t": 37200,
      "d": 10,
      "v": 100
    },
    {
      "midi": 43,
      "hit": false,
      "t": 37200,
      "d": 216,
      "v": 100
    },
    {
      "midi": 76,
      "hit": false,
      "t": 37200,
      "d": 240,
      "v": 100
    },
    {
      "midi": 62,
      "hit": false,
      "t": 37440,
      "d": 10,
      "v": 80
    },
    {
      "midi": 67,
      "hit": false,
      "t": 37440,
      "d": 216,
      "v": 100
    },
    {
      "midi": 61,
      "hit": false,
      "t": 37440,
      "d": 216,
      "v": 100
    },
    {
      "midi": 79,
      "hit": false,
      "t": 37440,
      "d": 240,
      "v": 100
    },
    {
      "midi": 85,
      "hit": false,
      "t": 37680,
      "d": 10,
      "v": 100
    },
    {
      "midi": 70,
      "hit": false,
      "t": 37680,
      "d": 10,
      "v": 70
    },
    {
      "midi": 83,
      "hit": false,
      "t": 37680,
      "d": 240,
      "v": 100
    },
    {
      "midi": 42,
      "hit": false,
      "t": 37920,
      "d": 10,
      "v": 80
    },
    {
      "midi": 90,
      "hit": false,
      "t": 37920,
      "d": 240,
      "v": 100
    },
    {
      "midi": 85,
      "hit": false,
      "t": 38160,
      "d": 10,
      "v": 70
    },
    {
      "midi": 70,
      "hit": false,
      "t": 38160,
      "d": 10,
      "v": 50
    },
    {
      "midi": 62,
      "hit": false,
      "t": 38160,
      "d": 216,
      "v": 100
    },
    {
      "midi": 59,
      "hit": false,
      "t": 38160,
      "d": 216,
      "v": 100
    },
    {
      "midi": 31,
      "hit": false,
      "t": 38160,
      "d": 216,
      "v": 100
    },
    {
      "midi": 88,
      "hit": false,
      "t": 38160,
      "d": 240,
      "v": 100
    },
    {
      "midi": 85,
      "hit": false,
      "t": 38400,
      "d": 10,
      "v": 30
    },
    {
      "midi": 70,
      "hit": false,
      "t": 38400,
      "d": 10,
      "v": 10
    },
    {
      "midi": 85,
      "hit": false,
      "t": 38640,
      "d": 10,
      "v": 50
    },
    {
      "midi": 70,
      "hit": false,
      "t": 38640,
      "d": 10,
      "v": 30
    },
    {
      "midi": 70,
      "hit": false,
      "t": 38880,
      "d": 10,
      "v": 10
    },
    {
      "midi": 85,
      "hit": false,
      "t": 38880,
      "d": 10,
      "v": 10
    },
    {
      "midi": 70,
      "hit": false,
      "t": 39120,
      "d": 10,
      "v": 10
    },
    {
      "midi": 85,
      "hit": false,
      "t": 39120,
      "d": 10,
      "v": 30
    },
    {
      "midi": 85,
      "hit": false,
      "t": 39360,
      "d": 10,
      "v": 10
    },
    {
      "midi": 70,
      "hit": false,
      "t": 39360,
      "d": 10,
      "v": 10
    },
    {
      "midi": 85,
      "hit": false,
      "t": 39600,
      "d": 10,
      "v": 20
    },
    {
      "midi": 42,
      "hit": false,
      "t": 39600,
      "d": 10,
      "v": 80
    },
    {
      "midi": 70,
      "hit": false,
      "t": 39600,
      "d": 10,
      "v": 5
    },
    {
      "midi": 46,
      "hit": false,
      "t": 39840,
      "d": 10,
      "v": 80
    },
    {
      "midi": 85,
      "hit": false,
      "t": 39840,
      "d": 10,
      "v": 5
    },
    {
      "midi": 33,
      "hit": false,
      "t": 40320,
      "d": 216,
      "v": 100
    },
    {
      "midi": 39,
      "hit": false,
      "t": 40560,
      "d": 216,
      "v": 100
    },
    {
      "midi": 62,
      "hit": false,
      "t": 40800,
      "d": 10,
      "v": 80
    },
    {
      "midi": 42,
      "hit": false,
      "t": 40800,
      "d": 10,
      "v": 80
    },
    {
      "midi": 67,
      "hit": false,
      "t": 40800,
      "d": 216,
      "v": 100
    },
    {
      "midi": 40,
      "hit": false,
      "t": 40800,
      "d": 216,
      "v": 100
    },
    {
      "midi": 85,
      "hit": false,
      "t": 40800,
      "d": 240,
      "v": 100
    },
    {
      "midi": 85,
      "hit": false,
      "t": 41040,
      "d": 10,
      "v": 100
    },
    {
      "midi": 70,
      "hit": false,
      "t": 41040,
      "d": 10,
      "v": 100
    },
    {
      "midi": 43,
      "hit": false,
      "t": 41040,
      "d": 216,
      "v": 100
    },
    {
      "midi": 62,
      "hit": false,
      "t": 41280,
      "d": 10,
      "v": 80
    },
    {
      "midi": 67,
      "hit": false,
      "t": 41280,
      "d": 216,
      "v": 100
    },
    {
      "midi": 61,
      "hit": false,
      "t": 41280,
      "d": 216,
      "v": 100
    },
    {
      "midi": 86,
      "hit": false,
      "t": 41280,
      "d": 240,
      "v": 100
    },
    {
      "midi": 85,
      "hit": false,
      "t": 41520,
      "d": 10,
      "v": 100
    },
    {
      "midi": 70,
      "hit": false,
      "t": 41520,
      "d": 10,
      "v": 70
    },
    {
      "midi": 88,
      "hit": false,
      "t": 41520,
      "d": 240,
      "v": 100
    },
    {
      "midi": 42,
      "hit": false,
      "t": 41760,
      "d": 10,
      "v": 80
    },
    {
      "midi": 85,
      "hit": false,
      "t": 42000,
      "d": 10,
      "v": 70
    },
    {
      "midi": 70,
      "hit": false,
      "t": 42000,
      "d": 10,
      "v": 50
    },
    {
      "midi": 31,
      "hit": false,
      "t": 42000,
      "d": 216,
      "v": 100
    },
    {
      "midi": 91,
      "hit": false,
      "t": 42000,
      "d": 624,
      "v": 100
    },
    {
      "midi": 55,
      "hit": false,
      "t": 42000,
      "d": 888,
      "v": 100
    },
    {
      "midi": 62,
      "hit": false,
      "t": 42000,
      "d": 888,
      "v": 100
    },
    {
      "midi": 85,
      "hit": false,
      "t": 42480,
      "d": 10,
      "v": 50
    },
    {
      "midi": 70,
      "hit": false,
      "t": 42480,
      "d": 10,
      "v": 30
    },
    {
      "midi": 89,
      "hit": false,
      "t": 42650,
      "d": 30,
      "v": 50
    },
    {
      "midi": 88,
      "hit": false,
      "t": 42660,
      "d": 30,
      "v": 80
    },
    {
      "midi": 42,
      "hit": false,
      "t": 42720,
      "d": 10,
      "v": 80
    },
    {
      "midi": 90,
      "hit": false,
      "t": 42720,
      "d": 240,
      "v": 100
    },
    {
      "midi": 85,
      "hit": false,
      "t": 42960,
      "d": 10,
      "v": 30
    },
    {
      "midi": 70,
      "hit": false,
      "t": 42960,
      "d": 10,
      "v": 100
    },
    {
      "midi": 31,
      "hit": false,
      "t": 42960,
      "d": 216,
      "v": 100
    },
    {
      "midi": 59,
      "hit": false,
      "t": 42960,
      "d": 960,
      "v": 100
    },
    {
      "midi": 62,
      "hit": false,
      "t": 42960,
      "d": 960,
      "v": 100
    },
    {
      "midi": 88,
      "hit": false,
      "t": 43200,
      "d": 384,
      "v": 100
    },
    {
      "midi": 85,
      "hit": false,
      "t": 43440,
      "d": 10,
      "v": 10
    },
    {
      "midi": 70,
      "hit": false,
      "t": 43440,
      "d": 10,
      "v": 70
    },
    {
      "midi": 86,
      "hit": false,
      "t": 43610,
      "d": 30,
      "v": 50
    },
    {
      "midi": 84,
      "hit": false,
      "t": 43620,
      "d": 30,
      "v": 80
    },
    {
      "midi": 42,
      "hit": false,
      "t": 43680,
      "d": 10,
      "v": 80
    },
    {
      "midi": 86,
      "hit": false,
      "t": 43680,
      "d": 240,
      "v": 100
    },
    {
      "midi": 70,
      "hit": false,
      "t": 43920,
      "d": 10,
      "v": 50
    },
    {
      "midi": 33,
      "hit": false,
      "t": 43920,
      "d": 456,
      "v": 100
    },
    {
      "midi": 85,
      "hit": false,
      "t": 43920,
      "d": 624,
      "v": 100
    },
    {
      "midi": 70,
      "hit": false,
      "t": 44400,
      "d": 10,
      "v": 30
    },
    {
      "midi": 39,
      "hit": false,
      "t": 44400,
      "d": 216,
      "v": 100
    },
    {
      "midi": 83,
      "hit": false,
      "t": 44570,
      "d": 30,
      "v": 50
    },
    {
      "midi": 81,
      "hit": false,
      "t": 44580,
      "d": 30,
      "v": 80
    },
    {
      "midi": 62,
      "hit": false,
      "t": 44640,
      "d": 10,
      "v": 80
    },
    {
      "midi": 42,
      "hit": false,
      "t": 44640,
      "d": 10,
      "v": 80
    },
    {
      "midi": 67,
      "hit": false,
      "t": 44640,
      "d": 216,
      "v": 100
    },
    {
      "midi": 40,
      "hit": false,
      "t": 44640,
      "d": 216,
      "v": 100
    },
    {
      "midi": 83,
      "hit": false,
      "t": 44640,
      "d": 240,
      "v": 100
    },
    {
      "midi": 85,
      "hit": false,
      "t": 44880,
      "d": 10,
      "v": 100
    },
    {
      "midi": 70,
      "hit": false,
      "t": 44880,
      "d": 10,
      "v": 100
    },
    {
      "midi": 43,
      "hit": false,
      "t": 44880,
      "d": 216,
      "v": 100
    },
    {
      "midi": 62,
      "hit": false,
      "t": 45120,
      "d": 10,
      "v": 80
    },
    {
      "midi": 67,
      "hit": false,
      "t": 45120,
      "d": 216,
      "v": 100
    },
    {
      "midi": 61,
      "hit": false,
      "t": 45120,
      "d": 216,
      "v": 100
    },
    {
      "midi": 81,
      "hit": false,
      "t": 45120,
      "d": 240,
      "v": 100
    },
    {
      "midi": 85,
      "hit": false,
      "t": 45360,
      "d": 10,
      "v": 100
    },
    {
      "midi": 70,
      "hit": false,
      "t": 45360,
      "d": 10,
      "v": 70
    },
    {
      "midi": 76,
      "hit": false,
      "t": 45360,
      "d": 240,
      "v": 100
    },
    {
      "midi": 42,
      "hit": false,
      "t": 45600,
      "d": 10,
      "v": 80
    },
    {
      "midi": 78,
      "hit": false,
      "t": 45600,
      "d": 240,
      "v": 100
    },
    {
      "midi": 85,
      "hit": false,
      "t": 45840,
      "d": 10,
      "v": 70
    },
    {
      "midi": 70,
      "hit": false,
      "t": 45840,
      "d": 10,
      "v": 50
    },
    {
      "midi": 67,
      "hit": false,
      "t": 45840,
      "d": 216,
      "v": 100
    },
    {
      "midi": 55,
      "hit": false,
      "t": 45840,
      "d": 216,
      "v": 100
    },
    {
      "midi": 31,
      "hit": false,
      "t": 45840,
      "d": 216,
      "v": 100
    },
    {
      "midi": 79,
      "hit": false,
      "t": 45840,
      "d": 240,
      "v": 100
    },
    {
      "midi": 85,
      "hit": false,
      "t": 46080,
      "d": 10,
      "v": 30
    },
    {
      "midi": 70,
      "hit": false,
      "t": 46080,
      "d": 10,
      "v": 10
    },
    {
      "midi": 85,
      "hit": false,
      "t": 46320,
      "d": 10,
      "v": 50
    },
    {
      "midi": 70,
      "hit": false,
      "t": 46320,
      "d": 10,
      "v": 30
    },
    {
      "midi": 70,
      "hit": false,
      "t": 46560,
      "d": 10,
      "v": 10
    },
    {
      "midi": 85,
      "hit": false,
      "t": 46560,
      "d": 10,
      "v": 10
    },
    {
      "midi": 70,
      "hit": false,
      "t": 46800,
      "d": 10,
      "v": 10
    },
    {
      "midi": 85,
      "hit": false,
      "t": 46800,
      "d": 10,
      "v": 30
    },
    {
      "midi": 85,
      "hit": false,
      "t": 47040,
      "d": 10,
      "v": 10
    },
    {
      "midi": 70,
      "hit": false,
      "t": 47040,
      "d": 10,
      "v": 10
    },
    {
      "midi": 85,
      "hit": false,
      "t": 47280,
      "d": 10,
      "v": 20
    },
    {
      "midi": 70,
      "hit": false,
      "t": 47280,
      "d": 10,
      "v": 5
    },
    {
      "midi": 85,
      "hit": false,
      "t": 47520,
      "d": 10,
      "v": 5
    },
    {
      "midi": 42,
      "hit": false,
      "t": 48000,
      "d": 10,
      "v": 80
    },
    {
      "midi": 39,
      "hit": false,
      "t": 48000,
      "d": 216,
      "v": 100
    },
    {
      "midi": 51,
      "hit": false,
      "t": 48000,
      "d": 480,
      "v": 100
    },
    {
      "midi": 67,
      "hit": false,
      "t": 48000,
      "d": 1440,
      "v": 100
    },
    {
      "midi": 42,
      "hit": false,
      "t": 48240,
      "d": 10,
      "v": 80
    },
    {
      "midi": 39,
      "hit": false,
      "t": 48240,
      "d": 216,
      "v": 100
    },
    {
      "midi": 46,
      "hit": false,
      "t": 48480,
      "d": 10,
      "v": 80
    },
    {
      "midi": 58,
      "hit": false,
      "t": 48480,
      "d": 240,
      "v": 100
    },
    {
      "midi": 85,
      "hit": false,
      "t": 48720,
      "d": 10,
      "v": 100
    },
    {
      "midi": 34,
      "hit": false,
      "t": 48720,
      "d": 216,
      "v": 100
    },
    {
      "midi": 60,
      "hit": false,
      "t": 48720,
      "d": 480,
      "v": 100
    },
    {
      "midi": 62,
      "hit": false,
      "t": 48960,
      "d": 10,
      "v": 80
    },
    {
      "midi": 42,
      "hit": false,
      "t": 48960,
      "d": 10,
      "v": 80
    },
    {
      "midi": 36,
      "hit": false,
      "t": 48960,
      "d": 216,
      "v": 100
    },
    {
      "midi": 62,
      "hit": false,
      "t": 49200,
      "d": 10,
      "v": 60
    },
    {
      "midi": 42,
      "hit": false,
      "t": 49200,
      "d": 10,
      "v": 80
    },
    {
      "midi": 34,
      "hit": false,
      "t": 49200,
      "d": 216,
      "v": 100
    },
    {
      "midi": 58,
      "hit": false,
      "t": 49200,
      "d": 240,
      "v": 100
    },
    {
      "midi": 62,
      "hit": false,
      "t": 49440,
      "d": 10,
      "v": 30
    },
    {
      "midi": 46,
      "hit": false,
      "t": 49440,
      "d": 10,
      "v": 80
    },
    {
      "midi": 36,
      "hit": false,
      "t": 49440,
      "d": 216,
      "v": 100
    },
    {
      "midi": 65,
      "hit": false,
      "t": 49440,
      "d": 480,
      "v": 120
    },
    {
      "midi": 85,
      "hit": false,
      "t": 49680,
      "d": 10,
      "v": 100
    },
    {
      "midi": 37,
      "hit": false,
      "t": 49680,
      "d": 456,
      "v": 100
    },
    {
      "midi": 61,
      "hit": false,
      "t": 49680,
      "d": 2160,
      "v": 100
    },
    {
      "midi": 68,
      "hit": false,
      "t": 49680,
      "d": 2160,
      "v": 100
    },
    {
      "midi": 62,
      "hit": false,
      "t": 49920,
      "d": 10,
      "v": 80
    },
    {
      "midi": 42,
      "hit": false,
      "t": 49920,
      "d": 10,
      "v": 80
    },
    {
      "midi": 65,
      "hit": false,
      "t": 49920,
      "d": 240,
      "v": 70
    },
    {
      "midi": 62,
      "hit": false,
      "t": 50160,
      "d": 10,
      "v": 60
    },
    {
      "midi": 42,
      "hit": false,
      "t": 50160,
      "d": 10,
      "v": 80
    },
    {
      "midi": 37,
      "hit": false,
      "t": 50160,
      "d": 216,
      "v": 100
    },
    {
      "midi": 63,
      "hit": false,
      "t": 50160,
      "d": 480,
      "v": 100
    },
    {
      "midi": 62,
      "hit": false,
      "t": 50400,
      "d": 10,
      "v": 30
    },
    {
      "midi": 46,
      "hit": false,
      "t": 50400,
      "d": 10,
      "v": 80
    },
    {
      "midi": 85,
      "hit": false,
      "t": 50640,
      "d": 10,
      "v": 100
    },
    {
      "midi": 32,
      "hit": false,
      "t": 50640,
      "d": 216,
      "v": 100
    },
    {
      "midi": 58,
      "hit": false,
      "t": 50640,
      "d": 480,
      "v": 100
    },
    {
      "midi": 62,
      "hit": false,
      "t": 50880,
      "d": 10,
      "v": 80
    },
    {
      "midi": 42,
      "hit": false,
      "t": 50880,
      "d": 10,
      "v": 80
    },
    {
      "midi": 37,
      "hit": false,
      "t": 50880,
      "d": 216,
      "v": 100
    },
    {
      "midi": 62,
      "hit": false,
      "t": 51120,
      "d": 10,
      "v": 60
    },
    {
      "midi": 42,
      "hit": false,
      "t": 51120,
      "d": 10,
      "v": 80
    },
    {
      "midi": 37,
      "hit": false,
      "t": 51120,
      "d": 216,
      "v": 100
    },
    {
      "midi": 53,
      "hit": false,
      "t": 51120,
      "d": 480,
      "v": 100
    },
    {
      "midi": 62,
      "hit": false,
      "t": 51360,
      "d": 10,
      "v": 30
    },
    {
      "midi": 46,
      "hit": false,
      "t": 51360,
      "d": 10,
      "v": 80
    },
    {
      "midi": 85,
      "hit": false,
      "t": 51600,
      "d": 10,
      "v": 100
    },
    {
      "midi": 32,
      "hit": false,
      "t": 51600,
      "d": 216,
      "v": 100
    },
    {
      "midi": 51,
      "hit": false,
      "t": 51600,
      "d": 240,
      "v": 70
    },
    {
      "midi": 62,
      "hit": false,
      "t": 51840,
      "d": 10,
      "v": 80
    },
    {
      "midi": 42,
      "hit": false,
      "t": 51840,
      "d": 10,
      "v": 80
    },
    {
      "midi": 39,
      "hit": false,
      "t": 51840,
      "d": 216,
      "v": 100
    },
    {
      "midi": 51,
      "hit": false,
      "t": 51840,
      "d": 480,
      "v": 100
    },
    {
      "midi": 67,
      "hit": false,
      "t": 51840,
      "d": 1440,
      "v": 100
    },
    {
      "midi": 62,
      "hit": false,
      "t": 52080,
      "d": 10,
      "v": 60
    },
    {
      "midi": 42,
      "hit": false,
      "t": 52080,
      "d": 10,
      "v": 80
    },
    {
      "midi": 39,
      "hit": false,
      "t": 52080,
      "d": 216,
      "v": 100
    },
    {
      "midi": 62,
      "hit": false,
      "t": 52320,
      "d": 10,
      "v": 30
    },
    {
      "midi": 46,
      "hit": false,
      "t": 52320,
      "d": 10,
      "v": 80
    },
    {
      "midi": 58,
      "hit": false,
      "t": 52320,
      "d": 240,
      "v": 100
    },
    {
      "midi": 85,
      "hit": false,
      "t": 52560,
      "d": 10,
      "v": 100
    },
    {
      "midi": 34,
      "hit": false,
      "t": 52560,
      "d": 216,
      "v": 100
    },
    {
      "midi": 65,
      "hit": false,
      "t": 52560,
      "d": 480,
      "v": 120
    },
    {
      "midi": 62,
      "hit": false,
      "t": 52800,
      "d": 10,
      "v": 80
    },
    {
      "midi": 42,
      "hit": false,
      "t": 52800,
      "d": 10,
      "v": 80
    },
    {
      "midi": 36,
      "hit": false,
      "t": 52800,
      "d": 216,
      "v": 100
    },
    {
      "midi": 62,
      "hit": false,
      "t": 53040,
      "d": 10,
      "v": 60
    },
    {
      "midi": 42,
      "hit": false,
      "t": 53040,
      "d": 10,
      "v": 80
    },
    {
      "midi": 34,
      "hit": false,
      "t": 53040,
      "d": 216,
      "v": 100
    },
    {
      "midi": 63,
      "hit": false,
      "t": 53040,
      "d": 240,
      "v": 100
    },
    {
      "midi": 62,
      "hit": false,
      "t": 53280,
      "d": 10,
      "v": 30
    },
    {
      "midi": 46,
      "hit": false,
      "t": 53280,
      "d": 10,
      "v": 80
    },
    {
      "midi": 36,
      "hit": false,
      "t": 53280,
      "d": 216,
      "v": 100
    },
    {
      "midi": 70,
      "hit": false,
      "t": 53280,
      "d": 480,
      "v": 120
    },
    {
      "midi": 42,
      "hit": false,
      "t": 53520,
      "d": 10,
      "v": 80
    },
    {
      "midi": 85,
      "hit": false,
      "t": 53520,
      "d": 10,
      "v": 100
    },
    {
      "midi": 37,
      "hit": false,
      "t": 53520,
      "d": 348,
      "v": 100
    },
    {
      "midi": 61,
      "hit": false,
      "t": 53520,
      "d": 720,
      "v": 100
    },
    {
      "midi": 68,
      "hit": false,
      "t": 53520,
      "d": 720,
      "v": 100
    },
    {
      "midi": 62,
      "hit": false,
      "t": 53760,
      "d": 10,
      "v": 70
    },
    {
      "midi": 70,
      "hit": false,
      "t": 53760,
      "d": 480,
      "v": 70
    },
    {
      "midi": 85,
      "hit": false,
      "t": 54000,
      "d": 10,
      "v": 70
    },
    {
      "midi": 62,
      "hit": false,
      "t": 54240,
      "d": 10,
      "v": 50
    },
    {
      "midi": 70,
      "hit": false,
      "t": 54240,
      "d": 480,
      "v": 50
    },
    {
      "midi": 85,
      "hit": false,
      "t": 54480,
      "d": 10,
      "v": 50
    },
    {
      "midi": 62,
      "hit": false,
      "t": 54720,
      "d": 10,
      "v": 30
    },
    {
      "midi": 70,
      "hit": false,
      "t": 54720,
      "d": 480,
      "v": 30
    },
    {
      "midi": 42,
      "hit": false,
      "t": 54960,
      "d": 10,
      "v": 80
    },
    {
      "midi": 85,
      "hit": false,
      "t": 54960,
      "d": 10,
      "v": 30
    },
    {
      "midi": 46,
      "hit": false,
      "t": 55200,
      "d": 10,
      "v": 80
    },
    {
      "midi": 62,
      "hit": false,
      "t": 55200,
      "d": 10,
      "v": 10
    },
    {
      "midi": 70,
      "hit": false,
      "t": 55200,
      "d": 480,
      "v": 10
    },
    {
      "midi": 85,
      "hit": false,
      "t": 55440,
      "d": 10,
      "v": 10
    },
    {
      "midi": 42,
      "hit": false,
      "t": 55680,
      "d": 10,
      "v": 80
    },
    {
      "midi": 39,
      "hit": false,
      "t": 55680,
      "d": 216,
      "v": 100
    },
    {
      "midi": 51,
      "hit": false,
      "t": 55680,
      "d": 480,
      "v": 100
    },
    {
      "midi": 67,
      "hit": false,
      "t": 55680,
      "d": 1440,
      "v": 100
    },
    {
      "midi": 42,
      "hit": false,
      "t": 55920,
      "d": 10,
      "v": 80
    },
    {
      "midi": 39,
      "hit": false,
      "t": 55920,
      "d": 216,
      "v": 100
    },
    {
      "midi": 46,
      "hit": false,
      "t": 56160,
      "d": 10,
      "v": 80
    },
    {
      "midi": 58,
      "hit": false,
      "t": 56160,
      "d": 240,
      "v": 100
    },
    {
      "midi": 85,
      "hit": false,
      "t": 56400,
      "d": 10,
      "v": 100
    },
    {
      "midi": 34,
      "hit": false,
      "t": 56400,
      "d": 216,
      "v": 100
    },
    {
      "midi": 60,
      "hit": false,
      "t": 56400,
      "d": 480,
      "v": 100
    },
    {
      "midi": 62,
      "hit": false,
      "t": 56640,
      "d": 10,
      "v": 80
    },
    {
      "midi": 42,
      "hit": false,
      "t": 56640,
      "d": 10,
      "v": 80
    },
    {
      "midi": 36,
      "hit": false,
      "t": 56640,
      "d": 216,
      "v": 100
    },
    {
      "midi": 62,
      "hit": false,
      "t": 56880,
      "d": 10,
      "v": 60
    },
    {
      "midi": 42,
      "hit": false,
      "t": 56880,
      "d": 10,
      "v": 80
    },
    {
      "midi": 34,
      "hit": false,
      "t": 56880,
      "d": 216,
      "v": 100
    },
    {
      "midi": 58,
      "hit": false,
      "t": 56880,
      "d": 240,
      "v": 100
    },
    {
      "midi": 62,
      "hit": false,
      "t": 57120,
      "d": 10,
      "v": 30
    },
    {
      "midi": 46,
      "hit": false,
      "t": 57120,
      "d": 10,
      "v": 80
    },
    {
      "midi": 36,
      "hit": false,
      "t": 57120,
      "d": 216,
      "v": 100
    },
    {
      "midi": 65,
      "hit": false,
      "t": 57120,
      "d": 480,
      "v": 120
    },
    {
      "midi": 85,
      "hit": false,
      "t": 57360,
      "d": 10,
      "v": 100
    },
    {
      "midi": 37,
      "hit": false,
      "t": 57360,
      "d": 456,
      "v": 100
    },
    {
      "midi": 61,
      "hit": false,
      "t": 57360,
      "d": 2160,
      "v": 100
    },
    {
      "midi": 68,
      "hit": false,
      "t": 57360,
      "d": 2160,
      "v": 100
    },
    {
      "midi": 62,
      "hit": false,
      "t": 57600,
      "d": 10,
      "v": 80
    },
    {
      "midi": 42,
      "hit": false,
      "t": 57600,
      "d": 10,
      "v": 80
    },
    {
      "midi": 65,
      "hit": false,
      "t": 57600,
      "d": 240,
      "v": 70
    },
    {
      "midi": 62,
      "hit": false,
      "t": 57840,
      "d": 10,
      "v": 60
    },
    {
      "midi": 42,
      "hit": false,
      "t": 57840,
      "d": 10,
      "v": 80
    },
    {
      "midi": 37,
      "hit": false,
      "t": 57840,
      "d": 216,
      "v": 100
    },
    {
      "midi": 63,
      "hit": false,
      "t": 57840,
      "d": 480,
      "v": 100
    },
    {
      "midi": 62,
      "hit": false,
      "t": 58080,
      "d": 10,
      "v": 30
    },
    {
      "midi": 46,
      "hit": false,
      "t": 58080,
      "d": 10,
      "v": 80
    },
    {
      "midi": 85,
      "hit": false,
      "t": 58320,
      "d": 10,
      "v": 100
    },
    {
      "midi": 32,
      "hit": false,
      "t": 58320,
      "d": 216,
      "v": 100
    },
    {
      "midi": 58,
      "hit": false,
      "t": 58320,
      "d": 480,
      "v": 100
    },
    {
      "midi": 62,
      "hit": false,
      "t": 58560,
      "d": 10,
      "v": 80
    },
    {
      "midi": 42,
      "hit": false,
      "t": 58560,
      "d": 10,
      "v": 80
    },
    {
      "midi": 37,
      "hit": false,
      "t": 58560,
      "d": 216,
      "v": 100
    },
    {
      "midi": 62,
      "hit": false,
      "t": 58800,
      "d": 10,
      "v": 60
    },
    {
      "midi": 42,
      "hit": false,
      "t": 58800,
      "d": 10,
      "v": 80
    },
    {
      "midi": 37,
      "hit": false,
      "t": 58800,
      "d": 216,
      "v": 100
    },
    {
      "midi": 53,
      "hit": false,
      "t": 58800,
      "d": 480,
      "v": 100
    },
    {
      "midi": 62,
      "hit": false,
      "t": 59040,
      "d": 10,
      "v": 30
    },
    {
      "midi": 46,
      "hit": false,
      "t": 59040,
      "d": 10,
      "v": 80
    },
    {
      "midi": 85,
      "hit": false,
      "t": 59280,
      "d": 10,
      "v": 100
    },
    {
      "midi": 32,
      "hit": false,
      "t": 59280,
      "d": 216,
      "v": 100
    },
    {
      "midi": 51,
      "hit": false,
      "t": 59280,
      "d": 240,
      "v": 70
    },
    {
      "midi": 62,
      "hit": false,
      "t": 59520,
      "d": 10,
      "v": 80
    },
    {
      "midi": 42,
      "hit": false,
      "t": 59520,
      "d": 10,
      "v": 80
    },
    {
      "midi": 39,
      "hit": false,
      "t": 59520,
      "d": 216,
      "v": 100
    },
    {
      "midi": 51,
      "hit": false,
      "t": 59520,
      "d": 480,
      "v": 100
    },
    {
      "midi": 67,
      "hit": false,
      "t": 59520,
      "d": 1440,
      "v": 100
    },
    {
      "midi": 62,
      "hit": false,
      "t": 59760,
      "d": 10,
      "v": 60
    },
    {
      "midi": 42,
      "hit": false,
      "t": 59760,
      "d": 10,
      "v": 80
    },
    {
      "midi": 39,
      "hit": false,
      "t": 59760,
      "d": 216,
      "v": 100
    },
    {
      "midi": 62,
      "hit": false,
      "t": 60000,
      "d": 10,
      "v": 30
    },
    {
      "midi": 46,
      "hit": false,
      "t": 60000,
      "d": 10,
      "v": 80
    },
    {
      "midi": 58,
      "hit": false,
      "t": 60000,
      "d": 240,
      "v": 100
    },
    {
      "midi": 85,
      "hit": false,
      "t": 60240,
      "d": 10,
      "v": 100
    },
    {
      "midi": 34,
      "hit": false,
      "t": 60240,
      "d": 216,
      "v": 100
    },
    {
      "midi": 65,
      "hit": false,
      "t": 60240,
      "d": 480,
      "v": 120
    },
    {
      "midi": 62,
      "hit": false,
      "t": 60480,
      "d": 10,
      "v": 80
    },
    {
      "midi": 42,
      "hit": false,
      "t": 60480,
      "d": 10,
      "v": 80
    },
    {
      "midi": 39,
      "hit": false,
      "t": 60480,
      "d": 216,
      "v": 100
    },
    {
      "midi": 62,
      "hit": false,
      "t": 60720,
      "d": 10,
      "v": 60
    },
    {
      "midi": 42,
      "hit": false,
      "t": 60720,
      "d": 10,
      "v": 80
    },
    {
      "midi": 43,
      "hit": false,
      "t": 60720,
      "d": 216,
      "v": 100
    },
    {
      "midi": 63,
      "hit": false,
      "t": 60720,
      "d": 240,
      "v": 100
    },
    {
      "midi": 62,
      "hit": false,
      "t": 60960,
      "d": 10,
      "v": 30
    },
    {
      "midi": 46,
      "hit": false,
      "t": 60960,
      "d": 10,
      "v": 80
    },
    {
      "midi": 48,
      "hit": false,
      "t": 60960,
      "d": 216,
      "v": 100
    },
    {
      "midi": 70,
      "hit": false,
      "t": 60960,
      "d": 480,
      "v": 120
    },
    {
      "midi": 42,
      "hit": false,
      "t": 61200,
      "d": 10,
      "v": 80
    },
    {
      "midi": 85,
      "hit": false,
      "t": 61200,
      "d": 10,
      "v": 100
    },
    {
      "midi": 46,
      "hit": false,
      "t": 61200,
      "d": 348,
      "v": 100
    },
    {
      "midi": 61,
      "hit": false,
      "t": 61200,
      "d": 720,
      "v": 100
    },
    {
      "midi": 68,
      "hit": false,
      "t": 61200,
      "d": 720,
      "v": 100
    },
    {
      "midi": 62,
      "hit": false,
      "t": 61440,
      "d": 10,
      "v": 70
    },
    {
      "midi": 70,
      "hit": false,
      "t": 61440,
      "d": 480,
      "v": 70
    },
    {
      "midi": 85,
      "hit": false,
      "t": 61680,
      "d": 10,
      "v": 70
    },
    {
      "midi": 62,
      "hit": false,
      "t": 61920,
      "d": 10,
      "v": 50
    },
    {
      "midi": 70,
      "hit": false,
      "t": 61920,
      "d": 480,
      "v": 50
    },
    {
      "midi": 85,
      "hit": false,
      "t": 62160,
      "d": 10,
      "v": 50
    },
    {
      "midi": 62,
      "hit": false,
      "t": 62400,
      "d": 10,
      "v": 30
    },
    {
      "midi": 70,
      "hit": false,
      "t": 62400,
      "d": 480,
      "v": 30
    },
    {
      "midi": 42,
      "hit": false,
      "t": 62640,
      "d": 10,
      "v": 80
    },
    {
      "midi": 85,
      "hit": false,
      "t": 62640,
      "d": 10,
      "v": 30
    },
    {
      "midi": 46,
      "hit": false,
      "t": 62880,
      "d": 10,
      "v": 80
    },
    {
      "midi": 62,
      "hit": false,
      "t": 62880,
      "d": 10,
      "v": 10
    },
    {
      "midi": 70,
      "hit": false,
      "t": 62880,
      "d": 480,
      "v": 10
    },
    {
      "midi": 85,
      "hit": false,
      "t": 63120,
      "d": 10,
      "v": 10
    },
    {
      "midi": 31,
      "hit": false,
      "t": 63360,
      "d": 216,
      "v": 100
    },
    {
      "midi": 37,
      "hit": false,
      "t": 63600,
      "d": 216,
      "v": 100
    },
    {
      "midi": 62,
      "hit": false,
      "t": 63840,
      "d": 10,
      "v": 80
    },
    {
      "midi": 42,
      "hit": false,
      "t": 63840,
      "d": 10,
      "v": 80
    },
    {
      "midi": 65,
      "hit": false,
      "t": 63840,
      "d": 216,
      "v": 100
    },
    {
      "midi": 38,
      "hit": false,
      "t": 63840,
      "d": 216,
      "v": 100
    },
    {
      "midi": 83,
      "hit": false,
      "t": 63840,
      "d": 240,
      "v": 100
    },
    {
      "midi": 85,
      "hit": false,
      "t": 64080,
      "d": 10,
      "v": 100
    },
    {
      "midi": 70,
      "hit": false,
      "t": 64080,
      "d": 10,
      "v": 100
    },
    {
      "midi": 41,
      "hit": false,
      "t": 64080,
      "d": 216,
      "v": 100
    },
    {
      "midi": 62,
      "hit": false,
      "t": 64320,
      "d": 10,
      "v": 80
    },
    {
      "midi": 65,
      "hit": false,
      "t": 64320,
      "d": 216,
      "v": 100
    },
    {
      "midi": 59,
      "hit": false,
      "t": 64320,
      "d": 216,
      "v": 100
    },
    {
      "midi": 84,
      "hit": false,
      "t": 64320,
      "d": 240,
      "v": 100
    },
    {
      "midi": 85,
      "hit": false,
      "t": 64560,
      "d": 10,
      "v": 100
    },
    {
      "midi": 70,
      "hit": false,
      "t": 64560,
      "d": 10,
      "v": 70
    },
    {
      "midi": 86,
      "hit": false,
      "t": 64560,
      "d": 240,
      "v": 100
    },
    {
      "midi": 42,
      "hit": false,
      "t": 64800,
      "d": 10,
      "v": 80
    },
    {
      "midi": 85,
      "hit": false,
      "t": 65040,
      "d": 10,
      "v": 70
    },
    {
      "midi": 70,
      "hit": false,
      "t": 65040,
      "d": 10,
      "v": 50
    },
    {
      "midi": 29,
      "hit": false,
      "t": 65040,
      "d": 216,
      "v": 100
    },
    {
      "midi": 89,
      "hit": false,
      "t": 65040,
      "d": 624,
      "v": 100
    },
    {
      "midi": 58,
      "hit": false,
      "t": 65040,
      "d": 888,
      "v": 100
    },
    {
      "midi": 60,
      "hit": false,
      "t": 65040,
      "d": 888,
      "v": 100
    },
    {
      "midi": 85,
      "hit": false,
      "t": 65520,
      "d": 10,
      "v": 50
    },
    {
      "midi": 70,
      "hit": false,
      "t": 65520,
      "d": 10,
      "v": 30
    },
    {
      "midi": 88,
      "hit": false,
      "t": 65690,
      "d": 30,
      "v": 50
    },
    {
      "midi": 86,
      "hit": false,
      "t": 65700,
      "d": 30,
      "v": 80
    },
    {
      "midi": 42,
      "hit": false,
      "t": 65760,
      "d": 10,
      "v": 80
    },
    {
      "midi": 88,
      "hit": false,
      "t": 65760,
      "d": 240,
      "v": 100
    },
    {
      "midi": 85,
      "hit": false,
      "t": 66000,
      "d": 10,
      "v": 30
    },
    {
      "midi": 70,
      "hit": false,
      "t": 66000,
      "d": 10,
      "v": 100
    },
    {
      "midi": 29,
      "hit": false,
      "t": 66000,
      "d": 216,
      "v": 100
    },
    {
      "midi": 57,
      "hit": false,
      "t": 66000,
      "d": 960,
      "v": 100
    },
    {
      "midi": 58,
      "hit": false,
      "t": 66000,
      "d": 960,
      "v": 100
    },
    {
      "midi": 86,
      "hit": false,
      "t": 66240,
      "d": 384,
      "v": 100
    },
    {
      "midi": 85,
      "hit": false,
      "t": 66480,
      "d": 10,
      "v": 10
    },
    {
      "midi": 70,
      "hit": false,
      "t": 66480,
      "d": 10,
      "v": 70
    },
    {
      "midi": 84,
      "hit": false,
      "t": 66650,
      "d": 30,
      "v": 50
    },
    {
      "midi": 83,
      "hit": false,
      "t": 66660,
      "d": 30,
      "v": 80
    },
    {
      "midi": 42,
      "hit": false,
      "t": 66720,
      "d": 10,
      "v": 80
    },
    {
      "midi": 84,
      "hit": false,
      "t": 66720,
      "d": 240,
      "v": 100
    },
    {
      "midi": 70,
      "hit": false,
      "t": 66960,
      "d": 10,
      "v": 50
    },
    {
      "midi": 31,
      "hit": false,
      "t": 66960,
      "d": 456,
      "v": 100
    },
    {
      "midi": 83,
      "hit": false,
      "t": 66960,
      "d": 624,
      "v": 100
    },
    {
      "midi": 70,
      "hit": false,
      "t": 67440,
      "d": 10,
      "v": 30
    },
    {
      "midi": 37,
      "hit": false,
      "t": 67440,
      "d": 216,
      "v": 100
    },
    {
      "midi": 81,
      "hit": false,
      "t": 67610,
      "d": 30,
      "v": 50
    },
    {
      "midi": 79,
      "hit": false,
      "t": 67620,
      "d": 30,
      "v": 80
    },
    {
      "midi": 62,
      "hit": false,
      "t": 67680,
      "d": 10,
      "v": 80
    },
    {
      "midi": 42,
      "hit": false,
      "t": 67680,
      "d": 10,
      "v": 80
    },
    {
      "midi": 65,
      "hit": false,
      "t": 67680,
      "d": 216,
      "v": 100
    },
    {
      "midi": 38,
      "hit": false,
      "t": 67680,
      "d": 216,
      "v": 100
    },
    {
      "midi": 81,
      "hit": false,
      "t": 67680,
      "d": 240,
      "v": 100
    },
    {
      "midi": 85,
      "hit": false,
      "t": 67920,
      "d": 10,
      "v": 100
    },
    {
      "midi": 70,
      "hit": false,
      "t": 67920,
      "d": 10,
      "v": 100
    },
    {
      "midi": 41,
      "hit": false,
      "t": 67920,
      "d": 216,
      "v": 100
    },
    {
      "midi": 62,
      "hit": false,
      "t": 68160,
      "d": 10,
      "v": 80
    },
    {
      "midi": 65,
      "hit": false,
      "t": 68160,
      "d": 216,
      "v": 100
    },
    {
      "midi": 59,
      "hit": false,
      "t": 68160,
      "d": 216,
      "v": 100
    },
    {
      "midi": 79,
      "hit": false,
      "t": 68160,
      "d": 240,
      "v": 100
    },
    {
      "midi": 85,
      "hit": false,
      "t": 68400,
      "d": 10,
      "v": 100
    },
    {
      "midi": 70,
      "hit": false,
      "t": 68400,
      "d": 10,
      "v": 70
    },
    {
      "midi": 74,
      "hit": false,
      "t": 68400,
      "d": 240,
      "v": 100
    },
    {
      "midi": 42,
      "hit": false,
      "t": 68640,
      "d": 10,
      "v": 80
    },
    {
      "midi": 76,
      "hit": false,
      "t": 68640,
      "d": 240,
      "v": 100
    },
    {
      "midi": 85,
      "hit": false,
      "t": 68880,
      "d": 10,
      "v": 70
    },
    {
      "midi": 70,
      "hit": false,
      "t": 68880,
      "d": 10,
      "v": 50
    },
    {
      "midi": 67,
      "hit": false,
      "t": 68880,
      "d": 216,
      "v": 100
    },
    {
      "midi": 55,
      "hit": false,
      "t": 68880,
      "d": 216,
      "v": 100
    },
    {
      "midi": 29,
      "hit": false,
      "t": 68880,
      "d": 216,
      "v": 100
    },
    {
      "midi": 77,
      "hit": false,
      "t": 68880,
      "d": 240,
      "v": 100
    },
    {
      "midi": 85,
      "hit": false,
      "t": 69120,
      "d": 10,
      "v": 30
    },
    {
      "midi": 70,
      "hit": false,
      "t": 69120,
      "d": 10,
      "v": 10
    },
    {
      "midi": 85,
      "hit": false,
      "t": 69360,
      "d": 10,
      "v": 50
    },
    {
      "midi": 70,
      "hit": false,
      "t": 69360,
      "d": 10,
      "v": 30
    },
    {
      "midi": 70,
      "hit": false,
      "t": 69600,
      "d": 10,
      "v": 10
    },
    {
      "midi": 85,
      "hit": false,
      "t": 69600,
      "d": 10,
      "v": 10
    },
    {
      "midi": 70,
      "hit": false,
      "t": 69840,
      "d": 10,
      "v": 10
    },
    {
      "midi": 85,
      "hit": false,
      "t": 69840,
      "d": 10,
      "v": 30
    },
    {
      "midi": 85,
      "hit": false,
      "t": 70080,
      "d": 10,
      "v": 10
    },
    {
      "midi": 70,
      "hit": false,
      "t": 70080,
      "d": 10,
      "v": 10
    },
    {
      "midi": 85,
      "hit": false,
      "t": 70320,
      "d": 10,
      "v": 20
    },
    {
      "midi": 42,
      "hit": false,
      "t": 70320,
      "d": 10,
      "v": 80
    },
    {
      "midi": 70,
      "hit": false,
      "t": 70320,
      "d": 10,
      "v": 5
    },
    {
      "midi": 46,
      "hit": false,
      "t": 70560,
      "d": 10,
      "v": 80
    },
    {
      "midi": 85,
      "hit": false,
      "t": 70560,
      "d": 10,
      "v": 5
    },
    {
      "midi": 31,
      "hit": false,
      "t": 71040,
      "d": 216,
      "v": 100
    },
    {
      "midi": 37,
      "hit": false,
      "t": 71280,
      "d": 216,
      "v": 100
    },
    {
      "midi": 62,
      "hit": false,
      "t": 71520,
      "d": 10,
      "v": 80
    },
    {
      "midi": 42,
      "hit": false,
      "t": 71520,
      "d": 10,
      "v": 80
    },
    {
      "midi": 65,
      "hit": false,
      "t": 71520,
      "d": 216,
      "v": 100
    },
    {
      "midi": 38,
      "hit": false,
      "t": 71520,
      "d": 216,
      "v": 100
    },
    {
      "midi": 83,
      "hit": false,
      "t": 71520,
      "d": 240,
      "v": 100
    },
    {
      "midi": 85,
      "hit": false,
      "t": 71760,
      "d": 10,
      "v": 100
    },
    {
      "midi": 70,
      "hit": false,
      "t": 71760,
      "d": 10,
      "v": 100
    },
    {
      "midi": 41,
      "hit": false,
      "t": 71760,
      "d": 216,
      "v": 100
    },
    {
      "midi": 62,
      "hit": false,
      "t": 72000,
      "d": 10,
      "v": 80
    },
    {
      "midi": 65,
      "hit": false,
      "t": 72000,
      "d": 216,
      "v": 100
    },
    {
      "midi": 59,
      "hit": false,
      "t": 72000,
      "d": 216,
      "v": 100
    },
    {
      "midi": 84,
      "hit": false,
      "t": 72000,
      "d": 240,
      "v": 100
    },
    {
      "midi": 85,
      "hit": false,
      "t": 72240,
      "d": 10,
      "v": 100
    },
    {
      "midi": 70,
      "hit": false,
      "t": 72240,
      "d": 10,
      "v": 70
    },
    {
      "midi": 86,
      "hit": false,
      "t": 72240,
      "d": 240,
      "v": 100
    },
    {
      "midi": 42,
      "hit": false,
      "t": 72480,
      "d": 10,
      "v": 80
    },
    {
      "midi": 85,
      "hit": false,
      "t": 72720,
      "d": 10,
      "v": 70
    },
    {
      "midi": 70,
      "hit": false,
      "t": 72720,
      "d": 10,
      "v": 50
    },
    {
      "midi": 29,
      "hit": false,
      "t": 72720,
      "d": 216,
      "v": 100
    },
    {
      "midi": 89,
      "hit": false,
      "t": 72720,
      "d": 624,
      "v": 100
    },
    {
      "midi": 58,
      "hit": false,
      "t": 72720,
      "d": 888,
      "v": 100
    },
    {
      "midi": 60,
      "hit": false,
      "t": 72720,
      "d": 888,
      "v": 100
    },
    {
      "midi": 85,
      "hit": false,
      "t": 73200,
      "d": 10,
      "v": 50
    },
    {
      "midi": 70,
      "hit": false,
      "t": 73200,
      "d": 10,
      "v": 30
    },
    {
      "midi": 88,
      "hit": false,
      "t": 73370,
      "d": 30,
      "v": 50
    },
    {
      "midi": 86,
      "hit": false,
      "t": 73380,
      "d": 30,
      "v": 80
    },
    {
      "midi": 42,
      "hit": false,
      "t": 73440,
      "d": 10,
      "v": 80
    },
    {
      "midi": 88,
      "hit": false,
      "t": 73440,
      "d": 240,
      "v": 100
    },
    {
      "midi": 85,
      "hit": false,
      "t": 73680,
      "d": 10,
      "v": 30
    },
    {
      "midi": 70,
      "hit": false,
      "t": 73680,
      "d": 10,
      "v": 100
    },
    {
      "midi": 29,
      "hit": false,
      "t": 73680,
      "d": 216,
      "v": 100
    },
    {
      "midi": 57,
      "hit": false,
      "t": 73680,
      "d": 960,
      "v": 100
    },
    {
      "midi": 58,
      "hit": false,
      "t": 73680,
      "d": 960,
      "v": 100
    },
    {
      "midi": 86,
      "hit": false,
      "t": 73920,
      "d": 384,
      "v": 100
    },
    {
      "midi": 85,
      "hit": false,
      "t": 74160,
      "d": 10,
      "v": 10
    },
    {
      "midi": 70,
      "hit": false,
      "t": 74160,
      "d": 10,
      "v": 70
    },
    {
      "midi": 84,
      "hit": false,
      "t": 74330,
      "d": 30,
      "v": 50
    },
    {
      "midi": 83,
      "hit": false,
      "t": 74340,
      "d": 30,
      "v": 80
    },
    {
      "midi": 42,
      "hit": false,
      "t": 74400,
      "d": 10,
      "v": 80
    },
    {
      "midi": 84,
      "hit": false,
      "t": 74400,
      "d": 240,
      "v": 100
    },
    {
      "midi": 70,
      "hit": false,
      "t": 74640,
      "d": 10,
      "v": 50
    },
    {
      "midi": 31,
      "hit": false,
      "t": 74640,
      "d": 456,
      "v": 100
    },
    {
      "midi": 83,
      "hit": false,
      "t": 74640,
      "d": 624,
      "v": 100
    },
    {
      "midi": 70,
      "hit": false,
      "t": 75120,
      "d": 10,
      "v": 30
    },
    {
      "midi": 37,
      "hit": false,
      "t": 75120,
      "d": 216,
      "v": 100
    },
    {
      "midi": 81,
      "hit": false,
      "t": 75290,
      "d": 30,
      "v": 50
    },
    {
      "midi": 79,
      "hit": false,
      "t": 75300,
      "d": 30,
      "v": 80
    },
    {
      "midi": 62,
      "hit": false,
      "t": 75360,
      "d": 10,
      "v": 80
    },
    {
      "midi": 42,
      "hit": false,
      "t": 75360,
      "d": 10,
      "v": 80
    },
    {
      "midi": 65,
      "hit": false,
      "t": 75360,
      "d": 216,
      "v": 100
    },
    {
      "midi": 38,
      "hit": false,
      "t": 75360,
      "d": 216,
      "v": 100
    },
    {
      "midi": 81,
      "hit": false,
      "t": 75360,
      "d": 240,
      "v": 100
    },
    {
      "midi": 85,
      "hit": false,
      "t": 75600,
      "d": 10,
      "v": 100
    },
    {
      "midi": 70,
      "hit": false,
      "t": 75600,
      "d": 10,
      "v": 100
    },
    {
      "midi": 41,
      "hit": false,
      "t": 75600,
      "d": 216,
      "v": 100
    },
    {
      "midi": 62,
      "hit": false,
      "t": 75840,
      "d": 10,
      "v": 80
    },
    {
      "midi": 65,
      "hit": false,
      "t": 75840,
      "d": 216,
      "v": 100
    },
    {
      "midi": 59,
      "hit": false,
      "t": 75840,
      "d": 216,
      "v": 100
    },
    {
      "midi": 79,
      "hit": false,
      "t": 75840,
      "d": 240,
      "v": 100
    },
    {
      "midi": 85,
      "hit": false,
      "t": 76080,
      "d": 10,
      "v": 100
    },
    {
      "midi": 70,
      "hit": false,
      "t": 76080,
      "d": 10,
      "v": 70
    },
    {
      "midi": 86,
      "hit": false,
      "t": 76080,
      "d": 240,
      "v": 100
    },
    {
      "midi": 42,
      "hit": false,
      "t": 76320,
      "d": 10,
      "v": 80
    },
    {
      "midi": 91,
      "hit": false,
      "t": 76320,
      "d": 240,
      "v": 100
    },
    {
      "midi": 85,
      "hit": false,
      "t": 76560,
      "d": 10,
      "v": 70
    },
    {
      "midi": 70,
      "hit": false,
      "t": 76560,
      "d": 10,
      "v": 50
    },
    {
      "midi": 65,
      "hit": false,
      "t": 76560,
      "d": 216,
      "v": 100
    },
    {
      "midi": 77,
      "hit": false,
      "t": 76560,
      "d": 216,
      "v": 100
    },
    {
      "midi": 29,
      "hit": false,
      "t": 76560,
      "d": 216,
      "v": 100
    },
    {
      "midi": 89,
      "hit": false,
      "t": 76560,
      "d": 240,
      "v": 100
    },
    {
      "midi": 85,
      "hit": false,
      "t": 76800,
      "d": 10,
      "v": 30
    },
    {
      "midi": 70,
      "hit": false,
      "t": 76800,
      "d": 10,
      "v": 10
    },
    {
      "midi": 85,
      "hit": false,
      "t": 77040,
      "d": 10,
      "v": 50
    },
    {
      "midi": 70,
      "hit": false,
      "t": 77040,
      "d": 10,
      "v": 30
    },
    {
      "midi": 70,
      "hit": false,
      "t": 77280,
      "d": 10,
      "v": 10
    },
    {
      "midi": 85,
      "hit": false,
      "t": 77280,
      "d": 10,
      "v": 10
    },
    {
      "midi": 70,
      "hit": false,
      "t": 77520,
      "d": 10,
      "v": 10
    },
    {
      "midi": 85,
      "hit": false,
      "t": 77520,
      "d": 10,
      "v": 30
    },
    {
      "midi": 85,
      "hit": false,
      "t": 77760,
      "d": 10,
      "v": 10
    },
    {
      "midi": 70,
      "hit": false,
      "t": 77760,
      "d": 10,
      "v": 10
    },
    {
      "midi": 85,
      "hit": false,
      "t": 78000,
      "d": 10,
      "v": 20
    },
    {
      "midi": 42,
      "hit": false,
      "t": 78000,
      "d": 10,
      "v": 80
    },
    {
      "midi": 70,
      "hit": false,
      "t": 78000,
      "d": 10,
      "v": 5
    },
    {
      "midi": 46,
      "hit": false,
      "t": 78240,
      "d": 10,
      "v": 80
    },
    {
      "midi": 85,
      "hit": false,
      "t": 78240,
      "d": 10,
      "v": 5
    },
    {
      "midi": 33,
      "hit": false,
      "t": 78720,
      "d": 216,
      "v": 100
    },
    {
      "midi": 79,
      "hit": false,
      "t": 78720,
      "d": 240,
      "v": 100
    },
    {
      "midi": 39,
      "hit": false,
      "t": 78960,
      "d": 216,
      "v": 100
    },
    {
      "midi": 79,
      "hit": false,
      "t": 78960,
      "d": 240,
      "v": 100
    },
    {
      "midi": 62,
      "hit": false,
      "t": 79200,
      "d": 10,
      "v": 80
    },
    {
      "midi": 42,
      "hit": false,
      "t": 79200,
      "d": 10,
      "v": 80
    },
    {
      "midi": 67,
      "hit": false,
      "t": 79200,
      "d": 216,
      "v": 100
    },
    {
      "midi": 40,
      "hit": false,
      "t": 79200,
      "d": 216,
      "v": 100
    },
    {
      "midi": 85,
      "hit": false,
      "t": 79440,
      "d": 10,
      "v": 100
    },
    {
      "midi": 70,
      "hit": false,
      "t": 79440,
      "d": 10,
      "v": 100
    },
    {
      "midi": 43,
      "hit": false,
      "t": 79440,
      "d": 216,
      "v": 100
    },
    {
      "midi": 76,
      "hit": false,
      "t": 79440,
      "d": 240,
      "v": 100
    },
    {
      "midi": 62,
      "hit": false,
      "t": 79680,
      "d": 10,
      "v": 80
    },
    {
      "midi": 67,
      "hit": false,
      "t": 79680,
      "d": 216,
      "v": 100
    },
    {
      "midi": 61,
      "hit": false,
      "t": 79680,
      "d": 216,
      "v": 100
    },
    {
      "midi": 79,
      "hit": false,
      "t": 79680,
      "d": 240,
      "v": 100
    },
    {
      "midi": 85,
      "hit": false,
      "t": 79920,
      "d": 10,
      "v": 100
    },
    {
      "midi": 70,
      "hit": false,
      "t": 79920,
      "d": 10,
      "v": 70
    },
    {
      "midi": 79,
      "hit": false,
      "t": 79920,
      "d": 240,
      "v": 100
    },
    {
      "midi": 42,
      "hit": false,
      "t": 80160,
      "d": 10,
      "v": 80
    },
    {
      "midi": 70,
      "hit": false,
      "t": 80400,
      "d": 10,
      "v": 50
    },
    {
      "midi": 85,
      "hit": false,
      "t": 80400,
      "d": 10,
      "v": 70
    },
    {
      "midi": 31,
      "hit": false,
      "t": 80400,
      "d": 216,
      "v": 100
    },
    {
      "midi": 86,
      "hit": false,
      "t": 80400,
      "d": 624,
      "v": 100
    },
    {
      "midi": 55,
      "hit": false,
      "t": 80400,
      "d": 888,
      "v": 100
    },
    {
      "midi": 62,
      "hit": false,
      "t": 80400,
      "d": 888,
      "v": 100
    },
    {
      "midi": 85,
      "hit": false,
      "t": 80880,
      "d": 10,
      "v": 50
    },
    {
      "midi": 70,
      "hit": false,
      "t": 80880,
      "d": 10,
      "v": 30
    },
    {
      "midi": 84,
      "hit": false,
      "t": 81050,
      "d": 30,
      "v": 50
    },
    {
      "midi": 83,
      "hit": false,
      "t": 81060,
      "d": 30,
      "v": 80
    },
    {
      "midi": 42,
      "hit": false,
      "t": 81120,
      "d": 10,
      "v": 80
    },
    {
      "midi": 84,
      "hit": false,
      "t": 81120,
      "d": 240,
      "v": 100
    },
    {
      "midi": 85,
      "hit": false,
      "t": 81360,
      "d": 10,
      "v": 30
    },
    {
      "midi": 70,
      "hit": false,
      "t": 81360,
      "d": 10,
      "v": 100
    },
    {
      "midi": 31,
      "hit": false,
      "t": 81360,
      "d": 216,
      "v": 100
    },
    {
      "midi": 59,
      "hit": false,
      "t": 81360,
      "d": 960,
      "v": 100
    },
    {
      "midi": 62,
      "hit": false,
      "t": 81360,
      "d": 960,
      "v": 100
    },
    {
      "midi": 83,
      "hit": false,
      "t": 81600,
      "d": 384,
      "v": 100
    },
    {
      "midi": 85,
      "hit": false,
      "t": 81840,
      "d": 10,
      "v": 10
    },
    {
      "midi": 70,
      "hit": false,
      "t": 81840,
      "d": 10,
      "v": 70
    },
    {
      "midi": 81,
      "hit": false,
      "t": 82010,
      "d": 30,
      "v": 50
    },
    {
      "midi": 79,
      "hit": false,
      "t": 82020,
      "d": 30,
      "v": 80
    },
    {
      "midi": 42,
      "hit": false,
      "t": 82080,
      "d": 10,
      "v": 80
    },
    {
      "midi": 81,
      "hit": false,
      "t": 82080,
      "d": 240,
      "v": 100
    },
    {
      "midi": 70,
      "hit": false,
      "t": 82320,
      "d": 10,
      "v": 50
    },
    {
      "midi": 33,
      "hit": false,
      "t": 82320,
      "d": 456,
      "v": 100
    },
    {
      "midi": 79,
      "hit": false,
      "t": 82320,
      "d": 600,
      "v": 100
    },
    {
      "midi": 70,
      "hit": false,
      "t": 82800,
      "d": 10,
      "v": 30
    },
    {
      "midi": 39,
      "hit": false,
      "t": 82800,
      "d": 216,
      "v": 100
    },
    {
      "midi": 78,
      "hit": false,
      "t": 82970,
      "d": 30,
      "v": 50
    },
    {
      "midi": 76,
      "hit": false,
      "t": 82980,
      "d": 30,
      "v": 80
    },
    {
      "midi": 62,
      "hit": false,
      "t": 83040,
      "d": 10,
      "v": 80
    },
    {
      "midi": 42,
      "hit": false,
      "t": 83040,
      "d": 10,
      "v": 80
    },
    {
      "midi": 67,
      "hit": false,
      "t": 83040,
      "d": 216,
      "v": 100
    },
    {
      "midi": 40,
      "hit": false,
      "t": 83040,
      "d": 216,
      "v": 100
    },
    {
      "midi": 78,
      "hit": false,
      "t": 83040,
      "d": 216,
      "v": 100
    },
    {
      "midi": 85,
      "hit": false,
      "t": 83280,
      "d": 10,
      "v": 100
    },
    {
      "midi": 70,
      "hit": false,
      "t": 83280,
      "d": 10,
      "v": 100
    },
    {
      "midi": 43,
      "hit": false,
      "t": 83280,
      "d": 216,
      "v": 100
    },
    {
      "midi": 79,
      "hit": false,
      "t": 83280,
      "d": 240,
      "v": 100
    },
    {
      "midi": 62,
      "hit": false,
      "t": 83520,
      "d": 10,
      "v": 80
    },
    {
      "midi": 67,
      "hit": false,
      "t": 83520,
      "d": 216,
      "v": 100
    },
    {
      "midi": 61,
      "hit": false,
      "t": 83520,
      "d": 216,
      "v": 100
    },
    {
      "midi": 83,
      "hit": false,
      "t": 83520,
      "d": 240,
      "v": 100
    },
    {
      "midi": 85,
      "hit": false,
      "t": 83760,
      "d": 10,
      "v": 100
    },
    {
      "midi": 70,
      "hit": false,
      "t": 83760,
      "d": 10,
      "v": 70
    },
    {
      "midi": 86,
      "hit": false,
      "t": 83760,
      "d": 240,
      "v": 100
    },
    {
      "midi": 42,
      "hit": false,
      "t": 84000,
      "d": 10,
      "v": 80
    },
    {
      "midi": 90,
      "hit": false,
      "t": 84000,
      "d": 240,
      "v": 100
    },
    {
      "midi": 85,
      "hit": false,
      "t": 84240,
      "d": 10,
      "v": 70
    },
    {
      "midi": 70,
      "hit": false,
      "t": 84240,
      "d": 10,
      "v": 50
    },
    {
      "midi": 62,
      "hit": false,
      "t": 84240,
      "d": 216,
      "v": 100
    },
    {
      "midi": 59,
      "hit": false,
      "t": 84240,
      "d": 216,
      "v": 100
    },
    {
      "midi": 31,
      "hit": false,
      "t": 84240,
      "d": 216,
      "v": 100
    },
    {
      "midi": 88,
      "hit": false,
      "t": 84240,
      "d": 240,
      "v": 100
    },
    {
      "midi": 85,
      "hit": false,
      "t": 84480,
      "d": 10,
      "v": 30
    },
    {
      "midi": 70,
      "hit": false,
      "t": 84480,
      "d": 10,
      "v": 10
    },
    {
      "midi": 85,
      "hit": false,
      "t": 84720,
      "d": 10,
      "v": 50
    },
    {
      "midi": 70,
      "hit": false,
      "t": 84720,
      "d": 10,
      "v": 30
    },
    {
      "midi": 70,
      "hit": false,
      "t": 84960,
      "d": 10,
      "v": 10
    },
    {
      "midi": 85,
      "hit": false,
      "t": 84960,
      "d": 10,
      "v": 10
    },
    {
      "midi": 70,
      "hit": false,
      "t": 85200,
      "d": 10,
      "v": 10
    },
    {
      "midi": 85,
      "hit": false,
      "t": 85200,
      "d": 10,
      "v": 30
    },
    {
      "midi": 85,
      "hit": false,
      "t": 85440,
      "d": 10,
      "v": 10
    },
    {
      "midi": 70,
      "hit": false,
      "t": 85440,
      "d": 10,
      "v": 10
    },
    {
      "midi": 85,
      "hit": false,
      "t": 85680,
      "d": 10,
      "v": 20
    },
    {
      "midi": 42,
      "hit": false,
      "t": 85680,
      "d": 10,
      "v": 80
    },
    {
      "midi": 70,
      "hit": false,
      "t": 85680,
      "d": 10,
      "v": 5
    },
    {
      "midi": 46,
      "hit": false,
      "t": 85920,
      "d": 10,
      "v": 80
    },
    {
      "midi": 85,
      "hit": false,
      "t": 85920,
      "d": 10,
      "v": 5
    },
    {
      "midi": 33,
      "hit": false,
      "t": 86400,
      "d": 216,
      "v": 100
    },
    {
      "midi": 39,
      "hit": false,
      "t": 86640,
      "d": 216,
      "v": 100
    },
    {
      "midi": 62,
      "hit": false,
      "t": 86880,
      "d": 10,
      "v": 80
    },
    {
      "midi": 42,
      "hit": false,
      "t": 86880,
      "d": 10,
      "v": 80
    },
    {
      "midi": 67,
      "hit": false,
      "t": 86880,
      "d": 216,
      "v": 100
    },
    {
      "midi": 40,
      "hit": false,
      "t": 86880,
      "d": 216,
      "v": 100
    },
    {
      "midi": 85,
      "hit": false,
      "t": 86880,
      "d": 240,
      "v": 100
    },
    {
      "midi": 85,
      "hit": false,
      "t": 87120,
      "d": 10,
      "v": 100
    },
    {
      "midi": 70,
      "hit": false,
      "t": 87120,
      "d": 10,
      "v": 100
    },
    {
      "midi": 43,
      "hit": false,
      "t": 87120,
      "d": 216,
      "v": 100
    },
    {
      "midi": 62,
      "hit": false,
      "t": 87360,
      "d": 10,
      "v": 80
    },
    {
      "midi": 67,
      "hit": false,
      "t": 87360,
      "d": 216,
      "v": 100
    },
    {
      "midi": 61,
      "hit": false,
      "t": 87360,
      "d": 216,
      "v": 100
    },
    {
      "midi": 86,
      "hit": false,
      "t": 87360,
      "d": 240,
      "v": 100
    },
    {
      "midi": 85,
      "hit": false,
      "t": 87600,
      "d": 10,
      "v": 100
    },
    {
      "midi": 70,
      "hit": false,
      "t": 87600,
      "d": 10,
      "v": 70
    },
    {
      "midi": 88,
      "hit": false,
      "t": 87600,
      "d": 240,
      "v": 100
    },
    {
      "midi": 42,
      "hit": false,
      "t": 87840,
      "d": 10,
      "v": 80
    },
    {
      "midi": 85,
      "hit": false,
      "t": 88080,
      "d": 10,
      "v": 70
    },
    {
      "midi": 70,
      "hit": false,
      "t": 88080,
      "d": 10,
      "v": 50
    },
    {
      "midi": 31,
      "hit": false,
      "t": 88080,
      "d": 216,
      "v": 100
    },
    {
      "midi": 91,
      "hit": false,
      "t": 88080,
      "d": 624,
      "v": 100
    },
    {
      "midi": 55,
      "hit": false,
      "t": 88080,
      "d": 888,
      "v": 100
    },
    {
      "midi": 62,
      "hit": false,
      "t": 88080,
      "d": 888,
      "v": 100
    },
    {
      "midi": 85,
      "hit": false,
      "t": 88560,
      "d": 10,
      "v": 50
    },
    {
      "midi": 70,
      "hit": false,
      "t": 88560,
      "d": 10,
      "v": 30
    },
    {
      "midi": 89,
      "hit": false,
      "t": 88730,
      "d": 30,
      "v": 50
    },
    {
      "midi": 88,
      "hit": false,
      "t": 88740,
      "d": 30,
      "v": 80
    },
    {
      "midi": 42,
      "hit": false,
      "t": 88800,
      "d": 10,
      "v": 80
    },
    {
      "midi": 90,
      "hit": false,
      "t": 88800,
      "d": 240,
      "v": 100
    },
    {
      "midi": 85,
      "hit": false,
      "t": 89040,
      "d": 10,
      "v": 30
    },
    {
      "midi": 70,
      "hit": false,
      "t": 89040,
      "d": 10,
      "v": 100
    },
    {
      "midi": 31,
      "hit": false,
      "t": 89040,
      "d": 216,
      "v": 100
    },
    {
      "midi": 59,
      "hit": false,
      "t": 89040,
      "d": 960,
      "v": 100
    },
    {
      "midi": 62,
      "hit": false,
      "t": 89040,
      "d": 960,
      "v": 100
    },
    {
      "midi": 88,
      "hit": false,
      "t": 89280,
      "d": 384,
      "v": 100
    },
    {
      "midi": 85,
      "hit": false,
      "t": 89520,
      "d": 10,
      "v": 10
    },
    {
      "midi": 70,
      "hit": false,
      "t": 89520,
      "d": 10,
      "v": 70
    },
    {
      "midi": 86,
      "hit": false,
      "t": 89690,
      "d": 30,
      "v": 50
    },
    {
      "midi": 84,
      "hit": false,
      "t": 89700,
      "d": 30,
      "v": 80
    },
    {
      "midi": 42,
      "hit": false,
      "t": 89760,
      "d": 10,
      "v": 80
    },
    {
      "midi": 86,
      "hit": false,
      "t": 89760,
      "d": 240,
      "v": 100
    },
    {
      "midi": 70,
      "hit": false,
      "t": 90000,
      "d": 10,
      "v": 50
    },
    {
      "midi": 33,
      "hit": false,
      "t": 90000,
      "d": 456,
      "v": 100
    },
    {
      "midi": 85,
      "hit": false,
      "t": 90000,
      "d": 624,
      "v": 100
    },
    {
      "midi": 70,
      "hit": false,
      "t": 90480,
      "d": 10,
      "v": 30
    },
    {
      "midi": 39,
      "hit": false,
      "t": 90480,
      "d": 216,
      "v": 100
    },
    {
      "midi": 83,
      "hit": false,
      "t": 90650,
      "d": 30,
      "v": 50
    },
    {
      "midi": 81,
      "hit": false,
      "t": 90660,
      "d": 30,
      "v": 80
    },
    {
      "midi": 62,
      "hit": false,
      "t": 90720,
      "d": 10,
      "v": 80
    },
    {
      "midi": 42,
      "hit": false,
      "t": 90720,
      "d": 10,
      "v": 80
    },
    {
      "midi": 67,
      "hit": false,
      "t": 90720,
      "d": 216,
      "v": 100
    },
    {
      "midi": 40,
      "hit": false,
      "t": 90720,
      "d": 216,
      "v": 100
    },
    {
      "midi": 83,
      "hit": false,
      "t": 90720,
      "d": 240,
      "v": 100
    },
    {
      "midi": 85,
      "hit": false,
      "t": 90960,
      "d": 10,
      "v": 100
    },
    {
      "midi": 70,
      "hit": false,
      "t": 90960,
      "d": 10,
      "v": 100
    },
    {
      "midi": 43,
      "hit": false,
      "t": 90960,
      "d": 216,
      "v": 100
    },
    {
      "midi": 42,
      "hit": false,
      "t": 91200,
      "d": 10,
      "v": 80
    },
    {
      "midi": 62,
      "hit": false,
      "t": 91200,
      "d": 10,
      "v": 80
    },
    {
      "midi": 61,
      "hit": false,
      "t": 91200,
      "d": 216,
      "v": 100
    },
    {
      "midi": 49,
      "hit": false,
      "t": 91200,
      "d": 216,
      "v": 100
    },
    {
      "midi": 37,
      "hit": false,
      "t": 91200,
      "d": 216,
      "v": 100
    },
    {
      "midi": 85,
      "hit": false,
      "t": 91200,
      "d": 240,
      "v": 100
    },
    {
      "midi": 70,
      "hit": false,
      "t": 91440,
      "d": 10,
      "v": 70
    },
    {
      "midi": 42,
      "hit": false,
      "t": 91440,
      "d": 10,
      "v": 70
    },
    {
      "midi": 85,
      "hit": false,
      "t": 91440,
      "d": 10,
      "v": 100
    },
    {
      "midi": 64,
      "hit": false,
      "t": 91440,
      "d": 216,
      "v": 100
    },
    {
      "midi": 52,
      "hit": false,
      "t": 91440,
      "d": 216,
      "v": 100
    },
    {
      "midi": 40,
      "hit": false,
      "t": 91440,
      "d": 216,
      "v": 100
    },
    {
      "midi": 88,
      "hit": false,
      "t": 91440,
      "d": 240,
      "v": 100
    },
    {
      "midi": 42,
      "hit": false,
      "t": 91680,
      "d": 10,
      "v": 90
    },
    {
      "midi": 69,
      "hit": false,
      "t": 91680,
      "d": 216,
      "v": 100
    },
    {
      "midi": 57,
      "hit": false,
      "t": 91680,
      "d": 216,
      "v": 100
    },
    {
      "midi": 45,
      "hit": false,
      "t": 91680,
      "d": 216,
      "v": 100
    },
    {
      "midi": 93,
      "hit": false,
      "t": 91680,
      "d": 240,
      "v": 100
    },
    {
      "midi": 70,
      "hit": false,
      "t": 91920,
      "d": 10,
      "v": 50
    },
    {
      "midi": 42,
      "hit": false,
      "t": 91920,
      "d": 10,
      "v": 80
    },
    {
      "midi": 85,
      "hit": false,
      "t": 91920,
      "d": 10,
      "v": 70
    },
    {
      "midi": 67,
      "hit": false,
      "t": 91920,
      "d": 216,
      "v": 100
    },
    {
      "midi": 55,
      "hit": false,
      "t": 91920,
      "d": 216,
      "v": 100
    },
    {
      "midi": 43,
      "hit": false,
      "t": 91920,
      "d": 216,
      "v": 100
    },
    {
      "midi": 91,
      "hit": false,
      "t": 91920,
      "d": 240,
      "v": 100
    },
    {
      "midi": 85,
      "hit": false,
      "t": 92160,
      "d": 10,
      "v": 30
    },
    {
      "midi": 70,
      "hit": false,
      "t": 92160,
      "d": 10,
      "v": 10
    },
    {
      "midi": 85,
      "hit": false,
      "t": 92400,
      "d": 10,
      "v": 50
    },
    {
      "midi": 70,
      "hit": false,
      "t": 92400,
      "d": 10,
      "v": 30
    },
    {
      "midi": 70,
      "hit": false,
      "t": 92640,
      "d": 10,
      "v": 10
    },
    {
      "midi": 85,
      "hit": false,
      "t": 92640,
      "d": 10,
      "v": 10
    },
    {
      "midi": 70,
      "hit": false,
      "t": 92880,
      "d": 10,
      "v": 10
    },
    {
      "midi": 85,
      "hit": false,
      "t": 92880,
      "d": 10,
      "v": 30
    },
    {
      "midi": 85,
      "hit": false,
      "t": 93120,
      "d": 10,
      "v": 10
    },
    {
      "midi": 70,
      "hit": false,
      "t": 93120,
      "d": 10,
      "v": 10
    },
    {
      "midi": 85,
      "hit": false,
      "t": 93360,
      "d": 10,
      "v": 20
    },
    {
      "midi": 70,
      "hit": false,
      "t": 93360,
      "d": 10,
      "v": 5
    },
    {
      "midi": 85,
      "hit": false,
      "t": 93600,
      "d": 10,
      "v": 5
    }
  ]
}