{
  "jsonPath": "Animes/Card Captor Sakura MIDI Collection/dreaming-of-you.json",
  "path": "Animes\\Card Captor Sakura MIDI Collection\\Dreaming of You.mid",
  "name": "Dreaming of You",
  "difficulty": "Advanced",
  "bpm": 114.0001710002565,
  "notes": [
    {
      "midi": 32,
      "hit": false,
      "t": 1935.4800000000005,
      "d": 5.040312500000027,
      "v": 64
    },
    {
      "midi": 76,
      "hit": false,
      "t": 1935.4800000000005,
      "d": 1733.8674999999994,
      "v": 104
    },
    {
      "midi": 71,
      "hit": false,
      "t": 1935.4800000000005,
      "d": 1733.8674999999994,
      "v": 104
    },
    {
      "midi": 67,
      "hit": false,
      "t": 1935.4800000000005,
      "d": 1738.9078124999992,
      "v": 104
    },
    {
      "midi": 60,
      "hit": false,
      "t": 1935.4800000000005,
      "d": 1738.9078124999992,
      "v": 104
    },
    {
      "midi": 32,
      "hit": false,
      "t": 2414.3096875000006,
      "d": 5.0403124999998,
      "v": 71
    },
    {
      "midi": 32,
      "hit": false,
      "t": 2903.2200000000003,
      "d": 5.0403124999998,
      "v": 64
    },
    {
      "midi": 32,
      "hit": false,
      "t": 3392.1303125,
      "d": 5.0403124999998,
      "v": 71
    },
    {
      "midi": 57,
      "hit": false,
      "t": 3865.9196875,
      "d": 5.0403124999998,
      "v": 79
    },
    {
      "midi": 44,
      "hit": false,
      "t": 3870.9599999999996,
      "d": 5.0403124999998,
      "v": 71
    },
    {
      "midi": 35,
      "hit": false,
      "t": 3870.9599999999996,
      "d": 90.72562499999958,
      "v": 87
    },
    {
      "midi": 74,
      "hit": false,
      "t": 3870.9599999999996,
      "d": 866.9337499999988,
      "v": 104
    },
    {
      "midi": 69,
      "hit": false,
      "t": 3870.9599999999996,
      "d": 1733.8674999999998,
      "v": 104
    },
    {
      "midi": 66,
      "hit": false,
      "t": 3870.9599999999996,
      "d": 1738.9078125,
      "v": 104
    },
    {
      "midi": 62,
      "hit": false,
      "t": 3870.9599999999996,
      "d": 1738.9078125,
      "v": 104
    },
    {
      "midi": 29,
      "hit": false,
      "t": 4727.813124999999,
      "d": 95.76593749999938,
      "v": 58
    },
    {
      "midi": 72,
      "hit": false,
      "t": 4838.699999999998,
      "d": 866.933750000002,
      "v": 104
    },
    {
      "midi": 40,
      "hit": false,
      "t": 4848.780624999998,
      "d": 80.64500000000044,
      "v": 94
    },
    {
      "midi": 40,
      "hit": false,
      "t": 4964.707812499998,
      "d": 80.64500000000044,
      "v": 71
    },
    {
      "midi": 40,
      "hit": false,
      "t": 5206.642812499998,
      "d": 80.64500000000044,
      "v": 93
    },
    {
      "midi": 40,
      "hit": false,
      "t": 5448.577812499999,
      "d": 80.64500000000044,
      "v": 91
    },
    {
      "midi": 40,
      "hit": false,
      "t": 5564.504999999999,
      "d": 80.64500000000044,
      "v": 84
    },
    {
      "midi": 33,
      "hit": false,
      "t": 5564.504999999999,
      "d": 216.73343750000095,
      "v": 84
    },
    {
      "midi": 49,
      "hit": false,
      "t": 5801.3996875,
      "d": 5.040312500000255,
      "v": 79
    },
    {
      "midi": 44,
      "hit": false,
      "t": 5806.4400000000005,
      "d": 5.040312500000255,
      "v": 64
    },
    {
      "midi": 59,
      "hit": false,
      "t": 5806.4400000000005,
      "d": 5.040312500000255,
      "v": 85
    },
    {
      "midi": 35,
      "hit": false,
      "t": 5806.4400000000005,
      "d": 105.84656249999989,
      "v": 87
    },
    {
      "midi": 28,
      "hit": false,
      "t": 5806.4400000000005,
      "d": 176.4109374999989,
      "v": 101
    },
    {
      "midi": 67,
      "hit": false,
      "t": 5806.4400000000005,
      "d": 433.46687499999825,
      "v": 104
    },
    {
      "midi": 71,
      "hit": false,
      "t": 5806.4400000000005,
      "d": 433.46687499999825,
      "v": 104
    },
    {
      "midi": 55,
      "hit": false,
      "t": 5927.4075,
      "d": 30.2418749999988,
      "v": 56
    },
    {
      "midi": 59,
      "hit": false,
      "t": 5937.488125,
      "d": 25.201562499999454,
      "v": 50
    },
    {
      "midi": 64,
      "hit": false,
      "t": 5947.568749999999,
      "d": 30.24187499999971,
      "v": 33
    },
    {
      "midi": 46,
      "hit": false,
      "t": 6043.3346875,
      "d": 5.040312500000255,
      "v": 69
    },
    {
      "midi": 62,
      "hit": false,
      "t": 6048.375,
      "d": 5.040312500000255,
      "v": 91
    },
    {
      "midi": 59,
      "hit": false,
      "t": 6048.375,
      "d": 5.040312500000255,
      "v": 94
    },
    {
      "midi": 55,
      "hit": false,
      "t": 6169.3425,
      "d": 20.1612499999992,
      "v": 96
    },
    {
      "midi": 59,
      "hit": false,
      "t": 6179.423124999999,
      "d": 20.1612499999992,
      "v": 89
    },
    {
      "midi": 64,
      "hit": false,
      "t": 6189.503749999999,
      "d": 15.120937499999854,
      "v": 84
    },
    {
      "midi": 44,
      "hit": false,
      "t": 6285.269687499998,
      "d": 5.040312500000255,
      "v": 71
    },
    {
      "midi": 40,
      "hit": false,
      "t": 6290.309999999999,
      "d": 70.56437499999993,
      "v": 94
    },
    {
      "midi": 59,
      "hit": false,
      "t": 6290.309999999999,
      "d": 85.68531249999978,
      "v": 100
    },
    {
      "midi": 35,
      "hit": false,
      "t": 6290.309999999999,
      "d": 105.84656249999989,
      "v": 87
    },
    {
      "midi": 28,
      "hit": false,
      "t": 6290.309999999999,
      "d": 166.3303124999993,
      "v": 99
    },
    {
      "midi": 59,
      "hit": false,
      "t": 6411.277499999998,
      "d": 10.0806249999996,
      "v": 100
    },
    {
      "midi": 46,
      "hit": false,
      "t": 6532.244999999998,
      "d": 5.040312500000255,
      "v": 61
    },
    {
      "midi": 63,
      "hit": false,
      "t": 6532.244999999998,
      "d": 5.040312500000255,
      "v": 47
    },
    {
      "midi": 63,
      "hit": false,
      "t": 6653.212499999998,
      "d": 5.040312500000255,
      "v": 85
    },
    {
      "midi": 59,
      "hit": false,
      "t": 6653.212499999998,
      "d": 5.040312500000255,
      "v": 95
    },
    {
      "midi": 55,
      "hit": false,
      "t": 6653.212499999998,
      "d": 15.120937500000764,
      "v": 36
    },
    {
      "midi": 31,
      "hit": false,
      "t": 6658.252812499998,
      "d": 5.040312500000255,
      "v": 42
    },
    {
      "midi": 59,
      "hit": false,
      "t": 6663.293124999998,
      "d": 15.120937500000764,
      "v": 46
    },
    {
      "midi": 64,
      "hit": false,
      "t": 6673.373749999999,
      "d": 15.120937499999854,
      "v": 30
    },
    {
      "midi": 44,
      "hit": false,
      "t": 6774.1799999999985,
      "d": 5.040312500000255,
      "v": 64
    },
    {
      "midi": 59,
      "hit": false,
      "t": 6774.1799999999985,
      "d": 5.040312500000255,
      "v": 92
    },
    {
      "midi": 35,
      "hit": false,
      "t": 6774.1799999999985,
      "d": 90.72562500000004,
      "v": 86
    },
    {
      "midi": 55,
      "hit": false,
      "t": 6774.1799999999985,
      "d": 95.76593750000029,
      "v": 13
    },
    {
      "midi": 28,
      "hit": false,
      "t": 6774.1799999999985,
      "d": 115.92718749999949,
      "v": 94
    },
    {
      "midi": 64,
      "hit": false,
      "t": 6794.341249999999,
      "d": 85.68531249999978,
      "v": 32
    },
    {
      "midi": 31,
      "hit": false,
      "t": 6895.147499999998,
      "d": 5.040312500000255,
      "v": 39
    },
    {
      "midi": 59,
      "hit": false,
      "t": 6895.147499999998,
      "d": 5.040312500000255,
      "v": 94
    },
    {
      "midi": 55,
      "hit": false,
      "t": 6895.147499999998,
      "d": 20.16125000000011,
      "v": 80
    },
    {
      "midi": 63,
      "hit": false,
      "t": 6895.147499999998,
      "d": 105.84656249999898,
      "v": 104
    },
    {
      "midi": 59,
      "hit": false,
      "t": 6905.228124999999,
      "d": 20.1612499999992,
      "v": 68
    },
    {
      "midi": 64,
      "hit": false,
      "t": 6915.308749999998,
      "d": 20.1612499999992,
      "v": 75
    },
    {
      "midi": 46,
      "hit": false,
      "t": 7016.114999999997,
      "d": 5.040312500000255,
      "v": 70
    },
    {
      "midi": 62,
      "hit": false,
      "t": 7016.114999999997,
      "d": 5.040312500000255,
      "v": 85
    },
    {
      "midi": 59,
      "hit": false,
      "t": 7016.114999999997,
      "d": 5.040312500000255,
      "v": 94
    },
    {
      "midi": 64,
      "hit": false,
      "t": 7016.114999999997,
      "d": 105.84656249999989,
      "v": 104
    },
    {
      "midi": 28,
      "hit": false,
      "t": 7016.114999999997,
      "d": 156.2496874999997,
      "v": 102
    },
    {
      "midi": 66,
      "hit": false,
      "t": 7137.082499999997,
      "d": 105.84656249999989,
      "v": 104
    },
    {
      "midi": 40,
      "hit": false,
      "t": 7258.0499999999965,
      "d": 65.52406249999967,
      "v": 91
    },
    {
      "midi": 35,
      "hit": false,
      "t": 7258.0499999999965,
      "d": 90.72562500000004,
      "v": 86
    },
    {
      "midi": 67,
      "hit": false,
      "t": 7258.0499999999965,
      "d": 105.84656249999989,
      "v": 104
    },
    {
      "midi": 55,
      "hit": false,
      "t": 7258.0499999999965,
      "d": 181.45125000000007,
      "v": 96
    },
    {
      "midi": 44,
      "hit": false,
      "t": 7263.090312499997,
      "d": 5.040312500000255,
      "v": 71
    },
    {
      "midi": 59,
      "hit": false,
      "t": 7268.130624999997,
      "d": 90.72562499999913,
      "v": 82
    },
    {
      "midi": 62,
      "hit": false,
      "t": 7379.017499999996,
      "d": 5.040312500000255,
      "v": 62
    },
    {
      "midi": 59,
      "hit": false,
      "t": 7379.017499999996,
      "d": 5.040312500000255,
      "v": 47
    },
    {
      "midi": 66,
      "hit": false,
      "t": 7379.017499999996,
      "d": 105.84656249999989,
      "v": 104
    },
    {
      "midi": 64,
      "hit": false,
      "t": 7389.098124999997,
      "d": 25.201562499999454,
      "v": 52
    },
    {
      "midi": 46,
      "hit": false,
      "t": 7499.984999999996,
      "d": 5.040312500000255,
      "v": 70
    },
    {
      "midi": 63,
      "hit": false,
      "t": 7499.984999999996,
      "d": 5.040312500000255,
      "v": 53
    },
    {
      "midi": 67,
      "hit": false,
      "t": 7499.984999999996,
      "d": 105.84656249999989,
      "v": 104
    },
    {
      "midi": 64,
      "hit": false,
      "t": 7620.952499999996,
      "d": 5.040312500000255,
      "v": 74
    },
    {
      "midi": 40,
      "hit": false,
      "t": 7620.952499999996,
      "d": 5.040312500000255,
      "v": 72
    },
    {
      "midi": 59,
      "hit": false,
      "t": 7620.952499999996,
      "d": 5.040312500000255,
      "v": 88
    },
    {
      "midi": 69,
      "hit": false,
      "t": 7620.952499999996,
      "d": 105.84656249999989,
      "v": 104
    },
    {
      "midi": 44,
      "hit": false,
      "t": 7741.9199999999955,
      "d": 5.040312500000255,
      "v": 64
    },
    {
      "midi": 59,
      "hit": false,
      "t": 7741.9199999999955,
      "d": 5.040312500000255,
      "v": 95
    },
    {
      "midi": 35,
      "hit": false,
      "t": 7741.9199999999955,
      "d": 105.84656249999989,
      "v": 87
    },
    {
      "midi": 71,
      "hit": false,
      "t": 7741.9199999999955,
      "d": 433.4668750000019,
      "v": 104
    },
    {
      "midi": 28,
      "hit": false,
      "t": 7741.9199999999955,
      "d": 473.7893750000012,
      "v": 89
    },
    {
      "midi": 59,
      "hit": false,
      "t": 7752.000624999996,
      "d": 100.80624999999964,
      "v": 46
    },
    {
      "midi": 67,
      "hit": false,
      "t": 7762.081249999996,
      "d": 85.68531249999978,
      "v": 50
    },
    {
      "midi": 64,
      "hit": false,
      "t": 7762.081249999996,
      "d": 100.80624999999964,
      "v": 50
    },
    {
      "midi": 67,
      "hit": false,
      "t": 7862.887499999995,
      "d": 110.88687500000015,
      "v": 47
    },
    {
      "midi": 59,
      "hit": false,
      "t": 7872.968124999995,
      "d": 95.76593750000029,
      "v": 51
    },
    {
      "midi": 64,
      "hit": false,
      "t": 7872.968124999995,
      "d": 110.88687500000106,
      "v": 51
    },
    {
      "midi": 46,
      "hit": false,
      "t": 7978.814687499996,
      "d": 5.040312500000255,
      "v": 69
    },
    {
      "midi": 62,
      "hit": false,
      "t": 7983.854999999996,
      "d": 5.040312500000255,
      "v": 91
    },
    {
      "midi": 59,
      "hit": false,
      "t": 7983.854999999996,
      "d": 5.040312500000255,
      "v": 50
    },
    {
      "midi": 67,
      "hit": false,
      "t": 7993.935624999996,
      "d": 95.76593750000029,
      "v": 56
    },
    {
      "midi": 64,
      "hit": false,
      "t": 7993.935624999996,
      "d": 110.88687500000015,
      "v": 56
    },
    {
      "midi": 63,
      "hit": false,
      "t": 8104.822499999997,
      "d": 5.040312500000255,
      "v": 91
    },
    {
      "midi": 67,
      "hit": false,
      "t": 8104.822499999997,
      "d": 95.76593750000029,
      "v": 51
    },
    {
      "midi": 59,
      "hit": false,
      "t": 8114.903124999997,
      "d": 80.64500000000044,
      "v": 51
    },
    {
      "midi": 64,
      "hit": false,
      "t": 8114.903124999997,
      "d": 95.76593750000029,
      "v": 51
    },
    {
      "midi": 44,
      "hit": false,
      "t": 8220.749687499996,
      "d": 5.040312499999345,
      "v": 71
    },
    {
      "midi": 59,
      "hit": false,
      "t": 8225.789999999995,
      "d": 5.040312499999345,
      "v": 56
    },
    {
      "midi": 40,
      "hit": false,
      "t": 8225.789999999995,
      "d": 70.56437499999811,
      "v": 94
    },
    {
      "midi": 35,
      "hit": false,
      "t": 8225.789999999995,
      "d": 105.84656249999898,
      "v": 87
    },
    {
      "midi": 55,
      "hit": false,
      "t": 8225.789999999995,
      "d": 433.4668749999928,
      "v": 120
    },
    {
      "midi": 52,
      "hit": false,
      "t": 8225.789999999995,
      "d": 433.4668749999928,
      "v": 120
    },
    {
      "midi": 71,
      "hit": false,
      "t": 8225.789999999995,
      "d": 433.4668749999928,
      "v": 120
    },
    {
      "midi": 64,
      "hit": false,
      "t": 8235.870624999994,
      "d": 5.040312499999345,
      "v": 60
    },
    {
      "midi": 67,
      "hit": false,
      "t": 8240.910937499993,
      "d": 5.040312499999345,
      "v": 64
    },
    {
      "midi": 64,
      "hit": false,
      "t": 8346.757499999994,
      "d": 5.040312499999345,
      "v": 91
    },
    {
      "midi": 67,
      "hit": false,
      "t": 8346.757499999994,
      "d": 5.040312499999345,
      "v": 50
    },
    {
      "midi": 64,
      "hit": false,
      "t": 8356.838124999993,
      "d": 5.040312499999345,
      "v": 53
    },
    {
      "midi": 59,
      "hit": false,
      "t": 8361.878437499992,
      "d": 5.040312499999345,
      "v": 55
    },
    {
      "midi": 46,
      "hit": false,
      "t": 8467.724999999991,
      "d": 5.040312499999345,
      "v": 61
    },
    {
      "midi": 63,
      "hit": false,
      "t": 8467.724999999991,
      "d": 5.040312499999345,
      "v": 47
    },
    {
      "midi": 59,
      "hit": false,
      "t": 8467.724999999991,
      "d": 110.88687499999833,
      "v": 49
    },
    {
      "midi": 67,
      "hit": false,
      "t": 8477.80562499999,
      "d": 95.76593750000029,
      "v": 54
    },
    {
      "midi": 64,
      "hit": false,
      "t": 8477.80562499999,
      "d": 110.88687500000015,
      "v": 54
    },
    {
      "midi": 63,
      "hit": false,
      "t": 8588.69249999999,
      "d": 5.040312499999345,
      "v": 85
    },
    {
      "midi": 67,
      "hit": false,
      "t": 8588.69249999999,
      "d": 5.040312499999345,
      "v": 50
    },
    {
      "midi": 59,
      "hit": false,
      "t": 8588.69249999999,
      "d": 5.040312499999345,
      "v": 107
    },
    {
      "midi": 64,
      "hit": false,
      "t": 8598.773124999989,
      "d": 5.040312499999345,
      "v": 53
    },
    {
      "midi": 59,
      "hit": false,
      "t": 8603.813437499988,
      "d": 5.040312499999345,
      "v": 55
    },
    {
      "midi": 40,
      "hit": false,
      "t": 8709.659999999989,
      "d": 5.040312499999345,
      "v": 93
    },
    {
      "midi": 44,
      "hit": false,
      "t": 8709.659999999989,
      "d": 5.040312499999345,
      "v": 64
    },
    {
      "midi": 59,
      "hit": false,
      "t": 8709.659999999989,
      "d": 5.040312499999345,
      "v": 56
    },
    {
      "midi": 35,
      "hit": false,
      "t": 8709.659999999989,
      "d": 90.72562499999731,
      "v": 86
    },
    {
      "midi": 55,
      "hit": false,
      "t": 8709.659999999989,
      "d": 433.466874999991,
      "v": 120
    },
    {
      "midi": 50,
      "hit": false,
      "t": 8709.659999999989,
      "d": 433.466874999991,
      "v": 120
    },
    {
      "midi": 71,
      "hit": false,
      "t": 8709.659999999989,
      "d": 433.466874999991,
      "v": 120
    },
    {
      "midi": 38,
      "hit": false,
      "t": 8709.659999999989,
      "d": 473.7893749999912,
      "v": 82
    },
    {
      "midi": 64,
      "hit": false,
      "t": 8719.740624999988,
      "d": 5.040312499999345,
      "v": 60
    },
    {
      "midi": 67,
      "hit": false,
      "t": 8724.780937499987,
      "d": 5.040312499999345,
      "v": 64
    },
    {
      "midi": 62,
      "hit": false,
      "t": 8830.627499999986,
      "d": 5.040312499999345,
      "v": 91
    },
    {
      "midi": 59,
      "hit": false,
      "t": 8830.627499999986,
      "d": 110.88687499999833,
      "v": 49
    },
    {
      "midi": 67,
      "hit": false,
      "t": 8840.708124999985,
      "d": 95.76593750000029,
      "v": 54
    },
    {
      "midi": 64,
      "hit": false,
      "t": 8840.708124999985,
      "d": 110.88687500000015,
      "v": 54
    },
    {
      "midi": 40,
      "hit": false,
      "t": 8951.594999999985,
      "d": 5.040312499999345,
      "v": 64
    },
    {
      "midi": 64,
      "hit": false,
      "t": 8951.594999999985,
      "d": 5.040312499999345,
      "v": 78
    },
    {
      "midi": 67,
      "hit": false,
      "t": 8951.594999999985,
      "d": 5.040312499999345,
      "v": 50
    },
    {
      "midi": 64,
      "hit": false,
      "t": 8961.675624999983,
      "d": 5.040312499999345,
      "v": 53
    },
    {
      "midi": 59,
      "hit": false,
      "t": 8966.715937499983,
      "d": 5.040312499999345,
      "v": 55
    },
    {
      "midi": 40,
      "hit": false,
      "t": 9072.562499999982,
      "d": 5.040312499999345,
      "v": 87
    },
    {
      "midi": 64,
      "hit": false,
      "t": 9072.562499999982,
      "d": 5.040312499999345,
      "v": 78
    },
    {
      "midi": 59,
      "hit": false,
      "t": 9072.562499999982,
      "d": 5.040312499999345,
      "v": 56
    },
    {
      "midi": 64,
      "hit": false,
      "t": 9082.64312499998,
      "d": 5.040312499999345,
      "v": 60
    },
    {
      "midi": 67,
      "hit": false,
      "t": 9087.68343749998,
      "d": 5.040312499999345,
      "v": 64
    },
    {
      "midi": 40,
      "hit": false,
      "t": 9193.52999999998,
      "d": 5.040312499999345,
      "v": 98
    },
    {
      "midi": 64,
      "hit": false,
      "t": 9193.52999999998,
      "d": 5.040312499999345,
      "v": 82
    },
    {
      "midi": 35,
      "hit": false,
      "t": 9193.52999999998,
      "d": 90.72562499999913,
      "v": 86
    },
    {
      "midi": 59,
      "hit": false,
      "t": 9193.52999999998,
      "d": 110.88687499999833,
      "v": 49
    },
    {
      "midi": 56,
      "hit": false,
      "t": 9193.52999999998,
      "d": 433.466874999991,
      "v": 120
    },
    {
      "midi": 53,
      "hit": false,
      "t": 9193.52999999998,
      "d": 433.466874999991,
      "v": 120
    },
    {
      "midi": 49,
      "hit": false,
      "t": 9193.52999999998,
      "d": 433.466874999991,
      "v": 120
    },
    {
      "midi": 71,
      "hit": false,
      "t": 9193.52999999998,
      "d": 433.466874999991,
      "v": 120
    },
    {
      "midi": 44,
      "hit": false,
      "t": 9198.57031249998,
      "d": 5.040312499999345,
      "v": 71
    },
    {
      "midi": 68,
      "hit": false,
      "t": 9203.61062499998,
      "d": 95.76593750000029,
      "v": 54
    },
    {
      "midi": 65,
      "hit": false,
      "t": 9203.61062499998,
      "d": 110.88687500000015,
      "v": 54
    },
    {
      "midi": 62,
      "hit": false,
      "t": 9314.49749999998,
      "d": 5.040312499999345,
      "v": 93
    },
    {
      "midi": 68,
      "hit": false,
      "t": 9314.49749999998,
      "d": 110.88687499999833,
      "v": 47
    },
    {
      "midi": 59,
      "hit": false,
      "t": 9324.578124999978,
      "d": 95.76593750000029,
      "v": 51
    },
    {
      "midi": 65,
      "hit": false,
      "t": 9324.578124999978,
      "d": 110.88687500000015,
      "v": 51
    },
    {
      "midi": 40,
      "hit": false,
      "t": 9435.464999999978,
      "d": 5.040312499999345,
      "v": 82
    },
    {
      "midi": 59,
      "hit": false,
      "t": 9435.464999999978,
      "d": 5.040312499999345,
      "v": 56
    },
    {
      "midi": 65,
      "hit": false,
      "t": 9445.545624999977,
      "d": 5.040312499999345,
      "v": 60
    },
    {
      "midi": 32,
      "hit": false,
      "t": 9445.545624999977,
      "d": 221.77374999999483,
      "v": 76
    },
    {
      "midi": 68,
      "hit": false,
      "t": 9450.585937499976,
      "d": 5.040312499999345,
      "v": 64
    },
    {
      "midi": 40,
      "hit": false,
      "t": 9556.432499999975,
      "d": 5.040312499999345,
      "v": 82
    },
    {
      "midi": 59,
      "hit": false,
      "t": 9556.432499999975,
      "d": 5.040312499999345,
      "v": 102
    },
    {
      "midi": 68,
      "hit": false,
      "t": 9566.513124999974,
      "d": 5.040312499999345,
      "v": 50
    },
    {
      "midi": 65,
      "hit": false,
      "t": 9576.593749999973,
      "d": 5.040312499999345,
      "v": 53
    },
    {
      "midi": 59,
      "hit": false,
      "t": 9581.634062499972,
      "d": 5.040312499999345,
      "v": 55
    },
    {
      "midi": 57,
      "hit": false,
      "t": 9672.359687499971,
      "d": 5.040312499999345,
      "v": 79
    },
    {
      "midi": 98,
      "hit": false,
      "t": 9677.39999999997,
      "d": 10.08062499999869,
      "v": 78
    },
    {
      "midi": 82,
      "hit": false,
      "t": 9677.39999999997,
      "d": 10.08062499999869,
      "v": 102
    },
    {
      "midi": 42,
      "hit": false,
      "t": 9677.39999999997,
      "d": 45.36281249999956,
      "v": 95
    },
    {
      "midi": 55,
      "hit": false,
      "t": 9677.39999999997,
      "d": 50.40312499999891,
      "v": 58
    },
    {
      "midi": 60,
      "hit": false,
      "t": 9677.39999999997,
      "d": 60.48374999999942,
      "v": 53
    },
    {
      "midi": 35,
      "hit": false,
      "t": 9677.39999999997,
      "d": 105.84656249999898,
      "v": 87
    },
    {
      "midi": 52,
      "hit": false,
      "t": 9677.39999999997,
      "d": 241.93499999999585,
      "v": 104
    },
    {
      "midi": 48,
      "hit": false,
      "t": 9677.39999999997,
      "d": 241.93499999999585,
      "v": 104
    },
    {
      "midi": 36,
      "hit": false,
      "t": 9677.39999999997,
      "d": 307.45906249999643,
      "v": 105
    },
    {
      "midi": 71,
      "hit": false,
      "t": 9677.39999999997,
      "d": 322.5799999999963,
      "v": 47
    },
    {
      "midi": 67,
      "hit": false,
      "t": 9677.39999999997,
      "d": 1935.4799999999723,
      "v": 47
    },
    {
      "midi": 59,
      "hit": false,
      "t": 9682.44031249997,
      "d": 40.32250000000022,
      "v": 54
    },
    {
      "midi": 64,
      "hit": false,
      "t": 9687.48062499997,
      "d": 65.52406250000058,
      "v": 54
    },
    {
      "midi": 98,
      "hit": false,
      "t": 9798.36749999997,
      "d": 5.040312499999345,
      "v": 41
    },
    {
      "midi": 82,
      "hit": false,
      "t": 9798.36749999997,
      "d": 5.040312499999345,
      "v": 51
    },
    {
      "midi": 55,
      "hit": false,
      "t": 9798.36749999997,
      "d": 10.08062499999869,
      "v": 56
    },
    {
      "midi": 59,
      "hit": false,
      "t": 9803.407812499969,
      "d": 10.08062499999869,
      "v": 54
    },
    {
      "midi": 64,
      "hit": false,
      "t": 9808.448124999968,
      "d": 70.56437499999811,
      "v": 56
    },
    {
      "midi": 54,
      "hit": false,
      "t": 9818.528749999967,
      "d": 40.32250000000022,
      "v": 34
    },
    {
      "midi": 82,
      "hit": false,
      "t": 9919.334999999966,
      "d": 10.08062500000051,
      "v": 60
    },
    {
      "midi": 42,
      "hit": false,
      "t": 9919.334999999966,
      "d": 40.32250000000022,
      "v": 82
    },
    {
      "midi": 54,
      "hit": false,
      "t": 9919.334999999966,
      "d": 70.56437499999993,
      "v": 94
    },
    {
      "midi": 55,
      "hit": false,
      "t": 10040.302499999967,
      "d": 5.040312499999345,
      "v": 22
    },
    {
      "midi": 60,
      "hit": false,
      "t": 10040.302499999967,
      "d": 5.040312499999345,
      "v": 35
    },
    {
      "midi": 36,
      "hit": false,
      "t": 10040.302499999967,
      "d": 90.72562499999731,
      "v": 102
    },
    {
      "midi": 71,
      "hit": false,
      "t": 10040.302499999967,
      "d": 322.57999999999265,
      "v": 104
    },
    {
      "midi": 98,
      "hit": false,
      "t": 10045.342812499966,
      "d": 10.08062499999869,
      "v": 45
    },
    {
      "midi": 82,
      "hit": false,
      "t": 10045.342812499966,
      "d": 10.08062499999869,
      "v": 58
    },
    {
      "midi": 59,
      "hit": false,
      "t": 10045.342812499966,
      "d": 45.362812499997744,
      "v": 29
    },
    {
      "midi": 64,
      "hit": false,
      "t": 10050.383124999966,
      "d": 50.40312499999891,
      "v": 26
    },
    {
      "midi": 54,
      "hit": false,
      "t": 10060.463749999964,
      "d": 40.32250000000022,
      "v": 40
    },
    {
      "midi": 98,
      "hit": false,
      "t": 10161.269999999964,
      "d": 10.08062499999869,
      "v": 84
    },
    {
      "midi": 82,
      "hit": false,
      "t": 10161.269999999964,
      "d": 10.08062499999869,
      "v": 108
    },
    {
      "midi": 55,
      "hit": false,
      "t": 10161.269999999964,
      "d": 25.201562499996726,
      "v": 67
    },
    {
      "midi": 42,
      "hit": false,
      "t": 10161.269999999964,
      "d": 65.52406249999694,
      "v": 98
    },
    {
      "midi": 40,
      "hit": false,
      "t": 10161.269999999964,
      "d": 70.56437499999629,
      "v": 94
    },
    {
      "midi": 60,
      "hit": false,
      "t": 10161.269999999964,
      "d": 70.56437499999629,
      "v": 61
    },
    {
      "midi": 31,
      "hit": false,
      "t": 10161.269999999964,
      "d": 297.3784374999941,
      "v": 105
    },
    {
      "midi": 59,
      "hit": false,
      "t": 10166.310312499963,
      "d": 10.08062499999869,
      "v": 49
    },
    {
      "midi": 64,
      "hit": false,
      "t": 10171.350624999963,
      "d": 10.08062499999869,
      "v": 54
    },
    {
      "midi": 98,
      "hit": false,
      "t": 10282.237499999961,
      "d": 5.040312499999345,
      "v": 35
    },
    {
      "midi": 82,
      "hit": false,
      "t": 10282.237499999961,
      "d": 5.040312499999345,
      "v": 43
    },
    {
      "midi": 54,
      "hit": false,
      "t": 10302.39874999996,
      "d": 40.32250000000022,
      "v": 39
    },
    {
      "midi": 55,
      "hit": false,
      "t": 10403.20499999996,
      "d": 5.040312499999345,
      "v": 22
    },
    {
      "midi": 82,
      "hit": false,
      "t": 10403.20499999996,
      "d": 10.08062499999869,
      "v": 66
    },
    {
      "midi": 42,
      "hit": false,
      "t": 10403.20499999996,
      "d": 40.3224999999984,
      "v": 82
    },
    {
      "midi": 54,
      "hit": false,
      "t": 10403.20499999996,
      "d": 85.68531249999796,
      "v": 47
    },
    {
      "midi": 52,
      "hit": false,
      "t": 10403.20499999996,
      "d": 216.7334374999955,
      "v": 104
    },
    {
      "midi": 48,
      "hit": false,
      "t": 10403.20499999996,
      "d": 216.7334374999955,
      "v": 104
    },
    {
      "midi": 71,
      "hit": false,
      "t": 10403.20499999996,
      "d": 216.7334374999955,
      "v": 104
    },
    {
      "midi": 59,
      "hit": false,
      "t": 10408.24531249996,
      "d": 55.443437499998254,
      "v": 22
    },
    {
      "midi": 64,
      "hit": false,
      "t": 10413.285624999959,
      "d": 50.40312499999891,
      "v": 22
    },
    {
      "midi": 55,
      "hit": false,
      "t": 10524.172499999959,
      "d": 65.52406249999694,
      "v": 65
    },
    {
      "midi": 60,
      "hit": false,
      "t": 10524.172499999959,
      "d": 80.6449999999968,
      "v": 66
    },
    {
      "midi": 31,
      "hit": false,
      "t": 10529.212812499958,
      "d": 5.040312499999345,
      "v": 35
    },
    {
      "midi": 98,
      "hit": false,
      "t": 10529.212812499958,
      "d": 10.08062499999869,
      "v": 49
    },
    {
      "midi": 82,
      "hit": false,
      "t": 10529.212812499958,
      "d": 10.08062499999869,
      "v": 64
    },
    {
      "midi": 59,
      "hit": false,
      "t": 10529.212812499958,
      "d": 65.52406249999694,
      "v": 67
    },
    {
      "midi": 64,
      "hit": false,
      "t": 10534.253124999957,
      "d": 80.64499999999862,
      "v": 55
    },
    {
      "midi": 54,
      "hit": false,
      "t": 10544.333749999956,
      "d": 40.32250000000022,
      "v": 39
    },
    {
      "midi": 98,
      "hit": false,
      "t": 10645.139999999956,
      "d": 10.08062499999869,
      "v": 78
    },
    {
      "midi": 82,
      "hit": false,
      "t": 10645.139999999956,
      "d": 10.08062499999869,
      "v": 102
    },
    {
      "midi": 55,
      "hit": false,
      "t": 10645.139999999956,
      "d": 10.08062499999869,
      "v": 54
    },
    {
      "midi": 42,
      "hit": false,
      "t": 10645.139999999956,
      "d": 60.4837499999976,
      "v": 98
    },
    {
      "midi": 35,
      "hit": false,
      "t": 10645.139999999956,
      "d": 90.72562499999731,
      "v": 86
    },
    {
      "midi": 36,
      "hit": false,
      "t": 10645.139999999956,
      "d": 211.69312499999614,
      "v": 105
    },
    {
      "midi": 71,
      "hit": false,
      "t": 10645.139999999956,
      "d": 322.57999999999083,
      "v": 104
    },
    {
      "midi": 59,
      "hit": false,
      "t": 10650.180312499955,
      "d": 10.08062499999869,
      "v": 41
    },
    {
      "midi": 64,
      "hit": false,
      "t": 10655.220624999954,
      "d": 10.08062499999869,
      "v": 49
    },
    {
      "midi": 31,
      "hit": false,
      "t": 10766.107499999953,
      "d": 5.040312499999345,
      "v": 30
    },
    {
      "midi": 98,
      "hit": false,
      "t": 10766.107499999953,
      "d": 5.040312499999345,
      "v": 41
    },
    {
      "midi": 82,
      "hit": false,
      "t": 10766.107499999953,
      "d": 5.040312499999345,
      "v": 51
    },
    {
      "midi": 59,
      "hit": false,
      "t": 10766.107499999953,
      "d": 50.40312499999891,
      "v": 22
    },
    {
      "midi": 64,
      "hit": false,
      "t": 10771.147812499952,
      "d": 55.44343750000007,
      "v": 22
    },
    {
      "midi": 54,
      "hit": false,
      "t": 10786.268749999952,
      "d": 40.32250000000022,
      "v": 34
    },
    {
      "midi": 82,
      "hit": false,
      "t": 10887.074999999952,
      "d": 10.08062499999869,
      "v": 60
    },
    {
      "midi": 55,
      "hit": false,
      "t": 10887.074999999952,
      "d": 10.08062499999869,
      "v": 55
    },
    {
      "midi": 42,
      "hit": false,
      "t": 10887.074999999952,
      "d": 40.32249999999658,
      "v": 73
    },
    {
      "midi": 60,
      "hit": false,
      "t": 10887.074999999952,
      "d": 70.56437499999629,
      "v": 61
    },
    {
      "midi": 36,
      "hit": false,
      "t": 10887.074999999952,
      "d": 206.65281249999498,
      "v": 105
    },
    {
      "midi": 59,
      "hit": false,
      "t": 10892.115312499951,
      "d": 10.08062499999869,
      "v": 55
    },
    {
      "midi": 64,
      "hit": false,
      "t": 10897.15562499995,
      "d": 25.201562499998545,
      "v": 55
    },
    {
      "midi": 54,
      "hit": false,
      "t": 10907.236249999949,
      "d": 70.56437499999811,
      "v": 93
    },
    {
      "midi": 71,
      "hit": false,
      "t": 11008.042499999947,
      "d": 322.5799999999999,
      "v": 104
    },
    {
      "midi": 98,
      "hit": false,
      "t": 11013.082812499946,
      "d": 10.08062500000051,
      "v": 45
    },
    {
      "midi": 82,
      "hit": false,
      "t": 11013.082812499946,
      "d": 10.08062500000051,
      "v": 58
    },
    {
      "midi": 54,
      "hit": false,
      "t": 11028.203749999946,
      "d": 40.32250000000022,
      "v": 31
    },
    {
      "midi": 98,
      "hit": false,
      "t": 11129.009999999947,
      "d": 10.08062499999869,
      "v": 84
    },
    {
      "midi": 82,
      "hit": false,
      "t": 11129.009999999947,
      "d": 10.08062499999869,
      "v": 108
    },
    {
      "midi": 60,
      "hit": false,
      "t": 11129.009999999947,
      "d": 45.36281249999956,
      "v": 51
    },
    {
      "midi": 55,
      "hit": false,
      "t": 11129.009999999947,
      "d": 50.40312499999891,
      "v": 54
    },
    {
      "midi": 42,
      "hit": false,
      "t": 11129.009999999947,
      "d": 65.52406249999876,
      "v": 98
    },
    {
      "midi": 40,
      "hit": false,
      "t": 11129.009999999947,
      "d": 65.52406249999876,
      "v": 91
    },
    {
      "midi": 28,
      "hit": false,
      "t": 11129.009999999947,
      "d": 191.53187499999876,
      "v": 102
    },
    {
      "midi": 59,
      "hit": false,
      "t": 11134.050312499947,
      "d": 45.36281249999956,
      "v": 49
    },
    {
      "midi": 64,
      "hit": false,
      "t": 11139.090624999946,
      "d": 70.56437499999993,
      "v": 56
    },
    {
      "midi": 39,
      "hit": false,
      "t": 11149.171249999947,
      "d": 70.56437499999993,
      "v": 76
    },
    {
      "midi": 98,
      "hit": false,
      "t": 11249.977499999946,
      "d": 5.040312499999345,
      "v": 35
    },
    {
      "midi": 82,
      "hit": false,
      "t": 11249.977499999946,
      "d": 5.040312499999345,
      "v": 43
    },
    {
      "midi": 55,
      "hit": false,
      "t": 11249.977499999946,
      "d": 45.36281249999956,
      "v": 23
    },
    {
      "midi": 60,
      "hit": false,
      "t": 11249.977499999946,
      "d": 45.36281249999956,
      "v": 42
    },
    {
      "midi": 59,
      "hit": false,
      "t": 11255.017812499946,
      "d": 50.40312500000073,
      "v": 47
    },
    {
      "midi": 64,
      "hit": false,
      "t": 11260.058124999945,
      "d": 45.36281250000138,
      "v": 38
    },
    {
      "midi": 54,
      "hit": false,
      "t": 11270.138749999946,
      "d": 40.32250000000022,
      "v": 39
    },
    {
      "midi": 82,
      "hit": false,
      "t": 11370.944999999945,
      "d": 10.08062499999869,
      "v": 66
    },
    {
      "midi": 42,
      "hit": false,
      "t": 11370.944999999945,
      "d": 60.48374999999942,
      "v": 82
    },
    {
      "midi": 54,
      "hit": false,
      "t": 11370.944999999945,
      "d": 85.68531249999978,
      "v": 50
    },
    {
      "midi": 31,
      "hit": false,
      "t": 11370.944999999945,
      "d": 161.28999999999724,
      "v": 105
    },
    {
      "midi": 71,
      "hit": false,
      "t": 11370.944999999945,
      "d": 216.7334374999973,
      "v": 104
    },
    {
      "midi": 55,
      "hit": false,
      "t": 11491.912499999946,
      "d": 10.08062499999869,
      "v": 51
    },
    {
      "midi": 59,
      "hit": false,
      "t": 11496.952812499945,
      "d": 5.040312499999345,
      "v": 49
    },
    {
      "midi": 98,
      "hit": false,
      "t": 11496.952812499945,
      "d": 10.08062499999869,
      "v": 49
    },
    {
      "midi": 82,
      "hit": false,
      "t": 11496.952812499945,
      "d": 10.08062499999869,
      "v": 64
    },
    {
      "midi": 64,
      "hit": false,
      "t": 11501.993124999944,
      "d": 10.08062499999869,
      "v": 54
    },
    {
      "midi": 54,
      "hit": false,
      "t": 11512.073749999943,
      "d": 40.3224999999984,
      "v": 40
    },
    {
      "midi": 98,
      "hit": false,
      "t": 11612.879999999943,
      "d": 10.08062499999869,
      "v": 78
    },
    {
      "midi": 82,
      "hit": false,
      "t": 11612.879999999943,
      "d": 10.08062499999869,
      "v": 102
    },
    {
      "midi": 55,
      "hit": false,
      "t": 11612.879999999943,
      "d": 65.52406249999876,
      "v": 65
    },
    {
      "midi": 42,
      "hit": false,
      "t": 11612.879999999943,
      "d": 75.60468749999927,
      "v": 98
    },
    {
      "midi": 35,
      "hit": false,
      "t": 11612.879999999943,
      "d": 90.72562499999731,
      "v": 79
    },
    {
      "midi": 51,
      "hit": false,
      "t": 11612.879999999943,
      "d": 241.93499999999403,
      "v": 104
    },
    {
      "midi": 47,
      "hit": false,
      "t": 11612.879999999943,
      "d": 241.93499999999403,
      "v": 104
    },
    {
      "midi": 71,
      "hit": false,
      "t": 11612.879999999943,
      "d": 322.5799999999963,
      "v": 47
    },
    {
      "midi": 59,
      "hit": false,
      "t": 11617.920312499942,
      "d": 60.48374999999942,
      "v": 60
    },
    {
      "midi": 63,
      "hit": false,
      "t": 11622.960624999942,
      "d": 70.56437499999993,
      "v": 60
    },
    {
      "midi": 98,
      "hit": false,
      "t": 11733.84749999994,
      "d": 5.040312499999345,
      "v": 41
    },
    {
      "midi": 82,
      "hit": false,
      "t": 11733.84749999994,
      "d": 5.040312499999345,
      "v": 51
    },
    {
      "midi": 55,
      "hit": false,
      "t": 11733.84749999994,
      "d": 10.08062499999869,
      "v": 51
    },
    {
      "midi": 59,
      "hit": false,
      "t": 11738.88781249994,
      "d": 5.040312499999345,
      "v": 41
    },
    {
      "midi": 63,
      "hit": false,
      "t": 11743.928124999939,
      "d": 10.08062499999869,
      "v": 57
    },
    {
      "midi": 54,
      "hit": false,
      "t": 11754.008749999937,
      "d": 40.32250000000022,
      "v": 34
    },
    {
      "midi": 82,
      "hit": false,
      "t": 11854.814999999937,
      "d": 10.08062500000051,
      "v": 60
    },
    {
      "midi": 42,
      "hit": false,
      "t": 11854.814999999937,
      "d": 45.36281250000138,
      "v": 82
    },
    {
      "midi": 54,
      "hit": false,
      "t": 11854.814999999937,
      "d": 70.56437500000175,
      "v": 94
    },
    {
      "midi": 55,
      "hit": false,
      "t": 11975.78249999994,
      "d": 50.40312499999709,
      "v": 22
    },
    {
      "midi": 71,
      "hit": false,
      "t": 11975.78249999994,
      "d": 322.57999999999083,
      "v": 104
    },
    {
      "midi": 98,
      "hit": false,
      "t": 11980.822812499939,
      "d": 10.08062499999869,
      "v": 45
    },
    {
      "midi": 82,
      "hit": false,
      "t": 11980.822812499939,
      "d": 10.08062499999869,
      "v": 58
    },
    {
      "midi": 59,
      "hit": false,
      "t": 11980.822812499939,
      "d": 50.40312499999709,
      "v": 22
    },
    {
      "midi": 63,
      "hit": false,
      "t": 11985.863124999938,
      "d": 50.40312499999709,
      "v": 25
    },
    {
      "midi": 54,
      "hit": false,
      "t": 11995.943749999937,
      "d": 40.3224999999984,
      "v": 40
    },
    {
      "midi": 31,
      "hit": false,
      "t": 12091.709687499935,
      "d": 357.86218749999716,
      "v": 105
    },
    {
      "midi": 98,
      "hit": false,
      "t": 12096.749999999935,
      "d": 10.08062499999869,
      "v": 84
    },
    {
      "midi": 82,
      "hit": false,
      "t": 12096.749999999935,
      "d": 10.08062499999869,
      "v": 108
    },
    {
      "midi": 55,
      "hit": false,
      "t": 12096.749999999935,
      "d": 10.08062499999869,
      "v": 49
    },
    {
      "midi": 40,
      "hit": false,
      "t": 12096.749999999935,
      "d": 65.52406249999694,
      "v": 91
    },
    {
      "midi": 42,
      "hit": false,
      "t": 12096.749999999935,
      "d": 70.56437499999629,
      "v": 98
    },
    {
      "midi": 59,
      "hit": false,
      "t": 12101.790312499934,
      "d": 10.08062499999869,
      "v": 56
    },
    {
      "midi": 63,
      "hit": false,
      "t": 12106.830624999933,
      "d": 10.08062499999869,
      "v": 54
    },
    {
      "midi": 98,
      "hit": false,
      "t": 12217.717499999932,
      "d": 5.040312499999345,
      "v": 35
    },
    {
      "midi": 82,
      "hit": false,
      "t": 12217.717499999932,
      "d": 5.040312499999345,
      "v": 43
    },
    {
      "midi": 54,
      "hit": false,
      "t": 12237.87874999993,
      "d": 40.32250000000022,
      "v": 39
    },
    {
      "midi": 82,
      "hit": false,
      "t": 12338.68499999993,
      "d": 10.08062500000051,
      "v": 66
    },
    {
      "midi": 42,
      "hit": false,
      "t": 12338.68499999993,
      "d": 50.40312500000073,
      "v": 64
    },
    {
      "midi": 54,
      "hit": false,
      "t": 12338.68499999993,
      "d": 85.6853125000016,
      "v": 47
    },
    {
      "midi": 51,
      "hit": false,
      "t": 12338.68499999993,
      "d": 216.73343749999913,
      "v": 104
    },
    {
      "midi": 47,
      "hit": false,
      "t": 12338.68499999993,
      "d": 216.73343749999913,
      "v": 104
    },
    {
      "midi": 71,
      "hit": false,
      "t": 12338.68499999993,
      "d": 216.73343749999913,
      "v": 104
    },
    {
      "midi": 55,
      "hit": false,
      "t": 12459.652499999933,
      "d": 50.40312499999709,
      "v": 65
    },
    {
      "midi": 31,
      "hit": false,
      "t": 12464.692812499932,
      "d": 5.040312499999345,
      "v": 21
    },
    {
      "midi": 98,
      "hit": false,
      "t": 12464.692812499932,
      "d": 10.08062499999869,
      "v": 49
    },
    {
      "midi": 82,
      "hit": false,
      "t": 12464.692812499932,
      "d": 10.08062499999869,
      "v": 64
    },
    {
      "midi": 59,
      "hit": false,
      "t": 12464.692812499932,
      "d": 70.56437499999811,
      "v": 73
    },
    {
      "midi": 63,
      "hit": false,
      "t": 12469.733124999932,
      "d": 75.60468749999745,
      "v": 55
    },
    {
      "midi": 54,
      "hit": false,
      "t": 12479.81374999993,
      "d": 40.32250000000022,
      "v": 39
    },
    {
      "midi": 98,
      "hit": false,
      "t": 12580.61999999993,
      "d": 10.08062499999869,
      "v": 78
    },
    {
      "midi": 82,
      "hit": false,
      "t": 12580.61999999993,
      "d": 10.08062499999869,
      "v": 102
    },
    {
      "midi": 55,
      "hit": false,
      "t": 12580.61999999993,
      "d": 10.08062499999869,
      "v": 54
    },
    {
      "midi": 42,
      "hit": false,
      "t": 12580.61999999993,
      "d": 65.52406249999694,
      "v": 93
    },
    {
      "midi": 35,
      "hit": false,
      "t": 12580.61999999993,
      "d": 90.72562499999731,
      "v": 86
    },
    {
      "midi": 71,
      "hit": false,
      "t": 12580.61999999993,
      "d": 216.7334374999973,
      "v": 104
    },
    {
      "midi": 59,
      "hit": false,
      "t": 12585.66031249993,
      "d": 5.040312499999345,
      "v": 49
    },
    {
      "midi": 63,
      "hit": false,
      "t": 12590.700624999929,
      "d": 10.08062499999869,
      "v": 57
    },
    {
      "midi": 98,
      "hit": false,
      "t": 12701.587499999927,
      "d": 5.040312499999345,
      "v": 41
    },
    {
      "midi": 82,
      "hit": false,
      "t": 12701.587499999927,
      "d": 5.040312499999345,
      "v": 51
    },
    {
      "midi": 31,
      "hit": false,
      "t": 12706.627812499926,
      "d": 5.040312499999345,
      "v": 30
    },
    {
      "midi": 54,
      "hit": false,
      "t": 12721.748749999926,
      "d": 40.32250000000022,
      "v": 34
    },
    {
      "midi": 82,
      "hit": false,
      "t": 12822.554999999928,
      "d": 10.08062499999869,
      "v": 60
    },
    {
      "midi": 55,
      "hit": false,
      "t": 12822.554999999928,
      "d": 10.08062499999869,
      "v": 49
    },
    {
      "midi": 42,
      "hit": false,
      "t": 12822.554999999928,
      "d": 60.48374999999942,
      "v": 87
    },
    {
      "midi": 69,
      "hit": false,
      "t": 12822.554999999928,
      "d": 216.73343749999913,
      "v": 104
    },
    {
      "midi": 59,
      "hit": false,
      "t": 12827.595312499927,
      "d": 25.201562500000364,
      "v": 47
    },
    {
      "midi": 63,
      "hit": false,
      "t": 12832.635624999926,
      "d": 10.08062500000051,
      "v": 54
    },
    {
      "midi": 54,
      "hit": false,
      "t": 12842.716249999927,
      "d": 70.56437499999811,
      "v": 93
    },
    {
      "midi": 98,
      "hit": false,
      "t": 12948.562812499926,
      "d": 10.08062500000051,
      "v": 45
    },
    {
      "midi": 82,
      "hit": false,
      "t": 12948.562812499926,
      "d": 10.08062500000051,
      "v": 58
    },
    {
      "midi": 54,
      "hit": false,
      "t": 12963.683749999926,
      "d": 40.32250000000022,
      "v": 31
    },
    {
      "midi": 98,
      "hit": false,
      "t": 13064.489999999925,
      "d": 10.08062499999869,
      "v": 84
    },
    {
      "midi": 82,
      "hit": false,
      "t": 13064.489999999925,
      "d": 10.08062499999869,
      "v": 108
    },
    {
      "midi": 40,
      "hit": false,
      "t": 13064.489999999925,
      "d": 65.52406249999876,
      "v": 94
    },
    {
      "midi": 55,
      "hit": false,
      "t": 13064.489999999925,
      "d": 65.52406249999876,
      "v": 57
    },
    {
      "midi": 42,
      "hit": false,
      "t": 13064.489999999925,
      "d": 80.64499999999862,
      "v": 93
    },
    {
      "midi": 67,
      "hit": false,
      "t": 13064.489999999925,
      "d": 216.7334374999973,
      "v": 104
    },
    {
      "midi": 59,
      "hit": false,
      "t": 13069.530312499925,
      "d": 70.56437499999993,
      "v": 59
    },
    {
      "midi": 63,
      "hit": false,
      "t": 13074.570624999924,
      "d": 70.56437499999993,
      "v": 59
    },
    {
      "midi": 39,
      "hit": false,
      "t": 13084.651249999924,
      "d": 70.56437499999993,
      "v": 76
    },
    {
      "midi": 98,
      "hit": false,
      "t": 13185.457499999924,
      "d": 5.040312499999345,
      "v": 35
    },
    {
      "midi": 82,
      "hit": false,
      "t": 13185.457499999924,
      "d": 5.040312499999345,
      "v": 43
    },
    {
      "midi": 55,
      "hit": false,
      "t": 13185.457499999924,
      "d": 40.3224999999984,
      "v": 44
    },
    {
      "midi": 59,
      "hit": false,
      "t": 13190.497812499923,
      "d": 55.443437499998254,
      "v": 38
    },
    {
      "midi": 63,
      "hit": false,
      "t": 13195.538124999923,
      "d": 60.48374999999942,
      "v": 45
    },
    {
      "midi": 54,
      "hit": false,
      "t": 13205.618749999923,
      "d": 40.3224999999984,
      "v": 39
    },
    {
      "midi": 82,
      "hit": false,
      "t": 13306.424999999921,
      "d": 10.08062500000051,
      "v": 66
    },
    {
      "midi": 42,
      "hit": false,
      "t": 13306.424999999921,
      "d": 55.44343750000007,
      "v": 82
    },
    {
      "midi": 54,
      "hit": false,
      "t": 13306.424999999921,
      "d": 85.68531249999978,
      "v": 50
    },
    {
      "midi": 31,
      "hit": false,
      "t": 13306.424999999921,
      "d": 161.28999999999724,
      "v": 102
    },
    {
      "midi": 71,
      "hit": false,
      "t": 13306.424999999921,
      "d": 216.7334374999973,
      "v": 104
    },
    {
      "midi": 55,
      "hit": false,
      "t": 13427.392499999922,
      "d": 10.08062499999869,
      "v": 47
    },
    {
      "midi": 29,
      "hit": false,
      "t": 13427.392499999922,
      "d": 95.76593749999665,
      "v": 45
    },
    {
      "midi": 59,
      "hit": false,
      "t": 13432.432812499921,
      "d": 5.040312499999345,
      "v": 45
    },
    {
      "midi": 98,
      "hit": false,
      "t": 13432.432812499921,
      "d": 10.08062499999869,
      "v": 49
    },
    {
      "midi": 82,
      "hit": false,
      "t": 13432.432812499921,
      "d": 10.08062499999869,
      "v": 64
    },
    {
      "midi": 63,
      "hit": false,
      "t": 13437.47312499992,
      "d": 10.08062499999869,
      "v": 47
    },
    {
      "midi": 54,
      "hit": false,
      "t": 13447.55374999992,
      "d": 40.3224999999984,
      "v": 40
    },
    {
      "midi": 98,
      "hit": false,
      "t": 13548.359999999919,
      "d": 10.08062499999869,
      "v": 78
    },
    {
      "midi": 82,
      "hit": false,
      "t": 13548.359999999919,
      "d": 10.08062499999869,
      "v": 102
    },
    {
      "midi": 54,
      "hit": false,
      "t": 13548.359999999919,
      "d": 60.48374999999942,
      "v": 60
    },
    {
      "midi": 42,
      "hit": false,
      "t": 13548.359999999919,
      "d": 70.56437499999993,
      "v": 95
    },
    {
      "midi": 59,
      "hit": false,
      "t": 13548.359999999919,
      "d": 70.56437499999993,
      "v": 66
    },
    {
      "midi": 35,
      "hit": false,
      "t": 13548.359999999919,
      "d": 90.72562499999913,
      "v": 87
    },
    {
      "midi": 52,
      "hit": false,
      "t": 13548.359999999919,
      "d": 241.93499999999585,
      "v": 104
    },
    {
      "midi": 69,
      "hit": false,
      "t": 13548.359999999919,
      "d": 322.5799999999963,
      "v": 104
    },
    {
      "midi": 28,
      "hit": false,
      "t": 13548.359999999919,
      "d": 372.9831249999952,
      "v": 102
    },
    {
      "midi": 57,
      "hit": false,
      "t": 13553.400312499918,
      "d": 65.52406250000058,
      "v": 67
    },
    {
      "midi": 62,
      "hit": false,
      "t": 13558.440624999917,
      "d": 65.52406250000058,
      "v": 60
    },
    {
      "midi": 98,
      "hit": false,
      "t": 13669.327499999918,
      "d": 5.040312499999345,
      "v": 41
    },
    {
      "midi": 82,
      "hit": false,
      "t": 13669.327499999918,
      "d": 5.040312499999345,
      "v": 51
    },
    {
      "midi": 54,
      "hit": false,
      "t": 13669.327499999918,
      "d": 10.08062499999869,
      "v": 41
    },
    {
      "midi": 57,
      "hit": false,
      "t": 13674.367812499917,
      "d": 5.040312499999345,
      "v": 55
    },
    {
      "midi": 62,
      "hit": false,
      "t": 13679.408124999916,
      "d": 10.08062499999869,
      "v": 56
    },
    {
      "midi": 54,
      "hit": false,
      "t": 13689.488749999915,
      "d": 40.32250000000022,
      "v": 34
    },
    {
      "midi": 82,
      "hit": false,
      "t": 13790.294999999915,
      "d": 10.08062500000051,
      "v": 60
    },
    {
      "midi": 42,
      "hit": false,
      "t": 13790.294999999915,
      "d": 55.44343750000007,
      "v": 82
    },
    {
      "midi": 54,
      "hit": false,
      "t": 13790.294999999915,
      "d": 70.56437499999993,
      "v": 94
    },
    {
      "midi": 98,
      "hit": false,
      "t": 13916.302812499915,
      "d": 10.08062499999869,
      "v": 45
    },
    {
      "midi": 82,
      "hit": false,
      "t": 13916.302812499915,
      "d": 10.08062499999869,
      "v": 58
    },
    {
      "midi": 57,
      "hit": false,
      "t": 13916.302812499915,
      "d": 35.282187499997235,
      "v": 32
    },
    {
      "midi": 62,
      "hit": false,
      "t": 13921.343124999914,
      "d": 40.32249999999658,
      "v": 26
    },
    {
      "midi": 54,
      "hit": false,
      "t": 13931.423749999913,
      "d": 25.201562499998545,
      "v": 40
    },
    {
      "midi": 98,
      "hit": false,
      "t": 14032.22999999991,
      "d": 10.08062499999869,
      "v": 84
    },
    {
      "midi": 82,
      "hit": false,
      "t": 14032.22999999991,
      "d": 10.08062499999869,
      "v": 108
    },
    {
      "midi": 54,
      "hit": false,
      "t": 14032.22999999991,
      "d": 10.08062499999869,
      "v": 54
    },
    {
      "midi": 42,
      "hit": false,
      "t": 14032.22999999991,
      "d": 75.60468749999745,
      "v": 93
    },
    {
      "midi": 40,
      "hit": false,
      "t": 14032.22999999991,
      "d": 75.60468749999745,
      "v": 94
    },
    {
      "midi": 59,
      "hit": false,
      "t": 14032.22999999991,
      "d": 85.68531249999796,
      "v": 60
    },
    {
      "midi": 57,
      "hit": false,
      "t": 14037.27031249991,
      "d": 5.040312499999345,
      "v": 49
    },
    {
      "midi": 62,
      "hit": false,
      "t": 14042.31062499991,
      "d": 10.08062499999869,
      "v": 49
    },
    {
      "midi": 98,
      "hit": false,
      "t": 14153.19749999991,
      "d": 5.040312499999345,
      "v": 35
    },
    {
      "midi": 82,
      "hit": false,
      "t": 14153.19749999991,
      "d": 5.040312499999345,
      "v": 43
    },
    {
      "midi": 54,
      "hit": false,
      "t": 14173.358749999908,
      "d": 40.32250000000022,
      "v": 39
    },
    {
      "midi": 82,
      "hit": false,
      "t": 14274.164999999908,
      "d": 10.08062499999869,
      "v": 66
    },
    {
      "midi": 54,
      "hit": false,
      "t": 14274.164999999908,
      "d": 40.3224999999984,
      "v": 47
    },
    {
      "midi": 42,
      "hit": false,
      "t": 14274.164999999908,
      "d": 50.40312499999709,
      "v": 73
    },
    {
      "midi": 52,
      "hit": false,
      "t": 14274.164999999908,
      "d": 216.73343749999367,
      "v": 104
    },
    {
      "midi": 69,
      "hit": false,
      "t": 14274.164999999908,
      "d": 433.4668749999928,
      "v": 104
    },
    {
      "midi": 57,
      "hit": false,
      "t": 14279.205312499907,
      "d": 40.3224999999984,
      "v": 26
    },
    {
      "midi": 62,
      "hit": false,
      "t": 14284.245624999907,
      "d": 45.362812499997744,
      "v": 22
    },
    {
      "midi": 59,
      "hit": false,
      "t": 14395.132499999905,
      "d": 85.68531249999796,
      "v": 61
    },
    {
      "midi": 98,
      "hit": false,
      "t": 14400.172812499904,
      "d": 10.08062499999869,
      "v": 49
    },
    {
      "midi": 82,
      "hit": false,
      "t": 14400.172812499904,
      "d": 10.08062499999869,
      "v": 64
    },
    {
      "midi": 57,
      "hit": false,
      "t": 14400.172812499904,
      "d": 85.68531249999796,
      "v": 58
    },
    {
      "midi": 62,
      "hit": false,
      "t": 14405.213124999904,
      "d": 85.68531249999796,
      "v": 68
    },
    {
      "midi": 54,
      "hit": false,
      "t": 14415.293749999903,
      "d": 40.32250000000022,
      "v": 39
    },
    {
      "midi": 98,
      "hit": false,
      "t": 14516.099999999902,
      "d": 10.08062499999869,
      "v": 78
    },
    {
      "midi": 82,
      "hit": false,
      "t": 14516.099999999902,
      "d": 10.08062499999869,
      "v": 102
    },
    {
      "midi": 54,
      "hit": false,
      "t": 14516.099999999902,
      "d": 10.08062499999869,
      "v": 41
    },
    {
      "midi": 42,
      "hit": false,
      "t": 14516.099999999902,
      "d": 55.443437499998254,
      "v": 87
    },
    {
      "midi": 35,
      "hit": false,
      "t": 14516.099999999902,
      "d": 95.76593749999847,
      "v": 87
    },
    {
      "midi": 28,
      "hit": false,
      "t": 14516.099999999902,
      "d": 357.86218749999716,
      "v": 105
    },
    {
      "midi": 57,
      "hit": false,
      "t": 14521.140312499901,
      "d": 5.040312499999345,
      "v": 47
    },
    {
      "midi": 62,
      "hit": false,
      "t": 14526.1806249999,
      "d": 10.08062499999869,
      "v": 54
    },
    {
      "midi": 98,
      "hit": false,
      "t": 14637.067499999901,
      "d": 5.040312499999345,
      "v": 41
    },
    {
      "midi": 82,
      "hit": false,
      "t": 14637.067499999901,
      "d": 5.040312499999345,
      "v": 51
    },
    {
      "midi": 54,
      "hit": false,
      "t": 14657.2287499999,
      "d": 40.32250000000022,
      "v": 34
    },
    {
      "midi": 82,
      "hit": false,
      "t": 14758.034999999902,
      "d": 10.08062499999869,
      "v": 60
    },
    {
      "midi": 54,
      "hit": false,
      "t": 14758.034999999902,
      "d": 10.08062499999869,
      "v": 55
    },
    {
      "midi": 42,
      "hit": false,
      "t": 14758.034999999902,
      "d": 50.40312499999709,
      "v": 82
    },
    {
      "midi": 59,
      "hit": false,
      "t": 14758.034999999902,
      "d": 50.40312499999709,
      "v": 61
    },
    {
      "midi": 71,
      "hit": false,
      "t": 14758.034999999902,
      "d": 216.73343749999913,
      "v": 104
    },
    {
      "midi": 57,
      "hit": false,
      "t": 14763.075312499901,
      "d": 10.08062499999869,
      "v": 49
    },
    {
      "midi": 62,
      "hit": false,
      "t": 14768.1156249999,
      "d": 10.08062499999869,
      "v": 49
    },
    {
      "midi": 54,
      "hit": false,
      "t": 14778.196249999899,
      "d": 20.1612499999992,
      "v": 93
    },
    {
      "midi": 98,
      "hit": false,
      "t": 14884.0428124999,
      "d": 10.08062500000051,
      "v": 45
    },
    {
      "midi": 82,
      "hit": false,
      "t": 14884.0428124999,
      "d": 10.08062500000051,
      "v": 58
    },
    {
      "midi": 54,
      "hit": false,
      "t": 14899.1637499999,
      "d": 40.32250000000022,
      "v": 31
    },
    {
      "midi": 28,
      "hit": false,
      "t": 14994.9296874999,
      "d": 171.37062499999774,
      "v": 102
    },
    {
      "midi": 98,
      "hit": false,
      "t": 14999.9699999999,
      "d": 10.08062499999869,
      "v": 84
    },
    {
      "midi": 82,
      "hit": false,
      "t": 14999.9699999999,
      "d": 10.08062499999869,
      "v": 108
    },
    {
      "midi": 54,
      "hit": false,
      "t": 14999.9699999999,
      "d": 55.44343750000007,
      "v": 59
    },
    {
      "midi": 42,
      "hit": false,
      "t": 14999.9699999999,
      "d": 60.48374999999942,
      "v": 87
    },
    {
      "midi": 40,
      "hit": false,
      "t": 14999.9699999999,
      "d": 60.48374999999942,
      "v": 94
    },
    {
      "midi": 59,
      "hit": false,
      "t": 14999.9699999999,
      "d": 85.68531249999978,
      "v": 60
    },
    {
      "midi": 69,
      "hit": false,
      "t": 14999.9699999999,
      "d": 216.73343749999913,
      "v": 104
    },
    {
      "midi": 57,
      "hit": false,
      "t": 15005.010312499899,
      "d": 65.52406250000058,
      "v": 58
    },
    {
      "midi": 62,
      "hit": false,
      "t": 15010.050624999898,
      "d": 60.48375000000124,
      "v": 58
    },
    {
      "midi": 39,
      "hit": false,
      "t": 15020.131249999899,
      "d": 70.56437499999993,
      "v": 76
    },
    {
      "midi": 98,
      "hit": false,
      "t": 15120.937499999898,
      "d": 5.040312499999345,
      "v": 35
    },
    {
      "midi": 82,
      "hit": false,
      "t": 15120.937499999898,
      "d": 5.040312499999345,
      "v": 43
    },
    {
      "midi": 59,
      "hit": false,
      "t": 15120.937499999898,
      "d": 45.36281249999956,
      "v": 38
    },
    {
      "midi": 57,
      "hit": false,
      "t": 15125.977812499897,
      "d": 65.52406250000058,
      "v": 38
    },
    {
      "midi": 62,
      "hit": false,
      "t": 15131.018124999897,
      "d": 75.60468750000109,
      "v": 38
    },
    {
      "midi": 54,
      "hit": false,
      "t": 15141.098749999897,
      "d": 40.32250000000022,
      "v": 39
    },
    {
      "midi": 40,
      "hit": false,
      "t": 15236.864687499898,
      "d": 196.5721874999981,
      "v": 97
    },
    {
      "midi": 82,
      "hit": false,
      "t": 15241.904999999897,
      "d": 10.08062499999869,
      "v": 66
    },
    {
      "midi": 42,
      "hit": false,
      "t": 15241.904999999897,
      "d": 50.40312499999891,
      "v": 75
    },
    {
      "midi": 54,
      "hit": false,
      "t": 15241.904999999897,
      "d": 85.68531249999978,
      "v": 50
    },
    {
      "midi": 68,
      "hit": false,
      "t": 15241.904999999897,
      "d": 216.73343749999913,
      "v": 104
    },
    {
      "midi": 54,
      "hit": false,
      "t": 15362.872499999898,
      "d": 10.08062499999869,
      "v": 49
    },
    {
      "midi": 98,
      "hit": false,
      "t": 15367.912812499897,
      "d": 10.08062499999869,
      "v": 49
    },
    {
      "midi": 82,
      "hit": false,
      "t": 15367.912812499897,
      "d": 10.08062499999869,
      "v": 64
    },
    {
      "midi": 57,
      "hit": false,
      "t": 15367.912812499897,
      "d": 25.201562499998545,
      "v": 54
    },
    {
      "midi": 62,
      "hit": false,
      "t": 15372.953124999896,
      "d": 10.08062499999869,
      "v": 57
    },
    {
      "midi": 54,
      "hit": false,
      "t": 15383.033749999895,
      "d": 40.32250000000022,
      "v": 40
    },
    {
      "midi": 98,
      "hit": false,
      "t": 15483.839999999896,
      "d": 10.08062499999869,
      "v": 78
    },
    {
      "midi": 82,
      "hit": false,
      "t": 15483.839999999896,
      "d": 10.08062499999869,
      "v": 102
    },
    {
      "midi": 42,
      "hit": false,
      "t": 15483.839999999896,
      "d": 45.36281249999956,
      "v": 95
    },
    {
      "midi": 56,
      "hit": false,
      "t": 15483.839999999896,
      "d": 65.52406249999876,
      "v": 60
    },
    {
      "midi": 35,
      "hit": false,
      "t": 15483.839999999896,
      "d": 105.84656249999898,
      "v": 87
    },
    {
      "midi": 52,
      "hit": false,
      "t": 15483.839999999896,
      "d": 241.93499999999767,
      "v": 104
    },
    {
      "midi": 28,
      "hit": false,
      "t": 15483.839999999896,
      "d": 307.45906249999825,
      "v": 105
    },
    {
      "midi": 68,
      "hit": false,
      "t": 15483.839999999896,
      "d": 866.9337499999892,
      "v": 104
    },
    {
      "midi": 59,
      "hit": false,
      "t": 15488.880312499896,
      "d": 65.52406249999876,
      "v": 60
    },
    {
      "midi": 64,
      "hit": false,
      "t": 15493.920624999895,
      "d": 80.64500000000044,
      "v": 60
    },
    {
      "midi": 98,
      "hit": false,
      "t": 15604.807499999895,
      "d": 5.040312499999345,
      "v": 41
    },
    {
      "midi": 82,
      "hit": false,
      "t": 15604.807499999895,
      "d": 5.040312499999345,
      "v": 51
    },
    {
      "midi": 56,
      "hit": false,
      "t": 15604.807499999895,
      "d": 10.08062499999869,
      "v": 49
    },
    {
      "midi": 59,
      "hit": false,
      "t": 15609.847812499895,
      "d": 10.08062499999869,
      "v": 54
    },
    {
      "midi": 64,
      "hit": false,
      "t": 15614.888124999894,
      "d": 10.08062499999869,
      "v": 59
    },
    {
      "midi": 54,
      "hit": false,
      "t": 15624.968749999893,
      "d": 40.32250000000022,
      "v": 34
    },
    {
      "midi": 82,
      "hit": false,
      "t": 15725.774999999894,
      "d": 10.08062500000051,
      "v": 60
    },
    {
      "midi": 42,
      "hit": false,
      "t": 15725.774999999894,
      "d": 40.32250000000022,
      "v": 82
    },
    {
      "midi": 54,
      "hit": false,
      "t": 15725.774999999894,
      "d": 70.56437499999993,
      "v": 94
    },
    {
      "midi": 59,
      "hit": false,
      "t": 15846.742499999895,
      "d": 50.40312499999891,
      "v": 26
    },
    {
      "midi": 28,
      "hit": false,
      "t": 15846.742499999895,
      "d": 90.72562499999731,
      "v": 102
    },
    {
      "midi": 98,
      "hit": false,
      "t": 15851.782812499894,
      "d": 10.08062500000051,
      "v": 45
    },
    {
      "midi": 82,
      "hit": false,
      "t": 15851.782812499894,
      "d": 10.08062500000051,
      "v": 58
    },
    {
      "midi": 64,
      "hit": false,
      "t": 15851.782812499894,
      "d": 50.40312499999891,
      "v": 22
    },
    {
      "midi": 54,
      "hit": false,
      "t": 15866.903749999894,
      "d": 40.3224999999984,
      "v": 40
    },
    {
      "midi": 98,
      "hit": false,
      "t": 15967.709999999892,
      "d": 10.08062499999869,
      "v": 84
    },
    {
      "midi": 82,
      "hit": false,
      "t": 15967.709999999892,
      "d": 10.08062499999869,
      "v": 108
    },
    {
      "midi": 56,
      "hit": false,
      "t": 15967.709999999892,
      "d": 10.08062499999869,
      "v": 57
    },
    {
      "midi": 42,
      "hit": false,
      "t": 15967.709999999892,
      "d": 65.52406249999694,
      "v": 98
    },
    {
      "midi": 40,
      "hit": false,
      "t": 15967.709999999892,
      "d": 70.56437499999629,
      "v": 94
    },
    {
      "midi": 35,
      "hit": false,
      "t": 15967.709999999892,
      "d": 297.3784374999959,
      "v": 105
    },
    {
      "midi": 59,
      "hit": false,
      "t": 15972.750312499891,
      "d": 10.08062499999869,
      "v": 55
    },
    {
      "midi": 64,
      "hit": false,
      "t": 15977.79062499989,
      "d": 10.08062499999869,
      "v": 51
    },
    {
      "midi": 98,
      "hit": false,
      "t": 16088.677499999889,
      "d": 5.040312499999345,
      "v": 35
    },
    {
      "midi": 82,
      "hit": false,
      "t": 16088.677499999889,
      "d": 5.040312499999345,
      "v": 43
    },
    {
      "midi": 54,
      "hit": false,
      "t": 16108.838749999888,
      "d": 40.32250000000022,
      "v": 39
    },
    {
      "midi": 82,
      "hit": false,
      "t": 16209.644999999888,
      "d": 10.08062500000051,
      "v": 66
    },
    {
      "midi": 42,
      "hit": false,
      "t": 16209.644999999888,
      "d": 40.32250000000022,
      "v": 82
    },
    {
      "midi": 54,
      "hit": false,
      "t": 16209.644999999888,
      "d": 85.68531249999978,
      "v": 47
    },
    {
      "midi": 52,
      "hit": false,
      "t": 16209.644999999888,
      "d": 216.73343749999913,
      "v": 104
    },
    {
      "midi": 56,
      "hit": false,
      "t": 16330.612499999888,
      "d": 75.60468749999745,
      "v": 65
    },
    {
      "midi": 35,
      "hit": false,
      "t": 16330.612499999888,
      "d": 90.72562499999731,
      "v": 102
    },
    {
      "midi": 31,
      "hit": false,
      "t": 16335.652812499888,
      "d": 5.040312499999345,
      "v": 35
    },
    {
      "midi": 98,
      "hit": false,
      "t": 16335.652812499888,
      "d": 10.08062499999869,
      "v": 49
    },
    {
      "midi": 82,
      "hit": false,
      "t": 16335.652812499888,
      "d": 10.08062499999869,
      "v": 64
    },
    {
      "midi": 59,
      "hit": false,
      "t": 16335.652812499888,
      "d": 65.52406249999694,
      "v": 60
    },
    {
      "midi": 64,
      "hit": false,
      "t": 16340.693124999887,
      "d": 80.64499999999862,
      "v": 65
    },
    {
      "midi": 54,
      "hit": false,
      "t": 16350.773749999886,
      "d": 40.32250000000022,
      "v": 39
    },
    {
      "midi": 98,
      "hit": false,
      "t": 16451.579999999885,
      "d": 10.080625000002328,
      "v": 78
    },
    {
      "midi": 82,
      "hit": false,
      "t": 16451.579999999885,
      "d": 10.080625000002328,
      "v": 102
    },
    {
      "midi": 56,
      "hit": false,
      "t": 16451.579999999885,
      "d": 25.20156250000582,
      "v": 30
    },
    {
      "midi": 42,
      "hit": false,
      "t": 16451.579999999885,
      "d": 60.483750000006694,
      "v": 98
    },
    {
      "midi": 35,
      "hit": false,
      "t": 16451.579999999885,
      "d": 90.7256250000064,
      "v": 86
    },
    {
      "midi": 28,
      "hit": false,
      "t": 16451.579999999885,
      "d": 211.69312500000888,
      "v": 105
    },
    {
      "midi": 59,
      "hit": false,
      "t": 16456.620312499886,
      "d": 5.040312500001164,
      "v": 41
    },
    {
      "midi": 64,
      "hit": false,
      "t": 16461.660624999888,
      "d": 10.080625000002328,
      "v": 49
    },
    {
      "midi": 31,
      "hit": false,
      "t": 16572.54749999989,
      "d": 5.040312500001164,
      "v": 30
    },
    {
      "midi": 98,
      "hit": false,
      "t": 16572.54749999989,
      "d": 5.040312500001164,
      "v": 41
    },
    {
      "midi": 82,
      "hit": false,
      "t": 16572.54749999989,
      "d": 5.040312500001164,
      "v": 51
    },
    {
      "midi": 59,
      "hit": false,
      "t": 16572.54749999989,
      "d": 45.3628125000032,
      "v": 25
    },
    {
      "midi": 64,
      "hit": false,
      "t": 16577.587812499893,
      "d": 35.28218750000087,
      "v": 22
    },
    {
      "midi": 54,
      "hit": false,
      "t": 16592.708749999892,
      "d": 40.32250000000204,
      "v": 34
    },
    {
      "midi": 82,
      "hit": false,
      "t": 16693.514999999894,
      "d": 10.080625000002328,
      "v": 60
    },
    {
      "midi": 56,
      "hit": false,
      "t": 16693.514999999894,
      "d": 10.080625000002328,
      "v": 54
    },
    {
      "midi": 42,
      "hit": false,
      "t": 16693.514999999894,
      "d": 40.322500000005675,
      "v": 73
    },
    {
      "midi": 28,
      "hit": false,
      "t": 16693.514999999894,
      "d": 206.65281250000407,
      "v": 105
    },
    {
      "midi": 68,
      "hit": false,
      "t": 16693.514999999894,
      "d": 216.73343750000276,
      "v": 104
    },
    {
      "midi": 59,
      "hit": false,
      "t": 16698.555312499895,
      "d": 5.040312500001164,
      "v": 49
    },
    {
      "midi": 64,
      "hit": false,
      "t": 16703.595624999896,
      "d": 10.080625000002328,
      "v": 49
    },
    {
      "midi": 54,
      "hit": false,
      "t": 16713.6762499999,
      "d": 70.56437500000175,
      "v": 93
    },
    {
      "midi": 98,
      "hit": false,
      "t": 16819.5228124999,
      "d": 10.08062499999869,
      "v": 45
    },
    {
      "midi": 82,
      "hit": false,
      "t": 16819.5228124999,
      "d": 10.08062499999869,
      "v": 58
    },
    {
      "midi": 54,
      "hit": false,
      "t": 16834.6437499999,
      "d": 40.3224999999984,
      "v": 31
    },
    {
      "midi": 98,
      "hit": false,
      "t": 16935.449999999895,
      "d": 10.080625000002328,
      "v": 84
    },
    {
      "midi": 82,
      "hit": false,
      "t": 16935.449999999895,
      "d": 10.080625000002328,
      "v": 108
    },
    {
      "midi": 56,
      "hit": false,
      "t": 16935.449999999895,
      "d": 60.48374999999942,
      "v": 54
    },
    {
      "midi": 42,
      "hit": false,
      "t": 16935.449999999895,
      "d": 65.52406250000058,
      "v": 98
    },
    {
      "midi": 40,
      "hit": false,
      "t": 16935.449999999895,
      "d": 65.52406250000058,
      "v": 91
    },
    {
      "midi": 32,
      "hit": false,
      "t": 16935.449999999895,
      "d": 191.53187500000058,
      "v": 102
    },
    {
      "midi": 68,
      "hit": false,
      "t": 16935.449999999895,
      "d": 216.73343749999913,
      "v": 104
    },
    {
      "midi": 59,
      "hit": false,
      "t": 16940.490312499896,
      "d": 60.48374999999942,
      "v": 67
    },
    {
      "midi": 64,
      "hit": false,
      "t": 16945.530624999898,
      "d": 70.56437499999811,
      "v": 67
    },
    {
      "midi": 39,
      "hit": false,
      "t": 16955.611249999896,
      "d": 70.56437499999811,
      "v": 76
    },
    {
      "midi": 98,
      "hit": false,
      "t": 17056.417499999894,
      "d": 5.040312500001164,
      "v": 35
    },
    {
      "midi": 82,
      "hit": false,
      "t": 17056.417499999894,
      "d": 5.040312500001164,
      "v": 43
    },
    {
      "midi": 56,
      "hit": false,
      "t": 17056.417499999894,
      "d": 45.36281249999956,
      "v": 23
    },
    {
      "midi": 59,
      "hit": false,
      "t": 17061.457812499895,
      "d": 40.3224999999984,
      "v": 44
    },
    {
      "midi": 64,
      "hit": false,
      "t": 17066.498124999896,
      "d": 40.3224999999984,
      "v": 29
    },
    {
      "midi": 54,
      "hit": false,
      "t": 17076.578749999895,
      "d": 40.32250000000204,
      "v": 39
    },
    {
      "midi": 82,
      "hit": false,
      "t": 17177.384999999897,
      "d": 10.080625000002328,
      "v": 66
    },
    {
      "midi": 42,
      "hit": false,
      "t": 17177.384999999897,
      "d": 60.483750000003056,
      "v": 82
    },
    {
      "midi": 54,
      "hit": false,
      "t": 17177.384999999897,
      "d": 85.6853125000016,
      "v": 50
    },
    {
      "midi": 35,
      "hit": false,
      "t": 17177.384999999897,
      "d": 161.29000000000087,
      "v": 105
    },
    {
      "midi": 68,
      "hit": false,
      "t": 17177.384999999897,
      "d": 216.73343750000276,
      "v": 104
    },
    {
      "midi": 98,
      "hit": false,
      "t": 17303.392812499897,
      "d": 10.08062499999869,
      "v": 49
    },
    {
      "midi": 82,
      "hit": false,
      "t": 17303.392812499897,
      "d": 10.08062499999869,
      "v": 64
    },
    {
      "midi": 54,
      "hit": false,
      "t": 17318.513749999896,
      "d": 40.32250000000204,
      "v": 40
    },
    {
      "midi": 98,
      "hit": false,
      "t": 17419.319999999898,
      "d": 10.080625000002328,
      "v": 78
    },
    {
      "midi": 82,
      "hit": false,
      "t": 17419.319999999898,
      "d": 10.080625000002328,
      "v": 102
    },
    {
      "midi": 42,
      "hit": false,
      "t": 17419.319999999898,
      "d": 45.3628125000032,
      "v": 95
    },
    {
      "midi": 55,
      "hit": false,
      "t": 17419.319999999898,
      "d": 50.403125000004366,
      "v": 58
    },
    {
      "midi": 35,
      "hit": false,
      "t": 17419.319999999898,
      "d": 105.84656250000262,
      "v": 87
    },
    {
      "midi": 57,
      "hit": false,
      "t": 17419.319999999898,
      "d": 241.93500000000859,
      "v": 104
    },
    {
      "midi": 33,
      "hit": false,
      "t": 17419.319999999898,
      "d": 317.53968750000786,
      "v": 102
    },
    {
      "midi": 67,
      "hit": false,
      "t": 17419.319999999898,
      "d": 322.580000000009,
      "v": 47
    },
    {
      "midi": 72,
      "hit": false,
      "t": 17419.319999999898,
      "d": 1935.4800000000287,
      "v": 47
    },
    {
      "midi": 60,
      "hit": false,
      "t": 17424.3603124999,
      "d": 40.32250000000204,
      "v": 54
    },
    {
      "midi": 64,
      "hit": false,
      "t": 17429.4006249999,
      "d": 50.40312500000073,
      "v": 54
    },
    {
      "midi": 98,
      "hit": false,
      "t": 17540.2874999999,
      "d": 5.040312500001164,
      "v": 41
    },
    {
      "midi": 82,
      "hit": false,
      "t": 17540.2874999999,
      "d": 5.040312500001164,
      "v": 51
    },
    {
      "midi": 55,
      "hit": false,
      "t": 17540.2874999999,
      "d": 10.080625000002328,
      "v": 56
    },
    {
      "midi": 60,
      "hit": false,
      "t": 17545.3278124999,
      "d": 10.080625000002328,
      "v": 54
    },
    {
      "midi": 64,
      "hit": false,
      "t": 17550.368124999903,
      "d": 70.56437500000175,
      "v": 56
    },
    {
      "midi": 54,
      "hit": false,
      "t": 17560.448749999905,
      "d": 40.3224999999984,
      "v": 34
    },
    {
      "midi": 82,
      "hit": false,
      "t": 17661.254999999906,
      "d": 10.08062499999869,
      "v": 60
    },
    {
      "midi": 42,
      "hit": false,
      "t": 17661.254999999906,
      "d": 40.3224999999984,
      "v": 82
    },
    {
      "midi": 54,
      "hit": false,
      "t": 17661.254999999906,
      "d": 70.56437499999811,
      "v": 94
    },
    {
      "midi": 55,
      "hit": false,
      "t": 17782.222499999905,
      "d": 5.040312500001164,
      "v": 22
    },
    {
      "midi": 64,
      "hit": false,
      "t": 17782.222499999905,
      "d": 5.040312500001164,
      "v": 35
    },
    {
      "midi": 33,
      "hit": false,
      "t": 17782.222499999905,
      "d": 90.72562500000276,
      "v": 102
    },
    {
      "midi": 67,
      "hit": false,
      "t": 17782.222499999905,
      "d": 322.5800000000054,
      "v": 104
    },
    {
      "midi": 98,
      "hit": false,
      "t": 17787.262812499906,
      "d": 10.080625000002328,
      "v": 45
    },
    {
      "midi": 82,
      "hit": false,
      "t": 17787.262812499906,
      "d": 10.080625000002328,
      "v": 58
    },
    {
      "midi": 60,
      "hit": false,
      "t": 17787.262812499906,
      "d": 45.3628125000032,
      "v": 29
    },
    {
      "midi": 64,
      "hit": false,
      "t": 17792.303124999908,
      "d": 50.40312500000073,
      "v": 26
    },
    {
      "midi": 54,
      "hit": false,
      "t": 17802.38374999991,
      "d": 40.3224999999984,
      "v": 40
    },
    {
      "midi": 98,
      "hit": false,
      "t": 17903.189999999908,
      "d": 10.080625000002328,
      "v": 84
    },
    {
      "midi": 82,
      "hit": false,
      "t": 17903.189999999908,
      "d": 10.080625000002328,
      "v": 108
    },
    {
      "midi": 55,
      "hit": false,
      "t": 17903.189999999908,
      "d": 25.20156250000582,
      "v": 67
    },
    {
      "midi": 42,
      "hit": false,
      "t": 17903.189999999908,
      "d": 65.52406250000422,
      "v": 98
    },
    {
      "midi": 40,
      "hit": false,
      "t": 17903.189999999908,
      "d": 70.56437500000538,
      "v": 94
    },
    {
      "midi": 36,
      "hit": false,
      "t": 17903.189999999908,
      "d": 211.6931250000016,
      "v": 102
    },
    {
      "midi": 60,
      "hit": false,
      "t": 17908.23031249991,
      "d": 10.080625000002328,
      "v": 49
    },
    {
      "midi": 64,
      "hit": false,
      "t": 17913.27062499991,
      "d": 10.080625000002328,
      "v": 54
    },
    {
      "midi": 98,
      "hit": false,
      "t": 18024.15749999991,
      "d": 5.040312500001164,
      "v": 35
    },
    {
      "midi": 82,
      "hit": false,
      "t": 18024.15749999991,
      "d": 5.040312500001164,
      "v": 43
    },
    {
      "midi": 54,
      "hit": false,
      "t": 18044.31874999991,
      "d": 40.3224999999984,
      "v": 39
    },
    {
      "midi": 55,
      "hit": false,
      "t": 18145.12499999991,
      "d": 5.040312500001164,
      "v": 22
    },
    {
      "midi": 82,
      "hit": false,
      "t": 18145.12499999991,
      "d": 10.080625000002328,
      "v": 66
    },
    {
      "midi": 42,
      "hit": false,
      "t": 18145.12499999991,
      "d": 40.32250000000204,
      "v": 82
    },
    {
      "midi": 54,
      "hit": false,
      "t": 18145.12499999991,
      "d": 85.6853125000016,
      "v": 47
    },
    {
      "midi": 40,
      "hit": false,
      "t": 18145.12499999991,
      "d": 171.37062500000684,
      "v": 102
    },
    {
      "midi": 57,
      "hit": false,
      "t": 18145.12499999991,
      "d": 216.7334375000064,
      "v": 104
    },
    {
      "midi": 67,
      "hit": false,
      "t": 18145.12499999991,
      "d": 216.7334375000064,
      "v": 104
    },
    {
      "midi": 60,
      "hit": false,
      "t": 18150.16531249991,
      "d": 55.44343750000189,
      "v": 22
    },
    {
      "midi": 64,
      "hit": false,
      "t": 18155.20562499991,
      "d": 50.40312500000073,
      "v": 22
    },
    {
      "midi": 55,
      "hit": false,
      "t": 18266.09249999991,
      "d": 65.52406250000422,
      "v": 65
    },
    {
      "midi": 98,
      "hit": false,
      "t": 18271.132812499913,
      "d": 10.080625000002328,
      "v": 49
    },
    {
      "midi": 82,
      "hit": false,
      "t": 18271.132812499913,
      "d": 10.080625000002328,
      "v": 64
    },
    {
      "midi": 60,
      "hit": false,
      "t": 18271.132812499913,
      "d": 65.52406250000422,
      "v": 67
    },
    {
      "midi": 64,
      "hit": false,
      "t": 18276.173124999914,
      "d": 70.56437500000175,
      "v": 55
    },
    {
      "midi": 54,
      "hit": false,
      "t": 18286.253749999916,
      "d": 40.3224999999984,
      "v": 39
    },
    {
      "midi": 98,
      "hit": false,
      "t": 18387.059999999914,
      "d": 10.080625000002328,
      "v": 78
    },
    {
      "midi": 82,
      "hit": false,
      "t": 18387.059999999914,
      "d": 10.080625000002328,
      "v": 102
    },
    {
      "midi": 55,
      "hit": false,
      "t": 18387.059999999914,
      "d": 10.080625000002328,
      "v": 54
    },
    {
      "midi": 42,
      "hit": false,
      "t": 18387.059999999914,
      "d": 60.483750000003056,
      "v": 98
    },
    {
      "midi": 35,
      "hit": false,
      "t": 18387.059999999914,
      "d": 90.72562500000276,
      "v": 86
    },
    {
      "midi": 45,
      "hit": false,
      "t": 18387.059999999914,
      "d": 282.257500000007,
      "v": 102
    },
    {
      "midi": 67,
      "hit": false,
      "t": 18387.059999999914,
      "d": 322.580000000009,
      "v": 104
    },
    {
      "midi": 60,
      "hit": false,
      "t": 18392.100312499915,
      "d": 10.080625000002328,
      "v": 41
    },
    {
      "midi": 64,
      "hit": false,
      "t": 18397.140624999916,
      "d": 10.080625000002328,
      "v": 49
    },
    {
      "midi": 98,
      "hit": false,
      "t": 18508.027499999916,
      "d": 5.040312500001164,
      "v": 41
    },
    {
      "midi": 82,
      "hit": false,
      "t": 18508.027499999916,
      "d": 5.040312500001164,
      "v": 51
    },
    {
      "midi": 60,
      "hit": false,
      "t": 18508.027499999916,
      "d": 50.40312500000073,
      "v": 22
    },
    {
      "midi": 64,
      "hit": false,
      "t": 18513.067812499918,
      "d": 55.443437499998254,
      "v": 22
    },
    {
      "midi": 54,
      "hit": false,
      "t": 18528.188749999917,
      "d": 40.3224999999984,
      "v": 34
    },
    {
      "midi": 82,
      "hit": false,
      "t": 18628.994999999915,
      "d": 10.080625000002328,
      "v": 60
    },
    {
      "midi": 55,
      "hit": false,
      "t": 18628.994999999915,
      "d": 10.080625000002328,
      "v": 55
    },
    {
      "midi": 42,
      "hit": false,
      "t": 18628.994999999915,
      "d": 40.322500000005675,
      "v": 73
    },
    {
      "midi": 60,
      "hit": false,
      "t": 18634.035312499916,
      "d": 10.080625000002328,
      "v": 55
    },
    {
      "midi": 64,
      "hit": false,
      "t": 18639.075624999918,
      "d": 25.201562500002183,
      "v": 55
    },
    {
      "midi": 54,
      "hit": false,
      "t": 18649.15624999992,
      "d": 70.56437500000175,
      "v": 93
    },
    {
      "midi": 33,
      "hit": false,
      "t": 18749.96249999992,
      "d": 90.72562499999913,
      "v": 97
    },
    {
      "midi": 67,
      "hit": false,
      "t": 18749.96249999992,
      "d": 322.5799999999981,
      "v": 104
    },
    {
      "midi": 98,
      "hit": false,
      "t": 18755.002812499923,
      "d": 10.08062499999869,
      "v": 45
    },
    {
      "midi": 82,
      "hit": false,
      "t": 18755.002812499923,
      "d": 10.08062499999869,
      "v": 58
    },
    {
      "midi": 54,
      "hit": false,
      "t": 18770.123749999922,
      "d": 40.3224999999984,
      "v": 31
    },
    {
      "midi": 98,
      "hit": false,
      "t": 18870.92999999992,
      "d": 10.080625000002328,
      "v": 84
    },
    {
      "midi": 82,
      "hit": false,
      "t": 18870.92999999992,
      "d": 10.080625000002328,
      "v": 108
    },
    {
      "midi": 55,
      "hit": false,
      "t": 18870.92999999992,
      "d": 50.40312500000073,
      "v": 54
    },
    {
      "midi": 42,
      "hit": false,
      "t": 18870.92999999992,
      "d": 65.52406250000058,
      "v": 98
    },
    {
      "midi": 40,
      "hit": false,
      "t": 18870.92999999992,
      "d": 65.52406250000058,
      "v": 91
    },
    {
      "midi": 36,
      "hit": false,
      "t": 18870.92999999992,
      "d": 216.73343749999913,
      "v": 102
    },
    {
      "midi": 60,
      "hit": false,
      "t": 18875.97031249992,
      "d": 45.36281249999956,
      "v": 49
    },
    {
      "midi": 64,
      "hit": false,
      "t": 18881.010624999923,
      "d": 35.282187499997235,
      "v": 56
    },
    {
      "midi": 39,
      "hit": false,
      "t": 18891.09124999992,
      "d": 70.56437499999811,
      "v": 76
    },
    {
      "midi": 98,
      "hit": false,
      "t": 18991.89749999992,
      "d": 5.040312500001164,
      "v": 35
    },
    {
      "midi": 82,
      "hit": false,
      "t": 18991.89749999992,
      "d": 5.040312500001164,
      "v": 43
    },
    {
      "midi": 55,
      "hit": false,
      "t": 18991.89749999992,
      "d": 45.36281249999956,
      "v": 23
    },
    {
      "midi": 60,
      "hit": false,
      "t": 18996.93781249992,
      "d": 50.40312499999709,
      "v": 47
    },
    {
      "midi": 64,
      "hit": false,
      "t": 19001.97812499992,
      "d": 35.282187499997235,
      "v": 38
    },
    {
      "midi": 54,
      "hit": false,
      "t": 19012.05874999992,
      "d": 40.3224999999984,
      "v": 39
    },
    {
      "midi": 82,
      "hit": false,
      "t": 19112.86499999992,
      "d": 10.080625000002328,
      "v": 66
    },
    {
      "midi": 42,
      "hit": false,
      "t": 19112.86499999992,
      "d": 60.483750000003056,
      "v": 82
    },
    {
      "midi": 54,
      "hit": false,
      "t": 19112.86499999992,
      "d": 85.6853125000016,
      "v": 50
    },
    {
      "midi": 40,
      "hit": false,
      "t": 19112.86499999992,
      "d": 141.12875000000713,
      "v": 97
    },
    {
      "midi": 67,
      "hit": false,
      "t": 19112.86499999992,
      "d": 216.7334375000064,
      "v": 104
    },
    {
      "midi": 55,
      "hit": false,
      "t": 19233.832499999924,
      "d": 10.080625000002328,
      "v": 51
    },
    {
      "midi": 60,
      "hit": false,
      "t": 19238.872812499925,
      "d": 5.040312500001164,
      "v": 49
    },
    {
      "midi": 98,
      "hit": false,
      "t": 19238.872812499925,
      "d": 10.080625000002328,
      "v": 49
    },
    {
      "midi": 82,
      "hit": false,
      "t": 19238.872812499925,
      "d": 10.080625000002328,
      "v": 64
    },
    {
      "midi": 64,
      "hit": false,
      "t": 19243.913124999926,
      "d": 10.080625000002328,
      "v": 54
    },
    {
      "midi": 54,
      "hit": false,
      "t": 19253.99374999993,
      "d": 40.3224999999984,
      "v": 40
    },
    {
      "midi": 98,
      "hit": false,
      "t": 19354.799999999927,
      "d": 10.080625000002328,
      "v": 78
    },
    {
      "midi": 82,
      "hit": false,
      "t": 19354.799999999927,
      "d": 10.080625000002328,
      "v": 102
    },
    {
      "midi": 57,
      "hit": false,
      "t": 19354.799999999927,
      "d": 65.52406250000058,
      "v": 65
    },
    {
      "midi": 42,
      "hit": false,
      "t": 19354.799999999927,
      "d": 75.60468749999927,
      "v": 98
    },
    {
      "midi": 62,
      "hit": false,
      "t": 19354.799999999927,
      "d": 85.6853125000016,
      "v": 61
    },
    {
      "midi": 35,
      "hit": false,
      "t": 19354.799999999927,
      "d": 90.72562500000276,
      "v": 79
    },
    {
      "midi": 50,
      "hit": false,
      "t": 19354.799999999927,
      "d": 241.93500000000495,
      "v": 104
    },
    {
      "midi": 38,
      "hit": false,
      "t": 19354.799999999927,
      "d": 357.8621875000026,
      "v": 105
    },
    {
      "midi": 72,
      "hit": false,
      "t": 19354.799999999927,
      "d": 1935.4800000000287,
      "v": 47
    },
    {
      "midi": 60,
      "hit": false,
      "t": 19359.840312499928,
      "d": 60.48374999999942,
      "v": 60
    },
    {
      "midi": 67,
      "hit": false,
      "t": 19364.88062499993,
      "d": 70.56437499999811,
      "v": 60
    },
    {
      "midi": 98,
      "hit": false,
      "t": 19475.76749999993,
      "d": 5.040312500001164,
      "v": 41
    },
    {
      "midi": 82,
      "hit": false,
      "t": 19475.76749999993,
      "d": 5.040312500001164,
      "v": 51
    },
    {
      "midi": 57,
      "hit": false,
      "t": 19475.76749999993,
      "d": 10.080625000002328,
      "v": 51
    },
    {
      "midi": 60,
      "hit": false,
      "t": 19480.80781249993,
      "d": 5.040312500001164,
      "v": 41
    },
    {
      "midi": 67,
      "hit": false,
      "t": 19485.84812499993,
      "d": 10.080625000002328,
      "v": 57
    },
    {
      "midi": 54,
      "hit": false,
      "t": 19495.928749999934,
      "d": 40.3224999999984,
      "v": 34
    },
    {
      "midi": 82,
      "hit": false,
      "t": 19596.73499999993,
      "d": 10.08062499999869,
      "v": 60
    },
    {
      "midi": 42,
      "hit": false,
      "t": 19596.73499999993,
      "d": 45.36281249999956,
      "v": 82
    },
    {
      "midi": 54,
      "hit": false,
      "t": 19596.73499999993,
      "d": 70.56437499999811,
      "v": 94
    },
    {
      "midi": 57,
      "hit": false,
      "t": 19717.70249999993,
      "d": 50.403125000004366,
      "v": 22
    },
    {
      "midi": 98,
      "hit": false,
      "t": 19722.74281249993,
      "d": 10.080625000002328,
      "v": 45
    },
    {
      "midi": 82,
      "hit": false,
      "t": 19722.74281249993,
      "d": 10.080625000002328,
      "v": 58
    },
    {
      "midi": 60,
      "hit": false,
      "t": 19722.74281249993,
      "d": 50.403125000004366,
      "v": 22
    },
    {
      "midi": 67,
      "hit": false,
      "t": 19727.783124999933,
      "d": 50.403125000004366,
      "v": 25
    },
    {
      "midi": 54,
      "hit": false,
      "t": 19737.863749999935,
      "d": 40.32250000000204,
      "v": 40
    },
    {
      "midi": 98,
      "hit": false,
      "t": 19838.669999999936,
      "d": 10.080625000002328,
      "v": 84
    },
    {
      "midi": 82,
      "hit": false,
      "t": 19838.669999999936,
      "d": 10.080625000002328,
      "v": 108
    },
    {
      "midi": 57,
      "hit": false,
      "t": 19838.669999999936,
      "d": 10.080625000002328,
      "v": 49
    },
    {
      "midi": 62,
      "hit": false,
      "t": 19838.669999999936,
      "d": 55.44343750000553,
      "v": 56
    },
    {
      "midi": 40,
      "hit": false,
      "t": 19838.669999999936,
      "d": 65.52406250000786,
      "v": 91
    },
    {
      "midi": 42,
      "hit": false,
      "t": 19838.669999999936,
      "d": 70.56437500000902,
      "v": 98
    },
    {
      "midi": 33,
      "hit": false,
      "t": 19838.669999999936,
      "d": 398.18468750001193,
      "v": 109
    },
    {
      "midi": 60,
      "hit": false,
      "t": 19843.710312499938,
      "d": 10.080625000002328,
      "v": 56
    },
    {
      "midi": 67,
      "hit": false,
      "t": 19848.75062499994,
      "d": 10.080625000002328,
      "v": 54
    },
    {
      "midi": 98,
      "hit": false,
      "t": 19959.637499999946,
      "d": 5.040312500001164,
      "v": 35
    },
    {
      "midi": 82,
      "hit": false,
      "t": 19959.637499999946,
      "d": 5.040312500001164,
      "v": 43
    },
    {
      "midi": 54,
      "hit": false,
      "t": 19979.798749999947,
      "d": 40.3224999999984,
      "v": 39
    },
    {
      "midi": 82,
      "hit": false,
      "t": 20080.604999999945,
      "d": 10.08062499999869,
      "v": 66
    },
    {
      "midi": 42,
      "hit": false,
      "t": 20080.604999999945,
      "d": 50.40312499999709,
      "v": 64
    },
    {
      "midi": 54,
      "hit": false,
      "t": 20080.604999999945,
      "d": 85.68531249999796,
      "v": 47
    },
    {
      "midi": 50,
      "hit": false,
      "t": 20080.604999999945,
      "d": 216.73343750000276,
      "v": 104
    },
    {
      "midi": 57,
      "hit": false,
      "t": 20201.572499999944,
      "d": 50.403125000004366,
      "v": 65
    },
    {
      "midi": 62,
      "hit": false,
      "t": 20201.572499999944,
      "d": 75.60468750000291,
      "v": 60
    },
    {
      "midi": 31,
      "hit": false,
      "t": 20206.612812499945,
      "d": 5.040312500001164,
      "v": 30
    },
    {
      "midi": 98,
      "hit": false,
      "t": 20206.612812499945,
      "d": 10.080625000002328,
      "v": 49
    },
    {
      "midi": 82,
      "hit": false,
      "t": 20206.612812499945,
      "d": 10.080625000002328,
      "v": 64
    },
    {
      "midi": 60,
      "hit": false,
      "t": 20206.612812499945,
      "d": 75.60468750000291,
      "v": 73
    },
    {
      "midi": 67,
      "hit": false,
      "t": 20211.653124999946,
      "d": 75.60468750000291,
      "v": 55
    },
    {
      "midi": 54,
      "hit": false,
      "t": 20221.73374999995,
      "d": 40.3224999999984,
      "v": 39
    },
    {
      "midi": 98,
      "hit": false,
      "t": 20322.539999999946,
      "d": 10.080625000002328,
      "v": 78
    },
    {
      "midi": 82,
      "hit": false,
      "t": 20322.539999999946,
      "d": 10.080625000002328,
      "v": 102
    },
    {
      "midi": 57,
      "hit": false,
      "t": 20322.539999999946,
      "d": 10.080625000002328,
      "v": 54
    },
    {
      "midi": 42,
      "hit": false,
      "t": 20322.539999999946,
      "d": 65.52406250000422,
      "v": 93
    },
    {
      "midi": 35,
      "hit": false,
      "t": 20322.539999999946,
      "d": 90.72562500000276,
      "v": 86
    },
    {
      "midi": 38,
      "hit": false,
      "t": 20322.539999999946,
      "d": 317.5396875000006,
      "v": 105
    },
    {
      "midi": 60,
      "hit": false,
      "t": 20327.580312499947,
      "d": 5.040312500001164,
      "v": 49
    },
    {
      "midi": 67,
      "hit": false,
      "t": 20332.62062499995,
      "d": 10.080625000002328,
      "v": 57
    },
    {
      "midi": 98,
      "hit": false,
      "t": 20443.50749999995,
      "d": 5.040312500001164,
      "v": 41
    },
    {
      "midi": 82,
      "hit": false,
      "t": 20443.50749999995,
      "d": 5.040312500001164,
      "v": 51
    },
    {
      "midi": 54,
      "hit": false,
      "t": 20463.66874999995,
      "d": 40.3224999999984,
      "v": 34
    },
    {
      "midi": 82,
      "hit": false,
      "t": 20564.474999999948,
      "d": 10.080625000002328,
      "v": 60
    },
    {
      "midi": 57,
      "hit": false,
      "t": 20564.474999999948,
      "d": 10.080625000002328,
      "v": 49
    },
    {
      "midi": 42,
      "hit": false,
      "t": 20564.474999999948,
      "d": 60.48374999999942,
      "v": 87
    },
    {
      "midi": 62,
      "hit": false,
      "t": 20564.474999999948,
      "d": 75.60468749999927,
      "v": 61
    },
    {
      "midi": 66,
      "hit": false,
      "t": 20564.474999999948,
      "d": 216.73343750000276,
      "v": 104
    },
    {
      "midi": 60,
      "hit": false,
      "t": 20569.51531249995,
      "d": 25.201562499998545,
      "v": 47
    },
    {
      "midi": 67,
      "hit": false,
      "t": 20574.55562499995,
      "d": 10.08062499999869,
      "v": 54
    },
    {
      "midi": 54,
      "hit": false,
      "t": 20584.63624999995,
      "d": 70.56437500000175,
      "v": 93
    },
    {
      "midi": 33,
      "hit": false,
      "t": 20685.44249999995,
      "d": 95.76593750000029,
      "v": 102
    },
    {
      "midi": 98,
      "hit": false,
      "t": 20690.48281249995,
      "d": 10.08062499999869,
      "v": 45
    },
    {
      "midi": 82,
      "hit": false,
      "t": 20690.48281249995,
      "d": 10.08062499999869,
      "v": 58
    },
    {
      "midi": 54,
      "hit": false,
      "t": 20705.60374999995,
      "d": 40.3224999999984,
      "v": 31
    },
    {
      "midi": 98,
      "hit": false,
      "t": 20806.40999999995,
      "d": 10.080625000002328,
      "v": 84
    },
    {
      "midi": 82,
      "hit": false,
      "t": 20806.40999999995,
      "d": 10.080625000002328,
      "v": 108
    },
    {
      "midi": 40,
      "hit": false,
      "t": 20806.40999999995,
      "d": 65.52406250000058,
      "v": 94
    },
    {
      "midi": 57,
      "hit": false,
      "t": 20806.40999999995,
      "d": 65.52406250000058,
      "v": 57
    },
    {
      "midi": 42,
      "hit": false,
      "t": 20806.40999999995,
      "d": 80.64500000000044,
      "v": 93
    },
    {
      "midi": 62,
      "hit": false,
      "t": 20806.40999999995,
      "d": 181.4512500000019,
      "v": 56
    },
    {
      "midi": 60,
      "hit": false,
      "t": 20811.45031249995,
      "d": 70.56437499999811,
      "v": 59
    },
    {
      "midi": 36,
      "hit": false,
      "t": 20811.45031249995,
      "d": 216.73343749999913,
      "v": 102
    },
    {
      "midi": 67,
      "hit": false,
      "t": 20816.49062499995,
      "d": 70.56437499999811,
      "v": 59
    },
    {
      "midi": 39,
      "hit": false,
      "t": 20826.57124999995,
      "d": 70.56437499999811,
      "v": 76
    },
    {
      "midi": 98,
      "hit": false,
      "t": 20927.377499999948,
      "d": 5.040312500001164,
      "v": 35
    },
    {
      "midi": 82,
      "hit": false,
      "t": 20927.377499999948,
      "d": 5.040312500001164,
      "v": 43
    },
    {
      "midi": 57,
      "hit": false,
      "t": 20927.377499999948,
      "d": 40.32250000000204,
      "v": 44
    },
    {
      "midi": 60,
      "hit": false,
      "t": 20932.41781249995,
      "d": 70.56437500000175,
      "v": 38
    },
    {
      "midi": 67,
      "hit": false,
      "t": 20937.45812499995,
      "d": 60.48374999999942,
      "v": 45
    },
    {
      "midi": 54,
      "hit": false,
      "t": 20947.53874999995,
      "d": 40.32250000000204,
      "v": 39
    },
    {
      "midi": 82,
      "hit": false,
      "t": 21048.34499999995,
      "d": 10.08062499999869,
      "v": 66
    },
    {
      "midi": 42,
      "hit": false,
      "t": 21048.34499999995,
      "d": 55.443437499998254,
      "v": 82
    },
    {
      "midi": 54,
      "hit": false,
      "t": 21048.34499999995,
      "d": 85.68531249999796,
      "v": 50
    },
    {
      "midi": 69,
      "hit": false,
      "t": 21048.34499999995,
      "d": 216.73343750000276,
      "v": 104
    },
    {
      "midi": 38,
      "hit": false,
      "t": 21048.34499999995,
      "d": 236.89468750000378,
      "v": 105
    },
    {
      "midi": 57,
      "hit": false,
      "t": 21169.31249999995,
      "d": 10.080625000002328,
      "v": 47
    },
    {
      "midi": 60,
      "hit": false,
      "t": 21174.35281249995,
      "d": 5.040312500001164,
      "v": 45
    },
    {
      "midi": 98,
      "hit": false,
      "t": 21174.35281249995,
      "d": 10.080625000002328,
      "v": 49
    },
    {
      "midi": 82,
      "hit": false,
      "t": 21174.35281249995,
      "d": 10.080625000002328,
      "v": 64
    },
    {
      "midi": 67,
      "hit": false,
      "t": 21179.39312499995,
      "d": 10.080625000002328,
      "v": 47
    },
    {
      "midi": 54,
      "hit": false,
      "t": 21189.473749999954,
      "d": 40.3224999999984,
      "v": 40
    },
    {
      "midi": 98,
      "hit": false,
      "t": 21290.279999999955,
      "d": 10.080625000002328,
      "v": 78
    },
    {
      "midi": 82,
      "hit": false,
      "t": 21290.279999999955,
      "d": 10.080625000002328,
      "v": 102
    },
    {
      "midi": 55,
      "hit": false,
      "t": 21290.279999999955,
      "d": 60.483750000003056,
      "v": 60
    },
    {
      "midi": 42,
      "hit": false,
      "t": 21290.279999999955,
      "d": 70.56437500000175,
      "v": 95
    },
    {
      "midi": 35,
      "hit": false,
      "t": 21290.279999999955,
      "d": 90.72562500000276,
      "v": 87
    },
    {
      "midi": 31,
      "hit": false,
      "t": 21290.279999999955,
      "d": 372.9831250000061,
      "v": 102
    },
    {
      "midi": 64,
      "hit": false,
      "t": 21290.279999999955,
      "d": 650.2003125000083,
      "v": 104
    },
    {
      "midi": 59,
      "hit": false,
      "t": 21295.320312499956,
      "d": 65.52406250000058,
      "v": 67
    },
    {
      "midi": 62,
      "hit": false,
      "t": 21300.360624999958,
      "d": 60.48374999999942,
      "v": 60
    },
    {
      "midi": 98,
      "hit": false,
      "t": 21411.247499999958,
      "d": 5.040312500001164,
      "v": 41
    },
    {
      "midi": 82,
      "hit": false,
      "t": 21411.247499999958,
      "d": 5.040312500001164,
      "v": 51
    },
    {
      "midi": 55,
      "hit": false,
      "t": 21411.247499999958,
      "d": 10.080625000002328,
      "v": 41
    },
    {
      "midi": 59,
      "hit": false,
      "t": 21416.28781249996,
      "d": 5.040312500001164,
      "v": 55
    },
    {
      "midi": 62,
      "hit": false,
      "t": 21421.32812499996,
      "d": 10.080625000002328,
      "v": 56
    },
    {
      "midi": 54,
      "hit": false,
      "t": 21431.408749999962,
      "d": 40.3224999999984,
      "v": 34
    },
    {
      "midi": 82,
      "hit": false,
      "t": 21532.21499999996,
      "d": 10.08062499999869,
      "v": 60
    },
    {
      "midi": 42,
      "hit": false,
      "t": 21532.21499999996,
      "d": 55.443437499998254,
      "v": 82
    },
    {
      "midi": 54,
      "hit": false,
      "t": 21532.21499999996,
      "d": 70.56437499999811,
      "v": 94
    },
    {
      "midi": 55,
      "hit": false,
      "t": 21653.18249999996,
      "d": 45.36281250000684,
      "v": 22
    },
    {
      "midi": 98,
      "hit": false,
      "t": 21658.22281249996,
      "d": 10.080625000002328,
      "v": 45
    },
    {
      "midi": 82,
      "hit": false,
      "t": 21658.22281249996,
      "d": 10.080625000002328,
      "v": 58
    },
    {
      "midi": 59,
      "hit": false,
      "t": 21658.22281249996,
      "d": 35.28218750000451,
      "v": 32
    },
    {
      "midi": 62,
      "hit": false,
      "t": 21663.26312499996,
      "d": 40.322500000005675,
      "v": 26
    },
    {
      "midi": 54,
      "hit": false,
      "t": 21673.343749999964,
      "d": 40.32250000000204,
      "v": 40
    },
    {
      "midi": 98,
      "hit": false,
      "t": 21774.149999999965,
      "d": 10.080625000002328,
      "v": 84
    },
    {
      "midi": 82,
      "hit": false,
      "t": 21774.149999999965,
      "d": 10.080625000002328,
      "v": 108
    },
    {
      "midi": 55,
      "hit": false,
      "t": 21774.149999999965,
      "d": 10.080625000002328,
      "v": 54
    },
    {
      "midi": 42,
      "hit": false,
      "t": 21774.149999999965,
      "d": 75.60468750000291,
      "v": 93
    },
    {
      "midi": 40,
      "hit": false,
      "t": 21774.149999999965,
      "d": 75.60468750000291,
      "v": 94
    },
    {
      "midi": 38,
      "hit": false,
      "t": 21774.149999999965,
      "d": 393.14437500000713,
      "v": 105
    },
    {
      "midi": 59,
      "hit": false,
      "t": 21779.190312499966,
      "d": 5.040312500001164,
      "v": 49
    },
    {
      "midi": 62,
      "hit": false,
      "t": 21784.230624999967,
      "d": 10.080625000002328,
      "v": 49
    },
    {
      "midi": 98,
      "hit": false,
      "t": 21895.117499999964,
      "d": 5.040312500001164,
      "v": 35
    },
    {
      "midi": 82,
      "hit": false,
      "t": 21895.117499999964,
      "d": 5.040312500001164,
      "v": 43
    },
    {
      "midi": 54,
      "hit": false,
      "t": 21915.278749999965,
      "d": 40.3224999999984,
      "v": 39
    },
    {
      "midi": 82,
      "hit": false,
      "t": 22016.084999999963,
      "d": 10.080625000002328,
      "v": 66
    },
    {
      "midi": 55,
      "hit": false,
      "t": 22016.084999999963,
      "d": 40.32250000000204,
      "v": 22
    },
    {
      "midi": 42,
      "hit": false,
      "t": 22016.084999999963,
      "d": 50.403125000004366,
      "v": 73
    },
    {
      "midi": 54,
      "hit": false,
      "t": 22016.084999999963,
      "d": 85.68531250000524,
      "v": 47
    },
    {
      "midi": 59,
      "hit": false,
      "t": 22021.125312499964,
      "d": 40.32250000000204,
      "v": 26
    },
    {
      "midi": 62,
      "hit": false,
      "t": 22026.165624999965,
      "d": 45.3628125000032,
      "v": 22
    },
    {
      "midi": 55,
      "hit": false,
      "t": 22137.05249999997,
      "d": 70.56437500000175,
      "v": 62
    },
    {
      "midi": 98,
      "hit": false,
      "t": 22142.09281249997,
      "d": 10.080625000002328,
      "v": 49
    },
    {
      "midi": 82,
      "hit": false,
      "t": 22142.09281249997,
      "d": 10.080625000002328,
      "v": 64
    },
    {
      "midi": 59,
      "hit": false,
      "t": 22142.09281249997,
      "d": 85.6853125000016,
      "v": 58
    },
    {
      "midi": 62,
      "hit": false,
      "t": 22147.13312499997,
      "d": 75.60468749999927,
      "v": 68
    },
    {
      "midi": 54,
      "hit": false,
      "t": 22157.213749999974,
      "d": 40.3224999999984,
      "v": 39
    },
    {
      "midi": 98,
      "hit": false,
      "t": 22258.01999999997,
      "d": 10.080625000002328,
      "v": 78
    },
    {
      "midi": 82,
      "hit": false,
      "t": 22258.01999999997,
      "d": 10.080625000002328,
      "v": 102
    },
    {
      "midi": 55,
      "hit": false,
      "t": 22258.01999999997,
      "d": 10.080625000002328,
      "v": 41
    },
    {
      "midi": 42,
      "hit": false,
      "t": 22258.01999999997,
      "d": 55.44343750000553,
      "v": 87
    },
    {
      "midi": 35,
      "hit": false,
      "t": 22258.01999999997,
      "d": 95.76593750000393,
      "v": 87
    },
    {
      "midi": 31,
      "hit": false,
      "t": 22258.01999999997,
      "d": 357.8621875000026,
      "v": 105
    },
    {
      "midi": 59,
      "hit": false,
      "t": 22263.060312499972,
      "d": 5.040312500001164,
      "v": 47
    },
    {
      "midi": 62,
      "hit": false,
      "t": 22268.100624999974,
      "d": 10.080625000002328,
      "v": 54
    },
    {
      "midi": 98,
      "hit": false,
      "t": 22378.987499999974,
      "d": 5.040312500001164,
      "v": 41
    },
    {
      "midi": 82,
      "hit": false,
      "t": 22378.987499999974,
      "d": 5.040312500001164,
      "v": 51
    },
    {
      "midi": 54,
      "hit": false,
      "t": 22399.148749999975,
      "d": 40.3224999999984,
      "v": 34
    },
    {
      "midi": 82,
      "hit": false,
      "t": 22499.954999999973,
      "d": 10.080625000002328,
      "v": 60
    },
    {
      "midi": 55,
      "hit": false,
      "t": 22499.954999999973,
      "d": 10.080625000002328,
      "v": 55
    },
    {
      "midi": 42,
      "hit": false,
      "t": 22499.954999999973,
      "d": 50.403125000004366,
      "v": 82
    },
    {
      "midi": 59,
      "hit": false,
      "t": 22504.995312499974,
      "d": 10.080625000002328,
      "v": 49
    },
    {
      "midi": 62,
      "hit": false,
      "t": 22510.035624999975,
      "d": 10.080625000002328,
      "v": 49
    },
    {
      "midi": 54,
      "hit": false,
      "t": 22520.116249999977,
      "d": 70.56437499999811,
      "v": 93
    },
    {
      "midi": 98,
      "hit": false,
      "t": 22625.962812499973,
      "d": 10.08062499999869,
      "v": 45
    },
    {
      "midi": 82,
      "hit": false,
      "t": 22625.962812499973,
      "d": 10.08062499999869,
      "v": 58
    },
    {
      "midi": 54,
      "hit": false,
      "t": 22641.083749999972,
      "d": 40.3224999999984,
      "v": 31
    },
    {
      "midi": 35,
      "hit": false,
      "t": 22736.84968749997,
      "d": 171.3706250000032,
      "v": 102
    },
    {
      "midi": 98,
      "hit": false,
      "t": 22741.88999999997,
      "d": 10.080625000002328,
      "v": 84
    },
    {
      "midi": 82,
      "hit": false,
      "t": 22741.88999999997,
      "d": 10.080625000002328,
      "v": 108
    },
    {
      "midi": 55,
      "hit": false,
      "t": 22741.88999999997,
      "d": 55.44343750000189,
      "v": 59
    },
    {
      "midi": 42,
      "hit": false,
      "t": 22741.88999999997,
      "d": 60.483750000003056,
      "v": 87
    },
    {
      "midi": 40,
      "hit": false,
      "t": 22741.88999999997,
      "d": 60.483750000003056,
      "v": 94
    },
    {
      "midi": 59,
      "hit": false,
      "t": 22746.93031249997,
      "d": 65.52406250000058,
      "v": 58
    },
    {
      "midi": 62,
      "hit": false,
      "t": 22751.970624999973,
      "d": 60.48374999999942,
      "v": 58
    },
    {
      "midi": 39,
      "hit": false,
      "t": 22762.05124999997,
      "d": 70.56437500000175,
      "v": 76
    },
    {
      "midi": 98,
      "hit": false,
      "t": 22862.857499999973,
      "d": 5.040312500001164,
      "v": 35
    },
    {
      "midi": 82,
      "hit": false,
      "t": 22862.857499999973,
      "d": 5.040312500001164,
      "v": 43
    },
    {
      "midi": 55,
      "hit": false,
      "t": 22862.857499999973,
      "d": 60.48374999999942,
      "v": 40
    },
    {
      "midi": 59,
      "hit": false,
      "t": 22867.897812499974,
      "d": 65.52406249999694,
      "v": 38
    },
    {
      "midi": 62,
      "hit": false,
      "t": 22872.938124999975,
      "d": 35.282187499997235,
      "v": 38
    },
    {
      "midi": 54,
      "hit": false,
      "t": 22883.018749999974,
      "d": 40.3224999999984,
      "v": 39
    },
    {
      "midi": 38,
      "hit": false,
      "t": 22978.78468749997,
      "d": 196.57218750000538,
      "v": 97
    },
    {
      "midi": 82,
      "hit": false,
      "t": 22983.82499999997,
      "d": 10.080625000002328,
      "v": 66
    },
    {
      "midi": 42,
      "hit": false,
      "t": 22983.82499999997,
      "d": 50.40312500000073,
      "v": 75
    },
    {
      "midi": 54,
      "hit": false,
      "t": 22983.82499999997,
      "d": 85.6853125000016,
      "v": 50
    },
    {
      "midi": 50,
      "hit": false,
      "t": 22983.82499999997,
      "d": 216.73343750000276,
      "v": 104
    },
    {
      "midi": 55,
      "hit": false,
      "t": 23104.792499999974,
      "d": 10.080625000002328,
      "v": 49
    },
    {
      "midi": 98,
      "hit": false,
      "t": 23109.832812499975,
      "d": 10.080625000002328,
      "v": 49
    },
    {
      "midi": 82,
      "hit": false,
      "t": 23109.832812499975,
      "d": 10.080625000002328,
      "v": 64
    },
    {
      "midi": 59,
      "hit": false,
      "t": 23109.832812499975,
      "d": 25.201562500002183,
      "v": 54
    },
    {
      "midi": 62,
      "hit": false,
      "t": 23114.873124999976,
      "d": 10.080625000002328,
      "v": 57
    },
    {
      "midi": 54,
      "hit": false,
      "t": 23124.95374999998,
      "d": 40.3224999999984,
      "v": 40
    },
    {
      "midi": 98,
      "hit": false,
      "t": 23225.759999999973,
      "d": 10.08062499999869,
      "v": 78
    },
    {
      "midi": 82,
      "hit": false,
      "t": 23225.759999999973,
      "d": 10.08062499999869,
      "v": 102
    },
    {
      "midi": 42,
      "hit": false,
      "t": 23225.759999999973,
      "d": 45.362812499995925,
      "v": 95
    },
    {
      "midi": 35,
      "hit": false,
      "t": 23225.759999999973,
      "d": 105.84656249999534,
      "v": 87
    },
    {
      "midi": 53,
      "hit": false,
      "t": 23225.759999999973,
      "d": 115.92718749999403,
      "v": 93
    },
    {
      "midi": 55,
      "hit": false,
      "t": 23225.759999999973,
      "d": 241.9350000000013,
      "v": 104
    },
    {
      "midi": 31,
      "hit": false,
      "t": 23225.759999999973,
      "d": 317.5396875000042,
      "v": 102
    },
    {
      "midi": 74,
      "hit": false,
      "t": 23225.759999999973,
      "d": 1935.4800000000214,
      "v": 47
    },
    {
      "midi": 98,
      "hit": false,
      "t": 23346.727499999968,
      "d": 5.040312500001164,
      "v": 41
    },
    {
      "midi": 82,
      "hit": false,
      "t": 23346.727499999968,
      "d": 5.040312500001164,
      "v": 51
    },
    {
      "midi": 59,
      "hit": false,
      "t": 23346.727499999968,
      "d": 10.080625000002328,
      "v": 69
    },
    {
      "midi": 62,
      "hit": false,
      "t": 23346.727499999968,
      "d": 15.120937500003492,
      "v": 86
    },
    {
      "midi": 65,
      "hit": false,
      "t": 23361.84843749997,
      "d": 15.120937500003492,
      "v": 94
    },
    {
      "midi": 54,
      "hit": false,
      "t": 23366.888749999973,
      "d": 40.32250000000204,
      "v": 34
    },
    {
      "midi": 82,
      "hit": false,
      "t": 23467.694999999974,
      "d": 10.08062499999869,
      "v": 60
    },
    {
      "midi": 42,
      "hit": false,
      "t": 23467.694999999974,
      "d": 40.32250000000204,
      "v": 82
    },
    {
      "midi": 53,
      "hit": false,
      "t": 23467.694999999974,
      "d": 45.3628125000032,
      "v": 93
    },
    {
      "midi": 54,
      "hit": false,
      "t": 23467.694999999974,
      "d": 70.56437500000175,
      "v": 94
    },
    {
      "midi": 59,
      "hit": false,
      "t": 23477.775624999973,
      "d": 65.52406250000422,
      "v": 72
    },
    {
      "midi": 65,
      "hit": false,
      "t": 23482.815937499974,
      "d": 75.60468750000291,
      "v": 91
    },
    {
      "midi": 62,
      "hit": false,
      "t": 23487.856249999975,
      "d": 55.44343750000189,
      "v": 82
    },
    {
      "midi": 62,
      "hit": false,
      "t": 23588.662499999977,
      "d": 15.120937499999854,
      "v": 97
    },
    {
      "midi": 59,
      "hit": false,
      "t": 23588.662499999977,
      "d": 15.120937499999854,
      "v": 78
    },
    {
      "midi": 31,
      "hit": false,
      "t": 23588.662499999977,
      "d": 90.72562499999913,
      "v": 102
    },
    {
      "midi": 98,
      "hit": false,
      "t": 23593.702812499978,
      "d": 10.08062499999869,
      "v": 45
    },
    {
      "midi": 82,
      "hit": false,
      "t": 23593.702812499978,
      "d": 10.08062499999869,
      "v": 58
    },
    {
      "midi": 65,
      "hit": false,
      "t": 23603.783437499977,
      "d": 15.120937499999854,
      "v": 81
    },
    {
      "midi": 54,
      "hit": false,
      "t": 23608.823749999978,
      "d": 40.3224999999984,
      "v": 40
    },
    {
      "midi": 98,
      "hit": false,
      "t": 23709.629999999976,
      "d": 10.08062499999869,
      "v": 84
    },
    {
      "midi": 82,
      "hit": false,
      "t": 23709.629999999976,
      "d": 10.08062499999869,
      "v": 108
    },
    {
      "midi": 62,
      "hit": false,
      "t": 23709.629999999976,
      "d": 15.120937499999854,
      "v": 92
    },
    {
      "midi": 59,
      "hit": false,
      "t": 23709.629999999976,
      "d": 15.120937499999854,
      "v": 89
    },
    {
      "midi": 42,
      "hit": false,
      "t": 23709.629999999976,
      "d": 65.52406250000058,
      "v": 98
    },
    {
      "midi": 40,
      "hit": false,
      "t": 23709.629999999976,
      "d": 70.56437500000175,
      "v": 94
    },
    {
      "midi": 35,
      "hit": false,
      "t": 23709.629999999976,
      "d": 211.69312500000524,
      "v": 102
    },
    {
      "midi": 71,
      "hit": false,
      "t": 23709.629999999976,
      "d": 433.46687500000553,
      "v": 104
    },
    {
      "midi": 65,
      "hit": false,
      "t": 23724.750937499975,
      "d": 15.120937499999854,
      "v": 87
    },
    {
      "midi": 98,
      "hit": false,
      "t": 23830.597499999978,
      "d": 5.040312500001164,
      "v": 35
    },
    {
      "midi": 82,
      "hit": false,
      "t": 23830.597499999978,
      "d": 5.040312500001164,
      "v": 43
    },
    {
      "midi": 53,
      "hit": false,
      "t": 23830.597499999978,
      "d": 50.403125000004366,
      "v": 87
    },
    {
      "midi": 59,
      "hit": false,
      "t": 23840.67812499998,
      "d": 65.52406250000058,
      "v": 80
    },
    {
      "midi": 65,
      "hit": false,
      "t": 23845.71843749998,
      "d": 75.60468749999927,
      "v": 68
    },
    {
      "midi": 54,
      "hit": false,
      "t": 23850.758749999983,
      "d": 40.3224999999984,
      "v": 39
    },
    {
      "midi": 62,
      "hit": false,
      "t": 23850.758749999983,
      "d": 55.443437499998254,
      "v": 79
    },
    {
      "midi": 82,
      "hit": false,
      "t": 23951.56499999998,
      "d": 10.08062499999869,
      "v": 66
    },
    {
      "midi": 62,
      "hit": false,
      "t": 23951.56499999998,
      "d": 15.120937499999854,
      "v": 98
    },
    {
      "midi": 59,
      "hit": false,
      "t": 23951.56499999998,
      "d": 15.120937499999854,
      "v": 80
    },
    {
      "midi": 42,
      "hit": false,
      "t": 23951.56499999998,
      "d": 40.3224999999984,
      "v": 82
    },
    {
      "midi": 54,
      "hit": false,
      "t": 23951.56499999998,
      "d": 85.68531249999796,
      "v": 47
    },
    {
      "midi": 38,
      "hit": false,
      "t": 23951.56499999998,
      "d": 171.3706250000032,
      "v": 102
    },
    {
      "midi": 55,
      "hit": false,
      "t": 23951.56499999998,
      "d": 216.73343749999913,
      "v": 104
    },
    {
      "midi": 53,
      "hit": false,
      "t": 23951.56499999998,
      "d": 216.73343749999913,
      "v": 104
    },
    {
      "midi": 65,
      "hit": false,
      "t": 23966.68593749998,
      "d": 15.120937499999854,
      "v": 78
    },
    {
      "midi": 62,
      "hit": false,
      "t": 24072.53249999998,
      "d": 15.120937500003492,
      "v": 91
    },
    {
      "midi": 59,
      "hit": false,
      "t": 24072.53249999998,
      "d": 15.120937500003492,
      "v": 85
    },
    {
      "midi": 31,
      "hit": false,
      "t": 24077.57281249998,
      "d": 5.040312500001164,
      "v": 35
    },
    {
      "midi": 98,
      "hit": false,
      "t": 24077.57281249998,
      "d": 10.080625000002328,
      "v": 49
    },
    {
      "midi": 82,
      "hit": false,
      "t": 24077.57281249998,
      "d": 10.080625000002328,
      "v": 64
    },
    {
      "midi": 65,
      "hit": false,
      "t": 24087.653437499983,
      "d": 15.120937499999854,
      "v": 98
    },
    {
      "midi": 54,
      "hit": false,
      "t": 24092.693749999984,
      "d": 40.3224999999984,
      "v": 39
    },
    {
      "midi": 98,
      "hit": false,
      "t": 24193.499999999978,
      "d": 10.08062499999869,
      "v": 78
    },
    {
      "midi": 82,
      "hit": false,
      "t": 24193.499999999978,
      "d": 10.08062499999869,
      "v": 102
    },
    {
      "midi": 53,
      "hit": false,
      "t": 24193.499999999978,
      "d": 45.36281249999956,
      "v": 86
    },
    {
      "midi": 42,
      "hit": false,
      "t": 24193.499999999978,
      "d": 60.48374999999942,
      "v": 98
    },
    {
      "midi": 35,
      "hit": false,
      "t": 24193.499999999978,
      "d": 90.72562499999913,
      "v": 86
    },
    {
      "midi": 43,
      "hit": false,
      "t": 24193.499999999978,
      "d": 282.25750000000335,
      "v": 102
    },
    {
      "midi": 69,
      "hit": false,
      "t": 24193.499999999978,
      "d": 433.46687500000553,
      "v": 104
    },
    {
      "midi": 59,
      "hit": false,
      "t": 24203.580624999977,
      "d": 70.56437500000175,
      "v": 80
    },
    {
      "midi": 65,
      "hit": false,
      "t": 24203.580624999977,
      "d": 95.76593750000029,
      "v": 95
    },
    {
      "midi": 62,
      "hit": false,
      "t": 24213.66124999998,
      "d": 85.68531249999796,
      "v": 81
    },
    {
      "midi": 98,
      "hit": false,
      "t": 24314.467499999977,
      "d": 5.040312500001164,
      "v": 41
    },
    {
      "midi": 82,
      "hit": false,
      "t": 24314.467499999977,
      "d": 5.040312500001164,
      "v": 51
    },
    {
      "midi": 31,
      "hit": false,
      "t": 24319.507812499978,
      "d": 5.040312500001164,
      "v": 35
    },
    {
      "midi": 54,
      "hit": false,
      "t": 24334.628749999978,
      "d": 40.3224999999984,
      "v": 34
    },
    {
      "midi": 82,
      "hit": false,
      "t": 24435.434999999976,
      "d": 10.080625000002328,
      "v": 60
    },
    {
      "midi": 42,
      "hit": false,
      "t": 24435.434999999976,
      "d": 40.322500000005675,
      "v": 73
    },
    {
      "midi": 59,
      "hit": false,
      "t": 24435.434999999976,
      "d": 95.76593750000757,
      "v": 95
    },
    {
      "midi": 46,
      "hit": false,
      "t": 24440.475312499977,
      "d": 5.040312500001164,
      "v": 68
    },
    {
      "midi": 65,
      "hit": false,
      "t": 24445.515624999978,
      "d": 95.76593750000393,
      "v": 75
    },
    {
      "midi": 62,
      "hit": false,
      "t": 24450.55593749998,
      "d": 95.76593750000393,
      "v": 87
    },
    {
      "midi": 54,
      "hit": false,
      "t": 24455.59624999998,
      "d": 70.56437500000175,
      "v": 93
    },
    {
      "midi": 31,
      "hit": false,
      "t": 24556.402499999982,
      "d": 90.72562500000276,
      "v": 97
    },
    {
      "midi": 53,
      "hit": false,
      "t": 24556.402499999982,
      "d": 327.62031250000655,
      "v": 90
    },
    {
      "midi": 98,
      "hit": false,
      "t": 24561.442812499983,
      "d": 10.080625000002328,
      "v": 45
    },
    {
      "midi": 82,
      "hit": false,
      "t": 24561.442812499983,
      "d": 10.080625000002328,
      "v": 58
    },
    {
      "midi": 54,
      "hit": false,
      "t": 24576.563749999987,
      "d": 40.3224999999984,
      "v": 31
    },
    {
      "midi": 98,
      "hit": false,
      "t": 24677.369999999984,
      "d": 10.080625000002328,
      "v": 84
    },
    {
      "midi": 82,
      "hit": false,
      "t": 24677.369999999984,
      "d": 10.080625000002328,
      "v": 108
    },
    {
      "midi": 40,
      "hit": false,
      "t": 24677.369999999984,
      "d": 65.52406250000422,
      "v": 91
    },
    {
      "midi": 59,
      "hit": false,
      "t": 24677.369999999984,
      "d": 95.76593750000393,
      "v": 70
    },
    {
      "midi": 35,
      "hit": false,
      "t": 24677.369999999984,
      "d": 216.73343750000276,
      "v": 102
    },
    {
      "midi": 50,
      "hit": false,
      "t": 24677.369999999984,
      "d": 433.46687500000917,
      "v": 104
    },
    {
      "midi": 67,
      "hit": false,
      "t": 24677.369999999984,
      "d": 433.46687500000917,
      "v": 104
    },
    {
      "midi": 44,
      "hit": false,
      "t": 24682.410312499986,
      "d": 5.040312500001164,
      "v": 42
    },
    {
      "midi": 65,
      "hit": false,
      "t": 24687.450624999987,
      "d": 95.76593750000029,
      "v": 95
    },
    {
      "midi": 62,
      "hit": false,
      "t": 24692.490937499988,
      "d": 95.76593750000029,
      "v": 79
    },
    {
      "midi": 39,
      "hit": false,
      "t": 24697.53124999999,
      "d": 70.56437499999811,
      "v": 76
    },
    {
      "midi": 40,
      "hit": false,
      "t": 24798.337499999987,
      "d": 5.040312500001164,
      "v": 68
    },
    {
      "midi": 98,
      "hit": false,
      "t": 24798.337499999987,
      "d": 5.040312500001164,
      "v": 35
    },
    {
      "midi": 82,
      "hit": false,
      "t": 24798.337499999987,
      "d": 5.040312500001164,
      "v": 43
    },
    {
      "midi": 59,
      "hit": false,
      "t": 24798.337499999987,
      "d": 95.76593750000029,
      "v": 95
    },
    {
      "midi": 65,
      "hit": false,
      "t": 24808.41812499999,
      "d": 95.76593749999665,
      "v": 75
    },
    {
      "midi": 62,
      "hit": false,
      "t": 24813.45843749999,
      "d": 90.72562499999549,
      "v": 87
    },
    {
      "midi": 54,
      "hit": false,
      "t": 24818.49874999999,
      "d": 40.3224999999984,
      "v": 39
    },
    {
      "midi": 47,
      "hit": false,
      "t": 24919.304999999986,
      "d": 5.040312500001164,
      "v": 82
    },
    {
      "midi": 82,
      "hit": false,
      "t": 24919.304999999986,
      "d": 10.080625000002328,
      "v": 66
    },
    {
      "midi": 54,
      "hit": false,
      "t": 24919.304999999986,
      "d": 85.6853125000016,
      "v": 50
    },
    {
      "midi": 38,
      "hit": false,
      "t": 24919.304999999986,
      "d": 141.12875000000713,
      "v": 97
    },
    {
      "midi": 45,
      "hit": false,
      "t": 25040.27249999999,
      "d": 5.040312500001164,
      "v": 78
    },
    {
      "midi": 53,
      "hit": false,
      "t": 25040.27249999999,
      "d": 15.120937500003492,
      "v": 77
    },
    {
      "midi": 98,
      "hit": false,
      "t": 25045.31281249999,
      "d": 10.080625000002328,
      "v": 49
    },
    {
      "midi": 82,
      "hit": false,
      "t": 25045.31281249999,
      "d": 10.080625000002328,
      "v": 64
    },
    {
      "midi": 59,
      "hit": false,
      "t": 25050.35312499999,
      "d": 15.120937500003492,
      "v": 69
    },
    {
      "midi": 62,
      "hit": false,
      "t": 25060.433749999993,
      "d": 20.16125000000102,
      "v": 73
    },
    {
      "midi": 54,
      "hit": false,
      "t": 25060.433749999993,
      "d": 40.32250000000204,
      "v": 40
    },
    {
      "midi": 49,
      "hit": false,
      "t": 25156.199687499993,
      "d": 5.040312500001164,
      "v": 79
    },
    {
      "midi": 98,
      "hit": false,
      "t": 25161.239999999994,
      "d": 10.080625000002328,
      "v": 78
    },
    {
      "midi": 82,
      "hit": false,
      "t": 25161.239999999994,
      "d": 10.080625000002328,
      "v": 102
    },
    {
      "midi": 42,
      "hit": false,
      "t": 25161.239999999994,
      "d": 45.3628125000032,
      "v": 95
    },
    {
      "midi": 55,
      "hit": false,
      "t": 25161.239999999994,
      "d": 50.403125000004366,
      "v": 58
    },
    {
      "midi": 60,
      "hit": false,
      "t": 25161.239999999994,
      "d": 60.483750000003056,
      "v": 53
    },
    {
      "midi": 35,
      "hit": false,
      "t": 25161.239999999994,
      "d": 105.84656250000262,
      "v": 87
    },
    {
      "midi": 52,
      "hit": false,
      "t": 25161.239999999994,
      "d": 241.93500000000859,
      "v": 104
    },
    {
      "midi": 48,
      "hit": false,
      "t": 25161.239999999994,
      "d": 241.93500000000859,
      "v": 104
    },
    {
      "midi": 36,
      "hit": false,
      "t": 25161.239999999994,
      "d": 307.45906250000553,
      "v": 105
    },
    {
      "midi": 71,
      "hit": false,
      "t": 25161.239999999994,
      "d": 322.5800000000054,
      "v": 47
    },
    {
      "midi": 67,
      "hit": false,
      "t": 25161.239999999994,
      "d": 1935.480000000025,
      "v": 47
    },
    {
      "midi": 59,
      "hit": false,
      "t": 25166.280312499995,
      "d": 40.32250000000204,
      "v": 54
    },
    {
      "midi": 64,
      "hit": false,
      "t": 25171.320624999997,
      "d": 65.52406250000058,
      "v": 54
    },
    {
      "midi": 98,
      "hit": false,
      "t": 25282.207499999997,
      "d": 5.040312500001164,
      "v": 41
    },
    {
      "midi": 82,
      "hit": false,
      "t": 25282.207499999997,
      "d": 5.040312500001164,
      "v": 51
    },
    {
      "midi": 55,
      "hit": false,
      "t": 25282.207499999997,
      "d": 10.080625000002328,
      "v": 56
    },
    {
      "midi": 59,
      "hit": false,
      "t": 25287.247812499998,
      "d": 10.080625000002328,
      "v": 54
    },
    {
      "midi": 64,
      "hit": false,
      "t": 25292.288125,
      "d": 70.56437500000175,
      "v": 56
    },
    {
      "midi": 54,
      "hit": false,
      "t": 25302.36875,
      "d": 40.3224999999984,
      "v": 34
    },
    {
      "midi": 82,
      "hit": false,
      "t": 25403.175000000003,
      "d": 10.08062499999869,
      "v": 60
    },
    {
      "midi": 42,
      "hit": false,
      "t": 25403.175000000003,
      "d": 40.3224999999984,
      "v": 82
    },
    {
      "midi": 54,
      "hit": false,
      "t": 25403.175000000003,
      "d": 70.56437499999811,
      "v": 94
    },
    {
      "midi": 55,
      "hit": false,
      "t": 25524.142499999998,
      "d": 5.040312500001164,
      "v": 22
    },
    {
      "midi": 60,
      "hit": false,
      "t": 25524.142499999998,
      "d": 5.040312500001164,
      "v": 35
    },
    {
      "midi": 36,
      "hit": false,
      "t": 25524.142499999998,
      "d": 90.72562500000276,
      "v": 102
    },
    {
      "midi": 71,
      "hit": false,
      "t": 25524.142499999998,
      "d": 322.5800000000054,
      "v": 104
    },
    {
      "midi": 98,
      "hit": false,
      "t": 25529.1828125,
      "d": 10.080625000002328,
      "v": 45
    },
    {
      "midi": 82,
      "hit": false,
      "t": 25529.1828125,
      "d": 10.080625000002328,
      "v": 58
    },
    {
      "midi": 59,
      "hit": false,
      "t": 25529.1828125,
      "d": 45.3628125000032,
      "v": 29
    },
    {
      "midi": 64,
      "hit": false,
      "t": 25534.223125,
      "d": 50.40312500000073,
      "v": 26
    },
    {
      "midi": 54,
      "hit": false,
      "t": 25544.303750000003,
      "d": 40.3224999999984,
      "v": 40
    },
    {
      "midi": 98,
      "hit": false,
      "t": 25645.11,
      "d": 10.080625000002328,
      "v": 84
    },
    {
      "midi": 82,
      "hit": false,
      "t": 25645.11,
      "d": 10.080625000002328,
      "v": 108
    },
    {
      "midi": 55,
      "hit": false,
      "t": 25645.11,
      "d": 25.20156250000582,
      "v": 67
    },
    {
      "midi": 42,
      "hit": false,
      "t": 25645.11,
      "d": 65.52406250000422,
      "v": 98
    },
    {
      "midi": 40,
      "hit": false,
      "t": 25645.11,
      "d": 70.56437500000538,
      "v": 94
    },
    {
      "midi": 60,
      "hit": false,
      "t": 25645.11,
      "d": 70.56437500000538,
      "v": 61
    },
    {
      "midi": 31,
      "hit": false,
      "t": 25645.11,
      "d": 297.3784375000032,
      "v": 105
    },
    {
      "midi": 59,
      "hit": false,
      "t": 25650.1503125,
      "d": 10.080625000002328,
      "v": 49
    },
    {
      "midi": 64,
      "hit": false,
      "t": 25655.190625000003,
      "d": 10.080625000002328,
      "v": 54
    },
    {
      "midi": 98,
      "hit": false,
      "t": 25766.077500000003,
      "d": 5.040312500001164,
      "v": 35
    },
    {
      "midi": 82,
      "hit": false,
      "t": 25766.077500000003,
      "d": 5.040312500001164,
      "v": 43
    },
    {
      "midi": 54,
      "hit": false,
      "t": 25786.238750000004,
      "d": 40.3224999999984,
      "v": 39
    },
    {
      "midi": 55,
      "hit": false,
      "t": 25887.045000000002,
      "d": 5.040312500001164,
      "v": 22
    },
    {
      "midi": 82,
      "hit": false,
      "t": 25887.045000000002,
      "d": 10.080625000002328,
      "v": 66
    },
    {
      "midi": 42,
      "hit": false,
      "t": 25887.045000000002,
      "d": 40.32250000000204,
      "v": 82
    },
    {
      "midi": 54,
      "hit": false,
      "t": 25887.045000000002,
      "d": 85.6853125000016,
      "v": 47
    },
    {
      "midi": 52,
      "hit": false,
      "t": 25887.045000000002,
      "d": 216.7334375000064,
      "v": 104
    },
    {
      "midi": 48,
      "hit": false,
      "t": 25887.045000000002,
      "d": 216.7334375000064,
      "v": 104
    },
    {
      "midi": 71,
      "hit": false,
      "t": 25887.045000000002,
      "d": 216.7334375000064,
      "v": 104
    },
    {
      "midi": 59,
      "hit": false,
      "t": 25892.085312500003,
      "d": 55.44343750000189,
      "v": 22
    },
    {
      "midi": 64,
      "hit": false,
      "t": 25897.125625000004,
      "d": 50.40312500000073,
      "v": 22
    },
    {
      "midi": 55,
      "hit": false,
      "t": 26008.012500000004,
      "d": 65.52406250000422,
      "v": 65
    },
    {
      "midi": 60,
      "hit": false,
      "t": 26008.012500000004,
      "d": 80.64500000000407,
      "v": 66
    },
    {
      "midi": 31,
      "hit": false,
      "t": 26013.052812500006,
      "d": 5.040312500001164,
      "v": 35
    },
    {
      "midi": 98,
      "hit": false,
      "t": 26013.052812500006,
      "d": 10.080625000002328,
      "v": 49
    },
    {
      "midi": 82,
      "hit": false,
      "t": 26013.052812500006,
      "d": 10.080625000002328,
      "v": 64
    },
    {
      "midi": 59,
      "hit": false,
      "t": 26013.052812500006,
      "d": 65.52406250000422,
      "v": 67
    },
    {
      "midi": 64,
      "hit": false,
      "t": 26018.093125000007,
      "d": 80.64500000000044,
      "v": 55
    },
    {
      "midi": 54,
      "hit": false,
      "t": 26028.17375000001,
      "d": 40.3224999999984,
      "v": 39
    },
    {
      "midi": 98,
      "hit": false,
      "t": 26128.980000000007,
      "d": 10.080625000002328,
      "v": 78
    },
    {
      "midi": 82,
      "hit": false,
      "t": 26128.980000000007,
      "d": 10.080625000002328,
      "v": 102
    },
    {
      "midi": 55,
      "hit": false,
      "t": 26128.980000000007,
      "d": 10.080625000002328,
      "v": 54
    },
    {
      "midi": 42,
      "hit": false,
      "t": 26128.980000000007,
      "d": 60.483750000003056,
      "v": 98
    },
    {
      "midi": 35,
      "hit": false,
      "t": 26128.980000000007,
      "d": 90.72562500000276,
      "v": 86
    },
    {
      "midi": 36,
      "hit": false,
      "t": 26128.980000000007,
      "d": 211.6931250000016,
      "v": 105
    },
    {
      "midi": 71,
      "hit": false,
      "t": 26128.980000000007,
      "d": 322.580000000009,
      "v": 104
    },
    {
      "midi": 59,
      "hit": false,
      "t": 26134.020312500008,
      "d": 10.080625000002328,
      "v": 41
    },
    {
      "midi": 64,
      "hit": false,
      "t": 26139.06062500001,
      "d": 10.080625000002328,
      "v": 49
    },
    {
      "midi": 31,
      "hit": false,
      "t": 26249.94750000001,
      "d": 5.040312500001164,
      "v": 30
    },
    {
      "midi": 98,
      "hit": false,
      "t": 26249.94750000001,
      "d": 5.040312500001164,
      "v": 41
    },
    {
      "midi": 82,
      "hit": false,
      "t": 26249.94750000001,
      "d": 5.040312500001164,
      "v": 51
    },
    {
      "midi": 59,
      "hit": false,
      "t": 26249.94750000001,
      "d": 50.40312500000073,
      "v": 22
    },
    {
      "midi": 64,
      "hit": false,
      "t": 26254.98781250001,
      "d": 55.443437499998254,
      "v": 22
    },
    {
      "midi": 54,
      "hit": false,
      "t": 26270.10875000001,
      "d": 40.3224999999984,
      "v": 34
    },
    {
      "midi": 82,
      "hit": false,
      "t": 26370.915000000008,
      "d": 10.080625000002328,
      "v": 60
    },
    {
      "midi": 55,
      "hit": false,
      "t": 26370.915000000008,
      "d": 10.080625000002328,
      "v": 55
    },
    {
      "midi": 42,
      "hit": false,
      "t": 26370.915000000008,
      "d": 40.322500000005675,
      "v": 73
    },
    {
      "midi": 60,
      "hit": false,
      "t": 26370.915000000008,
      "d": 70.56437500000538,
      "v": 61
    },
    {
      "midi": 36,
      "hit": false,
      "t": 26370.915000000008,
      "d": 206.65281250000407,
      "v": 105
    },
    {
      "midi": 59,
      "hit": false,
      "t": 26375.95531250001,
      "d": 10.080625000002328,
      "v": 55
    },
    {
      "midi": 64,
      "hit": false,
      "t": 26380.99562500001,
      "d": 25.201562500002183,
      "v": 55
    },
    {
      "midi": 54,
      "hit": false,
      "t": 26391.076250000013,
      "d": 70.56437500000175,
      "v": 93
    },
    {
      "midi": 71,
      "hit": false,
      "t": 26491.882500000014,
      "d": 322.57999999999447,
      "v": 104
    },
    {
      "midi": 98,
      "hit": false,
      "t": 26496.922812500015,
      "d": 10.08062499999869,
      "v": 45
    },
    {
      "midi": 82,
      "hit": false,
      "t": 26496.922812500015,
      "d": 10.08062499999869,
      "v": 58
    },
    {
      "midi": 54,
      "hit": false,
      "t": 26512.043750000015,
      "d": 40.3224999999984,
      "v": 31
    },
    {
      "midi": 98,
      "hit": false,
      "t": 26612.850000000013,
      "d": 10.080625000002328,
      "v": 84
    },
    {
      "midi": 82,
      "hit": false,
      "t": 26612.850000000013,
      "d": 10.080625000002328,
      "v": 108
    },
    {
      "midi": 60,
      "hit": false,
      "t": 26612.850000000013,
      "d": 45.36281249999956,
      "v": 51
    },
    {
      "midi": 55,
      "hit": false,
      "t": 26612.850000000013,
      "d": 50.40312500000073,
      "v": 54
    },
    {
      "midi": 42,
      "hit": false,
      "t": 26612.850000000013,
      "d": 65.52406250000058,
      "v": 98
    },
    {
      "midi": 40,
      "hit": false,
      "t": 26612.850000000013,
      "d": 65.52406250000058,
      "v": 91
    },
    {
      "midi": 28,
      "hit": false,
      "t": 26612.850000000013,
      "d": 191.53187499999694,
      "v": 102
    },
    {
      "midi": 59,
      "hit": false,
      "t": 26617.890312500014,
      "d": 45.36281249999956,
      "v": 49
    },
    {
      "midi": 64,
      "hit": false,
      "t": 26622.930625000015,
      "d": 70.56437499999811,
      "v": 56
    },
    {
      "midi": 39,
      "hit": false,
      "t": 26633.011250000014,
      "d": 70.56437499999811,
      "v": 76
    },
    {
      "midi": 98,
      "hit": false,
      "t": 26733.817500000012,
      "d": 5.040312500001164,
      "v": 35
    },
    {
      "midi": 82,
      "hit": false,
      "t": 26733.817500000012,
      "d": 5.040312500001164,
      "v": 43
    },
    {
      "midi": 55,
      "hit": false,
      "t": 26733.817500000012,
      "d": 45.36281249999956,
      "v": 23
    },
    {
      "midi": 60,
      "hit": false,
      "t": 26733.817500000012,
      "d": 45.36281249999956,
      "v": 42
    },
    {
      "midi": 59,
      "hit": false,
      "t": 26738.857812500013,
      "d": 50.40312499999709,
      "v": 47
    },
    {
      "midi": 64,
      "hit": false,
      "t": 26743.898125000014,
      "d": 45.362812499995925,
      "v": 38
    },
    {
      "midi": 54,
      "hit": false,
      "t": 26753.978750000013,
      "d": 40.3224999999984,
      "v": 39
    },
    {
      "midi": 82,
      "hit": false,
      "t": 26854.78500000001,
      "d": 10.080625000002328,
      "v": 66
    },
    {
      "midi": 42,
      "hit": false,
      "t": 26854.78500000001,
      "d": 60.483750000003056,
      "v": 82
    },
    {
      "midi": 54,
      "hit": false,
      "t": 26854.78500000001,
      "d": 85.6853125000016,
      "v": 50
    },
    {
      "midi": 31,
      "hit": false,
      "t": 26854.78500000001,
      "d": 161.29000000000815,
      "v": 105
    },
    {
      "midi": 71,
      "hit": false,
      "t": 26854.78500000001,
      "d": 216.73343750001004,
      "v": 104
    },
    {
      "midi": 55,
      "hit": false,
      "t": 26975.752500000013,
      "d": 10.080625000002328,
      "v": 51
    },
    {
      "midi": 59,
      "hit": false,
      "t": 26980.792812500014,
      "d": 5.040312500001164,
      "v": 49
    },
    {
      "midi": 98,
      "hit": false,
      "t": 26980.792812500014,
      "d": 10.080625000002328,
      "v": 49
    },
    {
      "midi": 82,
      "hit": false,
      "t": 26980.792812500014,
      "d": 10.080625000002328,
      "v": 64
    },
    {
      "midi": 64,
      "hit": false,
      "t": 26985.833125000016,
      "d": 10.080625000002328,
      "v": 54
    },
    {
      "midi": 54,
      "hit": false,
      "t": 26995.913750000018,
      "d": 40.32250000000204,
      "v": 40
    },
    {
      "midi": 98,
      "hit": false,
      "t": 27096.72000000002,
      "d": 10.080625000002328,
      "v": 78
    },
    {
      "midi": 82,
      "hit": false,
      "t": 27096.72000000002,
      "d": 10.080625000002328,
      "v": 102
    },
    {
      "midi": 55,
      "hit": false,
      "t": 27096.72000000002,
      "d": 65.52406250000058,
      "v": 65
    },
    {
      "midi": 42,
      "hit": false,
      "t": 27096.72000000002,
      "d": 75.60468749999927,
      "v": 98
    },
    {
      "midi": 35,
      "hit": false,
      "t": 27096.72000000002,
      "d": 90.72562500000276,
      "v": 79
    },
    {
      "midi": 51,
      "hit": false,
      "t": 27096.72000000002,
      "d": 241.93500000000495,
      "v": 104
    },
    {
      "midi": 47,
      "hit": false,
      "t": 27096.72000000002,
      "d": 241.93500000000495,
      "v": 104
    },
    {
      "midi": 71,
      "hit": false,
      "t": 27096.72000000002,
      "d": 322.58000000000175,
      "v": 47
    },
    {
      "midi": 59,
      "hit": false,
      "t": 27101.76031250002,
      "d": 60.48374999999942,
      "v": 60
    },
    {
      "midi": 63,
      "hit": false,
      "t": 27106.80062500002,
      "d": 70.56437499999811,
      "v": 60
    },
    {
      "midi": 98,
      "hit": false,
      "t": 27217.687500000022,
      "d": 5.040312500001164,
      "v": 41
    },
    {
      "midi": 82,
      "hit": false,
      "t": 27217.687500000022,
      "d": 5.040312500001164,
      "v": 51
    },
    {
      "midi": 55,
      "hit": false,
      "t": 27217.687500000022,
      "d": 10.080625000002328,
      "v": 51
    },
    {
      "midi": 59,
      "hit": false,
      "t": 27222.727812500023,
      "d": 5.040312500001164,
      "v": 41
    },
    {
      "midi": 63,
      "hit": false,
      "t": 27227.768125000024,
      "d": 10.080625000002328,
      "v": 57
    },
    {
      "midi": 54,
      "hit": false,
      "t": 27237.848750000026,
      "d": 40.3224999999984,
      "v": 34
    },
    {
      "midi": 82,
      "hit": false,
      "t": 27338.655000000024,
      "d": 10.08062499999869,
      "v": 60
    },
    {
      "midi": 42,
      "hit": false,
      "t": 27338.655000000024,
      "d": 45.36281249999956,
      "v": 82
    },
    {
      "midi": 54,
      "hit": false,
      "t": 27338.655000000024,
      "d": 70.56437499999811,
      "v": 94
    },
    {
      "midi": 55,
      "hit": false,
      "t": 27459.62250000002,
      "d": 50.403125000004366,
      "v": 22
    },
    {
      "midi": 71,
      "hit": false,
      "t": 27459.62250000002,
      "d": 322.5800000000163,
      "v": 104
    },
    {
      "midi": 98,
      "hit": false,
      "t": 27464.66281250002,
      "d": 10.080625000002328,
      "v": 45
    },
    {
      "midi": 82,
      "hit": false,
      "t": 27464.66281250002,
      "d": 10.080625000002328,
      "v": 58
    },
    {
      "midi": 59,
      "hit": false,
      "t": 27464.66281250002,
      "d": 50.403125000004366,
      "v": 22
    },
    {
      "midi": 63,
      "hit": false,
      "t": 27469.703125000022,
      "d": 50.403125000004366,
      "v": 25
    },
    {
      "midi": 54,
      "hit": false,
      "t": 27479.783750000024,
      "d": 40.32250000000204,
      "v": 40
    },
    {
      "midi": 31,
      "hit": false,
      "t": 27575.549687500024,
      "d": 357.86218750000626,
      "v": 105
    },
    {
      "midi": 98,
      "hit": false,
      "t": 27580.590000000026,
      "d": 10.080625000002328,
      "v": 84
    },
    {
      "midi": 82,
      "hit": false,
      "t": 27580.590000000026,
      "d": 10.080625000002328,
      "v": 108
    },
    {
      "midi": 55,
      "hit": false,
      "t": 27580.590000000026,
      "d": 10.080625000002328,
      "v": 49
    },
    {
      "midi": 40,
      "hit": false,
      "t": 27580.590000000026,
      "d": 65.52406250000786,
      "v": 91
    },
    {
      "midi": 42,
      "hit": false,
      "t": 27580.590000000026,
      "d": 70.56437500000902,
      "v": 98
    },
    {
      "midi": 59,
      "hit": false,
      "t": 27585.630312500027,
      "d": 10.080625000002328,
      "v": 56
    },
    {
      "midi": 63,
      "hit": false,
      "t": 27590.670625000028,
      "d": 10.080625000002328,
      "v": 54
    },
    {
      "midi": 98,
      "hit": false,
      "t": 27701.557500000035,
      "d": 5.040312500001164,
      "v": 35
    },
    {
      "midi": 82,
      "hit": false,
      "t": 27701.557500000035,
      "d": 5.040312500001164,
      "v": 43
    },
    {
      "midi": 54,
      "hit": false,
      "t": 27721.718750000036,
      "d": 40.3224999999984,
      "v": 39
    },
    {
      "midi": 82,
      "hit": false,
      "t": 27822.525000000034,
      "d": 10.08062499999869,
      "v": 66
    },
    {
      "midi": 42,
      "hit": false,
      "t": 27822.525000000034,
      "d": 50.40312499999709,
      "v": 64
    },
    {
      "midi": 54,
      "hit": false,
      "t": 27822.525000000034,
      "d": 85.68531249999796,
      "v": 47
    },
    {
      "midi": 51,
      "hit": false,
      "t": 27822.525000000034,
      "d": 216.73343749999913,
      "v": 104
    },
    {
      "midi": 47,
      "hit": false,
      "t": 27822.525000000034,
      "d": 216.73343749999913,
      "v": 104
    },
    {
      "midi": 71,
      "hit": false,
      "t": 27822.525000000034,
      "d": 216.73343749999913,
      "v": 104
    },
    {
      "midi": 55,
      "hit": false,
      "t": 27943.49250000003,
      "d": 50.403125000004366,
      "v": 65
    },
    {
      "midi": 31,
      "hit": false,
      "t": 27948.53281250003,
      "d": 5.040312500001164,
      "v": 21
    },
    {
      "midi": 98,
      "hit": false,
      "t": 27948.53281250003,
      "d": 10.080625000002328,
      "v": 49
    },
    {
      "midi": 82,
      "hit": false,
      "t": 27948.53281250003,
      "d": 10.080625000002328,
      "v": 64
    },
    {
      "midi": 59,
      "hit": false,
      "t": 27948.53281250003,
      "d": 70.56437500000175,
      "v": 73
    },
    {
      "midi": 63,
      "hit": false,
      "t": 27953.57312500003,
      "d": 75.60468750000291,
      "v": 55
    },
    {
      "midi": 54,
      "hit": false,
      "t": 27963.653750000034,
      "d": 40.3224999999984,
      "v": 39
    },
    {
      "midi": 98,
      "hit": false,
      "t": 28064.460000000032,
      "d": 10.080625000002328,
      "v": 78
    },
    {
      "midi": 82,
      "hit": false,
      "t": 28064.460000000032,
      "d": 10.080625000002328,
      "v": 102
    },
    {
      "midi": 55,
      "hit": false,
      "t": 28064.460000000032,
      "d": 10.080625000002328,
      "v": 54
    },
    {
      "midi": 42,
      "hit": false,
      "t": 28064.460000000032,
      "d": 65.52406250000422,
      "v": 93
    },
    {
      "midi": 35,
      "hit": false,
      "t": 28064.460000000032,
      "d": 90.72562500000276,
      "v": 86
    },
    {
      "midi": 71,
      "hit": false,
      "t": 28064.460000000032,
      "d": 216.73343750000276,
      "v": 104
    },
    {
      "midi": 59,
      "hit": false,
      "t": 28069.500312500033,
      "d": 5.040312500001164,
      "v": 49
    },
    {
      "midi": 63,
      "hit": false,
      "t": 28074.540625000034,
      "d": 10.080625000002328,
      "v": 57
    },
    {
      "midi": 98,
      "hit": false,
      "t": 28185.427500000034,
      "d": 5.040312500001164,
      "v": 41
    },
    {
      "midi": 82,
      "hit": false,
      "t": 28185.427500000034,
      "d": 5.040312500001164,
      "v": 51
    },
    {
      "midi": 31,
      "hit": false,
      "t": 28190.467812500036,
      "d": 5.040312500001164,
      "v": 30
    },
    {
      "midi": 54,
      "hit": false,
      "t": 28205.588750000035,
      "d": 40.3224999999984,
      "v": 34
    },
    {
      "midi": 82,
      "hit": false,
      "t": 28306.395000000033,
      "d": 10.080625000002328,
      "v": 60
    },
    {
      "midi": 55,
      "hit": false,
      "t": 28306.395000000033,
      "d": 10.080625000002328,
      "v": 49
    },
    {
      "midi": 42,
      "hit": false,
      "t": 28306.395000000033,
      "d": 60.48374999999942,
      "v": 87
    },
    {
      "midi": 69,
      "hit": false,
      "t": 28306.395000000033,
      "d": 216.73343750000276,
      "v": 104
    },
    {
      "midi": 59,
      "hit": false,
      "t": 28311.435312500034,
      "d": 25.201562499998545,
      "v": 47
    },
    {
      "midi": 63,
      "hit": false,
      "t": 28316.475625000036,
      "d": 10.08062499999869,
      "v": 54
    },
    {
      "midi": 54,
      "hit": false,
      "t": 28326.556250000034,
      "d": 70.56437500000175,
      "v": 93
    },
    {
      "midi": 98,
      "hit": false,
      "t": 28432.402812500037,
      "d": 10.08062499999869,
      "v": 45
    },
    {
      "midi": 82,
      "hit": false,
      "t": 28432.402812500037,
      "d": 10.08062499999869,
      "v": 58
    },
    {
      "midi": 54,
      "hit": false,
      "t": 28447.523750000037,
      "d": 40.3224999999984,
      "v": 31
    },
    {
      "midi": 98,
      "hit": false,
      "t": 28548.330000000038,
      "d": 10.080625000002328,
      "v": 84
    },
    {
      "midi": 82,
      "hit": false,
      "t": 28548.330000000038,
      "d": 10.080625000002328,
      "v": 108
    },
    {
      "midi": 40,
      "hit": false,
      "t": 28548.330000000038,
      "d": 65.52406250000058,
      "v": 94
    },
    {
      "midi": 55,
      "hit": false,
      "t": 28548.330000000038,
      "d": 65.52406250000058,
      "v": 57
    },
    {
      "midi": 42,
      "hit": false,
      "t": 28548.330000000038,
      "d": 80.64500000000044,
      "v": 93
    },
    {
      "midi": 67,
      "hit": false,
      "t": 28548.330000000038,
      "d": 216.73343749999913,
      "v": 104
    },
    {
      "midi": 59,
      "hit": false,
      "t": 28553.37031250004,
      "d": 70.56437499999811,
      "v": 59
    },
    {
      "midi": 63,
      "hit": false,
      "t": 28558.41062500004,
      "d": 70.56437499999811,
      "v": 59
    },
    {
      "midi": 39,
      "hit": false,
      "t": 28568.49125000004,
      "d": 70.56437499999811,
      "v": 76
    },
    {
      "midi": 98,
      "hit": false,
      "t": 28669.297500000037,
      "d": 5.040312500001164,
      "v": 35
    },
    {
      "midi": 82,
      "hit": false,
      "t": 28669.297500000037,
      "d": 5.040312500001164,
      "v": 43
    },
    {
      "midi": 55,
      "hit": false,
      "t": 28669.297500000037,
      "d": 40.32250000000204,
      "v": 44
    },
    {
      "midi": 59,
      "hit": false,
      "t": 28674.337812500038,
      "d": 55.44343750000189,
      "v": 38
    },
    {
      "midi": 63,
      "hit": false,
      "t": 28679.37812500004,
      "d": 60.48374999999942,
      "v": 45
    },
    {
      "midi": 54,
      "hit": false,
      "t": 28689.458750000038,
      "d": 40.32250000000204,
      "v": 39
    },
    {
      "midi": 82,
      "hit": false,
      "t": 28790.26500000004,
      "d": 10.08062499999869,
      "v": 66
    },
    {
      "midi": 42,
      "hit": false,
      "t": 28790.26500000004,
      "d": 55.443437499998254,
      "v": 82
    },
    {
      "midi": 54,
      "hit": false,
      "t": 28790.26500000004,
      "d": 85.68531249999796,
      "v": 50
    },
    {
      "midi": 31,
      "hit": false,
      "t": 28790.26500000004,
      "d": 161.2900000000045,
      "v": 102
    },
    {
      "midi": 71,
      "hit": false,
      "t": 28790.26500000004,
      "d": 216.7334375000064,
      "v": 104
    },
    {
      "midi": 55,
      "hit": false,
      "t": 28911.23250000004,
      "d": 10.080625000002328,
      "v": 47
    },
    {
      "midi": 29,
      "hit": false,
      "t": 28911.23250000004,
      "d": 95.76593750000757,
      "v": 45
    },
    {
      "midi": 59,
      "hit": false,
      "t": 28916.27281250004,
      "d": 5.040312500001164,
      "v": 45
    },
    {
      "midi": 98,
      "hit": false,
      "t": 28916.27281250004,
      "d": 10.080625000002328,
      "v": 49
    },
    {
      "midi": 82,
      "hit": false,
      "t": 28916.27281250004,
      "d": 10.080625000002328,
      "v": 64
    },
    {
      "midi": 63,
      "hit": false,
      "t": 28921.31312500004,
      "d": 10.080625000002328,
      "v": 47
    },
    {
      "midi": 54,
      "hit": false,
      "t": 28931.393750000043,
      "d": 40.32250000000204,
      "v": 40
    },
    {
      "midi": 98,
      "hit": false,
      "t": 29032.200000000044,
      "d": 10.080625000002328,
      "v": 78
    },
    {
      "midi": 82,
      "hit": false,
      "t": 29032.200000000044,
      "d": 10.080625000002328,
      "v": 102
    },
    {
      "midi": 54,
      "hit": false,
      "t": 29032.200000000044,
      "d": 60.483750000003056,
      "v": 60
    },
    {
      "midi": 42,
      "hit": false,
      "t": 29032.200000000044,
      "d": 70.56437500000175,
      "v": 95
    },
    {
      "midi": 59,
      "hit": false,
      "t": 29032.200000000044,
      "d": 70.56437500000175,
      "v": 66
    },
    {
      "midi": 35,
      "hit": false,
      "t": 29032.200000000044,
      "d": 90.72562500000276,
      "v": 87
    },
    {
      "midi": 52,
      "hit": false,
      "t": 29032.200000000044,
      "d": 241.93500000000495,
      "v": 104
    },
    {
      "midi": 69,
      "hit": false,
      "t": 29032.200000000044,
      "d": 322.58000000000175,
      "v": 104
    },
    {
      "midi": 28,
      "hit": false,
      "t": 29032.200000000044,
      "d": 372.9831250000025,
      "v": 102
    },
    {
      "midi": 57,
      "hit": false,
      "t": 29037.240312500046,
      "d": 65.52406250000058,
      "v": 67
    },
    {
      "midi": 62,
      "hit": false,
      "t": 29042.280625000047,
      "d": 65.52406250000058,
      "v": 60
    },
    {
      "midi": 98,
      "hit": false,
      "t": 29153.167500000047,
      "d": 5.040312500001164,
      "v": 41
    },
    {
      "midi": 82,
      "hit": false,
      "t": 29153.167500000047,
      "d": 5.040312500001164,
      "v": 51
    },
    {
      "midi": 54,
      "hit": false,
      "t": 29153.167500000047,
      "d": 10.080625000002328,
      "v": 41
    },
    {
      "midi": 57,
      "hit": false,
      "t": 29158.207812500048,
      "d": 5.040312500001164,
      "v": 55
    },
    {
      "midi": 62,
      "hit": false,
      "t": 29163.24812500005,
      "d": 10.080625000002328,
      "v": 56
    },
    {
      "midi": 54,
      "hit": false,
      "t": 29173.32875000005,
      "d": 40.3224999999984,
      "v": 34
    },
    {
      "midi": 82,
      "hit": false,
      "t": 29274.13500000005,
      "d": 10.08062499999869,
      "v": 60
    },
    {
      "midi": 42,
      "hit": false,
      "t": 29274.13500000005,
      "d": 55.443437499998254,
      "v": 82
    },
    {
      "midi": 54,
      "hit": false,
      "t": 29274.13500000005,
      "d": 70.56437499999811,
      "v": 94
    },
    {
      "midi": 98,
      "hit": false,
      "t": 29400.142812500046,
      "d": 10.080625000002328,
      "v": 45
    },
    {
      "midi": 82,
      "hit": false,
      "t": 29400.142812500046,
      "d": 10.080625000002328,
      "v": 58
    },
    {
      "midi": 57,
      "hit": false,
      "t": 29400.142812500046,
      "d": 35.28218750000451,
      "v": 32
    },
    {
      "midi": 62,
      "hit": false,
      "t": 29405.183125000047,
      "d": 40.322500000005675,
      "v": 26
    },
    {
      "midi": 54,
      "hit": false,
      "t": 29415.26375000005,
      "d": 25.201562500002183,
      "v": 40
    },
    {
      "midi": 98,
      "hit": false,
      "t": 29516.07000000005,
      "d": 10.080625000002328,
      "v": 84
    },
    {
      "midi": 82,
      "hit": false,
      "t": 29516.07000000005,
      "d": 10.080625000002328,
      "v": 108
    },
    {
      "midi": 54,
      "hit": false,
      "t": 29516.07000000005,
      "d": 10.080625000002328,
      "v": 54
    },
    {
      "midi": 42,
      "hit": false,
      "t": 29516.07000000005,
      "d": 75.60468750000291,
      "v": 93
    },
    {
      "midi": 40,
      "hit": false,
      "t": 29516.07000000005,
      "d": 75.60468750000291,
      "v": 94
    },
    {
      "midi": 59,
      "hit": false,
      "t": 29516.07000000005,
      "d": 85.6853125000016,
      "v": 60
    },
    {
      "midi": 57,
      "hit": false,
      "t": 29521.11031250005,
      "d": 5.040312500001164,
      "v": 49
    },
    {
      "midi": 62,
      "hit": false,
      "t": 29526.150625000053,
      "d": 10.080625000002328,
      "v": 49
    },
    {
      "midi": 98,
      "hit": false,
      "t": 29637.03750000005,
      "d": 5.040312500001164,
      "v": 35
    },
    {
      "midi": 82,
      "hit": false,
      "t": 29637.03750000005,
      "d": 5.040312500001164,
      "v": 43
    },
    {
      "midi": 54,
      "hit": false,
      "t": 29657.19875000005,
      "d": 40.3224999999984,
      "v": 39
    },
    {
      "midi": 82,
      "hit": false,
      "t": 29758.00500000005,
      "d": 10.080625000002328,
      "v": 66
    },
    {
      "midi": 54,
      "hit": false,
      "t": 29758.00500000005,
      "d": 40.32250000000204,
      "v": 47
    },
    {
      "midi": 42,
      "hit": false,
      "t": 29758.00500000005,
      "d": 50.403125000004366,
      "v": 73
    },
    {
      "midi": 52,
      "hit": false,
      "t": 29758.00500000005,
      "d": 216.73343750001004,
      "v": 104
    },
    {
      "midi": 69,
      "hit": false,
      "t": 29758.00500000005,
      "d": 433.46687500000917,
      "v": 104
    },
    {
      "midi": 57,
      "hit": false,
      "t": 29763.04531250005,
      "d": 40.32250000000204,
      "v": 26
    },
    {
      "midi": 62,
      "hit": false,
      "t": 29768.08562500005,
      "d": 45.3628125000032,
      "v": 22
    },
    {
      "midi": 59,
      "hit": false,
      "t": 29878.972500000054,
      "d": 85.6853125000016,
      "v": 61
    },
    {
      "midi": 98,
      "hit": false,
      "t": 29884.012812500056,
      "d": 10.080625000002328,
      "v": 49
    },
    {
      "midi": 82,
      "hit": false,
      "t": 29884.012812500056,
      "d": 10.080625000002328,
      "v": 64
    },
    {
      "midi": 57,
      "hit": false,
      "t": 29884.012812500056,
      "d": 85.6853125000016,
      "v": 58
    },
    {
      "midi": 62,
      "hit": false,
      "t": 29889.053125000057,
      "d": 85.6853125000016,
      "v": 68
    },
    {
      "midi": 54,
      "hit": false,
      "t": 29899.13375000006,
      "d": 40.3224999999984,
      "v": 39
    },
    {
      "midi": 98,
      "hit": false,
      "t": 29999.940000000057,
      "d": 10.080625000002328,
      "v": 78
    },
    {
      "midi": 82,
      "hit": false,
      "t": 29999.940000000057,
      "d": 10.080625000002328,
      "v": 102
    },
    {
      "midi": 54,
      "hit": false,
      "t": 29999.940000000057,
      "d": 10.080625000002328,
      "v": 41
    },
    {
      "midi": 42,
      "hit": false,
      "t": 29999.940000000057,
      "d": 55.44343750000553,
      "v": 87
    },
    {
      "midi": 35,
      "hit": false,
      "t": 29999.940000000057,
      "d": 95.76593750000393,
      "v": 87
    },
    {
      "midi": 28,
      "hit": false,
      "t": 29999.940000000057,
      "d": 357.8621875000026,
      "v": 105
    },
    {
      "midi": 57,
      "hit": false,
      "t": 30004.980312500058,
      "d": 5.040312500001164,
      "v": 47
    },
    {
      "midi": 62,
      "hit": false,
      "t": 30010.02062500006,
      "d": 10.080625000002328,
      "v": 54
    },
    {
      "midi": 98,
      "hit": false,
      "t": 30120.90750000006,
      "d": 5.040312500001164,
      "v": 41
    },
    {
      "midi": 82,
      "hit": false,
      "t": 30120.90750000006,
      "d": 5.040312500001164,
      "v": 51
    },
    {
      "midi": 54,
      "hit": false,
      "t": 30141.06875000006,
      "d": 40.3224999999984,
      "v": 34
    },
    {
      "midi": 82,
      "hit": false,
      "t": 30241.87500000006,
      "d": 10.080625000002328,
      "v": 60
    },
    {
      "midi": 54,
      "hit": false,
      "t": 30241.87500000006,
      "d": 10.080625000002328,
      "v": 55
    },
    {
      "midi": 42,
      "hit": false,
      "t": 30241.87500000006,
      "d": 50.403125000004366,
      "v": 82
    },
    {
      "midi": 59,
      "hit": false,
      "t": 30241.87500000006,
      "d": 50.403125000004366,
      "v": 61
    },
    {
      "midi": 71,
      "hit": false,
      "t": 30241.87500000006,
      "d": 216.73343749999913,
      "v": 104
    },
    {
      "midi": 57,
      "hit": false,
      "t": 30246.91531250006,
      "d": 10.080625000002328,
      "v": 49
    },
    {
      "midi": 62,
      "hit": false,
      "t": 30251.95562500006,
      "d": 10.080625000002328,
      "v": 49
    },
    {
      "midi": 54,
      "hit": false,
      "t": 30262.036250000063,
      "d": 20.16125000000102,
      "v": 93
    },
    {
      "midi": 98,
      "hit": false,
      "t": 30367.88281250006,
      "d": 10.08062499999869,
      "v": 45
    },
    {
      "midi": 82,
      "hit": false,
      "t": 30367.88281250006,
      "d": 10.08062499999869,
      "v": 58
    },
    {
      "midi": 54,
      "hit": false,
      "t": 30383.003750000058,
      "d": 40.3224999999984,
      "v": 31
    },
    {
      "midi": 28,
      "hit": false,
      "t": 30478.76968750006,
      "d": 171.3706250000032,
      "v": 102
    },
    {
      "midi": 98,
      "hit": false,
      "t": 30483.81000000006,
      "d": 10.080625000002328,
      "v": 84
    },
    {
      "midi": 82,
      "hit": false,
      "t": 30483.81000000006,
      "d": 10.080625000002328,
      "v": 108
    },
    {
      "midi": 54,
      "hit": false,
      "t": 30483.81000000006,
      "d": 55.44343750000189,
      "v": 59
    },
    {
      "midi": 42,
      "hit": false,
      "t": 30483.81000000006,
      "d": 60.483750000003056,
      "v": 87
    },
    {
      "midi": 40,
      "hit": false,
      "t": 30483.81000000006,
      "d": 60.483750000003056,
      "v": 94
    },
    {
      "midi": 59,
      "hit": false,
      "t": 30483.81000000006,
      "d": 85.6853125000016,
      "v": 60
    },
    {
      "midi": 69,
      "hit": false,
      "t": 30483.81000000006,
      "d": 216.73343749999913,
      "v": 104
    },
    {
      "midi": 57,
      "hit": false,
      "t": 30488.85031250006,
      "d": 65.52406250000058,
      "v": 58
    },
    {
      "midi": 62,
      "hit": false,
      "t": 30493.890625000062,
      "d": 60.48374999999942,
      "v": 58
    },
    {
      "midi": 39,
      "hit": false,
      "t": 30503.97125000006,
      "d": 70.56437500000175,
      "v": 76
    },
    {
      "midi": 98,
      "hit": false,
      "t": 30604.777500000062,
      "d": 5.040312500001164,
      "v": 35
    },
    {
      "midi": 82,
      "hit": false,
      "t": 30604.777500000062,
      "d": 5.040312500001164,
      "v": 43
    },
    {
      "midi": 59,
      "hit": false,
      "t": 30604.777500000062,
      "d": 45.36281249999956,
      "v": 38
    },
    {
      "midi": 57,
      "hit": false,
      "t": 30609.817812500063,
      "d": 65.52406249999694,
      "v": 38
    },
    {
      "midi": 62,
      "hit": false,
      "t": 30614.858125000064,
      "d": 75.60468749999563,
      "v": 38
    },
    {
      "midi": 54,
      "hit": false,
      "t": 30624.938750000063,
      "d": 40.3224999999984,
      "v": 39
    },
    {
      "midi": 40,
      "hit": false,
      "t": 30720.70468750006,
      "d": 196.57218750000538,
      "v": 97
    },
    {
      "midi": 82,
      "hit": false,
      "t": 30725.74500000006,
      "d": 10.080625000002328,
      "v": 66
    },
    {
      "midi": 42,
      "hit": false,
      "t": 30725.74500000006,
      "d": 50.40312500000073,
      "v": 75
    },
    {
      "midi": 54,
      "hit": false,
      "t": 30725.74500000006,
      "d": 85.6853125000016,
      "v": 50
    },
    {
      "midi": 68,
      "hit": false,
      "t": 30725.74500000006,
      "d": 216.73343750000276,
      "v": 104
    },
    {
      "midi": 54,
      "hit": false,
      "t": 30846.712500000063,
      "d": 10.080625000002328,
      "v": 49
    },
    {
      "midi": 98,
      "hit": false,
      "t": 30851.752812500064,
      "d": 10.080625000002328,
      "v": 49
    },
    {
      "midi": 82,
      "hit": false,
      "t": 30851.752812500064,
      "d": 10.080625000002328,
      "v": 64
    },
    {
      "midi": 57,
      "hit": false,
      "t": 30851.752812500064,
      "d": 25.201562500002183,
      "v": 54
    },
    {
      "midi": 62,
      "hit": false,
      "t": 30856.793125000066,
      "d": 10.080625000002328,
      "v": 57
    },
    {
      "midi": 54,
      "hit": false,
      "t": 30866.873750000068,
      "d": 40.3224999999984,
      "v": 40
    },
    {
      "midi": 98,
      "hit": false,
      "t": 30967.680000000062,
      "d": 10.08062499999869,
      "v": 78
    },
    {
      "midi": 82,
      "hit": false,
      "t": 30967.680000000062,
      "d": 10.08062499999869,
      "v": 102
    },
    {
      "midi": 42,
      "hit": false,
      "t": 30967.680000000062,
      "d": 45.362812499995925,
      "v": 95
    },
    {
      "midi": 35,
      "hit": false,
      "t": 30967.680000000062,
      "d": 105.84656249999534,
      "v": 87
    },
    {
      "midi": 56,
      "hit": false,
      "t": 30967.680000000062,
      "d": 115.92718749999403,
      "v": 93
    },
    {
      "midi": 52,
      "hit": false,
      "t": 30967.680000000062,
      "d": 241.9350000000013,
      "v": 104
    },
    {
      "midi": 28,
      "hit": false,
      "t": 30967.680000000062,
      "d": 307.45906250000553,
      "v": 105
    },
    {
      "midi": 68,
      "hit": false,
      "t": 30967.680000000062,
      "d": 866.9337500000111,
      "v": 47
    },
    {
      "midi": 71,
      "hit": false,
      "t": 30967.680000000062,
      "d": 1935.4800000000141,
      "v": 47
    },
    {
      "midi": 98,
      "hit": false,
      "t": 31088.647500000057,
      "d": 5.040312500001164,
      "v": 41
    },
    {
      "midi": 82,
      "hit": false,
      "t": 31088.647500000057,
      "d": 5.040312500001164,
      "v": 51
    },
    {
      "midi": 59,
      "hit": false,
      "t": 31088.647500000057,
      "d": 10.080625000002328,
      "v": 86
    },
    {
      "midi": 56,
      "hit": false,
      "t": 31088.647500000057,
      "d": 15.120937500003492,
      "v": 69
    },
    {
      "midi": 64,
      "hit": false,
      "t": 31103.76843750006,
      "d": 10.080625000002328,
      "v": 94
    },
    {
      "midi": 54,
      "hit": false,
      "t": 31108.808750000062,
      "d": 40.32250000000204,
      "v": 34
    },
    {
      "midi": 82,
      "hit": false,
      "t": 31209.615000000063,
      "d": 10.08062499999869,
      "v": 60
    },
    {
      "midi": 42,
      "hit": false,
      "t": 31209.615000000063,
      "d": 40.32250000000204,
      "v": 82
    },
    {
      "midi": 56,
      "hit": false,
      "t": 31209.615000000063,
      "d": 45.3628125000032,
      "v": 75
    },
    {
      "midi": 54,
      "hit": false,
      "t": 31209.615000000063,
      "d": 70.56437500000538,
      "v": 94
    },
    {
      "midi": 59,
      "hit": false,
      "t": 31219.695625000062,
      "d": 65.52406250000786,
      "v": 72
    },
    {
      "midi": 64,
      "hit": false,
      "t": 31229.776250000064,
      "d": 70.56437500000538,
      "v": 82
    },
    {
      "midi": 59,
      "hit": false,
      "t": 31330.58250000007,
      "d": 15.120937499999854,
      "v": 97
    },
    {
      "midi": 56,
      "hit": false,
      "t": 31330.58250000007,
      "d": 15.120937499999854,
      "v": 78
    },
    {
      "midi": 28,
      "hit": false,
      "t": 31330.58250000007,
      "d": 90.72562499999913,
      "v": 102
    },
    {
      "midi": 98,
      "hit": false,
      "t": 31335.62281250007,
      "d": 10.08062499999869,
      "v": 45
    },
    {
      "midi": 82,
      "hit": false,
      "t": 31335.62281250007,
      "d": 10.08062499999869,
      "v": 58
    },
    {
      "midi": 64,
      "hit": false,
      "t": 31345.70343750007,
      "d": 15.120937499999854,
      "v": 81
    },
    {
      "midi": 54,
      "hit": false,
      "t": 31350.74375000007,
      "d": 40.3224999999984,
      "v": 40
    },
    {
      "midi": 98,
      "hit": false,
      "t": 31451.55000000007,
      "d": 10.08062499999869,
      "v": 84
    },
    {
      "midi": 82,
      "hit": false,
      "t": 31451.55000000007,
      "d": 10.08062499999869,
      "v": 108
    },
    {
      "midi": 59,
      "hit": false,
      "t": 31451.55000000007,
      "d": 15.120937499999854,
      "v": 92
    },
    {
      "midi": 56,
      "hit": false,
      "t": 31451.55000000007,
      "d": 15.120937499999854,
      "v": 89
    },
    {
      "midi": 42,
      "hit": false,
      "t": 31451.55000000007,
      "d": 65.52406250000058,
      "v": 98
    },
    {
      "midi": 40,
      "hit": false,
      "t": 31451.55000000007,
      "d": 70.56437500000175,
      "v": 94
    },
    {
      "midi": 35,
      "hit": false,
      "t": 31451.55000000007,
      "d": 297.3784375000032,
      "v": 105
    },
    {
      "midi": 64,
      "hit": false,
      "t": 31466.67093750007,
      "d": 15.120937499999854,
      "v": 87
    },
    {
      "midi": 98,
      "hit": false,
      "t": 31572.51750000007,
      "d": 5.040312500001164,
      "v": 35
    },
    {
      "midi": 82,
      "hit": false,
      "t": 31572.51750000007,
      "d": 5.040312500001164,
      "v": 43
    },
    {
      "midi": 56,
      "hit": false,
      "t": 31572.51750000007,
      "d": 50.403125000004366,
      "v": 90
    },
    {
      "midi": 59,
      "hit": false,
      "t": 31582.598125000073,
      "d": 65.52406250000058,
      "v": 80
    },
    {
      "midi": 54,
      "hit": false,
      "t": 31592.678750000076,
      "d": 40.3224999999984,
      "v": 39
    },
    {
      "midi": 64,
      "hit": false,
      "t": 31592.678750000076,
      "d": 70.56437499999811,
      "v": 79
    },
    {
      "midi": 82,
      "hit": false,
      "t": 31693.485000000073,
      "d": 10.08062499999869,
      "v": 66
    },
    {
      "midi": 59,
      "hit": false,
      "t": 31693.485000000073,
      "d": 15.120937499999854,
      "v": 98
    },
    {
      "midi": 56,
      "hit": false,
      "t": 31693.485000000073,
      "d": 15.120937499999854,
      "v": 80
    },
    {
      "midi": 42,
      "hit": false,
      "t": 31693.485000000073,
      "d": 40.3224999999984,
      "v": 82
    },
    {
      "midi": 54,
      "hit": false,
      "t": 31693.485000000073,
      "d": 85.68531249999796,
      "v": 47
    },
    {
      "midi": 52,
      "hit": false,
      "t": 31693.485000000073,
      "d": 216.73343749999913,
      "v": 104
    },
    {
      "midi": 64,
      "hit": false,
      "t": 31708.605937500073,
      "d": 15.120937499999854,
      "v": 78
    },
    {
      "midi": 59,
      "hit": false,
      "t": 31814.452500000072,
      "d": 15.120937499999854,
      "v": 91
    },
    {
      "midi": 56,
      "hit": false,
      "t": 31814.452500000072,
      "d": 15.120937499999854,
      "v": 85
    },
    {
      "midi": 35,
      "hit": false,
      "t": 31814.452500000072,
      "d": 90.72562499999913,
      "v": 102
    },
    {
      "midi": 29,
      "hit": false,
      "t": 31814.452500000072,
      "d": 95.76593750000029,
      "v": 45
    },
    {
      "midi": 98,
      "hit": false,
      "t": 31819.492812500073,
      "d": 10.08062499999869,
      "v": 49
    },
    {
      "midi": 82,
      "hit": false,
      "t": 31819.492812500073,
      "d": 10.08062499999869,
      "v": 64
    },
    {
      "midi": 64,
      "hit": false,
      "t": 31829.573437500072,
      "d": 15.120937499999854,
      "v": 98
    },
    {
      "midi": 54,
      "hit": false,
      "t": 31834.613750000073,
      "d": 40.3224999999984,
      "v": 39
    },
    {
      "midi": 98,
      "hit": false,
      "t": 31935.42000000007,
      "d": 10.08062499999869,
      "v": 78
    },
    {
      "midi": 82,
      "hit": false,
      "t": 31935.42000000007,
      "d": 10.08062499999869,
      "v": 102
    },
    {
      "midi": 56,
      "hit": false,
      "t": 31935.42000000007,
      "d": 45.36281249999956,
      "v": 70
    },
    {
      "midi": 42,
      "hit": false,
      "t": 31935.42000000007,
      "d": 60.48374999999942,
      "v": 98
    },
    {
      "midi": 35,
      "hit": false,
      "t": 31935.42000000007,
      "d": 90.72562499999913,
      "v": 86
    },
    {
      "midi": 28,
      "hit": false,
      "t": 31935.42000000007,
      "d": 211.69312499999796,
      "v": 105
    },
    {
      "midi": 59,
      "hit": false,
      "t": 31950.54093750007,
      "d": 65.52406250000058,
      "v": 79
    },
    {
      "midi": 64,
      "hit": false,
      "t": 31955.581250000072,
      "d": 85.68531249999796,
      "v": 81
    },
    {
      "midi": 98,
      "hit": false,
      "t": 32056.38750000007,
      "d": 5.040312500001164,
      "v": 41
    },
    {
      "midi": 82,
      "hit": false,
      "t": 32056.38750000007,
      "d": 5.040312500001164,
      "v": 51
    },
    {
      "midi": 54,
      "hit": false,
      "t": 32076.54875000007,
      "d": 40.3224999999984,
      "v": 34
    },
    {
      "midi": 40,
      "hit": false,
      "t": 32177.35500000007,
      "d": 5.040312500001164,
      "v": 74
    },
    {
      "midi": 82,
      "hit": false,
      "t": 32177.35500000007,
      "d": 10.080625000002328,
      "v": 60
    },
    {
      "midi": 42,
      "hit": false,
      "t": 32177.35500000007,
      "d": 40.322500000005675,
      "v": 73
    },
    {
      "midi": 56,
      "hit": false,
      "t": 32177.35500000007,
      "d": 95.76593750000757,
      "v": 95
    },
    {
      "midi": 28,
      "hit": false,
      "t": 32177.35500000007,
      "d": 206.6528125000077,
      "v": 105
    },
    {
      "midi": 68,
      "hit": false,
      "t": 32177.35500000007,
      "d": 216.7334375000064,
      "v": 104
    },
    {
      "midi": 64,
      "hit": false,
      "t": 32187.43562500007,
      "d": 95.76593750000393,
      "v": 75
    },
    {
      "midi": 59,
      "hit": false,
      "t": 32192.475937500072,
      "d": 95.76593750000393,
      "v": 87
    },
    {
      "midi": 54,
      "hit": false,
      "t": 32197.516250000073,
      "d": 70.56437500000175,
      "v": 93
    },
    {
      "midi": 98,
      "hit": false,
      "t": 32303.362812500076,
      "d": 10.080625000002328,
      "v": 45
    },
    {
      "midi": 82,
      "hit": false,
      "t": 32303.362812500076,
      "d": 10.080625000002328,
      "v": 58
    },
    {
      "midi": 54,
      "hit": false,
      "t": 32318.48375000008,
      "d": 40.3224999999984,
      "v": 31
    },
    {
      "midi": 98,
      "hit": false,
      "t": 32419.290000000074,
      "d": 10.08062499999869,
      "v": 84
    },
    {
      "midi": 82,
      "hit": false,
      "t": 32419.290000000074,
      "d": 10.08062499999869,
      "v": 108
    },
    {
      "midi": 40,
      "hit": false,
      "t": 32419.290000000074,
      "d": 65.52406250000058,
      "v": 91
    },
    {
      "midi": 56,
      "hit": false,
      "t": 32419.290000000074,
      "d": 95.76593750000029,
      "v": 70
    },
    {
      "midi": 32,
      "hit": false,
      "t": 32419.290000000074,
      "d": 191.53187500000058,
      "v": 102
    },
    {
      "midi": 68,
      "hit": false,
      "t": 32419.290000000074,
      "d": 216.73343749999913,
      "v": 104
    },
    {
      "midi": 64,
      "hit": false,
      "t": 32429.370625000072,
      "d": 95.76593750000029,
      "v": 95
    },
    {
      "midi": 59,
      "hit": false,
      "t": 32434.410937500073,
      "d": 95.76593750000029,
      "v": 79
    },
    {
      "midi": 39,
      "hit": false,
      "t": 32439.451250000075,
      "d": 70.56437499999811,
      "v": 76
    },
    {
      "midi": 40,
      "hit": false,
      "t": 32540.257500000072,
      "d": 5.040312500001164,
      "v": 74
    },
    {
      "midi": 98,
      "hit": false,
      "t": 32540.257500000072,
      "d": 5.040312500001164,
      "v": 35
    },
    {
      "midi": 82,
      "hit": false,
      "t": 32540.257500000072,
      "d": 5.040312500001164,
      "v": 43
    },
    {
      "midi": 56,
      "hit": false,
      "t": 32540.257500000072,
      "d": 85.6853125000016,
      "v": 95
    },
    {
      "midi": 64,
      "hit": false,
      "t": 32550.338125000075,
      "d": 95.76593749999665,
      "v": 75
    },
    {
      "midi": 59,
      "hit": false,
      "t": 32555.378437500076,
      "d": 80.6449999999968,
      "v": 87
    },
    {
      "midi": 54,
      "hit": false,
      "t": 32560.418750000077,
      "d": 40.3224999999984,
      "v": 39
    },
    {
      "midi": 47,
      "hit": false,
      "t": 32661.22500000007,
      "d": 5.040312500001164,
      "v": 73
    },
    {
      "midi": 82,
      "hit": false,
      "t": 32661.22500000007,
      "d": 10.080625000002328,
      "v": 66
    },
    {
      "midi": 54,
      "hit": false,
      "t": 32661.22500000007,
      "d": 85.6853125000016,
      "v": 50
    },
    {
      "midi": 35,
      "hit": false,
      "t": 32661.22500000007,
      "d": 161.29000000000815,
      "v": 105
    },
    {
      "midi": 68,
      "hit": false,
      "t": 32661.22500000007,
      "d": 216.7334375000064,
      "v": 104
    },
    {
      "midi": 45,
      "hit": false,
      "t": 32782.19250000007,
      "d": 5.040312500001164,
      "v": 54
    },
    {
      "midi": 56,
      "hit": false,
      "t": 32782.19250000007,
      "d": 15.120937500003492,
      "v": 77
    },
    {
      "midi": 98,
      "hit": false,
      "t": 32787.23281250007,
      "d": 10.080625000002328,
      "v": 49
    },
    {
      "midi": 82,
      "hit": false,
      "t": 32787.23281250007,
      "d": 10.080625000002328,
      "v": 64
    },
    {
      "midi": 59,
      "hit": false,
      "t": 32792.27312500007,
      "d": 15.120937500003492,
      "v": 69
    },
    {
      "midi": 64,
      "hit": false,
      "t": 32802.353750000075,
      "d": 20.161250000004657,
      "v": 73
    },
    {
      "midi": 54,
      "hit": false,
      "t": 32802.353750000075,
      "d": 40.32250000000204,
      "v": 40
    },
    {
      "midi": 49,
      "hit": false,
      "t": 32898.119687500075,
      "d": 5.040312500001164,
      "v": 79
    },
    {
      "midi": 98,
      "hit": false,
      "t": 32903.160000000076,
      "d": 10.080625000002328,
      "v": 78
    },
    {
      "midi": 82,
      "hit": false,
      "t": 32903.160000000076,
      "d": 10.080625000002328,
      "v": 102
    },
    {
      "midi": 42,
      "hit": false,
      "t": 32903.160000000076,
      "d": 45.3628125000032,
      "v": 95
    },
    {
      "midi": 35,
      "hit": false,
      "t": 32903.160000000076,
      "d": 105.84656250000262,
      "v": 87
    },
    {
      "midi": 52,
      "hit": false,
      "t": 32903.160000000076,
      "d": 322.5800000000163,
      "v": 104
    },
    {
      "midi": 45,
      "hit": false,
      "t": 32903.160000000076,
      "d": 322.5800000000163,
      "v": 104
    },
    {
      "midi": 67,
      "hit": false,
      "t": 32903.160000000076,
      "d": 322.5800000000163,
      "v": 47
    },
    {
      "midi": 72,
      "hit": false,
      "t": 32903.160000000076,
      "d": 362.90250000001834,
      "v": 47
    },
    {
      "midi": 33,
      "hit": false,
      "t": 32908.20031250008,
      "d": 357.86218750001717,
      "v": 102
    },
    {
      "midi": 98,
      "hit": false,
      "t": 33024.12750000008,
      "d": 5.040312500001164,
      "v": 41
    },
    {
      "midi": 82,
      "hit": false,
      "t": 33024.12750000008,
      "d": 5.040312500001164,
      "v": 51
    },
    {
      "midi": 64,
      "hit": false,
      "t": 33024.12750000008,
      "d": 15.120937500003492,
      "v": 85
    },
    {
      "midi": 60,
      "hit": false,
      "t": 33024.12750000008,
      "d": 15.120937500003492,
      "v": 68
    },
    {
      "midi": 55,
      "hit": false,
      "t": 33039.248437500086,
      "d": 15.120937500003492,
      "v": 93
    },
    {
      "midi": 54,
      "hit": false,
      "t": 33044.28875000009,
      "d": 40.32250000000204,
      "v": 34
    },
    {
      "midi": 82,
      "hit": false,
      "t": 33145.09500000009,
      "d": 10.080625000002328,
      "v": 60
    },
    {
      "midi": 42,
      "hit": false,
      "t": 33145.09500000009,
      "d": 40.32250000000204,
      "v": 82
    },
    {
      "midi": 54,
      "hit": false,
      "t": 33145.09500000009,
      "d": 70.56437500000175,
      "v": 94
    },
    {
      "midi": 64,
      "hit": false,
      "t": 33145.09500000009,
      "d": 75.60468750000291,
      "v": 68
    },
    {
      "midi": 60,
      "hit": false,
      "t": 33145.09500000009,
      "d": 75.60468750000291,
      "v": 75
    },
    {
      "midi": 55,
      "hit": false,
      "t": 33160.21593750009,
      "d": 75.60468750000291,
      "v": 90
    },
    {
      "midi": 66,
      "hit": false,
      "t": 33266.062500000095,
      "d": 15.120937500003492,
      "v": 47
    },
    {
      "midi": 62,
      "hit": false,
      "t": 33266.062500000095,
      "d": 15.120937500003492,
      "v": 78
    },
    {
      "midi": 35,
      "hit": false,
      "t": 33266.062500000095,
      "d": 141.12875000001077,
      "v": 102
    },
    {
      "midi": 47,
      "hit": false,
      "t": 33266.062500000095,
      "d": 322.5800000000236,
      "v": 104
    },
    {
      "midi": 69,
      "hit": false,
      "t": 33266.062500000095,
      "d": 322.5800000000236,
      "v": 47
    },
    {
      "midi": 74,
      "hit": false,
      "t": 33266.062500000095,
      "d": 362.9025000000256,
      "v": 47
    },
    {
      "midi": 98,
      "hit": false,
      "t": 33271.102812500096,
      "d": 10.080625000002328,
      "v": 45
    },
    {
      "midi": 82,
      "hit": false,
      "t": 33271.102812500096,
      "d": 10.080625000002328,
      "v": 58
    },
    {
      "midi": 57,
      "hit": false,
      "t": 33281.1834375001,
      "d": 15.120937500003492,
      "v": 80
    },
    {
      "midi": 54,
      "hit": false,
      "t": 33286.2237500001,
      "d": 40.32250000000204,
      "v": 40
    },
    {
      "midi": 98,
      "hit": false,
      "t": 33387.0300000001,
      "d": 10.080625000002328,
      "v": 84
    },
    {
      "midi": 82,
      "hit": false,
      "t": 33387.0300000001,
      "d": 10.080625000002328,
      "v": 108
    },
    {
      "midi": 66,
      "hit": false,
      "t": 33387.0300000001,
      "d": 15.120937500003492,
      "v": 92
    },
    {
      "midi": 62,
      "hit": false,
      "t": 33387.0300000001,
      "d": 15.120937500003492,
      "v": 88
    },
    {
      "midi": 42,
      "hit": false,
      "t": 33387.0300000001,
      "d": 65.52406250000786,
      "v": 98
    },
    {
      "midi": 40,
      "hit": false,
      "t": 33387.0300000001,
      "d": 70.56437500000902,
      "v": 94
    },
    {
      "midi": 57,
      "hit": false,
      "t": 33402.150937500104,
      "d": 15.120937500003492,
      "v": 86
    },
    {
      "midi": 98,
      "hit": false,
      "t": 33507.99750000011,
      "d": 5.040312500001164,
      "v": 35
    },
    {
      "midi": 82,
      "hit": false,
      "t": 33507.99750000011,
      "d": 5.040312500001164,
      "v": 43
    },
    {
      "midi": 66,
      "hit": false,
      "t": 33507.99750000011,
      "d": 75.60468750001019,
      "v": 68
    },
    {
      "midi": 62,
      "hit": false,
      "t": 33507.99750000011,
      "d": 75.60468750001019,
      "v": 89
    },
    {
      "midi": 57,
      "hit": false,
      "t": 33523.11843750011,
      "d": 75.60468750001019,
      "v": 68
    },
    {
      "midi": 54,
      "hit": false,
      "t": 33528.15875000011,
      "d": 40.32250000000204,
      "v": 39
    },
    {
      "midi": 82,
      "hit": false,
      "t": 33628.96500000012,
      "d": 10.080625000002328,
      "v": 66
    },
    {
      "midi": 55,
      "hit": false,
      "t": 33628.96500000012,
      "d": 15.120937500003492,
      "v": 97
    },
    {
      "midi": 64,
      "hit": false,
      "t": 33628.96500000012,
      "d": 15.120937500003492,
      "v": 79
    },
    {
      "midi": 42,
      "hit": false,
      "t": 33628.96500000012,
      "d": 40.32250000000931,
      "v": 82
    },
    {
      "midi": 54,
      "hit": false,
      "t": 33628.96500000012,
      "d": 85.68531250001251,
      "v": 47
    },
    {
      "midi": 48,
      "hit": false,
      "t": 33628.96500000012,
      "d": 216.73343750002095,
      "v": 104
    },
    {
      "midi": 71,
      "hit": false,
      "t": 33628.96500000012,
      "d": 216.73343750002095,
      "v": 104
    },
    {
      "midi": 36,
      "hit": false,
      "t": 33634.00531250012,
      "d": 136.08843750001688,
      "v": 89
    },
    {
      "midi": 59,
      "hit": false,
      "t": 33644.085937500124,
      "d": 15.120937500003492,
      "v": 78
    },
    {
      "midi": 55,
      "hit": false,
      "t": 33749.93250000013,
      "d": 15.120937500003492,
      "v": 91
    },
    {
      "midi": 64,
      "hit": false,
      "t": 33749.93250000013,
      "d": 15.120937500003492,
      "v": 84
    },
    {
      "midi": 29,
      "hit": false,
      "t": 33749.93250000013,
      "d": 95.76593750000757,
      "v": 45
    },
    {
      "midi": 98,
      "hit": false,
      "t": 33754.972812500135,
      "d": 10.080625000002328,
      "v": 49
    },
    {
      "midi": 82,
      "hit": false,
      "t": 33754.972812500135,
      "d": 10.080625000002328,
      "v": 64
    },
    {
      "midi": 59,
      "hit": false,
      "t": 33765.05343750014,
      "d": 15.120937500003492,
      "v": 98
    },
    {
      "midi": 54,
      "hit": false,
      "t": 33770.09375000014,
      "d": 40.32250000000204,
      "v": 39
    },
    {
      "midi": 98,
      "hit": false,
      "t": 33870.90000000014,
      "d": 10.080625000002328,
      "v": 78
    },
    {
      "midi": 82,
      "hit": false,
      "t": 33870.90000000014,
      "d": 10.080625000002328,
      "v": 102
    },
    {
      "midi": 42,
      "hit": false,
      "t": 33870.90000000014,
      "d": 60.483750000006694,
      "v": 98
    },
    {
      "midi": 35,
      "hit": false,
      "t": 33870.90000000014,
      "d": 90.7256250000064,
      "v": 86
    },
    {
      "midi": 64,
      "hit": false,
      "t": 33870.90000000014,
      "d": 95.76593750000757,
      "v": 70
    },
    {
      "midi": 36,
      "hit": false,
      "t": 33875.94031250014,
      "d": 55.44343750000553,
      "v": 93
    },
    {
      "midi": 59,
      "hit": false,
      "t": 33880.98062500014,
      "d": 95.76593750000757,
      "v": 95
    },
    {
      "midi": 55,
      "hit": false,
      "t": 33886.02093750014,
      "d": 95.76593750000757,
      "v": 78
    },
    {
      "midi": 98,
      "hit": false,
      "t": 33991.86750000015,
      "d": 5.040312500001164,
      "v": 41
    },
    {
      "midi": 82,
      "hit": false,
      "t": 33991.86750000015,
      "d": 5.040312500001164,
      "v": 51
    },
    {
      "midi": 64,
      "hit": false,
      "t": 33991.86750000015,
      "d": 95.76593750000757,
      "v": 95
    },
    {
      "midi": 31,
      "hit": false,
      "t": 33996.907812500154,
      "d": 5.040312500001164,
      "v": 42
    },
    {
      "midi": 59,
      "hit": false,
      "t": 34001.948125000155,
      "d": 95.76593750000757,
      "v": 75
    },
    {
      "midi": 55,
      "hit": false,
      "t": 34006.98843750016,
      "d": 95.76593750000757,
      "v": 86
    },
    {
      "midi": 54,
      "hit": false,
      "t": 34012.02875000016,
      "d": 40.32250000000204,
      "v": 34
    },
    {
      "midi": 82,
      "hit": false,
      "t": 34112.83500000017,
      "d": 10.080625000002328,
      "v": 60
    },
    {
      "midi": 42,
      "hit": false,
      "t": 34112.83500000017,
      "d": 40.32250000000204,
      "v": 73
    },
    {
      "midi": 64,
      "hit": false,
      "t": 34112.83500000017,
      "d": 95.76593750000029,
      "v": 90
    },
    {
      "midi": 36,
      "hit": false,
      "t": 34112.83500000017,
      "d": 297.37843750002503,
      "v": 101
    },
    {
      "midi": 59,
      "hit": false,
      "t": 34122.91562500017,
      "d": 95.76593750000029,
      "v": 89
    },
    {
      "midi": 55,
      "hit": false,
      "t": 34127.95593750017,
      "d": 95.76593750000029,
      "v": 87
    },
    {
      "midi": 54,
      "hit": false,
      "t": 34132.99625000017,
      "d": 70.56437499999447,
      "v": 93
    },
    {
      "midi": 31,
      "hit": false,
      "t": 34233.80250000017,
      "d": 5.040312500001164,
      "v": 34
    },
    {
      "midi": 64,
      "hit": false,
      "t": 34233.80250000017,
      "d": 95.76593750000757,
      "v": 71
    },
    {
      "midi": 98,
      "hit": false,
      "t": 34238.842812500174,
      "d": 10.080625000002328,
      "v": 45
    },
    {
      "midi": 82,
      "hit": false,
      "t": 34238.842812500174,
      "d": 10.080625000002328,
      "v": 58
    },
    {
      "midi": 59,
      "hit": false,
      "t": 34243.883125000175,
      "d": 95.76593750000757,
      "v": 91
    },
    {
      "midi": 55,
      "hit": false,
      "t": 34248.923437500176,
      "d": 95.76593750000757,
      "v": 98
    },
    {
      "midi": 54,
      "hit": false,
      "t": 34253.96375000018,
      "d": 40.32250000000204,
      "v": 31
    },
    {
      "midi": 98,
      "hit": false,
      "t": 34354.770000000186,
      "d": 10.080625000002328,
      "v": 84
    },
    {
      "midi": 82,
      "hit": false,
      "t": 34354.770000000186,
      "d": 10.080625000002328,
      "v": 108
    },
    {
      "midi": 40,
      "hit": false,
      "t": 34354.770000000186,
      "d": 65.52406250000786,
      "v": 91
    },
    {
      "midi": 55,
      "hit": false,
      "t": 34354.770000000186,
      "d": 100.80625000000873,
      "v": 57
    },
    {
      "midi": 64,
      "hit": false,
      "t": 34354.770000000186,
      "d": 100.80625000000873,
      "v": 78
    },
    {
      "midi": 59,
      "hit": false,
      "t": 34354.770000000186,
      "d": 100.80625000000873,
      "v": 78
    },
    {
      "midi": 39,
      "hit": false,
      "t": 34374.93125000019,
      "d": 70.56437500000175,
      "v": 76
    },
    {
      "midi": 40,
      "hit": false,
      "t": 34475.73750000019,
      "d": 5.040312500001164,
      "v": 68
    },
    {
      "midi": 98,
      "hit": false,
      "t": 34475.73750000019,
      "d": 5.040312500001164,
      "v": 35
    },
    {
      "midi": 82,
      "hit": false,
      "t": 34475.73750000019,
      "d": 5.040312500001164,
      "v": 43
    },
    {
      "midi": 36,
      "hit": false,
      "t": 34475.73750000019,
      "d": 5.040312500001164,
      "v": 93
    },
    {
      "midi": 55,
      "hit": false,
      "t": 34475.73750000019,
      "d": 15.120937500003492,
      "v": 95
    },
    {
      "midi": 64,
      "hit": false,
      "t": 34475.73750000019,
      "d": 15.120937500003492,
      "v": 80
    },
    {
      "midi": 59,
      "hit": false,
      "t": 34490.858437500196,
      "d": 15.120937500003492,
      "v": 85
    },
    {
      "midi": 54,
      "hit": false,
      "t": 34495.8987500002,
      "d": 40.32250000000204,
      "v": 39
    },
    {
      "midi": 45,
      "hit": false,
      "t": 34596.7050000002,
      "d": 5.040312500001164,
      "v": 77
    },
    {
      "midi": 82,
      "hit": false,
      "t": 34596.7050000002,
      "d": 10.080625000002328,
      "v": 66
    },
    {
      "midi": 55,
      "hit": false,
      "t": 34596.7050000002,
      "d": 15.120937500003492,
      "v": 72
    },
    {
      "midi": 64,
      "hit": false,
      "t": 34596.7050000002,
      "d": 15.120937500003492,
      "v": 83
    },
    {
      "midi": 54,
      "hit": false,
      "t": 34596.7050000002,
      "d": 85.68531250000524,
      "v": 50
    },
    {
      "midi": 36,
      "hit": false,
      "t": 34601.7453125002,
      "d": 226.81406250000873,
      "v": 93
    },
    {
      "midi": 59,
      "hit": false,
      "t": 34611.8259375002,
      "d": 15.120937500003492,
      "v": 82
    },
    {
      "midi": 55,
      "hit": false,
      "t": 34717.672500000204,
      "d": 15.120937500003492,
      "v": 102
    },
    {
      "midi": 64,
      "hit": false,
      "t": 34717.672500000204,
      "d": 15.120937500003492,
      "v": 107
    },
    {
      "midi": 98,
      "hit": false,
      "t": 34722.712812500205,
      "d": 10.080625000002328,
      "v": 49
    },
    {
      "midi": 82,
      "hit": false,
      "t": 34722.712812500205,
      "d": 10.080625000002328,
      "v": 64
    },
    {
      "midi": 59,
      "hit": false,
      "t": 34732.79343750021,
      "d": 15.120937500003492,
      "v": 79
    },
    {
      "midi": 54,
      "hit": false,
      "t": 34737.83375000021,
      "d": 40.32250000000204,
      "v": 40
    },
    {
      "midi": 49,
      "hit": false,
      "t": 34833.59968750021,
      "d": 5.040312500001164,
      "v": 79
    },
    {
      "midi": 44,
      "hit": false,
      "t": 34838.64000000021,
      "d": 5.040312500001164,
      "v": 64
    },
    {
      "midi": 35,
      "hit": false,
      "t": 34838.64000000021,
      "d": 105.84656250000262,
      "v": 87
    },
    {
      "midi": 52,
      "hit": false,
      "t": 34838.64000000021,
      "d": 322.5800000000163,
      "v": 104
    },
    {
      "midi": 45,
      "hit": false,
      "t": 34838.64000000021,
      "d": 322.5800000000163,
      "v": 104
    },
    {
      "midi": 33,
      "hit": false,
      "t": 34838.64000000021,
      "d": 362.90250000001834,
      "v": 89
    },
    {
      "midi": 60,
      "hit": false,
      "t": 34848.72062500021,
      "d": 100.80625000000146,
      "v": 46
    },
    {
      "midi": 67,
      "hit": false,
      "t": 34858.801250000215,
      "d": 85.68531249999796,
      "v": 50
    },
    {
      "midi": 64,
      "hit": false,
      "t": 34858.801250000215,
      "d": 100.80625000000146,
      "v": 50
    },
    {
      "midi": 60,
      "hit": false,
      "t": 34959.60750000022,
      "d": 5.040312500001164,
      "v": 95
    },
    {
      "midi": 67,
      "hit": false,
      "t": 34959.60750000022,
      "d": 110.88687500000378,
      "v": 47
    },
    {
      "midi": 60,
      "hit": false,
      "t": 34969.68812500022,
      "d": 95.76593750000029,
      "v": 51
    },
    {
      "midi": 64,
      "hit": false,
      "t": 34969.68812500022,
      "d": 110.88687500000378,
      "v": 51
    },
    {
      "midi": 46,
      "hit": false,
      "t": 35075.53468750022,
      "d": 5.040312500001164,
      "v": 69
    },
    {
      "midi": 62,
      "hit": false,
      "t": 35080.57500000022,
      "d": 5.040312500001164,
      "v": 91
    },
    {
      "midi": 60,
      "hit": false,
      "t": 35080.57500000022,
      "d": 80.64500000000407,
      "v": 50
    },
    {
      "midi": 67,
      "hit": false,
      "t": 35090.655625000225,
      "d": 70.56437500000175,
      "v": 56
    },
    {
      "midi": 64,
      "hit": false,
      "t": 35090.655625000225,
      "d": 110.88687500000378,
      "v": 56
    },
    {
      "midi": 63,
      "hit": false,
      "t": 35201.54250000023,
      "d": 5.040312500001164,
      "v": 91
    },
    {
      "midi": 59,
      "hit": false,
      "t": 35201.54250000023,
      "d": 10.080625000002328,
      "v": 96
    },
    {
      "midi": 66,
      "hit": false,
      "t": 35201.54250000023,
      "d": 95.76593750000029,
      "v": 51
    },
    {
      "midi": 35,
      "hit": false,
      "t": 35201.54250000023,
      "d": 110.88687500000378,
      "v": 89
    },
    {
      "midi": 54,
      "hit": false,
      "t": 35201.54250000023,
      "d": 322.5800000000163,
      "v": 104
    },
    {
      "midi": 47,
      "hit": false,
      "t": 35201.54250000023,
      "d": 322.5800000000163,
      "v": 104
    },
    {
      "midi": 69,
      "hit": false,
      "t": 35201.54250000023,
      "d": 322.5800000000163,
      "v": 104
    },
    {
      "midi": 57,
      "hit": false,
      "t": 35211.62312500023,
      "d": 80.6449999999968,
      "v": 51
    },
    {
      "midi": 62,
      "hit": false,
      "t": 35211.62312500023,
      "d": 95.76593750000029,
      "v": 51
    },
    {
      "midi": 44,
      "hit": false,
      "t": 35317.469687500234,
      "d": 5.040312500001164,
      "v": 71
    },
    {
      "midi": 57,
      "hit": false,
      "t": 35322.510000000235,
      "d": 5.040312500001164,
      "v": 56
    },
    {
      "midi": 40,
      "hit": false,
      "t": 35322.510000000235,
      "d": 70.56437500000175,
      "v": 94
    },
    {
      "midi": 35,
      "hit": false,
      "t": 35322.510000000235,
      "d": 105.84656250000262,
      "v": 87
    },
    {
      "midi": 33,
      "hit": false,
      "t": 35322.510000000235,
      "d": 241.93500000001222,
      "v": 101
    },
    {
      "midi": 62,
      "hit": false,
      "t": 35332.59062500024,
      "d": 5.040312500001164,
      "v": 60
    },
    {
      "midi": 66,
      "hit": false,
      "t": 35337.63093750024,
      "d": 5.040312500001164,
      "v": 64
    },
    {
      "midi": 64,
      "hit": false,
      "t": 35443.47750000024,
      "d": 5.040312500001164,
      "v": 91
    },
    {
      "midi": 66,
      "hit": false,
      "t": 35443.47750000024,
      "d": 5.040312500001164,
      "v": 50
    },
    {
      "midi": 62,
      "hit": false,
      "t": 35453.55812500024,
      "d": 5.040312500001164,
      "v": 53
    },
    {
      "midi": 57,
      "hit": false,
      "t": 35458.598437500244,
      "d": 5.040312500001164,
      "v": 55
    },
    {
      "midi": 46,
      "hit": false,
      "t": 35564.44500000025,
      "d": 5.040312500001164,
      "v": 61
    },
    {
      "midi": 63,
      "hit": false,
      "t": 35564.44500000025,
      "d": 5.040312500001164,
      "v": 47
    },
    {
      "midi": 59,
      "hit": false,
      "t": 35564.44500000025,
      "d": 110.88687500000378,
      "v": 49
    },
    {
      "midi": 55,
      "hit": false,
      "t": 35564.44500000025,
      "d": 216.73343750001368,
      "v": 104
    },
    {
      "midi": 48,
      "hit": false,
      "t": 35564.44500000025,
      "d": 216.73343750001368,
      "v": 104
    },
    {
      "midi": 71,
      "hit": false,
      "t": 35564.44500000025,
      "d": 216.73343750001368,
      "v": 104
    },
    {
      "midi": 33,
      "hit": false,
      "t": 35564.44500000025,
      "d": 231.85437500001717,
      "v": 101
    },
    {
      "midi": 67,
      "hit": false,
      "t": 35574.52562500025,
      "d": 95.76593750000029,
      "v": 54
    },
    {
      "midi": 64,
      "hit": false,
      "t": 35574.52562500025,
      "d": 110.88687500000378,
      "v": 54
    },
    {
      "midi": 63,
      "hit": false,
      "t": 35685.41250000025,
      "d": 5.040312500001164,
      "v": 85
    },
    {
      "midi": 67,
      "hit": false,
      "t": 35685.41250000025,
      "d": 5.040312500001164,
      "v": 50
    },
    {
      "midi": 60,
      "hit": false,
      "t": 35685.41250000025,
      "d": 5.040312500001164,
      "v": 107
    },
    {
      "midi": 64,
      "hit": false,
      "t": 35695.493125000256,
      "d": 5.040312500001164,
      "v": 53
    },
    {
      "midi": 59,
      "hit": false,
      "t": 35700.53343750026,
      "d": 5.040312500001164,
      "v": 55
    },
    {
      "midi": 40,
      "hit": false,
      "t": 35806.38000000027,
      "d": 5.040312500001164,
      "v": 93
    },
    {
      "midi": 44,
      "hit": false,
      "t": 35806.38000000027,
      "d": 5.040312500001164,
      "v": 64
    },
    {
      "midi": 59,
      "hit": false,
      "t": 35806.38000000027,
      "d": 5.040312500001164,
      "v": 56
    },
    {
      "midi": 60,
      "hit": false,
      "t": 35806.38000000027,
      "d": 5.040312500001164,
      "v": 102
    },
    {
      "midi": 35,
      "hit": false,
      "t": 35806.38000000027,
      "d": 90.7256250000064,
      "v": 86
    },
    {
      "midi": 31,
      "hit": false,
      "t": 35806.38000000027,
      "d": 473.7893750000221,
      "v": 82
    },
    {
      "midi": 64,
      "hit": false,
      "t": 35816.46062500027,
      "d": 5.040312500001164,
      "v": 60
    },
    {
      "midi": 67,
      "hit": false,
      "t": 35821.50093750027,
      "d": 5.040312500001164,
      "v": 64
    },
    {
      "midi": 62,
      "hit": false,
      "t": 35927.34750000027,
      "d": 5.040312500001164,
      "v": 91
    },
    {
      "midi": 59,
      "hit": false,
      "t": 35927.34750000027,
      "d": 110.88687500000378,
      "v": 49
    },
    {
      "midi": 67,
      "hit": false,
      "t": 35937.428125000275,
      "d": 95.76593750000029,
      "v": 54
    },
    {
      "midi": 64,
      "hit": false,
      "t": 35937.428125000275,
      "d": 110.88687500000378,
      "v": 54
    },
    {
      "midi": 40,
      "hit": false,
      "t": 36048.31500000028,
      "d": 5.040312500001164,
      "v": 64
    },
    {
      "midi": 64,
      "hit": false,
      "t": 36048.31500000028,
      "d": 5.040312500001164,
      "v": 78
    },
    {
      "midi": 67,
      "hit": false,
      "t": 36048.31500000028,
      "d": 5.040312500001164,
      "v": 50
    },
    {
      "midi": 64,
      "hit": false,
      "t": 36058.39562500028,
      "d": 5.040312500001164,
      "v": 53
    },
    {
      "midi": 59,
      "hit": false,
      "t": 36063.43593750028,
      "d": 5.040312500001164,
      "v": 55
    },
    {
      "midi": 40,
      "hit": false,
      "t": 36169.282500000285,
      "d": 5.040312500001164,
      "v": 87
    },
    {
      "midi": 64,
      "hit": false,
      "t": 36169.282500000285,
      "d": 5.040312500001164,
      "v": 78
    },
    {
      "midi": 59,
      "hit": false,
      "t": 36169.282500000285,
      "d": 5.040312500001164,
      "v": 56
    },
    {
      "midi": 64,
      "hit": false,
      "t": 36179.36312500029,
      "d": 5.040312500001164,
      "v": 60
    },
    {
      "midi": 67,
      "hit": false,
      "t": 36184.40343750029,
      "d": 5.040312500001164,
      "v": 64
    },
    {
      "midi": 43,
      "hit": false,
      "t": 36290.25000000029,
      "d": 5.040312500001164,
      "v": 86
    },
    {
      "midi": 64,
      "hit": false,
      "t": 36290.25000000029,
      "d": 5.040312500001164,
      "v": 82
    },
    {
      "midi": 35,
      "hit": false,
      "t": 36290.25000000029,
      "d": 90.72562499999913,
      "v": 86
    },
    {
      "midi": 59,
      "hit": false,
      "t": 36290.25000000029,
      "d": 110.88687500000378,
      "v": 49
    },
    {
      "midi": 33,
      "hit": false,
      "t": 36290.25000000029,
      "d": 241.93500000001222,
      "v": 87
    },
    {
      "midi": 44,
      "hit": false,
      "t": 36295.29031250029,
      "d": 5.040312500001164,
      "v": 71
    },
    {
      "midi": 67,
      "hit": false,
      "t": 36300.33062500029,
      "d": 95.76593750000029,
      "v": 54
    },
    {
      "midi": 64,
      "hit": false,
      "t": 36300.33062500029,
      "d": 110.88687500000378,
      "v": 54
    },
    {
      "midi": 40,
      "hit": false,
      "t": 36411.2175000003,
      "d": 5.040312500001164,
      "v": 73
    },
    {
      "midi": 62,
      "hit": false,
      "t": 36411.2175000003,
      "d": 5.040312500001164,
      "v": 93
    },
    {
      "midi": 67,
      "hit": false,
      "t": 36411.2175000003,
      "d": 110.88687500000378,
      "v": 47
    },
    {
      "midi": 59,
      "hit": false,
      "t": 36421.2981250003,
      "d": 95.76593750000029,
      "v": 51
    },
    {
      "midi": 64,
      "hit": false,
      "t": 36421.2981250003,
      "d": 110.88687500000378,
      "v": 51
    },
    {
      "midi": 40,
      "hit": false,
      "t": 36532.1850000003,
      "d": 5.040312500001164,
      "v": 95
    },
    {
      "midi": 59,
      "hit": false,
      "t": 36532.1850000003,
      "d": 5.040312500001164,
      "v": 56
    },
    {
      "midi": 64,
      "hit": false,
      "t": 36542.265625000306,
      "d": 5.040312500001164,
      "v": 60
    },
    {
      "midi": 31,
      "hit": false,
      "t": 36542.265625000306,
      "d": 221.7737500000003,
      "v": 76
    },
    {
      "midi": 67,
      "hit": false,
      "t": 36547.30593750031,
      "d": 5.040312500001164,
      "v": 64
    },
    {
      "midi": 67,
      "hit": false,
      "t": 36663.233125000304,
      "d": 5.040312500001164,
      "v": 50
    },
    {
      "midi": 64,
      "hit": false,
      "t": 36673.31375000031,
      "d": 5.040312500001164,
      "v": 53
    },
    {
      "midi": 59,
      "hit": false,
      "t": 36678.35406250031,
      "d": 5.040312500001164,
      "v": 55
    },
    {
      "midi": 57,
      "hit": false,
      "t": 36769.07968750031,
      "d": 5.040312500001164,
      "v": 79
    },
    {
      "midi": 98,
      "hit": false,
      "t": 36774.12000000031,
      "d": 10.080625000002328,
      "v": 78
    },
    {
      "midi": 82,
      "hit": false,
      "t": 36774.12000000031,
      "d": 10.080625000002328,
      "v": 102
    },
    {
      "midi": 42,
      "hit": false,
      "t": 36774.12000000031,
      "d": 45.3628125000032,
      "v": 95
    },
    {
      "midi": 55,
      "hit": false,
      "t": 36774.12000000031,
      "d": 50.403125000004366,
      "v": 58
    },
    {
      "midi": 60,
      "hit": false,
      "t": 36774.12000000031,
      "d": 60.483750000006694,
      "v": 53
    },
    {
      "midi": 35,
      "hit": false,
      "t": 36774.12000000031,
      "d": 105.8465625000099,
      "v": 87
    },
    {
      "midi": 36,
      "hit": false,
      "t": 36774.12000000031,
      "d": 307.4590625000201,
      "v": 105
    },
    {
      "midi": 52,
      "hit": false,
      "t": 36774.12000000031,
      "d": 866.9337500000547,
      "v": 104
    },
    {
      "midi": 48,
      "hit": false,
      "t": 36774.12000000031,
      "d": 866.9337500000547,
      "v": 104
    },
    {
      "midi": 71,
      "hit": false,
      "t": 36774.12000000031,
      "d": 967.7400000000634,
      "v": 47
    },
    {
      "midi": 59,
      "hit": false,
      "t": 36779.16031250031,
      "d": 40.32250000000204,
      "v": 54
    },
    {
      "midi": 64,
      "hit": false,
      "t": 36784.20062500031,
      "d": 65.52406250000786,
      "v": 54
    },
    {
      "midi": 98,
      "hit": false,
      "t": 36895.08750000032,
      "d": 5.040312500001164,
      "v": 41
    },
    {
      "midi": 82,
      "hit": false,
      "t": 36895.08750000032,
      "d": 5.040312500001164,
      "v": 51
    },
    {
      "midi": 55,
      "hit": false,
      "t": 36895.08750000032,
      "d": 10.080625000002328,
      "v": 56
    },
    {
      "midi": 59,
      "hit": false,
      "t": 36900.12781250032,
      "d": 10.080625000002328,
      "v": 54
    },
    {
      "midi": 64,
      "hit": false,
      "t": 36905.168125000324,
      "d": 70.56437500000175,
      "v": 56
    },
    {
      "midi": 54,
      "hit": false,
      "t": 36915.248750000326,
      "d": 40.32250000000204,
      "v": 34
    },
    {
      "midi": 82,
      "hit": false,
      "t": 37016.05500000033,
      "d": 10.080625000002328,
      "v": 60
    },
    {
      "midi": 42,
      "hit": false,
      "t": 37016.05500000033,
      "d": 40.32250000000204,
      "v": 82
    },
    {
      "midi": 54,
      "hit": false,
      "t": 37016.05500000033,
      "d": 70.56437500000175,
      "v": 94
    },
    {
      "midi": 67,
      "hit": false,
      "t": 37016.05500000033,
      "d": 216.7334375000064,
      "v": 104
    },
    {
      "midi": 55,
      "hit": false,
      "t": 37137.02250000033,
      "d": 5.040312500001164,
      "v": 22
    },
    {
      "midi": 60,
      "hit": false,
      "t": 37137.02250000033,
      "d": 5.040312500001164,
      "v": 35
    },
    {
      "midi": 36,
      "hit": false,
      "t": 37137.02250000033,
      "d": 90.7256250000064,
      "v": 102
    },
    {
      "midi": 98,
      "hit": false,
      "t": 37142.06281250033,
      "d": 10.080625000002328,
      "v": 45
    },
    {
      "midi": 82,
      "hit": false,
      "t": 37142.06281250033,
      "d": 10.080625000002328,
      "v": 58
    },
    {
      "midi": 59,
      "hit": false,
      "t": 37142.06281250033,
      "d": 45.3628125000032,
      "v": 29
    },
    {
      "midi": 64,
      "hit": false,
      "t": 37147.10312500033,
      "d": 50.403125000004366,
      "v": 26
    },
    {
      "midi": 54,
      "hit": false,
      "t": 37157.18375000033,
      "d": 40.32250000000204,
      "v": 40
    },
    {
      "midi": 98,
      "hit": false,
      "t": 37257.99000000033,
      "d": 10.080625000002328,
      "v": 84
    },
    {
      "midi": 82,
      "hit": false,
      "t": 37257.99000000033,
      "d": 10.080625000002328,
      "v": 108
    },
    {
      "midi": 55,
      "hit": false,
      "t": 37257.99000000033,
      "d": 25.20156250000582,
      "v": 67
    },
    {
      "midi": 42,
      "hit": false,
      "t": 37257.99000000033,
      "d": 65.52406250000786,
      "v": 98
    },
    {
      "midi": 40,
      "hit": false,
      "t": 37257.99000000033,
      "d": 70.56437500000902,
      "v": 94
    },
    {
      "midi": 60,
      "hit": false,
      "t": 37257.99000000033,
      "d": 70.56437500000902,
      "v": 61
    },
    {
      "midi": 67,
      "hit": false,
      "t": 37257.99000000033,
      "d": 216.73343750002095,
      "v": 104
    },
    {
      "midi": 31,
      "hit": false,
      "t": 37257.99000000033,
      "d": 297.37843750002503,
      "v": 105
    },
    {
      "midi": 59,
      "hit": false,
      "t": 37263.030312500334,
      "d": 10.080625000002328,
      "v": 49
    },
    {
      "midi": 64,
      "hit": false,
      "t": 37268.070625000335,
      "d": 10.080625000002328,
      "v": 54
    },
    {
      "midi": 98,
      "hit": false,
      "t": 37378.957500000346,
      "d": 5.040312500001164,
      "v": 35
    },
    {
      "midi": 82,
      "hit": false,
      "t": 37378.957500000346,
      "d": 5.040312500001164,
      "v": 43
    },
    {
      "midi": 54,
      "hit": false,
      "t": 37399.11875000035,
      "d": 40.32250000000204,
      "v": 39
    },
    {
      "midi": 55,
      "hit": false,
      "t": 37499.92500000035,
      "d": 5.040312500001164,
      "v": 22
    },
    {
      "midi": 82,
      "hit": false,
      "t": 37499.92500000035,
      "d": 10.080625000002328,
      "v": 66
    },
    {
      "midi": 42,
      "hit": false,
      "t": 37499.92500000035,
      "d": 40.32250000000204,
      "v": 82
    },
    {
      "midi": 54,
      "hit": false,
      "t": 37499.92500000035,
      "d": 85.68531250000524,
      "v": 47
    },
    {
      "midi": 67,
      "hit": false,
      "t": 37499.92500000035,
      "d": 216.73343750002095,
      "v": 104
    },
    {
      "midi": 59,
      "hit": false,
      "t": 37504.96531250035,
      "d": 55.44343750000553,
      "v": 22
    },
    {
      "midi": 64,
      "hit": false,
      "t": 37510.005625000354,
      "d": 50.403125000004366,
      "v": 22
    },
    {
      "midi": 55,
      "hit": false,
      "t": 37620.89250000036,
      "d": 65.52406250000786,
      "v": 65
    },
    {
      "midi": 60,
      "hit": false,
      "t": 37620.89250000036,
      "d": 80.64500000001135,
      "v": 66
    },
    {
      "midi": 31,
      "hit": false,
      "t": 37625.93281250036,
      "d": 5.040312500001164,
      "v": 35
    },
    {
      "midi": 98,
      "hit": false,
      "t": 37625.93281250036,
      "d": 10.080625000002328,
      "v": 49
    },
    {
      "midi": 82,
      "hit": false,
      "t": 37625.93281250036,
      "d": 10.080625000002328,
      "v": 64
    },
    {
      "midi": 59,
      "hit": false,
      "t": 37625.93281250036,
      "d": 65.52406250000786,
      "v": 67
    },
    {
      "midi": 64,
      "hit": false,
      "t": 37630.97312500036,
      "d": 80.64500000001135,
      "v": 55
    },
    {
      "midi": 54,
      "hit": false,
      "t": 37641.05375000036,
      "d": 40.32250000000204,
      "v": 39
    },
    {
      "midi": 98,
      "hit": false,
      "t": 37741.86000000037,
      "d": 10.080625000002328,
      "v": 78
    },
    {
      "midi": 82,
      "hit": false,
      "t": 37741.86000000037,
      "d": 10.080625000002328,
      "v": 102
    },
    {
      "midi": 55,
      "hit": false,
      "t": 37741.86000000037,
      "d": 10.080625000002328,
      "v": 54
    },
    {
      "midi": 42,
      "hit": false,
      "t": 37741.86000000037,
      "d": 60.483750000006694,
      "v": 98
    },
    {
      "midi": 35,
      "hit": false,
      "t": 37741.86000000037,
      "d": 90.7256250000064,
      "v": 86
    },
    {
      "midi": 67,
      "hit": false,
      "t": 37741.86000000037,
      "d": 216.73343750001368,
      "v": 47
    },
    {
      "midi": 37,
      "hit": false,
      "t": 37741.86000000037,
      "d": 282.25750000002154,
      "v": 102
    },
    {
      "midi": 52,
      "hit": false,
      "t": 37741.86000000037,
      "d": 866.9337500000547,
      "v": 104
    },
    {
      "midi": 49,
      "hit": false,
      "t": 37741.86000000037,
      "d": 866.9337500000547,
      "v": 104
    },
    {
      "midi": 70,
      "hit": false,
      "t": 37741.86000000037,
      "d": 967.7400000000562,
      "v": 47
    },
    {
      "midi": 58,
      "hit": false,
      "t": 37746.90031250037,
      "d": 10.080625000002328,
      "v": 41
    },
    {
      "midi": 64,
      "hit": false,
      "t": 37751.940625000374,
      "d": 10.080625000002328,
      "v": 49
    },
    {
      "midi": 98,
      "hit": false,
      "t": 37862.82750000038,
      "d": 5.040312500001164,
      "v": 41
    },
    {
      "midi": 82,
      "hit": false,
      "t": 37862.82750000038,
      "d": 5.040312500001164,
      "v": 51
    },
    {
      "midi": 58,
      "hit": false,
      "t": 37862.82750000038,
      "d": 50.403125000004366,
      "v": 22
    },
    {
      "midi": 64,
      "hit": false,
      "t": 37867.86781250038,
      "d": 55.44343750000553,
      "v": 22
    },
    {
      "midi": 54,
      "hit": false,
      "t": 37882.98875000038,
      "d": 40.32250000000204,
      "v": 34
    },
    {
      "midi": 82,
      "hit": false,
      "t": 37983.795000000384,
      "d": 10.080625000002328,
      "v": 60
    },
    {
      "midi": 55,
      "hit": false,
      "t": 37983.795000000384,
      "d": 10.080625000002328,
      "v": 55
    },
    {
      "midi": 42,
      "hit": false,
      "t": 37983.795000000384,
      "d": 40.32250000000931,
      "v": 73
    },
    {
      "midi": 61,
      "hit": false,
      "t": 37983.795000000384,
      "d": 70.56437500000902,
      "v": 61
    },
    {
      "midi": 58,
      "hit": false,
      "t": 37988.835312500385,
      "d": 10.080625000002328,
      "v": 55
    },
    {
      "midi": 64,
      "hit": false,
      "t": 37993.875625000386,
      "d": 25.20156250000582,
      "v": 55
    },
    {
      "midi": 54,
      "hit": false,
      "t": 38003.95625000039,
      "d": 70.56437500000902,
      "v": 93
    },
    {
      "midi": 37,
      "hit": false,
      "t": 38104.7625000004,
      "d": 90.7256250000064,
      "v": 97
    },
    {
      "midi": 98,
      "hit": false,
      "t": 38109.8028125004,
      "d": 10.080625000002328,
      "v": 45
    },
    {
      "midi": 82,
      "hit": false,
      "t": 38109.8028125004,
      "d": 10.080625000002328,
      "v": 58
    },
    {
      "midi": 54,
      "hit": false,
      "t": 38124.9237500004,
      "d": 40.32250000000204,
      "v": 31
    },
    {
      "midi": 98,
      "hit": false,
      "t": 38225.7300000004,
      "d": 10.080625000002328,
      "v": 84
    },
    {
      "midi": 82,
      "hit": false,
      "t": 38225.7300000004,
      "d": 10.080625000002328,
      "v": 108
    },
    {
      "midi": 61,
      "hit": false,
      "t": 38225.7300000004,
      "d": 45.3628125000032,
      "v": 51
    },
    {
      "midi": 55,
      "hit": false,
      "t": 38225.7300000004,
      "d": 50.403125000004366,
      "v": 54
    },
    {
      "midi": 42,
      "hit": false,
      "t": 38225.7300000004,
      "d": 65.52406250000786,
      "v": 98
    },
    {
      "midi": 40,
      "hit": false,
      "t": 38225.7300000004,
      "d": 65.52406250000786,
      "v": 91
    },
    {
      "midi": 28,
      "hit": false,
      "t": 38225.7300000004,
      "d": 216.73343750002095,
      "v": 102
    },
    {
      "midi": 67,
      "hit": false,
      "t": 38225.7300000004,
      "d": 216.73343750002095,
      "v": 104
    },
    {
      "midi": 58,
      "hit": false,
      "t": 38230.770312500405,
      "d": 45.3628125000032,
      "v": 49
    },
    {
      "midi": 64,
      "hit": false,
      "t": 38235.810625000406,
      "d": 70.56437500000902,
      "v": 56
    },
    {
      "midi": 39,
      "hit": false,
      "t": 38245.89125000041,
      "d": 70.56437500000902,
      "v": 76
    },
    {
      "midi": 98,
      "hit": false,
      "t": 38346.69750000042,
      "d": 5.040312500001164,
      "v": 35
    },
    {
      "midi": 82,
      "hit": false,
      "t": 38346.69750000042,
      "d": 5.040312500001164,
      "v": 43
    },
    {
      "midi": 55,
      "hit": false,
      "t": 38346.69750000042,
      "d": 45.3628125000032,
      "v": 23
    },
    {
      "midi": 61,
      "hit": false,
      "t": 38346.69750000042,
      "d": 45.3628125000032,
      "v": 42
    },
    {
      "midi": 58,
      "hit": false,
      "t": 38351.73781250042,
      "d": 50.403125000004366,
      "v": 47
    },
    {
      "midi": 64,
      "hit": false,
      "t": 38356.77812500042,
      "d": 45.3628125000032,
      "v": 38
    },
    {
      "midi": 54,
      "hit": false,
      "t": 38366.85875000042,
      "d": 40.32250000000204,
      "v": 39
    },
    {
      "midi": 82,
      "hit": false,
      "t": 38467.66500000042,
      "d": 10.080625000002328,
      "v": 66
    },
    {
      "midi": 42,
      "hit": false,
      "t": 38467.66500000042,
      "d": 60.48374999999942,
      "v": 82
    },
    {
      "midi": 54,
      "hit": false,
      "t": 38467.66500000042,
      "d": 85.68531249999796,
      "v": 50
    },
    {
      "midi": 31,
      "hit": false,
      "t": 38467.66500000042,
      "d": 141.1287500000035,
      "v": 97
    },
    {
      "midi": 55,
      "hit": false,
      "t": 38588.63250000042,
      "d": 10.080625000002328,
      "v": 51
    },
    {
      "midi": 58,
      "hit": false,
      "t": 38593.67281250042,
      "d": 5.040312500001164,
      "v": 49
    },
    {
      "midi": 98,
      "hit": false,
      "t": 38593.67281250042,
      "d": 10.080625000002328,
      "v": 49
    },
    {
      "midi": 82,
      "hit": false,
      "t": 38593.67281250042,
      "d": 10.080625000002328,
      "v": 64
    },
    {
      "midi": 64,
      "hit": false,
      "t": 38598.713125000424,
      "d": 10.080625000002328,
      "v": 54
    },
    {
      "midi": 54,
      "hit": false,
      "t": 38608.79375000043,
      "d": 40.32250000000204,
      "v": 40
    },
    {
      "midi": 98,
      "hit": false,
      "t": 38709.60000000043,
      "d": 10.080625000002328,
      "v": 78
    },
    {
      "midi": 82,
      "hit": false,
      "t": 38709.60000000043,
      "d": 10.080625000002328,
      "v": 102
    },
    {
      "midi": 42,
      "hit": false,
      "t": 38709.60000000043,
      "d": 45.3628125000032,
      "v": 95
    },
    {
      "midi": 57,
      "hit": false,
      "t": 38709.60000000043,
      "d": 50.403125000004366,
      "v": 58
    },
    {
      "midi": 35,
      "hit": false,
      "t": 38709.60000000043,
      "d": 105.8465625000099,
      "v": 87
    },
    {
      "midi": 38,
      "hit": false,
      "t": 38709.60000000043,
      "d": 307.4590625000201,
      "v": 105
    },
    {
      "midi": 50,
      "hit": false,
      "t": 38709.60000000043,
      "d": 650.200312500041,
      "v": 104
    },
    {
      "midi": 69,
      "hit": false,
      "t": 38709.60000000043,
      "d": 1708.6659375001182,
      "v": 47
    },
    {
      "midi": 74,
      "hit": false,
      "t": 38709.60000000043,
      "d": 1935.4800000001196,
      "v": 47
    },
    {
      "midi": 62,
      "hit": false,
      "t": 38714.64031250043,
      "d": 40.32250000000204,
      "v": 54
    },
    {
      "midi": 66,
      "hit": false,
      "t": 38719.68062500043,
      "d": 65.52406250000786,
      "v": 54
    },
    {
      "midi": 98,
      "hit": false,
      "t": 38830.56750000044,
      "d": 5.040312500001164,
      "v": 41
    },
    {
      "midi": 82,
      "hit": false,
      "t": 38830.56750000044,
      "d": 5.040312500001164,
      "v": 51
    },
    {
      "midi": 57,
      "hit": false,
      "t": 38830.56750000044,
      "d": 10.080625000002328,
      "v": 56
    },
    {
      "midi": 62,
      "hit": false,
      "t": 38835.60781250044,
      "d": 10.080625000002328,
      "v": 54
    },
    {
      "midi": 66,
      "hit": false,
      "t": 38840.64812500044,
      "d": 70.56437500000175,
      "v": 56
    },
    {
      "midi": 54,
      "hit": false,
      "t": 38850.728750000446,
      "d": 40.32250000000204,
      "v": 34
    },
    {
      "midi": 82,
      "hit": false,
      "t": 38951.53500000045,
      "d": 10.080625000002328,
      "v": 60
    },
    {
      "midi": 42,
      "hit": false,
      "t": 38951.53500000045,
      "d": 40.32250000000204,
      "v": 82
    },
    {
      "midi": 54,
      "hit": false,
      "t": 38951.53500000045,
      "d": 70.56437500000175,
      "v": 94
    },
    {
      "midi": 57,
      "hit": false,
      "t": 39072.502500000446,
      "d": 5.040312500001164,
      "v": 22
    },
    {
      "midi": 62,
      "hit": false,
      "t": 39072.502500000446,
      "d": 5.040312500001164,
      "v": 35
    },
    {
      "midi": 38,
      "hit": false,
      "t": 39072.502500000446,
      "d": 90.7256250000064,
      "v": 102
    },
    {
      "midi": 98,
      "hit": false,
      "t": 39077.54281250045,
      "d": 10.080625000002328,
      "v": 45
    },
    {
      "midi": 82,
      "hit": false,
      "t": 39077.54281250045,
      "d": 10.080625000002328,
      "v": 58
    },
    {
      "midi": 62,
      "hit": false,
      "t": 39077.54281250045,
      "d": 45.3628125000032,
      "v": 29
    },
    {
      "midi": 66,
      "hit": false,
      "t": 39082.58312500045,
      "d": 50.403125000004366,
      "v": 26
    },
    {
      "midi": 54,
      "hit": false,
      "t": 39092.66375000045,
      "d": 40.32250000000204,
      "v": 40
    },
    {
      "midi": 98,
      "hit": false,
      "t": 39193.47000000045,
      "d": 10.080625000002328,
      "v": 84
    },
    {
      "midi": 82,
      "hit": false,
      "t": 39193.47000000045,
      "d": 10.080625000002328,
      "v": 108
    },
    {
      "midi": 57,
      "hit": false,
      "t": 39193.47000000045,
      "d": 25.20156250000582,
      "v": 67
    },
    {
      "midi": 42,
      "hit": false,
      "t": 39193.47000000045,
      "d": 65.52406250000786,
      "v": 98
    },
    {
      "midi": 40,
      "hit": false,
      "t": 39193.47000000045,
      "d": 70.56437500000902,
      "v": 94
    },
    {
      "midi": 33,
      "hit": false,
      "t": 39193.47000000045,
      "d": 297.37843750002503,
      "v": 105
    },
    {
      "midi": 62,
      "hit": false,
      "t": 39198.51031250045,
      "d": 10.080625000002328,
      "v": 49
    },
    {
      "midi": 66,
      "hit": false,
      "t": 39203.550625000455,
      "d": 10.080625000002328,
      "v": 54
    },
    {
      "midi": 98,
      "hit": false,
      "t": 39314.437500000466,
      "d": 5.040312500001164,
      "v": 35
    },
    {
      "midi": 82,
      "hit": false,
      "t": 39314.437500000466,
      "d": 5.040312500001164,
      "v": 43
    },
    {
      "midi": 54,
      "hit": false,
      "t": 39334.59875000047,
      "d": 25.201562499998545,
      "v": 39
    },
    {
      "midi": 57,
      "hit": false,
      "t": 39435.40500000047,
      "d": 5.040312500001164,
      "v": 22
    },
    {
      "midi": 82,
      "hit": false,
      "t": 39435.40500000047,
      "d": 10.080625000002328,
      "v": 66
    },
    {
      "midi": 42,
      "hit": false,
      "t": 39435.40500000047,
      "d": 40.32250000000204,
      "v": 82
    },
    {
      "midi": 54,
      "hit": false,
      "t": 39435.40500000047,
      "d": 85.68531250000524,
      "v": 47
    },
    {
      "midi": 55,
      "hit": false,
      "t": 39435.40500000047,
      "d": 650.2003125000483,
      "v": 104
    },
    {
      "midi": 52,
      "hit": false,
      "t": 39435.40500000047,
      "d": 650.2003125000483,
      "v": 104
    },
    {
      "midi": 62,
      "hit": false,
      "t": 39440.44531250047,
      "d": 55.44343750000553,
      "v": 22
    },
    {
      "midi": 66,
      "hit": false,
      "t": 39445.485625000474,
      "d": 50.403125000004366,
      "v": 22
    },
    {
      "midi": 57,
      "hit": false,
      "t": 39556.37250000048,
      "d": 65.52406250000786,
      "v": 65
    },
    {
      "midi": 33,
      "hit": false,
      "t": 39556.37250000048,
      "d": 90.72562500001368,
      "v": 102
    },
    {
      "midi": 31,
      "hit": false,
      "t": 39561.41281250048,
      "d": 5.040312500001164,
      "v": 35
    },
    {
      "midi": 98,
      "hit": false,
      "t": 39561.41281250048,
      "d": 10.080625000002328,
      "v": 49
    },
    {
      "midi": 82,
      "hit": false,
      "t": 39561.41281250048,
      "d": 10.080625000002328,
      "v": 64
    },
    {
      "midi": 62,
      "hit": false,
      "t": 39561.41281250048,
      "d": 65.52406250000786,
      "v": 67
    },
    {
      "midi": 66,
      "hit": false,
      "t": 39566.45312500048,
      "d": 80.64500000001135,
      "v": 55
    },
    {
      "midi": 54,
      "hit": false,
      "t": 39576.53375000048,
      "d": 40.32250000000204,
      "v": 39
    },
    {
      "midi": 98,
      "hit": false,
      "t": 39677.34000000049,
      "d": 10.080625000002328,
      "v": 78
    },
    {
      "midi": 82,
      "hit": false,
      "t": 39677.34000000049,
      "d": 10.080625000002328,
      "v": 102
    },
    {
      "midi": 57,
      "hit": false,
      "t": 39677.34000000049,
      "d": 10.080625000002328,
      "v": 54
    },
    {
      "midi": 42,
      "hit": false,
      "t": 39677.34000000049,
      "d": 60.483750000006694,
      "v": 98
    },
    {
      "midi": 35,
      "hit": false,
      "t": 39677.34000000049,
      "d": 90.7256250000064,
      "v": 86
    },
    {
      "midi": 38,
      "hit": false,
      "t": 39677.34000000049,
      "d": 211.69312500001251,
      "v": 105
    },
    {
      "midi": 62,
      "hit": false,
      "t": 39682.38031250049,
      "d": 10.080625000002328,
      "v": 41
    },
    {
      "midi": 66,
      "hit": false,
      "t": 39687.42062500049,
      "d": 10.080625000002328,
      "v": 49
    },
    {
      "midi": 31,
      "hit": false,
      "t": 39798.3075000005,
      "d": 5.040312500001164,
      "v": 30
    },
    {
      "midi": 98,
      "hit": false,
      "t": 39798.3075000005,
      "d": 5.040312500001164,
      "v": 41
    },
    {
      "midi": 82,
      "hit": false,
      "t": 39798.3075000005,
      "d": 5.040312500001164,
      "v": 51
    },
    {
      "midi": 62,
      "hit": false,
      "t": 39798.3075000005,
      "d": 50.403125000004366,
      "v": 22
    },
    {
      "midi": 66,
      "hit": false,
      "t": 39803.3478125005,
      "d": 55.44343750000553,
      "v": 22
    },
    {
      "midi": 54,
      "hit": false,
      "t": 39818.4687500005,
      "d": 40.32250000000204,
      "v": 34
    },
    {
      "midi": 82,
      "hit": false,
      "t": 39919.2750000005,
      "d": 10.080625000002328,
      "v": 60
    },
    {
      "midi": 57,
      "hit": false,
      "t": 39919.2750000005,
      "d": 10.080625000002328,
      "v": 55
    },
    {
      "midi": 42,
      "hit": false,
      "t": 39919.2750000005,
      "d": 40.32250000000931,
      "v": 73
    },
    {
      "midi": 38,
      "hit": false,
      "t": 39919.2750000005,
      "d": 206.65281250001863,
      "v": 105
    },
    {
      "midi": 62,
      "hit": false,
      "t": 39924.315312500505,
      "d": 10.080625000002328,
      "v": 55
    },
    {
      "midi": 66,
      "hit": false,
      "t": 39929.355625000506,
      "d": 25.20156250000582,
      "v": 55
    },
    {
      "midi": 54,
      "hit": false,
      "t": 39939.43625000051,
      "d": 70.56437500000902,
      "v": 93
    },
    {
      "midi": 98,
      "hit": false,
      "t": 40045.28281250052,
      "d": 10.080625000002328,
      "v": 45
    },
    {
      "midi": 82,
      "hit": false,
      "t": 40045.28281250052,
      "d": 10.080625000002328,
      "v": 58
    },
    {
      "midi": 54,
      "hit": false,
      "t": 40060.40375000052,
      "d": 40.32250000000204,
      "v": 31
    },
    {
      "midi": 98,
      "hit": false,
      "t": 40161.21000000052,
      "d": 10.080625000002328,
      "v": 84
    },
    {
      "midi": 82,
      "hit": false,
      "t": 40161.21000000052,
      "d": 10.080625000002328,
      "v": 108
    },
    {
      "midi": 57,
      "hit": false,
      "t": 40161.21000000052,
      "d": 50.403125000004366,
      "v": 54
    },
    {
      "midi": 42,
      "hit": false,
      "t": 40161.21000000052,
      "d": 65.52406250000786,
      "v": 98
    },
    {
      "midi": 40,
      "hit": false,
      "t": 40161.21000000052,
      "d": 65.52406250000786,
      "v": 91
    },
    {
      "midi": 30,
      "hit": false,
      "t": 40161.21000000052,
      "d": 191.5318750000224,
      "v": 102
    },
    {
      "midi": 56,
      "hit": false,
      "t": 40161.21000000052,
      "d": 433.46687500002736,
      "v": 104
    },
    {
      "midi": 53,
      "hit": false,
      "t": 40161.21000000052,
      "d": 433.46687500002736,
      "v": 104
    },
    {
      "midi": 62,
      "hit": false,
      "t": 40166.250312500524,
      "d": 40.32250000000204,
      "v": 49
    },
    {
      "midi": 66,
      "hit": false,
      "t": 40171.290625000525,
      "d": 70.56437500000902,
      "v": 56
    },
    {
      "midi": 39,
      "hit": false,
      "t": 40181.37125000053,
      "d": 70.56437500000902,
      "v": 76
    },
    {
      "midi": 98,
      "hit": false,
      "t": 40282.17750000054,
      "d": 5.040312500001164,
      "v": 35
    },
    {
      "midi": 82,
      "hit": false,
      "t": 40282.17750000054,
      "d": 5.040312500001164,
      "v": 43
    },
    {
      "midi": 57,
      "hit": false,
      "t": 40282.17750000054,
      "d": 45.3628125000032,
      "v": 23
    },
    {
      "midi": 62,
      "hit": false,
      "t": 40287.21781250054,
      "d": 40.32250000000204,
      "v": 47
    },
    {
      "midi": 66,
      "hit": false,
      "t": 40292.25812500054,
      "d": 45.3628125000032,
      "v": 38
    },
    {
      "midi": 54,
      "hit": false,
      "t": 40302.33875000054,
      "d": 40.32250000000204,
      "v": 39
    },
    {
      "midi": 82,
      "hit": false,
      "t": 40403.14500000054,
      "d": 10.080625000002328,
      "v": 66
    },
    {
      "midi": 42,
      "hit": false,
      "t": 40403.14500000054,
      "d": 60.483750000006694,
      "v": 82
    },
    {
      "midi": 54,
      "hit": false,
      "t": 40403.14500000054,
      "d": 85.68531250000524,
      "v": 50
    },
    {
      "midi": 33,
      "hit": false,
      "t": 40403.14500000054,
      "d": 161.29000000000815,
      "v": 105
    },
    {
      "midi": 57,
      "hit": false,
      "t": 40524.11250000055,
      "d": 10.080625000002328,
      "v": 51
    },
    {
      "midi": 62,
      "hit": false,
      "t": 40529.15281250055,
      "d": 5.040312500001164,
      "v": 49
    },
    {
      "midi": 98,
      "hit": false,
      "t": 40529.15281250055,
      "d": 10.080625000002328,
      "v": 49
    },
    {
      "midi": 82,
      "hit": false,
      "t": 40529.15281250055,
      "d": 10.080625000002328,
      "v": 64
    },
    {
      "midi": 66,
      "hit": false,
      "t": 40534.19312500055,
      "d": 10.080625000002328,
      "v": 54
    },
    {
      "midi": 54,
      "hit": false,
      "t": 40544.27375000055,
      "d": 40.32249999999476,
      "v": 40
    },
    {
      "midi": 98,
      "hit": false,
      "t": 40645.08000000055,
      "d": 10.080625000002328,
      "v": 78
    },
    {
      "midi": 82,
      "hit": false,
      "t": 40645.08000000055,
      "d": 10.080625000002328,
      "v": 102
    },
    {
      "midi": 42,
      "hit": false,
      "t": 40645.08000000055,
      "d": 45.3628125000032,
      "v": 95
    },
    {
      "midi": 35,
      "hit": false,
      "t": 40645.08000000055,
      "d": 105.84656250000262,
      "v": 87
    },
    {
      "midi": 50,
      "hit": false,
      "t": 40645.08000000055,
      "d": 433.46687500002736,
      "v": 104
    },
    {
      "midi": 74,
      "hit": false,
      "t": 40645.08000000055,
      "d": 1446.5696875001086,
      "v": 47
    },
    {
      "midi": 38,
      "hit": false,
      "t": 40650.12031250055,
      "d": 498.99093750002794,
      "v": 102
    },
    {
      "midi": 98,
      "hit": false,
      "t": 40766.04750000055,
      "d": 5.040312500001164,
      "v": 41
    },
    {
      "midi": 82,
      "hit": false,
      "t": 40766.04750000055,
      "d": 5.040312500001164,
      "v": 51
    },
    {
      "midi": 57,
      "hit": false,
      "t": 40766.04750000055,
      "d": 15.120937500003492,
      "v": 85
    },
    {
      "midi": 66,
      "hit": false,
      "t": 40766.04750000055,
      "d": 15.120937500003492,
      "v": 68
    },
    {
      "midi": 62,
      "hit": false,
      "t": 40781.16843750056,
      "d": 15.120937500003492,
      "v": 93
    },
    {
      "midi": 54,
      "hit": false,
      "t": 40786.20875000056,
      "d": 40.32250000000204,
      "v": 34
    },
    {
      "midi": 82,
      "hit": false,
      "t": 40887.01500000056,
      "d": 10.080625000002328,
      "v": 60
    },
    {
      "midi": 42,
      "hit": false,
      "t": 40887.01500000056,
      "d": 40.32250000000204,
      "v": 82
    },
    {
      "midi": 54,
      "hit": false,
      "t": 40887.01500000056,
      "d": 70.56437500000175,
      "v": 94
    },
    {
      "midi": 57,
      "hit": false,
      "t": 40887.01500000056,
      "d": 75.60468750000291,
      "v": 68
    },
    {
      "midi": 66,
      "hit": false,
      "t": 40887.01500000056,
      "d": 75.60468750000291,
      "v": 75
    },
    {
      "midi": 62,
      "hit": false,
      "t": 40902.13593750056,
      "d": 75.60468750000291,
      "v": 90
    },
    {
      "midi": 57,
      "hit": false,
      "t": 41007.982500000566,
      "d": 15.120937500003492,
      "v": 96
    },
    {
      "midi": 66,
      "hit": false,
      "t": 41007.982500000566,
      "d": 15.120937500003492,
      "v": 78
    },
    {
      "midi": 98,
      "hit": false,
      "t": 41013.02281250057,
      "d": 10.080625000002328,
      "v": 45
    },
    {
      "midi": 82,
      "hit": false,
      "t": 41013.02281250057,
      "d": 10.080625000002328,
      "v": 58
    },
    {
      "midi": 62,
      "hit": false,
      "t": 41023.10343750057,
      "d": 15.120937500003492,
      "v": 80
    },
    {
      "midi": 54,
      "hit": false,
      "t": 41028.14375000057,
      "d": 40.32250000000204,
      "v": 40
    },
    {
      "midi": 98,
      "hit": false,
      "t": 41128.95000000057,
      "d": 10.080625000002328,
      "v": 84
    },
    {
      "midi": 82,
      "hit": false,
      "t": 41128.95000000057,
      "d": 10.080625000002328,
      "v": 108
    },
    {
      "midi": 57,
      "hit": false,
      "t": 41128.95000000057,
      "d": 15.120937500003492,
      "v": 92
    },
    {
      "midi": 66,
      "hit": false,
      "t": 41128.95000000057,
      "d": 15.120937500003492,
      "v": 88
    },
    {
      "midi": 42,
      "hit": false,
      "t": 41128.95000000057,
      "d": 65.52406250000786,
      "v": 98
    },
    {
      "midi": 40,
      "hit": false,
      "t": 41128.95000000057,
      "d": 70.56437500000902,
      "v": 94
    },
    {
      "midi": 71,
      "hit": false,
      "t": 41128.95000000057,
      "d": 433.4668750000419,
      "v": 104
    },
    {
      "midi": 62,
      "hit": false,
      "t": 41144.070937500575,
      "d": 15.120937500003492,
      "v": 86
    },
    {
      "midi": 98,
      "hit": false,
      "t": 41249.91750000058,
      "d": 5.040312500001164,
      "v": 35
    },
    {
      "midi": 82,
      "hit": false,
      "t": 41249.91750000058,
      "d": 5.040312500001164,
      "v": 43
    },
    {
      "midi": 57,
      "hit": false,
      "t": 41249.91750000058,
      "d": 75.60468750001019,
      "v": 68
    },
    {
      "midi": 66,
      "hit": false,
      "t": 41249.91750000058,
      "d": 75.60468750001019,
      "v": 89
    },
    {
      "midi": 62,
      "hit": false,
      "t": 41265.03843750058,
      "d": 75.60468750001019,
      "v": 68
    },
    {
      "midi": 54,
      "hit": false,
      "t": 41270.07875000058,
      "d": 40.32250000000204,
      "v": 39
    },
    {
      "midi": 82,
      "hit": false,
      "t": 41370.88500000059,
      "d": 10.080625000002328,
      "v": 66
    },
    {
      "midi": 57,
      "hit": false,
      "t": 41370.88500000059,
      "d": 15.120937500003492,
      "v": 97
    },
    {
      "midi": 66,
      "hit": false,
      "t": 41370.88500000059,
      "d": 15.120937500003492,
      "v": 79
    },
    {
      "midi": 42,
      "hit": false,
      "t": 41370.88500000059,
      "d": 40.32250000000931,
      "v": 82
    },
    {
      "midi": 54,
      "hit": false,
      "t": 41370.88500000059,
      "d": 85.68531250001251,
      "v": 47
    },
    {
      "midi": 38,
      "hit": false,
      "t": 41375.92531250059,
      "d": 136.08843750001688,
      "v": 89
    },
    {
      "midi": 62,
      "hit": false,
      "t": 41386.005937500595,
      "d": 15.120937500003492,
      "v": 78
    },
    {
      "midi": 57,
      "hit": false,
      "t": 41491.852500000605,
      "d": 15.120937500003492,
      "v": 91
    },
    {
      "midi": 66,
      "hit": false,
      "t": 41491.852500000605,
      "d": 15.120937500003492,
      "v": 84
    },
    {
      "midi": 29,
      "hit": false,
      "t": 41491.852500000605,
      "d": 95.76593750000757,
      "v": 45
    },
    {
      "midi": 98,
      "hit": false,
      "t": 41496.892812500606,
      "d": 10.080625000002328,
      "v": 49
    },
    {
      "midi": 82,
      "hit": false,
      "t": 41496.892812500606,
      "d": 10.080625000002328,
      "v": 64
    },
    {
      "midi": 62,
      "hit": false,
      "t": 41506.97343750061,
      "d": 15.120937500003492,
      "v": 98
    },
    {
      "midi": 54,
      "hit": false,
      "t": 41512.01375000061,
      "d": 40.32250000000204,
      "v": 39
    },
    {
      "midi": 98,
      "hit": false,
      "t": 41612.82000000061,
      "d": 10.080625000002328,
      "v": 78
    },
    {
      "midi": 82,
      "hit": false,
      "t": 41612.82000000061,
      "d": 10.080625000002328,
      "v": 102
    },
    {
      "midi": 42,
      "hit": false,
      "t": 41612.82000000061,
      "d": 60.483750000006694,
      "v": 98
    },
    {
      "midi": 35,
      "hit": false,
      "t": 41612.82000000061,
      "d": 90.7256250000064,
      "v": 86
    },
    {
      "midi": 66,
      "hit": false,
      "t": 41612.82000000061,
      "d": 95.76593750000757,
      "v": 70
    },
    {
      "midi": 69,
      "hit": false,
      "t": 41612.82000000061,
      "d": 433.4668750000419,
      "v": 104
    },
    {
      "midi": 38,
      "hit": false,
      "t": 41617.86031250061,
      "d": 55.44343750000553,
      "v": 93
    },
    {
      "midi": 62,
      "hit": false,
      "t": 41622.90062500061,
      "d": 95.76593750000757,
      "v": 95
    },
    {
      "midi": 57,
      "hit": false,
      "t": 41627.940937500614,
      "d": 95.76593750000757,
      "v": 78
    },
    {
      "midi": 98,
      "hit": false,
      "t": 41733.787500000624,
      "d": 5.040312500001164,
      "v": 41
    },
    {
      "midi": 82,
      "hit": false,
      "t": 41733.787500000624,
      "d": 5.040312500001164,
      "v": 51
    },
    {
      "midi": 66,
      "hit": false,
      "t": 41733.787500000624,
      "d": 95.76593750000757,
      "v": 95
    },
    {
      "midi": 31,
      "hit": false,
      "t": 41738.827812500625,
      "d": 5.040312500001164,
      "v": 42
    },
    {
      "midi": 62,
      "hit": false,
      "t": 41743.86812500063,
      "d": 95.76593750000757,
      "v": 75
    },
    {
      "midi": 57,
      "hit": false,
      "t": 41748.90843750063,
      "d": 95.76593750000757,
      "v": 86
    },
    {
      "midi": 54,
      "hit": false,
      "t": 41753.94875000063,
      "d": 40.32250000000204,
      "v": 34
    },
    {
      "midi": 82,
      "hit": false,
      "t": 41854.75500000064,
      "d": 10.080625000002328,
      "v": 60
    },
    {
      "midi": 42,
      "hit": false,
      "t": 41854.75500000064,
      "d": 40.32250000000204,
      "v": 73
    },
    {
      "midi": 66,
      "hit": false,
      "t": 41854.75500000064,
      "d": 95.76593750000029,
      "v": 90
    },
    {
      "midi": 38,
      "hit": false,
      "t": 41854.75500000064,
      "d": 297.37843750002503,
      "v": 101
    },
    {
      "midi": 62,
      "hit": false,
      "t": 41864.83562500064,
      "d": 95.76593750000029,
      "v": 89
    },
    {
      "midi": 57,
      "hit": false,
      "t": 41869.87593750064,
      "d": 95.76593750000029,
      "v": 87
    },
    {
      "midi": 54,
      "hit": false,
      "t": 41874.91625000064,
      "d": 70.56437499999447,
      "v": 93
    },
    {
      "midi": 31,
      "hit": false,
      "t": 41975.722500000644,
      "d": 5.040312500001164,
      "v": 34
    },
    {
      "midi": 66,
      "hit": false,
      "t": 41975.722500000644,
      "d": 95.76593750000757,
      "v": 71
    },
    {
      "midi": 98,
      "hit": false,
      "t": 41980.762812500645,
      "d": 10.080625000002328,
      "v": 45
    },
    {
      "midi": 82,
      "hit": false,
      "t": 41980.762812500645,
      "d": 10.080625000002328,
      "v": 58
    },
    {
      "midi": 62,
      "hit": false,
      "t": 41985.803125000646,
      "d": 95.76593750000757,
      "v": 91
    },
    {
      "midi": 57,
      "hit": false,
      "t": 41990.84343750065,
      "d": 95.76593750000757,
      "v": 98
    },
    {
      "midi": 54,
      "hit": false,
      "t": 41995.88375000065,
      "d": 40.32250000000204,
      "v": 31
    },
    {
      "midi": 98,
      "hit": false,
      "t": 42096.69000000066,
      "d": 10.080625000002328,
      "v": 84
    },
    {
      "midi": 82,
      "hit": false,
      "t": 42096.69000000066,
      "d": 10.080625000002328,
      "v": 108
    },
    {
      "midi": 40,
      "hit": false,
      "t": 42096.69000000066,
      "d": 65.52406250000786,
      "v": 91
    },
    {
      "midi": 57,
      "hit": false,
      "t": 42096.69000000066,
      "d": 100.80625000000873,
      "v": 57
    },
    {
      "midi": 66,
      "hit": false,
      "t": 42096.69000000066,
      "d": 100.80625000000873,
      "v": 78
    },
    {
      "midi": 62,
      "hit": false,
      "t": 42096.69000000066,
      "d": 100.80625000000873,
      "v": 78
    },
    {
      "midi": 67,
      "hit": false,
      "t": 42096.69000000066,
      "d": 433.46687500002736,
      "v": 104
    },
    {
      "midi": 39,
      "hit": false,
      "t": 42116.85125000066,
      "d": 70.56437500000175,
      "v": 76
    },
    {
      "midi": 40,
      "hit": false,
      "t": 42217.65750000066,
      "d": 5.040312500001164,
      "v": 68
    },
    {
      "midi": 98,
      "hit": false,
      "t": 42217.65750000066,
      "d": 5.040312500001164,
      "v": 35
    },
    {
      "midi": 82,
      "hit": false,
      "t": 42217.65750000066,
      "d": 5.040312500001164,
      "v": 43
    },
    {
      "midi": 38,
      "hit": false,
      "t": 42217.65750000066,
      "d": 5.040312500001164,
      "v": 93
    },
    {
      "midi": 57,
      "hit": false,
      "t": 42217.65750000066,
      "d": 15.120937500003492,
      "v": 95
    },
    {
      "midi": 66,
      "hit": false,
      "t": 42217.65750000066,
      "d": 15.120937500003492,
      "v": 80
    },
    {
      "midi": 62,
      "hit": false,
      "t": 42232.77843750067,
      "d": 15.120937500003492,
      "v": 85
    },
    {
      "midi": 54,
      "hit": false,
      "t": 42237.81875000067,
      "d": 40.32250000000204,
      "v": 39
    },
    {
      "midi": 45,
      "hit": false,
      "t": 42338.62500000067,
      "d": 5.040312500001164,
      "v": 77
    },
    {
      "midi": 82,
      "hit": false,
      "t": 42338.62500000067,
      "d": 10.080625000002328,
      "v": 66
    },
    {
      "midi": 57,
      "hit": false,
      "t": 42338.62500000067,
      "d": 15.120937500003492,
      "v": 72
    },
    {
      "midi": 66,
      "hit": false,
      "t": 42338.62500000067,
      "d": 15.120937500003492,
      "v": 83
    },
    {
      "midi": 54,
      "hit": false,
      "t": 42338.62500000067,
      "d": 85.68531250000524,
      "v": 50
    },
    {
      "midi": 38,
      "hit": false,
      "t": 42343.66531250067,
      "d": 226.814062500016,
      "v": 93
    },
    {
      "midi": 62,
      "hit": false,
      "t": 42353.74593750067,
      "d": 15.120937500003492,
      "v": 82
    },
    {
      "midi": 57,
      "hit": false,
      "t": 42459.592500000675,
      "d": 15.120937500003492,
      "v": 102
    },
    {
      "midi": 66,
      "hit": false,
      "t": 42459.592500000675,
      "d": 15.120937500003492,
      "v": 107
    },
    {
      "midi": 98,
      "hit": false,
      "t": 42464.63281250068,
      "d": 10.080625000002328,
      "v": 49
    },
    {
      "midi": 82,
      "hit": false,
      "t": 42464.63281250068,
      "d": 10.080625000002328,
      "v": 64
    },
    {
      "midi": 62,
      "hit": false,
      "t": 42474.71343750068,
      "d": 15.120937500003492,
      "v": 79
    },
    {
      "midi": 54,
      "hit": false,
      "t": 42479.75375000068,
      "d": 40.32250000000204,
      "v": 40
    },
    {
      "midi": 49,
      "hit": false,
      "t": 42575.51968750069,
      "d": 5.040312500001164,
      "v": 79
    },
    {
      "midi": 44,
      "hit": false,
      "t": 42580.56000000069,
      "d": 5.040312500001164,
      "v": 64
    },
    {
      "midi": 60,
      "hit": false,
      "t": 42580.56000000069,
      "d": 5.040312500001164,
      "v": 85
    },
    {
      "midi": 35,
      "hit": false,
      "t": 42580.56000000069,
      "d": 105.84656250000262,
      "v": 87
    },
    {
      "midi": 36,
      "hit": false,
      "t": 42580.56000000069,
      "d": 176.41093750001892,
      "v": 101
    },
    {
      "midi": 71,
      "hit": false,
      "t": 42580.56000000069,
      "d": 211.6931250000198,
      "v": 104
    },
    {
      "midi": 67,
      "hit": false,
      "t": 42580.56000000069,
      "d": 211.6931250000198,
      "v": 104
    },
    {
      "midi": 48,
      "hit": false,
      "t": 42580.56000000069,
      "d": 433.46687500003463,
      "v": 104
    },
    {
      "midi": 55,
      "hit": false,
      "t": 42701.527500000695,
      "d": 30.241875000006985,
      "v": 56
    },
    {
      "midi": 60,
      "hit": false,
      "t": 42711.6081250007,
      "d": 25.20156250000582,
      "v": 50
    },
    {
      "midi": 64,
      "hit": false,
      "t": 42721.6887500007,
      "d": 30.241875000006985,
      "v": 33
    },
    {
      "midi": 46,
      "hit": false,
      "t": 42817.45468750071,
      "d": 5.040312500001164,
      "v": 69
    },
    {
      "midi": 62,
      "hit": false,
      "t": 42822.49500000071,
      "d": 5.040312500001164,
      "v": 91
    },
    {
      "midi": 60,
      "hit": false,
      "t": 42822.49500000071,
      "d": 5.040312500001164,
      "v": 94
    },
    {
      "midi": 72,
      "hit": false,
      "t": 42822.49500000071,
      "d": 105.84656250000262,
      "v": 104
    },
    {
      "midi": 55,
      "hit": false,
      "t": 42943.462500000714,
      "d": 20.161250000004657,
      "v": 96
    },
    {
      "midi": 71,
      "hit": false,
      "t": 42943.462500000714,
      "d": 105.8465625000099,
      "v": 104
    },
    {
      "midi": 60,
      "hit": false,
      "t": 42953.54312500072,
      "d": 20.161250000004657,
      "v": 89
    },
    {
      "midi": 64,
      "hit": false,
      "t": 42963.62375000072,
      "d": 15.120937500003492,
      "v": 84
    },
    {
      "midi": 44,
      "hit": false,
      "t": 43059.38968750073,
      "d": 5.040312500001164,
      "v": 71
    },
    {
      "midi": 40,
      "hit": false,
      "t": 43064.43000000073,
      "d": 70.56437500000175,
      "v": 94
    },
    {
      "midi": 60,
      "hit": false,
      "t": 43064.43000000073,
      "d": 85.68531250000524,
      "v": 100
    },
    {
      "midi": 35,
      "hit": false,
      "t": 43064.43000000073,
      "d": 105.84656250000262,
      "v": 87
    },
    {
      "midi": 36,
      "hit": false,
      "t": 43064.43000000073,
      "d": 166.3303125000093,
      "v": 99
    },
    {
      "midi": 60,
      "hit": false,
      "t": 43185.397500000734,
      "d": 10.080625000002328,
      "v": 100
    },
    {
      "midi": 67,
      "hit": false,
      "t": 43185.397500000734,
      "d": 105.84656250000262,
      "v": 104
    },
    {
      "midi": 46,
      "hit": false,
      "t": 43306.36500000074,
      "d": 5.040312500001164,
      "v": 61
    },
    {
      "midi": 63,
      "hit": false,
      "t": 43306.36500000074,
      "d": 5.040312500001164,
      "v": 47
    },
    {
      "midi": 63,
      "hit": false,
      "t": 43427.332500000746,
      "d": 5.040312500001164,
      "v": 85
    },
    {
      "midi": 60,
      "hit": false,
      "t": 43427.332500000746,
      "d": 5.040312500001164,
      "v": 95
    },
    {
      "midi": 55,
      "hit": false,
      "t": 43427.332500000746,
      "d": 15.120937500003492,
      "v": 36
    },
    {
      "midi": 31,
      "hit": false,
      "t": 43432.37281250075,
      "d": 5.040312500001164,
      "v": 42
    },
    {
      "midi": 60,
      "hit": false,
      "t": 43437.41312500075,
      "d": 15.120937500003492,
      "v": 46
    },
    {
      "midi": 64,
      "hit": false,
      "t": 43447.49375000075,
      "d": 15.120937500003492,
      "v": 30
    },
    {
      "midi": 44,
      "hit": false,
      "t": 43548.30000000075,
      "d": 5.040312500001164,
      "v": 64
    },
    {
      "midi": 60,
      "hit": false,
      "t": 43548.30000000075,
      "d": 5.040312500001164,
      "v": 92
    },
    {
      "midi": 35,
      "hit": false,
      "t": 43548.30000000075,
      "d": 90.7256250000064,
      "v": 86
    },
    {
      "midi": 55,
      "hit": false,
      "t": 43548.30000000075,
      "d": 95.76593750000757,
      "v": 13
    },
    {
      "midi": 36,
      "hit": false,
      "t": 43548.30000000075,
      "d": 115.92718750000495,
      "v": 94
    },
    {
      "midi": 48,
      "hit": false,
      "t": 43548.30000000075,
      "d": 433.4668750000128,
      "v": 104
    },
    {
      "midi": 31,
      "hit": false,
      "t": 43669.26750000076,
      "d": 5.040312500001164,
      "v": 39
    },
    {
      "midi": 60,
      "hit": false,
      "t": 43669.26750000076,
      "d": 5.040312500001164,
      "v": 94
    },
    {
      "midi": 55,
      "hit": false,
      "t": 43669.26750000076,
      "d": 20.161250000004657,
      "v": 80
    },
    {
      "midi": 60,
      "hit": false,
      "t": 43679.34812500076,
      "d": 20.161250000004657,
      "v": 68
    },
    {
      "midi": 64,
      "hit": false,
      "t": 43689.42875000076,
      "d": 20.161250000004657,
      "v": 75
    },
    {
      "midi": 46,
      "hit": false,
      "t": 43790.235000000765,
      "d": 5.040312500001164,
      "v": 70
    },
    {
      "midi": 62,
      "hit": false,
      "t": 43790.235000000765,
      "d": 5.040312500001164,
      "v": 85
    },
    {
      "midi": 60,
      "hit": false,
      "t": 43790.235000000765,
      "d": 5.040312500001164,
      "v": 94
    },
    {
      "midi": 36,
      "hit": false,
      "t": 43790.235000000765,
      "d": 156.2496874999997,
      "v": 102
    },
    {
      "midi": 40,
      "hit": false,
      "t": 44032.17000000076,
      "d": 65.52406250000786,
      "v": 91
    },
    {
      "midi": 35,
      "hit": false,
      "t": 44032.17000000076,
      "d": 90.7256250000064,
      "v": 86
    },
    {
      "midi": 55,
      "hit": false,
      "t": 44032.17000000076,
      "d": 181.4512500000128,
      "v": 96
    },
    {
      "midi": 44,
      "hit": false,
      "t": 44037.21031250076,
      "d": 5.040312500001164,
      "v": 71
    },
    {
      "midi": 60,
      "hit": false,
      "t": 44042.250625000765,
      "d": 90.7256250000064,
      "v": 82
    },
    {
      "midi": 62,
      "hit": false,
      "t": 44153.13750000077,
      "d": 5.040312500001164,
      "v": 62
    },
    {
      "midi": 60,
      "hit": false,
      "t": 44153.13750000077,
      "d": 5.040312500001164,
      "v": 47
    },
    {
      "midi": 64,
      "hit": false,
      "t": 44163.21812500077,
      "d": 25.20156250000582,
      "v": 52
    },
    {
      "midi": 46,
      "hit": false,
      "t": 44274.105000000774,
      "d": 5.040312500001164,
      "v": 70
    },
    {
      "midi": 63,
      "hit": false,
      "t": 44274.105000000774,
      "d": 5.040312500001164,
      "v": 53
    },
    {
      "midi": 64,
      "hit": false,
      "t": 44395.07250000077,
      "d": 5.040312500001164,
      "v": 74
    },
    {
      "midi": 36,
      "hit": false,
      "t": 44395.07250000077,
      "d": 5.040312500001164,
      "v": 72
    },
    {
      "midi": 60,
      "hit": false,
      "t": 44395.07250000077,
      "d": 5.040312500001164,
      "v": 88
    },
    {
      "midi": 44,
      "hit": false,
      "t": 44516.04000000077,
      "d": 5.040312500001164,
      "v": 71
    },
    {
      "midi": 35,
      "hit": false,
      "t": 44516.04000000077,
      "d": 90.7256250000064,
      "v": 79
    },
    {
      "midi": 38,
      "hit": false,
      "t": 44516.04000000077,
      "d": 171.37062500001775,
      "v": 96
    },
    {
      "midi": 71,
      "hit": false,
      "t": 44516.04000000077,
      "d": 211.6931250000198,
      "v": 104
    },
    {
      "midi": 50,
      "hit": false,
      "t": 44516.04000000077,
      "d": 433.46687500003463,
      "v": 104
    },
    {
      "midi": 62,
      "hit": false,
      "t": 44637.00750000078,
      "d": 10.080625000002328,
      "v": 90
    },
    {
      "midi": 57,
      "hit": false,
      "t": 44637.00750000078,
      "d": 30.241875000006985,
      "v": 56
    },
    {
      "midi": 62,
      "hit": false,
      "t": 44647.08812500078,
      "d": 25.20156250000582,
      "v": 50
    },
    {
      "midi": 67,
      "hit": false,
      "t": 44657.16875000078,
      "d": 30.241875000006985,
      "v": 33
    },
    {
      "midi": 46,
      "hit": false,
      "t": 44752.93468750079,
      "d": 5.040312500001164,
      "v": 74
    },
    {
      "midi": 62,
      "hit": false,
      "t": 44757.97500000079,
      "d": 5.040312500001164,
      "v": 85
    },
    {
      "midi": 72,
      "hit": false,
      "t": 44757.97500000079,
      "d": 105.84656250000262,
      "v": 104
    },
    {
      "midi": 62,
      "hit": false,
      "t": 44768.055625000794,
      "d": 95.76593750000029,
      "v": 57
    },
    {
      "midi": 62,
      "hit": false,
      "t": 44878.9425000008,
      "d": 10.080625000002328,
      "v": 92
    },
    {
      "midi": 57,
      "hit": false,
      "t": 44878.9425000008,
      "d": 20.161250000004657,
      "v": 96
    },
    {
      "midi": 71,
      "hit": false,
      "t": 44878.9425000008,
      "d": 105.8465625000099,
      "v": 104
    },
    {
      "midi": 62,
      "hit": false,
      "t": 44889.0231250008,
      "d": 20.161250000004657,
      "v": 89
    },
    {
      "midi": 67,
      "hit": false,
      "t": 44899.1037500008,
      "d": 15.120937500003492,
      "v": 84
    },
    {
      "midi": 44,
      "hit": false,
      "t": 44999.91000000081,
      "d": 5.040312500001164,
      "v": 61
    },
    {
      "midi": 40,
      "hit": false,
      "t": 44999.91000000081,
      "d": 65.52406250000058,
      "v": 91
    },
    {
      "midi": 35,
      "hit": false,
      "t": 44999.91000000081,
      "d": 90.72562499999913,
      "v": 79
    },
    {
      "midi": 38,
      "hit": false,
      "t": 44999.91000000081,
      "d": 176.41093750000437,
      "v": 96
    },
    {
      "midi": 62,
      "hit": false,
      "t": 45120.87750000081,
      "d": 10.080625000002328,
      "v": 91
    },
    {
      "midi": 67,
      "hit": false,
      "t": 45120.87750000081,
      "d": 105.84656250000262,
      "v": 104
    },
    {
      "midi": 46,
      "hit": false,
      "t": 45236.804687500815,
      "d": 5.040312500001164,
      "v": 67
    },
    {
      "midi": 63,
      "hit": false,
      "t": 45241.845000000816,
      "d": 5.040312500001164,
      "v": 37
    },
    {
      "midi": 57,
      "hit": false,
      "t": 45241.845000000816,
      "d": 191.53187500001513,
      "v": 90
    },
    {
      "midi": 62,
      "hit": false,
      "t": 45251.92562500082,
      "d": 5.040312500001164,
      "v": 81
    },
    {
      "midi": 63,
      "hit": false,
      "t": 45362.81250000082,
      "d": 5.040312500001164,
      "v": 80
    },
    {
      "midi": 62,
      "hit": false,
      "t": 45362.81250000082,
      "d": 5.040312500001164,
      "v": 30
    },
    {
      "midi": 38,
      "hit": false,
      "t": 45362.81250000082,
      "d": 15.120937500003492,
      "v": 86
    },
    {
      "midi": 64,
      "hit": false,
      "t": 45362.81250000082,
      "d": 539.3134375000373,
      "v": 104
    },
    {
      "midi": 31,
      "hit": false,
      "t": 45367.85281250082,
      "d": 5.040312500001164,
      "v": 39
    },
    {
      "midi": 67,
      "hit": false,
      "t": 45372.893125000825,
      "d": 30.241875000006985,
      "v": 30
    },
    {
      "midi": 44,
      "hit": false,
      "t": 45483.780000000836,
      "d": 5.040312500001164,
      "v": 71
    },
    {
      "midi": 35,
      "hit": false,
      "t": 45483.780000000836,
      "d": 90.72562499999913,
      "v": 86
    },
    {
      "midi": 38,
      "hit": false,
      "t": 45483.780000000836,
      "d": 95.76593750000029,
      "v": 94
    },
    {
      "midi": 50,
      "hit": false,
      "t": 45483.780000000836,
      "d": 433.46687500002736,
      "v": 104
    },
    {
      "midi": 62,
      "hit": false,
      "t": 45604.747500000834,
      "d": 10.080625000002328,
      "v": 95
    },
    {
      "midi": 57,
      "hit": false,
      "t": 45604.747500000834,
      "d": 20.161250000004657,
      "v": 91
    },
    {
      "midi": 62,
      "hit": false,
      "t": 45614.82812500084,
      "d": 25.20156250000582,
      "v": 82
    },
    {
      "midi": 67,
      "hit": false,
      "t": 45624.90875000084,
      "d": 50.403125000004366,
      "v": 86
    },
    {
      "midi": 46,
      "hit": false,
      "t": 45720.67468750085,
      "d": 5.040312500001164,
      "v": 64
    },
    {
      "midi": 62,
      "hit": false,
      "t": 45725.71500000085,
      "d": 5.040312500001164,
      "v": 78
    },
    {
      "midi": 38,
      "hit": false,
      "t": 45725.71500000085,
      "d": 166.3303125000093,
      "v": 97
    },
    {
      "midi": 62,
      "hit": false,
      "t": 45846.682500000854,
      "d": 10.080625000002328,
      "v": 97
    },
    {
      "midi": 44,
      "hit": false,
      "t": 45967.65000000086,
      "d": 5.040312500001164,
      "v": 71
    },
    {
      "midi": 40,
      "hit": false,
      "t": 45967.65000000086,
      "d": 65.52406250000786,
      "v": 94
    },
    {
      "midi": 35,
      "hit": false,
      "t": 45967.65000000086,
      "d": 90.7256250000064,
      "v": 86
    },
    {
      "midi": 62,
      "hit": false,
      "t": 46088.617500000866,
      "d": 5.040312500001164,
      "v": 62
    },
    {
      "midi": 57,
      "hit": false,
      "t": 46088.617500000866,
      "d": 10.080625000002328,
      "v": 76
    },
    {
      "midi": 38,
      "hit": false,
      "t": 46088.617500000866,
      "d": 15.120937500003492,
      "v": 86
    },
    {
      "midi": 62,
      "hit": false,
      "t": 46098.69812500087,
      "d": 15.120937500003492,
      "v": 65
    },
    {
      "midi": 67,
      "hit": false,
      "t": 46108.77875000087,
      "d": 15.120937500003492,
      "v": 69
    },
    {
      "midi": 46,
      "hit": false,
      "t": 46209.58500000087,
      "d": 5.040312500001164,
      "v": 70
    },
    {
      "midi": 63,
      "hit": false,
      "t": 46209.58500000087,
      "d": 5.040312500001164,
      "v": 55
    },
    {
      "midi": 62,
      "hit": false,
      "t": 46209.58500000087,
      "d": 105.84656250000262,
      "v": 63
    },
    {
      "midi": 33,
      "hit": false,
      "t": 46209.58500000087,
      "d": 196.57218750000902,
      "v": 83
    },
    {
      "midi": 63,
      "hit": false,
      "t": 46330.55250000088,
      "d": 5.040312500001164,
      "v": 70
    },
    {
      "midi": 62,
      "hit": false,
      "t": 46330.55250000088,
      "d": 5.040312500001164,
      "v": 92
    },
    {
      "midi": 44,
      "hit": false,
      "t": 46451.520000000884,
      "d": 5.040312500001164,
      "v": 71
    },
    {
      "midi": 59,
      "hit": false,
      "t": 46451.520000000884,
      "d": 5.040312500001164,
      "v": 94
    },
    {
      "midi": 35,
      "hit": false,
      "t": 46451.520000000884,
      "d": 90.7256250000064,
      "v": 87
    },
    {
      "midi": 28,
      "hit": false,
      "t": 46451.520000000884,
      "d": 176.41093750001164,
      "v": 101
    },
    {
      "midi": 52,
      "hit": false,
      "t": 46451.520000000884,
      "d": 433.4668750000201,
      "v": 104
    },
    {
      "midi": 66,
      "hit": false,
      "t": 46451.520000000884,
      "d": 866.9337500000474,
      "v": 104
    },
    {
      "midi": 59,
      "hit": false,
      "t": 46572.48750000089,
      "d": 30.24187499999971,
      "v": 46
    },
    {
      "midi": 64,
      "hit": false,
      "t": 46582.56812500089,
      "d": 30.24187499999971,
      "v": 26
    },
    {
      "midi": 46,
      "hit": false,
      "t": 46693.4550000009,
      "d": 5.040312500001164,
      "v": 70
    },
    {
      "midi": 62,
      "hit": false,
      "t": 46693.4550000009,
      "d": 5.040312500001164,
      "v": 63
    },
    {
      "midi": 59,
      "hit": false,
      "t": 46693.4550000009,
      "d": 5.040312500001164,
      "v": 85
    },
    {
      "midi": 55,
      "hit": false,
      "t": 46814.422500000896,
      "d": 20.161250000004657,
      "v": 77
    },
    {
      "midi": 59,
      "hit": false,
      "t": 46824.5031250009,
      "d": 25.20156250000582,
      "v": 73
    },
    {
      "midi": 64,
      "hit": false,
      "t": 46834.5837500009,
      "d": 20.161250000004657,
      "v": 85
    },
    {
      "midi": 44,
      "hit": false,
      "t": 46935.3900000009,
      "d": 5.040312500001164,
      "v": 64
    },
    {
      "midi": 40,
      "hit": false,
      "t": 46935.3900000009,
      "d": 75.60468750000291,
      "v": 94
    },
    {
      "midi": 35,
      "hit": false,
      "t": 46935.3900000009,
      "d": 90.7256250000064,
      "v": 87
    },
    {
      "midi": 59,
      "hit": false,
      "t": 46935.3900000009,
      "d": 105.8465625000099,
      "v": 94
    },
    {
      "midi": 28,
      "hit": false,
      "t": 46935.3900000009,
      "d": 166.3303125000166,
      "v": 99
    },
    {
      "midi": 59,
      "hit": false,
      "t": 47056.357500000915,
      "d": 5.040312500001164,
      "v": 100
    },
    {
      "midi": 63,
      "hit": false,
      "t": 47172.28468750092,
      "d": 5.040312500001164,
      "v": 46
    },
    {
      "midi": 46,
      "hit": false,
      "t": 47177.32500000092,
      "d": 5.040312500001164,
      "v": 70
    },
    {
      "midi": 59,
      "hit": false,
      "t": 47298.29250000093,
      "d": 5.040312500001164,
      "v": 88
    },
    {
      "midi": 55,
      "hit": false,
      "t": 47298.29250000093,
      "d": 20.161250000004657,
      "v": 51
    },
    {
      "midi": 31,
      "hit": false,
      "t": 47303.33281250093,
      "d": 5.040312500001164,
      "v": 28
    },
    {
      "midi": 59,
      "hit": false,
      "t": 47308.37312500093,
      "d": 20.161250000004657,
      "v": 46
    },
    {
      "midi": 63,
      "hit": false,
      "t": 47313.41343750093,
      "d": 5.040312500001164,
      "v": 85
    },
    {
      "midi": 64,
      "hit": false,
      "t": 47318.45375000093,
      "d": 20.161250000004657,
      "v": 38
    },
    {
      "midi": 44,
      "hit": false,
      "t": 47419.26000000093,
      "d": 5.040312500001164,
      "v": 64
    },
    {
      "midi": 59,
      "hit": false,
      "t": 47419.26000000093,
      "d": 5.040312500001164,
      "v": 94
    },
    {
      "midi": 35,
      "hit": false,
      "t": 47419.26000000093,
      "d": 95.76593750000757,
      "v": 87
    },
    {
      "midi": 28,
      "hit": false,
      "t": 47419.26000000093,
      "d": 115.92718750000495,
      "v": 94
    },
    {
      "midi": 52,
      "hit": false,
      "t": 47419.26000000093,
      "d": 433.4668750000201,
      "v": 104
    },
    {
      "midi": 71,
      "hit": false,
      "t": 47419.26000000093,
      "d": 650.200312500041,
      "v": 104
    },
    {
      "midi": 55,
      "hit": false,
      "t": 47540.22750000094,
      "d": 10.080625000002328,
      "v": 64
    },
    {
      "midi": 31,
      "hit": false,
      "t": 47545.26781250094,
      "d": 5.040312500001164,
      "v": 39
    },
    {
      "midi": 59,
      "hit": false,
      "t": 47550.30812500094,
      "d": 20.161250000004657,
      "v": 58
    },
    {
      "midi": 64,
      "hit": false,
      "t": 47560.388750000944,
      "d": 20.161250000004657,
      "v": 69
    },
    {
      "midi": 62,
      "hit": false,
      "t": 47656.15468750095,
      "d": 5.040312500001164,
      "v": 85
    },
    {
      "midi": 46,
      "hit": false,
      "t": 47661.19500000095,
      "d": 5.040312500001164,
      "v": 70
    },
    {
      "midi": 59,
      "hit": false,
      "t": 47661.19500000095,
      "d": 5.040312500001164,
      "v": 93
    },
    {
      "midi": 28,
      "hit": false,
      "t": 47661.19500000095,
      "d": 156.2496874999997,
      "v": 102
    },
    {
      "midi": 44,
      "hit": false,
      "t": 47903.13000000095,
      "d": 5.040312500001164,
      "v": 64
    },
    {
      "midi": 40,
      "hit": false,
      "t": 47903.13000000095,
      "d": 60.483750000006694,
      "v": 94
    },
    {
      "midi": 35,
      "hit": false,
      "t": 47903.13000000095,
      "d": 95.76593750000757,
      "v": 87
    },
    {
      "midi": 59,
      "hit": false,
      "t": 47913.21062500095,
      "d": 95.76593750000757,
      "v": 76
    },
    {
      "midi": 62,
      "hit": false,
      "t": 48019.05718750096,
      "d": 5.040312500001164,
      "v": 58
    },
    {
      "midi": 59,
      "hit": false,
      "t": 48024.097500000964,
      "d": 5.040312500001164,
      "v": 100
    },
    {
      "midi": 55,
      "hit": false,
      "t": 48024.097500000964,
      "d": 20.161250000004657,
      "v": 70
    },
    {
      "midi": 59,
      "hit": false,
      "t": 48034.178125000966,
      "d": 20.161250000004657,
      "v": 57
    },
    {
      "midi": 64,
      "hit": false,
      "t": 48044.25875000097,
      "d": 20.161250000004657,
      "v": 66
    },
    {
      "midi": 63,
      "hit": false,
      "t": 48140.024687500976,
      "d": 5.040312500001164,
      "v": 55
    },
    {
      "midi": 46,
      "hit": false,
      "t": 48145.06500000098,
      "d": 5.040312500001164,
      "v": 70
    },
    {
      "midi": 69,
      "hit": false,
      "t": 48145.06500000098,
      "d": 105.84656250000262,
      "v": 104
    },
    {
      "midi": 64,
      "hit": false,
      "t": 48266.03250000098,
      "d": 5.040312500001164,
      "v": 78
    },
    {
      "midi": 40,
      "hit": false,
      "t": 48266.03250000098,
      "d": 5.040312500001164,
      "v": 72
    },
    {
      "midi": 59,
      "hit": false,
      "t": 48266.03250000098,
      "d": 5.040312500001164,
      "v": 92
    },
    {
      "midi": 29,
      "hit": false,
      "t": 48266.03250000098,
      "d": 95.76593750000029,
      "v": 52
    },
    {
      "midi": 67,
      "hit": false,
      "t": 48266.03250000098,
      "d": 105.84656250000262,
      "v": 104
    },
    {
      "midi": 44,
      "hit": false,
      "t": 48387.00000000099,
      "d": 5.040312500001164,
      "v": 64
    },
    {
      "midi": 35,
      "hit": false,
      "t": 48387.00000000099,
      "d": 105.84656250000262,
      "v": 87
    },
    {
      "midi": 37,
      "hit": false,
      "t": 48387.00000000099,
      "d": 171.37062500001775,
      "v": 96
    },
    {
      "midi": 49,
      "hit": false,
      "t": 48387.00000000099,
      "d": 433.46687500003463,
      "v": 104
    },
    {
      "midi": 66,
      "hit": false,
      "t": 48387.00000000099,
      "d": 650.2003125000483,
      "v": 104
    },
    {
      "midi": 61,
      "hit": false,
      "t": 48507.967500000996,
      "d": 5.040312500001164,
      "v": 85
    },
    {
      "midi": 57,
      "hit": false,
      "t": 48507.967500000996,
      "d": 15.120937500003492,
      "v": 35
    },
    {
      "midi": 61,
      "hit": false,
      "t": 48518.048125001,
      "d": 15.120937500003492,
      "v": 38
    },
    {
      "midi": 64,
      "hit": false,
      "t": 48528.128750001,
      "d": 15.120937500003492,
      "v": 38
    },
    {
      "midi": 62,
      "hit": false,
      "t": 48613.814062501006,
      "d": 5.040312500001164,
      "v": 77
    },
    {
      "midi": 46,
      "hit": false,
      "t": 48623.89468750101,
      "d": 5.040312500001164,
      "v": 69
    },
    {
      "midi": 61,
      "hit": false,
      "t": 48639.01562500101,
      "d": 95.76593750000029,
      "v": 54
    },
    {
      "midi": 61,
      "hit": false,
      "t": 48749.902500001015,
      "d": 10.080625000002328,
      "v": 88
    },
    {
      "midi": 57,
      "hit": false,
      "t": 48749.902500001015,
      "d": 20.161250000004657,
      "v": 89
    },
    {
      "midi": 61,
      "hit": false,
      "t": 48759.98312500102,
      "d": 20.161250000004657,
      "v": 76
    },
    {
      "midi": 64,
      "hit": false,
      "t": 48770.06375000102,
      "d": 5.040312500001164,
      "v": 90
    },
    {
      "midi": 44,
      "hit": false,
      "t": 48865.82968750103,
      "d": 5.040312500001164,
      "v": 71
    },
    {
      "midi": 40,
      "hit": false,
      "t": 48870.87000000103,
      "d": 70.56437500000175,
      "v": 94
    },
    {
      "midi": 35,
      "hit": false,
      "t": 48870.87000000103,
      "d": 105.84656250000262,
      "v": 87
    },
    {
      "midi": 37,
      "hit": false,
      "t": 48870.87000000103,
      "d": 176.41093750001164,
      "v": 96
    },
    {
      "midi": 61,
      "hit": false,
      "t": 48991.837500001035,
      "d": 10.080625000002328,
      "v": 88
    },
    {
      "midi": 63,
      "hit": false,
      "t": 49097.68406250104,
      "d": 5.040312500001164,
      "v": 55
    },
    {
      "midi": 46,
      "hit": false,
      "t": 49112.80500000104,
      "d": 5.040312500001164,
      "v": 61
    },
    {
      "midi": 67,
      "hit": false,
      "t": 49112.80500000104,
      "d": 650.2003125000338,
      "v": 104
    },
    {
      "midi": 61,
      "hit": false,
      "t": 49122.88562500104,
      "d": 95.76593750000029,
      "v": 78
    },
    {
      "midi": 63,
      "hit": false,
      "t": 49233.77250000105,
      "d": 5.040312500001164,
      "v": 88
    },
    {
      "midi": 57,
      "hit": false,
      "t": 49233.77250000105,
      "d": 10.080625000002328,
      "v": 48
    },
    {
      "midi": 61,
      "hit": false,
      "t": 49233.77250000105,
      "d": 10.080625000002328,
      "v": 92
    },
    {
      "midi": 37,
      "hit": false,
      "t": 49233.77250000105,
      "d": 15.120937500003492,
      "v": 86
    },
    {
      "midi": 31,
      "hit": false,
      "t": 49238.81281250105,
      "d": 5.040312500001164,
      "v": 39
    },
    {
      "midi": 61,
      "hit": false,
      "t": 49243.85312500105,
      "d": 110.88687500000378,
      "v": 60
    },
    {
      "midi": 64,
      "hit": false,
      "t": 49253.93375000105,
      "d": 10.080625000002328,
      "v": 52
    },
    {
      "midi": 44,
      "hit": false,
      "t": 49354.74000000105,
      "d": 5.040312500001164,
      "v": 64
    },
    {
      "midi": 61,
      "hit": false,
      "t": 49354.74000000105,
      "d": 5.040312500001164,
      "v": 40
    },
    {
      "midi": 35,
      "hit": false,
      "t": 49354.74000000105,
      "d": 90.72562499999913,
      "v": 86
    },
    {
      "midi": 37,
      "hit": false,
      "t": 49354.74000000105,
      "d": 95.76593750000029,
      "v": 94
    },
    {
      "midi": 49,
      "hit": false,
      "t": 49354.74000000105,
      "d": 433.4668750000201,
      "v": 104
    },
    {
      "midi": 31,
      "hit": false,
      "t": 49475.70750000105,
      "d": 5.040312500001164,
      "v": 30
    },
    {
      "midi": 57,
      "hit": false,
      "t": 49475.70750000105,
      "d": 10.080625000002328,
      "v": 66
    },
    {
      "midi": 61,
      "hit": false,
      "t": 49475.70750000105,
      "d": 10.080625000002328,
      "v": 91
    },
    {
      "midi": 61,
      "hit": false,
      "t": 49485.788125001054,
      "d": 25.20156250000582,
      "v": 58
    },
    {
      "midi": 64,
      "hit": false,
      "t": 49495.86875000106,
      "d": 20.161250000004657,
      "v": 68
    },
    {
      "midi": 62,
      "hit": false,
      "t": 49591.634687501064,
      "d": 5.040312500001164,
      "v": 68
    },
    {
      "midi": 46,
      "hit": false,
      "t": 49596.675000001065,
      "d": 5.040312500001164,
      "v": 70
    },
    {
      "midi": 61,
      "hit": false,
      "t": 49596.675000001065,
      "d": 105.84656250000262,
      "v": 79
    },
    {
      "midi": 37,
      "hit": false,
      "t": 49596.675000001065,
      "d": 166.3303125000093,
      "v": 97
    },
    {
      "midi": 61,
      "hit": false,
      "t": 49717.64250000107,
      "d": 10.080625000002328,
      "v": 91
    },
    {
      "midi": 40,
      "hit": false,
      "t": 49838.61000000107,
      "d": 65.52406250000786,
      "v": 91
    },
    {
      "midi": 35,
      "hit": false,
      "t": 49838.61000000107,
      "d": 90.7256250000064,
      "v": 86
    },
    {
      "midi": 69,
      "hit": false,
      "t": 49838.61000000107,
      "d": 433.46687500003463,
      "v": 104
    },
    {
      "midi": 44,
      "hit": false,
      "t": 49843.65031250107,
      "d": 5.040312500001164,
      "v": 71
    },
    {
      "midi": 61,
      "hit": false,
      "t": 49959.577500001076,
      "d": 10.080625000002328,
      "v": 93
    },
    {
      "midi": 37,
      "hit": false,
      "t": 49959.577500001076,
      "d": 15.120937500003492,
      "v": 86
    },
    {
      "midi": 57,
      "hit": false,
      "t": 49959.577500001076,
      "d": 30.241875000006985,
      "v": 43
    },
    {
      "midi": 61,
      "hit": false,
      "t": 49969.65812500108,
      "d": 25.20156250000582,
      "v": 75
    },
    {
      "midi": 62,
      "hit": false,
      "t": 49974.69843750108,
      "d": 5.040312500001164,
      "v": 56
    },
    {
      "midi": 64,
      "hit": false,
      "t": 49979.73875000108,
      "d": 25.20156250000582,
      "v": 60
    },
    {
      "midi": 46,
      "hit": false,
      "t": 50080.54500000109,
      "d": 5.040312500001164,
      "v": 70
    },
    {
      "midi": 61,
      "hit": false,
      "t": 50080.54500000109,
      "d": 15.120937500003492,
      "v": 58
    },
    {
      "midi": 37,
      "hit": false,
      "t": 50080.54500000109,
      "d": 196.5721875000163,
      "v": 83
    },
    {
      "midi": 64,
      "hit": false,
      "t": 50090.62562500109,
      "d": 5.040312500001164,
      "v": 56
    },
    {
      "midi": 61,
      "hit": false,
      "t": 50201.512500001096,
      "d": 5.040312500001164,
      "v": 92
    },
    {
      "midi": 63,
      "hit": false,
      "t": 50221.6737500011,
      "d": 5.040312500001164,
      "v": 80
    },
    {
      "midi": 44,
      "hit": false,
      "t": 50322.48000000111,
      "d": 5.040312500001164,
      "v": 64
    },
    {
      "midi": 60,
      "hit": false,
      "t": 50322.48000000111,
      "d": 5.040312500001164,
      "v": 85
    },
    {
      "midi": 35,
      "hit": false,
      "t": 50322.48000000111,
      "d": 105.84656250000262,
      "v": 87
    },
    {
      "midi": 36,
      "hit": false,
      "t": 50322.48000000111,
      "d": 176.41093750001892,
      "v": 101
    },
    {
      "midi": 71,
      "hit": false,
      "t": 50322.48000000111,
      "d": 211.6931250000198,
      "v": 104
    },
    {
      "midi": 48,
      "hit": false,
      "t": 50322.48000000111,
      "d": 433.46687500003463,
      "v": 104
    },
    {
      "midi": 55,
      "hit": false,
      "t": 50443.447500001115,
      "d": 30.241875000006985,
      "v": 56
    },
    {
      "midi": 60,
      "hit": false,
      "t": 50453.52812500112,
      "d": 25.20156250000582,
      "v": 50
    },
    {
      "midi": 64,
      "hit": false,
      "t": 50463.60875000112,
      "d": 30.241875000006985,
      "v": 33
    },
    {
      "midi": 46,
      "hit": false,
      "t": 50559.37468750113,
      "d": 5.040312500001164,
      "v": 69
    },
    {
      "midi": 62,
      "hit": false,
      "t": 50564.41500000113,
      "d": 5.040312500001164,
      "v": 91
    },
    {
      "midi": 60,
      "hit": false,
      "t": 50564.41500000113,
      "d": 5.040312500001164,
      "v": 94
    },
    {
      "midi": 72,
      "hit": false,
      "t": 50564.41500000113,
      "d": 105.84656250000262,
      "v": 104
    },
    {
      "midi": 55,
      "hit": false,
      "t": 50685.382500001135,
      "d": 20.161250000004657,
      "v": 96
    },
    {
      "midi": 71,
      "hit": false,
      "t": 50685.382500001135,
      "d": 105.8465625000099,
      "v": 104
    },
    {
      "midi": 60,
      "hit": false,
      "t": 50695.46312500114,
      "d": 20.161250000004657,
      "v": 89
    },
    {
      "midi": 64,
      "hit": false,
      "t": 50705.54375000114,
      "d": 15.120937500003492,
      "v": 84
    },
    {
      "midi": 44,
      "hit": false,
      "t": 50801.30968750115,
      "d": 5.040312500001164,
      "v": 71
    },
    {
      "midi": 40,
      "hit": false,
      "t": 50806.35000000115,
      "d": 70.56437500000175,
      "v": 94
    },
    {
      "midi": 60,
      "hit": false,
      "t": 50806.35000000115,
      "d": 85.68531250000524,
      "v": 100
    },
    {
      "midi": 35,
      "hit": false,
      "t": 50806.35000000115,
      "d": 105.84656250000262,
      "v": 87
    },
    {
      "midi": 36,
      "hit": false,
      "t": 50806.35000000115,
      "d": 166.3303125000093,
      "v": 99
    },
    {
      "midi": 60,
      "hit": false,
      "t": 50927.317500001154,
      "d": 10.080625000002328,
      "v": 100
    },
    {
      "midi": 67,
      "hit": false,
      "t": 50927.317500001154,
      "d": 105.84656250000262,
      "v": 104
    },
    {
      "midi": 46,
      "hit": false,
      "t": 51048.28500000116,
      "d": 5.040312500001164,
      "v": 61
    },
    {
      "midi": 63,
      "hit": false,
      "t": 51048.28500000116,
      "d": 5.040312500001164,
      "v": 47
    },
    {
      "midi": 63,
      "hit": false,
      "t": 51169.25250000117,
      "d": 5.040312500001164,
      "v": 85
    },
    {
      "midi": 60,
      "hit": false,
      "t": 51169.25250000117,
      "d": 5.040312500001164,
      "v": 95
    },
    {
      "midi": 55,
      "hit": false,
      "t": 51169.25250000117,
      "d": 15.120937500003492,
      "v": 36
    },
    {
      "midi": 31,
      "hit": false,
      "t": 51174.29281250117,
      "d": 5.040312500001164,
      "v": 42
    },
    {
      "midi": 60,
      "hit": false,
      "t": 51179.33312500117,
      "d": 15.120937500003492,
      "v": 46
    },
    {
      "midi": 64,
      "hit": false,
      "t": 51189.41375000117,
      "d": 15.120937500003492,
      "v": 30
    },
    {
      "midi": 44,
      "hit": false,
      "t": 51290.22000000117,
      "d": 5.040312500001164,
      "v": 64
    },
    {
      "midi": 60,
      "hit": false,
      "t": 51290.22000000117,
      "d": 5.040312500001164,
      "v": 92
    },
    {
      "midi": 35,
      "hit": false,
      "t": 51290.22000000117,
      "d": 90.7256250000064,
      "v": 86
    },
    {
      "midi": 55,
      "hit": false,
      "t": 51290.22000000117,
      "d": 95.76593750000757,
      "v": 13
    },
    {
      "midi": 36,
      "hit": false,
      "t": 51290.22000000117,
      "d": 115.92718750000495,
      "v": 94
    },
    {
      "midi": 48,
      "hit": false,
      "t": 51290.22000000117,
      "d": 433.4668750000128,
      "v": 104
    },
    {
      "midi": 31,
      "hit": false,
      "t": 51411.18750000118,
      "d": 5.040312500001164,
      "v": 39
    },
    {
      "midi": 60,
      "hit": false,
      "t": 51411.18750000118,
      "d": 5.040312500001164,
      "v": 94
    },
    {
      "midi": 55,
      "hit": false,
      "t": 51411.18750000118,
      "d": 20.161250000004657,
      "v": 80
    },
    {
      "midi": 60,
      "hit": false,
      "t": 51421.26812500118,
      "d": 20.161250000004657,
      "v": 68
    },
    {
      "midi": 64,
      "hit": false,
      "t": 51431.34875000118,
      "d": 20.161250000004657,
      "v": 75
    },
    {
      "midi": 46,
      "hit": false,
      "t": 51532.155000001185,
      "d": 5.040312500001164,
      "v": 70
    },
    {
      "midi": 62,
      "hit": false,
      "t": 51532.155000001185,
      "d": 5.040312500001164,
      "v": 85
    },
    {
      "midi": 60,
      "hit": false,
      "t": 51532.155000001185,
      "d": 5.040312500001164,
      "v": 94
    },
    {
      "midi": 36,
      "hit": false,
      "t": 51532.155000001185,
      "d": 156.2496874999997,
      "v": 102
    },
    {
      "midi": 40,
      "hit": false,
      "t": 51774.09000000118,
      "d": 65.52406250000786,
      "v": 91
    },
    {
      "midi": 35,
      "hit": false,
      "t": 51774.09000000118,
      "d": 90.7256250000064,
      "v": 86
    },
    {
      "midi": 55,
      "hit": false,
      "t": 51774.09000000118,
      "d": 181.4512500000128,
      "v": 96
    },
    {
      "midi": 44,
      "hit": false,
      "t": 51779.130312501184,
      "d": 5.040312500001164,
      "v": 71
    },
    {
      "midi": 60,
      "hit": false,
      "t": 51784.170625001185,
      "d": 90.7256250000064,
      "v": 82
    },
    {
      "midi": 62,
      "hit": false,
      "t": 51895.05750000119,
      "d": 5.040312500001164,
      "v": 62
    },
    {
      "midi": 60,
      "hit": false,
      "t": 51895.05750000119,
      "d": 5.040312500001164,
      "v": 47
    },
    {
      "midi": 64,
      "hit": false,
      "t": 51905.13812500119,
      "d": 25.20156250000582,
      "v": 52
    },
    {
      "midi": 46,
      "hit": false,
      "t": 52016.025000001195,
      "d": 5.040312500001164,
      "v": 70
    },
    {
      "midi": 63,
      "hit": false,
      "t": 52016.025000001195,
      "d": 5.040312500001164,
      "v": 53
    },
    {
      "midi": 64,
      "hit": false,
      "t": 52136.99250000119,
      "d": 5.040312500001164,
      "v": 74
    },
    {
      "midi": 36,
      "hit": false,
      "t": 52136.99250000119,
      "d": 5.040312500001164,
      "v": 72
    },
    {
      "midi": 60,
      "hit": false,
      "t": 52136.99250000119,
      "d": 5.040312500001164,
      "v": 88
    },
    {
      "midi": 44,
      "hit": false,
      "t": 52257.96000000119,
      "d": 5.040312500001164,
      "v": 64
    },
    {
      "midi": 35,
      "hit": false,
      "t": 52257.96000000119,
      "d": 105.84656250000262,
      "v": 87
    },
    {
      "midi": 71,
      "hit": false,
      "t": 52257.96000000119,
      "d": 211.69312500001251,
      "v": 104
    },
    {
      "midi": 38,
      "hit": false,
      "t": 52257.96000000119,
      "d": 231.8543750000099,
      "v": 89
    },
    {
      "midi": 50,
      "hit": false,
      "t": 52257.96000000119,
      "d": 433.46687500002736,
      "v": 104
    },
    {
      "midi": 62,
      "hit": false,
      "t": 52378.9275000012,
      "d": 5.040312500001164,
      "v": 95
    },
    {
      "midi": 57,
      "hit": false,
      "t": 52378.9275000012,
      "d": 15.120937500003492,
      "v": 35
    },
    {
      "midi": 62,
      "hit": false,
      "t": 52389.0081250012,
      "d": 15.120937500003492,
      "v": 38
    },
    {
      "midi": 67,
      "hit": false,
      "t": 52399.0887500012,
      "d": 15.120937500003492,
      "v": 38
    },
    {
      "midi": 46,
      "hit": false,
      "t": 52494.8546875012,
      "d": 5.040312500001164,
      "v": 69
    },
    {
      "midi": 62,
      "hit": false,
      "t": 52499.895000001205,
      "d": 5.040312500001164,
      "v": 91
    },
    {
      "midi": 72,
      "hit": false,
      "t": 52499.895000001205,
      "d": 105.84656250000262,
      "v": 104
    },
    {
      "midi": 38,
      "hit": false,
      "t": 52499.895000001205,
      "d": 231.85437500001717,
      "v": 89
    },
    {
      "midi": 62,
      "hit": false,
      "t": 52509.97562500121,
      "d": 95.76593750000029,
      "v": 54
    },
    {
      "midi": 63,
      "hit": false,
      "t": 52620.86250000121,
      "d": 5.040312500001164,
      "v": 91
    },
    {
      "midi": 62,
      "hit": false,
      "t": 52620.86250000121,
      "d": 10.080625000002328,
      "v": 96
    },
    {
      "midi": 57,
      "hit": false,
      "t": 52620.86250000121,
      "d": 20.161250000004657,
      "v": 89
    },
    {
      "midi": 71,
      "hit": false,
      "t": 52620.86250000121,
      "d": 105.8465625000099,
      "v": 104
    },
    {
      "midi": 62,
      "hit": false,
      "t": 52630.94312500121,
      "d": 20.161250000004657,
      "v": 76
    },
    {
      "midi": 67,
      "hit": false,
      "t": 52641.023750001215,
      "d": 5.040312500001164,
      "v": 90
    },
    {
      "midi": 44,
      "hit": false,
      "t": 52736.78968750122,
      "d": 5.040312500001164,
      "v": 71
    },
    {
      "midi": 40,
      "hit": false,
      "t": 52741.830000001224,
      "d": 70.56437500000175,
      "v": 94
    },
    {
      "midi": 35,
      "hit": false,
      "t": 52741.830000001224,
      "d": 105.84656250000262,
      "v": 87
    },
    {
      "midi": 43,
      "hit": false,
      "t": 52741.830000001224,
      "d": 231.8543750000099,
      "v": 101
    },
    {
      "midi": 45,
      "hit": false,
      "t": 52741.830000001224,
      "d": 433.46687500002736,
      "v": 104
    },
    {
      "midi": 64,
      "hit": false,
      "t": 52862.79750000123,
      "d": 5.040312500001164,
      "v": 91
    },
    {
      "midi": 67,
      "hit": false,
      "t": 52862.79750000123,
      "d": 105.84656250000262,
      "v": 104
    },
    {
      "midi": 46,
      "hit": false,
      "t": 52983.765000001236,
      "d": 5.040312500001164,
      "v": 61
    },
    {
      "midi": 63,
      "hit": false,
      "t": 52983.765000001236,
      "d": 5.040312500001164,
      "v": 47
    },
    {
      "midi": 43,
      "hit": false,
      "t": 52983.765000001236,
      "d": 231.85437500001717,
      "v": 101
    },
    {
      "midi": 62,
      "hit": false,
      "t": 52993.84562500124,
      "d": 95.76593750000029,
      "v": 78
    },
    {
      "midi": 63,
      "hit": false,
      "t": 53104.73250000124,
      "d": 5.040312500001164,
      "v": 85
    },
    {
      "midi": 57,
      "hit": false,
      "t": 53104.73250000124,
      "d": 10.080625000002328,
      "v": 48
    },
    {
      "midi": 62,
      "hit": false,
      "t": 53104.73250000124,
      "d": 10.080625000002328,
      "v": 102
    },
    {
      "midi": 64,
      "hit": false,
      "t": 53104.73250000124,
      "d": 322.5800000000236,
      "v": 104
    },
    {
      "midi": 62,
      "hit": false,
      "t": 53114.813125001245,
      "d": 110.88687500001106,
      "v": 60
    },
    {
      "midi": 67,
      "hit": false,
      "t": 53124.89375000125,
      "d": 10.080625000002328,
      "v": 52
    },
    {
      "midi": 40,
      "hit": false,
      "t": 53225.700000001256,
      "d": 5.040312500001164,
      "v": 93
    },
    {
      "midi": 44,
      "hit": false,
      "t": 53225.700000001256,
      "d": 5.040312500001164,
      "v": 64
    },
    {
      "midi": 62,
      "hit": false,
      "t": 53225.700000001256,
      "d": 5.040312500001164,
      "v": 40
    },
    {
      "midi": 35,
      "hit": false,
      "t": 53225.700000001256,
      "d": 90.72562499999913,
      "v": 86
    },
    {
      "midi": 45,
      "hit": false,
      "t": 53225.700000001256,
      "d": 231.8543750000099,
      "v": 82
    },
    {
      "midi": 50,
      "hit": false,
      "t": 53225.700000001256,
      "d": 433.4668750000201,
      "v": 104
    },
    {
      "midi": 62,
      "hit": false,
      "t": 53346.667500001255,
      "d": 5.040312500001164,
      "v": 91
    },
    {
      "midi": 57,
      "hit": false,
      "t": 53346.667500001255,
      "d": 10.080625000002328,
      "v": 66
    },
    {
      "midi": 62,
      "hit": false,
      "t": 53356.74812500126,
      "d": 25.20156250000582,
      "v": 58
    },
    {
      "midi": 67,
      "hit": false,
      "t": 53366.82875000126,
      "d": 20.161250000004657,
      "v": 68
    },
    {
      "midi": 40,
      "hit": false,
      "t": 53467.63500000127,
      "d": 5.040312500001164,
      "v": 64
    },
    {
      "midi": 64,
      "hit": false,
      "t": 53467.63500000127,
      "d": 5.040312500001164,
      "v": 78
    },
    {
      "midi": 62,
      "hit": false,
      "t": 53467.63500000127,
      "d": 105.84656250000262,
      "v": 86
    },
    {
      "midi": 45,
      "hit": false,
      "t": 53467.63500000127,
      "d": 236.89468750001106,
      "v": 82
    },
    {
      "midi": 40,
      "hit": false,
      "t": 53588.602500001274,
      "d": 5.040312500001164,
      "v": 87
    },
    {
      "midi": 64,
      "hit": false,
      "t": 53588.602500001274,
      "d": 5.040312500001164,
      "v": 78
    },
    {
      "midi": 62,
      "hit": false,
      "t": 53588.602500001274,
      "d": 10.080625000002328,
      "v": 101
    },
    {
      "midi": 43,
      "hit": false,
      "t": 53709.57000000128,
      "d": 5.040312500001164,
      "v": 86
    },
    {
      "midi": 64,
      "hit": false,
      "t": 53709.57000000128,
      "d": 5.040312500001164,
      "v": 82
    },
    {
      "midi": 35,
      "hit": false,
      "t": 53709.57000000128,
      "d": 90.7256250000064,
      "v": 86
    },
    {
      "midi": 45,
      "hit": false,
      "t": 53709.57000000128,
      "d": 241.93500000001222,
      "v": 87
    },
    {
      "midi": 44,
      "hit": false,
      "t": 53714.61031250128,
      "d": 5.040312500001164,
      "v": 71
    },
    {
      "midi": 40,
      "hit": false,
      "t": 53830.53750000129,
      "d": 5.040312500001164,
      "v": 73
    },
    {
      "midi": 62,
      "hit": false,
      "t": 53830.53750000129,
      "d": 5.040312500001164,
      "v": 93
    },
    {
      "midi": 57,
      "hit": false,
      "t": 53830.53750000129,
      "d": 30.241875000006985,
      "v": 43
    },
    {
      "midi": 62,
      "hit": false,
      "t": 53840.61812500129,
      "d": 25.20156250000582,
      "v": 75
    },
    {
      "midi": 67,
      "hit": false,
      "t": 53850.69875000129,
      "d": 25.20156250000582,
      "v": 60
    },
    {
      "midi": 40,
      "hit": false,
      "t": 53951.50500000129,
      "d": 5.040312500001164,
      "v": 95
    },
    {
      "midi": 62,
      "hit": false,
      "t": 53951.50500000129,
      "d": 15.120937500003492,
      "v": 61
    },
    {
      "midi": 64,
      "hit": false,
      "t": 53951.50500000129,
      "d": 216.7334375000064,
      "v": 104
    },
    {
      "midi": 45,
      "hit": false,
      "t": 53961.585625001295,
      "d": 181.45125000000553,
      "v": 76
    },
    {
      "midi": 62,
      "hit": false,
      "t": 54072.4725000013,
      "d": 5.040312500001164,
      "v": 102
    },
    {
      "midi": 57,
      "hit": false,
      "t": 54188.3996875013,
      "d": 5.040312500001164,
      "v": 79
    },
    {
      "midi": 44,
      "hit": false,
      "t": 54193.440000001305,
      "d": 5.040312500001164,
      "v": 64
    },
    {
      "midi": 59,
      "hit": false,
      "t": 54193.440000001305,
      "d": 5.040312500001164,
      "v": 85
    },
    {
      "midi": 35,
      "hit": false,
      "t": 54193.440000001305,
      "d": 105.84656250000262,
      "v": 87
    },
    {
      "midi": 31,
      "hit": false,
      "t": 54193.440000001305,
      "d": 176.41093750001892,
      "v": 101
    },
    {
      "midi": 43,
      "hit": false,
      "t": 54193.440000001305,
      "d": 650.200312500041,
      "v": 104
    },
    {
      "midi": 55,
      "hit": false,
      "t": 54314.40750000131,
      "d": 30.241875000006985,
      "v": 56
    },
    {
      "midi": 59,
      "hit": false,
      "t": 54324.48812500131,
      "d": 25.20156250000582,
      "v": 50
    },
    {
      "midi": 62,
      "hit": false,
      "t": 54334.568750001315,
      "d": 30.241875000006985,
      "v": 33
    },
    {
      "midi": 46,
      "hit": false,
      "t": 54430.33468750132,
      "d": 5.040312500001164,
      "v": 69
    },
    {
      "midi": 62,
      "hit": false,
      "t": 54435.375000001324,
      "d": 5.040312500001164,
      "v": 91
    },
    {
      "midi": 59,
      "hit": false,
      "t": 54435.375000001324,
      "d": 5.040312500001164,
      "v": 94
    },
    {
      "midi": 62,
      "hit": false,
      "t": 54455.53625000133,
      "d": 60.48374999999942,
      "v": 36
    },
    {
      "midi": 55,
      "hit": false,
      "t": 54556.34250000133,
      "d": 20.161250000004657,
      "v": 96
    },
    {
      "midi": 59,
      "hit": false,
      "t": 54566.42312500133,
      "d": 20.161250000004657,
      "v": 89
    },
    {
      "midi": 62,
      "hit": false,
      "t": 54576.503750001335,
      "d": 15.120937500003492,
      "v": 84
    },
    {
      "midi": 44,
      "hit": false,
      "t": 54672.269687501335,
      "d": 5.040312500001164,
      "v": 71
    },
    {
      "midi": 40,
      "hit": false,
      "t": 54677.31000000134,
      "d": 70.56437500000175,
      "v": 94
    },
    {
      "midi": 59,
      "hit": false,
      "t": 54677.31000000134,
      "d": 85.68531250000524,
      "v": 100
    },
    {
      "midi": 35,
      "hit": false,
      "t": 54677.31000000134,
      "d": 105.84656250000262,
      "v": 87
    },
    {
      "midi": 31,
      "hit": false,
      "t": 54677.31000000134,
      "d": 166.3303125000093,
      "v": 99
    },
    {
      "midi": 59,
      "hit": false,
      "t": 54798.27750000134,
      "d": 10.080625000002328,
      "v": 100
    },
    {
      "midi": 46,
      "hit": false,
      "t": 54919.24500000135,
      "d": 5.040312500001164,
      "v": 61
    },
    {
      "midi": 63,
      "hit": false,
      "t": 54919.24500000135,
      "d": 5.040312500001164,
      "v": 47
    },
    {
      "midi": 50,
      "hit": false,
      "t": 54919.24500000135,
      "d": 650.2003125000265,
      "v": 104
    },
    {
      "midi": 47,
      "hit": false,
      "t": 54919.24500000135,
      "d": 650.2003125000265,
      "v": 104
    },
    {
      "midi": 63,
      "hit": false,
      "t": 55040.212500001355,
      "d": 5.040312500001164,
      "v": 85
    },
    {
      "midi": 59,
      "hit": false,
      "t": 55040.212500001355,
      "d": 5.040312500001164,
      "v": 95
    },
    {
      "midi": 55,
      "hit": false,
      "t": 55040.212500001355,
      "d": 15.120937500003492,
      "v": 36
    },
    {
      "midi": 31,
      "hit": false,
      "t": 55045.252812501356,
      "d": 5.040312500001164,
      "v": 39
    },
    {
      "midi": 59,
      "hit": false,
      "t": 55050.29312500136,
      "d": 15.120937500003492,
      "v": 46
    },
    {
      "midi": 62,
      "hit": false,
      "t": 55060.37375000136,
      "d": 15.120937500003492,
      "v": 30
    },
    {
      "midi": 44,
      "hit": false,
      "t": 55161.18000000136,
      "d": 5.040312500001164,
      "v": 64
    },
    {
      "midi": 59,
      "hit": false,
      "t": 55161.18000000136,
      "d": 5.040312500001164,
      "v": 92
    },
    {
      "midi": 35,
      "hit": false,
      "t": 55161.18000000136,
      "d": 90.7256250000064,
      "v": 86
    },
    {
      "midi": 55,
      "hit": false,
      "t": 55161.18000000136,
      "d": 95.76593750000757,
      "v": 13
    },
    {
      "midi": 31,
      "hit": false,
      "t": 55161.18000000136,
      "d": 115.92718750000495,
      "v": 94
    },
    {
      "midi": 31,
      "hit": false,
      "t": 55282.14750000137,
      "d": 5.040312500001164,
      "v": 30
    },
    {
      "midi": 59,
      "hit": false,
      "t": 55282.14750000137,
      "d": 5.040312500001164,
      "v": 94
    },
    {
      "midi": 55,
      "hit": false,
      "t": 55282.14750000137,
      "d": 20.161250000004657,
      "v": 80
    },
    {
      "midi": 59,
      "hit": false,
      "t": 55292.22812500137,
      "d": 20.161250000004657,
      "v": 68
    },
    {
      "midi": 62,
      "hit": false,
      "t": 55302.30875000137,
      "d": 20.161250000004657,
      "v": 75
    },
    {
      "midi": 46,
      "hit": false,
      "t": 55403.11500000137,
      "d": 5.040312500001164,
      "v": 70
    },
    {
      "midi": 62,
      "hit": false,
      "t": 55403.11500000137,
      "d": 5.040312500001164,
      "v": 85
    },
    {
      "midi": 59,
      "hit": false,
      "t": 55403.11500000137,
      "d": 5.040312500001164,
      "v": 94
    },
    {
      "midi": 31,
      "hit": false,
      "t": 55403.11500000137,
      "d": 156.2496874999997,
      "v": 102
    },
    {
      "midi": 40,
      "hit": false,
      "t": 55645.05000000137,
      "d": 65.52406250000786,
      "v": 91
    },
    {
      "midi": 35,
      "hit": false,
      "t": 55645.05000000137,
      "d": 90.7256250000064,
      "v": 86
    },
    {
      "midi": 55,
      "hit": false,
      "t": 55645.05000000137,
      "d": 181.4512500000128,
      "v": 96
    },
    {
      "midi": 44,
      "hit": false,
      "t": 55650.09031250137,
      "d": 5.040312500001164,
      "v": 71
    },
    {
      "midi": 59,
      "hit": false,
      "t": 55655.13062500137,
      "d": 90.7256250000064,
      "v": 82
    },
    {
      "midi": 62,
      "hit": false,
      "t": 55766.01750000138,
      "d": 5.040312500001164,
      "v": 62
    },
    {
      "midi": 59,
      "hit": false,
      "t": 55766.01750000138,
      "d": 5.040312500001164,
      "v": 47
    },
    {
      "midi": 62,
      "hit": false,
      "t": 55776.09812500138,
      "d": 25.20156250000582,
      "v": 52
    },
    {
      "midi": 46,
      "hit": false,
      "t": 55886.98500000138,
      "d": 5.040312500001164,
      "v": 70
    },
    {
      "midi": 63,
      "hit": false,
      "t": 55886.98500000138,
      "d": 5.040312500001164,
      "v": 53
    },
    {
      "midi": 64,
      "hit": false,
      "t": 56007.95250000138,
      "d": 5.040312500001164,
      "v": 74
    },
    {
      "midi": 43,
      "hit": false,
      "t": 56007.95250000138,
      "d": 5.040312500001164,
      "v": 72
    },
    {
      "midi": 59,
      "hit": false,
      "t": 56007.95250000138,
      "d": 5.040312500001164,
      "v": 88
    },
    {
      "midi": 44,
      "hit": false,
      "t": 56128.92000000138,
      "d": 5.040312500001164,
      "v": 71
    },
    {
      "midi": 61,
      "hit": false,
      "t": 56128.92000000138,
      "d": 5.040312500001164,
      "v": 100
    },
    {
      "midi": 35,
      "hit": false,
      "t": 56128.92000000138,
      "d": 90.7256250000064,
      "v": 79
    },
    {
      "midi": 34,
      "hit": false,
      "t": 56128.92000000138,
      "d": 171.37062500001775,
      "v": 96
    },
    {
      "midi": 55,
      "hit": false,
      "t": 56249.88750000139,
      "d": 30.241875000006985,
      "v": 56
    },
    {
      "midi": 61,
      "hit": false,
      "t": 56259.96812500139,
      "d": 25.20156250000582,
      "v": 50
    },
    {
      "midi": 64,
      "hit": false,
      "t": 56270.04875000139,
      "d": 30.241875000006985,
      "v": 33
    },
    {
      "midi": 46,
      "hit": false,
      "t": 56365.8146875014,
      "d": 5.040312500001164,
      "v": 74
    },
    {
      "midi": 62,
      "hit": false,
      "t": 56370.8550000014,
      "d": 5.040312500001164,
      "v": 85
    },
    {
      "midi": 61,
      "hit": false,
      "t": 56370.8550000014,
      "d": 5.040312500001164,
      "v": 100
    },
    {
      "midi": 55,
      "hit": false,
      "t": 56491.822500001406,
      "d": 20.161250000004657,
      "v": 96
    },
    {
      "midi": 61,
      "hit": false,
      "t": 56501.90312500141,
      "d": 20.161250000004657,
      "v": 89
    },
    {
      "midi": 64,
      "hit": false,
      "t": 56511.98375000141,
      "d": 15.120937500003492,
      "v": 84
    },
    {
      "midi": 44,
      "hit": false,
      "t": 56612.79000000141,
      "d": 5.040312500001164,
      "v": 61
    },
    {
      "midi": 40,
      "hit": false,
      "t": 56612.79000000141,
      "d": 65.52406250000058,
      "v": 91
    },
    {
      "midi": 35,
      "hit": false,
      "t": 56612.79000000141,
      "d": 90.72562499999913,
      "v": 79
    },
    {
      "midi": 61,
      "hit": false,
      "t": 56612.79000000141,
      "d": 90.72562499999913,
      "v": 97
    },
    {
      "midi": 34,
      "hit": false,
      "t": 56612.79000000141,
      "d": 176.41093750000437,
      "v": 96
    },
    {
      "midi": 61,
      "hit": false,
      "t": 56733.75750000141,
      "d": 5.040312500001164,
      "v": 100
    },
    {
      "midi": 46,
      "hit": false,
      "t": 56849.684687501416,
      "d": 5.040312500001164,
      "v": 67
    },
    {
      "midi": 63,
      "hit": false,
      "t": 56854.72500000142,
      "d": 5.040312500001164,
      "v": 37
    },
    {
      "midi": 55,
      "hit": false,
      "t": 56854.72500000142,
      "d": 236.89468750001834,
      "v": 90
    },
    {
      "midi": 52,
      "hit": false,
      "t": 56854.72500000142,
      "d": 650.2003125000338,
      "v": 104
    },
    {
      "midi": 49,
      "hit": false,
      "t": 56854.72500000142,
      "d": 650.2003125000338,
      "v": 104
    },
    {
      "midi": 63,
      "hit": false,
      "t": 56975.69250000142,
      "d": 5.040312500001164,
      "v": 80
    },
    {
      "midi": 61,
      "hit": false,
      "t": 56975.69250000142,
      "d": 5.040312500001164,
      "v": 30
    },
    {
      "midi": 34,
      "hit": false,
      "t": 56975.69250000142,
      "d": 15.120937500003492,
      "v": 86
    },
    {
      "midi": 31,
      "hit": false,
      "t": 56980.732812501425,
      "d": 5.040312500001164,
      "v": 39
    },
    {
      "midi": 64,
      "hit": false,
      "t": 56985.773125001426,
      "d": 30.241875000006985,
      "v": 30
    },
    {
      "midi": 44,
      "hit": false,
      "t": 57096.66000000144,
      "d": 5.040312500001164,
      "v": 71
    },
    {
      "midi": 61,
      "hit": false,
      "t": 57096.66000000144,
      "d": 5.040312500001164,
      "v": 95
    },
    {
      "midi": 35,
      "hit": false,
      "t": 57096.66000000144,
      "d": 90.72562499999913,
      "v": 86
    },
    {
      "midi": 34,
      "hit": false,
      "t": 57096.66000000144,
      "d": 95.76593750000029,
      "v": 94
    },
    {
      "midi": 66,
      "hit": false,
      "t": 57096.66000000144,
      "d": 433.4668750000128,
      "v": 104
    },
    {
      "midi": 61,
      "hit": false,
      "t": 57217.627500001436,
      "d": 5.040312500001164,
      "v": 95
    },
    {
      "midi": 55,
      "hit": false,
      "t": 57217.627500001436,
      "d": 20.161250000004657,
      "v": 91
    },
    {
      "midi": 61,
      "hit": false,
      "t": 57227.70812500144,
      "d": 25.20156250000582,
      "v": 82
    },
    {
      "midi": 64,
      "hit": false,
      "t": 57237.78875000144,
      "d": 50.403125000004366,
      "v": 86
    },
    {
      "midi": 46,
      "hit": false,
      "t": 57333.55468750145,
      "d": 5.040312500001164,
      "v": 64
    },
    {
      "midi": 62,
      "hit": false,
      "t": 57338.59500000145,
      "d": 5.040312500001164,
      "v": 78
    },
    {
      "midi": 34,
      "hit": false,
      "t": 57338.59500000145,
      "d": 166.33031250000204,
      "v": 97
    },
    {
      "midi": 61,
      "hit": false,
      "t": 57459.56250000145,
      "d": 5.040312500001164,
      "v": 95
    },
    {
      "midi": 44,
      "hit": false,
      "t": 57580.53000000145,
      "d": 5.040312500001164,
      "v": 71
    },
    {
      "midi": 40,
      "hit": false,
      "t": 57580.53000000145,
      "d": 65.52406250000786,
      "v": 94
    },
    {
      "midi": 35,
      "hit": false,
      "t": 57580.53000000145,
      "d": 90.7256250000064,
      "v": 86
    },
    {
      "midi": 67,
      "hit": false,
      "t": 57580.53000000145,
      "d": 433.4668750000128,
      "v": 104
    },
    {
      "midi": 61,
      "hit": false,
      "t": 57590.61062500145,
      "d": 85.68531250000524,
      "v": 82
    },
    {
      "midi": 62,
      "hit": false,
      "t": 57701.49750000145,
      "d": 5.040312500001164,
      "v": 62
    },
    {
      "midi": 61,
      "hit": false,
      "t": 57701.49750000145,
      "d": 5.040312500001164,
      "v": 97
    },
    {
      "midi": 55,
      "hit": false,
      "t": 57701.49750000145,
      "d": 10.080625000002328,
      "v": 76
    },
    {
      "midi": 34,
      "hit": false,
      "t": 57701.49750000145,
      "d": 15.120937500003492,
      "v": 86
    },
    {
      "midi": 61,
      "hit": false,
      "t": 57711.578125001455,
      "d": 15.120937500003492,
      "v": 65
    },
    {
      "midi": 64,
      "hit": false,
      "t": 57721.65875000146,
      "d": 15.120937500003492,
      "v": 69
    },
    {
      "midi": 46,
      "hit": false,
      "t": 57822.46500000146,
      "d": 5.040312500001164,
      "v": 70
    },
    {
      "midi": 63,
      "hit": false,
      "t": 57822.46500000146,
      "d": 5.040312500001164,
      "v": 55
    },
    {
      "midi": 61,
      "hit": false,
      "t": 57822.46500000146,
      "d": 5.040312500001164,
      "v": 97
    },
    {
      "midi": 28,
      "hit": false,
      "t": 57822.46500000146,
      "d": 196.57218750000175,
      "v": 83
    },
    {
      "midi": 63,
      "hit": false,
      "t": 57943.43250000146,
      "d": 5.040312500001164,
      "v": 70
    },
    {
      "midi": 61,
      "hit": false,
      "t": 57943.43250000146,
      "d": 5.040312500001164,
      "v": 97
    },
    {
      "midi": 44,
      "hit": false,
      "t": 58064.400000001464,
      "d": 5.040312500001164,
      "v": 71
    },
    {
      "midi": 35,
      "hit": false,
      "t": 58064.400000001464,
      "d": 90.7256250000064,
      "v": 87
    },
    {
      "midi": 33,
      "hit": false,
      "t": 58064.400000001464,
      "d": 176.41093750001164,
      "v": 101
    },
    {
      "midi": 67,
      "hit": false,
      "t": 58064.400000001464,
      "d": 322.5800000000163,
      "v": 104
    },
    {
      "midi": 45,
      "hit": false,
      "t": 58064.400000001464,
      "d": 650.2003125000338,
      "v": 104
    },
    {
      "midi": 60,
      "hit": false,
      "t": 58185.36750000147,
      "d": 5.040312500001164,
      "v": 46
    },
    {
      "midi": 64,
      "hit": false,
      "t": 58195.44812500147,
      "d": 30.24187499999971,
      "v": 26
    },
    {
      "midi": 46,
      "hit": false,
      "t": 58306.335000001476,
      "d": 5.040312500001164,
      "v": 70
    },
    {
      "midi": 62,
      "hit": false,
      "t": 58306.335000001476,
      "d": 5.040312500001164,
      "v": 63
    },
    {
      "midi": 60,
      "hit": false,
      "t": 58306.335000001476,
      "d": 105.84656250000262,
      "v": 80
    },
    {
      "midi": 60,
      "hit": false,
      "t": 58427.30250000148,
      "d": 5.040312500001164,
      "v": 91
    },
    {
      "midi": 55,
      "hit": false,
      "t": 58427.30250000148,
      "d": 20.161250000004657,
      "v": 77
    },
    {
      "midi": 60,
      "hit": false,
      "t": 58437.383125001485,
      "d": 25.20156250000582,
      "v": 73
    },
    {
      "midi": 64,
      "hit": false,
      "t": 58447.46375000149,
      "d": 20.161250000004657,
      "v": 85
    },
    {
      "midi": 44,
      "hit": false,
      "t": 58548.27000000149,
      "d": 5.040312500001164,
      "v": 64
    },
    {
      "midi": 40,
      "hit": false,
      "t": 58548.27000000149,
      "d": 75.60468750000291,
      "v": 94
    },
    {
      "midi": 35,
      "hit": false,
      "t": 58548.27000000149,
      "d": 90.7256250000064,
      "v": 87
    },
    {
      "midi": 33,
      "hit": false,
      "t": 58548.27000000149,
      "d": 166.3303125000093,
      "v": 99
    },
    {
      "midi": 60,
      "hit": false,
      "t": 58669.237500001494,
      "d": 5.040312500001164,
      "v": 92
    },
    {
      "midi": 63,
      "hit": false,
      "t": 58785.1646875015,
      "d": 5.040312500001164,
      "v": 46
    },
    {
      "midi": 46,
      "hit": false,
      "t": 58790.2050000015,
      "d": 5.040312500001164,
      "v": 70
    },
    {
      "midi": 52,
      "hit": false,
      "t": 58790.2050000015,
      "d": 650.200312500041,
      "v": 104
    },
    {
      "midi": 60,
      "hit": false,
      "t": 58800.2856250015,
      "d": 5.040312500001164,
      "v": 78
    },
    {
      "midi": 60,
      "hit": false,
      "t": 58911.17250000151,
      "d": 5.040312500001164,
      "v": 95
    },
    {
      "midi": 55,
      "hit": false,
      "t": 58911.17250000151,
      "d": 20.161250000004657,
      "v": 51
    },
    {
      "midi": 31,
      "hit": false,
      "t": 58916.21281250151,
      "d": 5.040312500001164,
      "v": 28
    },
    {
      "midi": 60,
      "hit": false,
      "t": 58921.25312500151,
      "d": 20.161250000004657,
      "v": 46
    },
    {
      "midi": 63,
      "hit": false,
      "t": 58926.29343750151,
      "d": 5.040312500001164,
      "v": 85
    },
    {
      "midi": 64,
      "hit": false,
      "t": 58931.33375000151,
      "d": 20.161250000004657,
      "v": 38
    },
    {
      "midi": 44,
      "hit": false,
      "t": 59032.14000000151,
      "d": 5.040312500001164,
      "v": 64
    },
    {
      "midi": 35,
      "hit": false,
      "t": 59032.14000000151,
      "d": 95.76593750000757,
      "v": 87
    },
    {
      "midi": 33,
      "hit": false,
      "t": 59032.14000000151,
      "d": 115.92718750000495,
      "v": 94
    },
    {
      "midi": 60,
      "hit": false,
      "t": 59153.10750000152,
      "d": 5.040312500001164,
      "v": 93
    },
    {
      "midi": 55,
      "hit": false,
      "t": 59153.10750000152,
      "d": 10.080625000002328,
      "v": 64
    },
    {
      "midi": 31,
      "hit": false,
      "t": 59158.14781250152,
      "d": 5.040312500001164,
      "v": 39
    },
    {
      "midi": 60,
      "hit": false,
      "t": 59163.18812500152,
      "d": 20.161250000004657,
      "v": 58
    },
    {
      "midi": 64,
      "hit": false,
      "t": 59173.26875000152,
      "d": 20.161250000004657,
      "v": 69
    },
    {
      "midi": 62,
      "hit": false,
      "t": 59269.03468750153,
      "d": 5.040312500001164,
      "v": 85
    },
    {
      "midi": 46,
      "hit": false,
      "t": 59274.07500000153,
      "d": 5.040312500001164,
      "v": 70
    },
    {
      "midi": 60,
      "hit": false,
      "t": 59274.07500000153,
      "d": 105.84656250000262,
      "v": 77
    },
    {
      "midi": 33,
      "hit": false,
      "t": 59274.07500000153,
      "d": 156.24968750000698,
      "v": 102
    },
    {
      "midi": 60,
      "hit": false,
      "t": 59395.04250000154,
      "d": 10.080625000002328,
      "v": 95
    },
    {
      "midi": 44,
      "hit": false,
      "t": 59516.010000001545,
      "d": 5.040312500001164,
      "v": 64
    },
    {
      "midi": 40,
      "hit": false,
      "t": 59516.010000001545,
      "d": 60.483750000006694,
      "v": 94
    },
    {
      "midi": 35,
      "hit": false,
      "t": 59516.010000001545,
      "d": 95.76593750000757,
      "v": 87
    },
    {
      "midi": 48,
      "hit": false,
      "t": 59516.010000001545,
      "d": 433.46687500002736,
      "v": 104
    },
    {
      "midi": 62,
      "hit": false,
      "t": 59631.93718750155,
      "d": 5.040312500001164,
      "v": 58
    },
    {
      "midi": 60,
      "hit": false,
      "t": 59636.97750000155,
      "d": 5.040312500001164,
      "v": 94
    },
    {
      "midi": 55,
      "hit": false,
      "t": 59636.97750000155,
      "d": 20.161250000004657,
      "v": 70
    },
    {
      "midi": 60,
      "hit": false,
      "t": 59647.05812500155,
      "d": 20.161250000004657,
      "v": 57
    },
    {
      "midi": 64,
      "hit": false,
      "t": 59657.138750001555,
      "d": 20.161250000004657,
      "v": 66
    },
    {
      "midi": 63,
      "hit": false,
      "t": 59752.90468750156,
      "d": 5.040312500001164,
      "v": 55
    },
    {
      "midi": 46,
      "hit": false,
      "t": 59757.945000001564,
      "d": 5.040312500001164,
      "v": 70
    },
    {
      "midi": 60,
      "hit": false,
      "t": 59757.945000001564,
      "d": 105.84656250000262,
      "v": 74
    },
    {
      "midi": 31,
      "hit": false,
      "t": 59762.985312501565,
      "d": 5.040312500001164,
      "v": 37
    },
    {
      "midi": 64,
      "hit": false,
      "t": 59878.91250000157,
      "d": 5.040312500001164,
      "v": 78
    },
    {
      "midi": 43,
      "hit": false,
      "t": 59878.91250000157,
      "d": 5.040312500001164,
      "v": 72
    },
    {
      "midi": 60,
      "hit": false,
      "t": 59878.91250000157,
      "d": 5.040312500001164,
      "v": 100
    },
    {
      "midi": 31,
      "hit": false,
      "t": 59883.95281250157,
      "d": 5.040312500001164,
      "v": 46
    },
    {
      "midi": 44,
      "hit": false,
      "t": 59999.88000000157,
      "d": 5.040312500001164,
      "v": 64
    },
    {
      "midi": 35,
      "hit": false,
      "t": 59999.88000000157,
      "d": 105.84656250000262,
      "v": 87
    },
    {
      "midi": 33,
      "hit": false,
      "t": 59999.88000000157,
      "d": 171.37062500001775,
      "v": 96
    },
    {
      "midi": 45,
      "hit": false,
      "t": 59999.88000000157,
      "d": 216.73343750002095,
      "v": 104
    },
    {
      "midi": 60,
      "hit": false,
      "t": 60120.847500001575,
      "d": 5.040312500001164,
      "v": 85
    },
    {
      "midi": 55,
      "hit": false,
      "t": 60120.847500001575,
      "d": 15.120937500003492,
      "v": 35
    },
    {
      "midi": 60,
      "hit": false,
      "t": 60130.92812500158,
      "d": 15.120937500003492,
      "v": 38
    },
    {
      "midi": 64,
      "hit": false,
      "t": 60141.00875000158,
      "d": 15.120937500003492,
      "v": 38
    },
    {
      "midi": 62,
      "hit": false,
      "t": 60226.69406250159,
      "d": 5.040312500001164,
      "v": 77
    },
    {
      "midi": 46,
      "hit": false,
      "t": 60236.774687501595,
      "d": 5.040312500001164,
      "v": 69
    },
    {
      "midi": 47,
      "hit": false,
      "t": 60241.815000001596,
      "d": 216.73343750001368,
      "v": 104
    },
    {
      "midi": 60,
      "hit": false,
      "t": 60251.8956250016,
      "d": 95.76593750000029,
      "v": 54
    },
    {
      "midi": 60,
      "hit": false,
      "t": 60362.7825000016,
      "d": 10.080625000002328,
      "v": 88
    },
    {
      "midi": 55,
      "hit": false,
      "t": 60362.7825000016,
      "d": 20.161250000004657,
      "v": 89
    },
    {
      "midi": 60,
      "hit": false,
      "t": 60372.863125001604,
      "d": 20.161250000004657,
      "v": 76
    },
    {
      "midi": 64,
      "hit": false,
      "t": 60382.94375000161,
      "d": 5.040312500001164,
      "v": 90
    },
    {
      "midi": 44,
      "hit": false,
      "t": 60478.70968750161,
      "d": 5.040312500001164,
      "v": 71
    },
    {
      "midi": 40,
      "hit": false,
      "t": 60483.75000000161,
      "d": 70.56437500000175,
      "v": 94
    },
    {
      "midi": 35,
      "hit": false,
      "t": 60483.75000000161,
      "d": 105.84656250000262,
      "v": 87
    },
    {
      "midi": 33,
      "hit": false,
      "t": 60483.75000000161,
      "d": 176.41093750001164,
      "v": 96
    },
    {
      "midi": 48,
      "hit": false,
      "t": 60483.75000000161,
      "d": 216.73343750001368,
      "v": 104
    },
    {
      "midi": 60,
      "hit": false,
      "t": 60604.717500001614,
      "d": 10.080625000002328,
      "v": 88
    },
    {
      "midi": 63,
      "hit": false,
      "t": 60710.564062501624,
      "d": 5.040312500001164,
      "v": 55
    },
    {
      "midi": 46,
      "hit": false,
      "t": 60725.68500000163,
      "d": 5.040312500001164,
      "v": 61
    },
    {
      "midi": 60,
      "hit": false,
      "t": 60735.76562500163,
      "d": 95.76593750000029,
      "v": 78
    },
    {
      "midi": 63,
      "hit": false,
      "t": 60846.65250000163,
      "d": 5.040312500001164,
      "v": 88
    },
    {
      "midi": 55,
      "hit": false,
      "t": 60846.65250000163,
      "d": 10.080625000002328,
      "v": 48
    },
    {
      "midi": 60,
      "hit": false,
      "t": 60846.65250000163,
      "d": 10.080625000002328,
      "v": 92
    },
    {
      "midi": 43,
      "hit": false,
      "t": 60846.65250000163,
      "d": 15.120937500003492,
      "v": 86
    },
    {
      "midi": 31,
      "hit": false,
      "t": 60851.692812501635,
      "d": 5.040312500001164,
      "v": 39
    },
    {
      "midi": 60,
      "hit": false,
      "t": 60856.733125001636,
      "d": 110.88687500000378,
      "v": 60
    },
    {
      "midi": 64,
      "hit": false,
      "t": 60866.81375000164,
      "d": 10.080625000002328,
      "v": 52
    },
    {
      "midi": 44,
      "hit": false,
      "t": 60967.62000000164,
      "d": 5.040312500001164,
      "v": 64
    },
    {
      "midi": 60,
      "hit": false,
      "t": 60967.62000000164,
      "d": 5.040312500001164,
      "v": 40
    },
    {
      "midi": 35,
      "hit": false,
      "t": 60967.62000000164,
      "d": 90.72562499999913,
      "v": 86
    },
    {
      "midi": 33,
      "hit": false,
      "t": 60967.62000000164,
      "d": 95.76593750000029,
      "v": 94
    },
    {
      "midi": 31,
      "hit": false,
      "t": 61088.58750000164,
      "d": 5.040312500001164,
      "v": 30
    },
    {
      "midi": 55,
      "hit": false,
      "t": 61088.58750000164,
      "d": 10.080625000002328,
      "v": 66
    },
    {
      "midi": 60,
      "hit": false,
      "t": 61088.58750000164,
      "d": 10.080625000002328,
      "v": 91
    },
    {
      "midi": 60,
      "hit": false,
      "t": 61098.66812500164,
      "d": 25.20156250000582,
      "v": 58
    },
    {
      "midi": 64,
      "hit": false,
      "t": 61108.74875000164,
      "d": 20.161250000004657,
      "v": 68
    },
    {
      "midi": 62,
      "hit": false,
      "t": 61204.51468750165,
      "d": 5.040312500001164,
      "v": 68
    },
    {
      "midi": 46,
      "hit": false,
      "t": 61209.55500000165,
      "d": 5.040312500001164,
      "v": 70
    },
    {
      "midi": 60,
      "hit": false,
      "t": 61209.55500000165,
      "d": 105.84656250000262,
      "v": 79
    },
    {
      "midi": 33,
      "hit": false,
      "t": 61209.55500000165,
      "d": 166.3303125000093,
      "v": 97
    },
    {
      "midi": 60,
      "hit": false,
      "t": 61330.52250000166,
      "d": 10.080625000002328,
      "v": 91
    },
    {
      "midi": 40,
      "hit": false,
      "t": 61451.490000001664,
      "d": 65.52406250000786,
      "v": 91
    },
    {
      "midi": 35,
      "hit": false,
      "t": 61451.490000001664,
      "d": 90.7256250000064,
      "v": 86
    },
    {
      "midi": 44,
      "hit": false,
      "t": 61456.530312501665,
      "d": 5.040312500001164,
      "v": 71
    },
    {
      "midi": 60,
      "hit": false,
      "t": 61572.45750000167,
      "d": 10.080625000002328,
      "v": 93
    },
    {
      "midi": 43,
      "hit": false,
      "t": 61572.45750000167,
      "d": 15.120937500003492,
      "v": 86
    },
    {
      "midi": 55,
      "hit": false,
      "t": 61572.45750000167,
      "d": 30.241875000006985,
      "v": 43
    },
    {
      "midi": 60,
      "hit": false,
      "t": 61582.53812500167,
      "d": 25.20156250000582,
      "v": 75
    },
    {
      "midi": 62,
      "hit": false,
      "t": 61587.578437501674,
      "d": 5.040312500001164,
      "v": 56
    },
    {
      "midi": 64,
      "hit": false,
      "t": 61592.618750001675,
      "d": 25.20156250000582,
      "v": 60
    },
    {
      "midi": 46,
      "hit": false,
      "t": 61693.42500000168,
      "d": 5.040312500001164,
      "v": 70
    },
    {
      "midi": 60,
      "hit": false,
      "t": 61693.42500000168,
      "d": 15.120937500003492,
      "v": 58
    },
    {
      "midi": 28,
      "hit": false,
      "t": 61693.42500000168,
      "d": 196.57218750000902,
      "v": 83
    },
    {
      "midi": 62,
      "hit": false,
      "t": 61693.42500000168,
      "d": 216.7334375000064,
      "v": 104
    },
    {
      "midi": 64,
      "hit": false,
      "t": 61703.50562500168,
      "d": 5.040312500001164,
      "v": 56
    },
    {
      "midi": 60,
      "hit": false,
      "t": 61814.39250000168,
      "d": 5.040312500001164,
      "v": 92
    },
    {
      "midi": 63,
      "hit": false,
      "t": 61834.55375000169,
      "d": 5.040312500001164,
      "v": 80
    },
    {
      "midi": 44,
      "hit": false,
      "t": 61935.36000000168,
      "d": 5.040312500001164,
      "v": 64
    },
    {
      "midi": 35,
      "hit": false,
      "t": 61935.36000000168,
      "d": 105.84656250000262,
      "v": 87
    },
    {
      "midi": 38,
      "hit": false,
      "t": 61935.36000000168,
      "d": 176.41093750001892,
      "v": 101
    },
    {
      "midi": 50,
      "hit": false,
      "t": 61935.36000000168,
      "d": 650.200312500041,
      "v": 104
    },
    {
      "midi": 60,
      "hit": false,
      "t": 62056.32750000169,
      "d": 5.040312500001164,
      "v": 85
    },
    {
      "midi": 55,
      "hit": false,
      "t": 62056.32750000169,
      "d": 30.241875000006985,
      "v": 56
    },
    {
      "midi": 60,
      "hit": false,
      "t": 62066.40812500169,
      "d": 25.20156250000582,
      "v": 50
    },
    {
      "midi": 64,
      "hit": false,
      "t": 62076.48875000169,
      "d": 30.241875000006985,
      "v": 33
    },
    {
      "midi": 46,
      "hit": false,
      "t": 62172.2546875017,
      "d": 5.040312500001164,
      "v": 69
    },
    {
      "midi": 62,
      "hit": false,
      "t": 62177.2950000017,
      "d": 5.040312500001164,
      "v": 91
    },
    {
      "midi": 60,
      "hit": false,
      "t": 62187.3756250017,
      "d": 95.76593750000029,
      "v": 57
    },
    {
      "midi": 64,
      "hit": false,
      "t": 62197.456250001705,
      "d": 60.48374999999942,
      "v": 36
    },
    {
      "midi": 60,
      "hit": false,
      "t": 62298.26250000171,
      "d": 10.080625000002328,
      "v": 88
    },
    {
      "midi": 55,
      "hit": false,
      "t": 62298.26250000171,
      "d": 20.161250000004657,
      "v": 96
    },
    {
      "midi": 60,
      "hit": false,
      "t": 62308.34312500171,
      "d": 20.161250000004657,
      "v": 89
    },
    {
      "midi": 64,
      "hit": false,
      "t": 62318.42375000171,
      "d": 15.120937500003492,
      "v": 84
    },
    {
      "midi": 44,
      "hit": false,
      "t": 62414.18968750171,
      "d": 5.040312500001164,
      "v": 71
    },
    {
      "midi": 40,
      "hit": false,
      "t": 62419.23000000171,
      "d": 70.56437500000175,
      "v": 94
    },
    {
      "midi": 35,
      "hit": false,
      "t": 62419.23000000171,
      "d": 105.84656250000262,
      "v": 87
    },
    {
      "midi": 38,
      "hit": false,
      "t": 62419.23000000171,
      "d": 166.3303125000093,
      "v": 99
    },
    {
      "midi": 60,
      "hit": false,
      "t": 62540.19750000172,
      "d": 10.080625000002328,
      "v": 88
    },
    {
      "midi": 46,
      "hit": false,
      "t": 62661.165000001725,
      "d": 5.040312500001164,
      "v": 61
    },
    {
      "midi": 63,
      "hit": false,
      "t": 62661.165000001725,
      "d": 5.040312500001164,
      "v": 47
    },
    {
      "midi": 57,
      "hit": false,
      "t": 62661.165000001725,
      "d": 650.2003125000338,
      "v": 104
    },
    {
      "midi": 60,
      "hit": false,
      "t": 62671.24562500173,
      "d": 95.76593750000029,
      "v": 76
    },
    {
      "midi": 63,
      "hit": false,
      "t": 62782.13250000173,
      "d": 5.040312500001164,
      "v": 85
    },
    {
      "midi": 60,
      "hit": false,
      "t": 62782.13250000173,
      "d": 10.080625000002328,
      "v": 92
    },
    {
      "midi": 55,
      "hit": false,
      "t": 62782.13250000173,
      "d": 15.120937500003492,
      "v": 36
    },
    {
      "midi": 31,
      "hit": false,
      "t": 62787.17281250173,
      "d": 5.040312500001164,
      "v": 39
    },
    {
      "midi": 60,
      "hit": false,
      "t": 62792.213125001734,
      "d": 15.120937500003492,
      "v": 46
    },
    {
      "midi": 64,
      "hit": false,
      "t": 62802.293750001736,
      "d": 15.120937500003492,
      "v": 30
    },
    {
      "midi": 44,
      "hit": false,
      "t": 62903.10000000174,
      "d": 5.040312500001164,
      "v": 64
    },
    {
      "midi": 35,
      "hit": false,
      "t": 62903.10000000174,
      "d": 90.7256250000064,
      "v": 86
    },
    {
      "midi": 55,
      "hit": false,
      "t": 62903.10000000174,
      "d": 95.76593750000757,
      "v": 13
    },
    {
      "midi": 38,
      "hit": false,
      "t": 62903.10000000174,
      "d": 115.92718750000495,
      "v": 94
    },
    {
      "midi": 31,
      "hit": false,
      "t": 63024.06750000174,
      "d": 5.040312500001164,
      "v": 30
    },
    {
      "midi": 60,
      "hit": false,
      "t": 63024.06750000174,
      "d": 10.080625000002328,
      "v": 91
    },
    {
      "midi": 55,
      "hit": false,
      "t": 63024.06750000174,
      "d": 20.161250000004657,
      "v": 80
    },
    {
      "midi": 60,
      "hit": false,
      "t": 63034.148125001746,
      "d": 20.161250000004657,
      "v": 68
    },
    {
      "midi": 64,
      "hit": false,
      "t": 63044.22875000175,
      "d": 20.161250000004657,
      "v": 75
    },
    {
      "midi": 46,
      "hit": false,
      "t": 63145.03500000175,
      "d": 5.040312500001164,
      "v": 70
    },
    {
      "midi": 62,
      "hit": false,
      "t": 63145.03500000175,
      "d": 5.040312500001164,
      "v": 85
    },
    {
      "midi": 60,
      "hit": false,
      "t": 63145.03500000175,
      "d": 105.84656250000262,
      "v": 79
    },
    {
      "midi": 38,
      "hit": false,
      "t": 63145.03500000175,
      "d": 156.24968750000698,
      "v": 102
    },
    {
      "midi": 60,
      "hit": false,
      "t": 63266.002500001756,
      "d": 10.080625000002328,
      "v": 91
    },
    {
      "midi": 40,
      "hit": false,
      "t": 63386.970000001755,
      "d": 65.52406250000786,
      "v": 91
    },
    {
      "midi": 35,
      "hit": false,
      "t": 63386.970000001755,
      "d": 90.7256250000064,
      "v": 86
    },
    {
      "midi": 55,
      "hit": false,
      "t": 63386.970000001755,
      "d": 181.4512500000128,
      "v": 96
    },
    {
      "midi": 52,
      "hit": false,
      "t": 63386.970000001755,
      "d": 433.4668750000201,
      "v": 104
    },
    {
      "midi": 44,
      "hit": false,
      "t": 63392.010312501756,
      "d": 5.040312500001164,
      "v": 71
    },
    {
      "midi": 62,
      "hit": false,
      "t": 63507.93750000176,
      "d": 5.040312500001164,
      "v": 62
    },
    {
      "midi": 60,
      "hit": false,
      "t": 63507.93750000176,
      "d": 10.080625000002328,
      "v": 47
    },
    {
      "midi": 64,
      "hit": false,
      "t": 63518.01812500176,
      "d": 25.20156250000582,
      "v": 52
    },
    {
      "midi": 46,
      "hit": false,
      "t": 63628.90500000177,
      "d": 5.040312500001164,
      "v": 70
    },
    {
      "midi": 63,
      "hit": false,
      "t": 63628.90500000177,
      "d": 5.040312500001164,
      "v": 53
    },
    {
      "midi": 60,
      "hit": false,
      "t": 63628.90500000177,
      "d": 15.120937500003492,
      "v": 58
    },
    {
      "midi": 64,
      "hit": false,
      "t": 63749.87250000177,
      "d": 5.040312500001164,
      "v": 74
    },
    {
      "midi": 38,
      "hit": false,
      "t": 63749.87250000177,
      "d": 5.040312500001164,
      "v": 72
    },
    {
      "midi": 60,
      "hit": false,
      "t": 63749.87250000177,
      "d": 5.040312500001164,
      "v": 92
    },
    {
      "midi": 44,
      "hit": false,
      "t": 63870.84000000177,
      "d": 5.040312500001164,
      "v": 71
    },
    {
      "midi": 35,
      "hit": false,
      "t": 63870.84000000177,
      "d": 90.7256250000064,
      "v": 79
    },
    {
      "midi": 38,
      "hit": false,
      "t": 63870.84000000177,
      "d": 171.37062500001775,
      "v": 96
    },
    {
      "midi": 50,
      "hit": false,
      "t": 63870.84000000177,
      "d": 650.2003125000338,
      "v": 104
    },
    {
      "midi": 62,
      "hit": false,
      "t": 63991.80750000178,
      "d": 10.080625000002328,
      "v": 90
    },
    {
      "midi": 57,
      "hit": false,
      "t": 63991.80750000178,
      "d": 30.241875000006985,
      "v": 56
    },
    {
      "midi": 62,
      "hit": false,
      "t": 64001.88812500178,
      "d": 25.20156250000582,
      "v": 50
    },
    {
      "midi": 66,
      "hit": false,
      "t": 64011.96875000178,
      "d": 30.241875000006985,
      "v": 33
    },
    {
      "midi": 46,
      "hit": false,
      "t": 64107.73468750179,
      "d": 5.040312500001164,
      "v": 74
    },
    {
      "midi": 62,
      "hit": false,
      "t": 64112.77500000179,
      "d": 5.040312500001164,
      "v": 85
    },
    {
      "midi": 62,
      "hit": false,
      "t": 64122.855625001794,
      "d": 95.76593750000029,
      "v": 57
    },
    {
      "midi": 62,
      "hit": false,
      "t": 64233.7425000018,
      "d": 10.080625000002328,
      "v": 92
    },
    {
      "midi": 57,
      "hit": false,
      "t": 64233.7425000018,
      "d": 20.161250000004657,
      "v": 96
    },
    {
      "midi": 62,
      "hit": false,
      "t": 64243.8231250018,
      "d": 20.161250000004657,
      "v": 89
    },
    {
      "midi": 66,
      "hit": false,
      "t": 64253.9037500018,
      "d": 15.120937500003492,
      "v": 84
    },
    {
      "midi": 44,
      "hit": false,
      "t": 64354.7100000018,
      "d": 5.040312500001164,
      "v": 61
    },
    {
      "midi": 40,
      "hit": false,
      "t": 64354.7100000018,
      "d": 65.52406250000058,
      "v": 91
    },
    {
      "midi": 35,
      "hit": false,
      "t": 64354.7100000018,
      "d": 90.72562499999913,
      "v": 79
    },
    {
      "midi": 38,
      "hit": false,
      "t": 64354.7100000018,
      "d": 176.41093750000437,
      "v": 96
    },
    {
      "midi": 69,
      "hit": false,
      "t": 64354.7100000018,
      "d": 433.4668750000201,
      "v": 104
    },
    {
      "midi": 62,
      "hit": false,
      "t": 64475.6775000018,
      "d": 10.080625000002328,
      "v": 91
    },
    {
      "midi": 46,
      "hit": false,
      "t": 64591.60468750181,
      "d": 5.040312500001164,
      "v": 67
    },
    {
      "midi": 63,
      "hit": false,
      "t": 64596.64500000181,
      "d": 5.040312500001164,
      "v": 37
    },
    {
      "midi": 57,
      "hit": false,
      "t": 64596.64500000181,
      "d": 236.89468750001834,
      "v": 90
    },
    {
      "midi": 54,
      "hit": false,
      "t": 64596.64500000181,
      "d": 650.200312500041,
      "v": 104
    },
    {
      "midi": 62,
      "hit": false,
      "t": 64606.72562500181,
      "d": 5.040312500001164,
      "v": 81
    },
    {
      "midi": 63,
      "hit": false,
      "t": 64717.612500001815,
      "d": 5.040312500001164,
      "v": 80
    },
    {
      "midi": 62,
      "hit": false,
      "t": 64717.612500001815,
      "d": 5.040312500001164,
      "v": 30
    },
    {
      "midi": 38,
      "hit": false,
      "t": 64717.612500001815,
      "d": 15.120937500003492,
      "v": 86
    },
    {
      "midi": 31,
      "hit": false,
      "t": 64722.652812501816,
      "d": 5.040312500001164,
      "v": 39
    },
    {
      "midi": 66,
      "hit": false,
      "t": 64727.69312500182,
      "d": 30.241875000006985,
      "v": 30
    },
    {
      "midi": 44,
      "hit": false,
      "t": 64838.58000000183,
      "d": 5.040312500001164,
      "v": 71
    },
    {
      "midi": 35,
      "hit": false,
      "t": 64838.58000000183,
      "d": 90.72562499999913,
      "v": 86
    },
    {
      "midi": 38,
      "hit": false,
      "t": 64838.58000000183,
      "d": 95.76593750000029,
      "v": 94
    },
    {
      "midi": 62,
      "hit": false,
      "t": 64959.54750000183,
      "d": 10.080625000002328,
      "v": 95
    },
    {
      "midi": 57,
      "hit": false,
      "t": 64959.54750000183,
      "d": 20.161250000004657,
      "v": 91
    },
    {
      "midi": 62,
      "hit": false,
      "t": 64969.62812500183,
      "d": 25.20156250000582,
      "v": 82
    },
    {
      "midi": 66,
      "hit": false,
      "t": 64979.70875000183,
      "d": 50.403125000004366,
      "v": 86
    },
    {
      "midi": 46,
      "hit": false,
      "t": 65075.47468750184,
      "d": 5.040312500001164,
      "v": 64
    },
    {
      "midi": 62,
      "hit": false,
      "t": 65080.51500000184,
      "d": 5.040312500001164,
      "v": 78
    },
    {
      "midi": 38,
      "hit": false,
      "t": 65080.51500000184,
      "d": 166.3303125000093,
      "v": 97
    },
    {
      "midi": 62,
      "hit": false,
      "t": 65201.482500001846,
      "d": 10.080625000002328,
      "v": 97
    },
    {
      "midi": 44,
      "hit": false,
      "t": 65322.450000001845,
      "d": 5.040312500001164,
      "v": 71
    },
    {
      "midi": 40,
      "hit": false,
      "t": 65322.450000001845,
      "d": 65.52406250000786,
      "v": 94
    },
    {
      "midi": 35,
      "hit": false,
      "t": 65322.450000001845,
      "d": 90.7256250000064,
      "v": 86
    },
    {
      "midi": 50,
      "hit": false,
      "t": 65322.450000001845,
      "d": 433.4668750000128,
      "v": 104
    },
    {
      "midi": 64,
      "hit": false,
      "t": 65322.450000001845,
      "d": 433.4668750000128,
      "v": 104
    },
    {
      "midi": 62,
      "hit": false,
      "t": 65443.41750000185,
      "d": 5.040312500001164,
      "v": 62
    },
    {
      "midi": 57,
      "hit": false,
      "t": 65443.41750000185,
      "d": 10.080625000002328,
      "v": 76
    },
    {
      "midi": 38,
      "hit": false,
      "t": 65443.41750000185,
      "d": 15.120937500003492,
      "v": 86
    },
    {
      "midi": 62,
      "hit": false,
      "t": 65453.49812500185,
      "d": 15.120937500003492,
      "v": 65
    },
    {
      "midi": 66,
      "hit": false,
      "t": 65463.578750001856,
      "d": 15.120937500003492,
      "v": 69
    },
    {
      "midi": 46,
      "hit": false,
      "t": 65564.38500000186,
      "d": 5.040312500001164,
      "v": 70
    },
    {
      "midi": 63,
      "hit": false,
      "t": 65564.38500000186,
      "d": 5.040312500001164,
      "v": 55
    },
    {
      "midi": 62,
      "hit": false,
      "t": 65564.38500000186,
      "d": 105.84656249999534,
      "v": 63
    },
    {
      "midi": 33,
      "hit": false,
      "t": 65564.38500000186,
      "d": 196.57218750000175,
      "v": 83
    },
    {
      "midi": 63,
      "hit": false,
      "t": 65685.35250000186,
      "d": 5.040312500001164,
      "v": 70
    },
    {
      "midi": 62,
      "hit": false,
      "t": 65685.35250000186,
      "d": 5.040312500001164,
      "v": 92
    },
    {
      "midi": 44,
      "hit": false,
      "t": 65806.32000000186,
      "d": 5.040312500001164,
      "v": 71
    },
    {
      "midi": 35,
      "hit": false,
      "t": 65806.32000000186,
      "d": 90.7256250000064,
      "v": 87
    },
    {
      "midi": 47,
      "hit": false,
      "t": 65806.32000000186,
      "d": 650.2003125000483,
      "v": 104
    },
    {
      "midi": 59,
      "hit": false,
      "t": 65927.28750000187,
      "d": 5.040312500001164,
      "v": 91
    },
    {
      "midi": 57,
      "hit": false,
      "t": 65927.28750000187,
      "d": 30.241875000006985,
      "v": 46
    },
    {
      "midi": 63,
      "hit": false,
      "t": 65937.36812500187,
      "d": 30.241875000006985,
      "v": 26
    },
    {
      "midi": 46,
      "hit": false,
      "t": 66048.25500000188,
      "d": 5.040312500001164,
      "v": 70
    },
    {
      "midi": 62,
      "hit": false,
      "t": 66048.25500000188,
      "d": 5.040312500001164,
      "v": 63
    },
    {
      "midi": 59,
      "hit": false,
      "t": 66048.25500000188,
      "d": 105.84656249999534,
      "v": 80
    },
    {
      "midi": 59,
      "hit": false,
      "t": 66169.22250000188,
      "d": 5.040312500001164,
      "v": 91
    },
    {
      "midi": 54,
      "hit": false,
      "t": 66169.22250000188,
      "d": 20.161250000004657,
      "v": 77
    },
    {
      "midi": 57,
      "hit": false,
      "t": 66179.30312500188,
      "d": 25.20156250000582,
      "v": 73
    },
    {
      "midi": 63,
      "hit": false,
      "t": 66189.38375000189,
      "d": 20.161250000004657,
      "v": 85
    },
    {
      "midi": 44,
      "hit": false,
      "t": 66290.1900000019,
      "d": 5.040312500001164,
      "v": 64
    },
    {
      "midi": 40,
      "hit": false,
      "t": 66290.1900000019,
      "d": 75.60468750000291,
      "v": 94
    },
    {
      "midi": 35,
      "hit": false,
      "t": 66290.1900000019,
      "d": 90.7256250000064,
      "v": 87
    },
    {
      "midi": 59,
      "hit": false,
      "t": 66411.15750000191,
      "d": 5.040312500001164,
      "v": 92
    },
    {
      "midi": 63,
      "hit": false,
      "t": 66527.0846875019,
      "d": 5.040312500001164,
      "v": 46
    },
    {
      "midi": 46,
      "hit": false,
      "t": 66532.1250000019,
      "d": 5.040312500001164,
      "v": 70
    },
    {
      "midi": 59,
      "hit": false,
      "t": 66532.1250000019,
      "d": 15.120937500003492,
      "v": 66
    },
    {
      "midi": 59,
      "hit": false,
      "t": 66653.0925000019,
      "d": 5.040312500001164,
      "v": 95
    },
    {
      "midi": 54,
      "hit": false,
      "t": 66653.0925000019,
      "d": 20.161250000004657,
      "v": 51
    },
    {
      "midi": 31,
      "hit": false,
      "t": 66658.1328125019,
      "d": 5.040312500001164,
      "v": 28
    },
    {
      "midi": 57,
      "hit": false,
      "t": 66663.17312500191,
      "d": 20.161250000004657,
      "v": 46
    },
    {
      "midi": 63,
      "hit": false,
      "t": 66668.21343750191,
      "d": 5.040312500001164,
      "v": 85
    },
    {
      "midi": 63,
      "hit": false,
      "t": 66673.25375000191,
      "d": 20.161250000004657,
      "v": 38
    },
    {
      "midi": 44,
      "hit": false,
      "t": 66774.06000000192,
      "d": 5.040312500001164,
      "v": 64
    },
    {
      "midi": 35,
      "hit": false,
      "t": 66774.06000000192,
      "d": 95.76593750000757,
      "v": 87
    },
    {
      "midi": 59,
      "hit": false,
      "t": 66895.02750000193,
      "d": 5.040312500001164,
      "v": 93
    },
    {
      "midi": 54,
      "hit": false,
      "t": 66895.02750000193,
      "d": 10.080625000002328,
      "v": 64
    },
    {
      "midi": 31,
      "hit": false,
      "t": 66900.06781250193,
      "d": 5.040312500001164,
      "v": 39
    },
    {
      "midi": 57,
      "hit": false,
      "t": 66905.10812500193,
      "d": 20.161250000004657,
      "v": 58
    },
    {
      "midi": 63,
      "hit": false,
      "t": 66915.18875000194,
      "d": 20.161250000004657,
      "v": 69
    },
    {
      "midi": 62,
      "hit": false,
      "t": 67010.95468750194,
      "d": 5.040312500001164,
      "v": 85
    },
    {
      "midi": 46,
      "hit": false,
      "t": 67015.99500000195,
      "d": 5.040312500001164,
      "v": 70
    },
    {
      "midi": 59,
      "hit": false,
      "t": 67015.99500000195,
      "d": 105.84656249999534,
      "v": 77
    },
    {
      "midi": 35,
      "hit": false,
      "t": 67015.99500000195,
      "d": 156.24968750000698,
      "v": 102
    },
    {
      "midi": 59,
      "hit": false,
      "t": 67136.96250000194,
      "d": 10.080625000002328,
      "v": 95
    },
    {
      "midi": 44,
      "hit": false,
      "t": 67257.93000000196,
      "d": 5.040312500001164,
      "v": 64
    },
    {
      "midi": 40,
      "hit": false,
      "t": 67257.93000000196,
      "d": 60.48374999999942,
      "v": 94
    },
    {
      "midi": 35,
      "hit": false,
      "t": 67257.93000000196,
      "d": 95.76593749999302,
      "v": 87
    },
    {
      "midi": 47,
      "hit": false,
      "t": 67257.93000000196,
      "d": 433.4668750000128,
      "v": 104
    },
    {
      "midi": 66,
      "hit": false,
      "t": 67257.93000000196,
      "d": 433.4668750000128,
      "v": 104
    },
    {
      "midi": 62,
      "hit": false,
      "t": 67373.85718750196,
      "d": 5.040312500001164,
      "v": 58
    },
    {
      "midi": 59,
      "hit": false,
      "t": 67378.89750000196,
      "d": 5.040312500001164,
      "v": 94
    },
    {
      "midi": 54,
      "hit": false,
      "t": 67378.89750000196,
      "d": 20.161250000004657,
      "v": 70
    },
    {
      "midi": 57,
      "hit": false,
      "t": 67388.97812500196,
      "d": 20.161250000004657,
      "v": 57
    },
    {
      "midi": 63,
      "hit": false,
      "t": 67399.05875000196,
      "d": 20.161250000004657,
      "v": 66
    },
    {
      "midi": 63,
      "hit": false,
      "t": 67494.82468750197,
      "d": 5.040312500001164,
      "v": 55
    },
    {
      "midi": 46,
      "hit": false,
      "t": 67499.86500000197,
      "d": 5.040312500001164,
      "v": 70
    },
    {
      "midi": 59,
      "hit": false,
      "t": 67499.86500000197,
      "d": 105.84656249999534,
      "v": 74
    },
    {
      "midi": 31,
      "hit": false,
      "t": 67504.90531250197,
      "d": 5.040312500001164,
      "v": 37
    },
    {
      "midi": 64,
      "hit": false,
      "t": 67620.83250000197,
      "d": 5.040312500001164,
      "v": 78
    },
    {
      "midi": 33,
      "hit": false,
      "t": 67620.83250000197,
      "d": 5.040312500001164,
      "v": 72
    },
    {
      "midi": 59,
      "hit": false,
      "t": 67620.83250000197,
      "d": 5.040312500001164,
      "v": 100
    },
    {
      "midi": 31,
      "hit": false,
      "t": 67625.87281250197,
      "d": 5.040312500001164,
      "v": 46
    },
    {
      "midi": 44,
      "hit": false,
      "t": 67741.80000000197,
      "d": 5.040312500001164,
      "v": 64
    },
    {
      "midi": 59,
      "hit": false,
      "t": 67741.80000000197,
      "d": 5.040312500001164,
      "v": 95
    },
    {
      "midi": 35,
      "hit": false,
      "t": 67741.80000000197,
      "d": 105.8465625000099,
      "v": 87
    },
    {
      "midi": 28,
      "hit": false,
      "t": 67741.80000000197,
      "d": 231.85437500002445,
      "v": 89
    },
    {
      "midi": 67,
      "hit": false,
      "t": 67741.80000000197,
      "d": 433.46687500002736,
      "v": 104
    },
    {
      "midi": 52,
      "hit": false,
      "t": 67741.80000000197,
      "d": 650.2003125000192,
      "v": 104
    },
    {
      "midi": 55,
      "hit": false,
      "t": 67862.76750000198,
      "d": 15.120937500003492,
      "v": 35
    },
    {
      "midi": 59,
      "hit": false,
      "t": 67872.84812500198,
      "d": 15.120937500003492,
      "v": 38
    },
    {
      "midi": 64,
      "hit": false,
      "t": 67882.92875000199,
      "d": 15.120937500003492,
      "v": 38
    },
    {
      "midi": 46,
      "hit": false,
      "t": 67978.694687502,
      "d": 5.040312500001164,
      "v": 69
    },
    {
      "midi": 62,
      "hit": false,
      "t": 67983.735000002,
      "d": 5.040312500001164,
      "v": 91
    },
    {
      "midi": 59,
      "hit": false,
      "t": 67983.735000002,
      "d": 5.040312500001164,
      "v": 104
    },
    {
      "midi": 28,
      "hit": false,
      "t": 67983.735000002,
      "d": 231.85437499999534,
      "v": 89
    },
    {
      "midi": 63,
      "hit": false,
      "t": 68104.702500002,
      "d": 5.040312500001164,
      "v": 91
    },
    {
      "midi": 55,
      "hit": false,
      "t": 68104.702500002,
      "d": 20.161250000004657,
      "v": 89
    },
    {
      "midi": 59,
      "hit": false,
      "t": 68114.783125002,
      "d": 20.161250000004657,
      "v": 76
    },
    {
      "midi": 64,
      "hit": false,
      "t": 68124.863750002,
      "d": 5.040312500001164,
      "v": 90
    },
    {
      "midi": 44,
      "hit": false,
      "t": 68220.62968750199,
      "d": 5.040312500001164,
      "v": 71
    },
    {
      "midi": 40,
      "hit": false,
      "t": 68225.67000000199,
      "d": 70.56437500000175,
      "v": 94
    },
    {
      "midi": 35,
      "hit": false,
      "t": 68225.67000000199,
      "d": 105.84656249999534,
      "v": 87
    },
    {
      "midi": 31,
      "hit": false,
      "t": 68225.67000000199,
      "d": 231.85437499999534,
      "v": 101
    },
    {
      "midi": 64,
      "hit": false,
      "t": 68346.63750000199,
      "d": 5.040312500001164,
      "v": 91
    },
    {
      "midi": 46,
      "hit": false,
      "t": 68467.60500000199,
      "d": 5.040312500001164,
      "v": 61
    },
    {
      "midi": 63,
      "hit": false,
      "t": 68467.60500000199,
      "d": 5.040312500001164,
      "v": 47
    },
    {
      "midi": 31,
      "hit": false,
      "t": 68467.60500000199,
      "d": 231.85437500002445,
      "v": 101
    },
    {
      "midi": 59,
      "hit": false,
      "t": 68477.68562500199,
      "d": 95.76593750000757,
      "v": 78
    },
    {
      "midi": 63,
      "hit": false,
      "t": 68588.572500002,
      "d": 5.040312500001164,
      "v": 85
    },
    {
      "midi": 59,
      "hit": false,
      "t": 68588.572500002,
      "d": 5.040312500001164,
      "v": 107
    },
    {
      "midi": 55,
      "hit": false,
      "t": 68588.572500002,
      "d": 10.080625000002328,
      "v": 48
    },
    {
      "midi": 59,
      "hit": false,
      "t": 68598.653125002,
      "d": 110.88687500001106,
      "v": 60
    },
    {
      "midi": 64,
      "hit": false,
      "t": 68608.73375000201,
      "d": 10.080625000002328,
      "v": 52
    },
    {
      "midi": 40,
      "hit": false,
      "t": 68709.54000000202,
      "d": 5.040312500001164,
      "v": 93
    },
    {
      "midi": 44,
      "hit": false,
      "t": 68709.54000000202,
      "d": 5.040312500001164,
      "v": 64
    },
    {
      "midi": 59,
      "hit": false,
      "t": 68709.54000000202,
      "d": 5.040312500001164,
      "v": 40
    },
    {
      "midi": 35,
      "hit": false,
      "t": 68709.54000000202,
      "d": 90.7256250000064,
      "v": 86
    },
    {
      "midi": 67,
      "hit": false,
      "t": 68709.54000000202,
      "d": 433.46687500002736,
      "v": 104
    },
    {
      "midi": 62,
      "hit": false,
      "t": 68830.50750000203,
      "d": 5.040312500001164,
      "v": 91
    },
    {
      "midi": 59,
      "hit": false,
      "t": 68830.50750000203,
      "d": 5.040312500001164,
      "v": 104
    },
    {
      "midi": 55,
      "hit": false,
      "t": 68830.50750000203,
      "d": 10.080625000002328,
      "v": 66
    },
    {
      "midi": 59,
      "hit": false,
      "t": 68840.58812500203,
      "d": 25.20156250000582,
      "v": 58
    },
    {
      "midi": 64,
      "hit": false,
      "t": 68850.66875000203,
      "d": 20.161250000004657,
      "v": 68
    },
    {
      "midi": 40,
      "hit": false,
      "t": 68951.47500000204,
      "d": 5.040312500001164,
      "v": 64
    },
    {
      "midi": 64,
      "hit": false,
      "t": 68951.47500000204,
      "d": 5.040312500001164,
      "v": 78
    },
    {
      "midi": 59,
      "hit": false,
      "t": 68951.47500000204,
      "d": 5.040312500001164,
      "v": 104
    },
    {
      "midi": 35,
      "hit": false,
      "t": 68951.47500000204,
      "d": 236.8946874999965,
      "v": 82
    },
    {
      "midi": 40,
      "hit": false,
      "t": 69072.44250000204,
      "d": 5.040312500001164,
      "v": 87
    },
    {
      "midi": 64,
      "hit": false,
      "t": 69072.44250000204,
      "d": 5.040312500001164,
      "v": 78
    },
    {
      "midi": 43,
      "hit": false,
      "t": 69193.41000000204,
      "d": 5.040312500001164,
      "v": 86
    },
    {
      "midi": 64,
      "hit": false,
      "t": 69193.41000000204,
      "d": 5.040312500001164,
      "v": 82
    },
    {
      "midi": 35,
      "hit": false,
      "t": 69193.41000000204,
      "d": 90.7256250000064,
      "v": 86
    },
    {
      "midi": 50,
      "hit": false,
      "t": 69193.41000000204,
      "d": 433.46687500002736,
      "v": 104
    },
    {
      "midi": 69,
      "hit": false,
      "t": 69193.41000000204,
      "d": 433.46687500002736,
      "v": 104
    },
    {
      "midi": 44,
      "hit": false,
      "t": 69198.45031250204,
      "d": 5.040312500001164,
      "v": 71
    },
    {
      "midi": 40,
      "hit": false,
      "t": 69314.37750000205,
      "d": 5.040312500001164,
      "v": 73
    },
    {
      "midi": 62,
      "hit": false,
      "t": 69314.37750000205,
      "d": 5.040312500001164,
      "v": 93
    },
    {
      "midi": 55,
      "hit": false,
      "t": 69314.37750000205,
      "d": 30.241875000006985,
      "v": 43
    },
    {
      "midi": 59,
      "hit": false,
      "t": 69324.45812500206,
      "d": 25.20156250000582,
      "v": 75
    },
    {
      "midi": 64,
      "hit": false,
      "t": 69334.53875000206,
      "d": 25.20156250000582,
      "v": 60
    },
    {
      "midi": 40,
      "hit": false,
      "t": 69435.34500000207,
      "d": 5.040312500001164,
      "v": 95
    },
    {
      "midi": 35,
      "hit": false,
      "t": 69445.42562500207,
      "d": 221.77374999999302,
      "v": 76
    },
    {
      "midi": 59,
      "hit": false,
      "t": 69556.31250000207,
      "d": 5.040312500001164,
      "v": 96
    },
    {
      "midi": 57,
      "hit": false,
      "t": 69672.23968750206,
      "d": 5.040312500001164,
      "v": 79
    },
    {
      "midi": 44,
      "hit": false,
      "t": 69677.28000000207,
      "d": 5.040312500001164,
      "v": 64
    },
    {
      "midi": 60,
      "hit": false,
      "t": 69677.28000000207,
      "d": 5.040312500001164,
      "v": 85
    },
    {
      "midi": 35,
      "hit": false,
      "t": 69677.28000000207,
      "d": 105.8465625000099,
      "v": 87
    },
    {
      "midi": 36,
      "hit": false,
      "t": 69677.28000000207,
      "d": 176.4109375000262,
      "v": 101
    },
    {
      "midi": 71,
      "hit": false,
      "t": 69677.28000000207,
      "d": 322.58000000003085,
      "v": 104
    },
    {
      "midi": 48,
      "hit": false,
      "t": 69677.28000000207,
      "d": 650.2003125000483,
      "v": 104
    },
    {
      "midi": 55,
      "hit": false,
      "t": 69798.24750000208,
      "d": 30.241875000006985,
      "v": 56
    },
    {
      "midi": 59,
      "hit": false,
      "t": 69808.32812500208,
      "d": 25.20156250000582,
      "v": 50
    },
    {
      "midi": 64,
      "hit": false,
      "t": 69818.40875000208,
      "d": 30.241875000006985,
      "v": 33
    },
    {
      "midi": 46,
      "hit": false,
      "t": 69914.17468750209,
      "d": 5.040312500001164,
      "v": 69
    },
    {
      "midi": 62,
      "hit": false,
      "t": 69919.21500000209,
      "d": 5.040312500001164,
      "v": 91
    },
    {
      "midi": 60,
      "hit": false,
      "t": 69919.21500000209,
      "d": 5.040312500001164,
      "v": 94
    },
    {
      "midi": 55,
      "hit": false,
      "t": 70040.18250000209,
      "d": 20.161250000004657,
      "v": 96
    },
    {
      "midi": 59,
      "hit": false,
      "t": 70050.2631250021,
      "d": 20.161250000004657,
      "v": 89
    },
    {
      "midi": 64,
      "hit": false,
      "t": 70060.3437500021,
      "d": 15.120937500003492,
      "v": 84
    },
    {
      "midi": 44,
      "hit": false,
      "t": 70156.1096875021,
      "d": 5.040312500001164,
      "v": 71
    },
    {
      "midi": 40,
      "hit": false,
      "t": 70161.1500000021,
      "d": 70.56437500000175,
      "v": 94
    },
    {
      "midi": 60,
      "hit": false,
      "t": 70161.1500000021,
      "d": 85.68531250000524,
      "v": 100
    },
    {
      "midi": 35,
      "hit": false,
      "t": 70161.1500000021,
      "d": 105.8465625000099,
      "v": 87
    },
    {
      "midi": 36,
      "hit": false,
      "t": 70161.1500000021,
      "d": 166.3303125000093,
      "v": 99
    },
    {
      "midi": 60,
      "hit": false,
      "t": 70282.11750000212,
      "d": 10.080625000002328,
      "v": 100
    },
    {
      "midi": 46,
      "hit": false,
      "t": 70403.0850000021,
      "d": 5.040312500001164,
      "v": 61
    },
    {
      "midi": 63,
      "hit": false,
      "t": 70403.0850000021,
      "d": 5.040312500001164,
      "v": 47
    },
    {
      "midi": 63,
      "hit": false,
      "t": 70524.0525000021,
      "d": 5.040312500001164,
      "v": 85
    },
    {
      "midi": 60,
      "hit": false,
      "t": 70524.0525000021,
      "d": 5.040312500001164,
      "v": 95
    },
    {
      "midi": 55,
      "hit": false,
      "t": 70524.0525000021,
      "d": 15.120937500003492,
      "v": 36
    },
    {
      "midi": 31,
      "hit": false,
      "t": 70529.0928125021,
      "d": 5.040312500001164,
      "v": 42
    },
    {
      "midi": 59,
      "hit": false,
      "t": 70534.1331250021,
      "d": 15.120937500003492,
      "v": 46
    },
    {
      "midi": 64,
      "hit": false,
      "t": 70544.2137500021,
      "d": 15.120937500003492,
      "v": 30
    },
    {
      "midi": 44,
      "hit": false,
      "t": 70645.02000000211,
      "d": 5.040312500001164,
      "v": 64
    },
    {
      "midi": 60,
      "hit": false,
      "t": 70645.02000000211,
      "d": 5.040312500001164,
      "v": 92
    },
    {
      "midi": 35,
      "hit": false,
      "t": 70645.02000000211,
      "d": 90.7256250000064,
      "v": 86
    },
    {
      "midi": 55,
      "hit": false,
      "t": 70645.02000000211,
      "d": 95.76593750000757,
      "v": 13
    },
    {
      "midi": 36,
      "hit": false,
      "t": 70645.02000000211,
      "d": 115.92718750001222,
      "v": 94
    },
    {
      "midi": 31,
      "hit": false,
      "t": 70765.98750000213,
      "d": 5.040312500001164,
      "v": 39
    },
    {
      "midi": 60,
      "hit": false,
      "t": 70765.98750000213,
      "d": 5.040312500001164,
      "v": 94
    },
    {
      "midi": 55,
      "hit": false,
      "t": 70765.98750000213,
      "d": 20.161250000004657,
      "v": 80
    },
    {
      "midi": 59,
      "hit": false,
      "t": 70776.06812500213,
      "d": 20.161250000004657,
      "v": 68
    },
    {
      "midi": 64,
      "hit": false,
      "t": 70786.14875000213,
      "d": 20.161250000004657,
      "v": 75
    },
    {
      "midi": 46,
      "hit": false,
      "t": 70886.95500000214,
      "d": 5.040312500001164,
      "v": 70
    },
    {
      "midi": 62,
      "hit": false,
      "t": 70886.95500000214,
      "d": 5.040312500001164,
      "v": 85
    },
    {
      "midi": 60,
      "hit": false,
      "t": 70886.95500000214,
      "d": 5.040312500001164,
      "v": 94
    },
    {
      "midi": 36,
      "hit": false,
      "t": 70886.95500000214,
      "d": 156.24968750000698,
      "v": 102
    },
    {
      "midi": 40,
      "hit": false,
      "t": 71128.89000000215,
      "d": 65.52406250000058,
      "v": 91
    },
    {
      "midi": 35,
      "hit": false,
      "t": 71128.89000000215,
      "d": 90.7256250000064,
      "v": 86
    },
    {
      "midi": 60,
      "hit": false,
      "t": 71128.89000000215,
      "d": 100.80625000000873,
      "v": 100
    },
    {
      "midi": 55,
      "hit": false,
      "t": 71128.89000000215,
      "d": 181.45125000002736,
      "v": 96
    },
    {
      "midi": 48,
      "hit": false,
      "t": 71128.89000000215,
      "d": 433.46687500002736,
      "v": 104
    },
    {
      "midi": 44,
      "hit": false,
      "t": 71133.93031250215,
      "d": 5.040312500001164,
      "v": 71
    },
    {
      "midi": 62,
      "hit": false,
      "t": 71249.85750000217,
      "d": 5.040312500001164,
      "v": 62
    },
    {
      "midi": 60,
      "hit": false,
      "t": 71249.85750000217,
      "d": 5.040312500001164,
      "v": 100
    },
    {
      "midi": 59,
      "hit": false,
      "t": 71249.85750000217,
      "d": 25.20156250000582,
      "v": 47
    },
    {
      "midi": 64,
      "hit": false,
      "t": 71259.93812500217,
      "d": 25.20156250000582,
      "v": 52
    },
    {
      "midi": 46,
      "hit": false,
      "t": 71370.82500000218,
      "d": 5.040312500001164,
      "v": 70
    },
    {
      "midi": 63,
      "hit": false,
      "t": 71370.82500000218,
      "d": 5.040312500001164,
      "v": 53
    },
    {
      "midi": 64,
      "hit": false,
      "t": 71491.79250000218,
      "d": 5.040312500001164,
      "v": 74
    },
    {
      "midi": 35,
      "hit": false,
      "t": 71491.79250000218,
      "d": 5.040312500001164,
      "v": 72
    },
    {
      "midi": 60,
      "hit": false,
      "t": 71491.79250000218,
      "d": 5.040312500001164,
      "v": 88
    },
    {
      "midi": 44,
      "hit": false,
      "t": 71612.76000000218,
      "d": 5.040312500001164,
      "v": 71
    },
    {
      "midi": 60,
      "hit": false,
      "t": 71612.76000000218,
      "d": 5.040312500001164,
      "v": 100
    },
    {
      "midi": 35,
      "hit": false,
      "t": 71612.76000000218,
      "d": 90.7256250000064,
      "v": 79
    },
    {
      "midi": 38,
      "hit": false,
      "t": 71612.76000000218,
      "d": 171.37062500002503,
      "v": 96
    },
    {
      "midi": 71,
      "hit": false,
      "t": 71612.76000000218,
      "d": 322.58000000003085,
      "v": 104
    },
    {
      "midi": 50,
      "hit": false,
      "t": 71612.76000000218,
      "d": 650.2003125000483,
      "v": 104
    },
    {
      "midi": 55,
      "hit": false,
      "t": 71733.72750000219,
      "d": 30.241875000006985,
      "v": 56
    },
    {
      "midi": 59,
      "hit": false,
      "t": 71743.8081250022,
      "d": 25.20156250000582,
      "v": 50
    },
    {
      "midi": 64,
      "hit": false,
      "t": 71753.8887500022,
      "d": 30.241875000006985,
      "v": 33
    },
    {
      "midi": 46,
      "hit": false,
      "t": 71849.6546875022,
      "d": 5.040312500001164,
      "v": 74
    },
    {
      "midi": 62,
      "hit": false,
      "t": 71854.6950000022,
      "d": 5.040312500001164,
      "v": 85
    },
    {
      "midi": 60,
      "hit": false,
      "t": 71854.6950000022,
      "d": 5.040312500001164,
      "v": 100
    },
    {
      "midi": 55,
      "hit": false,
      "t": 71975.6625000022,
      "d": 20.161250000004657,
      "v": 96
    },
    {
      "midi": 59,
      "hit": false,
      "t": 71985.7431250022,
      "d": 20.161250000004657,
      "v": 89
    },
    {
      "midi": 64,
      "hit": false,
      "t": 71995.82375000221,
      "d": 15.120937500003492,
      "v": 84
    },
    {
      "midi": 44,
      "hit": false,
      "t": 72096.63000000222,
      "d": 5.040312500001164,
      "v": 61
    },
    {
      "midi": 40,
      "hit": false,
      "t": 72096.63000000222,
      "d": 65.52406250000058,
      "v": 91
    },
    {
      "midi": 35,
      "hit": false,
      "t": 72096.63000000222,
      "d": 90.7256250000064,
      "v": 79
    },
    {
      "midi": 60,
      "hit": false,
      "t": 72096.63000000222,
      "d": 90.7256250000064,
      "v": 97
    },
    {
      "midi": 38,
      "hit": false,
      "t": 72096.63000000222,
      "d": 176.41093750001164,
      "v": 96
    },
    {
      "midi": 60,
      "hit": false,
      "t": 72217.59750000223,
      "d": 5.040312500001164,
      "v": 100
    },
    {
      "midi": 46,
      "hit": false,
      "t": 72333.52468750223,
      "d": 5.040312500001164,
      "v": 67
    },
    {
      "midi": 63,
      "hit": false,
      "t": 72338.56500000223,
      "d": 5.040312500001164,
      "v": 37
    },
    {
      "midi": 55,
      "hit": false,
      "t": 72338.56500000223,
      "d": 236.89468750001106,
      "v": 90
    },
    {
      "midi": 63,
      "hit": false,
      "t": 72459.53250000223,
      "d": 5.040312500001164,
      "v": 80
    },
    {
      "midi": 60,
      "hit": false,
      "t": 72459.53250000223,
      "d": 5.040312500001164,
      "v": 91
    },
    {
      "midi": 38,
      "hit": false,
      "t": 72459.53250000223,
      "d": 15.120937500003492,
      "v": 86
    },
    {
      "midi": 59,
      "hit": false,
      "t": 72459.53250000223,
      "d": 30.241875000006985,
      "v": 30
    },
    {
      "midi": 31,
      "hit": false,
      "t": 72464.57281250223,
      "d": 5.040312500001164,
      "v": 39
    },
    {
      "midi": 64,
      "hit": false,
      "t": 72469.61312500223,
      "d": 30.241875000006985,
      "v": 30
    },
    {
      "midi": 44,
      "hit": false,
      "t": 72580.50000000224,
      "d": 5.040312500001164,
      "v": 71
    },
    {
      "midi": 60,
      "hit": false,
      "t": 72580.50000000224,
      "d": 5.040312500001164,
      "v": 95
    },
    {
      "midi": 35,
      "hit": false,
      "t": 72580.50000000224,
      "d": 90.7256250000064,
      "v": 86
    },
    {
      "midi": 38,
      "hit": false,
      "t": 72580.50000000224,
      "d": 95.76593750000757,
      "v": 94
    },
    {
      "midi": 60,
      "hit": false,
      "t": 72701.46750000225,
      "d": 5.040312500001164,
      "v": 95
    },
    {
      "midi": 55,
      "hit": false,
      "t": 72701.46750000225,
      "d": 20.161250000004657,
      "v": 91
    },
    {
      "midi": 59,
      "hit": false,
      "t": 72711.54812500226,
      "d": 25.20156250000582,
      "v": 82
    },
    {
      "midi": 64,
      "hit": false,
      "t": 72721.62875000226,
      "d": 50.40312499999709,
      "v": 86
    },
    {
      "midi": 46,
      "hit": false,
      "t": 72817.39468750225,
      "d": 5.040312500001164,
      "v": 64
    },
    {
      "midi": 62,
      "hit": false,
      "t": 72822.43500000225,
      "d": 5.040312500001164,
      "v": 78
    },
    {
      "midi": 38,
      "hit": false,
      "t": 72822.43500000225,
      "d": 166.33031249999476,
      "v": 97
    },
    {
      "midi": 60,
      "hit": false,
      "t": 72943.40250000225,
      "d": 5.040312500001164,
      "v": 95
    },
    {
      "midi": 44,
      "hit": false,
      "t": 73064.37000000225,
      "d": 5.040312500001164,
      "v": 71
    },
    {
      "midi": 40,
      "hit": false,
      "t": 73064.37000000225,
      "d": 65.52406250000058,
      "v": 94
    },
    {
      "midi": 35,
      "hit": false,
      "t": 73064.37000000225,
      "d": 90.7256250000064,
      "v": 86
    },
    {
      "midi": 60,
      "hit": false,
      "t": 73064.37000000225,
      "d": 95.76593750000757,
      "v": 97
    },
    {
      "midi": 66,
      "hit": false,
      "t": 73064.37000000225,
      "d": 216.73343750002095,
      "v": 104
    },
    {
      "midi": 50,
      "hit": false,
      "t": 73064.37000000225,
      "d": 433.46687500002736,
      "v": 104
    },
    {
      "midi": 62,
      "hit": false,
      "t": 73185.33750000226,
      "d": 5.040312500001164,
      "v": 62
    },
    {
      "midi": 60,
      "hit": false,
      "t": 73185.33750000226,
      "d": 5.040312500001164,
      "v": 97
    },
    {
      "midi": 55,
      "hit": false,
      "t": 73185.33750000226,
      "d": 10.080625000002328,
      "v": 76
    },
    {
      "midi": 38,
      "hit": false,
      "t": 73185.33750000226,
      "d": 15.120937500003492,
      "v": 86
    },
    {
      "midi": 59,
      "hit": false,
      "t": 73195.41812500227,
      "d": 15.120937500003492,
      "v": 65
    },
    {
      "midi": 64,
      "hit": false,
      "t": 73205.49875000227,
      "d": 15.120937500003492,
      "v": 69
    },
    {
      "midi": 46,
      "hit": false,
      "t": 73306.30500000228,
      "d": 5.040312500001164,
      "v": 70
    },
    {
      "midi": 63,
      "hit": false,
      "t": 73306.30500000228,
      "d": 5.040312500001164,
      "v": 55
    },
    {
      "midi": 60,
      "hit": false,
      "t": 73306.30500000228,
      "d": 5.040312500001164,
      "v": 97
    },
    {
      "midi": 38,
      "hit": false,
      "t": 73306.30500000228,
      "d": 196.57218750000175,
      "v": 83
    },
    {
      "midi": 67,
      "hit": false,
      "t": 73306.30500000228,
      "d": 650.2003125000338,
      "v": 104
    },
    {
      "midi": 63,
      "hit": false,
      "t": 73427.27250000228,
      "d": 5.040312500001164,
      "v": 70
    },
    {
      "midi": 60,
      "hit": false,
      "t": 73427.27250000228,
      "d": 5.040312500001164,
      "v": 97
    },
    {
      "midi": 44,
      "hit": false,
      "t": 73548.24000000228,
      "d": 5.040312500001164,
      "v": 71
    },
    {
      "midi": 59,
      "hit": false,
      "t": 73548.24000000228,
      "d": 5.040312500001164,
      "v": 94
    },
    {
      "midi": 35,
      "hit": false,
      "t": 73548.24000000228,
      "d": 90.7256250000064,
      "v": 87
    },
    {
      "midi": 31,
      "hit": false,
      "t": 73548.24000000228,
      "d": 176.4109375000262,
      "v": 101
    },
    {
      "midi": 59,
      "hit": false,
      "t": 73669.20750000229,
      "d": 30.241875000006985,
      "v": 46
    },
    {
      "midi": 62,
      "hit": false,
      "t": 73679.28812500229,
      "d": 30.241875000006985,
      "v": 26
    },
    {
      "midi": 46,
      "hit": false,
      "t": 73790.1750000023,
      "d": 5.040312500001164,
      "v": 70
    },
    {
      "midi": 62,
      "hit": false,
      "t": 73790.1750000023,
      "d": 5.040312500001164,
      "v": 63
    },
    {
      "midi": 59,
      "hit": false,
      "t": 73790.1750000023,
      "d": 5.040312500001164,
      "v": 85
    },
    {
      "midi": 55,
      "hit": false,
      "t": 73911.1425000023,
      "d": 20.161250000004657,
      "v": 77
    },
    {
      "midi": 59,
      "hit": false,
      "t": 73921.2231250023,
      "d": 25.20156250000582,
      "v": 73
    },
    {
      "midi": 62,
      "hit": false,
      "t": 73931.3037500023,
      "d": 20.161250000004657,
      "v": 85
    },
    {
      "midi": 44,
      "hit": false,
      "t": 74032.11000000231,
      "d": 5.040312500001164,
      "v": 64
    },
    {
      "midi": 40,
      "hit": false,
      "t": 74032.11000000231,
      "d": 75.60468750000291,
      "v": 94
    },
    {
      "midi": 35,
      "hit": false,
      "t": 74032.11000000231,
      "d": 90.7256250000064,
      "v": 87
    },
    {
      "midi": 59,
      "hit": false,
      "t": 74032.11000000231,
      "d": 105.8465625000099,
      "v": 94
    },
    {
      "midi": 31,
      "hit": false,
      "t": 74032.11000000231,
      "d": 166.3303125000093,
      "v": 99
    },
    {
      "midi": 50,
      "hit": false,
      "t": 74032.11000000231,
      "d": 433.46687500002736,
      "v": 104
    },
    {
      "midi": 59,
      "hit": false,
      "t": 74153.07750000233,
      "d": 5.040312500001164,
      "v": 100
    },
    {
      "midi": 63,
      "hit": false,
      "t": 74269.00468750233,
      "d": 5.040312500001164,
      "v": 46
    },
    {
      "midi": 46,
      "hit": false,
      "t": 74274.04500000233,
      "d": 5.040312500001164,
      "v": 70
    },
    {
      "midi": 79,
      "hit": false,
      "t": 74274.04500000233,
      "d": 650.2003125000483,
      "v": 104
    },
    {
      "midi": 59,
      "hit": false,
      "t": 74395.01250000233,
      "d": 5.040312500001164,
      "v": 88
    },
    {
      "midi": 55,
      "hit": false,
      "t": 74395.01250000233,
      "d": 20.161250000004657,
      "v": 51
    },
    {
      "midi": 31,
      "hit": false,
      "t": 74400.05281250233,
      "d": 5.040312500001164,
      "v": 28
    },
    {
      "midi": 59,
      "hit": false,
      "t": 74405.09312500233,
      "d": 20.161250000004657,
      "v": 46
    },
    {
      "midi": 63,
      "hit": false,
      "t": 74410.13343750233,
      "d": 5.040312500001164,
      "v": 85
    },
    {
      "midi": 62,
      "hit": false,
      "t": 74415.17375000233,
      "d": 20.161250000004657,
      "v": 38
    },
    {
      "midi": 44,
      "hit": false,
      "t": 74515.98000000234,
      "d": 5.040312500001164,
      "v": 64
    },
    {
      "midi": 59,
      "hit": false,
      "t": 74515.98000000234,
      "d": 5.040312500001164,
      "v": 94
    },
    {
      "midi": 35,
      "hit": false,
      "t": 74515.98000000234,
      "d": 95.76593750000757,
      "v": 87
    },
    {
      "midi": 31,
      "hit": false,
      "t": 74515.98000000234,
      "d": 115.92718750001222,
      "v": 94
    },
    {
      "midi": 43,
      "hit": false,
      "t": 74515.98000000234,
      "d": 433.4668750000419,
      "v": 104
    },
    {
      "midi": 55,
      "hit": false,
      "t": 74636.94750000235,
      "d": 10.080625000002328,
      "v": 64
    },
    {
      "midi": 31,
      "hit": false,
      "t": 74641.98781250235,
      "d": 5.040312500001164,
      "v": 39
    },
    {
      "midi": 59,
      "hit": false,
      "t": 74647.02812500235,
      "d": 20.161250000004657,
      "v": 58
    },
    {
      "midi": 62,
      "hit": false,
      "t": 74657.10875000236,
      "d": 20.161250000004657,
      "v": 69
    },
    {
      "midi": 62,
      "hit": false,
      "t": 74752.87468750236,
      "d": 5.040312500001164,
      "v": 85
    },
    {
      "midi": 46,
      "hit": false,
      "t": 74757.91500000237,
      "d": 5.040312500001164,
      "v": 70
    },
    {
      "midi": 59,
      "hit": false,
      "t": 74757.91500000237,
      "d": 5.040312500001164,
      "v": 93
    },
    {
      "midi": 31,
      "hit": false,
      "t": 74757.91500000237,
      "d": 156.24968750000698,
      "v": 102
    },
    {
      "midi": 44,
      "hit": false,
      "t": 74999.85000000238,
      "d": 5.040312500001164,
      "v": 64
    },
    {
      "midi": 40,
      "hit": false,
      "t": 74999.85000000238,
      "d": 60.48374999999942,
      "v": 94
    },
    {
      "midi": 35,
      "hit": false,
      "t": 74999.85000000238,
      "d": 95.76593749999302,
      "v": 87
    },
    {
      "midi": 50,
      "hit": false,
      "t": 74999.85000000238,
      "d": 433.4668750000128,
      "v": 104
    },
    {
      "midi": 74,
      "hit": false,
      "t": 74999.85000000238,
      "d": 650.2003125000338,
      "v": 104
    },
    {
      "midi": 59,
      "hit": false,
      "t": 75009.93062500238,
      "d": 95.76593749999302,
      "v": 76
    },
    {
      "midi": 62,
      "hit": false,
      "t": 75115.77718750238,
      "d": 5.040312500001164,
      "v": 58
    },
    {
      "midi": 59,
      "hit": false,
      "t": 75120.81750000238,
      "d": 5.040312500001164,
      "v": 100
    },
    {
      "midi": 55,
      "hit": false,
      "t": 75120.81750000238,
      "d": 20.161250000004657,
      "v": 70
    },
    {
      "midi": 59,
      "hit": false,
      "t": 75130.89812500238,
      "d": 20.161250000004657,
      "v": 57
    },
    {
      "midi": 62,
      "hit": false,
      "t": 75140.97875000238,
      "d": 20.161250000004657,
      "v": 66
    },
    {
      "midi": 63,
      "hit": false,
      "t": 75236.74468750239,
      "d": 5.040312500001164,
      "v": 55
    },
    {
      "midi": 46,
      "hit": false,
      "t": 75241.78500000239,
      "d": 5.040312500001164,
      "v": 70
    },
    {
      "midi": 31,
      "hit": false,
      "t": 75246.82531250239,
      "d": 5.040312500001164,
      "v": 37
    },
    {
      "midi": 64,
      "hit": false,
      "t": 75362.75250000239,
      "d": 5.040312500001164,
      "v": 78
    },
    {
      "midi": 43,
      "hit": false,
      "t": 75362.75250000239,
      "d": 5.040312500001164,
      "v": 72
    },
    {
      "midi": 59,
      "hit": false,
      "t": 75362.75250000239,
      "d": 5.040312500001164,
      "v": 92
    },
    {
      "midi": 31,
      "hit": false,
      "t": 75367.79281250239,
      "d": 5.040312500001164,
      "v": 46
    },
    {
      "midi": 44,
      "hit": false,
      "t": 75483.72000000239,
      "d": 5.040312500001164,
      "v": 64
    },
    {
      "midi": 59,
      "hit": false,
      "t": 75483.72000000239,
      "d": 5.040312500001164,
      "v": 95
    },
    {
      "midi": 35,
      "hit": false,
      "t": 75483.72000000239,
      "d": 105.8465625000099,
      "v": 87
    },
    {
      "midi": 38,
      "hit": false,
      "t": 75483.72000000239,
      "d": 231.85437500002445,
      "v": 89
    },
    {
      "midi": 55,
      "hit": false,
      "t": 75604.6875000024,
      "d": 15.120937500003492,
      "v": 35
    },
    {
      "midi": 59,
      "hit": false,
      "t": 75614.7681250024,
      "d": 15.120937500003492,
      "v": 38
    },
    {
      "midi": 62,
      "hit": false,
      "t": 75624.8487500024,
      "d": 15.120937500003492,
      "v": 38
    },
    {
      "midi": 46,
      "hit": false,
      "t": 75720.61468750241,
      "d": 5.040312500001164,
      "v": 69
    },
    {
      "midi": 62,
      "hit": false,
      "t": 75725.65500000241,
      "d": 5.040312500001164,
      "v": 91
    },
    {
      "midi": 59,
      "hit": false,
      "t": 75725.65500000241,
      "d": 5.040312500001164,
      "v": 104
    },
    {
      "midi": 38,
      "hit": false,
      "t": 75725.65500000241,
      "d": 191.53187500000058,
      "v": 89
    },
    {
      "midi": 83,
      "hit": false,
      "t": 75725.65500000241,
      "d": 650.2003125000192,
      "v": 104
    },
    {
      "midi": 63,
      "hit": false,
      "t": 75846.62250000241,
      "d": 5.040312500001164,
      "v": 91
    },
    {
      "midi": 55,
      "hit": false,
      "t": 75846.62250000241,
      "d": 20.161250000004657,
      "v": 89
    },
    {
      "midi": 59,
      "hit": false,
      "t": 75856.70312500242,
      "d": 20.161250000004657,
      "v": 76
    },
    {
      "midi": 62,
      "hit": false,
      "t": 75866.78375000242,
      "d": 5.040312500001164,
      "v": 90
    },
    {
      "midi": 44,
      "hit": false,
      "t": 75962.54968750241,
      "d": 5.040312500001164,
      "v": 71
    },
    {
      "midi": 40,
      "hit": false,
      "t": 75967.59000000241,
      "d": 70.56437500000175,
      "v": 94
    },
    {
      "midi": 35,
      "hit": false,
      "t": 75967.59000000241,
      "d": 105.84656249999534,
      "v": 87
    },
    {
      "midi": 38,
      "hit": false,
      "t": 75967.59000000241,
      "d": 231.85437499999534,
      "v": 101
    },
    {
      "midi": 50,
      "hit": false,
      "t": 75967.59000000241,
      "d": 433.46687500002736,
      "v": 104
    },
    {
      "midi": 64,
      "hit": false,
      "t": 76088.55750000241,
      "d": 5.040312500001164,
      "v": 91
    },
    {
      "midi": 46,
      "hit": false,
      "t": 76209.52500000241,
      "d": 5.040312500001164,
      "v": 61
    },
    {
      "midi": 63,
      "hit": false,
      "t": 76209.52500000241,
      "d": 5.040312500001164,
      "v": 47
    },
    {
      "midi": 38,
      "hit": false,
      "t": 76209.52500000241,
      "d": 231.85437500002445,
      "v": 101
    },
    {
      "midi": 59,
      "hit": false,
      "t": 76219.60562500241,
      "d": 95.76593750000757,
      "v": 78
    },
    {
      "midi": 63,
      "hit": false,
      "t": 76330.49250000242,
      "d": 5.040312500001164,
      "v": 85
    },
    {
      "midi": 59,
      "hit": false,
      "t": 76330.49250000242,
      "d": 5.040312500001164,
      "v": 107
    },
    {
      "midi": 55,
      "hit": false,
      "t": 76330.49250000242,
      "d": 10.080625000002328,
      "v": 48
    },
    {
      "midi": 31,
      "hit": false,
      "t": 76335.53281250242,
      "d": 5.040312500001164,
      "v": 52
    },
    {
      "midi": 59,
      "hit": false,
      "t": 76340.57312500243,
      "d": 110.88687500001106,
      "v": 60
    },
    {
      "midi": 62,
      "hit": false,
      "t": 76350.65375000243,
      "d": 10.080625000002328,
      "v": 52
    },
    {
      "midi": 44,
      "hit": false,
      "t": 76451.46000000244,
      "d": 5.040312500001164,
      "v": 64
    },
    {
      "midi": 59,
      "hit": false,
      "t": 76451.46000000244,
      "d": 5.040312500001164,
      "v": 40
    },
    {
      "midi": 35,
      "hit": false,
      "t": 76451.46000000244,
      "d": 90.7256250000064,
      "v": 86
    },
    {
      "midi": 50,
      "hit": false,
      "t": 76451.46000000244,
      "d": 231.85437500002445,
      "v": 82
    },
    {
      "midi": 38,
      "hit": false,
      "t": 76451.46000000244,
      "d": 433.46687500002736,
      "v": 104
    },
    {
      "midi": 81,
      "hit": false,
      "t": 76451.46000000244,
      "d": 433.46687500002736,
      "v": 104
    },
    {
      "midi": 40,
      "hit": false,
      "t": 76572.42750000245,
      "d": 5.040312500001164,
      "v": 82
    },
    {
      "midi": 62,
      "hit": false,
      "t": 76572.42750000245,
      "d": 5.040312500001164,
      "v": 91
    },
    {
      "midi": 59,
      "hit": false,
      "t": 76572.42750000245,
      "d": 5.040312500001164,
      "v": 104
    },
    {
      "midi": 55,
      "hit": false,
      "t": 76572.42750000245,
      "d": 10.080625000002328,
      "v": 66
    },
    {
      "midi": 59,
      "hit": false,
      "t": 76582.50812500245,
      "d": 25.20156250000582,
      "v": 58
    },
    {
      "midi": 62,
      "hit": false,
      "t": 76592.58875000245,
      "d": 20.161250000004657,
      "v": 68
    },
    {
      "midi": 46,
      "hit": false,
      "t": 76693.39500000246,
      "d": 5.040312500001164,
      "v": 68
    },
    {
      "midi": 64,
      "hit": false,
      "t": 76693.39500000246,
      "d": 5.040312500001164,
      "v": 78
    },
    {
      "midi": 59,
      "hit": false,
      "t": 76693.39500000246,
      "d": 5.040312500001164,
      "v": 104
    },
    {
      "midi": 50,
      "hit": false,
      "t": 76693.39500000246,
      "d": 236.8946874999965,
      "v": 82
    },
    {
      "midi": 64,
      "hit": false,
      "t": 76814.36250000246,
      "d": 5.040312500001164,
      "v": 78
    },
    {
      "midi": 40,
      "hit": false,
      "t": 76935.33000000246,
      "d": 5.040312500001164,
      "v": 98
    },
    {
      "midi": 64,
      "hit": false,
      "t": 76935.33000000246,
      "d": 5.040312500001164,
      "v": 82
    },
    {
      "midi": 35,
      "hit": false,
      "t": 76935.33000000246,
      "d": 90.7256250000064,
      "v": 86
    },
    {
      "midi": 50,
      "hit": false,
      "t": 76935.33000000246,
      "d": 241.93500000002678,
      "v": 87
    },
    {
      "midi": 44,
      "hit": false,
      "t": 76940.37031250246,
      "d": 5.040312500001164,
      "v": 71
    },
    {
      "midi": 62,
      "hit": false,
      "t": 77056.29750000247,
      "d": 5.040312500001164,
      "v": 93
    },
    {
      "midi": 55,
      "hit": false,
      "t": 77056.29750000247,
      "d": 30.241875000006985,
      "v": 43
    },
    {
      "midi": 59,
      "hit": false,
      "t": 77066.37812500248,
      "d": 25.20156250000582,
      "v": 75
    },
    {
      "midi": 62,
      "hit": false,
      "t": 77076.45875000248,
      "d": 25.20156250000582,
      "v": 60
    },
    {
      "midi": 40,
      "hit": false,
      "t": 77177.26500000249,
      "d": 5.040312500001164,
      "v": 82
    },
    {
      "midi": 64,
      "hit": false,
      "t": 77177.26500000249,
      "d": 216.7334375000064,
      "v": 104
    },
    {
      "midi": 50,
      "hit": false,
      "t": 77187.34562500249,
      "d": 181.45124999999825,
      "v": 76
    },
    {
      "midi": 40,
      "hit": false,
      "t": 77298.23250000249,
      "d": 5.040312500001164,
      "v": 82
    },
    {
      "midi": 59,
      "hit": false,
      "t": 77298.23250000249,
      "d": 5.040312500001164,
      "v": 96
    },
    {
      "midi": 57,
      "hit": false,
      "t": 77414.1596875025,
      "d": 5.040312500001164,
      "v": 79
    },
    {
      "midi": 44,
      "hit": false,
      "t": 77419.2000000025,
      "d": 5.040312500001164,
      "v": 64
    },
    {
      "midi": 59,
      "hit": false,
      "t": 77419.2000000025,
      "d": 5.040312500001164,
      "v": 85
    },
    {
      "midi": 35,
      "hit": false,
      "t": 77419.2000000025,
      "d": 105.8465625000099,
      "v": 87
    },
    {
      "midi": 31,
      "hit": false,
      "t": 77419.2000000025,
      "d": 176.4109375000262,
      "v": 101
    },
    {
      "midi": 43,
      "hit": false,
      "t": 77419.2000000025,
      "d": 650.2003125000483,
      "v": 104
    },
    {
      "midi": 55,
      "hit": false,
      "t": 77540.16750000251,
      "d": 30.241875000006985,
      "v": 56
    },
    {
      "midi": 59,
      "hit": false,
      "t": 77550.24812500252,
      "d": 25.20156250000582,
      "v": 50
    },
    {
      "midi": 62,
      "hit": false,
      "t": 77560.32875000252,
      "d": 30.241875000006985,
      "v": 33
    },
    {
      "midi": 46,
      "hit": false,
      "t": 77656.09468750253,
      "d": 5.040312500001164,
      "v": 69
    },
    {
      "midi": 62,
      "hit": false,
      "t": 77661.13500000253,
      "d": 5.040312500001164,
      "v": 91
    },
    {
      "midi": 59,
      "hit": false,
      "t": 77661.13500000253,
      "d": 5.040312500001164,
      "v": 94
    },
    {
      "midi": 62,
      "hit": false,
      "t": 77681.29625000253,
      "d": 60.48374999999942,
      "v": 36
    },
    {
      "midi": 55,
      "hit": false,
      "t": 77782.10250000253,
      "d": 20.161250000004657,
      "v": 96
    },
    {
      "midi": 59,
      "hit": false,
      "t": 77792.18312500253,
      "d": 20.161250000004657,
      "v": 89
    },
    {
      "midi": 62,
      "hit": false,
      "t": 77802.26375000253,
      "d": 15.120937500003492,
      "v": 84
    },
    {
      "midi": 44,
      "hit": false,
      "t": 77898.02968750254,
      "d": 5.040312500001164,
      "v": 71
    },
    {
      "midi": 40,
      "hit": false,
      "t": 77903.07000000254,
      "d": 70.56437500000175,
      "v": 94
    },
    {
      "midi": 59,
      "hit": false,
      "t": 77903.07000000254,
      "d": 85.68531250000524,
      "v": 100
    },
    {
      "midi": 35,
      "hit": false,
      "t": 77903.07000000254,
      "d": 105.8465625000099,
      "v": 87
    },
    {
      "midi": 31,
      "hit": false,
      "t": 77903.07000000254,
      "d": 166.3303125000093,
      "v": 99
    },
    {
      "midi": 59,
      "hit": false,
      "t": 78024.03750000255,
      "d": 10.080625000002328,
      "v": 100
    },
    {
      "midi": 46,
      "hit": false,
      "t": 78145.00500000254,
      "d": 5.040312500001164,
      "v": 61
    },
    {
      "midi": 63,
      "hit": false,
      "t": 78145.00500000254,
      "d": 5.040312500001164,
      "v": 47
    },
    {
      "midi": 50,
      "hit": false,
      "t": 78145.00500000254,
      "d": 650.2003125000483,
      "v": 104
    },
    {
      "midi": 47,
      "hit": false,
      "t": 78145.00500000254,
      "d": 650.2003125000483,
      "v": 104
    },
    {
      "midi": 63,
      "hit": false,
      "t": 78265.97250000254,
      "d": 5.040312500001164,
      "v": 85
    },
    {
      "midi": 59,
      "hit": false,
      "t": 78265.97250000254,
      "d": 5.040312500001164,
      "v": 95
    },
    {
      "midi": 55,
      "hit": false,
      "t": 78265.97250000254,
      "d": 15.120937500003492,
      "v": 36
    },
    {
      "midi": 31,
      "hit": false,
      "t": 78271.01281250254,
      "d": 5.040312500001164,
      "v": 39
    },
    {
      "midi": 59,
      "hit": false,
      "t": 78276.05312500254,
      "d": 15.120937500003492,
      "v": 46
    },
    {
      "midi": 62,
      "hit": false,
      "t": 78286.13375000254,
      "d": 15.120937500003492,
      "v": 30
    },
    {
      "midi": 44,
      "hit": false,
      "t": 78386.94000000255,
      "d": 5.040312500001164,
      "v": 64
    },
    {
      "midi": 59,
      "hit": false,
      "t": 78386.94000000255,
      "d": 5.040312500001164,
      "v": 92
    },
    {
      "midi": 35,
      "hit": false,
      "t": 78386.94000000255,
      "d": 90.7256250000064,
      "v": 86
    },
    {
      "midi": 55,
      "hit": false,
      "t": 78386.94000000255,
      "d": 95.76593750000757,
      "v": 13
    },
    {
      "midi": 31,
      "hit": false,
      "t": 78386.94000000255,
      "d": 115.92718750001222,
      "v": 94
    },
    {
      "midi": 31,
      "hit": false,
      "t": 78507.90750000256,
      "d": 5.040312500001164,
      "v": 30
    },
    {
      "midi": 59,
      "hit": false,
      "t": 78507.90750000256,
      "d": 5.040312500001164,
      "v": 94
    },
    {
      "midi": 55,
      "hit": false,
      "t": 78507.90750000256,
      "d": 20.161250000004657,
      "v": 80
    },
    {
      "midi": 59,
      "hit": false,
      "t": 78517.98812500256,
      "d": 20.161250000004657,
      "v": 68
    },
    {
      "midi": 62,
      "hit": false,
      "t": 78528.06875000257,
      "d": 20.161250000004657,
      "v": 75
    },
    {
      "midi": 46,
      "hit": false,
      "t": 78628.87500000258,
      "d": 5.040312500001164,
      "v": 70
    },
    {
      "midi": 62,
      "hit": false,
      "t": 78628.87500000258,
      "d": 5.040312500001164,
      "v": 85
    },
    {
      "midi": 59,
      "hit": false,
      "t": 78628.87500000258,
      "d": 5.040312500001164,
      "v": 94
    },
    {
      "midi": 31,
      "hit": false,
      "t": 78628.87500000258,
      "d": 156.24968750000698,
      "v": 102
    },
    {
      "midi": 40,
      "hit": false,
      "t": 78870.81000000259,
      "d": 65.52406250000058,
      "v": 91
    },
    {
      "midi": 35,
      "hit": false,
      "t": 78870.81000000259,
      "d": 90.7256250000064,
      "v": 86
    },
    {
      "midi": 55,
      "hit": false,
      "t": 78870.81000000259,
      "d": 181.45125000002736,
      "v": 96
    },
    {
      "midi": 44,
      "hit": false,
      "t": 78875.85031250259,
      "d": 5.040312500001164,
      "v": 71
    },
    {
      "midi": 59,
      "hit": false,
      "t": 78880.89062500259,
      "d": 90.7256250000064,
      "v": 82
    },
    {
      "midi": 62,
      "hit": false,
      "t": 78991.7775000026,
      "d": 5.040312500001164,
      "v": 62
    },
    {
      "midi": 59,
      "hit": false,
      "t": 78991.7775000026,
      "d": 5.040312500001164,
      "v": 47
    },
    {
      "midi": 62,
      "hit": false,
      "t": 79001.8581250026,
      "d": 25.20156250000582,
      "v": 52
    },
    {
      "midi": 46,
      "hit": false,
      "t": 79112.74500000261,
      "d": 5.040312500001164,
      "v": 70
    },
    {
      "midi": 63,
      "hit": false,
      "t": 79112.74500000261,
      "d": 5.040312500001164,
      "v": 53
    },
    {
      "midi": 64,
      "hit": false,
      "t": 79233.71250000261,
      "d": 5.040312500001164,
      "v": 74
    },
    {
      "midi": 43,
      "hit": false,
      "t": 79233.71250000261,
      "d": 5.040312500001164,
      "v": 72
    },
    {
      "midi": 59,
      "hit": false,
      "t": 79233.71250000261,
      "d": 5.040312500001164,
      "v": 88
    },
    {
      "midi": 44,
      "hit": false,
      "t": 79354.68000000261,
      "d": 5.040312500001164,
      "v": 71
    },
    {
      "midi": 61,
      "hit": false,
      "t": 79354.68000000261,
      "d": 5.040312500001164,
      "v": 100
    },
    {
      "midi": 35,
      "hit": false,
      "t": 79354.68000000261,
      "d": 90.7256250000064,
      "v": 79
    },
    {
      "midi": 34,
      "hit": false,
      "t": 79354.68000000261,
      "d": 171.37062500002503,
      "v": 96
    },
    {
      "midi": 55,
      "hit": false,
      "t": 79475.64750000263,
      "d": 30.241875000006985,
      "v": 56
    },
    {
      "midi": 61,
      "hit": false,
      "t": 79485.72812500263,
      "d": 25.20156250000582,
      "v": 50
    },
    {
      "midi": 64,
      "hit": false,
      "t": 79495.80875000263,
      "d": 30.241875000006985,
      "v": 33
    },
    {
      "midi": 46,
      "hit": false,
      "t": 79591.57468750264,
      "d": 5.040312500001164,
      "v": 74
    },
    {
      "midi": 62,
      "hit": false,
      "t": 79596.61500000264,
      "d": 5.040312500001164,
      "v": 85
    },
    {
      "midi": 61,
      "hit": false,
      "t": 79596.61500000264,
      "d": 5.040312500001164,
      "v": 100
    },
    {
      "midi": 55,
      "hit": false,
      "t": 79717.58250000264,
      "d": 20.161250000004657,
      "v": 96
    },
    {
      "midi": 61,
      "hit": false,
      "t": 79727.66312500264,
      "d": 20.161250000004657,
      "v": 89
    },
    {
      "midi": 64,
      "hit": false,
      "t": 79737.74375000264,
      "d": 15.120937500003492,
      "v": 84
    },
    {
      "midi": 44,
      "hit": false,
      "t": 79838.55000000265,
      "d": 5.040312500001164,
      "v": 61
    },
    {
      "midi": 40,
      "hit": false,
      "t": 79838.55000000265,
      "d": 65.52406250000058,
      "v": 91
    },
    {
      "midi": 35,
      "hit": false,
      "t": 79838.55000000265,
      "d": 90.7256250000064,
      "v": 79
    },
    {
      "midi": 61,
      "hit": false,
      "t": 79838.55000000265,
      "d": 90.7256250000064,
      "v": 97
    },
    {
      "midi": 34,
      "hit": false,
      "t": 79838.55000000265,
      "d": 176.41093750001164,
      "v": 96
    },
    {
      "midi": 61,
      "hit": false,
      "t": 79959.51750000266,
      "d": 5.040312500001164,
      "v": 100
    },
    {
      "midi": 46,
      "hit": false,
      "t": 80075.44468750266,
      "d": 5.040312500001164,
      "v": 67
    },
    {
      "midi": 63,
      "hit": false,
      "t": 80080.48500000266,
      "d": 5.040312500001164,
      "v": 37
    },
    {
      "midi": 55,
      "hit": false,
      "t": 80080.48500000266,
      "d": 236.89468750001106,
      "v": 90
    },
    {
      "midi": 52,
      "hit": false,
      "t": 80080.48500000266,
      "d": 650.2003125000192,
      "v": 104
    },
    {
      "midi": 49,
      "hit": false,
      "t": 80080.48500000266,
      "d": 650.2003125000192,
      "v": 104
    },
    {
      "midi": 63,
      "hit": false,
      "t": 80201.45250000266,
      "d": 5.040312500001164,
      "v": 80
    },
    {
      "midi": 61,
      "hit": false,
      "t": 80201.45250000266,
      "d": 5.040312500001164,
      "v": 30
    },
    {
      "midi": 34,
      "hit": false,
      "t": 80201.45250000266,
      "d": 15.120937500003492,
      "v": 86
    },
    {
      "midi": 31,
      "hit": false,
      "t": 80206.49281250266,
      "d": 5.040312500001164,
      "v": 39
    },
    {
      "midi": 64,
      "hit": false,
      "t": 80211.53312500266,
      "d": 30.241875000006985,
      "v": 30
    },
    {
      "midi": 44,
      "hit": false,
      "t": 80322.42000000268,
      "d": 5.040312500001164,
      "v": 71
    },
    {
      "midi": 61,
      "hit": false,
      "t": 80322.42000000268,
      "d": 5.040312500001164,
      "v": 95
    },
    {
      "midi": 35,
      "hit": false,
      "t": 80322.42000000268,
      "d": 90.7256250000064,
      "v": 86
    },
    {
      "midi": 34,
      "hit": false,
      "t": 80322.42000000268,
      "d": 95.76593750000757,
      "v": 94
    },
    {
      "midi": 66,
      "hit": false,
      "t": 80322.42000000268,
      "d": 433.4668750000128,
      "v": 104
    },
    {
      "midi": 61,
      "hit": false,
      "t": 80443.38750000269,
      "d": 5.040312500001164,
      "v": 95
    },
    {
      "midi": 55,
      "hit": false,
      "t": 80443.38750000269,
      "d": 20.161250000004657,
      "v": 91
    },
    {
      "midi": 61,
      "hit": false,
      "t": 80453.46812500269,
      "d": 25.20156250000582,
      "v": 82
    },
    {
      "midi": 64,
      "hit": false,
      "t": 80463.5487500027,
      "d": 50.40312499999709,
      "v": 86
    },
    {
      "midi": 46,
      "hit": false,
      "t": 80559.31468750269,
      "d": 5.040312500001164,
      "v": 64
    },
    {
      "midi": 62,
      "hit": false,
      "t": 80564.35500000269,
      "d": 5.040312500001164,
      "v": 78
    },
    {
      "midi": 34,
      "hit": false,
      "t": 80564.35500000269,
      "d": 166.33031249999476,
      "v": 97
    },
    {
      "midi": 61,
      "hit": false,
      "t": 80685.32250000269,
      "d": 5.040312500001164,
      "v": 95
    },
    {
      "midi": 44,
      "hit": false,
      "t": 80806.29000000269,
      "d": 5.040312500001164,
      "v": 71
    },
    {
      "midi": 40,
      "hit": false,
      "t": 80806.29000000269,
      "d": 65.52406250000058,
      "v": 94
    },
    {
      "midi": 35,
      "hit": false,
      "t": 80806.29000000269,
      "d": 90.7256250000064,
      "v": 86
    },
    {
      "midi": 67,
      "hit": false,
      "t": 80806.29000000269,
      "d": 433.46687500002736,
      "v": 104
    },
    {
      "midi": 61,
      "hit": false,
      "t": 80816.37062500269,
      "d": 85.68531250000524,
      "v": 82
    },
    {
      "midi": 62,
      "hit": false,
      "t": 80927.2575000027,
      "d": 5.040312500001164,
      "v": 62
    },
    {
      "midi": 61,
      "hit": false,
      "t": 80927.2575000027,
      "d": 5.040312500001164,
      "v": 97
    },
    {
      "midi": 55,
      "hit": false,
      "t": 80927.2575000027,
      "d": 10.080625000002328,
      "v": 76
    },
    {
      "midi": 34,
      "hit": false,
      "t": 80927.2575000027,
      "d": 15.120937500003492,
      "v": 86
    },
    {
      "midi": 61,
      "hit": false,
      "t": 80937.3381250027,
      "d": 15.120937500003492,
      "v": 65
    },
    {
      "midi": 64,
      "hit": false,
      "t": 80947.4187500027,
      "d": 15.120937500003492,
      "v": 69
    },
    {
      "midi": 46,
      "hit": false,
      "t": 81048.22500000271,
      "d": 5.040312500001164,
      "v": 70
    },
    {
      "midi": 63,
      "hit": false,
      "t": 81048.22500000271,
      "d": 5.040312500001164,
      "v": 55
    },
    {
      "midi": 61,
      "hit": false,
      "t": 81048.22500000271,
      "d": 5.040312500001164,
      "v": 97
    },
    {
      "midi": 28,
      "hit": false,
      "t": 81048.22500000271,
      "d": 196.57218750000175,
      "v": 83
    },
    {
      "midi": 63,
      "hit": false,
      "t": 81169.19250000271,
      "d": 5.040312500001164,
      "v": 70
    },
    {
      "midi": 61,
      "hit": false,
      "t": 81169.19250000271,
      "d": 5.040312500001164,
      "v": 97
    },
    {
      "midi": 44,
      "hit": false,
      "t": 81290.16000000271,
      "d": 5.040312500001164,
      "v": 71
    },
    {
      "midi": 35,
      "hit": false,
      "t": 81290.16000000271,
      "d": 90.7256250000064,
      "v": 87
    },
    {
      "midi": 33,
      "hit": false,
      "t": 81290.16000000271,
      "d": 176.4109375000262,
      "v": 101
    },
    {
      "midi": 67,
      "hit": false,
      "t": 81290.16000000271,
      "d": 322.58000000003085,
      "v": 104
    },
    {
      "midi": 45,
      "hit": false,
      "t": 81290.16000000271,
      "d": 650.2003125000629,
      "v": 104
    },
    {
      "midi": 60,
      "hit": false,
      "t": 81411.12750000272,
      "d": 5.040312500001164,
      "v": 46
    },
    {
      "midi": 64,
      "hit": false,
      "t": 81421.20812500273,
      "d": 30.241875000006985,
      "v": 26
    },
    {
      "midi": 46,
      "hit": false,
      "t": 81532.09500000274,
      "d": 5.040312500001164,
      "v": 70
    },
    {
      "midi": 62,
      "hit": false,
      "t": 81532.09500000274,
      "d": 5.040312500001164,
      "v": 63
    },
    {
      "midi": 60,
      "hit": false,
      "t": 81532.09500000274,
      "d": 105.8465625000099,
      "v": 80
    },
    {
      "midi": 60,
      "hit": false,
      "t": 81653.06250000275,
      "d": 5.040312500001164,
      "v": 91
    },
    {
      "midi": 55,
      "hit": false,
      "t": 81653.06250000275,
      "d": 20.161250000004657,
      "v": 77
    },
    {
      "midi": 60,
      "hit": false,
      "t": 81663.14312500275,
      "d": 25.20156250000582,
      "v": 73
    },
    {
      "midi": 64,
      "hit": false,
      "t": 81673.22375000275,
      "d": 20.161250000004657,
      "v": 85
    },
    {
      "midi": 44,
      "hit": false,
      "t": 81774.03000000276,
      "d": 5.040312500001164,
      "v": 64
    },
    {
      "midi": 40,
      "hit": false,
      "t": 81774.03000000276,
      "d": 75.60468750000291,
      "v": 94
    },
    {
      "midi": 35,
      "hit": false,
      "t": 81774.03000000276,
      "d": 90.7256250000064,
      "v": 87
    },
    {
      "midi": 33,
      "hit": false,
      "t": 81774.03000000276,
      "d": 166.3303125000093,
      "v": 99
    },
    {
      "midi": 60,
      "hit": false,
      "t": 81894.99750000278,
      "d": 5.040312500001164,
      "v": 92
    },
    {
      "midi": 63,
      "hit": false,
      "t": 82010.92468750276,
      "d": 5.040312500001164,
      "v": 46
    },
    {
      "midi": 46,
      "hit": false,
      "t": 82015.96500000276,
      "d": 5.040312500001164,
      "v": 70
    },
    {
      "midi": 52,
      "hit": false,
      "t": 82015.96500000276,
      "d": 650.2003125000483,
      "v": 104
    },
    {
      "midi": 60,
      "hit": false,
      "t": 82026.04562500276,
      "d": 5.040312500001164,
      "v": 78
    },
    {
      "midi": 60,
      "hit": false,
      "t": 82136.93250000276,
      "d": 5.040312500001164,
      "v": 95
    },
    {
      "midi": 55,
      "hit": false,
      "t": 82136.93250000276,
      "d": 20.161250000004657,
      "v": 51
    },
    {
      "midi": 31,
      "hit": false,
      "t": 82141.97281250276,
      "d": 5.040312500001164,
      "v": 28
    },
    {
      "midi": 60,
      "hit": false,
      "t": 82147.01312500276,
      "d": 20.161250000004657,
      "v": 46
    },
    {
      "midi": 63,
      "hit": false,
      "t": 82152.05343750276,
      "d": 5.040312500001164,
      "v": 85
    },
    {
      "midi": 64,
      "hit": false,
      "t": 82157.09375000276,
      "d": 20.161250000004657,
      "v": 38
    },
    {
      "midi": 44,
      "hit": false,
      "t": 82257.90000000277,
      "d": 5.040312500001164,
      "v": 64
    },
    {
      "midi": 35,
      "hit": false,
      "t": 82257.90000000277,
      "d": 95.76593750000757,
      "v": 87
    },
    {
      "midi": 33,
      "hit": false,
      "t": 82257.90000000277,
      "d": 115.92718750001222,
      "v": 94
    },
    {
      "midi": 60,
      "hit": false,
      "t": 82378.86750000279,
      "d": 5.040312500001164,
      "v": 93
    },
    {
      "midi": 55,
      "hit": false,
      "t": 82378.86750000279,
      "d": 10.080625000002328,
      "v": 64
    },
    {
      "midi": 31,
      "hit": false,
      "t": 82383.90781250279,
      "d": 5.040312500001164,
      "v": 39
    },
    {
      "midi": 60,
      "hit": false,
      "t": 82388.94812500279,
      "d": 20.161250000004657,
      "v": 58
    },
    {
      "midi": 64,
      "hit": false,
      "t": 82399.02875000279,
      "d": 20.161250000004657,
      "v": 69
    },
    {
      "midi": 62,
      "hit": false,
      "t": 82494.7946875028,
      "d": 5.040312500001164,
      "v": 85
    },
    {
      "midi": 46,
      "hit": false,
      "t": 82499.8350000028,
      "d": 5.040312500001164,
      "v": 70
    },
    {
      "midi": 60,
      "hit": false,
      "t": 82499.8350000028,
      "d": 105.84656249999534,
      "v": 77
    },
    {
      "midi": 33,
      "hit": false,
      "t": 82499.8350000028,
      "d": 156.24968750000698,
      "v": 102
    },
    {
      "midi": 60,
      "hit": false,
      "t": 82620.8025000028,
      "d": 10.080625000002328,
      "v": 95
    },
    {
      "midi": 44,
      "hit": false,
      "t": 82741.77000000281,
      "d": 5.040312500001164,
      "v": 64
    },
    {
      "midi": 40,
      "hit": false,
      "t": 82741.77000000281,
      "d": 60.48374999999942,
      "v": 94
    },
    {
      "midi": 35,
      "hit": false,
      "t": 82741.77000000281,
      "d": 95.76593749999302,
      "v": 87
    },
    {
      "midi": 48,
      "hit": false,
      "t": 82741.77000000281,
      "d": 433.4668750000128,
      "v": 104
    },
    {
      "midi": 62,
      "hit": false,
      "t": 82857.69718750281,
      "d": 5.040312500001164,
      "v": 58
    },
    {
      "midi": 60,
      "hit": false,
      "t": 82862.73750000281,
      "d": 5.040312500001164,
      "v": 94
    },
    {
      "midi": 55,
      "hit": false,
      "t": 82862.73750000281,
      "d": 20.161250000004657,
      "v": 70
    },
    {
      "midi": 60,
      "hit": false,
      "t": 82872.81812500281,
      "d": 20.161250000004657,
      "v": 57
    },
    {
      "midi": 64,
      "hit": false,
      "t": 82882.89875000282,
      "d": 20.161250000004657,
      "v": 66
    },
    {
      "midi": 63,
      "hit": false,
      "t": 82978.66468750282,
      "d": 5.040312500001164,
      "v": 55
    },
    {
      "midi": 46,
      "hit": false,
      "t": 82983.70500000282,
      "d": 5.040312500001164,
      "v": 70
    },
    {
      "midi": 60,
      "hit": false,
      "t": 82983.70500000282,
      "d": 105.84656249999534,
      "v": 74
    },
    {
      "midi": 31,
      "hit": false,
      "t": 82988.74531250283,
      "d": 5.040312500001164,
      "v": 37
    },
    {
      "midi": 64,
      "hit": false,
      "t": 83104.67250000282,
      "d": 5.040312500001164,
      "v": 78
    },
    {
      "midi": 43,
      "hit": false,
      "t": 83104.67250000282,
      "d": 5.040312500001164,
      "v": 72
    },
    {
      "midi": 60,
      "hit": false,
      "t": 83104.67250000282,
      "d": 5.040312500001164,
      "v": 100
    },
    {
      "midi": 31,
      "hit": false,
      "t": 83109.71281250282,
      "d": 5.040312500001164,
      "v": 46
    },
    {
      "midi": 44,
      "hit": false,
      "t": 83225.64000000282,
      "d": 5.040312500001164,
      "v": 64
    },
    {
      "midi": 35,
      "hit": false,
      "t": 83225.64000000282,
      "d": 105.8465625000099,
      "v": 87
    },
    {
      "midi": 33,
      "hit": false,
      "t": 83225.64000000282,
      "d": 171.37062500002503,
      "v": 96
    },
    {
      "midi": 45,
      "hit": false,
      "t": 83225.64000000282,
      "d": 216.73343750002095,
      "v": 104
    },
    {
      "midi": 60,
      "hit": false,
      "t": 83346.60750000284,
      "d": 5.040312500001164,
      "v": 85
    },
    {
      "midi": 55,
      "hit": false,
      "t": 83346.60750000284,
      "d": 15.120937500003492,
      "v": 35
    },
    {
      "midi": 60,
      "hit": false,
      "t": 83356.68812500284,
      "d": 15.120937500003492,
      "v": 38
    },
    {
      "midi": 64,
      "hit": false,
      "t": 83366.76875000284,
      "d": 15.120937500003492,
      "v": 38
    },
    {
      "midi": 62,
      "hit": false,
      "t": 83452.45406250285,
      "d": 5.040312500001164,
      "v": 77
    },
    {
      "midi": 46,
      "hit": false,
      "t": 83462.53468750285,
      "d": 5.040312500001164,
      "v": 69
    },
    {
      "midi": 47,
      "hit": false,
      "t": 83467.57500000285,
      "d": 216.7334375000064,
      "v": 104
    },
    {
      "midi": 60,
      "hit": false,
      "t": 83477.65562500285,
      "d": 95.76593749999302,
      "v": 54
    },
    {
      "midi": 60,
      "hit": false,
      "t": 83588.54250000285,
      "d": 10.080625000002328,
      "v": 88
    },
    {
      "midi": 55,
      "hit": false,
      "t": 83588.54250000285,
      "d": 20.161250000004657,
      "v": 89
    },
    {
      "midi": 60,
      "hit": false,
      "t": 83598.62312500285,
      "d": 20.161250000004657,
      "v": 76
    },
    {
      "midi": 64,
      "hit": false,
      "t": 83608.70375000285,
      "d": 5.040312500001164,
      "v": 90
    },
    {
      "midi": 44,
      "hit": false,
      "t": 83704.46968750286,
      "d": 5.040312500001164,
      "v": 71
    },
    {
      "midi": 40,
      "hit": false,
      "t": 83709.51000000286,
      "d": 70.56437500000175,
      "v": 94
    },
    {
      "midi": 35,
      "hit": false,
      "t": 83709.51000000286,
      "d": 105.84656249999534,
      "v": 87
    },
    {
      "midi": 33,
      "hit": false,
      "t": 83709.51000000286,
      "d": 176.4109374999971,
      "v": 96
    },
    {
      "midi": 48,
      "hit": false,
      "t": 83709.51000000286,
      "d": 216.73343749999185,
      "v": 104
    },
    {
      "midi": 60,
      "hit": false,
      "t": 83830.47750000286,
      "d": 10.080625000002328,
      "v": 88
    },
    {
      "midi": 63,
      "hit": false,
      "t": 83936.32406250286,
      "d": 5.040312500001164,
      "v": 55
    },
    {
      "midi": 46,
      "hit": false,
      "t": 83951.44500000286,
      "d": 5.040312500001164,
      "v": 61
    },
    {
      "midi": 60,
      "hit": false,
      "t": 83961.52562500286,
      "d": 95.76593750000757,
      "v": 78
    },
    {
      "midi": 63,
      "hit": false,
      "t": 84072.41250000287,
      "d": 5.040312500001164,
      "v": 88
    },
    {
      "midi": 55,
      "hit": false,
      "t": 84072.41250000287,
      "d": 10.080625000002328,
      "v": 48
    },
    {
      "midi": 60,
      "hit": false,
      "t": 84072.41250000287,
      "d": 10.080625000002328,
      "v": 92
    },
    {
      "midi": 43,
      "hit": false,
      "t": 84072.41250000287,
      "d": 15.120937500003492,
      "v": 86
    },
    {
      "midi": 31,
      "hit": false,
      "t": 84077.45281250287,
      "d": 5.040312500001164,
      "v": 39
    },
    {
      "midi": 60,
      "hit": false,
      "t": 84082.49312500287,
      "d": 110.88687500001106,
      "v": 60
    },
    {
      "midi": 64,
      "hit": false,
      "t": 84092.57375000288,
      "d": 10.080625000002328,
      "v": 52
    },
    {
      "midi": 44,
      "hit": false,
      "t": 84193.38000000289,
      "d": 5.040312500001164,
      "v": 64
    },
    {
      "midi": 60,
      "hit": false,
      "t": 84193.38000000289,
      "d": 5.040312500001164,
      "v": 40
    },
    {
      "midi": 35,
      "hit": false,
      "t": 84193.38000000289,
      "d": 90.7256250000064,
      "v": 86
    },
    {
      "midi": 33,
      "hit": false,
      "t": 84193.38000000289,
      "d": 95.76593750000757,
      "v": 94
    },
    {
      "midi": 31,
      "hit": false,
      "t": 84314.3475000029,
      "d": 5.040312500001164,
      "v": 30
    },
    {
      "midi": 55,
      "hit": false,
      "t": 84314.3475000029,
      "d": 10.080625000002328,
      "v": 66
    },
    {
      "midi": 60,
      "hit": false,
      "t": 84314.3475000029,
      "d": 10.080625000002328,
      "v": 91
    },
    {
      "midi": 60,
      "hit": false,
      "t": 84324.4281250029,
      "d": 25.20156250000582,
      "v": 58
    },
    {
      "midi": 64,
      "hit": false,
      "t": 84334.5087500029,
      "d": 20.161250000004657,
      "v": 68
    },
    {
      "midi": 62,
      "hit": false,
      "t": 84430.27468750291,
      "d": 5.040312500001164,
      "v": 68
    },
    {
      "midi": 46,
      "hit": false,
      "t": 84435.31500000291,
      "d": 5.040312500001164,
      "v": 70
    },
    {
      "midi": 60,
      "hit": false,
      "t": 84435.31500000291,
      "d": 105.84656249999534,
      "v": 79
    },
    {
      "midi": 33,
      "hit": false,
      "t": 84435.31500000291,
      "d": 166.33031249999476,
      "v": 97
    },
    {
      "midi": 60,
      "hit": false,
      "t": 84556.28250000291,
      "d": 10.080625000002328,
      "v": 91
    },
    {
      "midi": 40,
      "hit": false,
      "t": 84677.25000000291,
      "d": 65.52406250000058,
      "v": 91
    },
    {
      "midi": 35,
      "hit": false,
      "t": 84677.25000000291,
      "d": 90.7256250000064,
      "v": 86
    },
    {
      "midi": 44,
      "hit": false,
      "t": 84682.29031250291,
      "d": 5.040312500001164,
      "v": 71
    },
    {
      "midi": 60,
      "hit": false,
      "t": 84798.21750000292,
      "d": 10.080625000002328,
      "v": 93
    },
    {
      "midi": 43,
      "hit": false,
      "t": 84798.21750000292,
      "d": 15.120937500003492,
      "v": 86
    },
    {
      "midi": 55,
      "hit": false,
      "t": 84798.21750000292,
      "d": 30.241875000006985,
      "v": 43
    },
    {
      "midi": 60,
      "hit": false,
      "t": 84808.29812500293,
      "d": 25.20156250000582,
      "v": 75
    },
    {
      "midi": 62,
      "hit": false,
      "t": 84813.33843750293,
      "d": 5.040312500001164,
      "v": 56
    },
    {
      "midi": 64,
      "hit": false,
      "t": 84818.37875000293,
      "d": 25.20156250000582,
      "v": 60
    },
    {
      "midi": 46,
      "hit": false,
      "t": 84919.18500000294,
      "d": 5.040312500001164,
      "v": 70
    },
    {
      "midi": 60,
      "hit": false,
      "t": 84919.18500000294,
      "d": 15.120937500003492,
      "v": 58
    },
    {
      "midi": 28,
      "hit": false,
      "t": 84919.18500000294,
      "d": 196.57218750000175,
      "v": 83
    },
    {
      "midi": 62,
      "hit": false,
      "t": 84919.18500000294,
      "d": 216.7334375000064,
      "v": 104
    },
    {
      "midi": 64,
      "hit": false,
      "t": 84929.26562500294,
      "d": 5.040312500001164,
      "v": 56
    },
    {
      "midi": 60,
      "hit": false,
      "t": 85040.15250000294,
      "d": 5.040312500001164,
      "v": 92
    },
    {
      "midi": 63,
      "hit": false,
      "t": 85060.31375000294,
      "d": 5.040312500001164,
      "v": 80
    },
    {
      "midi": 44,
      "hit": false,
      "t": 85161.12000000295,
      "d": 5.040312500001164,
      "v": 64
    },
    {
      "midi": 35,
      "hit": false,
      "t": 85161.12000000295,
      "d": 105.8465625000099,
      "v": 87
    },
    {
      "midi": 38,
      "hit": false,
      "t": 85161.12000000295,
      "d": 176.4109375000262,
      "v": 101
    },
    {
      "midi": 50,
      "hit": false,
      "t": 85161.12000000295,
      "d": 650.2003125000483,
      "v": 104
    },
    {
      "midi": 60,
      "hit": false,
      "t": 85282.08750000296,
      "d": 5.040312500001164,
      "v": 85
    },
    {
      "midi": 55,
      "hit": false,
      "t": 85282.08750000296,
      "d": 30.241875000006985,
      "v": 56
    },
    {
      "midi": 60,
      "hit": false,
      "t": 85292.16812500297,
      "d": 25.20156250000582,
      "v": 50
    },
    {
      "midi": 64,
      "hit": false,
      "t": 85302.24875000297,
      "d": 30.241875000006985,
      "v": 33
    },
    {
      "midi": 46,
      "hit": false,
      "t": 85398.01468750297,
      "d": 5.040312500001164,
      "v": 69
    },
    {
      "midi": 62,
      "hit": false,
      "t": 85403.05500000298,
      "d": 5.040312500001164,
      "v": 91
    },
    {
      "midi": 60,
      "hit": false,
      "t": 85413.13562500298,
      "d": 95.76593750000757,
      "v": 57
    },
    {
      "midi": 64,
      "hit": false,
      "t": 85423.21625000298,
      "d": 60.48374999999942,
      "v": 36
    },
    {
      "midi": 60,
      "hit": false,
      "t": 85524.02250000299,
      "d": 10.080625000002328,
      "v": 88
    },
    {
      "midi": 55,
      "hit": false,
      "t": 85524.02250000299,
      "d": 20.161250000004657,
      "v": 96
    },
    {
      "midi": 60,
      "hit": false,
      "t": 85534.10312500299,
      "d": 20.161250000004657,
      "v": 89
    },
    {
      "midi": 64,
      "hit": false,
      "t": 85544.183750003,
      "d": 15.120937500003492,
      "v": 84
    },
    {
      "midi": 44,
      "hit": false,
      "t": 85639.949687503,
      "d": 5.040312500001164,
      "v": 71
    },
    {
      "midi": 40,
      "hit": false,
      "t": 85644.990000003,
      "d": 70.56437500000175,
      "v": 94
    },
    {
      "midi": 35,
      "hit": false,
      "t": 85644.990000003,
      "d": 105.84656249999534,
      "v": 87
    },
    {
      "midi": 38,
      "hit": false,
      "t": 85644.990000003,
      "d": 166.33031249999476,
      "v": 99
    },
    {
      "midi": 60,
      "hit": false,
      "t": 85765.957500003,
      "d": 10.080625000002328,
      "v": 88
    },
    {
      "midi": 46,
      "hit": false,
      "t": 85886.92500000299,
      "d": 5.040312500001164,
      "v": 61
    },
    {
      "midi": 63,
      "hit": false,
      "t": 85886.92500000299,
      "d": 5.040312500001164,
      "v": 47
    },
    {
      "midi": 57,
      "hit": false,
      "t": 85886.92500000299,
      "d": 650.2003125000629,
      "v": 104
    },
    {
      "midi": 60,
      "hit": false,
      "t": 85897.00562500299,
      "d": 95.76593750000757,
      "v": 76
    },
    {
      "midi": 63,
      "hit": false,
      "t": 86007.892500003,
      "d": 5.040312500001164,
      "v": 85
    },
    {
      "midi": 60,
      "hit": false,
      "t": 86007.892500003,
      "d": 10.080625000002328,
      "v": 92
    },
    {
      "midi": 55,
      "hit": false,
      "t": 86007.892500003,
      "d": 15.120937500003492,
      "v": 36
    },
    {
      "midi": 31,
      "hit": false,
      "t": 86012.932812503,
      "d": 5.040312500001164,
      "v": 39
    },
    {
      "midi": 60,
      "hit": false,
      "t": 86017.973125003,
      "d": 15.120937500003492,
      "v": 46
    },
    {
      "midi": 64,
      "hit": false,
      "t": 86028.053750003,
      "d": 15.120937500003492,
      "v": 30
    },
    {
      "midi": 44,
      "hit": false,
      "t": 86128.86000000301,
      "d": 5.040312500001164,
      "v": 64
    },
    {
      "midi": 35,
      "hit": false,
      "t": 86128.86000000301,
      "d": 90.7256250000064,
      "v": 86
    },
    {
      "midi": 55,
      "hit": false,
      "t": 86128.86000000301,
      "d": 95.76593750000757,
      "v": 13
    },
    {
      "midi": 38,
      "hit": false,
      "t": 86128.86000000301,
      "d": 115.92718750001222,
      "v": 94
    },
    {
      "midi": 31,
      "hit": false,
      "t": 86249.82750000303,
      "d": 5.040312500001164,
      "v": 30
    },
    {
      "midi": 60,
      "hit": false,
      "t": 86249.82750000303,
      "d": 10.080625000002328,
      "v": 91
    },
    {
      "midi": 55,
      "hit": false,
      "t": 86249.82750000303,
      "d": 20.161250000004657,
      "v": 80
    },
    {
      "midi": 60,
      "hit": false,
      "t": 86259.90812500303,
      "d": 20.161250000004657,
      "v": 68
    },
    {
      "midi": 64,
      "hit": false,
      "t": 86269.98875000303,
      "d": 20.161250000004657,
      "v": 75
    },
    {
      "midi": 46,
      "hit": false,
      "t": 86370.79500000304,
      "d": 5.040312500001164,
      "v": 70
    },
    {
      "midi": 62,
      "hit": false,
      "t": 86370.79500000304,
      "d": 5.040312500001164,
      "v": 85
    },
    {
      "midi": 60,
      "hit": false,
      "t": 86370.79500000304,
      "d": 105.84656249999534,
      "v": 79
    },
    {
      "midi": 38,
      "hit": false,
      "t": 86370.79500000304,
      "d": 156.24968750000698,
      "v": 102
    },
    {
      "midi": 60,
      "hit": false,
      "t": 86491.76250000304,
      "d": 10.080625000002328,
      "v": 91
    },
    {
      "midi": 40,
      "hit": false,
      "t": 86612.73000000305,
      "d": 65.52406250000058,
      "v": 91
    },
    {
      "midi": 35,
      "hit": false,
      "t": 86612.73000000305,
      "d": 90.7256250000064,
      "v": 86
    },
    {
      "midi": 55,
      "hit": false,
      "t": 86612.73000000305,
      "d": 181.45125000002736,
      "v": 96
    },
    {
      "midi": 52,
      "hit": false,
      "t": 86612.73000000305,
      "d": 433.46687500002736,
      "v": 104
    },
    {
      "midi": 44,
      "hit": false,
      "t": 86617.77031250305,
      "d": 5.040312500001164,
      "v": 71
    },
    {
      "midi": 62,
      "hit": false,
      "t": 86733.69750000307,
      "d": 5.040312500001164,
      "v": 62
    },
    {
      "midi": 60,
      "hit": false,
      "t": 86733.69750000307,
      "d": 10.080625000002328,
      "v": 47
    },
    {
      "midi": 64,
      "hit": false,
      "t": 86743.77812500307,
      "d": 25.20156250000582,
      "v": 52
    },
    {
      "midi": 46,
      "hit": false,
      "t": 86854.66500000308,
      "d": 5.040312500001164,
      "v": 70
    },
    {
      "midi": 63,
      "hit": false,
      "t": 86854.66500000308,
      "d": 5.040312500001164,
      "v": 53
    },
    {
      "midi": 60,
      "hit": false,
      "t": 86854.66500000308,
      "d": 15.120937500003492,
      "v": 58
    },
    {
      "midi": 64,
      "hit": false,
      "t": 86975.63250000308,
      "d": 5.040312500001164,
      "v": 74
    },
    {
      "midi": 38,
      "hit": false,
      "t": 86975.63250000308,
      "d": 5.040312500001164,
      "v": 72
    },
    {
      "midi": 60,
      "hit": false,
      "t": 86975.63250000308,
      "d": 5.040312500001164,
      "v": 92
    },
    {
      "midi": 44,
      "hit": false,
      "t": 87096.60000000308,
      "d": 5.040312500001164,
      "v": 71
    },
    {
      "midi": 35,
      "hit": false,
      "t": 87096.60000000308,
      "d": 90.7256250000064,
      "v": 79
    },
    {
      "midi": 38,
      "hit": false,
      "t": 87096.60000000308,
      "d": 171.37062500002503,
      "v": 96
    },
    {
      "midi": 50,
      "hit": false,
      "t": 87096.60000000308,
      "d": 650.2003125000629,
      "v": 104
    },
    {
      "midi": 62,
      "hit": false,
      "t": 87217.56750000309,
      "d": 10.080625000002328,
      "v": 90
    },
    {
      "midi": 57,
      "hit": false,
      "t": 87217.56750000309,
      "d": 30.241875000006985,
      "v": 56
    },
    {
      "midi": 62,
      "hit": false,
      "t": 87227.64812500309,
      "d": 25.20156250000582,
      "v": 50
    },
    {
      "midi": 66,
      "hit": false,
      "t": 87237.7287500031,
      "d": 30.241875000006985,
      "v": 33
    },
    {
      "midi": 46,
      "hit": false,
      "t": 87333.4946875031,
      "d": 5.040312500001164,
      "v": 74
    },
    {
      "midi": 62,
      "hit": false,
      "t": 87338.5350000031,
      "d": 5.040312500001164,
      "v": 85
    },
    {
      "midi": 62,
      "hit": false,
      "t": 87348.6156250031,
      "d": 95.76593750000757,
      "v": 57
    },
    {
      "midi": 62,
      "hit": false,
      "t": 87459.50250000312,
      "d": 10.080625000002328,
      "v": 92
    },
    {
      "midi": 57,
      "hit": false,
      "t": 87459.50250000312,
      "d": 20.161250000004657,
      "v": 96
    },
    {
      "midi": 62,
      "hit": false,
      "t": 87469.58312500312,
      "d": 20.161250000004657,
      "v": 89
    },
    {
      "midi": 66,
      "hit": false,
      "t": 87479.66375000312,
      "d": 15.120937500003492,
      "v": 84
    },
    {
      "midi": 44,
      "hit": false,
      "t": 87580.47000000313,
      "d": 5.040312500001164,
      "v": 61
    },
    {
      "midi": 40,
      "hit": false,
      "t": 87580.47000000313,
      "d": 65.52406250000058,
      "v": 91
    },
    {
      "midi": 35,
      "hit": false,
      "t": 87580.47000000313,
      "d": 90.7256250000064,
      "v": 79
    },
    {
      "midi": 38,
      "hit": false,
      "t": 87580.47000000313,
      "d": 176.41093750001164,
      "v": 96
    },
    {
      "midi": 69,
      "hit": false,
      "t": 87580.47000000313,
      "d": 433.46687500002736,
      "v": 104
    },
    {
      "midi": 62,
      "hit": false,
      "t": 87701.43750000314,
      "d": 10.080625000002328,
      "v": 91
    },
    {
      "midi": 46,
      "hit": false,
      "t": 87817.36468750314,
      "d": 5.040312500001164,
      "v": 67
    },
    {
      "midi": 63,
      "hit": false,
      "t": 87822.40500000314,
      "d": 5.040312500001164,
      "v": 37
    },
    {
      "midi": 57,
      "hit": false,
      "t": 87822.40500000314,
      "d": 236.89468750001106,
      "v": 90
    },
    {
      "midi": 54,
      "hit": false,
      "t": 87822.40500000314,
      "d": 650.2003125000192,
      "v": 104
    },
    {
      "midi": 62,
      "hit": false,
      "t": 87832.48562500314,
      "d": 5.040312500001164,
      "v": 81
    },
    {
      "midi": 63,
      "hit": false,
      "t": 87943.37250000314,
      "d": 5.040312500001164,
      "v": 80
    },
    {
      "midi": 62,
      "hit": false,
      "t": 87943.37250000314,
      "d": 5.040312500001164,
      "v": 30
    },
    {
      "midi": 38,
      "hit": false,
      "t": 87943.37250000314,
      "d": 15.120937500003492,
      "v": 86
    },
    {
      "midi": 31,
      "hit": false,
      "t": 87948.41281250314,
      "d": 5.040312500001164,
      "v": 39
    },
    {
      "midi": 66,
      "hit": false,
      "t": 87953.45312500314,
      "d": 30.241875000006985,
      "v": 30
    },
    {
      "midi": 44,
      "hit": false,
      "t": 88064.34000000315,
      "d": 5.040312500001164,
      "v": 71
    },
    {
      "midi": 35,
      "hit": false,
      "t": 88064.34000000315,
      "d": 90.7256250000064,
      "v": 86
    },
    {
      "midi": 38,
      "hit": false,
      "t": 88064.34000000315,
      "d": 95.76593750000757,
      "v": 94
    },
    {
      "midi": 62,
      "hit": false,
      "t": 88185.30750000317,
      "d": 10.080625000002328,
      "v": 95
    },
    {
      "midi": 57,
      "hit": false,
      "t": 88185.30750000317,
      "d": 20.161250000004657,
      "v": 91
    },
    {
      "midi": 62,
      "hit": false,
      "t": 88195.38812500317,
      "d": 25.20156250000582,
      "v": 82
    },
    {
      "midi": 66,
      "hit": false,
      "t": 88205.46875000317,
      "d": 50.40312499999709,
      "v": 86
    },
    {
      "midi": 46,
      "hit": false,
      "t": 88301.23468750317,
      "d": 5.040312500001164,
      "v": 64
    },
    {
      "midi": 62,
      "hit": false,
      "t": 88306.27500000317,
      "d": 5.040312500001164,
      "v": 78
    },
    {
      "midi": 38,
      "hit": false,
      "t": 88306.27500000317,
      "d": 166.33031249999476,
      "v": 97
    },
    {
      "midi": 62,
      "hit": false,
      "t": 88427.24250000317,
      "d": 10.080625000002328,
      "v": 97
    },
    {
      "midi": 44,
      "hit": false,
      "t": 88548.21000000316,
      "d": 5.040312500001164,
      "v": 71
    },
    {
      "midi": 40,
      "hit": false,
      "t": 88548.21000000316,
      "d": 65.52406250000058,
      "v": 94
    },
    {
      "midi": 35,
      "hit": false,
      "t": 88548.21000000316,
      "d": 90.7256250000064,
      "v": 86
    },
    {
      "midi": 50,
      "hit": false,
      "t": 88548.21000000316,
      "d": 433.46687500002736,
      "v": 104
    },
    {
      "midi": 64,
      "hit": false,
      "t": 88548.21000000316,
      "d": 433.46687500002736,
      "v": 104
    },
    {
      "midi": 62,
      "hit": false,
      "t": 88669.17750000318,
      "d": 5.040312500001164,
      "v": 62
    },
    {
      "midi": 57,
      "hit": false,
      "t": 88669.17750000318,
      "d": 10.080625000002328,
      "v": 76
    },
    {
      "midi": 38,
      "hit": false,
      "t": 88669.17750000318,
      "d": 15.120937500003492,
      "v": 86
    },
    {
      "midi": 62,
      "hit": false,
      "t": 88679.25812500318,
      "d": 15.120937500003492,
      "v": 65
    },
    {
      "midi": 66,
      "hit": false,
      "t": 88689.33875000318,
      "d": 15.120937500003492,
      "v": 69
    },
    {
      "midi": 46,
      "hit": false,
      "t": 88790.14500000319,
      "d": 5.040312500001164,
      "v": 70
    },
    {
      "midi": 63,
      "hit": false,
      "t": 88790.14500000319,
      "d": 5.040312500001164,
      "v": 55
    },
    {
      "midi": 62,
      "hit": false,
      "t": 88790.14500000319,
      "d": 105.84656249999534,
      "v": 63
    },
    {
      "midi": 33,
      "hit": false,
      "t": 88790.14500000319,
      "d": 196.57218750000175,
      "v": 83
    },
    {
      "midi": 63,
      "hit": false,
      "t": 88911.11250000319,
      "d": 5.040312500001164,
      "v": 70
    },
    {
      "midi": 62,
      "hit": false,
      "t": 88911.11250000319,
      "d": 5.040312500001164,
      "v": 92
    },
    {
      "midi": 44,
      "hit": false,
      "t": 89032.08000000319,
      "d": 5.040312500001164,
      "v": 71
    },
    {
      "midi": 35,
      "hit": false,
      "t": 89032.08000000319,
      "d": 90.7256250000064,
      "v": 87
    },
    {
      "midi": 47,
      "hit": false,
      "t": 89032.08000000319,
      "d": 650.2003125000483,
      "v": 104
    },
    {
      "midi": 59,
      "hit": false,
      "t": 89153.0475000032,
      "d": 5.040312500001164,
      "v": 91
    },
    {
      "midi": 57,
      "hit": false,
      "t": 89153.0475000032,
      "d": 30.241875000006985,
      "v": 46
    },
    {
      "midi": 63,
      "hit": false,
      "t": 89163.1281250032,
      "d": 30.241875000006985,
      "v": 26
    },
    {
      "midi": 46,
      "hit": false,
      "t": 89274.01500000322,
      "d": 5.040312500001164,
      "v": 70
    },
    {
      "midi": 62,
      "hit": false,
      "t": 89274.01500000322,
      "d": 5.040312500001164,
      "v": 63
    },
    {
      "midi": 59,
      "hit": false,
      "t": 89274.01500000322,
      "d": 105.84656249999534,
      "v": 80
    },
    {
      "midi": 59,
      "hit": false,
      "t": 89394.98250000321,
      "d": 5.040312500001164,
      "v": 91
    },
    {
      "midi": 54,
      "hit": false,
      "t": 89394.98250000321,
      "d": 20.161250000004657,
      "v": 77
    },
    {
      "midi": 57,
      "hit": false,
      "t": 89405.06312500322,
      "d": 25.20156250000582,
      "v": 73
    },
    {
      "midi": 63,
      "hit": false,
      "t": 89415.14375000322,
      "d": 20.161250000004657,
      "v": 85
    },
    {
      "midi": 44,
      "hit": false,
      "t": 89515.95000000323,
      "d": 5.040312500001164,
      "v": 64
    },
    {
      "midi": 40,
      "hit": false,
      "t": 89515.95000000323,
      "d": 75.60468750000291,
      "v": 94
    },
    {
      "midi": 35,
      "hit": false,
      "t": 89515.95000000323,
      "d": 90.7256250000064,
      "v": 87
    },
    {
      "midi": 59,
      "hit": false,
      "t": 89636.91750000324,
      "d": 5.040312500001164,
      "v": 92
    },
    {
      "midi": 63,
      "hit": false,
      "t": 89752.84468750324,
      "d": 5.040312500001164,
      "v": 46
    },
    {
      "midi": 46,
      "hit": false,
      "t": 89757.88500000324,
      "d": 5.040312500001164,
      "v": 70
    },
    {
      "midi": 59,
      "hit": false,
      "t": 89757.88500000324,
      "d": 15.120937500003492,
      "v": 66
    },
    {
      "midi": 59,
      "hit": false,
      "t": 89878.85250000324,
      "d": 5.040312500001164,
      "v": 95
    },
    {
      "midi": 54,
      "hit": false,
      "t": 89878.85250000324,
      "d": 20.161250000004657,
      "v": 51
    },
    {
      "midi": 31,
      "hit": false,
      "t": 89883.89281250324,
      "d": 5.040312500001164,
      "v": 28
    },
    {
      "midi": 57,
      "hit": false,
      "t": 89888.93312500324,
      "d": 20.161250000004657,
      "v": 46
    },
    {
      "midi": 63,
      "hit": false,
      "t": 89893.97343750324,
      "d": 5.040312500001164,
      "v": 85
    },
    {
      "midi": 63,
      "hit": false,
      "t": 89899.01375000324,
      "d": 20.161250000004657,
      "v": 38
    },
    {
      "midi": 44,
      "hit": false,
      "t": 89999.82000000325,
      "d": 5.040312500001164,
      "v": 64
    },
    {
      "midi": 35,
      "hit": false,
      "t": 89999.82000000325,
      "d": 95.76593750000757,
      "v": 87
    },
    {
      "midi": 59,
      "hit": false,
      "t": 90120.78750000327,
      "d": 5.040312500001164,
      "v": 93
    },
    {
      "midi": 54,
      "hit": false,
      "t": 90120.78750000327,
      "d": 10.080625000002328,
      "v": 64
    },
    {
      "midi": 31,
      "hit": false,
      "t": 90125.82781250327,
      "d": 5.040312500001164,
      "v": 39
    },
    {
      "midi": 57,
      "hit": false,
      "t": 90130.86812500327,
      "d": 20.161250000004657,
      "v": 58
    },
    {
      "midi": 63,
      "hit": false,
      "t": 90140.94875000327,
      "d": 20.161250000004657,
      "v": 69
    },
    {
      "midi": 62,
      "hit": false,
      "t": 90236.71468750328,
      "d": 5.040312500001164,
      "v": 85
    },
    {
      "midi": 46,
      "hit": false,
      "t": 90241.75500000328,
      "d": 5.040312500001164,
      "v": 70
    },
    {
      "midi": 59,
      "hit": false,
      "t": 90241.75500000328,
      "d": 105.84656249999534,
      "v": 77
    },
    {
      "midi": 35,
      "hit": false,
      "t": 90241.75500000328,
      "d": 156.24968750000698,
      "v": 102
    },
    {
      "midi": 59,
      "hit": false,
      "t": 90362.72250000328,
      "d": 10.080625000002328,
      "v": 95
    },
    {
      "midi": 44,
      "hit": false,
      "t": 90483.69000000329,
      "d": 5.040312500001164,
      "v": 64
    },
    {
      "midi": 40,
      "hit": false,
      "t": 90483.69000000329,
      "d": 60.48374999999942,
      "v": 94
    },
    {
      "midi": 35,
      "hit": false,
      "t": 90483.69000000329,
      "d": 95.76593749999302,
      "v": 87
    },
    {
      "midi": 47,
      "hit": false,
      "t": 90483.69000000329,
      "d": 433.4668750000128,
      "v": 104
    },
    {
      "midi": 66,
      "hit": false,
      "t": 90483.69000000329,
      "d": 433.4668750000128,
      "v": 104
    },
    {
      "midi": 62,
      "hit": false,
      "t": 90599.61718750329,
      "d": 5.040312500001164,
      "v": 58
    },
    {
      "midi": 59,
      "hit": false,
      "t": 90604.65750000329,
      "d": 5.040312500001164,
      "v": 94
    },
    {
      "midi": 54,
      "hit": false,
      "t": 90604.65750000329,
      "d": 20.161250000004657,
      "v": 70
    },
    {
      "midi": 57,
      "hit": false,
      "t": 90614.73812500329,
      "d": 20.161250000004657,
      "v": 57
    },
    {
      "midi": 63,
      "hit": false,
      "t": 90624.8187500033,
      "d": 20.161250000004657,
      "v": 66
    },
    {
      "midi": 63,
      "hit": false,
      "t": 90720.5846875033,
      "d": 5.040312500001164,
      "v": 55
    },
    {
      "midi": 46,
      "hit": false,
      "t": 90725.6250000033,
      "d": 5.040312500001164,
      "v": 70
    },
    {
      "midi": 59,
      "hit": false,
      "t": 90725.6250000033,
      "d": 105.84656249999534,
      "v": 74
    },
    {
      "midi": 31,
      "hit": false,
      "t": 90730.6653125033,
      "d": 5.040312500001164,
      "v": 37
    },
    {
      "midi": 64,
      "hit": false,
      "t": 90846.5925000033,
      "d": 5.040312500001164,
      "v": 78
    },
    {
      "midi": 33,
      "hit": false,
      "t": 90846.5925000033,
      "d": 5.040312500001164,
      "v": 72
    },
    {
      "midi": 59,
      "hit": false,
      "t": 90846.5925000033,
      "d": 5.040312500001164,
      "v": 100
    },
    {
      "midi": 31,
      "hit": false,
      "t": 90851.6328125033,
      "d": 5.040312500001164,
      "v": 46
    },
    {
      "midi": 44,
      "hit": false,
      "t": 90967.5600000033,
      "d": 5.040312500001164,
      "v": 64
    },
    {
      "midi": 59,
      "hit": false,
      "t": 90967.5600000033,
      "d": 5.040312500001164,
      "v": 95
    },
    {
      "midi": 35,
      "hit": false,
      "t": 90967.5600000033,
      "d": 105.8465625000099,
      "v": 87
    },
    {
      "midi": 28,
      "hit": false,
      "t": 90967.5600000033,
      "d": 231.85437500002445,
      "v": 89
    },
    {
      "midi": 67,
      "hit": false,
      "t": 90967.5600000033,
      "d": 433.46687500002736,
      "v": 104
    },
    {
      "midi": 52,
      "hit": false,
      "t": 90967.5600000033,
      "d": 650.2003125000192,
      "v": 104
    },
    {
      "midi": 55,
      "hit": false,
      "t": 91088.52750000331,
      "d": 15.120937500003492,
      "v": 35
    },
    {
      "midi": 59,
      "hit": false,
      "t": 91098.60812500332,
      "d": 15.120937500003492,
      "v": 38
    },
    {
      "midi": 64,
      "hit": false,
      "t": 91108.68875000332,
      "d": 15.120937500003492,
      "v": 38
    },
    {
      "midi": 46,
      "hit": false,
      "t": 91204.45468750333,
      "d": 5.040312500001164,
      "v": 69
    },
    {
      "midi": 62,
      "hit": false,
      "t": 91209.49500000333,
      "d": 5.040312500001164,
      "v": 91
    },
    {
      "midi": 59,
      "hit": false,
      "t": 91209.49500000333,
      "d": 5.040312500001164,
      "v": 104
    },
    {
      "midi": 28,
      "hit": false,
      "t": 91209.49500000333,
      "d": 231.85437499999534,
      "v": 89
    },
    {
      "midi": 63,
      "hit": false,
      "t": 91330.46250000333,
      "d": 5.040312500001164,
      "v": 91
    },
    {
      "midi": 55,
      "hit": false,
      "t": 91330.46250000333,
      "d": 20.161250000004657,
      "v": 89
    },
    {
      "midi": 59,
      "hit": false,
      "t": 91340.54312500333,
      "d": 20.161250000004657,
      "v": 76
    },
    {
      "midi": 64,
      "hit": false,
      "t": 91350.62375000333,
      "d": 5.040312500001164,
      "v": 90
    },
    {
      "midi": 44,
      "hit": false,
      "t": 91446.38968750332,
      "d": 5.040312500001164,
      "v": 71
    },
    {
      "midi": 40,
      "hit": false,
      "t": 91451.43000000333,
      "d": 70.56437500000175,
      "v": 94
    },
    {
      "midi": 35,
      "hit": false,
      "t": 91451.43000000333,
      "d": 105.84656249999534,
      "v": 87
    },
    {
      "midi": 31,
      "hit": false,
      "t": 91451.43000000333,
      "d": 231.85437499999534,
      "v": 101
    },
    {
      "midi": 64,
      "hit": false,
      "t": 91572.39750000332,
      "d": 5.040312500001164,
      "v": 91
    },
    {
      "midi": 46,
      "hit": false,
      "t": 91693.36500000332,
      "d": 5.040312500001164,
      "v": 61
    },
    {
      "midi": 63,
      "hit": false,
      "t": 91693.36500000332,
      "d": 5.040312500001164,
      "v": 47
    },
    {
      "midi": 31,
      "hit": false,
      "t": 91693.36500000332,
      "d": 231.85437500002445,
      "v": 101
    },
    {
      "midi": 59,
      "hit": false,
      "t": 91703.44562500333,
      "d": 95.76593750000757,
      "v": 78
    },
    {
      "midi": 63,
      "hit": false,
      "t": 91814.33250000334,
      "d": 5.040312500001164,
      "v": 85
    },
    {
      "midi": 59,
      "hit": false,
      "t": 91814.33250000334,
      "d": 5.040312500001164,
      "v": 107
    },
    {
      "midi": 55,
      "hit": false,
      "t": 91814.33250000334,
      "d": 10.080625000002328,
      "v": 48
    },
    {
      "midi": 59,
      "hit": false,
      "t": 91824.41312500334,
      "d": 110.88687500001106,
      "v": 60
    },
    {
      "midi": 64,
      "hit": false,
      "t": 91834.49375000334,
      "d": 10.080625000002328,
      "v": 52
    },
    {
      "midi": 40,
      "hit": false,
      "t": 91935.30000000335,
      "d": 5.040312500001164,
      "v": 93
    },
    {
      "midi": 44,
      "hit": false,
      "t": 91935.30000000335,
      "d": 5.040312500001164,
      "v": 64
    },
    {
      "midi": 59,
      "hit": false,
      "t": 91935.30000000335,
      "d": 5.040312500001164,
      "v": 40
    },
    {
      "midi": 35,
      "hit": false,
      "t": 91935.30000000335,
      "d": 90.7256250000064,
      "v": 86
    },
    {
      "midi": 67,
      "hit": false,
      "t": 91935.30000000335,
      "d": 433.46687500002736,
      "v": 104
    },
    {
      "midi": 62,
      "hit": false,
      "t": 92056.26750000336,
      "d": 5.040312500001164,
      "v": 91
    },
    {
      "midi": 59,
      "hit": false,
      "t": 92056.26750000336,
      "d": 5.040312500001164,
      "v": 104
    },
    {
      "midi": 55,
      "hit": false,
      "t": 92056.26750000336,
      "d": 10.080625000002328,
      "v": 66
    },
    {
      "midi": 59,
      "hit": false,
      "t": 92066.34812500337,
      "d": 25.20156250000582,
      "v": 58
    },
    {
      "midi": 64,
      "hit": false,
      "t": 92076.42875000337,
      "d": 20.161250000004657,
      "v": 68
    },
    {
      "midi": 40,
      "hit": false,
      "t": 92177.23500000338,
      "d": 5.040312500001164,
      "v": 64
    },
    {
      "midi": 64,
      "hit": false,
      "t": 92177.23500000338,
      "d": 5.040312500001164,
      "v": 78
    },
    {
      "midi": 59,
      "hit": false,
      "t": 92177.23500000338,
      "d": 5.040312500001164,
      "v": 104
    },
    {
      "midi": 35,
      "hit": false,
      "t": 92177.23500000338,
      "d": 236.8946874999965,
      "v": 82
    },
    {
      "midi": 40,
      "hit": false,
      "t": 92298.20250000338,
      "d": 5.040312500001164,
      "v": 87
    },
    {
      "midi": 64,
      "hit": false,
      "t": 92298.20250000338,
      "d": 5.040312500001164,
      "v": 78
    },
    {
      "midi": 43,
      "hit": false,
      "t": 92419.17000000337,
      "d": 5.040312500001164,
      "v": 86
    },
    {
      "midi": 64,
      "hit": false,
      "t": 92419.17000000337,
      "d": 5.040312500001164,
      "v": 82
    },
    {
      "midi": 35,
      "hit": false,
      "t": 92419.17000000337,
      "d": 90.7256250000064,
      "v": 86
    },
    {
      "midi": 50,
      "hit": false,
      "t": 92419.17000000337,
      "d": 433.46687500002736,
      "v": 104
    },
    {
      "midi": 69,
      "hit": false,
      "t": 92419.17000000337,
      "d": 433.46687500002736,
      "v": 104
    },
    {
      "midi": 44,
      "hit": false,
      "t": 92424.21031250338,
      "d": 5.040312500001164,
      "v": 71
    },
    {
      "midi": 40,
      "hit": false,
      "t": 92540.13750000339,
      "d": 5.040312500001164,
      "v": 73
    },
    {
      "midi": 62,
      "hit": false,
      "t": 92540.13750000339,
      "d": 5.040312500001164,
      "v": 93
    },
    {
      "midi": 55,
      "hit": false,
      "t": 92540.13750000339,
      "d": 30.241875000006985,
      "v": 43
    },
    {
      "midi": 59,
      "hit": false,
      "t": 92550.21812500339,
      "d": 25.20156250000582,
      "v": 75
    },
    {
      "midi": 64,
      "hit": false,
      "t": 92560.29875000339,
      "d": 25.20156250000582,
      "v": 60
    },
    {
      "midi": 40,
      "hit": false,
      "t": 92661.1050000034,
      "d": 5.040312500001164,
      "v": 95
    },
    {
      "midi": 35,
      "hit": false,
      "t": 92671.1856250034,
      "d": 221.77374999999302,
      "v": 76
    },
    {
      "midi": 59,
      "hit": false,
      "t": 92782.0725000034,
      "d": 5.040312500001164,
      "v": 96
    },
    {
      "midi": 57,
      "hit": false,
      "t": 92897.9996875034,
      "d": 5.040312500001164,
      "v": 79
    },
    {
      "midi": 44,
      "hit": false,
      "t": 92903.0400000034,
      "d": 5.040312500001164,
      "v": 64
    },
    {
      "midi": 60,
      "hit": false,
      "t": 92903.0400000034,
      "d": 5.040312500001164,
      "v": 85
    },
    {
      "midi": 35,
      "hit": false,
      "t": 92903.0400000034,
      "d": 105.8465625000099,
      "v": 87
    },
    {
      "midi": 36,
      "hit": false,
      "t": 92903.0400000034,
      "d": 176.4109375000262,
      "v": 101
    },
    {
      "midi": 71,
      "hit": false,
      "t": 92903.0400000034,
      "d": 322.58000000003085,
      "v": 104
    },
    {
      "midi": 48,
      "hit": false,
      "t": 92903.0400000034,
      "d": 650.2003125000483,
      "v": 104
    },
    {
      "midi": 55,
      "hit": false,
      "t": 93024.00750000341,
      "d": 30.241875000006985,
      "v": 56
    },
    {
      "midi": 59,
      "hit": false,
      "t": 93034.08812500341,
      "d": 25.20156250000582,
      "v": 50
    },
    {
      "midi": 64,
      "hit": false,
      "t": 93044.16875000342,
      "d": 30.241875000006985,
      "v": 33
    },
    {
      "midi": 46,
      "hit": false,
      "t": 93139.93468750342,
      "d": 5.040312500001164,
      "v": 69
    },
    {
      "midi": 62,
      "hit": false,
      "t": 93144.97500000343,
      "d": 5.040312500001164,
      "v": 91
    },
    {
      "midi": 60,
      "hit": false,
      "t": 93144.97500000343,
      "d": 5.040312500001164,
      "v": 94
    },
    {
      "midi": 55,
      "hit": false,
      "t": 93265.94250000342,
      "d": 20.161250000004657,
      "v": 96
    },
    {
      "midi": 59,
      "hit": false,
      "t": 93276.02312500343,
      "d": 20.161250000004657,
      "v": 89
    },
    {
      "midi": 64,
      "hit": false,
      "t": 93286.10375000343,
      "d": 15.120937500003492,
      "v": 84
    },
    {
      "midi": 44,
      "hit": false,
      "t": 93381.86968750344,
      "d": 5.040312500001164,
      "v": 71
    },
    {
      "midi": 40,
      "hit": false,
      "t": 93386.91000000344,
      "d": 70.56437500000175,
      "v": 94
    },
    {
      "midi": 60,
      "hit": false,
      "t": 93386.91000000344,
      "d": 85.68531250000524,
      "v": 100
    },
    {
      "midi": 35,
      "hit": false,
      "t": 93386.91000000344,
      "d": 105.8465625000099,
      "v": 87
    },
    {
      "midi": 36,
      "hit": false,
      "t": 93386.91000000344,
      "d": 166.3303125000093,
      "v": 99
    },
    {
      "midi": 60,
      "hit": false,
      "t": 93507.87750000345,
      "d": 10.080625000002328,
      "v": 100
    },
    {
      "midi": 46,
      "hit": false,
      "t": 93628.84500000344,
      "d": 5.040312500001164,
      "v": 61
    },
    {
      "midi": 63,
      "hit": false,
      "t": 93628.84500000344,
      "d": 5.040312500001164,
      "v": 47
    },
    {
      "midi": 63,
      "hit": false,
      "t": 93749.81250000343,
      "d": 5.040312500001164,
      "v": 85
    },
    {
      "midi": 60,
      "hit": false,
      "t": 93749.81250000343,
      "d": 5.040312500001164,
      "v": 95
    },
    {
      "midi": 55,
      "hit": false,
      "t": 93749.81250000343,
      "d": 15.120937500003492,
      "v": 36
    },
    {
      "midi": 31,
      "hit": false,
      "t": 93754.85281250344,
      "d": 5.040312500001164,
      "v": 42
    },
    {
      "midi": 59,
      "hit": false,
      "t": 93759.89312500344,
      "d": 15.120937500003492,
      "v": 46
    },
    {
      "midi": 64,
      "hit": false,
      "t": 93769.97375000344,
      "d": 15.120937500003492,
      "v": 30
    },
    {
      "midi": 44,
      "hit": false,
      "t": 93870.78000000345,
      "d": 5.040312500001164,
      "v": 64
    },
    {
      "midi": 60,
      "hit": false,
      "t": 93870.78000000345,
      "d": 5.040312500001164,
      "v": 92
    },
    {
      "midi": 35,
      "hit": false,
      "t": 93870.78000000345,
      "d": 90.7256250000064,
      "v": 86
    },
    {
      "midi": 55,
      "hit": false,
      "t": 93870.78000000345,
      "d": 95.76593750000757,
      "v": 13
    },
    {
      "midi": 36,
      "hit": false,
      "t": 93870.78000000345,
      "d": 115.92718750001222,
      "v": 94
    },
    {
      "midi": 31,
      "hit": false,
      "t": 93991.74750000346,
      "d": 5.040312500001164,
      "v": 39
    },
    {
      "midi": 60,
      "hit": false,
      "t": 93991.74750000346,
      "d": 5.040312500001164,
      "v": 94
    },
    {
      "midi": 55,
      "hit": false,
      "t": 93991.74750000346,
      "d": 20.161250000004657,
      "v": 80
    },
    {
      "midi": 59,
      "hit": false,
      "t": 94001.82812500346,
      "d": 20.161250000004657,
      "v": 68
    },
    {
      "midi": 64,
      "hit": false,
      "t": 94011.90875000347,
      "d": 20.161250000004657,
      "v": 75
    },
    {
      "midi": 46,
      "hit": false,
      "t": 94112.71500000347,
      "d": 5.040312500001164,
      "v": 70
    },
    {
      "midi": 62,
      "hit": false,
      "t": 94112.71500000347,
      "d": 5.040312500001164,
      "v": 85
    },
    {
      "midi": 60,
      "hit": false,
      "t": 94112.71500000347,
      "d": 5.040312500001164,
      "v": 94
    },
    {
      "midi": 36,
      "hit": false,
      "t": 94112.71500000347,
      "d": 156.24968750000698,
      "v": 102
    },
    {
      "midi": 40,
      "hit": false,
      "t": 94354.65000000349,
      "d": 65.52406250000058,
      "v": 91
    },
    {
      "midi": 35,
      "hit": false,
      "t": 94354.65000000349,
      "d": 90.7256250000064,
      "v": 86
    },
    {
      "midi": 60,
      "hit": false,
      "t": 94354.65000000349,
      "d": 100.80625000000873,
      "v": 100
    },
    {
      "midi": 55,
      "hit": false,
      "t": 94354.65000000349,
      "d": 181.45125000002736,
      "v": 96
    },
    {
      "midi": 48,
      "hit": false,
      "t": 94354.65000000349,
      "d": 433.46687500002736,
      "v": 104
    },
    {
      "midi": 44,
      "hit": false,
      "t": 94359.69031250349,
      "d": 5.040312500001164,
      "v": 71
    },
    {
      "midi": 62,
      "hit": false,
      "t": 94475.6175000035,
      "d": 5.040312500001164,
      "v": 62
    },
    {
      "midi": 60,
      "hit": false,
      "t": 94475.6175000035,
      "d": 5.040312500001164,
      "v": 100
    },
    {
      "midi": 59,
      "hit": false,
      "t": 94475.6175000035,
      "d": 25.20156250000582,
      "v": 47
    },
    {
      "midi": 64,
      "hit": false,
      "t": 94485.6981250035,
      "d": 25.20156250000582,
      "v": 52
    },
    {
      "midi": 46,
      "hit": false,
      "t": 94596.58500000351,
      "d": 5.040312500001164,
      "v": 70
    },
    {
      "midi": 63,
      "hit": false,
      "t": 94596.58500000351,
      "d": 5.040312500001164,
      "v": 53
    },
    {
      "midi": 64,
      "hit": false,
      "t": 94717.55250000351,
      "d": 5.040312500001164,
      "v": 74
    },
    {
      "midi": 35,
      "hit": false,
      "t": 94717.55250000351,
      "d": 5.040312500001164,
      "v": 72
    },
    {
      "midi": 60,
      "hit": false,
      "t": 94717.55250000351,
      "d": 5.040312500001164,
      "v": 88
    },
    {
      "midi": 44,
      "hit": false,
      "t": 94838.52000000351,
      "d": 5.040312500001164,
      "v": 71
    },
    {
      "midi": 60,
      "hit": false,
      "t": 94838.52000000351,
      "d": 5.040312500001164,
      "v": 100
    },
    {
      "midi": 35,
      "hit": false,
      "t": 94838.52000000351,
      "d": 90.7256250000064,
      "v": 79
    },
    {
      "midi": 36,
      "hit": false,
      "t": 94838.52000000351,
      "d": 171.37062500002503,
      "v": 96
    },
    {
      "midi": 71,
      "hit": false,
      "t": 94838.52000000351,
      "d": 322.58000000003085,
      "v": 104
    },
    {
      "midi": 50,
      "hit": false,
      "t": 94838.52000000351,
      "d": 650.2003125000483,
      "v": 104
    },
    {
      "midi": 55,
      "hit": false,
      "t": 94959.48750000352,
      "d": 30.241875000006985,
      "v": 56
    },
    {
      "midi": 59,
      "hit": false,
      "t": 94969.56812500353,
      "d": 25.20156250000582,
      "v": 50
    },
    {
      "midi": 64,
      "hit": false,
      "t": 94979.64875000353,
      "d": 30.241875000006985,
      "v": 33
    },
    {
      "midi": 46,
      "hit": false,
      "t": 95075.41468750354,
      "d": 5.040312500001164,
      "v": 74
    },
    {
      "midi": 62,
      "hit": false,
      "t": 95080.45500000354,
      "d": 5.040312500001164,
      "v": 85
    },
    {
      "midi": 60,
      "hit": false,
      "t": 95080.45500000354,
      "d": 5.040312500001164,
      "v": 100
    },
    {
      "midi": 55,
      "hit": false,
      "t": 95201.42250000354,
      "d": 20.161250000004657,
      "v": 96
    },
    {
      "midi": 59,
      "hit": false,
      "t": 95211.50312500354,
      "d": 20.161250000004657,
      "v": 89
    },
    {
      "midi": 64,
      "hit": false,
      "t": 95221.58375000354,
      "d": 15.120937500003492,
      "v": 84
    },
    {
      "midi": 44,
      "hit": false,
      "t": 95322.39000000355,
      "d": 5.040312500001164,
      "v": 61
    },
    {
      "midi": 40,
      "hit": false,
      "t": 95322.39000000355,
      "d": 65.52406250000058,
      "v": 91
    },
    {
      "midi": 35,
      "hit": false,
      "t": 95322.39000000355,
      "d": 90.7256250000064,
      "v": 79
    },
    {
      "midi": 60,
      "hit": false,
      "t": 95322.39000000355,
      "d": 90.7256250000064,
      "v": 97
    },
    {
      "midi": 36,
      "hit": false,
      "t": 95322.39000000355,
      "d": 176.41093750001164,
      "v": 96
    },
    {
      "midi": 60,
      "hit": false,
      "t": 95443.35750000356,
      "d": 5.040312500001164,
      "v": 100
    },
    {
      "midi": 46,
      "hit": false,
      "t": 95559.28468750356,
      "d": 5.040312500001164,
      "v": 67
    },
    {
      "midi": 63,
      "hit": false,
      "t": 95564.32500000356,
      "d": 5.040312500001164,
      "v": 37
    },
    {
      "midi": 55,
      "hit": false,
      "t": 95564.32500000356,
      "d": 236.89468750001106,
      "v": 90
    },
    {
      "midi": 63,
      "hit": false,
      "t": 95685.29250000356,
      "d": 5.040312500001164,
      "v": 80
    },
    {
      "midi": 60,
      "hit": false,
      "t": 95685.29250000356,
      "d": 5.040312500001164,
      "v": 91
    },
    {
      "midi": 35,
      "hit": false,
      "t": 95685.29250000356,
      "d": 15.120937500003492,
      "v": 86
    },
    {
      "midi": 59,
      "hit": false,
      "t": 95685.29250000356,
      "d": 30.241875000006985,
      "v": 30
    },
    {
      "midi": 31,
      "hit": false,
      "t": 95690.33281250356,
      "d": 5.040312500001164,
      "v": 39
    },
    {
      "midi": 64,
      "hit": false,
      "t": 95695.37312500356,
      "d": 30.241875000006985,
      "v": 30
    },
    {
      "midi": 44,
      "hit": false,
      "t": 95806.26000000357,
      "d": 5.040312500001164,
      "v": 71
    },
    {
      "midi": 60,
      "hit": false,
      "t": 95806.26000000357,
      "d": 5.040312500001164,
      "v": 95
    },
    {
      "midi": 35,
      "hit": false,
      "t": 95806.26000000357,
      "d": 90.7256250000064,
      "v": 86
    },
    {
      "midi": 36,
      "hit": false,
      "t": 95806.26000000357,
      "d": 95.76593750000757,
      "v": 94
    },
    {
      "midi": 60,
      "hit": false,
      "t": 95927.22750000359,
      "d": 5.040312500001164,
      "v": 95
    },
    {
      "midi": 55,
      "hit": false,
      "t": 95927.22750000359,
      "d": 20.161250000004657,
      "v": 91
    },
    {
      "midi": 59,
      "hit": false,
      "t": 95937.30812500359,
      "d": 25.20156250000582,
      "v": 82
    },
    {
      "midi": 64,
      "hit": false,
      "t": 95947.38875000359,
      "d": 50.40312499999709,
      "v": 86
    },
    {
      "midi": 46,
      "hit": false,
      "t": 96043.15468750359,
      "d": 5.040312500001164,
      "v": 64
    },
    {
      "midi": 62,
      "hit": false,
      "t": 96048.19500000359,
      "d": 5.040312500001164,
      "v": 78
    },
    {
      "midi": 36,
      "hit": false,
      "t": 96048.19500000359,
      "d": 166.33031249999476,
      "v": 97
    },
    {
      "midi": 60,
      "hit": false,
      "t": 96169.16250000359,
      "d": 5.040312500001164,
      "v": 95
    },
    {
      "midi": 44,
      "hit": false,
      "t": 96290.13000000358,
      "d": 5.040312500001164,
      "v": 71
    },
    {
      "midi": 40,
      "hit": false,
      "t": 96290.13000000358,
      "d": 65.52406250000058,
      "v": 94
    },
    {
      "midi": 35,
      "hit": false,
      "t": 96290.13000000358,
      "d": 90.7256250000064,
      "v": 86
    },
    {
      "midi": 60,
      "hit": false,
      "t": 96290.13000000358,
      "d": 95.76593750000757,
      "v": 97
    },
    {
      "midi": 50,
      "hit": false,
      "t": 96290.13000000358,
      "d": 433.46687500002736,
      "v": 104
    },
    {
      "midi": 62,
      "hit": false,
      "t": 96411.0975000036,
      "d": 5.040312500001164,
      "v": 62
    },
    {
      "midi": 60,
      "hit": false,
      "t": 96411.0975000036,
      "d": 5.040312500001164,
      "v": 97
    },
    {
      "midi": 55,
      "hit": false,
      "t": 96411.0975000036,
      "d": 10.080625000002328,
      "v": 76
    },
    {
      "midi": 35,
      "hit": false,
      "t": 96411.0975000036,
      "d": 15.120937500003492,
      "v": 86
    },
    {
      "midi": 59,
      "hit": false,
      "t": 96421.1781250036,
      "d": 15.120937500003492,
      "v": 65
    },
    {
      "midi": 64,
      "hit": false,
      "t": 96431.2587500036,
      "d": 15.120937500003492,
      "v": 69
    },
    {
      "midi": 46,
      "hit": false,
      "t": 96532.06500000361,
      "d": 5.040312500001164,
      "v": 70
    },
    {
      "midi": 63,
      "hit": false,
      "t": 96532.06500000361,
      "d": 5.040312500001164,
      "v": 55
    },
    {
      "midi": 60,
      "hit": false,
      "t": 96532.06500000361,
      "d": 5.040312500001164,
      "v": 97
    },
    {
      "midi": 31,
      "hit": false,
      "t": 96532.06500000361,
      "d": 196.57218750000175,
      "v": 83
    },
    {
      "midi": 69,
      "hit": false,
      "t": 96532.06500000361,
      "d": 650.2003125000338,
      "v": 104
    },
    {
      "midi": 63,
      "hit": false,
      "t": 96653.03250000361,
      "d": 5.040312500001164,
      "v": 70
    },
    {
      "midi": 60,
      "hit": false,
      "t": 96653.03250000361,
      "d": 5.040312500001164,
      "v": 97
    },
    {
      "midi": 44,
      "hit": false,
      "t": 96774.00000000361,
      "d": 5.040312500001164,
      "v": 71
    },
    {
      "midi": 59,
      "hit": false,
      "t": 96774.00000000361,
      "d": 5.040312500001164,
      "v": 94
    },
    {
      "midi": 35,
      "hit": false,
      "t": 96774.00000000361,
      "d": 90.7256250000064,
      "v": 87
    },
    {
      "midi": 31,
      "hit": false,
      "t": 96774.00000000361,
      "d": 176.4109375000262,
      "v": 101
    },
    {
      "midi": 59,
      "hit": false,
      "t": 96894.96750000362,
      "d": 30.241875000006985,
      "v": 46
    },
    {
      "midi": 62,
      "hit": false,
      "t": 96905.04812500362,
      "d": 30.241875000006985,
      "v": 26
    },
    {
      "midi": 46,
      "hit": false,
      "t": 97015.93500000364,
      "d": 5.040312500001164,
      "v": 70
    },
    {
      "midi": 62,
      "hit": false,
      "t": 97015.93500000364,
      "d": 5.040312500001164,
      "v": 63
    },
    {
      "midi": 59,
      "hit": false,
      "t": 97015.93500000364,
      "d": 5.040312500001164,
      "v": 85
    },
    {
      "midi": 55,
      "hit": false,
      "t": 97136.90250000363,
      "d": 20.161250000004657,
      "v": 77
    },
    {
      "midi": 59,
      "hit": false,
      "t": 97146.98312500364,
      "d": 25.20156250000582,
      "v": 73
    },
    {
      "midi": 62,
      "hit": false,
      "t": 97157.06375000364,
      "d": 20.161250000004657,
      "v": 85
    },
    {
      "midi": 44,
      "hit": false,
      "t": 97257.87000000365,
      "d": 5.040312500001164,
      "v": 64
    },
    {
      "midi": 40,
      "hit": false,
      "t": 97257.87000000365,
      "d": 75.60468750000291,
      "v": 94
    },
    {
      "midi": 35,
      "hit": false,
      "t": 97257.87000000365,
      "d": 90.7256250000064,
      "v": 87
    },
    {
      "midi": 59,
      "hit": false,
      "t": 97257.87000000365,
      "d": 105.8465625000099,
      "v": 94
    },
    {
      "midi": 31,
      "hit": false,
      "t": 97257.87000000365,
      "d": 166.3303125000093,
      "v": 99
    },
    {
      "midi": 50,
      "hit": false,
      "t": 97257.87000000365,
      "d": 433.46687500002736,
      "v": 104
    },
    {
      "midi": 59,
      "hit": false,
      "t": 97378.83750000366,
      "d": 5.040312500001164,
      "v": 100
    },
    {
      "midi": 63,
      "hit": false,
      "t": 97494.76468750366,
      "d": 5.040312500001164,
      "v": 46
    },
    {
      "midi": 46,
      "hit": false,
      "t": 97499.80500000366,
      "d": 5.040312500001164,
      "v": 70
    },
    {
      "midi": 79,
      "hit": false,
      "t": 97499.80500000366,
      "d": 650.2003125000483,
      "v": 104
    },
    {
      "midi": 59,
      "hit": false,
      "t": 97620.77250000366,
      "d": 5.040312500001164,
      "v": 88
    },
    {
      "midi": 55,
      "hit": false,
      "t": 97620.77250000366,
      "d": 20.161250000004657,
      "v": 51
    },
    {
      "midi": 31,
      "hit": false,
      "t": 97625.81281250366,
      "d": 5.040312500001164,
      "v": 28
    },
    {
      "midi": 59,
      "hit": false,
      "t": 97630.85312500366,
      "d": 20.161250000004657,
      "v": 46
    },
    {
      "midi": 63,
      "hit": false,
      "t": 97635.89343750366,
      "d": 5.040312500001164,
      "v": 85
    },
    {
      "midi": 62,
      "hit": false,
      "t": 97640.93375000366,
      "d": 20.161250000004657,
      "v": 38
    },
    {
      "midi": 44,
      "hit": false,
      "t": 97741.74000000367,
      "d": 5.040312500001164,
      "v": 64
    },
    {
      "midi": 59,
      "hit": false,
      "t": 97741.74000000367,
      "d": 5.040312500001164,
      "v": 94
    },
    {
      "midi": 35,
      "hit": false,
      "t": 97741.74000000367,
      "d": 95.76593750000757,
      "v": 87
    },
    {
      "midi": 31,
      "hit": false,
      "t": 97741.74000000367,
      "d": 115.92718750001222,
      "v": 94
    },
    {
      "midi": 43,
      "hit": false,
      "t": 97741.74000000367,
      "d": 433.4668750000419,
      "v": 104
    },
    {
      "midi": 55,
      "hit": false,
      "t": 97862.70750000369,
      "d": 10.080625000002328,
      "v": 64
    },
    {
      "midi": 31,
      "hit": false,
      "t": 97867.74781250369,
      "d": 5.040312500001164,
      "v": 39
    },
    {
      "midi": 59,
      "hit": false,
      "t": 97872.78812500369,
      "d": 20.161250000004657,
      "v": 58
    },
    {
      "midi": 62,
      "hit": false,
      "t": 97882.86875000369,
      "d": 20.161250000004657,
      "v": 69
    },
    {
      "midi": 62,
      "hit": false,
      "t": 97978.6346875037,
      "d": 5.040312500001164,
      "v": 85
    },
    {
      "midi": 46,
      "hit": false,
      "t": 97983.6750000037,
      "d": 5.040312500001164,
      "v": 70
    },
    {
      "midi": 59,
      "hit": false,
      "t": 97983.6750000037,
      "d": 5.040312500001164,
      "v": 93
    },
    {
      "midi": 31,
      "hit": false,
      "t": 97983.6750000037,
      "d": 156.24968750000698,
      "v": 102
    },
    {
      "midi": 44,
      "hit": false,
      "t": 98225.61000000371,
      "d": 5.040312500001164,
      "v": 64
    },
    {
      "midi": 40,
      "hit": false,
      "t": 98225.61000000371,
      "d": 60.48374999999942,
      "v": 94
    },
    {
      "midi": 35,
      "hit": false,
      "t": 98225.61000000371,
      "d": 95.76593749999302,
      "v": 87
    },
    {
      "midi": 50,
      "hit": false,
      "t": 98225.61000000371,
      "d": 433.4668750000128,
      "v": 104
    },
    {
      "midi": 74,
      "hit": false,
      "t": 98225.61000000371,
      "d": 650.2003125000338,
      "v": 104
    },
    {
      "midi": 59,
      "hit": false,
      "t": 98235.69062500371,
      "d": 95.76593749999302,
      "v": 76
    },
    {
      "midi": 62,
      "hit": false,
      "t": 98341.53718750371,
      "d": 5.040312500001164,
      "v": 58
    },
    {
      "midi": 59,
      "hit": false,
      "t": 98346.57750000371,
      "d": 5.040312500001164,
      "v": 100
    },
    {
      "midi": 55,
      "hit": false,
      "t": 98346.57750000371,
      "d": 20.161250000004657,
      "v": 70
    },
    {
      "midi": 59,
      "hit": false,
      "t": 98356.65812500371,
      "d": 20.161250000004657,
      "v": 57
    },
    {
      "midi": 62,
      "hit": false,
      "t": 98366.73875000371,
      "d": 20.161250000004657,
      "v": 66
    },
    {
      "midi": 63,
      "hit": false,
      "t": 98462.50468750372,
      "d": 5.040312500001164,
      "v": 55
    },
    {
      "midi": 46,
      "hit": false,
      "t": 98467.54500000372,
      "d": 5.040312500001164,
      "v": 70
    },
    {
      "midi": 31,
      "hit": false,
      "t": 98472.58531250372,
      "d": 5.040312500001164,
      "v": 37
    },
    {
      "midi": 64,
      "hit": false,
      "t": 98588.51250000372,
      "d": 5.040312500001164,
      "v": 78
    },
    {
      "midi": 43,
      "hit": false,
      "t": 98588.51250000372,
      "d": 5.040312500001164,
      "v": 72
    },
    {
      "midi": 59,
      "hit": false,
      "t": 98588.51250000372,
      "d": 5.040312500001164,
      "v": 92
    },
    {
      "midi": 31,
      "hit": false,
      "t": 98593.55281250372,
      "d": 5.040312500001164,
      "v": 46
    },
    {
      "midi": 44,
      "hit": false,
      "t": 98709.48000000372,
      "d": 5.040312500001164,
      "v": 64
    },
    {
      "midi": 59,
      "hit": false,
      "t": 98709.48000000372,
      "d": 5.040312500001164,
      "v": 85
    },
    {
      "midi": 35,
      "hit": false,
      "t": 98709.48000000372,
      "d": 105.8465625000099,
      "v": 87
    },
    {
      "midi": 38,
      "hit": false,
      "t": 98709.48000000372,
      "d": 171.37062500002503,
      "v": 96
    },
    {
      "midi": 55,
      "hit": false,
      "t": 98830.44750000373,
      "d": 15.120937500003492,
      "v": 35
    },
    {
      "midi": 59,
      "hit": false,
      "t": 98840.52812500374,
      "d": 15.120937500003492,
      "v": 38
    },
    {
      "midi": 62,
      "hit": false,
      "t": 98850.60875000374,
      "d": 15.120937500003492,
      "v": 38
    },
    {
      "midi": 62,
      "hit": false,
      "t": 98936.29406250374,
      "d": 5.040312500001164,
      "v": 77
    },
    {
      "midi": 46,
      "hit": false,
      "t": 98946.37468750375,
      "d": 5.040312500001164,
      "v": 69
    },
    {
      "midi": 59,
      "hit": false,
      "t": 98951.41500000375,
      "d": 5.040312500001164,
      "v": 94
    },
    {
      "midi": 83,
      "hit": false,
      "t": 98951.41500000375,
      "d": 650.2003125000338,
      "v": 104
    },
    {
      "midi": 55,
      "hit": false,
      "t": 99072.38250000375,
      "d": 20.161250000004657,
      "v": 89
    },
    {
      "midi": 59,
      "hit": false,
      "t": 99082.46312500375,
      "d": 20.161250000004657,
      "v": 76
    },
    {
      "midi": 62,
      "hit": false,
      "t": 99092.54375000375,
      "d": 5.040312500001164,
      "v": 90
    },
    {
      "midi": 44,
      "hit": false,
      "t": 99188.30968750374,
      "d": 5.040312500001164,
      "v": 71
    },
    {
      "midi": 40,
      "hit": false,
      "t": 99193.35000000375,
      "d": 70.56437500000175,
      "v": 94
    },
    {
      "midi": 59,
      "hit": false,
      "t": 99193.35000000375,
      "d": 85.68531250000524,
      "v": 100
    },
    {
      "midi": 35,
      "hit": false,
      "t": 99193.35000000375,
      "d": 105.8465625000099,
      "v": 87
    },
    {
      "midi": 38,
      "hit": false,
      "t": 99193.35000000375,
      "d": 176.41093750001164,
      "v": 96
    },
    {
      "midi": 50,
      "hit": false,
      "t": 99193.35000000375,
      "d": 433.4668750000419,
      "v": 104
    },
    {
      "midi": 59,
      "hit": false,
      "t": 99314.31750000376,
      "d": 10.080625000002328,
      "v": 100
    },
    {
      "midi": 63,
      "hit": false,
      "t": 99420.16406250375,
      "d": 5.040312500001164,
      "v": 55
    },
    {
      "midi": 46,
      "hit": false,
      "t": 99435.28500000376,
      "d": 5.040312500001164,
      "v": 61
    },
    {
      "midi": 59,
      "hit": false,
      "t": 99445.36562500376,
      "d": 95.76593750000757,
      "v": 78
    },
    {
      "midi": 63,
      "hit": false,
      "t": 99556.25250000377,
      "d": 5.040312500001164,
      "v": 88
    },
    {
      "midi": 59,
      "hit": false,
      "t": 99556.25250000377,
      "d": 5.040312500001164,
      "v": 95
    },
    {
      "midi": 55,
      "hit": false,
      "t": 99556.25250000377,
      "d": 10.080625000002328,
      "v": 48
    },
    {
      "midi": 38,
      "hit": false,
      "t": 99556.25250000377,
      "d": 15.120937500003492,
      "v": 86
    },
    {
      "midi": 31,
      "hit": false,
      "t": 99561.29281250377,
      "d": 5.040312500001164,
      "v": 39
    },
    {
      "midi": 59,
      "hit": false,
      "t": 99566.33312500377,
      "d": 110.88687500001106,
      "v": 60
    },
    {
      "midi": 62,
      "hit": false,
      "t": 99576.41375000378,
      "d": 10.080625000002328,
      "v": 52
    },
    {
      "midi": 44,
      "hit": false,
      "t": 99677.22000000378,
      "d": 5.040312500001164,
      "v": 64
    },
    {
      "midi": 59,
      "hit": false,
      "t": 99677.22000000378,
      "d": 5.040312500001164,
      "v": 40
    },
    {
      "midi": 35,
      "hit": false,
      "t": 99677.22000000378,
      "d": 90.7256250000064,
      "v": 86
    },
    {
      "midi": 38,
      "hit": false,
      "t": 99677.22000000378,
      "d": 95.76593750000757,
      "v": 94
    },
    {
      "midi": 81,
      "hit": false,
      "t": 99677.22000000378,
      "d": 433.46687500002736,
      "v": 104
    },
    {
      "midi": 31,
      "hit": false,
      "t": 99798.1875000038,
      "d": 5.040312500001164,
      "v": 30
    },
    {
      "midi": 59,
      "hit": false,
      "t": 99798.1875000038,
      "d": 5.040312500001164,
      "v": 94
    },
    {
      "midi": 55,
      "hit": false,
      "t": 99798.1875000038,
      "d": 10.080625000002328,
      "v": 66
    },
    {
      "midi": 59,
      "hit": false,
      "t": 99808.2681250038,
      "d": 25.20156250000582,
      "v": 58
    },
    {
      "midi": 62,
      "hit": false,
      "t": 99818.3487500038,
      "d": 20.161250000004657,
      "v": 68
    },
    {
      "midi": 62,
      "hit": false,
      "t": 99914.11468750381,
      "d": 5.040312500001164,
      "v": 68
    },
    {
      "midi": 46,
      "hit": false,
      "t": 99919.15500000381,
      "d": 5.040312500001164,
      "v": 70
    },
    {
      "midi": 59,
      "hit": false,
      "t": 99919.15500000381,
      "d": 5.040312500001164,
      "v": 94
    },
    {
      "midi": 38,
      "hit": false,
      "t": 99919.15500000381,
      "d": 166.33031249999476,
      "v": 97
    },
    {
      "midi": 40,
      "hit": false,
      "t": 100161.09000000381,
      "d": 65.52406250000058,
      "v": 91
    },
    {
      "midi": 35,
      "hit": false,
      "t": 100161.09000000381,
      "d": 90.7256250000064,
      "v": 86
    },
    {
      "midi": 50,
      "hit": false,
      "t": 100161.09000000381,
      "d": 433.46687500002736,
      "v": 104
    },
    {
      "midi": 79,
      "hit": false,
      "t": 100161.09000000381,
      "d": 433.46687500002736,
      "v": 104
    },
    {
      "midi": 44,
      "hit": false,
      "t": 100166.13031250381,
      "d": 5.040312500001164,
      "v": 71
    },
    {
      "midi": 59,
      "hit": false,
      "t": 100171.17062500381,
      "d": 90.7256250000064,
      "v": 87
    },
    {
      "midi": 59,
      "hit": false,
      "t": 100282.05750000382,
      "d": 5.040312500001164,
      "v": 100
    },
    {
      "midi": 38,
      "hit": false,
      "t": 100282.05750000382,
      "d": 15.120937500003492,
      "v": 86
    },
    {
      "midi": 55,
      "hit": false,
      "t": 100282.05750000382,
      "d": 30.241875000006985,
      "v": 43
    },
    {
      "midi": 59,
      "hit": false,
      "t": 100292.13812500382,
      "d": 25.20156250000582,
      "v": 75
    },
    {
      "midi": 62,
      "hit": false,
      "t": 100297.17843750383,
      "d": 5.040312500001164,
      "v": 56
    },
    {
      "midi": 62,
      "hit": false,
      "t": 100302.21875000383,
      "d": 25.20156250000582,
      "v": 60
    },
    {
      "midi": 46,
      "hit": false,
      "t": 100403.02500000384,
      "d": 5.040312500001164,
      "v": 70
    },
    {
      "midi": 38,
      "hit": false,
      "t": 100403.02500000384,
      "d": 196.57218750000175,
      "v": 83
    },
    {
      "midi": 64,
      "hit": false,
      "t": 100413.10562500384,
      "d": 5.040312500001164,
      "v": 56
    },
    {
      "midi": 59,
      "hit": false,
      "t": 100523.99250000383,
      "d": 5.040312500001164,
      "v": 88
    },
    {
      "midi": 63,
      "hit": false,
      "t": 100544.15375000384,
      "d": 5.040312500001164,
      "v": 80
    },
    {
      "midi": 44,
      "hit": false,
      "t": 100644.96000000383,
      "d": 5.040312500001164,
      "v": 64
    },
    {
      "midi": 60,
      "hit": false,
      "t": 100644.96000000383,
      "d": 5.040312500001164,
      "v": 85
    },
    {
      "midi": 35,
      "hit": false,
      "t": 100644.96000000383,
      "d": 105.8465625000099,
      "v": 87
    },
    {
      "midi": 36,
      "hit": false,
      "t": 100644.96000000383,
      "d": 176.4109375000262,
      "v": 101
    },
    {
      "midi": 69,
      "hit": false,
      "t": 100644.96000000383,
      "d": 322.58000000003085,
      "v": 104
    },
    {
      "midi": 52,
      "hit": false,
      "t": 100644.96000000383,
      "d": 650.2003125000483,
      "v": 104
    },
    {
      "midi": 48,
      "hit": false,
      "t": 100644.96000000383,
      "d": 650.2003125000483,
      "v": 104
    },
    {
      "midi": 57,
      "hit": false,
      "t": 100765.92750000385,
      "d": 30.241875000006985,
      "v": 56
    },
    {
      "midi": 60,
      "hit": false,
      "t": 100776.00812500385,
      "d": 25.20156250000582,
      "v": 50
    },
    {
      "midi": 64,
      "hit": false,
      "t": 100786.08875000385,
      "d": 30.241875000006985,
      "v": 33
    },
    {
      "midi": 46,
      "hit": false,
      "t": 100881.85468750386,
      "d": 5.040312500001164,
      "v": 69
    },
    {
      "midi": 62,
      "hit": false,
      "t": 100886.89500000386,
      "d": 5.040312500001164,
      "v": 91
    },
    {
      "midi": 60,
      "hit": false,
      "t": 100886.89500000386,
      "d": 5.040312500001164,
      "v": 94
    },
    {
      "midi": 57,
      "hit": false,
      "t": 101007.86250000386,
      "d": 20.161250000004657,
      "v": 96
    },
    {
      "midi": 69,
      "hit": false,
      "t": 101007.86250000386,
      "d": 322.5800000000163,
      "v": 104
    },
    {
      "midi": 60,
      "hit": false,
      "t": 101017.94312500386,
      "d": 20.161250000004657,
      "v": 89
    },
    {
      "midi": 64,
      "hit": false,
      "t": 101028.02375000386,
      "d": 15.120937500003492,
      "v": 84
    },
    {
      "midi": 44,
      "hit": false,
      "t": 101123.78968750387,
      "d": 5.040312500001164,
      "v": 71
    },
    {
      "midi": 40,
      "hit": false,
      "t": 101128.83000000387,
      "d": 70.56437500000175,
      "v": 94
    },
    {
      "midi": 60,
      "hit": false,
      "t": 101128.83000000387,
      "d": 85.68531250000524,
      "v": 100
    },
    {
      "midi": 35,
      "hit": false,
      "t": 101128.83000000387,
      "d": 105.8465625000099,
      "v": 87
    },
    {
      "midi": 36,
      "hit": false,
      "t": 101128.83000000387,
      "d": 166.3303125000093,
      "v": 99
    },
    {
      "midi": 60,
      "hit": false,
      "t": 101249.79750000389,
      "d": 10.080625000002328,
      "v": 100
    },
    {
      "midi": 46,
      "hit": false,
      "t": 101370.76500000387,
      "d": 5.040312500001164,
      "v": 61
    },
    {
      "midi": 63,
      "hit": false,
      "t": 101370.76500000387,
      "d": 5.040312500001164,
      "v": 47
    },
    {
      "midi": 55,
      "hit": false,
      "t": 101370.76500000387,
      "d": 650.2003125000483,
      "v": 104
    },
    {
      "midi": 69,
      "hit": false,
      "t": 101370.76500000387,
      "d": 1083.6671875000757,
      "v": 104
    },
    {
      "midi": 63,
      "hit": false,
      "t": 101491.73250000387,
      "d": 5.040312500001164,
      "v": 85
    },
    {
      "midi": 60,
      "hit": false,
      "t": 101491.73250000387,
      "d": 5.040312500001164,
      "v": 95
    },
    {
      "midi": 57,
      "hit": false,
      "t": 101491.73250000387,
      "d": 15.120937500003492,
      "v": 36
    },
    {
      "midi": 31,
      "hit": false,
      "t": 101496.77281250387,
      "d": 5.040312500001164,
      "v": 42
    },
    {
      "midi": 60,
      "hit": false,
      "t": 101501.81312500387,
      "d": 15.120937500003492,
      "v": 46
    },
    {
      "midi": 64,
      "hit": false,
      "t": 101511.89375000387,
      "d": 15.120937500003492,
      "v": 30
    },
    {
      "midi": 44,
      "hit": false,
      "t": 101612.70000000388,
      "d": 5.040312500001164,
      "v": 64
    },
    {
      "midi": 60,
      "hit": false,
      "t": 101612.70000000388,
      "d": 5.040312500001164,
      "v": 92
    },
    {
      "midi": 35,
      "hit": false,
      "t": 101612.70000000388,
      "d": 90.7256250000064,
      "v": 86
    },
    {
      "midi": 57,
      "hit": false,
      "t": 101612.70000000388,
      "d": 95.76593750000757,
      "v": 13
    },
    {
      "midi": 36,
      "hit": false,
      "t": 101612.70000000388,
      "d": 115.92718750001222,
      "v": 94
    },
    {
      "midi": 31,
      "hit": false,
      "t": 101733.6675000039,
      "d": 5.040312500001164,
      "v": 39
    },
    {
      "midi": 60,
      "hit": false,
      "t": 101733.6675000039,
      "d": 5.040312500001164,
      "v": 94
    },
    {
      "midi": 57,
      "hit": false,
      "t": 101733.6675000039,
      "d": 20.161250000004657,
      "v": 80
    },
    {
      "midi": 60,
      "hit": false,
      "t": 101743.7481250039,
      "d": 20.161250000004657,
      "v": 68
    },
    {
      "midi": 64,
      "hit": false,
      "t": 101753.8287500039,
      "d": 20.161250000004657,
      "v": 75
    },
    {
      "midi": 46,
      "hit": false,
      "t": 101854.63500000391,
      "d": 5.040312500001164,
      "v": 70
    },
    {
      "midi": 62,
      "hit": false,
      "t": 101854.63500000391,
      "d": 5.040312500001164,
      "v": 85
    },
    {
      "midi": 60,
      "hit": false,
      "t": 101854.63500000391,
      "d": 5.040312500001164,
      "v": 94
    },
    {
      "midi": 36,
      "hit": false,
      "t": 101854.63500000391,
      "d": 156.24968750000698,
      "v": 102
    },
    {
      "midi": 40,
      "hit": false,
      "t": 102096.57000000392,
      "d": 65.52406250000058,
      "v": 91
    },
    {
      "midi": 35,
      "hit": false,
      "t": 102096.57000000392,
      "d": 90.7256250000064,
      "v": 86
    },
    {
      "midi": 57,
      "hit": false,
      "t": 102096.57000000392,
      "d": 181.45125000002736,
      "v": 96
    },
    {
      "midi": 52,
      "hit": false,
      "t": 102096.57000000392,
      "d": 433.46687500002736,
      "v": 104
    },
    {
      "midi": 48,
      "hit": false,
      "t": 102096.57000000392,
      "d": 433.46687500002736,
      "v": 104
    },
    {
      "midi": 44,
      "hit": false,
      "t": 102101.61031250392,
      "d": 5.040312500001164,
      "v": 71
    },
    {
      "midi": 60,
      "hit": false,
      "t": 102106.65062500392,
      "d": 90.7256250000064,
      "v": 82
    },
    {
      "midi": 62,
      "hit": false,
      "t": 102217.53750000393,
      "d": 5.040312500001164,
      "v": 62
    },
    {
      "midi": 60,
      "hit": false,
      "t": 102217.53750000393,
      "d": 5.040312500001164,
      "v": 47
    },
    {
      "midi": 64,
      "hit": false,
      "t": 102227.61812500394,
      "d": 25.20156250000582,
      "v": 52
    },
    {
      "midi": 46,
      "hit": false,
      "t": 102338.50500000395,
      "d": 5.040312500001164,
      "v": 70
    },
    {
      "midi": 63,
      "hit": false,
      "t": 102338.50500000395,
      "d": 5.040312500001164,
      "v": 53
    },
    {
      "midi": 64,
      "hit": false,
      "t": 102459.47250000395,
      "d": 5.040312500001164,
      "v": 74
    },
    {
      "midi": 36,
      "hit": false,
      "t": 102459.47250000395,
      "d": 5.040312500001164,
      "v": 72
    },
    {
      "midi": 60,
      "hit": false,
      "t": 102459.47250000395,
      "d": 5.040312500001164,
      "v": 88
    },
    {
      "midi": 44,
      "hit": false,
      "t": 102580.44000000395,
      "d": 5.040312500001164,
      "v": 71
    },
    {
      "midi": 35,
      "hit": false,
      "t": 102580.44000000395,
      "d": 90.7256250000064,
      "v": 79
    },
    {
      "midi": 38,
      "hit": false,
      "t": 102580.44000000395,
      "d": 171.37062500002503,
      "v": 96
    },
    {
      "midi": 69,
      "hit": false,
      "t": 102580.44000000395,
      "d": 322.58000000003085,
      "v": 104
    },
    {
      "midi": 54,
      "hit": false,
      "t": 102580.44000000395,
      "d": 433.4668750000419,
      "v": 104
    },
    {
      "midi": 50,
      "hit": false,
      "t": 102580.44000000395,
      "d": 433.4668750000419,
      "v": 104
    },
    {
      "midi": 60,
      "hit": false,
      "t": 102701.40750000396,
      "d": 10.080625000002328,
      "v": 90
    },
    {
      "midi": 57,
      "hit": false,
      "t": 102701.40750000396,
      "d": 30.241875000006985,
      "v": 56
    },
    {
      "midi": 60,
      "hit": false,
      "t": 102711.48812500396,
      "d": 25.20156250000582,
      "v": 50
    },
    {
      "midi": 66,
      "hit": false,
      "t": 102721.56875000396,
      "d": 30.241875000006985,
      "v": 33
    },
    {
      "midi": 46,
      "hit": false,
      "t": 102817.33468750397,
      "d": 5.040312500001164,
      "v": 74
    },
    {
      "midi": 62,
      "hit": false,
      "t": 102822.37500000397,
      "d": 5.040312500001164,
      "v": 85
    },
    {
      "midi": 60,
      "hit": false,
      "t": 102832.45562500398,
      "d": 95.76593750000757,
      "v": 57
    },
    {
      "midi": 60,
      "hit": false,
      "t": 102943.34250000399,
      "d": 10.080625000002328,
      "v": 92
    },
    {
      "midi": 57,
      "hit": false,
      "t": 102943.34250000399,
      "d": 20.161250000004657,
      "v": 96
    },
    {
      "midi": 71,
      "hit": false,
      "t": 102943.34250000399,
      "d": 322.5800000000163,
      "v": 104
    },
    {
      "midi": 60,
      "hit": false,
      "t": 102953.42312500399,
      "d": 20.161250000004657,
      "v": 89
    },
    {
      "midi": 66,
      "hit": false,
      "t": 102963.50375000399,
      "d": 15.120937500003492,
      "v": 84
    },
    {
      "midi": 44,
      "hit": false,
      "t": 103064.31000000398,
      "d": 5.040312500001164,
      "v": 61
    },
    {
      "midi": 40,
      "hit": false,
      "t": 103064.31000000398,
      "d": 65.52406250000058,
      "v": 91
    },
    {
      "midi": 35,
      "hit": false,
      "t": 103064.31000000398,
      "d": 90.7256250000064,
      "v": 79
    },
    {
      "midi": 38,
      "hit": false,
      "t": 103064.31000000398,
      "d": 176.41093750001164,
      "v": 96
    },
    {
      "midi": 47,
      "hit": false,
      "t": 103064.31000000398,
      "d": 433.46687500002736,
      "v": 104
    },
    {
      "midi": 60,
      "hit": false,
      "t": 103185.277500004,
      "d": 10.080625000002328,
      "v": 91
    },
    {
      "midi": 46,
      "hit": false,
      "t": 103301.204687504,
      "d": 5.040312500001164,
      "v": 67
    },
    {
      "midi": 63,
      "hit": false,
      "t": 103306.245000004,
      "d": 5.040312500001164,
      "v": 37
    },
    {
      "midi": 57,
      "hit": false,
      "t": 103306.245000004,
      "d": 236.89468750001106,
      "v": 90
    },
    {
      "midi": 72,
      "hit": false,
      "t": 103306.245000004,
      "d": 1083.6671875000466,
      "v": 104
    },
    {
      "midi": 60,
      "hit": false,
      "t": 103316.325625004,
      "d": 5.040312500001164,
      "v": 81
    },
    {
      "midi": 63,
      "hit": false,
      "t": 103427.212500004,
      "d": 5.040312500001164,
      "v": 80
    },
    {
      "midi": 60,
      "hit": false,
      "t": 103427.212500004,
      "d": 5.040312500001164,
      "v": 30
    },
    {
      "midi": 36,
      "hit": false,
      "t": 103427.212500004,
      "d": 15.120937500003492,
      "v": 86
    },
    {
      "midi": 31,
      "hit": false,
      "t": 103432.252812504,
      "d": 5.040312500001164,
      "v": 39
    },
    {
      "midi": 66,
      "hit": false,
      "t": 103437.293125004,
      "d": 30.241875000006985,
      "v": 30
    },
    {
      "midi": 44,
      "hit": false,
      "t": 103548.18000000401,
      "d": 5.040312500001164,
      "v": 71
    },
    {
      "midi": 35,
      "hit": false,
      "t": 103548.18000000401,
      "d": 90.7256250000064,
      "v": 86
    },
    {
      "midi": 38,
      "hit": false,
      "t": 103548.18000000401,
      "d": 95.76593750000757,
      "v": 94
    },
    {
      "midi": 48,
      "hit": false,
      "t": 103548.18000000401,
      "d": 433.4668750000128,
      "v": 104
    },
    {
      "midi": 60,
      "hit": false,
      "t": 103669.14750000402,
      "d": 10.080625000002328,
      "v": 95
    },
    {
      "midi": 57,
      "hit": false,
      "t": 103669.14750000402,
      "d": 20.161250000004657,
      "v": 91
    },
    {
      "midi": 60,
      "hit": false,
      "t": 103679.22812500403,
      "d": 25.20156250000582,
      "v": 82
    },
    {
      "midi": 66,
      "hit": false,
      "t": 103689.30875000403,
      "d": 50.40312499999709,
      "v": 86
    },
    {
      "midi": 46,
      "hit": false,
      "t": 103785.07468750402,
      "d": 5.040312500001164,
      "v": 64
    },
    {
      "midi": 62,
      "hit": false,
      "t": 103790.11500000402,
      "d": 5.040312500001164,
      "v": 78
    },
    {
      "midi": 60,
      "hit": false,
      "t": 103790.11500000402,
      "d": 105.84656249999534,
      "v": 77
    },
    {
      "midi": 38,
      "hit": false,
      "t": 103790.11500000402,
      "d": 166.33031249999476,
      "v": 97
    },
    {
      "midi": 60,
      "hit": false,
      "t": 103911.08250000402,
      "d": 10.080625000002328,
      "v": 97
    },
    {
      "midi": 44,
      "hit": false,
      "t": 104032.05000000402,
      "d": 5.040312500001164,
      "v": 71
    },
    {
      "midi": 40,
      "hit": false,
      "t": 104032.05000000402,
      "d": 65.52406250000058,
      "v": 94
    },
    {
      "midi": 35,
      "hit": false,
      "t": 104032.05000000402,
      "d": 90.7256250000064,
      "v": 86
    },
    {
      "midi": 49,
      "hit": false,
      "t": 104032.05000000402,
      "d": 433.46687500002736,
      "v": 104
    },
    {
      "midi": 62,
      "hit": false,
      "t": 104153.01750000403,
      "d": 5.040312500001164,
      "v": 62
    },
    {
      "midi": 60,
      "hit": false,
      "t": 104153.01750000403,
      "d": 5.040312500001164,
      "v": 92
    },
    {
      "midi": 57,
      "hit": false,
      "t": 104153.01750000403,
      "d": 10.080625000002328,
      "v": 76
    },
    {
      "midi": 36,
      "hit": false,
      "t": 104153.01750000403,
      "d": 15.120937500003492,
      "v": 86
    },
    {
      "midi": 60,
      "hit": false,
      "t": 104163.09812500403,
      "d": 15.120937500003492,
      "v": 65
    },
    {
      "midi": 66,
      "hit": false,
      "t": 104173.17875000404,
      "d": 15.120937500003492,
      "v": 69
    },
    {
      "midi": 46,
      "hit": false,
      "t": 104273.98500000405,
      "d": 5.040312500001164,
      "v": 70
    },
    {
      "midi": 63,
      "hit": false,
      "t": 104273.98500000405,
      "d": 5.040312500001164,
      "v": 55
    },
    {
      "midi": 60,
      "hit": false,
      "t": 104273.98500000405,
      "d": 105.84656249999534,
      "v": 63
    },
    {
      "midi": 33,
      "hit": false,
      "t": 104273.98500000405,
      "d": 196.57218750000175,
      "v": 83
    },
    {
      "midi": 63,
      "hit": false,
      "t": 104394.95250000404,
      "d": 5.040312500001164,
      "v": 70
    },
    {
      "midi": 60,
      "hit": false,
      "t": 104394.95250000404,
      "d": 5.040312500001164,
      "v": 92
    },
    {
      "midi": 44,
      "hit": false,
      "t": 104515.92000000404,
      "d": 5.040312500001164,
      "v": 64
    },
    {
      "midi": 35,
      "hit": false,
      "t": 104515.92000000404,
      "d": 105.8465625000099,
      "v": 87
    },
    {
      "midi": 54,
      "hit": false,
      "t": 104515.92000000404,
      "d": 241.93500000001222,
      "v": 104
    },
    {
      "midi": 50,
      "hit": false,
      "t": 104515.92000000404,
      "d": 241.93500000001222,
      "v": 104
    },
    {
      "midi": 38,
      "hit": false,
      "t": 104515.92000000404,
      "d": 473.7893750000221,
      "v": 89
    },
    {
      "midi": 60,
      "hit": false,
      "t": 104526.00062500405,
      "d": 100.80625000000873,
      "v": 46
    },
    {
      "midi": 69,
      "hit": false,
      "t": 104536.08125000405,
      "d": 85.68531250000524,
      "v": 50
    },
    {
      "midi": 66,
      "hit": false,
      "t": 104536.08125000405,
      "d": 100.80625000000873,
      "v": 50
    },
    {
      "midi": 60,
      "hit": false,
      "t": 104636.88750000406,
      "d": 5.040312500001164,
      "v": 95
    },
    {
      "midi": 69,
      "hit": false,
      "t": 104636.88750000406,
      "d": 110.88687499999651,
      "v": 47
    },
    {
      "midi": 60,
      "hit": false,
      "t": 104646.96812500406,
      "d": 95.76593749999302,
      "v": 51
    },
    {
      "midi": 66,
      "hit": false,
      "t": 104646.96812500406,
      "d": 110.88687499999651,
      "v": 51
    },
    {
      "midi": 46,
      "hit": false,
      "t": 104752.81468750405,
      "d": 5.040312500001164,
      "v": 69
    },
    {
      "midi": 62,
      "hit": false,
      "t": 104757.85500000406,
      "d": 5.040312500001164,
      "v": 91
    },
    {
      "midi": 60,
      "hit": false,
      "t": 104757.85500000406,
      "d": 105.84656249999534,
      "v": 50
    },
    {
      "midi": 69,
      "hit": false,
      "t": 104767.93562500406,
      "d": 95.76593749999302,
      "v": 56
    },
    {
      "midi": 66,
      "hit": false,
      "t": 104767.93562500406,
      "d": 110.88687499999651,
      "v": 56
    },
    {
      "midi": 63,
      "hit": false,
      "t": 104878.82250000405,
      "d": 5.040312500001164,
      "v": 91
    },
    {
      "midi": 60,
      "hit": false,
      "t": 104878.82250000405,
      "d": 10.080625000002328,
      "v": 96
    },
    {
      "midi": 69,
      "hit": false,
      "t": 104878.82250000405,
      "d": 95.76593750000757,
      "v": 51
    },
    {
      "midi": 60,
      "hit": false,
      "t": 104888.90312500406,
      "d": 80.64500000000407,
      "v": 51
    },
    {
      "midi": 66,
      "hit": false,
      "t": 104888.90312500406,
      "d": 95.76593750000757,
      "v": 51
    },
    {
      "midi": 44,
      "hit": false,
      "t": 104994.74968750407,
      "d": 5.040312500001164,
      "v": 71
    },
    {
      "midi": 59,
      "hit": false,
      "t": 104999.79000000407,
      "d": 5.040312500001164,
      "v": 56
    },
    {
      "midi": 40,
      "hit": false,
      "t": 104999.79000000407,
      "d": 70.56437500000175,
      "v": 94
    },
    {
      "midi": 35,
      "hit": false,
      "t": 104999.79000000407,
      "d": 105.84656249999534,
      "v": 87
    },
    {
      "midi": 55,
      "hit": false,
      "t": 104999.79000000407,
      "d": 433.46687499999825,
      "v": 120
    },
    {
      "midi": 52,
      "hit": false,
      "t": 104999.79000000407,
      "d": 433.46687499999825,
      "v": 120
    },
    {
      "midi": 71,
      "hit": false,
      "t": 104999.79000000407,
      "d": 433.46687499999825,
      "v": 120
    },
    {
      "midi": 64,
      "hit": false,
      "t": 105009.87062500407,
      "d": 5.040312500001164,
      "v": 60
    },
    {
      "midi": 67,
      "hit": false,
      "t": 105014.91093750407,
      "d": 5.040312500001164,
      "v": 64
    },
    {
      "midi": 64,
      "hit": false,
      "t": 105120.75750000407,
      "d": 5.040312500001164,
      "v": 91
    },
    {
      "midi": 67,
      "hit": false,
      "t": 105120.75750000407,
      "d": 5.040312500001164,
      "v": 50
    },
    {
      "midi": 64,
      "hit": false,
      "t": 105130.83812500407,
      "d": 5.040312500001164,
      "v": 53
    },
    {
      "midi": 59,
      "hit": false,
      "t": 105135.87843750407,
      "d": 5.040312500001164,
      "v": 55
    },
    {
      "midi": 46,
      "hit": false,
      "t": 105241.72500000407,
      "d": 5.040312500001164,
      "v": 61
    },
    {
      "midi": 63,
      "hit": false,
      "t": 105241.72500000407,
      "d": 5.040312500001164,
      "v": 47
    },
    {
      "midi": 59,
      "hit": false,
      "t": 105241.72500000407,
      "d": 110.88687499999651,
      "v": 49
    },
    {
      "midi": 67,
      "hit": false,
      "t": 105251.80562500407,
      "d": 95.76593749999302,
      "v": 54
    },
    {
      "midi": 64,
      "hit": false,
      "t": 105251.80562500407,
      "d": 110.88687499999651,
      "v": 54
    },
    {
      "midi": 63,
      "hit": false,
      "t": 105362.69250000406,
      "d": 5.040312500001164,
      "v": 85
    },
    {
      "midi": 67,
      "hit": false,
      "t": 105362.69250000406,
      "d": 5.040312500001164,
      "v": 50
    },
    {
      "midi": 59,
      "hit": false,
      "t": 105362.69250000406,
      "d": 5.040312500001164,
      "v": 107
    },
    {
      "midi": 64,
      "hit": false,
      "t": 105372.77312500407,
      "d": 5.040312500001164,
      "v": 53
    },
    {
      "midi": 59,
      "hit": false,
      "t": 105377.81343750407,
      "d": 5.040312500001164,
      "v": 55
    },
    {
      "midi": 40,
      "hit": false,
      "t": 105483.66000000406,
      "d": 5.040312500001164,
      "v": 93
    },
    {
      "midi": 44,
      "hit": false,
      "t": 105483.66000000406,
      "d": 5.040312500001164,
      "v": 64
    },
    {
      "midi": 59,
      "hit": false,
      "t": 105483.66000000406,
      "d": 5.040312500001164,
      "v": 56
    },
    {
      "midi": 35,
      "hit": false,
      "t": 105483.66000000406,
      "d": 90.7256250000064,
      "v": 86
    },
    {
      "midi": 55,
      "hit": false,
      "t": 105483.66000000406,
      "d": 433.4668750000128,
      "v": 120
    },
    {
      "midi": 50,
      "hit": false,
      "t": 105483.66000000406,
      "d": 433.4668750000128,
      "v": 120
    },
    {
      "midi": 71,
      "hit": false,
      "t": 105483.66000000406,
      "d": 433.4668750000128,
      "v": 120
    },
    {
      "midi": 38,
      "hit": false,
      "t": 105483.66000000406,
      "d": 473.78937500000757,
      "v": 82
    },
    {
      "midi": 64,
      "hit": false,
      "t": 105493.74062500407,
      "d": 5.040312500001164,
      "v": 60
    },
    {
      "midi": 67,
      "hit": false,
      "t": 105498.78093750407,
      "d": 5.040312500001164,
      "v": 64
    },
    {
      "midi": 62,
      "hit": false,
      "t": 105604.62750000408,
      "d": 5.040312500001164,
      "v": 91
    },
    {
      "midi": 59,
      "hit": false,
      "t": 105604.62750000408,
      "d": 110.88687499999651,
      "v": 49
    },
    {
      "midi": 67,
      "hit": false,
      "t": 105614.70812500408,
      "d": 95.76593749999302,
      "v": 54
    },
    {
      "midi": 64,
      "hit": false,
      "t": 105614.70812500408,
      "d": 110.88687499999651,
      "v": 54
    },
    {
      "midi": 40,
      "hit": false,
      "t": 105725.59500000408,
      "d": 5.040312500001164,
      "v": 64
    },
    {
      "midi": 64,
      "hit": false,
      "t": 105725.59500000408,
      "d": 5.040312500001164,
      "v": 78
    },
    {
      "midi": 67,
      "hit": false,
      "t": 105725.59500000408,
      "d": 5.040312500001164,
      "v": 50
    },
    {
      "midi": 64,
      "hit": false,
      "t": 105735.67562500408,
      "d": 5.040312500001164,
      "v": 53
    },
    {
      "midi": 59,
      "hit": false,
      "t": 105740.71593750408,
      "d": 5.040312500001164,
      "v": 55
    },
    {
      "midi": 40,
      "hit": false,
      "t": 105846.56250000407,
      "d": 5.040312500001164,
      "v": 87
    },
    {
      "midi": 64,
      "hit": false,
      "t": 105846.56250000407,
      "d": 5.040312500001164,
      "v": 78
    },
    {
      "midi": 59,
      "hit": false,
      "t": 105846.56250000407,
      "d": 5.040312500001164,
      "v": 56
    },
    {
      "midi": 64,
      "hit": false,
      "t": 105856.64312500408,
      "d": 5.040312500001164,
      "v": 60
    },
    {
      "midi": 67,
      "hit": false,
      "t": 105861.68343750408,
      "d": 5.040312500001164,
      "v": 64
    },
    {
      "midi": 40,
      "hit": false,
      "t": 105967.53000000407,
      "d": 5.040312500001164,
      "v": 98
    },
    {
      "midi": 64,
      "hit": false,
      "t": 105967.53000000407,
      "d": 5.040312500001164,
      "v": 82
    },
    {
      "midi": 35,
      "hit": false,
      "t": 105967.53000000407,
      "d": 90.7256250000064,
      "v": 86
    },
    {
      "midi": 59,
      "hit": false,
      "t": 105967.53000000407,
      "d": 110.88687500001106,
      "v": 49
    },
    {
      "midi": 56,
      "hit": false,
      "t": 105967.53000000407,
      "d": 433.4668750000128,
      "v": 120
    },
    {
      "midi": 53,
      "hit": false,
      "t": 105967.53000000407,
      "d": 433.4668750000128,
      "v": 120
    },
    {
      "midi": 49,
      "hit": false,
      "t": 105967.53000000407,
      "d": 433.4668750000128,
      "v": 120
    },
    {
      "midi": 71,
      "hit": false,
      "t": 105967.53000000407,
      "d": 433.4668750000128,
      "v": 120
    },
    {
      "midi": 44,
      "hit": false,
      "t": 105972.57031250407,
      "d": 5.040312500001164,
      "v": 71
    },
    {
      "midi": 68,
      "hit": false,
      "t": 105977.61062500408,
      "d": 95.76593750000757,
      "v": 54
    },
    {
      "midi": 65,
      "hit": false,
      "t": 105977.61062500408,
      "d": 110.88687500001106,
      "v": 54
    },
    {
      "midi": 62,
      "hit": false,
      "t": 106088.49750000409,
      "d": 5.040312500001164,
      "v": 93
    },
    {
      "midi": 68,
      "hit": false,
      "t": 106088.49750000409,
      "d": 110.88687499999651,
      "v": 47
    },
    {
      "midi": 59,
      "hit": false,
      "t": 106098.57812500409,
      "d": 95.76593749999302,
      "v": 51
    },
    {
      "midi": 65,
      "hit": false,
      "t": 106098.57812500409,
      "d": 110.88687499999651,
      "v": 51
    },
    {
      "midi": 40,
      "hit": false,
      "t": 106209.46500000409,
      "d": 5.040312500001164,
      "v": 82
    },
    {
      "midi": 59,
      "hit": false,
      "t": 106209.46500000409,
      "d": 5.040312500001164,
      "v": 56
    },
    {
      "midi": 65,
      "hit": false,
      "t": 106219.54562500409,
      "d": 5.040312500001164,
      "v": 60
    },
    {
      "midi": 32,
      "hit": false,
      "t": 106219.54562500409,
      "d": 221.77374999999302,
      "v": 76
    },
    {
      "midi": 68,
      "hit": false,
      "t": 106224.58593750409,
      "d": 5.040312500001164,
      "v": 64
    },
    {
      "midi": 40,
      "hit": false,
      "t": 106330.43250000408,
      "d": 5.040312500001164,
      "v": 82
    },
    {
      "midi": 59,
      "hit": false,
      "t": 106330.43250000408,
      "d": 5.040312500001164,
      "v": 102
    },
    {
      "midi": 68,
      "hit": false,
      "t": 106340.51312500409,
      "d": 5.040312500001164,
      "v": 50
    },
    {
      "midi": 65,
      "hit": false,
      "t": 106350.59375000409,
      "d": 5.040312500001164,
      "v": 53
    },
    {
      "midi": 59,
      "hit": false,
      "t": 106355.63406250409,
      "d": 5.040312500001164,
      "v": 55
    },
    {
      "midi": 57,
      "hit": false,
      "t": 106446.35968750408,
      "d": 5.040312500001164,
      "v": 79
    },
    {
      "midi": 98,
      "hit": false,
      "t": 106451.40000000408,
      "d": 10.080625000002328,
      "v": 78
    },
    {
      "midi": 82,
      "hit": false,
      "t": 106451.40000000408,
      "d": 10.080625000002328,
      "v": 102
    },
    {
      "midi": 42,
      "hit": false,
      "t": 106451.40000000408,
      "d": 45.362812499995925,
      "v": 95
    },
    {
      "midi": 55,
      "hit": false,
      "t": 106451.40000000408,
      "d": 50.40312499999709,
      "v": 58
    },
    {
      "midi": 60,
      "hit": false,
      "t": 106451.40000000408,
      "d": 60.48374999999942,
      "v": 53
    },
    {
      "midi": 35,
      "hit": false,
      "t": 106451.40000000408,
      "d": 105.8465625000099,
      "v": 87
    },
    {
      "midi": 52,
      "hit": false,
      "t": 106451.40000000408,
      "d": 241.93500000001222,
      "v": 104
    },
    {
      "midi": 48,
      "hit": false,
      "t": 106451.40000000408,
      "d": 241.93500000001222,
      "v": 104
    },
    {
      "midi": 36,
      "hit": false,
      "t": 106451.40000000408,
      "d": 307.45906250002736,
      "v": 105
    },
    {
      "midi": 71,
      "hit": false,
      "t": 106451.40000000408,
      "d": 322.58000000003085,
      "v": 47
    },
    {
      "midi": 67,
      "hit": false,
      "t": 106451.40000000408,
      "d": 1935.4800000002142,
      "v": 47
    },
    {
      "midi": 59,
      "hit": false,
      "t": 106456.44031250408,
      "d": 40.32249999999476,
      "v": 54
    },
    {
      "midi": 64,
      "hit": false,
      "t": 106461.48062500409,
      "d": 65.52406250000058,
      "v": 54
    },
    {
      "midi": 98,
      "hit": false,
      "t": 106572.3675000041,
      "d": 5.040312500001164,
      "v": 41
    },
    {
      "midi": 82,
      "hit": false,
      "t": 106572.3675000041,
      "d": 5.040312500001164,
      "v": 51
    },
    {
      "midi": 55,
      "hit": false,
      "t": 106572.3675000041,
      "d": 10.080625000002328,
      "v": 56
    },
    {
      "midi": 59,
      "hit": false,
      "t": 106577.4078125041,
      "d": 10.080625000002328,
      "v": 54
    },
    {
      "midi": 64,
      "hit": false,
      "t": 106582.4481250041,
      "d": 70.56437500000175,
      "v": 56
    },
    {
      "midi": 54,
      "hit": false,
      "t": 106592.5287500041,
      "d": 40.32249999999476,
      "v": 34
    },
    {
      "midi": 82,
      "hit": false,
      "t": 106693.3350000041,
      "d": 10.080625000002328,
      "v": 60
    },
    {
      "midi": 42,
      "hit": false,
      "t": 106693.3350000041,
      "d": 40.32250000000931,
      "v": 82
    },
    {
      "midi": 54,
      "hit": false,
      "t": 106693.3350000041,
      "d": 70.5643750000163,
      "v": 94
    },
    {
      "midi": 55,
      "hit": false,
      "t": 106814.30250000411,
      "d": 5.040312500001164,
      "v": 22
    },
    {
      "midi": 60,
      "hit": false,
      "t": 106814.30250000411,
      "d": 5.040312500001164,
      "v": 35
    },
    {
      "midi": 36,
      "hit": false,
      "t": 106814.30250000411,
      "d": 90.72562500002095,
      "v": 102
    },
    {
      "midi": 71,
      "hit": false,
      "t": 106814.30250000411,
      "d": 322.58000000003085,
      "v": 104
    },
    {
      "midi": 98,
      "hit": false,
      "t": 106819.34281250411,
      "d": 10.080625000002328,
      "v": 45
    },
    {
      "midi": 82,
      "hit": false,
      "t": 106819.34281250411,
      "d": 10.080625000002328,
      "v": 58
    },
    {
      "midi": 59,
      "hit": false,
      "t": 106819.34281250411,
      "d": 45.36281250001048,
      "v": 29
    },
    {
      "midi": 64,
      "hit": false,
      "t": 106824.38312500411,
      "d": 50.40312500001164,
      "v": 26
    },
    {
      "midi": 54,
      "hit": false,
      "t": 106834.46375000411,
      "d": 40.32250000000931,
      "v": 40
    },
    {
      "midi": 98,
      "hit": false,
      "t": 106935.27000000414,
      "d": 10.080625000002328,
      "v": 84
    },
    {
      "midi": 82,
      "hit": false,
      "t": 106935.27000000414,
      "d": 10.080625000002328,
      "v": 108
    },
    {
      "midi": 55,
      "hit": false,
      "t": 106935.27000000414,
      "d": 25.20156250000582,
      "v": 67
    },
    {
      "midi": 42,
      "hit": false,
      "t": 106935.27000000414,
      "d": 65.52406250000058,
      "v": 98
    },
    {
      "midi": 40,
      "hit": false,
      "t": 106935.27000000414,
      "d": 70.56437500000175,
      "v": 94
    },
    {
      "midi": 60,
      "hit": false,
      "t": 106935.27000000414,
      "d": 70.56437500000175,
      "v": 61
    },
    {
      "midi": 31,
      "hit": false,
      "t": 106935.27000000414,
      "d": 297.3784375000105,
      "v": 105
    },
    {
      "midi": 59,
      "hit": false,
      "t": 106940.31031250414,
      "d": 10.080625000002328,
      "v": 49
    },
    {
      "midi": 64,
      "hit": false,
      "t": 106945.35062500414,
      "d": 10.080625000002328,
      "v": 54
    },
    {
      "midi": 98,
      "hit": false,
      "t": 107056.23750000414,
      "d": 5.040312500001164,
      "v": 35
    },
    {
      "midi": 82,
      "hit": false,
      "t": 107056.23750000414,
      "d": 5.040312500001164,
      "v": 43
    },
    {
      "midi": 54,
      "hit": false,
      "t": 107076.39875000414,
      "d": 40.32249999999476,
      "v": 39
    },
    {
      "midi": 55,
      "hit": false,
      "t": 107177.20500000413,
      "d": 5.040312500001164,
      "v": 22
    },
    {
      "midi": 82,
      "hit": false,
      "t": 107177.20500000413,
      "d": 10.080625000002328,
      "v": 66
    },
    {
      "midi": 42,
      "hit": false,
      "t": 107177.20500000413,
      "d": 40.32250000000931,
      "v": 82
    },
    {
      "midi": 54,
      "hit": false,
      "t": 107177.20500000413,
      "d": 85.68531250001979,
      "v": 47
    },
    {
      "midi": 52,
      "hit": false,
      "t": 107177.20500000413,
      "d": 216.73343750002095,
      "v": 104
    },
    {
      "midi": 48,
      "hit": false,
      "t": 107177.20500000413,
      "d": 216.73343750002095,
      "v": 104
    },
    {
      "midi": 71,
      "hit": false,
      "t": 107177.20500000413,
      "d": 216.73343750002095,
      "v": 104
    },
    {
      "midi": 59,
      "hit": false,
      "t": 107182.24531250414,
      "d": 55.443437500012806,
      "v": 22
    },
    {
      "midi": 64,
      "hit": false,
      "t": 107187.28562500414,
      "d": 50.40312500001164,
      "v": 22
    },
    {
      "midi": 55,
      "hit": false,
      "t": 107298.17250000415,
      "d": 65.52406250000058,
      "v": 65
    },
    {
      "midi": 60,
      "hit": false,
      "t": 107298.17250000415,
      "d": 80.64500000000407,
      "v": 66
    },
    {
      "midi": 31,
      "hit": false,
      "t": 107303.21281250415,
      "d": 5.040312500001164,
      "v": 35
    },
    {
      "midi": 98,
      "hit": false,
      "t": 107303.21281250415,
      "d": 10.080625000002328,
      "v": 49
    },
    {
      "midi": 82,
      "hit": false,
      "t": 107303.21281250415,
      "d": 10.080625000002328,
      "v": 64
    },
    {
      "midi": 59,
      "hit": false,
      "t": 107303.21281250415,
      "d": 65.52406250000058,
      "v": 67
    },
    {
      "midi": 64,
      "hit": false,
      "t": 107308.25312500415,
      "d": 80.64500000000407,
      "v": 55
    },
    {
      "midi": 54,
      "hit": false,
      "t": 107318.33375000415,
      "d": 40.32249999999476,
      "v": 39
    },
    {
      "midi": 98,
      "hit": false,
      "t": 107419.14000000416,
      "d": 10.080625000002328,
      "v": 78
    },
    {
      "midi": 82,
      "hit": false,
      "t": 107419.14000000416,
      "d": 10.080625000002328,
      "v": 102
    },
    {
      "midi": 55,
      "hit": false,
      "t": 107419.14000000416,
      "d": 10.080625000002328,
      "v": 54
    },
    {
      "midi": 42,
      "hit": false,
      "t": 107419.14000000416,
      "d": 60.48374999999942,
      "v": 98
    },
    {
      "midi": 35,
      "hit": false,
      "t": 107419.14000000416,
      "d": 90.7256250000064,
      "v": 86
    },
    {
      "midi": 36,
      "hit": false,
      "t": 107419.14000000416,
      "d": 211.69312500003434,
      "v": 105
    },
    {
      "midi": 71,
      "hit": false,
      "t": 107419.14000000416,
      "d": 322.58000000005995,
      "v": 104
    },
    {
      "midi": 59,
      "hit": false,
      "t": 107424.18031250416,
      "d": 10.080625000002328,
      "v": 41
    },
    {
      "midi": 64,
      "hit": false,
      "t": 107429.22062500416,
      "d": 10.080625000002328,
      "v": 49
    },
    {
      "midi": 31,
      "hit": false,
      "t": 107540.10750000417,
      "d": 5.040312500001164,
      "v": 30
    },
    {
      "midi": 98,
      "hit": false,
      "t": 107540.10750000417,
      "d": 5.040312500001164,
      "v": 41
    },
    {
      "midi": 82,
      "hit": false,
      "t": 107540.10750000417,
      "d": 5.040312500001164,
      "v": 51
    },
    {
      "midi": 59,
      "hit": false,
      "t": 107540.10750000417,
      "d": 50.40312500001164,
      "v": 22
    },
    {
      "midi": 64,
      "hit": false,
      "t": 107545.14781250418,
      "d": 55.443437500012806,
      "v": 22
    },
    {
      "midi": 54,
      "hit": false,
      "t": 107560.26875000418,
      "d": 40.32250000000931,
      "v": 34
    },
    {
      "midi": 82,
      "hit": false,
      "t": 107661.0750000042,
      "d": 10.080625000002328,
      "v": 60
    },
    {
      "midi": 55,
      "hit": false,
      "t": 107661.0750000042,
      "d": 10.080625000002328,
      "v": 55
    },
    {
      "midi": 42,
      "hit": false,
      "t": 107661.0750000042,
      "d": 40.32250000000931,
      "v": 73
    },
    {
      "midi": 60,
      "hit": false,
      "t": 107661.0750000042,
      "d": 70.5643750000163,
      "v": 61
    },
    {
      "midi": 36,
      "hit": false,
      "t": 107661.0750000042,
      "d": 206.65281250003318,
      "v": 105
    },
    {
      "midi": 59,
      "hit": false,
      "t": 107666.1153125042,
      "d": 10.080625000002328,
      "v": 55
    },
    {
      "midi": 64,
      "hit": false,
      "t": 107671.1556250042,
      "d": 25.20156250000582,
      "v": 55
    },
    {
      "midi": 54,
      "hit": false,
      "t": 107681.2362500042,
      "d": 70.5643750000163,
      "v": 93
    },
    {
      "midi": 71,
      "hit": false,
      "t": 107782.04250000423,
      "d": 322.5800000000454,
      "v": 104
    },
    {
      "midi": 98,
      "hit": false,
      "t": 107787.08281250423,
      "d": 10.080625000002328,
      "v": 45
    },
    {
      "midi": 82,
      "hit": false,
      "t": 107787.08281250423,
      "d": 10.080625000002328,
      "v": 58
    },
    {
      "midi": 54,
      "hit": false,
      "t": 107802.20375000424,
      "d": 40.32249999999476,
      "v": 31
    },
    {
      "midi": 98,
      "hit": false,
      "t": 107903.01000000423,
      "d": 10.080625000002328,
      "v": 84
    },
    {
      "midi": 82,
      "hit": false,
      "t": 107903.01000000423,
      "d": 10.080625000002328,
      "v": 108
    },
    {
      "midi": 60,
      "hit": false,
      "t": 107903.01000000423,
      "d": 45.36281250001048,
      "v": 51
    },
    {
      "midi": 55,
      "hit": false,
      "t": 107903.01000000423,
      "d": 50.40312500001164,
      "v": 54
    },
    {
      "midi": 42,
      "hit": false,
      "t": 107903.01000000423,
      "d": 65.52406250001513,
      "v": 98
    },
    {
      "midi": 40,
      "hit": false,
      "t": 107903.01000000423,
      "d": 65.52406250001513,
      "v": 91
    },
    {
      "midi": 28,
      "hit": false,
      "t": 107903.01000000423,
      "d": 191.53187500004424,
      "v": 102
    },
    {
      "midi": 59,
      "hit": false,
      "t": 107908.05031250423,
      "d": 45.36281250001048,
      "v": 49
    },
    {
      "midi": 64,
      "hit": false,
      "t": 107913.09062500423,
      "d": 70.5643750000163,
      "v": 56
    },
    {
      "midi": 39,
      "hit": false,
      "t": 107923.17125000423,
      "d": 70.5643750000163,
      "v": 76
    },
    {
      "midi": 98,
      "hit": false,
      "t": 108023.97750000426,
      "d": 5.040312500001164,
      "v": 35
    },
    {
      "midi": 82,
      "hit": false,
      "t": 108023.97750000426,
      "d": 5.040312500001164,
      "v": 43
    },
    {
      "midi": 55,
      "hit": false,
      "t": 108023.97750000426,
      "d": 45.36281250001048,
      "v": 23
    },
    {
      "midi": 60,
      "hit": false,
      "t": 108023.97750000426,
      "d": 45.36281250001048,
      "v": 42
    },
    {
      "midi": 59,
      "hit": false,
      "t": 108029.01781250426,
      "d": 50.40312500001164,
      "v": 47
    },
    {
      "midi": 64,
      "hit": false,
      "t": 108034.05812500426,
      "d": 45.36281250001048,
      "v": 38
    },
    {
      "midi": 54,
      "hit": false,
      "t": 108044.13875000426,
      "d": 40.32250000000931,
      "v": 39
    },
    {
      "midi": 82,
      "hit": false,
      "t": 108144.94500000429,
      "d": 10.080625000002328,
      "v": 66
    },
    {
      "midi": 42,
      "hit": false,
      "t": 108144.94500000429,
      "d": 60.48374999999942,
      "v": 82
    },
    {
      "midi": 54,
      "hit": false,
      "t": 108144.94500000429,
      "d": 85.68531250000524,
      "v": 50
    },
    {
      "midi": 31,
      "hit": false,
      "t": 108144.94500000429,
      "d": 161.29000000000815,
      "v": 105
    },
    {
      "midi": 71,
      "hit": false,
      "t": 108144.94500000429,
      "d": 216.7334375000064,
      "v": 104
    },
    {
      "midi": 55,
      "hit": false,
      "t": 108265.91250000428,
      "d": 10.080625000002328,
      "v": 51
    },
    {
      "midi": 59,
      "hit": false,
      "t": 108270.95281250429,
      "d": 5.040312500001164,
      "v": 49
    },
    {
      "midi": 98,
      "hit": false,
      "t": 108270.95281250429,
      "d": 10.080625000002328,
      "v": 49
    },
    {
      "midi": 82,
      "hit": false,
      "t": 108270.95281250429,
      "d": 10.080625000002328,
      "v": 64
    },
    {
      "midi": 64,
      "hit": false,
      "t": 108275.99312500429,
      "d": 10.080625000002328,
      "v": 54
    },
    {
      "midi": 54,
      "hit": false,
      "t": 108286.07375000429,
      "d": 40.32250000000931,
      "v": 40
    },
    {
      "midi": 98,
      "hit": false,
      "t": 108386.8800000043,
      "d": 10.080625000002328,
      "v": 78
    },
    {
      "midi": 82,
      "hit": false,
      "t": 108386.8800000043,
      "d": 10.080625000002328,
      "v": 102
    },
    {
      "midi": 55,
      "hit": false,
      "t": 108386.8800000043,
      "d": 65.52406250000058,
      "v": 65
    },
    {
      "midi": 42,
      "hit": false,
      "t": 108386.8800000043,
      "d": 75.60468750000291,
      "v": 98
    },
    {
      "midi": 35,
      "hit": false,
      "t": 108386.8800000043,
      "d": 90.7256250000064,
      "v": 79
    },
    {
      "midi": 51,
      "hit": false,
      "t": 108386.8800000043,
      "d": 241.93500000001222,
      "v": 104
    },
    {
      "midi": 47,
      "hit": false,
      "t": 108386.8800000043,
      "d": 241.93500000001222,
      "v": 104
    },
    {
      "midi": 71,
      "hit": false,
      "t": 108386.8800000043,
      "d": 322.5800000000163,
      "v": 47
    },
    {
      "midi": 59,
      "hit": false,
      "t": 108391.9203125043,
      "d": 60.48374999999942,
      "v": 60
    },
    {
      "midi": 63,
      "hit": false,
      "t": 108396.9606250043,
      "d": 70.56437500000175,
      "v": 60
    },
    {
      "midi": 98,
      "hit": false,
      "t": 108507.84750000431,
      "d": 5.040312500001164,
      "v": 41
    },
    {
      "midi": 82,
      "hit": false,
      "t": 108507.84750000431,
      "d": 5.040312500001164,
      "v": 51
    },
    {
      "midi": 55,
      "hit": false,
      "t": 108507.84750000431,
      "d": 10.080625000002328,
      "v": 51
    },
    {
      "midi": 59,
      "hit": false,
      "t": 108512.88781250431,
      "d": 5.040312500001164,
      "v": 41
    },
    {
      "midi": 63,
      "hit": false,
      "t": 108517.92812500431,
      "d": 10.080625000002328,
      "v": 57
    },
    {
      "midi": 54,
      "hit": false,
      "t": 108528.00875000432,
      "d": 40.32249999999476,
      "v": 34
    },
    {
      "midi": 82,
      "hit": false,
      "t": 108628.81500000431,
      "d": 10.080625000002328,
      "v": 60
    },
    {
      "midi": 42,
      "hit": false,
      "t": 108628.81500000431,
      "d": 45.362812499995925,
      "v": 82
    },
    {
      "midi": 54,
      "hit": false,
      "t": 108628.81500000431,
      "d": 70.56437500000175,
      "v": 94
    },
    {
      "midi": 55,
      "hit": false,
      "t": 108749.78250000432,
      "d": 50.40312500001164,
      "v": 22
    },
    {
      "midi": 71,
      "hit": false,
      "t": 108749.78250000432,
      "d": 322.5800000000163,
      "v": 104
    },
    {
      "midi": 98,
      "hit": false,
      "t": 108754.82281250432,
      "d": 10.080625000002328,
      "v": 45
    },
    {
      "midi": 82,
      "hit": false,
      "t": 108754.82281250432,
      "d": 10.080625000002328,
      "v": 58
    },
    {
      "midi": 59,
      "hit": false,
      "t": 108754.82281250432,
      "d": 50.40312500001164,
      "v": 22
    },
    {
      "midi": 63,
      "hit": false,
      "t": 108759.86312500433,
      "d": 50.40312500001164,
      "v": 25
    },
    {
      "midi": 54,
      "hit": false,
      "t": 108769.94375000433,
      "d": 40.32250000000931,
      "v": 40
    },
    {
      "midi": 31,
      "hit": false,
      "t": 108865.70968750434,
      "d": 357.86218749999534,
      "v": 105
    },
    {
      "midi": 98,
      "hit": false,
      "t": 108870.75000000434,
      "d": 10.080625000002328,
      "v": 84
    },
    {
      "midi": 82,
      "hit": false,
      "t": 108870.75000000434,
      "d": 10.080625000002328,
      "v": 108
    },
    {
      "midi": 55,
      "hit": false,
      "t": 108870.75000000434,
      "d": 10.080625000002328,
      "v": 49
    },
    {
      "midi": 40,
      "hit": false,
      "t": 108870.75000000434,
      "d": 65.52406250000058,
      "v": 91
    },
    {
      "midi": 42,
      "hit": false,
      "t": 108870.75000000434,
      "d": 70.56437500000175,
      "v": 98
    },
    {
      "midi": 59,
      "hit": false,
      "t": 108875.79031250434,
      "d": 10.080625000002328,
      "v": 56
    },
    {
      "midi": 63,
      "hit": false,
      "t": 108880.83062500434,
      "d": 10.080625000002328,
      "v": 54
    },
    {
      "midi": 98,
      "hit": false,
      "t": 108991.71750000434,
      "d": 5.040312500001164,
      "v": 35
    },
    {
      "midi": 82,
      "hit": false,
      "t": 108991.71750000434,
      "d": 5.040312500001164,
      "v": 43
    },
    {
      "midi": 54,
      "hit": false,
      "t": 109011.87875000434,
      "d": 40.32249999999476,
      "v": 39
    },
    {
      "midi": 82,
      "hit": false,
      "t": 109112.68500000433,
      "d": 10.080625000002328,
      "v": 66
    },
    {
      "midi": 42,
      "hit": false,
      "t": 109112.68500000433,
      "d": 50.40312499999709,
      "v": 64
    },
    {
      "midi": 54,
      "hit": false,
      "t": 109112.68500000433,
      "d": 85.68531249999069,
      "v": 47
    },
    {
      "midi": 51,
      "hit": false,
      "t": 109112.68500000433,
      "d": 216.73343750002095,
      "v": 104
    },
    {
      "midi": 47,
      "hit": false,
      "t": 109112.68500000433,
      "d": 216.73343750002095,
      "v": 104
    },
    {
      "midi": 71,
      "hit": false,
      "t": 109112.68500000433,
      "d": 216.73343750002095,
      "v": 104
    },
    {
      "midi": 55,
      "hit": false,
      "t": 109233.65250000433,
      "d": 50.40312500001164,
      "v": 65
    },
    {
      "midi": 31,
      "hit": false,
      "t": 109238.69281250433,
      "d": 5.040312500001164,
      "v": 21
    },
    {
      "midi": 98,
      "hit": false,
      "t": 109238.69281250433,
      "d": 10.080625000002328,
      "v": 49
    },
    {
      "midi": 82,
      "hit": false,
      "t": 109238.69281250433,
      "d": 10.080625000002328,
      "v": 64
    },
    {
      "midi": 59,
      "hit": false,
      "t": 109238.69281250433,
      "d": 70.5643750000163,
      "v": 73
    },
    {
      "midi": 63,
      "hit": false,
      "t": 109243.73312500434,
      "d": 75.60468750001746,
      "v": 55
    },
    {
      "midi": 54,
      "hit": false,
      "t": 109253.81375000434,
      "d": 40.32250000000931,
      "v": 39
    },
    {
      "midi": 98,
      "hit": false,
      "t": 109354.62000000436,
      "d": 10.080625000002328,
      "v": 78
    },
    {
      "midi": 82,
      "hit": false,
      "t": 109354.62000000436,
      "d": 10.080625000002328,
      "v": 102
    },
    {
      "midi": 55,
      "hit": false,
      "t": 109354.62000000436,
      "d": 10.080625000002328,
      "v": 54
    },
    {
      "midi": 42,
      "hit": false,
      "t": 109354.62000000436,
      "d": 65.52406250000058,
      "v": 93
    },
    {
      "midi": 35,
      "hit": false,
      "t": 109354.62000000436,
      "d": 90.7256250000064,
      "v": 86
    },
    {
      "midi": 71,
      "hit": false,
      "t": 109354.62000000436,
      "d": 216.7334375000064,
      "v": 104
    },
    {
      "midi": 59,
      "hit": false,
      "t": 109359.66031250436,
      "d": 5.040312500001164,
      "v": 49
    },
    {
      "midi": 63,
      "hit": false,
      "t": 109364.70062500436,
      "d": 10.080625000002328,
      "v": 57
    },
    {
      "midi": 98,
      "hit": false,
      "t": 109475.58750000437,
      "d": 5.040312500001164,
      "v": 41
    },
    {
      "midi": 82,
      "hit": false,
      "t": 109475.58750000437,
      "d": 5.040312500001164,
      "v": 51
    },
    {
      "midi": 31,
      "hit": false,
      "t": 109480.62781250438,
      "d": 5.040312500001164,
      "v": 30
    },
    {
      "midi": 54,
      "hit": false,
      "t": 109495.74875000438,
      "d": 40.32249999999476,
      "v": 34
    },
    {
      "midi": 82,
      "hit": false,
      "t": 109596.55500000437,
      "d": 10.080625000002328,
      "v": 60
    },
    {
      "midi": 55,
      "hit": false,
      "t": 109596.55500000437,
      "d": 10.080625000002328,
      "v": 49
    },
    {
      "midi": 42,
      "hit": false,
      "t": 109596.55500000437,
      "d": 60.48375000001397,
      "v": 87
    },
    {
      "midi": 69,
      "hit": false,
      "t": 109596.55500000437,
      "d": 216.7334375000064,
      "v": 104
    },
    {
      "midi": 59,
      "hit": false,
      "t": 109601.59531250437,
      "d": 25.20156250000582,
      "v": 47
    },
    {
      "midi": 63,
      "hit": false,
      "t": 109606.63562500438,
      "d": 10.080625000002328,
      "v": 54
    },
    {
      "midi": 54,
      "hit": false,
      "t": 109616.71625000438,
      "d": 70.5643750000163,
      "v": 93
    },
    {
      "midi": 98,
      "hit": false,
      "t": 109722.56281250439,
      "d": 10.080625000002328,
      "v": 45
    },
    {
      "midi": 82,
      "hit": false,
      "t": 109722.56281250439,
      "d": 10.080625000002328,
      "v": 58
    },
    {
      "midi": 54,
      "hit": false,
      "t": 109737.68375000439,
      "d": 40.32249999999476,
      "v": 31
    },
    {
      "midi": 98,
      "hit": false,
      "t": 109838.49000000439,
      "d": 10.080625000002328,
      "v": 84
    },
    {
      "midi": 82,
      "hit": false,
      "t": 109838.49000000439,
      "d": 10.080625000002328,
      "v": 108
    },
    {
      "midi": 40,
      "hit": false,
      "t": 109838.49000000439,
      "d": 65.52406250000058,
      "v": 94
    },
    {
      "midi": 55,
      "hit": false,
      "t": 109838.49000000439,
      "d": 65.52406250000058,
      "v": 57
    },
    {
      "midi": 42,
      "hit": false,
      "t": 109838.49000000439,
      "d": 80.64500000000407,
      "v": 93
    },
    {
      "midi": 67,
      "hit": false,
      "t": 109838.49000000439,
      "d": 216.7334375000355,
      "v": 104
    },
    {
      "midi": 59,
      "hit": false,
      "t": 109843.53031250439,
      "d": 70.56437500000175,
      "v": 59
    },
    {
      "midi": 63,
      "hit": false,
      "t": 109848.57062500439,
      "d": 70.56437500000175,
      "v": 59
    },
    {
      "midi": 39,
      "hit": false,
      "t": 109858.65125000439,
      "d": 70.56437500000175,
      "v": 76
    },
    {
      "midi": 98,
      "hit": false,
      "t": 109959.4575000044,
      "d": 5.040312500001164,
      "v": 35
    },
    {
      "midi": 82,
      "hit": false,
      "t": 109959.4575000044,
      "d": 5.040312500001164,
      "v": 43
    },
    {
      "midi": 55,
      "hit": false,
      "t": 109959.4575000044,
      "d": 40.32250000000931,
      "v": 44
    },
    {
      "midi": 59,
      "hit": false,
      "t": 109964.4978125044,
      "d": 55.443437500012806,
      "v": 38
    },
    {
      "midi": 63,
      "hit": false,
      "t": 109969.5381250044,
      "d": 60.48375000001397,
      "v": 45
    },
    {
      "midi": 54,
      "hit": false,
      "t": 109979.6187500044,
      "d": 40.32250000000931,
      "v": 39
    },
    {
      "midi": 82,
      "hit": false,
      "t": 110080.42500000443,
      "d": 10.080625000002328,
      "v": 66
    },
    {
      "midi": 42,
      "hit": false,
      "t": 110080.42500000443,
      "d": 55.443437499998254,
      "v": 82
    },
    {
      "midi": 54,
      "hit": false,
      "t": 110080.42500000443,
      "d": 85.68531250000524,
      "v": 50
    },
    {
      "midi": 31,
      "hit": false,
      "t": 110080.42500000443,
      "d": 161.29000000000815,
      "v": 102
    },
    {
      "midi": 71,
      "hit": false,
      "t": 110080.42500000443,
      "d": 216.7334375000064,
      "v": 104
    },
    {
      "midi": 55,
      "hit": false,
      "t": 110201.39250000443,
      "d": 10.080625000002328,
      "v": 47
    },
    {
      "midi": 29,
      "hit": false,
      "t": 110201.39250000443,
      "d": 95.76593750000757,
      "v": 45
    },
    {
      "midi": 59,
      "hit": false,
      "t": 110206.43281250443,
      "d": 5.040312500001164,
      "v": 45
    },
    {
      "midi": 98,
      "hit": false,
      "t": 110206.43281250443,
      "d": 10.080625000002328,
      "v": 49
    },
    {
      "midi": 82,
      "hit": false,
      "t": 110206.43281250443,
      "d": 10.080625000002328,
      "v": 64
    },
    {
      "midi": 63,
      "hit": false,
      "t": 110211.47312500443,
      "d": 10.080625000002328,
      "v": 47
    },
    {
      "midi": 54,
      "hit": false,
      "t": 110221.55375000443,
      "d": 40.32250000000931,
      "v": 40
    },
    {
      "midi": 98,
      "hit": false,
      "t": 110322.36000000444,
      "d": 10.080625000002328,
      "v": 78
    },
    {
      "midi": 82,
      "hit": false,
      "t": 110322.36000000444,
      "d": 10.080625000002328,
      "v": 102
    },
    {
      "midi": 54,
      "hit": false,
      "t": 110322.36000000444,
      "d": 60.48374999999942,
      "v": 60
    },
    {
      "midi": 42,
      "hit": false,
      "t": 110322.36000000444,
      "d": 70.56437500000175,
      "v": 95
    },
    {
      "midi": 59,
      "hit": false,
      "t": 110322.36000000444,
      "d": 70.56437500000175,
      "v": 66
    },
    {
      "midi": 35,
      "hit": false,
      "t": 110322.36000000444,
      "d": 90.7256250000064,
      "v": 87
    },
    {
      "midi": 52,
      "hit": false,
      "t": 110322.36000000444,
      "d": 241.93500000001222,
      "v": 104
    },
    {
      "midi": 69,
      "hit": false,
      "t": 110322.36000000444,
      "d": 322.5800000000163,
      "v": 104
    },
    {
      "midi": 28,
      "hit": false,
      "t": 110322.36000000444,
      "d": 372.9831250000134,
      "v": 102
    },
    {
      "midi": 57,
      "hit": false,
      "t": 110327.40031250444,
      "d": 65.52406250000058,
      "v": 67
    },
    {
      "midi": 62,
      "hit": false,
      "t": 110332.44062500444,
      "d": 65.52406250000058,
      "v": 60
    },
    {
      "midi": 98,
      "hit": false,
      "t": 110443.32750000445,
      "d": 5.040312500001164,
      "v": 41
    },
    {
      "midi": 82,
      "hit": false,
      "t": 110443.32750000445,
      "d": 5.040312500001164,
      "v": 51
    },
    {
      "midi": 54,
      "hit": false,
      "t": 110443.32750000445,
      "d": 10.080625000002328,
      "v": 41
    },
    {
      "midi": 57,
      "hit": false,
      "t": 110448.36781250445,
      "d": 5.040312500001164,
      "v": 55
    },
    {
      "midi": 62,
      "hit": false,
      "t": 110453.40812500445,
      "d": 10.080625000002328,
      "v": 56
    },
    {
      "midi": 54,
      "hit": false,
      "t": 110463.48875000446,
      "d": 40.32249999999476,
      "v": 34
    },
    {
      "midi": 82,
      "hit": false,
      "t": 110564.29500000445,
      "d": 10.080625000002328,
      "v": 60
    },
    {
      "midi": 42,
      "hit": false,
      "t": 110564.29500000445,
      "d": 55.443437499998254,
      "v": 82
    },
    {
      "midi": 54,
      "hit": false,
      "t": 110564.29500000445,
      "d": 70.56437500000175,
      "v": 94
    },
    {
      "midi": 98,
      "hit": false,
      "t": 110690.30281250445,
      "d": 10.080625000002328,
      "v": 45
    },
    {
      "midi": 82,
      "hit": false,
      "t": 110690.30281250445,
      "d": 10.080625000002328,
      "v": 58
    },
    {
      "midi": 57,
      "hit": false,
      "t": 110690.30281250445,
      "d": 35.28218750000815,
      "v": 32
    },
    {
      "midi": 62,
      "hit": false,
      "t": 110695.34312500445,
      "d": 40.32250000000931,
      "v": 26
    },
    {
      "midi": 54,
      "hit": false,
      "t": 110705.42375000445,
      "d": 25.20156250000582,
      "v": 40
    },
    {
      "midi": 98,
      "hit": false,
      "t": 110806.23000000446,
      "d": 10.080625000002328,
      "v": 84
    },
    {
      "midi": 82,
      "hit": false,
      "t": 110806.23000000446,
      "d": 10.080625000002328,
      "v": 108
    },
    {
      "midi": 54,
      "hit": false,
      "t": 110806.23000000446,
      "d": 10.080625000002328,
      "v": 54
    },
    {
      "midi": 42,
      "hit": false,
      "t": 110806.23000000446,
      "d": 75.60468750000291,
      "v": 93
    },
    {
      "midi": 40,
      "hit": false,
      "t": 110806.23000000446,
      "d": 75.60468750000291,
      "v": 94
    },
    {
      "midi": 59,
      "hit": false,
      "t": 110806.23000000446,
      "d": 85.68531250000524,
      "v": 60
    },
    {
      "midi": 57,
      "hit": false,
      "t": 110811.27031250446,
      "d": 5.040312500001164,
      "v": 49
    },
    {
      "midi": 62,
      "hit": false,
      "t": 110816.31062500447,
      "d": 10.080625000002328,
      "v": 49
    },
    {
      "midi": 98,
      "hit": false,
      "t": 110927.19750000448,
      "d": 5.040312500001164,
      "v": 35
    },
    {
      "midi": 82,
      "hit": false,
      "t": 110927.19750000448,
      "d": 5.040312500001164,
      "v": 43
    },
    {
      "midi": 54,
      "hit": false,
      "t": 110947.35875000448,
      "d": 40.32249999999476,
      "v": 39
    },
    {
      "midi": 82,
      "hit": false,
      "t": 111048.16500000448,
      "d": 10.080625000002328,
      "v": 66
    },
    {
      "midi": 54,
      "hit": false,
      "t": 111048.16500000448,
      "d": 40.32250000000931,
      "v": 47
    },
    {
      "midi": 42,
      "hit": false,
      "t": 111048.16500000448,
      "d": 50.40312500001164,
      "v": 73
    },
    {
      "midi": 52,
      "hit": false,
      "t": 111048.16500000448,
      "d": 216.7334375000355,
      "v": 104
    },
    {
      "midi": 69,
      "hit": false,
      "t": 111048.16500000448,
      "d": 433.4668750000419,
      "v": 104
    },
    {
      "midi": 57,
      "hit": false,
      "t": 111053.20531250448,
      "d": 40.32250000000931,
      "v": 26
    },
    {
      "midi": 62,
      "hit": false,
      "t": 111058.24562500448,
      "d": 45.36281250001048,
      "v": 22
    },
    {
      "midi": 59,
      "hit": false,
      "t": 111169.13250000449,
      "d": 85.68531250001979,
      "v": 61
    },
    {
      "midi": 98,
      "hit": false,
      "t": 111174.17281250449,
      "d": 10.080625000002328,
      "v": 49
    },
    {
      "midi": 82,
      "hit": false,
      "t": 111174.17281250449,
      "d": 10.080625000002328,
      "v": 64
    },
    {
      "midi": 57,
      "hit": false,
      "t": 111174.17281250449,
      "d": 85.68531250001979,
      "v": 58
    },
    {
      "midi": 62,
      "hit": false,
      "t": 111179.21312500449,
      "d": 85.68531250001979,
      "v": 68
    },
    {
      "midi": 54,
      "hit": false,
      "t": 111189.2937500045,
      "d": 40.32250000000931,
      "v": 39
    },
    {
      "midi": 98,
      "hit": false,
      "t": 111290.10000000452,
      "d": 10.080625000002328,
      "v": 78
    },
    {
      "midi": 82,
      "hit": false,
      "t": 111290.10000000452,
      "d": 10.080625000002328,
      "v": 102
    },
    {
      "midi": 54,
      "hit": false,
      "t": 111290.10000000452,
      "d": 10.080625000002328,
      "v": 41
    },
    {
      "midi": 42,
      "hit": false,
      "t": 111290.10000000452,
      "d": 55.443437499998254,
      "v": 87
    },
    {
      "midi": 35,
      "hit": false,
      "t": 111290.10000000452,
      "d": 95.76593749999302,
      "v": 87
    },
    {
      "midi": 28,
      "hit": false,
      "t": 111290.10000000452,
      "d": 357.86218750002445,
      "v": 105
    },
    {
      "midi": 57,
      "hit": false,
      "t": 111295.14031250452,
      "d": 5.040312500001164,
      "v": 47
    },
    {
      "midi": 62,
      "hit": false,
      "t": 111300.18062500452,
      "d": 10.080625000002328,
      "v": 54
    },
    {
      "midi": 98,
      "hit": false,
      "t": 111411.06750000452,
      "d": 5.040312500001164,
      "v": 41
    },
    {
      "midi": 82,
      "hit": false,
      "t": 111411.06750000452,
      "d": 5.040312500001164,
      "v": 51
    },
    {
      "midi": 54,
      "hit": false,
      "t": 111431.22875000452,
      "d": 40.32249999999476,
      "v": 34
    },
    {
      "midi": 82,
      "hit": false,
      "t": 111532.03500000451,
      "d": 10.080625000002328,
      "v": 60
    },
    {
      "midi": 54,
      "hit": false,
      "t": 111532.03500000451,
      "d": 10.080625000002328,
      "v": 55
    },
    {
      "midi": 42,
      "hit": false,
      "t": 111532.03500000451,
      "d": 50.40312500001164,
      "v": 82
    },
    {
      "midi": 59,
      "hit": false,
      "t": 111532.03500000451,
      "d": 50.40312500001164,
      "v": 61
    },
    {
      "midi": 71,
      "hit": false,
      "t": 111532.03500000451,
      "d": 216.73343750002095,
      "v": 104
    },
    {
      "midi": 57,
      "hit": false,
      "t": 111537.07531250452,
      "d": 10.080625000002328,
      "v": 49
    },
    {
      "midi": 62,
      "hit": false,
      "t": 111542.11562500452,
      "d": 10.080625000002328,
      "v": 49
    },
    {
      "midi": 54,
      "hit": false,
      "t": 111552.19625000452,
      "d": 20.161250000004657,
      "v": 93
    },
    {
      "midi": 98,
      "hit": false,
      "t": 111658.04281250454,
      "d": 10.080625000002328,
      "v": 45
    },
    {
      "midi": 82,
      "hit": false,
      "t": 111658.04281250454,
      "d": 10.080625000002328,
      "v": 58
    },
    {
      "midi": 54,
      "hit": false,
      "t": 111673.16375000455,
      "d": 40.32249999999476,
      "v": 31
    },
    {
      "midi": 28,
      "hit": false,
      "t": 111768.92968750454,
      "d": 171.37062500002503,
      "v": 102
    },
    {
      "midi": 98,
      "hit": false,
      "t": 111773.97000000454,
      "d": 10.080625000002328,
      "v": 84
    },
    {
      "midi": 82,
      "hit": false,
      "t": 111773.97000000454,
      "d": 10.080625000002328,
      "v": 108
    },
    {
      "midi": 54,
      "hit": false,
      "t": 111773.97000000454,
      "d": 55.443437499998254,
      "v": 59
    },
    {
      "midi": 42,
      "hit": false,
      "t": 111773.97000000454,
      "d": 60.48374999999942,
      "v": 87
    },
    {
      "midi": 40,
      "hit": false,
      "t": 111773.97000000454,
      "d": 60.48374999999942,
      "v": 94
    },
    {
      "midi": 59,
      "hit": false,
      "t": 111773.97000000454,
      "d": 85.68531250000524,
      "v": 60
    },
    {
      "midi": 69,
      "hit": false,
      "t": 111773.97000000454,
      "d": 216.7334375000355,
      "v": 104
    },
    {
      "midi": 57,
      "hit": false,
      "t": 111779.01031250454,
      "d": 65.52406250000058,
      "v": 58
    },
    {
      "midi": 62,
      "hit": false,
      "t": 111784.05062500454,
      "d": 60.48374999999942,
      "v": 58
    },
    {
      "midi": 39,
      "hit": false,
      "t": 111794.13125000455,
      "d": 70.56437500000175,
      "v": 76
    },
    {
      "midi": 98,
      "hit": false,
      "t": 111894.93750000455,
      "d": 5.040312500001164,
      "v": 35
    },
    {
      "midi": 82,
      "hit": false,
      "t": 111894.93750000455,
      "d": 5.040312500001164,
      "v": 43
    },
    {
      "midi": 59,
      "hit": false,
      "t": 111894.93750000455,
      "d": 45.36281250001048,
      "v": 38
    },
    {
      "midi": 57,
      "hit": false,
      "t": 111899.97781250456,
      "d": 65.52406250001513,
      "v": 38
    },
    {
      "midi": 62,
      "hit": false,
      "t": 111905.01812500456,
      "d": 75.60468750001746,
      "v": 38
    },
    {
      "midi": 54,
      "hit": false,
      "t": 111915.09875000456,
      "d": 40.32250000000931,
      "v": 39
    },
    {
      "midi": 40,
      "hit": false,
      "t": 112010.86468750458,
      "d": 196.57218750000175,
      "v": 97
    },
    {
      "midi": 82,
      "hit": false,
      "t": 112015.90500000458,
      "d": 10.080625000002328,
      "v": 66
    },
    {
      "midi": 42,
      "hit": false,
      "t": 112015.90500000458,
      "d": 50.40312499999709,
      "v": 75
    },
    {
      "midi": 54,
      "hit": false,
      "t": 112015.90500000458,
      "d": 85.68531249999069,
      "v": 50
    },
    {
      "midi": 68,
      "hit": false,
      "t": 112015.90500000458,
      "d": 216.7334375000064,
      "v": 104
    },
    {
      "midi": 54,
      "hit": false,
      "t": 112136.87250000457,
      "d": 10.080625000002328,
      "v": 49
    },
    {
      "midi": 98,
      "hit": false,
      "t": 112141.91281250457,
      "d": 10.080625000002328,
      "v": 49
    },
    {
      "midi": 82,
      "hit": false,
      "t": 112141.91281250457,
      "d": 10.080625000002328,
      "v": 64
    },
    {
      "midi": 57,
      "hit": false,
      "t": 112141.91281250457,
      "d": 25.20156250000582,
      "v": 54
    },
    {
      "midi": 62,
      "hit": false,
      "t": 112146.95312500457,
      "d": 10.080625000002328,
      "v": 57
    },
    {
      "midi": 54,
      "hit": false,
      "t": 112157.03375000457,
      "d": 40.32250000000931,
      "v": 40
    },
    {
      "midi": 98,
      "hit": false,
      "t": 112257.8400000046,
      "d": 10.080625000002328,
      "v": 78
    },
    {
      "midi": 82,
      "hit": false,
      "t": 112257.8400000046,
      "d": 10.080625000002328,
      "v": 102
    },
    {
      "midi": 42,
      "hit": false,
      "t": 112257.8400000046,
      "d": 45.362812499995925,
      "v": 95
    },
    {
      "midi": 56,
      "hit": false,
      "t": 112257.8400000046,
      "d": 65.52406250000058,
      "v": 60
    },
    {
      "midi": 35,
      "hit": false,
      "t": 112257.8400000046,
      "d": 105.8465625000099,
      "v": 87
    },
    {
      "midi": 52,
      "hit": false,
      "t": 112257.8400000046,
      "d": 241.93500000001222,
      "v": 104
    },
    {
      "midi": 28,
      "hit": false,
      "t": 112257.8400000046,
      "d": 307.45906250002736,
      "v": 105
    },
    {
      "midi": 68,
      "hit": false,
      "t": 112257.8400000046,
      "d": 866.9337500000838,
      "v": 104
    },
    {
      "midi": 59,
      "hit": false,
      "t": 112262.8803125046,
      "d": 65.52406250000058,
      "v": 60
    },
    {
      "midi": 64,
      "hit": false,
      "t": 112267.9206250046,
      "d": 80.64500000000407,
      "v": 60
    },
    {
      "midi": 98,
      "hit": false,
      "t": 112378.80750000461,
      "d": 5.040312500001164,
      "v": 41
    },
    {
      "midi": 82,
      "hit": false,
      "t": 112378.80750000461,
      "d": 5.040312500001164,
      "v": 51
    },
    {
      "midi": 56,
      "hit": false,
      "t": 112378.80750000461,
      "d": 10.080625000002328,
      "v": 49
    },
    {
      "midi": 59,
      "hit": false,
      "t": 112383.84781250461,
      "d": 10.080625000002328,
      "v": 54
    },
    {
      "midi": 64,
      "hit": false,
      "t": 112388.88812500461,
      "d": 10.080625000002328,
      "v": 59
    },
    {
      "midi": 54,
      "hit": false,
      "t": 112398.96875000461,
      "d": 40.32249999999476,
      "v": 34
    },
    {
      "midi": 82,
      "hit": false,
      "t": 112499.7750000046,
      "d": 10.080625000002328,
      "v": 60
    },
    {
      "midi": 42,
      "hit": false,
      "t": 112499.7750000046,
      "d": 40.32250000000931,
      "v": 82
    },
    {
      "midi": 54,
      "hit": false,
      "t": 112499.7750000046,
      "d": 70.5643750000163,
      "v": 94
    },
    {
      "midi": 59,
      "hit": false,
      "t": 112620.74250000462,
      "d": 50.40312500001164,
      "v": 26
    },
    {
      "midi": 28,
      "hit": false,
      "t": 112620.74250000462,
      "d": 90.72562500002095,
      "v": 102
    },
    {
      "midi": 98,
      "hit": false,
      "t": 112625.78281250462,
      "d": 10.080625000002328,
      "v": 45
    },
    {
      "midi": 82,
      "hit": false,
      "t": 112625.78281250462,
      "d": 10.080625000002328,
      "v": 58
    },
    {
      "midi": 64,
      "hit": false,
      "t": 112625.78281250462,
      "d": 50.40312500001164,
      "v": 22
    },
    {
      "midi": 54,
      "hit": false,
      "t": 112640.90375000463,
      "d": 40.32250000000931,
      "v": 40
    },
    {
      "midi": 98,
      "hit": false,
      "t": 112741.71000000465,
      "d": 10.080625000002328,
      "v": 84
    },
    {
      "midi": 82,
      "hit": false,
      "t": 112741.71000000465,
      "d": 10.080625000002328,
      "v": 108
    },
    {
      "midi": 56,
      "hit": false,
      "t": 112741.71000000465,
      "d": 10.080625000002328,
      "v": 57
    },
    {
      "midi": 42,
      "hit": false,
      "t": 112741.71000000465,
      "d": 65.52406250000058,
      "v": 98
    },
    {
      "midi": 40,
      "hit": false,
      "t": 112741.71000000465,
      "d": 70.56437500000175,
      "v": 94
    },
    {
      "midi": 35,
      "hit": false,
      "t": 112741.71000000465,
      "d": 297.37843750002503,
      "v": 105
    },
    {
      "midi": 59,
      "hit": false,
      "t": 112746.75031250465,
      "d": 10.080625000002328,
      "v": 55
    },
    {
      "midi": 64,
      "hit": false,
      "t": 112751.79062500465,
      "d": 10.080625000002328,
      "v": 51
    },
    {
      "midi": 98,
      "hit": false,
      "t": 112862.67750000466,
      "d": 5.040312500001164,
      "v": 35
    },
    {
      "midi": 82,
      "hit": false,
      "t": 112862.67750000466,
      "d": 5.040312500001164,
      "v": 43
    },
    {
      "midi": 54,
      "hit": false,
      "t": 112882.83875000467,
      "d": 40.32249999999476,
      "v": 39
    },
    {
      "midi": 82,
      "hit": false,
      "t": 112983.64500000466,
      "d": 10.080625000002328,
      "v": 66
    },
    {
      "midi": 42,
      "hit": false,
      "t": 112983.64500000466,
      "d": 40.32250000000931,
      "v": 82
    },
    {
      "midi": 54,
      "hit": false,
      "t": 112983.64500000466,
      "d": 85.68531250001979,
      "v": 47
    },
    {
      "midi": 52,
      "hit": false,
      "t": 112983.64500000466,
      "d": 216.73343750002095,
      "v": 104
    },
    {
      "midi": 56,
      "hit": false,
      "t": 113104.61250000467,
      "d": 75.60468750000291,
      "v": 65
    },
    {
      "midi": 35,
      "hit": false,
      "t": 113104.61250000467,
      "d": 90.7256250000064,
      "v": 102
    },
    {
      "midi": 31,
      "hit": false,
      "t": 113109.65281250468,
      "d": 5.040312500001164,
      "v": 35
    },
    {
      "midi": 98,
      "hit": false,
      "t": 113109.65281250468,
      "d": 10.080625000002328,
      "v": 49
    },
    {
      "midi": 82,
      "hit": false,
      "t": 113109.65281250468,
      "d": 10.080625000002328,
      "v": 64
    },
    {
      "midi": 59,
      "hit": false,
      "t": 113109.65281250468,
      "d": 65.52406250000058,
      "v": 60
    },
    {
      "midi": 64,
      "hit": false,
      "t": 113114.69312500468,
      "d": 80.64500000000407,
      "v": 65
    },
    {
      "midi": 54,
      "hit": false,
      "t": 113124.77375000468,
      "d": 40.32249999999476,
      "v": 39
    },
    {
      "midi": 98,
      "hit": false,
      "t": 113225.58000000469,
      "d": 10.080625000002328,
      "v": 78
    },
    {
      "midi": 82,
      "hit": false,
      "t": 113225.58000000469,
      "d": 10.080625000002328,
      "v": 102
    },
    {
      "midi": 56,
      "hit": false,
      "t": 113225.58000000469,
      "d": 25.20156250000582,
      "v": 30
    },
    {
      "midi": 42,
      "hit": false,
      "t": 113225.58000000469,
      "d": 60.48374999999942,
      "v": 98
    },
    {
      "midi": 35,
      "hit": false,
      "t": 113225.58000000469,
      "d": 90.7256250000064,
      "v": 86
    },
    {
      "midi": 28,
      "hit": false,
      "t": 113225.58000000469,
      "d": 211.69312500003434,
      "v": 105
    },
    {
      "midi": 59,
      "hit": false,
      "t": 113230.62031250469,
      "d": 5.040312500001164,
      "v": 41
    },
    {
      "midi": 64,
      "hit": false,
      "t": 113235.66062500469,
      "d": 10.080625000002328,
      "v": 49
    },
    {
      "midi": 31,
      "hit": false,
      "t": 113346.5475000047,
      "d": 5.040312500001164,
      "v": 30
    },
    {
      "midi": 98,
      "hit": false,
      "t": 113346.5475000047,
      "d": 5.040312500001164,
      "v": 41
    },
    {
      "midi": 82,
      "hit": false,
      "t": 113346.5475000047,
      "d": 5.040312500001164,
      "v": 51
    },
    {
      "midi": 59,
      "hit": false,
      "t": 113346.5475000047,
      "d": 45.36281250001048,
      "v": 25
    },
    {
      "midi": 64,
      "hit": false,
      "t": 113351.5878125047,
      "d": 35.28218750000815,
      "v": 22
    },
    {
      "midi": 54,
      "hit": false,
      "t": 113366.7087500047,
      "d": 40.32250000000931,
      "v": 34
    },
    {
      "midi": 82,
      "hit": false,
      "t": 113467.51500000473,
      "d": 10.080625000002328,
      "v": 60
    },
    {
      "midi": 56,
      "hit": false,
      "t": 113467.51500000473,
      "d": 10.080625000002328,
      "v": 54
    },
    {
      "midi": 42,
      "hit": false,
      "t": 113467.51500000473,
      "d": 40.32250000000931,
      "v": 73
    },
    {
      "midi": 28,
      "hit": false,
      "t": 113467.51500000473,
      "d": 206.65281250001863,
      "v": 105
    },
    {
      "midi": 68,
      "hit": false,
      "t": 113467.51500000473,
      "d": 216.73343750002095,
      "v": 104
    },
    {
      "midi": 59,
      "hit": false,
      "t": 113472.55531250473,
      "d": 5.040312500001164,
      "v": 49
    },
    {
      "midi": 64,
      "hit": false,
      "t": 113477.59562500473,
      "d": 10.080625000002328,
      "v": 49
    },
    {
      "midi": 54,
      "hit": false,
      "t": 113487.67625000473,
      "d": 70.5643750000163,
      "v": 93
    },
    {
      "midi": 98,
      "hit": false,
      "t": 113593.52281250474,
      "d": 10.080625000002328,
      "v": 45
    },
    {
      "midi": 82,
      "hit": false,
      "t": 113593.52281250474,
      "d": 10.080625000002328,
      "v": 58
    },
    {
      "midi": 54,
      "hit": false,
      "t": 113608.64375000475,
      "d": 40.32249999999476,
      "v": 31
    },
    {
      "midi": 98,
      "hit": false,
      "t": 113709.45000000476,
      "d": 10.080625000002328,
      "v": 84
    },
    {
      "midi": 82,
      "hit": false,
      "t": 113709.45000000476,
      "d": 10.080625000002328,
      "v": 108
    },
    {
      "midi": 56,
      "hit": false,
      "t": 113709.45000000476,
      "d": 60.48374999999942,
      "v": 54
    },
    {
      "midi": 42,
      "hit": false,
      "t": 113709.45000000476,
      "d": 65.52406250000058,
      "v": 98
    },
    {
      "midi": 40,
      "hit": false,
      "t": 113709.45000000476,
      "d": 65.52406250000058,
      "v": 91
    },
    {
      "midi": 32,
      "hit": false,
      "t": 113709.45000000476,
      "d": 191.5318750000297,
      "v": 102
    },
    {
      "midi": 68,
      "hit": false,
      "t": 113709.45000000476,
      "d": 216.7334375000355,
      "v": 104
    },
    {
      "midi": 59,
      "hit": false,
      "t": 113714.49031250476,
      "d": 60.48374999999942,
      "v": 67
    },
    {
      "midi": 64,
      "hit": false,
      "t": 113719.53062500476,
      "d": 70.56437500000175,
      "v": 67
    },
    {
      "midi": 39,
      "hit": false,
      "t": 113729.61125000476,
      "d": 70.56437500000175,
      "v": 76
    },
    {
      "midi": 98,
      "hit": false,
      "t": 113830.41750000477,
      "d": 5.040312500001164,
      "v": 35
    },
    {
      "midi": 82,
      "hit": false,
      "t": 113830.41750000477,
      "d": 5.040312500001164,
      "v": 43
    },
    {
      "midi": 56,
      "hit": false,
      "t": 113830.41750000477,
      "d": 45.36281250001048,
      "v": 23
    },
    {
      "midi": 59,
      "hit": false,
      "t": 113835.45781250477,
      "d": 40.32250000000931,
      "v": 44
    },
    {
      "midi": 64,
      "hit": false,
      "t": 113840.49812500477,
      "d": 40.32250000000931,
      "v": 29
    },
    {
      "midi": 54,
      "hit": false,
      "t": 113850.57875000477,
      "d": 40.32250000000931,
      "v": 39
    },
    {
      "midi": 82,
      "hit": false,
      "t": 113951.3850000048,
      "d": 10.080625000002328,
      "v": 66
    },
    {
      "midi": 42,
      "hit": false,
      "t": 113951.3850000048,
      "d": 60.48374999999942,
      "v": 82
    },
    {
      "midi": 54,
      "hit": false,
      "t": 113951.3850000048,
      "d": 85.68531250000524,
      "v": 50
    },
    {
      "midi": 35,
      "hit": false,
      "t": 113951.3850000048,
      "d": 161.29000000000815,
      "v": 105
    },
    {
      "midi": 68,
      "hit": false,
      "t": 113951.3850000048,
      "d": 216.7334375000064,
      "v": 104
    },
    {
      "midi": 98,
      "hit": false,
      "t": 114077.3928125048,
      "d": 10.080625000002328,
      "v": 49
    },
    {
      "midi": 82,
      "hit": false,
      "t": 114077.3928125048,
      "d": 10.080625000002328,
      "v": 64
    },
    {
      "midi": 54,
      "hit": false,
      "t": 114092.5137500048,
      "d": 40.32250000000931,
      "v": 40
    },
    {
      "midi": 98,
      "hit": false,
      "t": 114193.32000000481,
      "d": 10.080625000002328,
      "v": 78
    },
    {
      "midi": 82,
      "hit": false,
      "t": 114193.32000000481,
      "d": 10.080625000002328,
      "v": 102
    },
    {
      "midi": 42,
      "hit": false,
      "t": 114193.32000000481,
      "d": 45.362812499995925,
      "v": 95
    },
    {
      "midi": 55,
      "hit": false,
      "t": 114193.32000000481,
      "d": 50.40312499999709,
      "v": 58
    },
    {
      "midi": 35,
      "hit": false,
      "t": 114193.32000000481,
      "d": 105.8465625000099,
      "v": 87
    },
    {
      "midi": 57,
      "hit": false,
      "t": 114193.32000000481,
      "d": 241.93500000001222,
      "v": 104
    },
    {
      "midi": 33,
      "hit": false,
      "t": 114193.32000000481,
      "d": 317.5396875000297,
      "v": 102
    },
    {
      "midi": 67,
      "hit": false,
      "t": 114193.32000000481,
      "d": 322.58000000003085,
      "v": 47
    },
    {
      "midi": 72,
      "hit": false,
      "t": 114193.32000000481,
      "d": 1935.4800000002288,
      "v": 47
    },
    {
      "midi": 60,
      "hit": false,
      "t": 114198.36031250481,
      "d": 40.32249999999476,
      "v": 54
    },
    {
      "midi": 64,
      "hit": false,
      "t": 114203.40062500481,
      "d": 50.40312499999709,
      "v": 54
    },
    {
      "midi": 98,
      "hit": false,
      "t": 114314.28750000482,
      "d": 5.040312500001164,
      "v": 41
    },
    {
      "midi": 82,
      "hit": false,
      "t": 114314.28750000482,
      "d": 5.040312500001164,
      "v": 51
    },
    {
      "midi": 55,
      "hit": false,
      "t": 114314.28750000482,
      "d": 10.080625000002328,
      "v": 56
    },
    {
      "midi": 60,
      "hit": false,
      "t": 114319.32781250482,
      "d": 10.080625000002328,
      "v": 54
    },
    {
      "midi": 64,
      "hit": false,
      "t": 114324.36812500482,
      "d": 70.56437500000175,
      "v": 56
    },
    {
      "midi": 54,
      "hit": false,
      "t": 114334.44875000483,
      "d": 40.32249999999476,
      "v": 34
    },
    {
      "midi": 82,
      "hit": false,
      "t": 114435.25500000482,
      "d": 10.080625000002328,
      "v": 60
    },
    {
      "midi": 42,
      "hit": false,
      "t": 114435.25500000482,
      "d": 40.32250000000931,
      "v": 82
    },
    {
      "midi": 54,
      "hit": false,
      "t": 114435.25500000482,
      "d": 70.5643750000163,
      "v": 94
    },
    {
      "midi": 55,
      "hit": false,
      "t": 114556.22250000483,
      "d": 5.040312500001164,
      "v": 22
    },
    {
      "midi": 64,
      "hit": false,
      "t": 114556.22250000483,
      "d": 5.040312500001164,
      "v": 35
    },
    {
      "midi": 33,
      "hit": false,
      "t": 114556.22250000483,
      "d": 90.72562500002095,
      "v": 102
    },
    {
      "midi": 67,
      "hit": false,
      "t": 114556.22250000483,
      "d": 322.58000000003085,
      "v": 104
    },
    {
      "midi": 98,
      "hit": false,
      "t": 114561.26281250484,
      "d": 10.080625000002328,
      "v": 45
    },
    {
      "midi": 82,
      "hit": false,
      "t": 114561.26281250484,
      "d": 10.080625000002328,
      "v": 58
    },
    {
      "midi": 60,
      "hit": false,
      "t": 114561.26281250484,
      "d": 45.36281250001048,
      "v": 29
    },
    {
      "midi": 64,
      "hit": false,
      "t": 114566.30312500484,
      "d": 50.40312500001164,
      "v": 26
    },
    {
      "midi": 54,
      "hit": false,
      "t": 114576.38375000484,
      "d": 40.32250000000931,
      "v": 40
    },
    {
      "midi": 98,
      "hit": false,
      "t": 114677.19000000486,
      "d": 10.080625000002328,
      "v": 84
    },
    {
      "midi": 82,
      "hit": false,
      "t": 114677.19000000486,
      "d": 10.080625000002328,
      "v": 108
    },
    {
      "midi": 55,
      "hit": false,
      "t": 114677.19000000486,
      "d": 25.20156250000582,
      "v": 67
    },
    {
      "midi": 42,
      "hit": false,
      "t": 114677.19000000486,
      "d": 65.52406250000058,
      "v": 98
    },
    {
      "midi": 40,
      "hit": false,
      "t": 114677.19000000486,
      "d": 70.56437500000175,
      "v": 94
    },
    {
      "midi": 36,
      "hit": false,
      "t": 114677.19000000486,
      "d": 211.69312500000524,
      "v": 102
    },
    {
      "midi": 60,
      "hit": false,
      "t": 114682.23031250486,
      "d": 10.080625000002328,
      "v": 49
    },
    {
      "midi": 64,
      "hit": false,
      "t": 114687.27062500486,
      "d": 10.080625000002328,
      "v": 54
    },
    {
      "midi": 98,
      "hit": false,
      "t": 114798.15750000486,
      "d": 5.040312500001164,
      "v": 35
    },
    {
      "midi": 82,
      "hit": false,
      "t": 114798.15750000486,
      "d": 5.040312500001164,
      "v": 43
    },
    {
      "midi": 54,
      "hit": false,
      "t": 114818.31875000487,
      "d": 40.32249999999476,
      "v": 39
    },
    {
      "midi": 55,
      "hit": false,
      "t": 114919.12500000487,
      "d": 5.040312500001164,
      "v": 22
    },
    {
      "midi": 82,
      "hit": false,
      "t": 114919.12500000487,
      "d": 10.080625000002328,
      "v": 66
    },
    {
      "midi": 42,
      "hit": false,
      "t": 114919.12500000487,
      "d": 40.32250000000931,
      "v": 82
    },
    {
      "midi": 54,
      "hit": false,
      "t": 114919.12500000487,
      "d": 85.68531250001979,
      "v": 47
    },
    {
      "midi": 40,
      "hit": false,
      "t": 114919.12500000487,
      "d": 171.37062500002503,
      "v": 102
    },
    {
      "midi": 57,
      "hit": false,
      "t": 114919.12500000487,
      "d": 216.7334375000355,
      "v": 104
    },
    {
      "midi": 67,
      "hit": false,
      "t": 114919.12500000487,
      "d": 216.7334375000355,
      "v": 104
    },
    {
      "midi": 60,
      "hit": false,
      "t": 114924.16531250488,
      "d": 55.443437500012806,
      "v": 22
    },
    {
      "midi": 64,
      "hit": false,
      "t": 114929.20562500488,
      "d": 50.40312500001164,
      "v": 22
    },
    {
      "midi": 55,
      "hit": false,
      "t": 115040.09250000489,
      "d": 65.52406250001513,
      "v": 65
    },
    {
      "midi": 98,
      "hit": false,
      "t": 115045.13281250489,
      "d": 10.080625000002328,
      "v": 49
    },
    {
      "midi": 82,
      "hit": false,
      "t": 115045.13281250489,
      "d": 10.080625000002328,
      "v": 64
    },
    {
      "midi": 60,
      "hit": false,
      "t": 115045.13281250489,
      "d": 65.52406250001513,
      "v": 67
    },
    {
      "midi": 64,
      "hit": false,
      "t": 115050.17312500489,
      "d": 70.5643750000163,
      "v": 55
    },
    {
      "midi": 54,
      "hit": false,
      "t": 115060.2537500049,
      "d": 40.32250000000931,
      "v": 39
    },
    {
      "midi": 98,
      "hit": false,
      "t": 115161.06000000492,
      "d": 10.080625000002328,
      "v": 78
    },
    {
      "midi": 82,
      "hit": false,
      "t": 115161.06000000492,
      "d": 10.080625000002328,
      "v": 102
    },
    {
      "midi": 55,
      "hit": false,
      "t": 115161.06000000492,
      "d": 10.080625000002328,
      "v": 54
    },
    {
      "midi": 42,
      "hit": false,
      "t": 115161.06000000492,
      "d": 60.48374999999942,
      "v": 98
    },
    {
      "midi": 35,
      "hit": false,
      "t": 115161.06000000492,
      "d": 90.7256250000064,
      "v": 86
    },
    {
      "midi": 45,
      "hit": false,
      "t": 115161.06000000492,
      "d": 282.2575000000361,
      "v": 102
    },
    {
      "midi": 67,
      "hit": false,
      "t": 115161.06000000492,
      "d": 322.5800000000454,
      "v": 104
    },
    {
      "midi": 60,
      "hit": false,
      "t": 115166.10031250492,
      "d": 10.080625000002328,
      "v": 41
    },
    {
      "midi": 64,
      "hit": false,
      "t": 115171.14062500492,
      "d": 10.080625000002328,
      "v": 49
    },
    {
      "midi": 98,
      "hit": false,
      "t": 115282.02750000493,
      "d": 5.040312500001164,
      "v": 41
    },
    {
      "midi": 82,
      "hit": false,
      "t": 115282.02750000493,
      "d": 5.040312500001164,
      "v": 51
    },
    {
      "midi": 60,
      "hit": false,
      "t": 115282.02750000493,
      "d": 50.40312500001164,
      "v": 22
    },
    {
      "midi": 64,
      "hit": false,
      "t": 115287.06781250493,
      "d": 55.443437500012806,
      "v": 22
    },
    {
      "midi": 54,
      "hit": false,
      "t": 115302.18875000493,
      "d": 40.32250000000931,
      "v": 34
    },
    {
      "midi": 82,
      "hit": false,
      "t": 115402.99500000494,
      "d": 10.080625000002328,
      "v": 60
    },
    {
      "midi": 55,
      "hit": false,
      "t": 115402.99500000494,
      "d": 10.080625000002328,
      "v": 55
    },
    {
      "midi": 42,
      "hit": false,
      "t": 115402.99500000494,
      "d": 40.32250000000931,
      "v": 73
    },
    {
      "midi": 60,
      "hit": false,
      "t": 115408.03531250494,
      "d": 10.080625000002328,
      "v": 55
    },
    {
      "midi": 64,
      "hit": false,
      "t": 115413.07562500495,
      "d": 25.20156250000582,
      "v": 55
    },
    {
      "midi": 54,
      "hit": false,
      "t": 115423.15625000495,
      "d": 70.5643750000163,
      "v": 93
    },
    {
      "midi": 33,
      "hit": false,
      "t": 115523.96250000497,
      "d": 90.7256250000064,
      "v": 97
    },
    {
      "midi": 67,
      "hit": false,
      "t": 115523.96250000497,
      "d": 322.58000000005995,
      "v": 104
    },
    {
      "midi": 98,
      "hit": false,
      "t": 115529.00281250497,
      "d": 10.080625000002328,
      "v": 45
    },
    {
      "midi": 82,
      "hit": false,
      "t": 115529.00281250497,
      "d": 10.080625000002328,
      "v": 58
    },
    {
      "midi": 54,
      "hit": false,
      "t": 115544.12375000498,
      "d": 40.32249999999476,
      "v": 31
    },
    {
      "midi": 98,
      "hit": false,
      "t": 115644.93000000498,
      "d": 10.080625000002328,
      "v": 84
    },
    {
      "midi": 82,
      "hit": false,
      "t": 115644.93000000498,
      "d": 10.080625000002328,
      "v": 108
    },
    {
      "midi": 55,
      "hit": false,
      "t": 115644.93000000498,
      "d": 50.40312500001164,
      "v": 54
    },
    {
      "midi": 42,
      "hit": false,
      "t": 115644.93000000498,
      "d": 65.52406250001513,
      "v": 98
    },
    {
      "midi": 40,
      "hit": false,
      "t": 115644.93000000498,
      "d": 65.52406250001513,
      "v": 91
    },
    {
      "midi": 36,
      "hit": false,
      "t": 115644.93000000498,
      "d": 216.73343750005006,
      "v": 102
    },
    {
      "midi": 60,
      "hit": false,
      "t": 115649.97031250499,
      "d": 45.36281250001048,
      "v": 49
    },
    {
      "midi": 64,
      "hit": false,
      "t": 115655.01062500499,
      "d": 35.28218750000815,
      "v": 56
    },
    {
      "midi": 39,
      "hit": false,
      "t": 115665.09125000499,
      "d": 70.5643750000163,
      "v": 76
    },
    {
      "midi": 98,
      "hit": false,
      "t": 115765.89750000501,
      "d": 5.040312500001164,
      "v": 35
    },
    {
      "midi": 82,
      "hit": false,
      "t": 115765.89750000501,
      "d": 5.040312500001164,
      "v": 43
    },
    {
      "midi": 55,
      "hit": false,
      "t": 115765.89750000501,
      "d": 45.36281250001048,
      "v": 23
    },
    {
      "midi": 60,
      "hit": false,
      "t": 115770.93781250501,
      "d": 50.40312500001164,
      "v": 47
    },
    {
      "midi": 64,
      "hit": false,
      "t": 115775.97812500501,
      "d": 35.28218750000815,
      "v": 38
    },
    {
      "midi": 54,
      "hit": false,
      "t": 115786.05875000502,
      "d": 40.32250000000931,
      "v": 39
    },
    {
      "midi": 82,
      "hit": false,
      "t": 115886.86500000504,
      "d": 10.080625000002328,
      "v": 66
    },
    {
      "midi": 42,
      "hit": false,
      "t": 115886.86500000504,
      "d": 60.48374999999942,
      "v": 82
    },
    {
      "midi": 54,
      "hit": false,
      "t": 115886.86500000504,
      "d": 85.68531250000524,
      "v": 50
    },
    {
      "midi": 40,
      "hit": false,
      "t": 115886.86500000504,
      "d": 141.1287500000035,
      "v": 97
    },
    {
      "midi": 67,
      "hit": false,
      "t": 115886.86500000504,
      "d": 216.73343749999185,
      "v": 104
    },
    {
      "midi": 55,
      "hit": false,
      "t": 116007.83250000504,
      "d": 10.080625000002328,
      "v": 51
    },
    {
      "midi": 60,
      "hit": false,
      "t": 116012.87281250504,
      "d": 5.040312500001164,
      "v": 49
    },
    {
      "midi": 98,
      "hit": false,
      "t": 116012.87281250504,
      "d": 10.080625000002328,
      "v": 49
    },
    {
      "midi": 82,
      "hit": false,
      "t": 116012.87281250504,
      "d": 10.080625000002328,
      "v": 64
    },
    {
      "midi": 64,
      "hit": false,
      "t": 116017.91312500504,
      "d": 10.080625000002328,
      "v": 54
    },
    {
      "midi": 54,
      "hit": false,
      "t": 116027.99375000504,
      "d": 40.32249999999476,
      "v": 40
    },
    {
      "midi": 98,
      "hit": false,
      "t": 116128.80000000504,
      "d": 10.080625000002328,
      "v": 78
    },
    {
      "midi": 82,
      "hit": false,
      "t": 116128.80000000504,
      "d": 10.080625000002328,
      "v": 102
    },
    {
      "midi": 57,
      "hit": false,
      "t": 116128.80000000504,
      "d": 65.52406250000058,
      "v": 65
    },
    {
      "midi": 42,
      "hit": false,
      "t": 116128.80000000504,
      "d": 75.60468750000291,
      "v": 98
    },
    {
      "midi": 62,
      "hit": false,
      "t": 116128.80000000504,
      "d": 85.68531250000524,
      "v": 61
    },
    {
      "midi": 35,
      "hit": false,
      "t": 116128.80000000504,
      "d": 90.7256250000064,
      "v": 79
    },
    {
      "midi": 50,
      "hit": false,
      "t": 116128.80000000504,
      "d": 241.93500000001222,
      "v": 104
    },
    {
      "midi": 38,
      "hit": false,
      "t": 116128.80000000504,
      "d": 357.8621875000099,
      "v": 105
    },
    {
      "midi": 72,
      "hit": false,
      "t": 116128.80000000504,
      "d": 1935.4800000001123,
      "v": 47
    },
    {
      "midi": 60,
      "hit": false,
      "t": 116133.84031250504,
      "d": 60.48374999999942,
      "v": 60
    },
    {
      "midi": 67,
      "hit": false,
      "t": 116138.88062500504,
      "d": 70.56437500000175,
      "v": 60
    },
    {
      "midi": 98,
      "hit": false,
      "t": 116249.76750000505,
      "d": 5.040312500001164,
      "v": 41
    },
    {
      "midi": 82,
      "hit": false,
      "t": 116249.76750000505,
      "d": 5.040312500001164,
      "v": 51
    },
    {
      "midi": 57,
      "hit": false,
      "t": 116249.76750000505,
      "d": 10.080625000002328,
      "v": 51
    },
    {
      "midi": 60,
      "hit": false,
      "t": 116254.80781250505,
      "d": 5.040312500001164,
      "v": 41
    },
    {
      "midi": 67,
      "hit": false,
      "t": 116259.84812500505,
      "d": 10.080625000002328,
      "v": 57
    },
    {
      "midi": 54,
      "hit": false,
      "t": 116269.92875000506,
      "d": 40.32249999999476,
      "v": 34
    },
    {
      "midi": 82,
      "hit": false,
      "t": 116370.73500000505,
      "d": 10.080625000002328,
      "v": 60
    },
    {
      "midi": 42,
      "hit": false,
      "t": 116370.73500000505,
      "d": 45.362812499995925,
      "v": 82
    },
    {
      "midi": 54,
      "hit": false,
      "t": 116370.73500000505,
      "d": 70.56437500000175,
      "v": 94
    },
    {
      "midi": 57,
      "hit": false,
      "t": 116491.70250000505,
      "d": 50.40312500001164,
      "v": 22
    },
    {
      "midi": 98,
      "hit": false,
      "t": 116496.74281250505,
      "d": 10.080625000002328,
      "v": 45
    },
    {
      "midi": 82,
      "hit": false,
      "t": 116496.74281250505,
      "d": 10.080625000002328,
      "v": 58
    },
    {
      "midi": 60,
      "hit": false,
      "t": 116496.74281250505,
      "d": 50.40312500001164,
      "v": 22
    },
    {
      "midi": 67,
      "hit": false,
      "t": 116501.78312500505,
      "d": 50.40312500001164,
      "v": 25
    },
    {
      "midi": 54,
      "hit": false,
      "t": 116511.86375000505,
      "d": 40.32250000000931,
      "v": 40
    },
    {
      "midi": 98,
      "hit": false,
      "t": 116612.67000000506,
      "d": 10.080625000002328,
      "v": 84
    },
    {
      "midi": 82,
      "hit": false,
      "t": 116612.67000000506,
      "d": 10.080625000002328,
      "v": 108
    },
    {
      "midi": 57,
      "hit": false,
      "t": 116612.67000000506,
      "d": 10.080625000002328,
      "v": 49
    },
    {
      "midi": 62,
      "hit": false,
      "t": 116612.67000000506,
      "d": 55.443437499998254,
      "v": 56
    },
    {
      "midi": 40,
      "hit": false,
      "t": 116612.67000000506,
      "d": 65.52406250000058,
      "v": 91
    },
    {
      "midi": 42,
      "hit": false,
      "t": 116612.67000000506,
      "d": 70.56437500000175,
      "v": 98
    },
    {
      "midi": 33,
      "hit": false,
      "t": 116612.67000000506,
      "d": 398.1846874999901,
      "v": 109
    },
    {
      "midi": 60,
      "hit": false,
      "t": 116617.71031250506,
      "d": 10.080625000002328,
      "v": 56
    },
    {
      "midi": 67,
      "hit": false,
      "t": 116622.75062500506,
      "d": 10.080625000002328,
      "v": 54
    },
    {
      "midi": 98,
      "hit": false,
      "t": 116733.63750000506,
      "d": 5.040312500001164,
      "v": 35
    },
    {
      "midi": 82,
      "hit": false,
      "t": 116733.63750000506,
      "d": 5.040312500001164,
      "v": 43
    },
    {
      "midi": 54,
      "hit": false,
      "t": 116753.79875000507,
      "d": 40.32249999999476,
      "v": 39
    },
    {
      "midi": 82,
      "hit": false,
      "t": 116854.60500000506,
      "d": 10.080625000002328,
      "v": 66
    },
    {
      "midi": 42,
      "hit": false,
      "t": 116854.60500000506,
      "d": 50.40312499999709,
      "v": 64
    },
    {
      "midi": 54,
      "hit": false,
      "t": 116854.60500000506,
      "d": 85.68531249999069,
      "v": 47
    },
    {
      "midi": 50,
      "hit": false,
      "t": 116854.60500000506,
      "d": 216.7334375000064,
      "v": 104
    },
    {
      "midi": 57,
      "hit": false,
      "t": 116975.57250000504,
      "d": 50.40312500001164,
      "v": 65
    },
    {
      "midi": 62,
      "hit": false,
      "t": 116975.57250000504,
      "d": 75.60468750001746,
      "v": 60
    },
    {
      "midi": 31,
      "hit": false,
      "t": 116980.61281250505,
      "d": 5.040312500001164,
      "v": 30
    },
    {
      "midi": 98,
      "hit": false,
      "t": 116980.61281250505,
      "d": 10.080625000002328,
      "v": 49
    },
    {
      "midi": 82,
      "hit": false,
      "t": 116980.61281250505,
      "d": 10.080625000002328,
      "v": 64
    },
    {
      "midi": 60,
      "hit": false,
      "t": 116980.61281250505,
      "d": 75.60468750001746,
      "v": 73
    },
    {
      "midi": 67,
      "hit": false,
      "t": 116985.65312500505,
      "d": 75.60468750001746,
      "v": 55
    },
    {
      "midi": 54,
      "hit": false,
      "t": 116995.73375000505,
      "d": 40.32250000000931,
      "v": 39
    },
    {
      "midi": 98,
      "hit": false,
      "t": 117096.54000000507,
      "d": 10.080625000002328,
      "v": 78
    },
    {
      "midi": 82,
      "hit": false,
      "t": 117096.54000000507,
      "d": 10.080625000002328,
      "v": 102
    },
    {
      "midi": 57,
      "hit": false,
      "t": 117096.54000000507,
      "d": 10.080625000002328,
      "v": 54
    },
    {
      "midi": 42,
      "hit": false,
      "t": 117096.54000000507,
      "d": 65.52406250000058,
      "v": 93
    },
    {
      "midi": 35,
      "hit": false,
      "t": 117096.54000000507,
      "d": 90.7256250000064,
      "v": 86
    },
    {
      "midi": 38,
      "hit": false,
      "t": 117096.54000000507,
      "d": 317.5396875000297,
      "v": 105
    },
    {
      "midi": 60,
      "hit": false,
      "t": 117101.58031250507,
      "d": 5.040312500001164,
      "v": 49
    },
    {
      "midi": 67,
      "hit": false,
      "t": 117106.62062500507,
      "d": 10.080625000002328,
      "v": 57
    },
    {
      "midi": 98,
      "hit": false,
      "t": 117217.50750000509,
      "d": 5.040312500001164,
      "v": 41
    },
    {
      "midi": 82,
      "hit": false,
      "t": 117217.50750000509,
      "d": 5.040312500001164,
      "v": 51
    },
    {
      "midi": 54,
      "hit": false,
      "t": 117237.66875000509,
      "d": 40.32249999999476,
      "v": 34
    },
    {
      "midi": 82,
      "hit": false,
      "t": 117338.47500000508,
      "d": 10.080625000002328,
      "v": 60
    },
    {
      "midi": 57,
      "hit": false,
      "t": 117338.47500000508,
      "d": 10.080625000002328,
      "v": 49
    },
    {
      "midi": 42,
      "hit": false,
      "t": 117338.47500000508,
      "d": 60.48375000001397,
      "v": 87
    },
    {
      "midi": 62,
      "hit": false,
      "t": 117338.47500000508,
      "d": 75.60468750001746,
      "v": 61
    },
    {
      "midi": 66,
      "hit": false,
      "t": 117338.47500000508,
      "d": 216.73343750002095,
      "v": 104
    },
    {
      "midi": 60,
      "hit": false,
      "t": 117343.51531250509,
      "d": 25.20156250000582,
      "v": 47
    },
    {
      "midi": 67,
      "hit": false,
      "t": 117348.55562500509,
      "d": 10.080625000002328,
      "v": 54
    },
    {
      "midi": 54,
      "hit": false,
      "t": 117358.63625000509,
      "d": 70.5643750000163,
      "v": 93
    },
    {
      "midi": 33,
      "hit": false,
      "t": 117459.44250000511,
      "d": 95.76593749999302,
      "v": 102
    },
    {
      "midi": 98,
      "hit": false,
      "t": 117464.48281250511,
      "d": 10.080625000002328,
      "v": 45
    },
    {
      "midi": 82,
      "hit": false,
      "t": 117464.48281250511,
      "d": 10.080625000002328,
      "v": 58
    },
    {
      "midi": 54,
      "hit": false,
      "t": 117479.60375000512,
      "d": 40.32249999999476,
      "v": 31
    },
    {
      "midi": 98,
      "hit": false,
      "t": 117580.41000000511,
      "d": 10.080625000002328,
      "v": 84
    },
    {
      "midi": 82,
      "hit": false,
      "t": 117580.41000000511,
      "d": 10.080625000002328,
      "v": 108
    },
    {
      "midi": 40,
      "hit": false,
      "t": 117580.41000000511,
      "d": 65.52406250000058,
      "v": 94
    },
    {
      "midi": 57,
      "hit": false,
      "t": 117580.41000000511,
      "d": 65.52406250000058,
      "v": 57
    },
    {
      "midi": 42,
      "hit": false,
      "t": 117580.41000000511,
      "d": 80.64500000000407,
      "v": 93
    },
    {
      "midi": 62,
      "hit": false,
      "t": 117580.41000000511,
      "d": 181.45125000002736,
      "v": 56
    },
    {
      "midi": 60,
      "hit": false,
      "t": 117585.45031250511,
      "d": 70.56437500000175,
      "v": 59
    },
    {
      "midi": 36,
      "hit": false,
      "t": 117585.45031250511,
      "d": 216.7334375000355,
      "v": 102
    },
    {
      "midi": 67,
      "hit": false,
      "t": 117590.49062500511,
      "d": 70.56437500000175,
      "v": 59
    },
    {
      "midi": 39,
      "hit": false,
      "t": 117600.57125000512,
      "d": 70.56437500000175,
      "v": 76
    },
    {
      "midi": 98,
      "hit": false,
      "t": 117701.37750000512,
      "d": 5.040312500001164,
      "v": 35
    },
    {
      "midi": 82,
      "hit": false,
      "t": 117701.37750000512,
      "d": 5.040312500001164,
      "v": 43
    },
    {
      "midi": 57,
      "hit": false,
      "t": 117701.37750000512,
      "d": 40.32250000000931,
      "v": 44
    },
    {
      "midi": 60,
      "hit": false,
      "t": 117706.41781250513,
      "d": 70.5643750000163,
      "v": 38
    },
    {
      "midi": 67,
      "hit": false,
      "t": 117711.45812500513,
      "d": 60.48375000001397,
      "v": 45
    },
    {
      "midi": 54,
      "hit": false,
      "t": 117721.53875000513,
      "d": 40.32250000000931,
      "v": 39
    },
    {
      "midi": 82,
      "hit": false,
      "t": 117822.34500000515,
      "d": 10.080625000002328,
      "v": 66
    },
    {
      "midi": 42,
      "hit": false,
      "t": 117822.34500000515,
      "d": 55.443437499998254,
      "v": 82
    },
    {
      "midi": 54,
      "hit": false,
      "t": 117822.34500000515,
      "d": 85.68531250000524,
      "v": 50
    },
    {
      "midi": 69,
      "hit": false,
      "t": 117822.34500000515,
      "d": 216.73343749999185,
      "v": 104
    },
    {
      "midi": 38,
      "hit": false,
      "t": 117822.34500000515,
      "d": 236.8946874999965,
      "v": 105
    },
    {
      "midi": 57,
      "hit": false,
      "t": 117943.31250000515,
      "d": 10.080625000002328,
      "v": 47
    },
    {
      "midi": 60,
      "hit": false,
      "t": 117948.35281250515,
      "d": 5.040312500001164,
      "v": 45
    },
    {
      "midi": 98,
      "hit": false,
      "t": 117948.35281250515,
      "d": 10.080625000002328,
      "v": 49
    },
    {
      "midi": 82,
      "hit": false,
      "t": 117948.35281250515,
      "d": 10.080625000002328,
      "v": 64
    },
    {
      "midi": 67,
      "hit": false,
      "t": 117953.39312500515,
      "d": 10.080625000002328,
      "v": 47
    },
    {
      "midi": 54,
      "hit": false,
      "t": 117963.47375000516,
      "d": 40.32249999999476,
      "v": 40
    },
    {
      "midi": 98,
      "hit": false,
      "t": 118064.28000000515,
      "d": 10.080625000002328,
      "v": 78
    },
    {
      "midi": 82,
      "hit": false,
      "t": 118064.28000000515,
      "d": 10.080625000002328,
      "v": 102
    },
    {
      "midi": 55,
      "hit": false,
      "t": 118064.28000000515,
      "d": 60.48374999999942,
      "v": 60
    },
    {
      "midi": 42,
      "hit": false,
      "t": 118064.28000000515,
      "d": 70.56437500000175,
      "v": 95
    },
    {
      "midi": 35,
      "hit": false,
      "t": 118064.28000000515,
      "d": 90.7256250000064,
      "v": 87
    },
    {
      "midi": 31,
      "hit": false,
      "t": 118064.28000000515,
      "d": 372.9831250000134,
      "v": 102
    },
    {
      "midi": 64,
      "hit": false,
      "t": 118064.28000000515,
      "d": 650.2003125000483,
      "v": 104
    },
    {
      "midi": 59,
      "hit": false,
      "t": 118069.32031250515,
      "d": 65.52406250000058,
      "v": 67
    },
    {
      "midi": 62,
      "hit": false,
      "t": 118074.36062500515,
      "d": 60.48374999999942,
      "v": 60
    },
    {
      "midi": 98,
      "hit": false,
      "t": 118185.24750000516,
      "d": 5.040312500001164,
      "v": 41
    },
    {
      "midi": 82,
      "hit": false,
      "t": 118185.24750000516,
      "d": 5.040312500001164,
      "v": 51
    },
    {
      "midi": 55,
      "hit": false,
      "t": 118185.24750000516,
      "d": 10.080625000002328,
      "v": 41
    },
    {
      "midi": 59,
      "hit": false,
      "t": 118190.28781250516,
      "d": 5.040312500001164,
      "v": 55
    },
    {
      "midi": 62,
      "hit": false,
      "t": 118195.32812500517,
      "d": 10.080625000002328,
      "v": 56
    },
    {
      "midi": 54,
      "hit": false,
      "t": 118205.40875000517,
      "d": 40.32249999999476,
      "v": 34
    },
    {
      "midi": 82,
      "hit": false,
      "t": 118306.21500000516,
      "d": 10.080625000002328,
      "v": 60
    },
    {
      "midi": 42,
      "hit": false,
      "t": 118306.21500000516,
      "d": 55.443437499998254,
      "v": 82
    },
    {
      "midi": 54,
      "hit": false,
      "t": 118306.21500000516,
      "d": 70.56437500000175,
      "v": 94
    },
    {
      "midi": 55,
      "hit": false,
      "t": 118427.18250000516,
      "d": 45.36281250001048,
      "v": 22
    },
    {
      "midi": 98,
      "hit": false,
      "t": 118432.22281250516,
      "d": 10.080625000002328,
      "v": 45
    },
    {
      "midi": 82,
      "hit": false,
      "t": 118432.22281250516,
      "d": 10.080625000002328,
      "v": 58
    },
    {
      "midi": 59,
      "hit": false,
      "t": 118432.22281250516,
      "d": 35.28218750000815,
      "v": 32
    },
    {
      "midi": 62,
      "hit": false,
      "t": 118437.26312500516,
      "d": 40.32250000000931,
      "v": 26
    },
    {
      "midi": 54,
      "hit": false,
      "t": 118447.34375000517,
      "d": 40.32250000000931,
      "v": 40
    },
    {
      "midi": 98,
      "hit": false,
      "t": 118548.15000000517,
      "d": 10.080625000002328,
      "v": 84
    },
    {
      "midi": 82,
      "hit": false,
      "t": 118548.15000000517,
      "d": 10.080625000002328,
      "v": 108
    },
    {
      "midi": 55,
      "hit": false,
      "t": 118548.15000000517,
      "d": 10.080625000002328,
      "v": 54
    },
    {
      "midi": 42,
      "hit": false,
      "t": 118548.15000000517,
      "d": 75.60468750000291,
      "v": 93
    },
    {
      "midi": 40,
      "hit": false,
      "t": 118548.15000000517,
      "d": 75.60468750000291,
      "v": 94
    },
    {
      "midi": 38,
      "hit": false,
      "t": 118548.15000000517,
      "d": 393.14437500004715,
      "v": 105
    },
    {
      "midi": 59,
      "hit": false,
      "t": 118553.19031250518,
      "d": 5.040312500001164,
      "v": 49
    },
    {
      "midi": 62,
      "hit": false,
      "t": 118558.23062500518,
      "d": 10.080625000002328,
      "v": 49
    },
    {
      "midi": 98,
      "hit": false,
      "t": 118669.11750000519,
      "d": 5.040312500001164,
      "v": 35
    },
    {
      "midi": 82,
      "hit": false,
      "t": 118669.11750000519,
      "d": 5.040312500001164,
      "v": 43
    },
    {
      "midi": 54,
      "hit": false,
      "t": 118689.27875000519,
      "d": 40.32250000000931,
      "v": 39
    },
    {
      "midi": 82,
      "hit": false,
      "t": 118790.0850000052,
      "d": 10.080625000002328,
      "v": 66
    },
    {
      "midi": 55,
      "hit": false,
      "t": 118790.0850000052,
      "d": 40.32250000000931,
      "v": 22
    },
    {
      "midi": 42,
      "hit": false,
      "t": 118790.0850000052,
      "d": 50.40312500001164,
      "v": 73
    },
    {
      "midi": 54,
      "hit": false,
      "t": 118790.0850000052,
      "d": 85.68531250001979,
      "v": 47
    },
    {
      "midi": 59,
      "hit": false,
      "t": 118795.1253125052,
      "d": 40.32250000000931,
      "v": 26
    },
    {
      "midi": 62,
      "hit": false,
      "t": 118800.1656250052,
      "d": 45.36281250001048,
      "v": 22
    },
    {
      "midi": 55,
      "hit": false,
      "t": 118911.05250000521,
      "d": 70.5643750000163,
      "v": 62
    },
    {
      "midi": 98,
      "hit": false,
      "t": 118916.09281250522,
      "d": 10.080625000002328,
      "v": 49
    },
    {
      "midi": 82,
      "hit": false,
      "t": 118916.09281250522,
      "d": 10.080625000002328,
      "v": 64
    },
    {
      "midi": 59,
      "hit": false,
      "t": 118916.09281250522,
      "d": 85.68531250001979,
      "v": 58
    },
    {
      "midi": 62,
      "hit": false,
      "t": 118921.13312500522,
      "d": 75.60468750001746,
      "v": 68
    },
    {
      "midi": 54,
      "hit": false,
      "t": 118931.21375000522,
      "d": 40.32250000000931,
      "v": 39
    },
    {
      "midi": 98,
      "hit": false,
      "t": 119032.02000000524,
      "d": 10.080625000002328,
      "v": 78
    },
    {
      "midi": 82,
      "hit": false,
      "t": 119032.02000000524,
      "d": 10.080625000002328,
      "v": 102
    },
    {
      "midi": 55,
      "hit": false,
      "t": 119032.02000000524,
      "d": 10.080625000002328,
      "v": 41
    },
    {
      "midi": 42,
      "hit": false,
      "t": 119032.02000000524,
      "d": 55.443437499998254,
      "v": 87
    },
    {
      "midi": 35,
      "hit": false,
      "t": 119032.02000000524,
      "d": 95.76593749999302,
      "v": 87
    },
    {
      "midi": 31,
      "hit": false,
      "t": 119032.02000000524,
      "d": 357.86218750002445,
      "v": 105
    },
    {
      "midi": 59,
      "hit": false,
      "t": 119037.06031250524,
      "d": 5.040312500001164,
      "v": 47
    },
    {
      "midi": 62,
      "hit": false,
      "t": 119042.10062500525,
      "d": 10.080625000002328,
      "v": 54
    },
    {
      "midi": 98,
      "hit": false,
      "t": 119152.98750000524,
      "d": 5.040312500001164,
      "v": 41
    },
    {
      "midi": 82,
      "hit": false,
      "t": 119152.98750000524,
      "d": 5.040312500001164,
      "v": 51
    },
    {
      "midi": 54,
      "hit": false,
      "t": 119173.14875000525,
      "d": 40.32249999999476,
      "v": 34
    },
    {
      "midi": 82,
      "hit": false,
      "t": 119273.95500000524,
      "d": 10.080625000002328,
      "v": 60
    },
    {
      "midi": 55,
      "hit": false,
      "t": 119273.95500000524,
      "d": 10.080625000002328,
      "v": 55
    },
    {
      "midi": 42,
      "hit": false,
      "t": 119273.95500000524,
      "d": 50.40312500001164,
      "v": 82
    },
    {
      "midi": 59,
      "hit": false,
      "t": 119278.99531250524,
      "d": 10.080625000002328,
      "v": 49
    },
    {
      "midi": 62,
      "hit": false,
      "t": 119284.03562500524,
      "d": 10.080625000002328,
      "v": 49
    },
    {
      "midi": 54,
      "hit": false,
      "t": 119294.11625000525,
      "d": 70.5643750000163,
      "v": 93
    },
    {
      "midi": 98,
      "hit": false,
      "t": 119399.96281250527,
      "d": 10.080625000002328,
      "v": 45
    },
    {
      "midi": 82,
      "hit": false,
      "t": 119399.96281250527,
      "d": 10.080625000002328,
      "v": 58
    },
    {
      "midi": 54,
      "hit": false,
      "t": 119415.08375000527,
      "d": 40.32249999999476,
      "v": 31
    },
    {
      "midi": 35,
      "hit": false,
      "t": 119510.84968750527,
      "d": 171.37062500002503,
      "v": 102
    },
    {
      "midi": 98,
      "hit": false,
      "t": 119515.89000000527,
      "d": 10.080625000002328,
      "v": 84
    },
    {
      "midi": 82,
      "hit": false,
      "t": 119515.89000000527,
      "d": 10.080625000002328,
      "v": 108
    },
    {
      "midi": 55,
      "hit": false,
      "t": 119515.89000000527,
      "d": 55.443437499998254,
      "v": 59
    },
    {
      "midi": 42,
      "hit": false,
      "t": 119515.89000000527,
      "d": 60.48374999999942,
      "v": 87
    },
    {
      "midi": 40,
      "hit": false,
      "t": 119515.89000000527,
      "d": 60.48374999999942,
      "v": 94
    },
    {
      "midi": 59,
      "hit": false,
      "t": 119520.93031250527,
      "d": 65.52406250000058,
      "v": 58
    },
    {
      "midi": 62,
      "hit": false,
      "t": 119525.97062500527,
      "d": 60.48374999999942,
      "v": 58
    },
    {
      "midi": 39,
      "hit": false,
      "t": 119536.05125000527,
      "d": 70.56437500000175,
      "v": 76
    },
    {
      "midi": 98,
      "hit": false,
      "t": 119636.85750000528,
      "d": 5.040312500001164,
      "v": 35
    },
    {
      "midi": 82,
      "hit": false,
      "t": 119636.85750000528,
      "d": 5.040312500001164,
      "v": 43
    },
    {
      "midi": 55,
      "hit": false,
      "t": 119636.85750000528,
      "d": 60.48375000001397,
      "v": 40
    },
    {
      "midi": 59,
      "hit": false,
      "t": 119641.89781250528,
      "d": 65.52406250001513,
      "v": 38
    },
    {
      "midi": 62,
      "hit": false,
      "t": 119646.93812500528,
      "d": 35.28218750000815,
      "v": 38
    },
    {
      "midi": 54,
      "hit": false,
      "t": 119657.01875000529,
      "d": 40.32250000000931,
      "v": 39
    },
    {
      "midi": 38,
      "hit": false,
      "t": 119752.78468750531,
      "d": 196.5721875000163,
      "v": 97
    },
    {
      "midi": 82,
      "hit": false,
      "t": 119757.82500000531,
      "d": 10.080625000002328,
      "v": 66
    },
    {
      "midi": 42,
      "hit": false,
      "t": 119757.82500000531,
      "d": 50.40312499999709,
      "v": 75
    },
    {
      "midi": 54,
      "hit": false,
      "t": 119757.82500000531,
      "d": 85.68531249999069,
      "v": 50
    },
    {
      "midi": 50,
      "hit": false,
      "t": 119757.82500000531,
      "d": 216.73343750002095,
      "v": 104
    },
    {
      "midi": 55,
      "hit": false,
      "t": 119878.79250000531,
      "d": 10.080625000002328,
      "v": 49
    },
    {
      "midi": 98,
      "hit": false,
      "t": 119883.83281250531,
      "d": 10.080625000002328,
      "v": 49
    },
    {
      "midi": 82,
      "hit": false,
      "t": 119883.83281250531,
      "d": 10.080625000002328,
      "v": 64
    },
    {
      "midi": 59,
      "hit": false,
      "t": 119883.83281250531,
      "d": 25.20156250000582,
      "v": 54
    },
    {
      "midi": 62,
      "hit": false,
      "t": 119888.87312500531,
      "d": 10.080625000002328,
      "v": 57
    },
    {
      "midi": 54,
      "hit": false,
      "t": 119898.95375000531,
      "d": 40.32250000000931,
      "v": 40
    },
    {
      "midi": 98,
      "hit": false,
      "t": 119999.76000000534,
      "d": 10.080625000002328,
      "v": 78
    },
    {
      "midi": 82,
      "hit": false,
      "t": 119999.76000000534,
      "d": 10.080625000002328,
      "v": 102
    },
    {
      "midi": 42,
      "hit": false,
      "t": 119999.76000000534,
      "d": 45.36281250001048,
      "v": 95
    },
    {
      "midi": 35,
      "hit": false,
      "t": 119999.76000000534,
      "d": 105.8465625000099,
      "v": 87
    },
    {
      "midi": 53,
      "hit": false,
      "t": 119999.76000000534,
      "d": 115.92718750001222,
      "v": 93
    },
    {
      "midi": 55,
      "hit": false,
      "t": 119999.76000000534,
      "d": 241.93500000002678,
      "v": 104
    },
    {
      "midi": 31,
      "hit": false,
      "t": 119999.76000000534,
      "d": 317.53968750004424,
      "v": 102
    },
    {
      "midi": 74,
      "hit": false,
      "t": 119999.76000000534,
      "d": 1935.4800000002288,
      "v": 47
    },
    {
      "midi": 98,
      "hit": false,
      "t": 120120.72750000535,
      "d": 5.040312500001164,
      "v": 41
    },
    {
      "midi": 82,
      "hit": false,
      "t": 120120.72750000535,
      "d": 5.040312500001164,
      "v": 51
    },
    {
      "midi": 59,
      "hit": false,
      "t": 120120.72750000535,
      "d": 10.080625000002328,
      "v": 69
    },
    {
      "midi": 62,
      "hit": false,
      "t": 120120.72750000535,
      "d": 15.120937500003492,
      "v": 86
    },
    {
      "midi": 65,
      "hit": false,
      "t": 120135.84843750535,
      "d": 15.120937500003492,
      "v": 94
    },
    {
      "midi": 54,
      "hit": false,
      "t": 120140.88875000535,
      "d": 40.32250000000931,
      "v": 34
    },
    {
      "midi": 82,
      "hit": false,
      "t": 120241.69500000536,
      "d": 10.080625000002328,
      "v": 60
    },
    {
      "midi": 42,
      "hit": false,
      "t": 120241.69500000536,
      "d": 40.32250000000931,
      "v": 82
    },
    {
      "midi": 53,
      "hit": false,
      "t": 120241.69500000536,
      "d": 45.36281250001048,
      "v": 93
    },
    {
      "midi": 54,
      "hit": false,
      "t": 120241.69500000536,
      "d": 70.5643750000163,
      "v": 94
    },
    {
      "midi": 59,
      "hit": false,
      "t": 120251.77562500536,
      "d": 65.52406250001513,
      "v": 72
    },
    {
      "midi": 65,
      "hit": false,
      "t": 120256.81593750537,
      "d": 75.60468750001746,
      "v": 91
    },
    {
      "midi": 62,
      "hit": false,
      "t": 120261.85625000537,
      "d": 55.443437500012806,
      "v": 82
    },
    {
      "midi": 62,
      "hit": false,
      "t": 120362.66250000539,
      "d": 15.120937500003492,
      "v": 97
    },
    {
      "midi": 59,
      "hit": false,
      "t": 120362.66250000539,
      "d": 15.120937500003492,
      "v": 78
    },
    {
      "midi": 31,
      "hit": false,
      "t": 120362.66250000539,
      "d": 90.72562500002095,
      "v": 102
    },
    {
      "midi": 98,
      "hit": false,
      "t": 120367.70281250539,
      "d": 10.080625000002328,
      "v": 45
    },
    {
      "midi": 82,
      "hit": false,
      "t": 120367.70281250539,
      "d": 10.080625000002328,
      "v": 58
    },
    {
      "midi": 65,
      "hit": false,
      "t": 120377.7834375054,
      "d": 15.120937500003492,
      "v": 81
    },
    {
      "midi": 54,
      "hit": false,
      "t": 120382.8237500054,
      "d": 40.32250000000931,
      "v": 40
    },
    {
      "midi": 98,
      "hit": false,
      "t": 120483.63000000542,
      "d": 10.080625000002328,
      "v": 84
    },
    {
      "midi": 82,
      "hit": false,
      "t": 120483.63000000542,
      "d": 10.080625000002328,
      "v": 108
    },
    {
      "midi": 62,
      "hit": false,
      "t": 120483.63000000542,
      "d": 15.120937500003492,
      "v": 92
    },
    {
      "midi": 59,
      "hit": false,
      "t": 120483.63000000542,
      "d": 15.120937500003492,
      "v": 89
    },
    {
      "midi": 42,
      "hit": false,
      "t": 120483.63000000542,
      "d": 65.52406250000058,
      "v": 98
    },
    {
      "midi": 40,
      "hit": false,
      "t": 120483.63000000542,
      "d": 70.56437500000175,
      "v": 94
    },
    {
      "midi": 35,
      "hit": false,
      "t": 120483.63000000542,
      "d": 211.6931250000198,
      "v": 102
    },
    {
      "midi": 71,
      "hit": false,
      "t": 120483.63000000542,
      "d": 433.4668750000419,
      "v": 104
    },
    {
      "midi": 65,
      "hit": false,
      "t": 120498.75093750542,
      "d": 15.120937500003492,
      "v": 87
    },
    {
      "midi": 98,
      "hit": false,
      "t": 120604.59750000542,
      "d": 5.040312500001164,
      "v": 35
    },
    {
      "midi": 82,
      "hit": false,
      "t": 120604.59750000542,
      "d": 5.040312500001164,
      "v": 43
    },
    {
      "midi": 53,
      "hit": false,
      "t": 120604.59750000542,
      "d": 50.40312500001164,
      "v": 87
    },
    {
      "midi": 59,
      "hit": false,
      "t": 120614.67812500542,
      "d": 65.52406250001513,
      "v": 80
    },
    {
      "midi": 65,
      "hit": false,
      "t": 120619.71843750542,
      "d": 75.60468750001746,
      "v": 68
    },
    {
      "midi": 54,
      "hit": false,
      "t": 120624.75875000542,
      "d": 40.32250000000931,
      "v": 39
    },
    {
      "midi": 62,
      "hit": false,
      "t": 120624.75875000542,
      "d": 55.443437500012806,
      "v": 79
    },
    {
      "midi": 82,
      "hit": false,
      "t": 120725.56500000544,
      "d": 10.080625000002328,
      "v": 66
    },
    {
      "midi": 62,
      "hit": false,
      "t": 120725.56500000544,
      "d": 15.120937500003492,
      "v": 98
    },
    {
      "midi": 59,
      "hit": false,
      "t": 120725.56500000544,
      "d": 15.120937500003492,
      "v": 80
    },
    {
      "midi": 42,
      "hit": false,
      "t": 120725.56500000544,
      "d": 40.32250000000931,
      "v": 82
    },
    {
      "midi": 54,
      "hit": false,
      "t": 120725.56500000544,
      "d": 85.68531250000524,
      "v": 47
    },
    {
      "midi": 38,
      "hit": false,
      "t": 120725.56500000544,
      "d": 171.37062500001048,
      "v": 102
    },
    {
      "midi": 55,
      "hit": false,
      "t": 120725.56500000544,
      "d": 216.73343750002095,
      "v": 104
    },
    {
      "midi": 53,
      "hit": false,
      "t": 120725.56500000544,
      "d": 216.73343750002095,
      "v": 104
    },
    {
      "midi": 65,
      "hit": false,
      "t": 120740.68593750545,
      "d": 15.120937500003492,
      "v": 78
    },
    {
      "midi": 62,
      "hit": false,
      "t": 120846.53250000544,
      "d": 15.120937500003492,
      "v": 91
    },
    {
      "midi": 59,
      "hit": false,
      "t": 120846.53250000544,
      "d": 15.120937500003492,
      "v": 85
    },
    {
      "midi": 31,
      "hit": false,
      "t": 120851.57281250544,
      "d": 5.040312500001164,
      "v": 35
    },
    {
      "midi": 98,
      "hit": false,
      "t": 120851.57281250544,
      "d": 10.080625000002328,
      "v": 49
    },
    {
      "midi": 82,
      "hit": false,
      "t": 120851.57281250544,
      "d": 10.080625000002328,
      "v": 64
    },
    {
      "midi": 65,
      "hit": false,
      "t": 120861.65343750545,
      "d": 15.120937500003492,
      "v": 98
    },
    {
      "midi": 54,
      "hit": false,
      "t": 120866.69375000545,
      "d": 40.32250000000931,
      "v": 39
    },
    {
      "midi": 98,
      "hit": false,
      "t": 120967.50000000547,
      "d": 10.080625000002328,
      "v": 78
    },
    {
      "midi": 82,
      "hit": false,
      "t": 120967.50000000547,
      "d": 10.080625000002328,
      "v": 102
    },
    {
      "midi": 53,
      "hit": false,
      "t": 120967.50000000547,
      "d": 45.36281250001048,
      "v": 86
    },
    {
      "midi": 42,
      "hit": false,
      "t": 120967.50000000547,
      "d": 60.48375000001397,
      "v": 98
    },
    {
      "midi": 35,
      "hit": false,
      "t": 120967.50000000547,
      "d": 90.72562500002095,
      "v": 86
    },
    {
      "midi": 43,
      "hit": false,
      "t": 120967.50000000547,
      "d": 282.2575000000361,
      "v": 102
    },
    {
      "midi": 69,
      "hit": false,
      "t": 120967.50000000547,
      "d": 433.4668750000419,
      "v": 104
    },
    {
      "midi": 59,
      "hit": false,
      "t": 120977.58062500547,
      "d": 70.5643750000163,
      "v": 80
    },
    {
      "midi": 65,
      "hit": false,
      "t": 120977.58062500547,
      "d": 95.76593750002212,
      "v": 95
    },
    {
      "midi": 62,
      "hit": false,
      "t": 120987.66125000548,
      "d": 85.68531250001979,
      "v": 81
    },
    {
      "midi": 98,
      "hit": false,
      "t": 121088.4675000055,
      "d": 5.040312500001164,
      "v": 41
    },
    {
      "midi": 82,
      "hit": false,
      "t": 121088.4675000055,
      "d": 5.040312500001164,
      "v": 51
    },
    {
      "midi": 31,
      "hit": false,
      "t": 121093.5078125055,
      "d": 5.040312500001164,
      "v": 35
    },
    {
      "midi": 54,
      "hit": false,
      "t": 121108.6287500055,
      "d": 40.32249999999476,
      "v": 34
    },
    {
      "midi": 82,
      "hit": false,
      "t": 121209.4350000055,
      "d": 10.080625000002328,
      "v": 60
    },
    {
      "midi": 42,
      "hit": false,
      "t": 121209.4350000055,
      "d": 40.32250000000931,
      "v": 73
    },
    {
      "midi": 59,
      "hit": false,
      "t": 121209.4350000055,
      "d": 95.76593750000757,
      "v": 95
    },
    {
      "midi": 46,
      "hit": false,
      "t": 121214.4753125055,
      "d": 5.040312500001164,
      "v": 68
    },
    {
      "midi": 65,
      "hit": false,
      "t": 121219.5156250055,
      "d": 95.76593750000757,
      "v": 75
    },
    {
      "midi": 62,
      "hit": false,
      "t": 121224.5559375055,
      "d": 95.76593750000757,
      "v": 87
    },
    {
      "midi": 54,
      "hit": false,
      "t": 121229.5962500055,
      "d": 70.56437500000175,
      "v": 93
    },
    {
      "midi": 31,
      "hit": false,
      "t": 121330.40250000551,
      "d": 90.7256250000064,
      "v": 97
    },
    {
      "midi": 53,
      "hit": false,
      "t": 121330.40250000551,
      "d": 327.620312500032,
      "v": 90
    },
    {
      "midi": 98,
      "hit": false,
      "t": 121335.44281250551,
      "d": 10.080625000002328,
      "v": 45
    },
    {
      "midi": 82,
      "hit": false,
      "t": 121335.44281250551,
      "d": 10.080625000002328,
      "v": 58
    },
    {
      "midi": 54,
      "hit": false,
      "t": 121350.56375000552,
      "d": 40.32249999999476,
      "v": 31
    },
    {
      "midi": 98,
      "hit": false,
      "t": 121451.37000000553,
      "d": 10.080625000002328,
      "v": 84
    },
    {
      "midi": 82,
      "hit": false,
      "t": 121451.37000000553,
      "d": 10.080625000002328,
      "v": 108
    },
    {
      "midi": 40,
      "hit": false,
      "t": 121451.37000000553,
      "d": 65.52406250000058,
      "v": 91
    },
    {
      "midi": 59,
      "hit": false,
      "t": 121451.37000000553,
      "d": 95.76593750000757,
      "v": 70
    },
    {
      "midi": 35,
      "hit": false,
      "t": 121451.37000000553,
      "d": 216.73343750002095,
      "v": 102
    },
    {
      "midi": 50,
      "hit": false,
      "t": 121451.37000000553,
      "d": 433.4668750000419,
      "v": 104
    },
    {
      "midi": 67,
      "hit": false,
      "t": 121451.37000000553,
      "d": 433.4668750000419,
      "v": 104
    },
    {
      "midi": 44,
      "hit": false,
      "t": 121456.41031250553,
      "d": 5.040312500001164,
      "v": 42
    },
    {
      "midi": 65,
      "hit": false,
      "t": 121461.45062500553,
      "d": 95.76593750000757,
      "v": 95
    },
    {
      "midi": 62,
      "hit": false,
      "t": 121466.49093750553,
      "d": 95.76593750000757,
      "v": 79
    },
    {
      "midi": 39,
      "hit": false,
      "t": 121471.53125000553,
      "d": 70.56437500000175,
      "v": 76
    },
    {
      "midi": 40,
      "hit": false,
      "t": 121572.33750000554,
      "d": 5.040312500001164,
      "v": 68
    },
    {
      "midi": 98,
      "hit": false,
      "t": 121572.33750000554,
      "d": 5.040312500001164,
      "v": 35
    },
    {
      "midi": 82,
      "hit": false,
      "t": 121572.33750000554,
      "d": 5.040312500001164,
      "v": 43
    },
    {
      "midi": 59,
      "hit": false,
      "t": 121572.33750000554,
      "d": 95.76593750000757,
      "v": 95
    },
    {
      "midi": 65,
      "hit": false,
      "t": 121582.41812500554,
      "d": 95.76593750000757,
      "v": 75
    },
    {
      "midi": 62,
      "hit": false,
      "t": 121587.45843750554,
      "d": 90.7256250000064,
      "v": 87
    },
    {
      "midi": 54,
      "hit": false,
      "t": 121592.49875000554,
      "d": 40.32249999999476,
      "v": 39
    },
    {
      "midi": 47,
      "hit": false,
      "t": 121693.30500000555,
      "d": 5.040312500001164,
      "v": 82
    },
    {
      "midi": 82,
      "hit": false,
      "t": 121693.30500000555,
      "d": 10.080625000002328,
      "v": 66
    },
    {
      "midi": 54,
      "hit": false,
      "t": 121693.30500000555,
      "d": 85.68531250000524,
      "v": 50
    },
    {
      "midi": 38,
      "hit": false,
      "t": 121693.30500000555,
      "d": 141.1287500000035,
      "v": 97
    },
    {
      "midi": 45,
      "hit": false,
      "t": 121814.27250000555,
      "d": 5.040312500001164,
      "v": 78
    },
    {
      "midi": 53,
      "hit": false,
      "t": 121814.27250000555,
      "d": 15.120937500003492,
      "v": 77
    },
    {
      "midi": 98,
      "hit": false,
      "t": 121819.31281250555,
      "d": 10.080625000002328,
      "v": 49
    },
    {
      "midi": 82,
      "hit": false,
      "t": 121819.31281250555,
      "d": 10.080625000002328,
      "v": 64
    },
    {
      "midi": 59,
      "hit": false,
      "t": 121824.35312500555,
      "d": 15.120937500003492,
      "v": 69
    },
    {
      "midi": 62,
      "hit": false,
      "t": 121834.43375000556,
      "d": 20.161250000004657,
      "v": 73
    },
    {
      "midi": 54,
      "hit": false,
      "t": 121834.43375000556,
      "d": 40.32250000000931,
      "v": 40
    },
    {
      "midi": 49,
      "hit": false,
      "t": 121930.19968750556,
      "d": 5.040312500001164,
      "v": 79
    },
    {
      "midi": 98,
      "hit": false,
      "t": 121935.24000000556,
      "d": 10.080625000002328,
      "v": 78
    },
    {
      "midi": 82,
      "hit": false,
      "t": 121935.24000000556,
      "d": 10.080625000002328,
      "v": 102
    },
    {
      "midi": 42,
      "hit": false,
      "t": 121935.24000000556,
      "d": 45.362812499995925,
      "v": 95
    },
    {
      "midi": 55,
      "hit": false,
      "t": 121935.24000000556,
      "d": 50.40312499999709,
      "v": 58
    },
    {
      "midi": 60,
      "hit": false,
      "t": 121935.24000000556,
      "d": 60.48374999999942,
      "v": 53
    },
    {
      "midi": 35,
      "hit": false,
      "t": 121935.24000000556,
      "d": 105.8465625000099,
      "v": 87
    },
    {
      "midi": 52,
      "hit": false,
      "t": 121935.24000000556,
      "d": 241.93500000001222,
      "v": 104
    },
    {
      "midi": 48,
      "hit": false,
      "t": 121935.24000000556,
      "d": 241.93500000001222,
      "v": 104
    },
    {
      "midi": 36,
      "hit": false,
      "t": 121935.24000000556,
      "d": 307.45906250002736,
      "v": 105
    },
    {
      "midi": 71,
      "hit": false,
      "t": 121935.24000000556,
      "d": 322.58000000003085,
      "v": 47
    },
    {
      "midi": 67,
      "hit": false,
      "t": 121935.24000000556,
      "d": 1935.4800000002142,
      "v": 47
    },
    {
      "midi": 59,
      "hit": false,
      "t": 121940.28031250557,
      "d": 40.32249999999476,
      "v": 54
    },
    {
      "midi": 64,
      "hit": false,
      "t": 121945.32062500557,
      "d": 65.52406250000058,
      "v": 54
    },
    {
      "midi": 98,
      "hit": false,
      "t": 122056.20750000558,
      "d": 5.040312500001164,
      "v": 41
    },
    {
      "midi": 82,
      "hit": false,
      "t": 122056.20750000558,
      "d": 5.040312500001164,
      "v": 51
    },
    {
      "midi": 55,
      "hit": false,
      "t": 122056.20750000558,
      "d": 10.080625000002328,
      "v": 56
    },
    {
      "midi": 59,
      "hit": false,
      "t": 122061.24781250558,
      "d": 10.080625000002328,
      "v": 54
    },
    {
      "midi": 64,
      "hit": false,
      "t": 122066.28812500558,
      "d": 70.56437500000175,
      "v": 56
    },
    {
      "midi": 54,
      "hit": false,
      "t": 122076.36875000558,
      "d": 40.32249999999476,
      "v": 34
    },
    {
      "midi": 82,
      "hit": false,
      "t": 122177.17500000558,
      "d": 10.080625000002328,
      "v": 60
    },
    {
      "midi": 42,
      "hit": false,
      "t": 122177.17500000558,
      "d": 40.32250000000931,
      "v": 82
    },
    {
      "midi": 54,
      "hit": false,
      "t": 122177.17500000558,
      "d": 70.5643750000163,
      "v": 94
    },
    {
      "midi": 55,
      "hit": false,
      "t": 122298.14250000559,
      "d": 5.040312500001164,
      "v": 22
    },
    {
      "midi": 60,
      "hit": false,
      "t": 122298.14250000559,
      "d": 5.040312500001164,
      "v": 35
    },
    {
      "midi": 36,
      "hit": false,
      "t": 122298.14250000559,
      "d": 90.72562500002095,
      "v": 102
    },
    {
      "midi": 71,
      "hit": false,
      "t": 122298.14250000559,
      "d": 322.58000000003085,
      "v": 104
    },
    {
      "midi": 98,
      "hit": false,
      "t": 122303.18281250559,
      "d": 10.080625000002328,
      "v": 45
    },
    {
      "midi": 82,
      "hit": false,
      "t": 122303.18281250559,
      "d": 10.080625000002328,
      "v": 58
    },
    {
      "midi": 59,
      "hit": false,
      "t": 122303.18281250559,
      "d": 45.36281250001048,
      "v": 29
    },
    {
      "midi": 64,
      "hit": false,
      "t": 122308.22312500559,
      "d": 50.40312500001164,
      "v": 26
    },
    {
      "midi": 54,
      "hit": false,
      "t": 122318.3037500056,
      "d": 40.32250000000931,
      "v": 40
    },
    {
      "midi": 98,
      "hit": false,
      "t": 122419.11000000562,
      "d": 10.080625000002328,
      "v": 84
    },
    {
      "midi": 82,
      "hit": false,
      "t": 122419.11000000562,
      "d": 10.080625000002328,
      "v": 108
    },
    {
      "midi": 55,
      "hit": false,
      "t": 122419.11000000562,
      "d": 25.20156250000582,
      "v": 67
    },
    {
      "midi": 42,
      "hit": false,
      "t": 122419.11000000562,
      "d": 65.52406250000058,
      "v": 98
    },
    {
      "midi": 40,
      "hit": false,
      "t": 122419.11000000562,
      "d": 70.56437500000175,
      "v": 94
    },
    {
      "midi": 60,
      "hit": false,
      "t": 122419.11000000562,
      "d": 70.56437500000175,
      "v": 61
    },
    {
      "midi": 31,
      "hit": false,
      "t": 122419.11000000562,
      "d": 297.3784375000105,
      "v": 105
    },
    {
      "midi": 59,
      "hit": false,
      "t": 122424.15031250562,
      "d": 10.080625000002328,
      "v": 49
    },
    {
      "midi": 64,
      "hit": false,
      "t": 122429.19062500562,
      "d": 10.080625000002328,
      "v": 54
    },
    {
      "midi": 98,
      "hit": false,
      "t": 122540.07750000562,
      "d": 5.040312500001164,
      "v": 35
    },
    {
      "midi": 82,
      "hit": false,
      "t": 122540.07750000562,
      "d": 5.040312500001164,
      "v": 43
    },
    {
      "midi": 54,
      "hit": false,
      "t": 122560.23875000562,
      "d": 40.32249999999476,
      "v": 39
    },
    {
      "midi": 55,
      "hit": false,
      "t": 122661.04500000562,
      "d": 5.040312500001164,
      "v": 22
    },
    {
      "midi": 82,
      "hit": false,
      "t": 122661.04500000562,
      "d": 10.080625000002328,
      "v": 66
    },
    {
      "midi": 42,
      "hit": false,
      "t": 122661.04500000562,
      "d": 40.32250000000931,
      "v": 82
    },
    {
      "midi": 54,
      "hit": false,
      "t": 122661.04500000562,
      "d": 85.68531250001979,
      "v": 47
    },
    {
      "midi": 52,
      "hit": false,
      "t": 122661.04500000562,
      "d": 216.73343750002095,
      "v": 104
    },
    {
      "midi": 48,
      "hit": false,
      "t": 122661.04500000562,
      "d": 216.73343750002095,
      "v": 104
    },
    {
      "midi": 71,
      "hit": false,
      "t": 122661.04500000562,
      "d": 216.73343750002095,
      "v": 104
    },
    {
      "midi": 59,
      "hit": false,
      "t": 122666.08531250562,
      "d": 55.443437500012806,
      "v": 22
    },
    {
      "midi": 64,
      "hit": false,
      "t": 122671.12562500562,
      "d": 50.40312500001164,
      "v": 22
    },
    {
      "midi": 55,
      "hit": false,
      "t": 122782.01250000563,
      "d": 65.52406250000058,
      "v": 65
    },
    {
      "midi": 60,
      "hit": false,
      "t": 122782.01250000563,
      "d": 80.64500000000407,
      "v": 66
    },
    {
      "midi": 31,
      "hit": false,
      "t": 122787.05281250563,
      "d": 5.040312500001164,
      "v": 35
    },
    {
      "midi": 98,
      "hit": false,
      "t": 122787.05281250563,
      "d": 10.080625000002328,
      "v": 49
    },
    {
      "midi": 82,
      "hit": false,
      "t": 122787.05281250563,
      "d": 10.080625000002328,
      "v": 64
    },
    {
      "midi": 59,
      "hit": false,
      "t": 122787.05281250563,
      "d": 65.52406250000058,
      "v": 67
    },
    {
      "midi": 64,
      "hit": false,
      "t": 122792.09312500563,
      "d": 80.64500000000407,
      "v": 55
    },
    {
      "midi": 54,
      "hit": false,
      "t": 122802.17375000563,
      "d": 40.32249999999476,
      "v": 39
    },
    {
      "midi": 98,
      "hit": false,
      "t": 122902.98000000564,
      "d": 10.080625000002328,
      "v": 78
    },
    {
      "midi": 82,
      "hit": false,
      "t": 122902.98000000564,
      "d": 10.080625000002328,
      "v": 102
    },
    {
      "midi": 55,
      "hit": false,
      "t": 122902.98000000564,
      "d": 10.080625000002328,
      "v": 54
    },
    {
      "midi": 42,
      "hit": false,
      "t": 122902.98000000564,
      "d": 60.48374999999942,
      "v": 98
    },
    {
      "midi": 35,
      "hit": false,
      "t": 122902.98000000564,
      "d": 90.7256250000064,
      "v": 86
    },
    {
      "midi": 36,
      "hit": false,
      "t": 122902.98000000564,
      "d": 211.69312500003434,
      "v": 105
    },
    {
      "midi": 71,
      "hit": false,
      "t": 122902.98000000564,
      "d": 322.58000000005995,
      "v": 104
    },
    {
      "midi": 59,
      "hit": false,
      "t": 122908.02031250564,
      "d": 10.080625000002328,
      "v": 41
    },
    {
      "midi": 64,
      "hit": false,
      "t": 122913.06062500564,
      "d": 10.080625000002328,
      "v": 49
    },
    {
      "midi": 31,
      "hit": false,
      "t": 123023.94750000566,
      "d": 5.040312500001164,
      "v": 30
    },
    {
      "midi": 98,
      "hit": false,
      "t": 123023.94750000566,
      "d": 5.040312500001164,
      "v": 41
    },
    {
      "midi": 82,
      "hit": false,
      "t": 123023.94750000566,
      "d": 5.040312500001164,
      "v": 51
    },
    {
      "midi": 59,
      "hit": false,
      "t": 123023.94750000566,
      "d": 50.40312500001164,
      "v": 22
    },
    {
      "midi": 64,
      "hit": false,
      "t": 123028.98781250566,
      "d": 55.443437500012806,
      "v": 22
    },
    {
      "midi": 54,
      "hit": false,
      "t": 123044.10875000566,
      "d": 40.32250000000931,
      "v": 34
    },
    {
      "midi": 82,
      "hit": false,
      "t": 123144.91500000568,
      "d": 10.080625000002328,
      "v": 60
    },
    {
      "midi": 55,
      "hit": false,
      "t": 123144.91500000568,
      "d": 10.080625000002328,
      "v": 55
    },
    {
      "midi": 42,
      "hit": false,
      "t": 123144.91500000568,
      "d": 40.32250000000931,
      "v": 73
    },
    {
      "midi": 60,
      "hit": false,
      "t": 123144.91500000568,
      "d": 70.5643750000163,
      "v": 61
    },
    {
      "midi": 36,
      "hit": false,
      "t": 123144.91500000568,
      "d": 206.65281250003318,
      "v": 105
    },
    {
      "midi": 59,
      "hit": false,
      "t": 123149.95531250568,
      "d": 10.080625000002328,
      "v": 55
    },
    {
      "midi": 64,
      "hit": false,
      "t": 123154.99562500569,
      "d": 25.20156250000582,
      "v": 55
    },
    {
      "midi": 54,
      "hit": false,
      "t": 123165.07625000569,
      "d": 70.5643750000163,
      "v": 93
    },
    {
      "midi": 71,
      "hit": false,
      "t": 123265.88250000571,
      "d": 322.5800000000454,
      "v": 104
    },
    {
      "midi": 98,
      "hit": false,
      "t": 123270.92281250571,
      "d": 10.080625000002328,
      "v": 45
    },
    {
      "midi": 82,
      "hit": false,
      "t": 123270.92281250571,
      "d": 10.080625000002328,
      "v": 58
    },
    {
      "midi": 54,
      "hit": false,
      "t": 123286.04375000572,
      "d": 40.32249999999476,
      "v": 31
    },
    {
      "midi": 98,
      "hit": false,
      "t": 123386.85000000571,
      "d": 10.080625000002328,
      "v": 84
    },
    {
      "midi": 82,
      "hit": false,
      "t": 123386.85000000571,
      "d": 10.080625000002328,
      "v": 108
    },
    {
      "midi": 60,
      "hit": false,
      "t": 123386.85000000571,
      "d": 45.36281250001048,
      "v": 51
    },
    {
      "midi": 55,
      "hit": false,
      "t": 123386.85000000571,
      "d": 50.40312500001164,
      "v": 54
    },
    {
      "midi": 42,
      "hit": false,
      "t": 123386.85000000571,
      "d": 65.52406250001513,
      "v": 98
    },
    {
      "midi": 40,
      "hit": false,
      "t": 123386.85000000571,
      "d": 65.52406250001513,
      "v": 91
    },
    {
      "midi": 28,
      "hit": false,
      "t": 123386.85000000571,
      "d": 191.53187500004424,
      "v": 102
    },
    {
      "midi": 59,
      "hit": false,
      "t": 123391.89031250571,
      "d": 45.36281250001048,
      "v": 49
    },
    {
      "midi": 64,
      "hit": false,
      "t": 123396.93062500571,
      "d": 70.5643750000163,
      "v": 56
    },
    {
      "midi": 39,
      "hit": false,
      "t": 123407.01125000571,
      "d": 70.5643750000163,
      "v": 76
    },
    {
      "midi": 98,
      "hit": false,
      "t": 123507.81750000574,
      "d": 5.040312500001164,
      "v": 35
    },
    {
      "midi": 82,
      "hit": false,
      "t": 123507.81750000574,
      "d": 5.040312500001164,
      "v": 43
    },
    {
      "midi": 55,
      "hit": false,
      "t": 123507.81750000574,
      "d": 45.36281250001048,
      "v": 23
    },
    {
      "midi": 60,
      "hit": false,
      "t": 123507.81750000574,
      "d": 45.36281250001048,
      "v": 42
    },
    {
      "midi": 59,
      "hit": false,
      "t": 123512.85781250574,
      "d": 50.40312500001164,
      "v": 47
    },
    {
      "midi": 64,
      "hit": false,
      "t": 123517.89812500574,
      "d": 45.36281250001048,
      "v": 38
    },
    {
      "midi": 54,
      "hit": false,
      "t": 123527.97875000574,
      "d": 40.32250000000931,
      "v": 39
    },
    {
      "midi": 82,
      "hit": false,
      "t": 123628.78500000577,
      "d": 10.080625000002328,
      "v": 66
    },
    {
      "midi": 42,
      "hit": false,
      "t": 123628.78500000577,
      "d": 60.48374999999942,
      "v": 82
    },
    {
      "midi": 54,
      "hit": false,
      "t": 123628.78500000577,
      "d": 85.68531250000524,
      "v": 50
    },
    {
      "midi": 31,
      "hit": false,
      "t": 123628.78500000577,
      "d": 161.29000000000815,
      "v": 105
    },
    {
      "midi": 71,
      "hit": false,
      "t": 123628.78500000577,
      "d": 216.7334375000064,
      "v": 104
    },
    {
      "midi": 55,
      "hit": false,
      "t": 123749.75250000576,
      "d": 10.080625000002328,
      "v": 51
    },
    {
      "midi": 59,
      "hit": false,
      "t": 123754.79281250577,
      "d": 5.040312500001164,
      "v": 49
    },
    {
      "midi": 98,
      "hit": false,
      "t": 123754.79281250577,
      "d": 10.080625000002328,
      "v": 49
    },
    {
      "midi": 82,
      "hit": false,
      "t": 123754.79281250577,
      "d": 10.080625000002328,
      "v": 64
    },
    {
      "midi": 64,
      "hit": false,
      "t": 123759.83312500577,
      "d": 10.080625000002328,
      "v": 54
    },
    {
      "midi": 54,
      "hit": false,
      "t": 123769.91375000577,
      "d": 40.32250000000931,
      "v": 40
    },
    {
      "midi": 98,
      "hit": false,
      "t": 123870.72000000578,
      "d": 10.080625000002328,
      "v": 78
    },
    {
      "midi": 82,
      "hit": false,
      "t": 123870.72000000578,
      "d": 10.080625000002328,
      "v": 102
    },
    {
      "midi": 55,
      "hit": false,
      "t": 123870.72000000578,
      "d": 65.52406250000058,
      "v": 65
    },
    {
      "midi": 42,
      "hit": false,
      "t": 123870.72000000578,
      "d": 75.60468750000291,
      "v": 98
    },
    {
      "midi": 35,
      "hit": false,
      "t": 123870.72000000578,
      "d": 90.7256250000064,
      "v": 79
    },
    {
      "midi": 51,
      "hit": false,
      "t": 123870.72000000578,
      "d": 241.93500000001222,
      "v": 104
    },
    {
      "midi": 47,
      "hit": false,
      "t": 123870.72000000578,
      "d": 241.93500000001222,
      "v": 104
    },
    {
      "midi": 71,
      "hit": false,
      "t": 123870.72000000578,
      "d": 322.5800000000163,
      "v": 47
    },
    {
      "midi": 59,
      "hit": false,
      "t": 123875.76031250578,
      "d": 60.48374999999942,
      "v": 60
    },
    {
      "midi": 63,
      "hit": false,
      "t": 123880.80062500578,
      "d": 70.56437500000175,
      "v": 60
    },
    {
      "midi": 98,
      "hit": false,
      "t": 123991.68750000579,
      "d": 5.040312500001164,
      "v": 41
    },
    {
      "midi": 82,
      "hit": false,
      "t": 123991.68750000579,
      "d": 5.040312500001164,
      "v": 51
    },
    {
      "midi": 55,
      "hit": false,
      "t": 123991.68750000579,
      "d": 10.080625000002328,
      "v": 51
    },
    {
      "midi": 59,
      "hit": false,
      "t": 123996.7278125058,
      "d": 5.040312500001164,
      "v": 41
    },
    {
      "midi": 63,
      "hit": false,
      "t": 124001.7681250058,
      "d": 10.080625000002328,
      "v": 57
    },
    {
      "midi": 54,
      "hit": false,
      "t": 124011.8487500058,
      "d": 40.32249999999476,
      "v": 34
    },
    {
      "midi": 82,
      "hit": false,
      "t": 124112.65500000579,
      "d": 10.080625000002328,
      "v": 60
    },
    {
      "midi": 42,
      "hit": false,
      "t": 124112.65500000579,
      "d": 45.362812499995925,
      "v": 82
    },
    {
      "midi": 54,
      "hit": false,
      "t": 124112.65500000579,
      "d": 70.56437500000175,
      "v": 94
    },
    {
      "midi": 55,
      "hit": false,
      "t": 124233.6225000058,
      "d": 50.40312500001164,
      "v": 22
    },
    {
      "midi": 71,
      "hit": false,
      "t": 124233.6225000058,
      "d": 322.5800000000163,
      "v": 104
    },
    {
      "midi": 98,
      "hit": false,
      "t": 124238.6628125058,
      "d": 10.080625000002328,
      "v": 45
    },
    {
      "midi": 82,
      "hit": false,
      "t": 124238.6628125058,
      "d": 10.080625000002328,
      "v": 58
    },
    {
      "midi": 59,
      "hit": false,
      "t": 124238.6628125058,
      "d": 50.40312500001164,
      "v": 22
    },
    {
      "midi": 63,
      "hit": false,
      "t": 124243.7031250058,
      "d": 50.40312500001164,
      "v": 25
    },
    {
      "midi": 54,
      "hit": false,
      "t": 124253.78375000581,
      "d": 40.32250000000931,
      "v": 40
    },
    {
      "midi": 31,
      "hit": false,
      "t": 124349.54968750582,
      "d": 357.86218749999534,
      "v": 105
    },
    {
      "midi": 98,
      "hit": false,
      "t": 124354.59000000582,
      "d": 10.080625000002328,
      "v": 84
    },
    {
      "midi": 82,
      "hit": false,
      "t": 124354.59000000582,
      "d": 10.080625000002328,
      "v": 108
    },
    {
      "midi": 55,
      "hit": false,
      "t": 124354.59000000582,
      "d": 10.080625000002328,
      "v": 49
    },
    {
      "midi": 40,
      "hit": false,
      "t": 124354.59000000582,
      "d": 65.52406250000058,
      "v": 91
    },
    {
      "midi": 42,
      "hit": false,
      "t": 124354.59000000582,
      "d": 70.56437500000175,
      "v": 98
    },
    {
      "midi": 59,
      "hit": false,
      "t": 124359.63031250582,
      "d": 10.080625000002328,
      "v": 56
    },
    {
      "midi": 63,
      "hit": false,
      "t": 124364.67062500582,
      "d": 10.080625000002328,
      "v": 54
    },
    {
      "midi": 98,
      "hit": false,
      "t": 124475.55750000582,
      "d": 5.040312500001164,
      "v": 35
    },
    {
      "midi": 82,
      "hit": false,
      "t": 124475.55750000582,
      "d": 5.040312500001164,
      "v": 43
    },
    {
      "midi": 54,
      "hit": false,
      "t": 124495.71875000582,
      "d": 40.32249999999476,
      "v": 39
    },
    {
      "midi": 82,
      "hit": false,
      "t": 124596.52500000581,
      "d": 10.080625000002328,
      "v": 66
    },
    {
      "midi": 42,
      "hit": false,
      "t": 124596.52500000581,
      "d": 50.40312499999709,
      "v": 64
    },
    {
      "midi": 54,
      "hit": false,
      "t": 124596.52500000581,
      "d": 85.68531249999069,
      "v": 47
    },
    {
      "midi": 51,
      "hit": false,
      "t": 124596.52500000581,
      "d": 216.73343750002095,
      "v": 104
    },
    {
      "midi": 47,
      "hit": false,
      "t": 124596.52500000581,
      "d": 216.73343750002095,
      "v": 104
    },
    {
      "midi": 71,
      "hit": false,
      "t": 124596.52500000581,
      "d": 216.73343750002095,
      "v": 104
    },
    {
      "midi": 55,
      "hit": false,
      "t": 124717.49250000581,
      "d": 50.40312500001164,
      "v": 65
    },
    {
      "midi": 31,
      "hit": false,
      "t": 124722.53281250581,
      "d": 5.040312500001164,
      "v": 21
    },
    {
      "midi": 98,
      "hit": false,
      "t": 124722.53281250581,
      "d": 10.080625000002328,
      "v": 49
    },
    {
      "midi": 82,
      "hit": false,
      "t": 124722.53281250581,
      "d": 10.080625000002328,
      "v": 64
    },
    {
      "midi": 59,
      "hit": false,
      "t": 124722.53281250581,
      "d": 70.5643750000163,
      "v": 73
    },
    {
      "midi": 63,
      "hit": false,
      "t": 124727.57312500582,
      "d": 75.60468750001746,
      "v": 55
    },
    {
      "midi": 54,
      "hit": false,
      "t": 124737.65375000582,
      "d": 40.32250000000931,
      "v": 39
    },
    {
      "midi": 98,
      "hit": false,
      "t": 124838.46000000584,
      "d": 10.080625000002328,
      "v": 78
    },
    {
      "midi": 82,
      "hit": false,
      "t": 124838.46000000584,
      "d": 10.080625000002328,
      "v": 102
    },
    {
      "midi": 55,
      "hit": false,
      "t": 124838.46000000584,
      "d": 10.080625000002328,
      "v": 54
    },
    {
      "midi": 42,
      "hit": false,
      "t": 124838.46000000584,
      "d": 65.52406250000058,
      "v": 93
    },
    {
      "midi": 35,
      "hit": false,
      "t": 124838.46000000584,
      "d": 90.7256250000064,
      "v": 86
    },
    {
      "midi": 71,
      "hit": false,
      "t": 124838.46000000584,
      "d": 216.7334375000064,
      "v": 104
    },
    {
      "midi": 59,
      "hit": false,
      "t": 124843.50031250584,
      "d": 5.040312500001164,
      "v": 49
    },
    {
      "midi": 63,
      "hit": false,
      "t": 124848.54062500584,
      "d": 10.080625000002328,
      "v": 57
    },
    {
      "midi": 98,
      "hit": false,
      "t": 124959.42750000586,
      "d": 5.040312500001164,
      "v": 41
    },
    {
      "midi": 82,
      "hit": false,
      "t": 124959.42750000586,
      "d": 5.040312500001164,
      "v": 51
    },
    {
      "midi": 31,
      "hit": false,
      "t": 124964.46781250586,
      "d": 5.040312500001164,
      "v": 30
    },
    {
      "midi": 54,
      "hit": false,
      "t": 124979.58875000586,
      "d": 40.32249999999476,
      "v": 34
    },
    {
      "midi": 82,
      "hit": false,
      "t": 125080.39500000585,
      "d": 10.080625000002328,
      "v": 60
    },
    {
      "midi": 55,
      "hit": false,
      "t": 125080.39500000585,
      "d": 10.080625000002328,
      "v": 49
    },
    {
      "midi": 42,
      "hit": false,
      "t": 125080.39500000585,
      "d": 60.48375000001397,
      "v": 87
    },
    {
      "midi": 69,
      "hit": false,
      "t": 125080.39500000585,
      "d": 216.7334375000064,
      "v": 104
    },
    {
      "midi": 59,
      "hit": false,
      "t": 125085.43531250586,
      "d": 25.20156250000582,
      "v": 47
    },
    {
      "midi": 63,
      "hit": false,
      "t": 125090.47562500586,
      "d": 10.080625000002328,
      "v": 54
    },
    {
      "midi": 54,
      "hit": false,
      "t": 125100.55625000586,
      "d": 70.5643750000163,
      "v": 93
    },
    {
      "midi": 98,
      "hit": false,
      "t": 125206.40281250587,
      "d": 10.080625000002328,
      "v": 45
    },
    {
      "midi": 82,
      "hit": false,
      "t": 125206.40281250587,
      "d": 10.080625000002328,
      "v": 58
    },
    {
      "midi": 54,
      "hit": false,
      "t": 125221.52375000587,
      "d": 40.32249999999476,
      "v": 31
    },
    {
      "midi": 98,
      "hit": false,
      "t": 125322.33000000587,
      "d": 10.080625000002328,
      "v": 84
    },
    {
      "midi": 82,
      "hit": false,
      "t": 125322.33000000587,
      "d": 10.080625000002328,
      "v": 108
    },
    {
      "midi": 40,
      "hit": false,
      "t": 125322.33000000587,
      "d": 65.52406250000058,
      "v": 94
    },
    {
      "midi": 55,
      "hit": false,
      "t": 125322.33000000587,
      "d": 65.52406250000058,
      "v": 57
    },
    {
      "midi": 42,
      "hit": false,
      "t": 125322.33000000587,
      "d": 80.64500000000407,
      "v": 93
    },
    {
      "midi": 67,
      "hit": false,
      "t": 125322.33000000587,
      "d": 216.7334375000355,
      "v": 104
    },
    {
      "midi": 59,
      "hit": false,
      "t": 125327.37031250587,
      "d": 70.56437500000175,
      "v": 59
    },
    {
      "midi": 63,
      "hit": false,
      "t": 125332.41062500587,
      "d": 70.56437500000175,
      "v": 59
    },
    {
      "midi": 39,
      "hit": false,
      "t": 125342.49125000587,
      "d": 70.56437500000175,
      "v": 76
    },
    {
      "midi": 98,
      "hit": false,
      "t": 125443.29750000588,
      "d": 5.040312500001164,
      "v": 35
    },
    {
      "midi": 82,
      "hit": false,
      "t": 125443.29750000588,
      "d": 5.040312500001164,
      "v": 43
    },
    {
      "midi": 55,
      "hit": false,
      "t": 125443.29750000588,
      "d": 40.32250000000931,
      "v": 44
    },
    {
      "midi": 59,
      "hit": false,
      "t": 125448.33781250588,
      "d": 55.443437500012806,
      "v": 38
    },
    {
      "midi": 63,
      "hit": false,
      "t": 125453.37812500588,
      "d": 60.48375000001397,
      "v": 45
    },
    {
      "midi": 54,
      "hit": false,
      "t": 125463.45875000588,
      "d": 40.32250000000931,
      "v": 39
    },
    {
      "midi": 82,
      "hit": false,
      "t": 125564.26500000591,
      "d": 10.080625000002328,
      "v": 66
    },
    {
      "midi": 42,
      "hit": false,
      "t": 125564.26500000591,
      "d": 55.443437499998254,
      "v": 82
    },
    {
      "midi": 54,
      "hit": false,
      "t": 125564.26500000591,
      "d": 85.68531250000524,
      "v": 50
    },
    {
      "midi": 31,
      "hit": false,
      "t": 125564.26500000591,
      "d": 161.29000000000815,
      "v": 102
    },
    {
      "midi": 71,
      "hit": false,
      "t": 125564.26500000591,
      "d": 216.7334375000064,
      "v": 104
    },
    {
      "midi": 55,
      "hit": false,
      "t": 125685.2325000059,
      "d": 10.080625000002328,
      "v": 47
    },
    {
      "midi": 29,
      "hit": false,
      "t": 125685.2325000059,
      "d": 95.76593750000757,
      "v": 45
    },
    {
      "midi": 59,
      "hit": false,
      "t": 125690.27281250591,
      "d": 5.040312500001164,
      "v": 45
    },
    {
      "midi": 98,
      "hit": false,
      "t": 125690.27281250591,
      "d": 10.080625000002328,
      "v": 49
    },
    {
      "midi": 82,
      "hit": false,
      "t": 125690.27281250591,
      "d": 10.080625000002328,
      "v": 64
    },
    {
      "midi": 63,
      "hit": false,
      "t": 125695.31312500591,
      "d": 10.080625000002328,
      "v": 47
    },
    {
      "midi": 54,
      "hit": false,
      "t": 125705.39375000591,
      "d": 40.32250000000931,
      "v": 40
    },
    {
      "midi": 98,
      "hit": false,
      "t": 125806.20000000592,
      "d": 10.080625000002328,
      "v": 78
    },
    {
      "midi": 82,
      "hit": false,
      "t": 125806.20000000592,
      "d": 10.080625000002328,
      "v": 102
    },
    {
      "midi": 54,
      "hit": false,
      "t": 125806.20000000592,
      "d": 60.48374999999942,
      "v": 60
    },
    {
      "midi": 42,
      "hit": false,
      "t": 125806.20000000592,
      "d": 70.56437500000175,
      "v": 95
    },
    {
      "midi": 59,
      "hit": false,
      "t": 125806.20000000592,
      "d": 70.56437500000175,
      "v": 66
    },
    {
      "midi": 35,
      "hit": false,
      "t": 125806.20000000592,
      "d": 90.7256250000064,
      "v": 87
    },
    {
      "midi": 52,
      "hit": false,
      "t": 125806.20000000592,
      "d": 241.93500000001222,
      "v": 104
    },
    {
      "midi": 69,
      "hit": false,
      "t": 125806.20000000592,
      "d": 322.5800000000163,
      "v": 104
    },
    {
      "midi": 28,
      "hit": false,
      "t": 125806.20000000592,
      "d": 372.9831250000134,
      "v": 102
    },
    {
      "midi": 57,
      "hit": false,
      "t": 125811.24031250592,
      "d": 65.52406250000058,
      "v": 67
    },
    {
      "midi": 62,
      "hit": false,
      "t": 125816.28062500592,
      "d": 65.52406250000058,
      "v": 60
    },
    {
      "midi": 98,
      "hit": false,
      "t": 125927.16750000593,
      "d": 5.040312500001164,
      "v": 41
    },
    {
      "midi": 82,
      "hit": false,
      "t": 125927.16750000593,
      "d": 5.040312500001164,
      "v": 51
    },
    {
      "midi": 54,
      "hit": false,
      "t": 125927.16750000593,
      "d": 10.080625000002328,
      "v": 41
    },
    {
      "midi": 57,
      "hit": false,
      "t": 125932.20781250593,
      "d": 5.040312500001164,
      "v": 55
    },
    {
      "midi": 62,
      "hit": false,
      "t": 125937.24812500594,
      "d": 10.080625000002328,
      "v": 56
    },
    {
      "midi": 54,
      "hit": false,
      "t": 125947.32875000594,
      "d": 40.32249999999476,
      "v": 34
    },
    {
      "midi": 82,
      "hit": false,
      "t": 126048.13500000593,
      "d": 10.080625000002328,
      "v": 60
    },
    {
      "midi": 42,
      "hit": false,
      "t": 126048.13500000593,
      "d": 55.443437499998254,
      "v": 82
    },
    {
      "midi": 54,
      "hit": false,
      "t": 126048.13500000593,
      "d": 70.56437500000175,
      "v": 94
    },
    {
      "midi": 98,
      "hit": false,
      "t": 126174.14281250593,
      "d": 10.080625000002328,
      "v": 45
    },
    {
      "midi": 82,
      "hit": false,
      "t": 126174.14281250593,
      "d": 10.080625000002328,
      "v": 58
    },
    {
      "midi": 57,
      "hit": false,
      "t": 126174.14281250593,
      "d": 35.28218750000815,
      "v": 32
    },
    {
      "midi": 62,
      "hit": false,
      "t": 126179.18312500593,
      "d": 40.32250000000931,
      "v": 26
    },
    {
      "midi": 54,
      "hit": false,
      "t": 126189.26375000594,
      "d": 25.20156250000582,
      "v": 40
    },
    {
      "midi": 98,
      "hit": false,
      "t": 126290.07000000594,
      "d": 10.080625000002328,
      "v": 84
    },
    {
      "midi": 82,
      "hit": false,
      "t": 126290.07000000594,
      "d": 10.080625000002328,
      "v": 108
    },
    {
      "midi": 54,
      "hit": false,
      "t": 126290.07000000594,
      "d": 10.080625000002328,
      "v": 54
    },
    {
      "midi": 42,
      "hit": false,
      "t": 126290.07000000594,
      "d": 75.60468750000291,
      "v": 93
    },
    {
      "midi": 40,
      "hit": false,
      "t": 126290.07000000594,
      "d": 75.60468750000291,
      "v": 94
    },
    {
      "midi": 59,
      "hit": false,
      "t": 126290.07000000594,
      "d": 85.68531250000524,
      "v": 60
    },
    {
      "midi": 57,
      "hit": false,
      "t": 126295.11031250595,
      "d": 5.040312500001164,
      "v": 49
    },
    {
      "midi": 62,
      "hit": false,
      "t": 126300.15062500595,
      "d": 10.080625000002328,
      "v": 49
    },
    {
      "midi": 98,
      "hit": false,
      "t": 126411.03750000596,
      "d": 5.040312500001164,
      "v": 35
    },
    {
      "midi": 82,
      "hit": false,
      "t": 126411.03750000596,
      "d": 5.040312500001164,
      "v": 43
    },
    {
      "midi": 54,
      "hit": false,
      "t": 126431.19875000596,
      "d": 40.32249999999476,
      "v": 39
    },
    {
      "midi": 82,
      "hit": false,
      "t": 126532.00500000596,
      "d": 10.080625000002328,
      "v": 66
    },
    {
      "midi": 54,
      "hit": false,
      "t": 126532.00500000596,
      "d": 40.32250000000931,
      "v": 47
    },
    {
      "midi": 42,
      "hit": false,
      "t": 126532.00500000596,
      "d": 50.40312500001164,
      "v": 73
    },
    {
      "midi": 52,
      "hit": false,
      "t": 126532.00500000596,
      "d": 216.7334375000355,
      "v": 104
    },
    {
      "midi": 69,
      "hit": false,
      "t": 126532.00500000596,
      "d": 433.4668750000419,
      "v": 104
    },
    {
      "midi": 57,
      "hit": false,
      "t": 126537.04531250596,
      "d": 40.32250000000931,
      "v": 26
    },
    {
      "midi": 62,
      "hit": false,
      "t": 126542.08562500596,
      "d": 45.36281250001048,
      "v": 22
    },
    {
      "midi": 59,
      "hit": false,
      "t": 126652.97250000597,
      "d": 85.68531250001979,
      "v": 61
    },
    {
      "midi": 98,
      "hit": false,
      "t": 126658.01281250597,
      "d": 10.080625000002328,
      "v": 49
    },
    {
      "midi": 82,
      "hit": false,
      "t": 126658.01281250597,
      "d": 10.080625000002328,
      "v": 64
    },
    {
      "midi": 57,
      "hit": false,
      "t": 126658.01281250597,
      "d": 85.68531250001979,
      "v": 58
    },
    {
      "midi": 62,
      "hit": false,
      "t": 126663.05312500597,
      "d": 85.68531250001979,
      "v": 68
    },
    {
      "midi": 54,
      "hit": false,
      "t": 126673.13375000597,
      "d": 40.32250000000931,
      "v": 39
    },
    {
      "midi": 98,
      "hit": false,
      "t": 126773.940000006,
      "d": 10.080625000002328,
      "v": 78
    },
    {
      "midi": 82,
      "hit": false,
      "t": 126773.940000006,
      "d": 10.080625000002328,
      "v": 102
    },
    {
      "midi": 54,
      "hit": false,
      "t": 126773.940000006,
      "d": 10.080625000002328,
      "v": 41
    },
    {
      "midi": 42,
      "hit": false,
      "t": 126773.940000006,
      "d": 55.443437499998254,
      "v": 87
    },
    {
      "midi": 35,
      "hit": false,
      "t": 126773.940000006,
      "d": 95.76593749999302,
      "v": 87
    },
    {
      "midi": 28,
      "hit": false,
      "t": 126773.940000006,
      "d": 357.86218750002445,
      "v": 105
    },
    {
      "midi": 57,
      "hit": false,
      "t": 126778.980312506,
      "d": 5.040312500001164,
      "v": 47
    },
    {
      "midi": 62,
      "hit": false,
      "t": 126784.020625006,
      "d": 10.080625000002328,
      "v": 54
    },
    {
      "midi": 98,
      "hit": false,
      "t": 126894.907500006,
      "d": 5.040312500001164,
      "v": 41
    },
    {
      "midi": 82,
      "hit": false,
      "t": 126894.907500006,
      "d": 5.040312500001164,
      "v": 51
    },
    {
      "midi": 54,
      "hit": false,
      "t": 126915.068750006,
      "d": 40.32249999999476,
      "v": 34
    },
    {
      "midi": 82,
      "hit": false,
      "t": 127015.875000006,
      "d": 10.080625000002328,
      "v": 60
    },
    {
      "midi": 54,
      "hit": false,
      "t": 127015.875000006,
      "d": 10.080625000002328,
      "v": 55
    },
    {
      "midi": 42,
      "hit": false,
      "t": 127015.875000006,
      "d": 50.40312500001164,
      "v": 82
    },
    {
      "midi": 59,
      "hit": false,
      "t": 127015.875000006,
      "d": 50.40312500001164,
      "v": 61
    },
    {
      "midi": 71,
      "hit": false,
      "t": 127015.875000006,
      "d": 216.73343750002095,
      "v": 104
    },
    {
      "midi": 57,
      "hit": false,
      "t": 127020.915312506,
      "d": 10.080625000002328,
      "v": 49
    },
    {
      "midi": 62,
      "hit": false,
      "t": 127025.955625006,
      "d": 10.080625000002328,
      "v": 49
    },
    {
      "midi": 54,
      "hit": false,
      "t": 127036.036250006,
      "d": 20.161250000004657,
      "v": 93
    },
    {
      "midi": 98,
      "hit": false,
      "t": 127141.88281250602,
      "d": 10.080625000002328,
      "v": 45
    },
    {
      "midi": 82,
      "hit": false,
      "t": 127141.88281250602,
      "d": 10.080625000002328,
      "v": 58
    },
    {
      "midi": 54,
      "hit": false,
      "t": 127157.00375000603,
      "d": 40.32249999999476,
      "v": 31
    },
    {
      "midi": 28,
      "hit": false,
      "t": 127252.76968750602,
      "d": 171.37062500002503,
      "v": 102
    },
    {
      "midi": 98,
      "hit": false,
      "t": 127257.81000000602,
      "d": 10.080625000002328,
      "v": 84
    },
    {
      "midi": 82,
      "hit": false,
      "t": 127257.81000000602,
      "d": 10.080625000002328,
      "v": 108
    },
    {
      "midi": 54,
      "hit": false,
      "t": 127257.81000000602,
      "d": 55.443437499998254,
      "v": 59
    },
    {
      "midi": 42,
      "hit": false,
      "t": 127257.81000000602,
      "d": 60.48374999999942,
      "v": 87
    },
    {
      "midi": 40,
      "hit": false,
      "t": 127257.81000000602,
      "d": 60.48374999999942,
      "v": 94
    },
    {
      "midi": 59,
      "hit": false,
      "t": 127257.81000000602,
      "d": 85.68531250000524,
      "v": 60
    },
    {
      "midi": 69,
      "hit": false,
      "t": 127257.81000000602,
      "d": 216.7334375000355,
      "v": 104
    },
    {
      "midi": 57,
      "hit": false,
      "t": 127262.85031250602,
      "d": 65.52406250000058,
      "v": 58
    },
    {
      "midi": 62,
      "hit": false,
      "t": 127267.89062500602,
      "d": 60.48374999999942,
      "v": 58
    },
    {
      "midi": 39,
      "hit": false,
      "t": 127277.97125000603,
      "d": 70.56437500000175,
      "v": 76
    },
    {
      "midi": 98,
      "hit": false,
      "t": 127378.77750000604,
      "d": 5.040312500001164,
      "v": 35
    },
    {
      "midi": 82,
      "hit": false,
      "t": 127378.77750000604,
      "d": 5.040312500001164,
      "v": 43
    },
    {
      "midi": 59,
      "hit": false,
      "t": 127378.77750000604,
      "d": 45.36281250001048,
      "v": 38
    },
    {
      "midi": 57,
      "hit": false,
      "t": 127383.81781250604,
      "d": 65.52406250001513,
      "v": 38
    },
    {
      "midi": 62,
      "hit": false,
      "t": 127388.85812500604,
      "d": 75.60468750001746,
      "v": 38
    },
    {
      "midi": 54,
      "hit": false,
      "t": 127398.93875000604,
      "d": 40.32250000000931,
      "v": 39
    },
    {
      "midi": 40,
      "hit": false,
      "t": 127494.70468750606,
      "d": 196.57218750000175,
      "v": 97
    },
    {
      "midi": 82,
      "hit": false,
      "t": 127499.74500000606,
      "d": 10.080625000002328,
      "v": 66
    },
    {
      "midi": 42,
      "hit": false,
      "t": 127499.74500000606,
      "d": 50.40312499999709,
      "v": 75
    },
    {
      "midi": 54,
      "hit": false,
      "t": 127499.74500000606,
      "d": 85.68531249999069,
      "v": 50
    },
    {
      "midi": 68,
      "hit": false,
      "t": 127499.74500000606,
      "d": 216.7334375000064,
      "v": 104
    },
    {
      "midi": 54,
      "hit": false,
      "t": 127620.71250000605,
      "d": 10.080625000002328,
      "v": 49
    },
    {
      "midi": 98,
      "hit": false,
      "t": 127625.75281250605,
      "d": 10.080625000002328,
      "v": 49
    },
    {
      "midi": 82,
      "hit": false,
      "t": 127625.75281250605,
      "d": 10.080625000002328,
      "v": 64
    },
    {
      "midi": 57,
      "hit": false,
      "t": 127625.75281250605,
      "d": 25.20156250000582,
      "v": 54
    },
    {
      "midi": 62,
      "hit": false,
      "t": 127630.79312500605,
      "d": 10.080625000002328,
      "v": 57
    },
    {
      "midi": 54,
      "hit": false,
      "t": 127640.87375000605,
      "d": 40.32250000000931,
      "v": 40
    },
    {
      "midi": 98,
      "hit": false,
      "t": 127741.68000000608,
      "d": 10.080625000002328,
      "v": 78
    },
    {
      "midi": 82,
      "hit": false,
      "t": 127741.68000000608,
      "d": 10.080625000002328,
      "v": 102
    },
    {
      "midi": 42,
      "hit": false,
      "t": 127741.68000000608,
      "d": 45.36281250001048,
      "v": 95
    },
    {
      "midi": 35,
      "hit": false,
      "t": 127741.68000000608,
      "d": 105.8465625000099,
      "v": 87
    },
    {
      "midi": 56,
      "hit": false,
      "t": 127741.68000000608,
      "d": 115.92718750001222,
      "v": 93
    },
    {
      "midi": 52,
      "hit": false,
      "t": 127741.68000000608,
      "d": 241.93500000002678,
      "v": 104
    },
    {
      "midi": 28,
      "hit": false,
      "t": 127741.68000000608,
      "d": 307.4590625000419,
      "v": 105
    },
    {
      "midi": 68,
      "hit": false,
      "t": 127741.68000000608,
      "d": 866.9337500001275,
      "v": 47
    },
    {
      "midi": 71,
      "hit": false,
      "t": 127741.68000000608,
      "d": 1935.4800000002579,
      "v": 47
    },
    {
      "midi": 98,
      "hit": false,
      "t": 127862.64750000609,
      "d": 5.040312500001164,
      "v": 41
    },
    {
      "midi": 82,
      "hit": false,
      "t": 127862.64750000609,
      "d": 5.040312500001164,
      "v": 51
    },
    {
      "midi": 59,
      "hit": false,
      "t": 127862.64750000609,
      "d": 10.080625000002328,
      "v": 86
    },
    {
      "midi": 56,
      "hit": false,
      "t": 127862.64750000609,
      "d": 15.120937500003492,
      "v": 69
    },
    {
      "midi": 64,
      "hit": false,
      "t": 127877.76843750609,
      "d": 10.080625000002328,
      "v": 94
    },
    {
      "midi": 54,
      "hit": false,
      "t": 127882.8087500061,
      "d": 40.32250000000931,
      "v": 34
    },
    {
      "midi": 82,
      "hit": false,
      "t": 127983.6150000061,
      "d": 10.080625000002328,
      "v": 60
    },
    {
      "midi": 42,
      "hit": false,
      "t": 127983.6150000061,
      "d": 40.32250000000931,
      "v": 82
    },
    {
      "midi": 56,
      "hit": false,
      "t": 127983.6150000061,
      "d": 45.36281250001048,
      "v": 75
    },
    {
      "midi": 54,
      "hit": false,
      "t": 127983.6150000061,
      "d": 70.5643750000163,
      "v": 94
    },
    {
      "midi": 59,
      "hit": false,
      "t": 127993.6956250061,
      "d": 65.52406250001513,
      "v": 72
    },
    {
      "midi": 64,
      "hit": false,
      "t": 128003.7762500061,
      "d": 70.5643750000163,
      "v": 82
    },
    {
      "midi": 59,
      "hit": false,
      "t": 128104.58250000613,
      "d": 15.120937500003492,
      "v": 97
    },
    {
      "midi": 56,
      "hit": false,
      "t": 128104.58250000613,
      "d": 15.120937500003492,
      "v": 78
    },
    {
      "midi": 28,
      "hit": false,
      "t": 128104.58250000613,
      "d": 90.72562500002095,
      "v": 102
    },
    {
      "midi": 98,
      "hit": false,
      "t": 128109.62281250613,
      "d": 10.080625000002328,
      "v": 45
    },
    {
      "midi": 82,
      "hit": false,
      "t": 128109.62281250613,
      "d": 10.080625000002328,
      "v": 58
    },
    {
      "midi": 64,
      "hit": false,
      "t": 128119.70343750613,
      "d": 15.120937500003492,
      "v": 81
    },
    {
      "midi": 54,
      "hit": false,
      "t": 128124.74375000614,
      "d": 40.32250000000931,
      "v": 40
    },
    {
      "midi": 98,
      "hit": false,
      "t": 128225.55000000616,
      "d": 10.080625000002328,
      "v": 84
    },
    {
      "midi": 82,
      "hit": false,
      "t": 128225.55000000616,
      "d": 10.080625000002328,
      "v": 108
    },
    {
      "midi": 59,
      "hit": false,
      "t": 128225.55000000616,
      "d": 15.120937500003492,
      "v": 92
    },
    {
      "midi": 56,
      "hit": false,
      "t": 128225.55000000616,
      "d": 15.120937500003492,
      "v": 89
    },
    {
      "midi": 42,
      "hit": false,
      "t": 128225.55000000616,
      "d": 65.52406250000058,
      "v": 98
    },
    {
      "midi": 40,
      "hit": false,
      "t": 128225.55000000616,
      "d": 70.56437500000175,
      "v": 94
    },
    {
      "midi": 35,
      "hit": false,
      "t": 128225.55000000616,
      "d": 297.3784375000396,
      "v": 105
    },
    {
      "midi": 64,
      "hit": false,
      "t": 128240.67093750616,
      "d": 15.120937500003492,
      "v": 87
    },
    {
      "midi": 98,
      "hit": false,
      "t": 128346.51750000616,
      "d": 5.040312500001164,
      "v": 35
    },
    {
      "midi": 82,
      "hit": false,
      "t": 128346.51750000616,
      "d": 5.040312500001164,
      "v": 43
    },
    {
      "midi": 56,
      "hit": false,
      "t": 128346.51750000616,
      "d": 50.40312500001164,
      "v": 90
    },
    {
      "midi": 59,
      "hit": false,
      "t": 128356.59812500616,
      "d": 65.52406250001513,
      "v": 80
    },
    {
      "midi": 54,
      "hit": false,
      "t": 128366.67875000616,
      "d": 40.32250000000931,
      "v": 39
    },
    {
      "midi": 64,
      "hit": false,
      "t": 128366.67875000616,
      "d": 70.5643750000163,
      "v": 79
    },
    {
      "midi": 82,
      "hit": false,
      "t": 128467.48500000619,
      "d": 10.080625000002328,
      "v": 66
    },
    {
      "midi": 59,
      "hit": false,
      "t": 128467.48500000619,
      "d": 15.120937500003492,
      "v": 98
    },
    {
      "midi": 56,
      "hit": false,
      "t": 128467.48500000619,
      "d": 15.120937500003492,
      "v": 80
    },
    {
      "midi": 42,
      "hit": false,
      "t": 128467.48500000619,
      "d": 40.32250000000931,
      "v": 82
    },
    {
      "midi": 54,
      "hit": false,
      "t": 128467.48500000619,
      "d": 85.68531250001979,
      "v": 47
    },
    {
      "midi": 52,
      "hit": false,
      "t": 128467.48500000619,
      "d": 216.7334375000355,
      "v": 104
    },
    {
      "midi": 64,
      "hit": false,
      "t": 128482.60593750619,
      "d": 15.120937500003492,
      "v": 78
    },
    {
      "midi": 59,
      "hit": false,
      "t": 128588.4525000062,
      "d": 15.120937500003492,
      "v": 91
    },
    {
      "midi": 56,
      "hit": false,
      "t": 128588.4525000062,
      "d": 15.120937500003492,
      "v": 85
    },
    {
      "midi": 35,
      "hit": false,
      "t": 128588.4525000062,
      "d": 90.72562500002095,
      "v": 102
    },
    {
      "midi": 29,
      "hit": false,
      "t": 128588.4525000062,
      "d": 95.76593750002212,
      "v": 45
    },
    {
      "midi": 98,
      "hit": false,
      "t": 128593.4928125062,
      "d": 10.080625000002328,
      "v": 49
    },
    {
      "midi": 82,
      "hit": false,
      "t": 128593.4928125062,
      "d": 10.080625000002328,
      "v": 64
    },
    {
      "midi": 64,
      "hit": false,
      "t": 128603.5734375062,
      "d": 15.120937500003492,
      "v": 98
    },
    {
      "midi": 54,
      "hit": false,
      "t": 128608.6137500062,
      "d": 40.32250000000931,
      "v": 39
    },
    {
      "midi": 98,
      "hit": false,
      "t": 128709.42000000623,
      "d": 10.080625000002328,
      "v": 78
    },
    {
      "midi": 82,
      "hit": false,
      "t": 128709.42000000623,
      "d": 10.080625000002328,
      "v": 102
    },
    {
      "midi": 56,
      "hit": false,
      "t": 128709.42000000623,
      "d": 45.36281250001048,
      "v": 70
    },
    {
      "midi": 42,
      "hit": false,
      "t": 128709.42000000623,
      "d": 60.48375000001397,
      "v": 98
    },
    {
      "midi": 35,
      "hit": false,
      "t": 128709.42000000623,
      "d": 90.72562500002095,
      "v": 86
    },
    {
      "midi": 28,
      "hit": false,
      "t": 128709.42000000623,
      "d": 211.69312500003434,
      "v": 105
    },
    {
      "midi": 59,
      "hit": false,
      "t": 128724.54093750623,
      "d": 65.52406250001513,
      "v": 79
    },
    {
      "midi": 64,
      "hit": false,
      "t": 128729.58125000623,
      "d": 85.68531250001979,
      "v": 81
    },
    {
      "midi": 98,
      "hit": false,
      "t": 128830.38750000625,
      "d": 5.040312500001164,
      "v": 41
    },
    {
      "midi": 82,
      "hit": false,
      "t": 128830.38750000625,
      "d": 5.040312500001164,
      "v": 51
    },
    {
      "midi": 54,
      "hit": false,
      "t": 128850.54875000626,
      "d": 40.32249999999476,
      "v": 34
    },
    {
      "midi": 40,
      "hit": false,
      "t": 128951.35500000627,
      "d": 5.040312500001164,
      "v": 74
    },
    {
      "midi": 82,
      "hit": false,
      "t": 128951.35500000627,
      "d": 10.080625000002328,
      "v": 60
    },
    {
      "midi": 42,
      "hit": false,
      "t": 128951.35500000627,
      "d": 40.32250000000931,
      "v": 73
    },
    {
      "midi": 56,
      "hit": false,
      "t": 128951.35500000627,
      "d": 95.76593750000757,
      "v": 95
    },
    {
      "midi": 28,
      "hit": false,
      "t": 128951.35500000627,
      "d": 206.65281250001863,
      "v": 105
    },
    {
      "midi": 68,
      "hit": false,
      "t": 128951.35500000627,
      "d": 216.73343750002095,
      "v": 104
    },
    {
      "midi": 64,
      "hit": false,
      "t": 128961.43562500627,
      "d": 95.76593750000757,
      "v": 75
    },
    {
      "midi": 59,
      "hit": false,
      "t": 128966.47593750627,
      "d": 95.76593750000757,
      "v": 87
    },
    {
      "midi": 54,
      "hit": false,
      "t": 128971.51625000627,
      "d": 70.56437500000175,
      "v": 93
    },
    {
      "midi": 98,
      "hit": false,
      "t": 129077.36281250628,
      "d": 10.080625000002328,
      "v": 45
    },
    {
      "midi": 82,
      "hit": false,
      "t": 129077.36281250628,
      "d": 10.080625000002328,
      "v": 58
    },
    {
      "midi": 54,
      "hit": false,
      "t": 129092.48375000629,
      "d": 40.32249999999476,
      "v": 31
    },
    {
      "midi": 98,
      "hit": false,
      "t": 129193.2900000063,
      "d": 10.080625000002328,
      "v": 84
    },
    {
      "midi": 82,
      "hit": false,
      "t": 129193.2900000063,
      "d": 10.080625000002328,
      "v": 108
    },
    {
      "midi": 40,
      "hit": false,
      "t": 129193.2900000063,
      "d": 65.52406250000058,
      "v": 91
    },
    {
      "midi": 56,
      "hit": false,
      "t": 129193.2900000063,
      "d": 95.76593750000757,
      "v": 70
    },
    {
      "midi": 32,
      "hit": false,
      "t": 129193.2900000063,
      "d": 191.53187500001513,
      "v": 102
    },
    {
      "midi": 68,
      "hit": false,
      "t": 129193.2900000063,
      "d": 216.73343750002095,
      "v": 104
    },
    {
      "midi": 64,
      "hit": false,
      "t": 129203.3706250063,
      "d": 95.76593750000757,
      "v": 95
    },
    {
      "midi": 59,
      "hit": false,
      "t": 129208.4109375063,
      "d": 95.76593750000757,
      "v": 79
    },
    {
      "midi": 39,
      "hit": false,
      "t": 129213.4512500063,
      "d": 70.56437500000175,
      "v": 76
    },
    {
      "midi": 40,
      "hit": false,
      "t": 129314.25750000631,
      "d": 5.040312500001164,
      "v": 74
    },
    {
      "midi": 98,
      "hit": false,
      "t": 129314.25750000631,
      "d": 5.040312500001164,
      "v": 35
    },
    {
      "midi": 82,
      "hit": false,
      "t": 129314.25750000631,
      "d": 5.040312500001164,
      "v": 43
    },
    {
      "midi": 56,
      "hit": false,
      "t": 129314.25750000631,
      "d": 85.68531250000524,
      "v": 95
    },
    {
      "midi": 64,
      "hit": false,
      "t": 129324.33812500631,
      "d": 95.76593750000757,
      "v": 75
    },
    {
      "midi": 59,
      "hit": false,
      "t": 129329.37843750631,
      "d": 80.64500000000407,
      "v": 87
    },
    {
      "midi": 54,
      "hit": false,
      "t": 129334.41875000631,
      "d": 40.32249999999476,
      "v": 39
    },
    {
      "midi": 47,
      "hit": false,
      "t": 129435.22500000632,
      "d": 5.040312500001164,
      "v": 73
    },
    {
      "midi": 82,
      "hit": false,
      "t": 129435.22500000632,
      "d": 10.080625000002328,
      "v": 66
    },
    {
      "midi": 54,
      "hit": false,
      "t": 129435.22500000632,
      "d": 85.68531250000524,
      "v": 50
    },
    {
      "midi": 35,
      "hit": false,
      "t": 129435.22500000632,
      "d": 161.29000000000815,
      "v": 105
    },
    {
      "midi": 68,
      "hit": false,
      "t": 129435.22500000632,
      "d": 216.7334375000064,
      "v": 104
    },
    {
      "midi": 45,
      "hit": false,
      "t": 129556.19250000632,
      "d": 5.040312500001164,
      "v": 54
    },
    {
      "midi": 56,
      "hit": false,
      "t": 129556.19250000632,
      "d": 15.120937500003492,
      "v": 77
    },
    {
      "midi": 98,
      "hit": false,
      "t": 129561.23281250632,
      "d": 10.080625000002328,
      "v": 49
    },
    {
      "midi": 82,
      "hit": false,
      "t": 129561.23281250632,
      "d": 10.080625000002328,
      "v": 64
    },
    {
      "midi": 59,
      "hit": false,
      "t": 129566.27312500632,
      "d": 15.120937500003492,
      "v": 69
    },
    {
      "midi": 64,
      "hit": false,
      "t": 129576.35375000632,
      "d": 20.161250000004657,
      "v": 73
    },
    {
      "midi": 54,
      "hit": false,
      "t": 129576.35375000632,
      "d": 40.32250000000931,
      "v": 40
    },
    {
      "midi": 49,
      "hit": false,
      "t": 129672.11968750633,
      "d": 5.040312500001164,
      "v": 79
    },
    {
      "midi": 98,
      "hit": false,
      "t": 129677.16000000633,
      "d": 10.080625000002328,
      "v": 78
    },
    {
      "midi": 82,
      "hit": false,
      "t": 129677.16000000633,
      "d": 10.080625000002328,
      "v": 102
    },
    {
      "midi": 42,
      "hit": false,
      "t": 129677.16000000633,
      "d": 45.362812499995925,
      "v": 95
    },
    {
      "midi": 35,
      "hit": false,
      "t": 129677.16000000633,
      "d": 105.84656249999534,
      "v": 87
    },
    {
      "midi": 52,
      "hit": false,
      "t": 129677.16000000633,
      "d": 322.58000000003085,
      "v": 104
    },
    {
      "midi": 45,
      "hit": false,
      "t": 129677.16000000633,
      "d": 322.58000000003085,
      "v": 104
    },
    {
      "midi": 67,
      "hit": false,
      "t": 129677.16000000633,
      "d": 322.58000000003085,
      "v": 47
    },
    {
      "midi": 72,
      "hit": false,
      "t": 129677.16000000633,
      "d": 362.90250000004016,
      "v": 47
    },
    {
      "midi": 33,
      "hit": false,
      "t": 129682.20031250633,
      "d": 357.862187500039,
      "v": 102
    },
    {
      "midi": 98,
      "hit": false,
      "t": 129798.12750000633,
      "d": 5.040312500001164,
      "v": 41
    },
    {
      "midi": 82,
      "hit": false,
      "t": 129798.12750000633,
      "d": 5.040312500001164,
      "v": 51
    },
    {
      "midi": 64,
      "hit": false,
      "t": 129798.12750000633,
      "d": 15.120937500003492,
      "v": 85
    },
    {
      "midi": 60,
      "hit": false,
      "t": 129798.12750000633,
      "d": 15.120937500003492,
      "v": 68
    },
    {
      "midi": 55,
      "hit": false,
      "t": 129813.24843750634,
      "d": 15.120937500003492,
      "v": 93
    },
    {
      "midi": 54,
      "hit": false,
      "t": 129818.28875000634,
      "d": 40.32250000000931,
      "v": 34
    },
    {
      "midi": 82,
      "hit": false,
      "t": 129919.09500000635,
      "d": 10.080625000002328,
      "v": 60
    },
    {
      "midi": 42,
      "hit": false,
      "t": 129919.09500000635,
      "d": 40.32250000000931,
      "v": 82
    },
    {
      "midi": 54,
      "hit": false,
      "t": 129919.09500000635,
      "d": 70.5643750000163,
      "v": 94
    },
    {
      "midi": 64,
      "hit": false,
      "t": 129919.09500000635,
      "d": 75.60468750001746,
      "v": 68
    },
    {
      "midi": 60,
      "hit": false,
      "t": 129919.09500000635,
      "d": 75.60468750001746,
      "v": 75
    },
    {
      "midi": 55,
      "hit": false,
      "t": 129934.21593750635,
      "d": 75.60468750001746,
      "v": 90
    },
    {
      "midi": 66,
      "hit": false,
      "t": 130040.06250000637,
      "d": 15.120937500003492,
      "v": 47
    },
    {
      "midi": 62,
      "hit": false,
      "t": 130040.06250000637,
      "d": 15.120937500003492,
      "v": 78
    },
    {
      "midi": 35,
      "hit": false,
      "t": 130040.06250000637,
      "d": 141.12875000001804,
      "v": 102
    },
    {
      "midi": 47,
      "hit": false,
      "t": 130040.06250000637,
      "d": 322.5800000000163,
      "v": 104
    },
    {
      "midi": 69,
      "hit": false,
      "t": 130040.06250000637,
      "d": 322.5800000000163,
      "v": 47
    },
    {
      "midi": 74,
      "hit": false,
      "t": 130040.06250000637,
      "d": 362.9025000000256,
      "v": 47
    },
    {
      "midi": 98,
      "hit": false,
      "t": 130045.10281250637,
      "d": 10.080625000002328,
      "v": 45
    },
    {
      "midi": 82,
      "hit": false,
      "t": 130045.10281250637,
      "d": 10.080625000002328,
      "v": 58
    },
    {
      "midi": 57,
      "hit": false,
      "t": 130055.18343750638,
      "d": 15.120937500003492,
      "v": 80
    },
    {
      "midi": 54,
      "hit": false,
      "t": 130060.22375000638,
      "d": 40.32250000000931,
      "v": 40
    },
    {
      "midi": 98,
      "hit": false,
      "t": 130161.03000000639,
      "d": 10.080625000002328,
      "v": 84
    },
    {
      "midi": 82,
      "hit": false,
      "t": 130161.03000000639,
      "d": 10.080625000002328,
      "v": 108
    },
    {
      "midi": 66,
      "hit": false,
      "t": 130161.03000000639,
      "d": 15.120937500003492,
      "v": 92
    },
    {
      "midi": 62,
      "hit": false,
      "t": 130161.03000000639,
      "d": 15.120937500003492,
      "v": 88
    },
    {
      "midi": 42,
      "hit": false,
      "t": 130161.03000000639,
      "d": 65.52406250000058,
      "v": 98
    },
    {
      "midi": 40,
      "hit": false,
      "t": 130161.03000000639,
      "d": 70.56437500000175,
      "v": 94
    },
    {
      "midi": 57,
      "hit": false,
      "t": 130176.15093750639,
      "d": 15.120937500003492,
      "v": 86
    },
    {
      "midi": 98,
      "hit": false,
      "t": 130281.99750000639,
      "d": 5.040312500001164,
      "v": 35
    },
    {
      "midi": 82,
      "hit": false,
      "t": 130281.99750000639,
      "d": 5.040312500001164,
      "v": 43
    },
    {
      "midi": 66,
      "hit": false,
      "t": 130281.99750000639,
      "d": 75.60468750000291,
      "v": 68
    },
    {
      "midi": 62,
      "hit": false,
      "t": 130281.99750000639,
      "d": 75.60468750000291,
      "v": 89
    },
    {
      "midi": 57,
      "hit": false,
      "t": 130297.11843750639,
      "d": 75.60468750000291,
      "v": 68
    },
    {
      "midi": 54,
      "hit": false,
      "t": 130302.15875000639,
      "d": 40.32249999999476,
      "v": 39
    },
    {
      "midi": 82,
      "hit": false,
      "t": 130402.9650000064,
      "d": 10.080625000002328,
      "v": 66
    },
    {
      "midi": 55,
      "hit": false,
      "t": 130402.9650000064,
      "d": 15.120937500003492,
      "v": 97
    },
    {
      "midi": 64,
      "hit": false,
      "t": 130402.9650000064,
      "d": 15.120937500003492,
      "v": 79
    },
    {
      "midi": 42,
      "hit": false,
      "t": 130402.9650000064,
      "d": 40.32250000000931,
      "v": 82
    },
    {
      "midi": 54,
      "hit": false,
      "t": 130402.9650000064,
      "d": 85.68531250000524,
      "v": 47
    },
    {
      "midi": 48,
      "hit": false,
      "t": 130402.9650000064,
      "d": 216.7334375000064,
      "v": 104
    },
    {
      "midi": 71,
      "hit": false,
      "t": 130402.9650000064,
      "d": 216.7334375000064,
      "v": 104
    },
    {
      "midi": 36,
      "hit": false,
      "t": 130408.0053125064,
      "d": 136.08843750000233,
      "v": 89
    },
    {
      "midi": 59,
      "hit": false,
      "t": 130418.0859375064,
      "d": 15.120937500003492,
      "v": 78
    },
    {
      "midi": 55,
      "hit": false,
      "t": 130523.9325000064,
      "d": 15.120937500003492,
      "v": 91
    },
    {
      "midi": 64,
      "hit": false,
      "t": 130523.9325000064,
      "d": 15.120937500003492,
      "v": 84
    },
    {
      "midi": 29,
      "hit": false,
      "t": 130523.9325000064,
      "d": 95.76593750000757,
      "v": 45
    },
    {
      "midi": 98,
      "hit": false,
      "t": 130528.9728125064,
      "d": 10.080625000002328,
      "v": 49
    },
    {
      "midi": 82,
      "hit": false,
      "t": 130528.9728125064,
      "d": 10.080625000002328,
      "v": 64
    },
    {
      "midi": 59,
      "hit": false,
      "t": 130539.0534375064,
      "d": 15.120937500003492,
      "v": 98
    },
    {
      "midi": 54,
      "hit": false,
      "t": 130544.0937500064,
      "d": 40.32250000000931,
      "v": 39
    },
    {
      "midi": 98,
      "hit": false,
      "t": 130644.90000000641,
      "d": 10.080625000002328,
      "v": 78
    },
    {
      "midi": 82,
      "hit": false,
      "t": 130644.90000000641,
      "d": 10.080625000002328,
      "v": 102
    },
    {
      "midi": 42,
      "hit": false,
      "t": 130644.90000000641,
      "d": 60.48374999999942,
      "v": 98
    },
    {
      "midi": 35,
      "hit": false,
      "t": 130644.90000000641,
      "d": 90.7256250000064,
      "v": 86
    },
    {
      "midi": 64,
      "hit": false,
      "t": 130644.90000000641,
      "d": 95.76593750000757,
      "v": 70
    },
    {
      "midi": 36,
      "hit": false,
      "t": 130649.94031250641,
      "d": 55.443437499998254,
      "v": 93
    },
    {
      "midi": 59,
      "hit": false,
      "t": 130654.98062500641,
      "d": 95.76593750000757,
      "v": 95
    },
    {
      "midi": 55,
      "hit": false,
      "t": 130660.02093750642,
      "d": 95.76593750000757,
      "v": 78
    },
    {
      "midi": 98,
      "hit": false,
      "t": 130765.86750000642,
      "d": 5.040312500001164,
      "v": 41
    },
    {
      "midi": 82,
      "hit": false,
      "t": 130765.86750000642,
      "d": 5.040312500001164,
      "v": 51
    },
    {
      "midi": 64,
      "hit": false,
      "t": 130765.86750000642,
      "d": 95.76593749999302,
      "v": 95
    },
    {
      "midi": 31,
      "hit": false,
      "t": 130770.90781250643,
      "d": 5.040312500001164,
      "v": 42
    },
    {
      "midi": 59,
      "hit": false,
      "t": 130775.94812500643,
      "d": 95.76593749999302,
      "v": 75
    },
    {
      "midi": 55,
      "hit": false,
      "t": 130780.98843750643,
      "d": 95.76593749999302,
      "v": 86
    },
    {
      "midi": 54,
      "hit": false,
      "t": 130786.02875000643,
      "d": 40.32249999999476,
      "v": 34
    },
    {
      "midi": 82,
      "hit": false,
      "t": 130886.83500000642,
      "d": 10.080625000002328,
      "v": 60
    },
    {
      "midi": 42,
      "hit": false,
      "t": 130886.83500000642,
      "d": 40.32250000000931,
      "v": 73
    },
    {
      "midi": 64,
      "hit": false,
      "t": 130886.83500000642,
      "d": 95.76593750000757,
      "v": 90
    },
    {
      "midi": 36,
      "hit": false,
      "t": 130886.83500000642,
      "d": 297.3784375000396,
      "v": 101
    },
    {
      "midi": 59,
      "hit": false,
      "t": 130896.91562500643,
      "d": 95.76593750000757,
      "v": 89
    },
    {
      "midi": 55,
      "hit": false,
      "t": 130901.95593750643,
      "d": 95.76593750000757,
      "v": 87
    },
    {
      "midi": 54,
      "hit": false,
      "t": 130906.99625000643,
      "d": 70.56437500000175,
      "v": 93
    },
    {
      "midi": 31,
      "hit": false,
      "t": 131007.80250000644,
      "d": 5.040312500001164,
      "v": 34
    },
    {
      "midi": 64,
      "hit": false,
      "t": 131007.80250000644,
      "d": 95.76593750000757,
      "v": 71
    },
    {
      "midi": 98,
      "hit": false,
      "t": 131012.84281250644,
      "d": 10.080625000002328,
      "v": 45
    },
    {
      "midi": 82,
      "hit": false,
      "t": 131012.84281250644,
      "d": 10.080625000002328,
      "v": 58
    },
    {
      "midi": 59,
      "hit": false,
      "t": 131017.88312500644,
      "d": 95.76593750000757,
      "v": 91
    },
    {
      "midi": 55,
      "hit": false,
      "t": 131022.92343750644,
      "d": 95.76593750000757,
      "v": 98
    },
    {
      "midi": 54,
      "hit": false,
      "t": 131027.96375000644,
      "d": 40.32249999999476,
      "v": 31
    },
    {
      "midi": 98,
      "hit": false,
      "t": 131128.77000000645,
      "d": 10.080625000002328,
      "v": 84
    },
    {
      "midi": 82,
      "hit": false,
      "t": 131128.77000000645,
      "d": 10.080625000002328,
      "v": 108
    },
    {
      "midi": 40,
      "hit": false,
      "t": 131128.77000000645,
      "d": 65.52406250001513,
      "v": 91
    },
    {
      "midi": 55,
      "hit": false,
      "t": 131128.77000000645,
      "d": 100.80625000002328,
      "v": 57
    },
    {
      "midi": 64,
      "hit": false,
      "t": 131128.77000000645,
      "d": 100.80625000002328,
      "v": 78
    },
    {
      "midi": 59,
      "hit": false,
      "t": 131128.77000000645,
      "d": 100.80625000002328,
      "v": 78
    },
    {
      "midi": 39,
      "hit": false,
      "t": 131148.93125000646,
      "d": 70.5643750000163,
      "v": 76
    },
    {
      "midi": 40,
      "hit": false,
      "t": 131249.73750000648,
      "d": 5.040312500001164,
      "v": 68
    },
    {
      "midi": 98,
      "hit": false,
      "t": 131249.73750000648,
      "d": 5.040312500001164,
      "v": 35
    },
    {
      "midi": 82,
      "hit": false,
      "t": 131249.73750000648,
      "d": 5.040312500001164,
      "v": 43
    },
    {
      "midi": 36,
      "hit": false,
      "t": 131249.73750000648,
      "d": 5.040312500001164,
      "v": 93
    },
    {
      "midi": 55,
      "hit": false,
      "t": 131249.73750000648,
      "d": 15.120937500003492,
      "v": 95
    },
    {
      "midi": 64,
      "hit": false,
      "t": 131249.73750000648,
      "d": 15.120937500003492,
      "v": 80
    },
    {
      "midi": 59,
      "hit": false,
      "t": 131264.85843750648,
      "d": 15.120937500003492,
      "v": 85
    },
    {
      "midi": 54,
      "hit": false,
      "t": 131269.89875000648,
      "d": 40.32250000000931,
      "v": 39
    },
    {
      "midi": 45,
      "hit": false,
      "t": 131370.7050000065,
      "d": 5.040312500001164,
      "v": 77
    },
    {
      "midi": 82,
      "hit": false,
      "t": 131370.7050000065,
      "d": 10.080625000002328,
      "v": 66
    },
    {
      "midi": 55,
      "hit": false,
      "t": 131370.7050000065,
      "d": 15.120937500003492,
      "v": 72
    },
    {
      "midi": 64,
      "hit": false,
      "t": 131370.7050000065,
      "d": 15.120937500003492,
      "v": 83
    },
    {
      "midi": 54,
      "hit": false,
      "t": 131370.7050000065,
      "d": 85.68531250001979,
      "v": 50
    },
    {
      "midi": 36,
      "hit": false,
      "t": 131375.7453125065,
      "d": 226.8140625000524,
      "v": 93
    },
    {
      "midi": 59,
      "hit": false,
      "t": 131385.8259375065,
      "d": 15.120937500003492,
      "v": 82
    },
    {
      "midi": 55,
      "hit": false,
      "t": 131491.67250000653,
      "d": 15.120937500003492,
      "v": 102
    },
    {
      "midi": 64,
      "hit": false,
      "t": 131491.67250000653,
      "d": 15.120937500003492,
      "v": 107
    },
    {
      "midi": 98,
      "hit": false,
      "t": 131496.71281250654,
      "d": 10.080625000002328,
      "v": 49
    },
    {
      "midi": 82,
      "hit": false,
      "t": 131496.71281250654,
      "d": 10.080625000002328,
      "v": 64
    },
    {
      "midi": 59,
      "hit": false,
      "t": 131506.79343750654,
      "d": 15.120937500003492,
      "v": 79
    },
    {
      "midi": 54,
      "hit": false,
      "t": 131511.83375000654,
      "d": 40.32250000000931,
      "v": 40
    },
    {
      "midi": 49,
      "hit": false,
      "t": 131607.59968750656,
      "d": 5.040312500001164,
      "v": 79
    },
    {
      "midi": 44,
      "hit": false,
      "t": 131612.64000000656,
      "d": 5.040312500001164,
      "v": 64
    },
    {
      "midi": 35,
      "hit": false,
      "t": 131612.64000000656,
      "d": 105.84656249999534,
      "v": 87
    },
    {
      "midi": 52,
      "hit": false,
      "t": 131612.64000000656,
      "d": 322.5799999999872,
      "v": 104
    },
    {
      "midi": 45,
      "hit": false,
      "t": 131612.64000000656,
      "d": 322.5799999999872,
      "v": 104
    },
    {
      "midi": 33,
      "hit": false,
      "t": 131612.64000000656,
      "d": 362.9024999999965,
      "v": 89
    },
    {
      "midi": 60,
      "hit": false,
      "t": 131622.72062500656,
      "d": 100.80624999999418,
      "v": 46
    },
    {
      "midi": 67,
      "hit": false,
      "t": 131632.80125000657,
      "d": 85.68531249999069,
      "v": 50
    },
    {
      "midi": 64,
      "hit": false,
      "t": 131632.80125000657,
      "d": 100.80624999999418,
      "v": 50
    },
    {
      "midi": 60,
      "hit": false,
      "t": 131733.60750000656,
      "d": 5.040312500001164,
      "v": 95
    },
    {
      "midi": 67,
      "hit": false,
      "t": 131733.60750000656,
      "d": 110.88687499999651,
      "v": 47
    },
    {
      "midi": 60,
      "hit": false,
      "t": 131743.68812500656,
      "d": 95.76593749999302,
      "v": 51
    },
    {
      "midi": 64,
      "hit": false,
      "t": 131743.68812500656,
      "d": 110.88687499999651,
      "v": 51
    },
    {
      "midi": 46,
      "hit": false,
      "t": 131849.53468750656,
      "d": 5.040312500001164,
      "v": 69
    },
    {
      "midi": 62,
      "hit": false,
      "t": 131854.57500000656,
      "d": 5.040312500001164,
      "v": 91
    },
    {
      "midi": 60,
      "hit": false,
      "t": 131854.57500000656,
      "d": 80.64499999998952,
      "v": 50
    },
    {
      "midi": 67,
      "hit": false,
      "t": 131864.65562500656,
      "d": 70.5643749999872,
      "v": 56
    },
    {
      "midi": 64,
      "hit": false,
      "t": 131864.65562500656,
      "d": 110.88687499999651,
      "v": 56
    },
    {
      "midi": 63,
      "hit": false,
      "t": 131975.54250000656,
      "d": 5.040312500001164,
      "v": 91
    },
    {
      "midi": 59,
      "hit": false,
      "t": 131975.54250000656,
      "d": 10.080625000002328,
      "v": 96
    },
    {
      "midi": 66,
      "hit": false,
      "t": 131975.54250000656,
      "d": 95.76593749999302,
      "v": 51
    },
    {
      "midi": 35,
      "hit": false,
      "t": 131975.54250000656,
      "d": 110.88687499999651,
      "v": 89
    },
    {
      "midi": 54,
      "hit": false,
      "t": 131975.54250000656,
      "d": 322.5800000000454,
      "v": 104
    },
    {
      "midi": 47,
      "hit": false,
      "t": 131975.54250000656,
      "d": 322.5800000000454,
      "v": 104
    },
    {
      "midi": 69,
      "hit": false,
      "t": 131975.54250000656,
      "d": 322.5800000000454,
      "v": 104
    },
    {
      "midi": 57,
      "hit": false,
      "t": 131985.62312500656,
      "d": 80.64499999998952,
      "v": 51
    },
    {
      "midi": 62,
      "hit": false,
      "t": 131985.62312500656,
      "d": 95.76593749999302,
      "v": 51
    },
    {
      "midi": 44,
      "hit": false,
      "t": 132091.46968750656,
      "d": 5.040312500001164,
      "v": 71
    },
    {
      "midi": 57,
      "hit": false,
      "t": 132096.51000000656,
      "d": 5.040312500001164,
      "v": 56
    },
    {
      "midi": 40,
      "hit": false,
      "t": 132096.51000000656,
      "d": 70.5643750000163,
      "v": 94
    },
    {
      "midi": 35,
      "hit": false,
      "t": 132096.51000000656,
      "d": 105.84656250002445,
      "v": 87
    },
    {
      "midi": 33,
      "hit": false,
      "t": 132096.51000000656,
      "d": 241.93500000005588,
      "v": 101
    },
    {
      "midi": 62,
      "hit": false,
      "t": 132106.59062500656,
      "d": 5.040312500001164,
      "v": 60
    },
    {
      "midi": 66,
      "hit": false,
      "t": 132111.63093750656,
      "d": 5.040312500001164,
      "v": 64
    },
    {
      "midi": 64,
      "hit": false,
      "t": 132217.4775000066,
      "d": 5.040312500001164,
      "v": 91
    },
    {
      "midi": 66,
      "hit": false,
      "t": 132217.4775000066,
      "d": 5.040312500001164,
      "v": 50
    },
    {
      "midi": 62,
      "hit": false,
      "t": 132227.5581250066,
      "d": 5.040312500001164,
      "v": 53
    },
    {
      "midi": 57,
      "hit": false,
      "t": 132232.5984375066,
      "d": 5.040312500001164,
      "v": 55
    },
    {
      "midi": 46,
      "hit": false,
      "t": 132338.4450000066,
      "d": 5.040312500001164,
      "v": 61
    },
    {
      "midi": 63,
      "hit": false,
      "t": 132338.4450000066,
      "d": 5.040312500001164,
      "v": 47
    },
    {
      "midi": 59,
      "hit": false,
      "t": 132338.4450000066,
      "d": 110.88687499999651,
      "v": 49
    },
    {
      "midi": 55,
      "hit": false,
      "t": 132338.4450000066,
      "d": 216.73343749999185,
      "v": 104
    },
    {
      "midi": 48,
      "hit": false,
      "t": 132338.4450000066,
      "d": 216.73343749999185,
      "v": 104
    },
    {
      "midi": 71,
      "hit": false,
      "t": 132338.4450000066,
      "d": 216.73343749999185,
      "v": 104
    },
    {
      "midi": 33,
      "hit": false,
      "t": 132338.4450000066,
      "d": 231.85437499999534,
      "v": 101
    },
    {
      "midi": 67,
      "hit": false,
      "t": 132348.52562500662,
      "d": 95.76593749999302,
      "v": 54
    },
    {
      "midi": 64,
      "hit": false,
      "t": 132348.52562500662,
      "d": 110.88687499999651,
      "v": 54
    },
    {
      "midi": 63,
      "hit": false,
      "t": 132459.4125000066,
      "d": 5.040312500001164,
      "v": 85
    },
    {
      "midi": 67,
      "hit": false,
      "t": 132459.4125000066,
      "d": 5.040312500001164,
      "v": 50
    },
    {
      "midi": 60,
      "hit": false,
      "t": 132459.4125000066,
      "d": 5.040312500001164,
      "v": 107
    },
    {
      "midi": 64,
      "hit": false,
      "t": 132469.49312500661,
      "d": 5.040312500001164,
      "v": 53
    },
    {
      "midi": 59,
      "hit": false,
      "t": 132474.53343750662,
      "d": 5.040312500001164,
      "v": 55
    },
    {
      "midi": 40,
      "hit": false,
      "t": 132580.3800000066,
      "d": 5.040312500001164,
      "v": 93
    },
    {
      "midi": 44,
      "hit": false,
      "t": 132580.3800000066,
      "d": 5.040312500001164,
      "v": 64
    },
    {
      "midi": 59,
      "hit": false,
      "t": 132580.3800000066,
      "d": 5.040312500001164,
      "v": 56
    },
    {
      "midi": 60,
      "hit": false,
      "t": 132580.3800000066,
      "d": 5.040312500001164,
      "v": 102
    },
    {
      "midi": 35,
      "hit": false,
      "t": 132580.3800000066,
      "d": 90.72562499999185,
      "v": 86
    },
    {
      "midi": 31,
      "hit": false,
      "t": 132580.3800000066,
      "d": 473.789374999993,
      "v": 82
    },
    {
      "midi": 64,
      "hit": false,
      "t": 132590.4606250066,
      "d": 5.040312500001164,
      "v": 60
    },
    {
      "midi": 67,
      "hit": false,
      "t": 132595.50093750661,
      "d": 5.040312500001164,
      "v": 64
    },
    {
      "midi": 62,
      "hit": false,
      "t": 132701.3475000066,
      "d": 5.040312500001164,
      "v": 91
    },
    {
      "midi": 59,
      "hit": false,
      "t": 132701.3475000066,
      "d": 110.88687499999651,
      "v": 49
    },
    {
      "midi": 67,
      "hit": false,
      "t": 132711.4281250066,
      "d": 95.76593749999302,
      "v": 54
    },
    {
      "midi": 64,
      "hit": false,
      "t": 132711.4281250066,
      "d": 110.88687499999651,
      "v": 54
    },
    {
      "midi": 40,
      "hit": false,
      "t": 132822.3150000066,
      "d": 5.040312500001164,
      "v": 64
    },
    {
      "midi": 64,
      "hit": false,
      "t": 132822.3150000066,
      "d": 5.040312500001164,
      "v": 78
    },
    {
      "midi": 67,
      "hit": false,
      "t": 132822.3150000066,
      "d": 5.040312500001164,
      "v": 50
    },
    {
      "midi": 64,
      "hit": false,
      "t": 132832.3956250066,
      "d": 5.040312500001164,
      "v": 53
    },
    {
      "midi": 59,
      "hit": false,
      "t": 132837.4359375066,
      "d": 5.040312500001164,
      "v": 55
    },
    {
      "midi": 40,
      "hit": false,
      "t": 132943.2825000066,
      "d": 5.040312500001164,
      "v": 87
    },
    {
      "midi": 64,
      "hit": false,
      "t": 132943.2825000066,
      "d": 5.040312500001164,
      "v": 78
    },
    {
      "midi": 59,
      "hit": false,
      "t": 132943.2825000066,
      "d": 5.040312500001164,
      "v": 56
    },
    {
      "midi": 64,
      "hit": false,
      "t": 132953.3631250066,
      "d": 5.040312500001164,
      "v": 60
    },
    {
      "midi": 67,
      "hit": false,
      "t": 132958.4034375066,
      "d": 5.040312500001164,
      "v": 64
    },
    {
      "midi": 43,
      "hit": false,
      "t": 133064.2500000066,
      "d": 5.040312500001164,
      "v": 86
    },
    {
      "midi": 64,
      "hit": false,
      "t": 133064.2500000066,
      "d": 5.040312500001164,
      "v": 82
    },
    {
      "midi": 35,
      "hit": false,
      "t": 133064.2500000066,
      "d": 90.72562499999185,
      "v": 86
    },
    {
      "midi": 59,
      "hit": false,
      "t": 133064.2500000066,
      "d": 110.88687499999651,
      "v": 49
    },
    {
      "midi": 33,
      "hit": false,
      "t": 133064.2500000066,
      "d": 241.93499999999767,
      "v": 87
    },
    {
      "midi": 44,
      "hit": false,
      "t": 133069.2903125066,
      "d": 5.040312500001164,
      "v": 71
    },
    {
      "midi": 67,
      "hit": false,
      "t": 133074.3306250066,
      "d": 95.76593749999302,
      "v": 54
    },
    {
      "midi": 64,
      "hit": false,
      "t": 133074.3306250066,
      "d": 110.88687499999651,
      "v": 54
    },
    {
      "midi": 40,
      "hit": false,
      "t": 133185.2175000066,
      "d": 5.040312500001164,
      "v": 73
    },
    {
      "midi": 62,
      "hit": false,
      "t": 133185.2175000066,
      "d": 5.040312500001164,
      "v": 93
    },
    {
      "midi": 67,
      "hit": false,
      "t": 133185.2175000066,
      "d": 110.88687499999651,
      "v": 47
    },
    {
      "midi": 59,
      "hit": false,
      "t": 133195.2981250066,
      "d": 95.76593749999302,
      "v": 51
    },
    {
      "midi": 64,
      "hit": false,
      "t": 133195.2981250066,
      "d": 110.88687499999651,
      "v": 51
    },
    {
      "midi": 40,
      "hit": false,
      "t": 133306.1850000066,
      "d": 5.040312500001164,
      "v": 95
    },
    {
      "midi": 59,
      "hit": false,
      "t": 133306.1850000066,
      "d": 5.040312500001164,
      "v": 56
    },
    {
      "midi": 64,
      "hit": false,
      "t": 133316.2656250066,
      "d": 5.040312500001164,
      "v": 60
    },
    {
      "midi": 31,
      "hit": false,
      "t": 133316.2656250066,
      "d": 221.77374999999302,
      "v": 76
    },
    {
      "midi": 67,
      "hit": false,
      "t": 133321.3059375066,
      "d": 5.040312500001164,
      "v": 64
    },
    {
      "midi": 67,
      "hit": false,
      "t": 133437.2331250066,
      "d": 5.040312500001164,
      "v": 50
    },
    {
      "midi": 64,
      "hit": false,
      "t": 133447.3137500066,
      "d": 5.040312500001164,
      "v": 53
    },
    {
      "midi": 59,
      "hit": false,
      "t": 133452.3540625066,
      "d": 5.040312500001164,
      "v": 55
    },
    {
      "midi": 57,
      "hit": false,
      "t": 133543.0796875066,
      "d": 5.040312500001164,
      "v": 79
    },
    {
      "midi": 98,
      "hit": false,
      "t": 133548.1200000066,
      "d": 10.080625000002328,
      "v": 78
    },
    {
      "midi": 82,
      "hit": false,
      "t": 133548.1200000066,
      "d": 10.080625000002328,
      "v": 102
    },
    {
      "midi": 42,
      "hit": false,
      "t": 133548.1200000066,
      "d": 45.36281250001048,
      "v": 95
    },
    {
      "midi": 55,
      "hit": false,
      "t": 133548.1200000066,
      "d": 50.40312500001164,
      "v": 58
    },
    {
      "midi": 60,
      "hit": false,
      "t": 133548.1200000066,
      "d": 60.48375000001397,
      "v": 53
    },
    {
      "midi": 35,
      "hit": false,
      "t": 133548.1200000066,
      "d": 105.84656250002445,
      "v": 87
    },
    {
      "midi": 36,
      "hit": false,
      "t": 133548.1200000066,
      "d": 307.459062500071,
      "v": 105
    },
    {
      "midi": 52,
      "hit": false,
      "t": 133548.1200000066,
      "d": 866.9337500002002,
      "v": 104
    },
    {
      "midi": 48,
      "hit": false,
      "t": 133548.1200000066,
      "d": 866.9337500002002,
      "v": 104
    },
    {
      "midi": 71,
      "hit": false,
      "t": 133548.1200000066,
      "d": 967.7400000002235,
      "v": 47
    },
    {
      "midi": 59,
      "hit": false,
      "t": 133553.1603125066,
      "d": 40.32250000000931,
      "v": 54
    },
    {
      "midi": 64,
      "hit": false,
      "t": 133558.2006250066,
      "d": 65.52406250001513,
      "v": 54
    },
    {
      "midi": 98,
      "hit": false,
      "t": 133669.08750000663,
      "d": 5.040312500001164,
      "v": 41
    },
    {
      "midi": 82,
      "hit": false,
      "t": 133669.08750000663,
      "d": 5.040312500001164,
      "v": 51
    },
    {
      "midi": 55,
      "hit": false,
      "t": 133669.08750000663,
      "d": 10.080625000002328,
      "v": 56
    },
    {
      "midi": 59,
      "hit": false,
      "t": 133674.12781250663,
      "d": 10.080625000002328,
      "v": 54
    },
    {
      "midi": 64,
      "hit": false,
      "t": 133679.16812500663,
      "d": 70.5643750000163,
      "v": 56
    },
    {
      "midi": 54,
      "hit": false,
      "t": 133689.24875000663,
      "d": 40.32250000000931,
      "v": 34
    },
    {
      "midi": 82,
      "hit": false,
      "t": 133790.05500000666,
      "d": 10.080625000002328,
      "v": 60
    },
    {
      "midi": 42,
      "hit": false,
      "t": 133790.05500000666,
      "d": 40.32250000000931,
      "v": 82
    },
    {
      "midi": 54,
      "hit": false,
      "t": 133790.05500000666,
      "d": 70.5643750000163,
      "v": 94
    },
    {
      "midi": 67,
      "hit": false,
      "t": 133790.05500000666,
      "d": 216.73343750005006,
      "v": 104
    },
    {
      "midi": 55,
      "hit": false,
      "t": 133911.0225000067,
      "d": 5.040312500001164,
      "v": 22
    },
    {
      "midi": 60,
      "hit": false,
      "t": 133911.0225000067,
      "d": 5.040312500001164,
      "v": 35
    },
    {
      "midi": 36,
      "hit": false,
      "t": 133911.0225000067,
      "d": 90.72562500002095,
      "v": 102
    },
    {
      "midi": 98,
      "hit": false,
      "t": 133916.0628125067,
      "d": 10.080625000002328,
      "v": 45
    },
    {
      "midi": 82,
      "hit": false,
      "t": 133916.0628125067,
      "d": 10.080625000002328,
      "v": 58
    },
    {
      "midi": 59,
      "hit": false,
      "t": 133916.0628125067,
      "d": 45.36281250001048,
      "v": 29
    },
    {
      "midi": 64,
      "hit": false,
      "t": 133921.1031250067,
      "d": 50.40312500001164,
      "v": 26
    },
    {
      "midi": 54,
      "hit": false,
      "t": 133931.1837500067,
      "d": 40.32250000000931,
      "v": 40
    },
    {
      "midi": 98,
      "hit": false,
      "t": 134031.9900000067,
      "d": 10.080625000002328,
      "v": 84
    },
    {
      "midi": 82,
      "hit": false,
      "t": 134031.9900000067,
      "d": 10.080625000002328,
      "v": 108
    },
    {
      "midi": 55,
      "hit": false,
      "t": 134031.9900000067,
      "d": 25.20156250000582,
      "v": 67
    },
    {
      "midi": 42,
      "hit": false,
      "t": 134031.9900000067,
      "d": 65.52406250001513,
      "v": 98
    },
    {
      "midi": 40,
      "hit": false,
      "t": 134031.9900000067,
      "d": 70.5643750000163,
      "v": 94
    },
    {
      "midi": 60,
      "hit": false,
      "t": 134031.9900000067,
      "d": 70.5643750000163,
      "v": 61
    },
    {
      "midi": 67,
      "hit": false,
      "t": 134031.9900000067,
      "d": 216.73343750005006,
      "v": 104
    },
    {
      "midi": 31,
      "hit": false,
      "t": 134031.9900000067,
      "d": 297.3784375000687,
      "v": 105
    },
    {
      "midi": 59,
      "hit": false,
      "t": 134037.03031250671,
      "d": 10.080625000002328,
      "v": 49
    },
    {
      "midi": 64,
      "hit": false,
      "t": 134042.07062500672,
      "d": 10.080625000002328,
      "v": 54
    },
    {
      "midi": 98,
      "hit": false,
      "t": 134152.95750000674,
      "d": 5.040312500001164,
      "v": 35
    },
    {
      "midi": 82,
      "hit": false,
      "t": 134152.95750000674,
      "d": 5.040312500001164,
      "v": 43
    },
    {
      "midi": 54,
      "hit": false,
      "t": 134173.11875000675,
      "d": 40.32250000000931,
      "v": 39
    },
    {
      "midi": 55,
      "hit": false,
      "t": 134273.92500000677,
      "d": 5.040312500001164,
      "v": 22
    },
    {
      "midi": 82,
      "hit": false,
      "t": 134273.92500000677,
      "d": 10.080625000002328,
      "v": 66
    },
    {
      "midi": 42,
      "hit": false,
      "t": 134273.92500000677,
      "d": 40.32250000000931,
      "v": 82
    },
    {
      "midi": 54,
      "hit": false,
      "t": 134273.92500000677,
      "d": 85.68531250001979,
      "v": 47
    },
    {
      "midi": 67,
      "hit": false,
      "t": 134273.92500000677,
      "d": 216.73343750005006,
      "v": 104
    },
    {
      "midi": 59,
      "hit": false,
      "t": 134278.96531250677,
      "d": 55.443437500012806,
      "v": 22
    },
    {
      "midi": 64,
      "hit": false,
      "t": 134284.00562500677,
      "d": 50.40312500001164,
      "v": 22
    },
    {
      "midi": 55,
      "hit": false,
      "t": 134394.8925000068,
      "d": 65.52406250001513,
      "v": 65
    },
    {
      "midi": 60,
      "hit": false,
      "t": 134394.8925000068,
      "d": 80.64500000001863,
      "v": 66
    },
    {
      "midi": 31,
      "hit": false,
      "t": 134399.9328125068,
      "d": 5.040312500001164,
      "v": 35
    },
    {
      "midi": 98,
      "hit": false,
      "t": 134399.9328125068,
      "d": 10.080625000002328,
      "v": 49
    },
    {
      "midi": 82,
      "hit": false,
      "t": 134399.9328125068,
      "d": 10.080625000002328,
      "v": 64
    },
    {
      "midi": 59,
      "hit": false,
      "t": 134399.9328125068,
      "d": 65.52406250001513,
      "v": 67
    },
    {
      "midi": 64,
      "hit": false,
      "t": 134404.9731250068,
      "d": 80.64500000001863,
      "v": 55
    },
    {
      "midi": 54,
      "hit": false,
      "t": 134415.0537500068,
      "d": 40.32250000000931,
      "v": 39
    },
    {
      "midi": 98,
      "hit": false,
      "t": 134515.86000000683,
      "d": 10.080625000002328,
      "v": 78
    },
    {
      "midi": 82,
      "hit": false,
      "t": 134515.86000000683,
      "d": 10.080625000002328,
      "v": 102
    },
    {
      "midi": 55,
      "hit": false,
      "t": 134515.86000000683,
      "d": 10.080625000002328,
      "v": 54
    },
    {
      "midi": 42,
      "hit": false,
      "t": 134515.86000000683,
      "d": 60.48375000001397,
      "v": 98
    },
    {
      "midi": 35,
      "hit": false,
      "t": 134515.86000000683,
      "d": 90.72562500002095,
      "v": 86
    },
    {
      "midi": 67,
      "hit": false,
      "t": 134515.86000000683,
      "d": 216.73343750005006,
      "v": 47
    },
    {
      "midi": 37,
      "hit": false,
      "t": 134515.86000000683,
      "d": 282.2575000000652,
      "v": 102
    },
    {
      "midi": 52,
      "hit": false,
      "t": 134515.86000000683,
      "d": 866.9337500002002,
      "v": 104
    },
    {
      "midi": 49,
      "hit": false,
      "t": 134515.86000000683,
      "d": 866.9337500002002,
      "v": 104
    },
    {
      "midi": 70,
      "hit": false,
      "t": 134515.86000000683,
      "d": 967.7400000002235,
      "v": 47
    },
    {
      "midi": 58,
      "hit": false,
      "t": 134520.90031250683,
      "d": 10.080625000002328,
      "v": 41
    },
    {
      "midi": 64,
      "hit": false,
      "t": 134525.94062500683,
      "d": 10.080625000002328,
      "v": 49
    },
    {
      "midi": 98,
      "hit": false,
      "t": 134636.82750000685,
      "d": 5.040312500001164,
      "v": 41
    },
    {
      "midi": 82,
      "hit": false,
      "t": 134636.82750000685,
      "d": 5.040312500001164,
      "v": 51
    },
    {
      "midi": 58,
      "hit": false,
      "t": 134636.82750000685,
      "d": 50.40312500001164,
      "v": 22
    },
    {
      "midi": 64,
      "hit": false,
      "t": 134641.86781250685,
      "d": 55.443437500012806,
      "v": 22
    },
    {
      "midi": 54,
      "hit": false,
      "t": 134656.98875000686,
      "d": 40.32250000000931,
      "v": 34
    },
    {
      "midi": 82,
      "hit": false,
      "t": 134757.79500000688,
      "d": 10.080625000002328,
      "v": 60
    },
    {
      "midi": 55,
      "hit": false,
      "t": 134757.79500000688,
      "d": 10.080625000002328,
      "v": 55
    },
    {
      "midi": 42,
      "hit": false,
      "t": 134757.79500000688,
      "d": 40.32250000000931,
      "v": 73
    },
    {
      "midi": 61,
      "hit": false,
      "t": 134757.79500000688,
      "d": 70.5643750000163,
      "v": 61
    },
    {
      "midi": 58,
      "hit": false,
      "t": 134762.83531250688,
      "d": 10.080625000002328,
      "v": 55
    },
    {
      "midi": 64,
      "hit": false,
      "t": 134767.87562500688,
      "d": 25.20156250000582,
      "v": 55
    },
    {
      "midi": 54,
      "hit": false,
      "t": 134777.9562500069,
      "d": 70.5643750000163,
      "v": 93
    },
    {
      "midi": 37,
      "hit": false,
      "t": 134878.7625000069,
      "d": 90.72562500002095,
      "v": 97
    },
    {
      "midi": 98,
      "hit": false,
      "t": 134883.8028125069,
      "d": 10.080625000002328,
      "v": 45
    },
    {
      "midi": 82,
      "hit": false,
      "t": 134883.8028125069,
      "d": 10.080625000002328,
      "v": 58
    },
    {
      "midi": 54,
      "hit": false,
      "t": 134898.9237500069,
      "d": 40.32250000000931,
      "v": 31
    },
    {
      "midi": 98,
      "hit": false,
      "t": 134999.73000000694,
      "d": 10.080625000002328,
      "v": 84
    },
    {
      "midi": 82,
      "hit": false,
      "t": 134999.73000000694,
      "d": 10.080625000002328,
      "v": 108
    },
    {
      "midi": 61,
      "hit": false,
      "t": 134999.73000000694,
      "d": 45.36281250001048,
      "v": 51
    },
    {
      "midi": 55,
      "hit": false,
      "t": 134999.73000000694,
      "d": 50.40312500001164,
      "v": 54
    },
    {
      "midi": 42,
      "hit": false,
      "t": 134999.73000000694,
      "d": 65.52406250001513,
      "v": 98
    },
    {
      "midi": 40,
      "hit": false,
      "t": 134999.73000000694,
      "d": 65.52406250001513,
      "v": 91
    },
    {
      "midi": 28,
      "hit": false,
      "t": 134999.73000000694,
      "d": 216.73343750005006,
      "v": 102
    },
    {
      "midi": 67,
      "hit": false,
      "t": 134999.73000000694,
      "d": 216.73343750005006,
      "v": 104
    },
    {
      "midi": 58,
      "hit": false,
      "t": 135004.77031250694,
      "d": 45.36281250001048,
      "v": 49
    },
    {
      "midi": 64,
      "hit": false,
      "t": 135009.81062500694,
      "d": 70.5643750000163,
      "v": 56
    },
    {
      "midi": 39,
      "hit": false,
      "t": 135019.89125000694,
      "d": 70.5643750000163,
      "v": 76
    },
    {
      "midi": 98,
      "hit": false,
      "t": 135120.69750000697,
      "d": 5.040312500001164,
      "v": 35
    },
    {
      "midi": 82,
      "hit": false,
      "t": 135120.69750000697,
      "d": 5.040312500001164,
      "v": 43
    },
    {
      "midi": 55,
      "hit": false,
      "t": 135120.69750000697,
      "d": 45.36281250001048,
      "v": 23
    },
    {
      "midi": 61,
      "hit": false,
      "t": 135120.69750000697,
      "d": 45.36281250001048,
      "v": 42
    },
    {
      "midi": 58,
      "hit": false,
      "t": 135125.73781250697,
      "d": 50.40312500001164,
      "v": 47
    },
    {
      "midi": 64,
      "hit": false,
      "t": 135130.77812500697,
      "d": 45.36281250001048,
      "v": 38
    },
    {
      "midi": 54,
      "hit": false,
      "t": 135140.85875000697,
      "d": 40.32250000000931,
      "v": 39
    },
    {
      "midi": 82,
      "hit": false,
      "t": 135241.665000007,
      "d": 10.080625000002328,
      "v": 66
    },
    {
      "midi": 42,
      "hit": false,
      "t": 135241.665000007,
      "d": 60.48375000001397,
      "v": 82
    },
    {
      "midi": 54,
      "hit": false,
      "t": 135241.665000007,
      "d": 85.68531250001979,
      "v": 50
    },
    {
      "midi": 31,
      "hit": false,
      "t": 135241.665000007,
      "d": 141.1287500000326,
      "v": 97
    },
    {
      "midi": 55,
      "hit": false,
      "t": 135362.63250000702,
      "d": 10.080625000002328,
      "v": 51
    },
    {
      "midi": 58,
      "hit": false,
      "t": 135367.67281250702,
      "d": 5.040312500001164,
      "v": 49
    },
    {
      "midi": 98,
      "hit": false,
      "t": 135367.67281250702,
      "d": 10.080625000002328,
      "v": 49
    },
    {
      "midi": 82,
      "hit": false,
      "t": 135367.67281250702,
      "d": 10.080625000002328,
      "v": 64
    },
    {
      "midi": 64,
      "hit": false,
      "t": 135372.71312500702,
      "d": 10.080625000002328,
      "v": 54
    },
    {
      "midi": 54,
      "hit": false,
      "t": 135382.79375000703,
      "d": 40.32250000000931,
      "v": 40
    },
    {
      "midi": 98,
      "hit": false,
      "t": 135483.60000000705,
      "d": 10.080625000002328,
      "v": 78
    },
    {
      "midi": 82,
      "hit": false,
      "t": 135483.60000000705,
      "d": 10.080625000002328,
      "v": 102
    },
    {
      "midi": 42,
      "hit": false,
      "t": 135483.60000000705,
      "d": 45.36281250001048,
      "v": 95
    },
    {
      "midi": 57,
      "hit": false,
      "t": 135483.60000000705,
      "d": 50.40312500001164,
      "v": 58
    },
    {
      "midi": 35,
      "hit": false,
      "t": 135483.60000000705,
      "d": 105.84656250002445,
      "v": 87
    },
    {
      "midi": 38,
      "hit": false,
      "t": 135483.60000000705,
      "d": 307.459062500071,
      "v": 105
    },
    {
      "midi": 50,
      "hit": false,
      "t": 135483.60000000705,
      "d": 650.2003125001502,
      "v": 104
    },
    {
      "midi": 69,
      "hit": false,
      "t": 135483.60000000705,
      "d": 1708.6659375003946,
      "v": 47
    },
    {
      "midi": 74,
      "hit": false,
      "t": 135483.60000000705,
      "d": 1935.480000000447,
      "v": 47
    },
    {
      "midi": 62,
      "hit": false,
      "t": 135488.64031250705,
      "d": 40.32250000000931,
      "v": 54
    },
    {
      "midi": 66,
      "hit": false,
      "t": 135493.68062500705,
      "d": 65.52406250001513,
      "v": 54
    },
    {
      "midi": 98,
      "hit": false,
      "t": 135604.56750000708,
      "d": 5.040312500001164,
      "v": 41
    },
    {
      "midi": 82,
      "hit": false,
      "t": 135604.56750000708,
      "d": 5.040312500001164,
      "v": 51
    },
    {
      "midi": 57,
      "hit": false,
      "t": 135604.56750000708,
      "d": 10.080625000002328,
      "v": 56
    },
    {
      "midi": 62,
      "hit": false,
      "t": 135609.60781250708,
      "d": 10.080625000002328,
      "v": 54
    },
    {
      "midi": 66,
      "hit": false,
      "t": 135614.64812500708,
      "d": 70.5643750000163,
      "v": 56
    },
    {
      "midi": 54,
      "hit": false,
      "t": 135624.72875000708,
      "d": 40.32250000000931,
      "v": 34
    },
    {
      "midi": 82,
      "hit": false,
      "t": 135725.5350000071,
      "d": 10.080625000002328,
      "v": 60
    },
    {
      "midi": 42,
      "hit": false,
      "t": 135725.5350000071,
      "d": 40.32250000000931,
      "v": 82
    },
    {
      "midi": 54,
      "hit": false,
      "t": 135725.5350000071,
      "d": 70.5643750000163,
      "v": 94
    },
    {
      "midi": 57,
      "hit": false,
      "t": 135846.50250000713,
      "d": 5.040312500001164,
      "v": 22
    },
    {
      "midi": 62,
      "hit": false,
      "t": 135846.50250000713,
      "d": 5.040312500001164,
      "v": 35
    },
    {
      "midi": 38,
      "hit": false,
      "t": 135846.50250000713,
      "d": 90.72562500002095,
      "v": 102
    },
    {
      "midi": 98,
      "hit": false,
      "t": 135851.54281250713,
      "d": 10.080625000002328,
      "v": 45
    },
    {
      "midi": 82,
      "hit": false,
      "t": 135851.54281250713,
      "d": 10.080625000002328,
      "v": 58
    },
    {
      "midi": 62,
      "hit": false,
      "t": 135851.54281250713,
      "d": 45.36281250001048,
      "v": 29
    },
    {
      "midi": 66,
      "hit": false,
      "t": 135856.58312500714,
      "d": 50.40312500001164,
      "v": 26
    },
    {
      "midi": 54,
      "hit": false,
      "t": 135866.66375000714,
      "d": 40.32250000000931,
      "v": 40
    },
    {
      "midi": 98,
      "hit": false,
      "t": 135967.47000000716,
      "d": 10.080625000002328,
      "v": 84
    },
    {
      "midi": 82,
      "hit": false,
      "t": 135967.47000000716,
      "d": 10.080625000002328,
      "v": 108
    },
    {
      "midi": 57,
      "hit": false,
      "t": 135967.47000000716,
      "d": 25.20156250000582,
      "v": 67
    },
    {
      "midi": 42,
      "hit": false,
      "t": 135967.47000000716,
      "d": 65.52406250001513,
      "v": 98
    },
    {
      "midi": 40,
      "hit": false,
      "t": 135967.47000000716,
      "d": 70.5643750000163,
      "v": 94
    },
    {
      "midi": 33,
      "hit": false,
      "t": 135967.47000000716,
      "d": 297.3784375000687,
      "v": 105
    },
    {
      "midi": 62,
      "hit": false,
      "t": 135972.51031250716,
      "d": 10.080625000002328,
      "v": 49
    },
    {
      "midi": 66,
      "hit": false,
      "t": 135977.55062500716,
      "d": 10.080625000002328,
      "v": 54
    },
    {
      "midi": 98,
      "hit": false,
      "t": 136088.4375000072,
      "d": 5.040312500001164,
      "v": 35
    },
    {
      "midi": 82,
      "hit": false,
      "t": 136088.4375000072,
      "d": 5.040312500001164,
      "v": 43
    },
    {
      "midi": 54,
      "hit": false,
      "t": 136108.5987500072,
      "d": 25.20156250000582,
      "v": 39
    },
    {
      "midi": 57,
      "hit": false,
      "t": 136209.40500000722,
      "d": 5.040312500001164,
      "v": 22
    },
    {
      "midi": 82,
      "hit": false,
      "t": 136209.40500000722,
      "d": 10.080625000002328,
      "v": 66
    },
    {
      "midi": 42,
      "hit": false,
      "t": 136209.40500000722,
      "d": 40.32250000000931,
      "v": 82
    },
    {
      "midi": 54,
      "hit": false,
      "t": 136209.40500000722,
      "d": 85.68531250001979,
      "v": 47
    },
    {
      "midi": 55,
      "hit": false,
      "t": 136209.40500000722,
      "d": 650.2003125001502,
      "v": 104
    },
    {
      "midi": 52,
      "hit": false,
      "t": 136209.40500000722,
      "d": 650.2003125001502,
      "v": 104
    },
    {
      "midi": 62,
      "hit": false,
      "t": 136214.44531250722,
      "d": 55.443437500012806,
      "v": 22
    },
    {
      "midi": 66,
      "hit": false,
      "t": 136219.48562500722,
      "d": 50.40312500001164,
      "v": 22
    },
    {
      "midi": 57,
      "hit": false,
      "t": 136330.37250000724,
      "d": 65.52406250001513,
      "v": 65
    },
    {
      "midi": 33,
      "hit": false,
      "t": 136330.37250000724,
      "d": 90.72562500002095,
      "v": 102
    },
    {
      "midi": 31,
      "hit": false,
      "t": 136335.41281250725,
      "d": 5.040312500001164,
      "v": 35
    },
    {
      "midi": 98,
      "hit": false,
      "t": 136335.41281250725,
      "d": 10.080625000002328,
      "v": 49
    },
    {
      "midi": 82,
      "hit": false,
      "t": 136335.41281250725,
      "d": 10.080625000002328,
      "v": 64
    },
    {
      "midi": 62,
      "hit": false,
      "t": 136335.41281250725,
      "d": 65.52406250001513,
      "v": 67
    },
    {
      "midi": 66,
      "hit": false,
      "t": 136340.45312500725,
      "d": 80.64500000001863,
      "v": 55
    },
    {
      "midi": 54,
      "hit": false,
      "t": 136350.53375000725,
      "d": 40.32250000000931,
      "v": 39
    },
    {
      "midi": 98,
      "hit": false,
      "t": 136451.34000000727,
      "d": 10.080625000002328,
      "v": 78
    },
    {
      "midi": 82,
      "hit": false,
      "t": 136451.34000000727,
      "d": 10.080625000002328,
      "v": 102
    },
    {
      "midi": 57,
      "hit": false,
      "t": 136451.34000000727,
      "d": 10.080625000002328,
      "v": 54
    },
    {
      "midi": 42,
      "hit": false,
      "t": 136451.34000000727,
      "d": 60.48375000001397,
      "v": 98
    },
    {
      "midi": 35,
      "hit": false,
      "t": 136451.34000000727,
      "d": 90.72562500002095,
      "v": 86
    },
    {
      "midi": 38,
      "hit": false,
      "t": 136451.34000000727,
      "d": 211.6931250000489,
      "v": 105
    },
    {
      "midi": 62,
      "hit": false,
      "t": 136456.38031250727,
      "d": 10.080625000002328,
      "v": 41
    },
    {
      "midi": 66,
      "hit": false,
      "t": 136461.42062500727,
      "d": 10.080625000002328,
      "v": 49
    },
    {
      "midi": 31,
      "hit": false,
      "t": 136572.3075000073,
      "d": 5.040312500001164,
      "v": 30
    },
    {
      "midi": 98,
      "hit": false,
      "t": 136572.3075000073,
      "d": 5.040312500001164,
      "v": 41
    },
    {
      "midi": 82,
      "hit": false,
      "t": 136572.3075000073,
      "d": 5.040312500001164,
      "v": 51
    },
    {
      "midi": 62,
      "hit": false,
      "t": 136572.3075000073,
      "d": 50.40312500001164,
      "v": 22
    },
    {
      "midi": 66,
      "hit": false,
      "t": 136577.3478125073,
      "d": 55.443437500012806,
      "v": 22
    },
    {
      "midi": 54,
      "hit": false,
      "t": 136592.4687500073,
      "d": 40.32250000000931,
      "v": 34
    },
    {
      "midi": 82,
      "hit": false,
      "t": 136693.27500000733,
      "d": 10.080625000002328,
      "v": 60
    },
    {
      "midi": 57,
      "hit": false,
      "t": 136693.27500000733,
      "d": 10.080625000002328,
      "v": 55
    },
    {
      "midi": 42,
      "hit": false,
      "t": 136693.27500000733,
      "d": 40.32250000000931,
      "v": 73
    },
    {
      "midi": 38,
      "hit": false,
      "t": 136693.27500000733,
      "d": 206.65281250004773,
      "v": 105
    },
    {
      "midi": 62,
      "hit": false,
      "t": 136698.31531250733,
      "d": 10.080625000002328,
      "v": 55
    },
    {
      "midi": 66,
      "hit": false,
      "t": 136703.35562500733,
      "d": 25.20156250000582,
      "v": 55
    },
    {
      "midi": 54,
      "hit": false,
      "t": 136713.43625000733,
      "d": 70.5643750000163,
      "v": 93
    },
    {
      "midi": 98,
      "hit": false,
      "t": 136819.28281250736,
      "d": 10.080625000002328,
      "v": 45
    },
    {
      "midi": 82,
      "hit": false,
      "t": 136819.28281250736,
      "d": 10.080625000002328,
      "v": 58
    },
    {
      "midi": 54,
      "hit": false,
      "t": 136834.40375000736,
      "d": 40.32250000000931,
      "v": 31
    },
    {
      "midi": 98,
      "hit": false,
      "t": 136935.21000000738,
      "d": 10.080625000002328,
      "v": 84
    },
    {
      "midi": 82,
      "hit": false,
      "t": 136935.21000000738,
      "d": 10.080625000002328,
      "v": 108
    },
    {
      "midi": 57,
      "hit": false,
      "t": 136935.21000000738,
      "d": 50.40312500001164,
      "v": 54
    },
    {
      "midi": 42,
      "hit": false,
      "t": 136935.21000000738,
      "d": 65.52406250001513,
      "v": 98
    },
    {
      "midi": 40,
      "hit": false,
      "t": 136935.21000000738,
      "d": 65.52406250001513,
      "v": 91
    },
    {
      "midi": 30,
      "hit": false,
      "t": 136935.21000000738,
      "d": 191.53187500004424,
      "v": 102
    },
    {
      "midi": 56,
      "hit": false,
      "t": 136935.21000000738,
      "d": 433.4668750001001,
      "v": 104
    },
    {
      "midi": 53,
      "hit": false,
      "t": 136935.21000000738,
      "d": 433.4668750001001,
      "v": 104
    },
    {
      "midi": 62,
      "hit": false,
      "t": 136940.25031250739,
      "d": 40.32250000000931,
      "v": 49
    },
    {
      "midi": 66,
      "hit": false,
      "t": 136945.2906250074,
      "d": 70.5643750000163,
      "v": 56
    },
    {
      "midi": 39,
      "hit": false,
      "t": 136955.3712500074,
      "d": 70.5643750000163,
      "v": 76
    },
    {
      "midi": 98,
      "hit": false,
      "t": 137056.1775000074,
      "d": 5.040312500001164,
      "v": 35
    },
    {
      "midi": 82,
      "hit": false,
      "t": 137056.1775000074,
      "d": 5.040312500001164,
      "v": 43
    },
    {
      "midi": 57,
      "hit": false,
      "t": 137056.1775000074,
      "d": 45.36281250001048,
      "v": 23
    },
    {
      "midi": 62,
      "hit": false,
      "t": 137061.2178125074,
      "d": 40.32250000000931,
      "v": 47
    },
    {
      "midi": 66,
      "hit": false,
      "t": 137066.2581250074,
      "d": 45.36281250001048,
      "v": 38
    },
    {
      "midi": 54,
      "hit": false,
      "t": 137076.33875000742,
      "d": 40.32250000000931,
      "v": 39
    },
    {
      "midi": 82,
      "hit": false,
      "t": 137177.14500000744,
      "d": 10.080625000002328,
      "v": 66
    },
    {
      "midi": 42,
      "hit": false,
      "t": 137177.14500000744,
      "d": 60.48375000001397,
      "v": 82
    },
    {
      "midi": 54,
      "hit": false,
      "t": 137177.14500000744,
      "d": 85.68531250001979,
      "v": 50
    },
    {
      "midi": 33,
      "hit": false,
      "t": 137177.14500000744,
      "d": 161.29000000003725,
      "v": 105
    },
    {
      "midi": 57,
      "hit": false,
      "t": 137298.11250000747,
      "d": 10.080625000002328,
      "v": 51
    },
    {
      "midi": 62,
      "hit": false,
      "t": 137303.15281250747,
      "d": 5.040312500001164,
      "v": 49
    },
    {
      "midi": 98,
      "hit": false,
      "t": 137303.15281250747,
      "d": 10.080625000002328,
      "v": 49
    },
    {
      "midi": 82,
      "hit": false,
      "t": 137303.15281250747,
      "d": 10.080625000002328,
      "v": 64
    },
    {
      "midi": 66,
      "hit": false,
      "t": 137308.19312500747,
      "d": 10.080625000002328,
      "v": 54
    },
    {
      "midi": 54,
      "hit": false,
      "t": 137318.27375000747,
      "d": 40.32250000000931,
      "v": 40
    },
    {
      "midi": 98,
      "hit": false,
      "t": 137419.0800000075,
      "d": 10.080625000002328,
      "v": 78
    },
    {
      "midi": 82,
      "hit": false,
      "t": 137419.0800000075,
      "d": 10.080625000002328,
      "v": 102
    },
    {
      "midi": 42,
      "hit": false,
      "t": 137419.0800000075,
      "d": 45.36281250001048,
      "v": 95
    },
    {
      "midi": 35,
      "hit": false,
      "t": 137419.0800000075,
      "d": 105.84656250002445,
      "v": 87
    },
    {
      "midi": 50,
      "hit": false,
      "t": 137419.0800000075,
      "d": 433.4668750001001,
      "v": 104
    },
    {
      "midi": 74,
      "hit": false,
      "t": 137419.0800000075,
      "d": 1446.569687500334,
      "v": 47
    },
    {
      "midi": 38,
      "hit": false,
      "t": 137424.1203125075,
      "d": 498.99093750011525,
      "v": 102
    },
    {
      "midi": 98,
      "hit": false,
      "t": 137540.04750000752,
      "d": 5.040312500001164,
      "v": 41
    },
    {
      "midi": 82,
      "hit": false,
      "t": 137540.04750000752,
      "d": 5.040312500001164,
      "v": 51
    },
    {
      "midi": 57,
      "hit": false,
      "t": 137540.04750000752,
      "d": 15.120937500003492,
      "v": 85
    },
    {
      "midi": 66,
      "hit": false,
      "t": 137540.04750000752,
      "d": 15.120937500003492,
      "v": 68
    },
    {
      "midi": 62,
      "hit": false,
      "t": 137555.16843750753,
      "d": 15.120937500003492,
      "v": 93
    },
    {
      "midi": 54,
      "hit": false,
      "t": 137560.20875000753,
      "d": 40.32250000000931,
      "v": 34
    },
    {
      "midi": 82,
      "hit": false,
      "t": 137661.01500000755,
      "d": 10.080625000002328,
      "v": 60
    },
    {
      "midi": 42,
      "hit": false,
      "t": 137661.01500000755,
      "d": 40.32250000000931,
      "v": 82
    },
    {
      "midi": 54,
      "hit": false,
      "t": 137661.01500000755,
      "d": 70.5643750000163,
      "v": 94
    },
    {
      "midi": 57,
      "hit": false,
      "t": 137661.01500000755,
      "d": 75.60468750001746,
      "v": 68
    },
    {
      "midi": 66,
      "hit": false,
      "t": 137661.01500000755,
      "d": 75.60468750001746,
      "v": 75
    },
    {
      "midi": 62,
      "hit": false,
      "t": 137676.13593750756,
      "d": 75.60468750001746,
      "v": 90
    },
    {
      "midi": 57,
      "hit": false,
      "t": 137781.98250000758,
      "d": 15.120937500003492,
      "v": 96
    },
    {
      "midi": 66,
      "hit": false,
      "t": 137781.98250000758,
      "d": 15.120937500003492,
      "v": 78
    },
    {
      "midi": 98,
      "hit": false,
      "t": 137787.02281250758,
      "d": 10.080625000002328,
      "v": 45
    },
    {
      "midi": 82,
      "hit": false,
      "t": 137787.02281250758,
      "d": 10.080625000002328,
      "v": 58
    },
    {
      "midi": 62,
      "hit": false,
      "t": 137797.10343750758,
      "d": 15.120937500003492,
      "v": 80
    },
    {
      "midi": 54,
      "hit": false,
      "t": 137802.14375000758,
      "d": 40.32250000000931,
      "v": 40
    },
    {
      "midi": 98,
      "hit": false,
      "t": 137902.9500000076,
      "d": 10.080625000002328,
      "v": 84
    },
    {
      "midi": 82,
      "hit": false,
      "t": 137902.9500000076,
      "d": 10.080625000002328,
      "v": 108
    },
    {
      "midi": 57,
      "hit": false,
      "t": 137902.9500000076,
      "d": 15.120937500003492,
      "v": 92
    },
    {
      "midi": 66,
      "hit": false,
      "t": 137902.9500000076,
      "d": 15.120937500003492,
      "v": 88
    },
    {
      "midi": 42,
      "hit": false,
      "t": 137902.9500000076,
      "d": 65.52406250001513,
      "v": 98
    },
    {
      "midi": 40,
      "hit": false,
      "t": 137902.9500000076,
      "d": 70.5643750000163,
      "v": 94
    },
    {
      "midi": 71,
      "hit": false,
      "t": 137902.9500000076,
      "d": 433.4668750001001,
      "v": 104
    },
    {
      "midi": 62,
      "hit": false,
      "t": 137918.0709375076,
      "d": 15.120937500003492,
      "v": 86
    },
    {
      "midi": 98,
      "hit": false,
      "t": 138023.91750000764,
      "d": 5.040312500001164,
      "v": 35
    },
    {
      "midi": 82,
      "hit": false,
      "t": 138023.91750000764,
      "d": 5.040312500001164,
      "v": 43
    },
    {
      "midi": 57,
      "hit": false,
      "t": 138023.91750000764,
      "d": 75.60468750001746,
      "v": 68
    },
    {
      "midi": 66,
      "hit": false,
      "t": 138023.91750000764,
      "d": 75.60468750001746,
      "v": 89
    },
    {
      "midi": 62,
      "hit": false,
      "t": 138039.03843750764,
      "d": 75.60468750001746,
      "v": 68
    },
    {
      "midi": 54,
      "hit": false,
      "t": 138044.07875000764,
      "d": 40.32250000000931,
      "v": 39
    },
    {
      "midi": 82,
      "hit": false,
      "t": 138144.88500000766,
      "d": 10.080625000002328,
      "v": 66
    },
    {
      "midi": 57,
      "hit": false,
      "t": 138144.88500000766,
      "d": 15.120937500003492,
      "v": 97
    },
    {
      "midi": 66,
      "hit": false,
      "t": 138144.88500000766,
      "d": 15.120937500003492,
      "v": 79
    },
    {
      "midi": 42,
      "hit": false,
      "t": 138144.88500000766,
      "d": 40.32250000000931,
      "v": 82
    },
    {
      "midi": 54,
      "hit": false,
      "t": 138144.88500000766,
      "d": 85.68531250001979,
      "v": 47
    },
    {
      "midi": 38,
      "hit": false,
      "t": 138149.92531250766,
      "d": 136.08843750003143,
      "v": 89
    },
    {
      "midi": 62,
      "hit": false,
      "t": 138160.00593750767,
      "d": 15.120937500003492,
      "v": 78
    },
    {
      "midi": 57,
      "hit": false,
      "t": 138265.8525000077,
      "d": 15.120937500003492,
      "v": 91
    },
    {
      "midi": 66,
      "hit": false,
      "t": 138265.8525000077,
      "d": 15.120937500003492,
      "v": 84
    },
    {
      "midi": 29,
      "hit": false,
      "t": 138265.8525000077,
      "d": 95.76593750002212,
      "v": 45
    },
    {
      "midi": 98,
      "hit": false,
      "t": 138270.8928125077,
      "d": 10.080625000002328,
      "v": 49
    },
    {
      "midi": 82,
      "hit": false,
      "t": 138270.8928125077,
      "d": 10.080625000002328,
      "v": 64
    },
    {
      "midi": 62,
      "hit": false,
      "t": 138280.9734375077,
      "d": 15.120937500003492,
      "v": 98
    },
    {
      "midi": 54,
      "hit": false,
      "t": 138286.0137500077,
      "d": 40.32250000000931,
      "v": 39
    },
    {
      "midi": 98,
      "hit": false,
      "t": 138386.82000000772,
      "d": 10.080625000002328,
      "v": 78
    },
    {
      "midi": 82,
      "hit": false,
      "t": 138386.82000000772,
      "d": 10.080625000002328,
      "v": 102
    },
    {
      "midi": 42,
      "hit": false,
      "t": 138386.82000000772,
      "d": 60.48375000001397,
      "v": 98
    },
    {
      "midi": 35,
      "hit": false,
      "t": 138386.82000000772,
      "d": 90.72562500002095,
      "v": 86
    },
    {
      "midi": 66,
      "hit": false,
      "t": 138386.82000000772,
      "d": 95.76593750002212,
      "v": 70
    },
    {
      "midi": 69,
      "hit": false,
      "t": 138386.82000000772,
      "d": 433.4668750001001,
      "v": 104
    },
    {
      "midi": 38,
      "hit": false,
      "t": 138391.86031250772,
      "d": 55.443437500012806,
      "v": 93
    },
    {
      "midi": 62,
      "hit": false,
      "t": 138396.90062500772,
      "d": 95.76593750002212,
      "v": 95
    },
    {
      "midi": 57,
      "hit": false,
      "t": 138401.94093750772,
      "d": 95.76593750002212,
      "v": 78
    },
    {
      "midi": 98,
      "hit": false,
      "t": 138507.78750000775,
      "d": 5.040312500001164,
      "v": 41
    },
    {
      "midi": 82,
      "hit": false,
      "t": 138507.78750000775,
      "d": 5.040312500001164,
      "v": 51
    },
    {
      "midi": 66,
      "hit": false,
      "t": 138507.78750000775,
      "d": 95.76593750002212,
      "v": 95
    },
    {
      "midi": 31,
      "hit": false,
      "t": 138512.82781250775,
      "d": 5.040312500001164,
      "v": 42
    },
    {
      "midi": 62,
      "hit": false,
      "t": 138517.86812500775,
      "d": 95.76593750002212,
      "v": 75
    },
    {
      "midi": 57,
      "hit": false,
      "t": 138522.90843750775,
      "d": 95.76593750002212,
      "v": 86
    },
    {
      "midi": 54,
      "hit": false,
      "t": 138527.94875000775,
      "d": 40.32250000000931,
      "v": 34
    },
    {
      "midi": 82,
      "hit": false,
      "t": 138628.75500000778,
      "d": 10.080625000002328,
      "v": 60
    },
    {
      "midi": 42,
      "hit": false,
      "t": 138628.75500000778,
      "d": 40.32250000000931,
      "v": 73
    },
    {
      "midi": 66,
      "hit": false,
      "t": 138628.75500000778,
      "d": 95.76593750002212,
      "v": 90
    },
    {
      "midi": 38,
      "hit": false,
      "t": 138628.75500000778,
      "d": 297.3784375000687,
      "v": 101
    },
    {
      "midi": 62,
      "hit": false,
      "t": 138638.83562500778,
      "d": 95.76593750002212,
      "v": 89
    },
    {
      "midi": 57,
      "hit": false,
      "t": 138643.87593750778,
      "d": 95.76593750002212,
      "v": 87
    },
    {
      "midi": 54,
      "hit": false,
      "t": 138648.91625000778,
      "d": 70.5643750000163,
      "v": 93
    },
    {
      "midi": 31,
      "hit": false,
      "t": 138749.7225000078,
      "d": 5.040312500001164,
      "v": 34
    },
    {
      "midi": 66,
      "hit": false,
      "t": 138749.7225000078,
      "d": 95.76593750002212,
      "v": 71
    },
    {
      "midi": 98,
      "hit": false,
      "t": 138754.7628125078,
      "d": 10.080625000002328,
      "v": 45
    },
    {
      "midi": 82,
      "hit": false,
      "t": 138754.7628125078,
      "d": 10.080625000002328,
      "v": 58
    },
    {
      "midi": 62,
      "hit": false,
      "t": 138759.8031250078,
      "d": 95.76593750002212,
      "v": 91
    },
    {
      "midi": 57,
      "hit": false,
      "t": 138764.8434375078,
      "d": 95.76593750002212,
      "v": 98
    },
    {
      "midi": 54,
      "hit": false,
      "t": 138769.8837500078,
      "d": 40.32250000000931,
      "v": 31
    },
    {
      "midi": 98,
      "hit": false,
      "t": 138870.69000000783,
      "d": 10.080625000002328,
      "v": 84
    },
    {
      "midi": 82,
      "hit": false,
      "t": 138870.69000000783,
      "d": 10.080625000002328,
      "v": 108
    },
    {
      "midi": 40,
      "hit": false,
      "t": 138870.69000000783,
      "d": 65.52406250001513,
      "v": 91
    },
    {
      "midi": 57,
      "hit": false,
      "t": 138870.69000000783,
      "d": 100.80625000002328,
      "v": 57
    },
    {
      "midi": 66,
      "hit": false,
      "t": 138870.69000000783,
      "d": 100.80625000002328,
      "v": 78
    },
    {
      "midi": 62,
      "hit": false,
      "t": 138870.69000000783,
      "d": 100.80625000002328,
      "v": 78
    },
    {
      "midi": 67,
      "hit": false,
      "t": 138870.69000000783,
      "d": 433.4668750001001,
      "v": 104
    },
    {
      "midi": 39,
      "hit": false,
      "t": 138890.85125000784,
      "d": 70.5643750000163,
      "v": 76
    },
    {
      "midi": 40,
      "hit": false,
      "t": 138991.65750000786,
      "d": 5.040312500001164,
      "v": 68
    },
    {
      "midi": 98,
      "hit": false,
      "t": 138991.65750000786,
      "d": 5.040312500001164,
      "v": 35
    },
    {
      "midi": 82,
      "hit": false,
      "t": 138991.65750000786,
      "d": 5.040312500001164,
      "v": 43
    },
    {
      "midi": 38,
      "hit": false,
      "t": 138991.65750000786,
      "d": 5.040312500001164,
      "v": 93
    },
    {
      "midi": 57,
      "hit": false,
      "t": 138991.65750000786,
      "d": 15.120937500003492,
      "v": 95
    },
    {
      "midi": 66,
      "hit": false,
      "t": 138991.65750000786,
      "d": 15.120937500003492,
      "v": 80
    },
    {
      "midi": 62,
      "hit": false,
      "t": 139006.77843750786,
      "d": 15.120937500003492,
      "v": 85
    },
    {
      "midi": 54,
      "hit": false,
      "t": 139011.81875000786,
      "d": 40.32250000000931,
      "v": 39
    },
    {
      "midi": 45,
      "hit": false,
      "t": 139112.6250000079,
      "d": 5.040312500001164,
      "v": 77
    },
    {
      "midi": 82,
      "hit": false,
      "t": 139112.6250000079,
      "d": 10.080625000002328,
      "v": 66
    },
    {
      "midi": 57,
      "hit": false,
      "t": 139112.6250000079,
      "d": 15.120937500003492,
      "v": 72
    },
    {
      "midi": 66,
      "hit": false,
      "t": 139112.6250000079,
      "d": 15.120937500003492,
      "v": 83
    },
    {
      "midi": 54,
      "hit": false,
      "t": 139112.6250000079,
      "d": 85.68531250001979,
      "v": 50
    },
    {
      "midi": 38,
      "hit": false,
      "t": 139117.6653125079,
      "d": 226.8140625000524,
      "v": 93
    },
    {
      "midi": 62,
      "hit": false,
      "t": 139127.7459375079,
      "d": 15.120937500003492,
      "v": 82
    },
    {
      "midi": 57,
      "hit": false,
      "t": 139233.59250000792,
      "d": 15.120937500003492,
      "v": 102
    },
    {
      "midi": 66,
      "hit": false,
      "t": 139233.59250000792,
      "d": 15.120937500003492,
      "v": 107
    },
    {
      "midi": 98,
      "hit": false,
      "t": 139238.63281250792,
      "d": 10.080625000002328,
      "v": 49
    },
    {
      "midi": 82,
      "hit": false,
      "t": 139238.63281250792,
      "d": 10.080625000002328,
      "v": 64
    },
    {
      "midi": 62,
      "hit": false,
      "t": 139248.71343750792,
      "d": 15.120937500003492,
      "v": 79
    },
    {
      "midi": 54,
      "hit": false,
      "t": 139253.75375000792,
      "d": 40.32250000000931,
      "v": 40
    },
    {
      "midi": 49,
      "hit": false,
      "t": 139349.51968750794,
      "d": 5.040312500001164,
      "v": 79
    },
    {
      "midi": 44,
      "hit": false,
      "t": 139354.56000000794,
      "d": 5.040312500001164,
      "v": 64
    },
    {
      "midi": 60,
      "hit": false,
      "t": 139354.56000000794,
      "d": 5.040312500001164,
      "v": 85
    },
    {
      "midi": 35,
      "hit": false,
      "t": 139354.56000000794,
      "d": 105.84656249999534,
      "v": 87
    },
    {
      "midi": 36,
      "hit": false,
      "t": 139354.56000000794,
      "d": 176.41093750001164,
      "v": 101
    },
    {
      "midi": 71,
      "hit": false,
      "t": 139354.56000000794,
      "d": 211.6931250000198,
      "v": 104
    },
    {
      "midi": 67,
      "hit": false,
      "t": 139354.56000000794,
      "d": 211.6931250000198,
      "v": 104
    },
    {
      "midi": 48,
      "hit": false,
      "t": 139354.56000000794,
      "d": 433.4668750000419,
      "v": 104
    },
    {
      "midi": 55,
      "hit": false,
      "t": 139475.52750000794,
      "d": 30.241875000006985,
      "v": 56
    },
    {
      "midi": 60,
      "hit": false,
      "t": 139485.60812500794,
      "d": 25.20156250000582,
      "v": 50
    },
    {
      "midi": 64,
      "hit": false,
      "t": 139495.68875000795,
      "d": 30.241875000006985,
      "v": 33
    },
    {
      "midi": 46,
      "hit": false,
      "t": 139591.45468750797,
      "d": 5.040312500001164,
      "v": 69
    },
    {
      "midi": 62,
      "hit": false,
      "t": 139596.49500000797,
      "d": 5.040312500001164,
      "v": 91
    },
    {
      "midi": 60,
      "hit": false,
      "t": 139596.49500000797,
      "d": 5.040312500001164,
      "v": 94
    },
    {
      "midi": 72,
      "hit": false,
      "t": 139596.49500000797,
      "d": 105.84656249999534,
      "v": 104
    },
    {
      "midi": 55,
      "hit": false,
      "t": 139717.46250000797,
      "d": 20.161250000004657,
      "v": 96
    },
    {
      "midi": 71,
      "hit": false,
      "t": 139717.46250000797,
      "d": 105.84656250002445,
      "v": 104
    },
    {
      "midi": 60,
      "hit": false,
      "t": 139727.54312500797,
      "d": 20.161250000004657,
      "v": 89
    },
    {
      "midi": 64,
      "hit": false,
      "t": 139737.62375000797,
      "d": 15.120937500003492,
      "v": 84
    },
    {
      "midi": 44,
      "hit": false,
      "t": 139833.389687508,
      "d": 5.040312500001164,
      "v": 71
    },
    {
      "midi": 40,
      "hit": false,
      "t": 139838.430000008,
      "d": 70.5643749999872,
      "v": 94
    },
    {
      "midi": 60,
      "hit": false,
      "t": 139838.430000008,
      "d": 85.68531249999069,
      "v": 100
    },
    {
      "midi": 35,
      "hit": false,
      "t": 139838.430000008,
      "d": 105.84656249999534,
      "v": 87
    },
    {
      "midi": 36,
      "hit": false,
      "t": 139838.430000008,
      "d": 166.3303125000093,
      "v": 99
    },
    {
      "midi": 60,
      "hit": false,
      "t": 139959.397500008,
      "d": 10.080625000002328,
      "v": 100
    },
    {
      "midi": 67,
      "hit": false,
      "t": 139959.397500008,
      "d": 105.84656250002445,
      "v": 104
    },
    {
      "midi": 46,
      "hit": false,
      "t": 140080.36500000802,
      "d": 5.040312500001164,
      "v": 61
    },
    {
      "midi": 63,
      "hit": false,
      "t": 140080.36500000802,
      "d": 5.040312500001164,
      "v": 47
    },
    {
      "midi": 63,
      "hit": false,
      "t": 140201.33250000802,
      "d": 5.040312500001164,
      "v": 85
    },
    {
      "midi": 60,
      "hit": false,
      "t": 140201.33250000802,
      "d": 5.040312500001164,
      "v": 95
    },
    {
      "midi": 55,
      "hit": false,
      "t": 140201.33250000802,
      "d": 15.120937500003492,
      "v": 36
    },
    {
      "midi": 31,
      "hit": false,
      "t": 140206.37281250802,
      "d": 5.040312500001164,
      "v": 42
    },
    {
      "midi": 60,
      "hit": false,
      "t": 140211.41312500802,
      "d": 15.120937500003492,
      "v": 46
    },
    {
      "midi": 64,
      "hit": false,
      "t": 140221.49375000803,
      "d": 15.120937500003492,
      "v": 30
    },
    {
      "midi": 44,
      "hit": false,
      "t": 140322.30000000805,
      "d": 5.040312500001164,
      "v": 64
    },
    {
      "midi": 60,
      "hit": false,
      "t": 140322.30000000805,
      "d": 5.040312500001164,
      "v": 92
    },
    {
      "midi": 35,
      "hit": false,
      "t": 140322.30000000805,
      "d": 90.72562499999185,
      "v": 86
    },
    {
      "midi": 55,
      "hit": false,
      "t": 140322.30000000805,
      "d": 95.76593749999302,
      "v": 13
    },
    {
      "midi": 36,
      "hit": false,
      "t": 140322.30000000805,
      "d": 115.92718749999767,
      "v": 94
    },
    {
      "midi": 48,
      "hit": false,
      "t": 140322.30000000805,
      "d": 433.4668750000128,
      "v": 104
    },
    {
      "midi": 31,
      "hit": false,
      "t": 140443.26750000805,
      "d": 5.040312500001164,
      "v": 39
    },
    {
      "midi": 60,
      "hit": false,
      "t": 140443.26750000805,
      "d": 5.040312500001164,
      "v": 94
    },
    {
      "midi": 55,
      "hit": false,
      "t": 140443.26750000805,
      "d": 20.161250000004657,
      "v": 80
    },
    {
      "midi": 60,
      "hit": false,
      "t": 140453.34812500805,
      "d": 20.161250000004657,
      "v": 68
    },
    {
      "midi": 64,
      "hit": false,
      "t": 140463.42875000805,
      "d": 20.161250000004657,
      "v": 75
    },
    {
      "midi": 46,
      "hit": false,
      "t": 140564.23500000805,
      "d": 5.040312500001164,
      "v": 70
    },
    {
      "midi": 62,
      "hit": false,
      "t": 140564.23500000805,
      "d": 5.040312500001164,
      "v": 85
    },
    {
      "midi": 60,
      "hit": false,
      "t": 140564.23500000805,
      "d": 5.040312500001164,
      "v": 94
    },
    {
      "midi": 36,
      "hit": false,
      "t": 140564.23500000805,
      "d": 156.24968750000698,
      "v": 102
    },
    {
      "midi": 40,
      "hit": false,
      "t": 140806.17000000807,
      "d": 65.52406250001513,
      "v": 91
    },
    {
      "midi": 35,
      "hit": false,
      "t": 140806.17000000807,
      "d": 90.72562500002095,
      "v": 86
    },
    {
      "midi": 55,
      "hit": false,
      "t": 140806.17000000807,
      "d": 181.4512500000419,
      "v": 96
    },
    {
      "midi": 44,
      "hit": false,
      "t": 140811.21031250808,
      "d": 5.040312500001164,
      "v": 71
    },
    {
      "midi": 60,
      "hit": false,
      "t": 140816.25062500808,
      "d": 90.72562500002095,
      "v": 82
    },
    {
      "midi": 62,
      "hit": false,
      "t": 140927.1375000081,
      "d": 5.040312500001164,
      "v": 62
    },
    {
      "midi": 60,
      "hit": false,
      "t": 140927.1375000081,
      "d": 5.040312500001164,
      "v": 47
    },
    {
      "midi": 64,
      "hit": false,
      "t": 140937.2181250081,
      "d": 25.20156250000582,
      "v": 52
    },
    {
      "midi": 46,
      "hit": false,
      "t": 141048.10500000813,
      "d": 5.040312500001164,
      "v": 70
    },
    {
      "midi": 63,
      "hit": false,
      "t": 141048.10500000813,
      "d": 5.040312500001164,
      "v": 53
    },
    {
      "midi": 64,
      "hit": false,
      "t": 141169.07250000813,
      "d": 5.040312500001164,
      "v": 74
    },
    {
      "midi": 36,
      "hit": false,
      "t": 141169.07250000813,
      "d": 5.040312500001164,
      "v": 72
    },
    {
      "midi": 60,
      "hit": false,
      "t": 141169.07250000813,
      "d": 5.040312500001164,
      "v": 88
    },
    {
      "midi": 44,
      "hit": false,
      "t": 141290.04000000813,
      "d": 5.040312500001164,
      "v": 71
    },
    {
      "midi": 35,
      "hit": false,
      "t": 141290.04000000813,
      "d": 90.72562499999185,
      "v": 79
    },
    {
      "midi": 38,
      "hit": false,
      "t": 141290.04000000813,
      "d": 171.37062500001048,
      "v": 96
    },
    {
      "midi": 71,
      "hit": false,
      "t": 141290.04000000813,
      "d": 211.6931250000198,
      "v": 104
    },
    {
      "midi": 50,
      "hit": false,
      "t": 141290.04000000813,
      "d": 433.4668750000419,
      "v": 104
    },
    {
      "midi": 62,
      "hit": false,
      "t": 141411.00750000813,
      "d": 10.080625000002328,
      "v": 90
    },
    {
      "midi": 57,
      "hit": false,
      "t": 141411.00750000813,
      "d": 30.241875000006985,
      "v": 56
    },
    {
      "midi": 62,
      "hit": false,
      "t": 141421.08812500813,
      "d": 25.20156250000582,
      "v": 50
    },
    {
      "midi": 67,
      "hit": false,
      "t": 141431.16875000813,
      "d": 30.241875000006985,
      "v": 33
    },
    {
      "midi": 46,
      "hit": false,
      "t": 141526.93468750815,
      "d": 5.040312500001164,
      "v": 74
    },
    {
      "midi": 62,
      "hit": false,
      "t": 141531.97500000815,
      "d": 5.040312500001164,
      "v": 85
    },
    {
      "midi": 72,
      "hit": false,
      "t": 141531.97500000815,
      "d": 105.84656249999534,
      "v": 104
    },
    {
      "midi": 62,
      "hit": false,
      "t": 141542.05562500816,
      "d": 95.76593749999302,
      "v": 57
    },
    {
      "midi": 62,
      "hit": false,
      "t": 141652.94250000815,
      "d": 10.080625000002328,
      "v": 92
    },
    {
      "midi": 57,
      "hit": false,
      "t": 141652.94250000815,
      "d": 20.161250000004657,
      "v": 96
    },
    {
      "midi": 71,
      "hit": false,
      "t": 141652.94250000815,
      "d": 105.84656250002445,
      "v": 104
    },
    {
      "midi": 62,
      "hit": false,
      "t": 141663.02312500816,
      "d": 20.161250000004657,
      "v": 89
    },
    {
      "midi": 67,
      "hit": false,
      "t": 141673.10375000816,
      "d": 15.120937500003492,
      "v": 84
    },
    {
      "midi": 44,
      "hit": false,
      "t": 141773.91000000818,
      "d": 5.040312500001164,
      "v": 61
    },
    {
      "midi": 40,
      "hit": false,
      "t": 141773.91000000818,
      "d": 65.52406250001513,
      "v": 91
    },
    {
      "midi": 35,
      "hit": false,
      "t": 141773.91000000818,
      "d": 90.72562500002095,
      "v": 79
    },
    {
      "midi": 38,
      "hit": false,
      "t": 141773.91000000818,
      "d": 176.41093750004075,
      "v": 96
    },
    {
      "midi": 62,
      "hit": false,
      "t": 141894.8775000082,
      "d": 10.080625000002328,
      "v": 91
    },
    {
      "midi": 67,
      "hit": false,
      "t": 141894.8775000082,
      "d": 105.84656250002445,
      "v": 104
    },
    {
      "midi": 46,
      "hit": false,
      "t": 142010.80468750824,
      "d": 5.040312500001164,
      "v": 67
    },
    {
      "midi": 63,
      "hit": false,
      "t": 142015.84500000824,
      "d": 5.040312500001164,
      "v": 37
    },
    {
      "midi": 57,
      "hit": false,
      "t": 142015.84500000824,
      "d": 191.53187500001513,
      "v": 90
    },
    {
      "midi": 62,
      "hit": false,
      "t": 142025.92562500824,
      "d": 5.040312500001164,
      "v": 81
    },
    {
      "midi": 63,
      "hit": false,
      "t": 142136.81250000824,
      "d": 5.040312500001164,
      "v": 80
    },
    {
      "midi": 62,
      "hit": false,
      "t": 142136.81250000824,
      "d": 5.040312500001164,
      "v": 30
    },
    {
      "midi": 38,
      "hit": false,
      "t": 142136.81250000824,
      "d": 15.120937500003492,
      "v": 86
    },
    {
      "midi": 64,
      "hit": false,
      "t": 142136.81250000824,
      "d": 539.3134375000664,
      "v": 104
    },
    {
      "midi": 31,
      "hit": false,
      "t": 142141.85281250824,
      "d": 5.040312500001164,
      "v": 39
    },
    {
      "midi": 67,
      "hit": false,
      "t": 142146.89312500824,
      "d": 30.241875000006985,
      "v": 30
    },
    {
      "midi": 44,
      "hit": false,
      "t": 142257.78000000826,
      "d": 5.040312500001164,
      "v": 71
    },
    {
      "midi": 35,
      "hit": false,
      "t": 142257.78000000826,
      "d": 90.72562499999185,
      "v": 86
    },
    {
      "midi": 38,
      "hit": false,
      "t": 142257.78000000826,
      "d": 95.76593749999302,
      "v": 94
    },
    {
      "midi": 50,
      "hit": false,
      "t": 142257.78000000826,
      "d": 433.4668750000419,
      "v": 104
    },
    {
      "midi": 62,
      "hit": false,
      "t": 142378.74750000826,
      "d": 10.080625000002328,
      "v": 95
    },
    {
      "midi": 57,
      "hit": false,
      "t": 142378.74750000826,
      "d": 20.161250000004657,
      "v": 91
    },
    {
      "midi": 62,
      "hit": false,
      "t": 142388.82812500827,
      "d": 25.20156250000582,
      "v": 82
    },
    {
      "midi": 67,
      "hit": false,
      "t": 142398.90875000827,
      "d": 50.40312500001164,
      "v": 86
    },
    {
      "midi": 46,
      "hit": false,
      "t": 142494.6746875083,
      "d": 5.040312500001164,
      "v": 64
    },
    {
      "midi": 62,
      "hit": false,
      "t": 142499.7150000083,
      "d": 5.040312500001164,
      "v": 78
    },
    {
      "midi": 38,
      "hit": false,
      "t": 142499.7150000083,
      "d": 166.3303125000093,
      "v": 97
    },
    {
      "midi": 62,
      "hit": false,
      "t": 142620.6825000083,
      "d": 10.080625000002328,
      "v": 97
    },
    {
      "midi": 44,
      "hit": false,
      "t": 142741.65000000832,
      "d": 5.040312500001164,
      "v": 71
    },
    {
      "midi": 40,
      "hit": false,
      "t": 142741.65000000832,
      "d": 65.52406250001513,
      "v": 94
    },
    {
      "midi": 35,
      "hit": false,
      "t": 142741.65000000832,
      "d": 90.72562500002095,
      "v": 86
    },
    {
      "midi": 62,
      "hit": false,
      "t": 142862.61750000835,
      "d": 5.040312500001164,
      "v": 62
    },
    {
      "midi": 57,
      "hit": false,
      "t": 142862.61750000835,
      "d": 10.080625000002328,
      "v": 76
    },
    {
      "midi": 38,
      "hit": false,
      "t": 142862.61750000835,
      "d": 15.120937500003492,
      "v": 86
    },
    {
      "midi": 62,
      "hit": false,
      "t": 142872.69812500835,
      "d": 15.120937500003492,
      "v": 65
    },
    {
      "midi": 67,
      "hit": false,
      "t": 142882.77875000835,
      "d": 15.120937500003492,
      "v": 69
    },
    {
      "midi": 46,
      "hit": false,
      "t": 142983.58500000834,
      "d": 5.040312500001164,
      "v": 70
    },
    {
      "midi": 63,
      "hit": false,
      "t": 142983.58500000834,
      "d": 5.040312500001164,
      "v": 55
    },
    {
      "midi": 62,
      "hit": false,
      "t": 142983.58500000834,
      "d": 105.84656249999534,
      "v": 63
    },
    {
      "midi": 33,
      "hit": false,
      "t": 142983.58500000834,
      "d": 196.5721874999872,
      "v": 83
    },
    {
      "midi": 63,
      "hit": false,
      "t": 143104.55250000834,
      "d": 5.040312500001164,
      "v": 70
    },
    {
      "midi": 62,
      "hit": false,
      "t": 143104.55250000834,
      "d": 5.040312500001164,
      "v": 92
    },
    {
      "midi": 44,
      "hit": false,
      "t": 143225.52000000834,
      "d": 5.040312500001164,
      "v": 71
    },
    {
      "midi": 59,
      "hit": false,
      "t": 143225.52000000834,
      "d": 5.040312500001164,
      "v": 94
    },
    {
      "midi": 35,
      "hit": false,
      "t": 143225.52000000834,
      "d": 90.72562499999185,
      "v": 87
    },
    {
      "midi": 28,
      "hit": false,
      "t": 143225.52000000834,
      "d": 176.41093750001164,
      "v": 101
    },
    {
      "midi": 52,
      "hit": false,
      "t": 143225.52000000834,
      "d": 433.4668750000128,
      "v": 104
    },
    {
      "midi": 66,
      "hit": false,
      "t": 143225.52000000834,
      "d": 866.9337500000256,
      "v": 104
    },
    {
      "midi": 59,
      "hit": false,
      "t": 143346.48750000834,
      "d": 30.241875000006985,
      "v": 46
    },
    {
      "midi": 64,
      "hit": false,
      "t": 143356.56812500834,
      "d": 30.241875000006985,
      "v": 26
    },
    {
      "midi": 46,
      "hit": false,
      "t": 143467.45500000834,
      "d": 5.040312500001164,
      "v": 70
    },
    {
      "midi": 62,
      "hit": false,
      "t": 143467.45500000834,
      "d": 5.040312500001164,
      "v": 63
    },
    {
      "midi": 59,
      "hit": false,
      "t": 143467.45500000834,
      "d": 5.040312500001164,
      "v": 85
    },
    {
      "midi": 55,
      "hit": false,
      "t": 143588.42250000834,
      "d": 20.161250000004657,
      "v": 77
    },
    {
      "midi": 59,
      "hit": false,
      "t": 143598.50312500834,
      "d": 25.20156250000582,
      "v": 73
    },
    {
      "midi": 64,
      "hit": false,
      "t": 143608.58375000834,
      "d": 20.161250000004657,
      "v": 85
    },
    {
      "midi": 44,
      "hit": false,
      "t": 143709.39000000837,
      "d": 5.040312500001164,
      "v": 64
    },
    {
      "midi": 40,
      "hit": false,
      "t": 143709.39000000837,
      "d": 75.60468749998836,
      "v": 94
    },
    {
      "midi": 35,
      "hit": false,
      "t": 143709.39000000837,
      "d": 90.72562499999185,
      "v": 87
    },
    {
      "midi": 59,
      "hit": false,
      "t": 143709.39000000837,
      "d": 105.84656249999534,
      "v": 94
    },
    {
      "midi": 28,
      "hit": false,
      "t": 143709.39000000837,
      "d": 166.3303125000093,
      "v": 99
    },
    {
      "midi": 59,
      "hit": false,
      "t": 143830.35750000837,
      "d": 5.040312500001164,
      "v": 100
    },
    {
      "midi": 63,
      "hit": false,
      "t": 143946.28468750836,
      "d": 5.040312500001164,
      "v": 46
    },
    {
      "midi": 46,
      "hit": false,
      "t": 143951.32500000836,
      "d": 5.040312500001164,
      "v": 70
    },
    {
      "midi": 59,
      "hit": false,
      "t": 144072.29250000836,
      "d": 5.040312500001164,
      "v": 88
    },
    {
      "midi": 55,
      "hit": false,
      "t": 144072.29250000836,
      "d": 20.161250000004657,
      "v": 51
    },
    {
      "midi": 31,
      "hit": false,
      "t": 144077.33281250836,
      "d": 5.040312500001164,
      "v": 28
    },
    {
      "midi": 59,
      "hit": false,
      "t": 144082.37312500837,
      "d": 20.161250000004657,
      "v": 46
    },
    {
      "midi": 63,
      "hit": false,
      "t": 144087.41343750837,
      "d": 5.040312500001164,
      "v": 85
    },
    {
      "midi": 64,
      "hit": false,
      "t": 144092.45375000837,
      "d": 20.161250000004657,
      "v": 38
    },
    {
      "midi": 44,
      "hit": false,
      "t": 144193.2600000084,
      "d": 5.040312500001164,
      "v": 64
    },
    {
      "midi": 59,
      "hit": false,
      "t": 144193.2600000084,
      "d": 5.040312500001164,
      "v": 94
    },
    {
      "midi": 35,
      "hit": false,
      "t": 144193.2600000084,
      "d": 95.76593749999302,
      "v": 87
    },
    {
      "midi": 28,
      "hit": false,
      "t": 144193.2600000084,
      "d": 115.92718749999767,
      "v": 94
    },
    {
      "midi": 52,
      "hit": false,
      "t": 144193.2600000084,
      "d": 433.4668750000128,
      "v": 104
    },
    {
      "midi": 71,
      "hit": false,
      "t": 144193.2600000084,
      "d": 650.2003125000629,
      "v": 104
    },
    {
      "midi": 55,
      "hit": false,
      "t": 144314.2275000084,
      "d": 10.080625000002328,
      "v": 64
    },
    {
      "midi": 31,
      "hit": false,
      "t": 144319.2678125084,
      "d": 5.040312500001164,
      "v": 39
    },
    {
      "midi": 59,
      "hit": false,
      "t": 144324.3081250084,
      "d": 20.161250000004657,
      "v": 58
    },
    {
      "midi": 64,
      "hit": false,
      "t": 144334.3887500084,
      "d": 20.161250000004657,
      "v": 69
    },
    {
      "midi": 62,
      "hit": false,
      "t": 144430.1546875084,
      "d": 5.040312500001164,
      "v": 85
    },
    {
      "midi": 46,
      "hit": false,
      "t": 144435.1950000084,
      "d": 5.040312500001164,
      "v": 70
    },
    {
      "midi": 59,
      "hit": false,
      "t": 144435.1950000084,
      "d": 5.040312500001164,
      "v": 93
    },
    {
      "midi": 28,
      "hit": false,
      "t": 144435.1950000084,
      "d": 156.24968750000698,
      "v": 102
    },
    {
      "midi": 44,
      "hit": false,
      "t": 144677.13000000842,
      "d": 5.040312500001164,
      "v": 64
    },
    {
      "midi": 40,
      "hit": false,
      "t": 144677.13000000842,
      "d": 60.48375000001397,
      "v": 94
    },
    {
      "midi": 35,
      "hit": false,
      "t": 144677.13000000842,
      "d": 95.76593750002212,
      "v": 87
    },
    {
      "midi": 59,
      "hit": false,
      "t": 144687.21062500842,
      "d": 95.76593750002212,
      "v": 76
    },
    {
      "midi": 62,
      "hit": false,
      "t": 144793.05718750844,
      "d": 5.040312500001164,
      "v": 58
    },
    {
      "midi": 59,
      "hit": false,
      "t": 144798.09750000844,
      "d": 5.040312500001164,
      "v": 100
    },
    {
      "midi": 55,
      "hit": false,
      "t": 144798.09750000844,
      "d": 20.161250000004657,
      "v": 70
    },
    {
      "midi": 59,
      "hit": false,
      "t": 144808.17812500845,
      "d": 20.161250000004657,
      "v": 57
    },
    {
      "midi": 64,
      "hit": false,
      "t": 144818.25875000845,
      "d": 20.161250000004657,
      "v": 66
    },
    {
      "midi": 63,
      "hit": false,
      "t": 144914.02468750844,
      "d": 5.040312500001164,
      "v": 55
    },
    {
      "midi": 46,
      "hit": false,
      "t": 144919.06500000844,
      "d": 5.040312500001164,
      "v": 70
    },
    {
      "midi": 69,
      "hit": false,
      "t": 144919.06500000844,
      "d": 105.84656249999534,
      "v": 104
    },
    {
      "midi": 64,
      "hit": false,
      "t": 145040.03250000844,
      "d": 5.040312500001164,
      "v": 78
    },
    {
      "midi": 40,
      "hit": false,
      "t": 145040.03250000844,
      "d": 5.040312500001164,
      "v": 72
    },
    {
      "midi": 59,
      "hit": false,
      "t": 145040.03250000844,
      "d": 5.040312500001164,
      "v": 92
    },
    {
      "midi": 29,
      "hit": false,
      "t": 145040.03250000844,
      "d": 95.76593749999302,
      "v": 52
    },
    {
      "midi": 67,
      "hit": false,
      "t": 145040.03250000844,
      "d": 105.84656249999534,
      "v": 104
    },
    {
      "midi": 44,
      "hit": false,
      "t": 145161.00000000844,
      "d": 5.040312500001164,
      "v": 64
    },
    {
      "midi": 35,
      "hit": false,
      "t": 145161.00000000844,
      "d": 105.84656249999534,
      "v": 87
    },
    {
      "midi": 37,
      "hit": false,
      "t": 145161.00000000844,
      "d": 171.37062500001048,
      "v": 96
    },
    {
      "midi": 49,
      "hit": false,
      "t": 145161.00000000844,
      "d": 433.4668750000419,
      "v": 104
    },
    {
      "midi": 66,
      "hit": false,
      "t": 145161.00000000844,
      "d": 650.2003125000629,
      "v": 104
    },
    {
      "midi": 61,
      "hit": false,
      "t": 145281.96750000844,
      "d": 5.040312500001164,
      "v": 85
    },
    {
      "midi": 57,
      "hit": false,
      "t": 145281.96750000844,
      "d": 15.120937500003492,
      "v": 35
    },
    {
      "midi": 61,
      "hit": false,
      "t": 145292.04812500844,
      "d": 15.120937500003492,
      "v": 38
    },
    {
      "midi": 64,
      "hit": false,
      "t": 145302.12875000844,
      "d": 15.120937500003492,
      "v": 38
    },
    {
      "midi": 62,
      "hit": false,
      "t": 145387.81406250846,
      "d": 5.040312500001164,
      "v": 77
    },
    {
      "midi": 46,
      "hit": false,
      "t": 145397.89468750847,
      "d": 5.040312500001164,
      "v": 69
    },
    {
      "midi": 61,
      "hit": false,
      "t": 145413.01562500847,
      "d": 95.76593749999302,
      "v": 54
    },
    {
      "midi": 61,
      "hit": false,
      "t": 145523.90250000847,
      "d": 10.080625000002328,
      "v": 88
    },
    {
      "midi": 57,
      "hit": false,
      "t": 145523.90250000847,
      "d": 20.161250000004657,
      "v": 89
    },
    {
      "midi": 61,
      "hit": false,
      "t": 145533.98312500847,
      "d": 20.161250000004657,
      "v": 76
    },
    {
      "midi": 64,
      "hit": false,
      "t": 145544.06375000847,
      "d": 5.040312500001164,
      "v": 90
    },
    {
      "midi": 44,
      "hit": false,
      "t": 145639.8296875085,
      "d": 5.040312500001164,
      "v": 71
    },
    {
      "midi": 40,
      "hit": false,
      "t": 145644.8700000085,
      "d": 70.5643749999872,
      "v": 94
    },
    {
      "midi": 35,
      "hit": false,
      "t": 145644.8700000085,
      "d": 105.84656249999534,
      "v": 87
    },
    {
      "midi": 37,
      "hit": false,
      "t": 145644.8700000085,
      "d": 176.41093750001164,
      "v": 96
    },
    {
      "midi": 61,
      "hit": false,
      "t": 145765.8375000085,
      "d": 10.080625000002328,
      "v": 88
    },
    {
      "midi": 63,
      "hit": false,
      "t": 145871.68406250852,
      "d": 5.040312500001164,
      "v": 55
    },
    {
      "midi": 46,
      "hit": false,
      "t": 145886.80500000852,
      "d": 5.040312500001164,
      "v": 61
    },
    {
      "midi": 67,
      "hit": false,
      "t": 145886.80500000852,
      "d": 650.2003125000338,
      "v": 104
    },
    {
      "midi": 61,
      "hit": false,
      "t": 145896.88562500852,
      "d": 95.76593749999302,
      "v": 78
    },
    {
      "midi": 63,
      "hit": false,
      "t": 146007.77250000852,
      "d": 5.040312500001164,
      "v": 88
    },
    {
      "midi": 57,
      "hit": false,
      "t": 146007.77250000852,
      "d": 10.080625000002328,
      "v": 48
    },
    {
      "midi": 61,
      "hit": false,
      "t": 146007.77250000852,
      "d": 10.080625000002328,
      "v": 92
    },
    {
      "midi": 37,
      "hit": false,
      "t": 146007.77250000852,
      "d": 15.120937500003492,
      "v": 86
    },
    {
      "midi": 31,
      "hit": false,
      "t": 146012.81281250852,
      "d": 5.040312500001164,
      "v": 39
    },
    {
      "midi": 61,
      "hit": false,
      "t": 146017.85312500852,
      "d": 110.88687500002561,
      "v": 60
    },
    {
      "midi": 64,
      "hit": false,
      "t": 146027.93375000852,
      "d": 10.080625000002328,
      "v": 52
    },
    {
      "midi": 44,
      "hit": false,
      "t": 146128.74000000855,
      "d": 5.040312500001164,
      "v": 64
    },
    {
      "midi": 61,
      "hit": false,
      "t": 146128.74000000855,
      "d": 5.040312500001164,
      "v": 40
    },
    {
      "midi": 35,
      "hit": false,
      "t": 146128.74000000855,
      "d": 90.72562499999185,
      "v": 86
    },
    {
      "midi": 37,
      "hit": false,
      "t": 146128.74000000855,
      "d": 95.76593749999302,
      "v": 94
    },
    {
      "midi": 49,
      "hit": false,
      "t": 146128.74000000855,
      "d": 433.4668750000128,
      "v": 104
    },
    {
      "midi": 31,
      "hit": false,
      "t": 146249.70750000855,
      "d": 5.040312500001164,
      "v": 30
    },
    {
      "midi": 57,
      "hit": false,
      "t": 146249.70750000855,
      "d": 10.080625000002328,
      "v": 66
    },
    {
      "midi": 61,
      "hit": false,
      "t": 146249.70750000855,
      "d": 10.080625000002328,
      "v": 91
    },
    {
      "midi": 61,
      "hit": false,
      "t": 146259.78812500855,
      "d": 25.20156250000582,
      "v": 58
    },
    {
      "midi": 64,
      "hit": false,
      "t": 146269.86875000855,
      "d": 20.161250000004657,
      "v": 68
    },
    {
      "midi": 62,
      "hit": false,
      "t": 146365.63468750854,
      "d": 5.040312500001164,
      "v": 68
    },
    {
      "midi": 46,
      "hit": false,
      "t": 146370.67500000854,
      "d": 5.040312500001164,
      "v": 70
    },
    {
      "midi": 61,
      "hit": false,
      "t": 146370.67500000854,
      "d": 105.84656249999534,
      "v": 79
    },
    {
      "midi": 37,
      "hit": false,
      "t": 146370.67500000854,
      "d": 166.3303125000093,
      "v": 97
    },
    {
      "midi": 61,
      "hit": false,
      "t": 146491.64250000854,
      "d": 10.080625000002328,
      "v": 91
    },
    {
      "midi": 40,
      "hit": false,
      "t": 146612.61000000857,
      "d": 65.52406250001513,
      "v": 91
    },
    {
      "midi": 35,
      "hit": false,
      "t": 146612.61000000857,
      "d": 90.72562500002095,
      "v": 86
    },
    {
      "midi": 69,
      "hit": false,
      "t": 146612.61000000857,
      "d": 433.4668750000419,
      "v": 104
    },
    {
      "midi": 44,
      "hit": false,
      "t": 146617.65031250857,
      "d": 5.040312500001164,
      "v": 71
    },
    {
      "midi": 61,
      "hit": false,
      "t": 146733.5775000086,
      "d": 10.080625000002328,
      "v": 93
    },
    {
      "midi": 37,
      "hit": false,
      "t": 146733.5775000086,
      "d": 15.120937500003492,
      "v": 86
    },
    {
      "midi": 57,
      "hit": false,
      "t": 146733.5775000086,
      "d": 30.241875000006985,
      "v": 43
    },
    {
      "midi": 61,
      "hit": false,
      "t": 146743.6581250086,
      "d": 25.20156250000582,
      "v": 75
    },
    {
      "midi": 62,
      "hit": false,
      "t": 146748.6984375086,
      "d": 5.040312500001164,
      "v": 56
    },
    {
      "midi": 64,
      "hit": false,
      "t": 146753.7387500086,
      "d": 25.20156250000582,
      "v": 60
    },
    {
      "midi": 46,
      "hit": false,
      "t": 146854.5450000086,
      "d": 5.040312500001164,
      "v": 70
    },
    {
      "midi": 61,
      "hit": false,
      "t": 146854.5450000086,
      "d": 15.120937500003492,
      "v": 58
    },
    {
      "midi": 37,
      "hit": false,
      "t": 146854.5450000086,
      "d": 196.5721875000163,
      "v": 83
    },
    {
      "midi": 64,
      "hit": false,
      "t": 146864.6256250086,
      "d": 5.040312500001164,
      "v": 56
    },
    {
      "midi": 61,
      "hit": false,
      "t": 146975.5125000086,
      "d": 5.040312500001164,
      "v": 92
    },
    {
      "midi": 63,
      "hit": false,
      "t": 146995.6737500086,
      "d": 5.040312500001164,
      "v": 80
    },
    {
      "midi": 44,
      "hit": false,
      "t": 147096.48000000863,
      "d": 5.040312500001164,
      "v": 64
    },
    {
      "midi": 60,
      "hit": false,
      "t": 147096.48000000863,
      "d": 5.040312500001164,
      "v": 85
    },
    {
      "midi": 35,
      "hit": false,
      "t": 147096.48000000863,
      "d": 105.84656249999534,
      "v": 87
    },
    {
      "midi": 36,
      "hit": false,
      "t": 147096.48000000863,
      "d": 176.41093750001164,
      "v": 101
    },
    {
      "midi": 71,
      "hit": false,
      "t": 147096.48000000863,
      "d": 211.6931250000198,
      "v": 104
    },
    {
      "midi": 48,
      "hit": false,
      "t": 147096.48000000863,
      "d": 433.4668750000419,
      "v": 104
    },
    {
      "midi": 55,
      "hit": false,
      "t": 147217.44750000862,
      "d": 30.241875000006985,
      "v": 56
    },
    {
      "midi": 60,
      "hit": false,
      "t": 147227.52812500863,
      "d": 25.20156250000582,
      "v": 50
    },
    {
      "midi": 64,
      "hit": false,
      "t": 147237.60875000863,
      "d": 30.241875000006985,
      "v": 33
    },
    {
      "midi": 46,
      "hit": false,
      "t": 147333.37468750865,
      "d": 5.040312500001164,
      "v": 69
    },
    {
      "midi": 62,
      "hit": false,
      "t": 147338.41500000865,
      "d": 5.040312500001164,
      "v": 91
    },
    {
      "midi": 60,
      "hit": false,
      "t": 147338.41500000865,
      "d": 5.040312500001164,
      "v": 94
    },
    {
      "midi": 72,
      "hit": false,
      "t": 147338.41500000865,
      "d": 105.84656249999534,
      "v": 104
    },
    {
      "midi": 55,
      "hit": false,
      "t": 147459.38250000865,
      "d": 20.161250000004657,
      "v": 96
    },
    {
      "midi": 71,
      "hit": false,
      "t": 147459.38250000865,
      "d": 105.84656250002445,
      "v": 104
    },
    {
      "midi": 60,
      "hit": false,
      "t": 147469.46312500865,
      "d": 20.161250000004657,
      "v": 89
    },
    {
      "midi": 64,
      "hit": false,
      "t": 147479.54375000866,
      "d": 15.120937500003492,
      "v": 84
    },
    {
      "midi": 44,
      "hit": false,
      "t": 147575.30968750868,
      "d": 5.040312500001164,
      "v": 71
    },
    {
      "midi": 40,
      "hit": false,
      "t": 147580.35000000868,
      "d": 70.5643749999872,
      "v": 94
    },
    {
      "midi": 60,
      "hit": false,
      "t": 147580.35000000868,
      "d": 85.68531249999069,
      "v": 100
    },
    {
      "midi": 35,
      "hit": false,
      "t": 147580.35000000868,
      "d": 105.84656249999534,
      "v": 87
    },
    {
      "midi": 36,
      "hit": false,
      "t": 147580.35000000868,
      "d": 166.3303125000093,
      "v": 99
    },
    {
      "midi": 60,
      "hit": false,
      "t": 147701.31750000868,
      "d": 10.080625000002328,
      "v": 100
    },
    {
      "midi": 67,
      "hit": false,
      "t": 147701.31750000868,
      "d": 105.84656250002445,
      "v": 104
    },
    {
      "midi": 46,
      "hit": false,
      "t": 147822.2850000087,
      "d": 5.040312500001164,
      "v": 61
    },
    {
      "midi": 63,
      "hit": false,
      "t": 147822.2850000087,
      "d": 5.040312500001164,
      "v": 47
    },
    {
      "midi": 63,
      "hit": false,
      "t": 147943.2525000087,
      "d": 5.040312500001164,
      "v": 85
    },
    {
      "midi": 60,
      "hit": false,
      "t": 147943.2525000087,
      "d": 5.040312500001164,
      "v": 95
    },
    {
      "midi": 55,
      "hit": false,
      "t": 147943.2525000087,
      "d": 15.120937500003492,
      "v": 36
    },
    {
      "midi": 31,
      "hit": false,
      "t": 147948.2928125087,
      "d": 5.040312500001164,
      "v": 42
    },
    {
      "midi": 60,
      "hit": false,
      "t": 147953.3331250087,
      "d": 15.120937500003492,
      "v": 46
    },
    {
      "midi": 64,
      "hit": false,
      "t": 147963.4137500087,
      "d": 15.120937500003492,
      "v": 30
    },
    {
      "midi": 44,
      "hit": false,
      "t": 148064.22000000873,
      "d": 5.040312500001164,
      "v": 64
    },
    {
      "midi": 60,
      "hit": false,
      "t": 148064.22000000873,
      "d": 5.040312500001164,
      "v": 92
    },
    {
      "midi": 35,
      "hit": false,
      "t": 148064.22000000873,
      "d": 90.72562499999185,
      "v": 86
    },
    {
      "midi": 55,
      "hit": false,
      "t": 148064.22000000873,
      "d": 95.76593749999302,
      "v": 13
    },
    {
      "midi": 36,
      "hit": false,
      "t": 148064.22000000873,
      "d": 115.92718749999767,
      "v": 94
    },
    {
      "midi": 48,
      "hit": false,
      "t": 148064.22000000873,
      "d": 433.4668750000128,
      "v": 104
    },
    {
      "midi": 31,
      "hit": false,
      "t": 148185.18750000873,
      "d": 5.040312500001164,
      "v": 39
    },
    {
      "midi": 60,
      "hit": false,
      "t": 148185.18750000873,
      "d": 5.040312500001164,
      "v": 94
    },
    {
      "midi": 55,
      "hit": false,
      "t": 148185.18750000873,
      "d": 20.161250000004657,
      "v": 80
    },
    {
      "midi": 60,
      "hit": false,
      "t": 148195.26812500873,
      "d": 20.161250000004657,
      "v": 68
    },
    {
      "midi": 64,
      "hit": false,
      "t": 148205.34875000874,
      "d": 20.161250000004657,
      "v": 75
    },
    {
      "midi": 46,
      "hit": false,
      "t": 148306.15500000873,
      "d": 5.040312500001164,
      "v": 70
    },
    {
      "midi": 62,
      "hit": false,
      "t": 148306.15500000873,
      "d": 5.040312500001164,
      "v": 85
    },
    {
      "midi": 60,
      "hit": false,
      "t": 148306.15500000873,
      "d": 5.040312500001164,
      "v": 94
    },
    {
      "midi": 36,
      "hit": false,
      "t": 148306.15500000873,
      "d": 156.24968750000698,
      "v": 102
    },
    {
      "midi": 40,
      "hit": false,
      "t": 148548.09000000876,
      "d": 65.52406250001513,
      "v": 91
    },
    {
      "midi": 35,
      "hit": false,
      "t": 148548.09000000876,
      "d": 90.72562500002095,
      "v": 86
    },
    {
      "midi": 55,
      "hit": false,
      "t": 148548.09000000876,
      "d": 181.4512500000419,
      "v": 96
    },
    {
      "midi": 44,
      "hit": false,
      "t": 148553.13031250876,
      "d": 5.040312500001164,
      "v": 71
    },
    {
      "midi": 60,
      "hit": false,
      "t": 148558.17062500876,
      "d": 90.72562500002095,
      "v": 82
    },
    {
      "midi": 62,
      "hit": false,
      "t": 148669.05750000878,
      "d": 5.040312500001164,
      "v": 62
    },
    {
      "midi": 60,
      "hit": false,
      "t": 148669.05750000878,
      "d": 5.040312500001164,
      "v": 47
    },
    {
      "midi": 64,
      "hit": false,
      "t": 148679.1381250088,
      "d": 25.20156250000582,
      "v": 52
    },
    {
      "midi": 46,
      "hit": false,
      "t": 148790.0250000088,
      "d": 5.040312500001164,
      "v": 70
    },
    {
      "midi": 63,
      "hit": false,
      "t": 148790.0250000088,
      "d": 5.040312500001164,
      "v": 53
    },
    {
      "midi": 64,
      "hit": false,
      "t": 148910.9925000088,
      "d": 5.040312500001164,
      "v": 74
    },
    {
      "midi": 36,
      "hit": false,
      "t": 148910.9925000088,
      "d": 5.040312500001164,
      "v": 72
    },
    {
      "midi": 60,
      "hit": false,
      "t": 148910.9925000088,
      "d": 5.040312500001164,
      "v": 88
    },
    {
      "midi": 44,
      "hit": false,
      "t": 149031.9600000088,
      "d": 5.040312500001164,
      "v": 64
    },
    {
      "midi": 35,
      "hit": false,
      "t": 149031.9600000088,
      "d": 105.84656249999534,
      "v": 87
    },
    {
      "midi": 71,
      "hit": false,
      "t": 149031.9600000088,
      "d": 211.6931250000198,
      "v": 104
    },
    {
      "midi": 38,
      "hit": false,
      "t": 149031.9600000088,
      "d": 231.85437500002445,
      "v": 89
    },
    {
      "midi": 50,
      "hit": false,
      "t": 149031.9600000088,
      "d": 433.4668750000419,
      "v": 104
    },
    {
      "midi": 62,
      "hit": false,
      "t": 149152.9275000088,
      "d": 5.040312500001164,
      "v": 95
    },
    {
      "midi": 57,
      "hit": false,
      "t": 149152.9275000088,
      "d": 15.120937500003492,
      "v": 35
    },
    {
      "midi": 62,
      "hit": false,
      "t": 149163.0081250088,
      "d": 15.120937500003492,
      "v": 38
    },
    {
      "midi": 67,
      "hit": false,
      "t": 149173.0887500088,
      "d": 15.120937500003492,
      "v": 38
    },
    {
      "midi": 46,
      "hit": false,
      "t": 149268.85468750884,
      "d": 5.040312500001164,
      "v": 69
    },
    {
      "midi": 62,
      "hit": false,
      "t": 149273.89500000884,
      "d": 5.040312500001164,
      "v": 91
    },
    {
      "midi": 72,
      "hit": false,
      "t": 149273.89500000884,
      "d": 105.84656249999534,
      "v": 104
    },
    {
      "midi": 38,
      "hit": false,
      "t": 149273.89500000884,
      "d": 231.85437500002445,
      "v": 89
    },
    {
      "midi": 62,
      "hit": false,
      "t": 149283.97562500884,
      "d": 95.76593749999302,
      "v": 54
    },
    {
      "midi": 63,
      "hit": false,
      "t": 149394.86250000884,
      "d": 5.040312500001164,
      "v": 91
    },
    {
      "midi": 62,
      "hit": false,
      "t": 149394.86250000884,
      "d": 10.080625000002328,
      "v": 96
    },
    {
      "midi": 57,
      "hit": false,
      "t": 149394.86250000884,
      "d": 20.161250000004657,
      "v": 89
    },
    {
      "midi": 71,
      "hit": false,
      "t": 149394.86250000884,
      "d": 105.84656250002445,
      "v": 104
    },
    {
      "midi": 62,
      "hit": false,
      "t": 149404.94312500884,
      "d": 20.161250000004657,
      "v": 76
    },
    {
      "midi": 67,
      "hit": false,
      "t": 149415.02375000884,
      "d": 5.040312500001164,
      "v": 90
    },
    {
      "midi": 44,
      "hit": false,
      "t": 149510.78968750886,
      "d": 5.040312500001164,
      "v": 71
    },
    {
      "midi": 40,
      "hit": false,
      "t": 149515.83000000886,
      "d": 70.5643749999872,
      "v": 94
    },
    {
      "midi": 35,
      "hit": false,
      "t": 149515.83000000886,
      "d": 105.84656249999534,
      "v": 87
    },
    {
      "midi": 43,
      "hit": false,
      "t": 149515.83000000886,
      "d": 231.85437499999534,
      "v": 101
    },
    {
      "midi": 45,
      "hit": false,
      "t": 149515.83000000886,
      "d": 433.4668750000128,
      "v": 104
    },
    {
      "midi": 64,
      "hit": false,
      "t": 149636.79750000886,
      "d": 5.040312500001164,
      "v": 91
    },
    {
      "midi": 67,
      "hit": false,
      "t": 149636.79750000886,
      "d": 105.84656249999534,
      "v": 104
    },
    {
      "midi": 46,
      "hit": false,
      "t": 149757.76500000886,
      "d": 5.040312500001164,
      "v": 61
    },
    {
      "midi": 63,
      "hit": false,
      "t": 149757.76500000886,
      "d": 5.040312500001164,
      "v": 47
    },
    {
      "midi": 43,
      "hit": false,
      "t": 149757.76500000886,
      "d": 231.85437500002445,
      "v": 101
    },
    {
      "midi": 62,
      "hit": false,
      "t": 149767.84562500886,
      "d": 95.76593749999302,
      "v": 78
    },
    {
      "midi": 63,
      "hit": false,
      "t": 149878.73250000886,
      "d": 5.040312500001164,
      "v": 85
    },
    {
      "midi": 57,
      "hit": false,
      "t": 149878.73250000886,
      "d": 10.080625000002328,
      "v": 48
    },
    {
      "midi": 62,
      "hit": false,
      "t": 149878.73250000886,
      "d": 10.080625000002328,
      "v": 102
    },
    {
      "midi": 64,
      "hit": false,
      "t": 149878.73250000886,
      "d": 322.5800000000454,
      "v": 104
    },
    {
      "midi": 62,
      "hit": false,
      "t": 149888.81312500886,
      "d": 110.88687500002561,
      "v": 60
    },
    {
      "midi": 67,
      "hit": false,
      "t": 149898.89375000887,
      "d": 10.080625000002328,
      "v": 52
    },
    {
      "midi": 40,
      "hit": false,
      "t": 149999.7000000089,
      "d": 5.040312500001164,
      "v": 93
    },
    {
      "midi": 44,
      "hit": false,
      "t": 149999.7000000089,
      "d": 5.040312500001164,
      "v": 64
    },
    {
      "midi": 62,
      "hit": false,
      "t": 149999.7000000089,
      "d": 5.040312500001164,
      "v": 40
    },
    {
      "midi": 35,
      "hit": false,
      "t": 149999.7000000089,
      "d": 90.72562499999185,
      "v": 86
    },
    {
      "midi": 45,
      "hit": false,
      "t": 149999.7000000089,
      "d": 231.85437500002445,
      "v": 82
    },
    {
      "midi": 50,
      "hit": false,
      "t": 149999.7000000089,
      "d": 433.4668750000419,
      "v": 104
    },
    {
      "midi": 62,
      "hit": false,
      "t": 150120.6675000089,
      "d": 5.040312500001164,
      "v": 91
    },
    {
      "midi": 57,
      "hit": false,
      "t": 150120.6675000089,
      "d": 10.080625000002328,
      "v": 66
    },
    {
      "midi": 62,
      "hit": false,
      "t": 150130.7481250089,
      "d": 25.20156250000582,
      "v": 58
    },
    {
      "midi": 67,
      "hit": false,
      "t": 150140.8287500089,
      "d": 20.161250000004657,
      "v": 68
    },
    {
      "midi": 40,
      "hit": false,
      "t": 150241.63500000892,
      "d": 5.040312500001164,
      "v": 64
    },
    {
      "midi": 64,
      "hit": false,
      "t": 150241.63500000892,
      "d": 5.040312500001164,
      "v": 78
    },
    {
      "midi": 62,
      "hit": false,
      "t": 150241.63500000892,
      "d": 105.84656249999534,
      "v": 86
    },
    {
      "midi": 45,
      "hit": false,
      "t": 150241.63500000892,
      "d": 236.8946875000256,
      "v": 82
    },
    {
      "midi": 40,
      "hit": false,
      "t": 150362.6025000089,
      "d": 5.040312500001164,
      "v": 87
    },
    {
      "midi": 64,
      "hit": false,
      "t": 150362.6025000089,
      "d": 5.040312500001164,
      "v": 78
    },
    {
      "midi": 62,
      "hit": false,
      "t": 150362.6025000089,
      "d": 10.080625000002328,
      "v": 101
    },
    {
      "midi": 43,
      "hit": false,
      "t": 150483.57000000894,
      "d": 5.040312500001164,
      "v": 86
    },
    {
      "midi": 64,
      "hit": false,
      "t": 150483.57000000894,
      "d": 5.040312500001164,
      "v": 82
    },
    {
      "midi": 35,
      "hit": false,
      "t": 150483.57000000894,
      "d": 90.72562499999185,
      "v": 86
    },
    {
      "midi": 45,
      "hit": false,
      "t": 150483.57000000894,
      "d": 241.93500000002678,
      "v": 87
    },
    {
      "midi": 44,
      "hit": false,
      "t": 150488.61031250894,
      "d": 5.040312500001164,
      "v": 71
    },
    {
      "midi": 40,
      "hit": false,
      "t": 150604.53750000894,
      "d": 5.040312500001164,
      "v": 73
    },
    {
      "midi": 62,
      "hit": false,
      "t": 150604.53750000894,
      "d": 5.040312500001164,
      "v": 93
    },
    {
      "midi": 57,
      "hit": false,
      "t": 150604.53750000894,
      "d": 30.241875000006985,
      "v": 43
    },
    {
      "midi": 62,
      "hit": false,
      "t": 150614.61812500894,
      "d": 25.20156250000582,
      "v": 75
    },
    {
      "midi": 67,
      "hit": false,
      "t": 150624.69875000895,
      "d": 25.20156250000582,
      "v": 60
    },
    {
      "midi": 40,
      "hit": false,
      "t": 150725.50500000897,
      "d": 5.040312500001164,
      "v": 95
    },
    {
      "midi": 62,
      "hit": false,
      "t": 150725.50500000897,
      "d": 15.120937500003492,
      "v": 61
    },
    {
      "midi": 64,
      "hit": false,
      "t": 150725.50500000897,
      "d": 216.73343749999185,
      "v": 104
    },
    {
      "midi": 45,
      "hit": false,
      "t": 150735.58562500897,
      "d": 181.4512499999837,
      "v": 76
    },
    {
      "midi": 62,
      "hit": false,
      "t": 150846.47250000897,
      "d": 5.040312500001164,
      "v": 102
    },
    {
      "midi": 57,
      "hit": false,
      "t": 150962.39968750897,
      "d": 5.040312500001164,
      "v": 79
    },
    {
      "midi": 44,
      "hit": false,
      "t": 150967.44000000897,
      "d": 5.040312500001164,
      "v": 64
    },
    {
      "midi": 59,
      "hit": false,
      "t": 150967.44000000897,
      "d": 5.040312500001164,
      "v": 85
    },
    {
      "midi": 35,
      "hit": false,
      "t": 150967.44000000897,
      "d": 105.84656249999534,
      "v": 87
    },
    {
      "midi": 31,
      "hit": false,
      "t": 150967.44000000897,
      "d": 176.41093750001164,
      "v": 101
    },
    {
      "midi": 43,
      "hit": false,
      "t": 150967.44000000897,
      "d": 650.2003125000629,
      "v": 104
    },
    {
      "midi": 55,
      "hit": false,
      "t": 151088.40750000897,
      "d": 30.241875000006985,
      "v": 56
    },
    {
      "midi": 59,
      "hit": false,
      "t": 151098.48812500897,
      "d": 25.20156250000582,
      "v": 50
    },
    {
      "midi": 62,
      "hit": false,
      "t": 151108.56875000897,
      "d": 30.241875000006985,
      "v": 33
    },
    {
      "midi": 46,
      "hit": false,
      "t": 151204.334687509,
      "d": 5.040312500001164,
      "v": 69
    },
    {
      "midi": 62,
      "hit": false,
      "t": 151209.375000009,
      "d": 5.040312500001164,
      "v": 91
    },
    {
      "midi": 59,
      "hit": false,
      "t": 151209.375000009,
      "d": 5.040312500001164,
      "v": 94
    },
    {
      "midi": 62,
      "hit": false,
      "t": 151229.536250009,
      "d": 60.48375000001397,
      "v": 36
    },
    {
      "midi": 55,
      "hit": false,
      "t": 151330.34250000902,
      "d": 20.161250000004657,
      "v": 96
    },
    {
      "midi": 59,
      "hit": false,
      "t": 151340.42312500902,
      "d": 20.161250000004657,
      "v": 89
    },
    {
      "midi": 62,
      "hit": false,
      "t": 151350.50375000903,
      "d": 15.120937500003492,
      "v": 84
    },
    {
      "midi": 44,
      "hit": false,
      "t": 151446.26968750902,
      "d": 5.040312500001164,
      "v": 71
    },
    {
      "midi": 40,
      "hit": false,
      "t": 151451.31000000902,
      "d": 70.5643749999872,
      "v": 94
    },
    {
      "midi": 59,
      "hit": false,
      "t": 151451.31000000902,
      "d": 85.68531249999069,
      "v": 100
    },
    {
      "midi": 35,
      "hit": false,
      "t": 151451.31000000902,
      "d": 105.84656249999534,
      "v": 87
    },
    {
      "midi": 31,
      "hit": false,
      "t": 151451.31000000902,
      "d": 166.3303125000093,
      "v": 99
    },
    {
      "midi": 59,
      "hit": false,
      "t": 151572.27750000902,
      "d": 10.080625000002328,
      "v": 100
    },
    {
      "midi": 46,
      "hit": false,
      "t": 151693.24500000905,
      "d": 5.040312500001164,
      "v": 61
    },
    {
      "midi": 63,
      "hit": false,
      "t": 151693.24500000905,
      "d": 5.040312500001164,
      "v": 47
    },
    {
      "midi": 50,
      "hit": false,
      "t": 151693.24500000905,
      "d": 650.2003125000338,
      "v": 104
    },
    {
      "midi": 47,
      "hit": false,
      "t": 151693.24500000905,
      "d": 650.2003125000338,
      "v": 104
    },
    {
      "midi": 63,
      "hit": false,
      "t": 151814.21250000905,
      "d": 5.040312500001164,
      "v": 85
    },
    {
      "midi": 59,
      "hit": false,
      "t": 151814.21250000905,
      "d": 5.040312500001164,
      "v": 95
    },
    {
      "midi": 55,
      "hit": false,
      "t": 151814.21250000905,
      "d": 15.120937500003492,
      "v": 36
    },
    {
      "midi": 31,
      "hit": false,
      "t": 151819.25281250905,
      "d": 5.040312500001164,
      "v": 39
    },
    {
      "midi": 59,
      "hit": false,
      "t": 151824.29312500905,
      "d": 15.120937500003492,
      "v": 46
    },
    {
      "midi": 62,
      "hit": false,
      "t": 151834.37375000905,
      "d": 15.120937500003492,
      "v": 30
    },
    {
      "midi": 44,
      "hit": false,
      "t": 151935.18000000907,
      "d": 5.040312500001164,
      "v": 64
    },
    {
      "midi": 59,
      "hit": false,
      "t": 151935.18000000907,
      "d": 5.040312500001164,
      "v": 92
    },
    {
      "midi": 35,
      "hit": false,
      "t": 151935.18000000907,
      "d": 90.72562499999185,
      "v": 86
    },
    {
      "midi": 55,
      "hit": false,
      "t": 151935.18000000907,
      "d": 95.76593749999302,
      "v": 13
    },
    {
      "midi": 31,
      "hit": false,
      "t": 151935.18000000907,
      "d": 115.92718749999767,
      "v": 94
    },
    {
      "midi": 31,
      "hit": false,
      "t": 152056.14750000907,
      "d": 5.040312500001164,
      "v": 30
    },
    {
      "midi": 59,
      "hit": false,
      "t": 152056.14750000907,
      "d": 5.040312500001164,
      "v": 94
    },
    {
      "midi": 55,
      "hit": false,
      "t": 152056.14750000907,
      "d": 20.161250000004657,
      "v": 80
    },
    {
      "midi": 59,
      "hit": false,
      "t": 152066.22812500907,
      "d": 20.161250000004657,
      "v": 68
    },
    {
      "midi": 62,
      "hit": false,
      "t": 152076.30875000908,
      "d": 20.161250000004657,
      "v": 75
    },
    {
      "midi": 46,
      "hit": false,
      "t": 152177.11500000907,
      "d": 5.040312500001164,
      "v": 70
    },
    {
      "midi": 62,
      "hit": false,
      "t": 152177.11500000907,
      "d": 5.040312500001164,
      "v": 85
    },
    {
      "midi": 59,
      "hit": false,
      "t": 152177.11500000907,
      "d": 5.040312500001164,
      "v": 94
    },
    {
      "midi": 31,
      "hit": false,
      "t": 152177.11500000907,
      "d": 156.24968750000698,
      "v": 102
    },
    {
      "midi": 40,
      "hit": false,
      "t": 152419.0500000091,
      "d": 65.52406250001513,
      "v": 91
    },
    {
      "midi": 35,
      "hit": false,
      "t": 152419.0500000091,
      "d": 90.72562500002095,
      "v": 86
    },
    {
      "midi": 55,
      "hit": false,
      "t": 152419.0500000091,
      "d": 181.4512500000419,
      "v": 96
    },
    {
      "midi": 44,
      "hit": false,
      "t": 152424.0903125091,
      "d": 5.040312500001164,
      "v": 71
    },
    {
      "midi": 59,
      "hit": false,
      "t": 152429.1306250091,
      "d": 90.72562500002095,
      "v": 82
    },
    {
      "midi": 62,
      "hit": false,
      "t": 152540.01750000913,
      "d": 5.040312500001164,
      "v": 62
    },
    {
      "midi": 59,
      "hit": false,
      "t": 152540.01750000913,
      "d": 5.040312500001164,
      "v": 47
    },
    {
      "midi": 62,
      "hit": false,
      "t": 152550.09812500913,
      "d": 25.20156250000582,
      "v": 52
    },
    {
      "midi": 46,
      "hit": false,
      "t": 152660.98500000915,
      "d": 5.040312500001164,
      "v": 70
    },
    {
      "midi": 63,
      "hit": false,
      "t": 152660.98500000915,
      "d": 5.040312500001164,
      "v": 53
    },
    {
      "midi": 64,
      "hit": false,
      "t": 152781.95250000915,
      "d": 5.040312500001164,
      "v": 74
    },
    {
      "midi": 43,
      "hit": false,
      "t": 152781.95250000915,
      "d": 5.040312500001164,
      "v": 72
    },
    {
      "midi": 59,
      "hit": false,
      "t": 152781.95250000915,
      "d": 5.040312500001164,
      "v": 88
    },
    {
      "midi": 44,
      "hit": false,
      "t": 152902.92000000915,
      "d": 5.040312500001164,
      "v": 71
    },
    {
      "midi": 61,
      "hit": false,
      "t": 152902.92000000915,
      "d": 5.040312500001164,
      "v": 100
    },
    {
      "midi": 35,
      "hit": false,
      "t": 152902.92000000915,
      "d": 90.72562499999185,
      "v": 79
    },
    {
      "midi": 34,
      "hit": false,
      "t": 152902.92000000915,
      "d": 171.37062500001048,
      "v": 96
    },
    {
      "midi": 55,
      "hit": false,
      "t": 153023.88750000915,
      "d": 30.241875000006985,
      "v": 56
    },
    {
      "midi": 61,
      "hit": false,
      "t": 153033.96812500915,
      "d": 25.20156250000582,
      "v": 50
    },
    {
      "midi": 64,
      "hit": false,
      "t": 153044.04875000915,
      "d": 30.241875000006985,
      "v": 33
    },
    {
      "midi": 46,
      "hit": false,
      "t": 153139.81468750915,
      "d": 5.040312500001164,
      "v": 74
    },
    {
      "midi": 62,
      "hit": false,
      "t": 153144.85500000915,
      "d": 5.040312500001164,
      "v": 85
    },
    {
      "midi": 61,
      "hit": false,
      "t": 153144.85500000915,
      "d": 5.040312500001164,
      "v": 100
    },
    {
      "midi": 55,
      "hit": false,
      "t": 153265.82250000915,
      "d": 20.161250000004657,
      "v": 96
    },
    {
      "midi": 61,
      "hit": false,
      "t": 153275.90312500915,
      "d": 20.161250000004657,
      "v": 89
    },
    {
      "midi": 64,
      "hit": false,
      "t": 153285.98375000915,
      "d": 15.120937500003492,
      "v": 84
    },
    {
      "midi": 44,
      "hit": false,
      "t": 153386.79000000915,
      "d": 5.040312500001164,
      "v": 61
    },
    {
      "midi": 40,
      "hit": false,
      "t": 153386.79000000915,
      "d": 65.52406250001513,
      "v": 91
    },
    {
      "midi": 35,
      "hit": false,
      "t": 153386.79000000915,
      "d": 90.72562500002095,
      "v": 79
    },
    {
      "midi": 61,
      "hit": false,
      "t": 153386.79000000915,
      "d": 90.72562500002095,
      "v": 97
    },
    {
      "midi": 34,
      "hit": false,
      "t": 153386.79000000915,
      "d": 176.41093750004075,
      "v": 96
    },
    {
      "midi": 61,
      "hit": false,
      "t": 153507.75750000917,
      "d": 5.040312500001164,
      "v": 100
    },
    {
      "midi": 46,
      "hit": false,
      "t": 153623.6846875092,
      "d": 5.040312500001164,
      "v": 67
    },
    {
      "midi": 63,
      "hit": false,
      "t": 153628.7250000092,
      "d": 5.040312500001164,
      "v": 37
    },
    {
      "midi": 55,
      "hit": false,
      "t": 153628.7250000092,
      "d": 236.8946875000256,
      "v": 90
    },
    {
      "midi": 52,
      "hit": false,
      "t": 153628.7250000092,
      "d": 650.2003125000629,
      "v": 104
    },
    {
      "midi": 49,
      "hit": false,
      "t": 153628.7250000092,
      "d": 650.2003125000629,
      "v": 104
    },
    {
      "midi": 63,
      "hit": false,
      "t": 153749.6925000092,
      "d": 5.040312500001164,
      "v": 80
    },
    {
      "midi": 61,
      "hit": false,
      "t": 153749.6925000092,
      "d": 5.040312500001164,
      "v": 30
    },
    {
      "midi": 34,
      "hit": false,
      "t": 153749.6925000092,
      "d": 15.120937500003492,
      "v": 86
    },
    {
      "midi": 31,
      "hit": false,
      "t": 153754.7328125092,
      "d": 5.040312500001164,
      "v": 39
    },
    {
      "midi": 64,
      "hit": false,
      "t": 153759.7731250092,
      "d": 30.241875000006985,
      "v": 30
    },
    {
      "midi": 44,
      "hit": false,
      "t": 153870.66000000923,
      "d": 5.040312500001164,
      "v": 71
    },
    {
      "midi": 61,
      "hit": false,
      "t": 153870.66000000923,
      "d": 5.040312500001164,
      "v": 95
    },
    {
      "midi": 35,
      "hit": false,
      "t": 153870.66000000923,
      "d": 90.72562499999185,
      "v": 86
    },
    {
      "midi": 34,
      "hit": false,
      "t": 153870.66000000923,
      "d": 95.76593749999302,
      "v": 94
    },
    {
      "midi": 66,
      "hit": false,
      "t": 153870.66000000923,
      "d": 433.4668750000419,
      "v": 104
    },
    {
      "midi": 61,
      "hit": false,
      "t": 153991.62750000923,
      "d": 5.040312500001164,
      "v": 95
    },
    {
      "midi": 55,
      "hit": false,
      "t": 153991.62750000923,
      "d": 20.161250000004657,
      "v": 91
    },
    {
      "midi": 61,
      "hit": false,
      "t": 154001.70812500923,
      "d": 25.20156250000582,
      "v": 82
    },
    {
      "midi": 64,
      "hit": false,
      "t": 154011.78875000923,
      "d": 50.40312500001164,
      "v": 86
    },
    {
      "midi": 46,
      "hit": false,
      "t": 154107.55468750926,
      "d": 5.040312500001164,
      "v": 64
    },
    {
      "midi": 62,
      "hit": false,
      "t": 154112.59500000926,
      "d": 5.040312500001164,
      "v": 78
    },
    {
      "midi": 34,
      "hit": false,
      "t": 154112.59500000926,
      "d": 166.3303125000093,
      "v": 97
    },
    {
      "midi": 61,
      "hit": false,
      "t": 154233.56250000926,
      "d": 5.040312500001164,
      "v": 95
    },
    {
      "midi": 44,
      "hit": false,
      "t": 154354.53000000928,
      "d": 5.040312500001164,
      "v": 71
    },
    {
      "midi": 40,
      "hit": false,
      "t": 154354.53000000928,
      "d": 65.52406250001513,
      "v": 94
    },
    {
      "midi": 35,
      "hit": false,
      "t": 154354.53000000928,
      "d": 90.72562500002095,
      "v": 86
    },
    {
      "midi": 67,
      "hit": false,
      "t": 154354.53000000928,
      "d": 433.4668750000128,
      "v": 104
    },
    {
      "midi": 61,
      "hit": false,
      "t": 154364.61062500929,
      "d": 85.68531250001979,
      "v": 82
    },
    {
      "midi": 62,
      "hit": false,
      "t": 154475.4975000093,
      "d": 5.040312500001164,
      "v": 62
    },
    {
      "midi": 61,
      "hit": false,
      "t": 154475.4975000093,
      "d": 5.040312500001164,
      "v": 97
    },
    {
      "midi": 55,
      "hit": false,
      "t": 154475.4975000093,
      "d": 10.080625000002328,
      "v": 76
    },
    {
      "midi": 34,
      "hit": false,
      "t": 154475.4975000093,
      "d": 15.120937500003492,
      "v": 86
    },
    {
      "midi": 61,
      "hit": false,
      "t": 154485.5781250093,
      "d": 15.120937500003492,
      "v": 65
    },
    {
      "midi": 64,
      "hit": false,
      "t": 154495.65875000932,
      "d": 15.120937500003492,
      "v": 69
    },
    {
      "midi": 46,
      "hit": false,
      "t": 154596.4650000093,
      "d": 5.040312500001164,
      "v": 70
    },
    {
      "midi": 63,
      "hit": false,
      "t": 154596.4650000093,
      "d": 5.040312500001164,
      "v": 55
    },
    {
      "midi": 61,
      "hit": false,
      "t": 154596.4650000093,
      "d": 5.040312500001164,
      "v": 97
    },
    {
      "midi": 28,
      "hit": false,
      "t": 154596.4650000093,
      "d": 196.5721874999872,
      "v": 83
    },
    {
      "midi": 63,
      "hit": false,
      "t": 154717.4325000093,
      "d": 5.040312500001164,
      "v": 70
    },
    {
      "midi": 61,
      "hit": false,
      "t": 154717.4325000093,
      "d": 5.040312500001164,
      "v": 97
    },
    {
      "midi": 44,
      "hit": false,
      "t": 154838.4000000093,
      "d": 5.040312500001164,
      "v": 71
    },
    {
      "midi": 35,
      "hit": false,
      "t": 154838.4000000093,
      "d": 90.72562499999185,
      "v": 87
    },
    {
      "midi": 33,
      "hit": false,
      "t": 154838.4000000093,
      "d": 176.41093750001164,
      "v": 101
    },
    {
      "midi": 67,
      "hit": false,
      "t": 154838.4000000093,
      "d": 322.5799999999872,
      "v": 104
    },
    {
      "midi": 45,
      "hit": false,
      "t": 154838.4000000093,
      "d": 650.2003125000047,
      "v": 104
    },
    {
      "midi": 60,
      "hit": false,
      "t": 154959.3675000093,
      "d": 5.040312500001164,
      "v": 46
    },
    {
      "midi": 64,
      "hit": false,
      "t": 154969.4481250093,
      "d": 30.241875000006985,
      "v": 26
    },
    {
      "midi": 46,
      "hit": false,
      "t": 155080.3350000093,
      "d": 5.040312500001164,
      "v": 70
    },
    {
      "midi": 62,
      "hit": false,
      "t": 155080.3350000093,
      "d": 5.040312500001164,
      "v": 63
    },
    {
      "midi": 60,
      "hit": false,
      "t": 155080.3350000093,
      "d": 105.84656249999534,
      "v": 80
    },
    {
      "midi": 60,
      "hit": false,
      "t": 155201.3025000093,
      "d": 5.040312500001164,
      "v": 91
    },
    {
      "midi": 55,
      "hit": false,
      "t": 155201.3025000093,
      "d": 20.161250000004657,
      "v": 77
    },
    {
      "midi": 60,
      "hit": false,
      "t": 155211.3831250093,
      "d": 25.20156250000582,
      "v": 73
    },
    {
      "midi": 64,
      "hit": false,
      "t": 155221.4637500093,
      "d": 20.161250000004657,
      "v": 85
    },
    {
      "midi": 44,
      "hit": false,
      "t": 155322.2700000093,
      "d": 5.040312500001164,
      "v": 64
    },
    {
      "midi": 40,
      "hit": false,
      "t": 155322.2700000093,
      "d": 75.60468749998836,
      "v": 94
    },
    {
      "midi": 35,
      "hit": false,
      "t": 155322.2700000093,
      "d": 90.72562499999185,
      "v": 87
    },
    {
      "midi": 33,
      "hit": false,
      "t": 155322.2700000093,
      "d": 166.3303125000093,
      "v": 99
    },
    {
      "midi": 60,
      "hit": false,
      "t": 155443.2375000093,
      "d": 5.040312500001164,
      "v": 92
    },
    {
      "midi": 63,
      "hit": false,
      "t": 155559.16468750933,
      "d": 5.040312500001164,
      "v": 46
    },
    {
      "midi": 46,
      "hit": false,
      "t": 155564.20500000933,
      "d": 5.040312500001164,
      "v": 70
    },
    {
      "midi": 52,
      "hit": false,
      "t": 155564.20500000933,
      "d": 650.2003125000047,
      "v": 104
    },
    {
      "midi": 60,
      "hit": false,
      "t": 155574.28562500933,
      "d": 5.040312500001164,
      "v": 78
    },
    {
      "midi": 60,
      "hit": false,
      "t": 155685.17250000933,
      "d": 5.040312500001164,
      "v": 95
    },
    {
      "midi": 55,
      "hit": false,
      "t": 155685.17250000933,
      "d": 20.161250000004657,
      "v": 51
    },
    {
      "midi": 31,
      "hit": false,
      "t": 155690.21281250933,
      "d": 5.040312500001164,
      "v": 28
    },
    {
      "midi": 60,
      "hit": false,
      "t": 155695.25312500933,
      "d": 20.161250000004657,
      "v": 46
    },
    {
      "midi": 63,
      "hit": false,
      "t": 155700.29343750933,
      "d": 5.040312500001164,
      "v": 85
    },
    {
      "midi": 64,
      "hit": false,
      "t": 155705.33375000933,
      "d": 20.161250000004657,
      "v": 38
    },
    {
      "midi": 44,
      "hit": false,
      "t": 155806.14000000933,
      "d": 5.040312500001164,
      "v": 64
    },
    {
      "midi": 35,
      "hit": false,
      "t": 155806.14000000933,
      "d": 95.76593749999302,
      "v": 87
    },
    {
      "midi": 33,
      "hit": false,
      "t": 155806.14000000933,
      "d": 115.92718749999767,
      "v": 94
    },
    {
      "midi": 60,
      "hit": false,
      "t": 155927.10750000933,
      "d": 5.040312500001164,
      "v": 93
    },
    {
      "midi": 55,
      "hit": false,
      "t": 155927.10750000933,
      "d": 10.080625000002328,
      "v": 64
    },
    {
      "midi": 31,
      "hit": false,
      "t": 155932.14781250933,
      "d": 5.040312500001164,
      "v": 39
    },
    {
      "midi": 60,
      "hit": false,
      "t": 155937.18812500933,
      "d": 20.161250000004657,
      "v": 58
    },
    {
      "midi": 64,
      "hit": false,
      "t": 155947.26875000933,
      "d": 20.161250000004657,
      "v": 69
    },
    {
      "midi": 62,
      "hit": false,
      "t": 156043.03468750932,
      "d": 5.040312500001164,
      "v": 85
    },
    {
      "midi": 46,
      "hit": false,
      "t": 156048.07500000932,
      "d": 5.040312500001164,
      "v": 70
    },
    {
      "midi": 60,
      "hit": false,
      "t": 156048.07500000932,
      "d": 105.84656249999534,
      "v": 77
    },
    {
      "midi": 33,
      "hit": false,
      "t": 156048.07500000932,
      "d": 156.24968750000698,
      "v": 102
    },
    {
      "midi": 60,
      "hit": false,
      "t": 156169.04250000932,
      "d": 10.080625000002328,
      "v": 95
    },
    {
      "midi": 44,
      "hit": false,
      "t": 156290.01000000932,
      "d": 5.040312500001164,
      "v": 64
    },
    {
      "midi": 40,
      "hit": false,
      "t": 156290.01000000932,
      "d": 60.48375000001397,
      "v": 94
    },
    {
      "midi": 35,
      "hit": false,
      "t": 156290.01000000932,
      "d": 95.76593750002212,
      "v": 87
    },
    {
      "midi": 48,
      "hit": false,
      "t": 156290.01000000932,
      "d": 433.4668750000419,
      "v": 104
    },
    {
      "midi": 62,
      "hit": false,
      "t": 156405.93718750935,
      "d": 5.040312500001164,
      "v": 58
    },
    {
      "midi": 60,
      "hit": false,
      "t": 156410.97750000935,
      "d": 5.040312500001164,
      "v": 94
    },
    {
      "midi": 55,
      "hit": false,
      "t": 156410.97750000935,
      "d": 20.161250000004657,
      "v": 70
    },
    {
      "midi": 60,
      "hit": false,
      "t": 156421.05812500935,
      "d": 20.161250000004657,
      "v": 57
    },
    {
      "midi": 64,
      "hit": false,
      "t": 156431.13875000936,
      "d": 20.161250000004657,
      "v": 66
    },
    {
      "midi": 63,
      "hit": false,
      "t": 156526.90468750935,
      "d": 5.040312500001164,
      "v": 55
    },
    {
      "midi": 46,
      "hit": false,
      "t": 156531.94500000935,
      "d": 5.040312500001164,
      "v": 70
    },
    {
      "midi": 60,
      "hit": false,
      "t": 156531.94500000935,
      "d": 105.84656249999534,
      "v": 74
    },
    {
      "midi": 31,
      "hit": false,
      "t": 156536.98531250935,
      "d": 5.040312500001164,
      "v": 37
    },
    {
      "midi": 64,
      "hit": false,
      "t": 156652.91250000935,
      "d": 5.040312500001164,
      "v": 78
    },
    {
      "midi": 43,
      "hit": false,
      "t": 156652.91250000935,
      "d": 5.040312500001164,
      "v": 72
    },
    {
      "midi": 60,
      "hit": false,
      "t": 156652.91250000935,
      "d": 5.040312500001164,
      "v": 100
    },
    {
      "midi": 31,
      "hit": false,
      "t": 156657.95281250935,
      "d": 5.040312500001164,
      "v": 46
    },
    {
      "midi": 44,
      "hit": false,
      "t": 156773.88000000938,
      "d": 5.040312500001164,
      "v": 64
    },
    {
      "midi": 35,
      "hit": false,
      "t": 156773.88000000938,
      "d": 105.84656249999534,
      "v": 87
    },
    {
      "midi": 33,
      "hit": false,
      "t": 156773.88000000938,
      "d": 171.37062500001048,
      "v": 96
    },
    {
      "midi": 45,
      "hit": false,
      "t": 156773.88000000938,
      "d": 216.73343750002095,
      "v": 104
    },
    {
      "midi": 60,
      "hit": false,
      "t": 156894.84750000937,
      "d": 5.040312500001164,
      "v": 85
    },
    {
      "midi": 55,
      "hit": false,
      "t": 156894.84750000937,
      "d": 15.120937500003492,
      "v": 35
    },
    {
      "midi": 60,
      "hit": false,
      "t": 156904.92812500938,
      "d": 15.120937500003492,
      "v": 38
    },
    {
      "midi": 64,
      "hit": false,
      "t": 156915.00875000938,
      "d": 15.120937500003492,
      "v": 38
    },
    {
      "midi": 62,
      "hit": false,
      "t": 157000.6940625094,
      "d": 5.040312500001164,
      "v": 77
    },
    {
      "midi": 46,
      "hit": false,
      "t": 157010.7746875094,
      "d": 5.040312500001164,
      "v": 69
    },
    {
      "midi": 47,
      "hit": false,
      "t": 157015.8150000094,
      "d": 216.73343749999185,
      "v": 104
    },
    {
      "midi": 60,
      "hit": false,
      "t": 157025.8956250094,
      "d": 95.76593749999302,
      "v": 54
    },
    {
      "midi": 60,
      "hit": false,
      "t": 157136.7825000094,
      "d": 10.080625000002328,
      "v": 88
    },
    {
      "midi": 55,
      "hit": false,
      "t": 157136.7825000094,
      "d": 20.161250000004657,
      "v": 89
    },
    {
      "midi": 60,
      "hit": false,
      "t": 157146.8631250094,
      "d": 20.161250000004657,
      "v": 76
    },
    {
      "midi": 64,
      "hit": false,
      "t": 157156.9437500094,
      "d": 5.040312500001164,
      "v": 90
    },
    {
      "midi": 44,
      "hit": false,
      "t": 157252.7096875094,
      "d": 5.040312500001164,
      "v": 71
    },
    {
      "midi": 40,
      "hit": false,
      "t": 157257.7500000094,
      "d": 70.5643749999872,
      "v": 94
    },
    {
      "midi": 35,
      "hit": false,
      "t": 157257.7500000094,
      "d": 105.84656249999534,
      "v": 87
    },
    {
      "midi": 33,
      "hit": false,
      "t": 157257.7500000094,
      "d": 176.41093750001164,
      "v": 96
    },
    {
      "midi": 48,
      "hit": false,
      "t": 157257.7500000094,
      "d": 216.73343750002095,
      "v": 104
    },
    {
      "midi": 60,
      "hit": false,
      "t": 157378.7175000094,
      "d": 10.080625000002328,
      "v": 88
    },
    {
      "midi": 63,
      "hit": false,
      "t": 157484.56406250942,
      "d": 5.040312500001164,
      "v": 55
    },
    {
      "midi": 46,
      "hit": false,
      "t": 157499.68500000943,
      "d": 5.040312500001164,
      "v": 61
    },
    {
      "midi": 60,
      "hit": false,
      "t": 157509.76562500943,
      "d": 95.76593749999302,
      "v": 78
    },
    {
      "midi": 63,
      "hit": false,
      "t": 157620.65250000943,
      "d": 5.040312500001164,
      "v": 88
    },
    {
      "midi": 55,
      "hit": false,
      "t": 157620.65250000943,
      "d": 10.080625000002328,
      "v": 48
    },
    {
      "midi": 60,
      "hit": false,
      "t": 157620.65250000943,
      "d": 10.080625000002328,
      "v": 92
    },
    {
      "midi": 43,
      "hit": false,
      "t": 157620.65250000943,
      "d": 15.120937500003492,
      "v": 86
    },
    {
      "midi": 31,
      "hit": false,
      "t": 157625.69281250943,
      "d": 5.040312500001164,
      "v": 39
    },
    {
      "midi": 60,
      "hit": false,
      "t": 157630.73312500943,
      "d": 110.88687499999651,
      "v": 60
    },
    {
      "midi": 64,
      "hit": false,
      "t": 157640.81375000943,
      "d": 10.080625000002328,
      "v": 52
    },
    {
      "midi": 44,
      "hit": false,
      "t": 157741.62000000942,
      "d": 5.040312500001164,
      "v": 64
    },
    {
      "midi": 60,
      "hit": false,
      "t": 157741.62000000942,
      "d": 5.040312500001164,
      "v": 40
    },
    {
      "midi": 35,
      "hit": false,
      "t": 157741.62000000942,
      "d": 90.72562499999185,
      "v": 86
    },
    {
      "midi": 33,
      "hit": false,
      "t": 157741.62000000942,
      "d": 95.76593749999302,
      "v": 94
    },
    {
      "midi": 31,
      "hit": false,
      "t": 157862.58750000942,
      "d": 5.040312500001164,
      "v": 30
    },
    {
      "midi": 55,
      "hit": false,
      "t": 157862.58750000942,
      "d": 10.080625000002328,
      "v": 66
    },
    {
      "midi": 60,
      "hit": false,
      "t": 157862.58750000942,
      "d": 10.080625000002328,
      "v": 91
    },
    {
      "midi": 60,
      "hit": false,
      "t": 157872.66812500943,
      "d": 25.20156250000582,
      "v": 58
    },
    {
      "midi": 64,
      "hit": false,
      "t": 157882.74875000943,
      "d": 20.161250000004657,
      "v": 68
    },
    {
      "midi": 62,
      "hit": false,
      "t": 157978.51468750942,
      "d": 5.040312500001164,
      "v": 68
    },
    {
      "midi": 46,
      "hit": false,
      "t": 157983.55500000942,
      "d": 5.040312500001164,
      "v": 70
    },
    {
      "midi": 60,
      "hit": false,
      "t": 157983.55500000942,
      "d": 105.84656249999534,
      "v": 79
    },
    {
      "midi": 33,
      "hit": false,
      "t": 157983.55500000942,
      "d": 166.3303125000093,
      "v": 97
    },
    {
      "midi": 60,
      "hit": false,
      "t": 158104.52250000942,
      "d": 10.080625000002328,
      "v": 91
    },
    {
      "midi": 40,
      "hit": false,
      "t": 158225.49000000942,
      "d": 65.52406250001513,
      "v": 91
    },
    {
      "midi": 35,
      "hit": false,
      "t": 158225.49000000942,
      "d": 90.72562500002095,
      "v": 86
    },
    {
      "midi": 44,
      "hit": false,
      "t": 158230.53031250942,
      "d": 5.040312500001164,
      "v": 71
    },
    {
      "midi": 60,
      "hit": false,
      "t": 158346.45750000945,
      "d": 10.080625000002328,
      "v": 93
    },
    {
      "midi": 43,
      "hit": false,
      "t": 158346.45750000945,
      "d": 15.120937500003492,
      "v": 86
    },
    {
      "midi": 55,
      "hit": false,
      "t": 158346.45750000945,
      "d": 30.241875000006985,
      "v": 43
    },
    {
      "midi": 60,
      "hit": false,
      "t": 158356.53812500945,
      "d": 25.20156250000582,
      "v": 75
    },
    {
      "midi": 62,
      "hit": false,
      "t": 158361.57843750945,
      "d": 5.040312500001164,
      "v": 56
    },
    {
      "midi": 64,
      "hit": false,
      "t": 158366.61875000945,
      "d": 25.20156250000582,
      "v": 60
    },
    {
      "midi": 46,
      "hit": false,
      "t": 158467.42500000948,
      "d": 5.040312500001164,
      "v": 70
    },
    {
      "midi": 60,
      "hit": false,
      "t": 158467.42500000948,
      "d": 15.120937500003492,
      "v": 58
    },
    {
      "midi": 28,
      "hit": false,
      "t": 158467.42500000948,
      "d": 196.5721875000163,
      "v": 83
    },
    {
      "midi": 62,
      "hit": false,
      "t": 158467.42500000948,
      "d": 216.73343750002095,
      "v": 104
    },
    {
      "midi": 64,
      "hit": false,
      "t": 158477.50562500948,
      "d": 5.040312500001164,
      "v": 56
    },
    {
      "midi": 60,
      "hit": false,
      "t": 158588.39250000948,
      "d": 5.040312500001164,
      "v": 92
    },
    {
      "midi": 63,
      "hit": false,
      "t": 158608.55375000948,
      "d": 5.040312500001164,
      "v": 80
    },
    {
      "midi": 44,
      "hit": false,
      "t": 158709.3600000095,
      "d": 5.040312500001164,
      "v": 64
    },
    {
      "midi": 35,
      "hit": false,
      "t": 158709.3600000095,
      "d": 105.84656249999534,
      "v": 87
    },
    {
      "midi": 38,
      "hit": false,
      "t": 158709.3600000095,
      "d": 176.41093750001164,
      "v": 101
    },
    {
      "midi": 50,
      "hit": false,
      "t": 158709.3600000095,
      "d": 650.2003125000629,
      "v": 104
    },
    {
      "midi": 60,
      "hit": false,
      "t": 158830.3275000095,
      "d": 5.040312500001164,
      "v": 85
    },
    {
      "midi": 55,
      "hit": false,
      "t": 158830.3275000095,
      "d": 30.241875000006985,
      "v": 56
    },
    {
      "midi": 60,
      "hit": false,
      "t": 158840.4081250095,
      "d": 25.20156250000582,
      "v": 50
    },
    {
      "midi": 64,
      "hit": false,
      "t": 158850.4887500095,
      "d": 30.241875000006985,
      "v": 33
    },
    {
      "midi": 46,
      "hit": false,
      "t": 158946.25468750953,
      "d": 5.040312500001164,
      "v": 69
    },
    {
      "midi": 62,
      "hit": false,
      "t": 158951.29500000953,
      "d": 5.040312500001164,
      "v": 91
    },
    {
      "midi": 60,
      "hit": false,
      "t": 158961.37562500953,
      "d": 95.76593750002212,
      "v": 57
    },
    {
      "midi": 64,
      "hit": false,
      "t": 158971.45625000953,
      "d": 60.48375000001397,
      "v": 36
    },
    {
      "midi": 60,
      "hit": false,
      "t": 159072.26250000956,
      "d": 10.080625000002328,
      "v": 88
    },
    {
      "midi": 55,
      "hit": false,
      "t": 159072.26250000956,
      "d": 20.161250000004657,
      "v": 96
    },
    {
      "midi": 60,
      "hit": false,
      "t": 159082.34312500956,
      "d": 20.161250000004657,
      "v": 89
    },
    {
      "midi": 64,
      "hit": false,
      "t": 159092.42375000956,
      "d": 15.120937500003492,
      "v": 84
    },
    {
      "midi": 44,
      "hit": false,
      "t": 159188.18968750956,
      "d": 5.040312500001164,
      "v": 71
    },
    {
      "midi": 40,
      "hit": false,
      "t": 159193.23000000956,
      "d": 70.5643749999872,
      "v": 94
    },
    {
      "midi": 35,
      "hit": false,
      "t": 159193.23000000956,
      "d": 105.84656249999534,
      "v": 87
    },
    {
      "midi": 38,
      "hit": false,
      "t": 159193.23000000956,
      "d": 166.3303125000093,
      "v": 99
    },
    {
      "midi": 60,
      "hit": false,
      "t": 159314.19750000956,
      "d": 10.080625000002328,
      "v": 88
    },
    {
      "midi": 46,
      "hit": false,
      "t": 159435.16500000958,
      "d": 5.040312500001164,
      "v": 61
    },
    {
      "midi": 63,
      "hit": false,
      "t": 159435.16500000958,
      "d": 5.040312500001164,
      "v": 47
    },
    {
      "midi": 57,
      "hit": false,
      "t": 159435.16500000958,
      "d": 650.2003125000338,
      "v": 104
    },
    {
      "midi": 60,
      "hit": false,
      "t": 159445.2456250096,
      "d": 95.76593749999302,
      "v": 76
    },
    {
      "midi": 63,
      "hit": false,
      "t": 159556.13250000958,
      "d": 5.040312500001164,
      "v": 85
    },
    {
      "midi": 60,
      "hit": false,
      "t": 159556.13250000958,
      "d": 10.080625000002328,
      "v": 92
    },
    {
      "midi": 55,
      "hit": false,
      "t": 159556.13250000958,
      "d": 15.120937500003492,
      "v": 36
    },
    {
      "midi": 31,
      "hit": false,
      "t": 159561.17281250958,
      "d": 5.040312500001164,
      "v": 39
    },
    {
      "midi": 60,
      "hit": false,
      "t": 159566.21312500958,
      "d": 15.120937500003492,
      "v": 46
    },
    {
      "midi": 64,
      "hit": false,
      "t": 159576.2937500096,
      "d": 15.120937500003492,
      "v": 30
    },
    {
      "midi": 44,
      "hit": false,
      "t": 159677.1000000096,
      "d": 5.040312500001164,
      "v": 64
    },
    {
      "midi": 35,
      "hit": false,
      "t": 159677.1000000096,
      "d": 90.72562499999185,
      "v": 86
    },
    {
      "midi": 55,
      "hit": false,
      "t": 159677.1000000096,
      "d": 95.76593749999302,
      "v": 13
    },
    {
      "midi": 38,
      "hit": false,
      "t": 159677.1000000096,
      "d": 115.92718749999767,
      "v": 94
    },
    {
      "midi": 31,
      "hit": false,
      "t": 159798.0675000096,
      "d": 5.040312500001164,
      "v": 30
    },
    {
      "midi": 60,
      "hit": false,
      "t": 159798.0675000096,
      "d": 10.080625000002328,
      "v": 91
    },
    {
      "midi": 55,
      "hit": false,
      "t": 159798.0675000096,
      "d": 20.161250000004657,
      "v": 80
    },
    {
      "midi": 60,
      "hit": false,
      "t": 159808.1481250096,
      "d": 20.161250000004657,
      "v": 68
    },
    {
      "midi": 64,
      "hit": false,
      "t": 159818.2287500096,
      "d": 20.161250000004657,
      "v": 75
    },
    {
      "midi": 46,
      "hit": false,
      "t": 159919.0350000096,
      "d": 5.040312500001164,
      "v": 70
    },
    {
      "midi": 62,
      "hit": false,
      "t": 159919.0350000096,
      "d": 5.040312500001164,
      "v": 85
    },
    {
      "midi": 60,
      "hit": false,
      "t": 159919.0350000096,
      "d": 105.84656249999534,
      "v": 79
    },
    {
      "midi": 38,
      "hit": false,
      "t": 159919.0350000096,
      "d": 156.24968750000698,
      "v": 102
    },
    {
      "midi": 60,
      "hit": false,
      "t": 160040.0025000096,
      "d": 10.080625000002328,
      "v": 91
    },
    {
      "midi": 40,
      "hit": false,
      "t": 160160.97000000963,
      "d": 65.52406250001513,
      "v": 91
    },
    {
      "midi": 35,
      "hit": false,
      "t": 160160.97000000963,
      "d": 90.72562500002095,
      "v": 86
    },
    {
      "midi": 55,
      "hit": false,
      "t": 160160.97000000963,
      "d": 181.4512500000419,
      "v": 96
    },
    {
      "midi": 52,
      "hit": false,
      "t": 160160.97000000963,
      "d": 433.4668750000419,
      "v": 104
    },
    {
      "midi": 44,
      "hit": false,
      "t": 160166.01031250964,
      "d": 5.040312500001164,
      "v": 71
    },
    {
      "midi": 62,
      "hit": false,
      "t": 160281.93750000966,
      "d": 5.040312500001164,
      "v": 62
    },
    {
      "midi": 60,
      "hit": false,
      "t": 160281.93750000966,
      "d": 10.080625000002328,
      "v": 47
    },
    {
      "midi": 64,
      "hit": false,
      "t": 160292.01812500966,
      "d": 25.20156250000582,
      "v": 52
    },
    {
      "midi": 46,
      "hit": false,
      "t": 160402.9050000097,
      "d": 5.040312500001164,
      "v": 70
    },
    {
      "midi": 63,
      "hit": false,
      "t": 160402.9050000097,
      "d": 5.040312500001164,
      "v": 53
    },
    {
      "midi": 60,
      "hit": false,
      "t": 160402.9050000097,
      "d": 15.120937500003492,
      "v": 58
    },
    {
      "midi": 64,
      "hit": false,
      "t": 160523.8725000097,
      "d": 5.040312500001164,
      "v": 74
    },
    {
      "midi": 38,
      "hit": false,
      "t": 160523.8725000097,
      "d": 5.040312500001164,
      "v": 72
    },
    {
      "midi": 60,
      "hit": false,
      "t": 160523.8725000097,
      "d": 5.040312500001164,
      "v": 92
    },
    {
      "midi": 44,
      "hit": false,
      "t": 160644.8400000097,
      "d": 5.040312500001164,
      "v": 71
    },
    {
      "midi": 35,
      "hit": false,
      "t": 160644.8400000097,
      "d": 90.72562499999185,
      "v": 79
    },
    {
      "midi": 38,
      "hit": false,
      "t": 160644.8400000097,
      "d": 171.37062500001048,
      "v": 96
    },
    {
      "midi": 50,
      "hit": false,
      "t": 160644.8400000097,
      "d": 650.2003125000338,
      "v": 104
    },
    {
      "midi": 62,
      "hit": false,
      "t": 160765.8075000097,
      "d": 10.080625000002328,
      "v": 90
    },
    {
      "midi": 57,
      "hit": false,
      "t": 160765.8075000097,
      "d": 30.241875000006985,
      "v": 56
    },
    {
      "midi": 62,
      "hit": false,
      "t": 160775.8881250097,
      "d": 25.20156250000582,
      "v": 50
    },
    {
      "midi": 66,
      "hit": false,
      "t": 160785.9687500097,
      "d": 30.241875000006985,
      "v": 33
    },
    {
      "midi": 46,
      "hit": false,
      "t": 160881.73468750968,
      "d": 5.040312500001164,
      "v": 74
    },
    {
      "midi": 62,
      "hit": false,
      "t": 160886.7750000097,
      "d": 5.040312500001164,
      "v": 85
    },
    {
      "midi": 62,
      "hit": false,
      "t": 160896.8556250097,
      "d": 95.76593749999302,
      "v": 57
    },
    {
      "midi": 62,
      "hit": false,
      "t": 161007.74250000968,
      "d": 10.080625000002328,
      "v": 92
    },
    {
      "midi": 57,
      "hit": false,
      "t": 161007.74250000968,
      "d": 20.161250000004657,
      "v": 96
    },
    {
      "midi": 62,
      "hit": false,
      "t": 161017.8231250097,
      "d": 20.161250000004657,
      "v": 89
    },
    {
      "midi": 66,
      "hit": false,
      "t": 161027.9037500097,
      "d": 15.120937500003492,
      "v": 84
    },
    {
      "midi": 44,
      "hit": false,
      "t": 161128.71000000968,
      "d": 5.040312500001164,
      "v": 61
    },
    {
      "midi": 40,
      "hit": false,
      "t": 161128.71000000968,
      "d": 65.52406250001513,
      "v": 91
    },
    {
      "midi": 35,
      "hit": false,
      "t": 161128.71000000968,
      "d": 90.72562500002095,
      "v": 79
    },
    {
      "midi": 38,
      "hit": false,
      "t": 161128.71000000968,
      "d": 176.41093750004075,
      "v": 96
    },
    {
      "midi": 69,
      "hit": false,
      "t": 161128.71000000968,
      "d": 433.466875000071,
      "v": 104
    },
    {
      "midi": 62,
      "hit": false,
      "t": 161249.6775000097,
      "d": 10.080625000002328,
      "v": 91
    },
    {
      "midi": 46,
      "hit": false,
      "t": 161365.60468750974,
      "d": 5.040312500001164,
      "v": 67
    },
    {
      "midi": 63,
      "hit": false,
      "t": 161370.64500000974,
      "d": 5.040312500001164,
      "v": 37
    },
    {
      "midi": 57,
      "hit": false,
      "t": 161370.64500000974,
      "d": 236.8946875000256,
      "v": 90
    },
    {
      "midi": 54,
      "hit": false,
      "t": 161370.64500000974,
      "d": 650.2003125000629,
      "v": 104
    },
    {
      "midi": 62,
      "hit": false,
      "t": 161380.72562500974,
      "d": 5.040312500001164,
      "v": 81
    },
    {
      "midi": 63,
      "hit": false,
      "t": 161491.61250000974,
      "d": 5.040312500001164,
      "v": 80
    },
    {
      "midi": 62,
      "hit": false,
      "t": 161491.61250000974,
      "d": 5.040312500001164,
      "v": 30
    },
    {
      "midi": 38,
      "hit": false,
      "t": 161491.61250000974,
      "d": 15.120937500003492,
      "v": 86
    },
    {
      "midi": 31,
      "hit": false,
      "t": 161496.65281250974,
      "d": 5.040312500001164,
      "v": 39
    },
    {
      "midi": 66,
      "hit": false,
      "t": 161501.69312500974,
      "d": 30.241875000006985,
      "v": 30
    },
    {
      "midi": 44,
      "hit": false,
      "t": 161612.58000000977,
      "d": 5.040312500001164,
      "v": 71
    },
    {
      "midi": 35,
      "hit": false,
      "t": 161612.58000000977,
      "d": 90.72562499999185,
      "v": 86
    },
    {
      "midi": 38,
      "hit": false,
      "t": 161612.58000000977,
      "d": 95.76593749999302,
      "v": 94
    },
    {
      "midi": 62,
      "hit": false,
      "t": 161733.54750000976,
      "d": 10.080625000002328,
      "v": 95
    },
    {
      "midi": 57,
      "hit": false,
      "t": 161733.54750000976,
      "d": 20.161250000004657,
      "v": 91
    },
    {
      "midi": 62,
      "hit": false,
      "t": 161743.62812500977,
      "d": 25.20156250000582,
      "v": 82
    },
    {
      "midi": 66,
      "hit": false,
      "t": 161753.70875000977,
      "d": 50.40312500001164,
      "v": 86
    },
    {
      "midi": 46,
      "hit": false,
      "t": 161849.4746875098,
      "d": 5.040312500001164,
      "v": 64
    },
    {
      "midi": 62,
      "hit": false,
      "t": 161854.5150000098,
      "d": 5.040312500001164,
      "v": 78
    },
    {
      "midi": 38,
      "hit": false,
      "t": 161854.5150000098,
      "d": 166.3303125000093,
      "v": 97
    },
    {
      "midi": 62,
      "hit": false,
      "t": 161975.4825000098,
      "d": 10.080625000002328,
      "v": 97
    },
    {
      "midi": 44,
      "hit": false,
      "t": 162096.45000000982,
      "d": 5.040312500001164,
      "v": 71
    },
    {
      "midi": 40,
      "hit": false,
      "t": 162096.45000000982,
      "d": 65.52406250001513,
      "v": 94
    },
    {
      "midi": 35,
      "hit": false,
      "t": 162096.45000000982,
      "d": 90.72562500002095,
      "v": 86
    },
    {
      "midi": 50,
      "hit": false,
      "t": 162096.45000000982,
      "d": 433.4668750000128,
      "v": 104
    },
    {
      "midi": 64,
      "hit": false,
      "t": 162096.45000000982,
      "d": 433.4668750000128,
      "v": 104
    },
    {
      "midi": 62,
      "hit": false,
      "t": 162217.41750000985,
      "d": 5.040312500001164,
      "v": 62
    },
    {
      "midi": 57,
      "hit": false,
      "t": 162217.41750000985,
      "d": 10.080625000002328,
      "v": 76
    },
    {
      "midi": 38,
      "hit": false,
      "t": 162217.41750000985,
      "d": 15.120937500003492,
      "v": 86
    },
    {
      "midi": 62,
      "hit": false,
      "t": 162227.49812500985,
      "d": 15.120937500003492,
      "v": 65
    },
    {
      "midi": 66,
      "hit": false,
      "t": 162237.57875000985,
      "d": 15.120937500003492,
      "v": 69
    },
    {
      "midi": 46,
      "hit": false,
      "t": 162338.38500000985,
      "d": 5.040312500001164,
      "v": 70
    },
    {
      "midi": 63,
      "hit": false,
      "t": 162338.38500000985,
      "d": 5.040312500001164,
      "v": 55
    },
    {
      "midi": 62,
      "hit": false,
      "t": 162338.38500000985,
      "d": 105.84656249999534,
      "v": 63
    },
    {
      "midi": 33,
      "hit": false,
      "t": 162338.38500000985,
      "d": 196.5721874999872,
      "v": 83
    },
    {
      "midi": 63,
      "hit": false,
      "t": 162459.35250000985,
      "d": 5.040312500001164,
      "v": 70
    },
    {
      "midi": 62,
      "hit": false,
      "t": 162459.35250000985,
      "d": 5.040312500001164,
      "v": 92
    },
    {
      "midi": 44,
      "hit": false,
      "t": 162580.32000000984,
      "d": 5.040312500001164,
      "v": 71
    },
    {
      "midi": 35,
      "hit": false,
      "t": 162580.32000000984,
      "d": 90.72562499999185,
      "v": 87
    },
    {
      "midi": 47,
      "hit": false,
      "t": 162580.32000000984,
      "d": 650.2003125000338,
      "v": 104
    },
    {
      "midi": 59,
      "hit": false,
      "t": 162701.28750000984,
      "d": 5.040312500001164,
      "v": 91
    },
    {
      "midi": 57,
      "hit": false,
      "t": 162701.28750000984,
      "d": 30.241875000006985,
      "v": 46
    },
    {
      "midi": 63,
      "hit": false,
      "t": 162711.36812500985,
      "d": 30.241875000006985,
      "v": 26
    },
    {
      "midi": 46,
      "hit": false,
      "t": 162822.25500000984,
      "d": 5.040312500001164,
      "v": 70
    },
    {
      "midi": 62,
      "hit": false,
      "t": 162822.25500000984,
      "d": 5.040312500001164,
      "v": 63
    },
    {
      "midi": 59,
      "hit": false,
      "t": 162822.25500000984,
      "d": 105.84656249999534,
      "v": 80
    },
    {
      "midi": 59,
      "hit": false,
      "t": 162943.22250000984,
      "d": 5.040312500001164,
      "v": 91
    },
    {
      "midi": 54,
      "hit": false,
      "t": 162943.22250000984,
      "d": 20.161250000004657,
      "v": 77
    },
    {
      "midi": 57,
      "hit": false,
      "t": 162953.30312500984,
      "d": 25.20156250000582,
      "v": 73
    },
    {
      "midi": 63,
      "hit": false,
      "t": 162963.38375000985,
      "d": 20.161250000004657,
      "v": 85
    },
    {
      "midi": 44,
      "hit": false,
      "t": 163064.19000000987,
      "d": 5.040312500001164,
      "v": 64
    },
    {
      "midi": 40,
      "hit": false,
      "t": 163064.19000000987,
      "d": 75.60468749998836,
      "v": 94
    },
    {
      "midi": 35,
      "hit": false,
      "t": 163064.19000000987,
      "d": 90.72562499999185,
      "v": 87
    },
    {
      "midi": 59,
      "hit": false,
      "t": 163185.15750000987,
      "d": 5.040312500001164,
      "v": 92
    },
    {
      "midi": 63,
      "hit": false,
      "t": 163301.08468750987,
      "d": 5.040312500001164,
      "v": 46
    },
    {
      "midi": 46,
      "hit": false,
      "t": 163306.12500000987,
      "d": 5.040312500001164,
      "v": 70
    },
    {
      "midi": 59,
      "hit": false,
      "t": 163306.12500000987,
      "d": 15.120937500003492,
      "v": 66
    },
    {
      "midi": 59,
      "hit": false,
      "t": 163427.09250000987,
      "d": 5.040312500001164,
      "v": 95
    },
    {
      "midi": 54,
      "hit": false,
      "t": 163427.09250000987,
      "d": 20.161250000004657,
      "v": 51
    },
    {
      "midi": 31,
      "hit": false,
      "t": 163432.13281250987,
      "d": 5.040312500001164,
      "v": 28
    },
    {
      "midi": 57,
      "hit": false,
      "t": 163437.17312500987,
      "d": 20.161250000004657,
      "v": 46
    },
    {
      "midi": 63,
      "hit": false,
      "t": 163442.21343750987,
      "d": 5.040312500001164,
      "v": 85
    },
    {
      "midi": 63,
      "hit": false,
      "t": 163447.25375000987,
      "d": 20.161250000004657,
      "v": 38
    },
    {
      "midi": 44,
      "hit": false,
      "t": 163548.0600000099,
      "d": 5.040312500001164,
      "v": 64
    },
    {
      "midi": 35,
      "hit": false,
      "t": 163548.0600000099,
      "d": 95.76593749999302,
      "v": 87
    },
    {
      "midi": 59,
      "hit": false,
      "t": 163669.0275000099,
      "d": 5.040312500001164,
      "v": 93
    },
    {
      "midi": 54,
      "hit": false,
      "t": 163669.0275000099,
      "d": 10.080625000002328,
      "v": 64
    },
    {
      "midi": 31,
      "hit": false,
      "t": 163674.0678125099,
      "d": 5.040312500001164,
      "v": 39
    },
    {
      "midi": 57,
      "hit": false,
      "t": 163679.1081250099,
      "d": 20.161250000004657,
      "v": 58
    },
    {
      "midi": 63,
      "hit": false,
      "t": 163689.1887500099,
      "d": 20.161250000004657,
      "v": 69
    },
    {
      "midi": 62,
      "hit": false,
      "t": 163784.9546875099,
      "d": 5.040312500001164,
      "v": 85
    },
    {
      "midi": 46,
      "hit": false,
      "t": 163789.9950000099,
      "d": 5.040312500001164,
      "v": 70
    },
    {
      "midi": 59,
      "hit": false,
      "t": 163789.9950000099,
      "d": 105.84656249999534,
      "v": 77
    },
    {
      "midi": 35,
      "hit": false,
      "t": 163789.9950000099,
      "d": 156.24968750000698,
      "v": 102
    },
    {
      "midi": 59,
      "hit": false,
      "t": 163910.9625000099,
      "d": 10.080625000002328,
      "v": 95
    },
    {
      "midi": 44,
      "hit": false,
      "t": 164031.93000000992,
      "d": 5.040312500001164,
      "v": 64
    },
    {
      "midi": 40,
      "hit": false,
      "t": 164031.93000000992,
      "d": 60.48375000001397,
      "v": 94
    },
    {
      "midi": 35,
      "hit": false,
      "t": 164031.93000000992,
      "d": 95.76593750002212,
      "v": 87
    },
    {
      "midi": 47,
      "hit": false,
      "t": 164031.93000000992,
      "d": 433.4668750000419,
      "v": 104
    },
    {
      "midi": 66,
      "hit": false,
      "t": 164031.93000000992,
      "d": 433.4668750000419,
      "v": 104
    },
    {
      "midi": 62,
      "hit": false,
      "t": 164147.85718750994,
      "d": 5.040312500001164,
      "v": 58
    },
    {
      "midi": 59,
      "hit": false,
      "t": 164152.89750000995,
      "d": 5.040312500001164,
      "v": 94
    },
    {
      "midi": 54,
      "hit": false,
      "t": 164152.89750000995,
      "d": 20.161250000004657,
      "v": 70
    },
    {
      "midi": 57,
      "hit": false,
      "t": 164162.97812500995,
      "d": 20.161250000004657,
      "v": 57
    },
    {
      "midi": 63,
      "hit": false,
      "t": 164173.05875000995,
      "d": 20.161250000004657,
      "v": 66
    },
    {
      "midi": 63,
      "hit": false,
      "t": 164268.82468750994,
      "d": 5.040312500001164,
      "v": 55
    },
    {
      "midi": 46,
      "hit": false,
      "t": 164273.86500000994,
      "d": 5.040312500001164,
      "v": 70
    },
    {
      "midi": 59,
      "hit": false,
      "t": 164273.86500000994,
      "d": 105.84656249999534,
      "v": 74
    },
    {
      "midi": 31,
      "hit": false,
      "t": 164278.90531250995,
      "d": 5.040312500001164,
      "v": 37
    },
    {
      "midi": 64,
      "hit": false,
      "t": 164394.83250000994,
      "d": 5.040312500001164,
      "v": 78
    },
    {
      "midi": 33,
      "hit": false,
      "t": 164394.83250000994,
      "d": 5.040312500001164,
      "v": 72
    },
    {
      "midi": 59,
      "hit": false,
      "t": 164394.83250000994,
      "d": 5.040312500001164,
      "v": 100
    },
    {
      "midi": 31,
      "hit": false,
      "t": 164399.87281250994,
      "d": 5.040312500001164,
      "v": 46
    },
    {
      "midi": 44,
      "hit": false,
      "t": 164515.80000000997,
      "d": 5.040312500001164,
      "v": 64
    },
    {
      "midi": 59,
      "hit": false,
      "t": 164515.80000000997,
      "d": 5.040312500001164,
      "v": 95
    },
    {
      "midi": 35,
      "hit": false,
      "t": 164515.80000000997,
      "d": 105.84656249999534,
      "v": 87
    },
    {
      "midi": 28,
      "hit": false,
      "t": 164515.80000000997,
      "d": 231.85437499999534,
      "v": 89
    },
    {
      "midi": 67,
      "hit": false,
      "t": 164515.80000000997,
      "d": 433.4668750000128,
      "v": 104
    },
    {
      "midi": 52,
      "hit": false,
      "t": 164515.80000000997,
      "d": 650.2003125000338,
      "v": 104
    },
    {
      "midi": 55,
      "hit": false,
      "t": 164636.76750000997,
      "d": 15.120937500003492,
      "v": 35
    },
    {
      "midi": 59,
      "hit": false,
      "t": 164646.84812500997,
      "d": 15.120937500003492,
      "v": 38
    },
    {
      "midi": 64,
      "hit": false,
      "t": 164656.92875000997,
      "d": 15.120937500003492,
      "v": 38
    },
    {
      "midi": 46,
      "hit": false,
      "t": 164752.69468750997,
      "d": 5.040312500001164,
      "v": 69
    },
    {
      "midi": 62,
      "hit": false,
      "t": 164757.73500000997,
      "d": 5.040312500001164,
      "v": 91
    },
    {
      "midi": 59,
      "hit": false,
      "t": 164757.73500000997,
      "d": 5.040312500001164,
      "v": 104
    },
    {
      "midi": 28,
      "hit": false,
      "t": 164757.73500000997,
      "d": 231.85437500002445,
      "v": 89
    },
    {
      "midi": 63,
      "hit": false,
      "t": 164878.70250000997,
      "d": 5.040312500001164,
      "v": 91
    },
    {
      "midi": 55,
      "hit": false,
      "t": 164878.70250000997,
      "d": 20.161250000004657,
      "v": 89
    },
    {
      "midi": 59,
      "hit": false,
      "t": 164888.78312500997,
      "d": 20.161250000004657,
      "v": 76
    },
    {
      "midi": 64,
      "hit": false,
      "t": 164898.86375000997,
      "d": 5.040312500001164,
      "v": 90
    },
    {
      "midi": 44,
      "hit": false,
      "t": 164994.62968751,
      "d": 5.040312500001164,
      "v": 71
    },
    {
      "midi": 40,
      "hit": false,
      "t": 164999.67000001,
      "d": 70.5643749999872,
      "v": 94
    },
    {
      "midi": 35,
      "hit": false,
      "t": 164999.67000001,
      "d": 105.84656249999534,
      "v": 87
    },
    {
      "midi": 31,
      "hit": false,
      "t": 164999.67000001,
      "d": 231.85437499999534,
      "v": 101
    },
    {
      "midi": 64,
      "hit": false,
      "t": 165120.63750001,
      "d": 5.040312500001164,
      "v": 91
    },
    {
      "midi": 46,
      "hit": false,
      "t": 165241.60500001,
      "d": 5.040312500001164,
      "v": 61
    },
    {
      "midi": 63,
      "hit": false,
      "t": 165241.60500001,
      "d": 5.040312500001164,
      "v": 47
    },
    {
      "midi": 31,
      "hit": false,
      "t": 165241.60500001,
      "d": 231.85437499999534,
      "v": 101
    },
    {
      "midi": 59,
      "hit": false,
      "t": 165251.68562501,
      "d": 95.76593749999302,
      "v": 78
    },
    {
      "midi": 63,
      "hit": false,
      "t": 165362.57250001,
      "d": 5.040312500001164,
      "v": 85
    },
    {
      "midi": 59,
      "hit": false,
      "t": 165362.57250001,
      "d": 5.040312500001164,
      "v": 107
    },
    {
      "midi": 55,
      "hit": false,
      "t": 165362.57250001,
      "d": 10.080625000002328,
      "v": 48
    },
    {
      "midi": 59,
      "hit": false,
      "t": 165372.65312501,
      "d": 110.88687499999651,
      "v": 60
    },
    {
      "midi": 64,
      "hit": false,
      "t": 165382.73375001,
      "d": 10.080625000002328,
      "v": 52
    },
    {
      "midi": 40,
      "hit": false,
      "t": 165483.54000001,
      "d": 5.040312500001164,
      "v": 93
    },
    {
      "midi": 44,
      "hit": false,
      "t": 165483.54000001,
      "d": 5.040312500001164,
      "v": 64
    },
    {
      "midi": 59,
      "hit": false,
      "t": 165483.54000001,
      "d": 5.040312500001164,
      "v": 40
    },
    {
      "midi": 35,
      "hit": false,
      "t": 165483.54000001,
      "d": 90.72562499999185,
      "v": 86
    },
    {
      "midi": 67,
      "hit": false,
      "t": 165483.54000001,
      "d": 433.4668750000128,
      "v": 104
    },
    {
      "midi": 62,
      "hit": false,
      "t": 165604.50750001,
      "d": 5.040312500001164,
      "v": 91
    },
    {
      "midi": 59,
      "hit": false,
      "t": 165604.50750001,
      "d": 5.040312500001164,
      "v": 104
    },
    {
      "midi": 55,
      "hit": false,
      "t": 165604.50750001,
      "d": 10.080625000002328,
      "v": 66
    },
    {
      "midi": 59,
      "hit": false,
      "t": 165614.58812501,
      "d": 25.20156250000582,
      "v": 58
    },
    {
      "midi": 64,
      "hit": false,
      "t": 165624.66875001,
      "d": 20.161250000004657,
      "v": 68
    },
    {
      "midi": 40,
      "hit": false,
      "t": 165725.47500001,
      "d": 5.040312500001164,
      "v": 64
    },
    {
      "midi": 64,
      "hit": false,
      "t": 165725.47500001,
      "d": 5.040312500001164,
      "v": 78
    },
    {
      "midi": 59,
      "hit": false,
      "t": 165725.47500001,
      "d": 5.040312500001164,
      "v": 104
    },
    {
      "midi": 35,
      "hit": false,
      "t": 165725.47500001,
      "d": 236.8946875000256,
      "v": 82
    },
    {
      "midi": 40,
      "hit": false,
      "t": 165846.44250001,
      "d": 5.040312500001164,
      "v": 87
    },
    {
      "midi": 64,
      "hit": false,
      "t": 165846.44250001,
      "d": 5.040312500001164,
      "v": 78
    },
    {
      "midi": 43,
      "hit": false,
      "t": 165967.41000001002,
      "d": 5.040312500001164,
      "v": 86
    },
    {
      "midi": 64,
      "hit": false,
      "t": 165967.41000001002,
      "d": 5.040312500001164,
      "v": 82
    },
    {
      "midi": 35,
      "hit": false,
      "t": 165967.41000001002,
      "d": 90.72562499999185,
      "v": 86
    },
    {
      "midi": 50,
      "hit": false,
      "t": 165967.41000001002,
      "d": 433.4668749999837,
      "v": 104
    },
    {
      "midi": 69,
      "hit": false,
      "t": 165967.41000001002,
      "d": 433.4668749999837,
      "v": 104
    },
    {
      "midi": 44,
      "hit": false,
      "t": 165972.45031251002,
      "d": 5.040312500001164,
      "v": 71
    },
    {
      "midi": 40,
      "hit": false,
      "t": 166088.37750001,
      "d": 5.040312500001164,
      "v": 73
    },
    {
      "midi": 62,
      "hit": false,
      "t": 166088.37750001,
      "d": 5.040312500001164,
      "v": 93
    },
    {
      "midi": 55,
      "hit": false,
      "t": 166088.37750001,
      "d": 30.241875000006985,
      "v": 43
    },
    {
      "midi": 59,
      "hit": false,
      "t": 166098.45812501002,
      "d": 25.20156250000582,
      "v": 75
    },
    {
      "midi": 64,
      "hit": false,
      "t": 166108.53875001002,
      "d": 25.20156250000582,
      "v": 60
    },
    {
      "midi": 40,
      "hit": false,
      "t": 166209.34500001,
      "d": 5.040312500001164,
      "v": 95
    },
    {
      "midi": 35,
      "hit": false,
      "t": 166219.42562501002,
      "d": 221.77374999999302,
      "v": 76
    },
    {
      "midi": 59,
      "hit": false,
      "t": 166330.31250001,
      "d": 5.040312500001164,
      "v": 96
    },
    {
      "midi": 57,
      "hit": false,
      "t": 166446.23968751,
      "d": 5.040312500001164,
      "v": 79
    },
    {
      "midi": 44,
      "hit": false,
      "t": 166451.28000001,
      "d": 5.040312500001164,
      "v": 64
    },
    {
      "midi": 60,
      "hit": false,
      "t": 166451.28000001,
      "d": 5.040312500001164,
      "v": 85
    },
    {
      "midi": 35,
      "hit": false,
      "t": 166451.28000001,
      "d": 105.84656249999534,
      "v": 87
    },
    {
      "midi": 36,
      "hit": false,
      "t": 166451.28000001,
      "d": 176.41093750001164,
      "v": 101
    },
    {
      "midi": 71,
      "hit": false,
      "t": 166451.28000001,
      "d": 322.5800000000454,
      "v": 104
    },
    {
      "midi": 48,
      "hit": false,
      "t": 166451.28000001,
      "d": 650.2003125000629,
      "v": 104
    },
    {
      "midi": 55,
      "hit": false,
      "t": 166572.24750001,
      "d": 30.241875000006985,
      "v": 56
    },
    {
      "midi": 59,
      "hit": false,
      "t": 166582.32812501,
      "d": 25.20156250000582,
      "v": 50
    },
    {
      "midi": 64,
      "hit": false,
      "t": 166592.40875001,
      "d": 30.241875000006985,
      "v": 33
    },
    {
      "midi": 46,
      "hit": false,
      "t": 166688.17468751004,
      "d": 5.040312500001164,
      "v": 69
    },
    {
      "midi": 62,
      "hit": false,
      "t": 166693.21500001004,
      "d": 5.040312500001164,
      "v": 91
    },
    {
      "midi": 60,
      "hit": false,
      "t": 166693.21500001004,
      "d": 5.040312500001164,
      "v": 94
    },
    {
      "midi": 55,
      "hit": false,
      "t": 166814.18250001007,
      "d": 20.161250000004657,
      "v": 96
    },
    {
      "midi": 59,
      "hit": false,
      "t": 166824.26312501007,
      "d": 20.161250000004657,
      "v": 89
    },
    {
      "midi": 64,
      "hit": false,
      "t": 166834.34375001007,
      "d": 15.120937500003492,
      "v": 84
    },
    {
      "midi": 44,
      "hit": false,
      "t": 166930.10968751006,
      "d": 5.040312500001164,
      "v": 71
    },
    {
      "midi": 40,
      "hit": false,
      "t": 166935.15000001006,
      "d": 70.5643749999872,
      "v": 94
    },
    {
      "midi": 60,
      "hit": false,
      "t": 166935.15000001006,
      "d": 85.68531249999069,
      "v": 100
    },
    {
      "midi": 35,
      "hit": false,
      "t": 166935.15000001006,
      "d": 105.84656249999534,
      "v": 87
    },
    {
      "midi": 36,
      "hit": false,
      "t": 166935.15000001006,
      "d": 166.3303125000093,
      "v": 99
    },
    {
      "midi": 60,
      "hit": false,
      "t": 167056.11750001006,
      "d": 10.080625000002328,
      "v": 100
    },
    {
      "midi": 46,
      "hit": false,
      "t": 167177.0850000101,
      "d": 5.040312500001164,
      "v": 61
    },
    {
      "midi": 63,
      "hit": false,
      "t": 167177.0850000101,
      "d": 5.040312500001164,
      "v": 47
    },
    {
      "midi": 63,
      "hit": false,
      "t": 167298.0525000101,
      "d": 5.040312500001164,
      "v": 85
    },
    {
      "midi": 60,
      "hit": false,
      "t": 167298.0525000101,
      "d": 5.040312500001164,
      "v": 95
    },
    {
      "midi": 55,
      "hit": false,
      "t": 167298.0525000101,
      "d": 15.120937500003492,
      "v": 36
    },
    {
      "midi": 31,
      "hit": false,
      "t": 167303.0928125101,
      "d": 5.040312500001164,
      "v": 42
    },
    {
      "midi": 59,
      "hit": false,
      "t": 167308.1331250101,
      "d": 15.120937500003492,
      "v": 46
    },
    {
      "midi": 64,
      "hit": false,
      "t": 167318.2137500101,
      "d": 15.120937500003492,
      "v": 30
    },
    {
      "midi": 44,
      "hit": false,
      "t": 167419.0200000101,
      "d": 5.040312500001164,
      "v": 64
    },
    {
      "midi": 60,
      "hit": false,
      "t": 167419.0200000101,
      "d": 5.040312500001164,
      "v": 92
    },
    {
      "midi": 35,
      "hit": false,
      "t": 167419.0200000101,
      "d": 90.72562499999185,
      "v": 86
    },
    {
      "midi": 55,
      "hit": false,
      "t": 167419.0200000101,
      "d": 95.76593749999302,
      "v": 13
    },
    {
      "midi": 36,
      "hit": false,
      "t": 167419.0200000101,
      "d": 115.92718749999767,
      "v": 94
    },
    {
      "midi": 31,
      "hit": false,
      "t": 167539.9875000101,
      "d": 5.040312500001164,
      "v": 39
    },
    {
      "midi": 60,
      "hit": false,
      "t": 167539.9875000101,
      "d": 5.040312500001164,
      "v": 94
    },
    {
      "midi": 55,
      "hit": false,
      "t": 167539.9875000101,
      "d": 20.161250000004657,
      "v": 80
    },
    {
      "midi": 59,
      "hit": false,
      "t": 167550.0681250101,
      "d": 20.161250000004657,
      "v": 68
    },
    {
      "midi": 64,
      "hit": false,
      "t": 167560.1487500101,
      "d": 20.161250000004657,
      "v": 75
    },
    {
      "midi": 46,
      "hit": false,
      "t": 167660.9550000101,
      "d": 5.040312500001164,
      "v": 70
    },
    {
      "midi": 62,
      "hit": false,
      "t": 167660.9550000101,
      "d": 5.040312500001164,
      "v": 85
    },
    {
      "midi": 60,
      "hit": false,
      "t": 167660.9550000101,
      "d": 5.040312500001164,
      "v": 94
    },
    {
      "midi": 36,
      "hit": false,
      "t": 167660.9550000101,
      "d": 156.24968750000698,
      "v": 102
    },
    {
      "midi": 40,
      "hit": false,
      "t": 167902.89000001008,
      "d": 65.52406250001513,
      "v": 91
    },
    {
      "midi": 35,
      "hit": false,
      "t": 167902.89000001008,
      "d": 90.72562500002095,
      "v": 86
    },
    {
      "midi": 60,
      "hit": false,
      "t": 167902.89000001008,
      "d": 100.80625000002328,
      "v": 100
    },
    {
      "midi": 55,
      "hit": false,
      "t": 167902.89000001008,
      "d": 181.4512500000419,
      "v": 96
    },
    {
      "midi": 48,
      "hit": false,
      "t": 167902.89000001008,
      "d": 433.4668750000419,
      "v": 104
    },
    {
      "midi": 44,
      "hit": false,
      "t": 167907.93031251009,
      "d": 5.040312500001164,
      "v": 71
    },
    {
      "midi": 62,
      "hit": false,
      "t": 168023.8575000101,
      "d": 5.040312500001164,
      "v": 62
    },
    {
      "midi": 60,
      "hit": false,
      "t": 168023.8575000101,
      "d": 5.040312500001164,
      "v": 100
    },
    {
      "midi": 59,
      "hit": false,
      "t": 168023.8575000101,
      "d": 25.20156250000582,
      "v": 47
    },
    {
      "midi": 64,
      "hit": false,
      "t": 168033.9381250101,
      "d": 25.20156250000582,
      "v": 52
    },
    {
      "midi": 46,
      "hit": false,
      "t": 168144.82500001014,
      "d": 5.040312500001164,
      "v": 70
    },
    {
      "midi": 63,
      "hit": false,
      "t": 168144.82500001014,
      "d": 5.040312500001164,
      "v": 53
    },
    {
      "midi": 64,
      "hit": false,
      "t": 168265.79250001014,
      "d": 5.040312500001164,
      "v": 74
    },
    {
      "midi": 35,
      "hit": false,
      "t": 168265.79250001014,
      "d": 5.040312500001164,
      "v": 72
    },
    {
      "midi": 60,
      "hit": false,
      "t": 168265.79250001014,
      "d": 5.040312500001164,
      "v": 88
    },
    {
      "midi": 44,
      "hit": false,
      "t": 168386.76000001014,
      "d": 5.040312500001164,
      "v": 71
    },
    {
      "midi": 60,
      "hit": false,
      "t": 168386.76000001014,
      "d": 5.040312500001164,
      "v": 100
    },
    {
      "midi": 35,
      "hit": false,
      "t": 168386.76000001014,
      "d": 90.72562499999185,
      "v": 79
    },
    {
      "midi": 36,
      "hit": false,
      "t": 168386.76000001014,
      "d": 171.37062500001048,
      "v": 96
    },
    {
      "midi": 71,
      "hit": false,
      "t": 168386.76000001014,
      "d": 322.5800000000163,
      "v": 104
    },
    {
      "midi": 50,
      "hit": false,
      "t": 168386.76000001014,
      "d": 650.2003125000629,
      "v": 104
    },
    {
      "midi": 55,
      "hit": false,
      "t": 168507.72750001014,
      "d": 30.241875000006985,
      "v": 56
    },
    {
      "midi": 59,
      "hit": false,
      "t": 168517.80812501014,
      "d": 25.20156250000582,
      "v": 50
    },
    {
      "midi": 64,
      "hit": false,
      "t": 168527.88875001014,
      "d": 30.241875000006985,
      "v": 33
    },
    {
      "midi": 46,
      "hit": false,
      "t": 168623.65468751013,
      "d": 5.040312500001164,
      "v": 74
    },
    {
      "midi": 62,
      "hit": false,
      "t": 168628.69500001014,
      "d": 5.040312500001164,
      "v": 85
    },
    {
      "midi": 60,
      "hit": false,
      "t": 168628.69500001014,
      "d": 5.040312500001164,
      "v": 100
    },
    {
      "midi": 55,
      "hit": false,
      "t": 168749.66250001016,
      "d": 20.161250000004657,
      "v": 96
    },
    {
      "midi": 59,
      "hit": false,
      "t": 168759.74312501017,
      "d": 20.161250000004657,
      "v": 89
    },
    {
      "midi": 64,
      "hit": false,
      "t": 168769.82375001017,
      "d": 15.120937500003492,
      "v": 84
    },
    {
      "midi": 44,
      "hit": false,
      "t": 168870.63000001016,
      "d": 5.040312500001164,
      "v": 61
    },
    {
      "midi": 40,
      "hit": false,
      "t": 168870.63000001016,
      "d": 65.52406250001513,
      "v": 91
    },
    {
      "midi": 35,
      "hit": false,
      "t": 168870.63000001016,
      "d": 90.72562500002095,
      "v": 79
    },
    {
      "midi": 60,
      "hit": false,
      "t": 168870.63000001016,
      "d": 90.72562500002095,
      "v": 97
    },
    {
      "midi": 36,
      "hit": false,
      "t": 168870.63000001016,
      "d": 176.41093750004075,
      "v": 96
    },
    {
      "midi": 60,
      "hit": false,
      "t": 168991.5975000102,
      "d": 5.040312500001164,
      "v": 100
    },
    {
      "midi": 46,
      "hit": false,
      "t": 169107.52468751022,
      "d": 5.040312500001164,
      "v": 67
    },
    {
      "midi": 63,
      "hit": false,
      "t": 169112.56500001022,
      "d": 5.040312500001164,
      "v": 37
    },
    {
      "midi": 55,
      "hit": false,
      "t": 169112.56500001022,
      "d": 236.8946874999965,
      "v": 90
    },
    {
      "midi": 63,
      "hit": false,
      "t": 169233.53250001022,
      "d": 5.040312500001164,
      "v": 80
    },
    {
      "midi": 60,
      "hit": false,
      "t": 169233.53250001022,
      "d": 5.040312500001164,
      "v": 91
    },
    {
      "midi": 35,
      "hit": false,
      "t": 169233.53250001022,
      "d": 15.120937500003492,
      "v": 86
    },
    {
      "midi": 59,
      "hit": false,
      "t": 169233.53250001022,
      "d": 30.241875000006985,
      "v": 30
    },
    {
      "midi": 31,
      "hit": false,
      "t": 169238.57281251022,
      "d": 5.040312500001164,
      "v": 39
    },
    {
      "midi": 64,
      "hit": false,
      "t": 169243.61312501022,
      "d": 30.241875000006985,
      "v": 30
    },
    {
      "midi": 44,
      "hit": false,
      "t": 169354.50000001022,
      "d": 5.040312500001164,
      "v": 71
    },
    {
      "midi": 60,
      "hit": false,
      "t": 169354.50000001022,
      "d": 5.040312500001164,
      "v": 95
    },
    {
      "midi": 35,
      "hit": false,
      "t": 169354.50000001022,
      "d": 90.72562499999185,
      "v": 86
    },
    {
      "midi": 36,
      "hit": false,
      "t": 169354.50000001022,
      "d": 95.76593749999302,
      "v": 94
    },
    {
      "midi": 60,
      "hit": false,
      "t": 169475.4675000102,
      "d": 5.040312500001164,
      "v": 95
    },
    {
      "midi": 55,
      "hit": false,
      "t": 169475.4675000102,
      "d": 20.161250000004657,
      "v": 91
    },
    {
      "midi": 59,
      "hit": false,
      "t": 169485.54812501022,
      "d": 25.20156250000582,
      "v": 82
    },
    {
      "midi": 64,
      "hit": false,
      "t": 169495.62875001022,
      "d": 50.40312500001164,
      "v": 86
    },
    {
      "midi": 46,
      "hit": false,
      "t": 169591.39468751024,
      "d": 5.040312500001164,
      "v": 64
    },
    {
      "midi": 62,
      "hit": false,
      "t": 169596.43500001024,
      "d": 5.040312500001164,
      "v": 78
    },
    {
      "midi": 36,
      "hit": false,
      "t": 169596.43500001024,
      "d": 166.3303125000093,
      "v": 97
    },
    {
      "midi": 60,
      "hit": false,
      "t": 169717.40250001024,
      "d": 5.040312500001164,
      "v": 95
    },
    {
      "midi": 44,
      "hit": false,
      "t": 169838.37000001027,
      "d": 5.040312500001164,
      "v": 71
    },
    {
      "midi": 40,
      "hit": false,
      "t": 169838.37000001027,
      "d": 65.52406250001513,
      "v": 94
    },
    {
      "midi": 35,
      "hit": false,
      "t": 169838.37000001027,
      "d": 90.72562500002095,
      "v": 86
    },
    {
      "midi": 60,
      "hit": false,
      "t": 169838.37000001027,
      "d": 95.76593750002212,
      "v": 97
    },
    {
      "midi": 50,
      "hit": false,
      "t": 169838.37000001027,
      "d": 433.4668750000419,
      "v": 104
    },
    {
      "midi": 62,
      "hit": false,
      "t": 169959.3375000103,
      "d": 5.040312500001164,
      "v": 62
    },
    {
      "midi": 60,
      "hit": false,
      "t": 169959.3375000103,
      "d": 5.040312500001164,
      "v": 97
    },
    {
      "midi": 55,
      "hit": false,
      "t": 169959.3375000103,
      "d": 10.080625000002328,
      "v": 76
    },
    {
      "midi": 35,
      "hit": false,
      "t": 169959.3375000103,
      "d": 15.120937500003492,
      "v": 86
    },
    {
      "midi": 59,
      "hit": false,
      "t": 169969.4181250103,
      "d": 15.120937500003492,
      "v": 65
    },
    {
      "midi": 64,
      "hit": false,
      "t": 169979.4987500103,
      "d": 15.120937500003492,
      "v": 69
    },
    {
      "midi": 46,
      "hit": false,
      "t": 170080.30500001032,
      "d": 5.040312500001164,
      "v": 70
    },
    {
      "midi": 63,
      "hit": false,
      "t": 170080.30500001032,
      "d": 5.040312500001164,
      "v": 55
    },
    {
      "midi": 60,
      "hit": false,
      "t": 170080.30500001032,
      "d": 5.040312500001164,
      "v": 97
    },
    {
      "midi": 31,
      "hit": false,
      "t": 170080.30500001032,
      "d": 196.5721874999872,
      "v": 83
    },
    {
      "midi": 69,
      "hit": false,
      "t": 170080.30500001032,
      "d": 650.2003125000047,
      "v": 104
    },
    {
      "midi": 63,
      "hit": false,
      "t": 170201.27250001032,
      "d": 5.040312500001164,
      "v": 70
    },
    {
      "midi": 60,
      "hit": false,
      "t": 170201.27250001032,
      "d": 5.040312500001164,
      "v": 97
    },
    {
      "midi": 44,
      "hit": false,
      "t": 170322.24000001032,
      "d": 5.040312500001164,
      "v": 71
    },
    {
      "midi": 59,
      "hit": false,
      "t": 170322.24000001032,
      "d": 5.040312500001164,
      "v": 94
    },
    {
      "midi": 35,
      "hit": false,
      "t": 170322.24000001032,
      "d": 90.72562499999185,
      "v": 87
    },
    {
      "midi": 31,
      "hit": false,
      "t": 170322.24000001032,
      "d": 176.41093750001164,
      "v": 101
    },
    {
      "midi": 59,
      "hit": false,
      "t": 170443.20750001032,
      "d": 30.241875000006985,
      "v": 46
    },
    {
      "midi": 62,
      "hit": false,
      "t": 170453.28812501032,
      "d": 30.241875000006985,
      "v": 26
    },
    {
      "midi": 46,
      "hit": false,
      "t": 170564.17500001032,
      "d": 5.040312500001164,
      "v": 70
    },
    {
      "midi": 62,
      "hit": false,
      "t": 170564.17500001032,
      "d": 5.040312500001164,
      "v": 63
    },
    {
      "midi": 59,
      "hit": false,
      "t": 170564.17500001032,
      "d": 5.040312500001164,
      "v": 85
    },
    {
      "midi": 55,
      "hit": false,
      "t": 170685.14250001032,
      "d": 20.161250000004657,
      "v": 77
    },
    {
      "midi": 59,
      "hit": false,
      "t": 170695.22312501032,
      "d": 25.20156250000582,
      "v": 73
    },
    {
      "midi": 62,
      "hit": false,
      "t": 170705.30375001032,
      "d": 20.161250000004657,
      "v": 85
    },
    {
      "midi": 44,
      "hit": false,
      "t": 170806.11000001035,
      "d": 5.040312500001164,
      "v": 64
    },
    {
      "midi": 40,
      "hit": false,
      "t": 170806.11000001035,
      "d": 75.60468749998836,
      "v": 94
    },
    {
      "midi": 35,
      "hit": false,
      "t": 170806.11000001035,
      "d": 90.72562499999185,
      "v": 87
    },
    {
      "midi": 59,
      "hit": false,
      "t": 170806.11000001035,
      "d": 105.84656249999534,
      "v": 94
    },
    {
      "midi": 31,
      "hit": false,
      "t": 170806.11000001035,
      "d": 166.3303125000093,
      "v": 99
    },
    {
      "midi": 50,
      "hit": false,
      "t": 170806.11000001035,
      "d": 433.4668750000128,
      "v": 104
    },
    {
      "midi": 59,
      "hit": false,
      "t": 170927.07750001035,
      "d": 5.040312500001164,
      "v": 100
    },
    {
      "midi": 63,
      "hit": false,
      "t": 171043.00468751034,
      "d": 5.040312500001164,
      "v": 46
    },
    {
      "midi": 46,
      "hit": false,
      "t": 171048.04500001034,
      "d": 5.040312500001164,
      "v": 70
    },
    {
      "midi": 79,
      "hit": false,
      "t": 171048.04500001034,
      "d": 650.2003125000338,
      "v": 104
    },
    {
      "midi": 59,
      "hit": false,
      "t": 171169.01250001034,
      "d": 5.040312500001164,
      "v": 88
    },
    {
      "midi": 55,
      "hit": false,
      "t": 171169.01250001034,
      "d": 20.161250000004657,
      "v": 51
    },
    {
      "midi": 31,
      "hit": false,
      "t": 171174.05281251034,
      "d": 5.040312500001164,
      "v": 28
    },
    {
      "midi": 59,
      "hit": false,
      "t": 171179.09312501035,
      "d": 20.161250000004657,
      "v": 46
    },
    {
      "midi": 63,
      "hit": false,
      "t": 171184.13343751035,
      "d": 5.040312500001164,
      "v": 85
    },
    {
      "midi": 62,
      "hit": false,
      "t": 171189.17375001035,
      "d": 20.161250000004657,
      "v": 38
    },
    {
      "midi": 44,
      "hit": false,
      "t": 171289.98000001037,
      "d": 5.040312500001164,
      "v": 64
    },
    {
      "midi": 59,
      "hit": false,
      "t": 171289.98000001037,
      "d": 5.040312500001164,
      "v": 94
    },
    {
      "midi": 35,
      "hit": false,
      "t": 171289.98000001037,
      "d": 95.76593749999302,
      "v": 87
    },
    {
      "midi": 31,
      "hit": false,
      "t": 171289.98000001037,
      "d": 115.92718749999767,
      "v": 94
    },
    {
      "midi": 43,
      "hit": false,
      "t": 171289.98000001037,
      "d": 433.4668750000128,
      "v": 104
    },
    {
      "midi": 55,
      "hit": false,
      "t": 171410.94750001037,
      "d": 10.080625000002328,
      "v": 64
    },
    {
      "midi": 31,
      "hit": false,
      "t": 171415.98781251037,
      "d": 5.040312500001164,
      "v": 39
    },
    {
      "midi": 59,
      "hit": false,
      "t": 171421.02812501037,
      "d": 20.161250000004657,
      "v": 58
    },
    {
      "midi": 62,
      "hit": false,
      "t": 171431.10875001037,
      "d": 20.161250000004657,
      "v": 69
    },
    {
      "midi": 62,
      "hit": false,
      "t": 171526.87468751037,
      "d": 5.040312500001164,
      "v": 85
    },
    {
      "midi": 46,
      "hit": false,
      "t": 171531.91500001037,
      "d": 5.040312500001164,
      "v": 70
    },
    {
      "midi": 59,
      "hit": false,
      "t": 171531.91500001037,
      "d": 5.040312500001164,
      "v": 93
    },
    {
      "midi": 31,
      "hit": false,
      "t": 171531.91500001037,
      "d": 156.24968750000698,
      "v": 102
    },
    {
      "midi": 44,
      "hit": false,
      "t": 171773.8500000104,
      "d": 5.040312500001164,
      "v": 64
    },
    {
      "midi": 40,
      "hit": false,
      "t": 171773.8500000104,
      "d": 60.48375000001397,
      "v": 94
    },
    {
      "midi": 35,
      "hit": false,
      "t": 171773.8500000104,
      "d": 95.76593750002212,
      "v": 87
    },
    {
      "midi": 50,
      "hit": false,
      "t": 171773.8500000104,
      "d": 433.4668750000419,
      "v": 104
    },
    {
      "midi": 74,
      "hit": false,
      "t": 171773.8500000104,
      "d": 650.2003125000629,
      "v": 104
    },
    {
      "midi": 59,
      "hit": false,
      "t": 171783.9306250104,
      "d": 95.76593750002212,
      "v": 76
    },
    {
      "midi": 62,
      "hit": false,
      "t": 171889.77718751042,
      "d": 5.040312500001164,
      "v": 58
    },
    {
      "midi": 59,
      "hit": false,
      "t": 171894.81750001042,
      "d": 5.040312500001164,
      "v": 100
    },
    {
      "midi": 55,
      "hit": false,
      "t": 171894.81750001042,
      "d": 20.161250000004657,
      "v": 70
    },
    {
      "midi": 59,
      "hit": false,
      "t": 171904.89812501043,
      "d": 20.161250000004657,
      "v": 57
    },
    {
      "midi": 62,
      "hit": false,
      "t": 171914.97875001043,
      "d": 20.161250000004657,
      "v": 66
    },
    {
      "midi": 63,
      "hit": false,
      "t": 172010.74468751042,
      "d": 5.040312500001164,
      "v": 55
    },
    {
      "midi": 46,
      "hit": false,
      "t": 172015.78500001042,
      "d": 5.040312500001164,
      "v": 70
    },
    {
      "midi": 31,
      "hit": false,
      "t": 172020.82531251042,
      "d": 5.040312500001164,
      "v": 37
    },
    {
      "midi": 64,
      "hit": false,
      "t": 172136.75250001042,
      "d": 5.040312500001164,
      "v": 78
    },
    {
      "midi": 43,
      "hit": false,
      "t": 172136.75250001042,
      "d": 5.040312500001164,
      "v": 72
    },
    {
      "midi": 59,
      "hit": false,
      "t": 172136.75250001042,
      "d": 5.040312500001164,
      "v": 92
    },
    {
      "midi": 31,
      "hit": false,
      "t": 172141.79281251042,
      "d": 5.040312500001164,
      "v": 46
    },
    {
      "midi": 44,
      "hit": false,
      "t": 172257.72000001045,
      "d": 5.040312500001164,
      "v": 64
    },
    {
      "midi": 59,
      "hit": false,
      "t": 172257.72000001045,
      "d": 5.040312500001164,
      "v": 85
    },
    {
      "midi": 35,
      "hit": false,
      "t": 172257.72000001045,
      "d": 105.84656249999534,
      "v": 87
    },
    {
      "midi": 38,
      "hit": false,
      "t": 172257.72000001045,
      "d": 171.37062500001048,
      "v": 96
    },
    {
      "midi": 55,
      "hit": false,
      "t": 172378.68750001045,
      "d": 15.120937500003492,
      "v": 35
    },
    {
      "midi": 59,
      "hit": false,
      "t": 172388.76812501045,
      "d": 15.120937500003492,
      "v": 38
    },
    {
      "midi": 62,
      "hit": false,
      "t": 172398.84875001045,
      "d": 15.120937500003492,
      "v": 38
    },
    {
      "midi": 62,
      "hit": false,
      "t": 172484.53406251047,
      "d": 5.040312500001164,
      "v": 77
    },
    {
      "midi": 46,
      "hit": false,
      "t": 172494.61468751048,
      "d": 5.040312500001164,
      "v": 69
    },
    {
      "midi": 59,
      "hit": false,
      "t": 172499.65500001048,
      "d": 5.040312500001164,
      "v": 94
    },
    {
      "midi": 83,
      "hit": false,
      "t": 172499.65500001048,
      "d": 650.2003125000629,
      "v": 104
    },
    {
      "midi": 55,
      "hit": false,
      "t": 172620.62250001048,
      "d": 20.161250000004657,
      "v": 89
    },
    {
      "midi": 59,
      "hit": false,
      "t": 172630.70312501048,
      "d": 20.161250000004657,
      "v": 76
    },
    {
      "midi": 62,
      "hit": false,
      "t": 172640.78375001048,
      "d": 5.040312500001164,
      "v": 90
    },
    {
      "midi": 44,
      "hit": false,
      "t": 172736.5496875105,
      "d": 5.040312500001164,
      "v": 71
    },
    {
      "midi": 40,
      "hit": false,
      "t": 172741.5900000105,
      "d": 70.5643749999872,
      "v": 94
    },
    {
      "midi": 59,
      "hit": false,
      "t": 172741.5900000105,
      "d": 85.68531249999069,
      "v": 100
    },
    {
      "midi": 35,
      "hit": false,
      "t": 172741.5900000105,
      "d": 105.84656249999534,
      "v": 87
    },
    {
      "midi": 38,
      "hit": false,
      "t": 172741.5900000105,
      "d": 176.41093750001164,
      "v": 96
    },
    {
      "midi": 50,
      "hit": false,
      "t": 172741.5900000105,
      "d": 433.4668750000419,
      "v": 104
    },
    {
      "midi": 59,
      "hit": false,
      "t": 172862.5575000105,
      "d": 10.080625000002328,
      "v": 100
    },
    {
      "midi": 63,
      "hit": false,
      "t": 172968.40406251053,
      "d": 5.040312500001164,
      "v": 55
    },
    {
      "midi": 46,
      "hit": false,
      "t": 172983.52500001053,
      "d": 5.040312500001164,
      "v": 61
    },
    {
      "midi": 59,
      "hit": false,
      "t": 172993.60562501053,
      "d": 95.76593749999302,
      "v": 78
    },
    {
      "midi": 63,
      "hit": false,
      "t": 173104.49250001053,
      "d": 5.040312500001164,
      "v": 88
    },
    {
      "midi": 59,
      "hit": false,
      "t": 173104.49250001053,
      "d": 5.040312500001164,
      "v": 95
    },
    {
      "midi": 55,
      "hit": false,
      "t": 173104.49250001053,
      "d": 10.080625000002328,
      "v": 48
    },
    {
      "midi": 38,
      "hit": false,
      "t": 173104.49250001053,
      "d": 15.120937500003492,
      "v": 86
    },
    {
      "midi": 31,
      "hit": false,
      "t": 173109.53281251053,
      "d": 5.040312500001164,
      "v": 39
    },
    {
      "midi": 59,
      "hit": false,
      "t": 173114.57312501053,
      "d": 110.88687500002561,
      "v": 60
    },
    {
      "midi": 62,
      "hit": false,
      "t": 173124.65375001053,
      "d": 10.080625000002328,
      "v": 52
    },
    {
      "midi": 44,
      "hit": false,
      "t": 173225.46000001056,
      "d": 5.040312500001164,
      "v": 64
    },
    {
      "midi": 59,
      "hit": false,
      "t": 173225.46000001056,
      "d": 5.040312500001164,
      "v": 40
    },
    {
      "midi": 35,
      "hit": false,
      "t": 173225.46000001056,
      "d": 90.72562499999185,
      "v": 86
    },
    {
      "midi": 38,
      "hit": false,
      "t": 173225.46000001056,
      "d": 95.76593749999302,
      "v": 94
    },
    {
      "midi": 81,
      "hit": false,
      "t": 173225.46000001056,
      "d": 433.4668750000128,
      "v": 104
    },
    {
      "midi": 31,
      "hit": false,
      "t": 173346.42750001056,
      "d": 5.040312500001164,
      "v": 30
    },
    {
      "midi": 59,
      "hit": false,
      "t": 173346.42750001056,
      "d": 5.040312500001164,
      "v": 94
    },
    {
      "midi": 55,
      "hit": false,
      "t": 173346.42750001056,
      "d": 10.080625000002328,
      "v": 66
    },
    {
      "midi": 59,
      "hit": false,
      "t": 173356.50812501056,
      "d": 25.20156250000582,
      "v": 58
    },
    {
      "midi": 62,
      "hit": false,
      "t": 173366.58875001056,
      "d": 20.161250000004657,
      "v": 68
    },
    {
      "midi": 62,
      "hit": false,
      "t": 173462.35468751055,
      "d": 5.040312500001164,
      "v": 68
    },
    {
      "midi": 46,
      "hit": false,
      "t": 173467.39500001055,
      "d": 5.040312500001164,
      "v": 70
    },
    {
      "midi": 59,
      "hit": false,
      "t": 173467.39500001055,
      "d": 5.040312500001164,
      "v": 94
    },
    {
      "midi": 38,
      "hit": false,
      "t": 173467.39500001055,
      "d": 166.3303125000093,
      "v": 97
    },
    {
      "midi": 40,
      "hit": false,
      "t": 173709.33000001058,
      "d": 65.52406250001513,
      "v": 91
    },
    {
      "midi": 35,
      "hit": false,
      "t": 173709.33000001058,
      "d": 90.72562500002095,
      "v": 86
    },
    {
      "midi": 50,
      "hit": false,
      "t": 173709.33000001058,
      "d": 433.4668750000419,
      "v": 104
    },
    {
      "midi": 79,
      "hit": false,
      "t": 173709.33000001058,
      "d": 433.4668750000419,
      "v": 104
    },
    {
      "midi": 44,
      "hit": false,
      "t": 173714.37031251058,
      "d": 5.040312500001164,
      "v": 71
    },
    {
      "midi": 59,
      "hit": false,
      "t": 173719.41062501058,
      "d": 90.72562500002095,
      "v": 87
    },
    {
      "midi": 59,
      "hit": false,
      "t": 173830.2975000106,
      "d": 5.040312500001164,
      "v": 100
    },
    {
      "midi": 38,
      "hit": false,
      "t": 173830.2975000106,
      "d": 15.120937500003492,
      "v": 86
    },
    {
      "midi": 55,
      "hit": false,
      "t": 173830.2975000106,
      "d": 30.241875000006985,
      "v": 43
    },
    {
      "midi": 59,
      "hit": false,
      "t": 173840.3781250106,
      "d": 25.20156250000582,
      "v": 75
    },
    {
      "midi": 62,
      "hit": false,
      "t": 173845.4184375106,
      "d": 5.040312500001164,
      "v": 56
    },
    {
      "midi": 62,
      "hit": false,
      "t": 173850.4587500106,
      "d": 25.20156250000582,
      "v": 60
    },
    {
      "midi": 46,
      "hit": false,
      "t": 173951.2650000106,
      "d": 5.040312500001164,
      "v": 70
    },
    {
      "midi": 38,
      "hit": false,
      "t": 173951.2650000106,
      "d": 196.5721875000163,
      "v": 83
    },
    {
      "midi": 64,
      "hit": false,
      "t": 173961.3456250106,
      "d": 5.040312500001164,
      "v": 56
    },
    {
      "midi": 59,
      "hit": false,
      "t": 174072.2325000106,
      "d": 5.040312500001164,
      "v": 88
    },
    {
      "midi": 63,
      "hit": false,
      "t": 174092.3937500106,
      "d": 5.040312500001164,
      "v": 80
    },
    {
      "midi": 44,
      "hit": false,
      "t": 174193.20000001063,
      "d": 5.040312500001164,
      "v": 64
    },
    {
      "midi": 60,
      "hit": false,
      "t": 174193.20000001063,
      "d": 5.040312500001164,
      "v": 85
    },
    {
      "midi": 35,
      "hit": false,
      "t": 174193.20000001063,
      "d": 105.84656249999534,
      "v": 87
    },
    {
      "midi": 36,
      "hit": false,
      "t": 174193.20000001063,
      "d": 176.41093750001164,
      "v": 101
    },
    {
      "midi": 69,
      "hit": false,
      "t": 174193.20000001063,
      "d": 322.5800000000454,
      "v": 104
    },
    {
      "midi": 52,
      "hit": false,
      "t": 174193.20000001063,
      "d": 650.2003125000629,
      "v": 104
    },
    {
      "midi": 48,
      "hit": false,
      "t": 174193.20000001063,
      "d": 650.2003125000629,
      "v": 104
    },
    {
      "midi": 57,
      "hit": false,
      "t": 174314.16750001063,
      "d": 30.241875000006985,
      "v": 56
    },
    {
      "midi": 60,
      "hit": false,
      "t": 174324.24812501064,
      "d": 25.20156250000582,
      "v": 50
    },
    {
      "midi": 64,
      "hit": false,
      "t": 174334.32875001064,
      "d": 30.241875000006985,
      "v": 33
    },
    {
      "midi": 46,
      "hit": false,
      "t": 174430.09468751066,
      "d": 5.040312500001164,
      "v": 69
    },
    {
      "midi": 62,
      "hit": false,
      "t": 174435.13500001066,
      "d": 5.040312500001164,
      "v": 91
    },
    {
      "midi": 60,
      "hit": false,
      "t": 174435.13500001066,
      "d": 5.040312500001164,
      "v": 94
    },
    {
      "midi": 57,
      "hit": false,
      "t": 174556.1025000107,
      "d": 20.161250000004657,
      "v": 96
    },
    {
      "midi": 69,
      "hit": false,
      "t": 174556.1025000107,
      "d": 322.5800000000163,
      "v": 104
    },
    {
      "midi": 60,
      "hit": false,
      "t": 174566.1831250107,
      "d": 20.161250000004657,
      "v": 89
    },
    {
      "midi": 64,
      "hit": false,
      "t": 174576.2637500107,
      "d": 15.120937500003492,
      "v": 84
    },
    {
      "midi": 44,
      "hit": false,
      "t": 174672.0296875107,
      "d": 5.040312500001164,
      "v": 71
    },
    {
      "midi": 40,
      "hit": false,
      "t": 174677.0700000107,
      "d": 70.5643749999872,
      "v": 94
    },
    {
      "midi": 60,
      "hit": false,
      "t": 174677.0700000107,
      "d": 85.68531249999069,
      "v": 100
    },
    {
      "midi": 35,
      "hit": false,
      "t": 174677.0700000107,
      "d": 105.84656249999534,
      "v": 87
    },
    {
      "midi": 36,
      "hit": false,
      "t": 174677.0700000107,
      "d": 166.3303125000093,
      "v": 99
    },
    {
      "midi": 60,
      "hit": false,
      "t": 174798.0375000107,
      "d": 10.080625000002328,
      "v": 100
    },
    {
      "midi": 46,
      "hit": false,
      "t": 174919.00500001071,
      "d": 5.040312500001164,
      "v": 61
    },
    {
      "midi": 63,
      "hit": false,
      "t": 174919.00500001071,
      "d": 5.040312500001164,
      "v": 47
    },
    {
      "midi": 55,
      "hit": false,
      "t": 174919.00500001071,
      "d": 650.2003125000047,
      "v": 104
    },
    {
      "midi": 69,
      "hit": false,
      "t": 174919.00500001071,
      "d": 1083.6671875000466,
      "v": 104
    },
    {
      "midi": 63,
      "hit": false,
      "t": 175039.9725000107,
      "d": 5.040312500001164,
      "v": 85
    },
    {
      "midi": 60,
      "hit": false,
      "t": 175039.9725000107,
      "d": 5.040312500001164,
      "v": 95
    },
    {
      "midi": 57,
      "hit": false,
      "t": 175039.9725000107,
      "d": 15.120937500003492,
      "v": 36
    },
    {
      "midi": 31,
      "hit": false,
      "t": 175045.01281251071,
      "d": 5.040312500001164,
      "v": 42
    },
    {
      "midi": 60,
      "hit": false,
      "t": 175050.05312501072,
      "d": 15.120937500003492,
      "v": 46
    },
    {
      "midi": 64,
      "hit": false,
      "t": 175060.13375001072,
      "d": 15.120937500003492,
      "v": 30
    },
    {
      "midi": 44,
      "hit": false,
      "t": 175160.9400000107,
      "d": 5.040312500001164,
      "v": 64
    },
    {
      "midi": 60,
      "hit": false,
      "t": 175160.9400000107,
      "d": 5.040312500001164,
      "v": 92
    },
    {
      "midi": 35,
      "hit": false,
      "t": 175160.9400000107,
      "d": 90.72562499999185,
      "v": 86
    },
    {
      "midi": 57,
      "hit": false,
      "t": 175160.9400000107,
      "d": 95.76593749999302,
      "v": 13
    },
    {
      "midi": 36,
      "hit": false,
      "t": 175160.9400000107,
      "d": 115.92718749999767,
      "v": 94
    },
    {
      "midi": 31,
      "hit": false,
      "t": 175281.9075000107,
      "d": 5.040312500001164,
      "v": 39
    },
    {
      "midi": 60,
      "hit": false,
      "t": 175281.9075000107,
      "d": 5.040312500001164,
      "v": 94
    },
    {
      "midi": 57,
      "hit": false,
      "t": 175281.9075000107,
      "d": 20.161250000004657,
      "v": 80
    },
    {
      "midi": 60,
      "hit": false,
      "t": 175291.9881250107,
      "d": 20.161250000004657,
      "v": 68
    },
    {
      "midi": 64,
      "hit": false,
      "t": 175302.06875001072,
      "d": 20.161250000004657,
      "v": 75
    },
    {
      "midi": 46,
      "hit": false,
      "t": 175402.8750000107,
      "d": 5.040312500001164,
      "v": 70
    },
    {
      "midi": 62,
      "hit": false,
      "t": 175402.8750000107,
      "d": 5.040312500001164,
      "v": 85
    },
    {
      "midi": 60,
      "hit": false,
      "t": 175402.8750000107,
      "d": 5.040312500001164,
      "v": 94
    },
    {
      "midi": 36,
      "hit": false,
      "t": 175402.8750000107,
      "d": 156.24968750000698,
      "v": 102
    },
    {
      "midi": 40,
      "hit": false,
      "t": 175644.8100000107,
      "d": 65.52406250001513,
      "v": 91
    },
    {
      "midi": 35,
      "hit": false,
      "t": 175644.8100000107,
      "d": 90.72562500002095,
      "v": 86
    },
    {
      "midi": 57,
      "hit": false,
      "t": 175644.8100000107,
      "d": 181.4512500000419,
      "v": 96
    },
    {
      "midi": 52,
      "hit": false,
      "t": 175644.8100000107,
      "d": 433.4668750000419,
      "v": 104
    },
    {
      "midi": 48,
      "hit": false,
      "t": 175644.8100000107,
      "d": 433.4668750000419,
      "v": 104
    },
    {
      "midi": 44,
      "hit": false,
      "t": 175649.8503125107,
      "d": 5.040312500001164,
      "v": 71
    },
    {
      "midi": 60,
      "hit": false,
      "t": 175654.8906250107,
      "d": 90.72562500002095,
      "v": 82
    },
    {
      "midi": 62,
      "hit": false,
      "t": 175765.77750001074,
      "d": 5.040312500001164,
      "v": 62
    },
    {
      "midi": 60,
      "hit": false,
      "t": 175765.77750001074,
      "d": 5.040312500001164,
      "v": 47
    },
    {
      "midi": 64,
      "hit": false,
      "t": 175775.85812501074,
      "d": 25.20156250000582,
      "v": 52
    },
    {
      "midi": 46,
      "hit": false,
      "t": 175886.74500001076,
      "d": 5.040312500001164,
      "v": 70
    },
    {
      "midi": 63,
      "hit": false,
      "t": 175886.74500001076,
      "d": 5.040312500001164,
      "v": 53
    },
    {
      "midi": 64,
      "hit": false,
      "t": 176007.71250001076,
      "d": 5.040312500001164,
      "v": 74
    },
    {
      "midi": 36,
      "hit": false,
      "t": 176007.71250001076,
      "d": 5.040312500001164,
      "v": 72
    },
    {
      "midi": 60,
      "hit": false,
      "t": 176007.71250001076,
      "d": 5.040312500001164,
      "v": 88
    },
    {
      "midi": 44,
      "hit": false,
      "t": 176128.68000001076,
      "d": 5.040312500001164,
      "v": 71
    },
    {
      "midi": 35,
      "hit": false,
      "t": 176128.68000001076,
      "d": 90.72562499999185,
      "v": 79
    },
    {
      "midi": 38,
      "hit": false,
      "t": 176128.68000001076,
      "d": 171.37062500001048,
      "v": 96
    },
    {
      "midi": 69,
      "hit": false,
      "t": 176128.68000001076,
      "d": 322.5800000000163,
      "v": 104
    },
    {
      "midi": 54,
      "hit": false,
      "t": 176128.68000001076,
      "d": 433.4668750000419,
      "v": 104
    },
    {
      "midi": 50,
      "hit": false,
      "t": 176128.68000001076,
      "d": 433.4668750000419,
      "v": 104
    },
    {
      "midi": 60,
      "hit": false,
      "t": 176249.64750001076,
      "d": 10.080625000002328,
      "v": 90
    },
    {
      "midi": 57,
      "hit": false,
      "t": 176249.64750001076,
      "d": 30.241875000006985,
      "v": 56
    },
    {
      "midi": 60,
      "hit": false,
      "t": 176259.72812501076,
      "d": 25.20156250000582,
      "v": 50
    },
    {
      "midi": 66,
      "hit": false,
      "t": 176269.80875001076,
      "d": 30.241875000006985,
      "v": 33
    },
    {
      "midi": 46,
      "hit": false,
      "t": 176365.57468751076,
      "d": 5.040312500001164,
      "v": 74
    },
    {
      "midi": 62,
      "hit": false,
      "t": 176370.61500001076,
      "d": 5.040312500001164,
      "v": 85
    },
    {
      "midi": 60,
      "hit": false,
      "t": 176380.69562501076,
      "d": 95.76593750002212,
      "v": 57
    },
    {
      "midi": 60,
      "hit": false,
      "t": 176491.5825000108,
      "d": 10.080625000002328,
      "v": 92
    },
    {
      "midi": 57,
      "hit": false,
      "t": 176491.5825000108,
      "d": 20.161250000004657,
      "v": 96
    },
    {
      "midi": 71,
      "hit": false,
      "t": 176491.5825000108,
      "d": 322.5800000000745,
      "v": 104
    },
    {
      "midi": 60,
      "hit": false,
      "t": 176501.6631250108,
      "d": 20.161250000004657,
      "v": 89
    },
    {
      "midi": 66,
      "hit": false,
      "t": 176511.7437500108,
      "d": 15.120937500003492,
      "v": 84
    },
    {
      "midi": 44,
      "hit": false,
      "t": 176612.55000001081,
      "d": 5.040312500001164,
      "v": 61
    },
    {
      "midi": 40,
      "hit": false,
      "t": 176612.55000001081,
      "d": 65.52406250001513,
      "v": 91
    },
    {
      "midi": 35,
      "hit": false,
      "t": 176612.55000001081,
      "d": 90.72562500002095,
      "v": 79
    },
    {
      "midi": 38,
      "hit": false,
      "t": 176612.55000001081,
      "d": 176.41093750004075,
      "v": 96
    },
    {
      "midi": 47,
      "hit": false,
      "t": 176612.55000001081,
      "d": 433.466875000071,
      "v": 104
    },
    {
      "midi": 60,
      "hit": false,
      "t": 176733.51750001084,
      "d": 10.080625000002328,
      "v": 91
    },
    {
      "midi": 46,
      "hit": false,
      "t": 176849.44468751087,
      "d": 5.040312500001164,
      "v": 67
    },
    {
      "midi": 63,
      "hit": false,
      "t": 176854.48500001087,
      "d": 5.040312500001164,
      "v": 37
    },
    {
      "midi": 57,
      "hit": false,
      "t": 176854.48500001087,
      "d": 236.8946875000256,
      "v": 90
    },
    {
      "midi": 72,
      "hit": false,
      "t": 176854.48500001087,
      "d": 1083.6671875001048,
      "v": 104
    },
    {
      "midi": 60,
      "hit": false,
      "t": 176864.56562501087,
      "d": 5.040312500001164,
      "v": 81
    },
    {
      "midi": 63,
      "hit": false,
      "t": 176975.45250001087,
      "d": 5.040312500001164,
      "v": 80
    },
    {
      "midi": 60,
      "hit": false,
      "t": 176975.45250001087,
      "d": 5.040312500001164,
      "v": 30
    },
    {
      "midi": 36,
      "hit": false,
      "t": 176975.45250001087,
      "d": 15.120937500003492,
      "v": 86
    },
    {
      "midi": 31,
      "hit": false,
      "t": 176980.49281251087,
      "d": 5.040312500001164,
      "v": 39
    },
    {
      "midi": 66,
      "hit": false,
      "t": 176985.53312501087,
      "d": 30.241875000006985,
      "v": 30
    },
    {
      "midi": 44,
      "hit": false,
      "t": 177096.4200000109,
      "d": 5.040312500001164,
      "v": 71
    },
    {
      "midi": 35,
      "hit": false,
      "t": 177096.4200000109,
      "d": 90.72562499999185,
      "v": 86
    },
    {
      "midi": 38,
      "hit": false,
      "t": 177096.4200000109,
      "d": 95.76593749999302,
      "v": 94
    },
    {
      "midi": 48,
      "hit": false,
      "t": 177096.4200000109,
      "d": 433.4668750000419,
      "v": 104
    },
    {
      "midi": 60,
      "hit": false,
      "t": 177217.3875000109,
      "d": 10.080625000002328,
      "v": 95
    },
    {
      "midi": 57,
      "hit": false,
      "t": 177217.3875000109,
      "d": 20.161250000004657,
      "v": 91
    },
    {
      "midi": 60,
      "hit": false,
      "t": 177227.4681250109,
      "d": 25.20156250000582,
      "v": 82
    },
    {
      "midi": 66,
      "hit": false,
      "t": 177237.5487500109,
      "d": 50.40312500001164,
      "v": 86
    },
    {
      "midi": 46,
      "hit": false,
      "t": 177333.31468751092,
      "d": 5.040312500001164,
      "v": 64
    },
    {
      "midi": 62,
      "hit": false,
      "t": 177338.35500001092,
      "d": 5.040312500001164,
      "v": 78
    },
    {
      "midi": 60,
      "hit": false,
      "t": 177338.35500001092,
      "d": 105.84656249999534,
      "v": 77
    },
    {
      "midi": 38,
      "hit": false,
      "t": 177338.35500001092,
      "d": 166.3303125000093,
      "v": 97
    },
    {
      "midi": 60,
      "hit": false,
      "t": 177459.32250001092,
      "d": 10.080625000002328,
      "v": 97
    },
    {
      "midi": 44,
      "hit": false,
      "t": 177580.29000001095,
      "d": 5.040312500001164,
      "v": 71
    },
    {
      "midi": 40,
      "hit": false,
      "t": 177580.29000001095,
      "d": 65.52406250001513,
      "v": 94
    },
    {
      "midi": 35,
      "hit": false,
      "t": 177580.29000001095,
      "d": 90.72562500002095,
      "v": 86
    },
    {
      "midi": 49,
      "hit": false,
      "t": 177580.29000001095,
      "d": 433.4668750000128,
      "v": 104
    },
    {
      "midi": 62,
      "hit": false,
      "t": 177701.25750001098,
      "d": 5.040312500001164,
      "v": 62
    },
    {
      "midi": 60,
      "hit": false,
      "t": 177701.25750001098,
      "d": 5.040312500001164,
      "v": 92
    },
    {
      "midi": 57,
      "hit": false,
      "t": 177701.25750001098,
      "d": 10.080625000002328,
      "v": 76
    },
    {
      "midi": 36,
      "hit": false,
      "t": 177701.25750001098,
      "d": 15.120937500003492,
      "v": 86
    },
    {
      "midi": 60,
      "hit": false,
      "t": 177711.33812501098,
      "d": 15.120937500003492,
      "v": 65
    },
    {
      "midi": 66,
      "hit": false,
      "t": 177721.41875001098,
      "d": 15.120937500003492,
      "v": 69
    },
    {
      "midi": 46,
      "hit": false,
      "t": 177822.22500001098,
      "d": 5.040312500001164,
      "v": 70
    },
    {
      "midi": 63,
      "hit": false,
      "t": 177822.22500001098,
      "d": 5.040312500001164,
      "v": 55
    },
    {
      "midi": 60,
      "hit": false,
      "t": 177822.22500001098,
      "d": 105.84656249999534,
      "v": 63
    },
    {
      "midi": 33,
      "hit": false,
      "t": 177822.22500001098,
      "d": 196.5721874999872,
      "v": 83
    },
    {
      "midi": 63,
      "hit": false,
      "t": 177943.19250001098,
      "d": 5.040312500001164,
      "v": 70
    },
    {
      "midi": 60,
      "hit": false,
      "t": 177943.19250001098,
      "d": 5.040312500001164,
      "v": 92
    },
    {
      "midi": 44,
      "hit": false,
      "t": 178064.16000001098,
      "d": 5.040312500001164,
      "v": 71
    },
    {
      "midi": 35,
      "hit": false,
      "t": 178064.16000001098,
      "d": 90.72562499999185,
      "v": 87
    },
    {
      "midi": 38,
      "hit": false,
      "t": 178064.16000001098,
      "d": 176.41093750001164,
      "v": 101
    },
    {
      "midi": 57,
      "hit": false,
      "t": 178064.16000001098,
      "d": 241.93499999999767,
      "v": 85
    },
    {
      "midi": 54,
      "hit": false,
      "t": 178064.16000001098,
      "d": 241.93499999999767,
      "v": 104
    },
    {
      "midi": 62,
      "hit": false,
      "t": 178185.12750001097,
      "d": 5.040312500001164,
      "v": 46
    },
    {
      "midi": 66,
      "hit": false,
      "t": 178195.20812501098,
      "d": 30.241875000006985,
      "v": 26
    },
    {
      "midi": 46,
      "hit": false,
      "t": 178306.09500001097,
      "d": 5.040312500001164,
      "v": 70
    },
    {
      "midi": 62,
      "hit": false,
      "t": 178306.09500001097,
      "d": 5.040312500001164,
      "v": 63
    },
    {
      "midi": 62,
      "hit": false,
      "t": 178427.06250001097,
      "d": 5.040312500001164,
      "v": 91
    },
    {
      "midi": 57,
      "hit": false,
      "t": 178427.06250001097,
      "d": 20.161250000004657,
      "v": 77
    },
    {
      "midi": 62,
      "hit": false,
      "t": 178437.14312501097,
      "d": 25.20156250000582,
      "v": 73
    },
    {
      "midi": 66,
      "hit": false,
      "t": 178447.22375001098,
      "d": 20.161250000004657,
      "v": 85
    },
    {
      "midi": 44,
      "hit": false,
      "t": 178548.03000001097,
      "d": 5.040312500001164,
      "v": 64
    },
    {
      "midi": 40,
      "hit": false,
      "t": 178548.03000001097,
      "d": 75.60468749998836,
      "v": 94
    },
    {
      "midi": 35,
      "hit": false,
      "t": 178548.03000001097,
      "d": 90.72562499999185,
      "v": 87
    },
    {
      "midi": 38,
      "hit": false,
      "t": 178548.03000001097,
      "d": 166.3303125000093,
      "v": 99
    },
    {
      "midi": 62,
      "hit": false,
      "t": 178668.99750001097,
      "d": 5.040312500001164,
      "v": 92
    },
    {
      "midi": 63,
      "hit": false,
      "t": 178784.92468751097,
      "d": 5.040312500001164,
      "v": 46
    },
    {
      "midi": 46,
      "hit": false,
      "t": 178789.96500001097,
      "d": 5.040312500001164,
      "v": 70
    },
    {
      "midi": 62,
      "hit": false,
      "t": 178800.04562501097,
      "d": 5.040312500001164,
      "v": 78
    },
    {
      "midi": 62,
      "hit": false,
      "t": 178910.93250001097,
      "d": 5.040312500001164,
      "v": 95
    },
    {
      "midi": 57,
      "hit": false,
      "t": 178910.93250001097,
      "d": 20.161250000004657,
      "v": 51
    },
    {
      "midi": 31,
      "hit": false,
      "t": 178915.97281251097,
      "d": 5.040312500001164,
      "v": 28
    },
    {
      "midi": 62,
      "hit": false,
      "t": 178921.01312501097,
      "d": 20.161250000004657,
      "v": 46
    },
    {
      "midi": 63,
      "hit": false,
      "t": 178926.05343751097,
      "d": 5.040312500001164,
      "v": 85
    },
    {
      "midi": 66,
      "hit": false,
      "t": 178931.09375001097,
      "d": 20.161250000004657,
      "v": 38
    },
    {
      "midi": 44,
      "hit": false,
      "t": 179031.90000001097,
      "d": 5.040312500001164,
      "v": 64
    },
    {
      "midi": 35,
      "hit": false,
      "t": 179031.90000001097,
      "d": 95.76593749999302,
      "v": 87
    },
    {
      "midi": 38,
      "hit": false,
      "t": 179031.90000001097,
      "d": 115.92718749999767,
      "v": 94
    },
    {
      "midi": 62,
      "hit": false,
      "t": 179152.86750001097,
      "d": 5.040312500001164,
      "v": 93
    },
    {
      "midi": 57,
      "hit": false,
      "t": 179152.86750001097,
      "d": 10.080625000002328,
      "v": 64
    },
    {
      "midi": 31,
      "hit": false,
      "t": 179157.90781251097,
      "d": 5.040312500001164,
      "v": 39
    },
    {
      "midi": 62,
      "hit": false,
      "t": 179162.94812501097,
      "d": 20.161250000004657,
      "v": 58
    },
    {
      "midi": 66,
      "hit": false,
      "t": 179173.02875001097,
      "d": 20.161250000004657,
      "v": 69
    },
    {
      "midi": 62,
      "hit": false,
      "t": 179268.79468751096,
      "d": 5.040312500001164,
      "v": 85
    },
    {
      "midi": 46,
      "hit": false,
      "t": 179273.83500001096,
      "d": 5.040312500001164,
      "v": 70
    },
    {
      "midi": 62,
      "hit": false,
      "t": 179273.83500001096,
      "d": 105.84656249999534,
      "v": 77
    },
    {
      "midi": 38,
      "hit": false,
      "t": 179273.83500001096,
      "d": 156.24968750000698,
      "v": 102
    },
    {
      "midi": 62,
      "hit": false,
      "t": 179394.80250001096,
      "d": 10.080625000002328,
      "v": 95
    },
    {
      "midi": 44,
      "hit": false,
      "t": 179515.77000001096,
      "d": 5.040312500001164,
      "v": 64
    },
    {
      "midi": 40,
      "hit": false,
      "t": 179515.77000001096,
      "d": 60.48375000001397,
      "v": 94
    },
    {
      "midi": 35,
      "hit": false,
      "t": 179515.77000001096,
      "d": 95.76593750002212,
      "v": 87
    },
    {
      "midi": 62,
      "hit": false,
      "t": 179631.697187511,
      "d": 5.040312500001164,
      "v": 58
    },
    {
      "midi": 62,
      "hit": false,
      "t": 179636.737500011,
      "d": 5.040312500001164,
      "v": 94
    },
    {
      "midi": 57,
      "hit": false,
      "t": 179636.737500011,
      "d": 20.161250000004657,
      "v": 70
    },
    {
      "midi": 62,
      "hit": false,
      "t": 179646.818125011,
      "d": 20.161250000004657,
      "v": 57
    },
    {
      "midi": 66,
      "hit": false,
      "t": 179656.898750011,
      "d": 20.161250000004657,
      "v": 66
    },
    {
      "midi": 63,
      "hit": false,
      "t": 179752.664687511,
      "d": 5.040312500001164,
      "v": 55
    },
    {
      "midi": 46,
      "hit": false,
      "t": 179757.705000011,
      "d": 5.040312500001164,
      "v": 70
    },
    {
      "midi": 62,
      "hit": false,
      "t": 179757.705000011,
      "d": 105.84656249999534,
      "v": 74
    },
    {
      "midi": 64,
      "hit": false,
      "t": 179878.672500011,
      "d": 5.040312500001164,
      "v": 78
    },
    {
      "midi": 38,
      "hit": false,
      "t": 179878.672500011,
      "d": 5.040312500001164,
      "v": 72
    },
    {
      "midi": 62,
      "hit": false,
      "t": 179878.672500011,
      "d": 5.040312500001164,
      "v": 100
    },
    {
      "midi": 29,
      "hit": false,
      "t": 179878.672500011,
      "d": 95.76593749999302,
      "v": 52
    },
    {
      "midi": 44,
      "hit": false,
      "t": 179999.640000011,
      "d": 5.040312500001164,
      "v": 64
    },
    {
      "midi": 35,
      "hit": false,
      "t": 179999.640000011,
      "d": 105.84656249999534,
      "v": 87
    },
    {
      "midi": 38,
      "hit": false,
      "t": 179999.640000011,
      "d": 473.789374999993,
      "v": 89
    },
    {
      "midi": 62,
      "hit": false,
      "t": 180009.720625011,
      "d": 100.80624999999418,
      "v": 46
    },
    {
      "midi": 69,
      "hit": false,
      "t": 180019.801250011,
      "d": 85.68531249999069,
      "v": 50
    },
    {
      "midi": 66,
      "hit": false,
      "t": 180019.801250011,
      "d": 100.80624999999418,
      "v": 50
    },
    {
      "midi": 62,
      "hit": false,
      "t": 180120.60750001098,
      "d": 5.040312500001164,
      "v": 95
    },
    {
      "midi": 69,
      "hit": false,
      "t": 180120.60750001098,
      "d": 110.88687499999651,
      "v": 47
    },
    {
      "midi": 62,
      "hit": false,
      "t": 180130.688125011,
      "d": 95.76593749999302,
      "v": 51
    },
    {
      "midi": 66,
      "hit": false,
      "t": 180130.688125011,
      "d": 110.88687499999651,
      "v": 51
    },
    {
      "midi": 46,
      "hit": false,
      "t": 180236.53468751098,
      "d": 5.040312500001164,
      "v": 69
    },
    {
      "midi": 62,
      "hit": false,
      "t": 180241.57500001098,
      "d": 5.040312500001164,
      "v": 91
    },
    {
      "midi": 69,
      "hit": false,
      "t": 180251.655625011,
      "d": 95.76593749999302,
      "v": 56
    },
    {
      "midi": 66,
      "hit": false,
      "t": 180251.655625011,
      "d": 110.88687499999651,
      "v": 56
    },
    {
      "midi": 63,
      "hit": false,
      "t": 180362.54250001098,
      "d": 5.040312500001164,
      "v": 91
    },
    {
      "midi": 62,
      "hit": false,
      "t": 180362.54250001098,
      "d": 10.080625000002328,
      "v": 96
    },
    {
      "midi": 69,
      "hit": false,
      "t": 180362.54250001098,
      "d": 95.76593749999302,
      "v": 51
    },
    {
      "midi": 62,
      "hit": false,
      "t": 180372.62312501098,
      "d": 80.64499999998952,
      "v": 51
    },
    {
      "midi": 66,
      "hit": false,
      "t": 180372.62312501098,
      "d": 95.76593749999302,
      "v": 51
    },
    {
      "midi": 44,
      "hit": false,
      "t": 180478.46968751098,
      "d": 5.040312500001164,
      "v": 71
    },
    {
      "midi": 59,
      "hit": false,
      "t": 180483.51000001098,
      "d": 5.040312500001164,
      "v": 56
    },
    {
      "midi": 40,
      "hit": false,
      "t": 180483.51000001098,
      "d": 70.5643750000163,
      "v": 94
    },
    {
      "midi": 35,
      "hit": false,
      "t": 180483.51000001098,
      "d": 105.84656250002445,
      "v": 87
    },
    {
      "midi": 55,
      "hit": false,
      "t": 180483.51000001098,
      "d": 433.4668750000419,
      "v": 120
    },
    {
      "midi": 52,
      "hit": false,
      "t": 180483.51000001098,
      "d": 433.4668750000419,
      "v": 120
    },
    {
      "midi": 71,
      "hit": false,
      "t": 180483.51000001098,
      "d": 433.4668750000419,
      "v": 120
    },
    {
      "midi": 64,
      "hit": false,
      "t": 180493.59062501098,
      "d": 5.040312500001164,
      "v": 60
    },
    {
      "midi": 67,
      "hit": false,
      "t": 180498.63093751098,
      "d": 5.040312500001164,
      "v": 64
    },
    {
      "midi": 64,
      "hit": false,
      "t": 180604.477500011,
      "d": 5.040312500001164,
      "v": 91
    },
    {
      "midi": 67,
      "hit": false,
      "t": 180604.477500011,
      "d": 5.040312500001164,
      "v": 50
    },
    {
      "midi": 64,
      "hit": false,
      "t": 180614.558125011,
      "d": 5.040312500001164,
      "v": 53
    },
    {
      "midi": 59,
      "hit": false,
      "t": 180619.598437511,
      "d": 5.040312500001164,
      "v": 55
    },
    {
      "midi": 46,
      "hit": false,
      "t": 180725.445000011,
      "d": 5.040312500001164,
      "v": 61
    },
    {
      "midi": 63,
      "hit": false,
      "t": 180725.445000011,
      "d": 5.040312500001164,
      "v": 47
    },
    {
      "midi": 59,
      "hit": false,
      "t": 180725.445000011,
      "d": 110.88687499999651,
      "v": 49
    },
    {
      "midi": 67,
      "hit": false,
      "t": 180735.525625011,
      "d": 95.76593749999302,
      "v": 54
    },
    {
      "midi": 64,
      "hit": false,
      "t": 180735.525625011,
      "d": 110.88687499999651,
      "v": 54
    },
    {
      "midi": 63,
      "hit": false,
      "t": 180846.412500011,
      "d": 5.040312500001164,
      "v": 85
    },
    {
      "midi": 67,
      "hit": false,
      "t": 180846.412500011,
      "d": 5.040312500001164,
      "v": 50
    },
    {
      "midi": 59,
      "hit": false,
      "t": 180846.412500011,
      "d": 5.040312500001164,
      "v": 107
    },
    {
      "midi": 64,
      "hit": false,
      "t": 180856.493125011,
      "d": 5.040312500001164,
      "v": 53
    },
    {
      "midi": 59,
      "hit": false,
      "t": 180861.533437511,
      "d": 5.040312500001164,
      "v": 55
    },
    {
      "midi": 40,
      "hit": false,
      "t": 180967.38000001104,
      "d": 5.040312500001164,
      "v": 93
    },
    {
      "midi": 44,
      "hit": false,
      "t": 180967.38000001104,
      "d": 5.040312500001164,
      "v": 64
    },
    {
      "midi": 59,
      "hit": false,
      "t": 180967.38000001104,
      "d": 5.040312500001164,
      "v": 56
    },
    {
      "midi": 35,
      "hit": false,
      "t": 180967.38000001104,
      "d": 90.72562499999185,
      "v": 86
    },
    {
      "midi": 55,
      "hit": false,
      "t": 180967.38000001104,
      "d": 433.4668750000128,
      "v": 120
    },
    {
      "midi": 50,
      "hit": false,
      "t": 180967.38000001104,
      "d": 433.4668750000128,
      "v": 120
    },
    {
      "midi": 71,
      "hit": false,
      "t": 180967.38000001104,
      "d": 433.4668750000128,
      "v": 120
    },
    {
      "midi": 38,
      "hit": false,
      "t": 180967.38000001104,
      "d": 473.7893750000221,
      "v": 82
    },
    {
      "midi": 64,
      "hit": false,
      "t": 180977.46062501104,
      "d": 5.040312500001164,
      "v": 60
    },
    {
      "midi": 67,
      "hit": false,
      "t": 180982.50093751104,
      "d": 5.040312500001164,
      "v": 64
    },
    {
      "midi": 62,
      "hit": false,
      "t": 181088.34750001103,
      "d": 5.040312500001164,
      "v": 91
    },
    {
      "midi": 59,
      "hit": false,
      "t": 181088.34750001103,
      "d": 110.88687499999651,
      "v": 49
    },
    {
      "midi": 67,
      "hit": false,
      "t": 181098.42812501104,
      "d": 95.76593749999302,
      "v": 54
    },
    {
      "midi": 64,
      "hit": false,
      "t": 181098.42812501104,
      "d": 110.88687499999651,
      "v": 54
    },
    {
      "midi": 40,
      "hit": false,
      "t": 181209.31500001103,
      "d": 5.040312500001164,
      "v": 64
    },
    {
      "midi": 64,
      "hit": false,
      "t": 181209.31500001103,
      "d": 5.040312500001164,
      "v": 78
    },
    {
      "midi": 67,
      "hit": false,
      "t": 181209.31500001103,
      "d": 5.040312500001164,
      "v": 50
    },
    {
      "midi": 64,
      "hit": false,
      "t": 181219.39562501104,
      "d": 5.040312500001164,
      "v": 53
    },
    {
      "midi": 59,
      "hit": false,
      "t": 181224.43593751104,
      "d": 5.040312500001164,
      "v": 55
    },
    {
      "midi": 40,
      "hit": false,
      "t": 181330.28250001103,
      "d": 5.040312500001164,
      "v": 87
    },
    {
      "midi": 64,
      "hit": false,
      "t": 181330.28250001103,
      "d": 5.040312500001164,
      "v": 78
    },
    {
      "midi": 59,
      "hit": false,
      "t": 181330.28250001103,
      "d": 5.040312500001164,
      "v": 56
    },
    {
      "midi": 64,
      "hit": false,
      "t": 181340.36312501103,
      "d": 5.040312500001164,
      "v": 60
    },
    {
      "midi": 67,
      "hit": false,
      "t": 181345.40343751104,
      "d": 5.040312500001164,
      "v": 64
    },
    {
      "midi": 40,
      "hit": false,
      "t": 181451.25000001106,
      "d": 5.040312500001164,
      "v": 98
    },
    {
      "midi": 64,
      "hit": false,
      "t": 181451.25000001106,
      "d": 5.040312500001164,
      "v": 82
    },
    {
      "midi": 35,
      "hit": false,
      "t": 181451.25000001106,
      "d": 90.72562499999185,
      "v": 86
    },
    {
      "midi": 59,
      "hit": false,
      "t": 181451.25000001106,
      "d": 110.88687499999651,
      "v": 49
    },
    {
      "midi": 56,
      "hit": false,
      "t": 181451.25000001106,
      "d": 433.4668750000128,
      "v": 120
    },
    {
      "midi": 53,
      "hit": false,
      "t": 181451.25000001106,
      "d": 433.4668750000128,
      "v": 120
    },
    {
      "midi": 49,
      "hit": false,
      "t": 181451.25000001106,
      "d": 433.4668750000128,
      "v": 120
    },
    {
      "midi": 71,
      "hit": false,
      "t": 181451.25000001106,
      "d": 433.4668750000128,
      "v": 120
    },
    {
      "midi": 44,
      "hit": false,
      "t": 181456.29031251106,
      "d": 5.040312500001164,
      "v": 71
    },
    {
      "midi": 68,
      "hit": false,
      "t": 181461.33062501106,
      "d": 95.76593749999302,
      "v": 54
    },
    {
      "midi": 65,
      "hit": false,
      "t": 181461.33062501106,
      "d": 110.88687499999651,
      "v": 54
    },
    {
      "midi": 62,
      "hit": false,
      "t": 181572.21750001106,
      "d": 5.040312500001164,
      "v": 93
    },
    {
      "midi": 68,
      "hit": false,
      "t": 181572.21750001106,
      "d": 110.88687499999651,
      "v": 47
    },
    {
      "midi": 59,
      "hit": false,
      "t": 181582.29812501106,
      "d": 95.76593749999302,
      "v": 51
    },
    {
      "midi": 65,
      "hit": false,
      "t": 181582.29812501106,
      "d": 110.88687499999651,
      "v": 51
    },
    {
      "midi": 40,
      "hit": false,
      "t": 181693.18500001106,
      "d": 5.040312500001164,
      "v": 82
    },
    {
      "midi": 59,
      "hit": false,
      "t": 181693.18500001106,
      "d": 5.040312500001164,
      "v": 56
    },
    {
      "midi": 65,
      "hit": false,
      "t": 181703.26562501106,
      "d": 5.040312500001164,
      "v": 60
    },
    {
      "midi": 32,
      "hit": false,
      "t": 181703.26562501106,
      "d": 221.77375000002212,
      "v": 76
    },
    {
      "midi": 68,
      "hit": false,
      "t": 181708.30593751106,
      "d": 5.040312500001164,
      "v": 64
    },
    {
      "midi": 40,
      "hit": false,
      "t": 181814.15250001106,
      "d": 5.040312500001164,
      "v": 82
    },
    {
      "midi": 59,
      "hit": false,
      "t": 181814.15250001106,
      "d": 5.040312500001164,
      "v": 102
    },
    {
      "midi": 68,
      "hit": false,
      "t": 181824.23312501106,
      "d": 5.040312500001164,
      "v": 50
    },
    {
      "midi": 65,
      "hit": false,
      "t": 181834.31375001106,
      "d": 5.040312500001164,
      "v": 53
    },
    {
      "midi": 59,
      "hit": false,
      "t": 181839.35406251106,
      "d": 5.040312500001164,
      "v": 55
    },
    {
      "midi": 57,
      "hit": false,
      "t": 181930.07968751108,
      "d": 5.040312500001164,
      "v": 79
    },
    {
      "midi": 98,
      "hit": false,
      "t": 181935.12000001108,
      "d": 10.080625000002328,
      "v": 78
    },
    {
      "midi": 82,
      "hit": false,
      "t": 181935.12000001108,
      "d": 10.080625000002328,
      "v": 102
    },
    {
      "midi": 42,
      "hit": false,
      "t": 181935.12000001108,
      "d": 45.36281250001048,
      "v": 95
    },
    {
      "midi": 55,
      "hit": false,
      "t": 181935.12000001108,
      "d": 50.40312500001164,
      "v": 58
    },
    {
      "midi": 60,
      "hit": false,
      "t": 181935.12000001108,
      "d": 60.48375000001397,
      "v": 53
    },
    {
      "midi": 35,
      "hit": false,
      "t": 181935.12000001108,
      "d": 105.84656250002445,
      "v": 87
    },
    {
      "midi": 52,
      "hit": false,
      "t": 181935.12000001108,
      "d": 241.93500000005588,
      "v": 104
    },
    {
      "midi": 48,
      "hit": false,
      "t": 181935.12000001108,
      "d": 241.93500000005588,
      "v": 104
    },
    {
      "midi": 36,
      "hit": false,
      "t": 181935.12000001108,
      "d": 307.459062500071,
      "v": 105
    },
    {
      "midi": 71,
      "hit": false,
      "t": 181935.12000001108,
      "d": 322.5800000000745,
      "v": 47
    },
    {
      "midi": 67,
      "hit": false,
      "t": 181935.12000001108,
      "d": 1935.480000000447,
      "v": 47
    },
    {
      "midi": 59,
      "hit": false,
      "t": 181940.16031251109,
      "d": 40.32250000000931,
      "v": 54
    },
    {
      "midi": 64,
      "hit": false,
      "t": 181945.2006250111,
      "d": 65.52406250001513,
      "v": 54
    },
    {
      "midi": 98,
      "hit": false,
      "t": 182056.0875000111,
      "d": 5.040312500001164,
      "v": 41
    },
    {
      "midi": 82,
      "hit": false,
      "t": 182056.0875000111,
      "d": 5.040312500001164,
      "v": 51
    },
    {
      "midi": 55,
      "hit": false,
      "t": 182056.0875000111,
      "d": 10.080625000002328,
      "v": 56
    },
    {
      "midi": 59,
      "hit": false,
      "t": 182061.1278125111,
      "d": 10.080625000002328,
      "v": 54
    },
    {
      "midi": 64,
      "hit": false,
      "t": 182066.1681250111,
      "d": 70.5643750000163,
      "v": 56
    },
    {
      "midi": 54,
      "hit": false,
      "t": 182076.24875001112,
      "d": 40.32250000000931,
      "v": 34
    },
    {
      "midi": 82,
      "hit": false,
      "t": 182177.05500001114,
      "d": 10.080625000002328,
      "v": 60
    },
    {
      "midi": 42,
      "hit": false,
      "t": 182177.05500001114,
      "d": 40.32250000000931,
      "v": 82
    },
    {
      "midi": 54,
      "hit": false,
      "t": 182177.05500001114,
      "d": 70.5643750000163,
      "v": 94
    },
    {
      "midi": 55,
      "hit": false,
      "t": 182298.02250001117,
      "d": 5.040312500001164,
      "v": 22
    },
    {
      "midi": 60,
      "hit": false,
      "t": 182298.02250001117,
      "d": 5.040312500001164,
      "v": 35
    },
    {
      "midi": 36,
      "hit": false,
      "t": 182298.02250001117,
      "d": 90.72562500002095,
      "v": 102
    },
    {
      "midi": 71,
      "hit": false,
      "t": 182298.02250001117,
      "d": 322.5800000000745,
      "v": 104
    },
    {
      "midi": 98,
      "hit": false,
      "t": 182303.06281251117,
      "d": 10.080625000002328,
      "v": 45
    },
    {
      "midi": 82,
      "hit": false,
      "t": 182303.06281251117,
      "d": 10.080625000002328,
      "v": 58
    },
    {
      "midi": 59,
      "hit": false,
      "t": 182303.06281251117,
      "d": 45.36281250001048,
      "v": 29
    },
    {
      "midi": 64,
      "hit": false,
      "t": 182308.10312501117,
      "d": 50.40312500001164,
      "v": 26
    },
    {
      "midi": 54,
      "hit": false,
      "t": 182318.18375001117,
      "d": 40.32250000000931,
      "v": 40
    },
    {
      "midi": 98,
      "hit": false,
      "t": 182418.9900000112,
      "d": 10.080625000002328,
      "v": 84
    },
    {
      "midi": 82,
      "hit": false,
      "t": 182418.9900000112,
      "d": 10.080625000002328,
      "v": 108
    },
    {
      "midi": 55,
      "hit": false,
      "t": 182418.9900000112,
      "d": 25.20156250000582,
      "v": 67
    },
    {
      "midi": 42,
      "hit": false,
      "t": 182418.9900000112,
      "d": 65.52406250001513,
      "v": 98
    },
    {
      "midi": 40,
      "hit": false,
      "t": 182418.9900000112,
      "d": 70.5643750000163,
      "v": 94
    },
    {
      "midi": 60,
      "hit": false,
      "t": 182418.9900000112,
      "d": 70.5643750000163,
      "v": 61
    },
    {
      "midi": 31,
      "hit": false,
      "t": 182418.9900000112,
      "d": 297.3784375000687,
      "v": 105
    },
    {
      "midi": 59,
      "hit": false,
      "t": 182424.0303125112,
      "d": 10.080625000002328,
      "v": 49
    },
    {
      "midi": 64,
      "hit": false,
      "t": 182429.0706250112,
      "d": 10.080625000002328,
      "v": 54
    },
    {
      "midi": 98,
      "hit": false,
      "t": 182539.95750001122,
      "d": 5.040312500001164,
      "v": 35
    },
    {
      "midi": 82,
      "hit": false,
      "t": 182539.95750001122,
      "d": 5.040312500001164,
      "v": 43
    },
    {
      "midi": 54,
      "hit": false,
      "t": 182560.11875001123,
      "d": 40.32250000000931,
      "v": 39
    },
    {
      "midi": 55,
      "hit": false,
      "t": 182660.92500001125,
      "d": 5.040312500001164,
      "v": 22
    },
    {
      "midi": 82,
      "hit": false,
      "t": 182660.92500001125,
      "d": 10.080625000002328,
      "v": 66
    },
    {
      "midi": 42,
      "hit": false,
      "t": 182660.92500001125,
      "d": 40.32250000000931,
      "v": 82
    },
    {
      "midi": 54,
      "hit": false,
      "t": 182660.92500001125,
      "d": 85.68531250001979,
      "v": 47
    },
    {
      "midi": 52,
      "hit": false,
      "t": 182660.92500001125,
      "d": 216.73343750005006,
      "v": 104
    },
    {
      "midi": 48,
      "hit": false,
      "t": 182660.92500001125,
      "d": 216.73343750005006,
      "v": 104
    },
    {
      "midi": 71,
      "hit": false,
      "t": 182660.92500001125,
      "d": 216.73343750005006,
      "v": 104
    },
    {
      "midi": 59,
      "hit": false,
      "t": 182665.96531251125,
      "d": 55.443437500012806,
      "v": 22
    },
    {
      "midi": 64,
      "hit": false,
      "t": 182671.00562501125,
      "d": 50.40312500001164,
      "v": 22
    },
    {
      "midi": 55,
      "hit": false,
      "t": 182781.89250001128,
      "d": 65.52406250001513,
      "v": 65
    },
    {
      "midi": 60,
      "hit": false,
      "t": 182781.89250001128,
      "d": 80.64500000001863,
      "v": 66
    },
    {
      "midi": 31,
      "hit": false,
      "t": 182786.93281251128,
      "d": 5.040312500001164,
      "v": 35
    },
    {
      "midi": 98,
      "hit": false,
      "t": 182786.93281251128,
      "d": 10.080625000002328,
      "v": 49
    },
    {
      "midi": 82,
      "hit": false,
      "t": 182786.93281251128,
      "d": 10.080625000002328,
      "v": 64
    },
    {
      "midi": 59,
      "hit": false,
      "t": 182786.93281251128,
      "d": 65.52406250001513,
      "v": 67
    },
    {
      "midi": 64,
      "hit": false,
      "t": 182791.97312501128,
      "d": 80.64500000001863,
      "v": 55
    },
    {
      "midi": 54,
      "hit": false,
      "t": 182802.05375001128,
      "d": 40.32250000000931,
      "v": 39
    },
    {
      "midi": 98,
      "hit": false,
      "t": 182902.8600000113,
      "d": 10.080625000002328,
      "v": 78
    },
    {
      "midi": 82,
      "hit": false,
      "t": 182902.8600000113,
      "d": 10.080625000002328,
      "v": 102
    },
    {
      "midi": 55,
      "hit": false,
      "t": 182902.8600000113,
      "d": 10.080625000002328,
      "v": 54
    },
    {
      "midi": 42,
      "hit": false,
      "t": 182902.8600000113,
      "d": 60.48375000001397,
      "v": 98
    },
    {
      "midi": 35,
      "hit": false,
      "t": 182902.8600000113,
      "d": 90.72562500002095,
      "v": 86
    },
    {
      "midi": 36,
      "hit": false,
      "t": 182902.8600000113,
      "d": 211.6931250000489,
      "v": 105
    },
    {
      "midi": 71,
      "hit": false,
      "t": 182902.8600000113,
      "d": 322.5800000000745,
      "v": 104
    },
    {
      "midi": 59,
      "hit": false,
      "t": 182907.9003125113,
      "d": 10.080625000002328,
      "v": 41
    },
    {
      "midi": 64,
      "hit": false,
      "t": 182912.9406250113,
      "d": 10.080625000002328,
      "v": 49
    },
    {
      "midi": 31,
      "hit": false,
      "t": 183023.82750001134,
      "d": 5.040312500001164,
      "v": 30
    },
    {
      "midi": 98,
      "hit": false,
      "t": 183023.82750001134,
      "d": 5.040312500001164,
      "v": 41
    },
    {
      "midi": 82,
      "hit": false,
      "t": 183023.82750001134,
      "d": 5.040312500001164,
      "v": 51
    },
    {
      "midi": 59,
      "hit": false,
      "t": 183023.82750001134,
      "d": 50.40312500001164,
      "v": 22
    },
    {
      "midi": 64,
      "hit": false,
      "t": 183028.86781251134,
      "d": 55.443437500012806,
      "v": 22
    },
    {
      "midi": 54,
      "hit": false,
      "t": 183043.98875001134,
      "d": 40.32250000000931,
      "v": 34
    },
    {
      "midi": 82,
      "hit": false,
      "t": 183144.79500001136,
      "d": 10.080625000002328,
      "v": 60
    },
    {
      "midi": 55,
      "hit": false,
      "t": 183144.79500001136,
      "d": 10.080625000002328,
      "v": 55
    },
    {
      "midi": 42,
      "hit": false,
      "t": 183144.79500001136,
      "d": 40.32250000000931,
      "v": 73
    },
    {
      "midi": 60,
      "hit": false,
      "t": 183144.79500001136,
      "d": 70.5643750000163,
      "v": 61
    },
    {
      "midi": 36,
      "hit": false,
      "t": 183144.79500001136,
      "d": 206.65281250004773,
      "v": 105
    },
    {
      "midi": 59,
      "hit": false,
      "t": 183149.83531251136,
      "d": 10.080625000002328,
      "v": 55
    },
    {
      "midi": 64,
      "hit": false,
      "t": 183154.87562501137,
      "d": 25.20156250000582,
      "v": 55
    },
    {
      "midi": 54,
      "hit": false,
      "t": 183164.95625001137,
      "d": 70.5643750000163,
      "v": 93
    },
    {
      "midi": 71,
      "hit": false,
      "t": 183265.7625000114,
      "d": 322.5800000000745,
      "v": 104
    },
    {
      "midi": 98,
      "hit": false,
      "t": 183270.8028125114,
      "d": 10.080625000002328,
      "v": 45
    },
    {
      "midi": 82,
      "hit": false,
      "t": 183270.8028125114,
      "d": 10.080625000002328,
      "v": 58
    },
    {
      "midi": 54,
      "hit": false,
      "t": 183285.9237500114,
      "d": 40.32250000000931,
      "v": 31
    },
    {
      "midi": 98,
      "hit": false,
      "t": 183386.73000001142,
      "d": 10.080625000002328,
      "v": 84
    },
    {
      "midi": 82,
      "hit": false,
      "t": 183386.73000001142,
      "d": 10.080625000002328,
      "v": 108
    },
    {
      "midi": 60,
      "hit": false,
      "t": 183386.73000001142,
      "d": 45.36281250001048,
      "v": 51
    },
    {
      "midi": 55,
      "hit": false,
      "t": 183386.73000001142,
      "d": 50.40312500001164,
      "v": 54
    },
    {
      "midi": 42,
      "hit": false,
      "t": 183386.73000001142,
      "d": 65.52406250001513,
      "v": 98
    },
    {
      "midi": 40,
      "hit": false,
      "t": 183386.73000001142,
      "d": 65.52406250001513,
      "v": 91
    },
    {
      "midi": 28,
      "hit": false,
      "t": 183386.73000001142,
      "d": 191.53187500004424,
      "v": 102
    },
    {
      "midi": 59,
      "hit": false,
      "t": 183391.77031251142,
      "d": 45.36281250001048,
      "v": 49
    },
    {
      "midi": 64,
      "hit": false,
      "t": 183396.81062501142,
      "d": 70.5643750000163,
      "v": 56
    },
    {
      "midi": 39,
      "hit": false,
      "t": 183406.89125001142,
      "d": 70.5643750000163,
      "v": 76
    },
    {
      "midi": 98,
      "hit": false,
      "t": 183507.69750001145,
      "d": 5.040312500001164,
      "v": 35
    },
    {
      "midi": 82,
      "hit": false,
      "t": 183507.69750001145,
      "d": 5.040312500001164,
      "v": 43
    },
    {
      "midi": 55,
      "hit": false,
      "t": 183507.69750001145,
      "d": 45.36281250001048,
      "v": 23
    },
    {
      "midi": 60,
      "hit": false,
      "t": 183507.69750001145,
      "d": 45.36281250001048,
      "v": 42
    },
    {
      "midi": 59,
      "hit": false,
      "t": 183512.73781251145,
      "d": 50.40312500001164,
      "v": 47
    },
    {
      "midi": 64,
      "hit": false,
      "t": 183517.77812501145,
      "d": 45.36281250001048,
      "v": 38
    },
    {
      "midi": 54,
      "hit": false,
      "t": 183527.85875001145,
      "d": 40.32250000000931,
      "v": 39
    },
    {
      "midi": 82,
      "hit": false,
      "t": 183628.66500001148,
      "d": 10.080625000002328,
      "v": 66
    },
    {
      "midi": 42,
      "hit": false,
      "t": 183628.66500001148,
      "d": 60.48375000001397,
      "v": 82
    },
    {
      "midi": 54,
      "hit": false,
      "t": 183628.66500001148,
      "d": 85.68531250001979,
      "v": 50
    },
    {
      "midi": 31,
      "hit": false,
      "t": 183628.66500001148,
      "d": 161.29000000003725,
      "v": 105
    },
    {
      "midi": 71,
      "hit": false,
      "t": 183628.66500001148,
      "d": 216.73343750005006,
      "v": 104
    },
    {
      "midi": 55,
      "hit": false,
      "t": 183749.6325000115,
      "d": 10.080625000002328,
      "v": 51
    },
    {
      "midi": 59,
      "hit": false,
      "t": 183754.6728125115,
      "d": 5.040312500001164,
      "v": 49
    },
    {
      "midi": 98,
      "hit": false,
      "t": 183754.6728125115,
      "d": 10.080625000002328,
      "v": 49
    },
    {
      "midi": 82,
      "hit": false,
      "t": 183754.6728125115,
      "d": 10.080625000002328,
      "v": 64
    },
    {
      "midi": 64,
      "hit": false,
      "t": 183759.7131250115,
      "d": 10.080625000002328,
      "v": 54
    },
    {
      "midi": 54,
      "hit": false,
      "t": 183769.7937500115,
      "d": 40.32250000000931,
      "v": 40
    },
    {
      "midi": 98,
      "hit": false,
      "t": 183870.60000001153,
      "d": 10.080625000002328,
      "v": 78
    },
    {
      "midi": 82,
      "hit": false,
      "t": 183870.60000001153,
      "d": 10.080625000002328,
      "v": 102
    },
    {
      "midi": 55,
      "hit": false,
      "t": 183870.60000001153,
      "d": 65.52406250001513,
      "v": 65
    },
    {
      "midi": 42,
      "hit": false,
      "t": 183870.60000001153,
      "d": 75.60468750001746,
      "v": 98
    },
    {
      "midi": 35,
      "hit": false,
      "t": 183870.60000001153,
      "d": 90.72562500002095,
      "v": 79
    },
    {
      "midi": 51,
      "hit": false,
      "t": 183870.60000001153,
      "d": 241.93500000005588,
      "v": 104
    },
    {
      "midi": 47,
      "hit": false,
      "t": 183870.60000001153,
      "d": 241.93500000005588,
      "v": 104
    },
    {
      "midi": 71,
      "hit": false,
      "t": 183870.60000001153,
      "d": 322.5800000000745,
      "v": 47
    },
    {
      "midi": 59,
      "hit": false,
      "t": 183875.64031251153,
      "d": 60.48375000001397,
      "v": 60
    },
    {
      "midi": 63,
      "hit": false,
      "t": 183880.68062501153,
      "d": 70.5643750000163,
      "v": 60
    },
    {
      "midi": 98,
      "hit": false,
      "t": 183991.56750001156,
      "d": 5.040312500001164,
      "v": 41
    },
    {
      "midi": 82,
      "hit": false,
      "t": 183991.56750001156,
      "d": 5.040312500001164,
      "v": 51
    },
    {
      "midi": 55,
      "hit": false,
      "t": 183991.56750001156,
      "d": 10.080625000002328,
      "v": 51
    },
    {
      "midi": 59,
      "hit": false,
      "t": 183996.60781251156,
      "d": 5.040312500001164,
      "v": 41
    },
    {
      "midi": 63,
      "hit": false,
      "t": 184001.64812501156,
      "d": 10.080625000002328,
      "v": 57
    },
    {
      "midi": 54,
      "hit": false,
      "t": 184011.72875001156,
      "d": 40.32250000000931,
      "v": 34
    },
    {
      "midi": 82,
      "hit": false,
      "t": 184112.5350000116,
      "d": 10.080625000002328,
      "v": 60
    },
    {
      "midi": 42,
      "hit": false,
      "t": 184112.5350000116,
      "d": 45.36281250001048,
      "v": 82
    },
    {
      "midi": 54,
      "hit": false,
      "t": 184112.5350000116,
      "d": 70.5643750000163,
      "v": 94
    },
    {
      "midi": 55,
      "hit": false,
      "t": 184233.50250001161,
      "d": 50.40312500001164,
      "v": 22
    },
    {
      "midi": 71,
      "hit": false,
      "t": 184233.50250001161,
      "d": 322.5800000000745,
      "v": 104
    },
    {
      "midi": 98,
      "hit": false,
      "t": 184238.54281251162,
      "d": 10.080625000002328,
      "v": 45
    },
    {
      "midi": 82,
      "hit": false,
      "t": 184238.54281251162,
      "d": 10.080625000002328,
      "v": 58
    },
    {
      "midi": 59,
      "hit": false,
      "t": 184238.54281251162,
      "d": 50.40312500001164,
      "v": 22
    },
    {
      "midi": 63,
      "hit": false,
      "t": 184243.58312501162,
      "d": 50.40312500001164,
      "v": 25
    },
    {
      "midi": 54,
      "hit": false,
      "t": 184253.66375001162,
      "d": 40.32250000000931,
      "v": 40
    },
    {
      "midi": 31,
      "hit": false,
      "t": 184349.42968751164,
      "d": 357.86218750008265,
      "v": 105
    },
    {
      "midi": 98,
      "hit": false,
      "t": 184354.47000001164,
      "d": 10.080625000002328,
      "v": 84
    },
    {
      "midi": 82,
      "hit": false,
      "t": 184354.47000001164,
      "d": 10.080625000002328,
      "v": 108
    },
    {
      "midi": 55,
      "hit": false,
      "t": 184354.47000001164,
      "d": 10.080625000002328,
      "v": 49
    },
    {
      "midi": 40,
      "hit": false,
      "t": 184354.47000001164,
      "d": 65.52406250001513,
      "v": 91
    },
    {
      "midi": 42,
      "hit": false,
      "t": 184354.47000001164,
      "d": 70.5643750000163,
      "v": 98
    },
    {
      "midi": 59,
      "hit": false,
      "t": 184359.51031251164,
      "d": 10.080625000002328,
      "v": 56
    },
    {
      "midi": 63,
      "hit": false,
      "t": 184364.55062501165,
      "d": 10.080625000002328,
      "v": 54
    },
    {
      "midi": 98,
      "hit": false,
      "t": 184475.43750001167,
      "d": 5.040312500001164,
      "v": 35
    },
    {
      "midi": 82,
      "hit": false,
      "t": 184475.43750001167,
      "d": 5.040312500001164,
      "v": 43
    },
    {
      "midi": 54,
      "hit": false,
      "t": 184495.59875001168,
      "d": 40.32250000000931,
      "v": 39
    },
    {
      "midi": 82,
      "hit": false,
      "t": 184596.4050000117,
      "d": 10.080625000002328,
      "v": 66
    },
    {
      "midi": 42,
      "hit": false,
      "t": 184596.4050000117,
      "d": 50.40312500001164,
      "v": 64
    },
    {
      "midi": 54,
      "hit": false,
      "t": 184596.4050000117,
      "d": 85.68531250001979,
      "v": 47
    },
    {
      "midi": 51,
      "hit": false,
      "t": 184596.4050000117,
      "d": 216.73343750005006,
      "v": 104
    },
    {
      "midi": 47,
      "hit": false,
      "t": 184596.4050000117,
      "d": 216.73343750005006,
      "v": 104
    },
    {
      "midi": 71,
      "hit": false,
      "t": 184596.4050000117,
      "d": 216.73343750005006,
      "v": 104
    },
    {
      "midi": 55,
      "hit": false,
      "t": 184717.37250001173,
      "d": 50.40312500001164,
      "v": 65
    },
    {
      "midi": 31,
      "hit": false,
      "t": 184722.41281251173,
      "d": 5.040312500001164,
      "v": 21
    },
    {
      "midi": 98,
      "hit": false,
      "t": 184722.41281251173,
      "d": 10.080625000002328,
      "v": 49
    },
    {
      "midi": 82,
      "hit": false,
      "t": 184722.41281251173,
      "d": 10.080625000002328,
      "v": 64
    },
    {
      "midi": 59,
      "hit": false,
      "t": 184722.41281251173,
      "d": 70.5643750000163,
      "v": 73
    },
    {
      "midi": 63,
      "hit": false,
      "t": 184727.45312501173,
      "d": 75.60468750001746,
      "v": 55
    },
    {
      "midi": 54,
      "hit": false,
      "t": 184737.53375001173,
      "d": 40.32250000000931,
      "v": 39
    },
    {
      "midi": 98,
      "hit": false,
      "t": 184838.34000001175,
      "d": 10.080625000002328,
      "v": 78
    },
    {
      "midi": 82,
      "hit": false,
      "t": 184838.34000001175,
      "d": 10.080625000002328,
      "v": 102
    },
    {
      "midi": 55,
      "hit": false,
      "t": 184838.34000001175,
      "d": 10.080625000002328,
      "v": 54
    },
    {
      "midi": 42,
      "hit": false,
      "t": 184838.34000001175,
      "d": 65.52406250001513,
      "v": 93
    },
    {
      "midi": 35,
      "hit": false,
      "t": 184838.34000001175,
      "d": 90.72562500002095,
      "v": 86
    },
    {
      "midi": 71,
      "hit": false,
      "t": 184838.34000001175,
      "d": 216.73343750005006,
      "v": 104
    },
    {
      "midi": 59,
      "hit": false,
      "t": 184843.38031251176,
      "d": 5.040312500001164,
      "v": 49
    },
    {
      "midi": 63,
      "hit": false,
      "t": 184848.42062501176,
      "d": 10.080625000002328,
      "v": 57
    },
    {
      "midi": 98,
      "hit": false,
      "t": 184959.30750001178,
      "d": 5.040312500001164,
      "v": 41
    },
    {
      "midi": 82,
      "hit": false,
      "t": 184959.30750001178,
      "d": 5.040312500001164,
      "v": 51
    },
    {
      "midi": 31,
      "hit": false,
      "t": 184964.34781251178,
      "d": 5.040312500001164,
      "v": 30
    },
    {
      "midi": 54,
      "hit": false,
      "t": 184979.4687500118,
      "d": 40.32250000000931,
      "v": 34
    },
    {
      "midi": 82,
      "hit": false,
      "t": 185080.2750000118,
      "d": 10.080625000002328,
      "v": 60
    },
    {
      "midi": 55,
      "hit": false,
      "t": 185080.2750000118,
      "d": 10.080625000002328,
      "v": 49
    },
    {
      "midi": 42,
      "hit": false,
      "t": 185080.2750000118,
      "d": 60.48375000001397,
      "v": 87
    },
    {
      "midi": 69,
      "hit": false,
      "t": 185080.2750000118,
      "d": 216.73343750005006,
      "v": 104
    },
    {
      "midi": 59,
      "hit": false,
      "t": 185085.3153125118,
      "d": 25.20156250000582,
      "v": 47
    },
    {
      "midi": 63,
      "hit": false,
      "t": 185090.3556250118,
      "d": 10.080625000002328,
      "v": 54
    },
    {
      "midi": 54,
      "hit": false,
      "t": 185100.43625001181,
      "d": 70.5643750000163,
      "v": 93
    },
    {
      "midi": 98,
      "hit": false,
      "t": 185206.28281251184,
      "d": 10.080625000002328,
      "v": 45
    },
    {
      "midi": 82,
      "hit": false,
      "t": 185206.28281251184,
      "d": 10.080625000002328,
      "v": 58
    },
    {
      "midi": 54,
      "hit": false,
      "t": 185221.40375001184,
      "d": 40.32250000000931,
      "v": 31
    },
    {
      "midi": 98,
      "hit": false,
      "t": 185322.21000001187,
      "d": 10.080625000002328,
      "v": 84
    },
    {
      "midi": 82,
      "hit": false,
      "t": 185322.21000001187,
      "d": 10.080625000002328,
      "v": 108
    },
    {
      "midi": 40,
      "hit": false,
      "t": 185322.21000001187,
      "d": 65.52406250001513,
      "v": 94
    },
    {
      "midi": 55,
      "hit": false,
      "t": 185322.21000001187,
      "d": 65.52406250001513,
      "v": 57
    },
    {
      "midi": 42,
      "hit": false,
      "t": 185322.21000001187,
      "d": 80.64500000001863,
      "v": 93
    },
    {
      "midi": 67,
      "hit": false,
      "t": 185322.21000001187,
      "d": 216.73343750005006,
      "v": 104
    },
    {
      "midi": 59,
      "hit": false,
      "t": 185327.25031251187,
      "d": 70.5643750000163,
      "v": 59
    },
    {
      "midi": 63,
      "hit": false,
      "t": 185332.29062501187,
      "d": 70.5643750000163,
      "v": 59
    },
    {
      "midi": 39,
      "hit": false,
      "t": 185342.37125001187,
      "d": 70.5643750000163,
      "v": 76
    },
    {
      "midi": 98,
      "hit": false,
      "t": 185443.1775000119,
      "d": 5.040312500001164,
      "v": 35
    },
    {
      "midi": 82,
      "hit": false,
      "t": 185443.1775000119,
      "d": 5.040312500001164,
      "v": 43
    },
    {
      "midi": 55,
      "hit": false,
      "t": 185443.1775000119,
      "d": 40.32250000000931,
      "v": 44
    },
    {
      "midi": 59,
      "hit": false,
      "t": 185448.2178125119,
      "d": 55.443437500012806,
      "v": 38
    },
    {
      "midi": 63,
      "hit": false,
      "t": 185453.2581250119,
      "d": 60.48375000001397,
      "v": 45
    },
    {
      "midi": 54,
      "hit": false,
      "t": 185463.3387500119,
      "d": 40.32250000000931,
      "v": 39
    },
    {
      "midi": 82,
      "hit": false,
      "t": 185564.14500001192,
      "d": 10.080625000002328,
      "v": 66
    },
    {
      "midi": 42,
      "hit": false,
      "t": 185564.14500001192,
      "d": 55.443437500012806,
      "v": 82
    },
    {
      "midi": 54,
      "hit": false,
      "t": 185564.14500001192,
      "d": 85.68531250001979,
      "v": 50
    },
    {
      "midi": 31,
      "hit": false,
      "t": 185564.14500001192,
      "d": 161.29000000003725,
      "v": 102
    },
    {
      "midi": 71,
      "hit": false,
      "t": 185564.14500001192,
      "d": 216.73343750005006,
      "v": 104
    },
    {
      "midi": 55,
      "hit": false,
      "t": 185685.11250001195,
      "d": 10.080625000002328,
      "v": 47
    },
    {
      "midi": 29,
      "hit": false,
      "t": 185685.11250001195,
      "d": 95.76593750002212,
      "v": 45
    },
    {
      "midi": 59,
      "hit": false,
      "t": 185690.15281251195,
      "d": 5.040312500001164,
      "v": 45
    },
    {
      "midi": 98,
      "hit": false,
      "t": 185690.15281251195,
      "d": 10.080625000002328,
      "v": 49
    },
    {
      "midi": 82,
      "hit": false,
      "t": 185690.15281251195,
      "d": 10.080625000002328,
      "v": 64
    },
    {
      "midi": 63,
      "hit": false,
      "t": 185695.19312501195,
      "d": 10.080625000002328,
      "v": 47
    },
    {
      "midi": 54,
      "hit": false,
      "t": 185705.27375001195,
      "d": 40.32250000000931,
      "v": 40
    },
    {
      "midi": 98,
      "hit": false,
      "t": 185806.08000001198,
      "d": 10.080625000002328,
      "v": 78
    },
    {
      "midi": 82,
      "hit": false,
      "t": 185806.08000001198,
      "d": 10.080625000002328,
      "v": 102
    },
    {
      "midi": 54,
      "hit": false,
      "t": 185806.08000001198,
      "d": 60.48375000001397,
      "v": 60
    },
    {
      "midi": 42,
      "hit": false,
      "t": 185806.08000001198,
      "d": 70.5643750000163,
      "v": 95
    },
    {
      "midi": 59,
      "hit": false,
      "t": 185806.08000001198,
      "d": 70.5643750000163,
      "v": 66
    },
    {
      "midi": 35,
      "hit": false,
      "t": 185806.08000001198,
      "d": 90.72562500002095,
      "v": 87
    },
    {
      "midi": 52,
      "hit": false,
      "t": 185806.08000001198,
      "d": 241.93500000005588,
      "v": 104
    },
    {
      "midi": 69,
      "hit": false,
      "t": 185806.08000001198,
      "d": 322.5800000000745,
      "v": 104
    },
    {
      "midi": 28,
      "hit": false,
      "t": 185806.08000001198,
      "d": 372.98312500008615,
      "v": 102
    },
    {
      "midi": 57,
      "hit": false,
      "t": 185811.12031251198,
      "d": 65.52406250001513,
      "v": 67
    },
    {
      "midi": 62,
      "hit": false,
      "t": 185816.16062501198,
      "d": 65.52406250001513,
      "v": 60
    },
    {
      "midi": 98,
      "hit": false,
      "t": 185927.047500012,
      "d": 5.040312500001164,
      "v": 41
    },
    {
      "midi": 82,
      "hit": false,
      "t": 185927.047500012,
      "d": 5.040312500001164,
      "v": 51
    },
    {
      "midi": 54,
      "hit": false,
      "t": 185927.047500012,
      "d": 10.080625000002328,
      "v": 41
    },
    {
      "midi": 57,
      "hit": false,
      "t": 185932.087812512,
      "d": 5.040312500001164,
      "v": 55
    },
    {
      "midi": 62,
      "hit": false,
      "t": 185937.128125012,
      "d": 10.080625000002328,
      "v": 56
    },
    {
      "midi": 54,
      "hit": false,
      "t": 185947.208750012,
      "d": 40.32250000000931,
      "v": 34
    },
    {
      "midi": 82,
      "hit": false,
      "t": 186048.01500001203,
      "d": 10.080625000002328,
      "v": 60
    },
    {
      "midi": 42,
      "hit": false,
      "t": 186048.01500001203,
      "d": 55.443437500012806,
      "v": 82
    },
    {
      "midi": 54,
      "hit": false,
      "t": 186048.01500001203,
      "d": 70.5643750000163,
      "v": 94
    },
    {
      "midi": 98,
      "hit": false,
      "t": 186174.02281251206,
      "d": 10.080625000002328,
      "v": 45
    },
    {
      "midi": 82,
      "hit": false,
      "t": 186174.02281251206,
      "d": 10.080625000002328,
      "v": 58
    },
    {
      "midi": 57,
      "hit": false,
      "t": 186174.02281251206,
      "d": 35.28218750000815,
      "v": 32
    },
    {
      "midi": 62,
      "hit": false,
      "t": 186179.06312501206,
      "d": 40.32250000000931,
      "v": 26
    },
    {
      "midi": 54,
      "hit": false,
      "t": 186189.14375001207,
      "d": 25.20156250000582,
      "v": 40
    },
    {
      "midi": 98,
      "hit": false,
      "t": 186289.9500000121,
      "d": 10.080625000002328,
      "v": 84
    },
    {
      "midi": 82,
      "hit": false,
      "t": 186289.9500000121,
      "d": 10.080625000002328,
      "v": 108
    },
    {
      "midi": 54,
      "hit": false,
      "t": 186289.9500000121,
      "d": 10.080625000002328,
      "v": 54
    },
    {
      "midi": 42,
      "hit": false,
      "t": 186289.9500000121,
      "d": 75.60468750001746,
      "v": 93
    },
    {
      "midi": 40,
      "hit": false,
      "t": 186289.9500000121,
      "d": 75.60468750001746,
      "v": 94
    },
    {
      "midi": 59,
      "hit": false,
      "t": 186289.9500000121,
      "d": 85.68531250001979,
      "v": 60
    },
    {
      "midi": 57,
      "hit": false,
      "t": 186294.9903125121,
      "d": 5.040312500001164,
      "v": 49
    },
    {
      "midi": 62,
      "hit": false,
      "t": 186300.0306250121,
      "d": 10.080625000002328,
      "v": 49
    },
    {
      "midi": 98,
      "hit": false,
      "t": 186410.91750001212,
      "d": 5.040312500001164,
      "v": 35
    },
    {
      "midi": 82,
      "hit": false,
      "t": 186410.91750001212,
      "d": 5.040312500001164,
      "v": 43
    },
    {
      "midi": 54,
      "hit": false,
      "t": 186431.07875001212,
      "d": 40.32250000000931,
      "v": 39
    },
    {
      "midi": 82,
      "hit": false,
      "t": 186531.88500001215,
      "d": 10.080625000002328,
      "v": 66
    },
    {
      "midi": 54,
      "hit": false,
      "t": 186531.88500001215,
      "d": 40.32250000000931,
      "v": 47
    },
    {
      "midi": 42,
      "hit": false,
      "t": 186531.88500001215,
      "d": 50.40312500001164,
      "v": 73
    },
    {
      "midi": 52,
      "hit": false,
      "t": 186531.88500001215,
      "d": 216.73343750005006,
      "v": 104
    },
    {
      "midi": 69,
      "hit": false,
      "t": 186531.88500001215,
      "d": 433.4668750001001,
      "v": 104
    },
    {
      "midi": 57,
      "hit": false,
      "t": 186536.92531251215,
      "d": 40.32250000000931,
      "v": 26
    },
    {
      "midi": 62,
      "hit": false,
      "t": 186541.96562501215,
      "d": 45.36281250001048,
      "v": 22
    },
    {
      "midi": 59,
      "hit": false,
      "t": 186652.85250001217,
      "d": 85.68531250001979,
      "v": 61
    },
    {
      "midi": 98,
      "hit": false,
      "t": 186657.89281251217,
      "d": 10.080625000002328,
      "v": 49
    },
    {
      "midi": 82,
      "hit": false,
      "t": 186657.89281251217,
      "d": 10.080625000002328,
      "v": 64
    },
    {
      "midi": 57,
      "hit": false,
      "t": 186657.89281251217,
      "d": 85.68531250001979,
      "v": 58
    },
    {
      "midi": 62,
      "hit": false,
      "t": 186662.93312501218,
      "d": 85.68531250001979,
      "v": 68
    },
    {
      "midi": 54,
      "hit": false,
      "t": 186673.01375001218,
      "d": 40.32250000000931,
      "v": 39
    },
    {
      "midi": 98,
      "hit": false,
      "t": 186773.8200000122,
      "d": 10.080625000002328,
      "v": 78
    },
    {
      "midi": 82,
      "hit": false,
      "t": 186773.8200000122,
      "d": 10.080625000002328,
      "v": 102
    },
    {
      "midi": 54,
      "hit": false,
      "t": 186773.8200000122,
      "d": 10.080625000002328,
      "v": 41
    },
    {
      "midi": 42,
      "hit": false,
      "t": 186773.8200000122,
      "d": 55.443437500012806,
      "v": 87
    },
    {
      "midi": 35,
      "hit": false,
      "t": 186773.8200000122,
      "d": 95.76593750002212,
      "v": 87
    },
    {
      "midi": 28,
      "hit": false,
      "t": 186773.8200000122,
      "d": 357.86218750008265,
      "v": 105
    },
    {
      "midi": 57,
      "hit": false,
      "t": 186778.8603125122,
      "d": 5.040312500001164,
      "v": 47
    },
    {
      "midi": 62,
      "hit": false,
      "t": 186783.9006250122,
      "d": 10.080625000002328,
      "v": 54
    },
    {
      "midi": 98,
      "hit": false,
      "t": 186894.78750001223,
      "d": 5.040312500001164,
      "v": 41
    },
    {
      "midi": 82,
      "hit": false,
      "t": 186894.78750001223,
      "d": 5.040312500001164,
      "v": 51
    },
    {
      "midi": 54,
      "hit": false,
      "t": 186914.94875001223,
      "d": 40.32250000000931,
      "v": 34
    },
    {
      "midi": 82,
      "hit": false,
      "t": 187015.75500001226,
      "d": 10.080625000002328,
      "v": 60
    },
    {
      "midi": 54,
      "hit": false,
      "t": 187015.75500001226,
      "d": 10.080625000002328,
      "v": 55
    },
    {
      "midi": 42,
      "hit": false,
      "t": 187015.75500001226,
      "d": 50.40312500001164,
      "v": 82
    },
    {
      "midi": 59,
      "hit": false,
      "t": 187015.75500001226,
      "d": 50.40312500001164,
      "v": 61
    },
    {
      "midi": 71,
      "hit": false,
      "t": 187015.75500001226,
      "d": 216.73343750005006,
      "v": 104
    },
    {
      "midi": 57,
      "hit": false,
      "t": 187020.79531251226,
      "d": 10.080625000002328,
      "v": 49
    },
    {
      "midi": 62,
      "hit": false,
      "t": 187025.83562501226,
      "d": 10.080625000002328,
      "v": 49
    },
    {
      "midi": 54,
      "hit": false,
      "t": 187035.91625001226,
      "d": 20.161250000004657,
      "v": 93
    },
    {
      "midi": 98,
      "hit": false,
      "t": 187141.7628125123,
      "d": 10.080625000002328,
      "v": 45
    },
    {
      "midi": 82,
      "hit": false,
      "t": 187141.7628125123,
      "d": 10.080625000002328,
      "v": 58
    },
    {
      "midi": 54,
      "hit": false,
      "t": 187156.8837500123,
      "d": 40.32250000000931,
      "v": 31
    },
    {
      "midi": 28,
      "hit": false,
      "t": 187252.6496875123,
      "d": 171.37062500003958,
      "v": 102
    },
    {
      "midi": 98,
      "hit": false,
      "t": 187257.6900000123,
      "d": 10.080625000002328,
      "v": 84
    },
    {
      "midi": 82,
      "hit": false,
      "t": 187257.6900000123,
      "d": 10.080625000002328,
      "v": 108
    },
    {
      "midi": 54,
      "hit": false,
      "t": 187257.6900000123,
      "d": 55.443437500012806,
      "v": 59
    },
    {
      "midi": 42,
      "hit": false,
      "t": 187257.6900000123,
      "d": 60.48375000001397,
      "v": 87
    },
    {
      "midi": 40,
      "hit": false,
      "t": 187257.6900000123,
      "d": 60.48375000001397,
      "v": 94
    },
    {
      "midi": 59,
      "hit": false,
      "t": 187257.6900000123,
      "d": 85.68531250001979,
      "v": 60
    },
    {
      "midi": 69,
      "hit": false,
      "t": 187257.6900000123,
      "d": 216.73343750005006,
      "v": 104
    },
    {
      "midi": 57,
      "hit": false,
      "t": 187262.7303125123,
      "d": 65.52406250001513,
      "v": 58
    },
    {
      "midi": 62,
      "hit": false,
      "t": 187267.77062501232,
      "d": 60.48375000001397,
      "v": 58
    },
    {
      "midi": 39,
      "hit": false,
      "t": 187277.85125001232,
      "d": 70.5643750000163,
      "v": 76
    },
    {
      "midi": 98,
      "hit": false,
      "t": 187378.65750001234,
      "d": 5.040312500001164,
      "v": 35
    },
    {
      "midi": 82,
      "hit": false,
      "t": 187378.65750001234,
      "d": 5.040312500001164,
      "v": 43
    },
    {
      "midi": 59,
      "hit": false,
      "t": 187378.65750001234,
      "d": 45.36281250001048,
      "v": 38
    },
    {
      "midi": 57,
      "hit": false,
      "t": 187383.69781251234,
      "d": 65.52406250001513,
      "v": 38
    },
    {
      "midi": 62,
      "hit": false,
      "t": 187388.73812501234,
      "d": 75.60468750001746,
      "v": 38
    },
    {
      "midi": 54,
      "hit": false,
      "t": 187398.81875001235,
      "d": 40.32250000000931,
      "v": 39
    },
    {
      "midi": 40,
      "hit": false,
      "t": 187494.58468751237,
      "d": 196.5721875000454,
      "v": 97
    },
    {
      "midi": 82,
      "hit": false,
      "t": 187499.62500001237,
      "d": 10.080625000002328,
      "v": 66
    },
    {
      "midi": 42,
      "hit": false,
      "t": 187499.62500001237,
      "d": 50.40312500001164,
      "v": 75
    },
    {
      "midi": 54,
      "hit": false,
      "t": 187499.62500001237,
      "d": 85.68531250001979,
      "v": 50
    },
    {
      "midi": 68,
      "hit": false,
      "t": 187499.62500001237,
      "d": 216.73343750005006,
      "v": 104
    },
    {
      "midi": 54,
      "hit": false,
      "t": 187620.5925000124,
      "d": 10.080625000002328,
      "v": 49
    },
    {
      "midi": 98,
      "hit": false,
      "t": 187625.6328125124,
      "d": 10.080625000002328,
      "v": 49
    },
    {
      "midi": 82,
      "hit": false,
      "t": 187625.6328125124,
      "d": 10.080625000002328,
      "v": 64
    },
    {
      "midi": 57,
      "hit": false,
      "t": 187625.6328125124,
      "d": 25.20156250000582,
      "v": 54
    },
    {
      "midi": 62,
      "hit": false,
      "t": 187630.6731250124,
      "d": 10.080625000002328,
      "v": 57
    },
    {
      "midi": 54,
      "hit": false,
      "t": 187640.7537500124,
      "d": 40.32250000000931,
      "v": 40
    },
    {
      "midi": 98,
      "hit": false,
      "t": 187741.56000001243,
      "d": 10.080625000002328,
      "v": 78
    },
    {
      "midi": 82,
      "hit": false,
      "t": 187741.56000001243,
      "d": 10.080625000002328,
      "v": 102
    },
    {
      "midi": 42,
      "hit": false,
      "t": 187741.56000001243,
      "d": 45.36281250001048,
      "v": 95
    },
    {
      "midi": 56,
      "hit": false,
      "t": 187741.56000001243,
      "d": 65.52406250001513,
      "v": 60
    },
    {
      "midi": 35,
      "hit": false,
      "t": 187741.56000001243,
      "d": 105.84656250002445,
      "v": 87
    },
    {
      "midi": 52,
      "hit": false,
      "t": 187741.56000001243,
      "d": 241.93500000005588,
      "v": 104
    },
    {
      "midi": 28,
      "hit": false,
      "t": 187741.56000001243,
      "d": 307.459062500071,
      "v": 105
    },
    {
      "midi": 68,
      "hit": false,
      "t": 187741.56000001243,
      "d": 866.9337500002002,
      "v": 104
    },
    {
      "midi": 59,
      "hit": false,
      "t": 187746.60031251243,
      "d": 65.52406250001513,
      "v": 60
    },
    {
      "midi": 64,
      "hit": false,
      "t": 187751.64062501243,
      "d": 80.64500000001863,
      "v": 60
    },
    {
      "midi": 98,
      "hit": false,
      "t": 187862.52750001245,
      "d": 5.040312500001164,
      "v": 41
    },
    {
      "midi": 82,
      "hit": false,
      "t": 187862.52750001245,
      "d": 5.040312500001164,
      "v": 51
    },
    {
      "midi": 56,
      "hit": false,
      "t": 187862.52750001245,
      "d": 10.080625000002328,
      "v": 49
    },
    {
      "midi": 59,
      "hit": false,
      "t": 187867.56781251245,
      "d": 10.080625000002328,
      "v": 54
    },
    {
      "midi": 64,
      "hit": false,
      "t": 187872.60812501246,
      "d": 10.080625000002328,
      "v": 59
    },
    {
      "midi": 54,
      "hit": false,
      "t": 187882.68875001246,
      "d": 40.32250000000931,
      "v": 34
    },
    {
      "midi": 82,
      "hit": false,
      "t": 187983.49500001248,
      "d": 10.080625000002328,
      "v": 60
    },
    {
      "midi": 42,
      "hit": false,
      "t": 187983.49500001248,
      "d": 40.32250000000931,
      "v": 82
    },
    {
      "midi": 54,
      "hit": false,
      "t": 187983.49500001248,
      "d": 70.5643750000163,
      "v": 94
    },
    {
      "midi": 59,
      "hit": false,
      "t": 188104.4625000125,
      "d": 50.40312500001164,
      "v": 26
    },
    {
      "midi": 28,
      "hit": false,
      "t": 188104.4625000125,
      "d": 90.72562500002095,
      "v": 102
    },
    {
      "midi": 98,
      "hit": false,
      "t": 188109.5028125125,
      "d": 10.080625000002328,
      "v": 45
    },
    {
      "midi": 82,
      "hit": false,
      "t": 188109.5028125125,
      "d": 10.080625000002328,
      "v": 58
    },
    {
      "midi": 64,
      "hit": false,
      "t": 188109.5028125125,
      "d": 50.40312500001164,
      "v": 22
    },
    {
      "midi": 54,
      "hit": false,
      "t": 188124.6237500125,
      "d": 40.32250000000931,
      "v": 40
    },
    {
      "midi": 98,
      "hit": false,
      "t": 188225.43000001254,
      "d": 10.080625000002328,
      "v": 84
    },
    {
      "midi": 82,
      "hit": false,
      "t": 188225.43000001254,
      "d": 10.080625000002328,
      "v": 108
    },
    {
      "midi": 56,
      "hit": false,
      "t": 188225.43000001254,
      "d": 10.080625000002328,
      "v": 57
    },
    {
      "midi": 42,
      "hit": false,
      "t": 188225.43000001254,
      "d": 65.52406250001513,
      "v": 98
    },
    {
      "midi": 40,
      "hit": false,
      "t": 188225.43000001254,
      "d": 70.5643750000163,
      "v": 94
    },
    {
      "midi": 35,
      "hit": false,
      "t": 188225.43000001254,
      "d": 297.3784375000687,
      "v": 105
    },
    {
      "midi": 59,
      "hit": false,
      "t": 188230.47031251254,
      "d": 10.080625000002328,
      "v": 55
    },
    {
      "midi": 64,
      "hit": false,
      "t": 188235.51062501254,
      "d": 10.080625000002328,
      "v": 51
    },
    {
      "midi": 98,
      "hit": false,
      "t": 188346.39750001256,
      "d": 5.040312500001164,
      "v": 35
    },
    {
      "midi": 82,
      "hit": false,
      "t": 188346.39750001256,
      "d": 5.040312500001164,
      "v": 43
    },
    {
      "midi": 54,
      "hit": false,
      "t": 188366.55875001257,
      "d": 40.32250000000931,
      "v": 39
    },
    {
      "midi": 82,
      "hit": false,
      "t": 188467.3650000126,
      "d": 10.080625000002328,
      "v": 66
    },
    {
      "midi": 42,
      "hit": false,
      "t": 188467.3650000126,
      "d": 40.32250000000931,
      "v": 82
    },
    {
      "midi": 54,
      "hit": false,
      "t": 188467.3650000126,
      "d": 85.68531250001979,
      "v": 47
    },
    {
      "midi": 52,
      "hit": false,
      "t": 188467.3650000126,
      "d": 216.73343750005006,
      "v": 104
    },
    {
      "midi": 56,
      "hit": false,
      "t": 188588.33250001262,
      "d": 75.60468750001746,
      "v": 65
    },
    {
      "midi": 35,
      "hit": false,
      "t": 188588.33250001262,
      "d": 90.72562500002095,
      "v": 102
    },
    {
      "midi": 31,
      "hit": false,
      "t": 188593.37281251262,
      "d": 5.040312500001164,
      "v": 35
    },
    {
      "midi": 98,
      "hit": false,
      "t": 188593.37281251262,
      "d": 10.080625000002328,
      "v": 49
    },
    {
      "midi": 82,
      "hit": false,
      "t": 188593.37281251262,
      "d": 10.080625000002328,
      "v": 64
    },
    {
      "midi": 59,
      "hit": false,
      "t": 188593.37281251262,
      "d": 65.52406250001513,
      "v": 60
    },
    {
      "midi": 64,
      "hit": false,
      "t": 188598.41312501262,
      "d": 80.64500000001863,
      "v": 65
    },
    {
      "midi": 54,
      "hit": false,
      "t": 188608.49375001263,
      "d": 40.32250000000931,
      "v": 39
    },
    {
      "midi": 98,
      "hit": false,
      "t": 188709.30000001265,
      "d": 10.080625000002328,
      "v": 78
    },
    {
      "midi": 82,
      "hit": false,
      "t": 188709.30000001265,
      "d": 10.080625000002328,
      "v": 102
    },
    {
      "midi": 56,
      "hit": false,
      "t": 188709.30000001265,
      "d": 25.20156250000582,
      "v": 30
    },
    {
      "midi": 42,
      "hit": false,
      "t": 188709.30000001265,
      "d": 60.48375000001397,
      "v": 98
    },
    {
      "midi": 35,
      "hit": false,
      "t": 188709.30000001265,
      "d": 90.72562500002095,
      "v": 86
    },
    {
      "midi": 28,
      "hit": false,
      "t": 188709.30000001265,
      "d": 211.6931250000489,
      "v": 105
    },
    {
      "midi": 59,
      "hit": false,
      "t": 188714.34031251265,
      "d": 5.040312500001164,
      "v": 41
    },
    {
      "midi": 64,
      "hit": false,
      "t": 188719.38062501265,
      "d": 10.080625000002328,
      "v": 49
    },
    {
      "midi": 31,
      "hit": false,
      "t": 188830.26750001268,
      "d": 5.040312500001164,
      "v": 30
    },
    {
      "midi": 98,
      "hit": false,
      "t": 188830.26750001268,
      "d": 5.040312500001164,
      "v": 41
    },
    {
      "midi": 82,
      "hit": false,
      "t": 188830.26750001268,
      "d": 5.040312500001164,
      "v": 51
    },
    {
      "midi": 59,
      "hit": false,
      "t": 188830.26750001268,
      "d": 45.36281250001048,
      "v": 25
    },
    {
      "midi": 64,
      "hit": false,
      "t": 188835.30781251268,
      "d": 35.28218750000815,
      "v": 22
    },
    {
      "midi": 54,
      "hit": false,
      "t": 188850.42875001268,
      "d": 40.32250000000931,
      "v": 34
    },
    {
      "midi": 82,
      "hit": false,
      "t": 188951.2350000127,
      "d": 10.080625000002328,
      "v": 60
    },
    {
      "midi": 56,
      "hit": false,
      "t": 188951.2350000127,
      "d": 10.080625000002328,
      "v": 54
    },
    {
      "midi": 42,
      "hit": false,
      "t": 188951.2350000127,
      "d": 40.32250000000931,
      "v": 73
    },
    {
      "midi": 28,
      "hit": false,
      "t": 188951.2350000127,
      "d": 206.65281250004773,
      "v": 105
    },
    {
      "midi": 68,
      "hit": false,
      "t": 188951.2350000127,
      "d": 216.73343750005006,
      "v": 104
    },
    {
      "midi": 59,
      "hit": false,
      "t": 188956.2753125127,
      "d": 5.040312500001164,
      "v": 49
    },
    {
      "midi": 64,
      "hit": false,
      "t": 188961.3156250127,
      "d": 10.080625000002328,
      "v": 49
    },
    {
      "midi": 54,
      "hit": false,
      "t": 188971.3962500127,
      "d": 70.5643750000163,
      "v": 93
    },
    {
      "midi": 98,
      "hit": false,
      "t": 189077.24281251273,
      "d": 10.080625000002328,
      "v": 45
    },
    {
      "midi": 82,
      "hit": false,
      "t": 189077.24281251273,
      "d": 10.080625000002328,
      "v": 58
    },
    {
      "midi": 54,
      "hit": false,
      "t": 189092.36375001274,
      "d": 40.32250000000931,
      "v": 31
    },
    {
      "midi": 98,
      "hit": false,
      "t": 189193.17000001276,
      "d": 10.080625000002328,
      "v": 84
    },
    {
      "midi": 82,
      "hit": false,
      "t": 189193.17000001276,
      "d": 10.080625000002328,
      "v": 108
    },
    {
      "midi": 56,
      "hit": false,
      "t": 189193.17000001276,
      "d": 60.48375000001397,
      "v": 54
    },
    {
      "midi": 42,
      "hit": false,
      "t": 189193.17000001276,
      "d": 65.52406250001513,
      "v": 98
    },
    {
      "midi": 40,
      "hit": false,
      "t": 189193.17000001276,
      "d": 65.52406250001513,
      "v": 91
    },
    {
      "midi": 32,
      "hit": false,
      "t": 189193.17000001276,
      "d": 191.53187500004424,
      "v": 102
    },
    {
      "midi": 68,
      "hit": false,
      "t": 189193.17000001276,
      "d": 216.73343750005006,
      "v": 104
    },
    {
      "midi": 59,
      "hit": false,
      "t": 189198.21031251276,
      "d": 60.48375000001397,
      "v": 67
    },
    {
      "midi": 64,
      "hit": false,
      "t": 189203.25062501276,
      "d": 70.5643750000163,
      "v": 67
    },
    {
      "midi": 39,
      "hit": false,
      "t": 189213.33125001276,
      "d": 70.5643750000163,
      "v": 76
    },
    {
      "midi": 98,
      "hit": false,
      "t": 189314.1375000128,
      "d": 5.040312500001164,
      "v": 35
    },
    {
      "midi": 82,
      "hit": false,
      "t": 189314.1375000128,
      "d": 5.040312500001164,
      "v": 43
    },
    {
      "midi": 56,
      "hit": false,
      "t": 189314.1375000128,
      "d": 45.36281250001048,
      "v": 23
    },
    {
      "midi": 59,
      "hit": false,
      "t": 189319.1778125128,
      "d": 40.32250000000931,
      "v": 44
    },
    {
      "midi": 64,
      "hit": false,
      "t": 189324.2181250128,
      "d": 40.32250000000931,
      "v": 29
    },
    {
      "midi": 54,
      "hit": false,
      "t": 189334.2987500128,
      "d": 40.32250000000931,
      "v": 39
    },
    {
      "midi": 82,
      "hit": false,
      "t": 189435.10500001282,
      "d": 10.080625000002328,
      "v": 66
    },
    {
      "midi": 42,
      "hit": false,
      "t": 189435.10500001282,
      "d": 60.48375000001397,
      "v": 82
    },
    {
      "midi": 54,
      "hit": false,
      "t": 189435.10500001282,
      "d": 85.68531250001979,
      "v": 50
    },
    {
      "midi": 35,
      "hit": false,
      "t": 189435.10500001282,
      "d": 161.29000000003725,
      "v": 105
    },
    {
      "midi": 68,
      "hit": false,
      "t": 189435.10500001282,
      "d": 216.73343750005006,
      "v": 104
    },
    {
      "midi": 98,
      "hit": false,
      "t": 189561.11281251285,
      "d": 10.080625000002328,
      "v": 49
    },
    {
      "midi": 82,
      "hit": false,
      "t": 189561.11281251285,
      "d": 10.080625000002328,
      "v": 64
    },
    {
      "midi": 54,
      "hit": false,
      "t": 189576.23375001285,
      "d": 40.32250000000931,
      "v": 40
    },
    {
      "midi": 98,
      "hit": false,
      "t": 189677.04000001287,
      "d": 10.080625000002328,
      "v": 78
    },
    {
      "midi": 82,
      "hit": false,
      "t": 189677.04000001287,
      "d": 10.080625000002328,
      "v": 102
    },
    {
      "midi": 42,
      "hit": false,
      "t": 189677.04000001287,
      "d": 45.36281250001048,
      "v": 95
    },
    {
      "midi": 55,
      "hit": false,
      "t": 189677.04000001287,
      "d": 50.40312500001164,
      "v": 58
    },
    {
      "midi": 35,
      "hit": false,
      "t": 189677.04000001287,
      "d": 105.84656250002445,
      "v": 87
    },
    {
      "midi": 57,
      "hit": false,
      "t": 189677.04000001287,
      "d": 241.93500000005588,
      "v": 104
    },
    {
      "midi": 33,
      "hit": false,
      "t": 189677.04000001287,
      "d": 317.53968750007334,
      "v": 102
    },
    {
      "midi": 67,
      "hit": false,
      "t": 189677.04000001287,
      "d": 322.5800000000745,
      "v": 47
    },
    {
      "midi": 72,
      "hit": false,
      "t": 189677.04000001287,
      "d": 1935.480000000447,
      "v": 47
    },
    {
      "midi": 60,
      "hit": false,
      "t": 189682.08031251287,
      "d": 40.32250000000931,
      "v": 54
    },
    {
      "midi": 64,
      "hit": false,
      "t": 189687.12062501287,
      "d": 50.40312500001164,
      "v": 54
    },
    {
      "midi": 98,
      "hit": false,
      "t": 189798.0075000129,
      "d": 5.040312500001164,
      "v": 41
    },
    {
      "midi": 82,
      "hit": false,
      "t": 189798.0075000129,
      "d": 5.040312500001164,
      "v": 51
    },
    {
      "midi": 55,
      "hit": false,
      "t": 189798.0075000129,
      "d": 10.080625000002328,
      "v": 56
    },
    {
      "midi": 60,
      "hit": false,
      "t": 189803.0478125129,
      "d": 10.080625000002328,
      "v": 54
    },
    {
      "midi": 64,
      "hit": false,
      "t": 189808.0881250129,
      "d": 70.5643750000163,
      "v": 56
    },
    {
      "midi": 54,
      "hit": false,
      "t": 189818.1687500129,
      "d": 40.32250000000931,
      "v": 34
    },
    {
      "midi": 82,
      "hit": false,
      "t": 189918.97500001293,
      "d": 10.080625000002328,
      "v": 60
    },
    {
      "midi": 42,
      "hit": false,
      "t": 189918.97500001293,
      "d": 40.32250000000931,
      "v": 82
    },
    {
      "midi": 54,
      "hit": false,
      "t": 189918.97500001293,
      "d": 70.5643750000163,
      "v": 94
    },
    {
      "midi": 55,
      "hit": false,
      "t": 190039.94250001296,
      "d": 5.040312500001164,
      "v": 22
    },
    {
      "midi": 64,
      "hit": false,
      "t": 190039.94250001296,
      "d": 5.040312500001164,
      "v": 35
    },
    {
      "midi": 33,
      "hit": false,
      "t": 190039.94250001296,
      "d": 90.72562500002095,
      "v": 102
    },
    {
      "midi": 67,
      "hit": false,
      "t": 190039.94250001296,
      "d": 322.5800000000745,
      "v": 104
    },
    {
      "midi": 98,
      "hit": false,
      "t": 190044.98281251296,
      "d": 10.080625000002328,
      "v": 45
    },
    {
      "midi": 82,
      "hit": false,
      "t": 190044.98281251296,
      "d": 10.080625000002328,
      "v": 58
    },
    {
      "midi": 60,
      "hit": false,
      "t": 190044.98281251296,
      "d": 45.36281250001048,
      "v": 29
    },
    {
      "midi": 64,
      "hit": false,
      "t": 190050.02312501296,
      "d": 50.40312500001164,
      "v": 26
    },
    {
      "midi": 54,
      "hit": false,
      "t": 190060.10375001296,
      "d": 40.32250000000931,
      "v": 40
    },
    {
      "midi": 98,
      "hit": false,
      "t": 190160.91000001298,
      "d": 10.080625000002328,
      "v": 84
    },
    {
      "midi": 82,
      "hit": false,
      "t": 190160.91000001298,
      "d": 10.080625000002328,
      "v": 108
    },
    {
      "midi": 55,
      "hit": false,
      "t": 190160.91000001298,
      "d": 25.20156250000582,
      "v": 67
    },
    {
      "midi": 42,
      "hit": false,
      "t": 190160.91000001298,
      "d": 65.52406250001513,
      "v": 98
    },
    {
      "midi": 40,
      "hit": false,
      "t": 190160.91000001298,
      "d": 70.5643750000163,
      "v": 94
    },
    {
      "midi": 36,
      "hit": false,
      "t": 190160.91000001298,
      "d": 211.6931250000489,
      "v": 102
    },
    {
      "midi": 60,
      "hit": false,
      "t": 190165.95031251298,
      "d": 10.080625000002328,
      "v": 49
    },
    {
      "midi": 64,
      "hit": false,
      "t": 190170.990625013,
      "d": 10.080625000002328,
      "v": 54
    },
    {
      "midi": 98,
      "hit": false,
      "t": 190281.877500013,
      "d": 5.040312500001164,
      "v": 35
    },
    {
      "midi": 82,
      "hit": false,
      "t": 190281.877500013,
      "d": 5.040312500001164,
      "v": 43
    },
    {
      "midi": 54,
      "hit": false,
      "t": 190302.03875001302,
      "d": 40.32250000000931,
      "v": 39
    },
    {
      "midi": 55,
      "hit": false,
      "t": 190402.84500001304,
      "d": 5.040312500001164,
      "v": 22
    },
    {
      "midi": 82,
      "hit": false,
      "t": 190402.84500001304,
      "d": 10.080625000002328,
      "v": 66
    },
    {
      "midi": 42,
      "hit": false,
      "t": 190402.84500001304,
      "d": 40.32250000000931,
      "v": 82
    },
    {
      "midi": 54,
      "hit": false,
      "t": 190402.84500001304,
      "d": 85.68531250001979,
      "v": 47
    },
    {
      "midi": 40,
      "hit": false,
      "t": 190402.84500001304,
      "d": 171.37062500003958,
      "v": 102
    },
    {
      "midi": 57,
      "hit": false,
      "t": 190402.84500001304,
      "d": 216.73343750005006,
      "v": 104
    },
    {
      "midi": 67,
      "hit": false,
      "t": 190402.84500001304,
      "d": 216.73343750005006,
      "v": 104
    },
    {
      "midi": 60,
      "hit": false,
      "t": 190407.88531251304,
      "d": 55.443437500012806,
      "v": 22
    },
    {
      "midi": 64,
      "hit": false,
      "t": 190412.92562501304,
      "d": 50.40312500001164,
      "v": 22
    },
    {
      "midi": 55,
      "hit": false,
      "t": 190523.81250001307,
      "d": 65.52406250001513,
      "v": 65
    },
    {
      "midi": 98,
      "hit": false,
      "t": 190528.85281251307,
      "d": 10.080625000002328,
      "v": 49
    },
    {
      "midi": 82,
      "hit": false,
      "t": 190528.85281251307,
      "d": 10.080625000002328,
      "v": 64
    },
    {
      "midi": 60,
      "hit": false,
      "t": 190528.85281251307,
      "d": 65.52406250001513,
      "v": 67
    },
    {
      "midi": 64,
      "hit": false,
      "t": 190533.89312501307,
      "d": 70.5643750000163,
      "v": 55
    },
    {
      "midi": 54,
      "hit": false,
      "t": 190543.97375001307,
      "d": 40.32250000000931,
      "v": 39
    },
    {
      "midi": 98,
      "hit": false,
      "t": 190644.7800000131,
      "d": 10.080625000002328,
      "v": 78
    },
    {
      "midi": 82,
      "hit": false,
      "t": 190644.7800000131,
      "d": 10.080625000002328,
      "v": 102
    },
    {
      "midi": 55,
      "hit": false,
      "t": 190644.7800000131,
      "d": 10.080625000002328,
      "v": 54
    },
    {
      "midi": 42,
      "hit": false,
      "t": 190644.7800000131,
      "d": 60.48375000001397,
      "v": 98
    },
    {
      "midi": 35,
      "hit": false,
      "t": 190644.7800000131,
      "d": 90.72562500002095,
      "v": 86
    },
    {
      "midi": 45,
      "hit": false,
      "t": 190644.7800000131,
      "d": 282.2575000000652,
      "v": 102
    },
    {
      "midi": 67,
      "hit": false,
      "t": 190644.7800000131,
      "d": 322.5800000000745,
      "v": 104
    },
    {
      "midi": 60,
      "hit": false,
      "t": 190649.8203125131,
      "d": 10.080625000002328,
      "v": 41
    },
    {
      "midi": 64,
      "hit": false,
      "t": 190654.8606250131,
      "d": 10.080625000002328,
      "v": 49
    },
    {
      "midi": 98,
      "hit": false,
      "t": 190765.74750001312,
      "d": 5.040312500001164,
      "v": 41
    },
    {
      "midi": 82,
      "hit": false,
      "t": 190765.74750001312,
      "d": 5.040312500001164,
      "v": 51
    },
    {
      "midi": 60,
      "hit": false,
      "t": 190765.74750001312,
      "d": 50.40312500001164,
      "v": 22
    },
    {
      "midi": 64,
      "hit": false,
      "t": 190770.78781251312,
      "d": 55.443437500012806,
      "v": 22
    },
    {
      "midi": 54,
      "hit": false,
      "t": 190785.90875001313,
      "d": 40.32250000000931,
      "v": 34
    },
    {
      "midi": 82,
      "hit": false,
      "t": 190886.71500001315,
      "d": 10.080625000002328,
      "v": 60
    },
    {
      "midi": 55,
      "hit": false,
      "t": 190886.71500001315,
      "d": 10.080625000002328,
      "v": 55
    },
    {
      "midi": 42,
      "hit": false,
      "t": 190886.71500001315,
      "d": 40.32250000000931,
      "v": 73
    },
    {
      "midi": 60,
      "hit": false,
      "t": 190891.75531251315,
      "d": 10.080625000002328,
      "v": 55
    },
    {
      "midi": 64,
      "hit": false,
      "t": 190896.79562501315,
      "d": 25.20156250000582,
      "v": 55
    },
    {
      "midi": 54,
      "hit": false,
      "t": 190906.87625001316,
      "d": 70.5643750000163,
      "v": 93
    },
    {
      "midi": 33,
      "hit": false,
      "t": 191007.68250001318,
      "d": 90.72562500002095,
      "v": 97
    },
    {
      "midi": 67,
      "hit": false,
      "t": 191007.68250001318,
      "d": 322.5800000000745,
      "v": 104
    },
    {
      "midi": 98,
      "hit": false,
      "t": 191012.72281251318,
      "d": 10.080625000002328,
      "v": 45
    },
    {
      "midi": 82,
      "hit": false,
      "t": 191012.72281251318,
      "d": 10.080625000002328,
      "v": 58
    },
    {
      "midi": 54,
      "hit": false,
      "t": 191027.84375001318,
      "d": 40.32250000000931,
      "v": 31
    },
    {
      "midi": 98,
      "hit": false,
      "t": 191128.6500000132,
      "d": 10.080625000002328,
      "v": 84
    },
    {
      "midi": 82,
      "hit": false,
      "t": 191128.6500000132,
      "d": 10.080625000002328,
      "v": 108
    },
    {
      "midi": 55,
      "hit": false,
      "t": 191128.6500000132,
      "d": 50.40312500001164,
      "v": 54
    },
    {
      "midi": 42,
      "hit": false,
      "t": 191128.6500000132,
      "d": 65.52406250001513,
      "v": 98
    },
    {
      "midi": 40,
      "hit": false,
      "t": 191128.6500000132,
      "d": 65.52406250001513,
      "v": 91
    },
    {
      "midi": 36,
      "hit": false,
      "t": 191128.6500000132,
      "d": 216.73343750005006,
      "v": 102
    },
    {
      "midi": 60,
      "hit": false,
      "t": 191133.6903125132,
      "d": 45.36281250001048,
      "v": 49
    },
    {
      "midi": 64,
      "hit": false,
      "t": 191138.7306250132,
      "d": 35.28218750000815,
      "v": 56
    },
    {
      "midi": 39,
      "hit": false,
      "t": 191148.8112500132,
      "d": 70.5643750000163,
      "v": 76
    },
    {
      "midi": 98,
      "hit": false,
      "t": 191249.61750001324,
      "d": 5.040312500001164,
      "v": 35
    },
    {
      "midi": 82,
      "hit": false,
      "t": 191249.61750001324,
      "d": 5.040312500001164,
      "v": 43
    },
    {
      "midi": 55,
      "hit": false,
      "t": 191249.61750001324,
      "d": 45.36281250001048,
      "v": 23
    },
    {
      "midi": 60,
      "hit": false,
      "t": 191254.65781251324,
      "d": 50.40312500001164,
      "v": 47
    },
    {
      "midi": 64,
      "hit": false,
      "t": 191259.69812501324,
      "d": 35.28218750000815,
      "v": 38
    },
    {
      "midi": 54,
      "hit": false,
      "t": 191269.77875001324,
      "d": 40.32250000000931,
      "v": 39
    },
    {
      "midi": 82,
      "hit": false,
      "t": 191370.58500001326,
      "d": 10.080625000002328,
      "v": 66
    },
    {
      "midi": 42,
      "hit": false,
      "t": 191370.58500001326,
      "d": 60.48375000001397,
      "v": 82
    },
    {
      "midi": 54,
      "hit": false,
      "t": 191370.58500001326,
      "d": 85.68531250001979,
      "v": 50
    },
    {
      "midi": 40,
      "hit": false,
      "t": 191370.58500001326,
      "d": 141.1287500000326,
      "v": 97
    },
    {
      "midi": 67,
      "hit": false,
      "t": 191370.58500001326,
      "d": 216.73343750005006,
      "v": 104
    },
    {
      "midi": 55,
      "hit": false,
      "t": 191491.5525000133,
      "d": 10.080625000002328,
      "v": 51
    },
    {
      "midi": 60,
      "hit": false,
      "t": 191496.5928125133,
      "d": 5.040312500001164,
      "v": 49
    },
    {
      "midi": 98,
      "hit": false,
      "t": 191496.5928125133,
      "d": 10.080625000002328,
      "v": 49
    },
    {
      "midi": 82,
      "hit": false,
      "t": 191496.5928125133,
      "d": 10.080625000002328,
      "v": 64
    },
    {
      "midi": 64,
      "hit": false,
      "t": 191501.6331250133,
      "d": 10.080625000002328,
      "v": 54
    },
    {
      "midi": 54,
      "hit": false,
      "t": 191511.7137500133,
      "d": 40.32250000000931,
      "v": 40
    },
    {
      "midi": 98,
      "hit": false,
      "t": 191612.52000001332,
      "d": 10.080625000002328,
      "v": 78
    },
    {
      "midi": 82,
      "hit": false,
      "t": 191612.52000001332,
      "d": 10.080625000002328,
      "v": 102
    },
    {
      "midi": 57,
      "hit": false,
      "t": 191612.52000001332,
      "d": 65.52406250001513,
      "v": 65
    },
    {
      "midi": 42,
      "hit": false,
      "t": 191612.52000001332,
      "d": 75.60468750001746,
      "v": 98
    },
    {
      "midi": 62,
      "hit": false,
      "t": 191612.52000001332,
      "d": 85.68531250001979,
      "v": 61
    },
    {
      "midi": 35,
      "hit": false,
      "t": 191612.52000001332,
      "d": 90.72562500002095,
      "v": 79
    },
    {
      "midi": 50,
      "hit": false,
      "t": 191612.52000001332,
      "d": 241.93500000005588,
      "v": 104
    },
    {
      "midi": 38,
      "hit": false,
      "t": 191612.52000001332,
      "d": 357.86218750008265,
      "v": 105
    },
    {
      "midi": 72,
      "hit": false,
      "t": 191612.52000001332,
      "d": 1935.480000000447,
      "v": 47
    },
    {
      "midi": 60,
      "hit": false,
      "t": 191617.56031251332,
      "d": 60.48375000001397,
      "v": 60
    },
    {
      "midi": 67,
      "hit": false,
      "t": 191622.60062501332,
      "d": 70.5643750000163,
      "v": 60
    },
    {
      "midi": 98,
      "hit": false,
      "t": 191733.48750001335,
      "d": 5.040312500001164,
      "v": 41
    },
    {
      "midi": 82,
      "hit": false,
      "t": 191733.48750001335,
      "d": 5.040312500001164,
      "v": 51
    },
    {
      "midi": 57,
      "hit": false,
      "t": 191733.48750001335,
      "d": 10.080625000002328,
      "v": 51
    },
    {
      "midi": 60,
      "hit": false,
      "t": 191738.52781251335,
      "d": 5.040312500001164,
      "v": 41
    },
    {
      "midi": 67,
      "hit": false,
      "t": 191743.56812501335,
      "d": 10.080625000002328,
      "v": 57
    },
    {
      "midi": 54,
      "hit": false,
      "t": 191753.64875001335,
      "d": 40.32250000000931,
      "v": 34
    },
    {
      "midi": 82,
      "hit": false,
      "t": 191854.45500001337,
      "d": 10.080625000002328,
      "v": 60
    },
    {
      "midi": 42,
      "hit": false,
      "t": 191854.45500001337,
      "d": 45.36281250001048,
      "v": 82
    },
    {
      "midi": 54,
      "hit": false,
      "t": 191854.45500001337,
      "d": 70.5643750000163,
      "v": 94
    },
    {
      "midi": 57,
      "hit": false,
      "t": 191975.4225000134,
      "d": 50.40312500001164,
      "v": 22
    },
    {
      "midi": 98,
      "hit": false,
      "t": 191980.4628125134,
      "d": 10.080625000002328,
      "v": 45
    },
    {
      "midi": 82,
      "hit": false,
      "t": 191980.4628125134,
      "d": 10.080625000002328,
      "v": 58
    },
    {
      "midi": 60,
      "hit": false,
      "t": 191980.4628125134,
      "d": 50.40312500001164,
      "v": 22
    },
    {
      "midi": 67,
      "hit": false,
      "t": 191985.5031250134,
      "d": 50.40312500001164,
      "v": 25
    },
    {
      "midi": 54,
      "hit": false,
      "t": 191995.5837500134,
      "d": 40.32250000000931,
      "v": 40
    },
    {
      "midi": 98,
      "hit": false,
      "t": 192096.39000001343,
      "d": 10.080625000002328,
      "v": 84
    },
    {
      "midi": 82,
      "hit": false,
      "t": 192096.39000001343,
      "d": 10.080625000002328,
      "v": 108
    },
    {
      "midi": 57,
      "hit": false,
      "t": 192096.39000001343,
      "d": 10.080625000002328,
      "v": 49
    },
    {
      "midi": 62,
      "hit": false,
      "t": 192096.39000001343,
      "d": 55.443437500012806,
      "v": 56
    },
    {
      "midi": 40,
      "hit": false,
      "t": 192096.39000001343,
      "d": 65.52406250001513,
      "v": 91
    },
    {
      "midi": 42,
      "hit": false,
      "t": 192096.39000001343,
      "d": 70.5643750000163,
      "v": 98
    },
    {
      "midi": 33,
      "hit": false,
      "t": 192096.39000001343,
      "d": 398.18468750009197,
      "v": 109
    },
    {
      "midi": 60,
      "hit": false,
      "t": 192101.43031251343,
      "d": 10.080625000002328,
      "v": 56
    },
    {
      "midi": 67,
      "hit": false,
      "t": 192106.47062501343,
      "d": 10.080625000002328,
      "v": 54
    },
    {
      "midi": 98,
      "hit": false,
      "t": 192217.35750001346,
      "d": 5.040312500001164,
      "v": 35
    },
    {
      "midi": 82,
      "hit": false,
      "t": 192217.35750001346,
      "d": 5.040312500001164,
      "v": 43
    },
    {
      "midi": 54,
      "hit": false,
      "t": 192237.51875001346,
      "d": 40.32250000000931,
      "v": 39
    },
    {
      "midi": 82,
      "hit": false,
      "t": 192338.3250000135,
      "d": 10.080625000002328,
      "v": 66
    },
    {
      "midi": 42,
      "hit": false,
      "t": 192338.3250000135,
      "d": 50.40312500001164,
      "v": 64
    },
    {
      "midi": 54,
      "hit": false,
      "t": 192338.3250000135,
      "d": 85.68531250001979,
      "v": 47
    },
    {
      "midi": 50,
      "hit": false,
      "t": 192338.3250000135,
      "d": 216.73343750005006,
      "v": 104
    },
    {
      "midi": 57,
      "hit": false,
      "t": 192459.29250001351,
      "d": 50.40312500001164,
      "v": 65
    },
    {
      "midi": 62,
      "hit": false,
      "t": 192459.29250001351,
      "d": 75.60468750001746,
      "v": 60
    },
    {
      "midi": 31,
      "hit": false,
      "t": 192464.33281251352,
      "d": 5.040312500001164,
      "v": 30
    },
    {
      "midi": 98,
      "hit": false,
      "t": 192464.33281251352,
      "d": 10.080625000002328,
      "v": 49
    },
    {
      "midi": 82,
      "hit": false,
      "t": 192464.33281251352,
      "d": 10.080625000002328,
      "v": 64
    },
    {
      "midi": 60,
      "hit": false,
      "t": 192464.33281251352,
      "d": 75.60468750001746,
      "v": 73
    },
    {
      "midi": 67,
      "hit": false,
      "t": 192469.37312501352,
      "d": 75.60468750001746,
      "v": 55
    },
    {
      "midi": 54,
      "hit": false,
      "t": 192479.45375001352,
      "d": 40.32250000000931,
      "v": 39
    },
    {
      "midi": 98,
      "hit": false,
      "t": 192580.26000001354,
      "d": 10.080625000002328,
      "v": 78
    },
    {
      "midi": 82,
      "hit": false,
      "t": 192580.26000001354,
      "d": 10.080625000002328,
      "v": 102
    },
    {
      "midi": 57,
      "hit": false,
      "t": 192580.26000001354,
      "d": 10.080625000002328,
      "v": 54
    },
    {
      "midi": 42,
      "hit": false,
      "t": 192580.26000001354,
      "d": 65.52406250001513,
      "v": 93
    },
    {
      "midi": 35,
      "hit": false,
      "t": 192580.26000001354,
      "d": 90.72562500002095,
      "v": 86
    },
    {
      "midi": 38,
      "hit": false,
      "t": 192580.26000001354,
      "d": 317.53968750007334,
      "v": 105
    },
    {
      "midi": 60,
      "hit": false,
      "t": 192585.30031251354,
      "d": 5.040312500001164,
      "v": 49
    },
    {
      "midi": 67,
      "hit": false,
      "t": 192590.34062501354,
      "d": 10.080625000002328,
      "v": 57
    },
    {
      "midi": 98,
      "hit": false,
      "t": 192701.22750001357,
      "d": 5.040312500001164,
      "v": 41
    },
    {
      "midi": 82,
      "hit": false,
      "t": 192701.22750001357,
      "d": 5.040312500001164,
      "v": 51
    },
    {
      "midi": 54,
      "hit": false,
      "t": 192721.38875001358,
      "d": 40.32250000000931,
      "v": 34
    },
    {
      "midi": 82,
      "hit": false,
      "t": 192822.1950000136,
      "d": 10.080625000002328,
      "v": 60
    },
    {
      "midi": 57,
      "hit": false,
      "t": 192822.1950000136,
      "d": 10.080625000002328,
      "v": 49
    },
    {
      "midi": 42,
      "hit": false,
      "t": 192822.1950000136,
      "d": 60.48375000001397,
      "v": 87
    },
    {
      "midi": 62,
      "hit": false,
      "t": 192822.1950000136,
      "d": 75.60468750001746,
      "v": 61
    },
    {
      "midi": 66,
      "hit": false,
      "t": 192822.1950000136,
      "d": 216.73343750005006,
      "v": 104
    },
    {
      "midi": 60,
      "hit": false,
      "t": 192827.2353125136,
      "d": 25.20156250000582,
      "v": 47
    },
    {
      "midi": 67,
      "hit": false,
      "t": 192832.2756250136,
      "d": 10.080625000002328,
      "v": 54
    },
    {
      "midi": 54,
      "hit": false,
      "t": 192842.3562500136,
      "d": 70.5643750000163,
      "v": 93
    },
    {
      "midi": 33,
      "hit": false,
      "t": 192943.16250001363,
      "d": 95.76593750002212,
      "v": 102
    },
    {
      "midi": 98,
      "hit": false,
      "t": 192948.20281251363,
      "d": 10.080625000002328,
      "v": 45
    },
    {
      "midi": 82,
      "hit": false,
      "t": 192948.20281251363,
      "d": 10.080625000002328,
      "v": 58
    },
    {
      "midi": 54,
      "hit": false,
      "t": 192963.32375001363,
      "d": 40.32250000000931,
      "v": 31
    },
    {
      "midi": 98,
      "hit": false,
      "t": 193064.13000001365,
      "d": 10.080625000002328,
      "v": 84
    },
    {
      "midi": 82,
      "hit": false,
      "t": 193064.13000001365,
      "d": 10.080625000002328,
      "v": 108
    },
    {
      "midi": 40,
      "hit": false,
      "t": 193064.13000001365,
      "d": 65.52406250001513,
      "v": 94
    },
    {
      "midi": 57,
      "hit": false,
      "t": 193064.13000001365,
      "d": 65.52406250001513,
      "v": 57
    },
    {
      "midi": 42,
      "hit": false,
      "t": 193064.13000001365,
      "d": 80.64500000001863,
      "v": 93
    },
    {
      "midi": 62,
      "hit": false,
      "t": 193064.13000001365,
      "d": 181.4512500000419,
      "v": 56
    },
    {
      "midi": 60,
      "hit": false,
      "t": 193069.17031251366,
      "d": 70.5643750000163,
      "v": 59
    },
    {
      "midi": 36,
      "hit": false,
      "t": 193069.17031251366,
      "d": 216.73343750005006,
      "v": 102
    },
    {
      "midi": 67,
      "hit": false,
      "t": 193074.21062501366,
      "d": 70.5643750000163,
      "v": 59
    },
    {
      "midi": 39,
      "hit": false,
      "t": 193084.29125001366,
      "d": 70.5643750000163,
      "v": 76
    },
    {
      "midi": 98,
      "hit": false,
      "t": 193185.09750001368,
      "d": 5.040312500001164,
      "v": 35
    },
    {
      "midi": 82,
      "hit": false,
      "t": 193185.09750001368,
      "d": 5.040312500001164,
      "v": 43
    },
    {
      "midi": 57,
      "hit": false,
      "t": 193185.09750001368,
      "d": 40.32250000000931,
      "v": 44
    },
    {
      "midi": 60,
      "hit": false,
      "t": 193190.13781251368,
      "d": 70.5643750000163,
      "v": 38
    },
    {
      "midi": 67,
      "hit": false,
      "t": 193195.17812501368,
      "d": 60.48375000001397,
      "v": 45
    },
    {
      "midi": 54,
      "hit": false,
      "t": 193205.2587500137,
      "d": 40.32250000000931,
      "v": 39
    },
    {
      "midi": 82,
      "hit": false,
      "t": 193306.0650000137,
      "d": 10.080625000002328,
      "v": 66
    },
    {
      "midi": 42,
      "hit": false,
      "t": 193306.0650000137,
      "d": 55.443437500012806,
      "v": 82
    },
    {
      "midi": 54,
      "hit": false,
      "t": 193306.0650000137,
      "d": 85.68531250001979,
      "v": 50
    },
    {
      "midi": 69,
      "hit": false,
      "t": 193306.0650000137,
      "d": 216.73343750005006,
      "v": 104
    },
    {
      "midi": 38,
      "hit": false,
      "t": 193306.0650000137,
      "d": 236.89468750005472,
      "v": 105
    },
    {
      "midi": 57,
      "hit": false,
      "t": 193427.03250001374,
      "d": 10.080625000002328,
      "v": 47
    },
    {
      "midi": 60,
      "hit": false,
      "t": 193432.07281251374,
      "d": 5.040312500001164,
      "v": 45
    },
    {
      "midi": 98,
      "hit": false,
      "t": 193432.07281251374,
      "d": 10.080625000002328,
      "v": 49
    },
    {
      "midi": 82,
      "hit": false,
      "t": 193432.07281251374,
      "d": 10.080625000002328,
      "v": 64
    },
    {
      "midi": 67,
      "hit": false,
      "t": 193437.11312501374,
      "d": 10.080625000002328,
      "v": 47
    },
    {
      "midi": 54,
      "hit": false,
      "t": 193447.19375001374,
      "d": 40.32250000000931,
      "v": 40
    },
    {
      "midi": 98,
      "hit": false,
      "t": 193548.00000001377,
      "d": 10.080625000002328,
      "v": 78
    },
    {
      "midi": 82,
      "hit": false,
      "t": 193548.00000001377,
      "d": 10.080625000002328,
      "v": 102
    },
    {
      "midi": 55,
      "hit": false,
      "t": 193548.00000001377,
      "d": 60.48375000001397,
      "v": 60
    },
    {
      "midi": 42,
      "hit": false,
      "t": 193548.00000001377,
      "d": 70.5643750000163,
      "v": 95
    },
    {
      "midi": 35,
      "hit": false,
      "t": 193548.00000001377,
      "d": 90.72562500002095,
      "v": 87
    },
    {
      "midi": 31,
      "hit": false,
      "t": 193548.00000001377,
      "d": 372.98312500008615,
      "v": 102
    },
    {
      "midi": 64,
      "hit": false,
      "t": 193548.00000001377,
      "d": 650.2003125001502,
      "v": 104
    },
    {
      "midi": 59,
      "hit": false,
      "t": 193553.04031251377,
      "d": 65.52406250001513,
      "v": 67
    },
    {
      "midi": 62,
      "hit": false,
      "t": 193558.08062501377,
      "d": 60.48375000001397,
      "v": 60
    },
    {
      "midi": 98,
      "hit": false,
      "t": 193668.9675000138,
      "d": 5.040312500001164,
      "v": 41
    },
    {
      "midi": 82,
      "hit": false,
      "t": 193668.9675000138,
      "d": 5.040312500001164,
      "v": 51
    },
    {
      "midi": 55,
      "hit": false,
      "t": 193668.9675000138,
      "d": 10.080625000002328,
      "v": 41
    },
    {
      "midi": 59,
      "hit": false,
      "t": 193674.0078125138,
      "d": 5.040312500001164,
      "v": 55
    },
    {
      "midi": 62,
      "hit": false,
      "t": 193679.0481250138,
      "d": 10.080625000002328,
      "v": 56
    },
    {
      "midi": 54,
      "hit": false,
      "t": 193689.1287500138,
      "d": 40.32250000000931,
      "v": 34
    },
    {
      "midi": 82,
      "hit": false,
      "t": 193789.93500001382,
      "d": 10.080625000002328,
      "v": 60
    },
    {
      "midi": 42,
      "hit": false,
      "t": 193789.93500001382,
      "d": 55.443437500012806,
      "v": 82
    },
    {
      "midi": 54,
      "hit": false,
      "t": 193789.93500001382,
      "d": 70.5643750000163,
      "v": 94
    },
    {
      "midi": 55,
      "hit": false,
      "t": 193910.90250001385,
      "d": 45.36281250001048,
      "v": 22
    },
    {
      "midi": 98,
      "hit": false,
      "t": 193915.94281251385,
      "d": 10.080625000002328,
      "v": 45
    },
    {
      "midi": 82,
      "hit": false,
      "t": 193915.94281251385,
      "d": 10.080625000002328,
      "v": 58
    },
    {
      "midi": 59,
      "hit": false,
      "t": 193915.94281251385,
      "d": 35.28218750000815,
      "v": 32
    },
    {
      "midi": 62,
      "hit": false,
      "t": 193920.98312501385,
      "d": 40.32250000000931,
      "v": 26
    },
    {
      "midi": 54,
      "hit": false,
      "t": 193931.06375001385,
      "d": 40.32250000000931,
      "v": 40
    },
    {
      "midi": 98,
      "hit": false,
      "t": 194031.87000001388,
      "d": 10.080625000002328,
      "v": 84
    },
    {
      "midi": 82,
      "hit": false,
      "t": 194031.87000001388,
      "d": 10.080625000002328,
      "v": 108
    },
    {
      "midi": 55,
      "hit": false,
      "t": 194031.87000001388,
      "d": 10.080625000002328,
      "v": 54
    },
    {
      "midi": 42,
      "hit": false,
      "t": 194031.87000001388,
      "d": 75.60468750001746,
      "v": 93
    },
    {
      "midi": 40,
      "hit": false,
      "t": 194031.87000001388,
      "d": 75.60468750001746,
      "v": 94
    },
    {
      "midi": 38,
      "hit": false,
      "t": 194031.87000001388,
      "d": 393.1443750000908,
      "v": 105
    },
    {
      "midi": 59,
      "hit": false,
      "t": 194036.91031251388,
      "d": 5.040312500001164,
      "v": 49
    },
    {
      "midi": 62,
      "hit": false,
      "t": 194041.95062501388,
      "d": 10.080625000002328,
      "v": 49
    },
    {
      "midi": 98,
      "hit": false,
      "t": 194152.8375000139,
      "d": 5.040312500001164,
      "v": 35
    },
    {
      "midi": 82,
      "hit": false,
      "t": 194152.8375000139,
      "d": 5.040312500001164,
      "v": 43
    },
    {
      "midi": 54,
      "hit": false,
      "t": 194172.9987500139,
      "d": 40.32250000000931,
      "v": 39
    },
    {
      "midi": 82,
      "hit": false,
      "t": 194273.80500001393,
      "d": 10.080625000002328,
      "v": 66
    },
    {
      "midi": 55,
      "hit": false,
      "t": 194273.80500001393,
      "d": 40.32250000000931,
      "v": 22
    },
    {
      "midi": 42,
      "hit": false,
      "t": 194273.80500001393,
      "d": 50.40312500001164,
      "v": 73
    },
    {
      "midi": 54,
      "hit": false,
      "t": 194273.80500001393,
      "d": 85.68531250001979,
      "v": 47
    },
    {
      "midi": 59,
      "hit": false,
      "t": 194278.84531251393,
      "d": 40.32250000000931,
      "v": 26
    },
    {
      "midi": 62,
      "hit": false,
      "t": 194283.88562501394,
      "d": 45.36281250001048,
      "v": 22
    },
    {
      "midi": 55,
      "hit": false,
      "t": 194394.77250001396,
      "d": 70.5643750000163,
      "v": 62
    },
    {
      "midi": 98,
      "hit": false,
      "t": 194399.81281251396,
      "d": 10.080625000002328,
      "v": 49
    },
    {
      "midi": 82,
      "hit": false,
      "t": 194399.81281251396,
      "d": 10.080625000002328,
      "v": 64
    },
    {
      "midi": 59,
      "hit": false,
      "t": 194399.81281251396,
      "d": 85.68531250001979,
      "v": 58
    },
    {
      "midi": 62,
      "hit": false,
      "t": 194404.85312501396,
      "d": 75.60468750001746,
      "v": 68
    },
    {
      "midi": 54,
      "hit": false,
      "t": 194414.93375001397,
      "d": 40.32250000000931,
      "v": 39
    },
    {
      "midi": 98,
      "hit": false,
      "t": 194515.740000014,
      "d": 10.080625000002328,
      "v": 78
    },
    {
      "midi": 82,
      "hit": false,
      "t": 194515.740000014,
      "d": 10.080625000002328,
      "v": 102
    },
    {
      "midi": 55,
      "hit": false,
      "t": 194515.740000014,
      "d": 10.080625000002328,
      "v": 41
    },
    {
      "midi": 42,
      "hit": false,
      "t": 194515.740000014,
      "d": 55.443437500012806,
      "v": 87
    },
    {
      "midi": 35,
      "hit": false,
      "t": 194515.740000014,
      "d": 95.76593750002212,
      "v": 87
    },
    {
      "midi": 31,
      "hit": false,
      "t": 194515.740000014,
      "d": 357.86218750008265,
      "v": 105
    },
    {
      "midi": 59,
      "hit": false,
      "t": 194520.780312514,
      "d": 5.040312500001164,
      "v": 47
    },
    {
      "midi": 62,
      "hit": false,
      "t": 194525.820625014,
      "d": 10.080625000002328,
      "v": 54
    },
    {
      "midi": 98,
      "hit": false,
      "t": 194636.70750001402,
      "d": 5.040312500001164,
      "v": 41
    },
    {
      "midi": 82,
      "hit": false,
      "t": 194636.70750001402,
      "d": 5.040312500001164,
      "v": 51
    },
    {
      "midi": 54,
      "hit": false,
      "t": 194656.86875001402,
      "d": 40.32250000000931,
      "v": 34
    },
    {
      "midi": 82,
      "hit": false,
      "t": 194757.67500001405,
      "d": 10.080625000002328,
      "v": 60
    },
    {
      "midi": 55,
      "hit": false,
      "t": 194757.67500001405,
      "d": 10.080625000002328,
      "v": 55
    },
    {
      "midi": 42,
      "hit": false,
      "t": 194757.67500001405,
      "d": 50.40312500001164,
      "v": 82
    },
    {
      "midi": 59,
      "hit": false,
      "t": 194762.71531251405,
      "d": 10.080625000002328,
      "v": 49
    },
    {
      "midi": 62,
      "hit": false,
      "t": 194767.75562501405,
      "d": 10.080625000002328,
      "v": 49
    },
    {
      "midi": 54,
      "hit": false,
      "t": 194777.83625001405,
      "d": 70.5643750000163,
      "v": 93
    },
    {
      "midi": 98,
      "hit": false,
      "t": 194883.68281251407,
      "d": 10.080625000002328,
      "v": 45
    },
    {
      "midi": 82,
      "hit": false,
      "t": 194883.68281251407,
      "d": 10.080625000002328,
      "v": 58
    },
    {
      "midi": 54,
      "hit": false,
      "t": 194898.80375001408,
      "d": 40.32250000000931,
      "v": 31
    },
    {
      "midi": 35,
      "hit": false,
      "t": 194994.5696875141,
      "d": 171.37062500003958,
      "v": 102
    },
    {
      "midi": 98,
      "hit": false,
      "t": 194999.6100000141,
      "d": 10.080625000002328,
      "v": 84
    },
    {
      "midi": 82,
      "hit": false,
      "t": 194999.6100000141,
      "d": 10.080625000002328,
      "v": 108
    },
    {
      "midi": 55,
      "hit": false,
      "t": 194999.6100000141,
      "d": 55.443437500012806,
      "v": 59
    },
    {
      "midi": 42,
      "hit": false,
      "t": 194999.6100000141,
      "d": 60.48375000001397,
      "v": 87
    },
    {
      "midi": 40,
      "hit": false,
      "t": 194999.6100000141,
      "d": 60.48375000001397,
      "v": 94
    },
    {
      "midi": 59,
      "hit": false,
      "t": 195004.6503125141,
      "d": 65.52406250001513,
      "v": 58
    },
    {
      "midi": 62,
      "hit": false,
      "t": 195009.6906250141,
      "d": 60.48375000001397,
      "v": 58
    },
    {
      "midi": 39,
      "hit": false,
      "t": 195019.7712500141,
      "d": 70.5643750000163,
      "v": 76
    },
    {
      "midi": 98,
      "hit": false,
      "t": 195120.57750001413,
      "d": 5.040312500001164,
      "v": 35
    },
    {
      "midi": 82,
      "hit": false,
      "t": 195120.57750001413,
      "d": 5.040312500001164,
      "v": 43
    },
    {
      "midi": 55,
      "hit": false,
      "t": 195120.57750001413,
      "d": 60.48375000001397,
      "v": 40
    },
    {
      "midi": 59,
      "hit": false,
      "t": 195125.61781251413,
      "d": 65.52406250001513,
      "v": 38
    },
    {
      "midi": 62,
      "hit": false,
      "t": 195130.65812501413,
      "d": 35.28218750000815,
      "v": 38
    },
    {
      "midi": 54,
      "hit": false,
      "t": 195140.73875001413,
      "d": 40.32250000000931,
      "v": 39
    },
    {
      "midi": 38,
      "hit": false,
      "t": 195236.50468751416,
      "d": 196.5721875000454,
      "v": 97
    },
    {
      "midi": 82,
      "hit": false,
      "t": 195241.54500001416,
      "d": 10.080625000002328,
      "v": 66
    },
    {
      "midi": 42,
      "hit": false,
      "t": 195241.54500001416,
      "d": 50.40312500001164,
      "v": 75
    },
    {
      "midi": 54,
      "hit": false,
      "t": 195241.54500001416,
      "d": 85.68531250001979,
      "v": 50
    },
    {
      "midi": 50,
      "hit": false,
      "t": 195241.54500001416,
      "d": 216.73343750005006,
      "v": 104
    },
    {
      "midi": 55,
      "hit": false,
      "t": 195362.51250001419,
      "d": 10.080625000002328,
      "v": 49
    },
    {
      "midi": 98,
      "hit": false,
      "t": 195367.5528125142,
      "d": 10.080625000002328,
      "v": 49
    },
    {
      "midi": 82,
      "hit": false,
      "t": 195367.5528125142,
      "d": 10.080625000002328,
      "v": 64
    },
    {
      "midi": 59,
      "hit": false,
      "t": 195367.5528125142,
      "d": 25.20156250000582,
      "v": 54
    },
    {
      "midi": 62,
      "hit": false,
      "t": 195372.5931250142,
      "d": 10.080625000002328,
      "v": 57
    },
    {
      "midi": 54,
      "hit": false,
      "t": 195382.6737500142,
      "d": 40.32250000000931,
      "v": 40
    },
    {
      "midi": 98,
      "hit": false,
      "t": 195483.4800000142,
      "d": 10.080625000002328,
      "v": 78
    },
    {
      "midi": 82,
      "hit": false,
      "t": 195483.4800000142,
      "d": 10.080625000002328,
      "v": 102
    },
    {
      "midi": 42,
      "hit": false,
      "t": 195483.4800000142,
      "d": 45.36281250001048,
      "v": 95
    },
    {
      "midi": 35,
      "hit": false,
      "t": 195483.4800000142,
      "d": 105.84656250002445,
      "v": 87
    },
    {
      "midi": 53,
      "hit": false,
      "t": 195483.4800000142,
      "d": 115.92718750002678,
      "v": 93
    },
    {
      "midi": 55,
      "hit": false,
      "t": 195483.4800000142,
      "d": 241.93500000005588,
      "v": 104
    },
    {
      "midi": 31,
      "hit": false,
      "t": 195483.4800000142,
      "d": 317.53968750007334,
      "v": 102
    },
    {
      "midi": 74,
      "hit": false,
      "t": 195483.4800000142,
      "d": 1935.480000000418,
      "v": 47
    },
    {
      "midi": 98,
      "hit": false,
      "t": 195604.44750001424,
      "d": 5.040312500001164,
      "v": 41
    },
    {
      "midi": 82,
      "hit": false,
      "t": 195604.44750001424,
      "d": 5.040312500001164,
      "v": 51
    },
    {
      "midi": 59,
      "hit": false,
      "t": 195604.44750001424,
      "d": 10.080625000002328,
      "v": 69
    },
    {
      "midi": 62,
      "hit": false,
      "t": 195604.44750001424,
      "d": 15.120937500003492,
      "v": 86
    },
    {
      "midi": 65,
      "hit": false,
      "t": 195619.56843751424,
      "d": 15.120937500003492,
      "v": 94
    },
    {
      "midi": 54,
      "hit": false,
      "t": 195624.60875001425,
      "d": 40.32250000000931,
      "v": 34
    },
    {
      "midi": 82,
      "hit": false,
      "t": 195725.41500001427,
      "d": 10.080625000002328,
      "v": 60
    },
    {
      "midi": 42,
      "hit": false,
      "t": 195725.41500001427,
      "d": 40.32250000000931,
      "v": 82
    },
    {
      "midi": 53,
      "hit": false,
      "t": 195725.41500001427,
      "d": 45.36281250001048,
      "v": 93
    },
    {
      "midi": 54,
      "hit": false,
      "t": 195725.41500001427,
      "d": 70.5643750000163,
      "v": 94
    },
    {
      "midi": 59,
      "hit": false,
      "t": 195735.49562501427,
      "d": 65.52406250001513,
      "v": 72
    },
    {
      "midi": 65,
      "hit": false,
      "t": 195740.53593751427,
      "d": 75.60468750001746,
      "v": 91
    },
    {
      "midi": 62,
      "hit": false,
      "t": 195745.57625001427,
      "d": 55.443437500012806,
      "v": 82
    },
    {
      "midi": 62,
      "hit": false,
      "t": 195846.3825000143,
      "d": 15.120937500003492,
      "v": 97
    },
    {
      "midi": 59,
      "hit": false,
      "t": 195846.3825000143,
      "d": 15.120937500003492,
      "v": 78
    },
    {
      "midi": 31,
      "hit": false,
      "t": 195846.3825000143,
      "d": 90.72562500002095,
      "v": 102
    },
    {
      "midi": 98,
      "hit": false,
      "t": 195851.4228125143,
      "d": 10.080625000002328,
      "v": 45
    },
    {
      "midi": 82,
      "hit": false,
      "t": 195851.4228125143,
      "d": 10.080625000002328,
      "v": 58
    },
    {
      "midi": 65,
      "hit": false,
      "t": 195861.5034375143,
      "d": 15.120937500003492,
      "v": 81
    },
    {
      "midi": 54,
      "hit": false,
      "t": 195866.5437500143,
      "d": 40.32250000000931,
      "v": 40
    },
    {
      "midi": 98,
      "hit": false,
      "t": 195967.35000001432,
      "d": 10.080625000002328,
      "v": 84
    },
    {
      "midi": 82,
      "hit": false,
      "t": 195967.35000001432,
      "d": 10.080625000002328,
      "v": 108
    },
    {
      "midi": 62,
      "hit": false,
      "t": 195967.35000001432,
      "d": 15.120937500003492,
      "v": 92
    },
    {
      "midi": 59,
      "hit": false,
      "t": 195967.35000001432,
      "d": 15.120937500003492,
      "v": 89
    },
    {
      "midi": 42,
      "hit": false,
      "t": 195967.35000001432,
      "d": 65.52406250001513,
      "v": 98
    },
    {
      "midi": 40,
      "hit": false,
      "t": 195967.35000001432,
      "d": 70.5643750000163,
      "v": 94
    },
    {
      "midi": 35,
      "hit": false,
      "t": 195967.35000001432,
      "d": 211.6931250000489,
      "v": 102
    },
    {
      "midi": 71,
      "hit": false,
      "t": 195967.35000001432,
      "d": 433.4668750001001,
      "v": 104
    },
    {
      "midi": 65,
      "hit": false,
      "t": 195982.47093751433,
      "d": 15.120937500003492,
      "v": 87
    },
    {
      "midi": 98,
      "hit": false,
      "t": 196088.31750001435,
      "d": 5.040312500001164,
      "v": 35
    },
    {
      "midi": 82,
      "hit": false,
      "t": 196088.31750001435,
      "d": 5.040312500001164,
      "v": 43
    },
    {
      "midi": 53,
      "hit": false,
      "t": 196088.31750001435,
      "d": 50.40312500001164,
      "v": 87
    },
    {
      "midi": 59,
      "hit": false,
      "t": 196098.39812501436,
      "d": 65.52406250001513,
      "v": 80
    },
    {
      "midi": 65,
      "hit": false,
      "t": 196103.43843751436,
      "d": 75.60468750001746,
      "v": 68
    },
    {
      "midi": 54,
      "hit": false,
      "t": 196108.47875001436,
      "d": 40.32250000000931,
      "v": 39
    },
    {
      "midi": 62,
      "hit": false,
      "t": 196108.47875001436,
      "d": 55.443437500012806,
      "v": 79
    },
    {
      "midi": 82,
      "hit": false,
      "t": 196209.28500001438,
      "d": 10.080625000002328,
      "v": 66
    },
    {
      "midi": 62,
      "hit": false,
      "t": 196209.28500001438,
      "d": 15.120937500003492,
      "v": 98
    },
    {
      "midi": 59,
      "hit": false,
      "t": 196209.28500001438,
      "d": 15.120937500003492,
      "v": 80
    },
    {
      "midi": 42,
      "hit": false,
      "t": 196209.28500001438,
      "d": 40.32250000000931,
      "v": 82
    },
    {
      "midi": 54,
      "hit": false,
      "t": 196209.28500001438,
      "d": 85.68531250001979,
      "v": 47
    },
    {
      "midi": 38,
      "hit": false,
      "t": 196209.28500001438,
      "d": 171.37062500003958,
      "v": 102
    },
    {
      "midi": 55,
      "hit": false,
      "t": 196209.28500001438,
      "d": 216.73343750005006,
      "v": 104
    },
    {
      "midi": 53,
      "hit": false,
      "t": 196209.28500001438,
      "d": 216.73343750005006,
      "v": 104
    },
    {
      "midi": 65,
      "hit": false,
      "t": 196224.40593751438,
      "d": 15.120937500003492,
      "v": 78
    },
    {
      "midi": 62,
      "hit": false,
      "t": 196330.2525000144,
      "d": 15.120937500003492,
      "v": 91
    },
    {
      "midi": 59,
      "hit": false,
      "t": 196330.2525000144,
      "d": 15.120937500003492,
      "v": 85
    },
    {
      "midi": 31,
      "hit": false,
      "t": 196335.2928125144,
      "d": 5.040312500001164,
      "v": 35
    },
    {
      "midi": 98,
      "hit": false,
      "t": 196335.2928125144,
      "d": 10.080625000002328,
      "v": 49
    },
    {
      "midi": 82,
      "hit": false,
      "t": 196335.2928125144,
      "d": 10.080625000002328,
      "v": 64
    },
    {
      "midi": 65,
      "hit": false,
      "t": 196345.3734375144,
      "d": 15.120937500003492,
      "v": 98
    },
    {
      "midi": 54,
      "hit": false,
      "t": 196350.4137500144,
      "d": 40.32250000000931,
      "v": 39
    },
    {
      "midi": 98,
      "hit": false,
      "t": 196451.22000001444,
      "d": 10.080625000002328,
      "v": 78
    },
    {
      "midi": 82,
      "hit": false,
      "t": 196451.22000001444,
      "d": 10.080625000002328,
      "v": 102
    },
    {
      "midi": 53,
      "hit": false,
      "t": 196451.22000001444,
      "d": 45.36281250001048,
      "v": 86
    },
    {
      "midi": 42,
      "hit": false,
      "t": 196451.22000001444,
      "d": 60.48375000001397,
      "v": 98
    },
    {
      "midi": 35,
      "hit": false,
      "t": 196451.22000001444,
      "d": 90.72562500002095,
      "v": 86
    },
    {
      "midi": 43,
      "hit": false,
      "t": 196451.22000001444,
      "d": 282.2575000000652,
      "v": 102
    },
    {
      "midi": 69,
      "hit": false,
      "t": 196451.22000001444,
      "d": 433.4668750001001,
      "v": 104
    },
    {
      "midi": 59,
      "hit": false,
      "t": 196461.30062501444,
      "d": 70.5643750000163,
      "v": 80
    },
    {
      "midi": 65,
      "hit": false,
      "t": 196461.30062501444,
      "d": 95.76593750002212,
      "v": 95
    },
    {
      "midi": 62,
      "hit": false,
      "t": 196471.38125001444,
      "d": 85.68531250001979,
      "v": 81
    },
    {
      "midi": 98,
      "hit": false,
      "t": 196572.18750001446,
      "d": 5.040312500001164,
      "v": 41
    },
    {
      "midi": 82,
      "hit": false,
      "t": 196572.18750001446,
      "d": 5.040312500001164,
      "v": 51
    },
    {
      "midi": 31,
      "hit": false,
      "t": 196577.22781251447,
      "d": 5.040312500001164,
      "v": 35
    },
    {
      "midi": 54,
      "hit": false,
      "t": 196592.34875001447,
      "d": 40.32250000000931,
      "v": 34
    },
    {
      "midi": 82,
      "hit": false,
      "t": 196693.1550000145,
      "d": 10.080625000002328,
      "v": 60
    },
    {
      "midi": 42,
      "hit": false,
      "t": 196693.1550000145,
      "d": 40.32250000000931,
      "v": 73
    },
    {
      "midi": 59,
      "hit": false,
      "t": 196693.1550000145,
      "d": 95.76593750002212,
      "v": 95
    },
    {
      "midi": 46,
      "hit": false,
      "t": 196698.1953125145,
      "d": 5.040312500001164,
      "v": 68
    },
    {
      "midi": 65,
      "hit": false,
      "t": 196703.2356250145,
      "d": 95.76593750002212,
      "v": 75
    },
    {
      "midi": 62,
      "hit": false,
      "t": 196708.2759375145,
      "d": 95.76593750002212,
      "v": 87
    },
    {
      "midi": 54,
      "hit": false,
      "t": 196713.3162500145,
      "d": 70.5643750000163,
      "v": 93
    },
    {
      "midi": 31,
      "hit": false,
      "t": 196814.12250001452,
      "d": 90.72562500002095,
      "v": 97
    },
    {
      "midi": 53,
      "hit": false,
      "t": 196814.12250001452,
      "d": 327.62031250007567,
      "v": 90
    },
    {
      "midi": 98,
      "hit": false,
      "t": 196819.16281251452,
      "d": 10.080625000002328,
      "v": 45
    },
    {
      "midi": 82,
      "hit": false,
      "t": 196819.16281251452,
      "d": 10.080625000002328,
      "v": 58
    },
    {
      "midi": 54,
      "hit": false,
      "t": 196834.28375001453,
      "d": 40.32250000000931,
      "v": 31
    },
    {
      "midi": 98,
      "hit": false,
      "t": 196935.09000001455,
      "d": 10.080625000002328,
      "v": 84
    },
    {
      "midi": 82,
      "hit": false,
      "t": 196935.09000001455,
      "d": 10.080625000002328,
      "v": 108
    },
    {
      "midi": 40,
      "hit": false,
      "t": 196935.09000001455,
      "d": 65.52406250001513,
      "v": 91
    },
    {
      "midi": 59,
      "hit": false,
      "t": 196935.09000001455,
      "d": 95.76593750002212,
      "v": 70
    },
    {
      "midi": 35,
      "hit": false,
      "t": 196935.09000001455,
      "d": 216.73343750005006,
      "v": 102
    },
    {
      "midi": 50,
      "hit": false,
      "t": 196935.09000001455,
      "d": 433.466875000071,
      "v": 104
    },
    {
      "midi": 67,
      "hit": false,
      "t": 196935.09000001455,
      "d": 433.466875000071,
      "v": 104
    },
    {
      "midi": 44,
      "hit": false,
      "t": 196940.13031251455,
      "d": 5.040312500001164,
      "v": 42
    },
    {
      "midi": 65,
      "hit": false,
      "t": 196945.17062501455,
      "d": 95.76593750002212,
      "v": 95
    },
    {
      "midi": 62,
      "hit": false,
      "t": 196950.21093751455,
      "d": 95.76593750002212,
      "v": 79
    },
    {
      "midi": 39,
      "hit": false,
      "t": 196955.25125001455,
      "d": 70.5643750000163,
      "v": 76
    },
    {
      "midi": 40,
      "hit": false,
      "t": 197056.05750001458,
      "d": 5.040312500001164,
      "v": 68
    },
    {
      "midi": 98,
      "hit": false,
      "t": 197056.05750001458,
      "d": 5.040312500001164,
      "v": 35
    },
    {
      "midi": 82,
      "hit": false,
      "t": 197056.05750001458,
      "d": 5.040312500001164,
      "v": 43
    },
    {
      "midi": 59,
      "hit": false,
      "t": 197056.05750001458,
      "d": 95.76593750002212,
      "v": 95
    },
    {
      "midi": 65,
      "hit": false,
      "t": 197066.13812501458,
      "d": 95.76593750002212,
      "v": 75
    },
    {
      "midi": 62,
      "hit": false,
      "t": 197071.17843751458,
      "d": 90.72562500002095,
      "v": 87
    },
    {
      "midi": 54,
      "hit": false,
      "t": 197076.21875001458,
      "d": 40.32250000000931,
      "v": 39
    },
    {
      "midi": 47,
      "hit": false,
      "t": 197177.0250000146,
      "d": 5.040312500001164,
      "v": 82
    },
    {
      "midi": 82,
      "hit": false,
      "t": 197177.0250000146,
      "d": 10.080625000002328,
      "v": 66
    },
    {
      "midi": 54,
      "hit": false,
      "t": 197177.0250000146,
      "d": 85.68531249999069,
      "v": 50
    },
    {
      "midi": 38,
      "hit": false,
      "t": 197177.0250000146,
      "d": 141.1287500000035,
      "v": 97
    },
    {
      "midi": 45,
      "hit": false,
      "t": 197297.9925000146,
      "d": 5.040312500001164,
      "v": 78
    },
    {
      "midi": 53,
      "hit": false,
      "t": 197297.9925000146,
      "d": 15.120937500003492,
      "v": 77
    },
    {
      "midi": 98,
      "hit": false,
      "t": 197303.0328125146,
      "d": 10.080625000002328,
      "v": 49
    },
    {
      "midi": 82,
      "hit": false,
      "t": 197303.0328125146,
      "d": 10.080625000002328,
      "v": 64
    },
    {
      "midi": 59,
      "hit": false,
      "t": 197308.0731250146,
      "d": 15.120937500003492,
      "v": 69
    },
    {
      "midi": 62,
      "hit": false,
      "t": 197318.1537500146,
      "d": 20.161250000004657,
      "v": 73
    },
    {
      "midi": 54,
      "hit": false,
      "t": 197318.1537500146,
      "d": 40.32250000000931,
      "v": 40
    },
    {
      "midi": 49,
      "hit": false,
      "t": 197413.91968751463,
      "d": 5.040312500001164,
      "v": 79
    },
    {
      "midi": 98,
      "hit": false,
      "t": 197418.96000001463,
      "d": 10.080625000002328,
      "v": 78
    },
    {
      "midi": 82,
      "hit": false,
      "t": 197418.96000001463,
      "d": 10.080625000002328,
      "v": 102
    },
    {
      "midi": 42,
      "hit": false,
      "t": 197418.96000001463,
      "d": 45.36281250001048,
      "v": 95
    },
    {
      "midi": 55,
      "hit": false,
      "t": 197418.96000001463,
      "d": 50.40312500001164,
      "v": 58
    },
    {
      "midi": 60,
      "hit": false,
      "t": 197418.96000001463,
      "d": 60.48375000001397,
      "v": 53
    },
    {
      "midi": 35,
      "hit": false,
      "t": 197418.96000001463,
      "d": 105.84656250002445,
      "v": 87
    },
    {
      "midi": 52,
      "hit": false,
      "t": 197418.96000001463,
      "d": 241.93500000005588,
      "v": 104
    },
    {
      "midi": 48,
      "hit": false,
      "t": 197418.96000001463,
      "d": 241.93500000005588,
      "v": 104
    },
    {
      "midi": 36,
      "hit": false,
      "t": 197418.96000001463,
      "d": 307.459062500071,
      "v": 105
    },
    {
      "midi": 71,
      "hit": false,
      "t": 197418.96000001463,
      "d": 322.5800000000745,
      "v": 47
    },
    {
      "midi": 67,
      "hit": false,
      "t": 197418.96000001463,
      "d": 1935.480000000447,
      "v": 47
    },
    {
      "midi": 59,
      "hit": false,
      "t": 197424.00031251463,
      "d": 40.32250000000931,
      "v": 54
    },
    {
      "midi": 64,
      "hit": false,
      "t": 197429.04062501463,
      "d": 65.52406250001513,
      "v": 54
    },
    {
      "midi": 98,
      "hit": false,
      "t": 197539.92750001466,
      "d": 5.040312500001164,
      "v": 41
    },
    {
      "midi": 82,
      "hit": false,
      "t": 197539.92750001466,
      "d": 5.040312500001164,
      "v": 51
    },
    {
      "midi": 55,
      "hit": false,
      "t": 197539.92750001466,
      "d": 10.080625000002328,
      "v": 56
    },
    {
      "midi": 59,
      "hit": false,
      "t": 197544.96781251466,
      "d": 10.080625000002328,
      "v": 54
    },
    {
      "midi": 64,
      "hit": false,
      "t": 197550.00812501466,
      "d": 70.5643750000163,
      "v": 56
    },
    {
      "midi": 54,
      "hit": false,
      "t": 197560.08875001466,
      "d": 40.32250000000931,
      "v": 34
    },
    {
      "midi": 82,
      "hit": false,
      "t": 197660.8950000147,
      "d": 10.080625000002328,
      "v": 60
    },
    {
      "midi": 42,
      "hit": false,
      "t": 197660.8950000147,
      "d": 40.32250000000931,
      "v": 82
    },
    {
      "midi": 54,
      "hit": false,
      "t": 197660.8950000147,
      "d": 70.5643750000163,
      "v": 94
    },
    {
      "midi": 55,
      "hit": false,
      "t": 197781.86250001471,
      "d": 5.040312500001164,
      "v": 22
    },
    {
      "midi": 60,
      "hit": false,
      "t": 197781.86250001471,
      "d": 5.040312500001164,
      "v": 35
    },
    {
      "midi": 36,
      "hit": false,
      "t": 197781.86250001471,
      "d": 90.72562500002095,
      "v": 102
    },
    {
      "midi": 71,
      "hit": false,
      "t": 197781.86250001471,
      "d": 322.5800000000745,
      "v": 104
    },
    {
      "midi": 98,
      "hit": false,
      "t": 197786.90281251472,
      "d": 10.080625000002328,
      "v": 45
    },
    {
      "midi": 82,
      "hit": false,
      "t": 197786.90281251472,
      "d": 10.080625000002328,
      "v": 58
    },
    {
      "midi": 59,
      "hit": false,
      "t": 197786.90281251472,
      "d": 45.36281250001048,
      "v": 29
    },
    {
      "midi": 64,
      "hit": false,
      "t": 197791.94312501472,
      "d": 50.40312500001164,
      "v": 26
    },
    {
      "midi": 54,
      "hit": false,
      "t": 197802.02375001472,
      "d": 40.32250000000931,
      "v": 40
    },
    {
      "midi": 98,
      "hit": false,
      "t": 197902.83000001474,
      "d": 10.080625000002328,
      "v": 84
    },
    {
      "midi": 82,
      "hit": false,
      "t": 197902.83000001474,
      "d": 10.080625000002328,
      "v": 108
    },
    {
      "midi": 55,
      "hit": false,
      "t": 197902.83000001474,
      "d": 25.20156250000582,
      "v": 67
    },
    {
      "midi": 42,
      "hit": false,
      "t": 197902.83000001474,
      "d": 65.52406250001513,
      "v": 98
    },
    {
      "midi": 40,
      "hit": false,
      "t": 197902.83000001474,
      "d": 70.5643750000163,
      "v": 94
    },
    {
      "midi": 60,
      "hit": false,
      "t": 197902.83000001474,
      "d": 70.5643750000163,
      "v": 61
    },
    {
      "midi": 31,
      "hit": false,
      "t": 197902.83000001474,
      "d": 297.3784375000687,
      "v": 105
    },
    {
      "midi": 59,
      "hit": false,
      "t": 197907.87031251474,
      "d": 10.080625000002328,
      "v": 49
    },
    {
      "midi": 64,
      "hit": false,
      "t": 197912.91062501475,
      "d": 10.080625000002328,
      "v": 54
    },
    {
      "midi": 98,
      "hit": false,
      "t": 198023.79750001477,
      "d": 5.040312500001164,
      "v": 35
    },
    {
      "midi": 82,
      "hit": false,
      "t": 198023.79750001477,
      "d": 5.040312500001164,
      "v": 43
    },
    {
      "midi": 54,
      "hit": false,
      "t": 198043.95875001478,
      "d": 40.32250000000931,
      "v": 39
    },
    {
      "midi": 55,
      "hit": false,
      "t": 198144.7650000148,
      "d": 5.040312500001164,
      "v": 22
    },
    {
      "midi": 82,
      "hit": false,
      "t": 198144.7650000148,
      "d": 10.080625000002328,
      "v": 66
    },
    {
      "midi": 42,
      "hit": false,
      "t": 198144.7650000148,
      "d": 40.32250000000931,
      "v": 82
    },
    {
      "midi": 54,
      "hit": false,
      "t": 198144.7650000148,
      "d": 85.68531250001979,
      "v": 47
    },
    {
      "midi": 52,
      "hit": false,
      "t": 198144.7650000148,
      "d": 216.73343750005006,
      "v": 104
    },
    {
      "midi": 48,
      "hit": false,
      "t": 198144.7650000148,
      "d": 216.73343750005006,
      "v": 104
    },
    {
      "midi": 71,
      "hit": false,
      "t": 198144.7650000148,
      "d": 216.73343750005006,
      "v": 104
    },
    {
      "midi": 59,
      "hit": false,
      "t": 198149.8053125148,
      "d": 55.443437500012806,
      "v": 22
    },
    {
      "midi": 64,
      "hit": false,
      "t": 198154.8456250148,
      "d": 50.40312500001164,
      "v": 22
    },
    {
      "midi": 55,
      "hit": false,
      "t": 198265.73250001483,
      "d": 65.52406250001513,
      "v": 65
    },
    {
      "midi": 60,
      "hit": false,
      "t": 198265.73250001483,
      "d": 80.64500000001863,
      "v": 66
    },
    {
      "midi": 31,
      "hit": false,
      "t": 198270.77281251483,
      "d": 5.040312500001164,
      "v": 35
    },
    {
      "midi": 98,
      "hit": false,
      "t": 198270.77281251483,
      "d": 10.080625000002328,
      "v": 49
    },
    {
      "midi": 82,
      "hit": false,
      "t": 198270.77281251483,
      "d": 10.080625000002328,
      "v": 64
    },
    {
      "midi": 59,
      "hit": false,
      "t": 198270.77281251483,
      "d": 65.52406250001513,
      "v": 67
    },
    {
      "midi": 64,
      "hit": false,
      "t": 198275.81312501483,
      "d": 80.64500000001863,
      "v": 55
    },
    {
      "midi": 54,
      "hit": false,
      "t": 198285.89375001483,
      "d": 40.32250000000931,
      "v": 39
    },
    {
      "midi": 98,
      "hit": false,
      "t": 198386.70000001485,
      "d": 10.080625000002328,
      "v": 78
    },
    {
      "midi": 82,
      "hit": false,
      "t": 198386.70000001485,
      "d": 10.080625000002328,
      "v": 102
    },
    {
      "midi": 55,
      "hit": false,
      "t": 198386.70000001485,
      "d": 10.080625000002328,
      "v": 54
    },
    {
      "midi": 42,
      "hit": false,
      "t": 198386.70000001485,
      "d": 60.48375000001397,
      "v": 98
    },
    {
      "midi": 35,
      "hit": false,
      "t": 198386.70000001485,
      "d": 90.72562500002095,
      "v": 86
    },
    {
      "midi": 36,
      "hit": false,
      "t": 198386.70000001485,
      "d": 211.6931250000489,
      "v": 105
    },
    {
      "midi": 71,
      "hit": false,
      "t": 198386.70000001485,
      "d": 322.5800000000745,
      "v": 104
    },
    {
      "midi": 59,
      "hit": false,
      "t": 198391.74031251486,
      "d": 10.080625000002328,
      "v": 41
    },
    {
      "midi": 64,
      "hit": false,
      "t": 198396.78062501486,
      "d": 10.080625000002328,
      "v": 49
    },
    {
      "midi": 31,
      "hit": false,
      "t": 198507.66750001488,
      "d": 5.040312500001164,
      "v": 30
    },
    {
      "midi": 98,
      "hit": false,
      "t": 198507.66750001488,
      "d": 5.040312500001164,
      "v": 41
    },
    {
      "midi": 82,
      "hit": false,
      "t": 198507.66750001488,
      "d": 5.040312500001164,
      "v": 51
    },
    {
      "midi": 59,
      "hit": false,
      "t": 198507.66750001488,
      "d": 50.40312500001164,
      "v": 22
    },
    {
      "midi": 64,
      "hit": false,
      "t": 198512.70781251488,
      "d": 55.443437500012806,
      "v": 22
    },
    {
      "midi": 54,
      "hit": false,
      "t": 198527.8287500149,
      "d": 40.32250000000931,
      "v": 34
    },
    {
      "midi": 82,
      "hit": false,
      "t": 198628.6350000149,
      "d": 10.080625000002328,
      "v": 60
    },
    {
      "midi": 55,
      "hit": false,
      "t": 198628.6350000149,
      "d": 10.080625000002328,
      "v": 55
    },
    {
      "midi": 42,
      "hit": false,
      "t": 198628.6350000149,
      "d": 40.32250000000931,
      "v": 73
    },
    {
      "midi": 60,
      "hit": false,
      "t": 198628.6350000149,
      "d": 70.5643750000163,
      "v": 61
    },
    {
      "midi": 36,
      "hit": false,
      "t": 198628.6350000149,
      "d": 206.65281250004773,
      "v": 105
    },
    {
      "midi": 59,
      "hit": false,
      "t": 198633.6753125149,
      "d": 10.080625000002328,
      "v": 55
    },
    {
      "midi": 64,
      "hit": false,
      "t": 198638.7156250149,
      "d": 25.20156250000582,
      "v": 55
    },
    {
      "midi": 54,
      "hit": false,
      "t": 198648.79625001492,
      "d": 70.5643750000163,
      "v": 93
    },
    {
      "midi": 71,
      "hit": false,
      "t": 198749.60250001494,
      "d": 322.5800000000745,
      "v": 104
    },
    {
      "midi": 98,
      "hit": false,
      "t": 198754.64281251494,
      "d": 10.080625000002328,
      "v": 45
    },
    {
      "midi": 82,
      "hit": false,
      "t": 198754.64281251494,
      "d": 10.080625000002328,
      "v": 58
    },
    {
      "midi": 54,
      "hit": false,
      "t": 198769.76375001494,
      "d": 40.32250000000931,
      "v": 31
    },
    {
      "midi": 98,
      "hit": false,
      "t": 198870.57000001497,
      "d": 10.080625000002328,
      "v": 84
    },
    {
      "midi": 82,
      "hit": false,
      "t": 198870.57000001497,
      "d": 10.080625000002328,
      "v": 108
    },
    {
      "midi": 60,
      "hit": false,
      "t": 198870.57000001497,
      "d": 45.36281250001048,
      "v": 51
    },
    {
      "midi": 55,
      "hit": false,
      "t": 198870.57000001497,
      "d": 50.40312500001164,
      "v": 54
    },
    {
      "midi": 42,
      "hit": false,
      "t": 198870.57000001497,
      "d": 65.52406250001513,
      "v": 98
    },
    {
      "midi": 40,
      "hit": false,
      "t": 198870.57000001497,
      "d": 65.52406250001513,
      "v": 91
    },
    {
      "midi": 28,
      "hit": false,
      "t": 198870.57000001497,
      "d": 191.53187500004424,
      "v": 102
    },
    {
      "midi": 59,
      "hit": false,
      "t": 198875.61031251497,
      "d": 45.36281250001048,
      "v": 49
    },
    {
      "midi": 64,
      "hit": false,
      "t": 198880.65062501497,
      "d": 70.5643750000163,
      "v": 56
    },
    {
      "midi": 39,
      "hit": false,
      "t": 198890.73125001497,
      "d": 70.5643750000163,
      "v": 76
    },
    {
      "midi": 98,
      "hit": false,
      "t": 198991.537500015,
      "d": 5.040312500001164,
      "v": 35
    },
    {
      "midi": 82,
      "hit": false,
      "t": 198991.537500015,
      "d": 5.040312500001164,
      "v": 43
    },
    {
      "midi": 55,
      "hit": false,
      "t": 198991.537500015,
      "d": 45.36281250001048,
      "v": 23
    },
    {
      "midi": 60,
      "hit": false,
      "t": 198991.537500015,
      "d": 45.36281250001048,
      "v": 42
    },
    {
      "midi": 59,
      "hit": false,
      "t": 198996.577812515,
      "d": 50.40312500001164,
      "v": 47
    },
    {
      "midi": 64,
      "hit": false,
      "t": 199001.618125015,
      "d": 45.36281250001048,
      "v": 38
    },
    {
      "midi": 54,
      "hit": false,
      "t": 199011.698750015,
      "d": 40.32250000000931,
      "v": 39
    },
    {
      "midi": 82,
      "hit": false,
      "t": 199112.50500001502,
      "d": 10.080625000002328,
      "v": 66
    },
    {
      "midi": 42,
      "hit": false,
      "t": 199112.50500001502,
      "d": 60.48375000001397,
      "v": 82
    },
    {
      "midi": 54,
      "hit": false,
      "t": 199112.50500001502,
      "d": 85.68531250001979,
      "v": 50
    },
    {
      "midi": 31,
      "hit": false,
      "t": 199112.50500001502,
      "d": 161.29000000003725,
      "v": 105
    },
    {
      "midi": 71,
      "hit": false,
      "t": 199112.50500001502,
      "d": 216.73343750005006,
      "v": 104
    },
    {
      "midi": 55,
      "hit": false,
      "t": 199233.47250001505,
      "d": 10.080625000002328,
      "v": 51
    },
    {
      "midi": 59,
      "hit": false,
      "t": 199238.51281251505,
      "d": 5.040312500001164,
      "v": 49
    },
    {
      "midi": 98,
      "hit": false,
      "t": 199238.51281251505,
      "d": 10.080625000002328,
      "v": 49
    },
    {
      "midi": 82,
      "hit": false,
      "t": 199238.51281251505,
      "d": 10.080625000002328,
      "v": 64
    },
    {
      "midi": 64,
      "hit": false,
      "t": 199243.55312501505,
      "d": 10.080625000002328,
      "v": 54
    },
    {
      "midi": 54,
      "hit": false,
      "t": 199253.63375001505,
      "d": 40.32250000000931,
      "v": 40
    },
    {
      "midi": 98,
      "hit": false,
      "t": 199354.44000001508,
      "d": 10.080625000002328,
      "v": 78
    },
    {
      "midi": 82,
      "hit": false,
      "t": 199354.44000001508,
      "d": 10.080625000002328,
      "v": 102
    },
    {
      "midi": 55,
      "hit": false,
      "t": 199354.44000001508,
      "d": 65.52406250001513,
      "v": 65
    },
    {
      "midi": 42,
      "hit": false,
      "t": 199354.44000001508,
      "d": 75.60468750001746,
      "v": 98
    },
    {
      "midi": 35,
      "hit": false,
      "t": 199354.44000001508,
      "d": 90.72562500002095,
      "v": 79
    },
    {
      "midi": 51,
      "hit": false,
      "t": 199354.44000001508,
      "d": 241.93500000005588,
      "v": 104
    },
    {
      "midi": 47,
      "hit": false,
      "t": 199354.44000001508,
      "d": 241.93500000005588,
      "v": 104
    },
    {
      "midi": 71,
      "hit": false,
      "t": 199354.44000001508,
      "d": 322.5800000000745,
      "v": 47
    },
    {
      "midi": 59,
      "hit": false,
      "t": 199359.48031251508,
      "d": 60.48375000001397,
      "v": 60
    },
    {
      "midi": 63,
      "hit": false,
      "t": 199364.52062501508,
      "d": 70.5643750000163,
      "v": 60
    },
    {
      "midi": 98,
      "hit": false,
      "t": 199475.4075000151,
      "d": 5.040312500001164,
      "v": 41
    },
    {
      "midi": 82,
      "hit": false,
      "t": 199475.4075000151,
      "d": 5.040312500001164,
      "v": 51
    },
    {
      "midi": 55,
      "hit": false,
      "t": 199475.4075000151,
      "d": 10.080625000002328,
      "v": 51
    },
    {
      "midi": 59,
      "hit": false,
      "t": 199480.4478125151,
      "d": 5.040312500001164,
      "v": 41
    },
    {
      "midi": 63,
      "hit": false,
      "t": 199485.4881250151,
      "d": 10.080625000002328,
      "v": 57
    },
    {
      "midi": 54,
      "hit": false,
      "t": 199495.5687500151,
      "d": 40.32250000000931,
      "v": 34
    },
    {
      "midi": 82,
      "hit": false,
      "t": 199596.37500001513,
      "d": 10.080625000002328,
      "v": 60
    },
    {
      "midi": 42,
      "hit": false,
      "t": 199596.37500001513,
      "d": 45.36281250001048,
      "v": 82
    },
    {
      "midi": 54,
      "hit": false,
      "t": 199596.37500001513,
      "d": 70.5643750000163,
      "v": 94
    },
    {
      "midi": 55,
      "hit": false,
      "t": 199717.34250001516,
      "d": 50.40312500001164,
      "v": 22
    },
    {
      "midi": 71,
      "hit": false,
      "t": 199717.34250001516,
      "d": 322.5800000000745,
      "v": 104
    },
    {
      "midi": 98,
      "hit": false,
      "t": 199722.38281251516,
      "d": 10.080625000002328,
      "v": 45
    },
    {
      "midi": 82,
      "hit": false,
      "t": 199722.38281251516,
      "d": 10.080625000002328,
      "v": 58
    },
    {
      "midi": 59,
      "hit": false,
      "t": 199722.38281251516,
      "d": 50.40312500001164,
      "v": 22
    },
    {
      "midi": 63,
      "hit": false,
      "t": 199727.42312501516,
      "d": 50.40312500001164,
      "v": 25
    },
    {
      "midi": 54,
      "hit": false,
      "t": 199737.50375001517,
      "d": 40.32250000000931,
      "v": 40
    },
    {
      "midi": 31,
      "hit": false,
      "t": 199833.2696875152,
      "d": 357.86218750008265,
      "v": 105
    },
    {
      "midi": 98,
      "hit": false,
      "t": 199838.3100000152,
      "d": 10.080625000002328,
      "v": 84
    },
    {
      "midi": 82,
      "hit": false,
      "t": 199838.3100000152,
      "d": 10.080625000002328,
      "v": 108
    },
    {
      "midi": 55,
      "hit": false,
      "t": 199838.3100000152,
      "d": 10.080625000002328,
      "v": 49
    },
    {
      "midi": 40,
      "hit": false,
      "t": 199838.3100000152,
      "d": 65.52406250001513,
      "v": 91
    },
    {
      "midi": 42,
      "hit": false,
      "t": 199838.3100000152,
      "d": 70.5643750000163,
      "v": 98
    },
    {
      "midi": 59,
      "hit": false,
      "t": 199843.3503125152,
      "d": 10.080625000002328,
      "v": 56
    },
    {
      "midi": 63,
      "hit": false,
      "t": 199848.3906250152,
      "d": 10.080625000002328,
      "v": 54
    },
    {
      "midi": 98,
      "hit": false,
      "t": 199959.27750001522,
      "d": 5.040312500001164,
      "v": 35
    },
    {
      "midi": 82,
      "hit": false,
      "t": 199959.27750001522,
      "d": 5.040312500001164,
      "v": 43
    },
    {
      "midi": 54,
      "hit": false,
      "t": 199979.43875001522,
      "d": 40.32250000000931,
      "v": 39
    },
    {
      "midi": 82,
      "hit": false,
      "t": 200080.24500001525,
      "d": 10.080625000002328,
      "v": 66
    },
    {
      "midi": 42,
      "hit": false,
      "t": 200080.24500001525,
      "d": 50.40312500001164,
      "v": 64
    },
    {
      "midi": 54,
      "hit": false,
      "t": 200080.24500001525,
      "d": 85.68531250001979,
      "v": 47
    },
    {
      "midi": 51,
      "hit": false,
      "t": 200080.24500001525,
      "d": 216.73343750005006,
      "v": 104
    },
    {
      "midi": 47,
      "hit": false,
      "t": 200080.24500001525,
      "d": 216.73343750005006,
      "v": 104
    },
    {
      "midi": 71,
      "hit": false,
      "t": 200080.24500001525,
      "d": 216.73343750005006,
      "v": 104
    },
    {
      "midi": 55,
      "hit": false,
      "t": 200201.21250001527,
      "d": 50.40312500001164,
      "v": 65
    },
    {
      "midi": 31,
      "hit": false,
      "t": 200206.25281251527,
      "d": 5.040312500001164,
      "v": 21
    },
    {
      "midi": 98,
      "hit": false,
      "t": 200206.25281251527,
      "d": 10.080625000002328,
      "v": 49
    },
    {
      "midi": 82,
      "hit": false,
      "t": 200206.25281251527,
      "d": 10.080625000002328,
      "v": 64
    },
    {
      "midi": 59,
      "hit": false,
      "t": 200206.25281251527,
      "d": 70.5643750000163,
      "v": 73
    },
    {
      "midi": 63,
      "hit": false,
      "t": 200211.29312501528,
      "d": 75.60468750001746,
      "v": 55
    },
    {
      "midi": 54,
      "hit": false,
      "t": 200221.37375001528,
      "d": 40.32250000000931,
      "v": 39
    },
    {
      "midi": 98,
      "hit": false,
      "t": 200322.1800000153,
      "d": 10.080625000002328,
      "v": 78
    },
    {
      "midi": 82,
      "hit": false,
      "t": 200322.1800000153,
      "d": 10.080625000002328,
      "v": 102
    },
    {
      "midi": 55,
      "hit": false,
      "t": 200322.1800000153,
      "d": 10.080625000002328,
      "v": 54
    },
    {
      "midi": 42,
      "hit": false,
      "t": 200322.1800000153,
      "d": 65.52406250001513,
      "v": 93
    },
    {
      "midi": 35,
      "hit": false,
      "t": 200322.1800000153,
      "d": 90.72562500002095,
      "v": 86
    },
    {
      "midi": 71,
      "hit": false,
      "t": 200322.1800000153,
      "d": 216.73343750005006,
      "v": 104
    },
    {
      "midi": 59,
      "hit": false,
      "t": 200327.2203125153,
      "d": 5.040312500001164,
      "v": 49
    },
    {
      "midi": 63,
      "hit": false,
      "t": 200332.2606250153,
      "d": 10.080625000002328,
      "v": 57
    },
    {
      "midi": 98,
      "hit": false,
      "t": 200443.14750001533,
      "d": 5.040312500001164,
      "v": 41
    },
    {
      "midi": 82,
      "hit": false,
      "t": 200443.14750001533,
      "d": 5.040312500001164,
      "v": 51
    },
    {
      "midi": 31,
      "hit": false,
      "t": 200448.18781251533,
      "d": 5.040312500001164,
      "v": 30
    },
    {
      "midi": 54,
      "hit": false,
      "t": 200463.30875001533,
      "d": 40.32250000000931,
      "v": 34
    },
    {
      "midi": 82,
      "hit": false,
      "t": 200564.11500001536,
      "d": 10.080625000002328,
      "v": 60
    },
    {
      "midi": 55,
      "hit": false,
      "t": 200564.11500001536,
      "d": 10.080625000002328,
      "v": 49
    },
    {
      "midi": 42,
      "hit": false,
      "t": 200564.11500001536,
      "d": 60.48375000001397,
      "v": 87
    },
    {
      "midi": 69,
      "hit": false,
      "t": 200564.11500001536,
      "d": 216.73343750005006,
      "v": 104
    },
    {
      "midi": 59,
      "hit": false,
      "t": 200569.15531251536,
      "d": 25.20156250000582,
      "v": 47
    },
    {
      "midi": 63,
      "hit": false,
      "t": 200574.19562501536,
      "d": 10.080625000002328,
      "v": 54
    },
    {
      "midi": 54,
      "hit": false,
      "t": 200584.27625001536,
      "d": 70.5643750000163,
      "v": 93
    },
    {
      "midi": 98,
      "hit": false,
      "t": 200690.1228125154,
      "d": 10.080625000002328,
      "v": 45
    },
    {
      "midi": 82,
      "hit": false,
      "t": 200690.1228125154,
      "d": 10.080625000002328,
      "v": 58
    },
    {
      "midi": 54,
      "hit": false,
      "t": 200705.2437500154,
      "d": 40.32250000000931,
      "v": 31
    },
    {
      "midi": 98,
      "hit": false,
      "t": 200806.0500000154,
      "d": 10.080625000002328,
      "v": 84
    },
    {
      "midi": 82,
      "hit": false,
      "t": 200806.0500000154,
      "d": 10.080625000002328,
      "v": 108
    },
    {
      "midi": 40,
      "hit": false,
      "t": 200806.0500000154,
      "d": 65.52406250001513,
      "v": 94
    },
    {
      "midi": 55,
      "hit": false,
      "t": 200806.0500000154,
      "d": 65.52406250001513,
      "v": 57
    },
    {
      "midi": 42,
      "hit": false,
      "t": 200806.0500000154,
      "d": 80.64500000001863,
      "v": 93
    },
    {
      "midi": 67,
      "hit": false,
      "t": 200806.0500000154,
      "d": 216.73343750005006,
      "v": 104
    },
    {
      "midi": 59,
      "hit": false,
      "t": 200811.09031251541,
      "d": 70.5643750000163,
      "v": 59
    },
    {
      "midi": 63,
      "hit": false,
      "t": 200816.13062501542,
      "d": 70.5643750000163,
      "v": 59
    },
    {
      "midi": 39,
      "hit": false,
      "t": 200826.21125001542,
      "d": 70.5643750000163,
      "v": 76
    },
    {
      "midi": 98,
      "hit": false,
      "t": 200927.01750001544,
      "d": 5.040312500001164,
      "v": 35
    },
    {
      "midi": 82,
      "hit": false,
      "t": 200927.01750001544,
      "d": 5.040312500001164,
      "v": 43
    },
    {
      "midi": 55,
      "hit": false,
      "t": 200927.01750001544,
      "d": 40.32250000000931,
      "v": 44
    },
    {
      "midi": 59,
      "hit": false,
      "t": 200932.05781251544,
      "d": 55.443437500012806,
      "v": 38
    },
    {
      "midi": 63,
      "hit": false,
      "t": 200937.09812501544,
      "d": 60.48375000001397,
      "v": 45
    },
    {
      "midi": 54,
      "hit": false,
      "t": 200947.17875001545,
      "d": 40.32250000000931,
      "v": 39
    },
    {
      "midi": 82,
      "hit": false,
      "t": 201047.98500001547,
      "d": 10.080625000002328,
      "v": 66
    },
    {
      "midi": 42,
      "hit": false,
      "t": 201047.98500001547,
      "d": 55.443437500012806,
      "v": 82
    },
    {
      "midi": 54,
      "hit": false,
      "t": 201047.98500001547,
      "d": 85.68531250001979,
      "v": 50
    },
    {
      "midi": 31,
      "hit": false,
      "t": 201047.98500001547,
      "d": 161.29000000003725,
      "v": 102
    },
    {
      "midi": 71,
      "hit": false,
      "t": 201047.98500001547,
      "d": 216.73343750005006,
      "v": 104
    },
    {
      "midi": 55,
      "hit": false,
      "t": 201168.9525000155,
      "d": 10.080625000002328,
      "v": 47
    },
    {
      "midi": 29,
      "hit": false,
      "t": 201168.9525000155,
      "d": 95.76593750002212,
      "v": 45
    },
    {
      "midi": 59,
      "hit": false,
      "t": 201173.9928125155,
      "d": 5.040312500001164,
      "v": 45
    },
    {
      "midi": 98,
      "hit": false,
      "t": 201173.9928125155,
      "d": 10.080625000002328,
      "v": 49
    },
    {
      "midi": 82,
      "hit": false,
      "t": 201173.9928125155,
      "d": 10.080625000002328,
      "v": 64
    },
    {
      "midi": 63,
      "hit": false,
      "t": 201179.0331250155,
      "d": 10.080625000002328,
      "v": 47
    },
    {
      "midi": 54,
      "hit": false,
      "t": 201189.1137500155,
      "d": 40.32250000000931,
      "v": 40
    },
    {
      "midi": 98,
      "hit": false,
      "t": 201289.92000001553,
      "d": 10.080625000002328,
      "v": 78
    },
    {
      "midi": 82,
      "hit": false,
      "t": 201289.92000001553,
      "d": 10.080625000002328,
      "v": 102
    },
    {
      "midi": 54,
      "hit": false,
      "t": 201289.92000001553,
      "d": 60.48375000001397,
      "v": 60
    },
    {
      "midi": 42,
      "hit": false,
      "t": 201289.92000001553,
      "d": 70.5643750000163,
      "v": 95
    },
    {
      "midi": 59,
      "hit": false,
      "t": 201289.92000001553,
      "d": 70.5643750000163,
      "v": 66
    },
    {
      "midi": 35,
      "hit": false,
      "t": 201289.92000001553,
      "d": 90.72562500002095,
      "v": 87
    },
    {
      "midi": 52,
      "hit": false,
      "t": 201289.92000001553,
      "d": 241.93500000005588,
      "v": 104
    },
    {
      "midi": 69,
      "hit": false,
      "t": 201289.92000001553,
      "d": 322.5800000000745,
      "v": 104
    },
    {
      "midi": 28,
      "hit": false,
      "t": 201289.92000001553,
      "d": 372.98312500008615,
      "v": 102
    },
    {
      "midi": 57,
      "hit": false,
      "t": 201294.96031251553,
      "d": 65.52406250001513,
      "v": 67
    },
    {
      "midi": 62,
      "hit": false,
      "t": 201300.00062501553,
      "d": 65.52406250001513,
      "v": 60
    },
    {
      "midi": 98,
      "hit": false,
      "t": 201410.88750001555,
      "d": 5.040312500001164,
      "v": 41
    },
    {
      "midi": 82,
      "hit": false,
      "t": 201410.88750001555,
      "d": 5.040312500001164,
      "v": 51
    },
    {
      "midi": 54,
      "hit": false,
      "t": 201410.88750001555,
      "d": 10.080625000002328,
      "v": 41
    },
    {
      "midi": 57,
      "hit": false,
      "t": 201415.92781251555,
      "d": 5.040312500001164,
      "v": 55
    },
    {
      "midi": 62,
      "hit": false,
      "t": 201420.96812501556,
      "d": 10.080625000002328,
      "v": 56
    },
    {
      "midi": 54,
      "hit": false,
      "t": 201431.04875001556,
      "d": 40.32250000000931,
      "v": 34
    },
    {
      "midi": 82,
      "hit": false,
      "t": 201531.85500001558,
      "d": 10.080625000002328,
      "v": 60
    },
    {
      "midi": 42,
      "hit": false,
      "t": 201531.85500001558,
      "d": 55.443437500012806,
      "v": 82
    },
    {
      "midi": 54,
      "hit": false,
      "t": 201531.85500001558,
      "d": 70.5643750000163,
      "v": 94
    },
    {
      "midi": 98,
      "hit": false,
      "t": 201657.8628125156,
      "d": 10.080625000002328,
      "v": 45
    },
    {
      "midi": 82,
      "hit": false,
      "t": 201657.8628125156,
      "d": 10.080625000002328,
      "v": 58
    },
    {
      "midi": 57,
      "hit": false,
      "t": 201657.8628125156,
      "d": 35.28218750000815,
      "v": 32
    },
    {
      "midi": 62,
      "hit": false,
      "t": 201662.9031250156,
      "d": 40.32250000000931,
      "v": 26
    },
    {
      "midi": 54,
      "hit": false,
      "t": 201672.9837500156,
      "d": 25.20156250000582,
      "v": 40
    },
    {
      "midi": 98,
      "hit": false,
      "t": 201773.79000001564,
      "d": 10.080625000002328,
      "v": 84
    },
    {
      "midi": 82,
      "hit": false,
      "t": 201773.79000001564,
      "d": 10.080625000002328,
      "v": 108
    },
    {
      "midi": 54,
      "hit": false,
      "t": 201773.79000001564,
      "d": 10.080625000002328,
      "v": 54
    },
    {
      "midi": 42,
      "hit": false,
      "t": 201773.79000001564,
      "d": 75.60468750001746,
      "v": 93
    },
    {
      "midi": 40,
      "hit": false,
      "t": 201773.79000001564,
      "d": 75.60468750001746,
      "v": 94
    },
    {
      "midi": 59,
      "hit": false,
      "t": 201773.79000001564,
      "d": 85.68531250001979,
      "v": 60
    },
    {
      "midi": 57,
      "hit": false,
      "t": 201778.83031251564,
      "d": 5.040312500001164,
      "v": 49
    },
    {
      "midi": 62,
      "hit": false,
      "t": 201783.87062501564,
      "d": 10.080625000002328,
      "v": 49
    },
    {
      "midi": 98,
      "hit": false,
      "t": 201894.75750001566,
      "d": 5.040312500001164,
      "v": 35
    },
    {
      "midi": 82,
      "hit": false,
      "t": 201894.75750001566,
      "d": 5.040312500001164,
      "v": 43
    },
    {
      "midi": 54,
      "hit": false,
      "t": 201914.91875001567,
      "d": 40.32250000000931,
      "v": 39
    },
    {
      "midi": 82,
      "hit": false,
      "t": 202015.7250000157,
      "d": 10.080625000002328,
      "v": 66
    },
    {
      "midi": 54,
      "hit": false,
      "t": 202015.7250000157,
      "d": 40.32250000000931,
      "v": 47
    },
    {
      "midi": 42,
      "hit": false,
      "t": 202015.7250000157,
      "d": 50.40312500001164,
      "v": 73
    },
    {
      "midi": 52,
      "hit": false,
      "t": 202015.7250000157,
      "d": 216.73343750005006,
      "v": 104
    },
    {
      "midi": 69,
      "hit": false,
      "t": 202015.7250000157,
      "d": 433.4668750001001,
      "v": 104
    },
    {
      "midi": 57,
      "hit": false,
      "t": 202020.7653125157,
      "d": 40.32250000000931,
      "v": 26
    },
    {
      "midi": 62,
      "hit": false,
      "t": 202025.8056250157,
      "d": 45.36281250001048,
      "v": 22
    },
    {
      "midi": 59,
      "hit": false,
      "t": 202136.69250001572,
      "d": 85.68531250001979,
      "v": 61
    },
    {
      "midi": 98,
      "hit": false,
      "t": 202141.73281251572,
      "d": 10.080625000002328,
      "v": 49
    },
    {
      "midi": 82,
      "hit": false,
      "t": 202141.73281251572,
      "d": 10.080625000002328,
      "v": 64
    },
    {
      "midi": 57,
      "hit": false,
      "t": 202141.73281251572,
      "d": 85.68531250001979,
      "v": 58
    },
    {
      "midi": 62,
      "hit": false,
      "t": 202146.77312501572,
      "d": 85.68531250001979,
      "v": 68
    },
    {
      "midi": 54,
      "hit": false,
      "t": 202156.85375001573,
      "d": 40.32250000000931,
      "v": 39
    },
    {
      "midi": 98,
      "hit": false,
      "t": 202257.66000001575,
      "d": 10.080625000002328,
      "v": 78
    },
    {
      "midi": 82,
      "hit": false,
      "t": 202257.66000001575,
      "d": 10.080625000002328,
      "v": 102
    },
    {
      "midi": 54,
      "hit": false,
      "t": 202257.66000001575,
      "d": 10.080625000002328,
      "v": 41
    },
    {
      "midi": 42,
      "hit": false,
      "t": 202257.66000001575,
      "d": 55.443437500012806,
      "v": 87
    },
    {
      "midi": 35,
      "hit": false,
      "t": 202257.66000001575,
      "d": 95.76593750002212,
      "v": 87
    },
    {
      "midi": 28,
      "hit": false,
      "t": 202257.66000001575,
      "d": 357.86218750008265,
      "v": 105
    },
    {
      "midi": 57,
      "hit": false,
      "t": 202262.70031251575,
      "d": 5.040312500001164,
      "v": 47
    },
    {
      "midi": 62,
      "hit": false,
      "t": 202267.74062501575,
      "d": 10.080625000002328,
      "v": 54
    },
    {
      "midi": 98,
      "hit": false,
      "t": 202378.62750001578,
      "d": 5.040312500001164,
      "v": 41
    },
    {
      "midi": 82,
      "hit": false,
      "t": 202378.62750001578,
      "d": 5.040312500001164,
      "v": 51
    },
    {
      "midi": 54,
      "hit": false,
      "t": 202398.78875001578,
      "d": 40.32250000000931,
      "v": 34
    },
    {
      "midi": 82,
      "hit": false,
      "t": 202499.5950000158,
      "d": 10.080625000002328,
      "v": 60
    },
    {
      "midi": 54,
      "hit": false,
      "t": 202499.5950000158,
      "d": 10.080625000002328,
      "v": 55
    },
    {
      "midi": 42,
      "hit": false,
      "t": 202499.5950000158,
      "d": 50.40312500001164,
      "v": 82
    },
    {
      "midi": 59,
      "hit": false,
      "t": 202499.5950000158,
      "d": 50.40312500001164,
      "v": 61
    },
    {
      "midi": 71,
      "hit": false,
      "t": 202499.5950000158,
      "d": 216.73343750005006,
      "v": 104
    },
    {
      "midi": 57,
      "hit": false,
      "t": 202504.6353125158,
      "d": 10.080625000002328,
      "v": 49
    },
    {
      "midi": 62,
      "hit": false,
      "t": 202509.6756250158,
      "d": 10.080625000002328,
      "v": 49
    },
    {
      "midi": 54,
      "hit": false,
      "t": 202519.7562500158,
      "d": 20.161250000004657,
      "v": 93
    },
    {
      "midi": 98,
      "hit": false,
      "t": 202625.60281251583,
      "d": 10.080625000002328,
      "v": 45
    },
    {
      "midi": 82,
      "hit": false,
      "t": 202625.60281251583,
      "d": 10.080625000002328,
      "v": 58
    },
    {
      "midi": 54,
      "hit": false,
      "t": 202640.72375001584,
      "d": 40.32250000000931,
      "v": 31
    },
    {
      "midi": 28,
      "hit": false,
      "t": 202736.48968751586,
      "d": 171.37062500003958,
      "v": 102
    },
    {
      "midi": 98,
      "hit": false,
      "t": 202741.53000001586,
      "d": 10.080625000002328,
      "v": 84
    },
    {
      "midi": 82,
      "hit": false,
      "t": 202741.53000001586,
      "d": 10.080625000002328,
      "v": 108
    },
    {
      "midi": 54,
      "hit": false,
      "t": 202741.53000001586,
      "d": 55.443437500012806,
      "v": 59
    },
    {
      "midi": 42,
      "hit": false,
      "t": 202741.53000001586,
      "d": 60.48375000001397,
      "v": 87
    },
    {
      "midi": 40,
      "hit": false,
      "t": 202741.53000001586,
      "d": 60.48375000001397,
      "v": 94
    },
    {
      "midi": 59,
      "hit": false,
      "t": 202741.53000001586,
      "d": 85.68531250001979,
      "v": 60
    },
    {
      "midi": 69,
      "hit": false,
      "t": 202741.53000001586,
      "d": 216.73343750005006,
      "v": 104
    },
    {
      "midi": 57,
      "hit": false,
      "t": 202746.57031251586,
      "d": 65.52406250001513,
      "v": 58
    },
    {
      "midi": 62,
      "hit": false,
      "t": 202751.61062501586,
      "d": 60.48375000001397,
      "v": 58
    },
    {
      "midi": 39,
      "hit": false,
      "t": 202761.69125001587,
      "d": 70.5643750000163,
      "v": 76
    },
    {
      "midi": 98,
      "hit": false,
      "t": 202862.4975000159,
      "d": 5.040312500001164,
      "v": 35
    },
    {
      "midi": 82,
      "hit": false,
      "t": 202862.4975000159,
      "d": 5.040312500001164,
      "v": 43
    },
    {
      "midi": 59,
      "hit": false,
      "t": 202862.4975000159,
      "d": 45.36281250001048,
      "v": 38
    },
    {
      "midi": 57,
      "hit": false,
      "t": 202867.5378125159,
      "d": 65.52406250001513,
      "v": 38
    },
    {
      "midi": 62,
      "hit": false,
      "t": 202872.5781250159,
      "d": 75.60468750001746,
      "v": 38
    },
    {
      "midi": 54,
      "hit": false,
      "t": 202882.6587500159,
      "d": 40.32250000000931,
      "v": 39
    },
    {
      "midi": 40,
      "hit": false,
      "t": 202978.42468751592,
      "d": 196.5721875000454,
      "v": 97
    },
    {
      "midi": 82,
      "hit": false,
      "t": 202983.46500001592,
      "d": 10.080625000002328,
      "v": 66
    },
    {
      "midi": 42,
      "hit": false,
      "t": 202983.46500001592,
      "d": 50.40312500001164,
      "v": 75
    },
    {
      "midi": 54,
      "hit": false,
      "t": 202983.46500001592,
      "d": 85.68531250001979,
      "v": 50
    },
    {
      "midi": 68,
      "hit": false,
      "t": 202983.46500001592,
      "d": 216.73343750005006,
      "v": 104
    },
    {
      "midi": 54,
      "hit": false,
      "t": 203104.43250001594,
      "d": 10.080625000002328,
      "v": 49
    },
    {
      "midi": 98,
      "hit": false,
      "t": 203109.47281251595,
      "d": 10.080625000002328,
      "v": 49
    },
    {
      "midi": 82,
      "hit": false,
      "t": 203109.47281251595,
      "d": 10.080625000002328,
      "v": 64
    },
    {
      "midi": 57,
      "hit": false,
      "t": 203109.47281251595,
      "d": 25.20156250000582,
      "v": 54
    },
    {
      "midi": 62,
      "hit": false,
      "t": 203114.51312501595,
      "d": 10.080625000002328,
      "v": 57
    },
    {
      "midi": 54,
      "hit": false,
      "t": 203124.59375001595,
      "d": 40.32250000000931,
      "v": 40
    },
    {
      "midi": 98,
      "hit": false,
      "t": 203225.40000001597,
      "d": 10.080625000002328,
      "v": 78
    },
    {
      "midi": 82,
      "hit": false,
      "t": 203225.40000001597,
      "d": 10.080625000002328,
      "v": 102
    },
    {
      "midi": 42,
      "hit": false,
      "t": 203225.40000001597,
      "d": 45.36281250001048,
      "v": 95
    },
    {
      "midi": 35,
      "hit": false,
      "t": 203225.40000001597,
      "d": 105.84656250002445,
      "v": 87
    },
    {
      "midi": 56,
      "hit": false,
      "t": 203225.40000001597,
      "d": 115.92718750002678,
      "v": 93
    },
    {
      "midi": 52,
      "hit": false,
      "t": 203225.40000001597,
      "d": 241.93500000005588,
      "v": 104
    },
    {
      "midi": 28,
      "hit": false,
      "t": 203225.40000001597,
      "d": 307.459062500071,
      "v": 105
    },
    {
      "midi": 68,
      "hit": false,
      "t": 203225.40000001597,
      "d": 866.9337500002002,
      "v": 47
    },
    {
      "midi": 71,
      "hit": false,
      "t": 203225.40000001597,
      "d": 1935.480000000418,
      "v": 47
    },
    {
      "midi": 98,
      "hit": false,
      "t": 203346.367500016,
      "d": 5.040312500001164,
      "v": 41
    },
    {
      "midi": 82,
      "hit": false,
      "t": 203346.367500016,
      "d": 5.040312500001164,
      "v": 51
    },
    {
      "midi": 59,
      "hit": false,
      "t": 203346.367500016,
      "d": 10.080625000002328,
      "v": 86
    },
    {
      "midi": 56,
      "hit": false,
      "t": 203346.367500016,
      "d": 15.120937500003492,
      "v": 69
    },
    {
      "midi": 64,
      "hit": false,
      "t": 203361.488437516,
      "d": 10.080625000002328,
      "v": 94
    },
    {
      "midi": 54,
      "hit": false,
      "t": 203366.528750016,
      "d": 40.32250000000931,
      "v": 34
    },
    {
      "midi": 82,
      "hit": false,
      "t": 203467.33500001603,
      "d": 10.080625000002328,
      "v": 60
    },
    {
      "midi": 42,
      "hit": false,
      "t": 203467.33500001603,
      "d": 40.32250000000931,
      "v": 82
    },
    {
      "midi": 56,
      "hit": false,
      "t": 203467.33500001603,
      "d": 45.36281250001048,
      "v": 75
    },
    {
      "midi": 54,
      "hit": false,
      "t": 203467.33500001603,
      "d": 70.5643750000163,
      "v": 94
    },
    {
      "midi": 59,
      "hit": false,
      "t": 203477.41562501603,
      "d": 65.52406250001513,
      "v": 72
    },
    {
      "midi": 64,
      "hit": false,
      "t": 203487.49625001603,
      "d": 70.5643750000163,
      "v": 82
    },
    {
      "midi": 59,
      "hit": false,
      "t": 203588.30250001606,
      "d": 15.120937500003492,
      "v": 97
    },
    {
      "midi": 56,
      "hit": false,
      "t": 203588.30250001606,
      "d": 15.120937500003492,
      "v": 78
    },
    {
      "midi": 28,
      "hit": false,
      "t": 203588.30250001606,
      "d": 90.72562500002095,
      "v": 102
    },
    {
      "midi": 98,
      "hit": false,
      "t": 203593.34281251606,
      "d": 10.080625000002328,
      "v": 45
    },
    {
      "midi": 82,
      "hit": false,
      "t": 203593.34281251606,
      "d": 10.080625000002328,
      "v": 58
    },
    {
      "midi": 64,
      "hit": false,
      "t": 203603.42343751606,
      "d": 15.120937500003492,
      "v": 81
    },
    {
      "midi": 54,
      "hit": false,
      "t": 203608.46375001606,
      "d": 40.32250000000931,
      "v": 40
    },
    {
      "midi": 98,
      "hit": false,
      "t": 203709.27000001608,
      "d": 10.080625000002328,
      "v": 84
    },
    {
      "midi": 82,
      "hit": false,
      "t": 203709.27000001608,
      "d": 10.080625000002328,
      "v": 108
    },
    {
      "midi": 59,
      "hit": false,
      "t": 203709.27000001608,
      "d": 15.120937500003492,
      "v": 92
    },
    {
      "midi": 56,
      "hit": false,
      "t": 203709.27000001608,
      "d": 15.120937500003492,
      "v": 89
    },
    {
      "midi": 42,
      "hit": false,
      "t": 203709.27000001608,
      "d": 65.52406250001513,
      "v": 98
    },
    {
      "midi": 40,
      "hit": false,
      "t": 203709.27000001608,
      "d": 70.5643750000163,
      "v": 94
    },
    {
      "midi": 35,
      "hit": false,
      "t": 203709.27000001608,
      "d": 297.3784375000687,
      "v": 105
    },
    {
      "midi": 64,
      "hit": false,
      "t": 203724.3909375161,
      "d": 15.120937500003492,
      "v": 87
    },
    {
      "midi": 98,
      "hit": false,
      "t": 203830.2375000161,
      "d": 5.040312500001164,
      "v": 35
    },
    {
      "midi": 82,
      "hit": false,
      "t": 203830.2375000161,
      "d": 5.040312500001164,
      "v": 43
    },
    {
      "midi": 56,
      "hit": false,
      "t": 203830.2375000161,
      "d": 50.40312500001164,
      "v": 90
    },
    {
      "midi": 59,
      "hit": false,
      "t": 203840.3181250161,
      "d": 65.52406250001513,
      "v": 80
    },
    {
      "midi": 54,
      "hit": false,
      "t": 203850.39875001612,
      "d": 40.32250000000931,
      "v": 39
    },
    {
      "midi": 64,
      "hit": false,
      "t": 203850.39875001612,
      "d": 70.5643750000163,
      "v": 79
    },
    {
      "midi": 82,
      "hit": false,
      "t": 203951.20500001614,
      "d": 10.080625000002328,
      "v": 66
    },
    {
      "midi": 59,
      "hit": false,
      "t": 203951.20500001614,
      "d": 15.120937500003492,
      "v": 98
    },
    {
      "midi": 56,
      "hit": false,
      "t": 203951.20500001614,
      "d": 15.120937500003492,
      "v": 80
    },
    {
      "midi": 42,
      "hit": false,
      "t": 203951.20500001614,
      "d": 40.32250000000931,
      "v": 82
    },
    {
      "midi": 54,
      "hit": false,
      "t": 203951.20500001614,
      "d": 85.68531250001979,
      "v": 47
    },
    {
      "midi": 52,
      "hit": false,
      "t": 203951.20500001614,
      "d": 216.73343750005006,
      "v": 104
    },
    {
      "midi": 64,
      "hit": false,
      "t": 203966.32593751614,
      "d": 15.120937500003492,
      "v": 78
    },
    {
      "midi": 59,
      "hit": false,
      "t": 204072.17250001617,
      "d": 15.120937500003492,
      "v": 91
    },
    {
      "midi": 56,
      "hit": false,
      "t": 204072.17250001617,
      "d": 15.120937500003492,
      "v": 85
    },
    {
      "midi": 35,
      "hit": false,
      "t": 204072.17250001617,
      "d": 90.72562500002095,
      "v": 102
    },
    {
      "midi": 29,
      "hit": false,
      "t": 204072.17250001617,
      "d": 95.76593750002212,
      "v": 45
    },
    {
      "midi": 98,
      "hit": false,
      "t": 204077.21281251617,
      "d": 10.080625000002328,
      "v": 49
    },
    {
      "midi": 82,
      "hit": false,
      "t": 204077.21281251617,
      "d": 10.080625000002328,
      "v": 64
    },
    {
      "midi": 64,
      "hit": false,
      "t": 204087.29343751617,
      "d": 15.120937500003492,
      "v": 98
    },
    {
      "midi": 54,
      "hit": false,
      "t": 204092.33375001617,
      "d": 40.32250000000931,
      "v": 39
    },
    {
      "midi": 98,
      "hit": false,
      "t": 204193.1400000162,
      "d": 10.080625000002328,
      "v": 78
    },
    {
      "midi": 82,
      "hit": false,
      "t": 204193.1400000162,
      "d": 10.080625000002328,
      "v": 102
    },
    {
      "midi": 56,
      "hit": false,
      "t": 204193.1400000162,
      "d": 45.36281250001048,
      "v": 70
    },
    {
      "midi": 42,
      "hit": false,
      "t": 204193.1400000162,
      "d": 60.48375000001397,
      "v": 98
    },
    {
      "midi": 35,
      "hit": false,
      "t": 204193.1400000162,
      "d": 90.72562500002095,
      "v": 86
    },
    {
      "midi": 28,
      "hit": false,
      "t": 204193.1400000162,
      "d": 211.6931250000489,
      "v": 105
    },
    {
      "midi": 59,
      "hit": false,
      "t": 204208.2609375162,
      "d": 65.52406250001513,
      "v": 79
    },
    {
      "midi": 64,
      "hit": false,
      "t": 204213.3012500162,
      "d": 85.68531250001979,
      "v": 81
    },
    {
      "midi": 98,
      "hit": false,
      "t": 204314.10750001622,
      "d": 5.040312500001164,
      "v": 41
    },
    {
      "midi": 82,
      "hit": false,
      "t": 204314.10750001622,
      "d": 5.040312500001164,
      "v": 51
    },
    {
      "midi": 54,
      "hit": false,
      "t": 204334.26875001623,
      "d": 40.32250000000931,
      "v": 34
    },
    {
      "midi": 40,
      "hit": false,
      "t": 204435.07500001625,
      "d": 5.040312500001164,
      "v": 74
    },
    {
      "midi": 82,
      "hit": false,
      "t": 204435.07500001625,
      "d": 10.080625000002328,
      "v": 60
    },
    {
      "midi": 42,
      "hit": false,
      "t": 204435.07500001625,
      "d": 40.32250000000931,
      "v": 73
    },
    {
      "midi": 56,
      "hit": false,
      "t": 204435.07500001625,
      "d": 95.76593750002212,
      "v": 95
    },
    {
      "midi": 28,
      "hit": false,
      "t": 204435.07500001625,
      "d": 206.65281250004773,
      "v": 105
    },
    {
      "midi": 68,
      "hit": false,
      "t": 204435.07500001625,
      "d": 216.73343750005006,
      "v": 104
    },
    {
      "midi": 64,
      "hit": false,
      "t": 204445.15562501625,
      "d": 95.76593750002212,
      "v": 75
    },
    {
      "midi": 59,
      "hit": false,
      "t": 204450.19593751626,
      "d": 95.76593750002212,
      "v": 87
    },
    {
      "midi": 54,
      "hit": false,
      "t": 204455.23625001626,
      "d": 70.5643750000163,
      "v": 93
    },
    {
      "midi": 98,
      "hit": false,
      "t": 204561.08281251628,
      "d": 10.080625000002328,
      "v": 45
    },
    {
      "midi": 82,
      "hit": false,
      "t": 204561.08281251628,
      "d": 10.080625000002328,
      "v": 58
    },
    {
      "midi": 54,
      "hit": false,
      "t": 204576.20375001628,
      "d": 40.32250000000931,
      "v": 31
    },
    {
      "midi": 98,
      "hit": false,
      "t": 204677.0100000163,
      "d": 10.080625000002328,
      "v": 84
    },
    {
      "midi": 82,
      "hit": false,
      "t": 204677.0100000163,
      "d": 10.080625000002328,
      "v": 108
    },
    {
      "midi": 40,
      "hit": false,
      "t": 204677.0100000163,
      "d": 65.52406250001513,
      "v": 91
    },
    {
      "midi": 56,
      "hit": false,
      "t": 204677.0100000163,
      "d": 95.76593750002212,
      "v": 70
    },
    {
      "midi": 32,
      "hit": false,
      "t": 204677.0100000163,
      "d": 191.53187500004424,
      "v": 102
    },
    {
      "midi": 68,
      "hit": false,
      "t": 204677.0100000163,
      "d": 216.73343750005006,
      "v": 104
    },
    {
      "midi": 64,
      "hit": false,
      "t": 204687.0906250163,
      "d": 95.76593750002212,
      "v": 95
    },
    {
      "midi": 59,
      "hit": false,
      "t": 204692.1309375163,
      "d": 95.76593750002212,
      "v": 79
    },
    {
      "midi": 39,
      "hit": false,
      "t": 204697.1712500163,
      "d": 70.5643750000163,
      "v": 76
    },
    {
      "midi": 40,
      "hit": false,
      "t": 204797.97750001634,
      "d": 5.040312500001164,
      "v": 74
    },
    {
      "midi": 98,
      "hit": false,
      "t": 204797.97750001634,
      "d": 5.040312500001164,
      "v": 35
    },
    {
      "midi": 82,
      "hit": false,
      "t": 204797.97750001634,
      "d": 5.040312500001164,
      "v": 43
    },
    {
      "midi": 56,
      "hit": false,
      "t": 204797.97750001634,
      "d": 85.68531250001979,
      "v": 95
    },
    {
      "midi": 64,
      "hit": false,
      "t": 204808.05812501634,
      "d": 95.76593750002212,
      "v": 75
    },
    {
      "midi": 59,
      "hit": false,
      "t": 204813.09843751634,
      "d": 80.64500000001863,
      "v": 87
    },
    {
      "midi": 54,
      "hit": false,
      "t": 204818.13875001634,
      "d": 40.32250000000931,
      "v": 39
    },
    {
      "midi": 47,
      "hit": false,
      "t": 204918.94500001636,
      "d": 5.040312500001164,
      "v": 73
    },
    {
      "midi": 82,
      "hit": false,
      "t": 204918.94500001636,
      "d": 10.080625000002328,
      "v": 66
    },
    {
      "midi": 54,
      "hit": false,
      "t": 204918.94500001636,
      "d": 85.68531249999069,
      "v": 50
    },
    {
      "midi": 35,
      "hit": false,
      "t": 204918.94500001636,
      "d": 161.29000000000815,
      "v": 105
    },
    {
      "midi": 68,
      "hit": false,
      "t": 204918.94500001636,
      "d": 216.73343750002095,
      "v": 104
    },
    {
      "midi": 45,
      "hit": false,
      "t": 205039.91250001636,
      "d": 5.040312500001164,
      "v": 54
    },
    {
      "midi": 56,
      "hit": false,
      "t": 205039.91250001636,
      "d": 15.120937500003492,
      "v": 77
    },
    {
      "midi": 98,
      "hit": false,
      "t": 205044.95281251636,
      "d": 10.080625000002328,
      "v": 49
    },
    {
      "midi": 82,
      "hit": false,
      "t": 205044.95281251636,
      "d": 10.080625000002328,
      "v": 64
    },
    {
      "midi": 59,
      "hit": false,
      "t": 205049.99312501636,
      "d": 15.120937500003492,
      "v": 69
    },
    {
      "midi": 64,
      "hit": false,
      "t": 205060.07375001637,
      "d": 20.161250000004657,
      "v": 73
    },
    {
      "midi": 54,
      "hit": false,
      "t": 205060.07375001637,
      "d": 40.32250000000931,
      "v": 40
    },
    {
      "midi": 49,
      "hit": false,
      "t": 205155.8396875164,
      "d": 5.040312500001164,
      "v": 79
    },
    {
      "midi": 98,
      "hit": false,
      "t": 205160.8800000164,
      "d": 10.080625000002328,
      "v": 78
    },
    {
      "midi": 82,
      "hit": false,
      "t": 205160.8800000164,
      "d": 10.080625000002328,
      "v": 102
    },
    {
      "midi": 42,
      "hit": false,
      "t": 205160.8800000164,
      "d": 45.36281250001048,
      "v": 95
    },
    {
      "midi": 35,
      "hit": false,
      "t": 205160.8800000164,
      "d": 105.84656250002445,
      "v": 87
    },
    {
      "midi": 52,
      "hit": false,
      "t": 205160.8800000164,
      "d": 322.5800000000745,
      "v": 104
    },
    {
      "midi": 45,
      "hit": false,
      "t": 205160.8800000164,
      "d": 322.5800000000745,
      "v": 104
    },
    {
      "midi": 67,
      "hit": false,
      "t": 205160.8800000164,
      "d": 322.5800000000745,
      "v": 47
    },
    {
      "midi": 72,
      "hit": false,
      "t": 205160.8800000164,
      "d": 362.9025000000838,
      "v": 47
    },
    {
      "midi": 33,
      "hit": false,
      "t": 205165.9203125164,
      "d": 357.86218750008265,
      "v": 102
    },
    {
      "midi": 98,
      "hit": false,
      "t": 205281.84750001642,
      "d": 5.040312500001164,
      "v": 41
    },
    {
      "midi": 82,
      "hit": false,
      "t": 205281.84750001642,
      "d": 5.040312500001164,
      "v": 51
    },
    {
      "midi": 64,
      "hit": false,
      "t": 205281.84750001642,
      "d": 15.120937500003492,
      "v": 85
    },
    {
      "midi": 60,
      "hit": false,
      "t": 205281.84750001642,
      "d": 15.120937500003492,
      "v": 68
    },
    {
      "midi": 55,
      "hit": false,
      "t": 205296.96843751642,
      "d": 15.120937500003492,
      "v": 93
    },
    {
      "midi": 54,
      "hit": false,
      "t": 205302.00875001642,
      "d": 40.32250000000931,
      "v": 34
    },
    {
      "midi": 82,
      "hit": false,
      "t": 205402.81500001645,
      "d": 10.080625000002328,
      "v": 60
    },
    {
      "midi": 42,
      "hit": false,
      "t": 205402.81500001645,
      "d": 40.32250000000931,
      "v": 82
    },
    {
      "midi": 54,
      "hit": false,
      "t": 205402.81500001645,
      "d": 70.5643750000163,
      "v": 94
    },
    {
      "midi": 64,
      "hit": false,
      "t": 205402.81500001645,
      "d": 75.60468750001746,
      "v": 68
    },
    {
      "midi": 60,
      "hit": false,
      "t": 205402.81500001645,
      "d": 75.60468750001746,
      "v": 75
    },
    {
      "midi": 55,
      "hit": false,
      "t": 205417.93593751645,
      "d": 75.60468750001746,
      "v": 90
    },
    {
      "midi": 66,
      "hit": false,
      "t": 205523.78250001647,
      "d": 15.120937500003492,
      "v": 47
    },
    {
      "midi": 62,
      "hit": false,
      "t": 205523.78250001647,
      "d": 15.120937500003492,
      "v": 78
    },
    {
      "midi": 35,
      "hit": false,
      "t": 205523.78250001647,
      "d": 141.1287500000326,
      "v": 102
    },
    {
      "midi": 47,
      "hit": false,
      "t": 205523.78250001647,
      "d": 322.5800000000745,
      "v": 104
    },
    {
      "midi": 69,
      "hit": false,
      "t": 205523.78250001647,
      "d": 322.5800000000745,
      "v": 47
    },
    {
      "midi": 74,
      "hit": false,
      "t": 205523.78250001647,
      "d": 362.9025000000838,
      "v": 47
    },
    {
      "midi": 98,
      "hit": false,
      "t": 205528.82281251648,
      "d": 10.080625000002328,
      "v": 45
    },
    {
      "midi": 82,
      "hit": false,
      "t": 205528.82281251648,
      "d": 10.080625000002328,
      "v": 58
    },
    {
      "midi": 57,
      "hit": false,
      "t": 205538.90343751648,
      "d": 15.120937500003492,
      "v": 80
    },
    {
      "midi": 54,
      "hit": false,
      "t": 205543.94375001648,
      "d": 40.32250000000931,
      "v": 40
    },
    {
      "midi": 98,
      "hit": false,
      "t": 205644.7500000165,
      "d": 10.080625000002328,
      "v": 84
    },
    {
      "midi": 82,
      "hit": false,
      "t": 205644.7500000165,
      "d": 10.080625000002328,
      "v": 108
    },
    {
      "midi": 66,
      "hit": false,
      "t": 205644.7500000165,
      "d": 15.120937500003492,
      "v": 92
    },
    {
      "midi": 62,
      "hit": false,
      "t": 205644.7500000165,
      "d": 15.120937500003492,
      "v": 88
    },
    {
      "midi": 42,
      "hit": false,
      "t": 205644.7500000165,
      "d": 65.52406250001513,
      "v": 98
    },
    {
      "midi": 40,
      "hit": false,
      "t": 205644.7500000165,
      "d": 70.5643750000163,
      "v": 94
    },
    {
      "midi": 57,
      "hit": false,
      "t": 205659.8709375165,
      "d": 15.120937500003492,
      "v": 86
    },
    {
      "midi": 98,
      "hit": false,
      "t": 205765.71750001653,
      "d": 5.040312500001164,
      "v": 35
    },
    {
      "midi": 82,
      "hit": false,
      "t": 205765.71750001653,
      "d": 5.040312500001164,
      "v": 43
    },
    {
      "midi": 66,
      "hit": false,
      "t": 205765.71750001653,
      "d": 75.60468750001746,
      "v": 68
    },
    {
      "midi": 62,
      "hit": false,
      "t": 205765.71750001653,
      "d": 75.60468750001746,
      "v": 89
    },
    {
      "midi": 57,
      "hit": false,
      "t": 205780.83843751653,
      "d": 75.60468750001746,
      "v": 68
    },
    {
      "midi": 54,
      "hit": false,
      "t": 205785.87875001653,
      "d": 40.32250000000931,
      "v": 39
    },
    {
      "midi": 82,
      "hit": false,
      "t": 205886.68500001656,
      "d": 10.080625000002328,
      "v": 66
    },
    {
      "midi": 55,
      "hit": false,
      "t": 205886.68500001656,
      "d": 15.120937500003492,
      "v": 97
    },
    {
      "midi": 64,
      "hit": false,
      "t": 205886.68500001656,
      "d": 15.120937500003492,
      "v": 79
    },
    {
      "midi": 42,
      "hit": false,
      "t": 205886.68500001656,
      "d": 40.32250000000931,
      "v": 82
    },
    {
      "midi": 54,
      "hit": false,
      "t": 205886.68500001656,
      "d": 85.68531250001979,
      "v": 47
    },
    {
      "midi": 48,
      "hit": false,
      "t": 205886.68500001656,
      "d": 216.73343750005006,
      "v": 104
    },
    {
      "midi": 71,
      "hit": false,
      "t": 205886.68500001656,
      "d": 216.73343750005006,
      "v": 104
    },
    {
      "midi": 36,
      "hit": false,
      "t": 205891.72531251656,
      "d": 136.08843750003143,
      "v": 89
    },
    {
      "midi": 59,
      "hit": false,
      "t": 205901.80593751656,
      "d": 15.120937500003492,
      "v": 78
    },
    {
      "midi": 55,
      "hit": false,
      "t": 206007.6525000166,
      "d": 15.120937500003492,
      "v": 91
    },
    {
      "midi": 64,
      "hit": false,
      "t": 206007.6525000166,
      "d": 15.120937500003492,
      "v": 84
    },
    {
      "midi": 29,
      "hit": false,
      "t": 206007.6525000166,
      "d": 95.76593750002212,
      "v": 45
    },
    {
      "midi": 98,
      "hit": false,
      "t": 206012.6928125166,
      "d": 10.080625000002328,
      "v": 49
    },
    {
      "midi": 82,
      "hit": false,
      "t": 206012.6928125166,
      "d": 10.080625000002328,
      "v": 64
    },
    {
      "midi": 59,
      "hit": false,
      "t": 206022.7734375166,
      "d": 15.120937500003492,
      "v": 98
    },
    {
      "midi": 54,
      "hit": false,
      "t": 206027.8137500166,
      "d": 40.32250000000931,
      "v": 39
    },
    {
      "midi": 98,
      "hit": false,
      "t": 206128.6200000166,
      "d": 10.080625000002328,
      "v": 78
    },
    {
      "midi": 82,
      "hit": false,
      "t": 206128.6200000166,
      "d": 10.080625000002328,
      "v": 102
    },
    {
      "midi": 42,
      "hit": false,
      "t": 206128.6200000166,
      "d": 60.48375000001397,
      "v": 98
    },
    {
      "midi": 35,
      "hit": false,
      "t": 206128.6200000166,
      "d": 90.72562500002095,
      "v": 86
    },
    {
      "midi": 64,
      "hit": false,
      "t": 206128.6200000166,
      "d": 95.76593750002212,
      "v": 70
    },
    {
      "midi": 36,
      "hit": false,
      "t": 206133.66031251661,
      "d": 55.443437500012806,
      "v": 93
    },
    {
      "midi": 59,
      "hit": false,
      "t": 206138.70062501662,
      "d": 95.76593750002212,
      "v": 95
    },
    {
      "midi": 55,
      "hit": false,
      "t": 206143.74093751662,
      "d": 95.76593750002212,
      "v": 78
    },
    {
      "midi": 98,
      "hit": false,
      "t": 206249.58750001664,
      "d": 5.040312500001164,
      "v": 41
    },
    {
      "midi": 82,
      "hit": false,
      "t": 206249.58750001664,
      "d": 5.040312500001164,
      "v": 51
    },
    {
      "midi": 64,
      "hit": false,
      "t": 206249.58750001664,
      "d": 95.76593750002212,
      "v": 95
    },
    {
      "midi": 31,
      "hit": false,
      "t": 206254.62781251664,
      "d": 5.040312500001164,
      "v": 42
    },
    {
      "midi": 59,
      "hit": false,
      "t": 206259.66812501664,
      "d": 95.76593750002212,
      "v": 75
    },
    {
      "midi": 55,
      "hit": false,
      "t": 206264.70843751665,
      "d": 95.76593750002212,
      "v": 86
    },
    {
      "midi": 54,
      "hit": false,
      "t": 206269.74875001665,
      "d": 40.32250000000931,
      "v": 34
    },
    {
      "midi": 82,
      "hit": false,
      "t": 206370.55500001667,
      "d": 10.080625000002328,
      "v": 60
    },
    {
      "midi": 42,
      "hit": false,
      "t": 206370.55500001667,
      "d": 40.32250000000931,
      "v": 73
    },
    {
      "midi": 64,
      "hit": false,
      "t": 206370.55500001667,
      "d": 95.76593750002212,
      "v": 90
    },
    {
      "midi": 36,
      "hit": false,
      "t": 206370.55500001667,
      "d": 297.3784375000687,
      "v": 101
    },
    {
      "midi": 59,
      "hit": false,
      "t": 206380.63562501667,
      "d": 95.76593750002212,
      "v": 89
    },
    {
      "midi": 55,
      "hit": false,
      "t": 206385.67593751667,
      "d": 95.76593750002212,
      "v": 87
    },
    {
      "midi": 54,
      "hit": false,
      "t": 206390.71625001667,
      "d": 70.5643750000163,
      "v": 93
    },
    {
      "midi": 31,
      "hit": false,
      "t": 206491.5225000167,
      "d": 5.040312500001164,
      "v": 34
    },
    {
      "midi": 64,
      "hit": false,
      "t": 206491.5225000167,
      "d": 95.76593750002212,
      "v": 71
    },
    {
      "midi": 98,
      "hit": false,
      "t": 206496.5628125167,
      "d": 10.080625000002328,
      "v": 45
    },
    {
      "midi": 82,
      "hit": false,
      "t": 206496.5628125167,
      "d": 10.080625000002328,
      "v": 58
    },
    {
      "midi": 59,
      "hit": false,
      "t": 206501.6031250167,
      "d": 95.76593750002212,
      "v": 91
    },
    {
      "midi": 55,
      "hit": false,
      "t": 206506.6434375167,
      "d": 95.76593750002212,
      "v": 98
    },
    {
      "midi": 54,
      "hit": false,
      "t": 206511.6837500167,
      "d": 40.32250000000931,
      "v": 31
    },
    {
      "midi": 98,
      "hit": false,
      "t": 206612.49000001673,
      "d": 10.080625000002328,
      "v": 84
    },
    {
      "midi": 82,
      "hit": false,
      "t": 206612.49000001673,
      "d": 10.080625000002328,
      "v": 108
    },
    {
      "midi": 40,
      "hit": false,
      "t": 206612.49000001673,
      "d": 65.52406250001513,
      "v": 91
    },
    {
      "midi": 55,
      "hit": false,
      "t": 206612.49000001673,
      "d": 100.80625000002328,
      "v": 57
    },
    {
      "midi": 64,
      "hit": false,
      "t": 206612.49000001673,
      "d": 100.80625000002328,
      "v": 78
    },
    {
      "midi": 59,
      "hit": false,
      "t": 206612.49000001673,
      "d": 100.80625000002328,
      "v": 78
    },
    {
      "midi": 39,
      "hit": false,
      "t": 206632.65125001673,
      "d": 70.5643750000163,
      "v": 76
    },
    {
      "midi": 40,
      "hit": false,
      "t": 206733.45750001675,
      "d": 5.040312500001164,
      "v": 68
    },
    {
      "midi": 98,
      "hit": false,
      "t": 206733.45750001675,
      "d": 5.040312500001164,
      "v": 35
    },
    {
      "midi": 82,
      "hit": false,
      "t": 206733.45750001675,
      "d": 5.040312500001164,
      "v": 43
    },
    {
      "midi": 36,
      "hit": false,
      "t": 206733.45750001675,
      "d": 5.040312500001164,
      "v": 93
    },
    {
      "midi": 55,
      "hit": false,
      "t": 206733.45750001675,
      "d": 15.120937500003492,
      "v": 95
    },
    {
      "midi": 64,
      "hit": false,
      "t": 206733.45750001675,
      "d": 15.120937500003492,
      "v": 80
    },
    {
      "midi": 59,
      "hit": false,
      "t": 206748.57843751676,
      "d": 15.120937500003492,
      "v": 85
    },
    {
      "midi": 54,
      "hit": false,
      "t": 206753.61875001676,
      "d": 40.32250000000931,
      "v": 39
    },
    {
      "midi": 45,
      "hit": false,
      "t": 206854.42500001678,
      "d": 5.040312500001164,
      "v": 77
    },
    {
      "midi": 82,
      "hit": false,
      "t": 206854.42500001678,
      "d": 10.080625000002328,
      "v": 66
    },
    {
      "midi": 55,
      "hit": false,
      "t": 206854.42500001678,
      "d": 15.120937500003492,
      "v": 72
    },
    {
      "midi": 64,
      "hit": false,
      "t": 206854.42500001678,
      "d": 15.120937500003492,
      "v": 83
    },
    {
      "midi": 54,
      "hit": false,
      "t": 206854.42500001678,
      "d": 85.68531250001979,
      "v": 50
    },
    {
      "midi": 36,
      "hit": false,
      "t": 206859.46531251678,
      "d": 226.8140625000524,
      "v": 93
    },
    {
      "midi": 59,
      "hit": false,
      "t": 206869.54593751678,
      "d": 15.120937500003492,
      "v": 82
    },
    {
      "midi": 55,
      "hit": false,
      "t": 206975.3925000168,
      "d": 15.120937500003492,
      "v": 102
    },
    {
      "midi": 64,
      "hit": false,
      "t": 206975.3925000168,
      "d": 15.120937500003492,
      "v": 107
    },
    {
      "midi": 98,
      "hit": false,
      "t": 206980.4328125168,
      "d": 10.080625000002328,
      "v": 49
    },
    {
      "midi": 82,
      "hit": false,
      "t": 206980.4328125168,
      "d": 10.080625000002328,
      "v": 64
    },
    {
      "midi": 59,
      "hit": false,
      "t": 206990.5134375168,
      "d": 15.120937500003492,
      "v": 79
    },
    {
      "midi": 54,
      "hit": false,
      "t": 206995.5537500168,
      "d": 40.32250000000931,
      "v": 40
    },
    {
      "midi": 49,
      "hit": false,
      "t": 207091.31968751684,
      "d": 5.040312500001164,
      "v": 79
    },
    {
      "midi": 44,
      "hit": false,
      "t": 207096.36000001684,
      "d": 5.040312500001164,
      "v": 64
    },
    {
      "midi": 35,
      "hit": false,
      "t": 207096.36000001684,
      "d": 105.84656249999534,
      "v": 87
    },
    {
      "midi": 52,
      "hit": false,
      "t": 207096.36000001684,
      "d": 322.5799999999872,
      "v": 104
    },
    {
      "midi": 45,
      "hit": false,
      "t": 207096.36000001684,
      "d": 322.5799999999872,
      "v": 104
    },
    {
      "midi": 33,
      "hit": false,
      "t": 207096.36000001684,
      "d": 362.9024999999965,
      "v": 89
    },
    {
      "midi": 60,
      "hit": false,
      "t": 207106.44062501684,
      "d": 100.80624999999418,
      "v": 46
    },
    {
      "midi": 67,
      "hit": false,
      "t": 207116.52125001684,
      "d": 85.68531249999069,
      "v": 50
    },
    {
      "midi": 64,
      "hit": false,
      "t": 207116.52125001684,
      "d": 100.80624999999418,
      "v": 50
    },
    {
      "midi": 60,
      "hit": false,
      "t": 207217.32750001684,
      "d": 5.040312500001164,
      "v": 95
    },
    {
      "midi": 67,
      "hit": false,
      "t": 207217.32750001684,
      "d": 110.88687499999651,
      "v": 47
    },
    {
      "midi": 60,
      "hit": false,
      "t": 207227.40812501684,
      "d": 95.76593749999302,
      "v": 51
    },
    {
      "midi": 64,
      "hit": false,
      "t": 207227.40812501684,
      "d": 110.88687499999651,
      "v": 51
    },
    {
      "midi": 46,
      "hit": false,
      "t": 207333.25468751683,
      "d": 5.040312500001164,
      "v": 69
    },
    {
      "midi": 62,
      "hit": false,
      "t": 207338.29500001683,
      "d": 5.040312500001164,
      "v": 91
    },
    {
      "midi": 60,
      "hit": false,
      "t": 207338.29500001683,
      "d": 80.64499999998952,
      "v": 50
    },
    {
      "midi": 67,
      "hit": false,
      "t": 207348.37562501684,
      "d": 70.5643749999872,
      "v": 56
    },
    {
      "midi": 64,
      "hit": false,
      "t": 207348.37562501684,
      "d": 110.88687499999651,
      "v": 56
    },
    {
      "midi": 63,
      "hit": false,
      "t": 207459.26250001683,
      "d": 5.040312500001164,
      "v": 91
    },
    {
      "midi": 59,
      "hit": false,
      "t": 207459.26250001683,
      "d": 10.080625000002328,
      "v": 96
    },
    {
      "midi": 66,
      "hit": false,
      "t": 207459.26250001683,
      "d": 95.76593749999302,
      "v": 51
    },
    {
      "midi": 35,
      "hit": false,
      "t": 207459.26250001683,
      "d": 110.88687499999651,
      "v": 89
    },
    {
      "midi": 54,
      "hit": false,
      "t": 207459.26250001683,
      "d": 322.5800000000454,
      "v": 104
    },
    {
      "midi": 47,
      "hit": false,
      "t": 207459.26250001683,
      "d": 322.5800000000454,
      "v": 104
    },
    {
      "midi": 69,
      "hit": false,
      "t": 207459.26250001683,
      "d": 322.5800000000454,
      "v": 104
    },
    {
      "midi": 57,
      "hit": false,
      "t": 207469.34312501684,
      "d": 80.64499999998952,
      "v": 51
    },
    {
      "midi": 62,
      "hit": false,
      "t": 207469.34312501684,
      "d": 95.76593749999302,
      "v": 51
    },
    {
      "midi": 44,
      "hit": false,
      "t": 207575.18968751683,
      "d": 5.040312500001164,
      "v": 71
    },
    {
      "midi": 57,
      "hit": false,
      "t": 207580.23000001683,
      "d": 5.040312500001164,
      "v": 56
    },
    {
      "midi": 40,
      "hit": false,
      "t": 207580.23000001683,
      "d": 70.5643750000163,
      "v": 94
    },
    {
      "midi": 35,
      "hit": false,
      "t": 207580.23000001683,
      "d": 105.84656250002445,
      "v": 87
    },
    {
      "midi": 33,
      "hit": false,
      "t": 207580.23000001683,
      "d": 241.93500000005588,
      "v": 101
    },
    {
      "midi": 62,
      "hit": false,
      "t": 207590.31062501683,
      "d": 5.040312500001164,
      "v": 60
    },
    {
      "midi": 66,
      "hit": false,
      "t": 207595.35093751684,
      "d": 5.040312500001164,
      "v": 64
    },
    {
      "midi": 64,
      "hit": false,
      "t": 207701.19750001686,
      "d": 5.040312500001164,
      "v": 91
    },
    {
      "midi": 66,
      "hit": false,
      "t": 207701.19750001686,
      "d": 5.040312500001164,
      "v": 50
    },
    {
      "midi": 62,
      "hit": false,
      "t": 207711.27812501686,
      "d": 5.040312500001164,
      "v": 53
    },
    {
      "midi": 57,
      "hit": false,
      "t": 207716.31843751686,
      "d": 5.040312500001164,
      "v": 55
    },
    {
      "midi": 46,
      "hit": false,
      "t": 207822.1650000169,
      "d": 5.040312500001164,
      "v": 61
    },
    {
      "midi": 63,
      "hit": false,
      "t": 207822.1650000169,
      "d": 5.040312500001164,
      "v": 47
    },
    {
      "midi": 59,
      "hit": false,
      "t": 207822.1650000169,
      "d": 110.88687499999651,
      "v": 49
    },
    {
      "midi": 55,
      "hit": false,
      "t": 207822.1650000169,
      "d": 216.73343749999185,
      "v": 104
    },
    {
      "midi": 48,
      "hit": false,
      "t": 207822.1650000169,
      "d": 216.73343749999185,
      "v": 104
    },
    {
      "midi": 71,
      "hit": false,
      "t": 207822.1650000169,
      "d": 216.73343749999185,
      "v": 104
    },
    {
      "midi": 33,
      "hit": false,
      "t": 207822.1650000169,
      "d": 231.85437499999534,
      "v": 101
    },
    {
      "midi": 67,
      "hit": false,
      "t": 207832.2456250169,
      "d": 95.76593749999302,
      "v": 54
    },
    {
      "midi": 64,
      "hit": false,
      "t": 207832.2456250169,
      "d": 110.88687499999651,
      "v": 54
    },
    {
      "midi": 63,
      "hit": false,
      "t": 207943.1325000169,
      "d": 5.040312500001164,
      "v": 85
    },
    {
      "midi": 67,
      "hit": false,
      "t": 207943.1325000169,
      "d": 5.040312500001164,
      "v": 50
    },
    {
      "midi": 60,
      "hit": false,
      "t": 207943.1325000169,
      "d": 5.040312500001164,
      "v": 107
    },
    {
      "midi": 64,
      "hit": false,
      "t": 207953.2131250169,
      "d": 5.040312500001164,
      "v": 53
    },
    {
      "midi": 59,
      "hit": false,
      "t": 207958.2534375169,
      "d": 5.040312500001164,
      "v": 55
    },
    {
      "midi": 40,
      "hit": false,
      "t": 208064.1000000169,
      "d": 5.040312500001164,
      "v": 93
    },
    {
      "midi": 44,
      "hit": false,
      "t": 208064.1000000169,
      "d": 5.040312500001164,
      "v": 64
    },
    {
      "midi": 59,
      "hit": false,
      "t": 208064.1000000169,
      "d": 5.040312500001164,
      "v": 56
    },
    {
      "midi": 60,
      "hit": false,
      "t": 208064.1000000169,
      "d": 5.040312500001164,
      "v": 102
    },
    {
      "midi": 35,
      "hit": false,
      "t": 208064.1000000169,
      "d": 90.72562499999185,
      "v": 86
    },
    {
      "midi": 31,
      "hit": false,
      "t": 208064.1000000169,
      "d": 473.789374999993,
      "v": 82
    },
    {
      "midi": 64,
      "hit": false,
      "t": 208074.1806250169,
      "d": 5.040312500001164,
      "v": 60
    },
    {
      "midi": 67,
      "hit": false,
      "t": 208079.2209375169,
      "d": 5.040312500001164,
      "v": 64
    },
    {
      "midi": 62,
      "hit": false,
      "t": 208185.06750001688,
      "d": 5.040312500001164,
      "v": 91
    },
    {
      "midi": 59,
      "hit": false,
      "t": 208185.06750001688,
      "d": 110.88687499999651,
      "v": 49
    },
    {
      "midi": 67,
      "hit": false,
      "t": 208195.1481250169,
      "d": 95.76593749999302,
      "v": 54
    },
    {
      "midi": 64,
      "hit": false,
      "t": 208195.1481250169,
      "d": 110.88687499999651,
      "v": 54
    },
    {
      "midi": 40,
      "hit": false,
      "t": 208306.03500001688,
      "d": 5.040312500001164,
      "v": 64
    },
    {
      "midi": 64,
      "hit": false,
      "t": 208306.03500001688,
      "d": 5.040312500001164,
      "v": 78
    },
    {
      "midi": 67,
      "hit": false,
      "t": 208306.03500001688,
      "d": 5.040312500001164,
      "v": 50
    },
    {
      "midi": 64,
      "hit": false,
      "t": 208316.1156250169,
      "d": 5.040312500001164,
      "v": 53
    },
    {
      "midi": 59,
      "hit": false,
      "t": 208321.1559375169,
      "d": 5.040312500001164,
      "v": 55
    },
    {
      "midi": 40,
      "hit": false,
      "t": 208427.00250001688,
      "d": 5.040312500001164,
      "v": 87
    },
    {
      "midi": 64,
      "hit": false,
      "t": 208427.00250001688,
      "d": 5.040312500001164,
      "v": 78
    },
    {
      "midi": 59,
      "hit": false,
      "t": 208427.00250001688,
      "d": 5.040312500001164,
      "v": 56
    },
    {
      "midi": 64,
      "hit": false,
      "t": 208437.08312501688,
      "d": 5.040312500001164,
      "v": 60
    },
    {
      "midi": 67,
      "hit": false,
      "t": 208442.1234375169,
      "d": 5.040312500001164,
      "v": 64
    },
    {
      "midi": 43,
      "hit": false,
      "t": 208547.97000001688,
      "d": 5.040312500001164,
      "v": 86
    },
    {
      "midi": 64,
      "hit": false,
      "t": 208547.97000001688,
      "d": 5.040312500001164,
      "v": 82
    },
    {
      "midi": 35,
      "hit": false,
      "t": 208547.97000001688,
      "d": 90.72562499999185,
      "v": 86
    },
    {
      "midi": 59,
      "hit": false,
      "t": 208547.97000001688,
      "d": 110.88687499999651,
      "v": 49
    },
    {
      "midi": 33,
      "hit": false,
      "t": 208547.97000001688,
      "d": 241.93499999999767,
      "v": 87
    },
    {
      "midi": 44,
      "hit": false,
      "t": 208553.01031251688,
      "d": 5.040312500001164,
      "v": 71
    },
    {
      "midi": 67,
      "hit": false,
      "t": 208558.05062501688,
      "d": 95.76593749999302,
      "v": 54
    },
    {
      "midi": 64,
      "hit": false,
      "t": 208558.05062501688,
      "d": 110.88687499999651,
      "v": 54
    },
    {
      "midi": 40,
      "hit": false,
      "t": 208668.93750001688,
      "d": 5.040312500001164,
      "v": 73
    },
    {
      "midi": 62,
      "hit": false,
      "t": 208668.93750001688,
      "d": 5.040312500001164,
      "v": 93
    },
    {
      "midi": 67,
      "hit": false,
      "t": 208668.93750001688,
      "d": 110.88687499999651,
      "v": 47
    },
    {
      "midi": 59,
      "hit": false,
      "t": 208679.01812501688,
      "d": 95.76593749999302,
      "v": 51
    },
    {
      "midi": 64,
      "hit": false,
      "t": 208679.01812501688,
      "d": 110.88687499999651,
      "v": 51
    },
    {
      "midi": 40,
      "hit": false,
      "t": 208789.90500001688,
      "d": 5.040312500001164,
      "v": 95
    },
    {
      "midi": 59,
      "hit": false,
      "t": 208789.90500001688,
      "d": 5.040312500001164,
      "v": 56
    },
    {
      "midi": 64,
      "hit": false,
      "t": 208799.98562501688,
      "d": 5.040312500001164,
      "v": 60
    },
    {
      "midi": 31,
      "hit": false,
      "t": 208799.98562501688,
      "d": 221.77374999999302,
      "v": 76
    },
    {
      "midi": 67,
      "hit": false,
      "t": 208805.02593751688,
      "d": 5.040312500001164,
      "v": 64
    },
    {
      "midi": 67,
      "hit": false,
      "t": 208920.95312501688,
      "d": 5.040312500001164,
      "v": 50
    },
    {
      "midi": 64,
      "hit": false,
      "t": 208931.03375001688,
      "d": 5.040312500001164,
      "v": 53
    },
    {
      "midi": 59,
      "hit": false,
      "t": 208936.07406251688,
      "d": 5.040312500001164,
      "v": 55
    },
    {
      "midi": 57,
      "hit": false,
      "t": 209026.79968751688,
      "d": 5.040312500001164,
      "v": 79
    },
    {
      "midi": 98,
      "hit": false,
      "t": 209031.84000001688,
      "d": 10.080625000002328,
      "v": 78
    },
    {
      "midi": 82,
      "hit": false,
      "t": 209031.84000001688,
      "d": 10.080625000002328,
      "v": 102
    },
    {
      "midi": 42,
      "hit": false,
      "t": 209031.84000001688,
      "d": 45.36281250001048,
      "v": 95
    },
    {
      "midi": 55,
      "hit": false,
      "t": 209031.84000001688,
      "d": 50.40312500001164,
      "v": 58
    },
    {
      "midi": 60,
      "hit": false,
      "t": 209031.84000001688,
      "d": 60.48375000001397,
      "v": 53
    },
    {
      "midi": 35,
      "hit": false,
      "t": 209031.84000001688,
      "d": 105.84656250002445,
      "v": 87
    },
    {
      "midi": 36,
      "hit": false,
      "t": 209031.84000001688,
      "d": 307.459062500071,
      "v": 105
    },
    {
      "midi": 52,
      "hit": false,
      "t": 209031.84000001688,
      "d": 866.9337500002002,
      "v": 104
    },
    {
      "midi": 48,
      "hit": false,
      "t": 209031.84000001688,
      "d": 866.9337500002002,
      "v": 104
    },
    {
      "midi": 71,
      "hit": false,
      "t": 209031.84000001688,
      "d": 967.7400000002235,
      "v": 47
    },
    {
      "midi": 59,
      "hit": false,
      "t": 209036.88031251688,
      "d": 40.32250000000931,
      "v": 54
    },
    {
      "midi": 64,
      "hit": false,
      "t": 209041.92062501688,
      "d": 65.52406250001513,
      "v": 54
    },
    {
      "midi": 98,
      "hit": false,
      "t": 209152.8075000169,
      "d": 5.040312500001164,
      "v": 41
    },
    {
      "midi": 82,
      "hit": false,
      "t": 209152.8075000169,
      "d": 5.040312500001164,
      "v": 51
    },
    {
      "midi": 55,
      "hit": false,
      "t": 209152.8075000169,
      "d": 10.080625000002328,
      "v": 56
    },
    {
      "midi": 59,
      "hit": false,
      "t": 209157.8478125169,
      "d": 10.080625000002328,
      "v": 54
    },
    {
      "midi": 64,
      "hit": false,
      "t": 209162.8881250169,
      "d": 70.5643750000163,
      "v": 56
    },
    {
      "midi": 54,
      "hit": false,
      "t": 209172.9687500169,
      "d": 40.32250000000931,
      "v": 34
    },
    {
      "midi": 82,
      "hit": false,
      "t": 209273.77500001693,
      "d": 10.080625000002328,
      "v": 60
    },
    {
      "midi": 42,
      "hit": false,
      "t": 209273.77500001693,
      "d": 40.32250000000931,
      "v": 82
    },
    {
      "midi": 54,
      "hit": false,
      "t": 209273.77500001693,
      "d": 70.5643750000163,
      "v": 94
    },
    {
      "midi": 67,
      "hit": false,
      "t": 209273.77500001693,
      "d": 216.73343750005006,
      "v": 104
    },
    {
      "midi": 55,
      "hit": false,
      "t": 209394.74250001696,
      "d": 5.040312500001164,
      "v": 22
    },
    {
      "midi": 60,
      "hit": false,
      "t": 209394.74250001696,
      "d": 5.040312500001164,
      "v": 35
    },
    {
      "midi": 36,
      "hit": false,
      "t": 209394.74250001696,
      "d": 90.72562500002095,
      "v": 102
    },
    {
      "midi": 98,
      "hit": false,
      "t": 209399.78281251696,
      "d": 10.080625000002328,
      "v": 45
    },
    {
      "midi": 82,
      "hit": false,
      "t": 209399.78281251696,
      "d": 10.080625000002328,
      "v": 58
    },
    {
      "midi": 59,
      "hit": false,
      "t": 209399.78281251696,
      "d": 45.36281250001048,
      "v": 29
    },
    {
      "midi": 64,
      "hit": false,
      "t": 209404.82312501696,
      "d": 50.40312500001164,
      "v": 26
    },
    {
      "midi": 54,
      "hit": false,
      "t": 209414.90375001697,
      "d": 40.32250000000931,
      "v": 40
    },
    {
      "midi": 98,
      "hit": false,
      "t": 209515.710000017,
      "d": 10.080625000002328,
      "v": 84
    },
    {
      "midi": 82,
      "hit": false,
      "t": 209515.710000017,
      "d": 10.080625000002328,
      "v": 108
    },
    {
      "midi": 55,
      "hit": false,
      "t": 209515.710000017,
      "d": 25.20156250000582,
      "v": 67
    },
    {
      "midi": 42,
      "hit": false,
      "t": 209515.710000017,
      "d": 65.52406250001513,
      "v": 98
    },
    {
      "midi": 40,
      "hit": false,
      "t": 209515.710000017,
      "d": 70.5643750000163,
      "v": 94
    },
    {
      "midi": 60,
      "hit": false,
      "t": 209515.710000017,
      "d": 70.5643750000163,
      "v": 61
    },
    {
      "midi": 67,
      "hit": false,
      "t": 209515.710000017,
      "d": 216.73343750005006,
      "v": 104
    },
    {
      "midi": 31,
      "hit": false,
      "t": 209515.710000017,
      "d": 297.3784375000687,
      "v": 105
    },
    {
      "midi": 59,
      "hit": false,
      "t": 209520.750312517,
      "d": 10.080625000002328,
      "v": 49
    },
    {
      "midi": 64,
      "hit": false,
      "t": 209525.790625017,
      "d": 10.080625000002328,
      "v": 54
    },
    {
      "midi": 98,
      "hit": false,
      "t": 209636.67750001702,
      "d": 5.040312500001164,
      "v": 35
    },
    {
      "midi": 82,
      "hit": false,
      "t": 209636.67750001702,
      "d": 5.040312500001164,
      "v": 43
    },
    {
      "midi": 54,
      "hit": false,
      "t": 209656.83875001702,
      "d": 40.32250000000931,
      "v": 39
    },
    {
      "midi": 55,
      "hit": false,
      "t": 209757.64500001704,
      "d": 5.040312500001164,
      "v": 22
    },
    {
      "midi": 82,
      "hit": false,
      "t": 209757.64500001704,
      "d": 10.080625000002328,
      "v": 66
    },
    {
      "midi": 42,
      "hit": false,
      "t": 209757.64500001704,
      "d": 40.32250000000931,
      "v": 82
    },
    {
      "midi": 54,
      "hit": false,
      "t": 209757.64500001704,
      "d": 85.68531250001979,
      "v": 47
    },
    {
      "midi": 67,
      "hit": false,
      "t": 209757.64500001704,
      "d": 216.73343750005006,
      "v": 104
    },
    {
      "midi": 59,
      "hit": false,
      "t": 209762.68531251705,
      "d": 55.443437500012806,
      "v": 22
    },
    {
      "midi": 64,
      "hit": false,
      "t": 209767.72562501705,
      "d": 50.40312500001164,
      "v": 22
    },
    {
      "midi": 55,
      "hit": false,
      "t": 209878.61250001707,
      "d": 65.52406250001513,
      "v": 65
    },
    {
      "midi": 60,
      "hit": false,
      "t": 209878.61250001707,
      "d": 80.64500000001863,
      "v": 66
    },
    {
      "midi": 31,
      "hit": false,
      "t": 209883.65281251707,
      "d": 5.040312500001164,
      "v": 35
    },
    {
      "midi": 98,
      "hit": false,
      "t": 209883.65281251707,
      "d": 10.080625000002328,
      "v": 49
    },
    {
      "midi": 82,
      "hit": false,
      "t": 209883.65281251707,
      "d": 10.080625000002328,
      "v": 64
    },
    {
      "midi": 59,
      "hit": false,
      "t": 209883.65281251707,
      "d": 65.52406250001513,
      "v": 67
    },
    {
      "midi": 64,
      "hit": false,
      "t": 209888.69312501707,
      "d": 80.64500000001863,
      "v": 55
    },
    {
      "midi": 54,
      "hit": false,
      "t": 209898.77375001708,
      "d": 40.32250000000931,
      "v": 39
    },
    {
      "midi": 98,
      "hit": false,
      "t": 209999.5800000171,
      "d": 10.080625000002328,
      "v": 78
    },
    {
      "midi": 82,
      "hit": false,
      "t": 209999.5800000171,
      "d": 10.080625000002328,
      "v": 102
    },
    {
      "midi": 55,
      "hit": false,
      "t": 209999.5800000171,
      "d": 10.080625000002328,
      "v": 54
    },
    {
      "midi": 42,
      "hit": false,
      "t": 209999.5800000171,
      "d": 60.48375000001397,
      "v": 98
    },
    {
      "midi": 35,
      "hit": false,
      "t": 209999.5800000171,
      "d": 90.72562500002095,
      "v": 86
    },
    {
      "midi": 67,
      "hit": false,
      "t": 209999.5800000171,
      "d": 216.73343750005006,
      "v": 47
    },
    {
      "midi": 37,
      "hit": false,
      "t": 209999.5800000171,
      "d": 282.2575000000652,
      "v": 102
    },
    {
      "midi": 52,
      "hit": false,
      "t": 209999.5800000171,
      "d": 866.9337500002002,
      "v": 104
    },
    {
      "midi": 49,
      "hit": false,
      "t": 209999.5800000171,
      "d": 866.9337500002002,
      "v": 104
    },
    {
      "midi": 70,
      "hit": false,
      "t": 209999.5800000171,
      "d": 967.7400000002235,
      "v": 47
    },
    {
      "midi": 58,
      "hit": false,
      "t": 210004.6203125171,
      "d": 10.080625000002328,
      "v": 41
    },
    {
      "midi": 64,
      "hit": false,
      "t": 210009.6606250171,
      "d": 10.080625000002328,
      "v": 49
    },
    {
      "midi": 98,
      "hit": false,
      "t": 210120.54750001713,
      "d": 5.040312500001164,
      "v": 41
    },
    {
      "midi": 82,
      "hit": false,
      "t": 210120.54750001713,
      "d": 5.040312500001164,
      "v": 51
    },
    {
      "midi": 58,
      "hit": false,
      "t": 210120.54750001713,
      "d": 50.40312500001164,
      "v": 22
    },
    {
      "midi": 64,
      "hit": false,
      "t": 210125.58781251713,
      "d": 55.443437500012806,
      "v": 22
    },
    {
      "midi": 54,
      "hit": false,
      "t": 210140.70875001713,
      "d": 40.32250000000931,
      "v": 34
    },
    {
      "midi": 82,
      "hit": false,
      "t": 210241.51500001716,
      "d": 10.080625000002328,
      "v": 60
    },
    {
      "midi": 55,
      "hit": false,
      "t": 210241.51500001716,
      "d": 10.080625000002328,
      "v": 55
    },
    {
      "midi": 42,
      "hit": false,
      "t": 210241.51500001716,
      "d": 40.32250000000931,
      "v": 73
    },
    {
      "midi": 61,
      "hit": false,
      "t": 210241.51500001716,
      "d": 70.5643750000163,
      "v": 61
    },
    {
      "midi": 58,
      "hit": false,
      "t": 210246.55531251716,
      "d": 10.080625000002328,
      "v": 55
    },
    {
      "midi": 64,
      "hit": false,
      "t": 210251.59562501716,
      "d": 25.20156250000582,
      "v": 55
    },
    {
      "midi": 54,
      "hit": false,
      "t": 210261.67625001716,
      "d": 70.5643750000163,
      "v": 93
    },
    {
      "midi": 37,
      "hit": false,
      "t": 210362.48250001718,
      "d": 90.72562500002095,
      "v": 97
    },
    {
      "midi": 98,
      "hit": false,
      "t": 210367.52281251719,
      "d": 10.080625000002328,
      "v": 45
    },
    {
      "midi": 82,
      "hit": false,
      "t": 210367.52281251719,
      "d": 10.080625000002328,
      "v": 58
    },
    {
      "midi": 54,
      "hit": false,
      "t": 210382.6437500172,
      "d": 40.32250000000931,
      "v": 31
    },
    {
      "midi": 98,
      "hit": false,
      "t": 210483.4500000172,
      "d": 10.080625000002328,
      "v": 84
    },
    {
      "midi": 82,
      "hit": false,
      "t": 210483.4500000172,
      "d": 10.080625000002328,
      "v": 108
    },
    {
      "midi": 61,
      "hit": false,
      "t": 210483.4500000172,
      "d": 45.36281250001048,
      "v": 51
    },
    {
      "midi": 55,
      "hit": false,
      "t": 210483.4500000172,
      "d": 50.40312500001164,
      "v": 54
    },
    {
      "midi": 42,
      "hit": false,
      "t": 210483.4500000172,
      "d": 65.52406250001513,
      "v": 98
    },
    {
      "midi": 40,
      "hit": false,
      "t": 210483.4500000172,
      "d": 65.52406250001513,
      "v": 91
    },
    {
      "midi": 28,
      "hit": false,
      "t": 210483.4500000172,
      "d": 216.73343750005006,
      "v": 102
    },
    {
      "midi": 67,
      "hit": false,
      "t": 210483.4500000172,
      "d": 216.73343750005006,
      "v": 104
    },
    {
      "midi": 58,
      "hit": false,
      "t": 210488.4903125172,
      "d": 45.36281250001048,
      "v": 49
    },
    {
      "midi": 64,
      "hit": false,
      "t": 210493.5306250172,
      "d": 70.5643750000163,
      "v": 56
    },
    {
      "midi": 39,
      "hit": false,
      "t": 210503.61125001722,
      "d": 70.5643750000163,
      "v": 76
    },
    {
      "midi": 98,
      "hit": false,
      "t": 210604.41750001724,
      "d": 5.040312500001164,
      "v": 35
    },
    {
      "midi": 82,
      "hit": false,
      "t": 210604.41750001724,
      "d": 5.040312500001164,
      "v": 43
    },
    {
      "midi": 55,
      "hit": false,
      "t": 210604.41750001724,
      "d": 45.36281250001048,
      "v": 23
    },
    {
      "midi": 61,
      "hit": false,
      "t": 210604.41750001724,
      "d": 45.36281250001048,
      "v": 42
    },
    {
      "midi": 58,
      "hit": false,
      "t": 210609.45781251724,
      "d": 50.40312500001164,
      "v": 47
    },
    {
      "midi": 64,
      "hit": false,
      "t": 210614.49812501724,
      "d": 45.36281250001048,
      "v": 38
    },
    {
      "midi": 54,
      "hit": false,
      "t": 210624.57875001724,
      "d": 40.32250000000931,
      "v": 39
    },
    {
      "midi": 82,
      "hit": false,
      "t": 210725.38500001727,
      "d": 10.080625000002328,
      "v": 66
    },
    {
      "midi": 42,
      "hit": false,
      "t": 210725.38500001727,
      "d": 60.48375000001397,
      "v": 82
    },
    {
      "midi": 54,
      "hit": false,
      "t": 210725.38500001727,
      "d": 85.68531250001979,
      "v": 50
    },
    {
      "midi": 31,
      "hit": false,
      "t": 210725.38500001727,
      "d": 141.1287500000326,
      "v": 97
    },
    {
      "midi": 55,
      "hit": false,
      "t": 210846.3525000173,
      "d": 10.080625000002328,
      "v": 51
    },
    {
      "midi": 58,
      "hit": false,
      "t": 210851.3928125173,
      "d": 5.040312500001164,
      "v": 49
    },
    {
      "midi": 98,
      "hit": false,
      "t": 210851.3928125173,
      "d": 10.080625000002328,
      "v": 49
    },
    {
      "midi": 82,
      "hit": false,
      "t": 210851.3928125173,
      "d": 10.080625000002328,
      "v": 64
    },
    {
      "midi": 64,
      "hit": false,
      "t": 210856.4331250173,
      "d": 10.080625000002328,
      "v": 54
    },
    {
      "midi": 54,
      "hit": false,
      "t": 210866.5137500173,
      "d": 40.32250000000931,
      "v": 40
    },
    {
      "midi": 98,
      "hit": false,
      "t": 210967.32000001732,
      "d": 10.080625000002328,
      "v": 78
    },
    {
      "midi": 82,
      "hit": false,
      "t": 210967.32000001732,
      "d": 10.080625000002328,
      "v": 102
    },
    {
      "midi": 42,
      "hit": false,
      "t": 210967.32000001732,
      "d": 45.36281250001048,
      "v": 95
    },
    {
      "midi": 57,
      "hit": false,
      "t": 210967.32000001732,
      "d": 50.40312500001164,
      "v": 58
    },
    {
      "midi": 35,
      "hit": false,
      "t": 210967.32000001732,
      "d": 105.84656250002445,
      "v": 87
    },
    {
      "midi": 38,
      "hit": false,
      "t": 210967.32000001732,
      "d": 307.459062500071,
      "v": 105
    },
    {
      "midi": 50,
      "hit": false,
      "t": 210967.32000001732,
      "d": 650.2003125001502,
      "v": 104
    },
    {
      "midi": 69,
      "hit": false,
      "t": 210967.32000001732,
      "d": 1708.6659375003946,
      "v": 47
    },
    {
      "midi": 74,
      "hit": false,
      "t": 210967.32000001732,
      "d": 1935.480000000447,
      "v": 47
    },
    {
      "midi": 62,
      "hit": false,
      "t": 210972.36031251732,
      "d": 40.32250000000931,
      "v": 54
    },
    {
      "midi": 66,
      "hit": false,
      "t": 210977.40062501733,
      "d": 65.52406250001513,
      "v": 54
    },
    {
      "midi": 98,
      "hit": false,
      "t": 211088.28750001735,
      "d": 5.040312500001164,
      "v": 41
    },
    {
      "midi": 82,
      "hit": false,
      "t": 211088.28750001735,
      "d": 5.040312500001164,
      "v": 51
    },
    {
      "midi": 57,
      "hit": false,
      "t": 211088.28750001735,
      "d": 10.080625000002328,
      "v": 56
    },
    {
      "midi": 62,
      "hit": false,
      "t": 211093.32781251735,
      "d": 10.080625000002328,
      "v": 54
    },
    {
      "midi": 66,
      "hit": false,
      "t": 211098.36812501735,
      "d": 70.5643750000163,
      "v": 56
    },
    {
      "midi": 54,
      "hit": false,
      "t": 211108.44875001736,
      "d": 40.32250000000931,
      "v": 34
    },
    {
      "midi": 82,
      "hit": false,
      "t": 211209.25500001738,
      "d": 10.080625000002328,
      "v": 60
    },
    {
      "midi": 42,
      "hit": false,
      "t": 211209.25500001738,
      "d": 40.32250000000931,
      "v": 82
    },
    {
      "midi": 54,
      "hit": false,
      "t": 211209.25500001738,
      "d": 70.5643750000163,
      "v": 94
    },
    {
      "midi": 57,
      "hit": false,
      "t": 211330.2225000174,
      "d": 5.040312500001164,
      "v": 22
    },
    {
      "midi": 62,
      "hit": false,
      "t": 211330.2225000174,
      "d": 5.040312500001164,
      "v": 35
    },
    {
      "midi": 38,
      "hit": false,
      "t": 211330.2225000174,
      "d": 90.72562500002095,
      "v": 102
    },
    {
      "midi": 98,
      "hit": false,
      "t": 211335.2628125174,
      "d": 10.080625000002328,
      "v": 45
    },
    {
      "midi": 82,
      "hit": false,
      "t": 211335.2628125174,
      "d": 10.080625000002328,
      "v": 58
    },
    {
      "midi": 62,
      "hit": false,
      "t": 211335.2628125174,
      "d": 45.36281250001048,
      "v": 29
    },
    {
      "midi": 66,
      "hit": false,
      "t": 211340.3031250174,
      "d": 50.40312500001164,
      "v": 26
    },
    {
      "midi": 54,
      "hit": false,
      "t": 211350.3837500174,
      "d": 40.32250000000931,
      "v": 40
    },
    {
      "midi": 98,
      "hit": false,
      "t": 211451.19000001744,
      "d": 10.080625000002328,
      "v": 84
    },
    {
      "midi": 82,
      "hit": false,
      "t": 211451.19000001744,
      "d": 10.080625000002328,
      "v": 108
    },
    {
      "midi": 57,
      "hit": false,
      "t": 211451.19000001744,
      "d": 25.20156250000582,
      "v": 67
    },
    {
      "midi": 42,
      "hit": false,
      "t": 211451.19000001744,
      "d": 65.52406250001513,
      "v": 98
    },
    {
      "midi": 40,
      "hit": false,
      "t": 211451.19000001744,
      "d": 70.5643750000163,
      "v": 94
    },
    {
      "midi": 33,
      "hit": false,
      "t": 211451.19000001744,
      "d": 297.3784375000687,
      "v": 105
    },
    {
      "midi": 62,
      "hit": false,
      "t": 211456.23031251744,
      "d": 10.080625000002328,
      "v": 49
    },
    {
      "midi": 66,
      "hit": false,
      "t": 211461.27062501744,
      "d": 10.080625000002328,
      "v": 54
    },
    {
      "midi": 98,
      "hit": false,
      "t": 211572.15750001746,
      "d": 5.040312500001164,
      "v": 35
    },
    {
      "midi": 82,
      "hit": false,
      "t": 211572.15750001746,
      "d": 5.040312500001164,
      "v": 43
    },
    {
      "midi": 54,
      "hit": false,
      "t": 211592.31875001747,
      "d": 25.20156250000582,
      "v": 39
    },
    {
      "midi": 57,
      "hit": false,
      "t": 211693.1250000175,
      "d": 5.040312500001164,
      "v": 22
    },
    {
      "midi": 82,
      "hit": false,
      "t": 211693.1250000175,
      "d": 10.080625000002328,
      "v": 66
    },
    {
      "midi": 42,
      "hit": false,
      "t": 211693.1250000175,
      "d": 40.32250000000931,
      "v": 82
    },
    {
      "midi": 54,
      "hit": false,
      "t": 211693.1250000175,
      "d": 85.68531250001979,
      "v": 47
    },
    {
      "midi": 55,
      "hit": false,
      "t": 211693.1250000175,
      "d": 650.2003125001502,
      "v": 104
    },
    {
      "midi": 52,
      "hit": false,
      "t": 211693.1250000175,
      "d": 650.2003125001502,
      "v": 104
    },
    {
      "midi": 62,
      "hit": false,
      "t": 211698.1653125175,
      "d": 55.443437500012806,
      "v": 22
    },
    {
      "midi": 66,
      "hit": false,
      "t": 211703.2056250175,
      "d": 50.40312500001164,
      "v": 22
    },
    {
      "midi": 57,
      "hit": false,
      "t": 211814.09250001752,
      "d": 65.52406250001513,
      "v": 65
    },
    {
      "midi": 33,
      "hit": false,
      "t": 211814.09250001752,
      "d": 90.72562500002095,
      "v": 102
    },
    {
      "midi": 31,
      "hit": false,
      "t": 211819.13281251752,
      "d": 5.040312500001164,
      "v": 35
    },
    {
      "midi": 98,
      "hit": false,
      "t": 211819.13281251752,
      "d": 10.080625000002328,
      "v": 49
    },
    {
      "midi": 82,
      "hit": false,
      "t": 211819.13281251752,
      "d": 10.080625000002328,
      "v": 64
    },
    {
      "midi": 62,
      "hit": false,
      "t": 211819.13281251752,
      "d": 65.52406250001513,
      "v": 67
    },
    {
      "midi": 66,
      "hit": false,
      "t": 211824.17312501752,
      "d": 80.64500000001863,
      "v": 55
    },
    {
      "midi": 54,
      "hit": false,
      "t": 211834.25375001752,
      "d": 40.32250000000931,
      "v": 39
    },
    {
      "midi": 98,
      "hit": false,
      "t": 211935.06000001755,
      "d": 10.080625000002328,
      "v": 78
    },
    {
      "midi": 82,
      "hit": false,
      "t": 211935.06000001755,
      "d": 10.080625000002328,
      "v": 102
    },
    {
      "midi": 57,
      "hit": false,
      "t": 211935.06000001755,
      "d": 10.080625000002328,
      "v": 54
    },
    {
      "midi": 42,
      "hit": false,
      "t": 211935.06000001755,
      "d": 60.48375000001397,
      "v": 98
    },
    {
      "midi": 35,
      "hit": false,
      "t": 211935.06000001755,
      "d": 90.72562500002095,
      "v": 86
    },
    {
      "midi": 38,
      "hit": false,
      "t": 211935.06000001755,
      "d": 211.6931250000489,
      "v": 105
    },
    {
      "midi": 62,
      "hit": false,
      "t": 211940.10031251755,
      "d": 10.080625000002328,
      "v": 41
    },
    {
      "midi": 66,
      "hit": false,
      "t": 211945.14062501755,
      "d": 10.080625000002328,
      "v": 49
    },
    {
      "midi": 31,
      "hit": false,
      "t": 212056.02750001758,
      "d": 5.040312500001164,
      "v": 30
    },
    {
      "midi": 98,
      "hit": false,
      "t": 212056.02750001758,
      "d": 5.040312500001164,
      "v": 41
    },
    {
      "midi": 82,
      "hit": false,
      "t": 212056.02750001758,
      "d": 5.040312500001164,
      "v": 51
    },
    {
      "midi": 62,
      "hit": false,
      "t": 212056.02750001758,
      "d": 50.40312500001164,
      "v": 22
    },
    {
      "midi": 66,
      "hit": false,
      "t": 212061.06781251758,
      "d": 55.443437500012806,
      "v": 22
    },
    {
      "midi": 54,
      "hit": false,
      "t": 212076.18875001758,
      "d": 40.32250000000931,
      "v": 34
    },
    {
      "midi": 82,
      "hit": false,
      "t": 212176.9950000176,
      "d": 10.080625000002328,
      "v": 60
    },
    {
      "midi": 57,
      "hit": false,
      "t": 212176.9950000176,
      "d": 10.080625000002328,
      "v": 55
    },
    {
      "midi": 42,
      "hit": false,
      "t": 212176.9950000176,
      "d": 40.32250000000931,
      "v": 73
    },
    {
      "midi": 38,
      "hit": false,
      "t": 212176.9950000176,
      "d": 206.65281250004773,
      "v": 105
    },
    {
      "midi": 62,
      "hit": false,
      "t": 212182.0353125176,
      "d": 10.080625000002328,
      "v": 55
    },
    {
      "midi": 66,
      "hit": false,
      "t": 212187.0756250176,
      "d": 25.20156250000582,
      "v": 55
    },
    {
      "midi": 54,
      "hit": false,
      "t": 212197.1562500176,
      "d": 70.5643750000163,
      "v": 93
    },
    {
      "midi": 98,
      "hit": false,
      "t": 212303.00281251763,
      "d": 10.080625000002328,
      "v": 45
    },
    {
      "midi": 82,
      "hit": false,
      "t": 212303.00281251763,
      "d": 10.080625000002328,
      "v": 58
    },
    {
      "midi": 54,
      "hit": false,
      "t": 212318.12375001764,
      "d": 40.32250000000931,
      "v": 31
    },
    {
      "midi": 98,
      "hit": false,
      "t": 212418.93000001766,
      "d": 10.080625000002328,
      "v": 84
    },
    {
      "midi": 82,
      "hit": false,
      "t": 212418.93000001766,
      "d": 10.080625000002328,
      "v": 108
    },
    {
      "midi": 57,
      "hit": false,
      "t": 212418.93000001766,
      "d": 50.40312500001164,
      "v": 54
    },
    {
      "midi": 42,
      "hit": false,
      "t": 212418.93000001766,
      "d": 65.52406250001513,
      "v": 98
    },
    {
      "midi": 40,
      "hit": false,
      "t": 212418.93000001766,
      "d": 65.52406250001513,
      "v": 91
    },
    {
      "midi": 30,
      "hit": false,
      "t": 212418.93000001766,
      "d": 191.53187500004424,
      "v": 102
    },
    {
      "midi": 56,
      "hit": false,
      "t": 212418.93000001766,
      "d": 433.4668750001001,
      "v": 104
    },
    {
      "midi": 53,
      "hit": false,
      "t": 212418.93000001766,
      "d": 433.4668750001001,
      "v": 104
    },
    {
      "midi": 62,
      "hit": false,
      "t": 212423.97031251766,
      "d": 40.32250000000931,
      "v": 49
    },
    {
      "midi": 66,
      "hit": false,
      "t": 212429.01062501766,
      "d": 70.5643750000163,
      "v": 56
    },
    {
      "midi": 39,
      "hit": false,
      "t": 212439.09125001766,
      "d": 70.5643750000163,
      "v": 76
    },
    {
      "midi": 98,
      "hit": false,
      "t": 212539.8975000177,
      "d": 5.040312500001164,
      "v": 35
    },
    {
      "midi": 82,
      "hit": false,
      "t": 212539.8975000177,
      "d": 5.040312500001164,
      "v": 43
    },
    {
      "midi": 57,
      "hit": false,
      "t": 212539.8975000177,
      "d": 45.36281250001048,
      "v": 23
    },
    {
      "midi": 62,
      "hit": false,
      "t": 212544.9378125177,
      "d": 40.32250000000931,
      "v": 47
    },
    {
      "midi": 66,
      "hit": false,
      "t": 212549.9781250177,
      "d": 45.36281250001048,
      "v": 38
    },
    {
      "midi": 54,
      "hit": false,
      "t": 212560.0587500177,
      "d": 40.32250000000931,
      "v": 39
    },
    {
      "midi": 82,
      "hit": false,
      "t": 212660.86500001771,
      "d": 10.080625000002328,
      "v": 66
    },
    {
      "midi": 42,
      "hit": false,
      "t": 212660.86500001771,
      "d": 60.48375000001397,
      "v": 82
    },
    {
      "midi": 54,
      "hit": false,
      "t": 212660.86500001771,
      "d": 85.68531250001979,
      "v": 50
    },
    {
      "midi": 33,
      "hit": false,
      "t": 212660.86500001771,
      "d": 161.29000000003725,
      "v": 105
    },
    {
      "midi": 57,
      "hit": false,
      "t": 212781.83250001774,
      "d": 10.080625000002328,
      "v": 51
    },
    {
      "midi": 62,
      "hit": false,
      "t": 212786.87281251774,
      "d": 5.040312500001164,
      "v": 49
    },
    {
      "midi": 98,
      "hit": false,
      "t": 212786.87281251774,
      "d": 10.080625000002328,
      "v": 49
    },
    {
      "midi": 82,
      "hit": false,
      "t": 212786.87281251774,
      "d": 10.080625000002328,
      "v": 64
    },
    {
      "midi": 66,
      "hit": false,
      "t": 212791.91312501775,
      "d": 10.080625000002328,
      "v": 54
    },
    {
      "midi": 54,
      "hit": false,
      "t": 212801.99375001775,
      "d": 40.32250000000931,
      "v": 40
    },
    {
      "midi": 98,
      "hit": false,
      "t": 212902.80000001777,
      "d": 10.080625000002328,
      "v": 78
    },
    {
      "midi": 82,
      "hit": false,
      "t": 212902.80000001777,
      "d": 10.080625000002328,
      "v": 102
    },
    {
      "midi": 42,
      "hit": false,
      "t": 212902.80000001777,
      "d": 45.36281250001048,
      "v": 95
    },
    {
      "midi": 35,
      "hit": false,
      "t": 212902.80000001777,
      "d": 105.84656250002445,
      "v": 87
    },
    {
      "midi": 57,
      "hit": false,
      "t": 212902.80000001777,
      "d": 115.92718750002678,
      "v": 93
    },
    {
      "midi": 38,
      "hit": false,
      "t": 212902.80000001777,
      "d": 307.459062500071,
      "v": 105
    },
    {
      "midi": 50,
      "hit": false,
      "t": 212902.80000001777,
      "d": 433.4668750001001,
      "v": 104
    },
    {
      "midi": 74,
      "hit": false,
      "t": 212902.80000001777,
      "d": 1935.480000000418,
      "v": 47
    },
    {
      "midi": 62,
      "hit": false,
      "t": 212912.88062501777,
      "d": 120.96750000002794,
      "v": 86
    },
    {
      "midi": 98,
      "hit": false,
      "t": 213023.7675000178,
      "d": 5.040312500001164,
      "v": 41
    },
    {
      "midi": 82,
      "hit": false,
      "t": 213023.7675000178,
      "d": 5.040312500001164,
      "v": 51
    },
    {
      "midi": 57,
      "hit": false,
      "t": 213023.7675000178,
      "d": 15.120937500003492,
      "v": 86
    },
    {
      "midi": 66,
      "hit": false,
      "t": 213023.7675000178,
      "d": 15.120937500003492,
      "v": 69
    },
    {
      "midi": 62,
      "hit": false,
      "t": 213038.8884375178,
      "d": 15.120937500003492,
      "v": 94
    },
    {
      "midi": 54,
      "hit": false,
      "t": 213043.9287500178,
      "d": 40.32250000000931,
      "v": 34
    },
    {
      "midi": 82,
      "hit": false,
      "t": 213144.73500001783,
      "d": 10.080625000002328,
      "v": 60
    },
    {
      "midi": 42,
      "hit": false,
      "t": 213144.73500001783,
      "d": 40.32250000000931,
      "v": 82
    },
    {
      "midi": 57,
      "hit": false,
      "t": 213144.73500001783,
      "d": 45.36281250001048,
      "v": 69
    },
    {
      "midi": 54,
      "hit": false,
      "t": 213144.73500001783,
      "d": 70.5643750000163,
      "v": 94
    },
    {
      "midi": 62,
      "hit": false,
      "t": 213159.85593751783,
      "d": 75.60468750001746,
      "v": 91
    },
    {
      "midi": 66,
      "hit": false,
      "t": 213164.89625001783,
      "d": 55.443437500012806,
      "v": 82
    },
    {
      "midi": 57,
      "hit": false,
      "t": 213265.70250001785,
      "d": 15.120937500003492,
      "v": 97
    },
    {
      "midi": 66,
      "hit": false,
      "t": 213265.70250001785,
      "d": 15.120937500003492,
      "v": 78
    },
    {
      "midi": 38,
      "hit": false,
      "t": 213265.70250001785,
      "d": 90.72562500002095,
      "v": 102
    },
    {
      "midi": 98,
      "hit": false,
      "t": 213270.74281251786,
      "d": 10.080625000002328,
      "v": 45
    },
    {
      "midi": 82,
      "hit": false,
      "t": 213270.74281251786,
      "d": 10.080625000002328,
      "v": 58
    },
    {
      "midi": 62,
      "hit": false,
      "t": 213280.82343751786,
      "d": 15.120937500003492,
      "v": 81
    },
    {
      "midi": 54,
      "hit": false,
      "t": 213285.86375001786,
      "d": 40.32250000000931,
      "v": 40
    },
    {
      "midi": 98,
      "hit": false,
      "t": 213386.67000001788,
      "d": 10.080625000002328,
      "v": 84
    },
    {
      "midi": 82,
      "hit": false,
      "t": 213386.67000001788,
      "d": 10.080625000002328,
      "v": 108
    },
    {
      "midi": 57,
      "hit": false,
      "t": 213386.67000001788,
      "d": 15.120937500003492,
      "v": 92
    },
    {
      "midi": 66,
      "hit": false,
      "t": 213386.67000001788,
      "d": 15.120937500003492,
      "v": 89
    },
    {
      "midi": 42,
      "hit": false,
      "t": 213386.67000001788,
      "d": 65.52406250001513,
      "v": 98
    },
    {
      "midi": 40,
      "hit": false,
      "t": 213386.67000001788,
      "d": 70.5643750000163,
      "v": 94
    },
    {
      "midi": 33,
      "hit": false,
      "t": 213386.67000001788,
      "d": 297.3784375000687,
      "v": 105
    },
    {
      "midi": 71,
      "hit": false,
      "t": 213386.67000001788,
      "d": 433.4668750001001,
      "v": 104
    },
    {
      "midi": 62,
      "hit": false,
      "t": 213401.7909375179,
      "d": 15.120937500003492,
      "v": 87
    },
    {
      "midi": 98,
      "hit": false,
      "t": 213507.6375000179,
      "d": 5.040312500001164,
      "v": 35
    },
    {
      "midi": 82,
      "hit": false,
      "t": 213507.6375000179,
      "d": 5.040312500001164,
      "v": 43
    },
    {
      "midi": 57,
      "hit": false,
      "t": 213507.6375000179,
      "d": 50.40312500001164,
      "v": 69
    },
    {
      "midi": 62,
      "hit": false,
      "t": 213522.7584375179,
      "d": 75.60468750001746,
      "v": 68
    },
    {
      "midi": 54,
      "hit": false,
      "t": 213527.79875001792,
      "d": 40.32250000000931,
      "v": 39
    },
    {
      "midi": 66,
      "hit": false,
      "t": 213527.79875001792,
      "d": 55.443437500012806,
      "v": 79
    },
    {
      "midi": 82,
      "hit": false,
      "t": 213628.60500001794,
      "d": 10.080625000002328,
      "v": 66
    },
    {
      "midi": 57,
      "hit": false,
      "t": 213628.60500001794,
      "d": 15.120937500003492,
      "v": 98
    },
    {
      "midi": 66,
      "hit": false,
      "t": 213628.60500001794,
      "d": 15.120937500003492,
      "v": 80
    },
    {
      "midi": 42,
      "hit": false,
      "t": 213628.60500001794,
      "d": 40.32250000000931,
      "v": 82
    },
    {
      "midi": 54,
      "hit": false,
      "t": 213628.60500001794,
      "d": 85.68531250001979,
      "v": 47
    },
    {
      "midi": 62,
      "hit": false,
      "t": 213643.72593751794,
      "d": 15.120937500003492,
      "v": 78
    },
    {
      "midi": 57,
      "hit": false,
      "t": 213749.57250001797,
      "d": 15.120937500003492,
      "v": 91
    },
    {
      "midi": 66,
      "hit": false,
      "t": 213749.57250001797,
      "d": 15.120937500003492,
      "v": 85
    },
    {
      "midi": 33,
      "hit": false,
      "t": 213749.57250001797,
      "d": 90.72562500002095,
      "v": 102
    },
    {
      "midi": 29,
      "hit": false,
      "t": 213749.57250001797,
      "d": 95.76593750002212,
      "v": 45
    },
    {
      "midi": 98,
      "hit": false,
      "t": 213754.61281251797,
      "d": 10.080625000002328,
      "v": 49
    },
    {
      "midi": 82,
      "hit": false,
      "t": 213754.61281251797,
      "d": 10.080625000002328,
      "v": 64
    },
    {
      "midi": 62,
      "hit": false,
      "t": 213764.69343751797,
      "d": 15.120937500003492,
      "v": 98
    },
    {
      "midi": 54,
      "hit": false,
      "t": 213769.73375001797,
      "d": 40.32250000000931,
      "v": 39
    },
    {
      "midi": 98,
      "hit": false,
      "t": 213870.540000018,
      "d": 10.080625000002328,
      "v": 78
    },
    {
      "midi": 82,
      "hit": false,
      "t": 213870.540000018,
      "d": 10.080625000002328,
      "v": 102
    },
    {
      "midi": 42,
      "hit": false,
      "t": 213870.540000018,
      "d": 60.48375000001397,
      "v": 98
    },
    {
      "midi": 35,
      "hit": false,
      "t": 213870.540000018,
      "d": 90.72562500002095,
      "v": 86
    },
    {
      "midi": 38,
      "hit": false,
      "t": 213870.540000018,
      "d": 211.6931250000489,
      "v": 105
    },
    {
      "midi": 69,
      "hit": false,
      "t": 213870.540000018,
      "d": 433.4668750001001,
      "v": 104
    },
    {
      "midi": 62,
      "hit": false,
      "t": 213880.620625018,
      "d": 70.5643750000163,
      "v": 95
    },
    {
      "midi": 57,
      "hit": false,
      "t": 213885.660937518,
      "d": 30.241875000006985,
      "v": 79
    },
    {
      "midi": 66,
      "hit": false,
      "t": 213890.701250018,
      "d": 75.60468750001746,
      "v": 81
    },
    {
      "midi": 98,
      "hit": false,
      "t": 213991.50750001802,
      "d": 5.040312500001164,
      "v": 41
    },
    {
      "midi": 82,
      "hit": false,
      "t": 213991.50750001802,
      "d": 5.040312500001164,
      "v": 51
    },
    {
      "midi": 54,
      "hit": false,
      "t": 214011.66875001803,
      "d": 40.32250000000931,
      "v": 34
    },
    {
      "midi": 40,
      "hit": false,
      "t": 214112.47500001805,
      "d": 5.040312500001164,
      "v": 74
    },
    {
      "midi": 82,
      "hit": false,
      "t": 214112.47500001805,
      "d": 10.080625000002328,
      "v": 60
    },
    {
      "midi": 42,
      "hit": false,
      "t": 214112.47500001805,
      "d": 40.32250000000931,
      "v": 73
    },
    {
      "midi": 66,
      "hit": false,
      "t": 214112.47500001805,
      "d": 95.76593750002212,
      "v": 95
    },
    {
      "midi": 38,
      "hit": false,
      "t": 214112.47500001805,
      "d": 206.65281250004773,
      "v": 105
    },
    {
      "midi": 62,
      "hit": false,
      "t": 214122.55562501805,
      "d": 95.76593750002212,
      "v": 75
    },
    {
      "midi": 57,
      "hit": false,
      "t": 214127.59593751805,
      "d": 95.76593750002212,
      "v": 87
    },
    {
      "midi": 54,
      "hit": false,
      "t": 214132.63625001805,
      "d": 70.5643750000163,
      "v": 93
    },
    {
      "midi": 98,
      "hit": false,
      "t": 214238.48281251808,
      "d": 10.080625000002328,
      "v": 45
    },
    {
      "midi": 82,
      "hit": false,
      "t": 214238.48281251808,
      "d": 10.080625000002328,
      "v": 58
    },
    {
      "midi": 54,
      "hit": false,
      "t": 214253.60375001808,
      "d": 40.32250000000931,
      "v": 31
    },
    {
      "midi": 98,
      "hit": false,
      "t": 214354.4100000181,
      "d": 10.080625000002328,
      "v": 84
    },
    {
      "midi": 82,
      "hit": false,
      "t": 214354.4100000181,
      "d": 10.080625000002328,
      "v": 108
    },
    {
      "midi": 40,
      "hit": false,
      "t": 214354.4100000181,
      "d": 65.52406250001513,
      "v": 91
    },
    {
      "midi": 66,
      "hit": false,
      "t": 214354.4100000181,
      "d": 95.76593750002212,
      "v": 70
    },
    {
      "midi": 30,
      "hit": false,
      "t": 214354.4100000181,
      "d": 191.53187500004424,
      "v": 102
    },
    {
      "midi": 67,
      "hit": false,
      "t": 214354.4100000181,
      "d": 433.466875000071,
      "v": 104
    },
    {
      "midi": 62,
      "hit": false,
      "t": 214364.4906250181,
      "d": 95.76593750002212,
      "v": 95
    },
    {
      "midi": 57,
      "hit": false,
      "t": 214369.5309375181,
      "d": 95.76593750002212,
      "v": 79
    },
    {
      "midi": 39,
      "hit": false,
      "t": 214374.5712500181,
      "d": 70.5643750000163,
      "v": 76
    },
    {
      "midi": 40,
      "hit": false,
      "t": 214475.37750001813,
      "d": 5.040312500001164,
      "v": 74
    },
    {
      "midi": 98,
      "hit": false,
      "t": 214475.37750001813,
      "d": 5.040312500001164,
      "v": 35
    },
    {
      "midi": 82,
      "hit": false,
      "t": 214475.37750001813,
      "d": 5.040312500001164,
      "v": 43
    },
    {
      "midi": 66,
      "hit": false,
      "t": 214475.37750001813,
      "d": 95.76593750002212,
      "v": 95
    },
    {
      "midi": 62,
      "hit": false,
      "t": 214485.45812501814,
      "d": 85.68531250001979,
      "v": 75
    },
    {
      "midi": 57,
      "hit": false,
      "t": 214490.49843751814,
      "d": 70.5643750000163,
      "v": 87
    },
    {
      "midi": 54,
      "hit": false,
      "t": 214495.53875001814,
      "d": 40.32250000000931,
      "v": 39
    },
    {
      "midi": 47,
      "hit": false,
      "t": 214596.34500001816,
      "d": 5.040312500001164,
      "v": 73
    },
    {
      "midi": 82,
      "hit": false,
      "t": 214596.34500001816,
      "d": 10.080625000002328,
      "v": 66
    },
    {
      "midi": 54,
      "hit": false,
      "t": 214596.34500001816,
      "d": 85.68531249999069,
      "v": 50
    },
    {
      "midi": 33,
      "hit": false,
      "t": 214596.34500001816,
      "d": 161.29000000000815,
      "v": 105
    },
    {
      "midi": 45,
      "hit": false,
      "t": 214717.31250001816,
      "d": 5.040312500001164,
      "v": 54
    },
    {
      "midi": 57,
      "hit": false,
      "t": 214717.31250001816,
      "d": 15.120937500003492,
      "v": 77
    },
    {
      "midi": 98,
      "hit": false,
      "t": 214722.35281251816,
      "d": 10.080625000002328,
      "v": 49
    },
    {
      "midi": 82,
      "hit": false,
      "t": 214722.35281251816,
      "d": 10.080625000002328,
      "v": 64
    },
    {
      "midi": 62,
      "hit": false,
      "t": 214727.39312501816,
      "d": 15.120937500003492,
      "v": 69
    },
    {
      "midi": 66,
      "hit": false,
      "t": 214737.47375001817,
      "d": 20.161250000004657,
      "v": 73
    },
    {
      "midi": 54,
      "hit": false,
      "t": 214737.47375001817,
      "d": 40.32250000000931,
      "v": 40
    },
    {
      "midi": 49,
      "hit": false,
      "t": 214833.2396875182,
      "d": 5.040312500001164,
      "v": 79
    },
    {
      "midi": 98,
      "hit": false,
      "t": 214838.2800000182,
      "d": 10.080625000002328,
      "v": 78
    },
    {
      "midi": 82,
      "hit": false,
      "t": 214838.2800000182,
      "d": 10.080625000002328,
      "v": 102
    },
    {
      "midi": 42,
      "hit": false,
      "t": 214838.2800000182,
      "d": 45.36281250001048,
      "v": 95
    },
    {
      "midi": 55,
      "hit": false,
      "t": 214838.2800000182,
      "d": 50.40312500001164,
      "v": 58
    },
    {
      "midi": 60,
      "hit": false,
      "t": 214838.2800000182,
      "d": 60.48375000001397,
      "v": 53
    },
    {
      "midi": 35,
      "hit": false,
      "t": 214838.2800000182,
      "d": 105.84656250002445,
      "v": 87
    },
    {
      "midi": 36,
      "hit": false,
      "t": 214838.2800000182,
      "d": 307.459062500071,
      "v": 105
    },
    {
      "midi": 71,
      "hit": false,
      "t": 214838.2800000182,
      "d": 322.5800000000745,
      "v": 47
    },
    {
      "midi": 67,
      "hit": false,
      "t": 214838.2800000182,
      "d": 1935.480000000447,
      "v": 47
    },
    {
      "midi": 59,
      "hit": false,
      "t": 214843.3203125182,
      "d": 40.32250000000931,
      "v": 54
    },
    {
      "midi": 64,
      "hit": false,
      "t": 214848.3606250182,
      "d": 65.52406250001513,
      "v": 54
    },
    {
      "midi": 98,
      "hit": false,
      "t": 214959.24750001822,
      "d": 5.040312500001164,
      "v": 41
    },
    {
      "midi": 82,
      "hit": false,
      "t": 214959.24750001822,
      "d": 5.040312500001164,
      "v": 51
    },
    {
      "midi": 55,
      "hit": false,
      "t": 214959.24750001822,
      "d": 10.080625000002328,
      "v": 56
    },
    {
      "midi": 59,
      "hit": false,
      "t": 214964.28781251822,
      "d": 10.080625000002328,
      "v": 54
    },
    {
      "midi": 64,
      "hit": false,
      "t": 214969.32812501822,
      "d": 70.5643750000163,
      "v": 56
    },
    {
      "midi": 54,
      "hit": false,
      "t": 214979.40875001822,
      "d": 40.32250000000931,
      "v": 34
    },
    {
      "midi": 82,
      "hit": false,
      "t": 215080.21500001824,
      "d": 10.080625000002328,
      "v": 60
    },
    {
      "midi": 42,
      "hit": false,
      "t": 215080.21500001824,
      "d": 40.32250000000931,
      "v": 82
    },
    {
      "midi": 54,
      "hit": false,
      "t": 215080.21500001824,
      "d": 70.5643750000163,
      "v": 94
    },
    {
      "midi": 55,
      "hit": false,
      "t": 215201.18250001827,
      "d": 5.040312500001164,
      "v": 22
    },
    {
      "midi": 60,
      "hit": false,
      "t": 215201.18250001827,
      "d": 5.040312500001164,
      "v": 35
    },
    {
      "midi": 36,
      "hit": false,
      "t": 215201.18250001827,
      "d": 90.72562500002095,
      "v": 102
    },
    {
      "midi": 71,
      "hit": false,
      "t": 215201.18250001827,
      "d": 322.5800000000745,
      "v": 104
    },
    {
      "midi": 98,
      "hit": false,
      "t": 215206.22281251827,
      "d": 10.080625000002328,
      "v": 45
    },
    {
      "midi": 82,
      "hit": false,
      "t": 215206.22281251827,
      "d": 10.080625000002328,
      "v": 58
    },
    {
      "midi": 59,
      "hit": false,
      "t": 215206.22281251827,
      "d": 45.36281250001048,
      "v": 29
    },
    {
      "midi": 64,
      "hit": false,
      "t": 215211.26312501827,
      "d": 50.40312500001164,
      "v": 26
    },
    {
      "midi": 54,
      "hit": false,
      "t": 215221.34375001828,
      "d": 40.32250000000931,
      "v": 40
    },
    {
      "midi": 98,
      "hit": false,
      "t": 215322.1500000183,
      "d": 10.080625000002328,
      "v": 84
    },
    {
      "midi": 82,
      "hit": false,
      "t": 215322.1500000183,
      "d": 10.080625000002328,
      "v": 108
    },
    {
      "midi": 55,
      "hit": false,
      "t": 215322.1500000183,
      "d": 25.20156250000582,
      "v": 67
    },
    {
      "midi": 42,
      "hit": false,
      "t": 215322.1500000183,
      "d": 65.52406250001513,
      "v": 98
    },
    {
      "midi": 40,
      "hit": false,
      "t": 215322.1500000183,
      "d": 70.5643750000163,
      "v": 94
    },
    {
      "midi": 60,
      "hit": false,
      "t": 215322.1500000183,
      "d": 70.5643750000163,
      "v": 61
    },
    {
      "midi": 31,
      "hit": false,
      "t": 215322.1500000183,
      "d": 297.3784375000687,
      "v": 105
    },
    {
      "midi": 59,
      "hit": false,
      "t": 215327.1903125183,
      "d": 10.080625000002328,
      "v": 49
    },
    {
      "midi": 64,
      "hit": false,
      "t": 215332.2306250183,
      "d": 10.080625000002328,
      "v": 54
    },
    {
      "midi": 98,
      "hit": false,
      "t": 215443.11750001833,
      "d": 5.040312500001164,
      "v": 35
    },
    {
      "midi": 82,
      "hit": false,
      "t": 215443.11750001833,
      "d": 5.040312500001164,
      "v": 43
    },
    {
      "midi": 54,
      "hit": false,
      "t": 215463.27875001833,
      "d": 40.32250000000931,
      "v": 39
    },
    {
      "midi": 55,
      "hit": false,
      "t": 215564.08500001836,
      "d": 5.040312500001164,
      "v": 22
    },
    {
      "midi": 82,
      "hit": false,
      "t": 215564.08500001836,
      "d": 10.080625000002328,
      "v": 66
    },
    {
      "midi": 42,
      "hit": false,
      "t": 215564.08500001836,
      "d": 40.32250000000931,
      "v": 82
    },
    {
      "midi": 54,
      "hit": false,
      "t": 215564.08500001836,
      "d": 85.68531250001979,
      "v": 47
    },
    {
      "midi": 71,
      "hit": false,
      "t": 215564.08500001836,
      "d": 216.73343750005006,
      "v": 104
    },
    {
      "midi": 59,
      "hit": false,
      "t": 215569.12531251836,
      "d": 55.443437500012806,
      "v": 22
    },
    {
      "midi": 64,
      "hit": false,
      "t": 215574.16562501836,
      "d": 50.40312500001164,
      "v": 22
    },
    {
      "midi": 55,
      "hit": false,
      "t": 215685.05250001838,
      "d": 65.52406250001513,
      "v": 65
    },
    {
      "midi": 60,
      "hit": false,
      "t": 215685.05250001838,
      "d": 80.64500000001863,
      "v": 66
    },
    {
      "midi": 31,
      "hit": false,
      "t": 215690.0928125184,
      "d": 5.040312500001164,
      "v": 35
    },
    {
      "midi": 98,
      "hit": false,
      "t": 215690.0928125184,
      "d": 10.080625000002328,
      "v": 49
    },
    {
      "midi": 82,
      "hit": false,
      "t": 215690.0928125184,
      "d": 10.080625000002328,
      "v": 64
    },
    {
      "midi": 59,
      "hit": false,
      "t": 215690.0928125184,
      "d": 65.52406250001513,
      "v": 67
    },
    {
      "midi": 64,
      "hit": false,
      "t": 215695.1331250184,
      "d": 80.64500000001863,
      "v": 55
    },
    {
      "midi": 54,
      "hit": false,
      "t": 215705.2137500184,
      "d": 40.32250000000931,
      "v": 39
    },
    {
      "midi": 98,
      "hit": false,
      "t": 215806.0200000184,
      "d": 10.080625000002328,
      "v": 78
    },
    {
      "midi": 82,
      "hit": false,
      "t": 215806.0200000184,
      "d": 10.080625000002328,
      "v": 102
    },
    {
      "midi": 55,
      "hit": false,
      "t": 215806.0200000184,
      "d": 10.080625000002328,
      "v": 54
    },
    {
      "midi": 42,
      "hit": false,
      "t": 215806.0200000184,
      "d": 60.48375000001397,
      "v": 98
    },
    {
      "midi": 35,
      "hit": false,
      "t": 215806.0200000184,
      "d": 90.72562500002095,
      "v": 86
    },
    {
      "midi": 36,
      "hit": false,
      "t": 215806.0200000184,
      "d": 211.6931250000489,
      "v": 105
    },
    {
      "midi": 71,
      "hit": false,
      "t": 215806.0200000184,
      "d": 322.5800000000745,
      "v": 104
    },
    {
      "midi": 59,
      "hit": false,
      "t": 215811.0603125184,
      "d": 10.080625000002328,
      "v": 41
    },
    {
      "midi": 64,
      "hit": false,
      "t": 215816.10062501841,
      "d": 10.080625000002328,
      "v": 49
    },
    {
      "midi": 31,
      "hit": false,
      "t": 215926.98750001844,
      "d": 5.040312500001164,
      "v": 30
    },
    {
      "midi": 98,
      "hit": false,
      "t": 215926.98750001844,
      "d": 5.040312500001164,
      "v": 41
    },
    {
      "midi": 82,
      "hit": false,
      "t": 215926.98750001844,
      "d": 5.040312500001164,
      "v": 51
    },
    {
      "midi": 59,
      "hit": false,
      "t": 215926.98750001844,
      "d": 50.40312500001164,
      "v": 22
    },
    {
      "midi": 64,
      "hit": false,
      "t": 215932.02781251844,
      "d": 55.443437500012806,
      "v": 22
    },
    {
      "midi": 54,
      "hit": false,
      "t": 215947.14875001844,
      "d": 40.32250000000931,
      "v": 34
    },
    {
      "midi": 82,
      "hit": false,
      "t": 216047.95500001847,
      "d": 10.080625000002328,
      "v": 60
    },
    {
      "midi": 55,
      "hit": false,
      "t": 216047.95500001847,
      "d": 10.080625000002328,
      "v": 55
    },
    {
      "midi": 42,
      "hit": false,
      "t": 216047.95500001847,
      "d": 40.32250000000931,
      "v": 73
    },
    {
      "midi": 60,
      "hit": false,
      "t": 216047.95500001847,
      "d": 70.5643750000163,
      "v": 61
    },
    {
      "midi": 36,
      "hit": false,
      "t": 216047.95500001847,
      "d": 206.65281250004773,
      "v": 105
    },
    {
      "midi": 59,
      "hit": false,
      "t": 216052.99531251847,
      "d": 10.080625000002328,
      "v": 55
    },
    {
      "midi": 64,
      "hit": false,
      "t": 216058.03562501847,
      "d": 25.20156250000582,
      "v": 55
    },
    {
      "midi": 54,
      "hit": false,
      "t": 216068.11625001847,
      "d": 70.5643750000163,
      "v": 93
    },
    {
      "midi": 71,
      "hit": false,
      "t": 216168.9225000185,
      "d": 322.5800000000745,
      "v": 104
    },
    {
      "midi": 98,
      "hit": false,
      "t": 216173.9628125185,
      "d": 10.080625000002328,
      "v": 45
    },
    {
      "midi": 82,
      "hit": false,
      "t": 216173.9628125185,
      "d": 10.080625000002328,
      "v": 58
    },
    {
      "midi": 54,
      "hit": false,
      "t": 216189.0837500185,
      "d": 40.32250000000931,
      "v": 31
    },
    {
      "midi": 98,
      "hit": false,
      "t": 216289.89000001852,
      "d": 10.080625000002328,
      "v": 84
    },
    {
      "midi": 82,
      "hit": false,
      "t": 216289.89000001852,
      "d": 10.080625000002328,
      "v": 108
    },
    {
      "midi": 60,
      "hit": false,
      "t": 216289.89000001852,
      "d": 45.36281250001048,
      "v": 51
    },
    {
      "midi": 55,
      "hit": false,
      "t": 216289.89000001852,
      "d": 50.40312500001164,
      "v": 54
    },
    {
      "midi": 42,
      "hit": false,
      "t": 216289.89000001852,
      "d": 65.52406250001513,
      "v": 98
    },
    {
      "midi": 40,
      "hit": false,
      "t": 216289.89000001852,
      "d": 65.52406250001513,
      "v": 91
    },
    {
      "midi": 28,
      "hit": false,
      "t": 216289.89000001852,
      "d": 191.53187500004424,
      "v": 102
    },
    {
      "midi": 59,
      "hit": false,
      "t": 216294.93031251853,
      "d": 45.36281250001048,
      "v": 49
    },
    {
      "midi": 64,
      "hit": false,
      "t": 216299.97062501853,
      "d": 70.5643750000163,
      "v": 56
    },
    {
      "midi": 39,
      "hit": false,
      "t": 216310.05125001853,
      "d": 70.5643750000163,
      "v": 76
    },
    {
      "midi": 98,
      "hit": false,
      "t": 216410.85750001855,
      "d": 5.040312500001164,
      "v": 35
    },
    {
      "midi": 82,
      "hit": false,
      "t": 216410.85750001855,
      "d": 5.040312500001164,
      "v": 43
    },
    {
      "midi": 55,
      "hit": false,
      "t": 216410.85750001855,
      "d": 45.36281250001048,
      "v": 23
    },
    {
      "midi": 60,
      "hit": false,
      "t": 216410.85750001855,
      "d": 45.36281250001048,
      "v": 42
    },
    {
      "midi": 59,
      "hit": false,
      "t": 216415.89781251855,
      "d": 50.40312500001164,
      "v": 47
    },
    {
      "midi": 64,
      "hit": false,
      "t": 216420.93812501855,
      "d": 45.36281250001048,
      "v": 38
    },
    {
      "midi": 54,
      "hit": false,
      "t": 216431.01875001856,
      "d": 40.32250000000931,
      "v": 39
    },
    {
      "midi": 82,
      "hit": false,
      "t": 216531.82500001858,
      "d": 10.080625000002328,
      "v": 66
    },
    {
      "midi": 42,
      "hit": false,
      "t": 216531.82500001858,
      "d": 60.48375000001397,
      "v": 82
    },
    {
      "midi": 54,
      "hit": false,
      "t": 216531.82500001858,
      "d": 85.68531250001979,
      "v": 50
    },
    {
      "midi": 31,
      "hit": false,
      "t": 216531.82500001858,
      "d": 161.29000000003725,
      "v": 105
    },
    {
      "midi": 71,
      "hit": false,
      "t": 216531.82500001858,
      "d": 216.73343750005006,
      "v": 104
    },
    {
      "midi": 55,
      "hit": false,
      "t": 216652.7925000186,
      "d": 10.080625000002328,
      "v": 51
    },
    {
      "midi": 59,
      "hit": false,
      "t": 216657.8328125186,
      "d": 5.040312500001164,
      "v": 49
    },
    {
      "midi": 98,
      "hit": false,
      "t": 216657.8328125186,
      "d": 10.080625000002328,
      "v": 49
    },
    {
      "midi": 82,
      "hit": false,
      "t": 216657.8328125186,
      "d": 10.080625000002328,
      "v": 64
    },
    {
      "midi": 64,
      "hit": false,
      "t": 216662.8731250186,
      "d": 10.080625000002328,
      "v": 54
    },
    {
      "midi": 54,
      "hit": false,
      "t": 216672.9537500186,
      "d": 40.32250000000931,
      "v": 40
    },
    {
      "midi": 98,
      "hit": false,
      "t": 216773.76000001864,
      "d": 10.080625000002328,
      "v": 78
    },
    {
      "midi": 82,
      "hit": false,
      "t": 216773.76000001864,
      "d": 10.080625000002328,
      "v": 102
    },
    {
      "midi": 54,
      "hit": false,
      "t": 216773.76000001864,
      "d": 65.52406250001513,
      "v": 65
    },
    {
      "midi": 42,
      "hit": false,
      "t": 216773.76000001864,
      "d": 75.60468750001746,
      "v": 98
    },
    {
      "midi": 59,
      "hit": false,
      "t": 216773.76000001864,
      "d": 85.68531250001979,
      "v": 61
    },
    {
      "midi": 35,
      "hit": false,
      "t": 216773.76000001864,
      "d": 90.72562500002095,
      "v": 79
    },
    {
      "midi": 71,
      "hit": false,
      "t": 216773.76000001864,
      "d": 322.5800000000745,
      "v": 104
    },
    {
      "midi": 66,
      "hit": false,
      "t": 216773.76000001864,
      "d": 1935.480000000447,
      "v": 47
    },
    {
      "midi": 57,
      "hit": false,
      "t": 216778.80031251864,
      "d": 60.48375000001397,
      "v": 60
    },
    {
      "midi": 63,
      "hit": false,
      "t": 216783.84062501864,
      "d": 70.5643750000163,
      "v": 60
    },
    {
      "midi": 98,
      "hit": false,
      "t": 216894.72750001866,
      "d": 5.040312500001164,
      "v": 41
    },
    {
      "midi": 82,
      "hit": false,
      "t": 216894.72750001866,
      "d": 5.040312500001164,
      "v": 51
    },
    {
      "midi": 54,
      "hit": false,
      "t": 216894.72750001866,
      "d": 10.080625000002328,
      "v": 51
    },
    {
      "midi": 57,
      "hit": false,
      "t": 216899.76781251866,
      "d": 5.040312500001164,
      "v": 41
    },
    {
      "midi": 63,
      "hit": false,
      "t": 216904.80812501867,
      "d": 10.080625000002328,
      "v": 57
    },
    {
      "midi": 54,
      "hit": false,
      "t": 216914.88875001867,
      "d": 40.32250000000931,
      "v": 34
    },
    {
      "midi": 82,
      "hit": false,
      "t": 217015.6950000187,
      "d": 10.080625000002328,
      "v": 60
    },
    {
      "midi": 42,
      "hit": false,
      "t": 217015.6950000187,
      "d": 45.36281250001048,
      "v": 82
    },
    {
      "midi": 54,
      "hit": false,
      "t": 217015.6950000187,
      "d": 70.5643750000163,
      "v": 94
    },
    {
      "midi": 71,
      "hit": false,
      "t": 217136.66250001872,
      "d": 322.5800000000745,
      "v": 104
    },
    {
      "midi": 98,
      "hit": false,
      "t": 217141.70281251872,
      "d": 10.080625000002328,
      "v": 45
    },
    {
      "midi": 82,
      "hit": false,
      "t": 217141.70281251872,
      "d": 10.080625000002328,
      "v": 58
    },
    {
      "midi": 57,
      "hit": false,
      "t": 217141.70281251872,
      "d": 50.40312500001164,
      "v": 22
    },
    {
      "midi": 63,
      "hit": false,
      "t": 217146.74312501872,
      "d": 50.40312500001164,
      "v": 25
    },
    {
      "midi": 54,
      "hit": false,
      "t": 217156.82375001872,
      "d": 30.241875000006985,
      "v": 40
    },
    {
      "midi": 30,
      "hit": false,
      "t": 217252.58968751875,
      "d": 357.86218750008265,
      "v": 105
    },
    {
      "midi": 98,
      "hit": false,
      "t": 217257.63000001875,
      "d": 10.080625000002328,
      "v": 84
    },
    {
      "midi": 82,
      "hit": false,
      "t": 217257.63000001875,
      "d": 10.080625000002328,
      "v": 108
    },
    {
      "midi": 54,
      "hit": false,
      "t": 217257.63000001875,
      "d": 10.080625000002328,
      "v": 49
    },
    {
      "midi": 59,
      "hit": false,
      "t": 217257.63000001875,
      "d": 55.443437500012806,
      "v": 56
    },
    {
      "midi": 40,
      "hit": false,
      "t": 217257.63000001875,
      "d": 65.52406250001513,
      "v": 91
    },
    {
      "midi": 42,
      "hit": false,
      "t": 217257.63000001875,
      "d": 70.5643750000163,
      "v": 98
    },
    {
      "midi": 57,
      "hit": false,
      "t": 217262.67031251875,
      "d": 10.080625000002328,
      "v": 56
    },
    {
      "midi": 63,
      "hit": false,
      "t": 217267.71062501875,
      "d": 10.080625000002328,
      "v": 54
    },
    {
      "midi": 98,
      "hit": false,
      "t": 217378.59750001878,
      "d": 5.040312500001164,
      "v": 35
    },
    {
      "midi": 82,
      "hit": false,
      "t": 217378.59750001878,
      "d": 5.040312500001164,
      "v": 43
    },
    {
      "midi": 54,
      "hit": false,
      "t": 217398.75875001878,
      "d": 40.32250000000931,
      "v": 39
    },
    {
      "midi": 82,
      "hit": false,
      "t": 217499.5650000188,
      "d": 10.080625000002328,
      "v": 66
    },
    {
      "midi": 42,
      "hit": false,
      "t": 217499.5650000188,
      "d": 50.40312500001164,
      "v": 64
    },
    {
      "midi": 54,
      "hit": false,
      "t": 217499.5650000188,
      "d": 85.68531250001979,
      "v": 47
    },
    {
      "midi": 71,
      "hit": false,
      "t": 217499.5650000188,
      "d": 216.73343750005006,
      "v": 104
    },
    {
      "midi": 59,
      "hit": false,
      "t": 217620.53250001883,
      "d": 75.60468750001746,
      "v": 60
    },
    {
      "midi": 31,
      "hit": false,
      "t": 217625.57281251883,
      "d": 5.040312500001164,
      "v": 21
    },
    {
      "midi": 98,
      "hit": false,
      "t": 217625.57281251883,
      "d": 10.080625000002328,
      "v": 49
    },
    {
      "midi": 82,
      "hit": false,
      "t": 217625.57281251883,
      "d": 10.080625000002328,
      "v": 64
    },
    {
      "midi": 57,
      "hit": false,
      "t": 217625.57281251883,
      "d": 75.60468750001746,
      "v": 73
    },
    {
      "midi": 63,
      "hit": false,
      "t": 217630.61312501883,
      "d": 75.60468750001746,
      "v": 55
    },
    {
      "midi": 54,
      "hit": false,
      "t": 217640.69375001884,
      "d": 30.241875000006985,
      "v": 39
    },
    {
      "midi": 98,
      "hit": false,
      "t": 217741.50000001886,
      "d": 10.080625000002328,
      "v": 78
    },
    {
      "midi": 82,
      "hit": false,
      "t": 217741.50000001886,
      "d": 10.080625000002328,
      "v": 102
    },
    {
      "midi": 54,
      "hit": false,
      "t": 217741.50000001886,
      "d": 10.080625000002328,
      "v": 54
    },
    {
      "midi": 42,
      "hit": false,
      "t": 217741.50000001886,
      "d": 65.52406250001513,
      "v": 93
    },
    {
      "midi": 35,
      "hit": false,
      "t": 217741.50000001886,
      "d": 90.72562500002095,
      "v": 86
    },
    {
      "midi": 71,
      "hit": false,
      "t": 217741.50000001886,
      "d": 216.73343750005006,
      "v": 104
    },
    {
      "midi": 57,
      "hit": false,
      "t": 217746.54031251886,
      "d": 5.040312500001164,
      "v": 49
    },
    {
      "midi": 63,
      "hit": false,
      "t": 217751.58062501886,
      "d": 10.080625000002328,
      "v": 57
    },
    {
      "midi": 98,
      "hit": false,
      "t": 217862.4675000189,
      "d": 5.040312500001164,
      "v": 41
    },
    {
      "midi": 82,
      "hit": false,
      "t": 217862.4675000189,
      "d": 5.040312500001164,
      "v": 51
    },
    {
      "midi": 31,
      "hit": false,
      "t": 217867.5078125189,
      "d": 5.040312500001164,
      "v": 30
    },
    {
      "midi": 54,
      "hit": false,
      "t": 217882.6287500189,
      "d": 40.32250000000931,
      "v": 34
    },
    {
      "midi": 82,
      "hit": false,
      "t": 217983.43500001892,
      "d": 10.080625000002328,
      "v": 60
    },
    {
      "midi": 54,
      "hit": false,
      "t": 217983.43500001892,
      "d": 10.080625000002328,
      "v": 49
    },
    {
      "midi": 42,
      "hit": false,
      "t": 217983.43500001892,
      "d": 60.48375000001397,
      "v": 87
    },
    {
      "midi": 59,
      "hit": false,
      "t": 217983.43500001892,
      "d": 75.60468750001746,
      "v": 61
    },
    {
      "midi": 69,
      "hit": false,
      "t": 217983.43500001892,
      "d": 216.73343750005006,
      "v": 104
    },
    {
      "midi": 57,
      "hit": false,
      "t": 217988.47531251892,
      "d": 25.20156250000582,
      "v": 47
    },
    {
      "midi": 63,
      "hit": false,
      "t": 217993.51562501892,
      "d": 10.080625000002328,
      "v": 54
    },
    {
      "midi": 54,
      "hit": false,
      "t": 218003.59625001892,
      "d": 45.36281250001048,
      "v": 93
    },
    {
      "midi": 98,
      "hit": false,
      "t": 218109.44281251894,
      "d": 10.080625000002328,
      "v": 45
    },
    {
      "midi": 82,
      "hit": false,
      "t": 218109.44281251894,
      "d": 10.080625000002328,
      "v": 58
    },
    {
      "midi": 54,
      "hit": false,
      "t": 218124.56375001895,
      "d": 40.32250000000931,
      "v": 31
    },
    {
      "midi": 98,
      "hit": false,
      "t": 218225.37000001897,
      "d": 10.080625000002328,
      "v": 84
    },
    {
      "midi": 82,
      "hit": false,
      "t": 218225.37000001897,
      "d": 10.080625000002328,
      "v": 108
    },
    {
      "midi": 40,
      "hit": false,
      "t": 218225.37000001897,
      "d": 65.52406250001513,
      "v": 94
    },
    {
      "midi": 54,
      "hit": false,
      "t": 218225.37000001897,
      "d": 65.52406250001513,
      "v": 57
    },
    {
      "midi": 42,
      "hit": false,
      "t": 218225.37000001897,
      "d": 80.64500000001863,
      "v": 93
    },
    {
      "midi": 59,
      "hit": false,
      "t": 218225.37000001897,
      "d": 181.4512500000419,
      "v": 56
    },
    {
      "midi": 67,
      "hit": false,
      "t": 218225.37000001897,
      "d": 216.73343750005006,
      "v": 104
    },
    {
      "midi": 57,
      "hit": false,
      "t": 218230.41031251897,
      "d": 70.5643750000163,
      "v": 59
    },
    {
      "midi": 63,
      "hit": false,
      "t": 218235.45062501897,
      "d": 70.5643750000163,
      "v": 59
    },
    {
      "midi": 39,
      "hit": false,
      "t": 218245.53125001898,
      "d": 70.5643750000163,
      "v": 76
    },
    {
      "midi": 98,
      "hit": false,
      "t": 218346.337500019,
      "d": 5.040312500001164,
      "v": 35
    },
    {
      "midi": 82,
      "hit": false,
      "t": 218346.337500019,
      "d": 5.040312500001164,
      "v": 43
    },
    {
      "midi": 57,
      "hit": false,
      "t": 218351.377812519,
      "d": 70.5643750000163,
      "v": 38
    },
    {
      "midi": 63,
      "hit": false,
      "t": 218356.418125019,
      "d": 60.48375000001397,
      "v": 45
    },
    {
      "midi": 54,
      "hit": false,
      "t": 218366.498750019,
      "d": 20.161250000004657,
      "v": 39
    },
    {
      "midi": 82,
      "hit": false,
      "t": 218467.30500001903,
      "d": 10.080625000002328,
      "v": 66
    },
    {
      "midi": 42,
      "hit": false,
      "t": 218467.30500001903,
      "d": 55.443437500012806,
      "v": 82
    },
    {
      "midi": 54,
      "hit": false,
      "t": 218467.30500001903,
      "d": 85.68531250001979,
      "v": 50
    },
    {
      "midi": 30,
      "hit": false,
      "t": 218467.30500001903,
      "d": 161.29000000003725,
      "v": 102
    },
    {
      "midi": 71,
      "hit": false,
      "t": 218467.30500001903,
      "d": 216.73343750005006,
      "v": 104
    },
    {
      "midi": 54,
      "hit": false,
      "t": 218588.27250001905,
      "d": 10.080625000002328,
      "v": 47
    },
    {
      "midi": 29,
      "hit": false,
      "t": 218588.27250001905,
      "d": 95.76593750002212,
      "v": 45
    },
    {
      "midi": 57,
      "hit": false,
      "t": 218593.31281251906,
      "d": 5.040312500001164,
      "v": 45
    },
    {
      "midi": 98,
      "hit": false,
      "t": 218593.31281251906,
      "d": 10.080625000002328,
      "v": 49
    },
    {
      "midi": 82,
      "hit": false,
      "t": 218593.31281251906,
      "d": 10.080625000002328,
      "v": 64
    },
    {
      "midi": 63,
      "hit": false,
      "t": 218598.35312501906,
      "d": 10.080625000002328,
      "v": 47
    },
    {
      "midi": 54,
      "hit": false,
      "t": 218608.43375001906,
      "d": 40.32250000000931,
      "v": 40
    },
    {
      "midi": 98,
      "hit": false,
      "t": 218709.24000001908,
      "d": 10.080625000002328,
      "v": 78
    },
    {
      "midi": 82,
      "hit": false,
      "t": 218709.24000001908,
      "d": 10.080625000002328,
      "v": 102
    },
    {
      "midi": 54,
      "hit": false,
      "t": 218709.24000001908,
      "d": 60.48375000001397,
      "v": 60
    },
    {
      "midi": 42,
      "hit": false,
      "t": 218709.24000001908,
      "d": 70.5643750000163,
      "v": 95
    },
    {
      "midi": 59,
      "hit": false,
      "t": 218709.24000001908,
      "d": 70.5643750000163,
      "v": 66
    },
    {
      "midi": 35,
      "hit": false,
      "t": 218709.24000001908,
      "d": 90.72562500002095,
      "v": 87
    },
    {
      "midi": 69,
      "hit": false,
      "t": 218709.24000001908,
      "d": 322.5800000000745,
      "v": 104
    },
    {
      "midi": 28,
      "hit": false,
      "t": 218709.24000001908,
      "d": 372.98312500008615,
      "v": 102
    },
    {
      "midi": 64,
      "hit": false,
      "t": 218709.24000001908,
      "d": 1738.9078125004016,
      "v": 104
    },
    {
      "midi": 57,
      "hit": false,
      "t": 218714.28031251908,
      "d": 65.52406250001513,
      "v": 67
    },
    {
      "midi": 62,
      "hit": false,
      "t": 218719.32062501909,
      "d": 65.52406250001513,
      "v": 60
    },
    {
      "midi": 98,
      "hit": false,
      "t": 218830.2075000191,
      "d": 5.040312500001164,
      "v": 41
    },
    {
      "midi": 82,
      "hit": false,
      "t": 218830.2075000191,
      "d": 5.040312500001164,
      "v": 51
    },
    {
      "midi": 54,
      "hit": false,
      "t": 218830.2075000191,
      "d": 10.080625000002328,
      "v": 41
    },
    {
      "midi": 57,
      "hit": false,
      "t": 218835.2478125191,
      "d": 5.040312500001164,
      "v": 55
    },
    {
      "midi": 62,
      "hit": false,
      "t": 218840.2881250191,
      "d": 10.080625000002328,
      "v": 56
    },
    {
      "midi": 54,
      "hit": false,
      "t": 218850.36875001912,
      "d": 40.32250000000931,
      "v": 34
    },
    {
      "midi": 82,
      "hit": false,
      "t": 218951.17500001914,
      "d": 10.080625000002328,
      "v": 60
    },
    {
      "midi": 42,
      "hit": false,
      "t": 218951.17500001914,
      "d": 55.443437500012806,
      "v": 82
    },
    {
      "midi": 54,
      "hit": false,
      "t": 218951.17500001914,
      "d": 70.5643750000163,
      "v": 94
    },
    {
      "midi": 98,
      "hit": false,
      "t": 219077.18281251917,
      "d": 10.080625000002328,
      "v": 45
    },
    {
      "midi": 82,
      "hit": false,
      "t": 219077.18281251917,
      "d": 10.080625000002328,
      "v": 58
    },
    {
      "midi": 57,
      "hit": false,
      "t": 219077.18281251917,
      "d": 35.28218750000815,
      "v": 32
    },
    {
      "midi": 62,
      "hit": false,
      "t": 219082.22312501917,
      "d": 40.32250000000931,
      "v": 26
    },
    {
      "midi": 54,
      "hit": false,
      "t": 219092.30375001917,
      "d": 25.20156250000582,
      "v": 40
    },
    {
      "midi": 98,
      "hit": false,
      "t": 219193.1100000192,
      "d": 10.080625000002328,
      "v": 84
    },
    {
      "midi": 82,
      "hit": false,
      "t": 219193.1100000192,
      "d": 10.080625000002328,
      "v": 108
    },
    {
      "midi": 54,
      "hit": false,
      "t": 219193.1100000192,
      "d": 10.080625000002328,
      "v": 54
    },
    {
      "midi": 42,
      "hit": false,
      "t": 219193.1100000192,
      "d": 75.60468750001746,
      "v": 93
    },
    {
      "midi": 40,
      "hit": false,
      "t": 219193.1100000192,
      "d": 75.60468750001746,
      "v": 94
    },
    {
      "midi": 59,
      "hit": false,
      "t": 219193.1100000192,
      "d": 85.68531250001979,
      "v": 60
    },
    {
      "midi": 57,
      "hit": false,
      "t": 219198.1503125192,
      "d": 5.040312500001164,
      "v": 49
    },
    {
      "midi": 62,
      "hit": false,
      "t": 219203.1906250192,
      "d": 10.080625000002328,
      "v": 49
    },
    {
      "midi": 98,
      "hit": false,
      "t": 219314.07750001922,
      "d": 5.040312500001164,
      "v": 35
    },
    {
      "midi": 82,
      "hit": false,
      "t": 219314.07750001922,
      "d": 5.040312500001164,
      "v": 43
    },
    {
      "midi": 54,
      "hit": false,
      "t": 219334.23875001923,
      "d": 40.32250000000931,
      "v": 39
    },
    {
      "midi": 82,
      "hit": false,
      "t": 219435.04500001925,
      "d": 10.080625000002328,
      "v": 66
    },
    {
      "midi": 54,
      "hit": false,
      "t": 219435.04500001925,
      "d": 40.32250000000931,
      "v": 47
    },
    {
      "midi": 42,
      "hit": false,
      "t": 219435.04500001925,
      "d": 50.40312500001164,
      "v": 73
    },
    {
      "midi": 69,
      "hit": false,
      "t": 219435.04500001925,
      "d": 433.4668750001001,
      "v": 104
    },
    {
      "midi": 57,
      "hit": false,
      "t": 219440.08531251925,
      "d": 40.32250000000931,
      "v": 26
    },
    {
      "midi": 62,
      "hit": false,
      "t": 219445.12562501925,
      "d": 45.36281250001048,
      "v": 22
    },
    {
      "midi": 59,
      "hit": false,
      "t": 219556.01250001928,
      "d": 85.68531250001979,
      "v": 61
    },
    {
      "midi": 98,
      "hit": false,
      "t": 219561.05281251928,
      "d": 10.080625000002328,
      "v": 49
    },
    {
      "midi": 82,
      "hit": false,
      "t": 219561.05281251928,
      "d": 10.080625000002328,
      "v": 64
    },
    {
      "midi": 57,
      "hit": false,
      "t": 219561.05281251928,
      "d": 85.68531250001979,
      "v": 58
    },
    {
      "midi": 62,
      "hit": false,
      "t": 219566.09312501928,
      "d": 85.68531250001979,
      "v": 68
    },
    {
      "midi": 54,
      "hit": false,
      "t": 219576.17375001928,
      "d": 40.32250000000931,
      "v": 39
    },
    {
      "midi": 98,
      "hit": false,
      "t": 219676.9800000193,
      "d": 10.080625000002328,
      "v": 78
    },
    {
      "midi": 82,
      "hit": false,
      "t": 219676.9800000193,
      "d": 10.080625000002328,
      "v": 102
    },
    {
      "midi": 54,
      "hit": false,
      "t": 219676.9800000193,
      "d": 10.080625000002328,
      "v": 41
    },
    {
      "midi": 42,
      "hit": false,
      "t": 219676.9800000193,
      "d": 55.443437500012806,
      "v": 87
    },
    {
      "midi": 35,
      "hit": false,
      "t": 219676.9800000193,
      "d": 95.76593750002212,
      "v": 87
    },
    {
      "midi": 28,
      "hit": false,
      "t": 219676.9800000193,
      "d": 357.86218750008265,
      "v": 105
    },
    {
      "midi": 57,
      "hit": false,
      "t": 219682.0203125193,
      "d": 5.040312500001164,
      "v": 47
    },
    {
      "midi": 62,
      "hit": false,
      "t": 219687.0606250193,
      "d": 10.080625000002328,
      "v": 54
    },
    {
      "midi": 98,
      "hit": false,
      "t": 219797.94750001933,
      "d": 5.040312500001164,
      "v": 41
    },
    {
      "midi": 82,
      "hit": false,
      "t": 219797.94750001933,
      "d": 5.040312500001164,
      "v": 51
    },
    {
      "midi": 54,
      "hit": false,
      "t": 219818.10875001934,
      "d": 40.32250000000931,
      "v": 34
    },
    {
      "midi": 82,
      "hit": false,
      "t": 219918.91500001936,
      "d": 10.080625000002328,
      "v": 60
    },
    {
      "midi": 54,
      "hit": false,
      "t": 219918.91500001936,
      "d": 10.080625000002328,
      "v": 55
    },
    {
      "midi": 42,
      "hit": false,
      "t": 219918.91500001936,
      "d": 50.40312500001164,
      "v": 82
    },
    {
      "midi": 59,
      "hit": false,
      "t": 219918.91500001936,
      "d": 50.40312500001164,
      "v": 61
    },
    {
      "midi": 71,
      "hit": false,
      "t": 219918.91500001936,
      "d": 216.73343750005006,
      "v": 104
    },
    {
      "midi": 57,
      "hit": false,
      "t": 219923.95531251936,
      "d": 10.080625000002328,
      "v": 49
    },
    {
      "midi": 62,
      "hit": false,
      "t": 219928.99562501936,
      "d": 10.080625000002328,
      "v": 49
    },
    {
      "midi": 54,
      "hit": false,
      "t": 219939.07625001937,
      "d": 20.161250000004657,
      "v": 93
    },
    {
      "midi": 98,
      "hit": false,
      "t": 220044.9228125194,
      "d": 10.080625000002328,
      "v": 45
    },
    {
      "midi": 82,
      "hit": false,
      "t": 220044.9228125194,
      "d": 10.080625000002328,
      "v": 58
    },
    {
      "midi": 54,
      "hit": false,
      "t": 220060.0437500194,
      "d": 40.32250000000931,
      "v": 31
    },
    {
      "midi": 28,
      "hit": false,
      "t": 220155.80968751942,
      "d": 171.37062500003958,
      "v": 102
    },
    {
      "midi": 98,
      "hit": false,
      "t": 220160.85000001942,
      "d": 10.080625000002328,
      "v": 84
    },
    {
      "midi": 82,
      "hit": false,
      "t": 220160.85000001942,
      "d": 10.080625000002328,
      "v": 108
    },
    {
      "midi": 54,
      "hit": false,
      "t": 220160.85000001942,
      "d": 55.443437500012806,
      "v": 59
    },
    {
      "midi": 42,
      "hit": false,
      "t": 220160.85000001942,
      "d": 60.48375000001397,
      "v": 87
    },
    {
      "midi": 40,
      "hit": false,
      "t": 220160.85000001942,
      "d": 60.48375000001397,
      "v": 94
    },
    {
      "midi": 59,
      "hit": false,
      "t": 220160.85000001942,
      "d": 85.68531250001979,
      "v": 60
    },
    {
      "midi": 69,
      "hit": false,
      "t": 220160.85000001942,
      "d": 216.73343750005006,
      "v": 104
    },
    {
      "midi": 57,
      "hit": false,
      "t": 220165.89031251942,
      "d": 65.52406250001513,
      "v": 58
    },
    {
      "midi": 62,
      "hit": false,
      "t": 220170.93062501942,
      "d": 60.48375000001397,
      "v": 58
    },
    {
      "midi": 39,
      "hit": false,
      "t": 220181.01125001942,
      "d": 70.5643750000163,
      "v": 76
    },
    {
      "midi": 98,
      "hit": false,
      "t": 220281.81750001945,
      "d": 5.040312500001164,
      "v": 35
    },
    {
      "midi": 82,
      "hit": false,
      "t": 220281.81750001945,
      "d": 5.040312500001164,
      "v": 43
    },
    {
      "midi": 59,
      "hit": false,
      "t": 220281.81750001945,
      "d": 45.36281250001048,
      "v": 38
    },
    {
      "midi": 57,
      "hit": false,
      "t": 220286.85781251945,
      "d": 65.52406250001513,
      "v": 38
    },
    {
      "midi": 62,
      "hit": false,
      "t": 220291.89812501945,
      "d": 75.60468750001746,
      "v": 38
    },
    {
      "midi": 54,
      "hit": false,
      "t": 220301.97875001945,
      "d": 40.32250000000931,
      "v": 39
    },
    {
      "midi": 40,
      "hit": false,
      "t": 220397.74468751947,
      "d": 196.5721875000454,
      "v": 97
    },
    {
      "midi": 82,
      "hit": false,
      "t": 220402.78500001947,
      "d": 10.080625000002328,
      "v": 66
    },
    {
      "midi": 42,
      "hit": false,
      "t": 220402.78500001947,
      "d": 50.40312500001164,
      "v": 75
    },
    {
      "midi": 54,
      "hit": false,
      "t": 220402.78500001947,
      "d": 85.68531250001979,
      "v": 50
    },
    {
      "midi": 68,
      "hit": false,
      "t": 220402.78500001947,
      "d": 216.73343750005006,
      "v": 104
    },
    {
      "midi": 54,
      "hit": false,
      "t": 220523.7525000195,
      "d": 10.080625000002328,
      "v": 49
    },
    {
      "midi": 98,
      "hit": false,
      "t": 220528.7928125195,
      "d": 10.080625000002328,
      "v": 49
    },
    {
      "midi": 82,
      "hit": false,
      "t": 220528.7928125195,
      "d": 10.080625000002328,
      "v": 64
    },
    {
      "midi": 57,
      "hit": false,
      "t": 220528.7928125195,
      "d": 25.20156250000582,
      "v": 54
    },
    {
      "midi": 62,
      "hit": false,
      "t": 220533.8331250195,
      "d": 10.080625000002328,
      "v": 57
    },
    {
      "midi": 54,
      "hit": false,
      "t": 220543.9137500195,
      "d": 40.32250000000931,
      "v": 40
    },
    {
      "midi": 98,
      "hit": false,
      "t": 220644.72000001953,
      "d": 10.080625000002328,
      "v": 78
    },
    {
      "midi": 82,
      "hit": false,
      "t": 220644.72000001953,
      "d": 10.080625000002328,
      "v": 102
    },
    {
      "midi": 42,
      "hit": false,
      "t": 220644.72000001953,
      "d": 45.36281250001048,
      "v": 95
    },
    {
      "midi": 56,
      "hit": false,
      "t": 220644.72000001953,
      "d": 65.52406250001513,
      "v": 60
    },
    {
      "midi": 35,
      "hit": false,
      "t": 220644.72000001953,
      "d": 105.84656250002445,
      "v": 87
    },
    {
      "midi": 28,
      "hit": false,
      "t": 220644.72000001953,
      "d": 307.459062500071,
      "v": 105
    },
    {
      "midi": 68,
      "hit": false,
      "t": 220644.72000001953,
      "d": 866.9337500002002,
      "v": 104
    },
    {
      "midi": 59,
      "hit": false,
      "t": 220649.76031251953,
      "d": 65.52406250001513,
      "v": 60
    },
    {
      "midi": 64,
      "hit": false,
      "t": 220654.80062501953,
      "d": 80.64500000001863,
      "v": 60
    },
    {
      "midi": 98,
      "hit": false,
      "t": 220765.68750001956,
      "d": 5.040312500001164,
      "v": 41
    },
    {
      "midi": 82,
      "hit": false,
      "t": 220765.68750001956,
      "d": 5.040312500001164,
      "v": 51
    },
    {
      "midi": 56,
      "hit": false,
      "t": 220765.68750001956,
      "d": 10.080625000002328,
      "v": 49
    },
    {
      "midi": 59,
      "hit": false,
      "t": 220770.72781251956,
      "d": 10.080625000002328,
      "v": 54
    },
    {
      "midi": 64,
      "hit": false,
      "t": 220775.76812501956,
      "d": 10.080625000002328,
      "v": 59
    },
    {
      "midi": 54,
      "hit": false,
      "t": 220785.84875001956,
      "d": 40.32250000000931,
      "v": 34
    },
    {
      "midi": 82,
      "hit": false,
      "t": 220886.6550000196,
      "d": 10.080625000002328,
      "v": 60
    },
    {
      "midi": 42,
      "hit": false,
      "t": 220886.6550000196,
      "d": 40.32250000000931,
      "v": 82
    },
    {
      "midi": 54,
      "hit": false,
      "t": 220886.6550000196,
      "d": 70.5643750000163,
      "v": 94
    },
    {
      "midi": 59,
      "hit": false,
      "t": 221007.6225000196,
      "d": 50.40312500001164,
      "v": 26
    },
    {
      "midi": 28,
      "hit": false,
      "t": 221007.6225000196,
      "d": 90.72562500002095,
      "v": 102
    },
    {
      "midi": 98,
      "hit": false,
      "t": 221012.66281251961,
      "d": 10.080625000002328,
      "v": 45
    },
    {
      "midi": 82,
      "hit": false,
      "t": 221012.66281251961,
      "d": 10.080625000002328,
      "v": 58
    },
    {
      "midi": 64,
      "hit": false,
      "t": 221012.66281251961,
      "d": 50.40312500001164,
      "v": 22
    },
    {
      "midi": 54,
      "hit": false,
      "t": 221027.78375001962,
      "d": 40.32250000000931,
      "v": 40
    },
    {
      "midi": 98,
      "hit": false,
      "t": 221128.59000001964,
      "d": 10.080625000002328,
      "v": 84
    },
    {
      "midi": 82,
      "hit": false,
      "t": 221128.59000001964,
      "d": 10.080625000002328,
      "v": 108
    },
    {
      "midi": 56,
      "hit": false,
      "t": 221128.59000001964,
      "d": 10.080625000002328,
      "v": 57
    },
    {
      "midi": 42,
      "hit": false,
      "t": 221128.59000001964,
      "d": 65.52406250001513,
      "v": 98
    },
    {
      "midi": 40,
      "hit": false,
      "t": 221128.59000001964,
      "d": 70.5643750000163,
      "v": 94
    },
    {
      "midi": 35,
      "hit": false,
      "t": 221128.59000001964,
      "d": 297.3784375000687,
      "v": 105
    },
    {
      "midi": 59,
      "hit": false,
      "t": 221133.63031251964,
      "d": 10.080625000002328,
      "v": 55
    },
    {
      "midi": 64,
      "hit": false,
      "t": 221138.67062501964,
      "d": 10.080625000002328,
      "v": 51
    },
    {
      "midi": 98,
      "hit": false,
      "t": 221249.55750001967,
      "d": 5.040312500001164,
      "v": 35
    },
    {
      "midi": 82,
      "hit": false,
      "t": 221249.55750001967,
      "d": 5.040312500001164,
      "v": 43
    },
    {
      "midi": 54,
      "hit": false,
      "t": 221269.71875001967,
      "d": 40.32250000000931,
      "v": 39
    },
    {
      "midi": 82,
      "hit": false,
      "t": 221370.5250000197,
      "d": 10.080625000002328,
      "v": 66
    },
    {
      "midi": 42,
      "hit": false,
      "t": 221370.5250000197,
      "d": 40.32250000000931,
      "v": 82
    },
    {
      "midi": 54,
      "hit": false,
      "t": 221370.5250000197,
      "d": 85.68531250001979,
      "v": 47
    },
    {
      "midi": 56,
      "hit": false,
      "t": 221491.49250001973,
      "d": 75.60468750001746,
      "v": 65
    },
    {
      "midi": 35,
      "hit": false,
      "t": 221491.49250001973,
      "d": 90.72562500002095,
      "v": 102
    },
    {
      "midi": 31,
      "hit": false,
      "t": 221496.53281251973,
      "d": 5.040312500001164,
      "v": 35
    },
    {
      "midi": 98,
      "hit": false,
      "t": 221496.53281251973,
      "d": 10.080625000002328,
      "v": 49
    },
    {
      "midi": 82,
      "hit": false,
      "t": 221496.53281251973,
      "d": 10.080625000002328,
      "v": 64
    },
    {
      "midi": 59,
      "hit": false,
      "t": 221496.53281251973,
      "d": 65.52406250001513,
      "v": 60
    },
    {
      "midi": 64,
      "hit": false,
      "t": 221501.57312501973,
      "d": 80.64500000001863,
      "v": 65
    },
    {
      "midi": 54,
      "hit": false,
      "t": 221511.65375001973,
      "d": 40.32250000000931,
      "v": 39
    },
    {
      "midi": 98,
      "hit": false,
      "t": 221612.46000001975,
      "d": 10.080625000002328,
      "v": 78
    },
    {
      "midi": 82,
      "hit": false,
      "t": 221612.46000001975,
      "d": 10.080625000002328,
      "v": 102
    },
    {
      "midi": 56,
      "hit": false,
      "t": 221612.46000001975,
      "d": 25.20156250000582,
      "v": 30
    },
    {
      "midi": 42,
      "hit": false,
      "t": 221612.46000001975,
      "d": 60.48375000001397,
      "v": 98
    },
    {
      "midi": 35,
      "hit": false,
      "t": 221612.46000001975,
      "d": 90.72562500002095,
      "v": 86
    },
    {
      "midi": 28,
      "hit": false,
      "t": 221612.46000001975,
      "d": 211.6931250000489,
      "v": 105
    },
    {
      "midi": 59,
      "hit": false,
      "t": 221617.50031251975,
      "d": 5.040312500001164,
      "v": 41
    },
    {
      "midi": 64,
      "hit": false,
      "t": 221622.54062501976,
      "d": 10.080625000002328,
      "v": 49
    },
    {
      "midi": 31,
      "hit": false,
      "t": 221733.42750001978,
      "d": 5.040312500001164,
      "v": 30
    },
    {
      "midi": 98,
      "hit": false,
      "t": 221733.42750001978,
      "d": 5.040312500001164,
      "v": 41
    },
    {
      "midi": 82,
      "hit": false,
      "t": 221733.42750001978,
      "d": 5.040312500001164,
      "v": 51
    },
    {
      "midi": 59,
      "hit": false,
      "t": 221733.42750001978,
      "d": 45.36281250001048,
      "v": 25
    },
    {
      "midi": 64,
      "hit": false,
      "t": 221738.46781251978,
      "d": 35.28218750000815,
      "v": 22
    },
    {
      "midi": 54,
      "hit": false,
      "t": 221753.5887500198,
      "d": 40.32250000000931,
      "v": 34
    },
    {
      "midi": 82,
      "hit": false,
      "t": 221854.3950000198,
      "d": 10.080625000002328,
      "v": 60
    },
    {
      "midi": 56,
      "hit": false,
      "t": 221854.3950000198,
      "d": 10.080625000002328,
      "v": 54
    },
    {
      "midi": 42,
      "hit": false,
      "t": 221854.3950000198,
      "d": 40.32250000000931,
      "v": 73
    },
    {
      "midi": 28,
      "hit": false,
      "t": 221854.3950000198,
      "d": 206.65281250004773,
      "v": 105
    },
    {
      "midi": 68,
      "hit": false,
      "t": 221854.3950000198,
      "d": 216.73343750005006,
      "v": 104
    },
    {
      "midi": 59,
      "hit": false,
      "t": 221859.4353125198,
      "d": 5.040312500001164,
      "v": 49
    },
    {
      "midi": 64,
      "hit": false,
      "t": 221864.4756250198,
      "d": 10.080625000002328,
      "v": 49
    },
    {
      "midi": 54,
      "hit": false,
      "t": 221874.5562500198,
      "d": 70.5643750000163,
      "v": 93
    },
    {
      "midi": 98,
      "hit": false,
      "t": 221980.40281251984,
      "d": 10.080625000002328,
      "v": 45
    },
    {
      "midi": 82,
      "hit": false,
      "t": 221980.40281251984,
      "d": 10.080625000002328,
      "v": 58
    },
    {
      "midi": 54,
      "hit": false,
      "t": 221995.52375001984,
      "d": 40.32250000000931,
      "v": 31
    },
    {
      "midi": 98,
      "hit": false,
      "t": 222096.33000001987,
      "d": 10.080625000002328,
      "v": 84
    },
    {
      "midi": 82,
      "hit": false,
      "t": 222096.33000001987,
      "d": 10.080625000002328,
      "v": 108
    },
    {
      "midi": 56,
      "hit": false,
      "t": 222096.33000001987,
      "d": 60.48375000001397,
      "v": 54
    },
    {
      "midi": 42,
      "hit": false,
      "t": 222096.33000001987,
      "d": 65.52406250001513,
      "v": 98
    },
    {
      "midi": 40,
      "hit": false,
      "t": 222096.33000001987,
      "d": 65.52406250001513,
      "v": 91
    },
    {
      "midi": 32,
      "hit": false,
      "t": 222096.33000001987,
      "d": 191.53187500004424,
      "v": 102
    },
    {
      "midi": 68,
      "hit": false,
      "t": 222096.33000001987,
      "d": 216.73343750005006,
      "v": 104
    },
    {
      "midi": 59,
      "hit": false,
      "t": 222101.37031251987,
      "d": 60.48375000001397,
      "v": 67
    },
    {
      "midi": 64,
      "hit": false,
      "t": 222106.41062501987,
      "d": 70.5643750000163,
      "v": 67
    },
    {
      "midi": 39,
      "hit": false,
      "t": 222116.49125001987,
      "d": 70.5643750000163,
      "v": 76
    },
    {
      "midi": 98,
      "hit": false,
      "t": 222217.2975000199,
      "d": 5.040312500001164,
      "v": 35
    },
    {
      "midi": 82,
      "hit": false,
      "t": 222217.2975000199,
      "d": 5.040312500001164,
      "v": 43
    },
    {
      "midi": 56,
      "hit": false,
      "t": 222217.2975000199,
      "d": 45.36281250001048,
      "v": 23
    },
    {
      "midi": 59,
      "hit": false,
      "t": 222222.3378125199,
      "d": 40.32250000000931,
      "v": 44
    },
    {
      "midi": 64,
      "hit": false,
      "t": 222227.3781250199,
      "d": 40.32250000000931,
      "v": 29
    },
    {
      "midi": 54,
      "hit": false,
      "t": 222237.4587500199,
      "d": 40.32250000000931,
      "v": 39
    },
    {
      "midi": 82,
      "hit": false,
      "t": 222338.26500001992,
      "d": 10.080625000002328,
      "v": 66
    },
    {
      "midi": 42,
      "hit": false,
      "t": 222338.26500001992,
      "d": 60.48375000001397,
      "v": 82
    },
    {
      "midi": 54,
      "hit": false,
      "t": 222338.26500001992,
      "d": 85.68531250001979,
      "v": 50
    },
    {
      "midi": 35,
      "hit": false,
      "t": 222338.26500001992,
      "d": 161.29000000003725,
      "v": 105
    },
    {
      "midi": 68,
      "hit": false,
      "t": 222338.26500001992,
      "d": 216.73343750005006,
      "v": 104
    },
    {
      "midi": 98,
      "hit": false,
      "t": 222464.27281251995,
      "d": 10.080625000002328,
      "v": 49
    },
    {
      "midi": 82,
      "hit": false,
      "t": 222464.27281251995,
      "d": 10.080625000002328,
      "v": 64
    },
    {
      "midi": 54,
      "hit": false,
      "t": 222479.39375001995,
      "d": 40.32250000000931,
      "v": 40
    },
    {
      "midi": 98,
      "hit": false,
      "t": 222580.20000001998,
      "d": 10.080625000002328,
      "v": 78
    },
    {
      "midi": 82,
      "hit": false,
      "t": 222580.20000001998,
      "d": 10.080625000002328,
      "v": 102
    },
    {
      "midi": 42,
      "hit": false,
      "t": 222580.20000001998,
      "d": 45.36281250001048,
      "v": 95
    },
    {
      "midi": 55,
      "hit": false,
      "t": 222580.20000001998,
      "d": 50.40312500001164,
      "v": 58
    },
    {
      "midi": 35,
      "hit": false,
      "t": 222580.20000001998,
      "d": 105.84656250002445,
      "v": 87
    },
    {
      "midi": 33,
      "hit": false,
      "t": 222580.20000001998,
      "d": 317.53968750007334,
      "v": 102
    },
    {
      "midi": 67,
      "hit": false,
      "t": 222580.20000001998,
      "d": 322.5800000000745,
      "v": 47
    },
    {
      "midi": 72,
      "hit": false,
      "t": 222580.20000001998,
      "d": 1935.480000000447,
      "v": 47
    },
    {
      "midi": 60,
      "hit": false,
      "t": 222585.24031251998,
      "d": 40.32250000000931,
      "v": 54
    },
    {
      "midi": 64,
      "hit": false,
      "t": 222590.28062501998,
      "d": 50.40312500001164,
      "v": 54
    },
    {
      "midi": 98,
      "hit": false,
      "t": 222701.16750002,
      "d": 5.040312500001164,
      "v": 41
    },
    {
      "midi": 82,
      "hit": false,
      "t": 222701.16750002,
      "d": 5.040312500001164,
      "v": 51
    },
    {
      "midi": 55,
      "hit": false,
      "t": 222701.16750002,
      "d": 10.080625000002328,
      "v": 56
    },
    {
      "midi": 60,
      "hit": false,
      "t": 222706.20781252,
      "d": 10.080625000002328,
      "v": 54
    },
    {
      "midi": 64,
      "hit": false,
      "t": 222711.24812502,
      "d": 70.5643750000163,
      "v": 56
    },
    {
      "midi": 54,
      "hit": false,
      "t": 222721.32875002,
      "d": 40.32250000000931,
      "v": 34
    },
    {
      "midi": 82,
      "hit": false,
      "t": 222822.13500002003,
      "d": 10.080625000002328,
      "v": 60
    },
    {
      "midi": 42,
      "hit": false,
      "t": 222822.13500002003,
      "d": 40.32250000000931,
      "v": 82
    },
    {
      "midi": 54,
      "hit": false,
      "t": 222822.13500002003,
      "d": 70.5643750000163,
      "v": 94
    },
    {
      "midi": 55,
      "hit": false,
      "t": 222943.10250002006,
      "d": 5.040312500001164,
      "v": 22
    },
    {
      "midi": 64,
      "hit": false,
      "t": 222943.10250002006,
      "d": 5.040312500001164,
      "v": 35
    },
    {
      "midi": 33,
      "hit": false,
      "t": 222943.10250002006,
      "d": 90.72562500002095,
      "v": 102
    },
    {
      "midi": 67,
      "hit": false,
      "t": 222943.10250002006,
      "d": 322.5800000000745,
      "v": 104
    },
    {
      "midi": 98,
      "hit": false,
      "t": 222948.14281252006,
      "d": 10.080625000002328,
      "v": 45
    },
    {
      "midi": 82,
      "hit": false,
      "t": 222948.14281252006,
      "d": 10.080625000002328,
      "v": 58
    },
    {
      "midi": 60,
      "hit": false,
      "t": 222948.14281252006,
      "d": 45.36281250001048,
      "v": 29
    },
    {
      "midi": 64,
      "hit": false,
      "t": 222953.18312502006,
      "d": 50.40312500001164,
      "v": 26
    },
    {
      "midi": 54,
      "hit": false,
      "t": 222963.26375002007,
      "d": 40.32250000000931,
      "v": 40
    },
    {
      "midi": 98,
      "hit": false,
      "t": 223064.0700000201,
      "d": 10.080625000002328,
      "v": 84
    },
    {
      "midi": 82,
      "hit": false,
      "t": 223064.0700000201,
      "d": 10.080625000002328,
      "v": 108
    },
    {
      "midi": 55,
      "hit": false,
      "t": 223064.0700000201,
      "d": 25.20156250000582,
      "v": 67
    },
    {
      "midi": 42,
      "hit": false,
      "t": 223064.0700000201,
      "d": 65.52406250001513,
      "v": 98
    },
    {
      "midi": 40,
      "hit": false,
      "t": 223064.0700000201,
      "d": 70.5643750000163,
      "v": 94
    },
    {
      "midi": 36,
      "hit": false,
      "t": 223064.0700000201,
      "d": 211.6931250000489,
      "v": 102
    },
    {
      "midi": 60,
      "hit": false,
      "t": 223069.1103125201,
      "d": 10.080625000002328,
      "v": 49
    },
    {
      "midi": 64,
      "hit": false,
      "t": 223074.1506250201,
      "d": 10.080625000002328,
      "v": 54
    },
    {
      "midi": 98,
      "hit": false,
      "t": 223185.03750002012,
      "d": 5.040312500001164,
      "v": 35
    },
    {
      "midi": 82,
      "hit": false,
      "t": 223185.03750002012,
      "d": 5.040312500001164,
      "v": 43
    },
    {
      "midi": 54,
      "hit": false,
      "t": 223205.19875002012,
      "d": 40.32250000000931,
      "v": 39
    },
    {
      "midi": 55,
      "hit": false,
      "t": 223306.00500002014,
      "d": 5.040312500001164,
      "v": 22
    },
    {
      "midi": 82,
      "hit": false,
      "t": 223306.00500002014,
      "d": 10.080625000002328,
      "v": 66
    },
    {
      "midi": 42,
      "hit": false,
      "t": 223306.00500002014,
      "d": 40.32250000000931,
      "v": 82
    },
    {
      "midi": 54,
      "hit": false,
      "t": 223306.00500002014,
      "d": 85.68531250001979,
      "v": 47
    },
    {
      "midi": 40,
      "hit": false,
      "t": 223306.00500002014,
      "d": 171.37062500003958,
      "v": 102
    },
    {
      "midi": 67,
      "hit": false,
      "t": 223306.00500002014,
      "d": 216.73343750005006,
      "v": 104
    },
    {
      "midi": 60,
      "hit": false,
      "t": 223311.04531252015,
      "d": 55.443437500012806,
      "v": 22
    },
    {
      "midi": 64,
      "hit": false,
      "t": 223316.08562502015,
      "d": 50.40312500001164,
      "v": 22
    },
    {
      "midi": 55,
      "hit": false,
      "t": 223426.97250002017,
      "d": 65.52406250001513,
      "v": 65
    },
    {
      "midi": 98,
      "hit": false,
      "t": 223432.01281252017,
      "d": 10.080625000002328,
      "v": 49
    },
    {
      "midi": 82,
      "hit": false,
      "t": 223432.01281252017,
      "d": 10.080625000002328,
      "v": 64
    },
    {
      "midi": 60,
      "hit": false,
      "t": 223432.01281252017,
      "d": 65.52406250001513,
      "v": 67
    },
    {
      "midi": 64,
      "hit": false,
      "t": 223437.05312502017,
      "d": 70.5643750000163,
      "v": 55
    },
    {
      "midi": 54,
      "hit": false,
      "t": 223447.13375002018,
      "d": 40.32250000000931,
      "v": 39
    },
    {
      "midi": 98,
      "hit": false,
      "t": 223547.9400000202,
      "d": 10.080625000002328,
      "v": 78
    },
    {
      "midi": 82,
      "hit": false,
      "t": 223547.9400000202,
      "d": 10.080625000002328,
      "v": 102
    },
    {
      "midi": 55,
      "hit": false,
      "t": 223547.9400000202,
      "d": 10.080625000002328,
      "v": 54
    },
    {
      "midi": 42,
      "hit": false,
      "t": 223547.9400000202,
      "d": 60.48375000001397,
      "v": 98
    },
    {
      "midi": 35,
      "hit": false,
      "t": 223547.9400000202,
      "d": 90.72562500002095,
      "v": 86
    },
    {
      "midi": 45,
      "hit": false,
      "t": 223547.9400000202,
      "d": 282.2575000000652,
      "v": 102
    },
    {
      "midi": 67,
      "hit": false,
      "t": 223547.9400000202,
      "d": 322.5800000000745,
      "v": 104
    },
    {
      "midi": 60,
      "hit": false,
      "t": 223552.9803125202,
      "d": 10.080625000002328,
      "v": 41
    },
    {
      "midi": 64,
      "hit": false,
      "t": 223558.0206250202,
      "d": 10.080625000002328,
      "v": 49
    },
    {
      "midi": 98,
      "hit": false,
      "t": 223668.90750002023,
      "d": 5.040312500001164,
      "v": 41
    },
    {
      "midi": 82,
      "hit": false,
      "t": 223668.90750002023,
      "d": 5.040312500001164,
      "v": 51
    },
    {
      "midi": 60,
      "hit": false,
      "t": 223668.90750002023,
      "d": 50.40312500001164,
      "v": 22
    },
    {
      "midi": 64,
      "hit": false,
      "t": 223673.94781252023,
      "d": 55.443437500012806,
      "v": 22
    },
    {
      "midi": 54,
      "hit": false,
      "t": 223689.06875002023,
      "d": 40.32250000000931,
      "v": 34
    },
    {
      "midi": 82,
      "hit": false,
      "t": 223789.87500002026,
      "d": 10.080625000002328,
      "v": 60
    },
    {
      "midi": 55,
      "hit": false,
      "t": 223789.87500002026,
      "d": 10.080625000002328,
      "v": 55
    },
    {
      "midi": 42,
      "hit": false,
      "t": 223789.87500002026,
      "d": 40.32250000000931,
      "v": 73
    },
    {
      "midi": 60,
      "hit": false,
      "t": 223794.91531252026,
      "d": 10.080625000002328,
      "v": 55
    },
    {
      "midi": 64,
      "hit": false,
      "t": 223799.95562502026,
      "d": 25.20156250000582,
      "v": 55
    },
    {
      "midi": 54,
      "hit": false,
      "t": 223810.03625002026,
      "d": 70.5643750000163,
      "v": 93
    },
    {
      "midi": 33,
      "hit": false,
      "t": 223910.84250002028,
      "d": 90.72562500002095,
      "v": 97
    },
    {
      "midi": 67,
      "hit": false,
      "t": 223910.84250002028,
      "d": 322.5800000000745,
      "v": 104
    },
    {
      "midi": 98,
      "hit": false,
      "t": 223915.88281252029,
      "d": 10.080625000002328,
      "v": 45
    },
    {
      "midi": 82,
      "hit": false,
      "t": 223915.88281252029,
      "d": 10.080625000002328,
      "v": 58
    },
    {
      "midi": 54,
      "hit": false,
      "t": 223931.0037500203,
      "d": 40.32250000000931,
      "v": 31
    },
    {
      "midi": 98,
      "hit": false,
      "t": 224031.8100000203,
      "d": 10.080625000002328,
      "v": 84
    },
    {
      "midi": 82,
      "hit": false,
      "t": 224031.8100000203,
      "d": 10.080625000002328,
      "v": 108
    },
    {
      "midi": 55,
      "hit": false,
      "t": 224031.8100000203,
      "d": 50.40312500001164,
      "v": 54
    },
    {
      "midi": 42,
      "hit": false,
      "t": 224031.8100000203,
      "d": 65.52406250001513,
      "v": 98
    },
    {
      "midi": 40,
      "hit": false,
      "t": 224031.8100000203,
      "d": 65.52406250001513,
      "v": 91
    },
    {
      "midi": 36,
      "hit": false,
      "t": 224031.8100000203,
      "d": 216.73343750005006,
      "v": 102
    },
    {
      "midi": 60,
      "hit": false,
      "t": 224036.8503125203,
      "d": 45.36281250001048,
      "v": 49
    },
    {
      "midi": 64,
      "hit": false,
      "t": 224041.8906250203,
      "d": 35.28218750000815,
      "v": 56
    },
    {
      "midi": 39,
      "hit": false,
      "t": 224051.97125002032,
      "d": 70.5643750000163,
      "v": 76
    },
    {
      "midi": 98,
      "hit": false,
      "t": 224152.77750002034,
      "d": 5.040312500001164,
      "v": 35
    },
    {
      "midi": 82,
      "hit": false,
      "t": 224152.77750002034,
      "d": 5.040312500001164,
      "v": 43
    },
    {
      "midi": 55,
      "hit": false,
      "t": 224152.77750002034,
      "d": 45.36281250001048,
      "v": 23
    },
    {
      "midi": 60,
      "hit": false,
      "t": 224157.81781252034,
      "d": 50.40312500001164,
      "v": 47
    },
    {
      "midi": 64,
      "hit": false,
      "t": 224162.85812502034,
      "d": 35.28218750000815,
      "v": 38
    },
    {
      "midi": 54,
      "hit": false,
      "t": 224172.93875002034,
      "d": 40.32250000000931,
      "v": 39
    },
    {
      "midi": 82,
      "hit": false,
      "t": 224273.74500002037,
      "d": 10.080625000002328,
      "v": 66
    },
    {
      "midi": 42,
      "hit": false,
      "t": 224273.74500002037,
      "d": 60.48375000001397,
      "v": 82
    },
    {
      "midi": 54,
      "hit": false,
      "t": 224273.74500002037,
      "d": 85.68531250001979,
      "v": 50
    },
    {
      "midi": 40,
      "hit": false,
      "t": 224273.74500002037,
      "d": 141.1287500000326,
      "v": 97
    },
    {
      "midi": 67,
      "hit": false,
      "t": 224273.74500002037,
      "d": 216.73343750005006,
      "v": 104
    },
    {
      "midi": 55,
      "hit": false,
      "t": 224394.7125000204,
      "d": 10.080625000002328,
      "v": 51
    },
    {
      "midi": 60,
      "hit": false,
      "t": 224399.7528125204,
      "d": 5.040312500001164,
      "v": 49
    },
    {
      "midi": 98,
      "hit": false,
      "t": 224399.7528125204,
      "d": 10.080625000002328,
      "v": 49
    },
    {
      "midi": 82,
      "hit": false,
      "t": 224399.7528125204,
      "d": 10.080625000002328,
      "v": 64
    },
    {
      "midi": 64,
      "hit": false,
      "t": 224404.7931250204,
      "d": 10.080625000002328,
      "v": 54
    },
    {
      "midi": 54,
      "hit": false,
      "t": 224414.8737500204,
      "d": 40.32250000000931,
      "v": 40
    },
    {
      "midi": 98,
      "hit": false,
      "t": 224515.68000002042,
      "d": 10.080625000002328,
      "v": 78
    },
    {
      "midi": 82,
      "hit": false,
      "t": 224515.68000002042,
      "d": 10.080625000002328,
      "v": 102
    },
    {
      "midi": 57,
      "hit": false,
      "t": 224515.68000002042,
      "d": 65.52406250001513,
      "v": 65
    },
    {
      "midi": 42,
      "hit": false,
      "t": 224515.68000002042,
      "d": 75.60468750001746,
      "v": 98
    },
    {
      "midi": 35,
      "hit": false,
      "t": 224515.68000002042,
      "d": 90.72562500002095,
      "v": 79
    },
    {
      "midi": 38,
      "hit": false,
      "t": 224515.68000002042,
      "d": 357.86218750008265,
      "v": 105
    },
    {
      "midi": 74,
      "hit": false,
      "t": 224515.68000002042,
      "d": 1935.480000000447,
      "v": 47
    },
    {
      "midi": 62,
      "hit": false,
      "t": 224520.72031252043,
      "d": 60.48375000001397,
      "v": 60
    },
    {
      "midi": 67,
      "hit": false,
      "t": 224525.76062502043,
      "d": 70.5643750000163,
      "v": 60
    },
    {
      "midi": 98,
      "hit": false,
      "t": 224636.64750002045,
      "d": 5.040312500001164,
      "v": 41
    },
    {
      "midi": 82,
      "hit": false,
      "t": 224636.64750002045,
      "d": 5.040312500001164,
      "v": 51
    },
    {
      "midi": 57,
      "hit": false,
      "t": 224636.64750002045,
      "d": 10.080625000002328,
      "v": 51
    },
    {
      "midi": 62,
      "hit": false,
      "t": 224641.68781252045,
      "d": 5.040312500001164,
      "v": 41
    },
    {
      "midi": 67,
      "hit": false,
      "t": 224646.72812502045,
      "d": 10.080625000002328,
      "v": 57
    },
    {
      "midi": 54,
      "hit": false,
      "t": 224656.80875002046,
      "d": 40.32250000000931,
      "v": 34
    },
    {
      "midi": 82,
      "hit": false,
      "t": 224757.61500002048,
      "d": 10.080625000002328,
      "v": 60
    },
    {
      "midi": 42,
      "hit": false,
      "t": 224757.61500002048,
      "d": 45.36281250001048,
      "v": 82
    },
    {
      "midi": 54,
      "hit": false,
      "t": 224757.61500002048,
      "d": 70.5643750000163,
      "v": 94
    },
    {
      "midi": 57,
      "hit": false,
      "t": 224878.5825000205,
      "d": 50.40312500001164,
      "v": 22
    },
    {
      "midi": 98,
      "hit": false,
      "t": 224883.6228125205,
      "d": 10.080625000002328,
      "v": 45
    },
    {
      "midi": 82,
      "hit": false,
      "t": 224883.6228125205,
      "d": 10.080625000002328,
      "v": 58
    },
    {
      "midi": 62,
      "hit": false,
      "t": 224883.6228125205,
      "d": 50.40312500001164,
      "v": 22
    },
    {
      "midi": 67,
      "hit": false,
      "t": 224888.6631250205,
      "d": 50.40312500001164,
      "v": 25
    },
    {
      "midi": 54,
      "hit": false,
      "t": 224898.7437500205,
      "d": 40.32250000000931,
      "v": 40
    },
    {
      "midi": 98,
      "hit": false,
      "t": 224999.55000002054,
      "d": 10.080625000002328,
      "v": 84
    },
    {
      "midi": 82,
      "hit": false,
      "t": 224999.55000002054,
      "d": 10.080625000002328,
      "v": 108
    },
    {
      "midi": 57,
      "hit": false,
      "t": 224999.55000002054,
      "d": 10.080625000002328,
      "v": 49
    },
    {
      "midi": 40,
      "hit": false,
      "t": 224999.55000002054,
      "d": 65.52406250001513,
      "v": 91
    },
    {
      "midi": 42,
      "hit": false,
      "t": 224999.55000002054,
      "d": 70.5643750000163,
      "v": 98
    },
    {
      "midi": 33,
      "hit": false,
      "t": 224999.55000002054,
      "d": 398.18468750009197,
      "v": 109
    },
    {
      "midi": 62,
      "hit": false,
      "t": 225004.59031252054,
      "d": 10.080625000002328,
      "v": 56
    },
    {
      "midi": 67,
      "hit": false,
      "t": 225009.63062502054,
      "d": 10.080625000002328,
      "v": 54
    },
    {
      "midi": 98,
      "hit": false,
      "t": 225120.51750002056,
      "d": 5.040312500001164,
      "v": 35
    },
    {
      "midi": 82,
      "hit": false,
      "t": 225120.51750002056,
      "d": 5.040312500001164,
      "v": 43
    },
    {
      "midi": 54,
      "hit": false,
      "t": 225140.67875002057,
      "d": 40.32250000000931,
      "v": 39
    },
    {
      "midi": 82,
      "hit": false,
      "t": 225241.4850000206,
      "d": 10.080625000002328,
      "v": 66
    },
    {
      "midi": 42,
      "hit": false,
      "t": 225241.4850000206,
      "d": 50.40312500001164,
      "v": 64
    },
    {
      "midi": 54,
      "hit": false,
      "t": 225241.4850000206,
      "d": 85.68531250001979,
      "v": 47
    },
    {
      "midi": 57,
      "hit": false,
      "t": 225362.45250002062,
      "d": 50.40312500001164,
      "v": 65
    },
    {
      "midi": 31,
      "hit": false,
      "t": 225367.49281252062,
      "d": 5.040312500001164,
      "v": 30
    },
    {
      "midi": 98,
      "hit": false,
      "t": 225367.49281252062,
      "d": 10.080625000002328,
      "v": 49
    },
    {
      "midi": 82,
      "hit": false,
      "t": 225367.49281252062,
      "d": 10.080625000002328,
      "v": 64
    },
    {
      "midi": 62,
      "hit": false,
      "t": 225367.49281252062,
      "d": 70.5643750000163,
      "v": 73
    },
    {
      "midi": 67,
      "hit": false,
      "t": 225372.53312502062,
      "d": 75.60468750001746,
      "v": 55
    },
    {
      "midi": 54,
      "hit": false,
      "t": 225382.61375002062,
      "d": 40.32250000000931,
      "v": 39
    },
    {
      "midi": 98,
      "hit": false,
      "t": 225483.42000002065,
      "d": 10.080625000002328,
      "v": 78
    },
    {
      "midi": 82,
      "hit": false,
      "t": 225483.42000002065,
      "d": 10.080625000002328,
      "v": 102
    },
    {
      "midi": 57,
      "hit": false,
      "t": 225483.42000002065,
      "d": 10.080625000002328,
      "v": 54
    },
    {
      "midi": 42,
      "hit": false,
      "t": 225483.42000002065,
      "d": 65.52406250001513,
      "v": 93
    },
    {
      "midi": 35,
      "hit": false,
      "t": 225483.42000002065,
      "d": 90.72562500002095,
      "v": 86
    },
    {
      "midi": 38,
      "hit": false,
      "t": 225483.42000002065,
      "d": 317.53968750007334,
      "v": 105
    },
    {
      "midi": 62,
      "hit": false,
      "t": 225488.46031252065,
      "d": 5.040312500001164,
      "v": 49
    },
    {
      "midi": 67,
      "hit": false,
      "t": 225493.50062502065,
      "d": 10.080625000002328,
      "v": 57
    },
    {
      "midi": 98,
      "hit": false,
      "t": 225604.38750002068,
      "d": 5.040312500001164,
      "v": 41
    },
    {
      "midi": 82,
      "hit": false,
      "t": 225604.38750002068,
      "d": 5.040312500001164,
      "v": 51
    },
    {
      "midi": 54,
      "hit": false,
      "t": 225624.54875002068,
      "d": 40.32250000000931,
      "v": 34
    },
    {
      "midi": 82,
      "hit": false,
      "t": 225725.3550000207,
      "d": 10.080625000002328,
      "v": 60
    },
    {
      "midi": 57,
      "hit": false,
      "t": 225725.3550000207,
      "d": 10.080625000002328,
      "v": 49
    },
    {
      "midi": 42,
      "hit": false,
      "t": 225725.3550000207,
      "d": 60.48375000001397,
      "v": 87
    },
    {
      "midi": 66,
      "hit": false,
      "t": 225725.3550000207,
      "d": 216.73343750005006,
      "v": 104
    },
    {
      "midi": 62,
      "hit": false,
      "t": 225730.3953125207,
      "d": 25.20156250000582,
      "v": 47
    },
    {
      "midi": 67,
      "hit": false,
      "t": 225735.4356250207,
      "d": 10.080625000002328,
      "v": 54
    },
    {
      "midi": 54,
      "hit": false,
      "t": 225745.5162500207,
      "d": 70.5643750000163,
      "v": 93
    },
    {
      "midi": 33,
      "hit": false,
      "t": 225846.32250002073,
      "d": 95.76593750002212,
      "v": 102
    },
    {
      "midi": 98,
      "hit": false,
      "t": 225851.36281252073,
      "d": 10.080625000002328,
      "v": 45
    },
    {
      "midi": 82,
      "hit": false,
      "t": 225851.36281252073,
      "d": 10.080625000002328,
      "v": 58
    },
    {
      "midi": 54,
      "hit": false,
      "t": 225866.48375002074,
      "d": 40.32250000000931,
      "v": 31
    },
    {
      "midi": 98,
      "hit": false,
      "t": 225967.29000002076,
      "d": 10.080625000002328,
      "v": 84
    },
    {
      "midi": 82,
      "hit": false,
      "t": 225967.29000002076,
      "d": 10.080625000002328,
      "v": 108
    },
    {
      "midi": 40,
      "hit": false,
      "t": 225967.29000002076,
      "d": 65.52406250001513,
      "v": 94
    },
    {
      "midi": 57,
      "hit": false,
      "t": 225967.29000002076,
      "d": 65.52406250001513,
      "v": 57
    },
    {
      "midi": 42,
      "hit": false,
      "t": 225967.29000002076,
      "d": 80.64500000001863,
      "v": 93
    },
    {
      "midi": 62,
      "hit": false,
      "t": 225972.33031252076,
      "d": 70.5643750000163,
      "v": 59
    },
    {
      "midi": 33,
      "hit": false,
      "t": 225972.33031252076,
      "d": 216.73343750005006,
      "v": 102
    },
    {
      "midi": 67,
      "hit": false,
      "t": 225977.37062502076,
      "d": 70.5643750000163,
      "v": 59
    },
    {
      "midi": 39,
      "hit": false,
      "t": 225987.45125002076,
      "d": 70.5643750000163,
      "v": 76
    },
    {
      "midi": 98,
      "hit": false,
      "t": 226088.2575000208,
      "d": 5.040312500001164,
      "v": 35
    },
    {
      "midi": 82,
      "hit": false,
      "t": 226088.2575000208,
      "d": 5.040312500001164,
      "v": 43
    },
    {
      "midi": 57,
      "hit": false,
      "t": 226088.2575000208,
      "d": 40.32250000000931,
      "v": 44
    },
    {
      "midi": 62,
      "hit": false,
      "t": 226093.2978125208,
      "d": 55.443437500012806,
      "v": 38
    },
    {
      "midi": 67,
      "hit": false,
      "t": 226098.3381250208,
      "d": 60.48375000001397,
      "v": 45
    },
    {
      "midi": 54,
      "hit": false,
      "t": 226108.4187500208,
      "d": 40.32250000000931,
      "v": 39
    },
    {
      "midi": 82,
      "hit": false,
      "t": 226209.22500002082,
      "d": 10.080625000002328,
      "v": 66
    },
    {
      "midi": 38,
      "hit": false,
      "t": 226209.22500002082,
      "d": 40.32250000000931,
      "v": 105
    },
    {
      "midi": 42,
      "hit": false,
      "t": 226209.22500002082,
      "d": 55.443437500012806,
      "v": 82
    },
    {
      "midi": 54,
      "hit": false,
      "t": 226209.22500002082,
      "d": 85.68531250001979,
      "v": 50
    },
    {
      "midi": 69,
      "hit": false,
      "t": 226209.22500002082,
      "d": 216.73343750005006,
      "v": 104
    },
    {
      "midi": 57,
      "hit": false,
      "t": 226330.19250002084,
      "d": 10.080625000002328,
      "v": 47
    },
    {
      "midi": 62,
      "hit": false,
      "t": 226335.23281252084,
      "d": 5.040312500001164,
      "v": 45
    },
    {
      "midi": 98,
      "hit": false,
      "t": 226335.23281252084,
      "d": 10.080625000002328,
      "v": 49
    },
    {
      "midi": 82,
      "hit": false,
      "t": 226335.23281252084,
      "d": 10.080625000002328,
      "v": 64
    },
    {
      "midi": 67,
      "hit": false,
      "t": 226340.27312502085,
      "d": 10.080625000002328,
      "v": 47
    },
    {
      "midi": 54,
      "hit": false,
      "t": 226350.35375002085,
      "d": 40.32250000000931,
      "v": 40
    },
    {
      "midi": 98,
      "hit": false,
      "t": 226451.16000002087,
      "d": 10.080625000002328,
      "v": 78
    },
    {
      "midi": 82,
      "hit": false,
      "t": 226451.16000002087,
      "d": 10.080625000002328,
      "v": 102
    },
    {
      "midi": 55,
      "hit": false,
      "t": 226451.16000002087,
      "d": 60.48375000001397,
      "v": 60
    },
    {
      "midi": 42,
      "hit": false,
      "t": 226451.16000002087,
      "d": 70.5643750000163,
      "v": 95
    },
    {
      "midi": 35,
      "hit": false,
      "t": 226451.16000002087,
      "d": 90.72562500002095,
      "v": 87
    },
    {
      "midi": 31,
      "hit": false,
      "t": 226451.16000002087,
      "d": 372.98312500008615,
      "v": 102
    },
    {
      "midi": 43,
      "hit": false,
      "t": 226451.16000002087,
      "d": 433.4668750001001,
      "v": 104
    },
    {
      "midi": 64,
      "hit": false,
      "t": 226451.16000002087,
      "d": 650.2003125001502,
      "v": 104
    },
    {
      "midi": 59,
      "hit": false,
      "t": 226456.20031252087,
      "d": 65.52406250001513,
      "v": 67
    },
    {
      "midi": 62,
      "hit": false,
      "t": 226461.24062502087,
      "d": 60.48375000001397,
      "v": 60
    },
    {
      "midi": 98,
      "hit": false,
      "t": 226572.1275000209,
      "d": 5.040312500001164,
      "v": 41
    },
    {
      "midi": 82,
      "hit": false,
      "t": 226572.1275000209,
      "d": 5.040312500001164,
      "v": 51
    },
    {
      "midi": 55,
      "hit": false,
      "t": 226572.1275000209,
      "d": 10.080625000002328,
      "v": 41
    },
    {
      "midi": 59,
      "hit": false,
      "t": 226577.1678125209,
      "d": 5.040312500001164,
      "v": 55
    },
    {
      "midi": 62,
      "hit": false,
      "t": 226582.2081250209,
      "d": 10.080625000002328,
      "v": 56
    },
    {
      "midi": 54,
      "hit": false,
      "t": 226592.2887500209,
      "d": 40.32250000000931,
      "v": 34
    },
    {
      "midi": 82,
      "hit": false,
      "t": 226693.09500002093,
      "d": 10.080625000002328,
      "v": 60
    },
    {
      "midi": 42,
      "hit": false,
      "t": 226693.09500002093,
      "d": 55.443437500012806,
      "v": 82
    },
    {
      "midi": 54,
      "hit": false,
      "t": 226693.09500002093,
      "d": 70.5643750000163,
      "v": 94
    },
    {
      "midi": 55,
      "hit": false,
      "t": 226814.06250002095,
      "d": 45.36281250001048,
      "v": 22
    },
    {
      "midi": 98,
      "hit": false,
      "t": 226819.10281252096,
      "d": 10.080625000002328,
      "v": 45
    },
    {
      "midi": 82,
      "hit": false,
      "t": 226819.10281252096,
      "d": 10.080625000002328,
      "v": 58
    },
    {
      "midi": 59,
      "hit": false,
      "t": 226819.10281252096,
      "d": 35.28218750000815,
      "v": 32
    },
    {
      "midi": 62,
      "hit": false,
      "t": 226824.14312502096,
      "d": 40.32250000000931,
      "v": 26
    },
    {
      "midi": 54,
      "hit": false,
      "t": 226834.22375002096,
      "d": 40.32250000000931,
      "v": 40
    },
    {
      "midi": 98,
      "hit": false,
      "t": 226935.03000002098,
      "d": 10.080625000002328,
      "v": 84
    },
    {
      "midi": 82,
      "hit": false,
      "t": 226935.03000002098,
      "d": 10.080625000002328,
      "v": 108
    },
    {
      "midi": 55,
      "hit": false,
      "t": 226935.03000002098,
      "d": 10.080625000002328,
      "v": 54
    },
    {
      "midi": 42,
      "hit": false,
      "t": 226935.03000002098,
      "d": 75.60468750001746,
      "v": 93
    },
    {
      "midi": 40,
      "hit": false,
      "t": 226935.03000002098,
      "d": 75.60468750001746,
      "v": 94
    },
    {
      "midi": 38,
      "hit": false,
      "t": 226935.03000002098,
      "d": 393.1443750000908,
      "v": 105
    },
    {
      "midi": 45,
      "hit": false,
      "t": 226935.03000002098,
      "d": 433.4668750001001,
      "v": 104
    },
    {
      "midi": 59,
      "hit": false,
      "t": 226940.07031252098,
      "d": 5.040312500001164,
      "v": 49
    },
    {
      "midi": 62,
      "hit": false,
      "t": 226945.11062502099,
      "d": 10.080625000002328,
      "v": 49
    },
    {
      "midi": 98,
      "hit": false,
      "t": 227055.997500021,
      "d": 5.040312500001164,
      "v": 35
    },
    {
      "midi": 82,
      "hit": false,
      "t": 227055.997500021,
      "d": 5.040312500001164,
      "v": 43
    },
    {
      "midi": 54,
      "hit": false,
      "t": 227076.15875002102,
      "d": 40.32250000000931,
      "v": 39
    },
    {
      "midi": 82,
      "hit": false,
      "t": 227176.96500002104,
      "d": 10.080625000002328,
      "v": 66
    },
    {
      "midi": 55,
      "hit": false,
      "t": 227176.96500002104,
      "d": 40.32250000000931,
      "v": 22
    },
    {
      "midi": 42,
      "hit": false,
      "t": 227176.96500002104,
      "d": 50.40312500001164,
      "v": 73
    },
    {
      "midi": 54,
      "hit": false,
      "t": 227176.96500002104,
      "d": 85.68531250001979,
      "v": 47
    },
    {
      "midi": 59,
      "hit": false,
      "t": 227182.00531252104,
      "d": 40.32250000000931,
      "v": 26
    },
    {
      "midi": 62,
      "hit": false,
      "t": 227187.04562502104,
      "d": 45.36281250001048,
      "v": 22
    },
    {
      "midi": 55,
      "hit": false,
      "t": 227297.93250002107,
      "d": 70.5643750000163,
      "v": 62
    },
    {
      "midi": 98,
      "hit": false,
      "t": 227302.97281252107,
      "d": 10.080625000002328,
      "v": 49
    },
    {
      "midi": 82,
      "hit": false,
      "t": 227302.97281252107,
      "d": 10.080625000002328,
      "v": 64
    },
    {
      "midi": 59,
      "hit": false,
      "t": 227302.97281252107,
      "d": 85.68531250001979,
      "v": 58
    },
    {
      "midi": 62,
      "hit": false,
      "t": 227308.01312502107,
      "d": 75.60468750001746,
      "v": 68
    },
    {
      "midi": 54,
      "hit": false,
      "t": 227318.09375002107,
      "d": 40.32250000000931,
      "v": 39
    },
    {
      "midi": 98,
      "hit": false,
      "t": 227418.9000000211,
      "d": 10.080625000002328,
      "v": 78
    },
    {
      "midi": 82,
      "hit": false,
      "t": 227418.9000000211,
      "d": 10.080625000002328,
      "v": 102
    },
    {
      "midi": 55,
      "hit": false,
      "t": 227418.9000000211,
      "d": 10.080625000002328,
      "v": 41
    },
    {
      "midi": 42,
      "hit": false,
      "t": 227418.9000000211,
      "d": 55.443437500012806,
      "v": 87
    },
    {
      "midi": 35,
      "hit": false,
      "t": 227418.9000000211,
      "d": 95.76593750002212,
      "v": 87
    },
    {
      "midi": 31,
      "hit": false,
      "t": 227418.9000000211,
      "d": 357.86218750008265,
      "v": 105
    },
    {
      "midi": 47,
      "hit": false,
      "t": 227418.9000000211,
      "d": 433.4668750001001,
      "v": 104
    },
    {
      "midi": 59,
      "hit": false,
      "t": 227423.9403125211,
      "d": 5.040312500001164,
      "v": 47
    },
    {
      "midi": 62,
      "hit": false,
      "t": 227428.9806250211,
      "d": 10.080625000002328,
      "v": 54
    },
    {
      "midi": 98,
      "hit": false,
      "t": 227539.86750002112,
      "d": 5.040312500001164,
      "v": 41
    },
    {
      "midi": 82,
      "hit": false,
      "t": 227539.86750002112,
      "d": 5.040312500001164,
      "v": 51
    },
    {
      "midi": 54,
      "hit": false,
      "t": 227560.02875002113,
      "d": 40.32250000000931,
      "v": 34
    },
    {
      "midi": 82,
      "hit": false,
      "t": 227660.83500002115,
      "d": 10.080625000002328,
      "v": 60
    },
    {
      "midi": 55,
      "hit": false,
      "t": 227660.83500002115,
      "d": 10.080625000002328,
      "v": 55
    },
    {
      "midi": 42,
      "hit": false,
      "t": 227660.83500002115,
      "d": 50.40312500001164,
      "v": 82
    },
    {
      "midi": 59,
      "hit": false,
      "t": 227665.87531252115,
      "d": 10.080625000002328,
      "v": 49
    },
    {
      "midi": 62,
      "hit": false,
      "t": 227670.91562502115,
      "d": 10.080625000002328,
      "v": 49
    },
    {
      "midi": 54,
      "hit": false,
      "t": 227680.99625002115,
      "d": 70.5643750000163,
      "v": 93
    },
    {
      "midi": 98,
      "hit": false,
      "t": 227786.84281252118,
      "d": 10.080625000002328,
      "v": 45
    },
    {
      "midi": 82,
      "hit": false,
      "t": 227786.84281252118,
      "d": 10.080625000002328,
      "v": 58
    },
    {
      "midi": 54,
      "hit": false,
      "t": 227801.96375002118,
      "d": 40.32250000000931,
      "v": 31
    },
    {
      "midi": 35,
      "hit": false,
      "t": 227897.7296875212,
      "d": 171.37062500003958,
      "v": 102
    },
    {
      "midi": 98,
      "hit": false,
      "t": 227902.7700000212,
      "d": 10.080625000002328,
      "v": 84
    },
    {
      "midi": 82,
      "hit": false,
      "t": 227902.7700000212,
      "d": 10.080625000002328,
      "v": 108
    },
    {
      "midi": 55,
      "hit": false,
      "t": 227902.7700000212,
      "d": 55.443437500012806,
      "v": 59
    },
    {
      "midi": 42,
      "hit": false,
      "t": 227902.7700000212,
      "d": 60.48375000001397,
      "v": 87
    },
    {
      "midi": 40,
      "hit": false,
      "t": 227902.7700000212,
      "d": 60.48375000001397,
      "v": 94
    },
    {
      "midi": 48,
      "hit": false,
      "t": 227902.7700000212,
      "d": 433.4668750001001,
      "v": 104
    },
    {
      "midi": 59,
      "hit": false,
      "t": 227907.8103125212,
      "d": 65.52406250001513,
      "v": 58
    },
    {
      "midi": 62,
      "hit": false,
      "t": 227912.8506250212,
      "d": 60.48375000001397,
      "v": 58
    },
    {
      "midi": 39,
      "hit": false,
      "t": 227922.9312500212,
      "d": 70.5643750000163,
      "v": 76
    },
    {
      "midi": 98,
      "hit": false,
      "t": 228023.73750002123,
      "d": 5.040312500001164,
      "v": 35
    },
    {
      "midi": 82,
      "hit": false,
      "t": 228023.73750002123,
      "d": 5.040312500001164,
      "v": 43
    },
    {
      "midi": 55,
      "hit": false,
      "t": 228023.73750002123,
      "d": 60.48375000001397,
      "v": 40
    },
    {
      "midi": 59,
      "hit": false,
      "t": 228028.77781252124,
      "d": 65.52406250001513,
      "v": 38
    },
    {
      "midi": 62,
      "hit": false,
      "t": 228033.81812502124,
      "d": 35.28218750000815,
      "v": 38
    },
    {
      "midi": 54,
      "hit": false,
      "t": 228043.89875002124,
      "d": 40.32250000000931,
      "v": 39
    },
    {
      "midi": 38,
      "hit": false,
      "t": 228139.66468752126,
      "d": 196.5721875000454,
      "v": 97
    },
    {
      "midi": 82,
      "hit": false,
      "t": 228144.70500002126,
      "d": 10.080625000002328,
      "v": 66
    },
    {
      "midi": 42,
      "hit": false,
      "t": 228144.70500002126,
      "d": 50.40312500001164,
      "v": 75
    },
    {
      "midi": 54,
      "hit": false,
      "t": 228144.70500002126,
      "d": 85.68531250001979,
      "v": 50
    },
    {
      "midi": 55,
      "hit": false,
      "t": 228265.6725000213,
      "d": 10.080625000002328,
      "v": 49
    },
    {
      "midi": 98,
      "hit": false,
      "t": 228270.7128125213,
      "d": 10.080625000002328,
      "v": 49
    },
    {
      "midi": 82,
      "hit": false,
      "t": 228270.7128125213,
      "d": 10.080625000002328,
      "v": 64
    },
    {
      "midi": 59,
      "hit": false,
      "t": 228270.7128125213,
      "d": 25.20156250000582,
      "v": 54
    },
    {
      "midi": 62,
      "hit": false,
      "t": 228275.7531250213,
      "d": 10.080625000002328,
      "v": 57
    },
    {
      "midi": 54,
      "hit": false,
      "t": 228285.8337500213,
      "d": 40.32250000000931,
      "v": 40
    },
    {
      "midi": 98,
      "hit": false,
      "t": 228386.64000002132,
      "d": 10.080625000002328,
      "v": 78
    },
    {
      "midi": 82,
      "hit": false,
      "t": 228386.64000002132,
      "d": 10.080625000002328,
      "v": 102
    },
    {
      "midi": 42,
      "hit": false,
      "t": 228386.64000002132,
      "d": 45.36281250001048,
      "v": 95
    },
    {
      "midi": 35,
      "hit": false,
      "t": 228386.64000002132,
      "d": 105.84656250002445,
      "v": 87
    },
    {
      "midi": 53,
      "hit": false,
      "t": 228386.64000002132,
      "d": 115.92718750002678,
      "v": 93
    },
    {
      "midi": 31,
      "hit": false,
      "t": 228386.64000002132,
      "d": 317.53968750007334,
      "v": 102
    },
    {
      "midi": 50,
      "hit": false,
      "t": 228386.64000002132,
      "d": 433.4668750001001,
      "v": 104
    },
    {
      "midi": 74,
      "hit": false,
      "t": 228386.64000002132,
      "d": 1935.480000000418,
      "v": 47
    },
    {
      "midi": 98,
      "hit": false,
      "t": 228507.60750002135,
      "d": 5.040312500001164,
      "v": 41
    },
    {
      "midi": 82,
      "hit": false,
      "t": 228507.60750002135,
      "d": 5.040312500001164,
      "v": 51
    },
    {
      "midi": 59,
      "hit": false,
      "t": 228507.60750002135,
      "d": 10.080625000002328,
      "v": 69
    },
    {
      "midi": 62,
      "hit": false,
      "t": 228507.60750002135,
      "d": 15.120937500003492,
      "v": 86
    },
    {
      "midi": 65,
      "hit": false,
      "t": 228522.72843752135,
      "d": 15.120937500003492,
      "v": 94
    },
    {
      "midi": 54,
      "hit": false,
      "t": 228527.76875002135,
      "d": 40.32250000000931,
      "v": 34
    },
    {
      "midi": 82,
      "hit": false,
      "t": 228628.57500002137,
      "d": 10.080625000002328,
      "v": 60
    },
    {
      "midi": 42,
      "hit": false,
      "t": 228628.57500002137,
      "d": 40.32250000000931,
      "v": 82
    },
    {
      "midi": 53,
      "hit": false,
      "t": 228628.57500002137,
      "d": 45.36281250001048,
      "v": 93
    },
    {
      "midi": 54,
      "hit": false,
      "t": 228628.57500002137,
      "d": 70.5643750000163,
      "v": 94
    },
    {
      "midi": 59,
      "hit": false,
      "t": 228638.65562502138,
      "d": 65.52406250001513,
      "v": 72
    },
    {
      "midi": 65,
      "hit": false,
      "t": 228643.69593752138,
      "d": 75.60468750001746,
      "v": 91
    },
    {
      "midi": 62,
      "hit": false,
      "t": 228648.73625002138,
      "d": 55.443437500012806,
      "v": 82
    },
    {
      "midi": 62,
      "hit": false,
      "t": 228749.5425000214,
      "d": 15.120937500003492,
      "v": 97
    },
    {
      "midi": 59,
      "hit": false,
      "t": 228749.5425000214,
      "d": 15.120937500003492,
      "v": 78
    },
    {
      "midi": 31,
      "hit": false,
      "t": 228749.5425000214,
      "d": 90.72562500002095,
      "v": 102
    },
    {
      "midi": 98,
      "hit": false,
      "t": 228754.5828125214,
      "d": 10.080625000002328,
      "v": 45
    },
    {
      "midi": 82,
      "hit": false,
      "t": 228754.5828125214,
      "d": 10.080625000002328,
      "v": 58
    },
    {
      "midi": 65,
      "hit": false,
      "t": 228764.6634375214,
      "d": 15.120937500003492,
      "v": 81
    },
    {
      "midi": 54,
      "hit": false,
      "t": 228769.7037500214,
      "d": 40.32250000000931,
      "v": 40
    },
    {
      "midi": 98,
      "hit": false,
      "t": 228870.51000002143,
      "d": 10.080625000002328,
      "v": 84
    },
    {
      "midi": 82,
      "hit": false,
      "t": 228870.51000002143,
      "d": 10.080625000002328,
      "v": 108
    },
    {
      "midi": 62,
      "hit": false,
      "t": 228870.51000002143,
      "d": 15.120937500003492,
      "v": 92
    },
    {
      "midi": 59,
      "hit": false,
      "t": 228870.51000002143,
      "d": 15.120937500003492,
      "v": 89
    },
    {
      "midi": 42,
      "hit": false,
      "t": 228870.51000002143,
      "d": 65.52406250001513,
      "v": 98
    },
    {
      "midi": 40,
      "hit": false,
      "t": 228870.51000002143,
      "d": 70.5643750000163,
      "v": 94
    },
    {
      "midi": 35,
      "hit": false,
      "t": 228870.51000002143,
      "d": 211.6931250000489,
      "v": 102
    },
    {
      "midi": 52,
      "hit": false,
      "t": 228870.51000002143,
      "d": 433.4668750001001,
      "v": 104
    },
    {
      "midi": 71,
      "hit": false,
      "t": 228870.51000002143,
      "d": 433.4668750001001,
      "v": 104
    },
    {
      "midi": 65,
      "hit": false,
      "t": 228885.63093752143,
      "d": 15.120937500003492,
      "v": 87
    },
    {
      "midi": 98,
      "hit": false,
      "t": 228991.47750002146,
      "d": 5.040312500001164,
      "v": 35
    },
    {
      "midi": 82,
      "hit": false,
      "t": 228991.47750002146,
      "d": 5.040312500001164,
      "v": 43
    },
    {
      "midi": 53,
      "hit": false,
      "t": 228991.47750002146,
      "d": 50.40312500001164,
      "v": 87
    },
    {
      "midi": 59,
      "hit": false,
      "t": 229001.55812502146,
      "d": 65.52406250001513,
      "v": 80
    },
    {
      "midi": 65,
      "hit": false,
      "t": 229006.59843752146,
      "d": 75.60468750001746,
      "v": 68
    },
    {
      "midi": 54,
      "hit": false,
      "t": 229011.63875002146,
      "d": 40.32250000000931,
      "v": 39
    },
    {
      "midi": 62,
      "hit": false,
      "t": 229011.63875002146,
      "d": 55.443437500012806,
      "v": 79
    },
    {
      "midi": 82,
      "hit": false,
      "t": 229112.4450000215,
      "d": 10.080625000002328,
      "v": 66
    },
    {
      "midi": 62,
      "hit": false,
      "t": 229112.4450000215,
      "d": 15.120937500003492,
      "v": 98
    },
    {
      "midi": 59,
      "hit": false,
      "t": 229112.4450000215,
      "d": 15.120937500003492,
      "v": 80
    },
    {
      "midi": 42,
      "hit": false,
      "t": 229112.4450000215,
      "d": 40.32250000000931,
      "v": 82
    },
    {
      "midi": 54,
      "hit": false,
      "t": 229112.4450000215,
      "d": 85.68531250001979,
      "v": 47
    },
    {
      "midi": 38,
      "hit": false,
      "t": 229112.4450000215,
      "d": 171.37062500003958,
      "v": 102
    },
    {
      "midi": 65,
      "hit": false,
      "t": 229127.5659375215,
      "d": 15.120937500003492,
      "v": 78
    },
    {
      "midi": 62,
      "hit": false,
      "t": 229233.4125000215,
      "d": 15.120937500003492,
      "v": 91
    },
    {
      "midi": 59,
      "hit": false,
      "t": 229233.4125000215,
      "d": 15.120937500003492,
      "v": 85
    },
    {
      "midi": 31,
      "hit": false,
      "t": 229238.45281252151,
      "d": 5.040312500001164,
      "v": 35
    },
    {
      "midi": 98,
      "hit": false,
      "t": 229238.45281252151,
      "d": 10.080625000002328,
      "v": 49
    },
    {
      "midi": 82,
      "hit": false,
      "t": 229238.45281252151,
      "d": 10.080625000002328,
      "v": 64
    },
    {
      "midi": 65,
      "hit": false,
      "t": 229248.53343752152,
      "d": 15.120937500003492,
      "v": 98
    },
    {
      "midi": 54,
      "hit": false,
      "t": 229253.57375002152,
      "d": 40.32250000000931,
      "v": 39
    },
    {
      "midi": 98,
      "hit": false,
      "t": 229354.38000002154,
      "d": 10.080625000002328,
      "v": 78
    },
    {
      "midi": 82,
      "hit": false,
      "t": 229354.38000002154,
      "d": 10.080625000002328,
      "v": 102
    },
    {
      "midi": 53,
      "hit": false,
      "t": 229354.38000002154,
      "d": 45.36281250001048,
      "v": 86
    },
    {
      "midi": 42,
      "hit": false,
      "t": 229354.38000002154,
      "d": 60.48375000001397,
      "v": 98
    },
    {
      "midi": 35,
      "hit": false,
      "t": 229354.38000002154,
      "d": 90.72562500002095,
      "v": 86
    },
    {
      "midi": 43,
      "hit": false,
      "t": 229354.38000002154,
      "d": 282.2575000000652,
      "v": 102
    },
    {
      "midi": 69,
      "hit": false,
      "t": 229354.38000002154,
      "d": 433.4668750001001,
      "v": 104
    },
    {
      "midi": 59,
      "hit": false,
      "t": 229364.46062502154,
      "d": 70.5643750000163,
      "v": 80
    },
    {
      "midi": 65,
      "hit": false,
      "t": 229364.46062502154,
      "d": 95.76593750002212,
      "v": 95
    },
    {
      "midi": 62,
      "hit": false,
      "t": 229374.54125002155,
      "d": 85.68531250001979,
      "v": 81
    },
    {
      "midi": 98,
      "hit": false,
      "t": 229475.34750002157,
      "d": 5.040312500001164,
      "v": 41
    },
    {
      "midi": 82,
      "hit": false,
      "t": 229475.34750002157,
      "d": 5.040312500001164,
      "v": 51
    },
    {
      "midi": 31,
      "hit": false,
      "t": 229480.38781252157,
      "d": 5.040312500001164,
      "v": 35
    },
    {
      "midi": 54,
      "hit": false,
      "t": 229495.50875002157,
      "d": 40.32250000000931,
      "v": 34
    },
    {
      "midi": 82,
      "hit": false,
      "t": 229596.3150000216,
      "d": 10.080625000002328,
      "v": 60
    },
    {
      "midi": 42,
      "hit": false,
      "t": 229596.3150000216,
      "d": 40.32250000000931,
      "v": 73
    },
    {
      "midi": 59,
      "hit": false,
      "t": 229596.3150000216,
      "d": 95.76593750002212,
      "v": 95
    },
    {
      "midi": 46,
      "hit": false,
      "t": 229601.3553125216,
      "d": 5.040312500001164,
      "v": 68
    },
    {
      "midi": 65,
      "hit": false,
      "t": 229606.3956250216,
      "d": 95.76593750002212,
      "v": 75
    },
    {
      "midi": 62,
      "hit": false,
      "t": 229611.4359375216,
      "d": 95.76593750002212,
      "v": 87
    },
    {
      "midi": 54,
      "hit": false,
      "t": 229616.4762500216,
      "d": 70.5643750000163,
      "v": 93
    },
    {
      "midi": 53,
      "hit": false,
      "t": 229717.28250002163,
      "d": 70.5643750000163,
      "v": 90
    },
    {
      "midi": 31,
      "hit": false,
      "t": 229717.28250002163,
      "d": 90.72562500002095,
      "v": 97
    },
    {
      "midi": 98,
      "hit": false,
      "t": 229722.32281252163,
      "d": 10.080625000002328,
      "v": 45
    },
    {
      "midi": 82,
      "hit": false,
      "t": 229722.32281252163,
      "d": 10.080625000002328,
      "v": 58
    },
    {
      "midi": 54,
      "hit": false,
      "t": 229737.44375002163,
      "d": 40.32250000000931,
      "v": 31
    },
    {
      "midi": 98,
      "hit": false,
      "t": 229838.25000002165,
      "d": 10.080625000002328,
      "v": 84
    },
    {
      "midi": 82,
      "hit": false,
      "t": 229838.25000002165,
      "d": 10.080625000002328,
      "v": 108
    },
    {
      "midi": 40,
      "hit": false,
      "t": 229838.25000002165,
      "d": 65.52406250001513,
      "v": 91
    },
    {
      "midi": 59,
      "hit": false,
      "t": 229838.25000002165,
      "d": 95.76593750002212,
      "v": 70
    },
    {
      "midi": 35,
      "hit": false,
      "t": 229838.25000002165,
      "d": 216.73343750005006,
      "v": 102
    },
    {
      "midi": 55,
      "hit": false,
      "t": 229838.25000002165,
      "d": 433.466875000071,
      "v": 104
    },
    {
      "midi": 67,
      "hit": false,
      "t": 229838.25000002165,
      "d": 433.466875000071,
      "v": 104
    },
    {
      "midi": 44,
      "hit": false,
      "t": 229843.29031252165,
      "d": 5.040312500001164,
      "v": 42
    },
    {
      "midi": 65,
      "hit": false,
      "t": 229848.33062502166,
      "d": 95.76593750002212,
      "v": 95
    },
    {
      "midi": 62,
      "hit": false,
      "t": 229853.37093752166,
      "d": 95.76593750002212,
      "v": 79
    },
    {
      "midi": 39,
      "hit": false,
      "t": 229858.41125002166,
      "d": 70.5643750000163,
      "v": 76
    },
    {
      "midi": 40,
      "hit": false,
      "t": 229959.21750002168,
      "d": 5.040312500001164,
      "v": 68
    },
    {
      "midi": 98,
      "hit": false,
      "t": 229959.21750002168,
      "d": 5.040312500001164,
      "v": 35
    },
    {
      "midi": 82,
      "hit": false,
      "t": 229959.21750002168,
      "d": 5.040312500001164,
      "v": 43
    },
    {
      "midi": 59,
      "hit": false,
      "t": 229959.21750002168,
      "d": 95.76593750002212,
      "v": 95
    },
    {
      "midi": 65,
      "hit": false,
      "t": 229969.29812502168,
      "d": 95.76593750002212,
      "v": 75
    },
    {
      "midi": 62,
      "hit": false,
      "t": 229974.33843752168,
      "d": 90.72562500002095,
      "v": 87
    },
    {
      "midi": 54,
      "hit": false,
      "t": 229979.3787500217,
      "d": 40.32250000000931,
      "v": 39
    },
    {
      "midi": 47,
      "hit": false,
      "t": 230080.1850000217,
      "d": 5.040312500001164,
      "v": 82
    },
    {
      "midi": 82,
      "hit": false,
      "t": 230080.1850000217,
      "d": 10.080625000002328,
      "v": 66
    },
    {
      "midi": 54,
      "hit": false,
      "t": 230080.1850000217,
      "d": 85.68531249999069,
      "v": 50
    },
    {
      "midi": 38,
      "hit": false,
      "t": 230080.1850000217,
      "d": 141.1287500000035,
      "v": 97
    },
    {
      "midi": 45,
      "hit": false,
      "t": 230201.1525000217,
      "d": 5.040312500001164,
      "v": 78
    },
    {
      "midi": 53,
      "hit": false,
      "t": 230201.1525000217,
      "d": 15.120937500003492,
      "v": 77
    },
    {
      "midi": 98,
      "hit": false,
      "t": 230206.1928125217,
      "d": 10.080625000002328,
      "v": 49
    },
    {
      "midi": 82,
      "hit": false,
      "t": 230206.1928125217,
      "d": 10.080625000002328,
      "v": 64
    },
    {
      "midi": 59,
      "hit": false,
      "t": 230211.2331250217,
      "d": 15.120937500003492,
      "v": 69
    },
    {
      "midi": 62,
      "hit": false,
      "t": 230221.3137500217,
      "d": 20.161250000004657,
      "v": 73
    },
    {
      "midi": 54,
      "hit": false,
      "t": 230221.3137500217,
      "d": 40.32250000000931,
      "v": 40
    },
    {
      "midi": 49,
      "hit": false,
      "t": 230317.07968752173,
      "d": 5.040312500001164,
      "v": 79
    },
    {
      "midi": 98,
      "hit": false,
      "t": 230322.12000002174,
      "d": 10.080625000002328,
      "v": 78
    },
    {
      "midi": 82,
      "hit": false,
      "t": 230322.12000002174,
      "d": 10.080625000002328,
      "v": 102
    },
    {
      "midi": 42,
      "hit": false,
      "t": 230322.12000002174,
      "d": 45.36281250001048,
      "v": 95
    },
    {
      "midi": 55,
      "hit": false,
      "t": 230322.12000002174,
      "d": 50.40312500001164,
      "v": 58
    },
    {
      "midi": 60,
      "hit": false,
      "t": 230322.12000002174,
      "d": 60.48375000001397,
      "v": 53
    },
    {
      "midi": 35,
      "hit": false,
      "t": 230322.12000002174,
      "d": 105.84656250002445,
      "v": 87
    },
    {
      "midi": 52,
      "hit": false,
      "t": 230322.12000002174,
      "d": 241.93500000005588,
      "v": 104
    },
    {
      "midi": 48,
      "hit": false,
      "t": 230322.12000002174,
      "d": 241.93500000005588,
      "v": 104
    },
    {
      "midi": 36,
      "hit": false,
      "t": 230322.12000002174,
      "d": 307.459062500071,
      "v": 105
    },
    {
      "midi": 71,
      "hit": false,
      "t": 230322.12000002174,
      "d": 322.5800000000745,
      "v": 47
    },
    {
      "midi": 67,
      "hit": false,
      "t": 230322.12000002174,
      "d": 1935.480000000447,
      "v": 47
    },
    {
      "midi": 59,
      "hit": false,
      "t": 230327.16031252174,
      "d": 40.32250000000931,
      "v": 54
    },
    {
      "midi": 64,
      "hit": false,
      "t": 230332.20062502174,
      "d": 65.52406250001513,
      "v": 54
    },
    {
      "midi": 98,
      "hit": false,
      "t": 230443.08750002176,
      "d": 5.040312500001164,
      "v": 41
    },
    {
      "midi": 82,
      "hit": false,
      "t": 230443.08750002176,
      "d": 5.040312500001164,
      "v": 51
    },
    {
      "midi": 55,
      "hit": false,
      "t": 230443.08750002176,
      "d": 10.080625000002328,
      "v": 56
    },
    {
      "midi": 59,
      "hit": false,
      "t": 230448.12781252177,
      "d": 10.080625000002328,
      "v": 54
    },
    {
      "midi": 64,
      "hit": false,
      "t": 230453.16812502177,
      "d": 70.5643750000163,
      "v": 56
    },
    {
      "midi": 54,
      "hit": false,
      "t": 230463.24875002177,
      "d": 40.32250000000931,
      "v": 34
    },
    {
      "midi": 82,
      "hit": false,
      "t": 230564.0550000218,
      "d": 10.080625000002328,
      "v": 60
    },
    {
      "midi": 42,
      "hit": false,
      "t": 230564.0550000218,
      "d": 40.32250000000931,
      "v": 82
    },
    {
      "midi": 54,
      "hit": false,
      "t": 230564.0550000218,
      "d": 70.5643750000163,
      "v": 94
    },
    {
      "midi": 55,
      "hit": false,
      "t": 230685.02250002182,
      "d": 5.040312500001164,
      "v": 22
    },
    {
      "midi": 60,
      "hit": false,
      "t": 230685.02250002182,
      "d": 5.040312500001164,
      "v": 35
    },
    {
      "midi": 36,
      "hit": false,
      "t": 230685.02250002182,
      "d": 90.72562500002095,
      "v": 102
    },
    {
      "midi": 71,
      "hit": false,
      "t": 230685.02250002182,
      "d": 322.5800000000745,
      "v": 104
    },
    {
      "midi": 98,
      "hit": false,
      "t": 230690.06281252182,
      "d": 10.080625000002328,
      "v": 45
    },
    {
      "midi": 82,
      "hit": false,
      "t": 230690.06281252182,
      "d": 10.080625000002328,
      "v": 58
    },
    {
      "midi": 59,
      "hit": false,
      "t": 230690.06281252182,
      "d": 45.36281250001048,
      "v": 29
    },
    {
      "midi": 64,
      "hit": false,
      "t": 230695.10312502182,
      "d": 50.40312500001164,
      "v": 26
    },
    {
      "midi": 54,
      "hit": false,
      "t": 230705.18375002182,
      "d": 40.32250000000931,
      "v": 40
    },
    {
      "midi": 98,
      "hit": false,
      "t": 230805.99000002185,
      "d": 10.080625000002328,
      "v": 84
    },
    {
      "midi": 82,
      "hit": false,
      "t": 230805.99000002185,
      "d": 10.080625000002328,
      "v": 108
    },
    {
      "midi": 55,
      "hit": false,
      "t": 230805.99000002185,
      "d": 25.20156250000582,
      "v": 67
    },
    {
      "midi": 42,
      "hit": false,
      "t": 230805.99000002185,
      "d": 65.52406250001513,
      "v": 98
    },
    {
      "midi": 40,
      "hit": false,
      "t": 230805.99000002185,
      "d": 70.5643750000163,
      "v": 94
    },
    {
      "midi": 60,
      "hit": false,
      "t": 230805.99000002185,
      "d": 70.5643750000163,
      "v": 61
    },
    {
      "midi": 31,
      "hit": false,
      "t": 230805.99000002185,
      "d": 297.3784375000687,
      "v": 105
    },
    {
      "midi": 59,
      "hit": false,
      "t": 230811.03031252185,
      "d": 10.080625000002328,
      "v": 49
    },
    {
      "midi": 64,
      "hit": false,
      "t": 230816.07062502185,
      "d": 10.080625000002328,
      "v": 54
    },
    {
      "midi": 98,
      "hit": false,
      "t": 230926.95750002188,
      "d": 5.040312500001164,
      "v": 35
    },
    {
      "midi": 82,
      "hit": false,
      "t": 230926.95750002188,
      "d": 5.040312500001164,
      "v": 43
    },
    {
      "midi": 54,
      "hit": false,
      "t": 230947.11875002188,
      "d": 40.32250000000931,
      "v": 39
    },
    {
      "midi": 55,
      "hit": false,
      "t": 231047.9250000219,
      "d": 5.040312500001164,
      "v": 22
    },
    {
      "midi": 82,
      "hit": false,
      "t": 231047.9250000219,
      "d": 10.080625000002328,
      "v": 66
    },
    {
      "midi": 42,
      "hit": false,
      "t": 231047.9250000219,
      "d": 40.32250000000931,
      "v": 82
    },
    {
      "midi": 54,
      "hit": false,
      "t": 231047.9250000219,
      "d": 85.68531250001979,
      "v": 47
    },
    {
      "midi": 52,
      "hit": false,
      "t": 231047.9250000219,
      "d": 216.73343750005006,
      "v": 104
    },
    {
      "midi": 48,
      "hit": false,
      "t": 231047.9250000219,
      "d": 216.73343750005006,
      "v": 104
    },
    {
      "midi": 71,
      "hit": false,
      "t": 231047.9250000219,
      "d": 216.73343750005006,
      "v": 104
    },
    {
      "midi": 59,
      "hit": false,
      "t": 231052.9653125219,
      "d": 55.443437500012806,
      "v": 22
    },
    {
      "midi": 64,
      "hit": false,
      "t": 231058.0056250219,
      "d": 50.40312500001164,
      "v": 22
    },
    {
      "midi": 55,
      "hit": false,
      "t": 231168.89250002193,
      "d": 65.52406250001513,
      "v": 65
    },
    {
      "midi": 60,
      "hit": false,
      "t": 231168.89250002193,
      "d": 80.64500000001863,
      "v": 66
    },
    {
      "midi": 31,
      "hit": false,
      "t": 231173.93281252193,
      "d": 5.040312500001164,
      "v": 35
    },
    {
      "midi": 98,
      "hit": false,
      "t": 231173.93281252193,
      "d": 10.080625000002328,
      "v": 49
    },
    {
      "midi": 82,
      "hit": false,
      "t": 231173.93281252193,
      "d": 10.080625000002328,
      "v": 64
    },
    {
      "midi": 59,
      "hit": false,
      "t": 231173.93281252193,
      "d": 65.52406250001513,
      "v": 67
    },
    {
      "midi": 64,
      "hit": false,
      "t": 231178.97312502193,
      "d": 80.64500000001863,
      "v": 55
    },
    {
      "midi": 54,
      "hit": false,
      "t": 231189.05375002194,
      "d": 40.32250000000931,
      "v": 39
    },
    {
      "midi": 98,
      "hit": false,
      "t": 231289.86000002196,
      "d": 10.080625000002328,
      "v": 78
    },
    {
      "midi": 82,
      "hit": false,
      "t": 231289.86000002196,
      "d": 10.080625000002328,
      "v": 102
    },
    {
      "midi": 55,
      "hit": false,
      "t": 231289.86000002196,
      "d": 10.080625000002328,
      "v": 54
    },
    {
      "midi": 42,
      "hit": false,
      "t": 231289.86000002196,
      "d": 60.48375000001397,
      "v": 98
    },
    {
      "midi": 35,
      "hit": false,
      "t": 231289.86000002196,
      "d": 90.72562500002095,
      "v": 86
    },
    {
      "midi": 36,
      "hit": false,
      "t": 231289.86000002196,
      "d": 211.6931250000489,
      "v": 105
    },
    {
      "midi": 71,
      "hit": false,
      "t": 231289.86000002196,
      "d": 322.5800000000745,
      "v": 104
    },
    {
      "midi": 59,
      "hit": false,
      "t": 231294.90031252196,
      "d": 10.080625000002328,
      "v": 41
    },
    {
      "midi": 64,
      "hit": false,
      "t": 231299.94062502196,
      "d": 10.080625000002328,
      "v": 49
    },
    {
      "midi": 31,
      "hit": false,
      "t": 231410.827500022,
      "d": 5.040312500001164,
      "v": 30
    },
    {
      "midi": 98,
      "hit": false,
      "t": 231410.827500022,
      "d": 5.040312500001164,
      "v": 41
    },
    {
      "midi": 82,
      "hit": false,
      "t": 231410.827500022,
      "d": 5.040312500001164,
      "v": 51
    },
    {
      "midi": 59,
      "hit": false,
      "t": 231410.827500022,
      "d": 50.40312500001164,
      "v": 22
    },
    {
      "midi": 64,
      "hit": false,
      "t": 231415.867812522,
      "d": 55.443437500012806,
      "v": 22
    },
    {
      "midi": 54,
      "hit": false,
      "t": 231430.988750022,
      "d": 40.32250000000931,
      "v": 34
    },
    {
      "midi": 82,
      "hit": false,
      "t": 231531.79500002202,
      "d": 10.080625000002328,
      "v": 60
    },
    {
      "midi": 55,
      "hit": false,
      "t": 231531.79500002202,
      "d": 10.080625000002328,
      "v": 55
    },
    {
      "midi": 42,
      "hit": false,
      "t": 231531.79500002202,
      "d": 40.32250000000931,
      "v": 73
    },
    {
      "midi": 60,
      "hit": false,
      "t": 231531.79500002202,
      "d": 70.5643750000163,
      "v": 61
    },
    {
      "midi": 36,
      "hit": false,
      "t": 231531.79500002202,
      "d": 206.65281250004773,
      "v": 105
    },
    {
      "midi": 59,
      "hit": false,
      "t": 231536.83531252202,
      "d": 10.080625000002328,
      "v": 55
    },
    {
      "midi": 64,
      "hit": false,
      "t": 231541.87562502202,
      "d": 25.20156250000582,
      "v": 55
    },
    {
      "midi": 54,
      "hit": false,
      "t": 231551.95625002202,
      "d": 70.5643750000163,
      "v": 93
    },
    {
      "midi": 71,
      "hit": false,
      "t": 231652.76250002204,
      "d": 322.5800000000745,
      "v": 104
    },
    {
      "midi": 98,
      "hit": false,
      "t": 231657.80281252204,
      "d": 10.080625000002328,
      "v": 45
    },
    {
      "midi": 82,
      "hit": false,
      "t": 231657.80281252204,
      "d": 10.080625000002328,
      "v": 58
    },
    {
      "midi": 54,
      "hit": false,
      "t": 231672.92375002205,
      "d": 40.32250000000931,
      "v": 31
    },
    {
      "midi": 98,
      "hit": false,
      "t": 231773.73000002207,
      "d": 10.080625000002328,
      "v": 84
    },
    {
      "midi": 82,
      "hit": false,
      "t": 231773.73000002207,
      "d": 10.080625000002328,
      "v": 108
    },
    {
      "midi": 60,
      "hit": false,
      "t": 231773.73000002207,
      "d": 45.36281250001048,
      "v": 51
    },
    {
      "midi": 55,
      "hit": false,
      "t": 231773.73000002207,
      "d": 50.40312500001164,
      "v": 54
    },
    {
      "midi": 42,
      "hit": false,
      "t": 231773.73000002207,
      "d": 65.52406250001513,
      "v": 98
    },
    {
      "midi": 40,
      "hit": false,
      "t": 231773.73000002207,
      "d": 65.52406250001513,
      "v": 91
    },
    {
      "midi": 28,
      "hit": false,
      "t": 231773.73000002207,
      "d": 191.53187500004424,
      "v": 102
    },
    {
      "midi": 59,
      "hit": false,
      "t": 231778.77031252207,
      "d": 45.36281250001048,
      "v": 49
    },
    {
      "midi": 64,
      "hit": false,
      "t": 231783.81062502207,
      "d": 70.5643750000163,
      "v": 56
    },
    {
      "midi": 39,
      "hit": false,
      "t": 231793.89125002208,
      "d": 70.5643750000163,
      "v": 76
    },
    {
      "midi": 98,
      "hit": false,
      "t": 231894.6975000221,
      "d": 5.040312500001164,
      "v": 35
    },
    {
      "midi": 82,
      "hit": false,
      "t": 231894.6975000221,
      "d": 5.040312500001164,
      "v": 43
    },
    {
      "midi": 55,
      "hit": false,
      "t": 231894.6975000221,
      "d": 45.36281250001048,
      "v": 23
    },
    {
      "midi": 60,
      "hit": false,
      "t": 231894.6975000221,
      "d": 45.36281250001048,
      "v": 42
    },
    {
      "midi": 59,
      "hit": false,
      "t": 231899.7378125221,
      "d": 50.40312500001164,
      "v": 47
    },
    {
      "midi": 64,
      "hit": false,
      "t": 231904.7781250221,
      "d": 45.36281250001048,
      "v": 38
    },
    {
      "midi": 54,
      "hit": false,
      "t": 231914.8587500221,
      "d": 40.32250000000931,
      "v": 39
    },
    {
      "midi": 82,
      "hit": false,
      "t": 232015.66500002213,
      "d": 10.080625000002328,
      "v": 66
    },
    {
      "midi": 42,
      "hit": false,
      "t": 232015.66500002213,
      "d": 60.48375000001397,
      "v": 82
    },
    {
      "midi": 54,
      "hit": false,
      "t": 232015.66500002213,
      "d": 85.68531250001979,
      "v": 50
    },
    {
      "midi": 31,
      "hit": false,
      "t": 232015.66500002213,
      "d": 161.29000000003725,
      "v": 105
    },
    {
      "midi": 71,
      "hit": false,
      "t": 232015.66500002213,
      "d": 216.73343750005006,
      "v": 104
    },
    {
      "midi": 55,
      "hit": false,
      "t": 232136.63250002215,
      "d": 10.080625000002328,
      "v": 51
    },
    {
      "midi": 59,
      "hit": false,
      "t": 232141.67281252216,
      "d": 5.040312500001164,
      "v": 49
    },
    {
      "midi": 98,
      "hit": false,
      "t": 232141.67281252216,
      "d": 10.080625000002328,
      "v": 49
    },
    {
      "midi": 82,
      "hit": false,
      "t": 232141.67281252216,
      "d": 10.080625000002328,
      "v": 64
    },
    {
      "midi": 64,
      "hit": false,
      "t": 232146.71312502216,
      "d": 10.080625000002328,
      "v": 54
    },
    {
      "midi": 54,
      "hit": false,
      "t": 232156.79375002216,
      "d": 40.32250000000931,
      "v": 40
    },
    {
      "midi": 98,
      "hit": false,
      "t": 232257.60000002218,
      "d": 10.080625000002328,
      "v": 78
    },
    {
      "midi": 82,
      "hit": false,
      "t": 232257.60000002218,
      "d": 10.080625000002328,
      "v": 102
    },
    {
      "midi": 55,
      "hit": false,
      "t": 232257.60000002218,
      "d": 65.52406250001513,
      "v": 65
    },
    {
      "midi": 42,
      "hit": false,
      "t": 232257.60000002218,
      "d": 75.60468750001746,
      "v": 98
    },
    {
      "midi": 35,
      "hit": false,
      "t": 232257.60000002218,
      "d": 90.72562500002095,
      "v": 79
    },
    {
      "midi": 51,
      "hit": false,
      "t": 232257.60000002218,
      "d": 241.93500000005588,
      "v": 104
    },
    {
      "midi": 47,
      "hit": false,
      "t": 232257.60000002218,
      "d": 241.93500000005588,
      "v": 104
    },
    {
      "midi": 71,
      "hit": false,
      "t": 232257.60000002218,
      "d": 322.5800000000745,
      "v": 47
    },
    {
      "midi": 59,
      "hit": false,
      "t": 232262.64031252218,
      "d": 60.48375000001397,
      "v": 60
    },
    {
      "midi": 63,
      "hit": false,
      "t": 232267.68062502219,
      "d": 70.5643750000163,
      "v": 60
    },
    {
      "midi": 98,
      "hit": false,
      "t": 232378.5675000222,
      "d": 5.040312500001164,
      "v": 41
    },
    {
      "midi": 82,
      "hit": false,
      "t": 232378.5675000222,
      "d": 5.040312500001164,
      "v": 51
    },
    {
      "midi": 55,
      "hit": false,
      "t": 232378.5675000222,
      "d": 10.080625000002328,
      "v": 51
    },
    {
      "midi": 59,
      "hit": false,
      "t": 232383.6078125222,
      "d": 5.040312500001164,
      "v": 41
    },
    {
      "midi": 63,
      "hit": false,
      "t": 232388.6481250222,
      "d": 10.080625000002328,
      "v": 57
    },
    {
      "midi": 54,
      "hit": false,
      "t": 232398.72875002222,
      "d": 40.32250000000931,
      "v": 34
    },
    {
      "midi": 82,
      "hit": false,
      "t": 232499.53500002224,
      "d": 10.080625000002328,
      "v": 60
    },
    {
      "midi": 42,
      "hit": false,
      "t": 232499.53500002224,
      "d": 45.36281250001048,
      "v": 82
    },
    {
      "midi": 54,
      "hit": false,
      "t": 232499.53500002224,
      "d": 70.5643750000163,
      "v": 94
    },
    {
      "midi": 55,
      "hit": false,
      "t": 232620.50250002227,
      "d": 50.40312500001164,
      "v": 22
    },
    {
      "midi": 71,
      "hit": false,
      "t": 232620.50250002227,
      "d": 322.5800000000745,
      "v": 104
    },
    {
      "midi": 98,
      "hit": false,
      "t": 232625.54281252227,
      "d": 10.080625000002328,
      "v": 45
    },
    {
      "midi": 82,
      "hit": false,
      "t": 232625.54281252227,
      "d": 10.080625000002328,
      "v": 58
    },
    {
      "midi": 59,
      "hit": false,
      "t": 232625.54281252227,
      "d": 50.40312500001164,
      "v": 22
    },
    {
      "midi": 63,
      "hit": false,
      "t": 232630.58312502227,
      "d": 50.40312500001164,
      "v": 25
    },
    {
      "midi": 54,
      "hit": false,
      "t": 232640.66375002227,
      "d": 40.32250000000931,
      "v": 40
    },
    {
      "midi": 31,
      "hit": false,
      "t": 232736.4296875223,
      "d": 357.86218750008265,
      "v": 105
    },
    {
      "midi": 98,
      "hit": false,
      "t": 232741.4700000223,
      "d": 10.080625000002328,
      "v": 84
    },
    {
      "midi": 82,
      "hit": false,
      "t": 232741.4700000223,
      "d": 10.080625000002328,
      "v": 108
    },
    {
      "midi": 55,
      "hit": false,
      "t": 232741.4700000223,
      "d": 10.080625000002328,
      "v": 49
    },
    {
      "midi": 40,
      "hit": false,
      "t": 232741.4700000223,
      "d": 65.52406250001513,
      "v": 91
    },
    {
      "midi": 42,
      "hit": false,
      "t": 232741.4700000223,
      "d": 70.5643750000163,
      "v": 98
    },
    {
      "midi": 59,
      "hit": false,
      "t": 232746.5103125223,
      "d": 10.080625000002328,
      "v": 56
    },
    {
      "midi": 63,
      "hit": false,
      "t": 232751.5506250223,
      "d": 10.080625000002328,
      "v": 54
    },
    {
      "midi": 98,
      "hit": false,
      "t": 232862.43750002232,
      "d": 5.040312500001164,
      "v": 35
    },
    {
      "midi": 82,
      "hit": false,
      "t": 232862.43750002232,
      "d": 5.040312500001164,
      "v": 43
    },
    {
      "midi": 54,
      "hit": false,
      "t": 232882.59875002233,
      "d": 40.32250000000931,
      "v": 39
    },
    {
      "midi": 82,
      "hit": false,
      "t": 232983.40500002235,
      "d": 10.080625000002328,
      "v": 66
    },
    {
      "midi": 42,
      "hit": false,
      "t": 232983.40500002235,
      "d": 50.40312500001164,
      "v": 64
    },
    {
      "midi": 54,
      "hit": false,
      "t": 232983.40500002235,
      "d": 85.68531250001979,
      "v": 47
    },
    {
      "midi": 51,
      "hit": false,
      "t": 232983.40500002235,
      "d": 216.73343750005006,
      "v": 104
    },
    {
      "midi": 47,
      "hit": false,
      "t": 232983.40500002235,
      "d": 216.73343750005006,
      "v": 104
    },
    {
      "midi": 71,
      "hit": false,
      "t": 232983.40500002235,
      "d": 216.73343750005006,
      "v": 104
    },
    {
      "midi": 55,
      "hit": false,
      "t": 233104.37250002238,
      "d": 50.40312500001164,
      "v": 65
    },
    {
      "midi": 31,
      "hit": false,
      "t": 233109.41281252238,
      "d": 5.040312500001164,
      "v": 21
    },
    {
      "midi": 98,
      "hit": false,
      "t": 233109.41281252238,
      "d": 10.080625000002328,
      "v": 49
    },
    {
      "midi": 82,
      "hit": false,
      "t": 233109.41281252238,
      "d": 10.080625000002328,
      "v": 64
    },
    {
      "midi": 59,
      "hit": false,
      "t": 233109.41281252238,
      "d": 70.5643750000163,
      "v": 73
    },
    {
      "midi": 63,
      "hit": false,
      "t": 233114.45312502238,
      "d": 75.60468750001746,
      "v": 55
    },
    {
      "midi": 54,
      "hit": false,
      "t": 233124.53375002238,
      "d": 40.32250000000931,
      "v": 39
    },
    {
      "midi": 98,
      "hit": false,
      "t": 233225.3400000224,
      "d": 10.080625000002328,
      "v": 78
    },
    {
      "midi": 82,
      "hit": false,
      "t": 233225.3400000224,
      "d": 10.080625000002328,
      "v": 102
    },
    {
      "midi": 55,
      "hit": false,
      "t": 233225.3400000224,
      "d": 10.080625000002328,
      "v": 54
    },
    {
      "midi": 42,
      "hit": false,
      "t": 233225.3400000224,
      "d": 65.52406250001513,
      "v": 93
    },
    {
      "midi": 35,
      "hit": false,
      "t": 233225.3400000224,
      "d": 90.72562500002095,
      "v": 86
    },
    {
      "midi": 71,
      "hit": false,
      "t": 233225.3400000224,
      "d": 216.73343750005006,
      "v": 104
    },
    {
      "midi": 59,
      "hit": false,
      "t": 233230.3803125224,
      "d": 5.040312500001164,
      "v": 49
    },
    {
      "midi": 63,
      "hit": false,
      "t": 233235.4206250224,
      "d": 10.080625000002328,
      "v": 57
    },
    {
      "midi": 98,
      "hit": false,
      "t": 233346.30750002243,
      "d": 5.040312500001164,
      "v": 41
    },
    {
      "midi": 82,
      "hit": false,
      "t": 233346.30750002243,
      "d": 5.040312500001164,
      "v": 51
    },
    {
      "midi": 31,
      "hit": false,
      "t": 233351.34781252244,
      "d": 5.040312500001164,
      "v": 30
    },
    {
      "midi": 54,
      "hit": false,
      "t": 233366.46875002244,
      "d": 40.32250000000931,
      "v": 34
    },
    {
      "midi": 82,
      "hit": false,
      "t": 233467.27500002246,
      "d": 10.080625000002328,
      "v": 60
    },
    {
      "midi": 55,
      "hit": false,
      "t": 233467.27500002246,
      "d": 10.080625000002328,
      "v": 49
    },
    {
      "midi": 42,
      "hit": false,
      "t": 233467.27500002246,
      "d": 60.48375000001397,
      "v": 87
    },
    {
      "midi": 69,
      "hit": false,
      "t": 233467.27500002246,
      "d": 216.73343750005006,
      "v": 104
    },
    {
      "midi": 59,
      "hit": false,
      "t": 233472.31531252246,
      "d": 25.20156250000582,
      "v": 47
    },
    {
      "midi": 63,
      "hit": false,
      "t": 233477.35562502246,
      "d": 10.080625000002328,
      "v": 54
    },
    {
      "midi": 54,
      "hit": false,
      "t": 233487.43625002247,
      "d": 70.5643750000163,
      "v": 93
    },
    {
      "midi": 98,
      "hit": false,
      "t": 233593.2828125225,
      "d": 10.080625000002328,
      "v": 45
    },
    {
      "midi": 82,
      "hit": false,
      "t": 233593.2828125225,
      "d": 10.080625000002328,
      "v": 58
    },
    {
      "midi": 54,
      "hit": false,
      "t": 233608.4037500225,
      "d": 40.32250000000931,
      "v": 31
    },
    {
      "midi": 98,
      "hit": false,
      "t": 233709.21000002252,
      "d": 10.080625000002328,
      "v": 84
    },
    {
      "midi": 82,
      "hit": false,
      "t": 233709.21000002252,
      "d": 10.080625000002328,
      "v": 108
    },
    {
      "midi": 40,
      "hit": false,
      "t": 233709.21000002252,
      "d": 65.52406250001513,
      "v": 94
    },
    {
      "midi": 55,
      "hit": false,
      "t": 233709.21000002252,
      "d": 65.52406250001513,
      "v": 57
    },
    {
      "midi": 42,
      "hit": false,
      "t": 233709.21000002252,
      "d": 80.64500000001863,
      "v": 93
    },
    {
      "midi": 67,
      "hit": false,
      "t": 233709.21000002252,
      "d": 216.73343750005006,
      "v": 104
    },
    {
      "midi": 59,
      "hit": false,
      "t": 233714.25031252252,
      "d": 70.5643750000163,
      "v": 59
    },
    {
      "midi": 63,
      "hit": false,
      "t": 233719.29062502252,
      "d": 70.5643750000163,
      "v": 59
    },
    {
      "midi": 39,
      "hit": false,
      "t": 233729.37125002252,
      "d": 70.5643750000163,
      "v": 76
    },
    {
      "midi": 98,
      "hit": false,
      "t": 233830.17750002255,
      "d": 5.040312500001164,
      "v": 35
    },
    {
      "midi": 82,
      "hit": false,
      "t": 233830.17750002255,
      "d": 5.040312500001164,
      "v": 43
    },
    {
      "midi": 55,
      "hit": false,
      "t": 233830.17750002255,
      "d": 40.32250000000931,
      "v": 44
    },
    {
      "midi": 59,
      "hit": false,
      "t": 233835.21781252255,
      "d": 55.443437500012806,
      "v": 38
    },
    {
      "midi": 63,
      "hit": false,
      "t": 233840.25812502255,
      "d": 60.48375000001397,
      "v": 45
    },
    {
      "midi": 54,
      "hit": false,
      "t": 233850.33875002255,
      "d": 40.32250000000931,
      "v": 39
    },
    {
      "midi": 82,
      "hit": false,
      "t": 233951.14500002257,
      "d": 10.080625000002328,
      "v": 66
    },
    {
      "midi": 42,
      "hit": false,
      "t": 233951.14500002257,
      "d": 55.443437500012806,
      "v": 82
    },
    {
      "midi": 54,
      "hit": false,
      "t": 233951.14500002257,
      "d": 85.68531250001979,
      "v": 50
    },
    {
      "midi": 31,
      "hit": false,
      "t": 233951.14500002257,
      "d": 161.29000000003725,
      "v": 102
    },
    {
      "midi": 71,
      "hit": false,
      "t": 233951.14500002257,
      "d": 216.73343750005006,
      "v": 104
    },
    {
      "midi": 55,
      "hit": false,
      "t": 234072.1125000226,
      "d": 10.080625000002328,
      "v": 47
    },
    {
      "midi": 29,
      "hit": false,
      "t": 234072.1125000226,
      "d": 95.76593750002212,
      "v": 45
    },
    {
      "midi": 59,
      "hit": false,
      "t": 234077.1528125226,
      "d": 5.040312500001164,
      "v": 45
    },
    {
      "midi": 98,
      "hit": false,
      "t": 234077.1528125226,
      "d": 10.080625000002328,
      "v": 49
    },
    {
      "midi": 82,
      "hit": false,
      "t": 234077.1528125226,
      "d": 10.080625000002328,
      "v": 64
    },
    {
      "midi": 63,
      "hit": false,
      "t": 234082.1931250226,
      "d": 10.080625000002328,
      "v": 47
    },
    {
      "midi": 54,
      "hit": false,
      "t": 234092.2737500226,
      "d": 40.32250000000931,
      "v": 40
    },
    {
      "midi": 98,
      "hit": false,
      "t": 234193.08000002263,
      "d": 10.080625000002328,
      "v": 78
    },
    {
      "midi": 82,
      "hit": false,
      "t": 234193.08000002263,
      "d": 10.080625000002328,
      "v": 102
    },
    {
      "midi": 54,
      "hit": false,
      "t": 234193.08000002263,
      "d": 60.48375000001397,
      "v": 60
    },
    {
      "midi": 42,
      "hit": false,
      "t": 234193.08000002263,
      "d": 70.5643750000163,
      "v": 95
    },
    {
      "midi": 59,
      "hit": false,
      "t": 234193.08000002263,
      "d": 70.5643750000163,
      "v": 66
    },
    {
      "midi": 35,
      "hit": false,
      "t": 234193.08000002263,
      "d": 90.72562500002095,
      "v": 87
    },
    {
      "midi": 52,
      "hit": false,
      "t": 234193.08000002263,
      "d": 241.93500000005588,
      "v": 104
    },
    {
      "midi": 69,
      "hit": false,
      "t": 234193.08000002263,
      "d": 322.5800000000745,
      "v": 104
    },
    {
      "midi": 28,
      "hit": false,
      "t": 234193.08000002263,
      "d": 372.98312500008615,
      "v": 102
    },
    {
      "midi": 57,
      "hit": false,
      "t": 234198.12031252263,
      "d": 65.52406250001513,
      "v": 67
    },
    {
      "midi": 62,
      "hit": false,
      "t": 234203.16062502263,
      "d": 65.52406250001513,
      "v": 60
    },
    {
      "midi": 98,
      "hit": false,
      "t": 234314.04750002266,
      "d": 5.040312500001164,
      "v": 41
    },
    {
      "midi": 82,
      "hit": false,
      "t": 234314.04750002266,
      "d": 5.040312500001164,
      "v": 51
    },
    {
      "midi": 54,
      "hit": false,
      "t": 234314.04750002266,
      "d": 10.080625000002328,
      "v": 41
    },
    {
      "midi": 57,
      "hit": false,
      "t": 234319.08781252266,
      "d": 5.040312500001164,
      "v": 55
    },
    {
      "midi": 62,
      "hit": false,
      "t": 234324.12812502266,
      "d": 10.080625000002328,
      "v": 56
    },
    {
      "midi": 54,
      "hit": false,
      "t": 234334.20875002266,
      "d": 40.32250000000931,
      "v": 34
    },
    {
      "midi": 82,
      "hit": false,
      "t": 234435.0150000227,
      "d": 10.080625000002328,
      "v": 60
    },
    {
      "midi": 42,
      "hit": false,
      "t": 234435.0150000227,
      "d": 55.443437500012806,
      "v": 82
    },
    {
      "midi": 54,
      "hit": false,
      "t": 234435.0150000227,
      "d": 70.5643750000163,
      "v": 94
    },
    {
      "midi": 98,
      "hit": false,
      "t": 234561.02281252271,
      "d": 10.080625000002328,
      "v": 45
    },
    {
      "midi": 82,
      "hit": false,
      "t": 234561.02281252271,
      "d": 10.080625000002328,
      "v": 58
    },
    {
      "midi": 57,
      "hit": false,
      "t": 234561.02281252271,
      "d": 35.28218750000815,
      "v": 32
    },
    {
      "midi": 62,
      "hit": false,
      "t": 234566.06312502272,
      "d": 40.32250000000931,
      "v": 26
    },
    {
      "midi": 54,
      "hit": false,
      "t": 234576.14375002272,
      "d": 25.20156250000582,
      "v": 40
    },
    {
      "midi": 98,
      "hit": false,
      "t": 234676.95000002274,
      "d": 10.080625000002328,
      "v": 84
    },
    {
      "midi": 82,
      "hit": false,
      "t": 234676.95000002274,
      "d": 10.080625000002328,
      "v": 108
    },
    {
      "midi": 54,
      "hit": false,
      "t": 234676.95000002274,
      "d": 10.080625000002328,
      "v": 54
    },
    {
      "midi": 42,
      "hit": false,
      "t": 234676.95000002274,
      "d": 75.60468750001746,
      "v": 93
    },
    {
      "midi": 40,
      "hit": false,
      "t": 234676.95000002274,
      "d": 75.60468750001746,
      "v": 94
    },
    {
      "midi": 59,
      "hit": false,
      "t": 234676.95000002274,
      "d": 85.68531250001979,
      "v": 60
    },
    {
      "midi": 57,
      "hit": false,
      "t": 234681.99031252274,
      "d": 5.040312500001164,
      "v": 49
    },
    {
      "midi": 62,
      "hit": false,
      "t": 234687.03062502274,
      "d": 10.080625000002328,
      "v": 49
    },
    {
      "midi": 98,
      "hit": false,
      "t": 234797.91750002277,
      "d": 5.040312500001164,
      "v": 35
    },
    {
      "midi": 82,
      "hit": false,
      "t": 234797.91750002277,
      "d": 5.040312500001164,
      "v": 43
    },
    {
      "midi": 54,
      "hit": false,
      "t": 234818.07875002277,
      "d": 40.32250000000931,
      "v": 39
    },
    {
      "midi": 82,
      "hit": false,
      "t": 234918.8850000228,
      "d": 10.080625000002328,
      "v": 66
    },
    {
      "midi": 54,
      "hit": false,
      "t": 234918.8850000228,
      "d": 40.32250000000931,
      "v": 47
    },
    {
      "midi": 42,
      "hit": false,
      "t": 234918.8850000228,
      "d": 50.40312500001164,
      "v": 73
    },
    {
      "midi": 52,
      "hit": false,
      "t": 234918.8850000228,
      "d": 216.73343750005006,
      "v": 104
    },
    {
      "midi": 69,
      "hit": false,
      "t": 234918.8850000228,
      "d": 433.4668750001001,
      "v": 104
    },
    {
      "midi": 57,
      "hit": false,
      "t": 234923.9253125228,
      "d": 40.32250000000931,
      "v": 26
    },
    {
      "midi": 62,
      "hit": false,
      "t": 234928.9656250228,
      "d": 45.36281250001048,
      "v": 22
    },
    {
      "midi": 59,
      "hit": false,
      "t": 235039.85250002283,
      "d": 85.68531250001979,
      "v": 61
    },
    {
      "midi": 98,
      "hit": false,
      "t": 235044.89281252283,
      "d": 10.080625000002328,
      "v": 49
    },
    {
      "midi": 82,
      "hit": false,
      "t": 235044.89281252283,
      "d": 10.080625000002328,
      "v": 64
    },
    {
      "midi": 57,
      "hit": false,
      "t": 235044.89281252283,
      "d": 85.68531250001979,
      "v": 58
    },
    {
      "midi": 62,
      "hit": false,
      "t": 235049.93312502283,
      "d": 85.68531250001979,
      "v": 68
    },
    {
      "midi": 54,
      "hit": false,
      "t": 235060.01375002283,
      "d": 40.32250000000931,
      "v": 39
    },
    {
      "midi": 98,
      "hit": false,
      "t": 235160.82000002285,
      "d": 10.080625000002328,
      "v": 78
    },
    {
      "midi": 82,
      "hit": false,
      "t": 235160.82000002285,
      "d": 10.080625000002328,
      "v": 102
    },
    {
      "midi": 54,
      "hit": false,
      "t": 235160.82000002285,
      "d": 10.080625000002328,
      "v": 41
    },
    {
      "midi": 42,
      "hit": false,
      "t": 235160.82000002285,
      "d": 55.443437500012806,
      "v": 87
    },
    {
      "midi": 35,
      "hit": false,
      "t": 235160.82000002285,
      "d": 95.76593750002212,
      "v": 87
    },
    {
      "midi": 28,
      "hit": false,
      "t": 235160.82000002285,
      "d": 357.86218750008265,
      "v": 105
    },
    {
      "midi": 57,
      "hit": false,
      "t": 235165.86031252285,
      "d": 5.040312500001164,
      "v": 47
    },
    {
      "midi": 62,
      "hit": false,
      "t": 235170.90062502286,
      "d": 10.080625000002328,
      "v": 54
    },
    {
      "midi": 98,
      "hit": false,
      "t": 235281.78750002288,
      "d": 5.040312500001164,
      "v": 41
    },
    {
      "midi": 82,
      "hit": false,
      "t": 235281.78750002288,
      "d": 5.040312500001164,
      "v": 51
    },
    {
      "midi": 54,
      "hit": false,
      "t": 235301.9487500229,
      "d": 40.32250000000931,
      "v": 34
    },
    {
      "midi": 82,
      "hit": false,
      "t": 235402.7550000229,
      "d": 10.080625000002328,
      "v": 60
    },
    {
      "midi": 54,
      "hit": false,
      "t": 235402.7550000229,
      "d": 10.080625000002328,
      "v": 55
    },
    {
      "midi": 42,
      "hit": false,
      "t": 235402.7550000229,
      "d": 50.40312500001164,
      "v": 82
    },
    {
      "midi": 59,
      "hit": false,
      "t": 235402.7550000229,
      "d": 50.40312500001164,
      "v": 61
    },
    {
      "midi": 71,
      "hit": false,
      "t": 235402.7550000229,
      "d": 216.73343750005006,
      "v": 104
    },
    {
      "midi": 57,
      "hit": false,
      "t": 235407.7953125229,
      "d": 10.080625000002328,
      "v": 49
    },
    {
      "midi": 62,
      "hit": false,
      "t": 235412.8356250229,
      "d": 10.080625000002328,
      "v": 49
    },
    {
      "midi": 54,
      "hit": false,
      "t": 235422.9162500229,
      "d": 20.161250000004657,
      "v": 93
    },
    {
      "midi": 98,
      "hit": false,
      "t": 235528.76281252294,
      "d": 10.080625000002328,
      "v": 45
    },
    {
      "midi": 82,
      "hit": false,
      "t": 235528.76281252294,
      "d": 10.080625000002328,
      "v": 58
    },
    {
      "midi": 54,
      "hit": false,
      "t": 235543.88375002294,
      "d": 40.32250000000931,
      "v": 31
    },
    {
      "midi": 28,
      "hit": false,
      "t": 235639.64968752296,
      "d": 171.37062500003958,
      "v": 102
    },
    {
      "midi": 98,
      "hit": false,
      "t": 235644.69000002297,
      "d": 10.080625000002328,
      "v": 84
    },
    {
      "midi": 82,
      "hit": false,
      "t": 235644.69000002297,
      "d": 10.080625000002328,
      "v": 108
    },
    {
      "midi": 54,
      "hit": false,
      "t": 235644.69000002297,
      "d": 55.443437500012806,
      "v": 59
    },
    {
      "midi": 42,
      "hit": false,
      "t": 235644.69000002297,
      "d": 60.48375000001397,
      "v": 87
    },
    {
      "midi": 40,
      "hit": false,
      "t": 235644.69000002297,
      "d": 60.48375000001397,
      "v": 94
    },
    {
      "midi": 59,
      "hit": false,
      "t": 235644.69000002297,
      "d": 85.68531250001979,
      "v": 60
    },
    {
      "midi": 69,
      "hit": false,
      "t": 235644.69000002297,
      "d": 216.73343750005006,
      "v": 104
    },
    {
      "midi": 57,
      "hit": false,
      "t": 235649.73031252297,
      "d": 65.52406250001513,
      "v": 58
    },
    {
      "midi": 62,
      "hit": false,
      "t": 235654.77062502297,
      "d": 60.48375000001397,
      "v": 58
    },
    {
      "midi": 39,
      "hit": false,
      "t": 235664.85125002297,
      "d": 70.5643750000163,
      "v": 76
    },
    {
      "midi": 98,
      "hit": false,
      "t": 235765.657500023,
      "d": 5.040312500001164,
      "v": 35
    },
    {
      "midi": 82,
      "hit": false,
      "t": 235765.657500023,
      "d": 5.040312500001164,
      "v": 43
    },
    {
      "midi": 59,
      "hit": false,
      "t": 235765.657500023,
      "d": 45.36281250001048,
      "v": 38
    },
    {
      "midi": 57,
      "hit": false,
      "t": 235770.697812523,
      "d": 65.52406250001513,
      "v": 38
    },
    {
      "midi": 62,
      "hit": false,
      "t": 235775.738125023,
      "d": 75.60468750001746,
      "v": 38
    },
    {
      "midi": 54,
      "hit": false,
      "t": 235785.818750023,
      "d": 40.32250000000931,
      "v": 39
    },
    {
      "midi": 40,
      "hit": false,
      "t": 235881.58468752302,
      "d": 196.5721875000454,
      "v": 97
    },
    {
      "midi": 82,
      "hit": false,
      "t": 235886.62500002302,
      "d": 10.080625000002328,
      "v": 66
    },
    {
      "midi": 42,
      "hit": false,
      "t": 235886.62500002302,
      "d": 50.40312500001164,
      "v": 75
    },
    {
      "midi": 54,
      "hit": false,
      "t": 235886.62500002302,
      "d": 85.68531250001979,
      "v": 50
    },
    {
      "midi": 68,
      "hit": false,
      "t": 235886.62500002302,
      "d": 216.73343750005006,
      "v": 104
    },
    {
      "midi": 54,
      "hit": false,
      "t": 236007.59250002305,
      "d": 10.080625000002328,
      "v": 49
    },
    {
      "midi": 98,
      "hit": false,
      "t": 236012.63281252305,
      "d": 10.080625000002328,
      "v": 49
    },
    {
      "midi": 82,
      "hit": false,
      "t": 236012.63281252305,
      "d": 10.080625000002328,
      "v": 64
    },
    {
      "midi": 57,
      "hit": false,
      "t": 236012.63281252305,
      "d": 25.20156250000582,
      "v": 54
    },
    {
      "midi": 62,
      "hit": false,
      "t": 236017.67312502305,
      "d": 10.080625000002328,
      "v": 57
    },
    {
      "midi": 54,
      "hit": false,
      "t": 236027.75375002305,
      "d": 40.32250000000931,
      "v": 40
    },
    {
      "midi": 98,
      "hit": false,
      "t": 236128.56000002308,
      "d": 10.080625000002328,
      "v": 78
    },
    {
      "midi": 82,
      "hit": false,
      "t": 236128.56000002308,
      "d": 10.080625000002328,
      "v": 102
    },
    {
      "midi": 42,
      "hit": false,
      "t": 236128.56000002308,
      "d": 45.36281250001048,
      "v": 95
    },
    {
      "midi": 35,
      "hit": false,
      "t": 236128.56000002308,
      "d": 105.84656250002445,
      "v": 87
    },
    {
      "midi": 56,
      "hit": false,
      "t": 236128.56000002308,
      "d": 115.92718750002678,
      "v": 93
    },
    {
      "midi": 52,
      "hit": false,
      "t": 236128.56000002308,
      "d": 241.93500000005588,
      "v": 104
    },
    {
      "midi": 28,
      "hit": false,
      "t": 236128.56000002308,
      "d": 307.459062500071,
      "v": 105
    },
    {
      "midi": 68,
      "hit": false,
      "t": 236128.56000002308,
      "d": 866.9337500002002,
      "v": 47
    },
    {
      "midi": 71,
      "hit": false,
      "t": 236128.56000002308,
      "d": 1935.480000000418,
      "v": 47
    },
    {
      "midi": 98,
      "hit": false,
      "t": 236249.5275000231,
      "d": 5.040312500001164,
      "v": 41
    },
    {
      "midi": 82,
      "hit": false,
      "t": 236249.5275000231,
      "d": 5.040312500001164,
      "v": 51
    },
    {
      "midi": 59,
      "hit": false,
      "t": 236249.5275000231,
      "d": 10.080625000002328,
      "v": 86
    },
    {
      "midi": 56,
      "hit": false,
      "t": 236249.5275000231,
      "d": 15.120937500003492,
      "v": 69
    },
    {
      "midi": 64,
      "hit": false,
      "t": 236264.6484375231,
      "d": 10.080625000002328,
      "v": 94
    },
    {
      "midi": 54,
      "hit": false,
      "t": 236269.6887500231,
      "d": 40.32250000000931,
      "v": 34
    },
    {
      "midi": 82,
      "hit": false,
      "t": 236370.49500002313,
      "d": 10.080625000002328,
      "v": 60
    },
    {
      "midi": 42,
      "hit": false,
      "t": 236370.49500002313,
      "d": 40.32250000000931,
      "v": 82
    },
    {
      "midi": 56,
      "hit": false,
      "t": 236370.49500002313,
      "d": 45.36281250001048,
      "v": 75
    },
    {
      "midi": 54,
      "hit": false,
      "t": 236370.49500002313,
      "d": 70.5643750000163,
      "v": 94
    },
    {
      "midi": 59,
      "hit": false,
      "t": 236380.57562502314,
      "d": 65.52406250001513,
      "v": 72
    },
    {
      "midi": 64,
      "hit": false,
      "t": 236390.65625002314,
      "d": 70.5643750000163,
      "v": 82
    },
    {
      "midi": 59,
      "hit": false,
      "t": 236491.46250002316,
      "d": 15.120937500003492,
      "v": 97
    },
    {
      "midi": 56,
      "hit": false,
      "t": 236491.46250002316,
      "d": 15.120937500003492,
      "v": 78
    },
    {
      "midi": 28,
      "hit": false,
      "t": 236491.46250002316,
      "d": 90.72562500002095,
      "v": 102
    },
    {
      "midi": 98,
      "hit": false,
      "t": 236496.50281252316,
      "d": 10.080625000002328,
      "v": 45
    },
    {
      "midi": 82,
      "hit": false,
      "t": 236496.50281252316,
      "d": 10.080625000002328,
      "v": 58
    },
    {
      "midi": 64,
      "hit": false,
      "t": 236506.58343752316,
      "d": 15.120937500003492,
      "v": 81
    },
    {
      "midi": 54,
      "hit": false,
      "t": 236511.62375002317,
      "d": 40.32250000000931,
      "v": 40
    },
    {
      "midi": 98,
      "hit": false,
      "t": 236612.4300000232,
      "d": 10.080625000002328,
      "v": 84
    },
    {
      "midi": 82,
      "hit": false,
      "t": 236612.4300000232,
      "d": 10.080625000002328,
      "v": 108
    },
    {
      "midi": 59,
      "hit": false,
      "t": 236612.4300000232,
      "d": 15.120937500003492,
      "v": 92
    },
    {
      "midi": 56,
      "hit": false,
      "t": 236612.4300000232,
      "d": 15.120937500003492,
      "v": 89
    },
    {
      "midi": 42,
      "hit": false,
      "t": 236612.4300000232,
      "d": 65.52406250001513,
      "v": 98
    },
    {
      "midi": 40,
      "hit": false,
      "t": 236612.4300000232,
      "d": 70.5643750000163,
      "v": 94
    },
    {
      "midi": 35,
      "hit": false,
      "t": 236612.4300000232,
      "d": 297.3784375000687,
      "v": 105
    },
    {
      "midi": 64,
      "hit": false,
      "t": 236627.5509375232,
      "d": 15.120937500003492,
      "v": 87
    },
    {
      "midi": 98,
      "hit": false,
      "t": 236733.39750002322,
      "d": 5.040312500001164,
      "v": 35
    },
    {
      "midi": 82,
      "hit": false,
      "t": 236733.39750002322,
      "d": 5.040312500001164,
      "v": 43
    },
    {
      "midi": 56,
      "hit": false,
      "t": 236733.39750002322,
      "d": 50.40312500001164,
      "v": 90
    },
    {
      "midi": 59,
      "hit": false,
      "t": 236743.47812502322,
      "d": 65.52406250001513,
      "v": 80
    },
    {
      "midi": 54,
      "hit": false,
      "t": 236753.55875002322,
      "d": 40.32250000000931,
      "v": 39
    },
    {
      "midi": 64,
      "hit": false,
      "t": 236753.55875002322,
      "d": 70.5643750000163,
      "v": 79
    },
    {
      "midi": 82,
      "hit": false,
      "t": 236854.36500002324,
      "d": 10.080625000002328,
      "v": 66
    },
    {
      "midi": 59,
      "hit": false,
      "t": 236854.36500002324,
      "d": 15.120937500003492,
      "v": 98
    },
    {
      "midi": 56,
      "hit": false,
      "t": 236854.36500002324,
      "d": 15.120937500003492,
      "v": 80
    },
    {
      "midi": 42,
      "hit": false,
      "t": 236854.36500002324,
      "d": 40.32250000000931,
      "v": 82
    },
    {
      "midi": 54,
      "hit": false,
      "t": 236854.36500002324,
      "d": 85.68531250001979,
      "v": 47
    },
    {
      "midi": 52,
      "hit": false,
      "t": 236854.36500002324,
      "d": 216.73343750005006,
      "v": 104
    },
    {
      "midi": 64,
      "hit": false,
      "t": 236869.48593752325,
      "d": 15.120937500003492,
      "v": 78
    },
    {
      "midi": 59,
      "hit": false,
      "t": 236975.33250002327,
      "d": 15.120937500003492,
      "v": 91
    },
    {
      "midi": 56,
      "hit": false,
      "t": 236975.33250002327,
      "d": 15.120937500003492,
      "v": 85
    },
    {
      "midi": 35,
      "hit": false,
      "t": 236975.33250002327,
      "d": 90.72562500002095,
      "v": 102
    },
    {
      "midi": 29,
      "hit": false,
      "t": 236975.33250002327,
      "d": 95.76593750002212,
      "v": 45
    },
    {
      "midi": 98,
      "hit": false,
      "t": 236980.37281252327,
      "d": 10.080625000002328,
      "v": 49
    },
    {
      "midi": 82,
      "hit": false,
      "t": 236980.37281252327,
      "d": 10.080625000002328,
      "v": 64
    },
    {
      "midi": 64,
      "hit": false,
      "t": 236990.45343752328,
      "d": 15.120937500003492,
      "v": 98
    },
    {
      "midi": 54,
      "hit": false,
      "t": 236995.49375002328,
      "d": 40.32250000000931,
      "v": 39
    },
    {
      "midi": 98,
      "hit": false,
      "t": 237096.3000000233,
      "d": 10.080625000002328,
      "v": 78
    },
    {
      "midi": 82,
      "hit": false,
      "t": 237096.3000000233,
      "d": 10.080625000002328,
      "v": 102
    },
    {
      "midi": 56,
      "hit": false,
      "t": 237096.3000000233,
      "d": 45.36281250001048,
      "v": 70
    },
    {
      "midi": 42,
      "hit": false,
      "t": 237096.3000000233,
      "d": 60.48375000001397,
      "v": 98
    },
    {
      "midi": 35,
      "hit": false,
      "t": 237096.3000000233,
      "d": 90.72562500002095,
      "v": 86
    },
    {
      "midi": 28,
      "hit": false,
      "t": 237096.3000000233,
      "d": 211.6931250000489,
      "v": 105
    },
    {
      "midi": 59,
      "hit": false,
      "t": 237111.4209375233,
      "d": 65.52406250001513,
      "v": 79
    },
    {
      "midi": 64,
      "hit": false,
      "t": 237116.4612500233,
      "d": 85.68531250001979,
      "v": 81
    },
    {
      "midi": 98,
      "hit": false,
      "t": 237217.26750002333,
      "d": 5.040312500001164,
      "v": 41
    },
    {
      "midi": 82,
      "hit": false,
      "t": 237217.26750002333,
      "d": 5.040312500001164,
      "v": 51
    },
    {
      "midi": 54,
      "hit": false,
      "t": 237237.42875002333,
      "d": 40.32250000000931,
      "v": 34
    },
    {
      "midi": 40,
      "hit": false,
      "t": 237338.23500002336,
      "d": 5.040312500001164,
      "v": 74
    },
    {
      "midi": 82,
      "hit": false,
      "t": 237338.23500002336,
      "d": 10.080625000002328,
      "v": 60
    },
    {
      "midi": 42,
      "hit": false,
      "t": 237338.23500002336,
      "d": 40.32250000000931,
      "v": 73
    },
    {
      "midi": 56,
      "hit": false,
      "t": 237338.23500002336,
      "d": 95.76593750002212,
      "v": 95
    },
    {
      "midi": 28,
      "hit": false,
      "t": 237338.23500002336,
      "d": 206.65281250004773,
      "v": 105
    },
    {
      "midi": 68,
      "hit": false,
      "t": 237338.23500002336,
      "d": 216.73343750005006,
      "v": 104
    },
    {
      "midi": 64,
      "hit": false,
      "t": 237348.31562502336,
      "d": 95.76593750002212,
      "v": 75
    },
    {
      "midi": 59,
      "hit": false,
      "t": 237353.35593752336,
      "d": 95.76593750002212,
      "v": 87
    },
    {
      "midi": 54,
      "hit": false,
      "t": 237358.39625002336,
      "d": 70.5643750000163,
      "v": 93
    },
    {
      "midi": 98,
      "hit": false,
      "t": 237464.2428125234,
      "d": 10.080625000002328,
      "v": 45
    },
    {
      "midi": 82,
      "hit": false,
      "t": 237464.2428125234,
      "d": 10.080625000002328,
      "v": 58
    },
    {
      "midi": 54,
      "hit": false,
      "t": 237479.3637500234,
      "d": 40.32250000000931,
      "v": 31
    },
    {
      "midi": 98,
      "hit": false,
      "t": 237580.1700000234,
      "d": 10.080625000002328,
      "v": 84
    },
    {
      "midi": 82,
      "hit": false,
      "t": 237580.1700000234,
      "d": 10.080625000002328,
      "v": 108
    },
    {
      "midi": 40,
      "hit": false,
      "t": 237580.1700000234,
      "d": 65.52406250001513,
      "v": 91
    },
    {
      "midi": 56,
      "hit": false,
      "t": 237580.1700000234,
      "d": 95.76593750002212,
      "v": 70
    },
    {
      "midi": 32,
      "hit": false,
      "t": 237580.1700000234,
      "d": 191.53187500004424,
      "v": 102
    },
    {
      "midi": 68,
      "hit": false,
      "t": 237580.1700000234,
      "d": 216.73343750005006,
      "v": 104
    },
    {
      "midi": 64,
      "hit": false,
      "t": 237590.25062502341,
      "d": 95.76593750002212,
      "v": 95
    },
    {
      "midi": 59,
      "hit": false,
      "t": 237595.29093752342,
      "d": 95.76593750002212,
      "v": 79
    },
    {
      "midi": 39,
      "hit": false,
      "t": 237600.33125002342,
      "d": 70.5643750000163,
      "v": 76
    },
    {
      "midi": 40,
      "hit": false,
      "t": 237701.13750002344,
      "d": 5.040312500001164,
      "v": 74
    },
    {
      "midi": 98,
      "hit": false,
      "t": 237701.13750002344,
      "d": 5.040312500001164,
      "v": 35
    },
    {
      "midi": 82,
      "hit": false,
      "t": 237701.13750002344,
      "d": 5.040312500001164,
      "v": 43
    },
    {
      "midi": 56,
      "hit": false,
      "t": 237701.13750002344,
      "d": 85.68531250001979,
      "v": 95
    },
    {
      "midi": 64,
      "hit": false,
      "t": 237711.21812502344,
      "d": 95.76593750002212,
      "v": 75
    },
    {
      "midi": 59,
      "hit": false,
      "t": 237716.25843752344,
      "d": 80.64500000001863,
      "v": 87
    },
    {
      "midi": 54,
      "hit": false,
      "t": 237721.29875002344,
      "d": 40.32250000000931,
      "v": 39
    },
    {
      "midi": 47,
      "hit": false,
      "t": 237822.10500002347,
      "d": 5.040312500001164,
      "v": 73
    },
    {
      "midi": 82,
      "hit": false,
      "t": 237822.10500002347,
      "d": 10.080625000002328,
      "v": 66
    },
    {
      "midi": 54,
      "hit": false,
      "t": 237822.10500002347,
      "d": 85.68531249999069,
      "v": 50
    },
    {
      "midi": 35,
      "hit": false,
      "t": 237822.10500002347,
      "d": 161.29000000000815,
      "v": 105
    },
    {
      "midi": 68,
      "hit": false,
      "t": 237822.10500002347,
      "d": 216.73343750002095,
      "v": 104
    },
    {
      "midi": 45,
      "hit": false,
      "t": 237943.07250002347,
      "d": 5.040312500001164,
      "v": 54
    },
    {
      "midi": 56,
      "hit": false,
      "t": 237943.07250002347,
      "d": 15.120937500003492,
      "v": 77
    },
    {
      "midi": 98,
      "hit": false,
      "t": 237948.11281252347,
      "d": 10.080625000002328,
      "v": 49
    },
    {
      "midi": 82,
      "hit": false,
      "t": 237948.11281252347,
      "d": 10.080625000002328,
      "v": 64
    },
    {
      "midi": 59,
      "hit": false,
      "t": 237953.15312502347,
      "d": 15.120937500003492,
      "v": 69
    },
    {
      "midi": 64,
      "hit": false,
      "t": 237963.23375002347,
      "d": 20.161250000004657,
      "v": 73
    },
    {
      "midi": 54,
      "hit": false,
      "t": 237963.23375002347,
      "d": 40.32250000000931,
      "v": 40
    },
    {
      "midi": 49,
      "hit": false,
      "t": 238058.9996875235,
      "d": 5.040312500001164,
      "v": 79
    },
    {
      "midi": 98,
      "hit": false,
      "t": 238064.0400000235,
      "d": 10.080625000002328,
      "v": 78
    },
    {
      "midi": 82,
      "hit": false,
      "t": 238064.0400000235,
      "d": 10.080625000002328,
      "v": 102
    },
    {
      "midi": 42,
      "hit": false,
      "t": 238064.0400000235,
      "d": 45.36281250001048,
      "v": 95
    },
    {
      "midi": 35,
      "hit": false,
      "t": 238064.0400000235,
      "d": 105.84656250002445,
      "v": 87
    },
    {
      "midi": 52,
      "hit": false,
      "t": 238064.0400000235,
      "d": 322.5800000000745,
      "v": 104
    },
    {
      "midi": 45,
      "hit": false,
      "t": 238064.0400000235,
      "d": 322.5800000000745,
      "v": 104
    },
    {
      "midi": 67,
      "hit": false,
      "t": 238064.0400000235,
      "d": 322.5800000000745,
      "v": 47
    },
    {
      "midi": 72,
      "hit": false,
      "t": 238064.0400000235,
      "d": 362.9025000000838,
      "v": 47
    },
    {
      "midi": 33,
      "hit": false,
      "t": 238069.0803125235,
      "d": 357.86218750008265,
      "v": 102
    },
    {
      "midi": 98,
      "hit": false,
      "t": 238185.00750002352,
      "d": 5.040312500001164,
      "v": 41
    },
    {
      "midi": 82,
      "hit": false,
      "t": 238185.00750002352,
      "d": 5.040312500001164,
      "v": 51
    },
    {
      "midi": 64,
      "hit": false,
      "t": 238185.00750002352,
      "d": 15.120937500003492,
      "v": 85
    },
    {
      "midi": 60,
      "hit": false,
      "t": 238185.00750002352,
      "d": 15.120937500003492,
      "v": 68
    },
    {
      "midi": 55,
      "hit": false,
      "t": 238200.12843752353,
      "d": 15.120937500003492,
      "v": 93
    },
    {
      "midi": 54,
      "hit": false,
      "t": 238205.16875002353,
      "d": 40.32250000000931,
      "v": 34
    },
    {
      "midi": 82,
      "hit": false,
      "t": 238305.97500002355,
      "d": 10.080625000002328,
      "v": 60
    },
    {
      "midi": 42,
      "hit": false,
      "t": 238305.97500002355,
      "d": 40.32250000000931,
      "v": 82
    },
    {
      "midi": 54,
      "hit": false,
      "t": 238305.97500002355,
      "d": 70.5643750000163,
      "v": 94
    },
    {
      "midi": 64,
      "hit": false,
      "t": 238305.97500002355,
      "d": 75.60468750001746,
      "v": 68
    },
    {
      "midi": 60,
      "hit": false,
      "t": 238305.97500002355,
      "d": 75.60468750001746,
      "v": 75
    },
    {
      "midi": 55,
      "hit": false,
      "t": 238321.09593752355,
      "d": 75.60468750001746,
      "v": 90
    },
    {
      "midi": 66,
      "hit": false,
      "t": 238426.94250002358,
      "d": 15.120937500003492,
      "v": 47
    },
    {
      "midi": 62,
      "hit": false,
      "t": 238426.94250002358,
      "d": 15.120937500003492,
      "v": 78
    },
    {
      "midi": 35,
      "hit": false,
      "t": 238426.94250002358,
      "d": 141.1287500000326,
      "v": 102
    },
    {
      "midi": 47,
      "hit": false,
      "t": 238426.94250002358,
      "d": 322.5800000000745,
      "v": 104
    },
    {
      "midi": 69,
      "hit": false,
      "t": 238426.94250002358,
      "d": 322.5800000000745,
      "v": 47
    },
    {
      "midi": 74,
      "hit": false,
      "t": 238426.94250002358,
      "d": 362.9025000000838,
      "v": 47
    },
    {
      "midi": 98,
      "hit": false,
      "t": 238431.98281252358,
      "d": 10.080625000002328,
      "v": 45
    },
    {
      "midi": 82,
      "hit": false,
      "t": 238431.98281252358,
      "d": 10.080625000002328,
      "v": 58
    },
    {
      "midi": 57,
      "hit": false,
      "t": 238442.06343752358,
      "d": 15.120937500003492,
      "v": 80
    },
    {
      "midi": 54,
      "hit": false,
      "t": 238447.10375002358,
      "d": 40.32250000000931,
      "v": 40
    },
    {
      "midi": 98,
      "hit": false,
      "t": 238547.9100000236,
      "d": 10.080625000002328,
      "v": 84
    },
    {
      "midi": 82,
      "hit": false,
      "t": 238547.9100000236,
      "d": 10.080625000002328,
      "v": 108
    },
    {
      "midi": 66,
      "hit": false,
      "t": 238547.9100000236,
      "d": 15.120937500003492,
      "v": 92
    },
    {
      "midi": 62,
      "hit": false,
      "t": 238547.9100000236,
      "d": 15.120937500003492,
      "v": 88
    },
    {
      "midi": 42,
      "hit": false,
      "t": 238547.9100000236,
      "d": 65.52406250001513,
      "v": 98
    },
    {
      "midi": 40,
      "hit": false,
      "t": 238547.9100000236,
      "d": 70.5643750000163,
      "v": 94
    },
    {
      "midi": 57,
      "hit": false,
      "t": 238563.0309375236,
      "d": 15.120937500003492,
      "v": 86
    },
    {
      "midi": 98,
      "hit": false,
      "t": 238668.87750002363,
      "d": 5.040312500001164,
      "v": 35
    },
    {
      "midi": 82,
      "hit": false,
      "t": 238668.87750002363,
      "d": 5.040312500001164,
      "v": 43
    },
    {
      "midi": 66,
      "hit": false,
      "t": 238668.87750002363,
      "d": 75.60468750001746,
      "v": 68
    },
    {
      "midi": 62,
      "hit": false,
      "t": 238668.87750002363,
      "d": 75.60468750001746,
      "v": 89
    },
    {
      "midi": 57,
      "hit": false,
      "t": 238683.99843752364,
      "d": 75.60468750001746,
      "v": 68
    },
    {
      "midi": 54,
      "hit": false,
      "t": 238689.03875002364,
      "d": 40.32250000000931,
      "v": 39
    },
    {
      "midi": 82,
      "hit": false,
      "t": 238789.84500002366,
      "d": 10.080625000002328,
      "v": 66
    },
    {
      "midi": 55,
      "hit": false,
      "t": 238789.84500002366,
      "d": 15.120937500003492,
      "v": 97
    },
    {
      "midi": 64,
      "hit": false,
      "t": 238789.84500002366,
      "d": 15.120937500003492,
      "v": 79
    },
    {
      "midi": 42,
      "hit": false,
      "t": 238789.84500002366,
      "d": 40.32250000000931,
      "v": 82
    },
    {
      "midi": 54,
      "hit": false,
      "t": 238789.84500002366,
      "d": 85.68531250001979,
      "v": 47
    },
    {
      "midi": 48,
      "hit": false,
      "t": 238789.84500002366,
      "d": 216.73343750005006,
      "v": 104
    },
    {
      "midi": 71,
      "hit": false,
      "t": 238789.84500002366,
      "d": 216.73343750005006,
      "v": 104
    },
    {
      "midi": 36,
      "hit": false,
      "t": 238794.88531252366,
      "d": 136.08843750003143,
      "v": 89
    },
    {
      "midi": 59,
      "hit": false,
      "t": 238804.96593752367,
      "d": 15.120937500003492,
      "v": 78
    },
    {
      "midi": 55,
      "hit": false,
      "t": 238910.8125000237,
      "d": 15.120937500003492,
      "v": 91
    },
    {
      "midi": 64,
      "hit": false,
      "t": 238910.8125000237,
      "d": 15.120937500003492,
      "v": 84
    },
    {
      "midi": 29,
      "hit": false,
      "t": 238910.8125000237,
      "d": 95.76593750002212,
      "v": 45
    },
    {
      "midi": 98,
      "hit": false,
      "t": 238915.8528125237,
      "d": 10.080625000002328,
      "v": 49
    },
    {
      "midi": 82,
      "hit": false,
      "t": 238915.8528125237,
      "d": 10.080625000002328,
      "v": 64
    },
    {
      "midi": 59,
      "hit": false,
      "t": 238925.9334375237,
      "d": 15.120937500003492,
      "v": 98
    },
    {
      "midi": 54,
      "hit": false,
      "t": 238930.9737500237,
      "d": 40.32250000000931,
      "v": 39
    },
    {
      "midi": 98,
      "hit": false,
      "t": 239031.78000002372,
      "d": 10.080625000002328,
      "v": 78
    },
    {
      "midi": 82,
      "hit": false,
      "t": 239031.78000002372,
      "d": 10.080625000002328,
      "v": 102
    },
    {
      "midi": 42,
      "hit": false,
      "t": 239031.78000002372,
      "d": 60.48375000001397,
      "v": 98
    },
    {
      "midi": 35,
      "hit": false,
      "t": 239031.78000002372,
      "d": 90.72562500002095,
      "v": 86
    },
    {
      "midi": 64,
      "hit": false,
      "t": 239031.78000002372,
      "d": 95.76593750002212,
      "v": 70
    },
    {
      "midi": 36,
      "hit": false,
      "t": 239036.82031252372,
      "d": 55.443437500012806,
      "v": 93
    },
    {
      "midi": 59,
      "hit": false,
      "t": 239041.86062502372,
      "d": 95.76593750002212,
      "v": 95
    },
    {
      "midi": 55,
      "hit": false,
      "t": 239046.90093752372,
      "d": 95.76593750002212,
      "v": 78
    },
    {
      "midi": 98,
      "hit": false,
      "t": 239152.74750002375,
      "d": 5.040312500001164,
      "v": 41
    },
    {
      "midi": 82,
      "hit": false,
      "t": 239152.74750002375,
      "d": 5.040312500001164,
      "v": 51
    },
    {
      "midi": 64,
      "hit": false,
      "t": 239152.74750002375,
      "d": 95.76593750002212,
      "v": 95
    },
    {
      "midi": 31,
      "hit": false,
      "t": 239157.78781252375,
      "d": 5.040312500001164,
      "v": 42
    },
    {
      "midi": 59,
      "hit": false,
      "t": 239162.82812502375,
      "d": 95.76593750002212,
      "v": 75
    },
    {
      "midi": 55,
      "hit": false,
      "t": 239167.86843752375,
      "d": 95.76593750002212,
      "v": 86
    },
    {
      "midi": 54,
      "hit": false,
      "t": 239172.90875002375,
      "d": 40.32250000000931,
      "v": 34
    },
    {
      "midi": 82,
      "hit": false,
      "t": 239273.71500002377,
      "d": 10.080625000002328,
      "v": 60
    },
    {
      "midi": 42,
      "hit": false,
      "t": 239273.71500002377,
      "d": 40.32250000000931,
      "v": 73
    },
    {
      "midi": 64,
      "hit": false,
      "t": 239273.71500002377,
      "d": 95.76593750002212,
      "v": 90
    },
    {
      "midi": 36,
      "hit": false,
      "t": 239273.71500002377,
      "d": 297.3784375000687,
      "v": 101
    },
    {
      "midi": 59,
      "hit": false,
      "t": 239283.79562502378,
      "d": 95.76593750002212,
      "v": 89
    },
    {
      "midi": 55,
      "hit": false,
      "t": 239288.83593752378,
      "d": 95.76593750002212,
      "v": 87
    },
    {
      "midi": 54,
      "hit": false,
      "t": 239293.87625002378,
      "d": 70.5643750000163,
      "v": 93
    },
    {
      "midi": 31,
      "hit": false,
      "t": 239394.6825000238,
      "d": 5.040312500001164,
      "v": 34
    },
    {
      "midi": 64,
      "hit": false,
      "t": 239394.6825000238,
      "d": 95.76593750002212,
      "v": 71
    },
    {
      "midi": 98,
      "hit": false,
      "t": 239399.7228125238,
      "d": 10.080625000002328,
      "v": 45
    },
    {
      "midi": 82,
      "hit": false,
      "t": 239399.7228125238,
      "d": 10.080625000002328,
      "v": 58
    },
    {
      "midi": 59,
      "hit": false,
      "t": 239404.7631250238,
      "d": 95.76593750002212,
      "v": 91
    },
    {
      "midi": 55,
      "hit": false,
      "t": 239409.8034375238,
      "d": 95.76593750002212,
      "v": 98
    },
    {
      "midi": 54,
      "hit": false,
      "t": 239414.8437500238,
      "d": 40.32250000000931,
      "v": 31
    },
    {
      "midi": 98,
      "hit": false,
      "t": 239515.65000002383,
      "d": 10.080625000002328,
      "v": 84
    },
    {
      "midi": 82,
      "hit": false,
      "t": 239515.65000002383,
      "d": 10.080625000002328,
      "v": 108
    },
    {
      "midi": 40,
      "hit": false,
      "t": 239515.65000002383,
      "d": 65.52406250001513,
      "v": 91
    },
    {
      "midi": 55,
      "hit": false,
      "t": 239515.65000002383,
      "d": 100.80625000002328,
      "v": 57
    },
    {
      "midi": 64,
      "hit": false,
      "t": 239515.65000002383,
      "d": 100.80625000002328,
      "v": 78
    },
    {
      "midi": 59,
      "hit": false,
      "t": 239515.65000002383,
      "d": 100.80625000002328,
      "v": 78
    },
    {
      "midi": 39,
      "hit": false,
      "t": 239535.81125002383,
      "d": 70.5643750000163,
      "v": 76
    },
    {
      "midi": 40,
      "hit": false,
      "t": 239636.61750002386,
      "d": 5.040312500001164,
      "v": 68
    },
    {
      "midi": 98,
      "hit": false,
      "t": 239636.61750002386,
      "d": 5.040312500001164,
      "v": 35
    },
    {
      "midi": 82,
      "hit": false,
      "t": 239636.61750002386,
      "d": 5.040312500001164,
      "v": 43
    },
    {
      "midi": 36,
      "hit": false,
      "t": 239636.61750002386,
      "d": 5.040312500001164,
      "v": 93
    },
    {
      "midi": 55,
      "hit": false,
      "t": 239636.61750002386,
      "d": 15.120937500003492,
      "v": 95
    },
    {
      "midi": 64,
      "hit": false,
      "t": 239636.61750002386,
      "d": 15.120937500003492,
      "v": 80
    },
    {
      "midi": 59,
      "hit": false,
      "t": 239651.73843752386,
      "d": 15.120937500003492,
      "v": 85
    },
    {
      "midi": 54,
      "hit": false,
      "t": 239656.77875002386,
      "d": 40.32250000000931,
      "v": 39
    },
    {
      "midi": 45,
      "hit": false,
      "t": 239757.5850000239,
      "d": 5.040312500001164,
      "v": 77
    },
    {
      "midi": 82,
      "hit": false,
      "t": 239757.5850000239,
      "d": 10.080625000002328,
      "v": 66
    },
    {
      "midi": 55,
      "hit": false,
      "t": 239757.5850000239,
      "d": 15.120937500003492,
      "v": 72
    },
    {
      "midi": 64,
      "hit": false,
      "t": 239757.5850000239,
      "d": 15.120937500003492,
      "v": 83
    },
    {
      "midi": 54,
      "hit": false,
      "t": 239757.5850000239,
      "d": 85.68531250001979,
      "v": 50
    },
    {
      "midi": 36,
      "hit": false,
      "t": 239762.6253125239,
      "d": 226.8140625000524,
      "v": 93
    },
    {
      "midi": 59,
      "hit": false,
      "t": 239772.7059375239,
      "d": 15.120937500003492,
      "v": 82
    },
    {
      "midi": 55,
      "hit": false,
      "t": 239878.5525000239,
      "d": 15.120937500003492,
      "v": 102
    },
    {
      "midi": 64,
      "hit": false,
      "t": 239878.5525000239,
      "d": 15.120937500003492,
      "v": 107
    },
    {
      "midi": 98,
      "hit": false,
      "t": 239883.59281252392,
      "d": 10.080625000002328,
      "v": 49
    },
    {
      "midi": 82,
      "hit": false,
      "t": 239883.59281252392,
      "d": 10.080625000002328,
      "v": 64
    },
    {
      "midi": 59,
      "hit": false,
      "t": 239893.67343752392,
      "d": 15.120937500003492,
      "v": 79
    },
    {
      "midi": 54,
      "hit": false,
      "t": 239898.71375002392,
      "d": 40.32250000000931,
      "v": 40
    },
    {
      "midi": 49,
      "hit": false,
      "t": 239994.47968752394,
      "d": 5.040312500001164,
      "v": 79
    },
    {
      "midi": 44,
      "hit": false,
      "t": 239999.52000002394,
      "d": 5.040312500001164,
      "v": 64
    },
    {
      "midi": 35,
      "hit": false,
      "t": 239999.52000002394,
      "d": 105.84656249999534,
      "v": 87
    },
    {
      "midi": 52,
      "hit": false,
      "t": 239999.52000002394,
      "d": 322.5799999999872,
      "v": 104
    },
    {
      "midi": 45,
      "hit": false,
      "t": 239999.52000002394,
      "d": 322.5799999999872,
      "v": 104
    },
    {
      "midi": 33,
      "hit": false,
      "t": 239999.52000002394,
      "d": 362.9024999999965,
      "v": 89
    },
    {
      "midi": 60,
      "hit": false,
      "t": 240009.60062502394,
      "d": 100.80624999999418,
      "v": 46
    },
    {
      "midi": 67,
      "hit": false,
      "t": 240019.68125002395,
      "d": 85.68531249999069,
      "v": 50
    },
    {
      "midi": 64,
      "hit": false,
      "t": 240019.68125002395,
      "d": 100.80624999999418,
      "v": 50
    },
    {
      "midi": 60,
      "hit": false,
      "t": 240120.48750002394,
      "d": 5.040312500001164,
      "v": 95
    },
    {
      "midi": 67,
      "hit": false,
      "t": 240120.48750002394,
      "d": 110.88687499999651,
      "v": 47
    },
    {
      "midi": 60,
      "hit": false,
      "t": 240130.56812502394,
      "d": 95.76593749999302,
      "v": 51
    },
    {
      "midi": 64,
      "hit": false,
      "t": 240130.56812502394,
      "d": 110.88687499999651,
      "v": 51
    },
    {
      "midi": 46,
      "hit": false,
      "t": 240236.41468752394,
      "d": 5.040312500001164,
      "v": 69
    },
    {
      "midi": 62,
      "hit": false,
      "t": 240241.45500002394,
      "d": 5.040312500001164,
      "v": 91
    },
    {
      "midi": 60,
      "hit": false,
      "t": 240241.45500002394,
      "d": 80.64499999998952,
      "v": 50
    },
    {
      "midi": 67,
      "hit": false,
      "t": 240251.53562502394,
      "d": 70.5643749999872,
      "v": 56
    },
    {
      "midi": 64,
      "hit": false,
      "t": 240251.53562502394,
      "d": 110.88687499999651,
      "v": 56
    },
    {
      "midi": 63,
      "hit": false,
      "t": 240362.42250002394,
      "d": 5.040312500001164,
      "v": 91
    },
    {
      "midi": 59,
      "hit": false,
      "t": 240362.42250002394,
      "d": 10.080625000002328,
      "v": 96
    },
    {
      "midi": 66,
      "hit": false,
      "t": 240362.42250002394,
      "d": 95.76593749999302,
      "v": 51
    },
    {
      "midi": 35,
      "hit": false,
      "t": 240362.42250002394,
      "d": 110.88687499999651,
      "v": 89
    },
    {
      "midi": 54,
      "hit": false,
      "t": 240362.42250002394,
      "d": 322.5800000000454,
      "v": 104
    },
    {
      "midi": 47,
      "hit": false,
      "t": 240362.42250002394,
      "d": 322.5800000000454,
      "v": 104
    },
    {
      "midi": 69,
      "hit": false,
      "t": 240362.42250002394,
      "d": 322.5800000000454,
      "v": 104
    },
    {
      "midi": 57,
      "hit": false,
      "t": 240372.50312502394,
      "d": 80.64499999998952,
      "v": 51
    },
    {
      "midi": 62,
      "hit": false,
      "t": 240372.50312502394,
      "d": 95.76593749999302,
      "v": 51
    },
    {
      "midi": 44,
      "hit": false,
      "t": 240478.34968752394,
      "d": 5.040312500001164,
      "v": 71
    },
    {
      "midi": 57,
      "hit": false,
      "t": 240483.39000002394,
      "d": 5.040312500001164,
      "v": 56
    },
    {
      "midi": 40,
      "hit": false,
      "t": 240483.39000002394,
      "d": 70.5643750000163,
      "v": 94
    },
    {
      "midi": 35,
      "hit": false,
      "t": 240483.39000002394,
      "d": 105.84656250002445,
      "v": 87
    },
    {
      "midi": 33,
      "hit": false,
      "t": 240483.39000002394,
      "d": 241.93500000005588,
      "v": 101
    },
    {
      "midi": 62,
      "hit": false,
      "t": 240493.47062502394,
      "d": 5.040312500001164,
      "v": 60
    },
    {
      "midi": 66,
      "hit": false,
      "t": 240498.51093752394,
      "d": 5.040312500001164,
      "v": 64
    },
    {
      "midi": 64,
      "hit": false,
      "t": 240604.35750002397,
      "d": 5.040312500001164,
      "v": 91
    },
    {
      "midi": 66,
      "hit": false,
      "t": 240604.35750002397,
      "d": 5.040312500001164,
      "v": 50
    },
    {
      "midi": 62,
      "hit": false,
      "t": 240614.43812502397,
      "d": 5.040312500001164,
      "v": 53
    },
    {
      "midi": 57,
      "hit": false,
      "t": 240619.47843752397,
      "d": 5.040312500001164,
      "v": 55
    },
    {
      "midi": 46,
      "hit": false,
      "t": 240725.325000024,
      "d": 5.040312500001164,
      "v": 61
    },
    {
      "midi": 63,
      "hit": false,
      "t": 240725.325000024,
      "d": 5.040312500001164,
      "v": 47
    },
    {
      "midi": 59,
      "hit": false,
      "t": 240725.325000024,
      "d": 110.88687499999651,
      "v": 49
    },
    {
      "midi": 55,
      "hit": false,
      "t": 240725.325000024,
      "d": 216.73343749999185,
      "v": 104
    },
    {
      "midi": 48,
      "hit": false,
      "t": 240725.325000024,
      "d": 216.73343749999185,
      "v": 104
    },
    {
      "midi": 71,
      "hit": false,
      "t": 240725.325000024,
      "d": 216.73343749999185,
      "v": 104
    },
    {
      "midi": 33,
      "hit": false,
      "t": 240725.325000024,
      "d": 231.85437499999534,
      "v": 101
    },
    {
      "midi": 67,
      "hit": false,
      "t": 240735.405625024,
      "d": 95.76593749999302,
      "v": 54
    },
    {
      "midi": 64,
      "hit": false,
      "t": 240735.405625024,
      "d": 110.88687499999651,
      "v": 54
    },
    {
      "midi": 63,
      "hit": false,
      "t": 240846.292500024,
      "d": 5.040312500001164,
      "v": 85
    },
    {
      "midi": 67,
      "hit": false,
      "t": 240846.292500024,
      "d": 5.040312500001164,
      "v": 50
    },
    {
      "midi": 60,
      "hit": false,
      "t": 240846.292500024,
      "d": 5.040312500001164,
      "v": 107
    },
    {
      "midi": 64,
      "hit": false,
      "t": 240856.373125024,
      "d": 5.040312500001164,
      "v": 53
    },
    {
      "midi": 59,
      "hit": false,
      "t": 240861.413437524,
      "d": 5.040312500001164,
      "v": 55
    },
    {
      "midi": 40,
      "hit": false,
      "t": 240967.260000024,
      "d": 5.040312500001164,
      "v": 93
    },
    {
      "midi": 44,
      "hit": false,
      "t": 240967.260000024,
      "d": 5.040312500001164,
      "v": 64
    },
    {
      "midi": 59,
      "hit": false,
      "t": 240967.260000024,
      "d": 5.040312500001164,
      "v": 56
    },
    {
      "midi": 60,
      "hit": false,
      "t": 240967.260000024,
      "d": 5.040312500001164,
      "v": 102
    },
    {
      "midi": 35,
      "hit": false,
      "t": 240967.260000024,
      "d": 90.72562499999185,
      "v": 86
    },
    {
      "midi": 31,
      "hit": false,
      "t": 240967.260000024,
      "d": 473.789374999993,
      "v": 82
    },
    {
      "midi": 64,
      "hit": false,
      "t": 240977.340625024,
      "d": 5.040312500001164,
      "v": 60
    },
    {
      "midi": 67,
      "hit": false,
      "t": 240982.380937524,
      "d": 5.040312500001164,
      "v": 64
    },
    {
      "midi": 62,
      "hit": false,
      "t": 241088.227500024,
      "d": 5.040312500001164,
      "v": 91
    },
    {
      "midi": 59,
      "hit": false,
      "t": 241088.227500024,
      "d": 110.88687499999651,
      "v": 49
    },
    {
      "midi": 67,
      "hit": false,
      "t": 241098.308125024,
      "d": 95.76593749999302,
      "v": 54
    },
    {
      "midi": 64,
      "hit": false,
      "t": 241098.308125024,
      "d": 110.88687499999651,
      "v": 54
    },
    {
      "midi": 40,
      "hit": false,
      "t": 241209.195000024,
      "d": 5.040312500001164,
      "v": 64
    },
    {
      "midi": 64,
      "hit": false,
      "t": 241209.195000024,
      "d": 5.040312500001164,
      "v": 78
    },
    {
      "midi": 67,
      "hit": false,
      "t": 241209.195000024,
      "d": 5.040312500001164,
      "v": 50
    },
    {
      "midi": 64,
      "hit": false,
      "t": 241219.275625024,
      "d": 5.040312500001164,
      "v": 53
    },
    {
      "midi": 59,
      "hit": false,
      "t": 241224.315937524,
      "d": 5.040312500001164,
      "v": 55
    },
    {
      "midi": 40,
      "hit": false,
      "t": 241330.162500024,
      "d": 5.040312500001164,
      "v": 87
    },
    {
      "midi": 64,
      "hit": false,
      "t": 241330.162500024,
      "d": 5.040312500001164,
      "v": 78
    },
    {
      "midi": 59,
      "hit": false,
      "t": 241330.162500024,
      "d": 5.040312500001164,
      "v": 56
    },
    {
      "midi": 64,
      "hit": false,
      "t": 241340.243125024,
      "d": 5.040312500001164,
      "v": 60
    },
    {
      "midi": 67,
      "hit": false,
      "t": 241345.283437524,
      "d": 5.040312500001164,
      "v": 64
    },
    {
      "midi": 43,
      "hit": false,
      "t": 241451.130000024,
      "d": 5.040312500001164,
      "v": 86
    },
    {
      "midi": 64,
      "hit": false,
      "t": 241451.130000024,
      "d": 5.040312500001164,
      "v": 82
    },
    {
      "midi": 35,
      "hit": false,
      "t": 241451.130000024,
      "d": 90.72562499999185,
      "v": 86
    },
    {
      "midi": 59,
      "hit": false,
      "t": 241451.130000024,
      "d": 110.88687499999651,
      "v": 49
    },
    {
      "midi": 33,
      "hit": false,
      "t": 241451.130000024,
      "d": 241.93499999999767,
      "v": 87
    },
    {
      "midi": 44,
      "hit": false,
      "t": 241456.170312524,
      "d": 5.040312500001164,
      "v": 71
    },
    {
      "midi": 67,
      "hit": false,
      "t": 241461.210625024,
      "d": 95.76593749999302,
      "v": 54
    },
    {
      "midi": 64,
      "hit": false,
      "t": 241461.210625024,
      "d": 110.88687499999651,
      "v": 54
    },
    {
      "midi": 40,
      "hit": false,
      "t": 241572.09750002399,
      "d": 5.040312500001164,
      "v": 73
    },
    {
      "midi": 62,
      "hit": false,
      "t": 241572.09750002399,
      "d": 5.040312500001164,
      "v": 93
    },
    {
      "midi": 67,
      "hit": false,
      "t": 241572.09750002399,
      "d": 110.88687499999651,
      "v": 47
    },
    {
      "midi": 59,
      "hit": false,
      "t": 241582.178125024,
      "d": 95.76593749999302,
      "v": 51
    },
    {
      "midi": 64,
      "hit": false,
      "t": 241582.178125024,
      "d": 110.88687499999651,
      "v": 51
    },
    {
      "midi": 40,
      "hit": false,
      "t": 241693.06500002398,
      "d": 5.040312500001164,
      "v": 95
    },
    {
      "midi": 59,
      "hit": false,
      "t": 241693.06500002398,
      "d": 5.040312500001164,
      "v": 56
    },
    {
      "midi": 64,
      "hit": false,
      "t": 241703.145625024,
      "d": 5.040312500001164,
      "v": 60
    },
    {
      "midi": 31,
      "hit": false,
      "t": 241703.145625024,
      "d": 221.77374999999302,
      "v": 76
    },
    {
      "midi": 67,
      "hit": false,
      "t": 241708.185937524,
      "d": 5.040312500001164,
      "v": 64
    },
    {
      "midi": 67,
      "hit": false,
      "t": 241824.11312502399,
      "d": 5.040312500001164,
      "v": 50
    },
    {
      "midi": 64,
      "hit": false,
      "t": 241834.193750024,
      "d": 5.040312500001164,
      "v": 53
    },
    {
      "midi": 59,
      "hit": false,
      "t": 241839.234062524,
      "d": 5.040312500001164,
      "v": 55
    },
    {
      "midi": 57,
      "hit": false,
      "t": 241929.95968752398,
      "d": 5.040312500001164,
      "v": 79
    },
    {
      "midi": 98,
      "hit": false,
      "t": 241935.00000002398,
      "d": 10.080625000002328,
      "v": 78
    },
    {
      "midi": 82,
      "hit": false,
      "t": 241935.00000002398,
      "d": 10.080625000002328,
      "v": 102
    },
    {
      "midi": 42,
      "hit": false,
      "t": 241935.00000002398,
      "d": 45.36281250001048,
      "v": 95
    },
    {
      "midi": 55,
      "hit": false,
      "t": 241935.00000002398,
      "d": 50.40312500001164,
      "v": 58
    },
    {
      "midi": 60,
      "hit": false,
      "t": 241935.00000002398,
      "d": 60.48375000001397,
      "v": 53
    },
    {
      "midi": 35,
      "hit": false,
      "t": 241935.00000002398,
      "d": 105.84656250002445,
      "v": 87
    },
    {
      "midi": 36,
      "hit": false,
      "t": 241935.00000002398,
      "d": 307.459062500071,
      "v": 105
    },
    {
      "midi": 52,
      "hit": false,
      "t": 241935.00000002398,
      "d": 866.9337500002002,
      "v": 104
    },
    {
      "midi": 48,
      "hit": false,
      "t": 241935.00000002398,
      "d": 866.9337500002002,
      "v": 104
    },
    {
      "midi": 71,
      "hit": false,
      "t": 241935.00000002398,
      "d": 967.7400000002235,
      "v": 47
    },
    {
      "midi": 59,
      "hit": false,
      "t": 241940.04031252398,
      "d": 40.32250000000931,
      "v": 54
    },
    {
      "midi": 64,
      "hit": false,
      "t": 241945.08062502398,
      "d": 65.52406250001513,
      "v": 54
    },
    {
      "midi": 98,
      "hit": false,
      "t": 242055.967500024,
      "d": 5.040312500001164,
      "v": 41
    },
    {
      "midi": 82,
      "hit": false,
      "t": 242055.967500024,
      "d": 5.040312500001164,
      "v": 51
    },
    {
      "midi": 55,
      "hit": false,
      "t": 242055.967500024,
      "d": 10.080625000002328,
      "v": 56
    },
    {
      "midi": 59,
      "hit": false,
      "t": 242061.007812524,
      "d": 10.080625000002328,
      "v": 54
    },
    {
      "midi": 64,
      "hit": false,
      "t": 242066.048125024,
      "d": 70.5643750000163,
      "v": 56
    },
    {
      "midi": 54,
      "hit": false,
      "t": 242076.128750024,
      "d": 40.32250000000931,
      "v": 34
    },
    {
      "midi": 82,
      "hit": false,
      "t": 242176.93500002404,
      "d": 10.080625000002328,
      "v": 60
    },
    {
      "midi": 42,
      "hit": false,
      "t": 242176.93500002404,
      "d": 40.32250000000931,
      "v": 82
    },
    {
      "midi": 54,
      "hit": false,
      "t": 242176.93500002404,
      "d": 70.5643750000163,
      "v": 94
    },
    {
      "midi": 67,
      "hit": false,
      "t": 242176.93500002404,
      "d": 216.73343750005006,
      "v": 104
    },
    {
      "midi": 55,
      "hit": false,
      "t": 242297.90250002407,
      "d": 5.040312500001164,
      "v": 22
    },
    {
      "midi": 60,
      "hit": false,
      "t": 242297.90250002407,
      "d": 5.040312500001164,
      "v": 35
    },
    {
      "midi": 36,
      "hit": false,
      "t": 242297.90250002407,
      "d": 90.72562500002095,
      "v": 102
    },
    {
      "midi": 98,
      "hit": false,
      "t": 242302.94281252407,
      "d": 10.080625000002328,
      "v": 45
    },
    {
      "midi": 82,
      "hit": false,
      "t": 242302.94281252407,
      "d": 10.080625000002328,
      "v": 58
    },
    {
      "midi": 59,
      "hit": false,
      "t": 242302.94281252407,
      "d": 45.36281250001048,
      "v": 29
    },
    {
      "midi": 64,
      "hit": false,
      "t": 242307.98312502407,
      "d": 50.40312500001164,
      "v": 26
    },
    {
      "midi": 54,
      "hit": false,
      "t": 242318.06375002407,
      "d": 40.32250000000931,
      "v": 40
    },
    {
      "midi": 98,
      "hit": false,
      "t": 242418.8700000241,
      "d": 10.080625000002328,
      "v": 84
    },
    {
      "midi": 82,
      "hit": false,
      "t": 242418.8700000241,
      "d": 10.080625000002328,
      "v": 108
    },
    {
      "midi": 55,
      "hit": false,
      "t": 242418.8700000241,
      "d": 25.20156250000582,
      "v": 67
    },
    {
      "midi": 42,
      "hit": false,
      "t": 242418.8700000241,
      "d": 65.52406250001513,
      "v": 98
    },
    {
      "midi": 40,
      "hit": false,
      "t": 242418.8700000241,
      "d": 70.5643750000163,
      "v": 94
    },
    {
      "midi": 60,
      "hit": false,
      "t": 242418.8700000241,
      "d": 70.5643750000163,
      "v": 61
    },
    {
      "midi": 67,
      "hit": false,
      "t": 242418.8700000241,
      "d": 216.73343750005006,
      "v": 104
    },
    {
      "midi": 31,
      "hit": false,
      "t": 242418.8700000241,
      "d": 297.3784375000687,
      "v": 105
    },
    {
      "midi": 59,
      "hit": false,
      "t": 242423.9103125241,
      "d": 10.080625000002328,
      "v": 49
    },
    {
      "midi": 64,
      "hit": false,
      "t": 242428.9506250241,
      "d": 10.080625000002328,
      "v": 54
    },
    {
      "midi": 98,
      "hit": false,
      "t": 242539.83750002412,
      "d": 5.040312500001164,
      "v": 35
    },
    {
      "midi": 82,
      "hit": false,
      "t": 242539.83750002412,
      "d": 5.040312500001164,
      "v": 43
    },
    {
      "midi": 54,
      "hit": false,
      "t": 242559.99875002413,
      "d": 40.32250000000931,
      "v": 39
    },
    {
      "midi": 55,
      "hit": false,
      "t": 242660.80500002415,
      "d": 5.040312500001164,
      "v": 22
    },
    {
      "midi": 82,
      "hit": false,
      "t": 242660.80500002415,
      "d": 10.080625000002328,
      "v": 66
    },
    {
      "midi": 42,
      "hit": false,
      "t": 242660.80500002415,
      "d": 40.32250000000931,
      "v": 82
    },
    {
      "midi": 54,
      "hit": false,
      "t": 242660.80500002415,
      "d": 85.68531250001979,
      "v": 47
    },
    {
      "midi": 67,
      "hit": false,
      "t": 242660.80500002415,
      "d": 216.73343750005006,
      "v": 104
    },
    {
      "midi": 59,
      "hit": false,
      "t": 242665.84531252415,
      "d": 55.443437500012806,
      "v": 22
    },
    {
      "midi": 64,
      "hit": false,
      "t": 242670.88562502415,
      "d": 50.40312500001164,
      "v": 22
    },
    {
      "midi": 55,
      "hit": false,
      "t": 242781.77250002418,
      "d": 65.52406250001513,
      "v": 65
    },
    {
      "midi": 60,
      "hit": false,
      "t": 242781.77250002418,
      "d": 80.64500000001863,
      "v": 66
    },
    {
      "midi": 31,
      "hit": false,
      "t": 242786.81281252418,
      "d": 5.040312500001164,
      "v": 35
    },
    {
      "midi": 98,
      "hit": false,
      "t": 242786.81281252418,
      "d": 10.080625000002328,
      "v": 49
    },
    {
      "midi": 82,
      "hit": false,
      "t": 242786.81281252418,
      "d": 10.080625000002328,
      "v": 64
    },
    {
      "midi": 59,
      "hit": false,
      "t": 242786.81281252418,
      "d": 65.52406250001513,
      "v": 67
    },
    {
      "midi": 64,
      "hit": false,
      "t": 242791.85312502418,
      "d": 80.64500000001863,
      "v": 55
    },
    {
      "midi": 54,
      "hit": false,
      "t": 242801.93375002418,
      "d": 40.32250000000931,
      "v": 39
    },
    {
      "midi": 98,
      "hit": false,
      "t": 242902.7400000242,
      "d": 10.080625000002328,
      "v": 78
    },
    {
      "midi": 82,
      "hit": false,
      "t": 242902.7400000242,
      "d": 10.080625000002328,
      "v": 102
    },
    {
      "midi": 55,
      "hit": false,
      "t": 242902.7400000242,
      "d": 10.080625000002328,
      "v": 54
    },
    {
      "midi": 42,
      "hit": false,
      "t": 242902.7400000242,
      "d": 60.48375000001397,
      "v": 98
    },
    {
      "midi": 35,
      "hit": false,
      "t": 242902.7400000242,
      "d": 90.72562500002095,
      "v": 86
    },
    {
      "midi": 67,
      "hit": false,
      "t": 242902.7400000242,
      "d": 216.73343750005006,
      "v": 47
    },
    {
      "midi": 37,
      "hit": false,
      "t": 242902.7400000242,
      "d": 282.2575000000652,
      "v": 102
    },
    {
      "midi": 52,
      "hit": false,
      "t": 242902.7400000242,
      "d": 866.9337500002002,
      "v": 104
    },
    {
      "midi": 49,
      "hit": false,
      "t": 242902.7400000242,
      "d": 866.9337500002002,
      "v": 104
    },
    {
      "midi": 70,
      "hit": false,
      "t": 242902.7400000242,
      "d": 967.7400000002235,
      "v": 47
    },
    {
      "midi": 58,
      "hit": false,
      "t": 242907.7803125242,
      "d": 10.080625000002328,
      "v": 41
    },
    {
      "midi": 64,
      "hit": false,
      "t": 242912.8206250242,
      "d": 10.080625000002328,
      "v": 49
    },
    {
      "midi": 98,
      "hit": false,
      "t": 243023.70750002423,
      "d": 5.040312500001164,
      "v": 41
    },
    {
      "midi": 82,
      "hit": false,
      "t": 243023.70750002423,
      "d": 5.040312500001164,
      "v": 51
    },
    {
      "midi": 58,
      "hit": false,
      "t": 243023.70750002423,
      "d": 50.40312500001164,
      "v": 22
    },
    {
      "midi": 64,
      "hit": false,
      "t": 243028.74781252423,
      "d": 55.443437500012806,
      "v": 22
    },
    {
      "midi": 54,
      "hit": false,
      "t": 243043.86875002424,
      "d": 40.32250000000931,
      "v": 34
    },
    {
      "midi": 82,
      "hit": false,
      "t": 243144.67500002426,
      "d": 10.080625000002328,
      "v": 60
    },
    {
      "midi": 55,
      "hit": false,
      "t": 243144.67500002426,
      "d": 10.080625000002328,
      "v": 55
    },
    {
      "midi": 42,
      "hit": false,
      "t": 243144.67500002426,
      "d": 40.32250000000931,
      "v": 73
    },
    {
      "midi": 61,
      "hit": false,
      "t": 243144.67500002426,
      "d": 70.5643750000163,
      "v": 61
    },
    {
      "midi": 58,
      "hit": false,
      "t": 243149.71531252426,
      "d": 10.080625000002328,
      "v": 55
    },
    {
      "midi": 64,
      "hit": false,
      "t": 243154.75562502426,
      "d": 25.20156250000582,
      "v": 55
    },
    {
      "midi": 54,
      "hit": false,
      "t": 243164.83625002427,
      "d": 70.5643750000163,
      "v": 93
    },
    {
      "midi": 37,
      "hit": false,
      "t": 243265.6425000243,
      "d": 90.72562500002095,
      "v": 97
    },
    {
      "midi": 98,
      "hit": false,
      "t": 243270.6828125243,
      "d": 10.080625000002328,
      "v": 45
    },
    {
      "midi": 82,
      "hit": false,
      "t": 243270.6828125243,
      "d": 10.080625000002328,
      "v": 58
    },
    {
      "midi": 54,
      "hit": false,
      "t": 243285.8037500243,
      "d": 40.32250000000931,
      "v": 31
    },
    {
      "midi": 98,
      "hit": false,
      "t": 243386.61000002432,
      "d": 10.080625000002328,
      "v": 84
    },
    {
      "midi": 82,
      "hit": false,
      "t": 243386.61000002432,
      "d": 10.080625000002328,
      "v": 108
    },
    {
      "midi": 61,
      "hit": false,
      "t": 243386.61000002432,
      "d": 45.36281250001048,
      "v": 51
    },
    {
      "midi": 55,
      "hit": false,
      "t": 243386.61000002432,
      "d": 50.40312500001164,
      "v": 54
    },
    {
      "midi": 42,
      "hit": false,
      "t": 243386.61000002432,
      "d": 65.52406250001513,
      "v": 98
    },
    {
      "midi": 40,
      "hit": false,
      "t": 243386.61000002432,
      "d": 65.52406250001513,
      "v": 91
    },
    {
      "midi": 28,
      "hit": false,
      "t": 243386.61000002432,
      "d": 216.73343750005006,
      "v": 102
    },
    {
      "midi": 67,
      "hit": false,
      "t": 243386.61000002432,
      "d": 216.73343750005006,
      "v": 104
    },
    {
      "midi": 58,
      "hit": false,
      "t": 243391.65031252432,
      "d": 45.36281250001048,
      "v": 49
    },
    {
      "midi": 64,
      "hit": false,
      "t": 243396.69062502432,
      "d": 70.5643750000163,
      "v": 56
    },
    {
      "midi": 39,
      "hit": false,
      "t": 243406.77125002432,
      "d": 70.5643750000163,
      "v": 76
    },
    {
      "midi": 98,
      "hit": false,
      "t": 243507.57750002434,
      "d": 5.040312500001164,
      "v": 35
    },
    {
      "midi": 82,
      "hit": false,
      "t": 243507.57750002434,
      "d": 5.040312500001164,
      "v": 43
    },
    {
      "midi": 55,
      "hit": false,
      "t": 243507.57750002434,
      "d": 45.36281250001048,
      "v": 23
    },
    {
      "midi": 61,
      "hit": false,
      "t": 243507.57750002434,
      "d": 45.36281250001048,
      "v": 42
    },
    {
      "midi": 58,
      "hit": false,
      "t": 243512.61781252435,
      "d": 50.40312500001164,
      "v": 47
    },
    {
      "midi": 64,
      "hit": false,
      "t": 243517.65812502435,
      "d": 45.36281250001048,
      "v": 38
    },
    {
      "midi": 54,
      "hit": false,
      "t": 243527.73875002435,
      "d": 40.32250000000931,
      "v": 39
    },
    {
      "midi": 82,
      "hit": false,
      "t": 243628.54500002437,
      "d": 10.080625000002328,
      "v": 66
    },
    {
      "midi": 42,
      "hit": false,
      "t": 243628.54500002437,
      "d": 60.48375000001397,
      "v": 82
    },
    {
      "midi": 54,
      "hit": false,
      "t": 243628.54500002437,
      "d": 85.68531250001979,
      "v": 50
    },
    {
      "midi": 31,
      "hit": false,
      "t": 243628.54500002437,
      "d": 141.1287500000326,
      "v": 97
    },
    {
      "midi": 55,
      "hit": false,
      "t": 243749.5125000244,
      "d": 10.080625000002328,
      "v": 51
    },
    {
      "midi": 58,
      "hit": false,
      "t": 243754.5528125244,
      "d": 5.040312500001164,
      "v": 49
    },
    {
      "midi": 98,
      "hit": false,
      "t": 243754.5528125244,
      "d": 10.080625000002328,
      "v": 49
    },
    {
      "midi": 82,
      "hit": false,
      "t": 243754.5528125244,
      "d": 10.080625000002328,
      "v": 64
    },
    {
      "midi": 64,
      "hit": false,
      "t": 243759.5931250244,
      "d": 10.080625000002328,
      "v": 54
    },
    {
      "midi": 54,
      "hit": false,
      "t": 243769.6737500244,
      "d": 40.32250000000931,
      "v": 40
    },
    {
      "midi": 98,
      "hit": false,
      "t": 243870.48000002443,
      "d": 10.080625000002328,
      "v": 78
    },
    {
      "midi": 82,
      "hit": false,
      "t": 243870.48000002443,
      "d": 10.080625000002328,
      "v": 102
    },
    {
      "midi": 42,
      "hit": false,
      "t": 243870.48000002443,
      "d": 45.36281250001048,
      "v": 95
    },
    {
      "midi": 57,
      "hit": false,
      "t": 243870.48000002443,
      "d": 50.40312500001164,
      "v": 58
    },
    {
      "midi": 35,
      "hit": false,
      "t": 243870.48000002443,
      "d": 105.84656250002445,
      "v": 87
    },
    {
      "midi": 38,
      "hit": false,
      "t": 243870.48000002443,
      "d": 307.459062500071,
      "v": 105
    },
    {
      "midi": 50,
      "hit": false,
      "t": 243870.48000002443,
      "d": 650.2003125001502,
      "v": 104
    },
    {
      "midi": 69,
      "hit": false,
      "t": 243870.48000002443,
      "d": 1708.6659375003946,
      "v": 47
    },
    {
      "midi": 74,
      "hit": false,
      "t": 243870.48000002443,
      "d": 1935.480000000447,
      "v": 47
    },
    {
      "midi": 62,
      "hit": false,
      "t": 243875.52031252443,
      "d": 40.32250000000931,
      "v": 54
    },
    {
      "midi": 66,
      "hit": false,
      "t": 243880.56062502443,
      "d": 65.52406250001513,
      "v": 54
    },
    {
      "midi": 98,
      "hit": false,
      "t": 243991.44750002446,
      "d": 5.040312500001164,
      "v": 41
    },
    {
      "midi": 82,
      "hit": false,
      "t": 243991.44750002446,
      "d": 5.040312500001164,
      "v": 51
    },
    {
      "midi": 57,
      "hit": false,
      "t": 243991.44750002446,
      "d": 10.080625000002328,
      "v": 56
    },
    {
      "midi": 62,
      "hit": false,
      "t": 243996.48781252446,
      "d": 10.080625000002328,
      "v": 54
    },
    {
      "midi": 66,
      "hit": false,
      "t": 244001.52812502446,
      "d": 70.5643750000163,
      "v": 56
    },
    {
      "midi": 54,
      "hit": false,
      "t": 244011.60875002446,
      "d": 40.32250000000931,
      "v": 34
    },
    {
      "midi": 82,
      "hit": false,
      "t": 244112.41500002448,
      "d": 10.080625000002328,
      "v": 60
    },
    {
      "midi": 42,
      "hit": false,
      "t": 244112.41500002448,
      "d": 40.32250000000931,
      "v": 82
    },
    {
      "midi": 54,
      "hit": false,
      "t": 244112.41500002448,
      "d": 70.5643750000163,
      "v": 94
    },
    {
      "midi": 57,
      "hit": false,
      "t": 244233.3825000245,
      "d": 5.040312500001164,
      "v": 22
    },
    {
      "midi": 62,
      "hit": false,
      "t": 244233.3825000245,
      "d": 5.040312500001164,
      "v": 35
    },
    {
      "midi": 38,
      "hit": false,
      "t": 244233.3825000245,
      "d": 90.72562500002095,
      "v": 102
    },
    {
      "midi": 98,
      "hit": false,
      "t": 244238.4228125245,
      "d": 10.080625000002328,
      "v": 45
    },
    {
      "midi": 82,
      "hit": false,
      "t": 244238.4228125245,
      "d": 10.080625000002328,
      "v": 58
    },
    {
      "midi": 62,
      "hit": false,
      "t": 244238.4228125245,
      "d": 45.36281250001048,
      "v": 29
    },
    {
      "midi": 66,
      "hit": false,
      "t": 244243.46312502451,
      "d": 50.40312500001164,
      "v": 26
    },
    {
      "midi": 54,
      "hit": false,
      "t": 244253.54375002452,
      "d": 40.32250000000931,
      "v": 40
    },
    {
      "midi": 98,
      "hit": false,
      "t": 244354.35000002454,
      "d": 10.080625000002328,
      "v": 84
    },
    {
      "midi": 82,
      "hit": false,
      "t": 244354.35000002454,
      "d": 10.080625000002328,
      "v": 108
    },
    {
      "midi": 57,
      "hit": false,
      "t": 244354.35000002454,
      "d": 25.20156250000582,
      "v": 67
    },
    {
      "midi": 42,
      "hit": false,
      "t": 244354.35000002454,
      "d": 65.52406250001513,
      "v": 98
    },
    {
      "midi": 40,
      "hit": false,
      "t": 244354.35000002454,
      "d": 70.5643750000163,
      "v": 94
    },
    {
      "midi": 33,
      "hit": false,
      "t": 244354.35000002454,
      "d": 297.3784375000687,
      "v": 105
    },
    {
      "midi": 62,
      "hit": false,
      "t": 244359.39031252454,
      "d": 10.080625000002328,
      "v": 49
    },
    {
      "midi": 66,
      "hit": false,
      "t": 244364.43062502454,
      "d": 10.080625000002328,
      "v": 54
    },
    {
      "midi": 98,
      "hit": false,
      "t": 244475.31750002457,
      "d": 5.040312500001164,
      "v": 35
    },
    {
      "midi": 82,
      "hit": false,
      "t": 244475.31750002457,
      "d": 5.040312500001164,
      "v": 43
    },
    {
      "midi": 54,
      "hit": false,
      "t": 244495.47875002457,
      "d": 25.20156250000582,
      "v": 39
    },
    {
      "midi": 57,
      "hit": false,
      "t": 244596.2850000246,
      "d": 5.040312500001164,
      "v": 22
    },
    {
      "midi": 82,
      "hit": false,
      "t": 244596.2850000246,
      "d": 10.080625000002328,
      "v": 66
    },
    {
      "midi": 42,
      "hit": false,
      "t": 244596.2850000246,
      "d": 40.32250000000931,
      "v": 82
    },
    {
      "midi": 54,
      "hit": false,
      "t": 244596.2850000246,
      "d": 85.68531250001979,
      "v": 47
    },
    {
      "midi": 55,
      "hit": false,
      "t": 244596.2850000246,
      "d": 650.2003125001502,
      "v": 104
    },
    {
      "midi": 52,
      "hit": false,
      "t": 244596.2850000246,
      "d": 650.2003125001502,
      "v": 104
    },
    {
      "midi": 62,
      "hit": false,
      "t": 244601.3253125246,
      "d": 55.443437500012806,
      "v": 22
    },
    {
      "midi": 66,
      "hit": false,
      "t": 244606.3656250246,
      "d": 50.40312500001164,
      "v": 22
    },
    {
      "midi": 57,
      "hit": false,
      "t": 244717.25250002462,
      "d": 65.52406250001513,
      "v": 65
    },
    {
      "midi": 33,
      "hit": false,
      "t": 244717.25250002462,
      "d": 90.72562500002095,
      "v": 102
    },
    {
      "midi": 31,
      "hit": false,
      "t": 244722.29281252463,
      "d": 5.040312500001164,
      "v": 35
    },
    {
      "midi": 98,
      "hit": false,
      "t": 244722.29281252463,
      "d": 10.080625000002328,
      "v": 49
    },
    {
      "midi": 82,
      "hit": false,
      "t": 244722.29281252463,
      "d": 10.080625000002328,
      "v": 64
    },
    {
      "midi": 62,
      "hit": false,
      "t": 244722.29281252463,
      "d": 65.52406250001513,
      "v": 67
    },
    {
      "midi": 66,
      "hit": false,
      "t": 244727.33312502463,
      "d": 80.64500000001863,
      "v": 55
    },
    {
      "midi": 54,
      "hit": false,
      "t": 244737.41375002463,
      "d": 40.32250000000931,
      "v": 39
    },
    {
      "midi": 98,
      "hit": false,
      "t": 244838.22000002465,
      "d": 10.080625000002328,
      "v": 78
    },
    {
      "midi": 82,
      "hit": false,
      "t": 244838.22000002465,
      "d": 10.080625000002328,
      "v": 102
    },
    {
      "midi": 57,
      "hit": false,
      "t": 244838.22000002465,
      "d": 10.080625000002328,
      "v": 54
    },
    {
      "midi": 42,
      "hit": false,
      "t": 244838.22000002465,
      "d": 60.48375000001397,
      "v": 98
    },
    {
      "midi": 35,
      "hit": false,
      "t": 244838.22000002465,
      "d": 90.72562500002095,
      "v": 86
    },
    {
      "midi": 38,
      "hit": false,
      "t": 244838.22000002465,
      "d": 211.6931250000489,
      "v": 105
    },
    {
      "midi": 62,
      "hit": false,
      "t": 244843.26031252465,
      "d": 10.080625000002328,
      "v": 41
    },
    {
      "midi": 66,
      "hit": false,
      "t": 244848.30062502465,
      "d": 10.080625000002328,
      "v": 49
    },
    {
      "midi": 31,
      "hit": false,
      "t": 244959.18750002468,
      "d": 5.040312500001164,
      "v": 30
    },
    {
      "midi": 98,
      "hit": false,
      "t": 244959.18750002468,
      "d": 5.040312500001164,
      "v": 41
    },
    {
      "midi": 82,
      "hit": false,
      "t": 244959.18750002468,
      "d": 5.040312500001164,
      "v": 51
    },
    {
      "midi": 62,
      "hit": false,
      "t": 244959.18750002468,
      "d": 50.40312500001164,
      "v": 22
    },
    {
      "midi": 66,
      "hit": false,
      "t": 244964.22781252468,
      "d": 55.443437500012806,
      "v": 22
    },
    {
      "midi": 54,
      "hit": false,
      "t": 244979.34875002468,
      "d": 40.32250000000931,
      "v": 34
    },
    {
      "midi": 82,
      "hit": false,
      "t": 245080.1550000247,
      "d": 10.080625000002328,
      "v": 60
    },
    {
      "midi": 57,
      "hit": false,
      "t": 245080.1550000247,
      "d": 10.080625000002328,
      "v": 55
    },
    {
      "midi": 42,
      "hit": false,
      "t": 245080.1550000247,
      "d": 40.32250000000931,
      "v": 73
    },
    {
      "midi": 38,
      "hit": false,
      "t": 245080.1550000247,
      "d": 206.65281250004773,
      "v": 105
    },
    {
      "midi": 62,
      "hit": false,
      "t": 245085.1953125247,
      "d": 10.080625000002328,
      "v": 55
    },
    {
      "midi": 66,
      "hit": false,
      "t": 245090.2356250247,
      "d": 25.20156250000582,
      "v": 55
    },
    {
      "midi": 54,
      "hit": false,
      "t": 245100.3162500247,
      "d": 70.5643750000163,
      "v": 93
    },
    {
      "midi": 98,
      "hit": false,
      "t": 245206.16281252474,
      "d": 10.080625000002328,
      "v": 45
    },
    {
      "midi": 82,
      "hit": false,
      "t": 245206.16281252474,
      "d": 10.080625000002328,
      "v": 58
    },
    {
      "midi": 54,
      "hit": false,
      "t": 245221.28375002474,
      "d": 40.32250000000931,
      "v": 31
    },
    {
      "midi": 98,
      "hit": false,
      "t": 245322.09000002476,
      "d": 10.080625000002328,
      "v": 84
    },
    {
      "midi": 82,
      "hit": false,
      "t": 245322.09000002476,
      "d": 10.080625000002328,
      "v": 108
    },
    {
      "midi": 57,
      "hit": false,
      "t": 245322.09000002476,
      "d": 50.40312500001164,
      "v": 54
    },
    {
      "midi": 42,
      "hit": false,
      "t": 245322.09000002476,
      "d": 65.52406250001513,
      "v": 98
    },
    {
      "midi": 40,
      "hit": false,
      "t": 245322.09000002476,
      "d": 65.52406250001513,
      "v": 91
    },
    {
      "midi": 30,
      "hit": false,
      "t": 245322.09000002476,
      "d": 191.53187500004424,
      "v": 102
    },
    {
      "midi": 56,
      "hit": false,
      "t": 245322.09000002476,
      "d": 433.4668750001001,
      "v": 104
    },
    {
      "midi": 53,
      "hit": false,
      "t": 245322.09000002476,
      "d": 433.4668750001001,
      "v": 104
    },
    {
      "midi": 62,
      "hit": false,
      "t": 245327.13031252477,
      "d": 40.32250000000931,
      "v": 49
    },
    {
      "midi": 66,
      "hit": false,
      "t": 245332.17062502477,
      "d": 70.5643750000163,
      "v": 56
    },
    {
      "midi": 39,
      "hit": false,
      "t": 245342.25125002477,
      "d": 70.5643750000163,
      "v": 76
    },
    {
      "midi": 98,
      "hit": false,
      "t": 245443.0575000248,
      "d": 5.040312500001164,
      "v": 35
    },
    {
      "midi": 82,
      "hit": false,
      "t": 245443.0575000248,
      "d": 5.040312500001164,
      "v": 43
    },
    {
      "midi": 57,
      "hit": false,
      "t": 245443.0575000248,
      "d": 45.36281250001048,
      "v": 23
    },
    {
      "midi": 62,
      "hit": false,
      "t": 245448.0978125248,
      "d": 40.32250000000931,
      "v": 47
    },
    {
      "midi": 66,
      "hit": false,
      "t": 245453.1381250248,
      "d": 45.36281250001048,
      "v": 38
    },
    {
      "midi": 54,
      "hit": false,
      "t": 245463.2187500248,
      "d": 40.32250000000931,
      "v": 39
    },
    {
      "midi": 82,
      "hit": false,
      "t": 245564.02500002482,
      "d": 10.080625000002328,
      "v": 66
    },
    {
      "midi": 42,
      "hit": false,
      "t": 245564.02500002482,
      "d": 60.48375000001397,
      "v": 82
    },
    {
      "midi": 54,
      "hit": false,
      "t": 245564.02500002482,
      "d": 85.68531250001979,
      "v": 50
    },
    {
      "midi": 33,
      "hit": false,
      "t": 245564.02500002482,
      "d": 161.29000000003725,
      "v": 105
    },
    {
      "midi": 57,
      "hit": false,
      "t": 245684.99250002485,
      "d": 10.080625000002328,
      "v": 51
    },
    {
      "midi": 62,
      "hit": false,
      "t": 245690.03281252485,
      "d": 5.040312500001164,
      "v": 49
    },
    {
      "midi": 98,
      "hit": false,
      "t": 245690.03281252485,
      "d": 10.080625000002328,
      "v": 49
    },
    {
      "midi": 82,
      "hit": false,
      "t": 245690.03281252485,
      "d": 10.080625000002328,
      "v": 64
    },
    {
      "midi": 66,
      "hit": false,
      "t": 245695.07312502485,
      "d": 10.080625000002328,
      "v": 54
    },
    {
      "midi": 54,
      "hit": false,
      "t": 245705.15375002485,
      "d": 40.32250000000931,
      "v": 40
    },
    {
      "midi": 98,
      "hit": false,
      "t": 245805.96000002488,
      "d": 10.080625000002328,
      "v": 78
    },
    {
      "midi": 82,
      "hit": false,
      "t": 245805.96000002488,
      "d": 10.080625000002328,
      "v": 102
    },
    {
      "midi": 42,
      "hit": false,
      "t": 245805.96000002488,
      "d": 45.36281250001048,
      "v": 95
    },
    {
      "midi": 35,
      "hit": false,
      "t": 245805.96000002488,
      "d": 105.84656250002445,
      "v": 87
    },
    {
      "midi": 50,
      "hit": false,
      "t": 245805.96000002488,
      "d": 433.4668750001001,
      "v": 104
    },
    {
      "midi": 74,
      "hit": false,
      "t": 245805.96000002488,
      "d": 1446.569687500334,
      "v": 47
    },
    {
      "midi": 38,
      "hit": false,
      "t": 245811.00031252488,
      "d": 498.99093750011525,
      "v": 102
    },
    {
      "midi": 98,
      "hit": false,
      "t": 245926.9275000249,
      "d": 5.040312500001164,
      "v": 41
    },
    {
      "midi": 82,
      "hit": false,
      "t": 245926.9275000249,
      "d": 5.040312500001164,
      "v": 51
    },
    {
      "midi": 57,
      "hit": false,
      "t": 245926.9275000249,
      "d": 15.120937500003492,
      "v": 85
    },
    {
      "midi": 66,
      "hit": false,
      "t": 245926.9275000249,
      "d": 15.120937500003492,
      "v": 68
    },
    {
      "midi": 62,
      "hit": false,
      "t": 245942.0484375249,
      "d": 15.120937500003492,
      "v": 93
    },
    {
      "midi": 54,
      "hit": false,
      "t": 245947.0887500249,
      "d": 40.32250000000931,
      "v": 34
    },
    {
      "midi": 82,
      "hit": false,
      "t": 246047.89500002493,
      "d": 10.080625000002328,
      "v": 60
    },
    {
      "midi": 42,
      "hit": false,
      "t": 246047.89500002493,
      "d": 40.32250000000931,
      "v": 82
    },
    {
      "midi": 54,
      "hit": false,
      "t": 246047.89500002493,
      "d": 70.5643750000163,
      "v": 94
    },
    {
      "midi": 57,
      "hit": false,
      "t": 246047.89500002493,
      "d": 75.60468750001746,
      "v": 68
    },
    {
      "midi": 66,
      "hit": false,
      "t": 246047.89500002493,
      "d": 75.60468750001746,
      "v": 75
    },
    {
      "midi": 62,
      "hit": false,
      "t": 246063.01593752493,
      "d": 75.60468750001746,
      "v": 90
    },
    {
      "midi": 57,
      "hit": false,
      "t": 246168.86250002496,
      "d": 15.120937500003492,
      "v": 96
    },
    {
      "midi": 66,
      "hit": false,
      "t": 246168.86250002496,
      "d": 15.120937500003492,
      "v": 78
    },
    {
      "midi": 98,
      "hit": false,
      "t": 246173.90281252496,
      "d": 10.080625000002328,
      "v": 45
    },
    {
      "midi": 82,
      "hit": false,
      "t": 246173.90281252496,
      "d": 10.080625000002328,
      "v": 58
    },
    {
      "midi": 62,
      "hit": false,
      "t": 246183.98343752496,
      "d": 15.120937500003492,
      "v": 80
    },
    {
      "midi": 54,
      "hit": false,
      "t": 246189.02375002496,
      "d": 40.32250000000931,
      "v": 40
    },
    {
      "midi": 98,
      "hit": false,
      "t": 246289.830000025,
      "d": 10.080625000002328,
      "v": 84
    },
    {
      "midi": 82,
      "hit": false,
      "t": 246289.830000025,
      "d": 10.080625000002328,
      "v": 108
    },
    {
      "midi": 57,
      "hit": false,
      "t": 246289.830000025,
      "d": 15.120937500003492,
      "v": 92
    },
    {
      "midi": 66,
      "hit": false,
      "t": 246289.830000025,
      "d": 15.120937500003492,
      "v": 88
    },
    {
      "midi": 42,
      "hit": false,
      "t": 246289.830000025,
      "d": 65.52406250001513,
      "v": 98
    },
    {
      "midi": 40,
      "hit": false,
      "t": 246289.830000025,
      "d": 70.5643750000163,
      "v": 94
    },
    {
      "midi": 71,
      "hit": false,
      "t": 246289.830000025,
      "d": 433.4668750001001,
      "v": 104
    },
    {
      "midi": 62,
      "hit": false,
      "t": 246304.950937525,
      "d": 15.120937500003492,
      "v": 86
    },
    {
      "midi": 98,
      "hit": false,
      "t": 246410.79750002502,
      "d": 5.040312500001164,
      "v": 35
    },
    {
      "midi": 82,
      "hit": false,
      "t": 246410.79750002502,
      "d": 5.040312500001164,
      "v": 43
    },
    {
      "midi": 57,
      "hit": false,
      "t": 246410.79750002502,
      "d": 75.60468750001746,
      "v": 68
    },
    {
      "midi": 66,
      "hit": false,
      "t": 246410.79750002502,
      "d": 75.60468750001746,
      "v": 89
    },
    {
      "midi": 62,
      "hit": false,
      "t": 246425.91843752502,
      "d": 75.60468750001746,
      "v": 68
    },
    {
      "midi": 54,
      "hit": false,
      "t": 246430.95875002502,
      "d": 40.32250000000931,
      "v": 39
    },
    {
      "midi": 82,
      "hit": false,
      "t": 246531.76500002504,
      "d": 10.080625000002328,
      "v": 66
    },
    {
      "midi": 57,
      "hit": false,
      "t": 246531.76500002504,
      "d": 15.120937500003492,
      "v": 97
    },
    {
      "midi": 66,
      "hit": false,
      "t": 246531.76500002504,
      "d": 15.120937500003492,
      "v": 79
    },
    {
      "midi": 42,
      "hit": false,
      "t": 246531.76500002504,
      "d": 40.32250000000931,
      "v": 82
    },
    {
      "midi": 54,
      "hit": false,
      "t": 246531.76500002504,
      "d": 85.68531250001979,
      "v": 47
    },
    {
      "midi": 38,
      "hit": false,
      "t": 246536.80531252504,
      "d": 136.08843750003143,
      "v": 89
    },
    {
      "midi": 62,
      "hit": false,
      "t": 246546.88593752505,
      "d": 15.120937500003492,
      "v": 78
    },
    {
      "midi": 57,
      "hit": false,
      "t": 246652.73250002507,
      "d": 15.120937500003492,
      "v": 91
    },
    {
      "midi": 66,
      "hit": false,
      "t": 246652.73250002507,
      "d": 15.120937500003492,
      "v": 84
    },
    {
      "midi": 29,
      "hit": false,
      "t": 246652.73250002507,
      "d": 95.76593750002212,
      "v": 45
    },
    {
      "midi": 98,
      "hit": false,
      "t": 246657.77281252507,
      "d": 10.080625000002328,
      "v": 49
    },
    {
      "midi": 82,
      "hit": false,
      "t": 246657.77281252507,
      "d": 10.080625000002328,
      "v": 64
    },
    {
      "midi": 62,
      "hit": false,
      "t": 246667.85343752507,
      "d": 15.120937500003492,
      "v": 98
    },
    {
      "midi": 54,
      "hit": false,
      "t": 246672.89375002508,
      "d": 40.32250000000931,
      "v": 39
    },
    {
      "midi": 98,
      "hit": false,
      "t": 246773.7000000251,
      "d": 10.080625000002328,
      "v": 78
    },
    {
      "midi": 82,
      "hit": false,
      "t": 246773.7000000251,
      "d": 10.080625000002328,
      "v": 102
    },
    {
      "midi": 42,
      "hit": false,
      "t": 246773.7000000251,
      "d": 60.48375000001397,
      "v": 98
    },
    {
      "midi": 35,
      "hit": false,
      "t": 246773.7000000251,
      "d": 90.72562500002095,
      "v": 86
    },
    {
      "midi": 66,
      "hit": false,
      "t": 246773.7000000251,
      "d": 95.76593750002212,
      "v": 70
    },
    {
      "midi": 69,
      "hit": false,
      "t": 246773.7000000251,
      "d": 433.4668750001001,
      "v": 104
    },
    {
      "midi": 38,
      "hit": false,
      "t": 246778.7403125251,
      "d": 55.443437500012806,
      "v": 93
    },
    {
      "midi": 62,
      "hit": false,
      "t": 246783.7806250251,
      "d": 95.76593750002212,
      "v": 95
    },
    {
      "midi": 57,
      "hit": false,
      "t": 246788.8209375251,
      "d": 95.76593750002212,
      "v": 78
    },
    {
      "midi": 98,
      "hit": false,
      "t": 246894.66750002513,
      "d": 5.040312500001164,
      "v": 41
    },
    {
      "midi": 82,
      "hit": false,
      "t": 246894.66750002513,
      "d": 5.040312500001164,
      "v": 51
    },
    {
      "midi": 66,
      "hit": false,
      "t": 246894.66750002513,
      "d": 95.76593750002212,
      "v": 95
    },
    {
      "midi": 31,
      "hit": false,
      "t": 246899.70781252513,
      "d": 5.040312500001164,
      "v": 42
    },
    {
      "midi": 62,
      "hit": false,
      "t": 246904.74812502513,
      "d": 95.76593750002212,
      "v": 75
    },
    {
      "midi": 57,
      "hit": false,
      "t": 246909.78843752513,
      "d": 95.76593750002212,
      "v": 86
    },
    {
      "midi": 54,
      "hit": false,
      "t": 246914.82875002513,
      "d": 40.32250000000931,
      "v": 34
    },
    {
      "midi": 82,
      "hit": false,
      "t": 247015.63500002516,
      "d": 10.080625000002328,
      "v": 60
    },
    {
      "midi": 42,
      "hit": false,
      "t": 247015.63500002516,
      "d": 40.32250000000931,
      "v": 73
    },
    {
      "midi": 66,
      "hit": false,
      "t": 247015.63500002516,
      "d": 95.76593750002212,
      "v": 90
    },
    {
      "midi": 38,
      "hit": false,
      "t": 247015.63500002516,
      "d": 297.3784375000687,
      "v": 101
    },
    {
      "midi": 62,
      "hit": false,
      "t": 247025.71562502516,
      "d": 95.76593750002212,
      "v": 89
    },
    {
      "midi": 57,
      "hit": false,
      "t": 247030.75593752516,
      "d": 95.76593750002212,
      "v": 87
    },
    {
      "midi": 54,
      "hit": false,
      "t": 247035.79625002516,
      "d": 70.5643750000163,
      "v": 93
    },
    {
      "midi": 31,
      "hit": false,
      "t": 247136.60250002518,
      "d": 5.040312500001164,
      "v": 34
    },
    {
      "midi": 66,
      "hit": false,
      "t": 247136.60250002518,
      "d": 95.76593750002212,
      "v": 71
    },
    {
      "midi": 98,
      "hit": false,
      "t": 247141.64281252518,
      "d": 10.080625000002328,
      "v": 45
    },
    {
      "midi": 82,
      "hit": false,
      "t": 247141.64281252518,
      "d": 10.080625000002328,
      "v": 58
    },
    {
      "midi": 62,
      "hit": false,
      "t": 247146.68312502519,
      "d": 95.76593750002212,
      "v": 91
    },
    {
      "midi": 57,
      "hit": false,
      "t": 247151.7234375252,
      "d": 95.76593750002212,
      "v": 98
    },
    {
      "midi": 54,
      "hit": false,
      "t": 247156.7637500252,
      "d": 40.32250000000931,
      "v": 31
    },
    {
      "midi": 98,
      "hit": false,
      "t": 247257.5700000252,
      "d": 10.080625000002328,
      "v": 84
    },
    {
      "midi": 82,
      "hit": false,
      "t": 247257.5700000252,
      "d": 10.080625000002328,
      "v": 108
    },
    {
      "midi": 40,
      "hit": false,
      "t": 247257.5700000252,
      "d": 65.52406250001513,
      "v": 91
    },
    {
      "midi": 57,
      "hit": false,
      "t": 247257.5700000252,
      "d": 100.80625000002328,
      "v": 57
    },
    {
      "midi": 66,
      "hit": false,
      "t": 247257.5700000252,
      "d": 100.80625000002328,
      "v": 78
    },
    {
      "midi": 62,
      "hit": false,
      "t": 247257.5700000252,
      "d": 100.80625000002328,
      "v": 78
    },
    {
      "midi": 67,
      "hit": false,
      "t": 247257.5700000252,
      "d": 433.4668750001001,
      "v": 104
    },
    {
      "midi": 39,
      "hit": false,
      "t": 247277.73125002522,
      "d": 70.5643750000163,
      "v": 76
    },
    {
      "midi": 40,
      "hit": false,
      "t": 247378.53750002524,
      "d": 5.040312500001164,
      "v": 68
    },
    {
      "midi": 98,
      "hit": false,
      "t": 247378.53750002524,
      "d": 5.040312500001164,
      "v": 35
    },
    {
      "midi": 82,
      "hit": false,
      "t": 247378.53750002524,
      "d": 5.040312500001164,
      "v": 43
    },
    {
      "midi": 38,
      "hit": false,
      "t": 247378.53750002524,
      "d": 5.040312500001164,
      "v": 93
    },
    {
      "midi": 57,
      "hit": false,
      "t": 247378.53750002524,
      "d": 15.120937500003492,
      "v": 95
    },
    {
      "midi": 66,
      "hit": false,
      "t": 247378.53750002524,
      "d": 15.120937500003492,
      "v": 80
    },
    {
      "midi": 62,
      "hit": false,
      "t": 247393.65843752524,
      "d": 15.120937500003492,
      "v": 85
    },
    {
      "midi": 54,
      "hit": false,
      "t": 247398.69875002524,
      "d": 40.32250000000931,
      "v": 39
    },
    {
      "midi": 45,
      "hit": false,
      "t": 247499.50500002527,
      "d": 5.040312500001164,
      "v": 77
    },
    {
      "midi": 82,
      "hit": false,
      "t": 247499.50500002527,
      "d": 10.080625000002328,
      "v": 66
    },
    {
      "midi": 57,
      "hit": false,
      "t": 247499.50500002527,
      "d": 15.120937500003492,
      "v": 72
    },
    {
      "midi": 66,
      "hit": false,
      "t": 247499.50500002527,
      "d": 15.120937500003492,
      "v": 83
    },
    {
      "midi": 54,
      "hit": false,
      "t": 247499.50500002527,
      "d": 85.68531250001979,
      "v": 50
    },
    {
      "midi": 38,
      "hit": false,
      "t": 247504.54531252527,
      "d": 226.8140625000524,
      "v": 93
    },
    {
      "midi": 62,
      "hit": false,
      "t": 247514.62593752527,
      "d": 15.120937500003492,
      "v": 82
    },
    {
      "midi": 57,
      "hit": false,
      "t": 247620.4725000253,
      "d": 15.120937500003492,
      "v": 102
    },
    {
      "midi": 66,
      "hit": false,
      "t": 247620.4725000253,
      "d": 15.120937500003492,
      "v": 107
    },
    {
      "midi": 98,
      "hit": false,
      "t": 247625.5128125253,
      "d": 10.080625000002328,
      "v": 49
    },
    {
      "midi": 82,
      "hit": false,
      "t": 247625.5128125253,
      "d": 10.080625000002328,
      "v": 64
    },
    {
      "midi": 62,
      "hit": false,
      "t": 247635.5934375253,
      "d": 15.120937500003492,
      "v": 79
    },
    {
      "midi": 54,
      "hit": false,
      "t": 247640.6337500253,
      "d": 40.32250000000931,
      "v": 40
    },
    {
      "midi": 49,
      "hit": false,
      "t": 247736.39968752532,
      "d": 5.040312500001164,
      "v": 79
    },
    {
      "midi": 44,
      "hit": false,
      "t": 247741.44000002532,
      "d": 5.040312500001164,
      "v": 64
    },
    {
      "midi": 60,
      "hit": false,
      "t": 247741.44000002532,
      "d": 5.040312500001164,
      "v": 85
    },
    {
      "midi": 35,
      "hit": false,
      "t": 247741.44000002532,
      "d": 105.84656249999534,
      "v": 87
    },
    {
      "midi": 36,
      "hit": false,
      "t": 247741.44000002532,
      "d": 176.41093750001164,
      "v": 101
    },
    {
      "midi": 71,
      "hit": false,
      "t": 247741.44000002532,
      "d": 211.6931250000198,
      "v": 104
    },
    {
      "midi": 67,
      "hit": false,
      "t": 247741.44000002532,
      "d": 211.6931250000198,
      "v": 104
    },
    {
      "midi": 48,
      "hit": false,
      "t": 247741.44000002532,
      "d": 433.4668750000419,
      "v": 104
    },
    {
      "midi": 55,
      "hit": false,
      "t": 247862.40750002532,
      "d": 30.241875000006985,
      "v": 56
    },
    {
      "midi": 60,
      "hit": false,
      "t": 247872.48812502532,
      "d": 25.20156250000582,
      "v": 50
    },
    {
      "midi": 64,
      "hit": false,
      "t": 247882.56875002533,
      "d": 30.241875000006985,
      "v": 33
    },
    {
      "midi": 46,
      "hit": false,
      "t": 247978.33468752535,
      "d": 5.040312500001164,
      "v": 69
    },
    {
      "midi": 62,
      "hit": false,
      "t": 247983.37500002535,
      "d": 5.040312500001164,
      "v": 91
    },
    {
      "midi": 60,
      "hit": false,
      "t": 247983.37500002535,
      "d": 5.040312500001164,
      "v": 94
    },
    {
      "midi": 72,
      "hit": false,
      "t": 247983.37500002535,
      "d": 105.84656249999534,
      "v": 104
    },
    {
      "midi": 55,
      "hit": false,
      "t": 248104.34250002535,
      "d": 20.161250000004657,
      "v": 96
    },
    {
      "midi": 71,
      "hit": false,
      "t": 248104.34250002535,
      "d": 105.84656250002445,
      "v": 104
    },
    {
      "midi": 60,
      "hit": false,
      "t": 248114.42312502535,
      "d": 20.161250000004657,
      "v": 89
    },
    {
      "midi": 64,
      "hit": false,
      "t": 248124.50375002535,
      "d": 15.120937500003492,
      "v": 84
    },
    {
      "midi": 44,
      "hit": false,
      "t": 248220.26968752538,
      "d": 5.040312500001164,
      "v": 71
    },
    {
      "midi": 40,
      "hit": false,
      "t": 248225.31000002538,
      "d": 70.5643749999872,
      "v": 94
    },
    {
      "midi": 60,
      "hit": false,
      "t": 248225.31000002538,
      "d": 85.68531249999069,
      "v": 100
    },
    {
      "midi": 35,
      "hit": false,
      "t": 248225.31000002538,
      "d": 105.84656249999534,
      "v": 87
    },
    {
      "midi": 36,
      "hit": false,
      "t": 248225.31000002538,
      "d": 166.3303125000093,
      "v": 99
    },
    {
      "midi": 60,
      "hit": false,
      "t": 248346.27750002538,
      "d": 10.080625000002328,
      "v": 100
    },
    {
      "midi": 67,
      "hit": false,
      "t": 248346.27750002538,
      "d": 105.84656250002445,
      "v": 104
    },
    {
      "midi": 46,
      "hit": false,
      "t": 248467.2450000254,
      "d": 5.040312500001164,
      "v": 61
    },
    {
      "midi": 63,
      "hit": false,
      "t": 248467.2450000254,
      "d": 5.040312500001164,
      "v": 47
    },
    {
      "midi": 63,
      "hit": false,
      "t": 248588.2125000254,
      "d": 5.040312500001164,
      "v": 85
    },
    {
      "midi": 60,
      "hit": false,
      "t": 248588.2125000254,
      "d": 5.040312500001164,
      "v": 95
    },
    {
      "midi": 55,
      "hit": false,
      "t": 248588.2125000254,
      "d": 15.120937500003492,
      "v": 36
    },
    {
      "midi": 31,
      "hit": false,
      "t": 248593.2528125254,
      "d": 5.040312500001164,
      "v": 42
    },
    {
      "midi": 60,
      "hit": false,
      "t": 248598.2931250254,
      "d": 15.120937500003492,
      "v": 46
    },
    {
      "midi": 64,
      "hit": false,
      "t": 248608.3737500254,
      "d": 15.120937500003492,
      "v": 30
    },
    {
      "midi": 44,
      "hit": false,
      "t": 248709.18000002543,
      "d": 5.040312500001164,
      "v": 64
    },
    {
      "midi": 60,
      "hit": false,
      "t": 248709.18000002543,
      "d": 5.040312500001164,
      "v": 92
    },
    {
      "midi": 35,
      "hit": false,
      "t": 248709.18000002543,
      "d": 90.72562499999185,
      "v": 86
    },
    {
      "midi": 55,
      "hit": false,
      "t": 248709.18000002543,
      "d": 95.76593749999302,
      "v": 13
    },
    {
      "midi": 36,
      "hit": false,
      "t": 248709.18000002543,
      "d": 115.92718749999767,
      "v": 94
    },
    {
      "midi": 48,
      "hit": false,
      "t": 248709.18000002543,
      "d": 433.4668750000128,
      "v": 104
    },
    {
      "midi": 31,
      "hit": false,
      "t": 248830.14750002543,
      "d": 5.040312500001164,
      "v": 39
    },
    {
      "midi": 60,
      "hit": false,
      "t": 248830.14750002543,
      "d": 5.040312500001164,
      "v": 94
    },
    {
      "midi": 55,
      "hit": false,
      "t": 248830.14750002543,
      "d": 20.161250000004657,
      "v": 80
    },
    {
      "midi": 60,
      "hit": false,
      "t": 248840.22812502543,
      "d": 20.161250000004657,
      "v": 68
    },
    {
      "midi": 64,
      "hit": false,
      "t": 248850.30875002543,
      "d": 20.161250000004657,
      "v": 75
    },
    {
      "midi": 46,
      "hit": false,
      "t": 248951.11500002543,
      "d": 5.040312500001164,
      "v": 70
    },
    {
      "midi": 62,
      "hit": false,
      "t": 248951.11500002543,
      "d": 5.040312500001164,
      "v": 85
    },
    {
      "midi": 60,
      "hit": false,
      "t": 248951.11500002543,
      "d": 5.040312500001164,
      "v": 94
    },
    {
      "midi": 36,
      "hit": false,
      "t": 248951.11500002543,
      "d": 156.24968750000698,
      "v": 102
    },
    {
      "midi": 40,
      "hit": false,
      "t": 249193.05000002545,
      "d": 65.52406250001513,
      "v": 91
    },
    {
      "midi": 35,
      "hit": false,
      "t": 249193.05000002545,
      "d": 90.72562500002095,
      "v": 86
    },
    {
      "midi": 55,
      "hit": false,
      "t": 249193.05000002545,
      "d": 181.4512500000419,
      "v": 96
    },
    {
      "midi": 44,
      "hit": false,
      "t": 249198.09031252546,
      "d": 5.040312500001164,
      "v": 71
    },
    {
      "midi": 60,
      "hit": false,
      "t": 249203.13062502546,
      "d": 90.72562500002095,
      "v": 82
    },
    {
      "midi": 62,
      "hit": false,
      "t": 249314.01750002548,
      "d": 5.040312500001164,
      "v": 62
    },
    {
      "midi": 60,
      "hit": false,
      "t": 249314.01750002548,
      "d": 5.040312500001164,
      "v": 47
    },
    {
      "midi": 64,
      "hit": false,
      "t": 249324.09812502548,
      "d": 25.20156250000582,
      "v": 52
    },
    {
      "midi": 46,
      "hit": false,
      "t": 249434.9850000255,
      "d": 5.040312500001164,
      "v": 70
    },
    {
      "midi": 63,
      "hit": false,
      "t": 249434.9850000255,
      "d": 5.040312500001164,
      "v": 53
    },
    {
      "midi": 64,
      "hit": false,
      "t": 249555.9525000255,
      "d": 5.040312500001164,
      "v": 74
    },
    {
      "midi": 36,
      "hit": false,
      "t": 249555.9525000255,
      "d": 5.040312500001164,
      "v": 72
    },
    {
      "midi": 60,
      "hit": false,
      "t": 249555.9525000255,
      "d": 5.040312500001164,
      "v": 88
    },
    {
      "midi": 44,
      "hit": false,
      "t": 249676.9200000255,
      "d": 5.040312500001164,
      "v": 71
    },
    {
      "midi": 35,
      "hit": false,
      "t": 249676.9200000255,
      "d": 90.72562499999185,
      "v": 79
    },
    {
      "midi": 38,
      "hit": false,
      "t": 249676.9200000255,
      "d": 171.37062500001048,
      "v": 96
    },
    {
      "midi": 71,
      "hit": false,
      "t": 249676.9200000255,
      "d": 211.6931250000198,
      "v": 104
    },
    {
      "midi": 50,
      "hit": false,
      "t": 249676.9200000255,
      "d": 433.4668750000419,
      "v": 104
    },
    {
      "midi": 62,
      "hit": false,
      "t": 249797.8875000255,
      "d": 10.080625000002328,
      "v": 90
    },
    {
      "midi": 57,
      "hit": false,
      "t": 249797.8875000255,
      "d": 30.241875000006985,
      "v": 56
    },
    {
      "midi": 62,
      "hit": false,
      "t": 249807.9681250255,
      "d": 25.20156250000582,
      "v": 50
    },
    {
      "midi": 67,
      "hit": false,
      "t": 249818.0487500255,
      "d": 30.241875000006985,
      "v": 33
    },
    {
      "midi": 46,
      "hit": false,
      "t": 249913.81468752553,
      "d": 5.040312500001164,
      "v": 74
    },
    {
      "midi": 62,
      "hit": false,
      "t": 249918.85500002553,
      "d": 5.040312500001164,
      "v": 85
    },
    {
      "midi": 72,
      "hit": false,
      "t": 249918.85500002553,
      "d": 105.84656249999534,
      "v": 104
    },
    {
      "midi": 62,
      "hit": false,
      "t": 249928.93562502554,
      "d": 95.76593749999302,
      "v": 57
    },
    {
      "midi": 62,
      "hit": false,
      "t": 250039.82250002553,
      "d": 10.080625000002328,
      "v": 92
    },
    {
      "midi": 57,
      "hit": false,
      "t": 250039.82250002553,
      "d": 20.161250000004657,
      "v": 96
    },
    {
      "midi": 71,
      "hit": false,
      "t": 250039.82250002553,
      "d": 105.84656250002445,
      "v": 104
    },
    {
      "midi": 62,
      "hit": false,
      "t": 250049.90312502554,
      "d": 20.161250000004657,
      "v": 89
    },
    {
      "midi": 67,
      "hit": false,
      "t": 250059.98375002554,
      "d": 15.120937500003492,
      "v": 84
    },
    {
      "midi": 44,
      "hit": false,
      "t": 250160.79000002556,
      "d": 5.040312500001164,
      "v": 61
    },
    {
      "midi": 40,
      "hit": false,
      "t": 250160.79000002556,
      "d": 65.52406250001513,
      "v": 91
    },
    {
      "midi": 35,
      "hit": false,
      "t": 250160.79000002556,
      "d": 90.72562500002095,
      "v": 79
    },
    {
      "midi": 38,
      "hit": false,
      "t": 250160.79000002556,
      "d": 176.41093750004075,
      "v": 96
    },
    {
      "midi": 62,
      "hit": false,
      "t": 250281.7575000256,
      "d": 10.080625000002328,
      "v": 91
    },
    {
      "midi": 67,
      "hit": false,
      "t": 250281.7575000256,
      "d": 105.84656250002445,
      "v": 104
    },
    {
      "midi": 46,
      "hit": false,
      "t": 250397.68468752562,
      "d": 5.040312500001164,
      "v": 67
    },
    {
      "midi": 63,
      "hit": false,
      "t": 250402.72500002562,
      "d": 5.040312500001164,
      "v": 37
    },
    {
      "midi": 57,
      "hit": false,
      "t": 250402.72500002562,
      "d": 191.53187500001513,
      "v": 90
    },
    {
      "midi": 62,
      "hit": false,
      "t": 250412.80562502562,
      "d": 5.040312500001164,
      "v": 81
    },
    {
      "midi": 63,
      "hit": false,
      "t": 250523.69250002562,
      "d": 5.040312500001164,
      "v": 80
    },
    {
      "midi": 62,
      "hit": false,
      "t": 250523.69250002562,
      "d": 5.040312500001164,
      "v": 30
    },
    {
      "midi": 38,
      "hit": false,
      "t": 250523.69250002562,
      "d": 15.120937500003492,
      "v": 86
    },
    {
      "midi": 64,
      "hit": false,
      "t": 250523.69250002562,
      "d": 539.3134375000664,
      "v": 104
    },
    {
      "midi": 31,
      "hit": false,
      "t": 250528.73281252562,
      "d": 5.040312500001164,
      "v": 39
    },
    {
      "midi": 67,
      "hit": false,
      "t": 250533.77312502562,
      "d": 30.241875000006985,
      "v": 30
    },
    {
      "midi": 44,
      "hit": false,
      "t": 250644.66000002564,
      "d": 5.040312500001164,
      "v": 71
    },
    {
      "midi": 35,
      "hit": false,
      "t": 250644.66000002564,
      "d": 90.72562499999185,
      "v": 86
    },
    {
      "midi": 38,
      "hit": false,
      "t": 250644.66000002564,
      "d": 95.76593749999302,
      "v": 94
    },
    {
      "midi": 50,
      "hit": false,
      "t": 250644.66000002564,
      "d": 433.4668750000419,
      "v": 104
    },
    {
      "midi": 62,
      "hit": false,
      "t": 250765.62750002564,
      "d": 10.080625000002328,
      "v": 95
    },
    {
      "midi": 57,
      "hit": false,
      "t": 250765.62750002564,
      "d": 20.161250000004657,
      "v": 91
    },
    {
      "midi": 62,
      "hit": false,
      "t": 250775.70812502565,
      "d": 25.20156250000582,
      "v": 82
    },
    {
      "midi": 67,
      "hit": false,
      "t": 250785.78875002565,
      "d": 50.40312500001164,
      "v": 86
    },
    {
      "midi": 46,
      "hit": false,
      "t": 250881.55468752567,
      "d": 5.040312500001164,
      "v": 64
    },
    {
      "midi": 62,
      "hit": false,
      "t": 250886.59500002567,
      "d": 5.040312500001164,
      "v": 78
    },
    {
      "midi": 38,
      "hit": false,
      "t": 250886.59500002567,
      "d": 166.3303125000093,
      "v": 97
    },
    {
      "midi": 62,
      "hit": false,
      "t": 251007.56250002567,
      "d": 10.080625000002328,
      "v": 97
    },
    {
      "midi": 44,
      "hit": false,
      "t": 251128.5300000257,
      "d": 5.040312500001164,
      "v": 71
    },
    {
      "midi": 40,
      "hit": false,
      "t": 251128.5300000257,
      "d": 65.52406250001513,
      "v": 94
    },
    {
      "midi": 35,
      "hit": false,
      "t": 251128.5300000257,
      "d": 90.72562500002095,
      "v": 86
    },
    {
      "midi": 62,
      "hit": false,
      "t": 251249.49750002573,
      "d": 5.040312500001164,
      "v": 62
    },
    {
      "midi": 57,
      "hit": false,
      "t": 251249.49750002573,
      "d": 10.080625000002328,
      "v": 76
    },
    {
      "midi": 38,
      "hit": false,
      "t": 251249.49750002573,
      "d": 15.120937500003492,
      "v": 86
    },
    {
      "midi": 62,
      "hit": false,
      "t": 251259.57812502573,
      "d": 15.120937500003492,
      "v": 65
    },
    {
      "midi": 67,
      "hit": false,
      "t": 251269.65875002573,
      "d": 15.120937500003492,
      "v": 69
    },
    {
      "midi": 46,
      "hit": false,
      "t": 251370.46500002572,
      "d": 5.040312500001164,
      "v": 70
    },
    {
      "midi": 63,
      "hit": false,
      "t": 251370.46500002572,
      "d": 5.040312500001164,
      "v": 55
    },
    {
      "midi": 62,
      "hit": false,
      "t": 251370.46500002572,
      "d": 105.84656249999534,
      "v": 63
    },
    {
      "midi": 33,
      "hit": false,
      "t": 251370.46500002572,
      "d": 196.5721874999872,
      "v": 83
    },
    {
      "midi": 63,
      "hit": false,
      "t": 251491.43250002572,
      "d": 5.040312500001164,
      "v": 70
    },
    {
      "midi": 62,
      "hit": false,
      "t": 251491.43250002572,
      "d": 5.040312500001164,
      "v": 92
    },
    {
      "midi": 44,
      "hit": false,
      "t": 251612.40000002572,
      "d": 5.040312500001164,
      "v": 71
    },
    {
      "midi": 59,
      "hit": false,
      "t": 251612.40000002572,
      "d": 5.040312500001164,
      "v": 94
    },
    {
      "midi": 35,
      "hit": false,
      "t": 251612.40000002572,
      "d": 90.72562499999185,
      "v": 87
    },
    {
      "midi": 28,
      "hit": false,
      "t": 251612.40000002572,
      "d": 176.41093750001164,
      "v": 101
    },
    {
      "midi": 52,
      "hit": false,
      "t": 251612.40000002572,
      "d": 433.4668750000128,
      "v": 104
    },
    {
      "midi": 66,
      "hit": false,
      "t": 251612.40000002572,
      "d": 866.9337500000256,
      "v": 104
    },
    {
      "midi": 59,
      "hit": false,
      "t": 251733.36750002572,
      "d": 30.241875000006985,
      "v": 46
    },
    {
      "midi": 64,
      "hit": false,
      "t": 251743.44812502572,
      "d": 30.241875000006985,
      "v": 26
    },
    {
      "midi": 46,
      "hit": false,
      "t": 251854.33500002572,
      "d": 5.040312500001164,
      "v": 70
    },
    {
      "midi": 62,
      "hit": false,
      "t": 251854.33500002572,
      "d": 5.040312500001164,
      "v": 63
    },
    {
      "midi": 59,
      "hit": false,
      "t": 251854.33500002572,
      "d": 5.040312500001164,
      "v": 85
    },
    {
      "midi": 55,
      "hit": false,
      "t": 251975.30250002572,
      "d": 20.161250000004657,
      "v": 77
    },
    {
      "midi": 59,
      "hit": false,
      "t": 251985.38312502572,
      "d": 25.20156250000582,
      "v": 73
    },
    {
      "midi": 64,
      "hit": false,
      "t": 251995.46375002572,
      "d": 20.161250000004657,
      "v": 85
    },
    {
      "midi": 44,
      "hit": false,
      "t": 252096.27000002575,
      "d": 5.040312500001164,
      "v": 64
    },
    {
      "midi": 40,
      "hit": false,
      "t": 252096.27000002575,
      "d": 75.60468749998836,
      "v": 94
    },
    {
      "midi": 35,
      "hit": false,
      "t": 252096.27000002575,
      "d": 90.72562499999185,
      "v": 87
    },
    {
      "midi": 59,
      "hit": false,
      "t": 252096.27000002575,
      "d": 105.84656249999534,
      "v": 94
    },
    {
      "midi": 28,
      "hit": false,
      "t": 252096.27000002575,
      "d": 166.3303125000093,
      "v": 99
    },
    {
      "midi": 59,
      "hit": false,
      "t": 252217.23750002575,
      "d": 5.040312500001164,
      "v": 100
    },
    {
      "midi": 63,
      "hit": false,
      "t": 252333.16468752574,
      "d": 5.040312500001164,
      "v": 46
    },
    {
      "midi": 46,
      "hit": false,
      "t": 252338.20500002574,
      "d": 5.040312500001164,
      "v": 70
    },
    {
      "midi": 59,
      "hit": false,
      "t": 252459.17250002574,
      "d": 5.040312500001164,
      "v": 88
    },
    {
      "midi": 55,
      "hit": false,
      "t": 252459.17250002574,
      "d": 20.161250000004657,
      "v": 51
    },
    {
      "midi": 31,
      "hit": false,
      "t": 252464.21281252574,
      "d": 5.040312500001164,
      "v": 28
    },
    {
      "midi": 59,
      "hit": false,
      "t": 252469.25312502575,
      "d": 20.161250000004657,
      "v": 46
    },
    {
      "midi": 63,
      "hit": false,
      "t": 252474.29343752575,
      "d": 5.040312500001164,
      "v": 85
    },
    {
      "midi": 64,
      "hit": false,
      "t": 252479.33375002575,
      "d": 20.161250000004657,
      "v": 38
    },
    {
      "midi": 44,
      "hit": false,
      "t": 252580.14000002577,
      "d": 5.040312500001164,
      "v": 64
    },
    {
      "midi": 59,
      "hit": false,
      "t": 252580.14000002577,
      "d": 5.040312500001164,
      "v": 94
    },
    {
      "midi": 35,
      "hit": false,
      "t": 252580.14000002577,
      "d": 95.76593749999302,
      "v": 87
    },
    {
      "midi": 28,
      "hit": false,
      "t": 252580.14000002577,
      "d": 115.92718749999767,
      "v": 94
    },
    {
      "midi": 52,
      "hit": false,
      "t": 252580.14000002577,
      "d": 433.4668750000128,
      "v": 104
    },
    {
      "midi": 71,
      "hit": false,
      "t": 252580.14000002577,
      "d": 650.2003125000629,
      "v": 104
    },
    {
      "midi": 55,
      "hit": false,
      "t": 252701.10750002577,
      "d": 10.080625000002328,
      "v": 64
    },
    {
      "midi": 31,
      "hit": false,
      "t": 252706.14781252577,
      "d": 5.040312500001164,
      "v": 39
    },
    {
      "midi": 59,
      "hit": false,
      "t": 252711.18812502577,
      "d": 20.161250000004657,
      "v": 58
    },
    {
      "midi": 64,
      "hit": false,
      "t": 252721.26875002577,
      "d": 20.161250000004657,
      "v": 69
    },
    {
      "midi": 62,
      "hit": false,
      "t": 252817.03468752577,
      "d": 5.040312500001164,
      "v": 85
    },
    {
      "midi": 46,
      "hit": false,
      "t": 252822.07500002577,
      "d": 5.040312500001164,
      "v": 70
    },
    {
      "midi": 59,
      "hit": false,
      "t": 252822.07500002577,
      "d": 5.040312500001164,
      "v": 93
    },
    {
      "midi": 28,
      "hit": false,
      "t": 252822.07500002577,
      "d": 156.24968750000698,
      "v": 102
    },
    {
      "midi": 44,
      "hit": false,
      "t": 253064.0100000258,
      "d": 5.040312500001164,
      "v": 64
    },
    {
      "midi": 40,
      "hit": false,
      "t": 253064.0100000258,
      "d": 60.48375000001397,
      "v": 94
    },
    {
      "midi": 35,
      "hit": false,
      "t": 253064.0100000258,
      "d": 95.76593750002212,
      "v": 87
    },
    {
      "midi": 59,
      "hit": false,
      "t": 253074.0906250258,
      "d": 95.76593750002212,
      "v": 76
    },
    {
      "midi": 62,
      "hit": false,
      "t": 253179.93718752582,
      "d": 5.040312500001164,
      "v": 58
    },
    {
      "midi": 59,
      "hit": false,
      "t": 253184.97750002582,
      "d": 5.040312500001164,
      "v": 100
    },
    {
      "midi": 55,
      "hit": false,
      "t": 253184.97750002582,
      "d": 20.161250000004657,
      "v": 70
    },
    {
      "midi": 59,
      "hit": false,
      "t": 253195.05812502583,
      "d": 20.161250000004657,
      "v": 57
    },
    {
      "midi": 64,
      "hit": false,
      "t": 253205.13875002583,
      "d": 20.161250000004657,
      "v": 66
    },
    {
      "midi": 63,
      "hit": false,
      "t": 253300.90468752582,
      "d": 5.040312500001164,
      "v": 55
    },
    {
      "midi": 46,
      "hit": false,
      "t": 253305.94500002582,
      "d": 5.040312500001164,
      "v": 70
    },
    {
      "midi": 69,
      "hit": false,
      "t": 253305.94500002582,
      "d": 105.84656249999534,
      "v": 104
    },
    {
      "midi": 64,
      "hit": false,
      "t": 253426.91250002582,
      "d": 5.040312500001164,
      "v": 78
    },
    {
      "midi": 40,
      "hit": false,
      "t": 253426.91250002582,
      "d": 5.040312500001164,
      "v": 72
    },
    {
      "midi": 59,
      "hit": false,
      "t": 253426.91250002582,
      "d": 5.040312500001164,
      "v": 92
    },
    {
      "midi": 29,
      "hit": false,
      "t": 253426.91250002582,
      "d": 95.76593749999302,
      "v": 52
    },
    {
      "midi": 67,
      "hit": false,
      "t": 253426.91250002582,
      "d": 105.84656249999534,
      "v": 104
    },
    {
      "midi": 44,
      "hit": false,
      "t": 253547.88000002582,
      "d": 5.040312500001164,
      "v": 64
    },
    {
      "midi": 35,
      "hit": false,
      "t": 253547.88000002582,
      "d": 105.84656249999534,
      "v": 87
    },
    {
      "midi": 37,
      "hit": false,
      "t": 253547.88000002582,
      "d": 171.37062500001048,
      "v": 96
    },
    {
      "midi": 49,
      "hit": false,
      "t": 253547.88000002582,
      "d": 433.4668750000419,
      "v": 104
    },
    {
      "midi": 66,
      "hit": false,
      "t": 253547.88000002582,
      "d": 650.2003125000629,
      "v": 104
    },
    {
      "midi": 61,
      "hit": false,
      "t": 253668.84750002582,
      "d": 5.040312500001164,
      "v": 85
    },
    {
      "midi": 57,
      "hit": false,
      "t": 253668.84750002582,
      "d": 15.120937500003492,
      "v": 35
    },
    {
      "midi": 61,
      "hit": false,
      "t": 253678.92812502582,
      "d": 15.120937500003492,
      "v": 38
    },
    {
      "midi": 64,
      "hit": false,
      "t": 253689.00875002582,
      "d": 15.120937500003492,
      "v": 38
    },
    {
      "midi": 62,
      "hit": false,
      "t": 253774.69406252584,
      "d": 5.040312500001164,
      "v": 77
    },
    {
      "midi": 46,
      "hit": false,
      "t": 253784.77468752585,
      "d": 5.040312500001164,
      "v": 69
    },
    {
      "midi": 61,
      "hit": false,
      "t": 253799.89562502585,
      "d": 95.76593749999302,
      "v": 54
    },
    {
      "midi": 61,
      "hit": false,
      "t": 253910.78250002585,
      "d": 10.080625000002328,
      "v": 88
    },
    {
      "midi": 57,
      "hit": false,
      "t": 253910.78250002585,
      "d": 20.161250000004657,
      "v": 89
    },
    {
      "midi": 61,
      "hit": false,
      "t": 253920.86312502585,
      "d": 20.161250000004657,
      "v": 76
    },
    {
      "midi": 64,
      "hit": false,
      "t": 253930.94375002585,
      "d": 5.040312500001164,
      "v": 90
    },
    {
      "midi": 44,
      "hit": false,
      "t": 254026.70968752587,
      "d": 5.040312500001164,
      "v": 71
    },
    {
      "midi": 40,
      "hit": false,
      "t": 254031.75000002587,
      "d": 70.5643749999872,
      "v": 94
    },
    {
      "midi": 35,
      "hit": false,
      "t": 254031.75000002587,
      "d": 105.84656249999534,
      "v": 87
    },
    {
      "midi": 37,
      "hit": false,
      "t": 254031.75000002587,
      "d": 176.41093750001164,
      "v": 96
    },
    {
      "midi": 61,
      "hit": false,
      "t": 254152.71750002587,
      "d": 10.080625000002328,
      "v": 88
    },
    {
      "midi": 63,
      "hit": false,
      "t": 254258.5640625259,
      "d": 5.040312500001164,
      "v": 55
    },
    {
      "midi": 46,
      "hit": false,
      "t": 254273.6850000259,
      "d": 5.040312500001164,
      "v": 61
    },
    {
      "midi": 67,
      "hit": false,
      "t": 254273.6850000259,
      "d": 650.2003125000338,
      "v": 104
    },
    {
      "midi": 61,
      "hit": false,
      "t": 254283.7656250259,
      "d": 95.76593749999302,
      "v": 78
    },
    {
      "midi": 63,
      "hit": false,
      "t": 254394.6525000259,
      "d": 5.040312500001164,
      "v": 88
    },
    {
      "midi": 57,
      "hit": false,
      "t": 254394.6525000259,
      "d": 10.080625000002328,
      "v": 48
    },
    {
      "midi": 61,
      "hit": false,
      "t": 254394.6525000259,
      "d": 10.080625000002328,
      "v": 92
    },
    {
      "midi": 37,
      "hit": false,
      "t": 254394.6525000259,
      "d": 15.120937500003492,
      "v": 86
    },
    {
      "midi": 31,
      "hit": false,
      "t": 254399.6928125259,
      "d": 5.040312500001164,
      "v": 39
    },
    {
      "midi": 61,
      "hit": false,
      "t": 254404.7331250259,
      "d": 110.88687500002561,
      "v": 60
    },
    {
      "midi": 64,
      "hit": false,
      "t": 254414.8137500259,
      "d": 10.080625000002328,
      "v": 52
    },
    {
      "midi": 44,
      "hit": false,
      "t": 254515.62000002593,
      "d": 5.040312500001164,
      "v": 64
    },
    {
      "midi": 61,
      "hit": false,
      "t": 254515.62000002593,
      "d": 5.040312500001164,
      "v": 40
    },
    {
      "midi": 35,
      "hit": false,
      "t": 254515.62000002593,
      "d": 90.72562499999185,
      "v": 86
    },
    {
      "midi": 37,
      "hit": false,
      "t": 254515.62000002593,
      "d": 95.76593749999302,
      "v": 94
    },
    {
      "midi": 49,
      "hit": false,
      "t": 254515.62000002593,
      "d": 433.4668750000128,
      "v": 104
    },
    {
      "midi": 31,
      "hit": false,
      "t": 254636.58750002593,
      "d": 5.040312500001164,
      "v": 30
    },
    {
      "midi": 57,
      "hit": false,
      "t": 254636.58750002593,
      "d": 10.080625000002328,
      "v": 66
    },
    {
      "midi": 61,
      "hit": false,
      "t": 254636.58750002593,
      "d": 10.080625000002328,
      "v": 91
    },
    {
      "midi": 61,
      "hit": false,
      "t": 254646.66812502593,
      "d": 25.20156250000582,
      "v": 58
    },
    {
      "midi": 64,
      "hit": false,
      "t": 254656.74875002593,
      "d": 20.161250000004657,
      "v": 68
    },
    {
      "midi": 62,
      "hit": false,
      "t": 254752.51468752592,
      "d": 5.040312500001164,
      "v": 68
    },
    {
      "midi": 46,
      "hit": false,
      "t": 254757.55500002592,
      "d": 5.040312500001164,
      "v": 70
    },
    {
      "midi": 61,
      "hit": false,
      "t": 254757.55500002592,
      "d": 105.84656249999534,
      "v": 79
    },
    {
      "midi": 37,
      "hit": false,
      "t": 254757.55500002592,
      "d": 166.3303125000093,
      "v": 97
    },
    {
      "midi": 61,
      "hit": false,
      "t": 254878.52250002592,
      "d": 10.080625000002328,
      "v": 91
    },
    {
      "midi": 40,
      "hit": false,
      "t": 254999.49000002595,
      "d": 65.52406250001513,
      "v": 91
    },
    {
      "midi": 35,
      "hit": false,
      "t": 254999.49000002595,
      "d": 90.72562500002095,
      "v": 86
    },
    {
      "midi": 69,
      "hit": false,
      "t": 254999.49000002595,
      "d": 433.4668750000419,
      "v": 104
    },
    {
      "midi": 44,
      "hit": false,
      "t": 255004.53031252595,
      "d": 5.040312500001164,
      "v": 71
    },
    {
      "midi": 61,
      "hit": false,
      "t": 255120.45750002598,
      "d": 10.080625000002328,
      "v": 93
    },
    {
      "midi": 37,
      "hit": false,
      "t": 255120.45750002598,
      "d": 15.120937500003492,
      "v": 86
    },
    {
      "midi": 57,
      "hit": false,
      "t": 255120.45750002598,
      "d": 30.241875000006985,
      "v": 43
    },
    {
      "midi": 61,
      "hit": false,
      "t": 255130.53812502598,
      "d": 25.20156250000582,
      "v": 75
    },
    {
      "midi": 62,
      "hit": false,
      "t": 255135.57843752598,
      "d": 5.040312500001164,
      "v": 56
    },
    {
      "midi": 64,
      "hit": false,
      "t": 255140.61875002598,
      "d": 25.20156250000582,
      "v": 60
    },
    {
      "midi": 46,
      "hit": false,
      "t": 255241.42500002598,
      "d": 5.040312500001164,
      "v": 70
    },
    {
      "midi": 61,
      "hit": false,
      "t": 255241.42500002598,
      "d": 15.120937500003492,
      "v": 58
    },
    {
      "midi": 37,
      "hit": false,
      "t": 255241.42500002598,
      "d": 196.5721875000163,
      "v": 83
    },
    {
      "midi": 64,
      "hit": false,
      "t": 255251.50562502598,
      "d": 5.040312500001164,
      "v": 56
    },
    {
      "midi": 61,
      "hit": false,
      "t": 255362.39250002598,
      "d": 5.040312500001164,
      "v": 92
    },
    {
      "midi": 63,
      "hit": false,
      "t": 255382.55375002598,
      "d": 5.040312500001164,
      "v": 80
    },
    {
      "midi": 44,
      "hit": false,
      "t": 255483.360000026,
      "d": 5.040312500001164,
      "v": 64
    },
    {
      "midi": 60,
      "hit": false,
      "t": 255483.360000026,
      "d": 5.040312500001164,
      "v": 85
    },
    {
      "midi": 35,
      "hit": false,
      "t": 255483.360000026,
      "d": 105.84656249999534,
      "v": 87
    },
    {
      "midi": 36,
      "hit": false,
      "t": 255483.360000026,
      "d": 176.41093750001164,
      "v": 101
    },
    {
      "midi": 71,
      "hit": false,
      "t": 255483.360000026,
      "d": 211.6931250000198,
      "v": 104
    },
    {
      "midi": 48,
      "hit": false,
      "t": 255483.360000026,
      "d": 433.4668750000419,
      "v": 104
    },
    {
      "midi": 55,
      "hit": false,
      "t": 255604.327500026,
      "d": 30.241875000006985,
      "v": 56
    },
    {
      "midi": 60,
      "hit": false,
      "t": 255614.408125026,
      "d": 25.20156250000582,
      "v": 50
    },
    {
      "midi": 64,
      "hit": false,
      "t": 255624.488750026,
      "d": 30.241875000006985,
      "v": 33
    },
    {
      "midi": 46,
      "hit": false,
      "t": 255720.25468752603,
      "d": 5.040312500001164,
      "v": 69
    },
    {
      "midi": 62,
      "hit": false,
      "t": 255725.29500002603,
      "d": 5.040312500001164,
      "v": 91
    },
    {
      "midi": 60,
      "hit": false,
      "t": 255725.29500002603,
      "d": 5.040312500001164,
      "v": 94
    },
    {
      "midi": 72,
      "hit": false,
      "t": 255725.29500002603,
      "d": 105.84656249999534,
      "v": 104
    },
    {
      "midi": 55,
      "hit": false,
      "t": 255846.26250002603,
      "d": 20.161250000004657,
      "v": 96
    },
    {
      "midi": 71,
      "hit": false,
      "t": 255846.26250002603,
      "d": 105.84656250002445,
      "v": 104
    },
    {
      "midi": 60,
      "hit": false,
      "t": 255856.34312502603,
      "d": 20.161250000004657,
      "v": 89
    },
    {
      "midi": 64,
      "hit": false,
      "t": 255866.42375002604,
      "d": 15.120937500003492,
      "v": 84
    },
    {
      "midi": 44,
      "hit": false,
      "t": 255962.18968752606,
      "d": 5.040312500001164,
      "v": 71
    },
    {
      "midi": 40,
      "hit": false,
      "t": 255967.23000002606,
      "d": 70.5643749999872,
      "v": 94
    },
    {
      "midi": 60,
      "hit": false,
      "t": 255967.23000002606,
      "d": 85.68531249999069,
      "v": 100
    },
    {
      "midi": 35,
      "hit": false,
      "t": 255967.23000002606,
      "d": 105.84656249999534,
      "v": 87
    },
    {
      "midi": 36,
      "hit": false,
      "t": 255967.23000002606,
      "d": 166.3303125000093,
      "v": 99
    },
    {
      "midi": 60,
      "hit": false,
      "t": 256088.19750002606,
      "d": 10.080625000002328,
      "v": 100
    },
    {
      "midi": 67,
      "hit": false,
      "t": 256088.19750002606,
      "d": 105.84656250002445,
      "v": 104
    },
    {
      "midi": 46,
      "hit": false,
      "t": 256209.16500002609,
      "d": 5.040312500001164,
      "v": 61
    },
    {
      "midi": 63,
      "hit": false,
      "t": 256209.16500002609,
      "d": 5.040312500001164,
      "v": 47
    },
    {
      "midi": 63,
      "hit": false,
      "t": 256330.13250002608,
      "d": 5.040312500001164,
      "v": 85
    },
    {
      "midi": 60,
      "hit": false,
      "t": 256330.13250002608,
      "d": 5.040312500001164,
      "v": 95
    },
    {
      "midi": 55,
      "hit": false,
      "t": 256330.13250002608,
      "d": 15.120937500003492,
      "v": 36
    },
    {
      "midi": 31,
      "hit": false,
      "t": 256335.17281252609,
      "d": 5.040312500001164,
      "v": 42
    },
    {
      "midi": 60,
      "hit": false,
      "t": 256340.2131250261,
      "d": 15.120937500003492,
      "v": 46
    },
    {
      "midi": 64,
      "hit": false,
      "t": 256350.2937500261,
      "d": 15.120937500003492,
      "v": 30
    },
    {
      "midi": 44,
      "hit": false,
      "t": 256451.1000000261,
      "d": 5.040312500001164,
      "v": 64
    },
    {
      "midi": 60,
      "hit": false,
      "t": 256451.1000000261,
      "d": 5.040312500001164,
      "v": 92
    },
    {
      "midi": 35,
      "hit": false,
      "t": 256451.1000000261,
      "d": 90.72562499999185,
      "v": 86
    },
    {
      "midi": 55,
      "hit": false,
      "t": 256451.1000000261,
      "d": 95.76593749999302,
      "v": 13
    },
    {
      "midi": 36,
      "hit": false,
      "t": 256451.1000000261,
      "d": 115.92718749999767,
      "v": 94
    },
    {
      "midi": 48,
      "hit": false,
      "t": 256451.1000000261,
      "d": 433.4668750000128,
      "v": 104
    },
    {
      "midi": 31,
      "hit": false,
      "t": 256572.0675000261,
      "d": 5.040312500001164,
      "v": 39
    },
    {
      "midi": 60,
      "hit": false,
      "t": 256572.0675000261,
      "d": 5.040312500001164,
      "v": 94
    },
    {
      "midi": 55,
      "hit": false,
      "t": 256572.0675000261,
      "d": 20.161250000004657,
      "v": 80
    },
    {
      "midi": 60,
      "hit": false,
      "t": 256582.1481250261,
      "d": 20.161250000004657,
      "v": 68
    },
    {
      "midi": 64,
      "hit": false,
      "t": 256592.22875002612,
      "d": 20.161250000004657,
      "v": 75
    },
    {
      "midi": 46,
      "hit": false,
      "t": 256693.0350000261,
      "d": 5.040312500001164,
      "v": 70
    },
    {
      "midi": 62,
      "hit": false,
      "t": 256693.0350000261,
      "d": 5.040312500001164,
      "v": 85
    },
    {
      "midi": 60,
      "hit": false,
      "t": 256693.0350000261,
      "d": 5.040312500001164,
      "v": 94
    },
    {
      "midi": 36,
      "hit": false,
      "t": 256693.0350000261,
      "d": 156.24968750000698,
      "v": 102
    },
    {
      "midi": 40,
      "hit": false,
      "t": 256934.97000002614,
      "d": 65.52406250001513,
      "v": 91
    },
    {
      "midi": 35,
      "hit": false,
      "t": 256934.97000002614,
      "d": 90.72562500002095,
      "v": 86
    },
    {
      "midi": 55,
      "hit": false,
      "t": 256934.97000002614,
      "d": 181.4512500000419,
      "v": 96
    },
    {
      "midi": 44,
      "hit": false,
      "t": 256940.01031252614,
      "d": 5.040312500001164,
      "v": 71
    },
    {
      "midi": 60,
      "hit": false,
      "t": 256945.05062502614,
      "d": 90.72562500002095,
      "v": 82
    },
    {
      "midi": 62,
      "hit": false,
      "t": 257055.93750002616,
      "d": 5.040312500001164,
      "v": 62
    },
    {
      "midi": 60,
      "hit": false,
      "t": 257055.93750002616,
      "d": 5.040312500001164,
      "v": 47
    },
    {
      "midi": 64,
      "hit": false,
      "t": 257066.01812502617,
      "d": 25.20156250000582,
      "v": 52
    },
    {
      "midi": 46,
      "hit": false,
      "t": 257176.9050000262,
      "d": 5.040312500001164,
      "v": 70
    },
    {
      "midi": 63,
      "hit": false,
      "t": 257176.9050000262,
      "d": 5.040312500001164,
      "v": 53
    },
    {
      "midi": 64,
      "hit": false,
      "t": 257297.8725000262,
      "d": 5.040312500001164,
      "v": 74
    },
    {
      "midi": 36,
      "hit": false,
      "t": 257297.8725000262,
      "d": 5.040312500001164,
      "v": 72
    },
    {
      "midi": 60,
      "hit": false,
      "t": 257297.8725000262,
      "d": 5.040312500001164,
      "v": 88
    },
    {
      "midi": 44,
      "hit": false,
      "t": 257418.8400000262,
      "d": 5.040312500001164,
      "v": 71
    },
    {
      "midi": 35,
      "hit": false,
      "t": 257418.8400000262,
      "d": 90.72562499999185,
      "v": 79
    },
    {
      "midi": 38,
      "hit": false,
      "t": 257418.8400000262,
      "d": 171.37062500001048,
      "v": 96
    },
    {
      "midi": 71,
      "hit": false,
      "t": 257418.8400000262,
      "d": 211.6931250000198,
      "v": 104
    },
    {
      "midi": 52,
      "hit": false,
      "t": 257418.8400000262,
      "d": 433.4668750000419,
      "v": 104
    },
    {
      "midi": 62,
      "hit": false,
      "t": 257539.8075000262,
      "d": 10.080625000002328,
      "v": 90
    },
    {
      "midi": 57,
      "hit": false,
      "t": 257539.8075000262,
      "d": 30.241875000006985,
      "v": 56
    },
    {
      "midi": 62,
      "hit": false,
      "t": 257549.8881250262,
      "d": 25.20156250000582,
      "v": 50
    },
    {
      "midi": 67,
      "hit": false,
      "t": 257559.9687500262,
      "d": 30.241875000006985,
      "v": 33
    },
    {
      "midi": 46,
      "hit": false,
      "t": 257655.73468752622,
      "d": 5.040312500001164,
      "v": 74
    },
    {
      "midi": 62,
      "hit": false,
      "t": 257660.77500002622,
      "d": 5.040312500001164,
      "v": 85
    },
    {
      "midi": 72,
      "hit": false,
      "t": 257660.77500002622,
      "d": 105.84656249999534,
      "v": 104
    },
    {
      "midi": 62,
      "hit": false,
      "t": 257670.85562502622,
      "d": 95.76593749999302,
      "v": 57
    },
    {
      "midi": 62,
      "hit": false,
      "t": 257781.74250002622,
      "d": 10.080625000002328,
      "v": 92
    },
    {
      "midi": 57,
      "hit": false,
      "t": 257781.74250002622,
      "d": 20.161250000004657,
      "v": 96
    },
    {
      "midi": 71,
      "hit": false,
      "t": 257781.74250002622,
      "d": 105.84656250002445,
      "v": 104
    },
    {
      "midi": 62,
      "hit": false,
      "t": 257791.82312502622,
      "d": 20.161250000004657,
      "v": 89
    },
    {
      "midi": 67,
      "hit": false,
      "t": 257801.90375002622,
      "d": 15.120937500003492,
      "v": 84
    },
    {
      "midi": 44,
      "hit": false,
      "t": 257902.71000002624,
      "d": 5.040312500001164,
      "v": 61
    },
    {
      "midi": 40,
      "hit": false,
      "t": 257902.71000002624,
      "d": 65.52406250001513,
      "v": 91
    },
    {
      "midi": 35,
      "hit": false,
      "t": 257902.71000002624,
      "d": 90.72562500002095,
      "v": 79
    },
    {
      "midi": 38,
      "hit": false,
      "t": 257902.71000002624,
      "d": 176.41093750004075,
      "v": 96
    },
    {
      "midi": 45,
      "hit": false,
      "t": 257902.71000002624,
      "d": 433.466875000071,
      "v": 104
    },
    {
      "midi": 62,
      "hit": false,
      "t": 258023.67750002627,
      "d": 10.080625000002328,
      "v": 91
    },
    {
      "midi": 67,
      "hit": false,
      "t": 258023.67750002627,
      "d": 105.84656250002445,
      "v": 104
    },
    {
      "midi": 46,
      "hit": false,
      "t": 258139.6046875263,
      "d": 5.040312500001164,
      "v": 67
    },
    {
      "midi": 63,
      "hit": false,
      "t": 258144.6450000263,
      "d": 5.040312500001164,
      "v": 37
    },
    {
      "midi": 57,
      "hit": false,
      "t": 258144.6450000263,
      "d": 236.8946875000256,
      "v": 90
    },
    {
      "midi": 62,
      "hit": false,
      "t": 258154.7256250263,
      "d": 5.040312500001164,
      "v": 81
    },
    {
      "midi": 63,
      "hit": false,
      "t": 258265.6125000263,
      "d": 5.040312500001164,
      "v": 80
    },
    {
      "midi": 62,
      "hit": false,
      "t": 258265.6125000263,
      "d": 5.040312500001164,
      "v": 30
    },
    {
      "midi": 38,
      "hit": false,
      "t": 258265.6125000263,
      "d": 15.120937500003492,
      "v": 86
    },
    {
      "midi": 64,
      "hit": false,
      "t": 258265.6125000263,
      "d": 539.3134375000664,
      "v": 104
    },
    {
      "midi": 31,
      "hit": false,
      "t": 258270.6528125263,
      "d": 5.040312500001164,
      "v": 39
    },
    {
      "midi": 67,
      "hit": false,
      "t": 258275.6931250263,
      "d": 30.241875000006985,
      "v": 30
    },
    {
      "midi": 44,
      "hit": false,
      "t": 258386.58000002633,
      "d": 5.040312500001164,
      "v": 71
    },
    {
      "midi": 35,
      "hit": false,
      "t": 258386.58000002633,
      "d": 90.72562499999185,
      "v": 86
    },
    {
      "midi": 38,
      "hit": false,
      "t": 258386.58000002633,
      "d": 95.76593749999302,
      "v": 94
    },
    {
      "midi": 52,
      "hit": false,
      "t": 258386.58000002633,
      "d": 433.4668750000419,
      "v": 104
    },
    {
      "midi": 62,
      "hit": false,
      "t": 258507.54750002632,
      "d": 10.080625000002328,
      "v": 95
    },
    {
      "midi": 57,
      "hit": false,
      "t": 258507.54750002632,
      "d": 20.161250000004657,
      "v": 91
    },
    {
      "midi": 62,
      "hit": false,
      "t": 258517.62812502633,
      "d": 25.20156250000582,
      "v": 82
    },
    {
      "midi": 67,
      "hit": false,
      "t": 258527.70875002633,
      "d": 50.40312500001164,
      "v": 86
    },
    {
      "midi": 46,
      "hit": false,
      "t": 258623.47468752635,
      "d": 5.040312500001164,
      "v": 64
    },
    {
      "midi": 62,
      "hit": false,
      "t": 258628.51500002635,
      "d": 5.040312500001164,
      "v": 78
    },
    {
      "midi": 38,
      "hit": false,
      "t": 258628.51500002635,
      "d": 166.3303125000093,
      "v": 97
    },
    {
      "midi": 62,
      "hit": false,
      "t": 258749.48250002635,
      "d": 10.080625000002328,
      "v": 97
    },
    {
      "midi": 44,
      "hit": false,
      "t": 258870.45000002638,
      "d": 5.040312500001164,
      "v": 71
    },
    {
      "midi": 40,
      "hit": false,
      "t": 258870.45000002638,
      "d": 65.52406250001513,
      "v": 94
    },
    {
      "midi": 35,
      "hit": false,
      "t": 258870.45000002638,
      "d": 90.72562500002095,
      "v": 86
    },
    {
      "midi": 45,
      "hit": false,
      "t": 258870.45000002638,
      "d": 433.4668750000128,
      "v": 104
    },
    {
      "midi": 62,
      "hit": false,
      "t": 258991.4175000264,
      "d": 5.040312500001164,
      "v": 62
    },
    {
      "midi": 57,
      "hit": false,
      "t": 258991.4175000264,
      "d": 10.080625000002328,
      "v": 76
    },
    {
      "midi": 38,
      "hit": false,
      "t": 258991.4175000264,
      "d": 15.120937500003492,
      "v": 86
    },
    {
      "midi": 62,
      "hit": false,
      "t": 259001.4981250264,
      "d": 15.120937500003492,
      "v": 65
    },
    {
      "midi": 67,
      "hit": false,
      "t": 259011.5787500264,
      "d": 15.120937500003492,
      "v": 69
    },
    {
      "midi": 46,
      "hit": false,
      "t": 259112.3850000264,
      "d": 5.040312500001164,
      "v": 70
    },
    {
      "midi": 63,
      "hit": false,
      "t": 259112.3850000264,
      "d": 5.040312500001164,
      "v": 55
    },
    {
      "midi": 62,
      "hit": false,
      "t": 259112.3850000264,
      "d": 105.84656249999534,
      "v": 63
    },
    {
      "midi": 33,
      "hit": false,
      "t": 259112.3850000264,
      "d": 196.5721874999872,
      "v": 83
    },
    {
      "midi": 63,
      "hit": false,
      "t": 259233.3525000264,
      "d": 5.040312500001164,
      "v": 70
    },
    {
      "midi": 62,
      "hit": false,
      "t": 259233.3525000264,
      "d": 5.040312500001164,
      "v": 92
    },
    {
      "midi": 44,
      "hit": false,
      "t": 259354.3200000264,
      "d": 5.040312500001164,
      "v": 71
    },
    {
      "midi": 59,
      "hit": false,
      "t": 259354.3200000264,
      "d": 5.040312500001164,
      "v": 94
    },
    {
      "midi": 35,
      "hit": false,
      "t": 259354.3200000264,
      "d": 90.72562499999185,
      "v": 87
    },
    {
      "midi": 31,
      "hit": false,
      "t": 259354.3200000264,
      "d": 176.41093750001164,
      "v": 101
    },
    {
      "midi": 43,
      "hit": false,
      "t": 259354.3200000264,
      "d": 433.4668750000128,
      "v": 104
    },
    {
      "midi": 59,
      "hit": false,
      "t": 259475.2875000264,
      "d": 30.241875000006985,
      "v": 46
    },
    {
      "midi": 62,
      "hit": false,
      "t": 259485.3681250264,
      "d": 30.241875000006985,
      "v": 26
    },
    {
      "midi": 46,
      "hit": false,
      "t": 259596.2550000264,
      "d": 5.040312500001164,
      "v": 70
    },
    {
      "midi": 62,
      "hit": false,
      "t": 259596.2550000264,
      "d": 5.040312500001164,
      "v": 63
    },
    {
      "midi": 59,
      "hit": false,
      "t": 259596.2550000264,
      "d": 5.040312500001164,
      "v": 85
    },
    {
      "midi": 55,
      "hit": false,
      "t": 259717.2225000264,
      "d": 20.161250000004657,
      "v": 77
    },
    {
      "midi": 59,
      "hit": false,
      "t": 259727.3031250264,
      "d": 25.20156250000582,
      "v": 73
    },
    {
      "midi": 62,
      "hit": false,
      "t": 259737.3837500264,
      "d": 20.161250000004657,
      "v": 85
    },
    {
      "midi": 44,
      "hit": false,
      "t": 259838.19000002643,
      "d": 5.040312500001164,
      "v": 64
    },
    {
      "midi": 40,
      "hit": false,
      "t": 259838.19000002643,
      "d": 75.60468749998836,
      "v": 94
    },
    {
      "midi": 35,
      "hit": false,
      "t": 259838.19000002643,
      "d": 90.72562499999185,
      "v": 87
    },
    {
      "midi": 59,
      "hit": false,
      "t": 259838.19000002643,
      "d": 105.84656249999534,
      "v": 94
    },
    {
      "midi": 31,
      "hit": false,
      "t": 259838.19000002643,
      "d": 166.3303125000093,
      "v": 99
    },
    {
      "midi": 50,
      "hit": false,
      "t": 259838.19000002643,
      "d": 433.4668750000128,
      "v": 104
    },
    {
      "midi": 59,
      "hit": false,
      "t": 259959.15750002643,
      "d": 5.040312500001164,
      "v": 100
    },
    {
      "midi": 63,
      "hit": false,
      "t": 260075.08468752643,
      "d": 5.040312500001164,
      "v": 46
    },
    {
      "midi": 46,
      "hit": false,
      "t": 260080.12500002643,
      "d": 5.040312500001164,
      "v": 70
    },
    {
      "midi": 67,
      "hit": false,
      "t": 260080.12500002643,
      "d": 650.2003125000338,
      "v": 104
    },
    {
      "midi": 59,
      "hit": false,
      "t": 260201.09250002643,
      "d": 5.040312500001164,
      "v": 88
    },
    {
      "midi": 55,
      "hit": false,
      "t": 260201.09250002643,
      "d": 20.161250000004657,
      "v": 51
    },
    {
      "midi": 31,
      "hit": false,
      "t": 260206.13281252643,
      "d": 5.040312500001164,
      "v": 28
    },
    {
      "midi": 59,
      "hit": false,
      "t": 260211.17312502643,
      "d": 20.161250000004657,
      "v": 46
    },
    {
      "midi": 63,
      "hit": false,
      "t": 260216.21343752643,
      "d": 5.040312500001164,
      "v": 85
    },
    {
      "midi": 62,
      "hit": false,
      "t": 260221.25375002643,
      "d": 20.161250000004657,
      "v": 38
    },
    {
      "midi": 44,
      "hit": false,
      "t": 260322.06000002645,
      "d": 5.040312500001164,
      "v": 64
    },
    {
      "midi": 59,
      "hit": false,
      "t": 260322.06000002645,
      "d": 5.040312500001164,
      "v": 94
    },
    {
      "midi": 35,
      "hit": false,
      "t": 260322.06000002645,
      "d": 95.76593749999302,
      "v": 87
    },
    {
      "midi": 31,
      "hit": false,
      "t": 260322.06000002645,
      "d": 115.92718749999767,
      "v": 94
    },
    {
      "midi": 43,
      "hit": false,
      "t": 260322.06000002645,
      "d": 433.4668750000128,
      "v": 104
    },
    {
      "midi": 55,
      "hit": false,
      "t": 260443.02750002645,
      "d": 10.080625000002328,
      "v": 64
    },
    {
      "midi": 31,
      "hit": false,
      "t": 260448.06781252645,
      "d": 5.040312500001164,
      "v": 39
    },
    {
      "midi": 59,
      "hit": false,
      "t": 260453.10812502645,
      "d": 20.161250000004657,
      "v": 58
    },
    {
      "midi": 62,
      "hit": false,
      "t": 260463.18875002646,
      "d": 20.161250000004657,
      "v": 69
    },
    {
      "midi": 62,
      "hit": false,
      "t": 260558.95468752645,
      "d": 5.040312500001164,
      "v": 85
    },
    {
      "midi": 46,
      "hit": false,
      "t": 260563.99500002645,
      "d": 5.040312500001164,
      "v": 70
    },
    {
      "midi": 59,
      "hit": false,
      "t": 260563.99500002645,
      "d": 5.040312500001164,
      "v": 93
    },
    {
      "midi": 31,
      "hit": false,
      "t": 260563.99500002645,
      "d": 156.24968750000698,
      "v": 102
    },
    {
      "midi": 44,
      "hit": false,
      "t": 260805.93000002648,
      "d": 5.040312500001164,
      "v": 64
    },
    {
      "midi": 40,
      "hit": false,
      "t": 260805.93000002648,
      "d": 60.48375000001397,
      "v": 94
    },
    {
      "midi": 35,
      "hit": false,
      "t": 260805.93000002648,
      "d": 95.76593750002212,
      "v": 87
    },
    {
      "midi": 50,
      "hit": false,
      "t": 260805.93000002648,
      "d": 433.4668750000419,
      "v": 104
    },
    {
      "midi": 59,
      "hit": false,
      "t": 260816.01062502648,
      "d": 95.76593750002212,
      "v": 76
    },
    {
      "midi": 62,
      "hit": false,
      "t": 260921.8571875265,
      "d": 5.040312500001164,
      "v": 58
    },
    {
      "midi": 59,
      "hit": false,
      "t": 260926.8975000265,
      "d": 5.040312500001164,
      "v": 100
    },
    {
      "midi": 55,
      "hit": false,
      "t": 260926.8975000265,
      "d": 20.161250000004657,
      "v": 70
    },
    {
      "midi": 59,
      "hit": false,
      "t": 260936.9781250265,
      "d": 20.161250000004657,
      "v": 57
    },
    {
      "midi": 62,
      "hit": false,
      "t": 260947.0587500265,
      "d": 20.161250000004657,
      "v": 66
    },
    {
      "midi": 63,
      "hit": false,
      "t": 261042.8246875265,
      "d": 5.040312500001164,
      "v": 55
    },
    {
      "midi": 46,
      "hit": false,
      "t": 261047.8650000265,
      "d": 5.040312500001164,
      "v": 70
    },
    {
      "midi": 31,
      "hit": false,
      "t": 261052.9053125265,
      "d": 5.040312500001164,
      "v": 37
    },
    {
      "midi": 64,
      "hit": false,
      "t": 261168.8325000265,
      "d": 5.040312500001164,
      "v": 78
    },
    {
      "midi": 43,
      "hit": false,
      "t": 261168.8325000265,
      "d": 5.040312500001164,
      "v": 72
    },
    {
      "midi": 59,
      "hit": false,
      "t": 261168.8325000265,
      "d": 5.040312500001164,
      "v": 92
    },
    {
      "midi": 31,
      "hit": false,
      "t": 261173.8728125265,
      "d": 5.040312500001164,
      "v": 46
    },
    {
      "midi": 44,
      "hit": false,
      "t": 261289.80000002653,
      "d": 5.040312500001164,
      "v": 64
    },
    {
      "midi": 59,
      "hit": false,
      "t": 261289.80000002653,
      "d": 5.040312500001164,
      "v": 95
    },
    {
      "midi": 35,
      "hit": false,
      "t": 261289.80000002653,
      "d": 105.84656249999534,
      "v": 87
    },
    {
      "midi": 38,
      "hit": false,
      "t": 261289.80000002653,
      "d": 231.85437499999534,
      "v": 89
    },
    {
      "midi": 55,
      "hit": false,
      "t": 261410.76750002653,
      "d": 15.120937500003492,
      "v": 35
    },
    {
      "midi": 59,
      "hit": false,
      "t": 261420.84812502653,
      "d": 15.120937500003492,
      "v": 38
    },
    {
      "midi": 62,
      "hit": false,
      "t": 261430.92875002653,
      "d": 15.120937500003492,
      "v": 38
    },
    {
      "midi": 46,
      "hit": false,
      "t": 261526.69468752653,
      "d": 5.040312500001164,
      "v": 69
    },
    {
      "midi": 62,
      "hit": false,
      "t": 261531.73500002653,
      "d": 5.040312500001164,
      "v": 91
    },
    {
      "midi": 59,
      "hit": false,
      "t": 261531.73500002653,
      "d": 5.040312500001164,
      "v": 104
    },
    {
      "midi": 38,
      "hit": false,
      "t": 261531.73500002653,
      "d": 191.53187500001513,
      "v": 89
    },
    {
      "midi": 71,
      "hit": false,
      "t": 261531.73500002653,
      "d": 650.2003125000047,
      "v": 104
    },
    {
      "midi": 63,
      "hit": false,
      "t": 261652.70250002653,
      "d": 5.040312500001164,
      "v": 91
    },
    {
      "midi": 55,
      "hit": false,
      "t": 261652.70250002653,
      "d": 20.161250000004657,
      "v": 89
    },
    {
      "midi": 59,
      "hit": false,
      "t": 261662.78312502653,
      "d": 20.161250000004657,
      "v": 76
    },
    {
      "midi": 62,
      "hit": false,
      "t": 261672.86375002653,
      "d": 5.040312500001164,
      "v": 90
    },
    {
      "midi": 44,
      "hit": false,
      "t": 261768.62968752655,
      "d": 5.040312500001164,
      "v": 71
    },
    {
      "midi": 40,
      "hit": false,
      "t": 261773.67000002656,
      "d": 70.5643749999872,
      "v": 94
    },
    {
      "midi": 35,
      "hit": false,
      "t": 261773.67000002656,
      "d": 105.84656249999534,
      "v": 87
    },
    {
      "midi": 38,
      "hit": false,
      "t": 261773.67000002656,
      "d": 231.85437499999534,
      "v": 101
    },
    {
      "midi": 50,
      "hit": false,
      "t": 261773.67000002656,
      "d": 433.4668749999546,
      "v": 104
    },
    {
      "midi": 64,
      "hit": false,
      "t": 261894.63750002655,
      "d": 5.040312500001164,
      "v": 91
    },
    {
      "midi": 46,
      "hit": false,
      "t": 262015.60500002655,
      "d": 5.040312500001164,
      "v": 61
    },
    {
      "midi": 63,
      "hit": false,
      "t": 262015.60500002655,
      "d": 5.040312500001164,
      "v": 47
    },
    {
      "midi": 38,
      "hit": false,
      "t": 262015.60500002655,
      "d": 231.85437499996624,
      "v": 101
    },
    {
      "midi": 59,
      "hit": false,
      "t": 262025.68562502656,
      "d": 95.76593749999302,
      "v": 78
    },
    {
      "midi": 63,
      "hit": false,
      "t": 262136.57250002655,
      "d": 5.040312500001164,
      "v": 85
    },
    {
      "midi": 59,
      "hit": false,
      "t": 262136.57250002655,
      "d": 5.040312500001164,
      "v": 107
    },
    {
      "midi": 55,
      "hit": false,
      "t": 262136.57250002655,
      "d": 10.080625000002328,
      "v": 48
    },
    {
      "midi": 31,
      "hit": false,
      "t": 262141.61281252655,
      "d": 5.040312500001164,
      "v": 52
    },
    {
      "midi": 59,
      "hit": false,
      "t": 262146.65312502655,
      "d": 110.8868749999674,
      "v": 60
    },
    {
      "midi": 62,
      "hit": false,
      "t": 262156.73375002656,
      "d": 10.080625000002328,
      "v": 52
    },
    {
      "midi": 44,
      "hit": false,
      "t": 262257.5400000265,
      "d": 5.04031249997206,
      "v": 64
    },
    {
      "midi": 59,
      "hit": false,
      "t": 262257.5400000265,
      "d": 5.04031249997206,
      "v": 40
    },
    {
      "midi": 35,
      "hit": false,
      "t": 262257.5400000265,
      "d": 90.72562499996275,
      "v": 86
    },
    {
      "midi": 50,
      "hit": false,
      "t": 262257.5400000265,
      "d": 231.85437499987893,
      "v": 82
    },
    {
      "midi": 38,
      "hit": false,
      "t": 262257.5400000265,
      "d": 433.4668749998091,
      "v": 104
    },
    {
      "midi": 69,
      "hit": false,
      "t": 262257.5400000265,
      "d": 433.4668749998091,
      "v": 104
    },
    {
      "midi": 40,
      "hit": false,
      "t": 262378.5075000265,
      "d": 5.04031249997206,
      "v": 82
    },
    {
      "midi": 62,
      "hit": false,
      "t": 262378.5075000265,
      "d": 5.04031249997206,
      "v": 91
    },
    {
      "midi": 59,
      "hit": false,
      "t": 262378.5075000265,
      "d": 5.04031249997206,
      "v": 104
    },
    {
      "midi": 55,
      "hit": false,
      "t": 262378.5075000265,
      "d": 10.08062499994412,
      "v": 66
    },
    {
      "midi": 59,
      "hit": false,
      "t": 262388.58812502644,
      "d": 25.201562499976717,
      "v": 58
    },
    {
      "midi": 62,
      "hit": false,
      "t": 262398.66875002644,
      "d": 20.16124999994645,
      "v": 68
    },
    {
      "midi": 46,
      "hit": false,
      "t": 262499.4750000264,
      "d": 5.04031249997206,
      "v": 68
    },
    {
      "midi": 64,
      "hit": false,
      "t": 262499.4750000264,
      "d": 5.04031249997206,
      "v": 78
    },
    {
      "midi": 59,
      "hit": false,
      "t": 262499.4750000264,
      "d": 5.04031249997206,
      "v": 104
    },
    {
      "midi": 50,
      "hit": false,
      "t": 262499.4750000264,
      "d": 236.8946874999092,
      "v": 82
    },
    {
      "midi": 64,
      "hit": false,
      "t": 262620.4425000264,
      "d": 5.04031249997206,
      "v": 78
    },
    {
      "midi": 40,
      "hit": false,
      "t": 262741.4100000263,
      "d": 5.04031249997206,
      "v": 98
    },
    {
      "midi": 64,
      "hit": false,
      "t": 262741.4100000263,
      "d": 5.04031249997206,
      "v": 82
    },
    {
      "midi": 35,
      "hit": false,
      "t": 262741.4100000263,
      "d": 90.72562499996275,
      "v": 86
    },
    {
      "midi": 50,
      "hit": false,
      "t": 262741.4100000263,
      "d": 241.93499999988126,
      "v": 87
    },
    {
      "midi": 67,
      "hit": false,
      "t": 262741.4100000263,
      "d": 433.4668749998091,
      "v": 104
    },
    {
      "midi": 44,
      "hit": false,
      "t": 262746.45031252626,
      "d": 5.04031249997206,
      "v": 71
    },
    {
      "midi": 62,
      "hit": false,
      "t": 262862.37750002625,
      "d": 5.04031249997206,
      "v": 93
    },
    {
      "midi": 55,
      "hit": false,
      "t": 262862.37750002625,
      "d": 30.241874999948777,
      "v": 43
    },
    {
      "midi": 59,
      "hit": false,
      "t": 262872.4581250262,
      "d": 25.201562499976717,
      "v": 75
    },
    {
      "midi": 62,
      "hit": false,
      "t": 262882.5387500262,
      "d": 25.201562499976717,
      "v": 60
    },
    {
      "midi": 40,
      "hit": false,
      "t": 262983.34500002617,
      "d": 5.04031249997206,
      "v": 82
    },
    {
      "midi": 50,
      "hit": false,
      "t": 262993.4256250261,
      "d": 181.4512499999837,
      "v": 76
    },
    {
      "midi": 40,
      "hit": false,
      "t": 263104.31250002614,
      "d": 5.04031249997206,
      "v": 82
    },
    {
      "midi": 59,
      "hit": false,
      "t": 263104.31250002614,
      "d": 5.04031249997206,
      "v": 96
    },
    {
      "midi": 57,
      "hit": false,
      "t": 263220.2396875261,
      "d": 5.04031249997206,
      "v": 79
    },
    {
      "midi": 44,
      "hit": false,
      "t": 263225.28000002605,
      "d": 5.04031249997206,
      "v": 64
    },
    {
      "midi": 59,
      "hit": false,
      "t": 263225.28000002605,
      "d": 5.04031249997206,
      "v": 85
    },
    {
      "midi": 35,
      "hit": false,
      "t": 263225.28000002605,
      "d": 105.84656249993714,
      "v": 87
    },
    {
      "midi": 31,
      "hit": false,
      "t": 263225.28000002605,
      "d": 176.41093749983702,
      "v": 101
    },
    {
      "midi": 43,
      "hit": false,
      "t": 263225.28000002605,
      "d": 433.46687499975087,
      "v": 104
    },
    {
      "midi": 55,
      "hit": false,
      "t": 263346.24750002596,
      "d": 30.241875000006985,
      "v": 56
    },
    {
      "midi": 59,
      "hit": false,
      "t": 263356.32812502596,
      "d": 25.201562499976717,
      "v": 50
    },
    {
      "midi": 62,
      "hit": false,
      "t": 263366.40875002596,
      "d": 30.241874999948777,
      "v": 33
    },
    {
      "midi": 46,
      "hit": false,
      "t": 263462.1746875259,
      "d": 5.04031249997206,
      "v": 69
    },
    {
      "midi": 62,
      "hit": false,
      "t": 263467.21500002587,
      "d": 5.04031249997206,
      "v": 91
    },
    {
      "midi": 59,
      "hit": false,
      "t": 263467.21500002587,
      "d": 5.04031249997206,
      "v": 94
    },
    {
      "midi": 55,
      "hit": false,
      "t": 263588.18250002584,
      "d": 20.161250000004657,
      "v": 96
    },
    {
      "midi": 59,
      "hit": false,
      "t": 263598.26312502584,
      "d": 20.161250000004657,
      "v": 89
    },
    {
      "midi": 62,
      "hit": false,
      "t": 263608.34375002584,
      "d": 15.120937499974389,
      "v": 84
    },
    {
      "midi": 44,
      "hit": false,
      "t": 263704.1096875258,
      "d": 5.04031249997206,
      "v": 71
    },
    {
      "midi": 40,
      "hit": false,
      "t": 263709.15000002575,
      "d": 70.5643750000163,
      "v": 94
    },
    {
      "midi": 59,
      "hit": false,
      "t": 263709.15000002575,
      "d": 85.68531249999069,
      "v": 100
    },
    {
      "midi": 35,
      "hit": false,
      "t": 263709.15000002575,
      "d": 105.84656249999534,
      "v": 87
    },
    {
      "midi": 31,
      "hit": false,
      "t": 263709.15000002575,
      "d": 166.3303124999511,
      "v": 99
    },
    {
      "midi": 50,
      "hit": false,
      "t": 263709.15000002575,
      "d": 433.46687499975087,
      "v": 104
    },
    {
      "midi": 59,
      "hit": false,
      "t": 263830.1175000257,
      "d": 10.080625000002328,
      "v": 100
    },
    {
      "midi": 46,
      "hit": false,
      "t": 263951.0850000257,
      "d": 5.04031249997206,
      "v": 61
    },
    {
      "midi": 63,
      "hit": false,
      "t": 263951.0850000257,
      "d": 5.04031249997206,
      "v": 47
    },
    {
      "midi": 67,
      "hit": false,
      "t": 263951.0850000257,
      "d": 650.2003124996554,
      "v": 104
    },
    {
      "midi": 63,
      "hit": false,
      "t": 264072.05250002566,
      "d": 5.04031249997206,
      "v": 85
    },
    {
      "midi": 59,
      "hit": false,
      "t": 264072.05250002566,
      "d": 5.04031249997206,
      "v": 95
    },
    {
      "midi": 55,
      "hit": false,
      "t": 264072.05250002566,
      "d": 15.120937499916181,
      "v": 36
    },
    {
      "midi": 31,
      "hit": false,
      "t": 264077.09281252563,
      "d": 5.04031249997206,
      "v": 39
    },
    {
      "midi": 59,
      "hit": false,
      "t": 264082.1331250256,
      "d": 15.120937499916181,
      "v": 46
    },
    {
      "midi": 62,
      "hit": false,
      "t": 264092.21375002555,
      "d": 15.120937499974389,
      "v": 30
    },
    {
      "midi": 44,
      "hit": false,
      "t": 264193.0200000255,
      "d": 5.04031249997206,
      "v": 64
    },
    {
      "midi": 59,
      "hit": false,
      "t": 264193.0200000255,
      "d": 5.04031249997206,
      "v": 92
    },
    {
      "midi": 35,
      "hit": false,
      "t": 264193.0200000255,
      "d": 90.72562499996275,
      "v": 86
    },
    {
      "midi": 55,
      "hit": false,
      "t": 264193.0200000255,
      "d": 95.76593749993481,
      "v": 13
    },
    {
      "midi": 31,
      "hit": false,
      "t": 264193.0200000255,
      "d": 115.92718749993946,
      "v": 94
    },
    {
      "midi": 43,
      "hit": false,
      "t": 264193.0200000255,
      "d": 433.4668749998091,
      "v": 104
    },
    {
      "midi": 31,
      "hit": false,
      "t": 264313.9875000254,
      "d": 5.04031249997206,
      "v": 30
    },
    {
      "midi": 59,
      "hit": false,
      "t": 264313.9875000254,
      "d": 5.04031249997206,
      "v": 94
    },
    {
      "midi": 55,
      "hit": false,
      "t": 264313.9875000254,
      "d": 20.16124999994645,
      "v": 80
    },
    {
      "midi": 59,
      "hit": false,
      "t": 264324.06812502537,
      "d": 20.161250000004657,
      "v": 68
    },
    {
      "midi": 62,
      "hit": false,
      "t": 264334.1487500254,
      "d": 20.161250000004657,
      "v": 75
    },
    {
      "midi": 46,
      "hit": false,
      "t": 264434.9550000254,
      "d": 5.04031249997206,
      "v": 70
    },
    {
      "midi": 62,
      "hit": false,
      "t": 264434.9550000254,
      "d": 5.04031249997206,
      "v": 85
    },
    {
      "midi": 59,
      "hit": false,
      "t": 264434.9550000254,
      "d": 5.04031249997206,
      "v": 94
    },
    {
      "midi": 31,
      "hit": false,
      "t": 264434.9550000254,
      "d": 156.24968749994878,
      "v": 102
    },
    {
      "midi": 40,
      "hit": false,
      "t": 264676.89000002533,
      "d": 65.52406249992782,
      "v": 91
    },
    {
      "midi": 35,
      "hit": false,
      "t": 264676.89000002533,
      "d": 90.72562499990454,
      "v": 86
    },
    {
      "midi": 55,
      "hit": false,
      "t": 264676.89000002533,
      "d": 181.45124999980908,
      "v": 96
    },
    {
      "midi": 50,
      "hit": false,
      "t": 264676.89000002533,
      "d": 433.46687499975087,
      "v": 104
    },
    {
      "midi": 44,
      "hit": false,
      "t": 264681.9303125253,
      "d": 5.04031249997206,
      "v": 71
    },
    {
      "midi": 59,
      "hit": false,
      "t": 264686.9706250253,
      "d": 90.72562499996275,
      "v": 82
    },
    {
      "midi": 62,
      "hit": false,
      "t": 264797.85750002525,
      "d": 5.04031249997206,
      "v": 62
    },
    {
      "midi": 59,
      "hit": false,
      "t": 264797.85750002525,
      "d": 5.04031249997206,
      "v": 47
    },
    {
      "midi": 62,
      "hit": false,
      "t": 264807.9381250252,
      "d": 25.201562499976717,
      "v": 52
    },
    {
      "midi": 46,
      "hit": false,
      "t": 264918.82500002516,
      "d": 5.04031249997206,
      "v": 70
    },
    {
      "midi": 63,
      "hit": false,
      "t": 264918.82500002516,
      "d": 5.04031249997206,
      "v": 53
    },
    {
      "midi": 64,
      "hit": false,
      "t": 265039.7925000251,
      "d": 5.04031249997206,
      "v": 74
    },
    {
      "midi": 43,
      "hit": false,
      "t": 265039.7925000251,
      "d": 5.04031249997206,
      "v": 72
    },
    {
      "midi": 59,
      "hit": false,
      "t": 265039.7925000251,
      "d": 5.04031249997206,
      "v": 88
    },
    {
      "midi": 44,
      "hit": false,
      "t": 265160.7600000251,
      "d": 5.04031249997206,
      "v": 64
    },
    {
      "midi": 57,
      "hit": false,
      "t": 265160.7600000251,
      "d": 5.04031249997206,
      "v": 82
    },
    {
      "midi": 59,
      "hit": false,
      "t": 265160.7600000251,
      "d": 5.04031249997206,
      "v": 85
    },
    {
      "midi": 35,
      "hit": false,
      "t": 265160.7600000251,
      "d": 105.84656249993714,
      "v": 87
    },
    {
      "midi": 38,
      "hit": false,
      "t": 265160.7600000251,
      "d": 176.41093749983702,
      "v": 101
    },
    {
      "midi": 55,
      "hit": false,
      "t": 265281.727500025,
      "d": 30.241875000006985,
      "v": 56
    },
    {
      "midi": 59,
      "hit": false,
      "t": 265291.808125025,
      "d": 25.201562499976717,
      "v": 50
    },
    {
      "midi": 62,
      "hit": false,
      "t": 265301.888750025,
      "d": 25.201562499976717,
      "v": 33
    },
    {
      "midi": 31,
      "hit": false,
      "t": 265402.6950000249,
      "d": 5.04031249997206,
      "v": 64
    },
    {
      "midi": 62,
      "hit": false,
      "t": 265402.6950000249,
      "d": 5.04031249997206,
      "v": 91
    },
    {
      "midi": 59,
      "hit": false,
      "t": 265402.6950000249,
      "d": 5.04031249997206,
      "v": 94
    },
    {
      "midi": 71,
      "hit": false,
      "t": 265402.6950000249,
      "d": 650.2003124995972,
      "v": 104
    },
    {
      "midi": 40,
      "hit": false,
      "t": 265523.6625000249,
      "d": 5.04031249997206,
      "v": 87
    },
    {
      "midi": 55,
      "hit": false,
      "t": 265523.6625000249,
      "d": 20.16124999994645,
      "v": 96
    },
    {
      "midi": 59,
      "hit": false,
      "t": 265533.74312502483,
      "d": 20.161250000004657,
      "v": 89
    },
    {
      "midi": 62,
      "hit": false,
      "t": 265543.82375002484,
      "d": 15.120937499974389,
      "v": 84
    },
    {
      "midi": 59,
      "hit": false,
      "t": 265644.6300000248,
      "d": 85.68531249999069,
      "v": 100
    },
    {
      "midi": 35,
      "hit": false,
      "t": 265644.6300000248,
      "d": 105.84656249999534,
      "v": 87
    },
    {
      "midi": 38,
      "hit": false,
      "t": 265644.6300000248,
      "d": 166.3303124998929,
      "v": 99
    },
    {
      "midi": 50,
      "hit": false,
      "t": 265644.6300000248,
      "d": 433.46687499969266,
      "v": 104
    },
    {
      "midi": 40,
      "hit": false,
      "t": 265765.59750002477,
      "d": 5.04031249997206,
      "v": 73
    },
    {
      "midi": 59,
      "hit": false,
      "t": 265765.59750002477,
      "d": 10.08062499994412,
      "v": 100
    },
    {
      "midi": 40,
      "hit": false,
      "t": 265886.5650000247,
      "d": 5.04031249997206,
      "v": 95
    },
    {
      "midi": 63,
      "hit": false,
      "t": 265886.5650000247,
      "d": 5.04031249997206,
      "v": 47
    },
    {
      "midi": 40,
      "hit": false,
      "t": 266007.53250002465,
      "d": 5.04031249997206,
      "v": 60
    },
    {
      "midi": 63,
      "hit": false,
      "t": 266007.53250002465,
      "d": 5.04031249997206,
      "v": 85
    },
    {
      "midi": 59,
      "hit": false,
      "t": 266007.53250002465,
      "d": 5.04031249997206,
      "v": 95
    },
    {
      "midi": 55,
      "hit": false,
      "t": 266007.53250002465,
      "d": 15.120937499916181,
      "v": 36
    },
    {
      "midi": 59,
      "hit": false,
      "t": 266017.6131250246,
      "d": 15.120937499916181,
      "v": 46
    },
    {
      "midi": 29,
      "hit": false,
      "t": 266017.6131250246,
      "d": 95.7659374998766,
      "v": 58
    },
    {
      "midi": 62,
      "hit": false,
      "t": 266027.69375002454,
      "d": 15.120937499974389,
      "v": 30
    },
    {
      "midi": 59,
      "hit": false,
      "t": 266128.50000002445,
      "d": 5.04031249997206,
      "v": 92
    },
    {
      "midi": 55,
      "hit": false,
      "t": 266128.50000002445,
      "d": 95.76593749993481,
      "v": 13
    },
    {
      "midi": 35,
      "hit": false,
      "t": 266128.50000002445,
      "d": 105.84656249993714,
      "v": 87
    },
    {
      "midi": 38,
      "hit": false,
      "t": 266128.50000002445,
      "d": 115.92718749993946,
      "v": 94
    },
    {
      "midi": 69,
      "hit": false,
      "t": 266128.50000002445,
      "d": 433.4668749998091,
      "v": 104
    },
    {
      "midi": 40,
      "hit": false,
      "t": 266138.5806250244,
      "d": 80.64500000001863,
      "v": 94
    },
    {
      "midi": 59,
      "hit": false,
      "t": 266249.46750002436,
      "d": 5.04031249997206,
      "v": 94
    },
    {
      "midi": 55,
      "hit": false,
      "t": 266249.46750002436,
      "d": 20.16124999994645,
      "v": 80
    },
    {
      "midi": 40,
      "hit": false,
      "t": 266254.50781252433,
      "d": 80.64499999996042,
      "v": 71
    },
    {
      "midi": 59,
      "hit": false,
      "t": 266259.5481250243,
      "d": 20.161250000004657,
      "v": 68
    },
    {
      "midi": 62,
      "hit": false,
      "t": 266269.6287500243,
      "d": 20.161250000004657,
      "v": 75
    },
    {
      "midi": 62,
      "hit": false,
      "t": 266370.43500002427,
      "d": 5.04031249997206,
      "v": 85
    },
    {
      "midi": 59,
      "hit": false,
      "t": 266370.43500002427,
      "d": 5.04031249997206,
      "v": 94
    },
    {
      "midi": 38,
      "hit": false,
      "t": 266370.43500002427,
      "d": 156.24968750000698,
      "v": 102
    },
    {
      "midi": 40,
      "hit": false,
      "t": 266496.44281252427,
      "d": 80.64499999996042,
      "v": 93
    },
    {
      "midi": 55,
      "hit": false,
      "t": 266612.3700000242,
      "d": 181.4512499999255,
      "v": 96
    },
    {
      "midi": 50,
      "hit": false,
      "t": 266612.3700000242,
      "d": 433.4668749998091,
      "v": 104
    },
    {
      "midi": 67,
      "hit": false,
      "t": 266612.3700000242,
      "d": 433.4668749998091,
      "v": 104
    },
    {
      "midi": 59,
      "hit": false,
      "t": 266622.4506250242,
      "d": 90.72562500002095,
      "v": 82
    },
    {
      "midi": 62,
      "hit": false,
      "t": 266733.33750002424,
      "d": 5.04031249997206,
      "v": 62
    },
    {
      "midi": 59,
      "hit": false,
      "t": 266733.33750002424,
      "d": 5.04031249997206,
      "v": 47
    },
    {
      "midi": 40,
      "hit": false,
      "t": 266738.3778125242,
      "d": 80.64499999990221,
      "v": 91
    },
    {
      "midi": 62,
      "hit": false,
      "t": 266743.4181250242,
      "d": 25.201562499976717,
      "v": 52
    },
    {
      "midi": 63,
      "hit": false,
      "t": 266854.3050000241,
      "d": 5.04031249997206,
      "v": 53
    },
    {
      "midi": 40,
      "hit": false,
      "t": 266854.3050000241,
      "d": 80.64499999996042,
      "v": 84
    },
    {
      "midi": 64,
      "hit": false,
      "t": 266975.27250002406,
      "d": 5.04031249997206,
      "v": 74
    },
    {
      "midi": 38,
      "hit": false,
      "t": 266975.27250002406,
      "d": 5.04031249997206,
      "v": 72
    },
    {
      "midi": 59,
      "hit": false,
      "t": 266975.27250002406,
      "d": 5.04031249997206,
      "v": 88
    },
    {
      "midi": 69,
      "hit": false,
      "t": 267055.917500024,
      "d": 1774.1899999998277,
      "v": 104
    },
    {
      "midi": 71,
      "hit": false,
      "t": 267076.078750024,
      "d": 1754.028749999823,
      "v": 104
    },
    {
      "midi": 49,
      "hit": false,
      "t": 267091.199687524,
      "d": 5.04031249997206,
      "v": 79
    },
    {
      "midi": 57,
      "hit": false,
      "t": 267096.240000024,
      "d": 5.04031249997206,
      "v": 87
    },
    {
      "midi": 35,
      "hit": false,
      "t": 267096.240000024,
      "d": 5.04031249997206,
      "v": 87
    },
    {
      "midi": 43,
      "hit": false,
      "t": 267096.240000024,
      "d": 156.24968749989057,
      "v": 60
    },
    {
      "midi": 31,
      "hit": false,
      "t": 267096.240000024,
      "d": 478.82968749984866,
      "v": 102
    },
    {
      "midi": 74,
      "hit": false,
      "t": 267096.240000024,
      "d": 1733.8674999998766,
      "v": 104
    },
    {
      "midi": 47,
      "hit": false,
      "t": 267106.3206250239,
      "d": 156.24968749994878,
      "v": 65
    },
    {
      "midi": 59,
      "hit": false,
      "t": 267106.3206250239,
      "d": 156.24968749994878,
      "v": 68
    },
    {
      "midi": 62,
      "hit": false,
      "t": 267116.4012500239,
      "d": 156.24968749994878,
      "v": 73
    },
    {
      "midi": 66,
      "hit": false,
      "t": 267121.4415625239,
      "d": 156.24968749994878,
      "v": 64
    }
  ]
}