{
  "jsonPath": "Animes/Card Captor Sakura MIDI Collection/nukumori-no-kioko.json",
  "path": "Animes\\Card Captor Sakura MIDI Collection\\Nukumori no kioko.mid",
  "name": "Nukumori no kioko",
  "difficulty": "Advanced",
  "bpm": 80,
  "notes": [
    {
      "midi": 57,
      "hit": false,
      "t": 24000,
      "d": 6062.5,
      "v": 68
    },
    {
      "midi": 48,
      "hit": false,
      "t": 24000,
      "d": 6093.75,
      "v": 72
    },
    {
      "midi": 41,
      "hit": false,
      "t": 24000,
      "d": 12000,
      "v": 85
    },
    {
      "midi": 67,
      "hit": false,
      "t": 24000,
      "d": 2312.5,
      "v": 109
    },
    {
      "midi": 65,
      "hit": false,
      "t": 26250,
      "d": 2312.5,
      "v": 98
    },
    {
      "midi": 60,
      "hit": false,
      "t": 28500,
      "d": 1562.5,
      "v": 87
    },
    {
      "midi": 58,
      "hit": false,
      "t": 30000,
      "d": 6062.5,
      "v": 72
    },
    {
      "midi": 50,
      "hit": false,
      "t": 30000,
      "d": 6000,
      "v": 71
    },
    {
      "midi": 69,
      "hit": false,
      "t": 30000,
      "d": 2312.5,
      "v": 107
    },
    {
      "midi": 67,
      "hit": false,
      "t": 32250,
      "d": 2125,
      "v": 93
    },
    {
      "midi": 69,
      "hit": false,
      "t": 34500,
      "d": 812.5,
      "v": 104
    },
    {
      "midi": 70,
      "hit": false,
      "t": 35250,
      "d": 812.5,
      "v": 90
    },
    {
      "midi": 60,
      "hit": false,
      "t": 36000,
      "d": 9000,
      "v": 75
    },
    {
      "midi": 55,
      "hit": false,
      "t": 36000,
      "d": 3125,
      "v": 70
    },
    {
      "midi": 45,
      "hit": false,
      "t": 36000,
      "d": 3062.5,
      "v": 95
    },
    {
      "midi": 72,
      "hit": false,
      "t": 36000,
      "d": 4468.75,
      "v": 95
    },
    {
      "midi": 56,
      "hit": false,
      "t": 39000,
      "d": 3125,
      "v": 70
    },
    {
      "midi": 44,
      "hit": false,
      "t": 39000,
      "d": 3062.5,
      "v": 95
    },
    {
      "midi": 76,
      "hit": false,
      "t": 40500,
      "d": 812.5,
      "v": 100
    },
    {
      "midi": 77,
      "hit": false,
      "t": 41250,
      "d": 812.5,
      "v": 90
    },
    {
      "midi": 58,
      "hit": false,
      "t": 42000,
      "d": 5875,
      "v": 70
    },
    {
      "midi": 43,
      "hit": false,
      "t": 42000,
      "d": 3062.5,
      "v": 98
    },
    {
      "midi": 72,
      "hit": false,
      "t": 42000,
      "d": 4281.25,
      "v": 95
    },
    {
      "midi": 58,
      "hit": false,
      "t": 45000,
      "d": 2875,
      "v": 57
    },
    {
      "midi": 36,
      "hit": false,
      "t": 45000,
      "d": 3062.5,
      "v": 90
    },
    {
      "midi": 70,
      "hit": false,
      "t": 46500,
      "d": 1562.5,
      "v": 85
    },
    {
      "midi": 60,
      "hit": false,
      "t": 48000,
      "d": 6000,
      "v": 70
    },
    {
      "midi": 53,
      "hit": false,
      "t": 48000,
      "d": 6000,
      "v": 85
    },
    {
      "midi": 38,
      "hit": false,
      "t": 48000,
      "d": 6000,
      "v": 109
    },
    {
      "midi": 69,
      "hit": false,
      "t": 48000,
      "d": 4531.25,
      "v": 100
    },
    {
      "midi": 76,
      "hit": false,
      "t": 52500,
      "d": 1562.5,
      "v": 95
    },
    {
      "midi": 59,
      "hit": false,
      "t": 54000,
      "d": 6000,
      "v": 70
    },
    {
      "midi": 53,
      "hit": false,
      "t": 54000,
      "d": 6000,
      "v": 85
    },
    {
      "midi": 43,
      "hit": false,
      "t": 54000,
      "d": 6000,
      "v": 99
    },
    {
      "midi": 77,
      "hit": false,
      "t": 54000,
      "d": 3062.5,
      "v": 90
    },
    {
      "midi": 74,
      "hit": false,
      "t": 57000,
      "d": 1562.5,
      "v": 89
    },
    {
      "midi": 69,
      "hit": false,
      "t": 58500,
      "d": 1562.5,
      "v": 87
    },
    {
      "midi": 58,
      "hit": false,
      "t": 60000,
      "d": 6000,
      "v": 70
    },
    {
      "midi": 53,
      "hit": false,
      "t": 60000,
      "d": 6000,
      "v": 85
    },
    {
      "midi": 43,
      "hit": false,
      "t": 60000,
      "d": 6000,
      "v": 104
    },
    {
      "midi": 67,
      "hit": false,
      "t": 60000,
      "d": 812.5,
      "v": 86
    },
    {
      "midi": 65,
      "hit": false,
      "t": 60750,
      "d": 5156.25,
      "v": 86
    },
    {
      "midi": 60,
      "hit": false,
      "t": 66000,
      "d": 1562.5,
      "v": 59
    },
    {
      "midi": 64,
      "hit": false,
      "t": 66000,
      "d": 1562.5,
      "v": 69
    },
    {
      "midi": 55,
      "hit": false,
      "t": 66000,
      "d": 1562.5,
      "v": 85
    },
    {
      "midi": 36,
      "hit": false,
      "t": 66000,
      "d": 6000,
      "v": 105
    },
    {
      "midi": 62,
      "hit": false,
      "t": 67500,
      "d": 1562.5,
      "v": 65
    },
    {
      "midi": 58,
      "hit": false,
      "t": 67500,
      "d": 1562.5,
      "v": 55
    },
    {
      "midi": 53,
      "hit": false,
      "t": 67500,
      "d": 1562.5,
      "v": 82
    },
    {
      "midi": 60,
      "hit": false,
      "t": 69000,
      "d": 1562.5,
      "v": 65
    },
    {
      "midi": 57,
      "hit": false,
      "t": 69000,
      "d": 1562.5,
      "v": 55
    },
    {
      "midi": 52,
      "hit": false,
      "t": 69000,
      "d": 1562.5,
      "v": 74
    },
    {
      "midi": 58,
      "hit": false,
      "t": 70500,
      "d": 1562.5,
      "v": 65
    },
    {
      "midi": 55,
      "hit": false,
      "t": 70500,
      "d": 1562.5,
      "v": 55
    },
    {
      "midi": 50,
      "hit": false,
      "t": 70500,
      "d": 1562.5,
      "v": 68
    },
    {
      "midi": 67,
      "hit": false,
      "t": 72000,
      "d": 2312.5,
      "v": 80
    },
    {
      "midi": 57,
      "hit": false,
      "t": 72000,
      "d": 6000,
      "v": 82
    },
    {
      "midi": 48,
      "hit": false,
      "t": 72000,
      "d": 6093.75,
      "v": 104
    },
    {
      "midi": 41,
      "hit": false,
      "t": 72000,
      "d": 12000,
      "v": 106
    },
    {
      "midi": 29,
      "hit": false,
      "t": 72000,
      "d": 5906.25,
      "v": 100
    },
    {
      "midi": 79,
      "hit": false,
      "t": 72000,
      "d": 2312.5,
      "v": 114
    },
    {
      "midi": 60,
      "hit": false,
      "t": 72750,
      "d": 812.5,
      "v": 70
    },
    {
      "midi": 67,
      "hit": false,
      "t": 73500,
      "d": 812.5,
      "v": 72
    },
    {
      "midi": 65,
      "hit": false,
      "t": 74250,
      "d": 2312.5,
      "v": 70
    },
    {
      "midi": 77,
      "hit": false,
      "t": 74250,
      "d": 2312.5,
      "v": 103
    },
    {
      "midi": 60,
      "hit": false,
      "t": 74250,
      "d": 812.5,
      "v": 64
    },
    {
      "midi": 65,
      "hit": false,
      "t": 75000,
      "d": 812.5,
      "v": 68
    },
    {
      "midi": 60,
      "hit": false,
      "t": 75750,
      "d": 812.5,
      "v": 59
    },
    {
      "midi": 60,
      "hit": false,
      "t": 76500,
      "d": 1500,
      "v": 70
    },
    {
      "midi": 72,
      "hit": false,
      "t": 76500,
      "d": 1562.5,
      "v": 92
    },
    {
      "midi": 65,
      "hit": false,
      "t": 76500,
      "d": 812.5,
      "v": 60
    },
    {
      "midi": 60,
      "hit": false,
      "t": 77250,
      "d": 812.5,
      "v": 57
    },
    {
      "midi": 69,
      "hit": false,
      "t": 78000,
      "d": 2312.5,
      "v": 82
    },
    {
      "midi": 58,
      "hit": false,
      "t": 78000,
      "d": 6062.5,
      "v": 82
    },
    {
      "midi": 50,
      "hit": false,
      "t": 78000,
      "d": 6000,
      "v": 96
    },
    {
      "midi": 29,
      "hit": false,
      "t": 78000,
      "d": 5906.25,
      "v": 100
    },
    {
      "midi": 81,
      "hit": false,
      "t": 78000,
      "d": 2312.5,
      "v": 112
    },
    {
      "midi": 62,
      "hit": false,
      "t": 78750,
      "d": 812.5,
      "v": 70
    },
    {
      "midi": 65,
      "hit": false,
      "t": 79500,
      "d": 812.5,
      "v": 72
    },
    {
      "midi": 67,
      "hit": false,
      "t": 80250,
      "d": 2250,
      "v": 70
    },
    {
      "midi": 79,
      "hit": false,
      "t": 80250,
      "d": 2125,
      "v": 98
    },
    {
      "midi": 62,
      "hit": false,
      "t": 80250,
      "d": 812.5,
      "v": 64
    },
    {
      "midi": 65,
      "hit": false,
      "t": 81000,
      "d": 812.5,
      "v": 68
    },
    {
      "midi": 62,
      "hit": false,
      "t": 81750,
      "d": 812.5,
      "v": 59
    },
    {
      "midi": 69,
      "hit": false,
      "t": 82500,
      "d": 812.5,
      "v": 80
    },
    {
      "midi": 81,
      "hit": false,
      "t": 82500,
      "d": 812.5,
      "v": 109
    },
    {
      "midi": 65,
      "hit": false,
      "t": 82500,
      "d": 812.5,
      "v": 60
    },
    {
      "midi": 70,
      "hit": false,
      "t": 83250,
      "d": 812.5,
      "v": 83
    },
    {
      "midi": 82,
      "hit": false,
      "t": 83250,
      "d": 812.5,
      "v": 95
    },
    {
      "midi": 62,
      "hit": false,
      "t": 83250,
      "d": 812.5,
      "v": 57
    },
    {
      "midi": 72,
      "hit": false,
      "t": 84000,
      "d": 4437.5,
      "v": 93
    },
    {
      "midi": 60,
      "hit": false,
      "t": 84000,
      "d": 6656.25,
      "v": 94
    },
    {
      "midi": 52,
      "hit": false,
      "t": 84000,
      "d": 3125,
      "v": 93
    },
    {
      "midi": 45,
      "hit": false,
      "t": 84000,
      "d": 3062.5,
      "v": 100
    },
    {
      "midi": 33,
      "hit": false,
      "t": 84000,
      "d": 2937.5,
      "v": 110
    },
    {
      "midi": 84,
      "hit": false,
      "t": 84000,
      "d": 4468.75,
      "v": 100
    },
    {
      "midi": 60,
      "hit": false,
      "t": 84750,
      "d": 812.5,
      "v": 75
    },
    {
      "midi": 67,
      "hit": false,
      "t": 85500,
      "d": 812.5,
      "v": 77
    },
    {
      "midi": 60,
      "hit": false,
      "t": 86250,
      "d": 812.5,
      "v": 69
    },
    {
      "midi": 53,
      "hit": false,
      "t": 87000,
      "d": 3125,
      "v": 100
    },
    {
      "midi": 44,
      "hit": false,
      "t": 87000,
      "d": 3062.5,
      "v": 100
    },
    {
      "midi": 32,
      "hit": false,
      "t": 87000,
      "d": 2937.5,
      "v": 120
    },
    {
      "midi": 65,
      "hit": false,
      "t": 87000,
      "d": 812.5,
      "v": 73
    },
    {
      "midi": 60,
      "hit": false,
      "t": 87750,
      "d": 812.5,
      "v": 64
    },
    {
      "midi": 76,
      "hit": false,
      "t": 88500,
      "d": 812.5,
      "v": 80
    },
    {
      "midi": 88,
      "hit": false,
      "t": 88500,
      "d": 812.5,
      "v": 100
    },
    {
      "midi": 65,
      "hit": false,
      "t": 88500,
      "d": 812.5,
      "v": 65
    },
    {
      "midi": 77,
      "hit": false,
      "t": 89250,
      "d": 812.5,
      "v": 80
    },
    {
      "midi": 89,
      "hit": false,
      "t": 89250,
      "d": 812.5,
      "v": 100
    },
    {
      "midi": 60,
      "hit": false,
      "t": 89250,
      "d": 812.5,
      "v": 62
    },
    {
      "midi": 72,
      "hit": false,
      "t": 90000,
      "d": 4437.5,
      "v": 80
    },
    {
      "midi": 50,
      "hit": false,
      "t": 90000,
      "d": 3093.75,
      "v": 75
    },
    {
      "midi": 43,
      "hit": false,
      "t": 90000,
      "d": 3062.5,
      "v": 103
    },
    {
      "midi": 31,
      "hit": false,
      "t": 90000,
      "d": 2937.5,
      "v": 120
    },
    {
      "midi": 84,
      "hit": false,
      "t": 90000,
      "d": 4281.25,
      "v": 100
    },
    {
      "midi": 58,
      "hit": false,
      "t": 90750,
      "d": 1562.5,
      "v": 89
    },
    {
      "midi": 58,
      "hit": false,
      "t": 90750,
      "d": 812.5,
      "v": 75
    },
    {
      "midi": 65,
      "hit": false,
      "t": 91500,
      "d": 812.5,
      "v": 77
    },
    {
      "midi": 60,
      "hit": false,
      "t": 92250,
      "d": 812.5,
      "v": 81
    },
    {
      "midi": 58,
      "hit": false,
      "t": 92250,
      "d": 812.5,
      "v": 69
    },
    {
      "midi": 64,
      "hit": false,
      "t": 93000,
      "d": 1562.5,
      "v": 88
    },
    {
      "midi": 48,
      "hit": false,
      "t": 93000,
      "d": 3468.75,
      "v": 80
    },
    {
      "midi": 36,
      "hit": false,
      "t": 93000,
      "d": 3062.5,
      "v": 95
    },
    {
      "midi": 36,
      "hit": false,
      "t": 93000,
      "d": 2937.5,
      "v": 115
    },
    {
      "midi": 64,
      "hit": false,
      "t": 93000,
      "d": 812.5,
      "v": 73
    },
    {
      "midi": 58,
      "hit": false,
      "t": 93750,
      "d": 812.5,
      "v": 64
    },
    {
      "midi": 70,
      "hit": false,
      "t": 94500,
      "d": 1468.75,
      "v": 80
    },
    {
      "midi": 67,
      "hit": false,
      "t": 94500,
      "d": 1562.5,
      "v": 80
    },
    {
      "midi": 82,
      "hit": false,
      "t": 94500,
      "d": 1562.5,
      "v": 92
    },
    {
      "midi": 64,
      "hit": false,
      "t": 94500,
      "d": 812.5,
      "v": 65
    },
    {
      "midi": 58,
      "hit": false,
      "t": 95250,
      "d": 812.5,
      "v": 62
    },
    {
      "midi": 69,
      "hit": false,
      "t": 96000,
      "d": 2312.5,
      "v": 80
    },
    {
      "midi": 69,
      "hit": false,
      "t": 96000,
      "d": 3093.75,
      "v": 80
    },
    {
      "midi": 38,
      "hit": false,
      "t": 96000,
      "d": 3000,
      "v": 95
    },
    {
      "midi": 38,
      "hit": false,
      "t": 96000,
      "d": 2937.5,
      "v": 110
    },
    {
      "midi": 81,
      "hit": false,
      "t": 96000,
      "d": 2250,
      "v": 100
    },
    {
      "midi": 60,
      "hit": false,
      "t": 96750,
      "d": 812.5,
      "v": 75
    },
    {
      "midi": 53,
      "hit": false,
      "t": 97500,
      "d": 4500,
      "v": 79
    },
    {
      "midi": 65,
      "hit": false,
      "t": 97500,
      "d": 812.5,
      "v": 77
    },
    {
      "midi": 74,
      "hit": false,
      "t": 98250,
      "d": 2312.5,
      "v": 80
    },
    {
      "midi": 86,
      "hit": false,
      "t": 98250,
      "d": 2250,
      "v": 95
    },
    {
      "midi": 60,
      "hit": false,
      "t": 98250,
      "d": 812.5,
      "v": 69
    },
    {
      "midi": 65,
      "hit": false,
      "t": 99000,
      "d": 3093.75,
      "v": 66
    },
    {
      "midi": 43,
      "hit": false,
      "t": 99000,
      "d": 3000,
      "v": 95
    },
    {
      "midi": 43,
      "hit": false,
      "t": 99000,
      "d": 2937.5,
      "v": 110
    },
    {
      "midi": 65,
      "hit": false,
      "t": 99000,
      "d": 812.5,
      "v": 73
    },
    {
      "midi": 62,
      "hit": false,
      "t": 99750,
      "d": 812.5,
      "v": 64
    },
    {
      "midi": 69,
      "hit": false,
      "t": 100500,
      "d": 1500,
      "v": 80
    },
    {
      "midi": 81,
      "hit": false,
      "t": 100500,
      "d": 1468.75,
      "v": 95
    },
    {
      "midi": 65,
      "hit": false,
      "t": 100500,
      "d": 812.5,
      "v": 65
    },
    {
      "midi": 62,
      "hit": false,
      "t": 101250,
      "d": 812.5,
      "v": 62
    },
    {
      "midi": 67,
      "hit": false,
      "t": 102000,
      "d": 812.5,
      "v": 74
    },
    {
      "midi": 55,
      "hit": false,
      "t": 102000,
      "d": 3093.75,
      "v": 80
    },
    {
      "midi": 43,
      "hit": false,
      "t": 102000,
      "d": 3000,
      "v": 95
    },
    {
      "midi": 43,
      "hit": false,
      "t": 102000,
      "d": 2937.5,
      "v": 110
    },
    {
      "midi": 79,
      "hit": false,
      "t": 102000,
      "d": 812.5,
      "v": 88
    },
    {
      "midi": 65,
      "hit": false,
      "t": 102750,
      "d": 3500,
      "v": 70
    },
    {
      "midi": 62,
      "hit": false,
      "t": 102750,
      "d": 812.5,
      "v": 69
    },
    {
      "midi": 77,
      "hit": false,
      "t": 102750,
      "d": 3625,
      "v": 90
    },
    {
      "midi": 58,
      "hit": false,
      "t": 102750,
      "d": 812.5,
      "v": 75
    },
    {
      "midi": 65,
      "hit": false,
      "t": 103500,
      "d": 812.5,
      "v": 61
    },
    {
      "midi": 65,
      "hit": false,
      "t": 103500,
      "d": 812.5,
      "v": 77
    },
    {
      "midi": 62,
      "hit": false,
      "t": 104250,
      "d": 3750,
      "v": 67
    },
    {
      "midi": 58,
      "hit": false,
      "t": 104250,
      "d": 812.5,
      "v": 69
    },
    {
      "midi": 58,
      "hit": false,
      "t": 105000,
      "d": 3062.5,
      "v": 70
    },
    {
      "midi": 48,
      "hit": false,
      "t": 105000,
      "d": 3000,
      "v": 95
    },
    {
      "midi": 36,
      "hit": false,
      "t": 105000,
      "d": 2937.5,
      "v": 110
    },
    {
      "midi": 62,
      "hit": false,
      "t": 105000,
      "d": 812.5,
      "v": 68
    },
    {
      "midi": 58,
      "hit": false,
      "t": 105750,
      "d": 812.5,
      "v": 64
    },
    {
      "midi": 65,
      "hit": false,
      "t": 106500,
      "d": 10437.5,
      "v": 70
    },
    {
      "midi": 77,
      "hit": false,
      "t": 106500,
      "d": 10468.75,
      "v": 80
    },
    {
      "midi": 62,
      "hit": false,
      "t": 106500,
      "d": 812.5,
      "v": 61
    },
    {
      "midi": 58,
      "hit": false,
      "t": 107250,
      "d": 625,
      "v": 62
    },
    {
      "midi": 60,
      "hit": false,
      "t": 108000,
      "d": 11812.5,
      "v": 61
    },
    {
      "midi": 53,
      "hit": false,
      "t": 108000,
      "d": 11750,
      "v": 70
    },
    {
      "midi": 46,
      "hit": false,
      "t": 108000,
      "d": 3062.5,
      "v": 85
    },
    {
      "midi": 34,
      "hit": false,
      "t": 108000,
      "d": 2937.5,
      "v": 110
    },
    {
      "midi": 60,
      "hit": false,
      "t": 108000,
      "d": 2312.5,
      "v": 80
    },
    {
      "midi": 58,
      "hit": false,
      "t": 108000,
      "d": 3000,
      "v": 80
    },
    {
      "midi": 64,
      "hit": false,
      "t": 110250,
      "d": 437.5,
      "v": 80
    },
    {
      "midi": 65,
      "hit": false,
      "t": 110625,
      "d": 1937.5,
      "v": 80
    },
    {
      "midi": 45,
      "hit": false,
      "t": 111000,
      "d": 3062.5,
      "v": 87
    },
    {
      "midi": 33,
      "hit": false,
      "t": 111000,
      "d": 2937.5,
      "v": 110
    },
    {
      "midi": 57,
      "hit": false,
      "t": 111000,
      "d": 2312.5,
      "v": 80
    },
    {
      "midi": 67,
      "hit": false,
      "t": 112500,
      "d": 812.5,
      "v": 80
    },
    {
      "midi": 69,
      "hit": false,
      "t": 113250,
      "d": 3062.5,
      "v": 89
    },
    {
      "midi": 58,
      "hit": false,
      "t": 113250,
      "d": 812.5,
      "v": 83
    },
    {
      "midi": 43,
      "hit": false,
      "t": 114000,
      "d": 3062.5,
      "v": 87
    },
    {
      "midi": 31,
      "hit": false,
      "t": 114000,
      "d": 2937.5,
      "v": 110
    },
    {
      "midi": 60,
      "hit": false,
      "t": 114000,
      "d": 2312.5,
      "v": 105
    },
    {
      "midi": 70,
      "hit": false,
      "t": 116250,
      "d": 437.5,
      "v": 80
    },
    {
      "midi": 62,
      "hit": false,
      "t": 116250,
      "d": 437.5,
      "v": 90
    },
    {
      "midi": 72,
      "hit": false,
      "t": 116625,
      "d": 3250,
      "v": 80
    },
    {
      "midi": 64,
      "hit": false,
      "t": 116625,
      "d": 1187.5,
      "v": 86
    },
    {
      "midi": 41,
      "hit": false,
      "t": 117000,
      "d": 3062.5,
      "v": 87
    },
    {
      "midi": 29,
      "hit": false,
      "t": 117000,
      "d": 2937.5,
      "v": 110
    },
    {
      "midi": 81,
      "hit": false,
      "t": 117750,
      "d": 812.5,
      "v": 99
    },
    {
      "midi": 65,
      "hit": false,
      "t": 117750,
      "d": 812.5,
      "v": 85
    },
    {
      "midi": 82,
      "hit": false,
      "t": 118500,
      "d": 812.5,
      "v": 91
    },
    {
      "midi": 67,
      "hit": false,
      "t": 118500,
      "d": 812.5,
      "v": 82
    },
    {
      "midi": 84,
      "hit": false,
      "t": 119250,
      "d": 1562.5,
      "v": 95
    },
    {
      "midi": 69,
      "hit": false,
      "t": 119250,
      "d": 687.5,
      "v": 78
    },
    {
      "midi": 70,
      "hit": false,
      "t": 120000,
      "d": 6000,
      "v": 75
    },
    {
      "midi": 62,
      "hit": false,
      "t": 120000,
      "d": 6000,
      "v": 60
    },
    {
      "midi": 34,
      "hit": false,
      "t": 120000,
      "d": 6031.25,
      "v": 90
    },
    {
      "midi": 77,
      "hit": false,
      "t": 120000,
      "d": 312.5,
      "v": 90
    },
    {
      "midi": 62,
      "hit": false,
      "t": 120000,
      "d": 312.5,
      "v": 90
    },
    {
      "midi": 79,
      "hit": false,
      "t": 120000,
      "d": 718.75,
      "v": 105
    },
    {
      "midi": 91,
      "hit": false,
      "t": 120000,
      "d": 718.75,
      "v": 65
    },
    {
      "midi": 81,
      "hit": false,
      "t": 120750,
      "d": 812.5,
      "v": 88
    },
    {
      "midi": 77,
      "hit": false,
      "t": 120750,
      "d": 312.5,
      "v": 80
    },
    {
      "midi": 62,
      "hit": false,
      "t": 120750,
      "d": 312.5,
      "v": 80
    },
    {
      "midi": 77,
      "hit": false,
      "t": 120750,
      "d": 718.75,
      "v": 95
    },
    {
      "midi": 89,
      "hit": false,
      "t": 120750,
      "d": 718.75,
      "v": 65
    },
    {
      "midi": 82,
      "hit": false,
      "t": 121500,
      "d": 812.5,
      "v": 89
    },
    {
      "midi": 77,
      "hit": false,
      "t": 121500,
      "d": 312.5,
      "v": 78
    },
    {
      "midi": 62,
      "hit": false,
      "t": 121500,
      "d": 312.5,
      "v": 78
    },
    {
      "midi": 72,
      "hit": false,
      "t": 121500,
      "d": 718.75,
      "v": 89
    },
    {
      "midi": 79,
      "hit": false,
      "t": 121500,
      "d": 718.75,
      "v": 55
    },
    {
      "midi": 84,
      "hit": false,
      "t": 122250,
      "d": 1562.5,
      "v": 103
    },
    {
      "midi": 77,
      "hit": false,
      "t": 122250,
      "d": 312.5,
      "v": 65
    },
    {
      "midi": 62,
      "hit": false,
      "t": 122250,
      "d": 312.5,
      "v": 65
    },
    {
      "midi": 67,
      "hit": false,
      "t": 122250,
      "d": 718.75,
      "v": 83
    },
    {
      "midi": 77,
      "hit": false,
      "t": 122250,
      "d": 718.75,
      "v": 55
    },
    {
      "midi": 79,
      "hit": false,
      "t": 123000,
      "d": 718.75,
      "v": 104
    },
    {
      "midi": 91,
      "hit": false,
      "t": 123000,
      "d": 718.75,
      "v": 65
    },
    {
      "midi": 81,
      "hit": false,
      "t": 123750,
      "d": 812.5,
      "v": 88
    },
    {
      "midi": 77,
      "hit": false,
      "t": 123750,
      "d": 718.75,
      "v": 95
    },
    {
      "midi": 89,
      "hit": false,
      "t": 123750,
      "d": 718.75,
      "v": 65
    },
    {
      "midi": 82,
      "hit": false,
      "t": 124500,
      "d": 812.5,
      "v": 87
    },
    {
      "midi": 53,
      "hit": false,
      "t": 124500,
      "d": 812.5,
      "v": 88
    },
    {
      "midi": 72,
      "hit": false,
      "t": 124500,
      "d": 718.75,
      "v": 81
    },
    {
      "midi": 79,
      "hit": false,
      "t": 124500,
      "d": 718.75,
      "v": 55
    },
    {
      "midi": 84,
      "hit": false,
      "t": 125250,
      "d": 3000,
      "v": 95
    },
    {
      "midi": 55,
      "hit": false,
      "t": 125250,
      "d": 812.5,
      "v": 75
    },
    {
      "midi": 67,
      "hit": false,
      "t": 125250,
      "d": 718.75,
      "v": 74
    },
    {
      "midi": 77,
      "hit": false,
      "t": 125250,
      "d": 718.75,
      "v": 55
    },
    {
      "midi": 60,
      "hit": false,
      "t": 126000,
      "d": 5875,
      "v": 60
    },
    {
      "midi": 69,
      "hit": false,
      "t": 126000,
      "d": 5906.25,
      "v": 75
    },
    {
      "midi": 57,
      "hit": false,
      "t": 126000,
      "d": 6000,
      "v": 88
    },
    {
      "midi": 33,
      "hit": false,
      "t": 126000,
      "d": 6031.25,
      "v": 90
    },
    {
      "midi": 77,
      "hit": false,
      "t": 126000,
      "d": 312.5,
      "v": 90
    },
    {
      "midi": 60,
      "hit": false,
      "t": 126000,
      "d": 312.5,
      "v": 90
    },
    {
      "midi": 79,
      "hit": false,
      "t": 126000,
      "d": 718.75,
      "v": 105
    },
    {
      "midi": 91,
      "hit": false,
      "t": 126000,
      "d": 718.75,
      "v": 65
    },
    {
      "midi": 77,
      "hit": false,
      "t": 126750,
      "d": 312.5,
      "v": 80
    },
    {
      "midi": 60,
      "hit": false,
      "t": 126750,
      "d": 312.5,
      "v": 80
    },
    {
      "midi": 77,
      "hit": false,
      "t": 126750,
      "d": 718.75,
      "v": 95
    },
    {
      "midi": 89,
      "hit": false,
      "t": 126750,
      "d": 718.75,
      "v": 65
    },
    {
      "midi": 77,
      "hit": false,
      "t": 127500,
      "d": 312.5,
      "v": 78
    },
    {
      "midi": 60,
      "hit": false,
      "t": 127500,
      "d": 312.5,
      "v": 78
    },
    {
      "midi": 72,
      "hit": false,
      "t": 127500,
      "d": 718.75,
      "v": 89
    },
    {
      "midi": 79,
      "hit": false,
      "t": 127500,
      "d": 718.75,
      "v": 55
    },
    {
      "midi": 88,
      "hit": false,
      "t": 128250,
      "d": 2312.5,
      "v": 97
    },
    {
      "midi": 77,
      "hit": false,
      "t": 128250,
      "d": 312.5,
      "v": 65
    },
    {
      "midi": 60,
      "hit": false,
      "t": 128250,
      "d": 312.5,
      "v": 65
    },
    {
      "midi": 67,
      "hit": false,
      "t": 128250,
      "d": 718.75,
      "v": 83
    },
    {
      "midi": 77,
      "hit": false,
      "t": 128250,
      "d": 718.75,
      "v": 55
    },
    {
      "midi": 55,
      "hit": false,
      "t": 129000,
      "d": 1562.5,
      "v": 95
    },
    {
      "midi": 79,
      "hit": false,
      "t": 129000,
      "d": 718.75,
      "v": 104
    },
    {
      "midi": 91,
      "hit": false,
      "t": 129000,
      "d": 718.75,
      "v": 65
    },
    {
      "midi": 77,
      "hit": false,
      "t": 129750,
      "d": 718.75,
      "v": 95
    },
    {
      "midi": 89,
      "hit": false,
      "t": 129750,
      "d": 718.75,
      "v": 65
    },
    {
      "midi": 89,
      "hit": false,
      "t": 130500,
      "d": 812.5,
      "v": 83
    },
    {
      "midi": 57,
      "hit": false,
      "t": 130500,
      "d": 1562.5,
      "v": 88
    },
    {
      "midi": 72,
      "hit": false,
      "t": 130500,
      "d": 718.75,
      "v": 81
    },
    {
      "midi": 79,
      "hit": false,
      "t": 130500,
      "d": 718.75,
      "v": 55
    },
    {
      "midi": 84,
      "hit": false,
      "t": 131250,
      "d": 4375,
      "v": 89
    },
    {
      "midi": 67,
      "hit": false,
      "t": 131250,
      "d": 718.75,
      "v": 74
    },
    {
      "midi": 77,
      "hit": false,
      "t": 131250,
      "d": 718.75,
      "v": 55
    },
    {
      "midi": 65,
      "hit": false,
      "t": 132000,
      "d": 3031.25,
      "v": 69
    },
    {
      "midi": 74,
      "hit": false,
      "t": 132000,
      "d": 3062.5,
      "v": 92
    },
    {
      "midi": 58,
      "hit": false,
      "t": 132000,
      "d": 3062.5,
      "v": 75
    },
    {
      "midi": 58,
      "hit": false,
      "t": 132000,
      "d": 3000,
      "v": 110
    },
    {
      "midi": 31,
      "hit": false,
      "t": 132000,
      "d": 3062.5,
      "v": 90
    },
    {
      "midi": 77,
      "hit": false,
      "t": 132000,
      "d": 312.5,
      "v": 90
    },
    {
      "midi": 62,
      "hit": false,
      "t": 132000,
      "d": 312.5,
      "v": 90
    },
    {
      "midi": 70,
      "hit": false,
      "t": 132000,
      "d": 718.75,
      "v": 80
    },
    {
      "midi": 79,
      "hit": false,
      "t": 132000,
      "d": 718.75,
      "v": 105
    },
    {
      "midi": 91,
      "hit": false,
      "t": 132000,
      "d": 718.75,
      "v": 65
    },
    {
      "midi": 77,
      "hit": false,
      "t": 132750,
      "d": 312.5,
      "v": 80
    },
    {
      "midi": 62,
      "hit": false,
      "t": 132750,
      "d": 312.5,
      "v": 80
    },
    {
      "midi": 70,
      "hit": false,
      "t": 132750,
      "d": 718.75,
      "v": 80
    },
    {
      "midi": 77,
      "hit": false,
      "t": 132750,
      "d": 718.75,
      "v": 95
    },
    {
      "midi": 89,
      "hit": false,
      "t": 132750,
      "d": 718.75,
      "v": 65
    },
    {
      "midi": 77,
      "hit": false,
      "t": 133500,
      "d": 312.5,
      "v": 78
    },
    {
      "midi": 62,
      "hit": false,
      "t": 133500,
      "d": 312.5,
      "v": 78
    },
    {
      "midi": 62,
      "hit": false,
      "t": 133500,
      "d": 718.75,
      "v": 65
    },
    {
      "midi": 72,
      "hit": false,
      "t": 133500,
      "d": 718.75,
      "v": 82
    },
    {
      "midi": 79,
      "hit": false,
      "t": 133500,
      "d": 718.75,
      "v": 55
    },
    {
      "midi": 77,
      "hit": false,
      "t": 134250,
      "d": 312.5,
      "v": 65
    },
    {
      "midi": 62,
      "hit": false,
      "t": 134250,
      "d": 312.5,
      "v": 65
    },
    {
      "midi": 62,
      "hit": false,
      "t": 134250,
      "d": 718.75,
      "v": 65
    },
    {
      "midi": 67,
      "hit": false,
      "t": 134250,
      "d": 718.75,
      "v": 83
    },
    {
      "midi": 77,
      "hit": false,
      "t": 134250,
      "d": 718.75,
      "v": 55
    },
    {
      "midi": 64,
      "hit": false,
      "t": 135000,
      "d": 3031.25,
      "v": 68
    },
    {
      "midi": 73,
      "hit": false,
      "t": 135000,
      "d": 3062.5,
      "v": 92
    },
    {
      "midi": 55,
      "hit": false,
      "t": 135000,
      "d": 3062.5,
      "v": 71
    },
    {
      "midi": 64,
      "hit": false,
      "t": 135000,
      "d": 3062.5,
      "v": 95
    },
    {
      "midi": 33,
      "hit": false,
      "t": 135000,
      "d": 3062.5,
      "v": 90
    },
    {
      "midi": 79,
      "hit": false,
      "t": 135000,
      "d": 718.75,
      "v": 105
    },
    {
      "midi": 91,
      "hit": false,
      "t": 135000,
      "d": 718.75,
      "v": 65
    },
    {
      "midi": 82,
      "hit": false,
      "t": 135750,
      "d": 1531.25,
      "v": 95
    },
    {
      "midi": 77,
      "hit": false,
      "t": 135750,
      "d": 718.75,
      "v": 95
    },
    {
      "midi": 89,
      "hit": false,
      "t": 135750,
      "d": 718.75,
      "v": 65
    },
    {
      "midi": 67,
      "hit": false,
      "t": 136500,
      "d": 718.75,
      "v": 82
    },
    {
      "midi": 81,
      "hit": false,
      "t": 136500,
      "d": 718.75,
      "v": 55
    },
    {
      "midi": 81,
      "hit": false,
      "t": 137250,
      "d": 4250,
      "v": 86
    },
    {
      "midi": 69,
      "hit": false,
      "t": 137250,
      "d": 718.75,
      "v": 83
    },
    {
      "midi": 77,
      "hit": false,
      "t": 137250,
      "d": 718.75,
      "v": 55
    },
    {
      "midi": 72,
      "hit": false,
      "t": 138000,
      "d": 5937.5,
      "v": 89
    },
    {
      "midi": 65,
      "hit": false,
      "t": 138000,
      "d": 6000,
      "v": 61
    },
    {
      "midi": 53,
      "hit": false,
      "t": 138000,
      "d": 5906.25,
      "v": 70
    },
    {
      "midi": 65,
      "hit": false,
      "t": 138000,
      "d": 3062.5,
      "v": 111
    },
    {
      "midi": 38,
      "hit": false,
      "t": 138000,
      "d": 3062.5,
      "v": 90
    },
    {
      "midi": 77,
      "hit": false,
      "t": 138000,
      "d": 312.5,
      "v": 90
    },
    {
      "midi": 62,
      "hit": false,
      "t": 138000,
      "d": 312.5,
      "v": 90
    },
    {
      "midi": 69,
      "hit": false,
      "t": 138000,
      "d": 718.75,
      "v": 80
    },
    {
      "midi": 79,
      "hit": false,
      "t": 138000,
      "d": 718.75,
      "v": 105
    },
    {
      "midi": 91,
      "hit": false,
      "t": 138000,
      "d": 718.75,
      "v": 65
    },
    {
      "midi": 77,
      "hit": false,
      "t": 138750,
      "d": 312.5,
      "v": 80
    },
    {
      "midi": 62,
      "hit": false,
      "t": 138750,
      "d": 312.5,
      "v": 80
    },
    {
      "midi": 69,
      "hit": false,
      "t": 138750,
      "d": 718.75,
      "v": 80
    },
    {
      "midi": 77,
      "hit": false,
      "t": 138750,
      "d": 718.75,
      "v": 95
    },
    {
      "midi": 89,
      "hit": false,
      "t": 138750,
      "d": 718.75,
      "v": 65
    },
    {
      "midi": 77,
      "hit": false,
      "t": 139500,
      "d": 312.5,
      "v": 78
    },
    {
      "midi": 62,
      "hit": false,
      "t": 139500,
      "d": 312.5,
      "v": 78
    },
    {
      "midi": 64,
      "hit": false,
      "t": 139500,
      "d": 718.75,
      "v": 65
    },
    {
      "midi": 67,
      "hit": false,
      "t": 139500,
      "d": 718.75,
      "v": 82
    },
    {
      "midi": 79,
      "hit": false,
      "t": 139500,
      "d": 718.75,
      "v": 55
    },
    {
      "midi": 77,
      "hit": false,
      "t": 140250,
      "d": 312.5,
      "v": 65
    },
    {
      "midi": 62,
      "hit": false,
      "t": 140250,
      "d": 312.5,
      "v": 65
    },
    {
      "midi": 64,
      "hit": false,
      "t": 140250,
      "d": 718.75,
      "v": 65
    },
    {
      "midi": 69,
      "hit": false,
      "t": 140250,
      "d": 718.75,
      "v": 83
    },
    {
      "midi": 77,
      "hit": false,
      "t": 140250,
      "d": 718.75,
      "v": 55
    },
    {
      "midi": 64,
      "hit": false,
      "t": 141000,
      "d": 3000,
      "v": 99
    },
    {
      "midi": 36,
      "hit": false,
      "t": 141000,
      "d": 3062.5,
      "v": 90
    },
    {
      "midi": 69,
      "hit": false,
      "t": 141000,
      "d": 718.75,
      "v": 80
    },
    {
      "midi": 79,
      "hit": false,
      "t": 141000,
      "d": 718.75,
      "v": 105
    },
    {
      "midi": 91,
      "hit": false,
      "t": 141000,
      "d": 718.75,
      "v": 65
    },
    {
      "midi": 81,
      "hit": false,
      "t": 141750,
      "d": 812.5,
      "v": 90
    },
    {
      "midi": 69,
      "hit": false,
      "t": 141750,
      "d": 718.75,
      "v": 80
    },
    {
      "midi": 77,
      "hit": false,
      "t": 141750,
      "d": 718.75,
      "v": 95
    },
    {
      "midi": 89,
      "hit": false,
      "t": 141750,
      "d": 718.75,
      "v": 65
    },
    {
      "midi": 82,
      "hit": false,
      "t": 142500,
      "d": 812.5,
      "v": 91
    },
    {
      "midi": 67,
      "hit": false,
      "t": 142500,
      "d": 718.75,
      "v": 82
    },
    {
      "midi": 79,
      "hit": false,
      "t": 142500,
      "d": 718.75,
      "v": 55
    },
    {
      "midi": 84,
      "hit": false,
      "t": 143250,
      "d": 1562.5,
      "v": 90
    },
    {
      "midi": 69,
      "hit": false,
      "t": 143250,
      "d": 718.75,
      "v": 83
    },
    {
      "midi": 77,
      "hit": false,
      "t": 143250,
      "d": 718.75,
      "v": 55
    },
    {
      "midi": 65,
      "hit": false,
      "t": 144000,
      "d": 6000,
      "v": 60
    },
    {
      "midi": 74,
      "hit": false,
      "t": 144000,
      "d": 6000,
      "v": 90
    },
    {
      "midi": 53,
      "hit": false,
      "t": 144000,
      "d": 6000,
      "v": 93
    },
    {
      "midi": 62,
      "hit": false,
      "t": 144000,
      "d": 6000,
      "v": 89
    },
    {
      "midi": 34,
      "hit": false,
      "t": 144000,
      "d": 5968.75,
      "v": 90
    },
    {
      "midi": 77,
      "hit": false,
      "t": 144000,
      "d": 312.5,
      "v": 90
    },
    {
      "midi": 62,
      "hit": false,
      "t": 144000,
      "d": 312.5,
      "v": 90
    },
    {
      "midi": 91,
      "hit": false,
      "t": 144000,
      "d": 718.75,
      "v": 65
    },
    {
      "midi": 81,
      "hit": false,
      "t": 144750,
      "d": 812.5,
      "v": 87
    },
    {
      "midi": 77,
      "hit": false,
      "t": 144750,
      "d": 312.5,
      "v": 80
    },
    {
      "midi": 62,
      "hit": false,
      "t": 144750,
      "d": 312.5,
      "v": 80
    },
    {
      "midi": 89,
      "hit": false,
      "t": 144750,
      "d": 718.75,
      "v": 65
    },
    {
      "midi": 82,
      "hit": false,
      "t": 145500,
      "d": 812.5,
      "v": 91
    },
    {
      "midi": 77,
      "hit": false,
      "t": 145500,
      "d": 312.5,
      "v": 78
    },
    {
      "midi": 62,
      "hit": false,
      "t": 145500,
      "d": 312.5,
      "v": 78
    },
    {
      "midi": 79,
      "hit": false,
      "t": 145500,
      "d": 718.75,
      "v": 55
    },
    {
      "midi": 84,
      "hit": false,
      "t": 146250,
      "d": 1562.5,
      "v": 103
    },
    {
      "midi": 77,
      "hit": false,
      "t": 146250,
      "d": 312.5,
      "v": 65
    },
    {
      "midi": 62,
      "hit": false,
      "t": 146250,
      "d": 312.5,
      "v": 65
    },
    {
      "midi": 77,
      "hit": false,
      "t": 146250,
      "d": 718.75,
      "v": 55
    },
    {
      "midi": 91,
      "hit": false,
      "t": 147000,
      "d": 718.75,
      "v": 65
    },
    {
      "midi": 81,
      "hit": false,
      "t": 147750,
      "d": 812.5,
      "v": 89
    },
    {
      "midi": 89,
      "hit": false,
      "t": 147750,
      "d": 718.75,
      "v": 65
    },
    {
      "midi": 82,
      "hit": false,
      "t": 148500,
      "d": 812.5,
      "v": 92
    },
    {
      "midi": 79,
      "hit": false,
      "t": 148500,
      "d": 718.75,
      "v": 55
    },
    {
      "midi": 84,
      "hit": false,
      "t": 149250,
      "d": 3000,
      "v": 104
    },
    {
      "midi": 77,
      "hit": false,
      "t": 149250,
      "d": 718.75,
      "v": 55
    },
    {
      "midi": 67,
      "hit": false,
      "t": 150000,
      "d": 2312.5,
      "v": 65
    },
    {
      "midi": 76,
      "hit": false,
      "t": 150000,
      "d": 2312.5,
      "v": 95
    },
    {
      "midi": 55,
      "hit": false,
      "t": 150000,
      "d": 2312.5,
      "v": 94
    },
    {
      "midi": 60,
      "hit": false,
      "t": 150000,
      "d": 2312.5,
      "v": 105
    },
    {
      "midi": 33,
      "hit": false,
      "t": 150000,
      "d": 2062.5,
      "v": 90
    },
    {
      "midi": 76,
      "hit": false,
      "t": 150000,
      "d": 312.5,
      "v": 90
    },
    {
      "midi": 60,
      "hit": false,
      "t": 150000,
      "d": 312.5,
      "v": 90
    },
    {
      "midi": 86,
      "hit": false,
      "t": 150000,
      "d": 718.75,
      "v": 65
    },
    {
      "midi": 76,
      "hit": false,
      "t": 150750,
      "d": 312.5,
      "v": 80
    },
    {
      "midi": 60,
      "hit": false,
      "t": 150750,
      "d": 312.5,
      "v": 80
    },
    {
      "midi": 84,
      "hit": false,
      "t": 150750,
      "d": 718.75,
      "v": 65
    },
    {
      "midi": 76,
      "hit": false,
      "t": 151500,
      "d": 312.5,
      "v": 78
    },
    {
      "midi": 60,
      "hit": false,
      "t": 151500,
      "d": 312.5,
      "v": 78
    },
    {
      "midi": 79,
      "hit": false,
      "t": 151500,
      "d": 718.75,
      "v": 55
    },
    {
      "midi": 89,
      "hit": false,
      "t": 152250,
      "d": 3718.75,
      "v": 98
    },
    {
      "midi": 69,
      "hit": false,
      "t": 152250,
      "d": 3593.75,
      "v": 71
    },
    {
      "midi": 77,
      "hit": false,
      "t": 152250,
      "d": 3656.25,
      "v": 96
    },
    {
      "midi": 57,
      "hit": false,
      "t": 152250,
      "d": 3750,
      "v": 96
    },
    {
      "midi": 62,
      "hit": false,
      "t": 152250,
      "d": 2312.5,
      "v": 102
    },
    {
      "midi": 38,
      "hit": false,
      "t": 152250,
      "d": 3750,
      "v": 90
    },
    {
      "midi": 65,
      "hit": false,
      "t": 152250,
      "d": 1562.5,
      "v": 106
    },
    {
      "midi": 62,
      "hit": false,
      "t": 152250,
      "d": 1562.5,
      "v": 106
    },
    {
      "midi": 77,
      "hit": false,
      "t": 152250,
      "d": 718.75,
      "v": 55
    },
    {
      "midi": 86,
      "hit": false,
      "t": 153000,
      "d": 718.75,
      "v": 65
    },
    {
      "midi": 67,
      "hit": false,
      "t": 153750,
      "d": 812.5,
      "v": 105
    },
    {
      "midi": 64,
      "hit": false,
      "t": 153750,
      "d": 812.5,
      "v": 105
    },
    {
      "midi": 84,
      "hit": false,
      "t": 153750,
      "d": 718.75,
      "v": 65
    },
    {
      "midi": 60,
      "hit": false,
      "t": 154500,
      "d": 1500,
      "v": 102
    },
    {
      "midi": 69,
      "hit": false,
      "t": 154500,
      "d": 812.5,
      "v": 99
    },
    {
      "midi": 65,
      "hit": false,
      "t": 154500,
      "d": 812.5,
      "v": 99
    },
    {
      "midi": 79,
      "hit": false,
      "t": 154500,
      "d": 718.75,
      "v": 55
    },
    {
      "midi": 72,
      "hit": false,
      "t": 155250,
      "d": 812.5,
      "v": 99
    },
    {
      "midi": 69,
      "hit": false,
      "t": 155250,
      "d": 812.5,
      "v": 99
    },
    {
      "midi": 77,
      "hit": false,
      "t": 155250,
      "d": 718.75,
      "v": 55
    },
    {
      "midi": 86,
      "hit": false,
      "t": 156000,
      "d": 812.5,
      "v": 99
    },
    {
      "midi": 67,
      "hit": false,
      "t": 156000,
      "d": 1468.75,
      "v": 74
    },
    {
      "midi": 74,
      "hit": false,
      "t": 156000,
      "d": 8937.5,
      "v": 74
    },
    {
      "midi": 55,
      "hit": false,
      "t": 156000,
      "d": 1562.5,
      "v": 105
    },
    {
      "midi": 59,
      "hit": false,
      "t": 156000,
      "d": 1562.5,
      "v": 118
    },
    {
      "midi": 31,
      "hit": false,
      "t": 156000,
      "d": 6000,
      "v": 90
    },
    {
      "midi": 71,
      "hit": false,
      "t": 156000,
      "d": 1562.5,
      "v": 112
    },
    {
      "midi": 67,
      "hit": false,
      "t": 156000,
      "d": 1562.5,
      "v": 112
    },
    {
      "midi": 79,
      "hit": false,
      "t": 156000,
      "d": 718.75,
      "v": 65
    },
    {
      "midi": 88,
      "hit": false,
      "t": 156750,
      "d": 812.5,
      "v": 92
    },
    {
      "midi": 77,
      "hit": false,
      "t": 156750,
      "d": 718.75,
      "v": 65
    },
    {
      "midi": 89,
      "hit": false,
      "t": 157500,
      "d": 812.5,
      "v": 84
    },
    {
      "midi": 66,
      "hit": false,
      "t": 157500,
      "d": 1468.75,
      "v": 70
    },
    {
      "midi": 54,
      "hit": false,
      "t": 157500,
      "d": 1562.5,
      "v": 90
    },
    {
      "midi": 58,
      "hit": false,
      "t": 157500,
      "d": 1562.5,
      "v": 109
    },
    {
      "midi": 70,
      "hit": false,
      "t": 157500,
      "d": 1562.5,
      "v": 94
    },
    {
      "midi": 66,
      "hit": false,
      "t": 157500,
      "d": 1562.5,
      "v": 94
    },
    {
      "midi": 74,
      "hit": false,
      "t": 157500,
      "d": 718.75,
      "v": 55
    },
    {
      "midi": 86,
      "hit": false,
      "t": 158250,
      "d": 1500,
      "v": 87
    },
    {
      "midi": 70,
      "hit": false,
      "t": 158250,
      "d": 718.75,
      "v": 55
    },
    {
      "midi": 65,
      "hit": false,
      "t": 159000,
      "d": 2937.5,
      "v": 62
    },
    {
      "midi": 53,
      "hit": false,
      "t": 159000,
      "d": 2937.5,
      "v": 83
    },
    {
      "midi": 57,
      "hit": false,
      "t": 159000,
      "d": 3000,
      "v": 110
    },
    {
      "midi": 69,
      "hit": false,
      "t": 159000,
      "d": 2906.25,
      "v": 86
    },
    {
      "midi": 65,
      "hit": false,
      "t": 159000,
      "d": 2906.25,
      "v": 86
    },
    {
      "midi": 79,
      "hit": false,
      "t": 159000,
      "d": 718.75,
      "v": 65
    },
    {
      "midi": 81,
      "hit": false,
      "t": 159750,
      "d": 1562.5,
      "v": 91
    },
    {
      "midi": 77,
      "hit": false,
      "t": 159750,
      "d": 718.75,
      "v": 65
    },
    {
      "midi": 74,
      "hit": false,
      "t": 160500,
      "d": 718.75,
      "v": 55
    },
    {
      "midi": 86,
      "hit": false,
      "t": 161250,
      "d": 3062.5,
      "v": 91
    },
    {
      "midi": 70,
      "hit": false,
      "t": 161250,
      "d": 718.75,
      "v": 55
    },
    {
      "midi": 65,
      "hit": false,
      "t": 162000,
      "d": 5875,
      "v": 63
    },
    {
      "midi": 58,
      "hit": false,
      "t": 162000,
      "d": 1500,
      "v": 76
    },
    {
      "midi": 58,
      "hit": false,
      "t": 162000,
      "d": 1562.5,
      "v": 108
    },
    {
      "midi": 36,
      "hit": false,
      "t": 162000,
      "d": 11875,
      "v": 90
    },
    {
      "midi": 62,
      "hit": false,
      "t": 162000,
      "d": 1562.5,
      "v": 80
    },
    {
      "midi": 58,
      "hit": false,
      "t": 162000,
      "d": 1562.5,
      "v": 80
    },
    {
      "midi": 79,
      "hit": false,
      "t": 162000,
      "d": 718.75,
      "v": 55
    },
    {
      "midi": 77,
      "hit": false,
      "t": 162750,
      "d": 718.75,
      "v": 55
    },
    {
      "midi": 60,
      "hit": false,
      "t": 163500,
      "d": 1500,
      "v": 69
    },
    {
      "midi": 60,
      "hit": false,
      "t": 163500,
      "d": 1562.5,
      "v": 104
    },
    {
      "midi": 64,
      "hit": false,
      "t": 163500,
      "d": 1562.5,
      "v": 91
    },
    {
      "midi": 60,
      "hit": false,
      "t": 163500,
      "d": 1562.5,
      "v": 91
    },
    {
      "midi": 74,
      "hit": false,
      "t": 163500,
      "d": 718.75,
      "v": 45
    },
    {
      "midi": 87,
      "hit": false,
      "t": 164250,
      "d": 437.5,
      "v": 82
    },
    {
      "midi": 70,
      "hit": false,
      "t": 164250,
      "d": 718.75,
      "v": 45
    },
    {
      "midi": 86,
      "hit": false,
      "t": 164625,
      "d": 437.5,
      "v": 87
    },
    {
      "midi": 84,
      "hit": false,
      "t": 165000,
      "d": 8781.25,
      "v": 87
    },
    {
      "midi": 58,
      "hit": false,
      "t": 165000,
      "d": 2968.75,
      "v": 66
    },
    {
      "midi": 58,
      "hit": false,
      "t": 165000,
      "d": 2843.75,
      "v": 102
    },
    {
      "midi": 65,
      "hit": false,
      "t": 165000,
      "d": 1562.5,
      "v": 91
    },
    {
      "midi": 62,
      "hit": false,
      "t": 165000,
      "d": 1562.5,
      "v": 97
    },
    {
      "midi": 79,
      "hit": false,
      "t": 165000,
      "d": 718.75,
      "v": 55
    },
    {
      "midi": 77,
      "hit": false,
      "t": 165750,
      "d": 718.75,
      "v": 55
    },
    {
      "midi": 67,
      "hit": false,
      "t": 166500,
      "d": 1562.5,
      "v": 102
    },
    {
      "midi": 64,
      "hit": false,
      "t": 166500,
      "d": 1562.5,
      "v": 102
    },
    {
      "midi": 74,
      "hit": false,
      "t": 166500,
      "d": 718.75,
      "v": 45
    },
    {
      "midi": 70,
      "hit": false,
      "t": 167250,
      "d": 718.75,
      "v": 45
    },
    {
      "midi": 62,
      "hit": false,
      "t": 168000,
      "d": 5875,
      "v": 50
    },
    {
      "midi": 53,
      "hit": false,
      "t": 168000,
      "d": 6312.5,
      "v": 56
    },
    {
      "midi": 53,
      "hit": false,
      "t": 168000,
      "d": 5781.25,
      "v": 80
    },
    {
      "midi": 69,
      "hit": false,
      "t": 168000,
      "d": 1562.5,
      "v": 116
    },
    {
      "midi": 65,
      "hit": false,
      "t": 168000,
      "d": 1562.5,
      "v": 116
    },
    {
      "midi": 79,
      "hit": false,
      "t": 168000,
      "d": 718.75,
      "v": 50
    },
    {
      "midi": 77,
      "hit": false,
      "t": 168750,
      "d": 718.75,
      "v": 48
    },
    {
      "midi": 70,
      "hit": false,
      "t": 169500,
      "d": 1562.5,
      "v": 100
    },
    {
      "midi": 67,
      "hit": false,
      "t": 169500,
      "d": 1562.5,
      "v": 98
    },
    {
      "midi": 74,
      "hit": false,
      "t": 169500,
      "d": 718.75,
      "v": 37
    },
    {
      "midi": 70,
      "hit": false,
      "t": 170250,
      "d": 718.75,
      "v": 33
    },
    {
      "midi": 72,
      "hit": false,
      "t": 171000,
      "d": 1562.5,
      "v": 85
    },
    {
      "midi": 69,
      "hit": false,
      "t": 171000,
      "d": 1562.5,
      "v": 85
    },
    {
      "midi": 79,
      "hit": false,
      "t": 171000,
      "d": 718.75,
      "v": 39
    },
    {
      "midi": 77,
      "hit": false,
      "t": 171750,
      "d": 718.75,
      "v": 35
    },
    {
      "midi": 74,
      "hit": false,
      "t": 172500,
      "d": 1562.5,
      "v": 75
    },
    {
      "midi": 70,
      "hit": false,
      "t": 172500,
      "d": 1562.5,
      "v": 75
    },
    {
      "midi": 74,
      "hit": false,
      "t": 172500,
      "d": 718.75,
      "v": 21
    },
    {
      "midi": 70,
      "hit": false,
      "t": 173250,
      "d": 718.75,
      "v": 17
    },
    {
      "midi": 79,
      "hit": false,
      "t": 174000,
      "d": 3031.25,
      "v": 69
    },
    {
      "midi": 79,
      "hit": false,
      "t": 174000,
      "d": 3031.25,
      "v": 82
    },
    {
      "midi": 72,
      "hit": false,
      "t": 174000,
      "d": 3031.25,
      "v": 82
    },
    {
      "midi": 76,
      "hit": false,
      "t": 177000,
      "d": 3093.75,
      "v": 66
    },
    {
      "midi": 76,
      "hit": false,
      "t": 177000,
      "d": 3093.75,
      "v": 79
    },
    {
      "midi": 69,
      "hit": false,
      "t": 177000,
      "d": 2968.75,
      "v": 66
    },
    {
      "midi": 81,
      "hit": false,
      "t": 180000,
      "d": 3031.25,
      "v": 70
    },
    {
      "midi": 74,
      "hit": false,
      "t": 180000,
      "d": 3031.25,
      "v": 79
    },
    {
      "midi": 65,
      "hit": false,
      "t": 180000,
      "d": 3031.25,
      "v": 62
    },
    {
      "midi": 77,
      "hit": false,
      "t": 183000,
      "d": 2906.25,
      "v": 69
    },
    {
      "midi": 70,
      "hit": false,
      "t": 183000,
      "d": 3031.25,
      "v": 73
    },
    {
      "midi": 62,
      "hit": false,
      "t": 183000,
      "d": 2968.75,
      "v": 50
    },
    {
      "midi": 43,
      "hit": false,
      "t": 184687.5,
      "d": 625,
      "v": 75
    },
    {
      "midi": 45,
      "hit": false,
      "t": 184750,
      "d": 625,
      "v": 79
    },
    {
      "midi": 46,
      "hit": false,
      "t": 184812.5,
      "d": 625,
      "v": 80
    },
    {
      "midi": 48,
      "hit": false,
      "t": 184875,
      "d": 625,
      "v": 81
    },
    {
      "midi": 50,
      "hit": false,
      "t": 184937.5,
      "d": 625,
      "v": 82
    },
    {
      "midi": 52,
      "hit": false,
      "t": 185000,
      "d": 625,
      "v": 83
    },
    {
      "midi": 53,
      "hit": false,
      "t": 185062.5,
      "d": 625,
      "v": 83
    },
    {
      "midi": 55,
      "hit": false,
      "t": 185125,
      "d": 625,
      "v": 83
    },
    {
      "midi": 57,
      "hit": false,
      "t": 185187.5,
      "d": 625,
      "v": 83
    },
    {
      "midi": 58,
      "hit": false,
      "t": 185250,
      "d": 625,
      "v": 82
    },
    {
      "midi": 60,
      "hit": false,
      "t": 185312.5,
      "d": 625,
      "v": 81
    },
    {
      "midi": 62,
      "hit": false,
      "t": 185375,
      "d": 625,
      "v": 81
    },
    {
      "midi": 64,
      "hit": false,
      "t": 185437.5,
      "d": 625,
      "v": 80
    },
    {
      "midi": 65,
      "hit": false,
      "t": 185500,
      "d": 625,
      "v": 77
    },
    {
      "midi": 67,
      "hit": false,
      "t": 185562.5,
      "d": 625,
      "v": 76
    },
    {
      "midi": 69,
      "hit": false,
      "t": 185625,
      "d": 625,
      "v": 74
    },
    {
      "midi": 70,
      "hit": false,
      "t": 185687.5,
      "d": 625,
      "v": 72
    },
    {
      "midi": 72,
      "hit": false,
      "t": 185750,
      "d": 625,
      "v": 69
    },
    {
      "midi": 74,
      "hit": false,
      "t": 185812.5,
      "d": 625,
      "v": 66
    },
    {
      "midi": 76,
      "hit": false,
      "t": 185875,
      "d": 625,
      "v": 64
    },
    {
      "midi": 77,
      "hit": false,
      "t": 185937.5,
      "d": 625,
      "v": 61
    },
    {
      "midi": 79,
      "hit": false,
      "t": 186000,
      "d": 2312.5,
      "v": 93
    },
    {
      "midi": 70,
      "hit": false,
      "t": 186000,
      "d": 2312.5,
      "v": 60
    },
    {
      "midi": 57,
      "hit": false,
      "t": 186000,
      "d": 6000,
      "v": 85
    },
    {
      "midi": 57,
      "hit": false,
      "t": 186000,
      "d": 6000,
      "v": 90
    },
    {
      "midi": 29,
      "hit": false,
      "t": 186000,
      "d": 11875,
      "v": 107
    },
    {
      "midi": 79,
      "hit": false,
      "t": 186000,
      "d": 2312.5,
      "v": 99
    },
    {
      "midi": 67,
      "hit": false,
      "t": 186000,
      "d": 2312.5,
      "v": 99
    },
    {
      "midi": 79,
      "hit": false,
      "t": 186031.25,
      "d": 625,
      "v": 58
    },
    {
      "midi": 81,
      "hit": false,
      "t": 186218.75,
      "d": 625,
      "v": 54
    },
    {
      "midi": 82,
      "hit": false,
      "t": 186406.25,
      "d": 625,
      "v": 50
    },
    {
      "midi": 57,
      "hit": false,
      "t": 186750,
      "d": 812.5,
      "v": 74
    },
    {
      "midi": 60,
      "hit": false,
      "t": 187500,
      "d": 812.5,
      "v": 71
    },
    {
      "midi": 77,
      "hit": false,
      "t": 188250,
      "d": 2312.5,
      "v": 70
    },
    {
      "midi": 69,
      "hit": false,
      "t": 188250,
      "d": 2312.5,
      "v": 37
    },
    {
      "midi": 57,
      "hit": false,
      "t": 188250,
      "d": 812.5,
      "v": 70
    },
    {
      "midi": 77,
      "hit": false,
      "t": 188250,
      "d": 2187.5,
      "v": 88
    },
    {
      "midi": 65,
      "hit": false,
      "t": 188250,
      "d": 2312.5,
      "v": 88
    },
    {
      "midi": 60,
      "hit": false,
      "t": 189000,
      "d": 812.5,
      "v": 70
    },
    {
      "midi": 57,
      "hit": false,
      "t": 189750,
      "d": 812.5,
      "v": 70
    },
    {
      "midi": 72,
      "hit": false,
      "t": 190500,
      "d": 1500,
      "v": 79
    },
    {
      "midi": 65,
      "hit": false,
      "t": 190500,
      "d": 1500,
      "v": 46
    },
    {
      "midi": 60,
      "hit": false,
      "t": 190500,
      "d": 812.5,
      "v": 65
    },
    {
      "midi": 72,
      "hit": false,
      "t": 190500,
      "d": 1562.5,
      "v": 77
    },
    {
      "midi": 60,
      "hit": false,
      "t": 190500,
      "d": 1562.5,
      "v": 77
    },
    {
      "midi": 57,
      "hit": false,
      "t": 191250,
      "d": 812.5,
      "v": 61
    },
    {
      "midi": 81,
      "hit": false,
      "t": 192000,
      "d": 2312.5,
      "v": 94
    },
    {
      "midi": 72,
      "hit": false,
      "t": 192000,
      "d": 2312.5,
      "v": 61
    },
    {
      "midi": 58,
      "hit": false,
      "t": 192000,
      "d": 6000,
      "v": 80
    },
    {
      "midi": 58,
      "hit": false,
      "t": 192000,
      "d": 6000,
      "v": 85
    },
    {
      "midi": 81,
      "hit": false,
      "t": 192000,
      "d": 2312.5,
      "v": 97
    },
    {
      "midi": 69,
      "hit": false,
      "t": 192000,
      "d": 2312.5,
      "v": 97
    },
    {
      "midi": 58,
      "hit": false,
      "t": 192750,
      "d": 812.5,
      "v": 85
    },
    {
      "midi": 65,
      "hit": false,
      "t": 193500,
      "d": 812.5,
      "v": 79
    },
    {
      "midi": 79,
      "hit": false,
      "t": 194250,
      "d": 2250,
      "v": 80
    },
    {
      "midi": 70,
      "hit": false,
      "t": 194250,
      "d": 2250,
      "v": 47
    },
    {
      "midi": 58,
      "hit": false,
      "t": 194250,
      "d": 812.5,
      "v": 79
    },
    {
      "midi": 79,
      "hit": false,
      "t": 194250,
      "d": 2125,
      "v": 83
    },
    {
      "midi": 67,
      "hit": false,
      "t": 194250,
      "d": 2125,
      "v": 83
    },
    {
      "midi": 65,
      "hit": false,
      "t": 195000,
      "d": 812.5,
      "v": 77
    },
    {
      "midi": 58,
      "hit": false,
      "t": 195750,
      "d": 812.5,
      "v": 78
    },
    {
      "midi": 81,
      "hit": false,
      "t": 196500,
      "d": 812.5,
      "v": 80
    },
    {
      "midi": 72,
      "hit": false,
      "t": 196500,
      "d": 812.5,
      "v": 47
    },
    {
      "midi": 65,
      "hit": false,
      "t": 196500,
      "d": 812.5,
      "v": 77
    },
    {
      "midi": 81,
      "hit": false,
      "t": 196500,
      "d": 812.5,
      "v": 94
    },
    {
      "midi": 69,
      "hit": false,
      "t": 196500,
      "d": 812.5,
      "v": 94
    },
    {
      "midi": 82,
      "hit": false,
      "t": 197250,
      "d": 812.5,
      "v": 83
    },
    {
      "midi": 74,
      "hit": false,
      "t": 197250,
      "d": 812.5,
      "v": 50
    },
    {
      "midi": 58,
      "hit": false,
      "t": 197250,
      "d": 812.5,
      "v": 68
    },
    {
      "midi": 82,
      "hit": false,
      "t": 197250,
      "d": 812.5,
      "v": 80
    },
    {
      "midi": 70,
      "hit": false,
      "t": 197250,
      "d": 812.5,
      "v": 80
    },
    {
      "midi": 84,
      "hit": false,
      "t": 198000,
      "d": 4437.5,
      "v": 107
    },
    {
      "midi": 76,
      "hit": false,
      "t": 198000,
      "d": 3062.5,
      "v": 67
    },
    {
      "midi": 52,
      "hit": false,
      "t": 198000,
      "d": 2937.5,
      "v": 80
    },
    {
      "midi": 52,
      "hit": false,
      "t": 198000,
      "d": 2937.5,
      "v": 78
    },
    {
      "midi": 33,
      "hit": false,
      "t": 198000,
      "d": 3062.5,
      "v": 119
    },
    {
      "midi": 84,
      "hit": false,
      "t": 198000,
      "d": 4468.75,
      "v": 85
    },
    {
      "midi": 72,
      "hit": false,
      "t": 198000,
      "d": 4468.75,
      "v": 85
    },
    {
      "midi": 60,
      "hit": false,
      "t": 198750,
      "d": 812.5,
      "v": 86
    },
    {
      "midi": 67,
      "hit": false,
      "t": 199500,
      "d": 812.5,
      "v": 79
    },
    {
      "midi": 60,
      "hit": false,
      "t": 200250,
      "d": 812.5,
      "v": 79
    },
    {
      "midi": 77,
      "hit": false,
      "t": 201000,
      "d": 1562.5,
      "v": 56
    },
    {
      "midi": 65,
      "hit": false,
      "t": 201000,
      "d": 812.5,
      "v": 75
    },
    {
      "midi": 53,
      "hit": false,
      "t": 201000,
      "d": 3281.25,
      "v": 73
    },
    {
      "midi": 53,
      "hit": false,
      "t": 201000,
      "d": 3281.25,
      "v": 76
    },
    {
      "midi": 32,
      "hit": false,
      "t": 201000,
      "d": 3062.5,
      "v": 112
    },
    {
      "midi": 60,
      "hit": false,
      "t": 201750,
      "d": 812.5,
      "v": 75
    },
    {
      "midi": 88,
      "hit": false,
      "t": 202500,
      "d": 812.5,
      "v": 97
    },
    {
      "midi": 79,
      "hit": false,
      "t": 202500,
      "d": 812.5,
      "v": 64
    },
    {
      "midi": 65,
      "hit": false,
      "t": 202500,
      "d": 812.5,
      "v": 75
    },
    {
      "midi": 88,
      "hit": false,
      "t": 202500,
      "d": 812.5,
      "v": 85
    },
    {
      "midi": 76,
      "hit": false,
      "t": 202500,
      "d": 812.5,
      "v": 85
    },
    {
      "midi": 89,
      "hit": false,
      "t": 203250,
      "d": 812.5,
      "v": 91
    },
    {
      "midi": 81,
      "hit": false,
      "t": 203250,
      "d": 812.5,
      "v": 58
    },
    {
      "midi": 60,
      "hit": false,
      "t": 203250,
      "d": 750,
      "v": 70
    },
    {
      "midi": 89,
      "hit": false,
      "t": 203250,
      "d": 812.5,
      "v": 85
    },
    {
      "midi": 77,
      "hit": false,
      "t": 203250,
      "d": 812.5,
      "v": 85
    },
    {
      "midi": 84,
      "hit": false,
      "t": 204000,
      "d": 4437.5,
      "v": 92
    },
    {
      "midi": 77,
      "hit": false,
      "t": 204000,
      "d": 4437.5,
      "v": 59
    },
    {
      "midi": 31,
      "hit": false,
      "t": 204000,
      "d": 3062.5,
      "v": 113
    },
    {
      "midi": 84,
      "hit": false,
      "t": 204000,
      "d": 4281.25,
      "v": 85
    },
    {
      "midi": 72,
      "hit": false,
      "t": 204000,
      "d": 4281.25,
      "v": 85
    },
    {
      "midi": 58,
      "hit": false,
      "t": 204750,
      "d": 812.5,
      "v": 85
    },
    {
      "midi": 50,
      "hit": false,
      "t": 204750,
      "d": 1500,
      "v": 76
    },
    {
      "midi": 50,
      "hit": false,
      "t": 204750,
      "d": 1500,
      "v": 76
    },
    {
      "midi": 65,
      "hit": false,
      "t": 205500,
      "d": 812.5,
      "v": 79
    },
    {
      "midi": 58,
      "hit": false,
      "t": 206250,
      "d": 812.5,
      "v": 75
    },
    {
      "midi": 50,
      "hit": false,
      "t": 206250,
      "d": 718.75,
      "v": 67
    },
    {
      "midi": 50,
      "hit": false,
      "t": 206250,
      "d": 718.75,
      "v": 70
    },
    {
      "midi": 65,
      "hit": false,
      "t": 207000,
      "d": 812.5,
      "v": 75
    },
    {
      "midi": 50,
      "hit": false,
      "t": 207000,
      "d": 1500,
      "v": 70
    },
    {
      "midi": 50,
      "hit": false,
      "t": 207000,
      "d": 1562.5,
      "v": 72
    },
    {
      "midi": 36,
      "hit": false,
      "t": 207000,
      "d": 3062.5,
      "v": 98
    },
    {
      "midi": 58,
      "hit": false,
      "t": 207750,
      "d": 812.5,
      "v": 75
    },
    {
      "midi": 82,
      "hit": false,
      "t": 208500,
      "d": 1468.75,
      "v": 87
    },
    {
      "midi": 76,
      "hit": false,
      "t": 208500,
      "d": 1468.75,
      "v": 54
    },
    {
      "midi": 64,
      "hit": false,
      "t": 208500,
      "d": 812.5,
      "v": 75
    },
    {
      "midi": 48,
      "hit": false,
      "t": 208500,
      "d": 1500,
      "v": 64
    },
    {
      "midi": 48,
      "hit": false,
      "t": 208500,
      "d": 1562.5,
      "v": 67
    },
    {
      "midi": 82,
      "hit": false,
      "t": 208500,
      "d": 1562.5,
      "v": 77
    },
    {
      "midi": 70,
      "hit": false,
      "t": 208500,
      "d": 1562.5,
      "v": 77
    },
    {
      "midi": 58,
      "hit": false,
      "t": 209250,
      "d": 750,
      "v": 75
    },
    {
      "midi": 81,
      "hit": false,
      "t": 210000,
      "d": 2312.5,
      "v": 100
    },
    {
      "midi": 77,
      "hit": false,
      "t": 210000,
      "d": 2312.5,
      "v": 67
    },
    {
      "midi": 60,
      "hit": false,
      "t": 210000,
      "d": 3000,
      "v": 70
    },
    {
      "midi": 38,
      "hit": false,
      "t": 210000,
      "d": 3062.5,
      "v": 111
    },
    {
      "midi": 81,
      "hit": false,
      "t": 210000,
      "d": 2250,
      "v": 85
    },
    {
      "midi": 69,
      "hit": false,
      "t": 210000,
      "d": 2250,
      "v": 85
    },
    {
      "midi": 53,
      "hit": false,
      "t": 210750,
      "d": 812.5,
      "v": 83
    },
    {
      "midi": 53,
      "hit": false,
      "t": 210750,
      "d": 812.5,
      "v": 88
    },
    {
      "midi": 60,
      "hit": false,
      "t": 211500,
      "d": 812.5,
      "v": 69
    },
    {
      "midi": 60,
      "hit": false,
      "t": 211500,
      "d": 812.5,
      "v": 74
    },
    {
      "midi": 86,
      "hit": false,
      "t": 212250,
      "d": 2312.5,
      "v": 100
    },
    {
      "midi": 81,
      "hit": false,
      "t": 212250,
      "d": 2250,
      "v": 67
    },
    {
      "midi": 53,
      "hit": false,
      "t": 212250,
      "d": 812.5,
      "v": 66
    },
    {
      "midi": 53,
      "hit": false,
      "t": 212250,
      "d": 812.5,
      "v": 71
    },
    {
      "midi": 86,
      "hit": false,
      "t": 212250,
      "d": 2250,
      "v": 80
    },
    {
      "midi": 74,
      "hit": false,
      "t": 212250,
      "d": 2250,
      "v": 80
    },
    {
      "midi": 59,
      "hit": false,
      "t": 213000,
      "d": 3000,
      "v": 70
    },
    {
      "midi": 59,
      "hit": false,
      "t": 213000,
      "d": 812.5,
      "v": 64
    },
    {
      "midi": 59,
      "hit": false,
      "t": 213000,
      "d": 812.5,
      "v": 69
    },
    {
      "midi": 31,
      "hit": false,
      "t": 213000,
      "d": 5968.75,
      "v": 111
    },
    {
      "midi": 53,
      "hit": false,
      "t": 213750,
      "d": 812.5,
      "v": 66
    },
    {
      "midi": 53,
      "hit": false,
      "t": 213750,
      "d": 812.5,
      "v": 71
    },
    {
      "midi": 81,
      "hit": false,
      "t": 214500,
      "d": 1500,
      "v": 90
    },
    {
      "midi": 74,
      "hit": false,
      "t": 214500,
      "d": 1500,
      "v": 57
    },
    {
      "midi": 59,
      "hit": false,
      "t": 214500,
      "d": 812.5,
      "v": 61
    },
    {
      "midi": 59,
      "hit": false,
      "t": 214500,
      "d": 812.5,
      "v": 66
    },
    {
      "midi": 81,
      "hit": false,
      "t": 214500,
      "d": 1468.75,
      "v": 80
    },
    {
      "midi": 69,
      "hit": false,
      "t": 214500,
      "d": 1468.75,
      "v": 80
    },
    {
      "midi": 53,
      "hit": false,
      "t": 215250,
      "d": 750,
      "v": 66
    },
    {
      "midi": 53,
      "hit": false,
      "t": 215250,
      "d": 750,
      "v": 71
    },
    {
      "midi": 79,
      "hit": false,
      "t": 216000,
      "d": 812.5,
      "v": 87
    },
    {
      "midi": 76,
      "hit": false,
      "t": 216000,
      "d": 812.5,
      "v": 54
    },
    {
      "midi": 79,
      "hit": false,
      "t": 216000,
      "d": 812.5,
      "v": 73
    },
    {
      "midi": 67,
      "hit": false,
      "t": 216000,
      "d": 812.5,
      "v": 73
    },
    {
      "midi": 77,
      "hit": false,
      "t": 216750,
      "d": 3500,
      "v": 82
    },
    {
      "midi": 74,
      "hit": false,
      "t": 216750,
      "d": 3500,
      "v": 49
    },
    {
      "midi": 58,
      "hit": false,
      "t": 216750,
      "d": 812.5,
      "v": 80
    },
    {
      "midi": 62,
      "hit": false,
      "t": 216750,
      "d": 718.75,
      "v": 83
    },
    {
      "midi": 62,
      "hit": false,
      "t": 216750,
      "d": 718.75,
      "v": 58
    },
    {
      "midi": 77,
      "hit": false,
      "t": 216750,
      "d": 3625,
      "v": 75
    },
    {
      "midi": 65,
      "hit": false,
      "t": 216750,
      "d": 3625,
      "v": 75
    },
    {
      "midi": 65,
      "hit": false,
      "t": 217500,
      "d": 812.5,
      "v": 69
    },
    {
      "midi": 62,
      "hit": false,
      "t": 217500,
      "d": 718.75,
      "v": 84
    },
    {
      "midi": 62,
      "hit": false,
      "t": 217500,
      "d": 718.75,
      "v": 59
    },
    {
      "midi": 58,
      "hit": false,
      "t": 218250,
      "d": 812.5,
      "v": 68
    },
    {
      "midi": 62,
      "hit": false,
      "t": 218250,
      "d": 718.75,
      "v": 84
    },
    {
      "midi": 62,
      "hit": false,
      "t": 218250,
      "d": 718.75,
      "v": 59
    },
    {
      "midi": 65,
      "hit": false,
      "t": 219000,
      "d": 812.5,
      "v": 66
    },
    {
      "midi": 62,
      "hit": false,
      "t": 219000,
      "d": 2906.25,
      "v": 80
    },
    {
      "midi": 62,
      "hit": false,
      "t": 219000,
      "d": 2906.25,
      "v": 55
    },
    {
      "midi": 36,
      "hit": false,
      "t": 219000,
      "d": 3062.5,
      "v": 102
    },
    {
      "midi": 58,
      "hit": false,
      "t": 219750,
      "d": 812.5,
      "v": 65
    },
    {
      "midi": 77,
      "hit": false,
      "t": 220500,
      "d": 25437.5,
      "v": 78
    },
    {
      "midi": 65,
      "hit": false,
      "t": 220500,
      "d": 812.5,
      "v": 64
    },
    {
      "midi": 77,
      "hit": false,
      "t": 220500,
      "d": 10281.25,
      "v": 65
    },
    {
      "midi": 65,
      "hit": false,
      "t": 220500,
      "d": 10156.25,
      "v": 65
    },
    {
      "midi": 58,
      "hit": false,
      "t": 221250,
      "d": 656.25,
      "v": 56
    },
    {
      "midi": 74,
      "hit": false,
      "t": 222000,
      "d": 2250,
      "v": 70
    },
    {
      "midi": 58,
      "hit": false,
      "t": 222000,
      "d": 2250,
      "v": 80
    },
    {
      "midi": 46,
      "hit": false,
      "t": 222000,
      "d": 2312.5,
      "v": 80
    },
    {
      "midi": 46,
      "hit": false,
      "t": 222000,
      "d": 2312.5,
      "v": 80
    },
    {
      "midi": 62,
      "hit": false,
      "t": 222000,
      "d": 812.5,
      "v": 109
    },
    {
      "midi": 64,
      "hit": false,
      "t": 222750,
      "d": 812.5,
      "v": 100
    },
    {
      "midi": 65,
      "hit": false,
      "t": 223500,
      "d": 812.5,
      "v": 96
    },
    {
      "midi": 72,
      "hit": false,
      "t": 224250,
      "d": 2250,
      "v": 69
    },
    {
      "midi": 57,
      "hit": false,
      "t": 224250,
      "d": 2250,
      "v": 79
    },
    {
      "midi": 45,
      "hit": false,
      "t": 224250,
      "d": 2312.5,
      "v": 80
    },
    {
      "midi": 45,
      "hit": false,
      "t": 224250,
      "d": 2312.5,
      "v": 80
    },
    {
      "midi": 60,
      "hit": false,
      "t": 224250,
      "d": 812.5,
      "v": 108
    },
    {
      "midi": 64,
      "hit": false,
      "t": 225000,
      "d": 812.5,
      "v": 99
    },
    {
      "midi": 65,
      "hit": false,
      "t": 225750,
      "d": 812.5,
      "v": 98
    },
    {
      "midi": 70,
      "hit": false,
      "t": 226500,
      "d": 2250,
      "v": 66
    },
    {
      "midi": 55,
      "hit": false,
      "t": 226500,
      "d": 2250,
      "v": 76
    },
    {
      "midi": 43,
      "hit": false,
      "t": 226500,
      "d": 2312.5,
      "v": 80
    },
    {
      "midi": 43,
      "hit": false,
      "t": 226500,
      "d": 2312.5,
      "v": 80
    },
    {
      "midi": 58,
      "hit": false,
      "t": 226500,
      "d": 812.5,
      "v": 103
    },
    {
      "midi": 64,
      "hit": false,
      "t": 227250,
      "d": 812.5,
      "v": 97
    },
    {
      "midi": 65,
      "hit": false,
      "t": 228000,
      "d": 812.5,
      "v": 95
    },
    {
      "midi": 69,
      "hit": false,
      "t": 228750,
      "d": 2250,
      "v": 62
    },
    {
      "midi": 53,
      "hit": false,
      "t": 228750,
      "d": 2250,
      "v": 72
    },
    {
      "midi": 41,
      "hit": false,
      "t": 228750,
      "d": 2312.5,
      "v": 80
    },
    {
      "midi": 41,
      "hit": false,
      "t": 228750,
      "d": 2312.5,
      "v": 80
    },
    {
      "midi": 57,
      "hit": false,
      "t": 228750,
      "d": 812.5,
      "v": 100
    },
    {
      "midi": 64,
      "hit": false,
      "t": 229500,
      "d": 812.5,
      "v": 98
    },
    {
      "midi": 65,
      "hit": false,
      "t": 230250,
      "d": 656.25,
      "v": 96
    },
    {
      "midi": 67,
      "hit": false,
      "t": 231000,
      "d": 5968.75,
      "v": 60
    },
    {
      "midi": 55,
      "hit": false,
      "t": 231000,
      "d": 5968.75,
      "v": 70
    },
    {
      "midi": 39,
      "hit": false,
      "t": 231000,
      "d": 5968.75,
      "v": 80
    },
    {
      "midi": 39,
      "hit": false,
      "t": 231000,
      "d": 5968.75,
      "v": 80
    },
    {
      "midi": 70,
      "hit": false,
      "t": 231000,
      "d": 6031.25,
      "v": 68
    },
    {
      "midi": 63,
      "hit": false,
      "t": 231000,
      "d": 6000,
      "v": 79
    },
    {
      "midi": 55,
      "hit": false,
      "t": 231000,
      "d": 5875,
      "v": 77
    },
    {
      "midi": 65,
      "hit": false,
      "t": 237000,
      "d": 8812.5,
      "v": 58
    },
    {
      "midi": 53,
      "hit": false,
      "t": 237000,
      "d": 8937.5,
      "v": 74
    },
    {
      "midi": 36,
      "hit": false,
      "t": 237000,
      "d": 8937.5,
      "v": 75
    },
    {
      "midi": 36,
      "hit": false,
      "t": 237000,
      "d": 8906.25,
      "v": 75
    },
    {
      "midi": 74,
      "hit": false,
      "t": 237000,
      "d": 4562.5,
      "v": 68
    },
    {
      "midi": 65,
      "hit": false,
      "t": 237000,
      "d": 4437.5,
      "v": 86
    },
    {
      "midi": 58,
      "hit": false,
      "t": 237000,
      "d": 4500,
      "v": 83
    },
    {
      "midi": 77,
      "hit": false,
      "t": 241500,
      "d": 4437.5,
      "v": 62
    },
    {
      "midi": 70,
      "hit": false,
      "t": 241500,
      "d": 4437.5,
      "v": 88
    },
    {
      "midi": 62,
      "hit": false,
      "t": 241500,
      "d": 4437.5,
      "v": 83
    },
    {
      "midi": 96,
      "hit": false,
      "t": 246000,
      "d": 11906.25,
      "v": 48
    },
    {
      "midi": 65,
      "hit": false,
      "t": 246000,
      "d": 11906.25,
      "v": 58
    },
    {
      "midi": 57,
      "hit": false,
      "t": 246000,
      "d": 12000,
      "v": 58
    },
    {
      "midi": 48,
      "hit": false,
      "t": 246000,
      "d": 12000,
      "v": 69
    },
    {
      "midi": 41,
      "hit": false,
      "t": 246000,
      "d": 11875,
      "v": 80
    },
    {
      "midi": 29,
      "hit": false,
      "t": 246000,
      "d": 11875,
      "v": 80
    },
    {
      "midi": 81,
      "hit": false,
      "t": 246000,
      "d": 12000,
      "v": 57
    },
    {
      "midi": 72,
      "hit": false,
      "t": 246000,
      "d": 11937.5,
      "v": 81
    },
    {
      "midi": 60,
      "hit": false,
      "t": 246000,
      "d": 11937.5,
      "v": 76
    }
  ]
}