{
  "jsonPath": "Animes/Card Captor Sakura MIDI Collection/spring-night-love-song.json",
  "path": "Animes\\Card Captor Sakura MIDI Collection\\Spring Night Love Song.mid",
  "name": "Spring Night Love Song",
  "difficulty": "Advanced",
  "bpm": 100,
  "notes": [
    {
      "midi": 83,
      "hit": false,
      "t": 4615.386,
      "d": 769.2309999999998,
      "v": 100
    },
    {
      "midi": 74,
      "hit": false,
      "t": 4615.386,
      "d": 769.2309999999998,
      "v": 100
    },
    {
      "midi": 79,
      "hit": false,
      "t": 5000.001499999999,
      "d": 384.6154999999999,
      "v": 100
    },
    {
      "midi": 84,
      "hit": false,
      "t": 5384.617,
      "d": 769.2309999999998,
      "v": 100
    },
    {
      "midi": 76,
      "hit": false,
      "t": 5384.617,
      "d": 769.2309999999998,
      "v": 100
    },
    {
      "midi": 79,
      "hit": false,
      "t": 5769.232499999999,
      "d": 384.6154999999999,
      "v": 100
    },
    {
      "midi": 86,
      "hit": false,
      "t": 6153.848,
      "d": 769.2309999999998,
      "v": 100
    },
    {
      "midi": 77,
      "hit": false,
      "t": 6153.848,
      "d": 769.2309999999998,
      "v": 100
    },
    {
      "midi": 79,
      "hit": false,
      "t": 6538.463499999999,
      "d": 384.6154999999999,
      "v": 100
    },
    {
      "midi": 84,
      "hit": false,
      "t": 6923.079,
      "d": 769.2309999999998,
      "v": 100
    },
    {
      "midi": 76,
      "hit": false,
      "t": 6923.079,
      "d": 769.2309999999998,
      "v": 100
    },
    {
      "midi": 79,
      "hit": false,
      "t": 7307.694499999999,
      "d": 384.6154999999999,
      "v": 100
    },
    {
      "midi": 83,
      "hit": false,
      "t": 7692.3099999999995,
      "d": 769.2309999999998,
      "v": 100
    },
    {
      "midi": 74,
      "hit": false,
      "t": 7692.3099999999995,
      "d": 769.2309999999998,
      "v": 100
    },
    {
      "midi": 79,
      "hit": false,
      "t": 8076.9254999999985,
      "d": 384.6155000000008,
      "v": 100
    },
    {
      "midi": 84,
      "hit": false,
      "t": 8461.541,
      "d": 769.2309999999998,
      "v": 100
    },
    {
      "midi": 76,
      "hit": false,
      "t": 8461.541,
      "d": 769.2309999999998,
      "v": 100
    },
    {
      "midi": 79,
      "hit": false,
      "t": 8846.1565,
      "d": 384.6154999999999,
      "v": 100
    },
    {
      "midi": 81,
      "hit": false,
      "t": 9230.771999999999,
      "d": 769.2309999999998,
      "v": 100
    },
    {
      "midi": 72,
      "hit": false,
      "t": 9230.771999999999,
      "d": 769.2309999999998,
      "v": 100
    },
    {
      "midi": 77,
      "hit": false,
      "t": 9615.387499999999,
      "d": 384.6154999999999,
      "v": 100
    },
    {
      "midi": 83,
      "hit": false,
      "t": 10000.002999999999,
      "d": 769.2309999999998,
      "v": 100
    },
    {
      "midi": 74,
      "hit": false,
      "t": 10000.002999999999,
      "d": 769.2309999999998,
      "v": 100
    },
    {
      "midi": 77,
      "hit": false,
      "t": 10384.618499999999,
      "d": 384.6154999999999,
      "v": 100
    },
    {
      "midi": 84,
      "hit": false,
      "t": 10769.233999999999,
      "d": 769.2309999999998,
      "v": 100
    },
    {
      "midi": 76,
      "hit": false,
      "t": 10769.233999999999,
      "d": 769.2309999999998,
      "v": 100
    },
    {
      "midi": 77,
      "hit": false,
      "t": 11153.849499999998,
      "d": 384.6154999999999,
      "v": 100
    },
    {
      "midi": 83,
      "hit": false,
      "t": 11538.464999999998,
      "d": 769.2309999999998,
      "v": 100
    },
    {
      "midi": 74,
      "hit": false,
      "t": 11538.464999999998,
      "d": 769.2309999999998,
      "v": 100
    },
    {
      "midi": 77,
      "hit": false,
      "t": 11923.080499999998,
      "d": 384.6154999999999,
      "v": 100
    },
    {
      "midi": 81,
      "hit": false,
      "t": 12307.695999999998,
      "d": 769.2309999999998,
      "v": 100
    },
    {
      "midi": 72,
      "hit": false,
      "t": 12307.695999999998,
      "d": 769.2309999999998,
      "v": 100
    },
    {
      "midi": 77,
      "hit": false,
      "t": 12692.311499999998,
      "d": 384.6154999999999,
      "v": 100
    },
    {
      "midi": 83,
      "hit": false,
      "t": 13076.926999999998,
      "d": 769.2309999999998,
      "v": 100
    },
    {
      "midi": 74,
      "hit": false,
      "t": 13076.926999999998,
      "d": 769.2309999999998,
      "v": 100
    },
    {
      "midi": 77,
      "hit": false,
      "t": 13461.542499999998,
      "d": 384.6154999999999,
      "v": 100
    },
    {
      "midi": 79,
      "hit": false,
      "t": 13846.157999999998,
      "d": 2307.6929999999993,
      "v": 100
    },
    {
      "midi": 71,
      "hit": false,
      "t": 13846.157999999998,
      "d": 2307.6929999999993,
      "v": 100
    },
    {
      "midi": 40,
      "hit": false,
      "t": 13846.157999999998,
      "d": 384.6154999999999,
      "v": 100
    },
    {
      "midi": 47,
      "hit": false,
      "t": 14230.773499999998,
      "d": 384.6154999999999,
      "v": 100
    },
    {
      "midi": 55,
      "hit": false,
      "t": 14615.388999999997,
      "d": 384.6154999999999,
      "v": 100
    },
    {
      "midi": 59,
      "hit": false,
      "t": 15000.004499999997,
      "d": 384.6154999999999,
      "v": 100
    },
    {
      "midi": 62,
      "hit": false,
      "t": 15384.619999999997,
      "d": 384.6154999999999,
      "v": 100
    },
    {
      "midi": 67,
      "hit": false,
      "t": 15769.235499999997,
      "d": 384.6154999999999,
      "v": 100
    },
    {
      "midi": 48,
      "hit": false,
      "t": 16153.850999999997,
      "d": 769.2310000000016,
      "v": 100
    },
    {
      "midi": 45,
      "hit": false,
      "t": 16153.850999999997,
      "d": 769.2310000000016,
      "v": 100
    },
    {
      "midi": 64,
      "hit": false,
      "t": 16538.4665,
      "d": 384.6154999999999,
      "v": 100
    },
    {
      "midi": 65,
      "hit": false,
      "t": 16923.082,
      "d": 769.2309999999998,
      "v": 100
    },
    {
      "midi": 57,
      "hit": false,
      "t": 16923.082,
      "d": 769.2309999999998,
      "v": 100
    },
    {
      "midi": 64,
      "hit": false,
      "t": 17692.313,
      "d": 769.2309999999998,
      "v": 100
    },
    {
      "midi": 60,
      "hit": false,
      "t": 17692.313,
      "d": 769.2309999999998,
      "v": 100
    },
    {
      "midi": 55,
      "hit": false,
      "t": 17692.313,
      "d": 769.2309999999998,
      "v": 100
    },
    {
      "midi": 65,
      "hit": false,
      "t": 18461.543999999998,
      "d": 2307.6929999999993,
      "v": 100
    },
    {
      "midi": 38,
      "hit": false,
      "t": 18461.543999999998,
      "d": 384.6154999999999,
      "v": 100
    },
    {
      "midi": 45,
      "hit": false,
      "t": 18846.159499999998,
      "d": 384.6154999999999,
      "v": 100
    },
    {
      "midi": 53,
      "hit": false,
      "t": 19230.774999999998,
      "d": 384.6154999999999,
      "v": 100
    },
    {
      "midi": 57,
      "hit": false,
      "t": 19615.390499999998,
      "d": 384.6154999999999,
      "v": 100
    },
    {
      "midi": 60,
      "hit": false,
      "t": 20000.005999999998,
      "d": 384.6154999999999,
      "v": 100
    },
    {
      "midi": 65,
      "hit": false,
      "t": 20384.621499999997,
      "d": 384.6154999999999,
      "v": 100
    },
    {
      "midi": 69,
      "hit": false,
      "t": 20769.236999999997,
      "d": 2307.6929999999993,
      "v": 100
    },
    {
      "midi": 41,
      "hit": false,
      "t": 20769.236999999997,
      "d": 384.6154999999999,
      "v": 100
    },
    {
      "midi": 48,
      "hit": false,
      "t": 21153.852499999997,
      "d": 384.6154999999999,
      "v": 100
    },
    {
      "midi": 57,
      "hit": false,
      "t": 21538.467999999997,
      "d": 384.6154999999999,
      "v": 100
    },
    {
      "midi": 60,
      "hit": false,
      "t": 21923.083499999997,
      "d": 384.6154999999999,
      "v": 100
    },
    {
      "midi": 65,
      "hit": false,
      "t": 22307.698999999997,
      "d": 384.6154999999999,
      "v": 100
    },
    {
      "midi": 69,
      "hit": false,
      "t": 22692.314499999997,
      "d": 384.6154999999999,
      "v": 100
    },
    {
      "midi": 71,
      "hit": false,
      "t": 23076.929999999997,
      "d": 769.2309999999998,
      "v": 100
    },
    {
      "midi": 67,
      "hit": false,
      "t": 23076.929999999997,
      "d": 769.2309999999998,
      "v": 100
    },
    {
      "midi": 62,
      "hit": false,
      "t": 23076.929999999997,
      "d": 769.2309999999998,
      "v": 100
    },
    {
      "midi": 72,
      "hit": false,
      "t": 23846.160999999996,
      "d": 769.2309999999998,
      "v": 90
    },
    {
      "midi": 67,
      "hit": false,
      "t": 23846.160999999996,
      "d": 769.2309999999998,
      "v": 90
    },
    {
      "midi": 64,
      "hit": false,
      "t": 23846.160999999996,
      "d": 769.2309999999998,
      "v": 90
    },
    {
      "midi": 65,
      "hit": false,
      "t": 24615.391999999996,
      "d": 769.2309999999998,
      "v": 80
    },
    {
      "midi": 74,
      "hit": false,
      "t": 24615.391999999996,
      "d": 769.2309999999998,
      "v": 80
    },
    {
      "midi": 69,
      "hit": false,
      "t": 24615.391999999996,
      "d": 769.2309999999998,
      "v": 80
    },
    {
      "midi": 79,
      "hit": false,
      "t": 25000.007499999996,
      "d": 192.30774999999994,
      "v": 70
    },
    {
      "midi": 91,
      "hit": false,
      "t": 25192.315249999996,
      "d": 576.9232499999998,
      "v": 70
    },
    {
      "midi": 55,
      "hit": false,
      "t": 25769.238499999996,
      "d": 384.6154999999999,
      "v": 70
    },
    {
      "midi": 60,
      "hit": false,
      "t": 26153.853999999996,
      "d": 769.2309999999998,
      "v": 100
    },
    {
      "midi": 72,
      "hit": false,
      "t": 26153.854,
      "d": 769.2309999999998,
      "v": 100
    },
    {
      "midi": 55,
      "hit": false,
      "t": 26538.469499999996,
      "d": 384.6154999999999,
      "v": 100
    },
    {
      "midi": 64,
      "hit": false,
      "t": 26923.084999999995,
      "d": 769.2309999999998,
      "v": 100
    },
    {
      "midi": 76,
      "hit": false,
      "t": 26923.085,
      "d": 769.2309999999998,
      "v": 100
    },
    {
      "midi": 55,
      "hit": false,
      "t": 27307.700499999995,
      "d": 384.6154999999999,
      "v": 100
    },
    {
      "midi": 67,
      "hit": false,
      "t": 27692.315999999995,
      "d": 769.2309999999998,
      "v": 100
    },
    {
      "midi": 79,
      "hit": false,
      "t": 27692.316,
      "d": 769.2309999999998,
      "v": 100
    },
    {
      "midi": 55,
      "hit": false,
      "t": 28076.931499999995,
      "d": 384.6154999999999,
      "v": 100
    },
    {
      "midi": 64,
      "hit": false,
      "t": 28461.546999999995,
      "d": 769.2309999999998,
      "v": 100
    },
    {
      "midi": 60,
      "hit": false,
      "t": 28461.546999999995,
      "d": 769.2309999999998,
      "v": 100
    },
    {
      "midi": 76,
      "hit": false,
      "t": 28461.547,
      "d": 769.2309999999998,
      "v": 100
    },
    {
      "midi": 55,
      "hit": false,
      "t": 28846.162499999995,
      "d": 384.6154999999999,
      "v": 100
    },
    {
      "midi": 65,
      "hit": false,
      "t": 29230.777999999995,
      "d": 769.2309999999998,
      "v": 100
    },
    {
      "midi": 62,
      "hit": false,
      "t": 29230.777999999995,
      "d": 769.2309999999998,
      "v": 100
    },
    {
      "midi": 77,
      "hit": false,
      "t": 29230.778,
      "d": 769.2309999999998,
      "v": 100
    },
    {
      "midi": 55,
      "hit": false,
      "t": 29615.393499999995,
      "d": 384.6154999999999,
      "v": 100
    },
    {
      "midi": 67,
      "hit": false,
      "t": 30000.008999999995,
      "d": 769.2309999999998,
      "v": 100
    },
    {
      "midi": 64,
      "hit": false,
      "t": 30000.008999999995,
      "d": 769.2309999999998,
      "v": 100
    },
    {
      "midi": 79,
      "hit": false,
      "t": 30000.009,
      "d": 769.2309999999998,
      "v": 100
    },
    {
      "midi": 55,
      "hit": false,
      "t": 30384.624499999994,
      "d": 384.6154999999999,
      "v": 100
    },
    {
      "midi": 53,
      "hit": false,
      "t": 30769.239999999994,
      "d": 2307.693000000003,
      "v": 100
    },
    {
      "midi": 81,
      "hit": false,
      "t": 30769.239999999998,
      "d": 769.2309999999998,
      "v": 100
    },
    {
      "midi": 55,
      "hit": false,
      "t": 31153.855499999994,
      "d": 384.6154999999999,
      "v": 100
    },
    {
      "midi": 71,
      "hit": false,
      "t": 31538.470999999994,
      "d": 384.6154999999999,
      "v": 100
    },
    {
      "midi": 67,
      "hit": false,
      "t": 31538.470999999994,
      "d": 384.6154999999999,
      "v": 100
    },
    {
      "midi": 83,
      "hit": false,
      "t": 31538.470999999998,
      "d": 769.2309999999998,
      "v": 100
    },
    {
      "midi": 55,
      "hit": false,
      "t": 31923.086499999994,
      "d": 384.6154999999999,
      "v": 100
    },
    {
      "midi": 72,
      "hit": false,
      "t": 32307.701999999994,
      "d": 384.6154999999999,
      "v": 100
    },
    {
      "midi": 69,
      "hit": false,
      "t": 32307.701999999994,
      "d": 384.6154999999999,
      "v": 100
    },
    {
      "midi": 84,
      "hit": false,
      "t": 32307.701999999997,
      "d": 769.2309999999998,
      "v": 100
    },
    {
      "midi": 55,
      "hit": false,
      "t": 32692.317499999994,
      "d": 384.6155000000035,
      "v": 100
    },
    {
      "midi": 79,
      "hit": false,
      "t": 33076.933,
      "d": 2307.6929999999993,
      "v": 100
    },
    {
      "midi": 52,
      "hit": false,
      "t": 33076.933,
      "d": 2307.6929999999993,
      "v": 100
    },
    {
      "midi": 55,
      "hit": false,
      "t": 33461.5485,
      "d": 384.6154999999999,
      "v": 100
    },
    {
      "midi": 72,
      "hit": false,
      "t": 33846.164,
      "d": 384.6154999999999,
      "v": 100
    },
    {
      "midi": 67,
      "hit": false,
      "t": 34230.7795,
      "d": 384.6154999999999,
      "v": 100
    },
    {
      "midi": 64,
      "hit": false,
      "t": 34615.395,
      "d": 384.6154999999999,
      "v": 100
    },
    {
      "midi": 60,
      "hit": false,
      "t": 35000.0105,
      "d": 384.6154999999999,
      "v": 100
    },
    {
      "midi": 77,
      "hit": false,
      "t": 35384.626,
      "d": 1153.8464999999997,
      "v": 100
    },
    {
      "midi": 57,
      "hit": false,
      "t": 35384.626,
      "d": 384.6154999999999,
      "v": 100
    },
    {
      "midi": 50,
      "hit": false,
      "t": 35384.626,
      "d": 2307.6929999999993,
      "v": 100
    },
    {
      "midi": 62,
      "hit": false,
      "t": 35769.2415,
      "d": 384.6154999999999,
      "v": 100
    },
    {
      "midi": 65,
      "hit": false,
      "t": 36153.856999999996,
      "d": 384.6154999999999,
      "v": 100
    },
    {
      "midi": 79,
      "hit": false,
      "t": 36538.472499999996,
      "d": 384.6154999999999,
      "v": 100
    },
    {
      "midi": 67,
      "hit": false,
      "t": 36538.472499999996,
      "d": 384.6154999999999,
      "v": 100
    },
    {
      "midi": 77,
      "hit": false,
      "t": 36923.087999999996,
      "d": 769.2309999999998,
      "v": 100
    },
    {
      "midi": 65,
      "hit": false,
      "t": 36923.087999999996,
      "d": 384.6154999999999,
      "v": 100
    },
    {
      "midi": 76,
      "hit": false,
      "t": 37692.318999999996,
      "d": 769.2309999999998,
      "v": 100
    },
    {
      "midi": 60,
      "hit": false,
      "t": 37692.318999999996,
      "d": 384.6154999999999,
      "v": 100
    },
    {
      "midi": 48,
      "hit": false,
      "t": 37692.318999999996,
      "d": 2307.6929999999993,
      "v": 100
    },
    {
      "midi": 55,
      "hit": false,
      "t": 38076.934499999996,
      "d": 384.6154999999999,
      "v": 100
    },
    {
      "midi": 77,
      "hit": false,
      "t": 38461.549999999996,
      "d": 769.2309999999998,
      "v": 100
    },
    {
      "midi": 64,
      "hit": false,
      "t": 38461.549999999996,
      "d": 384.6154999999999,
      "v": 100
    },
    {
      "midi": 60,
      "hit": false,
      "t": 38461.549999999996,
      "d": 384.6154999999999,
      "v": 100
    },
    {
      "midi": 55,
      "hit": false,
      "t": 38846.165499999996,
      "d": 384.6154999999999,
      "v": 100
    },
    {
      "midi": 79,
      "hit": false,
      "t": 39230.780999999995,
      "d": 769.2309999999998,
      "v": 100
    },
    {
      "midi": 67,
      "hit": false,
      "t": 39230.780999999995,
      "d": 384.6154999999999,
      "v": 100
    },
    {
      "midi": 64,
      "hit": false,
      "t": 39230.780999999995,
      "d": 384.6154999999999,
      "v": 100
    },
    {
      "midi": 74,
      "hit": false,
      "t": 40000.011999999995,
      "d": 2307.6929999999993,
      "v": 100
    },
    {
      "midi": 62,
      "hit": false,
      "t": 40000.011999999995,
      "d": 384.6154999999999,
      "v": 100
    },
    {
      "midi": 43,
      "hit": false,
      "t": 40000.011999999995,
      "d": 2307.6929999999993,
      "v": 100
    },
    {
      "midi": 50,
      "hit": false,
      "t": 40384.627499999995,
      "d": 384.6154999999999,
      "v": 100
    },
    {
      "midi": 55,
      "hit": false,
      "t": 40769.242999999995,
      "d": 384.6154999999999,
      "v": 100
    },
    {
      "midi": 60,
      "hit": false,
      "t": 41153.858499999995,
      "d": 384.6154999999999,
      "v": 100
    },
    {
      "midi": 62,
      "hit": false,
      "t": 41538.473999999995,
      "d": 384.6154999999999,
      "v": 100
    },
    {
      "midi": 67,
      "hit": false,
      "t": 41923.089499999995,
      "d": 384.6154999999999,
      "v": 100
    },
    {
      "midi": 74,
      "hit": false,
      "t": 42307.704999999994,
      "d": 2307.6929999999993,
      "v": 100
    },
    {
      "midi": 59,
      "hit": false,
      "t": 42307.704999999994,
      "d": 769.2309999999998,
      "v": 100
    },
    {
      "midi": 43,
      "hit": false,
      "t": 42307.704999999994,
      "d": 769.2309999999998,
      "v": 100
    },
    {
      "midi": 60,
      "hit": false,
      "t": 43076.935999999994,
      "d": 769.2309999999998,
      "v": 100
    },
    {
      "midi": 45,
      "hit": false,
      "t": 43076.935999999994,
      "d": 769.2309999999998,
      "v": 100
    },
    {
      "midi": 62,
      "hit": false,
      "t": 43846.166999999994,
      "d": 769.2309999999998,
      "v": 100
    },
    {
      "midi": 47,
      "hit": false,
      "t": 43846.166999999994,
      "d": 769.2309999999998,
      "v": 100
    },
    {
      "midi": 72,
      "hit": false,
      "t": 44615.397999999994,
      "d": 769.2309999999998,
      "v": 100
    },
    {
      "midi": 48,
      "hit": false,
      "t": 44615.397999999994,
      "d": 2307.6929999999993,
      "v": 100
    },
    {
      "midi": 55,
      "hit": false,
      "t": 45000.013499999994,
      "d": 384.6154999999999,
      "v": 100
    },
    {
      "midi": 76,
      "hit": false,
      "t": 45384.62899999999,
      "d": 769.2309999999998,
      "v": 100
    },
    {
      "midi": 67,
      "hit": false,
      "t": 45384.62899999999,
      "d": 384.6154999999999,
      "v": 100
    },
    {
      "midi": 64,
      "hit": false,
      "t": 45769.24449999999,
      "d": 384.6154999999999,
      "v": 100
    },
    {
      "midi": 79,
      "hit": false,
      "t": 46153.85999999999,
      "d": 769.2309999999998,
      "v": 100
    },
    {
      "midi": 60,
      "hit": false,
      "t": 46153.85999999999,
      "d": 384.6154999999999,
      "v": 100
    },
    {
      "midi": 55,
      "hit": false,
      "t": 46538.47549999999,
      "d": 384.6154999999999,
      "v": 100
    },
    {
      "midi": 76,
      "hit": false,
      "t": 46923.09099999999,
      "d": 769.2309999999998,
      "v": 100
    },
    {
      "midi": 52,
      "hit": false,
      "t": 46923.09099999999,
      "d": 2307.6929999999993,
      "v": 100
    },
    {
      "midi": 55,
      "hit": false,
      "t": 47307.70649999999,
      "d": 384.6154999999999,
      "v": 100
    },
    {
      "midi": 77,
      "hit": false,
      "t": 47692.32199999999,
      "d": 769.2309999999998,
      "v": 100
    },
    {
      "midi": 67,
      "hit": false,
      "t": 47692.32199999999,
      "d": 384.6154999999999,
      "v": 100
    },
    {
      "midi": 64,
      "hit": false,
      "t": 48076.93749999999,
      "d": 384.6154999999999,
      "v": 100
    },
    {
      "midi": 79,
      "hit": false,
      "t": 48461.55299999999,
      "d": 769.2309999999998,
      "v": 100
    },
    {
      "midi": 60,
      "hit": false,
      "t": 48461.55299999999,
      "d": 384.6154999999999,
      "v": 100
    },
    {
      "midi": 55,
      "hit": false,
      "t": 48846.16849999999,
      "d": 384.6154999999999,
      "v": 100
    },
    {
      "midi": 81,
      "hit": false,
      "t": 49230.78399999999,
      "d": 769.2309999999998,
      "v": 100
    },
    {
      "midi": 53,
      "hit": false,
      "t": 49230.78399999999,
      "d": 2307.6929999999993,
      "v": 100
    },
    {
      "midi": 60,
      "hit": false,
      "t": 49615.39949999999,
      "d": 384.6154999999999,
      "v": 100
    },
    {
      "midi": 83,
      "hit": false,
      "t": 50000.01499999999,
      "d": 769.2309999999998,
      "v": 100
    },
    {
      "midi": 71,
      "hit": false,
      "t": 50000.01499999999,
      "d": 384.6154999999999,
      "v": 100
    },
    {
      "midi": 67,
      "hit": false,
      "t": 50000.01499999999,
      "d": 384.6154999999999,
      "v": 100
    },
    {
      "midi": 60,
      "hit": false,
      "t": 50384.63049999999,
      "d": 384.6154999999999,
      "v": 100
    },
    {
      "midi": 84,
      "hit": false,
      "t": 50769.24599999999,
      "d": 769.2309999999998,
      "v": 100
    },
    {
      "midi": 72,
      "hit": false,
      "t": 50769.24599999999,
      "d": 384.6154999999999,
      "v": 100
    },
    {
      "midi": 69,
      "hit": false,
      "t": 50769.24599999999,
      "d": 384.6154999999999,
      "v": 100
    },
    {
      "midi": 60,
      "hit": false,
      "t": 51153.86149999999,
      "d": 384.6154999999999,
      "v": 100
    },
    {
      "midi": 79,
      "hit": false,
      "t": 51538.47699999999,
      "d": 2307.6929999999993,
      "v": 100
    },
    {
      "midi": 52,
      "hit": false,
      "t": 51538.47699999999,
      "d": 2307.6929999999993,
      "v": 100
    },
    {
      "midi": 60,
      "hit": false,
      "t": 52307.70799999999,
      "d": 384.6154999999999,
      "v": 100
    },
    {
      "midi": 64,
      "hit": false,
      "t": 52692.32349999999,
      "d": 384.6154999999999,
      "v": 100
    },
    {
      "midi": 60,
      "hit": false,
      "t": 53076.93899999999,
      "d": 384.6154999999999,
      "v": 100
    },
    {
      "midi": 55,
      "hit": false,
      "t": 53461.55449999999,
      "d": 384.6154999999999,
      "v": 100
    },
    {
      "midi": 84,
      "hit": false,
      "t": 53846.16999999999,
      "d": 1153.8464999999997,
      "v": 100
    },
    {
      "midi": 45,
      "hit": false,
      "t": 53846.16999999999,
      "d": 1153.8464999999997,
      "v": 100
    },
    {
      "midi": 52,
      "hit": false,
      "t": 54230.78549999999,
      "d": 384.6154999999999,
      "v": 100
    },
    {
      "midi": 57,
      "hit": false,
      "t": 54615.40099999999,
      "d": 384.6154999999999,
      "v": 100
    },
    {
      "midi": 83,
      "hit": false,
      "t": 55000.01649999999,
      "d": 384.6154999999999,
      "v": 100
    },
    {
      "midi": 47,
      "hit": false,
      "t": 55000.01649999999,
      "d": 384.6154999999999,
      "v": 100
    },
    {
      "midi": 81,
      "hit": false,
      "t": 55384.63199999999,
      "d": 769.2309999999998,
      "v": 100
    },
    {
      "midi": 60,
      "hit": false,
      "t": 55384.63199999999,
      "d": 769.2309999999998,
      "v": 100
    },
    {
      "midi": 48,
      "hit": false,
      "t": 55384.63199999999,
      "d": 384.6154999999999,
      "v": 100
    },
    {
      "midi": 50,
      "hit": false,
      "t": 55769.24749999999,
      "d": 384.6154999999999,
      "v": 100
    },
    {
      "midi": 79,
      "hit": false,
      "t": 56153.86299999999,
      "d": 1538.4619999999995,
      "v": 100
    },
    {
      "midi": 64,
      "hit": false,
      "t": 56153.86299999999,
      "d": 769.2309999999998,
      "v": 100
    },
    {
      "midi": 60,
      "hit": false,
      "t": 56153.86299999999,
      "d": 769.2309999999998,
      "v": 100
    },
    {
      "midi": 52,
      "hit": false,
      "t": 56153.86299999999,
      "d": 769.2309999999998,
      "v": 100
    },
    {
      "midi": 40,
      "hit": false,
      "t": 56923.09399999999,
      "d": 769.2309999999998,
      "v": 100
    },
    {
      "midi": 72,
      "hit": false,
      "t": 57692.32499999999,
      "d": 769.2309999999998,
      "v": 100
    },
    {
      "midi": 48,
      "hit": false,
      "t": 57692.32499999999,
      "d": 769.2309999999998,
      "v": 100
    },
    {
      "midi": 55,
      "hit": false,
      "t": 57692.32499999999,
      "d": 769.2309999999998,
      "v": 100
    },
    {
      "midi": 74,
      "hit": false,
      "t": 58461.55599999999,
      "d": 1153.8464999999997,
      "v": 100
    },
    {
      "midi": 62,
      "hit": false,
      "t": 58461.55599999999,
      "d": 1538.4619999999995,
      "v": 100
    },
    {
      "midi": 50,
      "hit": false,
      "t": 58461.55599999999,
      "d": 769.2309999999998,
      "v": 100
    },
    {
      "midi": 54,
      "hit": false,
      "t": 58461.55599999999,
      "d": 1538.4619999999995,
      "v": 100
    },
    {
      "midi": 38,
      "hit": false,
      "t": 59230.78699999999,
      "d": 769.2309999999998,
      "v": 100
    },
    {
      "midi": 76,
      "hit": false,
      "t": 59615.40249999999,
      "d": 384.6154999999999,
      "v": 100
    },
    {
      "midi": 64,
      "hit": false,
      "t": 59615.40249999999,
      "d": 384.6154999999999,
      "v": 100
    },
    {
      "midi": 74,
      "hit": false,
      "t": 60000.01799999999,
      "d": 769.2309999999998,
      "v": 100
    },
    {
      "midi": 62,
      "hit": false,
      "t": 60000.01799999999,
      "d": 769.2309999999998,
      "v": 100
    },
    {
      "midi": 50,
      "hit": false,
      "t": 60000.01799999999,
      "d": 769.2309999999998,
      "v": 100
    },
    {
      "midi": 53,
      "hit": false,
      "t": 60000.01799999999,
      "d": 769.2309999999998,
      "v": 100
    },
    {
      "midi": 72,
      "hit": false,
      "t": 60769.24899999999,
      "d": 2307.6929999999993,
      "v": 100
    },
    {
      "midi": 48,
      "hit": false,
      "t": 60769.24899999999,
      "d": 2307.6929999999993,
      "v": 100
    },
    {
      "midi": 52,
      "hit": false,
      "t": 60769.24899999999,
      "d": 2307.6929999999993,
      "v": 100
    },
    {
      "midi": 60,
      "hit": false,
      "t": 60769.24899999999,
      "d": 2307.6929999999993,
      "v": 100
    },
    {
      "midi": 55,
      "hit": false,
      "t": 61153.86449999999,
      "d": 384.6154999999999,
      "v": 100
    },
    {
      "midi": 72,
      "hit": false,
      "t": 61538.47999999999,
      "d": 384.6154999999999,
      "v": 100
    },
    {
      "midi": 67,
      "hit": false,
      "t": 61923.09549999999,
      "d": 384.6154999999999,
      "v": 100
    },
    {
      "midi": 64,
      "hit": false,
      "t": 62307.71099999999,
      "d": 384.6154999999999,
      "v": 100
    },
    {
      "midi": 60,
      "hit": false,
      "t": 62692.32649999999,
      "d": 384.6154999999999,
      "v": 100
    },
    {
      "midi": 81,
      "hit": false,
      "t": 63076.94199999999,
      "d": 1538.4619999999995,
      "v": 100
    },
    {
      "midi": 41,
      "hit": false,
      "t": 63076.94199999999,
      "d": 4615.386000000006,
      "v": 100
    },
    {
      "midi": 48,
      "hit": false,
      "t": 63461.55749999999,
      "d": 384.6154999999999,
      "v": 100
    },
    {
      "midi": 53,
      "hit": false,
      "t": 63846.17299999999,
      "d": 384.6154999999999,
      "v": 100
    },
    {
      "midi": 57,
      "hit": false,
      "t": 64230.78849999999,
      "d": 384.6154999999999,
      "v": 100
    },
    {
      "midi": 81,
      "hit": false,
      "t": 64615.40399999999,
      "d": 769.2309999999998,
      "v": 100
    },
    {
      "midi": 60,
      "hit": false,
      "t": 64615.40399999999,
      "d": 384.6154999999999,
      "v": 100
    },
    {
      "midi": 65,
      "hit": false,
      "t": 65000.01949999999,
      "d": 384.6154999999999,
      "v": 100
    },
    {
      "midi": 81,
      "hit": false,
      "t": 65384.63499999999,
      "d": 769.231000000007,
      "v": 100
    },
    {
      "midi": 69,
      "hit": false,
      "t": 65384.63499999999,
      "d": 384.61550000000716,
      "v": 100
    },
    {
      "midi": 60,
      "hit": false,
      "t": 65769.2505,
      "d": 384.6154999999999,
      "v": 100
    },
    {
      "midi": 83,
      "hit": false,
      "t": 66153.866,
      "d": 769.2309999999998,
      "v": 100
    },
    {
      "midi": 71,
      "hit": false,
      "t": 66153.866,
      "d": 384.6154999999999,
      "v": 100
    },
    {
      "midi": 67,
      "hit": false,
      "t": 66153.866,
      "d": 384.6154999999999,
      "v": 100
    },
    {
      "midi": 60,
      "hit": false,
      "t": 66538.4815,
      "d": 384.6154999999999,
      "v": 100
    },
    {
      "midi": 84,
      "hit": false,
      "t": 66923.097,
      "d": 769.2309999999998,
      "v": 100
    },
    {
      "midi": 72,
      "hit": false,
      "t": 66923.097,
      "d": 384.6154999999999,
      "v": 100
    },
    {
      "midi": 69,
      "hit": false,
      "t": 66923.097,
      "d": 384.6154999999999,
      "v": 100
    },
    {
      "midi": 60,
      "hit": false,
      "t": 67307.7125,
      "d": 384.6154999999999,
      "v": 100
    },
    {
      "midi": 84,
      "hit": false,
      "t": 67692.328,
      "d": 2307.6929999999993,
      "v": 100
    },
    {
      "midi": 72,
      "hit": false,
      "t": 67692.328,
      "d": 384.6154999999999,
      "v": 100
    },
    {
      "midi": 64,
      "hit": false,
      "t": 67692.328,
      "d": 384.6154999999999,
      "v": 100
    },
    {
      "midi": 40,
      "hit": false,
      "t": 67692.328,
      "d": 4615.386000000013,
      "v": 100
    },
    {
      "midi": 48,
      "hit": false,
      "t": 68076.9435,
      "d": 384.6154999999999,
      "v": 100
    },
    {
      "midi": 55,
      "hit": false,
      "t": 68461.559,
      "d": 384.6154999999999,
      "v": 100
    },
    {
      "midi": 60,
      "hit": false,
      "t": 68846.1745,
      "d": 384.6154999999999,
      "v": 100
    },
    {
      "midi": 64,
      "hit": false,
      "t": 69230.79,
      "d": 384.6154999999999,
      "v": 100
    },
    {
      "midi": 67,
      "hit": false,
      "t": 69615.4055,
      "d": 384.6154999999999,
      "v": 100
    },
    {
      "midi": 79,
      "hit": false,
      "t": 70000.021,
      "d": 2307.6929999999993,
      "v": 100
    },
    {
      "midi": 72,
      "hit": false,
      "t": 70000.021,
      "d": 384.6154999999999,
      "v": 100
    },
    {
      "midi": 67,
      "hit": false,
      "t": 70000.021,
      "d": 384.6154999999999,
      "v": 100
    },
    {
      "midi": 67,
      "hit": false,
      "t": 70384.6365,
      "d": 384.6154999999999,
      "v": 100
    },
    {
      "midi": 76,
      "hit": false,
      "t": 70769.252,
      "d": 384.6154999999999,
      "v": 100
    },
    {
      "midi": 72,
      "hit": false,
      "t": 70769.252,
      "d": 384.6154999999999,
      "v": 100
    },
    {
      "midi": 72,
      "hit": false,
      "t": 71153.8675,
      "d": 384.6154999999999,
      "v": 100
    },
    {
      "midi": 67,
      "hit": false,
      "t": 71538.483,
      "d": 384.6154999999999,
      "v": 100
    },
    {
      "midi": 64,
      "hit": false,
      "t": 71923.0985,
      "d": 384.61550000001444,
      "v": 100
    },
    {
      "midi": 79,
      "hit": false,
      "t": 72307.71399999999,
      "d": 1153.8464999999997,
      "v": 100
    },
    {
      "midi": 51,
      "hit": false,
      "t": 72307.714,
      "d": 384.6154999999999,
      "v": 100
    },
    {
      "midi": 39,
      "hit": false,
      "t": 72307.714,
      "d": 2307.6929999999993,
      "v": 100
    },
    {
      "midi": 46,
      "hit": false,
      "t": 72692.3295,
      "d": 769.2309999999998,
      "v": 100
    },
    {
      "midi": 51,
      "hit": false,
      "t": 73076.945,
      "d": 384.6154999999999,
      "v": 100
    },
    {
      "midi": 79,
      "hit": false,
      "t": 73461.56049999999,
      "d": 384.6154999999999,
      "v": 100
    },
    {
      "midi": 58,
      "hit": false,
      "t": 73461.5605,
      "d": 384.6154999999999,
      "v": 100
    },
    {
      "midi": 79,
      "hit": false,
      "t": 73846.17599999999,
      "d": 769.2309999999998,
      "v": 100
    },
    {
      "midi": 63,
      "hit": false,
      "t": 73846.176,
      "d": 384.6154999999999,
      "v": 100
    },
    {
      "midi": 67,
      "hit": false,
      "t": 74230.7915,
      "d": 384.6154999999999,
      "v": 100
    },
    {
      "midi": 79,
      "hit": false,
      "t": 74615.40699999999,
      "d": 769.2309999999998,
      "v": 100
    },
    {
      "midi": 60,
      "hit": false,
      "t": 74615.407,
      "d": 2307.6929999999993,
      "v": 100
    },
    {
      "midi": 55,
      "hit": false,
      "t": 74615.407,
      "d": 2307.6929999999993,
      "v": 100
    },
    {
      "midi": 77,
      "hit": false,
      "t": 75384.63799999999,
      "d": 769.2309999999998,
      "v": 100
    },
    {
      "midi": 65,
      "hit": false,
      "t": 75384.638,
      "d": 769.2309999999998,
      "v": 100
    },
    {
      "midi": 75,
      "hit": false,
      "t": 76153.86899999999,
      "d": 769.2309999999998,
      "v": 100
    },
    {
      "midi": 67,
      "hit": false,
      "t": 76153.869,
      "d": 769.2309999999998,
      "v": 100
    },
    {
      "midi": 77,
      "hit": false,
      "t": 76923.09999999999,
      "d": 2307.6929999999993,
      "v": 100
    },
    {
      "midi": 53,
      "hit": false,
      "t": 76923.1,
      "d": 384.6154999999999,
      "v": 100
    },
    {
      "midi": 41,
      "hit": false,
      "t": 76923.1,
      "d": 2307.6929999999993,
      "v": 100
    },
    {
      "midi": 60,
      "hit": false,
      "t": 76923.1,
      "d": 2307.6929999999993,
      "v": 100
    },
    {
      "midi": 45,
      "hit": false,
      "t": 77307.7155,
      "d": 384.6154999999999,
      "v": 100
    },
    {
      "midi": 53,
      "hit": false,
      "t": 77692.331,
      "d": 384.6154999999999,
      "v": 100
    },
    {
      "midi": 57,
      "hit": false,
      "t": 78076.9465,
      "d": 384.6154999999999,
      "v": 100
    },
    {
      "midi": 60,
      "hit": false,
      "t": 78461.562,
      "d": 384.6154999999999,
      "v": 100
    },
    {
      "midi": 65,
      "hit": false,
      "t": 78846.1775,
      "d": 384.6154999999999,
      "v": 100
    },
    {
      "midi": 79,
      "hit": false,
      "t": 79230.79299999999,
      "d": 2307.6929999999993,
      "v": 100
    },
    {
      "midi": 55,
      "hit": false,
      "t": 79230.793,
      "d": 384.6154999999999,
      "v": 100
    },
    {
      "midi": 43,
      "hit": false,
      "t": 79230.793,
      "d": 2307.6929999999993,
      "v": 100
    },
    {
      "midi": 59,
      "hit": false,
      "t": 79230.793,
      "d": 2307.6929999999993,
      "v": 100
    },
    {
      "midi": 47,
      "hit": false,
      "t": 79615.4085,
      "d": 384.6154999999999,
      "v": 100
    },
    {
      "midi": 55,
      "hit": false,
      "t": 80000.024,
      "d": 384.6154999999999,
      "v": 100
    },
    {
      "midi": 59,
      "hit": false,
      "t": 80384.6395,
      "d": 384.6154999999999,
      "v": 100
    },
    {
      "midi": 62,
      "hit": false,
      "t": 80769.255,
      "d": 384.6154999999999,
      "v": 100
    },
    {
      "midi": 67,
      "hit": false,
      "t": 81153.8705,
      "d": 384.6154999999999,
      "v": 100
    },
    {
      "midi": 71,
      "hit": false,
      "t": 81538.486,
      "d": 769.2309999999998,
      "v": 100
    },
    {
      "midi": 62,
      "hit": false,
      "t": 81538.486,
      "d": 769.2309999999998,
      "v": 100
    },
    {
      "midi": 67,
      "hit": false,
      "t": 81923.1015,
      "d": 384.6154999999999,
      "v": 100
    },
    {
      "midi": 72,
      "hit": false,
      "t": 82307.717,
      "d": 769.2309999999998,
      "v": 100
    },
    {
      "midi": 64,
      "hit": false,
      "t": 82307.717,
      "d": 769.2309999999998,
      "v": 100
    },
    {
      "midi": 67,
      "hit": false,
      "t": 82692.3325,
      "d": 384.6154999999999,
      "v": 100
    },
    {
      "midi": 74,
      "hit": false,
      "t": 83076.948,
      "d": 769.2309999999998,
      "v": 100
    },
    {
      "midi": 65,
      "hit": false,
      "t": 83076.948,
      "d": 769.2309999999998,
      "v": 100
    },
    {
      "midi": 67,
      "hit": false,
      "t": 83461.5635,
      "d": 384.6154999999999,
      "v": 100
    },
    {
      "midi": 72,
      "hit": false,
      "t": 83846.179,
      "d": 769.2309999999998,
      "v": 100
    },
    {
      "midi": 64,
      "hit": false,
      "t": 83846.179,
      "d": 769.2309999999998,
      "v": 100
    },
    {
      "midi": 67,
      "hit": false,
      "t": 84230.7945,
      "d": 384.6154999999999,
      "v": 100
    },
    {
      "midi": 71,
      "hit": false,
      "t": 84615.41,
      "d": 384.6154999999999,
      "v": 100
    },
    {
      "midi": 62,
      "hit": false,
      "t": 84615.41,
      "d": 769.2309999999998,
      "v": 100
    },
    {
      "midi": 67,
      "hit": false,
      "t": 85000.0255,
      "d": 384.6154999999999,
      "v": 100
    },
    {
      "midi": 62,
      "hit": false,
      "t": 85384.641,
      "d": 384.6154999999999,
      "v": 100
    },
    {
      "midi": 59,
      "hit": false,
      "t": 85769.2565,
      "d": 384.61550000001444,
      "v": 100
    },
    {
      "midi": 72,
      "hit": false,
      "t": 86153.87199999999,
      "d": 769.2309999999998,
      "v": 100
    },
    {
      "midi": 60,
      "hit": false,
      "t": 86153.87200000002,
      "d": 384.6154999999999,
      "v": 100
    },
    {
      "midi": 48,
      "hit": false,
      "t": 86153.87200000002,
      "d": 2307.6929999999993,
      "v": 100
    },
    {
      "midi": 52,
      "hit": false,
      "t": 86153.87200000002,
      "d": 2307.6929999999993,
      "v": 100
    },
    {
      "midi": 55,
      "hit": false,
      "t": 86538.48750000002,
      "d": 384.6154999999999,
      "v": 100
    },
    {
      "midi": 76,
      "hit": false,
      "t": 86923.10299999999,
      "d": 769.2309999999998,
      "v": 100
    },
    {
      "midi": 67,
      "hit": false,
      "t": 86923.10300000002,
      "d": 384.6154999999999,
      "v": 100
    },
    {
      "midi": 60,
      "hit": false,
      "t": 87307.71850000002,
      "d": 384.6154999999999,
      "v": 100
    },
    {
      "midi": 79,
      "hit": false,
      "t": 87692.33399999999,
      "d": 769.2309999999998,
      "v": 100
    },
    {
      "midi": 55,
      "hit": false,
      "t": 87692.33400000002,
      "d": 384.6154999999999,
      "v": 100
    },
    {
      "midi": 52,
      "hit": false,
      "t": 88076.94950000002,
      "d": 384.6154999999999,
      "v": 100
    },
    {
      "midi": 76,
      "hit": false,
      "t": 88461.56499999999,
      "d": 769.2309999999998,
      "v": 100
    },
    {
      "midi": 64,
      "hit": false,
      "t": 88461.56500000002,
      "d": 384.6154999999999,
      "v": 100
    },
    {
      "midi": 60,
      "hit": false,
      "t": 88461.56500000002,
      "d": 384.6154999999999,
      "v": 100
    },
    {
      "midi": 40,
      "hit": false,
      "t": 88461.56500000002,
      "d": 2307.6929999999993,
      "v": 100
    },
    {
      "midi": 52,
      "hit": false,
      "t": 88846.18050000002,
      "d": 384.6154999999999,
      "v": 100
    },
    {
      "midi": 77,
      "hit": false,
      "t": 89230.79599999999,
      "d": 769.2309999999998,
      "v": 100
    },
    {
      "midi": 65,
      "hit": false,
      "t": 89230.79600000002,
      "d": 384.6154999999999,
      "v": 100
    },
    {
      "midi": 62,
      "hit": false,
      "t": 89230.79600000002,
      "d": 384.6154999999999,
      "v": 100
    },
    {
      "midi": 52,
      "hit": false,
      "t": 89615.41150000002,
      "d": 384.6154999999999,
      "v": 100
    },
    {
      "midi": 79,
      "hit": false,
      "t": 90000.02699999999,
      "d": 769.2309999999998,
      "v": 100
    },
    {
      "midi": 67,
      "hit": false,
      "t": 90000.02700000002,
      "d": 384.6154999999999,
      "v": 100
    },
    {
      "midi": 64,
      "hit": false,
      "t": 90000.02700000002,
      "d": 384.6154999999999,
      "v": 100
    },
    {
      "midi": 52,
      "hit": false,
      "t": 90384.64250000002,
      "d": 384.6154999999999,
      "v": 100
    },
    {
      "midi": 81,
      "hit": false,
      "t": 90769.25799999999,
      "d": 769.2309999999998,
      "v": 100
    },
    {
      "midi": 53,
      "hit": false,
      "t": 90769.25800000002,
      "d": 384.6154999999999,
      "v": 100
    },
    {
      "midi": 41,
      "hit": false,
      "t": 90769.25800000002,
      "d": 2307.6929999999993,
      "v": 100
    },
    {
      "midi": 48,
      "hit": false,
      "t": 91153.87350000002,
      "d": 384.6154999999999,
      "v": 100
    },
    {
      "midi": 83,
      "hit": false,
      "t": 91538.48899999999,
      "d": 769.2309999999998,
      "v": 100
    },
    {
      "midi": 53,
      "hit": false,
      "t": 91538.48900000002,
      "d": 384.6154999999999,
      "v": 100
    },
    {
      "midi": 57,
      "hit": false,
      "t": 91923.10450000002,
      "d": 384.6154999999999,
      "v": 100
    },
    {
      "midi": 84,
      "hit": false,
      "t": 92307.71999999999,
      "d": 769.2309999999998,
      "v": 100
    },
    {
      "midi": 60,
      "hit": false,
      "t": 92307.72000000002,
      "d": 384.6154999999999,
      "v": 100
    },
    {
      "midi": 65,
      "hit": false,
      "t": 92692.33550000002,
      "d": 384.6154999999999,
      "v": 100
    },
    {
      "midi": 79,
      "hit": false,
      "t": 93076.95099999999,
      "d": 1538.4619999999995,
      "v": 100
    },
    {
      "midi": 60,
      "hit": false,
      "t": 93076.95100000002,
      "d": 384.6154999999999,
      "v": 100
    },
    {
      "midi": 40,
      "hit": false,
      "t": 93076.95100000002,
      "d": 2307.6929999999993,
      "v": 100
    },
    {
      "midi": 55,
      "hit": false,
      "t": 93461.56650000002,
      "d": 384.6154999999999,
      "v": 100
    },
    {
      "midi": 72,
      "hit": false,
      "t": 93846.18200000002,
      "d": 384.6154999999999,
      "v": 100
    },
    {
      "midi": 67,
      "hit": false,
      "t": 94230.79750000002,
      "d": 384.6154999999999,
      "v": 100
    },
    {
      "midi": 79,
      "hit": false,
      "t": 94615.41299999999,
      "d": 769.2309999999998,
      "v": 100
    },
    {
      "midi": 64,
      "hit": false,
      "t": 94615.41300000002,
      "d": 384.6154999999999,
      "v": 100
    },
    {
      "midi": 60,
      "hit": false,
      "t": 95000.02850000001,
      "d": 384.6154999999999,
      "v": 100
    },
    {
      "midi": 84,
      "hit": false,
      "t": 95384.64399999999,
      "d": 1153.8464999999997,
      "v": 100
    },
    {
      "midi": 69,
      "hit": false,
      "t": 95384.64400000001,
      "d": 384.6154999999999,
      "v": 100
    },
    {
      "midi": 45,
      "hit": false,
      "t": 95384.64400000001,
      "d": 1153.8464999999997,
      "v": 100
    },
    {
      "midi": 52,
      "hit": false,
      "t": 95769.25950000001,
      "d": 384.6154999999999,
      "v": 100
    },
    {
      "midi": 57,
      "hit": false,
      "t": 96153.87500000001,
      "d": 769.2309999999998,
      "v": 100
    },
    {
      "midi": 83,
      "hit": false,
      "t": 96538.49049999999,
      "d": 384.6154999999999,
      "v": 100
    },
    {
      "midi": 47,
      "hit": false,
      "t": 96538.49050000001,
      "d": 384.6154999999999,
      "v": 100
    },
    {
      "midi": 81,
      "hit": false,
      "t": 96923.10599999999,
      "d": 769.2309999999998,
      "v": 100
    },
    {
      "midi": 60,
      "hit": false,
      "t": 96923.10600000001,
      "d": 769.2309999999998,
      "v": 100
    },
    {
      "midi": 48,
      "hit": false,
      "t": 96923.10600000001,
      "d": 384.6154999999999,
      "v": 100
    },
    {
      "midi": 50,
      "hit": false,
      "t": 97307.72150000001,
      "d": 384.6154999999999,
      "v": 100
    },
    {
      "midi": 79,
      "hit": false,
      "t": 97692.33699999998,
      "d": 1538.4619999999995,
      "v": 100
    },
    {
      "midi": 55,
      "hit": false,
      "t": 97692.33700000001,
      "d": 384.6154999999999,
      "v": 100
    },
    {
      "midi": 64,
      "hit": false,
      "t": 97692.33700000001,
      "d": 769.2309999999998,
      "v": 100
    },
    {
      "midi": 52,
      "hit": false,
      "t": 97692.33700000001,
      "d": 769.2309999999998,
      "v": 100
    },
    {
      "midi": 40,
      "hit": false,
      "t": 98461.56800000001,
      "d": 769.2309999999998,
      "v": 100
    },
    {
      "midi": 72,
      "hit": false,
      "t": 99230.79899999998,
      "d": 769.2309999999998,
      "v": 100
    },
    {
      "midi": 55,
      "hit": false,
      "t": 99230.79900000001,
      "d": 769.2309999999998,
      "v": 100
    },
    {
      "midi": 48,
      "hit": false,
      "t": 99230.79900000001,
      "d": 769.2309999999998,
      "v": 100
    },
    {
      "midi": 74,
      "hit": false,
      "t": 100000.02999999998,
      "d": 1153.8464999999997,
      "v": 100
    },
    {
      "midi": 54,
      "hit": false,
      "t": 100000.03000000001,
      "d": 1538.4619999999995,
      "v": 100
    },
    {
      "midi": 50,
      "hit": false,
      "t": 100000.03000000001,
      "d": 384.6154999999999,
      "v": 100
    },
    {
      "midi": 38,
      "hit": false,
      "t": 100384.64550000001,
      "d": 384.6154999999999,
      "v": 100
    },
    {
      "midi": 50,
      "hit": false,
      "t": 100769.26100000001,
      "d": 769.2309999999998,
      "v": 100
    },
    {
      "midi": 76,
      "hit": false,
      "t": 101153.87649999998,
      "d": 384.6154999999999,
      "v": 100
    },
    {
      "midi": 74,
      "hit": false,
      "t": 101538.49199999998,
      "d": 769.2309999999998,
      "v": 100
    },
    {
      "midi": 53,
      "hit": false,
      "t": 101538.49200000001,
      "d": 769.2309999999998,
      "v": 100
    },
    {
      "midi": 50,
      "hit": false,
      "t": 101538.49200000001,
      "d": 769.2309999999998,
      "v": 100
    },
    {
      "midi": 72,
      "hit": false,
      "t": 102307.72299999998,
      "d": 2307.6929999999993,
      "v": 100
    },
    {
      "midi": 52,
      "hit": false,
      "t": 102307.72300000001,
      "d": 384.6154999999999,
      "v": 100
    },
    {
      "midi": 52,
      "hit": false,
      "t": 102307.72300000001,
      "d": 2307.693000000014,
      "v": 100
    },
    {
      "midi": 48,
      "hit": false,
      "t": 102307.72300000001,
      "d": 2307.693000000014,
      "v": 100
    },
    {
      "midi": 43,
      "hit": false,
      "t": 102692.33850000001,
      "d": 384.6154999999999,
      "v": 100
    },
    {
      "midi": 48,
      "hit": false,
      "t": 103076.95400000001,
      "d": 384.6154999999999,
      "v": 100
    },
    {
      "midi": 52,
      "hit": false,
      "t": 103461.56950000001,
      "d": 384.6154999999999,
      "v": 100
    },
    {
      "midi": 55,
      "hit": false,
      "t": 103846.18500000001,
      "d": 384.6154999999999,
      "v": 100
    },
    {
      "midi": 60,
      "hit": false,
      "t": 104230.80050000001,
      "d": 384.61550000001444,
      "v": 100
    },
    {
      "midi": 71,
      "hit": false,
      "t": 104615.41600000003,
      "d": 769.2309999999998,
      "v": 100
    },
    {
      "midi": 62,
      "hit": false,
      "t": 104615.41600000003,
      "d": 769.2309999999998,
      "v": 100
    },
    {
      "midi": 67,
      "hit": false,
      "t": 105000.03150000003,
      "d": 384.6154999999999,
      "v": 100
    },
    {
      "midi": 72,
      "hit": false,
      "t": 105384.64700000003,
      "d": 769.2309999999998,
      "v": 100
    },
    {
      "midi": 64,
      "hit": false,
      "t": 105384.64700000003,
      "d": 769.2309999999998,
      "v": 100
    },
    {
      "midi": 67,
      "hit": false,
      "t": 105769.26250000003,
      "d": 384.6154999999999,
      "v": 100
    },
    {
      "midi": 74,
      "hit": false,
      "t": 106153.87800000003,
      "d": 769.2309999999998,
      "v": 100
    },
    {
      "midi": 65,
      "hit": false,
      "t": 106153.87800000003,
      "d": 769.2309999999998,
      "v": 100
    },
    {
      "midi": 67,
      "hit": false,
      "t": 106538.49350000003,
      "d": 384.6154999999999,
      "v": 100
    },
    {
      "midi": 72,
      "hit": false,
      "t": 106923.10900000003,
      "d": 769.2309999999998,
      "v": 100
    },
    {
      "midi": 64,
      "hit": false,
      "t": 106923.10900000003,
      "d": 769.2309999999998,
      "v": 100
    },
    {
      "midi": 67,
      "hit": false,
      "t": 107307.72450000003,
      "d": 384.6154999999999,
      "v": 100
    },
    {
      "midi": 71,
      "hit": false,
      "t": 107692.34000000003,
      "d": 769.2309999999998,
      "v": 100
    },
    {
      "midi": 62,
      "hit": false,
      "t": 107692.34000000003,
      "d": 769.2309999999998,
      "v": 100
    },
    {
      "midi": 67,
      "hit": false,
      "t": 108076.95550000003,
      "d": 384.6154999999999,
      "v": 100
    },
    {
      "midi": 72,
      "hit": false,
      "t": 108461.57100000003,
      "d": 769.2309999999998,
      "v": 100
    },
    {
      "midi": 64,
      "hit": false,
      "t": 108461.57100000003,
      "d": 769.2309999999998,
      "v": 100
    },
    {
      "midi": 67,
      "hit": false,
      "t": 108846.18650000003,
      "d": 384.6154999999999,
      "v": 100
    },
    {
      "midi": 69,
      "hit": false,
      "t": 109230.80200000003,
      "d": 769.2309999999998,
      "v": 100
    },
    {
      "midi": 60,
      "hit": false,
      "t": 109230.80200000003,
      "d": 769.2309999999998,
      "v": 100
    },
    {
      "midi": 65,
      "hit": false,
      "t": 109615.41750000003,
      "d": 384.6154999999999,
      "v": 100
    },
    {
      "midi": 71,
      "hit": false,
      "t": 110000.03300000002,
      "d": 769.2309999999998,
      "v": 100
    },
    {
      "midi": 62,
      "hit": false,
      "t": 110000.03300000002,
      "d": 769.2309999999998,
      "v": 100
    },
    {
      "midi": 65,
      "hit": false,
      "t": 110384.64850000002,
      "d": 384.6154999999999,
      "v": 100
    },
    {
      "midi": 72,
      "hit": false,
      "t": 110769.26400000002,
      "d": 769.2309999999998,
      "v": 100
    },
    {
      "midi": 64,
      "hit": false,
      "t": 110769.26400000002,
      "d": 769.2309999999998,
      "v": 100
    },
    {
      "midi": 65,
      "hit": false,
      "t": 111153.87950000002,
      "d": 384.6154999999999,
      "v": 100
    },
    {
      "midi": 71,
      "hit": false,
      "t": 111538.49500000002,
      "d": 769.2309999999998,
      "v": 100
    },
    {
      "midi": 62,
      "hit": false,
      "t": 111538.49500000002,
      "d": 769.2309999999998,
      "v": 100
    },
    {
      "midi": 65,
      "hit": false,
      "t": 111923.11050000002,
      "d": 384.6154999999999,
      "v": 100
    },
    {
      "midi": 69,
      "hit": false,
      "t": 112307.72600000002,
      "d": 769.2309999999998,
      "v": 100
    },
    {
      "midi": 60,
      "hit": false,
      "t": 112307.72600000002,
      "d": 769.2309999999998,
      "v": 100
    },
    {
      "midi": 65,
      "hit": false,
      "t": 112692.34150000002,
      "d": 384.6154999999999,
      "v": 100
    },
    {
      "midi": 71,
      "hit": false,
      "t": 113076.95700000002,
      "d": 769.2309999999998,
      "v": 100
    },
    {
      "midi": 62,
      "hit": false,
      "t": 113076.95700000002,
      "d": 769.2309999999998,
      "v": 100
    },
    {
      "midi": 65,
      "hit": false,
      "t": 113461.57250000002,
      "d": 384.6154999999999,
      "v": 100
    },
    {
      "midi": 67,
      "hit": false,
      "t": 113846.18800000002,
      "d": 2307.6929999999993,
      "v": 100
    },
    {
      "midi": 40,
      "hit": false,
      "t": 113846.18800000002,
      "d": 384.6154999999999,
      "v": 100
    },
    {
      "midi": 52,
      "hit": false,
      "t": 113846.18800000002,
      "d": 384.6154999999999,
      "v": 100
    },
    {
      "midi": 47,
      "hit": false,
      "t": 114230.80350000002,
      "d": 384.6154999999999,
      "v": 100
    },
    {
      "midi": 55,
      "hit": false,
      "t": 114615.41900000002,
      "d": 384.6154999999999,
      "v": 100
    },
    {
      "midi": 59,
      "hit": false,
      "t": 115000.03450000002,
      "d": 384.6154999999999,
      "v": 100
    },
    {
      "midi": 62,
      "hit": false,
      "t": 115384.65000000002,
      "d": 384.6154999999999,
      "v": 100
    },
    {
      "midi": 67,
      "hit": false,
      "t": 115769.26550000002,
      "d": 384.6154999999999,
      "v": 100
    },
    {
      "midi": 48,
      "hit": false,
      "t": 116153.88100000002,
      "d": 769.2309999999998,
      "v": 100
    },
    {
      "midi": 52,
      "hit": false,
      "t": 116153.88100000002,
      "d": 769.2309999999998,
      "v": 100
    },
    {
      "midi": 40,
      "hit": false,
      "t": 116153.88100000002,
      "d": 769.2309999999998,
      "v": 100
    },
    {
      "midi": 64,
      "hit": false,
      "t": 116538.49650000002,
      "d": 384.6154999999999,
      "v": 100
    },
    {
      "midi": 65,
      "hit": false,
      "t": 116923.11200000002,
      "d": 769.2309999999998,
      "v": 100
    },
    {
      "midi": 57,
      "hit": false,
      "t": 116923.11200000002,
      "d": 769.2309999999998,
      "v": 100
    },
    {
      "midi": 64,
      "hit": false,
      "t": 117692.34300000002,
      "d": 769.2309999999998,
      "v": 100
    },
    {
      "midi": 60,
      "hit": false,
      "t": 117692.34300000002,
      "d": 769.2309999999998,
      "v": 100
    },
    {
      "midi": 55,
      "hit": false,
      "t": 117692.34300000002,
      "d": 769.2309999999998,
      "v": 100
    },
    {
      "midi": 65,
      "hit": false,
      "t": 118461.57400000002,
      "d": 2307.6929999999993,
      "v": 100
    },
    {
      "midi": 38,
      "hit": false,
      "t": 118461.57400000002,
      "d": 384.6154999999999,
      "v": 100
    },
    {
      "midi": 50,
      "hit": false,
      "t": 118461.57400000002,
      "d": 384.6154999999999,
      "v": 100
    },
    {
      "midi": 41,
      "hit": false,
      "t": 118846.18950000002,
      "d": 384.6154999999999,
      "v": 100
    },
    {
      "midi": 53,
      "hit": false,
      "t": 119230.80500000002,
      "d": 384.6154999999999,
      "v": 100
    },
    {
      "midi": 57,
      "hit": false,
      "t": 119615.42050000002,
      "d": 384.6154999999999,
      "v": 100
    },
    {
      "midi": 60,
      "hit": false,
      "t": 120000.03600000002,
      "d": 384.6154999999999,
      "v": 100
    },
    {
      "midi": 65,
      "hit": false,
      "t": 120384.65150000002,
      "d": 384.6154999999999,
      "v": 100
    },
    {
      "midi": 69,
      "hit": false,
      "t": 120769.26700000002,
      "d": 384.6154999999999,
      "v": 100
    },
    {
      "midi": 43,
      "hit": false,
      "t": 120769.26700000002,
      "d": 2307.693000000014,
      "v": 100
    },
    {
      "midi": 55,
      "hit": false,
      "t": 120769.26700000002,
      "d": 2307.693000000014,
      "v": 100
    },
    {
      "midi": 65,
      "hit": false,
      "t": 121153.88250000002,
      "d": 384.6154999999999,
      "v": 100
    },
    {
      "midi": 72,
      "hit": false,
      "t": 121538.49800000002,
      "d": 384.6154999999999,
      "v": 100
    },
    {
      "midi": 69,
      "hit": false,
      "t": 121923.11350000002,
      "d": 384.6154999999999,
      "v": 100
    },
    {
      "midi": 65,
      "hit": false,
      "t": 122307.72900000002,
      "d": 384.6154999999999,
      "v": 100
    },
    {
      "midi": 62,
      "hit": false,
      "t": 122692.34450000002,
      "d": 384.61550000001444,
      "v": 100
    },
    {
      "midi": 72,
      "hit": false,
      "t": 123076.95999999998,
      "d": 769.2309999999998,
      "v": 100
    },
    {
      "midi": 60,
      "hit": false,
      "t": 123076.96000000004,
      "d": 769.2309999999998,
      "v": 100
    },
    {
      "midi": 55,
      "hit": false,
      "t": 123461.57550000004,
      "d": 384.6154999999999,
      "v": 100
    },
    {
      "midi": 76,
      "hit": false,
      "t": 123846.19099999998,
      "d": 769.2309999999998,
      "v": 100
    },
    {
      "midi": 64,
      "hit": false,
      "t": 123846.19100000004,
      "d": 769.2309999999998,
      "v": 100
    },
    {
      "midi": 55,
      "hit": false,
      "t": 124230.80650000004,
      "d": 384.6154999999999,
      "v": 100
    },
    {
      "midi": 79,
      "hit": false,
      "t": 124615.42199999998,
      "d": 769.2309999999998,
      "v": 100
    },
    {
      "midi": 67,
      "hit": false,
      "t": 124615.42200000004,
      "d": 769.2309999999998,
      "v": 100
    },
    {
      "midi": 55,
      "hit": false,
      "t": 125000.03750000003,
      "d": 384.6154999999999,
      "v": 100
    },
    {
      "midi": 76,
      "hit": false,
      "t": 125384.65299999998,
      "d": 769.2309999999998,
      "v": 100
    },
    {
      "midi": 64,
      "hit": false,
      "t": 125384.65300000003,
      "d": 769.2309999999998,
      "v": 100
    },
    {
      "midi": 60,
      "hit": false,
      "t": 125384.65300000003,
      "d": 769.2309999999998,
      "v": 100
    },
    {
      "midi": 55,
      "hit": false,
      "t": 125769.26850000003,
      "d": 384.6154999999999,
      "v": 100
    },
    {
      "midi": 77,
      "hit": false,
      "t": 126153.88399999998,
      "d": 769.2309999999998,
      "v": 100
    },
    {
      "midi": 65,
      "hit": false,
      "t": 126153.88400000003,
      "d": 769.2309999999998,
      "v": 100
    },
    {
      "midi": 62,
      "hit": false,
      "t": 126153.88400000003,
      "d": 769.2309999999998,
      "v": 100
    },
    {
      "midi": 55,
      "hit": false,
      "t": 126538.49950000003,
      "d": 384.6154999999999,
      "v": 100
    },
    {
      "midi": 79,
      "hit": false,
      "t": 126923.11499999998,
      "d": 769.2309999999998,
      "v": 100
    },
    {
      "midi": 67,
      "hit": false,
      "t": 126923.11500000003,
      "d": 769.2309999999998,
      "v": 100
    },
    {
      "midi": 64,
      "hit": false,
      "t": 126923.11500000003,
      "d": 769.2309999999998,
      "v": 100
    },
    {
      "midi": 55,
      "hit": false,
      "t": 127307.73050000003,
      "d": 384.6154999999999,
      "v": 100
    },
    {
      "midi": 81,
      "hit": false,
      "t": 127692.34599999998,
      "d": 769.2309999999998,
      "v": 100
    },
    {
      "midi": 53,
      "hit": false,
      "t": 127692.34600000003,
      "d": 2307.6929999999993,
      "v": 100
    },
    {
      "midi": 55,
      "hit": false,
      "t": 128076.96150000003,
      "d": 384.6154999999999,
      "v": 100
    },
    {
      "midi": 83,
      "hit": false,
      "t": 128461.57699999998,
      "d": 769.2309999999998,
      "v": 100
    },
    {
      "midi": 71,
      "hit": false,
      "t": 128461.57700000003,
      "d": 384.6154999999999,
      "v": 100
    },
    {
      "midi": 67,
      "hit": false,
      "t": 128461.57700000003,
      "d": 384.6154999999999,
      "v": 100
    },
    {
      "midi": 55,
      "hit": false,
      "t": 128846.19250000003,
      "d": 384.6154999999999,
      "v": 100
    },
    {
      "midi": 84,
      "hit": false,
      "t": 129230.80799999998,
      "d": 769.2309999999998,
      "v": 100
    },
    {
      "midi": 72,
      "hit": false,
      "t": 129230.80800000003,
      "d": 384.6154999999999,
      "v": 100
    },
    {
      "midi": 69,
      "hit": false,
      "t": 129230.80800000003,
      "d": 384.6154999999999,
      "v": 100
    },
    {
      "midi": 55,
      "hit": false,
      "t": 129615.42350000003,
      "d": 384.6154999999999,
      "v": 100
    },
    {
      "midi": 79,
      "hit": false,
      "t": 130000.03899999998,
      "d": 2307.693000000014,
      "v": 100
    },
    {
      "midi": 52,
      "hit": false,
      "t": 130000.03900000003,
      "d": 2307.693000000014,
      "v": 100
    },
    {
      "midi": 55,
      "hit": false,
      "t": 130384.65450000003,
      "d": 384.6154999999999,
      "v": 100
    },
    {
      "midi": 72,
      "hit": false,
      "t": 130769.27000000003,
      "d": 384.6154999999999,
      "v": 100
    },
    {
      "midi": 67,
      "hit": false,
      "t": 131153.88550000003,
      "d": 384.61550000001444,
      "v": 100
    },
    {
      "midi": 64,
      "hit": false,
      "t": 131538.50100000005,
      "d": 384.61550000001444,
      "v": 100
    },
    {
      "midi": 60,
      "hit": false,
      "t": 131923.11650000006,
      "d": 384.61550000001444,
      "v": 100
    },
    {
      "midi": 77,
      "hit": false,
      "t": 132307.732,
      "d": 1153.8465000000142,
      "v": 100
    },
    {
      "midi": 50,
      "hit": false,
      "t": 132307.73200000005,
      "d": 2307.6929999999993,
      "v": 100
    },
    {
      "midi": 57,
      "hit": false,
      "t": 132307.73200000008,
      "d": 384.61550000001444,
      "v": 100
    },
    {
      "midi": 62,
      "hit": false,
      "t": 132692.3475000001,
      "d": 384.61550000001444,
      "v": 100
    },
    {
      "midi": 65,
      "hit": false,
      "t": 133076.9630000001,
      "d": 384.61550000001444,
      "v": 100
    },
    {
      "midi": 79,
      "hit": false,
      "t": 133461.5785,
      "d": 384.61550000001444,
      "v": 100
    },
    {
      "midi": 67,
      "hit": false,
      "t": 133461.57850000012,
      "d": 384.61550000001444,
      "v": 100
    },
    {
      "midi": 77,
      "hit": false,
      "t": 133846.19400000002,
      "d": 769.2309999999998,
      "v": 100
    },
    {
      "midi": 65,
      "hit": false,
      "t": 133846.19400000013,
      "d": 384.61550000001444,
      "v": 100
    },
    {
      "midi": 76,
      "hit": false,
      "t": 134615.42500000002,
      "d": 769.2309999999998,
      "v": 100
    },
    {
      "midi": 48,
      "hit": false,
      "t": 134615.42500000005,
      "d": 2307.6929999999993,
      "v": 100
    },
    {
      "midi": 60,
      "hit": false,
      "t": 134615.42500000016,
      "d": 384.61550000001444,
      "v": 100
    },
    {
      "midi": 55,
      "hit": false,
      "t": 135000.04050000018,
      "d": 384.61550000001444,
      "v": 100
    },
    {
      "midi": 77,
      "hit": false,
      "t": 135384.65600000002,
      "d": 769.2309999999998,
      "v": 100
    },
    {
      "midi": 64,
      "hit": false,
      "t": 135384.6560000002,
      "d": 384.61550000001444,
      "v": 100
    },
    {
      "midi": 60,
      "hit": false,
      "t": 135384.6560000002,
      "d": 384.61550000001444,
      "v": 100
    },
    {
      "midi": 55,
      "hit": false,
      "t": 135769.2715000002,
      "d": 384.61550000001444,
      "v": 100
    },
    {
      "midi": 79,
      "hit": false,
      "t": 136153.88700000002,
      "d": 769.2309999999998,
      "v": 100
    },
    {
      "midi": 67,
      "hit": false,
      "t": 136153.88700000022,
      "d": 384.61550000001444,
      "v": 100
    },
    {
      "midi": 64,
      "hit": false,
      "t": 136153.88700000022,
      "d": 384.61550000001444,
      "v": 100
    },
    {
      "midi": 74,
      "hit": false,
      "t": 136923.11800000002,
      "d": 2307.6929999999993,
      "v": 100
    },
    {
      "midi": 43,
      "hit": false,
      "t": 136923.11800000005,
      "d": 2307.6929999999993,
      "v": 100
    },
    {
      "midi": 62,
      "hit": false,
      "t": 136923.11800000025,
      "d": 384.61550000001444,
      "v": 100
    },
    {
      "midi": 50,
      "hit": false,
      "t": 137307.73350000026,
      "d": 384.61550000001444,
      "v": 100
    },
    {
      "midi": 55,
      "hit": false,
      "t": 137692.34900000028,
      "d": 384.61550000001444,
      "v": 100
    },
    {
      "midi": 60,
      "hit": false,
      "t": 138076.9645000003,
      "d": 384.61550000001444,
      "v": 100
    },
    {
      "midi": 62,
      "hit": false,
      "t": 138461.5800000003,
      "d": 384.61550000001444,
      "v": 100
    },
    {
      "midi": 67,
      "hit": false,
      "t": 138846.19550000032,
      "d": 384.61550000001444,
      "v": 100
    },
    {
      "midi": 74,
      "hit": false,
      "t": 139230.81100000002,
      "d": 2307.6929999999993,
      "v": 100
    },
    {
      "midi": 43,
      "hit": false,
      "t": 139230.81100000005,
      "d": 769.2309999999998,
      "v": 100
    },
    {
      "midi": 59,
      "hit": false,
      "t": 139230.81100000034,
      "d": 769.2309999999998,
      "v": 100
    },
    {
      "midi": 45,
      "hit": false,
      "t": 140000.04200000004,
      "d": 769.2309999999998,
      "v": 100
    },
    {
      "midi": 60,
      "hit": false,
      "t": 140000.04200000034,
      "d": 769.2309999999998,
      "v": 100
    },
    {
      "midi": 47,
      "hit": false,
      "t": 140769.27300000004,
      "d": 769.2309999999998,
      "v": 100
    },
    {
      "midi": 62,
      "hit": false,
      "t": 140769.27300000034,
      "d": 769.2309999999998,
      "v": 100
    },
    {
      "midi": 72,
      "hit": false,
      "t": 141538.50400000002,
      "d": 769.2309999999998,
      "v": 100
    },
    {
      "midi": 48,
      "hit": false,
      "t": 141538.50400000004,
      "d": 2307.6929999999993,
      "v": 100
    },
    {
      "midi": 55,
      "hit": false,
      "t": 141923.11950000035,
      "d": 384.61550000001444,
      "v": 100
    },
    {
      "midi": 76,
      "hit": false,
      "t": 142307.73500000002,
      "d": 769.2309999999998,
      "v": 100
    },
    {
      "midi": 67,
      "hit": false,
      "t": 142307.73500000036,
      "d": 384.61550000001444,
      "v": 100
    },
    {
      "midi": 64,
      "hit": false,
      "t": 142692.35050000038,
      "d": 384.61550000001444,
      "v": 100
    },
    {
      "midi": 79,
      "hit": false,
      "t": 143076.96600000001,
      "d": 769.2309999999998,
      "v": 100
    },
    {
      "midi": 60,
      "hit": false,
      "t": 143076.9660000004,
      "d": 384.61550000001444,
      "v": 100
    },
    {
      "midi": 55,
      "hit": false,
      "t": 143461.5815000004,
      "d": 384.61550000001444,
      "v": 100
    },
    {
      "midi": 76,
      "hit": false,
      "t": 143846.19700000001,
      "d": 769.2309999999998,
      "v": 100
    },
    {
      "midi": 52,
      "hit": false,
      "t": 143846.19700000004,
      "d": 2307.6929999999993,
      "v": 100
    },
    {
      "midi": 55,
      "hit": false,
      "t": 144230.81250000044,
      "d": 384.61550000001444,
      "v": 100
    },
    {
      "midi": 77,
      "hit": false,
      "t": 144615.428,
      "d": 769.2309999999998,
      "v": 100
    },
    {
      "midi": 67,
      "hit": false,
      "t": 144615.42800000045,
      "d": 384.61550000001444,
      "v": 100
    },
    {
      "midi": 64,
      "hit": false,
      "t": 145000.04350000047,
      "d": 384.61550000001444,
      "v": 100
    },
    {
      "midi": 79,
      "hit": false,
      "t": 145384.659,
      "d": 769.2309999999998,
      "v": 100
    },
    {
      "midi": 60,
      "hit": false,
      "t": 145384.65900000048,
      "d": 384.61550000001444,
      "v": 100
    },
    {
      "midi": 55,
      "hit": false,
      "t": 145769.2745000005,
      "d": 384.61550000001444,
      "v": 100
    },
    {
      "midi": 81,
      "hit": false,
      "t": 146153.89,
      "d": 769.2309999999998,
      "v": 100
    },
    {
      "midi": 53,
      "hit": false,
      "t": 146153.89000000004,
      "d": 2307.6929999999993,
      "v": 100
    },
    {
      "midi": 60,
      "hit": false,
      "t": 146538.50550000052,
      "d": 384.61550000001444,
      "v": 100
    },
    {
      "midi": 83,
      "hit": false,
      "t": 146923.121,
      "d": 769.2309999999998,
      "v": 100
    },
    {
      "midi": 71,
      "hit": false,
      "t": 146923.12100000054,
      "d": 384.61550000001444,
      "v": 100
    },
    {
      "midi": 67,
      "hit": false,
      "t": 146923.12100000054,
      "d": 384.61550000001444,
      "v": 100
    },
    {
      "midi": 60,
      "hit": false,
      "t": 147307.73650000055,
      "d": 384.61550000001444,
      "v": 100
    },
    {
      "midi": 84,
      "hit": false,
      "t": 147692.352,
      "d": 769.2309999999998,
      "v": 100
    },
    {
      "midi": 72,
      "hit": false,
      "t": 147692.35200000057,
      "d": 384.61550000001444,
      "v": 100
    },
    {
      "midi": 69,
      "hit": false,
      "t": 147692.35200000057,
      "d": 384.61550000001444,
      "v": 100
    },
    {
      "midi": 60,
      "hit": false,
      "t": 148076.96750000058,
      "d": 384.61550000001444,
      "v": 100
    },
    {
      "midi": 79,
      "hit": false,
      "t": 148461.583,
      "d": 2307.6929999999993,
      "v": 100
    },
    {
      "midi": 52,
      "hit": false,
      "t": 148461.58300000004,
      "d": 2307.6929999999993,
      "v": 100
    },
    {
      "midi": 60,
      "hit": false,
      "t": 149230.8140000006,
      "d": 384.61550000001444,
      "v": 100
    },
    {
      "midi": 64,
      "hit": false,
      "t": 149615.4295000006,
      "d": 384.61550000001444,
      "v": 100
    },
    {
      "midi": 60,
      "hit": false,
      "t": 150000.04500000062,
      "d": 384.61550000001444,
      "v": 100
    },
    {
      "midi": 55,
      "hit": false,
      "t": 150384.66050000064,
      "d": 384.61550000001444,
      "v": 100
    },
    {
      "midi": 84,
      "hit": false,
      "t": 150769.276,
      "d": 1153.8465000000142,
      "v": 100
    },
    {
      "midi": 45,
      "hit": false,
      "t": 150769.27600000004,
      "d": 1153.8465000000142,
      "v": 100
    },
    {
      "midi": 52,
      "hit": false,
      "t": 151153.89150000067,
      "d": 384.61550000001444,
      "v": 100
    },
    {
      "midi": 57,
      "hit": false,
      "t": 151538.50700000068,
      "d": 384.61550000001444,
      "v": 100
    },
    {
      "midi": 83,
      "hit": false,
      "t": 151923.12250000003,
      "d": 384.61550000001444,
      "v": 100
    },
    {
      "midi": 47,
      "hit": false,
      "t": 151923.12250000006,
      "d": 384.61550000001444,
      "v": 100
    },
    {
      "midi": 81,
      "hit": false,
      "t": 152307.73800000004,
      "d": 769.2309999999998,
      "v": 100
    },
    {
      "midi": 48,
      "hit": false,
      "t": 152307.73800000007,
      "d": 384.61550000001444,
      "v": 100
    },
    {
      "midi": 60,
      "hit": false,
      "t": 152307.7380000007,
      "d": 769.2309999999998,
      "v": 100
    },
    {
      "midi": 50,
      "hit": false,
      "t": 152692.35350000008,
      "d": 384.61550000001444,
      "v": 100
    },
    {
      "midi": 79,
      "hit": false,
      "t": 153076.96900000004,
      "d": 1538.4619999999995,
      "v": 100
    },
    {
      "midi": 52,
      "hit": false,
      "t": 153076.9690000001,
      "d": 769.2309999999998,
      "v": 100
    },
    {
      "midi": 64,
      "hit": false,
      "t": 153076.9690000007,
      "d": 769.2309999999998,
      "v": 100
    },
    {
      "midi": 60,
      "hit": false,
      "t": 153076.9690000007,
      "d": 769.2309999999998,
      "v": 100
    },
    {
      "midi": 40,
      "hit": false,
      "t": 153846.2000000001,
      "d": 769.2309999999998,
      "v": 100
    },
    {
      "midi": 72,
      "hit": false,
      "t": 154615.43100000004,
      "d": 769.2309999999998,
      "v": 100
    },
    {
      "midi": 48,
      "hit": false,
      "t": 154615.4310000001,
      "d": 769.2309999999998,
      "v": 100
    },
    {
      "midi": 55,
      "hit": false,
      "t": 154615.4310000001,
      "d": 769.2309999999998,
      "v": 100
    },
    {
      "midi": 74,
      "hit": false,
      "t": 155384.66200000004,
      "d": 1153.8465000000142,
      "v": 100
    },
    {
      "midi": 50,
      "hit": false,
      "t": 155384.6620000001,
      "d": 769.2309999999998,
      "v": 100
    },
    {
      "midi": 54,
      "hit": false,
      "t": 155384.6620000001,
      "d": 1538.4619999999995,
      "v": 100
    },
    {
      "midi": 62,
      "hit": false,
      "t": 155384.6620000007,
      "d": 1538.4620000000286,
      "v": 100
    },
    {
      "midi": 38,
      "hit": false,
      "t": 156153.8930000001,
      "d": 769.2309999999998,
      "v": 100
    },
    {
      "midi": 76,
      "hit": false,
      "t": 156538.50850000005,
      "d": 384.61550000001444,
      "v": 100
    },
    {
      "midi": 64,
      "hit": false,
      "t": 156538.50850000072,
      "d": 384.61550000001444,
      "v": 100
    },
    {
      "midi": 74,
      "hit": false,
      "t": 156923.12400000007,
      "d": 769.2309999999998,
      "v": 100
    },
    {
      "midi": 50,
      "hit": false,
      "t": 156923.1240000001,
      "d": 769.2309999999998,
      "v": 100
    },
    {
      "midi": 53,
      "hit": false,
      "t": 156923.1240000001,
      "d": 769.2309999999998,
      "v": 100
    },
    {
      "midi": 62,
      "hit": false,
      "t": 156923.12400000074,
      "d": 769.2309999999998,
      "v": 100
    },
    {
      "midi": 72,
      "hit": false,
      "t": 157692.35500000007,
      "d": 2307.6929999999993,
      "v": 100
    },
    {
      "midi": 48,
      "hit": false,
      "t": 157692.3550000001,
      "d": 2307.6929999999993,
      "v": 100
    },
    {
      "midi": 52,
      "hit": false,
      "t": 157692.3550000001,
      "d": 2307.6929999999993,
      "v": 100
    },
    {
      "midi": 60,
      "hit": false,
      "t": 157692.3550000001,
      "d": 2307.6929999999993,
      "v": 100
    },
    {
      "midi": 55,
      "hit": false,
      "t": 158076.97050000075,
      "d": 384.61550000001444,
      "v": 100
    },
    {
      "midi": 72,
      "hit": false,
      "t": 158461.58600000077,
      "d": 384.61550000001444,
      "v": 100
    },
    {
      "midi": 67,
      "hit": false,
      "t": 158846.20150000078,
      "d": 384.61550000001444,
      "v": 100
    },
    {
      "midi": 64,
      "hit": false,
      "t": 159230.8170000008,
      "d": 384.61550000001444,
      "v": 100
    },
    {
      "midi": 60,
      "hit": false,
      "t": 159615.4325000008,
      "d": 384.61549999998533,
      "v": 100
    },
    {
      "midi": 81,
      "hit": false,
      "t": 160000.04800000007,
      "d": 1538.4619999999995,
      "v": 100
    },
    {
      "midi": 41,
      "hit": false,
      "t": 160000.0480000001,
      "d": 4615.385999999999,
      "v": 100
    },
    {
      "midi": 48,
      "hit": false,
      "t": 160384.6635000008,
      "d": 384.61550000001444,
      "v": 100
    },
    {
      "midi": 53,
      "hit": false,
      "t": 160769.27900000082,
      "d": 384.61550000001444,
      "v": 100
    },
    {
      "midi": 57,
      "hit": false,
      "t": 161153.89450000084,
      "d": 384.61550000001444,
      "v": 100
    },
    {
      "midi": 81,
      "hit": false,
      "t": 161538.51000000007,
      "d": 769.2309999999998,
      "v": 100
    },
    {
      "midi": 60,
      "hit": false,
      "t": 161538.51000000085,
      "d": 384.61550000001444,
      "v": 100
    },
    {
      "midi": 65,
      "hit": false,
      "t": 161923.12550000087,
      "d": 384.61550000001444,
      "v": 100
    },
    {
      "midi": 81,
      "hit": false,
      "t": 162307.74100000007,
      "d": 769.2309999999998,
      "v": 100
    },
    {
      "midi": 69,
      "hit": false,
      "t": 162307.74100000088,
      "d": 384.61550000001444,
      "v": 100
    },
    {
      "midi": 60,
      "hit": false,
      "t": 162692.3565000009,
      "d": 384.61550000001444,
      "v": 100
    },
    {
      "midi": 83,
      "hit": false,
      "t": 163076.97200000007,
      "d": 769.2309999999998,
      "v": 100
    },
    {
      "midi": 71,
      "hit": false,
      "t": 163076.9720000009,
      "d": 384.61550000001444,
      "v": 100
    },
    {
      "midi": 67,
      "hit": false,
      "t": 163076.9720000009,
      "d": 384.61550000001444,
      "v": 100
    },
    {
      "midi": 60,
      "hit": false,
      "t": 163461.58750000093,
      "d": 384.61550000001444,
      "v": 100
    },
    {
      "midi": 84,
      "hit": false,
      "t": 163846.20300000007,
      "d": 769.2309999999998,
      "v": 100
    },
    {
      "midi": 72,
      "hit": false,
      "t": 163846.20300000094,
      "d": 384.61550000001444,
      "v": 100
    },
    {
      "midi": 69,
      "hit": false,
      "t": 163846.20300000094,
      "d": 384.61550000001444,
      "v": 100
    },
    {
      "midi": 60,
      "hit": false,
      "t": 164230.81850000095,
      "d": 384.61550000001444,
      "v": 100
    },
    {
      "midi": 84,
      "hit": false,
      "t": 164615.43400000007,
      "d": 2307.6929999999993,
      "v": 100
    },
    {
      "midi": 40,
      "hit": false,
      "t": 164615.4340000001,
      "d": 4615.385999999999,
      "v": 100
    },
    {
      "midi": 72,
      "hit": false,
      "t": 164615.43400000097,
      "d": 384.61550000001444,
      "v": 100
    },
    {
      "midi": 64,
      "hit": false,
      "t": 164615.43400000097,
      "d": 384.61550000001444,
      "v": 100
    },
    {
      "midi": 48,
      "hit": false,
      "t": 165000.04950000098,
      "d": 384.61550000001444,
      "v": 100
    },
    {
      "midi": 55,
      "hit": false,
      "t": 165384.665000001,
      "d": 384.61550000001444,
      "v": 100
    },
    {
      "midi": 60,
      "hit": false,
      "t": 165769.280500001,
      "d": 384.61550000001444,
      "v": 100
    },
    {
      "midi": 64,
      "hit": false,
      "t": 166153.89600000103,
      "d": 384.61550000001444,
      "v": 100
    },
    {
      "midi": 67,
      "hit": false,
      "t": 166538.51150000104,
      "d": 384.61550000001444,
      "v": 100
    },
    {
      "midi": 79,
      "hit": false,
      "t": 166923.12700000007,
      "d": 2307.6929999999993,
      "v": 100
    },
    {
      "midi": 72,
      "hit": false,
      "t": 166923.12700000106,
      "d": 384.61550000001444,
      "v": 100
    },
    {
      "midi": 67,
      "hit": false,
      "t": 166923.12700000106,
      "d": 384.61550000001444,
      "v": 100
    },
    {
      "midi": 67,
      "hit": false,
      "t": 167307.74250000107,
      "d": 384.61550000001444,
      "v": 100
    },
    {
      "midi": 76,
      "hit": false,
      "t": 167692.35800000108,
      "d": 384.61550000001444,
      "v": 100
    },
    {
      "midi": 72,
      "hit": false,
      "t": 167692.35800000108,
      "d": 384.61550000001444,
      "v": 100
    },
    {
      "midi": 72,
      "hit": false,
      "t": 168076.9735000011,
      "d": 384.61550000001444,
      "v": 100
    },
    {
      "midi": 67,
      "hit": false,
      "t": 168461.5890000011,
      "d": 384.61550000001444,
      "v": 100
    },
    {
      "midi": 64,
      "hit": false,
      "t": 168846.20450000113,
      "d": 384.61550000001444,
      "v": 100
    },
    {
      "midi": 79,
      "hit": false,
      "t": 169230.82000000007,
      "d": 1153.8465000000142,
      "v": 100
    },
    {
      "midi": 39,
      "hit": false,
      "t": 169230.8200000001,
      "d": 2307.6929999999993,
      "v": 100
    },
    {
      "midi": 51,
      "hit": false,
      "t": 169230.82000000114,
      "d": 384.61550000001444,
      "v": 100
    },
    {
      "midi": 46,
      "hit": false,
      "t": 169615.43550000116,
      "d": 769.2310000000289,
      "v": 100
    },
    {
      "midi": 51,
      "hit": false,
      "t": 170000.05100000117,
      "d": 384.61550000001444,
      "v": 100
    },
    {
      "midi": 79,
      "hit": false,
      "t": 170384.66650000008,
      "d": 384.61550000001444,
      "v": 100
    },
    {
      "midi": 58,
      "hit": false,
      "t": 170384.66650000119,
      "d": 384.61550000001444,
      "v": 100
    },
    {
      "midi": 79,
      "hit": false,
      "t": 170769.2820000001,
      "d": 769.2309999999998,
      "v": 100
    },
    {
      "midi": 63,
      "hit": false,
      "t": 170769.2820000012,
      "d": 384.61550000001444,
      "v": 100
    },
    {
      "midi": 67,
      "hit": false,
      "t": 171153.8975000012,
      "d": 384.61550000001444,
      "v": 100
    },
    {
      "midi": 79,
      "hit": false,
      "t": 171538.5130000001,
      "d": 769.2309999999998,
      "v": 100
    },
    {
      "midi": 60,
      "hit": false,
      "t": 171538.5130000001,
      "d": 2307.6929999999993,
      "v": 100
    },
    {
      "midi": 55,
      "hit": false,
      "t": 171538.5130000001,
      "d": 2307.6929999999993,
      "v": 100
    },
    {
      "midi": 77,
      "hit": false,
      "t": 172307.7440000001,
      "d": 769.2309999999998,
      "v": 100
    },
    {
      "midi": 65,
      "hit": false,
      "t": 172307.74400000123,
      "d": 769.2309999999998,
      "v": 100
    },
    {
      "midi": 75,
      "hit": false,
      "t": 173076.9750000001,
      "d": 769.2309999999998,
      "v": 100
    },
    {
      "midi": 67,
      "hit": false,
      "t": 173076.97500000123,
      "d": 769.2309999999998,
      "v": 100
    },
    {
      "midi": 77,
      "hit": false,
      "t": 173846.2060000001,
      "d": 2307.6929999999993,
      "v": 100
    },
    {
      "midi": 41,
      "hit": false,
      "t": 173846.2060000001,
      "d": 2307.6929999999993,
      "v": 100
    },
    {
      "midi": 60,
      "hit": false,
      "t": 173846.2060000001,
      "d": 2307.6929999999993,
      "v": 100
    },
    {
      "midi": 53,
      "hit": false,
      "t": 173846.20600000123,
      "d": 384.61550000001444,
      "v": 100
    },
    {
      "midi": 45,
      "hit": false,
      "t": 174230.82150000124,
      "d": 384.61550000001444,
      "v": 100
    },
    {
      "midi": 53,
      "hit": false,
      "t": 174615.43700000126,
      "d": 384.61550000001444,
      "v": 100
    },
    {
      "midi": 57,
      "hit": false,
      "t": 175000.05250000127,
      "d": 384.61550000001444,
      "v": 100
    },
    {
      "midi": 60,
      "hit": false,
      "t": 175384.6680000013,
      "d": 384.61550000001444,
      "v": 100
    },
    {
      "midi": 65,
      "hit": false,
      "t": 175769.2835000013,
      "d": 384.61550000001444,
      "v": 100
    },
    {
      "midi": 79,
      "hit": false,
      "t": 176153.8990000001,
      "d": 2307.6929999999993,
      "v": 100
    },
    {
      "midi": 43,
      "hit": false,
      "t": 176153.8990000001,
      "d": 2307.6929999999993,
      "v": 100
    },
    {
      "midi": 59,
      "hit": false,
      "t": 176153.8990000001,
      "d": 2307.6929999999993,
      "v": 100
    },
    {
      "midi": 55,
      "hit": false,
      "t": 176153.89900000131,
      "d": 384.61550000001444,
      "v": 100
    },
    {
      "midi": 47,
      "hit": false,
      "t": 176538.51450000133,
      "d": 384.61550000001444,
      "v": 100
    },
    {
      "midi": 55,
      "hit": false,
      "t": 176923.13000000134,
      "d": 384.61550000001444,
      "v": 100
    },
    {
      "midi": 59,
      "hit": false,
      "t": 177307.74550000136,
      "d": 384.61550000001444,
      "v": 100
    },
    {
      "midi": 62,
      "hit": false,
      "t": 177692.36100000137,
      "d": 384.61550000001444,
      "v": 100
    },
    {
      "midi": 67,
      "hit": false,
      "t": 178076.9765000014,
      "d": 384.61550000001444,
      "v": 100
    },
    {
      "midi": 71,
      "hit": false,
      "t": 178461.5920000014,
      "d": 769.2309999999998,
      "v": 100
    },
    {
      "midi": 62,
      "hit": false,
      "t": 178461.5920000014,
      "d": 769.2309999999998,
      "v": 100
    },
    {
      "midi": 67,
      "hit": false,
      "t": 178846.2075000001,
      "d": 384.61550000001444,
      "v": 100
    },
    {
      "midi": 72,
      "hit": false,
      "t": 179230.8230000014,
      "d": 769.2309999999998,
      "v": 100
    },
    {
      "midi": 64,
      "hit": false,
      "t": 179230.8230000014,
      "d": 769.2309999999998,
      "v": 100
    },
    {
      "midi": 67,
      "hit": false,
      "t": 179615.43850000013,
      "d": 384.61550000001444,
      "v": 100
    },
    {
      "midi": 74,
      "hit": false,
      "t": 180000.0540000014,
      "d": 769.2309999999998,
      "v": 100
    },
    {
      "midi": 65,
      "hit": false,
      "t": 180000.0540000014,
      "d": 769.2309999999998,
      "v": 100
    },
    {
      "midi": 67,
      "hit": false,
      "t": 180384.66950000016,
      "d": 384.61550000001444,
      "v": 100
    },
    {
      "midi": 72,
      "hit": false,
      "t": 180769.2850000014,
      "d": 769.2309999999998,
      "v": 100
    },
    {
      "midi": 64,
      "hit": false,
      "t": 180769.2850000014,
      "d": 769.2309999999998,
      "v": 100
    },
    {
      "midi": 67,
      "hit": false,
      "t": 181153.9005000002,
      "d": 384.61550000001444,
      "v": 100
    },
    {
      "midi": 71,
      "hit": false,
      "t": 181538.5160000014,
      "d": 384.61550000001444,
      "v": 100
    },
    {
      "midi": 62,
      "hit": false,
      "t": 181538.5160000014,
      "d": 769.2310000000289,
      "v": 100
    },
    {
      "midi": 67,
      "hit": false,
      "t": 181923.13150000141,
      "d": 384.61550000001444,
      "v": 100
    },
    {
      "midi": 62,
      "hit": false,
      "t": 182307.74700000143,
      "d": 384.61550000001444,
      "v": 100
    },
    {
      "midi": 59,
      "hit": false,
      "t": 182692.36250000144,
      "d": 384.61549999998533,
      "v": 100
    },
    {
      "midi": 72,
      "hit": false,
      "t": 183076.9780000001,
      "d": 769.2309999999998,
      "v": 100
    },
    {
      "midi": 48,
      "hit": false,
      "t": 183076.9780000002,
      "d": 2307.6929999999993,
      "v": 100
    },
    {
      "midi": 52,
      "hit": false,
      "t": 183076.9780000002,
      "d": 2307.6929999999993,
      "v": 100
    },
    {
      "midi": 60,
      "hit": false,
      "t": 183076.97800000143,
      "d": 384.61550000001444,
      "v": 100
    },
    {
      "midi": 55,
      "hit": false,
      "t": 183461.59350000144,
      "d": 384.61550000001444,
      "v": 100
    },
    {
      "midi": 76,
      "hit": false,
      "t": 183846.2090000001,
      "d": 769.2309999999998,
      "v": 100
    },
    {
      "midi": 67,
      "hit": false,
      "t": 183846.20900000146,
      "d": 384.61550000001444,
      "v": 100
    },
    {
      "midi": 60,
      "hit": false,
      "t": 184230.82450000147,
      "d": 384.61550000001444,
      "v": 100
    },
    {
      "midi": 79,
      "hit": false,
      "t": 184615.4400000001,
      "d": 769.2309999999998,
      "v": 100
    },
    {
      "midi": 55,
      "hit": false,
      "t": 184615.4400000015,
      "d": 384.61550000001444,
      "v": 100
    },
    {
      "midi": 52,
      "hit": false,
      "t": 185000.0555000015,
      "d": 384.61550000001444,
      "v": 100
    },
    {
      "midi": 76,
      "hit": false,
      "t": 185384.6710000001,
      "d": 769.2309999999998,
      "v": 100
    },
    {
      "midi": 40,
      "hit": false,
      "t": 185384.6710000002,
      "d": 2307.6929999999993,
      "v": 100
    },
    {
      "midi": 64,
      "hit": false,
      "t": 185384.67100000152,
      "d": 384.61550000001444,
      "v": 100
    },
    {
      "midi": 60,
      "hit": false,
      "t": 185384.67100000152,
      "d": 384.61550000001444,
      "v": 100
    },
    {
      "midi": 52,
      "hit": false,
      "t": 185769.28650000153,
      "d": 384.61550000001444,
      "v": 100
    },
    {
      "midi": 77,
      "hit": false,
      "t": 186153.9020000001,
      "d": 769.2309999999998,
      "v": 100
    },
    {
      "midi": 65,
      "hit": false,
      "t": 186153.90200000154,
      "d": 384.61550000001444,
      "v": 100
    },
    {
      "midi": 62,
      "hit": false,
      "t": 186153.90200000154,
      "d": 384.61550000001444,
      "v": 100
    },
    {
      "midi": 52,
      "hit": false,
      "t": 186538.51750000156,
      "d": 384.61550000001444,
      "v": 100
    },
    {
      "midi": 79,
      "hit": false,
      "t": 186923.1330000001,
      "d": 769.2309999999998,
      "v": 100
    },
    {
      "midi": 67,
      "hit": false,
      "t": 186923.13300000157,
      "d": 384.61550000001444,
      "v": 100
    },
    {
      "midi": 64,
      "hit": false,
      "t": 186923.13300000157,
      "d": 384.61550000001444,
      "v": 100
    },
    {
      "midi": 52,
      "hit": false,
      "t": 187307.7485000016,
      "d": 384.61550000001444,
      "v": 100
    },
    {
      "midi": 81,
      "hit": false,
      "t": 187692.3640000001,
      "d": 769.2309999999998,
      "v": 100
    },
    {
      "midi": 41,
      "hit": false,
      "t": 187692.3640000002,
      "d": 2307.6929999999993,
      "v": 100
    },
    {
      "midi": 53,
      "hit": false,
      "t": 187692.3640000016,
      "d": 384.61550000001444,
      "v": 100
    },
    {
      "midi": 48,
      "hit": false,
      "t": 188076.97950000162,
      "d": 384.61550000001444,
      "v": 100
    },
    {
      "midi": 83,
      "hit": false,
      "t": 188461.5950000001,
      "d": 769.2309999999998,
      "v": 100
    },
    {
      "midi": 53,
      "hit": false,
      "t": 188461.59500000163,
      "d": 384.61550000001444,
      "v": 100
    },
    {
      "midi": 57,
      "hit": false,
      "t": 188846.21050000165,
      "d": 384.61550000001444,
      "v": 100
    },
    {
      "midi": 84,
      "hit": false,
      "t": 189230.8260000001,
      "d": 769.2309999999998,
      "v": 100
    },
    {
      "midi": 60,
      "hit": false,
      "t": 189230.82600000166,
      "d": 384.61550000001444,
      "v": 100
    },
    {
      "midi": 65,
      "hit": false,
      "t": 189615.44150000167,
      "d": 384.61550000001444,
      "v": 100
    },
    {
      "midi": 79,
      "hit": false,
      "t": 190000.0570000001,
      "d": 1538.4619999999995,
      "v": 100
    },
    {
      "midi": 40,
      "hit": false,
      "t": 190000.0570000002,
      "d": 2307.6929999999993,
      "v": 100
    },
    {
      "midi": 60,
      "hit": false,
      "t": 190000.0570000017,
      "d": 384.61550000001444,
      "v": 100
    },
    {
      "midi": 55,
      "hit": false,
      "t": 190384.6725000017,
      "d": 384.61550000001444,
      "v": 100
    },
    {
      "midi": 72,
      "hit": false,
      "t": 190769.28800000172,
      "d": 384.61550000001444,
      "v": 100
    },
    {
      "midi": 67,
      "hit": false,
      "t": 191153.90350000173,
      "d": 384.61550000001444,
      "v": 100
    },
    {
      "midi": 79,
      "hit": false,
      "t": 191538.5190000001,
      "d": 769.2309999999998,
      "v": 100
    },
    {
      "midi": 64,
      "hit": false,
      "t": 191538.51900000175,
      "d": 384.61550000001444,
      "v": 100
    },
    {
      "midi": 60,
      "hit": false,
      "t": 191923.13450000176,
      "d": 384.61550000001444,
      "v": 100
    },
    {
      "midi": 84,
      "hit": false,
      "t": 192307.7500000001,
      "d": 1153.8465000000142,
      "v": 100
    },
    {
      "midi": 45,
      "hit": false,
      "t": 192307.7500000002,
      "d": 1153.8465000000142,
      "v": 100
    },
    {
      "midi": 69,
      "hit": false,
      "t": 192307.75000000178,
      "d": 384.61550000001444,
      "v": 100
    },
    {
      "midi": 52,
      "hit": false,
      "t": 192692.3655000018,
      "d": 384.61550000001444,
      "v": 100
    },
    {
      "midi": 57,
      "hit": false,
      "t": 193076.9810000018,
      "d": 769.2309999999998,
      "v": 100
    },
    {
      "midi": 83,
      "hit": false,
      "t": 193461.5965000001,
      "d": 384.61550000001444,
      "v": 100
    },
    {
      "midi": 47,
      "hit": false,
      "t": 193461.59650000022,
      "d": 384.61550000001444,
      "v": 100
    },
    {
      "midi": 81,
      "hit": false,
      "t": 193846.21200000012,
      "d": 769.2309999999998,
      "v": 100
    },
    {
      "midi": 48,
      "hit": false,
      "t": 193846.21200000023,
      "d": 384.61550000001444,
      "v": 100
    },
    {
      "midi": 60,
      "hit": false,
      "t": 193846.2120000018,
      "d": 769.2309999999998,
      "v": 100
    },
    {
      "midi": 50,
      "hit": false,
      "t": 194230.82750000025,
      "d": 384.61550000001444,
      "v": 100
    },
    {
      "midi": 79,
      "hit": false,
      "t": 194615.44300000012,
      "d": 1538.4619999999995,
      "v": 100
    },
    {
      "midi": 52,
      "hit": false,
      "t": 194615.44300000026,
      "d": 769.2309999999998,
      "v": 100
    },
    {
      "midi": 55,
      "hit": false,
      "t": 194615.4430000018,
      "d": 384.61550000001444,
      "v": 100
    },
    {
      "midi": 64,
      "hit": false,
      "t": 194615.4430000018,
      "d": 769.2310000000289,
      "v": 100
    },
    {
      "midi": 40,
      "hit": false,
      "t": 195384.67400000026,
      "d": 769.2309999999998,
      "v": 100
    },
    {
      "midi": 72,
      "hit": false,
      "t": 196153.90500000012,
      "d": 769.2309999999998,
      "v": 100
    },
    {
      "midi": 48,
      "hit": false,
      "t": 196153.90500000026,
      "d": 769.2309999999998,
      "v": 100
    },
    {
      "midi": 55,
      "hit": false,
      "t": 196153.90500000183,
      "d": 769.2309999999998,
      "v": 100
    },
    {
      "midi": 74,
      "hit": false,
      "t": 196923.13600000012,
      "d": 1153.8465000000142,
      "v": 100
    },
    {
      "midi": 50,
      "hit": false,
      "t": 196923.13600000026,
      "d": 384.61550000001444,
      "v": 100
    },
    {
      "midi": 54,
      "hit": false,
      "t": 196923.13600000183,
      "d": 1538.4619999999995,
      "v": 100
    },
    {
      "midi": 38,
      "hit": false,
      "t": 197307.75150000027,
      "d": 384.61550000001444,
      "v": 100
    },
    {
      "midi": 50,
      "hit": false,
      "t": 197692.3670000003,
      "d": 769.2309999999998,
      "v": 100
    },
    {
      "midi": 76,
      "hit": false,
      "t": 198076.98250000013,
      "d": 384.61550000001444,
      "v": 100
    },
    {
      "midi": 74,
      "hit": false,
      "t": 198461.59800000014,
      "d": 769.2309999999998,
      "v": 100
    },
    {
      "midi": 50,
      "hit": false,
      "t": 198461.5980000003,
      "d": 769.2309999999998,
      "v": 100
    },
    {
      "midi": 53,
      "hit": false,
      "t": 198461.59800000183,
      "d": 769.2309999999998,
      "v": 100
    },
    {
      "midi": 72,
      "hit": false,
      "t": 199230.82900000014,
      "d": 2307.6929999999993,
      "v": 100
    },
    {
      "midi": 52,
      "hit": false,
      "t": 199230.8290000003,
      "d": 2307.6929999999993,
      "v": 100
    },
    {
      "midi": 48,
      "hit": false,
      "t": 199230.8290000003,
      "d": 2307.6929999999993,
      "v": 100
    },
    {
      "midi": 52,
      "hit": false,
      "t": 199230.82900000183,
      "d": 384.61550000001444,
      "v": 100
    },
    {
      "midi": 43,
      "hit": false,
      "t": 199615.44450000185,
      "d": 384.61550000001444,
      "v": 100
    },
    {
      "midi": 48,
      "hit": false,
      "t": 200000.06000000186,
      "d": 384.61550000001444,
      "v": 100
    },
    {
      "midi": 52,
      "hit": false,
      "t": 200384.67550000187,
      "d": 384.61550000001444,
      "v": 100
    },
    {
      "midi": 55,
      "hit": false,
      "t": 200769.2910000019,
      "d": 384.61550000001444,
      "v": 100
    },
    {
      "midi": 60,
      "hit": false,
      "t": 201153.9065000019,
      "d": 384.61549999998533,
      "v": 100
    },
    {
      "midi": 48,
      "hit": false,
      "t": 201538.5220000003,
      "d": 384.61550000001444,
      "v": 127
    },
    {
      "midi": 72,
      "hit": false,
      "t": 201538.5220000019,
      "d": 769.2309999999998,
      "v": 127
    },
    {
      "midi": 67,
      "hit": false,
      "t": 201538.5220000019,
      "d": 769.2309999999998,
      "v": 127
    },
    {
      "midi": 64,
      "hit": false,
      "t": 201538.5220000019,
      "d": 769.2309999999998,
      "v": 127
    },
    {
      "midi": 43,
      "hit": false,
      "t": 201923.1375000003,
      "d": 384.61550000001444,
      "v": 127
    },
    {
      "midi": 48,
      "hit": false,
      "t": 202307.75300000032,
      "d": 384.61550000001444,
      "v": 127
    },
    {
      "midi": 76,
      "hit": false,
      "t": 202307.7530000019,
      "d": 769.2309999999998,
      "v": 127
    },
    {
      "midi": 72,
      "hit": false,
      "t": 202307.7530000019,
      "d": 769.2309999999998,
      "v": 127
    },
    {
      "midi": 67,
      "hit": false,
      "t": 202307.7530000019,
      "d": 769.2309999999998,
      "v": 127
    },
    {
      "midi": 55,
      "hit": false,
      "t": 202692.36850000033,
      "d": 384.61550000001444,
      "v": 127
    },
    {
      "midi": 60,
      "hit": false,
      "t": 203076.98400000035,
      "d": 384.61550000001444,
      "v": 127
    },
    {
      "midi": 79,
      "hit": false,
      "t": 203076.9840000019,
      "d": 769.2309999999998,
      "v": 127
    },
    {
      "midi": 76,
      "hit": false,
      "t": 203076.9840000019,
      "d": 769.2309999999998,
      "v": 127
    },
    {
      "midi": 72,
      "hit": false,
      "t": 203076.9840000019,
      "d": 769.2309999999998,
      "v": 127
    },
    {
      "midi": 64,
      "hit": false,
      "t": 203461.59950000036,
      "d": 384.61550000001444,
      "v": 127
    },
    {
      "midi": 55,
      "hit": false,
      "t": 203846.21500000037,
      "d": 384.61550000001444,
      "v": 127
    },
    {
      "midi": 76,
      "hit": false,
      "t": 203846.2150000019,
      "d": 769.2309999999998,
      "v": 127
    },
    {
      "midi": 72,
      "hit": false,
      "t": 203846.2150000019,
      "d": 769.2309999999998,
      "v": 127
    },
    {
      "midi": 67,
      "hit": false,
      "t": 203846.2150000019,
      "d": 769.2309999999998,
      "v": 127
    },
    {
      "midi": 48,
      "hit": false,
      "t": 204230.8305000004,
      "d": 384.61550000001444,
      "v": 127
    },
    {
      "midi": 55,
      "hit": false,
      "t": 204615.4460000004,
      "d": 384.61550000001444,
      "v": 127
    },
    {
      "midi": 77,
      "hit": false,
      "t": 204615.4460000019,
      "d": 769.2309999999998,
      "v": 127
    },
    {
      "midi": 65,
      "hit": false,
      "t": 204615.4460000019,
      "d": 769.2309999999998,
      "v": 127
    },
    {
      "midi": 72,
      "hit": false,
      "t": 204615.4460000019,
      "d": 769.2309999999998,
      "v": 127
    },
    {
      "midi": 60,
      "hit": false,
      "t": 205000.06150000042,
      "d": 384.61550000001444,
      "v": 127
    },
    {
      "midi": 64,
      "hit": false,
      "t": 205384.67700000043,
      "d": 384.61550000001444,
      "v": 127
    },
    {
      "midi": 79,
      "hit": false,
      "t": 205384.6770000019,
      "d": 769.2309999999998,
      "v": 127
    },
    {
      "midi": 76,
      "hit": false,
      "t": 205384.6770000019,
      "d": 769.2309999999998,
      "v": 127
    },
    {
      "midi": 72,
      "hit": false,
      "t": 205384.6770000019,
      "d": 769.2309999999998,
      "v": 127
    },
    {
      "midi": 67,
      "hit": false,
      "t": 205769.29250000045,
      "d": 384.61550000001444,
      "v": 127
    },
    {
      "midi": 53,
      "hit": false,
      "t": 206153.90800000046,
      "d": 384.61550000001444,
      "v": 127
    },
    {
      "midi": 81,
      "hit": false,
      "t": 206153.9080000019,
      "d": 769.2309999999998,
      "v": 127
    },
    {
      "midi": 72,
      "hit": false,
      "t": 206153.9080000019,
      "d": 769.2309999999998,
      "v": 127
    },
    {
      "midi": 77,
      "hit": false,
      "t": 206153.9080000019,
      "d": 769.2309999999998,
      "v": 127
    },
    {
      "midi": 48,
      "hit": false,
      "t": 206538.52350000048,
      "d": 384.61550000001444,
      "v": 127
    },
    {
      "midi": 53,
      "hit": false,
      "t": 206923.1390000005,
      "d": 384.61550000001444,
      "v": 127
    },
    {
      "midi": 83,
      "hit": false,
      "t": 206923.1390000019,
      "d": 769.2309999999998,
      "v": 127
    },
    {
      "midi": 79,
      "hit": false,
      "t": 206923.1390000019,
      "d": 769.2309999999998,
      "v": 127
    },
    {
      "midi": 74,
      "hit": false,
      "t": 206923.1390000019,
      "d": 769.2309999999998,
      "v": 127
    },
    {
      "midi": 60,
      "hit": false,
      "t": 207307.7545000005,
      "d": 384.61550000001444,
      "v": 127
    },
    {
      "midi": 65,
      "hit": false,
      "t": 207692.37000000052,
      "d": 384.61550000001444,
      "v": 127
    },
    {
      "midi": 81,
      "hit": false,
      "t": 207692.3700000019,
      "d": 769.2309999999998,
      "v": 127
    },
    {
      "midi": 84,
      "hit": false,
      "t": 207692.3700000019,
      "d": 769.2309999999998,
      "v": 127
    },
    {
      "midi": 77,
      "hit": false,
      "t": 207692.3700000019,
      "d": 769.2309999999998,
      "v": 127
    },
    {
      "midi": 69,
      "hit": false,
      "t": 208076.98550000053,
      "d": 384.61550000001444,
      "v": 127
    },
    {
      "midi": 55,
      "hit": false,
      "t": 208461.60100000055,
      "d": 384.61550000001444,
      "v": 127
    },
    {
      "midi": 79,
      "hit": false,
      "t": 208461.6010000019,
      "d": 2307.6929999999993,
      "v": 127
    },
    {
      "midi": 76,
      "hit": false,
      "t": 208461.6010000019,
      "d": 2307.6929999999993,
      "v": 127
    },
    {
      "midi": 72,
      "hit": false,
      "t": 208461.6010000019,
      "d": 2307.6929999999993,
      "v": 127
    },
    {
      "midi": 48,
      "hit": false,
      "t": 208846.21650000056,
      "d": 384.61550000001444,
      "v": 127
    },
    {
      "midi": 55,
      "hit": false,
      "t": 209230.83200000058,
      "d": 384.61550000001444,
      "v": 127
    },
    {
      "midi": 60,
      "hit": false,
      "t": 209615.4475000006,
      "d": 384.61550000001444,
      "v": 127
    },
    {
      "midi": 64,
      "hit": false,
      "t": 210000.0630000006,
      "d": 384.61550000001444,
      "v": 127
    },
    {
      "midi": 67,
      "hit": false,
      "t": 210384.67850000062,
      "d": 384.61550000001444,
      "v": 127
    },
    {
      "midi": 53,
      "hit": false,
      "t": 210769.29400000063,
      "d": 384.61550000001444,
      "v": 127
    },
    {
      "midi": 77,
      "hit": false,
      "t": 210769.2940000019,
      "d": 1153.8465000000142,
      "v": 127
    },
    {
      "midi": 72,
      "hit": false,
      "t": 210769.2940000019,
      "d": 1153.8465000000142,
      "v": 127
    },
    {
      "midi": 69,
      "hit": false,
      "t": 210769.2940000019,
      "d": 1153.8465000000142,
      "v": 127
    },
    {
      "midi": 48,
      "hit": false,
      "t": 211153.90950000065,
      "d": 384.61550000001444,
      "v": 127
    },
    {
      "midi": 53,
      "hit": false,
      "t": 211538.52500000066,
      "d": 384.61550000001444,
      "v": 127
    },
    {
      "midi": 60,
      "hit": false,
      "t": 211923.14050000068,
      "d": 384.61550000001444,
      "v": 127
    },
    {
      "midi": 79,
      "hit": false,
      "t": 211923.1405000019,
      "d": 384.61550000001444,
      "v": 127
    },
    {
      "midi": 76,
      "hit": false,
      "t": 211923.1405000019,
      "d": 384.61550000001444,
      "v": 127
    },
    {
      "midi": 72,
      "hit": false,
      "t": 211923.1405000019,
      "d": 384.61550000001444,
      "v": 127
    },
    {
      "midi": 65,
      "hit": false,
      "t": 212307.7560000007,
      "d": 384.61550000001444,
      "v": 127
    },
    {
      "midi": 77,
      "hit": false,
      "t": 212307.75600000191,
      "d": 769.2309999999998,
      "v": 127
    },
    {
      "midi": 72,
      "hit": false,
      "t": 212307.75600000191,
      "d": 769.2309999999998,
      "v": 127
    },
    {
      "midi": 69,
      "hit": false,
      "t": 212307.75600000191,
      "d": 769.2309999999998,
      "v": 127
    },
    {
      "midi": 69,
      "hit": false,
      "t": 212692.3715000007,
      "d": 384.61550000001444,
      "v": 127
    },
    {
      "midi": 48,
      "hit": false,
      "t": 213076.98700000072,
      "d": 384.61550000001444,
      "v": 127
    },
    {
      "midi": 76,
      "hit": false,
      "t": 213076.98700000191,
      "d": 769.2309999999998,
      "v": 127
    },
    {
      "midi": 72,
      "hit": false,
      "t": 213076.98700000191,
      "d": 769.2309999999998,
      "v": 127
    },
    {
      "midi": 67,
      "hit": false,
      "t": 213076.98700000191,
      "d": 769.2309999999998,
      "v": 127
    },
    {
      "midi": 43,
      "hit": false,
      "t": 213461.60250000074,
      "d": 384.61550000001444,
      "v": 127
    },
    {
      "midi": 48,
      "hit": false,
      "t": 213846.21800000075,
      "d": 384.61550000001444,
      "v": 127
    },
    {
      "midi": 77,
      "hit": false,
      "t": 213846.2180000019,
      "d": 769.2309999999998,
      "v": 127
    },
    {
      "midi": 72,
      "hit": false,
      "t": 213846.2180000019,
      "d": 769.2309999999998,
      "v": 127
    },
    {
      "midi": 69,
      "hit": false,
      "t": 213846.2180000019,
      "d": 769.2309999999998,
      "v": 127
    },
    {
      "midi": 55,
      "hit": false,
      "t": 214230.83350000076,
      "d": 384.61550000001444,
      "v": 127
    },
    {
      "midi": 60,
      "hit": false,
      "t": 214615.44900000078,
      "d": 384.61550000001444,
      "v": 127
    },
    {
      "midi": 79,
      "hit": false,
      "t": 214615.4490000019,
      "d": 769.2309999999998,
      "v": 127
    },
    {
      "midi": 76,
      "hit": false,
      "t": 214615.4490000019,
      "d": 769.2309999999998,
      "v": 127
    },
    {
      "midi": 72,
      "hit": false,
      "t": 214615.4490000019,
      "d": 769.2309999999998,
      "v": 127
    },
    {
      "midi": 64,
      "hit": false,
      "t": 215000.0645000008,
      "d": 384.61550000001444,
      "v": 127
    },
    {
      "midi": 55,
      "hit": false,
      "t": 215384.6800000008,
      "d": 384.61550000001444,
      "v": 127
    },
    {
      "midi": 74,
      "hit": false,
      "t": 215384.6800000019,
      "d": 2307.6929999999993,
      "v": 127
    },
    {
      "midi": 71,
      "hit": false,
      "t": 215384.6800000019,
      "d": 2307.6929999999993,
      "v": 127
    },
    {
      "midi": 67,
      "hit": false,
      "t": 215384.6800000019,
      "d": 2307.6929999999993,
      "v": 127
    },
    {
      "midi": 50,
      "hit": false,
      "t": 215769.29550000082,
      "d": 384.61550000001444,
      "v": 127
    },
    {
      "midi": 55,
      "hit": false,
      "t": 216153.91100000084,
      "d": 384.61550000001444,
      "v": 127
    },
    {
      "midi": 60,
      "hit": false,
      "t": 216538.52650000085,
      "d": 384.61550000001444,
      "v": 127
    },
    {
      "midi": 62,
      "hit": false,
      "t": 216923.14200000087,
      "d": 384.61550000001444,
      "v": 127
    },
    {
      "midi": 67,
      "hit": false,
      "t": 217307.75750000088,
      "d": 384.61550000001444,
      "v": 127
    },
    {
      "midi": 47,
      "hit": false,
      "t": 217692.3730000009,
      "d": 769.2310000000289,
      "v": 127
    },
    {
      "midi": 74,
      "hit": false,
      "t": 217692.3730000019,
      "d": 2307.6929999999993,
      "v": 127
    },
    {
      "midi": 71,
      "hit": false,
      "t": 217692.3730000019,
      "d": 2307.6929999999993,
      "v": 127
    },
    {
      "midi": 67,
      "hit": false,
      "t": 217692.3730000019,
      "d": 2307.6929999999993,
      "v": 127
    },
    {
      "midi": 55,
      "hit": false,
      "t": 218076.9885000009,
      "d": 384.61550000001444,
      "v": 127
    },
    {
      "midi": 48,
      "hit": false,
      "t": 218461.60400000092,
      "d": 769.2310000000289,
      "v": 127
    },
    {
      "midi": 55,
      "hit": false,
      "t": 218846.21950000094,
      "d": 384.61550000001444,
      "v": 127
    },
    {
      "midi": 50,
      "hit": false,
      "t": 219230.83500000095,
      "d": 769.2310000000289,
      "v": 127
    },
    {
      "midi": 55,
      "hit": false,
      "t": 219615.45050000097,
      "d": 384.61550000001444,
      "v": 127
    },
    {
      "midi": 48,
      "hit": false,
      "t": 220000.06600000098,
      "d": 384.61550000001444,
      "v": 127
    },
    {
      "midi": 72,
      "hit": false,
      "t": 220000.0660000019,
      "d": 769.2309999999998,
      "v": 127
    },
    {
      "midi": 67,
      "hit": false,
      "t": 220000.0660000019,
      "d": 769.2309999999998,
      "v": 127
    },
    {
      "midi": 64,
      "hit": false,
      "t": 220000.0660000019,
      "d": 769.2309999999998,
      "v": 127
    },
    {
      "midi": 43,
      "hit": false,
      "t": 220384.681500001,
      "d": 384.61550000001444,
      "v": 127
    },
    {
      "midi": 48,
      "hit": false,
      "t": 220769.297000001,
      "d": 384.61550000001444,
      "v": 127
    },
    {
      "midi": 76,
      "hit": false,
      "t": 220769.2970000019,
      "d": 769.2309999999998,
      "v": 127
    },
    {
      "midi": 72,
      "hit": false,
      "t": 220769.2970000019,
      "d": 769.2309999999998,
      "v": 127
    },
    {
      "midi": 67,
      "hit": false,
      "t": 220769.2970000019,
      "d": 769.2309999999998,
      "v": 127
    },
    {
      "midi": 55,
      "hit": false,
      "t": 221153.91250000102,
      "d": 384.61550000001444,
      "v": 127
    },
    {
      "midi": 60,
      "hit": false,
      "t": 221538.52800000104,
      "d": 384.61550000001444,
      "v": 127
    },
    {
      "midi": 79,
      "hit": false,
      "t": 221538.5280000019,
      "d": 769.2309999999998,
      "v": 127
    },
    {
      "midi": 76,
      "hit": false,
      "t": 221538.5280000019,
      "d": 769.2309999999998,
      "v": 127
    },
    {
      "midi": 72,
      "hit": false,
      "t": 221538.5280000019,
      "d": 769.2309999999998,
      "v": 127
    },
    {
      "midi": 64,
      "hit": false,
      "t": 221923.14350000105,
      "d": 384.61550000001444,
      "v": 127
    },
    {
      "midi": 55,
      "hit": false,
      "t": 222307.75900000107,
      "d": 384.61550000001444,
      "v": 127
    },
    {
      "midi": 76,
      "hit": false,
      "t": 222307.7590000019,
      "d": 769.2309999999998,
      "v": 127
    },
    {
      "midi": 72,
      "hit": false,
      "t": 222307.7590000019,
      "d": 769.2309999999998,
      "v": 127
    },
    {
      "midi": 67,
      "hit": false,
      "t": 222307.7590000019,
      "d": 769.2309999999998,
      "v": 127
    },
    {
      "midi": 48,
      "hit": false,
      "t": 222692.37450000108,
      "d": 384.61550000001444,
      "v": 127
    },
    {
      "midi": 55,
      "hit": false,
      "t": 223076.9900000011,
      "d": 384.61550000001444,
      "v": 127
    },
    {
      "midi": 77,
      "hit": false,
      "t": 223076.9900000019,
      "d": 769.2309999999998,
      "v": 127
    },
    {
      "midi": 65,
      "hit": false,
      "t": 223076.9900000019,
      "d": 769.2309999999998,
      "v": 127
    },
    {
      "midi": 72,
      "hit": false,
      "t": 223076.9900000019,
      "d": 769.2309999999998,
      "v": 127
    },
    {
      "midi": 60,
      "hit": false,
      "t": 223461.6055000011,
      "d": 384.61550000001444,
      "v": 127
    },
    {
      "midi": 67,
      "hit": false,
      "t": 223846.22100000113,
      "d": 384.61550000001444,
      "v": 127
    },
    {
      "midi": 79,
      "hit": false,
      "t": 223846.2210000019,
      "d": 769.2309999999998,
      "v": 127
    },
    {
      "midi": 76,
      "hit": false,
      "t": 223846.2210000019,
      "d": 769.2309999999998,
      "v": 127
    },
    {
      "midi": 72,
      "hit": false,
      "t": 223846.2210000019,
      "d": 769.2309999999998,
      "v": 127
    },
    {
      "midi": 72,
      "hit": false,
      "t": 224230.83650000114,
      "d": 384.61550000001444,
      "v": 127
    },
    {
      "midi": 53,
      "hit": false,
      "t": 224615.45200000115,
      "d": 384.61550000001444,
      "v": 127
    },
    {
      "midi": 81,
      "hit": false,
      "t": 224615.4520000019,
      "d": 769.2309999999998,
      "v": 127
    },
    {
      "midi": 72,
      "hit": false,
      "t": 224615.4520000019,
      "d": 769.2309999999998,
      "v": 127
    },
    {
      "midi": 77,
      "hit": false,
      "t": 224615.4520000019,
      "d": 769.2309999999998,
      "v": 127
    },
    {
      "midi": 48,
      "hit": false,
      "t": 225000.06750000117,
      "d": 384.61550000001444,
      "v": 127
    },
    {
      "midi": 53,
      "hit": false,
      "t": 225384.68300000118,
      "d": 384.61550000001444,
      "v": 127
    },
    {
      "midi": 83,
      "hit": false,
      "t": 225384.6830000019,
      "d": 769.2309999999998,
      "v": 127
    },
    {
      "midi": 79,
      "hit": false,
      "t": 225384.6830000019,
      "d": 769.2309999999998,
      "v": 127
    },
    {
      "midi": 74,
      "hit": false,
      "t": 225384.6830000019,
      "d": 769.2309999999998,
      "v": 127
    },
    {
      "midi": 60,
      "hit": false,
      "t": 225769.2985000012,
      "d": 384.61550000001444,
      "v": 127
    },
    {
      "midi": 65,
      "hit": false,
      "t": 226153.9140000012,
      "d": 384.61550000001444,
      "v": 127
    },
    {
      "midi": 81,
      "hit": false,
      "t": 226153.9140000019,
      "d": 769.2309999999998,
      "v": 127
    },
    {
      "midi": 84,
      "hit": false,
      "t": 226153.9140000019,
      "d": 769.2309999999998,
      "v": 127
    },
    {
      "midi": 77,
      "hit": false,
      "t": 226153.9140000019,
      "d": 769.2309999999998,
      "v": 127
    },
    {
      "midi": 69,
      "hit": false,
      "t": 226538.52950000123,
      "d": 384.61550000001444,
      "v": 127
    },
    {
      "midi": 55,
      "hit": false,
      "t": 226923.14500000124,
      "d": 384.61550000001444,
      "v": 127
    },
    {
      "midi": 79,
      "hit": false,
      "t": 226923.1450000019,
      "d": 1538.4619999999995,
      "v": 127
    },
    {
      "midi": 76,
      "hit": false,
      "t": 226923.1450000019,
      "d": 1538.4619999999995,
      "v": 127
    },
    {
      "midi": 72,
      "hit": false,
      "t": 226923.1450000019,
      "d": 1538.4619999999995,
      "v": 127
    },
    {
      "midi": 48,
      "hit": false,
      "t": 227307.76050000126,
      "d": 384.61550000001444,
      "v": 127
    },
    {
      "midi": 55,
      "hit": false,
      "t": 227692.37600000127,
      "d": 384.61550000001444,
      "v": 127
    },
    {
      "midi": 60,
      "hit": false,
      "t": 228076.99150000128,
      "d": 384.61550000001444,
      "v": 127
    },
    {
      "midi": 64,
      "hit": false,
      "t": 228461.6070000013,
      "d": 384.61550000001444,
      "v": 127
    },
    {
      "midi": 72,
      "hit": false,
      "t": 228461.6070000019,
      "d": 769.2309999999998,
      "v": 127
    },
    {
      "midi": 76,
      "hit": false,
      "t": 228461.6070000019,
      "d": 769.2309999999998,
      "v": 127
    },
    {
      "midi": 79,
      "hit": false,
      "t": 228461.6070000019,
      "d": 769.2309999999998,
      "v": 127
    },
    {
      "midi": 67,
      "hit": false,
      "t": 228846.2225000013,
      "d": 384.61550000001444,
      "v": 127
    },
    {
      "midi": 33,
      "hit": false,
      "t": 229230.83800000133,
      "d": 1153.8465000000433,
      "v": 100
    },
    {
      "midi": 81,
      "hit": false,
      "t": 229230.8380000019,
      "d": 1153.8465000000142,
      "v": 127
    },
    {
      "midi": 76,
      "hit": false,
      "t": 229230.8380000019,
      "d": 1153.8465000000142,
      "v": 127
    },
    {
      "midi": 84,
      "hit": false,
      "t": 229230.8380000019,
      "d": 1153.8465000000142,
      "v": 127
    },
    {
      "midi": 52,
      "hit": false,
      "t": 229615.45350000134,
      "d": 384.61550000001444,
      "v": 127
    },
    {
      "midi": 60,
      "hit": false,
      "t": 230000.06900000136,
      "d": 384.61550000001444,
      "v": 127
    },
    {
      "midi": 35,
      "hit": false,
      "t": 230384.68450000137,
      "d": 384.61550000001444,
      "v": 100
    },
    {
      "midi": 83,
      "hit": false,
      "t": 230384.68450000192,
      "d": 384.61550000001444,
      "v": 127
    },
    {
      "midi": 36,
      "hit": false,
      "t": 230769.30000000139,
      "d": 384.61550000001444,
      "v": 100
    },
    {
      "midi": 76,
      "hit": false,
      "t": 230769.30000000194,
      "d": 769.2309999999998,
      "v": 127
    },
    {
      "midi": 72,
      "hit": false,
      "t": 230769.30000000194,
      "d": 769.2309999999998,
      "v": 127
    },
    {
      "midi": 81,
      "hit": false,
      "t": 230769.30000000194,
      "d": 769.2309999999998,
      "v": 127
    },
    {
      "midi": 38,
      "hit": false,
      "t": 231153.9155000014,
      "d": 384.61550000001444,
      "v": 100
    },
    {
      "midi": 40,
      "hit": false,
      "t": 231538.5310000014,
      "d": 769.2309999999998,
      "v": 100
    },
    {
      "midi": 74,
      "hit": false,
      "t": 231538.53100000194,
      "d": 1538.4619999999995,
      "v": 127
    },
    {
      "midi": 71,
      "hit": false,
      "t": 231538.53100000194,
      "d": 1538.4619999999995,
      "v": 127
    },
    {
      "midi": 79,
      "hit": false,
      "t": 231538.53100000194,
      "d": 1538.4619999999995,
      "v": 127
    },
    {
      "midi": 28,
      "hit": false,
      "t": 232307.7620000014,
      "d": 769.2309999999998,
      "v": 100
    },
    {
      "midi": 36,
      "hit": false,
      "t": 233076.9930000014,
      "d": 769.2309999999998,
      "v": 100
    },
    {
      "midi": 67,
      "hit": false,
      "t": 233076.99300000194,
      "d": 769.2309999999998,
      "v": 127
    },
    {
      "midi": 64,
      "hit": false,
      "t": 233076.99300000194,
      "d": 769.2309999999998,
      "v": 127
    },
    {
      "midi": 72,
      "hit": false,
      "t": 233076.99300000194,
      "d": 769.2309999999998,
      "v": 127
    },
    {
      "midi": 50,
      "hit": false,
      "t": 233846.2240000014,
      "d": 384.61550000001444,
      "v": 100
    },
    {
      "midi": 69,
      "hit": false,
      "t": 233846.22400000194,
      "d": 1153.8465000000142,
      "v": 127
    },
    {
      "midi": 66,
      "hit": false,
      "t": 233846.22400000194,
      "d": 1153.8465000000142,
      "v": 127
    },
    {
      "midi": 74,
      "hit": false,
      "t": 233846.22400000194,
      "d": 1153.8465000000142,
      "v": 127
    },
    {
      "midi": 38,
      "hit": false,
      "t": 234230.83950000143,
      "d": 384.61550000001444,
      "v": 100
    },
    {
      "midi": 54,
      "hit": false,
      "t": 234615.45500000144,
      "d": 384.61550000001444,
      "v": 100
    },
    {
      "midi": 57,
      "hit": false,
      "t": 235000.07050000146,
      "d": 384.61550000001444,
      "v": 100
    },
    {
      "midi": 69,
      "hit": false,
      "t": 235000.07050000195,
      "d": 384.61550000001444,
      "v": 127
    },
    {
      "midi": 66,
      "hit": false,
      "t": 235000.07050000195,
      "d": 384.61550000001444,
      "v": 127
    },
    {
      "midi": 76,
      "hit": false,
      "t": 235000.07050000195,
      "d": 384.61550000001444,
      "v": 127
    },
    {
      "midi": 53,
      "hit": false,
      "t": 235384.68600000147,
      "d": 384.61550000001444,
      "v": 100
    },
    {
      "midi": 69,
      "hit": false,
      "t": 235384.68600000197,
      "d": 769.2309999999998,
      "v": 126
    },
    {
      "midi": 65,
      "hit": false,
      "t": 235384.68600000197,
      "d": 769.2309999999998,
      "v": 126
    },
    {
      "midi": 74,
      "hit": false,
      "t": 235384.68600000197,
      "d": 769.2309999999998,
      "v": 126
    },
    {
      "midi": 50,
      "hit": false,
      "t": 235769.3015000015,
      "d": 384.61550000001444,
      "v": 80
    },
    {
      "midi": 36,
      "hit": false,
      "t": 236153.9170000015,
      "d": 384.61550000001444,
      "v": 100
    },
    {
      "midi": 67,
      "hit": false,
      "t": 236153.91700000197,
      "d": 2307.6929999999993,
      "v": 126
    },
    {
      "midi": 64,
      "hit": false,
      "t": 236153.91700000197,
      "d": 2307.6929999999993,
      "v": 126
    },
    {
      "midi": 72,
      "hit": false,
      "t": 236153.91700000197,
      "d": 2307.6929999999993,
      "v": 126
    },
    {
      "midi": 43,
      "hit": false,
      "t": 236538.53250000151,
      "d": 384.61550000001444,
      "v": 100
    },
    {
      "midi": 84,
      "hit": false,
      "t": 236923.14800000153,
      "d": 384.61550000001444,
      "v": 100
    },
    {
      "midi": 48,
      "hit": false,
      "t": 236923.14800000153,
      "d": 384.61550000001444,
      "v": 100
    },
    {
      "midi": 79,
      "hit": false,
      "t": 237307.76350000154,
      "d": 384.61550000001444,
      "v": 100
    },
    {
      "midi": 55,
      "hit": false,
      "t": 237307.76350000154,
      "d": 384.61550000001444,
      "v": 100
    },
    {
      "midi": 76,
      "hit": false,
      "t": 237692.37900000156,
      "d": 384.61550000001444,
      "v": 100
    },
    {
      "midi": 60,
      "hit": false,
      "t": 237692.37900000156,
      "d": 384.61550000001444,
      "v": 100
    },
    {
      "midi": 72,
      "hit": false,
      "t": 238076.99450000157,
      "d": 384.61549999998533,
      "v": 100
    },
    {
      "midi": 64,
      "hit": false,
      "t": 238076.99450000157,
      "d": 384.61549999998533,
      "v": 100
    },
    {
      "midi": 81,
      "hit": false,
      "t": 238461.61000000013,
      "d": 1538.4619999999995,
      "v": 100
    },
    {
      "midi": 41,
      "hit": false,
      "t": 238461.61000000156,
      "d": 4615.385999999999,
      "v": 100
    },
    {
      "midi": 48,
      "hit": false,
      "t": 238846.22550000198,
      "d": 384.61550000001444,
      "v": 100
    },
    {
      "midi": 53,
      "hit": false,
      "t": 239230.841000002,
      "d": 384.61550000001444,
      "v": 100
    },
    {
      "midi": 57,
      "hit": false,
      "t": 239615.456500002,
      "d": 384.61550000001444,
      "v": 100
    },
    {
      "midi": 81,
      "hit": false,
      "t": 240000.07200000013,
      "d": 769.2309999999998,
      "v": 100
    },
    {
      "midi": 60,
      "hit": false,
      "t": 240000.07200000202,
      "d": 384.61550000001444,
      "v": 100
    },
    {
      "midi": 65,
      "hit": false,
      "t": 240384.68750000204,
      "d": 384.61550000001444,
      "v": 100
    },
    {
      "midi": 81,
      "hit": false,
      "t": 240769.30300000013,
      "d": 769.2309999999998,
      "v": 100
    },
    {
      "midi": 69,
      "hit": false,
      "t": 240769.30300000205,
      "d": 384.61550000001444,
      "v": 100
    },
    {
      "midi": 60,
      "hit": false,
      "t": 241153.91850000207,
      "d": 384.61550000001444,
      "v": 100
    },
    {
      "midi": 83,
      "hit": false,
      "t": 241538.53400000013,
      "d": 769.2309999999998,
      "v": 100
    },
    {
      "midi": 71,
      "hit": false,
      "t": 241538.53400000208,
      "d": 384.61550000001444,
      "v": 100
    },
    {
      "midi": 67,
      "hit": false,
      "t": 241538.53400000208,
      "d": 384.61550000001444,
      "v": 100
    },
    {
      "midi": 60,
      "hit": false,
      "t": 241923.1495000021,
      "d": 384.61550000001444,
      "v": 100
    },
    {
      "midi": 84,
      "hit": false,
      "t": 242307.76500000013,
      "d": 769.2309999999998,
      "v": 100
    },
    {
      "midi": 72,
      "hit": false,
      "t": 242307.7650000021,
      "d": 384.61550000001444,
      "v": 100
    },
    {
      "midi": 69,
      "hit": false,
      "t": 242307.7650000021,
      "d": 384.61550000001444,
      "v": 100
    },
    {
      "midi": 60,
      "hit": false,
      "t": 242692.38050000212,
      "d": 384.61550000001444,
      "v": 100
    },
    {
      "midi": 84,
      "hit": false,
      "t": 243076.99600000013,
      "d": 2307.6929999999993,
      "v": 100
    },
    {
      "midi": 40,
      "hit": false,
      "t": 243076.99600000156,
      "d": 4615.385999999999,
      "v": 100
    },
    {
      "midi": 72,
      "hit": false,
      "t": 243076.99600000214,
      "d": 384.61550000001444,
      "v": 100
    },
    {
      "midi": 64,
      "hit": false,
      "t": 243076.99600000214,
      "d": 384.61550000001444,
      "v": 100
    },
    {
      "midi": 48,
      "hit": false,
      "t": 243461.61150000215,
      "d": 384.61550000001444,
      "v": 100
    },
    {
      "midi": 55,
      "hit": false,
      "t": 243846.22700000217,
      "d": 384.61550000001444,
      "v": 100
    },
    {
      "midi": 60,
      "hit": false,
      "t": 244230.84250000218,
      "d": 384.61550000001444,
      "v": 100
    },
    {
      "midi": 64,
      "hit": false,
      "t": 244615.4580000022,
      "d": 384.61550000001444,
      "v": 100
    },
    {
      "midi": 67,
      "hit": false,
      "t": 245000.0735000022,
      "d": 384.61550000001444,
      "v": 100
    },
    {
      "midi": 79,
      "hit": false,
      "t": 245384.68900000013,
      "d": 2307.6929999999993,
      "v": 100
    },
    {
      "midi": 72,
      "hit": false,
      "t": 245384.68900000222,
      "d": 384.61550000001444,
      "v": 100
    },
    {
      "midi": 67,
      "hit": false,
      "t": 245384.68900000222,
      "d": 384.61550000001444,
      "v": 100
    },
    {
      "midi": 67,
      "hit": false,
      "t": 245769.30450000224,
      "d": 384.61550000001444,
      "v": 100
    },
    {
      "midi": 76,
      "hit": false,
      "t": 246153.92000000225,
      "d": 384.61550000001444,
      "v": 100
    },
    {
      "midi": 72,
      "hit": false,
      "t": 246153.92000000225,
      "d": 384.61550000001444,
      "v": 100
    },
    {
      "midi": 72,
      "hit": false,
      "t": 246538.53550000227,
      "d": 384.61550000001444,
      "v": 100
    },
    {
      "midi": 67,
      "hit": false,
      "t": 246923.15100000228,
      "d": 384.61550000001444,
      "v": 100
    },
    {
      "midi": 64,
      "hit": false,
      "t": 247307.7665000023,
      "d": 384.61550000001444,
      "v": 100
    },
    {
      "midi": 79,
      "hit": false,
      "t": 247692.38200000013,
      "d": 1153.8465000000142,
      "v": 100
    },
    {
      "midi": 39,
      "hit": false,
      "t": 247692.38200000155,
      "d": 2307.6929999999993,
      "v": 100
    },
    {
      "midi": 51,
      "hit": false,
      "t": 247692.3820000023,
      "d": 384.61550000001444,
      "v": 100
    },
    {
      "midi": 46,
      "hit": false,
      "t": 248076.99750000233,
      "d": 769.2310000000289,
      "v": 100
    },
    {
      "midi": 51,
      "hit": false,
      "t": 248461.61300000234,
      "d": 384.61550000001444,
      "v": 100
    },
    {
      "midi": 79,
      "hit": false,
      "t": 248846.22850000014,
      "d": 384.61550000001444,
      "v": 100
    },
    {
      "midi": 58,
      "hit": false,
      "t": 248846.22850000235,
      "d": 384.61550000001444,
      "v": 100
    },
    {
      "midi": 79,
      "hit": false,
      "t": 249230.84400000016,
      "d": 769.2309999999998,
      "v": 100
    },
    {
      "midi": 63,
      "hit": false,
      "t": 249230.84400000237,
      "d": 384.61550000001444,
      "v": 100
    },
    {
      "midi": 67,
      "hit": false,
      "t": 249615.45950000238,
      "d": 384.61550000001444,
      "v": 100
    },
    {
      "midi": 79,
      "hit": false,
      "t": 250000.07500000016,
      "d": 769.2309999999998,
      "v": 100
    },
    {
      "midi": 60,
      "hit": false,
      "t": 250000.07500000155,
      "d": 2307.6929999999993,
      "v": 100
    },
    {
      "midi": 55,
      "hit": false,
      "t": 250000.07500000155,
      "d": 2307.6929999999993,
      "v": 100
    },
    {
      "midi": 77,
      "hit": false,
      "t": 250769.30600000016,
      "d": 769.2309999999998,
      "v": 100
    },
    {
      "midi": 65,
      "hit": false,
      "t": 250769.3060000024,
      "d": 769.2309999999998,
      "v": 100
    },
    {
      "midi": 75,
      "hit": false,
      "t": 251538.53700000016,
      "d": 769.2309999999998,
      "v": 100
    },
    {
      "midi": 67,
      "hit": false,
      "t": 251538.5370000024,
      "d": 769.2309999999998,
      "v": 100
    },
    {
      "midi": 77,
      "hit": false,
      "t": 252307.76800000016,
      "d": 2307.6929999999993,
      "v": 100
    },
    {
      "midi": 41,
      "hit": false,
      "t": 252307.76800000155,
      "d": 2307.6929999999993,
      "v": 100
    },
    {
      "midi": 60,
      "hit": false,
      "t": 252307.76800000155,
      "d": 2307.6929999999993,
      "v": 100
    },
    {
      "midi": 53,
      "hit": false,
      "t": 252307.7680000024,
      "d": 384.61550000001444,
      "v": 100
    },
    {
      "midi": 45,
      "hit": false,
      "t": 252692.3835000024,
      "d": 384.61550000001444,
      "v": 100
    },
    {
      "midi": 53,
      "hit": false,
      "t": 253076.99900000243,
      "d": 384.61550000001444,
      "v": 100
    },
    {
      "midi": 57,
      "hit": false,
      "t": 253461.61450000244,
      "d": 384.61550000001444,
      "v": 100
    },
    {
      "midi": 60,
      "hit": false,
      "t": 253846.23000000246,
      "d": 384.61550000001444,
      "v": 100
    },
    {
      "midi": 65,
      "hit": false,
      "t": 254230.84550000247,
      "d": 384.61550000001444,
      "v": 100
    },
    {
      "midi": 79,
      "hit": false,
      "t": 254615.46100000016,
      "d": 2307.6929999999993,
      "v": 100
    },
    {
      "midi": 43,
      "hit": false,
      "t": 254615.46100000155,
      "d": 2307.6929999999993,
      "v": 100
    },
    {
      "midi": 59,
      "hit": false,
      "t": 254615.46100000155,
      "d": 2307.6929999999993,
      "v": 100
    },
    {
      "midi": 55,
      "hit": false,
      "t": 254615.46100000248,
      "d": 384.61550000001444,
      "v": 100
    },
    {
      "midi": 47,
      "hit": false,
      "t": 255000.0765000025,
      "d": 384.61550000001444,
      "v": 100
    },
    {
      "midi": 55,
      "hit": false,
      "t": 255384.6920000025,
      "d": 384.61550000001444,
      "v": 100
    },
    {
      "midi": 59,
      "hit": false,
      "t": 255769.30750000253,
      "d": 384.61550000001444,
      "v": 100
    },
    {
      "midi": 62,
      "hit": false,
      "t": 256153.92300000254,
      "d": 384.61550000001444,
      "v": 100
    },
    {
      "midi": 67,
      "hit": false,
      "t": 256538.53850000256,
      "d": 384.61550000001444,
      "v": 100
    },
    {
      "midi": 71,
      "hit": false,
      "t": 256923.15400000257,
      "d": 769.2309999999998,
      "v": 100
    },
    {
      "midi": 62,
      "hit": false,
      "t": 256923.15400000257,
      "d": 769.2309999999998,
      "v": 100
    },
    {
      "midi": 67,
      "hit": false,
      "t": 257307.76950000157,
      "d": 384.61550000001444,
      "v": 100
    },
    {
      "midi": 72,
      "hit": false,
      "t": 257692.38500000257,
      "d": 769.2309999999998,
      "v": 100
    },
    {
      "midi": 64,
      "hit": false,
      "t": 257692.38500000257,
      "d": 769.2309999999998,
      "v": 100
    },
    {
      "midi": 67,
      "hit": false,
      "t": 258077.0005000016,
      "d": 384.61550000001444,
      "v": 100
    },
    {
      "midi": 74,
      "hit": false,
      "t": 258461.61600000257,
      "d": 769.2309999999998,
      "v": 100
    },
    {
      "midi": 65,
      "hit": false,
      "t": 258461.61600000257,
      "d": 769.2309999999998,
      "v": 100
    },
    {
      "midi": 67,
      "hit": false,
      "t": 258846.23150000162,
      "d": 384.61550000001444,
      "v": 100
    },
    {
      "midi": 72,
      "hit": false,
      "t": 259230.84700000257,
      "d": 769.2309999999998,
      "v": 100
    },
    {
      "midi": 64,
      "hit": false,
      "t": 259230.84700000257,
      "d": 769.2309999999998,
      "v": 100
    },
    {
      "midi": 67,
      "hit": false,
      "t": 259615.46250000165,
      "d": 384.61550000001444,
      "v": 100
    },
    {
      "midi": 71,
      "hit": false,
      "t": 260000.07800000257,
      "d": 384.61550000001444,
      "v": 100
    },
    {
      "midi": 62,
      "hit": false,
      "t": 260000.07800000257,
      "d": 769.2310000000289,
      "v": 100
    },
    {
      "midi": 67,
      "hit": false,
      "t": 260384.69350000258,
      "d": 384.61550000001444,
      "v": 100
    },
    {
      "midi": 62,
      "hit": false,
      "t": 260769.3090000026,
      "d": 384.61550000001444,
      "v": 100
    },
    {
      "midi": 59,
      "hit": false,
      "t": 261153.9245000026,
      "d": 384.61549999998533,
      "v": 100
    },
    {
      "midi": 72,
      "hit": false,
      "t": 261538.54000000015,
      "d": 769.2310000000289,
      "v": 100
    },
    {
      "midi": 48,
      "hit": false,
      "t": 261538.54000000167,
      "d": 2307.6930000000284,
      "v": 100
    },
    {
      "midi": 52,
      "hit": false,
      "t": 261538.54000000167,
      "d": 2307.6930000000284,
      "v": 100
    },
    {
      "midi": 60,
      "hit": false,
      "t": 261538.5400000026,
      "d": 384.61550000001444,
      "v": 100
    },
    {
      "midi": 55,
      "hit": false,
      "t": 261923.1555000026,
      "d": 384.61550000001444,
      "v": 100
    },
    {
      "midi": 76,
      "hit": false,
      "t": 262307.7710000002,
      "d": 769.2310000000289,
      "v": 100
    },
    {
      "midi": 67,
      "hit": false,
      "t": 262307.7710000026,
      "d": 384.61550000001444,
      "v": 100
    },
    {
      "midi": 60,
      "hit": false,
      "t": 262692.38650000264,
      "d": 384.61550000001444,
      "v": 100
    },
    {
      "midi": 79,
      "hit": false,
      "t": 263077.0020000002,
      "d": 769.2310000000289,
      "v": 100
    },
    {
      "midi": 55,
      "hit": false,
      "t": 263077.00200000266,
      "d": 384.61550000001444,
      "v": 100
    },
    {
      "midi": 52,
      "hit": false,
      "t": 263461.61750000267,
      "d": 384.61550000001444,
      "v": 100
    },
    {
      "midi": 76,
      "hit": false,
      "t": 263846.23300000024,
      "d": 769.2310000000289,
      "v": 100
    },
    {
      "midi": 40,
      "hit": false,
      "t": 263846.2330000017,
      "d": 2307.6930000000284,
      "v": 100
    },
    {
      "midi": 64,
      "hit": false,
      "t": 263846.2330000027,
      "d": 384.61550000001444,
      "v": 100
    },
    {
      "midi": 60,
      "hit": false,
      "t": 263846.2330000027,
      "d": 384.61550000001444,
      "v": 100
    },
    {
      "midi": 52,
      "hit": false,
      "t": 264230.8485000027,
      "d": 384.61550000001444,
      "v": 100
    },
    {
      "midi": 77,
      "hit": false,
      "t": 264615.46400000027,
      "d": 769.2310000000289,
      "v": 100
    },
    {
      "midi": 65,
      "hit": false,
      "t": 264615.4640000027,
      "d": 384.61550000001444,
      "v": 100
    },
    {
      "midi": 62,
      "hit": false,
      "t": 264615.4640000027,
      "d": 384.61550000001444,
      "v": 100
    },
    {
      "midi": 52,
      "hit": false,
      "t": 265000.0795000027,
      "d": 384.61550000001444,
      "v": 100
    },
    {
      "midi": 79,
      "hit": false,
      "t": 265384.6950000003,
      "d": 769.2310000000289,
      "v": 100
    },
    {
      "midi": 67,
      "hit": false,
      "t": 265384.69500000274,
      "d": 384.61550000001444,
      "v": 100
    },
    {
      "midi": 64,
      "hit": false,
      "t": 265384.69500000274,
      "d": 384.61550000001444,
      "v": 100
    },
    {
      "midi": 52,
      "hit": false,
      "t": 265769.31050000276,
      "d": 384.61550000001444,
      "v": 100
    },
    {
      "midi": 81,
      "hit": false,
      "t": 266153.9260000003,
      "d": 769.2310000000289,
      "v": 100
    },
    {
      "midi": 41,
      "hit": false,
      "t": 266153.9260000017,
      "d": 2307.6930000000284,
      "v": 100
    },
    {
      "midi": 53,
      "hit": false,
      "t": 266153.9260000028,
      "d": 384.61550000001444,
      "v": 100
    },
    {
      "midi": 48,
      "hit": false,
      "t": 266538.5415000028,
      "d": 384.61550000001444,
      "v": 100
    },
    {
      "midi": 83,
      "hit": false,
      "t": 266923.15700000036,
      "d": 769.2310000000289,
      "v": 100
    },
    {
      "midi": 53,
      "hit": false,
      "t": 266923.1570000028,
      "d": 384.61550000001444,
      "v": 100
    },
    {
      "midi": 57,
      "hit": false,
      "t": 267307.7725000028,
      "d": 384.61550000001444,
      "v": 100
    },
    {
      "midi": 84,
      "hit": false,
      "t": 267692.3880000004,
      "d": 769.2310000000289,
      "v": 100
    },
    {
      "midi": 60,
      "hit": false,
      "t": 267692.38800000283,
      "d": 384.61550000001444,
      "v": 100
    },
    {
      "midi": 65,
      "hit": false,
      "t": 268077.00350000284,
      "d": 384.61550000001444,
      "v": 100
    },
    {
      "midi": 79,
      "hit": false,
      "t": 268461.6190000004,
      "d": 1538.4619999999995,
      "v": 100
    },
    {
      "midi": 40,
      "hit": false,
      "t": 268461.61900000175,
      "d": 2307.6930000000284,
      "v": 100
    },
    {
      "midi": 60,
      "hit": false,
      "t": 268461.61900000286,
      "d": 384.61550000001444,
      "v": 100
    },
    {
      "midi": 55,
      "hit": false,
      "t": 268846.2345000029,
      "d": 384.61550000001444,
      "v": 100
    },
    {
      "midi": 72,
      "hit": false,
      "t": 269230.8500000029,
      "d": 384.61550000001444,
      "v": 100
    },
    {
      "midi": 67,
      "hit": false,
      "t": 269615.4655000029,
      "d": 384.61550000001444,
      "v": 100
    },
    {
      "midi": 79,
      "hit": false,
      "t": 270000.0810000004,
      "d": 769.2310000000289,
      "v": 100
    },
    {
      "midi": 64,
      "hit": false,
      "t": 270000.0810000029,
      "d": 384.61550000001444,
      "v": 100
    },
    {
      "midi": 60,
      "hit": false,
      "t": 270384.69650000293,
      "d": 384.61550000001444,
      "v": 100
    },
    {
      "midi": 84,
      "hit": false,
      "t": 270769.31200000044,
      "d": 1153.846499999985,
      "v": 100
    },
    {
      "midi": 45,
      "hit": false,
      "t": 270769.3120000018,
      "d": 1153.846499999985,
      "v": 100
    },
    {
      "midi": 69,
      "hit": false,
      "t": 270769.31200000294,
      "d": 384.61550000001444,
      "v": 100
    },
    {
      "midi": 52,
      "hit": false,
      "t": 271153.92750000296,
      "d": 384.61550000001444,
      "v": 100
    },
    {
      "midi": 57,
      "hit": false,
      "t": 271538.543000003,
      "d": 769.2310000000289,
      "v": 100
    },
    {
      "midi": 83,
      "hit": false,
      "t": 271923.1585000004,
      "d": 384.61550000001444,
      "v": 100
    },
    {
      "midi": 47,
      "hit": false,
      "t": 271923.15850000177,
      "d": 384.61550000001444,
      "v": 100
    },
    {
      "midi": 81,
      "hit": false,
      "t": 272307.77400000044,
      "d": 769.2310000000289,
      "v": 100
    },
    {
      "midi": 48,
      "hit": false,
      "t": 272307.7740000018,
      "d": 384.61550000001444,
      "v": 100
    },
    {
      "midi": 60,
      "hit": false,
      "t": 272307.774000003,
      "d": 769.2310000000289,
      "v": 100
    },
    {
      "midi": 50,
      "hit": false,
      "t": 272692.3895000018,
      "d": 384.61550000001444,
      "v": 100
    },
    {
      "midi": 79,
      "hit": false,
      "t": 273077.00500000047,
      "d": 1538.4619999999995,
      "v": 100
    },
    {
      "midi": 52,
      "hit": false,
      "t": 273077.0050000018,
      "d": 769.2310000000289,
      "v": 100
    },
    {
      "midi": 55,
      "hit": false,
      "t": 273077.00500000303,
      "d": 384.61550000001444,
      "v": 100
    },
    {
      "midi": 64,
      "hit": false,
      "t": 273077.00500000303,
      "d": 769.2310000000289,
      "v": 100
    },
    {
      "midi": 40,
      "hit": false,
      "t": 273846.23600000184,
      "d": 769.2310000000289,
      "v": 100
    },
    {
      "midi": 72,
      "hit": false,
      "t": 274615.46700000047,
      "d": 769.2310000000289,
      "v": 100
    },
    {
      "midi": 48,
      "hit": false,
      "t": 274615.46700000187,
      "d": 769.2310000000289,
      "v": 100
    },
    {
      "midi": 55,
      "hit": false,
      "t": 274615.4670000031,
      "d": 769.2310000000289,
      "v": 100
    },
    {
      "midi": 74,
      "hit": false,
      "t": 275384.6980000005,
      "d": 1153.846499999985,
      "v": 100
    },
    {
      "midi": 50,
      "hit": false,
      "t": 275384.6980000019,
      "d": 384.61550000001444,
      "v": 100
    },
    {
      "midi": 54,
      "hit": false,
      "t": 275384.6980000031,
      "d": 1538.4619999999995,
      "v": 100
    },
    {
      "midi": 38,
      "hit": false,
      "t": 275769.3135000019,
      "d": 384.61550000001444,
      "v": 100
    },
    {
      "midi": 50,
      "hit": false,
      "t": 276153.9290000019,
      "d": 769.2310000000289,
      "v": 100
    },
    {
      "midi": 76,
      "hit": false,
      "t": 276538.5445000005,
      "d": 384.61550000001444,
      "v": 100
    },
    {
      "midi": 74,
      "hit": false,
      "t": 276923.1600000005,
      "d": 769.2310000000289,
      "v": 100
    },
    {
      "midi": 50,
      "hit": false,
      "t": 276923.16000000195,
      "d": 769.2310000000289,
      "v": 100
    },
    {
      "midi": 53,
      "hit": false,
      "t": 276923.1600000031,
      "d": 769.2310000000289,
      "v": 100
    },
    {
      "midi": 72,
      "hit": false,
      "t": 277692.3910000005,
      "d": 2307.6930000000284,
      "v": 100
    },
    {
      "midi": 52,
      "hit": false,
      "t": 277692.391000002,
      "d": 2307.69299999997,
      "v": 100
    },
    {
      "midi": 48,
      "hit": false,
      "t": 277692.391000002,
      "d": 2307.69299999997,
      "v": 100
    },
    {
      "midi": 52,
      "hit": false,
      "t": 277692.39100000315,
      "d": 384.61550000001444,
      "v": 100
    },
    {
      "midi": 43,
      "hit": false,
      "t": 278077.00650000316,
      "d": 384.61550000001444,
      "v": 100
    },
    {
      "midi": 48,
      "hit": false,
      "t": 278461.6220000032,
      "d": 384.61550000001444,
      "v": 100
    },
    {
      "midi": 52,
      "hit": false,
      "t": 278846.2375000032,
      "d": 384.61550000001444,
      "v": 100
    },
    {
      "midi": 55,
      "hit": false,
      "t": 279230.8530000032,
      "d": 384.61550000001444,
      "v": 100
    },
    {
      "midi": 60,
      "hit": false,
      "t": 279615.4685000032,
      "d": 384.61550000001444,
      "v": 100
    },
    {
      "midi": 83,
      "hit": false,
      "t": 280000.08400000323,
      "d": 769.2310000000289,
      "v": 100
    },
    {
      "midi": 74,
      "hit": false,
      "t": 280000.08400000323,
      "d": 769.2310000000289,
      "v": 100
    },
    {
      "midi": 79,
      "hit": false,
      "t": 280384.69950000197,
      "d": 384.61550000001444,
      "v": 100
    },
    {
      "midi": 84,
      "hit": false,
      "t": 280769.31500000326,
      "d": 769.2310000000289,
      "v": 100
    },
    {
      "midi": 76,
      "hit": false,
      "t": 280769.31500000326,
      "d": 769.2310000000289,
      "v": 100
    },
    {
      "midi": 79,
      "hit": false,
      "t": 281153.930500002,
      "d": 384.61550000001444,
      "v": 100
    },
    {
      "midi": 86,
      "hit": false,
      "t": 281538.5460000033,
      "d": 769.2310000000289,
      "v": 100
    },
    {
      "midi": 77,
      "hit": false,
      "t": 281538.5460000033,
      "d": 769.2310000000289,
      "v": 100
    },
    {
      "midi": 79,
      "hit": false,
      "t": 281923.161500002,
      "d": 384.61550000001444,
      "v": 100
    },
    {
      "midi": 84,
      "hit": false,
      "t": 282307.7770000033,
      "d": 769.2310000000289,
      "v": 100
    },
    {
      "midi": 76,
      "hit": false,
      "t": 282307.7770000033,
      "d": 769.2310000000289,
      "v": 100
    },
    {
      "midi": 79,
      "hit": false,
      "t": 282692.39250000205,
      "d": 384.61550000001444,
      "v": 100
    },
    {
      "midi": 83,
      "hit": false,
      "t": 283077.00800000335,
      "d": 769.2310000000289,
      "v": 100
    },
    {
      "midi": 74,
      "hit": false,
      "t": 283077.00800000335,
      "d": 769.2310000000289,
      "v": 100
    },
    {
      "midi": 79,
      "hit": false,
      "t": 283461.6235000021,
      "d": 384.61550000001444,
      "v": 100
    },
    {
      "midi": 84,
      "hit": false,
      "t": 283846.2390000034,
      "d": 769.2310000000289,
      "v": 100
    },
    {
      "midi": 76,
      "hit": false,
      "t": 283846.2390000034,
      "d": 769.2310000000289,
      "v": 100
    },
    {
      "midi": 79,
      "hit": false,
      "t": 284230.8545000021,
      "d": 384.61550000001444,
      "v": 100
    },
    {
      "midi": 81,
      "hit": false,
      "t": 284615.4700000034,
      "d": 769.2310000000289,
      "v": 100
    },
    {
      "midi": 72,
      "hit": false,
      "t": 284615.4700000034,
      "d": 769.2310000000289,
      "v": 100
    },
    {
      "midi": 77,
      "hit": false,
      "t": 285000.08550000214,
      "d": 384.61550000001444,
      "v": 100
    },
    {
      "midi": 83,
      "hit": false,
      "t": 285384.70100000344,
      "d": 769.2310000000289,
      "v": 100
    },
    {
      "midi": 74,
      "hit": false,
      "t": 285384.70100000344,
      "d": 769.2310000000289,
      "v": 100
    },
    {
      "midi": 77,
      "hit": false,
      "t": 285769.31650000217,
      "d": 384.61550000001444,
      "v": 100
    },
    {
      "midi": 84,
      "hit": false,
      "t": 286153.93200000346,
      "d": 769.2310000000289,
      "v": 100
    },
    {
      "midi": 76,
      "hit": false,
      "t": 286153.93200000346,
      "d": 769.2310000000289,
      "v": 100
    },
    {
      "midi": 77,
      "hit": false,
      "t": 286538.5475000022,
      "d": 384.61550000001444,
      "v": 100
    },
    {
      "midi": 83,
      "hit": false,
      "t": 286923.1630000035,
      "d": 769.2310000000289,
      "v": 100
    },
    {
      "midi": 74,
      "hit": false,
      "t": 286923.1630000035,
      "d": 769.2310000000289,
      "v": 100
    },
    {
      "midi": 77,
      "hit": false,
      "t": 287307.7785000022,
      "d": 384.61550000001444,
      "v": 100
    },
    {
      "midi": 81,
      "hit": false,
      "t": 287692.3940000035,
      "d": 769.2310000000289,
      "v": 100
    },
    {
      "midi": 72,
      "hit": false,
      "t": 287692.3940000035,
      "d": 769.2310000000289,
      "v": 100
    },
    {
      "midi": 77,
      "hit": false,
      "t": 288077.00950000226,
      "d": 384.61550000001444,
      "v": 100
    },
    {
      "midi": 83,
      "hit": false,
      "t": 288461.62500000355,
      "d": 769.2310000000289,
      "v": 100
    },
    {
      "midi": 74,
      "hit": false,
      "t": 288461.62500000355,
      "d": 769.2310000000289,
      "v": 100
    },
    {
      "midi": 77,
      "hit": false,
      "t": 288846.2405000023,
      "d": 384.61550000001444,
      "v": 100
    },
    {
      "midi": 40,
      "hit": false,
      "t": 289230.8560000023,
      "d": 384.61550000001444,
      "v": 100
    },
    {
      "midi": 79,
      "hit": false,
      "t": 289230.8560000036,
      "d": 2307.6930000000284,
      "v": 100
    },
    {
      "midi": 71,
      "hit": false,
      "t": 289230.8560000036,
      "d": 2307.6930000000284,
      "v": 100
    },
    {
      "midi": 47,
      "hit": false,
      "t": 289615.4715000023,
      "d": 384.61550000001444,
      "v": 100
    },
    {
      "midi": 55,
      "hit": false,
      "t": 290000.0870000023,
      "d": 384.61550000001444,
      "v": 100
    },
    {
      "midi": 59,
      "hit": false,
      "t": 290384.70250000234,
      "d": 384.61550000001444,
      "v": 100
    },
    {
      "midi": 62,
      "hit": false,
      "t": 290769.31800000236,
      "d": 384.61550000001444,
      "v": 100
    },
    {
      "midi": 67,
      "hit": false,
      "t": 291153.9335000024,
      "d": 384.61550000001444,
      "v": 100
    },
    {
      "midi": 48,
      "hit": false,
      "t": 291538.5490000024,
      "d": 769.2310000000289,
      "v": 100
    },
    {
      "midi": 45,
      "hit": false,
      "t": 291538.5490000024,
      "d": 769.2310000000289,
      "v": 100
    },
    {
      "midi": 52,
      "hit": false,
      "t": 291923.1645000036,
      "d": 384.61550000001444,
      "v": 100
    },
    {
      "midi": 55,
      "hit": false,
      "t": 292307.78000000364,
      "d": 384.61550000001444,
      "v": 100
    },
    {
      "midi": 60,
      "hit": false,
      "t": 292692.39550000365,
      "d": 384.61550000001444,
      "v": 100
    },
    {
      "midi": 65,
      "hit": false,
      "t": 293077.01100000367,
      "d": 384.61550000001444,
      "v": 100
    },
    {
      "midi": 64,
      "hit": false,
      "t": 293461.6265000037,
      "d": 384.61550000001444,
      "v": 100
    },
    {
      "midi": 38,
      "hit": false,
      "t": 293846.2420000024,
      "d": 384.61550000001444,
      "v": 100
    },
    {
      "midi": 65,
      "hit": false,
      "t": 293846.2420000037,
      "d": 2307.6930000000284,
      "v": 100
    },
    {
      "midi": 45,
      "hit": false,
      "t": 294230.8575000024,
      "d": 384.61550000001444,
      "v": 100
    },
    {
      "midi": 53,
      "hit": false,
      "t": 294615.47300000244,
      "d": 384.61550000001444,
      "v": 100
    },
    {
      "midi": 57,
      "hit": false,
      "t": 295000.08850000246,
      "d": 384.61550000001444,
      "v": 100
    },
    {
      "midi": 60,
      "hit": false,
      "t": 295384.7040000025,
      "d": 384.61550000001444,
      "v": 100
    },
    {
      "midi": 65,
      "hit": false,
      "t": 295769.3195000025,
      "d": 384.61550000001444,
      "v": 100
    },
    {
      "midi": 41,
      "hit": false,
      "t": 296153.9350000025,
      "d": 384.61550000001444,
      "v": 100
    },
    {
      "midi": 69,
      "hit": false,
      "t": 296153.9350000037,
      "d": 2307.6930000000284,
      "v": 100
    },
    {
      "midi": 60,
      "hit": false,
      "t": 296538.5505000025,
      "d": 384.61550000001444,
      "v": 100
    },
    {
      "midi": 50,
      "hit": false,
      "t": 296538.5505000025,
      "d": 384.61550000001444,
      "v": 100
    },
    {
      "midi": 65,
      "hit": false,
      "t": 296923.16600000253,
      "d": 384.61550000001444,
      "v": 100
    },
    {
      "midi": 69,
      "hit": false,
      "t": 297307.78150000254,
      "d": 384.61550000001444,
      "v": 100
    },
    {
      "midi": 72,
      "hit": false,
      "t": 297692.39700000256,
      "d": 384.61550000001444,
      "v": 100
    },
    {
      "midi": 77,
      "hit": false,
      "t": 298077.0125000026,
      "d": 384.61550000001444,
      "v": 100
    },
    {
      "midi": 81,
      "hit": false,
      "t": 298461.62800000375,
      "d": 769.2310000000289,
      "v": 100
    },
    {
      "midi": 77,
      "hit": false,
      "t": 298461.62800000375,
      "d": 769.2310000000289,
      "v": 100
    },
    {
      "midi": 84,
      "hit": false,
      "t": 299230.8590000038,
      "d": 769.2310000000289,
      "v": 100
    },
    {
      "midi": 86,
      "hit": false,
      "t": 300000.0900000038,
      "d": 769.2310000000289,
      "v": 100
    },
    {
      "midi": 74,
      "hit": false,
      "t": 300000.0900000038,
      "d": 769.2310000000289,
      "v": 100
    },
    {
      "midi": 52,
      "hit": false,
      "t": 300769.3210000026,
      "d": 2307.6930000000284,
      "v": 100
    },
    {
      "midi": 48,
      "hit": false,
      "t": 300769.3210000026,
      "d": 2307.6930000000284,
      "v": 100
    },
    {
      "midi": 88,
      "hit": false,
      "t": 300769.32100000384,
      "d": 769.2310000000289,
      "v": 100
    },
    {
      "midi": 76,
      "hit": false,
      "t": 300769.32100000384,
      "d": 769.2310000000289,
      "v": 100
    },
    {
      "midi": 48,
      "hit": false,
      "t": 301153.93650000385,
      "d": 384.61550000001444,
      "v": 100
    },
    {
      "midi": 52,
      "hit": false,
      "t": 301538.55200000387,
      "d": 384.61550000001444,
      "v": 100
    },
    {
      "midi": 55,
      "hit": false,
      "t": 301923.1675000039,
      "d": 384.61550000001444,
      "v": 100
    },
    {
      "midi": 60,
      "hit": false,
      "t": 302307.7830000039,
      "d": 384.61550000001444,
      "v": 100
    },
    {
      "midi": 64,
      "hit": false,
      "t": 302692.3985000039,
      "d": 384.61550000001444,
      "v": 100
    },
    {
      "midi": 51,
      "hit": false,
      "t": 303077.01400000264,
      "d": 2307.6930000000284,
      "v": 100
    },
    {
      "midi": 48,
      "hit": false,
      "t": 303077.01400000264,
      "d": 2307.6930000000284,
      "v": 100
    },
    {
      "midi": 63,
      "hit": false,
      "t": 303077.0140000039,
      "d": 384.61550000001444,
      "v": 100
    },
    {
      "midi": 51,
      "hit": false,
      "t": 303461.62950000394,
      "d": 384.61550000001444,
      "v": 100
    },
    {
      "midi": 56,
      "hit": false,
      "t": 303846.24500000395,
      "d": 384.61550000001444,
      "v": 100
    },
    {
      "midi": 58,
      "hit": false,
      "t": 304230.86050000397,
      "d": 384.61550000001444,
      "v": 100
    },
    {
      "midi": 60,
      "hit": false,
      "t": 304615.476000004,
      "d": 384.61550000001444,
      "v": 100
    },
    {
      "midi": 63,
      "hit": false,
      "t": 305000.091500004,
      "d": 384.61550000001444,
      "v": 100
    },
    {
      "midi": 52,
      "hit": false,
      "t": 305384.7070000027,
      "d": 2307.6930000000284,
      "v": 100
    },
    {
      "midi": 48,
      "hit": false,
      "t": 305384.7070000027,
      "d": 2307.6930000000284,
      "v": 100
    },
    {
      "midi": 64,
      "hit": false,
      "t": 305384.707000004,
      "d": 384.61550000001444,
      "v": 100
    },
    {
      "midi": 48,
      "hit": false,
      "t": 305769.322500004,
      "d": 384.61550000001444,
      "v": 100
    },
    {
      "midi": 52,
      "hit": false,
      "t": 306153.93800000404,
      "d": 384.61550000001444,
      "v": 100
    },
    {
      "midi": 55,
      "hit": false,
      "t": 306538.55350000405,
      "d": 384.61550000001444,
      "v": 100
    },
    {
      "midi": 59,
      "hit": false,
      "t": 306923.16900000407,
      "d": 384.61550000001444,
      "v": 100
    },
    {
      "midi": 64,
      "hit": false,
      "t": 307307.7845000041,
      "d": 384.61550000001444,
      "v": 100
    },
    {
      "midi": 51,
      "hit": false,
      "t": 307692.4000000027,
      "d": 1538.4619999999995,
      "v": 100
    },
    {
      "midi": 48,
      "hit": false,
      "t": 307692.4000000027,
      "d": 1538.4619999999995,
      "v": 100
    },
    {
      "midi": 63,
      "hit": false,
      "t": 307692.4000000041,
      "d": 384.61550000001444,
      "v": 100
    },
    {
      "midi": 51,
      "hit": false,
      "t": 308077.0155000041,
      "d": 384.61550000001444,
      "v": 100
    },
    {
      "midi": 56,
      "hit": false,
      "t": 308461.6310000041,
      "d": 384.61550000001444,
      "v": 100
    },
    {
      "midi": 58,
      "hit": false,
      "t": 308846.24650000414,
      "d": 384.61550000001444,
      "v": 100
    },
    {
      "midi": 53,
      "hit": false,
      "t": 309230.8620000027,
      "d": 384.61550000001444,
      "v": 100
    },
    {
      "midi": 50,
      "hit": false,
      "t": 309230.8620000027,
      "d": 769.2310000000289,
      "v": 100
    },
    {
      "midi": 65,
      "hit": false,
      "t": 309230.86200000416,
      "d": 769.2310000000289,
      "v": 100
    },
    {
      "midi": 62,
      "hit": false,
      "t": 309230.86200000416,
      "d": 769.2310000000289,
      "v": 100
    },
    {
      "midi": 52,
      "hit": false,
      "t": 310000.09300000273,
      "d": 384.61550000001444,
      "v": 100
    },
    {
      "midi": 48,
      "hit": false,
      "t": 310000.09300000273,
      "d": 384.61550000001444,
      "v": 100
    },
    {
      "midi": 64,
      "hit": false,
      "t": 310000.0930000042,
      "d": 384.61550000001444,
      "v": 100
    },
    {
      "midi": 60,
      "hit": false,
      "t": 310000.0930000042,
      "d": 769.2310000000289,
      "v": 100
    },
    {
      "midi": 55,
      "hit": false,
      "t": 310384.7085000042,
      "d": 384.61550000001444,
      "v": 100
    },
    {
      "midi": 48,
      "hit": false,
      "t": 310769.3240000042,
      "d": 384.61550000001444,
      "v": 100
    },
    {
      "midi": 52,
      "hit": false,
      "t": 311153.9395000042,
      "d": 384.61550000001444,
      "v": 100
    },
    {
      "midi": 55,
      "hit": false,
      "t": 311538.55500000424,
      "d": 384.61550000001444,
      "v": 100
    },
    {
      "midi": 60,
      "hit": false,
      "t": 311923.17050000426,
      "d": 384.61550000001444,
      "v": 100
    },
    {
      "midi": 64,
      "hit": false,
      "t": 312307.7860000043,
      "d": 384.61550000001444,
      "v": 100
    },
    {
      "midi": 67,
      "hit": false,
      "t": 312692.4015000043,
      "d": 384.61550000001444,
      "v": 100
    },
    {
      "midi": 72,
      "hit": false,
      "t": 313077.0170000043,
      "d": 384.61550000001444,
      "v": 100
    },
    {
      "midi": 76,
      "hit": false,
      "t": 313461.6325000043,
      "d": 384.61550000001444,
      "v": 100
    },
    {
      "midi": 79,
      "hit": false,
      "t": 313846.2480000043,
      "d": 384.61550000001444,
      "v": 100
    },
    {
      "midi": 84,
      "hit": false,
      "t": 314230.86350000434,
      "d": 5000.001500000013,
      "v": 100
    }
  ]
}