{
  "jsonPath": "Animes/Card Captor Sakura MIDI Collection/tomoyo-s-song.json",
  "path": "Animes\\Card Captor Sakura MIDI Collection\\Tomoyo's Song.mid",
  "name": "Tomoyo's Song",
  "difficulty": "Advanced",
  "bpm": 132.000132000132,
  "notes": [
    {
      "midi": 79,
      "hit": false,
      "t": 0,
      "d": 610.79484375,
      "v": 88
    },
    {
      "midi": 71,
      "hit": false,
      "t": 0,
      "d": 1226.3245312499998,
      "v": 88
    },
    {
      "midi": 79,
      "hit": false,
      "t": 681.8175,
      "d": 203.59828125,
      "v": 88
    },
    {
      "midi": 76,
      "hit": false,
      "t": 909.09,
      "d": 203.59828125,
      "v": 88
    },
    {
      "midi": 72,
      "hit": false,
      "t": 1136.3625,
      "d": 89.96203124999988,
      "v": 88
    },
    {
      "midi": 76,
      "hit": false,
      "t": 1363.6349999999998,
      "d": 610.7948437499999,
      "v": 88
    },
    {
      "midi": 67,
      "hit": false,
      "t": 1363.6349999999998,
      "d": 1226.3245312499998,
      "v": 88
    },
    {
      "midi": 76,
      "hit": false,
      "t": 2045.4524999999996,
      "d": 203.5982812499999,
      "v": 88
    },
    {
      "midi": 72,
      "hit": false,
      "t": 2272.7249999999995,
      "d": 203.59828125000013,
      "v": 88
    },
    {
      "midi": 69,
      "hit": false,
      "t": 2499.9974999999995,
      "d": 89.96203125000011,
      "v": 88
    },
    {
      "midi": 84,
      "hit": false,
      "t": 2727.2699999999995,
      "d": 610.7948437499999,
      "v": 88
    },
    {
      "midi": 69,
      "hit": false,
      "t": 2727.2699999999995,
      "d": 1226.3245312500003,
      "v": 88
    },
    {
      "midi": 65,
      "hit": false,
      "t": 2727.2699999999995,
      "d": 1226.3245312500003,
      "v": 88
    },
    {
      "midi": 64,
      "hit": false,
      "t": 2727.2699999999995,
      "d": 1226.3245312500003,
      "v": 88
    },
    {
      "midi": 84,
      "hit": false,
      "t": 3409.0874999999996,
      "d": 203.59828125000013,
      "v": 88
    },
    {
      "midi": 81,
      "hit": false,
      "t": 3636.3599999999997,
      "d": 203.59828125000013,
      "v": 88
    },
    {
      "midi": 77,
      "hit": false,
      "t": 3863.6324999999997,
      "d": 203.59828125000013,
      "v": 88
    },
    {
      "midi": 81,
      "hit": false,
      "t": 4090.9049999999997,
      "d": 610.7948437499999,
      "v": 88
    },
    {
      "midi": 65,
      "hit": false,
      "t": 4090.9049999999997,
      "d": 1226.3245312500003,
      "v": 88
    },
    {
      "midi": 62,
      "hit": false,
      "t": 4090.9049999999997,
      "d": 1226.3245312500003,
      "v": 88
    },
    {
      "midi": 60,
      "hit": false,
      "t": 4090.9049999999997,
      "d": 1226.3245312500003,
      "v": 88
    },
    {
      "midi": 81,
      "hit": false,
      "t": 4772.7225,
      "d": 203.59828124999967,
      "v": 88
    },
    {
      "midi": 77,
      "hit": false,
      "t": 4999.995,
      "d": 203.59828124999967,
      "v": 88
    },
    {
      "midi": 74,
      "hit": false,
      "t": 5227.2675,
      "d": 203.59828124999967,
      "v": 88
    },
    {
      "midi": 77,
      "hit": false,
      "t": 5454.54,
      "d": 203.59828124999967,
      "v": 88
    },
    {
      "midi": 58,
      "hit": false,
      "t": 5454.54,
      "d": 407.19656250000025,
      "v": 88
    },
    {
      "midi": 76,
      "hit": false,
      "t": 5681.8125,
      "d": 203.59828125000058,
      "v": 88
    },
    {
      "midi": 74,
      "hit": false,
      "t": 5909.085000000001,
      "d": 203.59828124999967,
      "v": 88
    },
    {
      "midi": 62,
      "hit": false,
      "t": 5909.085000000001,
      "d": 407.19656250000025,
      "v": 88
    },
    {
      "midi": 76,
      "hit": false,
      "t": 6136.357500000001,
      "d": 203.59828125000058,
      "v": 88
    },
    {
      "midi": 77,
      "hit": false,
      "t": 6363.630000000002,
      "d": 203.59828124999967,
      "v": 88
    },
    {
      "midi": 65,
      "hit": false,
      "t": 6363.630000000002,
      "d": 407.19656250000025,
      "v": 88
    },
    {
      "midi": 79,
      "hit": false,
      "t": 6590.902500000002,
      "d": 203.59828125000058,
      "v": 88
    },
    {
      "midi": 57,
      "hit": false,
      "t": 6818.175000000003,
      "d": 407.19656250000025,
      "v": 88
    },
    {
      "midi": 81,
      "hit": false,
      "t": 6818.175000000003,
      "d": 814.3931250000005,
      "v": 88
    },
    {
      "midi": 60,
      "hit": false,
      "t": 7272.720000000003,
      "d": 407.19656250000025,
      "v": 88
    },
    {
      "midi": 83,
      "hit": false,
      "t": 7727.265000000003,
      "d": 407.19656250000025,
      "v": 88
    },
    {
      "midi": 64,
      "hit": false,
      "t": 7727.265000000003,
      "d": 407.19656250000025,
      "v": 88
    },
    {
      "midi": 62,
      "hit": false,
      "t": 8181.810000000003,
      "d": 407.19656249999935,
      "v": 88
    },
    {
      "midi": 84,
      "hit": false,
      "t": 8181.810000000003,
      "d": 610.7948437499999,
      "v": 88
    },
    {
      "midi": 65,
      "hit": false,
      "t": 8636.355000000003,
      "d": 407.19656249999935,
      "v": 88
    },
    {
      "midi": 81,
      "hit": false,
      "t": 8863.627500000002,
      "d": 203.59828125000058,
      "v": 88
    },
    {
      "midi": 77,
      "hit": false,
      "t": 9090.900000000003,
      "d": 203.59828125000058,
      "v": 88
    },
    {
      "midi": 69,
      "hit": false,
      "t": 9090.900000000003,
      "d": 407.19656250000116,
      "v": 88
    },
    {
      "midi": 72,
      "hit": false,
      "t": 9318.172500000004,
      "d": 203.59828125000058,
      "v": 88
    },
    {
      "midi": 76,
      "hit": false,
      "t": 9545.445000000005,
      "d": 814.3931250000005,
      "v": 88
    },
    {
      "midi": 71,
      "hit": false,
      "t": 9545.445000000005,
      "d": 1226.3245312500003,
      "v": 88
    },
    {
      "midi": 65,
      "hit": false,
      "t": 9545.445000000005,
      "d": 1226.3245312500003,
      "v": 88
    },
    {
      "midi": 55,
      "hit": false,
      "t": 9545.445000000005,
      "d": 1226.3245312500003,
      "v": 88
    },
    {
      "midi": 74,
      "hit": false,
      "t": 10454.535000000005,
      "d": 407.19656249999935,
      "v": 88
    },
    {
      "midi": 60,
      "hit": false,
      "t": 10909.080000000005,
      "d": 407.19656249999935,
      "v": 88
    },
    {
      "midi": 72,
      "hit": false,
      "t": 10909.080000000005,
      "d": 1226.3245312500003,
      "v": 88
    },
    {
      "midi": 64,
      "hit": false,
      "t": 11363.625000000005,
      "d": 407.19656249999935,
      "v": 88
    },
    {
      "midi": 67,
      "hit": false,
      "t": 11818.170000000006,
      "d": 407.19656249999935,
      "v": 88
    },
    {
      "midi": 60,
      "hit": false,
      "t": 12272.715000000006,
      "d": 407.19656249999935,
      "v": 88
    },
    {
      "midi": 74,
      "hit": false,
      "t": 12272.715000000006,
      "d": 1226.3245312500003,
      "v": 88
    },
    {
      "midi": 65,
      "hit": false,
      "t": 12727.260000000006,
      "d": 407.19656249999935,
      "v": 88
    },
    {
      "midi": 69,
      "hit": false,
      "t": 13181.805000000006,
      "d": 407.19656249999935,
      "v": 88
    },
    {
      "midi": 60,
      "hit": false,
      "t": 13636.350000000006,
      "d": 407.19656249999935,
      "v": 88
    },
    {
      "midi": 76,
      "hit": false,
      "t": 13636.350000000006,
      "d": 1226.3245312500003,
      "v": 88
    },
    {
      "midi": 67,
      "hit": false,
      "t": 14090.895000000006,
      "d": 407.19656249999935,
      "v": 88
    },
    {
      "midi": 71,
      "hit": false,
      "t": 14545.440000000006,
      "d": 407.19656249999935,
      "v": 88
    },
    {
      "midi": 60,
      "hit": false,
      "t": 14999.985000000006,
      "d": 407.19656249999935,
      "v": 88
    },
    {
      "midi": 74,
      "hit": false,
      "t": 14999.985000000006,
      "d": 814.3931250000005,
      "v": 88
    },
    {
      "midi": 65,
      "hit": false,
      "t": 15454.530000000006,
      "d": 407.19656250000116,
      "v": 88
    },
    {
      "midi": 67,
      "hit": false,
      "t": 15909.075000000008,
      "d": 407.19656249999935,
      "v": 88
    },
    {
      "midi": 60,
      "hit": false,
      "t": 16363.620000000008,
      "d": 407.19656249999935,
      "v": 88
    },
    {
      "midi": 76,
      "hit": false,
      "t": 16363.620000000008,
      "d": 814.3931250000005,
      "v": 88
    },
    {
      "midi": 64,
      "hit": false,
      "t": 16818.165000000008,
      "d": 407.19656250000116,
      "v": 88
    },
    {
      "midi": 72,
      "hit": false,
      "t": 17272.71000000001,
      "d": 407.19656250000116,
      "v": 88
    },
    {
      "midi": 67,
      "hit": false,
      "t": 17272.71000000001,
      "d": 407.19656250000116,
      "v": 88
    },
    {
      "midi": 60,
      "hit": false,
      "t": 17727.255000000012,
      "d": 407.19656250000116,
      "v": 88
    },
    {
      "midi": 74,
      "hit": false,
      "t": 17727.255000000012,
      "d": 814.3931250000023,
      "v": 88
    },
    {
      "midi": 65,
      "hit": false,
      "t": 18181.800000000014,
      "d": 407.19656250000116,
      "v": 88
    },
    {
      "midi": 72,
      "hit": false,
      "t": 18636.345000000016,
      "d": 203.59828125000058,
      "v": 88
    },
    {
      "midi": 69,
      "hit": false,
      "t": 18636.345000000016,
      "d": 407.1965624999975,
      "v": 88
    },
    {
      "midi": 74,
      "hit": false,
      "t": 18863.617500000015,
      "d": 203.59828124999694,
      "v": 88
    },
    {
      "midi": 76,
      "hit": false,
      "t": 19090.89000000001,
      "d": 407.19656250000116,
      "v": 88
    },
    {
      "midi": 60,
      "hit": false,
      "t": 19090.89000000001,
      "d": 407.19656250000116,
      "v": 88
    },
    {
      "midi": 74,
      "hit": false,
      "t": 19545.435000000012,
      "d": 407.19656250000116,
      "v": 88
    },
    {
      "midi": 64,
      "hit": false,
      "t": 19545.435000000012,
      "d": 407.19656250000116,
      "v": 88
    },
    {
      "midi": 72,
      "hit": false,
      "t": 19999.980000000014,
      "d": 407.19656250000116,
      "v": 88
    },
    {
      "midi": 67,
      "hit": false,
      "t": 19999.980000000014,
      "d": 407.19656250000116,
      "v": 88
    },
    {
      "midi": 53,
      "hit": false,
      "t": 20454.525000000016,
      "d": 407.19656250000116,
      "v": 88
    },
    {
      "midi": 69,
      "hit": false,
      "t": 20454.525000000016,
      "d": 1226.324531250004,
      "v": 88
    },
    {
      "midi": 57,
      "hit": false,
      "t": 20909.070000000018,
      "d": 407.19656250000116,
      "v": 88
    },
    {
      "midi": 62,
      "hit": false,
      "t": 21363.61500000002,
      "d": 407.19656250000116,
      "v": 88
    },
    {
      "midi": 52,
      "hit": false,
      "t": 21818.16000000002,
      "d": 407.19656250000116,
      "v": 88
    },
    {
      "midi": 67,
      "hit": false,
      "t": 21818.16000000002,
      "d": 610.7948437500017,
      "v": 88
    },
    {
      "midi": 55,
      "hit": false,
      "t": 22272.705000000024,
      "d": 407.1965624999975,
      "v": 88
    },
    {
      "midi": 67,
      "hit": false,
      "t": 22499.977500000023,
      "d": 203.59828124999694,
      "v": 88
    },
    {
      "midi": 72,
      "hit": false,
      "t": 22727.25000000002,
      "d": 203.59828125000058,
      "v": 88
    },
    {
      "midi": 60,
      "hit": false,
      "t": 22727.25000000002,
      "d": 407.1965624999975,
      "v": 88
    },
    {
      "midi": 67,
      "hit": false,
      "t": 22954.522500000017,
      "d": 203.59828124999694,
      "v": 88
    },
    {
      "midi": 69,
      "hit": false,
      "t": 23181.795000000013,
      "d": 407.19656250000116,
      "v": 88
    },
    {
      "midi": 53,
      "hit": false,
      "t": 23181.795000000013,
      "d": 407.19656250000116,
      "v": 88
    },
    {
      "midi": 72,
      "hit": false,
      "t": 23636.340000000015,
      "d": 407.19656250000116,
      "v": 88
    },
    {
      "midi": 57,
      "hit": false,
      "t": 23636.340000000015,
      "d": 407.19656250000116,
      "v": 88
    },
    {
      "midi": 81,
      "hit": false,
      "t": 24090.885000000017,
      "d": 407.19656250000116,
      "v": 88
    },
    {
      "midi": 60,
      "hit": false,
      "t": 24090.885000000017,
      "d": 407.19656250000116,
      "v": 88
    },
    {
      "midi": 52,
      "hit": false,
      "t": 24545.43000000002,
      "d": 407.19656250000116,
      "v": 88
    },
    {
      "midi": 79,
      "hit": false,
      "t": 24545.43000000002,
      "d": 814.3931250000023,
      "v": 88
    },
    {
      "midi": 55,
      "hit": false,
      "t": 24999.97500000002,
      "d": 407.19656250000116,
      "v": 88
    },
    {
      "midi": 76,
      "hit": false,
      "t": 25454.520000000022,
      "d": 407.19656250000116,
      "v": 88
    },
    {
      "midi": 60,
      "hit": false,
      "t": 25454.520000000022,
      "d": 407.19656250000116,
      "v": 88
    },
    {
      "midi": 77,
      "hit": false,
      "t": 25909.065000000024,
      "d": 407.19656250000116,
      "v": 88
    },
    {
      "midi": 50,
      "hit": false,
      "t": 25909.065000000024,
      "d": 407.19656250000116,
      "v": 88
    },
    {
      "midi": 76,
      "hit": false,
      "t": 26363.610000000026,
      "d": 407.19656250000116,
      "v": 88
    },
    {
      "midi": 53,
      "hit": false,
      "t": 26363.610000000026,
      "d": 407.19656250000116,
      "v": 88
    },
    {
      "midi": 72,
      "hit": false,
      "t": 26818.155000000028,
      "d": 454.54499999999825,
      "v": 88
    },
    {
      "midi": 57,
      "hit": false,
      "t": 26818.155000000028,
      "d": 454.54499999999825,
      "v": 88
    },
    {
      "midi": 55,
      "hit": false,
      "t": 27272.700000000026,
      "d": 203.59828125000058,
      "v": 88
    },
    {
      "midi": 74,
      "hit": false,
      "t": 27272.700000000026,
      "d": 814.3931249999987,
      "v": 88
    },
    {
      "midi": 60,
      "hit": false,
      "t": 27499.972500000025,
      "d": 227.27249999999913,
      "v": 88
    },
    {
      "midi": 62,
      "hit": false,
      "t": 27727.245000000024,
      "d": 227.27249999999913,
      "v": 88
    },
    {
      "midi": 65,
      "hit": false,
      "t": 27954.517500000024,
      "d": 227.27250000000276,
      "v": 88
    },
    {
      "midi": 69,
      "hit": false,
      "t": 28181.790000000026,
      "d": 227.27249999999913,
      "v": 88
    },
    {
      "midi": 72,
      "hit": false,
      "t": 28409.062500000025,
      "d": 227.27250000000276,
      "v": 88
    },
    {
      "midi": 76,
      "hit": false,
      "t": 28636.33500000003,
      "d": 407.19656250000116,
      "v": 88
    },
    {
      "midi": 55,
      "hit": false,
      "t": 28636.33500000003,
      "d": 1226.324531250004,
      "v": 88
    },
    {
      "midi": 72,
      "hit": false,
      "t": 29090.88000000003,
      "d": 407.19656250000116,
      "v": 88
    },
    {
      "midi": 81,
      "hit": false,
      "t": 29545.425000000032,
      "d": 407.19656250000116,
      "v": 88
    },
    {
      "midi": 79,
      "hit": false,
      "t": 29999.970000000034,
      "d": 407.19656250000116,
      "v": 88
    },
    {
      "midi": 71,
      "hit": false,
      "t": 29999.970000000034,
      "d": 407.19656250000116,
      "v": 88
    },
    {
      "midi": 65,
      "hit": false,
      "t": 29999.970000000034,
      "d": 407.19656250000116,
      "v": 88
    },
    {
      "midi": 55,
      "hit": false,
      "t": 29999.970000000034,
      "d": 407.19656250000116,
      "v": 88
    },
    {
      "midi": 76,
      "hit": false,
      "t": 30909.060000000034,
      "d": 203.59828125000058,
      "v": 88
    },
    {
      "midi": 72,
      "hit": false,
      "t": 30909.060000000034,
      "d": 203.59828125000058,
      "v": 88
    },
    {
      "midi": 77,
      "hit": false,
      "t": 31136.332500000033,
      "d": 203.59828125000058,
      "v": 88
    },
    {
      "midi": 74,
      "hit": false,
      "t": 31136.332500000033,
      "d": 203.59828125000058,
      "v": 88
    },
    {
      "midi": 79,
      "hit": false,
      "t": 31363.605000000032,
      "d": 407.19656250000116,
      "v": 88
    },
    {
      "midi": 76,
      "hit": false,
      "t": 31363.605000000032,
      "d": 407.19656250000116,
      "v": 88
    },
    {
      "midi": 69,
      "hit": false,
      "t": 31363.605000000032,
      "d": 1226.324531250004,
      "v": 88
    },
    {
      "midi": 65,
      "hit": false,
      "t": 31363.605000000032,
      "d": 1226.324531250004,
      "v": 88
    },
    {
      "midi": 77,
      "hit": false,
      "t": 31818.150000000034,
      "d": 407.19656250000116,
      "v": 88
    },
    {
      "midi": 74,
      "hit": false,
      "t": 31818.150000000034,
      "d": 407.19656250000116,
      "v": 88
    },
    {
      "midi": 76,
      "hit": false,
      "t": 32272.695000000036,
      "d": 407.19656250000116,
      "v": 88
    },
    {
      "midi": 72,
      "hit": false,
      "t": 32272.695000000036,
      "d": 407.19656250000116,
      "v": 88
    },
    {
      "midi": 60,
      "hit": false,
      "t": 32727.240000000038,
      "d": 407.1965624999975,
      "v": 88
    },
    {
      "midi": 76,
      "hit": false,
      "t": 32727.240000000038,
      "d": 1226.3245312499894,
      "v": 88
    },
    {
      "midi": 72,
      "hit": false,
      "t": 32727.240000000038,
      "d": 1226.3245312499894,
      "v": 88
    },
    {
      "midi": 64,
      "hit": false,
      "t": 33181.78500000003,
      "d": 407.19656250000116,
      "v": 88
    },
    {
      "midi": 67,
      "hit": false,
      "t": 33636.33000000003,
      "d": 407.1965624999939,
      "v": 88
    },
    {
      "midi": 60,
      "hit": false,
      "t": 34090.87500000002,
      "d": 407.19656250000116,
      "v": 88
    },
    {
      "midi": 77,
      "hit": false,
      "t": 34090.87500000002,
      "d": 1226.324531249993,
      "v": 88
    },
    {
      "midi": 74,
      "hit": false,
      "t": 34090.87500000002,
      "d": 1226.324531249993,
      "v": 88
    },
    {
      "midi": 65,
      "hit": false,
      "t": 34545.42000000002,
      "d": 407.19656250000116,
      "v": 88
    },
    {
      "midi": 69,
      "hit": false,
      "t": 34999.96500000002,
      "d": 407.1965624999939,
      "v": 88
    },
    {
      "midi": 60,
      "hit": false,
      "t": 35454.51000000001,
      "d": 407.19656250000116,
      "v": 88
    },
    {
      "midi": 79,
      "hit": false,
      "t": 35454.51000000001,
      "d": 1226.324531249993,
      "v": 88
    },
    {
      "midi": 76,
      "hit": false,
      "t": 35454.51000000001,
      "d": 1226.324531249993,
      "v": 88
    },
    {
      "midi": 67,
      "hit": false,
      "t": 35909.05500000001,
      "d": 407.19656250000116,
      "v": 88
    },
    {
      "midi": 71,
      "hit": false,
      "t": 36363.600000000006,
      "d": 407.1965624999939,
      "v": 88
    },
    {
      "midi": 60,
      "hit": false,
      "t": 36818.145,
      "d": 407.19656250000116,
      "v": 88
    },
    {
      "midi": 77,
      "hit": false,
      "t": 36818.145,
      "d": 814.393124999995,
      "v": 88
    },
    {
      "midi": 74,
      "hit": false,
      "t": 36818.145,
      "d": 814.393124999995,
      "v": 88
    },
    {
      "midi": 65,
      "hit": false,
      "t": 37272.689999999995,
      "d": 407.1965624999939,
      "v": 88
    },
    {
      "midi": 67,
      "hit": false,
      "t": 37727.234999999986,
      "d": 407.19656250000116,
      "v": 88
    },
    {
      "midi": 60,
      "hit": false,
      "t": 38181.779999999984,
      "d": 407.19656250000116,
      "v": 88
    },
    {
      "midi": 76,
      "hit": false,
      "t": 38181.779999999984,
      "d": 814.3931250000023,
      "v": 88
    },
    {
      "midi": 64,
      "hit": false,
      "t": 38409.05249999998,
      "d": 407.19656250000116,
      "v": 88
    },
    {
      "midi": 72,
      "hit": false,
      "t": 38636.32499999998,
      "d": 407.19656250000116,
      "v": 88
    },
    {
      "midi": 67,
      "hit": false,
      "t": 38636.32499999998,
      "d": 407.19656250000116,
      "v": 88
    },
    {
      "midi": 60,
      "hit": false,
      "t": 39090.86999999998,
      "d": 407.19656250000116,
      "v": 88
    },
    {
      "midi": 74,
      "hit": false,
      "t": 39090.86999999998,
      "d": 814.393124999995,
      "v": 88
    },
    {
      "midi": 65,
      "hit": false,
      "t": 39545.41499999998,
      "d": 407.1965624999939,
      "v": 88
    },
    {
      "midi": 72,
      "hit": false,
      "t": 39999.95999999997,
      "d": 203.59828125000058,
      "v": 88
    },
    {
      "midi": 69,
      "hit": false,
      "t": 39999.95999999997,
      "d": 407.19656250000116,
      "v": 88
    },
    {
      "midi": 74,
      "hit": false,
      "t": 40227.23249999997,
      "d": 203.59828125000058,
      "v": 88
    },
    {
      "midi": 76,
      "hit": false,
      "t": 40454.50499999997,
      "d": 407.19656250000116,
      "v": 88
    },
    {
      "midi": 60,
      "hit": false,
      "t": 40454.50499999997,
      "d": 407.19656250000116,
      "v": 88
    },
    {
      "midi": 74,
      "hit": false,
      "t": 40909.04999999997,
      "d": 407.19656250000116,
      "v": 88
    },
    {
      "midi": 64,
      "hit": false,
      "t": 40909.04999999997,
      "d": 407.19656250000116,
      "v": 88
    },
    {
      "midi": 72,
      "hit": false,
      "t": 41363.594999999965,
      "d": 407.19656250000116,
      "v": 88
    },
    {
      "midi": 67,
      "hit": false,
      "t": 41363.594999999965,
      "d": 407.19656250000116,
      "v": 88
    },
    {
      "midi": 53,
      "hit": false,
      "t": 41818.13999999996,
      "d": 407.19656250000116,
      "v": 88
    },
    {
      "midi": 69,
      "hit": false,
      "t": 41818.13999999996,
      "d": 1226.324531249993,
      "v": 88
    },
    {
      "midi": 57,
      "hit": false,
      "t": 42272.68499999996,
      "d": 407.19656250000116,
      "v": 88
    },
    {
      "midi": 62,
      "hit": false,
      "t": 42727.22999999996,
      "d": 407.1965624999939,
      "v": 88
    },
    {
      "midi": 52,
      "hit": false,
      "t": 43181.77499999995,
      "d": 407.19656250000116,
      "v": 88
    },
    {
      "midi": 67,
      "hit": false,
      "t": 43181.77499999995,
      "d": 610.7948437500017,
      "v": 88
    },
    {
      "midi": 55,
      "hit": false,
      "t": 43636.31999999995,
      "d": 407.19656250000844,
      "v": 88
    },
    {
      "midi": 67,
      "hit": false,
      "t": 43863.592499999955,
      "d": 203.59828125000058,
      "v": 88
    },
    {
      "midi": 72,
      "hit": false,
      "t": 44090.864999999954,
      "d": 203.59828125000058,
      "v": 88
    },
    {
      "midi": 60,
      "hit": false,
      "t": 44090.864999999954,
      "d": 407.19656250000116,
      "v": 88
    },
    {
      "midi": 67,
      "hit": false,
      "t": 44318.13749999995,
      "d": 203.59828125000058,
      "v": 88
    },
    {
      "midi": 69,
      "hit": false,
      "t": 44545.40999999995,
      "d": 407.19656250000116,
      "v": 88
    },
    {
      "midi": 53,
      "hit": false,
      "t": 44545.40999999995,
      "d": 407.19656250000116,
      "v": 88
    },
    {
      "midi": 72,
      "hit": false,
      "t": 44999.95499999995,
      "d": 407.19656250000116,
      "v": 88
    },
    {
      "midi": 57,
      "hit": false,
      "t": 44999.95499999995,
      "d": 407.19656250000116,
      "v": 88
    },
    {
      "midi": 74,
      "hit": false,
      "t": 45454.49999999995,
      "d": 407.19656250000116,
      "v": 88
    },
    {
      "midi": 60,
      "hit": false,
      "t": 45454.49999999995,
      "d": 407.19656250000116,
      "v": 88
    },
    {
      "midi": 76,
      "hit": false,
      "t": 45909.04499999995,
      "d": 407.19656250000116,
      "v": 88
    },
    {
      "midi": 52,
      "hit": false,
      "t": 45909.04499999995,
      "d": 407.19656250000116,
      "v": 88
    },
    {
      "midi": 56,
      "hit": false,
      "t": 46363.589999999946,
      "d": 407.19656250000116,
      "v": 88
    },
    {
      "midi": 76,
      "hit": false,
      "t": 46818.134999999944,
      "d": 407.19656250000116,
      "v": 88
    },
    {
      "midi": 59,
      "hit": false,
      "t": 46818.134999999944,
      "d": 407.19656250000116,
      "v": 88
    },
    {
      "midi": 76,
      "hit": false,
      "t": 47272.67999999994,
      "d": 407.19656250000116,
      "v": 88
    },
    {
      "midi": 48,
      "hit": false,
      "t": 47272.67999999994,
      "d": 407.19656250000116,
      "v": 88
    },
    {
      "midi": 77,
      "hit": false,
      "t": 47727.22499999994,
      "d": 407.19656250000116,
      "v": 88
    },
    {
      "midi": 55,
      "hit": false,
      "t": 47727.22499999994,
      "d": 407.19656250000116,
      "v": 88
    },
    {
      "midi": 79,
      "hit": false,
      "t": 48181.76999999994,
      "d": 407.19656250000116,
      "v": 88
    },
    {
      "midi": 58,
      "hit": false,
      "t": 48181.76999999994,
      "d": 407.19656250000116,
      "v": 88
    },
    {
      "midi": 53,
      "hit": false,
      "t": 48636.31499999994,
      "d": 407.19656250000116,
      "v": 88
    },
    {
      "midi": 81,
      "hit": false,
      "t": 48636.31499999994,
      "d": 814.393124999995,
      "v": 88
    },
    {
      "midi": 57,
      "hit": false,
      "t": 49090.859999999935,
      "d": 407.1965624999939,
      "v": 88
    },
    {
      "midi": 72,
      "hit": false,
      "t": 49545.404999999926,
      "d": 407.19656250000116,
      "v": 88
    },
    {
      "midi": 60,
      "hit": false,
      "t": 49545.404999999926,
      "d": 407.19656250000116,
      "v": 88
    },
    {
      "midi": 72,
      "hit": false,
      "t": 49999.949999999924,
      "d": 1226.3245312500003,
      "v": 88
    },
    {
      "midi": 65,
      "hit": false,
      "t": 49999.949999999924,
      "d": 1226.3245312500003,
      "v": 88
    },
    {
      "midi": 53,
      "hit": false,
      "t": 51363.58499999993,
      "d": 407.19656250000116,
      "v": 88
    },
    {
      "midi": 79,
      "hit": false,
      "t": 51818.129999999925,
      "d": 407.19656250000116,
      "v": 88
    },
    {
      "midi": 56,
      "hit": false,
      "t": 51818.129999999925,
      "d": 407.19656250000116,
      "v": 88
    },
    {
      "midi": 77,
      "hit": false,
      "t": 52272.67499999992,
      "d": 407.19656250000116,
      "v": 88
    },
    {
      "midi": 60,
      "hit": false,
      "t": 52272.67499999992,
      "d": 407.19656250000116,
      "v": 88
    },
    {
      "midi": 65,
      "hit": false,
      "t": 52727.21999999992,
      "d": 407.19656250000116,
      "v": 88
    },
    {
      "midi": 72,
      "hit": false,
      "t": 52727.21999999992,
      "d": 814.393124999995,
      "v": 88
    },
    {
      "midi": 67,
      "hit": false,
      "t": 53181.76499999992,
      "d": 407.1965624999939,
      "v": 88
    },
    {
      "midi": 72,
      "hit": false,
      "t": 53636.30999999991,
      "d": 227.27249999999913,
      "v": 88
    },
    {
      "midi": 65,
      "hit": false,
      "t": 53636.30999999991,
      "d": 454.54499999999825,
      "v": 88
    },
    {
      "midi": 74,
      "hit": false,
      "t": 53863.58249999991,
      "d": 203.59828125000058,
      "v": 88
    },
    {
      "midi": 76,
      "hit": false,
      "t": 54090.85499999991,
      "d": 814.3931250000023,
      "v": 88
    },
    {
      "midi": 64,
      "hit": false,
      "t": 54090.85499999991,
      "d": 1226.3245312500003,
      "v": 88
    },
    {
      "midi": 79,
      "hit": false,
      "t": 54999.94499999991,
      "d": 407.1965624999939,
      "v": 88
    },
    {
      "midi": 77,
      "hit": false,
      "t": 55454.4899999999,
      "d": 610.7948437500017,
      "v": 88
    },
    {
      "midi": 62,
      "hit": false,
      "t": 55454.4899999999,
      "d": 1226.3245312500003,
      "v": 88
    },
    {
      "midi": 76,
      "hit": false,
      "t": 56136.30749999991,
      "d": 203.59828125000058,
      "v": 88
    },
    {
      "midi": 74,
      "hit": false,
      "t": 56363.57999999991,
      "d": 203.59828125000058,
      "v": 88
    },
    {
      "midi": 72,
      "hit": false,
      "t": 56590.852499999906,
      "d": 203.59828125000058,
      "v": 88
    },
    {
      "midi": 67,
      "hit": false,
      "t": 56818.124999999905,
      "d": 814.3931250000023,
      "v": 88
    },
    {
      "midi": 65,
      "hit": false,
      "t": 56818.124999999905,
      "d": 1226.3245312500003,
      "v": 88
    },
    {
      "midi": 59,
      "hit": false,
      "t": 56818.124999999905,
      "d": 1226.3245312500003,
      "v": 88
    },
    {
      "midi": 55,
      "hit": false,
      "t": 56818.124999999905,
      "d": 1226.3245312500003,
      "v": 88
    },
    {
      "midi": 74,
      "hit": false,
      "t": 57727.21499999991,
      "d": 407.1965624999939,
      "v": 88
    },
    {
      "midi": 54,
      "hit": false,
      "t": 58181.7599999999,
      "d": 407.19656250000116,
      "v": 88
    },
    {
      "midi": 72,
      "hit": false,
      "t": 58181.7599999999,
      "d": 814.393124999995,
      "v": 88
    },
    {
      "midi": 57,
      "hit": false,
      "t": 58636.3049999999,
      "d": 407.1965624999939,
      "v": 88
    },
    {
      "midi": 60,
      "hit": false,
      "t": 59090.84999999989,
      "d": 407.19656250000116,
      "v": 88
    },
    {
      "midi": 81,
      "hit": false,
      "t": 59545.39499999989,
      "d": 407.19656250000116,
      "v": 88
    },
    {
      "midi": 64,
      "hit": false,
      "t": 59545.39499999989,
      "d": 1226.324531249993,
      "v": 88
    },
    {
      "midi": 83,
      "hit": false,
      "t": 59999.939999999886,
      "d": 407.19656250000116,
      "v": 88
    },
    {
      "midi": 84,
      "hit": false,
      "t": 60454.484999999884,
      "d": 407.1965624999939,
      "v": 88
    },
    {
      "midi": 58,
      "hit": false,
      "t": 60909.029999999875,
      "d": 407.19656250000116,
      "v": 88
    },
    {
      "midi": 88,
      "hit": false,
      "t": 60909.029999999875,
      "d": 610.7948437500017,
      "v": 88
    },
    {
      "midi": 62,
      "hit": false,
      "t": 61363.57499999987,
      "d": 407.19656250000844,
      "v": 88
    },
    {
      "midi": 86,
      "hit": false,
      "t": 61590.84749999988,
      "d": 203.59828125000058,
      "v": 88
    },
    {
      "midi": 84,
      "hit": false,
      "t": 61818.11999999988,
      "d": 203.59828125000058,
      "v": 88
    },
    {
      "midi": 65,
      "hit": false,
      "t": 61818.11999999988,
      "d": 407.19656250000116,
      "v": 88
    },
    {
      "midi": 80,
      "hit": false,
      "t": 62045.39249999988,
      "d": 203.59828125000058,
      "v": 88
    },
    {
      "midi": 72,
      "hit": false,
      "t": 62272.66499999988,
      "d": 814.3931250000023,
      "v": 88
    },
    {
      "midi": 68,
      "hit": false,
      "t": 62272.66499999988,
      "d": 814.3931250000023,
      "v": 88
    },
    {
      "midi": 74,
      "hit": false,
      "t": 63181.75499999988,
      "d": 407.19656250000116,
      "v": 88
    },
    {
      "midi": 57,
      "hit": false,
      "t": 63636.29999999988,
      "d": 814.393124999995,
      "v": 88
    },
    {
      "midi": 76,
      "hit": false,
      "t": 64090.84499999988,
      "d": 681.8174999999974,
      "v": 88
    },
    {
      "midi": 60,
      "hit": false,
      "t": 64545.389999999876,
      "d": 407.19656250000116,
      "v": 88
    },
    {
      "midi": 76,
      "hit": false,
      "t": 64772.662499999875,
      "d": 203.59828125000058,
      "v": 88
    },
    {
      "midi": 59,
      "hit": false,
      "t": 64999.934999999874,
      "d": 407.19656250000116,
      "v": 88
    },
    {
      "midi": 76,
      "hit": false,
      "t": 64999.934999999874,
      "d": 1226.3245312499857,
      "v": 88
    },
    {
      "midi": 60,
      "hit": false,
      "t": 65454.47999999987,
      "d": 407.1965624999939,
      "v": 88
    },
    {
      "midi": 62,
      "hit": false,
      "t": 65909.02499999986,
      "d": 407.19656250000116,
      "v": 88
    },
    {
      "midi": 64,
      "hit": false,
      "t": 66363.56999999986,
      "d": 407.19656250000116,
      "v": 88
    },
    {
      "midi": 80,
      "hit": false,
      "t": 66818.11499999986,
      "d": 407.19656250000116,
      "v": 88
    },
    {
      "midi": 52,
      "hit": false,
      "t": 66818.11499999986,
      "d": 814.3931250000023,
      "v": 88
    },
    {
      "midi": 76,
      "hit": false,
      "t": 67272.65999999986,
      "d": 454.54499999999825,
      "v": 88
    },
    {
      "midi": 74,
      "hit": false,
      "t": 67727.20499999986,
      "d": 407.19656250000116,
      "v": 88
    },
    {
      "midi": 54,
      "hit": false,
      "t": 67727.20499999986,
      "d": 814.3931250000023,
      "v": 88
    },
    {
      "midi": 76,
      "hit": false,
      "t": 68181.74999999985,
      "d": 814.3931250000023,
      "v": 88
    },
    {
      "midi": 56,
      "hit": false,
      "t": 68636.29499999985,
      "d": 407.19656250000116,
      "v": 88
    },
    {
      "midi": 57,
      "hit": false,
      "t": 69090.83999999985,
      "d": 407.19656250000116,
      "v": 88
    },
    {
      "midi": 81,
      "hit": false,
      "t": 69090.83999999985,
      "d": 814.3931250000023,
      "v": 88
    },
    {
      "midi": 60,
      "hit": false,
      "t": 69545.38499999985,
      "d": 407.19656250000116,
      "v": 88
    },
    {
      "midi": 76,
      "hit": false,
      "t": 69999.92999999985,
      "d": 454.54499999999825,
      "v": 88
    },
    {
      "midi": 64,
      "hit": false,
      "t": 69999.92999999985,
      "d": 454.54499999999825,
      "v": 88
    },
    {
      "midi": 77,
      "hit": false,
      "t": 70454.47499999985,
      "d": 407.19656250000116,
      "v": 88
    },
    {
      "midi": 57,
      "hit": false,
      "t": 70454.47499999985,
      "d": 407.19656250000116,
      "v": 88
    },
    {
      "midi": 76,
      "hit": false,
      "t": 70909.01999999984,
      "d": 407.19656250000116,
      "v": 88
    },
    {
      "midi": 61,
      "hit": false,
      "t": 70909.01999999984,
      "d": 407.19656250000116,
      "v": 88
    },
    {
      "midi": 79,
      "hit": false,
      "t": 71363.56499999984,
      "d": 407.19656250000116,
      "v": 88
    },
    {
      "midi": 64,
      "hit": false,
      "t": 71363.56499999984,
      "d": 407.19656250000116,
      "v": 88
    },
    {
      "midi": 50,
      "hit": false,
      "t": 71818.10999999984,
      "d": 407.19656250000116,
      "v": 88
    },
    {
      "midi": 77,
      "hit": false,
      "t": 71818.10999999984,
      "d": 1226.324531249993,
      "v": 88
    },
    {
      "midi": 53,
      "hit": false,
      "t": 72272.65499999984,
      "d": 407.19656250000116,
      "v": 88
    },
    {
      "midi": 57,
      "hit": false,
      "t": 72727.19999999984,
      "d": 407.19656250000116,
      "v": 88
    },
    {
      "midi": 62,
      "hit": false,
      "t": 73181.74499999984,
      "d": 407.19656250000116,
      "v": 88
    },
    {
      "midi": 69,
      "hit": false,
      "t": 73181.74499999984,
      "d": 1226.324531249993,
      "v": 88
    },
    {
      "midi": 57,
      "hit": false,
      "t": 73636.28999999983,
      "d": 407.19656250000116,
      "v": 88
    },
    {
      "midi": 53,
      "hit": false,
      "t": 74090.83499999983,
      "d": 407.19656250000116,
      "v": 88
    },
    {
      "midi": 67,
      "hit": false,
      "t": 74545.37999999983,
      "d": 610.7948437500163,
      "v": 88
    },
    {
      "midi": 55,
      "hit": false,
      "t": 74772.65249999984,
      "d": 407.1965625000157,
      "v": 88
    },
    {
      "midi": 69,
      "hit": false,
      "t": 74999.92499999984,
      "d": 203.59828125001513,
      "v": 88
    },
    {
      "midi": 67,
      "hit": false,
      "t": 75227.19749999986,
      "d": 407.19656250000116,
      "v": 88
    },
    {
      "midi": 53,
      "hit": false,
      "t": 75227.19749999986,
      "d": 407.19656250000116,
      "v": 88
    },
    {
      "midi": 67,
      "hit": false,
      "t": 75681.74249999986,
      "d": 407.19656250000116,
      "v": 88
    },
    {
      "midi": 52,
      "hit": false,
      "t": 75681.74249999986,
      "d": 407.19656250000116,
      "v": 88
    },
    {
      "midi": 72,
      "hit": false,
      "t": 76136.28749999986,
      "d": 407.19656250000116,
      "v": 88
    },
    {
      "midi": 55,
      "hit": false,
      "t": 76136.28749999986,
      "d": 407.19656250000116,
      "v": 88
    },
    {
      "midi": 60,
      "hit": false,
      "t": 76590.83249999986,
      "d": 407.19656250000116,
      "v": 88
    },
    {
      "midi": 51,
      "hit": false,
      "t": 77045.37749999986,
      "d": 407.19656250000116,
      "v": 88
    },
    {
      "midi": 71,
      "hit": false,
      "t": 77045.37749999986,
      "d": 610.7948437500017,
      "v": 88
    },
    {
      "midi": 54,
      "hit": false,
      "t": 77499.92249999986,
      "d": 407.19656250000116,
      "v": 88
    },
    {
      "midi": 72,
      "hit": false,
      "t": 77727.19499999986,
      "d": 227.27249999999185,
      "v": 88
    },
    {
      "midi": 71,
      "hit": false,
      "t": 77954.46749999985,
      "d": 407.19656250000116,
      "v": 88
    },
    {
      "midi": 59,
      "hit": false,
      "t": 77954.46749999985,
      "d": 407.19656250000116,
      "v": 88
    },
    {
      "midi": 71,
      "hit": false,
      "t": 78409.01249999985,
      "d": 454.54499999999825,
      "v": 88
    },
    {
      "midi": 52,
      "hit": false,
      "t": 78409.01249999985,
      "d": 454.54499999999825,
      "v": 88
    },
    {
      "midi": 76,
      "hit": false,
      "t": 78863.55749999985,
      "d": 407.19656250000116,
      "v": 88
    },
    {
      "midi": 55,
      "hit": false,
      "t": 78863.55749999985,
      "d": 407.19656250000116,
      "v": 88
    },
    {
      "midi": 59,
      "hit": false,
      "t": 79318.10249999985,
      "d": 407.19656250000116,
      "v": 88
    },
    {
      "midi": 50,
      "hit": false,
      "t": 79772.64749999985,
      "d": 407.19656250000116,
      "v": 88
    },
    {
      "midi": 74,
      "hit": false,
      "t": 79772.64749999985,
      "d": 610.7948437500017,
      "v": 88
    },
    {
      "midi": 55,
      "hit": false,
      "t": 80227.19249999984,
      "d": 407.19656250000116,
      "v": 88
    },
    {
      "midi": 76,
      "hit": false,
      "t": 80454.46499999985,
      "d": 203.59828125000058,
      "v": 88
    },
    {
      "midi": 74,
      "hit": false,
      "t": 80681.73749999986,
      "d": 454.54499999999825,
      "v": 88
    },
    {
      "midi": 57,
      "hit": false,
      "t": 80681.73749999986,
      "d": 454.54499999999825,
      "v": 88
    },
    {
      "midi": 74,
      "hit": false,
      "t": 81136.28249999986,
      "d": 407.19656250000116,
      "v": 88
    },
    {
      "midi": 50,
      "hit": false,
      "t": 81136.28249999986,
      "d": 407.19656250000116,
      "v": 88
    },
    {
      "midi": 76,
      "hit": false,
      "t": 81590.82749999985,
      "d": 407.19656250000116,
      "v": 88
    },
    {
      "midi": 57,
      "hit": false,
      "t": 81590.82749999985,
      "d": 407.19656250000116,
      "v": 88
    },
    {
      "midi": 78,
      "hit": false,
      "t": 82045.37249999985,
      "d": 407.19656250000116,
      "v": 88
    },
    {
      "midi": 60,
      "hit": false,
      "t": 82045.37249999985,
      "d": 407.19656250000116,
      "v": 88
    },
    {
      "midi": 81,
      "hit": false,
      "t": 82499.91749999985,
      "d": 407.19656250000116,
      "v": 88
    },
    {
      "midi": 55,
      "hit": false,
      "t": 82499.91749999985,
      "d": 407.19656250000116,
      "v": 88
    },
    {
      "midi": 60,
      "hit": false,
      "t": 82954.46249999985,
      "d": 407.19656250000116,
      "v": 88
    },
    {
      "midi": 79,
      "hit": false,
      "t": 82954.46249999985,
      "d": 610.7948437500017,
      "v": 88
    },
    {
      "midi": 62,
      "hit": false,
      "t": 83409.00749999985,
      "d": 407.19656250000116,
      "v": 88
    },
    {
      "midi": 81,
      "hit": false,
      "t": 83636.27999999985,
      "d": 203.59828125000058,
      "v": 88
    },
    {
      "midi": 76,
      "hit": false,
      "t": 83863.55249999986,
      "d": 407.19656250000116,
      "v": 88
    },
    {
      "midi": 55,
      "hit": false,
      "t": 83863.55249999986,
      "d": 407.19656250000116,
      "v": 88
    },
    {
      "midi": 60,
      "hit": false,
      "t": 84318.09749999986,
      "d": 407.19656250000116,
      "v": 88
    },
    {
      "midi": 74,
      "hit": false,
      "t": 84318.09749999986,
      "d": 814.3931250000023,
      "v": 88
    },
    {
      "midi": 62,
      "hit": false,
      "t": 84772.64249999986,
      "d": 407.19656250000116,
      "v": 88
    },
    {
      "midi": 55,
      "hit": false,
      "t": 85227.18749999985,
      "d": 407.19656250000116,
      "v": 88
    },
    {
      "midi": 69,
      "hit": false,
      "t": 85681.73249999985,
      "d": 407.19656250000116,
      "v": 88
    },
    {
      "midi": 67,
      "hit": false,
      "t": 86136.27749999985,
      "d": 407.19656250000116,
      "v": 88
    },
    {
      "midi": 65,
      "hit": false,
      "t": 86590.82249999985,
      "d": 407.19656250000116,
      "v": 88
    },
    {
      "midi": 64,
      "hit": false,
      "t": 87045.36749999985,
      "d": 407.19656250000116,
      "v": 88
    },
    {
      "midi": 67,
      "hit": false,
      "t": 87499.91249999985,
      "d": 407.19656250000116,
      "v": 88
    },
    {
      "midi": 62,
      "hit": false,
      "t": 87499.91249999985,
      "d": 407.19656250000116,
      "v": 88
    },
    {
      "midi": 60,
      "hit": false,
      "t": 87954.45749999984,
      "d": 407.19656250000116,
      "v": 88
    },
    {
      "midi": 72,
      "hit": false,
      "t": 87954.45749999984,
      "d": 610.7948437500017,
      "v": 88
    },
    {
      "midi": 64,
      "hit": false,
      "t": 88409.00249999984,
      "d": 407.19656250000116,
      "v": 88
    },
    {
      "midi": 67,
      "hit": false,
      "t": 88636.27499999985,
      "d": 203.59828125000058,
      "v": 88
    },
    {
      "midi": 72,
      "hit": false,
      "t": 88863.54749999986,
      "d": 203.59828125000058,
      "v": 88
    },
    {
      "midi": 67,
      "hit": false,
      "t": 88863.54749999986,
      "d": 407.19656250000116,
      "v": 88
    },
    {
      "midi": 74,
      "hit": false,
      "t": 89090.81999999986,
      "d": 203.59828125000058,
      "v": 88
    },
    {
      "midi": 52,
      "hit": false,
      "t": 89318.09249999987,
      "d": 407.19656250000116,
      "v": 88
    },
    {
      "midi": 76,
      "hit": false,
      "t": 89318.09249999987,
      "d": 814.3931250000023,
      "v": 88
    },
    {
      "midi": 56,
      "hit": false,
      "t": 89772.63749999987,
      "d": 407.19656250000116,
      "v": 88
    },
    {
      "midi": 72,
      "hit": false,
      "t": 90227.18249999986,
      "d": 454.54499999999825,
      "v": 88
    },
    {
      "midi": 60,
      "hit": false,
      "t": 90227.18249999986,
      "d": 454.54499999999825,
      "v": 88
    },
    {
      "midi": 53,
      "hit": false,
      "t": 90681.72749999986,
      "d": 407.19656250000116,
      "v": 88
    },
    {
      "midi": 77,
      "hit": false,
      "t": 90681.72749999986,
      "d": 610.7948437500017,
      "v": 88
    },
    {
      "midi": 57,
      "hit": false,
      "t": 91136.27249999986,
      "d": 407.19656250000116,
      "v": 88
    },
    {
      "midi": 72,
      "hit": false,
      "t": 91363.54499999987,
      "d": 203.59828125000058,
      "v": 88
    },
    {
      "midi": 77,
      "hit": false,
      "t": 91590.81749999987,
      "d": 203.59828125000058,
      "v": 88
    },
    {
      "midi": 60,
      "hit": false,
      "t": 91590.81749999987,
      "d": 407.19656250000116,
      "v": 88
    },
    {
      "midi": 79,
      "hit": false,
      "t": 91818.08999999988,
      "d": 203.59828125000058,
      "v": 88
    },
    {
      "midi": 54,
      "hit": false,
      "t": 92045.36249999989,
      "d": 407.19656250000116,
      "v": 88
    },
    {
      "midi": 81,
      "hit": false,
      "t": 92045.36249999989,
      "d": 814.3931250000023,
      "v": 88
    },
    {
      "midi": 57,
      "hit": false,
      "t": 92499.90749999988,
      "d": 407.19656250000116,
      "v": 88
    },
    {
      "midi": 83,
      "hit": false,
      "t": 92954.45249999988,
      "d": 203.59828125000058,
      "v": 88
    },
    {
      "midi": 60,
      "hit": false,
      "t": 92954.45249999988,
      "d": 407.19656250000116,
      "v": 88
    },
    {
      "midi": 81,
      "hit": false,
      "t": 93181.72499999989,
      "d": 203.59828125000058,
      "v": 88
    },
    {
      "midi": 79,
      "hit": false,
      "t": 93408.9974999999,
      "d": 407.19656250000116,
      "v": 88
    },
    {
      "midi": 55,
      "hit": false,
      "t": 93408.9974999999,
      "d": 407.19656250000116,
      "v": 88
    },
    {
      "midi": 76,
      "hit": false,
      "t": 93863.5424999999,
      "d": 407.19656250000116,
      "v": 88
    },
    {
      "midi": 60,
      "hit": false,
      "t": 93863.5424999999,
      "d": 407.19656250000116,
      "v": 88
    },
    {
      "midi": 72,
      "hit": false,
      "t": 94318.08749999989,
      "d": 407.19656250000116,
      "v": 88
    },
    {
      "midi": 64,
      "hit": false,
      "t": 94318.08749999989,
      "d": 407.19656250000116,
      "v": 88
    },
    {
      "midi": 69,
      "hit": false,
      "t": 94772.63249999989,
      "d": 407.19656250000116,
      "v": 88
    },
    {
      "midi": 57,
      "hit": false,
      "t": 94772.63249999989,
      "d": 407.19656250000116,
      "v": 88
    },
    {
      "midi": 60,
      "hit": false,
      "t": 95227.17749999989,
      "d": 407.19656250000116,
      "v": 88
    },
    {
      "midi": 67,
      "hit": false,
      "t": 95681.72249999989,
      "d": 407.19656250000116,
      "v": 88
    },
    {
      "midi": 64,
      "hit": false,
      "t": 95681.72249999989,
      "d": 407.19656250000116,
      "v": 88
    },
    {
      "midi": 50,
      "hit": false,
      "t": 96136.26749999989,
      "d": 407.19656250000116,
      "v": 88
    },
    {
      "midi": 76,
      "hit": false,
      "t": 96136.26749999989,
      "d": 814.3931250000023,
      "v": 88
    },
    {
      "midi": 57,
      "hit": false,
      "t": 96590.81249999988,
      "d": 407.19656250000116,
      "v": 88
    },
    {
      "midi": 77,
      "hit": false,
      "t": 97045.35749999988,
      "d": 407.19656250000116,
      "v": 88
    },
    {
      "midi": 60,
      "hit": false,
      "t": 97045.35749999988,
      "d": 407.19656250000116,
      "v": 88
    },
    {
      "midi": 74,
      "hit": false,
      "t": 97499.90249999988,
      "d": 407.19656250000116,
      "v": 88
    },
    {
      "midi": 59,
      "hit": false,
      "t": 97499.90249999988,
      "d": 1226.324531249993,
      "v": 88
    },
    {
      "midi": 55,
      "hit": false,
      "t": 97499.90249999988,
      "d": 1226.324531249993,
      "v": 88
    },
    {
      "midi": 69,
      "hit": false,
      "t": 97954.44749999988,
      "d": 407.19656250000116,
      "v": 88
    },
    {
      "midi": 71,
      "hit": false,
      "t": 98408.99249999988,
      "d": 407.19656250000116,
      "v": 88
    },
    {
      "midi": 48,
      "hit": false,
      "t": 98863.53749999987,
      "d": 407.19656250000116,
      "v": 88
    },
    {
      "midi": 72,
      "hit": false,
      "t": 98863.53749999987,
      "d": 2178.028124999997,
      "v": 88
    },
    {
      "midi": 52,
      "hit": false,
      "t": 99318.08249999987,
      "d": 407.19656250000116,
      "v": 88
    },
    {
      "midi": 55,
      "hit": false,
      "t": 99772.62749999987,
      "d": 407.19656250000116,
      "v": 88
    },
    {
      "midi": 60,
      "hit": false,
      "t": 100227.17249999987,
      "d": 407.19656250000116,
      "v": 88
    },
    {
      "midi": 64,
      "hit": false,
      "t": 100681.71749999987,
      "d": 407.19656250000116,
      "v": 88
    },
    {
      "midi": 67,
      "hit": false,
      "t": 101136.26249999987,
      "d": 407.19656250000116,
      "v": 88
    },
    {
      "midi": 72,
      "hit": false,
      "t": 101590.80749999986,
      "d": 407.19656250000116,
      "v": 88
    },
    {
      "midi": 76,
      "hit": false,
      "t": 102045.35249999986,
      "d": 407.19656250000116,
      "v": 88
    },
    {
      "midi": 79,
      "hit": false,
      "t": 102499.89749999986,
      "d": 407.19656250000116,
      "v": 88
    },
    {
      "midi": 53,
      "hit": false,
      "t": 104318.07749999987,
      "d": 407.19656250000116,
      "v": 88
    },
    {
      "midi": 80,
      "hit": false,
      "t": 104318.07749999987,
      "d": 610.7948437500017,
      "v": 88
    },
    {
      "midi": 60,
      "hit": false,
      "t": 104772.62249999987,
      "d": 407.19656250000116,
      "v": 88
    },
    {
      "midi": 72,
      "hit": false,
      "t": 104999.89499999987,
      "d": 203.59828125000058,
      "v": 88
    },
    {
      "midi": 75,
      "hit": false,
      "t": 105227.16749999988,
      "d": 203.59828125000058,
      "v": 88
    },
    {
      "midi": 63,
      "hit": false,
      "t": 105227.16749999988,
      "d": 407.19656250000116,
      "v": 88
    },
    {
      "midi": 80,
      "hit": false,
      "t": 105454.43999999989,
      "d": 203.59828125000058,
      "v": 88
    },
    {
      "midi": 82,
      "hit": false,
      "t": 105681.71249999989,
      "d": 814.3931250000023,
      "v": 88
    },
    {
      "midi": 68,
      "hit": false,
      "t": 105681.71249999989,
      "d": 1226.324531249993,
      "v": 88
    },
    {
      "midi": 80,
      "hit": false,
      "t": 106590.80249999989,
      "d": 407.19656250000116,
      "v": 88
    },
    {
      "midi": 79,
      "hit": false,
      "t": 107045.34749999989,
      "d": 203.59828125000058,
      "v": 88
    },
    {
      "midi": 52,
      "hit": false,
      "t": 107045.34749999989,
      "d": 407.19656250000116,
      "v": 88
    },
    {
      "midi": 76,
      "hit": false,
      "t": 107272.6199999999,
      "d": 203.59828125000058,
      "v": 88
    },
    {
      "midi": 76,
      "hit": false,
      "t": 107499.8924999999,
      "d": 203.59828125000058,
      "v": 88
    },
    {
      "midi": 62,
      "hit": false,
      "t": 107499.8924999999,
      "d": 407.19656250000116,
      "v": 88
    },
    {
      "midi": 59,
      "hit": false,
      "t": 107499.8924999999,
      "d": 407.19656250000116,
      "v": 88
    },
    {
      "midi": 71,
      "hit": false,
      "t": 107727.1649999999,
      "d": 203.59828125000058,
      "v": 88
    },
    {
      "midi": 71,
      "hit": false,
      "t": 107954.43749999991,
      "d": 203.59828125000058,
      "v": 88
    },
    {
      "midi": 67,
      "hit": false,
      "t": 108181.70999999992,
      "d": 203.59828125000058,
      "v": 88
    },
    {
      "midi": 45,
      "hit": false,
      "t": 108408.98249999993,
      "d": 407.19656250000116,
      "v": 88
    },
    {
      "midi": 69,
      "hit": false,
      "t": 108408.98249999993,
      "d": 814.3931250000023,
      "v": 88
    },
    {
      "midi": 55,
      "hit": false,
      "t": 108863.52749999992,
      "d": 610.7948437500017,
      "v": 88
    },
    {
      "midi": 52,
      "hit": false,
      "t": 108863.52749999992,
      "d": 610.7948437500017,
      "v": 88
    },
    {
      "midi": 54,
      "hit": false,
      "t": 109545.34499999993,
      "d": 203.59828125000058,
      "v": 88
    },
    {
      "midi": 51,
      "hit": false,
      "t": 109545.34499999993,
      "d": 203.59828125000058,
      "v": 88
    },
    {
      "midi": 65,
      "hit": false,
      "t": 109772.61749999993,
      "d": 203.59828125000058,
      "v": 88
    },
    {
      "midi": 62,
      "hit": false,
      "t": 109772.61749999993,
      "d": 203.59828125000058,
      "v": 88
    },
    {
      "midi": 50,
      "hit": false,
      "t": 109772.61749999993,
      "d": 227.2725000000064,
      "v": 88
    },
    {
      "midi": 67,
      "hit": false,
      "t": 109999.88999999994,
      "d": 227.2725000000064,
      "v": 88
    },
    {
      "midi": 64,
      "hit": false,
      "t": 109999.88999999994,
      "d": 227.2725000000064,
      "v": 88
    },
    {
      "midi": 69,
      "hit": false,
      "t": 110227.16249999995,
      "d": 227.2725000000064,
      "v": 88
    },
    {
      "midi": 65,
      "hit": false,
      "t": 110227.16249999995,
      "d": 227.2725000000064,
      "v": 88
    },
    {
      "midi": 57,
      "hit": false,
      "t": 110227.16249999995,
      "d": 227.2725000000064,
      "v": 88
    },
    {
      "midi": 53,
      "hit": false,
      "t": 110227.16249999995,
      "d": 227.2725000000064,
      "v": 88
    },
    {
      "midi": 71,
      "hit": false,
      "t": 110681.70749999996,
      "d": 203.59828125000058,
      "v": 88
    },
    {
      "midi": 67,
      "hit": false,
      "t": 110681.70749999996,
      "d": 203.59828125000058,
      "v": 88
    },
    {
      "midi": 57,
      "hit": false,
      "t": 110681.70749999996,
      "d": 227.2725000000064,
      "v": 88
    },
    {
      "midi": 53,
      "hit": false,
      "t": 110681.70749999996,
      "d": 227.2725000000064,
      "v": 88
    },
    {
      "midi": 72,
      "hit": false,
      "t": 110908.97999999997,
      "d": 227.2725000000064,
      "v": 88
    },
    {
      "midi": 69,
      "hit": false,
      "t": 110908.97999999997,
      "d": 227.2725000000064,
      "v": 88
    },
    {
      "midi": 74,
      "hit": false,
      "t": 111136.25249999997,
      "d": 227.2725000000064,
      "v": 88
    },
    {
      "midi": 71,
      "hit": false,
      "t": 111136.25249999997,
      "d": 227.2725000000064,
      "v": 88
    },
    {
      "midi": 43,
      "hit": false,
      "t": 111136.25249999997,
      "d": 227.2725000000064,
      "v": 88
    },
    {
      "midi": 71,
      "hit": false,
      "t": 111590.79749999999,
      "d": 227.2725000000064,
      "v": 88
    },
    {
      "midi": 55,
      "hit": false,
      "t": 111590.79749999999,
      "d": 227.2725000000064,
      "v": 88
    },
    {
      "midi": 53,
      "hit": false,
      "t": 111590.79749999999,
      "d": 227.2725000000064,
      "v": 88
    },
    {
      "midi": 67,
      "hit": false,
      "t": 112045.3425,
      "d": 227.2725000000064,
      "v": 88
    },
    {
      "midi": 55,
      "hit": false,
      "t": 112045.3425,
      "d": 227.2725000000064,
      "v": 88
    },
    {
      "midi": 53,
      "hit": false,
      "t": 112045.3425,
      "d": 227.2725000000064,
      "v": 88
    },
    {
      "midi": 48,
      "hit": false,
      "t": 112499.88750000001,
      "d": 227.2725000000064,
      "v": 88
    },
    {
      "midi": 76,
      "hit": false,
      "t": 112499.88750000001,
      "d": 1226.3245312500367,
      "v": 88
    },
    {
      "midi": 67,
      "hit": false,
      "t": 112499.88750000001,
      "d": 1226.3245312500367,
      "v": 88
    },
    {
      "midi": 55,
      "hit": false,
      "t": 112954.43250000002,
      "d": 227.2725000000064,
      "v": 88
    },
    {
      "midi": 52,
      "hit": false,
      "t": 112954.43250000002,
      "d": 227.2725000000064,
      "v": 88
    },
    {
      "midi": 55,
      "hit": false,
      "t": 113408.97750000004,
      "d": 227.2725000000064,
      "v": 88
    },
    {
      "midi": 52,
      "hit": false,
      "t": 113408.97750000004,
      "d": 227.2725000000064,
      "v": 88
    },
    {
      "midi": 64,
      "hit": false,
      "t": 113863.52250000005,
      "d": 203.59828125000058,
      "v": 88
    },
    {
      "midi": 60,
      "hit": false,
      "t": 113863.52250000005,
      "d": 407.19656250000116,
      "v": 88
    },
    {
      "midi": 65,
      "hit": false,
      "t": 114090.79500000006,
      "d": 203.59828125000058,
      "v": 88
    },
    {
      "midi": 67,
      "hit": false,
      "t": 114318.06750000006,
      "d": 203.59828125000058,
      "v": 88
    },
    {
      "midi": 59,
      "hit": false,
      "t": 114318.06750000006,
      "d": 407.19656250000116,
      "v": 88
    },
    {
      "midi": 69,
      "hit": false,
      "t": 114545.34000000007,
      "d": 203.59828125000058,
      "v": 88
    },
    {
      "midi": 70,
      "hit": false,
      "t": 114772.61250000008,
      "d": 203.59828125000058,
      "v": 88
    },
    {
      "midi": 58,
      "hit": false,
      "t": 114772.61250000008,
      "d": 407.19656250000116,
      "v": 88
    },
    {
      "midi": 72,
      "hit": false,
      "t": 114999.88500000008,
      "d": 203.59828125000058,
      "v": 88
    },
    {
      "midi": 46,
      "hit": false,
      "t": 115227.15750000009,
      "d": 407.19656250000116,
      "v": 88
    },
    {
      "midi": 73,
      "hit": false,
      "t": 115227.15750000009,
      "d": 610.7948437500017,
      "v": 88
    },
    {
      "midi": 56,
      "hit": false,
      "t": 115681.70250000009,
      "d": 407.19656250000116,
      "v": 88
    },
    {
      "midi": 53,
      "hit": false,
      "t": 115681.70250000009,
      "d": 407.19656250000116,
      "v": 88
    },
    {
      "midi": 65,
      "hit": false,
      "t": 115908.9750000001,
      "d": 203.59828125000058,
      "v": 88
    },
    {
      "midi": 68,
      "hit": false,
      "t": 116136.2475000001,
      "d": 203.59828125000058,
      "v": 88
    },
    {
      "midi": 73,
      "hit": false,
      "t": 116363.5200000001,
      "d": 203.59828125000058,
      "v": 88
    },
    {
      "midi": 51,
      "hit": false,
      "t": 116590.79250000011,
      "d": 407.19656250000116,
      "v": 88
    },
    {
      "midi": 75,
      "hit": false,
      "t": 116590.79250000011,
      "d": 814.3931250000023,
      "v": 88
    },
    {
      "midi": 58,
      "hit": false,
      "t": 117045.33750000011,
      "d": 407.19656250000116,
      "v": 88
    },
    {
      "midi": 55,
      "hit": false,
      "t": 117045.33750000011,
      "d": 407.19656250000116,
      "v": 88
    },
    {
      "midi": 73,
      "hit": false,
      "t": 117499.88250000011,
      "d": 407.19656250000116,
      "v": 88
    },
    {
      "midi": 72,
      "hit": false,
      "t": 117954.4275000001,
      "d": 203.59828125000058,
      "v": 88
    },
    {
      "midi": 56,
      "hit": false,
      "t": 117954.4275000001,
      "d": 407.19656250000116,
      "v": 88
    },
    {
      "midi": 67,
      "hit": false,
      "t": 118181.70000000011,
      "d": 203.59828125000058,
      "v": 88
    },
    {
      "midi": 67,
      "hit": false,
      "t": 118408.97250000012,
      "d": 203.59828125000058,
      "v": 88
    },
    {
      "midi": 60,
      "hit": false,
      "t": 118408.97250000012,
      "d": 407.19656250000116,
      "v": 88
    },
    {
      "midi": 63,
      "hit": false,
      "t": 118636.24500000013,
      "d": 203.59828125000058,
      "v": 88
    },
    {
      "midi": 63,
      "hit": false,
      "t": 118863.51750000013,
      "d": 203.59828125000058,
      "v": 88
    },
    {
      "midi": 55,
      "hit": false,
      "t": 118863.51750000013,
      "d": 407.19656250000116,
      "v": 88
    },
    {
      "midi": 67,
      "hit": false,
      "t": 119090.79000000014,
      "d": 203.59828125000058,
      "v": 88
    },
    {
      "midi": 53,
      "hit": false,
      "t": 119318.06250000015,
      "d": 407.19656250000116,
      "v": 88
    },
    {
      "midi": 68,
      "hit": false,
      "t": 119318.06250000015,
      "d": 814.3931250000023,
      "v": 88
    },
    {
      "midi": 60,
      "hit": false,
      "t": 119772.60750000014,
      "d": 407.19656250000116,
      "v": 88
    },
    {
      "midi": 56,
      "hit": false,
      "t": 119772.60750000014,
      "d": 407.19656250000116,
      "v": 88
    },
    {
      "midi": 67,
      "hit": false,
      "t": 120227.15250000014,
      "d": 407.19656250000116,
      "v": 88
    },
    {
      "midi": 51,
      "hit": false,
      "t": 120227.15250000014,
      "d": 407.19656250000116,
      "v": 88
    },
    {
      "midi": 65,
      "hit": false,
      "t": 120681.69750000014,
      "d": 227.2725000000064,
      "v": 88
    },
    {
      "midi": 49,
      "hit": false,
      "t": 120681.69750000014,
      "d": 227.2725000000064,
      "v": 88
    },
    {
      "midi": 67,
      "hit": false,
      "t": 120908.97000000015,
      "d": 227.2725000000064,
      "v": 88
    },
    {
      "midi": 68,
      "hit": false,
      "t": 121136.24250000015,
      "d": 227.2725000000064,
      "v": 88
    },
    {
      "midi": 56,
      "hit": false,
      "t": 121136.24250000015,
      "d": 227.2725000000064,
      "v": 88
    },
    {
      "midi": 53,
      "hit": false,
      "t": 121136.24250000015,
      "d": 227.2725000000064,
      "v": 88
    },
    {
      "midi": 67,
      "hit": false,
      "t": 121590.78750000017,
      "d": 203.59828125000058,
      "v": 88
    },
    {
      "midi": 56,
      "hit": false,
      "t": 121590.78750000017,
      "d": 227.2725000000064,
      "v": 88
    },
    {
      "midi": 53,
      "hit": false,
      "t": 121590.78750000017,
      "d": 227.2725000000064,
      "v": 88
    },
    {
      "midi": 68,
      "hit": false,
      "t": 121818.06000000017,
      "d": 227.2725000000064,
      "v": 88
    },
    {
      "midi": 48,
      "hit": false,
      "t": 122045.33250000018,
      "d": 227.2725000000064,
      "v": 88
    },
    {
      "midi": 70,
      "hit": false,
      "t": 122045.33250000018,
      "d": 1226.3245312500367,
      "v": 88
    },
    {
      "midi": 55,
      "hit": false,
      "t": 122499.87750000019,
      "d": 227.2725000000064,
      "v": 88
    },
    {
      "midi": 51,
      "hit": false,
      "t": 122499.87750000019,
      "d": 227.2725000000064,
      "v": 88
    },
    {
      "midi": 55,
      "hit": false,
      "t": 122954.4225000002,
      "d": 227.2725000000064,
      "v": 88
    },
    {
      "midi": 51,
      "hit": false,
      "t": 122954.4225000002,
      "d": 227.2725000000064,
      "v": 88
    },
    {
      "midi": 65,
      "hit": false,
      "t": 123408.96750000022,
      "d": 203.59828125000058,
      "v": 88
    },
    {
      "midi": 50,
      "hit": false,
      "t": 123408.96750000022,
      "d": 227.2725000000064,
      "v": 88
    },
    {
      "midi": 67,
      "hit": false,
      "t": 123636.24000000022,
      "d": 227.2725000000064,
      "v": 88
    },
    {
      "midi": 69,
      "hit": false,
      "t": 123863.51250000023,
      "d": 227.2725000000064,
      "v": 88
    },
    {
      "midi": 57,
      "hit": false,
      "t": 123863.51250000023,
      "d": 227.2725000000064,
      "v": 88
    },
    {
      "midi": 53,
      "hit": false,
      "t": 123863.51250000023,
      "d": 227.2725000000064,
      "v": 88
    },
    {
      "midi": 71,
      "hit": false,
      "t": 124318.05750000024,
      "d": 227.2725000000064,
      "v": 88
    },
    {
      "midi": 57,
      "hit": false,
      "t": 124318.05750000024,
      "d": 227.2725000000064,
      "v": 88
    },
    {
      "midi": 53,
      "hit": false,
      "t": 124318.05750000024,
      "d": 227.2725000000064,
      "v": 88
    },
    {
      "midi": 72,
      "hit": false,
      "t": 124545.33000000025,
      "d": 227.2725000000064,
      "v": 88
    },
    {
      "midi": 43,
      "hit": false,
      "t": 124772.60250000026,
      "d": 227.2725000000064,
      "v": 88
    },
    {
      "midi": 74,
      "hit": false,
      "t": 124772.60250000026,
      "d": 1363.6350000000384,
      "v": 88
    },
    {
      "midi": 55,
      "hit": false,
      "t": 125227.14750000027,
      "d": 227.2725000000064,
      "v": 88
    },
    {
      "midi": 53,
      "hit": false,
      "t": 125227.14750000027,
      "d": 227.2725000000064,
      "v": 88
    },
    {
      "midi": 55,
      "hit": false,
      "t": 125681.69250000028,
      "d": 227.2725000000064,
      "v": 88
    },
    {
      "midi": 53,
      "hit": false,
      "t": 125681.69250000028,
      "d": 227.2725000000064,
      "v": 88
    },
    {
      "midi": 48,
      "hit": false,
      "t": 126136.2375000003,
      "d": 203.59828125000058,
      "v": 88
    },
    {
      "midi": 55,
      "hit": false,
      "t": 126363.5100000003,
      "d": 203.59828125000058,
      "v": 88
    },
    {
      "midi": 60,
      "hit": false,
      "t": 126590.7825000003,
      "d": 203.59828125000058,
      "v": 88
    },
    {
      "midi": 64,
      "hit": false,
      "t": 126818.05500000031,
      "d": 203.59828125000058,
      "v": 88
    },
    {
      "midi": 67,
      "hit": false,
      "t": 127045.32750000032,
      "d": 203.59828125000058,
      "v": 88
    },
    {
      "midi": 72,
      "hit": false,
      "t": 127272.60000000033,
      "d": 203.59828125000058,
      "v": 88
    },
    {
      "midi": 74,
      "hit": false,
      "t": 127499.87250000033,
      "d": 814.3931250000023,
      "v": 88
    },
    {
      "midi": 69,
      "hit": false,
      "t": 127499.87250000033,
      "d": 814.3931250000023,
      "v": 88
    },
    {
      "midi": 65,
      "hit": false,
      "t": 127499.87250000033,
      "d": 814.3931250000023,
      "v": 88
    },
    {
      "midi": 79,
      "hit": false,
      "t": 128408.96250000033,
      "d": 203.59828125000058,
      "v": 88
    },
    {
      "midi": 55,
      "hit": false,
      "t": 128408.96250000033,
      "d": 407.19656250000116,
      "v": 88
    },
    {
      "midi": 81,
      "hit": false,
      "t": 128636.23500000034,
      "d": 203.59828125000058,
      "v": 88
    },
    {
      "midi": 48,
      "hit": false,
      "t": 128863.50750000034,
      "d": 203.59828125000058,
      "v": 88
    },
    {
      "midi": 79,
      "hit": false,
      "t": 128863.50750000034,
      "d": 407.19656250000116,
      "v": 88
    },
    {
      "midi": 55,
      "hit": false,
      "t": 129090.78000000035,
      "d": 203.59828125000058,
      "v": 88
    },
    {
      "midi": 60,
      "hit": false,
      "t": 129318.05250000035,
      "d": 203.59828125000058,
      "v": 88
    },
    {
      "midi": 64,
      "hit": false,
      "t": 129545.32500000036,
      "d": 203.59828125000058,
      "v": 88
    },
    {
      "midi": 67,
      "hit": false,
      "t": 129772.59750000037,
      "d": 203.59828125000058,
      "v": 88
    },
    {
      "midi": 76,
      "hit": false,
      "t": 129999.87000000037,
      "d": 203.59828125000058,
      "v": 88
    },
    {
      "midi": 74,
      "hit": false,
      "t": 130227.14250000038,
      "d": 814.3931250000023,
      "v": 88
    },
    {
      "midi": 69,
      "hit": false,
      "t": 130227.14250000038,
      "d": 814.3931250000023,
      "v": 88
    },
    {
      "midi": 65,
      "hit": false,
      "t": 130227.14250000038,
      "d": 814.3931250000023,
      "v": 88
    },
    {
      "midi": 67,
      "hit": false,
      "t": 131136.2325000004,
      "d": 407.19656250000116,
      "v": 88
    },
    {
      "midi": 60,
      "hit": false,
      "t": 131590.7775000004,
      "d": 407.19656250000116,
      "v": 88
    },
    {
      "midi": 76,
      "hit": false,
      "t": 131590.7775000004,
      "d": 814.3931250000023,
      "v": 88
    },
    {
      "midi": 64,
      "hit": false,
      "t": 132045.32250000042,
      "d": 407.19656250000116,
      "v": 88
    },
    {
      "midi": 72,
      "hit": false,
      "t": 132499.86750000043,
      "d": 407.19656250000116,
      "v": 88
    },
    {
      "midi": 67,
      "hit": false,
      "t": 132499.86750000043,
      "d": 407.19656250000116,
      "v": 88
    },
    {
      "midi": 60,
      "hit": false,
      "t": 132954.41250000044,
      "d": 407.19656250000116,
      "v": 88
    },
    {
      "midi": 74,
      "hit": false,
      "t": 132954.41250000044,
      "d": 814.3931250000023,
      "v": 88
    },
    {
      "midi": 65,
      "hit": false,
      "t": 133408.95750000046,
      "d": 407.19656250000116,
      "v": 88
    },
    {
      "midi": 72,
      "hit": false,
      "t": 133863.50250000047,
      "d": 203.59828124998603,
      "v": 88
    },
    {
      "midi": 69,
      "hit": false,
      "t": 133863.50250000047,
      "d": 407.19656250000116,
      "v": 88
    },
    {
      "midi": 74,
      "hit": false,
      "t": 134090.77500000046,
      "d": 203.59828125001513,
      "v": 88
    },
    {
      "midi": 76,
      "hit": false,
      "t": 134318.04750000048,
      "d": 407.19656250000116,
      "v": 88
    },
    {
      "midi": 60,
      "hit": false,
      "t": 134318.04750000048,
      "d": 407.19656250000116,
      "v": 88
    },
    {
      "midi": 74,
      "hit": false,
      "t": 134772.5925000005,
      "d": 407.19656250000116,
      "v": 88
    },
    {
      "midi": 64,
      "hit": false,
      "t": 134772.5925000005,
      "d": 407.19656250000116,
      "v": 88
    },
    {
      "midi": 72,
      "hit": false,
      "t": 135227.1375000005,
      "d": 407.19656250000116,
      "v": 88
    },
    {
      "midi": 67,
      "hit": false,
      "t": 135227.1375000005,
      "d": 407.19656250000116,
      "v": 88
    },
    {
      "midi": 53,
      "hit": false,
      "t": 135681.68250000052,
      "d": 407.19656250000116,
      "v": 88
    },
    {
      "midi": 69,
      "hit": false,
      "t": 135681.68250000052,
      "d": 1226.3245312500221,
      "v": 88
    },
    {
      "midi": 57,
      "hit": false,
      "t": 136136.22750000053,
      "d": 407.19656250000116,
      "v": 88
    },
    {
      "midi": 62,
      "hit": false,
      "t": 136590.77250000054,
      "d": 407.19656250000116,
      "v": 88
    },
    {
      "midi": 52,
      "hit": false,
      "t": 137045.31750000056,
      "d": 407.19656250000116,
      "v": 88
    },
    {
      "midi": 67,
      "hit": false,
      "t": 137045.31750000056,
      "d": 610.7948437500163,
      "v": 88
    },
    {
      "midi": 55,
      "hit": false,
      "t": 137499.86250000057,
      "d": 407.19656250000116,
      "v": 88
    },
    {
      "midi": 67,
      "hit": false,
      "t": 137727.13500000056,
      "d": 203.59828125001513,
      "v": 88
    },
    {
      "midi": 72,
      "hit": false,
      "t": 137954.40750000058,
      "d": 203.59828124998603,
      "v": 88
    },
    {
      "midi": 60,
      "hit": false,
      "t": 137954.40750000058,
      "d": 407.19656250000116,
      "v": 88
    },
    {
      "midi": 67,
      "hit": false,
      "t": 138181.68000000058,
      "d": 203.59828125001513,
      "v": 88
    },
    {
      "midi": 69,
      "hit": false,
      "t": 138408.9525000006,
      "d": 407.19656250000116,
      "v": 88
    },
    {
      "midi": 53,
      "hit": false,
      "t": 138408.9525000006,
      "d": 407.19656250000116,
      "v": 88
    },
    {
      "midi": 72,
      "hit": false,
      "t": 138863.4975000006,
      "d": 407.19656250000116,
      "v": 88
    },
    {
      "midi": 57,
      "hit": false,
      "t": 138863.4975000006,
      "d": 407.19656250000116,
      "v": 88
    },
    {
      "midi": 81,
      "hit": false,
      "t": 139318.04250000062,
      "d": 407.19656250000116,
      "v": 88
    },
    {
      "midi": 60,
      "hit": false,
      "t": 139318.04250000062,
      "d": 407.19656250000116,
      "v": 88
    },
    {
      "midi": 52,
      "hit": false,
      "t": 139772.58750000063,
      "d": 407.19656250000116,
      "v": 88
    },
    {
      "midi": 79,
      "hit": false,
      "t": 139772.58750000063,
      "d": 814.3931250000023,
      "v": 88
    },
    {
      "midi": 55,
      "hit": false,
      "t": 140227.13250000065,
      "d": 407.19656250000116,
      "v": 88
    },
    {
      "midi": 76,
      "hit": false,
      "t": 140681.67750000066,
      "d": 407.19656250000116,
      "v": 88
    },
    {
      "midi": 60,
      "hit": false,
      "t": 140681.67750000066,
      "d": 407.19656250000116,
      "v": 88
    },
    {
      "midi": 77,
      "hit": false,
      "t": 141136.22250000067,
      "d": 407.19656250000116,
      "v": 88
    },
    {
      "midi": 50,
      "hit": false,
      "t": 141136.22250000067,
      "d": 407.19656250000116,
      "v": 88
    },
    {
      "midi": 76,
      "hit": false,
      "t": 141590.7675000007,
      "d": 407.19656250000116,
      "v": 88
    },
    {
      "midi": 53,
      "hit": false,
      "t": 141590.7675000007,
      "d": 407.19656250000116,
      "v": 88
    },
    {
      "midi": 72,
      "hit": false,
      "t": 142045.3125000007,
      "d": 454.5450000000128,
      "v": 88
    },
    {
      "midi": 57,
      "hit": false,
      "t": 142045.3125000007,
      "d": 454.5450000000128,
      "v": 88
    },
    {
      "midi": 55,
      "hit": false,
      "t": 142499.8575000007,
      "d": 203.59828124998603,
      "v": 88
    },
    {
      "midi": 74,
      "hit": false,
      "t": 142499.8575000007,
      "d": 814.3931249999732,
      "v": 88
    },
    {
      "midi": 60,
      "hit": false,
      "t": 142727.1300000007,
      "d": 227.27249999999185,
      "v": 88
    },
    {
      "midi": 62,
      "hit": false,
      "t": 142954.4025000007,
      "d": 227.27249999999185,
      "v": 88
    },
    {
      "midi": 65,
      "hit": false,
      "t": 143181.6750000007,
      "d": 227.27249999999185,
      "v": 88
    },
    {
      "midi": 69,
      "hit": false,
      "t": 143408.94750000068,
      "d": 227.27249999999185,
      "v": 88
    },
    {
      "midi": 72,
      "hit": false,
      "t": 143636.22000000067,
      "d": 227.27249999999185,
      "v": 88
    },
    {
      "midi": 76,
      "hit": false,
      "t": 143863.49250000066,
      "d": 407.19656250000116,
      "v": 88
    },
    {
      "midi": 55,
      "hit": false,
      "t": 143863.49250000066,
      "d": 1226.3245312500221,
      "v": 88
    },
    {
      "midi": 72,
      "hit": false,
      "t": 144318.03750000068,
      "d": 407.19656250000116,
      "v": 88
    },
    {
      "midi": 81,
      "hit": false,
      "t": 144772.5825000007,
      "d": 407.19656250000116,
      "v": 88
    },
    {
      "midi": 79,
      "hit": false,
      "t": 145227.1275000007,
      "d": 407.19656250000116,
      "v": 88
    },
    {
      "midi": 71,
      "hit": false,
      "t": 145227.1275000007,
      "d": 407.19656250000116,
      "v": 88
    },
    {
      "midi": 65,
      "hit": false,
      "t": 145227.1275000007,
      "d": 407.19656250000116,
      "v": 88
    },
    {
      "midi": 55,
      "hit": false,
      "t": 145227.1275000007,
      "d": 407.19656250000116,
      "v": 88
    },
    {
      "midi": 76,
      "hit": false,
      "t": 146136.2175000007,
      "d": 203.59828124998603,
      "v": 88
    },
    {
      "midi": 72,
      "hit": false,
      "t": 146136.2175000007,
      "d": 203.59828124998603,
      "v": 88
    },
    {
      "midi": 77,
      "hit": false,
      "t": 146363.4900000007,
      "d": 203.59828124998603,
      "v": 88
    },
    {
      "midi": 74,
      "hit": false,
      "t": 146363.4900000007,
      "d": 203.59828124998603,
      "v": 88
    },
    {
      "midi": 79,
      "hit": false,
      "t": 146590.76250000068,
      "d": 407.19656250000116,
      "v": 88
    },
    {
      "midi": 76,
      "hit": false,
      "t": 146590.76250000068,
      "d": 407.19656250000116,
      "v": 88
    },
    {
      "midi": 69,
      "hit": false,
      "t": 146590.76250000068,
      "d": 1226.3245312500221,
      "v": 88
    },
    {
      "midi": 65,
      "hit": false,
      "t": 146590.76250000068,
      "d": 1226.3245312500221,
      "v": 88
    },
    {
      "midi": 77,
      "hit": false,
      "t": 147045.3075000007,
      "d": 407.19656250000116,
      "v": 88
    },
    {
      "midi": 74,
      "hit": false,
      "t": 147045.3075000007,
      "d": 407.19656250000116,
      "v": 88
    },
    {
      "midi": 76,
      "hit": false,
      "t": 147499.8525000007,
      "d": 407.19656250000116,
      "v": 88
    },
    {
      "midi": 72,
      "hit": false,
      "t": 147499.8525000007,
      "d": 407.19656250000116,
      "v": 88
    },
    {
      "midi": 60,
      "hit": false,
      "t": 147954.39750000072,
      "d": 407.19656250000116,
      "v": 88
    },
    {
      "midi": 76,
      "hit": false,
      "t": 147954.39750000072,
      "d": 1226.3245312500221,
      "v": 88
    },
    {
      "midi": 72,
      "hit": false,
      "t": 147954.39750000072,
      "d": 1226.3245312500221,
      "v": 88
    },
    {
      "midi": 64,
      "hit": false,
      "t": 148408.94250000073,
      "d": 407.19656250000116,
      "v": 88
    },
    {
      "midi": 67,
      "hit": false,
      "t": 148863.48750000075,
      "d": 407.19656250000116,
      "v": 88
    },
    {
      "midi": 60,
      "hit": false,
      "t": 149318.03250000076,
      "d": 407.19656250000116,
      "v": 88
    },
    {
      "midi": 77,
      "hit": false,
      "t": 149318.03250000076,
      "d": 1226.3245312500221,
      "v": 88
    },
    {
      "midi": 74,
      "hit": false,
      "t": 149318.03250000076,
      "d": 1226.3245312500221,
      "v": 88
    },
    {
      "midi": 65,
      "hit": false,
      "t": 149772.57750000077,
      "d": 407.19656250000116,
      "v": 88
    },
    {
      "midi": 69,
      "hit": false,
      "t": 150227.12250000078,
      "d": 407.19656250000116,
      "v": 88
    },
    {
      "midi": 60,
      "hit": false,
      "t": 150681.6675000008,
      "d": 407.19656250000116,
      "v": 88
    },
    {
      "midi": 79,
      "hit": false,
      "t": 150681.6675000008,
      "d": 1226.3245312500221,
      "v": 88
    },
    {
      "midi": 76,
      "hit": false,
      "t": 150681.6675000008,
      "d": 1226.3245312500221,
      "v": 88
    },
    {
      "midi": 67,
      "hit": false,
      "t": 151136.2125000008,
      "d": 407.19656250000116,
      "v": 88
    },
    {
      "midi": 71,
      "hit": false,
      "t": 151590.75750000082,
      "d": 407.19656250000116,
      "v": 88
    },
    {
      "midi": 60,
      "hit": false,
      "t": 152045.30250000083,
      "d": 407.19656250000116,
      "v": 88
    },
    {
      "midi": 77,
      "hit": false,
      "t": 152045.30250000083,
      "d": 814.3931250000023,
      "v": 88
    },
    {
      "midi": 74,
      "hit": false,
      "t": 152045.30250000083,
      "d": 814.3931250000023,
      "v": 88
    },
    {
      "midi": 65,
      "hit": false,
      "t": 152499.84750000085,
      "d": 407.19656250000116,
      "v": 88
    },
    {
      "midi": 67,
      "hit": false,
      "t": 152954.39250000086,
      "d": 407.19656250000116,
      "v": 88
    },
    {
      "midi": 60,
      "hit": false,
      "t": 153408.93750000087,
      "d": 407.19656250000116,
      "v": 88
    },
    {
      "midi": 76,
      "hit": false,
      "t": 153408.93750000087,
      "d": 814.3931250000314,
      "v": 88
    },
    {
      "midi": 64,
      "hit": false,
      "t": 153636.21000000086,
      "d": 407.19656250003027,
      "v": 88
    },
    {
      "midi": 72,
      "hit": false,
      "t": 153863.4825000009,
      "d": 407.19656250003027,
      "v": 88
    },
    {
      "midi": 67,
      "hit": false,
      "t": 153863.4825000009,
      "d": 407.19656250003027,
      "v": 88
    },
    {
      "midi": 60,
      "hit": false,
      "t": 154318.02750000093,
      "d": 407.19656250000116,
      "v": 88
    },
    {
      "midi": 74,
      "hit": false,
      "t": 154318.02750000093,
      "d": 814.3931250000023,
      "v": 88
    },
    {
      "midi": 65,
      "hit": false,
      "t": 154772.57250000094,
      "d": 407.19656250000116,
      "v": 88
    },
    {
      "midi": 72,
      "hit": false,
      "t": 155227.11750000095,
      "d": 203.59828124998603,
      "v": 88
    },
    {
      "midi": 69,
      "hit": false,
      "t": 155227.11750000095,
      "d": 407.19656250000116,
      "v": 88
    },
    {
      "midi": 74,
      "hit": false,
      "t": 155454.39000000095,
      "d": 203.59828125001513,
      "v": 88
    },
    {
      "midi": 76,
      "hit": false,
      "t": 155681.66250000097,
      "d": 407.19656250000116,
      "v": 88
    },
    {
      "midi": 60,
      "hit": false,
      "t": 155681.66250000097,
      "d": 407.19656250000116,
      "v": 88
    },
    {
      "midi": 74,
      "hit": false,
      "t": 156136.20750000098,
      "d": 407.19656250000116,
      "v": 88
    },
    {
      "midi": 64,
      "hit": false,
      "t": 156136.20750000098,
      "d": 407.19656250000116,
      "v": 88
    },
    {
      "midi": 72,
      "hit": false,
      "t": 156590.752500001,
      "d": 407.19656250000116,
      "v": 88
    },
    {
      "midi": 67,
      "hit": false,
      "t": 156590.752500001,
      "d": 407.19656250000116,
      "v": 88
    },
    {
      "midi": 53,
      "hit": false,
      "t": 157045.297500001,
      "d": 407.19656250000116,
      "v": 88
    },
    {
      "midi": 69,
      "hit": false,
      "t": 157045.297500001,
      "d": 1226.3245312500221,
      "v": 88
    },
    {
      "midi": 57,
      "hit": false,
      "t": 157499.84250000102,
      "d": 407.19656250000116,
      "v": 88
    },
    {
      "midi": 62,
      "hit": false,
      "t": 157954.38750000103,
      "d": 407.19656250000116,
      "v": 88
    },
    {
      "midi": 52,
      "hit": false,
      "t": 158408.93250000104,
      "d": 407.19656250000116,
      "v": 88
    },
    {
      "midi": 67,
      "hit": false,
      "t": 158408.93250000104,
      "d": 610.7948437500163,
      "v": 88
    },
    {
      "midi": 55,
      "hit": false,
      "t": 158863.47750000106,
      "d": 407.19656250000116,
      "v": 88
    },
    {
      "midi": 67,
      "hit": false,
      "t": 159090.75000000105,
      "d": 203.59828125001513,
      "v": 88
    },
    {
      "midi": 72,
      "hit": false,
      "t": 159318.02250000107,
      "d": 203.59828124998603,
      "v": 88
    },
    {
      "midi": 60,
      "hit": false,
      "t": 159318.02250000107,
      "d": 407.19656250000116,
      "v": 88
    },
    {
      "midi": 67,
      "hit": false,
      "t": 159545.29500000106,
      "d": 203.59828125001513,
      "v": 88
    },
    {
      "midi": 69,
      "hit": false,
      "t": 159772.56750000108,
      "d": 407.19656250000116,
      "v": 88
    },
    {
      "midi": 53,
      "hit": false,
      "t": 159772.56750000108,
      "d": 407.19656250000116,
      "v": 88
    },
    {
      "midi": 72,
      "hit": false,
      "t": 160227.1125000011,
      "d": 407.19656250000116,
      "v": 88
    },
    {
      "midi": 57,
      "hit": false,
      "t": 160227.1125000011,
      "d": 407.19656250000116,
      "v": 88
    },
    {
      "midi": 74,
      "hit": false,
      "t": 160681.6575000011,
      "d": 407.19656250000116,
      "v": 88
    },
    {
      "midi": 60,
      "hit": false,
      "t": 160681.6575000011,
      "d": 407.19656250000116,
      "v": 88
    },
    {
      "midi": 76,
      "hit": false,
      "t": 161136.20250000112,
      "d": 407.19656250000116,
      "v": 88
    },
    {
      "midi": 52,
      "hit": false,
      "t": 161136.20250000112,
      "d": 407.19656250000116,
      "v": 88
    },
    {
      "midi": 56,
      "hit": false,
      "t": 161590.74750000113,
      "d": 407.19656250000116,
      "v": 88
    },
    {
      "midi": 76,
      "hit": false,
      "t": 162045.29250000115,
      "d": 407.19656250000116,
      "v": 88
    },
    {
      "midi": 59,
      "hit": false,
      "t": 162045.29250000115,
      "d": 407.19656250000116,
      "v": 88
    },
    {
      "midi": 76,
      "hit": false,
      "t": 162499.83750000116,
      "d": 407.19656250000116,
      "v": 88
    },
    {
      "midi": 48,
      "hit": false,
      "t": 162499.83750000116,
      "d": 407.19656250000116,
      "v": 88
    },
    {
      "midi": 77,
      "hit": false,
      "t": 162954.38250000117,
      "d": 407.19656250000116,
      "v": 88
    },
    {
      "midi": 55,
      "hit": false,
      "t": 162954.38250000117,
      "d": 407.19656250000116,
      "v": 88
    },
    {
      "midi": 79,
      "hit": false,
      "t": 163408.92750000118,
      "d": 407.19656250000116,
      "v": 88
    },
    {
      "midi": 58,
      "hit": false,
      "t": 163408.92750000118,
      "d": 407.19656250000116,
      "v": 88
    },
    {
      "midi": 53,
      "hit": false,
      "t": 163863.4725000012,
      "d": 407.19656250000116,
      "v": 88
    },
    {
      "midi": 81,
      "hit": false,
      "t": 163863.4725000012,
      "d": 814.3931250000023,
      "v": 88
    },
    {
      "midi": 57,
      "hit": false,
      "t": 164318.0175000012,
      "d": 407.19656250000116,
      "v": 88
    },
    {
      "midi": 72,
      "hit": false,
      "t": 164772.56250000122,
      "d": 407.19656250000116,
      "v": 88
    },
    {
      "midi": 60,
      "hit": false,
      "t": 164772.56250000122,
      "d": 407.19656250000116,
      "v": 88
    },
    {
      "midi": 72,
      "hit": false,
      "t": 165227.10750000124,
      "d": 1226.324531249993,
      "v": 88
    },
    {
      "midi": 65,
      "hit": false,
      "t": 165227.10750000124,
      "d": 1226.324531249993,
      "v": 88
    },
    {
      "midi": 53,
      "hit": false,
      "t": 166590.74250000122,
      "d": 407.19656250000116,
      "v": 88
    },
    {
      "midi": 79,
      "hit": false,
      "t": 167045.28750000123,
      "d": 407.19656250000116,
      "v": 88
    },
    {
      "midi": 56,
      "hit": false,
      "t": 167045.28750000123,
      "d": 407.19656250000116,
      "v": 88
    },
    {
      "midi": 77,
      "hit": false,
      "t": 167499.83250000124,
      "d": 407.19656250000116,
      "v": 88
    },
    {
      "midi": 60,
      "hit": false,
      "t": 167499.83250000124,
      "d": 407.19656250000116,
      "v": 88
    },
    {
      "midi": 65,
      "hit": false,
      "t": 167954.37750000125,
      "d": 407.19656250000116,
      "v": 88
    },
    {
      "midi": 72,
      "hit": false,
      "t": 167954.37750000125,
      "d": 814.3931250000023,
      "v": 88
    },
    {
      "midi": 67,
      "hit": false,
      "t": 168408.92250000127,
      "d": 407.19656250000116,
      "v": 88
    },
    {
      "midi": 72,
      "hit": false,
      "t": 168863.46750000128,
      "d": 227.27249999999185,
      "v": 88
    },
    {
      "midi": 65,
      "hit": false,
      "t": 168863.46750000128,
      "d": 454.5449999999837,
      "v": 88
    },
    {
      "midi": 74,
      "hit": false,
      "t": 169090.74000000127,
      "d": 203.59828124998603,
      "v": 88
    },
    {
      "midi": 76,
      "hit": false,
      "t": 169318.01250000126,
      "d": 814.3931250000023,
      "v": 88
    },
    {
      "midi": 64,
      "hit": false,
      "t": 169318.01250000126,
      "d": 1226.324531249993,
      "v": 88
    },
    {
      "midi": 79,
      "hit": false,
      "t": 170227.10250000126,
      "d": 407.19656250000116,
      "v": 88
    },
    {
      "midi": 77,
      "hit": false,
      "t": 170681.64750000127,
      "d": 610.7948437499872,
      "v": 88
    },
    {
      "midi": 62,
      "hit": false,
      "t": 170681.64750000127,
      "d": 1226.324531249964,
      "v": 88
    },
    {
      "midi": 76,
      "hit": false,
      "t": 171363.46500000125,
      "d": 203.59828124998603,
      "v": 88
    },
    {
      "midi": 74,
      "hit": false,
      "t": 171590.73750000124,
      "d": 203.59828124998603,
      "v": 88
    },
    {
      "midi": 72,
      "hit": false,
      "t": 171818.01000000123,
      "d": 203.59828125001513,
      "v": 88
    },
    {
      "midi": 67,
      "hit": false,
      "t": 172045.28250000125,
      "d": 814.3931250000023,
      "v": 88
    },
    {
      "midi": 65,
      "hit": false,
      "t": 172045.28250000125,
      "d": 1226.324531249993,
      "v": 88
    },
    {
      "midi": 59,
      "hit": false,
      "t": 172045.28250000125,
      "d": 1226.324531249993,
      "v": 88
    },
    {
      "midi": 55,
      "hit": false,
      "t": 172045.28250000125,
      "d": 1226.324531249993,
      "v": 88
    },
    {
      "midi": 74,
      "hit": false,
      "t": 172954.37250000125,
      "d": 407.19656250000116,
      "v": 88
    },
    {
      "midi": 54,
      "hit": false,
      "t": 173408.91750000126,
      "d": 407.19656250000116,
      "v": 88
    },
    {
      "midi": 72,
      "hit": false,
      "t": 173408.91750000126,
      "d": 814.3931250000023,
      "v": 88
    },
    {
      "midi": 57,
      "hit": false,
      "t": 173863.46250000127,
      "d": 407.19656250000116,
      "v": 88
    },
    {
      "midi": 60,
      "hit": false,
      "t": 174318.0075000013,
      "d": 407.19656250000116,
      "v": 88
    },
    {
      "midi": 81,
      "hit": false,
      "t": 174772.5525000013,
      "d": 407.19656250000116,
      "v": 88
    },
    {
      "midi": 64,
      "hit": false,
      "t": 174772.5525000013,
      "d": 1226.3245312500221,
      "v": 88
    },
    {
      "midi": 83,
      "hit": false,
      "t": 175227.0975000013,
      "d": 407.19656250000116,
      "v": 88
    },
    {
      "midi": 84,
      "hit": false,
      "t": 175681.64250000133,
      "d": 407.19656250000116,
      "v": 88
    },
    {
      "midi": 58,
      "hit": false,
      "t": 176136.18750000134,
      "d": 407.19656250000116,
      "v": 88
    },
    {
      "midi": 88,
      "hit": false,
      "t": 176136.18750000134,
      "d": 610.7948437500163,
      "v": 88
    },
    {
      "midi": 62,
      "hit": false,
      "t": 176590.73250000135,
      "d": 407.19656250000116,
      "v": 88
    },
    {
      "midi": 86,
      "hit": false,
      "t": 176818.00500000134,
      "d": 203.59828125001513,
      "v": 88
    },
    {
      "midi": 84,
      "hit": false,
      "t": 177045.27750000136,
      "d": 203.59828124998603,
      "v": 88
    },
    {
      "midi": 65,
      "hit": false,
      "t": 177045.27750000136,
      "d": 407.19656250000116,
      "v": 88
    },
    {
      "midi": 80,
      "hit": false,
      "t": 177272.55000000136,
      "d": 203.59828125001513,
      "v": 88
    },
    {
      "midi": 72,
      "hit": false,
      "t": 177499.82250000138,
      "d": 814.3931250000023,
      "v": 88
    },
    {
      "midi": 68,
      "hit": false,
      "t": 177499.82250000138,
      "d": 814.3931250000023,
      "v": 88
    },
    {
      "midi": 74,
      "hit": false,
      "t": 178408.91250000137,
      "d": 407.19656250000116,
      "v": 88
    },
    {
      "midi": 57,
      "hit": false,
      "t": 178863.4575000014,
      "d": 814.3931250000023,
      "v": 88
    },
    {
      "midi": 76,
      "hit": false,
      "t": 179318.0025000014,
      "d": 681.8174999999756,
      "v": 88
    },
    {
      "midi": 60,
      "hit": false,
      "t": 179772.54750000138,
      "d": 407.19656250000116,
      "v": 88
    },
    {
      "midi": 76,
      "hit": false,
      "t": 179999.82000000137,
      "d": 203.59828125001513,
      "v": 88
    },
    {
      "midi": 59,
      "hit": false,
      "t": 180227.0925000014,
      "d": 407.19656250000116,
      "v": 88
    },
    {
      "midi": 76,
      "hit": false,
      "t": 180227.0925000014,
      "d": 1226.3245312500221,
      "v": 88
    },
    {
      "midi": 60,
      "hit": false,
      "t": 180681.6375000014,
      "d": 407.19656250000116,
      "v": 88
    },
    {
      "midi": 62,
      "hit": false,
      "t": 181136.18250000142,
      "d": 407.19656250000116,
      "v": 88
    },
    {
      "midi": 64,
      "hit": false,
      "t": 181590.72750000143,
      "d": 407.19656250000116,
      "v": 88
    },
    {
      "midi": 80,
      "hit": false,
      "t": 182045.27250000145,
      "d": 407.19656250000116,
      "v": 88
    },
    {
      "midi": 52,
      "hit": false,
      "t": 182045.27250000145,
      "d": 814.3931250000023,
      "v": 88
    },
    {
      "midi": 76,
      "hit": false,
      "t": 182499.81750000146,
      "d": 454.5449999999837,
      "v": 88
    },
    {
      "midi": 74,
      "hit": false,
      "t": 182954.36250000144,
      "d": 407.19656250000116,
      "v": 88
    },
    {
      "midi": 54,
      "hit": false,
      "t": 182954.36250000144,
      "d": 814.3931250000023,
      "v": 88
    },
    {
      "midi": 76,
      "hit": false,
      "t": 183408.90750000146,
      "d": 814.3931249999732,
      "v": 88
    },
    {
      "midi": 56,
      "hit": false,
      "t": 183863.45250000144,
      "d": 407.19656250000116,
      "v": 88
    },
    {
      "midi": 57,
      "hit": false,
      "t": 184317.99750000145,
      "d": 407.19656250000116,
      "v": 88
    },
    {
      "midi": 81,
      "hit": false,
      "t": 184317.99750000145,
      "d": 814.3931250000023,
      "v": 88
    },
    {
      "midi": 60,
      "hit": false,
      "t": 184772.54250000147,
      "d": 407.19656250000116,
      "v": 88
    },
    {
      "midi": 76,
      "hit": false,
      "t": 185227.08750000148,
      "d": 454.5450000000128,
      "v": 88
    },
    {
      "midi": 64,
      "hit": false,
      "t": 185227.08750000148,
      "d": 454.5450000000128,
      "v": 88
    },
    {
      "midi": 77,
      "hit": false,
      "t": 185681.6325000015,
      "d": 407.19656250000116,
      "v": 88
    },
    {
      "midi": 57,
      "hit": false,
      "t": 185681.6325000015,
      "d": 407.19656250000116,
      "v": 88
    },
    {
      "midi": 76,
      "hit": false,
      "t": 186136.1775000015,
      "d": 407.19656250000116,
      "v": 88
    },
    {
      "midi": 61,
      "hit": false,
      "t": 186136.1775000015,
      "d": 407.19656250000116,
      "v": 88
    },
    {
      "midi": 79,
      "hit": false,
      "t": 186590.72250000152,
      "d": 407.19656250000116,
      "v": 88
    },
    {
      "midi": 64,
      "hit": false,
      "t": 186590.72250000152,
      "d": 407.19656250000116,
      "v": 88
    },
    {
      "midi": 50,
      "hit": false,
      "t": 187045.26750000153,
      "d": 407.19656250000116,
      "v": 88
    },
    {
      "midi": 77,
      "hit": false,
      "t": 187045.26750000153,
      "d": 1226.3245312500221,
      "v": 88
    },
    {
      "midi": 53,
      "hit": false,
      "t": 187499.81250000154,
      "d": 407.19656250000116,
      "v": 88
    },
    {
      "midi": 57,
      "hit": false,
      "t": 187954.35750000156,
      "d": 407.19656250000116,
      "v": 88
    },
    {
      "midi": 62,
      "hit": false,
      "t": 188408.90250000157,
      "d": 407.19656250000116,
      "v": 88
    },
    {
      "midi": 69,
      "hit": false,
      "t": 188408.90250000157,
      "d": 1226.3245312500221,
      "v": 88
    },
    {
      "midi": 57,
      "hit": false,
      "t": 188863.44750000158,
      "d": 407.19656250000116,
      "v": 88
    },
    {
      "midi": 53,
      "hit": false,
      "t": 189317.9925000016,
      "d": 407.19656250000116,
      "v": 88
    },
    {
      "midi": 67,
      "hit": false,
      "t": 189772.5375000016,
      "d": 610.7948437499872,
      "v": 88
    },
    {
      "midi": 55,
      "hit": false,
      "t": 189999.8100000016,
      "d": 407.19656250000116,
      "v": 88
    },
    {
      "midi": 69,
      "hit": false,
      "t": 190227.0825000016,
      "d": 203.59828125001513,
      "v": 88
    },
    {
      "midi": 67,
      "hit": false,
      "t": 190454.3550000016,
      "d": 407.19656250000116,
      "v": 88
    },
    {
      "midi": 53,
      "hit": false,
      "t": 190454.3550000016,
      "d": 407.19656250000116,
      "v": 88
    },
    {
      "midi": 67,
      "hit": false,
      "t": 190908.90000000162,
      "d": 407.19656250000116,
      "v": 88
    },
    {
      "midi": 52,
      "hit": false,
      "t": 190908.90000000162,
      "d": 407.19656250000116,
      "v": 88
    },
    {
      "midi": 72,
      "hit": false,
      "t": 191363.44500000164,
      "d": 407.19656250000116,
      "v": 88
    },
    {
      "midi": 55,
      "hit": false,
      "t": 191363.44500000164,
      "d": 407.19656250000116,
      "v": 88
    },
    {
      "midi": 60,
      "hit": false,
      "t": 191817.99000000165,
      "d": 407.19656250000116,
      "v": 88
    },
    {
      "midi": 51,
      "hit": false,
      "t": 192272.53500000166,
      "d": 407.19656250000116,
      "v": 88
    },
    {
      "midi": 71,
      "hit": false,
      "t": 192272.53500000166,
      "d": 610.7948437500163,
      "v": 88
    },
    {
      "midi": 54,
      "hit": false,
      "t": 192727.08000000168,
      "d": 407.19656250000116,
      "v": 88
    },
    {
      "midi": 72,
      "hit": false,
      "t": 192954.35250000167,
      "d": 227.27250000002095,
      "v": 88
    },
    {
      "midi": 71,
      "hit": false,
      "t": 193181.6250000017,
      "d": 407.19656250000116,
      "v": 88
    },
    {
      "midi": 59,
      "hit": false,
      "t": 193181.6250000017,
      "d": 407.19656250000116,
      "v": 88
    },
    {
      "midi": 71,
      "hit": false,
      "t": 193636.1700000017,
      "d": 454.5450000000128,
      "v": 88
    },
    {
      "midi": 52,
      "hit": false,
      "t": 193636.1700000017,
      "d": 454.5450000000128,
      "v": 88
    },
    {
      "midi": 76,
      "hit": false,
      "t": 194090.7150000017,
      "d": 407.19656250000116,
      "v": 88
    },
    {
      "midi": 55,
      "hit": false,
      "t": 194090.7150000017,
      "d": 407.19656250000116,
      "v": 88
    },
    {
      "midi": 59,
      "hit": false,
      "t": 194545.26000000173,
      "d": 407.19656250000116,
      "v": 88
    },
    {
      "midi": 50,
      "hit": false,
      "t": 194999.80500000174,
      "d": 407.19656250000116,
      "v": 88
    },
    {
      "midi": 74,
      "hit": false,
      "t": 194999.80500000174,
      "d": 610.7948437500163,
      "v": 88
    },
    {
      "midi": 55,
      "hit": false,
      "t": 195454.35000000175,
      "d": 407.19656250000116,
      "v": 88
    },
    {
      "midi": 76,
      "hit": false,
      "t": 195681.62250000174,
      "d": 203.59828125001513,
      "v": 88
    },
    {
      "midi": 74,
      "hit": false,
      "t": 195908.89500000176,
      "d": 454.5450000000128,
      "v": 88
    },
    {
      "midi": 57,
      "hit": false,
      "t": 195908.89500000176,
      "d": 454.5450000000128,
      "v": 88
    },
    {
      "midi": 74,
      "hit": false,
      "t": 196363.44000000178,
      "d": 407.19656250000116,
      "v": 88
    },
    {
      "midi": 50,
      "hit": false,
      "t": 196363.44000000178,
      "d": 407.19656250000116,
      "v": 88
    },
    {
      "midi": 76,
      "hit": false,
      "t": 196817.9850000018,
      "d": 407.19656250000116,
      "v": 88
    },
    {
      "midi": 57,
      "hit": false,
      "t": 196817.9850000018,
      "d": 407.19656250000116,
      "v": 88
    },
    {
      "midi": 78,
      "hit": false,
      "t": 197272.5300000018,
      "d": 407.19656250000116,
      "v": 88
    },
    {
      "midi": 60,
      "hit": false,
      "t": 197272.5300000018,
      "d": 407.19656250000116,
      "v": 88
    },
    {
      "midi": 81,
      "hit": false,
      "t": 197727.07500000182,
      "d": 407.19656250000116,
      "v": 88
    },
    {
      "midi": 55,
      "hit": false,
      "t": 197727.07500000182,
      "d": 407.19656250000116,
      "v": 88
    },
    {
      "midi": 60,
      "hit": false,
      "t": 198181.62000000183,
      "d": 407.19656250000116,
      "v": 88
    },
    {
      "midi": 79,
      "hit": false,
      "t": 198181.62000000183,
      "d": 610.7948437500163,
      "v": 88
    },
    {
      "midi": 62,
      "hit": false,
      "t": 198636.16500000184,
      "d": 407.19656250000116,
      "v": 88
    },
    {
      "midi": 81,
      "hit": false,
      "t": 198863.43750000183,
      "d": 203.59828125001513,
      "v": 88
    },
    {
      "midi": 76,
      "hit": false,
      "t": 199090.71000000185,
      "d": 407.19656250000116,
      "v": 88
    },
    {
      "midi": 55,
      "hit": false,
      "t": 199090.71000000185,
      "d": 407.19656250000116,
      "v": 88
    },
    {
      "midi": 60,
      "hit": false,
      "t": 199545.25500000187,
      "d": 407.19656250000116,
      "v": 88
    },
    {
      "midi": 74,
      "hit": false,
      "t": 199545.25500000187,
      "d": 814.3931250000023,
      "v": 88
    },
    {
      "midi": 62,
      "hit": false,
      "t": 199999.80000000188,
      "d": 407.19656250000116,
      "v": 88
    },
    {
      "midi": 55,
      "hit": false,
      "t": 200454.3450000019,
      "d": 407.19656250000116,
      "v": 88
    },
    {
      "midi": 69,
      "hit": false,
      "t": 200908.8900000019,
      "d": 407.19656250000116,
      "v": 88
    },
    {
      "midi": 67,
      "hit": false,
      "t": 201363.43500000192,
      "d": 407.19656250000116,
      "v": 88
    },
    {
      "midi": 65,
      "hit": false,
      "t": 201817.98000000193,
      "d": 407.19656250000116,
      "v": 88
    },
    {
      "midi": 64,
      "hit": false,
      "t": 202272.52500000194,
      "d": 407.19656250000116,
      "v": 88
    },
    {
      "midi": 67,
      "hit": false,
      "t": 202727.07000000196,
      "d": 407.19656250000116,
      "v": 88
    },
    {
      "midi": 62,
      "hit": false,
      "t": 202727.07000000196,
      "d": 407.19656250000116,
      "v": 88
    },
    {
      "midi": 60,
      "hit": false,
      "t": 203181.61500000197,
      "d": 407.19656250000116,
      "v": 88
    },
    {
      "midi": 72,
      "hit": false,
      "t": 203181.61500000197,
      "d": 610.7948437500163,
      "v": 88
    },
    {
      "midi": 64,
      "hit": false,
      "t": 203636.16000000198,
      "d": 407.19656250000116,
      "v": 88
    },
    {
      "midi": 67,
      "hit": false,
      "t": 203863.43250000197,
      "d": 203.59828125001513,
      "v": 88
    },
    {
      "midi": 72,
      "hit": false,
      "t": 204090.705000002,
      "d": 203.59828124998603,
      "v": 88
    },
    {
      "midi": 67,
      "hit": false,
      "t": 204090.705000002,
      "d": 407.19656250000116,
      "v": 88
    },
    {
      "midi": 74,
      "hit": false,
      "t": 204317.977500002,
      "d": 203.59828125001513,
      "v": 88
    },
    {
      "midi": 52,
      "hit": false,
      "t": 204545.250000002,
      "d": 407.19656250000116,
      "v": 88
    },
    {
      "midi": 76,
      "hit": false,
      "t": 204545.250000002,
      "d": 814.3931250000023,
      "v": 88
    },
    {
      "midi": 56,
      "hit": false,
      "t": 204999.79500000202,
      "d": 407.19656250000116,
      "v": 88
    },
    {
      "midi": 72,
      "hit": false,
      "t": 205454.34000000203,
      "d": 454.5450000000128,
      "v": 88
    },
    {
      "midi": 60,
      "hit": false,
      "t": 205454.34000000203,
      "d": 454.5450000000128,
      "v": 88
    },
    {
      "midi": 53,
      "hit": false,
      "t": 205908.88500000205,
      "d": 407.19656250000116,
      "v": 88
    },
    {
      "midi": 77,
      "hit": false,
      "t": 205908.88500000205,
      "d": 610.7948437500163,
      "v": 88
    },
    {
      "midi": 57,
      "hit": false,
      "t": 206363.43000000206,
      "d": 407.19656250000116,
      "v": 88
    },
    {
      "midi": 72,
      "hit": false,
      "t": 206590.70250000205,
      "d": 203.59828125001513,
      "v": 88
    },
    {
      "midi": 77,
      "hit": false,
      "t": 206817.97500000207,
      "d": 203.59828124998603,
      "v": 88
    },
    {
      "midi": 60,
      "hit": false,
      "t": 206817.97500000207,
      "d": 407.19656250000116,
      "v": 88
    },
    {
      "midi": 79,
      "hit": false,
      "t": 207045.24750000206,
      "d": 203.59828125001513,
      "v": 88
    },
    {
      "midi": 54,
      "hit": false,
      "t": 207272.52000000208,
      "d": 407.19656250000116,
      "v": 88
    },
    {
      "midi": 81,
      "hit": false,
      "t": 207272.52000000208,
      "d": 814.3931250000023,
      "v": 88
    },
    {
      "midi": 57,
      "hit": false,
      "t": 207727.0650000021,
      "d": 407.19656250000116,
      "v": 88
    },
    {
      "midi": 83,
      "hit": false,
      "t": 208181.6100000021,
      "d": 203.59828124998603,
      "v": 88
    },
    {
      "midi": 60,
      "hit": false,
      "t": 208181.6100000021,
      "d": 407.19656250000116,
      "v": 88
    },
    {
      "midi": 81,
      "hit": false,
      "t": 208408.8825000021,
      "d": 203.59828125001513,
      "v": 88
    },
    {
      "midi": 79,
      "hit": false,
      "t": 208636.15500000212,
      "d": 407.19656250000116,
      "v": 88
    },
    {
      "midi": 55,
      "hit": false,
      "t": 208636.15500000212,
      "d": 407.19656250000116,
      "v": 88
    },
    {
      "midi": 76,
      "hit": false,
      "t": 209090.70000000214,
      "d": 407.19656250000116,
      "v": 88
    },
    {
      "midi": 60,
      "hit": false,
      "t": 209090.70000000214,
      "d": 407.19656250000116,
      "v": 88
    },
    {
      "midi": 72,
      "hit": false,
      "t": 209545.24500000215,
      "d": 407.19656250000116,
      "v": 88
    },
    {
      "midi": 64,
      "hit": false,
      "t": 209545.24500000215,
      "d": 407.19656250000116,
      "v": 88
    },
    {
      "midi": 69,
      "hit": false,
      "t": 209999.79000000216,
      "d": 407.19656250000116,
      "v": 88
    },
    {
      "midi": 57,
      "hit": false,
      "t": 209999.79000000216,
      "d": 407.19656250000116,
      "v": 88
    },
    {
      "midi": 60,
      "hit": false,
      "t": 210454.33500000217,
      "d": 407.19656250000116,
      "v": 88
    },
    {
      "midi": 67,
      "hit": false,
      "t": 210908.8800000022,
      "d": 407.19656250000116,
      "v": 88
    },
    {
      "midi": 64,
      "hit": false,
      "t": 210908.8800000022,
      "d": 407.19656250000116,
      "v": 88
    },
    {
      "midi": 50,
      "hit": false,
      "t": 211363.4250000022,
      "d": 407.19656250000116,
      "v": 88
    },
    {
      "midi": 76,
      "hit": false,
      "t": 211363.4250000022,
      "d": 814.3931250000023,
      "v": 88
    },
    {
      "midi": 60,
      "hit": false,
      "t": 211817.9700000022,
      "d": 407.19656250000116,
      "v": 88
    },
    {
      "midi": 57,
      "hit": false,
      "t": 211817.9700000022,
      "d": 407.19656250000116,
      "v": 88
    },
    {
      "midi": 74,
      "hit": false,
      "t": 212272.51500000223,
      "d": 203.59828124998603,
      "v": 88
    },
    {
      "midi": 59,
      "hit": false,
      "t": 212272.51500000223,
      "d": 407.19656250000116,
      "v": 88
    },
    {
      "midi": 55,
      "hit": false,
      "t": 212272.51500000223,
      "d": 407.19656250000116,
      "v": 88
    },
    {
      "midi": 72,
      "hit": false,
      "t": 212499.78750000222,
      "d": 203.59828125001513,
      "v": 88
    },
    {
      "midi": 57,
      "hit": false,
      "t": 212727.06000000224,
      "d": 407.19656250000116,
      "v": 88
    },
    {
      "midi": 53,
      "hit": false,
      "t": 212727.06000000224,
      "d": 407.19656250000116,
      "v": 88
    },
    {
      "midi": 72,
      "hit": false,
      "t": 212727.06000000224,
      "d": 814.3931250000314,
      "v": 88
    },
    {
      "midi": 55,
      "hit": false,
      "t": 212954.33250000223,
      "d": 407.19656250003027,
      "v": 88
    },
    {
      "midi": 52,
      "hit": false,
      "t": 212954.33250000223,
      "d": 407.19656250003027,
      "v": 88
    },
    {
      "midi": 67,
      "hit": false,
      "t": 213181.60500000225,
      "d": 407.19656250003027,
      "v": 88
    },
    {
      "midi": 53,
      "hit": false,
      "t": 213181.60500000225,
      "d": 407.19656250003027,
      "v": 88
    },
    {
      "midi": 50,
      "hit": false,
      "t": 213181.60500000225,
      "d": 407.19656250003027,
      "v": 88
    },
    {
      "midi": 48,
      "hit": false,
      "t": 213636.1500000023,
      "d": 407.19656250000116,
      "v": 88
    },
    {
      "midi": 72,
      "hit": false,
      "t": 213636.1500000023,
      "d": 610.7948437500163,
      "v": 88
    },
    {
      "midi": 52,
      "hit": false,
      "t": 214090.6950000023,
      "d": 407.19656250000116,
      "v": 88
    },
    {
      "midi": 67,
      "hit": false,
      "t": 214317.9675000023,
      "d": 203.59828125001513,
      "v": 88
    },
    {
      "midi": 72,
      "hit": false,
      "t": 214545.24000000232,
      "d": 203.59828124998603,
      "v": 88
    },
    {
      "midi": 55,
      "hit": false,
      "t": 214545.24000000232,
      "d": 407.19656250000116,
      "v": 88
    },
    {
      "midi": 74,
      "hit": false,
      "t": 214772.5125000023,
      "d": 203.59828125001513,
      "v": 88
    },
    {
      "midi": 48,
      "hit": false,
      "t": 214999.78500000233,
      "d": 407.19656250000116,
      "v": 88
    },
    {
      "midi": 76,
      "hit": false,
      "t": 214999.78500000233,
      "d": 814.3931250000023,
      "v": 88
    },
    {
      "midi": 55,
      "hit": false,
      "t": 215454.33000000234,
      "d": 407.19656250000116,
      "v": 88
    },
    {
      "midi": 72,
      "hit": false,
      "t": 215908.87500000236,
      "d": 407.19656250000116,
      "v": 88
    },
    {
      "midi": 58,
      "hit": false,
      "t": 215908.87500000236,
      "d": 407.19656250000116,
      "v": 88
    },
    {
      "midi": 53,
      "hit": false,
      "t": 216363.42000000237,
      "d": 407.19656250000116,
      "v": 88
    },
    {
      "midi": 77,
      "hit": false,
      "t": 216363.42000000237,
      "d": 610.7948437500163,
      "v": 88
    },
    {
      "midi": 57,
      "hit": false,
      "t": 216817.96500000238,
      "d": 407.19656250000116,
      "v": 88
    },
    {
      "midi": 72,
      "hit": false,
      "t": 217045.23750000237,
      "d": 203.59828125001513,
      "v": 88
    },
    {
      "midi": 77,
      "hit": false,
      "t": 217272.5100000024,
      "d": 203.59828124998603,
      "v": 88
    },
    {
      "midi": 60,
      "hit": false,
      "t": 217272.5100000024,
      "d": 407.19656250000116,
      "v": 88
    },
    {
      "midi": 79,
      "hit": false,
      "t": 217499.7825000024,
      "d": 203.59828125001513,
      "v": 88
    },
    {
      "midi": 54,
      "hit": false,
      "t": 217727.0550000024,
      "d": 407.19656250000116,
      "v": 88
    },
    {
      "midi": 81,
      "hit": false,
      "t": 217727.0550000024,
      "d": 814.3931250000023,
      "v": 88
    },
    {
      "midi": 57,
      "hit": false,
      "t": 218181.60000000242,
      "d": 407.19656250000116,
      "v": 88
    },
    {
      "midi": 83,
      "hit": false,
      "t": 218636.14500000243,
      "d": 203.59828124998603,
      "v": 88
    },
    {
      "midi": 60,
      "hit": false,
      "t": 218636.14500000243,
      "d": 407.19656250000116,
      "v": 88
    },
    {
      "midi": 81,
      "hit": false,
      "t": 218863.41750000243,
      "d": 203.59828125001513,
      "v": 88
    },
    {
      "midi": 79,
      "hit": false,
      "t": 219090.69000000245,
      "d": 407.19656250000116,
      "v": 88
    },
    {
      "midi": 55,
      "hit": false,
      "t": 219090.69000000245,
      "d": 814.3931250000023,
      "v": 88
    },
    {
      "midi": 76,
      "hit": false,
      "t": 219545.23500000246,
      "d": 407.19656250000116,
      "v": 88
    },
    {
      "midi": 72,
      "hit": false,
      "t": 219999.78000000247,
      "d": 407.19656250000116,
      "v": 88
    },
    {
      "midi": 52,
      "hit": false,
      "t": 219999.78000000247,
      "d": 407.19656250000116,
      "v": 88
    },
    {
      "midi": 69,
      "hit": false,
      "t": 220454.3250000025,
      "d": 814.3931250000023,
      "v": 88
    },
    {
      "midi": 53,
      "hit": false,
      "t": 220454.3250000025,
      "d": 814.3931250000023,
      "v": 88
    },
    {
      "midi": 67,
      "hit": false,
      "t": 221363.41500000248,
      "d": 407.19656250000116,
      "v": 88
    },
    {
      "midi": 52,
      "hit": false,
      "t": 221363.41500000248,
      "d": 407.19656250000116,
      "v": 88
    },
    {
      "midi": 50,
      "hit": false,
      "t": 221817.9600000025,
      "d": 203.59828124998603,
      "v": 88
    },
    {
      "midi": 76,
      "hit": false,
      "t": 221817.9600000025,
      "d": 407.19656250000116,
      "v": 88
    },
    {
      "midi": 53,
      "hit": false,
      "t": 222045.2325000025,
      "d": 203.59828125001513,
      "v": 88
    },
    {
      "midi": 57,
      "hit": false,
      "t": 222272.5050000025,
      "d": 203.59828124998603,
      "v": 88
    },
    {
      "midi": 60,
      "hit": false,
      "t": 222499.7775000025,
      "d": 203.59828124998603,
      "v": 88
    },
    {
      "midi": 64,
      "hit": false,
      "t": 222727.0500000025,
      "d": 203.59828124998603,
      "v": 88
    },
    {
      "midi": 65,
      "hit": false,
      "t": 222954.32250000248,
      "d": 203.59828124998603,
      "v": 88
    },
    {
      "midi": 69,
      "hit": false,
      "t": 223181.59500000247,
      "d": 203.59828124998603,
      "v": 88
    },
    {
      "midi": 72,
      "hit": false,
      "t": 223408.86750000247,
      "d": 203.59828124998603,
      "v": 88
    },
    {
      "midi": 76,
      "hit": false,
      "t": 223636.14000000246,
      "d": 203.59828124998603,
      "v": 88
    },
    {
      "midi": 77,
      "hit": false,
      "t": 223863.41250000245,
      "d": 203.59828124998603,
      "v": 88
    },
    {
      "midi": 81,
      "hit": false,
      "t": 224090.68500000244,
      "d": 203.59828124998603,
      "v": 88
    },
    {
      "midi": 84,
      "hit": false,
      "t": 224317.95750000243,
      "d": 203.59828124998603,
      "v": 88
    },
    {
      "midi": 88,
      "hit": false,
      "t": 224545.23000000243,
      "d": 814.3931250000023,
      "v": 88
    },
    {
      "midi": 84,
      "hit": false,
      "t": 224545.23000000243,
      "d": 814.3931250000023,
      "v": 88
    },
    {
      "midi": 81,
      "hit": false,
      "t": 224545.23000000243,
      "d": 814.3931250000023,
      "v": 88
    },
    {
      "midi": 77,
      "hit": false,
      "t": 224545.23000000243,
      "d": 814.3931250000023,
      "v": 88
    },
    {
      "midi": 74,
      "hit": false,
      "t": 224545.23000000243,
      "d": 814.3931250000023,
      "v": 88
    },
    {
      "midi": 79,
      "hit": false,
      "t": 225908.86500000244,
      "d": 814.3931250000023,
      "v": 88
    },
    {
      "midi": 77,
      "hit": false,
      "t": 225908.86500000244,
      "d": 814.3931250000023,
      "v": 88
    },
    {
      "midi": 67,
      "hit": false,
      "t": 225908.86500000244,
      "d": 814.3931250000023,
      "v": 88
    },
    {
      "midi": 76,
      "hit": false,
      "t": 226817.95500000243,
      "d": 407.19656250000116,
      "v": 88
    },
    {
      "midi": 79,
      "hit": false,
      "t": 227272.50000000244,
      "d": 610.7948437499872,
      "v": 88
    },
    {
      "midi": 71,
      "hit": false,
      "t": 227272.50000000244,
      "d": 1226.324531249964,
      "v": 88
    },
    {
      "midi": 79,
      "hit": false,
      "t": 227954.31750000242,
      "d": 203.59828124998603,
      "v": 88
    },
    {
      "midi": 76,
      "hit": false,
      "t": 228181.5900000024,
      "d": 203.59828124998603,
      "v": 88
    },
    {
      "midi": 72,
      "hit": false,
      "t": 228408.8625000024,
      "d": 89.96203125000466,
      "v": 88
    },
    {
      "midi": 76,
      "hit": false,
      "t": 228636.13500000242,
      "d": 610.7948437499872,
      "v": 88
    },
    {
      "midi": 67,
      "hit": false,
      "t": 228636.13500000242,
      "d": 1226.324531249964,
      "v": 88
    },
    {
      "midi": 76,
      "hit": false,
      "t": 229317.9525000024,
      "d": 203.59828124998603,
      "v": 88
    },
    {
      "midi": 72,
      "hit": false,
      "t": 229545.2250000024,
      "d": 203.59828124998603,
      "v": 88
    },
    {
      "midi": 69,
      "hit": false,
      "t": 229772.49750000238,
      "d": 89.96203125000466,
      "v": 88
    },
    {
      "midi": 84,
      "hit": false,
      "t": 229999.7700000024,
      "d": 610.7948437499872,
      "v": 88
    },
    {
      "midi": 69,
      "hit": false,
      "t": 229999.7700000024,
      "d": 1226.324531249964,
      "v": 88
    },
    {
      "midi": 65,
      "hit": false,
      "t": 229999.7700000024,
      "d": 1226.324531249964,
      "v": 88
    },
    {
      "midi": 64,
      "hit": false,
      "t": 229999.7700000024,
      "d": 1226.324531249964,
      "v": 88
    },
    {
      "midi": 84,
      "hit": false,
      "t": 230681.58750000238,
      "d": 203.59828124998603,
      "v": 88
    },
    {
      "midi": 81,
      "hit": false,
      "t": 230908.86000000237,
      "d": 203.59828124998603,
      "v": 88
    },
    {
      "midi": 77,
      "hit": false,
      "t": 231136.13250000236,
      "d": 203.59828125001513,
      "v": 88
    },
    {
      "midi": 81,
      "hit": false,
      "t": 231363.40500000239,
      "d": 610.7948437499872,
      "v": 88
    },
    {
      "midi": 65,
      "hit": false,
      "t": 231363.40500000239,
      "d": 1226.324531249964,
      "v": 88
    },
    {
      "midi": 62,
      "hit": false,
      "t": 231363.40500000239,
      "d": 1226.324531249964,
      "v": 88
    },
    {
      "midi": 60,
      "hit": false,
      "t": 231363.40500000239,
      "d": 1226.324531249964,
      "v": 88
    },
    {
      "midi": 81,
      "hit": false,
      "t": 232045.22250000236,
      "d": 203.59828124998603,
      "v": 88
    },
    {
      "midi": 77,
      "hit": false,
      "t": 232272.49500000235,
      "d": 203.59828124998603,
      "v": 88
    },
    {
      "midi": 74,
      "hit": false,
      "t": 232499.76750000234,
      "d": 203.59828125001513,
      "v": 88
    },
    {
      "midi": 77,
      "hit": false,
      "t": 232727.04000000237,
      "d": 203.59828124998603,
      "v": 88
    },
    {
      "midi": 62,
      "hit": false,
      "t": 232727.04000000237,
      "d": 1226.324531249964,
      "v": 88
    },
    {
      "midi": 58,
      "hit": false,
      "t": 232727.04000000237,
      "d": 1226.324531249964,
      "v": 88
    },
    {
      "midi": 76,
      "hit": false,
      "t": 232954.31250000236,
      "d": 203.59828124998603,
      "v": 88
    },
    {
      "midi": 74,
      "hit": false,
      "t": 233181.58500000235,
      "d": 203.59828124998603,
      "v": 88
    },
    {
      "midi": 72,
      "hit": false,
      "t": 233408.85750000234,
      "d": 203.59828124998603,
      "v": 88
    },
    {
      "midi": 69,
      "hit": false,
      "t": 233636.13000000233,
      "d": 203.59828124998603,
      "v": 88
    },
    {
      "midi": 65,
      "hit": false,
      "t": 233863.40250000232,
      "d": 203.59828125001513,
      "v": 88
    },
    {
      "midi": 72,
      "hit": false,
      "t": 234090.67500000235,
      "d": 203.59828124998603,
      "v": 88
    },
    {
      "midi": 56,
      "hit": false,
      "t": 234090.67500000235,
      "d": 1226.324531249964,
      "v": 88
    },
    {
      "midi": 70,
      "hit": false,
      "t": 234317.94750000234,
      "d": 203.59828124998603,
      "v": 88
    },
    {
      "midi": 67,
      "hit": false,
      "t": 234545.22000000233,
      "d": 203.59828124998603,
      "v": 88
    },
    {
      "midi": 65,
      "hit": false,
      "t": 234772.49250000232,
      "d": 203.59828124998603,
      "v": 88
    },
    {
      "midi": 60,
      "hit": false,
      "t": 234999.7650000023,
      "d": 203.59828124998603,
      "v": 88
    },
    {
      "midi": 65,
      "hit": false,
      "t": 235227.0375000023,
      "d": 203.59828125001513,
      "v": 88
    },
    {
      "midi": 48,
      "hit": false,
      "t": 235454.31000000233,
      "d": 203.59828124998603,
      "v": 88
    },
    {
      "midi": 64,
      "hit": false,
      "t": 235454.31000000233,
      "d": 407.19656250000116,
      "v": 88
    },
    {
      "midi": 55,
      "hit": false,
      "t": 235681.58250000232,
      "d": 203.59828125001513,
      "v": 88
    },
    {
      "midi": 60,
      "hit": false,
      "t": 235908.85500000234,
      "d": 203.59828124998603,
      "v": 88
    },
    {
      "midi": 62,
      "hit": false,
      "t": 236136.12750000233,
      "d": 203.59828124998603,
      "v": 88
    },
    {
      "midi": 64,
      "hit": false,
      "t": 236363.40000000232,
      "d": 203.59828124998603,
      "v": 88
    },
    {
      "midi": 69,
      "hit": false,
      "t": 236590.6725000023,
      "d": 203.59828124998603,
      "v": 88
    },
    {
      "midi": 60,
      "hit": false,
      "t": 236817.9450000023,
      "d": 2452.649062500015,
      "v": 88
    },
    {
      "midi": 64,
      "hit": false,
      "t": 236893.7025000023,
      "d": 2376.891562500008,
      "v": 88
    },
    {
      "midi": 67,
      "hit": false,
      "t": 236969.46000000232,
      "d": 2301.134062500001,
      "v": 88
    },
    {
      "midi": 71,
      "hit": false,
      "t": 237045.21750000233,
      "d": 2225.376562499994,
      "v": 88
    },
    {
      "midi": 74,
      "hit": false,
      "t": 237120.97500000233,
      "d": 2149.619062499987,
      "v": 88
    }
  ]
}