{
  "jsonPath": "Animes/Card Captor Sakura MIDI Collection/yoru-no-uta.json",
  "path": "Animes\\Card Captor Sakura MIDI Collection\\Yoru No Uta.mid",
  "name": "Yoru No Uta",
  "difficulty": "Advanced",
  "bpm": 105.000105000105,
  "notes": [
    {
      "midi": 83,
      "hit": false,
      "t": 3000,
      "d": 950,
      "v": 88
    },
    {
      "midi": 74,
      "hit": false,
      "t": 3000,
      "d": 950,
      "v": 88
    },
    {
      "midi": 79,
      "hit": false,
      "t": 3500,
      "d": 475,
      "v": 88
    },
    {
      "midi": 84,
      "hit": false,
      "t": 4000,
      "d": 950,
      "v": 88
    },
    {
      "midi": 76,
      "hit": false,
      "t": 4000,
      "d": 950,
      "v": 88
    },
    {
      "midi": 79,
      "hit": false,
      "t": 4500,
      "d": 475,
      "v": 88
    },
    {
      "midi": 86,
      "hit": false,
      "t": 5000,
      "d": 950,
      "v": 88
    },
    {
      "midi": 77,
      "hit": false,
      "t": 5000,
      "d": 950,
      "v": 88
    },
    {
      "midi": 79,
      "hit": false,
      "t": 5500,
      "d": 475,
      "v": 88
    },
    {
      "midi": 84,
      "hit": false,
      "t": 6000,
      "d": 950,
      "v": 88
    },
    {
      "midi": 76,
      "hit": false,
      "t": 6000,
      "d": 950,
      "v": 88
    },
    {
      "midi": 79,
      "hit": false,
      "t": 6500,
      "d": 475,
      "v": 88
    },
    {
      "midi": 83,
      "hit": false,
      "t": 7000,
      "d": 950,
      "v": 88
    },
    {
      "midi": 74,
      "hit": false,
      "t": 7000,
      "d": 950,
      "v": 88
    },
    {
      "midi": 79,
      "hit": false,
      "t": 7500,
      "d": 475,
      "v": 88
    },
    {
      "midi": 84,
      "hit": false,
      "t": 8000,
      "d": 950,
      "v": 88
    },
    {
      "midi": 76,
      "hit": false,
      "t": 8000,
      "d": 950,
      "v": 88
    },
    {
      "midi": 79,
      "hit": false,
      "t": 8500,
      "d": 475,
      "v": 88
    },
    {
      "midi": 81,
      "hit": false,
      "t": 9000,
      "d": 950,
      "v": 88
    },
    {
      "midi": 72,
      "hit": false,
      "t": 9000,
      "d": 950,
      "v": 88
    },
    {
      "midi": 77,
      "hit": false,
      "t": 9500,
      "d": 475,
      "v": 88
    },
    {
      "midi": 83,
      "hit": false,
      "t": 10000,
      "d": 950,
      "v": 88
    },
    {
      "midi": 74,
      "hit": false,
      "t": 10000,
      "d": 950,
      "v": 88
    },
    {
      "midi": 77,
      "hit": false,
      "t": 10500,
      "d": 475,
      "v": 88
    },
    {
      "midi": 84,
      "hit": false,
      "t": 11000,
      "d": 950,
      "v": 88
    },
    {
      "midi": 76,
      "hit": false,
      "t": 11000,
      "d": 950,
      "v": 88
    },
    {
      "midi": 77,
      "hit": false,
      "t": 11500,
      "d": 475,
      "v": 88
    },
    {
      "midi": 83,
      "hit": false,
      "t": 12000,
      "d": 950,
      "v": 88
    },
    {
      "midi": 74,
      "hit": false,
      "t": 12000,
      "d": 950,
      "v": 88
    },
    {
      "midi": 77,
      "hit": false,
      "t": 12500,
      "d": 475,
      "v": 88
    },
    {
      "midi": 81,
      "hit": false,
      "t": 13000,
      "d": 950,
      "v": 88
    },
    {
      "midi": 72,
      "hit": false,
      "t": 13000,
      "d": 950,
      "v": 88
    },
    {
      "midi": 77,
      "hit": false,
      "t": 13500,
      "d": 475,
      "v": 88
    },
    {
      "midi": 83,
      "hit": false,
      "t": 14000,
      "d": 950,
      "v": 88
    },
    {
      "midi": 74,
      "hit": false,
      "t": 14000,
      "d": 950,
      "v": 88
    },
    {
      "midi": 77,
      "hit": false,
      "t": 14500,
      "d": 475,
      "v": 88
    },
    {
      "midi": 62,
      "hit": false,
      "t": 15000,
      "d": 2850,
      "v": 88
    },
    {
      "midi": 59,
      "hit": false,
      "t": 15000,
      "d": 2850,
      "v": 88
    },
    {
      "midi": 67,
      "hit": false,
      "t": 15000,
      "d": 2850,
      "v": 88
    },
    {
      "midi": 40,
      "hit": false,
      "t": 15000,
      "d": 475,
      "v": 88
    },
    {
      "midi": 47,
      "hit": false,
      "t": 15500,
      "d": 475,
      "v": 88
    },
    {
      "midi": 55,
      "hit": false,
      "t": 16000,
      "d": 475,
      "v": 88
    },
    {
      "midi": 59,
      "hit": false,
      "t": 16500,
      "d": 475,
      "v": 88
    },
    {
      "midi": 62,
      "hit": false,
      "t": 17000,
      "d": 475,
      "v": 88
    },
    {
      "midi": 67,
      "hit": false,
      "t": 17500,
      "d": 475,
      "v": 88
    },
    {
      "midi": 60,
      "hit": false,
      "t": 18000,
      "d": 950,
      "v": 88
    },
    {
      "midi": 67,
      "hit": false,
      "t": 18000,
      "d": 950,
      "v": 88
    },
    {
      "midi": 45,
      "hit": false,
      "t": 18000,
      "d": 475,
      "v": 88
    },
    {
      "midi": 52,
      "hit": false,
      "t": 18500,
      "d": 475,
      "v": 88
    },
    {
      "midi": 65,
      "hit": false,
      "t": 19000,
      "d": 950,
      "v": 88
    },
    {
      "midi": 55,
      "hit": false,
      "t": 19000,
      "d": 1900,
      "v": 88
    },
    {
      "midi": 64,
      "hit": false,
      "t": 20000,
      "d": 950,
      "v": 88
    },
    {
      "midi": 60,
      "hit": false,
      "t": 20000,
      "d": 950,
      "v": 88
    },
    {
      "midi": 55,
      "hit": false,
      "t": 20000,
      "d": 950,
      "v": 88
    },
    {
      "midi": 65,
      "hit": false,
      "t": 21000,
      "d": 2850,
      "v": 88
    },
    {
      "midi": 60,
      "hit": false,
      "t": 21000,
      "d": 2850,
      "v": 88
    },
    {
      "midi": 57,
      "hit": false,
      "t": 21000,
      "d": 2850,
      "v": 88
    },
    {
      "midi": 38,
      "hit": false,
      "t": 21000,
      "d": 475,
      "v": 88
    },
    {
      "midi": 45,
      "hit": false,
      "t": 21500,
      "d": 475,
      "v": 88
    },
    {
      "midi": 53,
      "hit": false,
      "t": 22000,
      "d": 475,
      "v": 88
    },
    {
      "midi": 57,
      "hit": false,
      "t": 22500,
      "d": 475,
      "v": 88
    },
    {
      "midi": 60,
      "hit": false,
      "t": 23000,
      "d": 475,
      "v": 88
    },
    {
      "midi": 65,
      "hit": false,
      "t": 23500,
      "d": 475,
      "v": 88
    },
    {
      "midi": 69,
      "hit": false,
      "t": 24000,
      "d": 2850,
      "v": 88
    },
    {
      "midi": 65,
      "hit": false,
      "t": 24000,
      "d": 2850,
      "v": 88
    },
    {
      "midi": 60,
      "hit": false,
      "t": 24000,
      "d": 2850,
      "v": 88
    },
    {
      "midi": 43,
      "hit": false,
      "t": 24000,
      "d": 475,
      "v": 88
    },
    {
      "midi": 50,
      "hit": false,
      "t": 24500,
      "d": 475,
      "v": 88
    },
    {
      "midi": 57,
      "hit": false,
      "t": 25000,
      "d": 475,
      "v": 88
    },
    {
      "midi": 60,
      "hit": false,
      "t": 25500,
      "d": 475,
      "v": 80
    },
    {
      "midi": 65,
      "hit": false,
      "t": 26000,
      "d": 475,
      "v": 68
    },
    {
      "midi": 69,
      "hit": false,
      "t": 26500,
      "d": 475,
      "v": 56
    },
    {
      "midi": 67,
      "hit": false,
      "t": 27000,
      "d": 950,
      "v": 88
    },
    {
      "midi": 62,
      "hit": false,
      "t": 27000,
      "d": 950,
      "v": 88
    },
    {
      "midi": 71,
      "hit": false,
      "t": 27000,
      "d": 950,
      "v": 88
    },
    {
      "midi": 67,
      "hit": false,
      "t": 28000,
      "d": 950,
      "v": 72
    },
    {
      "midi": 64,
      "hit": false,
      "t": 28000,
      "d": 950,
      "v": 78
    },
    {
      "midi": 72,
      "hit": false,
      "t": 28000,
      "d": 950,
      "v": 84
    },
    {
      "midi": 65,
      "hit": false,
      "t": 29000,
      "d": 950,
      "v": 64
    },
    {
      "midi": 74,
      "hit": false,
      "t": 29000,
      "d": 950,
      "v": 72
    },
    {
      "midi": 79,
      "hit": false,
      "t": 30000,
      "d": 475,
      "v": 58
    },
    {
      "midi": 91,
      "hit": false,
      "t": 30500,
      "d": 1900,
      "v": 66
    },
    {
      "midi": 72,
      "hit": false,
      "t": 33000,
      "d": 950,
      "v": 62
    },
    {
      "midi": 48,
      "hit": false,
      "t": 33000,
      "d": 475,
      "v": 72
    },
    {
      "midi": 55,
      "hit": false,
      "t": 33500,
      "d": 475,
      "v": 72
    },
    {
      "midi": 76,
      "hit": false,
      "t": 34000,
      "d": 950,
      "v": 74
    },
    {
      "midi": 60,
      "hit": false,
      "t": 34000,
      "d": 475,
      "v": 72
    },
    {
      "midi": 64,
      "hit": false,
      "t": 34500,
      "d": 475,
      "v": 72
    },
    {
      "midi": 79,
      "hit": false,
      "t": 35000,
      "d": 950,
      "v": 82
    },
    {
      "midi": 67,
      "hit": false,
      "t": 35000,
      "d": 475,
      "v": 72
    },
    {
      "midi": 76,
      "hit": false,
      "t": 36000,
      "d": 950,
      "v": 88
    },
    {
      "midi": 52,
      "hit": false,
      "t": 36000,
      "d": 475,
      "v": 72
    },
    {
      "midi": 55,
      "hit": false,
      "t": 36500,
      "d": 475,
      "v": 72
    },
    {
      "midi": 77,
      "hit": false,
      "t": 37000,
      "d": 950,
      "v": 88
    },
    {
      "midi": 60,
      "hit": false,
      "t": 37000,
      "d": 475,
      "v": 72
    },
    {
      "midi": 64,
      "hit": false,
      "t": 37500,
      "d": 475,
      "v": 72
    },
    {
      "midi": 79,
      "hit": false,
      "t": 38000,
      "d": 950,
      "v": 88
    },
    {
      "midi": 67,
      "hit": false,
      "t": 38000,
      "d": 950,
      "v": 72
    },
    {
      "midi": 81,
      "hit": false,
      "t": 39000,
      "d": 950,
      "v": 88
    },
    {
      "midi": 53,
      "hit": false,
      "t": 39000,
      "d": 475,
      "v": 72
    },
    {
      "midi": 60,
      "hit": false,
      "t": 39500,
      "d": 475,
      "v": 72
    },
    {
      "midi": 83,
      "hit": false,
      "t": 40000,
      "d": 950,
      "v": 88
    },
    {
      "midi": 65,
      "hit": false,
      "t": 40000,
      "d": 475,
      "v": 72
    },
    {
      "midi": 69,
      "hit": false,
      "t": 40500,
      "d": 475,
      "v": 72
    },
    {
      "midi": 84,
      "hit": false,
      "t": 41000,
      "d": 950,
      "v": 88
    },
    {
      "midi": 72,
      "hit": false,
      "t": 41000,
      "d": 950,
      "v": 72
    },
    {
      "midi": 79,
      "hit": false,
      "t": 42000,
      "d": 2850,
      "v": 88
    },
    {
      "midi": 52,
      "hit": false,
      "t": 42000,
      "d": 475,
      "v": 72
    },
    {
      "midi": 60,
      "hit": false,
      "t": 42500,
      "d": 475,
      "v": 72
    },
    {
      "midi": 64,
      "hit": false,
      "t": 43000,
      "d": 475,
      "v": 72
    },
    {
      "midi": 67,
      "hit": false,
      "t": 43500,
      "d": 475,
      "v": 72
    },
    {
      "midi": 72,
      "hit": false,
      "t": 44000,
      "d": 950,
      "v": 72
    },
    {
      "midi": 77,
      "hit": false,
      "t": 45000,
      "d": 1425,
      "v": 88
    },
    {
      "midi": 50,
      "hit": false,
      "t": 45000,
      "d": 475,
      "v": 72
    },
    {
      "midi": 57,
      "hit": false,
      "t": 45500,
      "d": 475,
      "v": 72
    },
    {
      "midi": 62,
      "hit": false,
      "t": 46000,
      "d": 475,
      "v": 72
    },
    {
      "midi": 79,
      "hit": false,
      "t": 46500,
      "d": 475,
      "v": 88
    },
    {
      "midi": 65,
      "hit": false,
      "t": 46500,
      "d": 475,
      "v": 72
    },
    {
      "midi": 77,
      "hit": false,
      "t": 47000,
      "d": 950,
      "v": 88
    },
    {
      "midi": 69,
      "hit": false,
      "t": 47000,
      "d": 950,
      "v": 72
    },
    {
      "midi": 76,
      "hit": false,
      "t": 48000,
      "d": 950,
      "v": 88
    },
    {
      "midi": 48,
      "hit": false,
      "t": 48000,
      "d": 475,
      "v": 72
    },
    {
      "midi": 55,
      "hit": false,
      "t": 48500,
      "d": 475,
      "v": 72
    },
    {
      "midi": 77,
      "hit": false,
      "t": 49000,
      "d": 950,
      "v": 88
    },
    {
      "midi": 60,
      "hit": false,
      "t": 49000,
      "d": 475,
      "v": 72
    },
    {
      "midi": 64,
      "hit": false,
      "t": 49500,
      "d": 475,
      "v": 72
    },
    {
      "midi": 79,
      "hit": false,
      "t": 50000,
      "d": 950,
      "v": 88
    },
    {
      "midi": 67,
      "hit": false,
      "t": 50000,
      "d": 950,
      "v": 72
    },
    {
      "midi": 74,
      "hit": false,
      "t": 51000,
      "d": 2850,
      "v": 88
    },
    {
      "midi": 55,
      "hit": false,
      "t": 51000,
      "d": 475,
      "v": 72
    },
    {
      "midi": 60,
      "hit": false,
      "t": 51500,
      "d": 475,
      "v": 72
    },
    {
      "midi": 62,
      "hit": false,
      "t": 52000,
      "d": 475,
      "v": 72
    },
    {
      "midi": 67,
      "hit": false,
      "t": 52500,
      "d": 475,
      "v": 72
    },
    {
      "midi": 62,
      "hit": false,
      "t": 53000,
      "d": 475,
      "v": 72
    },
    {
      "midi": 60,
      "hit": false,
      "t": 53500,
      "d": 475,
      "v": 72
    },
    {
      "midi": 74,
      "hit": false,
      "t": 54000,
      "d": 2850,
      "v": 88
    },
    {
      "midi": 55,
      "hit": false,
      "t": 54000,
      "d": 475,
      "v": 72
    },
    {
      "midi": 59,
      "hit": false,
      "t": 54500,
      "d": 475,
      "v": 72
    },
    {
      "midi": 62,
      "hit": false,
      "t": 55000,
      "d": 475,
      "v": 72
    },
    {
      "midi": 67,
      "hit": false,
      "t": 55500,
      "d": 475,
      "v": 72
    },
    {
      "midi": 71,
      "hit": false,
      "t": 56000,
      "d": 950,
      "v": 72
    },
    {
      "midi": 72,
      "hit": false,
      "t": 57000,
      "d": 950,
      "v": 88
    },
    {
      "midi": 48,
      "hit": false,
      "t": 57000,
      "d": 475,
      "v": 76
    },
    {
      "midi": 55,
      "hit": false,
      "t": 57500,
      "d": 475,
      "v": 76
    },
    {
      "midi": 76,
      "hit": false,
      "t": 58000,
      "d": 950,
      "v": 88
    },
    {
      "midi": 60,
      "hit": false,
      "t": 58000,
      "d": 475,
      "v": 76
    },
    {
      "midi": 64,
      "hit": false,
      "t": 58500,
      "d": 475,
      "v": 76
    },
    {
      "midi": 79,
      "hit": false,
      "t": 59000,
      "d": 950,
      "v": 88
    },
    {
      "midi": 67,
      "hit": false,
      "t": 59000,
      "d": 475,
      "v": 76
    },
    {
      "midi": 76,
      "hit": false,
      "t": 60000,
      "d": 950,
      "v": 88
    },
    {
      "midi": 52,
      "hit": false,
      "t": 60000,
      "d": 475,
      "v": 76
    },
    {
      "midi": 55,
      "hit": false,
      "t": 60500,
      "d": 475,
      "v": 76
    },
    {
      "midi": 77,
      "hit": false,
      "t": 61000,
      "d": 950,
      "v": 88
    },
    {
      "midi": 60,
      "hit": false,
      "t": 61000,
      "d": 475,
      "v": 76
    },
    {
      "midi": 64,
      "hit": false,
      "t": 61500,
      "d": 475,
      "v": 76
    },
    {
      "midi": 79,
      "hit": false,
      "t": 62000,
      "d": 950,
      "v": 88
    },
    {
      "midi": 67,
      "hit": false,
      "t": 62000,
      "d": 950,
      "v": 76
    },
    {
      "midi": 81,
      "hit": false,
      "t": 63000,
      "d": 950,
      "v": 88
    },
    {
      "midi": 53,
      "hit": false,
      "t": 63000,
      "d": 475,
      "v": 76
    },
    {
      "midi": 60,
      "hit": false,
      "t": 63500,
      "d": 475,
      "v": 76
    },
    {
      "midi": 83,
      "hit": false,
      "t": 64000,
      "d": 950,
      "v": 88
    },
    {
      "midi": 65,
      "hit": false,
      "t": 64000,
      "d": 475,
      "v": 76
    },
    {
      "midi": 69,
      "hit": false,
      "t": 64500,
      "d": 475,
      "v": 76
    },
    {
      "midi": 84,
      "hit": false,
      "t": 65000,
      "d": 950,
      "v": 88
    },
    {
      "midi": 72,
      "hit": false,
      "t": 65000,
      "d": 950,
      "v": 76
    },
    {
      "midi": 79,
      "hit": false,
      "t": 66000,
      "d": 2800,
      "v": 88
    },
    {
      "midi": 52,
      "hit": false,
      "t": 66000,
      "d": 475,
      "v": 76
    },
    {
      "midi": 60,
      "hit": false,
      "t": 66500,
      "d": 475,
      "v": 76
    },
    {
      "midi": 64,
      "hit": false,
      "t": 67000,
      "d": 475,
      "v": 76
    },
    {
      "midi": 67,
      "hit": false,
      "t": 67500,
      "d": 475,
      "v": 76
    },
    {
      "midi": 72,
      "hit": false,
      "t": 68000,
      "d": 950,
      "v": 76
    },
    {
      "midi": 84,
      "hit": false,
      "t": 69000,
      "d": 1425,
      "v": 88
    },
    {
      "midi": 57,
      "hit": false,
      "t": 69000,
      "d": 475,
      "v": 76
    },
    {
      "midi": 64,
      "hit": false,
      "t": 69500,
      "d": 475,
      "v": 76
    },
    {
      "midi": 69,
      "hit": false,
      "t": 70000,
      "d": 475,
      "v": 76
    },
    {
      "midi": 83,
      "hit": false,
      "t": 70500,
      "d": 475,
      "v": 88
    },
    {
      "midi": 59,
      "hit": false,
      "t": 70500,
      "d": 475,
      "v": 76
    },
    {
      "midi": 81,
      "hit": false,
      "t": 71000,
      "d": 950,
      "v": 88
    },
    {
      "midi": 60,
      "hit": false,
      "t": 71000,
      "d": 475,
      "v": 76
    },
    {
      "midi": 62,
      "hit": false,
      "t": 71500,
      "d": 475,
      "v": 76
    },
    {
      "midi": 79,
      "hit": false,
      "t": 72000,
      "d": 1900,
      "v": 88
    },
    {
      "midi": 64,
      "hit": false,
      "t": 72000,
      "d": 950,
      "v": 76
    },
    {
      "midi": 52,
      "hit": false,
      "t": 73000,
      "d": 950,
      "v": 76
    },
    {
      "midi": 72,
      "hit": false,
      "t": 74000,
      "d": 950,
      "v": 88
    },
    {
      "midi": 57,
      "hit": false,
      "t": 74000,
      "d": 950,
      "v": 76
    },
    {
      "midi": 74,
      "hit": false,
      "t": 75000,
      "d": 1425,
      "v": 88
    },
    {
      "midi": 50,
      "hit": false,
      "t": 75000,
      "d": 475,
      "v": 76
    },
    {
      "midi": 53,
      "hit": false,
      "t": 75500,
      "d": 475,
      "v": 76
    },
    {
      "midi": 57,
      "hit": false,
      "t": 76000,
      "d": 475,
      "v": 76
    },
    {
      "midi": 76,
      "hit": false,
      "t": 76500,
      "d": 475,
      "v": 88
    },
    {
      "midi": 62,
      "hit": false,
      "t": 76500,
      "d": 475,
      "v": 76
    },
    {
      "midi": 74,
      "hit": false,
      "t": 77000,
      "d": 950,
      "v": 88
    },
    {
      "midi": 55,
      "hit": false,
      "t": 77000,
      "d": 950,
      "v": 76
    },
    {
      "midi": 48,
      "hit": false,
      "t": 78000,
      "d": 475,
      "v": 76
    },
    {
      "midi": 55,
      "hit": false,
      "t": 78500,
      "d": 475,
      "v": 76
    },
    {
      "midi": 84,
      "hit": false,
      "t": 79000,
      "d": 475,
      "v": 88
    },
    {
      "midi": 60,
      "hit": false,
      "t": 79000,
      "d": 475,
      "v": 76
    },
    {
      "midi": 79,
      "hit": false,
      "t": 79500,
      "d": 475,
      "v": 99
    },
    {
      "midi": 64,
      "hit": false,
      "t": 79500,
      "d": 475,
      "v": 76
    },
    {
      "midi": 76,
      "hit": false,
      "t": 80000,
      "d": 475,
      "v": 109
    },
    {
      "midi": 67,
      "hit": false,
      "t": 80000,
      "d": 475,
      "v": 76
    },
    {
      "midi": 72,
      "hit": false,
      "t": 80500,
      "d": 350,
      "v": 119
    },
    {
      "midi": 64,
      "hit": false,
      "t": 80500,
      "d": 475,
      "v": 76
    },
    {
      "midi": 81,
      "hit": false,
      "t": 81000,
      "d": 1900,
      "v": 97
    },
    {
      "midi": 53,
      "hit": false,
      "t": 81000,
      "d": 475,
      "v": 88
    },
    {
      "midi": 60,
      "hit": false,
      "t": 81500,
      "d": 475,
      "v": 88
    },
    {
      "midi": 65,
      "hit": false,
      "t": 82000,
      "d": 475,
      "v": 88
    },
    {
      "midi": 69,
      "hit": false,
      "t": 82500,
      "d": 475,
      "v": 88
    },
    {
      "midi": 81,
      "hit": false,
      "t": 83000,
      "d": 950,
      "v": 97
    },
    {
      "midi": 72,
      "hit": false,
      "t": 83000,
      "d": 475,
      "v": 88
    },
    {
      "midi": 69,
      "hit": false,
      "t": 83500,
      "d": 475,
      "v": 88
    },
    {
      "midi": 81,
      "hit": false,
      "t": 84000,
      "d": 950,
      "v": 97
    },
    {
      "midi": 53,
      "hit": false,
      "t": 84000,
      "d": 475,
      "v": 88
    },
    {
      "midi": 60,
      "hit": false,
      "t": 84500,
      "d": 475,
      "v": 88
    },
    {
      "midi": 83,
      "hit": false,
      "t": 85000,
      "d": 950,
      "v": 97
    },
    {
      "midi": 65,
      "hit": false,
      "t": 85000,
      "d": 475,
      "v": 88
    },
    {
      "midi": 69,
      "hit": false,
      "t": 85500,
      "d": 475,
      "v": 88
    },
    {
      "midi": 84,
      "hit": false,
      "t": 86000,
      "d": 950,
      "v": 97
    },
    {
      "midi": 72,
      "hit": false,
      "t": 86000,
      "d": 475,
      "v": 88
    },
    {
      "midi": 69,
      "hit": false,
      "t": 86500,
      "d": 475,
      "v": 88
    },
    {
      "midi": 84,
      "hit": false,
      "t": 87000,
      "d": 2850,
      "v": 97
    },
    {
      "midi": 52,
      "hit": false,
      "t": 87000,
      "d": 475,
      "v": 88
    },
    {
      "midi": 60,
      "hit": false,
      "t": 87500,
      "d": 475,
      "v": 88
    },
    {
      "midi": 64,
      "hit": false,
      "t": 88000,
      "d": 475,
      "v": 88
    },
    {
      "midi": 67,
      "hit": false,
      "t": 88500,
      "d": 475,
      "v": 88
    },
    {
      "midi": 72,
      "hit": false,
      "t": 89000,
      "d": 475,
      "v": 88
    },
    {
      "midi": 67,
      "hit": false,
      "t": 89500,
      "d": 475,
      "v": 88
    },
    {
      "midi": 79,
      "hit": false,
      "t": 90000,
      "d": 2850,
      "v": 97
    },
    {
      "midi": 52,
      "hit": false,
      "t": 90000,
      "d": 475,
      "v": 88
    },
    {
      "midi": 60,
      "hit": false,
      "t": 90500,
      "d": 475,
      "v": 88
    },
    {
      "midi": 64,
      "hit": false,
      "t": 91000,
      "d": 475,
      "v": 88
    },
    {
      "midi": 67,
      "hit": false,
      "t": 91500,
      "d": 475,
      "v": 88
    },
    {
      "midi": 72,
      "hit": false,
      "t": 92000,
      "d": 475,
      "v": 88
    },
    {
      "midi": 67,
      "hit": false,
      "t": 92500,
      "d": 475,
      "v": 88
    },
    {
      "midi": 79,
      "hit": false,
      "t": 93000,
      "d": 1425,
      "v": 97
    },
    {
      "midi": 51,
      "hit": false,
      "t": 93000,
      "d": 475,
      "v": 88
    },
    {
      "midi": 55,
      "hit": false,
      "t": 93500,
      "d": 475,
      "v": 88
    },
    {
      "midi": 58,
      "hit": false,
      "t": 94000,
      "d": 475,
      "v": 88
    },
    {
      "midi": 79,
      "hit": false,
      "t": 94500,
      "d": 475,
      "v": 97
    },
    {
      "midi": 63,
      "hit": false,
      "t": 94500,
      "d": 475,
      "v": 87
    },
    {
      "midi": 79,
      "hit": false,
      "t": 95000,
      "d": 950,
      "v": 97
    },
    {
      "midi": 67,
      "hit": false,
      "t": 95000,
      "d": 475,
      "v": 88
    },
    {
      "midi": 63,
      "hit": false,
      "t": 95500,
      "d": 475,
      "v": 88
    },
    {
      "midi": 79,
      "hit": false,
      "t": 96000,
      "d": 950,
      "v": 97
    },
    {
      "midi": 56,
      "hit": false,
      "t": 96000,
      "d": 475,
      "v": 88
    },
    {
      "midi": 60,
      "hit": false,
      "t": 96500,
      "d": 475,
      "v": 88
    },
    {
      "midi": 77,
      "hit": false,
      "t": 97000,
      "d": 950,
      "v": 97
    },
    {
      "midi": 63,
      "hit": false,
      "t": 97000,
      "d": 475,
      "v": 88
    },
    {
      "midi": 67,
      "hit": false,
      "t": 97500,
      "d": 475,
      "v": 88
    },
    {
      "midi": 75,
      "hit": false,
      "t": 98000,
      "d": 950,
      "v": 97
    },
    {
      "midi": 63,
      "hit": false,
      "t": 98000,
      "d": 475,
      "v": 88
    },
    {
      "midi": 60,
      "hit": false,
      "t": 98500,
      "d": 475,
      "v": 88
    },
    {
      "midi": 77,
      "hit": false,
      "t": 99000,
      "d": 2850,
      "v": 97
    },
    {
      "midi": 50,
      "hit": false,
      "t": 99000,
      "d": 475,
      "v": 88
    },
    {
      "midi": 57,
      "hit": false,
      "t": 99500,
      "d": 475,
      "v": 88
    },
    {
      "midi": 62,
      "hit": false,
      "t": 100000,
      "d": 475,
      "v": 88
    },
    {
      "midi": 65,
      "hit": false,
      "t": 100500,
      "d": 475,
      "v": 88
    },
    {
      "midi": 62,
      "hit": false,
      "t": 101000,
      "d": 475,
      "v": 88
    },
    {
      "midi": 57,
      "hit": false,
      "t": 101500,
      "d": 475,
      "v": 88
    },
    {
      "midi": 79,
      "hit": false,
      "t": 102000,
      "d": 2850,
      "v": 84
    },
    {
      "midi": 55,
      "hit": false,
      "t": 102000,
      "d": 475,
      "v": 87
    },
    {
      "midi": 60,
      "hit": false,
      "t": 102500,
      "d": 475,
      "v": 82
    },
    {
      "midi": 62,
      "hit": false,
      "t": 103000,
      "d": 475,
      "v": 78
    },
    {
      "midi": 67,
      "hit": false,
      "t": 103500,
      "d": 475,
      "v": 72
    },
    {
      "midi": 62,
      "hit": false,
      "t": 104000,
      "d": 475,
      "v": 67
    },
    {
      "midi": 60,
      "hit": false,
      "t": 104500,
      "d": 475,
      "v": 61
    },
    {
      "midi": 67,
      "hit": false,
      "t": 105000,
      "d": 475,
      "v": 70
    },
    {
      "midi": 71,
      "hit": false,
      "t": 105000,
      "d": 950,
      "v": 70
    },
    {
      "midi": 55,
      "hit": false,
      "t": 105000,
      "d": 950,
      "v": 67
    },
    {
      "midi": 67,
      "hit": false,
      "t": 105500,
      "d": 475,
      "v": 70
    },
    {
      "midi": 69,
      "hit": false,
      "t": 106000,
      "d": 475,
      "v": 70
    },
    {
      "midi": 72,
      "hit": false,
      "t": 106000,
      "d": 950,
      "v": 70
    },
    {
      "midi": 57,
      "hit": false,
      "t": 106000,
      "d": 950,
      "v": 76
    },
    {
      "midi": 67,
      "hit": false,
      "t": 106500,
      "d": 475,
      "v": 70
    },
    {
      "midi": 71,
      "hit": false,
      "t": 107000,
      "d": 475,
      "v": 70
    },
    {
      "midi": 74,
      "hit": false,
      "t": 107000,
      "d": 950,
      "v": 70
    },
    {
      "midi": 59,
      "hit": false,
      "t": 107000,
      "d": 950,
      "v": 85
    },
    {
      "midi": 67,
      "hit": false,
      "t": 107500,
      "d": 475,
      "v": 70
    },
    {
      "midi": 69,
      "hit": false,
      "t": 108000,
      "d": 475,
      "v": 70
    },
    {
      "midi": 72,
      "hit": false,
      "t": 108000,
      "d": 950,
      "v": 70
    },
    {
      "midi": 57,
      "hit": false,
      "t": 108000,
      "d": 950,
      "v": 76
    },
    {
      "midi": 67,
      "hit": false,
      "t": 108500,
      "d": 475,
      "v": 70
    },
    {
      "midi": 71,
      "hit": false,
      "t": 109000,
      "d": 475,
      "v": 70
    },
    {
      "midi": 55,
      "hit": false,
      "t": 109000,
      "d": 950,
      "v": 85
    },
    {
      "midi": 67,
      "hit": false,
      "t": 109500,
      "d": 475,
      "v": 70
    },
    {
      "midi": 62,
      "hit": false,
      "t": 110000,
      "d": 475,
      "v": 70
    },
    {
      "midi": 43,
      "hit": false,
      "t": 110500,
      "d": 475,
      "v": 70
    },
    {
      "midi": 72,
      "hit": false,
      "t": 111000,
      "d": 950,
      "v": 88
    },
    {
      "midi": 48,
      "hit": false,
      "t": 111000,
      "d": 475,
      "v": 80
    },
    {
      "midi": 55,
      "hit": false,
      "t": 111500,
      "d": 475,
      "v": 80
    },
    {
      "midi": 76,
      "hit": false,
      "t": 112000,
      "d": 950,
      "v": 88
    },
    {
      "midi": 60,
      "hit": false,
      "t": 112000,
      "d": 475,
      "v": 80
    },
    {
      "midi": 64,
      "hit": false,
      "t": 112500,
      "d": 475,
      "v": 80
    },
    {
      "midi": 79,
      "hit": false,
      "t": 113000,
      "d": 950,
      "v": 88
    },
    {
      "midi": 67,
      "hit": false,
      "t": 113000,
      "d": 475,
      "v": 80
    },
    {
      "midi": 64,
      "hit": false,
      "t": 113500,
      "d": 475,
      "v": 72
    },
    {
      "midi": 76,
      "hit": false,
      "t": 114000,
      "d": 950,
      "v": 88
    },
    {
      "midi": 52,
      "hit": false,
      "t": 114000,
      "d": 475,
      "v": 70
    },
    {
      "midi": 55,
      "hit": false,
      "t": 114500,
      "d": 475,
      "v": 70
    },
    {
      "midi": 77,
      "hit": false,
      "t": 115000,
      "d": 950,
      "v": 88
    },
    {
      "midi": 60,
      "hit": false,
      "t": 115000,
      "d": 475,
      "v": 70
    },
    {
      "midi": 64,
      "hit": false,
      "t": 115500,
      "d": 475,
      "v": 70
    },
    {
      "midi": 79,
      "hit": false,
      "t": 116000,
      "d": 950,
      "v": 88
    },
    {
      "midi": 67,
      "hit": false,
      "t": 116000,
      "d": 475,
      "v": 72
    },
    {
      "midi": 64,
      "hit": false,
      "t": 116500,
      "d": 475,
      "v": 72
    },
    {
      "midi": 81,
      "hit": false,
      "t": 117000,
      "d": 950,
      "v": 88
    },
    {
      "midi": 53,
      "hit": false,
      "t": 117000,
      "d": 475,
      "v": 72
    },
    {
      "midi": 60,
      "hit": false,
      "t": 117500,
      "d": 475,
      "v": 72
    },
    {
      "midi": 83,
      "hit": false,
      "t": 118000,
      "d": 950,
      "v": 88
    },
    {
      "midi": 65,
      "hit": false,
      "t": 118000,
      "d": 475,
      "v": 72
    },
    {
      "midi": 69,
      "hit": false,
      "t": 118500,
      "d": 475,
      "v": 72
    },
    {
      "midi": 84,
      "hit": false,
      "t": 119000,
      "d": 950,
      "v": 88
    },
    {
      "midi": 72,
      "hit": false,
      "t": 119000,
      "d": 475,
      "v": 72
    },
    {
      "midi": 69,
      "hit": false,
      "t": 119500,
      "d": 475,
      "v": 72
    },
    {
      "midi": 79,
      "hit": false,
      "t": 120000,
      "d": 1900,
      "v": 88
    },
    {
      "midi": 52,
      "hit": false,
      "t": 120000,
      "d": 475,
      "v": 74
    },
    {
      "midi": 60,
      "hit": false,
      "t": 120500,
      "d": 475,
      "v": 74
    },
    {
      "midi": 64,
      "hit": false,
      "t": 121000,
      "d": 475,
      "v": 74
    },
    {
      "midi": 67,
      "hit": false,
      "t": 121500,
      "d": 475,
      "v": 74
    },
    {
      "midi": 79,
      "hit": false,
      "t": 122000,
      "d": 950,
      "v": 88
    },
    {
      "midi": 72,
      "hit": false,
      "t": 122000,
      "d": 475,
      "v": 72
    },
    {
      "midi": 67,
      "hit": false,
      "t": 122500,
      "d": 475,
      "v": 72
    },
    {
      "midi": 84,
      "hit": false,
      "t": 123000,
      "d": 1425,
      "v": 88
    },
    {
      "midi": 57,
      "hit": false,
      "t": 123000,
      "d": 475,
      "v": 88
    },
    {
      "midi": 64,
      "hit": false,
      "t": 123500,
      "d": 475,
      "v": 88
    },
    {
      "midi": 69,
      "hit": false,
      "t": 124000,
      "d": 475,
      "v": 88
    },
    {
      "midi": 83,
      "hit": false,
      "t": 124500,
      "d": 475,
      "v": 88
    },
    {
      "midi": 59,
      "hit": false,
      "t": 124500,
      "d": 475,
      "v": 88
    },
    {
      "midi": 81,
      "hit": false,
      "t": 125000,
      "d": 950,
      "v": 88
    },
    {
      "midi": 60,
      "hit": false,
      "t": 125000,
      "d": 475,
      "v": 88
    },
    {
      "midi": 62,
      "hit": false,
      "t": 125500,
      "d": 475,
      "v": 88
    },
    {
      "midi": 79,
      "hit": false,
      "t": 126000,
      "d": 1900,
      "v": 88
    },
    {
      "midi": 64,
      "hit": false,
      "t": 126000,
      "d": 950,
      "v": 88
    },
    {
      "midi": 52,
      "hit": false,
      "t": 127000,
      "d": 950,
      "v": 88
    },
    {
      "midi": 72,
      "hit": false,
      "t": 128000,
      "d": 950,
      "v": 88
    },
    {
      "midi": 57,
      "hit": false,
      "t": 128000,
      "d": 950,
      "v": 88
    },
    {
      "midi": 74,
      "hit": false,
      "t": 129000,
      "d": 1425,
      "v": 88
    },
    {
      "midi": 50,
      "hit": false,
      "t": 129000,
      "d": 475,
      "v": 88
    },
    {
      "midi": 53,
      "hit": false,
      "t": 129500,
      "d": 475,
      "v": 88
    },
    {
      "midi": 57,
      "hit": false,
      "t": 130000,
      "d": 475,
      "v": 88
    },
    {
      "midi": 76,
      "hit": false,
      "t": 130500,
      "d": 475,
      "v": 88
    },
    {
      "midi": 62,
      "hit": false,
      "t": 130500,
      "d": 475,
      "v": 88
    },
    {
      "midi": 74,
      "hit": false,
      "t": 131000,
      "d": 950,
      "v": 88
    },
    {
      "midi": 55,
      "hit": false,
      "t": 131000,
      "d": 950,
      "v": 88
    },
    {
      "midi": 72,
      "hit": false,
      "t": 132000,
      "d": 2850,
      "v": 88
    },
    {
      "midi": 48,
      "hit": false,
      "t": 132000,
      "d": 475,
      "v": 93
    },
    {
      "midi": 55,
      "hit": false,
      "t": 132500,
      "d": 475,
      "v": 89
    },
    {
      "midi": 60,
      "hit": false,
      "t": 133000,
      "d": 475,
      "v": 85
    },
    {
      "midi": 64,
      "hit": false,
      "t": 133500,
      "d": 475,
      "v": 82
    },
    {
      "midi": 67,
      "hit": false,
      "t": 134000,
      "d": 950,
      "v": 80
    },
    {
      "midi": 71,
      "hit": false,
      "t": 135000,
      "d": 950,
      "v": 88
    },
    {
      "midi": 62,
      "hit": false,
      "t": 135000,
      "d": 950,
      "v": 88
    },
    {
      "midi": 67,
      "hit": false,
      "t": 135500,
      "d": 475,
      "v": 88
    },
    {
      "midi": 72,
      "hit": false,
      "t": 136000,
      "d": 950,
      "v": 88
    },
    {
      "midi": 64,
      "hit": false,
      "t": 136000,
      "d": 950,
      "v": 88
    },
    {
      "midi": 67,
      "hit": false,
      "t": 136500,
      "d": 475,
      "v": 88
    },
    {
      "midi": 74,
      "hit": false,
      "t": 137000,
      "d": 950,
      "v": 88
    },
    {
      "midi": 65,
      "hit": false,
      "t": 137000,
      "d": 950,
      "v": 88
    },
    {
      "midi": 67,
      "hit": false,
      "t": 137500,
      "d": 475,
      "v": 88
    },
    {
      "midi": 72,
      "hit": false,
      "t": 138000,
      "d": 950,
      "v": 88
    },
    {
      "midi": 64,
      "hit": false,
      "t": 138000,
      "d": 950,
      "v": 88
    },
    {
      "midi": 67,
      "hit": false,
      "t": 138500,
      "d": 475,
      "v": 88
    },
    {
      "midi": 71,
      "hit": false,
      "t": 139000,
      "d": 950,
      "v": 88
    },
    {
      "midi": 62,
      "hit": false,
      "t": 139000,
      "d": 950,
      "v": 88
    },
    {
      "midi": 67,
      "hit": false,
      "t": 139500,
      "d": 475,
      "v": 88
    },
    {
      "midi": 72,
      "hit": false,
      "t": 140000,
      "d": 950,
      "v": 88
    },
    {
      "midi": 64,
      "hit": false,
      "t": 140000,
      "d": 950,
      "v": 88
    },
    {
      "midi": 67,
      "hit": false,
      "t": 140500,
      "d": 475,
      "v": 88
    },
    {
      "midi": 69,
      "hit": false,
      "t": 141000,
      "d": 950,
      "v": 88
    },
    {
      "midi": 60,
      "hit": false,
      "t": 141000,
      "d": 950,
      "v": 88
    },
    {
      "midi": 65,
      "hit": false,
      "t": 141500,
      "d": 475,
      "v": 88
    },
    {
      "midi": 71,
      "hit": false,
      "t": 142000,
      "d": 950,
      "v": 88
    },
    {
      "midi": 62,
      "hit": false,
      "t": 142000,
      "d": 950,
      "v": 88
    },
    {
      "midi": 65,
      "hit": false,
      "t": 142500,
      "d": 475,
      "v": 88
    },
    {
      "midi": 72,
      "hit": false,
      "t": 143000,
      "d": 950,
      "v": 88
    },
    {
      "midi": 64,
      "hit": false,
      "t": 143000,
      "d": 950,
      "v": 88
    },
    {
      "midi": 65,
      "hit": false,
      "t": 143500,
      "d": 475,
      "v": 88
    },
    {
      "midi": 71,
      "hit": false,
      "t": 144000,
      "d": 950,
      "v": 88
    },
    {
      "midi": 62,
      "hit": false,
      "t": 144000,
      "d": 950,
      "v": 88
    },
    {
      "midi": 65,
      "hit": false,
      "t": 144500,
      "d": 475,
      "v": 88
    },
    {
      "midi": 69,
      "hit": false,
      "t": 145000,
      "d": 950,
      "v": 88
    },
    {
      "midi": 60,
      "hit": false,
      "t": 145000,
      "d": 950,
      "v": 88
    },
    {
      "midi": 65,
      "hit": false,
      "t": 145500,
      "d": 475,
      "v": 88
    },
    {
      "midi": 71,
      "hit": false,
      "t": 146000,
      "d": 950,
      "v": 88
    },
    {
      "midi": 62,
      "hit": false,
      "t": 146000,
      "d": 950,
      "v": 88
    },
    {
      "midi": 65,
      "hit": false,
      "t": 146500,
      "d": 475,
      "v": 88
    },
    {
      "midi": 62,
      "hit": false,
      "t": 147000,
      "d": 2850,
      "v": 88
    },
    {
      "midi": 59,
      "hit": false,
      "t": 147000,
      "d": 2850,
      "v": 88
    },
    {
      "midi": 67,
      "hit": false,
      "t": 147000,
      "d": 2850,
      "v": 88
    },
    {
      "midi": 40,
      "hit": false,
      "t": 147000,
      "d": 475,
      "v": 88
    },
    {
      "midi": 47,
      "hit": false,
      "t": 147500,
      "d": 475,
      "v": 88
    },
    {
      "midi": 55,
      "hit": false,
      "t": 148000,
      "d": 475,
      "v": 88
    },
    {
      "midi": 59,
      "hit": false,
      "t": 148500,
      "d": 475,
      "v": 88
    },
    {
      "midi": 62,
      "hit": false,
      "t": 149000,
      "d": 475,
      "v": 88
    },
    {
      "midi": 67,
      "hit": false,
      "t": 149500,
      "d": 475,
      "v": 88
    },
    {
      "midi": 60,
      "hit": false,
      "t": 150000,
      "d": 950,
      "v": 88
    },
    {
      "midi": 67,
      "hit": false,
      "t": 150000,
      "d": 950,
      "v": 88
    },
    {
      "midi": 45,
      "hit": false,
      "t": 150000,
      "d": 475,
      "v": 88
    },
    {
      "midi": 52,
      "hit": false,
      "t": 150500,
      "d": 475,
      "v": 88
    },
    {
      "midi": 65,
      "hit": false,
      "t": 151000,
      "d": 950,
      "v": 88
    },
    {
      "midi": 55,
      "hit": false,
      "t": 151000,
      "d": 1900,
      "v": 88
    },
    {
      "midi": 64,
      "hit": false,
      "t": 152000,
      "d": 950,
      "v": 88
    },
    {
      "midi": 60,
      "hit": false,
      "t": 152000,
      "d": 950,
      "v": 88
    },
    {
      "midi": 55,
      "hit": false,
      "t": 152000,
      "d": 950,
      "v": 88
    },
    {
      "midi": 65,
      "hit": false,
      "t": 153000,
      "d": 2850,
      "v": 88
    },
    {
      "midi": 60,
      "hit": false,
      "t": 153000,
      "d": 2850,
      "v": 88
    },
    {
      "midi": 57,
      "hit": false,
      "t": 153000,
      "d": 2850,
      "v": 88
    },
    {
      "midi": 38,
      "hit": false,
      "t": 153000,
      "d": 475,
      "v": 88
    },
    {
      "midi": 45,
      "hit": false,
      "t": 153500,
      "d": 475,
      "v": 88
    },
    {
      "midi": 53,
      "hit": false,
      "t": 154000,
      "d": 475,
      "v": 88
    },
    {
      "midi": 57,
      "hit": false,
      "t": 154500,
      "d": 475,
      "v": 88
    },
    {
      "midi": 60,
      "hit": false,
      "t": 155000,
      "d": 475,
      "v": 88
    },
    {
      "midi": 65,
      "hit": false,
      "t": 155500,
      "d": 475,
      "v": 88
    },
    {
      "midi": 69,
      "hit": false,
      "t": 156000,
      "d": 475,
      "v": 92
    },
    {
      "midi": 60,
      "hit": false,
      "t": 156000,
      "d": 2850,
      "v": 88
    },
    {
      "midi": 43,
      "hit": false,
      "t": 156000,
      "d": 475,
      "v": 88
    },
    {
      "midi": 65,
      "hit": false,
      "t": 156500,
      "d": 475,
      "v": 89
    },
    {
      "midi": 50,
      "hit": false,
      "t": 156500,
      "d": 475,
      "v": 78
    },
    {
      "midi": 72,
      "hit": false,
      "t": 157000,
      "d": 475,
      "v": 87
    },
    {
      "midi": 57,
      "hit": false,
      "t": 157000,
      "d": 1900,
      "v": 74
    },
    {
      "midi": 69,
      "hit": false,
      "t": 157500,
      "d": 475,
      "v": 84
    },
    {
      "midi": 65,
      "hit": false,
      "t": 158000,
      "d": 475,
      "v": 80
    },
    {
      "midi": 62,
      "hit": false,
      "t": 158500,
      "d": 475,
      "v": 78
    },
    {
      "midi": 72,
      "hit": false,
      "t": 159000,
      "d": 950,
      "v": 62
    },
    {
      "midi": 48,
      "hit": false,
      "t": 159000,
      "d": 475,
      "v": 72
    },
    {
      "midi": 55,
      "hit": false,
      "t": 159500,
      "d": 475,
      "v": 72
    },
    {
      "midi": 76,
      "hit": false,
      "t": 160000,
      "d": 950,
      "v": 74
    },
    {
      "midi": 60,
      "hit": false,
      "t": 160000,
      "d": 475,
      "v": 72
    },
    {
      "midi": 64,
      "hit": false,
      "t": 160500,
      "d": 475,
      "v": 72
    },
    {
      "midi": 79,
      "hit": false,
      "t": 161000,
      "d": 950,
      "v": 82
    },
    {
      "midi": 67,
      "hit": false,
      "t": 161000,
      "d": 475,
      "v": 72
    },
    {
      "midi": 76,
      "hit": false,
      "t": 162000,
      "d": 950,
      "v": 88
    },
    {
      "midi": 52,
      "hit": false,
      "t": 162000,
      "d": 475,
      "v": 72
    },
    {
      "midi": 55,
      "hit": false,
      "t": 162500,
      "d": 475,
      "v": 72
    },
    {
      "midi": 77,
      "hit": false,
      "t": 163000,
      "d": 950,
      "v": 88
    },
    {
      "midi": 60,
      "hit": false,
      "t": 163000,
      "d": 475,
      "v": 72
    },
    {
      "midi": 64,
      "hit": false,
      "t": 163500,
      "d": 475,
      "v": 72
    },
    {
      "midi": 79,
      "hit": false,
      "t": 164000,
      "d": 950,
      "v": 88
    },
    {
      "midi": 67,
      "hit": false,
      "t": 164000,
      "d": 950,
      "v": 72
    },
    {
      "midi": 81,
      "hit": false,
      "t": 165000,
      "d": 950,
      "v": 88
    },
    {
      "midi": 53,
      "hit": false,
      "t": 165000,
      "d": 475,
      "v": 72
    },
    {
      "midi": 60,
      "hit": false,
      "t": 165500,
      "d": 475,
      "v": 72
    },
    {
      "midi": 83,
      "hit": false,
      "t": 166000,
      "d": 950,
      "v": 88
    },
    {
      "midi": 65,
      "hit": false,
      "t": 166000,
      "d": 475,
      "v": 72
    },
    {
      "midi": 69,
      "hit": false,
      "t": 166500,
      "d": 475,
      "v": 72
    },
    {
      "midi": 84,
      "hit": false,
      "t": 167000,
      "d": 950,
      "v": 88
    },
    {
      "midi": 72,
      "hit": false,
      "t": 167000,
      "d": 950,
      "v": 72
    },
    {
      "midi": 79,
      "hit": false,
      "t": 168000,
      "d": 2850,
      "v": 88
    },
    {
      "midi": 52,
      "hit": false,
      "t": 168000,
      "d": 475,
      "v": 72
    },
    {
      "midi": 60,
      "hit": false,
      "t": 168500,
      "d": 475,
      "v": 72
    },
    {
      "midi": 64,
      "hit": false,
      "t": 169000,
      "d": 475,
      "v": 72
    },
    {
      "midi": 67,
      "hit": false,
      "t": 169500,
      "d": 475,
      "v": 72
    },
    {
      "midi": 72,
      "hit": false,
      "t": 170000,
      "d": 950,
      "v": 72
    },
    {
      "midi": 77,
      "hit": false,
      "t": 171000,
      "d": 1425,
      "v": 88
    },
    {
      "midi": 50,
      "hit": false,
      "t": 171000,
      "d": 475,
      "v": 72
    },
    {
      "midi": 57,
      "hit": false,
      "t": 171500,
      "d": 475,
      "v": 72
    },
    {
      "midi": 62,
      "hit": false,
      "t": 172000,
      "d": 475,
      "v": 72
    },
    {
      "midi": 79,
      "hit": false,
      "t": 172500,
      "d": 475,
      "v": 88
    },
    {
      "midi": 65,
      "hit": false,
      "t": 172500,
      "d": 475,
      "v": 72
    },
    {
      "midi": 77,
      "hit": false,
      "t": 173000,
      "d": 950,
      "v": 88
    },
    {
      "midi": 69,
      "hit": false,
      "t": 173000,
      "d": 950,
      "v": 72
    },
    {
      "midi": 76,
      "hit": false,
      "t": 174000,
      "d": 950,
      "v": 88
    },
    {
      "midi": 48,
      "hit": false,
      "t": 174000,
      "d": 475,
      "v": 72
    },
    {
      "midi": 55,
      "hit": false,
      "t": 174500,
      "d": 475,
      "v": 72
    },
    {
      "midi": 77,
      "hit": false,
      "t": 175000,
      "d": 950,
      "v": 88
    },
    {
      "midi": 60,
      "hit": false,
      "t": 175000,
      "d": 475,
      "v": 72
    },
    {
      "midi": 64,
      "hit": false,
      "t": 175500,
      "d": 475,
      "v": 72
    },
    {
      "midi": 79,
      "hit": false,
      "t": 176000,
      "d": 950,
      "v": 88
    },
    {
      "midi": 67,
      "hit": false,
      "t": 176000,
      "d": 950,
      "v": 72
    },
    {
      "midi": 74,
      "hit": false,
      "t": 177000,
      "d": 2850,
      "v": 88
    },
    {
      "midi": 55,
      "hit": false,
      "t": 177000,
      "d": 475,
      "v": 72
    },
    {
      "midi": 60,
      "hit": false,
      "t": 177500,
      "d": 475,
      "v": 72
    },
    {
      "midi": 62,
      "hit": false,
      "t": 178000,
      "d": 475,
      "v": 72
    },
    {
      "midi": 67,
      "hit": false,
      "t": 178500,
      "d": 475,
      "v": 72
    },
    {
      "midi": 62,
      "hit": false,
      "t": 179000,
      "d": 475,
      "v": 72
    },
    {
      "midi": 60,
      "hit": false,
      "t": 179500,
      "d": 475,
      "v": 72
    },
    {
      "midi": 74,
      "hit": false,
      "t": 180000,
      "d": 2850,
      "v": 88
    },
    {
      "midi": 55,
      "hit": false,
      "t": 180000,
      "d": 475,
      "v": 72
    },
    {
      "midi": 59,
      "hit": false,
      "t": 180500,
      "d": 475,
      "v": 72
    },
    {
      "midi": 62,
      "hit": false,
      "t": 181000,
      "d": 475,
      "v": 72
    },
    {
      "midi": 67,
      "hit": false,
      "t": 181500,
      "d": 475,
      "v": 72
    },
    {
      "midi": 71,
      "hit": false,
      "t": 182000,
      "d": 950,
      "v": 72
    },
    {
      "midi": 72,
      "hit": false,
      "t": 183000,
      "d": 950,
      "v": 88
    },
    {
      "midi": 48,
      "hit": false,
      "t": 183000,
      "d": 475,
      "v": 76
    },
    {
      "midi": 55,
      "hit": false,
      "t": 183500,
      "d": 475,
      "v": 76
    },
    {
      "midi": 76,
      "hit": false,
      "t": 184000,
      "d": 950,
      "v": 88
    },
    {
      "midi": 60,
      "hit": false,
      "t": 184000,
      "d": 475,
      "v": 76
    },
    {
      "midi": 64,
      "hit": false,
      "t": 184500,
      "d": 475,
      "v": 76
    },
    {
      "midi": 79,
      "hit": false,
      "t": 185000,
      "d": 950,
      "v": 88
    },
    {
      "midi": 67,
      "hit": false,
      "t": 185000,
      "d": 475,
      "v": 76
    },
    {
      "midi": 76,
      "hit": false,
      "t": 186000,
      "d": 950,
      "v": 88
    },
    {
      "midi": 52,
      "hit": false,
      "t": 186000,
      "d": 475,
      "v": 76
    },
    {
      "midi": 55,
      "hit": false,
      "t": 186500,
      "d": 475,
      "v": 76
    },
    {
      "midi": 77,
      "hit": false,
      "t": 187000,
      "d": 950,
      "v": 88
    },
    {
      "midi": 60,
      "hit": false,
      "t": 187000,
      "d": 475,
      "v": 76
    },
    {
      "midi": 64,
      "hit": false,
      "t": 187500,
      "d": 475,
      "v": 76
    },
    {
      "midi": 79,
      "hit": false,
      "t": 188000,
      "d": 950,
      "v": 88
    },
    {
      "midi": 67,
      "hit": false,
      "t": 188000,
      "d": 950,
      "v": 76
    },
    {
      "midi": 81,
      "hit": false,
      "t": 189000,
      "d": 950,
      "v": 88
    },
    {
      "midi": 53,
      "hit": false,
      "t": 189000,
      "d": 475,
      "v": 76
    },
    {
      "midi": 60,
      "hit": false,
      "t": 189500,
      "d": 475,
      "v": 76
    },
    {
      "midi": 83,
      "hit": false,
      "t": 190000,
      "d": 950,
      "v": 88
    },
    {
      "midi": 65,
      "hit": false,
      "t": 190000,
      "d": 475,
      "v": 76
    },
    {
      "midi": 69,
      "hit": false,
      "t": 190500,
      "d": 475,
      "v": 76
    },
    {
      "midi": 84,
      "hit": false,
      "t": 191000,
      "d": 950,
      "v": 88
    },
    {
      "midi": 72,
      "hit": false,
      "t": 191000,
      "d": 950,
      "v": 76
    },
    {
      "midi": 79,
      "hit": false,
      "t": 192000,
      "d": 1900,
      "v": 88
    },
    {
      "midi": 52,
      "hit": false,
      "t": 192000,
      "d": 475,
      "v": 76
    },
    {
      "midi": 60,
      "hit": false,
      "t": 192500,
      "d": 475,
      "v": 76
    },
    {
      "midi": 64,
      "hit": false,
      "t": 193000,
      "d": 475,
      "v": 76
    },
    {
      "midi": 67,
      "hit": false,
      "t": 193500,
      "d": 475,
      "v": 76
    },
    {
      "midi": 72,
      "hit": false,
      "t": 194000,
      "d": 950,
      "v": 76
    },
    {
      "midi": 84,
      "hit": false,
      "t": 195000,
      "d": 1425,
      "v": 88
    },
    {
      "midi": 57,
      "hit": false,
      "t": 195000,
      "d": 475,
      "v": 76
    },
    {
      "midi": 64,
      "hit": false,
      "t": 195500,
      "d": 475,
      "v": 76
    },
    {
      "midi": 69,
      "hit": false,
      "t": 196000,
      "d": 475,
      "v": 76
    },
    {
      "midi": 83,
      "hit": false,
      "t": 196500,
      "d": 475,
      "v": 88
    },
    {
      "midi": 59,
      "hit": false,
      "t": 196500,
      "d": 475,
      "v": 76
    },
    {
      "midi": 81,
      "hit": false,
      "t": 197000,
      "d": 950,
      "v": 88
    },
    {
      "midi": 60,
      "hit": false,
      "t": 197000,
      "d": 475,
      "v": 76
    },
    {
      "midi": 62,
      "hit": false,
      "t": 197500,
      "d": 475,
      "v": 76
    },
    {
      "midi": 79,
      "hit": false,
      "t": 198000,
      "d": 1900,
      "v": 88
    },
    {
      "midi": 64,
      "hit": false,
      "t": 198000,
      "d": 950,
      "v": 76
    },
    {
      "midi": 52,
      "hit": false,
      "t": 199000,
      "d": 950,
      "v": 76
    },
    {
      "midi": 72,
      "hit": false,
      "t": 200000,
      "d": 950,
      "v": 88
    },
    {
      "midi": 57,
      "hit": false,
      "t": 200000,
      "d": 950,
      "v": 76
    },
    {
      "midi": 74,
      "hit": false,
      "t": 201000,
      "d": 1425,
      "v": 88
    },
    {
      "midi": 50,
      "hit": false,
      "t": 201000,
      "d": 475,
      "v": 76
    },
    {
      "midi": 53,
      "hit": false,
      "t": 201500,
      "d": 475,
      "v": 76
    },
    {
      "midi": 57,
      "hit": false,
      "t": 202000,
      "d": 475,
      "v": 76
    },
    {
      "midi": 76,
      "hit": false,
      "t": 202500,
      "d": 475,
      "v": 88
    },
    {
      "midi": 62,
      "hit": false,
      "t": 202500,
      "d": 475,
      "v": 76
    },
    {
      "midi": 74,
      "hit": false,
      "t": 203000,
      "d": 950,
      "v": 88
    },
    {
      "midi": 55,
      "hit": false,
      "t": 203000,
      "d": 950,
      "v": 76
    },
    {
      "midi": 48,
      "hit": false,
      "t": 204000,
      "d": 475,
      "v": 76
    },
    {
      "midi": 55,
      "hit": false,
      "t": 204500,
      "d": 475,
      "v": 76
    },
    {
      "midi": 84,
      "hit": false,
      "t": 205000,
      "d": 475,
      "v": 88
    },
    {
      "midi": 60,
      "hit": false,
      "t": 205000,
      "d": 475,
      "v": 76
    },
    {
      "midi": 79,
      "hit": false,
      "t": 205500,
      "d": 475,
      "v": 99
    },
    {
      "midi": 64,
      "hit": false,
      "t": 205500,
      "d": 475,
      "v": 76
    },
    {
      "midi": 76,
      "hit": false,
      "t": 206000,
      "d": 475,
      "v": 109
    },
    {
      "midi": 67,
      "hit": false,
      "t": 206000,
      "d": 475,
      "v": 76
    },
    {
      "midi": 72,
      "hit": false,
      "t": 206500,
      "d": 350,
      "v": 119
    },
    {
      "midi": 64,
      "hit": false,
      "t": 206500,
      "d": 475,
      "v": 76
    },
    {
      "midi": 81,
      "hit": false,
      "t": 207000,
      "d": 1900,
      "v": 97
    },
    {
      "midi": 53,
      "hit": false,
      "t": 207000,
      "d": 475,
      "v": 88
    },
    {
      "midi": 60,
      "hit": false,
      "t": 207500,
      "d": 475,
      "v": 88
    },
    {
      "midi": 65,
      "hit": false,
      "t": 208000,
      "d": 475,
      "v": 88
    },
    {
      "midi": 69,
      "hit": false,
      "t": 208500,
      "d": 475,
      "v": 88
    },
    {
      "midi": 81,
      "hit": false,
      "t": 209000,
      "d": 950,
      "v": 97
    },
    {
      "midi": 72,
      "hit": false,
      "t": 209000,
      "d": 475,
      "v": 88
    },
    {
      "midi": 69,
      "hit": false,
      "t": 209500,
      "d": 475,
      "v": 88
    },
    {
      "midi": 81,
      "hit": false,
      "t": 210000,
      "d": 950,
      "v": 97
    },
    {
      "midi": 53,
      "hit": false,
      "t": 210000,
      "d": 475,
      "v": 88
    },
    {
      "midi": 60,
      "hit": false,
      "t": 210500,
      "d": 475,
      "v": 88
    },
    {
      "midi": 83,
      "hit": false,
      "t": 211000,
      "d": 950,
      "v": 97
    },
    {
      "midi": 65,
      "hit": false,
      "t": 211000,
      "d": 475,
      "v": 88
    },
    {
      "midi": 69,
      "hit": false,
      "t": 211500,
      "d": 475,
      "v": 88
    },
    {
      "midi": 84,
      "hit": false,
      "t": 212000,
      "d": 950,
      "v": 97
    },
    {
      "midi": 72,
      "hit": false,
      "t": 212000,
      "d": 475,
      "v": 88
    },
    {
      "midi": 69,
      "hit": false,
      "t": 212500,
      "d": 475,
      "v": 88
    },
    {
      "midi": 84,
      "hit": false,
      "t": 213000,
      "d": 2850,
      "v": 97
    },
    {
      "midi": 52,
      "hit": false,
      "t": 213000,
      "d": 475,
      "v": 88
    },
    {
      "midi": 60,
      "hit": false,
      "t": 213500,
      "d": 475,
      "v": 88
    },
    {
      "midi": 64,
      "hit": false,
      "t": 214000,
      "d": 475,
      "v": 88
    },
    {
      "midi": 67,
      "hit": false,
      "t": 214500,
      "d": 475,
      "v": 88
    },
    {
      "midi": 72,
      "hit": false,
      "t": 215000,
      "d": 475,
      "v": 88
    },
    {
      "midi": 67,
      "hit": false,
      "t": 215500,
      "d": 475,
      "v": 88
    },
    {
      "midi": 79,
      "hit": false,
      "t": 216000,
      "d": 2850,
      "v": 97
    },
    {
      "midi": 52,
      "hit": false,
      "t": 216000,
      "d": 475,
      "v": 88
    },
    {
      "midi": 60,
      "hit": false,
      "t": 216500,
      "d": 475,
      "v": 88
    },
    {
      "midi": 64,
      "hit": false,
      "t": 217000,
      "d": 475,
      "v": 88
    },
    {
      "midi": 67,
      "hit": false,
      "t": 217500,
      "d": 475,
      "v": 88
    },
    {
      "midi": 72,
      "hit": false,
      "t": 218000,
      "d": 475,
      "v": 88
    },
    {
      "midi": 67,
      "hit": false,
      "t": 218500,
      "d": 475,
      "v": 88
    },
    {
      "midi": 79,
      "hit": false,
      "t": 219000,
      "d": 1425,
      "v": 97
    },
    {
      "midi": 51,
      "hit": false,
      "t": 219000,
      "d": 475,
      "v": 88
    },
    {
      "midi": 55,
      "hit": false,
      "t": 219500,
      "d": 475,
      "v": 88
    },
    {
      "midi": 58,
      "hit": false,
      "t": 220000,
      "d": 475,
      "v": 88
    },
    {
      "midi": 79,
      "hit": false,
      "t": 220500,
      "d": 475,
      "v": 97
    },
    {
      "midi": 63,
      "hit": false,
      "t": 220500,
      "d": 475,
      "v": 87
    },
    {
      "midi": 79,
      "hit": false,
      "t": 221000,
      "d": 950,
      "v": 97
    },
    {
      "midi": 67,
      "hit": false,
      "t": 221000,
      "d": 475,
      "v": 88
    },
    {
      "midi": 63,
      "hit": false,
      "t": 221500,
      "d": 475,
      "v": 88
    },
    {
      "midi": 79,
      "hit": false,
      "t": 222000,
      "d": 950,
      "v": 97
    },
    {
      "midi": 56,
      "hit": false,
      "t": 222000,
      "d": 475,
      "v": 88
    },
    {
      "midi": 60,
      "hit": false,
      "t": 222500,
      "d": 475,
      "v": 88
    },
    {
      "midi": 77,
      "hit": false,
      "t": 223000,
      "d": 950,
      "v": 97
    },
    {
      "midi": 63,
      "hit": false,
      "t": 223000,
      "d": 475,
      "v": 88
    },
    {
      "midi": 67,
      "hit": false,
      "t": 223500,
      "d": 475,
      "v": 88
    },
    {
      "midi": 75,
      "hit": false,
      "t": 224000,
      "d": 950,
      "v": 97
    },
    {
      "midi": 63,
      "hit": false,
      "t": 224000,
      "d": 475,
      "v": 88
    },
    {
      "midi": 60,
      "hit": false,
      "t": 224500,
      "d": 475,
      "v": 88
    },
    {
      "midi": 77,
      "hit": false,
      "t": 225000,
      "d": 2850,
      "v": 97
    },
    {
      "midi": 50,
      "hit": false,
      "t": 225000,
      "d": 475,
      "v": 88
    },
    {
      "midi": 57,
      "hit": false,
      "t": 225500,
      "d": 475,
      "v": 88
    },
    {
      "midi": 62,
      "hit": false,
      "t": 226000,
      "d": 475,
      "v": 88
    },
    {
      "midi": 65,
      "hit": false,
      "t": 226500,
      "d": 475,
      "v": 88
    },
    {
      "midi": 62,
      "hit": false,
      "t": 227000,
      "d": 475,
      "v": 88
    },
    {
      "midi": 57,
      "hit": false,
      "t": 227500,
      "d": 475,
      "v": 88
    },
    {
      "midi": 79,
      "hit": false,
      "t": 228000,
      "d": 2850,
      "v": 84
    },
    {
      "midi": 55,
      "hit": false,
      "t": 228000,
      "d": 475,
      "v": 87
    },
    {
      "midi": 60,
      "hit": false,
      "t": 228500,
      "d": 475,
      "v": 82
    },
    {
      "midi": 62,
      "hit": false,
      "t": 229000,
      "d": 475,
      "v": 78
    },
    {
      "midi": 67,
      "hit": false,
      "t": 229500,
      "d": 475,
      "v": 72
    },
    {
      "midi": 62,
      "hit": false,
      "t": 230000,
      "d": 475,
      "v": 67
    },
    {
      "midi": 60,
      "hit": false,
      "t": 230500,
      "d": 475,
      "v": 61
    },
    {
      "midi": 67,
      "hit": false,
      "t": 231000,
      "d": 475,
      "v": 70
    },
    {
      "midi": 71,
      "hit": false,
      "t": 231000,
      "d": 950,
      "v": 70
    },
    {
      "midi": 55,
      "hit": false,
      "t": 231000,
      "d": 950,
      "v": 67
    },
    {
      "midi": 67,
      "hit": false,
      "t": 231500,
      "d": 475,
      "v": 70
    },
    {
      "midi": 69,
      "hit": false,
      "t": 232000,
      "d": 475,
      "v": 70
    },
    {
      "midi": 72,
      "hit": false,
      "t": 232000,
      "d": 950,
      "v": 70
    },
    {
      "midi": 57,
      "hit": false,
      "t": 232000,
      "d": 950,
      "v": 76
    },
    {
      "midi": 67,
      "hit": false,
      "t": 232500,
      "d": 475,
      "v": 70
    },
    {
      "midi": 71,
      "hit": false,
      "t": 233000,
      "d": 475,
      "v": 70
    },
    {
      "midi": 74,
      "hit": false,
      "t": 233000,
      "d": 950,
      "v": 70
    },
    {
      "midi": 59,
      "hit": false,
      "t": 233000,
      "d": 950,
      "v": 85
    },
    {
      "midi": 67,
      "hit": false,
      "t": 233500,
      "d": 475,
      "v": 70
    },
    {
      "midi": 69,
      "hit": false,
      "t": 234000,
      "d": 475,
      "v": 70
    },
    {
      "midi": 72,
      "hit": false,
      "t": 234000,
      "d": 950,
      "v": 70
    },
    {
      "midi": 57,
      "hit": false,
      "t": 234000,
      "d": 950,
      "v": 76
    },
    {
      "midi": 67,
      "hit": false,
      "t": 234500,
      "d": 475,
      "v": 70
    },
    {
      "midi": 71,
      "hit": false,
      "t": 235000,
      "d": 475,
      "v": 70
    },
    {
      "midi": 55,
      "hit": false,
      "t": 235000,
      "d": 950,
      "v": 85
    },
    {
      "midi": 67,
      "hit": false,
      "t": 235500,
      "d": 475,
      "v": 70
    },
    {
      "midi": 62,
      "hit": false,
      "t": 236000,
      "d": 475,
      "v": 70
    },
    {
      "midi": 43,
      "hit": false,
      "t": 236500,
      "d": 475,
      "v": 70
    },
    {
      "midi": 72,
      "hit": false,
      "t": 237000,
      "d": 950,
      "v": 88
    },
    {
      "midi": 48,
      "hit": false,
      "t": 237000,
      "d": 475,
      "v": 80
    },
    {
      "midi": 55,
      "hit": false,
      "t": 237500,
      "d": 475,
      "v": 80
    },
    {
      "midi": 76,
      "hit": false,
      "t": 238000,
      "d": 950,
      "v": 88
    },
    {
      "midi": 60,
      "hit": false,
      "t": 238000,
      "d": 475,
      "v": 80
    },
    {
      "midi": 64,
      "hit": false,
      "t": 238500,
      "d": 475,
      "v": 80
    },
    {
      "midi": 79,
      "hit": false,
      "t": 239000,
      "d": 950,
      "v": 88
    },
    {
      "midi": 67,
      "hit": false,
      "t": 239000,
      "d": 475,
      "v": 80
    },
    {
      "midi": 64,
      "hit": false,
      "t": 239500,
      "d": 475,
      "v": 72
    },
    {
      "midi": 76,
      "hit": false,
      "t": 240000,
      "d": 950,
      "v": 88
    },
    {
      "midi": 52,
      "hit": false,
      "t": 240000,
      "d": 475,
      "v": 70
    },
    {
      "midi": 55,
      "hit": false,
      "t": 240500,
      "d": 475,
      "v": 70
    },
    {
      "midi": 77,
      "hit": false,
      "t": 241000,
      "d": 950,
      "v": 88
    },
    {
      "midi": 60,
      "hit": false,
      "t": 241000,
      "d": 475,
      "v": 70
    },
    {
      "midi": 64,
      "hit": false,
      "t": 241500,
      "d": 475,
      "v": 70
    },
    {
      "midi": 79,
      "hit": false,
      "t": 242000,
      "d": 950,
      "v": 88
    },
    {
      "midi": 67,
      "hit": false,
      "t": 242000,
      "d": 475,
      "v": 72
    },
    {
      "midi": 64,
      "hit": false,
      "t": 242500,
      "d": 475,
      "v": 72
    },
    {
      "midi": 81,
      "hit": false,
      "t": 243000,
      "d": 950,
      "v": 88
    },
    {
      "midi": 53,
      "hit": false,
      "t": 243000,
      "d": 475,
      "v": 72
    },
    {
      "midi": 60,
      "hit": false,
      "t": 243500,
      "d": 475,
      "v": 72
    },
    {
      "midi": 83,
      "hit": false,
      "t": 244000,
      "d": 950,
      "v": 88
    },
    {
      "midi": 65,
      "hit": false,
      "t": 244000,
      "d": 475,
      "v": 72
    },
    {
      "midi": 69,
      "hit": false,
      "t": 244500,
      "d": 475,
      "v": 72
    },
    {
      "midi": 84,
      "hit": false,
      "t": 245000,
      "d": 950,
      "v": 88
    },
    {
      "midi": 72,
      "hit": false,
      "t": 245000,
      "d": 475,
      "v": 72
    },
    {
      "midi": 69,
      "hit": false,
      "t": 245500,
      "d": 475,
      "v": 72
    },
    {
      "midi": 79,
      "hit": false,
      "t": 246000,
      "d": 1900,
      "v": 88
    },
    {
      "midi": 52,
      "hit": false,
      "t": 246000,
      "d": 475,
      "v": 74
    },
    {
      "midi": 60,
      "hit": false,
      "t": 246500,
      "d": 475,
      "v": 74
    },
    {
      "midi": 64,
      "hit": false,
      "t": 247000,
      "d": 475,
      "v": 74
    },
    {
      "midi": 67,
      "hit": false,
      "t": 247500,
      "d": 475,
      "v": 74
    },
    {
      "midi": 79,
      "hit": false,
      "t": 248000,
      "d": 950,
      "v": 88
    },
    {
      "midi": 72,
      "hit": false,
      "t": 248000,
      "d": 475,
      "v": 72
    },
    {
      "midi": 67,
      "hit": false,
      "t": 248500,
      "d": 475,
      "v": 72
    },
    {
      "midi": 84,
      "hit": false,
      "t": 249000,
      "d": 1425,
      "v": 88
    },
    {
      "midi": 57,
      "hit": false,
      "t": 249000,
      "d": 475,
      "v": 88
    },
    {
      "midi": 64,
      "hit": false,
      "t": 249500,
      "d": 475,
      "v": 88
    },
    {
      "midi": 69,
      "hit": false,
      "t": 250000,
      "d": 475,
      "v": 88
    },
    {
      "midi": 83,
      "hit": false,
      "t": 250500,
      "d": 475,
      "v": 88
    },
    {
      "midi": 59,
      "hit": false,
      "t": 250500,
      "d": 475,
      "v": 88
    },
    {
      "midi": 81,
      "hit": false,
      "t": 251000,
      "d": 950,
      "v": 88
    },
    {
      "midi": 60,
      "hit": false,
      "t": 251000,
      "d": 475,
      "v": 88
    },
    {
      "midi": 62,
      "hit": false,
      "t": 251500,
      "d": 475,
      "v": 88
    },
    {
      "midi": 79,
      "hit": false,
      "t": 252000,
      "d": 1900,
      "v": 88
    },
    {
      "midi": 64,
      "hit": false,
      "t": 252000,
      "d": 950,
      "v": 88
    },
    {
      "midi": 52,
      "hit": false,
      "t": 253000,
      "d": 950,
      "v": 88
    },
    {
      "midi": 72,
      "hit": false,
      "t": 254000,
      "d": 950,
      "v": 88
    },
    {
      "midi": 57,
      "hit": false,
      "t": 254000,
      "d": 950,
      "v": 88
    },
    {
      "midi": 74,
      "hit": false,
      "t": 255000,
      "d": 1425,
      "v": 88
    },
    {
      "midi": 50,
      "hit": false,
      "t": 255000,
      "d": 475,
      "v": 88
    },
    {
      "midi": 53,
      "hit": false,
      "t": 255500,
      "d": 475,
      "v": 88
    },
    {
      "midi": 57,
      "hit": false,
      "t": 256000,
      "d": 475,
      "v": 88
    },
    {
      "midi": 76,
      "hit": false,
      "t": 256500,
      "d": 475,
      "v": 88
    },
    {
      "midi": 62,
      "hit": false,
      "t": 256500,
      "d": 475,
      "v": 88
    },
    {
      "midi": 74,
      "hit": false,
      "t": 257000,
      "d": 950,
      "v": 88
    },
    {
      "midi": 55,
      "hit": false,
      "t": 257000,
      "d": 950,
      "v": 88
    },
    {
      "midi": 72,
      "hit": false,
      "t": 258000,
      "d": 2850,
      "v": 88
    },
    {
      "midi": 48,
      "hit": false,
      "t": 258000,
      "d": 475,
      "v": 89
    },
    {
      "midi": 55,
      "hit": false,
      "t": 258500,
      "d": 475,
      "v": 84
    },
    {
      "midi": 60,
      "hit": false,
      "t": 259000,
      "d": 475,
      "v": 80
    },
    {
      "midi": 64,
      "hit": false,
      "t": 259500,
      "d": 475,
      "v": 76
    },
    {
      "midi": 67,
      "hit": false,
      "t": 260000,
      "d": 950,
      "v": 70
    },
    {
      "midi": 72,
      "hit": false,
      "t": 261000,
      "d": 950,
      "v": 101
    },
    {
      "midi": 64,
      "hit": false,
      "t": 261000,
      "d": 950,
      "v": 88
    },
    {
      "midi": 60,
      "hit": false,
      "t": 261000,
      "d": 950,
      "v": 88
    },
    {
      "midi": 36,
      "hit": false,
      "t": 261000,
      "d": 475,
      "v": 93
    },
    {
      "midi": 43,
      "hit": false,
      "t": 261500,
      "d": 475,
      "v": 93
    },
    {
      "midi": 67,
      "hit": false,
      "t": 262000,
      "d": 950,
      "v": 88
    },
    {
      "midi": 64,
      "hit": false,
      "t": 262000,
      "d": 950,
      "v": 88
    },
    {
      "midi": 76,
      "hit": false,
      "t": 262000,
      "d": 950,
      "v": 107
    },
    {
      "midi": 52,
      "hit": false,
      "t": 262000,
      "d": 475,
      "v": 93
    },
    {
      "midi": 55,
      "hit": false,
      "t": 262500,
      "d": 475,
      "v": 93
    },
    {
      "midi": 76,
      "hit": false,
      "t": 263000,
      "d": 950,
      "v": 88
    },
    {
      "midi": 67,
      "hit": false,
      "t": 263000,
      "d": 950,
      "v": 88
    },
    {
      "midi": 79,
      "hit": false,
      "t": 263000,
      "d": 950,
      "v": 105
    },
    {
      "midi": 60,
      "hit": false,
      "t": 263000,
      "d": 475,
      "v": 93
    },
    {
      "midi": 64,
      "hit": false,
      "t": 263500,
      "d": 475,
      "v": 91
    },
    {
      "midi": 67,
      "hit": false,
      "t": 264000,
      "d": 950,
      "v": 88
    },
    {
      "midi": 64,
      "hit": false,
      "t": 264000,
      "d": 950,
      "v": 88
    },
    {
      "midi": 76,
      "hit": false,
      "t": 264000,
      "d": 950,
      "v": 103
    },
    {
      "midi": 40,
      "hit": false,
      "t": 264000,
      "d": 475,
      "v": 89
    },
    {
      "midi": 48,
      "hit": false,
      "t": 264500,
      "d": 475,
      "v": 89
    },
    {
      "midi": 72,
      "hit": false,
      "t": 265000,
      "d": 950,
      "v": 88
    },
    {
      "midi": 65,
      "hit": false,
      "t": 265000,
      "d": 950,
      "v": 88
    },
    {
      "midi": 77,
      "hit": false,
      "t": 265000,
      "d": 950,
      "v": 103
    },
    {
      "midi": 55,
      "hit": false,
      "t": 265000,
      "d": 475,
      "v": 89
    },
    {
      "midi": 60,
      "hit": false,
      "t": 265500,
      "d": 475,
      "v": 89
    },
    {
      "midi": 76,
      "hit": false,
      "t": 266000,
      "d": 950,
      "v": 88
    },
    {
      "midi": 67,
      "hit": false,
      "t": 266000,
      "d": 950,
      "v": 88
    },
    {
      "midi": 79,
      "hit": false,
      "t": 266000,
      "d": 950,
      "v": 103
    },
    {
      "midi": 64,
      "hit": false,
      "t": 266000,
      "d": 475,
      "v": 91
    },
    {
      "midi": 67,
      "hit": false,
      "t": 266500,
      "d": 475,
      "v": 91
    },
    {
      "midi": 77,
      "hit": false,
      "t": 267000,
      "d": 950,
      "v": 88
    },
    {
      "midi": 69,
      "hit": false,
      "t": 267000,
      "d": 950,
      "v": 88
    },
    {
      "midi": 81,
      "hit": false,
      "t": 267000,
      "d": 950,
      "v": 103
    },
    {
      "midi": 41,
      "hit": false,
      "t": 267000,
      "d": 475,
      "v": 91
    },
    {
      "midi": 48,
      "hit": false,
      "t": 267500,
      "d": 475,
      "v": 91
    },
    {
      "midi": 79,
      "hit": false,
      "t": 268000,
      "d": 950,
      "v": 88
    },
    {
      "midi": 71,
      "hit": false,
      "t": 268000,
      "d": 950,
      "v": 88
    },
    {
      "midi": 83,
      "hit": false,
      "t": 268000,
      "d": 950,
      "v": 103
    },
    {
      "midi": 57,
      "hit": false,
      "t": 268000,
      "d": 475,
      "v": 91
    },
    {
      "midi": 60,
      "hit": false,
      "t": 268500,
      "d": 475,
      "v": 91
    },
    {
      "midi": 81,
      "hit": false,
      "t": 269000,
      "d": 950,
      "v": 88
    },
    {
      "midi": 72,
      "hit": false,
      "t": 269000,
      "d": 950,
      "v": 88
    },
    {
      "midi": 84,
      "hit": false,
      "t": 269000,
      "d": 950,
      "v": 103
    },
    {
      "midi": 65,
      "hit": false,
      "t": 269000,
      "d": 475,
      "v": 91
    },
    {
      "midi": 69,
      "hit": false,
      "t": 269500,
      "d": 475,
      "v": 91
    },
    {
      "midi": 76,
      "hit": false,
      "t": 270000,
      "d": 2850,
      "v": 88
    },
    {
      "midi": 67,
      "hit": false,
      "t": 270000,
      "d": 2850,
      "v": 88
    },
    {
      "midi": 79,
      "hit": false,
      "t": 270000,
      "d": 2850,
      "v": 104
    },
    {
      "midi": 40,
      "hit": false,
      "t": 270000,
      "d": 475,
      "v": 93
    },
    {
      "midi": 48,
      "hit": false,
      "t": 270500,
      "d": 475,
      "v": 93
    },
    {
      "midi": 55,
      "hit": false,
      "t": 271000,
      "d": 475,
      "v": 93
    },
    {
      "midi": 60,
      "hit": false,
      "t": 271500,
      "d": 475,
      "v": 93
    },
    {
      "midi": 64,
      "hit": false,
      "t": 272000,
      "d": 475,
      "v": 91
    },
    {
      "midi": 67,
      "hit": false,
      "t": 272500,
      "d": 475,
      "v": 91
    },
    {
      "midi": 72,
      "hit": false,
      "t": 273000,
      "d": 1425,
      "v": 88
    },
    {
      "midi": 65,
      "hit": false,
      "t": 273000,
      "d": 1425,
      "v": 88
    },
    {
      "midi": 77,
      "hit": false,
      "t": 273000,
      "d": 1425,
      "v": 104
    },
    {
      "midi": 38,
      "hit": false,
      "t": 273000,
      "d": 475,
      "v": 93
    },
    {
      "midi": 45,
      "hit": false,
      "t": 273500,
      "d": 475,
      "v": 93
    },
    {
      "midi": 53,
      "hit": false,
      "t": 274000,
      "d": 475,
      "v": 93
    },
    {
      "midi": 72,
      "hit": false,
      "t": 274500,
      "d": 475,
      "v": 88
    },
    {
      "midi": 67,
      "hit": false,
      "t": 274500,
      "d": 475,
      "v": 88
    },
    {
      "midi": 79,
      "hit": false,
      "t": 274500,
      "d": 475,
      "v": 104
    },
    {
      "midi": 57,
      "hit": false,
      "t": 274500,
      "d": 475,
      "v": 93
    },
    {
      "midi": 72,
      "hit": false,
      "t": 275000,
      "d": 950,
      "v": 88
    },
    {
      "midi": 65,
      "hit": false,
      "t": 275000,
      "d": 950,
      "v": 88
    },
    {
      "midi": 77,
      "hit": false,
      "t": 275000,
      "d": 950,
      "v": 104
    },
    {
      "midi": 62,
      "hit": false,
      "t": 275000,
      "d": 475,
      "v": 91
    },
    {
      "midi": 57,
      "hit": false,
      "t": 275500,
      "d": 475,
      "v": 91
    },
    {
      "midi": 72,
      "hit": false,
      "t": 276000,
      "d": 950,
      "v": 88
    },
    {
      "midi": 64,
      "hit": false,
      "t": 276000,
      "d": 950,
      "v": 88
    },
    {
      "midi": 76,
      "hit": false,
      "t": 276000,
      "d": 950,
      "v": 104
    },
    {
      "midi": 36,
      "hit": false,
      "t": 276000,
      "d": 475,
      "v": 93
    },
    {
      "midi": 43,
      "hit": false,
      "t": 276500,
      "d": 475,
      "v": 93
    },
    {
      "midi": 72,
      "hit": false,
      "t": 277000,
      "d": 950,
      "v": 88
    },
    {
      "midi": 65,
      "hit": false,
      "t": 277000,
      "d": 950,
      "v": 88
    },
    {
      "midi": 77,
      "hit": false,
      "t": 277000,
      "d": 950,
      "v": 104
    },
    {
      "midi": 52,
      "hit": false,
      "t": 277000,
      "d": 475,
      "v": 93
    },
    {
      "midi": 55,
      "hit": false,
      "t": 277500,
      "d": 475,
      "v": 93
    },
    {
      "midi": 76,
      "hit": false,
      "t": 278000,
      "d": 950,
      "v": 88
    },
    {
      "midi": 67,
      "hit": false,
      "t": 278000,
      "d": 950,
      "v": 88
    },
    {
      "midi": 79,
      "hit": false,
      "t": 278000,
      "d": 950,
      "v": 104
    },
    {
      "midi": 60,
      "hit": false,
      "t": 278000,
      "d": 475,
      "v": 91
    },
    {
      "midi": 64,
      "hit": false,
      "t": 278500,
      "d": 475,
      "v": 91
    },
    {
      "midi": 72,
      "hit": false,
      "t": 279000,
      "d": 2850,
      "v": 88
    },
    {
      "midi": 67,
      "hit": false,
      "t": 279000,
      "d": 2850,
      "v": 88
    },
    {
      "midi": 74,
      "hit": false,
      "t": 279000,
      "d": 2850,
      "v": 104
    },
    {
      "midi": 43,
      "hit": false,
      "t": 279000,
      "d": 475,
      "v": 93
    },
    {
      "midi": 50,
      "hit": false,
      "t": 279500,
      "d": 475,
      "v": 93
    },
    {
      "midi": 55,
      "hit": false,
      "t": 280000,
      "d": 475,
      "v": 93
    },
    {
      "midi": 60,
      "hit": false,
      "t": 280500,
      "d": 475,
      "v": 93
    },
    {
      "midi": 62,
      "hit": false,
      "t": 281000,
      "d": 475,
      "v": 91
    },
    {
      "midi": 67,
      "hit": false,
      "t": 281500,
      "d": 475,
      "v": 91
    },
    {
      "midi": 59,
      "hit": false,
      "t": 282000,
      "d": 475,
      "v": 88
    },
    {
      "midi": 74,
      "hit": false,
      "t": 282000,
      "d": 2850,
      "v": 104
    },
    {
      "midi": 43,
      "hit": false,
      "t": 282000,
      "d": 950,
      "v": 104
    },
    {
      "midi": 55,
      "hit": false,
      "t": 282500,
      "d": 475,
      "v": 88
    },
    {
      "midi": 60,
      "hit": false,
      "t": 283000,
      "d": 475,
      "v": 88
    },
    {
      "midi": 45,
      "hit": false,
      "t": 283000,
      "d": 950,
      "v": 104
    },
    {
      "midi": 55,
      "hit": false,
      "t": 283500,
      "d": 475,
      "v": 88
    },
    {
      "midi": 62,
      "hit": false,
      "t": 284000,
      "d": 475,
      "v": 88
    },
    {
      "midi": 47,
      "hit": false,
      "t": 284000,
      "d": 950,
      "v": 104
    },
    {
      "midi": 55,
      "hit": false,
      "t": 284500,
      "d": 475,
      "v": 88
    },
    {
      "midi": 72,
      "hit": false,
      "t": 285000,
      "d": 950,
      "v": 101
    },
    {
      "midi": 64,
      "hit": false,
      "t": 285000,
      "d": 950,
      "v": 88
    },
    {
      "midi": 60,
      "hit": false,
      "t": 285000,
      "d": 950,
      "v": 88
    },
    {
      "midi": 36,
      "hit": false,
      "t": 285000,
      "d": 475,
      "v": 93
    },
    {
      "midi": 43,
      "hit": false,
      "t": 285500,
      "d": 475,
      "v": 93
    },
    {
      "midi": 67,
      "hit": false,
      "t": 286000,
      "d": 950,
      "v": 88
    },
    {
      "midi": 64,
      "hit": false,
      "t": 286000,
      "d": 950,
      "v": 88
    },
    {
      "midi": 76,
      "hit": false,
      "t": 286000,
      "d": 950,
      "v": 107
    },
    {
      "midi": 52,
      "hit": false,
      "t": 286000,
      "d": 475,
      "v": 93
    },
    {
      "midi": 55,
      "hit": false,
      "t": 286500,
      "d": 475,
      "v": 93
    },
    {
      "midi": 76,
      "hit": false,
      "t": 287000,
      "d": 950,
      "v": 88
    },
    {
      "midi": 67,
      "hit": false,
      "t": 287000,
      "d": 950,
      "v": 88
    },
    {
      "midi": 79,
      "hit": false,
      "t": 287000,
      "d": 950,
      "v": 105
    },
    {
      "midi": 60,
      "hit": false,
      "t": 287000,
      "d": 475,
      "v": 93
    },
    {
      "midi": 64,
      "hit": false,
      "t": 287500,
      "d": 475,
      "v": 91
    },
    {
      "midi": 67,
      "hit": false,
      "t": 288000,
      "d": 950,
      "v": 88
    },
    {
      "midi": 64,
      "hit": false,
      "t": 288000,
      "d": 950,
      "v": 88
    },
    {
      "midi": 76,
      "hit": false,
      "t": 288000,
      "d": 950,
      "v": 103
    },
    {
      "midi": 40,
      "hit": false,
      "t": 288000,
      "d": 475,
      "v": 89
    },
    {
      "midi": 48,
      "hit": false,
      "t": 288500,
      "d": 475,
      "v": 89
    },
    {
      "midi": 72,
      "hit": false,
      "t": 289000,
      "d": 950,
      "v": 88
    },
    {
      "midi": 65,
      "hit": false,
      "t": 289000,
      "d": 950,
      "v": 88
    },
    {
      "midi": 77,
      "hit": false,
      "t": 289000,
      "d": 950,
      "v": 103
    },
    {
      "midi": 55,
      "hit": false,
      "t": 289000,
      "d": 475,
      "v": 89
    },
    {
      "midi": 60,
      "hit": false,
      "t": 289500,
      "d": 475,
      "v": 89
    },
    {
      "midi": 76,
      "hit": false,
      "t": 290000,
      "d": 950,
      "v": 88
    },
    {
      "midi": 67,
      "hit": false,
      "t": 290000,
      "d": 950,
      "v": 88
    },
    {
      "midi": 79,
      "hit": false,
      "t": 290000,
      "d": 950,
      "v": 103
    },
    {
      "midi": 64,
      "hit": false,
      "t": 290000,
      "d": 475,
      "v": 91
    },
    {
      "midi": 67,
      "hit": false,
      "t": 290500,
      "d": 475,
      "v": 91
    },
    {
      "midi": 77,
      "hit": false,
      "t": 291000,
      "d": 950,
      "v": 88
    },
    {
      "midi": 69,
      "hit": false,
      "t": 291000,
      "d": 950,
      "v": 88
    },
    {
      "midi": 81,
      "hit": false,
      "t": 291000,
      "d": 950,
      "v": 103
    },
    {
      "midi": 41,
      "hit": false,
      "t": 291000,
      "d": 475,
      "v": 91
    },
    {
      "midi": 48,
      "hit": false,
      "t": 291500,
      "d": 475,
      "v": 91
    },
    {
      "midi": 79,
      "hit": false,
      "t": 292000,
      "d": 950,
      "v": 88
    },
    {
      "midi": 71,
      "hit": false,
      "t": 292000,
      "d": 950,
      "v": 88
    },
    {
      "midi": 83,
      "hit": false,
      "t": 292000,
      "d": 950,
      "v": 103
    },
    {
      "midi": 57,
      "hit": false,
      "t": 292000,
      "d": 475,
      "v": 91
    },
    {
      "midi": 60,
      "hit": false,
      "t": 292500,
      "d": 475,
      "v": 91
    },
    {
      "midi": 81,
      "hit": false,
      "t": 293000,
      "d": 950,
      "v": 88
    },
    {
      "midi": 72,
      "hit": false,
      "t": 293000,
      "d": 950,
      "v": 88
    },
    {
      "midi": 84,
      "hit": false,
      "t": 293000,
      "d": 950,
      "v": 103
    },
    {
      "midi": 65,
      "hit": false,
      "t": 293000,
      "d": 475,
      "v": 91
    },
    {
      "midi": 69,
      "hit": false,
      "t": 293500,
      "d": 475,
      "v": 91
    },
    {
      "midi": 76,
      "hit": false,
      "t": 294000,
      "d": 1933.333333333314,
      "v": 88
    },
    {
      "midi": 67,
      "hit": false,
      "t": 294000,
      "d": 1933.333333333314,
      "v": 88
    },
    {
      "midi": 79,
      "hit": false,
      "t": 294000,
      "d": 1933.333333333314,
      "v": 104
    },
    {
      "midi": 40,
      "hit": false,
      "t": 294000,
      "d": 475,
      "v": 93
    },
    {
      "midi": 48,
      "hit": false,
      "t": 294500,
      "d": 475,
      "v": 93
    },
    {
      "midi": 55,
      "hit": false,
      "t": 295000,
      "d": 475,
      "v": 93
    },
    {
      "midi": 60,
      "hit": false,
      "t": 295500,
      "d": 475,
      "v": 93
    },
    {
      "midi": 67,
      "hit": false,
      "t": 296000,
      "d": 950,
      "v": 88
    },
    {
      "midi": 76,
      "hit": false,
      "t": 296000,
      "d": 950,
      "v": 88
    },
    {
      "midi": 79,
      "hit": false,
      "t": 296000,
      "d": 950,
      "v": 104
    },
    {
      "midi": 64,
      "hit": false,
      "t": 296000,
      "d": 475,
      "v": 91
    },
    {
      "midi": 67,
      "hit": false,
      "t": 296500,
      "d": 475,
      "v": 91
    },
    {
      "midi": 76,
      "hit": false,
      "t": 297000,
      "d": 1425,
      "v": 88
    },
    {
      "midi": 72,
      "hit": false,
      "t": 297000,
      "d": 1425,
      "v": 88
    },
    {
      "midi": 84,
      "hit": false,
      "t": 297000,
      "d": 1425,
      "v": 104
    },
    {
      "midi": 33,
      "hit": false,
      "t": 297000,
      "d": 475,
      "v": 93
    },
    {
      "midi": 40,
      "hit": false,
      "t": 297500,
      "d": 475,
      "v": 93
    },
    {
      "midi": 45,
      "hit": false,
      "t": 298000,
      "d": 475,
      "v": 93
    },
    {
      "midi": 76,
      "hit": false,
      "t": 298500,
      "d": 475,
      "v": 88
    },
    {
      "midi": 71,
      "hit": false,
      "t": 298500,
      "d": 475,
      "v": 88
    },
    {
      "midi": 83,
      "hit": false,
      "t": 298500,
      "d": 475,
      "v": 104
    },
    {
      "midi": 35,
      "hit": false,
      "t": 298500,
      "d": 475,
      "v": 93
    },
    {
      "midi": 47,
      "hit": false,
      "t": 298500,
      "d": 475,
      "v": 93
    },
    {
      "midi": 76,
      "hit": false,
      "t": 299000,
      "d": 950,
      "v": 88
    },
    {
      "midi": 69,
      "hit": false,
      "t": 299000,
      "d": 950,
      "v": 88
    },
    {
      "midi": 81,
      "hit": false,
      "t": 299000,
      "d": 950,
      "v": 104
    },
    {
      "midi": 48,
      "hit": false,
      "t": 299000,
      "d": 475,
      "v": 93
    },
    {
      "midi": 36,
      "hit": false,
      "t": 299000,
      "d": 475,
      "v": 93
    },
    {
      "midi": 50,
      "hit": false,
      "t": 299500,
      "d": 475,
      "v": 93
    },
    {
      "midi": 38,
      "hit": false,
      "t": 299500,
      "d": 475,
      "v": 93
    },
    {
      "midi": 76,
      "hit": false,
      "t": 300000,
      "d": 1900,
      "v": 88
    },
    {
      "midi": 67,
      "hit": false,
      "t": 300000,
      "d": 1900,
      "v": 88
    },
    {
      "midi": 79,
      "hit": false,
      "t": 300000,
      "d": 1900,
      "v": 104
    },
    {
      "midi": 52,
      "hit": false,
      "t": 300000,
      "d": 950,
      "v": 98
    },
    {
      "midi": 40,
      "hit": false,
      "t": 300000,
      "d": 950,
      "v": 98
    },
    {
      "midi": 28,
      "hit": false,
      "t": 301000,
      "d": 950,
      "v": 98
    },
    {
      "midi": 40,
      "hit": false,
      "t": 301000,
      "d": 950,
      "v": 98
    },
    {
      "midi": 64,
      "hit": false,
      "t": 302000,
      "d": 950,
      "v": 88
    },
    {
      "midi": 60,
      "hit": false,
      "t": 302000,
      "d": 950,
      "v": 88
    },
    {
      "midi": 72,
      "hit": false,
      "t": 302000,
      "d": 950,
      "v": 104
    },
    {
      "midi": 45,
      "hit": false,
      "t": 302000,
      "d": 950,
      "v": 98
    },
    {
      "midi": 57,
      "hit": false,
      "t": 302000,
      "d": 950,
      "v": 98
    },
    {
      "midi": 69,
      "hit": false,
      "t": 303000,
      "d": 1425,
      "v": 88
    },
    {
      "midi": 65,
      "hit": false,
      "t": 303000,
      "d": 1425,
      "v": 88
    },
    {
      "midi": 74,
      "hit": false,
      "t": 303000,
      "d": 1425,
      "v": 104
    },
    {
      "midi": 38,
      "hit": false,
      "t": 303000,
      "d": 475,
      "v": 104
    },
    {
      "midi": 45,
      "hit": false,
      "t": 303500,
      "d": 475,
      "v": 104
    },
    {
      "midi": 53,
      "hit": false,
      "t": 304000,
      "d": 475,
      "v": 104
    },
    {
      "midi": 67,
      "hit": false,
      "t": 304500,
      "d": 475,
      "v": 88
    },
    {
      "midi": 76,
      "hit": false,
      "t": 304500,
      "d": 475,
      "v": 104
    },
    {
      "midi": 57,
      "hit": false,
      "t": 304500,
      "d": 475,
      "v": 104
    },
    {
      "midi": 65,
      "hit": false,
      "t": 305000,
      "d": 950,
      "v": 88
    },
    {
      "midi": 74,
      "hit": false,
      "t": 305000,
      "d": 950,
      "v": 104
    },
    {
      "midi": 43,
      "hit": false,
      "t": 305000,
      "d": 950,
      "v": 104
    },
    {
      "midi": 64,
      "hit": false,
      "t": 306000,
      "d": 2850,
      "v": 88
    },
    {
      "midi": 60,
      "hit": false,
      "t": 306000,
      "d": 2850,
      "v": 88
    },
    {
      "midi": 36,
      "hit": false,
      "t": 306000,
      "d": 475,
      "v": 104
    },
    {
      "midi": 43,
      "hit": false,
      "t": 306500,
      "d": 475,
      "v": 104
    },
    {
      "midi": 84,
      "hit": false,
      "t": 307000,
      "d": 475,
      "v": 85
    },
    {
      "midi": 52,
      "hit": false,
      "t": 307000,
      "d": 475,
      "v": 104
    },
    {
      "midi": 79,
      "hit": false,
      "t": 307500,
      "d": 516.6666666666861,
      "v": 85
    },
    {
      "midi": 55,
      "hit": false,
      "t": 307500,
      "d": 475,
      "v": 104
    },
    {
      "midi": 76,
      "hit": false,
      "t": 308000,
      "d": 475,
      "v": 85
    },
    {
      "midi": 60,
      "hit": false,
      "t": 308000,
      "d": 475,
      "v": 104
    },
    {
      "midi": 72,
      "hit": false,
      "t": 308500,
      "d": 350,
      "v": 87
    },
    {
      "midi": 55,
      "hit": false,
      "t": 308500,
      "d": 475,
      "v": 104
    },
    {
      "midi": 77,
      "hit": false,
      "t": 309000,
      "d": 1900,
      "v": 97
    },
    {
      "midi": 69,
      "hit": false,
      "t": 309000,
      "d": 1900,
      "v": 97
    },
    {
      "midi": 81,
      "hit": false,
      "t": 309000,
      "d": 1900,
      "v": 110
    },
    {
      "midi": 53,
      "hit": false,
      "t": 309000,
      "d": 475,
      "v": 88
    },
    {
      "midi": 41,
      "hit": false,
      "t": 309000,
      "d": 2933.333333333314,
      "v": 88
    },
    {
      "midi": 60,
      "hit": false,
      "t": 309500,
      "d": 475,
      "v": 88
    },
    {
      "midi": 65,
      "hit": false,
      "t": 310000,
      "d": 475,
      "v": 88
    },
    {
      "midi": 69,
      "hit": false,
      "t": 310500,
      "d": 475,
      "v": 88
    },
    {
      "midi": 77,
      "hit": false,
      "t": 311000,
      "d": 950,
      "v": 97
    },
    {
      "midi": 69,
      "hit": false,
      "t": 311000,
      "d": 950,
      "v": 97
    },
    {
      "midi": 81,
      "hit": false,
      "t": 311000,
      "d": 950,
      "v": 110
    },
    {
      "midi": 72,
      "hit": false,
      "t": 311000,
      "d": 475,
      "v": 88
    },
    {
      "midi": 69,
      "hit": false,
      "t": 311500,
      "d": 475,
      "v": 88
    },
    {
      "midi": 77,
      "hit": false,
      "t": 312000,
      "d": 950,
      "v": 97
    },
    {
      "midi": 69,
      "hit": false,
      "t": 312000,
      "d": 950,
      "v": 97
    },
    {
      "midi": 81,
      "hit": false,
      "t": 312000,
      "d": 950,
      "v": 110
    },
    {
      "midi": 53,
      "hit": false,
      "t": 312000,
      "d": 475,
      "v": 88
    },
    {
      "midi": 41,
      "hit": false,
      "t": 312000,
      "d": 2883.333333333314,
      "v": 88
    },
    {
      "midi": 60,
      "hit": false,
      "t": 312500,
      "d": 475,
      "v": 88
    },
    {
      "midi": 79,
      "hit": false,
      "t": 313000,
      "d": 950,
      "v": 97
    },
    {
      "midi": 71,
      "hit": false,
      "t": 313000,
      "d": 950,
      "v": 97
    },
    {
      "midi": 83,
      "hit": false,
      "t": 313000,
      "d": 950,
      "v": 110
    },
    {
      "midi": 65,
      "hit": false,
      "t": 313000,
      "d": 475,
      "v": 88
    },
    {
      "midi": 69,
      "hit": false,
      "t": 313500,
      "d": 475,
      "v": 88
    },
    {
      "midi": 81,
      "hit": false,
      "t": 314000,
      "d": 950,
      "v": 97
    },
    {
      "midi": 72,
      "hit": false,
      "t": 314000,
      "d": 950,
      "v": 97
    },
    {
      "midi": 84,
      "hit": false,
      "t": 314000,
      "d": 950,
      "v": 110
    },
    {
      "midi": 72,
      "hit": false,
      "t": 314000,
      "d": 475,
      "v": 88
    },
    {
      "midi": 69,
      "hit": false,
      "t": 314500,
      "d": 475,
      "v": 88
    },
    {
      "midi": 79,
      "hit": false,
      "t": 315000,
      "d": 2850,
      "v": 97
    },
    {
      "midi": 76,
      "hit": false,
      "t": 315000,
      "d": 2850,
      "v": 97
    },
    {
      "midi": 84,
      "hit": false,
      "t": 315000,
      "d": 2850,
      "v": 110
    },
    {
      "midi": 52,
      "hit": false,
      "t": 315000,
      "d": 475,
      "v": 88
    },
    {
      "midi": 40,
      "hit": false,
      "t": 315000,
      "d": 2850,
      "v": 88
    },
    {
      "midi": 60,
      "hit": false,
      "t": 315500,
      "d": 475,
      "v": 88
    },
    {
      "midi": 64,
      "hit": false,
      "t": 316000,
      "d": 475,
      "v": 88
    },
    {
      "midi": 67,
      "hit": false,
      "t": 316500,
      "d": 475,
      "v": 88
    },
    {
      "midi": 72,
      "hit": false,
      "t": 317000,
      "d": 475,
      "v": 88
    },
    {
      "midi": 67,
      "hit": false,
      "t": 317500,
      "d": 475,
      "v": 88
    },
    {
      "midi": 72,
      "hit": false,
      "t": 318000,
      "d": 2850,
      "v": 97
    },
    {
      "midi": 67,
      "hit": false,
      "t": 318000,
      "d": 2850,
      "v": 97
    },
    {
      "midi": 79,
      "hit": false,
      "t": 318000,
      "d": 2850,
      "v": 110
    },
    {
      "midi": 52,
      "hit": false,
      "t": 318000,
      "d": 475,
      "v": 88
    },
    {
      "midi": 40,
      "hit": false,
      "t": 318000,
      "d": 2800,
      "v": 88
    },
    {
      "midi": 60,
      "hit": false,
      "t": 318500,
      "d": 475,
      "v": 88
    },
    {
      "midi": 64,
      "hit": false,
      "t": 319000,
      "d": 475,
      "v": 88
    },
    {
      "midi": 67,
      "hit": false,
      "t": 319500,
      "d": 475,
      "v": 88
    },
    {
      "midi": 72,
      "hit": false,
      "t": 320000,
      "d": 475,
      "v": 88
    },
    {
      "midi": 67,
      "hit": false,
      "t": 320500,
      "d": 475,
      "v": 88
    },
    {
      "midi": 75,
      "hit": false,
      "t": 321000,
      "d": 1425,
      "v": 97
    },
    {
      "midi": 67,
      "hit": false,
      "t": 321000,
      "d": 1425,
      "v": 97
    },
    {
      "midi": 79,
      "hit": false,
      "t": 321000,
      "d": 1425,
      "v": 110
    },
    {
      "midi": 51,
      "hit": false,
      "t": 321000,
      "d": 483.33333333331393,
      "v": 88
    },
    {
      "midi": 39,
      "hit": false,
      "t": 321000,
      "d": 2916.666666666686,
      "v": 88
    },
    {
      "midi": 55,
      "hit": false,
      "t": 321500,
      "d": 475,
      "v": 88
    },
    {
      "midi": 58,
      "hit": false,
      "t": 322000,
      "d": 475,
      "v": 88
    },
    {
      "midi": 75,
      "hit": false,
      "t": 322500,
      "d": 475,
      "v": 97
    },
    {
      "midi": 67,
      "hit": false,
      "t": 322500,
      "d": 475,
      "v": 97
    },
    {
      "midi": 79,
      "hit": false,
      "t": 322500,
      "d": 475,
      "v": 110
    },
    {
      "midi": 63,
      "hit": false,
      "t": 322500,
      "d": 475,
      "v": 87
    },
    {
      "midi": 75,
      "hit": false,
      "t": 323000,
      "d": 950,
      "v": 97
    },
    {
      "midi": 67,
      "hit": false,
      "t": 323000,
      "d": 950,
      "v": 97
    },
    {
      "midi": 79,
      "hit": false,
      "t": 323000,
      "d": 950,
      "v": 110
    },
    {
      "midi": 67,
      "hit": false,
      "t": 323000,
      "d": 475,
      "v": 88
    },
    {
      "midi": 63,
      "hit": false,
      "t": 323500,
      "d": 475,
      "v": 88
    },
    {
      "midi": 72,
      "hit": false,
      "t": 324000,
      "d": 950,
      "v": 97
    },
    {
      "midi": 68,
      "hit": false,
      "t": 324000,
      "d": 950,
      "v": 97
    },
    {
      "midi": 79,
      "hit": false,
      "t": 324000,
      "d": 950,
      "v": 110
    },
    {
      "midi": 56,
      "hit": false,
      "t": 324000,
      "d": 475,
      "v": 88
    },
    {
      "midi": 44,
      "hit": false,
      "t": 324016.6666666667,
      "d": 2916.666666666628,
      "v": 88
    },
    {
      "midi": 60,
      "hit": false,
      "t": 324500,
      "d": 475,
      "v": 88
    },
    {
      "midi": 72,
      "hit": false,
      "t": 325000,
      "d": 950,
      "v": 97
    },
    {
      "midi": 68,
      "hit": false,
      "t": 325000,
      "d": 950,
      "v": 97
    },
    {
      "midi": 77,
      "hit": false,
      "t": 325000,
      "d": 950,
      "v": 110
    },
    {
      "midi": 63,
      "hit": false,
      "t": 325000,
      "d": 475,
      "v": 88
    },
    {
      "midi": 67,
      "hit": false,
      "t": 325500,
      "d": 475,
      "v": 88
    },
    {
      "midi": 72,
      "hit": false,
      "t": 326000,
      "d": 950,
      "v": 97
    },
    {
      "midi": 63,
      "hit": false,
      "t": 326000,
      "d": 950,
      "v": 97
    },
    {
      "midi": 75,
      "hit": false,
      "t": 326000,
      "d": 950,
      "v": 110
    },
    {
      "midi": 63,
      "hit": false,
      "t": 326000,
      "d": 475,
      "v": 88
    },
    {
      "midi": 60,
      "hit": false,
      "t": 326500,
      "d": 475,
      "v": 88
    },
    {
      "midi": 72,
      "hit": false,
      "t": 327000,
      "d": 2850,
      "v": 97
    },
    {
      "midi": 65,
      "hit": false,
      "t": 327000,
      "d": 2850,
      "v": 97
    },
    {
      "midi": 77,
      "hit": false,
      "t": 327000,
      "d": 2850,
      "v": 110
    },
    {
      "midi": 50,
      "hit": false,
      "t": 327000,
      "d": 475,
      "v": 88
    },
    {
      "midi": 38,
      "hit": false,
      "t": 327033.3333333333,
      "d": 2850,
      "v": 89
    },
    {
      "midi": 57,
      "hit": false,
      "t": 327500,
      "d": 475,
      "v": 88
    },
    {
      "midi": 62,
      "hit": false,
      "t": 328000,
      "d": 475,
      "v": 88
    },
    {
      "midi": 65,
      "hit": false,
      "t": 328500,
      "d": 475,
      "v": 88
    },
    {
      "midi": 62,
      "hit": false,
      "t": 329000,
      "d": 475,
      "v": 88
    },
    {
      "midi": 57,
      "hit": false,
      "t": 329500,
      "d": 475,
      "v": 88
    },
    {
      "midi": 74,
      "hit": false,
      "t": 330000,
      "d": 2850,
      "v": 84
    },
    {
      "midi": 67,
      "hit": false,
      "t": 330000,
      "d": 2850,
      "v": 84
    },
    {
      "midi": 79,
      "hit": false,
      "t": 330000,
      "d": 2850,
      "v": 97
    },
    {
      "midi": 55,
      "hit": false,
      "t": 330000,
      "d": 475,
      "v": 87
    },
    {
      "midi": 43,
      "hit": false,
      "t": 330050,
      "d": 2850,
      "v": 89
    },
    {
      "midi": 60,
      "hit": false,
      "t": 330500,
      "d": 475,
      "v": 82
    },
    {
      "midi": 62,
      "hit": false,
      "t": 331000,
      "d": 475,
      "v": 78
    },
    {
      "midi": 67,
      "hit": false,
      "t": 331500,
      "d": 475,
      "v": 72
    },
    {
      "midi": 62,
      "hit": false,
      "t": 332000,
      "d": 475,
      "v": 67
    },
    {
      "midi": 60,
      "hit": false,
      "t": 332500,
      "d": 475,
      "v": 61
    },
    {
      "midi": 67,
      "hit": false,
      "t": 333000,
      "d": 475,
      "v": 70
    },
    {
      "midi": 71,
      "hit": false,
      "t": 333000,
      "d": 950,
      "v": 70
    },
    {
      "midi": 55,
      "hit": false,
      "t": 333000,
      "d": 950,
      "v": 67
    },
    {
      "midi": 67,
      "hit": false,
      "t": 333500,
      "d": 475,
      "v": 70
    },
    {
      "midi": 69,
      "hit": false,
      "t": 334000,
      "d": 475,
      "v": 70
    },
    {
      "midi": 72,
      "hit": false,
      "t": 334000,
      "d": 950,
      "v": 70
    },
    {
      "midi": 57,
      "hit": false,
      "t": 334000,
      "d": 950,
      "v": 76
    },
    {
      "midi": 67,
      "hit": false,
      "t": 334500,
      "d": 475,
      "v": 70
    },
    {
      "midi": 71,
      "hit": false,
      "t": 335000,
      "d": 475,
      "v": 70
    },
    {
      "midi": 74,
      "hit": false,
      "t": 335000,
      "d": 950,
      "v": 70
    },
    {
      "midi": 59,
      "hit": false,
      "t": 335000,
      "d": 950,
      "v": 85
    },
    {
      "midi": 67,
      "hit": false,
      "t": 335500,
      "d": 475,
      "v": 70
    },
    {
      "midi": 69,
      "hit": false,
      "t": 336000,
      "d": 475,
      "v": 70
    },
    {
      "midi": 72,
      "hit": false,
      "t": 336000,
      "d": 950,
      "v": 70
    },
    {
      "midi": 57,
      "hit": false,
      "t": 336000,
      "d": 950,
      "v": 76
    },
    {
      "midi": 67,
      "hit": false,
      "t": 336500,
      "d": 475,
      "v": 70
    },
    {
      "midi": 71,
      "hit": false,
      "t": 337000,
      "d": 475,
      "v": 70
    },
    {
      "midi": 55,
      "hit": false,
      "t": 337000,
      "d": 950,
      "v": 85
    },
    {
      "midi": 67,
      "hit": false,
      "t": 337500,
      "d": 475,
      "v": 70
    },
    {
      "midi": 62,
      "hit": false,
      "t": 338000,
      "d": 475,
      "v": 70
    },
    {
      "midi": 43,
      "hit": false,
      "t": 338500,
      "d": 475,
      "v": 70
    },
    {
      "midi": 72,
      "hit": false,
      "t": 339000,
      "d": 950,
      "v": 102
    },
    {
      "midi": 48,
      "hit": false,
      "t": 339000,
      "d": 475,
      "v": 80
    },
    {
      "midi": 55,
      "hit": false,
      "t": 339500,
      "d": 475,
      "v": 80
    },
    {
      "midi": 76,
      "hit": false,
      "t": 340000,
      "d": 950,
      "v": 102
    },
    {
      "midi": 60,
      "hit": false,
      "t": 340000,
      "d": 475,
      "v": 80
    },
    {
      "midi": 64,
      "hit": false,
      "t": 340500,
      "d": 475,
      "v": 80
    },
    {
      "midi": 79,
      "hit": false,
      "t": 341000,
      "d": 950,
      "v": 102
    },
    {
      "midi": 67,
      "hit": false,
      "t": 341000,
      "d": 475,
      "v": 80
    },
    {
      "midi": 64,
      "hit": false,
      "t": 341500,
      "d": 475,
      "v": 72
    },
    {
      "midi": 76,
      "hit": false,
      "t": 342000,
      "d": 950,
      "v": 102
    },
    {
      "midi": 52,
      "hit": false,
      "t": 342000,
      "d": 475,
      "v": 70
    },
    {
      "midi": 55,
      "hit": false,
      "t": 342500,
      "d": 475,
      "v": 70
    },
    {
      "midi": 77,
      "hit": false,
      "t": 343000,
      "d": 950,
      "v": 102
    },
    {
      "midi": 60,
      "hit": false,
      "t": 343000,
      "d": 475,
      "v": 70
    },
    {
      "midi": 64,
      "hit": false,
      "t": 343500,
      "d": 475,
      "v": 70
    },
    {
      "midi": 79,
      "hit": false,
      "t": 344000,
      "d": 950,
      "v": 102
    },
    {
      "midi": 67,
      "hit": false,
      "t": 344000,
      "d": 475,
      "v": 72
    },
    {
      "midi": 64,
      "hit": false,
      "t": 344500,
      "d": 475,
      "v": 72
    },
    {
      "midi": 81,
      "hit": false,
      "t": 345000,
      "d": 950,
      "v": 102
    },
    {
      "midi": 53,
      "hit": false,
      "t": 345000,
      "d": 475,
      "v": 72
    },
    {
      "midi": 60,
      "hit": false,
      "t": 345500,
      "d": 475,
      "v": 72
    },
    {
      "midi": 83,
      "hit": false,
      "t": 346000,
      "d": 950,
      "v": 102
    },
    {
      "midi": 65,
      "hit": false,
      "t": 346000,
      "d": 475,
      "v": 72
    },
    {
      "midi": 69,
      "hit": false,
      "t": 346500,
      "d": 475,
      "v": 72
    },
    {
      "midi": 84,
      "hit": false,
      "t": 347000,
      "d": 950,
      "v": 102
    },
    {
      "midi": 72,
      "hit": false,
      "t": 347000,
      "d": 475,
      "v": 72
    },
    {
      "midi": 69,
      "hit": false,
      "t": 347500,
      "d": 475,
      "v": 72
    },
    {
      "midi": 79,
      "hit": false,
      "t": 348000,
      "d": 1900,
      "v": 102
    },
    {
      "midi": 52,
      "hit": false,
      "t": 348000,
      "d": 475,
      "v": 74
    },
    {
      "midi": 60,
      "hit": false,
      "t": 348500,
      "d": 475,
      "v": 74
    },
    {
      "midi": 64,
      "hit": false,
      "t": 349000,
      "d": 475,
      "v": 74
    },
    {
      "midi": 67,
      "hit": false,
      "t": 349500,
      "d": 475,
      "v": 74
    },
    {
      "midi": 79,
      "hit": false,
      "t": 350000,
      "d": 950,
      "v": 102
    },
    {
      "midi": 72,
      "hit": false,
      "t": 350000,
      "d": 475,
      "v": 72
    },
    {
      "midi": 67,
      "hit": false,
      "t": 350500,
      "d": 475,
      "v": 72
    },
    {
      "midi": 84,
      "hit": false,
      "t": 351000,
      "d": 1425,
      "v": 102
    },
    {
      "midi": 57,
      "hit": false,
      "t": 351000,
      "d": 475,
      "v": 88
    },
    {
      "midi": 64,
      "hit": false,
      "t": 351500,
      "d": 475,
      "v": 88
    },
    {
      "midi": 69,
      "hit": false,
      "t": 352000,
      "d": 475,
      "v": 88
    },
    {
      "midi": 83,
      "hit": false,
      "t": 352500,
      "d": 475,
      "v": 102
    },
    {
      "midi": 59,
      "hit": false,
      "t": 352500,
      "d": 475,
      "v": 88
    },
    {
      "midi": 81,
      "hit": false,
      "t": 353000,
      "d": 950,
      "v": 102
    },
    {
      "midi": 60,
      "hit": false,
      "t": 353000,
      "d": 475,
      "v": 88
    },
    {
      "midi": 62,
      "hit": false,
      "t": 353500,
      "d": 475,
      "v": 88
    },
    {
      "midi": 79,
      "hit": false,
      "t": 354000,
      "d": 1900,
      "v": 102
    },
    {
      "midi": 64,
      "hit": false,
      "t": 354000,
      "d": 950,
      "v": 88
    },
    {
      "midi": 52,
      "hit": false,
      "t": 355000,
      "d": 950,
      "v": 88
    },
    {
      "midi": 72,
      "hit": false,
      "t": 356000,
      "d": 950,
      "v": 102
    },
    {
      "midi": 57,
      "hit": false,
      "t": 356000,
      "d": 950,
      "v": 88
    },
    {
      "midi": 74,
      "hit": false,
      "t": 357000,
      "d": 1425,
      "v": 102
    },
    {
      "midi": 50,
      "hit": false,
      "t": 357000,
      "d": 475,
      "v": 88
    },
    {
      "midi": 53,
      "hit": false,
      "t": 357500,
      "d": 475,
      "v": 88
    },
    {
      "midi": 57,
      "hit": false,
      "t": 358000,
      "d": 475,
      "v": 88
    },
    {
      "midi": 76,
      "hit": false,
      "t": 358500,
      "d": 475,
      "v": 102
    },
    {
      "midi": 62,
      "hit": false,
      "t": 358500,
      "d": 475,
      "v": 88
    },
    {
      "midi": 74,
      "hit": false,
      "t": 359000,
      "d": 950,
      "v": 102
    },
    {
      "midi": 55,
      "hit": false,
      "t": 359000,
      "d": 950,
      "v": 88
    },
    {
      "midi": 72,
      "hit": false,
      "t": 360000,
      "d": 2850,
      "v": 102
    },
    {
      "midi": 48,
      "hit": false,
      "t": 360000,
      "d": 475,
      "v": 87
    },
    {
      "midi": 55,
      "hit": false,
      "t": 360500,
      "d": 475,
      "v": 84
    },
    {
      "midi": 60,
      "hit": false,
      "t": 361000,
      "d": 475,
      "v": 80
    },
    {
      "midi": 64,
      "hit": false,
      "t": 361500,
      "d": 475,
      "v": 76
    },
    {
      "midi": 67,
      "hit": false,
      "t": 362000,
      "d": 950,
      "v": 72
    },
    {
      "midi": 83,
      "hit": false,
      "t": 363000,
      "d": 950,
      "v": 88
    },
    {
      "midi": 74,
      "hit": false,
      "t": 363000,
      "d": 950,
      "v": 88
    },
    {
      "midi": 79,
      "hit": false,
      "t": 363500,
      "d": 475,
      "v": 88
    },
    {
      "midi": 84,
      "hit": false,
      "t": 364000,
      "d": 950,
      "v": 88
    },
    {
      "midi": 76,
      "hit": false,
      "t": 364000,
      "d": 950,
      "v": 88
    },
    {
      "midi": 79,
      "hit": false,
      "t": 364500,
      "d": 475,
      "v": 88
    },
    {
      "midi": 86,
      "hit": false,
      "t": 365000,
      "d": 950,
      "v": 88
    },
    {
      "midi": 77,
      "hit": false,
      "t": 365000,
      "d": 950,
      "v": 88
    },
    {
      "midi": 79,
      "hit": false,
      "t": 365500,
      "d": 475,
      "v": 88
    },
    {
      "midi": 84,
      "hit": false,
      "t": 366000,
      "d": 950,
      "v": 88
    },
    {
      "midi": 76,
      "hit": false,
      "t": 366000,
      "d": 950,
      "v": 88
    },
    {
      "midi": 79,
      "hit": false,
      "t": 366500,
      "d": 475,
      "v": 88
    },
    {
      "midi": 83,
      "hit": false,
      "t": 367000,
      "d": 950,
      "v": 88
    },
    {
      "midi": 74,
      "hit": false,
      "t": 367000,
      "d": 950,
      "v": 88
    },
    {
      "midi": 79,
      "hit": false,
      "t": 367500,
      "d": 475,
      "v": 88
    },
    {
      "midi": 84,
      "hit": false,
      "t": 368000,
      "d": 950,
      "v": 88
    },
    {
      "midi": 76,
      "hit": false,
      "t": 368000,
      "d": 950,
      "v": 88
    },
    {
      "midi": 79,
      "hit": false,
      "t": 368500,
      "d": 475,
      "v": 88
    },
    {
      "midi": 81,
      "hit": false,
      "t": 369000,
      "d": 950,
      "v": 88
    },
    {
      "midi": 72,
      "hit": false,
      "t": 369000,
      "d": 950,
      "v": 88
    },
    {
      "midi": 77,
      "hit": false,
      "t": 369500,
      "d": 475,
      "v": 88
    },
    {
      "midi": 83,
      "hit": false,
      "t": 370000,
      "d": 950,
      "v": 88
    },
    {
      "midi": 74,
      "hit": false,
      "t": 370000,
      "d": 950,
      "v": 88
    },
    {
      "midi": 77,
      "hit": false,
      "t": 370500,
      "d": 475,
      "v": 88
    },
    {
      "midi": 84,
      "hit": false,
      "t": 371000,
      "d": 950,
      "v": 88
    },
    {
      "midi": 76,
      "hit": false,
      "t": 371000,
      "d": 950,
      "v": 88
    },
    {
      "midi": 77,
      "hit": false,
      "t": 371500,
      "d": 475,
      "v": 88
    },
    {
      "midi": 83,
      "hit": false,
      "t": 372000,
      "d": 950,
      "v": 88
    },
    {
      "midi": 74,
      "hit": false,
      "t": 372000,
      "d": 950,
      "v": 88
    },
    {
      "midi": 77,
      "hit": false,
      "t": 372500,
      "d": 475,
      "v": 88
    },
    {
      "midi": 81,
      "hit": false,
      "t": 373000,
      "d": 950,
      "v": 88
    },
    {
      "midi": 72,
      "hit": false,
      "t": 373000,
      "d": 950,
      "v": 88
    },
    {
      "midi": 77,
      "hit": false,
      "t": 373500,
      "d": 475,
      "v": 88
    },
    {
      "midi": 83,
      "hit": false,
      "t": 374000,
      "d": 950,
      "v": 88
    },
    {
      "midi": 74,
      "hit": false,
      "t": 374000,
      "d": 950,
      "v": 88
    },
    {
      "midi": 77,
      "hit": false,
      "t": 374500,
      "d": 475,
      "v": 88
    },
    {
      "midi": 62,
      "hit": false,
      "t": 375000,
      "d": 2850,
      "v": 88
    },
    {
      "midi": 59,
      "hit": false,
      "t": 375000,
      "d": 2850,
      "v": 88
    },
    {
      "midi": 67,
      "hit": false,
      "t": 375000,
      "d": 2850,
      "v": 88
    },
    {
      "midi": 40,
      "hit": false,
      "t": 375000,
      "d": 475,
      "v": 88
    },
    {
      "midi": 47,
      "hit": false,
      "t": 375500,
      "d": 475,
      "v": 88
    },
    {
      "midi": 55,
      "hit": false,
      "t": 376000,
      "d": 475,
      "v": 88
    },
    {
      "midi": 59,
      "hit": false,
      "t": 376500,
      "d": 475,
      "v": 88
    },
    {
      "midi": 62,
      "hit": false,
      "t": 377000,
      "d": 475,
      "v": 88
    },
    {
      "midi": 67,
      "hit": false,
      "t": 377500,
      "d": 475,
      "v": 88
    },
    {
      "midi": 67,
      "hit": false,
      "t": 378000,
      "d": 1966.666666666686,
      "v": 88
    },
    {
      "midi": 60,
      "hit": false,
      "t": 378000,
      "d": 1983.3333333333721,
      "v": 88
    },
    {
      "midi": 45,
      "hit": false,
      "t": 378000,
      "d": 475,
      "v": 88
    },
    {
      "midi": 52,
      "hit": false,
      "t": 378500,
      "d": 475,
      "v": 88
    },
    {
      "midi": 55,
      "hit": false,
      "t": 379000,
      "d": 475,
      "v": 92
    },
    {
      "midi": 60,
      "hit": false,
      "t": 379450,
      "d": 1425,
      "v": 92
    },
    {
      "midi": 65,
      "hit": false,
      "t": 380000.00000000006,
      "d": 475,
      "v": 97
    },
    {
      "midi": 64,
      "hit": false,
      "t": 380500.00000000006,
      "d": 475,
      "v": 97
    },
    {
      "midi": 38,
      "hit": false,
      "t": 381000,
      "d": 475,
      "v": 88
    },
    {
      "midi": 65,
      "hit": false,
      "t": 381000.00000000006,
      "d": 2850,
      "v": 88
    },
    {
      "midi": 60,
      "hit": false,
      "t": 381000.00000000006,
      "d": 2850,
      "v": 88
    },
    {
      "midi": 57,
      "hit": false,
      "t": 381000.00000000006,
      "d": 2850,
      "v": 88
    },
    {
      "midi": 45,
      "hit": false,
      "t": 381500,
      "d": 475,
      "v": 88
    },
    {
      "midi": 53,
      "hit": false,
      "t": 382000,
      "d": 475,
      "v": 88
    },
    {
      "midi": 57,
      "hit": false,
      "t": 382500,
      "d": 475,
      "v": 88
    },
    {
      "midi": 60,
      "hit": false,
      "t": 383000,
      "d": 475,
      "v": 88
    },
    {
      "midi": 65,
      "hit": false,
      "t": 383500,
      "d": 475,
      "v": 88
    },
    {
      "midi": 43,
      "hit": false,
      "t": 384000,
      "d": 475,
      "v": 88
    },
    {
      "midi": 50,
      "hit": false,
      "t": 384500,
      "d": 475,
      "v": 88
    },
    {
      "midi": 60,
      "hit": false,
      "t": 384516.66666666674,
      "d": 475,
      "v": 88
    },
    {
      "midi": 57,
      "hit": false,
      "t": 384966.6666666667,
      "d": 1900,
      "v": 88
    },
    {
      "midi": 65,
      "hit": false,
      "t": 385000.00000000006,
      "d": 475,
      "v": 88
    },
    {
      "midi": 69,
      "hit": false,
      "t": 385533.3333333334,
      "d": 475,
      "v": 88
    },
    {
      "midi": 72,
      "hit": false,
      "t": 386000.00000000006,
      "d": 475,
      "v": 88
    },
    {
      "midi": 77,
      "hit": false,
      "t": 386500.00000000006,
      "d": 475,
      "v": 88
    },
    {
      "midi": 77,
      "hit": false,
      "t": 387016.66666666674,
      "d": 950.0000000000582,
      "v": 88
    },
    {
      "midi": 81,
      "hit": false,
      "t": 387033.33333333343,
      "d": 950.0000000000582,
      "v": 102
    },
    {
      "midi": 72,
      "hit": false,
      "t": 387050.0000000001,
      "d": 950.0000000000582,
      "v": 88
    },
    {
      "midi": 84,
      "hit": false,
      "t": 388050.0000000002,
      "d": 950,
      "v": 102
    },
    {
      "midi": 86,
      "hit": false,
      "t": 388933.3333333335,
      "d": 950,
      "v": 104
    },
    {
      "midi": 74,
      "hit": false,
      "t": 389000.0000000002,
      "d": 950,
      "v": 88
    },
    {
      "midi": 36,
      "hit": false,
      "t": 390000,
      "d": 475,
      "v": 88
    },
    {
      "midi": 76,
      "hit": false,
      "t": 390000.0000000002,
      "d": 2849.999999999942,
      "v": 97
    },
    {
      "midi": 79,
      "hit": false,
      "t": 390083.3333333335,
      "d": 2849.999999999942,
      "v": 104
    },
    {
      "midi": 84,
      "hit": false,
      "t": 390116.6666666668,
      "d": 2849.999999999942,
      "v": 104
    },
    {
      "midi": 88,
      "hit": false,
      "t": 390200.0000000001,
      "d": 2849.999999999942,
      "v": 104
    },
    {
      "midi": 43,
      "hit": false,
      "t": 390516.6666666667,
      "d": 475,
      "v": 88
    },
    {
      "midi": 52,
      "hit": false,
      "t": 391016.6666666667,
      "d": 475,
      "v": 88
    },
    {
      "midi": 55,
      "hit": false,
      "t": 391533.3333333334,
      "d": 475,
      "v": 88
    },
    {
      "midi": 60,
      "hit": false,
      "t": 392033.3333333334,
      "d": 475,
      "v": 88
    },
    {
      "midi": 64,
      "hit": false,
      "t": 392516.6666666667,
      "d": 475,
      "v": 88
    },
    {
      "midi": 56,
      "hit": false,
      "t": 393000.00000000006,
      "d": 2850,
      "v": 97
    },
    {
      "midi": 63,
      "hit": false,
      "t": 393000.00000000006,
      "d": 2850,
      "v": 97
    },
    {
      "midi": 67,
      "hit": false,
      "t": 393000.00000000006,
      "d": 2850,
      "v": 97
    },
    {
      "midi": 72,
      "hit": false,
      "t": 393000.00000000006,
      "d": 2850,
      "v": 97
    },
    {
      "midi": 44,
      "hit": false,
      "t": 393016.6666666667,
      "d": 475,
      "v": 88
    },
    {
      "midi": 51,
      "hit": false,
      "t": 393500,
      "d": 475,
      "v": 88
    },
    {
      "midi": 56,
      "hit": false,
      "t": 394000,
      "d": 475,
      "v": 88
    },
    {
      "midi": 58,
      "hit": false,
      "t": 394500,
      "d": 475,
      "v": 88
    },
    {
      "midi": 60,
      "hit": false,
      "t": 395000,
      "d": 475,
      "v": 88
    },
    {
      "midi": 63,
      "hit": false,
      "t": 395500,
      "d": 475,
      "v": 88
    },
    {
      "midi": 36,
      "hit": false,
      "t": 396000,
      "d": 475,
      "v": 88
    },
    {
      "midi": 59,
      "hit": false,
      "t": 396000.00000000006,
      "d": 2850,
      "v": 95
    },
    {
      "midi": 64,
      "hit": false,
      "t": 396083.3333333334,
      "d": 2850,
      "v": 95
    },
    {
      "midi": 67,
      "hit": false,
      "t": 396133.3333333334,
      "d": 2850,
      "v": 95
    },
    {
      "midi": 43,
      "hit": false,
      "t": 396500,
      "d": 475,
      "v": 88
    },
    {
      "midi": 52,
      "hit": false,
      "t": 397000,
      "d": 475,
      "v": 88
    },
    {
      "midi": 55,
      "hit": false,
      "t": 397500,
      "d": 475,
      "v": 88
    },
    {
      "midi": 60,
      "hit": false,
      "t": 398000,
      "d": 475,
      "v": 88
    },
    {
      "midi": 64,
      "hit": false,
      "t": 398483.3333333333,
      "d": 475,
      "v": 88
    },
    {
      "midi": 44,
      "hit": false,
      "t": 399000,
      "d": 475,
      "v": 85
    },
    {
      "midi": 56,
      "hit": false,
      "t": 399000.00000000006,
      "d": 1900,
      "v": 89
    },
    {
      "midi": 63,
      "hit": false,
      "t": 399033.3333333334,
      "d": 1900,
      "v": 89
    },
    {
      "midi": 67,
      "hit": false,
      "t": 399083.3333333334,
      "d": 1900,
      "v": 89
    },
    {
      "midi": 51,
      "hit": false,
      "t": 399500,
      "d": 475,
      "v": 85
    },
    {
      "midi": 56,
      "hit": false,
      "t": 400000,
      "d": 475,
      "v": 84
    },
    {
      "midi": 58,
      "hit": false,
      "t": 400500,
      "d": 475,
      "v": 84
    },
    {
      "midi": 46,
      "hit": false,
      "t": 401000,
      "d": 950,
      "v": 82
    },
    {
      "midi": 62,
      "hit": false,
      "t": 401000.00000000006,
      "d": 950.0000000000582,
      "v": 82
    },
    {
      "midi": 58,
      "hit": false,
      "t": 401016.66666666674,
      "d": 950.0000000000582,
      "v": 82
    },
    {
      "midi": 65,
      "hit": false,
      "t": 401033.33333333343,
      "d": 950.0000000000582,
      "v": 82
    },
    {
      "midi": 36,
      "hit": false,
      "t": 402000,
      "d": 6800,
      "v": 88
    },
    {
      "midi": 59,
      "hit": false,
      "t": 402016.6666666668,
      "d": 2850,
      "v": 82
    },
    {
      "midi": 64,
      "hit": false,
      "t": 402100.0000000001,
      "d": 2850,
      "v": 82
    },
    {
      "midi": 43,
      "hit": false,
      "t": 402500,
      "d": 475,
      "v": 87
    },
    {
      "midi": 52,
      "hit": false,
      "t": 403000,
      "d": 475,
      "v": 84
    },
    {
      "midi": 55,
      "hit": false,
      "t": 403500,
      "d": 475,
      "v": 80
    },
    {
      "midi": 60,
      "hit": false,
      "t": 404000,
      "d": 475,
      "v": 76
    },
    {
      "midi": 64,
      "hit": false,
      "t": 404483.3333333333,
      "d": 475,
      "v": 72
    },
    {
      "midi": 67,
      "hit": false,
      "t": 405000.0000000001,
      "d": 50,
      "v": 88
    },
    {
      "midi": 72,
      "hit": false,
      "t": 406000.0000000001,
      "d": 950,
      "v": 88
    }
  ]
}