{
  "jsonPath": "Animes/Lupin The Third MIDI Collection/closing-theme.json",
  "path": "Animes\\Lupin The Third MIDI Collection\\Closing Theme.mid",
  "name": "Closing Theme",
  "difficulty": "Advanced",
  "bpm": 140.0089605734767,
  "notes": [
    {
      "midi": 42,
      "hit": false,
      "t": 3321.216000000004,
      "d": 8.927999999999884,
      "v": 84
    },
    {
      "midi": 42,
      "hit": false,
      "t": 3374.7840000000037,
      "d": 8.927999999999884,
      "v": 84
    },
    {
      "midi": 60,
      "hit": false,
      "t": 3428.352,
      "d": 446.4000000000001,
      "v": 120
    },
    {
      "midi": 84,
      "hit": false,
      "t": 3428.352,
      "d": 491.03999999999996,
      "v": 120
    },
    {
      "midi": 72,
      "hit": false,
      "t": 3428.352,
      "d": 535.6799999999998,
      "v": 100
    },
    {
      "midi": 46,
      "hit": false,
      "t": 3428.3520000000035,
      "d": 8.927999999999884,
      "v": 98
    },
    {
      "midi": 48,
      "hit": false,
      "t": 3856.8960000000034,
      "d": 8.927999999999884,
      "v": 84
    },
    {
      "midi": 45,
      "hit": false,
      "t": 4285.440000000003,
      "d": 8.927999999999884,
      "v": 98
    },
    {
      "midi": 45,
      "hit": false,
      "t": 4374.720000000003,
      "d": 8.927999999999884,
      "v": 84
    },
    {
      "midi": 41,
      "hit": false,
      "t": 4464.000000000003,
      "d": 8.927999999999884,
      "v": 70
    },
    {
      "midi": 41,
      "hit": false,
      "t": 4553.2800000000025,
      "d": 8.927999999999884,
      "v": 84
    },
    {
      "midi": 41,
      "hit": false,
      "t": 4642.560000000002,
      "d": 8.927999999999884,
      "v": 70
    },
    {
      "midi": 55,
      "hit": false,
      "t": 4713.984,
      "d": 401.75999999999476,
      "v": 110
    },
    {
      "midi": 45,
      "hit": false,
      "t": 4713.984000000002,
      "d": 8.927999999999884,
      "v": 98
    },
    {
      "midi": 48,
      "hit": false,
      "t": 5142.527999999995,
      "d": 428.54399999999987,
      "v": 110
    },
    {
      "midi": 75,
      "hit": false,
      "t": 5142.528,
      "d": 35.712000000000444,
      "v": 80
    },
    {
      "midi": 79,
      "hit": false,
      "t": 5142.528,
      "d": 3428.35199999999,
      "v": 80
    },
    {
      "midi": 84,
      "hit": false,
      "t": 5142.528,
      "d": 1705.2479999999996,
      "v": 80
    },
    {
      "midi": 57,
      "hit": false,
      "t": 5142.528000000002,
      "d": 8.927999999999884,
      "v": 84
    },
    {
      "midi": 42,
      "hit": false,
      "t": 5142.528000000002,
      "d": 8.927999999999884,
      "v": 112
    },
    {
      "midi": 36,
      "hit": false,
      "t": 5142.528000000002,
      "d": 8.927999999999884,
      "v": 112
    },
    {
      "midi": 87,
      "hit": false,
      "t": 5249.664000000001,
      "d": 35.712000000000444,
      "v": 60
    },
    {
      "midi": 75,
      "hit": false,
      "t": 5356.799999999999,
      "d": 26.78399999999965,
      "v": 127
    },
    {
      "midi": 67,
      "hit": false,
      "t": 5356.799999999999,
      "d": 26.78399999999965,
      "v": 127
    },
    {
      "midi": 63,
      "hit": false,
      "t": 5356.800000000001,
      "d": 35.712000000000444,
      "v": 70
    },
    {
      "midi": 60,
      "hit": false,
      "t": 5356.800000000001,
      "d": 35.712000000000444,
      "v": 80
    },
    {
      "midi": 46,
      "hit": false,
      "t": 5356.800000000002,
      "d": 8.927999999999884,
      "v": 112
    },
    {
      "midi": 72,
      "hit": false,
      "t": 5463.935999999999,
      "d": 35.712000000000444,
      "v": 100
    },
    {
      "midi": 67,
      "hit": false,
      "t": 5463.935999999999,
      "d": 35.712000000000444,
      "v": 100
    },
    {
      "midi": 75,
      "hit": false,
      "t": 5463.9360000000015,
      "d": 35.712000000000444,
      "v": 80
    },
    {
      "midi": 87,
      "hit": false,
      "t": 5571.072000000002,
      "d": 35.712000000000444,
      "v": 60
    },
    {
      "midi": 42,
      "hit": false,
      "t": 5571.072000000002,
      "d": 8.927999999999884,
      "v": 112
    },
    {
      "midi": 40,
      "hit": false,
      "t": 5571.072000000002,
      "d": 8.927999999999884,
      "v": 112
    },
    {
      "midi": 75,
      "hit": false,
      "t": 5678.208,
      "d": 26.78399999999965,
      "v": 127
    },
    {
      "midi": 67,
      "hit": false,
      "t": 5678.208,
      "d": 26.78399999999965,
      "v": 127
    },
    {
      "midi": 63,
      "hit": false,
      "t": 5678.208000000002,
      "d": 35.712000000000444,
      "v": 70
    },
    {
      "midi": 60,
      "hit": false,
      "t": 5678.208000000002,
      "d": 35.712000000000444,
      "v": 80
    },
    {
      "midi": 72,
      "hit": false,
      "t": 5785.343999999999,
      "d": 35.712000000000444,
      "v": 100
    },
    {
      "midi": 67,
      "hit": false,
      "t": 5785.343999999999,
      "d": 35.712000000000444,
      "v": 100
    },
    {
      "midi": 46,
      "hit": false,
      "t": 5785.344000000002,
      "d": 8.927999999999884,
      "v": 112
    },
    {
      "midi": 75,
      "hit": false,
      "t": 5785.344000000003,
      "d": 35.712000000000444,
      "v": 80
    },
    {
      "midi": 87,
      "hit": false,
      "t": 5892.480000000003,
      "d": 35.712000000000444,
      "v": 60
    },
    {
      "midi": 48,
      "hit": false,
      "t": 5999.6159999999945,
      "d": 428.54399999999987,
      "v": 110
    },
    {
      "midi": 75,
      "hit": false,
      "t": 5999.616,
      "d": 26.78399999999965,
      "v": 127
    },
    {
      "midi": 67,
      "hit": false,
      "t": 5999.616,
      "d": 26.78399999999965,
      "v": 127
    },
    {
      "midi": 42,
      "hit": false,
      "t": 5999.616000000002,
      "d": 8.927999999999884,
      "v": 112
    },
    {
      "midi": 36,
      "hit": false,
      "t": 5999.616000000002,
      "d": 8.927999999999884,
      "v": 112
    },
    {
      "midi": 63,
      "hit": false,
      "t": 5999.616000000004,
      "d": 35.712000000000444,
      "v": 70
    },
    {
      "midi": 60,
      "hit": false,
      "t": 5999.616000000004,
      "d": 35.712000000000444,
      "v": 80
    },
    {
      "midi": 72,
      "hit": false,
      "t": 6106.7519999999995,
      "d": 35.712000000000444,
      "v": 100
    },
    {
      "midi": 67,
      "hit": false,
      "t": 6106.7519999999995,
      "d": 35.712000000000444,
      "v": 100
    },
    {
      "midi": 75,
      "hit": false,
      "t": 6106.752000000004,
      "d": 35.712000000000444,
      "v": 80
    },
    {
      "midi": 46,
      "hit": false,
      "t": 6213.888000000002,
      "d": 8.927999999999884,
      "v": 112
    },
    {
      "midi": 87,
      "hit": false,
      "t": 6213.8880000000045,
      "d": 35.712000000000444,
      "v": 60
    },
    {
      "midi": 75,
      "hit": false,
      "t": 6321.024,
      "d": 26.78399999999965,
      "v": 127
    },
    {
      "midi": 67,
      "hit": false,
      "t": 6321.024,
      "d": 26.78399999999965,
      "v": 127
    },
    {
      "midi": 63,
      "hit": false,
      "t": 6321.024000000005,
      "d": 35.712000000000444,
      "v": 70
    },
    {
      "midi": 60,
      "hit": false,
      "t": 6321.024000000005,
      "d": 35.712000000000444,
      "v": 80
    },
    {
      "midi": 72,
      "hit": false,
      "t": 6428.16,
      "d": 35.712000000000444,
      "v": 100
    },
    {
      "midi": 67,
      "hit": false,
      "t": 6428.16,
      "d": 35.712000000000444,
      "v": 100
    },
    {
      "midi": 42,
      "hit": false,
      "t": 6428.160000000002,
      "d": 8.927999999999884,
      "v": 112
    },
    {
      "midi": 40,
      "hit": false,
      "t": 6428.160000000002,
      "d": 8.927999999999884,
      "v": 112
    },
    {
      "midi": 75,
      "hit": false,
      "t": 6428.160000000005,
      "d": 35.712000000000444,
      "v": 80
    },
    {
      "midi": 46,
      "hit": false,
      "t": 6535.295999999995,
      "d": 98.20799999999963,
      "v": 110
    },
    {
      "midi": 87,
      "hit": false,
      "t": 6535.296000000006,
      "d": 35.712000000000444,
      "v": 60
    },
    {
      "midi": 48,
      "hit": false,
      "t": 6642.431999999994,
      "d": 196.41600000000017,
      "v": 110
    },
    {
      "midi": 75,
      "hit": false,
      "t": 6642.432000000001,
      "d": 26.78399999999965,
      "v": 97
    },
    {
      "midi": 67,
      "hit": false,
      "t": 6642.432000000001,
      "d": 26.78399999999965,
      "v": 97
    },
    {
      "midi": 46,
      "hit": false,
      "t": 6642.432000000002,
      "d": 8.927999999999884,
      "v": 112
    },
    {
      "midi": 63,
      "hit": false,
      "t": 6642.432000000006,
      "d": 35.712000000000444,
      "v": 70
    },
    {
      "midi": 60,
      "hit": false,
      "t": 6642.432000000006,
      "d": 35.712000000000444,
      "v": 80
    },
    {
      "midi": 63,
      "hit": false,
      "t": 6749.568000000007,
      "d": 35.712000000000444,
      "v": 70
    },
    {
      "midi": 60,
      "hit": false,
      "t": 6749.568000000007,
      "d": 35.712000000000444,
      "v": 80
    },
    {
      "midi": 41,
      "hit": false,
      "t": 6856.703999999994,
      "d": 428.54399999999987,
      "v": 110
    },
    {
      "midi": 69,
      "hit": false,
      "t": 6856.704000000001,
      "d": 1607.04,
      "v": 90
    },
    {
      "midi": 65,
      "hit": false,
      "t": 6856.704000000001,
      "d": 1607.04,
      "v": 50
    },
    {
      "midi": 42,
      "hit": false,
      "t": 6856.7040000000015,
      "d": 8.927999999999884,
      "v": 112
    },
    {
      "midi": 36,
      "hit": false,
      "t": 6856.7040000000015,
      "d": 8.927999999999884,
      "v": 112
    },
    {
      "midi": 72,
      "hit": false,
      "t": 7070.976,
      "d": 71.42399999999998,
      "v": 70
    },
    {
      "midi": 60,
      "hit": false,
      "t": 7070.976,
      "d": 71.42399999999998,
      "v": 110
    },
    {
      "midi": 46,
      "hit": false,
      "t": 7070.9760000000015,
      "d": 8.927999999999884,
      "v": 112
    },
    {
      "midi": 72,
      "hit": false,
      "t": 7178.112,
      "d": 71.42399999999998,
      "v": 70
    },
    {
      "midi": 60,
      "hit": false,
      "t": 7178.112,
      "d": 71.42399999999998,
      "v": 110
    },
    {
      "midi": 75,
      "hit": false,
      "t": 7285.2480000000005,
      "d": 71.42399999999998,
      "v": 80
    },
    {
      "midi": 63,
      "hit": false,
      "t": 7285.2480000000005,
      "d": 71.42399999999998,
      "v": 120
    },
    {
      "midi": 42,
      "hit": false,
      "t": 7285.248000000001,
      "d": 8.927999999999884,
      "v": 112
    },
    {
      "midi": 40,
      "hit": false,
      "t": 7285.248000000001,
      "d": 8.927999999999884,
      "v": 112
    },
    {
      "midi": 77,
      "hit": false,
      "t": 7392.384000000001,
      "d": 142.84799999999996,
      "v": 80
    },
    {
      "midi": 65,
      "hit": false,
      "t": 7392.384000000001,
      "d": 142.84799999999996,
      "v": 120
    },
    {
      "midi": 46,
      "hit": false,
      "t": 7499.520000000001,
      "d": 8.927999999999884,
      "v": 112
    },
    {
      "midi": 79,
      "hit": false,
      "t": 7606.656000000001,
      "d": 214.27199999999993,
      "v": 90
    },
    {
      "midi": 67,
      "hit": false,
      "t": 7606.656000000001,
      "d": 214.27199999999993,
      "v": 127
    },
    {
      "midi": 41,
      "hit": false,
      "t": 7713.791999999994,
      "d": 196.41600000000017,
      "v": 110
    },
    {
      "midi": 42,
      "hit": false,
      "t": 7713.792000000001,
      "d": 8.927999999999884,
      "v": 112
    },
    {
      "midi": 36,
      "hit": false,
      "t": 7713.792000000001,
      "d": 8.927999999999884,
      "v": 112
    },
    {
      "midi": 43,
      "hit": false,
      "t": 7928.063999999994,
      "d": 196.41600000000017,
      "v": 110
    },
    {
      "midi": 72,
      "hit": false,
      "t": 7928.064000000001,
      "d": 205.34400000000005,
      "v": 70
    },
    {
      "midi": 60,
      "hit": false,
      "t": 7928.064000000001,
      "d": 205.34400000000005,
      "v": 110
    },
    {
      "midi": 46,
      "hit": false,
      "t": 7928.064000000001,
      "d": 8.927999999999884,
      "v": 112
    },
    {
      "midi": 44,
      "hit": false,
      "t": 8142.335999999994,
      "d": 196.41599999999926,
      "v": 110
    },
    {
      "midi": 77,
      "hit": false,
      "t": 8142.336000000001,
      "d": 98.20800000000054,
      "v": 80
    },
    {
      "midi": 65,
      "hit": false,
      "t": 8142.336000000001,
      "d": 98.20800000000054,
      "v": 120
    },
    {
      "midi": 42,
      "hit": false,
      "t": 8142.336000000001,
      "d": 8.927999999999884,
      "v": 112
    },
    {
      "midi": 40,
      "hit": false,
      "t": 8142.336000000001,
      "d": 8.927999999999884,
      "v": 112
    },
    {
      "midi": 75,
      "hit": false,
      "t": 8249.472000000002,
      "d": 205.34399999999914,
      "v": 80
    },
    {
      "midi": 63,
      "hit": false,
      "t": 8249.472000000002,
      "d": 205.34399999999914,
      "v": 120
    },
    {
      "midi": 46,
      "hit": false,
      "t": 8356.607999999993,
      "d": 196.41599999999926,
      "v": 110
    },
    {
      "midi": 46,
      "hit": false,
      "t": 8356.608,
      "d": 8.927999999999884,
      "v": 112
    },
    {
      "midi": 48,
      "hit": false,
      "t": 8570.879999999992,
      "d": 428.54399999999987,
      "v": 110
    },
    {
      "midi": 84,
      "hit": false,
      "t": 8570.88,
      "d": 1428.4799999999996,
      "v": 80
    },
    {
      "midi": 42,
      "hit": false,
      "t": 8570.88,
      "d": 8.927999999999884,
      "v": 112
    },
    {
      "midi": 36,
      "hit": false,
      "t": 8570.88,
      "d": 8.927999999999884,
      "v": 112
    },
    {
      "midi": 75,
      "hit": false,
      "t": 8570.880000000006,
      "d": 35.711999999999534,
      "v": 80
    },
    {
      "midi": 79,
      "hit": false,
      "t": 8579.80799999999,
      "d": 1428.479999999994,
      "v": 80
    },
    {
      "midi": 87,
      "hit": false,
      "t": 8678.016000000007,
      "d": 35.711999999999534,
      "v": 60
    },
    {
      "midi": 46,
      "hit": false,
      "t": 8785.151999999998,
      "d": 8.927999999999884,
      "v": 112
    },
    {
      "midi": 75,
      "hit": false,
      "t": 8785.152,
      "d": 26.78399999999965,
      "v": 127
    },
    {
      "midi": 67,
      "hit": false,
      "t": 8785.152,
      "d": 26.78399999999965,
      "v": 127
    },
    {
      "midi": 63,
      "hit": false,
      "t": 8785.152000000007,
      "d": 35.711999999999534,
      "v": 70
    },
    {
      "midi": 60,
      "hit": false,
      "t": 8785.152000000007,
      "d": 35.711999999999534,
      "v": 80
    },
    {
      "midi": 72,
      "hit": false,
      "t": 8892.288,
      "d": 35.711999999999534,
      "v": 100
    },
    {
      "midi": 67,
      "hit": false,
      "t": 8892.288,
      "d": 35.711999999999534,
      "v": 100
    },
    {
      "midi": 75,
      "hit": false,
      "t": 8892.288000000008,
      "d": 35.711999999999534,
      "v": 80
    },
    {
      "midi": 42,
      "hit": false,
      "t": 8999.423999999997,
      "d": 8.927999999999884,
      "v": 112
    },
    {
      "midi": 40,
      "hit": false,
      "t": 8999.423999999997,
      "d": 8.927999999999884,
      "v": 112
    },
    {
      "midi": 87,
      "hit": false,
      "t": 8999.424000000008,
      "d": 35.711999999999534,
      "v": 60
    },
    {
      "midi": 75,
      "hit": false,
      "t": 9106.56,
      "d": 26.78399999999965,
      "v": 127
    },
    {
      "midi": 67,
      "hit": false,
      "t": 9106.56,
      "d": 26.78399999999965,
      "v": 127
    },
    {
      "midi": 63,
      "hit": false,
      "t": 9106.560000000009,
      "d": 35.711999999999534,
      "v": 70
    },
    {
      "midi": 60,
      "hit": false,
      "t": 9106.560000000009,
      "d": 35.711999999999534,
      "v": 80
    },
    {
      "midi": 46,
      "hit": false,
      "t": 9213.695999999996,
      "d": 8.927999999999884,
      "v": 112
    },
    {
      "midi": 72,
      "hit": false,
      "t": 9213.696,
      "d": 35.711999999999534,
      "v": 100
    },
    {
      "midi": 67,
      "hit": false,
      "t": 9213.696,
      "d": 35.711999999999534,
      "v": 100
    },
    {
      "midi": 75,
      "hit": false,
      "t": 9213.696000000009,
      "d": 35.711999999999534,
      "v": 80
    },
    {
      "midi": 87,
      "hit": false,
      "t": 9320.83200000001,
      "d": 35.711999999999534,
      "v": 60
    },
    {
      "midi": 48,
      "hit": false,
      "t": 9427.967999999992,
      "d": 428.54399999999987,
      "v": 110
    },
    {
      "midi": 42,
      "hit": false,
      "t": 9427.967999999995,
      "d": 8.927999999999884,
      "v": 112
    },
    {
      "midi": 36,
      "hit": false,
      "t": 9427.967999999995,
      "d": 8.927999999999884,
      "v": 112
    },
    {
      "midi": 75,
      "hit": false,
      "t": 9427.967999999999,
      "d": 26.78399999999965,
      "v": 127
    },
    {
      "midi": 67,
      "hit": false,
      "t": 9427.967999999999,
      "d": 26.78399999999965,
      "v": 127
    },
    {
      "midi": 63,
      "hit": false,
      "t": 9427.96800000001,
      "d": 35.711999999999534,
      "v": 70
    },
    {
      "midi": 60,
      "hit": false,
      "t": 9427.96800000001,
      "d": 35.711999999999534,
      "v": 80
    },
    {
      "midi": 72,
      "hit": false,
      "t": 9535.104,
      "d": 35.711999999999534,
      "v": 100
    },
    {
      "midi": 67,
      "hit": false,
      "t": 9535.104,
      "d": 35.711999999999534,
      "v": 100
    },
    {
      "midi": 75,
      "hit": false,
      "t": 9535.10400000001,
      "d": 35.711999999999534,
      "v": 80
    },
    {
      "midi": 46,
      "hit": false,
      "t": 9642.239999999994,
      "d": 8.927999999999884,
      "v": 112
    },
    {
      "midi": 87,
      "hit": false,
      "t": 9642.24000000001,
      "d": 35.711999999999534,
      "v": 60
    },
    {
      "midi": 75,
      "hit": false,
      "t": 9749.375999999998,
      "d": 26.78399999999965,
      "v": 127
    },
    {
      "midi": 67,
      "hit": false,
      "t": 9749.375999999998,
      "d": 26.78399999999965,
      "v": 127
    },
    {
      "midi": 63,
      "hit": false,
      "t": 9749.376000000011,
      "d": 35.711999999999534,
      "v": 70
    },
    {
      "midi": 60,
      "hit": false,
      "t": 9749.376000000011,
      "d": 35.711999999999534,
      "v": 80
    },
    {
      "midi": 42,
      "hit": false,
      "t": 9856.511999999993,
      "d": 8.927999999999884,
      "v": 112
    },
    {
      "midi": 40,
      "hit": false,
      "t": 9856.511999999993,
      "d": 8.927999999999884,
      "v": 112
    },
    {
      "midi": 72,
      "hit": false,
      "t": 9856.511999999999,
      "d": 35.711999999999534,
      "v": 100
    },
    {
      "midi": 67,
      "hit": false,
      "t": 9856.511999999999,
      "d": 35.711999999999534,
      "v": 100
    },
    {
      "midi": 75,
      "hit": false,
      "t": 9856.512000000012,
      "d": 35.711999999999534,
      "v": 80
    },
    {
      "midi": 46,
      "hit": false,
      "t": 9963.647999999992,
      "d": 98.20800000000054,
      "v": 110
    },
    {
      "midi": 87,
      "hit": false,
      "t": 9963.648000000012,
      "d": 35.711999999999534,
      "v": 60
    },
    {
      "midi": 48,
      "hit": false,
      "t": 10070.783999999992,
      "d": 196.41599999999926,
      "v": 110
    },
    {
      "midi": 46,
      "hit": false,
      "t": 10070.783999999992,
      "d": 8.927999999999884,
      "v": 112
    },
    {
      "midi": 75,
      "hit": false,
      "t": 10070.783999999998,
      "d": 26.78399999999965,
      "v": 97
    },
    {
      "midi": 67,
      "hit": false,
      "t": 10070.783999999998,
      "d": 26.78399999999965,
      "v": 97
    },
    {
      "midi": 63,
      "hit": false,
      "t": 10070.784000000012,
      "d": 35.711999999999534,
      "v": 70
    },
    {
      "midi": 60,
      "hit": false,
      "t": 10070.784000000012,
      "d": 35.711999999999534,
      "v": 80
    },
    {
      "midi": 63,
      "hit": false,
      "t": 10177.920000000013,
      "d": 35.711999999999534,
      "v": 70
    },
    {
      "midi": 60,
      "hit": false,
      "t": 10177.920000000013,
      "d": 35.711999999999534,
      "v": 80
    },
    {
      "midi": 43,
      "hit": false,
      "t": 10285.055999999991,
      "d": 1705.2479999999996,
      "v": 110
    },
    {
      "midi": 42,
      "hit": false,
      "t": 10285.055999999991,
      "d": 8.927999999999884,
      "v": 112
    },
    {
      "midi": 36,
      "hit": false,
      "t": 10285.055999999991,
      "d": 8.927999999999884,
      "v": 112
    },
    {
      "midi": 67,
      "hit": false,
      "t": 10285.055999999997,
      "d": 1607.0400000000009,
      "v": 90
    },
    {
      "midi": 62,
      "hit": false,
      "t": 10285.055999999997,
      "d": 1607.0400000000009,
      "v": 50
    },
    {
      "midi": 67,
      "hit": false,
      "t": 10285.056000000013,
      "d": 35.711999999999534,
      "v": 80
    },
    {
      "midi": 79,
      "hit": false,
      "t": 10392.192000000014,
      "d": 35.711999999999534,
      "v": 60
    },
    {
      "midi": 46,
      "hit": false,
      "t": 10499.32799999999,
      "d": 8.927999999999884,
      "v": 112
    },
    {
      "midi": 70,
      "hit": false,
      "t": 10499.328000000014,
      "d": 35.711999999999534,
      "v": 70
    },
    {
      "midi": 67,
      "hit": false,
      "t": 10499.328000000014,
      "d": 35.711999999999534,
      "v": 80
    },
    {
      "midi": 67,
      "hit": false,
      "t": 10606.464000000014,
      "d": 35.711999999999534,
      "v": 80
    },
    {
      "midi": 42,
      "hit": false,
      "t": 10713.59999999999,
      "d": 8.927999999999884,
      "v": 112
    },
    {
      "midi": 40,
      "hit": false,
      "t": 10713.59999999999,
      "d": 8.927999999999884,
      "v": 112
    },
    {
      "midi": 67,
      "hit": false,
      "t": 10713.6,
      "d": 107.13600000000042,
      "v": 70
    },
    {
      "midi": 55,
      "hit": false,
      "t": 10713.6,
      "d": 107.13600000000042,
      "v": 110
    },
    {
      "midi": 79,
      "hit": false,
      "t": 10713.600000000015,
      "d": 35.711999999999534,
      "v": 60
    },
    {
      "midi": 70,
      "hit": false,
      "t": 10820.736000000015,
      "d": 35.711999999999534,
      "v": 70
    },
    {
      "midi": 67,
      "hit": false,
      "t": 10820.736000000015,
      "d": 35.711999999999534,
      "v": 80
    },
    {
      "midi": 46,
      "hit": false,
      "t": 10927.871999999988,
      "d": 8.927999999999884,
      "v": 112
    },
    {
      "midi": 67,
      "hit": false,
      "t": 10927.872000000016,
      "d": 35.711999999999534,
      "v": 80
    },
    {
      "midi": 79,
      "hit": false,
      "t": 11035.008000000016,
      "d": 35.711999999999534,
      "v": 60
    },
    {
      "midi": 42,
      "hit": false,
      "t": 11142.143999999987,
      "d": 8.927999999999884,
      "v": 112
    },
    {
      "midi": 36,
      "hit": false,
      "t": 11142.143999999987,
      "d": 8.927999999999884,
      "v": 112
    },
    {
      "midi": 67,
      "hit": false,
      "t": 11142.144,
      "d": 71.42400000000089,
      "v": 70
    },
    {
      "midi": 55,
      "hit": false,
      "t": 11142.144,
      "d": 71.42400000000089,
      "v": 110
    },
    {
      "midi": 70,
      "hit": false,
      "t": 11142.144000000017,
      "d": 35.711999999999534,
      "v": 70
    },
    {
      "midi": 67,
      "hit": false,
      "t": 11142.144000000017,
      "d": 35.711999999999534,
      "v": 80
    },
    {
      "midi": 40,
      "hit": false,
      "t": 11249.279999999988,
      "d": 8.927999999999884,
      "v": 56
    },
    {
      "midi": 70,
      "hit": false,
      "t": 11249.28,
      "d": 71.42400000000089,
      "v": 80
    },
    {
      "midi": 58,
      "hit": false,
      "t": 11249.28,
      "d": 71.42400000000089,
      "v": 120
    },
    {
      "midi": 67,
      "hit": false,
      "t": 11249.280000000017,
      "d": 35.711999999999534,
      "v": 80
    },
    {
      "midi": 46,
      "hit": false,
      "t": 11356.415999999988,
      "d": 8.927999999999884,
      "v": 112
    },
    {
      "midi": 79,
      "hit": false,
      "t": 11356.416000000017,
      "d": 35.711999999999534,
      "v": 60
    },
    {
      "midi": 40,
      "hit": false,
      "t": 11463.551999999989,
      "d": 8.927999999999884,
      "v": 56
    },
    {
      "midi": 74,
      "hit": false,
      "t": 11463.552000000001,
      "d": 71.42400000000089,
      "v": 80
    },
    {
      "midi": 62,
      "hit": false,
      "t": 11463.552000000001,
      "d": 71.42400000000089,
      "v": 120
    },
    {
      "midi": 70,
      "hit": false,
      "t": 11463.552000000018,
      "d": 35.711999999999534,
      "v": 70
    },
    {
      "midi": 67,
      "hit": false,
      "t": 11463.552000000018,
      "d": 35.711999999999534,
      "v": 80
    },
    {
      "midi": 45,
      "hit": false,
      "t": 11570.68799999999,
      "d": 8.927999999999884,
      "v": 112
    },
    {
      "midi": 67,
      "hit": false,
      "t": 11570.688000000018,
      "d": 35.711999999999534,
      "v": 80
    },
    {
      "midi": 75,
      "hit": false,
      "t": 11677.824000000002,
      "d": 71.42400000000089,
      "v": 90
    },
    {
      "midi": 63,
      "hit": false,
      "t": 11677.824000000002,
      "d": 71.42400000000089,
      "v": 127
    },
    {
      "midi": 79,
      "hit": false,
      "t": 11677.824000000019,
      "d": 35.711999999999534,
      "v": 60
    },
    {
      "midi": 40,
      "hit": false,
      "t": 11784.959999999988,
      "d": 8.927999999999884,
      "v": 112
    },
    {
      "midi": 77,
      "hit": false,
      "t": 11784.960000000003,
      "d": 71.42400000000089,
      "v": 90
    },
    {
      "midi": 65,
      "hit": false,
      "t": 11784.960000000003,
      "d": 71.42400000000089,
      "v": 127
    },
    {
      "midi": 70,
      "hit": false,
      "t": 11784.96000000002,
      "d": 35.711999999999534,
      "v": 70
    },
    {
      "midi": 67,
      "hit": false,
      "t": 11784.96000000002,
      "d": 35.711999999999534,
      "v": 80
    },
    {
      "midi": 40,
      "hit": false,
      "t": 11892.095999999989,
      "d": 8.927999999999884,
      "v": 112
    },
    {
      "midi": 70,
      "hit": false,
      "t": 11892.09600000002,
      "d": 35.711999999999534,
      "v": 70
    },
    {
      "midi": 67,
      "hit": false,
      "t": 11892.09600000002,
      "d": 35.711999999999534,
      "v": 80
    },
    {
      "midi": 55,
      "hit": false,
      "t": 11999.23199999998,
      "d": 624.9599999999991,
      "v": 80
    },
    {
      "midi": 57,
      "hit": false,
      "t": 11999.231999999989,
      "d": 8.927999999999884,
      "v": 112
    },
    {
      "midi": 36,
      "hit": false,
      "t": 11999.231999999989,
      "d": 8.927999999999884,
      "v": 112
    },
    {
      "midi": 44,
      "hit": false,
      "t": 11999.23199999999,
      "d": 624.9599999999991,
      "v": 110
    },
    {
      "midi": 91,
      "hit": false,
      "t": 11999.231999999998,
      "d": 633.8880000000008,
      "v": 100
    },
    {
      "midi": 79,
      "hit": false,
      "t": 11999.232000000004,
      "d": 196.41599999999926,
      "v": 90
    },
    {
      "midi": 67,
      "hit": false,
      "t": 11999.232000000004,
      "d": 196.41599999999926,
      "v": 110
    },
    {
      "midi": 82,
      "hit": false,
      "t": 12213.504000000003,
      "d": 71.42400000000089,
      "v": 100
    },
    {
      "midi": 70,
      "hit": false,
      "t": 12213.504000000003,
      "d": 71.42400000000089,
      "v": 120
    },
    {
      "midi": 40,
      "hit": false,
      "t": 12427.775999999989,
      "d": 8.927999999999884,
      "v": 112
    },
    {
      "midi": 80,
      "hit": false,
      "t": 12427.776000000003,
      "d": 71.42400000000089,
      "v": 90
    },
    {
      "midi": 68,
      "hit": false,
      "t": 12427.776000000003,
      "d": 71.42400000000089,
      "v": 110
    },
    {
      "midi": 53,
      "hit": false,
      "t": 12642.047999999979,
      "d": 1053.503999999999,
      "v": 80
    },
    {
      "midi": 57,
      "hit": false,
      "t": 12642.047999999988,
      "d": 8.927999999999884,
      "v": 112
    },
    {
      "midi": 36,
      "hit": false,
      "t": 12642.047999999988,
      "d": 8.927999999999884,
      "v": 112
    },
    {
      "midi": 41,
      "hit": false,
      "t": 12642.04799999999,
      "d": 1053.503999999999,
      "v": 110
    },
    {
      "midi": 89,
      "hit": false,
      "t": 12642.047999999999,
      "d": 1053.5040000000008,
      "v": 100
    },
    {
      "midi": 77,
      "hit": false,
      "t": 12642.048000000004,
      "d": 321.40799999999945,
      "v": 100
    },
    {
      "midi": 65,
      "hit": false,
      "t": 12642.048000000004,
      "d": 321.40799999999945,
      "v": 120
    },
    {
      "midi": 48,
      "hit": false,
      "t": 13070.591999999988,
      "d": 8.927999999999884,
      "v": 84
    },
    {
      "midi": 74,
      "hit": false,
      "t": 13070.592000000004,
      "d": 71.42400000000089,
      "v": 80
    },
    {
      "midi": 62,
      "hit": false,
      "t": 13070.592000000004,
      "d": 71.42400000000089,
      "v": 100
    },
    {
      "midi": 45,
      "hit": false,
      "t": 13284.863999999987,
      "d": 8.927999999999884,
      "v": 84
    },
    {
      "midi": 75,
      "hit": false,
      "t": 13284.864000000005,
      "d": 71.42400000000089,
      "v": 90
    },
    {
      "midi": 63,
      "hit": false,
      "t": 13284.864000000005,
      "d": 71.42400000000089,
      "v": 110
    },
    {
      "midi": 40,
      "hit": false,
      "t": 13391.999999999987,
      "d": 8.927999999999884,
      "v": 56
    },
    {
      "midi": 40,
      "hit": false,
      "t": 13499.135999999988,
      "d": 8.927999999999884,
      "v": 84
    },
    {
      "midi": 77,
      "hit": false,
      "t": 13499.136000000006,
      "d": 71.42400000000089,
      "v": 100
    },
    {
      "midi": 65,
      "hit": false,
      "t": 13499.136000000006,
      "d": 71.42400000000089,
      "v": 120
    },
    {
      "midi": 40,
      "hit": false,
      "t": 13606.271999999988,
      "d": 8.927999999999884,
      "v": 112
    },
    {
      "midi": 51,
      "hit": false,
      "t": 13713.407999999978,
      "d": 624.9599999999991,
      "v": 80
    },
    {
      "midi": 39,
      "hit": false,
      "t": 13713.407999999989,
      "d": 624.9599999999991,
      "v": 110
    },
    {
      "midi": 57,
      "hit": false,
      "t": 13713.407999999989,
      "d": 8.927999999999884,
      "v": 112
    },
    {
      "midi": 36,
      "hit": false,
      "t": 13713.407999999989,
      "d": 8.927999999999884,
      "v": 112
    },
    {
      "midi": 87,
      "hit": false,
      "t": 13713.408,
      "d": 633.887999999999,
      "v": 100
    },
    {
      "midi": 79,
      "hit": false,
      "t": 13713.408000000007,
      "d": 71.42400000000089,
      "v": 90
    },
    {
      "midi": 67,
      "hit": false,
      "t": 13713.408000000007,
      "d": 71.42400000000089,
      "v": 110
    },
    {
      "midi": 84,
      "hit": false,
      "t": 13927.680000000008,
      "d": 71.42400000000089,
      "v": 100
    },
    {
      "midi": 72,
      "hit": false,
      "t": 13927.680000000008,
      "d": 71.42400000000089,
      "v": 120
    },
    {
      "midi": 40,
      "hit": false,
      "t": 14141.951999999988,
      "d": 8.927999999999884,
      "v": 112
    },
    {
      "midi": 82,
      "hit": false,
      "t": 14141.952000000008,
      "d": 71.42400000000089,
      "v": 90
    },
    {
      "midi": 70,
      "hit": false,
      "t": 14141.952000000008,
      "d": 71.42400000000089,
      "v": 110
    },
    {
      "midi": 50,
      "hit": false,
      "t": 14356.223999999977,
      "d": 1053.5040000000008,
      "v": 80
    },
    {
      "midi": 38,
      "hit": false,
      "t": 14356.223999999987,
      "d": 1053.5040000000008,
      "v": 110
    },
    {
      "midi": 57,
      "hit": false,
      "t": 14356.223999999987,
      "d": 8.927999999999884,
      "v": 112
    },
    {
      "midi": 36,
      "hit": false,
      "t": 14356.223999999987,
      "d": 8.927999999999884,
      "v": 112
    },
    {
      "midi": 86,
      "hit": false,
      "t": 14356.223999999998,
      "d": 1053.5040000000008,
      "v": 100
    },
    {
      "midi": 80,
      "hit": false,
      "t": 14356.22400000001,
      "d": 321.40799999999945,
      "v": 100
    },
    {
      "midi": 68,
      "hit": false,
      "t": 14356.22400000001,
      "d": 321.40799999999945,
      "v": 120
    },
    {
      "midi": 45,
      "hit": false,
      "t": 14784.767999999987,
      "d": 8.927999999999884,
      "v": 84
    },
    {
      "midi": 79,
      "hit": false,
      "t": 14784.76800000001,
      "d": 71.42400000000089,
      "v": 80
    },
    {
      "midi": 67,
      "hit": false,
      "t": 14784.76800000001,
      "d": 71.42400000000089,
      "v": 100
    },
    {
      "midi": 40,
      "hit": false,
      "t": 14999.039999999986,
      "d": 8.927999999999884,
      "v": 42
    },
    {
      "midi": 77,
      "hit": false,
      "t": 14999.04000000001,
      "d": 71.42400000000089,
      "v": 90
    },
    {
      "midi": 65,
      "hit": false,
      "t": 14999.04000000001,
      "d": 71.42400000000089,
      "v": 110
    },
    {
      "midi": 40,
      "hit": false,
      "t": 15061.535999999986,
      "d": 8.927999999999884,
      "v": 56
    },
    {
      "midi": 40,
      "hit": false,
      "t": 15132.959999999985,
      "d": 8.927999999999884,
      "v": 70
    },
    {
      "midi": 40,
      "hit": false,
      "t": 15213.311999999985,
      "d": 8.927999999999884,
      "v": 112
    },
    {
      "midi": 74,
      "hit": false,
      "t": 15213.31200000001,
      "d": 71.42400000000089,
      "v": 100
    },
    {
      "midi": 62,
      "hit": false,
      "t": 15213.31200000001,
      "d": 71.42400000000089,
      "v": 120
    },
    {
      "midi": 51,
      "hit": false,
      "t": 15427.583999999977,
      "d": 624.9599999999991,
      "v": 80
    },
    {
      "midi": 57,
      "hit": false,
      "t": 15427.583999999984,
      "d": 8.927999999999884,
      "v": 112
    },
    {
      "midi": 36,
      "hit": false,
      "t": 15427.583999999984,
      "d": 8.927999999999884,
      "v": 112
    },
    {
      "midi": 44,
      "hit": false,
      "t": 15427.583999999988,
      "d": 624.9599999999991,
      "v": 110
    },
    {
      "midi": 87,
      "hit": false,
      "t": 15427.583999999999,
      "d": 633.887999999999,
      "v": 100
    },
    {
      "midi": 75,
      "hit": false,
      "t": 15427.584000000012,
      "d": 624.9599999999991,
      "v": 100
    },
    {
      "midi": 63,
      "hit": false,
      "t": 15427.584000000012,
      "d": 624.9599999999991,
      "v": 120
    },
    {
      "midi": 40,
      "hit": false,
      "t": 15856.127999999984,
      "d": 8.927999999999884,
      "v": 112
    },
    {
      "midi": 53,
      "hit": false,
      "t": 16070.399999999976,
      "d": 624.9599999999991,
      "v": 80
    },
    {
      "midi": 57,
      "hit": false,
      "t": 16070.399999999983,
      "d": 8.927999999999884,
      "v": 112
    },
    {
      "midi": 36,
      "hit": false,
      "t": 16070.399999999983,
      "d": 8.927999999999884,
      "v": 112
    },
    {
      "midi": 41,
      "hit": false,
      "t": 16070.399999999987,
      "d": 624.9599999999991,
      "v": 110
    },
    {
      "midi": 89,
      "hit": false,
      "t": 16070.399999999998,
      "d": 633.887999999999,
      "v": 100
    },
    {
      "midi": 77,
      "hit": false,
      "t": 16070.40000000001,
      "d": 624.960000000001,
      "v": 100
    },
    {
      "midi": 65,
      "hit": false,
      "t": 16070.40000000001,
      "d": 624.960000000001,
      "v": 120
    },
    {
      "midi": 40,
      "hit": false,
      "t": 16498.94399999998,
      "d": 8.927999999999884,
      "v": 112
    },
    {
      "midi": 55,
      "hit": false,
      "t": 16713.215999999975,
      "d": 2115.935999999998,
      "v": 80
    },
    {
      "midi": 57,
      "hit": false,
      "t": 16713.215999999982,
      "d": 8.927999999999884,
      "v": 112
    },
    {
      "midi": 36,
      "hit": false,
      "t": 16713.215999999982,
      "d": 8.927999999999884,
      "v": 112
    },
    {
      "midi": 38,
      "hit": false,
      "t": 16713.215999999986,
      "d": 2115.9360000000015,
      "v": 110
    },
    {
      "midi": 91,
      "hit": false,
      "t": 16713.215999999997,
      "d": 2035.5839999999844,
      "v": 100
    },
    {
      "midi": 79,
      "hit": false,
      "t": 16713.21600000001,
      "d": 2124.863999999976,
      "v": 120
    },
    {
      "midi": 67,
      "hit": false,
      "t": 16713.21600000001,
      "d": 2124.863999999976,
      "v": 127
    },
    {
      "midi": 42,
      "hit": false,
      "t": 17141.75999999998,
      "d": 8.927999999999884,
      "v": 112
    },
    {
      "midi": 40,
      "hit": false,
      "t": 17570.303999999982,
      "d": 8.927999999999884,
      "v": 84
    },
    {
      "midi": 79,
      "hit": false,
      "t": 17570.303999999996,
      "d": 1249.9199999999837,
      "v": 90
    },
    {
      "midi": 77,
      "hit": false,
      "t": 17570.303999999996,
      "d": 1249.9199999999837,
      "v": 90
    },
    {
      "midi": 46,
      "hit": false,
      "t": 17998.847999999984,
      "d": 8.927999999999884,
      "v": 112
    },
    {
      "midi": 40,
      "hit": false,
      "t": 18320.255999999983,
      "d": 8.927999999999884,
      "v": 84
    },
    {
      "midi": 40,
      "hit": false,
      "t": 18427.39199999998,
      "d": 8.927999999999884,
      "v": 112
    },
    {
      "midi": 45,
      "hit": false,
      "t": 18641.663999999982,
      "d": 8.927999999999884,
      "v": 112
    },
    {
      "midi": 57,
      "hit": false,
      "t": 18855.935999999983,
      "d": 8.927999999999884,
      "v": 84
    },
    {
      "midi": 36,
      "hit": false,
      "t": 18855.935999999983,
      "d": 8.927999999999884,
      "v": 112
    },
    {
      "midi": 48,
      "hit": false,
      "t": 18855.935999999987,
      "d": 428.5440000000017,
      "v": 110
    },
    {
      "midi": 63,
      "hit": false,
      "t": 18855.935999999998,
      "d": 357.119999999999,
      "v": 90
    },
    {
      "midi": 63,
      "hit": false,
      "t": 18855.93600000002,
      "d": 35.711999999999534,
      "v": 70
    },
    {
      "midi": 60,
      "hit": false,
      "t": 18855.93600000002,
      "d": 35.711999999999534,
      "v": 80
    },
    {
      "midi": 75,
      "hit": false,
      "t": 18963.07200000002,
      "d": 35.711999999999534,
      "v": 80
    },
    {
      "midi": 42,
      "hit": false,
      "t": 19070.207999999984,
      "d": 8.927999999999884,
      "v": 84
    },
    {
      "midi": 87,
      "hit": false,
      "t": 19070.208000000017,
      "d": 35.711999999999534,
      "v": 60
    },
    {
      "midi": 75,
      "hit": false,
      "t": 19177.344000000016,
      "d": 35.711999999999534,
      "v": 80
    },
    {
      "midi": 46,
      "hit": false,
      "t": 19284.479999999985,
      "d": 8.927999999999884,
      "v": 70
    },
    {
      "midi": 40,
      "hit": false,
      "t": 19284.479999999985,
      "d": 8.927999999999884,
      "v": 112
    },
    {
      "midi": 62,
      "hit": false,
      "t": 19284.479999999996,
      "d": 142.84800000000178,
      "v": 117
    },
    {
      "midi": 87,
      "hit": false,
      "t": 19284.480000000014,
      "d": 35.711999999999534,
      "v": 60
    },
    {
      "midi": 75,
      "hit": false,
      "t": 19391.616000000013,
      "d": 35.711999999999534,
      "v": 80
    },
    {
      "midi": 42,
      "hit": false,
      "t": 19498.751999999986,
      "d": 8.927999999999884,
      "v": 84
    },
    {
      "midi": 60,
      "hit": false,
      "t": 19498.751999999997,
      "d": 357.119999999999,
      "v": 90
    },
    {
      "midi": 63,
      "hit": false,
      "t": 19498.75200000001,
      "d": 35.711999999999534,
      "v": 70
    },
    {
      "midi": 60,
      "hit": false,
      "t": 19498.75200000001,
      "d": 35.711999999999534,
      "v": 80
    },
    {
      "midi": 48,
      "hit": false,
      "t": 19605.887999999988,
      "d": 89.27999999999884,
      "v": 110
    },
    {
      "midi": 87,
      "hit": false,
      "t": 19605.88800000001,
      "d": 35.711999999999534,
      "v": 80
    },
    {
      "midi": 48,
      "hit": false,
      "t": 19713.023999999987,
      "d": 624.9599999999991,
      "v": 110
    },
    {
      "midi": 46,
      "hit": false,
      "t": 19713.023999999987,
      "d": 8.927999999999884,
      "v": 70
    },
    {
      "midi": 36,
      "hit": false,
      "t": 19713.023999999987,
      "d": 8.927999999999884,
      "v": 112
    },
    {
      "midi": 63,
      "hit": false,
      "t": 19713.02400000001,
      "d": 35.711999999999534,
      "v": 70
    },
    {
      "midi": 60,
      "hit": false,
      "t": 19713.02400000001,
      "d": 35.711999999999534,
      "v": 80
    },
    {
      "midi": 75,
      "hit": false,
      "t": 19820.160000000007,
      "d": 35.711999999999534,
      "v": 80
    },
    {
      "midi": 72,
      "hit": false,
      "t": 19927.295999999988,
      "d": 71.42399999999907,
      "v": 120
    },
    {
      "midi": 67,
      "hit": false,
      "t": 19927.295999999988,
      "d": 71.42399999999907,
      "v": 110
    },
    {
      "midi": 42,
      "hit": false,
      "t": 19927.295999999988,
      "d": 8.927999999999884,
      "v": 84
    },
    {
      "midi": 87,
      "hit": false,
      "t": 19927.296000000006,
      "d": 35.711999999999534,
      "v": 60
    },
    {
      "midi": 75,
      "hit": false,
      "t": 20034.432000000004,
      "d": 35.711999999999534,
      "v": 80
    },
    {
      "midi": 46,
      "hit": false,
      "t": 20141.56799999999,
      "d": 8.927999999999884,
      "v": 70
    },
    {
      "midi": 40,
      "hit": false,
      "t": 20141.56799999999,
      "d": 8.927999999999884,
      "v": 112
    },
    {
      "midi": 87,
      "hit": false,
      "t": 20141.568000000003,
      "d": 35.711999999999534,
      "v": 60
    },
    {
      "midi": 75,
      "hit": false,
      "t": 20248.704,
      "d": 35.711999999999534,
      "v": 80
    },
    {
      "midi": 43,
      "hit": false,
      "t": 20355.839999999986,
      "d": 196.41600000000108,
      "v": 110
    },
    {
      "midi": 42,
      "hit": false,
      "t": 20355.83999999999,
      "d": 8.927999999999884,
      "v": 84
    },
    {
      "midi": 63,
      "hit": false,
      "t": 20355.84,
      "d": 35.711999999999534,
      "v": 70
    },
    {
      "midi": 60,
      "hit": false,
      "t": 20355.84,
      "d": 35.711999999999534,
      "v": 80
    },
    {
      "midi": 63,
      "hit": false,
      "t": 20462.976,
      "d": 35.711999999999534,
      "v": 70
    },
    {
      "midi": 60,
      "hit": false,
      "t": 20462.976,
      "d": 35.711999999999534,
      "v": 80
    },
    {
      "midi": 48,
      "hit": false,
      "t": 20570.111999999986,
      "d": 428.5440000000017,
      "v": 110
    },
    {
      "midi": 46,
      "hit": false,
      "t": 20570.11199999999,
      "d": 8.927999999999884,
      "v": 70
    },
    {
      "midi": 36,
      "hit": false,
      "t": 20570.11199999999,
      "d": 8.927999999999884,
      "v": 112
    },
    {
      "midi": 75,
      "hit": false,
      "t": 20570.111999999997,
      "d": 35.711999999999534,
      "v": 80
    },
    {
      "midi": 87,
      "hit": false,
      "t": 20677.247999999996,
      "d": 35.711999999999534,
      "v": 60
    },
    {
      "midi": 42,
      "hit": false,
      "t": 20784.38399999999,
      "d": 8.927999999999884,
      "v": 84
    },
    {
      "midi": 63,
      "hit": false,
      "t": 20784.383999999995,
      "d": 35.711999999999534,
      "v": 70
    },
    {
      "midi": 60,
      "hit": false,
      "t": 20784.383999999995,
      "d": 35.711999999999534,
      "v": 80
    },
    {
      "midi": 75,
      "hit": false,
      "t": 20891.519999999993,
      "d": 35.711999999999534,
      "v": 80
    },
    {
      "midi": 87,
      "hit": false,
      "t": 20998.65599999999,
      "d": 35.711999999999534,
      "v": 60
    },
    {
      "midi": 46,
      "hit": false,
      "t": 20998.65599999999,
      "d": 8.927999999999884,
      "v": 70
    },
    {
      "midi": 40,
      "hit": false,
      "t": 20998.65599999999,
      "d": 8.927999999999884,
      "v": 112
    },
    {
      "midi": 58,
      "hit": false,
      "t": 20998.655999999995,
      "d": 142.84800000000178,
      "v": 90
    },
    {
      "midi": 63,
      "hit": false,
      "t": 21105.79199999999,
      "d": 35.711999999999534,
      "v": 70
    },
    {
      "midi": 60,
      "hit": false,
      "t": 21105.79199999999,
      "d": 35.711999999999534,
      "v": 80
    },
    {
      "midi": 75,
      "hit": false,
      "t": 21212.92799999999,
      "d": 35.711999999999534,
      "v": 80
    },
    {
      "midi": 42,
      "hit": false,
      "t": 21212.927999999993,
      "d": 8.927999999999884,
      "v": 84
    },
    {
      "midi": 60,
      "hit": false,
      "t": 21212.927999999996,
      "d": 142.84799999999814,
      "v": 117
    },
    {
      "midi": 87,
      "hit": false,
      "t": 21320.063999999988,
      "d": 35.711999999999534,
      "v": 60
    },
    {
      "midi": 48,
      "hit": false,
      "t": 21320.063999999988,
      "d": 89.27999999999884,
      "v": 110
    },
    {
      "midi": 63,
      "hit": false,
      "t": 21427.199999999986,
      "d": 35.711999999999534,
      "v": 70
    },
    {
      "midi": 60,
      "hit": false,
      "t": 21427.199999999986,
      "d": 35.711999999999534,
      "v": 80
    },
    {
      "midi": 48,
      "hit": false,
      "t": 21427.199999999986,
      "d": 410.6879999999983,
      "v": 110
    },
    {
      "midi": 63,
      "hit": false,
      "t": 21427.199999999993,
      "d": 142.84800000000178,
      "v": 90
    },
    {
      "midi": 46,
      "hit": false,
      "t": 21427.199999999993,
      "d": 8.927999999999884,
      "v": 70
    },
    {
      "midi": 36,
      "hit": false,
      "t": 21427.199999999993,
      "d": 8.927999999999884,
      "v": 112
    },
    {
      "midi": 75,
      "hit": false,
      "t": 21534.335999999985,
      "d": 35.711999999999534,
      "v": 80
    },
    {
      "midi": 87,
      "hit": false,
      "t": 21641.471999999983,
      "d": 35.711999999999534,
      "v": 60
    },
    {
      "midi": 62,
      "hit": false,
      "t": 21641.471999999994,
      "d": 160.70400000000154,
      "v": 90
    },
    {
      "midi": 42,
      "hit": false,
      "t": 21641.471999999994,
      "d": 8.927999999999884,
      "v": 84
    },
    {
      "midi": 63,
      "hit": false,
      "t": 21748.607999999982,
      "d": 35.711999999999534,
      "v": 70
    },
    {
      "midi": 60,
      "hit": false,
      "t": 21748.607999999982,
      "d": 35.711999999999534,
      "v": 80
    },
    {
      "midi": 75,
      "hit": false,
      "t": 21855.74399999998,
      "d": 35.711999999999534,
      "v": 80
    },
    {
      "midi": 43,
      "hit": false,
      "t": 21855.743999999984,
      "d": 196.41600000000108,
      "v": 110
    },
    {
      "midi": 60,
      "hit": false,
      "t": 21855.743999999995,
      "d": 142.84800000000178,
      "v": 90
    },
    {
      "midi": 46,
      "hit": false,
      "t": 21855.743999999995,
      "d": 8.927999999999884,
      "v": 70
    },
    {
      "midi": 40,
      "hit": false,
      "t": 21855.743999999995,
      "d": 8.927999999999884,
      "v": 112
    },
    {
      "midi": 87,
      "hit": false,
      "t": 21962.87999999998,
      "d": 35.711999999999534,
      "v": 60
    },
    {
      "midi": 63,
      "hit": false,
      "t": 22070.015999999978,
      "d": 35.711999999999534,
      "v": 70
    },
    {
      "midi": 60,
      "hit": false,
      "t": 22070.015999999978,
      "d": 35.711999999999534,
      "v": 80
    },
    {
      "midi": 46,
      "hit": false,
      "t": 22070.015999999985,
      "d": 196.41600000000108,
      "v": 110
    },
    {
      "midi": 67,
      "hit": false,
      "t": 22070.015999999996,
      "d": 142.84800000000178,
      "v": 96
    },
    {
      "midi": 42,
      "hit": false,
      "t": 22070.015999999996,
      "d": 8.927999999999884,
      "v": 84
    },
    {
      "midi": 63,
      "hit": false,
      "t": 22177.151999999976,
      "d": 35.711999999999534,
      "v": 70
    },
    {
      "midi": 60,
      "hit": false,
      "t": 22177.151999999976,
      "d": 35.711999999999534,
      "v": 80
    },
    {
      "midi": 75,
      "hit": false,
      "t": 22284.287999999975,
      "d": 35.711999999999534,
      "v": 80
    },
    {
      "midi": 48,
      "hit": false,
      "t": 22284.287999999986,
      "d": 428.5440000000017,
      "v": 110
    },
    {
      "midi": 58,
      "hit": false,
      "t": 22284.287999999997,
      "d": 303.5519999999997,
      "v": 100
    },
    {
      "midi": 46,
      "hit": false,
      "t": 22284.287999999997,
      "d": 8.927999999999884,
      "v": 70
    },
    {
      "midi": 36,
      "hit": false,
      "t": 22284.287999999997,
      "d": 8.927999999999884,
      "v": 112
    },
    {
      "midi": 87,
      "hit": false,
      "t": 22391.423999999974,
      "d": 35.711999999999534,
      "v": 60
    },
    {
      "midi": 63,
      "hit": false,
      "t": 22498.559999999972,
      "d": 35.711999999999534,
      "v": 70
    },
    {
      "midi": 60,
      "hit": false,
      "t": 22498.559999999972,
      "d": 35.711999999999534,
      "v": 80
    },
    {
      "midi": 42,
      "hit": false,
      "t": 22498.559999999998,
      "d": 8.927999999999884,
      "v": 84
    },
    {
      "midi": 60,
      "hit": false,
      "t": 22587.839999999997,
      "d": 1428.4799999999996,
      "v": 100
    },
    {
      "midi": 75,
      "hit": false,
      "t": 22605.69599999997,
      "d": 35.711999999999534,
      "v": 80
    },
    {
      "midi": 87,
      "hit": false,
      "t": 22712.83199999997,
      "d": 35.711999999999534,
      "v": 60
    },
    {
      "midi": 46,
      "hit": false,
      "t": 22712.832,
      "d": 8.927999999999884,
      "v": 70
    },
    {
      "midi": 40,
      "hit": false,
      "t": 22712.832,
      "d": 8.927999999999884,
      "v": 112
    },
    {
      "midi": 63,
      "hit": false,
      "t": 22819.967999999968,
      "d": 35.711999999999534,
      "v": 70
    },
    {
      "midi": 60,
      "hit": false,
      "t": 22819.967999999968,
      "d": 35.711999999999534,
      "v": 80
    },
    {
      "midi": 75,
      "hit": false,
      "t": 22927.103999999967,
      "d": 35.711999999999534,
      "v": 80
    },
    {
      "midi": 42,
      "hit": false,
      "t": 22927.104,
      "d": 8.927999999999884,
      "v": 84
    },
    {
      "midi": 87,
      "hit": false,
      "t": 23034.239999999965,
      "d": 35.711999999999534,
      "v": 60
    },
    {
      "midi": 48,
      "hit": false,
      "t": 23034.239999999987,
      "d": 89.27999999999884,
      "v": 110
    },
    {
      "midi": 63,
      "hit": false,
      "t": 23141.375999999964,
      "d": 35.711999999999534,
      "v": 70
    },
    {
      "midi": 60,
      "hit": false,
      "t": 23141.375999999964,
      "d": 35.711999999999534,
      "v": 80
    },
    {
      "midi": 48,
      "hit": false,
      "t": 23141.375999999986,
      "d": 624.9599999999991,
      "v": 110
    },
    {
      "midi": 46,
      "hit": false,
      "t": 23141.376,
      "d": 8.927999999999884,
      "v": 70
    },
    {
      "midi": 36,
      "hit": false,
      "t": 23141.376,
      "d": 8.927999999999884,
      "v": 112
    },
    {
      "midi": 75,
      "hit": false,
      "t": 23248.511999999962,
      "d": 35.711999999999534,
      "v": 80
    },
    {
      "midi": 87,
      "hit": false,
      "t": 23355.64799999996,
      "d": 35.711999999999534,
      "v": 60
    },
    {
      "midi": 72,
      "hit": false,
      "t": 23355.647999999986,
      "d": 71.42399999999907,
      "v": 120
    },
    {
      "midi": 67,
      "hit": false,
      "t": 23355.647999999986,
      "d": 71.42399999999907,
      "v": 110
    },
    {
      "midi": 42,
      "hit": false,
      "t": 23355.648,
      "d": 8.927999999999884,
      "v": 84
    },
    {
      "midi": 63,
      "hit": false,
      "t": 23462.78399999996,
      "d": 35.711999999999534,
      "v": 70
    },
    {
      "midi": 60,
      "hit": false,
      "t": 23462.78399999996,
      "d": 35.711999999999534,
      "v": 80
    },
    {
      "midi": 75,
      "hit": false,
      "t": 23569.91999999996,
      "d": 35.711999999999534,
      "v": 80
    },
    {
      "midi": 70,
      "hit": false,
      "t": 23569.919999999987,
      "d": 71.42399999999907,
      "v": 100
    },
    {
      "midi": 65,
      "hit": false,
      "t": 23569.919999999987,
      "d": 71.42399999999907,
      "v": 80
    },
    {
      "midi": 46,
      "hit": false,
      "t": 23569.920000000002,
      "d": 8.927999999999884,
      "v": 70
    },
    {
      "midi": 40,
      "hit": false,
      "t": 23569.920000000002,
      "d": 8.927999999999884,
      "v": 112
    },
    {
      "midi": 87,
      "hit": false,
      "t": 23677.055999999957,
      "d": 35.711999999999534,
      "v": 60
    },
    {
      "midi": 72,
      "hit": false,
      "t": 23677.055999999986,
      "d": 71.42399999999907,
      "v": 120
    },
    {
      "midi": 67,
      "hit": false,
      "t": 23677.055999999986,
      "d": 71.42399999999907,
      "v": 110
    },
    {
      "midi": 63,
      "hit": false,
      "t": 23784.191999999955,
      "d": 35.711999999999534,
      "v": 70
    },
    {
      "midi": 60,
      "hit": false,
      "t": 23784.191999999955,
      "d": 35.711999999999534,
      "v": 80
    },
    {
      "midi": 43,
      "hit": false,
      "t": 23784.191999999985,
      "d": 196.41600000000108,
      "v": 110
    },
    {
      "midi": 42,
      "hit": false,
      "t": 23784.192000000003,
      "d": 8.927999999999884,
      "v": 84
    },
    {
      "midi": 63,
      "hit": false,
      "t": 23891.327999999954,
      "d": 35.711999999999534,
      "v": 70
    },
    {
      "midi": 60,
      "hit": false,
      "t": 23891.327999999954,
      "d": 35.711999999999534,
      "v": 80
    },
    {
      "midi": 75,
      "hit": false,
      "t": 23998.463999999953,
      "d": 35.711999999999534,
      "v": 80
    },
    {
      "midi": 48,
      "hit": false,
      "t": 23998.463999999985,
      "d": 428.5440000000017,
      "v": 110
    },
    {
      "midi": 46,
      "hit": false,
      "t": 23998.464000000004,
      "d": 8.927999999999884,
      "v": 70
    },
    {
      "midi": 36,
      "hit": false,
      "t": 23998.464000000004,
      "d": 8.927999999999884,
      "v": 112
    },
    {
      "midi": 70,
      "hit": false,
      "t": 24007.391999999978,
      "d": 410.6879999999983,
      "v": 110
    },
    {
      "midi": 65,
      "hit": false,
      "t": 24007.391999999978,
      "d": 410.6879999999983,
      "v": 90
    },
    {
      "midi": 87,
      "hit": false,
      "t": 24105.59999999995,
      "d": 35.711999999999534,
      "v": 60
    },
    {
      "midi": 63,
      "hit": false,
      "t": 24212.73599999995,
      "d": 35.711999999999534,
      "v": 70
    },
    {
      "midi": 60,
      "hit": false,
      "t": 24212.73599999995,
      "d": 35.711999999999534,
      "v": 80
    },
    {
      "midi": 42,
      "hit": false,
      "t": 24212.736000000004,
      "d": 8.927999999999884,
      "v": 84
    },
    {
      "midi": 75,
      "hit": false,
      "t": 24319.87199999995,
      "d": 35.711999999999534,
      "v": 80
    },
    {
      "midi": 87,
      "hit": false,
      "t": 24427.007999999947,
      "d": 35.711999999999534,
      "v": 60
    },
    {
      "midi": 46,
      "hit": false,
      "t": 24427.008000000005,
      "d": 8.927999999999884,
      "v": 70
    },
    {
      "midi": 40,
      "hit": false,
      "t": 24427.008000000005,
      "d": 8.927999999999884,
      "v": 112
    },
    {
      "midi": 72,
      "hit": false,
      "t": 24435.935999999976,
      "d": 1160.6399999999994,
      "v": 90
    },
    {
      "midi": 67,
      "hit": false,
      "t": 24435.935999999976,
      "d": 1160.6399999999994,
      "v": 70
    },
    {
      "midi": 63,
      "hit": false,
      "t": 24534.143999999946,
      "d": 35.711999999999534,
      "v": 70
    },
    {
      "midi": 60,
      "hit": false,
      "t": 24534.143999999946,
      "d": 35.711999999999534,
      "v": 80
    },
    {
      "midi": 75,
      "hit": false,
      "t": 24641.279999999944,
      "d": 35.711999999999534,
      "v": 80
    },
    {
      "midi": 42,
      "hit": false,
      "t": 24641.280000000006,
      "d": 8.927999999999884,
      "v": 84
    },
    {
      "midi": 87,
      "hit": false,
      "t": 24748.415999999943,
      "d": 35.711999999999534,
      "v": 60
    },
    {
      "midi": 48,
      "hit": false,
      "t": 24748.415999999987,
      "d": 89.27999999999884,
      "v": 110
    },
    {
      "midi": 63,
      "hit": false,
      "t": 24855.55199999994,
      "d": 35.711999999999534,
      "v": 70
    },
    {
      "midi": 60,
      "hit": false,
      "t": 24855.55199999994,
      "d": 35.711999999999534,
      "v": 80
    },
    {
      "midi": 75,
      "hit": false,
      "t": 24855.551999999985,
      "d": 71.42399999999907,
      "v": 120
    },
    {
      "midi": 70,
      "hit": false,
      "t": 24855.551999999985,
      "d": 71.42399999999907,
      "v": 110
    },
    {
      "midi": 48,
      "hit": false,
      "t": 24855.551999999985,
      "d": 624.9599999999991,
      "v": 110
    },
    {
      "midi": 46,
      "hit": false,
      "t": 24855.552000000007,
      "d": 8.927999999999884,
      "v": 70
    },
    {
      "midi": 36,
      "hit": false,
      "t": 24855.552000000007,
      "d": 8.927999999999884,
      "v": 112
    },
    {
      "midi": 75,
      "hit": false,
      "t": 24962.68799999994,
      "d": 35.711999999999534,
      "v": 80
    },
    {
      "midi": 75,
      "hit": false,
      "t": 24962.687999999984,
      "d": 71.42399999999907,
      "v": 120
    },
    {
      "midi": 70,
      "hit": false,
      "t": 24962.687999999984,
      "d": 71.42399999999907,
      "v": 110
    },
    {
      "midi": 87,
      "hit": false,
      "t": 25069.82399999994,
      "d": 35.711999999999534,
      "v": 60
    },
    {
      "midi": 74,
      "hit": false,
      "t": 25069.823999999982,
      "d": 71.42399999999907,
      "v": 120
    },
    {
      "midi": 70,
      "hit": false,
      "t": 25069.823999999982,
      "d": 71.42399999999907,
      "v": 110
    },
    {
      "midi": 42,
      "hit": false,
      "t": 25069.824000000008,
      "d": 8.927999999999884,
      "v": 84
    },
    {
      "midi": 63,
      "hit": false,
      "t": 25176.959999999937,
      "d": 35.711999999999534,
      "v": 70
    },
    {
      "midi": 60,
      "hit": false,
      "t": 25176.959999999937,
      "d": 35.711999999999534,
      "v": 80
    },
    {
      "midi": 75,
      "hit": false,
      "t": 25284.095999999936,
      "d": 35.711999999999534,
      "v": 80
    },
    {
      "midi": 72,
      "hit": false,
      "t": 25284.095999999983,
      "d": 71.42399999999907,
      "v": 120
    },
    {
      "midi": 67,
      "hit": false,
      "t": 25284.095999999983,
      "d": 71.42399999999907,
      "v": 110
    },
    {
      "midi": 46,
      "hit": false,
      "t": 25284.09600000001,
      "d": 8.927999999999884,
      "v": 70
    },
    {
      "midi": 40,
      "hit": false,
      "t": 25284.09600000001,
      "d": 8.927999999999884,
      "v": 112
    },
    {
      "midi": 87,
      "hit": false,
      "t": 25391.231999999934,
      "d": 35.711999999999534,
      "v": 60
    },
    {
      "midi": 70,
      "hit": false,
      "t": 25391.23199999998,
      "d": 267.84000000000015,
      "v": 120
    },
    {
      "midi": 67,
      "hit": false,
      "t": 25391.23199999998,
      "d": 267.84000000000015,
      "v": 110
    },
    {
      "midi": 63,
      "hit": false,
      "t": 25498.367999999933,
      "d": 35.711999999999534,
      "v": 70
    },
    {
      "midi": 60,
      "hit": false,
      "t": 25498.367999999933,
      "d": 35.711999999999534,
      "v": 80
    },
    {
      "midi": 43,
      "hit": false,
      "t": 25498.367999999984,
      "d": 196.41600000000108,
      "v": 110
    },
    {
      "midi": 58,
      "hit": false,
      "t": 25498.367999999995,
      "d": 124.99199999999837,
      "v": 100
    },
    {
      "midi": 42,
      "hit": false,
      "t": 25498.36800000001,
      "d": 8.927999999999884,
      "v": 84
    },
    {
      "midi": 63,
      "hit": false,
      "t": 25605.50399999993,
      "d": 35.711999999999534,
      "v": 70
    },
    {
      "midi": 60,
      "hit": false,
      "t": 25605.50399999993,
      "d": 35.711999999999534,
      "v": 80
    },
    {
      "midi": 58,
      "hit": false,
      "t": 25641.215999999993,
      "d": 35.711999999999534,
      "v": 100
    },
    {
      "midi": 75,
      "hit": false,
      "t": 25712.63999999993,
      "d": 35.711999999999534,
      "v": 80
    },
    {
      "midi": 48,
      "hit": false,
      "t": 25712.639999999985,
      "d": 428.5440000000017,
      "v": 110
    },
    {
      "midi": 63,
      "hit": false,
      "t": 25712.639999999992,
      "d": 357.119999999999,
      "v": 117
    },
    {
      "midi": 46,
      "hit": false,
      "t": 25712.64000000001,
      "d": 8.927999999999884,
      "v": 70
    },
    {
      "midi": 36,
      "hit": false,
      "t": 25712.64000000001,
      "d": 8.927999999999884,
      "v": 112
    },
    {
      "midi": 87,
      "hit": false,
      "t": 25819.77599999993,
      "d": 35.711999999999534,
      "v": 60
    },
    {
      "midi": 63,
      "hit": false,
      "t": 25926.911999999928,
      "d": 35.711999999999534,
      "v": 70
    },
    {
      "midi": 60,
      "hit": false,
      "t": 25926.911999999928,
      "d": 35.711999999999534,
      "v": 80
    },
    {
      "midi": 42,
      "hit": false,
      "t": 25926.91200000001,
      "d": 8.927999999999884,
      "v": 84
    },
    {
      "midi": 75,
      "hit": false,
      "t": 26034.047999999926,
      "d": 35.711999999999534,
      "v": 80
    },
    {
      "midi": 87,
      "hit": false,
      "t": 26141.183999999925,
      "d": 35.711999999999534,
      "v": 60
    },
    {
      "midi": 62,
      "hit": false,
      "t": 26141.18399999999,
      "d": 142.84799999999814,
      "v": 100
    },
    {
      "midi": 46,
      "hit": false,
      "t": 26141.184000000012,
      "d": 8.927999999999884,
      "v": 70
    },
    {
      "midi": 40,
      "hit": false,
      "t": 26141.184000000012,
      "d": 8.927999999999884,
      "v": 112
    },
    {
      "midi": 63,
      "hit": false,
      "t": 26248.319999999923,
      "d": 35.711999999999534,
      "v": 70
    },
    {
      "midi": 60,
      "hit": false,
      "t": 26248.319999999923,
      "d": 35.711999999999534,
      "v": 80
    },
    {
      "midi": 75,
      "hit": false,
      "t": 26355.455999999922,
      "d": 35.711999999999534,
      "v": 80
    },
    {
      "midi": 60,
      "hit": false,
      "t": 26355.455999999987,
      "d": 357.119999999999,
      "v": 117
    },
    {
      "midi": 42,
      "hit": false,
      "t": 26355.456000000013,
      "d": 8.927999999999884,
      "v": 84
    },
    {
      "midi": 87,
      "hit": false,
      "t": 26462.59199999992,
      "d": 35.711999999999534,
      "v": 60
    },
    {
      "midi": 48,
      "hit": false,
      "t": 26462.591999999986,
      "d": 89.27999999999884,
      "v": 110
    },
    {
      "midi": 63,
      "hit": false,
      "t": 26569.72799999992,
      "d": 35.711999999999534,
      "v": 70
    },
    {
      "midi": 60,
      "hit": false,
      "t": 26569.72799999992,
      "d": 35.711999999999534,
      "v": 80
    },
    {
      "midi": 48,
      "hit": false,
      "t": 26569.727999999985,
      "d": 624.9599999999991,
      "v": 110
    },
    {
      "midi": 46,
      "hit": false,
      "t": 26569.728000000014,
      "d": 8.927999999999884,
      "v": 70
    },
    {
      "midi": 36,
      "hit": false,
      "t": 26569.728000000014,
      "d": 8.927999999999884,
      "v": 112
    },
    {
      "midi": 75,
      "hit": false,
      "t": 26676.863999999918,
      "d": 35.711999999999534,
      "v": 80
    },
    {
      "midi": 87,
      "hit": false,
      "t": 26783.999999999916,
      "d": 35.711999999999534,
      "v": 60
    },
    {
      "midi": 72,
      "hit": false,
      "t": 26783.99999999998,
      "d": 446.3999999999978,
      "v": 100
    },
    {
      "midi": 60,
      "hit": false,
      "t": 26783.99999999998,
      "d": 446.3999999999978,
      "v": 110
    },
    {
      "midi": 67,
      "hit": false,
      "t": 26783.99999999998,
      "d": 535.6799999999967,
      "v": 110
    },
    {
      "midi": 84,
      "hit": false,
      "t": 26783.99999999998,
      "d": 624.9599999999955,
      "v": 120
    },
    {
      "midi": 42,
      "hit": false,
      "t": 26784.000000000015,
      "d": 8.927999999999884,
      "v": 84
    },
    {
      "midi": 63,
      "hit": false,
      "t": 26891.135999999915,
      "d": 35.711999999999534,
      "v": 70
    },
    {
      "midi": 60,
      "hit": false,
      "t": 26891.135999999915,
      "d": 35.711999999999534,
      "v": 80
    },
    {
      "midi": 75,
      "hit": false,
      "t": 26998.271999999914,
      "d": 35.711999999999534,
      "v": 80
    },
    {
      "midi": 46,
      "hit": false,
      "t": 26998.272000000015,
      "d": 8.927999999999884,
      "v": 70
    },
    {
      "midi": 40,
      "hit": false,
      "t": 26998.272000000015,
      "d": 8.927999999999884,
      "v": 112
    },
    {
      "midi": 87,
      "hit": false,
      "t": 27105.407999999912,
      "d": 35.711999999999534,
      "v": 60
    },
    {
      "midi": 63,
      "hit": false,
      "t": 27212.54399999991,
      "d": 35.711999999999534,
      "v": 70
    },
    {
      "midi": 60,
      "hit": false,
      "t": 27212.54399999991,
      "d": 35.711999999999534,
      "v": 80
    },
    {
      "midi": 43,
      "hit": false,
      "t": 27212.543999999983,
      "d": 196.41600000000108,
      "v": 110
    },
    {
      "midi": 42,
      "hit": false,
      "t": 27212.544000000016,
      "d": 8.927999999999884,
      "v": 84
    },
    {
      "midi": 63,
      "hit": false,
      "t": 27319.67999999991,
      "d": 35.711999999999534,
      "v": 70
    },
    {
      "midi": 60,
      "hit": false,
      "t": 27319.67999999991,
      "d": 35.711999999999534,
      "v": 80
    },
    {
      "midi": 75,
      "hit": false,
      "t": 27426.815999999908,
      "d": 35.711999999999534,
      "v": 80
    },
    {
      "midi": 48,
      "hit": false,
      "t": 27426.815999999984,
      "d": 428.5440000000017,
      "v": 110
    },
    {
      "midi": 46,
      "hit": false,
      "t": 27426.816000000017,
      "d": 8.927999999999884,
      "v": 70
    },
    {
      "midi": 36,
      "hit": false,
      "t": 27426.816000000017,
      "d": 8.927999999999884,
      "v": 112
    },
    {
      "midi": 87,
      "hit": false,
      "t": 27533.951999999907,
      "d": 35.711999999999534,
      "v": 60
    },
    {
      "midi": 63,
      "hit": false,
      "t": 27641.087999999905,
      "d": 35.711999999999534,
      "v": 70
    },
    {
      "midi": 60,
      "hit": false,
      "t": 27641.087999999905,
      "d": 35.711999999999534,
      "v": 80
    },
    {
      "midi": 42,
      "hit": false,
      "t": 27641.088000000018,
      "d": 8.927999999999884,
      "v": 84
    },
    {
      "midi": 75,
      "hit": false,
      "t": 27748.223999999904,
      "d": 35.711999999999534,
      "v": 80
    },
    {
      "midi": 87,
      "hit": false,
      "t": 27855.359999999902,
      "d": 35.711999999999534,
      "v": 60
    },
    {
      "midi": 58,
      "hit": false,
      "t": 27855.359999999986,
      "d": 142.84800000000178,
      "v": 90
    },
    {
      "midi": 46,
      "hit": false,
      "t": 27855.36000000002,
      "d": 8.927999999999884,
      "v": 70
    },
    {
      "midi": 40,
      "hit": false,
      "t": 27855.36000000002,
      "d": 8.927999999999884,
      "v": 112
    },
    {
      "midi": 63,
      "hit": false,
      "t": 27962.4959999999,
      "d": 35.711999999999534,
      "v": 70
    },
    {
      "midi": 60,
      "hit": false,
      "t": 27962.4959999999,
      "d": 35.711999999999534,
      "v": 80
    },
    {
      "midi": 75,
      "hit": false,
      "t": 28069.6319999999,
      "d": 35.711999999999534,
      "v": 80
    },
    {
      "midi": 60,
      "hit": false,
      "t": 28069.631999999987,
      "d": 142.84799999999814,
      "v": 117
    },
    {
      "midi": 42,
      "hit": false,
      "t": 28069.63200000002,
      "d": 8.927999999999884,
      "v": 84
    },
    {
      "midi": 87,
      "hit": false,
      "t": 28176.767999999898,
      "d": 35.711999999999534,
      "v": 60
    },
    {
      "midi": 48,
      "hit": false,
      "t": 28176.767999999985,
      "d": 89.27999999999884,
      "v": 110
    },
    {
      "midi": 63,
      "hit": false,
      "t": 28283.903999999897,
      "d": 35.711999999999534,
      "v": 70
    },
    {
      "midi": 60,
      "hit": false,
      "t": 28283.903999999897,
      "d": 35.711999999999534,
      "v": 80
    },
    {
      "midi": 63,
      "hit": false,
      "t": 28283.903999999984,
      "d": 142.84800000000178,
      "v": 90
    },
    {
      "midi": 48,
      "hit": false,
      "t": 28283.903999999984,
      "d": 410.6879999999983,
      "v": 110
    },
    {
      "midi": 46,
      "hit": false,
      "t": 28283.90400000002,
      "d": 8.927999999999884,
      "v": 70
    },
    {
      "midi": 36,
      "hit": false,
      "t": 28283.90400000002,
      "d": 8.927999999999884,
      "v": 112
    },
    {
      "midi": 75,
      "hit": false,
      "t": 28391.039999999895,
      "d": 35.711999999999534,
      "v": 80
    },
    {
      "midi": 87,
      "hit": false,
      "t": 28498.175999999894,
      "d": 35.711999999999534,
      "v": 60
    },
    {
      "midi": 62,
      "hit": false,
      "t": 28498.175999999985,
      "d": 160.70400000000154,
      "v": 90
    },
    {
      "midi": 42,
      "hit": false,
      "t": 28498.17600000002,
      "d": 8.927999999999884,
      "v": 84
    },
    {
      "midi": 63,
      "hit": false,
      "t": 28605.311999999893,
      "d": 35.711999999999534,
      "v": 70
    },
    {
      "midi": 60,
      "hit": false,
      "t": 28605.311999999893,
      "d": 35.711999999999534,
      "v": 80
    },
    {
      "midi": 75,
      "hit": false,
      "t": 28712.44799999989,
      "d": 35.711999999999534,
      "v": 80
    },
    {
      "midi": 46,
      "hit": false,
      "t": 28712.447999999982,
      "d": 196.41600000000108,
      "v": 110
    },
    {
      "midi": 60,
      "hit": false,
      "t": 28712.447999999986,
      "d": 142.84800000000178,
      "v": 90
    },
    {
      "midi": 46,
      "hit": false,
      "t": 28712.448000000022,
      "d": 8.927999999999884,
      "v": 70
    },
    {
      "midi": 40,
      "hit": false,
      "t": 28712.448000000022,
      "d": 8.927999999999884,
      "v": 112
    },
    {
      "midi": 87,
      "hit": false,
      "t": 28819.58399999989,
      "d": 35.711999999999534,
      "v": 60
    },
    {
      "midi": 63,
      "hit": false,
      "t": 28926.71999999989,
      "d": 35.711999999999534,
      "v": 70
    },
    {
      "midi": 60,
      "hit": false,
      "t": 28926.71999999989,
      "d": 35.711999999999534,
      "v": 80
    },
    {
      "midi": 48,
      "hit": false,
      "t": 28926.719999999983,
      "d": 196.41600000000108,
      "v": 110
    },
    {
      "midi": 67,
      "hit": false,
      "t": 28926.719999999987,
      "d": 142.84800000000178,
      "v": 96
    },
    {
      "midi": 42,
      "hit": false,
      "t": 28926.720000000023,
      "d": 8.927999999999884,
      "v": 84
    },
    {
      "midi": 63,
      "hit": false,
      "t": 29033.855999999887,
      "d": 35.711999999999534,
      "v": 70
    },
    {
      "midi": 60,
      "hit": false,
      "t": 29033.855999999887,
      "d": 35.711999999999534,
      "v": 80
    },
    {
      "midi": 74,
      "hit": false,
      "t": 29140.991999999886,
      "d": 35.711999999999534,
      "v": 80
    },
    {
      "midi": 43,
      "hit": false,
      "t": 29140.991999999984,
      "d": 428.5440000000017,
      "v": 110
    },
    {
      "midi": 46,
      "hit": false,
      "t": 29140.992000000024,
      "d": 8.927999999999884,
      "v": 70
    },
    {
      "midi": 36,
      "hit": false,
      "t": 29140.992000000024,
      "d": 8.927999999999884,
      "v": 112
    },
    {
      "midi": 86,
      "hit": false,
      "t": 29248.127999999884,
      "d": 35.711999999999534,
      "v": 60
    },
    {
      "midi": 53,
      "hit": false,
      "t": 29248.12799999999,
      "d": 303.5519999999997,
      "v": 117
    },
    {
      "midi": 62,
      "hit": false,
      "t": 29355.263999999883,
      "d": 35.711999999999534,
      "v": 70
    },
    {
      "midi": 58,
      "hit": false,
      "t": 29355.263999999883,
      "d": 35.711999999999534,
      "v": 80
    },
    {
      "midi": 42,
      "hit": false,
      "t": 29355.264000000025,
      "d": 8.927999999999884,
      "v": 84
    },
    {
      "midi": 74,
      "hit": false,
      "t": 29462.39999999988,
      "d": 35.711999999999534,
      "v": 80
    },
    {
      "midi": 86,
      "hit": false,
      "t": 29569.53599999988,
      "d": 35.711999999999534,
      "v": 60
    },
    {
      "midi": 55,
      "hit": false,
      "t": 29569.53599999999,
      "d": 1428.4799999999996,
      "v": 100
    },
    {
      "midi": 46,
      "hit": false,
      "t": 29569.536000000026,
      "d": 8.927999999999884,
      "v": 70
    },
    {
      "midi": 40,
      "hit": false,
      "t": 29569.536000000026,
      "d": 8.927999999999884,
      "v": 112
    },
    {
      "midi": 62,
      "hit": false,
      "t": 29676.67199999988,
      "d": 35.711999999999534,
      "v": 70
    },
    {
      "midi": 58,
      "hit": false,
      "t": 29676.67199999988,
      "d": 35.711999999999534,
      "v": 80
    },
    {
      "midi": 74,
      "hit": false,
      "t": 29783.807999999877,
      "d": 35.711999999999534,
      "v": 80
    },
    {
      "midi": 42,
      "hit": false,
      "t": 29783.808000000026,
      "d": 8.927999999999884,
      "v": 84
    },
    {
      "midi": 86,
      "hit": false,
      "t": 29890.943999999876,
      "d": 35.711999999999534,
      "v": 60
    },
    {
      "midi": 43,
      "hit": false,
      "t": 29890.943999999985,
      "d": 89.27999999999884,
      "v": 110
    },
    {
      "midi": 62,
      "hit": false,
      "t": 29998.079999999874,
      "d": 35.711999999999534,
      "v": 70
    },
    {
      "midi": 58,
      "hit": false,
      "t": 29998.079999999874,
      "d": 35.711999999999534,
      "v": 80
    },
    {
      "midi": 43,
      "hit": false,
      "t": 29998.079999999984,
      "d": 624.9599999999991,
      "v": 110
    },
    {
      "midi": 46,
      "hit": false,
      "t": 29998.080000000027,
      "d": 8.927999999999884,
      "v": 70
    },
    {
      "midi": 36,
      "hit": false,
      "t": 29998.080000000027,
      "d": 8.927999999999884,
      "v": 112
    },
    {
      "midi": 74,
      "hit": false,
      "t": 30105.215999999873,
      "d": 35.711999999999534,
      "v": 80
    },
    {
      "midi": 86,
      "hit": false,
      "t": 30212.35199999987,
      "d": 35.711999999999534,
      "v": 60
    },
    {
      "midi": 79,
      "hit": false,
      "t": 30212.351999999977,
      "d": 71.42399999999907,
      "v": 100
    },
    {
      "midi": 74,
      "hit": false,
      "t": 30212.351999999977,
      "d": 71.42399999999907,
      "v": 80
    },
    {
      "midi": 67,
      "hit": false,
      "t": 30212.351999999977,
      "d": 71.42399999999907,
      "v": 110
    },
    {
      "midi": 42,
      "hit": false,
      "t": 30212.352000000028,
      "d": 8.927999999999884,
      "v": 84
    },
    {
      "midi": 62,
      "hit": false,
      "t": 30319.48799999987,
      "d": 35.711999999999534,
      "v": 70
    },
    {
      "midi": 58,
      "hit": false,
      "t": 30319.48799999987,
      "d": 35.711999999999534,
      "v": 80
    },
    {
      "midi": 74,
      "hit": false,
      "t": 30426.62399999987,
      "d": 35.711999999999534,
      "v": 80
    },
    {
      "midi": 46,
      "hit": false,
      "t": 30426.62400000003,
      "d": 8.927999999999884,
      "v": 70
    },
    {
      "midi": 40,
      "hit": false,
      "t": 30426.62400000003,
      "d": 8.927999999999884,
      "v": 112
    },
    {
      "midi": 86,
      "hit": false,
      "t": 30533.759999999867,
      "d": 35.711999999999534,
      "v": 60
    },
    {
      "midi": 79,
      "hit": false,
      "t": 30533.759999999977,
      "d": 71.42399999999907,
      "v": 100
    },
    {
      "midi": 74,
      "hit": false,
      "t": 30533.759999999977,
      "d": 71.42399999999907,
      "v": 80
    },
    {
      "midi": 67,
      "hit": false,
      "t": 30533.759999999977,
      "d": 71.42399999999907,
      "v": 110
    },
    {
      "midi": 62,
      "hit": false,
      "t": 30640.895999999866,
      "d": 35.711999999999534,
      "v": 70
    },
    {
      "midi": 58,
      "hit": false,
      "t": 30640.895999999866,
      "d": 35.711999999999534,
      "v": 80
    },
    {
      "midi": 46,
      "hit": false,
      "t": 30640.895999999982,
      "d": 196.41600000000108,
      "v": 110
    },
    {
      "midi": 42,
      "hit": false,
      "t": 30640.89600000003,
      "d": 8.927999999999884,
      "v": 84
    },
    {
      "midi": 62,
      "hit": false,
      "t": 30748.031999999865,
      "d": 35.711999999999534,
      "v": 70
    },
    {
      "midi": 58,
      "hit": false,
      "t": 30748.031999999865,
      "d": 35.711999999999534,
      "v": 80
    },
    {
      "midi": 74,
      "hit": false,
      "t": 30855.167999999863,
      "d": 35.711999999999534,
      "v": 80
    },
    {
      "midi": 65,
      "hit": false,
      "t": 30855.167999999976,
      "d": 357.119999999999,
      "v": 107
    },
    {
      "midi": 60,
      "hit": false,
      "t": 30855.167999999976,
      "d": 357.119999999999,
      "v": 87
    },
    {
      "midi": 43,
      "hit": false,
      "t": 30855.167999999983,
      "d": 428.5440000000017,
      "v": 110
    },
    {
      "midi": 46,
      "hit": false,
      "t": 30855.16800000003,
      "d": 8.927999999999884,
      "v": 70
    },
    {
      "midi": 36,
      "hit": false,
      "t": 30855.16800000003,
      "d": 8.927999999999884,
      "v": 112
    },
    {
      "midi": 86,
      "hit": false,
      "t": 30962.303999999862,
      "d": 35.711999999999534,
      "v": 60
    },
    {
      "midi": 62,
      "hit": false,
      "t": 31069.43999999986,
      "d": 35.711999999999534,
      "v": 70
    },
    {
      "midi": 58,
      "hit": false,
      "t": 31069.43999999986,
      "d": 35.711999999999534,
      "v": 80
    },
    {
      "midi": 42,
      "hit": false,
      "t": 31069.44000000003,
      "d": 8.927999999999884,
      "v": 84
    },
    {
      "midi": 74,
      "hit": false,
      "t": 31176.57599999986,
      "d": 35.711999999999534,
      "v": 80
    },
    {
      "midi": 86,
      "hit": false,
      "t": 31283.711999999858,
      "d": 35.711999999999534,
      "v": 60
    },
    {
      "midi": 67,
      "hit": false,
      "t": 31283.711999999974,
      "d": 1285.6320000000014,
      "v": 90
    },
    {
      "midi": 62,
      "hit": false,
      "t": 31283.711999999974,
      "d": 1285.6320000000014,
      "v": 70
    },
    {
      "midi": 46,
      "hit": false,
      "t": 31283.712000000032,
      "d": 8.927999999999884,
      "v": 70
    },
    {
      "midi": 40,
      "hit": false,
      "t": 31283.712000000032,
      "d": 8.927999999999884,
      "v": 112
    },
    {
      "midi": 62,
      "hit": false,
      "t": 31390.847999999856,
      "d": 35.711999999999534,
      "v": 70
    },
    {
      "midi": 58,
      "hit": false,
      "t": 31390.847999999856,
      "d": 35.711999999999534,
      "v": 80
    },
    {
      "midi": 74,
      "hit": false,
      "t": 31497.983999999855,
      "d": 35.711999999999534,
      "v": 80
    },
    {
      "midi": 42,
      "hit": false,
      "t": 31497.984000000033,
      "d": 8.927999999999884,
      "v": 84
    },
    {
      "midi": 86,
      "hit": false,
      "t": 31605.119999999853,
      "d": 35.711999999999534,
      "v": 60
    },
    {
      "midi": 43,
      "hit": false,
      "t": 31605.119999999984,
      "d": 89.27999999999884,
      "v": 110
    },
    {
      "midi": 62,
      "hit": false,
      "t": 31712.255999999852,
      "d": 35.711999999999534,
      "v": 70
    },
    {
      "midi": 58,
      "hit": false,
      "t": 31712.255999999852,
      "d": 35.711999999999534,
      "v": 80
    },
    {
      "midi": 74,
      "hit": false,
      "t": 31712.255999999976,
      "d": 71.42399999999907,
      "v": 120
    },
    {
      "midi": 70,
      "hit": false,
      "t": 31712.255999999976,
      "d": 71.42399999999907,
      "v": 110
    },
    {
      "midi": 43,
      "hit": false,
      "t": 31712.255999999983,
      "d": 410.6879999999983,
      "v": 110
    },
    {
      "midi": 46,
      "hit": false,
      "t": 31712.256000000034,
      "d": 8.927999999999884,
      "v": 70
    },
    {
      "midi": 36,
      "hit": false,
      "t": 31712.256000000034,
      "d": 8.927999999999884,
      "v": 112
    },
    {
      "midi": 74,
      "hit": false,
      "t": 31819.39199999985,
      "d": 35.711999999999534,
      "v": 80
    },
    {
      "midi": 86,
      "hit": false,
      "t": 31926.52799999985,
      "d": 35.711999999999534,
      "v": 60
    },
    {
      "midi": 70,
      "hit": false,
      "t": 31926.527999999977,
      "d": 71.42399999999907,
      "v": 110
    },
    {
      "midi": 67,
      "hit": false,
      "t": 31926.527999999977,
      "d": 71.42399999999907,
      "v": 100
    },
    {
      "midi": 42,
      "hit": false,
      "t": 31926.528000000035,
      "d": 8.927999999999884,
      "v": 84
    },
    {
      "midi": 62,
      "hit": false,
      "t": 32033.663999999848,
      "d": 35.711999999999534,
      "v": 70
    },
    {
      "midi": 58,
      "hit": false,
      "t": 32033.663999999848,
      "d": 35.711999999999534,
      "v": 80
    },
    {
      "midi": 74,
      "hit": false,
      "t": 32140.799999999846,
      "d": 35.711999999999534,
      "v": 80
    },
    {
      "midi": 65,
      "hit": false,
      "t": 32140.799999999977,
      "d": 71.42399999999907,
      "v": 110
    },
    {
      "midi": 62,
      "hit": false,
      "t": 32140.799999999977,
      "d": 71.42399999999907,
      "v": 100
    },
    {
      "midi": 46,
      "hit": false,
      "t": 32140.79999999998,
      "d": 196.41600000000108,
      "v": 110
    },
    {
      "midi": 46,
      "hit": false,
      "t": 32140.800000000036,
      "d": 8.927999999999884,
      "v": 70
    },
    {
      "midi": 40,
      "hit": false,
      "t": 32140.800000000036,
      "d": 8.927999999999884,
      "v": 112
    },
    {
      "midi": 86,
      "hit": false,
      "t": 32247.935999999845,
      "d": 35.711999999999534,
      "v": 60
    },
    {
      "midi": 67,
      "hit": false,
      "t": 32247.935999999976,
      "d": 267.84000000000015,
      "v": 120
    },
    {
      "midi": 62,
      "hit": false,
      "t": 32247.935999999976,
      "d": 267.84000000000015,
      "v": 110
    },
    {
      "midi": 62,
      "hit": false,
      "t": 32355.071999999844,
      "d": 35.711999999999534,
      "v": 70
    },
    {
      "midi": 58,
      "hit": false,
      "t": 32355.071999999844,
      "d": 35.711999999999534,
      "v": 80
    },
    {
      "midi": 43,
      "hit": false,
      "t": 32355.071999999982,
      "d": 196.41600000000108,
      "v": 110
    },
    {
      "midi": 51,
      "hit": false,
      "t": 32355.072000000036,
      "d": 8.927999999999884,
      "v": 112
    },
    {
      "midi": 62,
      "hit": false,
      "t": 32462.207999999842,
      "d": 35.711999999999534,
      "v": 70
    },
    {
      "midi": 58,
      "hit": false,
      "t": 32462.207999999842,
      "d": 35.711999999999534,
      "v": 80
    },
    {
      "midi": 75,
      "hit": false,
      "t": 32569.34399999984,
      "d": 35.711999999999534,
      "v": 80
    },
    {
      "midi": 44,
      "hit": false,
      "t": 32569.343999999983,
      "d": 428.5440000000017,
      "v": 110
    },
    {
      "midi": 46,
      "hit": false,
      "t": 32569.344000000037,
      "d": 8.927999999999884,
      "v": 70
    },
    {
      "midi": 36,
      "hit": false,
      "t": 32569.344000000037,
      "d": 8.927999999999884,
      "v": 112
    },
    {
      "midi": 87,
      "hit": false,
      "t": 32676.47999999984,
      "d": 35.711999999999534,
      "v": 60
    },
    {
      "midi": 63,
      "hit": false,
      "t": 32783.61599999984,
      "d": 35.711999999999534,
      "v": 70
    },
    {
      "midi": 60,
      "hit": false,
      "t": 32783.61599999984,
      "d": 35.711999999999534,
      "v": 80
    },
    {
      "midi": 51,
      "hit": false,
      "t": 32783.61599999999,
      "d": 178.55999999999767,
      "v": 95
    },
    {
      "midi": 42,
      "hit": false,
      "t": 32783.61600000004,
      "d": 8.927999999999884,
      "v": 84
    },
    {
      "midi": 75,
      "hit": false,
      "t": 32890.75199999984,
      "d": 35.711999999999534,
      "v": 80
    },
    {
      "midi": 87,
      "hit": false,
      "t": 32997.88799999984,
      "d": 35.711999999999534,
      "v": 60
    },
    {
      "midi": 48,
      "hit": false,
      "t": 32997.887999999984,
      "d": 160.7039999999979,
      "v": 112
    },
    {
      "midi": 46,
      "hit": false,
      "t": 32997.888000000035,
      "d": 8.927999999999884,
      "v": 70
    },
    {
      "midi": 40,
      "hit": false,
      "t": 32997.888000000035,
      "d": 8.927999999999884,
      "v": 112
    },
    {
      "midi": 63,
      "hit": false,
      "t": 33105.02399999984,
      "d": 35.711999999999534,
      "v": 70
    },
    {
      "midi": 60,
      "hit": false,
      "t": 33105.02399999984,
      "d": 35.711999999999534,
      "v": 80
    },
    {
      "midi": 75,
      "hit": false,
      "t": 33212.159999999836,
      "d": 35.711999999999534,
      "v": 80
    },
    {
      "midi": 51,
      "hit": false,
      "t": 33212.15999999998,
      "d": 178.55999999999767,
      "v": 75
    },
    {
      "midi": 42,
      "hit": false,
      "t": 33212.16000000003,
      "d": 8.927999999999884,
      "v": 84
    },
    {
      "midi": 87,
      "hit": false,
      "t": 33319.295999999835,
      "d": 35.711999999999534,
      "v": 60
    },
    {
      "midi": 63,
      "hit": false,
      "t": 33426.43199999983,
      "d": 35.711999999999534,
      "v": 70
    },
    {
      "midi": 60,
      "hit": false,
      "t": 33426.43199999983,
      "d": 35.711999999999534,
      "v": 80
    },
    {
      "midi": 55,
      "hit": false,
      "t": 33426.43199999998,
      "d": 160.7039999999979,
      "v": 112
    },
    {
      "midi": 44,
      "hit": false,
      "t": 33426.431999999986,
      "d": 321.4080000000031,
      "v": 110
    },
    {
      "midi": 46,
      "hit": false,
      "t": 33426.43200000003,
      "d": 8.927999999999884,
      "v": 70
    },
    {
      "midi": 36,
      "hit": false,
      "t": 33426.43200000003,
      "d": 8.927999999999884,
      "v": 112
    },
    {
      "midi": 75,
      "hit": false,
      "t": 33533.56799999983,
      "d": 35.711999999999534,
      "v": 80
    },
    {
      "midi": 87,
      "hit": false,
      "t": 33640.70399999983,
      "d": 35.711999999999534,
      "v": 60
    },
    {
      "midi": 53,
      "hit": false,
      "t": 33640.703999999976,
      "d": 624.9599999999991,
      "v": 95
    },
    {
      "midi": 42,
      "hit": false,
      "t": 33640.70400000003,
      "d": 8.927999999999884,
      "v": 84
    },
    {
      "midi": 63,
      "hit": false,
      "t": 33747.83999999983,
      "d": 35.711999999999534,
      "v": 70
    },
    {
      "midi": 60,
      "hit": false,
      "t": 33747.83999999983,
      "d": 35.711999999999534,
      "v": 80
    },
    {
      "midi": 75,
      "hit": false,
      "t": 33854.97599999983,
      "d": 35.711999999999534,
      "v": 80
    },
    {
      "midi": 55,
      "hit": false,
      "t": 33854.97599999997,
      "d": 419.6160000000018,
      "v": 80
    },
    {
      "midi": 44,
      "hit": false,
      "t": 33854.97599999999,
      "d": 321.4080000000031,
      "v": 110
    },
    {
      "midi": 46,
      "hit": false,
      "t": 33854.976000000024,
      "d": 8.927999999999884,
      "v": 70
    },
    {
      "midi": 40,
      "hit": false,
      "t": 33854.976000000024,
      "d": 8.927999999999884,
      "v": 112
    },
    {
      "midi": 87,
      "hit": false,
      "t": 33962.11199999983,
      "d": 35.711999999999534,
      "v": 60
    },
    {
      "midi": 63,
      "hit": false,
      "t": 34069.247999999825,
      "d": 35.711999999999534,
      "v": 70
    },
    {
      "midi": 60,
      "hit": false,
      "t": 34069.247999999825,
      "d": 35.711999999999534,
      "v": 80
    },
    {
      "midi": 77,
      "hit": false,
      "t": 34069.24799999998,
      "d": 71.42399999999907,
      "v": 100
    },
    {
      "midi": 72,
      "hit": false,
      "t": 34069.24799999998,
      "d": 71.42399999999907,
      "v": 80
    },
    {
      "midi": 42,
      "hit": false,
      "t": 34069.24800000002,
      "d": 8.927999999999884,
      "v": 84
    },
    {
      "midi": 63,
      "hit": false,
      "t": 34176.38399999982,
      "d": 35.711999999999534,
      "v": 70
    },
    {
      "midi": 60,
      "hit": false,
      "t": 34176.38399999982,
      "d": 35.711999999999534,
      "v": 80
    },
    {
      "midi": 75,
      "hit": false,
      "t": 34283.51999999982,
      "d": 35.711999999999534,
      "v": 80
    },
    {
      "midi": 53,
      "hit": false,
      "t": 34283.519999999975,
      "d": 1705.2479999999996,
      "v": 100
    },
    {
      "midi": 75,
      "hit": false,
      "t": 34283.519999999975,
      "d": 1714.1759999999995,
      "v": 70
    },
    {
      "midi": 63,
      "hit": false,
      "t": 34283.519999999975,
      "d": 1714.1759999999995,
      "v": 70
    },
    {
      "midi": 46,
      "hit": false,
      "t": 34283.51999999999,
      "d": 428.5440000000017,
      "v": 110
    },
    {
      "midi": 46,
      "hit": false,
      "t": 34283.52000000002,
      "d": 8.927999999999884,
      "v": 70
    },
    {
      "midi": 36,
      "hit": false,
      "t": 34283.52000000002,
      "d": 8.927999999999884,
      "v": 112
    },
    {
      "midi": 87,
      "hit": false,
      "t": 34390.65599999982,
      "d": 35.711999999999534,
      "v": 60
    },
    {
      "midi": 63,
      "hit": false,
      "t": 34497.79199999982,
      "d": 35.711999999999534,
      "v": 70
    },
    {
      "midi": 60,
      "hit": false,
      "t": 34497.79199999982,
      "d": 35.711999999999534,
      "v": 80
    },
    {
      "midi": 51,
      "hit": false,
      "t": 34497.79199999997,
      "d": 178.55999999999767,
      "v": 76
    },
    {
      "midi": 42,
      "hit": false,
      "t": 34497.792000000016,
      "d": 8.927999999999884,
      "v": 84
    },
    {
      "midi": 75,
      "hit": false,
      "t": 34604.92799999982,
      "d": 35.711999999999534,
      "v": 80
    },
    {
      "midi": 87,
      "hit": false,
      "t": 34712.06399999982,
      "d": 35.711999999999534,
      "v": 60
    },
    {
      "midi": 48,
      "hit": false,
      "t": 34712.06399999997,
      "d": 160.7039999999979,
      "v": 76
    },
    {
      "midi": 46,
      "hit": false,
      "t": 34712.06400000001,
      "d": 8.927999999999884,
      "v": 70
    },
    {
      "midi": 40,
      "hit": false,
      "t": 34712.06400000001,
      "d": 8.927999999999884,
      "v": 112
    },
    {
      "midi": 63,
      "hit": false,
      "t": 34819.199999999815,
      "d": 35.711999999999534,
      "v": 70
    },
    {
      "midi": 60,
      "hit": false,
      "t": 34819.199999999815,
      "d": 35.711999999999534,
      "v": 80
    },
    {
      "midi": 75,
      "hit": false,
      "t": 34926.335999999814,
      "d": 35.711999999999534,
      "v": 80
    },
    {
      "midi": 51,
      "hit": false,
      "t": 34926.33599999997,
      "d": 178.55999999999767,
      "v": 112
    },
    {
      "midi": 42,
      "hit": false,
      "t": 34926.33600000001,
      "d": 8.927999999999884,
      "v": 84
    },
    {
      "midi": 87,
      "hit": false,
      "t": 35033.47199999981,
      "d": 35.711999999999534,
      "v": 60
    },
    {
      "midi": 63,
      "hit": false,
      "t": 35140.60799999981,
      "d": 35.711999999999534,
      "v": 70
    },
    {
      "midi": 60,
      "hit": false,
      "t": 35140.60799999981,
      "d": 35.711999999999534,
      "v": 80
    },
    {
      "midi": 55,
      "hit": false,
      "t": 35140.607999999964,
      "d": 232.12799999999697,
      "v": 105
    },
    {
      "midi": 46,
      "hit": false,
      "t": 35140.60799999999,
      "d": 321.4080000000031,
      "v": 110
    },
    {
      "midi": 46,
      "hit": false,
      "t": 35140.60800000001,
      "d": 8.927999999999884,
      "v": 70
    },
    {
      "midi": 36,
      "hit": false,
      "t": 35140.60800000001,
      "d": 8.927999999999884,
      "v": 112
    },
    {
      "midi": 75,
      "hit": false,
      "t": 35247.74399999981,
      "d": 35.711999999999534,
      "v": 80
    },
    {
      "midi": 87,
      "hit": false,
      "t": 35354.87999999981,
      "d": 35.711999999999534,
      "v": 60
    },
    {
      "midi": 42,
      "hit": false,
      "t": 35354.880000000005,
      "d": 8.927999999999884,
      "v": 84
    },
    {
      "midi": 63,
      "hit": false,
      "t": 35462.01599999981,
      "d": 35.711999999999534,
      "v": 70
    },
    {
      "midi": 60,
      "hit": false,
      "t": 35462.01599999981,
      "d": 35.711999999999534,
      "v": 80
    },
    {
      "midi": 53,
      "hit": false,
      "t": 35462.01599999996,
      "d": 160.7039999999979,
      "v": 112
    },
    {
      "midi": 75,
      "hit": false,
      "t": 35569.151999999805,
      "d": 35.711999999999534,
      "v": 80
    },
    {
      "midi": 43,
      "hit": false,
      "t": 35569.151999999995,
      "d": 178.55999999999767,
      "v": 110
    },
    {
      "midi": 46,
      "hit": false,
      "t": 35569.152,
      "d": 8.927999999999884,
      "v": 70
    },
    {
      "midi": 40,
      "hit": false,
      "t": 35569.152,
      "d": 8.927999999999884,
      "v": 112
    },
    {
      "midi": 87,
      "hit": false,
      "t": 35676.287999999804,
      "d": 35.711999999999534,
      "v": 60
    },
    {
      "midi": 51,
      "hit": false,
      "t": 35676.28799999996,
      "d": 160.7039999999979,
      "v": 95
    },
    {
      "midi": 63,
      "hit": false,
      "t": 35783.4239999998,
      "d": 35.711999999999534,
      "v": 70
    },
    {
      "midi": 60,
      "hit": false,
      "t": 35783.4239999998,
      "d": 35.711999999999534,
      "v": 80
    },
    {
      "midi": 46,
      "hit": false,
      "t": 35783.42399999999,
      "d": 178.55999999999767,
      "v": 110
    },
    {
      "midi": 42,
      "hit": false,
      "t": 35783.424,
      "d": 8.927999999999884,
      "v": 84
    },
    {
      "midi": 63,
      "hit": false,
      "t": 35890.5599999998,
      "d": 35.711999999999534,
      "v": 70
    },
    {
      "midi": 60,
      "hit": false,
      "t": 35890.5599999998,
      "d": 35.711999999999534,
      "v": 80
    },
    {
      "midi": 75,
      "hit": false,
      "t": 35997.6959999998,
      "d": 35.711999999999534,
      "v": 80
    },
    {
      "midi": 50,
      "hit": false,
      "t": 35997.69599999995,
      "d": 160.7039999999979,
      "v": 85
    },
    {
      "midi": 67,
      "hit": false,
      "t": 35997.695999999974,
      "d": 1705.2479999999996,
      "v": 100
    },
    {
      "midi": 62,
      "hit": false,
      "t": 35997.695999999974,
      "d": 1705.2479999999996,
      "v": 100
    },
    {
      "midi": 48,
      "hit": false,
      "t": 35997.69599999999,
      "d": 428.5440000000017,
      "v": 110
    },
    {
      "midi": 46,
      "hit": false,
      "t": 35997.695999999996,
      "d": 8.927999999999884,
      "v": 70
    },
    {
      "midi": 36,
      "hit": false,
      "t": 35997.695999999996,
      "d": 8.927999999999884,
      "v": 112
    },
    {
      "midi": 87,
      "hit": false,
      "t": 36104.8319999998,
      "d": 35.711999999999534,
      "v": 60
    },
    {
      "midi": 63,
      "hit": false,
      "t": 36211.9679999998,
      "d": 35.711999999999534,
      "v": 70
    },
    {
      "midi": 60,
      "hit": false,
      "t": 36211.9679999998,
      "d": 35.711999999999534,
      "v": 80
    },
    {
      "midi": 48,
      "hit": false,
      "t": 36211.96799999995,
      "d": 1428.479999999996,
      "v": 100
    },
    {
      "midi": 86,
      "hit": false,
      "t": 36211.96799999997,
      "d": 1285.6319999999832,
      "v": 100
    },
    {
      "midi": 42,
      "hit": false,
      "t": 36211.96799999999,
      "d": 8.927999999999884,
      "v": 84
    },
    {
      "midi": 75,
      "hit": false,
      "t": 36319.103999999796,
      "d": 35.711999999999534,
      "v": 80
    },
    {
      "midi": 87,
      "hit": false,
      "t": 36426.239999999794,
      "d": 35.711999999999534,
      "v": 60
    },
    {
      "midi": 46,
      "hit": false,
      "t": 36426.23999999999,
      "d": 8.927999999999884,
      "v": 70
    },
    {
      "midi": 40,
      "hit": false,
      "t": 36426.23999999999,
      "d": 8.927999999999884,
      "v": 112
    },
    {
      "midi": 63,
      "hit": false,
      "t": 36533.37599999979,
      "d": 35.711999999999534,
      "v": 70
    },
    {
      "midi": 60,
      "hit": false,
      "t": 36533.37599999979,
      "d": 35.711999999999534,
      "v": 80
    },
    {
      "midi": 75,
      "hit": false,
      "t": 36640.51199999979,
      "d": 35.711999999999534,
      "v": 80
    },
    {
      "midi": 42,
      "hit": false,
      "t": 36640.51199999999,
      "d": 8.927999999999884,
      "v": 84
    },
    {
      "midi": 87,
      "hit": false,
      "t": 36747.64799999979,
      "d": 35.711999999999534,
      "v": 60
    },
    {
      "midi": 63,
      "hit": false,
      "t": 36854.78399999979,
      "d": 35.711999999999534,
      "v": 70
    },
    {
      "midi": 60,
      "hit": false,
      "t": 36854.78399999979,
      "d": 35.711999999999534,
      "v": 80
    },
    {
      "midi": 46,
      "hit": false,
      "t": 36854.783999999985,
      "d": 8.927999999999884,
      "v": 70
    },
    {
      "midi": 36,
      "hit": false,
      "t": 36854.783999999985,
      "d": 8.927999999999884,
      "v": 112
    },
    {
      "midi": 48,
      "hit": false,
      "t": 36854.78399999999,
      "d": 535.6800000000003,
      "v": 110
    },
    {
      "midi": 75,
      "hit": false,
      "t": 36961.91999999979,
      "d": 35.711999999999534,
      "v": 80
    },
    {
      "midi": 87,
      "hit": false,
      "t": 37069.055999999786,
      "d": 35.711999999999534,
      "v": 60
    },
    {
      "midi": 42,
      "hit": false,
      "t": 37069.05599999998,
      "d": 8.927999999999884,
      "v": 84
    },
    {
      "midi": 63,
      "hit": false,
      "t": 37176.191999999784,
      "d": 35.711999999999534,
      "v": 70
    },
    {
      "midi": 60,
      "hit": false,
      "t": 37176.191999999784,
      "d": 35.711999999999534,
      "v": 80
    },
    {
      "midi": 75,
      "hit": false,
      "t": 37283.32799999978,
      "d": 35.711999999999534,
      "v": 80
    },
    {
      "midi": 46,
      "hit": false,
      "t": 37283.32799999998,
      "d": 8.927999999999884,
      "v": 70
    },
    {
      "midi": 40,
      "hit": false,
      "t": 37283.32799999998,
      "d": 8.927999999999884,
      "v": 112
    },
    {
      "midi": 87,
      "hit": false,
      "t": 37390.46399999978,
      "d": 35.711999999999534,
      "v": 60
    },
    {
      "midi": 63,
      "hit": false,
      "t": 37497.59999999978,
      "d": 35.711999999999534,
      "v": 70
    },
    {
      "midi": 60,
      "hit": false,
      "t": 37497.59999999978,
      "d": 35.711999999999534,
      "v": 80
    },
    {
      "midi": 86,
      "hit": false,
      "t": 37497.599999999955,
      "d": 107.1359999999986,
      "v": 90
    },
    {
      "midi": 42,
      "hit": false,
      "t": 37497.59999999998,
      "d": 8.927999999999884,
      "v": 84
    },
    {
      "midi": 48,
      "hit": false,
      "t": 37497.59999999999,
      "d": 178.55999999999767,
      "v": 110
    },
    {
      "midi": 63,
      "hit": false,
      "t": 37604.73599999978,
      "d": 35.711999999999534,
      "v": 70
    },
    {
      "midi": 60,
      "hit": false,
      "t": 37604.73599999978,
      "d": 35.711999999999534,
      "v": 80
    },
    {
      "midi": 82,
      "hit": false,
      "t": 37604.73599999995,
      "d": 107.1359999999986,
      "v": 80
    },
    {
      "midi": 79,
      "hit": false,
      "t": 37711.87199999995,
      "d": 71.42399999999907,
      "v": 100
    },
    {
      "midi": 36,
      "hit": false,
      "t": 37711.871999999974,
      "d": 8.927999999999884,
      "v": 112
    },
    {
      "midi": 43,
      "hit": false,
      "t": 37711.87199999999,
      "d": 107.1359999999986,
      "v": 110
    },
    {
      "midi": 40,
      "hit": false,
      "t": 37926.14399999997,
      "d": 8.927999999999884,
      "v": 84
    },
    {
      "midi": 82,
      "hit": false,
      "t": 37926.14399999998,
      "d": 71.42399999999907,
      "v": 110
    },
    {
      "midi": 70,
      "hit": false,
      "t": 37926.14399999998,
      "d": 71.42399999999907,
      "v": 120
    },
    {
      "midi": 65,
      "hit": false,
      "t": 37926.14399999998,
      "d": 71.42399999999907,
      "v": 100
    },
    {
      "midi": 43,
      "hit": false,
      "t": 37926.143999999986,
      "d": 107.1359999999986,
      "v": 110
    },
    {
      "midi": 40,
      "hit": false,
      "t": 38140.41599999997,
      "d": 8.927999999999884,
      "v": 84
    },
    {
      "midi": 46,
      "hit": false,
      "t": 38247.55199999997,
      "d": 8.927999999999884,
      "v": 126
    },
    {
      "midi": 82,
      "hit": false,
      "t": 38247.551999999974,
      "d": 71.42399999999907,
      "v": 90
    },
    {
      "midi": 70,
      "hit": false,
      "t": 38247.551999999974,
      "d": 71.42399999999907,
      "v": 110
    },
    {
      "midi": 65,
      "hit": false,
      "t": 38247.551999999974,
      "d": 71.42399999999907,
      "v": 90
    },
    {
      "midi": 43,
      "hit": false,
      "t": 38247.55199999998,
      "d": 107.1359999999986,
      "v": 110
    },
    {
      "midi": 44,
      "hit": false,
      "t": 38354.687999999966,
      "d": 8.927999999999884,
      "v": 126
    },
    {
      "midi": 57,
      "hit": false,
      "t": 38461.823999999964,
      "d": 8.927999999999884,
      "v": 84
    },
    {
      "midi": 40,
      "hit": false,
      "t": 38461.823999999964,
      "d": 8.927999999999884,
      "v": 84
    },
    {
      "midi": 70,
      "hit": false,
      "t": 38461.82399999997,
      "d": 624.9599999999991,
      "v": 127
    },
    {
      "midi": 65,
      "hit": false,
      "t": 38461.82399999997,
      "d": 624.9599999999991,
      "v": 110
    },
    {
      "midi": 82,
      "hit": false,
      "t": 38461.82399999997,
      "d": 714.239999999998,
      "v": 127
    },
    {
      "midi": 43,
      "hit": false,
      "t": 38461.82399999998,
      "d": 714.239999999998,
      "v": 110
    },
    {
      "midi": 45,
      "hit": false,
      "t": 38997.503999999964,
      "d": 8.927999999999884,
      "v": 84
    },
    {
      "midi": 75,
      "hit": false,
      "t": 39426.04799999978,
      "d": 35.711999999999534,
      "v": 80
    },
    {
      "midi": 84,
      "hit": false,
      "t": 39426.04799999995,
      "d": 1705.2479999999996,
      "v": 80
    },
    {
      "midi": 57,
      "hit": false,
      "t": 39426.047999999966,
      "d": 8.927999999999884,
      "v": 84
    },
    {
      "midi": 42,
      "hit": false,
      "t": 39426.047999999966,
      "d": 8.927999999999884,
      "v": 112
    },
    {
      "midi": 36,
      "hit": false,
      "t": 39426.047999999966,
      "d": 8.927999999999884,
      "v": 112
    },
    {
      "midi": 48,
      "hit": false,
      "t": 39426.04799999997,
      "d": 428.5440000000017,
      "v": 110
    },
    {
      "midi": 79,
      "hit": false,
      "t": 39426.04799999997,
      "d": 3428.3519999999917,
      "v": 80
    },
    {
      "midi": 87,
      "hit": false,
      "t": 39533.183999999776,
      "d": 35.711999999999534,
      "v": 60
    },
    {
      "midi": 63,
      "hit": false,
      "t": 39640.319999999774,
      "d": 35.711999999999534,
      "v": 70
    },
    {
      "midi": 60,
      "hit": false,
      "t": 39640.319999999774,
      "d": 35.711999999999534,
      "v": 80
    },
    {
      "midi": 46,
      "hit": false,
      "t": 39640.31999999996,
      "d": 8.927999999999884,
      "v": 112
    },
    {
      "midi": 75,
      "hit": false,
      "t": 39640.31999999998,
      "d": 26.78399999999965,
      "v": 127
    },
    {
      "midi": 67,
      "hit": false,
      "t": 39640.31999999998,
      "d": 26.78399999999965,
      "v": 127
    },
    {
      "midi": 75,
      "hit": false,
      "t": 39747.45599999977,
      "d": 35.711999999999534,
      "v": 80
    },
    {
      "midi": 72,
      "hit": false,
      "t": 39747.45599999998,
      "d": 35.711999999999534,
      "v": 100
    },
    {
      "midi": 67,
      "hit": false,
      "t": 39747.45599999998,
      "d": 35.711999999999534,
      "v": 100
    },
    {
      "midi": 87,
      "hit": false,
      "t": 39854.59199999977,
      "d": 35.711999999999534,
      "v": 60
    },
    {
      "midi": 42,
      "hit": false,
      "t": 39854.59199999996,
      "d": 8.927999999999884,
      "v": 112
    },
    {
      "midi": 40,
      "hit": false,
      "t": 39854.59199999996,
      "d": 8.927999999999884,
      "v": 112
    },
    {
      "midi": 63,
      "hit": false,
      "t": 39961.72799999977,
      "d": 35.711999999999534,
      "v": 70
    },
    {
      "midi": 60,
      "hit": false,
      "t": 39961.72799999977,
      "d": 35.711999999999534,
      "v": 80
    },
    {
      "midi": 75,
      "hit": false,
      "t": 39961.727999999974,
      "d": 26.78399999999965,
      "v": 127
    },
    {
      "midi": 67,
      "hit": false,
      "t": 39961.727999999974,
      "d": 26.78399999999965,
      "v": 127
    },
    {
      "midi": 75,
      "hit": false,
      "t": 40068.86399999977,
      "d": 35.711999999999534,
      "v": 80
    },
    {
      "midi": 46,
      "hit": false,
      "t": 40068.86399999996,
      "d": 8.927999999999884,
      "v": 112
    },
    {
      "midi": 72,
      "hit": false,
      "t": 40068.86399999997,
      "d": 35.711999999999534,
      "v": 100
    },
    {
      "midi": 67,
      "hit": false,
      "t": 40068.86399999997,
      "d": 35.711999999999534,
      "v": 100
    },
    {
      "midi": 87,
      "hit": false,
      "t": 40175.99999999977,
      "d": 35.711999999999534,
      "v": 60
    },
    {
      "midi": 63,
      "hit": false,
      "t": 40283.135999999766,
      "d": 35.711999999999534,
      "v": 70
    },
    {
      "midi": 60,
      "hit": false,
      "t": 40283.135999999766,
      "d": 35.711999999999534,
      "v": 80
    },
    {
      "midi": 42,
      "hit": false,
      "t": 40283.135999999955,
      "d": 8.927999999999884,
      "v": 112
    },
    {
      "midi": 36,
      "hit": false,
      "t": 40283.135999999955,
      "d": 8.927999999999884,
      "v": 112
    },
    {
      "midi": 75,
      "hit": false,
      "t": 40283.13599999997,
      "d": 26.78399999999965,
      "v": 127
    },
    {
      "midi": 67,
      "hit": false,
      "t": 40283.13599999997,
      "d": 26.78399999999965,
      "v": 127
    },
    {
      "midi": 48,
      "hit": false,
      "t": 40283.13599999998,
      "d": 428.5440000000017,
      "v": 110
    },
    {
      "midi": 75,
      "hit": false,
      "t": 40390.271999999764,
      "d": 35.711999999999534,
      "v": 80
    },
    {
      "midi": 72,
      "hit": false,
      "t": 40390.27199999997,
      "d": 35.711999999999534,
      "v": 100
    },
    {
      "midi": 67,
      "hit": false,
      "t": 40390.27199999997,
      "d": 35.711999999999534,
      "v": 100
    },
    {
      "midi": 87,
      "hit": false,
      "t": 40497.40799999976,
      "d": 35.711999999999534,
      "v": 60
    },
    {
      "midi": 46,
      "hit": false,
      "t": 40497.40799999995,
      "d": 8.927999999999884,
      "v": 112
    },
    {
      "midi": 63,
      "hit": false,
      "t": 40604.54399999976,
      "d": 35.711999999999534,
      "v": 70
    },
    {
      "midi": 60,
      "hit": false,
      "t": 40604.54399999976,
      "d": 35.711999999999534,
      "v": 80
    },
    {
      "midi": 75,
      "hit": false,
      "t": 40604.543999999965,
      "d": 26.78399999999965,
      "v": 127
    },
    {
      "midi": 67,
      "hit": false,
      "t": 40604.543999999965,
      "d": 26.78399999999965,
      "v": 127
    },
    {
      "midi": 75,
      "hit": false,
      "t": 40711.67999999976,
      "d": 35.711999999999534,
      "v": 80
    },
    {
      "midi": 42,
      "hit": false,
      "t": 40711.67999999995,
      "d": 8.927999999999884,
      "v": 112
    },
    {
      "midi": 40,
      "hit": false,
      "t": 40711.67999999995,
      "d": 8.927999999999884,
      "v": 112
    },
    {
      "midi": 72,
      "hit": false,
      "t": 40711.679999999964,
      "d": 35.711999999999534,
      "v": 100
    },
    {
      "midi": 67,
      "hit": false,
      "t": 40711.679999999964,
      "d": 35.711999999999534,
      "v": 100
    },
    {
      "midi": 48,
      "hit": false,
      "t": 40711.67999999998,
      "d": 89.27999999999884,
      "v": 110
    },
    {
      "midi": 87,
      "hit": false,
      "t": 40818.81599999976,
      "d": 35.711999999999534,
      "v": 60
    },
    {
      "midi": 51,
      "hit": false,
      "t": 40818.81599999998,
      "d": 89.27999999999884,
      "v": 110
    },
    {
      "midi": 63,
      "hit": false,
      "t": 40925.95199999976,
      "d": 35.711999999999534,
      "v": 70
    },
    {
      "midi": 60,
      "hit": false,
      "t": 40925.95199999976,
      "d": 35.711999999999534,
      "v": 80
    },
    {
      "midi": 46,
      "hit": false,
      "t": 40925.95199999995,
      "d": 8.927999999999884,
      "v": 112
    },
    {
      "midi": 75,
      "hit": false,
      "t": 40925.95199999996,
      "d": 26.78399999999965,
      "v": 97
    },
    {
      "midi": 67,
      "hit": false,
      "t": 40925.95199999996,
      "d": 26.78399999999965,
      "v": 97
    },
    {
      "midi": 48,
      "hit": false,
      "t": 40925.951999999976,
      "d": 178.55999999999767,
      "v": 110
    },
    {
      "midi": 63,
      "hit": false,
      "t": 41033.087999999756,
      "d": 35.711999999999534,
      "v": 70
    },
    {
      "midi": 60,
      "hit": false,
      "t": 41033.087999999756,
      "d": 35.711999999999534,
      "v": 80
    },
    {
      "midi": 42,
      "hit": false,
      "t": 41140.223999999944,
      "d": 8.927999999999884,
      "v": 112
    },
    {
      "midi": 36,
      "hit": false,
      "t": 41140.223999999944,
      "d": 8.927999999999884,
      "v": 112
    },
    {
      "midi": 69,
      "hit": false,
      "t": 41140.22399999996,
      "d": 1607.0400000000009,
      "v": 90
    },
    {
      "midi": 65,
      "hit": false,
      "t": 41140.22399999996,
      "d": 1607.0400000000009,
      "v": 50
    },
    {
      "midi": 41,
      "hit": false,
      "t": 41140.22399999997,
      "d": 428.5440000000017,
      "v": 110
    },
    {
      "midi": 46,
      "hit": false,
      "t": 41354.49599999994,
      "d": 8.927999999999884,
      "v": 112
    },
    {
      "midi": 42,
      "hit": false,
      "t": 41568.76799999994,
      "d": 8.927999999999884,
      "v": 112
    },
    {
      "midi": 40,
      "hit": false,
      "t": 41568.76799999994,
      "d": 8.927999999999884,
      "v": 112
    },
    {
      "midi": 46,
      "hit": false,
      "t": 41783.039999999935,
      "d": 8.927999999999884,
      "v": 112
    },
    {
      "midi": 42,
      "hit": false,
      "t": 41997.31199999993,
      "d": 8.927999999999884,
      "v": 112
    },
    {
      "midi": 36,
      "hit": false,
      "t": 41997.31199999993,
      "d": 8.927999999999884,
      "v": 112
    },
    {
      "midi": 74,
      "hit": false,
      "t": 41997.31199999997,
      "d": 71.42399999999907,
      "v": 110
    },
    {
      "midi": 62,
      "hit": false,
      "t": 41997.31199999997,
      "d": 71.42399999999907,
      "v": 90
    },
    {
      "midi": 41,
      "hit": false,
      "t": 41997.311999999976,
      "d": 196.41599999999744,
      "v": 110
    },
    {
      "midi": 75,
      "hit": false,
      "t": 42104.44799999997,
      "d": 71.42399999999907,
      "v": 120
    },
    {
      "midi": 63,
      "hit": false,
      "t": 42104.44799999997,
      "d": 71.42399999999907,
      "v": 100
    },
    {
      "midi": 46,
      "hit": false,
      "t": 42211.58399999993,
      "d": 8.927999999999884,
      "v": 112
    },
    {
      "midi": 74,
      "hit": false,
      "t": 42318.719999999965,
      "d": 71.42399999999907,
      "v": 110
    },
    {
      "midi": 62,
      "hit": false,
      "t": 42318.719999999965,
      "d": 71.42399999999907,
      "v": 90
    },
    {
      "midi": 42,
      "hit": false,
      "t": 42425.85599999993,
      "d": 8.927999999999884,
      "v": 112
    },
    {
      "midi": 40,
      "hit": false,
      "t": 42425.85599999993,
      "d": 8.927999999999884,
      "v": 112
    },
    {
      "midi": 41,
      "hit": false,
      "t": 42425.85599999997,
      "d": 196.41599999999744,
      "v": 110
    },
    {
      "midi": 70,
      "hit": false,
      "t": 42532.99199999996,
      "d": 71.42399999999907,
      "v": 110
    },
    {
      "midi": 58,
      "hit": false,
      "t": 42532.99199999996,
      "d": 71.42399999999907,
      "v": 90
    },
    {
      "midi": 46,
      "hit": false,
      "t": 42640.127999999924,
      "d": 8.927999999999884,
      "v": 112
    },
    {
      "midi": 67,
      "hit": false,
      "t": 42640.12799999996,
      "d": 71.42399999999907,
      "v": 100
    },
    {
      "midi": 55,
      "hit": false,
      "t": 42640.12799999996,
      "d": 71.42399999999907,
      "v": 80
    },
    {
      "midi": 75,
      "hit": false,
      "t": 42854.399999999754,
      "d": 35.711999999999534,
      "v": 80
    },
    {
      "midi": 42,
      "hit": false,
      "t": 42854.39999999992,
      "d": 8.927999999999884,
      "v": 112
    },
    {
      "midi": 36,
      "hit": false,
      "t": 42854.39999999992,
      "d": 8.927999999999884,
      "v": 112
    },
    {
      "midi": 84,
      "hit": false,
      "t": 42854.39999999995,
      "d": 1705.2479999999996,
      "v": 80
    },
    {
      "midi": 48,
      "hit": false,
      "t": 42854.399999999965,
      "d": 428.5440000000017,
      "v": 110
    },
    {
      "midi": 79,
      "hit": false,
      "t": 42863.327999999965,
      "d": 1428.479999999996,
      "v": 80
    },
    {
      "midi": 87,
      "hit": false,
      "t": 42961.53599999975,
      "d": 35.711999999999534,
      "v": 60
    },
    {
      "midi": 63,
      "hit": false,
      "t": 43068.67199999975,
      "d": 35.711999999999534,
      "v": 70
    },
    {
      "midi": 60,
      "hit": false,
      "t": 43068.67199999975,
      "d": 35.711999999999534,
      "v": 80
    },
    {
      "midi": 46,
      "hit": false,
      "t": 43068.67199999992,
      "d": 8.927999999999884,
      "v": 112
    },
    {
      "midi": 75,
      "hit": false,
      "t": 43068.67199999996,
      "d": 26.78399999999965,
      "v": 127
    },
    {
      "midi": 67,
      "hit": false,
      "t": 43068.67199999996,
      "d": 26.78399999999965,
      "v": 127
    },
    {
      "midi": 75,
      "hit": false,
      "t": 43175.80799999975,
      "d": 35.711999999999534,
      "v": 80
    },
    {
      "midi": 72,
      "hit": false,
      "t": 43175.80799999996,
      "d": 35.711999999999534,
      "v": 100
    },
    {
      "midi": 67,
      "hit": false,
      "t": 43175.80799999996,
      "d": 35.711999999999534,
      "v": 100
    },
    {
      "midi": 87,
      "hit": false,
      "t": 43282.94399999975,
      "d": 35.711999999999534,
      "v": 60
    },
    {
      "midi": 42,
      "hit": false,
      "t": 43282.943999999916,
      "d": 8.927999999999884,
      "v": 112
    },
    {
      "midi": 40,
      "hit": false,
      "t": 43282.943999999916,
      "d": 8.927999999999884,
      "v": 112
    },
    {
      "midi": 63,
      "hit": false,
      "t": 43390.07999999975,
      "d": 35.711999999999534,
      "v": 70
    },
    {
      "midi": 60,
      "hit": false,
      "t": 43390.07999999975,
      "d": 35.711999999999534,
      "v": 80
    },
    {
      "midi": 75,
      "hit": false,
      "t": 43390.07999999996,
      "d": 26.78399999999965,
      "v": 127
    },
    {
      "midi": 67,
      "hit": false,
      "t": 43390.07999999996,
      "d": 26.78399999999965,
      "v": 127
    },
    {
      "midi": 75,
      "hit": false,
      "t": 43497.215999999746,
      "d": 35.711999999999534,
      "v": 80
    },
    {
      "midi": 46,
      "hit": false,
      "t": 43497.21599999991,
      "d": 8.927999999999884,
      "v": 112
    },
    {
      "midi": 72,
      "hit": false,
      "t": 43497.21599999996,
      "d": 35.711999999999534,
      "v": 100
    },
    {
      "midi": 67,
      "hit": false,
      "t": 43497.21599999996,
      "d": 35.711999999999534,
      "v": 100
    },
    {
      "midi": 87,
      "hit": false,
      "t": 43604.351999999744,
      "d": 35.711999999999534,
      "v": 60
    },
    {
      "midi": 63,
      "hit": false,
      "t": 43711.48799999974,
      "d": 35.711999999999534,
      "v": 70
    },
    {
      "midi": 60,
      "hit": false,
      "t": 43711.48799999974,
      "d": 35.711999999999534,
      "v": 80
    },
    {
      "midi": 42,
      "hit": false,
      "t": 43711.48799999991,
      "d": 8.927999999999884,
      "v": 112
    },
    {
      "midi": 36,
      "hit": false,
      "t": 43711.48799999991,
      "d": 8.927999999999884,
      "v": 112
    },
    {
      "midi": 75,
      "hit": false,
      "t": 43711.487999999954,
      "d": 26.78399999999965,
      "v": 127
    },
    {
      "midi": 67,
      "hit": false,
      "t": 43711.487999999954,
      "d": 26.78399999999965,
      "v": 127
    },
    {
      "midi": 48,
      "hit": false,
      "t": 43711.48799999997,
      "d": 428.5440000000017,
      "v": 110
    },
    {
      "midi": 75,
      "hit": false,
      "t": 43818.62399999974,
      "d": 35.711999999999534,
      "v": 80
    },
    {
      "midi": 72,
      "hit": false,
      "t": 43818.62399999995,
      "d": 35.711999999999534,
      "v": 100
    },
    {
      "midi": 67,
      "hit": false,
      "t": 43818.62399999995,
      "d": 35.711999999999534,
      "v": 100
    },
    {
      "midi": 87,
      "hit": false,
      "t": 43925.75999999974,
      "d": 35.711999999999534,
      "v": 60
    },
    {
      "midi": 46,
      "hit": false,
      "t": 43925.75999999991,
      "d": 8.927999999999884,
      "v": 112
    },
    {
      "midi": 63,
      "hit": false,
      "t": 44032.89599999974,
      "d": 35.711999999999534,
      "v": 70
    },
    {
      "midi": 60,
      "hit": false,
      "t": 44032.89599999974,
      "d": 35.711999999999534,
      "v": 80
    },
    {
      "midi": 75,
      "hit": false,
      "t": 44032.89599999995,
      "d": 26.78399999999965,
      "v": 127
    },
    {
      "midi": 67,
      "hit": false,
      "t": 44032.89599999995,
      "d": 26.78399999999965,
      "v": 127
    },
    {
      "midi": 75,
      "hit": false,
      "t": 44140.03199999974,
      "d": 35.711999999999534,
      "v": 80
    },
    {
      "midi": 42,
      "hit": false,
      "t": 44140.031999999905,
      "d": 8.927999999999884,
      "v": 112
    },
    {
      "midi": 40,
      "hit": false,
      "t": 44140.031999999905,
      "d": 8.927999999999884,
      "v": 112
    },
    {
      "midi": 72,
      "hit": false,
      "t": 44140.03199999995,
      "d": 35.711999999999534,
      "v": 100
    },
    {
      "midi": 67,
      "hit": false,
      "t": 44140.03199999995,
      "d": 35.711999999999534,
      "v": 100
    },
    {
      "midi": 48,
      "hit": false,
      "t": 44140.03199999997,
      "d": 89.27999999999884,
      "v": 110
    },
    {
      "midi": 87,
      "hit": false,
      "t": 44247.167999999736,
      "d": 35.711999999999534,
      "v": 60
    },
    {
      "midi": 51,
      "hit": false,
      "t": 44247.16799999997,
      "d": 89.27999999999884,
      "v": 110
    },
    {
      "midi": 63,
      "hit": false,
      "t": 44354.303999999735,
      "d": 35.711999999999534,
      "v": 70
    },
    {
      "midi": 60,
      "hit": false,
      "t": 44354.303999999735,
      "d": 35.711999999999534,
      "v": 80
    },
    {
      "midi": 46,
      "hit": false,
      "t": 44354.3039999999,
      "d": 8.927999999999884,
      "v": 112
    },
    {
      "midi": 75,
      "hit": false,
      "t": 44354.303999999946,
      "d": 26.78399999999965,
      "v": 97
    },
    {
      "midi": 67,
      "hit": false,
      "t": 44354.303999999946,
      "d": 26.78399999999965,
      "v": 97
    },
    {
      "midi": 48,
      "hit": false,
      "t": 44354.30399999997,
      "d": 178.55999999999767,
      "v": 110
    },
    {
      "midi": 63,
      "hit": false,
      "t": 44461.43999999973,
      "d": 35.711999999999534,
      "v": 70
    },
    {
      "midi": 60,
      "hit": false,
      "t": 44461.43999999973,
      "d": 35.711999999999534,
      "v": 80
    },
    {
      "midi": 42,
      "hit": false,
      "t": 44568.5759999999,
      "d": 8.927999999999884,
      "v": 112
    },
    {
      "midi": 36,
      "hit": false,
      "t": 44568.5759999999,
      "d": 8.927999999999884,
      "v": 112
    },
    {
      "midi": 67,
      "hit": false,
      "t": 44568.57599999994,
      "d": 857.0880000000034,
      "v": 70
    },
    {
      "midi": 72,
      "hit": false,
      "t": 44568.57599999994,
      "d": 1785.6000000000058,
      "v": 90
    },
    {
      "midi": 84,
      "hit": false,
      "t": 44568.57599999995,
      "d": 53.5679999999993,
      "v": 127
    },
    {
      "midi": 96,
      "hit": false,
      "t": 44568.57599999995,
      "d": 53.5679999999993,
      "v": 97
    },
    {
      "midi": 48,
      "hit": false,
      "t": 44568.575999999965,
      "d": 848.1600000000035,
      "v": 110
    },
    {
      "midi": 84,
      "hit": false,
      "t": 44675.71199999995,
      "d": 53.5679999999993,
      "v": 117
    },
    {
      "midi": 96,
      "hit": false,
      "t": 44675.71199999995,
      "d": 53.5679999999993,
      "v": 87
    },
    {
      "midi": 46,
      "hit": false,
      "t": 44782.847999999896,
      "d": 8.927999999999884,
      "v": 112
    },
    {
      "midi": 84,
      "hit": false,
      "t": 44782.84799999995,
      "d": 53.5679999999993,
      "v": 117
    },
    {
      "midi": 96,
      "hit": false,
      "t": 44782.84799999995,
      "d": 53.5679999999993,
      "v": 87
    },
    {
      "midi": 84,
      "hit": false,
      "t": 44889.983999999946,
      "d": 53.5679999999993,
      "v": 117
    },
    {
      "midi": 96,
      "hit": false,
      "t": 44889.983999999946,
      "d": 53.5679999999993,
      "v": 87
    },
    {
      "midi": 42,
      "hit": false,
      "t": 44997.11999999989,
      "d": 8.927999999999884,
      "v": 112
    },
    {
      "midi": 40,
      "hit": false,
      "t": 44997.11999999989,
      "d": 8.927999999999884,
      "v": 112
    },
    {
      "midi": 87,
      "hit": false,
      "t": 44997.119999999944,
      "d": 53.5679999999993,
      "v": 127
    },
    {
      "midi": 99,
      "hit": false,
      "t": 44997.119999999944,
      "d": 53.5679999999993,
      "v": 97
    },
    {
      "midi": 84,
      "hit": false,
      "t": 45104.25599999994,
      "d": 53.5679999999993,
      "v": 117
    },
    {
      "midi": 96,
      "hit": false,
      "t": 45104.25599999994,
      "d": 53.5679999999993,
      "v": 87
    },
    {
      "midi": 46,
      "hit": false,
      "t": 45211.39199999989,
      "d": 8.927999999999884,
      "v": 112
    },
    {
      "midi": 84,
      "hit": false,
      "t": 45211.39199999994,
      "d": 53.5679999999993,
      "v": 117
    },
    {
      "midi": 96,
      "hit": false,
      "t": 45211.39199999994,
      "d": 53.5679999999993,
      "v": 87
    },
    {
      "midi": 84,
      "hit": false,
      "t": 45318.52799999994,
      "d": 53.5679999999993,
      "v": 117
    },
    {
      "midi": 96,
      "hit": false,
      "t": 45318.52799999994,
      "d": 53.5679999999993,
      "v": 87
    },
    {
      "midi": 42,
      "hit": false,
      "t": 45425.66399999989,
      "d": 8.927999999999884,
      "v": 112
    },
    {
      "midi": 36,
      "hit": false,
      "t": 45425.66399999989,
      "d": 8.927999999999884,
      "v": 112
    },
    {
      "midi": 89,
      "hit": false,
      "t": 45425.66399999994,
      "d": 53.5679999999993,
      "v": 127
    },
    {
      "midi": 101,
      "hit": false,
      "t": 45425.66399999994,
      "d": 53.5679999999993,
      "v": 97
    },
    {
      "midi": 69,
      "hit": false,
      "t": 45425.663999999946,
      "d": 857.0880000000034,
      "v": 70
    },
    {
      "midi": 53,
      "hit": false,
      "t": 45425.66399999997,
      "d": 848.1600000000035,
      "v": 110
    },
    {
      "midi": 84,
      "hit": false,
      "t": 45532.79999999994,
      "d": 53.5679999999993,
      "v": 117
    },
    {
      "midi": 96,
      "hit": false,
      "t": 45532.79999999994,
      "d": 53.5679999999993,
      "v": 87
    },
    {
      "midi": 46,
      "hit": false,
      "t": 45639.935999999885,
      "d": 8.927999999999884,
      "v": 112
    },
    {
      "midi": 84,
      "hit": false,
      "t": 45639.935999999936,
      "d": 53.5679999999993,
      "v": 117
    },
    {
      "midi": 96,
      "hit": false,
      "t": 45639.935999999936,
      "d": 53.5679999999993,
      "v": 87
    },
    {
      "midi": 84,
      "hit": false,
      "t": 45747.071999999935,
      "d": 53.5679999999993,
      "v": 117
    },
    {
      "midi": 96,
      "hit": false,
      "t": 45747.071999999935,
      "d": 53.5679999999993,
      "v": 87
    },
    {
      "midi": 42,
      "hit": false,
      "t": 45854.20799999988,
      "d": 8.927999999999884,
      "v": 112
    },
    {
      "midi": 40,
      "hit": false,
      "t": 45854.20799999988,
      "d": 8.927999999999884,
      "v": 112
    },
    {
      "midi": 87,
      "hit": false,
      "t": 45854.20799999993,
      "d": 53.5679999999993,
      "v": 127
    },
    {
      "midi": 99,
      "hit": false,
      "t": 45854.20799999993,
      "d": 53.5679999999993,
      "v": 97
    },
    {
      "midi": 86,
      "hit": false,
      "t": 45961.34399999993,
      "d": 53.5679999999993,
      "v": 117
    },
    {
      "midi": 98,
      "hit": false,
      "t": 45961.34399999993,
      "d": 53.5679999999993,
      "v": 87
    },
    {
      "midi": 46,
      "hit": false,
      "t": 46068.47999999988,
      "d": 8.927999999999884,
      "v": 112
    },
    {
      "midi": 84,
      "hit": false,
      "t": 46068.47999999993,
      "d": 53.5679999999993,
      "v": 117
    },
    {
      "midi": 96,
      "hit": false,
      "t": 46068.47999999993,
      "d": 53.5679999999993,
      "v": 87
    },
    {
      "midi": 82,
      "hit": false,
      "t": 46175.61599999993,
      "d": 53.5679999999993,
      "v": 117
    },
    {
      "midi": 94,
      "hit": false,
      "t": 46175.61599999993,
      "d": 53.5679999999993,
      "v": 87
    },
    {
      "midi": 42,
      "hit": false,
      "t": 46282.75199999988,
      "d": 8.927999999999884,
      "v": 98
    },
    {
      "midi": 40,
      "hit": false,
      "t": 46282.75199999988,
      "d": 8.927999999999884,
      "v": 84
    },
    {
      "midi": 84,
      "hit": false,
      "t": 46282.75199999993,
      "d": 71.42399999999907,
      "v": 127
    },
    {
      "midi": 96,
      "hit": false,
      "t": 46282.75199999993,
      "d": 71.42399999999907,
      "v": 97
    },
    {
      "midi": 67,
      "hit": false,
      "t": 46282.75199999995,
      "d": 71.42399999999907,
      "v": 70
    },
    {
      "midi": 48,
      "hit": false,
      "t": 46282.75199999997,
      "d": 71.42399999999907,
      "v": 110
    },
    {
      "midi": 42,
      "hit": false,
      "t": 46711.29599999988,
      "d": 8.927999999999884,
      "v": 84
    },
    {
      "midi": 42,
      "hit": false,
      "t": 47139.83999999988,
      "d": 8.927999999999884,
      "v": 98
    },
    {
      "midi": 40,
      "hit": false,
      "t": 47139.83999999988,
      "d": 8.927999999999884,
      "v": 98
    },
    {
      "midi": 60,
      "hit": false,
      "t": 47139.839999999946,
      "d": 160.7039999999979,
      "v": 100
    },
    {
      "midi": 36,
      "hit": false,
      "t": 47139.83999999996,
      "d": 178.55999999999767,
      "v": 90
    },
    {
      "midi": 38,
      "hit": false,
      "t": 47166.62399999996,
      "d": 178.55999999999767,
      "v": 90
    },
    {
      "midi": 40,
      "hit": false,
      "t": 47202.33599999996,
      "d": 178.55999999999767,
      "v": 90
    },
    {
      "midi": 41,
      "hit": false,
      "t": 47238.04799999996,
      "d": 178.55999999999767,
      "v": 90
    },
    {
      "midi": 43,
      "hit": false,
      "t": 47264.83199999996,
      "d": 178.55999999999767,
      "v": 90
    },
    {
      "midi": 45,
      "hit": false,
      "t": 47282.68799999996,
      "d": 178.55999999999767,
      "v": 90
    },
    {
      "midi": 47,
      "hit": false,
      "t": 47309.47199999996,
      "d": 178.55999999999767,
      "v": 90
    },
    {
      "midi": 48,
      "hit": false,
      "t": 47336.25599999996,
      "d": 178.55999999999767,
      "v": 90
    },
    {
      "midi": 60,
      "hit": false,
      "t": 47354.11199999994,
      "d": 160.7039999999979,
      "v": 100
    },
    {
      "midi": 50,
      "hit": false,
      "t": 47371.96799999996,
      "d": 178.55999999999767,
      "v": 90
    },
    {
      "midi": 52,
      "hit": false,
      "t": 47398.75199999996,
      "d": 178.55999999999767,
      "v": 90
    },
    {
      "midi": 53,
      "hit": false,
      "t": 47425.53599999996,
      "d": 178.55999999999767,
      "v": 90
    },
    {
      "midi": 55,
      "hit": false,
      "t": 47443.391999999956,
      "d": 178.55999999999767,
      "v": 90
    },
    {
      "midi": 57,
      "hit": false,
      "t": 47470.175999999956,
      "d": 178.55999999999767,
      "v": 90
    },
    {
      "midi": 59,
      "hit": false,
      "t": 47496.959999999955,
      "d": 178.55999999999767,
      "v": 90
    },
    {
      "midi": 60,
      "hit": false,
      "t": 47514.815999999955,
      "d": 178.55999999999767,
      "v": 90
    },
    {
      "midi": 62,
      "hit": false,
      "t": 47550.527999999955,
      "d": 178.55999999999767,
      "v": 90
    },
    {
      "midi": 42,
      "hit": false,
      "t": 47568.38399999988,
      "d": 8.927999999999884,
      "v": 84
    },
    {
      "midi": 40,
      "hit": false,
      "t": 47568.38399999988,
      "d": 8.927999999999884,
      "v": 84
    },
    {
      "midi": 63,
      "hit": false,
      "t": 47568.38399999994,
      "d": 160.7039999999979,
      "v": 127
    },
    {
      "midi": 64,
      "hit": false,
      "t": 47577.311999999954,
      "d": 178.55999999999767,
      "v": 90
    },
    {
      "midi": 65,
      "hit": false,
      "t": 47604.095999999954,
      "d": 178.55999999999767,
      "v": 90
    },
    {
      "midi": 67,
      "hit": false,
      "t": 47630.879999999954,
      "d": 178.55999999999767,
      "v": 90
    },
    {
      "midi": 69,
      "hit": false,
      "t": 47666.59199999995,
      "d": 178.55999999999767,
      "v": 90
    },
    {
      "midi": 40,
      "hit": false,
      "t": 47675.51999999988,
      "d": 8.927999999999884,
      "v": 84
    },
    {
      "midi": 71,
      "hit": false,
      "t": 47684.44799999995,
      "d": 178.55999999999767,
      "v": 90
    },
    {
      "midi": 72,
      "hit": false,
      "t": 47720.15999999995,
      "d": 178.55999999999767,
      "v": 90
    },
    {
      "midi": 74,
      "hit": false,
      "t": 47738.01599999995,
      "d": 178.55999999999767,
      "v": 90
    },
    {
      "midi": 76,
      "hit": false,
      "t": 47746.94399999995,
      "d": 160.7039999999979,
      "v": 90
    },
    {
      "midi": 77,
      "hit": false,
      "t": 47773.72799999995,
      "d": 142.84799999999814,
      "v": 90
    },
    {
      "midi": 45,
      "hit": false,
      "t": 47782.65599999988,
      "d": 8.927999999999884,
      "v": 84
    },
    {
      "midi": 60,
      "hit": false,
      "t": 47782.65599999994,
      "d": 160.7039999999979,
      "v": 100
    },
    {
      "midi": 79,
      "hit": false,
      "t": 47809.43999999995,
      "d": 124.99199999999837,
      "v": 90
    },
    {
      "midi": 81,
      "hit": false,
      "t": 47827.29599999995,
      "d": 107.1359999999986,
      "v": 90
    },
    {
      "midi": 83,
      "hit": false,
      "t": 47836.22399999995,
      "d": 89.27999999999884,
      "v": 90
    },
    {
      "midi": 84,
      "hit": false,
      "t": 47854.07999999995,
      "d": 71.42399999999907,
      "v": 90
    },
    {
      "midi": 86,
      "hit": false,
      "t": 47880.86399999995,
      "d": 62.495999999999185,
      "v": 90
    },
    {
      "midi": 88,
      "hit": false,
      "t": 47916.57599999995,
      "d": 35.711999999999534,
      "v": 90
    },
    {
      "midi": 89,
      "hit": false,
      "t": 47952.28799999995,
      "d": 17.855999999999767,
      "v": 90
    },
    {
      "midi": 91,
      "hit": false,
      "t": 47970.14399999995,
      "d": 8.927999999999884,
      "v": 90
    },
    {
      "midi": 42,
      "hit": false,
      "t": 47996.927999999876,
      "d": 8.927999999999884,
      "v": 84
    },
    {
      "midi": 36,
      "hit": false,
      "t": 47996.927999999876,
      "d": 8.927999999999884,
      "v": 84
    },
    {
      "midi": 84,
      "hit": false,
      "t": 47996.92799999993,
      "d": 1705.2479999999996,
      "v": 97
    },
    {
      "midi": 67,
      "hit": false,
      "t": 47996.927999999934,
      "d": 303.5520000000033,
      "v": 127
    },
    {
      "midi": 72,
      "hit": false,
      "t": 47996.927999999956,
      "d": 71.42399999999907,
      "v": 110
    },
    {
      "midi": 65,
      "hit": false,
      "t": 47996.927999999956,
      "d": 71.42399999999907,
      "v": 110
    },
    {
      "midi": 60,
      "hit": false,
      "t": 47996.927999999956,
      "d": 71.42399999999907,
      "v": 110
    },
    {
      "midi": 41,
      "hit": false,
      "t": 47996.92799999997,
      "d": 428.5440000000017,
      "v": 110
    },
    {
      "midi": 46,
      "hit": false,
      "t": 48211.19999999987,
      "d": 8.927999999999884,
      "v": 84
    },
    {
      "midi": 65,
      "hit": false,
      "t": 48318.33599999994,
      "d": 1249.9199999999983,
      "v": 120
    },
    {
      "midi": 72,
      "hit": false,
      "t": 48318.33599999995,
      "d": 71.42399999999907,
      "v": 110
    },
    {
      "midi": 65,
      "hit": false,
      "t": 48318.33599999995,
      "d": 71.42399999999907,
      "v": 110
    },
    {
      "midi": 60,
      "hit": false,
      "t": 48318.33599999995,
      "d": 71.42399999999907,
      "v": 110
    },
    {
      "midi": 44,
      "hit": false,
      "t": 48425.47199999987,
      "d": 8.927999999999884,
      "v": 84
    },
    {
      "midi": 45,
      "hit": false,
      "t": 48425.47199999987,
      "d": 8.927999999999884,
      "v": 56
    },
    {
      "midi": 40,
      "hit": false,
      "t": 48425.47199999987,
      "d": 8.927999999999884,
      "v": 84
    },
    {
      "midi": 46,
      "hit": false,
      "t": 48639.74399999987,
      "d": 8.927999999999884,
      "v": 84
    },
    {
      "midi": 70,
      "hit": false,
      "t": 48639.74399999995,
      "d": 303.5520000000033,
      "v": 120
    },
    {
      "midi": 65,
      "hit": false,
      "t": 48639.74399999995,
      "d": 303.5520000000033,
      "v": 110
    },
    {
      "midi": 72,
      "hit": false,
      "t": 48639.74399999995,
      "d": 71.42399999999907,
      "v": 110
    },
    {
      "midi": 65,
      "hit": false,
      "t": 48639.74399999995,
      "d": 71.42399999999907,
      "v": 110
    },
    {
      "midi": 60,
      "hit": false,
      "t": 48639.74399999995,
      "d": 71.42399999999907,
      "v": 110
    },
    {
      "midi": 42,
      "hit": false,
      "t": 48854.015999999865,
      "d": 8.927999999999884,
      "v": 84
    },
    {
      "midi": 36,
      "hit": false,
      "t": 48854.015999999865,
      "d": 8.927999999999884,
      "v": 84
    },
    {
      "midi": 41,
      "hit": false,
      "t": 48854.015999999974,
      "d": 357.1200000000026,
      "v": 110
    },
    {
      "midi": 46,
      "hit": false,
      "t": 49068.28799999986,
      "d": 8.927999999999884,
      "v": 84
    },
    {
      "midi": 72,
      "hit": false,
      "t": 49068.28799999995,
      "d": 107.1359999999986,
      "v": 80
    },
    {
      "midi": 67,
      "hit": false,
      "t": 49068.28799999995,
      "d": 107.1359999999986,
      "v": 70
    },
    {
      "midi": 44,
      "hit": false,
      "t": 49282.55999999986,
      "d": 8.927999999999884,
      "v": 84
    },
    {
      "midi": 45,
      "hit": false,
      "t": 49282.55999999986,
      "d": 8.927999999999884,
      "v": 56
    },
    {
      "midi": 40,
      "hit": false,
      "t": 49282.55999999986,
      "d": 8.927999999999884,
      "v": 84
    },
    {
      "midi": 75,
      "hit": false,
      "t": 49282.55999999995,
      "d": 107.1359999999986,
      "v": 120
    },
    {
      "midi": 68,
      "hit": false,
      "t": 49282.55999999995,
      "d": 107.1359999999986,
      "v": 110
    },
    {
      "midi": 43,
      "hit": false,
      "t": 49282.559999999976,
      "d": 178.55999999999767,
      "v": 110
    },
    {
      "midi": 46,
      "hit": false,
      "t": 49496.83199999986,
      "d": 8.927999999999884,
      "v": 84
    },
    {
      "midi": 72,
      "hit": false,
      "t": 49496.831999999944,
      "d": 107.1359999999986,
      "v": 80
    },
    {
      "midi": 67,
      "hit": false,
      "t": 49496.831999999944,
      "d": 107.1359999999986,
      "v": 70
    },
    {
      "midi": 44,
      "hit": false,
      "t": 49496.83199999997,
      "d": 178.55999999999767,
      "v": 110
    },
    {
      "midi": 42,
      "hit": false,
      "t": 49711.103999999854,
      "d": 8.927999999999884,
      "v": 84
    },
    {
      "midi": 36,
      "hit": false,
      "t": 49711.103999999854,
      "d": 8.927999999999884,
      "v": 84
    },
    {
      "midi": 89,
      "hit": false,
      "t": 49711.10399999993,
      "d": 1499.9039999999804,
      "v": 97
    },
    {
      "midi": 79,
      "hit": false,
      "t": 49711.10399999994,
      "d": 232.12799999999697,
      "v": 120
    },
    {
      "midi": 72,
      "hit": false,
      "t": 49711.10399999994,
      "d": 232.12799999999697,
      "v": 110
    },
    {
      "midi": 72,
      "hit": false,
      "t": 49711.10399999995,
      "d": 71.42399999999907,
      "v": 110
    },
    {
      "midi": 65,
      "hit": false,
      "t": 49711.10399999995,
      "d": 71.42399999999907,
      "v": 110
    },
    {
      "midi": 60,
      "hit": false,
      "t": 49711.10399999995,
      "d": 71.42399999999907,
      "v": 110
    },
    {
      "midi": 46,
      "hit": false,
      "t": 49711.10399999997,
      "d": 357.1200000000026,
      "v": 110
    },
    {
      "midi": 46,
      "hit": false,
      "t": 49925.37599999985,
      "d": 8.927999999999884,
      "v": 84
    },
    {
      "midi": 77,
      "hit": false,
      "t": 50032.51199999994,
      "d": 1071.3600000000006,
      "v": 90
    },
    {
      "midi": 72,
      "hit": false,
      "t": 50032.51199999994,
      "d": 1071.3600000000006,
      "v": 80
    },
    {
      "midi": 72,
      "hit": false,
      "t": 50032.511999999944,
      "d": 71.42399999999907,
      "v": 110
    },
    {
      "midi": 65,
      "hit": false,
      "t": 50032.511999999944,
      "d": 71.42399999999907,
      "v": 110
    },
    {
      "midi": 60,
      "hit": false,
      "t": 50032.511999999944,
      "d": 71.42399999999907,
      "v": 110
    },
    {
      "midi": 44,
      "hit": false,
      "t": 50139.64799999985,
      "d": 8.927999999999884,
      "v": 84
    },
    {
      "midi": 45,
      "hit": false,
      "t": 50139.64799999985,
      "d": 8.927999999999884,
      "v": 56
    },
    {
      "midi": 40,
      "hit": false,
      "t": 50139.64799999985,
      "d": 8.927999999999884,
      "v": 84
    },
    {
      "midi": 46,
      "hit": false,
      "t": 50139.64799999997,
      "d": 71.42399999999907,
      "v": 110
    },
    {
      "midi": 46,
      "hit": false,
      "t": 50246.78399999997,
      "d": 71.42399999999907,
      "v": 110
    },
    {
      "midi": 46,
      "hit": false,
      "t": 50353.919999999845,
      "d": 8.927999999999884,
      "v": 84
    },
    {
      "midi": 72,
      "hit": false,
      "t": 50353.91999999994,
      "d": 71.42399999999907,
      "v": 110
    },
    {
      "midi": 65,
      "hit": false,
      "t": 50353.91999999994,
      "d": 71.42399999999907,
      "v": 110
    },
    {
      "midi": 60,
      "hit": false,
      "t": 50353.91999999994,
      "d": 71.42399999999907,
      "v": 110
    },
    {
      "midi": 46,
      "hit": false,
      "t": 50353.91999999997,
      "d": 71.42399999999907,
      "v": 110
    },
    {
      "midi": 42,
      "hit": false,
      "t": 50568.19199999984,
      "d": 8.927999999999884,
      "v": 84
    },
    {
      "midi": 36,
      "hit": false,
      "t": 50568.19199999984,
      "d": 8.927999999999884,
      "v": 84
    },
    {
      "midi": 58,
      "hit": false,
      "t": 50568.19199999994,
      "d": 160.7039999999979,
      "v": 100
    },
    {
      "midi": 46,
      "hit": false,
      "t": 50568.191999999966,
      "d": 428.5440000000017,
      "v": 110
    },
    {
      "midi": 46,
      "hit": false,
      "t": 50782.46399999984,
      "d": 8.927999999999884,
      "v": 84
    },
    {
      "midi": 58,
      "hit": false,
      "t": 50782.463999999934,
      "d": 160.7039999999979,
      "v": 100
    },
    {
      "midi": 36,
      "hit": false,
      "t": 50889.59999999984,
      "d": 8.927999999999884,
      "v": 84
    },
    {
      "midi": 44,
      "hit": false,
      "t": 50996.73599999984,
      "d": 8.927999999999884,
      "v": 84
    },
    {
      "midi": 45,
      "hit": false,
      "t": 50996.73599999984,
      "d": 8.927999999999884,
      "v": 56
    },
    {
      "midi": 40,
      "hit": false,
      "t": 50996.73599999984,
      "d": 8.927999999999884,
      "v": 84
    },
    {
      "midi": 60,
      "hit": false,
      "t": 50996.73599999993,
      "d": 160.7039999999979,
      "v": 127
    },
    {
      "midi": 46,
      "hit": false,
      "t": 51211.007999999834,
      "d": 8.927999999999884,
      "v": 84
    },
    {
      "midi": 41,
      "hit": false,
      "t": 51211.007999999834,
      "d": 8.927999999999884,
      "v": 84
    },
    {
      "midi": 58,
      "hit": false,
      "t": 51211.00799999993,
      "d": 160.7039999999979,
      "v": 100
    },
    {
      "midi": 42,
      "hit": false,
      "t": 51425.27999999983,
      "d": 8.927999999999884,
      "v": 84
    },
    {
      "midi": 36,
      "hit": false,
      "t": 51425.27999999983,
      "d": 8.927999999999884,
      "v": 84
    },
    {
      "midi": 82,
      "hit": false,
      "t": 51425.279999999904,
      "d": 1705.2479999999996,
      "v": 97
    },
    {
      "midi": 65,
      "hit": false,
      "t": 51425.279999999926,
      "d": 303.5520000000033,
      "v": 127
    },
    {
      "midi": 70,
      "hit": false,
      "t": 51425.27999999994,
      "d": 71.42399999999907,
      "v": 110
    },
    {
      "midi": 63,
      "hit": false,
      "t": 51425.27999999994,
      "d": 71.42399999999907,
      "v": 110
    },
    {
      "midi": 58,
      "hit": false,
      "t": 51425.27999999994,
      "d": 71.42399999999907,
      "v": 110
    },
    {
      "midi": 43,
      "hit": false,
      "t": 51425.27999999997,
      "d": 428.5440000000017,
      "v": 110
    },
    {
      "midi": 46,
      "hit": false,
      "t": 51639.55199999983,
      "d": 8.927999999999884,
      "v": 84
    },
    {
      "midi": 67,
      "hit": false,
      "t": 51746.68799999993,
      "d": 1249.9199999999983,
      "v": 120
    },
    {
      "midi": 70,
      "hit": false,
      "t": 51746.68799999994,
      "d": 71.42399999999907,
      "v": 110
    },
    {
      "midi": 63,
      "hit": false,
      "t": 51746.68799999994,
      "d": 71.42399999999907,
      "v": 110
    },
    {
      "midi": 58,
      "hit": false,
      "t": 51746.68799999994,
      "d": 71.42399999999907,
      "v": 110
    },
    {
      "midi": 44,
      "hit": false,
      "t": 51853.823999999826,
      "d": 8.927999999999884,
      "v": 84
    },
    {
      "midi": 45,
      "hit": false,
      "t": 51853.823999999826,
      "d": 8.927999999999884,
      "v": 56
    },
    {
      "midi": 40,
      "hit": false,
      "t": 51853.823999999826,
      "d": 8.927999999999884,
      "v": 84
    },
    {
      "midi": 46,
      "hit": false,
      "t": 52068.09599999982,
      "d": 8.927999999999884,
      "v": 84
    },
    {
      "midi": 70,
      "hit": false,
      "t": 52068.09599999993,
      "d": 71.42399999999907,
      "v": 110
    },
    {
      "midi": 63,
      "hit": false,
      "t": 52068.09599999993,
      "d": 71.42399999999907,
      "v": 110
    },
    {
      "midi": 58,
      "hit": false,
      "t": 52068.09599999993,
      "d": 71.42399999999907,
      "v": 110
    },
    {
      "midi": 70,
      "hit": false,
      "t": 52068.09599999994,
      "d": 303.5520000000033,
      "v": 120
    },
    {
      "midi": 65,
      "hit": false,
      "t": 52068.09599999994,
      "d": 303.5520000000033,
      "v": 110
    },
    {
      "midi": 42,
      "hit": false,
      "t": 52282.36799999982,
      "d": 8.927999999999884,
      "v": 84
    },
    {
      "midi": 36,
      "hit": false,
      "t": 52282.36799999982,
      "d": 8.927999999999884,
      "v": 84
    },
    {
      "midi": 43,
      "hit": false,
      "t": 52282.36799999997,
      "d": 357.1200000000026,
      "v": 110
    },
    {
      "midi": 46,
      "hit": false,
      "t": 52496.63999999982,
      "d": 8.927999999999884,
      "v": 84
    },
    {
      "midi": 72,
      "hit": false,
      "t": 52496.63999999994,
      "d": 107.1359999999986,
      "v": 80
    },
    {
      "midi": 67,
      "hit": false,
      "t": 52496.63999999994,
      "d": 107.1359999999986,
      "v": 70
    },
    {
      "midi": 44,
      "hit": false,
      "t": 52710.911999999815,
      "d": 8.927999999999884,
      "v": 84
    },
    {
      "midi": 45,
      "hit": false,
      "t": 52710.911999999815,
      "d": 8.927999999999884,
      "v": 56
    },
    {
      "midi": 40,
      "hit": false,
      "t": 52710.911999999815,
      "d": 8.927999999999884,
      "v": 84
    },
    {
      "midi": 75,
      "hit": false,
      "t": 52710.91199999994,
      "d": 107.1359999999986,
      "v": 120
    },
    {
      "midi": 68,
      "hit": false,
      "t": 52710.91199999994,
      "d": 107.1359999999986,
      "v": 110
    },
    {
      "midi": 43,
      "hit": false,
      "t": 52710.911999999975,
      "d": 178.55999999999767,
      "v": 110
    },
    {
      "midi": 46,
      "hit": false,
      "t": 52925.18399999981,
      "d": 8.927999999999884,
      "v": 84
    },
    {
      "midi": 72,
      "hit": false,
      "t": 52925.183999999936,
      "d": 107.1359999999986,
      "v": 80
    },
    {
      "midi": 67,
      "hit": false,
      "t": 52925.183999999936,
      "d": 107.1359999999986,
      "v": 70
    },
    {
      "midi": 38,
      "hit": false,
      "t": 52925.18399999997,
      "d": 178.55999999999767,
      "v": 110
    },
    {
      "midi": 42,
      "hit": false,
      "t": 53139.45599999981,
      "d": 8.927999999999884,
      "v": 84
    },
    {
      "midi": 36,
      "hit": false,
      "t": 53139.45599999981,
      "d": 8.927999999999884,
      "v": 84
    },
    {
      "midi": 77,
      "hit": false,
      "t": 53139.45599999993,
      "d": 232.12799999999697,
      "v": 120
    },
    {
      "midi": 72,
      "hit": false,
      "t": 53139.45599999993,
      "d": 232.12799999999697,
      "v": 110
    },
    {
      "midi": 70,
      "hit": false,
      "t": 53139.45599999993,
      "d": 71.42399999999907,
      "v": 110
    },
    {
      "midi": 63,
      "hit": false,
      "t": 53139.45599999993,
      "d": 71.42399999999907,
      "v": 110
    },
    {
      "midi": 58,
      "hit": false,
      "t": 53139.45599999993,
      "d": 71.42399999999907,
      "v": 110
    },
    {
      "midi": 36,
      "hit": false,
      "t": 53139.45599999997,
      "d": 357.1200000000026,
      "v": 110
    },
    {
      "midi": 46,
      "hit": false,
      "t": 53353.727999999806,
      "d": 8.927999999999884,
      "v": 84
    },
    {
      "midi": 79,
      "hit": false,
      "t": 53460.86399999993,
      "d": 1071.3600000000006,
      "v": 90
    },
    {
      "midi": 72,
      "hit": false,
      "t": 53460.86399999993,
      "d": 1071.3600000000006,
      "v": 80
    },
    {
      "midi": 70,
      "hit": false,
      "t": 53460.86399999993,
      "d": 71.42399999999907,
      "v": 110
    },
    {
      "midi": 63,
      "hit": false,
      "t": 53460.86399999993,
      "d": 71.42399999999907,
      "v": 110
    },
    {
      "midi": 58,
      "hit": false,
      "t": 53460.86399999993,
      "d": 71.42399999999907,
      "v": 110
    },
    {
      "midi": 44,
      "hit": false,
      "t": 53567.9999999998,
      "d": 8.927999999999884,
      "v": 84
    },
    {
      "midi": 45,
      "hit": false,
      "t": 53567.9999999998,
      "d": 8.927999999999884,
      "v": 56
    },
    {
      "midi": 40,
      "hit": false,
      "t": 53567.9999999998,
      "d": 8.927999999999884,
      "v": 84
    },
    {
      "midi": 80,
      "hit": false,
      "t": 53567.999999999905,
      "d": 1160.6399999999921,
      "v": 97
    },
    {
      "midi": 36,
      "hit": false,
      "t": 53567.99999999997,
      "d": 71.42399999999907,
      "v": 110
    },
    {
      "midi": 36,
      "hit": false,
      "t": 53675.13599999997,
      "d": 71.42399999999907,
      "v": 110
    },
    {
      "midi": 46,
      "hit": false,
      "t": 53782.2719999998,
      "d": 8.927999999999884,
      "v": 84
    },
    {
      "midi": 70,
      "hit": false,
      "t": 53782.271999999924,
      "d": 71.42399999999907,
      "v": 110
    },
    {
      "midi": 63,
      "hit": false,
      "t": 53782.271999999924,
      "d": 71.42399999999907,
      "v": 110
    },
    {
      "midi": 58,
      "hit": false,
      "t": 53782.271999999924,
      "d": 71.42399999999907,
      "v": 110
    },
    {
      "midi": 36,
      "hit": false,
      "t": 53782.27199999997,
      "d": 71.42399999999907,
      "v": 110
    },
    {
      "midi": 42,
      "hit": false,
      "t": 53996.5439999998,
      "d": 8.927999999999884,
      "v": 84
    },
    {
      "midi": 36,
      "hit": false,
      "t": 53996.5439999998,
      "d": 8.927999999999884,
      "v": 84
    },
    {
      "midi": 60,
      "hit": false,
      "t": 53996.54399999993,
      "d": 160.7039999999979,
      "v": 100
    },
    {
      "midi": 36,
      "hit": false,
      "t": 53996.543999999965,
      "d": 428.5440000000017,
      "v": 110
    },
    {
      "midi": 46,
      "hit": false,
      "t": 54210.815999999795,
      "d": 8.927999999999884,
      "v": 84
    },
    {
      "midi": 60,
      "hit": false,
      "t": 54210.815999999926,
      "d": 160.7039999999979,
      "v": 100
    },
    {
      "midi": 36,
      "hit": false,
      "t": 54317.951999999794,
      "d": 8.927999999999884,
      "v": 84
    },
    {
      "midi": 44,
      "hit": false,
      "t": 54425.08799999979,
      "d": 8.927999999999884,
      "v": 84
    },
    {
      "midi": 45,
      "hit": false,
      "t": 54425.08799999979,
      "d": 8.927999999999884,
      "v": 56
    },
    {
      "midi": 40,
      "hit": false,
      "t": 54425.08799999979,
      "d": 8.927999999999884,
      "v": 84
    },
    {
      "midi": 63,
      "hit": false,
      "t": 54425.08799999992,
      "d": 160.7039999999979,
      "v": 127
    },
    {
      "midi": 46,
      "hit": false,
      "t": 54639.35999999979,
      "d": 8.927999999999884,
      "v": 84
    },
    {
      "midi": 41,
      "hit": false,
      "t": 54639.35999999979,
      "d": 8.927999999999884,
      "v": 84
    },
    {
      "midi": 60,
      "hit": false,
      "t": 54639.35999999992,
      "d": 160.7039999999979,
      "v": 100
    },
    {
      "midi": 42,
      "hit": false,
      "t": 54853.63199999979,
      "d": 8.927999999999884,
      "v": 84
    },
    {
      "midi": 36,
      "hit": false,
      "t": 54853.63199999979,
      "d": 8.927999999999884,
      "v": 84
    },
    {
      "midi": 84,
      "hit": false,
      "t": 54853.631999999896,
      "d": 1705.2479999999996,
      "v": 97
    },
    {
      "midi": 67,
      "hit": false,
      "t": 54853.63199999992,
      "d": 303.5520000000033,
      "v": 127
    },
    {
      "midi": 72,
      "hit": false,
      "t": 54853.631999999925,
      "d": 71.42399999999907,
      "v": 110
    },
    {
      "midi": 65,
      "hit": false,
      "t": 54853.631999999925,
      "d": 71.42399999999907,
      "v": 110
    },
    {
      "midi": 60,
      "hit": false,
      "t": 54853.631999999925,
      "d": 71.42399999999907,
      "v": 110
    },
    {
      "midi": 41,
      "hit": false,
      "t": 54853.63199999997,
      "d": 428.5440000000017,
      "v": 110
    },
    {
      "midi": 46,
      "hit": false,
      "t": 55067.903999999784,
      "d": 8.927999999999884,
      "v": 84
    },
    {
      "midi": 65,
      "hit": false,
      "t": 55175.03999999992,
      "d": 1249.9199999999983,
      "v": 120
    },
    {
      "midi": 72,
      "hit": false,
      "t": 55175.03999999992,
      "d": 71.42399999999907,
      "v": 110
    },
    {
      "midi": 65,
      "hit": false,
      "t": 55175.03999999992,
      "d": 71.42399999999907,
      "v": 110
    },
    {
      "midi": 60,
      "hit": false,
      "t": 55175.03999999992,
      "d": 71.42399999999907,
      "v": 110
    },
    {
      "midi": 44,
      "hit": false,
      "t": 55282.17599999978,
      "d": 8.927999999999884,
      "v": 84
    },
    {
      "midi": 45,
      "hit": false,
      "t": 55282.17599999978,
      "d": 8.927999999999884,
      "v": 56
    },
    {
      "midi": 40,
      "hit": false,
      "t": 55282.17599999978,
      "d": 8.927999999999884,
      "v": 84
    },
    {
      "midi": 46,
      "hit": false,
      "t": 55496.44799999978,
      "d": 8.927999999999884,
      "v": 84
    },
    {
      "midi": 72,
      "hit": false,
      "t": 55496.44799999992,
      "d": 71.42399999999907,
      "v": 110
    },
    {
      "midi": 65,
      "hit": false,
      "t": 55496.44799999992,
      "d": 71.42399999999907,
      "v": 110
    },
    {
      "midi": 60,
      "hit": false,
      "t": 55496.44799999992,
      "d": 71.42399999999907,
      "v": 110
    },
    {
      "midi": 70,
      "hit": false,
      "t": 55496.44799999993,
      "d": 303.5520000000033,
      "v": 120
    },
    {
      "midi": 65,
      "hit": false,
      "t": 55496.44799999993,
      "d": 303.5520000000033,
      "v": 110
    },
    {
      "midi": 42,
      "hit": false,
      "t": 55710.719999999776,
      "d": 8.927999999999884,
      "v": 84
    },
    {
      "midi": 36,
      "hit": false,
      "t": 55710.719999999776,
      "d": 8.927999999999884,
      "v": 84
    },
    {
      "midi": 41,
      "hit": false,
      "t": 55710.71999999997,
      "d": 357.1200000000026,
      "v": 110
    },
    {
      "midi": 46,
      "hit": false,
      "t": 55924.99199999977,
      "d": 8.927999999999884,
      "v": 84
    },
    {
      "midi": 72,
      "hit": false,
      "t": 55924.99199999993,
      "d": 107.1359999999986,
      "v": 80
    },
    {
      "midi": 67,
      "hit": false,
      "t": 55924.99199999993,
      "d": 107.1359999999986,
      "v": 70
    },
    {
      "midi": 44,
      "hit": false,
      "t": 56139.26399999977,
      "d": 8.927999999999884,
      "v": 84
    },
    {
      "midi": 45,
      "hit": false,
      "t": 56139.26399999977,
      "d": 8.927999999999884,
      "v": 56
    },
    {
      "midi": 40,
      "hit": false,
      "t": 56139.26399999977,
      "d": 8.927999999999884,
      "v": 84
    },
    {
      "midi": 75,
      "hit": false,
      "t": 56139.26399999993,
      "d": 107.1359999999986,
      "v": 120
    },
    {
      "midi": 68,
      "hit": false,
      "t": 56139.26399999993,
      "d": 107.1359999999986,
      "v": 110
    },
    {
      "midi": 43,
      "hit": false,
      "t": 56139.263999999974,
      "d": 178.55999999999767,
      "v": 110
    },
    {
      "midi": 46,
      "hit": false,
      "t": 56353.53599999977,
      "d": 8.927999999999884,
      "v": 84
    },
    {
      "midi": 72,
      "hit": false,
      "t": 56353.53599999993,
      "d": 107.1359999999986,
      "v": 80
    },
    {
      "midi": 67,
      "hit": false,
      "t": 56353.53599999993,
      "d": 107.1359999999986,
      "v": 70
    },
    {
      "midi": 41,
      "hit": false,
      "t": 56353.53599999997,
      "d": 178.55999999999767,
      "v": 110
    },
    {
      "midi": 42,
      "hit": false,
      "t": 56567.807999999764,
      "d": 8.927999999999884,
      "v": 84
    },
    {
      "midi": 36,
      "hit": false,
      "t": 56567.807999999764,
      "d": 8.927999999999884,
      "v": 84
    },
    {
      "midi": 86,
      "hit": false,
      "t": 56567.807999999895,
      "d": 1705.2479999999996,
      "v": 97
    },
    {
      "midi": 72,
      "hit": false,
      "t": 56567.80799999992,
      "d": 71.42399999999907,
      "v": 110
    },
    {
      "midi": 65,
      "hit": false,
      "t": 56567.80799999992,
      "d": 71.42399999999907,
      "v": 110
    },
    {
      "midi": 60,
      "hit": false,
      "t": 56567.80799999992,
      "d": 71.42399999999907,
      "v": 110
    },
    {
      "midi": 79,
      "hit": false,
      "t": 56567.807999999925,
      "d": 232.12799999999697,
      "v": 120
    },
    {
      "midi": 72,
      "hit": false,
      "t": 56567.807999999925,
      "d": 232.12799999999697,
      "v": 110
    },
    {
      "midi": 46,
      "hit": false,
      "t": 56567.80799999997,
      "d": 428.5440000000017,
      "v": 110
    },
    {
      "midi": 46,
      "hit": false,
      "t": 56782.07999999976,
      "d": 8.927999999999884,
      "v": 84
    },
    {
      "midi": 72,
      "hit": false,
      "t": 56889.21599999991,
      "d": 71.42399999999907,
      "v": 110
    },
    {
      "midi": 65,
      "hit": false,
      "t": 56889.21599999991,
      "d": 71.42399999999907,
      "v": 110
    },
    {
      "midi": 60,
      "hit": false,
      "t": 56889.21599999991,
      "d": 71.42399999999907,
      "v": 110
    },
    {
      "midi": 77,
      "hit": false,
      "t": 56889.21599999992,
      "d": 1071.3600000000006,
      "v": 90
    },
    {
      "midi": 72,
      "hit": false,
      "t": 56889.21599999992,
      "d": 1071.3600000000006,
      "v": 80
    },
    {
      "midi": 44,
      "hit": false,
      "t": 56996.35199999976,
      "d": 8.927999999999884,
      "v": 84
    },
    {
      "midi": 45,
      "hit": false,
      "t": 56996.35199999976,
      "d": 8.927999999999884,
      "v": 56
    },
    {
      "midi": 40,
      "hit": false,
      "t": 56996.35199999976,
      "d": 8.927999999999884,
      "v": 84
    },
    {
      "midi": 46,
      "hit": false,
      "t": 57210.623999999756,
      "d": 8.927999999999884,
      "v": 84
    },
    {
      "midi": 72,
      "hit": false,
      "t": 57210.62399999991,
      "d": 71.42399999999907,
      "v": 110
    },
    {
      "midi": 65,
      "hit": false,
      "t": 57210.62399999991,
      "d": 71.42399999999907,
      "v": 110
    },
    {
      "midi": 60,
      "hit": false,
      "t": 57210.62399999991,
      "d": 71.42399999999907,
      "v": 110
    },
    {
      "midi": 62,
      "hit": false,
      "t": 57210.623999999916,
      "d": 107.1359999999986,
      "v": 110
    },
    {
      "midi": 42,
      "hit": false,
      "t": 57424.89599999975,
      "d": 8.927999999999884,
      "v": 84
    },
    {
      "midi": 36,
      "hit": false,
      "t": 57424.89599999975,
      "d": 8.927999999999884,
      "v": 84
    },
    {
      "midi": 62,
      "hit": false,
      "t": 57424.89599999991,
      "d": 178.55999999999767,
      "v": 120
    },
    {
      "midi": 46,
      "hit": false,
      "t": 57424.89599999997,
      "d": 357.1200000000026,
      "v": 110
    },
    {
      "midi": 46,
      "hit": false,
      "t": 57639.16799999975,
      "d": 8.927999999999884,
      "v": 84
    },
    {
      "midi": 60,
      "hit": false,
      "t": 57639.16799999991,
      "d": 178.55999999999767,
      "v": 127
    },
    {
      "midi": 36,
      "hit": false,
      "t": 57746.30399999975,
      "d": 8.927999999999884,
      "v": 84
    },
    {
      "midi": 44,
      "hit": false,
      "t": 57853.43999999975,
      "d": 8.927999999999884,
      "v": 84
    },
    {
      "midi": 45,
      "hit": false,
      "t": 57853.43999999975,
      "d": 8.927999999999884,
      "v": 56
    },
    {
      "midi": 40,
      "hit": false,
      "t": 57853.43999999975,
      "d": 8.927999999999884,
      "v": 84
    },
    {
      "midi": 58,
      "hit": false,
      "t": 57853.43999999991,
      "d": 107.1359999999986,
      "v": 127
    },
    {
      "midi": 44,
      "hit": false,
      "t": 57853.43999999997,
      "d": 178.55999999999767,
      "v": 110
    },
    {
      "midi": 46,
      "hit": false,
      "t": 58067.711999999745,
      "d": 8.927999999999884,
      "v": 84
    },
    {
      "midi": 41,
      "hit": false,
      "t": 58067.711999999745,
      "d": 8.927999999999884,
      "v": 84
    },
    {
      "midi": 68,
      "hit": false,
      "t": 58067.711999999905,
      "d": 348.19200000000274,
      "v": 127
    },
    {
      "midi": 41,
      "hit": false,
      "t": 58067.71199999997,
      "d": 178.55999999999767,
      "v": 110
    },
    {
      "midi": 42,
      "hit": false,
      "t": 58281.98399999974,
      "d": 8.927999999999884,
      "v": 84
    },
    {
      "midi": 36,
      "hit": false,
      "t": 58281.98399999974,
      "d": 8.927999999999884,
      "v": 84
    },
    {
      "midi": 91,
      "hit": false,
      "t": 58281.983999999895,
      "d": 1249.9199999999983,
      "v": 97
    },
    {
      "midi": 43,
      "hit": false,
      "t": 58281.98399999997,
      "d": 428.5440000000017,
      "v": 110
    },
    {
      "midi": 46,
      "hit": false,
      "t": 58496.25599999974,
      "d": 8.927999999999884,
      "v": 84
    },
    {
      "midi": 67,
      "hit": false,
      "t": 58496.25599999991,
      "d": 714.239999999998,
      "v": 107
    },
    {
      "midi": 70,
      "hit": false,
      "t": 58496.25599999991,
      "d": 71.42399999999907,
      "v": 110
    },
    {
      "midi": 58,
      "hit": false,
      "t": 58496.25599999991,
      "d": 71.42399999999907,
      "v": 110
    },
    {
      "midi": 44,
      "hit": false,
      "t": 58710.52799999974,
      "d": 8.927999999999884,
      "v": 84
    },
    {
      "midi": 45,
      "hit": false,
      "t": 58710.52799999974,
      "d": 8.927999999999884,
      "v": 56
    },
    {
      "midi": 40,
      "hit": false,
      "t": 58710.52799999974,
      "d": 8.927999999999884,
      "v": 84
    },
    {
      "midi": 72,
      "hit": false,
      "t": 58710.527999999904,
      "d": 71.42399999999907,
      "v": 110
    },
    {
      "midi": 60,
      "hit": false,
      "t": 58710.527999999904,
      "d": 71.42399999999907,
      "v": 110
    },
    {
      "midi": 46,
      "hit": false,
      "t": 58924.799999999734,
      "d": 8.927999999999884,
      "v": 84
    },
    {
      "midi": 75,
      "hit": false,
      "t": 58924.7999999999,
      "d": 321.4080000000031,
      "v": 120
    },
    {
      "midi": 63,
      "hit": false,
      "t": 58924.7999999999,
      "d": 321.4080000000031,
      "v": 120
    },
    {
      "midi": 43,
      "hit": false,
      "t": 58924.79999999997,
      "d": 642.8159999999989,
      "v": 110
    },
    {
      "midi": 42,
      "hit": false,
      "t": 59139.07199999973,
      "d": 8.927999999999884,
      "v": 84
    },
    {
      "midi": 36,
      "hit": false,
      "t": 59139.07199999973,
      "d": 8.927999999999884,
      "v": 84
    },
    {
      "midi": 46,
      "hit": false,
      "t": 59353.34399999973,
      "d": 8.927999999999884,
      "v": 84
    },
    {
      "midi": 70,
      "hit": false,
      "t": 59353.3439999999,
      "d": 71.42399999999907,
      "v": 110
    },
    {
      "midi": 58,
      "hit": false,
      "t": 59353.3439999999,
      "d": 71.42399999999907,
      "v": 110
    },
    {
      "midi": 44,
      "hit": false,
      "t": 59567.615999999725,
      "d": 8.927999999999884,
      "v": 84
    },
    {
      "midi": 45,
      "hit": false,
      "t": 59567.615999999725,
      "d": 8.927999999999884,
      "v": 56
    },
    {
      "midi": 40,
      "hit": false,
      "t": 59567.615999999725,
      "d": 8.927999999999884,
      "v": 84
    },
    {
      "midi": 72,
      "hit": false,
      "t": 59567.6159999999,
      "d": 71.42399999999907,
      "v": 110
    },
    {
      "midi": 60,
      "hit": false,
      "t": 59567.6159999999,
      "d": 71.42399999999907,
      "v": 110
    },
    {
      "midi": 57,
      "hit": false,
      "t": 59781.88799999972,
      "d": 8.927999999999884,
      "v": 126
    },
    {
      "midi": 36,
      "hit": false,
      "t": 59781.88799999972,
      "d": 8.927999999999884,
      "v": 84
    },
    {
      "midi": 91,
      "hit": false,
      "t": 59781.88799999989,
      "d": 428.5440000000017,
      "v": 97
    },
    {
      "midi": 79,
      "hit": false,
      "t": 59781.8879999999,
      "d": 571.3919999999998,
      "v": 120
    },
    {
      "midi": 75,
      "hit": false,
      "t": 59781.8879999999,
      "d": 571.3919999999998,
      "v": 120
    },
    {
      "midi": 67,
      "hit": false,
      "t": 59781.8879999999,
      "d": 571.3919999999998,
      "v": 120
    },
    {
      "midi": 63,
      "hit": false,
      "t": 59781.8879999999,
      "d": 571.3919999999998,
      "v": 120
    },
    {
      "midi": 67,
      "hit": false,
      "t": 59781.887999999904,
      "d": 535.679999999993,
      "v": 107
    },
    {
      "midi": 43,
      "hit": false,
      "t": 59781.88799999996,
      "d": 928.5120000000024,
      "v": 110
    },
    {
      "midi": 36,
      "hit": false,
      "t": 60210.431999999724,
      "d": 8.927999999999884,
      "v": 112
    },
    {
      "midi": 40,
      "hit": false,
      "t": 60424.70399999972,
      "d": 8.927999999999884,
      "v": 112
    },
    {
      "midi": 40,
      "hit": false,
      "t": 60746.111999999725,
      "d": 8.927999999999884,
      "v": 84
    },
    {
      "midi": 40,
      "hit": false,
      "t": 60853.24799999972,
      "d": 8.927999999999884,
      "v": 112
    },
    {
      "midi": 79,
      "hit": false,
      "t": 60853.24799999992,
      "d": 714.239999999998,
      "v": 80
    },
    {
      "midi": 74,
      "hit": false,
      "t": 60853.24799999992,
      "d": 714.239999999998,
      "v": 70
    },
    {
      "midi": 82,
      "hit": false,
      "t": 60853.24799999992,
      "d": 803.5199999999968,
      "v": 80
    },
    {
      "midi": 77,
      "hit": false,
      "t": 60853.24799999992,
      "d": 803.5199999999968,
      "v": 70
    },
    {
      "midi": 43,
      "hit": false,
      "t": 60853.24799999996,
      "d": 107.1359999999986,
      "v": 110
    },
    {
      "midi": 40,
      "hit": false,
      "t": 61067.51999999972,
      "d": 8.927999999999884,
      "v": 112
    },
    {
      "midi": 41,
      "hit": false,
      "t": 61067.51999999996,
      "d": 107.1359999999986,
      "v": 110
    },
    {
      "midi": 40,
      "hit": false,
      "t": 61281.79199999972,
      "d": 8.927999999999884,
      "v": 112
    },
    {
      "midi": 39,
      "hit": false,
      "t": 61281.79199999996,
      "d": 107.1359999999986,
      "v": 110
    },
    {
      "midi": 51,
      "hit": false,
      "t": 61496.063999999715,
      "d": 8.927999999999884,
      "v": 126
    },
    {
      "midi": 38,
      "hit": false,
      "t": 61496.063999999955,
      "d": 107.1359999999986,
      "v": 110
    },
    {
      "midi": 57,
      "hit": false,
      "t": 61710.33599999971,
      "d": 8.927999999999884,
      "v": 84
    },
    {
      "midi": 36,
      "hit": false,
      "t": 61710.33599999971,
      "d": 8.927999999999884,
      "v": 112
    },
    {
      "midi": 63,
      "hit": false,
      "t": 61710.335999999734,
      "d": 35.711999999999534,
      "v": 70
    },
    {
      "midi": 60,
      "hit": false,
      "t": 61710.335999999734,
      "d": 35.711999999999534,
      "v": 80
    },
    {
      "midi": 63,
      "hit": false,
      "t": 61710.335999999894,
      "d": 357.1200000000026,
      "v": 90
    },
    {
      "midi": 48,
      "hit": false,
      "t": 61710.33599999995,
      "d": 428.5440000000017,
      "v": 110
    },
    {
      "midi": 75,
      "hit": false,
      "t": 61817.47199999973,
      "d": 35.711999999999534,
      "v": 80
    },
    {
      "midi": 42,
      "hit": false,
      "t": 61924.60799999971,
      "d": 8.927999999999884,
      "v": 84
    },
    {
      "midi": 87,
      "hit": false,
      "t": 61924.60799999973,
      "d": 35.711999999999534,
      "v": 60
    },
    {
      "midi": 75,
      "hit": false,
      "t": 62031.74399999973,
      "d": 35.711999999999534,
      "v": 80
    },
    {
      "midi": 46,
      "hit": false,
      "t": 62138.879999999706,
      "d": 8.927999999999884,
      "v": 70
    },
    {
      "midi": 40,
      "hit": false,
      "t": 62138.879999999706,
      "d": 8.927999999999884,
      "v": 112
    },
    {
      "midi": 87,
      "hit": false,
      "t": 62138.87999999973,
      "d": 35.711999999999534,
      "v": 60
    },
    {
      "midi": 62,
      "hit": false,
      "t": 62138.879999999896,
      "d": 142.84799999999814,
      "v": 117
    },
    {
      "midi": 75,
      "hit": false,
      "t": 62246.01599999973,
      "d": 35.711999999999534,
      "v": 80
    },
    {
      "midi": 42,
      "hit": false,
      "t": 62353.1519999997,
      "d": 8.927999999999884,
      "v": 84
    },
    {
      "midi": 63,
      "hit": false,
      "t": 62353.151999999725,
      "d": 35.711999999999534,
      "v": 70
    },
    {
      "midi": 60,
      "hit": false,
      "t": 62353.151999999725,
      "d": 35.711999999999534,
      "v": 80
    },
    {
      "midi": 60,
      "hit": false,
      "t": 62353.15199999989,
      "d": 357.11999999999534,
      "v": 90
    },
    {
      "midi": 87,
      "hit": false,
      "t": 62460.287999999724,
      "d": 35.711999999999534,
      "v": 80
    },
    {
      "midi": 48,
      "hit": false,
      "t": 62460.28799999996,
      "d": 89.27999999999884,
      "v": 110
    },
    {
      "midi": 46,
      "hit": false,
      "t": 62567.4239999997,
      "d": 8.927999999999884,
      "v": 70
    },
    {
      "midi": 36,
      "hit": false,
      "t": 62567.4239999997,
      "d": 8.927999999999884,
      "v": 112
    },
    {
      "midi": 63,
      "hit": false,
      "t": 62567.42399999972,
      "d": 35.711999999999534,
      "v": 70
    },
    {
      "midi": 60,
      "hit": false,
      "t": 62567.42399999972,
      "d": 35.711999999999534,
      "v": 80
    },
    {
      "midi": 48,
      "hit": false,
      "t": 62567.423999999955,
      "d": 624.9599999999991,
      "v": 110
    },
    {
      "midi": 75,
      "hit": false,
      "t": 62674.55999999972,
      "d": 35.711999999999534,
      "v": 80
    },
    {
      "midi": 42,
      "hit": false,
      "t": 62781.6959999997,
      "d": 8.927999999999884,
      "v": 84
    },
    {
      "midi": 87,
      "hit": false,
      "t": 62781.69599999972,
      "d": 35.711999999999534,
      "v": 60
    },
    {
      "midi": 67,
      "hit": false,
      "t": 62781.695999999894,
      "d": 71.42399999999907,
      "v": 110
    },
    {
      "midi": 55,
      "hit": false,
      "t": 62781.695999999894,
      "d": 71.42399999999907,
      "v": 100
    },
    {
      "midi": 75,
      "hit": false,
      "t": 62888.83199999972,
      "d": 35.711999999999534,
      "v": 80
    },
    {
      "midi": 46,
      "hit": false,
      "t": 62995.967999999695,
      "d": 8.927999999999884,
      "v": 70
    },
    {
      "midi": 40,
      "hit": false,
      "t": 62995.967999999695,
      "d": 8.927999999999884,
      "v": 112
    },
    {
      "midi": 87,
      "hit": false,
      "t": 62995.96799999972,
      "d": 35.711999999999534,
      "v": 60
    },
    {
      "midi": 70,
      "hit": false,
      "t": 62995.96799999989,
      "d": 71.42399999999907,
      "v": 110
    },
    {
      "midi": 58,
      "hit": false,
      "t": 62995.96799999989,
      "d": 71.42399999999907,
      "v": 100
    },
    {
      "midi": 75,
      "hit": false,
      "t": 63103.103999999716,
      "d": 35.711999999999534,
      "v": 80
    },
    {
      "midi": 72,
      "hit": false,
      "t": 63103.10399999989,
      "d": 71.42399999999907,
      "v": 110
    },
    {
      "midi": 60,
      "hit": false,
      "t": 63103.10399999989,
      "d": 71.42399999999907,
      "v": 110
    },
    {
      "midi": 42,
      "hit": false,
      "t": 63210.23999999969,
      "d": 8.927999999999884,
      "v": 84
    },
    {
      "midi": 63,
      "hit": false,
      "t": 63210.239999999714,
      "d": 35.711999999999534,
      "v": 70
    },
    {
      "midi": 60,
      "hit": false,
      "t": 63210.239999999714,
      "d": 35.711999999999534,
      "v": 80
    },
    {
      "midi": 43,
      "hit": false,
      "t": 63210.239999999954,
      "d": 196.41599999999744,
      "v": 110
    },
    {
      "midi": 63,
      "hit": false,
      "t": 63317.37599999971,
      "d": 35.711999999999534,
      "v": 70
    },
    {
      "midi": 60,
      "hit": false,
      "t": 63317.37599999971,
      "d": 35.711999999999534,
      "v": 80
    },
    {
      "midi": 46,
      "hit": false,
      "t": 63424.51199999969,
      "d": 8.927999999999884,
      "v": 70
    },
    {
      "midi": 36,
      "hit": false,
      "t": 63424.51199999969,
      "d": 8.927999999999884,
      "v": 112
    },
    {
      "midi": 75,
      "hit": false,
      "t": 63424.51199999971,
      "d": 35.711999999999534,
      "v": 80
    },
    {
      "midi": 48,
      "hit": false,
      "t": 63424.51199999995,
      "d": 428.5440000000017,
      "v": 110
    },
    {
      "midi": 87,
      "hit": false,
      "t": 63531.64799999971,
      "d": 35.711999999999534,
      "v": 60
    },
    {
      "midi": 42,
      "hit": false,
      "t": 63638.78399999969,
      "d": 8.927999999999884,
      "v": 84
    },
    {
      "midi": 63,
      "hit": false,
      "t": 63638.78399999971,
      "d": 35.711999999999534,
      "v": 70
    },
    {
      "midi": 60,
      "hit": false,
      "t": 63638.78399999971,
      "d": 35.711999999999534,
      "v": 80
    },
    {
      "midi": 75,
      "hit": false,
      "t": 63745.91999999971,
      "d": 35.711999999999534,
      "v": 80
    },
    {
      "midi": 46,
      "hit": false,
      "t": 63853.055999999684,
      "d": 8.927999999999884,
      "v": 70
    },
    {
      "midi": 40,
      "hit": false,
      "t": 63853.055999999684,
      "d": 8.927999999999884,
      "v": 112
    },
    {
      "midi": 87,
      "hit": false,
      "t": 63853.055999999706,
      "d": 35.711999999999534,
      "v": 60
    },
    {
      "midi": 58,
      "hit": false,
      "t": 63853.05599999989,
      "d": 142.84799999999814,
      "v": 127
    },
    {
      "midi": 63,
      "hit": false,
      "t": 63960.191999999704,
      "d": 35.711999999999534,
      "v": 70
    },
    {
      "midi": 60,
      "hit": false,
      "t": 63960.191999999704,
      "d": 35.711999999999534,
      "v": 80
    },
    {
      "midi": 42,
      "hit": false,
      "t": 64067.32799999968,
      "d": 8.927999999999884,
      "v": 84
    },
    {
      "midi": 75,
      "hit": false,
      "t": 64067.3279999997,
      "d": 35.711999999999534,
      "v": 80
    },
    {
      "midi": 60,
      "hit": false,
      "t": 64067.327999999885,
      "d": 142.84799999999814,
      "v": 127
    },
    {
      "midi": 87,
      "hit": false,
      "t": 64174.4639999997,
      "d": 35.711999999999534,
      "v": 60
    },
    {
      "midi": 48,
      "hit": false,
      "t": 64174.463999999956,
      "d": 89.27999999999884,
      "v": 110
    },
    {
      "midi": 46,
      "hit": false,
      "t": 64281.59999999968,
      "d": 8.927999999999884,
      "v": 70
    },
    {
      "midi": 36,
      "hit": false,
      "t": 64281.59999999968,
      "d": 8.927999999999884,
      "v": 112
    },
    {
      "midi": 63,
      "hit": false,
      "t": 64281.5999999997,
      "d": 35.711999999999534,
      "v": 70
    },
    {
      "midi": 60,
      "hit": false,
      "t": 64281.5999999997,
      "d": 35.711999999999534,
      "v": 80
    },
    {
      "midi": 63,
      "hit": false,
      "t": 64281.59999999988,
      "d": 142.84799999999814,
      "v": 110
    },
    {
      "midi": 48,
      "hit": false,
      "t": 64281.599999999955,
      "d": 410.6880000000019,
      "v": 110
    },
    {
      "midi": 75,
      "hit": false,
      "t": 64388.7359999997,
      "d": 35.711999999999534,
      "v": 80
    },
    {
      "midi": 42,
      "hit": false,
      "t": 64495.871999999676,
      "d": 8.927999999999884,
      "v": 84
    },
    {
      "midi": 87,
      "hit": false,
      "t": 64495.8719999997,
      "d": 35.711999999999534,
      "v": 60
    },
    {
      "midi": 62,
      "hit": false,
      "t": 64495.87199999988,
      "d": 160.7039999999979,
      "v": 110
    },
    {
      "midi": 63,
      "hit": false,
      "t": 64603.007999999696,
      "d": 35.711999999999534,
      "v": 70
    },
    {
      "midi": 60,
      "hit": false,
      "t": 64603.007999999696,
      "d": 35.711999999999534,
      "v": 80
    },
    {
      "midi": 46,
      "hit": false,
      "t": 64710.14399999967,
      "d": 8.927999999999884,
      "v": 70
    },
    {
      "midi": 40,
      "hit": false,
      "t": 64710.14399999967,
      "d": 8.927999999999884,
      "v": 112
    },
    {
      "midi": 75,
      "hit": false,
      "t": 64710.143999999695,
      "d": 35.711999999999534,
      "v": 80
    },
    {
      "midi": 60,
      "hit": false,
      "t": 64710.14399999988,
      "d": 142.84799999999814,
      "v": 127
    },
    {
      "midi": 67,
      "hit": false,
      "t": 64710.14399999989,
      "d": 71.42399999999907,
      "v": 110
    },
    {
      "midi": 63,
      "hit": false,
      "t": 64710.14399999989,
      "d": 71.42399999999907,
      "v": 100
    },
    {
      "midi": 55,
      "hit": false,
      "t": 64710.14399999989,
      "d": 71.42399999999907,
      "v": 100
    },
    {
      "midi": 43,
      "hit": false,
      "t": 64710.14399999996,
      "d": 196.41599999999744,
      "v": 110
    },
    {
      "midi": 87,
      "hit": false,
      "t": 64817.27999999969,
      "d": 35.711999999999534,
      "v": 60
    },
    {
      "midi": 42,
      "hit": false,
      "t": 64924.41599999967,
      "d": 8.927999999999884,
      "v": 84
    },
    {
      "midi": 63,
      "hit": false,
      "t": 64924.41599999969,
      "d": 35.711999999999534,
      "v": 70
    },
    {
      "midi": 60,
      "hit": false,
      "t": 64924.41599999969,
      "d": 35.711999999999534,
      "v": 80
    },
    {
      "midi": 67,
      "hit": false,
      "t": 64924.415999999874,
      "d": 142.84799999999814,
      "v": 100
    },
    {
      "midi": 46,
      "hit": false,
      "t": 64924.415999999954,
      "d": 196.41599999999744,
      "v": 110
    },
    {
      "midi": 63,
      "hit": false,
      "t": 65031.55199999969,
      "d": 35.711999999999534,
      "v": 70
    },
    {
      "midi": 60,
      "hit": false,
      "t": 65031.55199999969,
      "d": 35.711999999999534,
      "v": 80
    },
    {
      "midi": 46,
      "hit": false,
      "t": 65138.68799999967,
      "d": 8.927999999999884,
      "v": 70
    },
    {
      "midi": 36,
      "hit": false,
      "t": 65138.68799999967,
      "d": 8.927999999999884,
      "v": 112
    },
    {
      "midi": 75,
      "hit": false,
      "t": 65138.68799999969,
      "d": 35.711999999999534,
      "v": 80
    },
    {
      "midi": 58,
      "hit": false,
      "t": 65138.68799999987,
      "d": 1696.3199999999997,
      "v": 127
    },
    {
      "midi": 48,
      "hit": false,
      "t": 65138.68799999995,
      "d": 428.5439999999944,
      "v": 110
    },
    {
      "midi": 87,
      "hit": false,
      "t": 65245.82399999969,
      "d": 35.711999999999534,
      "v": 60
    },
    {
      "midi": 42,
      "hit": false,
      "t": 65352.959999999664,
      "d": 8.927999999999884,
      "v": 84
    },
    {
      "midi": 63,
      "hit": false,
      "t": 65352.959999999686,
      "d": 35.711999999999534,
      "v": 70
    },
    {
      "midi": 60,
      "hit": false,
      "t": 65352.959999999686,
      "d": 35.711999999999534,
      "v": 80
    },
    {
      "midi": 75,
      "hit": false,
      "t": 65460.095999999685,
      "d": 35.711999999999534,
      "v": 80
    },
    {
      "midi": 46,
      "hit": false,
      "t": 65567.23199999967,
      "d": 8.927999999999884,
      "v": 70
    },
    {
      "midi": 40,
      "hit": false,
      "t": 65567.23199999967,
      "d": 8.927999999999884,
      "v": 112
    },
    {
      "midi": 87,
      "hit": false,
      "t": 65567.23199999968,
      "d": 35.711999999999534,
      "v": 60
    },
    {
      "midi": 63,
      "hit": false,
      "t": 65674.36799999968,
      "d": 35.711999999999534,
      "v": 70
    },
    {
      "midi": 60,
      "hit": false,
      "t": 65674.36799999968,
      "d": 35.711999999999534,
      "v": 80
    },
    {
      "midi": 42,
      "hit": false,
      "t": 65781.50399999967,
      "d": 8.927999999999884,
      "v": 84
    },
    {
      "midi": 75,
      "hit": false,
      "t": 65781.50399999968,
      "d": 35.711999999999534,
      "v": 80
    },
    {
      "midi": 87,
      "hit": false,
      "t": 65888.63999999968,
      "d": 35.711999999999534,
      "v": 60
    },
    {
      "midi": 48,
      "hit": false,
      "t": 65888.63999999994,
      "d": 89.27999999999884,
      "v": 110
    },
    {
      "midi": 46,
      "hit": false,
      "t": 65995.77599999966,
      "d": 8.927999999999884,
      "v": 70
    },
    {
      "midi": 36,
      "hit": false,
      "t": 65995.77599999966,
      "d": 8.927999999999884,
      "v": 112
    },
    {
      "midi": 63,
      "hit": false,
      "t": 65995.77599999968,
      "d": 35.711999999999534,
      "v": 70
    },
    {
      "midi": 60,
      "hit": false,
      "t": 65995.77599999968,
      "d": 35.711999999999534,
      "v": 80
    },
    {
      "midi": 72,
      "hit": false,
      "t": 65995.7759999999,
      "d": 71.42399999999907,
      "v": 80
    },
    {
      "midi": 70,
      "hit": false,
      "t": 65995.7759999999,
      "d": 71.42399999999907,
      "v": 110
    },
    {
      "midi": 58,
      "hit": false,
      "t": 65995.7759999999,
      "d": 71.42399999999907,
      "v": 100
    },
    {
      "midi": 55,
      "hit": false,
      "t": 65995.7759999999,
      "d": 71.42399999999907,
      "v": 100
    },
    {
      "midi": 48,
      "hit": false,
      "t": 65995.77599999994,
      "d": 624.9600000000064,
      "v": 110
    },
    {
      "midi": 75,
      "hit": false,
      "t": 66102.91199999968,
      "d": 35.711999999999534,
      "v": 80
    },
    {
      "midi": 42,
      "hit": false,
      "t": 66210.04799999966,
      "d": 8.927999999999884,
      "v": 84
    },
    {
      "midi": 87,
      "hit": false,
      "t": 66210.04799999968,
      "d": 35.711999999999534,
      "v": 60
    },
    {
      "midi": 72,
      "hit": false,
      "t": 66210.0479999999,
      "d": 71.42399999999907,
      "v": 110
    },
    {
      "midi": 70,
      "hit": false,
      "t": 66210.0479999999,
      "d": 71.42399999999907,
      "v": 80
    },
    {
      "midi": 60,
      "hit": false,
      "t": 66210.0479999999,
      "d": 71.42399999999907,
      "v": 100
    },
    {
      "midi": 55,
      "hit": false,
      "t": 66210.0479999999,
      "d": 71.42399999999907,
      "v": 100
    },
    {
      "midi": 63,
      "hit": false,
      "t": 66317.18399999967,
      "d": 35.711999999999534,
      "v": 70
    },
    {
      "midi": 60,
      "hit": false,
      "t": 66317.18399999967,
      "d": 35.711999999999534,
      "v": 80
    },
    {
      "midi": 46,
      "hit": false,
      "t": 66424.31999999966,
      "d": 8.927999999999884,
      "v": 70
    },
    {
      "midi": 40,
      "hit": false,
      "t": 66424.31999999966,
      "d": 8.927999999999884,
      "v": 112
    },
    {
      "midi": 75,
      "hit": false,
      "t": 66424.31999999967,
      "d": 35.711999999999534,
      "v": 80
    },
    {
      "midi": 75,
      "hit": false,
      "t": 66424.31999999989,
      "d": 178.55999999999767,
      "v": 110
    },
    {
      "midi": 63,
      "hit": false,
      "t": 66424.31999999989,
      "d": 178.55999999999767,
      "v": 100
    },
    {
      "midi": 58,
      "hit": false,
      "t": 66424.31999999989,
      "d": 178.55999999999767,
      "v": 100
    },
    {
      "midi": 87,
      "hit": false,
      "t": 66531.45599999967,
      "d": 35.711999999999534,
      "v": 60
    },
    {
      "midi": 42,
      "hit": false,
      "t": 66638.59199999965,
      "d": 8.927999999999884,
      "v": 84
    },
    {
      "midi": 63,
      "hit": false,
      "t": 66638.59199999967,
      "d": 35.711999999999534,
      "v": 70
    },
    {
      "midi": 60,
      "hit": false,
      "t": 66638.59199999967,
      "d": 35.711999999999534,
      "v": 80
    },
    {
      "midi": 72,
      "hit": false,
      "t": 66638.59199999989,
      "d": 71.42399999999907,
      "v": 80
    },
    {
      "midi": 70,
      "hit": false,
      "t": 66638.59199999989,
      "d": 71.42399999999907,
      "v": 110
    },
    {
      "midi": 58,
      "hit": false,
      "t": 66638.59199999989,
      "d": 71.42399999999907,
      "v": 100
    },
    {
      "midi": 55,
      "hit": false,
      "t": 66638.59199999989,
      "d": 71.42399999999907,
      "v": 100
    },
    {
      "midi": 43,
      "hit": false,
      "t": 66638.59199999995,
      "d": 196.41599999999744,
      "v": 110
    },
    {
      "midi": 63,
      "hit": false,
      "t": 66745.72799999967,
      "d": 35.711999999999534,
      "v": 70
    },
    {
      "midi": 60,
      "hit": false,
      "t": 66745.72799999967,
      "d": 35.711999999999534,
      "v": 80
    },
    {
      "midi": 72,
      "hit": false,
      "t": 66745.72799999989,
      "d": 71.42399999999907,
      "v": 110
    },
    {
      "midi": 70,
      "hit": false,
      "t": 66745.72799999989,
      "d": 71.42399999999907,
      "v": 80
    },
    {
      "midi": 60,
      "hit": false,
      "t": 66745.72799999989,
      "d": 71.42399999999907,
      "v": 100
    },
    {
      "midi": 55,
      "hit": false,
      "t": 66745.72799999989,
      "d": 71.42399999999907,
      "v": 100
    },
    {
      "midi": 46,
      "hit": false,
      "t": 66852.86399999965,
      "d": 8.927999999999884,
      "v": 70
    },
    {
      "midi": 36,
      "hit": false,
      "t": 66852.86399999965,
      "d": 8.927999999999884,
      "v": 112
    },
    {
      "midi": 75,
      "hit": false,
      "t": 66852.86399999967,
      "d": 35.711999999999534,
      "v": 80
    },
    {
      "midi": 48,
      "hit": false,
      "t": 66852.86399999994,
      "d": 428.5439999999944,
      "v": 110
    },
    {
      "midi": 70,
      "hit": false,
      "t": 66861.79199999991,
      "d": 410.68799999999464,
      "v": 90
    },
    {
      "midi": 65,
      "hit": false,
      "t": 66861.79199999991,
      "d": 410.68799999999464,
      "v": 70
    },
    {
      "midi": 87,
      "hit": false,
      "t": 66959.99999999967,
      "d": 35.711999999999534,
      "v": 60
    },
    {
      "midi": 42,
      "hit": false,
      "t": 67067.13599999965,
      "d": 8.927999999999884,
      "v": 84
    },
    {
      "midi": 63,
      "hit": false,
      "t": 67067.13599999966,
      "d": 35.711999999999534,
      "v": 70
    },
    {
      "midi": 60,
      "hit": false,
      "t": 67067.13599999966,
      "d": 35.711999999999534,
      "v": 80
    },
    {
      "midi": 75,
      "hit": false,
      "t": 67174.27199999966,
      "d": 35.711999999999534,
      "v": 80
    },
    {
      "midi": 46,
      "hit": false,
      "t": 67281.40799999965,
      "d": 8.927999999999884,
      "v": 70
    },
    {
      "midi": 40,
      "hit": false,
      "t": 67281.40799999965,
      "d": 8.927999999999884,
      "v": 112
    },
    {
      "midi": 87,
      "hit": false,
      "t": 67281.40799999966,
      "d": 35.711999999999534,
      "v": 60
    },
    {
      "midi": 72,
      "hit": false,
      "t": 67290.33599999991,
      "d": 1160.6399999999994,
      "v": 100
    },
    {
      "midi": 67,
      "hit": false,
      "t": 67290.33599999991,
      "d": 1160.6399999999994,
      "v": 80
    },
    {
      "midi": 63,
      "hit": false,
      "t": 67388.54399999966,
      "d": 35.711999999999534,
      "v": 70
    },
    {
      "midi": 60,
      "hit": false,
      "t": 67388.54399999966,
      "d": 35.711999999999534,
      "v": 80
    },
    {
      "midi": 42,
      "hit": false,
      "t": 67495.67999999964,
      "d": 8.927999999999884,
      "v": 84
    },
    {
      "midi": 75,
      "hit": false,
      "t": 67495.67999999966,
      "d": 35.711999999999534,
      "v": 80
    },
    {
      "midi": 87,
      "hit": false,
      "t": 67602.81599999966,
      "d": 35.711999999999534,
      "v": 60
    },
    {
      "midi": 48,
      "hit": false,
      "t": 67602.81599999993,
      "d": 89.27999999999884,
      "v": 110
    },
    {
      "midi": 46,
      "hit": false,
      "t": 67709.95199999964,
      "d": 8.927999999999884,
      "v": 70
    },
    {
      "midi": 36,
      "hit": false,
      "t": 67709.95199999964,
      "d": 8.927999999999884,
      "v": 112
    },
    {
      "midi": 63,
      "hit": false,
      "t": 67709.95199999966,
      "d": 35.711999999999534,
      "v": 70
    },
    {
      "midi": 60,
      "hit": false,
      "t": 67709.95199999966,
      "d": 35.711999999999534,
      "v": 80
    },
    {
      "midi": 75,
      "hit": false,
      "t": 67709.95199999989,
      "d": 71.42399999999907,
      "v": 110
    },
    {
      "midi": 70,
      "hit": false,
      "t": 67709.95199999989,
      "d": 71.42399999999907,
      "v": 110
    },
    {
      "midi": 58,
      "hit": false,
      "t": 67709.95199999989,
      "d": 71.42399999999907,
      "v": 100
    },
    {
      "midi": 55,
      "hit": false,
      "t": 67709.95199999989,
      "d": 71.42399999999907,
      "v": 100
    },
    {
      "midi": 48,
      "hit": false,
      "t": 67709.95199999993,
      "d": 624.9600000000064,
      "v": 110
    },
    {
      "midi": 75,
      "hit": false,
      "t": 67817.08799999965,
      "d": 35.711999999999534,
      "v": 80
    },
    {
      "midi": 42,
      "hit": false,
      "t": 67924.22399999964,
      "d": 8.927999999999884,
      "v": 84
    },
    {
      "midi": 87,
      "hit": false,
      "t": 67924.22399999965,
      "d": 35.711999999999534,
      "v": 60
    },
    {
      "midi": 70,
      "hit": false,
      "t": 67924.22399999989,
      "d": 71.42399999999907,
      "v": 110
    },
    {
      "midi": 58,
      "hit": false,
      "t": 67924.22399999989,
      "d": 71.42399999999907,
      "v": 100
    },
    {
      "midi": 55,
      "hit": false,
      "t": 67924.22399999989,
      "d": 71.42399999999907,
      "v": 100
    },
    {
      "midi": 63,
      "hit": false,
      "t": 68031.35999999965,
      "d": 35.711999999999534,
      "v": 70
    },
    {
      "midi": 60,
      "hit": false,
      "t": 68031.35999999965,
      "d": 35.711999999999534,
      "v": 80
    },
    {
      "midi": 46,
      "hit": false,
      "t": 68138.49599999964,
      "d": 8.927999999999884,
      "v": 70
    },
    {
      "midi": 40,
      "hit": false,
      "t": 68138.49599999964,
      "d": 8.927999999999884,
      "v": 112
    },
    {
      "midi": 75,
      "hit": false,
      "t": 68138.49599999965,
      "d": 35.711999999999534,
      "v": 80
    },
    {
      "midi": 74,
      "hit": false,
      "t": 68138.49599999988,
      "d": 71.42399999999907,
      "v": 110
    },
    {
      "midi": 70,
      "hit": false,
      "t": 68138.49599999988,
      "d": 71.42399999999907,
      "v": 110
    },
    {
      "midi": 58,
      "hit": false,
      "t": 68138.49599999988,
      "d": 71.42399999999907,
      "v": 100
    },
    {
      "midi": 55,
      "hit": false,
      "t": 68138.49599999988,
      "d": 71.42399999999907,
      "v": 100
    },
    {
      "midi": 87,
      "hit": false,
      "t": 68245.63199999965,
      "d": 35.711999999999534,
      "v": 60
    },
    {
      "midi": 72,
      "hit": false,
      "t": 68245.63199999988,
      "d": 178.55999999999767,
      "v": 110
    },
    {
      "midi": 60,
      "hit": false,
      "t": 68245.63199999988,
      "d": 178.55999999999767,
      "v": 100
    },
    {
      "midi": 70,
      "hit": false,
      "t": 68245.63199999988,
      "d": 178.55999999999767,
      "v": 100
    },
    {
      "midi": 55,
      "hit": false,
      "t": 68245.63199999988,
      "d": 178.55999999999767,
      "v": 100
    },
    {
      "midi": 42,
      "hit": false,
      "t": 68352.76799999963,
      "d": 8.927999999999884,
      "v": 84
    },
    {
      "midi": 63,
      "hit": false,
      "t": 68352.76799999965,
      "d": 35.711999999999534,
      "v": 70
    },
    {
      "midi": 60,
      "hit": false,
      "t": 68352.76799999965,
      "d": 35.711999999999534,
      "v": 80
    },
    {
      "midi": 43,
      "hit": false,
      "t": 68352.76799999994,
      "d": 196.41599999999744,
      "v": 110
    },
    {
      "midi": 63,
      "hit": false,
      "t": 68459.90399999965,
      "d": 35.711999999999534,
      "v": 70
    },
    {
      "midi": 60,
      "hit": false,
      "t": 68459.90399999965,
      "d": 35.711999999999534,
      "v": 80
    },
    {
      "midi": 58,
      "hit": false,
      "t": 68495.61599999986,
      "d": 428.5439999999944,
      "v": 100
    },
    {
      "midi": 46,
      "hit": false,
      "t": 68567.03999999963,
      "d": 8.927999999999884,
      "v": 70
    },
    {
      "midi": 36,
      "hit": false,
      "t": 68567.03999999963,
      "d": 8.927999999999884,
      "v": 112
    },
    {
      "midi": 75,
      "hit": false,
      "t": 68567.03999999964,
      "d": 35.711999999999534,
      "v": 80
    },
    {
      "midi": 48,
      "hit": false,
      "t": 68567.03999999994,
      "d": 428.5439999999944,
      "v": 110
    },
    {
      "midi": 87,
      "hit": false,
      "t": 68674.17599999964,
      "d": 35.711999999999534,
      "v": 60
    },
    {
      "midi": 42,
      "hit": false,
      "t": 68781.31199999963,
      "d": 8.927999999999884,
      "v": 84
    },
    {
      "midi": 63,
      "hit": false,
      "t": 68781.31199999964,
      "d": 35.711999999999534,
      "v": 70
    },
    {
      "midi": 60,
      "hit": false,
      "t": 68781.31199999964,
      "d": 35.711999999999534,
      "v": 80
    },
    {
      "midi": 75,
      "hit": false,
      "t": 68888.44799999964,
      "d": 35.711999999999534,
      "v": 80
    },
    {
      "midi": 46,
      "hit": false,
      "t": 68995.58399999962,
      "d": 8.927999999999884,
      "v": 70
    },
    {
      "midi": 40,
      "hit": false,
      "t": 68995.58399999962,
      "d": 8.927999999999884,
      "v": 112
    },
    {
      "midi": 87,
      "hit": false,
      "t": 68995.58399999964,
      "d": 35.711999999999534,
      "v": 60
    },
    {
      "midi": 62,
      "hit": false,
      "t": 68995.58399999986,
      "d": 142.84799999999814,
      "v": 100
    },
    {
      "midi": 63,
      "hit": false,
      "t": 69102.71999999964,
      "d": 35.711999999999534,
      "v": 70
    },
    {
      "midi": 60,
      "hit": false,
      "t": 69102.71999999964,
      "d": 35.711999999999534,
      "v": 80
    },
    {
      "midi": 42,
      "hit": false,
      "t": 69209.85599999962,
      "d": 8.927999999999884,
      "v": 84
    },
    {
      "midi": 75,
      "hit": false,
      "t": 69209.85599999964,
      "d": 35.711999999999534,
      "v": 80
    },
    {
      "midi": 60,
      "hit": false,
      "t": 69209.85599999985,
      "d": 357.11999999999534,
      "v": 117
    },
    {
      "midi": 87,
      "hit": false,
      "t": 69316.99199999963,
      "d": 35.711999999999534,
      "v": 60
    },
    {
      "midi": 48,
      "hit": false,
      "t": 69316.99199999993,
      "d": 89.27999999999884,
      "v": 110
    },
    {
      "midi": 46,
      "hit": false,
      "t": 69424.12799999962,
      "d": 8.927999999999884,
      "v": 70
    },
    {
      "midi": 36,
      "hit": false,
      "t": 69424.12799999962,
      "d": 8.927999999999884,
      "v": 112
    },
    {
      "midi": 63,
      "hit": false,
      "t": 69424.12799999963,
      "d": 35.711999999999534,
      "v": 70
    },
    {
      "midi": 60,
      "hit": false,
      "t": 69424.12799999963,
      "d": 35.711999999999534,
      "v": 80
    },
    {
      "midi": 48,
      "hit": false,
      "t": 69424.12799999992,
      "d": 624.9600000000064,
      "v": 110
    },
    {
      "midi": 75,
      "hit": false,
      "t": 69531.26399999963,
      "d": 35.711999999999534,
      "v": 80
    },
    {
      "midi": 42,
      "hit": false,
      "t": 69638.39999999962,
      "d": 8.927999999999884,
      "v": 84
    },
    {
      "midi": 87,
      "hit": false,
      "t": 69638.39999999963,
      "d": 35.711999999999534,
      "v": 60
    },
    {
      "midi": 67,
      "hit": false,
      "t": 69638.39999999988,
      "d": 71.42399999999907,
      "v": 110
    },
    {
      "midi": 60,
      "hit": false,
      "t": 69638.39999999988,
      "d": 71.42399999999907,
      "v": 100
    },
    {
      "midi": 55,
      "hit": false,
      "t": 69638.39999999988,
      "d": 71.42399999999907,
      "v": 100
    },
    {
      "midi": 63,
      "hit": false,
      "t": 69745.53599999963,
      "d": 35.711999999999534,
      "v": 70
    },
    {
      "midi": 60,
      "hit": false,
      "t": 69745.53599999963,
      "d": 35.711999999999534,
      "v": 80
    },
    {
      "midi": 46,
      "hit": false,
      "t": 69852.67199999961,
      "d": 8.927999999999884,
      "v": 70
    },
    {
      "midi": 40,
      "hit": false,
      "t": 69852.67199999961,
      "d": 8.927999999999884,
      "v": 112
    },
    {
      "midi": 75,
      "hit": false,
      "t": 69852.67199999963,
      "d": 35.711999999999534,
      "v": 80
    },
    {
      "midi": 87,
      "hit": false,
      "t": 69959.80799999963,
      "d": 35.711999999999534,
      "v": 60
    },
    {
      "midi": 42,
      "hit": false,
      "t": 70066.94399999961,
      "d": 8.927999999999884,
      "v": 84
    },
    {
      "midi": 63,
      "hit": false,
      "t": 70066.94399999962,
      "d": 35.711999999999534,
      "v": 70
    },
    {
      "midi": 60,
      "hit": false,
      "t": 70066.94399999962,
      "d": 35.711999999999534,
      "v": 80
    },
    {
      "midi": 43,
      "hit": false,
      "t": 70066.94399999993,
      "d": 196.41599999999744,
      "v": 110
    },
    {
      "midi": 63,
      "hit": false,
      "t": 70174.07999999962,
      "d": 35.711999999999534,
      "v": 70
    },
    {
      "midi": 60,
      "hit": false,
      "t": 70174.07999999962,
      "d": 35.711999999999534,
      "v": 80
    },
    {
      "midi": 46,
      "hit": false,
      "t": 70281.21599999961,
      "d": 8.927999999999884,
      "v": 70
    },
    {
      "midi": 36,
      "hit": false,
      "t": 70281.21599999961,
      "d": 8.927999999999884,
      "v": 112
    },
    {
      "midi": 75,
      "hit": false,
      "t": 70281.21599999962,
      "d": 35.711999999999534,
      "v": 80
    },
    {
      "midi": 48,
      "hit": false,
      "t": 70281.21599999993,
      "d": 428.5439999999944,
      "v": 110
    },
    {
      "midi": 87,
      "hit": false,
      "t": 70388.35199999962,
      "d": 35.711999999999534,
      "v": 60
    },
    {
      "midi": 42,
      "hit": false,
      "t": 70495.4879999996,
      "d": 8.927999999999884,
      "v": 84
    },
    {
      "midi": 63,
      "hit": false,
      "t": 70495.48799999962,
      "d": 35.711999999999534,
      "v": 70
    },
    {
      "midi": 60,
      "hit": false,
      "t": 70495.48799999962,
      "d": 35.711999999999534,
      "v": 80
    },
    {
      "midi": 75,
      "hit": false,
      "t": 70602.62399999962,
      "d": 35.711999999999534,
      "v": 80
    },
    {
      "midi": 46,
      "hit": false,
      "t": 70709.7599999996,
      "d": 8.927999999999884,
      "v": 70
    },
    {
      "midi": 40,
      "hit": false,
      "t": 70709.7599999996,
      "d": 8.927999999999884,
      "v": 112
    },
    {
      "midi": 87,
      "hit": false,
      "t": 70709.75999999962,
      "d": 35.711999999999534,
      "v": 60
    },
    {
      "midi": 58,
      "hit": false,
      "t": 70709.75999999985,
      "d": 142.84799999999814,
      "v": 90
    },
    {
      "midi": 63,
      "hit": false,
      "t": 70816.89599999962,
      "d": 35.711999999999534,
      "v": 70
    },
    {
      "midi": 60,
      "hit": false,
      "t": 70816.89599999962,
      "d": 35.711999999999534,
      "v": 80
    },
    {
      "midi": 42,
      "hit": false,
      "t": 70924.0319999996,
      "d": 8.927999999999884,
      "v": 84
    },
    {
      "midi": 75,
      "hit": false,
      "t": 70924.03199999961,
      "d": 35.711999999999534,
      "v": 80
    },
    {
      "midi": 60,
      "hit": false,
      "t": 70924.03199999985,
      "d": 142.84799999999814,
      "v": 117
    },
    {
      "midi": 87,
      "hit": false,
      "t": 71031.16799999961,
      "d": 35.711999999999534,
      "v": 60
    },
    {
      "midi": 48,
      "hit": false,
      "t": 71031.16799999992,
      "d": 89.27999999999884,
      "v": 110
    },
    {
      "midi": 46,
      "hit": false,
      "t": 71138.3039999996,
      "d": 8.927999999999884,
      "v": 70
    },
    {
      "midi": 36,
      "hit": false,
      "t": 71138.3039999996,
      "d": 8.927999999999884,
      "v": 112
    },
    {
      "midi": 63,
      "hit": false,
      "t": 71138.30399999961,
      "d": 35.711999999999534,
      "v": 70
    },
    {
      "midi": 60,
      "hit": false,
      "t": 71138.30399999961,
      "d": 35.711999999999534,
      "v": 80
    },
    {
      "midi": 63,
      "hit": false,
      "t": 71138.30399999984,
      "d": 142.84799999999814,
      "v": 90
    },
    {
      "midi": 48,
      "hit": false,
      "t": 71138.30399999992,
      "d": 410.68799999999464,
      "v": 110
    },
    {
      "midi": 75,
      "hit": false,
      "t": 71245.43999999961,
      "d": 35.711999999999534,
      "v": 80
    },
    {
      "midi": 42,
      "hit": false,
      "t": 71352.5759999996,
      "d": 8.927999999999884,
      "v": 84
    },
    {
      "midi": 87,
      "hit": false,
      "t": 71352.57599999961,
      "d": 35.711999999999534,
      "v": 60
    },
    {
      "midi": 62,
      "hit": false,
      "t": 71352.57599999984,
      "d": 160.7039999999979,
      "v": 90
    },
    {
      "midi": 63,
      "hit": false,
      "t": 71459.7119999996,
      "d": 35.711999999999534,
      "v": 70
    },
    {
      "midi": 60,
      "hit": false,
      "t": 71459.7119999996,
      "d": 35.711999999999534,
      "v": 80
    },
    {
      "midi": 46,
      "hit": false,
      "t": 71566.84799999959,
      "d": 8.927999999999884,
      "v": 70
    },
    {
      "midi": 40,
      "hit": false,
      "t": 71566.84799999959,
      "d": 8.927999999999884,
      "v": 112
    },
    {
      "midi": 75,
      "hit": false,
      "t": 71566.8479999996,
      "d": 35.711999999999534,
      "v": 80
    },
    {
      "midi": 60,
      "hit": false,
      "t": 71566.84799999984,
      "d": 142.84799999999814,
      "v": 90
    },
    {
      "midi": 46,
      "hit": false,
      "t": 71566.84799999991,
      "d": 196.41599999999744,
      "v": 110
    },
    {
      "midi": 87,
      "hit": false,
      "t": 71673.9839999996,
      "d": 35.711999999999534,
      "v": 60
    },
    {
      "midi": 42,
      "hit": false,
      "t": 71781.11999999959,
      "d": 8.927999999999884,
      "v": 84
    },
    {
      "midi": 63,
      "hit": false,
      "t": 71781.1199999996,
      "d": 35.711999999999534,
      "v": 70
    },
    {
      "midi": 60,
      "hit": false,
      "t": 71781.1199999996,
      "d": 35.711999999999534,
      "v": 80
    },
    {
      "midi": 67,
      "hit": false,
      "t": 71781.11999999984,
      "d": 142.84799999999814,
      "v": 96
    },
    {
      "midi": 48,
      "hit": false,
      "t": 71781.11999999991,
      "d": 196.41599999999744,
      "v": 110
    },
    {
      "midi": 63,
      "hit": false,
      "t": 71888.2559999996,
      "d": 35.711999999999534,
      "v": 70
    },
    {
      "midi": 60,
      "hit": false,
      "t": 71888.2559999996,
      "d": 35.711999999999534,
      "v": 80
    },
    {
      "midi": 46,
      "hit": false,
      "t": 71995.39199999959,
      "d": 8.927999999999884,
      "v": 70
    },
    {
      "midi": 36,
      "hit": false,
      "t": 71995.39199999959,
      "d": 8.927999999999884,
      "v": 112
    },
    {
      "midi": 74,
      "hit": false,
      "t": 71995.3919999996,
      "d": 35.711999999999534,
      "v": 80
    },
    {
      "midi": 43,
      "hit": false,
      "t": 71995.3919999999,
      "d": 428.5439999999944,
      "v": 110
    },
    {
      "midi": 86,
      "hit": false,
      "t": 72102.5279999996,
      "d": 35.711999999999534,
      "v": 60
    },
    {
      "midi": 53,
      "hit": false,
      "t": 72102.52799999983,
      "d": 303.55199999999604,
      "v": 100
    },
    {
      "midi": 42,
      "hit": false,
      "t": 72209.66399999958,
      "d": 8.927999999999884,
      "v": 84
    },
    {
      "midi": 62,
      "hit": false,
      "t": 72209.6639999996,
      "d": 35.711999999999534,
      "v": 70
    },
    {
      "midi": 58,
      "hit": false,
      "t": 72209.6639999996,
      "d": 35.711999999999534,
      "v": 80
    },
    {
      "midi": 74,
      "hit": false,
      "t": 72316.7999999996,
      "d": 35.711999999999534,
      "v": 80
    },
    {
      "midi": 46,
      "hit": false,
      "t": 72423.93599999958,
      "d": 8.927999999999884,
      "v": 70
    },
    {
      "midi": 40,
      "hit": false,
      "t": 72423.93599999958,
      "d": 8.927999999999884,
      "v": 112
    },
    {
      "midi": 86,
      "hit": false,
      "t": 72423.9359999996,
      "d": 35.711999999999534,
      "v": 60
    },
    {
      "midi": 55,
      "hit": false,
      "t": 72423.93599999983,
      "d": 1428.479999999996,
      "v": 117
    },
    {
      "midi": 62,
      "hit": false,
      "t": 72531.07199999959,
      "d": 35.711999999999534,
      "v": 70
    },
    {
      "midi": 58,
      "hit": false,
      "t": 72531.07199999959,
      "d": 35.711999999999534,
      "v": 80
    },
    {
      "midi": 42,
      "hit": false,
      "t": 72638.20799999958,
      "d": 8.927999999999884,
      "v": 84
    },
    {
      "midi": 74,
      "hit": false,
      "t": 72638.20799999959,
      "d": 35.711999999999534,
      "v": 80
    },
    {
      "midi": 86,
      "hit": false,
      "t": 72745.34399999959,
      "d": 35.711999999999534,
      "v": 60
    },
    {
      "midi": 43,
      "hit": false,
      "t": 72745.3439999999,
      "d": 89.27999999999884,
      "v": 110
    },
    {
      "midi": 46,
      "hit": false,
      "t": 72852.47999999957,
      "d": 8.927999999999884,
      "v": 70
    },
    {
      "midi": 36,
      "hit": false,
      "t": 72852.47999999957,
      "d": 8.927999999999884,
      "v": 112
    },
    {
      "midi": 62,
      "hit": false,
      "t": 72852.47999999959,
      "d": 35.711999999999534,
      "v": 70
    },
    {
      "midi": 58,
      "hit": false,
      "t": 72852.47999999959,
      "d": 35.711999999999534,
      "v": 80
    },
    {
      "midi": 43,
      "hit": false,
      "t": 72852.4799999999,
      "d": 624.9600000000064,
      "v": 110
    },
    {
      "midi": 74,
      "hit": false,
      "t": 72959.61599999959,
      "d": 35.711999999999534,
      "v": 80
    },
    {
      "midi": 42,
      "hit": false,
      "t": 73066.75199999957,
      "d": 8.927999999999884,
      "v": 84
    },
    {
      "midi": 86,
      "hit": false,
      "t": 73066.75199999959,
      "d": 35.711999999999534,
      "v": 60
    },
    {
      "midi": 62,
      "hit": false,
      "t": 73066.75199999988,
      "d": 71.42399999999907,
      "v": 110
    },
    {
      "midi": 58,
      "hit": false,
      "t": 73066.75199999988,
      "d": 71.42399999999907,
      "v": 100
    },
    {
      "midi": 55,
      "hit": false,
      "t": 73066.75199999988,
      "d": 71.42399999999907,
      "v": 100
    },
    {
      "midi": 62,
      "hit": false,
      "t": 73173.88799999958,
      "d": 35.711999999999534,
      "v": 70
    },
    {
      "midi": 58,
      "hit": false,
      "t": 73173.88799999958,
      "d": 35.711999999999534,
      "v": 80
    },
    {
      "midi": 46,
      "hit": false,
      "t": 73281.02399999957,
      "d": 8.927999999999884,
      "v": 70
    },
    {
      "midi": 40,
      "hit": false,
      "t": 73281.02399999957,
      "d": 8.927999999999884,
      "v": 112
    },
    {
      "midi": 74,
      "hit": false,
      "t": 73281.02399999958,
      "d": 35.711999999999534,
      "v": 80
    },
    {
      "midi": 86,
      "hit": false,
      "t": 73388.15999999958,
      "d": 35.711999999999534,
      "v": 60
    },
    {
      "midi": 62,
      "hit": false,
      "t": 73388.15999999987,
      "d": 71.42399999999907,
      "v": 110
    },
    {
      "midi": 58,
      "hit": false,
      "t": 73388.15999999987,
      "d": 71.42399999999907,
      "v": 100
    },
    {
      "midi": 55,
      "hit": false,
      "t": 73388.15999999987,
      "d": 71.42399999999907,
      "v": 100
    },
    {
      "midi": 42,
      "hit": false,
      "t": 73495.29599999957,
      "d": 8.927999999999884,
      "v": 84
    },
    {
      "midi": 62,
      "hit": false,
      "t": 73495.29599999958,
      "d": 35.711999999999534,
      "v": 70
    },
    {
      "midi": 58,
      "hit": false,
      "t": 73495.29599999958,
      "d": 35.711999999999534,
      "v": 80
    },
    {
      "midi": 46,
      "hit": false,
      "t": 73495.2959999999,
      "d": 196.41599999999744,
      "v": 110
    },
    {
      "midi": 62,
      "hit": false,
      "t": 73602.43199999958,
      "d": 35.711999999999534,
      "v": 70
    },
    {
      "midi": 58,
      "hit": false,
      "t": 73602.43199999958,
      "d": 35.711999999999534,
      "v": 80
    },
    {
      "midi": 46,
      "hit": false,
      "t": 73709.56799999956,
      "d": 8.927999999999884,
      "v": 70
    },
    {
      "midi": 36,
      "hit": false,
      "t": 73709.56799999956,
      "d": 8.927999999999884,
      "v": 112
    },
    {
      "midi": 74,
      "hit": false,
      "t": 73709.56799999958,
      "d": 35.711999999999534,
      "v": 80
    },
    {
      "midi": 43,
      "hit": false,
      "t": 73709.5679999999,
      "d": 428.5439999999944,
      "v": 110
    },
    {
      "midi": 65,
      "hit": false,
      "t": 73709.56799999991,
      "d": 303.55199999999604,
      "v": 87
    },
    {
      "midi": 60,
      "hit": false,
      "t": 73709.56799999991,
      "d": 303.55199999999604,
      "v": 67
    },
    {
      "midi": 86,
      "hit": false,
      "t": 73816.70399999958,
      "d": 35.711999999999534,
      "v": 60
    },
    {
      "midi": 42,
      "hit": false,
      "t": 73923.83999999956,
      "d": 8.927999999999884,
      "v": 84
    },
    {
      "midi": 62,
      "hit": false,
      "t": 73923.83999999957,
      "d": 35.711999999999534,
      "v": 70
    },
    {
      "midi": 58,
      "hit": false,
      "t": 73923.83999999957,
      "d": 35.711999999999534,
      "v": 80
    },
    {
      "midi": 74,
      "hit": false,
      "t": 74030.97599999957,
      "d": 35.711999999999534,
      "v": 80
    },
    {
      "midi": 46,
      "hit": false,
      "t": 74138.11199999956,
      "d": 8.927999999999884,
      "v": 70
    },
    {
      "midi": 40,
      "hit": false,
      "t": 74138.11199999956,
      "d": 8.927999999999884,
      "v": 112
    },
    {
      "midi": 86,
      "hit": false,
      "t": 74138.11199999957,
      "d": 35.711999999999534,
      "v": 60
    },
    {
      "midi": 67,
      "hit": false,
      "t": 74138.1119999999,
      "d": 1285.6319999999978,
      "v": 110
    },
    {
      "midi": 62,
      "hit": false,
      "t": 74138.1119999999,
      "d": 1285.6319999999978,
      "v": 90
    },
    {
      "midi": 62,
      "hit": false,
      "t": 74245.24799999957,
      "d": 35.711999999999534,
      "v": 70
    },
    {
      "midi": 58,
      "hit": false,
      "t": 74245.24799999957,
      "d": 35.711999999999534,
      "v": 80
    },
    {
      "midi": 42,
      "hit": false,
      "t": 74352.38399999955,
      "d": 8.927999999999884,
      "v": 84
    },
    {
      "midi": 74,
      "hit": false,
      "t": 74352.38399999957,
      "d": 35.711999999999534,
      "v": 80
    },
    {
      "midi": 86,
      "hit": false,
      "t": 74459.51999999957,
      "d": 35.711999999999534,
      "v": 60
    },
    {
      "midi": 43,
      "hit": false,
      "t": 74459.51999999989,
      "d": 89.27999999999884,
      "v": 110
    },
    {
      "midi": 46,
      "hit": false,
      "t": 74566.65599999955,
      "d": 8.927999999999884,
      "v": 70
    },
    {
      "midi": 36,
      "hit": false,
      "t": 74566.65599999955,
      "d": 8.927999999999884,
      "v": 112
    },
    {
      "midi": 62,
      "hit": false,
      "t": 74566.65599999957,
      "d": 35.711999999999534,
      "v": 70
    },
    {
      "midi": 58,
      "hit": false,
      "t": 74566.65599999957,
      "d": 35.711999999999534,
      "v": 80
    },
    {
      "midi": 65,
      "hit": false,
      "t": 74566.65599999987,
      "d": 71.42399999999907,
      "v": 110
    },
    {
      "midi": 60,
      "hit": false,
      "t": 74566.65599999987,
      "d": 71.42399999999907,
      "v": 100
    },
    {
      "midi": 43,
      "hit": false,
      "t": 74566.65599999989,
      "d": 410.68799999999464,
      "v": 110
    },
    {
      "midi": 74,
      "hit": false,
      "t": 74673.79199999956,
      "d": 35.711999999999534,
      "v": 80
    },
    {
      "midi": 42,
      "hit": false,
      "t": 74780.92799999955,
      "d": 8.927999999999884,
      "v": 84
    },
    {
      "midi": 86,
      "hit": false,
      "t": 74780.92799999956,
      "d": 35.711999999999534,
      "v": 60
    },
    {
      "midi": 67,
      "hit": false,
      "t": 74780.92799999987,
      "d": 71.42399999999907,
      "v": 110
    },
    {
      "midi": 62,
      "hit": false,
      "t": 74780.92799999987,
      "d": 71.42399999999907,
      "v": 100
    },
    {
      "midi": 40,
      "hit": false,
      "t": 74888.06399999955,
      "d": 8.927999999999884,
      "v": 56
    },
    {
      "midi": 62,
      "hit": false,
      "t": 74888.06399999956,
      "d": 35.711999999999534,
      "v": 70
    },
    {
      "midi": 58,
      "hit": false,
      "t": 74888.06399999956,
      "d": 35.711999999999534,
      "v": 80
    },
    {
      "midi": 40,
      "hit": false,
      "t": 74923.77599999955,
      "d": 8.927999999999884,
      "v": 56
    },
    {
      "midi": 46,
      "hit": false,
      "t": 74995.19999999955,
      "d": 8.927999999999884,
      "v": 70
    },
    {
      "midi": 40,
      "hit": false,
      "t": 74995.19999999955,
      "d": 8.927999999999884,
      "v": 84
    },
    {
      "midi": 74,
      "hit": false,
      "t": 74995.19999999956,
      "d": 35.711999999999534,
      "v": 80
    },
    {
      "midi": 70,
      "hit": false,
      "t": 74995.19999999987,
      "d": 178.55999999999767,
      "v": 110
    },
    {
      "midi": 65,
      "hit": false,
      "t": 74995.19999999987,
      "d": 178.55999999999767,
      "v": 110
    },
    {
      "midi": 46,
      "hit": false,
      "t": 74995.19999999988,
      "d": 196.41599999999744,
      "v": 110
    },
    {
      "midi": 86,
      "hit": false,
      "t": 75102.33599999956,
      "d": 35.711999999999534,
      "v": 60
    },
    {
      "midi": 42,
      "hit": false,
      "t": 75209.47199999954,
      "d": 8.927999999999884,
      "v": 84
    },
    {
      "midi": 40,
      "hit": false,
      "t": 75209.47199999954,
      "d": 8.927999999999884,
      "v": 112
    },
    {
      "midi": 62,
      "hit": false,
      "t": 75209.47199999956,
      "d": 35.711999999999534,
      "v": 70
    },
    {
      "midi": 58,
      "hit": false,
      "t": 75209.47199999956,
      "d": 35.711999999999534,
      "v": 80
    },
    {
      "midi": 65,
      "hit": false,
      "t": 75209.47199999986,
      "d": 71.42399999999907,
      "v": 110
    },
    {
      "midi": 60,
      "hit": false,
      "t": 75209.47199999986,
      "d": 71.42399999999907,
      "v": 100
    },
    {
      "midi": 43,
      "hit": false,
      "t": 75209.47199999988,
      "d": 196.41599999999744,
      "v": 110
    },
    {
      "midi": 40,
      "hit": false,
      "t": 75316.60799999954,
      "d": 8.927999999999884,
      "v": 112
    },
    {
      "midi": 62,
      "hit": false,
      "t": 75316.60799999956,
      "d": 35.711999999999534,
      "v": 70
    },
    {
      "midi": 58,
      "hit": false,
      "t": 75316.60799999956,
      "d": 35.711999999999534,
      "v": 80
    },
    {
      "midi": 67,
      "hit": false,
      "t": 75316.60799999986,
      "d": 71.42399999999907,
      "v": 110
    },
    {
      "midi": 62,
      "hit": false,
      "t": 75316.60799999986,
      "d": 71.42399999999907,
      "v": 110
    },
    {
      "midi": 46,
      "hit": false,
      "t": 75423.74399999954,
      "d": 8.927999999999884,
      "v": 70
    },
    {
      "midi": 36,
      "hit": false,
      "t": 75423.74399999954,
      "d": 8.927999999999884,
      "v": 112
    },
    {
      "midi": 75,
      "hit": false,
      "t": 75423.74399999955,
      "d": 35.711999999999534,
      "v": 80
    },
    {
      "midi": 44,
      "hit": false,
      "t": 75423.74399999988,
      "d": 428.5439999999944,
      "v": 110
    },
    {
      "midi": 87,
      "hit": false,
      "t": 75530.87999999955,
      "d": 35.711999999999534,
      "v": 60
    },
    {
      "midi": 42,
      "hit": false,
      "t": 75638.01599999954,
      "d": 8.927999999999884,
      "v": 84
    },
    {
      "midi": 63,
      "hit": false,
      "t": 75638.01599999955,
      "d": 35.711999999999534,
      "v": 70
    },
    {
      "midi": 60,
      "hit": false,
      "t": 75638.01599999955,
      "d": 35.711999999999534,
      "v": 80
    },
    {
      "midi": 51,
      "hit": false,
      "t": 75638.01599999983,
      "d": 178.55999999999767,
      "v": 95
    },
    {
      "midi": 75,
      "hit": false,
      "t": 75745.15199999955,
      "d": 35.711999999999534,
      "v": 80
    },
    {
      "midi": 46,
      "hit": false,
      "t": 75852.28799999953,
      "d": 8.927999999999884,
      "v": 70
    },
    {
      "midi": 40,
      "hit": false,
      "t": 75852.28799999953,
      "d": 8.927999999999884,
      "v": 112
    },
    {
      "midi": 87,
      "hit": false,
      "t": 75852.28799999955,
      "d": 35.711999999999534,
      "v": 60
    },
    {
      "midi": 48,
      "hit": false,
      "t": 75852.28799999983,
      "d": 160.7039999999979,
      "v": 112
    },
    {
      "midi": 63,
      "hit": false,
      "t": 75959.42399999955,
      "d": 35.711999999999534,
      "v": 70
    },
    {
      "midi": 60,
      "hit": false,
      "t": 75959.42399999955,
      "d": 35.711999999999534,
      "v": 80
    },
    {
      "midi": 42,
      "hit": false,
      "t": 76066.55999999953,
      "d": 8.927999999999884,
      "v": 84
    },
    {
      "midi": 75,
      "hit": false,
      "t": 76066.55999999955,
      "d": 35.711999999999534,
      "v": 80
    },
    {
      "midi": 51,
      "hit": false,
      "t": 76066.55999999982,
      "d": 178.55999999999767,
      "v": 75
    },
    {
      "midi": 87,
      "hit": false,
      "t": 76173.69599999955,
      "d": 35.711999999999534,
      "v": 60
    },
    {
      "midi": 46,
      "hit": false,
      "t": 76280.83199999953,
      "d": 8.927999999999884,
      "v": 70
    },
    {
      "midi": 36,
      "hit": false,
      "t": 76280.83199999953,
      "d": 8.927999999999884,
      "v": 112
    },
    {
      "midi": 63,
      "hit": false,
      "t": 76280.83199999954,
      "d": 35.711999999999534,
      "v": 70
    },
    {
      "midi": 60,
      "hit": false,
      "t": 76280.83199999954,
      "d": 35.711999999999534,
      "v": 80
    },
    {
      "midi": 55,
      "hit": false,
      "t": 76280.83199999982,
      "d": 160.7039999999979,
      "v": 112
    },
    {
      "midi": 44,
      "hit": false,
      "t": 76280.83199999986,
      "d": 321.4079999999958,
      "v": 110
    },
    {
      "midi": 75,
      "hit": false,
      "t": 76387.96799999954,
      "d": 35.711999999999534,
      "v": 80
    },
    {
      "midi": 42,
      "hit": false,
      "t": 76495.10399999953,
      "d": 8.927999999999884,
      "v": 84
    },
    {
      "midi": 87,
      "hit": false,
      "t": 76495.10399999954,
      "d": 35.711999999999534,
      "v": 60
    },
    {
      "midi": 53,
      "hit": false,
      "t": 76495.10399999982,
      "d": 624.9600000000064,
      "v": 95
    },
    {
      "midi": 63,
      "hit": false,
      "t": 76602.23999999954,
      "d": 35.711999999999534,
      "v": 70
    },
    {
      "midi": 60,
      "hit": false,
      "t": 76602.23999999954,
      "d": 35.711999999999534,
      "v": 80
    },
    {
      "midi": 46,
      "hit": false,
      "t": 76709.37599999952,
      "d": 8.927999999999884,
      "v": 70
    },
    {
      "midi": 40,
      "hit": false,
      "t": 76709.37599999952,
      "d": 8.927999999999884,
      "v": 112
    },
    {
      "midi": 75,
      "hit": false,
      "t": 76709.37599999954,
      "d": 35.711999999999534,
      "v": 80
    },
    {
      "midi": 44,
      "hit": false,
      "t": 76709.37599999986,
      "d": 321.4079999999958,
      "v": 110
    },
    {
      "midi": 87,
      "hit": false,
      "t": 76816.51199999954,
      "d": 35.711999999999534,
      "v": 60
    },
    {
      "midi": 42,
      "hit": false,
      "t": 76923.64799999952,
      "d": 8.927999999999884,
      "v": 84
    },
    {
      "midi": 63,
      "hit": false,
      "t": 76923.64799999954,
      "d": 35.711999999999534,
      "v": 70
    },
    {
      "midi": 60,
      "hit": false,
      "t": 76923.64799999954,
      "d": 35.711999999999534,
      "v": 80
    },
    {
      "midi": 77,
      "hit": false,
      "t": 76923.64799999986,
      "d": 71.42399999999907,
      "v": 110
    },
    {
      "midi": 72,
      "hit": false,
      "t": 76923.64799999986,
      "d": 71.42399999999907,
      "v": 110
    },
    {
      "midi": 63,
      "hit": false,
      "t": 77030.78399999953,
      "d": 35.711999999999534,
      "v": 70
    },
    {
      "midi": 60,
      "hit": false,
      "t": 77030.78399999953,
      "d": 35.711999999999534,
      "v": 80
    },
    {
      "midi": 46,
      "hit": false,
      "t": 77137.91999999952,
      "d": 8.927999999999884,
      "v": 70
    },
    {
      "midi": 36,
      "hit": false,
      "t": 77137.91999999952,
      "d": 8.927999999999884,
      "v": 112
    },
    {
      "midi": 75,
      "hit": false,
      "t": 77137.91999999953,
      "d": 35.711999999999534,
      "v": 80
    },
    {
      "midi": 46,
      "hit": false,
      "t": 77137.91999999985,
      "d": 428.5439999999944,
      "v": 110
    },
    {
      "midi": 75,
      "hit": false,
      "t": 77137.9199999999,
      "d": 3419.423999999999,
      "v": 70
    },
    {
      "midi": 72,
      "hit": false,
      "t": 77137.9199999999,
      "d": 3419.423999999999,
      "v": 70
    },
    {
      "midi": 53,
      "hit": false,
      "t": 77137.91999999995,
      "d": 1705.2480000000069,
      "v": 90
    },
    {
      "midi": 48,
      "hit": false,
      "t": 77137.91999999995,
      "d": 1705.2480000000069,
      "v": 90
    },
    {
      "midi": 87,
      "hit": false,
      "t": 77245.05599999953,
      "d": 35.711999999999534,
      "v": 60
    },
    {
      "midi": 42,
      "hit": false,
      "t": 77352.19199999952,
      "d": 8.927999999999884,
      "v": 84
    },
    {
      "midi": 63,
      "hit": false,
      "t": 77352.19199999953,
      "d": 35.711999999999534,
      "v": 70
    },
    {
      "midi": 60,
      "hit": false,
      "t": 77352.19199999953,
      "d": 35.711999999999534,
      "v": 80
    },
    {
      "midi": 51,
      "hit": false,
      "t": 77352.19199999982,
      "d": 178.55999999999767,
      "v": 76
    },
    {
      "midi": 75,
      "hit": false,
      "t": 77459.32799999953,
      "d": 35.711999999999534,
      "v": 80
    },
    {
      "midi": 46,
      "hit": false,
      "t": 77566.46399999951,
      "d": 8.927999999999884,
      "v": 70
    },
    {
      "midi": 40,
      "hit": false,
      "t": 77566.46399999951,
      "d": 8.927999999999884,
      "v": 112
    },
    {
      "midi": 87,
      "hit": false,
      "t": 77566.46399999953,
      "d": 35.711999999999534,
      "v": 60
    },
    {
      "midi": 48,
      "hit": false,
      "t": 77566.46399999982,
      "d": 160.7039999999979,
      "v": 76
    },
    {
      "midi": 63,
      "hit": false,
      "t": 77673.59999999953,
      "d": 35.711999999999534,
      "v": 70
    },
    {
      "midi": 60,
      "hit": false,
      "t": 77673.59999999953,
      "d": 35.711999999999534,
      "v": 80
    },
    {
      "midi": 42,
      "hit": false,
      "t": 77780.73599999951,
      "d": 8.927999999999884,
      "v": 84
    },
    {
      "midi": 75,
      "hit": false,
      "t": 77780.73599999952,
      "d": 35.711999999999534,
      "v": 80
    },
    {
      "midi": 51,
      "hit": false,
      "t": 77780.73599999982,
      "d": 178.55999999999767,
      "v": 112
    },
    {
      "midi": 87,
      "hit": false,
      "t": 77887.87199999952,
      "d": 35.711999999999534,
      "v": 60
    },
    {
      "midi": 46,
      "hit": false,
      "t": 77995.0079999995,
      "d": 8.927999999999884,
      "v": 70
    },
    {
      "midi": 36,
      "hit": false,
      "t": 77995.0079999995,
      "d": 8.927999999999884,
      "v": 112
    },
    {
      "midi": 63,
      "hit": false,
      "t": 77995.00799999952,
      "d": 35.711999999999534,
      "v": 70
    },
    {
      "midi": 60,
      "hit": false,
      "t": 77995.00799999952,
      "d": 35.711999999999534,
      "v": 80
    },
    {
      "midi": 55,
      "hit": false,
      "t": 77995.00799999981,
      "d": 232.12799999999697,
      "v": 105
    },
    {
      "midi": 46,
      "hit": false,
      "t": 77995.00799999984,
      "d": 321.4079999999958,
      "v": 110
    },
    {
      "midi": 75,
      "hit": false,
      "t": 78102.14399999952,
      "d": 35.711999999999534,
      "v": 80
    },
    {
      "midi": 42,
      "hit": false,
      "t": 78209.2799999995,
      "d": 8.927999999999884,
      "v": 84
    },
    {
      "midi": 87,
      "hit": false,
      "t": 78209.27999999952,
      "d": 35.711999999999534,
      "v": 60
    },
    {
      "midi": 63,
      "hit": false,
      "t": 78316.41599999952,
      "d": 35.711999999999534,
      "v": 70
    },
    {
      "midi": 60,
      "hit": false,
      "t": 78316.41599999952,
      "d": 35.711999999999534,
      "v": 80
    },
    {
      "midi": 53,
      "hit": false,
      "t": 78316.41599999981,
      "d": 160.7039999999979,
      "v": 112
    },
    {
      "midi": 46,
      "hit": false,
      "t": 78423.5519999995,
      "d": 8.927999999999884,
      "v": 70
    },
    {
      "midi": 40,
      "hit": false,
      "t": 78423.5519999995,
      "d": 8.927999999999884,
      "v": 112
    },
    {
      "midi": 75,
      "hit": false,
      "t": 78423.55199999952,
      "d": 35.711999999999534,
      "v": 80
    },
    {
      "midi": 43,
      "hit": false,
      "t": 78423.55199999984,
      "d": 178.55999999999767,
      "v": 110
    },
    {
      "midi": 87,
      "hit": false,
      "t": 78530.68799999951,
      "d": 35.711999999999534,
      "v": 60
    },
    {
      "midi": 51,
      "hit": false,
      "t": 78530.6879999998,
      "d": 160.7039999999979,
      "v": 85
    },
    {
      "midi": 42,
      "hit": false,
      "t": 78637.8239999995,
      "d": 8.927999999999884,
      "v": 84
    },
    {
      "midi": 63,
      "hit": false,
      "t": 78637.82399999951,
      "d": 35.711999999999534,
      "v": 70
    },
    {
      "midi": 60,
      "hit": false,
      "t": 78637.82399999951,
      "d": 35.711999999999534,
      "v": 80
    },
    {
      "midi": 46,
      "hit": false,
      "t": 78637.82399999983,
      "d": 178.55999999999767,
      "v": 110
    },
    {
      "midi": 63,
      "hit": false,
      "t": 78744.95999999951,
      "d": 35.711999999999534,
      "v": 70
    },
    {
      "midi": 60,
      "hit": false,
      "t": 78744.95999999951,
      "d": 35.711999999999534,
      "v": 80
    },
    {
      "midi": 46,
      "hit": false,
      "t": 78852.0959999995,
      "d": 8.927999999999884,
      "v": 70
    },
    {
      "midi": 36,
      "hit": false,
      "t": 78852.0959999995,
      "d": 8.927999999999884,
      "v": 112
    },
    {
      "midi": 75,
      "hit": false,
      "t": 78852.09599999951,
      "d": 35.711999999999534,
      "v": 80
    },
    {
      "midi": 50,
      "hit": false,
      "t": 78852.0959999998,
      "d": 160.7039999999979,
      "v": 85
    },
    {
      "midi": 48,
      "hit": false,
      "t": 78852.09599999983,
      "d": 714.2400000000052,
      "v": 110
    },
    {
      "midi": 87,
      "hit": false,
      "t": 78959.23199999951,
      "d": 35.711999999999534,
      "v": 60
    },
    {
      "midi": 42,
      "hit": false,
      "t": 79066.3679999995,
      "d": 8.927999999999884,
      "v": 84
    },
    {
      "midi": 63,
      "hit": false,
      "t": 79066.36799999951,
      "d": 35.711999999999534,
      "v": 70
    },
    {
      "midi": 60,
      "hit": false,
      "t": 79066.36799999951,
      "d": 35.711999999999534,
      "v": 80
    },
    {
      "midi": 48,
      "hit": false,
      "t": 79066.3679999998,
      "d": 1428.479999999996,
      "v": 110
    },
    {
      "midi": 75,
      "hit": false,
      "t": 79066.3679999999,
      "d": 26.78399999999965,
      "v": 127
    },
    {
      "midi": 67,
      "hit": false,
      "t": 79066.3679999999,
      "d": 26.78399999999965,
      "v": 127
    },
    {
      "midi": 75,
      "hit": false,
      "t": 79173.5039999995,
      "d": 35.711999999999534,
      "v": 80
    },
    {
      "midi": 72,
      "hit": false,
      "t": 79173.5039999999,
      "d": 35.711999999999534,
      "v": 100
    },
    {
      "midi": 67,
      "hit": false,
      "t": 79173.5039999999,
      "d": 35.711999999999534,
      "v": 100
    },
    {
      "midi": 46,
      "hit": false,
      "t": 79280.63999999949,
      "d": 8.927999999999884,
      "v": 70
    },
    {
      "midi": 40,
      "hit": false,
      "t": 79280.63999999949,
      "d": 8.927999999999884,
      "v": 112
    },
    {
      "midi": 87,
      "hit": false,
      "t": 79280.6399999995,
      "d": 35.711999999999534,
      "v": 60
    },
    {
      "midi": 63,
      "hit": false,
      "t": 79387.7759999995,
      "d": 35.711999999999534,
      "v": 70
    },
    {
      "midi": 60,
      "hit": false,
      "t": 79387.7759999995,
      "d": 35.711999999999534,
      "v": 80
    },
    {
      "midi": 75,
      "hit": false,
      "t": 79387.7759999999,
      "d": 26.78399999999965,
      "v": 127
    },
    {
      "midi": 67,
      "hit": false,
      "t": 79387.7759999999,
      "d": 26.78399999999965,
      "v": 127
    },
    {
      "midi": 42,
      "hit": false,
      "t": 79494.91199999949,
      "d": 8.927999999999884,
      "v": 84
    },
    {
      "midi": 75,
      "hit": false,
      "t": 79494.9119999995,
      "d": 35.711999999999534,
      "v": 80
    },
    {
      "midi": 72,
      "hit": false,
      "t": 79494.9119999999,
      "d": 35.711999999999534,
      "v": 100
    },
    {
      "midi": 67,
      "hit": false,
      "t": 79494.9119999999,
      "d": 35.711999999999534,
      "v": 100
    },
    {
      "midi": 87,
      "hit": false,
      "t": 79602.0479999995,
      "d": 35.711999999999534,
      "v": 60
    },
    {
      "midi": 46,
      "hit": false,
      "t": 79709.18399999948,
      "d": 8.927999999999884,
      "v": 70
    },
    {
      "midi": 36,
      "hit": false,
      "t": 79709.18399999948,
      "d": 8.927999999999884,
      "v": 112
    },
    {
      "midi": 63,
      "hit": false,
      "t": 79709.1839999995,
      "d": 35.711999999999534,
      "v": 70
    },
    {
      "midi": 60,
      "hit": false,
      "t": 79709.1839999995,
      "d": 35.711999999999534,
      "v": 80
    },
    {
      "midi": 41,
      "hit": false,
      "t": 79709.18399999983,
      "d": 714.2400000000052,
      "v": 110
    },
    {
      "midi": 75,
      "hit": false,
      "t": 79709.18399999989,
      "d": 26.78399999999965,
      "v": 127
    },
    {
      "midi": 67,
      "hit": false,
      "t": 79709.18399999989,
      "d": 26.78399999999965,
      "v": 127
    },
    {
      "midi": 75,
      "hit": false,
      "t": 79816.3199999995,
      "d": 35.711999999999534,
      "v": 80
    },
    {
      "midi": 72,
      "hit": false,
      "t": 79816.31999999989,
      "d": 35.711999999999534,
      "v": 100
    },
    {
      "midi": 67,
      "hit": false,
      "t": 79816.31999999989,
      "d": 35.711999999999534,
      "v": 100
    },
    {
      "midi": 42,
      "hit": false,
      "t": 79923.45599999948,
      "d": 8.927999999999884,
      "v": 84
    },
    {
      "midi": 87,
      "hit": false,
      "t": 79923.4559999995,
      "d": 35.711999999999534,
      "v": 60
    },
    {
      "midi": 63,
      "hit": false,
      "t": 80030.5919999995,
      "d": 35.711999999999534,
      "v": 70
    },
    {
      "midi": 60,
      "hit": false,
      "t": 80030.5919999995,
      "d": 35.711999999999534,
      "v": 80
    },
    {
      "midi": 75,
      "hit": false,
      "t": 80030.59199999989,
      "d": 26.78399999999965,
      "v": 127
    },
    {
      "midi": 67,
      "hit": false,
      "t": 80030.59199999989,
      "d": 26.78399999999965,
      "v": 127
    },
    {
      "midi": 46,
      "hit": false,
      "t": 80137.72799999948,
      "d": 8.927999999999884,
      "v": 70
    },
    {
      "midi": 40,
      "hit": false,
      "t": 80137.72799999948,
      "d": 8.927999999999884,
      "v": 112
    },
    {
      "midi": 75,
      "hit": false,
      "t": 80137.7279999995,
      "d": 35.711999999999534,
      "v": 80
    },
    {
      "midi": 72,
      "hit": false,
      "t": 80137.72799999989,
      "d": 35.711999999999534,
      "v": 100
    },
    {
      "midi": 67,
      "hit": false,
      "t": 80137.72799999989,
      "d": 35.711999999999534,
      "v": 100
    },
    {
      "midi": 87,
      "hit": false,
      "t": 80244.86399999949,
      "d": 35.711999999999534,
      "v": 60
    },
    {
      "midi": 42,
      "hit": false,
      "t": 80351.99999999948,
      "d": 8.927999999999884,
      "v": 84
    },
    {
      "midi": 40,
      "hit": false,
      "t": 80351.99999999948,
      "d": 8.927999999999884,
      "v": 56
    },
    {
      "midi": 63,
      "hit": false,
      "t": 80351.99999999949,
      "d": 35.711999999999534,
      "v": 70
    },
    {
      "midi": 60,
      "hit": false,
      "t": 80351.99999999949,
      "d": 35.711999999999534,
      "v": 80
    },
    {
      "midi": 75,
      "hit": false,
      "t": 80351.99999999988,
      "d": 26.78399999999965,
      "v": 97
    },
    {
      "midi": 67,
      "hit": false,
      "t": 80351.99999999988,
      "d": 26.78399999999965,
      "v": 97
    },
    {
      "midi": 40,
      "hit": false,
      "t": 80459.13599999947,
      "d": 8.927999999999884,
      "v": 84
    },
    {
      "midi": 63,
      "hit": false,
      "t": 80459.13599999949,
      "d": 35.711999999999534,
      "v": 70
    },
    {
      "midi": 60,
      "hit": false,
      "t": 80459.13599999949,
      "d": 35.711999999999534,
      "v": 80
    },
    {
      "midi": 40,
      "hit": false,
      "t": 80566.27199999947,
      "d": 8.927999999999884,
      "v": 112
    },
    {
      "midi": 48,
      "hit": false,
      "t": 80566.27199999984,
      "d": 178.55999999999767,
      "v": 110
    },
    {
      "midi": 72,
      "hit": false,
      "t": 80566.27199999985,
      "d": 71.42399999999907,
      "v": 110
    },
    {
      "midi": 67,
      "hit": false,
      "t": 80566.27199999985,
      "d": 71.42399999999907,
      "v": 110
    },
    {
      "midi": 72,
      "hit": false,
      "t": 80566.27199999988,
      "d": 107.1359999999986,
      "v": 90
    },
    {
      "midi": 67,
      "hit": false,
      "t": 80566.27199999988,
      "d": 107.1359999999986,
      "v": 50
    },
    {
      "midi": 60,
      "hit": false,
      "t": 80566.27199999997,
      "d": 71.42399999999907,
      "v": 120
    },
    {
      "midi": 55,
      "hit": false,
      "t": 80566.27199999997,
      "d": 71.42399999999907,
      "v": 110
    },
    {
      "midi": 40,
      "hit": false,
      "t": 80780.54399999947,
      "d": 8.927999999999884,
      "v": 112
    },
    {
      "midi": 72,
      "hit": false,
      "t": 80780.54399999985,
      "d": 71.42399999999907,
      "v": 110
    },
    {
      "midi": 67,
      "hit": false,
      "t": 80780.54399999985,
      "d": 71.42399999999907,
      "v": 100
    },
    {
      "midi": 60,
      "hit": false,
      "t": 80780.54399999997,
      "d": 71.42399999999907,
      "v": 110
    },
    {
      "midi": 55,
      "hit": false,
      "t": 80780.54399999997,
      "d": 71.42399999999907,
      "v": 100
    },
    {
      "midi": 45,
      "hit": false,
      "t": 80887.67999999947,
      "d": 8.927999999999884,
      "v": 112
    },
    {
      "midi": 70,
      "hit": false,
      "t": 80887.67999999985,
      "d": 71.42399999999907,
      "v": 110
    },
    {
      "midi": 67,
      "hit": false,
      "t": 80887.67999999985,
      "d": 71.42399999999907,
      "v": 110
    },
    {
      "midi": 58,
      "hit": false,
      "t": 80887.67999999996,
      "d": 71.42399999999907,
      "v": 120
    },
    {
      "midi": 55,
      "hit": false,
      "t": 80887.67999999996,
      "d": 71.42399999999907,
      "v": 110
    },
    {
      "midi": 45,
      "hit": false,
      "t": 81101.95199999947,
      "d": 8.927999999999884,
      "v": 112
    },
    {
      "midi": 70,
      "hit": false,
      "t": 81101.95199999984,
      "d": 71.42399999999907,
      "v": 110
    },
    {
      "midi": 67,
      "hit": false,
      "t": 81101.95199999984,
      "d": 71.42399999999907,
      "v": 100
    },
    {
      "midi": 58,
      "hit": false,
      "t": 81101.95199999996,
      "d": 71.42399999999907,
      "v": 110
    },
    {
      "midi": 55,
      "hit": false,
      "t": 81101.95199999996,
      "d": 71.42399999999907,
      "v": 100
    },
    {
      "midi": 41,
      "hit": false,
      "t": 81209.08799999946,
      "d": 8.927999999999884,
      "v": 84
    },
    {
      "midi": 72,
      "hit": false,
      "t": 81209.08799999984,
      "d": 71.42399999999907,
      "v": 110
    },
    {
      "midi": 67,
      "hit": false,
      "t": 81209.08799999984,
      "d": 71.42399999999907,
      "v": 110
    },
    {
      "midi": 60,
      "hit": false,
      "t": 81209.08799999996,
      "d": 71.42399999999907,
      "v": 127
    },
    {
      "midi": 55,
      "hit": false,
      "t": 81209.08799999996,
      "d": 71.42399999999907,
      "v": 110
    },
    {
      "midi": 41,
      "hit": false,
      "t": 81423.35999999946,
      "d": 8.927999999999884,
      "v": 112
    },
    {
      "midi": 40,
      "hit": false,
      "t": 81744.76799999946,
      "d": 8.927999999999884,
      "v": 84
    },
    {
      "midi": 40,
      "hit": false,
      "t": 81851.90399999946,
      "d": 8.927999999999884,
      "v": 112
    },
    {
      "midi": 42,
      "hit": false,
      "t": 81959.03999999946,
      "d": 8.927999999999884,
      "v": 70
    },
    {
      "midi": 46,
      "hit": false,
      "t": 82066.17599999945,
      "d": 8.927999999999884,
      "v": 98
    },
    {
      "midi": 57,
      "hit": false,
      "t": 82280.44799999945,
      "d": 8.927999999999884,
      "v": 84
    },
    {
      "midi": 36,
      "hit": false,
      "t": 82280.44799999945,
      "d": 8.927999999999884,
      "v": 112
    },
    {
      "midi": 41,
      "hit": false,
      "t": 82280.44799999983,
      "d": 535.679999999993,
      "v": 110
    },
    {
      "midi": 84,
      "hit": false,
      "t": 82280.44799999984,
      "d": 714.2400000000052,
      "v": 80
    },
    {
      "midi": 80,
      "hit": false,
      "t": 82280.44799999984,
      "d": 714.2400000000052,
      "v": 73
    },
    {
      "midi": 72,
      "hit": false,
      "t": 82280.44799999984,
      "d": 714.2400000000052,
      "v": 93
    },
    {
      "midi": 68,
      "hit": false,
      "t": 82280.44799999984,
      "d": 714.2400000000052,
      "v": 73
    },
    {
      "midi": 65,
      "hit": false,
      "t": 82280.44799999984,
      "d": 714.2400000000052,
      "v": 73
    },
    {
      "midi": 84,
      "hit": false,
      "t": 82280.4479999999,
      "d": 1705.2480000000069,
      "v": 80
    },
    {
      "midi": 67,
      "hit": false,
      "t": 82280.448,
      "d": 62.495999999999185,
      "v": 120
    },
    {
      "midi": 68,
      "hit": false,
      "t": 82342.944,
      "d": 62.495999999999185,
      "v": 115
    },
    {
      "midi": 70,
      "hit": false,
      "t": 82405.44,
      "d": 71.42399999999907,
      "v": 110
    },
    {
      "midi": 72,
      "hit": false,
      "t": 82476.864,
      "d": 80.35199999999895,
      "v": 110
    },
    {
      "midi": 42,
      "hit": false,
      "t": 82494.71999999945,
      "d": 8.927999999999884,
      "v": 84
    },
    {
      "midi": 70,
      "hit": false,
      "t": 82557.216,
      "d": 71.42399999999907,
      "v": 110
    },
    {
      "midi": 68,
      "hit": false,
      "t": 82628.64,
      "d": 80.35199999999895,
      "v": 115
    },
    {
      "midi": 46,
      "hit": false,
      "t": 82708.99199999945,
      "d": 8.927999999999884,
      "v": 70
    },
    {
      "midi": 40,
      "hit": false,
      "t": 82708.99199999945,
      "d": 8.927999999999884,
      "v": 112
    },
    {
      "midi": 67,
      "hit": false,
      "t": 82708.992,
      "d": 62.495999999999185,
      "v": 120
    },
    {
      "midi": 65,
      "hit": false,
      "t": 82771.488,
      "d": 62.495999999999185,
      "v": 120
    },
    {
      "midi": 68,
      "hit": false,
      "t": 82833.984,
      "d": 62.495999999999185,
      "v": 115
    },
    {
      "midi": 70,
      "hit": false,
      "t": 82896.48,
      "d": 62.495999999999185,
      "v": 110
    },
    {
      "midi": 42,
      "hit": false,
      "t": 82923.26399999944,
      "d": 8.927999999999884,
      "v": 84
    },
    {
      "midi": 72,
      "hit": false,
      "t": 82958.976,
      "d": 71.42399999999907,
      "v": 110
    },
    {
      "midi": 70,
      "hit": false,
      "t": 83030.4,
      "d": 71.42399999999907,
      "v": 110
    },
    {
      "midi": 68,
      "hit": false,
      "t": 83101.824,
      "d": 71.42399999999907,
      "v": 115
    },
    {
      "midi": 46,
      "hit": false,
      "t": 83137.53599999944,
      "d": 8.927999999999884,
      "v": 70
    },
    {
      "midi": 36,
      "hit": false,
      "t": 83137.53599999944,
      "d": 8.927999999999884,
      "v": 112
    },
    {
      "midi": 41,
      "hit": false,
      "t": 83137.53599999982,
      "d": 321.4079999999958,
      "v": 110
    },
    {
      "midi": 67,
      "hit": false,
      "t": 83173.24799999999,
      "d": 62.495999999999185,
      "v": 120
    },
    {
      "midi": 65,
      "hit": false,
      "t": 83235.74399999999,
      "d": 62.495999999999185,
      "v": 120
    },
    {
      "midi": 68,
      "hit": false,
      "t": 83298.23999999999,
      "d": 62.495999999999185,
      "v": 115
    },
    {
      "midi": 42,
      "hit": false,
      "t": 83351.80799999944,
      "d": 8.927999999999884,
      "v": 84
    },
    {
      "midi": 70,
      "hit": false,
      "t": 83360.73599999999,
      "d": 71.42399999999907,
      "v": 110
    },
    {
      "midi": 72,
      "hit": false,
      "t": 83432.15999999999,
      "d": 71.42399999999907,
      "v": 110
    },
    {
      "midi": 70,
      "hit": false,
      "t": 83503.58399999999,
      "d": 62.495999999999185,
      "v": 110
    },
    {
      "midi": 46,
      "hit": false,
      "t": 83566.07999999943,
      "d": 8.927999999999884,
      "v": 70
    },
    {
      "midi": 41,
      "hit": false,
      "t": 83566.07999999943,
      "d": 8.927999999999884,
      "v": 112
    },
    {
      "midi": 40,
      "hit": false,
      "t": 83566.07999999943,
      "d": 8.927999999999884,
      "v": 112
    },
    {
      "midi": 41,
      "hit": false,
      "t": 83566.07999999981,
      "d": 178.55999999999767,
      "v": 110
    },
    {
      "midi": 68,
      "hit": false,
      "t": 83566.07999999999,
      "d": 80.35199999999895,
      "v": 115
    },
    {
      "midi": 67,
      "hit": false,
      "t": 83646.43199999999,
      "d": 62.495999999999185,
      "v": 120
    },
    {
      "midi": 65,
      "hit": false,
      "t": 83708.92799999999,
      "d": 62.495999999999185,
      "v": 120
    },
    {
      "midi": 67,
      "hit": false,
      "t": 83771.42399999998,
      "d": 62.495999999999185,
      "v": 120
    },
    {
      "midi": 42,
      "hit": false,
      "t": 83780.35199999943,
      "d": 8.927999999999884,
      "v": 84
    },
    {
      "midi": 43,
      "hit": false,
      "t": 83780.35199999981,
      "d": 178.55999999999767,
      "v": 110
    },
    {
      "midi": 68,
      "hit": false,
      "t": 83833.91999999998,
      "d": 80.35199999999895,
      "v": 115
    },
    {
      "midi": 70,
      "hit": false,
      "t": 83914.27199999998,
      "d": 80.35199999999895,
      "v": 112
    },
    {
      "midi": 46,
      "hit": false,
      "t": 83994.62399999943,
      "d": 8.927999999999884,
      "v": 70
    },
    {
      "midi": 36,
      "hit": false,
      "t": 83994.62399999943,
      "d": 8.927999999999884,
      "v": 112
    },
    {
      "midi": 46,
      "hit": false,
      "t": 83994.6239999998,
      "d": 535.679999999993,
      "v": 110
    },
    {
      "midi": 87,
      "hit": false,
      "t": 83994.62399999991,
      "d": 1705.2480000000069,
      "v": 80
    },
    {
      "midi": 72,
      "hit": false,
      "t": 83994.62399999998,
      "d": 62.495999999999185,
      "v": 120
    },
    {
      "midi": 42,
      "hit": false,
      "t": 84208.89599999943,
      "d": 8.927999999999884,
      "v": 84
    },
    {
      "midi": 46,
      "hit": false,
      "t": 84423.16799999942,
      "d": 8.927999999999884,
      "v": 70
    },
    {
      "midi": 40,
      "hit": false,
      "t": 84423.16799999942,
      "d": 8.927999999999884,
      "v": 112
    },
    {
      "midi": 42,
      "hit": false,
      "t": 84637.43999999942,
      "d": 8.927999999999884,
      "v": 84
    },
    {
      "midi": 65,
      "hit": false,
      "t": 84637.43999999999,
      "d": 142.84799999999814,
      "v": 110
    },
    {
      "midi": 46,
      "hit": false,
      "t": 84851.71199999942,
      "d": 8.927999999999884,
      "v": 70
    },
    {
      "midi": 36,
      "hit": false,
      "t": 84851.71199999942,
      "d": 8.927999999999884,
      "v": 112
    },
    {
      "midi": 46,
      "hit": false,
      "t": 84851.7119999998,
      "d": 321.4079999999958,
      "v": 110
    },
    {
      "midi": 68,
      "hit": false,
      "t": 84851.71199999998,
      "d": 142.84799999999814,
      "v": 100
    },
    {
      "midi": 42,
      "hit": false,
      "t": 85065.98399999941,
      "d": 8.927999999999884,
      "v": 84
    },
    {
      "midi": 70,
      "hit": false,
      "t": 85065.98399999998,
      "d": 142.84799999999814,
      "v": 105
    },
    {
      "midi": 46,
      "hit": false,
      "t": 85280.25599999941,
      "d": 8.927999999999884,
      "v": 70
    },
    {
      "midi": 41,
      "hit": false,
      "t": 85280.25599999941,
      "d": 8.927999999999884,
      "v": 112
    },
    {
      "midi": 40,
      "hit": false,
      "t": 85280.25599999941,
      "d": 8.927999999999884,
      "v": 112
    },
    {
      "midi": 48,
      "hit": false,
      "t": 85280.25599999979,
      "d": 178.55999999999767,
      "v": 110
    },
    {
      "midi": 72,
      "hit": false,
      "t": 85280.25599999998,
      "d": 142.84799999999814,
      "v": 110
    },
    {
      "midi": 42,
      "hit": false,
      "t": 85494.52799999941,
      "d": 8.927999999999884,
      "v": 84
    },
    {
      "midi": 46,
      "hit": false,
      "t": 85494.52799999979,
      "d": 178.55999999999767,
      "v": 110
    },
    {
      "midi": 75,
      "hit": false,
      "t": 85494.52799999998,
      "d": 142.84799999999814,
      "v": 115
    },
    {
      "midi": 46,
      "hit": false,
      "t": 85708.7999999994,
      "d": 8.927999999999884,
      "v": 70
    },
    {
      "midi": 36,
      "hit": false,
      "t": 85708.7999999994,
      "d": 8.927999999999884,
      "v": 112
    },
    {
      "midi": 43,
      "hit": false,
      "t": 85708.79999999978,
      "d": 535.679999999993,
      "v": 110
    },
    {
      "midi": 91,
      "hit": false,
      "t": 85708.79999999992,
      "d": 3231.9360000000015,
      "v": 80
    },
    {
      "midi": 79,
      "hit": false,
      "t": 85708.79999999997,
      "d": 249.98399999999674,
      "v": 115
    },
    {
      "midi": 42,
      "hit": false,
      "t": 85923.0719999994,
      "d": 8.927999999999884,
      "v": 84
    },
    {
      "midi": 79,
      "hit": false,
      "t": 86030.20799999997,
      "d": 249.98399999999674,
      "v": 100
    },
    {
      "midi": 46,
      "hit": false,
      "t": 86137.3439999994,
      "d": 8.927999999999884,
      "v": 70
    },
    {
      "midi": 40,
      "hit": false,
      "t": 86137.3439999994,
      "d": 8.927999999999884,
      "v": 112
    },
    {
      "midi": 42,
      "hit": false,
      "t": 86351.6159999994,
      "d": 8.927999999999884,
      "v": 84
    },
    {
      "midi": 77,
      "hit": false,
      "t": 86351.61599999997,
      "d": 419.61599999999453,
      "v": 105
    },
    {
      "midi": 46,
      "hit": false,
      "t": 86565.8879999994,
      "d": 8.927999999999884,
      "v": 70
    },
    {
      "midi": 36,
      "hit": false,
      "t": 86565.8879999994,
      "d": 8.927999999999884,
      "v": 112
    },
    {
      "midi": 43,
      "hit": false,
      "t": 86565.88799999977,
      "d": 321.4079999999958,
      "v": 110
    },
    {
      "midi": 42,
      "hit": false,
      "t": 86780.15999999939,
      "d": 8.927999999999884,
      "v": 84
    },
    {
      "midi": 75,
      "hit": false,
      "t": 86780.15999999996,
      "d": 178.55999999999767,
      "v": 100
    },
    {
      "midi": 46,
      "hit": false,
      "t": 86994.43199999939,
      "d": 8.927999999999884,
      "v": 70
    },
    {
      "midi": 41,
      "hit": false,
      "t": 86994.43199999939,
      "d": 8.927999999999884,
      "v": 112
    },
    {
      "midi": 40,
      "hit": false,
      "t": 86994.43199999939,
      "d": 8.927999999999884,
      "v": 112
    },
    {
      "midi": 46,
      "hit": false,
      "t": 86994.43199999977,
      "d": 178.55999999999767,
      "v": 110
    },
    {
      "midi": 72,
      "hit": false,
      "t": 86994.43199999996,
      "d": 178.55999999999767,
      "v": 90
    },
    {
      "midi": 42,
      "hit": false,
      "t": 87208.70399999939,
      "d": 8.927999999999884,
      "v": 84
    },
    {
      "midi": 46,
      "hit": false,
      "t": 87208.70399999977,
      "d": 178.55999999999767,
      "v": 110
    },
    {
      "midi": 75,
      "hit": false,
      "t": 87208.70399999995,
      "d": 178.55999999999767,
      "v": 100
    },
    {
      "midi": 46,
      "hit": false,
      "t": 87422.97599999938,
      "d": 8.927999999999884,
      "v": 70
    },
    {
      "midi": 36,
      "hit": false,
      "t": 87422.97599999938,
      "d": 8.927999999999884,
      "v": 112
    },
    {
      "midi": 36,
      "hit": false,
      "t": 87422.97599999976,
      "d": 357.11999999999534,
      "v": 110
    },
    {
      "midi": 84,
      "hit": false,
      "t": 87422.97599999995,
      "d": 312.4799999999959,
      "v": 110
    },
    {
      "midi": 42,
      "hit": false,
      "t": 87637.24799999938,
      "d": 8.927999999999884,
      "v": 84
    },
    {
      "midi": 63,
      "hit": false,
      "t": 87744.38399999985,
      "d": 53.5679999999993,
      "v": 100
    },
    {
      "midi": 60,
      "hit": false,
      "t": 87744.38399999985,
      "d": 53.5679999999993,
      "v": 93
    },
    {
      "midi": 84,
      "hit": false,
      "t": 87744.38399999995,
      "d": 624.9599999999919,
      "v": 110
    },
    {
      "midi": 46,
      "hit": false,
      "t": 87851.51999999938,
      "d": 8.927999999999884,
      "v": 70
    },
    {
      "midi": 40,
      "hit": false,
      "t": 87851.51999999938,
      "d": 8.927999999999884,
      "v": 112
    },
    {
      "midi": 48,
      "hit": false,
      "t": 87851.51999999976,
      "d": 357.11999999999534,
      "v": 110
    },
    {
      "midi": 42,
      "hit": false,
      "t": 88065.79199999938,
      "d": 8.927999999999884,
      "v": 84
    },
    {
      "midi": 72,
      "hit": false,
      "t": 88065.79199999984,
      "d": 321.4079999999958,
      "v": 110
    },
    {
      "midi": 67,
      "hit": false,
      "t": 88065.79199999984,
      "d": 321.4079999999958,
      "v": 110
    },
    {
      "midi": 46,
      "hit": false,
      "t": 88280.06399999937,
      "d": 8.927999999999884,
      "v": 70
    },
    {
      "midi": 36,
      "hit": false,
      "t": 88280.06399999937,
      "d": 8.927999999999884,
      "v": 112
    },
    {
      "midi": 36,
      "hit": false,
      "t": 88280.06399999975,
      "d": 178.55999999999767,
      "v": 110
    },
    {
      "midi": 42,
      "hit": false,
      "t": 88494.33599999937,
      "d": 8.927999999999884,
      "v": 84
    },
    {
      "midi": 36,
      "hit": false,
      "t": 88494.33599999937,
      "d": 8.927999999999884,
      "v": 112
    },
    {
      "midi": 36,
      "hit": false,
      "t": 88494.33599999975,
      "d": 178.55999999999767,
      "v": 110
    },
    {
      "midi": 70,
      "hit": false,
      "t": 88494.33599999984,
      "d": 71.42399999999907,
      "v": 110
    },
    {
      "midi": 67,
      "hit": false,
      "t": 88494.33599999984,
      "d": 71.42399999999907,
      "v": 100
    },
    {
      "midi": 46,
      "hit": false,
      "t": 88708.60799999937,
      "d": 8.927999999999884,
      "v": 70
    },
    {
      "midi": 41,
      "hit": false,
      "t": 88708.60799999937,
      "d": 8.927999999999884,
      "v": 112
    },
    {
      "midi": 40,
      "hit": false,
      "t": 88708.60799999937,
      "d": 8.927999999999884,
      "v": 112
    },
    {
      "midi": 36,
      "hit": false,
      "t": 88708.60799999975,
      "d": 357.11999999999534,
      "v": 110
    },
    {
      "midi": 68,
      "hit": false,
      "t": 88708.60799999983,
      "d": 71.42399999999907,
      "v": 110
    },
    {
      "midi": 65,
      "hit": false,
      "t": 88708.60799999983,
      "d": 71.42399999999907,
      "v": 100
    },
    {
      "midi": 67,
      "hit": false,
      "t": 88815.74399999983,
      "d": 71.42399999999907,
      "v": 110
    },
    {
      "midi": 63,
      "hit": false,
      "t": 88815.74399999983,
      "d": 71.42399999999907,
      "v": 100
    },
    {
      "midi": 42,
      "hit": false,
      "t": 88922.87999999936,
      "d": 8.927999999999884,
      "v": 84
    },
    {
      "midi": 65,
      "hit": false,
      "t": 88922.87999999983,
      "d": 160.7039999999979,
      "v": 90
    },
    {
      "midi": 62,
      "hit": false,
      "t": 88922.87999999983,
      "d": 160.7039999999979,
      "v": 80
    },
    {
      "midi": 79,
      "hit": false,
      "t": 88922.87999999993,
      "d": 160.7039999999979,
      "v": 120
    },
    {
      "midi": 46,
      "hit": false,
      "t": 89137.15199999936,
      "d": 8.927999999999884,
      "v": 70
    },
    {
      "midi": 36,
      "hit": false,
      "t": 89137.15199999936,
      "d": 8.927999999999884,
      "v": 112
    },
    {
      "midi": 41,
      "hit": false,
      "t": 89137.15199999974,
      "d": 321.4079999999958,
      "v": 110
    },
    {
      "midi": 67,
      "hit": false,
      "t": 89137.15199999983,
      "d": 53.5679999999993,
      "v": 100
    },
    {
      "midi": 63,
      "hit": false,
      "t": 89137.15199999983,
      "d": 53.5679999999993,
      "v": 100
    },
    {
      "midi": 60,
      "hit": false,
      "t": 89137.15199999983,
      "d": 53.5679999999993,
      "v": 90
    },
    {
      "midi": 84,
      "hit": false,
      "t": 89137.15199999991,
      "d": 1705.2480000000069,
      "v": 80
    },
    {
      "midi": 82,
      "hit": false,
      "t": 89137.15199999993,
      "d": 624.9599999999919,
      "v": 120
    },
    {
      "midi": 42,
      "hit": false,
      "t": 89351.42399999936,
      "d": 8.927999999999884,
      "v": 84
    },
    {
      "midi": 65,
      "hit": false,
      "t": 89458.55999999982,
      "d": 53.5679999999993,
      "v": 100
    },
    {
      "midi": 63,
      "hit": false,
      "t": 89458.55999999982,
      "d": 53.5679999999993,
      "v": 100
    },
    {
      "midi": 60,
      "hit": false,
      "t": 89458.55999999982,
      "d": 53.5679999999993,
      "v": 90
    },
    {
      "midi": 46,
      "hit": false,
      "t": 89565.69599999936,
      "d": 8.927999999999884,
      "v": 70
    },
    {
      "midi": 40,
      "hit": false,
      "t": 89565.69599999936,
      "d": 8.927999999999884,
      "v": 112
    },
    {
      "midi": 41,
      "hit": false,
      "t": 89565.69599999973,
      "d": 321.4079999999958,
      "v": 110
    },
    {
      "midi": 42,
      "hit": false,
      "t": 89779.96799999935,
      "d": 8.927999999999884,
      "v": 84
    },
    {
      "midi": 67,
      "hit": false,
      "t": 89779.96799999982,
      "d": 53.5679999999993,
      "v": 100
    },
    {
      "midi": 63,
      "hit": false,
      "t": 89779.96799999982,
      "d": 53.5679999999993,
      "v": 100
    },
    {
      "midi": 60,
      "hit": false,
      "t": 89779.96799999982,
      "d": 53.5679999999993,
      "v": 90
    },
    {
      "midi": 79,
      "hit": false,
      "t": 89779.96799999992,
      "d": 401.75999999999476,
      "v": 120
    },
    {
      "midi": 46,
      "hit": false,
      "t": 89994.23999999935,
      "d": 8.927999999999884,
      "v": 70
    },
    {
      "midi": 36,
      "hit": false,
      "t": 89994.23999999935,
      "d": 8.927999999999884,
      "v": 112
    },
    {
      "midi": 41,
      "hit": false,
      "t": 89994.23999999973,
      "d": 321.4079999999958,
      "v": 110
    },
    {
      "midi": 42,
      "hit": false,
      "t": 90208.51199999935,
      "d": 8.927999999999884,
      "v": 84
    },
    {
      "midi": 77,
      "hit": false,
      "t": 90208.51199999992,
      "d": 205.34399999999732,
      "v": 100
    },
    {
      "midi": 46,
      "hit": false,
      "t": 90422.78399999934,
      "d": 8.927999999999884,
      "v": 70
    },
    {
      "midi": 41,
      "hit": false,
      "t": 90422.78399999934,
      "d": 8.927999999999884,
      "v": 112
    },
    {
      "midi": 40,
      "hit": false,
      "t": 90422.78399999934,
      "d": 8.927999999999884,
      "v": 112
    },
    {
      "midi": 36,
      "hit": false,
      "t": 90422.78399999972,
      "d": 62.495999999999185,
      "v": 110
    },
    {
      "midi": 75,
      "hit": false,
      "t": 90422.78399999991,
      "d": 205.34399999999732,
      "v": 80
    },
    {
      "midi": 36,
      "hit": false,
      "t": 90529.91999999972,
      "d": 62.495999999999185,
      "v": 110
    },
    {
      "midi": 42,
      "hit": false,
      "t": 90637.05599999934,
      "d": 8.927999999999884,
      "v": 84
    },
    {
      "midi": 41,
      "hit": false,
      "t": 90637.05599999972,
      "d": 205.34399999999732,
      "v": 110
    },
    {
      "midi": 77,
      "hit": false,
      "t": 90637.05599999991,
      "d": 196.41599999999744,
      "v": 100
    },
    {
      "midi": 46,
      "hit": false,
      "t": 90851.32799999934,
      "d": 8.927999999999884,
      "v": 70
    },
    {
      "midi": 36,
      "hit": false,
      "t": 90851.32799999934,
      "d": 8.927999999999884,
      "v": 112
    },
    {
      "midi": 34,
      "hit": false,
      "t": 90851.32799999972,
      "d": 535.679999999993,
      "v": 110
    },
    {
      "midi": 67,
      "hit": false,
      "t": 90851.32799999982,
      "d": 53.5679999999993,
      "v": 100
    },
    {
      "midi": 63,
      "hit": false,
      "t": 90851.32799999982,
      "d": 53.5679999999993,
      "v": 100
    },
    {
      "midi": 60,
      "hit": false,
      "t": 90851.32799999982,
      "d": 53.5679999999993,
      "v": 90
    },
    {
      "midi": 79,
      "hit": false,
      "t": 90851.3279999999,
      "d": 401.75999999999476,
      "v": 120
    },
    {
      "midi": 67,
      "hit": false,
      "t": 90851.32799999992,
      "d": 1705.2480000000069,
      "v": 60
    },
    {
      "midi": 60,
      "hit": false,
      "t": 90851.32799999992,
      "d": 1705.2480000000069,
      "v": 80
    },
    {
      "midi": 42,
      "hit": false,
      "t": 91065.59999999934,
      "d": 8.927999999999884,
      "v": 84
    },
    {
      "midi": 67,
      "hit": false,
      "t": 91172.73599999982,
      "d": 53.5679999999993,
      "v": 100
    },
    {
      "midi": 63,
      "hit": false,
      "t": 91172.73599999982,
      "d": 53.5679999999993,
      "v": 100
    },
    {
      "midi": 60,
      "hit": false,
      "t": 91172.73599999982,
      "d": 53.5679999999993,
      "v": 90
    },
    {
      "midi": 46,
      "hit": false,
      "t": 91279.87199999933,
      "d": 8.927999999999884,
      "v": 70
    },
    {
      "midi": 40,
      "hit": false,
      "t": 91279.87199999933,
      "d": 8.927999999999884,
      "v": 112
    },
    {
      "midi": 77,
      "hit": false,
      "t": 91279.8719999999,
      "d": 205.34399999999732,
      "v": 100
    },
    {
      "midi": 42,
      "hit": false,
      "t": 91494.14399999933,
      "d": 8.927999999999884,
      "v": 84
    },
    {
      "midi": 67,
      "hit": false,
      "t": 91494.14399999981,
      "d": 53.5679999999993,
      "v": 100
    },
    {
      "midi": 63,
      "hit": false,
      "t": 91494.14399999981,
      "d": 53.5679999999993,
      "v": 100
    },
    {
      "midi": 60,
      "hit": false,
      "t": 91494.14399999981,
      "d": 53.5679999999993,
      "v": 90
    },
    {
      "midi": 75,
      "hit": false,
      "t": 91494.1439999999,
      "d": 205.34399999999732,
      "v": 80
    },
    {
      "midi": 46,
      "hit": false,
      "t": 91708.41599999933,
      "d": 8.927999999999884,
      "v": 70
    },
    {
      "midi": 36,
      "hit": false,
      "t": 91708.41599999933,
      "d": 8.927999999999884,
      "v": 112
    },
    {
      "midi": 34,
      "hit": false,
      "t": 91708.4159999997,
      "d": 357.11999999999534,
      "v": 110
    },
    {
      "midi": 74,
      "hit": false,
      "t": 91708.4159999999,
      "d": 303.55199999999604,
      "v": 100
    },
    {
      "midi": 42,
      "hit": false,
      "t": 91922.68799999933,
      "d": 8.927999999999884,
      "v": 84
    },
    {
      "midi": 75,
      "hit": false,
      "t": 92029.82399999989,
      "d": 178.55999999999767,
      "v": 90
    },
    {
      "midi": 46,
      "hit": false,
      "t": 92136.95999999932,
      "d": 8.927999999999884,
      "v": 70
    },
    {
      "midi": 41,
      "hit": false,
      "t": 92136.95999999932,
      "d": 8.927999999999884,
      "v": 112
    },
    {
      "midi": 40,
      "hit": false,
      "t": 92136.95999999932,
      "d": 8.927999999999884,
      "v": 112
    },
    {
      "midi": 36,
      "hit": false,
      "t": 92136.9599999997,
      "d": 178.55999999999767,
      "v": 110
    },
    {
      "midi": 42,
      "hit": false,
      "t": 92351.23199999932,
      "d": 8.927999999999884,
      "v": 84
    },
    {
      "midi": 34,
      "hit": false,
      "t": 92351.2319999997,
      "d": 178.55999999999767,
      "v": 110
    },
    {
      "midi": 82,
      "hit": false,
      "t": 92351.23199999989,
      "d": 535.679999999993,
      "v": 120
    },
    {
      "midi": 46,
      "hit": false,
      "t": 92565.50399999932,
      "d": 8.927999999999884,
      "v": 70
    },
    {
      "midi": 36,
      "hit": false,
      "t": 92565.50399999932,
      "d": 8.927999999999884,
      "v": 112
    },
    {
      "midi": 39,
      "hit": false,
      "t": 92565.5039999997,
      "d": 714.2400000000052,
      "v": 110
    },
    {
      "midi": 70,
      "hit": false,
      "t": 92565.50399999993,
      "d": 848.1600000000035,
      "v": 60
    },
    {
      "midi": 63,
      "hit": false,
      "t": 92565.50399999993,
      "d": 848.1600000000035,
      "v": 80
    },
    {
      "midi": 51,
      "hit": false,
      "t": 92565.50399999996,
      "d": 803.5200000000041,
      "v": 80
    },
    {
      "midi": 42,
      "hit": false,
      "t": 92779.77599999931,
      "d": 8.927999999999884,
      "v": 84
    },
    {
      "midi": 46,
      "hit": false,
      "t": 92994.04799999931,
      "d": 8.927999999999884,
      "v": 70
    },
    {
      "midi": 40,
      "hit": false,
      "t": 92994.04799999931,
      "d": 8.927999999999884,
      "v": 112
    },
    {
      "midi": 84,
      "hit": false,
      "t": 92994.04799999988,
      "d": 107.1359999999986,
      "v": 100
    },
    {
      "midi": 42,
      "hit": false,
      "t": 93208.31999999931,
      "d": 8.927999999999884,
      "v": 84
    },
    {
      "midi": 87,
      "hit": false,
      "t": 93208.31999999988,
      "d": 133.91999999999825,
      "v": 110
    },
    {
      "midi": 46,
      "hit": false,
      "t": 93422.5919999993,
      "d": 8.927999999999884,
      "v": 70
    },
    {
      "midi": 36,
      "hit": false,
      "t": 93422.5919999993,
      "d": 8.927999999999884,
      "v": 112
    },
    {
      "midi": 38,
      "hit": false,
      "t": 93422.5919999997,
      "d": 714.2400000000052,
      "v": 110
    },
    {
      "midi": 87,
      "hit": false,
      "t": 93422.59199999987,
      "d": 178.55999999999767,
      "v": 110
    },
    {
      "midi": 65,
      "hit": false,
      "t": 93422.59199999993,
      "d": 848.1600000000035,
      "v": 60
    },
    {
      "midi": 62,
      "hit": false,
      "t": 93422.59199999993,
      "d": 848.1600000000035,
      "v": 80
    },
    {
      "midi": 50,
      "hit": false,
      "t": 93422.59199999996,
      "d": 803.5200000000041,
      "v": 80
    },
    {
      "midi": 42,
      "hit": false,
      "t": 93636.8639999993,
      "d": 8.927999999999884,
      "v": 84
    },
    {
      "midi": 84,
      "hit": false,
      "t": 93672.57599999987,
      "d": 133.91999999999825,
      "v": 100
    },
    {
      "midi": 46,
      "hit": false,
      "t": 93851.1359999993,
      "d": 8.927999999999884,
      "v": 70
    },
    {
      "midi": 41,
      "hit": false,
      "t": 93851.1359999993,
      "d": 8.927999999999884,
      "v": 112
    },
    {
      "midi": 40,
      "hit": false,
      "t": 93851.1359999993,
      "d": 8.927999999999884,
      "v": 112
    },
    {
      "midi": 82,
      "hit": false,
      "t": 93886.84799999987,
      "d": 133.91999999999825,
      "v": 90
    },
    {
      "midi": 42,
      "hit": false,
      "t": 94065.4079999993,
      "d": 8.927999999999884,
      "v": 84
    },
    {
      "midi": 77,
      "hit": false,
      "t": 94101.11999999986,
      "d": 133.91999999999825,
      "v": 100
    },
    {
      "midi": 46,
      "hit": false,
      "t": 94279.6799999993,
      "d": 8.927999999999884,
      "v": 70
    },
    {
      "midi": 36,
      "hit": false,
      "t": 94279.6799999993,
      "d": 8.927999999999884,
      "v": 112
    },
    {
      "midi": 36,
      "hit": false,
      "t": 94279.6799999997,
      "d": 714.2400000000052,
      "v": 110
    },
    {
      "midi": 67,
      "hit": false,
      "t": 94279.6799999998,
      "d": 848.1600000000035,
      "v": 80
    },
    {
      "midi": 60,
      "hit": false,
      "t": 94279.6799999998,
      "d": 848.1600000000035,
      "v": 100
    },
    {
      "midi": 75,
      "hit": false,
      "t": 94279.67999999986,
      "d": 178.55999999999767,
      "v": 110
    },
    {
      "midi": 67,
      "hit": false,
      "t": 94279.67999999993,
      "d": 848.1600000000035,
      "v": 60
    },
    {
      "midi": 60,
      "hit": false,
      "t": 94279.67999999993,
      "d": 848.1600000000035,
      "v": 80
    },
    {
      "midi": 48,
      "hit": false,
      "t": 94279.67999999996,
      "d": 803.5200000000041,
      "v": 80
    },
    {
      "midi": 42,
      "hit": false,
      "t": 94493.95199999929,
      "d": 8.927999999999884,
      "v": 84
    },
    {
      "midi": 72,
      "hit": false,
      "t": 94493.95199999986,
      "d": 71.42399999999907,
      "v": 90
    },
    {
      "midi": 46,
      "hit": false,
      "t": 94708.22399999929,
      "d": 8.927999999999884,
      "v": 70
    },
    {
      "midi": 40,
      "hit": false,
      "t": 94708.22399999929,
      "d": 8.927999999999884,
      "v": 112
    },
    {
      "midi": 72,
      "hit": false,
      "t": 94708.22399999986,
      "d": 178.55999999999767,
      "v": 100
    },
    {
      "midi": 42,
      "hit": false,
      "t": 94922.49599999929,
      "d": 8.927999999999884,
      "v": 84
    },
    {
      "midi": 40,
      "hit": false,
      "t": 94922.49599999929,
      "d": 8.927999999999884,
      "v": 28
    },
    {
      "midi": 70,
      "hit": false,
      "t": 94922.49599999985,
      "d": 71.42399999999907,
      "v": 90
    },
    {
      "midi": 40,
      "hit": false,
      "t": 95029.63199999928,
      "d": 8.927999999999884,
      "v": 70
    },
    {
      "midi": 46,
      "hit": false,
      "t": 95136.76799999928,
      "d": 8.927999999999884,
      "v": 70
    },
    {
      "midi": 40,
      "hit": false,
      "t": 95136.76799999928,
      "d": 8.927999999999884,
      "v": 112
    },
    {
      "midi": 34,
      "hit": false,
      "t": 95136.7679999997,
      "d": 714.2400000000052,
      "v": 110
    },
    {
      "midi": 79,
      "hit": false,
      "t": 95136.7679999998,
      "d": 205.34399999999732,
      "v": 70
    },
    {
      "midi": 63,
      "hit": false,
      "t": 95136.7679999998,
      "d": 848.1599999999889,
      "v": 80
    },
    {
      "midi": 58,
      "hit": false,
      "t": 95136.7679999998,
      "d": 848.1599999999889,
      "v": 100
    },
    {
      "midi": 72,
      "hit": false,
      "t": 95136.76799999985,
      "d": 71.42399999999907,
      "v": 90
    },
    {
      "midi": 63,
      "hit": false,
      "t": 95136.76799999994,
      "d": 848.1600000000035,
      "v": 60
    },
    {
      "midi": 58,
      "hit": false,
      "t": 95136.76799999994,
      "d": 848.1600000000035,
      "v": 80
    },
    {
      "midi": 46,
      "hit": false,
      "t": 95136.76799999997,
      "d": 803.5200000000041,
      "v": 80
    },
    {
      "midi": 42,
      "hit": false,
      "t": 95351.03999999928,
      "d": 8.927999999999884,
      "v": 84
    },
    {
      "midi": 40,
      "hit": false,
      "t": 95351.03999999928,
      "d": 8.927999999999884,
      "v": 70
    },
    {
      "midi": 77,
      "hit": false,
      "t": 95351.0399999998,
      "d": 205.34399999999732,
      "v": 80
    },
    {
      "midi": 40,
      "hit": false,
      "t": 95458.17599999928,
      "d": 8.927999999999884,
      "v": 84
    },
    {
      "midi": 46,
      "hit": false,
      "t": 95565.31199999928,
      "d": 8.927999999999884,
      "v": 70
    },
    {
      "midi": 40,
      "hit": false,
      "t": 95565.31199999928,
      "d": 8.927999999999884,
      "v": 112
    },
    {
      "midi": 75,
      "hit": false,
      "t": 95565.3119999998,
      "d": 205.34399999999732,
      "v": 90
    },
    {
      "midi": 42,
      "hit": false,
      "t": 95779.58399999927,
      "d": 8.927999999999884,
      "v": 84
    },
    {
      "midi": 41,
      "hit": false,
      "t": 95779.58399999927,
      "d": 8.927999999999884,
      "v": 84
    },
    {
      "midi": 77,
      "hit": false,
      "t": 95779.5839999998,
      "d": 205.34399999999732,
      "v": 100
    },
    {
      "midi": 57,
      "hit": false,
      "t": 95993.85599999927,
      "d": 8.927999999999884,
      "v": 112
    },
    {
      "midi": 36,
      "hit": false,
      "t": 95993.85599999927,
      "d": 8.927999999999884,
      "v": 112
    },
    {
      "midi": 44,
      "hit": false,
      "t": 95993.85599999971,
      "d": 624.9600000000064,
      "v": 110
    },
    {
      "midi": 79,
      "hit": false,
      "t": 95993.8559999998,
      "d": 196.41599999999744,
      "v": 90
    },
    {
      "midi": 67,
      "hit": false,
      "t": 95993.8559999998,
      "d": 196.41599999999744,
      "v": 110
    },
    {
      "midi": 91,
      "hit": false,
      "t": 95993.85599999994,
      "d": 633.8880000000063,
      "v": 100
    },
    {
      "midi": 55,
      "hit": false,
      "t": 95993.85599999997,
      "d": 624.9600000000064,
      "v": 80
    },
    {
      "midi": 82,
      "hit": false,
      "t": 96208.1279999998,
      "d": 71.42399999999907,
      "v": 100
    },
    {
      "midi": 70,
      "hit": false,
      "t": 96208.1279999998,
      "d": 71.42399999999907,
      "v": 120
    },
    {
      "midi": 40,
      "hit": false,
      "t": 96422.39999999927,
      "d": 8.927999999999884,
      "v": 112
    },
    {
      "midi": 80,
      "hit": false,
      "t": 96422.39999999979,
      "d": 71.42399999999907,
      "v": 90
    },
    {
      "midi": 68,
      "hit": false,
      "t": 96422.39999999979,
      "d": 71.42399999999907,
      "v": 110
    },
    {
      "midi": 57,
      "hit": false,
      "t": 96636.67199999926,
      "d": 8.927999999999884,
      "v": 112
    },
    {
      "midi": 36,
      "hit": false,
      "t": 96636.67199999926,
      "d": 8.927999999999884,
      "v": 112
    },
    {
      "midi": 41,
      "hit": false,
      "t": 96636.67199999971,
      "d": 1053.5040000000008,
      "v": 110
    },
    {
      "midi": 77,
      "hit": false,
      "t": 96636.67199999979,
      "d": 321.4079999999958,
      "v": 100
    },
    {
      "midi": 65,
      "hit": false,
      "t": 96636.67199999979,
      "d": 321.4079999999958,
      "v": 120
    },
    {
      "midi": 89,
      "hit": false,
      "t": 96636.67199999995,
      "d": 1053.5040000000008,
      "v": 100
    },
    {
      "midi": 53,
      "hit": false,
      "t": 96636.67199999998,
      "d": 1053.5040000000008,
      "v": 80
    },
    {
      "midi": 48,
      "hit": false,
      "t": 97065.21599999926,
      "d": 8.927999999999884,
      "v": 84
    },
    {
      "midi": 74,
      "hit": false,
      "t": 97065.21599999978,
      "d": 71.42399999999907,
      "v": 80
    },
    {
      "midi": 62,
      "hit": false,
      "t": 97065.21599999978,
      "d": 71.42399999999907,
      "v": 100
    },
    {
      "midi": 45,
      "hit": false,
      "t": 97279.48799999926,
      "d": 8.927999999999884,
      "v": 84
    },
    {
      "midi": 75,
      "hit": false,
      "t": 97279.48799999978,
      "d": 71.42399999999907,
      "v": 90
    },
    {
      "midi": 63,
      "hit": false,
      "t": 97279.48799999978,
      "d": 71.42399999999907,
      "v": 110
    },
    {
      "midi": 40,
      "hit": false,
      "t": 97386.62399999925,
      "d": 8.927999999999884,
      "v": 56
    },
    {
      "midi": 40,
      "hit": false,
      "t": 97493.75999999925,
      "d": 8.927999999999884,
      "v": 84
    },
    {
      "midi": 77,
      "hit": false,
      "t": 97493.75999999978,
      "d": 71.42399999999907,
      "v": 100
    },
    {
      "midi": 65,
      "hit": false,
      "t": 97493.75999999978,
      "d": 71.42399999999907,
      "v": 120
    },
    {
      "midi": 40,
      "hit": false,
      "t": 97600.89599999925,
      "d": 8.927999999999884,
      "v": 112
    },
    {
      "midi": 57,
      "hit": false,
      "t": 97708.03199999925,
      "d": 8.927999999999884,
      "v": 112
    },
    {
      "midi": 36,
      "hit": false,
      "t": 97708.03199999925,
      "d": 8.927999999999884,
      "v": 112
    },
    {
      "midi": 39,
      "hit": false,
      "t": 97708.03199999972,
      "d": 624.9600000000064,
      "v": 110
    },
    {
      "midi": 79,
      "hit": false,
      "t": 97708.03199999977,
      "d": 71.42399999999907,
      "v": 90
    },
    {
      "midi": 67,
      "hit": false,
      "t": 97708.03199999977,
      "d": 71.42399999999907,
      "v": 110
    },
    {
      "midi": 87,
      "hit": false,
      "t": 97708.03199999995,
      "d": 633.8880000000063,
      "v": 100
    },
    {
      "midi": 51,
      "hit": false,
      "t": 97708.03199999998,
      "d": 624.9600000000064,
      "v": 80
    },
    {
      "midi": 84,
      "hit": false,
      "t": 97922.30399999977,
      "d": 71.42399999999907,
      "v": 100
    },
    {
      "midi": 72,
      "hit": false,
      "t": 97922.30399999977,
      "d": 71.42399999999907,
      "v": 120
    },
    {
      "midi": 40,
      "hit": false,
      "t": 98136.57599999924,
      "d": 8.927999999999884,
      "v": 112
    },
    {
      "midi": 82,
      "hit": false,
      "t": 98136.57599999977,
      "d": 71.42399999999907,
      "v": 90
    },
    {
      "midi": 70,
      "hit": false,
      "t": 98136.57599999977,
      "d": 71.42399999999907,
      "v": 110
    },
    {
      "midi": 57,
      "hit": false,
      "t": 98350.84799999924,
      "d": 8.927999999999884,
      "v": 112
    },
    {
      "midi": 36,
      "hit": false,
      "t": 98350.84799999924,
      "d": 8.927999999999884,
      "v": 112
    },
    {
      "midi": 38,
      "hit": false,
      "t": 98350.84799999972,
      "d": 1053.5040000000008,
      "v": 110
    },
    {
      "midi": 80,
      "hit": false,
      "t": 98350.84799999977,
      "d": 321.4079999999958,
      "v": 100
    },
    {
      "midi": 68,
      "hit": false,
      "t": 98350.84799999977,
      "d": 321.4079999999958,
      "v": 120
    },
    {
      "midi": 86,
      "hit": false,
      "t": 98350.84799999995,
      "d": 1053.5040000000008,
      "v": 100
    },
    {
      "midi": 50,
      "hit": false,
      "t": 98350.84799999998,
      "d": 1053.5040000000008,
      "v": 80
    },
    {
      "midi": 45,
      "hit": false,
      "t": 98779.39199999924,
      "d": 8.927999999999884,
      "v": 84
    },
    {
      "midi": 79,
      "hit": false,
      "t": 98779.39199999976,
      "d": 71.42399999999907,
      "v": 80
    },
    {
      "midi": 67,
      "hit": false,
      "t": 98779.39199999976,
      "d": 71.42399999999907,
      "v": 100
    },
    {
      "midi": 40,
      "hit": false,
      "t": 98993.66399999923,
      "d": 8.927999999999884,
      "v": 42
    },
    {
      "midi": 77,
      "hit": false,
      "t": 98993.66399999976,
      "d": 71.42399999999907,
      "v": 90
    },
    {
      "midi": 65,
      "hit": false,
      "t": 98993.66399999976,
      "d": 71.42399999999907,
      "v": 110
    },
    {
      "midi": 40,
      "hit": false,
      "t": 99056.15999999923,
      "d": 8.927999999999884,
      "v": 56
    },
    {
      "midi": 40,
      "hit": false,
      "t": 99127.58399999923,
      "d": 8.927999999999884,
      "v": 70
    },
    {
      "midi": 40,
      "hit": false,
      "t": 99207.93599999923,
      "d": 8.927999999999884,
      "v": 112
    },
    {
      "midi": 74,
      "hit": false,
      "t": 99207.93599999975,
      "d": 71.42399999999907,
      "v": 100
    },
    {
      "midi": 62,
      "hit": false,
      "t": 99207.93599999975,
      "d": 71.42399999999907,
      "v": 120
    },
    {
      "midi": 57,
      "hit": false,
      "t": 99422.20799999923,
      "d": 8.927999999999884,
      "v": 112
    },
    {
      "midi": 36,
      "hit": false,
      "t": 99422.20799999923,
      "d": 8.927999999999884,
      "v": 112
    },
    {
      "midi": 44,
      "hit": false,
      "t": 99422.20799999972,
      "d": 624.9600000000064,
      "v": 110
    },
    {
      "midi": 75,
      "hit": false,
      "t": 99422.20799999975,
      "d": 624.9600000000064,
      "v": 100
    },
    {
      "midi": 63,
      "hit": false,
      "t": 99422.20799999975,
      "d": 624.9600000000064,
      "v": 120
    },
    {
      "midi": 87,
      "hit": false,
      "t": 99422.20799999996,
      "d": 633.8880000000063,
      "v": 100
    },
    {
      "midi": 51,
      "hit": false,
      "t": 99422.20799999998,
      "d": 624.9600000000064,
      "v": 80
    },
    {
      "midi": 40,
      "hit": false,
      "t": 99850.75199999922,
      "d": 8.927999999999884,
      "v": 112
    },
    {
      "midi": 57,
      "hit": false,
      "t": 100065.02399999922,
      "d": 8.927999999999884,
      "v": 112
    },
    {
      "midi": 36,
      "hit": false,
      "t": 100065.02399999922,
      "d": 8.927999999999884,
      "v": 112
    },
    {
      "midi": 41,
      "hit": false,
      "t": 100065.02399999973,
      "d": 624.9600000000064,
      "v": 110
    },
    {
      "midi": 77,
      "hit": false,
      "t": 100065.02399999976,
      "d": 624.9600000000064,
      "v": 100
    },
    {
      "midi": 65,
      "hit": false,
      "t": 100065.02399999976,
      "d": 624.9600000000064,
      "v": 120
    },
    {
      "midi": 89,
      "hit": false,
      "t": 100065.02399999996,
      "d": 633.8880000000063,
      "v": 100
    },
    {
      "midi": 53,
      "hit": false,
      "t": 100065.02399999999,
      "d": 624.9600000000064,
      "v": 80
    },
    {
      "midi": 40,
      "hit": false,
      "t": 100493.56799999921,
      "d": 8.927999999999884,
      "v": 112
    },
    {
      "midi": 57,
      "hit": false,
      "t": 100707.83999999921,
      "d": 8.927999999999884,
      "v": 112
    },
    {
      "midi": 36,
      "hit": false,
      "t": 100707.83999999921,
      "d": 8.927999999999884,
      "v": 112
    },
    {
      "midi": 38,
      "hit": false,
      "t": 100707.83999999973,
      "d": 2115.9360000000015,
      "v": 110
    },
    {
      "midi": 79,
      "hit": false,
      "t": 100707.83999999976,
      "d": 2124.8639999999723,
      "v": 120
    },
    {
      "midi": 67,
      "hit": false,
      "t": 100707.83999999976,
      "d": 2124.8639999999723,
      "v": 127
    },
    {
      "midi": 91,
      "hit": false,
      "t": 100707.83999999997,
      "d": 2035.5839999999735,
      "v": 100
    },
    {
      "midi": 55,
      "hit": false,
      "t": 100707.84,
      "d": 2115.9360000000015,
      "v": 80
    },
    {
      "midi": 42,
      "hit": false,
      "t": 101136.3839999992,
      "d": 8.927999999999884,
      "v": 112
    },
    {
      "midi": 40,
      "hit": false,
      "t": 101564.9279999992,
      "d": 8.927999999999884,
      "v": 84
    },
    {
      "midi": 79,
      "hit": false,
      "t": 101564.92799999987,
      "d": 1249.9199999999837,
      "v": 90
    },
    {
      "midi": 77,
      "hit": false,
      "t": 101564.92799999987,
      "d": 1249.9199999999837,
      "v": 90
    },
    {
      "midi": 46,
      "hit": false,
      "t": 101993.4719999992,
      "d": 8.927999999999884,
      "v": 112
    },
    {
      "midi": 40,
      "hit": false,
      "t": 102314.87999999919,
      "d": 8.927999999999884,
      "v": 84
    },
    {
      "midi": 40,
      "hit": false,
      "t": 102422.01599999919,
      "d": 8.927999999999884,
      "v": 112
    },
    {
      "midi": 45,
      "hit": false,
      "t": 102636.28799999919,
      "d": 8.927999999999884,
      "v": 112
    },
    {
      "midi": 57,
      "hit": false,
      "t": 102850.55999999918,
      "d": 8.927999999999884,
      "v": 84
    },
    {
      "midi": 36,
      "hit": false,
      "t": 102850.55999999918,
      "d": 8.927999999999884,
      "v": 112
    },
    {
      "midi": 63,
      "hit": false,
      "t": 102850.55999999949,
      "d": 35.711999999999534,
      "v": 70
    },
    {
      "midi": 60,
      "hit": false,
      "t": 102850.55999999949,
      "d": 35.711999999999534,
      "v": 80
    },
    {
      "midi": 48,
      "hit": false,
      "t": 102850.55999999974,
      "d": 428.5439999999944,
      "v": 110
    },
    {
      "midi": 63,
      "hit": false,
      "t": 102850.5599999998,
      "d": 357.11999999999534,
      "v": 90
    },
    {
      "midi": 75,
      "hit": false,
      "t": 102957.69599999949,
      "d": 35.711999999999534,
      "v": 80
    },
    {
      "midi": 42,
      "hit": false,
      "t": 103064.83199999918,
      "d": 8.927999999999884,
      "v": 84
    },
    {
      "midi": 87,
      "hit": false,
      "t": 103064.83199999949,
      "d": 35.711999999999534,
      "v": 60
    },
    {
      "midi": 75,
      "hit": false,
      "t": 103171.96799999948,
      "d": 35.711999999999534,
      "v": 80
    },
    {
      "midi": 46,
      "hit": false,
      "t": 103279.10399999918,
      "d": 8.927999999999884,
      "v": 70
    },
    {
      "midi": 40,
      "hit": false,
      "t": 103279.10399999918,
      "d": 8.927999999999884,
      "v": 112
    },
    {
      "midi": 87,
      "hit": false,
      "t": 103279.10399999948,
      "d": 35.711999999999534,
      "v": 60
    },
    {
      "midi": 62,
      "hit": false,
      "t": 103279.10399999979,
      "d": 142.84799999999814,
      "v": 117
    },
    {
      "midi": 75,
      "hit": false,
      "t": 103386.23999999948,
      "d": 35.711999999999534,
      "v": 80
    },
    {
      "midi": 42,
      "hit": false,
      "t": 103493.37599999917,
      "d": 8.927999999999884,
      "v": 84
    },
    {
      "midi": 63,
      "hit": false,
      "t": 103493.37599999948,
      "d": 35.711999999999534,
      "v": 70
    },
    {
      "midi": 60,
      "hit": false,
      "t": 103493.37599999948,
      "d": 35.711999999999534,
      "v": 80
    },
    {
      "midi": 60,
      "hit": false,
      "t": 103493.37599999979,
      "d": 357.11999999999534,
      "v": 90
    },
    {
      "midi": 87,
      "hit": false,
      "t": 103600.51199999948,
      "d": 35.711999999999534,
      "v": 80
    },
    {
      "midi": 48,
      "hit": false,
      "t": 103600.51199999973,
      "d": 89.27999999999884,
      "v": 110
    },
    {
      "midi": 46,
      "hit": false,
      "t": 103707.64799999917,
      "d": 8.927999999999884,
      "v": 70
    },
    {
      "midi": 36,
      "hit": false,
      "t": 103707.64799999917,
      "d": 8.927999999999884,
      "v": 112
    },
    {
      "midi": 63,
      "hit": false,
      "t": 103707.64799999948,
      "d": 35.711999999999534,
      "v": 70
    },
    {
      "midi": 60,
      "hit": false,
      "t": 103707.64799999948,
      "d": 35.711999999999534,
      "v": 80
    },
    {
      "midi": 48,
      "hit": false,
      "t": 103707.64799999972,
      "d": 624.9600000000064,
      "v": 110
    },
    {
      "midi": 75,
      "hit": false,
      "t": 103814.78399999948,
      "d": 35.711999999999534,
      "v": 80
    },
    {
      "midi": 42,
      "hit": false,
      "t": 103921.91999999917,
      "d": 8.927999999999884,
      "v": 84
    },
    {
      "midi": 87,
      "hit": false,
      "t": 103921.91999999947,
      "d": 35.711999999999534,
      "v": 60
    },
    {
      "midi": 72,
      "hit": false,
      "t": 103921.91999999974,
      "d": 71.42399999999907,
      "v": 120
    },
    {
      "midi": 67,
      "hit": false,
      "t": 103921.91999999974,
      "d": 71.42399999999907,
      "v": 110
    },
    {
      "midi": 75,
      "hit": false,
      "t": 104029.05599999947,
      "d": 35.711999999999534,
      "v": 80
    },
    {
      "midi": 46,
      "hit": false,
      "t": 104136.19199999917,
      "d": 8.927999999999884,
      "v": 70
    },
    {
      "midi": 40,
      "hit": false,
      "t": 104136.19199999917,
      "d": 8.927999999999884,
      "v": 112
    },
    {
      "midi": 87,
      "hit": false,
      "t": 104136.19199999947,
      "d": 35.711999999999534,
      "v": 60
    },
    {
      "midi": 75,
      "hit": false,
      "t": 104243.32799999947,
      "d": 35.711999999999534,
      "v": 80
    },
    {
      "midi": 42,
      "hit": false,
      "t": 104350.46399999916,
      "d": 8.927999999999884,
      "v": 84
    },
    {
      "midi": 63,
      "hit": false,
      "t": 104350.46399999947,
      "d": 35.711999999999534,
      "v": 70
    },
    {
      "midi": 60,
      "hit": false,
      "t": 104350.46399999947,
      "d": 35.711999999999534,
      "v": 80
    },
    {
      "midi": 43,
      "hit": false,
      "t": 104350.46399999973,
      "d": 196.41599999999744,
      "v": 110
    },
    {
      "midi": 63,
      "hit": false,
      "t": 104457.59999999947,
      "d": 35.711999999999534,
      "v": 70
    },
    {
      "midi": 60,
      "hit": false,
      "t": 104457.59999999947,
      "d": 35.711999999999534,
      "v": 80
    },
    {
      "midi": 46,
      "hit": false,
      "t": 104564.73599999916,
      "d": 8.927999999999884,
      "v": 70
    },
    {
      "midi": 36,
      "hit": false,
      "t": 104564.73599999916,
      "d": 8.927999999999884,
      "v": 112
    },
    {
      "midi": 75,
      "hit": false,
      "t": 104564.73599999947,
      "d": 35.711999999999534,
      "v": 80
    },
    {
      "midi": 48,
      "hit": false,
      "t": 104564.73599999973,
      "d": 428.5439999999944,
      "v": 110
    },
    {
      "midi": 87,
      "hit": false,
      "t": 104671.87199999946,
      "d": 35.711999999999534,
      "v": 60
    },
    {
      "midi": 42,
      "hit": false,
      "t": 104779.00799999916,
      "d": 8.927999999999884,
      "v": 84
    },
    {
      "midi": 63,
      "hit": false,
      "t": 104779.00799999946,
      "d": 35.711999999999534,
      "v": 70
    },
    {
      "midi": 60,
      "hit": false,
      "t": 104779.00799999946,
      "d": 35.711999999999534,
      "v": 80
    },
    {
      "midi": 75,
      "hit": false,
      "t": 104886.14399999946,
      "d": 35.711999999999534,
      "v": 80
    },
    {
      "midi": 46,
      "hit": false,
      "t": 104993.27999999915,
      "d": 8.927999999999884,
      "v": 70
    },
    {
      "midi": 40,
      "hit": false,
      "t": 104993.27999999915,
      "d": 8.927999999999884,
      "v": 112
    },
    {
      "midi": 87,
      "hit": false,
      "t": 104993.27999999946,
      "d": 35.711999999999534,
      "v": 60
    },
    {
      "midi": 58,
      "hit": false,
      "t": 104993.27999999978,
      "d": 142.84799999999814,
      "v": 90
    },
    {
      "midi": 63,
      "hit": false,
      "t": 105100.41599999946,
      "d": 35.711999999999534,
      "v": 70
    },
    {
      "midi": 60,
      "hit": false,
      "t": 105100.41599999946,
      "d": 35.711999999999534,
      "v": 80
    },
    {
      "midi": 42,
      "hit": false,
      "t": 105207.55199999915,
      "d": 8.927999999999884,
      "v": 84
    },
    {
      "midi": 75,
      "hit": false,
      "t": 105207.55199999946,
      "d": 35.711999999999534,
      "v": 80
    },
    {
      "midi": 60,
      "hit": false,
      "t": 105207.55199999978,
      "d": 142.84799999999814,
      "v": 117
    },
    {
      "midi": 87,
      "hit": false,
      "t": 105314.68799999946,
      "d": 35.711999999999534,
      "v": 60
    },
    {
      "midi": 48,
      "hit": false,
      "t": 105314.68799999972,
      "d": 89.27999999999884,
      "v": 110
    },
    {
      "midi": 46,
      "hit": false,
      "t": 105421.82399999915,
      "d": 8.927999999999884,
      "v": 70
    },
    {
      "midi": 36,
      "hit": false,
      "t": 105421.82399999915,
      "d": 8.927999999999884,
      "v": 112
    },
    {
      "midi": 63,
      "hit": false,
      "t": 105421.82399999945,
      "d": 35.711999999999534,
      "v": 70
    },
    {
      "midi": 60,
      "hit": false,
      "t": 105421.82399999945,
      "d": 35.711999999999534,
      "v": 80
    },
    {
      "midi": 48,
      "hit": false,
      "t": 105421.82399999972,
      "d": 410.68799999999464,
      "v": 110
    },
    {
      "midi": 63,
      "hit": false,
      "t": 105421.82399999977,
      "d": 142.84799999999814,
      "v": 90
    },
    {
      "midi": 75,
      "hit": false,
      "t": 105528.95999999945,
      "d": 35.711999999999534,
      "v": 80
    },
    {
      "midi": 42,
      "hit": false,
      "t": 105636.09599999915,
      "d": 8.927999999999884,
      "v": 84
    },
    {
      "midi": 87,
      "hit": false,
      "t": 105636.09599999945,
      "d": 35.711999999999534,
      "v": 60
    },
    {
      "midi": 62,
      "hit": false,
      "t": 105636.09599999977,
      "d": 160.7039999999979,
      "v": 90
    },
    {
      "midi": 63,
      "hit": false,
      "t": 105743.23199999945,
      "d": 35.711999999999534,
      "v": 70
    },
    {
      "midi": 60,
      "hit": false,
      "t": 105743.23199999945,
      "d": 35.711999999999534,
      "v": 80
    },
    {
      "midi": 46,
      "hit": false,
      "t": 105850.36799999914,
      "d": 8.927999999999884,
      "v": 70
    },
    {
      "midi": 40,
      "hit": false,
      "t": 105850.36799999914,
      "d": 8.927999999999884,
      "v": 112
    },
    {
      "midi": 75,
      "hit": false,
      "t": 105850.36799999945,
      "d": 35.711999999999534,
      "v": 80
    },
    {
      "midi": 43,
      "hit": false,
      "t": 105850.36799999971,
      "d": 196.41599999999744,
      "v": 110
    },
    {
      "midi": 60,
      "hit": false,
      "t": 105850.36799999977,
      "d": 142.84799999999814,
      "v": 90
    },
    {
      "midi": 87,
      "hit": false,
      "t": 105957.50399999945,
      "d": 35.711999999999534,
      "v": 60
    },
    {
      "midi": 42,
      "hit": false,
      "t": 106064.63999999914,
      "d": 8.927999999999884,
      "v": 84
    },
    {
      "midi": 63,
      "hit": false,
      "t": 106064.63999999945,
      "d": 35.711999999999534,
      "v": 70
    },
    {
      "midi": 60,
      "hit": false,
      "t": 106064.63999999945,
      "d": 35.711999999999534,
      "v": 80
    },
    {
      "midi": 46,
      "hit": false,
      "t": 106064.63999999971,
      "d": 196.41599999999744,
      "v": 110
    },
    {
      "midi": 67,
      "hit": false,
      "t": 106064.63999999977,
      "d": 142.84799999999814,
      "v": 96
    },
    {
      "midi": 63,
      "hit": false,
      "t": 106171.77599999945,
      "d": 35.711999999999534,
      "v": 70
    },
    {
      "midi": 60,
      "hit": false,
      "t": 106171.77599999945,
      "d": 35.711999999999534,
      "v": 80
    },
    {
      "midi": 46,
      "hit": false,
      "t": 106278.91199999914,
      "d": 8.927999999999884,
      "v": 70
    },
    {
      "midi": 36,
      "hit": false,
      "t": 106278.91199999914,
      "d": 8.927999999999884,
      "v": 112
    },
    {
      "midi": 75,
      "hit": false,
      "t": 106278.91199999944,
      "d": 35.711999999999534,
      "v": 80
    },
    {
      "midi": 48,
      "hit": false,
      "t": 106278.9119999997,
      "d": 428.5439999999944,
      "v": 110
    },
    {
      "midi": 58,
      "hit": false,
      "t": 106278.91199999976,
      "d": 303.55199999999604,
      "v": 100
    },
    {
      "midi": 87,
      "hit": false,
      "t": 106386.04799999944,
      "d": 35.711999999999534,
      "v": 60
    },
    {
      "midi": 42,
      "hit": false,
      "t": 106493.18399999914,
      "d": 8.927999999999884,
      "v": 84
    },
    {
      "midi": 63,
      "hit": false,
      "t": 106493.18399999944,
      "d": 35.711999999999534,
      "v": 70
    },
    {
      "midi": 60,
      "hit": false,
      "t": 106493.18399999944,
      "d": 35.711999999999534,
      "v": 80
    },
    {
      "midi": 60,
      "hit": false,
      "t": 106582.46399999976,
      "d": 1428.479999999996,
      "v": 100
    },
    {
      "midi": 75,
      "hit": false,
      "t": 106600.31999999944,
      "d": 35.711999999999534,
      "v": 80
    },
    {
      "midi": 46,
      "hit": false,
      "t": 106707.45599999913,
      "d": 8.927999999999884,
      "v": 70
    },
    {
      "midi": 40,
      "hit": false,
      "t": 106707.45599999913,
      "d": 8.927999999999884,
      "v": 112
    },
    {
      "midi": 87,
      "hit": false,
      "t": 106707.45599999944,
      "d": 35.711999999999534,
      "v": 60
    },
    {
      "midi": 63,
      "hit": false,
      "t": 106814.59199999944,
      "d": 35.711999999999534,
      "v": 70
    },
    {
      "midi": 60,
      "hit": false,
      "t": 106814.59199999944,
      "d": 35.711999999999534,
      "v": 80
    },
    {
      "midi": 42,
      "hit": false,
      "t": 106921.72799999913,
      "d": 8.927999999999884,
      "v": 84
    },
    {
      "midi": 75,
      "hit": false,
      "t": 106921.72799999944,
      "d": 35.711999999999534,
      "v": 80
    },
    {
      "midi": 87,
      "hit": false,
      "t": 107028.86399999943,
      "d": 35.711999999999534,
      "v": 60
    },
    {
      "midi": 48,
      "hit": false,
      "t": 107028.8639999997,
      "d": 89.27999999999884,
      "v": 110
    },
    {
      "midi": 46,
      "hit": false,
      "t": 107135.99999999913,
      "d": 8.927999999999884,
      "v": 70
    },
    {
      "midi": 36,
      "hit": false,
      "t": 107135.99999999913,
      "d": 8.927999999999884,
      "v": 112
    },
    {
      "midi": 63,
      "hit": false,
      "t": 107135.99999999943,
      "d": 35.711999999999534,
      "v": 70
    },
    {
      "midi": 60,
      "hit": false,
      "t": 107135.99999999943,
      "d": 35.711999999999534,
      "v": 80
    },
    {
      "midi": 48,
      "hit": false,
      "t": 107135.9999999997,
      "d": 624.9600000000064,
      "v": 110
    },
    {
      "midi": 75,
      "hit": false,
      "t": 107243.13599999943,
      "d": 35.711999999999534,
      "v": 80
    },
    {
      "midi": 42,
      "hit": false,
      "t": 107350.27199999912,
      "d": 8.927999999999884,
      "v": 84
    },
    {
      "midi": 87,
      "hit": false,
      "t": 107350.27199999943,
      "d": 35.711999999999534,
      "v": 60
    },
    {
      "midi": 72,
      "hit": false,
      "t": 107350.27199999974,
      "d": 71.42399999999907,
      "v": 120
    },
    {
      "midi": 67,
      "hit": false,
      "t": 107350.27199999974,
      "d": 71.42399999999907,
      "v": 110
    },
    {
      "midi": 63,
      "hit": false,
      "t": 107457.40799999943,
      "d": 35.711999999999534,
      "v": 70
    },
    {
      "midi": 60,
      "hit": false,
      "t": 107457.40799999943,
      "d": 35.711999999999534,
      "v": 80
    },
    {
      "midi": 46,
      "hit": false,
      "t": 107564.54399999912,
      "d": 8.927999999999884,
      "v": 70
    },
    {
      "midi": 40,
      "hit": false,
      "t": 107564.54399999912,
      "d": 8.927999999999884,
      "v": 112
    },
    {
      "midi": 75,
      "hit": false,
      "t": 107564.54399999943,
      "d": 35.711999999999534,
      "v": 80
    },
    {
      "midi": 70,
      "hit": false,
      "t": 107564.54399999973,
      "d": 71.42399999999907,
      "v": 100
    },
    {
      "midi": 65,
      "hit": false,
      "t": 107564.54399999973,
      "d": 71.42399999999907,
      "v": 80
    },
    {
      "midi": 87,
      "hit": false,
      "t": 107671.67999999943,
      "d": 35.711999999999534,
      "v": 60
    },
    {
      "midi": 72,
      "hit": false,
      "t": 107671.67999999973,
      "d": 71.42399999999907,
      "v": 120
    },
    {
      "midi": 67,
      "hit": false,
      "t": 107671.67999999973,
      "d": 71.42399999999907,
      "v": 110
    },
    {
      "midi": 42,
      "hit": false,
      "t": 107778.81599999912,
      "d": 8.927999999999884,
      "v": 84
    },
    {
      "midi": 63,
      "hit": false,
      "t": 107778.81599999942,
      "d": 35.711999999999534,
      "v": 70
    },
    {
      "midi": 60,
      "hit": false,
      "t": 107778.81599999942,
      "d": 35.711999999999534,
      "v": 80
    },
    {
      "midi": 43,
      "hit": false,
      "t": 107778.8159999997,
      "d": 196.41599999999744,
      "v": 110
    },
    {
      "midi": 63,
      "hit": false,
      "t": 107885.95199999942,
      "d": 35.711999999999534,
      "v": 70
    },
    {
      "midi": 60,
      "hit": false,
      "t": 107885.95199999942,
      "d": 35.711999999999534,
      "v": 80
    },
    {
      "midi": 46,
      "hit": false,
      "t": 107993.08799999912,
      "d": 8.927999999999884,
      "v": 70
    },
    {
      "midi": 36,
      "hit": false,
      "t": 107993.08799999912,
      "d": 8.927999999999884,
      "v": 112
    },
    {
      "midi": 75,
      "hit": false,
      "t": 107993.08799999942,
      "d": 35.711999999999534,
      "v": 80
    },
    {
      "midi": 48,
      "hit": false,
      "t": 107993.0879999997,
      "d": 428.5439999999944,
      "v": 110
    },
    {
      "midi": 70,
      "hit": false,
      "t": 108002.01599999986,
      "d": 410.68799999999464,
      "v": 110
    },
    {
      "midi": 65,
      "hit": false,
      "t": 108002.01599999986,
      "d": 410.68799999999464,
      "v": 90
    },
    {
      "midi": 87,
      "hit": false,
      "t": 108100.22399999942,
      "d": 35.711999999999534,
      "v": 60
    },
    {
      "midi": 42,
      "hit": false,
      "t": 108207.35999999911,
      "d": 8.927999999999884,
      "v": 84
    },
    {
      "midi": 63,
      "hit": false,
      "t": 108207.35999999942,
      "d": 35.711999999999534,
      "v": 70
    },
    {
      "midi": 60,
      "hit": false,
      "t": 108207.35999999942,
      "d": 35.711999999999534,
      "v": 80
    },
    {
      "midi": 75,
      "hit": false,
      "t": 108314.49599999942,
      "d": 35.711999999999534,
      "v": 80
    },
    {
      "midi": 46,
      "hit": false,
      "t": 108421.63199999911,
      "d": 8.927999999999884,
      "v": 70
    },
    {
      "midi": 40,
      "hit": false,
      "t": 108421.63199999911,
      "d": 8.927999999999884,
      "v": 112
    },
    {
      "midi": 87,
      "hit": false,
      "t": 108421.63199999942,
      "d": 35.711999999999534,
      "v": 60
    },
    {
      "midi": 72,
      "hit": false,
      "t": 108430.55999999985,
      "d": 1160.6399999999994,
      "v": 90
    },
    {
      "midi": 67,
      "hit": false,
      "t": 108430.55999999985,
      "d": 1160.6399999999994,
      "v": 70
    },
    {
      "midi": 63,
      "hit": false,
      "t": 108528.76799999941,
      "d": 35.711999999999534,
      "v": 70
    },
    {
      "midi": 60,
      "hit": false,
      "t": 108528.76799999941,
      "d": 35.711999999999534,
      "v": 80
    },
    {
      "midi": 42,
      "hit": false,
      "t": 108635.90399999911,
      "d": 8.927999999999884,
      "v": 84
    },
    {
      "midi": 75,
      "hit": false,
      "t": 108635.90399999941,
      "d": 35.711999999999534,
      "v": 80
    },
    {
      "midi": 87,
      "hit": false,
      "t": 108743.03999999941,
      "d": 35.711999999999534,
      "v": 60
    },
    {
      "midi": 48,
      "hit": false,
      "t": 108743.03999999969,
      "d": 89.27999999999884,
      "v": 110
    },
    {
      "midi": 46,
      "hit": false,
      "t": 108850.1759999991,
      "d": 8.927999999999884,
      "v": 70
    },
    {
      "midi": 36,
      "hit": false,
      "t": 108850.1759999991,
      "d": 8.927999999999884,
      "v": 112
    },
    {
      "midi": 63,
      "hit": false,
      "t": 108850.17599999941,
      "d": 35.711999999999534,
      "v": 70
    },
    {
      "midi": 60,
      "hit": false,
      "t": 108850.17599999941,
      "d": 35.711999999999534,
      "v": 80
    },
    {
      "midi": 48,
      "hit": false,
      "t": 108850.17599999969,
      "d": 624.9600000000064,
      "v": 110
    },
    {
      "midi": 75,
      "hit": false,
      "t": 108850.17599999973,
      "d": 71.42399999999907,
      "v": 120
    },
    {
      "midi": 70,
      "hit": false,
      "t": 108850.17599999973,
      "d": 71.42399999999907,
      "v": 110
    },
    {
      "midi": 75,
      "hit": false,
      "t": 108957.31199999941,
      "d": 35.711999999999534,
      "v": 80
    },
    {
      "midi": 75,
      "hit": false,
      "t": 108957.31199999973,
      "d": 71.42399999999907,
      "v": 120
    },
    {
      "midi": 70,
      "hit": false,
      "t": 108957.31199999973,
      "d": 71.42399999999907,
      "v": 110
    },
    {
      "midi": 42,
      "hit": false,
      "t": 109064.4479999991,
      "d": 8.927999999999884,
      "v": 84
    },
    {
      "midi": 87,
      "hit": false,
      "t": 109064.44799999941,
      "d": 35.711999999999534,
      "v": 60
    },
    {
      "midi": 74,
      "hit": false,
      "t": 109064.44799999973,
      "d": 71.42399999999907,
      "v": 120
    },
    {
      "midi": 70,
      "hit": false,
      "t": 109064.44799999973,
      "d": 71.42399999999907,
      "v": 110
    },
    {
      "midi": 63,
      "hit": false,
      "t": 109171.5839999994,
      "d": 35.711999999999534,
      "v": 70
    },
    {
      "midi": 60,
      "hit": false,
      "t": 109171.5839999994,
      "d": 35.711999999999534,
      "v": 80
    },
    {
      "midi": 46,
      "hit": false,
      "t": 109278.7199999991,
      "d": 8.927999999999884,
      "v": 70
    },
    {
      "midi": 40,
      "hit": false,
      "t": 109278.7199999991,
      "d": 8.927999999999884,
      "v": 112
    },
    {
      "midi": 75,
      "hit": false,
      "t": 109278.7199999994,
      "d": 35.711999999999534,
      "v": 80
    },
    {
      "midi": 72,
      "hit": false,
      "t": 109278.71999999972,
      "d": 71.42399999999907,
      "v": 120
    },
    {
      "midi": 67,
      "hit": false,
      "t": 109278.71999999972,
      "d": 71.42399999999907,
      "v": 110
    },
    {
      "midi": 87,
      "hit": false,
      "t": 109385.8559999994,
      "d": 35.711999999999534,
      "v": 60
    },
    {
      "midi": 70,
      "hit": false,
      "t": 109385.85599999972,
      "d": 267.8399999999965,
      "v": 120
    },
    {
      "midi": 67,
      "hit": false,
      "t": 109385.85599999972,
      "d": 267.8399999999965,
      "v": 110
    },
    {
      "midi": 42,
      "hit": false,
      "t": 109492.9919999991,
      "d": 8.927999999999884,
      "v": 84
    },
    {
      "midi": 63,
      "hit": false,
      "t": 109492.9919999994,
      "d": 35.711999999999534,
      "v": 70
    },
    {
      "midi": 60,
      "hit": false,
      "t": 109492.9919999994,
      "d": 35.711999999999534,
      "v": 80
    },
    {
      "midi": 43,
      "hit": false,
      "t": 109492.9919999997,
      "d": 196.41599999999744,
      "v": 110
    },
    {
      "midi": 58,
      "hit": false,
      "t": 109492.99199999975,
      "d": 124.99199999999837,
      "v": 100
    },
    {
      "midi": 63,
      "hit": false,
      "t": 109600.1279999994,
      "d": 35.711999999999534,
      "v": 70
    },
    {
      "midi": 60,
      "hit": false,
      "t": 109600.1279999994,
      "d": 35.711999999999534,
      "v": 80
    },
    {
      "midi": 58,
      "hit": false,
      "t": 109635.83999999975,
      "d": 35.711999999999534,
      "v": 100
    },
    {
      "midi": 46,
      "hit": false,
      "t": 109707.2639999991,
      "d": 8.927999999999884,
      "v": 70
    },
    {
      "midi": 36,
      "hit": false,
      "t": 109707.2639999991,
      "d": 8.927999999999884,
      "v": 112
    },
    {
      "midi": 75,
      "hit": false,
      "t": 109707.2639999994,
      "d": 35.711999999999534,
      "v": 80
    },
    {
      "midi": 48,
      "hit": false,
      "t": 109707.26399999969,
      "d": 428.5439999999944,
      "v": 110
    },
    {
      "midi": 63,
      "hit": false,
      "t": 109707.26399999975,
      "d": 357.11999999999534,
      "v": 117
    },
    {
      "midi": 87,
      "hit": false,
      "t": 109814.3999999994,
      "d": 35.711999999999534,
      "v": 60
    },
    {
      "midi": 42,
      "hit": false,
      "t": 109921.53599999909,
      "d": 8.927999999999884,
      "v": 84
    },
    {
      "midi": 63,
      "hit": false,
      "t": 109921.5359999994,
      "d": 35.711999999999534,
      "v": 70
    },
    {
      "midi": 60,
      "hit": false,
      "t": 109921.5359999994,
      "d": 35.711999999999534,
      "v": 80
    },
    {
      "midi": 75,
      "hit": false,
      "t": 110028.6719999994,
      "d": 35.711999999999534,
      "v": 80
    },
    {
      "midi": 46,
      "hit": false,
      "t": 110135.80799999909,
      "d": 8.927999999999884,
      "v": 70
    },
    {
      "midi": 40,
      "hit": false,
      "t": 110135.80799999909,
      "d": 8.927999999999884,
      "v": 112
    },
    {
      "midi": 87,
      "hit": false,
      "t": 110135.8079999994,
      "d": 35.711999999999534,
      "v": 60
    },
    {
      "midi": 62,
      "hit": false,
      "t": 110135.80799999974,
      "d": 142.84799999999814,
      "v": 100
    },
    {
      "midi": 63,
      "hit": false,
      "t": 110242.94399999939,
      "d": 35.711999999999534,
      "v": 70
    },
    {
      "midi": 60,
      "hit": false,
      "t": 110242.94399999939,
      "d": 35.711999999999534,
      "v": 80
    },
    {
      "midi": 42,
      "hit": false,
      "t": 110350.07999999908,
      "d": 8.927999999999884,
      "v": 84
    },
    {
      "midi": 75,
      "hit": false,
      "t": 110350.07999999939,
      "d": 35.711999999999534,
      "v": 80
    },
    {
      "midi": 60,
      "hit": false,
      "t": 110350.07999999974,
      "d": 357.11999999999534,
      "v": 117
    },
    {
      "midi": 87,
      "hit": false,
      "t": 110457.21599999939,
      "d": 35.711999999999534,
      "v": 60
    },
    {
      "midi": 48,
      "hit": false,
      "t": 110457.21599999968,
      "d": 89.27999999999884,
      "v": 110
    },
    {
      "midi": 46,
      "hit": false,
      "t": 110564.35199999908,
      "d": 8.927999999999884,
      "v": 70
    },
    {
      "midi": 36,
      "hit": false,
      "t": 110564.35199999908,
      "d": 8.927999999999884,
      "v": 112
    },
    {
      "midi": 63,
      "hit": false,
      "t": 110564.35199999939,
      "d": 35.711999999999534,
      "v": 70
    },
    {
      "midi": 60,
      "hit": false,
      "t": 110564.35199999939,
      "d": 35.711999999999534,
      "v": 80
    },
    {
      "midi": 48,
      "hit": false,
      "t": 110564.35199999968,
      "d": 624.9600000000064,
      "v": 110
    },
    {
      "midi": 75,
      "hit": false,
      "t": 110671.48799999939,
      "d": 35.711999999999534,
      "v": 80
    },
    {
      "midi": 42,
      "hit": false,
      "t": 110778.62399999908,
      "d": 8.927999999999884,
      "v": 84
    },
    {
      "midi": 87,
      "hit": false,
      "t": 110778.62399999938,
      "d": 35.711999999999534,
      "v": 60
    },
    {
      "midi": 72,
      "hit": false,
      "t": 110778.62399999972,
      "d": 446.3999999999942,
      "v": 100
    },
    {
      "midi": 60,
      "hit": false,
      "t": 110778.62399999972,
      "d": 446.3999999999942,
      "v": 110
    },
    {
      "midi": 67,
      "hit": false,
      "t": 110778.62399999972,
      "d": 535.679999999993,
      "v": 110
    },
    {
      "midi": 84,
      "hit": false,
      "t": 110778.62399999972,
      "d": 624.9599999999919,
      "v": 120
    },
    {
      "midi": 63,
      "hit": false,
      "t": 110885.75999999938,
      "d": 35.711999999999534,
      "v": 70
    },
    {
      "midi": 60,
      "hit": false,
      "t": 110885.75999999938,
      "d": 35.711999999999534,
      "v": 80
    },
    {
      "midi": 46,
      "hit": false,
      "t": 110992.89599999908,
      "d": 8.927999999999884,
      "v": 70
    },
    {
      "midi": 40,
      "hit": false,
      "t": 110992.89599999908,
      "d": 8.927999999999884,
      "v": 112
    },
    {
      "midi": 75,
      "hit": false,
      "t": 110992.89599999938,
      "d": 35.711999999999534,
      "v": 80
    },
    {
      "midi": 87,
      "hit": false,
      "t": 111100.03199999938,
      "d": 35.711999999999534,
      "v": 60
    },
    {
      "midi": 42,
      "hit": false,
      "t": 111207.16799999907,
      "d": 8.927999999999884,
      "v": 84
    },
    {
      "midi": 63,
      "hit": false,
      "t": 111207.16799999938,
      "d": 35.711999999999534,
      "v": 70
    },
    {
      "midi": 60,
      "hit": false,
      "t": 111207.16799999938,
      "d": 35.711999999999534,
      "v": 80
    },
    {
      "midi": 43,
      "hit": false,
      "t": 111207.16799999968,
      "d": 196.41599999999744,
      "v": 110
    },
    {
      "midi": 63,
      "hit": false,
      "t": 111314.30399999938,
      "d": 35.711999999999534,
      "v": 70
    },
    {
      "midi": 60,
      "hit": false,
      "t": 111314.30399999938,
      "d": 35.711999999999534,
      "v": 80
    },
    {
      "midi": 46,
      "hit": false,
      "t": 111421.43999999907,
      "d": 8.927999999999884,
      "v": 70
    },
    {
      "midi": 36,
      "hit": false,
      "t": 111421.43999999907,
      "d": 8.927999999999884,
      "v": 112
    },
    {
      "midi": 75,
      "hit": false,
      "t": 111421.43999999938,
      "d": 35.711999999999534,
      "v": 80
    },
    {
      "midi": 48,
      "hit": false,
      "t": 111421.43999999968,
      "d": 428.5439999999944,
      "v": 110
    },
    {
      "midi": 87,
      "hit": false,
      "t": 111528.57599999938,
      "d": 35.711999999999534,
      "v": 60
    },
    {
      "midi": 42,
      "hit": false,
      "t": 111635.71199999907,
      "d": 8.927999999999884,
      "v": 84
    },
    {
      "midi": 63,
      "hit": false,
      "t": 111635.71199999937,
      "d": 35.711999999999534,
      "v": 70
    },
    {
      "midi": 60,
      "hit": false,
      "t": 111635.71199999937,
      "d": 35.711999999999534,
      "v": 80
    },
    {
      "midi": 75,
      "hit": false,
      "t": 111742.84799999937,
      "d": 35.711999999999534,
      "v": 80
    },
    {
      "midi": 46,
      "hit": false,
      "t": 111849.98399999907,
      "d": 8.927999999999884,
      "v": 70
    },
    {
      "midi": 40,
      "hit": false,
      "t": 111849.98399999907,
      "d": 8.927999999999884,
      "v": 112
    },
    {
      "midi": 87,
      "hit": false,
      "t": 111849.98399999937,
      "d": 35.711999999999534,
      "v": 60
    },
    {
      "midi": 58,
      "hit": false,
      "t": 111849.98399999973,
      "d": 142.84799999999814,
      "v": 90
    },
    {
      "midi": 63,
      "hit": false,
      "t": 111957.11999999937,
      "d": 35.711999999999534,
      "v": 70
    },
    {
      "midi": 60,
      "hit": false,
      "t": 111957.11999999937,
      "d": 35.711999999999534,
      "v": 80
    },
    {
      "midi": 42,
      "hit": false,
      "t": 112064.25599999906,
      "d": 8.927999999999884,
      "v": 84
    },
    {
      "midi": 75,
      "hit": false,
      "t": 112064.25599999937,
      "d": 35.711999999999534,
      "v": 80
    },
    {
      "midi": 60,
      "hit": false,
      "t": 112064.25599999973,
      "d": 142.84799999999814,
      "v": 117
    },
    {
      "midi": 87,
      "hit": false,
      "t": 112171.39199999937,
      "d": 35.711999999999534,
      "v": 60
    },
    {
      "midi": 48,
      "hit": false,
      "t": 112171.39199999967,
      "d": 89.27999999999884,
      "v": 110
    },
    {
      "midi": 46,
      "hit": false,
      "t": 112278.52799999906,
      "d": 8.927999999999884,
      "v": 70
    },
    {
      "midi": 36,
      "hit": false,
      "t": 112278.52799999906,
      "d": 8.927999999999884,
      "v": 112
    },
    {
      "midi": 63,
      "hit": false,
      "t": 112278.52799999937,
      "d": 35.711999999999534,
      "v": 70
    },
    {
      "midi": 60,
      "hit": false,
      "t": 112278.52799999937,
      "d": 35.711999999999534,
      "v": 80
    },
    {
      "midi": 48,
      "hit": false,
      "t": 112278.52799999967,
      "d": 410.68799999999464,
      "v": 110
    },
    {
      "midi": 63,
      "hit": false,
      "t": 112278.52799999973,
      "d": 142.84799999999814,
      "v": 90
    },
    {
      "midi": 75,
      "hit": false,
      "t": 112385.66399999936,
      "d": 35.711999999999534,
      "v": 80
    },
    {
      "midi": 42,
      "hit": false,
      "t": 112492.79999999906,
      "d": 8.927999999999884,
      "v": 84
    },
    {
      "midi": 87,
      "hit": false,
      "t": 112492.79999999936,
      "d": 35.711999999999534,
      "v": 60
    },
    {
      "midi": 62,
      "hit": false,
      "t": 112492.79999999973,
      "d": 160.7039999999979,
      "v": 90
    },
    {
      "midi": 63,
      "hit": false,
      "t": 112599.93599999936,
      "d": 35.711999999999534,
      "v": 70
    },
    {
      "midi": 60,
      "hit": false,
      "t": 112599.93599999936,
      "d": 35.711999999999534,
      "v": 80
    },
    {
      "midi": 46,
      "hit": false,
      "t": 112707.07199999905,
      "d": 8.927999999999884,
      "v": 70
    },
    {
      "midi": 40,
      "hit": false,
      "t": 112707.07199999905,
      "d": 8.927999999999884,
      "v": 112
    },
    {
      "midi": 75,
      "hit": false,
      "t": 112707.07199999936,
      "d": 35.711999999999534,
      "v": 80
    },
    {
      "midi": 46,
      "hit": false,
      "t": 112707.07199999967,
      "d": 196.41599999999744,
      "v": 110
    },
    {
      "midi": 60,
      "hit": false,
      "t": 112707.07199999972,
      "d": 142.84799999999814,
      "v": 90
    },
    {
      "midi": 87,
      "hit": false,
      "t": 112814.20799999936,
      "d": 35.711999999999534,
      "v": 60
    },
    {
      "midi": 42,
      "hit": false,
      "t": 112921.34399999905,
      "d": 8.927999999999884,
      "v": 84
    },
    {
      "midi": 63,
      "hit": false,
      "t": 112921.34399999936,
      "d": 35.711999999999534,
      "v": 70
    },
    {
      "midi": 60,
      "hit": false,
      "t": 112921.34399999936,
      "d": 35.711999999999534,
      "v": 80
    },
    {
      "midi": 48,
      "hit": false,
      "t": 112921.34399999966,
      "d": 196.41599999999744,
      "v": 110
    },
    {
      "midi": 67,
      "hit": false,
      "t": 112921.34399999972,
      "d": 142.84799999999814,
      "v": 96
    },
    {
      "midi": 63,
      "hit": false,
      "t": 113028.47999999936,
      "d": 35.711999999999534,
      "v": 70
    },
    {
      "midi": 60,
      "hit": false,
      "t": 113028.47999999936,
      "d": 35.711999999999534,
      "v": 80
    },
    {
      "midi": 46,
      "hit": false,
      "t": 113135.61599999905,
      "d": 8.927999999999884,
      "v": 70
    },
    {
      "midi": 36,
      "hit": false,
      "t": 113135.61599999905,
      "d": 8.927999999999884,
      "v": 112
    },
    {
      "midi": 74,
      "hit": false,
      "t": 113135.61599999935,
      "d": 35.711999999999534,
      "v": 80
    },
    {
      "midi": 43,
      "hit": false,
      "t": 113135.61599999966,
      "d": 428.5439999999944,
      "v": 110
    },
    {
      "midi": 86,
      "hit": false,
      "t": 113242.75199999935,
      "d": 35.711999999999534,
      "v": 60
    },
    {
      "midi": 53,
      "hit": false,
      "t": 113242.75199999972,
      "d": 303.55199999999604,
      "v": 117
    },
    {
      "midi": 42,
      "hit": false,
      "t": 113349.88799999905,
      "d": 8.927999999999884,
      "v": 84
    },
    {
      "midi": 62,
      "hit": false,
      "t": 113349.88799999935,
      "d": 35.711999999999534,
      "v": 70
    },
    {
      "midi": 58,
      "hit": false,
      "t": 113349.88799999935,
      "d": 35.711999999999534,
      "v": 80
    },
    {
      "midi": 74,
      "hit": false,
      "t": 113457.02399999935,
      "d": 35.711999999999534,
      "v": 80
    },
    {
      "midi": 46,
      "hit": false,
      "t": 113564.15999999904,
      "d": 8.927999999999884,
      "v": 70
    },
    {
      "midi": 40,
      "hit": false,
      "t": 113564.15999999904,
      "d": 8.927999999999884,
      "v": 112
    },
    {
      "midi": 86,
      "hit": false,
      "t": 113564.15999999935,
      "d": 35.711999999999534,
      "v": 60
    },
    {
      "midi": 55,
      "hit": false,
      "t": 113564.15999999971,
      "d": 1428.479999999996,
      "v": 100
    },
    {
      "midi": 62,
      "hit": false,
      "t": 113671.29599999935,
      "d": 35.711999999999534,
      "v": 70
    },
    {
      "midi": 58,
      "hit": false,
      "t": 113671.29599999935,
      "d": 35.711999999999534,
      "v": 80
    },
    {
      "midi": 42,
      "hit": false,
      "t": 113778.43199999904,
      "d": 8.927999999999884,
      "v": 84
    },
    {
      "midi": 74,
      "hit": false,
      "t": 113778.43199999935,
      "d": 35.711999999999534,
      "v": 80
    },
    {
      "midi": 86,
      "hit": false,
      "t": 113885.56799999934,
      "d": 35.711999999999534,
      "v": 60
    },
    {
      "midi": 43,
      "hit": false,
      "t": 113885.56799999965,
      "d": 89.27999999999884,
      "v": 110
    },
    {
      "midi": 46,
      "hit": false,
      "t": 113992.70399999904,
      "d": 8.927999999999884,
      "v": 70
    },
    {
      "midi": 36,
      "hit": false,
      "t": 113992.70399999904,
      "d": 8.927999999999884,
      "v": 112
    },
    {
      "midi": 62,
      "hit": false,
      "t": 113992.70399999934,
      "d": 35.711999999999534,
      "v": 70
    },
    {
      "midi": 58,
      "hit": false,
      "t": 113992.70399999934,
      "d": 35.711999999999534,
      "v": 80
    },
    {
      "midi": 43,
      "hit": false,
      "t": 113992.70399999965,
      "d": 624.9600000000064,
      "v": 110
    },
    {
      "midi": 74,
      "hit": false,
      "t": 114099.83999999934,
      "d": 35.711999999999534,
      "v": 80
    },
    {
      "midi": 42,
      "hit": false,
      "t": 114206.97599999903,
      "d": 8.927999999999884,
      "v": 84
    },
    {
      "midi": 86,
      "hit": false,
      "t": 114206.97599999934,
      "d": 35.711999999999534,
      "v": 60
    },
    {
      "midi": 79,
      "hit": false,
      "t": 114206.9759999997,
      "d": 71.42399999999907,
      "v": 100
    },
    {
      "midi": 74,
      "hit": false,
      "t": 114206.9759999997,
      "d": 71.42399999999907,
      "v": 80
    },
    {
      "midi": 67,
      "hit": false,
      "t": 114206.9759999997,
      "d": 71.42399999999907,
      "v": 110
    },
    {
      "midi": 62,
      "hit": false,
      "t": 114314.11199999934,
      "d": 35.711999999999534,
      "v": 70
    },
    {
      "midi": 58,
      "hit": false,
      "t": 114314.11199999934,
      "d": 35.711999999999534,
      "v": 80
    },
    {
      "midi": 46,
      "hit": false,
      "t": 114421.24799999903,
      "d": 8.927999999999884,
      "v": 70
    },
    {
      "midi": 40,
      "hit": false,
      "t": 114421.24799999903,
      "d": 8.927999999999884,
      "v": 112
    },
    {
      "midi": 74,
      "hit": false,
      "t": 114421.24799999934,
      "d": 35.711999999999534,
      "v": 80
    },
    {
      "midi": 86,
      "hit": false,
      "t": 114528.38399999934,
      "d": 35.711999999999534,
      "v": 60
    },
    {
      "midi": 79,
      "hit": false,
      "t": 114528.3839999997,
      "d": 71.42399999999907,
      "v": 100
    },
    {
      "midi": 74,
      "hit": false,
      "t": 114528.3839999997,
      "d": 71.42399999999907,
      "v": 80
    },
    {
      "midi": 67,
      "hit": false,
      "t": 114528.3839999997,
      "d": 71.42399999999907,
      "v": 110
    },
    {
      "midi": 42,
      "hit": false,
      "t": 114635.51999999903,
      "d": 8.927999999999884,
      "v": 84
    },
    {
      "midi": 62,
      "hit": false,
      "t": 114635.51999999933,
      "d": 35.711999999999534,
      "v": 70
    },
    {
      "midi": 58,
      "hit": false,
      "t": 114635.51999999933,
      "d": 35.711999999999534,
      "v": 80
    },
    {
      "midi": 46,
      "hit": false,
      "t": 114635.51999999965,
      "d": 196.41599999999744,
      "v": 110
    },
    {
      "midi": 62,
      "hit": false,
      "t": 114742.65599999933,
      "d": 35.711999999999534,
      "v": 70
    },
    {
      "midi": 58,
      "hit": false,
      "t": 114742.65599999933,
      "d": 35.711999999999534,
      "v": 80
    },
    {
      "midi": 46,
      "hit": false,
      "t": 114849.79199999903,
      "d": 8.927999999999884,
      "v": 70
    },
    {
      "midi": 36,
      "hit": false,
      "t": 114849.79199999903,
      "d": 8.927999999999884,
      "v": 112
    },
    {
      "midi": 74,
      "hit": false,
      "t": 114849.79199999933,
      "d": 35.711999999999534,
      "v": 80
    },
    {
      "midi": 43,
      "hit": false,
      "t": 114849.79199999965,
      "d": 428.5439999999944,
      "v": 110
    },
    {
      "midi": 65,
      "hit": false,
      "t": 114849.79199999986,
      "d": 357.11999999999534,
      "v": 107
    },
    {
      "midi": 60,
      "hit": false,
      "t": 114849.79199999986,
      "d": 357.11999999999534,
      "v": 87
    },
    {
      "midi": 86,
      "hit": false,
      "t": 114956.92799999933,
      "d": 35.711999999999534,
      "v": 60
    },
    {
      "midi": 42,
      "hit": false,
      "t": 115064.06399999902,
      "d": 8.927999999999884,
      "v": 84
    },
    {
      "midi": 62,
      "hit": false,
      "t": 115064.06399999933,
      "d": 35.711999999999534,
      "v": 70
    },
    {
      "midi": 58,
      "hit": false,
      "t": 115064.06399999933,
      "d": 35.711999999999534,
      "v": 80
    },
    {
      "midi": 74,
      "hit": false,
      "t": 115171.19999999933,
      "d": 35.711999999999534,
      "v": 80
    },
    {
      "midi": 46,
      "hit": false,
      "t": 115278.33599999902,
      "d": 8.927999999999884,
      "v": 70
    },
    {
      "midi": 40,
      "hit": false,
      "t": 115278.33599999902,
      "d": 8.927999999999884,
      "v": 112
    },
    {
      "midi": 86,
      "hit": false,
      "t": 115278.33599999933,
      "d": 35.711999999999534,
      "v": 60
    },
    {
      "midi": 67,
      "hit": false,
      "t": 115278.33599999985,
      "d": 1285.6319999999978,
      "v": 90
    },
    {
      "midi": 62,
      "hit": false,
      "t": 115278.33599999985,
      "d": 1285.6319999999978,
      "v": 70
    },
    {
      "midi": 62,
      "hit": false,
      "t": 115385.47199999932,
      "d": 35.711999999999534,
      "v": 70
    },
    {
      "midi": 58,
      "hit": false,
      "t": 115385.47199999932,
      "d": 35.711999999999534,
      "v": 80
    },
    {
      "midi": 42,
      "hit": false,
      "t": 115492.60799999902,
      "d": 8.927999999999884,
      "v": 84
    },
    {
      "midi": 74,
      "hit": false,
      "t": 115492.60799999932,
      "d": 35.711999999999534,
      "v": 80
    },
    {
      "midi": 86,
      "hit": false,
      "t": 115599.74399999932,
      "d": 35.711999999999534,
      "v": 60
    },
    {
      "midi": 43,
      "hit": false,
      "t": 115599.74399999964,
      "d": 89.27999999999884,
      "v": 110
    },
    {
      "midi": 46,
      "hit": false,
      "t": 115706.87999999902,
      "d": 8.927999999999884,
      "v": 70
    },
    {
      "midi": 36,
      "hit": false,
      "t": 115706.87999999902,
      "d": 8.927999999999884,
      "v": 112
    },
    {
      "midi": 62,
      "hit": false,
      "t": 115706.87999999932,
      "d": 35.711999999999534,
      "v": 70
    },
    {
      "midi": 58,
      "hit": false,
      "t": 115706.87999999932,
      "d": 35.711999999999534,
      "v": 80
    },
    {
      "midi": 43,
      "hit": false,
      "t": 115706.87999999964,
      "d": 410.68799999999464,
      "v": 110
    },
    {
      "midi": 74,
      "hit": false,
      "t": 115706.8799999997,
      "d": 71.42399999999907,
      "v": 120
    },
    {
      "midi": 70,
      "hit": false,
      "t": 115706.8799999997,
      "d": 71.42399999999907,
      "v": 110
    },
    {
      "midi": 74,
      "hit": false,
      "t": 115814.01599999932,
      "d": 35.711999999999534,
      "v": 80
    },
    {
      "midi": 42,
      "hit": false,
      "t": 115921.15199999901,
      "d": 8.927999999999884,
      "v": 84
    },
    {
      "midi": 86,
      "hit": false,
      "t": 115921.15199999932,
      "d": 35.711999999999534,
      "v": 60
    },
    {
      "midi": 70,
      "hit": false,
      "t": 115921.1519999997,
      "d": 71.42399999999907,
      "v": 110
    },
    {
      "midi": 67,
      "hit": false,
      "t": 115921.1519999997,
      "d": 71.42399999999907,
      "v": 100
    },
    {
      "midi": 62,
      "hit": false,
      "t": 116028.28799999932,
      "d": 35.711999999999534,
      "v": 70
    },
    {
      "midi": 58,
      "hit": false,
      "t": 116028.28799999932,
      "d": 35.711999999999534,
      "v": 80
    },
    {
      "midi": 46,
      "hit": false,
      "t": 116135.42399999901,
      "d": 8.927999999999884,
      "v": 70
    },
    {
      "midi": 40,
      "hit": false,
      "t": 116135.42399999901,
      "d": 8.927999999999884,
      "v": 112
    },
    {
      "midi": 74,
      "hit": false,
      "t": 116135.42399999932,
      "d": 35.711999999999534,
      "v": 80
    },
    {
      "midi": 46,
      "hit": false,
      "t": 116135.42399999964,
      "d": 196.41599999999744,
      "v": 110
    },
    {
      "midi": 65,
      "hit": false,
      "t": 116135.4239999997,
      "d": 71.42399999999907,
      "v": 110
    },
    {
      "midi": 62,
      "hit": false,
      "t": 116135.4239999997,
      "d": 71.42399999999907,
      "v": 100
    },
    {
      "midi": 86,
      "hit": false,
      "t": 116242.55999999931,
      "d": 35.711999999999534,
      "v": 60
    },
    {
      "midi": 67,
      "hit": false,
      "t": 116242.55999999969,
      "d": 267.8399999999965,
      "v": 120
    },
    {
      "midi": 62,
      "hit": false,
      "t": 116242.55999999969,
      "d": 267.8399999999965,
      "v": 110
    },
    {
      "midi": 51,
      "hit": false,
      "t": 116349.695999999,
      "d": 8.927999999999884,
      "v": 112
    },
    {
      "midi": 62,
      "hit": false,
      "t": 116349.69599999931,
      "d": 35.711999999999534,
      "v": 70
    },
    {
      "midi": 58,
      "hit": false,
      "t": 116349.69599999931,
      "d": 35.711999999999534,
      "v": 80
    },
    {
      "midi": 43,
      "hit": false,
      "t": 116349.69599999963,
      "d": 196.41599999999744,
      "v": 110
    },
    {
      "midi": 62,
      "hit": false,
      "t": 116456.83199999931,
      "d": 35.711999999999534,
      "v": 70
    },
    {
      "midi": 58,
      "hit": false,
      "t": 116456.83199999931,
      "d": 35.711999999999534,
      "v": 80
    },
    {
      "midi": 46,
      "hit": false,
      "t": 116563.967999999,
      "d": 8.927999999999884,
      "v": 70
    },
    {
      "midi": 36,
      "hit": false,
      "t": 116563.967999999,
      "d": 8.927999999999884,
      "v": 112
    },
    {
      "midi": 75,
      "hit": false,
      "t": 116563.96799999931,
      "d": 35.711999999999534,
      "v": 80
    },
    {
      "midi": 44,
      "hit": false,
      "t": 116563.96799999963,
      "d": 428.5439999999944,
      "v": 110
    },
    {
      "midi": 87,
      "hit": false,
      "t": 116671.10399999931,
      "d": 35.711999999999534,
      "v": 60
    },
    {
      "midi": 42,
      "hit": false,
      "t": 116778.239999999,
      "d": 8.927999999999884,
      "v": 84
    },
    {
      "midi": 63,
      "hit": false,
      "t": 116778.2399999993,
      "d": 35.711999999999534,
      "v": 70
    },
    {
      "midi": 60,
      "hit": false,
      "t": 116778.2399999993,
      "d": 35.711999999999534,
      "v": 80
    },
    {
      "midi": 51,
      "hit": false,
      "t": 116778.23999999971,
      "d": 178.55999999999767,
      "v": 95
    },
    {
      "midi": 75,
      "hit": false,
      "t": 116885.3759999993,
      "d": 35.711999999999534,
      "v": 80
    },
    {
      "midi": 46,
      "hit": false,
      "t": 116992.511999999,
      "d": 8.927999999999884,
      "v": 70
    },
    {
      "midi": 40,
      "hit": false,
      "t": 116992.511999999,
      "d": 8.927999999999884,
      "v": 112
    },
    {
      "midi": 87,
      "hit": false,
      "t": 116992.5119999993,
      "d": 35.711999999999534,
      "v": 60
    },
    {
      "midi": 48,
      "hit": false,
      "t": 116992.51199999971,
      "d": 160.7039999999979,
      "v": 112
    },
    {
      "midi": 63,
      "hit": false,
      "t": 117099.6479999993,
      "d": 35.711999999999534,
      "v": 70
    },
    {
      "midi": 60,
      "hit": false,
      "t": 117099.6479999993,
      "d": 35.711999999999534,
      "v": 80
    },
    {
      "midi": 42,
      "hit": false,
      "t": 117206.783999999,
      "d": 8.927999999999884,
      "v": 84
    },
    {
      "midi": 75,
      "hit": false,
      "t": 117206.7839999993,
      "d": 35.711999999999534,
      "v": 80
    },
    {
      "midi": 51,
      "hit": false,
      "t": 117206.78399999971,
      "d": 178.55999999999767,
      "v": 75
    },
    {
      "midi": 87,
      "hit": false,
      "t": 117313.9199999993,
      "d": 35.711999999999534,
      "v": 60
    },
    {
      "midi": 46,
      "hit": false,
      "t": 117421.055999999,
      "d": 8.927999999999884,
      "v": 70
    },
    {
      "midi": 36,
      "hit": false,
      "t": 117421.055999999,
      "d": 8.927999999999884,
      "v": 112
    },
    {
      "midi": 63,
      "hit": false,
      "t": 117421.0559999993,
      "d": 35.711999999999534,
      "v": 70
    },
    {
      "midi": 60,
      "hit": false,
      "t": 117421.0559999993,
      "d": 35.711999999999534,
      "v": 80
    },
    {
      "midi": 44,
      "hit": false,
      "t": 117421.05599999962,
      "d": 321.4079999999958,
      "v": 110
    },
    {
      "midi": 55,
      "hit": false,
      "t": 117421.0559999997,
      "d": 160.7039999999979,
      "v": 112
    },
    {
      "midi": 75,
      "hit": false,
      "t": 117528.1919999993,
      "d": 35.711999999999534,
      "v": 80
    },
    {
      "midi": 42,
      "hit": false,
      "t": 117635.32799999899,
      "d": 8.927999999999884,
      "v": 84
    },
    {
      "midi": 87,
      "hit": false,
      "t": 117635.3279999993,
      "d": 35.711999999999534,
      "v": 60
    },
    {
      "midi": 53,
      "hit": false,
      "t": 117635.3279999997,
      "d": 624.9600000000064,
      "v": 95
    },
    {
      "midi": 63,
      "hit": false,
      "t": 117742.4639999993,
      "d": 35.711999999999534,
      "v": 70
    },
    {
      "midi": 60,
      "hit": false,
      "t": 117742.4639999993,
      "d": 35.711999999999534,
      "v": 80
    },
    {
      "midi": 46,
      "hit": false,
      "t": 117849.59999999899,
      "d": 8.927999999999884,
      "v": 70
    },
    {
      "midi": 40,
      "hit": false,
      "t": 117849.59999999899,
      "d": 8.927999999999884,
      "v": 112
    },
    {
      "midi": 75,
      "hit": false,
      "t": 117849.5999999993,
      "d": 35.711999999999534,
      "v": 80
    },
    {
      "midi": 44,
      "hit": false,
      "t": 117849.59999999961,
      "d": 321.4079999999958,
      "v": 110
    },
    {
      "midi": 55,
      "hit": false,
      "t": 117849.59999999999,
      "d": 419.61599999999453,
      "v": 80
    },
    {
      "midi": 87,
      "hit": false,
      "t": 117956.73599999929,
      "d": 35.711999999999534,
      "v": 60
    },
    {
      "midi": 42,
      "hit": false,
      "t": 118063.87199999898,
      "d": 8.927999999999884,
      "v": 84
    },
    {
      "midi": 63,
      "hit": false,
      "t": 118063.87199999929,
      "d": 35.711999999999534,
      "v": 70
    },
    {
      "midi": 60,
      "hit": false,
      "t": 118063.87199999929,
      "d": 35.711999999999534,
      "v": 80
    },
    {
      "midi": 77,
      "hit": false,
      "t": 118063.87199999968,
      "d": 71.42399999999907,
      "v": 100
    },
    {
      "midi": 72,
      "hit": false,
      "t": 118063.87199999968,
      "d": 71.42399999999907,
      "v": 80
    },
    {
      "midi": 63,
      "hit": false,
      "t": 118171.00799999929,
      "d": 35.711999999999534,
      "v": 70
    },
    {
      "midi": 60,
      "hit": false,
      "t": 118171.00799999929,
      "d": 35.711999999999534,
      "v": 80
    },
    {
      "midi": 46,
      "hit": false,
      "t": 118278.14399999898,
      "d": 8.927999999999884,
      "v": 70
    },
    {
      "midi": 36,
      "hit": false,
      "t": 118278.14399999898,
      "d": 8.927999999999884,
      "v": 112
    },
    {
      "midi": 75,
      "hit": false,
      "t": 118278.14399999929,
      "d": 35.711999999999534,
      "v": 80
    },
    {
      "midi": 46,
      "hit": false,
      "t": 118278.14399999961,
      "d": 428.5439999999944,
      "v": 110
    },
    {
      "midi": 75,
      "hit": false,
      "t": 118278.14399999994,
      "d": 1714.1760000000068,
      "v": 70
    },
    {
      "midi": 63,
      "hit": false,
      "t": 118278.14399999994,
      "d": 1714.1760000000068,
      "v": 70
    },
    {
      "midi": 53,
      "hit": false,
      "t": 118278.14399999999,
      "d": 1705.2480000000069,
      "v": 100
    },
    {
      "midi": 87,
      "hit": false,
      "t": 118385.27999999929,
      "d": 35.711999999999534,
      "v": 60
    },
    {
      "midi": 42,
      "hit": false,
      "t": 118492.41599999898,
      "d": 8.927999999999884,
      "v": 84
    },
    {
      "midi": 63,
      "hit": false,
      "t": 118492.41599999928,
      "d": 35.711999999999534,
      "v": 70
    },
    {
      "midi": 60,
      "hit": false,
      "t": 118492.41599999928,
      "d": 35.711999999999534,
      "v": 80
    },
    {
      "midi": 51,
      "hit": false,
      "t": 118492.4159999997,
      "d": 178.55999999999767,
      "v": 76
    },
    {
      "midi": 75,
      "hit": false,
      "t": 118599.55199999928,
      "d": 35.711999999999534,
      "v": 80
    },
    {
      "midi": 46,
      "hit": false,
      "t": 118706.68799999898,
      "d": 8.927999999999884,
      "v": 70
    },
    {
      "midi": 40,
      "hit": false,
      "t": 118706.68799999898,
      "d": 8.927999999999884,
      "v": 112
    },
    {
      "midi": 87,
      "hit": false,
      "t": 118706.68799999928,
      "d": 35.711999999999534,
      "v": 60
    },
    {
      "midi": 48,
      "hit": false,
      "t": 118706.6879999997,
      "d": 160.7039999999979,
      "v": 76
    },
    {
      "midi": 63,
      "hit": false,
      "t": 118813.82399999928,
      "d": 35.711999999999534,
      "v": 70
    },
    {
      "midi": 60,
      "hit": false,
      "t": 118813.82399999928,
      "d": 35.711999999999534,
      "v": 80
    },
    {
      "midi": 42,
      "hit": false,
      "t": 118920.95999999897,
      "d": 8.927999999999884,
      "v": 84
    },
    {
      "midi": 75,
      "hit": false,
      "t": 118920.95999999928,
      "d": 35.711999999999534,
      "v": 80
    },
    {
      "midi": 51,
      "hit": false,
      "t": 118920.9599999997,
      "d": 178.55999999999767,
      "v": 112
    },
    {
      "midi": 87,
      "hit": false,
      "t": 119028.09599999928,
      "d": 35.711999999999534,
      "v": 60
    },
    {
      "midi": 46,
      "hit": false,
      "t": 119135.23199999897,
      "d": 8.927999999999884,
      "v": 70
    },
    {
      "midi": 36,
      "hit": false,
      "t": 119135.23199999897,
      "d": 8.927999999999884,
      "v": 112
    },
    {
      "midi": 63,
      "hit": false,
      "t": 119135.23199999928,
      "d": 35.711999999999534,
      "v": 70
    },
    {
      "midi": 60,
      "hit": false,
      "t": 119135.23199999928,
      "d": 35.711999999999534,
      "v": 80
    },
    {
      "midi": 46,
      "hit": false,
      "t": 119135.2319999996,
      "d": 321.4079999999958,
      "v": 110
    },
    {
      "midi": 55,
      "hit": false,
      "t": 119135.2319999997,
      "d": 232.12799999999697,
      "v": 105
    },
    {
      "midi": 75,
      "hit": false,
      "t": 119242.36799999927,
      "d": 35.711999999999534,
      "v": 80
    },
    {
      "midi": 42,
      "hit": false,
      "t": 119349.50399999897,
      "d": 8.927999999999884,
      "v": 84
    },
    {
      "midi": 87,
      "hit": false,
      "t": 119349.50399999927,
      "d": 35.711999999999534,
      "v": 60
    },
    {
      "midi": 63,
      "hit": false,
      "t": 119456.63999999927,
      "d": 35.711999999999534,
      "v": 70
    },
    {
      "midi": 60,
      "hit": false,
      "t": 119456.63999999927,
      "d": 35.711999999999534,
      "v": 80
    },
    {
      "midi": 53,
      "hit": false,
      "t": 119456.6399999997,
      "d": 160.7039999999979,
      "v": 112
    },
    {
      "midi": 46,
      "hit": false,
      "t": 119563.77599999896,
      "d": 8.927999999999884,
      "v": 70
    },
    {
      "midi": 40,
      "hit": false,
      "t": 119563.77599999896,
      "d": 8.927999999999884,
      "v": 112
    },
    {
      "midi": 75,
      "hit": false,
      "t": 119563.77599999927,
      "d": 35.711999999999534,
      "v": 80
    },
    {
      "midi": 43,
      "hit": false,
      "t": 119563.77599999959,
      "d": 178.55999999999767,
      "v": 110
    },
    {
      "midi": 87,
      "hit": false,
      "t": 119670.91199999927,
      "d": 35.711999999999534,
      "v": 60
    },
    {
      "midi": 51,
      "hit": false,
      "t": 119670.91199999969,
      "d": 160.7039999999979,
      "v": 95
    },
    {
      "midi": 42,
      "hit": false,
      "t": 119778.04799999896,
      "d": 8.927999999999884,
      "v": 84
    },
    {
      "midi": 63,
      "hit": false,
      "t": 119778.04799999927,
      "d": 35.711999999999534,
      "v": 70
    },
    {
      "midi": 60,
      "hit": false,
      "t": 119778.04799999927,
      "d": 35.711999999999534,
      "v": 80
    },
    {
      "midi": 46,
      "hit": false,
      "t": 119778.04799999959,
      "d": 178.55999999999767,
      "v": 110
    },
    {
      "midi": 63,
      "hit": false,
      "t": 119885.18399999927,
      "d": 35.711999999999534,
      "v": 70
    },
    {
      "midi": 60,
      "hit": false,
      "t": 119885.18399999927,
      "d": 35.711999999999534,
      "v": 80
    },
    {
      "midi": 46,
      "hit": false,
      "t": 119992.31999999896,
      "d": 8.927999999999884,
      "v": 70
    },
    {
      "midi": 36,
      "hit": false,
      "t": 119992.31999999896,
      "d": 8.927999999999884,
      "v": 112
    },
    {
      "midi": 75,
      "hit": false,
      "t": 119992.31999999926,
      "d": 35.711999999999534,
      "v": 80
    },
    {
      "midi": 48,
      "hit": false,
      "t": 119992.31999999958,
      "d": 428.5439999999944,
      "v": 110
    },
    {
      "midi": 50,
      "hit": false,
      "t": 119992.31999999969,
      "d": 160.7039999999979,
      "v": 85
    },
    {
      "midi": 67,
      "hit": false,
      "t": 119992.31999999999,
      "d": 1705.2480000000069,
      "v": 100
    },
    {
      "midi": 62,
      "hit": false,
      "t": 119992.31999999999,
      "d": 1705.2480000000069,
      "v": 100
    },
    {
      "midi": 87,
      "hit": false,
      "t": 120099.45599999926,
      "d": 35.711999999999534,
      "v": 60
    },
    {
      "midi": 42,
      "hit": false,
      "t": 120206.59199999896,
      "d": 8.927999999999884,
      "v": 84
    },
    {
      "midi": 63,
      "hit": false,
      "t": 120206.59199999926,
      "d": 35.711999999999534,
      "v": 70
    },
    {
      "midi": 60,
      "hit": false,
      "t": 120206.59199999926,
      "d": 35.711999999999534,
      "v": 80
    },
    {
      "midi": 48,
      "hit": false,
      "t": 120206.59199999968,
      "d": 1428.479999999996,
      "v": 100
    },
    {
      "midi": 86,
      "hit": false,
      "t": 120206.59199999995,
      "d": 1285.6319999999832,
      "v": 100
    },
    {
      "midi": 75,
      "hit": false,
      "t": 120313.72799999926,
      "d": 35.711999999999534,
      "v": 80
    },
    {
      "midi": 46,
      "hit": false,
      "t": 120420.86399999895,
      "d": 8.927999999999884,
      "v": 70
    },
    {
      "midi": 40,
      "hit": false,
      "t": 120420.86399999895,
      "d": 8.927999999999884,
      "v": 112
    },
    {
      "midi": 87,
      "hit": false,
      "t": 120420.86399999926,
      "d": 35.711999999999534,
      "v": 60
    },
    {
      "midi": 63,
      "hit": false,
      "t": 120527.99999999926,
      "d": 35.711999999999534,
      "v": 70
    },
    {
      "midi": 60,
      "hit": false,
      "t": 120527.99999999926,
      "d": 35.711999999999534,
      "v": 80
    },
    {
      "midi": 42,
      "hit": false,
      "t": 120635.13599999895,
      "d": 8.927999999999884,
      "v": 84
    },
    {
      "midi": 75,
      "hit": false,
      "t": 120635.13599999926,
      "d": 35.711999999999534,
      "v": 80
    },
    {
      "midi": 87,
      "hit": false,
      "t": 120742.27199999926,
      "d": 35.711999999999534,
      "v": 60
    },
    {
      "midi": 46,
      "hit": false,
      "t": 120849.40799999895,
      "d": 8.927999999999884,
      "v": 70
    },
    {
      "midi": 36,
      "hit": false,
      "t": 120849.40799999895,
      "d": 8.927999999999884,
      "v": 112
    },
    {
      "midi": 63,
      "hit": false,
      "t": 120849.40799999925,
      "d": 35.711999999999534,
      "v": 70
    },
    {
      "midi": 60,
      "hit": false,
      "t": 120849.40799999925,
      "d": 35.711999999999534,
      "v": 80
    },
    {
      "midi": 48,
      "hit": false,
      "t": 120849.40799999957,
      "d": 535.679999999993,
      "v": 110
    },
    {
      "midi": 75,
      "hit": false,
      "t": 120956.54399999925,
      "d": 35.711999999999534,
      "v": 80
    },
    {
      "midi": 42,
      "hit": false,
      "t": 121063.67999999895,
      "d": 8.927999999999884,
      "v": 84
    },
    {
      "midi": 87,
      "hit": false,
      "t": 121063.67999999925,
      "d": 35.711999999999534,
      "v": 60
    },
    {
      "midi": 63,
      "hit": false,
      "t": 121170.81599999925,
      "d": 35.711999999999534,
      "v": 70
    },
    {
      "midi": 60,
      "hit": false,
      "t": 121170.81599999925,
      "d": 35.711999999999534,
      "v": 80
    },
    {
      "midi": 46,
      "hit": false,
      "t": 121277.95199999894,
      "d": 8.927999999999884,
      "v": 70
    },
    {
      "midi": 40,
      "hit": false,
      "t": 121277.95199999894,
      "d": 8.927999999999884,
      "v": 112
    },
    {
      "midi": 75,
      "hit": false,
      "t": 121277.95199999925,
      "d": 35.711999999999534,
      "v": 80
    },
    {
      "midi": 87,
      "hit": false,
      "t": 121385.08799999925,
      "d": 35.711999999999534,
      "v": 60
    },
    {
      "midi": 42,
      "hit": false,
      "t": 121492.22399999894,
      "d": 8.927999999999884,
      "v": 84
    },
    {
      "midi": 63,
      "hit": false,
      "t": 121492.22399999925,
      "d": 35.711999999999534,
      "v": 70
    },
    {
      "midi": 60,
      "hit": false,
      "t": 121492.22399999925,
      "d": 35.711999999999534,
      "v": 80
    },
    {
      "midi": 48,
      "hit": false,
      "t": 121492.22399999957,
      "d": 178.55999999999767,
      "v": 110
    },
    {
      "midi": 86,
      "hit": false,
      "t": 121492.22399999993,
      "d": 107.1359999999986,
      "v": 90
    },
    {
      "midi": 63,
      "hit": false,
      "t": 121599.35999999924,
      "d": 35.711999999999534,
      "v": 70
    },
    {
      "midi": 60,
      "hit": false,
      "t": 121599.35999999924,
      "d": 35.711999999999534,
      "v": 80
    },
    {
      "midi": 82,
      "hit": false,
      "t": 121599.35999999993,
      "d": 107.1359999999986,
      "v": 80
    },
    {
      "midi": 36,
      "hit": false,
      "t": 121706.49599999894,
      "d": 8.927999999999884,
      "v": 112
    },
    {
      "midi": 43,
      "hit": false,
      "t": 121706.49599999956,
      "d": 107.1359999999986,
      "v": 110
    },
    {
      "midi": 79,
      "hit": false,
      "t": 121706.49599999993,
      "d": 71.42399999999907,
      "v": 100
    },
    {
      "midi": 40,
      "hit": false,
      "t": 121920.76799999893,
      "d": 8.927999999999884,
      "v": 84
    },
    {
      "midi": 43,
      "hit": false,
      "t": 121920.76799999956,
      "d": 107.1359999999986,
      "v": 110
    },
    {
      "midi": 82,
      "hit": false,
      "t": 121920.76799999968,
      "d": 71.42399999999907,
      "v": 110
    },
    {
      "midi": 70,
      "hit": false,
      "t": 121920.76799999968,
      "d": 71.42399999999907,
      "v": 120
    },
    {
      "midi": 65,
      "hit": false,
      "t": 121920.76799999968,
      "d": 71.42399999999907,
      "v": 100
    },
    {
      "midi": 40,
      "hit": false,
      "t": 122135.03999999893,
      "d": 8.927999999999884,
      "v": 84
    },
    {
      "midi": 46,
      "hit": false,
      "t": 122242.17599999893,
      "d": 8.927999999999884,
      "v": 126
    },
    {
      "midi": 43,
      "hit": false,
      "t": 122242.17599999956,
      "d": 107.1359999999986,
      "v": 110
    },
    {
      "midi": 82,
      "hit": false,
      "t": 122242.17599999967,
      "d": 71.42399999999907,
      "v": 90
    },
    {
      "midi": 70,
      "hit": false,
      "t": 122242.17599999967,
      "d": 71.42399999999907,
      "v": 110
    },
    {
      "midi": 65,
      "hit": false,
      "t": 122242.17599999967,
      "d": 71.42399999999907,
      "v": 90
    },
    {
      "midi": 44,
      "hit": false,
      "t": 122349.31199999893,
      "d": 8.927999999999884,
      "v": 126
    },
    {
      "midi": 57,
      "hit": false,
      "t": 122456.44799999893,
      "d": 8.927999999999884,
      "v": 84
    },
    {
      "midi": 40,
      "hit": false,
      "t": 122456.44799999893,
      "d": 8.927999999999884,
      "v": 84
    },
    {
      "midi": 43,
      "hit": false,
      "t": 122456.44799999955,
      "d": 714.2400000000052,
      "v": 110
    },
    {
      "midi": 70,
      "hit": false,
      "t": 122456.44799999967,
      "d": 624.9599999999919,
      "v": 127
    },
    {
      "midi": 65,
      "hit": false,
      "t": 122456.44799999967,
      "d": 624.9599999999919,
      "v": 110
    },
    {
      "midi": 82,
      "hit": false,
      "t": 122456.44799999967,
      "d": 714.2399999999907,
      "v": 127
    },
    {
      "midi": 45,
      "hit": false,
      "t": 122992.12799999892,
      "d": 8.927999999999884,
      "v": 84
    },
    {
      "midi": 57,
      "hit": false,
      "t": 123420.67199999891,
      "d": 8.927999999999884,
      "v": 84
    },
    {
      "midi": 42,
      "hit": false,
      "t": 123420.67199999891,
      "d": 8.927999999999884,
      "v": 112
    },
    {
      "midi": 36,
      "hit": false,
      "t": 123420.67199999891,
      "d": 8.927999999999884,
      "v": 112
    },
    {
      "midi": 75,
      "hit": false,
      "t": 123420.67199999925,
      "d": 35.711999999999534,
      "v": 80
    },
    {
      "midi": 48,
      "hit": false,
      "t": 123420.67199999955,
      "d": 428.5439999999944,
      "v": 110
    },
    {
      "midi": 84,
      "hit": false,
      "t": 123420.67199999992,
      "d": 1705.2480000000069,
      "v": 80
    },
    {
      "midi": 79,
      "hit": false,
      "t": 123420.672,
      "d": 3428.3519999999844,
      "v": 80
    },
    {
      "midi": 87,
      "hit": false,
      "t": 123527.80799999925,
      "d": 35.711999999999534,
      "v": 60
    },
    {
      "midi": 46,
      "hit": false,
      "t": 123634.94399999891,
      "d": 8.927999999999884,
      "v": 112
    },
    {
      "midi": 63,
      "hit": false,
      "t": 123634.94399999925,
      "d": 35.711999999999534,
      "v": 70
    },
    {
      "midi": 60,
      "hit": false,
      "t": 123634.94399999925,
      "d": 35.711999999999534,
      "v": 80
    },
    {
      "midi": 75,
      "hit": false,
      "t": 123634.94399999984,
      "d": 26.78399999999965,
      "v": 127
    },
    {
      "midi": 67,
      "hit": false,
      "t": 123634.94399999984,
      "d": 26.78399999999965,
      "v": 127
    },
    {
      "midi": 75,
      "hit": false,
      "t": 123742.07999999925,
      "d": 35.711999999999534,
      "v": 80
    },
    {
      "midi": 72,
      "hit": false,
      "t": 123742.07999999984,
      "d": 35.711999999999534,
      "v": 100
    },
    {
      "midi": 67,
      "hit": false,
      "t": 123742.07999999984,
      "d": 35.711999999999534,
      "v": 100
    },
    {
      "midi": 42,
      "hit": false,
      "t": 123849.21599999891,
      "d": 8.927999999999884,
      "v": 112
    },
    {
      "midi": 40,
      "hit": false,
      "t": 123849.21599999891,
      "d": 8.927999999999884,
      "v": 112
    },
    {
      "midi": 87,
      "hit": false,
      "t": 123849.21599999924,
      "d": 35.711999999999534,
      "v": 60
    },
    {
      "midi": 63,
      "hit": false,
      "t": 123956.35199999924,
      "d": 35.711999999999534,
      "v": 70
    },
    {
      "midi": 60,
      "hit": false,
      "t": 123956.35199999924,
      "d": 35.711999999999534,
      "v": 80
    },
    {
      "midi": 75,
      "hit": false,
      "t": 123956.35199999984,
      "d": 26.78399999999965,
      "v": 127
    },
    {
      "midi": 67,
      "hit": false,
      "t": 123956.35199999984,
      "d": 26.78399999999965,
      "v": 127
    },
    {
      "midi": 46,
      "hit": false,
      "t": 124063.4879999989,
      "d": 8.927999999999884,
      "v": 112
    },
    {
      "midi": 75,
      "hit": false,
      "t": 124063.48799999924,
      "d": 35.711999999999534,
      "v": 80
    },
    {
      "midi": 72,
      "hit": false,
      "t": 124063.48799999984,
      "d": 35.711999999999534,
      "v": 100
    },
    {
      "midi": 67,
      "hit": false,
      "t": 124063.48799999984,
      "d": 35.711999999999534,
      "v": 100
    },
    {
      "midi": 87,
      "hit": false,
      "t": 124170.62399999924,
      "d": 35.711999999999534,
      "v": 60
    },
    {
      "midi": 42,
      "hit": false,
      "t": 124277.7599999989,
      "d": 8.927999999999884,
      "v": 112
    },
    {
      "midi": 36,
      "hit": false,
      "t": 124277.7599999989,
      "d": 8.927999999999884,
      "v": 112
    },
    {
      "midi": 63,
      "hit": false,
      "t": 124277.75999999924,
      "d": 35.711999999999534,
      "v": 70
    },
    {
      "midi": 60,
      "hit": false,
      "t": 124277.75999999924,
      "d": 35.711999999999534,
      "v": 80
    },
    {
      "midi": 48,
      "hit": false,
      "t": 124277.75999999954,
      "d": 428.5439999999944,
      "v": 110
    },
    {
      "midi": 75,
      "hit": false,
      "t": 124277.75999999983,
      "d": 26.78399999999965,
      "v": 127
    },
    {
      "midi": 67,
      "hit": false,
      "t": 124277.75999999983,
      "d": 26.78399999999965,
      "v": 127
    },
    {
      "midi": 75,
      "hit": false,
      "t": 124384.89599999924,
      "d": 35.711999999999534,
      "v": 80
    },
    {
      "midi": 72,
      "hit": false,
      "t": 124384.89599999983,
      "d": 35.711999999999534,
      "v": 100
    },
    {
      "midi": 67,
      "hit": false,
      "t": 124384.89599999983,
      "d": 35.711999999999534,
      "v": 100
    },
    {
      "midi": 46,
      "hit": false,
      "t": 124492.0319999989,
      "d": 8.927999999999884,
      "v": 112
    },
    {
      "midi": 87,
      "hit": false,
      "t": 124492.03199999924,
      "d": 35.711999999999534,
      "v": 60
    },
    {
      "midi": 63,
      "hit": false,
      "t": 124599.16799999923,
      "d": 35.711999999999534,
      "v": 70
    },
    {
      "midi": 60,
      "hit": false,
      "t": 124599.16799999923,
      "d": 35.711999999999534,
      "v": 80
    },
    {
      "midi": 75,
      "hit": false,
      "t": 124599.16799999983,
      "d": 26.78399999999965,
      "v": 127
    },
    {
      "midi": 67,
      "hit": false,
      "t": 124599.16799999983,
      "d": 26.78399999999965,
      "v": 127
    },
    {
      "midi": 42,
      "hit": false,
      "t": 124706.3039999989,
      "d": 8.927999999999884,
      "v": 112
    },
    {
      "midi": 40,
      "hit": false,
      "t": 124706.3039999989,
      "d": 8.927999999999884,
      "v": 112
    },
    {
      "midi": 75,
      "hit": false,
      "t": 124706.30399999923,
      "d": 35.711999999999534,
      "v": 80
    },
    {
      "midi": 48,
      "hit": false,
      "t": 124706.30399999954,
      "d": 89.27999999999884,
      "v": 110
    },
    {
      "midi": 72,
      "hit": false,
      "t": 124706.30399999983,
      "d": 35.711999999999534,
      "v": 100
    },
    {
      "midi": 67,
      "hit": false,
      "t": 124706.30399999983,
      "d": 35.711999999999534,
      "v": 100
    },
    {
      "midi": 87,
      "hit": false,
      "t": 124813.43999999923,
      "d": 35.711999999999534,
      "v": 60
    },
    {
      "midi": 51,
      "hit": false,
      "t": 124813.43999999954,
      "d": 89.27999999999884,
      "v": 110
    },
    {
      "midi": 46,
      "hit": false,
      "t": 124920.5759999989,
      "d": 8.927999999999884,
      "v": 112
    },
    {
      "midi": 63,
      "hit": false,
      "t": 124920.57599999923,
      "d": 35.711999999999534,
      "v": 70
    },
    {
      "midi": 60,
      "hit": false,
      "t": 124920.57599999923,
      "d": 35.711999999999534,
      "v": 80
    },
    {
      "midi": 48,
      "hit": false,
      "t": 124920.57599999954,
      "d": 178.55999999999767,
      "v": 110
    },
    {
      "midi": 75,
      "hit": false,
      "t": 124920.57599999983,
      "d": 26.78399999999965,
      "v": 97
    },
    {
      "midi": 67,
      "hit": false,
      "t": 124920.57599999983,
      "d": 26.78399999999965,
      "v": 97
    },
    {
      "midi": 63,
      "hit": false,
      "t": 125027.71199999923,
      "d": 35.711999999999534,
      "v": 70
    },
    {
      "midi": 60,
      "hit": false,
      "t": 125027.71199999923,
      "d": 35.711999999999534,
      "v": 80
    },
    {
      "midi": 42,
      "hit": false,
      "t": 125134.84799999889,
      "d": 8.927999999999884,
      "v": 112
    },
    {
      "midi": 36,
      "hit": false,
      "t": 125134.84799999889,
      "d": 8.927999999999884,
      "v": 112
    },
    {
      "midi": 41,
      "hit": false,
      "t": 125134.84799999953,
      "d": 428.5439999999944,
      "v": 110
    },
    {
      "midi": 69,
      "hit": false,
      "t": 125134.84799999982,
      "d": 1607.0399999999936,
      "v": 90
    },
    {
      "midi": 65,
      "hit": false,
      "t": 125134.84799999982,
      "d": 1607.0399999999936,
      "v": 50
    },
    {
      "midi": 46,
      "hit": false,
      "t": 125349.11999999889,
      "d": 8.927999999999884,
      "v": 112
    },
    {
      "midi": 42,
      "hit": false,
      "t": 125563.39199999889,
      "d": 8.927999999999884,
      "v": 112
    },
    {
      "midi": 40,
      "hit": false,
      "t": 125563.39199999889,
      "d": 8.927999999999884,
      "v": 112
    },
    {
      "midi": 46,
      "hit": false,
      "t": 125777.66399999888,
      "d": 8.927999999999884,
      "v": 112
    },
    {
      "midi": 42,
      "hit": false,
      "t": 125991.93599999888,
      "d": 8.927999999999884,
      "v": 112
    },
    {
      "midi": 36,
      "hit": false,
      "t": 125991.93599999888,
      "d": 8.927999999999884,
      "v": 112
    },
    {
      "midi": 41,
      "hit": false,
      "t": 125991.93599999952,
      "d": 196.41599999999744,
      "v": 110
    },
    {
      "midi": 74,
      "hit": false,
      "t": 125991.93599999965,
      "d": 71.42399999999907,
      "v": 110
    },
    {
      "midi": 62,
      "hit": false,
      "t": 125991.93599999965,
      "d": 71.42399999999907,
      "v": 90
    },
    {
      "midi": 75,
      "hit": false,
      "t": 126099.07199999965,
      "d": 71.42399999999907,
      "v": 120
    },
    {
      "midi": 63,
      "hit": false,
      "t": 126099.07199999965,
      "d": 71.42399999999907,
      "v": 100
    },
    {
      "midi": 46,
      "hit": false,
      "t": 126206.20799999888,
      "d": 8.927999999999884,
      "v": 112
    },
    {
      "midi": 74,
      "hit": false,
      "t": 126313.34399999965,
      "d": 71.42399999999907,
      "v": 110
    },
    {
      "midi": 62,
      "hit": false,
      "t": 126313.34399999965,
      "d": 71.42399999999907,
      "v": 90
    },
    {
      "midi": 42,
      "hit": false,
      "t": 126420.47999999888,
      "d": 8.927999999999884,
      "v": 112
    },
    {
      "midi": 40,
      "hit": false,
      "t": 126420.47999999888,
      "d": 8.927999999999884,
      "v": 112
    },
    {
      "midi": 41,
      "hit": false,
      "t": 126420.47999999952,
      "d": 196.41599999999744,
      "v": 110
    },
    {
      "midi": 70,
      "hit": false,
      "t": 126527.61599999965,
      "d": 71.42399999999907,
      "v": 110
    },
    {
      "midi": 58,
      "hit": false,
      "t": 126527.61599999965,
      "d": 71.42399999999907,
      "v": 90
    },
    {
      "midi": 46,
      "hit": false,
      "t": 126634.75199999887,
      "d": 8.927999999999884,
      "v": 112
    },
    {
      "midi": 67,
      "hit": false,
      "t": 126634.75199999964,
      "d": 71.42399999999907,
      "v": 100
    },
    {
      "midi": 55,
      "hit": false,
      "t": 126634.75199999964,
      "d": 71.42399999999907,
      "v": 80
    },
    {
      "midi": 42,
      "hit": false,
      "t": 126849.02399999887,
      "d": 8.927999999999884,
      "v": 112
    },
    {
      "midi": 36,
      "hit": false,
      "t": 126849.02399999887,
      "d": 8.927999999999884,
      "v": 112
    },
    {
      "midi": 75,
      "hit": false,
      "t": 126849.02399999923,
      "d": 35.711999999999534,
      "v": 80
    },
    {
      "midi": 48,
      "hit": false,
      "t": 126849.02399999951,
      "d": 428.5439999999944,
      "v": 110
    },
    {
      "midi": 84,
      "hit": false,
      "t": 126849.02399999993,
      "d": 1705.2480000000069,
      "v": 80
    },
    {
      "midi": 79,
      "hit": false,
      "t": 126857.95199999999,
      "d": 1428.479999999996,
      "v": 80
    },
    {
      "midi": 87,
      "hit": false,
      "t": 126956.15999999923,
      "d": 35.711999999999534,
      "v": 60
    },
    {
      "midi": 46,
      "hit": false,
      "t": 127063.29599999887,
      "d": 8.927999999999884,
      "v": 112
    },
    {
      "midi": 63,
      "hit": false,
      "t": 127063.29599999923,
      "d": 35.711999999999534,
      "v": 70
    },
    {
      "midi": 60,
      "hit": false,
      "t": 127063.29599999923,
      "d": 35.711999999999534,
      "v": 80
    },
    {
      "midi": 75,
      "hit": false,
      "t": 127063.29599999981,
      "d": 26.78399999999965,
      "v": 127
    },
    {
      "midi": 67,
      "hit": false,
      "t": 127063.29599999981,
      "d": 26.78399999999965,
      "v": 127
    },
    {
      "midi": 75,
      "hit": false,
      "t": 127170.43199999923,
      "d": 35.711999999999534,
      "v": 80
    },
    {
      "midi": 72,
      "hit": false,
      "t": 127170.43199999981,
      "d": 35.711999999999534,
      "v": 100
    },
    {
      "midi": 67,
      "hit": false,
      "t": 127170.43199999981,
      "d": 35.711999999999534,
      "v": 100
    },
    {
      "midi": 42,
      "hit": false,
      "t": 127277.56799999886,
      "d": 8.927999999999884,
      "v": 112
    },
    {
      "midi": 40,
      "hit": false,
      "t": 127277.56799999886,
      "d": 8.927999999999884,
      "v": 112
    },
    {
      "midi": 87,
      "hit": false,
      "t": 127277.56799999923,
      "d": 35.711999999999534,
      "v": 60
    },
    {
      "midi": 63,
      "hit": false,
      "t": 127384.70399999923,
      "d": 35.711999999999534,
      "v": 70
    },
    {
      "midi": 60,
      "hit": false,
      "t": 127384.70399999923,
      "d": 35.711999999999534,
      "v": 80
    },
    {
      "midi": 75,
      "hit": false,
      "t": 127384.70399999981,
      "d": 26.78399999999965,
      "v": 127
    },
    {
      "midi": 67,
      "hit": false,
      "t": 127384.70399999981,
      "d": 26.78399999999965,
      "v": 127
    },
    {
      "midi": 46,
      "hit": false,
      "t": 127491.83999999886,
      "d": 8.927999999999884,
      "v": 112
    },
    {
      "midi": 75,
      "hit": false,
      "t": 127491.83999999923,
      "d": 35.711999999999534,
      "v": 80
    },
    {
      "midi": 72,
      "hit": false,
      "t": 127491.83999999981,
      "d": 35.711999999999534,
      "v": 100
    },
    {
      "midi": 67,
      "hit": false,
      "t": 127491.83999999981,
      "d": 35.711999999999534,
      "v": 100
    },
    {
      "midi": 87,
      "hit": false,
      "t": 127598.97599999922,
      "d": 35.711999999999534,
      "v": 60
    },
    {
      "midi": 42,
      "hit": false,
      "t": 127706.11199999886,
      "d": 8.927999999999884,
      "v": 112
    },
    {
      "midi": 36,
      "hit": false,
      "t": 127706.11199999886,
      "d": 8.927999999999884,
      "v": 112
    },
    {
      "midi": 63,
      "hit": false,
      "t": 127706.11199999922,
      "d": 35.711999999999534,
      "v": 70
    },
    {
      "midi": 60,
      "hit": false,
      "t": 127706.11199999922,
      "d": 35.711999999999534,
      "v": 80
    },
    {
      "midi": 48,
      "hit": false,
      "t": 127706.1119999995,
      "d": 428.5439999999944,
      "v": 110
    },
    {
      "midi": 75,
      "hit": false,
      "t": 127706.1119999998,
      "d": 26.78399999999965,
      "v": 127
    },
    {
      "midi": 67,
      "hit": false,
      "t": 127706.1119999998,
      "d": 26.78399999999965,
      "v": 127
    },
    {
      "midi": 75,
      "hit": false,
      "t": 127813.24799999922,
      "d": 35.711999999999534,
      "v": 80
    },
    {
      "midi": 72,
      "hit": false,
      "t": 127813.2479999998,
      "d": 35.711999999999534,
      "v": 100
    },
    {
      "midi": 67,
      "hit": false,
      "t": 127813.2479999998,
      "d": 35.711999999999534,
      "v": 100
    },
    {
      "midi": 46,
      "hit": false,
      "t": 127920.38399999886,
      "d": 8.927999999999884,
      "v": 112
    },
    {
      "midi": 87,
      "hit": false,
      "t": 127920.38399999922,
      "d": 35.711999999999534,
      "v": 60
    },
    {
      "midi": 63,
      "hit": false,
      "t": 128027.51999999922,
      "d": 35.711999999999534,
      "v": 70
    },
    {
      "midi": 60,
      "hit": false,
      "t": 128027.51999999922,
      "d": 35.711999999999534,
      "v": 80
    },
    {
      "midi": 75,
      "hit": false,
      "t": 128027.5199999998,
      "d": 26.78399999999965,
      "v": 127
    },
    {
      "midi": 67,
      "hit": false,
      "t": 128027.5199999998,
      "d": 26.78399999999965,
      "v": 127
    },
    {
      "midi": 42,
      "hit": false,
      "t": 128134.65599999885,
      "d": 8.927999999999884,
      "v": 112
    },
    {
      "midi": 40,
      "hit": false,
      "t": 128134.65599999885,
      "d": 8.927999999999884,
      "v": 112
    },
    {
      "midi": 75,
      "hit": false,
      "t": 128134.65599999922,
      "d": 35.711999999999534,
      "v": 80
    },
    {
      "midi": 48,
      "hit": false,
      "t": 128134.6559999995,
      "d": 89.27999999999884,
      "v": 110
    },
    {
      "midi": 72,
      "hit": false,
      "t": 128134.6559999998,
      "d": 35.711999999999534,
      "v": 100
    },
    {
      "midi": 67,
      "hit": false,
      "t": 128134.6559999998,
      "d": 35.711999999999534,
      "v": 100
    },
    {
      "midi": 87,
      "hit": false,
      "t": 128241.79199999922,
      "d": 35.711999999999534,
      "v": 60
    },
    {
      "midi": 51,
      "hit": false,
      "t": 128241.79199999949,
      "d": 89.27999999999884,
      "v": 110
    },
    {
      "midi": 46,
      "hit": false,
      "t": 128348.92799999885,
      "d": 8.927999999999884,
      "v": 112
    },
    {
      "midi": 63,
      "hit": false,
      "t": 128348.92799999921,
      "d": 35.711999999999534,
      "v": 70
    },
    {
      "midi": 60,
      "hit": false,
      "t": 128348.92799999921,
      "d": 35.711999999999534,
      "v": 80
    },
    {
      "midi": 48,
      "hit": false,
      "t": 128348.92799999949,
      "d": 178.55999999999767,
      "v": 110
    },
    {
      "midi": 75,
      "hit": false,
      "t": 128348.9279999998,
      "d": 26.78399999999965,
      "v": 97
    },
    {
      "midi": 67,
      "hit": false,
      "t": 128348.9279999998,
      "d": 26.78399999999965,
      "v": 97
    },
    {
      "midi": 63,
      "hit": false,
      "t": 128456.06399999921,
      "d": 35.711999999999534,
      "v": 70
    },
    {
      "midi": 60,
      "hit": false,
      "t": 128456.06399999921,
      "d": 35.711999999999534,
      "v": 80
    },
    {
      "midi": 42,
      "hit": false,
      "t": 128563.19999999885,
      "d": 8.927999999999884,
      "v": 112
    },
    {
      "midi": 36,
      "hit": false,
      "t": 128563.19999999885,
      "d": 8.927999999999884,
      "v": 112
    },
    {
      "midi": 48,
      "hit": false,
      "t": 128563.19999999949,
      "d": 848.1600000000035,
      "v": 110
    },
    {
      "midi": 67,
      "hit": false,
      "t": 128563.1999999998,
      "d": 857.0880000000034,
      "v": 70
    },
    {
      "midi": 72,
      "hit": false,
      "t": 128563.1999999998,
      "d": 1785.6000000000058,
      "v": 90
    },
    {
      "midi": 84,
      "hit": false,
      "t": 128563.19999999994,
      "d": 53.5679999999993,
      "v": 127
    },
    {
      "midi": 96,
      "hit": false,
      "t": 128563.19999999994,
      "d": 53.5679999999993,
      "v": 97
    },
    {
      "midi": 84,
      "hit": false,
      "t": 128670.33599999994,
      "d": 53.5679999999993,
      "v": 117
    },
    {
      "midi": 96,
      "hit": false,
      "t": 128670.33599999994,
      "d": 53.5679999999993,
      "v": 87
    },
    {
      "midi": 46,
      "hit": false,
      "t": 128777.47199999884,
      "d": 8.927999999999884,
      "v": 112
    },
    {
      "midi": 84,
      "hit": false,
      "t": 128777.47199999994,
      "d": 53.5679999999993,
      "v": 117
    },
    {
      "midi": 96,
      "hit": false,
      "t": 128777.47199999994,
      "d": 53.5679999999993,
      "v": 87
    },
    {
      "midi": 84,
      "hit": false,
      "t": 128884.60799999993,
      "d": 53.5679999999993,
      "v": 117
    },
    {
      "midi": 96,
      "hit": false,
      "t": 128884.60799999993,
      "d": 53.5679999999993,
      "v": 87
    },
    {
      "midi": 42,
      "hit": false,
      "t": 128991.74399999884,
      "d": 8.927999999999884,
      "v": 112
    },
    {
      "midi": 40,
      "hit": false,
      "t": 128991.74399999884,
      "d": 8.927999999999884,
      "v": 112
    },
    {
      "midi": 87,
      "hit": false,
      "t": 128991.74399999993,
      "d": 53.5679999999993,
      "v": 127
    },
    {
      "midi": 99,
      "hit": false,
      "t": 128991.74399999993,
      "d": 53.5679999999993,
      "v": 97
    },
    {
      "midi": 84,
      "hit": false,
      "t": 129098.87999999993,
      "d": 53.5679999999993,
      "v": 117
    },
    {
      "midi": 96,
      "hit": false,
      "t": 129098.87999999993,
      "d": 53.5679999999993,
      "v": 87
    },
    {
      "midi": 46,
      "hit": false,
      "t": 129206.01599999884,
      "d": 8.927999999999884,
      "v": 112
    },
    {
      "midi": 84,
      "hit": false,
      "t": 129206.01599999993,
      "d": 53.5679999999993,
      "v": 117
    },
    {
      "midi": 96,
      "hit": false,
      "t": 129206.01599999993,
      "d": 53.5679999999993,
      "v": 87
    },
    {
      "midi": 84,
      "hit": false,
      "t": 129313.15199999993,
      "d": 53.5679999999993,
      "v": 117
    },
    {
      "midi": 96,
      "hit": false,
      "t": 129313.15199999993,
      "d": 53.5679999999993,
      "v": 87
    },
    {
      "midi": 42,
      "hit": false,
      "t": 129420.28799999884,
      "d": 8.927999999999884,
      "v": 112
    },
    {
      "midi": 36,
      "hit": false,
      "t": 129420.28799999884,
      "d": 8.927999999999884,
      "v": 112
    },
    {
      "midi": 53,
      "hit": false,
      "t": 129420.28799999949,
      "d": 848.1600000000035,
      "v": 110
    },
    {
      "midi": 69,
      "hit": false,
      "t": 129420.2879999998,
      "d": 857.0880000000034,
      "v": 70
    },
    {
      "midi": 89,
      "hit": false,
      "t": 129420.28799999993,
      "d": 53.5679999999993,
      "v": 127
    },
    {
      "midi": 101,
      "hit": false,
      "t": 129420.28799999993,
      "d": 53.5679999999993,
      "v": 97
    },
    {
      "midi": 84,
      "hit": false,
      "t": 129527.42399999993,
      "d": 53.5679999999993,
      "v": 117
    },
    {
      "midi": 96,
      "hit": false,
      "t": 129527.42399999993,
      "d": 53.5679999999993,
      "v": 87
    },
    {
      "midi": 46,
      "hit": false,
      "t": 129634.55999999883,
      "d": 8.927999999999884,
      "v": 112
    },
    {
      "midi": 84,
      "hit": false,
      "t": 129634.55999999992,
      "d": 53.5679999999993,
      "v": 117
    },
    {
      "midi": 96,
      "hit": false,
      "t": 129634.55999999992,
      "d": 53.5679999999993,
      "v": 87
    },
    {
      "midi": 84,
      "hit": false,
      "t": 129741.69599999992,
      "d": 53.5679999999993,
      "v": 117
    },
    {
      "midi": 96,
      "hit": false,
      "t": 129741.69599999992,
      "d": 53.5679999999993,
      "v": 87
    },
    {
      "midi": 42,
      "hit": false,
      "t": 129848.83199999883,
      "d": 8.927999999999884,
      "v": 112
    },
    {
      "midi": 40,
      "hit": false,
      "t": 129848.83199999883,
      "d": 8.927999999999884,
      "v": 112
    },
    {
      "midi": 87,
      "hit": false,
      "t": 129848.83199999992,
      "d": 53.5679999999993,
      "v": 127
    },
    {
      "midi": 99,
      "hit": false,
      "t": 129848.83199999992,
      "d": 53.5679999999993,
      "v": 97
    },
    {
      "midi": 86,
      "hit": false,
      "t": 129955.96799999992,
      "d": 53.5679999999993,
      "v": 117
    },
    {
      "midi": 98,
      "hit": false,
      "t": 129955.96799999992,
      "d": 53.5679999999993,
      "v": 87
    },
    {
      "midi": 46,
      "hit": false,
      "t": 130063.10399999883,
      "d": 8.927999999999884,
      "v": 112
    },
    {
      "midi": 84,
      "hit": false,
      "t": 130063.10399999992,
      "d": 53.5679999999993,
      "v": 117
    },
    {
      "midi": 96,
      "hit": false,
      "t": 130063.10399999992,
      "d": 53.5679999999993,
      "v": 87
    },
    {
      "midi": 82,
      "hit": false,
      "t": 130170.23999999992,
      "d": 53.5679999999993,
      "v": 117
    },
    {
      "midi": 94,
      "hit": false,
      "t": 130170.23999999992,
      "d": 53.5679999999993,
      "v": 87
    },
    {
      "midi": 42,
      "hit": false,
      "t": 130277.37599999883,
      "d": 8.927999999999884,
      "v": 98
    },
    {
      "midi": 40,
      "hit": false,
      "t": 130277.37599999883,
      "d": 8.927999999999884,
      "v": 84
    },
    {
      "midi": 48,
      "hit": false,
      "t": 130277.3759999995,
      "d": 71.42399999999907,
      "v": 110
    },
    {
      "midi": 67,
      "hit": false,
      "t": 130277.3759999998,
      "d": 71.42399999999907,
      "v": 70
    },
    {
      "midi": 84,
      "hit": false,
      "t": 130277.37599999992,
      "d": 71.42399999999907,
      "v": 127
    },
    {
      "midi": 96,
      "hit": false,
      "t": 130277.37599999992,
      "d": 71.42399999999907,
      "v": 97
    },
    {
      "midi": 42,
      "hit": false,
      "t": 130705.91999999882,
      "d": 8.927999999999884,
      "v": 84
    },
    {
      "midi": 42,
      "hit": false,
      "t": 131134.4639999988,
      "d": 8.928000000014435,
      "v": 98
    },
    {
      "midi": 40,
      "hit": false,
      "t": 131134.4639999988,
      "d": 8.928000000014435,
      "v": 98
    },
    {
      "midi": 60,
      "hit": false,
      "t": 131134.4639999997,
      "d": 160.7039999999979,
      "v": 100
    },
    {
      "midi": 36,
      "hit": false,
      "t": 131134.46399999998,
      "d": 178.56000000005588,
      "v": 90
    },
    {
      "midi": 38,
      "hit": false,
      "t": 131161.248,
      "d": 178.56000000005588,
      "v": 90
    },
    {
      "midi": 40,
      "hit": false,
      "t": 131196.96,
      "d": 178.56000000008498,
      "v": 90
    },
    {
      "midi": 41,
      "hit": false,
      "t": 131232.672,
      "d": 178.56000000008498,
      "v": 90
    },
    {
      "midi": 43,
      "hit": false,
      "t": 131259.456,
      "d": 178.56000000008498,
      "v": 90
    },
    {
      "midi": 45,
      "hit": false,
      "t": 131277.312,
      "d": 178.56000000008498,
      "v": 90
    },
    {
      "midi": 47,
      "hit": false,
      "t": 131304.09600000002,
      "d": 178.56000000008498,
      "v": 90
    },
    {
      "midi": 48,
      "hit": false,
      "t": 131330.88000000003,
      "d": 178.56000000008498,
      "v": 90
    },
    {
      "midi": 60,
      "hit": false,
      "t": 131348.73599999968,
      "d": 160.7039999999979,
      "v": 100
    },
    {
      "midi": 50,
      "hit": false,
      "t": 131366.59200000006,
      "d": 178.56000000005588,
      "v": 90
    },
    {
      "midi": 52,
      "hit": false,
      "t": 131393.37600000008,
      "d": 178.56000000005588,
      "v": 90
    },
    {
      "midi": 53,
      "hit": false,
      "t": 131420.1600000001,
      "d": 178.56000000005588,
      "v": 90
    },
    {
      "midi": 55,
      "hit": false,
      "t": 131438.0160000001,
      "d": 178.56000000005588,
      "v": 90
    },
    {
      "midi": 57,
      "hit": false,
      "t": 131464.8000000001,
      "d": 178.56000000005588,
      "v": 90
    },
    {
      "midi": 59,
      "hit": false,
      "t": 131491.58400000012,
      "d": 178.56000000005588,
      "v": 90
    },
    {
      "midi": 60,
      "hit": false,
      "t": 131509.44000000012,
      "d": 178.56000000008498,
      "v": 90
    },
    {
      "midi": 62,
      "hit": false,
      "t": 131545.15200000012,
      "d": 178.5600000001141,
      "v": 90
    },
    {
      "midi": 42,
      "hit": false,
      "t": 131563.00799999884,
      "d": 8.928000000014435,
      "v": 84
    },
    {
      "midi": 40,
      "hit": false,
      "t": 131563.00799999884,
      "d": 8.928000000014435,
      "v": 84
    },
    {
      "midi": 63,
      "hit": false,
      "t": 131563.00799999968,
      "d": 160.7039999999979,
      "v": 127
    },
    {
      "midi": 64,
      "hit": false,
      "t": 131571.93600000013,
      "d": 178.5600000001432,
      "v": 90
    },
    {
      "midi": 65,
      "hit": false,
      "t": 131598.72000000015,
      "d": 178.5600000001432,
      "v": 90
    },
    {
      "midi": 67,
      "hit": false,
      "t": 131625.50400000016,
      "d": 178.5600000001432,
      "v": 90
    },
    {
      "midi": 69,
      "hit": false,
      "t": 131661.21600000016,
      "d": 178.5600000001723,
      "v": 90
    },
    {
      "midi": 40,
      "hit": false,
      "t": 131670.14399999887,
      "d": 8.928000000014435,
      "v": 84
    },
    {
      "midi": 71,
      "hit": false,
      "t": 131679.0720000002,
      "d": 178.5600000001723,
      "v": 90
    },
    {
      "midi": 72,
      "hit": false,
      "t": 131714.78400000022,
      "d": 178.5600000001432,
      "v": 90
    },
    {
      "midi": 74,
      "hit": false,
      "t": 131732.64000000025,
      "d": 178.5600000001432,
      "v": 90
    },
    {
      "midi": 76,
      "hit": false,
      "t": 131741.56800000026,
      "d": 160.70400000011432,
      "v": 90
    },
    {
      "midi": 77,
      "hit": false,
      "t": 131768.35200000028,
      "d": 142.84800000011455,
      "v": 90
    },
    {
      "midi": 45,
      "hit": false,
      "t": 131777.2799999989,
      "d": 8.928000000014435,
      "v": 84
    },
    {
      "midi": 60,
      "hit": false,
      "t": 131777.27999999968,
      "d": 160.7039999999979,
      "v": 100
    },
    {
      "midi": 79,
      "hit": false,
      "t": 131804.0640000003,
      "d": 124.99200000011479,
      "v": 90
    },
    {
      "midi": 81,
      "hit": false,
      "t": 131821.9200000003,
      "d": 107.13600000011502,
      "v": 90
    },
    {
      "midi": 83,
      "hit": false,
      "t": 131830.84800000032,
      "d": 89.28000000008615,
      "v": 90
    },
    {
      "midi": 84,
      "hit": false,
      "t": 131848.70400000035,
      "d": 71.42400000005728,
      "v": 90
    },
    {
      "midi": 86,
      "hit": false,
      "t": 131875.48800000036,
      "d": 62.496000000071945,
      "v": 90
    },
    {
      "midi": 88,
      "hit": false,
      "t": 131911.2000000004,
      "d": 35.71200000005774,
      "v": 90
    },
    {
      "midi": 89,
      "hit": false,
      "t": 131946.91200000045,
      "d": 17.855999999999767,
      "v": 90
    },
    {
      "midi": 91,
      "hit": false,
      "t": 131964.76800000045,
      "d": 8.928000000014435,
      "v": 90
    },
    {
      "midi": 42,
      "hit": false,
      "t": 131991.55199999892,
      "d": 8.928000000014435,
      "v": 84
    },
    {
      "midi": 36,
      "hit": false,
      "t": 131991.55199999892,
      "d": 8.928000000014435,
      "v": 84
    },
    {
      "midi": 41,
      "hit": false,
      "t": 131991.5519999995,
      "d": 428.5439999999944,
      "v": 110
    },
    {
      "midi": 72,
      "hit": false,
      "t": 131991.55199999965,
      "d": 71.42399999999907,
      "v": 110
    },
    {
      "midi": 65,
      "hit": false,
      "t": 131991.55199999965,
      "d": 71.42399999999907,
      "v": 110
    },
    {
      "midi": 60,
      "hit": false,
      "t": 131991.55199999965,
      "d": 71.42399999999907,
      "v": 110
    },
    {
      "midi": 67,
      "hit": false,
      "t": 131991.55199999968,
      "d": 303.55199999999604,
      "v": 127
    },
    {
      "midi": 84,
      "hit": false,
      "t": 131991.5519999999,
      "d": 1705.2479999999923,
      "v": 97
    },
    {
      "midi": 46,
      "hit": false,
      "t": 132205.82399999895,
      "d": 8.928000000014435,
      "v": 84
    },
    {
      "midi": 72,
      "hit": false,
      "t": 132312.95999999964,
      "d": 71.42399999999907,
      "v": 110
    },
    {
      "midi": 65,
      "hit": false,
      "t": 132312.95999999964,
      "d": 71.42399999999907,
      "v": 110
    },
    {
      "midi": 60,
      "hit": false,
      "t": 132312.95999999964,
      "d": 71.42399999999907,
      "v": 110
    },
    {
      "midi": 65,
      "hit": false,
      "t": 132312.95999999967,
      "d": 1249.9200000000128,
      "v": 120
    },
    {
      "midi": 44,
      "hit": false,
      "t": 132420.09599999897,
      "d": 8.928000000014435,
      "v": 84
    },
    {
      "midi": 45,
      "hit": false,
      "t": 132420.09599999897,
      "d": 8.928000000014435,
      "v": 56
    },
    {
      "midi": 40,
      "hit": false,
      "t": 132420.09599999897,
      "d": 8.928000000014435,
      "v": 84
    },
    {
      "midi": 46,
      "hit": false,
      "t": 132634.367999999,
      "d": 8.928000000014435,
      "v": 84
    },
    {
      "midi": 72,
      "hit": false,
      "t": 132634.36799999964,
      "d": 71.42399999999907,
      "v": 110
    },
    {
      "midi": 65,
      "hit": false,
      "t": 132634.36799999964,
      "d": 71.42399999999907,
      "v": 110
    },
    {
      "midi": 60,
      "hit": false,
      "t": 132634.36799999964,
      "d": 71.42399999999907,
      "v": 110
    },
    {
      "midi": 70,
      "hit": false,
      "t": 132634.3679999998,
      "d": 303.55199999999604,
      "v": 120
    },
    {
      "midi": 65,
      "hit": false,
      "t": 132634.3679999998,
      "d": 303.55199999999604,
      "v": 110
    },
    {
      "midi": 42,
      "hit": false,
      "t": 132848.63999999902,
      "d": 8.928000000014435,
      "v": 84
    },
    {
      "midi": 36,
      "hit": false,
      "t": 132848.63999999902,
      "d": 8.928000000014435,
      "v": 84
    },
    {
      "midi": 41,
      "hit": false,
      "t": 132848.6399999995,
      "d": 357.11999999999534,
      "v": 110
    },
    {
      "midi": 46,
      "hit": false,
      "t": 133062.91199999905,
      "d": 8.928000000014435,
      "v": 84
    },
    {
      "midi": 72,
      "hit": false,
      "t": 133062.9119999998,
      "d": 107.1359999999986,
      "v": 80
    },
    {
      "midi": 67,
      "hit": false,
      "t": 133062.9119999998,
      "d": 107.1359999999986,
      "v": 70
    },
    {
      "midi": 44,
      "hit": false,
      "t": 133277.18399999908,
      "d": 8.928000000014435,
      "v": 84
    },
    {
      "midi": 45,
      "hit": false,
      "t": 133277.18399999908,
      "d": 8.928000000014435,
      "v": 56
    },
    {
      "midi": 40,
      "hit": false,
      "t": 133277.18399999908,
      "d": 8.928000000014435,
      "v": 84
    },
    {
      "midi": 43,
      "hit": false,
      "t": 133277.18399999948,
      "d": 178.55999999999767,
      "v": 110
    },
    {
      "midi": 75,
      "hit": false,
      "t": 133277.1839999998,
      "d": 107.1359999999986,
      "v": 120
    },
    {
      "midi": 68,
      "hit": false,
      "t": 133277.1839999998,
      "d": 107.1359999999986,
      "v": 110
    },
    {
      "midi": 46,
      "hit": false,
      "t": 133491.4559999991,
      "d": 8.928000000014435,
      "v": 84
    },
    {
      "midi": 44,
      "hit": false,
      "t": 133491.45599999948,
      "d": 178.55999999999767,
      "v": 110
    },
    {
      "midi": 72,
      "hit": false,
      "t": 133491.4559999998,
      "d": 107.1359999999986,
      "v": 80
    },
    {
      "midi": 67,
      "hit": false,
      "t": 133491.4559999998,
      "d": 107.1359999999986,
      "v": 70
    },
    {
      "midi": 42,
      "hit": false,
      "t": 133705.72799999913,
      "d": 8.928000000014435,
      "v": 84
    },
    {
      "midi": 36,
      "hit": false,
      "t": 133705.72799999913,
      "d": 8.928000000014435,
      "v": 84
    },
    {
      "midi": 46,
      "hit": false,
      "t": 133705.72799999948,
      "d": 357.11999999999534,
      "v": 110
    },
    {
      "midi": 72,
      "hit": false,
      "t": 133705.72799999962,
      "d": 71.42399999999907,
      "v": 110
    },
    {
      "midi": 65,
      "hit": false,
      "t": 133705.72799999962,
      "d": 71.42399999999907,
      "v": 110
    },
    {
      "midi": 60,
      "hit": false,
      "t": 133705.72799999962,
      "d": 71.42399999999907,
      "v": 110
    },
    {
      "midi": 79,
      "hit": false,
      "t": 133705.7279999998,
      "d": 232.12799999999697,
      "v": 120
    },
    {
      "midi": 72,
      "hit": false,
      "t": 133705.7279999998,
      "d": 232.12799999999697,
      "v": 110
    },
    {
      "midi": 89,
      "hit": false,
      "t": 133705.72799999992,
      "d": 1499.9039999999804,
      "v": 97
    },
    {
      "midi": 46,
      "hit": false,
      "t": 133919.99999999916,
      "d": 8.928000000014435,
      "v": 84
    },
    {
      "midi": 72,
      "hit": false,
      "t": 134027.13599999962,
      "d": 71.42399999999907,
      "v": 110
    },
    {
      "midi": 65,
      "hit": false,
      "t": 134027.13599999962,
      "d": 71.42399999999907,
      "v": 110
    },
    {
      "midi": 60,
      "hit": false,
      "t": 134027.13599999962,
      "d": 71.42399999999907,
      "v": 110
    },
    {
      "midi": 77,
      "hit": false,
      "t": 134027.1359999998,
      "d": 1071.359999999986,
      "v": 90
    },
    {
      "midi": 72,
      "hit": false,
      "t": 134027.1359999998,
      "d": 1071.359999999986,
      "v": 80
    },
    {
      "midi": 44,
      "hit": false,
      "t": 134134.27199999918,
      "d": 8.928000000014435,
      "v": 84
    },
    {
      "midi": 45,
      "hit": false,
      "t": 134134.27199999918,
      "d": 8.928000000014435,
      "v": 56
    },
    {
      "midi": 40,
      "hit": false,
      "t": 134134.27199999918,
      "d": 8.928000000014435,
      "v": 84
    },
    {
      "midi": 46,
      "hit": false,
      "t": 134134.27199999947,
      "d": 71.42399999999907,
      "v": 110
    },
    {
      "midi": 46,
      "hit": false,
      "t": 134241.40799999947,
      "d": 71.42399999999907,
      "v": 110
    },
    {
      "midi": 46,
      "hit": false,
      "t": 134348.5439999992,
      "d": 8.928000000014435,
      "v": 84
    },
    {
      "midi": 46,
      "hit": false,
      "t": 134348.54399999947,
      "d": 71.42399999999907,
      "v": 110
    },
    {
      "midi": 72,
      "hit": false,
      "t": 134348.54399999962,
      "d": 71.42399999999907,
      "v": 110
    },
    {
      "midi": 65,
      "hit": false,
      "t": 134348.54399999962,
      "d": 71.42399999999907,
      "v": 110
    },
    {
      "midi": 60,
      "hit": false,
      "t": 134348.54399999962,
      "d": 71.42399999999907,
      "v": 110
    },
    {
      "midi": 42,
      "hit": false,
      "t": 134562.81599999923,
      "d": 8.928000000014435,
      "v": 84
    },
    {
      "midi": 36,
      "hit": false,
      "t": 134562.81599999923,
      "d": 8.928000000014435,
      "v": 84
    },
    {
      "midi": 46,
      "hit": false,
      "t": 134562.81599999947,
      "d": 428.5439999999944,
      "v": 110
    },
    {
      "midi": 58,
      "hit": false,
      "t": 134562.81599999967,
      "d": 160.7039999999979,
      "v": 100
    },
    {
      "midi": 46,
      "hit": false,
      "t": 134777.08799999926,
      "d": 8.928000000014435,
      "v": 84
    },
    {
      "midi": 58,
      "hit": false,
      "t": 134777.08799999967,
      "d": 160.7039999999979,
      "v": 100
    },
    {
      "midi": 36,
      "hit": false,
      "t": 134884.2239999993,
      "d": 8.928000000014435,
      "v": 84
    },
    {
      "midi": 44,
      "hit": false,
      "t": 134991.35999999932,
      "d": 8.928000000014435,
      "v": 84
    },
    {
      "midi": 45,
      "hit": false,
      "t": 134991.35999999932,
      "d": 8.928000000014435,
      "v": 56
    },
    {
      "midi": 40,
      "hit": false,
      "t": 134991.35999999932,
      "d": 8.928000000014435,
      "v": 84
    },
    {
      "midi": 60,
      "hit": false,
      "t": 134991.35999999967,
      "d": 160.7039999999979,
      "v": 127
    },
    {
      "midi": 46,
      "hit": false,
      "t": 135205.63199999934,
      "d": 8.928000000014435,
      "v": 84
    },
    {
      "midi": 41,
      "hit": false,
      "t": 135205.63199999934,
      "d": 8.928000000014435,
      "v": 84
    },
    {
      "midi": 58,
      "hit": false,
      "t": 135205.63199999966,
      "d": 160.7039999999979,
      "v": 100
    },
    {
      "midi": 42,
      "hit": false,
      "t": 135419.90399999937,
      "d": 8.928000000014435,
      "v": 84
    },
    {
      "midi": 36,
      "hit": false,
      "t": 135419.90399999937,
      "d": 8.928000000014435,
      "v": 84
    },
    {
      "midi": 43,
      "hit": false,
      "t": 135419.90399999946,
      "d": 428.5439999999944,
      "v": 110
    },
    {
      "midi": 70,
      "hit": false,
      "t": 135419.9039999996,
      "d": 71.42399999999907,
      "v": 110
    },
    {
      "midi": 63,
      "hit": false,
      "t": 135419.9039999996,
      "d": 71.42399999999907,
      "v": 110
    },
    {
      "midi": 58,
      "hit": false,
      "t": 135419.9039999996,
      "d": 71.42399999999907,
      "v": 110
    },
    {
      "midi": 65,
      "hit": false,
      "t": 135419.90399999966,
      "d": 303.55199999999604,
      "v": 127
    },
    {
      "midi": 82,
      "hit": false,
      "t": 135419.9039999999,
      "d": 1705.2479999999923,
      "v": 97
    },
    {
      "midi": 46,
      "hit": false,
      "t": 135634.1759999994,
      "d": 8.928000000014435,
      "v": 84
    },
    {
      "midi": 70,
      "hit": false,
      "t": 135741.3119999996,
      "d": 71.42399999999907,
      "v": 110
    },
    {
      "midi": 63,
      "hit": false,
      "t": 135741.3119999996,
      "d": 71.42399999999907,
      "v": 110
    },
    {
      "midi": 58,
      "hit": false,
      "t": 135741.3119999996,
      "d": 71.42399999999907,
      "v": 110
    },
    {
      "midi": 67,
      "hit": false,
      "t": 135741.31199999966,
      "d": 1249.9200000000128,
      "v": 120
    },
    {
      "midi": 44,
      "hit": false,
      "t": 135848.44799999942,
      "d": 8.928000000014435,
      "v": 84
    },
    {
      "midi": 45,
      "hit": false,
      "t": 135848.44799999942,
      "d": 8.928000000014435,
      "v": 56
    },
    {
      "midi": 40,
      "hit": false,
      "t": 135848.44799999942,
      "d": 8.928000000014435,
      "v": 84
    },
    {
      "midi": 46,
      "hit": false,
      "t": 136062.71999999945,
      "d": 8.928000000014435,
      "v": 84
    },
    {
      "midi": 70,
      "hit": false,
      "t": 136062.7199999996,
      "d": 71.42399999999907,
      "v": 110
    },
    {
      "midi": 63,
      "hit": false,
      "t": 136062.7199999996,
      "d": 71.42399999999907,
      "v": 110
    },
    {
      "midi": 58,
      "hit": false,
      "t": 136062.7199999996,
      "d": 71.42399999999907,
      "v": 110
    },
    {
      "midi": 70,
      "hit": false,
      "t": 136062.71999999977,
      "d": 303.55199999999604,
      "v": 120
    },
    {
      "midi": 65,
      "hit": false,
      "t": 136062.71999999977,
      "d": 303.55199999999604,
      "v": 110
    },
    {
      "midi": 43,
      "hit": false,
      "t": 136276.99199999945,
      "d": 357.11999999999534,
      "v": 110
    },
    {
      "midi": 42,
      "hit": false,
      "t": 136276.99199999947,
      "d": 8.928000000014435,
      "v": 84
    },
    {
      "midi": 36,
      "hit": false,
      "t": 136276.99199999947,
      "d": 8.928000000014435,
      "v": 84
    },
    {
      "midi": 46,
      "hit": false,
      "t": 136491.2639999995,
      "d": 8.928000000014435,
      "v": 84
    },
    {
      "midi": 72,
      "hit": false,
      "t": 136491.26399999976,
      "d": 107.1359999999986,
      "v": 80
    },
    {
      "midi": 67,
      "hit": false,
      "t": 136491.26399999976,
      "d": 107.1359999999986,
      "v": 70
    },
    {
      "midi": 43,
      "hit": false,
      "t": 136705.53599999944,
      "d": 178.55999999999767,
      "v": 110
    },
    {
      "midi": 44,
      "hit": false,
      "t": 136705.53599999953,
      "d": 8.928000000014435,
      "v": 84
    },
    {
      "midi": 45,
      "hit": false,
      "t": 136705.53599999953,
      "d": 8.928000000014435,
      "v": 56
    },
    {
      "midi": 40,
      "hit": false,
      "t": 136705.53599999953,
      "d": 8.928000000014435,
      "v": 84
    },
    {
      "midi": 75,
      "hit": false,
      "t": 136705.53599999976,
      "d": 107.1359999999986,
      "v": 120
    },
    {
      "midi": 68,
      "hit": false,
      "t": 136705.53599999976,
      "d": 107.1359999999986,
      "v": 110
    },
    {
      "midi": 38,
      "hit": false,
      "t": 136919.80799999944,
      "d": 178.55999999999767,
      "v": 110
    },
    {
      "midi": 46,
      "hit": false,
      "t": 136919.80799999955,
      "d": 8.928000000014435,
      "v": 84
    },
    {
      "midi": 72,
      "hit": false,
      "t": 136919.80799999976,
      "d": 107.1359999999986,
      "v": 80
    },
    {
      "midi": 67,
      "hit": false,
      "t": 136919.80799999976,
      "d": 107.1359999999986,
      "v": 70
    },
    {
      "midi": 36,
      "hit": false,
      "t": 137134.07999999943,
      "d": 357.11999999999534,
      "v": 110
    },
    {
      "midi": 70,
      "hit": false,
      "t": 137134.07999999958,
      "d": 71.42399999999907,
      "v": 110
    },
    {
      "midi": 63,
      "hit": false,
      "t": 137134.07999999958,
      "d": 71.42399999999907,
      "v": 110
    },
    {
      "midi": 58,
      "hit": false,
      "t": 137134.07999999958,
      "d": 71.42399999999907,
      "v": 110
    },
    {
      "midi": 42,
      "hit": false,
      "t": 137134.07999999958,
      "d": 8.928000000014435,
      "v": 84
    },
    {
      "midi": 36,
      "hit": false,
      "t": 137134.07999999958,
      "d": 8.928000000014435,
      "v": 84
    },
    {
      "midi": 77,
      "hit": false,
      "t": 137134.07999999975,
      "d": 232.12799999999697,
      "v": 120
    },
    {
      "midi": 72,
      "hit": false,
      "t": 137134.07999999975,
      "d": 232.12799999999697,
      "v": 110
    },
    {
      "midi": 46,
      "hit": false,
      "t": 137348.3519999996,
      "d": 8.928000000014435,
      "v": 84
    },
    {
      "midi": 70,
      "hit": false,
      "t": 137455.48799999958,
      "d": 71.42399999999907,
      "v": 110
    },
    {
      "midi": 63,
      "hit": false,
      "t": 137455.48799999958,
      "d": 71.42399999999907,
      "v": 110
    },
    {
      "midi": 58,
      "hit": false,
      "t": 137455.48799999958,
      "d": 71.42399999999907,
      "v": 110
    },
    {
      "midi": 79,
      "hit": false,
      "t": 137455.48799999975,
      "d": 1071.359999999986,
      "v": 90
    },
    {
      "midi": 72,
      "hit": false,
      "t": 137455.48799999975,
      "d": 1071.359999999986,
      "v": 80
    },
    {
      "midi": 36,
      "hit": false,
      "t": 137562.62399999943,
      "d": 71.42399999999907,
      "v": 110
    },
    {
      "midi": 44,
      "hit": false,
      "t": 137562.62399999963,
      "d": 8.928000000014435,
      "v": 84
    },
    {
      "midi": 45,
      "hit": false,
      "t": 137562.62399999963,
      "d": 8.928000000014435,
      "v": 56
    },
    {
      "midi": 40,
      "hit": false,
      "t": 137562.62399999963,
      "d": 8.928000000014435,
      "v": 84
    },
    {
      "midi": 80,
      "hit": false,
      "t": 137562.6239999999,
      "d": 1160.6399999999849,
      "v": 97
    },
    {
      "midi": 36,
      "hit": false,
      "t": 137669.75999999943,
      "d": 71.42399999999907,
      "v": 110
    },
    {
      "midi": 36,
      "hit": false,
      "t": 137776.89599999943,
      "d": 71.42399999999907,
      "v": 110
    },
    {
      "midi": 70,
      "hit": false,
      "t": 137776.89599999957,
      "d": 71.42399999999907,
      "v": 110
    },
    {
      "midi": 63,
      "hit": false,
      "t": 137776.89599999957,
      "d": 71.42399999999907,
      "v": 110
    },
    {
      "midi": 58,
      "hit": false,
      "t": 137776.89599999957,
      "d": 71.42399999999907,
      "v": 110
    },
    {
      "midi": 46,
      "hit": false,
      "t": 137776.89599999966,
      "d": 8.928000000014435,
      "v": 84
    },
    {
      "midi": 36,
      "hit": false,
      "t": 137991.16799999942,
      "d": 428.5439999999944,
      "v": 110
    },
    {
      "midi": 60,
      "hit": false,
      "t": 137991.16799999966,
      "d": 160.7039999999979,
      "v": 100
    },
    {
      "midi": 42,
      "hit": false,
      "t": 137991.16799999968,
      "d": 8.928000000014435,
      "v": 84
    },
    {
      "midi": 36,
      "hit": false,
      "t": 137991.16799999968,
      "d": 8.928000000014435,
      "v": 84
    },
    {
      "midi": 60,
      "hit": false,
      "t": 138205.43999999965,
      "d": 160.7039999999979,
      "v": 100
    },
    {
      "midi": 46,
      "hit": false,
      "t": 138205.4399999997,
      "d": 8.928000000014435,
      "v": 84
    },
    {
      "midi": 36,
      "hit": false,
      "t": 138312.57599999974,
      "d": 8.928000000014435,
      "v": 84
    },
    {
      "midi": 63,
      "hit": false,
      "t": 138419.71199999965,
      "d": 160.7039999999979,
      "v": 127
    },
    {
      "midi": 44,
      "hit": false,
      "t": 138419.71199999977,
      "d": 8.928000000014435,
      "v": 84
    },
    {
      "midi": 45,
      "hit": false,
      "t": 138419.71199999977,
      "d": 8.928000000014435,
      "v": 56
    },
    {
      "midi": 40,
      "hit": false,
      "t": 138419.71199999977,
      "d": 8.928000000014435,
      "v": 84
    },
    {
      "midi": 60,
      "hit": false,
      "t": 138633.98399999965,
      "d": 160.7039999999979,
      "v": 100
    },
    {
      "midi": 46,
      "hit": false,
      "t": 138633.9839999998,
      "d": 8.928000000014435,
      "v": 84
    },
    {
      "midi": 41,
      "hit": false,
      "t": 138633.9839999998,
      "d": 8.928000000014435,
      "v": 84
    },
    {
      "midi": 41,
      "hit": false,
      "t": 138848.2559999994,
      "d": 428.5439999999944,
      "v": 110
    },
    {
      "midi": 72,
      "hit": false,
      "t": 138848.25599999956,
      "d": 71.42399999999907,
      "v": 110
    },
    {
      "midi": 65,
      "hit": false,
      "t": 138848.25599999956,
      "d": 71.42399999999907,
      "v": 110
    },
    {
      "midi": 60,
      "hit": false,
      "t": 138848.25599999956,
      "d": 71.42399999999907,
      "v": 110
    },
    {
      "midi": 67,
      "hit": false,
      "t": 138848.25599999964,
      "d": 303.55199999999604,
      "v": 127
    },
    {
      "midi": 42,
      "hit": false,
      "t": 138848.25599999982,
      "d": 8.928000000014435,
      "v": 84
    },
    {
      "midi": 36,
      "hit": false,
      "t": 138848.25599999982,
      "d": 8.928000000014435,
      "v": 84
    },
    {
      "midi": 84,
      "hit": false,
      "t": 138848.25599999988,
      "d": 1705.2479999999923,
      "v": 97
    },
    {
      "midi": 46,
      "hit": false,
      "t": 139062.52799999985,
      "d": 8.928000000014435,
      "v": 84
    },
    {
      "midi": 72,
      "hit": false,
      "t": 139169.66399999955,
      "d": 71.42399999999907,
      "v": 110
    },
    {
      "midi": 65,
      "hit": false,
      "t": 139169.66399999955,
      "d": 71.42399999999907,
      "v": 110
    },
    {
      "midi": 60,
      "hit": false,
      "t": 139169.66399999955,
      "d": 71.42399999999907,
      "v": 110
    },
    {
      "midi": 65,
      "hit": false,
      "t": 139169.66399999964,
      "d": 1249.9200000000128,
      "v": 120
    },
    {
      "midi": 44,
      "hit": false,
      "t": 139276.79999999987,
      "d": 8.928000000014435,
      "v": 84
    },
    {
      "midi": 45,
      "hit": false,
      "t": 139276.79999999987,
      "d": 8.928000000014435,
      "v": 56
    },
    {
      "midi": 40,
      "hit": false,
      "t": 139276.79999999987,
      "d": 8.928000000014435,
      "v": 84
    },
    {
      "midi": 72,
      "hit": false,
      "t": 139491.07199999955,
      "d": 71.42399999999907,
      "v": 110
    },
    {
      "midi": 65,
      "hit": false,
      "t": 139491.07199999955,
      "d": 71.42399999999907,
      "v": 110
    },
    {
      "midi": 60,
      "hit": false,
      "t": 139491.07199999955,
      "d": 71.42399999999907,
      "v": 110
    },
    {
      "midi": 70,
      "hit": false,
      "t": 139491.07199999972,
      "d": 303.55199999999604,
      "v": 120
    },
    {
      "midi": 65,
      "hit": false,
      "t": 139491.07199999972,
      "d": 303.55199999999604,
      "v": 110
    },
    {
      "midi": 46,
      "hit": false,
      "t": 139491.0719999999,
      "d": 8.928000000014435,
      "v": 84
    },
    {
      "midi": 41,
      "hit": false,
      "t": 139705.3439999994,
      "d": 357.11999999999534,
      "v": 110
    },
    {
      "midi": 42,
      "hit": false,
      "t": 139705.34399999992,
      "d": 8.928000000014435,
      "v": 84
    },
    {
      "midi": 36,
      "hit": false,
      "t": 139705.34399999992,
      "d": 8.928000000014435,
      "v": 84
    },
    {
      "midi": 72,
      "hit": false,
      "t": 139919.61599999972,
      "d": 107.1359999999986,
      "v": 80
    },
    {
      "midi": 67,
      "hit": false,
      "t": 139919.61599999972,
      "d": 107.1359999999986,
      "v": 70
    },
    {
      "midi": 46,
      "hit": false,
      "t": 139919.61599999995,
      "d": 8.928000000014435,
      "v": 84
    },
    {
      "midi": 43,
      "hit": false,
      "t": 140133.8879999994,
      "d": 178.55999999999767,
      "v": 110
    },
    {
      "midi": 75,
      "hit": false,
      "t": 140133.88799999972,
      "d": 107.1359999999986,
      "v": 120
    },
    {
      "midi": 68,
      "hit": false,
      "t": 140133.88799999972,
      "d": 107.1359999999986,
      "v": 110
    },
    {
      "midi": 44,
      "hit": false,
      "t": 140133.88799999998,
      "d": 8.928000000014435,
      "v": 84
    },
    {
      "midi": 45,
      "hit": false,
      "t": 140133.88799999998,
      "d": 8.928000000014435,
      "v": 56
    },
    {
      "midi": 40,
      "hit": false,
      "t": 140133.88799999998,
      "d": 8.928000000014435,
      "v": 84
    },
    {
      "midi": 41,
      "hit": false,
      "t": 140348.1599999994,
      "d": 178.55999999999767,
      "v": 110
    },
    {
      "midi": 72,
      "hit": false,
      "t": 140348.1599999997,
      "d": 107.1359999999986,
      "v": 80
    },
    {
      "midi": 67,
      "hit": false,
      "t": 140348.1599999997,
      "d": 107.1359999999986,
      "v": 70
    },
    {
      "midi": 46,
      "hit": false,
      "t": 140348.16,
      "d": 8.928000000014435,
      "v": 84
    },
    {
      "midi": 46,
      "hit": false,
      "t": 140562.4319999994,
      "d": 428.5439999999944,
      "v": 110
    },
    {
      "midi": 72,
      "hit": false,
      "t": 140562.43199999954,
      "d": 71.42399999999907,
      "v": 110
    },
    {
      "midi": 65,
      "hit": false,
      "t": 140562.43199999954,
      "d": 71.42399999999907,
      "v": 110
    },
    {
      "midi": 60,
      "hit": false,
      "t": 140562.43199999954,
      "d": 71.42399999999907,
      "v": 110
    },
    {
      "midi": 79,
      "hit": false,
      "t": 140562.4319999997,
      "d": 232.12799999999697,
      "v": 120
    },
    {
      "midi": 72,
      "hit": false,
      "t": 140562.4319999997,
      "d": 232.12799999999697,
      "v": 110
    },
    {
      "midi": 86,
      "hit": false,
      "t": 140562.43199999988,
      "d": 1705.2479999999923,
      "v": 97
    },
    {
      "midi": 42,
      "hit": false,
      "t": 140562.43200000003,
      "d": 8.928000000014435,
      "v": 84
    },
    {
      "midi": 36,
      "hit": false,
      "t": 140562.43200000003,
      "d": 8.928000000014435,
      "v": 84
    },
    {
      "midi": 46,
      "hit": false,
      "t": 140776.70400000006,
      "d": 8.928000000014435,
      "v": 84
    },
    {
      "midi": 72,
      "hit": false,
      "t": 140883.83999999953,
      "d": 71.42399999999907,
      "v": 110
    },
    {
      "midi": 65,
      "hit": false,
      "t": 140883.83999999953,
      "d": 71.42399999999907,
      "v": 110
    },
    {
      "midi": 60,
      "hit": false,
      "t": 140883.83999999953,
      "d": 71.42399999999907,
      "v": 110
    },
    {
      "midi": 77,
      "hit": false,
      "t": 140883.8399999997,
      "d": 1071.359999999986,
      "v": 90
    },
    {
      "midi": 72,
      "hit": false,
      "t": 140883.8399999997,
      "d": 1071.359999999986,
      "v": 80
    },
    {
      "midi": 44,
      "hit": false,
      "t": 140990.97600000008,
      "d": 8.928000000014435,
      "v": 84
    },
    {
      "midi": 45,
      "hit": false,
      "t": 140990.97600000008,
      "d": 8.928000000014435,
      "v": 56
    },
    {
      "midi": 40,
      "hit": false,
      "t": 140990.97600000008,
      "d": 8.928000000014435,
      "v": 84
    },
    {
      "midi": 72,
      "hit": false,
      "t": 141205.24799999953,
      "d": 71.42399999999907,
      "v": 110
    },
    {
      "midi": 65,
      "hit": false,
      "t": 141205.24799999953,
      "d": 71.42399999999907,
      "v": 110
    },
    {
      "midi": 60,
      "hit": false,
      "t": 141205.24799999953,
      "d": 71.42399999999907,
      "v": 110
    },
    {
      "midi": 62,
      "hit": false,
      "t": 141205.24799999964,
      "d": 107.1359999999986,
      "v": 110
    },
    {
      "midi": 46,
      "hit": false,
      "t": 141205.2480000001,
      "d": 8.928000000014435,
      "v": 84
    },
    {
      "midi": 46,
      "hit": false,
      "t": 141419.51999999938,
      "d": 357.11999999999534,
      "v": 110
    },
    {
      "midi": 62,
      "hit": false,
      "t": 141419.51999999964,
      "d": 178.55999999999767,
      "v": 120
    },
    {
      "midi": 42,
      "hit": false,
      "t": 141419.52000000014,
      "d": 8.928000000014435,
      "v": 84
    },
    {
      "midi": 36,
      "hit": false,
      "t": 141419.52000000014,
      "d": 8.928000000014435,
      "v": 84
    },
    {
      "midi": 60,
      "hit": false,
      "t": 141633.79199999964,
      "d": 178.55999999999767,
      "v": 127
    },
    {
      "midi": 46,
      "hit": false,
      "t": 141633.79200000016,
      "d": 8.928000000014435,
      "v": 84
    },
    {
      "midi": 36,
      "hit": false,
      "t": 141740.9280000002,
      "d": 8.928000000014435,
      "v": 84
    },
    {
      "midi": 44,
      "hit": false,
      "t": 141848.06399999937,
      "d": 178.55999999999767,
      "v": 110
    },
    {
      "midi": 58,
      "hit": false,
      "t": 141848.06399999963,
      "d": 107.1359999999986,
      "v": 127
    },
    {
      "midi": 44,
      "hit": false,
      "t": 141848.06400000022,
      "d": 8.928000000014435,
      "v": 84
    },
    {
      "midi": 45,
      "hit": false,
      "t": 141848.06400000022,
      "d": 8.928000000014435,
      "v": 56
    },
    {
      "midi": 40,
      "hit": false,
      "t": 141848.06400000022,
      "d": 8.928000000014435,
      "v": 84
    },
    {
      "midi": 41,
      "hit": false,
      "t": 142062.33599999937,
      "d": 178.55999999999767,
      "v": 110
    },
    {
      "midi": 68,
      "hit": false,
      "t": 142062.33599999963,
      "d": 348.19200000001,
      "v": 127
    },
    {
      "midi": 46,
      "hit": false,
      "t": 142062.33600000024,
      "d": 8.928000000014435,
      "v": 84
    },
    {
      "midi": 41,
      "hit": false,
      "t": 142062.33600000024,
      "d": 8.928000000014435,
      "v": 84
    },
    {
      "midi": 43,
      "hit": false,
      "t": 142276.60799999937,
      "d": 428.5439999999944,
      "v": 110
    },
    {
      "midi": 91,
      "hit": false,
      "t": 142276.6079999999,
      "d": 1249.9200000000128,
      "v": 97
    },
    {
      "midi": 42,
      "hit": false,
      "t": 142276.60800000027,
      "d": 8.928000000014435,
      "v": 84
    },
    {
      "midi": 36,
      "hit": false,
      "t": 142276.60800000027,
      "d": 8.928000000014435,
      "v": 84
    },
    {
      "midi": 70,
      "hit": false,
      "t": 142490.87999999954,
      "d": 71.42399999999907,
      "v": 110
    },
    {
      "midi": 58,
      "hit": false,
      "t": 142490.87999999954,
      "d": 71.42399999999907,
      "v": 110
    },
    {
      "midi": 67,
      "hit": false,
      "t": 142490.87999999966,
      "d": 714.2399999999907,
      "v": 107
    },
    {
      "midi": 46,
      "hit": false,
      "t": 142490.8800000003,
      "d": 8.928000000014435,
      "v": 84
    },
    {
      "midi": 72,
      "hit": false,
      "t": 142705.15199999954,
      "d": 71.42399999999907,
      "v": 110
    },
    {
      "midi": 60,
      "hit": false,
      "t": 142705.15199999954,
      "d": 71.42399999999907,
      "v": 110
    },
    {
      "midi": 44,
      "hit": false,
      "t": 142705.15200000032,
      "d": 8.928000000014435,
      "v": 84
    },
    {
      "midi": 45,
      "hit": false,
      "t": 142705.15200000032,
      "d": 8.928000000014435,
      "v": 56
    },
    {
      "midi": 40,
      "hit": false,
      "t": 142705.15200000032,
      "d": 8.928000000014435,
      "v": 84
    },
    {
      "midi": 43,
      "hit": false,
      "t": 142919.42399999936,
      "d": 642.8159999999916,
      "v": 110
    },
    {
      "midi": 75,
      "hit": false,
      "t": 142919.42399999953,
      "d": 321.4079999999958,
      "v": 120
    },
    {
      "midi": 63,
      "hit": false,
      "t": 142919.42399999953,
      "d": 321.4079999999958,
      "v": 120
    },
    {
      "midi": 46,
      "hit": false,
      "t": 142919.42400000035,
      "d": 8.928000000014435,
      "v": 84
    },
    {
      "midi": 42,
      "hit": false,
      "t": 143133.69600000037,
      "d": 8.928000000014435,
      "v": 84
    },
    {
      "midi": 36,
      "hit": false,
      "t": 143133.69600000037,
      "d": 8.928000000014435,
      "v": 84
    },
    {
      "midi": 70,
      "hit": false,
      "t": 143347.96799999953,
      "d": 71.42399999999907,
      "v": 110
    },
    {
      "midi": 58,
      "hit": false,
      "t": 143347.96799999953,
      "d": 71.42399999999907,
      "v": 110
    },
    {
      "midi": 46,
      "hit": false,
      "t": 143347.9680000004,
      "d": 8.928000000014435,
      "v": 84
    },
    {
      "midi": 72,
      "hit": false,
      "t": 143562.23999999953,
      "d": 71.42399999999907,
      "v": 110
    },
    {
      "midi": 60,
      "hit": false,
      "t": 143562.23999999953,
      "d": 71.42399999999907,
      "v": 110
    },
    {
      "midi": 44,
      "hit": false,
      "t": 143562.24000000043,
      "d": 8.928000000014435,
      "v": 84
    },
    {
      "midi": 45,
      "hit": false,
      "t": 143562.24000000043,
      "d": 8.928000000014435,
      "v": 56
    },
    {
      "midi": 40,
      "hit": false,
      "t": 143562.24000000043,
      "d": 8.928000000014435,
      "v": 84
    },
    {
      "midi": 43,
      "hit": false,
      "t": 143776.51199999935,
      "d": 928.5119999999879,
      "v": 110
    },
    {
      "midi": 79,
      "hit": false,
      "t": 143776.51199999952,
      "d": 571.3919999999925,
      "v": 120
    },
    {
      "midi": 75,
      "hit": false,
      "t": 143776.51199999952,
      "d": 571.3919999999925,
      "v": 120
    },
    {
      "midi": 67,
      "hit": false,
      "t": 143776.51199999952,
      "d": 571.3919999999925,
      "v": 120
    },
    {
      "midi": 63,
      "hit": false,
      "t": 143776.51199999952,
      "d": 571.3919999999925,
      "v": 120
    },
    {
      "midi": 67,
      "hit": false,
      "t": 143776.51199999964,
      "d": 535.6800000001094,
      "v": 107
    },
    {
      "midi": 91,
      "hit": false,
      "t": 143776.5119999999,
      "d": 428.5439999999944,
      "v": 97
    },
    {
      "midi": 57,
      "hit": false,
      "t": 143776.51200000045,
      "d": 8.928000000014435,
      "v": 126
    },
    {
      "midi": 36,
      "hit": false,
      "t": 143776.51200000045,
      "d": 8.928000000014435,
      "v": 84
    },
    {
      "midi": 36,
      "hit": false,
      "t": 144205.05600000048,
      "d": 8.928000000014435,
      "v": 112
    },
    {
      "midi": 40,
      "hit": false,
      "t": 144419.3280000005,
      "d": 8.928000000014435,
      "v": 112
    },
    {
      "midi": 40,
      "hit": false,
      "t": 144740.73600000053,
      "d": 8.928000000014435,
      "v": 84
    },
    {
      "midi": 43,
      "hit": false,
      "t": 144847.87199999933,
      "d": 107.1359999999986,
      "v": 110
    },
    {
      "midi": 79,
      "hit": false,
      "t": 144847.87199999968,
      "d": 714.240000000369,
      "v": 80
    },
    {
      "midi": 74,
      "hit": false,
      "t": 144847.87199999968,
      "d": 714.240000000369,
      "v": 70
    },
    {
      "midi": 82,
      "hit": false,
      "t": 144847.87199999968,
      "d": 803.5200000004843,
      "v": 80
    },
    {
      "midi": 77,
      "hit": false,
      "t": 144847.87199999968,
      "d": 803.5200000004843,
      "v": 70
    },
    {
      "midi": 40,
      "hit": false,
      "t": 144847.87200000056,
      "d": 8.928000000014435,
      "v": 112
    },
    {
      "midi": 41,
      "hit": false,
      "t": 145062.14399999933,
      "d": 107.1359999999986,
      "v": 110
    },
    {
      "midi": 40,
      "hit": false,
      "t": 145062.14400000058,
      "d": 8.928000000014435,
      "v": 112
    },
    {
      "midi": 39,
      "hit": false,
      "t": 145276.41599999933,
      "d": 107.1359999999986,
      "v": 110
    },
    {
      "midi": 40,
      "hit": false,
      "t": 145276.4160000006,
      "d": 8.928000000014435,
      "v": 112
    },
    {
      "midi": 38,
      "hit": false,
      "t": 145490.68799999933,
      "d": 107.1359999999986,
      "v": 110
    },
    {
      "midi": 51,
      "hit": false,
      "t": 145490.68800000063,
      "d": 8.928000000014435,
      "v": 126
    },
    {
      "midi": 63,
      "hit": false,
      "t": 145704.9599999992,
      "d": 35.711999999999534,
      "v": 70
    },
    {
      "midi": 60,
      "hit": false,
      "t": 145704.9599999992,
      "d": 35.711999999999534,
      "v": 80
    },
    {
      "midi": 48,
      "hit": false,
      "t": 145704.95999999932,
      "d": 428.5439999999944,
      "v": 110
    },
    {
      "midi": 63,
      "hit": false,
      "t": 145704.95999999988,
      "d": 357.11999999999534,
      "v": 90
    },
    {
      "midi": 57,
      "hit": false,
      "t": 145704.96000000066,
      "d": 8.928000000014435,
      "v": 84
    },
    {
      "midi": 36,
      "hit": false,
      "t": 145704.96000000066,
      "d": 8.928000000014435,
      "v": 112
    },
    {
      "midi": 75,
      "hit": false,
      "t": 145812.0959999992,
      "d": 35.711999999999534,
      "v": 80
    },
    {
      "midi": 87,
      "hit": false,
      "t": 145919.2319999992,
      "d": 35.711999999999534,
      "v": 60
    },
    {
      "midi": 42,
      "hit": false,
      "t": 145919.2320000007,
      "d": 8.928000000014435,
      "v": 84
    },
    {
      "midi": 75,
      "hit": false,
      "t": 146026.3679999992,
      "d": 35.711999999999534,
      "v": 80
    },
    {
      "midi": 87,
      "hit": false,
      "t": 146133.5039999992,
      "d": 35.711999999999534,
      "v": 60
    },
    {
      "midi": 62,
      "hit": false,
      "t": 146133.50399999987,
      "d": 142.84799999999814,
      "v": 117
    },
    {
      "midi": 46,
      "hit": false,
      "t": 146133.5040000007,
      "d": 8.928000000014435,
      "v": 70
    },
    {
      "midi": 40,
      "hit": false,
      "t": 146133.5040000007,
      "d": 8.928000000014435,
      "v": 112
    },
    {
      "midi": 75,
      "hit": false,
      "t": 146240.6399999992,
      "d": 35.711999999999534,
      "v": 80
    },
    {
      "midi": 63,
      "hit": false,
      "t": 146347.7759999992,
      "d": 35.711999999999534,
      "v": 70
    },
    {
      "midi": 60,
      "hit": false,
      "t": 146347.7759999992,
      "d": 35.711999999999534,
      "v": 80
    },
    {
      "midi": 60,
      "hit": false,
      "t": 146347.77599999987,
      "d": 357.11999999999534,
      "v": 90
    },
    {
      "midi": 42,
      "hit": false,
      "t": 146347.77600000074,
      "d": 8.928000000014435,
      "v": 84
    },
    {
      "midi": 87,
      "hit": false,
      "t": 146454.9119999992,
      "d": 35.711999999999534,
      "v": 80
    },
    {
      "midi": 48,
      "hit": false,
      "t": 146454.9119999993,
      "d": 89.27999999999884,
      "v": 110
    },
    {
      "midi": 63,
      "hit": false,
      "t": 146562.0479999992,
      "d": 35.711999999999534,
      "v": 70
    },
    {
      "midi": 60,
      "hit": false,
      "t": 146562.0479999992,
      "d": 35.711999999999534,
      "v": 80
    },
    {
      "midi": 48,
      "hit": false,
      "t": 146562.0479999993,
      "d": 624.9599999999919,
      "v": 110
    },
    {
      "midi": 46,
      "hit": false,
      "t": 146562.04800000077,
      "d": 8.928000000014435,
      "v": 70
    },
    {
      "midi": 36,
      "hit": false,
      "t": 146562.04800000077,
      "d": 8.928000000014435,
      "v": 112
    },
    {
      "midi": 75,
      "hit": false,
      "t": 146669.1839999992,
      "d": 35.711999999999534,
      "v": 80
    },
    {
      "midi": 87,
      "hit": false,
      "t": 146776.3199999992,
      "d": 35.711999999999534,
      "v": 60
    },
    {
      "midi": 67,
      "hit": false,
      "t": 146776.3199999995,
      "d": 71.42399999999907,
      "v": 110
    },
    {
      "midi": 55,
      "hit": false,
      "t": 146776.3199999995,
      "d": 71.42399999999907,
      "v": 100
    },
    {
      "midi": 42,
      "hit": false,
      "t": 146776.3200000008,
      "d": 8.928000000014435,
      "v": 84
    },
    {
      "midi": 75,
      "hit": false,
      "t": 146883.4559999992,
      "d": 35.711999999999534,
      "v": 80
    },
    {
      "midi": 87,
      "hit": false,
      "t": 146990.5919999992,
      "d": 35.711999999999534,
      "v": 60
    },
    {
      "midi": 70,
      "hit": false,
      "t": 146990.5919999995,
      "d": 71.42399999999907,
      "v": 110
    },
    {
      "midi": 58,
      "hit": false,
      "t": 146990.5919999995,
      "d": 71.42399999999907,
      "v": 100
    },
    {
      "midi": 46,
      "hit": false,
      "t": 146990.59200000082,
      "d": 8.928000000014435,
      "v": 70
    },
    {
      "midi": 40,
      "hit": false,
      "t": 146990.59200000082,
      "d": 8.928000000014435,
      "v": 112
    },
    {
      "midi": 75,
      "hit": false,
      "t": 147097.7279999992,
      "d": 35.711999999999534,
      "v": 80
    },
    {
      "midi": 72,
      "hit": false,
      "t": 147097.7279999995,
      "d": 71.42399999999907,
      "v": 110
    },
    {
      "midi": 60,
      "hit": false,
      "t": 147097.7279999995,
      "d": 71.42399999999907,
      "v": 110
    },
    {
      "midi": 63,
      "hit": false,
      "t": 147204.8639999992,
      "d": 35.711999999999534,
      "v": 70
    },
    {
      "midi": 60,
      "hit": false,
      "t": 147204.8639999992,
      "d": 35.711999999999534,
      "v": 80
    },
    {
      "midi": 43,
      "hit": false,
      "t": 147204.8639999993,
      "d": 196.41599999999744,
      "v": 110
    },
    {
      "midi": 42,
      "hit": false,
      "t": 147204.86400000085,
      "d": 8.928000000014435,
      "v": 84
    },
    {
      "midi": 63,
      "hit": false,
      "t": 147311.99999999919,
      "d": 35.711999999999534,
      "v": 70
    },
    {
      "midi": 60,
      "hit": false,
      "t": 147311.99999999919,
      "d": 35.711999999999534,
      "v": 80
    },
    {
      "midi": 75,
      "hit": false,
      "t": 147419.13599999918,
      "d": 35.711999999999534,
      "v": 80
    },
    {
      "midi": 48,
      "hit": false,
      "t": 147419.1359999993,
      "d": 428.5439999999944,
      "v": 110
    },
    {
      "midi": 46,
      "hit": false,
      "t": 147419.13600000087,
      "d": 8.928000000014435,
      "v": 70
    },
    {
      "midi": 36,
      "hit": false,
      "t": 147419.13600000087,
      "d": 8.928000000014435,
      "v": 112
    },
    {
      "midi": 87,
      "hit": false,
      "t": 147526.27199999918,
      "d": 35.711999999999534,
      "v": 60
    },
    {
      "midi": 63,
      "hit": false,
      "t": 147633.40799999918,
      "d": 35.711999999999534,
      "v": 70
    },
    {
      "midi": 60,
      "hit": false,
      "t": 147633.40799999918,
      "d": 35.711999999999534,
      "v": 80
    },
    {
      "midi": 42,
      "hit": false,
      "t": 147633.4080000009,
      "d": 8.928000000014435,
      "v": 84
    },
    {
      "midi": 75,
      "hit": false,
      "t": 147740.54399999918,
      "d": 35.711999999999534,
      "v": 80
    },
    {
      "midi": 87,
      "hit": false,
      "t": 147847.67999999918,
      "d": 35.711999999999534,
      "v": 60
    },
    {
      "midi": 58,
      "hit": false,
      "t": 147847.67999999988,
      "d": 142.84799999999814,
      "v": 127
    },
    {
      "midi": 46,
      "hit": false,
      "t": 147847.68000000092,
      "d": 8.928000000014435,
      "v": 70
    },
    {
      "midi": 40,
      "hit": false,
      "t": 147847.68000000092,
      "d": 8.928000000014435,
      "v": 112
    },
    {
      "midi": 63,
      "hit": false,
      "t": 147954.81599999918,
      "d": 35.711999999999534,
      "v": 70
    },
    {
      "midi": 60,
      "hit": false,
      "t": 147954.81599999918,
      "d": 35.711999999999534,
      "v": 80
    },
    {
      "midi": 75,
      "hit": false,
      "t": 148061.95199999918,
      "d": 35.711999999999534,
      "v": 80
    },
    {
      "midi": 60,
      "hit": false,
      "t": 148061.95199999987,
      "d": 142.84799999999814,
      "v": 127
    },
    {
      "midi": 42,
      "hit": false,
      "t": 148061.95200000095,
      "d": 8.928000000014435,
      "v": 84
    },
    {
      "midi": 87,
      "hit": false,
      "t": 148169.08799999917,
      "d": 35.711999999999534,
      "v": 60
    },
    {
      "midi": 48,
      "hit": false,
      "t": 148169.0879999993,
      "d": 89.27999999999884,
      "v": 110
    },
    {
      "midi": 63,
      "hit": false,
      "t": 148276.22399999917,
      "d": 35.711999999999534,
      "v": 70
    },
    {
      "midi": 60,
      "hit": false,
      "t": 148276.22399999917,
      "d": 35.711999999999534,
      "v": 80
    },
    {
      "midi": 48,
      "hit": false,
      "t": 148276.2239999993,
      "d": 410.68799999999464,
      "v": 110
    },
    {
      "midi": 63,
      "hit": false,
      "t": 148276.22399999987,
      "d": 142.84799999999814,
      "v": 110
    },
    {
      "midi": 46,
      "hit": false,
      "t": 148276.22400000098,
      "d": 8.928000000014435,
      "v": 70
    },
    {
      "midi": 36,
      "hit": false,
      "t": 148276.22400000098,
      "d": 8.928000000014435,
      "v": 112
    },
    {
      "midi": 75,
      "hit": false,
      "t": 148383.35999999917,
      "d": 35.711999999999534,
      "v": 80
    },
    {
      "midi": 87,
      "hit": false,
      "t": 148490.49599999917,
      "d": 35.711999999999534,
      "v": 60
    },
    {
      "midi": 62,
      "hit": false,
      "t": 148490.49599999987,
      "d": 160.7039999999979,
      "v": 110
    },
    {
      "midi": 42,
      "hit": false,
      "t": 148490.496000001,
      "d": 8.928000000014435,
      "v": 84
    },
    {
      "midi": 63,
      "hit": false,
      "t": 148597.63199999917,
      "d": 35.711999999999534,
      "v": 70
    },
    {
      "midi": 60,
      "hit": false,
      "t": 148597.63199999917,
      "d": 35.711999999999534,
      "v": 80
    },
    {
      "midi": 75,
      "hit": false,
      "t": 148704.76799999917,
      "d": 35.711999999999534,
      "v": 80
    },
    {
      "midi": 43,
      "hit": false,
      "t": 148704.76799999928,
      "d": 196.41599999999744,
      "v": 110
    },
    {
      "midi": 67,
      "hit": false,
      "t": 148704.76799999952,
      "d": 71.42399999999907,
      "v": 110
    },
    {
      "midi": 63,
      "hit": false,
      "t": 148704.76799999952,
      "d": 71.42399999999907,
      "v": 100
    },
    {
      "midi": 55,
      "hit": false,
      "t": 148704.76799999952,
      "d": 71.42399999999907,
      "v": 100
    },
    {
      "midi": 60,
      "hit": false,
      "t": 148704.76799999987,
      "d": 142.84799999999814,
      "v": 127
    },
    {
      "midi": 46,
      "hit": false,
      "t": 148704.76800000103,
      "d": 8.928000000014435,
      "v": 70
    },
    {
      "midi": 40,
      "hit": false,
      "t": 148704.76800000103,
      "d": 8.928000000014435,
      "v": 112
    },
    {
      "midi": 87,
      "hit": false,
      "t": 148811.90399999917,
      "d": 35.711999999999534,
      "v": 60
    },
    {
      "midi": 63,
      "hit": false,
      "t": 148919.03999999916,
      "d": 35.711999999999534,
      "v": 70
    },
    {
      "midi": 60,
      "hit": false,
      "t": 148919.03999999916,
      "d": 35.711999999999534,
      "v": 80
    },
    {
      "midi": 46,
      "hit": false,
      "t": 148919.03999999928,
      "d": 196.41599999999744,
      "v": 110
    },
    {
      "midi": 67,
      "hit": false,
      "t": 148919.03999999986,
      "d": 142.84799999999814,
      "v": 100
    },
    {
      "midi": 42,
      "hit": false,
      "t": 148919.04000000106,
      "d": 8.928000000014435,
      "v": 84
    },
    {
      "midi": 63,
      "hit": false,
      "t": 149026.17599999916,
      "d": 35.711999999999534,
      "v": 70
    },
    {
      "midi": 60,
      "hit": false,
      "t": 149026.17599999916,
      "d": 35.711999999999534,
      "v": 80
    },
    {
      "midi": 75,
      "hit": false,
      "t": 149133.31199999916,
      "d": 35.711999999999534,
      "v": 80
    },
    {
      "midi": 48,
      "hit": false,
      "t": 149133.31199999928,
      "d": 428.5439999999944,
      "v": 110
    },
    {
      "midi": 58,
      "hit": false,
      "t": 149133.31199999986,
      "d": 1696.320000000007,
      "v": 127
    },
    {
      "midi": 46,
      "hit": false,
      "t": 149133.31200000108,
      "d": 8.928000000014435,
      "v": 70
    },
    {
      "midi": 36,
      "hit": false,
      "t": 149133.31200000108,
      "d": 8.928000000014435,
      "v": 112
    },
    {
      "midi": 87,
      "hit": false,
      "t": 149240.44799999916,
      "d": 35.711999999999534,
      "v": 60
    },
    {
      "midi": 63,
      "hit": false,
      "t": 149347.58399999916,
      "d": 35.711999999999534,
      "v": 70
    },
    {
      "midi": 60,
      "hit": false,
      "t": 149347.58399999916,
      "d": 35.711999999999534,
      "v": 80
    },
    {
      "midi": 42,
      "hit": false,
      "t": 149347.5840000011,
      "d": 8.928000000014435,
      "v": 84
    },
    {
      "midi": 75,
      "hit": false,
      "t": 149454.71999999916,
      "d": 35.711999999999534,
      "v": 80
    },
    {
      "midi": 87,
      "hit": false,
      "t": 149561.85599999916,
      "d": 35.711999999999534,
      "v": 60
    },
    {
      "midi": 46,
      "hit": false,
      "t": 149561.85600000113,
      "d": 8.928000000014435,
      "v": 70
    },
    {
      "midi": 40,
      "hit": false,
      "t": 149561.85600000113,
      "d": 8.928000000014435,
      "v": 112
    },
    {
      "midi": 63,
      "hit": false,
      "t": 149668.99199999915,
      "d": 35.711999999999534,
      "v": 70
    },
    {
      "midi": 60,
      "hit": false,
      "t": 149668.99199999915,
      "d": 35.711999999999534,
      "v": 80
    },
    {
      "midi": 75,
      "hit": false,
      "t": 149776.12799999915,
      "d": 35.711999999999534,
      "v": 80
    },
    {
      "midi": 42,
      "hit": false,
      "t": 149776.12800000116,
      "d": 8.928000000014435,
      "v": 84
    },
    {
      "midi": 87,
      "hit": false,
      "t": 149883.26399999915,
      "d": 35.711999999999534,
      "v": 60
    },
    {
      "midi": 48,
      "hit": false,
      "t": 149883.26399999927,
      "d": 89.27999999999884,
      "v": 110
    },
    {
      "midi": 63,
      "hit": false,
      "t": 149990.39999999915,
      "d": 35.711999999999534,
      "v": 70
    },
    {
      "midi": 60,
      "hit": false,
      "t": 149990.39999999915,
      "d": 35.711999999999534,
      "v": 80
    },
    {
      "midi": 48,
      "hit": false,
      "t": 149990.39999999927,
      "d": 624.9599999999919,
      "v": 110
    },
    {
      "midi": 72,
      "hit": false,
      "t": 149990.39999999953,
      "d": 71.42399999999907,
      "v": 80
    },
    {
      "midi": 70,
      "hit": false,
      "t": 149990.39999999953,
      "d": 71.42399999999907,
      "v": 110
    },
    {
      "midi": 58,
      "hit": false,
      "t": 149990.39999999953,
      "d": 71.42399999999907,
      "v": 100
    },
    {
      "midi": 55,
      "hit": false,
      "t": 149990.39999999953,
      "d": 71.42399999999907,
      "v": 100
    },
    {
      "midi": 46,
      "hit": false,
      "t": 149990.4000000012,
      "d": 8.928000000014435,
      "v": 70
    },
    {
      "midi": 36,
      "hit": false,
      "t": 149990.4000000012,
      "d": 8.928000000014435,
      "v": 112
    },
    {
      "midi": 75,
      "hit": false,
      "t": 150097.53599999915,
      "d": 35.711999999999534,
      "v": 80
    },
    {
      "midi": 87,
      "hit": false,
      "t": 150204.67199999915,
      "d": 35.711999999999534,
      "v": 60
    },
    {
      "midi": 72,
      "hit": false,
      "t": 150204.67199999953,
      "d": 71.42399999999907,
      "v": 110
    },
    {
      "midi": 70,
      "hit": false,
      "t": 150204.67199999953,
      "d": 71.42399999999907,
      "v": 80
    },
    {
      "midi": 60,
      "hit": false,
      "t": 150204.67199999953,
      "d": 71.42399999999907,
      "v": 100
    },
    {
      "midi": 55,
      "hit": false,
      "t": 150204.67199999953,
      "d": 71.42399999999907,
      "v": 100
    },
    {
      "midi": 42,
      "hit": false,
      "t": 150204.6720000012,
      "d": 8.928000000014435,
      "v": 84
    },
    {
      "midi": 63,
      "hit": false,
      "t": 150311.80799999915,
      "d": 35.711999999999534,
      "v": 70
    },
    {
      "midi": 60,
      "hit": false,
      "t": 150311.80799999915,
      "d": 35.711999999999534,
      "v": 80
    },
    {
      "midi": 75,
      "hit": false,
      "t": 150418.94399999914,
      "d": 35.711999999999534,
      "v": 80
    },
    {
      "midi": 75,
      "hit": false,
      "t": 150418.94399999952,
      "d": 178.55999999999767,
      "v": 110
    },
    {
      "midi": 63,
      "hit": false,
      "t": 150418.94399999952,
      "d": 178.55999999999767,
      "v": 100
    },
    {
      "midi": 58,
      "hit": false,
      "t": 150418.94399999952,
      "d": 178.55999999999767,
      "v": 100
    },
    {
      "midi": 46,
      "hit": false,
      "t": 150418.94400000124,
      "d": 8.928000000014435,
      "v": 70
    },
    {
      "midi": 40,
      "hit": false,
      "t": 150418.94400000124,
      "d": 8.928000000014435,
      "v": 112
    },
    {
      "midi": 87,
      "hit": false,
      "t": 150526.07999999914,
      "d": 35.711999999999534,
      "v": 60
    },
    {
      "midi": 63,
      "hit": false,
      "t": 150633.21599999914,
      "d": 35.711999999999534,
      "v": 70
    },
    {
      "midi": 60,
      "hit": false,
      "t": 150633.21599999914,
      "d": 35.711999999999534,
      "v": 80
    },
    {
      "midi": 43,
      "hit": false,
      "t": 150633.21599999926,
      "d": 196.41599999999744,
      "v": 110
    },
    {
      "midi": 72,
      "hit": false,
      "t": 150633.21599999952,
      "d": 71.42399999999907,
      "v": 80
    },
    {
      "midi": 70,
      "hit": false,
      "t": 150633.21599999952,
      "d": 71.42399999999907,
      "v": 110
    },
    {
      "midi": 58,
      "hit": false,
      "t": 150633.21599999952,
      "d": 71.42399999999907,
      "v": 100
    },
    {
      "midi": 55,
      "hit": false,
      "t": 150633.21599999952,
      "d": 71.42399999999907,
      "v": 100
    },
    {
      "midi": 42,
      "hit": false,
      "t": 150633.21600000127,
      "d": 8.928000000014435,
      "v": 84
    },
    {
      "midi": 63,
      "hit": false,
      "t": 150740.35199999914,
      "d": 35.711999999999534,
      "v": 70
    },
    {
      "midi": 60,
      "hit": false,
      "t": 150740.35199999914,
      "d": 35.711999999999534,
      "v": 80
    },
    {
      "midi": 72,
      "hit": false,
      "t": 150740.35199999952,
      "d": 71.42399999999907,
      "v": 110
    },
    {
      "midi": 70,
      "hit": false,
      "t": 150740.35199999952,
      "d": 71.42399999999907,
      "v": 80
    },
    {
      "midi": 60,
      "hit": false,
      "t": 150740.35199999952,
      "d": 71.42399999999907,
      "v": 100
    },
    {
      "midi": 55,
      "hit": false,
      "t": 150740.35199999952,
      "d": 71.42399999999907,
      "v": 100
    },
    {
      "midi": 75,
      "hit": false,
      "t": 150847.48799999914,
      "d": 35.711999999999534,
      "v": 80
    },
    {
      "midi": 48,
      "hit": false,
      "t": 150847.48799999926,
      "d": 428.5439999999944,
      "v": 110
    },
    {
      "midi": 46,
      "hit": false,
      "t": 150847.4880000013,
      "d": 8.928000000014435,
      "v": 70
    },
    {
      "midi": 36,
      "hit": false,
      "t": 150847.4880000013,
      "d": 8.928000000014435,
      "v": 112
    },
    {
      "midi": 70,
      "hit": false,
      "t": 150856.41600000026,
      "d": 410.68799999999464,
      "v": 90
    },
    {
      "midi": 65,
      "hit": false,
      "t": 150856.41600000026,
      "d": 410.68799999999464,
      "v": 70
    },
    {
      "midi": 87,
      "hit": false,
      "t": 150954.62399999914,
      "d": 35.711999999999534,
      "v": 60
    },
    {
      "midi": 63,
      "hit": false,
      "t": 151061.75999999914,
      "d": 35.711999999999534,
      "v": 70
    },
    {
      "midi": 60,
      "hit": false,
      "t": 151061.75999999914,
      "d": 35.711999999999534,
      "v": 80
    },
    {
      "midi": 42,
      "hit": false,
      "t": 151061.76000000132,
      "d": 8.928000000014435,
      "v": 84
    },
    {
      "midi": 75,
      "hit": false,
      "t": 151168.89599999913,
      "d": 35.711999999999534,
      "v": 80
    },
    {
      "midi": 87,
      "hit": false,
      "t": 151276.03199999913,
      "d": 35.711999999999534,
      "v": 60
    },
    {
      "midi": 46,
      "hit": false,
      "t": 151276.03200000135,
      "d": 8.928000000014435,
      "v": 70
    },
    {
      "midi": 40,
      "hit": false,
      "t": 151276.03200000135,
      "d": 8.928000000014435,
      "v": 112
    },
    {
      "midi": 72,
      "hit": false,
      "t": 151284.96000000025,
      "d": 1160.6399999999849,
      "v": 100
    },
    {
      "midi": 67,
      "hit": false,
      "t": 151284.96000000025,
      "d": 1160.6399999999849,
      "v": 80
    },
    {
      "midi": 63,
      "hit": false,
      "t": 151383.16799999913,
      "d": 35.711999999999534,
      "v": 70
    },
    {
      "midi": 60,
      "hit": false,
      "t": 151383.16799999913,
      "d": 35.711999999999534,
      "v": 80
    },
    {
      "midi": 75,
      "hit": false,
      "t": 151490.30399999913,
      "d": 35.711999999999534,
      "v": 80
    },
    {
      "midi": 42,
      "hit": false,
      "t": 151490.30400000137,
      "d": 8.928000000014435,
      "v": 84
    },
    {
      "midi": 87,
      "hit": false,
      "t": 151597.43999999913,
      "d": 35.711999999999534,
      "v": 60
    },
    {
      "midi": 48,
      "hit": false,
      "t": 151597.43999999925,
      "d": 89.27999999999884,
      "v": 110
    },
    {
      "midi": 63,
      "hit": false,
      "t": 151704.57599999913,
      "d": 35.711999999999534,
      "v": 70
    },
    {
      "midi": 60,
      "hit": false,
      "t": 151704.57599999913,
      "d": 35.711999999999534,
      "v": 80
    },
    {
      "midi": 48,
      "hit": false,
      "t": 151704.57599999924,
      "d": 624.9599999999919,
      "v": 110
    },
    {
      "midi": 75,
      "hit": false,
      "t": 151704.5759999995,
      "d": 71.42399999999907,
      "v": 110
    },
    {
      "midi": 70,
      "hit": false,
      "t": 151704.5759999995,
      "d": 71.42399999999907,
      "v": 110
    },
    {
      "midi": 58,
      "hit": false,
      "t": 151704.5759999995,
      "d": 71.42399999999907,
      "v": 100
    },
    {
      "midi": 55,
      "hit": false,
      "t": 151704.5759999995,
      "d": 71.42399999999907,
      "v": 100
    },
    {
      "midi": 46,
      "hit": false,
      "t": 151704.5760000014,
      "d": 8.928000000014435,
      "v": 70
    },
    {
      "midi": 36,
      "hit": false,
      "t": 151704.5760000014,
      "d": 8.928000000014435,
      "v": 112
    },
    {
      "midi": 75,
      "hit": false,
      "t": 151811.71199999913,
      "d": 35.711999999999534,
      "v": 80
    },
    {
      "midi": 87,
      "hit": false,
      "t": 151918.84799999913,
      "d": 35.711999999999534,
      "v": 60
    },
    {
      "midi": 70,
      "hit": false,
      "t": 151918.8479999995,
      "d": 71.42399999999907,
      "v": 110
    },
    {
      "midi": 58,
      "hit": false,
      "t": 151918.8479999995,
      "d": 71.42399999999907,
      "v": 100
    },
    {
      "midi": 55,
      "hit": false,
      "t": 151918.8479999995,
      "d": 71.42399999999907,
      "v": 100
    },
    {
      "midi": 42,
      "hit": false,
      "t": 151918.84800000142,
      "d": 8.928000000014435,
      "v": 84
    },
    {
      "midi": 63,
      "hit": false,
      "t": 152025.98399999912,
      "d": 35.711999999999534,
      "v": 70
    },
    {
      "midi": 60,
      "hit": false,
      "t": 152025.98399999912,
      "d": 35.711999999999534,
      "v": 80
    },
    {
      "midi": 75,
      "hit": false,
      "t": 152133.11999999912,
      "d": 35.711999999999534,
      "v": 80
    },
    {
      "midi": 74,
      "hit": false,
      "t": 152133.1199999995,
      "d": 71.42399999999907,
      "v": 110
    },
    {
      "midi": 70,
      "hit": false,
      "t": 152133.1199999995,
      "d": 71.42399999999907,
      "v": 110
    },
    {
      "midi": 58,
      "hit": false,
      "t": 152133.1199999995,
      "d": 71.42399999999907,
      "v": 100
    },
    {
      "midi": 55,
      "hit": false,
      "t": 152133.1199999995,
      "d": 71.42399999999907,
      "v": 100
    },
    {
      "midi": 46,
      "hit": false,
      "t": 152133.12000000145,
      "d": 8.928000000014435,
      "v": 70
    },
    {
      "midi": 40,
      "hit": false,
      "t": 152133.12000000145,
      "d": 8.928000000014435,
      "v": 112
    },
    {
      "midi": 87,
      "hit": false,
      "t": 152240.25599999912,
      "d": 35.711999999999534,
      "v": 60
    },
    {
      "midi": 72,
      "hit": false,
      "t": 152240.2559999995,
      "d": 178.55999999999767,
      "v": 110
    },
    {
      "midi": 60,
      "hit": false,
      "t": 152240.2559999995,
      "d": 178.55999999999767,
      "v": 100
    },
    {
      "midi": 70,
      "hit": false,
      "t": 152240.2559999995,
      "d": 178.55999999999767,
      "v": 100
    },
    {
      "midi": 55,
      "hit": false,
      "t": 152240.2559999995,
      "d": 178.55999999999767,
      "v": 100
    },
    {
      "midi": 63,
      "hit": false,
      "t": 152347.39199999912,
      "d": 35.711999999999534,
      "v": 70
    },
    {
      "midi": 60,
      "hit": false,
      "t": 152347.39199999912,
      "d": 35.711999999999534,
      "v": 80
    },
    {
      "midi": 43,
      "hit": false,
      "t": 152347.39199999924,
      "d": 196.41599999999744,
      "v": 110
    },
    {
      "midi": 42,
      "hit": false,
      "t": 152347.39200000148,
      "d": 8.928000000014435,
      "v": 84
    },
    {
      "midi": 63,
      "hit": false,
      "t": 152454.52799999912,
      "d": 35.711999999999534,
      "v": 70
    },
    {
      "midi": 60,
      "hit": false,
      "t": 152454.52799999912,
      "d": 35.711999999999534,
      "v": 80
    },
    {
      "midi": 58,
      "hit": false,
      "t": 152490.23999999987,
      "d": 428.5439999999944,
      "v": 100
    },
    {
      "midi": 75,
      "hit": false,
      "t": 152561.66399999912,
      "d": 35.711999999999534,
      "v": 80
    },
    {
      "midi": 48,
      "hit": false,
      "t": 152561.66399999923,
      "d": 428.5439999999944,
      "v": 110
    },
    {
      "midi": 46,
      "hit": false,
      "t": 152561.6640000015,
      "d": 8.928000000014435,
      "v": 70
    },
    {
      "midi": 36,
      "hit": false,
      "t": 152561.6640000015,
      "d": 8.928000000014435,
      "v": 112
    },
    {
      "midi": 87,
      "hit": false,
      "t": 152668.79999999912,
      "d": 35.711999999999534,
      "v": 60
    },
    {
      "midi": 63,
      "hit": false,
      "t": 152775.9359999991,
      "d": 35.711999999999534,
      "v": 70
    },
    {
      "midi": 60,
      "hit": false,
      "t": 152775.9359999991,
      "d": 35.711999999999534,
      "v": 80
    },
    {
      "midi": 42,
      "hit": false,
      "t": 152775.93600000153,
      "d": 8.928000000014435,
      "v": 84
    },
    {
      "midi": 75,
      "hit": false,
      "t": 152883.0719999991,
      "d": 35.711999999999534,
      "v": 80
    },
    {
      "midi": 87,
      "hit": false,
      "t": 152990.2079999991,
      "d": 35.711999999999534,
      "v": 60
    },
    {
      "midi": 62,
      "hit": false,
      "t": 152990.20799999987,
      "d": 142.84799999999814,
      "v": 100
    },
    {
      "midi": 46,
      "hit": false,
      "t": 152990.20800000156,
      "d": 8.928000000014435,
      "v": 70
    },
    {
      "midi": 40,
      "hit": false,
      "t": 152990.20800000156,
      "d": 8.928000000014435,
      "v": 112
    },
    {
      "midi": 63,
      "hit": false,
      "t": 153097.3439999991,
      "d": 35.711999999999534,
      "v": 70
    },
    {
      "midi": 60,
      "hit": false,
      "t": 153097.3439999991,
      "d": 35.711999999999534,
      "v": 80
    },
    {
      "midi": 75,
      "hit": false,
      "t": 153204.4799999991,
      "d": 35.711999999999534,
      "v": 80
    },
    {
      "midi": 60,
      "hit": false,
      "t": 153204.47999999986,
      "d": 357.11999999999534,
      "v": 117
    },
    {
      "midi": 42,
      "hit": false,
      "t": 153204.48000000158,
      "d": 8.928000000014435,
      "v": 84
    },
    {
      "midi": 87,
      "hit": false,
      "t": 153311.6159999991,
      "d": 35.711999999999534,
      "v": 60
    },
    {
      "midi": 48,
      "hit": false,
      "t": 153311.61599999922,
      "d": 89.27999999999884,
      "v": 110
    },
    {
      "midi": 63,
      "hit": false,
      "t": 153418.7519999991,
      "d": 35.711999999999534,
      "v": 70
    },
    {
      "midi": 60,
      "hit": false,
      "t": 153418.7519999991,
      "d": 35.711999999999534,
      "v": 80
    },
    {
      "midi": 48,
      "hit": false,
      "t": 153418.75199999922,
      "d": 624.9599999999919,
      "v": 110
    },
    {
      "midi": 46,
      "hit": false,
      "t": 153418.7520000016,
      "d": 8.928000000014435,
      "v": 70
    },
    {
      "midi": 36,
      "hit": false,
      "t": 153418.7520000016,
      "d": 8.928000000014435,
      "v": 112
    },
    {
      "midi": 75,
      "hit": false,
      "t": 153525.8879999991,
      "d": 35.711999999999534,
      "v": 80
    },
    {
      "midi": 87,
      "hit": false,
      "t": 153633.0239999991,
      "d": 35.711999999999534,
      "v": 60
    },
    {
      "midi": 67,
      "hit": false,
      "t": 153633.0239999995,
      "d": 71.42399999999907,
      "v": 110
    },
    {
      "midi": 60,
      "hit": false,
      "t": 153633.0239999995,
      "d": 71.42399999999907,
      "v": 100
    },
    {
      "midi": 55,
      "hit": false,
      "t": 153633.0239999995,
      "d": 71.42399999999907,
      "v": 100
    },
    {
      "midi": 42,
      "hit": false,
      "t": 153633.02400000163,
      "d": 8.928000000014435,
      "v": 84
    },
    {
      "midi": 63,
      "hit": false,
      "t": 153740.1599999991,
      "d": 35.711999999999534,
      "v": 70
    },
    {
      "midi": 60,
      "hit": false,
      "t": 153740.1599999991,
      "d": 35.711999999999534,
      "v": 80
    },
    {
      "midi": 75,
      "hit": false,
      "t": 153847.2959999991,
      "d": 35.711999999999534,
      "v": 80
    },
    {
      "midi": 46,
      "hit": false,
      "t": 153847.29600000166,
      "d": 8.928000000014435,
      "v": 70
    },
    {
      "midi": 40,
      "hit": false,
      "t": 153847.29600000166,
      "d": 8.928000000014435,
      "v": 112
    },
    {
      "midi": 87,
      "hit": false,
      "t": 153954.4319999991,
      "d": 35.711999999999534,
      "v": 60
    },
    {
      "midi": 63,
      "hit": false,
      "t": 154061.5679999991,
      "d": 35.711999999999534,
      "v": 70
    },
    {
      "midi": 60,
      "hit": false,
      "t": 154061.5679999991,
      "d": 35.711999999999534,
      "v": 80
    },
    {
      "midi": 43,
      "hit": false,
      "t": 154061.5679999992,
      "d": 196.41599999999744,
      "v": 110
    },
    {
      "midi": 42,
      "hit": false,
      "t": 154061.5680000017,
      "d": 8.928000000014435,
      "v": 84
    },
    {
      "midi": 63,
      "hit": false,
      "t": 154168.7039999991,
      "d": 35.711999999999534,
      "v": 70
    },
    {
      "midi": 60,
      "hit": false,
      "t": 154168.7039999991,
      "d": 35.711999999999534,
      "v": 80
    },
    {
      "midi": 75,
      "hit": false,
      "t": 154275.8399999991,
      "d": 35.711999999999534,
      "v": 80
    },
    {
      "midi": 48,
      "hit": false,
      "t": 154275.8399999992,
      "d": 428.5439999999944,
      "v": 110
    },
    {
      "midi": 46,
      "hit": false,
      "t": 154275.8400000017,
      "d": 8.928000000014435,
      "v": 70
    },
    {
      "midi": 36,
      "hit": false,
      "t": 154275.8400000017,
      "d": 8.928000000014435,
      "v": 112
    },
    {
      "midi": 87,
      "hit": false,
      "t": 154382.9759999991,
      "d": 35.711999999999534,
      "v": 60
    },
    {
      "midi": 63,
      "hit": false,
      "t": 154490.1119999991,
      "d": 35.711999999999534,
      "v": 70
    },
    {
      "midi": 60,
      "hit": false,
      "t": 154490.1119999991,
      "d": 35.711999999999534,
      "v": 80
    },
    {
      "midi": 42,
      "hit": false,
      "t": 154490.11200000174,
      "d": 8.928000000014435,
      "v": 84
    },
    {
      "midi": 75,
      "hit": false,
      "t": 154597.2479999991,
      "d": 35.711999999999534,
      "v": 80
    },
    {
      "midi": 87,
      "hit": false,
      "t": 154704.3839999991,
      "d": 35.711999999999534,
      "v": 60
    },
    {
      "midi": 58,
      "hit": false,
      "t": 154704.38399999987,
      "d": 142.84799999999814,
      "v": 90
    },
    {
      "midi": 46,
      "hit": false,
      "t": 154704.38400000177,
      "d": 8.928000000014435,
      "v": 70
    },
    {
      "midi": 40,
      "hit": false,
      "t": 154704.38400000177,
      "d": 8.928000000014435,
      "v": 112
    },
    {
      "midi": 63,
      "hit": false,
      "t": 154811.5199999991,
      "d": 35.711999999999534,
      "v": 70
    },
    {
      "midi": 60,
      "hit": false,
      "t": 154811.5199999991,
      "d": 35.711999999999534,
      "v": 80
    },
    {
      "midi": 75,
      "hit": false,
      "t": 154918.6559999991,
      "d": 35.711999999999534,
      "v": 80
    },
    {
      "midi": 60,
      "hit": false,
      "t": 154918.65599999987,
      "d": 142.84799999999814,
      "v": 117
    },
    {
      "midi": 42,
      "hit": false,
      "t": 154918.6560000018,
      "d": 8.928000000014435,
      "v": 84
    },
    {
      "midi": 87,
      "hit": false,
      "t": 155025.79199999908,
      "d": 35.711999999999534,
      "v": 60
    },
    {
      "midi": 48,
      "hit": false,
      "t": 155025.7919999992,
      "d": 89.27999999999884,
      "v": 110
    },
    {
      "midi": 63,
      "hit": false,
      "t": 155132.92799999908,
      "d": 35.711999999999534,
      "v": 70
    },
    {
      "midi": 60,
      "hit": false,
      "t": 155132.92799999908,
      "d": 35.711999999999534,
      "v": 80
    },
    {
      "midi": 48,
      "hit": false,
      "t": 155132.9279999992,
      "d": 410.68799999999464,
      "v": 110
    },
    {
      "midi": 63,
      "hit": false,
      "t": 155132.92799999987,
      "d": 142.84799999999814,
      "v": 90
    },
    {
      "midi": 46,
      "hit": false,
      "t": 155132.92800000182,
      "d": 8.928000000014435,
      "v": 70
    },
    {
      "midi": 36,
      "hit": false,
      "t": 155132.92800000182,
      "d": 8.928000000014435,
      "v": 112
    },
    {
      "midi": 75,
      "hit": false,
      "t": 155240.06399999908,
      "d": 35.711999999999534,
      "v": 80
    },
    {
      "midi": 87,
      "hit": false,
      "t": 155347.19999999908,
      "d": 35.711999999999534,
      "v": 60
    },
    {
      "midi": 62,
      "hit": false,
      "t": 155347.19999999987,
      "d": 160.7039999999979,
      "v": 90
    },
    {
      "midi": 42,
      "hit": false,
      "t": 155347.20000000185,
      "d": 8.928000000014435,
      "v": 84
    },
    {
      "midi": 63,
      "hit": false,
      "t": 155454.33599999908,
      "d": 35.711999999999534,
      "v": 70
    },
    {
      "midi": 60,
      "hit": false,
      "t": 155454.33599999908,
      "d": 35.711999999999534,
      "v": 80
    },
    {
      "midi": 75,
      "hit": false,
      "t": 155561.47199999908,
      "d": 35.711999999999534,
      "v": 80
    },
    {
      "midi": 46,
      "hit": false,
      "t": 155561.4719999992,
      "d": 196.41599999999744,
      "v": 110
    },
    {
      "midi": 60,
      "hit": false,
      "t": 155561.47199999986,
      "d": 142.84799999999814,
      "v": 90
    },
    {
      "midi": 46,
      "hit": false,
      "t": 155561.47200000187,
      "d": 8.928000000014435,
      "v": 70
    },
    {
      "midi": 40,
      "hit": false,
      "t": 155561.47200000187,
      "d": 8.928000000014435,
      "v": 112
    },
    {
      "midi": 87,
      "hit": false,
      "t": 155668.60799999908,
      "d": 35.711999999999534,
      "v": 60
    },
    {
      "midi": 63,
      "hit": false,
      "t": 155775.74399999907,
      "d": 35.711999999999534,
      "v": 70
    },
    {
      "midi": 60,
      "hit": false,
      "t": 155775.74399999907,
      "d": 35.711999999999534,
      "v": 80
    },
    {
      "midi": 48,
      "hit": false,
      "t": 155775.7439999992,
      "d": 196.41599999999744,
      "v": 110
    },
    {
      "midi": 67,
      "hit": false,
      "t": 155775.74399999986,
      "d": 142.84799999999814,
      "v": 96
    },
    {
      "midi": 42,
      "hit": false,
      "t": 155775.7440000019,
      "d": 8.928000000014435,
      "v": 84
    },
    {
      "midi": 63,
      "hit": false,
      "t": 155882.87999999907,
      "d": 35.711999999999534,
      "v": 70
    },
    {
      "midi": 60,
      "hit": false,
      "t": 155882.87999999907,
      "d": 35.711999999999534,
      "v": 80
    },
    {
      "midi": 74,
      "hit": false,
      "t": 155990.01599999907,
      "d": 35.711999999999534,
      "v": 80
    },
    {
      "midi": 43,
      "hit": false,
      "t": 155990.0159999992,
      "d": 428.5439999999944,
      "v": 110
    },
    {
      "midi": 46,
      "hit": false,
      "t": 155990.01600000192,
      "d": 8.928000000014435,
      "v": 70
    },
    {
      "midi": 36,
      "hit": false,
      "t": 155990.01600000192,
      "d": 8.928000000014435,
      "v": 112
    },
    {
      "midi": 86,
      "hit": false,
      "t": 156097.15199999907,
      "d": 35.711999999999534,
      "v": 60
    },
    {
      "midi": 53,
      "hit": false,
      "t": 156097.15199999986,
      "d": 303.55199999999604,
      "v": 100
    },
    {
      "midi": 62,
      "hit": false,
      "t": 156204.28799999907,
      "d": 35.711999999999534,
      "v": 70
    },
    {
      "midi": 58,
      "hit": false,
      "t": 156204.28799999907,
      "d": 35.711999999999534,
      "v": 80
    },
    {
      "midi": 42,
      "hit": false,
      "t": 156204.28800000195,
      "d": 8.928000000014435,
      "v": 84
    },
    {
      "midi": 74,
      "hit": false,
      "t": 156311.42399999907,
      "d": 35.711999999999534,
      "v": 80
    },
    {
      "midi": 86,
      "hit": false,
      "t": 156418.55999999907,
      "d": 35.711999999999534,
      "v": 60
    },
    {
      "midi": 55,
      "hit": false,
      "t": 156418.55999999985,
      "d": 1428.4800000000105,
      "v": 117
    },
    {
      "midi": 46,
      "hit": false,
      "t": 156418.56000000198,
      "d": 8.928000000014435,
      "v": 70
    },
    {
      "midi": 40,
      "hit": false,
      "t": 156418.56000000198,
      "d": 8.928000000014435,
      "v": 112
    },
    {
      "midi": 62,
      "hit": false,
      "t": 156525.69599999906,
      "d": 35.711999999999534,
      "v": 70
    },
    {
      "midi": 58,
      "hit": false,
      "t": 156525.69599999906,
      "d": 35.711999999999534,
      "v": 80
    },
    {
      "midi": 74,
      "hit": false,
      "t": 156632.83199999906,
      "d": 35.711999999999534,
      "v": 80
    },
    {
      "midi": 42,
      "hit": false,
      "t": 156632.832000002,
      "d": 8.928000000014435,
      "v": 84
    },
    {
      "midi": 86,
      "hit": false,
      "t": 156739.96799999906,
      "d": 35.711999999999534,
      "v": 60
    },
    {
      "midi": 43,
      "hit": false,
      "t": 156739.96799999918,
      "d": 89.27999999999884,
      "v": 110
    },
    {
      "midi": 62,
      "hit": false,
      "t": 156847.10399999906,
      "d": 35.711999999999534,
      "v": 70
    },
    {
      "midi": 58,
      "hit": false,
      "t": 156847.10399999906,
      "d": 35.711999999999534,
      "v": 80
    },
    {
      "midi": 43,
      "hit": false,
      "t": 156847.10399999918,
      "d": 624.9599999999919,
      "v": 110
    },
    {
      "midi": 46,
      "hit": false,
      "t": 156847.10400000203,
      "d": 8.928000000014435,
      "v": 70
    },
    {
      "midi": 36,
      "hit": false,
      "t": 156847.10400000203,
      "d": 8.928000000014435,
      "v": 112
    },
    {
      "midi": 74,
      "hit": false,
      "t": 156954.23999999906,
      "d": 35.711999999999534,
      "v": 80
    },
    {
      "midi": 86,
      "hit": false,
      "t": 157061.37599999906,
      "d": 35.711999999999534,
      "v": 60
    },
    {
      "midi": 62,
      "hit": false,
      "t": 157061.37599999952,
      "d": 71.42399999999907,
      "v": 110
    },
    {
      "midi": 58,
      "hit": false,
      "t": 157061.37599999952,
      "d": 71.42399999999907,
      "v": 100
    },
    {
      "midi": 55,
      "hit": false,
      "t": 157061.37599999952,
      "d": 71.42399999999907,
      "v": 100
    },
    {
      "midi": 42,
      "hit": false,
      "t": 157061.37600000206,
      "d": 8.928000000014435,
      "v": 84
    },
    {
      "midi": 62,
      "hit": false,
      "t": 157168.51199999906,
      "d": 35.711999999999534,
      "v": 70
    },
    {
      "midi": 58,
      "hit": false,
      "t": 157168.51199999906,
      "d": 35.711999999999534,
      "v": 80
    },
    {
      "midi": 74,
      "hit": false,
      "t": 157275.64799999906,
      "d": 35.711999999999534,
      "v": 80
    },
    {
      "midi": 46,
      "hit": false,
      "t": 157275.64800000208,
      "d": 8.928000000014435,
      "v": 70
    },
    {
      "midi": 40,
      "hit": false,
      "t": 157275.64800000208,
      "d": 8.928000000014435,
      "v": 112
    },
    {
      "midi": 86,
      "hit": false,
      "t": 157382.78399999905,
      "d": 35.711999999999534,
      "v": 60
    },
    {
      "midi": 62,
      "hit": false,
      "t": 157382.78399999952,
      "d": 71.42399999999907,
      "v": 110
    },
    {
      "midi": 58,
      "hit": false,
      "t": 157382.78399999952,
      "d": 71.42399999999907,
      "v": 100
    },
    {
      "midi": 55,
      "hit": false,
      "t": 157382.78399999952,
      "d": 71.42399999999907,
      "v": 100
    },
    {
      "midi": 62,
      "hit": false,
      "t": 157489.91999999905,
      "d": 35.711999999999534,
      "v": 70
    },
    {
      "midi": 58,
      "hit": false,
      "t": 157489.91999999905,
      "d": 35.711999999999534,
      "v": 80
    },
    {
      "midi": 46,
      "hit": false,
      "t": 157489.91999999917,
      "d": 196.41599999999744,
      "v": 110
    },
    {
      "midi": 42,
      "hit": false,
      "t": 157489.9200000021,
      "d": 8.928000000014435,
      "v": 84
    },
    {
      "midi": 62,
      "hit": false,
      "t": 157597.05599999905,
      "d": 35.711999999999534,
      "v": 70
    },
    {
      "midi": 58,
      "hit": false,
      "t": 157597.05599999905,
      "d": 35.711999999999534,
      "v": 80
    },
    {
      "midi": 74,
      "hit": false,
      "t": 157704.19199999905,
      "d": 35.711999999999534,
      "v": 80
    },
    {
      "midi": 43,
      "hit": false,
      "t": 157704.19199999917,
      "d": 428.5439999999944,
      "v": 110
    },
    {
      "midi": 65,
      "hit": false,
      "t": 157704.19200000024,
      "d": 303.55199999999604,
      "v": 87
    },
    {
      "midi": 60,
      "hit": false,
      "t": 157704.19200000024,
      "d": 303.55199999999604,
      "v": 67
    },
    {
      "midi": 46,
      "hit": false,
      "t": 157704.19200000213,
      "d": 8.928000000014435,
      "v": 70
    },
    {
      "midi": 36,
      "hit": false,
      "t": 157704.19200000213,
      "d": 8.928000000014435,
      "v": 112
    },
    {
      "midi": 86,
      "hit": false,
      "t": 157811.32799999905,
      "d": 35.711999999999534,
      "v": 60
    },
    {
      "midi": 62,
      "hit": false,
      "t": 157918.46399999905,
      "d": 35.711999999999534,
      "v": 70
    },
    {
      "midi": 58,
      "hit": false,
      "t": 157918.46399999905,
      "d": 35.711999999999534,
      "v": 80
    },
    {
      "midi": 42,
      "hit": false,
      "t": 157918.46400000216,
      "d": 8.928000000014435,
      "v": 84
    },
    {
      "midi": 74,
      "hit": false,
      "t": 158025.59999999905,
      "d": 35.711999999999534,
      "v": 80
    },
    {
      "midi": 86,
      "hit": false,
      "t": 158132.73599999904,
      "d": 35.711999999999534,
      "v": 60
    },
    {
      "midi": 67,
      "hit": false,
      "t": 158132.73600000024,
      "d": 1285.6320000000123,
      "v": 110
    },
    {
      "midi": 62,
      "hit": false,
      "t": 158132.73600000024,
      "d": 1285.6320000000123,
      "v": 90
    },
    {
      "midi": 46,
      "hit": false,
      "t": 158132.7360000022,
      "d": 8.928000000014435,
      "v": 70
    },
    {
      "midi": 40,
      "hit": false,
      "t": 158132.7360000022,
      "d": 8.928000000014435,
      "v": 112
    },
    {
      "midi": 62,
      "hit": false,
      "t": 158239.87199999904,
      "d": 35.711999999999534,
      "v": 70
    },
    {
      "midi": 58,
      "hit": false,
      "t": 158239.87199999904,
      "d": 35.711999999999534,
      "v": 80
    },
    {
      "midi": 74,
      "hit": false,
      "t": 158347.00799999904,
      "d": 35.711999999999534,
      "v": 80
    },
    {
      "midi": 42,
      "hit": false,
      "t": 158347.0080000022,
      "d": 8.928000000014435,
      "v": 84
    },
    {
      "midi": 86,
      "hit": false,
      "t": 158454.14399999904,
      "d": 35.711999999999534,
      "v": 60
    },
    {
      "midi": 43,
      "hit": false,
      "t": 158454.14399999916,
      "d": 89.27999999999884,
      "v": 110
    },
    {
      "midi": 62,
      "hit": false,
      "t": 158561.27999999904,
      "d": 35.711999999999534,
      "v": 70
    },
    {
      "midi": 58,
      "hit": false,
      "t": 158561.27999999904,
      "d": 35.711999999999534,
      "v": 80
    },
    {
      "midi": 43,
      "hit": false,
      "t": 158561.27999999915,
      "d": 410.68799999999464,
      "v": 110
    },
    {
      "midi": 65,
      "hit": false,
      "t": 158561.2799999995,
      "d": 71.42399999999907,
      "v": 110
    },
    {
      "midi": 60,
      "hit": false,
      "t": 158561.2799999995,
      "d": 71.42399999999907,
      "v": 100
    },
    {
      "midi": 46,
      "hit": false,
      "t": 158561.28000000224,
      "d": 8.928000000014435,
      "v": 70
    },
    {
      "midi": 36,
      "hit": false,
      "t": 158561.28000000224,
      "d": 8.928000000014435,
      "v": 112
    },
    {
      "midi": 74,
      "hit": false,
      "t": 158668.41599999904,
      "d": 35.711999999999534,
      "v": 80
    },
    {
      "midi": 86,
      "hit": false,
      "t": 158775.55199999904,
      "d": 35.711999999999534,
      "v": 60
    },
    {
      "midi": 67,
      "hit": false,
      "t": 158775.5519999995,
      "d": 71.42399999999907,
      "v": 110
    },
    {
      "midi": 62,
      "hit": false,
      "t": 158775.5519999995,
      "d": 71.42399999999907,
      "v": 100
    },
    {
      "midi": 42,
      "hit": false,
      "t": 158775.55200000227,
      "d": 8.928000000014435,
      "v": 84
    },
    {
      "midi": 62,
      "hit": false,
      "t": 158882.68799999903,
      "d": 35.711999999999534,
      "v": 70
    },
    {
      "midi": 58,
      "hit": false,
      "t": 158882.68799999903,
      "d": 35.711999999999534,
      "v": 80
    },
    {
      "midi": 40,
      "hit": false,
      "t": 158882.6880000023,
      "d": 8.928000000014435,
      "v": 56
    },
    {
      "midi": 40,
      "hit": false,
      "t": 158918.40000000232,
      "d": 8.928000000014435,
      "v": 56
    },
    {
      "midi": 74,
      "hit": false,
      "t": 158989.82399999903,
      "d": 35.711999999999534,
      "v": 80
    },
    {
      "midi": 46,
      "hit": false,
      "t": 158989.82399999915,
      "d": 196.41599999999744,
      "v": 110
    },
    {
      "midi": 70,
      "hit": false,
      "t": 158989.8239999995,
      "d": 178.55999999999767,
      "v": 110
    },
    {
      "midi": 65,
      "hit": false,
      "t": 158989.8239999995,
      "d": 178.55999999999767,
      "v": 110
    },
    {
      "midi": 46,
      "hit": false,
      "t": 158989.82400000235,
      "d": 8.928000000014435,
      "v": 70
    },
    {
      "midi": 40,
      "hit": false,
      "t": 158989.82400000235,
      "d": 8.928000000014435,
      "v": 84
    },
    {
      "midi": 86,
      "hit": false,
      "t": 159096.95999999903,
      "d": 35.711999999999534,
      "v": 60
    },
    {
      "midi": 62,
      "hit": false,
      "t": 159204.09599999903,
      "d": 35.711999999999534,
      "v": 70
    },
    {
      "midi": 58,
      "hit": false,
      "t": 159204.09599999903,
      "d": 35.711999999999534,
      "v": 80
    },
    {
      "midi": 43,
      "hit": false,
      "t": 159204.09599999915,
      "d": 196.41599999999744,
      "v": 110
    },
    {
      "midi": 65,
      "hit": false,
      "t": 159204.0959999995,
      "d": 71.42399999999907,
      "v": 110
    },
    {
      "midi": 60,
      "hit": false,
      "t": 159204.0959999995,
      "d": 71.42399999999907,
      "v": 100
    },
    {
      "midi": 42,
      "hit": false,
      "t": 159204.09600000238,
      "d": 8.928000000014435,
      "v": 84
    },
    {
      "midi": 40,
      "hit": false,
      "t": 159204.09600000238,
      "d": 8.928000000014435,
      "v": 112
    },
    {
      "midi": 62,
      "hit": false,
      "t": 159311.23199999903,
      "d": 35.711999999999534,
      "v": 70
    },
    {
      "midi": 58,
      "hit": false,
      "t": 159311.23199999903,
      "d": 35.711999999999534,
      "v": 80
    },
    {
      "midi": 67,
      "hit": false,
      "t": 159311.2319999995,
      "d": 71.42399999999907,
      "v": 110
    },
    {
      "midi": 62,
      "hit": false,
      "t": 159311.2319999995,
      "d": 71.42399999999907,
      "v": 110
    },
    {
      "midi": 40,
      "hit": false,
      "t": 159311.2320000024,
      "d": 8.928000000014435,
      "v": 112
    },
    {
      "midi": 75,
      "hit": false,
      "t": 159418.36799999903,
      "d": 35.711999999999534,
      "v": 80
    },
    {
      "midi": 44,
      "hit": false,
      "t": 159418.36799999914,
      "d": 428.5439999999944,
      "v": 110
    },
    {
      "midi": 46,
      "hit": false,
      "t": 159418.36800000243,
      "d": 8.928000000014435,
      "v": 70
    },
    {
      "midi": 36,
      "hit": false,
      "t": 159418.36800000243,
      "d": 8.928000000014435,
      "v": 112
    },
    {
      "midi": 87,
      "hit": false,
      "t": 159525.50399999903,
      "d": 35.711999999999534,
      "v": 60
    },
    {
      "midi": 63,
      "hit": false,
      "t": 159632.63999999902,
      "d": 35.711999999999534,
      "v": 70
    },
    {
      "midi": 60,
      "hit": false,
      "t": 159632.63999999902,
      "d": 35.711999999999534,
      "v": 80
    },
    {
      "midi": 51,
      "hit": false,
      "t": 159632.63999999987,
      "d": 178.55999999999767,
      "v": 95
    },
    {
      "midi": 42,
      "hit": false,
      "t": 159632.64000000246,
      "d": 8.928000000014435,
      "v": 84
    },
    {
      "midi": 75,
      "hit": false,
      "t": 159739.77599999902,
      "d": 35.711999999999534,
      "v": 80
    },
    {
      "midi": 87,
      "hit": false,
      "t": 159846.91199999902,
      "d": 35.711999999999534,
      "v": 60
    },
    {
      "midi": 48,
      "hit": false,
      "t": 159846.91199999987,
      "d": 160.7039999999979,
      "v": 112
    },
    {
      "midi": 46,
      "hit": false,
      "t": 159846.91200000249,
      "d": 8.928000000014435,
      "v": 70
    },
    {
      "midi": 40,
      "hit": false,
      "t": 159846.91200000249,
      "d": 8.928000000014435,
      "v": 112
    },
    {
      "midi": 63,
      "hit": false,
      "t": 159954.04799999902,
      "d": 35.711999999999534,
      "v": 70
    },
    {
      "midi": 60,
      "hit": false,
      "t": 159954.04799999902,
      "d": 35.711999999999534,
      "v": 80
    },
    {
      "midi": 75,
      "hit": false,
      "t": 160061.18399999902,
      "d": 35.711999999999534,
      "v": 80
    },
    {
      "midi": 51,
      "hit": false,
      "t": 160061.18399999986,
      "d": 178.55999999999767,
      "v": 75
    },
    {
      "midi": 42,
      "hit": false,
      "t": 160061.1840000025,
      "d": 8.928000000014435,
      "v": 84
    },
    {
      "midi": 87,
      "hit": false,
      "t": 160168.31999999902,
      "d": 35.711999999999534,
      "v": 60
    },
    {
      "midi": 63,
      "hit": false,
      "t": 160275.45599999902,
      "d": 35.711999999999534,
      "v": 70
    },
    {
      "midi": 60,
      "hit": false,
      "t": 160275.45599999902,
      "d": 35.711999999999534,
      "v": 80
    },
    {
      "midi": 44,
      "hit": false,
      "t": 160275.45599999913,
      "d": 321.4079999999958,
      "v": 110
    },
    {
      "midi": 55,
      "hit": false,
      "t": 160275.45599999986,
      "d": 160.7039999999979,
      "v": 112
    },
    {
      "midi": 46,
      "hit": false,
      "t": 160275.45600000254,
      "d": 8.928000000014435,
      "v": 70
    },
    {
      "midi": 36,
      "hit": false,
      "t": 160275.45600000254,
      "d": 8.928000000014435,
      "v": 112
    },
    {
      "midi": 75,
      "hit": false,
      "t": 160382.59199999901,
      "d": 35.711999999999534,
      "v": 80
    },
    {
      "midi": 87,
      "hit": false,
      "t": 160489.727999999,
      "d": 35.711999999999534,
      "v": 60
    },
    {
      "midi": 53,
      "hit": false,
      "t": 160489.72799999986,
      "d": 624.9599999999919,
      "v": 95
    },
    {
      "midi": 42,
      "hit": false,
      "t": 160489.72800000256,
      "d": 8.928000000014435,
      "v": 84
    },
    {
      "midi": 63,
      "hit": false,
      "t": 160596.863999999,
      "d": 35.711999999999534,
      "v": 70
    },
    {
      "midi": 60,
      "hit": false,
      "t": 160596.863999999,
      "d": 35.711999999999534,
      "v": 80
    },
    {
      "midi": 75,
      "hit": false,
      "t": 160703.999999999,
      "d": 35.711999999999534,
      "v": 80
    },
    {
      "midi": 44,
      "hit": false,
      "t": 160703.99999999913,
      "d": 321.4079999999958,
      "v": 110
    },
    {
      "midi": 46,
      "hit": false,
      "t": 160704.0000000026,
      "d": 8.928000000014435,
      "v": 70
    },
    {
      "midi": 40,
      "hit": false,
      "t": 160704.0000000026,
      "d": 8.928000000014435,
      "v": 112
    },
    {
      "midi": 87,
      "hit": false,
      "t": 160811.135999999,
      "d": 35.711999999999534,
      "v": 60
    },
    {
      "midi": 63,
      "hit": false,
      "t": 160918.271999999,
      "d": 35.711999999999534,
      "v": 70
    },
    {
      "midi": 60,
      "hit": false,
      "t": 160918.271999999,
      "d": 35.711999999999534,
      "v": 80
    },
    {
      "midi": 77,
      "hit": false,
      "t": 160918.2719999995,
      "d": 71.42399999999907,
      "v": 110
    },
    {
      "midi": 72,
      "hit": false,
      "t": 160918.2719999995,
      "d": 71.42399999999907,
      "v": 110
    },
    {
      "midi": 42,
      "hit": false,
      "t": 160918.27200000262,
      "d": 8.928000000014435,
      "v": 84
    },
    {
      "midi": 63,
      "hit": false,
      "t": 161025.407999999,
      "d": 35.711999999999534,
      "v": 70
    },
    {
      "midi": 60,
      "hit": false,
      "t": 161025.407999999,
      "d": 35.711999999999534,
      "v": 80
    },
    {
      "midi": 75,
      "hit": false,
      "t": 161132.543999999,
      "d": 35.711999999999534,
      "v": 80
    },
    {
      "midi": 46,
      "hit": false,
      "t": 161132.54399999912,
      "d": 428.5439999999944,
      "v": 110
    },
    {
      "midi": 75,
      "hit": false,
      "t": 161132.54399999988,
      "d": 1723.1040000000212,
      "v": 70
    },
    {
      "midi": 72,
      "hit": false,
      "t": 161132.54399999988,
      "d": 1723.1040000000212,
      "v": 70
    },
    {
      "midi": 53,
      "hit": false,
      "t": 161132.54400000046,
      "d": 1705.2479999999923,
      "v": 90
    },
    {
      "midi": 48,
      "hit": false,
      "t": 161132.54400000046,
      "d": 1705.2479999999923,
      "v": 90
    },
    {
      "midi": 46,
      "hit": false,
      "t": 161132.54400000264,
      "d": 8.928000000014435,
      "v": 70
    },
    {
      "midi": 36,
      "hit": false,
      "t": 161132.54400000264,
      "d": 8.928000000014435,
      "v": 112
    },
    {
      "midi": 87,
      "hit": false,
      "t": 161239.679999999,
      "d": 35.711999999999534,
      "v": 60
    },
    {
      "midi": 63,
      "hit": false,
      "t": 161346.815999999,
      "d": 35.711999999999534,
      "v": 70
    },
    {
      "midi": 60,
      "hit": false,
      "t": 161346.815999999,
      "d": 35.711999999999534,
      "v": 80
    },
    {
      "midi": 51,
      "hit": false,
      "t": 161346.81599999985,
      "d": 178.55999999999767,
      "v": 76
    },
    {
      "midi": 42,
      "hit": false,
      "t": 161346.81600000267,
      "d": 8.928000000014435,
      "v": 84
    },
    {
      "midi": 75,
      "hit": false,
      "t": 161453.951999999,
      "d": 35.711999999999534,
      "v": 80
    },
    {
      "midi": 87,
      "hit": false,
      "t": 161561.087999999,
      "d": 35.711999999999534,
      "v": 60
    },
    {
      "midi": 48,
      "hit": false,
      "t": 161561.08799999984,
      "d": 160.7039999999979,
      "v": 76
    },
    {
      "midi": 46,
      "hit": false,
      "t": 161561.0880000027,
      "d": 8.928000000014435,
      "v": 70
    },
    {
      "midi": 40,
      "hit": false,
      "t": 161561.0880000027,
      "d": 8.928000000014435,
      "v": 112
    },
    {
      "midi": 63,
      "hit": false,
      "t": 161668.223999999,
      "d": 35.711999999999534,
      "v": 70
    },
    {
      "midi": 60,
      "hit": false,
      "t": 161668.223999999,
      "d": 35.711999999999534,
      "v": 80
    },
    {
      "midi": 75,
      "hit": false,
      "t": 161775.359999999,
      "d": 35.711999999999534,
      "v": 80
    },
    {
      "midi": 51,
      "hit": false,
      "t": 161775.35999999984,
      "d": 178.55999999999767,
      "v": 112
    },
    {
      "midi": 42,
      "hit": false,
      "t": 161775.36000000272,
      "d": 8.928000000014435,
      "v": 84
    },
    {
      "midi": 87,
      "hit": false,
      "t": 161882.495999999,
      "d": 35.711999999999534,
      "v": 60
    },
    {
      "midi": 63,
      "hit": false,
      "t": 161989.631999999,
      "d": 35.711999999999534,
      "v": 70
    },
    {
      "midi": 60,
      "hit": false,
      "t": 161989.631999999,
      "d": 35.711999999999534,
      "v": 80
    },
    {
      "midi": 46,
      "hit": false,
      "t": 161989.6319999991,
      "d": 321.4079999999958,
      "v": 110
    },
    {
      "midi": 55,
      "hit": false,
      "t": 161989.63199999984,
      "d": 232.12799999999697,
      "v": 105
    },
    {
      "midi": 46,
      "hit": false,
      "t": 161989.63200000275,
      "d": 8.928000000014435,
      "v": 70
    },
    {
      "midi": 36,
      "hit": false,
      "t": 161989.63200000275,
      "d": 8.928000000014435,
      "v": 112
    },
    {
      "midi": 75,
      "hit": false,
      "t": 162096.767999999,
      "d": 35.711999999999534,
      "v": 80
    },
    {
      "midi": 87,
      "hit": false,
      "t": 162203.903999999,
      "d": 35.711999999999534,
      "v": 60
    },
    {
      "midi": 42,
      "hit": false,
      "t": 162203.90400000277,
      "d": 8.928000000014435,
      "v": 84
    },
    {
      "midi": 63,
      "hit": false,
      "t": 162311.039999999,
      "d": 35.711999999999534,
      "v": 70
    },
    {
      "midi": 60,
      "hit": false,
      "t": 162311.039999999,
      "d": 35.711999999999534,
      "v": 80
    },
    {
      "midi": 53,
      "hit": false,
      "t": 162311.03999999983,
      "d": 160.7039999999979,
      "v": 112
    },
    {
      "midi": 75,
      "hit": false,
      "t": 162418.175999999,
      "d": 35.711999999999534,
      "v": 80
    },
    {
      "midi": 43,
      "hit": false,
      "t": 162418.1759999991,
      "d": 178.55999999999767,
      "v": 110
    },
    {
      "midi": 46,
      "hit": false,
      "t": 162418.1760000028,
      "d": 8.928000000014435,
      "v": 70
    },
    {
      "midi": 40,
      "hit": false,
      "t": 162418.1760000028,
      "d": 8.928000000014435,
      "v": 112
    },
    {
      "midi": 87,
      "hit": false,
      "t": 162525.311999999,
      "d": 35.711999999999534,
      "v": 60
    },
    {
      "midi": 51,
      "hit": false,
      "t": 162525.31199999983,
      "d": 160.7039999999979,
      "v": 85
    },
    {
      "midi": 63,
      "hit": false,
      "t": 162632.44799999899,
      "d": 35.711999999999534,
      "v": 70
    },
    {
      "midi": 60,
      "hit": false,
      "t": 162632.44799999899,
      "d": 35.711999999999534,
      "v": 80
    },
    {
      "midi": 46,
      "hit": false,
      "t": 162632.4479999991,
      "d": 178.55999999999767,
      "v": 110
    },
    {
      "midi": 42,
      "hit": false,
      "t": 162632.44800000283,
      "d": 8.928000000014435,
      "v": 84
    },
    {
      "midi": 63,
      "hit": false,
      "t": 162739.58399999898,
      "d": 35.711999999999534,
      "v": 70
    },
    {
      "midi": 60,
      "hit": false,
      "t": 162739.58399999898,
      "d": 35.711999999999534,
      "v": 80
    },
    {
      "midi": 75,
      "hit": false,
      "t": 162846.71999999898,
      "d": 35.711999999999534,
      "v": 80
    },
    {
      "midi": 48,
      "hit": false,
      "t": 162846.7199999991,
      "d": 428.5439999999944,
      "v": 110
    },
    {
      "midi": 50,
      "hit": false,
      "t": 162846.71999999983,
      "d": 160.7039999999979,
      "v": 85
    },
    {
      "midi": 84,
      "hit": false,
      "t": 162846.71999999988,
      "d": 1705.2480000000214,
      "v": 80
    },
    {
      "midi": 79,
      "hit": false,
      "t": 162846.72000000047,
      "d": 3428.352000001003,
      "v": 80
    },
    {
      "midi": 57,
      "hit": false,
      "t": 162846.72000000285,
      "d": 8.928000000014435,
      "v": 84
    },
    {
      "midi": 42,
      "hit": false,
      "t": 162846.72000000285,
      "d": 8.928000000014435,
      "v": 112
    },
    {
      "midi": 36,
      "hit": false,
      "t": 162846.72000000285,
      "d": 8.928000000014435,
      "v": 112
    },
    {
      "midi": 87,
      "hit": false,
      "t": 162953.85599999898,
      "d": 35.711999999999534,
      "v": 60
    },
    {
      "midi": 63,
      "hit": false,
      "t": 163060.99199999898,
      "d": 35.711999999999534,
      "v": 70
    },
    {
      "midi": 60,
      "hit": false,
      "t": 163060.99199999898,
      "d": 35.711999999999534,
      "v": 80
    },
    {
      "midi": 48,
      "hit": false,
      "t": 163060.99199999982,
      "d": 1428.4799999999814,
      "v": 110
    },
    {
      "midi": 75,
      "hit": false,
      "t": 163060.99200000026,
      "d": 26.784000000014203,
      "v": 127
    },
    {
      "midi": 67,
      "hit": false,
      "t": 163060.99200000026,
      "d": 26.784000000014203,
      "v": 127
    },
    {
      "midi": 46,
      "hit": false,
      "t": 163060.99200000288,
      "d": 8.928000000014435,
      "v": 112
    },
    {
      "midi": 75,
      "hit": false,
      "t": 163168.12799999898,
      "d": 35.711999999999534,
      "v": 80
    },
    {
      "midi": 72,
      "hit": false,
      "t": 163168.1280000003,
      "d": 35.711999999999534,
      "v": 100
    },
    {
      "midi": 67,
      "hit": false,
      "t": 163168.1280000003,
      "d": 35.711999999999534,
      "v": 100
    },
    {
      "midi": 87,
      "hit": false,
      "t": 163275.26399999898,
      "d": 35.711999999999534,
      "v": 60
    },
    {
      "midi": 42,
      "hit": false,
      "t": 163275.2640000029,
      "d": 8.928000000014435,
      "v": 112
    },
    {
      "midi": 40,
      "hit": false,
      "t": 163275.2640000029,
      "d": 8.928000000014435,
      "v": 112
    },
    {
      "midi": 63,
      "hit": false,
      "t": 163382.39999999898,
      "d": 35.711999999999534,
      "v": 70
    },
    {
      "midi": 60,
      "hit": false,
      "t": 163382.39999999898,
      "d": 35.711999999999534,
      "v": 80
    },
    {
      "midi": 75,
      "hit": false,
      "t": 163382.40000000029,
      "d": 26.784000000014203,
      "v": 127
    },
    {
      "midi": 67,
      "hit": false,
      "t": 163382.40000000029,
      "d": 26.784000000014203,
      "v": 127
    },
    {
      "midi": 75,
      "hit": false,
      "t": 163489.53599999897,
      "d": 35.711999999999534,
      "v": 80
    },
    {
      "midi": 72,
      "hit": false,
      "t": 163489.5360000003,
      "d": 35.711999999999534,
      "v": 100
    },
    {
      "midi": 67,
      "hit": false,
      "t": 163489.5360000003,
      "d": 35.711999999999534,
      "v": 100
    },
    {
      "midi": 46,
      "hit": false,
      "t": 163489.53600000293,
      "d": 8.928000000014435,
      "v": 112
    },
    {
      "midi": 87,
      "hit": false,
      "t": 163596.67199999897,
      "d": 35.711999999999534,
      "v": 60
    },
    {
      "midi": 63,
      "hit": false,
      "t": 163703.80799999897,
      "d": 35.711999999999534,
      "v": 70
    },
    {
      "midi": 60,
      "hit": false,
      "t": 163703.80799999897,
      "d": 35.711999999999534,
      "v": 80
    },
    {
      "midi": 48,
      "hit": false,
      "t": 163703.8079999991,
      "d": 428.5439999999944,
      "v": 110
    },
    {
      "midi": 75,
      "hit": false,
      "t": 163703.8080000003,
      "d": 26.784000000014203,
      "v": 127
    },
    {
      "midi": 67,
      "hit": false,
      "t": 163703.8080000003,
      "d": 26.784000000014203,
      "v": 127
    },
    {
      "midi": 42,
      "hit": false,
      "t": 163703.80800000296,
      "d": 8.928000000014435,
      "v": 112
    },
    {
      "midi": 36,
      "hit": false,
      "t": 163703.80800000296,
      "d": 8.928000000014435,
      "v": 112
    },
    {
      "midi": 75,
      "hit": false,
      "t": 163810.94399999897,
      "d": 35.711999999999534,
      "v": 80
    },
    {
      "midi": 72,
      "hit": false,
      "t": 163810.94400000034,
      "d": 35.711999999999534,
      "v": 100
    },
    {
      "midi": 67,
      "hit": false,
      "t": 163810.94400000034,
      "d": 35.711999999999534,
      "v": 100
    },
    {
      "midi": 87,
      "hit": false,
      "t": 163918.07999999897,
      "d": 35.711999999999534,
      "v": 60
    },
    {
      "midi": 46,
      "hit": false,
      "t": 163918.08000000298,
      "d": 8.928000000014435,
      "v": 112
    },
    {
      "midi": 63,
      "hit": false,
      "t": 164025.21599999897,
      "d": 35.711999999999534,
      "v": 70
    },
    {
      "midi": 60,
      "hit": false,
      "t": 164025.21599999897,
      "d": 35.711999999999534,
      "v": 80
    },
    {
      "midi": 75,
      "hit": false,
      "t": 164025.21600000034,
      "d": 26.784000000014203,
      "v": 127
    },
    {
      "midi": 67,
      "hit": false,
      "t": 164025.21600000034,
      "d": 26.784000000014203,
      "v": 127
    },
    {
      "midi": 75,
      "hit": false,
      "t": 164132.35199999897,
      "d": 35.711999999999534,
      "v": 80
    },
    {
      "midi": 72,
      "hit": false,
      "t": 164132.35200000036,
      "d": 35.711999999999534,
      "v": 100
    },
    {
      "midi": 67,
      "hit": false,
      "t": 164132.35200000036,
      "d": 35.711999999999534,
      "v": 100
    },
    {
      "midi": 42,
      "hit": false,
      "t": 164132.352000003,
      "d": 8.928000000014435,
      "v": 112
    },
    {
      "midi": 40,
      "hit": false,
      "t": 164132.352000003,
      "d": 8.928000000014435,
      "v": 112
    },
    {
      "midi": 87,
      "hit": false,
      "t": 164239.48799999896,
      "d": 35.711999999999534,
      "v": 60
    },
    {
      "midi": 46,
      "hit": false,
      "t": 164239.48799999908,
      "d": 98.20800000001327,
      "v": 110
    },
    {
      "midi": 63,
      "hit": false,
      "t": 164346.62399999896,
      "d": 35.711999999999534,
      "v": 70
    },
    {
      "midi": 60,
      "hit": false,
      "t": 164346.62399999896,
      "d": 35.711999999999534,
      "v": 80
    },
    {
      "midi": 48,
      "hit": false,
      "t": 164346.6239999991,
      "d": 196.41599999999744,
      "v": 110
    },
    {
      "midi": 75,
      "hit": false,
      "t": 164346.62400000036,
      "d": 26.784000000014203,
      "v": 97
    },
    {
      "midi": 67,
      "hit": false,
      "t": 164346.62400000036,
      "d": 26.784000000014203,
      "v": 97
    },
    {
      "midi": 46,
      "hit": false,
      "t": 164346.62400000304,
      "d": 8.928000000014435,
      "v": 112
    },
    {
      "midi": 63,
      "hit": false,
      "t": 164453.75999999896,
      "d": 35.711999999999534,
      "v": 70
    },
    {
      "midi": 60,
      "hit": false,
      "t": 164453.75999999896,
      "d": 35.711999999999534,
      "v": 80
    },
    {
      "midi": 41,
      "hit": false,
      "t": 164560.8959999991,
      "d": 428.5439999999944,
      "v": 110
    },
    {
      "midi": 69,
      "hit": false,
      "t": 164560.8960000004,
      "d": 1607.0400000000081,
      "v": 90
    },
    {
      "midi": 65,
      "hit": false,
      "t": 164560.8960000004,
      "d": 1607.0400000000081,
      "v": 50
    },
    {
      "midi": 42,
      "hit": false,
      "t": 164560.89600000306,
      "d": 8.928000000014435,
      "v": 112
    },
    {
      "midi": 36,
      "hit": false,
      "t": 164560.89600000306,
      "d": 8.928000000014435,
      "v": 112
    },
    {
      "midi": 72,
      "hit": false,
      "t": 164775.1679999995,
      "d": 71.42399999999907,
      "v": 70
    },
    {
      "midi": 60,
      "hit": false,
      "t": 164775.1679999995,
      "d": 71.42399999999907,
      "v": 110
    },
    {
      "midi": 46,
      "hit": false,
      "t": 164775.1680000031,
      "d": 8.928000000014435,
      "v": 112
    },
    {
      "midi": 72,
      "hit": false,
      "t": 164882.3039999995,
      "d": 71.42399999999907,
      "v": 70
    },
    {
      "midi": 60,
      "hit": false,
      "t": 164882.3039999995,
      "d": 71.42399999999907,
      "v": 110
    },
    {
      "midi": 75,
      "hit": false,
      "t": 164989.4399999995,
      "d": 71.42399999999907,
      "v": 80
    },
    {
      "midi": 63,
      "hit": false,
      "t": 164989.4399999995,
      "d": 71.42399999999907,
      "v": 120
    },
    {
      "midi": 42,
      "hit": false,
      "t": 164989.44000000312,
      "d": 8.928000000014435,
      "v": 112
    },
    {
      "midi": 40,
      "hit": false,
      "t": 164989.44000000312,
      "d": 8.928000000014435,
      "v": 112
    },
    {
      "midi": 77,
      "hit": false,
      "t": 165096.5759999995,
      "d": 142.84799999999814,
      "v": 80
    },
    {
      "midi": 65,
      "hit": false,
      "t": 165096.5759999995,
      "d": 142.84799999999814,
      "v": 120
    },
    {
      "midi": 46,
      "hit": false,
      "t": 165203.71200000314,
      "d": 8.928000000014435,
      "v": 112
    },
    {
      "midi": 79,
      "hit": false,
      "t": 165310.8479999995,
      "d": 214.2719999999972,
      "v": 90
    },
    {
      "midi": 67,
      "hit": false,
      "t": 165310.8479999995,
      "d": 214.2719999999972,
      "v": 127
    },
    {
      "midi": 41,
      "hit": false,
      "t": 165417.9839999991,
      "d": 196.41599999999744,
      "v": 110
    },
    {
      "midi": 42,
      "hit": false,
      "t": 165417.98400000317,
      "d": 8.928000000014435,
      "v": 112
    },
    {
      "midi": 36,
      "hit": false,
      "t": 165417.98400000317,
      "d": 8.928000000014435,
      "v": 112
    },
    {
      "midi": 43,
      "hit": false,
      "t": 165632.2559999991,
      "d": 196.41599999999744,
      "v": 110
    },
    {
      "midi": 72,
      "hit": false,
      "t": 165632.2559999995,
      "d": 205.34400000001187,
      "v": 70
    },
    {
      "midi": 60,
      "hit": false,
      "t": 165632.2559999995,
      "d": 205.34400000001187,
      "v": 110
    },
    {
      "midi": 46,
      "hit": false,
      "t": 165632.2560000032,
      "d": 8.928000000014435,
      "v": 112
    },
    {
      "midi": 44,
      "hit": false,
      "t": 165846.5279999991,
      "d": 196.41599999999744,
      "v": 110
    },
    {
      "midi": 77,
      "hit": false,
      "t": 165846.52799999953,
      "d": 98.20800000001327,
      "v": 80
    },
    {
      "midi": 65,
      "hit": false,
      "t": 165846.52799999953,
      "d": 98.20800000001327,
      "v": 120
    },
    {
      "midi": 42,
      "hit": false,
      "t": 165846.52800000322,
      "d": 8.928000000014435,
      "v": 112
    },
    {
      "midi": 40,
      "hit": false,
      "t": 165846.52800000322,
      "d": 8.928000000014435,
      "v": 112
    },
    {
      "midi": 75,
      "hit": false,
      "t": 165953.66399999955,
      "d": 205.34400000001187,
      "v": 80
    },
    {
      "midi": 63,
      "hit": false,
      "t": 165953.66399999955,
      "d": 205.34400000001187,
      "v": 120
    },
    {
      "midi": 46,
      "hit": false,
      "t": 166060.7999999991,
      "d": 196.41599999999744,
      "v": 110
    },
    {
      "midi": 46,
      "hit": false,
      "t": 166060.80000000325,
      "d": 8.928000000014435,
      "v": 112
    },
    {
      "midi": 75,
      "hit": false,
      "t": 166275.07199999897,
      "d": 35.711999999999534,
      "v": 80
    },
    {
      "midi": 48,
      "hit": false,
      "t": 166275.07199999908,
      "d": 428.5439999999944,
      "v": 110
    },
    {
      "midi": 84,
      "hit": false,
      "t": 166275.0719999999,
      "d": 1428.4800000000105,
      "v": 80
    },
    {
      "midi": 42,
      "hit": false,
      "t": 166275.07200000327,
      "d": 8.928000000014435,
      "v": 112
    },
    {
      "midi": 36,
      "hit": false,
      "t": 166275.07200000327,
      "d": 8.928000000014435,
      "v": 112
    },
    {
      "midi": 79,
      "hit": false,
      "t": 166284.00000000148,
      "d": 1428.4800000005343,
      "v": 80
    },
    {
      "midi": 87,
      "hit": false,
      "t": 166382.20799999897,
      "d": 35.711999999999534,
      "v": 60
    },
    {
      "midi": 63,
      "hit": false,
      "t": 166489.34399999896,
      "d": 35.711999999999534,
      "v": 70
    },
    {
      "midi": 60,
      "hit": false,
      "t": 166489.34399999896,
      "d": 35.711999999999534,
      "v": 80
    },
    {
      "midi": 75,
      "hit": false,
      "t": 166489.3440000004,
      "d": 26.784000000014203,
      "v": 127
    },
    {
      "midi": 67,
      "hit": false,
      "t": 166489.3440000004,
      "d": 26.784000000014203,
      "v": 127
    },
    {
      "midi": 46,
      "hit": false,
      "t": 166489.3440000033,
      "d": 8.928000000014435,
      "v": 112
    },
    {
      "midi": 75,
      "hit": false,
      "t": 166596.47999999896,
      "d": 35.711999999999534,
      "v": 80
    },
    {
      "midi": 72,
      "hit": false,
      "t": 166596.48000000042,
      "d": 35.711999999999534,
      "v": 100
    },
    {
      "midi": 67,
      "hit": false,
      "t": 166596.48000000042,
      "d": 35.711999999999534,
      "v": 100
    },
    {
      "midi": 87,
      "hit": false,
      "t": 166703.61599999896,
      "d": 35.711999999999534,
      "v": 60
    },
    {
      "midi": 42,
      "hit": false,
      "t": 166703.61600000333,
      "d": 8.928000000014435,
      "v": 112
    },
    {
      "midi": 40,
      "hit": false,
      "t": 166703.61600000333,
      "d": 8.928000000014435,
      "v": 112
    },
    {
      "midi": 63,
      "hit": false,
      "t": 166810.75199999896,
      "d": 35.711999999999534,
      "v": 70
    },
    {
      "midi": 60,
      "hit": false,
      "t": 166810.75199999896,
      "d": 35.711999999999534,
      "v": 80
    },
    {
      "midi": 75,
      "hit": false,
      "t": 166810.75200000042,
      "d": 26.784000000014203,
      "v": 127
    },
    {
      "midi": 67,
      "hit": false,
      "t": 166810.75200000042,
      "d": 26.784000000014203,
      "v": 127
    },
    {
      "midi": 75,
      "hit": false,
      "t": 166917.88799999896,
      "d": 35.711999999999534,
      "v": 80
    },
    {
      "midi": 72,
      "hit": false,
      "t": 166917.88800000044,
      "d": 35.711999999999534,
      "v": 100
    },
    {
      "midi": 67,
      "hit": false,
      "t": 166917.88800000044,
      "d": 35.711999999999534,
      "v": 100
    },
    {
      "midi": 46,
      "hit": false,
      "t": 166917.88800000335,
      "d": 8.928000000014435,
      "v": 112
    },
    {
      "midi": 87,
      "hit": false,
      "t": 167025.02399999896,
      "d": 35.711999999999534,
      "v": 60
    },
    {
      "midi": 63,
      "hit": false,
      "t": 167132.15999999896,
      "d": 35.711999999999534,
      "v": 70
    },
    {
      "midi": 60,
      "hit": false,
      "t": 167132.15999999896,
      "d": 35.711999999999534,
      "v": 80
    },
    {
      "midi": 48,
      "hit": false,
      "t": 167132.15999999907,
      "d": 428.5439999999944,
      "v": 110
    },
    {
      "midi": 75,
      "hit": false,
      "t": 167132.16000000044,
      "d": 26.784000000014203,
      "v": 127
    },
    {
      "midi": 67,
      "hit": false,
      "t": 167132.16000000044,
      "d": 26.784000000014203,
      "v": 127
    },
    {
      "midi": 42,
      "hit": false,
      "t": 167132.16000000338,
      "d": 8.928000000014435,
      "v": 112
    },
    {
      "midi": 36,
      "hit": false,
      "t": 167132.16000000338,
      "d": 8.928000000014435,
      "v": 112
    },
    {
      "midi": 75,
      "hit": false,
      "t": 167239.29599999895,
      "d": 35.711999999999534,
      "v": 80
    },
    {
      "midi": 72,
      "hit": false,
      "t": 167239.29600000047,
      "d": 35.711999999999534,
      "v": 100
    },
    {
      "midi": 67,
      "hit": false,
      "t": 167239.29600000047,
      "d": 35.711999999999534,
      "v": 100
    },
    {
      "midi": 87,
      "hit": false,
      "t": 167346.43199999895,
      "d": 35.711999999999534,
      "v": 60
    },
    {
      "midi": 46,
      "hit": false,
      "t": 167346.4320000034,
      "d": 8.928000000014435,
      "v": 112
    },
    {
      "midi": 63,
      "hit": false,
      "t": 167453.56799999895,
      "d": 35.711999999999534,
      "v": 70
    },
    {
      "midi": 60,
      "hit": false,
      "t": 167453.56799999895,
      "d": 35.711999999999534,
      "v": 80
    },
    {
      "midi": 75,
      "hit": false,
      "t": 167453.56800000046,
      "d": 26.784000000014203,
      "v": 127
    },
    {
      "midi": 67,
      "hit": false,
      "t": 167453.56800000046,
      "d": 26.784000000014203,
      "v": 127
    },
    {
      "midi": 75,
      "hit": false,
      "t": 167560.70399999895,
      "d": 35.711999999999534,
      "v": 80
    },
    {
      "midi": 72,
      "hit": false,
      "t": 167560.7040000005,
      "d": 35.711999999999534,
      "v": 100
    },
    {
      "midi": 67,
      "hit": false,
      "t": 167560.7040000005,
      "d": 35.711999999999534,
      "v": 100
    },
    {
      "midi": 42,
      "hit": false,
      "t": 167560.70400000343,
      "d": 8.928000000014435,
      "v": 112
    },
    {
      "midi": 40,
      "hit": false,
      "t": 167560.70400000343,
      "d": 8.928000000014435,
      "v": 112
    },
    {
      "midi": 87,
      "hit": false,
      "t": 167667.83999999895,
      "d": 35.711999999999534,
      "v": 60
    },
    {
      "midi": 46,
      "hit": false,
      "t": 167667.83999999907,
      "d": 98.20800000001327,
      "v": 110
    },
    {
      "midi": 63,
      "hit": false,
      "t": 167774.97599999895,
      "d": 35.711999999999534,
      "v": 70
    },
    {
      "midi": 60,
      "hit": false,
      "t": 167774.97599999895,
      "d": 35.711999999999534,
      "v": 80
    },
    {
      "midi": 48,
      "hit": false,
      "t": 167774.9759999991,
      "d": 196.41599999999744,
      "v": 110
    },
    {
      "midi": 75,
      "hit": false,
      "t": 167774.9760000005,
      "d": 26.784000000014203,
      "v": 97
    },
    {
      "midi": 67,
      "hit": false,
      "t": 167774.9760000005,
      "d": 26.784000000014203,
      "v": 97
    },
    {
      "midi": 46,
      "hit": false,
      "t": 167774.97600000346,
      "d": 8.928000000014435,
      "v": 112
    },
    {
      "midi": 63,
      "hit": false,
      "t": 167882.11199999895,
      "d": 35.711999999999534,
      "v": 70
    },
    {
      "midi": 60,
      "hit": false,
      "t": 167882.11199999895,
      "d": 35.711999999999534,
      "v": 80
    },
    {
      "midi": 67,
      "hit": false,
      "t": 167989.24799999894,
      "d": 35.711999999999534,
      "v": 80
    },
    {
      "midi": 43,
      "hit": false,
      "t": 167989.2479999991,
      "d": 1705.2479999999923,
      "v": 110
    },
    {
      "midi": 67,
      "hit": false,
      "t": 167989.24800000052,
      "d": 1607.0400000000081,
      "v": 90
    },
    {
      "midi": 62,
      "hit": false,
      "t": 167989.24800000052,
      "d": 1607.0400000000081,
      "v": 50
    },
    {
      "midi": 42,
      "hit": false,
      "t": 167989.24800000348,
      "d": 8.928000000014435,
      "v": 112
    },
    {
      "midi": 36,
      "hit": false,
      "t": 167989.24800000348,
      "d": 8.928000000014435,
      "v": 112
    },
    {
      "midi": 79,
      "hit": false,
      "t": 168096.38399999894,
      "d": 35.711999999999534,
      "v": 60
    },
    {
      "midi": 70,
      "hit": false,
      "t": 168203.51999999894,
      "d": 35.711999999999534,
      "v": 70
    },
    {
      "midi": 67,
      "hit": false,
      "t": 168203.51999999894,
      "d": 35.711999999999534,
      "v": 80
    },
    {
      "midi": 46,
      "hit": false,
      "t": 168203.5200000035,
      "d": 8.928000000014435,
      "v": 112
    },
    {
      "midi": 67,
      "hit": false,
      "t": 168310.65599999894,
      "d": 35.711999999999534,
      "v": 80
    },
    {
      "midi": 79,
      "hit": false,
      "t": 168417.79199999894,
      "d": 35.711999999999534,
      "v": 60
    },
    {
      "midi": 67,
      "hit": false,
      "t": 168417.79199999955,
      "d": 107.1359999999986,
      "v": 70
    },
    {
      "midi": 55,
      "hit": false,
      "t": 168417.79199999955,
      "d": 107.1359999999986,
      "v": 110
    },
    {
      "midi": 42,
      "hit": false,
      "t": 168417.79200000354,
      "d": 8.928000000014435,
      "v": 112
    },
    {
      "midi": 40,
      "hit": false,
      "t": 168417.79200000354,
      "d": 8.928000000014435,
      "v": 112
    },
    {
      "midi": 70,
      "hit": false,
      "t": 168524.92799999894,
      "d": 35.711999999999534,
      "v": 70
    },
    {
      "midi": 67,
      "hit": false,
      "t": 168524.92799999894,
      "d": 35.711999999999534,
      "v": 80
    },
    {
      "midi": 67,
      "hit": false,
      "t": 168632.06399999894,
      "d": 35.711999999999534,
      "v": 80
    },
    {
      "midi": 46,
      "hit": false,
      "t": 168632.06400000356,
      "d": 8.928000000014435,
      "v": 112
    },
    {
      "midi": 79,
      "hit": false,
      "t": 168739.19999999893,
      "d": 35.711999999999534,
      "v": 60
    },
    {
      "midi": 70,
      "hit": false,
      "t": 168846.33599999893,
      "d": 35.711999999999534,
      "v": 70
    },
    {
      "midi": 67,
      "hit": false,
      "t": 168846.33599999893,
      "d": 35.711999999999534,
      "v": 80
    },
    {
      "midi": 67,
      "hit": false,
      "t": 168846.33599999954,
      "d": 71.42399999999907,
      "v": 70
    },
    {
      "midi": 55,
      "hit": false,
      "t": 168846.33599999954,
      "d": 71.42399999999907,
      "v": 110
    },
    {
      "midi": 42,
      "hit": false,
      "t": 168846.3360000036,
      "d": 8.928000000014435,
      "v": 112
    },
    {
      "midi": 36,
      "hit": false,
      "t": 168846.3360000036,
      "d": 8.928000000014435,
      "v": 112
    },
    {
      "midi": 67,
      "hit": false,
      "t": 168953.47199999893,
      "d": 35.711999999999534,
      "v": 80
    },
    {
      "midi": 70,
      "hit": false,
      "t": 168953.47199999954,
      "d": 71.42399999999907,
      "v": 80
    },
    {
      "midi": 58,
      "hit": false,
      "t": 168953.47199999954,
      "d": 71.42399999999907,
      "v": 120
    },
    {
      "midi": 40,
      "hit": false,
      "t": 168953.47200000362,
      "d": 8.928000000014435,
      "v": 56
    },
    {
      "midi": 79,
      "hit": false,
      "t": 169060.60799999893,
      "d": 35.711999999999534,
      "v": 60
    },
    {
      "midi": 46,
      "hit": false,
      "t": 169060.60800000365,
      "d": 8.928000000014435,
      "v": 112
    },
    {
      "midi": 70,
      "hit": false,
      "t": 169167.74399999893,
      "d": 35.711999999999534,
      "v": 70
    },
    {
      "midi": 67,
      "hit": false,
      "t": 169167.74399999893,
      "d": 35.711999999999534,
      "v": 80
    },
    {
      "midi": 74,
      "hit": false,
      "t": 169167.74399999954,
      "d": 71.42399999999907,
      "v": 80
    },
    {
      "midi": 62,
      "hit": false,
      "t": 169167.74399999954,
      "d": 71.42399999999907,
      "v": 120
    },
    {
      "midi": 40,
      "hit": false,
      "t": 169167.74400000367,
      "d": 8.928000000014435,
      "v": 56
    },
    {
      "midi": 67,
      "hit": false,
      "t": 169274.87999999893,
      "d": 35.711999999999534,
      "v": 80
    },
    {
      "midi": 45,
      "hit": false,
      "t": 169274.8800000037,
      "d": 8.928000000014435,
      "v": 112
    },
    {
      "midi": 79,
      "hit": false,
      "t": 169382.01599999893,
      "d": 35.711999999999534,
      "v": 60
    },
    {
      "midi": 75,
      "hit": false,
      "t": 169382.01599999954,
      "d": 71.42399999999907,
      "v": 90
    },
    {
      "midi": 63,
      "hit": false,
      "t": 169382.01599999954,
      "d": 71.42399999999907,
      "v": 127
    },
    {
      "midi": 70,
      "hit": false,
      "t": 169489.15199999893,
      "d": 35.711999999999534,
      "v": 70
    },
    {
      "midi": 67,
      "hit": false,
      "t": 169489.15199999893,
      "d": 35.711999999999534,
      "v": 80
    },
    {
      "midi": 77,
      "hit": false,
      "t": 169489.15199999954,
      "d": 71.42399999999907,
      "v": 90
    },
    {
      "midi": 65,
      "hit": false,
      "t": 169489.15199999954,
      "d": 71.42399999999907,
      "v": 127
    },
    {
      "midi": 40,
      "hit": false,
      "t": 169489.15200000373,
      "d": 8.928000000014435,
      "v": 112
    },
    {
      "midi": 70,
      "hit": false,
      "t": 169596.28799999892,
      "d": 35.711999999999534,
      "v": 70
    },
    {
      "midi": 67,
      "hit": false,
      "t": 169596.28799999892,
      "d": 35.711999999999534,
      "v": 80
    },
    {
      "midi": 40,
      "hit": false,
      "t": 169596.28800000375,
      "d": 8.928000000014435,
      "v": 112
    },
    {
      "midi": 44,
      "hit": false,
      "t": 169703.4239999991,
      "d": 624.9599999999919,
      "v": 110
    },
    {
      "midi": 79,
      "hit": false,
      "t": 169703.42399999953,
      "d": 196.41599999999744,
      "v": 90
    },
    {
      "midi": 67,
      "hit": false,
      "t": 169703.42399999953,
      "d": 196.41599999999744,
      "v": 110
    },
    {
      "midi": 91,
      "hit": false,
      "t": 169703.4239999999,
      "d": 633.8880000000063,
      "v": 100
    },
    {
      "midi": 55,
      "hit": false,
      "t": 169703.42400000247,
      "d": 624.9599999999919,
      "v": 80
    },
    {
      "midi": 57,
      "hit": false,
      "t": 169703.42400000378,
      "d": 8.928000000014435,
      "v": 112
    },
    {
      "midi": 36,
      "hit": false,
      "t": 169703.42400000378,
      "d": 8.928000000014435,
      "v": 112
    },
    {
      "midi": 82,
      "hit": false,
      "t": 169917.69599999953,
      "d": 71.42399999999907,
      "v": 100
    },
    {
      "midi": 70,
      "hit": false,
      "t": 169917.69599999953,
      "d": 71.42399999999907,
      "v": 120
    },
    {
      "midi": 80,
      "hit": false,
      "t": 170131.96799999953,
      "d": 71.42399999999907,
      "v": 90
    },
    {
      "midi": 68,
      "hit": false,
      "t": 170131.96799999953,
      "d": 71.42399999999907,
      "v": 110
    },
    {
      "midi": 40,
      "hit": false,
      "t": 170131.9680000038,
      "d": 8.928000000014435,
      "v": 112
    },
    {
      "midi": 41,
      "hit": false,
      "t": 170346.2399999991,
      "d": 1053.5039999999863,
      "v": 110
    },
    {
      "midi": 77,
      "hit": false,
      "t": 170346.23999999953,
      "d": 321.4079999999958,
      "v": 100
    },
    {
      "midi": 65,
      "hit": false,
      "t": 170346.23999999953,
      "d": 321.4079999999958,
      "v": 120
    },
    {
      "midi": 89,
      "hit": false,
      "t": 170346.23999999993,
      "d": 1053.5039999999863,
      "v": 100
    },
    {
      "midi": 53,
      "hit": false,
      "t": 170346.24000000246,
      "d": 1053.5039999999863,
      "v": 80
    },
    {
      "midi": 57,
      "hit": false,
      "t": 170346.24000000383,
      "d": 8.928000000014435,
      "v": 112
    },
    {
      "midi": 36,
      "hit": false,
      "t": 170346.24000000383,
      "d": 8.928000000014435,
      "v": 112
    },
    {
      "midi": 74,
      "hit": false,
      "t": 170774.78399999952,
      "d": 71.42399999999907,
      "v": 80
    },
    {
      "midi": 62,
      "hit": false,
      "t": 170774.78399999952,
      "d": 71.42399999999907,
      "v": 100
    },
    {
      "midi": 48,
      "hit": false,
      "t": 170774.78400000386,
      "d": 8.928000000014435,
      "v": 84
    },
    {
      "midi": 75,
      "hit": false,
      "t": 170989.05599999952,
      "d": 71.42399999999907,
      "v": 90
    },
    {
      "midi": 63,
      "hit": false,
      "t": 170989.05599999952,
      "d": 71.42399999999907,
      "v": 110
    },
    {
      "midi": 45,
      "hit": false,
      "t": 170989.05600000388,
      "d": 8.928000000014435,
      "v": 84
    },
    {
      "midi": 40,
      "hit": false,
      "t": 171096.1920000039,
      "d": 8.928000000014435,
      "v": 56
    },
    {
      "midi": 77,
      "hit": false,
      "t": 171203.3279999995,
      "d": 71.42399999999907,
      "v": 100
    },
    {
      "midi": 65,
      "hit": false,
      "t": 171203.3279999995,
      "d": 71.42399999999907,
      "v": 120
    },
    {
      "midi": 40,
      "hit": false,
      "t": 171203.32800000394,
      "d": 8.928000000014435,
      "v": 84
    },
    {
      "midi": 40,
      "hit": false,
      "t": 171310.46400000397,
      "d": 8.928000000014435,
      "v": 112
    },
    {
      "midi": 39,
      "hit": false,
      "t": 171417.59999999907,
      "d": 624.9599999999919,
      "v": 110
    },
    {
      "midi": 79,
      "hit": false,
      "t": 171417.5999999995,
      "d": 71.42399999999907,
      "v": 90
    },
    {
      "midi": 67,
      "hit": false,
      "t": 171417.5999999995,
      "d": 71.42399999999907,
      "v": 110
    },
    {
      "midi": 87,
      "hit": false,
      "t": 171417.59999999992,
      "d": 633.8880000000063,
      "v": 100
    },
    {
      "midi": 51,
      "hit": false,
      "t": 171417.60000000245,
      "d": 624.9599999999919,
      "v": 80
    },
    {
      "midi": 57,
      "hit": false,
      "t": 171417.600000004,
      "d": 8.928000000014435,
      "v": 112
    },
    {
      "midi": 36,
      "hit": false,
      "t": 171417.600000004,
      "d": 8.928000000014435,
      "v": 112
    },
    {
      "midi": 84,
      "hit": false,
      "t": 171631.8719999995,
      "d": 71.42399999999907,
      "v": 100
    },
    {
      "midi": 72,
      "hit": false,
      "t": 171631.8719999995,
      "d": 71.42399999999907,
      "v": 120
    },
    {
      "midi": 82,
      "hit": false,
      "t": 171846.1439999995,
      "d": 71.42399999999907,
      "v": 90
    },
    {
      "midi": 70,
      "hit": false,
      "t": 171846.1439999995,
      "d": 71.42399999999907,
      "v": 110
    },
    {
      "midi": 40,
      "hit": false,
      "t": 171846.14400000402,
      "d": 8.928000000014435,
      "v": 112
    },
    {
      "midi": 38,
      "hit": false,
      "t": 172060.41599999907,
      "d": 1053.5039999999863,
      "v": 110
    },
    {
      "midi": 80,
      "hit": false,
      "t": 172060.4159999995,
      "d": 321.4079999999958,
      "v": 100
    },
    {
      "midi": 68,
      "hit": false,
      "t": 172060.4159999995,
      "d": 321.4079999999958,
      "v": 120
    },
    {
      "midi": 86,
      "hit": false,
      "t": 172060.41599999994,
      "d": 1053.5039999999863,
      "v": 100
    },
    {
      "midi": 50,
      "hit": false,
      "t": 172060.41600000244,
      "d": 1053.5039999999863,
      "v": 80
    },
    {
      "midi": 57,
      "hit": false,
      "t": 172060.41600000404,
      "d": 8.928000000014435,
      "v": 112
    },
    {
      "midi": 36,
      "hit": false,
      "t": 172060.41600000404,
      "d": 8.928000000014435,
      "v": 112
    },
    {
      "midi": 79,
      "hit": false,
      "t": 172488.9599999995,
      "d": 71.42399999999907,
      "v": 80
    },
    {
      "midi": 67,
      "hit": false,
      "t": 172488.9599999995,
      "d": 71.42399999999907,
      "v": 100
    },
    {
      "midi": 45,
      "hit": false,
      "t": 172488.96000000407,
      "d": 8.928000000014435,
      "v": 84
    },
    {
      "midi": 77,
      "hit": false,
      "t": 172703.2319999995,
      "d": 71.42399999999907,
      "v": 90
    },
    {
      "midi": 65,
      "hit": false,
      "t": 172703.2319999995,
      "d": 71.42399999999907,
      "v": 110
    },
    {
      "midi": 40,
      "hit": false,
      "t": 172703.2320000041,
      "d": 8.928000000014435,
      "v": 42
    },
    {
      "midi": 40,
      "hit": false,
      "t": 172765.7280000041,
      "d": 8.928000000014435,
      "v": 56
    },
    {
      "midi": 40,
      "hit": false,
      "t": 172837.15200000413,
      "d": 8.928000000014435,
      "v": 70
    },
    {
      "midi": 74,
      "hit": false,
      "t": 172917.5039999995,
      "d": 71.42399999999907,
      "v": 100
    },
    {
      "midi": 62,
      "hit": false,
      "t": 172917.5039999995,
      "d": 71.42399999999907,
      "v": 120
    },
    {
      "midi": 40,
      "hit": false,
      "t": 172917.50400000415,
      "d": 8.928000000014435,
      "v": 112
    },
    {
      "midi": 44,
      "hit": false,
      "t": 173131.77599999905,
      "d": 624.9599999999919,
      "v": 110
    },
    {
      "midi": 75,
      "hit": false,
      "t": 173131.7759999995,
      "d": 624.9599999999919,
      "v": 100
    },
    {
      "midi": 63,
      "hit": false,
      "t": 173131.7759999995,
      "d": 624.9599999999919,
      "v": 120
    },
    {
      "midi": 87,
      "hit": false,
      "t": 173131.77599999993,
      "d": 633.8880000000063,
      "v": 100
    },
    {
      "midi": 51,
      "hit": false,
      "t": 173131.77600000243,
      "d": 624.9599999999919,
      "v": 80
    },
    {
      "midi": 57,
      "hit": false,
      "t": 173131.77600000417,
      "d": 8.928000000014435,
      "v": 112
    },
    {
      "midi": 36,
      "hit": false,
      "t": 173131.77600000417,
      "d": 8.928000000014435,
      "v": 112
    },
    {
      "midi": 40,
      "hit": false,
      "t": 173560.3200000042,
      "d": 8.928000000014435,
      "v": 112
    },
    {
      "midi": 41,
      "hit": false,
      "t": 173774.59199999904,
      "d": 624.9599999999919,
      "v": 110
    },
    {
      "midi": 77,
      "hit": false,
      "t": 173774.59199999948,
      "d": 624.9599999999919,
      "v": 100
    },
    {
      "midi": 65,
      "hit": false,
      "t": 173774.59199999948,
      "d": 624.9599999999919,
      "v": 120
    },
    {
      "midi": 89,
      "hit": false,
      "t": 173774.59199999995,
      "d": 633.8880000000063,
      "v": 100
    },
    {
      "midi": 53,
      "hit": false,
      "t": 173774.59200000242,
      "d": 624.9599999999919,
      "v": 80
    },
    {
      "midi": 57,
      "hit": false,
      "t": 173774.59200000422,
      "d": 8.928000000014435,
      "v": 112
    },
    {
      "midi": 36,
      "hit": false,
      "t": 173774.59200000422,
      "d": 8.928000000014435,
      "v": 112
    },
    {
      "midi": 40,
      "hit": false,
      "t": 174203.13600000425,
      "d": 8.928000000014435,
      "v": 112
    },
    {
      "midi": 38,
      "hit": false,
      "t": 174417.40799999904,
      "d": 2115.935999999987,
      "v": 110
    },
    {
      "midi": 79,
      "hit": false,
      "t": 174417.40799999947,
      "d": 2124.8640000006417,
      "v": 120
    },
    {
      "midi": 67,
      "hit": false,
      "t": 174417.40799999947,
      "d": 2124.8640000006417,
      "v": 127
    },
    {
      "midi": 91,
      "hit": false,
      "t": 174417.40799999997,
      "d": 2035.5840000005264,
      "v": 100
    },
    {
      "midi": 55,
      "hit": false,
      "t": 174417.4080000024,
      "d": 2115.935999999987,
      "v": 80
    },
    {
      "midi": 57,
      "hit": false,
      "t": 174417.40800000427,
      "d": 8.928000000014435,
      "v": 112
    },
    {
      "midi": 36,
      "hit": false,
      "t": 174417.40800000427,
      "d": 8.928000000014435,
      "v": 112
    },
    {
      "midi": 45,
      "hit": false,
      "t": 174845.9520000043,
      "d": 8.928000000014435,
      "v": 84
    },
    {
      "midi": 45,
      "hit": false,
      "t": 174881.66400000433,
      "d": 8.928000000014435,
      "v": 112
    },
    {
      "midi": 40,
      "hit": false,
      "t": 175167.36000000435,
      "d": 8.928000000014435,
      "v": 84
    },
    {
      "midi": 45,
      "hit": false,
      "t": 175274.49600000438,
      "d": 8.928000000014435,
      "v": 98
    },
    {
      "midi": 40,
      "hit": false,
      "t": 175488.7680000044,
      "d": 8.928000000014435,
      "v": 84
    },
    {
      "midi": 40,
      "hit": false,
      "t": 175703.04000000443,
      "d": 8.928000000014435,
      "v": 70
    },
    {
      "midi": 40,
      "hit": false,
      "t": 175917.31200000446,
      "d": 8.928000000014435,
      "v": 42
    },
    {
      "midi": 40,
      "hit": false,
      "t": 176024.4480000045,
      "d": 8.928000000014435,
      "v": 70
    },
    {
      "midi": 40,
      "hit": false,
      "t": 176131.5840000045,
      "d": 8.928000000014435,
      "v": 112
    },
    {
      "midi": 44,
      "hit": false,
      "t": 176238.72000000454,
      "d": 8.928000000014435,
      "v": 112
    },
    {
      "midi": 46,
      "hit": false,
      "t": 176345.85600000457,
      "d": 8.928000000014435,
      "v": 112
    },
    {
      "midi": 36,
      "hit": false,
      "t": 176560.1280000046,
      "d": 8.928000000014435,
      "v": 112
    },
    {
      "midi": 48,
      "hit": false,
      "t": 176988.67199999903,
      "d": 321.40800000022864,
      "v": 110
    },
    {
      "midi": 72,
      "hit": false,
      "t": 176988.67200000014,
      "d": 321.40800000022864,
      "v": 120
    },
    {
      "midi": 67,
      "hit": false,
      "t": 176988.67200000014,
      "d": 321.40800000022864,
      "v": 120
    },
    {
      "midi": 84,
      "hit": false,
      "t": 176988.67200000052,
      "d": 178.55999999999767,
      "v": 110
    },
    {
      "midi": 46,
      "hit": false,
      "t": 176988.67200000462,
      "d": 8.928000000014435,
      "v": 112
    },
    {
      "midi": 40,
      "hit": false,
      "t": 176988.67200000462,
      "d": 8.928000000014435,
      "v": 126
    },
    {
      "midi": 44,
      "hit": false,
      "t": 177095.80800000465,
      "d": 8.928000000014435,
      "v": 112
    },
    {
      "midi": 40,
      "hit": false,
      "t": 177417.21600000467,
      "d": 8.928000000014435,
      "v": 112
    },
    {
      "midi": 48,
      "hit": false,
      "t": 177738.6240000047,
      "d": 8.928000000014435,
      "v": 112
    },
    {
      "midi": 45,
      "hit": false,
      "t": 177845.76000000472,
      "d": 8.928000000014435,
      "v": 84
    },
    {
      "midi": 41,
      "hit": false,
      "t": 178060.03200000475,
      "d": 8.928000000014435,
      "v": 112
    },
    {
      "midi": 48,
      "hit": false,
      "t": 178274.30399999925,
      "d": 89.27999999999884,
      "v": 110
    },
    {
      "midi": 72,
      "hit": false,
      "t": 178274.30400000035,
      "d": 89.27999999999884,
      "v": 110
    },
    {
      "midi": 67,
      "hit": false,
      "t": 178274.30400000035,
      "d": 89.27999999999884,
      "v": 110
    },
    {
      "midi": 84,
      "hit": false,
      "t": 178274.3040000005,
      "d": 89.27999999999884,
      "v": 110
    },
    {
      "midi": 46,
      "hit": false,
      "t": 178274.30400000478,
      "d": 8.928000000014435,
      "v": 112
    },
    {
      "midi": 36,
      "hit": false,
      "t": 178274.30400000478,
      "d": 8.928000000014435,
      "v": 126
    },
    {
      "midi": 44,
      "hit": false,
      "t": 178381.4400000048,
      "d": 8.928000000014435,
      "v": 70
    },
    {
      "midi": 48,
      "hit": false,
      "t": 178488.57599999924,
      "d": 89.27999999999884,
      "v": 110
    },
    {
      "midi": 72,
      "hit": false,
      "t": 178488.57600000035,
      "d": 89.27999999999884,
      "v": 90
    },
    {
      "midi": 67,
      "hit": false,
      "t": 178488.57600000035,
      "d": 89.27999999999884,
      "v": 90
    },
    {
      "midi": 84,
      "hit": false,
      "t": 178488.5760000005,
      "d": 89.27999999999884,
      "v": 100
    },
    {
      "midi": 40,
      "hit": false,
      "t": 178488.57600000483,
      "d": 8.928000000014435,
      "v": 126
    },
    {
      "midi": 46,
      "hit": false,
      "t": 178595.71199999924,
      "d": 89.27999999999884,
      "v": 110
    },
    {
      "midi": 70,
      "hit": false,
      "t": 178595.71200000035,
      "d": 89.27999999999884,
      "v": 100
    },
    {
      "midi": 65,
      "hit": false,
      "t": 178595.71200000035,
      "d": 89.27999999999884,
      "v": 100
    },
    {
      "midi": 82,
      "hit": false,
      "t": 178595.7120000005,
      "d": 89.27999999999884,
      "v": 110
    },
    {
      "midi": 46,
      "hit": false,
      "t": 178595.71200000486,
      "d": 8.928000000014435,
      "v": 112
    },
    {
      "midi": 36,
      "hit": false,
      "t": 178595.71200000486,
      "d": 8.928000000014435,
      "v": 126
    },
    {
      "midi": 44,
      "hit": false,
      "t": 178702.8480000049,
      "d": 8.928000000014435,
      "v": 70
    },
    {
      "midi": 46,
      "hit": false,
      "t": 178809.98399999924,
      "d": 89.27999999999884,
      "v": 110
    },
    {
      "midi": 70,
      "hit": false,
      "t": 178809.98400000035,
      "d": 89.27999999999884,
      "v": 90
    },
    {
      "midi": 65,
      "hit": false,
      "t": 178809.98400000035,
      "d": 89.27999999999884,
      "v": 90
    },
    {
      "midi": 82,
      "hit": false,
      "t": 178809.9840000005,
      "d": 89.27999999999884,
      "v": 100
    },
    {
      "midi": 40,
      "hit": false,
      "t": 178809.98400000492,
      "d": 8.928000000014435,
      "v": 126
    },
    {
      "midi": 48,
      "hit": false,
      "t": 178917.11999999924,
      "d": 89.27999999999884,
      "v": 110
    },
    {
      "midi": 72,
      "hit": false,
      "t": 178917.12000000034,
      "d": 89.27999999999884,
      "v": 120
    },
    {
      "midi": 67,
      "hit": false,
      "t": 178917.12000000034,
      "d": 89.27999999999884,
      "v": 120
    },
    {
      "midi": 84,
      "hit": false,
      "t": 178917.1200000005,
      "d": 89.27999999999884,
      "v": 120
    },
    {
      "midi": 46,
      "hit": false,
      "t": 178917.12000000494,
      "d": 8.928000000014435,
      "v": 112
    },
    {
      "midi": 36,
      "hit": false,
      "t": 178917.12000000494,
      "d": 8.928000000014435,
      "v": 126
    },
    {
      "midi": 44,
      "hit": false,
      "t": 179131.39200000497,
      "d": 8.928000000014435,
      "v": 70
    }
  ]
}