{
  "jsonPath": "Rock/Christian Alternative Rock/Sanctus Real/whatever-youre-doing-something-heavenly-medium-key-premiere-performance-plus-w-background-vocals.json",
  "path": "Rock\\Christian Alternative Rock\\Sanctus Real\\Whatever Youre Doing (Something Heavenly) (Medium Key-Premiere Performance Plus w Background Vocals).mid",
  "name": "Whatever Youre Doing (Something Heavenly) (Medium Key-Premiere Performance Plus w Background Vocals)",
  "difficulty": "Advanced",
  "bpm": 80,
  "notes": [
    {
      "midi": 48,
      "hit": false,
      "t": 3003.125,
      "d": 2887.5,
      "v": 92
    },
    {
      "midi": 52,
      "hit": false,
      "t": 3379.6875,
      "d": 2545.3125,
      "v": 76
    },
    {
      "midi": 55,
      "hit": false,
      "t": 3760.9375,
      "d": 2170.3125,
      "v": 77
    },
    {
      "midi": 64,
      "hit": false,
      "t": 4134.375,
      "d": 1804.6875,
      "v": 92
    },
    {
      "midi": 60,
      "hit": false,
      "t": 4135.9375,
      "d": 1787.5,
      "v": 77
    },
    {
      "midi": 47,
      "hit": false,
      "t": 5990.625,
      "d": 2993.75,
      "v": 79
    },
    {
      "midi": 50,
      "hit": false,
      "t": 6376.5625,
      "d": 2564.0625,
      "v": 83
    },
    {
      "midi": 55,
      "hit": false,
      "t": 6757.8125,
      "d": 2154.6875,
      "v": 77
    },
    {
      "midi": 60,
      "hit": false,
      "t": 7125,
      "d": 1781.25,
      "v": 89
    },
    {
      "midi": 64,
      "hit": false,
      "t": 7131.25,
      "d": 1782.8125,
      "v": 89
    },
    {
      "midi": 40,
      "hit": false,
      "t": 8990.625,
      "d": 2734.375,
      "v": 92
    },
    {
      "midi": 47,
      "hit": false,
      "t": 9378.125,
      "d": 2403.125,
      "v": 89
    },
    {
      "midi": 52,
      "hit": false,
      "t": 9753.125,
      "d": 2064.0625,
      "v": 89
    },
    {
      "midi": 59,
      "hit": false,
      "t": 10126.5625,
      "d": 1710.9375,
      "v": 89
    },
    {
      "midi": 55,
      "hit": false,
      "t": 10128.125,
      "d": 1553.125,
      "v": 83
    },
    {
      "midi": 64,
      "hit": false,
      "t": 10128.125,
      "d": 1557.8125,
      "v": 83
    },
    {
      "midi": 60,
      "hit": false,
      "t": 12004.6875,
      "d": 534.375,
      "v": 86
    },
    {
      "midi": 57,
      "hit": false,
      "t": 12006.25,
      "d": 425,
      "v": 83
    },
    {
      "midi": 53,
      "hit": false,
      "t": 12006.25,
      "d": 528.125,
      "v": 74
    },
    {
      "midi": 65,
      "hit": false,
      "t": 12006.25,
      "d": 528.125,
      "v": 81
    },
    {
      "midi": 41,
      "hit": false,
      "t": 12007.8125,
      "d": 642.1875,
      "v": 77
    },
    {
      "midi": 57,
      "hit": false,
      "t": 12757.8125,
      "d": 115.625,
      "v": 83
    },
    {
      "midi": 41,
      "hit": false,
      "t": 13126.5625,
      "d": 735.9375,
      "v": 76
    },
    {
      "midi": 60,
      "hit": false,
      "t": 13128.125,
      "d": 737.5,
      "v": 89
    },
    {
      "midi": 55,
      "hit": false,
      "t": 13128.125,
      "d": 753.125,
      "v": 77
    },
    {
      "midi": 65,
      "hit": false,
      "t": 13129.6875,
      "d": 742.1875,
      "v": 73
    },
    {
      "midi": 48,
      "hit": false,
      "t": 15003.125,
      "d": 2706.25,
      "v": 89
    },
    {
      "midi": 52,
      "hit": false,
      "t": 15379.6875,
      "d": 2501.5625,
      "v": 71
    },
    {
      "midi": 55,
      "hit": false,
      "t": 15745.3125,
      "d": 2307.8125,
      "v": 67
    },
    {
      "midi": 64,
      "hit": false,
      "t": 16121.875,
      "d": 1951.5625,
      "v": 83
    },
    {
      "midi": 60,
      "hit": false,
      "t": 16123.4375,
      "d": 1868.75,
      "v": 81
    },
    {
      "midi": 47,
      "hit": false,
      "t": 17990.625,
      "d": 2582.8125,
      "v": 77
    },
    {
      "midi": 50,
      "hit": false,
      "t": 18368.75,
      "d": 2529.6875,
      "v": 77
    },
    {
      "midi": 55,
      "hit": false,
      "t": 18743.75,
      "d": 2506.25,
      "v": 65
    },
    {
      "midi": 60,
      "hit": false,
      "t": 19126.5625,
      "d": 1909.375,
      "v": 94
    },
    {
      "midi": 64,
      "hit": false,
      "t": 19126.5625,
      "d": 1912.5,
      "v": 79
    },
    {
      "midi": 40,
      "hit": false,
      "t": 20993.75,
      "d": 2693.75,
      "v": 74
    },
    {
      "midi": 47,
      "hit": false,
      "t": 21368.75,
      "d": 2351.5625,
      "v": 78
    },
    {
      "midi": 52,
      "hit": false,
      "t": 21745.3125,
      "d": 2154.6875,
      "v": 76
    },
    {
      "midi": 55,
      "hit": false,
      "t": 22118.75,
      "d": 2392.1875,
      "v": 73
    },
    {
      "midi": 64,
      "hit": false,
      "t": 22120.3125,
      "d": 2429.6875,
      "v": 83
    },
    {
      "midi": 59,
      "hit": false,
      "t": 22125,
      "d": 2423.4375,
      "v": 92
    },
    {
      "midi": 41,
      "hit": false,
      "t": 23996.875,
      "d": 2932.8125,
      "v": 77
    },
    {
      "midi": 48,
      "hit": false,
      "t": 24381.25,
      "d": 2532.8125,
      "v": 89
    },
    {
      "midi": 53,
      "hit": false,
      "t": 24756.25,
      "d": 2156.25,
      "v": 94
    },
    {
      "midi": 60,
      "hit": false,
      "t": 25126.5625,
      "d": 1785.9375,
      "v": 89
    },
    {
      "midi": 65,
      "hit": false,
      "t": 25128.125,
      "d": 1770.3125,
      "v": 74
    },
    {
      "midi": 55,
      "hit": false,
      "t": 25129.6875,
      "d": 1082.8125,
      "v": 81
    },
    {
      "midi": 57,
      "hit": false,
      "t": 26242.1875,
      "d": 685.9375,
      "v": 56
    },
    {
      "midi": 48,
      "hit": false,
      "t": 27003.125,
      "d": 2706.25,
      "v": 89
    },
    {
      "midi": 52,
      "hit": false,
      "t": 27379.6875,
      "d": 2501.5625,
      "v": 71
    },
    {
      "midi": 55,
      "hit": false,
      "t": 27745.3125,
      "d": 2307.8125,
      "v": 67
    },
    {
      "midi": 64,
      "hit": false,
      "t": 28121.875,
      "d": 1951.5625,
      "v": 83
    },
    {
      "midi": 60,
      "hit": false,
      "t": 28123.4375,
      "d": 1868.75,
      "v": 81
    },
    {
      "midi": 47,
      "hit": false,
      "t": 29990.625,
      "d": 2582.8125,
      "v": 77
    },
    {
      "midi": 50,
      "hit": false,
      "t": 30368.75,
      "d": 2529.6875,
      "v": 77
    },
    {
      "midi": 55,
      "hit": false,
      "t": 30743.75,
      "d": 2506.25,
      "v": 65
    },
    {
      "midi": 60,
      "hit": false,
      "t": 31126.5625,
      "d": 1909.375,
      "v": 94
    },
    {
      "midi": 64,
      "hit": false,
      "t": 31126.5625,
      "d": 1912.5,
      "v": 79
    },
    {
      "midi": 40,
      "hit": false,
      "t": 32993.75,
      "d": 2693.75,
      "v": 74
    },
    {
      "midi": 47,
      "hit": false,
      "t": 33368.75,
      "d": 2351.5625,
      "v": 78
    },
    {
      "midi": 52,
      "hit": false,
      "t": 33745.3125,
      "d": 2154.6875,
      "v": 76
    },
    {
      "midi": 55,
      "hit": false,
      "t": 34118.75,
      "d": 2392.1875,
      "v": 73
    },
    {
      "midi": 64,
      "hit": false,
      "t": 34120.3125,
      "d": 2429.6875,
      "v": 83
    },
    {
      "midi": 59,
      "hit": false,
      "t": 34125,
      "d": 2423.4375,
      "v": 92
    },
    {
      "midi": 41,
      "hit": false,
      "t": 35996.875,
      "d": 2932.8125,
      "v": 77
    },
    {
      "midi": 48,
      "hit": false,
      "t": 36381.25,
      "d": 2532.8125,
      "v": 89
    },
    {
      "midi": 53,
      "hit": false,
      "t": 36756.25,
      "d": 2156.25,
      "v": 94
    },
    {
      "midi": 60,
      "hit": false,
      "t": 37126.5625,
      "d": 1785.9375,
      "v": 89
    },
    {
      "midi": 65,
      "hit": false,
      "t": 37128.125,
      "d": 1770.3125,
      "v": 74
    },
    {
      "midi": 55,
      "hit": false,
      "t": 37129.6875,
      "d": 1082.8125,
      "v": 81
    },
    {
      "midi": 57,
      "hit": false,
      "t": 38242.1875,
      "d": 685.9375,
      "v": 56
    },
    {
      "midi": 48,
      "hit": false,
      "t": 39000,
      "d": 2871.875,
      "v": 94
    },
    {
      "midi": 55,
      "hit": false,
      "t": 39743.75,
      "d": 1407.8125,
      "v": 72
    },
    {
      "midi": 64,
      "hit": false,
      "t": 40120.3125,
      "d": 1796.875,
      "v": 81
    },
    {
      "midi": 60,
      "hit": false,
      "t": 40120.3125,
      "d": 1857.8125,
      "v": 89
    },
    {
      "midi": 55,
      "hit": false,
      "t": 41243.75,
      "d": 773.4375,
      "v": 70
    },
    {
      "midi": 43,
      "hit": false,
      "t": 41995.3125,
      "d": 2923.4375,
      "v": 89
    },
    {
      "midi": 55,
      "hit": false,
      "t": 42743.75,
      "d": 1459.375,
      "v": 70
    },
    {
      "midi": 62,
      "hit": false,
      "t": 43121.875,
      "d": 1850,
      "v": 92
    },
    {
      "midi": 59,
      "hit": false,
      "t": 43121.875,
      "d": 1882.8125,
      "v": 78
    },
    {
      "midi": 55,
      "hit": false,
      "t": 44246.875,
      "d": 723.4375,
      "v": 68
    },
    {
      "midi": 45,
      "hit": false,
      "t": 44995.3125,
      "d": 2943.75,
      "v": 83
    },
    {
      "midi": 57,
      "hit": false,
      "t": 45746.875,
      "d": 2167.1875,
      "v": 77
    },
    {
      "midi": 64,
      "hit": false,
      "t": 46117.1875,
      "d": 1826.5625,
      "v": 77
    },
    {
      "midi": 59,
      "hit": false,
      "t": 46125,
      "d": 746.875,
      "v": 74
    },
    {
      "midi": 60,
      "hit": false,
      "t": 46875,
      "d": 1121.875,
      "v": 76
    },
    {
      "midi": 43,
      "hit": false,
      "t": 47998.4375,
      "d": 3006.25,
      "v": 77
    },
    {
      "midi": 55,
      "hit": false,
      "t": 48745.3125,
      "d": 1406.25,
      "v": 86
    },
    {
      "midi": 59,
      "hit": false,
      "t": 49120.3125,
      "d": 1820.3125,
      "v": 77
    },
    {
      "midi": 62,
      "hit": false,
      "t": 49121.875,
      "d": 1810.9375,
      "v": 81
    },
    {
      "midi": 67,
      "hit": false,
      "t": 49121.875,
      "d": 1810.9375,
      "v": 78
    },
    {
      "midi": 55,
      "hit": false,
      "t": 50245.3125,
      "d": 717.1875,
      "v": 74
    },
    {
      "midi": 41,
      "hit": false,
      "t": 50990.625,
      "d": 2917.1875,
      "v": 78
    },
    {
      "midi": 53,
      "hit": false,
      "t": 51739.0625,
      "d": 2248.4375,
      "v": 83
    },
    {
      "midi": 65,
      "hit": false,
      "t": 52114.0625,
      "d": 1921.875,
      "v": 70
    },
    {
      "midi": 55,
      "hit": false,
      "t": 52115.625,
      "d": 1134.375,
      "v": 79
    },
    {
      "midi": 60,
      "hit": false,
      "t": 52115.625,
      "d": 1910.9375,
      "v": 77
    },
    {
      "midi": 57,
      "hit": false,
      "t": 53242.1875,
      "d": 748.4375,
      "v": 73
    },
    {
      "midi": 43,
      "hit": false,
      "t": 53998.4375,
      "d": 2928.125,
      "v": 83
    },
    {
      "midi": 55,
      "hit": false,
      "t": 54737.5,
      "d": 2262.5,
      "v": 67
    },
    {
      "midi": 62,
      "hit": false,
      "t": 55117.1875,
      "d": 1860.9375,
      "v": 74
    },
    {
      "midi": 67,
      "hit": false,
      "t": 55118.75,
      "d": 1835.9375,
      "v": 77
    },
    {
      "midi": 59,
      "hit": false,
      "t": 55118.75,
      "d": 1842.1875,
      "v": 74
    },
    {
      "midi": 41,
      "hit": false,
      "t": 56998.4375,
      "d": 3026.5625,
      "v": 74
    },
    {
      "midi": 53,
      "hit": false,
      "t": 57742.1875,
      "d": 2301.5625,
      "v": 74
    },
    {
      "midi": 55,
      "hit": false,
      "t": 58117.1875,
      "d": 1134.375,
      "v": 72
    },
    {
      "midi": 65,
      "hit": false,
      "t": 58117.1875,
      "d": 1846.875,
      "v": 72
    },
    {
      "midi": 60,
      "hit": false,
      "t": 58118.75,
      "d": 1842.1875,
      "v": 72
    },
    {
      "midi": 57,
      "hit": false,
      "t": 59242.1875,
      "d": 714.0625,
      "v": 73
    },
    {
      "midi": 43,
      "hit": false,
      "t": 59998.4375,
      "d": 421.875,
      "v": 73
    },
    {
      "midi": 67,
      "hit": false,
      "t": 60367.1875,
      "d": 181.25,
      "v": 32
    },
    {
      "midi": 62,
      "hit": false,
      "t": 60370.3125,
      "d": 150,
      "v": 24
    },
    {
      "midi": 59,
      "hit": false,
      "t": 60373.4375,
      "d": 104.6875,
      "v": 31
    },
    {
      "midi": 55,
      "hit": false,
      "t": 60373.4375,
      "d": 187.5,
      "v": 16
    },
    {
      "midi": 43,
      "hit": false,
      "t": 60739.0625,
      "d": 193.75,
      "v": 21
    },
    {
      "midi": 55,
      "hit": false,
      "t": 60739.0625,
      "d": 209.375,
      "v": 25
    },
    {
      "midi": 59,
      "hit": false,
      "t": 60740.625,
      "d": 162.5,
      "v": 45
    },
    {
      "midi": 62,
      "hit": false,
      "t": 60740.625,
      "d": 187.5,
      "v": 50
    },
    {
      "midi": 67,
      "hit": false,
      "t": 60742.1875,
      "d": 168.75,
      "v": 36
    },
    {
      "midi": 43,
      "hit": false,
      "t": 61114.0625,
      "d": 170.3125,
      "v": 51
    },
    {
      "midi": 59,
      "hit": false,
      "t": 61115.625,
      "d": 176.5625,
      "v": 38
    },
    {
      "midi": 67,
      "hit": false,
      "t": 61115.625,
      "d": 185.9375,
      "v": 38
    },
    {
      "midi": 62,
      "hit": false,
      "t": 61117.1875,
      "d": 167.1875,
      "v": 46
    },
    {
      "midi": 55,
      "hit": false,
      "t": 61117.1875,
      "d": 187.5,
      "v": 34
    },
    {
      "midi": 43,
      "hit": false,
      "t": 61487.5,
      "d": 201.5625,
      "v": 74
    },
    {
      "midi": 59,
      "hit": false,
      "t": 61489.0625,
      "d": 204.6875,
      "v": 65
    },
    {
      "midi": 67,
      "hit": false,
      "t": 61489.0625,
      "d": 214.0625,
      "v": 70
    },
    {
      "midi": 62,
      "hit": false,
      "t": 61490.625,
      "d": 182.8125,
      "v": 60
    },
    {
      "midi": 55,
      "hit": false,
      "t": 61490.625,
      "d": 215.625,
      "v": 63
    },
    {
      "midi": 67,
      "hit": false,
      "t": 61864.0625,
      "d": 207.8125,
      "v": 77
    },
    {
      "midi": 59,
      "hit": false,
      "t": 61864.0625,
      "d": 226.5625,
      "v": 76
    },
    {
      "midi": 55,
      "hit": false,
      "t": 61864.0625,
      "d": 239.0625,
      "v": 72
    },
    {
      "midi": 43,
      "hit": false,
      "t": 61865.625,
      "d": 184.375,
      "v": 76
    },
    {
      "midi": 62,
      "hit": false,
      "t": 61865.625,
      "d": 198.4375,
      "v": 70
    },
    {
      "midi": 43,
      "hit": false,
      "t": 62239.0625,
      "d": 167.1875,
      "v": 89
    },
    {
      "midi": 67,
      "hit": false,
      "t": 62239.0625,
      "d": 168.75,
      "v": 83
    },
    {
      "midi": 59,
      "hit": false,
      "t": 62240.625,
      "d": 157.8125,
      "v": 86
    },
    {
      "midi": 55,
      "hit": false,
      "t": 62240.625,
      "d": 179.6875,
      "v": 74
    },
    {
      "midi": 62,
      "hit": false,
      "t": 62242.1875,
      "d": 150,
      "v": 79
    },
    {
      "midi": 43,
      "hit": false,
      "t": 62610.9375,
      "d": 385.9375,
      "v": 78
    },
    {
      "midi": 67,
      "hit": false,
      "t": 62610.9375,
      "d": 385.9375,
      "v": 77
    },
    {
      "midi": 55,
      "hit": false,
      "t": 62612.5,
      "d": 384.375,
      "v": 81
    },
    {
      "midi": 59,
      "hit": false,
      "t": 62612.5,
      "d": 384.375,
      "v": 81
    },
    {
      "midi": 62,
      "hit": false,
      "t": 62612.5,
      "d": 384.375,
      "v": 81
    },
    {
      "midi": 55,
      "hit": false,
      "t": 63000,
      "d": 264.0625,
      "v": 83
    },
    {
      "midi": 64,
      "hit": false,
      "t": 63001.5625,
      "d": 326.5625,
      "v": 88
    },
    {
      "midi": 48,
      "hit": false,
      "t": 63003.125,
      "d": 292.1875,
      "v": 102
    },
    {
      "midi": 60,
      "hit": false,
      "t": 63004.6875,
      "d": 343.75,
      "v": 93
    },
    {
      "midi": 55,
      "hit": false,
      "t": 63370.3125,
      "d": 553.125,
      "v": 54
    },
    {
      "midi": 60,
      "hit": false,
      "t": 63748.4375,
      "d": 731.25,
      "v": 88
    },
    {
      "midi": 64,
      "hit": false,
      "t": 63750,
      "d": 706.25,
      "v": 87
    },
    {
      "midi": 55,
      "hit": false,
      "t": 64123.4375,
      "d": 337.5,
      "v": 66
    },
    {
      "midi": 55,
      "hit": false,
      "t": 64867.1875,
      "d": 520.3125,
      "v": 78
    },
    {
      "midi": 60,
      "hit": false,
      "t": 65246.875,
      "d": 409.375,
      "v": 93
    },
    {
      "midi": 64,
      "hit": false,
      "t": 65248.4375,
      "d": 318.75,
      "v": 88
    },
    {
      "midi": 55,
      "hit": false,
      "t": 65631.25,
      "d": 234.375,
      "v": 68
    },
    {
      "midi": 47,
      "hit": false,
      "t": 65996.875,
      "d": 323.4375,
      "v": 83
    },
    {
      "midi": 59,
      "hit": false,
      "t": 65998.4375,
      "d": 362.5,
      "v": 91
    },
    {
      "midi": 55,
      "hit": false,
      "t": 66000,
      "d": 259.375,
      "v": 73
    },
    {
      "midi": 62,
      "hit": false,
      "t": 66001.5625,
      "d": 332.8125,
      "v": 96
    },
    {
      "midi": 55,
      "hit": false,
      "t": 66371.875,
      "d": 473.4375,
      "v": 65
    },
    {
      "midi": 59,
      "hit": false,
      "t": 66753.125,
      "d": 512.5,
      "v": 89
    },
    {
      "midi": 62,
      "hit": false,
      "t": 66754.6875,
      "d": 739.0625,
      "v": 99
    },
    {
      "midi": 55,
      "hit": false,
      "t": 67126.5625,
      "d": 465.625,
      "v": 75
    },
    {
      "midi": 55,
      "hit": false,
      "t": 67862.5,
      "d": 473.4375,
      "v": 75
    },
    {
      "midi": 59,
      "hit": false,
      "t": 68246.875,
      "d": 467.1875,
      "v": 89
    },
    {
      "midi": 62,
      "hit": false,
      "t": 68248.4375,
      "d": 442.1875,
      "v": 89
    },
    {
      "midi": 55,
      "hit": false,
      "t": 68623.4375,
      "d": 142.1875,
      "v": 71
    },
    {
      "midi": 57,
      "hit": false,
      "t": 68995.3125,
      "d": 256.25,
      "v": 80
    },
    {
      "midi": 52,
      "hit": false,
      "t": 68995.3125,
      "d": 370.3125,
      "v": 82
    },
    {
      "midi": 45,
      "hit": false,
      "t": 68996.875,
      "d": 385.9375,
      "v": 91
    },
    {
      "midi": 60,
      "hit": false,
      "t": 68998.4375,
      "d": 373.4375,
      "v": 86
    },
    {
      "midi": 64,
      "hit": false,
      "t": 69000,
      "d": 317.1875,
      "v": 87
    },
    {
      "midi": 57,
      "hit": false,
      "t": 69378.125,
      "d": 321.875,
      "v": 75
    },
    {
      "midi": 60,
      "hit": false,
      "t": 69753.125,
      "d": 421.875,
      "v": 93
    },
    {
      "midi": 64,
      "hit": false,
      "t": 69754.6875,
      "d": 307.8125,
      "v": 99
    },
    {
      "midi": 57,
      "hit": false,
      "t": 69760.9375,
      "d": 48.4375,
      "v": 58
    },
    {
      "midi": 57,
      "hit": false,
      "t": 70123.4375,
      "d": 387.5,
      "v": 84
    },
    {
      "midi": 57,
      "hit": false,
      "t": 70865.625,
      "d": 331.25,
      "v": 80
    },
    {
      "midi": 60,
      "hit": false,
      "t": 71246.875,
      "d": 367.1875,
      "v": 88
    },
    {
      "midi": 64,
      "hit": false,
      "t": 71248.4375,
      "d": 353.125,
      "v": 86
    },
    {
      "midi": 57,
      "hit": false,
      "t": 71628.125,
      "d": 140.625,
      "v": 75
    },
    {
      "midi": 53,
      "hit": false,
      "t": 71998.4375,
      "d": 296.875,
      "v": 78
    },
    {
      "midi": 41,
      "hit": false,
      "t": 72000,
      "d": 295.3125,
      "v": 87
    },
    {
      "midi": 65,
      "hit": false,
      "t": 72001.5625,
      "d": 357.8125,
      "v": 88
    },
    {
      "midi": 60,
      "hit": false,
      "t": 72003.125,
      "d": 360.9375,
      "v": 87
    },
    {
      "midi": 57,
      "hit": false,
      "t": 72004.6875,
      "d": 256.25,
      "v": 82
    },
    {
      "midi": 57,
      "hit": false,
      "t": 72376.5625,
      "d": 450,
      "v": 72
    },
    {
      "midi": 60,
      "hit": false,
      "t": 72753.125,
      "d": 670.3125,
      "v": 86
    },
    {
      "midi": 65,
      "hit": false,
      "t": 72754.6875,
      "d": 657.8125,
      "v": 83
    },
    {
      "midi": 57,
      "hit": false,
      "t": 73118.75,
      "d": 331.25,
      "v": 87
    },
    {
      "midi": 57,
      "hit": false,
      "t": 73865.625,
      "d": 321.875,
      "v": 82
    },
    {
      "midi": 65,
      "hit": false,
      "t": 74250,
      "d": 648.4375,
      "v": 86
    },
    {
      "midi": 60,
      "hit": false,
      "t": 74251.5625,
      "d": 632.8125,
      "v": 87
    },
    {
      "midi": 57,
      "hit": false,
      "t": 74253.125,
      "d": 45.3125,
      "v": 68
    },
    {
      "midi": 57,
      "hit": false,
      "t": 74618.75,
      "d": 293.75,
      "v": 75
    },
    {
      "midi": 55,
      "hit": false,
      "t": 75000,
      "d": 264.0625,
      "v": 83
    },
    {
      "midi": 64,
      "hit": false,
      "t": 75001.5625,
      "d": 326.5625,
      "v": 88
    },
    {
      "midi": 48,
      "hit": false,
      "t": 75003.125,
      "d": 292.1875,
      "v": 102
    },
    {
      "midi": 60,
      "hit": false,
      "t": 75004.6875,
      "d": 343.75,
      "v": 93
    },
    {
      "midi": 55,
      "hit": false,
      "t": 75370.3125,
      "d": 553.125,
      "v": 54
    },
    {
      "midi": 60,
      "hit": false,
      "t": 75748.4375,
      "d": 731.25,
      "v": 88
    },
    {
      "midi": 64,
      "hit": false,
      "t": 75750,
      "d": 706.25,
      "v": 87
    },
    {
      "midi": 55,
      "hit": false,
      "t": 76123.4375,
      "d": 337.5,
      "v": 66
    },
    {
      "midi": 55,
      "hit": false,
      "t": 76867.1875,
      "d": 520.3125,
      "v": 78
    },
    {
      "midi": 60,
      "hit": false,
      "t": 77246.875,
      "d": 409.375,
      "v": 93
    },
    {
      "midi": 64,
      "hit": false,
      "t": 77248.4375,
      "d": 318.75,
      "v": 88
    },
    {
      "midi": 55,
      "hit": false,
      "t": 77631.25,
      "d": 234.375,
      "v": 68
    },
    {
      "midi": 47,
      "hit": false,
      "t": 77996.875,
      "d": 323.4375,
      "v": 83
    },
    {
      "midi": 59,
      "hit": false,
      "t": 77998.4375,
      "d": 362.5,
      "v": 91
    },
    {
      "midi": 55,
      "hit": false,
      "t": 78000,
      "d": 259.375,
      "v": 73
    },
    {
      "midi": 62,
      "hit": false,
      "t": 78001.5625,
      "d": 332.8125,
      "v": 96
    },
    {
      "midi": 55,
      "hit": false,
      "t": 78371.875,
      "d": 473.4375,
      "v": 65
    },
    {
      "midi": 59,
      "hit": false,
      "t": 78753.125,
      "d": 512.5,
      "v": 89
    },
    {
      "midi": 62,
      "hit": false,
      "t": 78754.6875,
      "d": 739.0625,
      "v": 99
    },
    {
      "midi": 55,
      "hit": false,
      "t": 79126.5625,
      "d": 465.625,
      "v": 75
    },
    {
      "midi": 55,
      "hit": false,
      "t": 79862.5,
      "d": 473.4375,
      "v": 75
    },
    {
      "midi": 59,
      "hit": false,
      "t": 80246.875,
      "d": 467.1875,
      "v": 89
    },
    {
      "midi": 62,
      "hit": false,
      "t": 80248.4375,
      "d": 442.1875,
      "v": 89
    },
    {
      "midi": 55,
      "hit": false,
      "t": 80623.4375,
      "d": 142.1875,
      "v": 71
    },
    {
      "midi": 57,
      "hit": false,
      "t": 80995.3125,
      "d": 256.25,
      "v": 80
    },
    {
      "midi": 52,
      "hit": false,
      "t": 80995.3125,
      "d": 370.3125,
      "v": 82
    },
    {
      "midi": 45,
      "hit": false,
      "t": 80996.875,
      "d": 385.9375,
      "v": 91
    },
    {
      "midi": 60,
      "hit": false,
      "t": 80998.4375,
      "d": 373.4375,
      "v": 86
    },
    {
      "midi": 64,
      "hit": false,
      "t": 81000,
      "d": 317.1875,
      "v": 87
    },
    {
      "midi": 57,
      "hit": false,
      "t": 81378.125,
      "d": 321.875,
      "v": 75
    },
    {
      "midi": 60,
      "hit": false,
      "t": 81753.125,
      "d": 421.875,
      "v": 93
    },
    {
      "midi": 64,
      "hit": false,
      "t": 81754.6875,
      "d": 307.8125,
      "v": 99
    },
    {
      "midi": 57,
      "hit": false,
      "t": 81760.9375,
      "d": 48.4375,
      "v": 58
    },
    {
      "midi": 57,
      "hit": false,
      "t": 82123.4375,
      "d": 387.5,
      "v": 84
    },
    {
      "midi": 57,
      "hit": false,
      "t": 82865.625,
      "d": 331.25,
      "v": 80
    },
    {
      "midi": 60,
      "hit": false,
      "t": 83246.875,
      "d": 367.1875,
      "v": 88
    },
    {
      "midi": 64,
      "hit": false,
      "t": 83248.4375,
      "d": 353.125,
      "v": 86
    },
    {
      "midi": 57,
      "hit": false,
      "t": 83628.125,
      "d": 140.625,
      "v": 75
    },
    {
      "midi": 53,
      "hit": false,
      "t": 83998.4375,
      "d": 296.875,
      "v": 78
    },
    {
      "midi": 41,
      "hit": false,
      "t": 84000,
      "d": 295.3125,
      "v": 87
    },
    {
      "midi": 65,
      "hit": false,
      "t": 84001.5625,
      "d": 357.8125,
      "v": 88
    },
    {
      "midi": 60,
      "hit": false,
      "t": 84003.125,
      "d": 360.9375,
      "v": 87
    },
    {
      "midi": 57,
      "hit": false,
      "t": 84004.6875,
      "d": 256.25,
      "v": 82
    },
    {
      "midi": 57,
      "hit": false,
      "t": 84376.5625,
      "d": 450,
      "v": 72
    },
    {
      "midi": 60,
      "hit": false,
      "t": 84753.125,
      "d": 670.3125,
      "v": 86
    },
    {
      "midi": 65,
      "hit": false,
      "t": 84754.6875,
      "d": 657.8125,
      "v": 83
    },
    {
      "midi": 57,
      "hit": false,
      "t": 85118.75,
      "d": 331.25,
      "v": 87
    },
    {
      "midi": 57,
      "hit": false,
      "t": 85865.625,
      "d": 321.875,
      "v": 82
    },
    {
      "midi": 65,
      "hit": false,
      "t": 86250,
      "d": 648.4375,
      "v": 86
    },
    {
      "midi": 60,
      "hit": false,
      "t": 86251.5625,
      "d": 632.8125,
      "v": 87
    },
    {
      "midi": 57,
      "hit": false,
      "t": 86253.125,
      "d": 45.3125,
      "v": 68
    },
    {
      "midi": 57,
      "hit": false,
      "t": 86618.75,
      "d": 293.75,
      "v": 75
    },
    {
      "midi": 41,
      "hit": false,
      "t": 87000,
      "d": 2996.875,
      "v": 87
    },
    {
      "midi": 53,
      "hit": false,
      "t": 87000,
      "d": 2996.875,
      "v": 78
    },
    {
      "midi": 65,
      "hit": false,
      "t": 87001.5625,
      "d": 2995.3125,
      "v": 88
    },
    {
      "midi": 60,
      "hit": false,
      "t": 87003.125,
      "d": 2993.75,
      "v": 87
    },
    {
      "midi": 57,
      "hit": false,
      "t": 87004.6875,
      "d": 2992.1875,
      "v": 82
    },
    {
      "midi": 48,
      "hit": false,
      "t": 90003.125,
      "d": 2706.25,
      "v": 99
    },
    {
      "midi": 52,
      "hit": false,
      "t": 90379.6875,
      "d": 2501.5625,
      "v": 81
    },
    {
      "midi": 55,
      "hit": false,
      "t": 90745.3125,
      "d": 2307.8125,
      "v": 77
    },
    {
      "midi": 64,
      "hit": false,
      "t": 91121.875,
      "d": 1951.5625,
      "v": 93
    },
    {
      "midi": 60,
      "hit": false,
      "t": 91123.4375,
      "d": 1868.75,
      "v": 91
    },
    {
      "midi": 47,
      "hit": false,
      "t": 92990.625,
      "d": 2582.8125,
      "v": 87
    },
    {
      "midi": 50,
      "hit": false,
      "t": 93368.75,
      "d": 2529.6875,
      "v": 87
    },
    {
      "midi": 55,
      "hit": false,
      "t": 93743.75,
      "d": 2506.25,
      "v": 75
    },
    {
      "midi": 59,
      "hit": false,
      "t": 94125,
      "d": 1909.375,
      "v": 104
    },
    {
      "midi": 64,
      "hit": false,
      "t": 94126.5625,
      "d": 1912.5,
      "v": 89
    },
    {
      "midi": 40,
      "hit": false,
      "t": 95993.75,
      "d": 2693.75,
      "v": 84
    },
    {
      "midi": 47,
      "hit": false,
      "t": 96368.75,
      "d": 2351.5625,
      "v": 88
    },
    {
      "midi": 52,
      "hit": false,
      "t": 96745.3125,
      "d": 2154.6875,
      "v": 86
    },
    {
      "midi": 55,
      "hit": false,
      "t": 97118.75,
      "d": 2392.1875,
      "v": 83
    },
    {
      "midi": 64,
      "hit": false,
      "t": 97120.3125,
      "d": 2429.6875,
      "v": 93
    },
    {
      "midi": 59,
      "hit": false,
      "t": 97125,
      "d": 2423.4375,
      "v": 102
    },
    {
      "midi": 41,
      "hit": false,
      "t": 98996.875,
      "d": 2932.8125,
      "v": 87
    },
    {
      "midi": 48,
      "hit": false,
      "t": 99381.25,
      "d": 2532.8125,
      "v": 99
    },
    {
      "midi": 53,
      "hit": false,
      "t": 99756.25,
      "d": 2156.25,
      "v": 104
    },
    {
      "midi": 60,
      "hit": false,
      "t": 100126.5625,
      "d": 1785.9375,
      "v": 99
    },
    {
      "midi": 65,
      "hit": false,
      "t": 100128.125,
      "d": 1770.3125,
      "v": 84
    },
    {
      "midi": 55,
      "hit": false,
      "t": 100129.6875,
      "d": 1082.8125,
      "v": 91
    },
    {
      "midi": 57,
      "hit": false,
      "t": 101242.1875,
      "d": 685.9375,
      "v": 66
    },
    {
      "midi": 48,
      "hit": false,
      "t": 102003.125,
      "d": 2706.25,
      "v": 99
    },
    {
      "midi": 52,
      "hit": false,
      "t": 102379.6875,
      "d": 2501.5625,
      "v": 81
    },
    {
      "midi": 55,
      "hit": false,
      "t": 102745.3125,
      "d": 2307.8125,
      "v": 77
    },
    {
      "midi": 64,
      "hit": false,
      "t": 103121.875,
      "d": 1951.5625,
      "v": 93
    },
    {
      "midi": 60,
      "hit": false,
      "t": 103123.4375,
      "d": 1868.75,
      "v": 91
    },
    {
      "midi": 47,
      "hit": false,
      "t": 104990.625,
      "d": 2582.8125,
      "v": 87
    },
    {
      "midi": 50,
      "hit": false,
      "t": 105368.75,
      "d": 2529.6875,
      "v": 87
    },
    {
      "midi": 55,
      "hit": false,
      "t": 105743.75,
      "d": 2506.25,
      "v": 75
    },
    {
      "midi": 59,
      "hit": false,
      "t": 106125,
      "d": 1909.375,
      "v": 104
    },
    {
      "midi": 64,
      "hit": false,
      "t": 106126.5625,
      "d": 1912.5,
      "v": 89
    },
    {
      "midi": 40,
      "hit": false,
      "t": 107993.75,
      "d": 2693.75,
      "v": 84
    },
    {
      "midi": 47,
      "hit": false,
      "t": 108368.75,
      "d": 2351.5625,
      "v": 88
    },
    {
      "midi": 52,
      "hit": false,
      "t": 108745.3125,
      "d": 2154.6875,
      "v": 86
    },
    {
      "midi": 55,
      "hit": false,
      "t": 109118.75,
      "d": 2392.1875,
      "v": 83
    },
    {
      "midi": 64,
      "hit": false,
      "t": 109120.3125,
      "d": 2429.6875,
      "v": 93
    },
    {
      "midi": 59,
      "hit": false,
      "t": 109125,
      "d": 2423.4375,
      "v": 102
    },
    {
      "midi": 41,
      "hit": false,
      "t": 110996.875,
      "d": 2932.8125,
      "v": 87
    },
    {
      "midi": 48,
      "hit": false,
      "t": 111381.25,
      "d": 2532.8125,
      "v": 99
    },
    {
      "midi": 53,
      "hit": false,
      "t": 111756.25,
      "d": 2156.25,
      "v": 104
    },
    {
      "midi": 60,
      "hit": false,
      "t": 112126.5625,
      "d": 1785.9375,
      "v": 99
    },
    {
      "midi": 65,
      "hit": false,
      "t": 112128.125,
      "d": 1770.3125,
      "v": 84
    },
    {
      "midi": 55,
      "hit": false,
      "t": 112129.6875,
      "d": 1082.8125,
      "v": 91
    },
    {
      "midi": 57,
      "hit": false,
      "t": 113242.1875,
      "d": 685.9375,
      "v": 66
    },
    {
      "midi": 48,
      "hit": false,
      "t": 114000,
      "d": 2871.875,
      "v": 104
    },
    {
      "midi": 55,
      "hit": false,
      "t": 114743.75,
      "d": 1407.8125,
      "v": 82
    },
    {
      "midi": 64,
      "hit": false,
      "t": 115120.3125,
      "d": 1796.875,
      "v": 91
    },
    {
      "midi": 60,
      "hit": false,
      "t": 115120.3125,
      "d": 1857.8125,
      "v": 99
    },
    {
      "midi": 55,
      "hit": false,
      "t": 116243.75,
      "d": 773.4375,
      "v": 80
    },
    {
      "midi": 43,
      "hit": false,
      "t": 116995.3125,
      "d": 2923.4375,
      "v": 99
    },
    {
      "midi": 55,
      "hit": false,
      "t": 117743.75,
      "d": 1459.375,
      "v": 80
    },
    {
      "midi": 62,
      "hit": false,
      "t": 118121.875,
      "d": 1850,
      "v": 102
    },
    {
      "midi": 59,
      "hit": false,
      "t": 118121.875,
      "d": 1882.8125,
      "v": 88
    },
    {
      "midi": 55,
      "hit": false,
      "t": 119246.875,
      "d": 723.4375,
      "v": 78
    },
    {
      "midi": 45,
      "hit": false,
      "t": 119995.3125,
      "d": 2943.75,
      "v": 93
    },
    {
      "midi": 57,
      "hit": false,
      "t": 120746.875,
      "d": 2167.1875,
      "v": 87
    },
    {
      "midi": 64,
      "hit": false,
      "t": 121117.1875,
      "d": 1826.5625,
      "v": 87
    },
    {
      "midi": 59,
      "hit": false,
      "t": 121125,
      "d": 746.875,
      "v": 84
    },
    {
      "midi": 60,
      "hit": false,
      "t": 121875,
      "d": 1121.875,
      "v": 86
    },
    {
      "midi": 67,
      "hit": false,
      "t": 123000,
      "d": 179.6875,
      "v": 42
    },
    {
      "midi": 43,
      "hit": false,
      "t": 123000,
      "d": 193.75,
      "v": 31
    },
    {
      "midi": 59,
      "hit": false,
      "t": 123001.5625,
      "d": 104.6875,
      "v": 42
    },
    {
      "midi": 62,
      "hit": false,
      "t": 123001.5625,
      "d": 148.4375,
      "v": 42
    },
    {
      "midi": 55,
      "hit": false,
      "t": 123001.5625,
      "d": 187.5,
      "v": 42
    },
    {
      "midi": 67,
      "hit": false,
      "t": 123370.3125,
      "d": 181.25,
      "v": 47
    },
    {
      "midi": 62,
      "hit": false,
      "t": 123371.875,
      "d": 150,
      "v": 47
    },
    {
      "midi": 59,
      "hit": false,
      "t": 123373.4375,
      "d": 104.6875,
      "v": 47
    },
    {
      "midi": 43,
      "hit": false,
      "t": 123373.4375,
      "d": 170.3125,
      "v": 47
    },
    {
      "midi": 55,
      "hit": false,
      "t": 123373.4375,
      "d": 187.5,
      "v": 47
    },
    {
      "midi": 43,
      "hit": false,
      "t": 123743.75,
      "d": 193.75,
      "v": 52
    },
    {
      "midi": 55,
      "hit": false,
      "t": 123743.75,
      "d": 209.375,
      "v": 52
    },
    {
      "midi": 59,
      "hit": false,
      "t": 123745.3125,
      "d": 160.9375,
      "v": 52
    },
    {
      "midi": 67,
      "hit": false,
      "t": 123745.3125,
      "d": 168.75,
      "v": 52
    },
    {
      "midi": 62,
      "hit": false,
      "t": 123745.3125,
      "d": 187.5,
      "v": 52
    },
    {
      "midi": 43,
      "hit": false,
      "t": 124118.75,
      "d": 170.3125,
      "v": 57
    },
    {
      "midi": 62,
      "hit": false,
      "t": 124120.3125,
      "d": 168.75,
      "v": 56
    },
    {
      "midi": 59,
      "hit": false,
      "t": 124120.3125,
      "d": 175,
      "v": 48
    },
    {
      "midi": 67,
      "hit": false,
      "t": 124120.3125,
      "d": 184.375,
      "v": 48
    },
    {
      "midi": 55,
      "hit": false,
      "t": 124120.3125,
      "d": 189.0625,
      "v": 44
    },
    {
      "midi": 43,
      "hit": false,
      "t": 124493.75,
      "d": 201.5625,
      "v": 84
    },
    {
      "midi": 59,
      "hit": false,
      "t": 124493.75,
      "d": 206.25,
      "v": 75
    },
    {
      "midi": 67,
      "hit": false,
      "t": 124493.75,
      "d": 215.625,
      "v": 80
    },
    {
      "midi": 62,
      "hit": false,
      "t": 124495.3125,
      "d": 182.8125,
      "v": 70
    },
    {
      "midi": 55,
      "hit": false,
      "t": 124495.3125,
      "d": 215.625,
      "v": 73
    },
    {
      "midi": 67,
      "hit": false,
      "t": 124868.75,
      "d": 207.8125,
      "v": 87
    },
    {
      "midi": 59,
      "hit": false,
      "t": 124868.75,
      "d": 226.5625,
      "v": 86
    },
    {
      "midi": 55,
      "hit": false,
      "t": 124868.75,
      "d": 240.625,
      "v": 82
    },
    {
      "midi": 43,
      "hit": false,
      "t": 124870.3125,
      "d": 184.375,
      "v": 86
    },
    {
      "midi": 62,
      "hit": false,
      "t": 124870.3125,
      "d": 198.4375,
      "v": 80
    },
    {
      "midi": 43,
      "hit": false,
      "t": 125243.75,
      "d": 168.75,
      "v": 99
    },
    {
      "midi": 67,
      "hit": false,
      "t": 125243.75,
      "d": 168.75,
      "v": 93
    },
    {
      "midi": 62,
      "hit": false,
      "t": 125245.3125,
      "d": 151.5625,
      "v": 89
    },
    {
      "midi": 59,
      "hit": false,
      "t": 125245.3125,
      "d": 157.8125,
      "v": 96
    },
    {
      "midi": 55,
      "hit": false,
      "t": 125245.3125,
      "d": 179.6875,
      "v": 84
    },
    {
      "midi": 43,
      "hit": false,
      "t": 125617.1875,
      "d": 387.5,
      "v": 88
    },
    {
      "midi": 67,
      "hit": false,
      "t": 125617.1875,
      "d": 387.5,
      "v": 87
    },
    {
      "midi": 59,
      "hit": false,
      "t": 125618.75,
      "d": 384.375,
      "v": 91
    },
    {
      "midi": 62,
      "hit": false,
      "t": 125618.75,
      "d": 384.375,
      "v": 91
    },
    {
      "midi": 55,
      "hit": false,
      "t": 126000,
      "d": 3.125,
      "v": 83
    },
    {
      "midi": 64,
      "hit": false,
      "t": 126001.5625,
      "d": 326.5625,
      "v": 88
    },
    {
      "midi": 48,
      "hit": false,
      "t": 126003.125,
      "d": 292.1875,
      "v": 102
    },
    {
      "midi": 60,
      "hit": false,
      "t": 126004.6875,
      "d": 343.75,
      "v": 93
    },
    {
      "midi": 55,
      "hit": false,
      "t": 126370.3125,
      "d": 553.125,
      "v": 54
    },
    {
      "midi": 60,
      "hit": false,
      "t": 126748.4375,
      "d": 731.25,
      "v": 88
    },
    {
      "midi": 64,
      "hit": false,
      "t": 126750,
      "d": 706.25,
      "v": 87
    },
    {
      "midi": 55,
      "hit": false,
      "t": 127123.4375,
      "d": 337.5,
      "v": 66
    },
    {
      "midi": 55,
      "hit": false,
      "t": 127867.1875,
      "d": 520.3125,
      "v": 78
    },
    {
      "midi": 60,
      "hit": false,
      "t": 128246.875,
      "d": 409.375,
      "v": 93
    },
    {
      "midi": 64,
      "hit": false,
      "t": 128248.4375,
      "d": 318.75,
      "v": 88
    },
    {
      "midi": 55,
      "hit": false,
      "t": 128631.25,
      "d": 234.375,
      "v": 68
    },
    {
      "midi": 47,
      "hit": false,
      "t": 128996.875,
      "d": 323.4375,
      "v": 83
    },
    {
      "midi": 59,
      "hit": false,
      "t": 128998.4375,
      "d": 362.5,
      "v": 91
    },
    {
      "midi": 55,
      "hit": false,
      "t": 129000,
      "d": 259.375,
      "v": 73
    },
    {
      "midi": 62,
      "hit": false,
      "t": 129001.5625,
      "d": 332.8125,
      "v": 96
    },
    {
      "midi": 55,
      "hit": false,
      "t": 129371.875,
      "d": 473.4375,
      "v": 65
    },
    {
      "midi": 59,
      "hit": false,
      "t": 129753.125,
      "d": 512.5,
      "v": 89
    },
    {
      "midi": 62,
      "hit": false,
      "t": 129754.6875,
      "d": 739.0625,
      "v": 99
    },
    {
      "midi": 55,
      "hit": false,
      "t": 130126.5625,
      "d": 465.625,
      "v": 75
    },
    {
      "midi": 55,
      "hit": false,
      "t": 130862.5,
      "d": 473.4375,
      "v": 75
    },
    {
      "midi": 59,
      "hit": false,
      "t": 131246.875,
      "d": 467.1875,
      "v": 89
    },
    {
      "midi": 62,
      "hit": false,
      "t": 131248.4375,
      "d": 442.1875,
      "v": 89
    },
    {
      "midi": 55,
      "hit": false,
      "t": 131623.4375,
      "d": 142.1875,
      "v": 71
    },
    {
      "midi": 57,
      "hit": false,
      "t": 131995.3125,
      "d": 256.25,
      "v": 80
    },
    {
      "midi": 52,
      "hit": false,
      "t": 131995.3125,
      "d": 370.3125,
      "v": 82
    },
    {
      "midi": 45,
      "hit": false,
      "t": 131996.875,
      "d": 385.9375,
      "v": 91
    },
    {
      "midi": 60,
      "hit": false,
      "t": 131998.4375,
      "d": 373.4375,
      "v": 86
    },
    {
      "midi": 64,
      "hit": false,
      "t": 132000,
      "d": 317.1875,
      "v": 87
    },
    {
      "midi": 57,
      "hit": false,
      "t": 132378.125,
      "d": 321.875,
      "v": 75
    },
    {
      "midi": 60,
      "hit": false,
      "t": 132753.125,
      "d": 421.875,
      "v": 93
    },
    {
      "midi": 64,
      "hit": false,
      "t": 132754.6875,
      "d": 307.8125,
      "v": 99
    },
    {
      "midi": 57,
      "hit": false,
      "t": 132760.9375,
      "d": 48.4375,
      "v": 58
    },
    {
      "midi": 57,
      "hit": false,
      "t": 133123.4375,
      "d": 387.5,
      "v": 84
    },
    {
      "midi": 57,
      "hit": false,
      "t": 133865.625,
      "d": 331.25,
      "v": 80
    },
    {
      "midi": 60,
      "hit": false,
      "t": 134246.875,
      "d": 367.1875,
      "v": 88
    },
    {
      "midi": 64,
      "hit": false,
      "t": 134248.4375,
      "d": 353.125,
      "v": 86
    },
    {
      "midi": 57,
      "hit": false,
      "t": 134628.125,
      "d": 140.625,
      "v": 75
    },
    {
      "midi": 53,
      "hit": false,
      "t": 134998.4375,
      "d": 296.875,
      "v": 78
    },
    {
      "midi": 41,
      "hit": false,
      "t": 135000,
      "d": 295.3125,
      "v": 87
    },
    {
      "midi": 65,
      "hit": false,
      "t": 135001.5625,
      "d": 357.8125,
      "v": 88
    },
    {
      "midi": 60,
      "hit": false,
      "t": 135003.125,
      "d": 360.9375,
      "v": 87
    },
    {
      "midi": 57,
      "hit": false,
      "t": 135004.6875,
      "d": 256.25,
      "v": 82
    },
    {
      "midi": 57,
      "hit": false,
      "t": 135376.5625,
      "d": 450,
      "v": 72
    },
    {
      "midi": 60,
      "hit": false,
      "t": 135753.125,
      "d": 670.3125,
      "v": 86
    },
    {
      "midi": 65,
      "hit": false,
      "t": 135754.6875,
      "d": 657.8125,
      "v": 83
    },
    {
      "midi": 57,
      "hit": false,
      "t": 136118.75,
      "d": 331.25,
      "v": 87
    },
    {
      "midi": 57,
      "hit": false,
      "t": 136865.625,
      "d": 321.875,
      "v": 82
    },
    {
      "midi": 65,
      "hit": false,
      "t": 137250,
      "d": 648.4375,
      "v": 86
    },
    {
      "midi": 60,
      "hit": false,
      "t": 137251.5625,
      "d": 632.8125,
      "v": 87
    },
    {
      "midi": 57,
      "hit": false,
      "t": 137253.125,
      "d": 45.3125,
      "v": 68
    },
    {
      "midi": 57,
      "hit": false,
      "t": 137618.75,
      "d": 293.75,
      "v": 75
    },
    {
      "midi": 55,
      "hit": false,
      "t": 138000,
      "d": 264.0625,
      "v": 83
    },
    {
      "midi": 64,
      "hit": false,
      "t": 138001.5625,
      "d": 326.5625,
      "v": 88
    },
    {
      "midi": 48,
      "hit": false,
      "t": 138003.125,
      "d": 292.1875,
      "v": 102
    },
    {
      "midi": 60,
      "hit": false,
      "t": 138004.6875,
      "d": 343.75,
      "v": 93
    },
    {
      "midi": 55,
      "hit": false,
      "t": 138370.3125,
      "d": 553.125,
      "v": 54
    },
    {
      "midi": 60,
      "hit": false,
      "t": 138748.4375,
      "d": 731.25,
      "v": 88
    },
    {
      "midi": 64,
      "hit": false,
      "t": 138750,
      "d": 706.25,
      "v": 87
    },
    {
      "midi": 55,
      "hit": false,
      "t": 139123.4375,
      "d": 337.5,
      "v": 66
    },
    {
      "midi": 55,
      "hit": false,
      "t": 139867.1875,
      "d": 520.3125,
      "v": 78
    },
    {
      "midi": 60,
      "hit": false,
      "t": 140246.875,
      "d": 409.375,
      "v": 93
    },
    {
      "midi": 64,
      "hit": false,
      "t": 140248.4375,
      "d": 318.75,
      "v": 88
    },
    {
      "midi": 55,
      "hit": false,
      "t": 140631.25,
      "d": 234.375,
      "v": 68
    },
    {
      "midi": 47,
      "hit": false,
      "t": 140996.875,
      "d": 323.4375,
      "v": 83
    },
    {
      "midi": 59,
      "hit": false,
      "t": 140998.4375,
      "d": 362.5,
      "v": 91
    },
    {
      "midi": 55,
      "hit": false,
      "t": 141000,
      "d": 259.375,
      "v": 73
    },
    {
      "midi": 62,
      "hit": false,
      "t": 141001.5625,
      "d": 332.8125,
      "v": 96
    },
    {
      "midi": 55,
      "hit": false,
      "t": 141371.875,
      "d": 473.4375,
      "v": 65
    },
    {
      "midi": 59,
      "hit": false,
      "t": 141753.125,
      "d": 512.5,
      "v": 89
    },
    {
      "midi": 62,
      "hit": false,
      "t": 141754.6875,
      "d": 739.0625,
      "v": 99
    },
    {
      "midi": 55,
      "hit": false,
      "t": 142126.5625,
      "d": 465.625,
      "v": 75
    },
    {
      "midi": 55,
      "hit": false,
      "t": 142862.5,
      "d": 473.4375,
      "v": 75
    },
    {
      "midi": 59,
      "hit": false,
      "t": 143246.875,
      "d": 467.1875,
      "v": 89
    },
    {
      "midi": 62,
      "hit": false,
      "t": 143248.4375,
      "d": 442.1875,
      "v": 89
    },
    {
      "midi": 55,
      "hit": false,
      "t": 143623.4375,
      "d": 142.1875,
      "v": 71
    },
    {
      "midi": 57,
      "hit": false,
      "t": 143995.3125,
      "d": 256.25,
      "v": 80
    },
    {
      "midi": 52,
      "hit": false,
      "t": 143995.3125,
      "d": 370.3125,
      "v": 82
    },
    {
      "midi": 45,
      "hit": false,
      "t": 143996.875,
      "d": 385.9375,
      "v": 91
    },
    {
      "midi": 60,
      "hit": false,
      "t": 143998.4375,
      "d": 373.4375,
      "v": 86
    },
    {
      "midi": 64,
      "hit": false,
      "t": 144000,
      "d": 317.1875,
      "v": 87
    },
    {
      "midi": 57,
      "hit": false,
      "t": 144378.125,
      "d": 321.875,
      "v": 75
    },
    {
      "midi": 60,
      "hit": false,
      "t": 144753.125,
      "d": 421.875,
      "v": 93
    },
    {
      "midi": 64,
      "hit": false,
      "t": 144754.6875,
      "d": 307.8125,
      "v": 99
    },
    {
      "midi": 57,
      "hit": false,
      "t": 144760.9375,
      "d": 48.4375,
      "v": 58
    },
    {
      "midi": 57,
      "hit": false,
      "t": 145123.4375,
      "d": 387.5,
      "v": 84
    },
    {
      "midi": 57,
      "hit": false,
      "t": 145865.625,
      "d": 331.25,
      "v": 80
    },
    {
      "midi": 60,
      "hit": false,
      "t": 146246.875,
      "d": 367.1875,
      "v": 88
    },
    {
      "midi": 64,
      "hit": false,
      "t": 146248.4375,
      "d": 353.125,
      "v": 86
    },
    {
      "midi": 57,
      "hit": false,
      "t": 146628.125,
      "d": 140.625,
      "v": 75
    },
    {
      "midi": 65,
      "hit": false,
      "t": 147000,
      "d": 179.6875,
      "v": 42
    },
    {
      "midi": 41,
      "hit": false,
      "t": 147000,
      "d": 193.75,
      "v": 87
    },
    {
      "midi": 60,
      "hit": false,
      "t": 147001.5625,
      "d": 150,
      "v": 42
    },
    {
      "midi": 57,
      "hit": false,
      "t": 147003.125,
      "d": 104.6875,
      "v": 42
    },
    {
      "midi": 53,
      "hit": false,
      "t": 147003.125,
      "d": 187.5,
      "v": 42
    },
    {
      "midi": 65,
      "hit": false,
      "t": 147371.875,
      "d": 179.6875,
      "v": 47
    },
    {
      "midi": 60,
      "hit": false,
      "t": 147373.4375,
      "d": 150,
      "v": 47
    },
    {
      "midi": 53,
      "hit": false,
      "t": 147373.4375,
      "d": 189.0625,
      "v": 47
    },
    {
      "midi": 57,
      "hit": false,
      "t": 147375,
      "d": 104.6875,
      "v": 47
    },
    {
      "midi": 41,
      "hit": false,
      "t": 147375,
      "d": 170.3125,
      "v": 47
    },
    {
      "midi": 57,
      "hit": false,
      "t": 147745.3125,
      "d": 162.5,
      "v": 52
    },
    {
      "midi": 60,
      "hit": false,
      "t": 147745.3125,
      "d": 187.5,
      "v": 52
    },
    {
      "midi": 41,
      "hit": false,
      "t": 147745.3125,
      "d": 193.75,
      "v": 52
    },
    {
      "midi": 53,
      "hit": false,
      "t": 147745.3125,
      "d": 209.375,
      "v": 52
    },
    {
      "midi": 65,
      "hit": false,
      "t": 147746.875,
      "d": 168.75,
      "v": 52
    },
    {
      "midi": 41,
      "hit": false,
      "t": 148120.3125,
      "d": 170.3125,
      "v": 57
    },
    {
      "midi": 57,
      "hit": false,
      "t": 148120.3125,
      "d": 176.5625,
      "v": 48
    },
    {
      "midi": 65,
      "hit": false,
      "t": 148120.3125,
      "d": 185.9375,
      "v": 48
    },
    {
      "midi": 60,
      "hit": false,
      "t": 148121.875,
      "d": 167.1875,
      "v": 56
    },
    {
      "midi": 53,
      "hit": false,
      "t": 148121.875,
      "d": 187.5,
      "v": 44
    },
    {
      "midi": 41,
      "hit": false,
      "t": 148493.75,
      "d": 201.5625,
      "v": 84
    },
    {
      "midi": 60,
      "hit": false,
      "t": 148495.3125,
      "d": 184.375,
      "v": 70
    },
    {
      "midi": 57,
      "hit": false,
      "t": 148495.3125,
      "d": 204.6875,
      "v": 75
    },
    {
      "midi": 65,
      "hit": false,
      "t": 148495.3125,
      "d": 214.0625,
      "v": 80
    },
    {
      "midi": 53,
      "hit": false,
      "t": 148495.3125,
      "d": 215.625,
      "v": 73
    },
    {
      "midi": 53,
      "hit": false,
      "t": 148868.75,
      "d": 240.625,
      "v": 82
    },
    {
      "midi": 41,
      "hit": false,
      "t": 148870.3125,
      "d": 184.375,
      "v": 86
    },
    {
      "midi": 60,
      "hit": false,
      "t": 148870.3125,
      "d": 198.4375,
      "v": 80
    },
    {
      "midi": 65,
      "hit": false,
      "t": 148870.3125,
      "d": 207.8125,
      "v": 87
    },
    {
      "midi": 57,
      "hit": false,
      "t": 148870.3125,
      "d": 225,
      "v": 86
    },
    {
      "midi": 60,
      "hit": false,
      "t": 149245.3125,
      "d": 151.5625,
      "v": 89
    },
    {
      "midi": 57,
      "hit": false,
      "t": 149245.3125,
      "d": 157.8125,
      "v": 96
    },
    {
      "midi": 41,
      "hit": false,
      "t": 149245.3125,
      "d": 167.1875,
      "v": 99
    },
    {
      "midi": 65,
      "hit": false,
      "t": 149245.3125,
      "d": 168.75,
      "v": 93
    },
    {
      "midi": 53,
      "hit": false,
      "t": 149245.3125,
      "d": 179.6875,
      "v": 84
    },
    {
      "midi": 57,
      "hit": false,
      "t": 149618.75,
      "d": 384.375,
      "v": 91
    },
    {
      "midi": 60,
      "hit": false,
      "t": 149618.75,
      "d": 384.375,
      "v": 91
    },
    {
      "midi": 41,
      "hit": false,
      "t": 149618.75,
      "d": 385.9375,
      "v": 88
    },
    {
      "midi": 53,
      "hit": false,
      "t": 149618.75,
      "d": 385.9375,
      "v": 91
    },
    {
      "midi": 65,
      "hit": false,
      "t": 149618.75,
      "d": 385.9375,
      "v": 87
    },
    {
      "midi": 55,
      "hit": false,
      "t": 150003.125,
      "d": 1312.5,
      "v": 97
    },
    {
      "midi": 59,
      "hit": false,
      "t": 150378.125,
      "d": 468.75,
      "v": 76
    },
    {
      "midi": 67,
      "hit": false,
      "t": 150751.5625,
      "d": 646.875,
      "v": 74
    },
    {
      "midi": 62,
      "hit": false,
      "t": 150751.5625,
      "d": 707.8125,
      "v": 83
    },
    {
      "midi": 59,
      "hit": false,
      "t": 151123.4375,
      "d": 360.9375,
      "v": 72
    },
    {
      "midi": 55,
      "hit": false,
      "t": 151518.75,
      "d": 945.3125,
      "v": 65
    },
    {
      "midi": 59,
      "hit": false,
      "t": 151871.875,
      "d": 503.125,
      "v": 72
    },
    {
      "midi": 67,
      "hit": false,
      "t": 152246.875,
      "d": 346.875,
      "v": 78
    },
    {
      "midi": 62,
      "hit": false,
      "t": 152246.875,
      "d": 675,
      "v": 97
    },
    {
      "midi": 59,
      "hit": false,
      "t": 152620.3125,
      "d": 331.25,
      "v": 78
    },
    {
      "midi": 53,
      "hit": false,
      "t": 152993.75,
      "d": 1478.125,
      "v": 89
    },
    {
      "midi": 57,
      "hit": false,
      "t": 153373.4375,
      "d": 618.75,
      "v": 78
    },
    {
      "midi": 65,
      "hit": false,
      "t": 153750,
      "d": 712.5,
      "v": 79
    },
    {
      "midi": 60,
      "hit": false,
      "t": 153750,
      "d": 721.875,
      "v": 94
    },
    {
      "midi": 57,
      "hit": false,
      "t": 154123.4375,
      "d": 354.6875,
      "v": 78
    },
    {
      "midi": 53,
      "hit": false,
      "t": 154517.1875,
      "d": 1007.8125,
      "v": 86
    },
    {
      "midi": 57,
      "hit": false,
      "t": 154871.875,
      "d": 553.125,
      "v": 77
    },
    {
      "midi": 65,
      "hit": false,
      "t": 155246.875,
      "d": 450,
      "v": 76
    },
    {
      "midi": 60,
      "hit": false,
      "t": 155248.4375,
      "d": 509.375,
      "v": 89
    },
    {
      "midi": 57,
      "hit": false,
      "t": 155620.3125,
      "d": 156.25,
      "v": 83
    },
    {
      "midi": 55,
      "hit": false,
      "t": 155993.75,
      "d": 2632.8125,
      "v": 81
    },
    {
      "midi": 59,
      "hit": false,
      "t": 156368.75,
      "d": 571.875,
      "v": 74
    },
    {
      "midi": 67,
      "hit": false,
      "t": 156745.3125,
      "d": 381.25,
      "v": 83
    },
    {
      "midi": 62,
      "hit": false,
      "t": 156745.3125,
      "d": 464.0625,
      "v": 92
    },
    {
      "midi": 59,
      "hit": false,
      "t": 157120.3125,
      "d": 382.8125,
      "v": 89
    },
    {
      "midi": 59,
      "hit": false,
      "t": 157865.625,
      "d": 459.375,
      "v": 81
    },
    {
      "midi": 62,
      "hit": false,
      "t": 158245.3125,
      "d": 370.3125,
      "v": 83
    },
    {
      "midi": 67,
      "hit": false,
      "t": 158245.3125,
      "d": 375,
      "v": 76
    },
    {
      "midi": 59,
      "hit": false,
      "t": 158620.3125,
      "d": 140.625,
      "v": 74
    },
    {
      "midi": 53,
      "hit": false,
      "t": 158995.3125,
      "d": 2195.3125,
      "v": 78
    },
    {
      "midi": 57,
      "hit": false,
      "t": 159371.875,
      "d": 456.25,
      "v": 73
    },
    {
      "midi": 65,
      "hit": false,
      "t": 159746.875,
      "d": 375,
      "v": 76
    },
    {
      "midi": 60,
      "hit": false,
      "t": 159748.4375,
      "d": 420.3125,
      "v": 86
    },
    {
      "midi": 57,
      "hit": false,
      "t": 160120.3125,
      "d": 403.125,
      "v": 78
    },
    {
      "midi": 57,
      "hit": false,
      "t": 160868.75,
      "d": 331.25,
      "v": 78
    },
    {
      "midi": 65,
      "hit": false,
      "t": 161245.3125,
      "d": 326.5625,
      "v": 76
    },
    {
      "midi": 60,
      "hit": false,
      "t": 161245.3125,
      "d": 396.875,
      "v": 81
    },
    {
      "midi": 57,
      "hit": false,
      "t": 161621.875,
      "d": 134.375,
      "v": 83
    },
    {
      "midi": 55,
      "hit": false,
      "t": 161993.75,
      "d": 421.875,
      "v": 76
    },
    {
      "midi": 59,
      "hit": false,
      "t": 162370.3125,
      "d": 329.6875,
      "v": 74
    },
    {
      "midi": 67,
      "hit": false,
      "t": 162746.875,
      "d": 332.8125,
      "v": 83
    },
    {
      "midi": 62,
      "hit": false,
      "t": 162746.875,
      "d": 335.9375,
      "v": 83
    },
    {
      "midi": 59,
      "hit": false,
      "t": 163118.75,
      "d": 332.8125,
      "v": 74
    },
    {
      "midi": 59,
      "hit": false,
      "t": 163867.1875,
      "d": 456.25,
      "v": 74
    },
    {
      "midi": 67,
      "hit": false,
      "t": 164245.3125,
      "d": 367.1875,
      "v": 78
    },
    {
      "midi": 62,
      "hit": false,
      "t": 164246.875,
      "d": 409.375,
      "v": 81
    },
    {
      "midi": 59,
      "hit": false,
      "t": 164621.875,
      "d": 170.3125,
      "v": 77
    },
    {
      "midi": 53,
      "hit": false,
      "t": 164995.3125,
      "d": 728.125,
      "v": 89
    },
    {
      "midi": 57,
      "hit": false,
      "t": 165370.3125,
      "d": 306.25,
      "v": 77
    },
    {
      "midi": 65,
      "hit": false,
      "t": 165745.3125,
      "d": 348.4375,
      "v": 73
    },
    {
      "midi": 60,
      "hit": false,
      "t": 165745.3125,
      "d": 351.5625,
      "v": 83
    },
    {
      "midi": 57,
      "hit": false,
      "t": 166120.3125,
      "d": 335.9375,
      "v": 79
    },
    {
      "midi": 57,
      "hit": false,
      "t": 166867.1875,
      "d": 385.9375,
      "v": 78
    },
    {
      "midi": 65,
      "hit": false,
      "t": 167246.875,
      "d": 425,
      "v": 72
    },
    {
      "midi": 60,
      "hit": false,
      "t": 167246.875,
      "d": 457.8125,
      "v": 79
    },
    {
      "midi": 57,
      "hit": false,
      "t": 167620.3125,
      "d": 115.625,
      "v": 61
    },
    {
      "midi": 57,
      "hit": false,
      "t": 167995.3125,
      "d": 1500,
      "v": 78
    },
    {
      "midi": 60,
      "hit": false,
      "t": 168371.875,
      "d": 518.75,
      "v": 74
    },
    {
      "midi": 69,
      "hit": false,
      "t": 168746.875,
      "d": 451.5625,
      "v": 76
    },
    {
      "midi": 64,
      "hit": false,
      "t": 168746.875,
      "d": 493.75,
      "v": 74
    },
    {
      "midi": 60,
      "hit": false,
      "t": 169120.3125,
      "d": 368.75,
      "v": 74
    },
    {
      "midi": 57,
      "hit": false,
      "t": 169860.9375,
      "d": 823.4375,
      "v": 65
    },
    {
      "midi": 69,
      "hit": false,
      "t": 170242.1875,
      "d": 401.5625,
      "v": 77
    },
    {
      "midi": 64,
      "hit": false,
      "t": 170243.75,
      "d": 406.25,
      "v": 76
    },
    {
      "midi": 60,
      "hit": false,
      "t": 170621.875,
      "d": 239.0625,
      "v": 77
    },
    {
      "midi": 55,
      "hit": false,
      "t": 170992.1875,
      "d": 1401.5625,
      "v": 78
    },
    {
      "midi": 59,
      "hit": false,
      "t": 171368.75,
      "d": 240.625,
      "v": 66
    },
    {
      "midi": 67,
      "hit": false,
      "t": 171745.3125,
      "d": 329.6875,
      "v": 77
    },
    {
      "midi": 62,
      "hit": false,
      "t": 171745.3125,
      "d": 351.5625,
      "v": 81
    },
    {
      "midi": 59,
      "hit": false,
      "t": 172120.3125,
      "d": 242.1875,
      "v": 66
    },
    {
      "midi": 59,
      "hit": false,
      "t": 172865.625,
      "d": 448.4375,
      "v": 78
    },
    {
      "midi": 67,
      "hit": false,
      "t": 173240.625,
      "d": 150,
      "v": 72
    },
    {
      "midi": 62,
      "hit": false,
      "t": 173242.1875,
      "d": 215.625,
      "v": 74
    },
    {
      "midi": 59,
      "hit": false,
      "t": 173620.3125,
      "d": 93.75,
      "v": 71
    },
    {
      "midi": 59,
      "hit": false,
      "t": 174000,
      "d": 2992.1875,
      "v": 82
    },
    {
      "midi": 62,
      "hit": false,
      "t": 174000,
      "d": 2993.75,
      "v": 87
    },
    {
      "midi": 67,
      "hit": false,
      "t": 174000,
      "d": 2995.3125,
      "v": 88
    },
    {
      "midi": 43,
      "hit": false,
      "t": 174000,
      "d": 2996.875,
      "v": 87
    },
    {
      "midi": 55,
      "hit": false,
      "t": 174000,
      "d": 2996.875,
      "v": 78
    },
    {
      "midi": 48,
      "hit": false,
      "t": 177003.125,
      "d": 2706.25,
      "v": 89
    },
    {
      "midi": 52,
      "hit": false,
      "t": 177379.6875,
      "d": 2501.5625,
      "v": 71
    },
    {
      "midi": 55,
      "hit": false,
      "t": 177745.3125,
      "d": 2307.8125,
      "v": 67
    },
    {
      "midi": 64,
      "hit": false,
      "t": 178121.875,
      "d": 1951.5625,
      "v": 83
    },
    {
      "midi": 60,
      "hit": false,
      "t": 178123.4375,
      "d": 1868.75,
      "v": 81
    },
    {
      "midi": 47,
      "hit": false,
      "t": 179990.625,
      "d": 2582.8125,
      "v": 77
    },
    {
      "midi": 50,
      "hit": false,
      "t": 180368.75,
      "d": 2529.6875,
      "v": 77
    },
    {
      "midi": 55,
      "hit": false,
      "t": 180743.75,
      "d": 2506.25,
      "v": 65
    },
    {
      "midi": 60,
      "hit": false,
      "t": 181126.5625,
      "d": 1909.375,
      "v": 94
    },
    {
      "midi": 64,
      "hit": false,
      "t": 181126.5625,
      "d": 1912.5,
      "v": 79
    },
    {
      "midi": 40,
      "hit": false,
      "t": 182993.75,
      "d": 2693.75,
      "v": 74
    },
    {
      "midi": 47,
      "hit": false,
      "t": 183368.75,
      "d": 2351.5625,
      "v": 78
    },
    {
      "midi": 52,
      "hit": false,
      "t": 183745.3125,
      "d": 2154.6875,
      "v": 76
    },
    {
      "midi": 55,
      "hit": false,
      "t": 184118.75,
      "d": 2392.1875,
      "v": 73
    },
    {
      "midi": 64,
      "hit": false,
      "t": 184120.3125,
      "d": 2429.6875,
      "v": 83
    },
    {
      "midi": 59,
      "hit": false,
      "t": 184125,
      "d": 2423.4375,
      "v": 92
    },
    {
      "midi": 41,
      "hit": false,
      "t": 185996.875,
      "d": 2932.8125,
      "v": 77
    },
    {
      "midi": 48,
      "hit": false,
      "t": 186381.25,
      "d": 2532.8125,
      "v": 89
    },
    {
      "midi": 53,
      "hit": false,
      "t": 186756.25,
      "d": 2156.25,
      "v": 94
    },
    {
      "midi": 60,
      "hit": false,
      "t": 187126.5625,
      "d": 1785.9375,
      "v": 89
    },
    {
      "midi": 65,
      "hit": false,
      "t": 187128.125,
      "d": 1770.3125,
      "v": 74
    },
    {
      "midi": 55,
      "hit": false,
      "t": 187129.6875,
      "d": 1082.8125,
      "v": 81
    },
    {
      "midi": 57,
      "hit": false,
      "t": 188242.1875,
      "d": 685.9375,
      "v": 56
    },
    {
      "midi": 48,
      "hit": false,
      "t": 189003.125,
      "d": 2706.25,
      "v": 89
    },
    {
      "midi": 52,
      "hit": false,
      "t": 189379.6875,
      "d": 2501.5625,
      "v": 71
    },
    {
      "midi": 55,
      "hit": false,
      "t": 189745.3125,
      "d": 2307.8125,
      "v": 67
    },
    {
      "midi": 64,
      "hit": false,
      "t": 190121.875,
      "d": 1951.5625,
      "v": 83
    },
    {
      "midi": 60,
      "hit": false,
      "t": 190123.4375,
      "d": 1868.75,
      "v": 81
    },
    {
      "midi": 47,
      "hit": false,
      "t": 191990.625,
      "d": 2582.8125,
      "v": 77
    },
    {
      "midi": 50,
      "hit": false,
      "t": 192368.75,
      "d": 2529.6875,
      "v": 77
    },
    {
      "midi": 55,
      "hit": false,
      "t": 192743.75,
      "d": 2506.25,
      "v": 65
    },
    {
      "midi": 60,
      "hit": false,
      "t": 193126.5625,
      "d": 1909.375,
      "v": 94
    },
    {
      "midi": 64,
      "hit": false,
      "t": 193126.5625,
      "d": 1912.5,
      "v": 79
    },
    {
      "midi": 40,
      "hit": false,
      "t": 194993.75,
      "d": 2693.75,
      "v": 74
    },
    {
      "midi": 47,
      "hit": false,
      "t": 195368.75,
      "d": 2351.5625,
      "v": 78
    },
    {
      "midi": 52,
      "hit": false,
      "t": 195745.3125,
      "d": 2154.6875,
      "v": 76
    },
    {
      "midi": 55,
      "hit": false,
      "t": 196118.75,
      "d": 2392.1875,
      "v": 73
    },
    {
      "midi": 64,
      "hit": false,
      "t": 196120.3125,
      "d": 2429.6875,
      "v": 83
    },
    {
      "midi": 59,
      "hit": false,
      "t": 196125,
      "d": 2423.4375,
      "v": 92
    },
    {
      "midi": 41,
      "hit": false,
      "t": 197996.875,
      "d": 2932.8125,
      "v": 77
    },
    {
      "midi": 48,
      "hit": false,
      "t": 198381.25,
      "d": 2532.8125,
      "v": 89
    },
    {
      "midi": 53,
      "hit": false,
      "t": 198756.25,
      "d": 2156.25,
      "v": 94
    },
    {
      "midi": 60,
      "hit": false,
      "t": 199126.5625,
      "d": 1785.9375,
      "v": 89
    },
    {
      "midi": 65,
      "hit": false,
      "t": 199128.125,
      "d": 1770.3125,
      "v": 74
    },
    {
      "midi": 55,
      "hit": false,
      "t": 199129.6875,
      "d": 1082.8125,
      "v": 81
    },
    {
      "midi": 57,
      "hit": false,
      "t": 200242.1875,
      "d": 685.9375,
      "v": 56
    },
    {
      "midi": 55,
      "hit": false,
      "t": 201000,
      "d": 264.0625,
      "v": 83
    },
    {
      "midi": 64,
      "hit": false,
      "t": 201001.5625,
      "d": 326.5625,
      "v": 88
    },
    {
      "midi": 48,
      "hit": false,
      "t": 201003.125,
      "d": 292.1875,
      "v": 102
    },
    {
      "midi": 60,
      "hit": false,
      "t": 201004.6875,
      "d": 343.75,
      "v": 93
    },
    {
      "midi": 55,
      "hit": false,
      "t": 201370.3125,
      "d": 553.125,
      "v": 54
    },
    {
      "midi": 60,
      "hit": false,
      "t": 201748.4375,
      "d": 731.25,
      "v": 88
    },
    {
      "midi": 64,
      "hit": false,
      "t": 201750,
      "d": 706.25,
      "v": 87
    },
    {
      "midi": 55,
      "hit": false,
      "t": 202123.4375,
      "d": 337.5,
      "v": 66
    },
    {
      "midi": 55,
      "hit": false,
      "t": 202867.1875,
      "d": 520.3125,
      "v": 78
    },
    {
      "midi": 60,
      "hit": false,
      "t": 203246.875,
      "d": 409.375,
      "v": 93
    },
    {
      "midi": 64,
      "hit": false,
      "t": 203248.4375,
      "d": 318.75,
      "v": 88
    },
    {
      "midi": 55,
      "hit": false,
      "t": 203631.25,
      "d": 234.375,
      "v": 68
    },
    {
      "midi": 47,
      "hit": false,
      "t": 203996.875,
      "d": 323.4375,
      "v": 83
    },
    {
      "midi": 59,
      "hit": false,
      "t": 203998.4375,
      "d": 362.5,
      "v": 91
    },
    {
      "midi": 55,
      "hit": false,
      "t": 204000,
      "d": 259.375,
      "v": 73
    },
    {
      "midi": 62,
      "hit": false,
      "t": 204001.5625,
      "d": 332.8125,
      "v": 96
    },
    {
      "midi": 55,
      "hit": false,
      "t": 204371.875,
      "d": 473.4375,
      "v": 65
    },
    {
      "midi": 59,
      "hit": false,
      "t": 204753.125,
      "d": 512.5,
      "v": 89
    },
    {
      "midi": 62,
      "hit": false,
      "t": 204754.6875,
      "d": 739.0625,
      "v": 99
    },
    {
      "midi": 55,
      "hit": false,
      "t": 205126.5625,
      "d": 465.625,
      "v": 75
    },
    {
      "midi": 55,
      "hit": false,
      "t": 205862.5,
      "d": 473.4375,
      "v": 75
    },
    {
      "midi": 59,
      "hit": false,
      "t": 206246.875,
      "d": 467.1875,
      "v": 89
    },
    {
      "midi": 62,
      "hit": false,
      "t": 206248.4375,
      "d": 442.1875,
      "v": 89
    },
    {
      "midi": 55,
      "hit": false,
      "t": 206623.4375,
      "d": 142.1875,
      "v": 71
    },
    {
      "midi": 57,
      "hit": false,
      "t": 206995.3125,
      "d": 256.25,
      "v": 80
    },
    {
      "midi": 52,
      "hit": false,
      "t": 206995.3125,
      "d": 370.3125,
      "v": 82
    },
    {
      "midi": 45,
      "hit": false,
      "t": 206996.875,
      "d": 385.9375,
      "v": 91
    },
    {
      "midi": 60,
      "hit": false,
      "t": 206998.4375,
      "d": 373.4375,
      "v": 86
    },
    {
      "midi": 64,
      "hit": false,
      "t": 207000,
      "d": 317.1875,
      "v": 87
    },
    {
      "midi": 57,
      "hit": false,
      "t": 207378.125,
      "d": 321.875,
      "v": 75
    },
    {
      "midi": 60,
      "hit": false,
      "t": 207753.125,
      "d": 421.875,
      "v": 93
    },
    {
      "midi": 64,
      "hit": false,
      "t": 207754.6875,
      "d": 307.8125,
      "v": 99
    },
    {
      "midi": 57,
      "hit": false,
      "t": 207760.9375,
      "d": 48.4375,
      "v": 58
    },
    {
      "midi": 57,
      "hit": false,
      "t": 208123.4375,
      "d": 387.5,
      "v": 84
    },
    {
      "midi": 57,
      "hit": false,
      "t": 208865.625,
      "d": 331.25,
      "v": 80
    },
    {
      "midi": 60,
      "hit": false,
      "t": 209246.875,
      "d": 367.1875,
      "v": 88
    },
    {
      "midi": 64,
      "hit": false,
      "t": 209248.4375,
      "d": 353.125,
      "v": 86
    },
    {
      "midi": 57,
      "hit": false,
      "t": 209628.125,
      "d": 140.625,
      "v": 75
    },
    {
      "midi": 53,
      "hit": false,
      "t": 209998.4375,
      "d": 296.875,
      "v": 78
    },
    {
      "midi": 41,
      "hit": false,
      "t": 210000,
      "d": 295.3125,
      "v": 87
    },
    {
      "midi": 65,
      "hit": false,
      "t": 210001.5625,
      "d": 357.8125,
      "v": 88
    },
    {
      "midi": 60,
      "hit": false,
      "t": 210003.125,
      "d": 360.9375,
      "v": 87
    },
    {
      "midi": 57,
      "hit": false,
      "t": 210004.6875,
      "d": 256.25,
      "v": 82
    },
    {
      "midi": 57,
      "hit": false,
      "t": 210376.5625,
      "d": 450,
      "v": 72
    },
    {
      "midi": 60,
      "hit": false,
      "t": 210753.125,
      "d": 670.3125,
      "v": 86
    },
    {
      "midi": 65,
      "hit": false,
      "t": 210754.6875,
      "d": 657.8125,
      "v": 83
    },
    {
      "midi": 57,
      "hit": false,
      "t": 211118.75,
      "d": 331.25,
      "v": 87
    },
    {
      "midi": 57,
      "hit": false,
      "t": 211865.625,
      "d": 321.875,
      "v": 82
    },
    {
      "midi": 65,
      "hit": false,
      "t": 212250,
      "d": 648.4375,
      "v": 86
    },
    {
      "midi": 60,
      "hit": false,
      "t": 212251.5625,
      "d": 632.8125,
      "v": 87
    },
    {
      "midi": 57,
      "hit": false,
      "t": 212253.125,
      "d": 45.3125,
      "v": 68
    },
    {
      "midi": 57,
      "hit": false,
      "t": 212618.75,
      "d": 293.75,
      "v": 75
    },
    {
      "midi": 55,
      "hit": false,
      "t": 213000,
      "d": 264.0625,
      "v": 83
    },
    {
      "midi": 64,
      "hit": false,
      "t": 213001.5625,
      "d": 326.5625,
      "v": 88
    },
    {
      "midi": 48,
      "hit": false,
      "t": 213003.125,
      "d": 292.1875,
      "v": 102
    },
    {
      "midi": 60,
      "hit": false,
      "t": 213004.6875,
      "d": 343.75,
      "v": 93
    },
    {
      "midi": 55,
      "hit": false,
      "t": 213370.3125,
      "d": 553.125,
      "v": 54
    },
    {
      "midi": 60,
      "hit": false,
      "t": 213748.4375,
      "d": 731.25,
      "v": 88
    },
    {
      "midi": 64,
      "hit": false,
      "t": 213750,
      "d": 706.25,
      "v": 87
    },
    {
      "midi": 55,
      "hit": false,
      "t": 214123.4375,
      "d": 337.5,
      "v": 66
    },
    {
      "midi": 55,
      "hit": false,
      "t": 214867.1875,
      "d": 520.3125,
      "v": 78
    },
    {
      "midi": 60,
      "hit": false,
      "t": 215246.875,
      "d": 409.375,
      "v": 93
    },
    {
      "midi": 64,
      "hit": false,
      "t": 215248.4375,
      "d": 318.75,
      "v": 88
    },
    {
      "midi": 55,
      "hit": false,
      "t": 215631.25,
      "d": 234.375,
      "v": 68
    },
    {
      "midi": 47,
      "hit": false,
      "t": 215996.875,
      "d": 323.4375,
      "v": 83
    },
    {
      "midi": 59,
      "hit": false,
      "t": 215998.4375,
      "d": 362.5,
      "v": 91
    },
    {
      "midi": 55,
      "hit": false,
      "t": 216000,
      "d": 259.375,
      "v": 73
    },
    {
      "midi": 62,
      "hit": false,
      "t": 216001.5625,
      "d": 332.8125,
      "v": 96
    },
    {
      "midi": 55,
      "hit": false,
      "t": 216371.875,
      "d": 473.4375,
      "v": 65
    },
    {
      "midi": 59,
      "hit": false,
      "t": 216753.125,
      "d": 512.5,
      "v": 89
    },
    {
      "midi": 62,
      "hit": false,
      "t": 216754.6875,
      "d": 739.0625,
      "v": 99
    },
    {
      "midi": 55,
      "hit": false,
      "t": 217126.5625,
      "d": 465.625,
      "v": 75
    },
    {
      "midi": 55,
      "hit": false,
      "t": 217862.5,
      "d": 473.4375,
      "v": 75
    },
    {
      "midi": 59,
      "hit": false,
      "t": 218246.875,
      "d": 467.1875,
      "v": 89
    },
    {
      "midi": 62,
      "hit": false,
      "t": 218248.4375,
      "d": 442.1875,
      "v": 89
    },
    {
      "midi": 55,
      "hit": false,
      "t": 218623.4375,
      "d": 142.1875,
      "v": 71
    },
    {
      "midi": 57,
      "hit": false,
      "t": 218995.3125,
      "d": 256.25,
      "v": 80
    },
    {
      "midi": 52,
      "hit": false,
      "t": 218995.3125,
      "d": 370.3125,
      "v": 82
    },
    {
      "midi": 45,
      "hit": false,
      "t": 218996.875,
      "d": 385.9375,
      "v": 91
    },
    {
      "midi": 60,
      "hit": false,
      "t": 218998.4375,
      "d": 373.4375,
      "v": 86
    },
    {
      "midi": 64,
      "hit": false,
      "t": 219000,
      "d": 317.1875,
      "v": 87
    },
    {
      "midi": 57,
      "hit": false,
      "t": 219378.125,
      "d": 321.875,
      "v": 75
    },
    {
      "midi": 60,
      "hit": false,
      "t": 219753.125,
      "d": 421.875,
      "v": 93
    },
    {
      "midi": 64,
      "hit": false,
      "t": 219754.6875,
      "d": 307.8125,
      "v": 99
    },
    {
      "midi": 57,
      "hit": false,
      "t": 219760.9375,
      "d": 48.4375,
      "v": 58
    },
    {
      "midi": 57,
      "hit": false,
      "t": 220123.4375,
      "d": 387.5,
      "v": 84
    },
    {
      "midi": 57,
      "hit": false,
      "t": 220865.625,
      "d": 331.25,
      "v": 80
    },
    {
      "midi": 60,
      "hit": false,
      "t": 221246.875,
      "d": 367.1875,
      "v": 88
    },
    {
      "midi": 64,
      "hit": false,
      "t": 221248.4375,
      "d": 353.125,
      "v": 86
    },
    {
      "midi": 57,
      "hit": false,
      "t": 221628.125,
      "d": 140.625,
      "v": 75
    },
    {
      "midi": 53,
      "hit": false,
      "t": 221998.4375,
      "d": 296.875,
      "v": 78
    },
    {
      "midi": 41,
      "hit": false,
      "t": 222000,
      "d": 295.3125,
      "v": 87
    },
    {
      "midi": 65,
      "hit": false,
      "t": 222001.5625,
      "d": 357.8125,
      "v": 88
    },
    {
      "midi": 60,
      "hit": false,
      "t": 222003.125,
      "d": 360.9375,
      "v": 87
    },
    {
      "midi": 57,
      "hit": false,
      "t": 222004.6875,
      "d": 256.25,
      "v": 82
    },
    {
      "midi": 57,
      "hit": false,
      "t": 222376.5625,
      "d": 450,
      "v": 72
    },
    {
      "midi": 60,
      "hit": false,
      "t": 222753.125,
      "d": 670.3125,
      "v": 86
    },
    {
      "midi": 65,
      "hit": false,
      "t": 222754.6875,
      "d": 657.8125,
      "v": 83
    },
    {
      "midi": 57,
      "hit": false,
      "t": 223118.75,
      "d": 331.25,
      "v": 87
    },
    {
      "midi": 57,
      "hit": false,
      "t": 223865.625,
      "d": 321.875,
      "v": 82
    },
    {
      "midi": 65,
      "hit": false,
      "t": 224250,
      "d": 648.4375,
      "v": 86
    },
    {
      "midi": 60,
      "hit": false,
      "t": 224251.5625,
      "d": 632.8125,
      "v": 87
    },
    {
      "midi": 57,
      "hit": false,
      "t": 224253.125,
      "d": 45.3125,
      "v": 68
    },
    {
      "midi": 57,
      "hit": false,
      "t": 224618.75,
      "d": 293.75,
      "v": 75
    },
    {
      "midi": 55,
      "hit": false,
      "t": 225000,
      "d": 264.0625,
      "v": 83
    },
    {
      "midi": 64,
      "hit": false,
      "t": 225001.5625,
      "d": 326.5625,
      "v": 88
    },
    {
      "midi": 48,
      "hit": false,
      "t": 225003.125,
      "d": 292.1875,
      "v": 102
    },
    {
      "midi": 60,
      "hit": false,
      "t": 225004.6875,
      "d": 343.75,
      "v": 93
    },
    {
      "midi": 55,
      "hit": false,
      "t": 225370.3125,
      "d": 553.125,
      "v": 54
    },
    {
      "midi": 60,
      "hit": false,
      "t": 225748.4375,
      "d": 731.25,
      "v": 88
    },
    {
      "midi": 64,
      "hit": false,
      "t": 225750,
      "d": 706.25,
      "v": 87
    },
    {
      "midi": 55,
      "hit": false,
      "t": 226123.4375,
      "d": 337.5,
      "v": 66
    },
    {
      "midi": 55,
      "hit": false,
      "t": 226867.1875,
      "d": 520.3125,
      "v": 78
    },
    {
      "midi": 60,
      "hit": false,
      "t": 227246.875,
      "d": 409.375,
      "v": 93
    },
    {
      "midi": 64,
      "hit": false,
      "t": 227248.4375,
      "d": 318.75,
      "v": 88
    },
    {
      "midi": 55,
      "hit": false,
      "t": 227631.25,
      "d": 234.375,
      "v": 68
    },
    {
      "midi": 47,
      "hit": false,
      "t": 227996.875,
      "d": 323.4375,
      "v": 83
    },
    {
      "midi": 59,
      "hit": false,
      "t": 227998.4375,
      "d": 362.5,
      "v": 91
    },
    {
      "midi": 55,
      "hit": false,
      "t": 228000,
      "d": 259.375,
      "v": 73
    },
    {
      "midi": 62,
      "hit": false,
      "t": 228001.5625,
      "d": 332.8125,
      "v": 96
    },
    {
      "midi": 55,
      "hit": false,
      "t": 228371.875,
      "d": 473.4375,
      "v": 65
    },
    {
      "midi": 59,
      "hit": false,
      "t": 228753.125,
      "d": 512.5,
      "v": 89
    },
    {
      "midi": 62,
      "hit": false,
      "t": 228754.6875,
      "d": 739.0625,
      "v": 99
    },
    {
      "midi": 55,
      "hit": false,
      "t": 229126.5625,
      "d": 465.625,
      "v": 75
    },
    {
      "midi": 55,
      "hit": false,
      "t": 229862.5,
      "d": 473.4375,
      "v": 75
    },
    {
      "midi": 59,
      "hit": false,
      "t": 230246.875,
      "d": 467.1875,
      "v": 89
    },
    {
      "midi": 62,
      "hit": false,
      "t": 230248.4375,
      "d": 442.1875,
      "v": 89
    },
    {
      "midi": 55,
      "hit": false,
      "t": 230623.4375,
      "d": 142.1875,
      "v": 71
    },
    {
      "midi": 57,
      "hit": false,
      "t": 230995.3125,
      "d": 256.25,
      "v": 80
    },
    {
      "midi": 52,
      "hit": false,
      "t": 230995.3125,
      "d": 370.3125,
      "v": 82
    },
    {
      "midi": 45,
      "hit": false,
      "t": 230996.875,
      "d": 385.9375,
      "v": 91
    },
    {
      "midi": 60,
      "hit": false,
      "t": 230998.4375,
      "d": 373.4375,
      "v": 86
    },
    {
      "midi": 64,
      "hit": false,
      "t": 231000,
      "d": 317.1875,
      "v": 87
    },
    {
      "midi": 57,
      "hit": false,
      "t": 231378.125,
      "d": 321.875,
      "v": 75
    },
    {
      "midi": 60,
      "hit": false,
      "t": 231753.125,
      "d": 421.875,
      "v": 93
    },
    {
      "midi": 64,
      "hit": false,
      "t": 231754.6875,
      "d": 307.8125,
      "v": 99
    },
    {
      "midi": 57,
      "hit": false,
      "t": 231760.9375,
      "d": 48.4375,
      "v": 58
    },
    {
      "midi": 57,
      "hit": false,
      "t": 232123.4375,
      "d": 387.5,
      "v": 84
    },
    {
      "midi": 57,
      "hit": false,
      "t": 232865.625,
      "d": 331.25,
      "v": 80
    },
    {
      "midi": 60,
      "hit": false,
      "t": 233246.875,
      "d": 367.1875,
      "v": 88
    },
    {
      "midi": 64,
      "hit": false,
      "t": 233248.4375,
      "d": 353.125,
      "v": 86
    },
    {
      "midi": 57,
      "hit": false,
      "t": 233628.125,
      "d": 140.625,
      "v": 75
    },
    {
      "midi": 53,
      "hit": false,
      "t": 233998.4375,
      "d": 296.875,
      "v": 78
    },
    {
      "midi": 41,
      "hit": false,
      "t": 234000,
      "d": 295.3125,
      "v": 87
    },
    {
      "midi": 65,
      "hit": false,
      "t": 234001.5625,
      "d": 357.8125,
      "v": 88
    },
    {
      "midi": 60,
      "hit": false,
      "t": 234003.125,
      "d": 360.9375,
      "v": 87
    },
    {
      "midi": 57,
      "hit": false,
      "t": 234004.6875,
      "d": 256.25,
      "v": 82
    },
    {
      "midi": 57,
      "hit": false,
      "t": 234376.5625,
      "d": 450,
      "v": 72
    },
    {
      "midi": 60,
      "hit": false,
      "t": 234753.125,
      "d": 670.3125,
      "v": 86
    },
    {
      "midi": 65,
      "hit": false,
      "t": 234754.6875,
      "d": 657.8125,
      "v": 83
    },
    {
      "midi": 57,
      "hit": false,
      "t": 235118.75,
      "d": 331.25,
      "v": 87
    },
    {
      "midi": 57,
      "hit": false,
      "t": 235865.625,
      "d": 321.875,
      "v": 82
    },
    {
      "midi": 65,
      "hit": false,
      "t": 236250,
      "d": 648.4375,
      "v": 86
    },
    {
      "midi": 60,
      "hit": false,
      "t": 236251.5625,
      "d": 632.8125,
      "v": 87
    },
    {
      "midi": 57,
      "hit": false,
      "t": 236253.125,
      "d": 45.3125,
      "v": 68
    },
    {
      "midi": 57,
      "hit": false,
      "t": 236618.75,
      "d": 293.75,
      "v": 75
    },
    {
      "midi": 55,
      "hit": false,
      "t": 237000,
      "d": 264.0625,
      "v": 83
    },
    {
      "midi": 64,
      "hit": false,
      "t": 237001.5625,
      "d": 326.5625,
      "v": 88
    },
    {
      "midi": 48,
      "hit": false,
      "t": 237003.125,
      "d": 292.1875,
      "v": 102
    },
    {
      "midi": 60,
      "hit": false,
      "t": 237004.6875,
      "d": 343.75,
      "v": 93
    },
    {
      "midi": 55,
      "hit": false,
      "t": 237370.3125,
      "d": 553.125,
      "v": 54
    },
    {
      "midi": 60,
      "hit": false,
      "t": 237748.4375,
      "d": 731.25,
      "v": 88
    },
    {
      "midi": 64,
      "hit": false,
      "t": 237750,
      "d": 706.25,
      "v": 87
    },
    {
      "midi": 55,
      "hit": false,
      "t": 238123.4375,
      "d": 337.5,
      "v": 66
    },
    {
      "midi": 55,
      "hit": false,
      "t": 238867.1875,
      "d": 520.3125,
      "v": 78
    },
    {
      "midi": 60,
      "hit": false,
      "t": 239246.875,
      "d": 409.375,
      "v": 93
    },
    {
      "midi": 64,
      "hit": false,
      "t": 239248.4375,
      "d": 318.75,
      "v": 88
    },
    {
      "midi": 55,
      "hit": false,
      "t": 239631.25,
      "d": 234.375,
      "v": 68
    },
    {
      "midi": 47,
      "hit": false,
      "t": 239996.875,
      "d": 323.4375,
      "v": 83
    },
    {
      "midi": 59,
      "hit": false,
      "t": 239998.4375,
      "d": 362.5,
      "v": 91
    },
    {
      "midi": 55,
      "hit": false,
      "t": 240000,
      "d": 259.375,
      "v": 73
    },
    {
      "midi": 62,
      "hit": false,
      "t": 240001.5625,
      "d": 332.8125,
      "v": 96
    },
    {
      "midi": 55,
      "hit": false,
      "t": 240371.875,
      "d": 473.4375,
      "v": 65
    },
    {
      "midi": 59,
      "hit": false,
      "t": 240753.125,
      "d": 512.5,
      "v": 89
    },
    {
      "midi": 62,
      "hit": false,
      "t": 240754.6875,
      "d": 739.0625,
      "v": 99
    },
    {
      "midi": 55,
      "hit": false,
      "t": 241126.5625,
      "d": 465.625,
      "v": 75
    },
    {
      "midi": 55,
      "hit": false,
      "t": 241862.5,
      "d": 473.4375,
      "v": 75
    },
    {
      "midi": 59,
      "hit": false,
      "t": 242246.875,
      "d": 467.1875,
      "v": 89
    },
    {
      "midi": 62,
      "hit": false,
      "t": 242248.4375,
      "d": 442.1875,
      "v": 89
    },
    {
      "midi": 55,
      "hit": false,
      "t": 242623.4375,
      "d": 142.1875,
      "v": 71
    },
    {
      "midi": 57,
      "hit": false,
      "t": 242995.3125,
      "d": 256.25,
      "v": 80
    },
    {
      "midi": 52,
      "hit": false,
      "t": 242995.3125,
      "d": 370.3125,
      "v": 82
    },
    {
      "midi": 45,
      "hit": false,
      "t": 242996.875,
      "d": 385.9375,
      "v": 91
    },
    {
      "midi": 60,
      "hit": false,
      "t": 242998.4375,
      "d": 373.4375,
      "v": 86
    },
    {
      "midi": 64,
      "hit": false,
      "t": 243000,
      "d": 317.1875,
      "v": 87
    },
    {
      "midi": 57,
      "hit": false,
      "t": 243378.125,
      "d": 321.875,
      "v": 75
    },
    {
      "midi": 60,
      "hit": false,
      "t": 243753.125,
      "d": 421.875,
      "v": 93
    },
    {
      "midi": 64,
      "hit": false,
      "t": 243754.6875,
      "d": 307.8125,
      "v": 99
    },
    {
      "midi": 57,
      "hit": false,
      "t": 243760.9375,
      "d": 48.4375,
      "v": 58
    },
    {
      "midi": 57,
      "hit": false,
      "t": 244123.4375,
      "d": 387.5,
      "v": 84
    },
    {
      "midi": 57,
      "hit": false,
      "t": 244865.625,
      "d": 331.25,
      "v": 80
    },
    {
      "midi": 60,
      "hit": false,
      "t": 245246.875,
      "d": 367.1875,
      "v": 88
    },
    {
      "midi": 64,
      "hit": false,
      "t": 245248.4375,
      "d": 353.125,
      "v": 86
    },
    {
      "midi": 57,
      "hit": false,
      "t": 245628.125,
      "d": 140.625,
      "v": 75
    },
    {
      "midi": 53,
      "hit": false,
      "t": 245998.4375,
      "d": 5998.4375,
      "v": 78
    },
    {
      "midi": 41,
      "hit": false,
      "t": 246000,
      "d": 5996.875,
      "v": 87
    },
    {
      "midi": 65,
      "hit": false,
      "t": 246001.5625,
      "d": 5995.3125,
      "v": 88
    },
    {
      "midi": 60,
      "hit": false,
      "t": 246003.125,
      "d": 5993.75,
      "v": 87
    },
    {
      "midi": 57,
      "hit": false,
      "t": 246004.6875,
      "d": 5992.1875,
      "v": 82
    }
  ]
}