{
  "jsonPath": "Latin/Merengue/Jossie Esteban Y La Patrulla/me-gusta.json",
  "path": "Latin\\Merengue\\Jossie Esteban Y La Patrulla\\Me Gusta.mid",
  "name": "Me Gusta",
  "difficulty": "Advanced",
  "bpm": 130.00041166797027,
  "notes": [
    {
      "midi": 55,
      "hit": false,
      "t": 5540.847838541667,
      "d": 187.49940625,
      "v": 92
    },
    {
      "midi": 55,
      "hit": false,
      "t": 5858.154526041668,
      "d": 84.13434895833325,
      "v": 81
    },
    {
      "midi": 60,
      "hit": false,
      "t": 5956.711906250001,
      "d": 189.90324479166702,
      "v": 75
    },
    {
      "midi": 62,
      "hit": false,
      "t": 6218.730307291668,
      "d": 146.63415104166688,
      "v": 76
    },
    {
      "midi": 64,
      "hit": false,
      "t": 6449.4988072916685,
      "d": 146.63415104166688,
      "v": 61
    },
    {
      "midi": 67,
      "hit": false,
      "t": 6704.305692708335,
      "d": 533.6521562500002,
      "v": 54
    },
    {
      "midi": 65,
      "hit": false,
      "t": 7343.726744791669,
      "d": 201.92243750000034,
      "v": 80
    },
    {
      "midi": 65,
      "hit": false,
      "t": 7665.841109375003,
      "d": 96.15354166666657,
      "v": 75
    },
    {
      "midi": 64,
      "hit": false,
      "t": 7781.225359375003,
      "d": 156.24950520833318,
      "v": 68
    },
    {
      "midi": 62,
      "hit": false,
      "t": 8036.03224479167,
      "d": 124.99960416666636,
      "v": 77
    },
    {
      "midi": 60,
      "hit": false,
      "t": 8281.22377604167,
      "d": 134.61495833333356,
      "v": 92
    },
    {
      "midi": 57,
      "hit": false,
      "t": 8511.99227604167,
      "d": 122.59576562499933,
      "v": 82
    },
    {
      "midi": 55,
      "hit": false,
      "t": 8757.183807291669,
      "d": 240.38385416666642,
      "v": 96
    },
    {
      "midi": 55,
      "hit": false,
      "t": 9221.124645833335,
      "d": 218.7493072916659,
      "v": 95
    },
    {
      "midi": 55,
      "hit": false,
      "t": 9574.488911458335,
      "d": 79.3266718750001,
      "v": 76
    },
    {
      "midi": 60,
      "hit": false,
      "t": 9668.238614583335,
      "d": 194.71092187499926,
      "v": 76
    },
    {
      "midi": 62,
      "hit": false,
      "t": 9930.257015625,
      "d": 146.63415104166597,
      "v": 74
    },
    {
      "midi": 64,
      "hit": false,
      "t": 10146.602484375,
      "d": 139.4226354166658,
      "v": 65
    },
    {
      "midi": 67,
      "hit": false,
      "t": 10382.178661458332,
      "d": 490.38306250000096,
      "v": 82
    },
    {
      "midi": 65,
      "hit": false,
      "t": 11045.638098958334,
      "d": 185.09556770833296,
      "v": 76
    },
    {
      "midi": 65,
      "hit": false,
      "t": 11382.175494791667,
      "d": 93.74970312500045,
      "v": 76
    },
    {
      "midi": 64,
      "hit": false,
      "t": 11507.175098958334,
      "d": 144.23031249999985,
      "v": 67
    },
    {
      "midi": 62,
      "hit": false,
      "t": 11733.135921875,
      "d": 110.57657291666692,
      "v": 74
    },
    {
      "midi": 60,
      "hit": false,
      "t": 11968.712098958335,
      "d": 173.07637500000055,
      "v": 98
    },
    {
      "midi": 43,
      "hit": false,
      "t": 12925.43983854167,
      "d": 382.21032812500016,
      "v": 85
    },
    {
      "midi": 74,
      "hit": false,
      "t": 12927.843677083336,
      "d": 473.5561927083345,
      "v": 113
    },
    {
      "midi": 86,
      "hit": false,
      "t": 12927.843677083336,
      "d": 473.5561927083345,
      "v": 113
    },
    {
      "midi": 62,
      "hit": false,
      "t": 13151.400661458336,
      "d": 72.11515624999993,
      "v": 92
    },
    {
      "midi": 67,
      "hit": false,
      "t": 13151.400661458336,
      "d": 79.3266718750001,
      "v": 90
    },
    {
      "midi": 59,
      "hit": false,
      "t": 13156.20833854167,
      "d": 43.26909374999923,
      "v": 83
    },
    {
      "midi": 84,
      "hit": false,
      "t": 13362.938453125003,
      "d": 74.51899479166786,
      "v": 94
    },
    {
      "midi": 72,
      "hit": false,
      "t": 13362.938453125003,
      "d": 76.92283333333398,
      "v": 94
    },
    {
      "midi": 38,
      "hit": false,
      "t": 13386.97683854167,
      "d": 341.34507291666705,
      "v": 76
    },
    {
      "midi": 71,
      "hit": false,
      "t": 13588.899276041671,
      "d": 69.71131770833381,
      "v": 107
    },
    {
      "midi": 83,
      "hit": false,
      "t": 13588.899276041671,
      "d": 69.71131770833381,
      "v": 107
    },
    {
      "midi": 67,
      "hit": false,
      "t": 13593.706953125004,
      "d": 64.90364062499975,
      "v": 94
    },
    {
      "midi": 59,
      "hit": false,
      "t": 13596.11079166667,
      "d": 57.69212499999958,
      "v": 85
    },
    {
      "midi": 62,
      "hit": false,
      "t": 13596.11079166667,
      "d": 57.69212499999958,
      "v": 99
    },
    {
      "midi": 72,
      "hit": false,
      "t": 13819.667776041671,
      "d": 230.76850000000013,
      "v": 110
    },
    {
      "midi": 84,
      "hit": false,
      "t": 13822.071614583338,
      "d": 228.364661458334,
      "v": 110
    },
    {
      "midi": 43,
      "hit": false,
      "t": 13848.51383854167,
      "d": 343.74891145833317,
      "v": 79
    },
    {
      "midi": 71,
      "hit": false,
      "t": 14036.013244791671,
      "d": 57.69212499999958,
      "v": 91
    },
    {
      "midi": 83,
      "hit": false,
      "t": 14036.013244791671,
      "d": 57.69212499999958,
      "v": 91
    },
    {
      "midi": 62,
      "hit": false,
      "t": 14060.051630208336,
      "d": 67.30747916666587,
      "v": 101
    },
    {
      "midi": 67,
      "hit": false,
      "t": 14062.455468750002,
      "d": 62.499802083333634,
      "v": 97
    },
    {
      "midi": 59,
      "hit": false,
      "t": 14064.859307291668,
      "d": 60.095963541667516,
      "v": 86
    },
    {
      "midi": 67,
      "hit": false,
      "t": 14266.781744791671,
      "d": 252.40304687499884,
      "v": 103
    },
    {
      "midi": 79,
      "hit": false,
      "t": 14266.781744791671,
      "d": 252.40304687499884,
      "v": 103
    },
    {
      "midi": 38,
      "hit": false,
      "t": 14310.05083854167,
      "d": 360.57578124999964,
      "v": 79
    },
    {
      "midi": 64,
      "hit": false,
      "t": 14516.780953125004,
      "d": 69.71131770833199,
      "v": 97
    },
    {
      "midi": 76,
      "hit": false,
      "t": 14516.780953125004,
      "d": 69.71131770833199,
      "v": 97
    },
    {
      "midi": 62,
      "hit": false,
      "t": 14528.800145833335,
      "d": 52.88444791666552,
      "v": 101
    },
    {
      "midi": 59,
      "hit": false,
      "t": 14528.800145833335,
      "d": 55.28828645833164,
      "v": 88
    },
    {
      "midi": 67,
      "hit": false,
      "t": 14531.203984375,
      "d": 64.90364062499975,
      "v": 99
    },
    {
      "midi": 67,
      "hit": false,
      "t": 14737.934098958336,
      "d": 57.69212499999958,
      "v": 115
    },
    {
      "midi": 79,
      "hit": false,
      "t": 14740.337937500002,
      "d": 55.28828645833346,
      "v": 115
    },
    {
      "midi": 72,
      "hit": false,
      "t": 14747.549453125002,
      "d": 60.0959635416657,
      "v": 102
    },
    {
      "midi": 79,
      "hit": false,
      "t": 14747.549453125002,
      "d": 88.9420260416664,
      "v": 109
    },
    {
      "midi": 67,
      "hit": false,
      "t": 14749.953291666669,
      "d": 72.11515624999993,
      "v": 95
    },
    {
      "midi": 36,
      "hit": false,
      "t": 14771.58783854167,
      "d": 360.57578124999964,
      "v": 80
    },
    {
      "midi": 67,
      "hit": false,
      "t": 14978.317953125003,
      "d": 305.2874947916662,
      "v": 113
    },
    {
      "midi": 79,
      "hit": false,
      "t": 14978.317953125003,
      "d": 305.2874947916662,
      "v": 113
    },
    {
      "midi": 64,
      "hit": false,
      "t": 14983.125630208335,
      "d": 67.30747916666587,
      "v": 101
    },
    {
      "midi": 67,
      "hit": false,
      "t": 14983.125630208335,
      "d": 67.30747916666587,
      "v": 97
    },
    {
      "midi": 67,
      "hit": false,
      "t": 14987.933307291669,
      "d": 213.94163020833366,
      "v": 102
    },
    {
      "midi": 79,
      "hit": false,
      "t": 14987.933307291669,
      "d": 216.34546874999978,
      "v": 117
    },
    {
      "midi": 72,
      "hit": false,
      "t": 14990.337145833335,
      "d": 199.5185989583333,
      "v": 107
    },
    {
      "midi": 60,
      "hit": false,
      "t": 14990.337145833335,
      "d": 57.69212499999958,
      "v": 90
    },
    {
      "midi": 38,
      "hit": false,
      "t": 15233.124838541671,
      "d": 374.9988125,
      "v": 85
    },
    {
      "midi": 60,
      "hit": false,
      "t": 15454.277984375001,
      "d": 60.0959635416657,
      "v": 92
    },
    {
      "midi": 67,
      "hit": false,
      "t": 15454.277984375001,
      "d": 64.90364062499975,
      "v": 97
    },
    {
      "midi": 64,
      "hit": false,
      "t": 15456.681822916667,
      "d": 48.076770833333285,
      "v": 101
    },
    {
      "midi": 83,
      "hit": false,
      "t": 15459.085661458335,
      "d": 168.2686979166665,
      "v": 120
    },
    {
      "midi": 71,
      "hit": false,
      "t": 15459.085661458335,
      "d": 182.69172916666685,
      "v": 107
    },
    {
      "midi": 71,
      "hit": false,
      "t": 15463.89333854167,
      "d": 110.57657291666692,
      "v": 117
    },
    {
      "midi": 83,
      "hit": false,
      "t": 15463.89333854167,
      "d": 110.57657291666692,
      "v": 117
    },
    {
      "midi": 43,
      "hit": false,
      "t": 15694.661838541671,
      "d": 374.9988125,
      "v": 82
    },
    {
      "midi": 67,
      "hit": false,
      "t": 15920.622661458334,
      "d": 55.28828645833346,
      "v": 99
    },
    {
      "midi": 62,
      "hit": false,
      "t": 15925.430338541668,
      "d": 45.672932291667166,
      "v": 104
    },
    {
      "midi": 59,
      "hit": false,
      "t": 15925.430338541668,
      "d": 48.076770833333285,
      "v": 90
    },
    {
      "midi": 38,
      "hit": false,
      "t": 16156.198838541672,
      "d": 163.46102083333426,
      "v": 83
    },
    {
      "midi": 59,
      "hit": false,
      "t": 16377.351984375,
      "d": 60.0959635416657,
      "v": 88
    },
    {
      "midi": 62,
      "hit": false,
      "t": 16377.351984375,
      "d": 60.0959635416657,
      "v": 101
    },
    {
      "midi": 67,
      "hit": false,
      "t": 16379.755822916666,
      "d": 62.499802083331815,
      "v": 97
    },
    {
      "midi": 40,
      "hit": false,
      "t": 16386.96733854167,
      "d": 187.4994062500009,
      "v": 85
    },
    {
      "midi": 74,
      "hit": false,
      "t": 16588.88977604167,
      "d": 499.9984166666691,
      "v": 107
    },
    {
      "midi": 86,
      "hit": false,
      "t": 16588.88977604167,
      "d": 499.9984166666691,
      "v": 107
    },
    {
      "midi": 43,
      "hit": false,
      "t": 16617.735838541674,
      "d": 370.19113541666593,
      "v": 75
    },
    {
      "midi": 62,
      "hit": false,
      "t": 16858.119692708333,
      "d": 52.88444791666916,
      "v": 99
    },
    {
      "midi": 59,
      "hit": false,
      "t": 16858.119692708333,
      "d": 64.90364062500157,
      "v": 88
    },
    {
      "midi": 67,
      "hit": false,
      "t": 16860.52353125,
      "d": 62.499802083333634,
      "v": 97
    },
    {
      "midi": 72,
      "hit": false,
      "t": 17045.619098958337,
      "d": 81.73051041666622,
      "v": 94
    },
    {
      "midi": 84,
      "hit": false,
      "t": 17048.022937500005,
      "d": 79.32667187499828,
      "v": 94
    },
    {
      "midi": 38,
      "hit": false,
      "t": 17079.272838541674,
      "d": 343.74891145833317,
      "v": 73
    },
    {
      "midi": 71,
      "hit": false,
      "t": 17290.810630208336,
      "d": 64.90364062500157,
      "v": 97
    },
    {
      "midi": 83,
      "hit": false,
      "t": 17290.810630208336,
      "d": 64.90364062500157,
      "v": 97
    },
    {
      "midi": 59,
      "hit": false,
      "t": 17300.425984375,
      "d": 64.90364062500157,
      "v": 90
    },
    {
      "midi": 67,
      "hit": false,
      "t": 17300.425984375,
      "d": 64.90364062500157,
      "v": 101
    },
    {
      "midi": 62,
      "hit": false,
      "t": 17302.82982291667,
      "d": 57.6921250000014,
      "v": 101
    },
    {
      "midi": 72,
      "hit": false,
      "t": 17507.156098958338,
      "d": 240.38385416666642,
      "v": 113
    },
    {
      "midi": 84,
      "hit": false,
      "t": 17507.156098958338,
      "d": 240.38385416666642,
      "v": 113
    },
    {
      "midi": 43,
      "hit": false,
      "t": 17540.809838541674,
      "d": 374.9988125000018,
      "v": 79
    },
    {
      "midi": 71,
      "hit": false,
      "t": 17733.116921875004,
      "d": 72.11515625000175,
      "v": 94
    },
    {
      "midi": 83,
      "hit": false,
      "t": 17733.116921875004,
      "d": 72.11515625000175,
      "v": 94
    },
    {
      "midi": 59,
      "hit": false,
      "t": 17757.15530729167,
      "d": 50.48060937500122,
      "v": 90
    },
    {
      "midi": 62,
      "hit": false,
      "t": 17757.15530729167,
      "d": 50.48060937500122,
      "v": 101
    },
    {
      "midi": 67,
      "hit": false,
      "t": 17757.15530729167,
      "d": 64.90364062500157,
      "v": 99
    },
    {
      "midi": 67,
      "hit": false,
      "t": 17954.270067708338,
      "d": 211.53779166666573,
      "v": 116
    },
    {
      "midi": 79,
      "hit": false,
      "t": 17954.270067708338,
      "d": 211.53779166666573,
      "v": 116
    },
    {
      "midi": 38,
      "hit": false,
      "t": 18002.346838541675,
      "d": 343.74891145833317,
      "v": 72
    },
    {
      "midi": 64,
      "hit": false,
      "t": 18180.230890625004,
      "d": 76.92283333333398,
      "v": 112
    },
    {
      "midi": 76,
      "hit": false,
      "t": 18180.230890625004,
      "d": 76.92283333333398,
      "v": 112
    },
    {
      "midi": 62,
      "hit": false,
      "t": 18209.076953125004,
      "d": 67.30747916666587,
      "v": 101
    },
    {
      "midi": 67,
      "hit": false,
      "t": 18209.076953125004,
      "d": 79.32667187499828,
      "v": 101
    },
    {
      "midi": 59,
      "hit": false,
      "t": 18213.884630208337,
      "d": 60.0959635416657,
      "v": 92
    },
    {
      "midi": 79,
      "hit": false,
      "t": 18406.19171354167,
      "d": 105.76889583333468,
      "v": 123
    },
    {
      "midi": 67,
      "hit": false,
      "t": 18420.61474479167,
      "d": 72.11515625000175,
      "v": 107
    },
    {
      "midi": 79,
      "hit": false,
      "t": 18420.61474479167,
      "d": 72.11515625000175,
      "v": 107
    },
    {
      "midi": 72,
      "hit": false,
      "t": 18425.422421875002,
      "d": 72.11515625000175,
      "v": 109
    },
    {
      "midi": 36,
      "hit": false,
      "t": 18463.883838541675,
      "d": 374.9988125000018,
      "v": 79
    },
    {
      "midi": 67,
      "hit": false,
      "t": 18641.767890625004,
      "d": 331.72971875000076,
      "v": 116
    },
    {
      "midi": 79,
      "hit": false,
      "t": 18641.767890625004,
      "d": 331.72971875000076,
      "v": 116
    },
    {
      "midi": 79,
      "hit": false,
      "t": 18660.998598958337,
      "d": 223.55698437499814,
      "v": 114
    },
    {
      "midi": 60,
      "hit": false,
      "t": 18665.80627604167,
      "d": 64.90364062500157,
      "v": 88
    },
    {
      "midi": 67,
      "hit": false,
      "t": 18665.80627604167,
      "d": 64.90364062500157,
      "v": 99
    },
    {
      "midi": 64,
      "hit": false,
      "t": 18668.210114583337,
      "d": 60.0959635416657,
      "v": 99
    },
    {
      "midi": 72,
      "hit": false,
      "t": 18675.421630208337,
      "d": 170.67253645833262,
      "v": 96
    },
    {
      "midi": 38,
      "hit": false,
      "t": 18925.420838541675,
      "d": 331.72971875000076,
      "v": 74
    },
    {
      "midi": 60,
      "hit": false,
      "t": 19132.150953125005,
      "d": 52.88444791666916,
      "v": 90
    },
    {
      "midi": 64,
      "hit": false,
      "t": 19132.150953125005,
      "d": 52.88444791666916,
      "v": 94
    },
    {
      "midi": 67,
      "hit": false,
      "t": 19134.554791666673,
      "d": 62.499802083333634,
      "v": 97
    },
    {
      "midi": 71,
      "hit": false,
      "t": 19141.76630729167,
      "d": 96.15354166666657,
      "v": 114
    },
    {
      "midi": 79,
      "hit": false,
      "t": 19144.170145833337,
      "d": 122.59576562499933,
      "v": 127
    },
    {
      "midi": 67,
      "hit": false,
      "t": 19151.381661458337,
      "d": 96.15354166666657,
      "v": 116
    },
    {
      "midi": 79,
      "hit": false,
      "t": 19153.785500000005,
      "d": 93.74970312499863,
      "v": 116
    },
    {
      "midi": 43,
      "hit": false,
      "t": 19386.957838541675,
      "d": 411.05639062499904,
      "v": 85
    },
    {
      "midi": 67,
      "hit": false,
      "t": 19588.880276041673,
      "d": 64.90364062500157,
      "v": 99
    },
    {
      "midi": 59,
      "hit": false,
      "t": 19591.28411458334,
      "d": 60.0959635416657,
      "v": 90
    },
    {
      "midi": 62,
      "hit": false,
      "t": 19591.28411458334,
      "d": 60.0959635416657,
      "v": 101
    },
    {
      "midi": 38,
      "hit": false,
      "t": 19848.494838541676,
      "d": 163.46102083333244,
      "v": 86
    },
    {
      "midi": 62,
      "hit": false,
      "t": 20055.22495312501,
      "d": 52.88444791666552,
      "v": 62
    },
    {
      "midi": 67,
      "hit": false,
      "t": 20055.22495312501,
      "d": 64.90364062499793,
      "v": 101
    },
    {
      "midi": 59,
      "hit": false,
      "t": 20060.03263020834,
      "d": 48.076770833333285,
      "v": 88
    },
    {
      "midi": 40,
      "hit": false,
      "t": 20079.263338541674,
      "d": 187.4994062500009,
      "v": 88
    },
    {
      "midi": 43,
      "hit": false,
      "t": 20310.031838541676,
      "d": 382.21032812499834,
      "v": 85
    },
    {
      "midi": 62,
      "hit": false,
      "t": 20535.992661458342,
      "d": 69.71131770833381,
      "v": 92
    },
    {
      "midi": 67,
      "hit": false,
      "t": 20535.992661458342,
      "d": 79.32667187500192,
      "v": 90
    },
    {
      "midi": 59,
      "hit": false,
      "t": 20540.800338541674,
      "d": 40.86525520833311,
      "v": 83
    },
    {
      "midi": 38,
      "hit": false,
      "t": 20771.568838541672,
      "d": 341.34507291666523,
      "v": 76
    },
    {
      "midi": 59,
      "hit": false,
      "t": 20978.29895312501,
      "d": 60.095963541669335,
      "v": 85
    },
    {
      "midi": 67,
      "hit": false,
      "t": 20978.29895312501,
      "d": 62.49980208333727,
      "v": 94
    },
    {
      "midi": 62,
      "hit": false,
      "t": 20980.702791666678,
      "d": 57.6921250000014,
      "v": 99
    },
    {
      "midi": 43,
      "hit": false,
      "t": 21233.105838541673,
      "d": 343.74891145833317,
      "v": 79
    },
    {
      "midi": 67,
      "hit": false,
      "t": 21444.643630208346,
      "d": 64.90364062499793,
      "v": 97
    },
    {
      "midi": 62,
      "hit": false,
      "t": 21444.643630208346,
      "d": 67.30747916666587,
      "v": 101
    },
    {
      "midi": 59,
      "hit": false,
      "t": 21449.451307291678,
      "d": 60.0959635416657,
      "v": 86
    },
    {
      "midi": 38,
      "hit": false,
      "t": 21694.642838541673,
      "d": 360.57578125000146,
      "v": 79
    },
    {
      "midi": 62,
      "hit": false,
      "t": 21915.79598437501,
      "d": 50.48060937500122,
      "v": 101
    },
    {
      "midi": 59,
      "hit": false,
      "t": 21915.79598437501,
      "d": 52.88444791666916,
      "v": 88
    },
    {
      "midi": 67,
      "hit": false,
      "t": 21918.19982291668,
      "d": 62.499802083333634,
      "v": 99
    },
    {
      "midi": 72,
      "hit": false,
      "t": 22129.737614583337,
      "d": 62.499802083333634,
      "v": 102
    },
    {
      "midi": 67,
      "hit": false,
      "t": 22132.141453125005,
      "d": 74.51899479166605,
      "v": 95
    },
    {
      "midi": 79,
      "hit": false,
      "t": 22132.141453125005,
      "d": 91.34586458333433,
      "v": 109
    },
    {
      "midi": 36,
      "hit": false,
      "t": 22156.179838541673,
      "d": 360.57578125000146,
      "v": 80
    },
    {
      "midi": 64,
      "hit": false,
      "t": 22367.717630208346,
      "d": 67.30747916666951,
      "v": 101
    },
    {
      "midi": 67,
      "hit": false,
      "t": 22367.717630208346,
      "d": 67.30747916666951,
      "v": 97
    },
    {
      "midi": 67,
      "hit": false,
      "t": 22372.52530729167,
      "d": 216.3454687500016,
      "v": 102
    },
    {
      "midi": 79,
      "hit": false,
      "t": 22372.52530729167,
      "d": 216.3454687500016,
      "v": 117
    },
    {
      "midi": 72,
      "hit": false,
      "t": 22374.92914583334,
      "d": 199.5185989583333,
      "v": 107
    },
    {
      "midi": 60,
      "hit": false,
      "t": 22374.929145833346,
      "d": 57.6921250000014,
      "v": 90
    },
    {
      "midi": 38,
      "hit": false,
      "t": 22617.716838541673,
      "d": 374.9988125000018,
      "v": 85
    },
    {
      "midi": 60,
      "hit": false,
      "t": 22838.869984375015,
      "d": 60.095963541669335,
      "v": 92
    },
    {
      "midi": 67,
      "hit": false,
      "t": 22838.869984375015,
      "d": 64.90364062500157,
      "v": 97
    },
    {
      "midi": 64,
      "hit": false,
      "t": 22841.273822916683,
      "d": 48.076770833333285,
      "v": 101
    },
    {
      "midi": 83,
      "hit": false,
      "t": 22843.67766145834,
      "d": 168.26869791666832,
      "v": 120
    },
    {
      "midi": 71,
      "hit": false,
      "t": 22843.67766145834,
      "d": 182.69172916666867,
      "v": 107
    },
    {
      "midi": 43,
      "hit": false,
      "t": 23079.253838541674,
      "d": 372.59497395833387,
      "v": 82
    },
    {
      "midi": 67,
      "hit": false,
      "t": 23305.21466145835,
      "d": 55.28828645832982,
      "v": 99
    },
    {
      "midi": 59,
      "hit": false,
      "t": 23310.022338541683,
      "d": 45.67293229166535,
      "v": 90
    },
    {
      "midi": 62,
      "hit": false,
      "t": 23310.022338541683,
      "d": 45.67293229166535,
      "v": 104
    },
    {
      "midi": 38,
      "hit": false,
      "t": 23540.790838541674,
      "d": 163.46102083333244,
      "v": 83
    },
    {
      "midi": 62,
      "hit": false,
      "t": 23761.943984375015,
      "d": 60.095963541669335,
      "v": 101
    },
    {
      "midi": 59,
      "hit": false,
      "t": 23761.943984375015,
      "d": 62.49980208333727,
      "v": 88
    },
    {
      "midi": 67,
      "hit": false,
      "t": 23764.347822916683,
      "d": 62.49980208333727,
      "v": 97
    },
    {
      "midi": 40,
      "hit": false,
      "t": 23771.559338541672,
      "d": 187.4994062500009,
      "v": 85
    },
    {
      "midi": 43,
      "hit": false,
      "t": 24002.327838541674,
      "d": 370.19113541666593,
      "v": 75
    },
    {
      "midi": 62,
      "hit": false,
      "t": 24242.711692708355,
      "d": 52.88444791666916,
      "v": 99
    },
    {
      "midi": 59,
      "hit": false,
      "t": 24242.711692708355,
      "d": 64.90364062500157,
      "v": 88
    },
    {
      "midi": 67,
      "hit": false,
      "t": 24245.115531250023,
      "d": 62.499802083333634,
      "v": 97
    },
    {
      "midi": 38,
      "hit": false,
      "t": 24463.864838541675,
      "d": 343.74891145833317,
      "v": 73
    },
    {
      "midi": 59,
      "hit": false,
      "t": 24685.017984375023,
      "d": 64.90364062500157,
      "v": 90
    },
    {
      "midi": 67,
      "hit": false,
      "t": 24685.017984375023,
      "d": 64.90364062500157,
      "v": 101
    },
    {
      "midi": 62,
      "hit": false,
      "t": 24687.42182291669,
      "d": 60.0959635416657,
      "v": 101
    },
    {
      "midi": 43,
      "hit": false,
      "t": 24925.401838541675,
      "d": 374.9988125000018,
      "v": 79
    },
    {
      "midi": 62,
      "hit": false,
      "t": 25141.74730729169,
      "d": 48.076770833333285,
      "v": 101
    },
    {
      "midi": 67,
      "hit": false,
      "t": 25141.74730729169,
      "d": 64.90364062500157,
      "v": 99
    },
    {
      "midi": 59,
      "hit": false,
      "t": 25144.15114583336,
      "d": 45.67293229166535,
      "v": 90
    },
    {
      "midi": 38,
      "hit": false,
      "t": 25386.938838541675,
      "d": 343.74891145833317,
      "v": 72
    },
    {
      "midi": 62,
      "hit": false,
      "t": 25593.668953125027,
      "d": 67.30747916666587,
      "v": 101
    },
    {
      "midi": 67,
      "hit": false,
      "t": 25593.668953125027,
      "d": 79.32667187499828,
      "v": 101
    },
    {
      "midi": 59,
      "hit": false,
      "t": 25598.47663020836,
      "d": 62.499802083333634,
      "v": 92
    },
    {
      "midi": 79,
      "hit": false,
      "t": 25790.783713541674,
      "d": 105.76889583333468,
      "v": 123
    },
    {
      "midi": 72,
      "hit": false,
      "t": 25810.014421875007,
      "d": 72.11515625000175,
      "v": 109
    },
    {
      "midi": 36,
      "hit": false,
      "t": 25848.475838541675,
      "d": 374.9988125000018,
      "v": 79
    },
    {
      "midi": 79,
      "hit": false,
      "t": 26045.59059895834,
      "d": 223.55698437499814,
      "v": 114
    },
    {
      "midi": 60,
      "hit": false,
      "t": 26050.39827604169,
      "d": 64.90364062500157,
      "v": 88
    },
    {
      "midi": 67,
      "hit": false,
      "t": 26050.39827604169,
      "d": 64.90364062500157,
      "v": 99
    },
    {
      "midi": 64,
      "hit": false,
      "t": 26052.80211458336,
      "d": 60.0959635416657,
      "v": 99
    },
    {
      "midi": 72,
      "hit": false,
      "t": 26060.01363020834,
      "d": 170.67253645833262,
      "v": 96
    },
    {
      "midi": 38,
      "hit": false,
      "t": 26310.012838541676,
      "d": 331.72971875000076,
      "v": 74
    },
    {
      "midi": 60,
      "hit": false,
      "t": 26516.742953125027,
      "d": 52.88444791666916,
      "v": 90
    },
    {
      "midi": 64,
      "hit": false,
      "t": 26519.146791666695,
      "d": 50.48060937500122,
      "v": 94
    },
    {
      "midi": 67,
      "hit": false,
      "t": 26519.146791666695,
      "d": 62.499802083333634,
      "v": 97
    },
    {
      "midi": 71,
      "hit": false,
      "t": 26523.954468750006,
      "d": 98.55738020833451,
      "v": 114
    },
    {
      "midi": 79,
      "hit": false,
      "t": 26526.358307291674,
      "d": 124.99960416666727,
      "v": 127
    },
    {
      "midi": 43,
      "hit": false,
      "t": 26771.549838541676,
      "d": 413.460229166667,
      "v": 85
    },
    {
      "midi": 59,
      "hit": false,
      "t": 26973.472276041695,
      "d": 62.499802083333634,
      "v": 90
    },
    {
      "midi": 62,
      "hit": false,
      "t": 26973.472276041695,
      "d": 62.499802083333634,
      "v": 101
    },
    {
      "midi": 67,
      "hit": false,
      "t": 26973.472276041695,
      "d": 64.90364062500157,
      "v": 99
    },
    {
      "midi": 38,
      "hit": false,
      "t": 27233.086838541676,
      "d": 163.46102083333244,
      "v": 86
    },
    {
      "midi": 62,
      "hit": false,
      "t": 27439.81695312503,
      "d": 52.88444791666916,
      "v": 97
    },
    {
      "midi": 67,
      "hit": false,
      "t": 27442.2207916667,
      "d": 62.499802083333634,
      "v": 101
    },
    {
      "midi": 59,
      "hit": false,
      "t": 27444.624630208367,
      "d": 48.076770833333285,
      "v": 88
    },
    {
      "midi": 40,
      "hit": false,
      "t": 27463.855338541674,
      "d": 187.4994062500009,
      "v": 88
    },
    {
      "midi": 43,
      "hit": false,
      "t": 27694.623838541676,
      "d": 382.21032812499834,
      "v": 85
    },
    {
      "midi": 62,
      "hit": false,
      "t": 27920.584661458368,
      "d": 69.71131770833381,
      "v": 92
    },
    {
      "midi": 67,
      "hit": false,
      "t": 27920.584661458368,
      "d": 79.32667187500192,
      "v": 90
    },
    {
      "midi": 59,
      "hit": false,
      "t": 27925.3923385417,
      "d": 40.86525520833311,
      "v": 83
    },
    {
      "midi": 38,
      "hit": false,
      "t": 28156.160838541673,
      "d": 341.34507291666523,
      "v": 76
    },
    {
      "midi": 59,
      "hit": false,
      "t": 28362.890953125036,
      "d": 60.095963541669335,
      "v": 85
    },
    {
      "midi": 67,
      "hit": false,
      "t": 28362.890953125036,
      "d": 62.49980208333727,
      "v": 94
    },
    {
      "midi": 62,
      "hit": false,
      "t": 28365.294791666704,
      "d": 57.6921250000014,
      "v": 99
    },
    {
      "midi": 43,
      "hit": false,
      "t": 28617.697838541673,
      "d": 343.74891145833317,
      "v": 79
    },
    {
      "midi": 62,
      "hit": false,
      "t": 28829.23563020837,
      "d": 67.30747916666951,
      "v": 101
    },
    {
      "midi": 67,
      "hit": false,
      "t": 28831.63946875004,
      "d": 64.90364062500157,
      "v": 97
    },
    {
      "midi": 59,
      "hit": false,
      "t": 28834.043307291708,
      "d": 60.0959635416657,
      "v": 86
    },
    {
      "midi": 38,
      "hit": false,
      "t": 29079.234838541674,
      "d": 360.57578125000146,
      "v": 79
    },
    {
      "midi": 62,
      "hit": false,
      "t": 29300.38798437504,
      "d": 50.48060937500122,
      "v": 101
    },
    {
      "midi": 59,
      "hit": false,
      "t": 29300.38798437504,
      "d": 52.88444791666916,
      "v": 88
    },
    {
      "midi": 67,
      "hit": false,
      "t": 29302.791822916708,
      "d": 62.499802083333634,
      "v": 99
    },
    {
      "midi": 72,
      "hit": false,
      "t": 29516.73345312501,
      "d": 60.095963541669335,
      "v": 102
    },
    {
      "midi": 79,
      "hit": false,
      "t": 29516.73345312501,
      "d": 91.34586458333797,
      "v": 109
    },
    {
      "midi": 67,
      "hit": false,
      "t": 29519.137291666677,
      "d": 72.11515625000175,
      "v": 95
    },
    {
      "midi": 36,
      "hit": false,
      "t": 29540.771838541674,
      "d": 360.57578125000146,
      "v": 80
    },
    {
      "midi": 67,
      "hit": false,
      "t": 29752.309630208376,
      "d": 64.90364062500157,
      "v": 97
    },
    {
      "midi": 64,
      "hit": false,
      "t": 29752.309630208376,
      "d": 67.30747916666951,
      "v": 101
    },
    {
      "midi": 67,
      "hit": false,
      "t": 29757.11730729168,
      "d": 216.3454687500016,
      "v": 102
    },
    {
      "midi": 79,
      "hit": false,
      "t": 29757.11730729168,
      "d": 216.3454687500016,
      "v": 117
    },
    {
      "midi": 72,
      "hit": false,
      "t": 29759.521145833347,
      "d": 199.5185989583333,
      "v": 107
    },
    {
      "midi": 60,
      "hit": false,
      "t": 29759.521145833376,
      "d": 57.6921250000014,
      "v": 90
    },
    {
      "midi": 38,
      "hit": false,
      "t": 30002.308838541674,
      "d": 374.9988125000018,
      "v": 85
    },
    {
      "midi": 60,
      "hit": false,
      "t": 30223.461984375044,
      "d": 60.095963541669335,
      "v": 92
    },
    {
      "midi": 67,
      "hit": false,
      "t": 30223.461984375044,
      "d": 64.90364062500157,
      "v": 97
    },
    {
      "midi": 64,
      "hit": false,
      "t": 30225.865822916712,
      "d": 48.076770833333285,
      "v": 101
    },
    {
      "midi": 83,
      "hit": false,
      "t": 30228.269661458347,
      "d": 165.86485937500038,
      "v": 120
    },
    {
      "midi": 71,
      "hit": false,
      "t": 30228.269661458347,
      "d": 182.69172916666867,
      "v": 107
    },
    {
      "midi": 43,
      "hit": false,
      "t": 30463.845838541674,
      "d": 374.9988125000018,
      "v": 82
    },
    {
      "midi": 67,
      "hit": false,
      "t": 30689.80666145838,
      "d": 55.28828645832982,
      "v": 99
    },
    {
      "midi": 59,
      "hit": false,
      "t": 30694.614338541713,
      "d": 45.67293229166535,
      "v": 90
    },
    {
      "midi": 62,
      "hit": false,
      "t": 30694.614338541713,
      "d": 45.67293229166535,
      "v": 104
    },
    {
      "midi": 38,
      "hit": false,
      "t": 30925.382838541675,
      "d": 163.46102083333244,
      "v": 83
    },
    {
      "midi": 59,
      "hit": false,
      "t": 31146.535984375045,
      "d": 60.095963541669335,
      "v": 88
    },
    {
      "midi": 62,
      "hit": false,
      "t": 31146.535984375045,
      "d": 60.095963541669335,
      "v": 101
    },
    {
      "midi": 67,
      "hit": false,
      "t": 31148.939822916713,
      "d": 62.499802083333634,
      "v": 97
    },
    {
      "midi": 40,
      "hit": false,
      "t": 31156.151338541673,
      "d": 185.09556770833296,
      "v": 85
    },
    {
      "midi": 43,
      "hit": false,
      "t": 31386.91983854167,
      "d": 370.19113541666593,
      "v": 75
    },
    {
      "midi": 62,
      "hit": false,
      "t": 31627.30369270838,
      "d": 52.88444791666916,
      "v": 99
    },
    {
      "midi": 59,
      "hit": false,
      "t": 31627.30369270838,
      "d": 64.90364062500157,
      "v": 88
    },
    {
      "midi": 67,
      "hit": false,
      "t": 31629.70753125005,
      "d": 62.499802083333634,
      "v": 97
    },
    {
      "midi": 38,
      "hit": false,
      "t": 31848.45683854167,
      "d": 343.74891145833317,
      "v": 73
    },
    {
      "midi": 59,
      "hit": false,
      "t": 32069.60998437505,
      "d": 64.90364062500157,
      "v": 90
    },
    {
      "midi": 67,
      "hit": false,
      "t": 32069.60998437505,
      "d": 64.90364062500157,
      "v": 101
    },
    {
      "midi": 62,
      "hit": false,
      "t": 32072.013822916717,
      "d": 57.6921250000014,
      "v": 101
    },
    {
      "midi": 43,
      "hit": false,
      "t": 32309.99383854167,
      "d": 374.9988125000018,
      "v": 79
    },
    {
      "midi": 62,
      "hit": false,
      "t": 32526.339307291717,
      "d": 48.076770833333285,
      "v": 101
    },
    {
      "midi": 67,
      "hit": false,
      "t": 32526.339307291717,
      "d": 67.30747916666587,
      "v": 99
    },
    {
      "midi": 59,
      "hit": false,
      "t": 32528.743145833385,
      "d": 45.67293229166535,
      "v": 90
    },
    {
      "midi": 38,
      "hit": false,
      "t": 32771.53083854167,
      "d": 343.7489114583368,
      "v": 72
    },
    {
      "midi": 62,
      "hit": false,
      "t": 32978.26095312505,
      "d": 64.90364062500157,
      "v": 101
    },
    {
      "midi": 67,
      "hit": false,
      "t": 32978.26095312505,
      "d": 79.32667187500192,
      "v": 101
    },
    {
      "midi": 59,
      "hit": false,
      "t": 32983.068630208385,
      "d": 60.0959635416657,
      "v": 92
    },
    {
      "midi": 79,
      "hit": false,
      "t": 33175.37571354168,
      "d": 105.76889583333832,
      "v": 123
    },
    {
      "midi": 72,
      "hit": false,
      "t": 33194.60642187502,
      "d": 72.11515625000175,
      "v": 109
    },
    {
      "midi": 36,
      "hit": false,
      "t": 33233.067838541676,
      "d": 374.9988125000018,
      "v": 79
    },
    {
      "midi": 79,
      "hit": false,
      "t": 33430.18259895835,
      "d": 223.55698437499814,
      "v": 114
    },
    {
      "midi": 64,
      "hit": false,
      "t": 33434.99027604172,
      "d": 62.499802083329996,
      "v": 99
    },
    {
      "midi": 60,
      "hit": false,
      "t": 33434.99027604172,
      "d": 64.9036406249943,
      "v": 88
    },
    {
      "midi": 67,
      "hit": false,
      "t": 33434.99027604172,
      "d": 64.9036406249943,
      "v": 99
    },
    {
      "midi": 72,
      "hit": false,
      "t": 33444.60563020835,
      "d": 170.67253645833262,
      "v": 96
    },
    {
      "midi": 38,
      "hit": false,
      "t": 33694.60483854168,
      "d": 331.72971875000076,
      "v": 74
    },
    {
      "midi": 60,
      "hit": false,
      "t": 33901.33495312504,
      "d": 52.88444791666552,
      "v": 90
    },
    {
      "midi": 64,
      "hit": false,
      "t": 33903.73879166671,
      "d": 50.48060937500122,
      "v": 94
    },
    {
      "midi": 67,
      "hit": false,
      "t": 33903.73879166671,
      "d": 62.49980208333727,
      "v": 97
    },
    {
      "midi": 71,
      "hit": false,
      "t": 33910.950307291685,
      "d": 96.15354166666657,
      "v": 114
    },
    {
      "midi": 79,
      "hit": false,
      "t": 33910.950307291685,
      "d": 124.99960416666727,
      "v": 127
    },
    {
      "midi": 43,
      "hit": false,
      "t": 34156.141838541684,
      "d": 413.460229166667,
      "v": 85
    },
    {
      "midi": 59,
      "hit": false,
      "t": 34358.06427604171,
      "d": 62.499802083329996,
      "v": 90
    },
    {
      "midi": 67,
      "hit": false,
      "t": 34358.06427604171,
      "d": 64.9036406249943,
      "v": 99
    },
    {
      "midi": 62,
      "hit": false,
      "t": 34360.468114583375,
      "d": 60.0959635416657,
      "v": 101
    },
    {
      "midi": 38,
      "hit": false,
      "t": 34617.67883854169,
      "d": 161.05718229166814,
      "v": 86
    },
    {
      "midi": 62,
      "hit": false,
      "t": 34824.408953125036,
      "d": 52.8844479166728,
      "v": 97
    },
    {
      "midi": 67,
      "hit": false,
      "t": 34824.408953125036,
      "d": 64.90364062500885,
      "v": 101
    },
    {
      "midi": 59,
      "hit": false,
      "t": 34829.21663020837,
      "d": 48.07677083333692,
      "v": 88
    },
    {
      "midi": 40,
      "hit": false,
      "t": 34848.447338541686,
      "d": 187.49940624999726,
      "v": 88
    },
    {
      "midi": 74,
      "hit": false,
      "t": 35079.21583854167,
      "d": 475.960031249997,
      "v": 113
    },
    {
      "midi": 43,
      "hit": false,
      "t": 35079.215838541684,
      "d": 382.210328125002,
      "v": 85
    },
    {
      "midi": 86,
      "hit": false,
      "t": 35081.619677083334,
      "d": 473.5561927083327,
      "v": 113
    },
    {
      "midi": 62,
      "hit": false,
      "t": 35305.176661458376,
      "d": 69.71131770833745,
      "v": 92
    },
    {
      "midi": 67,
      "hit": false,
      "t": 35305.176661458376,
      "d": 79.32667187500192,
      "v": 90
    },
    {
      "midi": 59,
      "hit": false,
      "t": 35309.98433854171,
      "d": 40.86525520833675,
      "v": 83
    },
    {
      "midi": 72,
      "hit": false,
      "t": 35516.714453125,
      "d": 76.92283333333035,
      "v": 94
    },
    {
      "midi": 84,
      "hit": false,
      "t": 35516.714453125,
      "d": 76.92283333333035,
      "v": 94
    },
    {
      "midi": 38,
      "hit": false,
      "t": 35540.75283854169,
      "d": 341.34507291666523,
      "v": 76
    },
    {
      "midi": 71,
      "hit": false,
      "t": 35742.675276041664,
      "d": 69.71131770833017,
      "v": 107
    },
    {
      "midi": 83,
      "hit": false,
      "t": 35742.675276041664,
      "d": 69.71131770833017,
      "v": 107
    },
    {
      "midi": 59,
      "hit": false,
      "t": 35747.48295312504,
      "d": 60.0959635416657,
      "v": 85
    },
    {
      "midi": 67,
      "hit": false,
      "t": 35747.48295312504,
      "d": 64.90364062500157,
      "v": 94
    },
    {
      "midi": 62,
      "hit": false,
      "t": 35749.88679166671,
      "d": 57.6921250000014,
      "v": 99
    },
    {
      "midi": 72,
      "hit": false,
      "t": 35973.44377604166,
      "d": 230.7684999999983,
      "v": 110
    },
    {
      "midi": 84,
      "hit": false,
      "t": 35973.44377604166,
      "d": 230.7684999999983,
      "v": 110
    },
    {
      "midi": 43,
      "hit": false,
      "t": 36002.289838541685,
      "d": 343.7489114583368,
      "v": 79
    },
    {
      "midi": 71,
      "hit": false,
      "t": 36189.78924479166,
      "d": 57.6921250000014,
      "v": 91
    },
    {
      "midi": 83,
      "hit": false,
      "t": 36189.78924479166,
      "d": 57.6921250000014,
      "v": 91
    },
    {
      "midi": 62,
      "hit": false,
      "t": 36213.827630208376,
      "d": 67.30747916666587,
      "v": 101
    },
    {
      "midi": 67,
      "hit": false,
      "t": 36213.827630208376,
      "d": 67.30747916666587,
      "v": 97
    },
    {
      "midi": 59,
      "hit": false,
      "t": 36218.63530729171,
      "d": 60.0959635416657,
      "v": 86
    },
    {
      "midi": 67,
      "hit": false,
      "t": 36420.55774479166,
      "d": 252.40304687499884,
      "v": 103
    },
    {
      "midi": 79,
      "hit": false,
      "t": 36420.55774479166,
      "d": 252.40304687499884,
      "v": 103
    },
    {
      "midi": 38,
      "hit": false,
      "t": 36463.82683854169,
      "d": 360.57578125000146,
      "v": 79
    },
    {
      "midi": 64,
      "hit": false,
      "t": 36670.55695312499,
      "d": 69.71131770833017,
      "v": 97
    },
    {
      "midi": 76,
      "hit": false,
      "t": 36672.96079166666,
      "d": 67.30747916666587,
      "v": 97
    },
    {
      "midi": 62,
      "hit": false,
      "t": 36682.57614583337,
      "d": 52.88444791666552,
      "v": 101
    },
    {
      "midi": 59,
      "hit": false,
      "t": 36682.57614583337,
      "d": 55.28828645832982,
      "v": 88
    },
    {
      "midi": 67,
      "hit": false,
      "t": 36684.97998437504,
      "d": 64.90364062500157,
      "v": 99
    },
    {
      "midi": 67,
      "hit": false,
      "t": 36891.71009895833,
      "d": 57.6921250000014,
      "v": 115
    },
    {
      "midi": 79,
      "hit": false,
      "t": 36891.71009895833,
      "d": 57.6921250000014,
      "v": 115
    },
    {
      "midi": 72,
      "hit": false,
      "t": 36898.921614583356,
      "d": 62.499802083329996,
      "v": 102
    },
    {
      "midi": 67,
      "hit": false,
      "t": 36901.32545312502,
      "d": 74.51899479166605,
      "v": 95
    },
    {
      "midi": 79,
      "hit": false,
      "t": 36901.32545312502,
      "d": 91.3458645833307,
      "v": 109
    },
    {
      "midi": 36,
      "hit": false,
      "t": 36925.36383854169,
      "d": 360.57578125000146,
      "v": 80
    },
    {
      "midi": 79,
      "hit": false,
      "t": 37132.093953125,
      "d": 305.28749479166436,
      "v": 113
    },
    {
      "midi": 67,
      "hit": false,
      "t": 37132.093953125,
      "d": 307.69133333332866,
      "v": 113
    },
    {
      "midi": 64,
      "hit": false,
      "t": 37136.90163020837,
      "d": 67.30747916666587,
      "v": 101
    },
    {
      "midi": 67,
      "hit": false,
      "t": 37136.90163020837,
      "d": 67.30747916666587,
      "v": 97
    },
    {
      "midi": 72,
      "hit": false,
      "t": 37141.70930729168,
      "d": 201.9224374999976,
      "v": 107
    },
    {
      "midi": 67,
      "hit": false,
      "t": 37141.70930729168,
      "d": 216.34546874999796,
      "v": 102
    },
    {
      "midi": 79,
      "hit": false,
      "t": 37141.70930729168,
      "d": 216.34546874999796,
      "v": 117
    },
    {
      "midi": 60,
      "hit": false,
      "t": 37144.11314583337,
      "d": 57.6921250000014,
      "v": 90
    },
    {
      "midi": 38,
      "hit": false,
      "t": 37386.9008385417,
      "d": 374.9988125000018,
      "v": 85
    },
    {
      "midi": 60,
      "hit": false,
      "t": 37608.05398437504,
      "d": 60.0959635416657,
      "v": 92
    },
    {
      "midi": 67,
      "hit": false,
      "t": 37608.05398437504,
      "d": 64.90364062500157,
      "v": 97
    },
    {
      "midi": 64,
      "hit": false,
      "t": 37610.4578229167,
      "d": 50.48060937500122,
      "v": 101
    },
    {
      "midi": 83,
      "hit": false,
      "t": 37612.861661458344,
      "d": 168.26869791666832,
      "v": 120
    },
    {
      "midi": 71,
      "hit": false,
      "t": 37612.861661458344,
      "d": 180.28789062500437,
      "v": 107
    },
    {
      "midi": 71,
      "hit": false,
      "t": 37617.66933854166,
      "d": 110.57657291666692,
      "v": 117
    },
    {
      "midi": 83,
      "hit": false,
      "t": 37617.66933854166,
      "d": 110.57657291666692,
      "v": 117
    },
    {
      "midi": 43,
      "hit": false,
      "t": 37848.4378385417,
      "d": 374.9988125000018,
      "v": 82
    },
    {
      "midi": 67,
      "hit": false,
      "t": 38074.39866145837,
      "d": 55.2882864583371,
      "v": 99
    },
    {
      "midi": 59,
      "hit": false,
      "t": 38079.206338541706,
      "d": 48.07677083333692,
      "v": 90
    },
    {
      "midi": 62,
      "hit": false,
      "t": 38079.206338541706,
      "d": 48.07677083333692,
      "v": 104
    },
    {
      "midi": 38,
      "hit": false,
      "t": 38309.974838541704,
      "d": 163.46102083333244,
      "v": 83
    },
    {
      "midi": 59,
      "hit": false,
      "t": 38531.12798437504,
      "d": 60.0959635416657,
      "v": 88
    },
    {
      "midi": 62,
      "hit": false,
      "t": 38531.12798437504,
      "d": 60.0959635416657,
      "v": 101
    },
    {
      "midi": 67,
      "hit": false,
      "t": 38533.5318229167,
      "d": 62.49980208333727,
      "v": 97
    },
    {
      "midi": 40,
      "hit": false,
      "t": 38540.7433385417,
      "d": 187.49940624999726,
      "v": 85
    },
    {
      "midi": 74,
      "hit": false,
      "t": 38742.66577604166,
      "d": 499.9984166666691,
      "v": 107
    },
    {
      "midi": 86,
      "hit": false,
      "t": 38742.66577604166,
      "d": 499.9984166666691,
      "v": 107
    },
    {
      "midi": 43,
      "hit": false,
      "t": 38771.5118385417,
      "d": 370.19113541666593,
      "v": 75
    },
    {
      "midi": 62,
      "hit": false,
      "t": 39011.89569270837,
      "d": 52.88444791666552,
      "v": 99
    },
    {
      "midi": 59,
      "hit": false,
      "t": 39011.89569270837,
      "d": 64.90364062500157,
      "v": 88
    },
    {
      "midi": 67,
      "hit": false,
      "t": 39014.299531250035,
      "d": 62.49980208333727,
      "v": 97
    },
    {
      "midi": 72,
      "hit": false,
      "t": 39199.395098958325,
      "d": 81.73051041666622,
      "v": 94
    },
    {
      "midi": 84,
      "hit": false,
      "t": 39199.395098958325,
      "d": 81.73051041666622,
      "v": 94
    },
    {
      "midi": 38,
      "hit": false,
      "t": 39233.0488385417,
      "d": 343.7489114583368,
      "v": 73
    },
    {
      "midi": 71,
      "hit": false,
      "t": 39444.58663020832,
      "d": 64.90364062500157,
      "v": 97
    },
    {
      "midi": 83,
      "hit": false,
      "t": 39444.58663020832,
      "d": 64.90364062500157,
      "v": 97
    },
    {
      "midi": 59,
      "hit": false,
      "t": 39454.20198437504,
      "d": 64.90364062500157,
      "v": 90
    },
    {
      "midi": 67,
      "hit": false,
      "t": 39454.20198437504,
      "d": 64.90364062500157,
      "v": 101
    },
    {
      "midi": 62,
      "hit": false,
      "t": 39456.6058229167,
      "d": 57.6921250000014,
      "v": 101
    },
    {
      "midi": 72,
      "hit": false,
      "t": 39660.93209895832,
      "d": 240.38385416667006,
      "v": 113
    },
    {
      "midi": 84,
      "hit": false,
      "t": 39660.93209895832,
      "d": 240.38385416667006,
      "v": 113
    },
    {
      "midi": 43,
      "hit": false,
      "t": 39694.5858385417,
      "d": 374.9988125000018,
      "v": 79
    },
    {
      "midi": 71,
      "hit": false,
      "t": 39886.89292187499,
      "d": 72.11515625000175,
      "v": 94
    },
    {
      "midi": 83,
      "hit": false,
      "t": 39889.296760416655,
      "d": 69.71131770833745,
      "v": 94
    },
    {
      "midi": 59,
      "hit": false,
      "t": 39910.93130729171,
      "d": 48.07677083333692,
      "v": 90
    },
    {
      "midi": 62,
      "hit": false,
      "t": 39910.93130729171,
      "d": 50.48060937500122,
      "v": 101
    },
    {
      "midi": 67,
      "hit": false,
      "t": 39910.93130729171,
      "d": 64.90364062500157,
      "v": 99
    },
    {
      "midi": 67,
      "hit": false,
      "t": 40108.046067708325,
      "d": 211.53779166666936,
      "v": 116
    },
    {
      "midi": 79,
      "hit": false,
      "t": 40108.046067708325,
      "d": 211.53779166666936,
      "v": 116
    },
    {
      "midi": 38,
      "hit": false,
      "t": 40156.122838541705,
      "d": 343.7489114583368,
      "v": 72
    },
    {
      "midi": 64,
      "hit": false,
      "t": 40334.006890624994,
      "d": 76.92283333333035,
      "v": 112
    },
    {
      "midi": 76,
      "hit": false,
      "t": 40334.006890624994,
      "d": 76.92283333333035,
      "v": 112
    },
    {
      "midi": 62,
      "hit": false,
      "t": 40362.85295312504,
      "d": 67.30747916666587,
      "v": 101
    },
    {
      "midi": 67,
      "hit": false,
      "t": 40362.85295312504,
      "d": 79.32667187500192,
      "v": 101
    },
    {
      "midi": 59,
      "hit": false,
      "t": 40367.660630208375,
      "d": 60.0959635416657,
      "v": 92
    },
    {
      "midi": 79,
      "hit": false,
      "t": 40559.967713541686,
      "d": 105.76889583333832,
      "v": 123
    },
    {
      "midi": 67,
      "hit": false,
      "t": 40574.39074479166,
      "d": 72.11515625000175,
      "v": 107
    },
    {
      "midi": 79,
      "hit": false,
      "t": 40574.39074479166,
      "d": 72.11515625000175,
      "v": 107
    },
    {
      "midi": 72,
      "hit": false,
      "t": 40579.19842187502,
      "d": 72.11515625000175,
      "v": 109
    },
    {
      "midi": 36,
      "hit": false,
      "t": 40617.65983854171,
      "d": 374.9988125000018,
      "v": 79
    },
    {
      "midi": 67,
      "hit": false,
      "t": 40795.54389062499,
      "d": 331.72971875000076,
      "v": 116
    },
    {
      "midi": 79,
      "hit": false,
      "t": 40795.54389062499,
      "d": 331.72971875000076,
      "v": 116
    },
    {
      "midi": 79,
      "hit": false,
      "t": 40814.77459895836,
      "d": 223.55698437499814,
      "v": 114
    },
    {
      "midi": 60,
      "hit": false,
      "t": 40819.58227604171,
      "d": 64.9036406249943,
      "v": 88
    },
    {
      "midi": 67,
      "hit": false,
      "t": 40819.58227604171,
      "d": 64.9036406249943,
      "v": 99
    },
    {
      "midi": 64,
      "hit": false,
      "t": 40821.98611458337,
      "d": 60.0959635416657,
      "v": 99
    },
    {
      "midi": 72,
      "hit": false,
      "t": 40829.19763020836,
      "d": 170.67253645833262,
      "v": 96
    },
    {
      "midi": 38,
      "hit": false,
      "t": 41079.19683854171,
      "d": 331.72971875000076,
      "v": 74
    },
    {
      "midi": 60,
      "hit": false,
      "t": 41285.92695312503,
      "d": 52.88444791666552,
      "v": 90
    },
    {
      "midi": 64,
      "hit": false,
      "t": 41285.92695312503,
      "d": 52.88444791666552,
      "v": 94
    },
    {
      "midi": 67,
      "hit": false,
      "t": 41288.330791666696,
      "d": 62.49980208333727,
      "v": 97
    },
    {
      "midi": 71,
      "hit": false,
      "t": 41295.54230729169,
      "d": 96.15354166666657,
      "v": 114
    },
    {
      "midi": 79,
      "hit": false,
      "t": 41295.54230729169,
      "d": 124.99960416666727,
      "v": 127
    },
    {
      "midi": 67,
      "hit": false,
      "t": 41305.157661458325,
      "d": 96.15354166666657,
      "v": 116
    },
    {
      "midi": 79,
      "hit": false,
      "t": 41305.157661458325,
      "d": 96.15354166666657,
      "v": 116
    },
    {
      "midi": 43,
      "hit": false,
      "t": 41540.73383854172,
      "d": 413.460229166667,
      "v": 85
    },
    {
      "midi": 59,
      "hit": false,
      "t": 41742.6562760417,
      "d": 62.499802083329996,
      "v": 90
    },
    {
      "midi": 67,
      "hit": false,
      "t": 41742.6562760417,
      "d": 64.9036406249943,
      "v": 99
    },
    {
      "midi": 62,
      "hit": false,
      "t": 41745.060114583364,
      "d": 57.6921250000014,
      "v": 101
    },
    {
      "midi": 38,
      "hit": false,
      "t": 42002.27083854172,
      "d": 161.05718229166814,
      "v": 86
    },
    {
      "midi": 62,
      "hit": false,
      "t": 42209.000953125025,
      "d": 52.8844479166728,
      "v": 97
    },
    {
      "midi": 67,
      "hit": false,
      "t": 42209.000953125025,
      "d": 64.90364062500885,
      "v": 101
    },
    {
      "midi": 59,
      "hit": false,
      "t": 42213.80863020836,
      "d": 48.07677083333692,
      "v": 88
    },
    {
      "midi": 40,
      "hit": false,
      "t": 42233.03933854172,
      "d": 187.49940624999726,
      "v": 88
    },
    {
      "midi": 43,
      "hit": false,
      "t": 42463.80783854172,
      "d": 382.210328125002,
      "v": 85
    },
    {
      "midi": 62,
      "hit": false,
      "t": 42689.768661458365,
      "d": 69.71131770833745,
      "v": 92
    },
    {
      "midi": 67,
      "hit": false,
      "t": 42689.768661458365,
      "d": 79.32667187500192,
      "v": 90
    },
    {
      "midi": 59,
      "hit": false,
      "t": 42694.5763385417,
      "d": 40.86525520833675,
      "v": 83
    },
    {
      "midi": 59,
      "hit": false,
      "t": 42872.46039062499,
      "d": 461.5369999999966,
      "v": 103
    },
    {
      "midi": 71,
      "hit": false,
      "t": 42872.46039062499,
      "d": 461.5369999999966,
      "v": 103
    },
    {
      "midi": 83,
      "hit": false,
      "t": 42874.864229166655,
      "d": 459.1331614583323,
      "v": 103
    },
    {
      "midi": 38,
      "hit": false,
      "t": 42925.34483854172,
      "d": 341.34507291666523,
      "v": 76
    },
    {
      "midi": 59,
      "hit": false,
      "t": 43132.07495312503,
      "d": 60.0959635416657,
      "v": 85
    },
    {
      "midi": 67,
      "hit": false,
      "t": 43132.07495312503,
      "d": 62.499802083329996,
      "v": 94
    },
    {
      "midi": 62,
      "hit": false,
      "t": 43134.4787916667,
      "d": 57.6921250000014,
      "v": 99
    },
    {
      "midi": 55,
      "hit": false,
      "t": 43336.40122916665,
      "d": 362.97961979166575,
      "v": 100
    },
    {
      "midi": 67,
      "hit": false,
      "t": 43336.40122916665,
      "d": 362.97961979166575,
      "v": 100
    },
    {
      "midi": 79,
      "hit": false,
      "t": 43338.805067708316,
      "d": 360.57578125000146,
      "v": 100
    },
    {
      "midi": 43,
      "hit": false,
      "t": 43386.88183854172,
      "d": 343.7489114583368,
      "v": 79
    },
    {
      "midi": 62,
      "hit": false,
      "t": 43598.419630208366,
      "d": 67.3074791666586,
      "v": 101
    },
    {
      "midi": 67,
      "hit": false,
      "t": 43598.419630208366,
      "d": 67.3074791666586,
      "v": 97
    },
    {
      "midi": 59,
      "hit": false,
      "t": 43600.82346875003,
      "d": 62.499802083329996,
      "v": 86
    },
    {
      "midi": 38,
      "hit": false,
      "t": 43848.41883854172,
      "d": 360.57578125000146,
      "v": 79
    },
    {
      "midi": 59,
      "hit": false,
      "t": 44069.57198437503,
      "d": 50.48060937500122,
      "v": 88
    },
    {
      "midi": 62,
      "hit": false,
      "t": 44069.57198437503,
      "d": 50.48060937500122,
      "v": 101
    },
    {
      "midi": 67,
      "hit": false,
      "t": 44071.97582291669,
      "d": 62.49980208333727,
      "v": 99
    },
    {
      "midi": 72,
      "hit": false,
      "t": 44283.51361458336,
      "d": 62.499802083329996,
      "v": 102
    },
    {
      "midi": 67,
      "hit": false,
      "t": 44285.917453125025,
      "d": 74.51899479166605,
      "v": 95
    },
    {
      "midi": 79,
      "hit": false,
      "t": 44285.917453125025,
      "d": 91.3458645833307,
      "v": 109
    },
    {
      "midi": 36,
      "hit": false,
      "t": 44309.955838541726,
      "d": 360.57578125000146,
      "v": 80
    },
    {
      "midi": 64,
      "hit": false,
      "t": 44521.49363020836,
      "d": 67.30747916666587,
      "v": 101
    },
    {
      "midi": 67,
      "hit": false,
      "t": 44523.89746875002,
      "d": 64.90364062500157,
      "v": 97
    },
    {
      "midi": 67,
      "hit": false,
      "t": 44526.30130729169,
      "d": 216.34546874999796,
      "v": 102
    },
    {
      "midi": 79,
      "hit": false,
      "t": 44526.30130729169,
      "d": 216.34546874999796,
      "v": 117
    },
    {
      "midi": 72,
      "hit": false,
      "t": 44528.70514583335,
      "d": 199.5185989583333,
      "v": 107
    },
    {
      "midi": 60,
      "hit": false,
      "t": 44528.70514583336,
      "d": 57.6921250000014,
      "v": 90
    },
    {
      "midi": 50,
      "hit": false,
      "t": 44757.06980729165,
      "d": 230.7684999999983,
      "v": 100
    },
    {
      "midi": 62,
      "hit": false,
      "t": 44757.06980729165,
      "d": 230.7684999999983,
      "v": 100
    },
    {
      "midi": 74,
      "hit": false,
      "t": 44759.473645833314,
      "d": 228.364661458334,
      "v": 100
    },
    {
      "midi": 38,
      "hit": false,
      "t": 44771.49283854173,
      "d": 374.9988125000018,
      "v": 85
    },
    {
      "midi": 67,
      "hit": false,
      "t": 44992.64598437503,
      "d": 64.90364062500157,
      "v": 97
    },
    {
      "midi": 64,
      "hit": false,
      "t": 44995.04982291669,
      "d": 48.07677083333692,
      "v": 101
    },
    {
      "midi": 60,
      "hit": false,
      "t": 44995.04982291669,
      "d": 57.6921250000014,
      "v": 92
    },
    {
      "midi": 71,
      "hit": false,
      "t": 44997.45366145835,
      "d": 182.6917291666614,
      "v": 107
    },
    {
      "midi": 83,
      "hit": false,
      "t": 44999.85750000001,
      "d": 165.86485937499674,
      "v": 120
    },
    {
      "midi": 52,
      "hit": false,
      "t": 45002.26133854165,
      "d": 218.749307291655,
      "v": 84
    },
    {
      "midi": 64,
      "hit": false,
      "t": 45002.26133854165,
      "d": 218.749307291655,
      "v": 84
    },
    {
      "midi": 76,
      "hit": false,
      "t": 45004.66517708331,
      "d": 213.9416302083264,
      "v": 84
    },
    {
      "midi": 55,
      "hit": false,
      "t": 45213.79913020831,
      "d": 374.99881249999453,
      "v": 94
    },
    {
      "midi": 67,
      "hit": false,
      "t": 45213.79913020831,
      "d": 374.99881249999453,
      "v": 94
    },
    {
      "midi": 79,
      "hit": false,
      "t": 45216.202968749974,
      "d": 372.59497395833023,
      "v": 94
    },
    {
      "midi": 43,
      "hit": false,
      "t": 45233.02983854173,
      "d": 374.9988125000018,
      "v": 82
    },
    {
      "midi": 67,
      "hit": false,
      "t": 45458.99066145836,
      "d": 55.28828645832982,
      "v": 99
    },
    {
      "midi": 62,
      "hit": false,
      "t": 45463.798338541696,
      "d": 45.67293229166535,
      "v": 104
    },
    {
      "midi": 59,
      "hit": false,
      "t": 45463.798338541696,
      "d": 48.07677083332965,
      "v": 90
    },
    {
      "midi": 38,
      "hit": false,
      "t": 45694.56683854174,
      "d": 163.46102083333244,
      "v": 83
    },
    {
      "midi": 59,
      "hit": false,
      "t": 45915.71998437502,
      "d": 62.499802083329996,
      "v": 88
    },
    {
      "midi": 62,
      "hit": false,
      "t": 45915.71998437502,
      "d": 62.499802083329996,
      "v": 101
    },
    {
      "midi": 67,
      "hit": false,
      "t": 45918.123822916685,
      "d": 62.499802083329996,
      "v": 97
    },
    {
      "midi": 40,
      "hit": false,
      "t": 45925.335338541736,
      "d": 187.49940624999726,
      "v": 85
    },
    {
      "midi": 86,
      "hit": false,
      "t": 46127.25777604164,
      "d": 384.6141666666663,
      "v": 84
    },
    {
      "midi": 74,
      "hit": false,
      "t": 46153.699999999975,
      "d": 459.1331614583323,
      "v": 102
    },
    {
      "midi": 43,
      "hit": false,
      "t": 46156.103838541734,
      "d": 370.19113541666593,
      "v": 75
    },
    {
      "midi": 62,
      "hit": false,
      "t": 46396.487692708346,
      "d": 52.88444791666552,
      "v": 99
    },
    {
      "midi": 59,
      "hit": false,
      "t": 46396.487692708346,
      "d": 64.90364062500157,
      "v": 88
    },
    {
      "midi": 67,
      "hit": false,
      "t": 46398.89153125001,
      "d": 62.49980208333727,
      "v": 97
    },
    {
      "midi": 72,
      "hit": false,
      "t": 46583.98709895831,
      "d": 81.73051041666622,
      "v": 94
    },
    {
      "midi": 84,
      "hit": false,
      "t": 46583.98709895831,
      "d": 81.73051041666622,
      "v": 94
    },
    {
      "midi": 38,
      "hit": false,
      "t": 46617.64083854173,
      "d": 343.7489114583368,
      "v": 73
    },
    {
      "midi": 83,
      "hit": false,
      "t": 46829.178630208306,
      "d": 64.90364062500157,
      "v": 97
    },
    {
      "midi": 71,
      "hit": false,
      "t": 46829.178630208306,
      "d": 67.30747916666587,
      "v": 97
    },
    {
      "midi": 59,
      "hit": false,
      "t": 46838.793984375014,
      "d": 64.90364062500157,
      "v": 90
    },
    {
      "midi": 67,
      "hit": false,
      "t": 46838.793984375014,
      "d": 64.90364062500157,
      "v": 101
    },
    {
      "midi": 62,
      "hit": false,
      "t": 46841.19782291668,
      "d": 57.6921250000014,
      "v": 101
    },
    {
      "midi": 72,
      "hit": false,
      "t": 47045.5240989583,
      "d": 240.38385416667006,
      "v": 113
    },
    {
      "midi": 84,
      "hit": false,
      "t": 47045.5240989583,
      "d": 240.38385416667006,
      "v": 113
    },
    {
      "midi": 43,
      "hit": false,
      "t": 47079.177838541735,
      "d": 372.59497395833023,
      "v": 79
    },
    {
      "midi": 71,
      "hit": false,
      "t": 47271.48492187497,
      "d": 72.11515625000175,
      "v": 94
    },
    {
      "midi": 83,
      "hit": false,
      "t": 47271.48492187497,
      "d": 72.11515625000175,
      "v": 94
    },
    {
      "midi": 62,
      "hit": false,
      "t": 47295.52330729168,
      "d": 50.48060937500122,
      "v": 101
    },
    {
      "midi": 67,
      "hit": false,
      "t": 47295.52330729168,
      "d": 64.90364062500157,
      "v": 99
    },
    {
      "midi": 59,
      "hit": false,
      "t": 47297.927145833346,
      "d": 48.07677083333692,
      "v": 90
    },
    {
      "midi": 67,
      "hit": false,
      "t": 47492.63806770831,
      "d": 211.53779166666936,
      "v": 116
    },
    {
      "midi": 79,
      "hit": false,
      "t": 47492.63806770831,
      "d": 211.53779166666936,
      "v": 116
    },
    {
      "midi": 38,
      "hit": false,
      "t": 47540.71483854173,
      "d": 343.7489114583368,
      "v": 72
    },
    {
      "midi": 64,
      "hit": false,
      "t": 47718.59889062498,
      "d": 76.92283333333035,
      "v": 112
    },
    {
      "midi": 76,
      "hit": false,
      "t": 47721.00272916664,
      "d": 74.51899479166605,
      "v": 112
    },
    {
      "midi": 62,
      "hit": false,
      "t": 47747.444953125014,
      "d": 67.30747916666587,
      "v": 101
    },
    {
      "midi": 67,
      "hit": false,
      "t": 47747.444953125014,
      "d": 79.32667187500192,
      "v": 101
    },
    {
      "midi": 59,
      "hit": false,
      "t": 47752.25263020835,
      "d": 60.0959635416657,
      "v": 92
    },
    {
      "midi": 79,
      "hit": false,
      "t": 47944.559713541676,
      "d": 105.76889583333832,
      "v": 123
    },
    {
      "midi": 79,
      "hit": false,
      "t": 47958.98274479164,
      "d": 69.71131770833017,
      "v": 107
    },
    {
      "midi": 67,
      "hit": false,
      "t": 47958.98274479164,
      "d": 72.11515624999447,
      "v": 107
    },
    {
      "midi": 72,
      "hit": false,
      "t": 47963.79042187501,
      "d": 72.11515625000175,
      "v": 109
    },
    {
      "midi": 36,
      "hit": false,
      "t": 48002.251838541735,
      "d": 374.9988125000018,
      "v": 79
    },
    {
      "midi": 67,
      "hit": false,
      "t": 48180.135890624966,
      "d": 331.72971875000076,
      "v": 116
    },
    {
      "midi": 79,
      "hit": false,
      "t": 48180.135890624966,
      "d": 331.72971875000076,
      "v": 116
    },
    {
      "midi": 79,
      "hit": false,
      "t": 48199.366598958346,
      "d": 223.55698437499814,
      "v": 114
    },
    {
      "midi": 60,
      "hit": false,
      "t": 48204.17427604168,
      "d": 64.9036406249943,
      "v": 88
    },
    {
      "midi": 67,
      "hit": false,
      "t": 48204.17427604168,
      "d": 64.9036406249943,
      "v": 99
    },
    {
      "midi": 64,
      "hit": false,
      "t": 48206.578114583346,
      "d": 60.0959635416657,
      "v": 99
    },
    {
      "midi": 72,
      "hit": false,
      "t": 48213.789630208346,
      "d": 170.67253645833262,
      "v": 96
    },
    {
      "midi": 38,
      "hit": false,
      "t": 48463.78883854174,
      "d": 331.72971875000076,
      "v": 74
    },
    {
      "midi": 60,
      "hit": false,
      "t": 48670.51895312501,
      "d": 52.88444791666552,
      "v": 90
    },
    {
      "midi": 64,
      "hit": false,
      "t": 48672.92279166667,
      "d": 50.48060937500122,
      "v": 94
    },
    {
      "midi": 67,
      "hit": false,
      "t": 48672.92279166667,
      "d": 62.49980208333727,
      "v": 97
    },
    {
      "midi": 71,
      "hit": false,
      "t": 48677.73046875001,
      "d": 98.55738020833087,
      "v": 114
    },
    {
      "midi": 79,
      "hit": false,
      "t": 48680.13430729167,
      "d": 124.99960416666727,
      "v": 127
    },
    {
      "midi": 67,
      "hit": false,
      "t": 48689.7496614583,
      "d": 96.15354166666657,
      "v": 116
    },
    {
      "midi": 79,
      "hit": false,
      "t": 48689.7496614583,
      "d": 96.15354166666657,
      "v": 116
    },
    {
      "midi": 43,
      "hit": false,
      "t": 48925.32583854174,
      "d": 413.460229166667,
      "v": 85
    },
    {
      "midi": 59,
      "hit": false,
      "t": 49127.248276041675,
      "d": 62.499802083329996,
      "v": 90
    },
    {
      "midi": 67,
      "hit": false,
      "t": 49127.248276041675,
      "d": 64.9036406249943,
      "v": 99
    },
    {
      "midi": 62,
      "hit": false,
      "t": 49129.65211458334,
      "d": 60.0959635416657,
      "v": 101
    },
    {
      "midi": 38,
      "hit": false,
      "t": 49386.86283854175,
      "d": 161.05718229166814,
      "v": 86
    },
    {
      "midi": 62,
      "hit": false,
      "t": 49593.592953125,
      "d": 52.8844479166728,
      "v": 97
    },
    {
      "midi": 67,
      "hit": false,
      "t": 49593.592953125,
      "d": 64.90364062500885,
      "v": 101
    },
    {
      "midi": 59,
      "hit": false,
      "t": 49598.400630208336,
      "d": 48.07677083333692,
      "v": 88
    },
    {
      "midi": 40,
      "hit": false,
      "t": 49617.631338541745,
      "d": 187.49940624999726,
      "v": 88
    },
    {
      "midi": 43,
      "hit": false,
      "t": 49848.39983854174,
      "d": 382.210328125002,
      "v": 85
    },
    {
      "midi": 62,
      "hit": false,
      "t": 50074.36066145834,
      "d": 69.71131770833745,
      "v": 92
    },
    {
      "midi": 67,
      "hit": false,
      "t": 50074.36066145834,
      "d": 79.32667187500192,
      "v": 90
    },
    {
      "midi": 59,
      "hit": false,
      "t": 50079.168338541676,
      "d": 40.86525520833675,
      "v": 83
    },
    {
      "midi": 38,
      "hit": false,
      "t": 50309.93683854175,
      "d": 341.34507291666523,
      "v": 76
    },
    {
      "midi": 59,
      "hit": false,
      "t": 50516.66695312501,
      "d": 60.0959635416657,
      "v": 85
    },
    {
      "midi": 67,
      "hit": false,
      "t": 50516.66695312501,
      "d": 62.499802083329996,
      "v": 94
    },
    {
      "midi": 62,
      "hit": false,
      "t": 50519.07079166667,
      "d": 57.6921250000014,
      "v": 99
    },
    {
      "midi": 43,
      "hit": false,
      "t": 50771.473838541744,
      "d": 343.7489114583368,
      "v": 79
    },
    {
      "midi": 62,
      "hit": false,
      "t": 50983.01163020834,
      "d": 67.3074791666586,
      "v": 101
    },
    {
      "midi": 67,
      "hit": false,
      "t": 50985.415468750005,
      "d": 62.499802083329996,
      "v": 97
    },
    {
      "midi": 59,
      "hit": false,
      "t": 50987.81930729167,
      "d": 60.0959635416657,
      "v": 86
    },
    {
      "midi": 38,
      "hit": false,
      "t": 51233.01083854175,
      "d": 358.1719427083299,
      "v": 79
    },
    {
      "midi": 59,
      "hit": false,
      "t": 51454.163984375,
      "d": 52.88444791666552,
      "v": 88
    },
    {
      "midi": 62,
      "hit": false,
      "t": 51454.163984375,
      "d": 52.88444791666552,
      "v": 101
    },
    {
      "midi": 67,
      "hit": false,
      "t": 51456.567822916666,
      "d": 62.49980208333727,
      "v": 99
    },
    {
      "midi": 72,
      "hit": false,
      "t": 51670.50945312501,
      "d": 60.0959635416657,
      "v": 102
    },
    {
      "midi": 67,
      "hit": false,
      "t": 51670.50945312501,
      "d": 74.51899479166605,
      "v": 95
    },
    {
      "midi": 79,
      "hit": false,
      "t": 51670.50945312501,
      "d": 91.3458645833307,
      "v": 109
    },
    {
      "midi": 36,
      "hit": false,
      "t": 51694.547838541745,
      "d": 360.57578125000146,
      "v": 80
    },
    {
      "midi": 64,
      "hit": false,
      "t": 51906.085630208334,
      "d": 67.30747916666587,
      "v": 101
    },
    {
      "midi": 67,
      "hit": false,
      "t": 51906.085630208334,
      "d": 67.30747916666587,
      "v": 97
    },
    {
      "midi": 67,
      "hit": false,
      "t": 51910.89330729167,
      "d": 216.34546874999796,
      "v": 102
    },
    {
      "midi": 79,
      "hit": false,
      "t": 51910.89330729167,
      "d": 216.34546874999796,
      "v": 117
    },
    {
      "midi": 72,
      "hit": false,
      "t": 51913.297145833334,
      "d": 199.5185989583333,
      "v": 107
    },
    {
      "midi": 60,
      "hit": false,
      "t": 51913.297145833334,
      "d": 57.6921250000014,
      "v": 90
    },
    {
      "midi": 38,
      "hit": false,
      "t": 52156.08483854175,
      "d": 374.9988125000018,
      "v": 85
    },
    {
      "midi": 60,
      "hit": false,
      "t": 52377.237984375,
      "d": 60.0959635416657,
      "v": 92
    },
    {
      "midi": 67,
      "hit": false,
      "t": 52377.237984375,
      "d": 64.90364062500157,
      "v": 97
    },
    {
      "midi": 64,
      "hit": false,
      "t": 52379.64182291667,
      "d": 48.07677083333692,
      "v": 101
    },
    {
      "midi": 83,
      "hit": false,
      "t": 52382.04566145833,
      "d": 168.26869791666832,
      "v": 120
    },
    {
      "midi": 71,
      "hit": false,
      "t": 52382.04566145833,
      "d": 182.69172916666867,
      "v": 107
    },
    {
      "midi": 43,
      "hit": false,
      "t": 52617.62183854175,
      "d": 374.9988125000018,
      "v": 82
    },
    {
      "midi": 67,
      "hit": false,
      "t": 52843.582661458335,
      "d": 55.28828645832982,
      "v": 99
    },
    {
      "midi": 62,
      "hit": false,
      "t": 52848.39033854167,
      "d": 45.67293229166535,
      "v": 104
    },
    {
      "midi": 59,
      "hit": false,
      "t": 52848.39033854167,
      "d": 48.07677083332965,
      "v": 90
    },
    {
      "midi": 38,
      "hit": false,
      "t": 53079.158838541756,
      "d": 163.46102083333244,
      "v": 83
    },
    {
      "midi": 62,
      "hit": false,
      "t": 53300.311984374996,
      "d": 60.0959635416657,
      "v": 101
    },
    {
      "midi": 59,
      "hit": false,
      "t": 53300.311984374996,
      "d": 62.499802083329996,
      "v": 88
    },
    {
      "midi": 67,
      "hit": false,
      "t": 53302.71582291666,
      "d": 62.499802083329996,
      "v": 97
    },
    {
      "midi": 40,
      "hit": false,
      "t": 53309.927338541755,
      "d": 187.49940624999726,
      "v": 85
    },
    {
      "midi": 43,
      "hit": false,
      "t": 53540.69583854175,
      "d": 370.19113541666593,
      "v": 75
    },
    {
      "midi": 62,
      "hit": false,
      "t": 53781.07969270832,
      "d": 52.88444791666552,
      "v": 99
    },
    {
      "midi": 59,
      "hit": false,
      "t": 53781.07969270832,
      "d": 64.90364062500157,
      "v": 88
    },
    {
      "midi": 67,
      "hit": false,
      "t": 53783.483531249985,
      "d": 62.49980208333727,
      "v": 97
    },
    {
      "midi": 38,
      "hit": false,
      "t": 54002.23283854175,
      "d": 343.7489114583368,
      "v": 73
    },
    {
      "midi": 59,
      "hit": false,
      "t": 54223.38598437499,
      "d": 64.90364062500157,
      "v": 90
    },
    {
      "midi": 67,
      "hit": false,
      "t": 54223.38598437499,
      "d": 64.90364062500157,
      "v": 101
    },
    {
      "midi": 62,
      "hit": false,
      "t": 54225.78982291665,
      "d": 57.6921250000014,
      "v": 101
    },
    {
      "midi": 43,
      "hit": false,
      "t": 54463.76983854175,
      "d": 374.9988125000018,
      "v": 79
    },
    {
      "midi": 59,
      "hit": false,
      "t": 54680.11530729166,
      "d": 48.07677083333692,
      "v": 90
    },
    {
      "midi": 62,
      "hit": false,
      "t": 54680.11530729166,
      "d": 48.07677083333692,
      "v": 101
    },
    {
      "midi": 67,
      "hit": false,
      "t": 54680.11530729166,
      "d": 64.90364062500157,
      "v": 99
    },
    {
      "midi": 38,
      "hit": false,
      "t": 54925.30683854176,
      "d": 343.7489114583368,
      "v": 72
    },
    {
      "midi": 62,
      "hit": false,
      "t": 55132.03695312499,
      "d": 64.90364062500157,
      "v": 101
    },
    {
      "midi": 67,
      "hit": false,
      "t": 55132.03695312499,
      "d": 79.32667187500192,
      "v": 101
    },
    {
      "midi": 59,
      "hit": false,
      "t": 55136.844630208325,
      "d": 60.0959635416657,
      "v": 92
    },
    {
      "midi": 79,
      "hit": false,
      "t": 55329.151713541665,
      "d": 105.76889583333832,
      "v": 123
    },
    {
      "midi": 72,
      "hit": false,
      "t": 55348.382421875,
      "d": 72.11515625000175,
      "v": 109
    },
    {
      "midi": 36,
      "hit": false,
      "t": 55386.84383854176,
      "d": 374.9988125000018,
      "v": 79
    },
    {
      "midi": 79,
      "hit": false,
      "t": 55583.958598958336,
      "d": 223.55698437499814,
      "v": 114
    },
    {
      "midi": 60,
      "hit": false,
      "t": 55588.76627604166,
      "d": 64.90364062500157,
      "v": 88
    },
    {
      "midi": 67,
      "hit": false,
      "t": 55588.76627604166,
      "d": 64.90364062500157,
      "v": 99
    },
    {
      "midi": 64,
      "hit": false,
      "t": 55591.17011458332,
      "d": 57.6921250000014,
      "v": 99
    },
    {
      "midi": 72,
      "hit": false,
      "t": 55598.381630208336,
      "d": 170.67253645833262,
      "v": 96
    },
    {
      "midi": 38,
      "hit": false,
      "t": 55848.380838541765,
      "d": 331.72971875000076,
      "v": 74
    },
    {
      "midi": 64,
      "hit": false,
      "t": 56055.11095312499,
      "d": 50.48060937500122,
      "v": 94
    },
    {
      "midi": 60,
      "hit": false,
      "t": 56055.11095312499,
      "d": 52.88444791666552,
      "v": 90
    },
    {
      "midi": 67,
      "hit": false,
      "t": 56057.514791666654,
      "d": 62.49980208333727,
      "v": 97
    },
    {
      "midi": 71,
      "hit": false,
      "t": 56064.72630729167,
      "d": 96.15354166666657,
      "v": 114
    },
    {
      "midi": 79,
      "hit": false,
      "t": 56064.72630729167,
      "d": 124.99960416666727,
      "v": 127
    },
    {
      "midi": 43,
      "hit": false,
      "t": 56309.91783854177,
      "d": 411.0563906250027,
      "v": 85
    },
    {
      "midi": 59,
      "hit": false,
      "t": 56511.84027604166,
      "d": 62.499802083329996,
      "v": 90
    },
    {
      "midi": 67,
      "hit": false,
      "t": 56511.84027604166,
      "d": 64.9036406249943,
      "v": 99
    },
    {
      "midi": 62,
      "hit": false,
      "t": 56514.24411458332,
      "d": 60.0959635416657,
      "v": 101
    },
    {
      "midi": 38,
      "hit": false,
      "t": 56771.45483854177,
      "d": 163.46102083333244,
      "v": 86
    },
    {
      "midi": 62,
      "hit": false,
      "t": 56978.18495312498,
      "d": 52.8844479166728,
      "v": 97
    },
    {
      "midi": 67,
      "hit": false,
      "t": 56978.18495312498,
      "d": 64.90364062500885,
      "v": 101
    },
    {
      "midi": 59,
      "hit": false,
      "t": 56982.99263020832,
      "d": 48.07677083333692,
      "v": 88
    },
    {
      "midi": 40,
      "hit": false,
      "t": 57002.22333854177,
      "d": 187.49940624999726,
      "v": 88
    },
    {
      "midi": 43,
      "hit": false,
      "t": 57232.99183854177,
      "d": 382.210328125002,
      "v": 85
    },
    {
      "midi": 62,
      "hit": false,
      "t": 57458.95266145832,
      "d": 69.71131770833745,
      "v": 92
    },
    {
      "midi": 67,
      "hit": false,
      "t": 57458.95266145832,
      "d": 79.32667187500192,
      "v": 90
    },
    {
      "midi": 59,
      "hit": false,
      "t": 57463.76033854166,
      "d": 43.26909375000105,
      "v": 83
    },
    {
      "midi": 38,
      "hit": false,
      "t": 57694.52883854177,
      "d": 341.34507291666523,
      "v": 76
    },
    {
      "midi": 59,
      "hit": false,
      "t": 57901.25895312499,
      "d": 60.0959635416657,
      "v": 85
    },
    {
      "midi": 62,
      "hit": false,
      "t": 57901.25895312499,
      "d": 60.0959635416657,
      "v": 99
    },
    {
      "midi": 67,
      "hit": false,
      "t": 57901.25895312499,
      "d": 62.499802083329996,
      "v": 94
    },
    {
      "midi": 43,
      "hit": false,
      "t": 58156.06583854177,
      "d": 343.7489114583368,
      "v": 79
    },
    {
      "midi": 62,
      "hit": false,
      "t": 58367.60363020832,
      "d": 67.3074791666586,
      "v": 101
    },
    {
      "midi": 67,
      "hit": false,
      "t": 58370.00746874999,
      "d": 64.9036406249943,
      "v": 97
    },
    {
      "midi": 59,
      "hit": false,
      "t": 58372.41130729165,
      "d": 62.499802083329996,
      "v": 86
    },
    {
      "midi": 38,
      "hit": false,
      "t": 58617.602838541774,
      "d": 360.57578125000146,
      "v": 79
    },
    {
      "midi": 62,
      "hit": false,
      "t": 58838.755984374984,
      "d": 50.48060937500122,
      "v": 101
    },
    {
      "midi": 59,
      "hit": false,
      "t": 58838.755984374984,
      "d": 52.88444791666552,
      "v": 88
    },
    {
      "midi": 67,
      "hit": false,
      "t": 58841.15982291665,
      "d": 62.49980208333727,
      "v": 99
    },
    {
      "midi": 72,
      "hit": false,
      "t": 59055.101453125004,
      "d": 60.0959635416657,
      "v": 102
    },
    {
      "midi": 79,
      "hit": false,
      "t": 59055.101453125004,
      "d": 91.3458645833307,
      "v": 109
    },
    {
      "midi": 67,
      "hit": false,
      "t": 59057.50529166667,
      "d": 72.11515625000175,
      "v": 95
    },
    {
      "midi": 36,
      "hit": false,
      "t": 59079.13983854178,
      "d": 360.57578125000146,
      "v": 80
    },
    {
      "midi": 64,
      "hit": false,
      "t": 59290.677630208316,
      "d": 67.30747916666587,
      "v": 101
    },
    {
      "midi": 67,
      "hit": false,
      "t": 59290.677630208316,
      "d": 67.30747916666587,
      "v": 97
    },
    {
      "midi": 67,
      "hit": false,
      "t": 59295.48530729167,
      "d": 213.94163020833366,
      "v": 102
    },
    {
      "midi": 79,
      "hit": false,
      "t": 59295.48530729167,
      "d": 216.34546874999796,
      "v": 117
    },
    {
      "midi": 60,
      "hit": false,
      "t": 59297.88914583332,
      "d": 57.6921250000014,
      "v": 90
    },
    {
      "midi": 72,
      "hit": false,
      "t": 59297.88914583333,
      "d": 199.5185989583333,
      "v": 107
    },
    {
      "midi": 38,
      "hit": false,
      "t": 59540.67683854178,
      "d": 374.9988125000018,
      "v": 85
    },
    {
      "midi": 67,
      "hit": false,
      "t": 59761.829984374985,
      "d": 64.90364062500157,
      "v": 97
    },
    {
      "midi": 64,
      "hit": false,
      "t": 59764.23382291665,
      "d": 48.07677083333692,
      "v": 101
    },
    {
      "midi": 60,
      "hit": false,
      "t": 59764.23382291665,
      "d": 57.6921250000014,
      "v": 92
    },
    {
      "midi": 71,
      "hit": false,
      "t": 59766.63766145833,
      "d": 180.2878906249971,
      "v": 107
    },
    {
      "midi": 83,
      "hit": false,
      "t": 59769.04149999999,
      "d": 165.86485937499674,
      "v": 120
    },
    {
      "midi": 43,
      "hit": false,
      "t": 60002.213838541786,
      "d": 374.9988125000018,
      "v": 82
    },
    {
      "midi": 67,
      "hit": false,
      "t": 60228.17466145832,
      "d": 55.28828645832982,
      "v": 99
    },
    {
      "midi": 62,
      "hit": false,
      "t": 60232.98233854165,
      "d": 45.67293229166535,
      "v": 104
    },
    {
      "midi": 59,
      "hit": false,
      "t": 60232.98233854165,
      "d": 48.07677083332965,
      "v": 90
    },
    {
      "midi": 38,
      "hit": false,
      "t": 60463.75083854179,
      "d": 163.46102083333244,
      "v": 83
    },
    {
      "midi": 59,
      "hit": false,
      "t": 60684.90398437498,
      "d": 60.0959635416657,
      "v": 88
    },
    {
      "midi": 62,
      "hit": false,
      "t": 60684.90398437498,
      "d": 60.0959635416657,
      "v": 101
    },
    {
      "midi": 67,
      "hit": false,
      "t": 60687.30782291664,
      "d": 62.49980208333727,
      "v": 97
    },
    {
      "midi": 40,
      "hit": false,
      "t": 60694.51933854179,
      "d": 187.49940624999726,
      "v": 85
    },
    {
      "midi": 43,
      "hit": false,
      "t": 60925.287838541786,
      "d": 370.19113541666593,
      "v": 75
    },
    {
      "midi": 62,
      "hit": false,
      "t": 61165.67169270831,
      "d": 52.88444791666552,
      "v": 99
    },
    {
      "midi": 59,
      "hit": false,
      "t": 61165.67169270831,
      "d": 64.90364062500157,
      "v": 88
    },
    {
      "midi": 67,
      "hit": false,
      "t": 61168.075531249975,
      "d": 62.49980208333727,
      "v": 97
    },
    {
      "midi": 38,
      "hit": false,
      "t": 61386.82483854178,
      "d": 343.7489114583368,
      "v": 73
    },
    {
      "midi": 59,
      "hit": false,
      "t": 61607.97798437498,
      "d": 64.90364062500157,
      "v": 90
    },
    {
      "midi": 67,
      "hit": false,
      "t": 61607.97798437498,
      "d": 64.90364062500157,
      "v": 101
    },
    {
      "midi": 62,
      "hit": false,
      "t": 61610.38182291664,
      "d": 57.6921250000014,
      "v": 101
    },
    {
      "midi": 43,
      "hit": false,
      "t": 61848.36183854179,
      "d": 374.9988125000018,
      "v": 79
    },
    {
      "midi": 62,
      "hit": false,
      "t": 62064.70730729165,
      "d": 48.07677083332965,
      "v": 101
    },
    {
      "midi": 67,
      "hit": false,
      "t": 62064.70730729165,
      "d": 64.9036406249943,
      "v": 99
    },
    {
      "midi": 59,
      "hit": false,
      "t": 62067.11114583331,
      "d": 45.67293229166535,
      "v": 90
    },
    {
      "midi": 38,
      "hit": false,
      "t": 62309.89883854179,
      "d": 343.7489114583368,
      "v": 72
    },
    {
      "midi": 62,
      "hit": false,
      "t": 62516.62895312497,
      "d": 67.30747916666587,
      "v": 101
    },
    {
      "midi": 67,
      "hit": false,
      "t": 62516.62895312497,
      "d": 79.32667187500192,
      "v": 101
    },
    {
      "midi": 59,
      "hit": false,
      "t": 62521.43663020831,
      "d": 60.0959635416657,
      "v": 92
    },
    {
      "midi": 79,
      "hit": false,
      "t": 62713.743713541655,
      "d": 105.76889583333832,
      "v": 123
    },
    {
      "midi": 72,
      "hit": false,
      "t": 62732.97442187499,
      "d": 72.11515625000175,
      "v": 109
    },
    {
      "midi": 36,
      "hit": false,
      "t": 62771.435838541795,
      "d": 374.9988125000018,
      "v": 79
    },
    {
      "midi": 79,
      "hit": false,
      "t": 62968.550598958325,
      "d": 223.55698437499814,
      "v": 114
    },
    {
      "midi": 60,
      "hit": false,
      "t": 62973.35827604164,
      "d": 64.9036406249943,
      "v": 88
    },
    {
      "midi": 67,
      "hit": false,
      "t": 62973.35827604164,
      "d": 64.9036406249943,
      "v": 99
    },
    {
      "midi": 64,
      "hit": false,
      "t": 62975.7621145833,
      "d": 60.0959635416657,
      "v": 99
    },
    {
      "midi": 72,
      "hit": false,
      "t": 62982.973630208326,
      "d": 170.67253645833262,
      "v": 96
    },
    {
      "midi": 38,
      "hit": false,
      "t": 63232.9728385418,
      "d": 331.72971875000076,
      "v": 74
    },
    {
      "midi": 60,
      "hit": false,
      "t": 63439.702953124965,
      "d": 52.88444791666552,
      "v": 90
    },
    {
      "midi": 64,
      "hit": false,
      "t": 63439.702953124965,
      "d": 52.88444791666552,
      "v": 94
    },
    {
      "midi": 67,
      "hit": false,
      "t": 63442.10679166663,
      "d": 62.49980208333727,
      "v": 97
    },
    {
      "midi": 71,
      "hit": false,
      "t": 63449.31830729166,
      "d": 96.15354166666657,
      "v": 114
    },
    {
      "midi": 79,
      "hit": false,
      "t": 63449.31830729166,
      "d": 124.99960416666727,
      "v": 127
    },
    {
      "midi": 43,
      "hit": false,
      "t": 63694.5098385418,
      "d": 413.460229166667,
      "v": 85
    },
    {
      "midi": 59,
      "hit": false,
      "t": 63896.43227604163,
      "d": 62.499802083329996,
      "v": 90
    },
    {
      "midi": 67,
      "hit": false,
      "t": 63896.43227604163,
      "d": 64.9036406249943,
      "v": 99
    },
    {
      "midi": 62,
      "hit": false,
      "t": 63898.8361145833,
      "d": 60.0959635416657,
      "v": 101
    },
    {
      "midi": 38,
      "hit": false,
      "t": 64156.046838541806,
      "d": 163.46102083333244,
      "v": 86
    },
    {
      "midi": 62,
      "hit": false,
      "t": 64362.77695312496,
      "d": 52.8844479166728,
      "v": 97
    },
    {
      "midi": 67,
      "hit": false,
      "t": 64362.77695312496,
      "d": 64.90364062500885,
      "v": 101
    },
    {
      "midi": 59,
      "hit": false,
      "t": 64367.584630208294,
      "d": 48.07677083333692,
      "v": 88
    },
    {
      "midi": 40,
      "hit": false,
      "t": 64386.815338541805,
      "d": 187.49940624999726,
      "v": 88
    },
    {
      "midi": 74,
      "hit": false,
      "t": 64617.583838541635,
      "d": 475.960031249997,
      "v": 113
    },
    {
      "midi": 43,
      "hit": false,
      "t": 64617.5838385418,
      "d": 382.210328125002,
      "v": 85
    },
    {
      "midi": 86,
      "hit": false,
      "t": 64619.9876770833,
      "d": 473.5561927083327,
      "v": 113
    },
    {
      "midi": 62,
      "hit": false,
      "t": 64843.5446614583,
      "d": 69.71131770833745,
      "v": 92
    },
    {
      "midi": 67,
      "hit": false,
      "t": 64843.5446614583,
      "d": 79.32667187500192,
      "v": 90
    },
    {
      "midi": 59,
      "hit": false,
      "t": 64848.352338541634,
      "d": 40.86525520833675,
      "v": 83
    },
    {
      "midi": 72,
      "hit": false,
      "t": 65055.08245312497,
      "d": 76.92283333333035,
      "v": 94
    },
    {
      "midi": 84,
      "hit": false,
      "t": 65057.48629166663,
      "d": 72.11515625000175,
      "v": 94
    },
    {
      "midi": 38,
      "hit": false,
      "t": 65079.12083854181,
      "d": 341.34507291666523,
      "v": 76
    },
    {
      "midi": 71,
      "hit": false,
      "t": 65281.04327604163,
      "d": 69.71131770833017,
      "v": 107
    },
    {
      "midi": 83,
      "hit": false,
      "t": 65283.447114583294,
      "d": 64.90364062500157,
      "v": 107
    },
    {
      "midi": 59,
      "hit": false,
      "t": 65285.850953124966,
      "d": 60.0959635416657,
      "v": 85
    },
    {
      "midi": 67,
      "hit": false,
      "t": 65285.850953124966,
      "d": 64.90364062500157,
      "v": 94
    },
    {
      "midi": 62,
      "hit": false,
      "t": 65288.25479166663,
      "d": 57.6921250000014,
      "v": 99
    },
    {
      "midi": 72,
      "hit": false,
      "t": 65511.81177604163,
      "d": 230.7684999999983,
      "v": 110
    },
    {
      "midi": 84,
      "hit": false,
      "t": 65511.81177604163,
      "d": 230.7684999999983,
      "v": 110
    },
    {
      "midi": 43,
      "hit": false,
      "t": 65540.65783854181,
      "d": 343.74891145832953,
      "v": 79
    },
    {
      "midi": 71,
      "hit": false,
      "t": 65728.15724479163,
      "d": 57.6921250000014,
      "v": 91
    },
    {
      "midi": 83,
      "hit": false,
      "t": 65730.56108333329,
      "d": 55.2882864583371,
      "v": 91
    },
    {
      "midi": 62,
      "hit": false,
      "t": 65752.1956302083,
      "d": 67.3074791666586,
      "v": 101
    },
    {
      "midi": 67,
      "hit": false,
      "t": 65754.59946874996,
      "d": 62.499802083329996,
      "v": 97
    },
    {
      "midi": 59,
      "hit": false,
      "t": 65757.00330729163,
      "d": 60.0959635416657,
      "v": 86
    },
    {
      "midi": 67,
      "hit": false,
      "t": 65958.92574479163,
      "d": 252.40304687499884,
      "v": 103
    },
    {
      "midi": 79,
      "hit": false,
      "t": 65958.92574479163,
      "d": 252.40304687499884,
      "v": 103
    },
    {
      "midi": 38,
      "hit": false,
      "t": 66002.1948385418,
      "d": 358.1719427083299,
      "v": 79
    },
    {
      "midi": 64,
      "hit": false,
      "t": 66208.92495312497,
      "d": 72.11515625000175,
      "v": 97
    },
    {
      "midi": 76,
      "hit": false,
      "t": 66211.32879166663,
      "d": 67.30747916667315,
      "v": 97
    },
    {
      "midi": 59,
      "hit": false,
      "t": 66220.94414583329,
      "d": 55.2882864583371,
      "v": 88
    },
    {
      "midi": 62,
      "hit": false,
      "t": 66223.34798437495,
      "d": 52.8844479166728,
      "v": 101
    },
    {
      "midi": 67,
      "hit": false,
      "t": 66223.34798437495,
      "d": 64.90364062500885,
      "v": 99
    },
    {
      "midi": 67,
      "hit": false,
      "t": 66430.0780989583,
      "d": 57.6921250000014,
      "v": 115
    },
    {
      "midi": 79,
      "hit": false,
      "t": 66430.0780989583,
      "d": 57.6921250000014,
      "v": 115
    },
    {
      "midi": 72,
      "hit": false,
      "t": 66439.69345312499,
      "d": 60.0959635416657,
      "v": 102
    },
    {
      "midi": 79,
      "hit": false,
      "t": 66439.69345312499,
      "d": 91.3458645833307,
      "v": 109
    },
    {
      "midi": 67,
      "hit": false,
      "t": 66442.09729166665,
      "d": 72.11515625000175,
      "v": 95
    },
    {
      "midi": 36,
      "hit": false,
      "t": 66463.7318385418,
      "d": 360.5757812499942,
      "v": 80
    },
    {
      "midi": 79,
      "hit": false,
      "t": 66670.46195312496,
      "d": 305.28749479167163,
      "v": 113
    },
    {
      "midi": 67,
      "hit": false,
      "t": 66670.46195312496,
      "d": 307.69133333333593,
      "v": 113
    },
    {
      "midi": 64,
      "hit": false,
      "t": 66675.26963020829,
      "d": 67.3074791666586,
      "v": 101
    },
    {
      "midi": 67,
      "hit": false,
      "t": 66675.26963020829,
      "d": 67.3074791666586,
      "v": 97
    },
    {
      "midi": 67,
      "hit": false,
      "t": 66680.07730729165,
      "d": 216.34546875000524,
      "v": 102
    },
    {
      "midi": 79,
      "hit": false,
      "t": 66680.07730729165,
      "d": 216.34546875000524,
      "v": 117
    },
    {
      "midi": 60,
      "hit": false,
      "t": 66682.48114583328,
      "d": 57.6921250000014,
      "v": 90
    },
    {
      "midi": 72,
      "hit": false,
      "t": 66682.48114583331,
      "d": 199.5185989583406,
      "v": 107
    },
    {
      "midi": 38,
      "hit": false,
      "t": 66925.2688385418,
      "d": 374.99881249999453,
      "v": 85
    },
    {
      "midi": 60,
      "hit": false,
      "t": 67146.42198437495,
      "d": 60.0959635416657,
      "v": 92
    },
    {
      "midi": 67,
      "hit": false,
      "t": 67146.42198437495,
      "d": 64.9036406249943,
      "v": 97
    },
    {
      "midi": 64,
      "hit": false,
      "t": 67148.82582291661,
      "d": 48.07677083332965,
      "v": 101
    },
    {
      "midi": 83,
      "hit": false,
      "t": 67151.22966145832,
      "d": 168.26869791666104,
      "v": 120
    },
    {
      "midi": 71,
      "hit": false,
      "t": 67151.22966145832,
      "d": 182.6917291666614,
      "v": 107
    },
    {
      "midi": 71,
      "hit": false,
      "t": 67156.03733854163,
      "d": 110.57657291665964,
      "v": 117
    },
    {
      "midi": 83,
      "hit": false,
      "t": 67156.03733854163,
      "d": 110.57657291665964,
      "v": 117
    },
    {
      "midi": 43,
      "hit": false,
      "t": 67386.8058385418,
      "d": 374.99881249999453,
      "v": 82
    },
    {
      "midi": 67,
      "hit": false,
      "t": 67612.76666145827,
      "d": 55.288286458322546,
      "v": 99
    },
    {
      "midi": 62,
      "hit": false,
      "t": 67617.5743385416,
      "d": 45.67293229166535,
      "v": 104
    },
    {
      "midi": 59,
      "hit": false,
      "t": 67617.5743385416,
      "d": 48.07677083332965,
      "v": 90
    },
    {
      "midi": 38,
      "hit": false,
      "t": 67848.3428385418,
      "d": 163.46102083333244,
      "v": 83
    },
    {
      "midi": 59,
      "hit": false,
      "t": 68069.49598437492,
      "d": 60.0959635416657,
      "v": 88
    },
    {
      "midi": 62,
      "hit": false,
      "t": 68069.49598437492,
      "d": 60.0959635416657,
      "v": 101
    },
    {
      "midi": 67,
      "hit": false,
      "t": 68071.89982291659,
      "d": 62.499802083329996,
      "v": 97
    },
    {
      "midi": 40,
      "hit": false,
      "t": 68079.1113385418,
      "d": 187.49940625000454,
      "v": 85
    },
    {
      "midi": 74,
      "hit": false,
      "t": 68281.03377604163,
      "d": 499.9984166666691,
      "v": 107
    },
    {
      "midi": 86,
      "hit": false,
      "t": 68281.03377604163,
      "d": 499.9984166666691,
      "v": 107
    },
    {
      "midi": 43,
      "hit": false,
      "t": 68309.8798385418,
      "d": 370.19113541666593,
      "v": 75
    },
    {
      "midi": 62,
      "hit": false,
      "t": 68550.26369270825,
      "d": 52.884447916658246,
      "v": 99
    },
    {
      "midi": 59,
      "hit": false,
      "t": 68550.26369270825,
      "d": 64.9036406249943,
      "v": 88
    },
    {
      "midi": 67,
      "hit": false,
      "t": 68552.66753124991,
      "d": 62.499802083329996,
      "v": 97
    },
    {
      "midi": 72,
      "hit": false,
      "t": 68737.7630989583,
      "d": 81.7305104166735,
      "v": 94
    },
    {
      "midi": 84,
      "hit": false,
      "t": 68737.7630989583,
      "d": 81.7305104166735,
      "v": 94
    },
    {
      "midi": 38,
      "hit": false,
      "t": 68771.4168385418,
      "d": 343.74891145832953,
      "v": 73
    },
    {
      "midi": 83,
      "hit": false,
      "t": 68982.9546302083,
      "d": 64.9036406249943,
      "v": 97
    },
    {
      "midi": 71,
      "hit": false,
      "t": 68982.9546302083,
      "d": 67.3074791666586,
      "v": 97
    },
    {
      "midi": 59,
      "hit": false,
      "t": 68992.56998437492,
      "d": 64.9036406249943,
      "v": 90
    },
    {
      "midi": 67,
      "hit": false,
      "t": 68992.56998437492,
      "d": 64.9036406249943,
      "v": 101
    },
    {
      "midi": 62,
      "hit": false,
      "t": 68994.97382291658,
      "d": 57.6921250000014,
      "v": 101
    },
    {
      "midi": 72,
      "hit": false,
      "t": 69199.3000989583,
      "d": 240.3838541666628,
      "v": 113
    },
    {
      "midi": 84,
      "hit": false,
      "t": 69199.3000989583,
      "d": 240.3838541666628,
      "v": 113
    },
    {
      "midi": 43,
      "hit": false,
      "t": 69232.9538385418,
      "d": 374.99881249999453,
      "v": 79
    },
    {
      "midi": 71,
      "hit": false,
      "t": 69425.26092187496,
      "d": 72.11515625000175,
      "v": 94
    },
    {
      "midi": 83,
      "hit": false,
      "t": 69425.26092187496,
      "d": 72.11515625000175,
      "v": 94
    },
    {
      "midi": 62,
      "hit": false,
      "t": 69449.29930729159,
      "d": 50.480609374993946,
      "v": 101
    },
    {
      "midi": 67,
      "hit": false,
      "t": 69449.29930729159,
      "d": 64.9036406249943,
      "v": 99
    },
    {
      "midi": 59,
      "hit": false,
      "t": 69451.70314583325,
      "d": 48.07677083332965,
      "v": 90
    },
    {
      "midi": 67,
      "hit": false,
      "t": 69646.41406770829,
      "d": 211.5377916666621,
      "v": 116
    },
    {
      "midi": 79,
      "hit": false,
      "t": 69646.41406770829,
      "d": 211.5377916666621,
      "v": 116
    },
    {
      "midi": 38,
      "hit": false,
      "t": 69694.4908385418,
      "d": 343.74891145832953,
      "v": 72
    },
    {
      "midi": 64,
      "hit": false,
      "t": 69872.37489062495,
      "d": 76.92283333333035,
      "v": 112
    },
    {
      "midi": 76,
      "hit": false,
      "t": 69872.37489062495,
      "d": 76.92283333333035,
      "v": 112
    },
    {
      "midi": 62,
      "hit": false,
      "t": 69901.22095312491,
      "d": 64.9036406249943,
      "v": 101
    },
    {
      "midi": 67,
      "hit": false,
      "t": 69901.22095312491,
      "d": 79.32667187499464,
      "v": 101
    },
    {
      "midi": 59,
      "hit": false,
      "t": 69906.02863020824,
      "d": 60.0959635416657,
      "v": 92
    },
    {
      "midi": 79,
      "hit": false,
      "t": 70098.33571354164,
      "d": 105.76889583333104,
      "v": 123
    },
    {
      "midi": 67,
      "hit": false,
      "t": 70112.75874479162,
      "d": 72.11515625000175,
      "v": 107
    },
    {
      "midi": 79,
      "hit": false,
      "t": 70112.75874479162,
      "d": 72.11515625000175,
      "v": 107
    },
    {
      "midi": 72,
      "hit": false,
      "t": 70117.56642187497,
      "d": 72.11515625000175,
      "v": 109
    },
    {
      "midi": 36,
      "hit": false,
      "t": 70156.02783854179,
      "d": 374.99881249999453,
      "v": 79
    },
    {
      "midi": 67,
      "hit": false,
      "t": 70333.91189062495,
      "d": 331.7297187499935,
      "v": 116
    },
    {
      "midi": 79,
      "hit": false,
      "t": 70336.31572916661,
      "d": 329.3258802083292,
      "v": 116
    },
    {
      "midi": 79,
      "hit": false,
      "t": 70353.14259895831,
      "d": 223.5569843750127,
      "v": 114
    },
    {
      "midi": 60,
      "hit": false,
      "t": 70357.95027604158,
      "d": 64.9036406249943,
      "v": 88
    },
    {
      "midi": 67,
      "hit": false,
      "t": 70357.95027604158,
      "d": 64.9036406249943,
      "v": 99
    },
    {
      "midi": 64,
      "hit": false,
      "t": 70360.35411458324,
      "d": 60.0959635416657,
      "v": 99
    },
    {
      "midi": 72,
      "hit": false,
      "t": 70367.56563020831,
      "d": 170.6725364583399,
      "v": 96
    },
    {
      "midi": 38,
      "hit": false,
      "t": 70617.56483854179,
      "d": 331.7297187499935,
      "v": 74
    },
    {
      "midi": 60,
      "hit": false,
      "t": 70824.2949531249,
      "d": 52.884447916658246,
      "v": 90
    },
    {
      "midi": 64,
      "hit": false,
      "t": 70824.2949531249,
      "d": 52.884447916658246,
      "v": 94
    },
    {
      "midi": 67,
      "hit": false,
      "t": 70826.69879166657,
      "d": 62.499802083329996,
      "v": 97
    },
    {
      "midi": 71,
      "hit": false,
      "t": 70833.91030729165,
      "d": 96.15354166667385,
      "v": 114
    },
    {
      "midi": 79,
      "hit": false,
      "t": 70833.91030729165,
      "d": 124.99960416667454,
      "v": 127
    },
    {
      "midi": 67,
      "hit": false,
      "t": 70843.52566145828,
      "d": 96.15354166667385,
      "v": 116
    },
    {
      "midi": 79,
      "hit": false,
      "t": 70843.52566145828,
      "d": 96.15354166667385,
      "v": 116
    },
    {
      "midi": 43,
      "hit": false,
      "t": 71079.10183854178,
      "d": 413.460229166667,
      "v": 85
    },
    {
      "midi": 62,
      "hit": false,
      "t": 71281.02427604157,
      "d": 60.0959635416657,
      "v": 101
    },
    {
      "midi": 59,
      "hit": false,
      "t": 71281.02427604157,
      "d": 62.499802083329996,
      "v": 90
    },
    {
      "midi": 67,
      "hit": false,
      "t": 71281.02427604157,
      "d": 64.9036406249943,
      "v": 99
    },
    {
      "midi": 38,
      "hit": false,
      "t": 71540.63883854178,
      "d": 161.05718229166814,
      "v": 86
    },
    {
      "midi": 62,
      "hit": false,
      "t": 71747.3689531249,
      "d": 52.884447916658246,
      "v": 97
    },
    {
      "midi": 67,
      "hit": false,
      "t": 71747.3689531249,
      "d": 64.9036406249943,
      "v": 101
    },
    {
      "midi": 59,
      "hit": false,
      "t": 71752.17663020823,
      "d": 48.07677083332965,
      "v": 88
    },
    {
      "midi": 40,
      "hit": false,
      "t": 71771.40733854179,
      "d": 187.49940625000454,
      "v": 88
    },
    {
      "midi": 43,
      "hit": false,
      "t": 72002.17583854179,
      "d": 382.210328125002,
      "v": 85
    },
    {
      "midi": 62,
      "hit": false,
      "t": 72228.13666145822,
      "d": 72.11515625000175,
      "v": 92
    },
    {
      "midi": 67,
      "hit": false,
      "t": 72228.13666145822,
      "d": 79.32667187499464,
      "v": 90
    },
    {
      "midi": 59,
      "hit": false,
      "t": 72232.94433854155,
      "d": 40.86525520833675,
      "v": 83
    },
    {
      "midi": 59,
      "hit": false,
      "t": 72410.82839062496,
      "d": 461.5369999999966,
      "v": 103
    },
    {
      "midi": 71,
      "hit": false,
      "t": 72410.82839062496,
      "d": 461.5369999999966,
      "v": 103
    },
    {
      "midi": 83,
      "hit": false,
      "t": 72413.23222916662,
      "d": 459.1331614583323,
      "v": 103
    },
    {
      "midi": 38,
      "hit": false,
      "t": 72463.71283854179,
      "d": 341.34507291666523,
      "v": 76
    },
    {
      "midi": 59,
      "hit": false,
      "t": 72670.44295312489,
      "d": 60.0959635416657,
      "v": 85
    },
    {
      "midi": 67,
      "hit": false,
      "t": 72670.44295312489,
      "d": 62.499802083329996,
      "v": 94
    },
    {
      "midi": 62,
      "hit": false,
      "t": 72672.84679166655,
      "d": 57.6921250000014,
      "v": 99
    },
    {
      "midi": 55,
      "hit": false,
      "t": 72874.76922916662,
      "d": 362.9796197916585,
      "v": 100
    },
    {
      "midi": 67,
      "hit": false,
      "t": 72874.76922916662,
      "d": 362.9796197916585,
      "v": 100
    },
    {
      "midi": 79,
      "hit": false,
      "t": 72877.17306770828,
      "d": 360.5757812499942,
      "v": 100
    },
    {
      "midi": 43,
      "hit": false,
      "t": 72925.24983854179,
      "d": 343.74891145832953,
      "v": 79
    },
    {
      "midi": 67,
      "hit": false,
      "t": 73136.78763020821,
      "d": 64.9036406249943,
      "v": 97
    },
    {
      "midi": 62,
      "hit": false,
      "t": 73136.78763020821,
      "d": 67.3074791666586,
      "v": 101
    },
    {
      "midi": 59,
      "hit": false,
      "t": 73141.59530729154,
      "d": 60.0959635416657,
      "v": 86
    },
    {
      "midi": 38,
      "hit": false,
      "t": 73386.78683854178,
      "d": 360.5757812499942,
      "v": 79
    },
    {
      "midi": 59,
      "hit": false,
      "t": 73607.93998437487,
      "d": 52.884447916658246,
      "v": 88
    },
    {
      "midi": 62,
      "hit": false,
      "t": 73610.34382291653,
      "d": 50.480609374993946,
      "v": 101
    },
    {
      "midi": 67,
      "hit": false,
      "t": 73610.34382291653,
      "d": 62.499802083329996,
      "v": 99
    },
    {
      "midi": 72,
      "hit": false,
      "t": 73824.28545312499,
      "d": 60.0959635416657,
      "v": 102
    },
    {
      "midi": 67,
      "hit": false,
      "t": 73824.28545312499,
      "d": 74.51899479166605,
      "v": 95
    },
    {
      "midi": 79,
      "hit": false,
      "t": 73824.28545312499,
      "d": 91.3458645833307,
      "v": 109
    },
    {
      "midi": 36,
      "hit": false,
      "t": 73848.32383854178,
      "d": 360.5757812499942,
      "v": 80
    },
    {
      "midi": 64,
      "hit": false,
      "t": 74059.8616302082,
      "d": 67.3074791666586,
      "v": 101
    },
    {
      "midi": 67,
      "hit": false,
      "t": 74062.26546874986,
      "d": 64.9036406249943,
      "v": 97
    },
    {
      "midi": 67,
      "hit": false,
      "t": 74064.66930729165,
      "d": 216.34546875000524,
      "v": 102
    },
    {
      "midi": 79,
      "hit": false,
      "t": 74064.66930729165,
      "d": 216.34546875000524,
      "v": 117
    },
    {
      "midi": 72,
      "hit": false,
      "t": 74067.07314583332,
      "d": 199.5185989583406,
      "v": 107
    },
    {
      "midi": 60,
      "hit": false,
      "t": 74069.47698437485,
      "d": 55.2882864583371,
      "v": 90
    },
    {
      "midi": 50,
      "hit": false,
      "t": 74295.43780729162,
      "d": 230.76849999999104,
      "v": 100
    },
    {
      "midi": 62,
      "hit": false,
      "t": 74295.43780729162,
      "d": 230.76849999999104,
      "v": 100
    },
    {
      "midi": 74,
      "hit": false,
      "t": 74297.84164583328,
      "d": 228.36466145832674,
      "v": 100
    },
    {
      "midi": 38,
      "hit": false,
      "t": 74309.86083854178,
      "d": 374.99881249999453,
      "v": 85
    },
    {
      "midi": 60,
      "hit": false,
      "t": 74531.01398437485,
      "d": 60.095963541651145,
      "v": 92
    },
    {
      "midi": 67,
      "hit": false,
      "t": 74531.01398437485,
      "d": 64.90364062497974,
      "v": 97
    },
    {
      "midi": 64,
      "hit": false,
      "t": 74533.41782291651,
      "d": 50.480609374993946,
      "v": 101
    },
    {
      "midi": 83,
      "hit": false,
      "t": 74535.82166145832,
      "d": 168.26869791666104,
      "v": 120
    },
    {
      "midi": 71,
      "hit": false,
      "t": 74535.82166145832,
      "d": 182.6917291666614,
      "v": 107
    },
    {
      "midi": 64,
      "hit": false,
      "t": 74540.6293385416,
      "d": 216.3454687499907,
      "v": 84
    },
    {
      "midi": 52,
      "hit": false,
      "t": 74540.6293385416,
      "d": 218.749307291655,
      "v": 84
    },
    {
      "midi": 76,
      "hit": false,
      "t": 74543.03317708327,
      "d": 213.9416302083264,
      "v": 84
    },
    {
      "midi": 55,
      "hit": false,
      "t": 74752.16713020827,
      "d": 374.99881249999453,
      "v": 94
    },
    {
      "midi": 67,
      "hit": false,
      "t": 74752.16713020827,
      "d": 374.99881249999453,
      "v": 94
    },
    {
      "midi": 79,
      "hit": false,
      "t": 74754.57096874993,
      "d": 372.59497395833023,
      "v": 94
    },
    {
      "midi": 43,
      "hit": false,
      "t": 74771.39783854177,
      "d": 374.99881249999453,
      "v": 82
    },
    {
      "midi": 67,
      "hit": false,
      "t": 74997.35866145816,
      "d": 55.288286458322546,
      "v": 99
    },
    {
      "midi": 59,
      "hit": false,
      "t": 75002.16633854149,
      "d": 45.67293229166535,
      "v": 90
    },
    {
      "midi": 62,
      "hit": false,
      "t": 75002.16633854149,
      "d": 45.67293229166535,
      "v": 104
    },
    {
      "midi": 38,
      "hit": false,
      "t": 75232.93483854177,
      "d": 163.46102083333244,
      "v": 83
    },
    {
      "midi": 62,
      "hit": false,
      "t": 75454.08798437481,
      "d": 60.0959635416657,
      "v": 101
    },
    {
      "midi": 59,
      "hit": false,
      "t": 75454.08798437481,
      "d": 62.499802083329996,
      "v": 88
    },
    {
      "midi": 67,
      "hit": false,
      "t": 75456.49182291648,
      "d": 62.499802083329996,
      "v": 97
    },
    {
      "midi": 40,
      "hit": false,
      "t": 75463.70333854177,
      "d": 187.49940625000454,
      "v": 85
    },
    {
      "midi": 86,
      "hit": false,
      "t": 75665.62577604159,
      "d": 384.6141666666663,
      "v": 80
    },
    {
      "midi": 74,
      "hit": false,
      "t": 75692.06799999993,
      "d": 459.1331614583323,
      "v": 105
    },
    {
      "midi": 43,
      "hit": false,
      "t": 75694.47183854178,
      "d": 370.19113541666593,
      "v": 75
    },
    {
      "midi": 59,
      "hit": false,
      "t": 75932.45185416647,
      "d": 67.30747916667315,
      "v": 88
    },
    {
      "midi": 62,
      "hit": false,
      "t": 75934.85569270814,
      "d": 52.8844479166728,
      "v": 99
    },
    {
      "midi": 67,
      "hit": false,
      "t": 75934.85569270814,
      "d": 64.90364062500885,
      "v": 97
    },
    {
      "midi": 72,
      "hit": false,
      "t": 76122.35509895826,
      "d": 81.7305104166735,
      "v": 94
    },
    {
      "midi": 84,
      "hit": false,
      "t": 76122.35509895826,
      "d": 81.7305104166735,
      "v": 94
    },
    {
      "midi": 38,
      "hit": false,
      "t": 76156.00883854178,
      "d": 343.74891145832953,
      "v": 73
    },
    {
      "midi": 83,
      "hit": false,
      "t": 76367.54663020826,
      "d": 64.9036406249943,
      "v": 97
    },
    {
      "midi": 71,
      "hit": false,
      "t": 76367.54663020826,
      "d": 67.3074791666586,
      "v": 97
    },
    {
      "midi": 59,
      "hit": false,
      "t": 76377.16198437482,
      "d": 64.9036406249943,
      "v": 90
    },
    {
      "midi": 67,
      "hit": false,
      "t": 76377.16198437482,
      "d": 64.9036406249943,
      "v": 101
    },
    {
      "midi": 62,
      "hit": false,
      "t": 76379.56582291648,
      "d": 57.6921250000014,
      "v": 101
    },
    {
      "midi": 72,
      "hit": false,
      "t": 76583.89209895825,
      "d": 240.3838541666628,
      "v": 113
    },
    {
      "midi": 84,
      "hit": false,
      "t": 76583.89209895825,
      "d": 240.3838541666628,
      "v": 113
    },
    {
      "midi": 43,
      "hit": false,
      "t": 76617.54583854177,
      "d": 374.99881249999453,
      "v": 79
    },
    {
      "midi": 71,
      "hit": false,
      "t": 76809.85292187492,
      "d": 72.11515625000175,
      "v": 94
    },
    {
      "midi": 83,
      "hit": false,
      "t": 76809.85292187492,
      "d": 72.11515625000175,
      "v": 94
    },
    {
      "midi": 62,
      "hit": false,
      "t": 76833.89130729149,
      "d": 50.480609374993946,
      "v": 101
    },
    {
      "midi": 67,
      "hit": false,
      "t": 76833.89130729149,
      "d": 64.9036406249943,
      "v": 99
    },
    {
      "midi": 59,
      "hit": false,
      "t": 76836.29514583315,
      "d": 45.67293229166535,
      "v": 90
    },
    {
      "midi": 67,
      "hit": false,
      "t": 77031.00606770825,
      "d": 211.5377916666621,
      "v": 116
    },
    {
      "midi": 79,
      "hit": false,
      "t": 77031.00606770825,
      "d": 211.5377916666621,
      "v": 116
    },
    {
      "midi": 38,
      "hit": false,
      "t": 77079.08283854177,
      "d": 343.74891145832953,
      "v": 72
    },
    {
      "midi": 64,
      "hit": false,
      "t": 77256.96689062491,
      "d": 76.92283333333035,
      "v": 112
    },
    {
      "midi": 76,
      "hit": false,
      "t": 77256.96689062491,
      "d": 76.92283333333035,
      "v": 112
    },
    {
      "midi": 62,
      "hit": false,
      "t": 77285.81295312481,
      "d": 64.9036406249943,
      "v": 101
    },
    {
      "midi": 67,
      "hit": false,
      "t": 77285.81295312481,
      "d": 79.32667187499464,
      "v": 101
    },
    {
      "midi": 59,
      "hit": false,
      "t": 77290.62063020814,
      "d": 60.0959635416657,
      "v": 92
    },
    {
      "midi": 79,
      "hit": false,
      "t": 77482.92771354165,
      "d": 105.76889583333104,
      "v": 123
    },
    {
      "midi": 67,
      "hit": false,
      "t": 77497.35074479158,
      "d": 72.11515625000175,
      "v": 107
    },
    {
      "midi": 79,
      "hit": false,
      "t": 77497.35074479158,
      "d": 72.11515625000175,
      "v": 107
    },
    {
      "midi": 72,
      "hit": false,
      "t": 77502.15842187498,
      "d": 72.11515625000175,
      "v": 109
    },
    {
      "midi": 36,
      "hit": false,
      "t": 77540.61983854177,
      "d": 374.99881249999453,
      "v": 79
    },
    {
      "midi": 67,
      "hit": false,
      "t": 77718.50389062491,
      "d": 331.7297187499935,
      "v": 116
    },
    {
      "midi": 79,
      "hit": false,
      "t": 77720.90772916657,
      "d": 329.3258802083292,
      "v": 116
    },
    {
      "midi": 79,
      "hit": false,
      "t": 77737.73459895831,
      "d": 223.5569843750127,
      "v": 114
    },
    {
      "midi": 60,
      "hit": false,
      "t": 77742.54227604148,
      "d": 64.9036406249943,
      "v": 88
    },
    {
      "midi": 67,
      "hit": false,
      "t": 77742.54227604148,
      "d": 64.9036406249943,
      "v": 99
    },
    {
      "midi": 64,
      "hit": false,
      "t": 77744.94611458314,
      "d": 60.0959635416657,
      "v": 99
    },
    {
      "midi": 72,
      "hit": false,
      "t": 77752.15763020831,
      "d": 170.6725364583399,
      "v": 96
    },
    {
      "midi": 38,
      "hit": false,
      "t": 78002.15683854176,
      "d": 331.7297187499935,
      "v": 74
    },
    {
      "midi": 60,
      "hit": false,
      "t": 78208.8869531248,
      "d": 52.884447916658246,
      "v": 90
    },
    {
      "midi": 64,
      "hit": false,
      "t": 78211.29079166647,
      "d": 50.480609374993946,
      "v": 94
    },
    {
      "midi": 67,
      "hit": false,
      "t": 78211.29079166647,
      "d": 62.499802083329996,
      "v": 97
    },
    {
      "midi": 71,
      "hit": false,
      "t": 78216.09846874999,
      "d": 98.55738020833815,
      "v": 114
    },
    {
      "midi": 79,
      "hit": false,
      "t": 78218.50230729165,
      "d": 124.99960416667454,
      "v": 127
    },
    {
      "midi": 67,
      "hit": false,
      "t": 78228.11766145824,
      "d": 96.15354166667385,
      "v": 116
    },
    {
      "midi": 79,
      "hit": false,
      "t": 78228.11766145824,
      "d": 96.15354166667385,
      "v": 116
    },
    {
      "midi": 43,
      "hit": false,
      "t": 78463.69383854176,
      "d": 411.0563906250027,
      "v": 85
    },
    {
      "midi": 59,
      "hit": false,
      "t": 78665.61627604147,
      "d": 62.499802083329996,
      "v": 90
    },
    {
      "midi": 67,
      "hit": false,
      "t": 78665.61627604147,
      "d": 64.9036406249943,
      "v": 99
    },
    {
      "midi": 62,
      "hit": false,
      "t": 78668.02011458314,
      "d": 60.0959635416657,
      "v": 101
    },
    {
      "midi": 38,
      "hit": false,
      "t": 78925.23083854176,
      "d": 163.46102083333244,
      "v": 86
    },
    {
      "midi": 62,
      "hit": false,
      "t": 79131.9609531248,
      "d": 52.884447916658246,
      "v": 97
    },
    {
      "midi": 67,
      "hit": false,
      "t": 79131.9609531248,
      "d": 64.9036406249943,
      "v": 101
    },
    {
      "midi": 59,
      "hit": false,
      "t": 79136.76863020813,
      "d": 48.07677083332965,
      "v": 88
    },
    {
      "midi": 40,
      "hit": false,
      "t": 79155.99933854176,
      "d": 187.49940625000454,
      "v": 88
    },
    {
      "midi": 67,
      "hit": false,
      "t": 79180.03772395835,
      "d": 55.2882864583371,
      "v": 101
    },
    {
      "midi": 67,
      "hit": false,
      "t": 79264.17207291668,
      "d": 67.30747916667315,
      "v": 107
    },
    {
      "midi": 67,
      "hit": false,
      "t": 79362.72945312502,
      "d": 86.5381875000021,
      "v": 113
    },
    {
      "midi": 43,
      "hit": false,
      "t": 79386.76783854177,
      "d": 382.210328125002,
      "v": 85
    },
    {
      "midi": 67,
      "hit": false,
      "t": 79598.30563020836,
      "d": 93.749703124995,
      "v": 110
    },
    {
      "midi": 62,
      "hit": false,
      "t": 79612.72866145812,
      "d": 69.7113177083229,
      "v": 92
    },
    {
      "midi": 67,
      "hit": false,
      "t": 79612.72866145812,
      "d": 79.32667187499464,
      "v": 90
    },
    {
      "midi": 59,
      "hit": false,
      "t": 79617.53633854145,
      "d": 43.26909375000105,
      "v": 83
    },
    {
      "midi": 38,
      "hit": false,
      "t": 79848.30483854176,
      "d": 341.34507291666523,
      "v": 76
    },
    {
      "midi": 67,
      "hit": false,
      "t": 80055.03495312479,
      "d": 64.9036406249943,
      "v": 94
    },
    {
      "midi": 59,
      "hit": false,
      "t": 80057.43879166646,
      "d": 57.6921250000014,
      "v": 85
    },
    {
      "midi": 62,
      "hit": false,
      "t": 80057.43879166646,
      "d": 57.6921250000014,
      "v": 99
    },
    {
      "midi": 43,
      "hit": false,
      "t": 80309.84183854176,
      "d": 343.74891145832953,
      "v": 79
    },
    {
      "midi": 62,
      "hit": false,
      "t": 80521.37963020812,
      "d": 67.3074791666586,
      "v": 101
    },
    {
      "midi": 67,
      "hit": false,
      "t": 80521.37963020812,
      "d": 67.3074791666586,
      "v": 97
    },
    {
      "midi": 59,
      "hit": false,
      "t": 80526.18730729145,
      "d": 60.0959635416657,
      "v": 86
    },
    {
      "midi": 38,
      "hit": false,
      "t": 80771.37883854176,
      "d": 360.5757812499942,
      "v": 79
    },
    {
      "midi": 59,
      "hit": false,
      "t": 80992.53198437477,
      "d": 52.884447916658246,
      "v": 88
    },
    {
      "midi": 62,
      "hit": false,
      "t": 80992.53198437477,
      "d": 52.884447916658246,
      "v": 101
    },
    {
      "midi": 67,
      "hit": false,
      "t": 80994.93582291644,
      "d": 62.499802083329996,
      "v": 99
    },
    {
      "midi": 72,
      "hit": false,
      "t": 81208.877453125,
      "d": 60.0959635416657,
      "v": 102
    },
    {
      "midi": 79,
      "hit": false,
      "t": 81208.877453125,
      "d": 88.9420260416664,
      "v": 109
    },
    {
      "midi": 67,
      "hit": false,
      "t": 81211.28129166666,
      "d": 72.11515625000175,
      "v": 95
    },
    {
      "midi": 36,
      "hit": false,
      "t": 81232.91583854175,
      "d": 360.5757812499942,
      "v": 80
    },
    {
      "midi": 67,
      "hit": false,
      "t": 81444.4536302081,
      "d": 64.9036406249943,
      "v": 97
    },
    {
      "midi": 64,
      "hit": false,
      "t": 81444.4536302081,
      "d": 67.3074791666586,
      "v": 101
    },
    {
      "midi": 67,
      "hit": false,
      "t": 81446.85746875002,
      "d": 79.32667187499464,
      "v": 115
    },
    {
      "midi": 79,
      "hit": false,
      "t": 81449.26130729166,
      "d": 216.34546875000524,
      "v": 117
    },
    {
      "midi": 60,
      "hit": false,
      "t": 81451.66514583309,
      "d": 57.6921250000014,
      "v": 90
    },
    {
      "midi": 72,
      "hit": false,
      "t": 81451.66514583332,
      "d": 199.5185989583406,
      "v": 107
    },
    {
      "midi": 67,
      "hit": false,
      "t": 81451.66514583332,
      "d": 213.94163020834094,
      "v": 102
    },
    {
      "midi": 38,
      "hit": false,
      "t": 81694.45283854175,
      "d": 374.99881249999453,
      "v": 85
    },
    {
      "midi": 60,
      "hit": false,
      "t": 81915.60598437475,
      "d": 60.0959635416657,
      "v": 92
    },
    {
      "midi": 67,
      "hit": false,
      "t": 81915.60598437475,
      "d": 64.9036406249943,
      "v": 97
    },
    {
      "midi": 64,
      "hit": false,
      "t": 81918.00982291641,
      "d": 48.07677083332965,
      "v": 101
    },
    {
      "midi": 83,
      "hit": false,
      "t": 81920.41366145833,
      "d": 168.26869791666104,
      "v": 120
    },
    {
      "midi": 71,
      "hit": false,
      "t": 81920.41366145833,
      "d": 182.6917291666614,
      "v": 107
    },
    {
      "midi": 67,
      "hit": false,
      "t": 81922.81750000002,
      "d": 76.92283333333035,
      "v": 116
    },
    {
      "midi": 43,
      "hit": false,
      "t": 82155.98983854175,
      "d": 374.99881249999453,
      "v": 82
    },
    {
      "midi": 67,
      "hit": false,
      "t": 82381.95066145808,
      "d": 55.288286458322546,
      "v": 99
    },
    {
      "midi": 67,
      "hit": false,
      "t": 82381.95066145835,
      "d": 79.32667187499464,
      "v": 117
    },
    {
      "midi": 59,
      "hit": false,
      "t": 82386.7583385414,
      "d": 45.67293229166535,
      "v": 90
    },
    {
      "midi": 62,
      "hit": false,
      "t": 82386.7583385414,
      "d": 45.67293229166535,
      "v": 104
    },
    {
      "midi": 38,
      "hit": false,
      "t": 82617.52683854174,
      "d": 163.46102083333244,
      "v": 83
    },
    {
      "midi": 59,
      "hit": false,
      "t": 82838.67998437473,
      "d": 62.499802083329996,
      "v": 88
    },
    {
      "midi": 62,
      "hit": false,
      "t": 82838.67998437473,
      "d": 62.499802083329996,
      "v": 101
    },
    {
      "midi": 67,
      "hit": false,
      "t": 82841.0838229164,
      "d": 62.499802083329996,
      "v": 97
    },
    {
      "midi": 67,
      "hit": false,
      "t": 82848.29533854168,
      "d": 50.480609374993946,
      "v": 116
    },
    {
      "midi": 40,
      "hit": false,
      "t": 82848.29533854175,
      "d": 185.09556770834024,
      "v": 85
    },
    {
      "midi": 67,
      "hit": false,
      "t": 82930.02584895834,
      "d": 69.71131770833745,
      "v": 123
    },
    {
      "midi": 67,
      "hit": false,
      "t": 83030.98706770834,
      "d": 96.15354166667385,
      "v": 102
    },
    {
      "midi": 43,
      "hit": false,
      "t": 83079.06383854176,
      "d": 370.19113541666593,
      "v": 75
    },
    {
      "midi": 67,
      "hit": false,
      "t": 83285.79395312502,
      "d": 93.749703124995,
      "v": 113
    },
    {
      "midi": 62,
      "hit": false,
      "t": 83319.44769270805,
      "d": 52.884447916658246,
      "v": 99
    },
    {
      "midi": 59,
      "hit": false,
      "t": 83319.44769270805,
      "d": 64.9036406249943,
      "v": 88
    },
    {
      "midi": 67,
      "hit": false,
      "t": 83321.85153124972,
      "d": 62.499802083329996,
      "v": 97
    },
    {
      "midi": 38,
      "hit": false,
      "t": 83540.60083854175,
      "d": 343.74891145832953,
      "v": 73
    },
    {
      "midi": 59,
      "hit": false,
      "t": 83761.75398437472,
      "d": 64.9036406249943,
      "v": 90
    },
    {
      "midi": 67,
      "hit": false,
      "t": 83761.75398437472,
      "d": 64.9036406249943,
      "v": 101
    },
    {
      "midi": 62,
      "hit": false,
      "t": 83764.15782291639,
      "d": 57.6921250000014,
      "v": 101
    },
    {
      "midi": 43,
      "hit": false,
      "t": 84002.13783854175,
      "d": 374.99881249999453,
      "v": 79
    },
    {
      "midi": 62,
      "hit": false,
      "t": 84218.48330729139,
      "d": 48.07677083332965,
      "v": 101
    },
    {
      "midi": 67,
      "hit": false,
      "t": 84218.48330729139,
      "d": 64.9036406249943,
      "v": 99
    },
    {
      "midi": 59,
      "hit": false,
      "t": 84220.88714583305,
      "d": 45.67293229166535,
      "v": 90
    },
    {
      "midi": 38,
      "hit": false,
      "t": 84463.67483854174,
      "d": 343.74891145832953,
      "v": 72
    },
    {
      "midi": 62,
      "hit": false,
      "t": 84670.40495312471,
      "d": 67.3074791666586,
      "v": 101
    },
    {
      "midi": 67,
      "hit": false,
      "t": 84670.40495312471,
      "d": 79.32667187499464,
      "v": 101
    },
    {
      "midi": 59,
      "hit": false,
      "t": 84675.21263020804,
      "d": 60.0959635416657,
      "v": 92
    },
    {
      "midi": 79,
      "hit": false,
      "t": 84867.51971354165,
      "d": 105.76889583333104,
      "v": 123
    },
    {
      "midi": 72,
      "hit": false,
      "t": 84886.75042187498,
      "d": 72.11515625000175,
      "v": 109
    },
    {
      "midi": 36,
      "hit": false,
      "t": 84925.21183854174,
      "d": 374.99881249999453,
      "v": 79
    },
    {
      "midi": 79,
      "hit": false,
      "t": 85122.32659895832,
      "d": 223.5569843750127,
      "v": 114
    },
    {
      "midi": 60,
      "hit": false,
      "t": 85127.13427604138,
      "d": 64.9036406249943,
      "v": 88
    },
    {
      "midi": 67,
      "hit": false,
      "t": 85127.13427604138,
      "d": 64.9036406249943,
      "v": 99
    },
    {
      "midi": 64,
      "hit": false,
      "t": 85129.53811458305,
      "d": 57.6921250000014,
      "v": 99
    },
    {
      "midi": 72,
      "hit": false,
      "t": 85136.74963020832,
      "d": 170.6725364583399,
      "v": 96
    },
    {
      "midi": 38,
      "hit": false,
      "t": 85386.74883854174,
      "d": 331.7297187499935,
      "v": 74
    },
    {
      "midi": 60,
      "hit": false,
      "t": 85593.47895312471,
      "d": 52.884447916658246,
      "v": 90
    },
    {
      "midi": 64,
      "hit": false,
      "t": 85593.47895312471,
      "d": 52.884447916658246,
      "v": 94
    },
    {
      "midi": 67,
      "hit": false,
      "t": 85595.88279166637,
      "d": 62.499802083329996,
      "v": 97
    },
    {
      "midi": 71,
      "hit": false,
      "t": 85603.09430729166,
      "d": 96.15354166667385,
      "v": 114
    },
    {
      "midi": 79,
      "hit": false,
      "t": 85603.09430729166,
      "d": 124.99960416667454,
      "v": 127
    },
    {
      "midi": 43,
      "hit": false,
      "t": 85848.28583854173,
      "d": 413.460229166667,
      "v": 85
    },
    {
      "midi": 59,
      "hit": false,
      "t": 86050.20827604138,
      "d": 62.499802083329996,
      "v": 90
    },
    {
      "midi": 62,
      "hit": false,
      "t": 86050.20827604138,
      "d": 62.499802083329996,
      "v": 101
    },
    {
      "midi": 67,
      "hit": false,
      "t": 86050.20827604138,
      "d": 64.9036406249943,
      "v": 99
    },
    {
      "midi": 38,
      "hit": false,
      "t": 86309.82283854173,
      "d": 161.05718229166814,
      "v": 86
    },
    {
      "midi": 62,
      "hit": false,
      "t": 86516.5529531247,
      "d": 52.884447916658246,
      "v": 97
    },
    {
      "midi": 67,
      "hit": false,
      "t": 86516.5529531247,
      "d": 64.9036406249943,
      "v": 101
    },
    {
      "midi": 59,
      "hit": false,
      "t": 86521.36063020803,
      "d": 48.07677083332965,
      "v": 88
    },
    {
      "midi": 67,
      "hit": false,
      "t": 86526.16830729168,
      "d": 50.480609374993946,
      "v": 107
    },
    {
      "midi": 40,
      "hit": false,
      "t": 86540.59133854174,
      "d": 187.49940625000454,
      "v": 88
    },
    {
      "midi": 67,
      "hit": false,
      "t": 86607.89881770834,
      "d": 55.2882864583371,
      "v": 114
    },
    {
      "midi": 67,
      "hit": false,
      "t": 86694.43700520834,
      "d": 93.749703124995,
      "v": 110
    },
    {
      "midi": 43,
      "hit": false,
      "t": 86771.35983854174,
      "d": 382.210328125002,
      "v": 85
    },
    {
      "midi": 67,
      "hit": false,
      "t": 86968.47459895833,
      "d": 88.9420260416664,
      "v": 113
    },
    {
      "midi": 62,
      "hit": false,
      "t": 86997.32066145803,
      "d": 69.71131770833745,
      "v": 92
    },
    {
      "midi": 67,
      "hit": false,
      "t": 86997.32066145803,
      "d": 79.3266718750092,
      "v": 90
    },
    {
      "midi": 59,
      "hit": false,
      "t": 87002.12833854136,
      "d": 40.86525520833675,
      "v": 83
    },
    {
      "midi": 38,
      "hit": false,
      "t": 87232.89683854174,
      "d": 341.34507291666523,
      "v": 76
    },
    {
      "midi": 59,
      "hit": false,
      "t": 87439.62695312471,
      "d": 60.0959635416657,
      "v": 85
    },
    {
      "midi": 67,
      "hit": false,
      "t": 87439.62695312471,
      "d": 62.499802083329996,
      "v": 94
    },
    {
      "midi": 62,
      "hit": false,
      "t": 87442.03079166637,
      "d": 57.6921250000014,
      "v": 99
    },
    {
      "midi": 67,
      "hit": false,
      "t": 87444.43463020833,
      "d": 62.499802083329996,
      "v": 107
    },
    {
      "midi": 43,
      "hit": false,
      "t": 87694.43383854174,
      "d": 343.74891145832953,
      "v": 79
    },
    {
      "midi": 62,
      "hit": false,
      "t": 87905.97163020803,
      "d": 67.3074791666586,
      "v": 101
    },
    {
      "midi": 67,
      "hit": false,
      "t": 87908.3754687497,
      "d": 64.9036406249943,
      "v": 97
    },
    {
      "midi": 59,
      "hit": false,
      "t": 87910.77930729136,
      "d": 60.0959635416657,
      "v": 86
    },
    {
      "midi": 67,
      "hit": false,
      "t": 87920.39466145833,
      "d": 79.32667187499464,
      "v": 107
    },
    {
      "midi": 38,
      "hit": false,
      "t": 88155.97083854173,
      "d": 360.5757812499942,
      "v": 79
    },
    {
      "midi": 67,
      "hit": false,
      "t": 88357.89327604165,
      "d": 93.749703124995,
      "v": 113
    },
    {
      "midi": 62,
      "hit": false,
      "t": 88377.12398437469,
      "d": 50.480609374993946,
      "v": 101
    },
    {
      "midi": 59,
      "hit": false,
      "t": 88377.12398437469,
      "d": 52.884447916658246,
      "v": 88
    },
    {
      "midi": 67,
      "hit": false,
      "t": 88379.52782291635,
      "d": 62.499802083329996,
      "v": 99
    },
    {
      "midi": 72,
      "hit": false,
      "t": 88593.469453125,
      "d": 60.0959635416657,
      "v": 102
    },
    {
      "midi": 79,
      "hit": false,
      "t": 88593.469453125,
      "d": 88.9420260416664,
      "v": 109
    },
    {
      "midi": 67,
      "hit": false,
      "t": 88595.87329166666,
      "d": 72.11515625000175,
      "v": 95
    },
    {
      "midi": 36,
      "hit": false,
      "t": 88617.50783854173,
      "d": 360.5757812499942,
      "v": 80
    },
    {
      "midi": 64,
      "hit": false,
      "t": 88829.04563020801,
      "d": 67.3074791666586,
      "v": 101
    },
    {
      "midi": 67,
      "hit": false,
      "t": 88831.44946874968,
      "d": 64.9036406249943,
      "v": 97
    },
    {
      "midi": 67,
      "hit": false,
      "t": 88833.85330729166,
      "d": 216.34546875000524,
      "v": 102
    },
    {
      "midi": 79,
      "hit": false,
      "t": 88833.85330729166,
      "d": 216.34546875000524,
      "v": 117
    },
    {
      "midi": 72,
      "hit": false,
      "t": 88836.25714583333,
      "d": 199.5185989583406,
      "v": 107
    },
    {
      "midi": 60,
      "hit": false,
      "t": 88838.66098437467,
      "d": 55.2882864583371,
      "v": 90
    },
    {
      "midi": 38,
      "hit": false,
      "t": 89079.04483854173,
      "d": 374.99881249999453,
      "v": 85
    },
    {
      "midi": 60,
      "hit": false,
      "t": 89300.19798437467,
      "d": 60.0959635416657,
      "v": 92
    },
    {
      "midi": 67,
      "hit": false,
      "t": 89300.19798437467,
      "d": 64.9036406249943,
      "v": 97
    },
    {
      "midi": 64,
      "hit": false,
      "t": 89302.60182291633,
      "d": 48.07677083332965,
      "v": 101
    },
    {
      "midi": 83,
      "hit": false,
      "t": 89305.00566145833,
      "d": 168.26869791666104,
      "v": 120
    },
    {
      "midi": 71,
      "hit": false,
      "t": 89305.00566145833,
      "d": 182.6917291666614,
      "v": 107
    },
    {
      "midi": 43,
      "hit": false,
      "t": 89540.58183854172,
      "d": 372.59497395833023,
      "v": 82
    },
    {
      "midi": 67,
      "hit": false,
      "t": 89766.54266145799,
      "d": 55.288286458322546,
      "v": 99
    },
    {
      "midi": 62,
      "hit": false,
      "t": 89771.35033854132,
      "d": 45.67293229166535,
      "v": 104
    },
    {
      "midi": 59,
      "hit": false,
      "t": 89771.35033854132,
      "d": 48.07677083332965,
      "v": 90
    },
    {
      "midi": 38,
      "hit": false,
      "t": 90002.11883854172,
      "d": 163.46102083333244,
      "v": 83
    },
    {
      "midi": 62,
      "hit": false,
      "t": 90223.27198437465,
      "d": 60.0959635416657,
      "v": 101
    },
    {
      "midi": 59,
      "hit": false,
      "t": 90223.27198437465,
      "d": 62.499802083329996,
      "v": 88
    },
    {
      "midi": 67,
      "hit": false,
      "t": 90225.67582291631,
      "d": 62.499802083329996,
      "v": 97
    },
    {
      "midi": 40,
      "hit": false,
      "t": 90232.88733854172,
      "d": 185.09556770834024,
      "v": 85
    },
    {
      "midi": 67,
      "hit": false,
      "t": 90266.54107812498,
      "d": 40.86525520833675,
      "v": 107
    },
    {
      "midi": 67,
      "hit": false,
      "t": 90338.65623437498,
      "d": 57.6921250000014,
      "v": 107
    },
    {
      "midi": 67,
      "hit": false,
      "t": 90434.80977604166,
      "d": 84.1343489583378,
      "v": 105
    },
    {
      "midi": 43,
      "hit": false,
      "t": 90463.65583854173,
      "d": 370.19113541666593,
      "v": 75
    },
    {
      "midi": 67,
      "hit": false,
      "t": 90694.42433854166,
      "d": 79.32667187499464,
      "v": 117
    },
    {
      "midi": 62,
      "hit": false,
      "t": 90704.03969270797,
      "d": 52.884447916658246,
      "v": 99
    },
    {
      "midi": 59,
      "hit": false,
      "t": 90704.03969270797,
      "d": 64.9036406249943,
      "v": 88
    },
    {
      "midi": 67,
      "hit": false,
      "t": 90706.44353124964,
      "d": 62.499802083329996,
      "v": 97
    },
    {
      "midi": 38,
      "hit": false,
      "t": 90925.19283854173,
      "d": 343.74891145832953,
      "v": 73
    },
    {
      "midi": 59,
      "hit": false,
      "t": 91146.34598437464,
      "d": 64.9036406249943,
      "v": 90
    },
    {
      "midi": 67,
      "hit": false,
      "t": 91146.34598437464,
      "d": 64.9036406249943,
      "v": 101
    },
    {
      "midi": 62,
      "hit": false,
      "t": 91148.7498229163,
      "d": 57.6921250000014,
      "v": 101
    },
    {
      "midi": 67,
      "hit": false,
      "t": 91148.74982291665,
      "d": 81.7305104166735,
      "v": 113
    },
    {
      "midi": 43,
      "hit": false,
      "t": 91386.72983854172,
      "d": 374.99881249999453,
      "v": 79
    },
    {
      "midi": 67,
      "hit": false,
      "t": 91598.26763020833,
      "d": 84.1343489583378,
      "v": 117
    },
    {
      "midi": 59,
      "hit": false,
      "t": 91603.0753072913,
      "d": 48.07677083332965,
      "v": 90
    },
    {
      "midi": 62,
      "hit": false,
      "t": 91603.0753072913,
      "d": 48.07677083332965,
      "v": 101
    },
    {
      "midi": 67,
      "hit": false,
      "t": 91603.0753072913,
      "d": 67.3074791666586,
      "v": 99
    },
    {
      "midi": 38,
      "hit": false,
      "t": 91848.26683854172,
      "d": 343.74891145832953,
      "v": 72
    },
    {
      "midi": 67,
      "hit": false,
      "t": 92035.76624479167,
      "d": 69.71131770833745,
      "v": 113
    },
    {
      "midi": 62,
      "hit": false,
      "t": 92052.59311458297,
      "d": 67.3074791666586,
      "v": 101
    },
    {
      "midi": 67,
      "hit": false,
      "t": 92054.99695312463,
      "d": 79.32667187499464,
      "v": 101
    },
    {
      "midi": 59,
      "hit": false,
      "t": 92059.80463020796,
      "d": 60.0959635416657,
      "v": 92
    },
    {
      "midi": 79,
      "hit": false,
      "t": 92252.11171354166,
      "d": 105.76889583333104,
      "v": 123
    },
    {
      "midi": 72,
      "hit": false,
      "t": 92271.34242187499,
      "d": 72.11515625000175,
      "v": 109
    },
    {
      "midi": 36,
      "hit": false,
      "t": 92309.80383854172,
      "d": 374.99881249999453,
      "v": 79
    },
    {
      "midi": 79,
      "hit": false,
      "t": 92506.91859895832,
      "d": 223.5569843750127,
      "v": 114
    },
    {
      "midi": 60,
      "hit": false,
      "t": 92511.7262760413,
      "d": 64.9036406249943,
      "v": 88
    },
    {
      "midi": 67,
      "hit": false,
      "t": 92511.7262760413,
      "d": 64.9036406249943,
      "v": 99
    },
    {
      "midi": 64,
      "hit": false,
      "t": 92514.13011458296,
      "d": 60.0959635416657,
      "v": 99
    },
    {
      "midi": 72,
      "hit": false,
      "t": 92521.34163020832,
      "d": 170.6725364583399,
      "v": 96
    },
    {
      "midi": 38,
      "hit": false,
      "t": 92771.34083854171,
      "d": 331.7297187499935,
      "v": 74
    },
    {
      "midi": 60,
      "hit": false,
      "t": 92978.07095312462,
      "d": 52.884447916658246,
      "v": 90
    },
    {
      "midi": 64,
      "hit": false,
      "t": 92978.07095312462,
      "d": 52.884447916658246,
      "v": 94
    },
    {
      "midi": 67,
      "hit": false,
      "t": 92980.47479166629,
      "d": 62.499802083329996,
      "v": 97
    },
    {
      "midi": 71,
      "hit": false,
      "t": 92987.68630729166,
      "d": 96.15354166667385,
      "v": 114
    },
    {
      "midi": 79,
      "hit": false,
      "t": 92987.68630729166,
      "d": 124.99960416667454,
      "v": 127
    },
    {
      "midi": 43,
      "hit": false,
      "t": 93232.87783854171,
      "d": 413.460229166667,
      "v": 85
    },
    {
      "midi": 59,
      "hit": false,
      "t": 93434.8002760413,
      "d": 62.499802083329996,
      "v": 90
    },
    {
      "midi": 67,
      "hit": false,
      "t": 93434.8002760413,
      "d": 64.9036406249943,
      "v": 99
    },
    {
      "midi": 62,
      "hit": false,
      "t": 93437.20411458296,
      "d": 60.0959635416657,
      "v": 101
    },
    {
      "midi": 38,
      "hit": false,
      "t": 93694.4148385417,
      "d": 161.05718229166814,
      "v": 86
    },
    {
      "midi": 62,
      "hit": false,
      "t": 93901.14495312462,
      "d": 52.884447916658246,
      "v": 97
    },
    {
      "midi": 67,
      "hit": false,
      "t": 93901.14495312462,
      "d": 64.9036406249943,
      "v": 101
    },
    {
      "midi": 59,
      "hit": false,
      "t": 93905.95263020795,
      "d": 48.07677083332965,
      "v": 88
    },
    {
      "midi": 40,
      "hit": false,
      "t": 93925.18333854171,
      "d": 187.49940625000454,
      "v": 88
    },
    {
      "midi": 74,
      "hit": false,
      "t": 94155.95183854157,
      "d": 475.9600312499824,
      "v": 113
    },
    {
      "midi": 43,
      "hit": false,
      "t": 94155.95183854172,
      "d": 382.210328125002,
      "v": 85
    },
    {
      "midi": 86,
      "hit": false,
      "t": 94158.35567708324,
      "d": 473.5561927083181,
      "v": 113
    },
    {
      "midi": 62,
      "hit": false,
      "t": 94381.91266145794,
      "d": 72.11515625000175,
      "v": 92
    },
    {
      "midi": 67,
      "hit": false,
      "t": 94381.91266145794,
      "d": 79.32667187499464,
      "v": 90
    },
    {
      "midi": 59,
      "hit": false,
      "t": 94386.72033854127,
      "d": 40.86525520833675,
      "v": 83
    },
    {
      "midi": 72,
      "hit": false,
      "t": 94593.4504531249,
      "d": 76.9228333333158,
      "v": 94
    },
    {
      "midi": 84,
      "hit": false,
      "t": 94595.85429166656,
      "d": 72.1151562499872,
      "v": 94
    },
    {
      "midi": 38,
      "hit": false,
      "t": 94617.48883854171,
      "d": 341.34507291666523,
      "v": 76
    },
    {
      "midi": 83,
      "hit": false,
      "t": 94819.41127604154,
      "d": 67.30747916667315,
      "v": 107
    },
    {
      "midi": 71,
      "hit": false,
      "t": 94819.41127604154,
      "d": 69.71131770833745,
      "v": 107
    },
    {
      "midi": 59,
      "hit": false,
      "t": 94824.21895312461,
      "d": 60.0959635416657,
      "v": 85
    },
    {
      "midi": 67,
      "hit": false,
      "t": 94824.21895312461,
      "d": 64.9036406249943,
      "v": 94
    },
    {
      "midi": 62,
      "hit": false,
      "t": 94826.62279166628,
      "d": 57.6921250000014,
      "v": 99
    },
    {
      "midi": 84,
      "hit": false,
      "t": 95050.17977604155,
      "d": 228.3646614583413,
      "v": 110
    },
    {
      "midi": 72,
      "hit": false,
      "t": 95050.17977604155,
      "d": 230.7685000000056,
      "v": 110
    },
    {
      "midi": 43,
      "hit": false,
      "t": 95079.02583854171,
      "d": 343.74891145832953,
      "v": 79
    },
    {
      "midi": 71,
      "hit": false,
      "t": 95266.52524479156,
      "d": 57.6921250000014,
      "v": 91
    },
    {
      "midi": 83,
      "hit": false,
      "t": 95266.52524479156,
      "d": 57.6921250000014,
      "v": 91
    },
    {
      "midi": 62,
      "hit": false,
      "t": 95290.56363020794,
      "d": 67.3074791666586,
      "v": 101
    },
    {
      "midi": 67,
      "hit": false,
      "t": 95290.56363020794,
      "d": 67.3074791666586,
      "v": 97
    },
    {
      "midi": 59,
      "hit": false,
      "t": 95295.37130729127,
      "d": 60.0959635416657,
      "v": 86
    },
    {
      "midi": 67,
      "hit": false,
      "t": 95497.29374479156,
      "d": 252.40304687499884,
      "v": 103
    },
    {
      "midi": 79,
      "hit": false,
      "t": 95497.29374479156,
      "d": 252.40304687499884,
      "v": 103
    },
    {
      "midi": 38,
      "hit": false,
      "t": 95540.56283854171,
      "d": 358.1719427083299,
      "v": 79
    },
    {
      "midi": 64,
      "hit": false,
      "t": 95747.2929531249,
      "d": 69.71131770833745,
      "v": 97
    },
    {
      "midi": 76,
      "hit": false,
      "t": 95747.2929531249,
      "d": 69.71131770833745,
      "v": 97
    },
    {
      "midi": 62,
      "hit": false,
      "t": 95759.31214583293,
      "d": 52.884447916658246,
      "v": 101
    },
    {
      "midi": 59,
      "hit": false,
      "t": 95759.31214583293,
      "d": 55.288286458322546,
      "v": 88
    },
    {
      "midi": 67,
      "hit": false,
      "t": 95761.71598437459,
      "d": 64.9036406249943,
      "v": 99
    },
    {
      "midi": 67,
      "hit": false,
      "t": 95968.44609895823,
      "d": 57.6921250000014,
      "v": 115
    },
    {
      "midi": 79,
      "hit": false,
      "t": 95968.44609895823,
      "d": 57.6921250000014,
      "v": 115
    },
    {
      "midi": 72,
      "hit": false,
      "t": 95978.061453125,
      "d": 60.0959635416657,
      "v": 102
    },
    {
      "midi": 79,
      "hit": false,
      "t": 95978.061453125,
      "d": 91.3458645833307,
      "v": 109
    },
    {
      "midi": 67,
      "hit": false,
      "t": 95980.46529166667,
      "d": 72.11515625000175,
      "v": 95
    },
    {
      "midi": 36,
      "hit": false,
      "t": 96002.0998385417,
      "d": 360.5757812499942,
      "v": 80
    },
    {
      "midi": 67,
      "hit": false,
      "t": 96208.82995312489,
      "d": 307.69133333333593,
      "v": 113
    },
    {
      "midi": 79,
      "hit": false,
      "t": 96208.82995312489,
      "d": 307.69133333333593,
      "v": 113
    },
    {
      "midi": 67,
      "hit": false,
      "t": 96213.63763020792,
      "d": 64.9036406249943,
      "v": 97
    },
    {
      "midi": 64,
      "hit": false,
      "t": 96213.63763020792,
      "d": 67.3074791666586,
      "v": 101
    },
    {
      "midi": 67,
      "hit": false,
      "t": 96218.44530729167,
      "d": 216.34546875000524,
      "v": 102
    },
    {
      "midi": 79,
      "hit": false,
      "t": 96218.44530729167,
      "d": 216.34546875000524,
      "v": 117
    },
    {
      "midi": 60,
      "hit": false,
      "t": 96220.84914583291,
      "d": 57.6921250000014,
      "v": 90
    },
    {
      "midi": 72,
      "hit": false,
      "t": 96220.84914583333,
      "d": 199.5185989583406,
      "v": 107
    },
    {
      "midi": 38,
      "hit": false,
      "t": 96463.6368385417,
      "d": 374.99881249999453,
      "v": 85
    },
    {
      "midi": 60,
      "hit": false,
      "t": 96684.78998437457,
      "d": 60.0959635416657,
      "v": 92
    },
    {
      "midi": 67,
      "hit": false,
      "t": 96684.78998437457,
      "d": 64.9036406249943,
      "v": 97
    },
    {
      "midi": 64,
      "hit": false,
      "t": 96687.19382291623,
      "d": 48.07677083332965,
      "v": 101
    },
    {
      "midi": 83,
      "hit": false,
      "t": 96689.59766145833,
      "d": 168.26869791666104,
      "v": 120
    },
    {
      "midi": 71,
      "hit": false,
      "t": 96689.59766145833,
      "d": 180.2878906249971,
      "v": 107
    },
    {
      "midi": 71,
      "hit": false,
      "t": 96694.40533854156,
      "d": 110.57657291665964,
      "v": 117
    },
    {
      "midi": 83,
      "hit": false,
      "t": 96694.40533854156,
      "d": 110.57657291665964,
      "v": 117
    },
    {
      "midi": 43,
      "hit": false,
      "t": 96925.1738385417,
      "d": 374.99881249999453,
      "v": 82
    },
    {
      "midi": 67,
      "hit": false,
      "t": 97151.1346614579,
      "d": 55.288286458322546,
      "v": 99
    },
    {
      "midi": 62,
      "hit": false,
      "t": 97155.94233854122,
      "d": 45.67293229166535,
      "v": 104
    },
    {
      "midi": 59,
      "hit": false,
      "t": 97155.94233854122,
      "d": 48.07677083332965,
      "v": 90
    },
    {
      "midi": 38,
      "hit": false,
      "t": 97386.7108385417,
      "d": 163.46102083333244,
      "v": 83
    },
    {
      "midi": 62,
      "hit": false,
      "t": 97607.86398437455,
      "d": 60.0959635416657,
      "v": 101
    },
    {
      "midi": 59,
      "hit": false,
      "t": 97607.86398437455,
      "d": 62.499802083329996,
      "v": 88
    },
    {
      "midi": 67,
      "hit": false,
      "t": 97610.26782291621,
      "d": 62.499802083329996,
      "v": 97
    },
    {
      "midi": 40,
      "hit": false,
      "t": 97617.4793385417,
      "d": 187.49940625000454,
      "v": 85
    },
    {
      "midi": 74,
      "hit": false,
      "t": 97819.40177604156,
      "d": 499.9984166666691,
      "v": 107
    },
    {
      "midi": 86,
      "hit": false,
      "t": 97819.40177604156,
      "d": 499.9984166666691,
      "v": 107
    },
    {
      "midi": 43,
      "hit": false,
      "t": 97848.2478385417,
      "d": 370.19113541666593,
      "v": 75
    },
    {
      "midi": 62,
      "hit": false,
      "t": 98088.63169270787,
      "d": 52.8844479166728,
      "v": 99
    },
    {
      "midi": 59,
      "hit": false,
      "t": 98088.63169270787,
      "d": 64.90364062500885,
      "v": 88
    },
    {
      "midi": 67,
      "hit": false,
      "t": 98088.63169270787,
      "d": 64.90364062500885,
      "v": 97
    },
    {
      "midi": 72,
      "hit": false,
      "t": 98276.13109895823,
      "d": 81.7305104166735,
      "v": 94
    },
    {
      "midi": 84,
      "hit": false,
      "t": 98276.13109895823,
      "d": 81.7305104166735,
      "v": 94
    },
    {
      "midi": 38,
      "hit": false,
      "t": 98309.7848385417,
      "d": 343.74891145832953,
      "v": 73
    },
    {
      "midi": 71,
      "hit": false,
      "t": 98521.32263020823,
      "d": 64.9036406249943,
      "v": 97
    },
    {
      "midi": 83,
      "hit": false,
      "t": 98521.32263020823,
      "d": 64.9036406249943,
      "v": 97
    },
    {
      "midi": 59,
      "hit": false,
      "t": 98530.93798437456,
      "d": 64.9036406249943,
      "v": 90
    },
    {
      "midi": 67,
      "hit": false,
      "t": 98530.93798437456,
      "d": 64.9036406249943,
      "v": 101
    },
    {
      "midi": 62,
      "hit": false,
      "t": 98533.34182291622,
      "d": 57.6921250000014,
      "v": 101
    },
    {
      "midi": 72,
      "hit": false,
      "t": 98737.66809895822,
      "d": 240.3838541666628,
      "v": 113
    },
    {
      "midi": 84,
      "hit": false,
      "t": 98737.66809895822,
      "d": 240.3838541666628,
      "v": 113
    },
    {
      "midi": 43,
      "hit": false,
      "t": 98771.3218385417,
      "d": 374.99881249999453,
      "v": 79
    },
    {
      "midi": 71,
      "hit": false,
      "t": 98963.62892187489,
      "d": 72.11515625000175,
      "v": 94
    },
    {
      "midi": 83,
      "hit": false,
      "t": 98966.03276041655,
      "d": 69.71131770833745,
      "v": 94
    },
    {
      "midi": 62,
      "hit": false,
      "t": 98985.26346874954,
      "d": 52.884447916658246,
      "v": 101
    },
    {
      "midi": 59,
      "hit": false,
      "t": 98987.66730729121,
      "d": 48.07677083332965,
      "v": 90
    },
    {
      "midi": 67,
      "hit": false,
      "t": 98987.66730729121,
      "d": 64.9036406249943,
      "v": 99
    },
    {
      "midi": 67,
      "hit": false,
      "t": 99184.78206770822,
      "d": 211.5377916666621,
      "v": 116
    },
    {
      "midi": 79,
      "hit": false,
      "t": 99184.78206770822,
      "d": 211.5377916666621,
      "v": 116
    },
    {
      "midi": 38,
      "hit": false,
      "t": 99232.8588385417,
      "d": 343.74891145832953,
      "v": 72
    },
    {
      "midi": 64,
      "hit": false,
      "t": 99410.74289062488,
      "d": 76.92283333333035,
      "v": 112
    },
    {
      "midi": 76,
      "hit": false,
      "t": 99410.74289062488,
      "d": 76.92283333333035,
      "v": 112
    },
    {
      "midi": 62,
      "hit": false,
      "t": 99439.58895312453,
      "d": 64.9036406249943,
      "v": 101
    },
    {
      "midi": 67,
      "hit": false,
      "t": 99439.58895312453,
      "d": 79.32667187499464,
      "v": 101
    },
    {
      "midi": 59,
      "hit": false,
      "t": 99444.39663020786,
      "d": 60.0959635416657,
      "v": 92
    },
    {
      "midi": 79,
      "hit": false,
      "t": 99636.70371354166,
      "d": 105.76889583333104,
      "v": 123
    },
    {
      "midi": 67,
      "hit": false,
      "t": 99651.12674479155,
      "d": 72.11515625000175,
      "v": 107
    },
    {
      "midi": 79,
      "hit": false,
      "t": 99651.12674479155,
      "d": 72.11515625000175,
      "v": 107
    },
    {
      "midi": 72,
      "hit": false,
      "t": 99655.93442187499,
      "d": 72.11515625000175,
      "v": 109
    },
    {
      "midi": 36,
      "hit": false,
      "t": 99694.39583854169,
      "d": 374.99881249999453,
      "v": 79
    },
    {
      "midi": 67,
      "hit": false,
      "t": 99872.27989062488,
      "d": 331.7297187499935,
      "v": 116
    },
    {
      "midi": 79,
      "hit": false,
      "t": 99872.27989062488,
      "d": 331.7297187499935,
      "v": 116
    },
    {
      "midi": 79,
      "hit": false,
      "t": 99891.51059895832,
      "d": 223.5569843750127,
      "v": 114
    },
    {
      "midi": 60,
      "hit": false,
      "t": 99896.3182760412,
      "d": 64.9036406249943,
      "v": 88
    },
    {
      "midi": 67,
      "hit": false,
      "t": 99896.3182760412,
      "d": 64.9036406249943,
      "v": 99
    },
    {
      "midi": 64,
      "hit": false,
      "t": 99898.72211458287,
      "d": 60.0959635416657,
      "v": 99
    },
    {
      "midi": 72,
      "hit": false,
      "t": 99905.93363020832,
      "d": 170.6725364583399,
      "v": 96
    },
    {
      "midi": 38,
      "hit": false,
      "t": 100155.93283854169,
      "d": 331.7297187499935,
      "v": 74
    },
    {
      "midi": 60,
      "hit": false,
      "t": 100362.66295312453,
      "d": 52.884447916658246,
      "v": 90
    },
    {
      "midi": 64,
      "hit": false,
      "t": 100365.06679166619,
      "d": 50.480609374993946,
      "v": 94
    },
    {
      "midi": 67,
      "hit": false,
      "t": 100365.06679166619,
      "d": 62.499802083329996,
      "v": 97
    },
    {
      "midi": 71,
      "hit": false,
      "t": 100372.27830729166,
      "d": 96.15354166667385,
      "v": 114
    },
    {
      "midi": 79,
      "hit": false,
      "t": 100372.27830729166,
      "d": 124.99960416667454,
      "v": 127
    },
    {
      "midi": 67,
      "hit": false,
      "t": 100381.8936614582,
      "d": 96.15354166667385,
      "v": 116
    },
    {
      "midi": 79,
      "hit": false,
      "t": 100381.8936614582,
      "d": 96.15354166667385,
      "v": 116
    },
    {
      "midi": 43,
      "hit": false,
      "t": 100617.46983854169,
      "d": 413.460229166667,
      "v": 85
    },
    {
      "midi": 59,
      "hit": false,
      "t": 100819.3922760412,
      "d": 62.499802083329996,
      "v": 90
    },
    {
      "midi": 67,
      "hit": false,
      "t": 100819.3922760412,
      "d": 64.9036406249943,
      "v": 99
    },
    {
      "midi": 62,
      "hit": false,
      "t": 100821.79611458286,
      "d": 60.0959635416657,
      "v": 101
    },
    {
      "midi": 38,
      "hit": false,
      "t": 101079.00683854168,
      "d": 163.46102083333244,
      "v": 86
    },
    {
      "midi": 62,
      "hit": false,
      "t": 101285.73695312452,
      "d": 52.884447916658246,
      "v": 97
    },
    {
      "midi": 67,
      "hit": false,
      "t": 101285.73695312452,
      "d": 64.9036406249943,
      "v": 101
    },
    {
      "midi": 59,
      "hit": false,
      "t": 101290.54463020785,
      "d": 45.67293229166535,
      "v": 88
    },
    {
      "midi": 40,
      "hit": false,
      "t": 101309.77533854169,
      "d": 187.49940625000454,
      "v": 88
    },
    {
      "midi": 43,
      "hit": false,
      "t": 101540.5438385417,
      "d": 382.210328125002,
      "v": 85
    },
    {
      "midi": 62,
      "hit": false,
      "t": 101766.50466145785,
      "d": 69.71131770833745,
      "v": 92
    },
    {
      "midi": 67,
      "hit": false,
      "t": 101766.50466145785,
      "d": 79.3266718750092,
      "v": 90
    },
    {
      "midi": 59,
      "hit": false,
      "t": 101771.31233854117,
      "d": 40.86525520833675,
      "v": 83
    },
    {
      "midi": 59,
      "hit": false,
      "t": 101949.19639062489,
      "d": 461.5369999999966,
      "v": 103
    },
    {
      "midi": 71,
      "hit": false,
      "t": 101949.19639062489,
      "d": 461.5369999999966,
      "v": 103
    },
    {
      "midi": 83,
      "hit": false,
      "t": 101949.19639062489,
      "d": 461.5369999999966,
      "v": 103
    },
    {
      "midi": 38,
      "hit": false,
      "t": 102002.08083854169,
      "d": 341.34507291666523,
      "v": 76
    },
    {
      "midi": 59,
      "hit": false,
      "t": 102208.81095312453,
      "d": 60.0959635416657,
      "v": 85
    },
    {
      "midi": 67,
      "hit": false,
      "t": 102208.81095312453,
      "d": 62.499802083329996,
      "v": 94
    },
    {
      "midi": 62,
      "hit": false,
      "t": 102211.21479166619,
      "d": 57.6921250000014,
      "v": 99
    },
    {
      "midi": 55,
      "hit": false,
      "t": 102413.13722916655,
      "d": 362.9796197916585,
      "v": 100
    },
    {
      "midi": 67,
      "hit": false,
      "t": 102413.13722916655,
      "d": 362.9796197916585,
      "v": 100
    },
    {
      "midi": 79,
      "hit": false,
      "t": 102415.54106770821,
      "d": 360.5757812499942,
      "v": 100
    },
    {
      "midi": 43,
      "hit": false,
      "t": 102463.61783854169,
      "d": 343.74891145832953,
      "v": 79
    },
    {
      "midi": 62,
      "hit": false,
      "t": 102675.15563020785,
      "d": 67.3074791666586,
      "v": 101
    },
    {
      "midi": 67,
      "hit": false,
      "t": 102675.15563020785,
      "d": 67.3074791666586,
      "v": 97
    },
    {
      "midi": 59,
      "hit": false,
      "t": 102679.96330729118,
      "d": 60.0959635416657,
      "v": 86
    },
    {
      "midi": 38,
      "hit": false,
      "t": 102925.15483854168,
      "d": 358.1719427083299,
      "v": 79
    },
    {
      "midi": 59,
      "hit": false,
      "t": 103146.3079843745,
      "d": 52.884447916658246,
      "v": 88
    },
    {
      "midi": 62,
      "hit": false,
      "t": 103146.3079843745,
      "d": 52.884447916658246,
      "v": 101
    },
    {
      "midi": 67,
      "hit": false,
      "t": 103148.71182291617,
      "d": 62.499802083329996,
      "v": 99
    },
    {
      "midi": 72,
      "hit": false,
      "t": 103362.653453125,
      "d": 60.0959635416657,
      "v": 102
    },
    {
      "midi": 79,
      "hit": false,
      "t": 103362.653453125,
      "d": 88.9420260416664,
      "v": 109
    },
    {
      "midi": 67,
      "hit": false,
      "t": 103365.05729166667,
      "d": 72.11515625000175,
      "v": 95
    },
    {
      "midi": 36,
      "hit": false,
      "t": 103386.69183854168,
      "d": 360.5757812499942,
      "v": 80
    },
    {
      "midi": 64,
      "hit": false,
      "t": 103598.22963020783,
      "d": 67.3074791666586,
      "v": 101
    },
    {
      "midi": 67,
      "hit": false,
      "t": 103600.6334687495,
      "d": 64.9036406249943,
      "v": 97
    },
    {
      "midi": 67,
      "hit": false,
      "t": 103603.03730729167,
      "d": 216.34546875000524,
      "v": 102
    },
    {
      "midi": 79,
      "hit": false,
      "t": 103603.03730729167,
      "d": 216.34546875000524,
      "v": 117
    },
    {
      "midi": 60,
      "hit": false,
      "t": 103605.44114583282,
      "d": 57.6921250000014,
      "v": 90
    },
    {
      "midi": 72,
      "hit": false,
      "t": 103605.44114583333,
      "d": 199.5185989583406,
      "v": 107
    },
    {
      "midi": 50,
      "hit": false,
      "t": 103833.80580729154,
      "d": 230.76849999999104,
      "v": 100
    },
    {
      "midi": 62,
      "hit": false,
      "t": 103833.80580729154,
      "d": 230.76849999999104,
      "v": 100
    },
    {
      "midi": 74,
      "hit": false,
      "t": 103836.20964583321,
      "d": 228.36466145832674,
      "v": 100
    },
    {
      "midi": 38,
      "hit": false,
      "t": 103848.22883854168,
      "d": 374.99881249999453,
      "v": 85
    },
    {
      "midi": 60,
      "hit": false,
      "t": 104069.38198437449,
      "d": 60.0959635416657,
      "v": 92
    },
    {
      "midi": 67,
      "hit": false,
      "t": 104069.38198437449,
      "d": 64.9036406249943,
      "v": 97
    },
    {
      "midi": 64,
      "hit": false,
      "t": 104071.78582291615,
      "d": 48.07677083332965,
      "v": 101
    },
    {
      "midi": 71,
      "hit": false,
      "t": 104074.18966145834,
      "d": 182.6917291666614,
      "v": 107
    },
    {
      "midi": 83,
      "hit": false,
      "t": 104076.5935,
      "d": 165.86485937499674,
      "v": 120
    },
    {
      "midi": 64,
      "hit": false,
      "t": 104078.99733854154,
      "d": 216.3454687499907,
      "v": 84
    },
    {
      "midi": 52,
      "hit": false,
      "t": 104078.99733854154,
      "d": 218.749307291655,
      "v": 84
    },
    {
      "midi": 76,
      "hit": false,
      "t": 104081.4011770832,
      "d": 213.9416302083264,
      "v": 84
    },
    {
      "midi": 55,
      "hit": false,
      "t": 104290.5351302082,
      "d": 374.99881249999453,
      "v": 94
    },
    {
      "midi": 67,
      "hit": false,
      "t": 104290.5351302082,
      "d": 374.99881249999453,
      "v": 94
    },
    {
      "midi": 79,
      "hit": false,
      "t": 104292.93896874986,
      "d": 370.19113541666593,
      "v": 94
    },
    {
      "midi": 43,
      "hit": false,
      "t": 104309.76583854167,
      "d": 374.99881249999453,
      "v": 82
    },
    {
      "midi": 67,
      "hit": false,
      "t": 104535.72666145781,
      "d": 55.288286458322546,
      "v": 99
    },
    {
      "midi": 62,
      "hit": false,
      "t": 104540.53433854114,
      "d": 45.67293229166535,
      "v": 104
    },
    {
      "midi": 59,
      "hit": false,
      "t": 104540.53433854114,
      "d": 48.07677083332965,
      "v": 90
    },
    {
      "midi": 38,
      "hit": false,
      "t": 104771.30283854167,
      "d": 163.46102083333244,
      "v": 83
    },
    {
      "midi": 59,
      "hit": false,
      "t": 104992.45598437446,
      "d": 60.0959635416657,
      "v": 88
    },
    {
      "midi": 62,
      "hit": false,
      "t": 104992.45598437446,
      "d": 60.0959635416657,
      "v": 101
    },
    {
      "midi": 67,
      "hit": false,
      "t": 104994.85982291613,
      "d": 62.499802083329996,
      "v": 97
    },
    {
      "midi": 40,
      "hit": false,
      "t": 105002.07133854167,
      "d": 187.49940625000454,
      "v": 85
    },
    {
      "midi": 86,
      "hit": false,
      "t": 105203.99377604152,
      "d": 384.6141666666663,
      "v": 74
    },
    {
      "midi": 74,
      "hit": false,
      "t": 105230.43599999986,
      "d": 459.1331614583323,
      "v": 107
    },
    {
      "midi": 43,
      "hit": false,
      "t": 105232.83983854168,
      "d": 370.19113541666593,
      "v": 75
    },
    {
      "midi": 62,
      "hit": false,
      "t": 105473.22369270779,
      "d": 52.884447916658246,
      "v": 99
    },
    {
      "midi": 59,
      "hit": false,
      "t": 105473.22369270779,
      "d": 64.9036406249943,
      "v": 88
    },
    {
      "midi": 67,
      "hit": false,
      "t": 105475.62753124945,
      "d": 62.499802083329996,
      "v": 97
    },
    {
      "midi": 72,
      "hit": false,
      "t": 105660.72309895819,
      "d": 81.7305104166735,
      "v": 94
    },
    {
      "midi": 84,
      "hit": false,
      "t": 105660.72309895819,
      "d": 81.7305104166735,
      "v": 94
    },
    {
      "midi": 38,
      "hit": false,
      "t": 105694.37683854168,
      "d": 343.74891145832953,
      "v": 73
    },
    {
      "midi": 71,
      "hit": false,
      "t": 105905.9146302082,
      "d": 64.9036406249943,
      "v": 97
    },
    {
      "midi": 83,
      "hit": false,
      "t": 105908.31846874986,
      "d": 62.499802083329996,
      "v": 97
    },
    {
      "midi": 67,
      "hit": false,
      "t": 105915.52998437446,
      "d": 64.9036406249943,
      "v": 101
    },
    {
      "midi": 62,
      "hit": false,
      "t": 105917.93382291612,
      "d": 57.6921250000014,
      "v": 101
    },
    {
      "midi": 59,
      "hit": false,
      "t": 105917.93382291612,
      "d": 62.499802083329996,
      "v": 90
    },
    {
      "midi": 84,
      "hit": false,
      "t": 106122.26009895818,
      "d": 237.9800156249985,
      "v": 113
    },
    {
      "midi": 72,
      "hit": false,
      "t": 106122.26009895818,
      "d": 240.3838541666628,
      "v": 113
    },
    {
      "midi": 43,
      "hit": false,
      "t": 106155.91383854167,
      "d": 374.99881249999453,
      "v": 79
    },
    {
      "midi": 83,
      "hit": false,
      "t": 106348.22092187485,
      "d": 69.71131770833745,
      "v": 94
    },
    {
      "midi": 71,
      "hit": false,
      "t": 106348.22092187485,
      "d": 72.11515625000175,
      "v": 94
    },
    {
      "midi": 62,
      "hit": false,
      "t": 106369.85546874945,
      "d": 52.884447916658246,
      "v": 101
    },
    {
      "midi": 59,
      "hit": false,
      "t": 106372.25930729111,
      "d": 48.07677083332965,
      "v": 90
    },
    {
      "midi": 67,
      "hit": false,
      "t": 106372.25930729111,
      "d": 64.9036406249943,
      "v": 99
    },
    {
      "midi": 67,
      "hit": false,
      "t": 106569.37406770818,
      "d": 211.5377916666621,
      "v": 116
    },
    {
      "midi": 79,
      "hit": false,
      "t": 106569.37406770818,
      "d": 211.5377916666621,
      "v": 116
    },
    {
      "midi": 38,
      "hit": false,
      "t": 106617.45083854167,
      "d": 343.74891145832953,
      "v": 72
    },
    {
      "midi": 64,
      "hit": false,
      "t": 106795.33489062484,
      "d": 76.92283333333035,
      "v": 112
    },
    {
      "midi": 76,
      "hit": false,
      "t": 106795.33489062484,
      "d": 76.92283333333035,
      "v": 112
    },
    {
      "midi": 62,
      "hit": false,
      "t": 106824.18095312444,
      "d": 64.9036406249943,
      "v": 101
    },
    {
      "midi": 67,
      "hit": false,
      "t": 106824.18095312444,
      "d": 79.32667187499464,
      "v": 101
    },
    {
      "midi": 59,
      "hit": false,
      "t": 106828.98863020776,
      "d": 60.0959635416657,
      "v": 92
    },
    {
      "midi": 79,
      "hit": false,
      "t": 107021.29571354167,
      "d": 108.17273437499534,
      "v": 123
    },
    {
      "midi": 67,
      "hit": false,
      "t": 107035.7187447915,
      "d": 72.11515625000175,
      "v": 107
    },
    {
      "midi": 79,
      "hit": false,
      "t": 107035.7187447915,
      "d": 72.11515625000175,
      "v": 107
    },
    {
      "midi": 72,
      "hit": false,
      "t": 107040.526421875,
      "d": 72.11515625000175,
      "v": 109
    },
    {
      "midi": 36,
      "hit": false,
      "t": 107078.98783854167,
      "d": 374.99881249999453,
      "v": 79
    },
    {
      "midi": 67,
      "hit": false,
      "t": 107256.87189062484,
      "d": 331.7297187499935,
      "v": 116
    },
    {
      "midi": 79,
      "hit": false,
      "t": 107259.2757291665,
      "d": 329.3258802083292,
      "v": 116
    },
    {
      "midi": 79,
      "hit": false,
      "t": 107276.10259895833,
      "d": 223.5569843750127,
      "v": 114
    },
    {
      "midi": 60,
      "hit": false,
      "t": 107280.9102760411,
      "d": 64.9036406249943,
      "v": 88
    },
    {
      "midi": 67,
      "hit": false,
      "t": 107280.9102760411,
      "d": 64.9036406249943,
      "v": 99
    },
    {
      "midi": 64,
      "hit": false,
      "t": 107283.31411458277,
      "d": 60.0959635416657,
      "v": 99
    },
    {
      "midi": 72,
      "hit": false,
      "t": 107290.52563020833,
      "d": 170.6725364583399,
      "v": 96
    },
    {
      "midi": 38,
      "hit": false,
      "t": 107540.52483854166,
      "d": 331.7297187499935,
      "v": 74
    },
    {
      "midi": 60,
      "hit": false,
      "t": 107747.25495312443,
      "d": 52.884447916658246,
      "v": 90
    },
    {
      "midi": 64,
      "hit": false,
      "t": 107747.25495312443,
      "d": 52.884447916658246,
      "v": 94
    },
    {
      "midi": 67,
      "hit": false,
      "t": 107749.6587916661,
      "d": 62.499802083329996,
      "v": 97
    },
    {
      "midi": 71,
      "hit": false,
      "t": 107754.46646875,
      "d": 98.55738020833815,
      "v": 114
    },
    {
      "midi": 79,
      "hit": false,
      "t": 107756.87030729167,
      "d": 124.99960416667454,
      "v": 127
    },
    {
      "midi": 67,
      "hit": false,
      "t": 107766.48566145817,
      "d": 96.15354166667385,
      "v": 116
    },
    {
      "midi": 79,
      "hit": false,
      "t": 107766.48566145817,
      "d": 96.15354166667385,
      "v": 116
    },
    {
      "midi": 43,
      "hit": false,
      "t": 108002.06183854166,
      "d": 413.460229166667,
      "v": 85
    },
    {
      "midi": 59,
      "hit": false,
      "t": 108203.9842760411,
      "d": 62.499802083329996,
      "v": 90
    },
    {
      "midi": 67,
      "hit": false,
      "t": 108203.9842760411,
      "d": 64.9036406249943,
      "v": 99
    },
    {
      "midi": 62,
      "hit": false,
      "t": 108206.38811458276,
      "d": 60.0959635416657,
      "v": 101
    },
    {
      "midi": 38,
      "hit": false,
      "t": 108463.59883854166,
      "d": 161.05718229166814,
      "v": 86
    },
    {
      "midi": 62,
      "hit": false,
      "t": 108670.32895312442,
      "d": 52.884447916658246,
      "v": 97
    },
    {
      "midi": 67,
      "hit": false,
      "t": 108670.32895312442,
      "d": 64.9036406249943,
      "v": 101
    },
    {
      "midi": 59,
      "hit": false,
      "t": 108675.13663020775,
      "d": 48.07677083332965,
      "v": 88
    },
    {
      "midi": 40,
      "hit": false,
      "t": 108694.36733854166,
      "d": 187.49940625000454,
      "v": 88
    },
    {
      "midi": 43,
      "hit": false,
      "t": 108925.13583854167,
      "d": 382.210328125002,
      "v": 85
    },
    {
      "midi": 77,
      "hit": false,
      "t": 108944.36654687501,
      "d": 2939.894536458334,
      "v": 113
    },
    {
      "midi": 62,
      "hit": false,
      "t": 109151.09666145775,
      "d": 69.71131770833745,
      "v": 92
    },
    {
      "midi": 67,
      "hit": false,
      "t": 109151.09666145775,
      "d": 79.3266718750092,
      "v": 90
    },
    {
      "midi": 59,
      "hit": false,
      "t": 109155.90433854108,
      "d": 40.86525520833675,
      "v": 83
    },
    {
      "midi": 38,
      "hit": false,
      "t": 109386.67283854166,
      "d": 341.34507291666523,
      "v": 76
    },
    {
      "midi": 59,
      "hit": false,
      "t": 109593.40295312443,
      "d": 60.0959635416657,
      "v": 85
    },
    {
      "midi": 62,
      "hit": false,
      "t": 109593.40295312443,
      "d": 60.0959635416657,
      "v": 99
    },
    {
      "midi": 67,
      "hit": false,
      "t": 109593.40295312443,
      "d": 62.499802083329996,
      "v": 94
    },
    {
      "midi": 43,
      "hit": false,
      "t": 109848.20983854166,
      "d": 343.74891145832953,
      "v": 79
    },
    {
      "midi": 62,
      "hit": false,
      "t": 110059.74763020776,
      "d": 67.3074791666586,
      "v": 101
    },
    {
      "midi": 67,
      "hit": false,
      "t": 110059.74763020776,
      "d": 67.3074791666586,
      "v": 97
    },
    {
      "midi": 59,
      "hit": false,
      "t": 110064.55530729108,
      "d": 60.0959635416657,
      "v": 86
    },
    {
      "midi": 38,
      "hit": false,
      "t": 110309.74683854166,
      "d": 358.1719427083299,
      "v": 79
    },
    {
      "midi": 59,
      "hit": false,
      "t": 110530.89998437441,
      "d": 52.884447916658246,
      "v": 88
    },
    {
      "midi": 62,
      "hit": false,
      "t": 110530.89998437441,
      "d": 52.884447916658246,
      "v": 101
    },
    {
      "midi": 67,
      "hit": false,
      "t": 110533.30382291607,
      "d": 62.499802083329996,
      "v": 99
    },
    {
      "midi": 36,
      "hit": false,
      "t": 110771.28383854165,
      "d": 360.5757812499942,
      "v": 80
    },
    {
      "midi": 64,
      "hit": false,
      "t": 110982.82163020773,
      "d": 67.3074791666586,
      "v": 101
    },
    {
      "midi": 67,
      "hit": false,
      "t": 110985.2254687494,
      "d": 64.9036406249943,
      "v": 97
    },
    {
      "midi": 60,
      "hit": false,
      "t": 110987.62930729106,
      "d": 60.0959635416657,
      "v": 90
    },
    {
      "midi": 38,
      "hit": false,
      "t": 111232.82083854165,
      "d": 374.99881249999453,
      "v": 85
    },
    {
      "midi": 60,
      "hit": false,
      "t": 111453.97398437439,
      "d": 60.0959635416657,
      "v": 92
    },
    {
      "midi": 67,
      "hit": false,
      "t": 111453.97398437439,
      "d": 64.9036406249943,
      "v": 97
    },
    {
      "midi": 64,
      "hit": false,
      "t": 111456.37782291605,
      "d": 48.07677083332965,
      "v": 101
    },
    {
      "midi": 83,
      "hit": false,
      "t": 111458.78166145834,
      "d": 168.26869791666104,
      "v": 120
    },
    {
      "midi": 71,
      "hit": false,
      "t": 111458.78166145834,
      "d": 182.6917291666614,
      "v": 107
    },
    {
      "midi": 43,
      "hit": false,
      "t": 111694.35783854165,
      "d": 374.99881249999453,
      "v": 82
    },
    {
      "midi": 74,
      "hit": false,
      "t": 111872.24189062501,
      "d": 346.1527500000084,
      "v": 74
    },
    {
      "midi": 67,
      "hit": false,
      "t": 111920.31866145771,
      "d": 55.288286458322546,
      "v": 99
    },
    {
      "midi": 59,
      "hit": false,
      "t": 111925.12633854104,
      "d": 48.07677083332965,
      "v": 90
    },
    {
      "midi": 62,
      "hit": false,
      "t": 111925.12633854104,
      "d": 48.07677083332965,
      "v": 104
    },
    {
      "midi": 38,
      "hit": false,
      "t": 112155.89483854164,
      "d": 161.05718229166814,
      "v": 83
    },
    {
      "midi": 72,
      "hit": false,
      "t": 112218.39464062502,
      "d": 319.710526041672,
      "v": 80
    },
    {
      "midi": 59,
      "hit": false,
      "t": 112377.04798437437,
      "d": 62.499802083329996,
      "v": 88
    },
    {
      "midi": 62,
      "hit": false,
      "t": 112377.04798437437,
      "d": 62.499802083329996,
      "v": 101
    },
    {
      "midi": 67,
      "hit": false,
      "t": 112379.45182291603,
      "d": 62.499802083329996,
      "v": 97
    },
    {
      "midi": 40,
      "hit": false,
      "t": 112386.66333854165,
      "d": 187.49940625000454,
      "v": 85
    },
    {
      "midi": 71,
      "hit": false,
      "t": 112526.08597395835,
      "d": 2377.396317708335,
      "v": 78
    },
    {
      "midi": 43,
      "hit": false,
      "t": 112617.43183854166,
      "d": 370.19113541666593,
      "v": 75
    },
    {
      "midi": 62,
      "hit": false,
      "t": 112857.81569270769,
      "d": 52.884447916658246,
      "v": 99
    },
    {
      "midi": 59,
      "hit": false,
      "t": 112857.81569270769,
      "d": 64.9036406249943,
      "v": 88
    },
    {
      "midi": 67,
      "hit": false,
      "t": 112860.21953124936,
      "d": 62.499802083329996,
      "v": 97
    },
    {
      "midi": 38,
      "hit": false,
      "t": 113078.96883854165,
      "d": 343.74891145832953,
      "v": 73
    },
    {
      "midi": 59,
      "hit": false,
      "t": 113300.12198437436,
      "d": 64.9036406249943,
      "v": 90
    },
    {
      "midi": 67,
      "hit": false,
      "t": 113300.12198437436,
      "d": 64.9036406249943,
      "v": 101
    },
    {
      "midi": 62,
      "hit": false,
      "t": 113302.52582291602,
      "d": 57.6921250000014,
      "v": 101
    },
    {
      "midi": 43,
      "hit": false,
      "t": 113540.50583854165,
      "d": 374.99881249999453,
      "v": 79
    },
    {
      "midi": 62,
      "hit": false,
      "t": 113756.85130729103,
      "d": 48.07677083332965,
      "v": 101
    },
    {
      "midi": 67,
      "hit": false,
      "t": 113756.85130729103,
      "d": 64.9036406249943,
      "v": 99
    },
    {
      "midi": 59,
      "hit": false,
      "t": 113759.25514583269,
      "d": 45.67293229166535,
      "v": 90
    },
    {
      "midi": 38,
      "hit": false,
      "t": 114002.04283854165,
      "d": 343.74891145832953,
      "v": 72
    },
    {
      "midi": 62,
      "hit": false,
      "t": 114206.36911458269,
      "d": 67.3074791666586,
      "v": 101
    },
    {
      "midi": 67,
      "hit": false,
      "t": 114208.77295312435,
      "d": 79.32667187499464,
      "v": 101
    },
    {
      "midi": 59,
      "hit": false,
      "t": 114213.58063020768,
      "d": 60.0959635416657,
      "v": 92
    },
    {
      "midi": 36,
      "hit": false,
      "t": 114463.57983854164,
      "d": 374.99881249999453,
      "v": 79
    },
    {
      "midi": 60,
      "hit": false,
      "t": 114665.50227604102,
      "d": 64.9036406249943,
      "v": 88
    },
    {
      "midi": 67,
      "hit": false,
      "t": 114665.50227604102,
      "d": 64.9036406249943,
      "v": 99
    },
    {
      "midi": 64,
      "hit": false,
      "t": 114667.90611458269,
      "d": 60.0959635416657,
      "v": 99
    },
    {
      "midi": 38,
      "hit": false,
      "t": 114925.11683854164,
      "d": 331.7297187499935,
      "v": 74
    },
    {
      "midi": 60,
      "hit": false,
      "t": 115131.84695312435,
      "d": 52.884447916658246,
      "v": 90
    },
    {
      "midi": 64,
      "hit": false,
      "t": 115131.84695312435,
      "d": 52.884447916658246,
      "v": 94
    },
    {
      "midi": 67,
      "hit": false,
      "t": 115134.25079166601,
      "d": 62.499802083329996,
      "v": 97
    },
    {
      "midi": 71,
      "hit": false,
      "t": 115141.46230729167,
      "d": 96.15354166667385,
      "v": 114
    },
    {
      "midi": 79,
      "hit": false,
      "t": 115141.46230729167,
      "d": 124.99960416667454,
      "v": 127
    },
    {
      "midi": 43,
      "hit": false,
      "t": 115386.65383854164,
      "d": 413.460229166667,
      "v": 85
    },
    {
      "midi": 59,
      "hit": false,
      "t": 115588.57627604101,
      "d": 62.499802083329996,
      "v": 90
    },
    {
      "midi": 67,
      "hit": false,
      "t": 115588.57627604101,
      "d": 64.9036406249943,
      "v": 99
    },
    {
      "midi": 62,
      "hit": false,
      "t": 115590.98011458268,
      "d": 57.6921250000014,
      "v": 101
    },
    {
      "midi": 38,
      "hit": false,
      "t": 115848.19083854163,
      "d": 161.05718229166814,
      "v": 86
    },
    {
      "midi": 62,
      "hit": false,
      "t": 116054.92095312434,
      "d": 52.884447916658246,
      "v": 97
    },
    {
      "midi": 67,
      "hit": false,
      "t": 116054.92095312434,
      "d": 64.9036406249943,
      "v": 101
    },
    {
      "midi": 59,
      "hit": false,
      "t": 116059.72863020767,
      "d": 48.07677083332965,
      "v": 88
    },
    {
      "midi": 40,
      "hit": false,
      "t": 116078.95933854164,
      "d": 187.49940625000454,
      "v": 88
    },
    {
      "midi": 77,
      "hit": false,
      "t": 116280.88177604169,
      "d": 2975.952114583328,
      "v": 100
    },
    {
      "midi": 43,
      "hit": false,
      "t": 116309.72783854164,
      "d": 382.210328125002,
      "v": 85
    },
    {
      "midi": 62,
      "hit": false,
      "t": 116535.68866145767,
      "d": 72.11515625000175,
      "v": 92
    },
    {
      "midi": 67,
      "hit": false,
      "t": 116535.68866145767,
      "d": 79.32667187499464,
      "v": 90
    },
    {
      "midi": 59,
      "hit": false,
      "t": 116540.496338541,
      "d": 40.86525520833675,
      "v": 83
    },
    {
      "midi": 38,
      "hit": false,
      "t": 116771.26483854164,
      "d": 341.34507291666523,
      "v": 76
    },
    {
      "midi": 59,
      "hit": false,
      "t": 116977.99495312433,
      "d": 60.0959635416657,
      "v": 85
    },
    {
      "midi": 67,
      "hit": false,
      "t": 116977.99495312433,
      "d": 62.499802083329996,
      "v": 94
    },
    {
      "midi": 62,
      "hit": false,
      "t": 116980.398791666,
      "d": 57.6921250000014,
      "v": 99
    },
    {
      "midi": 43,
      "hit": false,
      "t": 117232.80183854164,
      "d": 343.74891145832953,
      "v": 79
    },
    {
      "midi": 62,
      "hit": false,
      "t": 117444.33963020766,
      "d": 67.3074791666586,
      "v": 101
    },
    {
      "midi": 67,
      "hit": false,
      "t": 117444.33963020766,
      "d": 67.3074791666586,
      "v": 97
    },
    {
      "midi": 59,
      "hit": false,
      "t": 117449.14730729099,
      "d": 60.0959635416657,
      "v": 86
    },
    {
      "midi": 38,
      "hit": false,
      "t": 117694.33883854163,
      "d": 360.5757812499942,
      "v": 79
    },
    {
      "midi": 59,
      "hit": false,
      "t": 117915.49198437431,
      "d": 52.884447916658246,
      "v": 88
    },
    {
      "midi": 62,
      "hit": false,
      "t": 117915.49198437431,
      "d": 52.884447916658246,
      "v": 101
    },
    {
      "midi": 67,
      "hit": false,
      "t": 117917.89582291598,
      "d": 62.499802083329996,
      "v": 99
    },
    {
      "midi": 36,
      "hit": false,
      "t": 118155.87583854163,
      "d": 360.5757812499942,
      "v": 80
    },
    {
      "midi": 64,
      "hit": false,
      "t": 118367.41363020764,
      "d": 67.3074791666586,
      "v": 101
    },
    {
      "midi": 67,
      "hit": false,
      "t": 118367.41363020764,
      "d": 67.3074791666586,
      "v": 97
    },
    {
      "midi": 60,
      "hit": false,
      "t": 118372.22130729097,
      "d": 62.499802083329996,
      "v": 90
    },
    {
      "midi": 38,
      "hit": false,
      "t": 118617.41283854163,
      "d": 374.99881249999453,
      "v": 85
    },
    {
      "midi": 64,
      "hit": false,
      "t": 118838.56598437429,
      "d": 50.480609374993946,
      "v": 101
    },
    {
      "midi": 60,
      "hit": false,
      "t": 118838.56598437429,
      "d": 60.0959635416657,
      "v": 92
    },
    {
      "midi": 67,
      "hit": false,
      "t": 118838.56598437429,
      "d": 64.9036406249943,
      "v": 97
    },
    {
      "midi": 83,
      "hit": false,
      "t": 118843.37366145835,
      "d": 168.26869791666104,
      "v": 120
    },
    {
      "midi": 71,
      "hit": false,
      "t": 118843.37366145835,
      "d": 182.6917291666614,
      "v": 107
    },
    {
      "midi": 43,
      "hit": false,
      "t": 119078.94983854162,
      "d": 374.99881249999453,
      "v": 82
    },
    {
      "midi": 71,
      "hit": false,
      "t": 119276.06459895834,
      "d": 423.0755833333387,
      "v": 79
    },
    {
      "midi": 67,
      "hit": false,
      "t": 119304.91066145762,
      "d": 55.288286458322546,
      "v": 99
    },
    {
      "midi": 59,
      "hit": false,
      "t": 119309.71833854094,
      "d": 45.67293229166535,
      "v": 90
    },
    {
      "midi": 62,
      "hit": false,
      "t": 119309.71833854094,
      "d": 45.67293229166535,
      "v": 104
    },
    {
      "midi": 38,
      "hit": false,
      "t": 119540.48683854162,
      "d": 163.46102083333244,
      "v": 83
    },
    {
      "midi": 74,
      "hit": false,
      "t": 119699.14018229168,
      "d": 293.2683020833356,
      "v": 70
    },
    {
      "midi": 59,
      "hit": false,
      "t": 119761.63998437427,
      "d": 60.0959635416657,
      "v": 88
    },
    {
      "midi": 62,
      "hit": false,
      "t": 119761.63998437427,
      "d": 60.0959635416657,
      "v": 101
    },
    {
      "midi": 67,
      "hit": false,
      "t": 119761.63998437427,
      "d": 64.9036406249943,
      "v": 97
    },
    {
      "midi": 40,
      "hit": false,
      "t": 119771.25533854162,
      "d": 187.49940625000454,
      "v": 85
    },
    {
      "midi": 43,
      "hit": false,
      "t": 120002.02383854163,
      "d": 370.19113541666593,
      "v": 75
    },
    {
      "midi": 67,
      "hit": false,
      "t": 120004.42767708335,
      "d": 2007.2051822916692,
      "v": 76
    },
    {
      "midi": 62,
      "hit": false,
      "t": 120242.4076927076,
      "d": 52.884447916658246,
      "v": 99
    },
    {
      "midi": 59,
      "hit": false,
      "t": 120242.4076927076,
      "d": 64.9036406249943,
      "v": 88
    },
    {
      "midi": 67,
      "hit": false,
      "t": 120244.81153124926,
      "d": 62.499802083329996,
      "v": 97
    },
    {
      "midi": 38,
      "hit": false,
      "t": 120463.56083854163,
      "d": 343.74891145832953,
      "v": 73
    },
    {
      "midi": 59,
      "hit": false,
      "t": 120684.71398437426,
      "d": 64.9036406249943,
      "v": 90
    },
    {
      "midi": 67,
      "hit": false,
      "t": 120684.71398437426,
      "d": 64.9036406249943,
      "v": 101
    },
    {
      "midi": 62,
      "hit": false,
      "t": 120687.11782291593,
      "d": 57.6921250000014,
      "v": 101
    },
    {
      "midi": 43,
      "hit": false,
      "t": 120925.09783854162,
      "d": 374.99881249999453,
      "v": 79
    },
    {
      "midi": 62,
      "hit": false,
      "t": 121141.44330729093,
      "d": 48.07677083332965,
      "v": 101
    },
    {
      "midi": 67,
      "hit": false,
      "t": 121141.44330729093,
      "d": 64.9036406249943,
      "v": 99
    },
    {
      "midi": 59,
      "hit": false,
      "t": 121143.8471458326,
      "d": 45.67293229166535,
      "v": 90
    },
    {
      "midi": 38,
      "hit": false,
      "t": 121386.63483854162,
      "d": 343.74891145832953,
      "v": 72
    },
    {
      "midi": 62,
      "hit": false,
      "t": 121593.36495312426,
      "d": 64.9036406249943,
      "v": 101
    },
    {
      "midi": 67,
      "hit": false,
      "t": 121593.36495312426,
      "d": 79.32667187499464,
      "v": 101
    },
    {
      "midi": 59,
      "hit": false,
      "t": 121598.17263020758,
      "d": 60.0959635416657,
      "v": 92
    },
    {
      "midi": 79,
      "hit": false,
      "t": 121790.47971354167,
      "d": 105.76889583333104,
      "v": 123
    },
    {
      "midi": 72,
      "hit": false,
      "t": 121809.710421875,
      "d": 72.11515625000175,
      "v": 109
    },
    {
      "midi": 36,
      "hit": false,
      "t": 121848.17183854162,
      "d": 374.99881249999453,
      "v": 79
    },
    {
      "midi": 79,
      "hit": false,
      "t": 122045.28659895834,
      "d": 223.5569843750127,
      "v": 114
    },
    {
      "midi": 60,
      "hit": false,
      "t": 122050.09427604092,
      "d": 64.9036406249943,
      "v": 88
    },
    {
      "midi": 67,
      "hit": false,
      "t": 122050.09427604092,
      "d": 64.9036406249943,
      "v": 99
    },
    {
      "midi": 64,
      "hit": false,
      "t": 122052.49811458259,
      "d": 57.6921250000014,
      "v": 99
    },
    {
      "midi": 72,
      "hit": false,
      "t": 122059.70963020834,
      "d": 170.6725364583399,
      "v": 96
    },
    {
      "midi": 38,
      "hit": false,
      "t": 122309.70883854161,
      "d": 331.7297187499935,
      "v": 74
    },
    {
      "midi": 60,
      "hit": false,
      "t": 122516.43895312425,
      "d": 52.884447916658246,
      "v": 90
    },
    {
      "midi": 64,
      "hit": false,
      "t": 122516.43895312425,
      "d": 52.884447916658246,
      "v": 94
    },
    {
      "midi": 67,
      "hit": false,
      "t": 122518.84279166591,
      "d": 62.499802083329996,
      "v": 97
    },
    {
      "midi": 71,
      "hit": false,
      "t": 122523.65046875001,
      "d": 98.55738020833815,
      "v": 114
    },
    {
      "midi": 79,
      "hit": false,
      "t": 122526.05430729168,
      "d": 124.99960416667454,
      "v": 127
    },
    {
      "midi": 43,
      "hit": false,
      "t": 122771.24583854161,
      "d": 413.460229166667,
      "v": 85
    },
    {
      "midi": 59,
      "hit": false,
      "t": 122973.16827604092,
      "d": 62.499802083329996,
      "v": 90
    },
    {
      "midi": 67,
      "hit": false,
      "t": 122973.16827604092,
      "d": 64.9036406249943,
      "v": 99
    },
    {
      "midi": 62,
      "hit": false,
      "t": 122975.57211458258,
      "d": 60.0959635416657,
      "v": 101
    },
    {
      "midi": 38,
      "hit": false,
      "t": 123232.7828385416,
      "d": 161.05718229166814,
      "v": 86
    },
    {
      "midi": 62,
      "hit": false,
      "t": 123439.51295312424,
      "d": 52.884447916658246,
      "v": 97
    },
    {
      "midi": 67,
      "hit": false,
      "t": 123439.51295312424,
      "d": 64.9036406249943,
      "v": 101
    },
    {
      "midi": 59,
      "hit": false,
      "t": 123444.32063020757,
      "d": 48.07677083332965,
      "v": 88
    },
    {
      "midi": 40,
      "hit": false,
      "t": 123463.55133854161,
      "d": 187.49940625000454,
      "v": 88
    },
    {
      "midi": 74,
      "hit": false,
      "t": 123694.3198385415,
      "d": 475.960031249997,
      "v": 113
    },
    {
      "midi": 43,
      "hit": false,
      "t": 123694.31983854162,
      "d": 382.210328125002,
      "v": 85
    },
    {
      "midi": 86,
      "hit": false,
      "t": 123696.72367708317,
      "d": 473.5561927083327,
      "v": 113
    },
    {
      "midi": 62,
      "hit": false,
      "t": 123920.28066145757,
      "d": 72.11515625000175,
      "v": 92
    },
    {
      "midi": 67,
      "hit": false,
      "t": 123920.28066145757,
      "d": 79.32667187499464,
      "v": 90
    },
    {
      "midi": 59,
      "hit": false,
      "t": 123925.0883385409,
      "d": 40.86525520833675,
      "v": 83
    },
    {
      "midi": 72,
      "hit": false,
      "t": 124131.81845312483,
      "d": 76.9228333333449,
      "v": 94
    },
    {
      "midi": 84,
      "hit": false,
      "t": 124131.81845312483,
      "d": 76.9228333333449,
      "v": 94
    },
    {
      "midi": 38,
      "hit": false,
      "t": 124155.85683854161,
      "d": 341.34507291666523,
      "v": 76
    },
    {
      "midi": 83,
      "hit": false,
      "t": 124357.7792760415,
      "d": 67.30747916667315,
      "v": 107
    },
    {
      "midi": 71,
      "hit": false,
      "t": 124357.7792760415,
      "d": 69.71131770833745,
      "v": 107
    },
    {
      "midi": 59,
      "hit": false,
      "t": 124362.58695312424,
      "d": 60.0959635416657,
      "v": 85
    },
    {
      "midi": 67,
      "hit": false,
      "t": 124362.58695312424,
      "d": 64.9036406249943,
      "v": 94
    },
    {
      "midi": 62,
      "hit": false,
      "t": 124364.9907916659,
      "d": 57.6921250000014,
      "v": 99
    },
    {
      "midi": 72,
      "hit": false,
      "t": 124588.54777604151,
      "d": 230.7685000000056,
      "v": 110
    },
    {
      "midi": 84,
      "hit": false,
      "t": 124588.54777604151,
      "d": 230.7685000000056,
      "v": 110
    },
    {
      "midi": 43,
      "hit": false,
      "t": 124617.39383854161,
      "d": 343.74891145832953,
      "v": 79
    },
    {
      "midi": 71,
      "hit": false,
      "t": 124804.89324479151,
      "d": 57.6921250000014,
      "v": 91
    },
    {
      "midi": 83,
      "hit": false,
      "t": 124804.89324479151,
      "d": 57.6921250000014,
      "v": 91
    },
    {
      "midi": 67,
      "hit": false,
      "t": 124828.93163020756,
      "d": 64.9036406249943,
      "v": 97
    },
    {
      "midi": 62,
      "hit": false,
      "t": 124828.93163020756,
      "d": 67.3074791666586,
      "v": 101
    },
    {
      "midi": 59,
      "hit": false,
      "t": 124833.73930729089,
      "d": 60.0959635416657,
      "v": 86
    },
    {
      "midi": 67,
      "hit": false,
      "t": 125035.66174479152,
      "d": 252.40304687499884,
      "v": 103
    },
    {
      "midi": 79,
      "hit": false,
      "t": 125035.66174479152,
      "d": 252.40304687499884,
      "v": 103
    },
    {
      "midi": 38,
      "hit": false,
      "t": 125078.93083854161,
      "d": 360.5757812499942,
      "v": 79
    },
    {
      "midi": 64,
      "hit": false,
      "t": 125285.66095312485,
      "d": 69.71131770833745,
      "v": 97
    },
    {
      "midi": 76,
      "hit": false,
      "t": 125285.66095312485,
      "d": 69.71131770833745,
      "v": 97
    },
    {
      "midi": 62,
      "hit": false,
      "t": 125297.68014583255,
      "d": 52.884447916658246,
      "v": 101
    },
    {
      "midi": 59,
      "hit": false,
      "t": 125297.68014583255,
      "d": 55.288286458322546,
      "v": 88
    },
    {
      "midi": 67,
      "hit": false,
      "t": 125300.08398437421,
      "d": 64.9036406249943,
      "v": 99
    },
    {
      "midi": 79,
      "hit": false,
      "t": 125506.81409895819,
      "d": 55.2882864583371,
      "v": 115
    },
    {
      "midi": 67,
      "hit": false,
      "t": 125506.81409895819,
      "d": 57.6921250000014,
      "v": 115
    },
    {
      "midi": 72,
      "hit": false,
      "t": 125516.42945312502,
      "d": 60.0959635416657,
      "v": 102
    },
    {
      "midi": 67,
      "hit": false,
      "t": 125516.42945312502,
      "d": 74.51899479166605,
      "v": 95
    },
    {
      "midi": 79,
      "hit": false,
      "t": 125516.42945312502,
      "d": 91.3458645833307,
      "v": 109
    },
    {
      "midi": 36,
      "hit": false,
      "t": 125540.4678385416,
      "d": 360.5757812499942,
      "v": 80
    },
    {
      "midi": 67,
      "hit": false,
      "t": 125747.19795312485,
      "d": 305.28749479167163,
      "v": 113
    },
    {
      "midi": 79,
      "hit": false,
      "t": 125747.19795312485,
      "d": 305.28749479167163,
      "v": 113
    },
    {
      "midi": 67,
      "hit": false,
      "t": 125752.00563020754,
      "d": 64.9036406249943,
      "v": 97
    },
    {
      "midi": 64,
      "hit": false,
      "t": 125752.00563020754,
      "d": 67.3074791666586,
      "v": 101
    },
    {
      "midi": 72,
      "hit": false,
      "t": 125756.81330729168,
      "d": 201.9224375000049,
      "v": 107
    },
    {
      "midi": 67,
      "hit": false,
      "t": 125756.81330729168,
      "d": 216.34546875000524,
      "v": 102
    },
    {
      "midi": 79,
      "hit": false,
      "t": 125756.81330729168,
      "d": 216.34546875000524,
      "v": 117
    },
    {
      "midi": 60,
      "hit": false,
      "t": 125759.21714583253,
      "d": 57.6921250000014,
      "v": 90
    },
    {
      "midi": 38,
      "hit": false,
      "t": 126002.0048385416,
      "d": 374.99881249999453,
      "v": 85
    },
    {
      "midi": 60,
      "hit": false,
      "t": 126223.1579843742,
      "d": 60.0959635416657,
      "v": 92
    },
    {
      "midi": 67,
      "hit": false,
      "t": 126223.1579843742,
      "d": 64.9036406249943,
      "v": 97
    },
    {
      "midi": 64,
      "hit": false,
      "t": 126225.56182291586,
      "d": 48.07677083332965,
      "v": 101
    },
    {
      "midi": 83,
      "hit": false,
      "t": 126227.96566145835,
      "d": 168.26869791666104,
      "v": 120
    },
    {
      "midi": 71,
      "hit": false,
      "t": 126227.96566145835,
      "d": 182.6917291666614,
      "v": 107
    },
    {
      "midi": 71,
      "hit": false,
      "t": 126232.77333854152,
      "d": 110.57657291665964,
      "v": 117
    },
    {
      "midi": 83,
      "hit": false,
      "t": 126232.77333854152,
      "d": 110.57657291665964,
      "v": 117
    },
    {
      "midi": 43,
      "hit": false,
      "t": 126463.5418385416,
      "d": 374.99881249999453,
      "v": 82
    },
    {
      "midi": 67,
      "hit": false,
      "t": 126689.50266145752,
      "d": 55.288286458322546,
      "v": 99
    },
    {
      "midi": 59,
      "hit": false,
      "t": 126694.31033854085,
      "d": 45.67293229166535,
      "v": 90
    },
    {
      "midi": 62,
      "hit": false,
      "t": 126694.31033854085,
      "d": 45.67293229166535,
      "v": 104
    },
    {
      "midi": 38,
      "hit": false,
      "t": 126925.0788385416,
      "d": 163.46102083333244,
      "v": 83
    },
    {
      "midi": 62,
      "hit": false,
      "t": 127146.23198437417,
      "d": 60.0959635416657,
      "v": 101
    },
    {
      "midi": 59,
      "hit": false,
      "t": 127146.23198437417,
      "d": 62.499802083329996,
      "v": 88
    },
    {
      "midi": 67,
      "hit": false,
      "t": 127148.63582291584,
      "d": 62.499802083329996,
      "v": 97
    },
    {
      "midi": 40,
      "hit": false,
      "t": 127155.8473385416,
      "d": 187.49940625000454,
      "v": 85
    },
    {
      "midi": 86,
      "hit": false,
      "t": 127357.76977604152,
      "d": 497.5945781250048,
      "v": 107
    },
    {
      "midi": 74,
      "hit": false,
      "t": 127357.76977604152,
      "d": 499.9984166666691,
      "v": 107
    },
    {
      "midi": 43,
      "hit": false,
      "t": 127386.6158385416,
      "d": 370.19113541666593,
      "v": 75
    },
    {
      "midi": 62,
      "hit": false,
      "t": 127626.9996927075,
      "d": 52.884447916658246,
      "v": 99
    },
    {
      "midi": 59,
      "hit": false,
      "t": 127626.9996927075,
      "d": 64.9036406249943,
      "v": 88
    },
    {
      "midi": 67,
      "hit": false,
      "t": 127629.40353124916,
      "d": 62.499802083329996,
      "v": 97
    },
    {
      "midi": 72,
      "hit": false,
      "t": 127814.49909895819,
      "d": 81.7305104166735,
      "v": 94
    },
    {
      "midi": 84,
      "hit": false,
      "t": 127816.90293749985,
      "d": 79.3266718750092,
      "v": 94
    },
    {
      "midi": 38,
      "hit": false,
      "t": 127848.1528385416,
      "d": 343.74891145832953,
      "v": 73
    },
    {
      "midi": 71,
      "hit": false,
      "t": 128059.69063020819,
      "d": 64.9036406249943,
      "v": 97
    },
    {
      "midi": 83,
      "hit": false,
      "t": 128062.09446874986,
      "d": 62.499802083329996,
      "v": 97
    },
    {
      "midi": 59,
      "hit": false,
      "t": 128069.30598437416,
      "d": 64.9036406249943,
      "v": 90
    },
    {
      "midi": 67,
      "hit": false,
      "t": 128069.30598437416,
      "d": 64.9036406249943,
      "v": 101
    },
    {
      "midi": 62,
      "hit": false,
      "t": 128071.70982291583,
      "d": 57.6921250000014,
      "v": 101
    },
    {
      "midi": 72,
      "hit": false,
      "t": 128276.03609895818,
      "d": 240.3838541666628,
      "v": 113
    },
    {
      "midi": 84,
      "hit": false,
      "t": 128276.03609895818,
      "d": 240.3838541666628,
      "v": 113
    },
    {
      "midi": 43,
      "hit": false,
      "t": 128309.6898385416,
      "d": 374.99881249999453,
      "v": 79
    },
    {
      "midi": 71,
      "hit": false,
      "t": 128501.99692187484,
      "d": 72.11515625000175,
      "v": 94
    },
    {
      "midi": 83,
      "hit": false,
      "t": 128501.99692187484,
      "d": 72.11515625000175,
      "v": 94
    },
    {
      "midi": 62,
      "hit": false,
      "t": 128526.03530729083,
      "d": 50.480609374993946,
      "v": 101
    },
    {
      "midi": 67,
      "hit": false,
      "t": 128526.03530729083,
      "d": 64.9036406249943,
      "v": 99
    },
    {
      "midi": 59,
      "hit": false,
      "t": 128528.4391458325,
      "d": 48.07677083332965,
      "v": 90
    },
    {
      "midi": 67,
      "hit": false,
      "t": 128723.15006770818,
      "d": 211.5377916666621,
      "v": 116
    },
    {
      "midi": 79,
      "hit": false,
      "t": 128723.15006770818,
      "d": 211.5377916666621,
      "v": 116
    },
    {
      "midi": 38,
      "hit": false,
      "t": 128771.2268385416,
      "d": 343.74891145832953,
      "v": 72
    },
    {
      "midi": 64,
      "hit": false,
      "t": 128949.11089062484,
      "d": 76.92283333333035,
      "v": 112
    },
    {
      "midi": 76,
      "hit": false,
      "t": 128949.11089062484,
      "d": 76.92283333333035,
      "v": 112
    },
    {
      "midi": 62,
      "hit": false,
      "t": 128977.95695312416,
      "d": 67.3074791666586,
      "v": 101
    },
    {
      "midi": 67,
      "hit": false,
      "t": 128977.95695312416,
      "d": 79.32667187499464,
      "v": 101
    },
    {
      "midi": 59,
      "hit": false,
      "t": 128982.76463020749,
      "d": 60.0959635416657,
      "v": 92
    },
    {
      "midi": 79,
      "hit": false,
      "t": 129175.07171354168,
      "d": 105.76889583333104,
      "v": 123
    },
    {
      "midi": 67,
      "hit": false,
      "t": 129189.4947447915,
      "d": 72.11515625000175,
      "v": 107
    },
    {
      "midi": 79,
      "hit": false,
      "t": 129189.4947447915,
      "d": 72.11515625000175,
      "v": 107
    },
    {
      "midi": 72,
      "hit": false,
      "t": 129194.302421875,
      "d": 72.11515625000175,
      "v": 109
    },
    {
      "midi": 36,
      "hit": false,
      "t": 129232.76383854159,
      "d": 374.99881249999453,
      "v": 79
    },
    {
      "midi": 67,
      "hit": false,
      "t": 129410.64789062484,
      "d": 331.7297187499935,
      "v": 116
    },
    {
      "midi": 79,
      "hit": false,
      "t": 129410.64789062484,
      "d": 331.7297187499935,
      "v": 116
    },
    {
      "midi": 79,
      "hit": false,
      "t": 129429.87859895834,
      "d": 223.5569843750127,
      "v": 114
    },
    {
      "midi": 67,
      "hit": false,
      "t": 129434.68627604083,
      "d": 64.9036406249943,
      "v": 99
    },
    {
      "midi": 64,
      "hit": false,
      "t": 129437.09011458249,
      "d": 60.0959635416657,
      "v": 99
    },
    {
      "midi": 60,
      "hit": false,
      "t": 129437.09011458249,
      "d": 62.499802083329996,
      "v": 88
    },
    {
      "midi": 72,
      "hit": false,
      "t": 129444.30163020834,
      "d": 170.6725364583399,
      "v": 96
    },
    {
      "midi": 38,
      "hit": false,
      "t": 129694.30083854159,
      "d": 331.7297187499935,
      "v": 74
    },
    {
      "midi": 60,
      "hit": false,
      "t": 129901.03095312415,
      "d": 52.884447916658246,
      "v": 90
    },
    {
      "midi": 64,
      "hit": false,
      "t": 129901.03095312415,
      "d": 52.884447916658246,
      "v": 94
    },
    {
      "midi": 67,
      "hit": false,
      "t": 129903.43479166582,
      "d": 62.499802083329996,
      "v": 97
    },
    {
      "midi": 71,
      "hit": false,
      "t": 129910.64630729168,
      "d": 96.15354166667385,
      "v": 114
    },
    {
      "midi": 79,
      "hit": false,
      "t": 129910.64630729168,
      "d": 124.99960416667454,
      "v": 127
    },
    {
      "midi": 67,
      "hit": false,
      "t": 129917.8578229165,
      "d": 98.55738020833815,
      "v": 116
    },
    {
      "midi": 79,
      "hit": false,
      "t": 129920.26166145816,
      "d": 96.15354166667385,
      "v": 116
    },
    {
      "midi": 43,
      "hit": false,
      "t": 130155.83783854159,
      "d": 413.460229166667,
      "v": 85
    },
    {
      "midi": 59,
      "hit": false,
      "t": 130357.76027604082,
      "d": 62.499802083329996,
      "v": 90
    },
    {
      "midi": 67,
      "hit": false,
      "t": 130357.76027604082,
      "d": 64.9036406249943,
      "v": 99
    },
    {
      "midi": 62,
      "hit": false,
      "t": 130360.16411458248,
      "d": 60.0959635416657,
      "v": 101
    },
    {
      "midi": 38,
      "hit": false,
      "t": 130617.37483854158,
      "d": 161.05718229166814,
      "v": 86
    },
    {
      "midi": 62,
      "hit": false,
      "t": 130824.10495312414,
      "d": 52.884447916658246,
      "v": 97
    },
    {
      "midi": 67,
      "hit": false,
      "t": 130824.10495312414,
      "d": 64.9036406249943,
      "v": 101
    },
    {
      "midi": 59,
      "hit": false,
      "t": 130828.91263020747,
      "d": 48.07677083332965,
      "v": 88
    },
    {
      "midi": 40,
      "hit": false,
      "t": 130848.14333854159,
      "d": 187.49940625000454,
      "v": 88
    },
    {
      "midi": 43,
      "hit": false,
      "t": 131078.9118385416,
      "d": 382.2103281249874,
      "v": 85
    },
    {
      "midi": 62,
      "hit": false,
      "t": 131304.87266145748,
      "d": 69.71131770833745,
      "v": 92
    },
    {
      "midi": 67,
      "hit": false,
      "t": 131304.87266145748,
      "d": 79.32667187499464,
      "v": 90
    },
    {
      "midi": 59,
      "hit": false,
      "t": 131309.6803385408,
      "d": 40.86525520833675,
      "v": 83
    },
    {
      "midi": 59,
      "hit": false,
      "t": 131487.56439062484,
      "d": 461.5370000000112,
      "v": 103
    },
    {
      "midi": 71,
      "hit": false,
      "t": 131487.56439062484,
      "d": 461.5370000000112,
      "v": 103
    },
    {
      "midi": 83,
      "hit": false,
      "t": 131489.96822916652,
      "d": 459.1331614583323,
      "v": 103
    },
    {
      "midi": 38,
      "hit": false,
      "t": 131540.44883854158,
      "d": 341.3450729166798,
      "v": 76
    },
    {
      "midi": 59,
      "hit": false,
      "t": 131747.17895312415,
      "d": 60.09596354168025,
      "v": 85
    },
    {
      "midi": 67,
      "hit": false,
      "t": 131747.17895312415,
      "d": 62.4998020833591,
      "v": 94
    },
    {
      "midi": 62,
      "hit": false,
      "t": 131749.58279166583,
      "d": 57.6921250000014,
      "v": 99
    },
    {
      "midi": 55,
      "hit": false,
      "t": 131951.50522916653,
      "d": 362.97961979167303,
      "v": 100
    },
    {
      "midi": 67,
      "hit": false,
      "t": 131951.50522916653,
      "d": 362.97961979167303,
      "v": 100
    },
    {
      "midi": 79,
      "hit": false,
      "t": 131953.9090677082,
      "d": 360.5757812499942,
      "v": 100
    },
    {
      "midi": 43,
      "hit": false,
      "t": 132001.9858385416,
      "d": 343.74891145832953,
      "v": 79
    },
    {
      "midi": 62,
      "hit": false,
      "t": 132213.52363020752,
      "d": 67.3074791666877,
      "v": 101
    },
    {
      "midi": 67,
      "hit": false,
      "t": 132213.52363020752,
      "d": 67.3074791666877,
      "v": 97
    },
    {
      "midi": 59,
      "hit": false,
      "t": 132215.9274687492,
      "d": 62.499802083329996,
      "v": 86
    },
    {
      "midi": 38,
      "hit": false,
      "t": 132463.52283854157,
      "d": 358.17194270834443,
      "v": 79
    },
    {
      "midi": 59,
      "hit": false,
      "t": 132684.67598437422,
      "d": 50.48060937502305,
      "v": 88
    },
    {
      "midi": 62,
      "hit": false,
      "t": 132684.67598437422,
      "d": 50.48060937502305,
      "v": 101
    },
    {
      "midi": 67,
      "hit": false,
      "t": 132687.0798229159,
      "d": 62.499802083329996,
      "v": 99
    },
    {
      "midi": 72,
      "hit": false,
      "t": 132901.02145312502,
      "d": 60.09596354168025,
      "v": 102
    },
    {
      "midi": 79,
      "hit": false,
      "t": 132901.02145312502,
      "d": 91.3458645833307,
      "v": 109
    },
    {
      "midi": 67,
      "hit": false,
      "t": 132903.4252916667,
      "d": 72.1151562499872,
      "v": 95
    },
    {
      "midi": 36,
      "hit": false,
      "t": 132925.05983854158,
      "d": 360.5757812499942,
      "v": 80
    },
    {
      "midi": 64,
      "hit": false,
      "t": 133136.59763020757,
      "d": 67.3074791666877,
      "v": 101
    },
    {
      "midi": 67,
      "hit": false,
      "t": 133139.00146874925,
      "d": 64.90364062500885,
      "v": 97
    },
    {
      "midi": 67,
      "hit": false,
      "t": 133141.4053072917,
      "d": 216.3454687499907,
      "v": 102
    },
    {
      "midi": 79,
      "hit": false,
      "t": 133141.4053072917,
      "d": 216.3454687499907,
      "v": 117
    },
    {
      "midi": 72,
      "hit": false,
      "t": 133143.80914583337,
      "d": 199.51859895832604,
      "v": 107
    },
    {
      "midi": 60,
      "hit": false,
      "t": 133146.21298437426,
      "d": 55.288286458322546,
      "v": 90
    },
    {
      "midi": 50,
      "hit": false,
      "t": 133372.17380729155,
      "d": 230.7685000000056,
      "v": 100
    },
    {
      "midi": 62,
      "hit": false,
      "t": 133372.17380729155,
      "d": 230.7685000000056,
      "v": 100
    },
    {
      "midi": 74,
      "hit": false,
      "t": 133374.57764583323,
      "d": 228.36466145832674,
      "v": 100
    },
    {
      "midi": 38,
      "hit": false,
      "t": 133386.59683854156,
      "d": 374.9988125000091,
      "v": 85
    },
    {
      "midi": 60,
      "hit": false,
      "t": 133607.74998437427,
      "d": 60.09596354168025,
      "v": 92
    },
    {
      "midi": 67,
      "hit": false,
      "t": 133607.74998437427,
      "d": 64.90364062500885,
      "v": 97
    },
    {
      "midi": 64,
      "hit": false,
      "t": 133610.15382291595,
      "d": 48.0767708333442,
      "v": 101
    },
    {
      "midi": 83,
      "hit": false,
      "t": 133612.55766145836,
      "d": 168.2686979166756,
      "v": 120
    },
    {
      "midi": 71,
      "hit": false,
      "t": 133612.55766145836,
      "d": 182.6917291666614,
      "v": 107
    },
    {
      "midi": 52,
      "hit": false,
      "t": 133617.36533854154,
      "d": 218.74930729172775,
      "v": 84
    },
    {
      "midi": 64,
      "hit": false,
      "t": 133617.36533854154,
      "d": 218.74930729172775,
      "v": 84
    },
    {
      "midi": 76,
      "hit": false,
      "t": 133619.76917708322,
      "d": 213.94163020837004,
      "v": 84
    },
    {
      "midi": 55,
      "hit": false,
      "t": 133828.90313020823,
      "d": 374.9988125000382,
      "v": 94
    },
    {
      "midi": 67,
      "hit": false,
      "t": 133828.90313020823,
      "d": 374.9988125000382,
      "v": 94
    },
    {
      "midi": 79,
      "hit": false,
      "t": 133831.3069687499,
      "d": 372.59497395835933,
      "v": 94
    },
    {
      "midi": 43,
      "hit": false,
      "t": 133848.13383854157,
      "d": 372.59497395833023,
      "v": 82
    },
    {
      "midi": 67,
      "hit": false,
      "t": 134074.0946614576,
      "d": 55.28828645835165,
      "v": 99
    },
    {
      "midi": 62,
      "hit": false,
      "t": 134078.90233854094,
      "d": 45.67293229166535,
      "v": 104
    },
    {
      "midi": 59,
      "hit": false,
      "t": 134078.90233854094,
      "d": 48.0767708333442,
      "v": 90
    },
    {
      "midi": 38,
      "hit": false,
      "t": 134309.67083854158,
      "d": 163.461020833347,
      "v": 83
    },
    {
      "midi": 59,
      "hit": false,
      "t": 134530.8239843743,
      "d": 60.09596354168025,
      "v": 88
    },
    {
      "midi": 62,
      "hit": false,
      "t": 134530.8239843743,
      "d": 60.09596354168025,
      "v": 101
    },
    {
      "midi": 67,
      "hit": false,
      "t": 134533.22782291597,
      "d": 62.499802083329996,
      "v": 97
    },
    {
      "midi": 40,
      "hit": false,
      "t": 134540.4393385416,
      "d": 187.49940624999,
      "v": 85
    },
    {
      "midi": 86,
      "hit": false,
      "t": 134742.3617760416,
      "d": 451.9216458333249,
      "v": 89
    },
    {
      "midi": 74,
      "hit": false,
      "t": 134768.80399999992,
      "d": 459.1331614583323,
      "v": 108
    },
    {
      "midi": 43,
      "hit": false,
      "t": 134771.20783854157,
      "d": 370.1911354166805,
      "v": 75
    },
    {
      "midi": 62,
      "hit": false,
      "t": 135011.59169270765,
      "d": 52.8844479166728,
      "v": 99
    },
    {
      "midi": 59,
      "hit": false,
      "t": 135011.59169270765,
      "d": 64.90364062500885,
      "v": 88
    },
    {
      "midi": 67,
      "hit": false,
      "t": 135013.99553124933,
      "d": 62.499802083329996,
      "v": 97
    },
    {
      "midi": 72,
      "hit": false,
      "t": 135199.09109895825,
      "d": 81.7305104166735,
      "v": 94
    },
    {
      "midi": 84,
      "hit": false,
      "t": 135199.09109895825,
      "d": 81.7305104166735,
      "v": 94
    },
    {
      "midi": 38,
      "hit": false,
      "t": 135232.74483854158,
      "d": 343.74891145832953,
      "v": 73
    },
    {
      "midi": 83,
      "hit": false,
      "t": 135444.28263020827,
      "d": 64.90364062500885,
      "v": 97
    },
    {
      "midi": 71,
      "hit": false,
      "t": 135444.28263020827,
      "d": 67.3074791666877,
      "v": 97
    },
    {
      "midi": 59,
      "hit": false,
      "t": 135453.8979843743,
      "d": 64.90364062503795,
      "v": 90
    },
    {
      "midi": 67,
      "hit": false,
      "t": 135453.8979843743,
      "d": 64.90364062503795,
      "v": 101
    },
    {
      "midi": 62,
      "hit": false,
      "t": 135456.301822916,
      "d": 60.09596354168025,
      "v": 101
    },
    {
      "midi": 72,
      "hit": false,
      "t": 135660.6280989583,
      "d": 240.3838541666628,
      "v": 113
    },
    {
      "midi": 84,
      "hit": false,
      "t": 135660.6280989583,
      "d": 240.3838541666628,
      "v": 113
    },
    {
      "midi": 43,
      "hit": false,
      "t": 135694.28183854156,
      "d": 374.9988125000091,
      "v": 79
    },
    {
      "midi": 71,
      "hit": false,
      "t": 135886.58892187497,
      "d": 72.1151562499872,
      "v": 94
    },
    {
      "midi": 83,
      "hit": false,
      "t": 135886.58892187497,
      "d": 72.1151562499872,
      "v": 94
    },
    {
      "midi": 62,
      "hit": false,
      "t": 135910.62730729103,
      "d": 50.48060937502305,
      "v": 101
    },
    {
      "midi": 67,
      "hit": false,
      "t": 135910.62730729103,
      "d": 64.90364062500885,
      "v": 99
    },
    {
      "midi": 59,
      "hit": false,
      "t": 135913.0311458327,
      "d": 48.0767708333442,
      "v": 90
    },
    {
      "midi": 67,
      "hit": false,
      "t": 136107.74206770828,
      "d": 211.5377916666621,
      "v": 116
    },
    {
      "midi": 79,
      "hit": false,
      "t": 136107.74206770828,
      "d": 211.5377916666621,
      "v": 116
    },
    {
      "midi": 38,
      "hit": false,
      "t": 136155.81883854157,
      "d": 343.74891145832953,
      "v": 72
    },
    {
      "midi": 64,
      "hit": false,
      "t": 136331.29905208328,
      "d": 79.32667187502375,
      "v": 112
    },
    {
      "midi": 76,
      "hit": false,
      "t": 136333.70289062496,
      "d": 76.9228333333449,
      "v": 112
    },
    {
      "midi": 62,
      "hit": false,
      "t": 136362.54895312438,
      "d": 64.90364062500885,
      "v": 101
    },
    {
      "midi": 67,
      "hit": false,
      "t": 136362.54895312438,
      "d": 79.32667187499464,
      "v": 101
    },
    {
      "midi": 59,
      "hit": false,
      "t": 136367.3566302077,
      "d": 60.09596354168025,
      "v": 92
    },
    {
      "midi": 79,
      "hit": false,
      "t": 136559.6637135417,
      "d": 108.17273437499534,
      "v": 123
    },
    {
      "midi": 67,
      "hit": false,
      "t": 136574.08674479165,
      "d": 72.1151562499872,
      "v": 107
    },
    {
      "midi": 79,
      "hit": false,
      "t": 136574.08674479165,
      "d": 72.1151562499872,
      "v": 107
    },
    {
      "midi": 72,
      "hit": false,
      "t": 136578.89442187504,
      "d": 72.1151562499872,
      "v": 109
    },
    {
      "midi": 36,
      "hit": false,
      "t": 136617.35583854155,
      "d": 374.9988125000091,
      "v": 79
    },
    {
      "midi": 67,
      "hit": false,
      "t": 136795.23989062497,
      "d": 331.7297187499935,
      "v": 116
    },
    {
      "midi": 79,
      "hit": false,
      "t": 136795.23989062497,
      "d": 331.7297187499935,
      "v": 116
    },
    {
      "midi": 79,
      "hit": false,
      "t": 136814.47059895835,
      "d": 223.55698437496903,
      "v": 114
    },
    {
      "midi": 64,
      "hit": false,
      "t": 136819.27827604103,
      "d": 62.499802083329996,
      "v": 99
    },
    {
      "midi": 60,
      "hit": false,
      "t": 136819.27827604103,
      "d": 64.90364062500885,
      "v": 88
    },
    {
      "midi": 67,
      "hit": false,
      "t": 136819.27827604103,
      "d": 64.90364062500885,
      "v": 99
    },
    {
      "midi": 72,
      "hit": false,
      "t": 136828.89363020833,
      "d": 170.67253645832534,
      "v": 96
    },
    {
      "midi": 38,
      "hit": false,
      "t": 137078.89283854156,
      "d": 331.7297187499935,
      "v": 74
    },
    {
      "midi": 60,
      "hit": false,
      "t": 137285.62295312437,
      "d": 52.8844479166728,
      "v": 90
    },
    {
      "midi": 64,
      "hit": false,
      "t": 137285.62295312437,
      "d": 52.8844479166728,
      "v": 94
    },
    {
      "midi": 67,
      "hit": false,
      "t": 137288.02679166605,
      "d": 62.499802083329996,
      "v": 97
    },
    {
      "midi": 71,
      "hit": false,
      "t": 137295.23830729164,
      "d": 96.1535416666593,
      "v": 114
    },
    {
      "midi": 79,
      "hit": false,
      "t": 137295.23830729164,
      "d": 124.99960416665999,
      "v": 127
    },
    {
      "midi": 67,
      "hit": false,
      "t": 137304.8536614583,
      "d": 96.1535416666593,
      "v": 116
    },
    {
      "midi": 79,
      "hit": false,
      "t": 137304.8536614583,
      "d": 96.1535416666593,
      "v": 116
    },
    {
      "midi": 43,
      "hit": false,
      "t": 137540.42983854155,
      "d": 406.2487135416595,
      "v": 85
    },
    {
      "midi": 59,
      "hit": false,
      "t": 137742.35227604106,
      "d": 62.4998020833591,
      "v": 90
    },
    {
      "midi": 67,
      "hit": false,
      "t": 137742.35227604106,
      "d": 64.90364062503795,
      "v": 99
    },
    {
      "midi": 62,
      "hit": false,
      "t": 137744.75611458273,
      "d": 60.09596354168025,
      "v": 101
    },
    {
      "midi": 38,
      "hit": false,
      "t": 138001.96683854153,
      "d": 163.461020833347,
      "v": 86
    },
    {
      "midi": 62,
      "hit": false,
      "t": 138208.69695312442,
      "d": 52.8844479166728,
      "v": 97
    },
    {
      "midi": 67,
      "hit": false,
      "t": 138208.69695312442,
      "d": 64.90364062500885,
      "v": 101
    },
    {
      "midi": 59,
      "hit": false,
      "t": 138213.50463020775,
      "d": 48.0767708333442,
      "v": 88
    },
    {
      "midi": 40,
      "hit": false,
      "t": 138232.73533854153,
      "d": 187.49940624999,
      "v": 88
    },
    {
      "midi": 43,
      "hit": false,
      "t": 138463.5038385415,
      "d": 382.2103281249874,
      "v": 85
    },
    {
      "midi": 79,
      "hit": false,
      "t": 138482.73454687503,
      "d": 2939.894536458334,
      "v": 113
    },
    {
      "midi": 62,
      "hit": false,
      "t": 138689.46466145778,
      "d": 69.71131770830834,
      "v": 92
    },
    {
      "midi": 67,
      "hit": false,
      "t": 138689.46466145778,
      "d": 79.32667187496554,
      "v": 90
    },
    {
      "midi": 59,
      "hit": false,
      "t": 138694.2723385411,
      "d": 43.269093749986496,
      "v": 83
    },
    {
      "midi": 38,
      "hit": false,
      "t": 138925.0408385415,
      "d": 341.3450729166798,
      "v": 76
    },
    {
      "midi": 67,
      "hit": false,
      "t": 139131.77095312442,
      "d": 62.4998020833591,
      "v": 94
    },
    {
      "midi": 59,
      "hit": false,
      "t": 139134.1747916661,
      "d": 57.6921250000014,
      "v": 85
    },
    {
      "midi": 62,
      "hit": false,
      "t": 139134.1747916661,
      "d": 57.6921250000014,
      "v": 99
    },
    {
      "midi": 43,
      "hit": false,
      "t": 139386.5778385415,
      "d": 343.74891145832953,
      "v": 79
    },
    {
      "midi": 62,
      "hit": false,
      "t": 139598.1156302078,
      "d": 67.3074791666877,
      "v": 101
    },
    {
      "midi": 67,
      "hit": false,
      "t": 139598.1156302078,
      "d": 67.3074791666877,
      "v": 97
    },
    {
      "midi": 59,
      "hit": false,
      "t": 139600.51946874947,
      "d": 62.499802083329996,
      "v": 86
    },
    {
      "midi": 38,
      "hit": false,
      "t": 139848.11483854149,
      "d": 358.17194270834443,
      "v": 79
    },
    {
      "midi": 59,
      "hit": false,
      "t": 140069.26798437448,
      "d": 52.8844479166728,
      "v": 88
    },
    {
      "midi": 62,
      "hit": false,
      "t": 140069.26798437448,
      "d": 52.8844479166728,
      "v": 101
    },
    {
      "midi": 67,
      "hit": false,
      "t": 140071.67182291616,
      "d": 62.499802083329996,
      "v": 99
    },
    {
      "midi": 36,
      "hit": false,
      "t": 140309.6518385415,
      "d": 360.5757812499942,
      "v": 80
    },
    {
      "midi": 67,
      "hit": false,
      "t": 140521.18963020784,
      "d": 64.90364062500885,
      "v": 97
    },
    {
      "midi": 64,
      "hit": false,
      "t": 140521.18963020784,
      "d": 67.3074791666877,
      "v": 101
    },
    {
      "midi": 60,
      "hit": false,
      "t": 140525.99730729117,
      "d": 60.09596354168025,
      "v": 90
    },
    {
      "midi": 38,
      "hit": false,
      "t": 140771.18883854148,
      "d": 374.9988125000091,
      "v": 85
    },
    {
      "midi": 60,
      "hit": false,
      "t": 140992.34198437454,
      "d": 60.09596354168025,
      "v": 92
    },
    {
      "midi": 67,
      "hit": false,
      "t": 140992.34198437454,
      "d": 64.90364062500885,
      "v": 97
    },
    {
      "midi": 64,
      "hit": false,
      "t": 140994.74582291621,
      "d": 50.480609374993946,
      "v": 101
    },
    {
      "midi": 83,
      "hit": false,
      "t": 140997.1496614583,
      "d": 168.2686979166756,
      "v": 120
    },
    {
      "midi": 71,
      "hit": false,
      "t": 140997.1496614583,
      "d": 182.6917291666614,
      "v": 107
    },
    {
      "midi": 43,
      "hit": false,
      "t": 141232.7258385415,
      "d": 374.9988125000091,
      "v": 82
    },
    {
      "midi": 74,
      "hit": false,
      "t": 141410.60989062503,
      "d": 346.1527500000084,
      "v": 74
    },
    {
      "midi": 67,
      "hit": false,
      "t": 141458.68666145788,
      "d": 55.288286458322546,
      "v": 99
    },
    {
      "midi": 59,
      "hit": false,
      "t": 141463.4943385412,
      "d": 45.67293229166535,
      "v": 90
    },
    {
      "midi": 62,
      "hit": false,
      "t": 141463.4943385412,
      "d": 45.67293229166535,
      "v": 104
    },
    {
      "midi": 38,
      "hit": false,
      "t": 141694.2628385415,
      "d": 163.461020833347,
      "v": 83
    },
    {
      "midi": 72,
      "hit": false,
      "t": 141756.76264062503,
      "d": 319.71052604165743,
      "v": 80
    },
    {
      "midi": 62,
      "hit": false,
      "t": 141915.41598437453,
      "d": 60.09596354168025,
      "v": 101
    },
    {
      "midi": 59,
      "hit": false,
      "t": 141915.41598437453,
      "d": 62.4998020833591,
      "v": 88
    },
    {
      "midi": 67,
      "hit": false,
      "t": 141917.8198229162,
      "d": 62.4998020833591,
      "v": 97
    },
    {
      "midi": 40,
      "hit": false,
      "t": 141925.0313385415,
      "d": 187.49940624999,
      "v": 85
    },
    {
      "midi": 71,
      "hit": false,
      "t": 142064.45397395836,
      "d": 2377.396317708335,
      "v": 78
    },
    {
      "midi": 43,
      "hit": false,
      "t": 142155.79983854148,
      "d": 370.1911354166805,
      "v": 75
    },
    {
      "midi": 62,
      "hit": false,
      "t": 142396.1836927079,
      "d": 52.8844479166728,
      "v": 99
    },
    {
      "midi": 59,
      "hit": false,
      "t": 142396.1836927079,
      "d": 64.90364062500885,
      "v": 88
    },
    {
      "midi": 67,
      "hit": false,
      "t": 142398.5875312496,
      "d": 62.499802083329996,
      "v": 97
    },
    {
      "midi": 38,
      "hit": false,
      "t": 142617.3368385415,
      "d": 343.74891145832953,
      "v": 73
    },
    {
      "midi": 59,
      "hit": false,
      "t": 142838.48998437458,
      "d": 64.90364062500885,
      "v": 90
    },
    {
      "midi": 67,
      "hit": false,
      "t": 142838.48998437458,
      "d": 64.90364062500885,
      "v": 101
    },
    {
      "midi": 62,
      "hit": false,
      "t": 142840.89382291626,
      "d": 57.6921250000014,
      "v": 101
    },
    {
      "midi": 43,
      "hit": false,
      "t": 143078.87383854148,
      "d": 374.9988125000091,
      "v": 79
    },
    {
      "midi": 62,
      "hit": false,
      "t": 143295.21930729126,
      "d": 48.0767708333442,
      "v": 101
    },
    {
      "midi": 67,
      "hit": false,
      "t": 143295.21930729126,
      "d": 64.90364062500885,
      "v": 99
    },
    {
      "midi": 59,
      "hit": false,
      "t": 143297.62314583294,
      "d": 45.67293229166535,
      "v": 90
    },
    {
      "midi": 38,
      "hit": false,
      "t": 143540.4108385415,
      "d": 343.74891145832953,
      "v": 72
    },
    {
      "midi": 62,
      "hit": false,
      "t": 143747.14095312462,
      "d": 67.3074791666586,
      "v": 101
    },
    {
      "midi": 67,
      "hit": false,
      "t": 143747.14095312462,
      "d": 79.32667187499464,
      "v": 101
    },
    {
      "midi": 59,
      "hit": false,
      "t": 143751.94863020795,
      "d": 62.499802083329996,
      "v": 92
    },
    {
      "midi": 36,
      "hit": false,
      "t": 144001.94783854147,
      "d": 374.9988125000091,
      "v": 79
    },
    {
      "midi": 60,
      "hit": false,
      "t": 144203.87027604127,
      "d": 64.90364062503795,
      "v": 88
    },
    {
      "midi": 67,
      "hit": false,
      "t": 144203.87027604127,
      "d": 64.90364062503795,
      "v": 99
    },
    {
      "midi": 64,
      "hit": false,
      "t": 144206.27411458295,
      "d": 60.09596354168025,
      "v": 99
    },
    {
      "midi": 38,
      "hit": false,
      "t": 144463.48483854148,
      "d": 331.7297187499935,
      "v": 74
    },
    {
      "midi": 60,
      "hit": false,
      "t": 144670.21495312464,
      "d": 52.8844479166728,
      "v": 90
    },
    {
      "midi": 64,
      "hit": false,
      "t": 144670.21495312464,
      "d": 52.8844479166728,
      "v": 94
    },
    {
      "midi": 67,
      "hit": false,
      "t": 144672.61879166632,
      "d": 62.499802083329996,
      "v": 97
    },
    {
      "midi": 71,
      "hit": false,
      "t": 144679.83030729162,
      "d": 96.1535416666593,
      "v": 114
    },
    {
      "midi": 79,
      "hit": false,
      "t": 144679.83030729162,
      "d": 124.99960416665999,
      "v": 127
    },
    {
      "midi": 43,
      "hit": false,
      "t": 144925.02183854146,
      "d": 413.460229166667,
      "v": 85
    },
    {
      "midi": 59,
      "hit": false,
      "t": 145126.94427604132,
      "d": 62.4998020833591,
      "v": 90
    },
    {
      "midi": 67,
      "hit": false,
      "t": 145126.94427604132,
      "d": 64.90364062503795,
      "v": 99
    },
    {
      "midi": 62,
      "hit": false,
      "t": 145129.348114583,
      "d": 60.09596354168025,
      "v": 101
    },
    {
      "midi": 38,
      "hit": false,
      "t": 145386.55883854147,
      "d": 163.461020833347,
      "v": 86
    },
    {
      "midi": 62,
      "hit": false,
      "t": 145593.2889531247,
      "d": 52.8844479166728,
      "v": 97
    },
    {
      "midi": 67,
      "hit": false,
      "t": 145593.2889531247,
      "d": 64.90364062500885,
      "v": 101
    },
    {
      "midi": 59,
      "hit": false,
      "t": 145598.09663020802,
      "d": 48.0767708333442,
      "v": 88
    },
    {
      "midi": 40,
      "hit": false,
      "t": 145617.32733854148,
      "d": 187.49940624999,
      "v": 88
    },
    {
      "midi": 79,
      "hit": false,
      "t": 145819.2497760417,
      "d": 2975.9521145833423,
      "v": 100
    },
    {
      "midi": 43,
      "hit": false,
      "t": 145848.09583854146,
      "d": 382.2103281249874,
      "v": 85
    },
    {
      "midi": 62,
      "hit": false,
      "t": 146074.05666145805,
      "d": 69.71131770833745,
      "v": 92
    },
    {
      "midi": 67,
      "hit": false,
      "t": 146074.05666145805,
      "d": 79.32667187499464,
      "v": 90
    },
    {
      "midi": 59,
      "hit": false,
      "t": 146078.86433854137,
      "d": 40.86525520833675,
      "v": 83
    },
    {
      "midi": 38,
      "hit": false,
      "t": 146309.63283854144,
      "d": 341.3450729166798,
      "v": 76
    },
    {
      "midi": 59,
      "hit": false,
      "t": 146516.3629531247,
      "d": 60.09596354168025,
      "v": 85
    },
    {
      "midi": 67,
      "hit": false,
      "t": 146516.3629531247,
      "d": 64.90364062500885,
      "v": 94
    },
    {
      "midi": 62,
      "hit": false,
      "t": 146518.7667916664,
      "d": 57.6921250000014,
      "v": 99
    },
    {
      "midi": 43,
      "hit": false,
      "t": 146771.16983854145,
      "d": 343.74891145832953,
      "v": 79
    },
    {
      "midi": 62,
      "hit": false,
      "t": 146982.70763020805,
      "d": 67.3074791667168,
      "v": 101
    },
    {
      "midi": 67,
      "hit": false,
      "t": 146985.11146874973,
      "d": 62.4998020833591,
      "v": 97
    },
    {
      "midi": 59,
      "hit": false,
      "t": 146987.5153072914,
      "d": 60.09596354168025,
      "v": 86
    },
    {
      "midi": 38,
      "hit": false,
      "t": 147232.70683854143,
      "d": 360.5757812499942,
      "v": 79
    },
    {
      "midi": 59,
      "hit": false,
      "t": 147453.85998437478,
      "d": 52.8844479166728,
      "v": 88
    },
    {
      "midi": 62,
      "hit": false,
      "t": 147453.85998437478,
      "d": 52.8844479166728,
      "v": 101
    },
    {
      "midi": 67,
      "hit": false,
      "t": 147456.26382291646,
      "d": 62.499802083329996,
      "v": 99
    },
    {
      "midi": 36,
      "hit": false,
      "t": 147694.2438385414,
      "d": 360.5757812499942,
      "v": 80
    },
    {
      "midi": 64,
      "hit": false,
      "t": 147905.78163020813,
      "d": 67.3074791666877,
      "v": 101
    },
    {
      "midi": 67,
      "hit": false,
      "t": 147905.78163020813,
      "d": 67.3074791666877,
      "v": 97
    },
    {
      "midi": 60,
      "hit": false,
      "t": 147910.58930729146,
      "d": 60.09596354168025,
      "v": 90
    },
    {
      "midi": 38,
      "hit": false,
      "t": 148155.7808385414,
      "d": 374.9988125000091,
      "v": 85
    },
    {
      "midi": 60,
      "hit": false,
      "t": 148376.93398437483,
      "d": 60.09596354168025,
      "v": 92
    },
    {
      "midi": 67,
      "hit": false,
      "t": 148376.93398437483,
      "d": 64.90364062500885,
      "v": 97
    },
    {
      "midi": 64,
      "hit": false,
      "t": 148379.3378229165,
      "d": 48.0767708333442,
      "v": 101
    },
    {
      "midi": 83,
      "hit": false,
      "t": 148381.74166145828,
      "d": 168.2686979166756,
      "v": 120
    },
    {
      "midi": 71,
      "hit": false,
      "t": 148381.74166145828,
      "d": 182.6917291666614,
      "v": 107
    },
    {
      "midi": 43,
      "hit": false,
      "t": 148617.3178385414,
      "d": 374.9988125000091,
      "v": 82
    },
    {
      "midi": 71,
      "hit": false,
      "t": 148814.43259895837,
      "d": 423.0755833333242,
      "v": 79
    },
    {
      "midi": 67,
      "hit": false,
      "t": 148843.27866145817,
      "d": 55.28828645835165,
      "v": 99
    },
    {
      "midi": 62,
      "hit": false,
      "t": 148848.0863385415,
      "d": 45.67293229166535,
      "v": 104
    },
    {
      "midi": 59,
      "hit": false,
      "t": 148848.0863385415,
      "d": 48.0767708333442,
      "v": 90
    },
    {
      "midi": 38,
      "hit": false,
      "t": 149078.85483854142,
      "d": 163.461020833347,
      "v": 83
    },
    {
      "midi": 74,
      "hit": false,
      "t": 149237.5081822917,
      "d": 290.86446354165673,
      "v": 70
    },
    {
      "midi": 59,
      "hit": false,
      "t": 149300.00798437485,
      "d": 60.09596354168025,
      "v": 88
    },
    {
      "midi": 62,
      "hit": false,
      "t": 149300.00798437485,
      "d": 60.09596354168025,
      "v": 101
    },
    {
      "midi": 67,
      "hit": false,
      "t": 149302.41182291653,
      "d": 62.499802083329996,
      "v": 97
    },
    {
      "midi": 40,
      "hit": false,
      "t": 149309.62333854142,
      "d": 187.49940624999,
      "v": 85
    },
    {
      "midi": 43,
      "hit": false,
      "t": 149540.3918385414,
      "d": 370.1911354166805,
      "v": 75
    },
    {
      "midi": 67,
      "hit": false,
      "t": 149542.79567708334,
      "d": 2007.2051822916546,
      "v": 76
    },
    {
      "midi": 62,
      "hit": false,
      "t": 149780.7756927082,
      "d": 52.8844479166728,
      "v": 99
    },
    {
      "midi": 59,
      "hit": false,
      "t": 149780.7756927082,
      "d": 64.90364062500885,
      "v": 88
    },
    {
      "midi": 67,
      "hit": false,
      "t": 149783.1795312499,
      "d": 62.499802083329996,
      "v": 97
    },
    {
      "midi": 38,
      "hit": false,
      "t": 150001.9288385414,
      "d": 343.74891145832953,
      "v": 73
    },
    {
      "midi": 59,
      "hit": false,
      "t": 150223.08198437488,
      "d": 64.90364062500885,
      "v": 90
    },
    {
      "midi": 67,
      "hit": false,
      "t": 150223.08198437488,
      "d": 64.90364062500885,
      "v": 101
    },
    {
      "midi": 62,
      "hit": false,
      "t": 150225.48582291655,
      "d": 57.6921250000014,
      "v": 101
    },
    {
      "midi": 43,
      "hit": false,
      "t": 150463.4658385414,
      "d": 374.9988125000091,
      "v": 79
    },
    {
      "midi": 62,
      "hit": false,
      "t": 150679.81130729156,
      "d": 48.0767708333442,
      "v": 101
    },
    {
      "midi": 67,
      "hit": false,
      "t": 150679.81130729156,
      "d": 64.90364062500885,
      "v": 99
    },
    {
      "midi": 59,
      "hit": false,
      "t": 150682.21514583324,
      "d": 45.67293229166535,
      "v": 90
    },
    {
      "midi": 38,
      "hit": false,
      "t": 150925.0028385414,
      "d": 343.74891145832953,
      "v": 72
    },
    {
      "midi": 62,
      "hit": false,
      "t": 151131.7329531249,
      "d": 67.3074791666877,
      "v": 101
    },
    {
      "midi": 67,
      "hit": false,
      "t": 151131.7329531249,
      "d": 79.32667187502375,
      "v": 101
    },
    {
      "midi": 59,
      "hit": false,
      "t": 151136.54063020824,
      "d": 60.09596354168025,
      "v": 92
    },
    {
      "midi": 79,
      "hit": false,
      "t": 151328.84771354162,
      "d": 105.76889583331649,
      "v": 123
    },
    {
      "midi": 72,
      "hit": false,
      "t": 151348.07842187496,
      "d": 72.1151562499872,
      "v": 109
    },
    {
      "midi": 36,
      "hit": false,
      "t": 151386.5398385414,
      "d": 372.59497395833023,
      "v": 79
    },
    {
      "midi": 79,
      "hit": false,
      "t": 151583.65459895827,
      "d": 223.55698437496903,
      "v": 114
    },
    {
      "midi": 60,
      "hit": false,
      "t": 151588.4622760416,
      "d": 64.90364062503795,
      "v": 88
    },
    {
      "midi": 67,
      "hit": false,
      "t": 151588.4622760416,
      "d": 64.90364062503795,
      "v": 99
    },
    {
      "midi": 64,
      "hit": false,
      "t": 151590.86611458327,
      "d": 60.09596354168025,
      "v": 99
    },
    {
      "midi": 72,
      "hit": false,
      "t": 151598.07763020825,
      "d": 170.67253645832534,
      "v": 96
    },
    {
      "midi": 38,
      "hit": false,
      "t": 151848.0768385414,
      "d": 331.7297187499935,
      "v": 74
    },
    {
      "midi": 60,
      "hit": false,
      "t": 152054.80695312496,
      "d": 52.8844479166728,
      "v": 90
    },
    {
      "midi": 64,
      "hit": false,
      "t": 152054.80695312496,
      "d": 52.8844479166728,
      "v": 94
    },
    {
      "midi": 67,
      "hit": false,
      "t": 152057.21079166664,
      "d": 62.499802083329996,
      "v": 97
    },
    {
      "midi": 71,
      "hit": false,
      "t": 152064.42230729156,
      "d": 96.1535416666593,
      "v": 114
    },
    {
      "midi": 79,
      "hit": false,
      "t": 152064.42230729156,
      "d": 124.99960416665999,
      "v": 127
    },
    {
      "midi": 43,
      "hit": false,
      "t": 152309.61383854138,
      "d": 413.460229166667,
      "v": 85
    },
    {
      "midi": 59,
      "hit": false,
      "t": 152511.53627604165,
      "d": 62.4998020833591,
      "v": 90
    },
    {
      "midi": 67,
      "hit": false,
      "t": 152511.53627604165,
      "d": 64.90364062503795,
      "v": 99
    },
    {
      "midi": 62,
      "hit": false,
      "t": 152513.94011458333,
      "d": 60.09596354168025,
      "v": 101
    },
    {
      "midi": 38,
      "hit": false,
      "t": 152771.1508385414,
      "d": 163.461020833347,
      "v": 86
    },
    {
      "midi": 62,
      "hit": false,
      "t": 152977.88095312502,
      "d": 52.8844479166728,
      "v": 97
    },
    {
      "midi": 67,
      "hit": false,
      "t": 152977.88095312502,
      "d": 64.90364062500885,
      "v": 101
    },
    {
      "midi": 59,
      "hit": false,
      "t": 152982.68863020834,
      "d": 48.0767708333442,
      "v": 88
    },
    {
      "midi": 40,
      "hit": false,
      "t": 153001.9193385414,
      "d": 187.49940624999,
      "v": 88
    },
    {
      "midi": 43,
      "hit": false,
      "t": 153232.68783854137,
      "d": 382.2103281249874,
      "v": 85
    },
    {
      "midi": 62,
      "hit": false,
      "t": 153458.64866145837,
      "d": 69.71131770833745,
      "v": 92
    },
    {
      "midi": 67,
      "hit": false,
      "t": 153458.64866145837,
      "d": 79.32667187499464,
      "v": 90
    },
    {
      "midi": 59,
      "hit": false,
      "t": 153463.4563385417,
      "d": 40.86525520833675,
      "v": 83
    },
    {
      "midi": 38,
      "hit": false,
      "t": 153694.22483854135,
      "d": 341.3450729166798,
      "v": 76
    },
    {
      "midi": 59,
      "hit": false,
      "t": 153900.95495312504,
      "d": 60.09596354168025,
      "v": 85
    },
    {
      "midi": 62,
      "hit": false,
      "t": 153900.95495312504,
      "d": 60.09596354168025,
      "v": 99
    },
    {
      "midi": 67,
      "hit": false,
      "t": 153900.95495312504,
      "d": 62.4998020833591,
      "v": 94
    },
    {
      "midi": 43,
      "hit": false,
      "t": 154155.76183854137,
      "d": 343.74891145832953,
      "v": 79
    },
    {
      "midi": 62,
      "hit": false,
      "t": 154367.2996302084,
      "d": 67.3074791666877,
      "v": 101
    },
    {
      "midi": 67,
      "hit": false,
      "t": 154367.2996302084,
      "d": 67.3074791666877,
      "v": 97
    },
    {
      "midi": 59,
      "hit": false,
      "t": 154369.7034687501,
      "d": 62.499802083329996,
      "v": 86
    },
    {
      "midi": 38,
      "hit": false,
      "t": 154617.29883854135,
      "d": 358.17194270834443,
      "v": 79
    },
    {
      "midi": 59,
      "hit": false,
      "t": 154838.4519843751,
      "d": 52.8844479166728,
      "v": 88
    },
    {
      "midi": 62,
      "hit": false,
      "t": 154838.4519843751,
      "d": 52.8844479166728,
      "v": 101
    },
    {
      "midi": 67,
      "hit": false,
      "t": 154840.85582291678,
      "d": 62.499802083329996,
      "v": 99
    },
    {
      "midi": 72,
      "hit": false,
      "t": 155054.7974531249,
      "d": 60.09596354168025,
      "v": 102
    },
    {
      "midi": 67,
      "hit": false,
      "t": 155054.7974531249,
      "d": 74.51899479166605,
      "v": 95
    },
    {
      "midi": 79,
      "hit": false,
      "t": 155054.7974531249,
      "d": 91.3458645833307,
      "v": 109
    },
    {
      "midi": 36,
      "hit": false,
      "t": 155078.83583854136,
      "d": 360.5757812499942,
      "v": 80
    },
    {
      "midi": 64,
      "hit": false,
      "t": 155290.37363020846,
      "d": 67.3074791666877,
      "v": 101
    },
    {
      "midi": 67,
      "hit": false,
      "t": 155290.37363020846,
      "d": 67.3074791666877,
      "v": 97
    },
    {
      "midi": 67,
      "hit": false,
      "t": 155295.18130729155,
      "d": 216.3454687499907,
      "v": 102
    },
    {
      "midi": 79,
      "hit": false,
      "t": 155295.18130729155,
      "d": 216.3454687499907,
      "v": 117
    },
    {
      "midi": 72,
      "hit": false,
      "t": 155297.58514583323,
      "d": 199.51859895832604,
      "v": 107
    },
    {
      "midi": 60,
      "hit": false,
      "t": 155297.58514583347,
      "d": 57.6921250000014,
      "v": 90
    },
    {
      "midi": 38,
      "hit": false,
      "t": 155540.37283854134,
      "d": 374.9988125000091,
      "v": 85
    },
    {
      "midi": 60,
      "hit": false,
      "t": 155761.52598437516,
      "d": 60.09596354168025,
      "v": 92
    },
    {
      "midi": 67,
      "hit": false,
      "t": 155761.52598437516,
      "d": 64.90364062500885,
      "v": 97
    },
    {
      "midi": 64,
      "hit": false,
      "t": 155763.92982291683,
      "d": 48.0767708333442,
      "v": 101
    },
    {
      "midi": 83,
      "hit": false,
      "t": 155766.33366145822,
      "d": 168.2686979166756,
      "v": 120
    },
    {
      "midi": 71,
      "hit": false,
      "t": 155766.33366145822,
      "d": 182.6917291666614,
      "v": 107
    },
    {
      "midi": 43,
      "hit": false,
      "t": 156001.90983854135,
      "d": 374.9988125000091,
      "v": 82
    },
    {
      "midi": 67,
      "hit": false,
      "t": 156227.8706614585,
      "d": 55.28828645835165,
      "v": 99
    },
    {
      "midi": 59,
      "hit": false,
      "t": 156232.67833854182,
      "d": 48.0767708333442,
      "v": 90
    },
    {
      "midi": 62,
      "hit": false,
      "t": 156232.67833854182,
      "d": 48.0767708333442,
      "v": 104
    },
    {
      "midi": 38,
      "hit": false,
      "t": 156463.44683854136,
      "d": 161.05718229166814,
      "v": 83
    },
    {
      "midi": 62,
      "hit": false,
      "t": 156684.59998437518,
      "d": 60.09596354168025,
      "v": 101
    },
    {
      "midi": 59,
      "hit": false,
      "t": 156684.59998437518,
      "d": 62.4998020833591,
      "v": 88
    },
    {
      "midi": 67,
      "hit": false,
      "t": 156687.00382291686,
      "d": 62.4998020833591,
      "v": 97
    },
    {
      "midi": 40,
      "hit": false,
      "t": 156694.21533854137,
      "d": 187.49940624999,
      "v": 85
    },
    {
      "midi": 43,
      "hit": false,
      "t": 156924.98383854135,
      "d": 370.1911354166805,
      "v": 75
    },
    {
      "midi": 62,
      "hit": false,
      "t": 157165.36769270856,
      "d": 52.8844479166728,
      "v": 99
    },
    {
      "midi": 59,
      "hit": false,
      "t": 157165.36769270856,
      "d": 64.90364062500885,
      "v": 88
    },
    {
      "midi": 67,
      "hit": false,
      "t": 157167.77153125024,
      "d": 62.499802083329996,
      "v": 97
    },
    {
      "midi": 38,
      "hit": false,
      "t": 157386.52083854136,
      "d": 343.74891145832953,
      "v": 73
    },
    {
      "midi": 59,
      "hit": false,
      "t": 157607.67398437523,
      "d": 64.90364062500885,
      "v": 90
    },
    {
      "midi": 67,
      "hit": false,
      "t": 157607.67398437523,
      "d": 64.90364062500885,
      "v": 101
    },
    {
      "midi": 62,
      "hit": false,
      "t": 157610.0778229169,
      "d": 57.6921250000014,
      "v": 101
    },
    {
      "midi": 43,
      "hit": false,
      "t": 157848.05783854134,
      "d": 374.9988125000091,
      "v": 79
    },
    {
      "midi": 62,
      "hit": false,
      "t": 158064.4033072919,
      "d": 48.0767708333442,
      "v": 101
    },
    {
      "midi": 67,
      "hit": false,
      "t": 158064.4033072919,
      "d": 64.90364062500885,
      "v": 99
    },
    {
      "midi": 59,
      "hit": false,
      "t": 158066.8071458336,
      "d": 45.67293229166535,
      "v": 90
    },
    {
      "midi": 38,
      "hit": false,
      "t": 158309.59483854135,
      "d": 343.74891145832953,
      "v": 72
    },
    {
      "midi": 62,
      "hit": false,
      "t": 158516.32495312527,
      "d": 64.90364062500885,
      "v": 101
    },
    {
      "midi": 67,
      "hit": false,
      "t": 158516.32495312527,
      "d": 79.32667187499464,
      "v": 101
    },
    {
      "midi": 59,
      "hit": false,
      "t": 158521.1326302086,
      "d": 60.09596354168025,
      "v": 92
    },
    {
      "midi": 79,
      "hit": false,
      "t": 158713.43971354156,
      "d": 105.76889583331649,
      "v": 123
    },
    {
      "midi": 72,
      "hit": false,
      "t": 158732.6704218749,
      "d": 72.1151562499872,
      "v": 109
    },
    {
      "midi": 36,
      "hit": false,
      "t": 158771.13183854133,
      "d": 374.9988125000091,
      "v": 79
    },
    {
      "midi": 79,
      "hit": false,
      "t": 158965.84276041653,
      "d": 225.96082291664788,
      "v": 114
    },
    {
      "midi": 60,
      "hit": false,
      "t": 158973.05427604192,
      "d": 64.90364062500885,
      "v": 88
    },
    {
      "midi": 67,
      "hit": false,
      "t": 158973.05427604192,
      "d": 64.90364062500885,
      "v": 99
    },
    {
      "midi": 64,
      "hit": false,
      "t": 158975.4581145836,
      "d": 57.6921250000014,
      "v": 99
    },
    {
      "midi": 72,
      "hit": false,
      "t": 158982.6696302082,
      "d": 170.67253645832534,
      "v": 96
    },
    {
      "midi": 38,
      "hit": false,
      "t": 159232.66883854134,
      "d": 331.7297187499935,
      "v": 74
    },
    {
      "midi": 60,
      "hit": false,
      "t": 159439.39895312526,
      "d": 52.8844479166728,
      "v": 90
    },
    {
      "midi": 64,
      "hit": false,
      "t": 159439.39895312526,
      "d": 52.8844479166728,
      "v": 94
    },
    {
      "midi": 67,
      "hit": false,
      "t": 159441.80279166694,
      "d": 62.499802083329996,
      "v": 97
    },
    {
      "midi": 71,
      "hit": false,
      "t": 159449.0143072915,
      "d": 96.1535416666593,
      "v": 114
    },
    {
      "midi": 79,
      "hit": false,
      "t": 159449.0143072915,
      "d": 124.99960416665999,
      "v": 127
    },
    {
      "midi": 43,
      "hit": false,
      "t": 159694.20583854133,
      "d": 413.460229166667,
      "v": 85
    },
    {
      "midi": 59,
      "hit": false,
      "t": 159896.12827604194,
      "d": 62.4998020833591,
      "v": 90
    },
    {
      "midi": 67,
      "hit": false,
      "t": 159896.12827604194,
      "d": 64.90364062503795,
      "v": 99
    },
    {
      "midi": 62,
      "hit": false,
      "t": 159898.53211458362,
      "d": 57.6921250000014,
      "v": 101
    },
    {
      "midi": 38,
      "hit": false,
      "t": 160155.74283854134,
      "d": 163.461020833347,
      "v": 86
    },
    {
      "midi": 62,
      "hit": false,
      "t": 160362.4729531253,
      "d": 52.8844479166728,
      "v": 97
    },
    {
      "midi": 67,
      "hit": false,
      "t": 160362.4729531253,
      "d": 64.90364062500885,
      "v": 101
    },
    {
      "midi": 59,
      "hit": false,
      "t": 160367.28063020864,
      "d": 48.0767708333442,
      "v": 88
    },
    {
      "midi": 40,
      "hit": false,
      "t": 160386.51133854134,
      "d": 185.09556770834024,
      "v": 88
    },
    {
      "midi": 43,
      "hit": false,
      "t": 160617.27983854135,
      "d": 382.2103281249874,
      "v": 85
    },
    {
      "midi": 62,
      "hit": false,
      "t": 160843.24066145867,
      "d": 72.1151562499872,
      "v": 92
    },
    {
      "midi": 67,
      "hit": false,
      "t": 160843.24066145867,
      "d": 79.32667187499464,
      "v": 90
    },
    {
      "midi": 59,
      "hit": false,
      "t": 160848.048338542,
      "d": 40.86525520833675,
      "v": 83
    },
    {
      "midi": 38,
      "hit": false,
      "t": 161078.81683854133,
      "d": 341.3450729166798,
      "v": 76
    },
    {
      "midi": 59,
      "hit": false,
      "t": 161285.54695312533,
      "d": 60.09596354168025,
      "v": 85
    },
    {
      "midi": 67,
      "hit": false,
      "t": 161285.54695312533,
      "d": 62.4998020833591,
      "v": 94
    },
    {
      "midi": 62,
      "hit": false,
      "t": 161287.950791667,
      "d": 57.6921250000014,
      "v": 99
    },
    {
      "midi": 43,
      "hit": false,
      "t": 161540.35383854134,
      "d": 343.74891145832953,
      "v": 79
    },
    {
      "midi": 67,
      "hit": false,
      "t": 161751.8916302087,
      "d": 64.90364062500885,
      "v": 97
    },
    {
      "midi": 62,
      "hit": false,
      "t": 161751.8916302087,
      "d": 67.3074791666877,
      "v": 101
    },
    {
      "midi": 59,
      "hit": false,
      "t": 161756.69930729203,
      "d": 60.09596354168025,
      "v": 86
    },
    {
      "midi": 38,
      "hit": false,
      "t": 162001.89083854132,
      "d": 360.5757812499942,
      "v": 79
    },
    {
      "midi": 62,
      "hit": false,
      "t": 162223.0439843754,
      "d": 50.48060937502305,
      "v": 101
    },
    {
      "midi": 59,
      "hit": false,
      "t": 162223.0439843754,
      "d": 52.8844479167019,
      "v": 88
    },
    {
      "midi": 67,
      "hit": false,
      "t": 162225.44782291708,
      "d": 62.4998020833591,
      "v": 99
    },
    {
      "midi": 72,
      "hit": false,
      "t": 162439.38945312484,
      "d": 60.09596354168025,
      "v": 102
    },
    {
      "midi": 79,
      "hit": false,
      "t": 162439.38945312484,
      "d": 88.94202604165184,
      "v": 109
    },
    {
      "midi": 67,
      "hit": false,
      "t": 162441.79329166652,
      "d": 72.1151562499872,
      "v": 95
    },
    {
      "midi": 36,
      "hit": false,
      "t": 162463.4278385413,
      "d": 360.5757812499942,
      "v": 80
    },
    {
      "midi": 64,
      "hit": false,
      "t": 162674.96563020878,
      "d": 67.3074791666877,
      "v": 101
    },
    {
      "midi": 67,
      "hit": false,
      "t": 162674.96563020878,
      "d": 67.3074791666877,
      "v": 97
    },
    {
      "midi": 79,
      "hit": false,
      "t": 162679.7733072915,
      "d": 216.3454687499907,
      "v": 117
    },
    {
      "midi": 72,
      "hit": false,
      "t": 162682.17714583318,
      "d": 199.51859895832604,
      "v": 107
    },
    {
      "midi": 67,
      "hit": false,
      "t": 162682.17714583318,
      "d": 213.94163020831184,
      "v": 102
    },
    {
      "midi": 60,
      "hit": false,
      "t": 162682.1771458338,
      "d": 60.09596354168025,
      "v": 90
    },
    {
      "midi": 38,
      "hit": false,
      "t": 162924.9648385413,
      "d": 374.9988125000091,
      "v": 85
    },
    {
      "midi": 67,
      "hit": false,
      "t": 163146.11798437548,
      "d": 64.90364062500885,
      "v": 97
    },
    {
      "midi": 64,
      "hit": false,
      "t": 163148.52182291716,
      "d": 48.0767708333442,
      "v": 101
    },
    {
      "midi": 60,
      "hit": false,
      "t": 163148.52182291716,
      "d": 57.6921250000014,
      "v": 92
    },
    {
      "midi": 71,
      "hit": false,
      "t": 163150.92566145817,
      "d": 182.6917291666614,
      "v": 107
    },
    {
      "midi": 83,
      "hit": false,
      "t": 163153.32949999985,
      "d": 165.86485937499674,
      "v": 120
    },
    {
      "midi": 43,
      "hit": false,
      "t": 163386.5018385413,
      "d": 372.59497395833023,
      "v": 82
    },
    {
      "midi": 67,
      "hit": false,
      "t": 163612.46266145882,
      "d": 55.28828645835165,
      "v": 99
    },
    {
      "midi": 62,
      "hit": false,
      "t": 163617.27033854215,
      "d": 45.67293229166535,
      "v": 104
    },
    {
      "midi": 59,
      "hit": false,
      "t": 163617.27033854215,
      "d": 48.0767708333442,
      "v": 90
    },
    {
      "midi": 38,
      "hit": false,
      "t": 163848.0388385413,
      "d": 163.461020833347,
      "v": 83
    },
    {
      "midi": 59,
      "hit": false,
      "t": 164069.1919843755,
      "d": 60.09596354168025,
      "v": 88
    },
    {
      "midi": 62,
      "hit": false,
      "t": 164069.1919843755,
      "d": 60.09596354168025,
      "v": 101
    },
    {
      "midi": 67,
      "hit": false,
      "t": 164071.59582291718,
      "d": 62.499802083329996,
      "v": 97
    },
    {
      "midi": 40,
      "hit": false,
      "t": 164078.80733854132,
      "d": 185.09556770834024,
      "v": 85
    },
    {
      "midi": 43,
      "hit": false,
      "t": 164309.57583854132,
      "d": 370.1911354166805,
      "v": 75
    },
    {
      "midi": 62,
      "hit": false,
      "t": 164549.95969270886,
      "d": 52.8844479166728,
      "v": 99
    },
    {
      "midi": 59,
      "hit": false,
      "t": 164549.95969270886,
      "d": 64.90364062500885,
      "v": 88
    },
    {
      "midi": 67,
      "hit": false,
      "t": 164552.36353125054,
      "d": 62.499802083329996,
      "v": 97
    },
    {
      "midi": 38,
      "hit": false,
      "t": 164771.11283854133,
      "d": 343.74891145832953,
      "v": 73
    },
    {
      "midi": 59,
      "hit": false,
      "t": 164992.26598437552,
      "d": 64.90364062500885,
      "v": 90
    },
    {
      "midi": 67,
      "hit": false,
      "t": 164992.26598437552,
      "d": 64.90364062500885,
      "v": 101
    },
    {
      "midi": 62,
      "hit": false,
      "t": 164994.6698229172,
      "d": 57.6921250000014,
      "v": 101
    },
    {
      "midi": 43,
      "hit": false,
      "t": 165232.6498385413,
      "d": 374.9988125000091,
      "v": 79
    },
    {
      "midi": 62,
      "hit": false,
      "t": 165448.9953072922,
      "d": 48.0767708333442,
      "v": 101
    },
    {
      "midi": 67,
      "hit": false,
      "t": 165448.9953072922,
      "d": 64.90364062500885,
      "v": 99
    },
    {
      "midi": 59,
      "hit": false,
      "t": 165451.3991458339,
      "d": 45.67293229166535,
      "v": 90
    },
    {
      "midi": 38,
      "hit": false,
      "t": 165694.18683854133,
      "d": 343.74891145832953,
      "v": 72
    },
    {
      "midi": 62,
      "hit": false,
      "t": 165900.91695312556,
      "d": 67.3074791666877,
      "v": 101
    },
    {
      "midi": 67,
      "hit": false,
      "t": 165900.91695312556,
      "d": 79.32667187502375,
      "v": 101
    },
    {
      "midi": 59,
      "hit": false,
      "t": 165905.7246302089,
      "d": 60.09596354168025,
      "v": 92
    },
    {
      "midi": 79,
      "hit": false,
      "t": 166098.0317135415,
      "d": 105.76889583331649,
      "v": 123
    },
    {
      "midi": 72,
      "hit": false,
      "t": 166117.26242187485,
      "d": 72.1151562499872,
      "v": 109
    },
    {
      "midi": 36,
      "hit": false,
      "t": 166155.7238385413,
      "d": 374.9988125000091,
      "v": 79
    },
    {
      "midi": 79,
      "hit": false,
      "t": 166352.83859895816,
      "d": 223.55698437496903,
      "v": 114
    },
    {
      "midi": 60,
      "hit": false,
      "t": 166357.64627604224,
      "d": 64.90364062500885,
      "v": 88
    },
    {
      "midi": 67,
      "hit": false,
      "t": 166357.64627604224,
      "d": 64.90364062500885,
      "v": 99
    },
    {
      "midi": 64,
      "hit": false,
      "t": 166360.05011458392,
      "d": 57.6921250000014,
      "v": 99
    },
    {
      "midi": 72,
      "hit": false,
      "t": 166367.26163020814,
      "d": 170.67253645832534,
      "v": 96
    },
    {
      "midi": 38,
      "hit": false,
      "t": 166617.26083854132,
      "d": 331.7297187499935,
      "v": 74
    },
    {
      "midi": 60,
      "hit": false,
      "t": 166823.99095312558,
      "d": 52.8844479166728,
      "v": 90
    },
    {
      "midi": 64,
      "hit": false,
      "t": 166823.99095312558,
      "d": 52.8844479166728,
      "v": 94
    },
    {
      "midi": 67,
      "hit": false,
      "t": 166826.39479166726,
      "d": 62.499802083329996,
      "v": 97
    },
    {
      "midi": 71,
      "hit": false,
      "t": 166833.60630729145,
      "d": 96.1535416666593,
      "v": 114
    },
    {
      "midi": 79,
      "hit": false,
      "t": 166833.60630729145,
      "d": 124.99960416665999,
      "v": 127
    },
    {
      "midi": 43,
      "hit": false,
      "t": 167078.7978385413,
      "d": 413.460229166667,
      "v": 85
    },
    {
      "midi": 59,
      "hit": false,
      "t": 167280.72027604227,
      "d": 62.4998020833591,
      "v": 90
    },
    {
      "midi": 67,
      "hit": false,
      "t": 167280.72027604227,
      "d": 64.90364062503795,
      "v": 99
    },
    {
      "midi": 62,
      "hit": false,
      "t": 167283.12411458394,
      "d": 60.09596354168025,
      "v": 101
    },
    {
      "midi": 38,
      "hit": false,
      "t": 167540.3348385413,
      "d": 161.05718229166814,
      "v": 86
    },
    {
      "midi": 62,
      "hit": false,
      "t": 167747.06495312563,
      "d": 52.8844479166728,
      "v": 97
    },
    {
      "midi": 67,
      "hit": false,
      "t": 167747.06495312563,
      "d": 64.90364062500885,
      "v": 101
    },
    {
      "midi": 59,
      "hit": false,
      "t": 167751.87263020896,
      "d": 48.0767708333442,
      "v": 88
    },
    {
      "midi": 40,
      "hit": false,
      "t": 167771.10333854132,
      "d": 187.49940624999,
      "v": 88
    },
    {
      "midi": 43,
      "hit": false,
      "t": 168001.8718385413,
      "d": 382.2103281249874,
      "v": 85
    },
    {
      "midi": 74,
      "hit": false,
      "t": 168004.2756770833,
      "d": 473.5561927083181,
      "v": 113
    },
    {
      "midi": 86,
      "hit": false,
      "t": 168004.2756770833,
      "d": 473.5561927083181,
      "v": 113
    },
    {
      "midi": 62,
      "hit": false,
      "t": 168227.832661459,
      "d": 72.1151562499872,
      "v": 92
    },
    {
      "midi": 67,
      "hit": false,
      "t": 168227.832661459,
      "d": 79.32667187499464,
      "v": 90
    },
    {
      "midi": 59,
      "hit": false,
      "t": 168232.64033854232,
      "d": 40.86525520833675,
      "v": 83
    },
    {
      "midi": 72,
      "hit": false,
      "t": 168439.37045312495,
      "d": 74.51899479166605,
      "v": 94
    },
    {
      "midi": 84,
      "hit": false,
      "t": 168439.37045312495,
      "d": 74.51899479166605,
      "v": 94
    },
    {
      "midi": 38,
      "hit": false,
      "t": 168463.40883854128,
      "d": 341.3450729166798,
      "v": 76
    },
    {
      "midi": 71,
      "hit": false,
      "t": 168665.33127604163,
      "d": 69.71131770833745,
      "v": 107
    },
    {
      "midi": 83,
      "hit": false,
      "t": 168667.7351145833,
      "d": 67.3074791666586,
      "v": 107
    },
    {
      "midi": 59,
      "hit": false,
      "t": 168670.13895312566,
      "d": 60.09596354168025,
      "v": 85
    },
    {
      "midi": 67,
      "hit": false,
      "t": 168670.13895312566,
      "d": 67.3074791666877,
      "v": 94
    },
    {
      "midi": 62,
      "hit": false,
      "t": 168672.54279166734,
      "d": 57.6921250000014,
      "v": 99
    },
    {
      "midi": 72,
      "hit": false,
      "t": 168896.09977604164,
      "d": 230.76849999997648,
      "v": 110
    },
    {
      "midi": 84,
      "hit": false,
      "t": 168896.09977604164,
      "d": 230.76849999997648,
      "v": 110
    },
    {
      "midi": 43,
      "hit": false,
      "t": 168924.9458385413,
      "d": 343.74891145832953,
      "v": 79
    },
    {
      "midi": 71,
      "hit": false,
      "t": 169112.44524479163,
      "d": 57.69212499997229,
      "v": 91
    },
    {
      "midi": 83,
      "hit": false,
      "t": 169112.44524479163,
      "d": 57.69212499997229,
      "v": 91
    },
    {
      "midi": 67,
      "hit": false,
      "t": 169136.48363020903,
      "d": 64.90364062500885,
      "v": 97
    },
    {
      "midi": 62,
      "hit": false,
      "t": 169136.48363020903,
      "d": 67.3074791666877,
      "v": 101
    },
    {
      "midi": 59,
      "hit": false,
      "t": 169141.29130729235,
      "d": 60.09596354168025,
      "v": 86
    },
    {
      "midi": 67,
      "hit": false,
      "t": 169343.2137447916,
      "d": 252.40304687499884,
      "v": 103
    },
    {
      "midi": 79,
      "hit": false,
      "t": 169343.2137447916,
      "d": 252.40304687499884,
      "v": 103
    },
    {
      "midi": 38,
      "hit": false,
      "t": 169386.48283854127,
      "d": 360.5757812499942,
      "v": 79
    },
    {
      "midi": 64,
      "hit": false,
      "t": 169593.21295312492,
      "d": 69.71131770833745,
      "v": 97
    },
    {
      "midi": 76,
      "hit": false,
      "t": 169593.21295312492,
      "d": 69.71131770833745,
      "v": 97
    },
    {
      "midi": 62,
      "hit": false,
      "t": 169605.23214583404,
      "d": 52.8844479166728,
      "v": 101
    },
    {
      "midi": 59,
      "hit": false,
      "t": 169605.23214583404,
      "d": 55.28828645835165,
      "v": 88
    },
    {
      "midi": 67,
      "hit": false,
      "t": 169607.63598437572,
      "d": 64.90364062500885,
      "v": 99
    },
    {
      "midi": 67,
      "hit": false,
      "t": 169814.36609895827,
      "d": 57.6921250000014,
      "v": 115
    },
    {
      "midi": 79,
      "hit": false,
      "t": 169816.76993749995,
      "d": 55.288286458322546,
      "v": 115
    },
    {
      "midi": 72,
      "hit": false,
      "t": 169823.98145312478,
      "d": 60.09596354168025,
      "v": 102
    },
    {
      "midi": 79,
      "hit": false,
      "t": 169823.98145312478,
      "d": 91.3458645833307,
      "v": 109
    },
    {
      "midi": 67,
      "hit": false,
      "t": 169826.38529166646,
      "d": 72.1151562499872,
      "v": 95
    },
    {
      "midi": 36,
      "hit": false,
      "t": 169848.01983854125,
      "d": 360.5757812499942,
      "v": 80
    },
    {
      "midi": 67,
      "hit": false,
      "t": 170054.74995312493,
      "d": 305.28749479167163,
      "v": 113
    },
    {
      "midi": 79,
      "hit": false,
      "t": 170057.1537916666,
      "d": 302.8836562499928,
      "v": 113
    },
    {
      "midi": 67,
      "hit": false,
      "t": 170059.55763020908,
      "d": 64.90364062500885,
      "v": 97
    },
    {
      "midi": 64,
      "hit": false,
      "t": 170059.55763020908,
      "d": 67.3074791666877,
      "v": 101
    },
    {
      "midi": 67,
      "hit": false,
      "t": 170064.36530729145,
      "d": 216.3454687499907,
      "v": 102
    },
    {
      "midi": 79,
      "hit": false,
      "t": 170064.36530729145,
      "d": 216.3454687499907,
      "v": 117
    },
    {
      "midi": 72,
      "hit": false,
      "t": 170066.76914583312,
      "d": 199.51859895832604,
      "v": 107
    },
    {
      "midi": 60,
      "hit": false,
      "t": 170066.76914583409,
      "d": 57.6921250000014,
      "v": 90
    },
    {
      "midi": 38,
      "hit": false,
      "t": 170309.55683854123,
      "d": 374.9988125000091,
      "v": 85
    },
    {
      "midi": 60,
      "hit": false,
      "t": 170530.70998437578,
      "d": 60.09596354168025,
      "v": 92
    },
    {
      "midi": 67,
      "hit": false,
      "t": 170530.70998437578,
      "d": 64.90364062500885,
      "v": 97
    },
    {
      "midi": 64,
      "hit": false,
      "t": 170533.11382291745,
      "d": 48.0767708333442,
      "v": 101
    },
    {
      "midi": 71,
      "hit": false,
      "t": 170535.5176614581,
      "d": 182.6917291666614,
      "v": 107
    },
    {
      "midi": 83,
      "hit": false,
      "t": 170537.9214999998,
      "d": 165.86485937499674,
      "v": 120
    },
    {
      "midi": 71,
      "hit": false,
      "t": 170540.32533854162,
      "d": 110.5765729166742,
      "v": 117
    },
    {
      "midi": 83,
      "hit": false,
      "t": 170542.7291770833,
      "d": 108.17273437499534,
      "v": 117
    },
    {
      "midi": 43,
      "hit": false,
      "t": 170771.09383854124,
      "d": 374.9988125000091,
      "v": 82
    },
    {
      "midi": 67,
      "hit": false,
      "t": 170997.05466145911,
      "d": 55.288286458322546,
      "v": 99
    },
    {
      "midi": 59,
      "hit": false,
      "t": 171001.86233854244,
      "d": 45.67293229166535,
      "v": 90
    },
    {
      "midi": 62,
      "hit": false,
      "t": 171001.86233854244,
      "d": 45.67293229166535,
      "v": 104
    },
    {
      "midi": 38,
      "hit": false,
      "t": 171232.63083854126,
      "d": 163.461020833347,
      "v": 83
    },
    {
      "midi": 62,
      "hit": false,
      "t": 171453.78398437577,
      "d": 60.09596354168025,
      "v": 101
    },
    {
      "midi": 59,
      "hit": false,
      "t": 171453.78398437577,
      "d": 62.4998020833591,
      "v": 88
    },
    {
      "midi": 67,
      "hit": false,
      "t": 171456.18782291745,
      "d": 62.4998020833591,
      "v": 97
    },
    {
      "midi": 40,
      "hit": false,
      "t": 171463.39933854126,
      "d": 187.49940624999,
      "v": 85
    },
    {
      "midi": 74,
      "hit": false,
      "t": 171665.32177604162,
      "d": 499.9984166666691,
      "v": 107
    },
    {
      "midi": 86,
      "hit": false,
      "t": 171665.32177604162,
      "d": 499.9984166666691,
      "v": 107
    },
    {
      "midi": 43,
      "hit": false,
      "t": 171694.16783854124,
      "d": 370.1911354166805,
      "v": 75
    },
    {
      "midi": 62,
      "hit": false,
      "t": 171934.55169270915,
      "d": 52.8844479166728,
      "v": 99
    },
    {
      "midi": 59,
      "hit": false,
      "t": 171934.55169270915,
      "d": 64.90364062500885,
      "v": 88
    },
    {
      "midi": 67,
      "hit": false,
      "t": 171936.95553125083,
      "d": 62.499802083329996,
      "v": 97
    },
    {
      "midi": 72,
      "hit": false,
      "t": 172122.05109895827,
      "d": 81.7305104166735,
      "v": 94
    },
    {
      "midi": 84,
      "hit": false,
      "t": 172124.45493749995,
      "d": 79.32667187499464,
      "v": 94
    },
    {
      "midi": 38,
      "hit": false,
      "t": 172155.70483854125,
      "d": 343.74891145832953,
      "v": 73
    },
    {
      "midi": 71,
      "hit": false,
      "t": 172367.2426302083,
      "d": 64.90364062500885,
      "v": 97
    },
    {
      "midi": 83,
      "hit": false,
      "t": 172367.2426302083,
      "d": 64.90364062500885,
      "v": 97
    },
    {
      "midi": 59,
      "hit": false,
      "t": 172376.85798437582,
      "d": 64.90364062500885,
      "v": 90
    },
    {
      "midi": 67,
      "hit": false,
      "t": 172376.85798437582,
      "d": 64.90364062500885,
      "v": 101
    },
    {
      "midi": 62,
      "hit": false,
      "t": 172379.2618229175,
      "d": 57.6921250000014,
      "v": 101
    },
    {
      "midi": 72,
      "hit": false,
      "t": 172583.5880989583,
      "d": 240.3838541666919,
      "v": 113
    },
    {
      "midi": 84,
      "hit": false,
      "t": 172583.5880989583,
      "d": 240.3838541666919,
      "v": 113
    },
    {
      "midi": 43,
      "hit": false,
      "t": 172617.24183854123,
      "d": 374.9988125000091,
      "v": 79
    },
    {
      "midi": 71,
      "hit": false,
      "t": 172809.548921875,
      "d": 72.1151562500163,
      "v": 94
    },
    {
      "midi": 83,
      "hit": false,
      "t": 172811.95276041667,
      "d": 69.71131770833745,
      "v": 94
    },
    {
      "midi": 59,
      "hit": false,
      "t": 172833.5873072925,
      "d": 50.480609374993946,
      "v": 90
    },
    {
      "midi": 62,
      "hit": false,
      "t": 172833.5873072925,
      "d": 50.480609374993946,
      "v": 101
    },
    {
      "midi": 67,
      "hit": false,
      "t": 172833.5873072925,
      "d": 64.90364062497974,
      "v": 99
    },
    {
      "midi": 67,
      "hit": false,
      "t": 173030.70206770833,
      "d": 211.5377916666621,
      "v": 116
    },
    {
      "midi": 79,
      "hit": false,
      "t": 173030.70206770833,
      "d": 211.5377916666621,
      "v": 116
    },
    {
      "midi": 38,
      "hit": false,
      "t": 173078.77883854124,
      "d": 343.74891145832953,
      "v": 72
    },
    {
      "midi": 64,
      "hit": false,
      "t": 173256.66289062498,
      "d": 76.9228333333449,
      "v": 112
    },
    {
      "midi": 76,
      "hit": false,
      "t": 173256.66289062498,
      "d": 76.9228333333449,
      "v": 112
    },
    {
      "midi": 62,
      "hit": false,
      "t": 173285.50895312583,
      "d": 67.3074791666877,
      "v": 101
    },
    {
      "midi": 67,
      "hit": false,
      "t": 173285.50895312583,
      "d": 79.32667187502375,
      "v": 101
    },
    {
      "midi": 59,
      "hit": false,
      "t": 173290.31663020916,
      "d": 60.09596354168025,
      "v": 92
    },
    {
      "midi": 79,
      "hit": false,
      "t": 173482.62371354146,
      "d": 105.76889583331649,
      "v": 123
    },
    {
      "midi": 67,
      "hit": false,
      "t": 173497.04674479167,
      "d": 72.1151562499872,
      "v": 107
    },
    {
      "midi": 79,
      "hit": false,
      "t": 173497.04674479167,
      "d": 72.1151562499872,
      "v": 107
    },
    {
      "midi": 72,
      "hit": false,
      "t": 173501.8544218748,
      "d": 72.1151562499872,
      "v": 109
    },
    {
      "midi": 36,
      "hit": false,
      "t": 173540.31583854122,
      "d": 374.9988125000091,
      "v": 79
    },
    {
      "midi": 67,
      "hit": false,
      "t": 173718.199890625,
      "d": 331.7297187500226,
      "v": 116
    },
    {
      "midi": 79,
      "hit": false,
      "t": 173720.60372916667,
      "d": 329.32588020834373,
      "v": 116
    },
    {
      "midi": 79,
      "hit": false,
      "t": 173737.4305989581,
      "d": 223.55698437496903,
      "v": 114
    },
    {
      "midi": 64,
      "hit": false,
      "t": 173742.2382760425,
      "d": 62.499802083329996,
      "v": 99
    },
    {
      "midi": 60,
      "hit": false,
      "t": 173742.2382760425,
      "d": 64.90364062500885,
      "v": 88
    },
    {
      "midi": 67,
      "hit": false,
      "t": 173742.2382760425,
      "d": 64.90364062500885,
      "v": 99
    },
    {
      "midi": 72,
      "hit": false,
      "t": 173751.8536302081,
      "d": 170.67253645832534,
      "v": 96
    },
    {
      "midi": 38,
      "hit": false,
      "t": 174001.85283854124,
      "d": 331.7297187499935,
      "v": 74
    },
    {
      "midi": 60,
      "hit": false,
      "t": 174208.58295312585,
      "d": 52.8844479166728,
      "v": 90
    },
    {
      "midi": 64,
      "hit": false,
      "t": 174210.98679166753,
      "d": 50.480609374993946,
      "v": 94
    },
    {
      "midi": 67,
      "hit": false,
      "t": 174210.98679166753,
      "d": 62.499802083329996,
      "v": 97
    },
    {
      "midi": 71,
      "hit": false,
      "t": 174215.79446874975,
      "d": 98.55738020833815,
      "v": 114
    },
    {
      "midi": 79,
      "hit": false,
      "t": 174218.19830729143,
      "d": 124.99960416665999,
      "v": 127
    },
    {
      "midi": 67,
      "hit": false,
      "t": 174225.40982291667,
      "d": 98.55738020836725,
      "v": 116
    },
    {
      "midi": 79,
      "hit": false,
      "t": 174227.81366145835,
      "d": 93.74970312500955,
      "v": 116
    },
    {
      "midi": 43,
      "hit": false,
      "t": 174463.38983854122,
      "d": 413.460229166667,
      "v": 85
    },
    {
      "midi": 59,
      "hit": false,
      "t": 174665.31227604253,
      "d": 62.4998020833591,
      "v": 90
    },
    {
      "midi": 67,
      "hit": false,
      "t": 174665.31227604253,
      "d": 64.90364062503795,
      "v": 99
    },
    {
      "midi": 62,
      "hit": false,
      "t": 174667.7161145842,
      "d": 60.09596354168025,
      "v": 101
    },
    {
      "midi": 38,
      "hit": false,
      "t": 174924.92683854123,
      "d": 161.05718229166814,
      "v": 86
    },
    {
      "midi": 62,
      "hit": false,
      "t": 175131.6569531259,
      "d": 52.8844479166728,
      "v": 97
    },
    {
      "midi": 67,
      "hit": false,
      "t": 175131.6569531259,
      "d": 64.90364062500885,
      "v": 101
    },
    {
      "midi": 59,
      "hit": false,
      "t": 175136.46463020923,
      "d": 48.0767708333442,
      "v": 88
    },
    {
      "midi": 40,
      "hit": false,
      "t": 175155.69533854123,
      "d": 187.49940624999,
      "v": 88
    },
    {
      "midi": 43,
      "hit": false,
      "t": 175386.4638385412,
      "d": 382.2103281249874,
      "v": 85
    },
    {
      "midi": 62,
      "hit": false,
      "t": 175612.42466145926,
      "d": 69.71131770833745,
      "v": 92
    },
    {
      "midi": 67,
      "hit": false,
      "t": 175612.42466145926,
      "d": 79.32667187499464,
      "v": 90
    },
    {
      "midi": 59,
      "hit": false,
      "t": 175617.23233854258,
      "d": 40.86525520833675,
      "v": 83
    },
    {
      "midi": 59,
      "hit": false,
      "t": 175795.11639062504,
      "d": 461.5370000000112,
      "v": 103
    },
    {
      "midi": 71,
      "hit": false,
      "t": 175795.11639062504,
      "d": 461.5370000000112,
      "v": 103
    },
    {
      "midi": 83,
      "hit": false,
      "t": 175797.52022916672,
      "d": 459.1331614583323,
      "v": 103
    },
    {
      "midi": 38,
      "hit": false,
      "t": 175848.0008385412,
      "d": 341.3450729166798,
      "v": 76
    },
    {
      "midi": 67,
      "hit": false,
      "t": 176054.73095312592,
      "d": 62.4998020833591,
      "v": 94
    },
    {
      "midi": 59,
      "hit": false,
      "t": 176057.1347916676,
      "d": 57.6921250000014,
      "v": 85
    },
    {
      "midi": 62,
      "hit": false,
      "t": 176057.1347916676,
      "d": 57.6921250000014,
      "v": 99
    },
    {
      "midi": 67,
      "hit": false,
      "t": 176259.05722916673,
      "d": 362.97961979167303,
      "v": 100
    },
    {
      "midi": 55,
      "hit": false,
      "t": 176259.05722916673,
      "d": 365.3834583333519,
      "v": 100
    },
    {
      "midi": 79,
      "hit": false,
      "t": 176261.4610677084,
      "d": 360.5757812499942,
      "v": 100
    },
    {
      "midi": 43,
      "hit": false,
      "t": 176309.5378385412,
      "d": 343.74891145832953,
      "v": 79
    },
    {
      "midi": 62,
      "hit": false,
      "t": 176521.0756302093,
      "d": 67.3074791666877,
      "v": 101
    },
    {
      "midi": 67,
      "hit": false,
      "t": 176521.0756302093,
      "d": 67.3074791666877,
      "v": 97
    },
    {
      "midi": 59,
      "hit": false,
      "t": 176525.88330729262,
      "d": 60.09596354168025,
      "v": 86
    },
    {
      "midi": 38,
      "hit": false,
      "t": 176771.0748385412,
      "d": 360.5757812499942,
      "v": 79
    },
    {
      "midi": 59,
      "hit": false,
      "t": 176992.227984376,
      "d": 50.480609374993946,
      "v": 88
    },
    {
      "midi": 62,
      "hit": false,
      "t": 176992.227984376,
      "d": 50.480609374993946,
      "v": 101
    },
    {
      "midi": 67,
      "hit": false,
      "t": 176992.227984376,
      "d": 64.90364062497974,
      "v": 99
    },
    {
      "midi": 72,
      "hit": false,
      "t": 177208.57345312476,
      "d": 60.09596354168025,
      "v": 102
    },
    {
      "midi": 79,
      "hit": false,
      "t": 177208.57345312476,
      "d": 91.3458645833307,
      "v": 109
    },
    {
      "midi": 67,
      "hit": false,
      "t": 177210.97729166644,
      "d": 72.1151562499872,
      "v": 95
    },
    {
      "midi": 36,
      "hit": false,
      "t": 177232.61183854117,
      "d": 360.5757812499942,
      "v": 80
    },
    {
      "midi": 64,
      "hit": false,
      "t": 177444.14963020931,
      "d": 67.3074791666877,
      "v": 101
    },
    {
      "midi": 67,
      "hit": false,
      "t": 177444.14963020931,
      "d": 67.3074791666877,
      "v": 97
    },
    {
      "midi": 67,
      "hit": false,
      "t": 177448.95730729142,
      "d": 216.3454687499907,
      "v": 102
    },
    {
      "midi": 79,
      "hit": false,
      "t": 177448.95730729142,
      "d": 216.3454687499907,
      "v": 117
    },
    {
      "midi": 72,
      "hit": false,
      "t": 177451.3611458331,
      "d": 199.51859895832604,
      "v": 107
    },
    {
      "midi": 60,
      "hit": false,
      "t": 177451.36114583432,
      "d": 57.6921250000014,
      "v": 90
    },
    {
      "midi": 50,
      "hit": false,
      "t": 177679.72580729175,
      "d": 230.7685000000056,
      "v": 100
    },
    {
      "midi": 62,
      "hit": false,
      "t": 177682.12964583343,
      "d": 228.36466145832674,
      "v": 100
    },
    {
      "midi": 74,
      "hit": false,
      "t": 177682.12964583343,
      "d": 228.36466145832674,
      "v": 100
    },
    {
      "midi": 38,
      "hit": false,
      "t": 177694.14883854115,
      "d": 374.9988125000091,
      "v": 85
    },
    {
      "midi": 60,
      "hit": false,
      "t": 177915.301984376,
      "d": 60.09596354168025,
      "v": 92
    },
    {
      "midi": 67,
      "hit": false,
      "t": 177915.301984376,
      "d": 64.90364062500885,
      "v": 97
    },
    {
      "midi": 64,
      "hit": false,
      "t": 177917.7058229177,
      "d": 48.0767708333442,
      "v": 101
    },
    {
      "midi": 71,
      "hit": false,
      "t": 177920.1096614581,
      "d": 182.6917291666614,
      "v": 107
    },
    {
      "midi": 83,
      "hit": false,
      "t": 177922.51349999977,
      "d": 165.86485937499674,
      "v": 120
    },
    {
      "midi": 52,
      "hit": false,
      "t": 177924.91733854174,
      "d": 218.74930729172775,
      "v": 84
    },
    {
      "midi": 76,
      "hit": false,
      "t": 177927.32117708342,
      "d": 213.94163020837004,
      "v": 84
    },
    {
      "midi": 64,
      "hit": false,
      "t": 177927.32117708342,
      "d": 216.3454687500489,
      "v": 84
    },
    {
      "midi": 55,
      "hit": false,
      "t": 178136.45513020843,
      "d": 374.9988125000382,
      "v": 94
    },
    {
      "midi": 67,
      "hit": false,
      "t": 178136.45513020843,
      "d": 374.9988125000382,
      "v": 94
    },
    {
      "midi": 79,
      "hit": false,
      "t": 178138.8589687501,
      "d": 372.59497395835933,
      "v": 94
    },
    {
      "midi": 43,
      "hit": false,
      "t": 178155.68583854116,
      "d": 374.9988125000091,
      "v": 82
    },
    {
      "midi": 67,
      "hit": false,
      "t": 178381.64666145935,
      "d": 55.28828645835165,
      "v": 99
    },
    {
      "midi": 62,
      "hit": false,
      "t": 178386.45433854268,
      "d": 45.67293229166535,
      "v": 104
    },
    {
      "midi": 59,
      "hit": false,
      "t": 178386.45433854268,
      "d": 48.0767708333442,
      "v": 90
    },
    {
      "midi": 38,
      "hit": false,
      "t": 178617.22283854117,
      "d": 163.461020833347,
      "v": 83
    },
    {
      "midi": 59,
      "hit": false,
      "t": 178838.37598437603,
      "d": 60.09596354168025,
      "v": 88
    },
    {
      "midi": 62,
      "hit": false,
      "t": 178840.7798229177,
      "d": 57.6921250000014,
      "v": 101
    },
    {
      "midi": 67,
      "hit": false,
      "t": 178840.7798229177,
      "d": 62.499802083329996,
      "v": 97
    },
    {
      "midi": 40,
      "hit": false,
      "t": 178847.99133854118,
      "d": 187.49940624999,
      "v": 85
    },
    {
      "midi": 74,
      "hit": false,
      "t": 179076.35600000015,
      "d": 459.1331614583032,
      "v": 86
    },
    {
      "midi": 43,
      "hit": false,
      "t": 179078.75983854115,
      "d": 370.1911354166805,
      "v": 75
    },
    {
      "midi": 86,
      "hit": false,
      "t": 179078.75983854182,
      "d": 442.3062916666386,
      "v": 100
    },
    {
      "midi": 59,
      "hit": false,
      "t": 179319.1436927094,
      "d": 64.90364062500885,
      "v": 88
    },
    {
      "midi": 62,
      "hit": false,
      "t": 179321.54753125107,
      "d": 50.480609374993946,
      "v": 99
    },
    {
      "midi": 67,
      "hit": false,
      "t": 179321.54753125107,
      "d": 62.499802083329996,
      "v": 97
    },
    {
      "midi": 72,
      "hit": false,
      "t": 179506.64309895848,
      "d": 79.32667187496554,
      "v": 94
    },
    {
      "midi": 84,
      "hit": false,
      "t": 179506.64309895848,
      "d": 81.73051041664439,
      "v": 94
    },
    {
      "midi": 38,
      "hit": false,
      "t": 179540.29683854117,
      "d": 343.74891145832953,
      "v": 73
    },
    {
      "midi": 71,
      "hit": false,
      "t": 179751.83463020847,
      "d": 64.90364062500885,
      "v": 97
    },
    {
      "midi": 83,
      "hit": false,
      "t": 179751.83463020847,
      "d": 64.90364062500885,
      "v": 97
    },
    {
      "midi": 59,
      "hit": false,
      "t": 179761.44998437606,
      "d": 64.90364062503795,
      "v": 90
    },
    {
      "midi": 67,
      "hit": false,
      "t": 179761.44998437606,
      "d": 64.90364062503795,
      "v": 101
    },
    {
      "midi": 62,
      "hit": false,
      "t": 179763.85382291774,
      "d": 60.09596354168025,
      "v": 101
    },
    {
      "midi": 72,
      "hit": false,
      "t": 179968.1800989585,
      "d": 240.3838541666628,
      "v": 113
    },
    {
      "midi": 84,
      "hit": false,
      "t": 179968.1800989585,
      "d": 240.3838541666628,
      "v": 113
    },
    {
      "midi": 43,
      "hit": false,
      "t": 180001.83383854115,
      "d": 374.9988125000091,
      "v": 79
    },
    {
      "midi": 71,
      "hit": false,
      "t": 180194.14092187517,
      "d": 72.1151562499872,
      "v": 94
    },
    {
      "midi": 83,
      "hit": false,
      "t": 180194.14092187517,
      "d": 72.1151562499872,
      "v": 94
    },
    {
      "midi": 62,
      "hit": false,
      "t": 180215.7754687511,
      "d": 52.8844479166728,
      "v": 101
    },
    {
      "midi": 59,
      "hit": false,
      "t": 180218.17930729277,
      "d": 50.480609374993946,
      "v": 90
    },
    {
      "midi": 67,
      "hit": false,
      "t": 180218.17930729277,
      "d": 64.90364062497974,
      "v": 99
    },
    {
      "midi": 79,
      "hit": false,
      "t": 180415.29406770848,
      "d": 209.13395312501234,
      "v": 116
    },
    {
      "midi": 67,
      "hit": false,
      "t": 180415.29406770848,
      "d": 211.5377916666912,
      "v": 116
    },
    {
      "midi": 38,
      "hit": false,
      "t": 180463.37083854116,
      "d": 343.74891145832953,
      "v": 72
    },
    {
      "midi": 64,
      "hit": false,
      "t": 180641.25489062516,
      "d": 76.9228333333449,
      "v": 112
    },
    {
      "midi": 76,
      "hit": false,
      "t": 180641.25489062516,
      "d": 76.9228333333449,
      "v": 112
    },
    {
      "midi": 62,
      "hit": false,
      "t": 180670.1009531261,
      "d": 67.3074791666586,
      "v": 101
    },
    {
      "midi": 67,
      "hit": false,
      "t": 180670.1009531261,
      "d": 79.32667187499464,
      "v": 101
    },
    {
      "midi": 59,
      "hit": false,
      "t": 180674.90863020942,
      "d": 62.499802083329996,
      "v": 92
    },
    {
      "midi": 79,
      "hit": false,
      "t": 180867.21571354143,
      "d": 105.76889583331649,
      "v": 123
    },
    {
      "midi": 67,
      "hit": false,
      "t": 180879.23490625017,
      "d": 74.51899479166605,
      "v": 107
    },
    {
      "midi": 79,
      "hit": false,
      "t": 180881.63874479185,
      "d": 72.1151562499872,
      "v": 107
    },
    {
      "midi": 72,
      "hit": false,
      "t": 180886.44642187477,
      "d": 72.1151562499872,
      "v": 109
    },
    {
      "midi": 36,
      "hit": false,
      "t": 180924.90783854114,
      "d": 374.9988125000091,
      "v": 79
    },
    {
      "midi": 67,
      "hit": false,
      "t": 181102.79189062517,
      "d": 331.7297187499935,
      "v": 116
    },
    {
      "midi": 79,
      "hit": false,
      "t": 181102.79189062517,
      "d": 331.7297187499935,
      "v": 116
    },
    {
      "midi": 79,
      "hit": false,
      "t": 181122.02259895808,
      "d": 223.55698437496903,
      "v": 114
    },
    {
      "midi": 64,
      "hit": false,
      "t": 181126.83027604275,
      "d": 60.09596354168025,
      "v": 99
    },
    {
      "midi": 60,
      "hit": false,
      "t": 181126.83027604275,
      "d": 64.90364062500885,
      "v": 88
    },
    {
      "midi": 67,
      "hit": false,
      "t": 181126.83027604275,
      "d": 64.90364062500885,
      "v": 99
    },
    {
      "midi": 72,
      "hit": false,
      "t": 181136.44563020807,
      "d": 170.67253645832534,
      "v": 96
    },
    {
      "midi": 38,
      "hit": false,
      "t": 181386.44483854115,
      "d": 331.7297187499935,
      "v": 74
    },
    {
      "midi": 60,
      "hit": false,
      "t": 181593.1749531261,
      "d": 52.8844479166728,
      "v": 90
    },
    {
      "midi": 64,
      "hit": false,
      "t": 181595.57879166777,
      "d": 50.480609374993946,
      "v": 94
    },
    {
      "midi": 67,
      "hit": false,
      "t": 181595.57879166777,
      "d": 62.499802083329996,
      "v": 97
    },
    {
      "midi": 71,
      "hit": false,
      "t": 181602.79030729138,
      "d": 96.1535416666593,
      "v": 114
    },
    {
      "midi": 79,
      "hit": false,
      "t": 181602.79030729138,
      "d": 124.99960416665999,
      "v": 127
    },
    {
      "midi": 67,
      "hit": false,
      "t": 181612.4056614585,
      "d": 96.1535416666593,
      "v": 116
    },
    {
      "midi": 79,
      "hit": false,
      "t": 181612.4056614585,
      "d": 96.1535416666593,
      "v": 116
    },
    {
      "midi": 43,
      "hit": false,
      "t": 181847.98183854113,
      "d": 413.460229166667,
      "v": 85
    },
    {
      "midi": 59,
      "hit": false,
      "t": 182049.90427604277,
      "d": 62.4998020833591,
      "v": 90
    },
    {
      "midi": 67,
      "hit": false,
      "t": 182049.90427604277,
      "d": 64.90364062503795,
      "v": 99
    },
    {
      "midi": 62,
      "hit": false,
      "t": 182052.30811458445,
      "d": 60.09596354168025,
      "v": 101
    },
    {
      "midi": 38,
      "hit": false,
      "t": 182309.51883854115,
      "d": 163.461020833347,
      "v": 86
    },
    {
      "midi": 62,
      "hit": false,
      "t": 182516.24895312614,
      "d": 52.8844479166728,
      "v": 97
    },
    {
      "midi": 67,
      "hit": false,
      "t": 182516.24895312614,
      "d": 64.90364062500885,
      "v": 101
    },
    {
      "midi": 59,
      "hit": false,
      "t": 182521.05663020947,
      "d": 48.0767708333442,
      "v": 88
    },
    {
      "midi": 40,
      "hit": false,
      "t": 182540.28733854115,
      "d": 185.09556770834024,
      "v": 88
    },
    {
      "midi": 74,
      "hit": false,
      "t": 182768.65200000015,
      "d": 459.1331614583323,
      "v": 101
    },
    {
      "midi": 43,
      "hit": false,
      "t": 182771.05583854116,
      "d": 370.1911354166805,
      "v": 75
    },
    {
      "midi": 86,
      "hit": false,
      "t": 182771.05583854183,
      "d": 497.5945781249902,
      "v": 84
    },
    {
      "midi": 62,
      "hit": false,
      "t": 183011.43969270948,
      "d": 52.8844479166728,
      "v": 99
    },
    {
      "midi": 59,
      "hit": false,
      "t": 183011.43969270948,
      "d": 64.90364062500885,
      "v": 88
    },
    {
      "midi": 67,
      "hit": false,
      "t": 183013.84353125116,
      "d": 62.499802083329996,
      "v": 97
    },
    {
      "midi": 72,
      "hit": false,
      "t": 183198.93909895848,
      "d": 79.32667187499464,
      "v": 94
    },
    {
      "midi": 84,
      "hit": false,
      "t": 183198.93909895848,
      "d": 81.7305104166735,
      "v": 94
    },
    {
      "midi": 38,
      "hit": false,
      "t": 183232.59283854117,
      "d": 343.74891145832953,
      "v": 73
    },
    {
      "midi": 83,
      "hit": false,
      "t": 183444.1306302085,
      "d": 64.90364062500885,
      "v": 97
    },
    {
      "midi": 71,
      "hit": false,
      "t": 183444.1306302085,
      "d": 67.3074791666877,
      "v": 97
    },
    {
      "midi": 59,
      "hit": false,
      "t": 183453.74598437615,
      "d": 64.90364062500885,
      "v": 90
    },
    {
      "midi": 67,
      "hit": false,
      "t": 183453.74598437615,
      "d": 64.90364062500885,
      "v": 101
    },
    {
      "midi": 62,
      "hit": false,
      "t": 183456.14982291783,
      "d": 57.6921250000014,
      "v": 101
    },
    {
      "midi": 72,
      "hit": false,
      "t": 183660.47609895852,
      "d": 240.3838541666628,
      "v": 113
    },
    {
      "midi": 84,
      "hit": false,
      "t": 183660.47609895852,
      "d": 240.3838541666628,
      "v": 113
    },
    {
      "midi": 43,
      "hit": false,
      "t": 183694.12983854115,
      "d": 372.59497395833023,
      "v": 79
    },
    {
      "midi": 71,
      "hit": false,
      "t": 183886.4369218752,
      "d": 72.1151562499872,
      "v": 94
    },
    {
      "midi": 83,
      "hit": false,
      "t": 183886.4369218752,
      "d": 72.1151562499872,
      "v": 94
    },
    {
      "midi": 62,
      "hit": false,
      "t": 183908.07146875115,
      "d": 52.8844479167019,
      "v": 101
    },
    {
      "midi": 59,
      "hit": false,
      "t": 183910.47530729283,
      "d": 48.0767708333442,
      "v": 90
    },
    {
      "midi": 67,
      "hit": false,
      "t": 183910.47530729283,
      "d": 64.90364062500885,
      "v": 99
    },
    {
      "midi": 67,
      "hit": false,
      "t": 184107.59006770852,
      "d": 211.5377916666621,
      "v": 116
    },
    {
      "midi": 79,
      "hit": false,
      "t": 184107.59006770852,
      "d": 211.5377916666621,
      "v": 116
    },
    {
      "midi": 38,
      "hit": false,
      "t": 184155.66683854116,
      "d": 343.74891145832953,
      "v": 72
    },
    {
      "midi": 64,
      "hit": false,
      "t": 184333.55089062516,
      "d": 76.9228333333449,
      "v": 112
    },
    {
      "midi": 76,
      "hit": false,
      "t": 184333.55089062516,
      "d": 76.9228333333449,
      "v": 112
    },
    {
      "midi": 62,
      "hit": false,
      "t": 184362.39695312618,
      "d": 64.90364062500885,
      "v": 101
    },
    {
      "midi": 67,
      "hit": false,
      "t": 184362.39695312618,
      "d": 79.32667187499464,
      "v": 101
    },
    {
      "midi": 59,
      "hit": false,
      "t": 184367.2046302095,
      "d": 60.09596354168025,
      "v": 92
    },
    {
      "midi": 79,
      "hit": false,
      "t": 184559.51171354137,
      "d": 105.76889583331649,
      "v": 123
    },
    {
      "midi": 67,
      "hit": false,
      "t": 184573.93474479186,
      "d": 72.1151562499872,
      "v": 107
    },
    {
      "midi": 79,
      "hit": false,
      "t": 184573.93474479186,
      "d": 72.1151562499872,
      "v": 107
    },
    {
      "midi": 72,
      "hit": false,
      "t": 184578.74242187472,
      "d": 72.1151562499872,
      "v": 109
    },
    {
      "midi": 36,
      "hit": false,
      "t": 184617.20383854114,
      "d": 374.9988125000091,
      "v": 79
    },
    {
      "midi": 67,
      "hit": false,
      "t": 184795.08789062517,
      "d": 331.7297187499935,
      "v": 116
    },
    {
      "midi": 79,
      "hit": false,
      "t": 184795.08789062517,
      "d": 331.7297187499935,
      "v": 116
    },
    {
      "midi": 79,
      "hit": false,
      "t": 184814.31859895802,
      "d": 223.55698437496903,
      "v": 114
    },
    {
      "midi": 60,
      "hit": false,
      "t": 184819.12627604284,
      "d": 64.90364062500885,
      "v": 88
    },
    {
      "midi": 67,
      "hit": false,
      "t": 184819.12627604284,
      "d": 64.90364062500885,
      "v": 99
    },
    {
      "midi": 64,
      "hit": false,
      "t": 184821.53011458452,
      "d": 57.6921250000014,
      "v": 99
    },
    {
      "midi": 72,
      "hit": false,
      "t": 184828.741630208,
      "d": 170.67253645832534,
      "v": 96
    },
    {
      "midi": 38,
      "hit": false,
      "t": 185078.74083854115,
      "d": 331.7297187499935,
      "v": 74
    },
    {
      "midi": 64,
      "hit": false,
      "t": 185285.47095312618,
      "d": 50.48060937502305,
      "v": 94
    },
    {
      "midi": 60,
      "hit": false,
      "t": 185285.47095312618,
      "d": 52.8844479167019,
      "v": 90
    },
    {
      "midi": 67,
      "hit": false,
      "t": 185287.87479166785,
      "d": 62.4998020833591,
      "v": 97
    },
    {
      "midi": 71,
      "hit": false,
      "t": 185295.08630729132,
      "d": 96.1535416666593,
      "v": 114
    },
    {
      "midi": 79,
      "hit": false,
      "t": 185295.08630729132,
      "d": 124.99960416665999,
      "v": 127
    },
    {
      "midi": 67,
      "hit": false,
      "t": 185304.7016614585,
      "d": 96.1535416666593,
      "v": 116
    },
    {
      "midi": 79,
      "hit": false,
      "t": 185304.7016614585,
      "d": 96.1535416666593,
      "v": 116
    },
    {
      "midi": 43,
      "hit": false,
      "t": 185540.27783854114,
      "d": 413.460229166667,
      "v": 85
    },
    {
      "midi": 59,
      "hit": false,
      "t": 185742.2002760429,
      "d": 62.4998020833591,
      "v": 90
    },
    {
      "midi": 67,
      "hit": false,
      "t": 185742.2002760429,
      "d": 64.90364062503795,
      "v": 99
    },
    {
      "midi": 62,
      "hit": false,
      "t": 185744.60411458457,
      "d": 60.09596354168025,
      "v": 101
    },
    {
      "midi": 38,
      "hit": false,
      "t": 186001.81483854115,
      "d": 161.05718229166814,
      "v": 86
    },
    {
      "midi": 62,
      "hit": false,
      "t": 186208.54495312626,
      "d": 52.8844479166728,
      "v": 97
    },
    {
      "midi": 67,
      "hit": false,
      "t": 186208.54495312626,
      "d": 64.90364062500885,
      "v": 101
    },
    {
      "midi": 59,
      "hit": false,
      "t": 186213.35263020959,
      "d": 48.0767708333442,
      "v": 88
    },
    {
      "midi": 40,
      "hit": false,
      "t": 186232.58333854115,
      "d": 187.49940624999,
      "v": 88
    },
    {
      "midi": 74,
      "hit": false,
      "t": 186460.94800000015,
      "d": 459.1331614583323,
      "v": 109
    },
    {
      "midi": 43,
      "hit": false,
      "t": 186463.35183854113,
      "d": 370.1911354166805,
      "v": 75
    },
    {
      "midi": 86,
      "hit": false,
      "t": 186465.75567708348,
      "d": 379.8064895833377,
      "v": 84
    },
    {
      "midi": 59,
      "hit": false,
      "t": 186703.7356927096,
      "d": 64.90364062500885,
      "v": 88
    },
    {
      "midi": 62,
      "hit": false,
      "t": 186706.13953125128,
      "d": 50.480609374993946,
      "v": 99
    },
    {
      "midi": 67,
      "hit": false,
      "t": 186706.13953125128,
      "d": 62.499802083329996,
      "v": 97
    },
    {
      "midi": 72,
      "hit": false,
      "t": 186891.23509895848,
      "d": 81.7305104166735,
      "v": 94
    },
    {
      "midi": 84,
      "hit": false,
      "t": 186893.63893750016,
      "d": 79.32667187499464,
      "v": 94
    },
    {
      "midi": 38,
      "hit": false,
      "t": 186924.88883854114,
      "d": 343.74891145832953,
      "v": 73
    },
    {
      "midi": 71,
      "hit": false,
      "t": 187136.4266302085,
      "d": 64.90364062500885,
      "v": 97
    },
    {
      "midi": 83,
      "hit": false,
      "t": 187136.4266302085,
      "d": 64.90364062500885,
      "v": 97
    },
    {
      "midi": 59,
      "hit": false,
      "t": 187146.04198437626,
      "d": 64.90364062500885,
      "v": 90
    },
    {
      "midi": 67,
      "hit": false,
      "t": 187146.04198437626,
      "d": 64.90364062500885,
      "v": 101
    },
    {
      "midi": 62,
      "hit": false,
      "t": 187148.44582291794,
      "d": 57.6921250000014,
      "v": 101
    },
    {
      "midi": 72,
      "hit": false,
      "t": 187352.77209895852,
      "d": 240.3838541666628,
      "v": 113
    },
    {
      "midi": 84,
      "hit": false,
      "t": 187352.77209895852,
      "d": 240.3838541666628,
      "v": 113
    },
    {
      "midi": 43,
      "hit": false,
      "t": 187386.42583854112,
      "d": 374.9988125000091,
      "v": 79
    },
    {
      "midi": 71,
      "hit": false,
      "t": 187578.7329218752,
      "d": 72.1151562499872,
      "v": 94
    },
    {
      "midi": 83,
      "hit": false,
      "t": 187578.7329218752,
      "d": 72.1151562499872,
      "v": 94
    },
    {
      "midi": 62,
      "hit": false,
      "t": 187600.36746875127,
      "d": 52.8844479167019,
      "v": 101
    },
    {
      "midi": 59,
      "hit": false,
      "t": 187602.77130729295,
      "d": 48.0767708333442,
      "v": 90
    },
    {
      "midi": 67,
      "hit": false,
      "t": 187602.77130729295,
      "d": 64.90364062500885,
      "v": 99
    },
    {
      "midi": 67,
      "hit": false,
      "t": 187799.88606770852,
      "d": 211.5377916666621,
      "v": 116
    },
    {
      "midi": 79,
      "hit": false,
      "t": 187799.88606770852,
      "d": 211.5377916666621,
      "v": 116
    },
    {
      "midi": 38,
      "hit": false,
      "t": 187847.96283854113,
      "d": 343.74891145832953,
      "v": 72
    },
    {
      "midi": 64,
      "hit": false,
      "t": 188025.84689062517,
      "d": 76.9228333333449,
      "v": 112
    },
    {
      "midi": 76,
      "hit": false,
      "t": 188025.84689062517,
      "d": 76.9228333333449,
      "v": 112
    },
    {
      "midi": 62,
      "hit": false,
      "t": 188054.6929531263,
      "d": 67.3074791666877,
      "v": 101
    },
    {
      "midi": 67,
      "hit": false,
      "t": 188054.6929531263,
      "d": 79.32667187502375,
      "v": 101
    },
    {
      "midi": 59,
      "hit": false,
      "t": 188059.50063020963,
      "d": 60.09596354168025,
      "v": 92
    },
    {
      "midi": 79,
      "hit": false,
      "t": 188251.80771354132,
      "d": 105.76889583331649,
      "v": 123
    },
    {
      "midi": 67,
      "hit": false,
      "t": 188266.23074479186,
      "d": 72.1151562500163,
      "v": 107
    },
    {
      "midi": 79,
      "hit": false,
      "t": 188268.63458333354,
      "d": 69.71131770833745,
      "v": 107
    },
    {
      "midi": 72,
      "hit": false,
      "t": 188271.03842187466,
      "d": 72.1151562499872,
      "v": 109
    },
    {
      "midi": 36,
      "hit": false,
      "t": 188309.49983854112,
      "d": 374.9988125000091,
      "v": 79
    },
    {
      "midi": 67,
      "hit": false,
      "t": 188487.3838906252,
      "d": 331.7297187499935,
      "v": 116
    },
    {
      "midi": 79,
      "hit": false,
      "t": 188487.3838906252,
      "d": 331.7297187499935,
      "v": 116
    },
    {
      "midi": 79,
      "hit": false,
      "t": 188506.61459895797,
      "d": 223.55698437496903,
      "v": 114
    },
    {
      "midi": 60,
      "hit": false,
      "t": 188511.42227604298,
      "d": 64.90364062503795,
      "v": 88
    },
    {
      "midi": 67,
      "hit": false,
      "t": 188511.42227604298,
      "d": 64.90364062503795,
      "v": 99
    },
    {
      "midi": 64,
      "hit": false,
      "t": 188513.82611458466,
      "d": 60.09596354168025,
      "v": 99
    },
    {
      "midi": 72,
      "hit": false,
      "t": 188521.03763020795,
      "d": 170.67253645832534,
      "v": 96
    },
    {
      "midi": 38,
      "hit": false,
      "t": 188771.03683854113,
      "d": 331.7297187499935,
      "v": 74
    },
    {
      "midi": 60,
      "hit": false,
      "t": 188977.76695312635,
      "d": 52.8844479166728,
      "v": 90
    },
    {
      "midi": 64,
      "hit": false,
      "t": 188977.76695312635,
      "d": 52.8844479166728,
      "v": 94
    },
    {
      "midi": 67,
      "hit": false,
      "t": 188980.17079166803,
      "d": 62.499802083329996,
      "v": 97
    },
    {
      "midi": 71,
      "hit": false,
      "t": 188987.38230729126,
      "d": 96.1535416666884,
      "v": 114
    },
    {
      "midi": 79,
      "hit": false,
      "t": 188989.78614583294,
      "d": 122.59576562501024,
      "v": 127
    },
    {
      "midi": 67,
      "hit": false,
      "t": 188996.99766145853,
      "d": 96.1535416666884,
      "v": 116
    },
    {
      "midi": 79,
      "hit": false,
      "t": 188999.4015000002,
      "d": 93.74970312500955,
      "v": 116
    },
    {
      "midi": 43,
      "hit": false,
      "t": 189232.5738385411,
      "d": 413.460229166667,
      "v": 85
    },
    {
      "midi": 59,
      "hit": false,
      "t": 189434.49627604304,
      "d": 62.4998020833591,
      "v": 90
    },
    {
      "midi": 67,
      "hit": false,
      "t": 189434.49627604304,
      "d": 64.90364062503795,
      "v": 99
    },
    {
      "midi": 62,
      "hit": false,
      "t": 189436.9001145847,
      "d": 60.09596354168025,
      "v": 101
    },
    {
      "midi": 38,
      "hit": false,
      "t": 189694.11083854112,
      "d": 161.05718229166814,
      "v": 86
    },
    {
      "midi": 62,
      "hit": false,
      "t": 189900.8409531264,
      "d": 52.8844479166728,
      "v": 97
    },
    {
      "midi": 67,
      "hit": false,
      "t": 189900.8409531264,
      "d": 64.90364062500885,
      "v": 101
    },
    {
      "midi": 59,
      "hit": false,
      "t": 189905.64863020973,
      "d": 48.0767708333442,
      "v": 88
    },
    {
      "midi": 40,
      "hit": false,
      "t": 189924.87933854113,
      "d": 187.49940624999,
      "v": 88
    },
    {
      "midi": 74,
      "hit": false,
      "t": 190153.2440000002,
      "d": 459.1331614583323,
      "v": 109
    },
    {
      "midi": 43,
      "hit": false,
      "t": 190155.6478385411,
      "d": 370.1911354166805,
      "v": 75
    },
    {
      "midi": 86,
      "hit": false,
      "t": 190155.6478385419,
      "d": 382.2103281249874,
      "v": 91
    },
    {
      "midi": 62,
      "hit": false,
      "t": 190396.03169270974,
      "d": 52.8844479166728,
      "v": 99
    },
    {
      "midi": 59,
      "hit": false,
      "t": 190396.03169270974,
      "d": 64.90364062500885,
      "v": 88
    },
    {
      "midi": 67,
      "hit": false,
      "t": 190398.43553125142,
      "d": 62.499802083329996,
      "v": 97
    },
    {
      "midi": 72,
      "hit": false,
      "t": 190583.53109895854,
      "d": 81.7305104166735,
      "v": 94
    },
    {
      "midi": 84,
      "hit": false,
      "t": 190583.53109895854,
      "d": 81.7305104166735,
      "v": 94
    },
    {
      "midi": 38,
      "hit": false,
      "t": 190617.1848385411,
      "d": 343.74891145832953,
      "v": 73
    },
    {
      "midi": 83,
      "hit": false,
      "t": 190828.72263020856,
      "d": 64.90364062500885,
      "v": 97
    },
    {
      "midi": 71,
      "hit": false,
      "t": 190828.72263020856,
      "d": 67.3074791666877,
      "v": 97
    },
    {
      "midi": 67,
      "hit": false,
      "t": 190835.93414583476,
      "d": 67.3074791666877,
      "v": 101
    },
    {
      "midi": 62,
      "hit": false,
      "t": 190838.33798437644,
      "d": 60.09596354168025,
      "v": 101
    },
    {
      "midi": 59,
      "hit": false,
      "t": 190838.33798437644,
      "d": 64.90364062500885,
      "v": 90
    },
    {
      "midi": 84,
      "hit": false,
      "t": 191045.06809895858,
      "d": 237.98001562501304,
      "v": 113
    },
    {
      "midi": 72,
      "hit": false,
      "t": 191045.06809895858,
      "d": 240.3838541666919,
      "v": 113
    },
    {
      "midi": 43,
      "hit": false,
      "t": 191078.7218385411,
      "d": 374.9988125000091,
      "v": 79
    },
    {
      "midi": 83,
      "hit": false,
      "t": 191271.02892187526,
      "d": 69.71131770833745,
      "v": 94
    },
    {
      "midi": 71,
      "hit": false,
      "t": 191271.02892187526,
      "d": 72.1151562500163,
      "v": 94
    },
    {
      "midi": 59,
      "hit": false,
      "t": 191295.06730729312,
      "d": 48.0767708333442,
      "v": 90
    },
    {
      "midi": 62,
      "hit": false,
      "t": 191295.06730729312,
      "d": 48.0767708333442,
      "v": 101
    },
    {
      "midi": 67,
      "hit": false,
      "t": 191295.06730729312,
      "d": 64.90364062500885,
      "v": 99
    },
    {
      "midi": 67,
      "hit": false,
      "t": 191492.1820677086,
      "d": 211.5377916666621,
      "v": 116
    },
    {
      "midi": 79,
      "hit": false,
      "t": 191492.1820677086,
      "d": 211.5377916666621,
      "v": 116
    },
    {
      "midi": 38,
      "hit": false,
      "t": 191540.2588385411,
      "d": 343.74891145832953,
      "v": 72
    },
    {
      "midi": 64,
      "hit": false,
      "t": 191718.14289062525,
      "d": 76.9228333333449,
      "v": 112
    },
    {
      "midi": 76,
      "hit": false,
      "t": 191718.14289062525,
      "d": 76.9228333333449,
      "v": 112
    },
    {
      "midi": 62,
      "hit": false,
      "t": 191746.98895312648,
      "d": 67.3074791666877,
      "v": 101
    },
    {
      "midi": 67,
      "hit": false,
      "t": 191746.98895312648,
      "d": 79.32667187502375,
      "v": 101
    },
    {
      "midi": 59,
      "hit": false,
      "t": 191751.7966302098,
      "d": 60.09596354168025,
      "v": 92
    },
    {
      "midi": 79,
      "hit": false,
      "t": 191944.1037135413,
      "d": 105.76889583331649,
      "v": 123
    },
    {
      "midi": 67,
      "hit": false,
      "t": 191958.52674479195,
      "d": 72.1151562499872,
      "v": 107
    },
    {
      "midi": 79,
      "hit": false,
      "t": 191958.52674479195,
      "d": 72.1151562499872,
      "v": 107
    },
    {
      "midi": 72,
      "hit": false,
      "t": 191963.33442187464,
      "d": 72.1151562499872,
      "v": 109
    },
    {
      "midi": 36,
      "hit": false,
      "t": 192001.7958385411,
      "d": 374.9988125000091,
      "v": 79
    },
    {
      "midi": 67,
      "hit": false,
      "t": 192179.67989062527,
      "d": 331.7297187499935,
      "v": 116
    },
    {
      "midi": 79,
      "hit": false,
      "t": 192179.67989062527,
      "d": 331.7297187499935,
      "v": 116
    },
    {
      "midi": 79,
      "hit": false,
      "t": 192198.91059895794,
      "d": 223.55698437496903,
      "v": 114
    },
    {
      "midi": 60,
      "hit": false,
      "t": 192203.71827604316,
      "d": 64.90364062500885,
      "v": 88
    },
    {
      "midi": 67,
      "hit": false,
      "t": 192203.71827604316,
      "d": 64.90364062500885,
      "v": 99
    },
    {
      "midi": 64,
      "hit": false,
      "t": 192206.12211458484,
      "d": 57.6921250000014,
      "v": 99
    },
    {
      "midi": 72,
      "hit": false,
      "t": 192213.33363020793,
      "d": 170.67253645832534,
      "v": 96
    },
    {
      "midi": 38,
      "hit": false,
      "t": 192463.3328385411,
      "d": 331.7297187499935,
      "v": 74
    },
    {
      "midi": 60,
      "hit": false,
      "t": 192670.0629531265,
      "d": 52.8844479166728,
      "v": 90
    },
    {
      "midi": 64,
      "hit": false,
      "t": 192670.0629531265,
      "d": 52.8844479166728,
      "v": 94
    },
    {
      "midi": 67,
      "hit": false,
      "t": 192672.46679166818,
      "d": 62.499802083329996,
      "v": 97
    },
    {
      "midi": 71,
      "hit": false,
      "t": 192679.67830729124,
      "d": 96.1535416666593,
      "v": 114
    },
    {
      "midi": 79,
      "hit": false,
      "t": 192679.67830729124,
      "d": 124.99960416665999,
      "v": 127
    },
    {
      "midi": 67,
      "hit": false,
      "t": 192689.2936614586,
      "d": 96.1535416666593,
      "v": 116
    },
    {
      "midi": 79,
      "hit": false,
      "t": 192689.2936614586,
      "d": 96.1535416666593,
      "v": 116
    },
    {
      "midi": 43,
      "hit": false,
      "t": 192924.86983854108,
      "d": 413.460229166667,
      "v": 85
    },
    {
      "midi": 59,
      "hit": false,
      "t": 193126.79227604318,
      "d": 62.4998020833591,
      "v": 90
    },
    {
      "midi": 67,
      "hit": false,
      "t": 193126.79227604318,
      "d": 64.90364062503795,
      "v": 99
    },
    {
      "midi": 62,
      "hit": false,
      "t": 193129.19611458486,
      "d": 60.09596354168025,
      "v": 101
    },
    {
      "midi": 38,
      "hit": false,
      "t": 193386.4068385411,
      "d": 161.05718229166814,
      "v": 86
    },
    {
      "midi": 62,
      "hit": false,
      "t": 193593.13695312655,
      "d": 52.8844479166728,
      "v": 97
    },
    {
      "midi": 67,
      "hit": false,
      "t": 193593.13695312655,
      "d": 64.90364062500885,
      "v": 101
    },
    {
      "midi": 59,
      "hit": false,
      "t": 193597.94463020988,
      "d": 48.0767708333442,
      "v": 88
    },
    {
      "midi": 40,
      "hit": false,
      "t": 193617.1753385411,
      "d": 187.49940624999,
      "v": 88
    },
    {
      "midi": 74,
      "hit": false,
      "t": 193845.54000000024,
      "d": 459.1331614583323,
      "v": 94
    },
    {
      "midi": 43,
      "hit": false,
      "t": 193847.94383854108,
      "d": 370.1911354166805,
      "v": 75
    },
    {
      "midi": 86,
      "hit": false,
      "t": 193847.94383854192,
      "d": 382.2103281249874,
      "v": 84
    },
    {
      "midi": 62,
      "hit": false,
      "t": 194088.3276927099,
      "d": 52.8844479166728,
      "v": 99
    },
    {
      "midi": 59,
      "hit": false,
      "t": 194088.3276927099,
      "d": 64.90364062500885,
      "v": 88
    },
    {
      "midi": 67,
      "hit": false,
      "t": 194090.73153125157,
      "d": 62.499802083329996,
      "v": 97
    },
    {
      "midi": 72,
      "hit": false,
      "t": 194275.82709895857,
      "d": 81.7305104166735,
      "v": 94
    },
    {
      "midi": 84,
      "hit": false,
      "t": 194275.82709895857,
      "d": 81.7305104166735,
      "v": 94
    },
    {
      "midi": 38,
      "hit": false,
      "t": 194309.4808385411,
      "d": 343.74891145832953,
      "v": 73
    },
    {
      "midi": 83,
      "hit": false,
      "t": 194521.0186302086,
      "d": 64.90364062500885,
      "v": 97
    },
    {
      "midi": 71,
      "hit": false,
      "t": 194521.0186302086,
      "d": 67.3074791666877,
      "v": 97
    },
    {
      "midi": 67,
      "hit": false,
      "t": 194530.63398437656,
      "d": 64.90364062503795,
      "v": 101
    },
    {
      "midi": 62,
      "hit": false,
      "t": 194533.03782291824,
      "d": 60.09596354168025,
      "v": 101
    },
    {
      "midi": 59,
      "hit": false,
      "t": 194533.03782291824,
      "d": 62.4998020833591,
      "v": 90
    },
    {
      "midi": 72,
      "hit": false,
      "t": 194737.3640989586,
      "d": 240.3838541666919,
      "v": 113
    },
    {
      "midi": 84,
      "hit": false,
      "t": 194737.3640989586,
      "d": 240.3838541666919,
      "v": 113
    },
    {
      "midi": 43,
      "hit": false,
      "t": 194771.01783854107,
      "d": 374.9988125000091,
      "v": 79
    },
    {
      "midi": 71,
      "hit": false,
      "t": 194963.3249218753,
      "d": 88.94202604168095,
      "v": 94
    },
    {
      "midi": 83,
      "hit": false,
      "t": 194965.72876041697,
      "d": 64.90364062500885,
      "v": 94
    },
    {
      "midi": 62,
      "hit": false,
      "t": 194987.36330729327,
      "d": 50.48060937502305,
      "v": 101
    },
    {
      "midi": 67,
      "hit": false,
      "t": 194987.36330729327,
      "d": 64.90364062500885,
      "v": 99
    },
    {
      "midi": 59,
      "hit": false,
      "t": 194989.76714583495,
      "d": 48.0767708333442,
      "v": 90
    },
    {
      "midi": 0,
      "hit": false,
      "t": 195035.4400781253,
      "d": 57.6921250000014,
      "v": 61
    },
    {
      "midi": 67,
      "hit": false,
      "t": 195184.47806770864,
      "d": 211.5377916666621,
      "v": 116
    },
    {
      "midi": 79,
      "hit": false,
      "t": 195184.47806770864,
      "d": 211.5377916666621,
      "v": 116
    },
    {
      "midi": 38,
      "hit": false,
      "t": 195232.55483854108,
      "d": 343.74891145832953,
      "v": 72
    },
    {
      "midi": 64,
      "hit": false,
      "t": 195410.4388906253,
      "d": 76.9228333333449,
      "v": 112
    },
    {
      "midi": 76,
      "hit": false,
      "t": 195410.4388906253,
      "d": 76.9228333333449,
      "v": 112
    },
    {
      "midi": 62,
      "hit": false,
      "t": 195439.28495312663,
      "d": 67.3074791666877,
      "v": 101
    },
    {
      "midi": 67,
      "hit": false,
      "t": 195439.28495312663,
      "d": 79.32667187502375,
      "v": 101
    },
    {
      "midi": 59,
      "hit": false,
      "t": 195444.09263020995,
      "d": 60.09596354168025,
      "v": 92
    },
    {
      "midi": 79,
      "hit": false,
      "t": 195636.39971354124,
      "d": 108.17273437499534,
      "v": 123
    },
    {
      "midi": 67,
      "hit": false,
      "t": 195650.82274479198,
      "d": 72.1151562499872,
      "v": 107
    },
    {
      "midi": 79,
      "hit": false,
      "t": 195650.82274479198,
      "d": 72.1151562499872,
      "v": 107
    },
    {
      "midi": 72,
      "hit": false,
      "t": 195655.63042187458,
      "d": 72.1151562499872,
      "v": 109
    },
    {
      "midi": 36,
      "hit": false,
      "t": 195694.09183854106,
      "d": 374.9988125000091,
      "v": 79
    },
    {
      "midi": 67,
      "hit": false,
      "t": 195871.9758906253,
      "d": 331.7297187499935,
      "v": 116
    },
    {
      "midi": 79,
      "hit": false,
      "t": 195871.9758906253,
      "d": 331.7297187499935,
      "v": 116
    },
    {
      "midi": 79,
      "hit": false,
      "t": 195891.20659895788,
      "d": 223.55698437496903,
      "v": 114
    },
    {
      "midi": 60,
      "hit": false,
      "t": 195896.0142760433,
      "d": 64.90364062503795,
      "v": 88
    },
    {
      "midi": 67,
      "hit": false,
      "t": 195896.0142760433,
      "d": 64.90364062503795,
      "v": 99
    },
    {
      "midi": 64,
      "hit": false,
      "t": 195898.418114585,
      "d": 60.09596354168025,
      "v": 99
    },
    {
      "midi": 72,
      "hit": false,
      "t": 195905.62963020787,
      "d": 170.67253645832534,
      "v": 96
    },
    {
      "midi": 38,
      "hit": false,
      "t": 196155.62883854107,
      "d": 331.7297187499935,
      "v": 74
    },
    {
      "midi": 60,
      "hit": false,
      "t": 196364.76279166836,
      "d": 50.480609374993946,
      "v": 90
    },
    {
      "midi": 64,
      "hit": false,
      "t": 196364.76279166836,
      "d": 50.480609374993946,
      "v": 94
    },
    {
      "midi": 67,
      "hit": false,
      "t": 196364.76279166836,
      "d": 62.499802083329996,
      "v": 97
    },
    {
      "midi": 71,
      "hit": false,
      "t": 196371.97430729118,
      "d": 96.1535416666593,
      "v": 114
    },
    {
      "midi": 79,
      "hit": false,
      "t": 196371.97430729118,
      "d": 124.99960416665999,
      "v": 127
    },
    {
      "midi": 67,
      "hit": false,
      "t": 196381.58966145862,
      "d": 96.1535416666593,
      "v": 116
    },
    {
      "midi": 79,
      "hit": false,
      "t": 196381.58966145862,
      "d": 96.1535416666593,
      "v": 116
    },
    {
      "midi": 43,
      "hit": false,
      "t": 196617.16583854106,
      "d": 413.460229166667,
      "v": 85
    },
    {
      "midi": 59,
      "hit": false,
      "t": 196819.08827604336,
      "d": 62.4998020833591,
      "v": 90
    },
    {
      "midi": 67,
      "hit": false,
      "t": 196819.08827604336,
      "d": 64.90364062503795,
      "v": 99
    },
    {
      "midi": 62,
      "hit": false,
      "t": 196821.49211458504,
      "d": 60.09596354168025,
      "v": 101
    },
    {
      "midi": 38,
      "hit": false,
      "t": 197078.70283854107,
      "d": 161.05718229166814,
      "v": 86
    },
    {
      "midi": 62,
      "hit": false,
      "t": 197285.43295312673,
      "d": 52.8844479166728,
      "v": 97
    },
    {
      "midi": 67,
      "hit": false,
      "t": 197285.43295312673,
      "d": 64.90364062500885,
      "v": 101
    },
    {
      "midi": 59,
      "hit": false,
      "t": 197290.24063021006,
      "d": 48.0767708333442,
      "v": 88
    },
    {
      "midi": 40,
      "hit": false,
      "t": 197309.47133854107,
      "d": 187.49940624999,
      "v": 88
    },
    {
      "midi": 74,
      "hit": false,
      "t": 197537.83600000027,
      "d": 459.1331614583323,
      "v": 98
    },
    {
      "midi": 43,
      "hit": false,
      "t": 197540.23983854105,
      "d": 370.1911354166805,
      "v": 75
    },
    {
      "midi": 86,
      "hit": false,
      "t": 197540.23983854195,
      "d": 382.2103281249874,
      "v": 79
    },
    {
      "midi": 62,
      "hit": false,
      "t": 197780.62369271007,
      "d": 52.8844479166728,
      "v": 99
    },
    {
      "midi": 59,
      "hit": false,
      "t": 197780.62369271007,
      "d": 64.90364062500885,
      "v": 88
    },
    {
      "midi": 67,
      "hit": false,
      "t": 197783.02753125175,
      "d": 62.499802083329996,
      "v": 97
    },
    {
      "midi": 72,
      "hit": false,
      "t": 197968.1230989586,
      "d": 79.32667187499464,
      "v": 94
    },
    {
      "midi": 84,
      "hit": false,
      "t": 197968.1230989586,
      "d": 81.7305104166735,
      "v": 94
    },
    {
      "midi": 38,
      "hit": false,
      "t": 198001.77683854106,
      "d": 343.74891145832953,
      "v": 73
    },
    {
      "midi": 71,
      "hit": false,
      "t": 198213.31463020862,
      "d": 64.90364062500885,
      "v": 97
    },
    {
      "midi": 83,
      "hit": false,
      "t": 198215.7184687503,
      "d": 62.499802083329996,
      "v": 97
    },
    {
      "midi": 59,
      "hit": false,
      "t": 198222.92998437674,
      "d": 64.90364062500885,
      "v": 90
    },
    {
      "midi": 67,
      "hit": false,
      "t": 198222.92998437674,
      "d": 64.90364062500885,
      "v": 101
    },
    {
      "midi": 62,
      "hit": false,
      "t": 198225.33382291842,
      "d": 57.6921250000014,
      "v": 101
    },
    {
      "midi": 72,
      "hit": false,
      "t": 198429.66009895864,
      "d": 237.98001562501304,
      "v": 113
    },
    {
      "midi": 84,
      "hit": false,
      "t": 198429.66009895864,
      "d": 237.98001562501304,
      "v": 113
    },
    {
      "midi": 43,
      "hit": false,
      "t": 198463.31383854104,
      "d": 374.9988125000091,
      "v": 79
    },
    {
      "midi": 71,
      "hit": false,
      "t": 198655.62092187532,
      "d": 72.1151562500163,
      "v": 94
    },
    {
      "midi": 83,
      "hit": false,
      "t": 198655.62092187532,
      "d": 72.1151562500163,
      "v": 94
    },
    {
      "midi": 62,
      "hit": false,
      "t": 198679.65930729342,
      "d": 50.48060937502305,
      "v": 101
    },
    {
      "midi": 67,
      "hit": false,
      "t": 198679.65930729342,
      "d": 64.90364062500885,
      "v": 99
    },
    {
      "midi": 59,
      "hit": false,
      "t": 198682.0631458351,
      "d": 45.67293229166535,
      "v": 90
    },
    {
      "midi": 67,
      "hit": false,
      "t": 198876.77406770867,
      "d": 211.5377916666621,
      "v": 116
    },
    {
      "midi": 79,
      "hit": false,
      "t": 198876.77406770867,
      "d": 211.5377916666621,
      "v": 116
    },
    {
      "midi": 38,
      "hit": false,
      "t": 198924.85083854105,
      "d": 343.74891145832953,
      "v": 72
    },
    {
      "midi": 64,
      "hit": false,
      "t": 199102.73489062532,
      "d": 76.9228333333449,
      "v": 112
    },
    {
      "midi": 76,
      "hit": false,
      "t": 199102.73489062532,
      "d": 76.9228333333449,
      "v": 112
    },
    {
      "midi": 62,
      "hit": false,
      "t": 199129.1771145851,
      "d": 67.3074791666877,
      "v": 101
    },
    {
      "midi": 67,
      "hit": false,
      "t": 199131.58095312677,
      "d": 79.32667187499464,
      "v": 101
    },
    {
      "midi": 59,
      "hit": false,
      "t": 199136.3886302101,
      "d": 60.09596354168025,
      "v": 92
    },
    {
      "midi": 79,
      "hit": false,
      "t": 199328.69571354118,
      "d": 105.76889583331649,
      "v": 123
    },
    {
      "midi": 79,
      "hit": false,
      "t": 199343.118744792,
      "d": 69.71131770833745,
      "v": 107
    },
    {
      "midi": 67,
      "hit": false,
      "t": 199343.118744792,
      "d": 72.1151562500163,
      "v": 107
    },
    {
      "midi": 72,
      "hit": false,
      "t": 199347.92642187452,
      "d": 72.1151562499872,
      "v": 109
    },
    {
      "midi": 36,
      "hit": false,
      "t": 199386.38783854104,
      "d": 374.9988125000091,
      "v": 79
    },
    {
      "midi": 67,
      "hit": false,
      "t": 199564.27189062536,
      "d": 331.7297187499935,
      "v": 116
    },
    {
      "midi": 79,
      "hit": false,
      "t": 199564.27189062536,
      "d": 331.7297187499935,
      "v": 116
    },
    {
      "midi": 79,
      "hit": false,
      "t": 199583.50259895783,
      "d": 223.55698437496903,
      "v": 114
    },
    {
      "midi": 60,
      "hit": false,
      "t": 199588.31027604343,
      "d": 64.90364062503795,
      "v": 88
    },
    {
      "midi": 67,
      "hit": false,
      "t": 199588.31027604343,
      "d": 64.90364062503795,
      "v": 99
    },
    {
      "midi": 64,
      "hit": false,
      "t": 199590.7141145851,
      "d": 60.09596354168025,
      "v": 99
    },
    {
      "midi": 72,
      "hit": false,
      "t": 199597.9256302078,
      "d": 170.67253645832534,
      "v": 96
    },
    {
      "midi": 38,
      "hit": false,
      "t": 199847.92483854105,
      "d": 331.7297187499935,
      "v": 74
    },
    {
      "midi": 60,
      "hit": false,
      "t": 200054.6549531268,
      "d": 52.8844479166728,
      "v": 90
    },
    {
      "midi": 64,
      "hit": false,
      "t": 200057.05879166847,
      "d": 50.480609374993946,
      "v": 94
    },
    {
      "midi": 67,
      "hit": false,
      "t": 200057.05879166847,
      "d": 62.499802083329996,
      "v": 97
    },
    {
      "midi": 71,
      "hit": false,
      "t": 200064.27030729112,
      "d": 96.1535416666593,
      "v": 114
    },
    {
      "midi": 79,
      "hit": false,
      "t": 200064.27030729112,
      "d": 124.99960416665999,
      "v": 127
    },
    {
      "midi": 67,
      "hit": false,
      "t": 200073.88566145868,
      "d": 4826.907791666657,
      "v": 116
    },
    {
      "midi": 79,
      "hit": false,
      "t": 200073.88566145868,
      "d": 4826.907791666657,
      "v": 116
    },
    {
      "midi": 43,
      "hit": false,
      "t": 200309.46183854103,
      "d": 413.460229166667,
      "v": 85
    },
    {
      "midi": 59,
      "hit": false,
      "t": 200511.38427604348,
      "d": 62.4998020833591,
      "v": 90
    },
    {
      "midi": 67,
      "hit": false,
      "t": 200511.38427604348,
      "d": 64.90364062503795,
      "v": 99
    },
    {
      "midi": 62,
      "hit": false,
      "t": 200513.78811458516,
      "d": 60.09596354168025,
      "v": 101
    },
    {
      "midi": 38,
      "hit": false,
      "t": 200770.99883854104,
      "d": 163.461020833347,
      "v": 86
    },
    {
      "midi": 62,
      "hit": false,
      "t": 200977.72895312685,
      "d": 52.8844479166728,
      "v": 97
    },
    {
      "midi": 67,
      "hit": false,
      "t": 200977.72895312685,
      "d": 64.90364062500885,
      "v": 101
    },
    {
      "midi": 59,
      "hit": false,
      "t": 200982.53663021018,
      "d": 48.0767708333442,
      "v": 88
    },
    {
      "midi": 40,
      "hit": false,
      "t": 201001.76733854105,
      "d": 187.49940624999,
      "v": 88
    },
    {
      "midi": 43,
      "hit": false,
      "t": 201232.53583854102,
      "d": 370.1911354166805,
      "v": 75
    },
    {
      "midi": 62,
      "hit": false,
      "t": 201472.9196927102,
      "d": 52.8844479166728,
      "v": 99
    },
    {
      "midi": 59,
      "hit": false,
      "t": 201472.9196927102,
      "d": 64.90364062500885,
      "v": 88
    },
    {
      "midi": 67,
      "hit": false,
      "t": 201475.32353125187,
      "d": 62.499802083329996,
      "v": 97
    },
    {
      "midi": 38,
      "hit": false,
      "t": 201694.07283854103,
      "d": 343.74891145832953,
      "v": 73
    },
    {
      "midi": 59,
      "hit": false,
      "t": 201915.22598437686,
      "d": 64.90364062500885,
      "v": 90
    },
    {
      "midi": 67,
      "hit": false,
      "t": 201915.22598437686,
      "d": 64.90364062500885,
      "v": 101
    },
    {
      "midi": 62,
      "hit": false,
      "t": 201917.62982291853,
      "d": 57.6921250000014,
      "v": 101
    },
    {
      "midi": 43,
      "hit": false,
      "t": 202155.60983854102,
      "d": 374.9988125000091,
      "v": 79
    },
    {
      "midi": 62,
      "hit": false,
      "t": 202371.95530729354,
      "d": 48.0767708333442,
      "v": 101
    },
    {
      "midi": 67,
      "hit": false,
      "t": 202371.95530729354,
      "d": 64.90364062500885,
      "v": 99
    },
    {
      "midi": 59,
      "hit": false,
      "t": 202374.35914583522,
      "d": 45.67293229166535,
      "v": 90
    },
    {
      "midi": 38,
      "hit": false,
      "t": 202617.14683854103,
      "d": 343.74891145832953,
      "v": 72
    },
    {
      "midi": 62,
      "hit": false,
      "t": 202823.8769531269,
      "d": 64.90364062500885,
      "v": 101
    },
    {
      "midi": 67,
      "hit": false,
      "t": 202823.8769531269,
      "d": 79.32667187499464,
      "v": 101
    },
    {
      "midi": 59,
      "hit": false,
      "t": 202828.68463021022,
      "d": 60.09596354168025,
      "v": 92
    },
    {
      "midi": 43,
      "hit": false,
      "t": 203078.683838541,
      "d": 370.1911354166805,
      "v": 75
    },
    {
      "midi": 62,
      "hit": false,
      "t": 203319.06769271023,
      "d": 52.8844479166728,
      "v": 99
    },
    {
      "midi": 59,
      "hit": false,
      "t": 203319.06769271023,
      "d": 64.90364062500885,
      "v": 88
    },
    {
      "midi": 67,
      "hit": false,
      "t": 203321.4715312519,
      "d": 62.499802083329996,
      "v": 97
    },
    {
      "midi": 38,
      "hit": false,
      "t": 203540.22083854102,
      "d": 343.74891145832953,
      "v": 73
    },
    {
      "midi": 59,
      "hit": false,
      "t": 203761.3739843769,
      "d": 64.90364062500885,
      "v": 90
    },
    {
      "midi": 67,
      "hit": false,
      "t": 203761.3739843769,
      "d": 64.90364062500885,
      "v": 101
    },
    {
      "midi": 62,
      "hit": false,
      "t": 203763.77782291858,
      "d": 57.6921250000014,
      "v": 101
    },
    {
      "midi": 43,
      "hit": false,
      "t": 204001.757838541,
      "d": 374.9988125000091,
      "v": 79
    },
    {
      "midi": 62,
      "hit": false,
      "t": 204218.10330729358,
      "d": 48.0767708333442,
      "v": 101
    },
    {
      "midi": 67,
      "hit": false,
      "t": 204218.10330729358,
      "d": 64.90364062500885,
      "v": 99
    },
    {
      "midi": 59,
      "hit": false,
      "t": 204220.50714583526,
      "d": 45.67293229166535,
      "v": 90
    },
    {
      "midi": 38,
      "hit": false,
      "t": 204463.294838541,
      "d": 343.74891145832953,
      "v": 72
    },
    {
      "midi": 62,
      "hit": false,
      "t": 204670.02495312694,
      "d": 64.90364062500885,
      "v": 101
    },
    {
      "midi": 67,
      "hit": false,
      "t": 204670.02495312694,
      "d": 79.32667187499464,
      "v": 101
    },
    {
      "midi": 59,
      "hit": false,
      "t": 204674.83263021027,
      "d": 60.09596354168025,
      "v": 92
    },
    {
      "midi": 43,
      "hit": false,
      "t": 204924.831838541,
      "d": 370.1911354166805,
      "v": 75
    },
    {
      "midi": 62,
      "hit": false,
      "t": 204934.44719271027,
      "d": 52.8844479166728,
      "v": 99
    },
    {
      "midi": 59,
      "hit": false,
      "t": 204934.44719271027,
      "d": 64.90364062500885,
      "v": 88
    },
    {
      "midi": 67,
      "hit": false,
      "t": 204936.85103125195,
      "d": 62.499802083329996,
      "v": 97
    }
  ]
}