{
  "jsonPath": "Animes/Gall Force MIDI Collection/star-front.json",
  "path": "Animes\\Gall Force MIDI Collection\\Star Front.mid",
  "name": "Star Front",
  "difficulty": "Advanced",
  "bpm": 250,
  "notes": [
    {
      "midi": 77,
      "hit": false,
      "t": 8640,
      "d": 240,
      "v": 100
    },
    {
      "midi": 82,
      "hit": false,
      "t": 8640,
      "d": 160,
      "v": 100
    },
    {
      "midi": 34,
      "hit": false,
      "t": 8640,
      "d": 240,
      "v": 100
    },
    {
      "midi": 68,
      "hit": false,
      "t": 8640,
      "d": 240,
      "v": 100
    },
    {
      "midi": 73,
      "hit": false,
      "t": 8640,
      "d": 240,
      "v": 100
    },
    {
      "midi": 38,
      "hit": false,
      "t": 8640,
      "d": 240,
      "v": 100
    },
    {
      "midi": 49,
      "hit": false,
      "t": 8640,
      "d": 240,
      "v": 100
    },
    {
      "midi": 36,
      "hit": false,
      "t": 8640,
      "d": 240,
      "v": 100
    },
    {
      "midi": 94,
      "hit": false,
      "t": 8800,
      "d": 160,
      "v": 100
    },
    {
      "midi": 76,
      "hit": false,
      "t": 8880,
      "d": 3120,
      "v": 100
    },
    {
      "midi": 34,
      "hit": false,
      "t": 8880,
      "d": 3120,
      "v": 100
    },
    {
      "midi": 72,
      "hit": false,
      "t": 8880,
      "d": 3120,
      "v": 100
    },
    {
      "midi": 67,
      "hit": false,
      "t": 8880,
      "d": 3120,
      "v": 100
    },
    {
      "midi": 36,
      "hit": false,
      "t": 8880,
      "d": 240,
      "v": 100
    },
    {
      "midi": 38,
      "hit": false,
      "t": 8880,
      "d": 240,
      "v": 100
    },
    {
      "midi": 49,
      "hit": false,
      "t": 8880,
      "d": 240,
      "v": 100
    },
    {
      "midi": 82,
      "hit": false,
      "t": 8960,
      "d": 160,
      "v": 100
    },
    {
      "midi": 82,
      "hit": false,
      "t": 9120,
      "d": 160,
      "v": 100
    },
    {
      "midi": 94,
      "hit": false,
      "t": 9280,
      "d": 160,
      "v": 100
    },
    {
      "midi": 82,
      "hit": false,
      "t": 9440,
      "d": 160,
      "v": 100
    },
    {
      "midi": 82,
      "hit": false,
      "t": 9600,
      "d": 160,
      "v": 100
    },
    {
      "midi": 94,
      "hit": false,
      "t": 9760,
      "d": 160,
      "v": 100
    },
    {
      "midi": 82,
      "hit": false,
      "t": 9920,
      "d": 160,
      "v": 100
    },
    {
      "midi": 82,
      "hit": false,
      "t": 10080,
      "d": 160,
      "v": 100
    },
    {
      "midi": 94,
      "hit": false,
      "t": 10240,
      "d": 160,
      "v": 100
    },
    {
      "midi": 82,
      "hit": false,
      "t": 10400,
      "d": 160,
      "v": 100
    },
    {
      "midi": 82,
      "hit": false,
      "t": 10560,
      "d": 160,
      "v": 100
    },
    {
      "midi": 94,
      "hit": false,
      "t": 10720,
      "d": 160,
      "v": 100
    },
    {
      "midi": 82,
      "hit": false,
      "t": 10880,
      "d": 160,
      "v": 100
    },
    {
      "midi": 82,
      "hit": false,
      "t": 11040,
      "d": 160,
      "v": 100
    },
    {
      "midi": 94,
      "hit": false,
      "t": 11200,
      "d": 160,
      "v": 100
    },
    {
      "midi": 82,
      "hit": false,
      "t": 11360,
      "d": 160,
      "v": 100
    },
    {
      "midi": 82,
      "hit": false,
      "t": 11520,
      "d": 160,
      "v": 100
    },
    {
      "midi": 94,
      "hit": false,
      "t": 11680,
      "d": 160,
      "v": 100
    },
    {
      "midi": 82,
      "hit": false,
      "t": 11840,
      "d": 160,
      "v": 100
    },
    {
      "midi": 76,
      "hit": false,
      "t": 12000,
      "d": 240,
      "v": 100
    },
    {
      "midi": 82,
      "hit": false,
      "t": 12000,
      "d": 160,
      "v": 100
    },
    {
      "midi": 34,
      "hit": false,
      "t": 12000,
      "d": 240,
      "v": 100
    },
    {
      "midi": 67,
      "hit": false,
      "t": 12000,
      "d": 240,
      "v": 100
    },
    {
      "midi": 72,
      "hit": false,
      "t": 12000,
      "d": 240,
      "v": 100
    },
    {
      "midi": 49,
      "hit": false,
      "t": 12000,
      "d": 240,
      "v": 100
    },
    {
      "midi": 38,
      "hit": false,
      "t": 12000,
      "d": 240,
      "v": 100
    },
    {
      "midi": 36,
      "hit": false,
      "t": 12000,
      "d": 240,
      "v": 100
    },
    {
      "midi": 94,
      "hit": false,
      "t": 12160,
      "d": 160,
      "v": 100
    },
    {
      "midi": 75,
      "hit": false,
      "t": 12240,
      "d": 1680,
      "v": 100
    },
    {
      "midi": 34,
      "hit": false,
      "t": 12240,
      "d": 1680,
      "v": 100
    },
    {
      "midi": 66,
      "hit": false,
      "t": 12240,
      "d": 1680,
      "v": 100
    },
    {
      "midi": 71,
      "hit": false,
      "t": 12240,
      "d": 1680,
      "v": 100
    },
    {
      "midi": 49,
      "hit": false,
      "t": 12240,
      "d": 240,
      "v": 100
    },
    {
      "midi": 38,
      "hit": false,
      "t": 12240,
      "d": 240,
      "v": 100
    },
    {
      "midi": 36,
      "hit": false,
      "t": 12240,
      "d": 240,
      "v": 100
    },
    {
      "midi": 82,
      "hit": false,
      "t": 12320,
      "d": 160,
      "v": 100
    },
    {
      "midi": 82,
      "hit": false,
      "t": 12480,
      "d": 160,
      "v": 100
    },
    {
      "midi": 94,
      "hit": false,
      "t": 12640,
      "d": 160,
      "v": 100
    },
    {
      "midi": 82,
      "hit": false,
      "t": 12800,
      "d": 160,
      "v": 100
    },
    {
      "midi": 82,
      "hit": false,
      "t": 12960,
      "d": 160,
      "v": 100
    },
    {
      "midi": 94,
      "hit": false,
      "t": 13120,
      "d": 160,
      "v": 100
    },
    {
      "midi": 82,
      "hit": false,
      "t": 13280,
      "d": 160,
      "v": 100
    },
    {
      "midi": 82,
      "hit": false,
      "t": 13440,
      "d": 160,
      "v": 100
    },
    {
      "midi": 94,
      "hit": false,
      "t": 13600,
      "d": 160,
      "v": 100
    },
    {
      "midi": 82,
      "hit": false,
      "t": 13760,
      "d": 160,
      "v": 100
    },
    {
      "midi": 75,
      "hit": false,
      "t": 13920,
      "d": 240,
      "v": 100
    },
    {
      "midi": 82,
      "hit": false,
      "t": 13920,
      "d": 160,
      "v": 100
    },
    {
      "midi": 34,
      "hit": false,
      "t": 13920,
      "d": 240,
      "v": 100
    },
    {
      "midi": 66,
      "hit": false,
      "t": 13920,
      "d": 240,
      "v": 100
    },
    {
      "midi": 71,
      "hit": false,
      "t": 13920,
      "d": 240,
      "v": 100
    },
    {
      "midi": 49,
      "hit": false,
      "t": 13920,
      "d": 240,
      "v": 100
    },
    {
      "midi": 38,
      "hit": false,
      "t": 13920,
      "d": 240,
      "v": 100
    },
    {
      "midi": 36,
      "hit": false,
      "t": 13920,
      "d": 240,
      "v": 100
    },
    {
      "midi": 94,
      "hit": false,
      "t": 14080,
      "d": 160,
      "v": 100
    },
    {
      "midi": 74,
      "hit": false,
      "t": 14160,
      "d": 2640,
      "v": 100
    },
    {
      "midi": 34,
      "hit": false,
      "t": 14160,
      "d": 2640,
      "v": 100
    },
    {
      "midi": 65,
      "hit": false,
      "t": 14160,
      "d": 2640,
      "v": 100
    },
    {
      "midi": 70,
      "hit": false,
      "t": 14160,
      "d": 2640,
      "v": 100
    },
    {
      "midi": 49,
      "hit": false,
      "t": 14160,
      "d": 240,
      "v": 100
    },
    {
      "midi": 38,
      "hit": false,
      "t": 14160,
      "d": 240,
      "v": 100
    },
    {
      "midi": 36,
      "hit": false,
      "t": 14160,
      "d": 240,
      "v": 100
    },
    {
      "midi": 82,
      "hit": false,
      "t": 14240,
      "d": 160,
      "v": 100
    },
    {
      "midi": 82,
      "hit": false,
      "t": 14400,
      "d": 160,
      "v": 100
    },
    {
      "midi": 94,
      "hit": false,
      "t": 14560,
      "d": 160,
      "v": 100
    },
    {
      "midi": 82,
      "hit": false,
      "t": 14720,
      "d": 160,
      "v": 100
    },
    {
      "midi": 82,
      "hit": false,
      "t": 14880,
      "d": 160,
      "v": 100
    },
    {
      "midi": 94,
      "hit": false,
      "t": 15040,
      "d": 160,
      "v": 100
    },
    {
      "midi": 82,
      "hit": false,
      "t": 15200,
      "d": 160,
      "v": 100
    },
    {
      "midi": 82,
      "hit": false,
      "t": 15360,
      "d": 160,
      "v": 100
    },
    {
      "midi": 94,
      "hit": false,
      "t": 15520,
      "d": 160,
      "v": 100
    },
    {
      "midi": 82,
      "hit": false,
      "t": 15680,
      "d": 160,
      "v": 100
    },
    {
      "midi": 82,
      "hit": false,
      "t": 15840,
      "d": 160,
      "v": 100
    },
    {
      "midi": 94,
      "hit": false,
      "t": 16000,
      "d": 160,
      "v": 100
    },
    {
      "midi": 82,
      "hit": false,
      "t": 16160,
      "d": 160,
      "v": 100
    },
    {
      "midi": 82,
      "hit": false,
      "t": 16320,
      "d": 160,
      "v": 100
    },
    {
      "midi": 94,
      "hit": false,
      "t": 16480,
      "d": 160,
      "v": 100
    },
    {
      "midi": 82,
      "hit": false,
      "t": 16640,
      "d": 160,
      "v": 100
    },
    {
      "midi": 83,
      "hit": false,
      "t": 16800,
      "d": 120,
      "v": 100
    },
    {
      "midi": 36,
      "hit": false,
      "t": 16800,
      "d": 480,
      "v": 100
    },
    {
      "midi": 84,
      "hit": false,
      "t": 16920,
      "d": 120,
      "v": 100
    },
    {
      "midi": 91,
      "hit": false,
      "t": 17040,
      "d": 120,
      "v": 100
    },
    {
      "midi": 84,
      "hit": false,
      "t": 17160,
      "d": 120,
      "v": 100
    },
    {
      "midi": 83,
      "hit": false,
      "t": 17280,
      "d": 120,
      "v": 100
    },
    {
      "midi": 36,
      "hit": false,
      "t": 17280,
      "d": 480,
      "v": 100
    },
    {
      "midi": 84,
      "hit": false,
      "t": 17400,
      "d": 120,
      "v": 100
    },
    {
      "midi": 91,
      "hit": false,
      "t": 17520,
      "d": 120,
      "v": 100
    },
    {
      "midi": 84,
      "hit": false,
      "t": 17640,
      "d": 120,
      "v": 100
    },
    {
      "midi": 83,
      "hit": false,
      "t": 17760,
      "d": 120,
      "v": 100
    },
    {
      "midi": 36,
      "hit": false,
      "t": 17760,
      "d": 480,
      "v": 100
    },
    {
      "midi": 84,
      "hit": false,
      "t": 17880,
      "d": 120,
      "v": 100
    },
    {
      "midi": 91,
      "hit": false,
      "t": 18000,
      "d": 120,
      "v": 100
    },
    {
      "midi": 84,
      "hit": false,
      "t": 18120,
      "d": 120,
      "v": 100
    },
    {
      "midi": 83,
      "hit": false,
      "t": 18240,
      "d": 120,
      "v": 100
    },
    {
      "midi": 36,
      "hit": false,
      "t": 18240,
      "d": 480,
      "v": 100
    },
    {
      "midi": 84,
      "hit": false,
      "t": 18360,
      "d": 120,
      "v": 100
    },
    {
      "midi": 91,
      "hit": false,
      "t": 18480,
      "d": 120,
      "v": 100
    },
    {
      "midi": 84,
      "hit": false,
      "t": 18600,
      "d": 120,
      "v": 100
    },
    {
      "midi": 83,
      "hit": false,
      "t": 18720,
      "d": 120,
      "v": 100
    },
    {
      "midi": 36,
      "hit": false,
      "t": 18720,
      "d": 480,
      "v": 100
    },
    {
      "midi": 84,
      "hit": false,
      "t": 18840,
      "d": 120,
      "v": 100
    },
    {
      "midi": 91,
      "hit": false,
      "t": 18960,
      "d": 120,
      "v": 100
    },
    {
      "midi": 84,
      "hit": false,
      "t": 19080,
      "d": 120,
      "v": 100
    },
    {
      "midi": 83,
      "hit": false,
      "t": 19200,
      "d": 120,
      "v": 100
    },
    {
      "midi": 36,
      "hit": false,
      "t": 19200,
      "d": 480,
      "v": 100
    },
    {
      "midi": 84,
      "hit": false,
      "t": 19320,
      "d": 120,
      "v": 100
    },
    {
      "midi": 91,
      "hit": false,
      "t": 19440,
      "d": 120,
      "v": 100
    },
    {
      "midi": 84,
      "hit": false,
      "t": 19560,
      "d": 120,
      "v": 100
    },
    {
      "midi": 83,
      "hit": false,
      "t": 19680,
      "d": 120,
      "v": 100
    },
    {
      "midi": 59,
      "hit": false,
      "t": 19680,
      "d": 120,
      "v": 100
    },
    {
      "midi": 36,
      "hit": false,
      "t": 19680,
      "d": 480,
      "v": 100
    },
    {
      "midi": 84,
      "hit": false,
      "t": 19800,
      "d": 120,
      "v": 100
    },
    {
      "midi": 60,
      "hit": false,
      "t": 19800,
      "d": 120,
      "v": 100
    },
    {
      "midi": 91,
      "hit": false,
      "t": 19920,
      "d": 120,
      "v": 100
    },
    {
      "midi": 64,
      "hit": false,
      "t": 19920,
      "d": 120,
      "v": 100
    },
    {
      "midi": 84,
      "hit": false,
      "t": 20040,
      "d": 120,
      "v": 100
    },
    {
      "midi": 67,
      "hit": false,
      "t": 20040,
      "d": 120,
      "v": 100
    },
    {
      "midi": 83,
      "hit": false,
      "t": 20160,
      "d": 120,
      "v": 100
    },
    {
      "midi": 71,
      "hit": false,
      "t": 20160,
      "d": 120,
      "v": 100
    },
    {
      "midi": 36,
      "hit": false,
      "t": 20160,
      "d": 480,
      "v": 100
    },
    {
      "midi": 84,
      "hit": false,
      "t": 20280,
      "d": 120,
      "v": 100
    },
    {
      "midi": 72,
      "hit": false,
      "t": 20280,
      "d": 120,
      "v": 100
    },
    {
      "midi": 91,
      "hit": false,
      "t": 20400,
      "d": 120,
      "v": 100
    },
    {
      "midi": 76,
      "hit": false,
      "t": 20400,
      "d": 120,
      "v": 100
    },
    {
      "midi": 84,
      "hit": false,
      "t": 20520,
      "d": 120,
      "v": 100
    },
    {
      "midi": 79,
      "hit": false,
      "t": 20520,
      "d": 120,
      "v": 100
    },
    {
      "midi": 33,
      "hit": false,
      "t": 20640,
      "d": 3120,
      "v": 100
    },
    {
      "midi": 64,
      "hit": false,
      "t": 20640,
      "d": 960,
      "v": 100
    },
    {
      "midi": 72,
      "hit": false,
      "t": 20640,
      "d": 960,
      "v": 100
    },
    {
      "midi": 69,
      "hit": false,
      "t": 20640,
      "d": 960,
      "v": 100
    },
    {
      "midi": 81,
      "hit": false,
      "t": 20640,
      "d": 960,
      "v": 100
    },
    {
      "midi": 69,
      "hit": false,
      "t": 20640,
      "d": 960,
      "v": 100
    },
    {
      "midi": 57,
      "hit": false,
      "t": 20640,
      "d": 960,
      "v": 100
    },
    {
      "midi": 44,
      "hit": false,
      "t": 20640,
      "d": 120,
      "v": 100
    },
    {
      "midi": 49,
      "hit": false,
      "t": 20640,
      "d": 480,
      "v": 100
    },
    {
      "midi": 36,
      "hit": false,
      "t": 20640,
      "d": 480,
      "v": 100
    },
    {
      "midi": 44,
      "hit": false,
      "t": 20880,
      "d": 120,
      "v": 100
    },
    {
      "midi": 44,
      "hit": false,
      "t": 21000,
      "d": 120,
      "v": 100
    },
    {
      "midi": 44,
      "hit": false,
      "t": 21120,
      "d": 120,
      "v": 100
    },
    {
      "midi": 38,
      "hit": false,
      "t": 21120,
      "d": 480,
      "v": 100
    },
    {
      "midi": 44,
      "hit": false,
      "t": 21360,
      "d": 120,
      "v": 100
    },
    {
      "midi": 44,
      "hit": false,
      "t": 21480,
      "d": 120,
      "v": 100
    },
    {
      "midi": 72,
      "hit": false,
      "t": 21600,
      "d": 1920,
      "v": 100
    },
    {
      "midi": 76,
      "hit": false,
      "t": 21600,
      "d": 1920,
      "v": 100
    },
    {
      "midi": 69,
      "hit": false,
      "t": 21600,
      "d": 1920,
      "v": 100
    },
    {
      "midi": 88,
      "hit": false,
      "t": 21600,
      "d": 1440,
      "v": 100
    },
    {
      "midi": 76,
      "hit": false,
      "t": 21600,
      "d": 1440,
      "v": 100
    },
    {
      "midi": 60,
      "hit": false,
      "t": 21600,
      "d": 2880,
      "v": 100
    },
    {
      "midi": 44,
      "hit": false,
      "t": 21600,
      "d": 120,
      "v": 100
    },
    {
      "midi": 36,
      "hit": false,
      "t": 21600,
      "d": 480,
      "v": 100
    },
    {
      "midi": 44,
      "hit": false,
      "t": 21840,
      "d": 120,
      "v": 100
    },
    {
      "midi": 44,
      "hit": false,
      "t": 21960,
      "d": 120,
      "v": 100
    },
    {
      "midi": 44,
      "hit": false,
      "t": 22080,
      "d": 120,
      "v": 100
    },
    {
      "midi": 38,
      "hit": false,
      "t": 22080,
      "d": 480,
      "v": 100
    },
    {
      "midi": 44,
      "hit": false,
      "t": 22320,
      "d": 120,
      "v": 100
    },
    {
      "midi": 44,
      "hit": false,
      "t": 22440,
      "d": 120,
      "v": 100
    },
    {
      "midi": 44,
      "hit": false,
      "t": 22560,
      "d": 120,
      "v": 100
    },
    {
      "midi": 36,
      "hit": false,
      "t": 22560,
      "d": 480,
      "v": 100
    },
    {
      "midi": 44,
      "hit": false,
      "t": 22800,
      "d": 120,
      "v": 100
    },
    {
      "midi": 44,
      "hit": false,
      "t": 22920,
      "d": 120,
      "v": 100
    },
    {
      "midi": 84,
      "hit": false,
      "t": 23040,
      "d": 480,
      "v": 100
    },
    {
      "midi": 72,
      "hit": false,
      "t": 23040,
      "d": 480,
      "v": 100
    },
    {
      "midi": 44,
      "hit": false,
      "t": 23040,
      "d": 120,
      "v": 100
    },
    {
      "midi": 38,
      "hit": false,
      "t": 23040,
      "d": 480,
      "v": 100
    },
    {
      "midi": 44,
      "hit": false,
      "t": 23280,
      "d": 120,
      "v": 100
    },
    {
      "midi": 44,
      "hit": false,
      "t": 23400,
      "d": 120,
      "v": 100
    },
    {
      "midi": 86,
      "hit": false,
      "t": 23520,
      "d": 480,
      "v": 100
    },
    {
      "midi": 74,
      "hit": false,
      "t": 23520,
      "d": 480,
      "v": 100
    },
    {
      "midi": 44,
      "hit": false,
      "t": 23520,
      "d": 120,
      "v": 100
    },
    {
      "midi": 36,
      "hit": false,
      "t": 23520,
      "d": 480,
      "v": 100
    },
    {
      "midi": 35,
      "hit": false,
      "t": 23760,
      "d": 240,
      "v": 100
    },
    {
      "midi": 44,
      "hit": false,
      "t": 23760,
      "d": 120,
      "v": 100
    },
    {
      "midi": 44,
      "hit": false,
      "t": 23880,
      "d": 120,
      "v": 100
    },
    {
      "midi": 36,
      "hit": false,
      "t": 24000,
      "d": 240,
      "v": 100
    },
    {
      "midi": 88,
      "hit": false,
      "t": 24000,
      "d": 480,
      "v": 100
    },
    {
      "midi": 76,
      "hit": false,
      "t": 24000,
      "d": 480,
      "v": 100
    },
    {
      "midi": 44,
      "hit": false,
      "t": 24000,
      "d": 120,
      "v": 100
    },
    {
      "midi": 38,
      "hit": false,
      "t": 24000,
      "d": 480,
      "v": 100
    },
    {
      "midi": 35,
      "hit": false,
      "t": 24240,
      "d": 240,
      "v": 100
    },
    {
      "midi": 44,
      "hit": false,
      "t": 24240,
      "d": 120,
      "v": 100
    },
    {
      "midi": 44,
      "hit": false,
      "t": 24360,
      "d": 120,
      "v": 100
    },
    {
      "midi": 29,
      "hit": false,
      "t": 24480,
      "d": 3840,
      "v": 100
    },
    {
      "midi": 69,
      "hit": false,
      "t": 24480,
      "d": 960,
      "v": 100
    },
    {
      "midi": 72,
      "hit": false,
      "t": 24480,
      "d": 960,
      "v": 100
    },
    {
      "midi": 65,
      "hit": false,
      "t": 24480,
      "d": 960,
      "v": 100
    },
    {
      "midi": 69,
      "hit": false,
      "t": 24480,
      "d": 960,
      "v": 100
    },
    {
      "midi": 81,
      "hit": false,
      "t": 24480,
      "d": 960,
      "v": 100
    },
    {
      "midi": 57,
      "hit": false,
      "t": 24480,
      "d": 3840,
      "v": 100
    },
    {
      "midi": 44,
      "hit": false,
      "t": 24480,
      "d": 120,
      "v": 100
    },
    {
      "midi": 36,
      "hit": false,
      "t": 24480,
      "d": 480,
      "v": 100
    },
    {
      "midi": 44,
      "hit": false,
      "t": 24720,
      "d": 120,
      "v": 100
    },
    {
      "midi": 44,
      "hit": false,
      "t": 24840,
      "d": 120,
      "v": 100
    },
    {
      "midi": 44,
      "hit": false,
      "t": 24960,
      "d": 120,
      "v": 100
    },
    {
      "midi": 38,
      "hit": false,
      "t": 24960,
      "d": 480,
      "v": 100
    },
    {
      "midi": 44,
      "hit": false,
      "t": 25200,
      "d": 120,
      "v": 100
    },
    {
      "midi": 44,
      "hit": false,
      "t": 25320,
      "d": 120,
      "v": 100
    },
    {
      "midi": 69,
      "hit": false,
      "t": 25440,
      "d": 1920,
      "v": 100
    },
    {
      "midi": 76,
      "hit": false,
      "t": 25440,
      "d": 1920,
      "v": 100
    },
    {
      "midi": 72,
      "hit": false,
      "t": 25440,
      "d": 1920,
      "v": 100
    },
    {
      "midi": 76,
      "hit": false,
      "t": 25440,
      "d": 1440,
      "v": 100
    },
    {
      "midi": 88,
      "hit": false,
      "t": 25440,
      "d": 1440,
      "v": 100
    },
    {
      "midi": 44,
      "hit": false,
      "t": 25440,
      "d": 120,
      "v": 100
    },
    {
      "midi": 36,
      "hit": false,
      "t": 25440,
      "d": 480,
      "v": 100
    },
    {
      "midi": 44,
      "hit": false,
      "t": 25680,
      "d": 120,
      "v": 100
    },
    {
      "midi": 44,
      "hit": false,
      "t": 25800,
      "d": 120,
      "v": 100
    },
    {
      "midi": 44,
      "hit": false,
      "t": 25920,
      "d": 120,
      "v": 100
    },
    {
      "midi": 38,
      "hit": false,
      "t": 25920,
      "d": 480,
      "v": 100
    },
    {
      "midi": 44,
      "hit": false,
      "t": 26160,
      "d": 120,
      "v": 100
    },
    {
      "midi": 44,
      "hit": false,
      "t": 26280,
      "d": 120,
      "v": 100
    },
    {
      "midi": 44,
      "hit": false,
      "t": 26400,
      "d": 120,
      "v": 100
    },
    {
      "midi": 36,
      "hit": false,
      "t": 26400,
      "d": 480,
      "v": 100
    },
    {
      "midi": 44,
      "hit": false,
      "t": 26640,
      "d": 120,
      "v": 100
    },
    {
      "midi": 44,
      "hit": false,
      "t": 26760,
      "d": 120,
      "v": 100
    },
    {
      "midi": 72,
      "hit": false,
      "t": 26880,
      "d": 480,
      "v": 100
    },
    {
      "midi": 84,
      "hit": false,
      "t": 26880,
      "d": 480,
      "v": 100
    },
    {
      "midi": 44,
      "hit": false,
      "t": 26880,
      "d": 120,
      "v": 100
    },
    {
      "midi": 38,
      "hit": false,
      "t": 26880,
      "d": 480,
      "v": 100
    },
    {
      "midi": 44,
      "hit": false,
      "t": 27120,
      "d": 120,
      "v": 100
    },
    {
      "midi": 44,
      "hit": false,
      "t": 27240,
      "d": 120,
      "v": 100
    },
    {
      "midi": 74,
      "hit": false,
      "t": 27360,
      "d": 480,
      "v": 100
    },
    {
      "midi": 86,
      "hit": false,
      "t": 27360,
      "d": 480,
      "v": 100
    },
    {
      "midi": 44,
      "hit": false,
      "t": 27360,
      "d": 120,
      "v": 100
    },
    {
      "midi": 36,
      "hit": false,
      "t": 27360,
      "d": 480,
      "v": 100
    },
    {
      "midi": 44,
      "hit": false,
      "t": 27600,
      "d": 120,
      "v": 100
    },
    {
      "midi": 44,
      "hit": false,
      "t": 27720,
      "d": 120,
      "v": 100
    },
    {
      "midi": 76,
      "hit": false,
      "t": 27840,
      "d": 480,
      "v": 100
    },
    {
      "midi": 88,
      "hit": false,
      "t": 27840,
      "d": 480,
      "v": 100
    },
    {
      "midi": 44,
      "hit": false,
      "t": 27840,
      "d": 120,
      "v": 100
    },
    {
      "midi": 38,
      "hit": false,
      "t": 27840,
      "d": 480,
      "v": 100
    },
    {
      "midi": 44,
      "hit": false,
      "t": 28080,
      "d": 120,
      "v": 100
    },
    {
      "midi": 62,
      "hit": false,
      "t": 28200,
      "d": 3960,
      "v": 100
    },
    {
      "midi": 44,
      "hit": false,
      "t": 28200,
      "d": 120,
      "v": 100
    },
    {
      "midi": 66,
      "hit": false,
      "t": 28260,
      "d": 1980,
      "v": 100
    },
    {
      "midi": 26,
      "hit": false,
      "t": 28320,
      "d": 1920,
      "v": 100
    },
    {
      "midi": 69,
      "hit": false,
      "t": 28320,
      "d": 1920,
      "v": 100
    },
    {
      "midi": 81,
      "hit": false,
      "t": 28320,
      "d": 960,
      "v": 100
    },
    {
      "midi": 69,
      "hit": false,
      "t": 28320,
      "d": 960,
      "v": 100
    },
    {
      "midi": 57,
      "hit": false,
      "t": 28320,
      "d": 1920,
      "v": 100
    },
    {
      "midi": 44,
      "hit": false,
      "t": 28320,
      "d": 120,
      "v": 100
    },
    {
      "midi": 36,
      "hit": false,
      "t": 28320,
      "d": 480,
      "v": 100
    },
    {
      "midi": 44,
      "hit": false,
      "t": 28560,
      "d": 120,
      "v": 100
    },
    {
      "midi": 44,
      "hit": false,
      "t": 28680,
      "d": 120,
      "v": 100
    },
    {
      "midi": 44,
      "hit": false,
      "t": 28800,
      "d": 120,
      "v": 100
    },
    {
      "midi": 38,
      "hit": false,
      "t": 28800,
      "d": 480,
      "v": 100
    },
    {
      "midi": 44,
      "hit": false,
      "t": 29040,
      "d": 120,
      "v": 100
    },
    {
      "midi": 44,
      "hit": false,
      "t": 29160,
      "d": 120,
      "v": 100
    },
    {
      "midi": 88,
      "hit": false,
      "t": 29280,
      "d": 1440,
      "v": 100
    },
    {
      "midi": 76,
      "hit": false,
      "t": 29280,
      "d": 1440,
      "v": 100
    },
    {
      "midi": 44,
      "hit": false,
      "t": 29280,
      "d": 120,
      "v": 100
    },
    {
      "midi": 36,
      "hit": false,
      "t": 29280,
      "d": 480,
      "v": 100
    },
    {
      "midi": 44,
      "hit": false,
      "t": 29520,
      "d": 120,
      "v": 100
    },
    {
      "midi": 44,
      "hit": false,
      "t": 29640,
      "d": 120,
      "v": 100
    },
    {
      "midi": 44,
      "hit": false,
      "t": 29760,
      "d": 120,
      "v": 100
    },
    {
      "midi": 38,
      "hit": false,
      "t": 29760,
      "d": 480,
      "v": 100
    },
    {
      "midi": 44,
      "hit": false,
      "t": 30000,
      "d": 120,
      "v": 100
    },
    {
      "midi": 44,
      "hit": false,
      "t": 30120,
      "d": 120,
      "v": 100
    },
    {
      "midi": 67,
      "hit": false,
      "t": 30180,
      "d": 1980,
      "v": 100
    },
    {
      "midi": 31,
      "hit": false,
      "t": 30240,
      "d": 1920,
      "v": 100
    },
    {
      "midi": 71,
      "hit": false,
      "t": 30240,
      "d": 1920,
      "v": 100
    },
    {
      "midi": 59,
      "hit": false,
      "t": 30240,
      "d": 1920,
      "v": 100
    },
    {
      "midi": 44,
      "hit": false,
      "t": 30240,
      "d": 120,
      "v": 100
    },
    {
      "midi": 36,
      "hit": false,
      "t": 30240,
      "d": 480,
      "v": 100
    },
    {
      "midi": 44,
      "hit": false,
      "t": 30480,
      "d": 120,
      "v": 100
    },
    {
      "midi": 44,
      "hit": false,
      "t": 30600,
      "d": 120,
      "v": 100
    },
    {
      "midi": 79,
      "hit": false,
      "t": 30720,
      "d": 480,
      "v": 100
    },
    {
      "midi": 67,
      "hit": false,
      "t": 30720,
      "d": 480,
      "v": 100
    },
    {
      "midi": 44,
      "hit": false,
      "t": 30720,
      "d": 120,
      "v": 100
    },
    {
      "midi": 38,
      "hit": false,
      "t": 30720,
      "d": 480,
      "v": 100
    },
    {
      "midi": 44,
      "hit": false,
      "t": 30960,
      "d": 120,
      "v": 100
    },
    {
      "midi": 44,
      "hit": false,
      "t": 31080,
      "d": 120,
      "v": 100
    },
    {
      "midi": 81,
      "hit": false,
      "t": 31200,
      "d": 480,
      "v": 100
    },
    {
      "midi": 69,
      "hit": false,
      "t": 31200,
      "d": 480,
      "v": 100
    },
    {
      "midi": 44,
      "hit": false,
      "t": 31200,
      "d": 120,
      "v": 100
    },
    {
      "midi": 36,
      "hit": false,
      "t": 31200,
      "d": 480,
      "v": 100
    },
    {
      "midi": 44,
      "hit": false,
      "t": 31440,
      "d": 120,
      "v": 100
    },
    {
      "midi": 44,
      "hit": false,
      "t": 31560,
      "d": 120,
      "v": 100
    },
    {
      "midi": 83,
      "hit": false,
      "t": 31680,
      "d": 480,
      "v": 100
    },
    {
      "midi": 71,
      "hit": false,
      "t": 31680,
      "d": 480,
      "v": 100
    },
    {
      "midi": 44,
      "hit": false,
      "t": 31680,
      "d": 120,
      "v": 100
    },
    {
      "midi": 38,
      "hit": false,
      "t": 31680,
      "d": 480,
      "v": 100
    },
    {
      "midi": 44,
      "hit": false,
      "t": 31920,
      "d": 120,
      "v": 100
    },
    {
      "midi": 64,
      "hit": false,
      "t": 32040,
      "d": 2040,
      "v": 100
    },
    {
      "midi": 44,
      "hit": false,
      "t": 32040,
      "d": 120,
      "v": 100
    },
    {
      "midi": 69,
      "hit": false,
      "t": 32100,
      "d": 1980,
      "v": 100
    },
    {
      "midi": 33,
      "hit": false,
      "t": 32160,
      "d": 3840,
      "v": 100
    },
    {
      "midi": 73,
      "hit": false,
      "t": 32160,
      "d": 1920,
      "v": 100
    },
    {
      "midi": 81,
      "hit": false,
      "t": 32160,
      "d": 2880,
      "v": 100
    },
    {
      "midi": 69,
      "hit": false,
      "t": 32160,
      "d": 2880,
      "v": 100
    },
    {
      "midi": 61,
      "hit": false,
      "t": 32160,
      "d": 3840,
      "v": 100
    },
    {
      "midi": 44,
      "hit": false,
      "t": 32160,
      "d": 120,
      "v": 100
    },
    {
      "midi": 36,
      "hit": false,
      "t": 32160,
      "d": 480,
      "v": 100
    },
    {
      "midi": 44,
      "hit": false,
      "t": 32400,
      "d": 120,
      "v": 100
    },
    {
      "midi": 44,
      "hit": false,
      "t": 32520,
      "d": 120,
      "v": 100
    },
    {
      "midi": 44,
      "hit": false,
      "t": 32640,
      "d": 120,
      "v": 100
    },
    {
      "midi": 38,
      "hit": false,
      "t": 32640,
      "d": 480,
      "v": 100
    },
    {
      "midi": 44,
      "hit": false,
      "t": 32880,
      "d": 120,
      "v": 100
    },
    {
      "midi": 44,
      "hit": false,
      "t": 33000,
      "d": 120,
      "v": 100
    },
    {
      "midi": 44,
      "hit": false,
      "t": 33120,
      "d": 120,
      "v": 100
    },
    {
      "midi": 36,
      "hit": false,
      "t": 33120,
      "d": 480,
      "v": 100
    },
    {
      "midi": 44,
      "hit": false,
      "t": 33360,
      "d": 120,
      "v": 100
    },
    {
      "midi": 44,
      "hit": false,
      "t": 33480,
      "d": 120,
      "v": 100
    },
    {
      "midi": 44,
      "hit": false,
      "t": 33600,
      "d": 120,
      "v": 100
    },
    {
      "midi": 38,
      "hit": false,
      "t": 33600,
      "d": 480,
      "v": 100
    },
    {
      "midi": 44,
      "hit": false,
      "t": 33840,
      "d": 120,
      "v": 100
    },
    {
      "midi": 44,
      "hit": false,
      "t": 33960,
      "d": 120,
      "v": 100
    },
    {
      "midi": 44,
      "hit": false,
      "t": 34080,
      "d": 120,
      "v": 100
    },
    {
      "midi": 36,
      "hit": false,
      "t": 34080,
      "d": 480,
      "v": 100
    },
    {
      "midi": 44,
      "hit": false,
      "t": 34320,
      "d": 120,
      "v": 100
    },
    {
      "midi": 44,
      "hit": false,
      "t": 34440,
      "d": 120,
      "v": 100
    },
    {
      "midi": 44,
      "hit": false,
      "t": 34560,
      "d": 120,
      "v": 100
    },
    {
      "midi": 38,
      "hit": false,
      "t": 34560,
      "d": 480,
      "v": 100
    },
    {
      "midi": 44,
      "hit": false,
      "t": 34800,
      "d": 120,
      "v": 100
    },
    {
      "midi": 48,
      "hit": false,
      "t": 34800,
      "d": 240,
      "v": 100
    },
    {
      "midi": 44,
      "hit": false,
      "t": 34920,
      "d": 120,
      "v": 100
    },
    {
      "midi": 44,
      "hit": false,
      "t": 35040,
      "d": 120,
      "v": 100
    },
    {
      "midi": 36,
      "hit": false,
      "t": 35040,
      "d": 480,
      "v": 100
    },
    {
      "midi": 44,
      "hit": false,
      "t": 35280,
      "d": 120,
      "v": 100
    },
    {
      "midi": 45,
      "hit": false,
      "t": 35280,
      "d": 240,
      "v": 100
    },
    {
      "midi": 44,
      "hit": false,
      "t": 35400,
      "d": 120,
      "v": 100
    },
    {
      "midi": 44,
      "hit": false,
      "t": 35520,
      "d": 120,
      "v": 100
    },
    {
      "midi": 41,
      "hit": false,
      "t": 35520,
      "d": 240,
      "v": 100
    },
    {
      "midi": 38,
      "hit": false,
      "t": 35520,
      "d": 480,
      "v": 100
    },
    {
      "midi": 44,
      "hit": false,
      "t": 35760,
      "d": 120,
      "v": 100
    },
    {
      "midi": 44,
      "hit": false,
      "t": 35880,
      "d": 120,
      "v": 100
    },
    {
      "midi": 33,
      "hit": false,
      "t": 36000,
      "d": 3120,
      "v": 100
    },
    {
      "midi": 72,
      "hit": false,
      "t": 36000,
      "d": 960,
      "v": 100
    },
    {
      "midi": 64,
      "hit": false,
      "t": 36000,
      "d": 960,
      "v": 100
    },
    {
      "midi": 69,
      "hit": false,
      "t": 36000,
      "d": 960,
      "v": 100
    },
    {
      "midi": 69,
      "hit": false,
      "t": 36000,
      "d": 960,
      "v": 100
    },
    {
      "midi": 81,
      "hit": false,
      "t": 36000,
      "d": 960,
      "v": 100
    },
    {
      "midi": 57,
      "hit": false,
      "t": 36000,
      "d": 960,
      "v": 100
    },
    {
      "midi": 44,
      "hit": false,
      "t": 36000,
      "d": 120,
      "v": 100
    },
    {
      "midi": 36,
      "hit": false,
      "t": 36000,
      "d": 480,
      "v": 100
    },
    {
      "midi": 49,
      "hit": false,
      "t": 36000,
      "d": 480,
      "v": 100
    },
    {
      "midi": 44,
      "hit": false,
      "t": 36240,
      "d": 120,
      "v": 100
    },
    {
      "midi": 44,
      "hit": false,
      "t": 36360,
      "d": 120,
      "v": 100
    },
    {
      "midi": 44,
      "hit": false,
      "t": 36480,
      "d": 120,
      "v": 100
    },
    {
      "midi": 38,
      "hit": false,
      "t": 36480,
      "d": 480,
      "v": 100
    },
    {
      "midi": 44,
      "hit": false,
      "t": 36720,
      "d": 120,
      "v": 100
    },
    {
      "midi": 44,
      "hit": false,
      "t": 36840,
      "d": 120,
      "v": 100
    },
    {
      "midi": 69,
      "hit": false,
      "t": 36960,
      "d": 1920,
      "v": 100
    },
    {
      "midi": 76,
      "hit": false,
      "t": 36960,
      "d": 1920,
      "v": 100
    },
    {
      "midi": 72,
      "hit": false,
      "t": 36960,
      "d": 1920,
      "v": 100
    },
    {
      "midi": 76,
      "hit": false,
      "t": 36960,
      "d": 1440,
      "v": 100
    },
    {
      "midi": 88,
      "hit": false,
      "t": 36960,
      "d": 1440,
      "v": 100
    },
    {
      "midi": 60,
      "hit": false,
      "t": 36960,
      "d": 2880,
      "v": 100
    },
    {
      "midi": 44,
      "hit": false,
      "t": 36960,
      "d": 120,
      "v": 100
    },
    {
      "midi": 36,
      "hit": false,
      "t": 36960,
      "d": 480,
      "v": 100
    },
    {
      "midi": 44,
      "hit": false,
      "t": 37200,
      "d": 120,
      "v": 100
    },
    {
      "midi": 44,
      "hit": false,
      "t": 37320,
      "d": 120,
      "v": 100
    },
    {
      "midi": 44,
      "hit": false,
      "t": 37440,
      "d": 120,
      "v": 100
    },
    {
      "midi": 38,
      "hit": false,
      "t": 37440,
      "d": 480,
      "v": 100
    },
    {
      "midi": 44,
      "hit": false,
      "t": 37680,
      "d": 120,
      "v": 100
    },
    {
      "midi": 44,
      "hit": false,
      "t": 37800,
      "d": 120,
      "v": 100
    },
    {
      "midi": 44,
      "hit": false,
      "t": 37920,
      "d": 120,
      "v": 100
    },
    {
      "midi": 36,
      "hit": false,
      "t": 37920,
      "d": 480,
      "v": 100
    },
    {
      "midi": 44,
      "hit": false,
      "t": 38160,
      "d": 120,
      "v": 100
    },
    {
      "midi": 44,
      "hit": false,
      "t": 38280,
      "d": 120,
      "v": 100
    },
    {
      "midi": 72,
      "hit": false,
      "t": 38400,
      "d": 480,
      "v": 100
    },
    {
      "midi": 84,
      "hit": false,
      "t": 38400,
      "d": 480,
      "v": 100
    },
    {
      "midi": 44,
      "hit": false,
      "t": 38400,
      "d": 120,
      "v": 100
    },
    {
      "midi": 38,
      "hit": false,
      "t": 38400,
      "d": 480,
      "v": 100
    },
    {
      "midi": 44,
      "hit": false,
      "t": 38640,
      "d": 120,
      "v": 100
    },
    {
      "midi": 44,
      "hit": false,
      "t": 38760,
      "d": 120,
      "v": 100
    },
    {
      "midi": 74,
      "hit": false,
      "t": 38880,
      "d": 480,
      "v": 100
    },
    {
      "midi": 86,
      "hit": false,
      "t": 38880,
      "d": 480,
      "v": 100
    },
    {
      "midi": 44,
      "hit": false,
      "t": 38880,
      "d": 120,
      "v": 100
    },
    {
      "midi": 36,
      "hit": false,
      "t": 38880,
      "d": 480,
      "v": 100
    },
    {
      "midi": 35,
      "hit": false,
      "t": 39120,
      "d": 240,
      "v": 100
    },
    {
      "midi": 44,
      "hit": false,
      "t": 39120,
      "d": 120,
      "v": 100
    },
    {
      "midi": 44,
      "hit": false,
      "t": 39240,
      "d": 120,
      "v": 100
    },
    {
      "midi": 36,
      "hit": false,
      "t": 39360,
      "d": 240,
      "v": 100
    },
    {
      "midi": 76,
      "hit": false,
      "t": 39360,
      "d": 480,
      "v": 100
    },
    {
      "midi": 88,
      "hit": false,
      "t": 39360,
      "d": 480,
      "v": 100
    },
    {
      "midi": 44,
      "hit": false,
      "t": 39360,
      "d": 120,
      "v": 100
    },
    {
      "midi": 38,
      "hit": false,
      "t": 39360,
      "d": 480,
      "v": 100
    },
    {
      "midi": 35,
      "hit": false,
      "t": 39600,
      "d": 240,
      "v": 100
    },
    {
      "midi": 44,
      "hit": false,
      "t": 39600,
      "d": 120,
      "v": 100
    },
    {
      "midi": 44,
      "hit": false,
      "t": 39720,
      "d": 120,
      "v": 100
    },
    {
      "midi": 29,
      "hit": false,
      "t": 39840,
      "d": 3840,
      "v": 100
    },
    {
      "midi": 65,
      "hit": false,
      "t": 39840,
      "d": 960,
      "v": 100
    },
    {
      "midi": 72,
      "hit": false,
      "t": 39840,
      "d": 960,
      "v": 100
    },
    {
      "midi": 69,
      "hit": false,
      "t": 39840,
      "d": 960,
      "v": 100
    },
    {
      "midi": 81,
      "hit": false,
      "t": 39840,
      "d": 960,
      "v": 100
    },
    {
      "midi": 69,
      "hit": false,
      "t": 39840,
      "d": 960,
      "v": 100
    },
    {
      "midi": 57,
      "hit": false,
      "t": 39840,
      "d": 3840,
      "v": 100
    },
    {
      "midi": 44,
      "hit": false,
      "t": 39840,
      "d": 120,
      "v": 100
    },
    {
      "midi": 36,
      "hit": false,
      "t": 39840,
      "d": 480,
      "v": 100
    },
    {
      "midi": 44,
      "hit": false,
      "t": 40080,
      "d": 120,
      "v": 100
    },
    {
      "midi": 44,
      "hit": false,
      "t": 40200,
      "d": 120,
      "v": 100
    },
    {
      "midi": 44,
      "hit": false,
      "t": 40320,
      "d": 120,
      "v": 100
    },
    {
      "midi": 38,
      "hit": false,
      "t": 40320,
      "d": 480,
      "v": 100
    },
    {
      "midi": 44,
      "hit": false,
      "t": 40560,
      "d": 120,
      "v": 100
    },
    {
      "midi": 44,
      "hit": false,
      "t": 40680,
      "d": 120,
      "v": 100
    },
    {
      "midi": 72,
      "hit": false,
      "t": 40800,
      "d": 1920,
      "v": 100
    },
    {
      "midi": 76,
      "hit": false,
      "t": 40800,
      "d": 1920,
      "v": 100
    },
    {
      "midi": 69,
      "hit": false,
      "t": 40800,
      "d": 1920,
      "v": 100
    },
    {
      "midi": 88,
      "hit": false,
      "t": 40800,
      "d": 1440,
      "v": 100
    },
    {
      "midi": 76,
      "hit": false,
      "t": 40800,
      "d": 1440,
      "v": 100
    },
    {
      "midi": 44,
      "hit": false,
      "t": 40800,
      "d": 120,
      "v": 100
    },
    {
      "midi": 36,
      "hit": false,
      "t": 40800,
      "d": 480,
      "v": 100
    },
    {
      "midi": 44,
      "hit": false,
      "t": 41040,
      "d": 120,
      "v": 100
    },
    {
      "midi": 44,
      "hit": false,
      "t": 41160,
      "d": 120,
      "v": 100
    },
    {
      "midi": 44,
      "hit": false,
      "t": 41280,
      "d": 120,
      "v": 100
    },
    {
      "midi": 38,
      "hit": false,
      "t": 41280,
      "d": 480,
      "v": 100
    },
    {
      "midi": 44,
      "hit": false,
      "t": 41520,
      "d": 120,
      "v": 100
    },
    {
      "midi": 44,
      "hit": false,
      "t": 41640,
      "d": 120,
      "v": 100
    },
    {
      "midi": 44,
      "hit": false,
      "t": 41760,
      "d": 120,
      "v": 100
    },
    {
      "midi": 36,
      "hit": false,
      "t": 41760,
      "d": 480,
      "v": 100
    },
    {
      "midi": 44,
      "hit": false,
      "t": 42000,
      "d": 120,
      "v": 100
    },
    {
      "midi": 44,
      "hit": false,
      "t": 42120,
      "d": 120,
      "v": 100
    },
    {
      "midi": 84,
      "hit": false,
      "t": 42240,
      "d": 480,
      "v": 100
    },
    {
      "midi": 72,
      "hit": false,
      "t": 42240,
      "d": 480,
      "v": 100
    },
    {
      "midi": 44,
      "hit": false,
      "t": 42240,
      "d": 120,
      "v": 100
    },
    {
      "midi": 38,
      "hit": false,
      "t": 42240,
      "d": 480,
      "v": 100
    },
    {
      "midi": 44,
      "hit": false,
      "t": 42480,
      "d": 120,
      "v": 100
    },
    {
      "midi": 44,
      "hit": false,
      "t": 42600,
      "d": 120,
      "v": 100
    },
    {
      "midi": 86,
      "hit": false,
      "t": 42720,
      "d": 480,
      "v": 100
    },
    {
      "midi": 74,
      "hit": false,
      "t": 42720,
      "d": 480,
      "v": 100
    },
    {
      "midi": 44,
      "hit": false,
      "t": 42720,
      "d": 120,
      "v": 100
    },
    {
      "midi": 36,
      "hit": false,
      "t": 42720,
      "d": 480,
      "v": 100
    },
    {
      "midi": 44,
      "hit": false,
      "t": 42960,
      "d": 120,
      "v": 100
    },
    {
      "midi": 44,
      "hit": false,
      "t": 43080,
      "d": 120,
      "v": 100
    },
    {
      "midi": 88,
      "hit": false,
      "t": 43200,
      "d": 480,
      "v": 100
    },
    {
      "midi": 76,
      "hit": false,
      "t": 43200,
      "d": 480,
      "v": 100
    },
    {
      "midi": 44,
      "hit": false,
      "t": 43200,
      "d": 120,
      "v": 100
    },
    {
      "midi": 38,
      "hit": false,
      "t": 43200,
      "d": 480,
      "v": 100
    },
    {
      "midi": 44,
      "hit": false,
      "t": 43440,
      "d": 120,
      "v": 100
    },
    {
      "midi": 62,
      "hit": false,
      "t": 43560,
      "d": 3960,
      "v": 100
    },
    {
      "midi": 44,
      "hit": false,
      "t": 43560,
      "d": 120,
      "v": 100
    },
    {
      "midi": 66,
      "hit": false,
      "t": 43620,
      "d": 1980,
      "v": 100
    },
    {
      "midi": 26,
      "hit": false,
      "t": 43680,
      "d": 1920,
      "v": 100
    },
    {
      "midi": 69,
      "hit": false,
      "t": 43680,
      "d": 1920,
      "v": 100
    },
    {
      "midi": 69,
      "hit": false,
      "t": 43680,
      "d": 960,
      "v": 100
    },
    {
      "midi": 81,
      "hit": false,
      "t": 43680,
      "d": 960,
      "v": 100
    },
    {
      "midi": 57,
      "hit": false,
      "t": 43680,
      "d": 1920,
      "v": 100
    },
    {
      "midi": 44,
      "hit": false,
      "t": 43680,
      "d": 120,
      "v": 100
    },
    {
      "midi": 36,
      "hit": false,
      "t": 43680,
      "d": 480,
      "v": 100
    },
    {
      "midi": 44,
      "hit": false,
      "t": 43920,
      "d": 120,
      "v": 100
    },
    {
      "midi": 44,
      "hit": false,
      "t": 44040,
      "d": 120,
      "v": 100
    },
    {
      "midi": 44,
      "hit": false,
      "t": 44160,
      "d": 120,
      "v": 100
    },
    {
      "midi": 38,
      "hit": false,
      "t": 44160,
      "d": 480,
      "v": 100
    },
    {
      "midi": 44,
      "hit": false,
      "t": 44400,
      "d": 120,
      "v": 100
    },
    {
      "midi": 44,
      "hit": false,
      "t": 44520,
      "d": 120,
      "v": 100
    },
    {
      "midi": 76,
      "hit": false,
      "t": 44640,
      "d": 1440,
      "v": 100
    },
    {
      "midi": 88,
      "hit": false,
      "t": 44640,
      "d": 1440,
      "v": 100
    },
    {
      "midi": 44,
      "hit": false,
      "t": 44640,
      "d": 120,
      "v": 100
    },
    {
      "midi": 36,
      "hit": false,
      "t": 44640,
      "d": 480,
      "v": 100
    },
    {
      "midi": 44,
      "hit": false,
      "t": 44880,
      "d": 120,
      "v": 100
    },
    {
      "midi": 44,
      "hit": false,
      "t": 45000,
      "d": 120,
      "v": 100
    },
    {
      "midi": 44,
      "hit": false,
      "t": 45120,
      "d": 120,
      "v": 100
    },
    {
      "midi": 38,
      "hit": false,
      "t": 45120,
      "d": 480,
      "v": 100
    },
    {
      "midi": 44,
      "hit": false,
      "t": 45360,
      "d": 120,
      "v": 100
    },
    {
      "midi": 44,
      "hit": false,
      "t": 45480,
      "d": 120,
      "v": 100
    },
    {
      "midi": 67,
      "hit": false,
      "t": 45540,
      "d": 1980,
      "v": 100
    },
    {
      "midi": 31,
      "hit": false,
      "t": 45600,
      "d": 1920,
      "v": 100
    },
    {
      "midi": 71,
      "hit": false,
      "t": 45600,
      "d": 1920,
      "v": 100
    },
    {
      "midi": 59,
      "hit": false,
      "t": 45600,
      "d": 1920,
      "v": 100
    },
    {
      "midi": 44,
      "hit": false,
      "t": 45600,
      "d": 120,
      "v": 100
    },
    {
      "midi": 36,
      "hit": false,
      "t": 45600,
      "d": 480,
      "v": 100
    },
    {
      "midi": 44,
      "hit": false,
      "t": 45840,
      "d": 120,
      "v": 100
    },
    {
      "midi": 44,
      "hit": false,
      "t": 45960,
      "d": 120,
      "v": 100
    },
    {
      "midi": 67,
      "hit": false,
      "t": 46080,
      "d": 480,
      "v": 100
    },
    {
      "midi": 79,
      "hit": false,
      "t": 46080,
      "d": 480,
      "v": 100
    },
    {
      "midi": 44,
      "hit": false,
      "t": 46080,
      "d": 120,
      "v": 100
    },
    {
      "midi": 38,
      "hit": false,
      "t": 46080,
      "d": 480,
      "v": 100
    },
    {
      "midi": 44,
      "hit": false,
      "t": 46320,
      "d": 120,
      "v": 100
    },
    {
      "midi": 44,
      "hit": false,
      "t": 46440,
      "d": 120,
      "v": 100
    },
    {
      "midi": 69,
      "hit": false,
      "t": 46560,
      "d": 480,
      "v": 100
    },
    {
      "midi": 81,
      "hit": false,
      "t": 46560,
      "d": 480,
      "v": 100
    },
    {
      "midi": 44,
      "hit": false,
      "t": 46560,
      "d": 120,
      "v": 100
    },
    {
      "midi": 36,
      "hit": false,
      "t": 46560,
      "d": 480,
      "v": 100
    },
    {
      "midi": 44,
      "hit": false,
      "t": 46800,
      "d": 120,
      "v": 100
    },
    {
      "midi": 44,
      "hit": false,
      "t": 46920,
      "d": 120,
      "v": 100
    },
    {
      "midi": 71,
      "hit": false,
      "t": 47040,
      "d": 480,
      "v": 100
    },
    {
      "midi": 83,
      "hit": false,
      "t": 47040,
      "d": 480,
      "v": 100
    },
    {
      "midi": 44,
      "hit": false,
      "t": 47040,
      "d": 120,
      "v": 100
    },
    {
      "midi": 38,
      "hit": false,
      "t": 47040,
      "d": 480,
      "v": 100
    },
    {
      "midi": 44,
      "hit": false,
      "t": 47280,
      "d": 120,
      "v": 100
    },
    {
      "midi": 44,
      "hit": false,
      "t": 47400,
      "d": 120,
      "v": 100
    },
    {
      "midi": 33,
      "hit": false,
      "t": 47520,
      "d": 3840,
      "v": 100
    },
    {
      "midi": 72,
      "hit": false,
      "t": 47520,
      "d": 3840,
      "v": 100
    },
    {
      "midi": 60,
      "hit": false,
      "t": 47520,
      "d": 3840,
      "v": 100
    },
    {
      "midi": 81,
      "hit": false,
      "t": 47520,
      "d": 3840,
      "v": 100
    },
    {
      "midi": 69,
      "hit": false,
      "t": 47520,
      "d": 3840,
      "v": 100
    },
    {
      "midi": 33,
      "hit": false,
      "t": 47520,
      "d": 240,
      "v": 100
    },
    {
      "midi": 44,
      "hit": false,
      "t": 47520,
      "d": 120,
      "v": 100
    },
    {
      "midi": 36,
      "hit": false,
      "t": 47520,
      "d": 480,
      "v": 100
    },
    {
      "midi": 33,
      "hit": false,
      "t": 47760,
      "d": 240,
      "v": 100
    },
    {
      "midi": 44,
      "hit": false,
      "t": 47760,
      "d": 120,
      "v": 100
    },
    {
      "midi": 44,
      "hit": false,
      "t": 47880,
      "d": 120,
      "v": 100
    },
    {
      "midi": 33,
      "hit": false,
      "t": 48000,
      "d": 240,
      "v": 100
    },
    {
      "midi": 44,
      "hit": false,
      "t": 48000,
      "d": 120,
      "v": 100
    },
    {
      "midi": 38,
      "hit": false,
      "t": 48000,
      "d": 480,
      "v": 100
    },
    {
      "midi": 33,
      "hit": false,
      "t": 48240,
      "d": 240,
      "v": 100
    },
    {
      "midi": 44,
      "hit": false,
      "t": 48240,
      "d": 120,
      "v": 100
    },
    {
      "midi": 44,
      "hit": false,
      "t": 48360,
      "d": 120,
      "v": 100
    },
    {
      "midi": 33,
      "hit": false,
      "t": 48480,
      "d": 240,
      "v": 100
    },
    {
      "midi": 44,
      "hit": false,
      "t": 48480,
      "d": 120,
      "v": 100
    },
    {
      "midi": 36,
      "hit": false,
      "t": 48480,
      "d": 480,
      "v": 100
    },
    {
      "midi": 33,
      "hit": false,
      "t": 48720,
      "d": 240,
      "v": 100
    },
    {
      "midi": 44,
      "hit": false,
      "t": 48720,
      "d": 120,
      "v": 100
    },
    {
      "midi": 44,
      "hit": false,
      "t": 48840,
      "d": 120,
      "v": 100
    },
    {
      "midi": 33,
      "hit": false,
      "t": 48960,
      "d": 240,
      "v": 100
    },
    {
      "midi": 44,
      "hit": false,
      "t": 48960,
      "d": 120,
      "v": 100
    },
    {
      "midi": 38,
      "hit": false,
      "t": 48960,
      "d": 480,
      "v": 100
    },
    {
      "midi": 33,
      "hit": false,
      "t": 49200,
      "d": 240,
      "v": 100
    },
    {
      "midi": 44,
      "hit": false,
      "t": 49200,
      "d": 120,
      "v": 100
    },
    {
      "midi": 72,
      "hit": false,
      "t": 49320,
      "d": 2040,
      "v": 100
    },
    {
      "midi": 44,
      "hit": false,
      "t": 49320,
      "d": 120,
      "v": 100
    },
    {
      "midi": 76,
      "hit": false,
      "t": 49380,
      "d": 1980,
      "v": 100
    },
    {
      "midi": 81,
      "hit": false,
      "t": 49440,
      "d": 1920,
      "v": 100
    },
    {
      "midi": 33,
      "hit": false,
      "t": 49440,
      "d": 240,
      "v": 100
    },
    {
      "midi": 44,
      "hit": false,
      "t": 49440,
      "d": 120,
      "v": 100
    },
    {
      "midi": 36,
      "hit": false,
      "t": 49440,
      "d": 480,
      "v": 100
    },
    {
      "midi": 33,
      "hit": false,
      "t": 49680,
      "d": 240,
      "v": 100
    },
    {
      "midi": 44,
      "hit": false,
      "t": 49680,
      "d": 120,
      "v": 100
    },
    {
      "midi": 44,
      "hit": false,
      "t": 49800,
      "d": 120,
      "v": 100
    },
    {
      "midi": 33,
      "hit": false,
      "t": 49920,
      "d": 240,
      "v": 100
    },
    {
      "midi": 44,
      "hit": false,
      "t": 49920,
      "d": 120,
      "v": 100
    },
    {
      "midi": 38,
      "hit": false,
      "t": 49920,
      "d": 480,
      "v": 100
    },
    {
      "midi": 33,
      "hit": false,
      "t": 50160,
      "d": 240,
      "v": 100
    },
    {
      "midi": 44,
      "hit": false,
      "t": 50160,
      "d": 120,
      "v": 100
    },
    {
      "midi": 48,
      "hit": false,
      "t": 50160,
      "d": 240,
      "v": 100
    },
    {
      "midi": 44,
      "hit": false,
      "t": 50280,
      "d": 120,
      "v": 100
    },
    {
      "midi": 33,
      "hit": false,
      "t": 50400,
      "d": 240,
      "v": 100
    },
    {
      "midi": 44,
      "hit": false,
      "t": 50400,
      "d": 120,
      "v": 100
    },
    {
      "midi": 36,
      "hit": false,
      "t": 50400,
      "d": 480,
      "v": 100
    },
    {
      "midi": 33,
      "hit": false,
      "t": 50640,
      "d": 240,
      "v": 100
    },
    {
      "midi": 44,
      "hit": false,
      "t": 50640,
      "d": 120,
      "v": 100
    },
    {
      "midi": 45,
      "hit": false,
      "t": 50640,
      "d": 240,
      "v": 100
    },
    {
      "midi": 44,
      "hit": false,
      "t": 50760,
      "d": 120,
      "v": 100
    },
    {
      "midi": 33,
      "hit": false,
      "t": 50880,
      "d": 240,
      "v": 100
    },
    {
      "midi": 44,
      "hit": false,
      "t": 50880,
      "d": 120,
      "v": 100
    },
    {
      "midi": 38,
      "hit": false,
      "t": 50880,
      "d": 480,
      "v": 100
    },
    {
      "midi": 33,
      "hit": false,
      "t": 51120,
      "d": 240,
      "v": 100
    },
    {
      "midi": 44,
      "hit": false,
      "t": 51120,
      "d": 120,
      "v": 100
    },
    {
      "midi": 41,
      "hit": false,
      "t": 51120,
      "d": 240,
      "v": 100
    },
    {
      "midi": 44,
      "hit": false,
      "t": 51240,
      "d": 120,
      "v": 100
    },
    {
      "midi": 34,
      "hit": false,
      "t": 51360,
      "d": 1920,
      "v": 100
    },
    {
      "midi": 74,
      "hit": false,
      "t": 51360,
      "d": 1920,
      "v": 100
    },
    {
      "midi": 82,
      "hit": false,
      "t": 51360,
      "d": 1920,
      "v": 100
    },
    {
      "midi": 86,
      "hit": false,
      "t": 51360,
      "d": 1920,
      "v": 100
    },
    {
      "midi": 34,
      "hit": false,
      "t": 51360,
      "d": 240,
      "v": 100
    },
    {
      "midi": 44,
      "hit": false,
      "t": 51360,
      "d": 120,
      "v": 100
    },
    {
      "midi": 36,
      "hit": false,
      "t": 51360,
      "d": 480,
      "v": 100
    },
    {
      "midi": 65,
      "hit": false,
      "t": 51360,
      "d": 480,
      "v": 100
    },
    {
      "midi": 34,
      "hit": false,
      "t": 51600,
      "d": 240,
      "v": 100
    },
    {
      "midi": 44,
      "hit": false,
      "t": 51600,
      "d": 120,
      "v": 100
    },
    {
      "midi": 44,
      "hit": false,
      "t": 51720,
      "d": 120,
      "v": 100
    },
    {
      "midi": 34,
      "hit": false,
      "t": 51840,
      "d": 240,
      "v": 100
    },
    {
      "midi": 44,
      "hit": false,
      "t": 51840,
      "d": 120,
      "v": 100
    },
    {
      "midi": 38,
      "hit": false,
      "t": 51840,
      "d": 480,
      "v": 100
    },
    {
      "midi": 64,
      "hit": false,
      "t": 51840,
      "d": 240,
      "v": 100
    },
    {
      "midi": 34,
      "hit": false,
      "t": 52080,
      "d": 240,
      "v": 100
    },
    {
      "midi": 44,
      "hit": false,
      "t": 52080,
      "d": 120,
      "v": 100
    },
    {
      "midi": 62,
      "hit": false,
      "t": 52080,
      "d": 480,
      "v": 100
    },
    {
      "midi": 44,
      "hit": false,
      "t": 52200,
      "d": 120,
      "v": 100
    },
    {
      "midi": 34,
      "hit": false,
      "t": 52320,
      "d": 240,
      "v": 100
    },
    {
      "midi": 44,
      "hit": false,
      "t": 52320,
      "d": 120,
      "v": 100
    },
    {
      "midi": 36,
      "hit": false,
      "t": 52320,
      "d": 480,
      "v": 100
    },
    {
      "midi": 34,
      "hit": false,
      "t": 52560,
      "d": 240,
      "v": 100
    },
    {
      "midi": 44,
      "hit": false,
      "t": 52560,
      "d": 120,
      "v": 100
    },
    {
      "midi": 60,
      "hit": false,
      "t": 52560,
      "d": 720,
      "v": 100
    },
    {
      "midi": 44,
      "hit": false,
      "t": 52680,
      "d": 120,
      "v": 100
    },
    {
      "midi": 34,
      "hit": false,
      "t": 52800,
      "d": 240,
      "v": 100
    },
    {
      "midi": 44,
      "hit": false,
      "t": 52800,
      "d": 120,
      "v": 100
    },
    {
      "midi": 38,
      "hit": false,
      "t": 52800,
      "d": 480,
      "v": 100
    },
    {
      "midi": 34,
      "hit": false,
      "t": 53040,
      "d": 240,
      "v": 100
    },
    {
      "midi": 44,
      "hit": false,
      "t": 53040,
      "d": 120,
      "v": 100
    },
    {
      "midi": 44,
      "hit": false,
      "t": 53160,
      "d": 120,
      "v": 100
    },
    {
      "midi": 33,
      "hit": false,
      "t": 53280,
      "d": 1920,
      "v": 100
    },
    {
      "midi": 72,
      "hit": false,
      "t": 53280,
      "d": 1920,
      "v": 100
    },
    {
      "midi": 79,
      "hit": false,
      "t": 53280,
      "d": 1920,
      "v": 100
    },
    {
      "midi": 84,
      "hit": false,
      "t": 53280,
      "d": 1920,
      "v": 100
    },
    {
      "midi": 33,
      "hit": false,
      "t": 53280,
      "d": 240,
      "v": 100
    },
    {
      "midi": 44,
      "hit": false,
      "t": 53280,
      "d": 120,
      "v": 100
    },
    {
      "midi": 36,
      "hit": false,
      "t": 53280,
      "d": 480,
      "v": 100
    },
    {
      "midi": 65,
      "hit": false,
      "t": 53280,
      "d": 480,
      "v": 100
    },
    {
      "midi": 33,
      "hit": false,
      "t": 53520,
      "d": 240,
      "v": 100
    },
    {
      "midi": 44,
      "hit": false,
      "t": 53520,
      "d": 120,
      "v": 100
    },
    {
      "midi": 44,
      "hit": false,
      "t": 53640,
      "d": 120,
      "v": 100
    },
    {
      "midi": 33,
      "hit": false,
      "t": 53760,
      "d": 240,
      "v": 100
    },
    {
      "midi": 44,
      "hit": false,
      "t": 53760,
      "d": 120,
      "v": 100
    },
    {
      "midi": 38,
      "hit": false,
      "t": 53760,
      "d": 480,
      "v": 100
    },
    {
      "midi": 64,
      "hit": false,
      "t": 53760,
      "d": 240,
      "v": 100
    },
    {
      "midi": 33,
      "hit": false,
      "t": 54000,
      "d": 240,
      "v": 100
    },
    {
      "midi": 44,
      "hit": false,
      "t": 54000,
      "d": 120,
      "v": 100
    },
    {
      "midi": 62,
      "hit": false,
      "t": 54000,
      "d": 480,
      "v": 100
    },
    {
      "midi": 44,
      "hit": false,
      "t": 54120,
      "d": 120,
      "v": 100
    },
    {
      "midi": 33,
      "hit": false,
      "t": 54240,
      "d": 240,
      "v": 100
    },
    {
      "midi": 44,
      "hit": false,
      "t": 54240,
      "d": 120,
      "v": 100
    },
    {
      "midi": 36,
      "hit": false,
      "t": 54240,
      "d": 480,
      "v": 100
    },
    {
      "midi": 33,
      "hit": false,
      "t": 54480,
      "d": 240,
      "v": 100
    },
    {
      "midi": 44,
      "hit": false,
      "t": 54480,
      "d": 120,
      "v": 100
    },
    {
      "midi": 60,
      "hit": false,
      "t": 54480,
      "d": 720,
      "v": 100
    },
    {
      "midi": 44,
      "hit": false,
      "t": 54600,
      "d": 120,
      "v": 100
    },
    {
      "midi": 33,
      "hit": false,
      "t": 54720,
      "d": 240,
      "v": 100
    },
    {
      "midi": 44,
      "hit": false,
      "t": 54720,
      "d": 120,
      "v": 100
    },
    {
      "midi": 49,
      "hit": false,
      "t": 54720,
      "d": 480,
      "v": 100
    },
    {
      "midi": 38,
      "hit": false,
      "t": 54720,
      "d": 480,
      "v": 100
    },
    {
      "midi": 33,
      "hit": false,
      "t": 54960,
      "d": 240,
      "v": 100
    },
    {
      "midi": 44,
      "hit": false,
      "t": 54960,
      "d": 120,
      "v": 100
    },
    {
      "midi": 44,
      "hit": false,
      "t": 55080,
      "d": 120,
      "v": 100
    },
    {
      "midi": 32,
      "hit": false,
      "t": 55200,
      "d": 1920,
      "v": 100
    },
    {
      "midi": 86,
      "hit": false,
      "t": 55200,
      "d": 1920,
      "v": 100
    },
    {
      "midi": 82,
      "hit": false,
      "t": 55200,
      "d": 1920,
      "v": 100
    },
    {
      "midi": 74,
      "hit": false,
      "t": 55200,
      "d": 1920,
      "v": 100
    },
    {
      "midi": 32,
      "hit": false,
      "t": 55200,
      "d": 240,
      "v": 100
    },
    {
      "midi": 44,
      "hit": false,
      "t": 55200,
      "d": 120,
      "v": 100
    },
    {
      "midi": 36,
      "hit": false,
      "t": 55200,
      "d": 480,
      "v": 100
    },
    {
      "midi": 65,
      "hit": false,
      "t": 55200,
      "d": 480,
      "v": 100
    },
    {
      "midi": 32,
      "hit": false,
      "t": 55440,
      "d": 240,
      "v": 100
    },
    {
      "midi": 44,
      "hit": false,
      "t": 55440,
      "d": 120,
      "v": 100
    },
    {
      "midi": 44,
      "hit": false,
      "t": 55560,
      "d": 120,
      "v": 100
    },
    {
      "midi": 32,
      "hit": false,
      "t": 55680,
      "d": 240,
      "v": 100
    },
    {
      "midi": 44,
      "hit": false,
      "t": 55680,
      "d": 120,
      "v": 100
    },
    {
      "midi": 38,
      "hit": false,
      "t": 55680,
      "d": 480,
      "v": 100
    },
    {
      "midi": 64,
      "hit": false,
      "t": 55680,
      "d": 240,
      "v": 100
    },
    {
      "midi": 32,
      "hit": false,
      "t": 55920,
      "d": 240,
      "v": 100
    },
    {
      "midi": 44,
      "hit": false,
      "t": 55920,
      "d": 120,
      "v": 100
    },
    {
      "midi": 62,
      "hit": false,
      "t": 55920,
      "d": 480,
      "v": 100
    },
    {
      "midi": 44,
      "hit": false,
      "t": 56040,
      "d": 120,
      "v": 100
    },
    {
      "midi": 32,
      "hit": false,
      "t": 56160,
      "d": 240,
      "v": 100
    },
    {
      "midi": 44,
      "hit": false,
      "t": 56160,
      "d": 120,
      "v": 100
    },
    {
      "midi": 36,
      "hit": false,
      "t": 56160,
      "d": 480,
      "v": 100
    },
    {
      "midi": 32,
      "hit": false,
      "t": 56400,
      "d": 240,
      "v": 100
    },
    {
      "midi": 44,
      "hit": false,
      "t": 56400,
      "d": 120,
      "v": 100
    },
    {
      "midi": 60,
      "hit": false,
      "t": 56400,
      "d": 720,
      "v": 100
    },
    {
      "midi": 44,
      "hit": false,
      "t": 56520,
      "d": 120,
      "v": 100
    },
    {
      "midi": 32,
      "hit": false,
      "t": 56640,
      "d": 240,
      "v": 100
    },
    {
      "midi": 44,
      "hit": false,
      "t": 56640,
      "d": 120,
      "v": 100
    },
    {
      "midi": 38,
      "hit": false,
      "t": 56640,
      "d": 480,
      "v": 100
    },
    {
      "midi": 32,
      "hit": false,
      "t": 56880,
      "d": 240,
      "v": 100
    },
    {
      "midi": 44,
      "hit": false,
      "t": 56880,
      "d": 120,
      "v": 100
    },
    {
      "midi": 44,
      "hit": false,
      "t": 57000,
      "d": 120,
      "v": 100
    },
    {
      "midi": 31,
      "hit": false,
      "t": 57120,
      "d": 1920,
      "v": 100
    },
    {
      "midi": 79,
      "hit": false,
      "t": 57120,
      "d": 480,
      "v": 100
    },
    {
      "midi": 83,
      "hit": false,
      "t": 57120,
      "d": 480,
      "v": 100
    },
    {
      "midi": 71,
      "hit": false,
      "t": 57120,
      "d": 480,
      "v": 100
    },
    {
      "midi": 31,
      "hit": false,
      "t": 57120,
      "d": 240,
      "v": 100
    },
    {
      "midi": 44,
      "hit": false,
      "t": 57120,
      "d": 120,
      "v": 100
    },
    {
      "midi": 36,
      "hit": false,
      "t": 57120,
      "d": 480,
      "v": 100
    },
    {
      "midi": 59,
      "hit": false,
      "t": 57120,
      "d": 480,
      "v": 100
    },
    {
      "midi": 31,
      "hit": false,
      "t": 57360,
      "d": 240,
      "v": 100
    },
    {
      "midi": 44,
      "hit": false,
      "t": 57360,
      "d": 120,
      "v": 100
    },
    {
      "midi": 44,
      "hit": false,
      "t": 57480,
      "d": 120,
      "v": 100
    },
    {
      "midi": 84,
      "hit": false,
      "t": 57600,
      "d": 240,
      "v": 100
    },
    {
      "midi": 72,
      "hit": false,
      "t": 57600,
      "d": 240,
      "v": 100
    },
    {
      "midi": 31,
      "hit": false,
      "t": 57600,
      "d": 240,
      "v": 100
    },
    {
      "midi": 44,
      "hit": false,
      "t": 57600,
      "d": 120,
      "v": 100
    },
    {
      "midi": 38,
      "hit": false,
      "t": 57600,
      "d": 480,
      "v": 100
    },
    {
      "midi": 60,
      "hit": false,
      "t": 57600,
      "d": 240,
      "v": 100
    },
    {
      "midi": 86,
      "hit": false,
      "t": 57840,
      "d": 960,
      "v": 100
    },
    {
      "midi": 74,
      "hit": false,
      "t": 57840,
      "d": 960,
      "v": 100
    },
    {
      "midi": 31,
      "hit": false,
      "t": 57840,
      "d": 240,
      "v": 100
    },
    {
      "midi": 44,
      "hit": false,
      "t": 57840,
      "d": 120,
      "v": 100
    },
    {
      "midi": 62,
      "hit": false,
      "t": 57840,
      "d": 960,
      "v": 100
    },
    {
      "midi": 44,
      "hit": false,
      "t": 57960,
      "d": 120,
      "v": 100
    },
    {
      "midi": 31,
      "hit": false,
      "t": 58080,
      "d": 240,
      "v": 100
    },
    {
      "midi": 44,
      "hit": false,
      "t": 58080,
      "d": 120,
      "v": 100
    },
    {
      "midi": 36,
      "hit": false,
      "t": 58080,
      "d": 480,
      "v": 100
    },
    {
      "midi": 31,
      "hit": false,
      "t": 58320,
      "d": 240,
      "v": 100
    },
    {
      "midi": 44,
      "hit": false,
      "t": 58320,
      "d": 120,
      "v": 100
    },
    {
      "midi": 44,
      "hit": false,
      "t": 58440,
      "d": 120,
      "v": 100
    },
    {
      "midi": 31,
      "hit": false,
      "t": 58560,
      "d": 240,
      "v": 100
    },
    {
      "midi": 44,
      "hit": false,
      "t": 58560,
      "d": 120,
      "v": 100
    },
    {
      "midi": 49,
      "hit": false,
      "t": 58560,
      "d": 480,
      "v": 100
    },
    {
      "midi": 38,
      "hit": false,
      "t": 58560,
      "d": 480,
      "v": 100
    },
    {
      "midi": 31,
      "hit": false,
      "t": 58800,
      "d": 240,
      "v": 100
    },
    {
      "midi": 44,
      "hit": false,
      "t": 58800,
      "d": 120,
      "v": 100
    },
    {
      "midi": 74,
      "hit": false,
      "t": 58920,
      "d": 2040,
      "v": 100
    },
    {
      "midi": 44,
      "hit": false,
      "t": 58920,
      "d": 120,
      "v": 100
    },
    {
      "midi": 82,
      "hit": false,
      "t": 58980,
      "d": 1980,
      "v": 100
    },
    {
      "midi": 34,
      "hit": false,
      "t": 59040,
      "d": 1920,
      "v": 100
    },
    {
      "midi": 86,
      "hit": false,
      "t": 59040,
      "d": 1920,
      "v": 100
    },
    {
      "midi": 34,
      "hit": false,
      "t": 59040,
      "d": 240,
      "v": 100
    },
    {
      "midi": 44,
      "hit": false,
      "t": 59040,
      "d": 120,
      "v": 100
    },
    {
      "midi": 36,
      "hit": false,
      "t": 59040,
      "d": 480,
      "v": 100
    },
    {
      "midi": 65,
      "hit": false,
      "t": 59040,
      "d": 480,
      "v": 100
    },
    {
      "midi": 34,
      "hit": false,
      "t": 59280,
      "d": 240,
      "v": 100
    },
    {
      "midi": 44,
      "hit": false,
      "t": 59280,
      "d": 120,
      "v": 100
    },
    {
      "midi": 44,
      "hit": false,
      "t": 59400,
      "d": 120,
      "v": 100
    },
    {
      "midi": 34,
      "hit": false,
      "t": 59520,
      "d": 240,
      "v": 100
    },
    {
      "midi": 44,
      "hit": false,
      "t": 59520,
      "d": 120,
      "v": 100
    },
    {
      "midi": 38,
      "hit": false,
      "t": 59520,
      "d": 480,
      "v": 100
    },
    {
      "midi": 64,
      "hit": false,
      "t": 59520,
      "d": 240,
      "v": 100
    },
    {
      "midi": 34,
      "hit": false,
      "t": 59760,
      "d": 240,
      "v": 100
    },
    {
      "midi": 44,
      "hit": false,
      "t": 59760,
      "d": 120,
      "v": 100
    },
    {
      "midi": 62,
      "hit": false,
      "t": 59760,
      "d": 480,
      "v": 100
    },
    {
      "midi": 44,
      "hit": false,
      "t": 59880,
      "d": 120,
      "v": 100
    },
    {
      "midi": 34,
      "hit": false,
      "t": 60000,
      "d": 240,
      "v": 100
    },
    {
      "midi": 44,
      "hit": false,
      "t": 60000,
      "d": 120,
      "v": 100
    },
    {
      "midi": 36,
      "hit": false,
      "t": 60000,
      "d": 480,
      "v": 100
    },
    {
      "midi": 34,
      "hit": false,
      "t": 60240,
      "d": 240,
      "v": 100
    },
    {
      "midi": 44,
      "hit": false,
      "t": 60240,
      "d": 120,
      "v": 100
    },
    {
      "midi": 60,
      "hit": false,
      "t": 60240,
      "d": 720,
      "v": 100
    },
    {
      "midi": 44,
      "hit": false,
      "t": 60360,
      "d": 120,
      "v": 100
    },
    {
      "midi": 34,
      "hit": false,
      "t": 60480,
      "d": 240,
      "v": 100
    },
    {
      "midi": 44,
      "hit": false,
      "t": 60480,
      "d": 120,
      "v": 100
    },
    {
      "midi": 38,
      "hit": false,
      "t": 60480,
      "d": 480,
      "v": 100
    },
    {
      "midi": 34,
      "hit": false,
      "t": 60720,
      "d": 240,
      "v": 100
    },
    {
      "midi": 44,
      "hit": false,
      "t": 60720,
      "d": 120,
      "v": 100
    },
    {
      "midi": 44,
      "hit": false,
      "t": 60840,
      "d": 120,
      "v": 100
    },
    {
      "midi": 33,
      "hit": false,
      "t": 60960,
      "d": 1920,
      "v": 100
    },
    {
      "midi": 84,
      "hit": false,
      "t": 60960,
      "d": 1920,
      "v": 100
    },
    {
      "midi": 79,
      "hit": false,
      "t": 60960,
      "d": 1920,
      "v": 100
    },
    {
      "midi": 72,
      "hit": false,
      "t": 60960,
      "d": 1920,
      "v": 100
    },
    {
      "midi": 33,
      "hit": false,
      "t": 60960,
      "d": 240,
      "v": 100
    },
    {
      "midi": 44,
      "hit": false,
      "t": 60960,
      "d": 120,
      "v": 100
    },
    {
      "midi": 36,
      "hit": false,
      "t": 60960,
      "d": 480,
      "v": 100
    },
    {
      "midi": 65,
      "hit": false,
      "t": 60960,
      "d": 480,
      "v": 100
    },
    {
      "midi": 33,
      "hit": false,
      "t": 61200,
      "d": 240,
      "v": 100
    },
    {
      "midi": 44,
      "hit": false,
      "t": 61200,
      "d": 120,
      "v": 100
    },
    {
      "midi": 44,
      "hit": false,
      "t": 61320,
      "d": 120,
      "v": 100
    },
    {
      "midi": 33,
      "hit": false,
      "t": 61440,
      "d": 240,
      "v": 100
    },
    {
      "midi": 44,
      "hit": false,
      "t": 61440,
      "d": 120,
      "v": 100
    },
    {
      "midi": 38,
      "hit": false,
      "t": 61440,
      "d": 480,
      "v": 100
    },
    {
      "midi": 64,
      "hit": false,
      "t": 61440,
      "d": 240,
      "v": 100
    },
    {
      "midi": 33,
      "hit": false,
      "t": 61680,
      "d": 240,
      "v": 100
    },
    {
      "midi": 44,
      "hit": false,
      "t": 61680,
      "d": 120,
      "v": 100
    },
    {
      "midi": 62,
      "hit": false,
      "t": 61680,
      "d": 480,
      "v": 100
    },
    {
      "midi": 44,
      "hit": false,
      "t": 61800,
      "d": 120,
      "v": 100
    },
    {
      "midi": 33,
      "hit": false,
      "t": 61920,
      "d": 240,
      "v": 100
    },
    {
      "midi": 44,
      "hit": false,
      "t": 61920,
      "d": 120,
      "v": 100
    },
    {
      "midi": 36,
      "hit": false,
      "t": 61920,
      "d": 480,
      "v": 100
    },
    {
      "midi": 33,
      "hit": false,
      "t": 62160,
      "d": 240,
      "v": 100
    },
    {
      "midi": 44,
      "hit": false,
      "t": 62160,
      "d": 120,
      "v": 100
    },
    {
      "midi": 60,
      "hit": false,
      "t": 62160,
      "d": 720,
      "v": 100
    },
    {
      "midi": 44,
      "hit": false,
      "t": 62280,
      "d": 120,
      "v": 100
    },
    {
      "midi": 33,
      "hit": false,
      "t": 62400,
      "d": 240,
      "v": 100
    },
    {
      "midi": 44,
      "hit": false,
      "t": 62400,
      "d": 120,
      "v": 100
    },
    {
      "midi": 38,
      "hit": false,
      "t": 62400,
      "d": 480,
      "v": 100
    },
    {
      "midi": 49,
      "hit": false,
      "t": 62400,
      "d": 480,
      "v": 100
    },
    {
      "midi": 33,
      "hit": false,
      "t": 62640,
      "d": 240,
      "v": 100
    },
    {
      "midi": 44,
      "hit": false,
      "t": 62640,
      "d": 120,
      "v": 100
    },
    {
      "midi": 44,
      "hit": false,
      "t": 62760,
      "d": 120,
      "v": 100
    },
    {
      "midi": 32,
      "hit": false,
      "t": 62880,
      "d": 1920,
      "v": 100
    },
    {
      "midi": 74,
      "hit": false,
      "t": 62880,
      "d": 1920,
      "v": 100
    },
    {
      "midi": 82,
      "hit": false,
      "t": 62880,
      "d": 1920,
      "v": 100
    },
    {
      "midi": 86,
      "hit": false,
      "t": 62880,
      "d": 1920,
      "v": 100
    },
    {
      "midi": 32,
      "hit": false,
      "t": 62880,
      "d": 240,
      "v": 100
    },
    {
      "midi": 44,
      "hit": false,
      "t": 62880,
      "d": 120,
      "v": 100
    },
    {
      "midi": 36,
      "hit": false,
      "t": 62880,
      "d": 480,
      "v": 100
    },
    {
      "midi": 65,
      "hit": false,
      "t": 62880,
      "d": 480,
      "v": 100
    },
    {
      "midi": 32,
      "hit": false,
      "t": 63120,
      "d": 240,
      "v": 100
    },
    {
      "midi": 44,
      "hit": false,
      "t": 63120,
      "d": 120,
      "v": 100
    },
    {
      "midi": 44,
      "hit": false,
      "t": 63240,
      "d": 120,
      "v": 100
    },
    {
      "midi": 32,
      "hit": false,
      "t": 63360,
      "d": 240,
      "v": 100
    },
    {
      "midi": 44,
      "hit": false,
      "t": 63360,
      "d": 120,
      "v": 100
    },
    {
      "midi": 38,
      "hit": false,
      "t": 63360,
      "d": 480,
      "v": 100
    },
    {
      "midi": 64,
      "hit": false,
      "t": 63360,
      "d": 240,
      "v": 100
    },
    {
      "midi": 32,
      "hit": false,
      "t": 63600,
      "d": 240,
      "v": 100
    },
    {
      "midi": 44,
      "hit": false,
      "t": 63600,
      "d": 120,
      "v": 100
    },
    {
      "midi": 62,
      "hit": false,
      "t": 63600,
      "d": 480,
      "v": 100
    },
    {
      "midi": 44,
      "hit": false,
      "t": 63720,
      "d": 120,
      "v": 100
    },
    {
      "midi": 32,
      "hit": false,
      "t": 63840,
      "d": 240,
      "v": 100
    },
    {
      "midi": 44,
      "hit": false,
      "t": 63840,
      "d": 120,
      "v": 100
    },
    {
      "midi": 36,
      "hit": false,
      "t": 63840,
      "d": 480,
      "v": 100
    },
    {
      "midi": 32,
      "hit": false,
      "t": 64080,
      "d": 240,
      "v": 100
    },
    {
      "midi": 44,
      "hit": false,
      "t": 64080,
      "d": 120,
      "v": 100
    },
    {
      "midi": 60,
      "hit": false,
      "t": 64080,
      "d": 720,
      "v": 100
    },
    {
      "midi": 44,
      "hit": false,
      "t": 64200,
      "d": 120,
      "v": 100
    },
    {
      "midi": 32,
      "hit": false,
      "t": 64320,
      "d": 240,
      "v": 100
    },
    {
      "midi": 44,
      "hit": false,
      "t": 64320,
      "d": 120,
      "v": 100
    },
    {
      "midi": 38,
      "hit": false,
      "t": 64320,
      "d": 480,
      "v": 100
    },
    {
      "midi": 32,
      "hit": false,
      "t": 64560,
      "d": 240,
      "v": 100
    },
    {
      "midi": 44,
      "hit": false,
      "t": 64560,
      "d": 120,
      "v": 100
    },
    {
      "midi": 44,
      "hit": false,
      "t": 64680,
      "d": 120,
      "v": 100
    },
    {
      "midi": 31,
      "hit": false,
      "t": 64800,
      "d": 1920,
      "v": 100
    },
    {
      "midi": 71,
      "hit": false,
      "t": 64800,
      "d": 480,
      "v": 100
    },
    {
      "midi": 83,
      "hit": false,
      "t": 64800,
      "d": 480,
      "v": 100
    },
    {
      "midi": 79,
      "hit": false,
      "t": 64800,
      "d": 480,
      "v": 100
    },
    {
      "midi": 31,
      "hit": false,
      "t": 64800,
      "d": 240,
      "v": 100
    },
    {
      "midi": 44,
      "hit": false,
      "t": 64800,
      "d": 120,
      "v": 100
    },
    {
      "midi": 36,
      "hit": false,
      "t": 64800,
      "d": 480,
      "v": 100
    },
    {
      "midi": 59,
      "hit": false,
      "t": 64800,
      "d": 480,
      "v": 100
    },
    {
      "midi": 31,
      "hit": false,
      "t": 65040,
      "d": 240,
      "v": 100
    },
    {
      "midi": 44,
      "hit": false,
      "t": 65040,
      "d": 120,
      "v": 100
    },
    {
      "midi": 44,
      "hit": false,
      "t": 65160,
      "d": 120,
      "v": 100
    },
    {
      "midi": 72,
      "hit": false,
      "t": 65280,
      "d": 240,
      "v": 100
    },
    {
      "midi": 84,
      "hit": false,
      "t": 65280,
      "d": 240,
      "v": 100
    },
    {
      "midi": 31,
      "hit": false,
      "t": 65280,
      "d": 240,
      "v": 100
    },
    {
      "midi": 44,
      "hit": false,
      "t": 65280,
      "d": 120,
      "v": 100
    },
    {
      "midi": 38,
      "hit": false,
      "t": 65280,
      "d": 480,
      "v": 100
    },
    {
      "midi": 60,
      "hit": false,
      "t": 65280,
      "d": 240,
      "v": 100
    },
    {
      "midi": 74,
      "hit": false,
      "t": 65520,
      "d": 960,
      "v": 100
    },
    {
      "midi": 86,
      "hit": false,
      "t": 65520,
      "d": 960,
      "v": 100
    },
    {
      "midi": 31,
      "hit": false,
      "t": 65520,
      "d": 240,
      "v": 100
    },
    {
      "midi": 44,
      "hit": false,
      "t": 65520,
      "d": 120,
      "v": 100
    },
    {
      "midi": 62,
      "hit": false,
      "t": 65520,
      "d": 960,
      "v": 100
    },
    {
      "midi": 44,
      "hit": false,
      "t": 65640,
      "d": 120,
      "v": 100
    },
    {
      "midi": 31,
      "hit": false,
      "t": 65760,
      "d": 240,
      "v": 100
    },
    {
      "midi": 44,
      "hit": false,
      "t": 65760,
      "d": 120,
      "v": 100
    },
    {
      "midi": 47,
      "hit": false,
      "t": 65760,
      "d": 240,
      "v": 100
    },
    {
      "midi": 36,
      "hit": false,
      "t": 65760,
      "d": 480,
      "v": 100
    },
    {
      "midi": 31,
      "hit": false,
      "t": 66000,
      "d": 240,
      "v": 100
    },
    {
      "midi": 44,
      "hit": false,
      "t": 66000,
      "d": 120,
      "v": 100
    },
    {
      "midi": 45,
      "hit": false,
      "t": 66000,
      "d": 240,
      "v": 100
    },
    {
      "midi": 44,
      "hit": false,
      "t": 66120,
      "d": 120,
      "v": 100
    },
    {
      "midi": 31,
      "hit": false,
      "t": 66240,
      "d": 240,
      "v": 100
    },
    {
      "midi": 44,
      "hit": false,
      "t": 66240,
      "d": 120,
      "v": 100
    },
    {
      "midi": 43,
      "hit": false,
      "t": 66240,
      "d": 240,
      "v": 100
    },
    {
      "midi": 38,
      "hit": false,
      "t": 66240,
      "d": 480,
      "v": 100
    },
    {
      "midi": 49,
      "hit": false,
      "t": 66240,
      "d": 480,
      "v": 100
    },
    {
      "midi": 72,
      "hit": false,
      "t": 66480,
      "d": 60,
      "v": 100
    },
    {
      "midi": 31,
      "hit": false,
      "t": 66480,
      "d": 240,
      "v": 100
    },
    {
      "midi": 44,
      "hit": false,
      "t": 66480,
      "d": 120,
      "v": 100
    },
    {
      "midi": 41,
      "hit": false,
      "t": 66480,
      "d": 240,
      "v": 100
    },
    {
      "midi": 74,
      "hit": false,
      "t": 66540,
      "d": 60,
      "v": 100
    },
    {
      "midi": 67,
      "hit": false,
      "t": 66600,
      "d": 2040,
      "v": 100
    },
    {
      "midi": 76,
      "hit": false,
      "t": 66600,
      "d": 60,
      "v": 100
    },
    {
      "midi": 44,
      "hit": false,
      "t": 66600,
      "d": 120,
      "v": 100
    },
    {
      "midi": 72,
      "hit": false,
      "t": 66660,
      "d": 1980,
      "v": 100
    },
    {
      "midi": 77,
      "hit": false,
      "t": 66660,
      "d": 60,
      "v": 100
    },
    {
      "midi": 76,
      "hit": false,
      "t": 66720,
      "d": 1920,
      "v": 100
    },
    {
      "midi": 79,
      "hit": false,
      "t": 66720,
      "d": 1440,
      "v": 100
    },
    {
      "midi": 64,
      "hit": false,
      "t": 66720,
      "d": 1920,
      "v": 100
    },
    {
      "midi": 79,
      "hit": false,
      "t": 66720,
      "d": 1920,
      "v": 100
    },
    {
      "midi": 36,
      "hit": false,
      "t": 66720,
      "d": 240,
      "v": 100
    },
    {
      "midi": 44,
      "hit": false,
      "t": 66720,
      "d": 120,
      "v": 100
    },
    {
      "midi": 49,
      "hit": false,
      "t": 66720,
      "d": 240,
      "v": 100
    },
    {
      "midi": 36,
      "hit": false,
      "t": 66720,
      "d": 480,
      "v": 100
    },
    {
      "midi": 36,
      "hit": false,
      "t": 66960,
      "d": 240,
      "v": 100
    },
    {
      "midi": 44,
      "hit": false,
      "t": 66960,
      "d": 120,
      "v": 100
    },
    {
      "midi": 44,
      "hit": false,
      "t": 67080,
      "d": 120,
      "v": 100
    },
    {
      "midi": 36,
      "hit": false,
      "t": 67200,
      "d": 240,
      "v": 100
    },
    {
      "midi": 44,
      "hit": false,
      "t": 67200,
      "d": 120,
      "v": 100
    },
    {
      "midi": 38,
      "hit": false,
      "t": 67200,
      "d": 480,
      "v": 100
    },
    {
      "midi": 36,
      "hit": false,
      "t": 67440,
      "d": 240,
      "v": 100
    },
    {
      "midi": 44,
      "hit": false,
      "t": 67440,
      "d": 120,
      "v": 100
    },
    {
      "midi": 44,
      "hit": false,
      "t": 67560,
      "d": 120,
      "v": 100
    },
    {
      "midi": 36,
      "hit": false,
      "t": 67680,
      "d": 240,
      "v": 100
    },
    {
      "midi": 44,
      "hit": false,
      "t": 67680,
      "d": 120,
      "v": 100
    },
    {
      "midi": 36,
      "hit": false,
      "t": 67680,
      "d": 480,
      "v": 100
    },
    {
      "midi": 36,
      "hit": false,
      "t": 67920,
      "d": 240,
      "v": 100
    },
    {
      "midi": 44,
      "hit": false,
      "t": 67920,
      "d": 120,
      "v": 100
    },
    {
      "midi": 44,
      "hit": false,
      "t": 68040,
      "d": 120,
      "v": 100
    },
    {
      "midi": 84,
      "hit": false,
      "t": 68160,
      "d": 480,
      "v": 100
    },
    {
      "midi": 36,
      "hit": false,
      "t": 68160,
      "d": 240,
      "v": 100
    },
    {
      "midi": 44,
      "hit": false,
      "t": 68160,
      "d": 120,
      "v": 100
    },
    {
      "midi": 38,
      "hit": false,
      "t": 68160,
      "d": 480,
      "v": 100
    },
    {
      "midi": 36,
      "hit": false,
      "t": 68400,
      "d": 240,
      "v": 100
    },
    {
      "midi": 44,
      "hit": false,
      "t": 68400,
      "d": 120,
      "v": 100
    },
    {
      "midi": 44,
      "hit": false,
      "t": 68520,
      "d": 120,
      "v": 100
    },
    {
      "midi": 74,
      "hit": false,
      "t": 68640,
      "d": 1920,
      "v": 100
    },
    {
      "midi": 71,
      "hit": false,
      "t": 68640,
      "d": 1920,
      "v": 100
    },
    {
      "midi": 79,
      "hit": false,
      "t": 68640,
      "d": 1920,
      "v": 100
    },
    {
      "midi": 83,
      "hit": false,
      "t": 68640,
      "d": 960,
      "v": 100
    },
    {
      "midi": 74,
      "hit": false,
      "t": 68640,
      "d": 1920,
      "v": 100
    },
    {
      "midi": 62,
      "hit": false,
      "t": 68640,
      "d": 1920,
      "v": 100
    },
    {
      "midi": 36,
      "hit": false,
      "t": 68640,
      "d": 240,
      "v": 100
    },
    {
      "midi": 44,
      "hit": false,
      "t": 68640,
      "d": 120,
      "v": 100
    },
    {
      "midi": 36,
      "hit": false,
      "t": 68640,
      "d": 480,
      "v": 100
    },
    {
      "midi": 36,
      "hit": false,
      "t": 68880,
      "d": 240,
      "v": 100
    },
    {
      "midi": 44,
      "hit": false,
      "t": 68880,
      "d": 120,
      "v": 100
    },
    {
      "midi": 44,
      "hit": false,
      "t": 69000,
      "d": 120,
      "v": 100
    },
    {
      "midi": 36,
      "hit": false,
      "t": 69120,
      "d": 240,
      "v": 100
    },
    {
      "midi": 44,
      "hit": false,
      "t": 69120,
      "d": 120,
      "v": 100
    },
    {
      "midi": 38,
      "hit": false,
      "t": 69120,
      "d": 480,
      "v": 100
    },
    {
      "midi": 36,
      "hit": false,
      "t": 69360,
      "d": 240,
      "v": 100
    },
    {
      "midi": 44,
      "hit": false,
      "t": 69360,
      "d": 120,
      "v": 100
    },
    {
      "midi": 44,
      "hit": false,
      "t": 69480,
      "d": 120,
      "v": 100
    },
    {
      "midi": 81,
      "hit": false,
      "t": 69600,
      "d": 480,
      "v": 100
    },
    {
      "midi": 36,
      "hit": false,
      "t": 69600,
      "d": 240,
      "v": 100
    },
    {
      "midi": 44,
      "hit": false,
      "t": 69600,
      "d": 120,
      "v": 100
    },
    {
      "midi": 36,
      "hit": false,
      "t": 69600,
      "d": 480,
      "v": 100
    },
    {
      "midi": 36,
      "hit": false,
      "t": 69840,
      "d": 240,
      "v": 100
    },
    {
      "midi": 44,
      "hit": false,
      "t": 69840,
      "d": 120,
      "v": 100
    },
    {
      "midi": 44,
      "hit": false,
      "t": 69960,
      "d": 120,
      "v": 100
    },
    {
      "midi": 79,
      "hit": false,
      "t": 70080,
      "d": 480,
      "v": 100
    },
    {
      "midi": 36,
      "hit": false,
      "t": 70080,
      "d": 240,
      "v": 100
    },
    {
      "midi": 44,
      "hit": false,
      "t": 70080,
      "d": 120,
      "v": 100
    },
    {
      "midi": 38,
      "hit": false,
      "t": 70080,
      "d": 480,
      "v": 100
    },
    {
      "midi": 36,
      "hit": false,
      "t": 70320,
      "d": 240,
      "v": 100
    },
    {
      "midi": 44,
      "hit": false,
      "t": 70320,
      "d": 120,
      "v": 100
    },
    {
      "midi": 44,
      "hit": false,
      "t": 70440,
      "d": 120,
      "v": 100
    },
    {
      "midi": 72,
      "hit": false,
      "t": 70560,
      "d": 1920,
      "v": 100
    },
    {
      "midi": 65,
      "hit": false,
      "t": 70560,
      "d": 1920,
      "v": 100
    },
    {
      "midi": 69,
      "hit": false,
      "t": 70560,
      "d": 1920,
      "v": 100
    },
    {
      "midi": 79,
      "hit": false,
      "t": 70560,
      "d": 960,
      "v": 100
    },
    {
      "midi": 72,
      "hit": false,
      "t": 70560,
      "d": 1920,
      "v": 100
    },
    {
      "midi": 69,
      "hit": false,
      "t": 70560,
      "d": 1920,
      "v": 100
    },
    {
      "midi": 36,
      "hit": false,
      "t": 70560,
      "d": 240,
      "v": 100
    },
    {
      "midi": 44,
      "hit": false,
      "t": 70560,
      "d": 120,
      "v": 100
    },
    {
      "midi": 36,
      "hit": false,
      "t": 70560,
      "d": 480,
      "v": 100
    },
    {
      "midi": 36,
      "hit": false,
      "t": 70800,
      "d": 240,
      "v": 100
    },
    {
      "midi": 44,
      "hit": false,
      "t": 70800,
      "d": 120,
      "v": 100
    },
    {
      "midi": 44,
      "hit": false,
      "t": 70920,
      "d": 120,
      "v": 100
    },
    {
      "midi": 36,
      "hit": false,
      "t": 71040,
      "d": 240,
      "v": 100
    },
    {
      "midi": 44,
      "hit": false,
      "t": 71040,
      "d": 120,
      "v": 100
    },
    {
      "midi": 38,
      "hit": false,
      "t": 71040,
      "d": 480,
      "v": 100
    },
    {
      "midi": 36,
      "hit": false,
      "t": 71280,
      "d": 240,
      "v": 100
    },
    {
      "midi": 44,
      "hit": false,
      "t": 71280,
      "d": 120,
      "v": 100
    },
    {
      "midi": 44,
      "hit": false,
      "t": 71400,
      "d": 120,
      "v": 100
    },
    {
      "midi": 77,
      "hit": false,
      "t": 71520,
      "d": 480,
      "v": 100
    },
    {
      "midi": 36,
      "hit": false,
      "t": 71520,
      "d": 240,
      "v": 100
    },
    {
      "midi": 44,
      "hit": false,
      "t": 71520,
      "d": 120,
      "v": 100
    },
    {
      "midi": 36,
      "hit": false,
      "t": 71520,
      "d": 480,
      "v": 100
    },
    {
      "midi": 36,
      "hit": false,
      "t": 71760,
      "d": 240,
      "v": 100
    },
    {
      "midi": 44,
      "hit": false,
      "t": 71760,
      "d": 120,
      "v": 100
    },
    {
      "midi": 44,
      "hit": false,
      "t": 71880,
      "d": 120,
      "v": 100
    },
    {
      "midi": 79,
      "hit": false,
      "t": 72000,
      "d": 480,
      "v": 100
    },
    {
      "midi": 36,
      "hit": false,
      "t": 72000,
      "d": 240,
      "v": 100
    },
    {
      "midi": 44,
      "hit": false,
      "t": 72000,
      "d": 120,
      "v": 100
    },
    {
      "midi": 38,
      "hit": false,
      "t": 72000,
      "d": 480,
      "v": 100
    },
    {
      "midi": 36,
      "hit": false,
      "t": 72240,
      "d": 240,
      "v": 100
    },
    {
      "midi": 44,
      "hit": false,
      "t": 72240,
      "d": 120,
      "v": 100
    },
    {
      "midi": 44,
      "hit": false,
      "t": 72360,
      "d": 120,
      "v": 100
    },
    {
      "midi": 41,
      "hit": false,
      "t": 72480,
      "d": 480,
      "v": 100
    },
    {
      "midi": 60,
      "hit": false,
      "t": 72480,
      "d": 1920,
      "v": 100
    },
    {
      "midi": 65,
      "hit": false,
      "t": 72480,
      "d": 1920,
      "v": 100
    },
    {
      "midi": 80,
      "hit": false,
      "t": 72480,
      "d": 480,
      "v": 100
    },
    {
      "midi": 72,
      "hit": false,
      "t": 72480,
      "d": 480,
      "v": 100
    },
    {
      "midi": 36,
      "hit": false,
      "t": 72480,
      "d": 240,
      "v": 100
    },
    {
      "midi": 44,
      "hit": false,
      "t": 72480,
      "d": 120,
      "v": 100
    },
    {
      "midi": 36,
      "hit": false,
      "t": 72480,
      "d": 480,
      "v": 100
    },
    {
      "midi": 36,
      "hit": false,
      "t": 72720,
      "d": 240,
      "v": 100
    },
    {
      "midi": 44,
      "hit": false,
      "t": 72720,
      "d": 120,
      "v": 100
    },
    {
      "midi": 44,
      "hit": false,
      "t": 72840,
      "d": 120,
      "v": 100
    },
    {
      "midi": 43,
      "hit": false,
      "t": 72960,
      "d": 480,
      "v": 100
    },
    {
      "midi": 79,
      "hit": false,
      "t": 72960,
      "d": 480,
      "v": 100
    },
    {
      "midi": 70,
      "hit": false,
      "t": 72960,
      "d": 480,
      "v": 100
    },
    {
      "midi": 36,
      "hit": false,
      "t": 72960,
      "d": 240,
      "v": 100
    },
    {
      "midi": 44,
      "hit": false,
      "t": 72960,
      "d": 120,
      "v": 100
    },
    {
      "midi": 38,
      "hit": false,
      "t": 72960,
      "d": 480,
      "v": 100
    },
    {
      "midi": 36,
      "hit": false,
      "t": 73200,
      "d": 240,
      "v": 100
    },
    {
      "midi": 44,
      "hit": false,
      "t": 73200,
      "d": 120,
      "v": 100
    },
    {
      "midi": 44,
      "hit": false,
      "t": 73320,
      "d": 120,
      "v": 100
    },
    {
      "midi": 44,
      "hit": false,
      "t": 73440,
      "d": 480,
      "v": 100
    },
    {
      "midi": 77,
      "hit": false,
      "t": 73440,
      "d": 480,
      "v": 100
    },
    {
      "midi": 72,
      "hit": false,
      "t": 73440,
      "d": 480,
      "v": 100
    },
    {
      "midi": 36,
      "hit": false,
      "t": 73440,
      "d": 240,
      "v": 100
    },
    {
      "midi": 44,
      "hit": false,
      "t": 73440,
      "d": 120,
      "v": 100
    },
    {
      "midi": 36,
      "hit": false,
      "t": 73440,
      "d": 480,
      "v": 100
    },
    {
      "midi": 36,
      "hit": false,
      "t": 73680,
      "d": 240,
      "v": 100
    },
    {
      "midi": 44,
      "hit": false,
      "t": 73680,
      "d": 120,
      "v": 100
    },
    {
      "midi": 44,
      "hit": false,
      "t": 73800,
      "d": 120,
      "v": 100
    },
    {
      "midi": 46,
      "hit": false,
      "t": 73920,
      "d": 480,
      "v": 100
    },
    {
      "midi": 75,
      "hit": false,
      "t": 73920,
      "d": 480,
      "v": 100
    },
    {
      "midi": 75,
      "hit": false,
      "t": 73920,
      "d": 480,
      "v": 100
    },
    {
      "midi": 36,
      "hit": false,
      "t": 73920,
      "d": 240,
      "v": 100
    },
    {
      "midi": 44,
      "hit": false,
      "t": 73920,
      "d": 120,
      "v": 100
    },
    {
      "midi": 38,
      "hit": false,
      "t": 73920,
      "d": 480,
      "v": 100
    },
    {
      "midi": 36,
      "hit": false,
      "t": 74160,
      "d": 240,
      "v": 100
    },
    {
      "midi": 44,
      "hit": false,
      "t": 74160,
      "d": 120,
      "v": 100
    },
    {
      "midi": 44,
      "hit": false,
      "t": 74280,
      "d": 120,
      "v": 100
    },
    {
      "midi": 76,
      "hit": false,
      "t": 74400,
      "d": 960,
      "v": 100
    },
    {
      "midi": 72,
      "hit": false,
      "t": 74400,
      "d": 1920,
      "v": 100
    },
    {
      "midi": 48,
      "hit": false,
      "t": 74400,
      "d": 1920,
      "v": 100
    },
    {
      "midi": 36,
      "hit": false,
      "t": 74400,
      "d": 240,
      "v": 100
    },
    {
      "midi": 44,
      "hit": false,
      "t": 74400,
      "d": 120,
      "v": 100
    },
    {
      "midi": 49,
      "hit": false,
      "t": 74400,
      "d": 240,
      "v": 100
    },
    {
      "midi": 36,
      "hit": false,
      "t": 74400,
      "d": 480,
      "v": 100
    },
    {
      "midi": 36,
      "hit": false,
      "t": 74640,
      "d": 240,
      "v": 100
    },
    {
      "midi": 44,
      "hit": false,
      "t": 74640,
      "d": 120,
      "v": 100
    },
    {
      "midi": 44,
      "hit": false,
      "t": 74760,
      "d": 120,
      "v": 100
    },
    {
      "midi": 36,
      "hit": false,
      "t": 74880,
      "d": 240,
      "v": 100
    },
    {
      "midi": 44,
      "hit": false,
      "t": 74880,
      "d": 120,
      "v": 100
    },
    {
      "midi": 38,
      "hit": false,
      "t": 74880,
      "d": 480,
      "v": 100
    },
    {
      "midi": 36,
      "hit": false,
      "t": 75120,
      "d": 240,
      "v": 100
    },
    {
      "midi": 44,
      "hit": false,
      "t": 75120,
      "d": 120,
      "v": 100
    },
    {
      "midi": 44,
      "hit": false,
      "t": 75240,
      "d": 120,
      "v": 100
    },
    {
      "midi": 76,
      "hit": false,
      "t": 75360,
      "d": 320,
      "v": 100
    },
    {
      "midi": 36,
      "hit": false,
      "t": 75360,
      "d": 240,
      "v": 100
    },
    {
      "midi": 44,
      "hit": false,
      "t": 75360,
      "d": 120,
      "v": 100
    },
    {
      "midi": 36,
      "hit": false,
      "t": 75360,
      "d": 480,
      "v": 100
    },
    {
      "midi": 36,
      "hit": false,
      "t": 75600,
      "d": 240,
      "v": 100
    },
    {
      "midi": 44,
      "hit": false,
      "t": 75600,
      "d": 120,
      "v": 100
    },
    {
      "midi": 79,
      "hit": false,
      "t": 75680,
      "d": 320,
      "v": 100
    },
    {
      "midi": 44,
      "hit": false,
      "t": 75720,
      "d": 120,
      "v": 100
    },
    {
      "midi": 36,
      "hit": false,
      "t": 75840,
      "d": 240,
      "v": 100
    },
    {
      "midi": 44,
      "hit": false,
      "t": 75840,
      "d": 120,
      "v": 100
    },
    {
      "midi": 38,
      "hit": false,
      "t": 75840,
      "d": 480,
      "v": 100
    },
    {
      "midi": 84,
      "hit": false,
      "t": 76000,
      "d": 320,
      "v": 100
    },
    {
      "midi": 36,
      "hit": false,
      "t": 76080,
      "d": 240,
      "v": 100
    },
    {
      "midi": 44,
      "hit": false,
      "t": 76080,
      "d": 120,
      "v": 100
    },
    {
      "midi": 44,
      "hit": false,
      "t": 76200,
      "d": 120,
      "v": 100
    },
    {
      "midi": 60,
      "hit": false,
      "t": 76320,
      "d": 1920,
      "v": 100
    },
    {
      "midi": 69,
      "hit": false,
      "t": 76320,
      "d": 1920,
      "v": 100
    },
    {
      "midi": 65,
      "hit": false,
      "t": 76320,
      "d": 1920,
      "v": 100
    },
    {
      "midi": 83,
      "hit": false,
      "t": 76320,
      "d": 960,
      "v": 100
    },
    {
      "midi": 77,
      "hit": false,
      "t": 76320,
      "d": 1920,
      "v": 100
    },
    {
      "midi": 29,
      "hit": false,
      "t": 76320,
      "d": 240,
      "v": 100
    },
    {
      "midi": 44,
      "hit": false,
      "t": 76320,
      "d": 120,
      "v": 100
    },
    {
      "midi": 36,
      "hit": false,
      "t": 76320,
      "d": 480,
      "v": 100
    },
    {
      "midi": 29,
      "hit": false,
      "t": 76560,
      "d": 240,
      "v": 100
    },
    {
      "midi": 44,
      "hit": false,
      "t": 76560,
      "d": 120,
      "v": 100
    },
    {
      "midi": 44,
      "hit": false,
      "t": 76680,
      "d": 120,
      "v": 100
    },
    {
      "midi": 29,
      "hit": false,
      "t": 76800,
      "d": 240,
      "v": 100
    },
    {
      "midi": 44,
      "hit": false,
      "t": 76800,
      "d": 120,
      "v": 100
    },
    {
      "midi": 38,
      "hit": false,
      "t": 76800,
      "d": 480,
      "v": 100
    },
    {
      "midi": 29,
      "hit": false,
      "t": 77040,
      "d": 240,
      "v": 100
    },
    {
      "midi": 44,
      "hit": false,
      "t": 77040,
      "d": 120,
      "v": 100
    },
    {
      "midi": 44,
      "hit": false,
      "t": 77160,
      "d": 120,
      "v": 100
    },
    {
      "midi": 81,
      "hit": false,
      "t": 77280,
      "d": 960,
      "v": 100
    },
    {
      "midi": 29,
      "hit": false,
      "t": 77280,
      "d": 240,
      "v": 100
    },
    {
      "midi": 44,
      "hit": false,
      "t": 77280,
      "d": 120,
      "v": 100
    },
    {
      "midi": 36,
      "hit": false,
      "t": 77280,
      "d": 480,
      "v": 100
    },
    {
      "midi": 29,
      "hit": false,
      "t": 77520,
      "d": 240,
      "v": 100
    },
    {
      "midi": 44,
      "hit": false,
      "t": 77520,
      "d": 120,
      "v": 100
    },
    {
      "midi": 44,
      "hit": false,
      "t": 77640,
      "d": 120,
      "v": 100
    },
    {
      "midi": 29,
      "hit": false,
      "t": 77760,
      "d": 240,
      "v": 100
    },
    {
      "midi": 44,
      "hit": false,
      "t": 77760,
      "d": 120,
      "v": 100
    },
    {
      "midi": 38,
      "hit": false,
      "t": 77760,
      "d": 480,
      "v": 100
    },
    {
      "midi": 29,
      "hit": false,
      "t": 78000,
      "d": 240,
      "v": 100
    },
    {
      "midi": 44,
      "hit": false,
      "t": 78000,
      "d": 120,
      "v": 100
    },
    {
      "midi": 44,
      "hit": false,
      "t": 78120,
      "d": 120,
      "v": 100
    },
    {
      "midi": 69,
      "hit": false,
      "t": 78240,
      "d": 1920,
      "v": 100
    },
    {
      "midi": 65,
      "hit": false,
      "t": 78240,
      "d": 1920,
      "v": 100
    },
    {
      "midi": 62,
      "hit": false,
      "t": 78240,
      "d": 1920,
      "v": 100
    },
    {
      "midi": 74,
      "hit": false,
      "t": 78240,
      "d": 1440,
      "v": 100
    },
    {
      "midi": 77,
      "hit": false,
      "t": 78240,
      "d": 1440,
      "v": 100
    },
    {
      "midi": 62,
      "hit": false,
      "t": 78240,
      "d": 1920,
      "v": 100
    },
    {
      "midi": 38,
      "hit": false,
      "t": 78240,
      "d": 240,
      "v": 100
    },
    {
      "midi": 44,
      "hit": false,
      "t": 78240,
      "d": 120,
      "v": 100
    },
    {
      "midi": 36,
      "hit": false,
      "t": 78240,
      "d": 480,
      "v": 100
    },
    {
      "midi": 38,
      "hit": false,
      "t": 78480,
      "d": 240,
      "v": 100
    },
    {
      "midi": 44,
      "hit": false,
      "t": 78480,
      "d": 120,
      "v": 100
    },
    {
      "midi": 44,
      "hit": false,
      "t": 78600,
      "d": 120,
      "v": 100
    },
    {
      "midi": 38,
      "hit": false,
      "t": 78720,
      "d": 240,
      "v": 100
    },
    {
      "midi": 44,
      "hit": false,
      "t": 78720,
      "d": 120,
      "v": 100
    },
    {
      "midi": 38,
      "hit": false,
      "t": 78720,
      "d": 480,
      "v": 100
    },
    {
      "midi": 38,
      "hit": false,
      "t": 78960,
      "d": 240,
      "v": 100
    },
    {
      "midi": 44,
      "hit": false,
      "t": 78960,
      "d": 120,
      "v": 100
    },
    {
      "midi": 44,
      "hit": false,
      "t": 79080,
      "d": 120,
      "v": 100
    },
    {
      "midi": 38,
      "hit": false,
      "t": 79200,
      "d": 240,
      "v": 100
    },
    {
      "midi": 44,
      "hit": false,
      "t": 79200,
      "d": 120,
      "v": 100
    },
    {
      "midi": 36,
      "hit": false,
      "t": 79200,
      "d": 480,
      "v": 100
    },
    {
      "midi": 38,
      "hit": false,
      "t": 79440,
      "d": 240,
      "v": 100
    },
    {
      "midi": 44,
      "hit": false,
      "t": 79440,
      "d": 120,
      "v": 100
    },
    {
      "midi": 44,
      "hit": false,
      "t": 79560,
      "d": 120,
      "v": 100
    },
    {
      "midi": 72,
      "hit": false,
      "t": 79680,
      "d": 480,
      "v": 100
    },
    {
      "midi": 79,
      "hit": false,
      "t": 79680,
      "d": 480,
      "v": 100
    },
    {
      "midi": 38,
      "hit": false,
      "t": 79680,
      "d": 240,
      "v": 100
    },
    {
      "midi": 44,
      "hit": false,
      "t": 79680,
      "d": 120,
      "v": 100
    },
    {
      "midi": 38,
      "hit": false,
      "t": 79680,
      "d": 480,
      "v": 100
    },
    {
      "midi": 38,
      "hit": false,
      "t": 79920,
      "d": 240,
      "v": 100
    },
    {
      "midi": 44,
      "hit": false,
      "t": 79920,
      "d": 120,
      "v": 100
    },
    {
      "midi": 44,
      "hit": false,
      "t": 80040,
      "d": 120,
      "v": 100
    },
    {
      "midi": 69,
      "hit": false,
      "t": 80160,
      "d": 1920,
      "v": 100
    },
    {
      "midi": 65,
      "hit": false,
      "t": 80160,
      "d": 1920,
      "v": 100
    },
    {
      "midi": 62,
      "hit": false,
      "t": 80160,
      "d": 1920,
      "v": 100
    },
    {
      "midi": 77,
      "hit": false,
      "t": 80160,
      "d": 480,
      "v": 100
    },
    {
      "midi": 74,
      "hit": false,
      "t": 80160,
      "d": 960,
      "v": 100
    },
    {
      "midi": 58,
      "hit": false,
      "t": 80160,
      "d": 1920,
      "v": 100
    },
    {
      "midi": 34,
      "hit": false,
      "t": 80160,
      "d": 240,
      "v": 100
    },
    {
      "midi": 44,
      "hit": false,
      "t": 80160,
      "d": 120,
      "v": 100
    },
    {
      "midi": 36,
      "hit": false,
      "t": 80160,
      "d": 480,
      "v": 100
    },
    {
      "midi": 34,
      "hit": false,
      "t": 80400,
      "d": 240,
      "v": 100
    },
    {
      "midi": 44,
      "hit": false,
      "t": 80400,
      "d": 120,
      "v": 100
    },
    {
      "midi": 44,
      "hit": false,
      "t": 80520,
      "d": 120,
      "v": 100
    },
    {
      "midi": 76,
      "hit": false,
      "t": 80640,
      "d": 480,
      "v": 100
    },
    {
      "midi": 34,
      "hit": false,
      "t": 80640,
      "d": 240,
      "v": 100
    },
    {
      "midi": 44,
      "hit": false,
      "t": 80640,
      "d": 120,
      "v": 100
    },
    {
      "midi": 38,
      "hit": false,
      "t": 80640,
      "d": 480,
      "v": 100
    },
    {
      "midi": 34,
      "hit": false,
      "t": 80880,
      "d": 240,
      "v": 100
    },
    {
      "midi": 44,
      "hit": false,
      "t": 80880,
      "d": 120,
      "v": 100
    },
    {
      "midi": 48,
      "hit": false,
      "t": 80940,
      "d": 60,
      "v": 100
    },
    {
      "midi": 47,
      "hit": false,
      "t": 81000,
      "d": 60,
      "v": 100
    },
    {
      "midi": 44,
      "hit": false,
      "t": 81000,
      "d": 120,
      "v": 100
    },
    {
      "midi": 45,
      "hit": false,
      "t": 81060,
      "d": 60,
      "v": 100
    },
    {
      "midi": 74,
      "hit": false,
      "t": 81120,
      "d": 480,
      "v": 100
    },
    {
      "midi": 70,
      "hit": false,
      "t": 81120,
      "d": 960,
      "v": 100
    },
    {
      "midi": 34,
      "hit": false,
      "t": 81120,
      "d": 240,
      "v": 100
    },
    {
      "midi": 44,
      "hit": false,
      "t": 81120,
      "d": 120,
      "v": 100
    },
    {
      "midi": 47,
      "hit": false,
      "t": 81120,
      "d": 240,
      "v": 100
    },
    {
      "midi": 36,
      "hit": false,
      "t": 81120,
      "d": 480,
      "v": 100
    },
    {
      "midi": 34,
      "hit": false,
      "t": 81360,
      "d": 240,
      "v": 100
    },
    {
      "midi": 44,
      "hit": false,
      "t": 81360,
      "d": 120,
      "v": 100
    },
    {
      "midi": 47,
      "hit": false,
      "t": 81360,
      "d": 240,
      "v": 100
    },
    {
      "midi": 44,
      "hit": false,
      "t": 81480,
      "d": 120,
      "v": 100
    },
    {
      "midi": 72,
      "hit": false,
      "t": 81600,
      "d": 480,
      "v": 100
    },
    {
      "midi": 34,
      "hit": false,
      "t": 81600,
      "d": 240,
      "v": 100
    },
    {
      "midi": 44,
      "hit": false,
      "t": 81600,
      "d": 120,
      "v": 100
    },
    {
      "midi": 45,
      "hit": false,
      "t": 81600,
      "d": 240,
      "v": 100
    },
    {
      "midi": 38,
      "hit": false,
      "t": 81600,
      "d": 480,
      "v": 100
    },
    {
      "midi": 34,
      "hit": false,
      "t": 81840,
      "d": 240,
      "v": 100
    },
    {
      "midi": 44,
      "hit": false,
      "t": 81840,
      "d": 120,
      "v": 100
    },
    {
      "midi": 45,
      "hit": false,
      "t": 81840,
      "d": 240,
      "v": 100
    },
    {
      "midi": 44,
      "hit": false,
      "t": 81960,
      "d": 120,
      "v": 100
    },
    {
      "midi": 67,
      "hit": false,
      "t": 82080,
      "d": 1920,
      "v": 100
    },
    {
      "midi": 72,
      "hit": false,
      "t": 82080,
      "d": 1920,
      "v": 100
    },
    {
      "midi": 76,
      "hit": false,
      "t": 82080,
      "d": 1920,
      "v": 100
    },
    {
      "midi": 79,
      "hit": false,
      "t": 82080,
      "d": 1440,
      "v": 100
    },
    {
      "midi": 79,
      "hit": false,
      "t": 82080,
      "d": 1920,
      "v": 100
    },
    {
      "midi": 64,
      "hit": false,
      "t": 82080,
      "d": 1920,
      "v": 100
    },
    {
      "midi": 36,
      "hit": false,
      "t": 82080,
      "d": 240,
      "v": 100
    },
    {
      "midi": 44,
      "hit": false,
      "t": 82080,
      "d": 120,
      "v": 100
    },
    {
      "midi": 49,
      "hit": false,
      "t": 82080,
      "d": 240,
      "v": 100
    },
    {
      "midi": 36,
      "hit": false,
      "t": 82080,
      "d": 480,
      "v": 100
    },
    {
      "midi": 36,
      "hit": false,
      "t": 82320,
      "d": 240,
      "v": 100
    },
    {
      "midi": 44,
      "hit": false,
      "t": 82320,
      "d": 120,
      "v": 100
    },
    {
      "midi": 44,
      "hit": false,
      "t": 82440,
      "d": 120,
      "v": 100
    },
    {
      "midi": 36,
      "hit": false,
      "t": 82560,
      "d": 240,
      "v": 100
    },
    {
      "midi": 44,
      "hit": false,
      "t": 82560,
      "d": 120,
      "v": 100
    },
    {
      "midi": 38,
      "hit": false,
      "t": 82560,
      "d": 480,
      "v": 100
    },
    {
      "midi": 36,
      "hit": false,
      "t": 82800,
      "d": 240,
      "v": 100
    },
    {
      "midi": 44,
      "hit": false,
      "t": 82800,
      "d": 120,
      "v": 100
    },
    {
      "midi": 44,
      "hit": false,
      "t": 82920,
      "d": 120,
      "v": 100
    },
    {
      "midi": 36,
      "hit": false,
      "t": 83040,
      "d": 240,
      "v": 100
    },
    {
      "midi": 44,
      "hit": false,
      "t": 83040,
      "d": 120,
      "v": 100
    },
    {
      "midi": 36,
      "hit": false,
      "t": 83040,
      "d": 480,
      "v": 100
    },
    {
      "midi": 36,
      "hit": false,
      "t": 83280,
      "d": 240,
      "v": 100
    },
    {
      "midi": 44,
      "hit": false,
      "t": 83280,
      "d": 120,
      "v": 100
    },
    {
      "midi": 44,
      "hit": false,
      "t": 83400,
      "d": 120,
      "v": 100
    },
    {
      "midi": 84,
      "hit": false,
      "t": 83520,
      "d": 480,
      "v": 100
    },
    {
      "midi": 36,
      "hit": false,
      "t": 83520,
      "d": 240,
      "v": 100
    },
    {
      "midi": 44,
      "hit": false,
      "t": 83520,
      "d": 120,
      "v": 100
    },
    {
      "midi": 38,
      "hit": false,
      "t": 83520,
      "d": 480,
      "v": 100
    },
    {
      "midi": 36,
      "hit": false,
      "t": 83760,
      "d": 240,
      "v": 100
    },
    {
      "midi": 44,
      "hit": false,
      "t": 83760,
      "d": 120,
      "v": 100
    },
    {
      "midi": 44,
      "hit": false,
      "t": 83880,
      "d": 120,
      "v": 100
    },
    {
      "midi": 79,
      "hit": false,
      "t": 84000,
      "d": 1920,
      "v": 100
    },
    {
      "midi": 71,
      "hit": false,
      "t": 84000,
      "d": 1920,
      "v": 100
    },
    {
      "midi": 74,
      "hit": false,
      "t": 84000,
      "d": 1920,
      "v": 100
    },
    {
      "midi": 83,
      "hit": false,
      "t": 84000,
      "d": 960,
      "v": 100
    },
    {
      "midi": 62,
      "hit": false,
      "t": 84000,
      "d": 1920,
      "v": 100
    },
    {
      "midi": 74,
      "hit": false,
      "t": 84000,
      "d": 1920,
      "v": 100
    },
    {
      "midi": 36,
      "hit": false,
      "t": 84000,
      "d": 240,
      "v": 100
    },
    {
      "midi": 44,
      "hit": false,
      "t": 84000,
      "d": 120,
      "v": 100
    },
    {
      "midi": 36,
      "hit": false,
      "t": 84000,
      "d": 480,
      "v": 100
    },
    {
      "midi": 36,
      "hit": false,
      "t": 84240,
      "d": 240,
      "v": 100
    },
    {
      "midi": 44,
      "hit": false,
      "t": 84240,
      "d": 120,
      "v": 100
    },
    {
      "midi": 44,
      "hit": false,
      "t": 84360,
      "d": 120,
      "v": 100
    },
    {
      "midi": 36,
      "hit": false,
      "t": 84480,
      "d": 240,
      "v": 100
    },
    {
      "midi": 44,
      "hit": false,
      "t": 84480,
      "d": 120,
      "v": 100
    },
    {
      "midi": 38,
      "hit": false,
      "t": 84480,
      "d": 480,
      "v": 100
    },
    {
      "midi": 36,
      "hit": false,
      "t": 84720,
      "d": 240,
      "v": 100
    },
    {
      "midi": 44,
      "hit": false,
      "t": 84720,
      "d": 120,
      "v": 100
    },
    {
      "midi": 44,
      "hit": false,
      "t": 84840,
      "d": 120,
      "v": 100
    },
    {
      "midi": 81,
      "hit": false,
      "t": 84960,
      "d": 480,
      "v": 100
    },
    {
      "midi": 36,
      "hit": false,
      "t": 84960,
      "d": 240,
      "v": 100
    },
    {
      "midi": 44,
      "hit": false,
      "t": 84960,
      "d": 120,
      "v": 100
    },
    {
      "midi": 36,
      "hit": false,
      "t": 84960,
      "d": 480,
      "v": 100
    },
    {
      "midi": 36,
      "hit": false,
      "t": 85200,
      "d": 240,
      "v": 100
    },
    {
      "midi": 44,
      "hit": false,
      "t": 85200,
      "d": 120,
      "v": 100
    },
    {
      "midi": 44,
      "hit": false,
      "t": 85320,
      "d": 120,
      "v": 100
    },
    {
      "midi": 79,
      "hit": false,
      "t": 85440,
      "d": 480,
      "v": 100
    },
    {
      "midi": 36,
      "hit": false,
      "t": 85440,
      "d": 240,
      "v": 100
    },
    {
      "midi": 44,
      "hit": false,
      "t": 85440,
      "d": 120,
      "v": 100
    },
    {
      "midi": 38,
      "hit": false,
      "t": 85440,
      "d": 480,
      "v": 100
    },
    {
      "midi": 36,
      "hit": false,
      "t": 85680,
      "d": 240,
      "v": 100
    },
    {
      "midi": 44,
      "hit": false,
      "t": 85680,
      "d": 120,
      "v": 100
    },
    {
      "midi": 44,
      "hit": false,
      "t": 85800,
      "d": 120,
      "v": 100
    },
    {
      "midi": 69,
      "hit": false,
      "t": 85920,
      "d": 1920,
      "v": 100
    },
    {
      "midi": 65,
      "hit": false,
      "t": 85920,
      "d": 1920,
      "v": 100
    },
    {
      "midi": 72,
      "hit": false,
      "t": 85920,
      "d": 1920,
      "v": 100
    },
    {
      "midi": 79,
      "hit": false,
      "t": 85920,
      "d": 960,
      "v": 100
    },
    {
      "midi": 69,
      "hit": false,
      "t": 85920,
      "d": 1920,
      "v": 100
    },
    {
      "midi": 72,
      "hit": false,
      "t": 85920,
      "d": 1920,
      "v": 100
    },
    {
      "midi": 36,
      "hit": false,
      "t": 85920,
      "d": 240,
      "v": 100
    },
    {
      "midi": 44,
      "hit": false,
      "t": 85920,
      "d": 120,
      "v": 100
    },
    {
      "midi": 36,
      "hit": false,
      "t": 85920,
      "d": 480,
      "v": 100
    },
    {
      "midi": 36,
      "hit": false,
      "t": 86160,
      "d": 240,
      "v": 100
    },
    {
      "midi": 44,
      "hit": false,
      "t": 86160,
      "d": 120,
      "v": 100
    },
    {
      "midi": 44,
      "hit": false,
      "t": 86280,
      "d": 120,
      "v": 100
    },
    {
      "midi": 36,
      "hit": false,
      "t": 86400,
      "d": 240,
      "v": 100
    },
    {
      "midi": 44,
      "hit": false,
      "t": 86400,
      "d": 120,
      "v": 100
    },
    {
      "midi": 38,
      "hit": false,
      "t": 86400,
      "d": 480,
      "v": 100
    },
    {
      "midi": 36,
      "hit": false,
      "t": 86640,
      "d": 240,
      "v": 100
    },
    {
      "midi": 44,
      "hit": false,
      "t": 86640,
      "d": 120,
      "v": 100
    },
    {
      "midi": 44,
      "hit": false,
      "t": 86760,
      "d": 120,
      "v": 100
    },
    {
      "midi": 77,
      "hit": false,
      "t": 86880,
      "d": 480,
      "v": 100
    },
    {
      "midi": 36,
      "hit": false,
      "t": 86880,
      "d": 240,
      "v": 100
    },
    {
      "midi": 44,
      "hit": false,
      "t": 86880,
      "d": 120,
      "v": 100
    },
    {
      "midi": 36,
      "hit": false,
      "t": 86880,
      "d": 480,
      "v": 100
    },
    {
      "midi": 36,
      "hit": false,
      "t": 87120,
      "d": 240,
      "v": 100
    },
    {
      "midi": 44,
      "hit": false,
      "t": 87120,
      "d": 120,
      "v": 100
    },
    {
      "midi": 44,
      "hit": false,
      "t": 87240,
      "d": 120,
      "v": 100
    },
    {
      "midi": 79,
      "hit": false,
      "t": 87360,
      "d": 480,
      "v": 100
    },
    {
      "midi": 36,
      "hit": false,
      "t": 87360,
      "d": 240,
      "v": 100
    },
    {
      "midi": 44,
      "hit": false,
      "t": 87360,
      "d": 120,
      "v": 100
    },
    {
      "midi": 38,
      "hit": false,
      "t": 87360,
      "d": 480,
      "v": 100
    },
    {
      "midi": 36,
      "hit": false,
      "t": 87600,
      "d": 240,
      "v": 100
    },
    {
      "midi": 44,
      "hit": false,
      "t": 87600,
      "d": 120,
      "v": 100
    },
    {
      "midi": 44,
      "hit": false,
      "t": 87720,
      "d": 120,
      "v": 100
    },
    {
      "midi": 41,
      "hit": false,
      "t": 87840,
      "d": 480,
      "v": 100
    },
    {
      "midi": 65,
      "hit": false,
      "t": 87840,
      "d": 1920,
      "v": 100
    },
    {
      "midi": 60,
      "hit": false,
      "t": 87840,
      "d": 1920,
      "v": 100
    },
    {
      "midi": 80,
      "hit": false,
      "t": 87840,
      "d": 480,
      "v": 100
    },
    {
      "midi": 72,
      "hit": false,
      "t": 87840,
      "d": 480,
      "v": 100
    },
    {
      "midi": 36,
      "hit": false,
      "t": 87840,
      "d": 240,
      "v": 100
    },
    {
      "midi": 44,
      "hit": false,
      "t": 87840,
      "d": 120,
      "v": 100
    },
    {
      "midi": 36,
      "hit": false,
      "t": 87840,
      "d": 480,
      "v": 100
    },
    {
      "midi": 36,
      "hit": false,
      "t": 88080,
      "d": 240,
      "v": 100
    },
    {
      "midi": 44,
      "hit": false,
      "t": 88080,
      "d": 120,
      "v": 100
    },
    {
      "midi": 44,
      "hit": false,
      "t": 88200,
      "d": 120,
      "v": 100
    },
    {
      "midi": 43,
      "hit": false,
      "t": 88320,
      "d": 480,
      "v": 100
    },
    {
      "midi": 79,
      "hit": false,
      "t": 88320,
      "d": 480,
      "v": 100
    },
    {
      "midi": 70,
      "hit": false,
      "t": 88320,
      "d": 480,
      "v": 100
    },
    {
      "midi": 36,
      "hit": false,
      "t": 88320,
      "d": 240,
      "v": 100
    },
    {
      "midi": 44,
      "hit": false,
      "t": 88320,
      "d": 120,
      "v": 100
    },
    {
      "midi": 38,
      "hit": false,
      "t": 88320,
      "d": 480,
      "v": 100
    },
    {
      "midi": 36,
      "hit": false,
      "t": 88560,
      "d": 240,
      "v": 100
    },
    {
      "midi": 44,
      "hit": false,
      "t": 88560,
      "d": 120,
      "v": 100
    },
    {
      "midi": 44,
      "hit": false,
      "t": 88680,
      "d": 120,
      "v": 100
    },
    {
      "midi": 44,
      "hit": false,
      "t": 88800,
      "d": 480,
      "v": 100
    },
    {
      "midi": 77,
      "hit": false,
      "t": 88800,
      "d": 480,
      "v": 100
    },
    {
      "midi": 72,
      "hit": false,
      "t": 88800,
      "d": 480,
      "v": 100
    },
    {
      "midi": 36,
      "hit": false,
      "t": 88800,
      "d": 240,
      "v": 100
    },
    {
      "midi": 44,
      "hit": false,
      "t": 88800,
      "d": 120,
      "v": 100
    },
    {
      "midi": 36,
      "hit": false,
      "t": 88800,
      "d": 480,
      "v": 100
    },
    {
      "midi": 36,
      "hit": false,
      "t": 89040,
      "d": 240,
      "v": 100
    },
    {
      "midi": 44,
      "hit": false,
      "t": 89040,
      "d": 120,
      "v": 100
    },
    {
      "midi": 44,
      "hit": false,
      "t": 89160,
      "d": 120,
      "v": 100
    },
    {
      "midi": 46,
      "hit": false,
      "t": 89280,
      "d": 480,
      "v": 100
    },
    {
      "midi": 75,
      "hit": false,
      "t": 89280,
      "d": 480,
      "v": 100
    },
    {
      "midi": 75,
      "hit": false,
      "t": 89280,
      "d": 480,
      "v": 100
    },
    {
      "midi": 36,
      "hit": false,
      "t": 89280,
      "d": 240,
      "v": 100
    },
    {
      "midi": 44,
      "hit": false,
      "t": 89280,
      "d": 120,
      "v": 100
    },
    {
      "midi": 38,
      "hit": false,
      "t": 89280,
      "d": 480,
      "v": 100
    },
    {
      "midi": 36,
      "hit": false,
      "t": 89520,
      "d": 240,
      "v": 100
    },
    {
      "midi": 44,
      "hit": false,
      "t": 89520,
      "d": 120,
      "v": 100
    },
    {
      "midi": 44,
      "hit": false,
      "t": 89640,
      "d": 120,
      "v": 100
    },
    {
      "midi": 76,
      "hit": false,
      "t": 89760,
      "d": 960,
      "v": 100
    },
    {
      "midi": 72,
      "hit": false,
      "t": 89760,
      "d": 1920,
      "v": 100
    },
    {
      "midi": 48,
      "hit": false,
      "t": 89760,
      "d": 1920,
      "v": 100
    },
    {
      "midi": 36,
      "hit": false,
      "t": 89760,
      "d": 240,
      "v": 100
    },
    {
      "midi": 44,
      "hit": false,
      "t": 89760,
      "d": 120,
      "v": 100
    },
    {
      "midi": 49,
      "hit": false,
      "t": 89760,
      "d": 240,
      "v": 100
    },
    {
      "midi": 36,
      "hit": false,
      "t": 89760,
      "d": 480,
      "v": 100
    },
    {
      "midi": 36,
      "hit": false,
      "t": 90000,
      "d": 240,
      "v": 100
    },
    {
      "midi": 44,
      "hit": false,
      "t": 90000,
      "d": 120,
      "v": 100
    },
    {
      "midi": 44,
      "hit": false,
      "t": 90120,
      "d": 120,
      "v": 100
    },
    {
      "midi": 36,
      "hit": false,
      "t": 90240,
      "d": 240,
      "v": 100
    },
    {
      "midi": 44,
      "hit": false,
      "t": 90240,
      "d": 120,
      "v": 100
    },
    {
      "midi": 38,
      "hit": false,
      "t": 90240,
      "d": 480,
      "v": 100
    },
    {
      "midi": 36,
      "hit": false,
      "t": 90480,
      "d": 240,
      "v": 100
    },
    {
      "midi": 44,
      "hit": false,
      "t": 90480,
      "d": 120,
      "v": 100
    },
    {
      "midi": 44,
      "hit": false,
      "t": 90600,
      "d": 120,
      "v": 100
    },
    {
      "midi": 76,
      "hit": false,
      "t": 90720,
      "d": 320,
      "v": 100
    },
    {
      "midi": 36,
      "hit": false,
      "t": 90720,
      "d": 240,
      "v": 100
    },
    {
      "midi": 44,
      "hit": false,
      "t": 90720,
      "d": 120,
      "v": 100
    },
    {
      "midi": 36,
      "hit": false,
      "t": 90720,
      "d": 480,
      "v": 100
    },
    {
      "midi": 36,
      "hit": false,
      "t": 90960,
      "d": 240,
      "v": 100
    },
    {
      "midi": 44,
      "hit": false,
      "t": 90960,
      "d": 120,
      "v": 100
    },
    {
      "midi": 79,
      "hit": false,
      "t": 91040,
      "d": 320,
      "v": 100
    },
    {
      "midi": 44,
      "hit": false,
      "t": 91080,
      "d": 120,
      "v": 100
    },
    {
      "midi": 36,
      "hit": false,
      "t": 91200,
      "d": 240,
      "v": 100
    },
    {
      "midi": 44,
      "hit": false,
      "t": 91200,
      "d": 120,
      "v": 100
    },
    {
      "midi": 38,
      "hit": false,
      "t": 91200,
      "d": 480,
      "v": 100
    },
    {
      "midi": 84,
      "hit": false,
      "t": 91360,
      "d": 320,
      "v": 100
    },
    {
      "midi": 36,
      "hit": false,
      "t": 91440,
      "d": 240,
      "v": 100
    },
    {
      "midi": 44,
      "hit": false,
      "t": 91440,
      "d": 120,
      "v": 100
    },
    {
      "midi": 44,
      "hit": false,
      "t": 91560,
      "d": 120,
      "v": 100
    },
    {
      "midi": 65,
      "hit": false,
      "t": 91680,
      "d": 1920,
      "v": 100
    },
    {
      "midi": 69,
      "hit": false,
      "t": 91680,
      "d": 1920,
      "v": 100
    },
    {
      "midi": 60,
      "hit": false,
      "t": 91680,
      "d": 1920,
      "v": 100
    },
    {
      "midi": 83,
      "hit": false,
      "t": 91680,
      "d": 960,
      "v": 100
    },
    {
      "midi": 77,
      "hit": false,
      "t": 91680,
      "d": 1920,
      "v": 100
    },
    {
      "midi": 29,
      "hit": false,
      "t": 91680,
      "d": 240,
      "v": 100
    },
    {
      "midi": 44,
      "hit": false,
      "t": 91680,
      "d": 120,
      "v": 100
    },
    {
      "midi": 36,
      "hit": false,
      "t": 91680,
      "d": 480,
      "v": 100
    },
    {
      "midi": 29,
      "hit": false,
      "t": 91920,
      "d": 240,
      "v": 100
    },
    {
      "midi": 44,
      "hit": false,
      "t": 91920,
      "d": 120,
      "v": 100
    },
    {
      "midi": 44,
      "hit": false,
      "t": 92040,
      "d": 120,
      "v": 100
    },
    {
      "midi": 29,
      "hit": false,
      "t": 92160,
      "d": 240,
      "v": 100
    },
    {
      "midi": 44,
      "hit": false,
      "t": 92160,
      "d": 120,
      "v": 100
    },
    {
      "midi": 38,
      "hit": false,
      "t": 92160,
      "d": 480,
      "v": 100
    },
    {
      "midi": 29,
      "hit": false,
      "t": 92400,
      "d": 240,
      "v": 100
    },
    {
      "midi": 44,
      "hit": false,
      "t": 92400,
      "d": 120,
      "v": 100
    },
    {
      "midi": 44,
      "hit": false,
      "t": 92520,
      "d": 120,
      "v": 100
    },
    {
      "midi": 81,
      "hit": false,
      "t": 92640,
      "d": 960,
      "v": 100
    },
    {
      "midi": 29,
      "hit": false,
      "t": 92640,
      "d": 240,
      "v": 100
    },
    {
      "midi": 44,
      "hit": false,
      "t": 92640,
      "d": 120,
      "v": 100
    },
    {
      "midi": 36,
      "hit": false,
      "t": 92640,
      "d": 480,
      "v": 100
    },
    {
      "midi": 29,
      "hit": false,
      "t": 92880,
      "d": 240,
      "v": 100
    },
    {
      "midi": 44,
      "hit": false,
      "t": 92880,
      "d": 120,
      "v": 100
    },
    {
      "midi": 44,
      "hit": false,
      "t": 93000,
      "d": 120,
      "v": 100
    },
    {
      "midi": 29,
      "hit": false,
      "t": 93120,
      "d": 240,
      "v": 100
    },
    {
      "midi": 44,
      "hit": false,
      "t": 93120,
      "d": 120,
      "v": 100
    },
    {
      "midi": 38,
      "hit": false,
      "t": 93120,
      "d": 480,
      "v": 100
    },
    {
      "midi": 29,
      "hit": false,
      "t": 93360,
      "d": 240,
      "v": 100
    },
    {
      "midi": 44,
      "hit": false,
      "t": 93360,
      "d": 120,
      "v": 100
    },
    {
      "midi": 44,
      "hit": false,
      "t": 93480,
      "d": 120,
      "v": 100
    },
    {
      "midi": 62,
      "hit": false,
      "t": 93600,
      "d": 1920,
      "v": 100
    },
    {
      "midi": 65,
      "hit": false,
      "t": 93600,
      "d": 1920,
      "v": 100
    },
    {
      "midi": 69,
      "hit": false,
      "t": 93600,
      "d": 1920,
      "v": 100
    },
    {
      "midi": 77,
      "hit": false,
      "t": 93600,
      "d": 1440,
      "v": 100
    },
    {
      "midi": 74,
      "hit": false,
      "t": 93600,
      "d": 1440,
      "v": 100
    },
    {
      "midi": 62,
      "hit": false,
      "t": 93600,
      "d": 1920,
      "v": 100
    },
    {
      "midi": 38,
      "hit": false,
      "t": 93600,
      "d": 240,
      "v": 100
    },
    {
      "midi": 44,
      "hit": false,
      "t": 93600,
      "d": 120,
      "v": 100
    },
    {
      "midi": 36,
      "hit": false,
      "t": 93600,
      "d": 480,
      "v": 100
    },
    {
      "midi": 38,
      "hit": false,
      "t": 93840,
      "d": 240,
      "v": 100
    },
    {
      "midi": 44,
      "hit": false,
      "t": 93840,
      "d": 120,
      "v": 100
    },
    {
      "midi": 44,
      "hit": false,
      "t": 93960,
      "d": 120,
      "v": 100
    },
    {
      "midi": 38,
      "hit": false,
      "t": 94080,
      "d": 240,
      "v": 100
    },
    {
      "midi": 44,
      "hit": false,
      "t": 94080,
      "d": 120,
      "v": 100
    },
    {
      "midi": 38,
      "hit": false,
      "t": 94080,
      "d": 480,
      "v": 100
    },
    {
      "midi": 38,
      "hit": false,
      "t": 94320,
      "d": 240,
      "v": 100
    },
    {
      "midi": 44,
      "hit": false,
      "t": 94320,
      "d": 120,
      "v": 100
    },
    {
      "midi": 44,
      "hit": false,
      "t": 94440,
      "d": 120,
      "v": 100
    },
    {
      "midi": 38,
      "hit": false,
      "t": 94560,
      "d": 240,
      "v": 100
    },
    {
      "midi": 44,
      "hit": false,
      "t": 94560,
      "d": 120,
      "v": 100
    },
    {
      "midi": 36,
      "hit": false,
      "t": 94560,
      "d": 480,
      "v": 100
    },
    {
      "midi": 38,
      "hit": false,
      "t": 94800,
      "d": 240,
      "v": 100
    },
    {
      "midi": 44,
      "hit": false,
      "t": 94800,
      "d": 120,
      "v": 100
    },
    {
      "midi": 44,
      "hit": false,
      "t": 94920,
      "d": 120,
      "v": 100
    },
    {
      "midi": 79,
      "hit": false,
      "t": 95040,
      "d": 480,
      "v": 100
    },
    {
      "midi": 72,
      "hit": false,
      "t": 95040,
      "d": 480,
      "v": 100
    },
    {
      "midi": 38,
      "hit": false,
      "t": 95040,
      "d": 240,
      "v": 100
    },
    {
      "midi": 44,
      "hit": false,
      "t": 95040,
      "d": 120,
      "v": 100
    },
    {
      "midi": 38,
      "hit": false,
      "t": 95040,
      "d": 480,
      "v": 100
    },
    {
      "midi": 38,
      "hit": false,
      "t": 95280,
      "d": 240,
      "v": 100
    },
    {
      "midi": 44,
      "hit": false,
      "t": 95280,
      "d": 120,
      "v": 100
    },
    {
      "midi": 44,
      "hit": false,
      "t": 95400,
      "d": 120,
      "v": 100
    },
    {
      "midi": 62,
      "hit": false,
      "t": 95520,
      "d": 1920,
      "v": 100
    },
    {
      "midi": 65,
      "hit": false,
      "t": 95520,
      "d": 1920,
      "v": 100
    },
    {
      "midi": 69,
      "hit": false,
      "t": 95520,
      "d": 1920,
      "v": 100
    },
    {
      "midi": 77,
      "hit": false,
      "t": 95520,
      "d": 480,
      "v": 100
    },
    {
      "midi": 74,
      "hit": false,
      "t": 95520,
      "d": 960,
      "v": 100
    },
    {
      "midi": 43,
      "hit": false,
      "t": 95520,
      "d": 1920,
      "v": 100
    },
    {
      "midi": 31,
      "hit": false,
      "t": 95520,
      "d": 240,
      "v": 100
    },
    {
      "midi": 44,
      "hit": false,
      "t": 95520,
      "d": 120,
      "v": 100
    },
    {
      "midi": 36,
      "hit": false,
      "t": 95520,
      "d": 480,
      "v": 100
    },
    {
      "midi": 31,
      "hit": false,
      "t": 95760,
      "d": 240,
      "v": 100
    },
    {
      "midi": 44,
      "hit": false,
      "t": 95760,
      "d": 120,
      "v": 100
    },
    {
      "midi": 44,
      "hit": false,
      "t": 95880,
      "d": 120,
      "v": 100
    },
    {
      "midi": 76,
      "hit": false,
      "t": 96000,
      "d": 480,
      "v": 100
    },
    {
      "midi": 31,
      "hit": false,
      "t": 96000,
      "d": 240,
      "v": 100
    },
    {
      "midi": 44,
      "hit": false,
      "t": 96000,
      "d": 120,
      "v": 100
    },
    {
      "midi": 38,
      "hit": false,
      "t": 96000,
      "d": 480,
      "v": 100
    },
    {
      "midi": 31,
      "hit": false,
      "t": 96240,
      "d": 240,
      "v": 100
    },
    {
      "midi": 44,
      "hit": false,
      "t": 96240,
      "d": 120,
      "v": 100
    },
    {
      "midi": 48,
      "hit": false,
      "t": 96300,
      "d": 60,
      "v": 100
    },
    {
      "midi": 47,
      "hit": false,
      "t": 96360,
      "d": 60,
      "v": 100
    },
    {
      "midi": 44,
      "hit": false,
      "t": 96360,
      "d": 120,
      "v": 100
    },
    {
      "midi": 45,
      "hit": false,
      "t": 96420,
      "d": 60,
      "v": 100
    },
    {
      "midi": 74,
      "hit": false,
      "t": 96480,
      "d": 480,
      "v": 100
    },
    {
      "midi": 70,
      "hit": false,
      "t": 96480,
      "d": 960,
      "v": 100
    },
    {
      "midi": 31,
      "hit": false,
      "t": 96480,
      "d": 240,
      "v": 100
    },
    {
      "midi": 44,
      "hit": false,
      "t": 96480,
      "d": 120,
      "v": 100
    },
    {
      "midi": 47,
      "hit": false,
      "t": 96480,
      "d": 240,
      "v": 100
    },
    {
      "midi": 36,
      "hit": false,
      "t": 96480,
      "d": 480,
      "v": 100
    },
    {
      "midi": 31,
      "hit": false,
      "t": 96720,
      "d": 240,
      "v": 100
    },
    {
      "midi": 44,
      "hit": false,
      "t": 96720,
      "d": 120,
      "v": 100
    },
    {
      "midi": 47,
      "hit": false,
      "t": 96720,
      "d": 240,
      "v": 100
    },
    {
      "midi": 44,
      "hit": false,
      "t": 96840,
      "d": 120,
      "v": 100
    },
    {
      "midi": 72,
      "hit": false,
      "t": 96960,
      "d": 480,
      "v": 100
    },
    {
      "midi": 31,
      "hit": false,
      "t": 96960,
      "d": 240,
      "v": 100
    },
    {
      "midi": 44,
      "hit": false,
      "t": 96960,
      "d": 120,
      "v": 100
    },
    {
      "midi": 45,
      "hit": false,
      "t": 96960,
      "d": 240,
      "v": 100
    },
    {
      "midi": 38,
      "hit": false,
      "t": 96960,
      "d": 480,
      "v": 100
    },
    {
      "midi": 31,
      "hit": false,
      "t": 97200,
      "d": 240,
      "v": 100
    },
    {
      "midi": 44,
      "hit": false,
      "t": 97200,
      "d": 120,
      "v": 100
    },
    {
      "midi": 45,
      "hit": false,
      "t": 97200,
      "d": 240,
      "v": 100
    },
    {
      "midi": 44,
      "hit": false,
      "t": 97320,
      "d": 120,
      "v": 100
    },
    {
      "midi": 77,
      "hit": false,
      "t": 97440,
      "d": 240,
      "v": 100
    },
    {
      "midi": 82,
      "hit": false,
      "t": 97440,
      "d": 160,
      "v": 100
    },
    {
      "midi": 34,
      "hit": false,
      "t": 97440,
      "d": 240,
      "v": 100
    },
    {
      "midi": 68,
      "hit": false,
      "t": 97440,
      "d": 240,
      "v": 100
    },
    {
      "midi": 73,
      "hit": false,
      "t": 97440,
      "d": 240,
      "v": 100
    },
    {
      "midi": 49,
      "hit": false,
      "t": 97440,
      "d": 240,
      "v": 100
    },
    {
      "midi": 38,
      "hit": false,
      "t": 97440,
      "d": 240,
      "v": 100
    },
    {
      "midi": 36,
      "hit": false,
      "t": 97440,
      "d": 240,
      "v": 100
    },
    {
      "midi": 94,
      "hit": false,
      "t": 97600,
      "d": 160,
      "v": 100
    },
    {
      "midi": 76,
      "hit": false,
      "t": 97680,
      "d": 3120,
      "v": 100
    },
    {
      "midi": 34,
      "hit": false,
      "t": 97680,
      "d": 3120,
      "v": 100
    },
    {
      "midi": 67,
      "hit": false,
      "t": 97680,
      "d": 3120,
      "v": 100
    },
    {
      "midi": 72,
      "hit": false,
      "t": 97680,
      "d": 3120,
      "v": 100
    },
    {
      "midi": 49,
      "hit": false,
      "t": 97680,
      "d": 240,
      "v": 100
    },
    {
      "midi": 38,
      "hit": false,
      "t": 97680,
      "d": 240,
      "v": 100
    },
    {
      "midi": 36,
      "hit": false,
      "t": 97680,
      "d": 240,
      "v": 100
    },
    {
      "midi": 82,
      "hit": false,
      "t": 97760,
      "d": 160,
      "v": 100
    },
    {
      "midi": 82,
      "hit": false,
      "t": 97920,
      "d": 160,
      "v": 100
    },
    {
      "midi": 94,
      "hit": false,
      "t": 98080,
      "d": 160,
      "v": 100
    },
    {
      "midi": 82,
      "hit": false,
      "t": 98240,
      "d": 160,
      "v": 100
    },
    {
      "midi": 82,
      "hit": false,
      "t": 98400,
      "d": 160,
      "v": 100
    },
    {
      "midi": 94,
      "hit": false,
      "t": 98560,
      "d": 160,
      "v": 100
    },
    {
      "midi": 82,
      "hit": false,
      "t": 98720,
      "d": 160,
      "v": 100
    },
    {
      "midi": 82,
      "hit": false,
      "t": 98880,
      "d": 160,
      "v": 100
    },
    {
      "midi": 94,
      "hit": false,
      "t": 99040,
      "d": 160,
      "v": 100
    },
    {
      "midi": 82,
      "hit": false,
      "t": 99200,
      "d": 160,
      "v": 100
    },
    {
      "midi": 82,
      "hit": false,
      "t": 99360,
      "d": 160,
      "v": 100
    },
    {
      "midi": 94,
      "hit": false,
      "t": 99520,
      "d": 160,
      "v": 100
    },
    {
      "midi": 82,
      "hit": false,
      "t": 99680,
      "d": 160,
      "v": 100
    },
    {
      "midi": 82,
      "hit": false,
      "t": 99840,
      "d": 160,
      "v": 100
    },
    {
      "midi": 94,
      "hit": false,
      "t": 100000,
      "d": 160,
      "v": 100
    },
    {
      "midi": 82,
      "hit": false,
      "t": 100160,
      "d": 160,
      "v": 100
    },
    {
      "midi": 82,
      "hit": false,
      "t": 100320,
      "d": 160,
      "v": 100
    },
    {
      "midi": 94,
      "hit": false,
      "t": 100480,
      "d": 160,
      "v": 100
    },
    {
      "midi": 82,
      "hit": false,
      "t": 100640,
      "d": 160,
      "v": 100
    },
    {
      "midi": 76,
      "hit": false,
      "t": 100800,
      "d": 240,
      "v": 100
    },
    {
      "midi": 82,
      "hit": false,
      "t": 100800,
      "d": 160,
      "v": 100
    },
    {
      "midi": 34,
      "hit": false,
      "t": 100800,
      "d": 240,
      "v": 100
    },
    {
      "midi": 72,
      "hit": false,
      "t": 100800,
      "d": 240,
      "v": 100
    },
    {
      "midi": 67,
      "hit": false,
      "t": 100800,
      "d": 240,
      "v": 100
    },
    {
      "midi": 36,
      "hit": false,
      "t": 100800,
      "d": 240,
      "v": 100
    },
    {
      "midi": 38,
      "hit": false,
      "t": 100800,
      "d": 240,
      "v": 100
    },
    {
      "midi": 49,
      "hit": false,
      "t": 100800,
      "d": 240,
      "v": 100
    },
    {
      "midi": 94,
      "hit": false,
      "t": 100960,
      "d": 160,
      "v": 100
    },
    {
      "midi": 75,
      "hit": false,
      "t": 101040,
      "d": 1680,
      "v": 100
    },
    {
      "midi": 34,
      "hit": false,
      "t": 101040,
      "d": 1680,
      "v": 100
    },
    {
      "midi": 71,
      "hit": false,
      "t": 101040,
      "d": 1680,
      "v": 100
    },
    {
      "midi": 66,
      "hit": false,
      "t": 101040,
      "d": 1680,
      "v": 100
    },
    {
      "midi": 36,
      "hit": false,
      "t": 101040,
      "d": 240,
      "v": 100
    },
    {
      "midi": 38,
      "hit": false,
      "t": 101040,
      "d": 240,
      "v": 100
    },
    {
      "midi": 49,
      "hit": false,
      "t": 101040,
      "d": 240,
      "v": 100
    },
    {
      "midi": 82,
      "hit": false,
      "t": 101120,
      "d": 160,
      "v": 100
    },
    {
      "midi": 82,
      "hit": false,
      "t": 101280,
      "d": 160,
      "v": 100
    },
    {
      "midi": 94,
      "hit": false,
      "t": 101440,
      "d": 160,
      "v": 100
    },
    {
      "midi": 82,
      "hit": false,
      "t": 101600,
      "d": 160,
      "v": 100
    },
    {
      "midi": 82,
      "hit": false,
      "t": 101760,
      "d": 160,
      "v": 100
    },
    {
      "midi": 94,
      "hit": false,
      "t": 101920,
      "d": 160,
      "v": 100
    },
    {
      "midi": 82,
      "hit": false,
      "t": 102080,
      "d": 160,
      "v": 100
    },
    {
      "midi": 82,
      "hit": false,
      "t": 102240,
      "d": 160,
      "v": 100
    },
    {
      "midi": 94,
      "hit": false,
      "t": 102400,
      "d": 160,
      "v": 100
    },
    {
      "midi": 82,
      "hit": false,
      "t": 102560,
      "d": 160,
      "v": 100
    },
    {
      "midi": 75,
      "hit": false,
      "t": 102720,
      "d": 240,
      "v": 100
    },
    {
      "midi": 82,
      "hit": false,
      "t": 102720,
      "d": 160,
      "v": 100
    },
    {
      "midi": 34,
      "hit": false,
      "t": 102720,
      "d": 240,
      "v": 100
    },
    {
      "midi": 71,
      "hit": false,
      "t": 102720,
      "d": 240,
      "v": 100
    },
    {
      "midi": 66,
      "hit": false,
      "t": 102720,
      "d": 240,
      "v": 100
    },
    {
      "midi": 36,
      "hit": false,
      "t": 102720,
      "d": 240,
      "v": 100
    },
    {
      "midi": 38,
      "hit": false,
      "t": 102720,
      "d": 240,
      "v": 100
    },
    {
      "midi": 49,
      "hit": false,
      "t": 102720,
      "d": 240,
      "v": 100
    },
    {
      "midi": 94,
      "hit": false,
      "t": 102880,
      "d": 160,
      "v": 100
    },
    {
      "midi": 74,
      "hit": false,
      "t": 102960,
      "d": 2640,
      "v": 100
    },
    {
      "midi": 34,
      "hit": false,
      "t": 102960,
      "d": 2640,
      "v": 100
    },
    {
      "midi": 70,
      "hit": false,
      "t": 102960,
      "d": 2640,
      "v": 100
    },
    {
      "midi": 65,
      "hit": false,
      "t": 102960,
      "d": 2640,
      "v": 100
    },
    {
      "midi": 36,
      "hit": false,
      "t": 102960,
      "d": 240,
      "v": 100
    },
    {
      "midi": 38,
      "hit": false,
      "t": 102960,
      "d": 240,
      "v": 100
    },
    {
      "midi": 49,
      "hit": false,
      "t": 102960,
      "d": 240,
      "v": 100
    },
    {
      "midi": 82,
      "hit": false,
      "t": 103040,
      "d": 160,
      "v": 100
    },
    {
      "midi": 82,
      "hit": false,
      "t": 103200,
      "d": 160,
      "v": 100
    },
    {
      "midi": 94,
      "hit": false,
      "t": 103360,
      "d": 160,
      "v": 100
    },
    {
      "midi": 82,
      "hit": false,
      "t": 103520,
      "d": 160,
      "v": 100
    },
    {
      "midi": 82,
      "hit": false,
      "t": 103680,
      "d": 160,
      "v": 100
    },
    {
      "midi": 94,
      "hit": false,
      "t": 103840,
      "d": 160,
      "v": 100
    },
    {
      "midi": 82,
      "hit": false,
      "t": 104000,
      "d": 160,
      "v": 100
    },
    {
      "midi": 82,
      "hit": false,
      "t": 104160,
      "d": 160,
      "v": 100
    },
    {
      "midi": 94,
      "hit": false,
      "t": 104320,
      "d": 160,
      "v": 100
    },
    {
      "midi": 82,
      "hit": false,
      "t": 104480,
      "d": 160,
      "v": 100
    },
    {
      "midi": 82,
      "hit": false,
      "t": 104640,
      "d": 160,
      "v": 100
    },
    {
      "midi": 94,
      "hit": false,
      "t": 104800,
      "d": 160,
      "v": 100
    },
    {
      "midi": 82,
      "hit": false,
      "t": 104960,
      "d": 160,
      "v": 100
    },
    {
      "midi": 82,
      "hit": false,
      "t": 105120,
      "d": 160,
      "v": 100
    },
    {
      "midi": 94,
      "hit": false,
      "t": 105280,
      "d": 160,
      "v": 100
    },
    {
      "midi": 82,
      "hit": false,
      "t": 105440,
      "d": 160,
      "v": 100
    },
    {
      "midi": 83,
      "hit": false,
      "t": 105600,
      "d": 120,
      "v": 100
    },
    {
      "midi": 36,
      "hit": false,
      "t": 105600,
      "d": 480,
      "v": 100
    },
    {
      "midi": 84,
      "hit": false,
      "t": 105720,
      "d": 120,
      "v": 100
    },
    {
      "midi": 91,
      "hit": false,
      "t": 105840,
      "d": 120,
      "v": 100
    },
    {
      "midi": 84,
      "hit": false,
      "t": 105960,
      "d": 120,
      "v": 100
    },
    {
      "midi": 83,
      "hit": false,
      "t": 106080,
      "d": 120,
      "v": 100
    },
    {
      "midi": 36,
      "hit": false,
      "t": 106080,
      "d": 480,
      "v": 100
    },
    {
      "midi": 84,
      "hit": false,
      "t": 106200,
      "d": 120,
      "v": 100
    },
    {
      "midi": 91,
      "hit": false,
      "t": 106320,
      "d": 120,
      "v": 100
    },
    {
      "midi": 84,
      "hit": false,
      "t": 106440,
      "d": 120,
      "v": 100
    },
    {
      "midi": 83,
      "hit": false,
      "t": 106560,
      "d": 120,
      "v": 100
    },
    {
      "midi": 36,
      "hit": false,
      "t": 106560,
      "d": 480,
      "v": 100
    },
    {
      "midi": 84,
      "hit": false,
      "t": 106680,
      "d": 120,
      "v": 100
    },
    {
      "midi": 91,
      "hit": false,
      "t": 106800,
      "d": 120,
      "v": 100
    },
    {
      "midi": 84,
      "hit": false,
      "t": 106920,
      "d": 120,
      "v": 100
    },
    {
      "midi": 83,
      "hit": false,
      "t": 107040,
      "d": 120,
      "v": 100
    },
    {
      "midi": 36,
      "hit": false,
      "t": 107040,
      "d": 480,
      "v": 100
    },
    {
      "midi": 84,
      "hit": false,
      "t": 107160,
      "d": 120,
      "v": 100
    },
    {
      "midi": 91,
      "hit": false,
      "t": 107280,
      "d": 120,
      "v": 100
    },
    {
      "midi": 84,
      "hit": false,
      "t": 107400,
      "d": 120,
      "v": 100
    },
    {
      "midi": 83,
      "hit": false,
      "t": 107520,
      "d": 120,
      "v": 100
    },
    {
      "midi": 36,
      "hit": false,
      "t": 107520,
      "d": 480,
      "v": 100
    },
    {
      "midi": 84,
      "hit": false,
      "t": 107640,
      "d": 120,
      "v": 100
    },
    {
      "midi": 91,
      "hit": false,
      "t": 107760,
      "d": 120,
      "v": 100
    },
    {
      "midi": 84,
      "hit": false,
      "t": 107880,
      "d": 120,
      "v": 100
    },
    {
      "midi": 83,
      "hit": false,
      "t": 108000,
      "d": 120,
      "v": 100
    },
    {
      "midi": 36,
      "hit": false,
      "t": 108000,
      "d": 480,
      "v": 100
    },
    {
      "midi": 84,
      "hit": false,
      "t": 108120,
      "d": 120,
      "v": 100
    },
    {
      "midi": 91,
      "hit": false,
      "t": 108240,
      "d": 120,
      "v": 100
    },
    {
      "midi": 84,
      "hit": false,
      "t": 108360,
      "d": 120,
      "v": 100
    },
    {
      "midi": 83,
      "hit": false,
      "t": 108480,
      "d": 120,
      "v": 100
    },
    {
      "midi": 59,
      "hit": false,
      "t": 108480,
      "d": 120,
      "v": 100
    },
    {
      "midi": 36,
      "hit": false,
      "t": 108480,
      "d": 480,
      "v": 100
    },
    {
      "midi": 84,
      "hit": false,
      "t": 108600,
      "d": 120,
      "v": 100
    },
    {
      "midi": 60,
      "hit": false,
      "t": 108600,
      "d": 120,
      "v": 100
    },
    {
      "midi": 91,
      "hit": false,
      "t": 108720,
      "d": 120,
      "v": 100
    },
    {
      "midi": 64,
      "hit": false,
      "t": 108720,
      "d": 120,
      "v": 100
    },
    {
      "midi": 84,
      "hit": false,
      "t": 108840,
      "d": 120,
      "v": 100
    },
    {
      "midi": 67,
      "hit": false,
      "t": 108840,
      "d": 120,
      "v": 100
    },
    {
      "midi": 83,
      "hit": false,
      "t": 108960,
      "d": 120,
      "v": 100
    },
    {
      "midi": 71,
      "hit": false,
      "t": 108960,
      "d": 120,
      "v": 100
    },
    {
      "midi": 36,
      "hit": false,
      "t": 108960,
      "d": 480,
      "v": 100
    },
    {
      "midi": 84,
      "hit": false,
      "t": 109080,
      "d": 120,
      "v": 100
    },
    {
      "midi": 72,
      "hit": false,
      "t": 109080,
      "d": 120,
      "v": 100
    },
    {
      "midi": 91,
      "hit": false,
      "t": 109200,
      "d": 120,
      "v": 100
    },
    {
      "midi": 76,
      "hit": false,
      "t": 109200,
      "d": 120,
      "v": 100
    },
    {
      "midi": 84,
      "hit": false,
      "t": 109320,
      "d": 120,
      "v": 100
    },
    {
      "midi": 79,
      "hit": false,
      "t": 109320,
      "d": 120,
      "v": 100
    },
    {
      "midi": 33,
      "hit": false,
      "t": 109440,
      "d": 3120,
      "v": 100
    },
    {
      "midi": 72,
      "hit": false,
      "t": 109440,
      "d": 960,
      "v": 100
    },
    {
      "midi": 64,
      "hit": false,
      "t": 109440,
      "d": 960,
      "v": 100
    },
    {
      "midi": 69,
      "hit": false,
      "t": 109440,
      "d": 960,
      "v": 100
    },
    {
      "midi": 69,
      "hit": false,
      "t": 109440,
      "d": 960,
      "v": 100
    },
    {
      "midi": 81,
      "hit": false,
      "t": 109440,
      "d": 960,
      "v": 100
    },
    {
      "midi": 57,
      "hit": false,
      "t": 109440,
      "d": 960,
      "v": 100
    },
    {
      "midi": 44,
      "hit": false,
      "t": 109440,
      "d": 120,
      "v": 100
    },
    {
      "midi": 36,
      "hit": false,
      "t": 109440,
      "d": 480,
      "v": 100
    },
    {
      "midi": 49,
      "hit": false,
      "t": 109440,
      "d": 480,
      "v": 100
    },
    {
      "midi": 44,
      "hit": false,
      "t": 109680,
      "d": 120,
      "v": 100
    },
    {
      "midi": 44,
      "hit": false,
      "t": 109800,
      "d": 120,
      "v": 100
    },
    {
      "midi": 44,
      "hit": false,
      "t": 109920,
      "d": 120,
      "v": 100
    },
    {
      "midi": 38,
      "hit": false,
      "t": 109920,
      "d": 480,
      "v": 100
    },
    {
      "midi": 44,
      "hit": false,
      "t": 110160,
      "d": 120,
      "v": 100
    },
    {
      "midi": 44,
      "hit": false,
      "t": 110280,
      "d": 120,
      "v": 100
    },
    {
      "midi": 69,
      "hit": false,
      "t": 110400,
      "d": 1920,
      "v": 100
    },
    {
      "midi": 76,
      "hit": false,
      "t": 110400,
      "d": 1920,
      "v": 100
    },
    {
      "midi": 72,
      "hit": false,
      "t": 110400,
      "d": 1920,
      "v": 100
    },
    {
      "midi": 76,
      "hit": false,
      "t": 110400,
      "d": 1440,
      "v": 100
    },
    {
      "midi": 88,
      "hit": false,
      "t": 110400,
      "d": 1440,
      "v": 100
    },
    {
      "midi": 60,
      "hit": false,
      "t": 110400,
      "d": 2880,
      "v": 100
    },
    {
      "midi": 44,
      "hit": false,
      "t": 110400,
      "d": 120,
      "v": 100
    },
    {
      "midi": 36,
      "hit": false,
      "t": 110400,
      "d": 480,
      "v": 100
    },
    {
      "midi": 44,
      "hit": false,
      "t": 110640,
      "d": 120,
      "v": 100
    },
    {
      "midi": 44,
      "hit": false,
      "t": 110760,
      "d": 120,
      "v": 100
    },
    {
      "midi": 44,
      "hit": false,
      "t": 110880,
      "d": 120,
      "v": 100
    },
    {
      "midi": 38,
      "hit": false,
      "t": 110880,
      "d": 480,
      "v": 100
    },
    {
      "midi": 44,
      "hit": false,
      "t": 111120,
      "d": 120,
      "v": 100
    },
    {
      "midi": 44,
      "hit": false,
      "t": 111240,
      "d": 120,
      "v": 100
    },
    {
      "midi": 44,
      "hit": false,
      "t": 111360,
      "d": 120,
      "v": 100
    },
    {
      "midi": 36,
      "hit": false,
      "t": 111360,
      "d": 480,
      "v": 100
    },
    {
      "midi": 44,
      "hit": false,
      "t": 111600,
      "d": 120,
      "v": 100
    },
    {
      "midi": 44,
      "hit": false,
      "t": 111720,
      "d": 120,
      "v": 100
    },
    {
      "midi": 72,
      "hit": false,
      "t": 111840,
      "d": 480,
      "v": 100
    },
    {
      "midi": 84,
      "hit": false,
      "t": 111840,
      "d": 480,
      "v": 100
    },
    {
      "midi": 44,
      "hit": false,
      "t": 111840,
      "d": 120,
      "v": 100
    },
    {
      "midi": 38,
      "hit": false,
      "t": 111840,
      "d": 480,
      "v": 100
    },
    {
      "midi": 44,
      "hit": false,
      "t": 112080,
      "d": 120,
      "v": 100
    },
    {
      "midi": 44,
      "hit": false,
      "t": 112200,
      "d": 120,
      "v": 100
    },
    {
      "midi": 74,
      "hit": false,
      "t": 112320,
      "d": 480,
      "v": 100
    },
    {
      "midi": 86,
      "hit": false,
      "t": 112320,
      "d": 480,
      "v": 100
    },
    {
      "midi": 44,
      "hit": false,
      "t": 112320,
      "d": 120,
      "v": 100
    },
    {
      "midi": 36,
      "hit": false,
      "t": 112320,
      "d": 480,
      "v": 100
    },
    {
      "midi": 35,
      "hit": false,
      "t": 112560,
      "d": 240,
      "v": 100
    },
    {
      "midi": 44,
      "hit": false,
      "t": 112560,
      "d": 120,
      "v": 100
    },
    {
      "midi": 44,
      "hit": false,
      "t": 112680,
      "d": 120,
      "v": 100
    },
    {
      "midi": 36,
      "hit": false,
      "t": 112800,
      "d": 240,
      "v": 100
    },
    {
      "midi": 76,
      "hit": false,
      "t": 112800,
      "d": 480,
      "v": 100
    },
    {
      "midi": 88,
      "hit": false,
      "t": 112800,
      "d": 480,
      "v": 100
    },
    {
      "midi": 44,
      "hit": false,
      "t": 112800,
      "d": 120,
      "v": 100
    },
    {
      "midi": 38,
      "hit": false,
      "t": 112800,
      "d": 480,
      "v": 100
    },
    {
      "midi": 35,
      "hit": false,
      "t": 113040,
      "d": 240,
      "v": 100
    },
    {
      "midi": 44,
      "hit": false,
      "t": 113040,
      "d": 120,
      "v": 100
    },
    {
      "midi": 44,
      "hit": false,
      "t": 113160,
      "d": 120,
      "v": 100
    },
    {
      "midi": 29,
      "hit": false,
      "t": 113280,
      "d": 3840,
      "v": 100
    },
    {
      "midi": 65,
      "hit": false,
      "t": 113280,
      "d": 960,
      "v": 100
    },
    {
      "midi": 72,
      "hit": false,
      "t": 113280,
      "d": 960,
      "v": 100
    },
    {
      "midi": 69,
      "hit": false,
      "t": 113280,
      "d": 960,
      "v": 100
    },
    {
      "midi": 81,
      "hit": false,
      "t": 113280,
      "d": 960,
      "v": 100
    },
    {
      "midi": 69,
      "hit": false,
      "t": 113280,
      "d": 960,
      "v": 100
    },
    {
      "midi": 57,
      "hit": false,
      "t": 113280,
      "d": 3840,
      "v": 100
    },
    {
      "midi": 44,
      "hit": false,
      "t": 113280,
      "d": 120,
      "v": 100
    },
    {
      "midi": 36,
      "hit": false,
      "t": 113280,
      "d": 480,
      "v": 100
    },
    {
      "midi": 44,
      "hit": false,
      "t": 113520,
      "d": 120,
      "v": 100
    },
    {
      "midi": 44,
      "hit": false,
      "t": 113640,
      "d": 120,
      "v": 100
    },
    {
      "midi": 44,
      "hit": false,
      "t": 113760,
      "d": 120,
      "v": 100
    },
    {
      "midi": 38,
      "hit": false,
      "t": 113760,
      "d": 480,
      "v": 100
    },
    {
      "midi": 44,
      "hit": false,
      "t": 114000,
      "d": 120,
      "v": 100
    },
    {
      "midi": 44,
      "hit": false,
      "t": 114120,
      "d": 120,
      "v": 100
    },
    {
      "midi": 72,
      "hit": false,
      "t": 114240,
      "d": 1920,
      "v": 100
    },
    {
      "midi": 76,
      "hit": false,
      "t": 114240,
      "d": 1920,
      "v": 100
    },
    {
      "midi": 69,
      "hit": false,
      "t": 114240,
      "d": 1920,
      "v": 100
    },
    {
      "midi": 88,
      "hit": false,
      "t": 114240,
      "d": 1440,
      "v": 100
    },
    {
      "midi": 76,
      "hit": false,
      "t": 114240,
      "d": 1440,
      "v": 100
    },
    {
      "midi": 44,
      "hit": false,
      "t": 114240,
      "d": 120,
      "v": 100
    },
    {
      "midi": 36,
      "hit": false,
      "t": 114240,
      "d": 480,
      "v": 100
    },
    {
      "midi": 44,
      "hit": false,
      "t": 114480,
      "d": 120,
      "v": 100
    },
    {
      "midi": 44,
      "hit": false,
      "t": 114600,
      "d": 120,
      "v": 100
    },
    {
      "midi": 44,
      "hit": false,
      "t": 114720,
      "d": 120,
      "v": 100
    },
    {
      "midi": 38,
      "hit": false,
      "t": 114720,
      "d": 480,
      "v": 100
    },
    {
      "midi": 44,
      "hit": false,
      "t": 114960,
      "d": 120,
      "v": 100
    },
    {
      "midi": 44,
      "hit": false,
      "t": 115080,
      "d": 120,
      "v": 100
    },
    {
      "midi": 44,
      "hit": false,
      "t": 115200,
      "d": 120,
      "v": 100
    },
    {
      "midi": 36,
      "hit": false,
      "t": 115200,
      "d": 480,
      "v": 100
    },
    {
      "midi": 44,
      "hit": false,
      "t": 115440,
      "d": 120,
      "v": 100
    },
    {
      "midi": 44,
      "hit": false,
      "t": 115560,
      "d": 120,
      "v": 100
    },
    {
      "midi": 84,
      "hit": false,
      "t": 115680,
      "d": 480,
      "v": 100
    },
    {
      "midi": 72,
      "hit": false,
      "t": 115680,
      "d": 480,
      "v": 100
    },
    {
      "midi": 44,
      "hit": false,
      "t": 115680,
      "d": 120,
      "v": 100
    },
    {
      "midi": 38,
      "hit": false,
      "t": 115680,
      "d": 480,
      "v": 100
    },
    {
      "midi": 44,
      "hit": false,
      "t": 115920,
      "d": 120,
      "v": 100
    },
    {
      "midi": 44,
      "hit": false,
      "t": 116040,
      "d": 120,
      "v": 100
    },
    {
      "midi": 86,
      "hit": false,
      "t": 116160,
      "d": 480,
      "v": 100
    },
    {
      "midi": 74,
      "hit": false,
      "t": 116160,
      "d": 480,
      "v": 100
    },
    {
      "midi": 44,
      "hit": false,
      "t": 116160,
      "d": 120,
      "v": 100
    },
    {
      "midi": 36,
      "hit": false,
      "t": 116160,
      "d": 480,
      "v": 100
    },
    {
      "midi": 44,
      "hit": false,
      "t": 116400,
      "d": 120,
      "v": 100
    },
    {
      "midi": 44,
      "hit": false,
      "t": 116520,
      "d": 120,
      "v": 100
    },
    {
      "midi": 88,
      "hit": false,
      "t": 116640,
      "d": 480,
      "v": 100
    },
    {
      "midi": 76,
      "hit": false,
      "t": 116640,
      "d": 480,
      "v": 100
    },
    {
      "midi": 44,
      "hit": false,
      "t": 116640,
      "d": 120,
      "v": 100
    },
    {
      "midi": 38,
      "hit": false,
      "t": 116640,
      "d": 480,
      "v": 100
    },
    {
      "midi": 44,
      "hit": false,
      "t": 116880,
      "d": 120,
      "v": 100
    },
    {
      "midi": 62,
      "hit": false,
      "t": 117000,
      "d": 3960,
      "v": 100
    },
    {
      "midi": 44,
      "hit": false,
      "t": 117000,
      "d": 120,
      "v": 100
    },
    {
      "midi": 66,
      "hit": false,
      "t": 117060,
      "d": 1980,
      "v": 100
    },
    {
      "midi": 26,
      "hit": false,
      "t": 117120,
      "d": 1920,
      "v": 100
    },
    {
      "midi": 69,
      "hit": false,
      "t": 117120,
      "d": 1920,
      "v": 100
    },
    {
      "midi": 69,
      "hit": false,
      "t": 117120,
      "d": 960,
      "v": 100
    },
    {
      "midi": 81,
      "hit": false,
      "t": 117120,
      "d": 960,
      "v": 100
    },
    {
      "midi": 57,
      "hit": false,
      "t": 117120,
      "d": 1920,
      "v": 100
    },
    {
      "midi": 44,
      "hit": false,
      "t": 117120,
      "d": 120,
      "v": 100
    },
    {
      "midi": 36,
      "hit": false,
      "t": 117120,
      "d": 480,
      "v": 100
    },
    {
      "midi": 44,
      "hit": false,
      "t": 117360,
      "d": 120,
      "v": 100
    },
    {
      "midi": 44,
      "hit": false,
      "t": 117480,
      "d": 120,
      "v": 100
    },
    {
      "midi": 44,
      "hit": false,
      "t": 117600,
      "d": 120,
      "v": 100
    },
    {
      "midi": 38,
      "hit": false,
      "t": 117600,
      "d": 480,
      "v": 100
    },
    {
      "midi": 44,
      "hit": false,
      "t": 117840,
      "d": 120,
      "v": 100
    },
    {
      "midi": 44,
      "hit": false,
      "t": 117960,
      "d": 120,
      "v": 100
    },
    {
      "midi": 76,
      "hit": false,
      "t": 118080,
      "d": 1440,
      "v": 100
    },
    {
      "midi": 88,
      "hit": false,
      "t": 118080,
      "d": 1440,
      "v": 100
    },
    {
      "midi": 44,
      "hit": false,
      "t": 118080,
      "d": 120,
      "v": 100
    },
    {
      "midi": 36,
      "hit": false,
      "t": 118080,
      "d": 480,
      "v": 100
    },
    {
      "midi": 44,
      "hit": false,
      "t": 118320,
      "d": 120,
      "v": 100
    },
    {
      "midi": 44,
      "hit": false,
      "t": 118440,
      "d": 120,
      "v": 100
    },
    {
      "midi": 44,
      "hit": false,
      "t": 118560,
      "d": 120,
      "v": 100
    },
    {
      "midi": 38,
      "hit": false,
      "t": 118560,
      "d": 480,
      "v": 100
    },
    {
      "midi": 44,
      "hit": false,
      "t": 118800,
      "d": 120,
      "v": 100
    },
    {
      "midi": 44,
      "hit": false,
      "t": 118920,
      "d": 120,
      "v": 100
    },
    {
      "midi": 67,
      "hit": false,
      "t": 118980,
      "d": 1980,
      "v": 100
    },
    {
      "midi": 31,
      "hit": false,
      "t": 119040,
      "d": 1920,
      "v": 100
    },
    {
      "midi": 71,
      "hit": false,
      "t": 119040,
      "d": 1920,
      "v": 100
    },
    {
      "midi": 59,
      "hit": false,
      "t": 119040,
      "d": 1920,
      "v": 100
    },
    {
      "midi": 44,
      "hit": false,
      "t": 119040,
      "d": 120,
      "v": 100
    },
    {
      "midi": 36,
      "hit": false,
      "t": 119040,
      "d": 480,
      "v": 100
    },
    {
      "midi": 44,
      "hit": false,
      "t": 119280,
      "d": 120,
      "v": 100
    },
    {
      "midi": 44,
      "hit": false,
      "t": 119400,
      "d": 120,
      "v": 100
    },
    {
      "midi": 67,
      "hit": false,
      "t": 119520,
      "d": 480,
      "v": 100
    },
    {
      "midi": 79,
      "hit": false,
      "t": 119520,
      "d": 480,
      "v": 100
    },
    {
      "midi": 44,
      "hit": false,
      "t": 119520,
      "d": 120,
      "v": 100
    },
    {
      "midi": 38,
      "hit": false,
      "t": 119520,
      "d": 480,
      "v": 100
    },
    {
      "midi": 44,
      "hit": false,
      "t": 119760,
      "d": 120,
      "v": 100
    },
    {
      "midi": 44,
      "hit": false,
      "t": 119880,
      "d": 120,
      "v": 100
    },
    {
      "midi": 69,
      "hit": false,
      "t": 120000,
      "d": 480,
      "v": 100
    },
    {
      "midi": 81,
      "hit": false,
      "t": 120000,
      "d": 480,
      "v": 100
    },
    {
      "midi": 44,
      "hit": false,
      "t": 120000,
      "d": 120,
      "v": 100
    },
    {
      "midi": 36,
      "hit": false,
      "t": 120000,
      "d": 480,
      "v": 100
    },
    {
      "midi": 44,
      "hit": false,
      "t": 120240,
      "d": 120,
      "v": 100
    },
    {
      "midi": 44,
      "hit": false,
      "t": 120360,
      "d": 120,
      "v": 100
    },
    {
      "midi": 71,
      "hit": false,
      "t": 120480,
      "d": 480,
      "v": 100
    },
    {
      "midi": 83,
      "hit": false,
      "t": 120480,
      "d": 480,
      "v": 100
    },
    {
      "midi": 44,
      "hit": false,
      "t": 120480,
      "d": 120,
      "v": 100
    },
    {
      "midi": 38,
      "hit": false,
      "t": 120480,
      "d": 480,
      "v": 100
    },
    {
      "midi": 44,
      "hit": false,
      "t": 120720,
      "d": 120,
      "v": 100
    },
    {
      "midi": 64,
      "hit": false,
      "t": 120840,
      "d": 2040,
      "v": 100
    },
    {
      "midi": 44,
      "hit": false,
      "t": 120840,
      "d": 120,
      "v": 100
    },
    {
      "midi": 69,
      "hit": false,
      "t": 120900,
      "d": 1980,
      "v": 100
    },
    {
      "midi": 33,
      "hit": false,
      "t": 120960,
      "d": 3840,
      "v": 100
    },
    {
      "midi": 73,
      "hit": false,
      "t": 120960,
      "d": 1920,
      "v": 100
    },
    {
      "midi": 69,
      "hit": false,
      "t": 120960,
      "d": 2880,
      "v": 100
    },
    {
      "midi": 81,
      "hit": false,
      "t": 120960,
      "d": 2880,
      "v": 100
    },
    {
      "midi": 61,
      "hit": false,
      "t": 120960,
      "d": 3840,
      "v": 100
    },
    {
      "midi": 44,
      "hit": false,
      "t": 120960,
      "d": 120,
      "v": 100
    },
    {
      "midi": 36,
      "hit": false,
      "t": 120960,
      "d": 480,
      "v": 100
    },
    {
      "midi": 44,
      "hit": false,
      "t": 121200,
      "d": 120,
      "v": 100
    },
    {
      "midi": 44,
      "hit": false,
      "t": 121320,
      "d": 120,
      "v": 100
    },
    {
      "midi": 44,
      "hit": false,
      "t": 121440,
      "d": 120,
      "v": 100
    },
    {
      "midi": 38,
      "hit": false,
      "t": 121440,
      "d": 480,
      "v": 100
    },
    {
      "midi": 44,
      "hit": false,
      "t": 121680,
      "d": 120,
      "v": 100
    },
    {
      "midi": 44,
      "hit": false,
      "t": 121800,
      "d": 120,
      "v": 100
    },
    {
      "midi": 44,
      "hit": false,
      "t": 121920,
      "d": 120,
      "v": 100
    },
    {
      "midi": 36,
      "hit": false,
      "t": 121920,
      "d": 480,
      "v": 100
    },
    {
      "midi": 44,
      "hit": false,
      "t": 122160,
      "d": 120,
      "v": 100
    },
    {
      "midi": 44,
      "hit": false,
      "t": 122280,
      "d": 120,
      "v": 100
    },
    {
      "midi": 44,
      "hit": false,
      "t": 122400,
      "d": 120,
      "v": 100
    },
    {
      "midi": 38,
      "hit": false,
      "t": 122400,
      "d": 480,
      "v": 100
    },
    {
      "midi": 44,
      "hit": false,
      "t": 122640,
      "d": 120,
      "v": 100
    },
    {
      "midi": 44,
      "hit": false,
      "t": 122760,
      "d": 120,
      "v": 100
    },
    {
      "midi": 44,
      "hit": false,
      "t": 122880,
      "d": 120,
      "v": 100
    },
    {
      "midi": 36,
      "hit": false,
      "t": 122880,
      "d": 480,
      "v": 100
    },
    {
      "midi": 44,
      "hit": false,
      "t": 123120,
      "d": 120,
      "v": 100
    },
    {
      "midi": 44,
      "hit": false,
      "t": 123240,
      "d": 120,
      "v": 100
    },
    {
      "midi": 44,
      "hit": false,
      "t": 123360,
      "d": 120,
      "v": 100
    },
    {
      "midi": 38,
      "hit": false,
      "t": 123360,
      "d": 480,
      "v": 100
    },
    {
      "midi": 44,
      "hit": false,
      "t": 123600,
      "d": 120,
      "v": 100
    },
    {
      "midi": 48,
      "hit": false,
      "t": 123600,
      "d": 240,
      "v": 100
    },
    {
      "midi": 44,
      "hit": false,
      "t": 123720,
      "d": 120,
      "v": 100
    },
    {
      "midi": 44,
      "hit": false,
      "t": 123840,
      "d": 120,
      "v": 100
    },
    {
      "midi": 36,
      "hit": false,
      "t": 123840,
      "d": 480,
      "v": 100
    },
    {
      "midi": 44,
      "hit": false,
      "t": 124080,
      "d": 120,
      "v": 100
    },
    {
      "midi": 45,
      "hit": false,
      "t": 124080,
      "d": 240,
      "v": 100
    },
    {
      "midi": 44,
      "hit": false,
      "t": 124200,
      "d": 120,
      "v": 100
    },
    {
      "midi": 44,
      "hit": false,
      "t": 124320,
      "d": 120,
      "v": 100
    },
    {
      "midi": 41,
      "hit": false,
      "t": 124320,
      "d": 240,
      "v": 100
    },
    {
      "midi": 38,
      "hit": false,
      "t": 124320,
      "d": 480,
      "v": 100
    },
    {
      "midi": 44,
      "hit": false,
      "t": 124560,
      "d": 120,
      "v": 100
    },
    {
      "midi": 44,
      "hit": false,
      "t": 124680,
      "d": 120,
      "v": 100
    },
    {
      "midi": 33,
      "hit": false,
      "t": 124800,
      "d": 3120,
      "v": 100
    },
    {
      "midi": 69,
      "hit": false,
      "t": 124800,
      "d": 960,
      "v": 100
    },
    {
      "midi": 64,
      "hit": false,
      "t": 124800,
      "d": 960,
      "v": 100
    },
    {
      "midi": 72,
      "hit": false,
      "t": 124800,
      "d": 960,
      "v": 100
    },
    {
      "midi": 81,
      "hit": false,
      "t": 124800,
      "d": 960,
      "v": 100
    },
    {
      "midi": 69,
      "hit": false,
      "t": 124800,
      "d": 960,
      "v": 100
    },
    {
      "midi": 57,
      "hit": false,
      "t": 124800,
      "d": 960,
      "v": 100
    },
    {
      "midi": 44,
      "hit": false,
      "t": 124800,
      "d": 120,
      "v": 100
    },
    {
      "midi": 49,
      "hit": false,
      "t": 124800,
      "d": 480,
      "v": 100
    },
    {
      "midi": 36,
      "hit": false,
      "t": 124800,
      "d": 480,
      "v": 100
    },
    {
      "midi": 44,
      "hit": false,
      "t": 125040,
      "d": 120,
      "v": 100
    },
    {
      "midi": 44,
      "hit": false,
      "t": 125160,
      "d": 120,
      "v": 100
    },
    {
      "midi": 44,
      "hit": false,
      "t": 125280,
      "d": 120,
      "v": 100
    },
    {
      "midi": 38,
      "hit": false,
      "t": 125280,
      "d": 480,
      "v": 100
    },
    {
      "midi": 44,
      "hit": false,
      "t": 125520,
      "d": 120,
      "v": 100
    },
    {
      "midi": 44,
      "hit": false,
      "t": 125640,
      "d": 120,
      "v": 100
    },
    {
      "midi": 72,
      "hit": false,
      "t": 125760,
      "d": 1920,
      "v": 100
    },
    {
      "midi": 76,
      "hit": false,
      "t": 125760,
      "d": 1920,
      "v": 100
    },
    {
      "midi": 69,
      "hit": false,
      "t": 125760,
      "d": 1920,
      "v": 100
    },
    {
      "midi": 88,
      "hit": false,
      "t": 125760,
      "d": 1440,
      "v": 100
    },
    {
      "midi": 76,
      "hit": false,
      "t": 125760,
      "d": 1440,
      "v": 100
    },
    {
      "midi": 60,
      "hit": false,
      "t": 125760,
      "d": 2880,
      "v": 100
    },
    {
      "midi": 44,
      "hit": false,
      "t": 125760,
      "d": 120,
      "v": 100
    },
    {
      "midi": 36,
      "hit": false,
      "t": 125760,
      "d": 480,
      "v": 100
    },
    {
      "midi": 44,
      "hit": false,
      "t": 126000,
      "d": 120,
      "v": 100
    },
    {
      "midi": 44,
      "hit": false,
      "t": 126120,
      "d": 120,
      "v": 100
    },
    {
      "midi": 44,
      "hit": false,
      "t": 126240,
      "d": 120,
      "v": 100
    },
    {
      "midi": 38,
      "hit": false,
      "t": 126240,
      "d": 480,
      "v": 100
    },
    {
      "midi": 44,
      "hit": false,
      "t": 126480,
      "d": 120,
      "v": 100
    },
    {
      "midi": 44,
      "hit": false,
      "t": 126600,
      "d": 120,
      "v": 100
    },
    {
      "midi": 44,
      "hit": false,
      "t": 126720,
      "d": 120,
      "v": 100
    },
    {
      "midi": 36,
      "hit": false,
      "t": 126720,
      "d": 480,
      "v": 100
    },
    {
      "midi": 44,
      "hit": false,
      "t": 126960,
      "d": 120,
      "v": 100
    },
    {
      "midi": 44,
      "hit": false,
      "t": 127080,
      "d": 120,
      "v": 100
    },
    {
      "midi": 84,
      "hit": false,
      "t": 127200,
      "d": 480,
      "v": 100
    },
    {
      "midi": 72,
      "hit": false,
      "t": 127200,
      "d": 480,
      "v": 100
    },
    {
      "midi": 44,
      "hit": false,
      "t": 127200,
      "d": 120,
      "v": 100
    },
    {
      "midi": 38,
      "hit": false,
      "t": 127200,
      "d": 480,
      "v": 100
    },
    {
      "midi": 44,
      "hit": false,
      "t": 127440,
      "d": 120,
      "v": 100
    },
    {
      "midi": 44,
      "hit": false,
      "t": 127560,
      "d": 120,
      "v": 100
    },
    {
      "midi": 86,
      "hit": false,
      "t": 127680,
      "d": 480,
      "v": 100
    },
    {
      "midi": 74,
      "hit": false,
      "t": 127680,
      "d": 480,
      "v": 100
    },
    {
      "midi": 44,
      "hit": false,
      "t": 127680,
      "d": 120,
      "v": 100
    },
    {
      "midi": 36,
      "hit": false,
      "t": 127680,
      "d": 480,
      "v": 100
    },
    {
      "midi": 35,
      "hit": false,
      "t": 127920,
      "d": 240,
      "v": 100
    },
    {
      "midi": 44,
      "hit": false,
      "t": 127920,
      "d": 120,
      "v": 100
    },
    {
      "midi": 44,
      "hit": false,
      "t": 128040,
      "d": 120,
      "v": 100
    },
    {
      "midi": 36,
      "hit": false,
      "t": 128160,
      "d": 240,
      "v": 100
    },
    {
      "midi": 88,
      "hit": false,
      "t": 128160,
      "d": 480,
      "v": 100
    },
    {
      "midi": 76,
      "hit": false,
      "t": 128160,
      "d": 480,
      "v": 100
    },
    {
      "midi": 44,
      "hit": false,
      "t": 128160,
      "d": 120,
      "v": 100
    },
    {
      "midi": 38,
      "hit": false,
      "t": 128160,
      "d": 480,
      "v": 100
    },
    {
      "midi": 35,
      "hit": false,
      "t": 128400,
      "d": 240,
      "v": 100
    },
    {
      "midi": 44,
      "hit": false,
      "t": 128400,
      "d": 120,
      "v": 100
    },
    {
      "midi": 44,
      "hit": false,
      "t": 128520,
      "d": 120,
      "v": 100
    },
    {
      "midi": 29,
      "hit": false,
      "t": 128640,
      "d": 3840,
      "v": 100
    },
    {
      "midi": 69,
      "hit": false,
      "t": 128640,
      "d": 960,
      "v": 100
    },
    {
      "midi": 72,
      "hit": false,
      "t": 128640,
      "d": 960,
      "v": 100
    },
    {
      "midi": 65,
      "hit": false,
      "t": 128640,
      "d": 960,
      "v": 100
    },
    {
      "midi": 69,
      "hit": false,
      "t": 128640,
      "d": 960,
      "v": 100
    },
    {
      "midi": 81,
      "hit": false,
      "t": 128640,
      "d": 960,
      "v": 100
    },
    {
      "midi": 57,
      "hit": false,
      "t": 128640,
      "d": 3840,
      "v": 100
    },
    {
      "midi": 44,
      "hit": false,
      "t": 128640,
      "d": 120,
      "v": 100
    },
    {
      "midi": 36,
      "hit": false,
      "t": 128640,
      "d": 480,
      "v": 100
    },
    {
      "midi": 44,
      "hit": false,
      "t": 128880,
      "d": 120,
      "v": 100
    },
    {
      "midi": 44,
      "hit": false,
      "t": 129000,
      "d": 120,
      "v": 100
    },
    {
      "midi": 44,
      "hit": false,
      "t": 129120,
      "d": 120,
      "v": 100
    },
    {
      "midi": 38,
      "hit": false,
      "t": 129120,
      "d": 480,
      "v": 100
    },
    {
      "midi": 44,
      "hit": false,
      "t": 129360,
      "d": 120,
      "v": 100
    },
    {
      "midi": 44,
      "hit": false,
      "t": 129480,
      "d": 120,
      "v": 100
    },
    {
      "midi": 69,
      "hit": false,
      "t": 129600,
      "d": 1920,
      "v": 100
    },
    {
      "midi": 76,
      "hit": false,
      "t": 129600,
      "d": 1920,
      "v": 100
    },
    {
      "midi": 72,
      "hit": false,
      "t": 129600,
      "d": 1920,
      "v": 100
    },
    {
      "midi": 76,
      "hit": false,
      "t": 129600,
      "d": 1440,
      "v": 100
    },
    {
      "midi": 88,
      "hit": false,
      "t": 129600,
      "d": 1440,
      "v": 100
    },
    {
      "midi": 44,
      "hit": false,
      "t": 129600,
      "d": 120,
      "v": 100
    },
    {
      "midi": 36,
      "hit": false,
      "t": 129600,
      "d": 480,
      "v": 100
    },
    {
      "midi": 44,
      "hit": false,
      "t": 129840,
      "d": 120,
      "v": 100
    },
    {
      "midi": 44,
      "hit": false,
      "t": 129960,
      "d": 120,
      "v": 100
    },
    {
      "midi": 44,
      "hit": false,
      "t": 130080,
      "d": 120,
      "v": 100
    },
    {
      "midi": 38,
      "hit": false,
      "t": 130080,
      "d": 480,
      "v": 100
    },
    {
      "midi": 44,
      "hit": false,
      "t": 130320,
      "d": 120,
      "v": 100
    },
    {
      "midi": 44,
      "hit": false,
      "t": 130440,
      "d": 120,
      "v": 100
    },
    {
      "midi": 44,
      "hit": false,
      "t": 130560,
      "d": 120,
      "v": 100
    },
    {
      "midi": 36,
      "hit": false,
      "t": 130560,
      "d": 480,
      "v": 100
    },
    {
      "midi": 44,
      "hit": false,
      "t": 130800,
      "d": 120,
      "v": 100
    },
    {
      "midi": 44,
      "hit": false,
      "t": 130920,
      "d": 120,
      "v": 100
    },
    {
      "midi": 72,
      "hit": false,
      "t": 131040,
      "d": 480,
      "v": 100
    },
    {
      "midi": 84,
      "hit": false,
      "t": 131040,
      "d": 480,
      "v": 100
    },
    {
      "midi": 44,
      "hit": false,
      "t": 131040,
      "d": 120,
      "v": 100
    },
    {
      "midi": 38,
      "hit": false,
      "t": 131040,
      "d": 480,
      "v": 100
    },
    {
      "midi": 44,
      "hit": false,
      "t": 131280,
      "d": 120,
      "v": 100
    },
    {
      "midi": 44,
      "hit": false,
      "t": 131400,
      "d": 120,
      "v": 100
    },
    {
      "midi": 74,
      "hit": false,
      "t": 131520,
      "d": 480,
      "v": 100
    },
    {
      "midi": 86,
      "hit": false,
      "t": 131520,
      "d": 480,
      "v": 100
    },
    {
      "midi": 44,
      "hit": false,
      "t": 131520,
      "d": 120,
      "v": 100
    },
    {
      "midi": 36,
      "hit": false,
      "t": 131520,
      "d": 480,
      "v": 100
    },
    {
      "midi": 44,
      "hit": false,
      "t": 131760,
      "d": 120,
      "v": 100
    },
    {
      "midi": 44,
      "hit": false,
      "t": 131880,
      "d": 120,
      "v": 100
    },
    {
      "midi": 76,
      "hit": false,
      "t": 132000,
      "d": 480,
      "v": 100
    },
    {
      "midi": 88,
      "hit": false,
      "t": 132000,
      "d": 480,
      "v": 100
    },
    {
      "midi": 44,
      "hit": false,
      "t": 132000,
      "d": 120,
      "v": 100
    },
    {
      "midi": 38,
      "hit": false,
      "t": 132000,
      "d": 480,
      "v": 100
    },
    {
      "midi": 44,
      "hit": false,
      "t": 132240,
      "d": 120,
      "v": 100
    },
    {
      "midi": 62,
      "hit": false,
      "t": 132360,
      "d": 3960,
      "v": 100
    },
    {
      "midi": 44,
      "hit": false,
      "t": 132360,
      "d": 120,
      "v": 100
    },
    {
      "midi": 66,
      "hit": false,
      "t": 132420,
      "d": 1980,
      "v": 100
    },
    {
      "midi": 26,
      "hit": false,
      "t": 132480,
      "d": 1920,
      "v": 100
    },
    {
      "midi": 69,
      "hit": false,
      "t": 132480,
      "d": 1920,
      "v": 100
    },
    {
      "midi": 81,
      "hit": false,
      "t": 132480,
      "d": 960,
      "v": 100
    },
    {
      "midi": 69,
      "hit": false,
      "t": 132480,
      "d": 960,
      "v": 100
    },
    {
      "midi": 57,
      "hit": false,
      "t": 132480,
      "d": 1920,
      "v": 100
    },
    {
      "midi": 44,
      "hit": false,
      "t": 132480,
      "d": 120,
      "v": 100
    },
    {
      "midi": 36,
      "hit": false,
      "t": 132480,
      "d": 480,
      "v": 100
    },
    {
      "midi": 44,
      "hit": false,
      "t": 132720,
      "d": 120,
      "v": 100
    },
    {
      "midi": 44,
      "hit": false,
      "t": 132840,
      "d": 120,
      "v": 100
    },
    {
      "midi": 44,
      "hit": false,
      "t": 132960,
      "d": 120,
      "v": 100
    },
    {
      "midi": 38,
      "hit": false,
      "t": 132960,
      "d": 480,
      "v": 100
    },
    {
      "midi": 44,
      "hit": false,
      "t": 133200,
      "d": 120,
      "v": 100
    },
    {
      "midi": 44,
      "hit": false,
      "t": 133320,
      "d": 120,
      "v": 100
    },
    {
      "midi": 88,
      "hit": false,
      "t": 133440,
      "d": 1440,
      "v": 100
    },
    {
      "midi": 76,
      "hit": false,
      "t": 133440,
      "d": 1440,
      "v": 100
    },
    {
      "midi": 44,
      "hit": false,
      "t": 133440,
      "d": 120,
      "v": 100
    },
    {
      "midi": 36,
      "hit": false,
      "t": 133440,
      "d": 480,
      "v": 100
    },
    {
      "midi": 44,
      "hit": false,
      "t": 133680,
      "d": 120,
      "v": 100
    },
    {
      "midi": 44,
      "hit": false,
      "t": 133800,
      "d": 120,
      "v": 100
    },
    {
      "midi": 44,
      "hit": false,
      "t": 133920,
      "d": 120,
      "v": 100
    },
    {
      "midi": 38,
      "hit": false,
      "t": 133920,
      "d": 480,
      "v": 100
    },
    {
      "midi": 44,
      "hit": false,
      "t": 134160,
      "d": 120,
      "v": 100
    },
    {
      "midi": 44,
      "hit": false,
      "t": 134280,
      "d": 120,
      "v": 100
    },
    {
      "midi": 67,
      "hit": false,
      "t": 134340,
      "d": 1980,
      "v": 100
    },
    {
      "midi": 31,
      "hit": false,
      "t": 134400,
      "d": 1920,
      "v": 100
    },
    {
      "midi": 71,
      "hit": false,
      "t": 134400,
      "d": 1920,
      "v": 100
    },
    {
      "midi": 59,
      "hit": false,
      "t": 134400,
      "d": 1920,
      "v": 100
    },
    {
      "midi": 44,
      "hit": false,
      "t": 134400,
      "d": 120,
      "v": 100
    },
    {
      "midi": 36,
      "hit": false,
      "t": 134400,
      "d": 480,
      "v": 100
    },
    {
      "midi": 44,
      "hit": false,
      "t": 134640,
      "d": 120,
      "v": 100
    },
    {
      "midi": 44,
      "hit": false,
      "t": 134760,
      "d": 120,
      "v": 100
    },
    {
      "midi": 79,
      "hit": false,
      "t": 134880,
      "d": 480,
      "v": 100
    },
    {
      "midi": 67,
      "hit": false,
      "t": 134880,
      "d": 480,
      "v": 100
    },
    {
      "midi": 44,
      "hit": false,
      "t": 134880,
      "d": 120,
      "v": 100
    },
    {
      "midi": 38,
      "hit": false,
      "t": 134880,
      "d": 480,
      "v": 100
    },
    {
      "midi": 44,
      "hit": false,
      "t": 135120,
      "d": 120,
      "v": 100
    },
    {
      "midi": 44,
      "hit": false,
      "t": 135240,
      "d": 120,
      "v": 100
    },
    {
      "midi": 81,
      "hit": false,
      "t": 135360,
      "d": 480,
      "v": 100
    },
    {
      "midi": 69,
      "hit": false,
      "t": 135360,
      "d": 480,
      "v": 100
    },
    {
      "midi": 44,
      "hit": false,
      "t": 135360,
      "d": 120,
      "v": 100
    },
    {
      "midi": 36,
      "hit": false,
      "t": 135360,
      "d": 480,
      "v": 100
    },
    {
      "midi": 44,
      "hit": false,
      "t": 135600,
      "d": 120,
      "v": 100
    },
    {
      "midi": 44,
      "hit": false,
      "t": 135720,
      "d": 120,
      "v": 100
    },
    {
      "midi": 83,
      "hit": false,
      "t": 135840,
      "d": 480,
      "v": 100
    },
    {
      "midi": 71,
      "hit": false,
      "t": 135840,
      "d": 480,
      "v": 100
    },
    {
      "midi": 44,
      "hit": false,
      "t": 135840,
      "d": 120,
      "v": 100
    },
    {
      "midi": 38,
      "hit": false,
      "t": 135840,
      "d": 480,
      "v": 100
    },
    {
      "midi": 44,
      "hit": false,
      "t": 136080,
      "d": 120,
      "v": 100
    },
    {
      "midi": 44,
      "hit": false,
      "t": 136200,
      "d": 120,
      "v": 100
    },
    {
      "midi": 33,
      "hit": false,
      "t": 136320,
      "d": 3840,
      "v": 100
    },
    {
      "midi": 69,
      "hit": false,
      "t": 136320,
      "d": 3840,
      "v": 100
    },
    {
      "midi": 81,
      "hit": false,
      "t": 136320,
      "d": 3840,
      "v": 100
    },
    {
      "midi": 60,
      "hit": false,
      "t": 136320,
      "d": 3840,
      "v": 100
    },
    {
      "midi": 72,
      "hit": false,
      "t": 136320,
      "d": 3840,
      "v": 100
    },
    {
      "midi": 33,
      "hit": false,
      "t": 136320,
      "d": 240,
      "v": 100
    },
    {
      "midi": 44,
      "hit": false,
      "t": 136320,
      "d": 120,
      "v": 100
    },
    {
      "midi": 36,
      "hit": false,
      "t": 136320,
      "d": 480,
      "v": 100
    },
    {
      "midi": 33,
      "hit": false,
      "t": 136560,
      "d": 240,
      "v": 100
    },
    {
      "midi": 44,
      "hit": false,
      "t": 136560,
      "d": 120,
      "v": 100
    },
    {
      "midi": 44,
      "hit": false,
      "t": 136680,
      "d": 120,
      "v": 100
    },
    {
      "midi": 33,
      "hit": false,
      "t": 136800,
      "d": 240,
      "v": 100
    },
    {
      "midi": 44,
      "hit": false,
      "t": 136800,
      "d": 120,
      "v": 100
    },
    {
      "midi": 38,
      "hit": false,
      "t": 136800,
      "d": 480,
      "v": 100
    },
    {
      "midi": 33,
      "hit": false,
      "t": 137040,
      "d": 240,
      "v": 100
    },
    {
      "midi": 44,
      "hit": false,
      "t": 137040,
      "d": 120,
      "v": 100
    },
    {
      "midi": 44,
      "hit": false,
      "t": 137160,
      "d": 120,
      "v": 100
    },
    {
      "midi": 33,
      "hit": false,
      "t": 137280,
      "d": 240,
      "v": 100
    },
    {
      "midi": 44,
      "hit": false,
      "t": 137280,
      "d": 120,
      "v": 100
    },
    {
      "midi": 36,
      "hit": false,
      "t": 137280,
      "d": 480,
      "v": 100
    },
    {
      "midi": 33,
      "hit": false,
      "t": 137520,
      "d": 240,
      "v": 100
    },
    {
      "midi": 44,
      "hit": false,
      "t": 137520,
      "d": 120,
      "v": 100
    },
    {
      "midi": 44,
      "hit": false,
      "t": 137640,
      "d": 120,
      "v": 100
    },
    {
      "midi": 33,
      "hit": false,
      "t": 137760,
      "d": 240,
      "v": 100
    },
    {
      "midi": 44,
      "hit": false,
      "t": 137760,
      "d": 120,
      "v": 100
    },
    {
      "midi": 38,
      "hit": false,
      "t": 137760,
      "d": 480,
      "v": 100
    },
    {
      "midi": 33,
      "hit": false,
      "t": 138000,
      "d": 240,
      "v": 100
    },
    {
      "midi": 44,
      "hit": false,
      "t": 138000,
      "d": 120,
      "v": 100
    },
    {
      "midi": 72,
      "hit": false,
      "t": 138120,
      "d": 2040,
      "v": 100
    },
    {
      "midi": 44,
      "hit": false,
      "t": 138120,
      "d": 120,
      "v": 100
    },
    {
      "midi": 76,
      "hit": false,
      "t": 138180,
      "d": 1980,
      "v": 100
    },
    {
      "midi": 81,
      "hit": false,
      "t": 138240,
      "d": 1920,
      "v": 100
    },
    {
      "midi": 33,
      "hit": false,
      "t": 138240,
      "d": 240,
      "v": 100
    },
    {
      "midi": 44,
      "hit": false,
      "t": 138240,
      "d": 120,
      "v": 100
    },
    {
      "midi": 36,
      "hit": false,
      "t": 138240,
      "d": 480,
      "v": 100
    },
    {
      "midi": 33,
      "hit": false,
      "t": 138480,
      "d": 240,
      "v": 100
    },
    {
      "midi": 44,
      "hit": false,
      "t": 138480,
      "d": 120,
      "v": 100
    },
    {
      "midi": 44,
      "hit": false,
      "t": 138600,
      "d": 120,
      "v": 100
    },
    {
      "midi": 33,
      "hit": false,
      "t": 138720,
      "d": 240,
      "v": 100
    },
    {
      "midi": 44,
      "hit": false,
      "t": 138720,
      "d": 120,
      "v": 100
    },
    {
      "midi": 38,
      "hit": false,
      "t": 138720,
      "d": 480,
      "v": 100
    },
    {
      "midi": 33,
      "hit": false,
      "t": 138960,
      "d": 240,
      "v": 100
    },
    {
      "midi": 44,
      "hit": false,
      "t": 138960,
      "d": 120,
      "v": 100
    },
    {
      "midi": 48,
      "hit": false,
      "t": 138960,
      "d": 240,
      "v": 100
    },
    {
      "midi": 44,
      "hit": false,
      "t": 139080,
      "d": 120,
      "v": 100
    },
    {
      "midi": 33,
      "hit": false,
      "t": 139200,
      "d": 240,
      "v": 100
    },
    {
      "midi": 44,
      "hit": false,
      "t": 139200,
      "d": 120,
      "v": 100
    },
    {
      "midi": 36,
      "hit": false,
      "t": 139200,
      "d": 480,
      "v": 100
    },
    {
      "midi": 33,
      "hit": false,
      "t": 139440,
      "d": 240,
      "v": 100
    },
    {
      "midi": 44,
      "hit": false,
      "t": 139440,
      "d": 120,
      "v": 100
    },
    {
      "midi": 45,
      "hit": false,
      "t": 139440,
      "d": 240,
      "v": 100
    },
    {
      "midi": 44,
      "hit": false,
      "t": 139560,
      "d": 120,
      "v": 100
    },
    {
      "midi": 33,
      "hit": false,
      "t": 139680,
      "d": 240,
      "v": 100
    },
    {
      "midi": 44,
      "hit": false,
      "t": 139680,
      "d": 120,
      "v": 100
    },
    {
      "midi": 38,
      "hit": false,
      "t": 139680,
      "d": 480,
      "v": 100
    },
    {
      "midi": 33,
      "hit": false,
      "t": 139920,
      "d": 240,
      "v": 100
    },
    {
      "midi": 44,
      "hit": false,
      "t": 139920,
      "d": 120,
      "v": 100
    },
    {
      "midi": 41,
      "hit": false,
      "t": 139920,
      "d": 240,
      "v": 100
    },
    {
      "midi": 44,
      "hit": false,
      "t": 140040,
      "d": 120,
      "v": 100
    },
    {
      "midi": 34,
      "hit": false,
      "t": 140160,
      "d": 1920,
      "v": 100
    },
    {
      "midi": 86,
      "hit": false,
      "t": 140160,
      "d": 1920,
      "v": 100
    },
    {
      "midi": 82,
      "hit": false,
      "t": 140160,
      "d": 1920,
      "v": 100
    },
    {
      "midi": 74,
      "hit": false,
      "t": 140160,
      "d": 1920,
      "v": 100
    },
    {
      "midi": 34,
      "hit": false,
      "t": 140160,
      "d": 240,
      "v": 100
    },
    {
      "midi": 44,
      "hit": false,
      "t": 140160,
      "d": 120,
      "v": 100
    },
    {
      "midi": 36,
      "hit": false,
      "t": 140160,
      "d": 480,
      "v": 100
    },
    {
      "midi": 65,
      "hit": false,
      "t": 140160,
      "d": 480,
      "v": 100
    },
    {
      "midi": 34,
      "hit": false,
      "t": 140400,
      "d": 240,
      "v": 100
    },
    {
      "midi": 44,
      "hit": false,
      "t": 140400,
      "d": 120,
      "v": 100
    },
    {
      "midi": 44,
      "hit": false,
      "t": 140520,
      "d": 120,
      "v": 100
    },
    {
      "midi": 34,
      "hit": false,
      "t": 140640,
      "d": 240,
      "v": 100
    },
    {
      "midi": 44,
      "hit": false,
      "t": 140640,
      "d": 120,
      "v": 100
    },
    {
      "midi": 38,
      "hit": false,
      "t": 140640,
      "d": 480,
      "v": 100
    },
    {
      "midi": 64,
      "hit": false,
      "t": 140640,
      "d": 240,
      "v": 100
    },
    {
      "midi": 34,
      "hit": false,
      "t": 140880,
      "d": 240,
      "v": 100
    },
    {
      "midi": 44,
      "hit": false,
      "t": 140880,
      "d": 120,
      "v": 100
    },
    {
      "midi": 62,
      "hit": false,
      "t": 140880,
      "d": 480,
      "v": 100
    },
    {
      "midi": 44,
      "hit": false,
      "t": 141000,
      "d": 120,
      "v": 100
    },
    {
      "midi": 34,
      "hit": false,
      "t": 141120,
      "d": 240,
      "v": 100
    },
    {
      "midi": 44,
      "hit": false,
      "t": 141120,
      "d": 120,
      "v": 100
    },
    {
      "midi": 36,
      "hit": false,
      "t": 141120,
      "d": 480,
      "v": 100
    },
    {
      "midi": 34,
      "hit": false,
      "t": 141360,
      "d": 240,
      "v": 100
    },
    {
      "midi": 44,
      "hit": false,
      "t": 141360,
      "d": 120,
      "v": 100
    },
    {
      "midi": 60,
      "hit": false,
      "t": 141360,
      "d": 720,
      "v": 100
    },
    {
      "midi": 44,
      "hit": false,
      "t": 141480,
      "d": 120,
      "v": 100
    },
    {
      "midi": 34,
      "hit": false,
      "t": 141600,
      "d": 240,
      "v": 100
    },
    {
      "midi": 44,
      "hit": false,
      "t": 141600,
      "d": 120,
      "v": 100
    },
    {
      "midi": 38,
      "hit": false,
      "t": 141600,
      "d": 480,
      "v": 100
    },
    {
      "midi": 34,
      "hit": false,
      "t": 141840,
      "d": 240,
      "v": 100
    },
    {
      "midi": 44,
      "hit": false,
      "t": 141840,
      "d": 120,
      "v": 100
    },
    {
      "midi": 44,
      "hit": false,
      "t": 141960,
      "d": 120,
      "v": 100
    },
    {
      "midi": 33,
      "hit": false,
      "t": 142080,
      "d": 1920,
      "v": 100
    },
    {
      "midi": 84,
      "hit": false,
      "t": 142080,
      "d": 1920,
      "v": 100
    },
    {
      "midi": 79,
      "hit": false,
      "t": 142080,
      "d": 1920,
      "v": 100
    },
    {
      "midi": 72,
      "hit": false,
      "t": 142080,
      "d": 1920,
      "v": 100
    },
    {
      "midi": 33,
      "hit": false,
      "t": 142080,
      "d": 240,
      "v": 100
    },
    {
      "midi": 44,
      "hit": false,
      "t": 142080,
      "d": 120,
      "v": 100
    },
    {
      "midi": 36,
      "hit": false,
      "t": 142080,
      "d": 480,
      "v": 100
    },
    {
      "midi": 65,
      "hit": false,
      "t": 142080,
      "d": 480,
      "v": 100
    },
    {
      "midi": 33,
      "hit": false,
      "t": 142320,
      "d": 240,
      "v": 100
    },
    {
      "midi": 44,
      "hit": false,
      "t": 142320,
      "d": 120,
      "v": 100
    },
    {
      "midi": 44,
      "hit": false,
      "t": 142440,
      "d": 120,
      "v": 100
    },
    {
      "midi": 33,
      "hit": false,
      "t": 142560,
      "d": 240,
      "v": 100
    },
    {
      "midi": 44,
      "hit": false,
      "t": 142560,
      "d": 120,
      "v": 100
    },
    {
      "midi": 38,
      "hit": false,
      "t": 142560,
      "d": 480,
      "v": 100
    },
    {
      "midi": 64,
      "hit": false,
      "t": 142560,
      "d": 240,
      "v": 100
    },
    {
      "midi": 33,
      "hit": false,
      "t": 142800,
      "d": 240,
      "v": 100
    },
    {
      "midi": 44,
      "hit": false,
      "t": 142800,
      "d": 120,
      "v": 100
    },
    {
      "midi": 62,
      "hit": false,
      "t": 142800,
      "d": 480,
      "v": 100
    },
    {
      "midi": 44,
      "hit": false,
      "t": 142920,
      "d": 120,
      "v": 100
    },
    {
      "midi": 33,
      "hit": false,
      "t": 143040,
      "d": 240,
      "v": 100
    },
    {
      "midi": 44,
      "hit": false,
      "t": 143040,
      "d": 120,
      "v": 100
    },
    {
      "midi": 36,
      "hit": false,
      "t": 143040,
      "d": 480,
      "v": 100
    },
    {
      "midi": 33,
      "hit": false,
      "t": 143280,
      "d": 240,
      "v": 100
    },
    {
      "midi": 44,
      "hit": false,
      "t": 143280,
      "d": 120,
      "v": 100
    },
    {
      "midi": 60,
      "hit": false,
      "t": 143280,
      "d": 720,
      "v": 100
    },
    {
      "midi": 44,
      "hit": false,
      "t": 143400,
      "d": 120,
      "v": 100
    },
    {
      "midi": 33,
      "hit": false,
      "t": 143520,
      "d": 240,
      "v": 100
    },
    {
      "midi": 44,
      "hit": false,
      "t": 143520,
      "d": 120,
      "v": 100
    },
    {
      "midi": 38,
      "hit": false,
      "t": 143520,
      "d": 480,
      "v": 100
    },
    {
      "midi": 49,
      "hit": false,
      "t": 143520,
      "d": 480,
      "v": 100
    },
    {
      "midi": 33,
      "hit": false,
      "t": 143760,
      "d": 240,
      "v": 100
    },
    {
      "midi": 44,
      "hit": false,
      "t": 143760,
      "d": 120,
      "v": 100
    },
    {
      "midi": 44,
      "hit": false,
      "t": 143880,
      "d": 120,
      "v": 100
    },
    {
      "midi": 32,
      "hit": false,
      "t": 144000,
      "d": 1920,
      "v": 100
    },
    {
      "midi": 74,
      "hit": false,
      "t": 144000,
      "d": 1920,
      "v": 100
    },
    {
      "midi": 82,
      "hit": false,
      "t": 144000,
      "d": 1920,
      "v": 100
    },
    {
      "midi": 86,
      "hit": false,
      "t": 144000,
      "d": 1920,
      "v": 100
    },
    {
      "midi": 32,
      "hit": false,
      "t": 144000,
      "d": 240,
      "v": 100
    },
    {
      "midi": 44,
      "hit": false,
      "t": 144000,
      "d": 120,
      "v": 100
    },
    {
      "midi": 36,
      "hit": false,
      "t": 144000,
      "d": 480,
      "v": 100
    },
    {
      "midi": 65,
      "hit": false,
      "t": 144000,
      "d": 480,
      "v": 100
    },
    {
      "midi": 32,
      "hit": false,
      "t": 144240,
      "d": 240,
      "v": 100
    },
    {
      "midi": 44,
      "hit": false,
      "t": 144240,
      "d": 120,
      "v": 100
    },
    {
      "midi": 44,
      "hit": false,
      "t": 144360,
      "d": 120,
      "v": 100
    },
    {
      "midi": 32,
      "hit": false,
      "t": 144480,
      "d": 240,
      "v": 100
    },
    {
      "midi": 44,
      "hit": false,
      "t": 144480,
      "d": 120,
      "v": 100
    },
    {
      "midi": 38,
      "hit": false,
      "t": 144480,
      "d": 480,
      "v": 100
    },
    {
      "midi": 64,
      "hit": false,
      "t": 144480,
      "d": 240,
      "v": 100
    },
    {
      "midi": 32,
      "hit": false,
      "t": 144720,
      "d": 240,
      "v": 100
    },
    {
      "midi": 44,
      "hit": false,
      "t": 144720,
      "d": 120,
      "v": 100
    },
    {
      "midi": 62,
      "hit": false,
      "t": 144720,
      "d": 480,
      "v": 100
    },
    {
      "midi": 44,
      "hit": false,
      "t": 144840,
      "d": 120,
      "v": 100
    },
    {
      "midi": 32,
      "hit": false,
      "t": 144960,
      "d": 240,
      "v": 100
    },
    {
      "midi": 44,
      "hit": false,
      "t": 144960,
      "d": 120,
      "v": 100
    },
    {
      "midi": 36,
      "hit": false,
      "t": 144960,
      "d": 480,
      "v": 100
    },
    {
      "midi": 32,
      "hit": false,
      "t": 145200,
      "d": 240,
      "v": 100
    },
    {
      "midi": 44,
      "hit": false,
      "t": 145200,
      "d": 120,
      "v": 100
    },
    {
      "midi": 60,
      "hit": false,
      "t": 145200,
      "d": 720,
      "v": 100
    },
    {
      "midi": 44,
      "hit": false,
      "t": 145320,
      "d": 120,
      "v": 100
    },
    {
      "midi": 32,
      "hit": false,
      "t": 145440,
      "d": 240,
      "v": 100
    },
    {
      "midi": 44,
      "hit": false,
      "t": 145440,
      "d": 120,
      "v": 100
    },
    {
      "midi": 38,
      "hit": false,
      "t": 145440,
      "d": 480,
      "v": 100
    },
    {
      "midi": 32,
      "hit": false,
      "t": 145680,
      "d": 240,
      "v": 100
    },
    {
      "midi": 44,
      "hit": false,
      "t": 145680,
      "d": 120,
      "v": 100
    },
    {
      "midi": 44,
      "hit": false,
      "t": 145800,
      "d": 120,
      "v": 100
    },
    {
      "midi": 31,
      "hit": false,
      "t": 145920,
      "d": 1920,
      "v": 100
    },
    {
      "midi": 71,
      "hit": false,
      "t": 145920,
      "d": 480,
      "v": 100
    },
    {
      "midi": 83,
      "hit": false,
      "t": 145920,
      "d": 480,
      "v": 100
    },
    {
      "midi": 79,
      "hit": false,
      "t": 145920,
      "d": 480,
      "v": 100
    },
    {
      "midi": 31,
      "hit": false,
      "t": 145920,
      "d": 240,
      "v": 100
    },
    {
      "midi": 44,
      "hit": false,
      "t": 145920,
      "d": 120,
      "v": 100
    },
    {
      "midi": 36,
      "hit": false,
      "t": 145920,
      "d": 480,
      "v": 100
    },
    {
      "midi": 59,
      "hit": false,
      "t": 145920,
      "d": 480,
      "v": 100
    },
    {
      "midi": 31,
      "hit": false,
      "t": 146160,
      "d": 240,
      "v": 100
    },
    {
      "midi": 44,
      "hit": false,
      "t": 146160,
      "d": 120,
      "v": 100
    },
    {
      "midi": 44,
      "hit": false,
      "t": 146280,
      "d": 120,
      "v": 100
    },
    {
      "midi": 72,
      "hit": false,
      "t": 146400,
      "d": 240,
      "v": 100
    },
    {
      "midi": 84,
      "hit": false,
      "t": 146400,
      "d": 240,
      "v": 100
    },
    {
      "midi": 31,
      "hit": false,
      "t": 146400,
      "d": 240,
      "v": 100
    },
    {
      "midi": 44,
      "hit": false,
      "t": 146400,
      "d": 120,
      "v": 100
    },
    {
      "midi": 38,
      "hit": false,
      "t": 146400,
      "d": 480,
      "v": 100
    },
    {
      "midi": 60,
      "hit": false,
      "t": 146400,
      "d": 240,
      "v": 100
    },
    {
      "midi": 74,
      "hit": false,
      "t": 146640,
      "d": 960,
      "v": 100
    },
    {
      "midi": 86,
      "hit": false,
      "t": 146640,
      "d": 960,
      "v": 100
    },
    {
      "midi": 31,
      "hit": false,
      "t": 146640,
      "d": 240,
      "v": 100
    },
    {
      "midi": 44,
      "hit": false,
      "t": 146640,
      "d": 120,
      "v": 100
    },
    {
      "midi": 62,
      "hit": false,
      "t": 146640,
      "d": 960,
      "v": 100
    },
    {
      "midi": 44,
      "hit": false,
      "t": 146760,
      "d": 120,
      "v": 100
    },
    {
      "midi": 31,
      "hit": false,
      "t": 146880,
      "d": 240,
      "v": 100
    },
    {
      "midi": 44,
      "hit": false,
      "t": 146880,
      "d": 120,
      "v": 100
    },
    {
      "midi": 36,
      "hit": false,
      "t": 146880,
      "d": 480,
      "v": 100
    },
    {
      "midi": 31,
      "hit": false,
      "t": 147120,
      "d": 240,
      "v": 100
    },
    {
      "midi": 44,
      "hit": false,
      "t": 147120,
      "d": 120,
      "v": 100
    },
    {
      "midi": 44,
      "hit": false,
      "t": 147240,
      "d": 120,
      "v": 100
    },
    {
      "midi": 31,
      "hit": false,
      "t": 147360,
      "d": 240,
      "v": 100
    },
    {
      "midi": 44,
      "hit": false,
      "t": 147360,
      "d": 120,
      "v": 100
    },
    {
      "midi": 38,
      "hit": false,
      "t": 147360,
      "d": 480,
      "v": 100
    },
    {
      "midi": 49,
      "hit": false,
      "t": 147360,
      "d": 480,
      "v": 100
    },
    {
      "midi": 31,
      "hit": false,
      "t": 147600,
      "d": 240,
      "v": 100
    },
    {
      "midi": 44,
      "hit": false,
      "t": 147600,
      "d": 120,
      "v": 100
    },
    {
      "midi": 74,
      "hit": false,
      "t": 147720,
      "d": 2040,
      "v": 100
    },
    {
      "midi": 44,
      "hit": false,
      "t": 147720,
      "d": 120,
      "v": 100
    },
    {
      "midi": 82,
      "hit": false,
      "t": 147780,
      "d": 1980,
      "v": 100
    },
    {
      "midi": 34,
      "hit": false,
      "t": 147840,
      "d": 1920,
      "v": 100
    },
    {
      "midi": 86,
      "hit": false,
      "t": 147840,
      "d": 1920,
      "v": 100
    },
    {
      "midi": 34,
      "hit": false,
      "t": 147840,
      "d": 240,
      "v": 100
    },
    {
      "midi": 44,
      "hit": false,
      "t": 147840,
      "d": 120,
      "v": 100
    },
    {
      "midi": 36,
      "hit": false,
      "t": 147840,
      "d": 480,
      "v": 100
    },
    {
      "midi": 65,
      "hit": false,
      "t": 147840,
      "d": 480,
      "v": 100
    },
    {
      "midi": 34,
      "hit": false,
      "t": 148080,
      "d": 240,
      "v": 100
    },
    {
      "midi": 44,
      "hit": false,
      "t": 148080,
      "d": 120,
      "v": 100
    },
    {
      "midi": 44,
      "hit": false,
      "t": 148200,
      "d": 120,
      "v": 100
    },
    {
      "midi": 34,
      "hit": false,
      "t": 148320,
      "d": 240,
      "v": 100
    },
    {
      "midi": 44,
      "hit": false,
      "t": 148320,
      "d": 120,
      "v": 100
    },
    {
      "midi": 38,
      "hit": false,
      "t": 148320,
      "d": 480,
      "v": 100
    },
    {
      "midi": 64,
      "hit": false,
      "t": 148320,
      "d": 240,
      "v": 100
    },
    {
      "midi": 34,
      "hit": false,
      "t": 148560,
      "d": 240,
      "v": 100
    },
    {
      "midi": 44,
      "hit": false,
      "t": 148560,
      "d": 120,
      "v": 100
    },
    {
      "midi": 62,
      "hit": false,
      "t": 148560,
      "d": 480,
      "v": 100
    },
    {
      "midi": 44,
      "hit": false,
      "t": 148680,
      "d": 120,
      "v": 100
    },
    {
      "midi": 34,
      "hit": false,
      "t": 148800,
      "d": 240,
      "v": 100
    },
    {
      "midi": 44,
      "hit": false,
      "t": 148800,
      "d": 120,
      "v": 100
    },
    {
      "midi": 36,
      "hit": false,
      "t": 148800,
      "d": 480,
      "v": 100
    },
    {
      "midi": 34,
      "hit": false,
      "t": 149040,
      "d": 240,
      "v": 100
    },
    {
      "midi": 44,
      "hit": false,
      "t": 149040,
      "d": 120,
      "v": 100
    },
    {
      "midi": 60,
      "hit": false,
      "t": 149040,
      "d": 720,
      "v": 100
    },
    {
      "midi": 44,
      "hit": false,
      "t": 149160,
      "d": 120,
      "v": 100
    },
    {
      "midi": 34,
      "hit": false,
      "t": 149280,
      "d": 240,
      "v": 100
    },
    {
      "midi": 44,
      "hit": false,
      "t": 149280,
      "d": 120,
      "v": 100
    },
    {
      "midi": 38,
      "hit": false,
      "t": 149280,
      "d": 480,
      "v": 100
    },
    {
      "midi": 34,
      "hit": false,
      "t": 149520,
      "d": 240,
      "v": 100
    },
    {
      "midi": 44,
      "hit": false,
      "t": 149520,
      "d": 120,
      "v": 100
    },
    {
      "midi": 44,
      "hit": false,
      "t": 149640,
      "d": 120,
      "v": 100
    },
    {
      "midi": 33,
      "hit": false,
      "t": 149760,
      "d": 1920,
      "v": 100
    },
    {
      "midi": 72,
      "hit": false,
      "t": 149760,
      "d": 1920,
      "v": 100
    },
    {
      "midi": 79,
      "hit": false,
      "t": 149760,
      "d": 1920,
      "v": 100
    },
    {
      "midi": 84,
      "hit": false,
      "t": 149760,
      "d": 1920,
      "v": 100
    },
    {
      "midi": 33,
      "hit": false,
      "t": 149760,
      "d": 240,
      "v": 100
    },
    {
      "midi": 44,
      "hit": false,
      "t": 149760,
      "d": 120,
      "v": 100
    },
    {
      "midi": 36,
      "hit": false,
      "t": 149760,
      "d": 480,
      "v": 100
    },
    {
      "midi": 65,
      "hit": false,
      "t": 149760,
      "d": 480,
      "v": 100
    },
    {
      "midi": 33,
      "hit": false,
      "t": 150000,
      "d": 240,
      "v": 100
    },
    {
      "midi": 44,
      "hit": false,
      "t": 150000,
      "d": 120,
      "v": 100
    },
    {
      "midi": 44,
      "hit": false,
      "t": 150120,
      "d": 120,
      "v": 100
    },
    {
      "midi": 33,
      "hit": false,
      "t": 150240,
      "d": 240,
      "v": 100
    },
    {
      "midi": 44,
      "hit": false,
      "t": 150240,
      "d": 120,
      "v": 100
    },
    {
      "midi": 38,
      "hit": false,
      "t": 150240,
      "d": 480,
      "v": 100
    },
    {
      "midi": 64,
      "hit": false,
      "t": 150240,
      "d": 240,
      "v": 100
    },
    {
      "midi": 33,
      "hit": false,
      "t": 150480,
      "d": 240,
      "v": 100
    },
    {
      "midi": 44,
      "hit": false,
      "t": 150480,
      "d": 120,
      "v": 100
    },
    {
      "midi": 62,
      "hit": false,
      "t": 150480,
      "d": 480,
      "v": 100
    },
    {
      "midi": 44,
      "hit": false,
      "t": 150600,
      "d": 120,
      "v": 100
    },
    {
      "midi": 33,
      "hit": false,
      "t": 150720,
      "d": 240,
      "v": 100
    },
    {
      "midi": 44,
      "hit": false,
      "t": 150720,
      "d": 120,
      "v": 100
    },
    {
      "midi": 36,
      "hit": false,
      "t": 150720,
      "d": 480,
      "v": 100
    },
    {
      "midi": 33,
      "hit": false,
      "t": 150960,
      "d": 240,
      "v": 100
    },
    {
      "midi": 44,
      "hit": false,
      "t": 150960,
      "d": 120,
      "v": 100
    },
    {
      "midi": 60,
      "hit": false,
      "t": 150960,
      "d": 720,
      "v": 100
    },
    {
      "midi": 44,
      "hit": false,
      "t": 151080,
      "d": 120,
      "v": 100
    },
    {
      "midi": 33,
      "hit": false,
      "t": 151200,
      "d": 240,
      "v": 100
    },
    {
      "midi": 44,
      "hit": false,
      "t": 151200,
      "d": 120,
      "v": 100
    },
    {
      "midi": 49,
      "hit": false,
      "t": 151200,
      "d": 480,
      "v": 100
    },
    {
      "midi": 38,
      "hit": false,
      "t": 151200,
      "d": 480,
      "v": 100
    },
    {
      "midi": 33,
      "hit": false,
      "t": 151440,
      "d": 240,
      "v": 100
    },
    {
      "midi": 44,
      "hit": false,
      "t": 151440,
      "d": 120,
      "v": 100
    },
    {
      "midi": 44,
      "hit": false,
      "t": 151560,
      "d": 120,
      "v": 100
    },
    {
      "midi": 32,
      "hit": false,
      "t": 151680,
      "d": 1920,
      "v": 100
    },
    {
      "midi": 86,
      "hit": false,
      "t": 151680,
      "d": 1920,
      "v": 100
    },
    {
      "midi": 82,
      "hit": false,
      "t": 151680,
      "d": 1920,
      "v": 100
    },
    {
      "midi": 74,
      "hit": false,
      "t": 151680,
      "d": 1920,
      "v": 100
    },
    {
      "midi": 32,
      "hit": false,
      "t": 151680,
      "d": 240,
      "v": 100
    },
    {
      "midi": 44,
      "hit": false,
      "t": 151680,
      "d": 120,
      "v": 100
    },
    {
      "midi": 36,
      "hit": false,
      "t": 151680,
      "d": 480,
      "v": 100
    },
    {
      "midi": 65,
      "hit": false,
      "t": 151680,
      "d": 480,
      "v": 100
    },
    {
      "midi": 32,
      "hit": false,
      "t": 151920,
      "d": 240,
      "v": 100
    },
    {
      "midi": 44,
      "hit": false,
      "t": 151920,
      "d": 120,
      "v": 100
    },
    {
      "midi": 44,
      "hit": false,
      "t": 152040,
      "d": 120,
      "v": 100
    },
    {
      "midi": 32,
      "hit": false,
      "t": 152160,
      "d": 240,
      "v": 100
    },
    {
      "midi": 44,
      "hit": false,
      "t": 152160,
      "d": 120,
      "v": 100
    },
    {
      "midi": 38,
      "hit": false,
      "t": 152160,
      "d": 480,
      "v": 100
    },
    {
      "midi": 64,
      "hit": false,
      "t": 152160,
      "d": 240,
      "v": 100
    },
    {
      "midi": 32,
      "hit": false,
      "t": 152400,
      "d": 240,
      "v": 100
    },
    {
      "midi": 44,
      "hit": false,
      "t": 152400,
      "d": 120,
      "v": 100
    },
    {
      "midi": 62,
      "hit": false,
      "t": 152400,
      "d": 480,
      "v": 100
    },
    {
      "midi": 44,
      "hit": false,
      "t": 152520,
      "d": 120,
      "v": 100
    },
    {
      "midi": 32,
      "hit": false,
      "t": 152640,
      "d": 240,
      "v": 100
    },
    {
      "midi": 44,
      "hit": false,
      "t": 152640,
      "d": 120,
      "v": 100
    },
    {
      "midi": 36,
      "hit": false,
      "t": 152640,
      "d": 480,
      "v": 100
    },
    {
      "midi": 32,
      "hit": false,
      "t": 152880,
      "d": 240,
      "v": 100
    },
    {
      "midi": 44,
      "hit": false,
      "t": 152880,
      "d": 120,
      "v": 100
    },
    {
      "midi": 60,
      "hit": false,
      "t": 152880,
      "d": 720,
      "v": 100
    },
    {
      "midi": 44,
      "hit": false,
      "t": 153000,
      "d": 120,
      "v": 100
    },
    {
      "midi": 32,
      "hit": false,
      "t": 153120,
      "d": 240,
      "v": 100
    },
    {
      "midi": 44,
      "hit": false,
      "t": 153120,
      "d": 120,
      "v": 100
    },
    {
      "midi": 38,
      "hit": false,
      "t": 153120,
      "d": 480,
      "v": 100
    },
    {
      "midi": 32,
      "hit": false,
      "t": 153360,
      "d": 240,
      "v": 100
    },
    {
      "midi": 44,
      "hit": false,
      "t": 153360,
      "d": 120,
      "v": 100
    },
    {
      "midi": 44,
      "hit": false,
      "t": 153480,
      "d": 120,
      "v": 100
    },
    {
      "midi": 31,
      "hit": false,
      "t": 153600,
      "d": 1920,
      "v": 100
    },
    {
      "midi": 79,
      "hit": false,
      "t": 153600,
      "d": 480,
      "v": 100
    },
    {
      "midi": 83,
      "hit": false,
      "t": 153600,
      "d": 480,
      "v": 100
    },
    {
      "midi": 71,
      "hit": false,
      "t": 153600,
      "d": 480,
      "v": 100
    },
    {
      "midi": 31,
      "hit": false,
      "t": 153600,
      "d": 240,
      "v": 100
    },
    {
      "midi": 44,
      "hit": false,
      "t": 153600,
      "d": 120,
      "v": 100
    },
    {
      "midi": 36,
      "hit": false,
      "t": 153600,
      "d": 480,
      "v": 100
    },
    {
      "midi": 59,
      "hit": false,
      "t": 153600,
      "d": 480,
      "v": 100
    },
    {
      "midi": 31,
      "hit": false,
      "t": 153840,
      "d": 240,
      "v": 100
    },
    {
      "midi": 44,
      "hit": false,
      "t": 153840,
      "d": 120,
      "v": 100
    },
    {
      "midi": 44,
      "hit": false,
      "t": 153960,
      "d": 120,
      "v": 100
    },
    {
      "midi": 84,
      "hit": false,
      "t": 154080,
      "d": 240,
      "v": 100
    },
    {
      "midi": 72,
      "hit": false,
      "t": 154080,
      "d": 240,
      "v": 100
    },
    {
      "midi": 31,
      "hit": false,
      "t": 154080,
      "d": 240,
      "v": 100
    },
    {
      "midi": 44,
      "hit": false,
      "t": 154080,
      "d": 120,
      "v": 100
    },
    {
      "midi": 38,
      "hit": false,
      "t": 154080,
      "d": 480,
      "v": 100
    },
    {
      "midi": 60,
      "hit": false,
      "t": 154080,
      "d": 240,
      "v": 100
    },
    {
      "midi": 86,
      "hit": false,
      "t": 154320,
      "d": 960,
      "v": 100
    },
    {
      "midi": 74,
      "hit": false,
      "t": 154320,
      "d": 960,
      "v": 100
    },
    {
      "midi": 31,
      "hit": false,
      "t": 154320,
      "d": 240,
      "v": 100
    },
    {
      "midi": 44,
      "hit": false,
      "t": 154320,
      "d": 120,
      "v": 100
    },
    {
      "midi": 62,
      "hit": false,
      "t": 154320,
      "d": 960,
      "v": 100
    },
    {
      "midi": 44,
      "hit": false,
      "t": 154440,
      "d": 120,
      "v": 100
    },
    {
      "midi": 31,
      "hit": false,
      "t": 154560,
      "d": 240,
      "v": 100
    },
    {
      "midi": 44,
      "hit": false,
      "t": 154560,
      "d": 120,
      "v": 100
    },
    {
      "midi": 47,
      "hit": false,
      "t": 154560,
      "d": 240,
      "v": 100
    },
    {
      "midi": 36,
      "hit": false,
      "t": 154560,
      "d": 480,
      "v": 100
    },
    {
      "midi": 31,
      "hit": false,
      "t": 154800,
      "d": 240,
      "v": 100
    },
    {
      "midi": 44,
      "hit": false,
      "t": 154800,
      "d": 120,
      "v": 100
    },
    {
      "midi": 45,
      "hit": false,
      "t": 154800,
      "d": 240,
      "v": 100
    },
    {
      "midi": 44,
      "hit": false,
      "t": 154920,
      "d": 120,
      "v": 100
    },
    {
      "midi": 31,
      "hit": false,
      "t": 155040,
      "d": 240,
      "v": 100
    },
    {
      "midi": 44,
      "hit": false,
      "t": 155040,
      "d": 120,
      "v": 100
    },
    {
      "midi": 43,
      "hit": false,
      "t": 155040,
      "d": 240,
      "v": 100
    },
    {
      "midi": 49,
      "hit": false,
      "t": 155040,
      "d": 480,
      "v": 100
    },
    {
      "midi": 38,
      "hit": false,
      "t": 155040,
      "d": 480,
      "v": 100
    },
    {
      "midi": 72,
      "hit": false,
      "t": 155280,
      "d": 60,
      "v": 100
    },
    {
      "midi": 31,
      "hit": false,
      "t": 155280,
      "d": 240,
      "v": 100
    },
    {
      "midi": 44,
      "hit": false,
      "t": 155280,
      "d": 120,
      "v": 100
    },
    {
      "midi": 41,
      "hit": false,
      "t": 155280,
      "d": 240,
      "v": 100
    },
    {
      "midi": 74,
      "hit": false,
      "t": 155340,
      "d": 60,
      "v": 100
    },
    {
      "midi": 67,
      "hit": false,
      "t": 155400,
      "d": 2040,
      "v": 100
    },
    {
      "midi": 76,
      "hit": false,
      "t": 155400,
      "d": 60,
      "v": 100
    },
    {
      "midi": 44,
      "hit": false,
      "t": 155400,
      "d": 120,
      "v": 100
    },
    {
      "midi": 72,
      "hit": false,
      "t": 155460,
      "d": 1980,
      "v": 100
    },
    {
      "midi": 77,
      "hit": false,
      "t": 155460,
      "d": 60,
      "v": 100
    },
    {
      "midi": 76,
      "hit": false,
      "t": 155520,
      "d": 1920,
      "v": 100
    },
    {
      "midi": 79,
      "hit": false,
      "t": 155520,
      "d": 1440,
      "v": 100
    },
    {
      "midi": 79,
      "hit": false,
      "t": 155520,
      "d": 1920,
      "v": 100
    },
    {
      "midi": 64,
      "hit": false,
      "t": 155520,
      "d": 1920,
      "v": 100
    },
    {
      "midi": 36,
      "hit": false,
      "t": 155520,
      "d": 240,
      "v": 100
    },
    {
      "midi": 44,
      "hit": false,
      "t": 155520,
      "d": 120,
      "v": 100
    },
    {
      "midi": 49,
      "hit": false,
      "t": 155520,
      "d": 240,
      "v": 100
    },
    {
      "midi": 36,
      "hit": false,
      "t": 155520,
      "d": 480,
      "v": 100
    },
    {
      "midi": 36,
      "hit": false,
      "t": 155760,
      "d": 240,
      "v": 100
    },
    {
      "midi": 44,
      "hit": false,
      "t": 155760,
      "d": 120,
      "v": 100
    },
    {
      "midi": 44,
      "hit": false,
      "t": 155880,
      "d": 120,
      "v": 100
    },
    {
      "midi": 36,
      "hit": false,
      "t": 156000,
      "d": 240,
      "v": 100
    },
    {
      "midi": 44,
      "hit": false,
      "t": 156000,
      "d": 120,
      "v": 100
    },
    {
      "midi": 38,
      "hit": false,
      "t": 156000,
      "d": 480,
      "v": 100
    },
    {
      "midi": 36,
      "hit": false,
      "t": 156240,
      "d": 240,
      "v": 100
    },
    {
      "midi": 44,
      "hit": false,
      "t": 156240,
      "d": 120,
      "v": 100
    },
    {
      "midi": 44,
      "hit": false,
      "t": 156360,
      "d": 120,
      "v": 100
    },
    {
      "midi": 36,
      "hit": false,
      "t": 156480,
      "d": 240,
      "v": 100
    },
    {
      "midi": 44,
      "hit": false,
      "t": 156480,
      "d": 120,
      "v": 100
    },
    {
      "midi": 36,
      "hit": false,
      "t": 156480,
      "d": 480,
      "v": 100
    },
    {
      "midi": 36,
      "hit": false,
      "t": 156720,
      "d": 240,
      "v": 100
    },
    {
      "midi": 44,
      "hit": false,
      "t": 156720,
      "d": 120,
      "v": 100
    },
    {
      "midi": 44,
      "hit": false,
      "t": 156840,
      "d": 120,
      "v": 100
    },
    {
      "midi": 84,
      "hit": false,
      "t": 156960,
      "d": 480,
      "v": 100
    },
    {
      "midi": 36,
      "hit": false,
      "t": 156960,
      "d": 240,
      "v": 100
    },
    {
      "midi": 44,
      "hit": false,
      "t": 156960,
      "d": 120,
      "v": 100
    },
    {
      "midi": 38,
      "hit": false,
      "t": 156960,
      "d": 480,
      "v": 100
    },
    {
      "midi": 36,
      "hit": false,
      "t": 157200,
      "d": 240,
      "v": 100
    },
    {
      "midi": 44,
      "hit": false,
      "t": 157200,
      "d": 120,
      "v": 100
    },
    {
      "midi": 44,
      "hit": false,
      "t": 157320,
      "d": 120,
      "v": 100
    },
    {
      "midi": 79,
      "hit": false,
      "t": 157440,
      "d": 1920,
      "v": 100
    },
    {
      "midi": 71,
      "hit": false,
      "t": 157440,
      "d": 1920,
      "v": 100
    },
    {
      "midi": 74,
      "hit": false,
      "t": 157440,
      "d": 1920,
      "v": 100
    },
    {
      "midi": 83,
      "hit": false,
      "t": 157440,
      "d": 960,
      "v": 100
    },
    {
      "midi": 62,
      "hit": false,
      "t": 157440,
      "d": 1920,
      "v": 100
    },
    {
      "midi": 74,
      "hit": false,
      "t": 157440,
      "d": 1920,
      "v": 100
    },
    {
      "midi": 36,
      "hit": false,
      "t": 157440,
      "d": 240,
      "v": 100
    },
    {
      "midi": 44,
      "hit": false,
      "t": 157440,
      "d": 120,
      "v": 100
    },
    {
      "midi": 36,
      "hit": false,
      "t": 157440,
      "d": 480,
      "v": 100
    },
    {
      "midi": 36,
      "hit": false,
      "t": 157680,
      "d": 240,
      "v": 100
    },
    {
      "midi": 44,
      "hit": false,
      "t": 157680,
      "d": 120,
      "v": 100
    },
    {
      "midi": 44,
      "hit": false,
      "t": 157800,
      "d": 120,
      "v": 100
    },
    {
      "midi": 36,
      "hit": false,
      "t": 157920,
      "d": 240,
      "v": 100
    },
    {
      "midi": 44,
      "hit": false,
      "t": 157920,
      "d": 120,
      "v": 100
    },
    {
      "midi": 38,
      "hit": false,
      "t": 157920,
      "d": 480,
      "v": 100
    },
    {
      "midi": 36,
      "hit": false,
      "t": 158160,
      "d": 240,
      "v": 100
    },
    {
      "midi": 44,
      "hit": false,
      "t": 158160,
      "d": 120,
      "v": 100
    },
    {
      "midi": 44,
      "hit": false,
      "t": 158280,
      "d": 120,
      "v": 100
    },
    {
      "midi": 81,
      "hit": false,
      "t": 158400,
      "d": 480,
      "v": 100
    },
    {
      "midi": 36,
      "hit": false,
      "t": 158400,
      "d": 240,
      "v": 100
    },
    {
      "midi": 44,
      "hit": false,
      "t": 158400,
      "d": 120,
      "v": 100
    },
    {
      "midi": 36,
      "hit": false,
      "t": 158400,
      "d": 480,
      "v": 100
    },
    {
      "midi": 36,
      "hit": false,
      "t": 158640,
      "d": 240,
      "v": 100
    },
    {
      "midi": 44,
      "hit": false,
      "t": 158640,
      "d": 120,
      "v": 100
    },
    {
      "midi": 44,
      "hit": false,
      "t": 158760,
      "d": 120,
      "v": 100
    },
    {
      "midi": 79,
      "hit": false,
      "t": 158880,
      "d": 480,
      "v": 100
    },
    {
      "midi": 36,
      "hit": false,
      "t": 158880,
      "d": 240,
      "v": 100
    },
    {
      "midi": 44,
      "hit": false,
      "t": 158880,
      "d": 120,
      "v": 100
    },
    {
      "midi": 38,
      "hit": false,
      "t": 158880,
      "d": 480,
      "v": 100
    },
    {
      "midi": 36,
      "hit": false,
      "t": 159120,
      "d": 240,
      "v": 100
    },
    {
      "midi": 44,
      "hit": false,
      "t": 159120,
      "d": 120,
      "v": 100
    },
    {
      "midi": 44,
      "hit": false,
      "t": 159240,
      "d": 120,
      "v": 100
    },
    {
      "midi": 69,
      "hit": false,
      "t": 159360,
      "d": 1920,
      "v": 100
    },
    {
      "midi": 65,
      "hit": false,
      "t": 159360,
      "d": 1920,
      "v": 100
    },
    {
      "midi": 72,
      "hit": false,
      "t": 159360,
      "d": 1920,
      "v": 100
    },
    {
      "midi": 79,
      "hit": false,
      "t": 159360,
      "d": 960,
      "v": 100
    },
    {
      "midi": 69,
      "hit": false,
      "t": 159360,
      "d": 1920,
      "v": 100
    },
    {
      "midi": 72,
      "hit": false,
      "t": 159360,
      "d": 1920,
      "v": 100
    },
    {
      "midi": 36,
      "hit": false,
      "t": 159360,
      "d": 240,
      "v": 100
    },
    {
      "midi": 44,
      "hit": false,
      "t": 159360,
      "d": 120,
      "v": 100
    },
    {
      "midi": 36,
      "hit": false,
      "t": 159360,
      "d": 480,
      "v": 100
    },
    {
      "midi": 36,
      "hit": false,
      "t": 159600,
      "d": 240,
      "v": 100
    },
    {
      "midi": 44,
      "hit": false,
      "t": 159600,
      "d": 120,
      "v": 100
    },
    {
      "midi": 44,
      "hit": false,
      "t": 159720,
      "d": 120,
      "v": 100
    },
    {
      "midi": 36,
      "hit": false,
      "t": 159840,
      "d": 240,
      "v": 100
    },
    {
      "midi": 44,
      "hit": false,
      "t": 159840,
      "d": 120,
      "v": 100
    },
    {
      "midi": 38,
      "hit": false,
      "t": 159840,
      "d": 480,
      "v": 100
    },
    {
      "midi": 36,
      "hit": false,
      "t": 160080,
      "d": 240,
      "v": 100
    },
    {
      "midi": 44,
      "hit": false,
      "t": 160080,
      "d": 120,
      "v": 100
    },
    {
      "midi": 44,
      "hit": false,
      "t": 160200,
      "d": 120,
      "v": 100
    },
    {
      "midi": 77,
      "hit": false,
      "t": 160320,
      "d": 480,
      "v": 100
    },
    {
      "midi": 36,
      "hit": false,
      "t": 160320,
      "d": 240,
      "v": 100
    },
    {
      "midi": 44,
      "hit": false,
      "t": 160320,
      "d": 120,
      "v": 100
    },
    {
      "midi": 36,
      "hit": false,
      "t": 160320,
      "d": 480,
      "v": 100
    },
    {
      "midi": 36,
      "hit": false,
      "t": 160560,
      "d": 240,
      "v": 100
    },
    {
      "midi": 44,
      "hit": false,
      "t": 160560,
      "d": 120,
      "v": 100
    },
    {
      "midi": 44,
      "hit": false,
      "t": 160680,
      "d": 120,
      "v": 100
    },
    {
      "midi": 79,
      "hit": false,
      "t": 160800,
      "d": 480,
      "v": 100
    },
    {
      "midi": 36,
      "hit": false,
      "t": 160800,
      "d": 240,
      "v": 100
    },
    {
      "midi": 44,
      "hit": false,
      "t": 160800,
      "d": 120,
      "v": 100
    },
    {
      "midi": 38,
      "hit": false,
      "t": 160800,
      "d": 480,
      "v": 100
    },
    {
      "midi": 36,
      "hit": false,
      "t": 161040,
      "d": 240,
      "v": 100
    },
    {
      "midi": 44,
      "hit": false,
      "t": 161040,
      "d": 120,
      "v": 100
    },
    {
      "midi": 44,
      "hit": false,
      "t": 161160,
      "d": 120,
      "v": 100
    },
    {
      "midi": 41,
      "hit": false,
      "t": 161280,
      "d": 480,
      "v": 100
    },
    {
      "midi": 65,
      "hit": false,
      "t": 161280,
      "d": 1920,
      "v": 100
    },
    {
      "midi": 60,
      "hit": false,
      "t": 161280,
      "d": 1920,
      "v": 100
    },
    {
      "midi": 80,
      "hit": false,
      "t": 161280,
      "d": 480,
      "v": 100
    },
    {
      "midi": 72,
      "hit": false,
      "t": 161280,
      "d": 480,
      "v": 100
    },
    {
      "midi": 36,
      "hit": false,
      "t": 161280,
      "d": 240,
      "v": 100
    },
    {
      "midi": 44,
      "hit": false,
      "t": 161280,
      "d": 120,
      "v": 100
    },
    {
      "midi": 36,
      "hit": false,
      "t": 161280,
      "d": 480,
      "v": 100
    },
    {
      "midi": 36,
      "hit": false,
      "t": 161520,
      "d": 240,
      "v": 100
    },
    {
      "midi": 44,
      "hit": false,
      "t": 161520,
      "d": 120,
      "v": 100
    },
    {
      "midi": 44,
      "hit": false,
      "t": 161640,
      "d": 120,
      "v": 100
    },
    {
      "midi": 43,
      "hit": false,
      "t": 161760,
      "d": 480,
      "v": 100
    },
    {
      "midi": 79,
      "hit": false,
      "t": 161760,
      "d": 480,
      "v": 100
    },
    {
      "midi": 70,
      "hit": false,
      "t": 161760,
      "d": 480,
      "v": 100
    },
    {
      "midi": 36,
      "hit": false,
      "t": 161760,
      "d": 240,
      "v": 100
    },
    {
      "midi": 44,
      "hit": false,
      "t": 161760,
      "d": 120,
      "v": 100
    },
    {
      "midi": 38,
      "hit": false,
      "t": 161760,
      "d": 480,
      "v": 100
    },
    {
      "midi": 36,
      "hit": false,
      "t": 162000,
      "d": 240,
      "v": 100
    },
    {
      "midi": 44,
      "hit": false,
      "t": 162000,
      "d": 120,
      "v": 100
    },
    {
      "midi": 44,
      "hit": false,
      "t": 162120,
      "d": 120,
      "v": 100
    },
    {
      "midi": 44,
      "hit": false,
      "t": 162240,
      "d": 480,
      "v": 100
    },
    {
      "midi": 77,
      "hit": false,
      "t": 162240,
      "d": 480,
      "v": 100
    },
    {
      "midi": 72,
      "hit": false,
      "t": 162240,
      "d": 480,
      "v": 100
    },
    {
      "midi": 36,
      "hit": false,
      "t": 162240,
      "d": 240,
      "v": 100
    },
    {
      "midi": 44,
      "hit": false,
      "t": 162240,
      "d": 120,
      "v": 100
    },
    {
      "midi": 36,
      "hit": false,
      "t": 162240,
      "d": 480,
      "v": 100
    },
    {
      "midi": 36,
      "hit": false,
      "t": 162480,
      "d": 240,
      "v": 100
    },
    {
      "midi": 44,
      "hit": false,
      "t": 162480,
      "d": 120,
      "v": 100
    },
    {
      "midi": 44,
      "hit": false,
      "t": 162600,
      "d": 120,
      "v": 100
    },
    {
      "midi": 46,
      "hit": false,
      "t": 162720,
      "d": 480,
      "v": 100
    },
    {
      "midi": 75,
      "hit": false,
      "t": 162720,
      "d": 480,
      "v": 100
    },
    {
      "midi": 75,
      "hit": false,
      "t": 162720,
      "d": 480,
      "v": 100
    },
    {
      "midi": 36,
      "hit": false,
      "t": 162720,
      "d": 240,
      "v": 100
    },
    {
      "midi": 44,
      "hit": false,
      "t": 162720,
      "d": 120,
      "v": 100
    },
    {
      "midi": 38,
      "hit": false,
      "t": 162720,
      "d": 480,
      "v": 100
    },
    {
      "midi": 36,
      "hit": false,
      "t": 162960,
      "d": 240,
      "v": 100
    },
    {
      "midi": 44,
      "hit": false,
      "t": 162960,
      "d": 120,
      "v": 100
    },
    {
      "midi": 44,
      "hit": false,
      "t": 163080,
      "d": 120,
      "v": 100
    },
    {
      "midi": 76,
      "hit": false,
      "t": 163200,
      "d": 960,
      "v": 100
    },
    {
      "midi": 72,
      "hit": false,
      "t": 163200,
      "d": 1920,
      "v": 100
    },
    {
      "midi": 48,
      "hit": false,
      "t": 163200,
      "d": 1920,
      "v": 100
    },
    {
      "midi": 36,
      "hit": false,
      "t": 163200,
      "d": 240,
      "v": 100
    },
    {
      "midi": 44,
      "hit": false,
      "t": 163200,
      "d": 120,
      "v": 100
    },
    {
      "midi": 49,
      "hit": false,
      "t": 163200,
      "d": 240,
      "v": 100
    },
    {
      "midi": 36,
      "hit": false,
      "t": 163200,
      "d": 480,
      "v": 100
    },
    {
      "midi": 36,
      "hit": false,
      "t": 163440,
      "d": 240,
      "v": 100
    },
    {
      "midi": 44,
      "hit": false,
      "t": 163440,
      "d": 120,
      "v": 100
    },
    {
      "midi": 44,
      "hit": false,
      "t": 163560,
      "d": 120,
      "v": 100
    },
    {
      "midi": 36,
      "hit": false,
      "t": 163680,
      "d": 240,
      "v": 100
    },
    {
      "midi": 44,
      "hit": false,
      "t": 163680,
      "d": 120,
      "v": 100
    },
    {
      "midi": 38,
      "hit": false,
      "t": 163680,
      "d": 480,
      "v": 100
    },
    {
      "midi": 36,
      "hit": false,
      "t": 163920,
      "d": 240,
      "v": 100
    },
    {
      "midi": 44,
      "hit": false,
      "t": 163920,
      "d": 120,
      "v": 100
    },
    {
      "midi": 44,
      "hit": false,
      "t": 164040,
      "d": 120,
      "v": 100
    },
    {
      "midi": 76,
      "hit": false,
      "t": 164160,
      "d": 320,
      "v": 100
    },
    {
      "midi": 36,
      "hit": false,
      "t": 164160,
      "d": 240,
      "v": 100
    },
    {
      "midi": 44,
      "hit": false,
      "t": 164160,
      "d": 120,
      "v": 100
    },
    {
      "midi": 36,
      "hit": false,
      "t": 164160,
      "d": 480,
      "v": 100
    },
    {
      "midi": 36,
      "hit": false,
      "t": 164400,
      "d": 240,
      "v": 100
    },
    {
      "midi": 44,
      "hit": false,
      "t": 164400,
      "d": 120,
      "v": 100
    },
    {
      "midi": 79,
      "hit": false,
      "t": 164480,
      "d": 320,
      "v": 100
    },
    {
      "midi": 44,
      "hit": false,
      "t": 164520,
      "d": 120,
      "v": 100
    },
    {
      "midi": 36,
      "hit": false,
      "t": 164640,
      "d": 240,
      "v": 100
    },
    {
      "midi": 44,
      "hit": false,
      "t": 164640,
      "d": 120,
      "v": 100
    },
    {
      "midi": 38,
      "hit": false,
      "t": 164640,
      "d": 480,
      "v": 100
    },
    {
      "midi": 84,
      "hit": false,
      "t": 164800,
      "d": 320,
      "v": 100
    },
    {
      "midi": 36,
      "hit": false,
      "t": 164880,
      "d": 240,
      "v": 100
    },
    {
      "midi": 44,
      "hit": false,
      "t": 164880,
      "d": 120,
      "v": 100
    },
    {
      "midi": 44,
      "hit": false,
      "t": 165000,
      "d": 120,
      "v": 100
    },
    {
      "midi": 65,
      "hit": false,
      "t": 165120,
      "d": 1920,
      "v": 100
    },
    {
      "midi": 69,
      "hit": false,
      "t": 165120,
      "d": 1920,
      "v": 100
    },
    {
      "midi": 60,
      "hit": false,
      "t": 165120,
      "d": 1920,
      "v": 100
    },
    {
      "midi": 83,
      "hit": false,
      "t": 165120,
      "d": 960,
      "v": 100
    },
    {
      "midi": 77,
      "hit": false,
      "t": 165120,
      "d": 1920,
      "v": 100
    },
    {
      "midi": 29,
      "hit": false,
      "t": 165120,
      "d": 240,
      "v": 100
    },
    {
      "midi": 44,
      "hit": false,
      "t": 165120,
      "d": 120,
      "v": 100
    },
    {
      "midi": 36,
      "hit": false,
      "t": 165120,
      "d": 480,
      "v": 100
    },
    {
      "midi": 29,
      "hit": false,
      "t": 165360,
      "d": 240,
      "v": 100
    },
    {
      "midi": 44,
      "hit": false,
      "t": 165360,
      "d": 120,
      "v": 100
    },
    {
      "midi": 44,
      "hit": false,
      "t": 165480,
      "d": 120,
      "v": 100
    },
    {
      "midi": 29,
      "hit": false,
      "t": 165600,
      "d": 240,
      "v": 100
    },
    {
      "midi": 44,
      "hit": false,
      "t": 165600,
      "d": 120,
      "v": 100
    },
    {
      "midi": 38,
      "hit": false,
      "t": 165600,
      "d": 480,
      "v": 100
    },
    {
      "midi": 29,
      "hit": false,
      "t": 165840,
      "d": 240,
      "v": 100
    },
    {
      "midi": 44,
      "hit": false,
      "t": 165840,
      "d": 120,
      "v": 100
    },
    {
      "midi": 44,
      "hit": false,
      "t": 165960,
      "d": 120,
      "v": 100
    },
    {
      "midi": 81,
      "hit": false,
      "t": 166080,
      "d": 960,
      "v": 100
    },
    {
      "midi": 29,
      "hit": false,
      "t": 166080,
      "d": 240,
      "v": 100
    },
    {
      "midi": 44,
      "hit": false,
      "t": 166080,
      "d": 120,
      "v": 100
    },
    {
      "midi": 36,
      "hit": false,
      "t": 166080,
      "d": 480,
      "v": 100
    },
    {
      "midi": 29,
      "hit": false,
      "t": 166320,
      "d": 240,
      "v": 100
    },
    {
      "midi": 44,
      "hit": false,
      "t": 166320,
      "d": 120,
      "v": 100
    },
    {
      "midi": 44,
      "hit": false,
      "t": 166440,
      "d": 120,
      "v": 100
    },
    {
      "midi": 29,
      "hit": false,
      "t": 166560,
      "d": 240,
      "v": 100
    },
    {
      "midi": 44,
      "hit": false,
      "t": 166560,
      "d": 120,
      "v": 100
    },
    {
      "midi": 38,
      "hit": false,
      "t": 166560,
      "d": 480,
      "v": 100
    },
    {
      "midi": 29,
      "hit": false,
      "t": 166800,
      "d": 240,
      "v": 100
    },
    {
      "midi": 44,
      "hit": false,
      "t": 166800,
      "d": 120,
      "v": 100
    },
    {
      "midi": 44,
      "hit": false,
      "t": 166920,
      "d": 120,
      "v": 100
    },
    {
      "midi": 62,
      "hit": false,
      "t": 167040,
      "d": 1920,
      "v": 100
    },
    {
      "midi": 65,
      "hit": false,
      "t": 167040,
      "d": 1920,
      "v": 100
    },
    {
      "midi": 69,
      "hit": false,
      "t": 167040,
      "d": 1920,
      "v": 100
    },
    {
      "midi": 77,
      "hit": false,
      "t": 167040,
      "d": 1440,
      "v": 100
    },
    {
      "midi": 74,
      "hit": false,
      "t": 167040,
      "d": 1440,
      "v": 100
    },
    {
      "midi": 62,
      "hit": false,
      "t": 167040,
      "d": 1920,
      "v": 100
    },
    {
      "midi": 38,
      "hit": false,
      "t": 167040,
      "d": 240,
      "v": 100
    },
    {
      "midi": 44,
      "hit": false,
      "t": 167040,
      "d": 120,
      "v": 100
    },
    {
      "midi": 36,
      "hit": false,
      "t": 167040,
      "d": 480,
      "v": 100
    },
    {
      "midi": 38,
      "hit": false,
      "t": 167280,
      "d": 240,
      "v": 100
    },
    {
      "midi": 44,
      "hit": false,
      "t": 167280,
      "d": 120,
      "v": 100
    },
    {
      "midi": 44,
      "hit": false,
      "t": 167400,
      "d": 120,
      "v": 100
    },
    {
      "midi": 38,
      "hit": false,
      "t": 167520,
      "d": 240,
      "v": 100
    },
    {
      "midi": 44,
      "hit": false,
      "t": 167520,
      "d": 120,
      "v": 100
    },
    {
      "midi": 38,
      "hit": false,
      "t": 167520,
      "d": 480,
      "v": 100
    },
    {
      "midi": 38,
      "hit": false,
      "t": 167760,
      "d": 240,
      "v": 100
    },
    {
      "midi": 44,
      "hit": false,
      "t": 167760,
      "d": 120,
      "v": 100
    },
    {
      "midi": 44,
      "hit": false,
      "t": 167880,
      "d": 120,
      "v": 100
    },
    {
      "midi": 38,
      "hit": false,
      "t": 168000,
      "d": 240,
      "v": 100
    },
    {
      "midi": 44,
      "hit": false,
      "t": 168000,
      "d": 120,
      "v": 100
    },
    {
      "midi": 36,
      "hit": false,
      "t": 168000,
      "d": 480,
      "v": 100
    },
    {
      "midi": 38,
      "hit": false,
      "t": 168240,
      "d": 240,
      "v": 100
    },
    {
      "midi": 44,
      "hit": false,
      "t": 168240,
      "d": 120,
      "v": 100
    },
    {
      "midi": 44,
      "hit": false,
      "t": 168360,
      "d": 120,
      "v": 100
    },
    {
      "midi": 79,
      "hit": false,
      "t": 168480,
      "d": 480,
      "v": 100
    },
    {
      "midi": 72,
      "hit": false,
      "t": 168480,
      "d": 480,
      "v": 100
    },
    {
      "midi": 38,
      "hit": false,
      "t": 168480,
      "d": 240,
      "v": 100
    },
    {
      "midi": 44,
      "hit": false,
      "t": 168480,
      "d": 120,
      "v": 100
    },
    {
      "midi": 38,
      "hit": false,
      "t": 168480,
      "d": 480,
      "v": 100
    },
    {
      "midi": 38,
      "hit": false,
      "t": 168720,
      "d": 240,
      "v": 100
    },
    {
      "midi": 44,
      "hit": false,
      "t": 168720,
      "d": 120,
      "v": 100
    },
    {
      "midi": 44,
      "hit": false,
      "t": 168840,
      "d": 120,
      "v": 100
    },
    {
      "midi": 62,
      "hit": false,
      "t": 168960,
      "d": 1920,
      "v": 100
    },
    {
      "midi": 65,
      "hit": false,
      "t": 168960,
      "d": 1920,
      "v": 100
    },
    {
      "midi": 69,
      "hit": false,
      "t": 168960,
      "d": 1920,
      "v": 100
    },
    {
      "midi": 77,
      "hit": false,
      "t": 168960,
      "d": 480,
      "v": 100
    },
    {
      "midi": 74,
      "hit": false,
      "t": 168960,
      "d": 960,
      "v": 100
    },
    {
      "midi": 58,
      "hit": false,
      "t": 168960,
      "d": 1920,
      "v": 100
    },
    {
      "midi": 34,
      "hit": false,
      "t": 168960,
      "d": 240,
      "v": 100
    },
    {
      "midi": 44,
      "hit": false,
      "t": 168960,
      "d": 120,
      "v": 100
    },
    {
      "midi": 36,
      "hit": false,
      "t": 168960,
      "d": 480,
      "v": 100
    },
    {
      "midi": 34,
      "hit": false,
      "t": 169200,
      "d": 240,
      "v": 100
    },
    {
      "midi": 44,
      "hit": false,
      "t": 169200,
      "d": 120,
      "v": 100
    },
    {
      "midi": 44,
      "hit": false,
      "t": 169320,
      "d": 120,
      "v": 100
    },
    {
      "midi": 76,
      "hit": false,
      "t": 169440,
      "d": 480,
      "v": 100
    },
    {
      "midi": 34,
      "hit": false,
      "t": 169440,
      "d": 240,
      "v": 100
    },
    {
      "midi": 44,
      "hit": false,
      "t": 169440,
      "d": 120,
      "v": 100
    },
    {
      "midi": 38,
      "hit": false,
      "t": 169440,
      "d": 480,
      "v": 100
    },
    {
      "midi": 34,
      "hit": false,
      "t": 169680,
      "d": 240,
      "v": 100
    },
    {
      "midi": 44,
      "hit": false,
      "t": 169680,
      "d": 120,
      "v": 100
    },
    {
      "midi": 48,
      "hit": false,
      "t": 169740,
      "d": 60,
      "v": 100
    },
    {
      "midi": 47,
      "hit": false,
      "t": 169800,
      "d": 60,
      "v": 100
    },
    {
      "midi": 44,
      "hit": false,
      "t": 169800,
      "d": 120,
      "v": 100
    },
    {
      "midi": 45,
      "hit": false,
      "t": 169860,
      "d": 60,
      "v": 100
    },
    {
      "midi": 74,
      "hit": false,
      "t": 169920,
      "d": 480,
      "v": 100
    },
    {
      "midi": 70,
      "hit": false,
      "t": 169920,
      "d": 960,
      "v": 100
    },
    {
      "midi": 34,
      "hit": false,
      "t": 169920,
      "d": 240,
      "v": 100
    },
    {
      "midi": 44,
      "hit": false,
      "t": 169920,
      "d": 120,
      "v": 100
    },
    {
      "midi": 47,
      "hit": false,
      "t": 169920,
      "d": 240,
      "v": 100
    },
    {
      "midi": 36,
      "hit": false,
      "t": 169920,
      "d": 480,
      "v": 100
    },
    {
      "midi": 34,
      "hit": false,
      "t": 170160,
      "d": 240,
      "v": 100
    },
    {
      "midi": 44,
      "hit": false,
      "t": 170160,
      "d": 120,
      "v": 100
    },
    {
      "midi": 47,
      "hit": false,
      "t": 170160,
      "d": 240,
      "v": 100
    },
    {
      "midi": 44,
      "hit": false,
      "t": 170280,
      "d": 120,
      "v": 100
    },
    {
      "midi": 72,
      "hit": false,
      "t": 170400,
      "d": 480,
      "v": 100
    },
    {
      "midi": 34,
      "hit": false,
      "t": 170400,
      "d": 240,
      "v": 100
    },
    {
      "midi": 44,
      "hit": false,
      "t": 170400,
      "d": 120,
      "v": 100
    },
    {
      "midi": 45,
      "hit": false,
      "t": 170400,
      "d": 240,
      "v": 100
    },
    {
      "midi": 38,
      "hit": false,
      "t": 170400,
      "d": 480,
      "v": 100
    },
    {
      "midi": 34,
      "hit": false,
      "t": 170640,
      "d": 240,
      "v": 100
    },
    {
      "midi": 44,
      "hit": false,
      "t": 170640,
      "d": 120,
      "v": 100
    },
    {
      "midi": 45,
      "hit": false,
      "t": 170640,
      "d": 240,
      "v": 100
    },
    {
      "midi": 44,
      "hit": false,
      "t": 170760,
      "d": 120,
      "v": 100
    },
    {
      "midi": 76,
      "hit": false,
      "t": 170880,
      "d": 1920,
      "v": 100
    },
    {
      "midi": 72,
      "hit": false,
      "t": 170880,
      "d": 1920,
      "v": 100
    },
    {
      "midi": 67,
      "hit": false,
      "t": 170880,
      "d": 1920,
      "v": 100
    },
    {
      "midi": 79,
      "hit": false,
      "t": 170880,
      "d": 1440,
      "v": 100
    },
    {
      "midi": 64,
      "hit": false,
      "t": 170880,
      "d": 1920,
      "v": 100
    },
    {
      "midi": 79,
      "hit": false,
      "t": 170880,
      "d": 1920,
      "v": 100
    },
    {
      "midi": 36,
      "hit": false,
      "t": 170880,
      "d": 240,
      "v": 100
    },
    {
      "midi": 44,
      "hit": false,
      "t": 170880,
      "d": 120,
      "v": 100
    },
    {
      "midi": 49,
      "hit": false,
      "t": 170880,
      "d": 240,
      "v": 100
    },
    {
      "midi": 36,
      "hit": false,
      "t": 170880,
      "d": 480,
      "v": 100
    },
    {
      "midi": 36,
      "hit": false,
      "t": 171120,
      "d": 240,
      "v": 100
    },
    {
      "midi": 44,
      "hit": false,
      "t": 171120,
      "d": 120,
      "v": 100
    },
    {
      "midi": 44,
      "hit": false,
      "t": 171240,
      "d": 120,
      "v": 100
    },
    {
      "midi": 36,
      "hit": false,
      "t": 171360,
      "d": 240,
      "v": 100
    },
    {
      "midi": 44,
      "hit": false,
      "t": 171360,
      "d": 120,
      "v": 100
    },
    {
      "midi": 38,
      "hit": false,
      "t": 171360,
      "d": 480,
      "v": 100
    },
    {
      "midi": 36,
      "hit": false,
      "t": 171600,
      "d": 240,
      "v": 100
    },
    {
      "midi": 44,
      "hit": false,
      "t": 171600,
      "d": 120,
      "v": 100
    },
    {
      "midi": 44,
      "hit": false,
      "t": 171720,
      "d": 120,
      "v": 100
    },
    {
      "midi": 36,
      "hit": false,
      "t": 171840,
      "d": 240,
      "v": 100
    },
    {
      "midi": 44,
      "hit": false,
      "t": 171840,
      "d": 120,
      "v": 100
    },
    {
      "midi": 36,
      "hit": false,
      "t": 171840,
      "d": 480,
      "v": 100
    },
    {
      "midi": 36,
      "hit": false,
      "t": 172080,
      "d": 240,
      "v": 100
    },
    {
      "midi": 44,
      "hit": false,
      "t": 172080,
      "d": 120,
      "v": 100
    },
    {
      "midi": 44,
      "hit": false,
      "t": 172200,
      "d": 120,
      "v": 100
    },
    {
      "midi": 84,
      "hit": false,
      "t": 172320,
      "d": 480,
      "v": 100
    },
    {
      "midi": 36,
      "hit": false,
      "t": 172320,
      "d": 240,
      "v": 100
    },
    {
      "midi": 44,
      "hit": false,
      "t": 172320,
      "d": 120,
      "v": 100
    },
    {
      "midi": 38,
      "hit": false,
      "t": 172320,
      "d": 480,
      "v": 100
    },
    {
      "midi": 36,
      "hit": false,
      "t": 172560,
      "d": 240,
      "v": 100
    },
    {
      "midi": 44,
      "hit": false,
      "t": 172560,
      "d": 120,
      "v": 100
    },
    {
      "midi": 44,
      "hit": false,
      "t": 172680,
      "d": 120,
      "v": 100
    },
    {
      "midi": 74,
      "hit": false,
      "t": 172800,
      "d": 1920,
      "v": 100
    },
    {
      "midi": 71,
      "hit": false,
      "t": 172800,
      "d": 1920,
      "v": 100
    },
    {
      "midi": 79,
      "hit": false,
      "t": 172800,
      "d": 1920,
      "v": 100
    },
    {
      "midi": 83,
      "hit": false,
      "t": 172800,
      "d": 960,
      "v": 100
    },
    {
      "midi": 74,
      "hit": false,
      "t": 172800,
      "d": 1920,
      "v": 100
    },
    {
      "midi": 62,
      "hit": false,
      "t": 172800,
      "d": 1920,
      "v": 100
    },
    {
      "midi": 36,
      "hit": false,
      "t": 172800,
      "d": 240,
      "v": 100
    },
    {
      "midi": 44,
      "hit": false,
      "t": 172800,
      "d": 120,
      "v": 100
    },
    {
      "midi": 36,
      "hit": false,
      "t": 172800,
      "d": 480,
      "v": 100
    },
    {
      "midi": 36,
      "hit": false,
      "t": 173040,
      "d": 240,
      "v": 100
    },
    {
      "midi": 44,
      "hit": false,
      "t": 173040,
      "d": 120,
      "v": 100
    },
    {
      "midi": 44,
      "hit": false,
      "t": 173160,
      "d": 120,
      "v": 100
    },
    {
      "midi": 36,
      "hit": false,
      "t": 173280,
      "d": 240,
      "v": 100
    },
    {
      "midi": 44,
      "hit": false,
      "t": 173280,
      "d": 120,
      "v": 100
    },
    {
      "midi": 38,
      "hit": false,
      "t": 173280,
      "d": 480,
      "v": 100
    },
    {
      "midi": 36,
      "hit": false,
      "t": 173520,
      "d": 240,
      "v": 100
    },
    {
      "midi": 44,
      "hit": false,
      "t": 173520,
      "d": 120,
      "v": 100
    },
    {
      "midi": 44,
      "hit": false,
      "t": 173640,
      "d": 120,
      "v": 100
    },
    {
      "midi": 81,
      "hit": false,
      "t": 173760,
      "d": 480,
      "v": 100
    },
    {
      "midi": 36,
      "hit": false,
      "t": 173760,
      "d": 240,
      "v": 100
    },
    {
      "midi": 44,
      "hit": false,
      "t": 173760,
      "d": 120,
      "v": 100
    },
    {
      "midi": 36,
      "hit": false,
      "t": 173760,
      "d": 480,
      "v": 100
    },
    {
      "midi": 36,
      "hit": false,
      "t": 174000,
      "d": 240,
      "v": 100
    },
    {
      "midi": 44,
      "hit": false,
      "t": 174000,
      "d": 120,
      "v": 100
    },
    {
      "midi": 44,
      "hit": false,
      "t": 174120,
      "d": 120,
      "v": 100
    },
    {
      "midi": 79,
      "hit": false,
      "t": 174240,
      "d": 480,
      "v": 100
    },
    {
      "midi": 36,
      "hit": false,
      "t": 174240,
      "d": 240,
      "v": 100
    },
    {
      "midi": 44,
      "hit": false,
      "t": 174240,
      "d": 120,
      "v": 100
    },
    {
      "midi": 38,
      "hit": false,
      "t": 174240,
      "d": 480,
      "v": 100
    },
    {
      "midi": 36,
      "hit": false,
      "t": 174480,
      "d": 240,
      "v": 100
    },
    {
      "midi": 44,
      "hit": false,
      "t": 174480,
      "d": 120,
      "v": 100
    },
    {
      "midi": 44,
      "hit": false,
      "t": 174600,
      "d": 120,
      "v": 100
    },
    {
      "midi": 72,
      "hit": false,
      "t": 174720,
      "d": 1920,
      "v": 100
    },
    {
      "midi": 65,
      "hit": false,
      "t": 174720,
      "d": 1920,
      "v": 100
    },
    {
      "midi": 69,
      "hit": false,
      "t": 174720,
      "d": 1920,
      "v": 100
    },
    {
      "midi": 79,
      "hit": false,
      "t": 174720,
      "d": 960,
      "v": 100
    },
    {
      "midi": 72,
      "hit": false,
      "t": 174720,
      "d": 1920,
      "v": 100
    },
    {
      "midi": 69,
      "hit": false,
      "t": 174720,
      "d": 1920,
      "v": 100
    },
    {
      "midi": 36,
      "hit": false,
      "t": 174720,
      "d": 240,
      "v": 100
    },
    {
      "midi": 44,
      "hit": false,
      "t": 174720,
      "d": 120,
      "v": 100
    },
    {
      "midi": 36,
      "hit": false,
      "t": 174720,
      "d": 480,
      "v": 100
    },
    {
      "midi": 36,
      "hit": false,
      "t": 174960,
      "d": 240,
      "v": 100
    },
    {
      "midi": 44,
      "hit": false,
      "t": 174960,
      "d": 120,
      "v": 100
    },
    {
      "midi": 44,
      "hit": false,
      "t": 175080,
      "d": 120,
      "v": 100
    },
    {
      "midi": 36,
      "hit": false,
      "t": 175200,
      "d": 240,
      "v": 100
    },
    {
      "midi": 44,
      "hit": false,
      "t": 175200,
      "d": 120,
      "v": 100
    },
    {
      "midi": 38,
      "hit": false,
      "t": 175200,
      "d": 480,
      "v": 100
    },
    {
      "midi": 36,
      "hit": false,
      "t": 175440,
      "d": 240,
      "v": 100
    },
    {
      "midi": 44,
      "hit": false,
      "t": 175440,
      "d": 120,
      "v": 100
    },
    {
      "midi": 44,
      "hit": false,
      "t": 175560,
      "d": 120,
      "v": 100
    },
    {
      "midi": 77,
      "hit": false,
      "t": 175680,
      "d": 480,
      "v": 100
    },
    {
      "midi": 36,
      "hit": false,
      "t": 175680,
      "d": 240,
      "v": 100
    },
    {
      "midi": 44,
      "hit": false,
      "t": 175680,
      "d": 120,
      "v": 100
    },
    {
      "midi": 36,
      "hit": false,
      "t": 175680,
      "d": 480,
      "v": 100
    },
    {
      "midi": 36,
      "hit": false,
      "t": 175920,
      "d": 240,
      "v": 100
    },
    {
      "midi": 44,
      "hit": false,
      "t": 175920,
      "d": 120,
      "v": 100
    },
    {
      "midi": 44,
      "hit": false,
      "t": 176040,
      "d": 120,
      "v": 100
    },
    {
      "midi": 79,
      "hit": false,
      "t": 176160,
      "d": 480,
      "v": 100
    },
    {
      "midi": 36,
      "hit": false,
      "t": 176160,
      "d": 240,
      "v": 100
    },
    {
      "midi": 44,
      "hit": false,
      "t": 176160,
      "d": 120,
      "v": 100
    },
    {
      "midi": 38,
      "hit": false,
      "t": 176160,
      "d": 480,
      "v": 100
    },
    {
      "midi": 36,
      "hit": false,
      "t": 176400,
      "d": 240,
      "v": 100
    },
    {
      "midi": 44,
      "hit": false,
      "t": 176400,
      "d": 120,
      "v": 100
    },
    {
      "midi": 44,
      "hit": false,
      "t": 176520,
      "d": 120,
      "v": 100
    },
    {
      "midi": 41,
      "hit": false,
      "t": 176640,
      "d": 480,
      "v": 100
    },
    {
      "midi": 60,
      "hit": false,
      "t": 176640,
      "d": 1920,
      "v": 100
    },
    {
      "midi": 65,
      "hit": false,
      "t": 176640,
      "d": 1920,
      "v": 100
    },
    {
      "midi": 80,
      "hit": false,
      "t": 176640,
      "d": 480,
      "v": 100
    },
    {
      "midi": 72,
      "hit": false,
      "t": 176640,
      "d": 480,
      "v": 100
    },
    {
      "midi": 36,
      "hit": false,
      "t": 176640,
      "d": 240,
      "v": 100
    },
    {
      "midi": 44,
      "hit": false,
      "t": 176640,
      "d": 120,
      "v": 100
    },
    {
      "midi": 36,
      "hit": false,
      "t": 176640,
      "d": 480,
      "v": 100
    },
    {
      "midi": 36,
      "hit": false,
      "t": 176880,
      "d": 240,
      "v": 100
    },
    {
      "midi": 44,
      "hit": false,
      "t": 176880,
      "d": 120,
      "v": 100
    },
    {
      "midi": 44,
      "hit": false,
      "t": 177000,
      "d": 120,
      "v": 100
    },
    {
      "midi": 43,
      "hit": false,
      "t": 177120,
      "d": 480,
      "v": 100
    },
    {
      "midi": 79,
      "hit": false,
      "t": 177120,
      "d": 480,
      "v": 100
    },
    {
      "midi": 70,
      "hit": false,
      "t": 177120,
      "d": 480,
      "v": 100
    },
    {
      "midi": 36,
      "hit": false,
      "t": 177120,
      "d": 240,
      "v": 100
    },
    {
      "midi": 44,
      "hit": false,
      "t": 177120,
      "d": 120,
      "v": 100
    },
    {
      "midi": 38,
      "hit": false,
      "t": 177120,
      "d": 480,
      "v": 100
    },
    {
      "midi": 36,
      "hit": false,
      "t": 177360,
      "d": 240,
      "v": 100
    },
    {
      "midi": 44,
      "hit": false,
      "t": 177360,
      "d": 120,
      "v": 100
    },
    {
      "midi": 44,
      "hit": false,
      "t": 177480,
      "d": 120,
      "v": 100
    },
    {
      "midi": 44,
      "hit": false,
      "t": 177600,
      "d": 480,
      "v": 100
    },
    {
      "midi": 77,
      "hit": false,
      "t": 177600,
      "d": 480,
      "v": 100
    },
    {
      "midi": 72,
      "hit": false,
      "t": 177600,
      "d": 480,
      "v": 100
    },
    {
      "midi": 36,
      "hit": false,
      "t": 177600,
      "d": 240,
      "v": 100
    },
    {
      "midi": 44,
      "hit": false,
      "t": 177600,
      "d": 120,
      "v": 100
    },
    {
      "midi": 36,
      "hit": false,
      "t": 177600,
      "d": 480,
      "v": 100
    },
    {
      "midi": 36,
      "hit": false,
      "t": 177840,
      "d": 240,
      "v": 100
    },
    {
      "midi": 44,
      "hit": false,
      "t": 177840,
      "d": 120,
      "v": 100
    },
    {
      "midi": 44,
      "hit": false,
      "t": 177960,
      "d": 120,
      "v": 100
    },
    {
      "midi": 46,
      "hit": false,
      "t": 178080,
      "d": 480,
      "v": 100
    },
    {
      "midi": 75,
      "hit": false,
      "t": 178080,
      "d": 480,
      "v": 100
    },
    {
      "midi": 75,
      "hit": false,
      "t": 178080,
      "d": 480,
      "v": 100
    },
    {
      "midi": 36,
      "hit": false,
      "t": 178080,
      "d": 240,
      "v": 100
    },
    {
      "midi": 44,
      "hit": false,
      "t": 178080,
      "d": 120,
      "v": 100
    },
    {
      "midi": 38,
      "hit": false,
      "t": 178080,
      "d": 480,
      "v": 100
    },
    {
      "midi": 36,
      "hit": false,
      "t": 178320,
      "d": 240,
      "v": 100
    },
    {
      "midi": 44,
      "hit": false,
      "t": 178320,
      "d": 120,
      "v": 100
    },
    {
      "midi": 44,
      "hit": false,
      "t": 178440,
      "d": 120,
      "v": 100
    },
    {
      "midi": 76,
      "hit": false,
      "t": 178560,
      "d": 960,
      "v": 100
    },
    {
      "midi": 72,
      "hit": false,
      "t": 178560,
      "d": 1920,
      "v": 100
    },
    {
      "midi": 48,
      "hit": false,
      "t": 178560,
      "d": 1920,
      "v": 100
    },
    {
      "midi": 36,
      "hit": false,
      "t": 178560,
      "d": 240,
      "v": 100
    },
    {
      "midi": 44,
      "hit": false,
      "t": 178560,
      "d": 120,
      "v": 100
    },
    {
      "midi": 49,
      "hit": false,
      "t": 178560,
      "d": 240,
      "v": 100
    },
    {
      "midi": 36,
      "hit": false,
      "t": 178560,
      "d": 480,
      "v": 100
    },
    {
      "midi": 36,
      "hit": false,
      "t": 178800,
      "d": 240,
      "v": 100
    },
    {
      "midi": 44,
      "hit": false,
      "t": 178800,
      "d": 120,
      "v": 100
    },
    {
      "midi": 44,
      "hit": false,
      "t": 178920,
      "d": 120,
      "v": 100
    },
    {
      "midi": 36,
      "hit": false,
      "t": 179040,
      "d": 240,
      "v": 100
    },
    {
      "midi": 44,
      "hit": false,
      "t": 179040,
      "d": 120,
      "v": 100
    },
    {
      "midi": 38,
      "hit": false,
      "t": 179040,
      "d": 480,
      "v": 100
    },
    {
      "midi": 36,
      "hit": false,
      "t": 179280,
      "d": 240,
      "v": 100
    },
    {
      "midi": 44,
      "hit": false,
      "t": 179280,
      "d": 120,
      "v": 100
    },
    {
      "midi": 44,
      "hit": false,
      "t": 179400,
      "d": 120,
      "v": 100
    },
    {
      "midi": 76,
      "hit": false,
      "t": 179520,
      "d": 320,
      "v": 100
    },
    {
      "midi": 36,
      "hit": false,
      "t": 179520,
      "d": 240,
      "v": 100
    },
    {
      "midi": 44,
      "hit": false,
      "t": 179520,
      "d": 120,
      "v": 100
    },
    {
      "midi": 36,
      "hit": false,
      "t": 179520,
      "d": 480,
      "v": 100
    },
    {
      "midi": 36,
      "hit": false,
      "t": 179760,
      "d": 240,
      "v": 100
    },
    {
      "midi": 44,
      "hit": false,
      "t": 179760,
      "d": 120,
      "v": 100
    },
    {
      "midi": 79,
      "hit": false,
      "t": 179840,
      "d": 320,
      "v": 100
    },
    {
      "midi": 44,
      "hit": false,
      "t": 179880,
      "d": 120,
      "v": 100
    },
    {
      "midi": 36,
      "hit": false,
      "t": 180000,
      "d": 240,
      "v": 100
    },
    {
      "midi": 44,
      "hit": false,
      "t": 180000,
      "d": 120,
      "v": 100
    },
    {
      "midi": 38,
      "hit": false,
      "t": 180000,
      "d": 480,
      "v": 100
    },
    {
      "midi": 84,
      "hit": false,
      "t": 180160,
      "d": 320,
      "v": 100
    },
    {
      "midi": 36,
      "hit": false,
      "t": 180240,
      "d": 240,
      "v": 100
    },
    {
      "midi": 44,
      "hit": false,
      "t": 180240,
      "d": 120,
      "v": 100
    },
    {
      "midi": 44,
      "hit": false,
      "t": 180360,
      "d": 120,
      "v": 100
    },
    {
      "midi": 60,
      "hit": false,
      "t": 180480,
      "d": 1920,
      "v": 100
    },
    {
      "midi": 69,
      "hit": false,
      "t": 180480,
      "d": 1920,
      "v": 100
    },
    {
      "midi": 65,
      "hit": false,
      "t": 180480,
      "d": 1920,
      "v": 100
    },
    {
      "midi": 83,
      "hit": false,
      "t": 180480,
      "d": 960,
      "v": 100
    },
    {
      "midi": 77,
      "hit": false,
      "t": 180480,
      "d": 1920,
      "v": 100
    },
    {
      "midi": 29,
      "hit": false,
      "t": 180480,
      "d": 240,
      "v": 100
    },
    {
      "midi": 44,
      "hit": false,
      "t": 180480,
      "d": 120,
      "v": 100
    },
    {
      "midi": 36,
      "hit": false,
      "t": 180480,
      "d": 480,
      "v": 100
    },
    {
      "midi": 29,
      "hit": false,
      "t": 180720,
      "d": 240,
      "v": 100
    },
    {
      "midi": 44,
      "hit": false,
      "t": 180720,
      "d": 120,
      "v": 100
    },
    {
      "midi": 44,
      "hit": false,
      "t": 180840,
      "d": 120,
      "v": 100
    },
    {
      "midi": 29,
      "hit": false,
      "t": 180960,
      "d": 240,
      "v": 100
    },
    {
      "midi": 44,
      "hit": false,
      "t": 180960,
      "d": 120,
      "v": 100
    },
    {
      "midi": 38,
      "hit": false,
      "t": 180960,
      "d": 480,
      "v": 100
    },
    {
      "midi": 29,
      "hit": false,
      "t": 181200,
      "d": 240,
      "v": 100
    },
    {
      "midi": 44,
      "hit": false,
      "t": 181200,
      "d": 120,
      "v": 100
    },
    {
      "midi": 44,
      "hit": false,
      "t": 181320,
      "d": 120,
      "v": 100
    },
    {
      "midi": 81,
      "hit": false,
      "t": 181440,
      "d": 960,
      "v": 100
    },
    {
      "midi": 29,
      "hit": false,
      "t": 181440,
      "d": 240,
      "v": 100
    },
    {
      "midi": 44,
      "hit": false,
      "t": 181440,
      "d": 120,
      "v": 100
    },
    {
      "midi": 36,
      "hit": false,
      "t": 181440,
      "d": 480,
      "v": 100
    },
    {
      "midi": 29,
      "hit": false,
      "t": 181680,
      "d": 240,
      "v": 100
    },
    {
      "midi": 44,
      "hit": false,
      "t": 181680,
      "d": 120,
      "v": 100
    },
    {
      "midi": 44,
      "hit": false,
      "t": 181800,
      "d": 120,
      "v": 100
    },
    {
      "midi": 29,
      "hit": false,
      "t": 181920,
      "d": 240,
      "v": 100
    },
    {
      "midi": 44,
      "hit": false,
      "t": 181920,
      "d": 120,
      "v": 100
    },
    {
      "midi": 38,
      "hit": false,
      "t": 181920,
      "d": 480,
      "v": 100
    },
    {
      "midi": 29,
      "hit": false,
      "t": 182160,
      "d": 240,
      "v": 100
    },
    {
      "midi": 44,
      "hit": false,
      "t": 182160,
      "d": 120,
      "v": 100
    },
    {
      "midi": 44,
      "hit": false,
      "t": 182280,
      "d": 120,
      "v": 100
    },
    {
      "midi": 69,
      "hit": false,
      "t": 182400,
      "d": 1920,
      "v": 100
    },
    {
      "midi": 65,
      "hit": false,
      "t": 182400,
      "d": 1920,
      "v": 100
    },
    {
      "midi": 62,
      "hit": false,
      "t": 182400,
      "d": 1920,
      "v": 100
    },
    {
      "midi": 74,
      "hit": false,
      "t": 182400,
      "d": 1440,
      "v": 100
    },
    {
      "midi": 77,
      "hit": false,
      "t": 182400,
      "d": 1440,
      "v": 100
    },
    {
      "midi": 62,
      "hit": false,
      "t": 182400,
      "d": 1920,
      "v": 100
    },
    {
      "midi": 38,
      "hit": false,
      "t": 182400,
      "d": 240,
      "v": 100
    },
    {
      "midi": 44,
      "hit": false,
      "t": 182400,
      "d": 120,
      "v": 100
    },
    {
      "midi": 36,
      "hit": false,
      "t": 182400,
      "d": 480,
      "v": 100
    },
    {
      "midi": 38,
      "hit": false,
      "t": 182640,
      "d": 240,
      "v": 100
    },
    {
      "midi": 44,
      "hit": false,
      "t": 182640,
      "d": 120,
      "v": 100
    },
    {
      "midi": 44,
      "hit": false,
      "t": 182760,
      "d": 120,
      "v": 100
    },
    {
      "midi": 38,
      "hit": false,
      "t": 182880,
      "d": 240,
      "v": 100
    },
    {
      "midi": 44,
      "hit": false,
      "t": 182880,
      "d": 120,
      "v": 100
    },
    {
      "midi": 38,
      "hit": false,
      "t": 182880,
      "d": 480,
      "v": 100
    },
    {
      "midi": 38,
      "hit": false,
      "t": 183120,
      "d": 240,
      "v": 100
    },
    {
      "midi": 44,
      "hit": false,
      "t": 183120,
      "d": 120,
      "v": 100
    },
    {
      "midi": 44,
      "hit": false,
      "t": 183240,
      "d": 120,
      "v": 100
    },
    {
      "midi": 38,
      "hit": false,
      "t": 183360,
      "d": 240,
      "v": 100
    },
    {
      "midi": 44,
      "hit": false,
      "t": 183360,
      "d": 120,
      "v": 100
    },
    {
      "midi": 36,
      "hit": false,
      "t": 183360,
      "d": 480,
      "v": 100
    },
    {
      "midi": 38,
      "hit": false,
      "t": 183600,
      "d": 240,
      "v": 100
    },
    {
      "midi": 44,
      "hit": false,
      "t": 183600,
      "d": 120,
      "v": 100
    },
    {
      "midi": 44,
      "hit": false,
      "t": 183720,
      "d": 120,
      "v": 100
    },
    {
      "midi": 72,
      "hit": false,
      "t": 183840,
      "d": 480,
      "v": 100
    },
    {
      "midi": 79,
      "hit": false,
      "t": 183840,
      "d": 480,
      "v": 100
    },
    {
      "midi": 38,
      "hit": false,
      "t": 183840,
      "d": 240,
      "v": 100
    },
    {
      "midi": 44,
      "hit": false,
      "t": 183840,
      "d": 120,
      "v": 100
    },
    {
      "midi": 38,
      "hit": false,
      "t": 183840,
      "d": 480,
      "v": 100
    },
    {
      "midi": 38,
      "hit": false,
      "t": 184080,
      "d": 240,
      "v": 100
    },
    {
      "midi": 44,
      "hit": false,
      "t": 184080,
      "d": 120,
      "v": 100
    },
    {
      "midi": 44,
      "hit": false,
      "t": 184200,
      "d": 120,
      "v": 100
    },
    {
      "midi": 62,
      "hit": false,
      "t": 184320,
      "d": 1920,
      "v": 100
    },
    {
      "midi": 65,
      "hit": false,
      "t": 184320,
      "d": 1920,
      "v": 100
    },
    {
      "midi": 69,
      "hit": false,
      "t": 184320,
      "d": 1920,
      "v": 100
    },
    {
      "midi": 77,
      "hit": false,
      "t": 184320,
      "d": 480,
      "v": 100
    },
    {
      "midi": 74,
      "hit": false,
      "t": 184320,
      "d": 960,
      "v": 100
    },
    {
      "midi": 43,
      "hit": false,
      "t": 184320,
      "d": 1920,
      "v": 100
    },
    {
      "midi": 31,
      "hit": false,
      "t": 184320,
      "d": 240,
      "v": 100
    },
    {
      "midi": 44,
      "hit": false,
      "t": 184320,
      "d": 120,
      "v": 100
    },
    {
      "midi": 36,
      "hit": false,
      "t": 184320,
      "d": 480,
      "v": 100
    },
    {
      "midi": 31,
      "hit": false,
      "t": 184560,
      "d": 240,
      "v": 100
    },
    {
      "midi": 44,
      "hit": false,
      "t": 184560,
      "d": 120,
      "v": 100
    },
    {
      "midi": 44,
      "hit": false,
      "t": 184680,
      "d": 120,
      "v": 100
    },
    {
      "midi": 76,
      "hit": false,
      "t": 184800,
      "d": 480,
      "v": 100
    },
    {
      "midi": 31,
      "hit": false,
      "t": 184800,
      "d": 240,
      "v": 100
    },
    {
      "midi": 44,
      "hit": false,
      "t": 184800,
      "d": 120,
      "v": 100
    },
    {
      "midi": 38,
      "hit": false,
      "t": 184800,
      "d": 480,
      "v": 100
    },
    {
      "midi": 31,
      "hit": false,
      "t": 185040,
      "d": 240,
      "v": 100
    },
    {
      "midi": 44,
      "hit": false,
      "t": 185040,
      "d": 120,
      "v": 100
    },
    {
      "midi": 48,
      "hit": false,
      "t": 185100,
      "d": 60,
      "v": 100
    },
    {
      "midi": 47,
      "hit": false,
      "t": 185160,
      "d": 60,
      "v": 100
    },
    {
      "midi": 44,
      "hit": false,
      "t": 185160,
      "d": 120,
      "v": 100
    },
    {
      "midi": 45,
      "hit": false,
      "t": 185220,
      "d": 60,
      "v": 100
    },
    {
      "midi": 74,
      "hit": false,
      "t": 185280,
      "d": 480,
      "v": 100
    },
    {
      "midi": 70,
      "hit": false,
      "t": 185280,
      "d": 960,
      "v": 100
    },
    {
      "midi": 31,
      "hit": false,
      "t": 185280,
      "d": 240,
      "v": 100
    },
    {
      "midi": 44,
      "hit": false,
      "t": 185280,
      "d": 120,
      "v": 100
    },
    {
      "midi": 47,
      "hit": false,
      "t": 185280,
      "d": 240,
      "v": 100
    },
    {
      "midi": 36,
      "hit": false,
      "t": 185280,
      "d": 480,
      "v": 100
    },
    {
      "midi": 31,
      "hit": false,
      "t": 185520,
      "d": 240,
      "v": 100
    },
    {
      "midi": 44,
      "hit": false,
      "t": 185520,
      "d": 120,
      "v": 100
    },
    {
      "midi": 47,
      "hit": false,
      "t": 185520,
      "d": 240,
      "v": 100
    },
    {
      "midi": 44,
      "hit": false,
      "t": 185640,
      "d": 120,
      "v": 100
    },
    {
      "midi": 72,
      "hit": false,
      "t": 185760,
      "d": 480,
      "v": 100
    },
    {
      "midi": 31,
      "hit": false,
      "t": 185760,
      "d": 240,
      "v": 100
    },
    {
      "midi": 44,
      "hit": false,
      "t": 185760,
      "d": 120,
      "v": 100
    },
    {
      "midi": 45,
      "hit": false,
      "t": 185760,
      "d": 240,
      "v": 100
    },
    {
      "midi": 38,
      "hit": false,
      "t": 185760,
      "d": 480,
      "v": 100
    },
    {
      "midi": 31,
      "hit": false,
      "t": 186000,
      "d": 240,
      "v": 100
    },
    {
      "midi": 44,
      "hit": false,
      "t": 186000,
      "d": 120,
      "v": 100
    },
    {
      "midi": 45,
      "hit": false,
      "t": 186000,
      "d": 240,
      "v": 100
    },
    {
      "midi": 44,
      "hit": false,
      "t": 186120,
      "d": 120,
      "v": 100
    }
  ]
}