{
  "jsonPath": "Rock/Christian Indie/Derek Webb/lover-part-2.json",
  "path": "Rock\\Christian Indie\\Derek Webb\\lover part 2.mid",
  "name": "lover part 2",
  "difficulty": "Advanced",
  "bpm": 113.00030886751091,
  "notes": [
    {
      "midi": 55,
      "hit": false,
      "t": 2039.8174333333334,
      "d": 150.4420666666672,
      "v": 81
    },
    {
      "midi": 62,
      "hit": false,
      "t": 2101.764166666667,
      "d": 79.64580000000024,
      "v": 101
    },
    {
      "midi": 58,
      "hit": false,
      "t": 2115.038466666667,
      "d": 92.92010000000028,
      "v": 101
    },
    {
      "midi": 43,
      "hit": false,
      "t": 2128.312766666667,
      "d": 79.64580000000024,
      "v": 116
    },
    {
      "midi": 55,
      "hit": false,
      "t": 2371.6749333333337,
      "d": 70.79626666666627,
      "v": 103
    },
    {
      "midi": 62,
      "hit": false,
      "t": 2376.0997,
      "d": 48.672433333333174,
      "v": 87
    },
    {
      "midi": 58,
      "hit": false,
      "t": 2380.5244666666667,
      "d": 75.22103333333325,
      "v": 86
    },
    {
      "midi": 55,
      "hit": false,
      "t": 2641.5857,
      "d": 75.22103333333371,
      "v": 113
    },
    {
      "midi": 62,
      "hit": false,
      "t": 2641.5857,
      "d": 84.07056666666722,
      "v": 112
    },
    {
      "midi": 58,
      "hit": false,
      "t": 2654.86,
      "d": 75.22103333333371,
      "v": 99
    },
    {
      "midi": 38,
      "hit": false,
      "t": 2663.7095333333336,
      "d": 97.3448666666668,
      "v": 105
    },
    {
      "midi": 55,
      "hit": false,
      "t": 2902.646933333334,
      "d": 66.37149999999974,
      "v": 109
    },
    {
      "midi": 62,
      "hit": false,
      "t": 2907.0717000000004,
      "d": 61.94673333333321,
      "v": 101
    },
    {
      "midi": 58,
      "hit": false,
      "t": 2920.3460000000005,
      "d": 66.37149999999974,
      "v": 92
    },
    {
      "midi": 55,
      "hit": false,
      "t": 3185.8320000000003,
      "d": 57.521966666666685,
      "v": 120
    },
    {
      "midi": 62,
      "hit": false,
      "t": 3185.8320000000003,
      "d": 61.94673333333321,
      "v": 115
    },
    {
      "midi": 43,
      "hit": false,
      "t": 3190.256766666667,
      "d": 75.22103333333325,
      "v": 122
    },
    {
      "midi": 58,
      "hit": false,
      "t": 3190.256766666667,
      "d": 79.64579999999978,
      "v": 109
    },
    {
      "midi": 55,
      "hit": false,
      "t": 4216.802633333334,
      "d": 92.92010000000028,
      "v": 93
    },
    {
      "midi": 62,
      "hit": false,
      "t": 4243.351233333334,
      "d": 61.94673333333321,
      "v": 93
    },
    {
      "midi": 58,
      "hit": false,
      "t": 4252.200766666667,
      "d": 84.07056666666722,
      "v": 98
    },
    {
      "midi": 43,
      "hit": false,
      "t": 4261.0503,
      "d": 92.92010000000118,
      "v": 112
    },
    {
      "midi": 55,
      "hit": false,
      "t": 4504.412466666668,
      "d": 75.22103333333325,
      "v": 103
    },
    {
      "midi": 62,
      "hit": false,
      "t": 4508.837233333335,
      "d": 57.52196666666623,
      "v": 94
    },
    {
      "midi": 58,
      "hit": false,
      "t": 4517.686766666668,
      "d": 61.94673333333321,
      "v": 86
    },
    {
      "midi": 55,
      "hit": false,
      "t": 4783.1727666666675,
      "d": 75.22103333333325,
      "v": 103
    },
    {
      "midi": 62,
      "hit": false,
      "t": 4783.1727666666675,
      "d": 75.22103333333325,
      "v": 102
    },
    {
      "midi": 58,
      "hit": false,
      "t": 4792.0223000000005,
      "d": 70.79626666666718,
      "v": 93
    },
    {
      "midi": 38,
      "hit": false,
      "t": 4792.0223000000005,
      "d": 115.04393333333428,
      "v": 103
    },
    {
      "midi": 62,
      "hit": false,
      "t": 5053.083533333335,
      "d": 75.22103333333416,
      "v": 96
    },
    {
      "midi": 55,
      "hit": false,
      "t": 5057.508300000002,
      "d": 70.79626666666718,
      "v": 100
    },
    {
      "midi": 58,
      "hit": false,
      "t": 5075.207366666669,
      "d": 35.398133333333135,
      "v": 77
    },
    {
      "midi": 55,
      "hit": false,
      "t": 5327.419066666669,
      "d": 70.79626666666627,
      "v": 108
    },
    {
      "midi": 43,
      "hit": false,
      "t": 5327.419066666669,
      "d": 75.22103333333325,
      "v": 106
    },
    {
      "midi": 58,
      "hit": false,
      "t": 5331.843833333336,
      "d": 57.52196666666623,
      "v": 92
    },
    {
      "midi": 62,
      "hit": false,
      "t": 5331.843833333336,
      "d": 57.52196666666623,
      "v": 100
    },
    {
      "midi": 62,
      "hit": false,
      "t": 5597.329833333336,
      "d": 53.09720000000016,
      "v": 95
    },
    {
      "midi": 55,
      "hit": false,
      "t": 5597.329833333336,
      "d": 70.79626666666718,
      "v": 106
    },
    {
      "midi": 58,
      "hit": false,
      "t": 5610.604133333336,
      "d": 30.97336666666706,
      "v": 76
    },
    {
      "midi": 38,
      "hit": false,
      "t": 5853.966300000003,
      "d": 261.0612333333329,
      "v": 98
    },
    {
      "midi": 55,
      "hit": false,
      "t": 5867.240600000003,
      "d": 66.37149999999929,
      "v": 110
    },
    {
      "midi": 62,
      "hit": false,
      "t": 5867.240600000003,
      "d": 66.37149999999929,
      "v": 103
    },
    {
      "midi": 58,
      "hit": false,
      "t": 5876.090133333336,
      "d": 61.94673333333321,
      "v": 87
    },
    {
      "midi": 43,
      "hit": false,
      "t": 6110.602766666669,
      "d": 314.15843333333396,
      "v": 108
    },
    {
      "midi": 62,
      "hit": false,
      "t": 6115.027533333336,
      "d": 75.22103333333325,
      "v": 95
    },
    {
      "midi": 55,
      "hit": false,
      "t": 6115.027533333336,
      "d": 92.92010000000028,
      "v": 103
    },
    {
      "midi": 58,
      "hit": false,
      "t": 6119.452300000003,
      "d": 88.49533333333329,
      "v": 86
    },
    {
      "midi": 53,
      "hit": false,
      "t": 6393.787833333336,
      "d": 84.07056666666722,
      "v": 111
    },
    {
      "midi": 60,
      "hit": false,
      "t": 6407.062133333336,
      "d": 53.09720000000016,
      "v": 96
    },
    {
      "midi": 41,
      "hit": false,
      "t": 6407.062133333336,
      "d": 97.34486666666726,
      "v": 105
    },
    {
      "midi": 57,
      "hit": false,
      "t": 6411.486900000003,
      "d": 39.82290000000012,
      "v": 98
    },
    {
      "midi": 53,
      "hit": false,
      "t": 6641.574766666669,
      "d": 70.79626666666809,
      "v": 99
    },
    {
      "midi": 60,
      "hit": false,
      "t": 6654.849066666669,
      "d": 48.672433333334084,
      "v": 68
    },
    {
      "midi": 57,
      "hit": false,
      "t": 6659.273833333336,
      "d": 48.672433333334084,
      "v": 91
    },
    {
      "midi": 53,
      "hit": false,
      "t": 6920.335066666671,
      "d": 66.3715000000011,
      "v": 106
    },
    {
      "midi": 36,
      "hit": false,
      "t": 6920.335066666671,
      "d": 106.19440000000122,
      "v": 99
    },
    {
      "midi": 60,
      "hit": false,
      "t": 6924.759833333338,
      "d": 57.52196666666714,
      "v": 95
    },
    {
      "midi": 57,
      "hit": false,
      "t": 6929.184600000005,
      "d": 61.94673333333412,
      "v": 97
    },
    {
      "midi": 53,
      "hit": false,
      "t": 7176.971533333339,
      "d": 53.09720000000016,
      "v": 91
    },
    {
      "midi": 60,
      "hit": false,
      "t": 7176.971533333339,
      "d": 57.52196666666714,
      "v": 85
    },
    {
      "midi": 57,
      "hit": false,
      "t": 7181.396300000006,
      "d": 48.672433333333174,
      "v": 87
    },
    {
      "midi": 53,
      "hit": false,
      "t": 7446.882300000006,
      "d": 66.3715000000002,
      "v": 103
    },
    {
      "midi": 41,
      "hit": false,
      "t": 7446.882300000006,
      "d": 79.64580000000024,
      "v": 102
    },
    {
      "midi": 60,
      "hit": false,
      "t": 7451.307066666673,
      "d": 48.672433333333174,
      "v": 91
    },
    {
      "midi": 57,
      "hit": false,
      "t": 7451.307066666673,
      "d": 57.52196666666623,
      "v": 95
    },
    {
      "midi": 53,
      "hit": false,
      "t": 7712.368300000006,
      "d": 66.37149999999929,
      "v": 98
    },
    {
      "midi": 60,
      "hit": false,
      "t": 7716.7930666666725,
      "d": 53.09719999999925,
      "v": 83
    },
    {
      "midi": 57,
      "hit": false,
      "t": 7725.642600000006,
      "d": 35.398133333333135,
      "v": 86
    },
    {
      "midi": 36,
      "hit": false,
      "t": 7973.429533333338,
      "d": 212.38879999999972,
      "v": 100
    },
    {
      "midi": 53,
      "hit": false,
      "t": 7991.1286000000055,
      "d": 70.79626666666627,
      "v": 106
    },
    {
      "midi": 60,
      "hit": false,
      "t": 7991.1286000000055,
      "d": 79.64579999999933,
      "v": 99
    },
    {
      "midi": 57,
      "hit": false,
      "t": 7991.1286000000055,
      "d": 84.07056666666631,
      "v": 101
    },
    {
      "midi": 41,
      "hit": false,
      "t": 8221.216466666672,
      "d": 75.22103333333507,
      "v": 104
    },
    {
      "midi": 60,
      "hit": false,
      "t": 8221.216466666672,
      "d": 88.49533333333602,
      "v": 89
    },
    {
      "midi": 57,
      "hit": false,
      "t": 8230.066000000006,
      "d": 75.22103333333507,
      "v": 98
    },
    {
      "midi": 53,
      "hit": false,
      "t": 8234.490766666673,
      "d": 70.79626666666809,
      "v": 92
    },
    {
      "midi": 55,
      "hit": false,
      "t": 8495.552000000009,
      "d": 84.0705666666654,
      "v": 100
    },
    {
      "midi": 48,
      "hit": false,
      "t": 8504.401533333343,
      "d": 119.46869999999763,
      "v": 102
    },
    {
      "midi": 60,
      "hit": false,
      "t": 8517.675833333342,
      "d": 39.82289999999921,
      "v": 89
    },
    {
      "midi": 63,
      "hit": false,
      "t": 8517.675833333342,
      "d": 79.64579999999842,
      "v": 69
    },
    {
      "midi": 63,
      "hit": false,
      "t": 8756.61323333334,
      "d": 97.34486666666635,
      "v": 91
    },
    {
      "midi": 55,
      "hit": false,
      "t": 8761.038000000008,
      "d": 75.22103333333325,
      "v": 98
    },
    {
      "midi": 60,
      "hit": false,
      "t": 8769.887533333342,
      "d": 44.24766666666619,
      "v": 86
    },
    {
      "midi": 63,
      "hit": false,
      "t": 9022.09923333334,
      "d": 106.19440000000213,
      "v": 96
    },
    {
      "midi": 55,
      "hit": false,
      "t": 9030.948766666674,
      "d": 70.79626666666809,
      "v": 103
    },
    {
      "midi": 60,
      "hit": false,
      "t": 9035.37353333334,
      "d": 57.52196666666714,
      "v": 96
    },
    {
      "midi": 43,
      "hit": false,
      "t": 9035.37353333334,
      "d": 115.04393333333428,
      "v": 102
    },
    {
      "midi": 63,
      "hit": false,
      "t": 9274.310933333341,
      "d": 92.92009999999937,
      "v": 91
    },
    {
      "midi": 55,
      "hit": false,
      "t": 9278.735700000008,
      "d": 70.79626666666627,
      "v": 93
    },
    {
      "midi": 60,
      "hit": false,
      "t": 9283.160466666675,
      "d": 44.24766666666619,
      "v": 90
    },
    {
      "midi": 55,
      "hit": false,
      "t": 9553.071233333341,
      "d": 75.22103333333325,
      "v": 98
    },
    {
      "midi": 63,
      "hit": false,
      "t": 9553.071233333341,
      "d": 75.22103333333325,
      "v": 92
    },
    {
      "midi": 60,
      "hit": false,
      "t": 9561.920766666675,
      "d": 44.24766666666619,
      "v": 95
    },
    {
      "midi": 48,
      "hit": false,
      "t": 9561.920766666675,
      "d": 88.49533333333238,
      "v": 112
    },
    {
      "midi": 55,
      "hit": false,
      "t": 9827.406766666674,
      "d": 66.3715000000011,
      "v": 101
    },
    {
      "midi": 63,
      "hit": false,
      "t": 9831.831533333341,
      "d": 66.3715000000011,
      "v": 91
    },
    {
      "midi": 60,
      "hit": false,
      "t": 9836.256300000008,
      "d": 35.398133333334044,
      "v": 87
    },
    {
      "midi": 43,
      "hit": false,
      "t": 10088.46800000001,
      "d": 252.21170000000347,
      "v": 103
    },
    {
      "midi": 63,
      "hit": false,
      "t": 10097.317533333344,
      "d": 79.64580000000205,
      "v": 97
    },
    {
      "midi": 55,
      "hit": false,
      "t": 10101.74230000001,
      "d": 66.3715000000011,
      "v": 103
    },
    {
      "midi": 60,
      "hit": false,
      "t": 10110.591833333345,
      "d": 30.97336666666706,
      "v": 92
    },
    {
      "midi": 63,
      "hit": false,
      "t": 10345.10446666668,
      "d": 70.79626666666809,
      "v": 90
    },
    {
      "midi": 55,
      "hit": false,
      "t": 10349.529233333347,
      "d": 88.4953333333342,
      "v": 108
    },
    {
      "midi": 48,
      "hit": false,
      "t": 10353.954000000014,
      "d": 283.1850666666687,
      "v": 112
    },
    {
      "midi": 55,
      "hit": false,
      "t": 10623.864766666682,
      "d": 70.79626666666809,
      "v": 111
    },
    {
      "midi": 43,
      "hit": false,
      "t": 10623.864766666682,
      "d": 101.76963333333515,
      "v": 101
    },
    {
      "midi": 58,
      "hit": false,
      "t": 10628.289533333349,
      "d": 75.22103333333507,
      "v": 98
    },
    {
      "midi": 62,
      "hit": false,
      "t": 10632.714300000016,
      "d": 35.398133333334044,
      "v": 100
    },
    {
      "midi": 62,
      "hit": false,
      "t": 10880.50123333335,
      "d": 70.79626666666809,
      "v": 100
    },
    {
      "midi": 55,
      "hit": false,
      "t": 10880.50123333335,
      "d": 75.22103333333507,
      "v": 102
    },
    {
      "midi": 58,
      "hit": false,
      "t": 10889.350766666685,
      "d": 57.52196666666714,
      "v": 84
    },
    {
      "midi": 55,
      "hit": false,
      "t": 11154.836766666685,
      "d": 75.22103333333325,
      "v": 109
    },
    {
      "midi": 62,
      "hit": false,
      "t": 11159.261533333352,
      "d": 70.79626666666627,
      "v": 105
    },
    {
      "midi": 58,
      "hit": false,
      "t": 11159.261533333352,
      "d": 84.0705666666654,
      "v": 97
    },
    {
      "midi": 38,
      "hit": false,
      "t": 11159.261533333352,
      "d": 123.89346666666461,
      "v": 103
    },
    {
      "midi": 55,
      "hit": false,
      "t": 11411.47323333335,
      "d": 75.22103333333325,
      "v": 103
    },
    {
      "midi": 62,
      "hit": false,
      "t": 11411.47323333335,
      "d": 75.22103333333325,
      "v": 101
    },
    {
      "midi": 58,
      "hit": false,
      "t": 11415.898000000017,
      "d": 70.79626666666627,
      "v": 90
    },
    {
      "midi": 43,
      "hit": false,
      "t": 11681.384000000016,
      "d": 88.4953333333342,
      "v": 115
    },
    {
      "midi": 62,
      "hit": false,
      "t": 11690.23353333335,
      "d": 75.22103333333325,
      "v": 109
    },
    {
      "midi": 55,
      "hit": false,
      "t": 11694.658300000017,
      "d": 66.37149999999929,
      "v": 112
    },
    {
      "midi": 58,
      "hit": false,
      "t": 11694.658300000017,
      "d": 79.64580000000024,
      "v": 103
    },
    {
      "midi": 55,
      "hit": false,
      "t": 12725.628933333352,
      "d": 92.92010000000118,
      "v": 94
    },
    {
      "midi": 58,
      "hit": false,
      "t": 12756.602300000019,
      "d": 79.64580000000024,
      "v": 96
    },
    {
      "midi": 43,
      "hit": false,
      "t": 12756.602300000019,
      "d": 101.76963333333333,
      "v": 114
    },
    {
      "midi": 62,
      "hit": false,
      "t": 12761.027066666686,
      "d": 35.398133333334044,
      "v": 81
    },
    {
      "midi": 62,
      "hit": false,
      "t": 13008.814000000018,
      "d": 53.09720000000016,
      "v": 92
    },
    {
      "midi": 55,
      "hit": false,
      "t": 13008.814000000018,
      "d": 84.07056666666722,
      "v": 102
    },
    {
      "midi": 58,
      "hit": false,
      "t": 13013.238766666685,
      "d": 84.07056666666722,
      "v": 83
    },
    {
      "midi": 38,
      "hit": false,
      "t": 13278.724766666686,
      "d": 110.61916666666548,
      "v": 106
    },
    {
      "midi": 55,
      "hit": false,
      "t": 13291.999066666685,
      "d": 61.94673333333412,
      "v": 103
    },
    {
      "midi": 62,
      "hit": false,
      "t": 13291.999066666685,
      "d": 61.94673333333412,
      "v": 100
    },
    {
      "midi": 58,
      "hit": false,
      "t": 13291.999066666685,
      "d": 79.64580000000024,
      "v": 101
    },
    {
      "midi": 55,
      "hit": false,
      "t": 13539.786000000018,
      "d": 53.09720000000016,
      "v": 104
    },
    {
      "midi": 62,
      "hit": false,
      "t": 13539.786000000018,
      "d": 53.09720000000016,
      "v": 100
    },
    {
      "midi": 58,
      "hit": false,
      "t": 13539.786000000018,
      "d": 61.94673333333412,
      "v": 91
    },
    {
      "midi": 62,
      "hit": false,
      "t": 13818.546300000018,
      "d": 44.24766666666801,
      "v": 105
    },
    {
      "midi": 58,
      "hit": false,
      "t": 13818.546300000018,
      "d": 61.94673333333412,
      "v": 101
    },
    {
      "midi": 55,
      "hit": false,
      "t": 13822.971066666685,
      "d": 57.52196666666714,
      "v": 111
    },
    {
      "midi": 43,
      "hit": false,
      "t": 13827.395833333352,
      "d": 75.22103333333325,
      "v": 110
    },
    {
      "midi": 62,
      "hit": false,
      "t": 14070.758000000018,
      "d": 39.82290000000103,
      "v": 96
    },
    {
      "midi": 55,
      "hit": false,
      "t": 14075.182766666685,
      "d": 35.398133333334044,
      "v": 102
    },
    {
      "midi": 58,
      "hit": false,
      "t": 14075.182766666685,
      "d": 61.94673333333412,
      "v": 90
    },
    {
      "midi": 38,
      "hit": false,
      "t": 14336.244000000019,
      "d": 256.6364666666668,
      "v": 103
    },
    {
      "midi": 62,
      "hit": false,
      "t": 14353.943066666685,
      "d": 79.64580000000024,
      "v": 108
    },
    {
      "midi": 55,
      "hit": false,
      "t": 14358.367833333352,
      "d": 53.09720000000016,
      "v": 106
    },
    {
      "midi": 58,
      "hit": false,
      "t": 14358.367833333352,
      "d": 79.64580000000024,
      "v": 98
    },
    {
      "midi": 58,
      "hit": false,
      "t": 14601.73000000002,
      "d": 79.64580000000024,
      "v": 91
    },
    {
      "midi": 43,
      "hit": false,
      "t": 14601.73000000002,
      "d": 300.88413333333483,
      "v": 106
    },
    {
      "midi": 55,
      "hit": false,
      "t": 14606.154766666687,
      "d": 84.07056666666722,
      "v": 101
    },
    {
      "midi": 62,
      "hit": false,
      "t": 14610.579533333354,
      "d": 44.24766666666619,
      "v": 93
    },
    {
      "midi": 60,
      "hit": false,
      "t": 14876.065533333354,
      "d": 70.79626666666809,
      "v": 101
    },
    {
      "midi": 53,
      "hit": false,
      "t": 14876.065533333354,
      "d": 75.22103333333507,
      "v": 109
    },
    {
      "midi": 57,
      "hit": false,
      "t": 14880.490300000021,
      "d": 57.52196666666714,
      "v": 98
    },
    {
      "midi": 41,
      "hit": false,
      "t": 14884.915066666688,
      "d": 75.22103333333507,
      "v": 102
    },
    {
      "midi": 60,
      "hit": false,
      "t": 15132.702000000023,
      "d": 53.09720000000016,
      "v": 91
    },
    {
      "midi": 53,
      "hit": false,
      "t": 15132.702000000023,
      "d": 57.52196666666714,
      "v": 98
    },
    {
      "midi": 57,
      "hit": false,
      "t": 15137.12676666669,
      "d": 48.672433333333174,
      "v": 92
    },
    {
      "midi": 60,
      "hit": false,
      "t": 15402.61276666669,
      "d": 75.22103333333325,
      "v": 101
    },
    {
      "midi": 36,
      "hit": false,
      "t": 15402.61276666669,
      "d": 115.04393333333246,
      "v": 103
    },
    {
      "midi": 53,
      "hit": false,
      "t": 15407.037533333358,
      "d": 66.37149999999929,
      "v": 103
    },
    {
      "midi": 57,
      "hit": false,
      "t": 15407.037533333358,
      "d": 66.37149999999929,
      "v": 101
    },
    {
      "midi": 53,
      "hit": false,
      "t": 15663.674000000023,
      "d": 48.672433333333174,
      "v": 98
    },
    {
      "midi": 60,
      "hit": false,
      "t": 15663.674000000023,
      "d": 61.94673333333412,
      "v": 95
    },
    {
      "midi": 57,
      "hit": false,
      "t": 15668.09876666669,
      "d": 53.09720000000016,
      "v": 96
    },
    {
      "midi": 60,
      "hit": false,
      "t": 15933.58476666669,
      "d": 75.22103333333507,
      "v": 105
    },
    {
      "midi": 53,
      "hit": false,
      "t": 15938.009533333357,
      "d": 61.94673333333412,
      "v": 106
    },
    {
      "midi": 57,
      "hit": false,
      "t": 15942.434300000024,
      "d": 53.09720000000016,
      "v": 99
    },
    {
      "midi": 41,
      "hit": false,
      "t": 15942.434300000024,
      "d": 92.92010000000118,
      "v": 108
    },
    {
      "midi": 53,
      "hit": false,
      "t": 16203.495533333358,
      "d": 53.09720000000016,
      "v": 100
    },
    {
      "midi": 60,
      "hit": false,
      "t": 16203.495533333358,
      "d": 53.09720000000016,
      "v": 96
    },
    {
      "midi": 57,
      "hit": false,
      "t": 16207.920300000025,
      "d": 44.24766666666619,
      "v": 95
    },
    {
      "midi": 36,
      "hit": false,
      "t": 16460.132000000027,
      "d": 150.44206666667014,
      "v": 104
    },
    {
      "midi": 60,
      "hit": false,
      "t": 16468.98153333336,
      "d": 97.34486666666999,
      "v": 103
    },
    {
      "midi": 53,
      "hit": false,
      "t": 16473.406300000028,
      "d": 70.79626666666809,
      "v": 103
    },
    {
      "midi": 57,
      "hit": false,
      "t": 16477.831066666695,
      "d": 75.22103333333507,
      "v": 100
    },
    {
      "midi": 41,
      "hit": false,
      "t": 16703.494166666696,
      "d": 79.64580000000205,
      "v": 106
    },
    {
      "midi": 60,
      "hit": false,
      "t": 16707.918933333363,
      "d": 79.64580000000205,
      "v": 90
    },
    {
      "midi": 57,
      "hit": false,
      "t": 16721.193233333364,
      "d": 53.09720000000016,
      "v": 87
    },
    {
      "midi": 53,
      "hit": false,
      "t": 16730.0427666667,
      "d": 57.52196666666714,
      "v": 93
    },
    {
      "midi": 48,
      "hit": false,
      "t": 16986.679233333365,
      "d": 115.04393333333428,
      "v": 106
    },
    {
      "midi": 55,
      "hit": false,
      "t": 16991.104000000032,
      "d": 79.64580000000205,
      "v": 101
    },
    {
      "midi": 63,
      "hit": false,
      "t": 17004.378300000033,
      "d": 92.92009999999937,
      "v": 90
    },
    {
      "midi": 60,
      "hit": false,
      "t": 17008.8030666667,
      "d": 39.82289999999921,
      "v": 93
    },
    {
      "midi": 63,
      "hit": false,
      "t": 17243.315700000032,
      "d": 106.19440000000395,
      "v": 93
    },
    {
      "midi": 55,
      "hit": false,
      "t": 17247.7404666667,
      "d": 79.64580000000205,
      "v": 98
    },
    {
      "midi": 60,
      "hit": false,
      "t": 17256.590000000033,
      "d": 53.09720000000016,
      "v": 90
    },
    {
      "midi": 63,
      "hit": false,
      "t": 17508.801700000036,
      "d": 110.6191666666673,
      "v": 100
    },
    {
      "midi": 55,
      "hit": false,
      "t": 17517.65123333337,
      "d": 70.79626666666809,
      "v": 110
    },
    {
      "midi": 43,
      "hit": false,
      "t": 17522.076000000037,
      "d": 115.04393333333428,
      "v": 108
    },
    {
      "midi": 60,
      "hit": false,
      "t": 17526.500766666704,
      "d": 44.24766666666619,
      "v": 98
    },
    {
      "midi": 63,
      "hit": false,
      "t": 17765.438166666703,
      "d": 92.920100000003,
      "v": 95
    },
    {
      "midi": 55,
      "hit": false,
      "t": 17769.86293333337,
      "d": 66.3715000000011,
      "v": 106
    },
    {
      "midi": 60,
      "hit": false,
      "t": 17778.712466666704,
      "d": 35.398133333332225,
      "v": 91
    },
    {
      "midi": 63,
      "hit": false,
      "t": 18035.348933333375,
      "d": 97.34486666666635,
      "v": 99
    },
    {
      "midi": 55,
      "hit": false,
      "t": 18039.77370000004,
      "d": 66.3715000000011,
      "v": 108
    },
    {
      "midi": 60,
      "hit": false,
      "t": 18048.623233333376,
      "d": 35.398133333332225,
      "v": 96
    },
    {
      "midi": 48,
      "hit": false,
      "t": 18048.623233333376,
      "d": 92.92009999999937,
      "v": 113
    },
    {
      "midi": 63,
      "hit": false,
      "t": 18291.98540000004,
      "d": 92.920100000003,
      "v": 95
    },
    {
      "midi": 55,
      "hit": false,
      "t": 18296.41016666671,
      "d": 70.79626666666809,
      "v": 105
    },
    {
      "midi": 60,
      "hit": false,
      "t": 18314.109233333376,
      "d": 30.973366666665243,
      "v": 87
    },
    {
      "midi": 43,
      "hit": false,
      "t": 18557.471400000046,
      "d": 265.4860000000008,
      "v": 105
    },
    {
      "midi": 55,
      "hit": false,
      "t": 18570.745700000047,
      "d": 75.22103333333507,
      "v": 100
    },
    {
      "midi": 63,
      "hit": false,
      "t": 18570.745700000047,
      "d": 110.6191666666673,
      "v": 94
    },
    {
      "midi": 60,
      "hit": false,
      "t": 18575.170466666714,
      "d": 70.79626666666809,
      "v": 97
    },
    {
      "midi": 63,
      "hit": false,
      "t": 18822.957400000047,
      "d": 88.49533333333602,
      "v": 87
    },
    {
      "midi": 55,
      "hit": false,
      "t": 18831.80693333338,
      "d": 75.22103333333507,
      "v": 103
    },
    {
      "midi": 48,
      "hit": false,
      "t": 18836.231700000048,
      "d": 269.91076666666777,
      "v": 109
    },
    {
      "midi": 60,
      "hit": false,
      "t": 18853.930766666715,
      "d": 35.398133333332225,
      "v": 68
    },
    {
      "midi": 55,
      "hit": false,
      "t": 19097.29293333338,
      "d": 88.49533333333602,
      "v": 105
    },
    {
      "midi": 43,
      "hit": false,
      "t": 19097.29293333338,
      "d": 92.920100000003,
      "v": 95
    },
    {
      "midi": 58,
      "hit": false,
      "t": 19101.71770000005,
      "d": 70.79626666666809,
      "v": 93
    },
    {
      "midi": 62,
      "hit": false,
      "t": 19114.99200000005,
      "d": 35.398133333332225,
      "v": 78
    },
    {
      "midi": 62,
      "hit": false,
      "t": 19353.929400000052,
      "d": 44.24766666666619,
      "v": 93
    },
    {
      "midi": 55,
      "hit": false,
      "t": 19353.929400000052,
      "d": 53.09720000000016,
      "v": 97
    },
    {
      "midi": 58,
      "hit": false,
      "t": 19353.929400000052,
      "d": 66.3715000000011,
      "v": 92
    },
    {
      "midi": 58,
      "hit": false,
      "t": 19628.264933333387,
      "d": 79.64580000000205,
      "v": 101
    },
    {
      "midi": 38,
      "hit": false,
      "t": 19628.264933333387,
      "d": 123.89346666666825,
      "v": 105
    },
    {
      "midi": 55,
      "hit": false,
      "t": 19632.689700000054,
      "d": 75.22103333333507,
      "v": 110
    },
    {
      "midi": 62,
      "hit": false,
      "t": 19632.689700000054,
      "d": 79.64580000000205,
      "v": 105
    },
    {
      "midi": 58,
      "hit": false,
      "t": 19884.901400000053,
      "d": 70.79626666666809,
      "v": 94
    },
    {
      "midi": 55,
      "hit": false,
      "t": 19889.32616666672,
      "d": 66.3715000000011,
      "v": 104
    },
    {
      "midi": 62,
      "hit": false,
      "t": 19889.32616666672,
      "d": 66.3715000000011,
      "v": 101
    },
    {
      "midi": 43,
      "hit": false,
      "t": 20163.661700000055,
      "d": 88.49533333333602,
      "v": 118
    },
    {
      "midi": 55,
      "hit": false,
      "t": 20168.086466666722,
      "d": 66.3715000000011,
      "v": 115
    },
    {
      "midi": 62,
      "hit": false,
      "t": 20168.086466666722,
      "d": 66.3715000000011,
      "v": 110
    },
    {
      "midi": 58,
      "hit": false,
      "t": 20168.086466666722,
      "d": 79.64580000000205,
      "v": 108
    },
    {
      "midi": 58,
      "hit": false,
      "t": 21221.18093333339,
      "d": 66.3715000000011,
      "v": 97
    },
    {
      "midi": 62,
      "hit": false,
      "t": 21225.60570000006,
      "d": 39.82289999999921,
      "v": 99
    },
    {
      "midi": 55,
      "hit": false,
      "t": 21225.60570000006,
      "d": 44.24766666666619,
      "v": 103
    },
    {
      "midi": 43,
      "hit": false,
      "t": 21234.455233333392,
      "d": 88.49533333333238,
      "v": 112
    },
    {
      "midi": 58,
      "hit": false,
      "t": 21468.967866666724,
      "d": 70.79626666666445,
      "v": 95
    },
    {
      "midi": 55,
      "hit": false,
      "t": 21473.39263333339,
      "d": 35.398133333332225,
      "v": 99
    },
    {
      "midi": 62,
      "hit": false,
      "t": 21473.39263333339,
      "d": 35.398133333332225,
      "v": 86
    },
    {
      "midi": 58,
      "hit": false,
      "t": 21734.45386666672,
      "d": 70.79626666666809,
      "v": 97
    },
    {
      "midi": 62,
      "hit": false,
      "t": 21734.45386666672,
      "d": 70.79626666666809,
      "v": 103
    },
    {
      "midi": 55,
      "hit": false,
      "t": 21734.45386666672,
      "d": 75.22103333333507,
      "v": 106
    },
    {
      "midi": 38,
      "hit": false,
      "t": 21747.728166666722,
      "d": 101.76963333333333,
      "v": 102
    },
    {
      "midi": 55,
      "hit": false,
      "t": 21999.939866666722,
      "d": 39.82289999999921,
      "v": 104
    },
    {
      "midi": 62,
      "hit": false,
      "t": 21999.939866666722,
      "d": 39.82289999999921,
      "v": 98
    },
    {
      "midi": 58,
      "hit": false,
      "t": 22008.789400000056,
      "d": 39.82289999999921,
      "v": 85
    },
    {
      "midi": 62,
      "hit": false,
      "t": 22269.85063333339,
      "d": 66.3715000000011,
      "v": 102
    },
    {
      "midi": 55,
      "hit": false,
      "t": 22269.85063333339,
      "d": 70.79626666666809,
      "v": 108
    },
    {
      "midi": 58,
      "hit": false,
      "t": 22274.275400000057,
      "d": 57.52196666666714,
      "v": 92
    },
    {
      "midi": 43,
      "hit": false,
      "t": 22278.700166666724,
      "d": 75.22103333333507,
      "v": 106
    },
    {
      "midi": 55,
      "hit": false,
      "t": 22544.186166666725,
      "d": 35.398133333332225,
      "v": 101
    },
    {
      "midi": 62,
      "hit": false,
      "t": 22544.186166666725,
      "d": 44.24766666666619,
      "v": 95
    },
    {
      "midi": 58,
      "hit": false,
      "t": 22544.186166666725,
      "d": 70.79626666666445,
      "v": 95
    },
    {
      "midi": 38,
      "hit": false,
      "t": 22822.946466666723,
      "d": 252.21169999999984,
      "v": 104
    },
    {
      "midi": 58,
      "hit": false,
      "t": 22827.37123333339,
      "d": 75.22103333333143,
      "v": 97
    },
    {
      "midi": 62,
      "hit": false,
      "t": 22827.37123333339,
      "d": 84.0705666666654,
      "v": 102
    },
    {
      "midi": 55,
      "hit": false,
      "t": 22831.796000000057,
      "d": 39.82289999999921,
      "v": 102
    },
    {
      "midi": 62,
      "hit": false,
      "t": 23075.158166666723,
      "d": 79.64580000000205,
      "v": 101
    },
    {
      "midi": 55,
      "hit": false,
      "t": 23079.58293333339,
      "d": 79.64580000000205,
      "v": 103
    },
    {
      "midi": 58,
      "hit": false,
      "t": 23079.58293333339,
      "d": 88.49533333333602,
      "v": 87
    },
    {
      "midi": 43,
      "hit": false,
      "t": 23079.58293333339,
      "d": 287.60983333333934,
      "v": 110
    },
    {
      "midi": 41,
      "hit": false,
      "t": 23345.068933333394,
      "d": 97.34486666666999,
      "v": 105
    },
    {
      "midi": 60,
      "hit": false,
      "t": 23353.918466666728,
      "d": 75.22103333333507,
      "v": 100
    },
    {
      "midi": 53,
      "hit": false,
      "t": 23358.343233333395,
      "d": 75.22103333333507,
      "v": 100
    },
    {
      "midi": 57,
      "hit": false,
      "t": 23358.343233333395,
      "d": 79.64580000000205,
      "v": 98
    },
    {
      "midi": 60,
      "hit": false,
      "t": 23610.5549333334,
      "d": 70.79626666666809,
      "v": 93
    },
    {
      "midi": 53,
      "hit": false,
      "t": 23614.979700000065,
      "d": 57.52196666666714,
      "v": 96
    },
    {
      "midi": 57,
      "hit": false,
      "t": 23614.979700000065,
      "d": 66.3715000000011,
      "v": 95
    },
    {
      "midi": 60,
      "hit": false,
      "t": 23876.0409333334,
      "d": 88.49533333333602,
      "v": 102
    },
    {
      "midi": 36,
      "hit": false,
      "t": 23880.465700000066,
      "d": 119.46870000000126,
      "v": 106
    },
    {
      "midi": 53,
      "hit": false,
      "t": 23884.890466666733,
      "d": 70.79626666666809,
      "v": 103
    },
    {
      "midi": 57,
      "hit": false,
      "t": 23889.3152333334,
      "d": 70.79626666666809,
      "v": 98
    },
    {
      "midi": 53,
      "hit": false,
      "t": 24141.5269333334,
      "d": 57.52196666666714,
      "v": 96
    },
    {
      "midi": 60,
      "hit": false,
      "t": 24141.5269333334,
      "d": 70.79626666666809,
      "v": 95
    },
    {
      "midi": 57,
      "hit": false,
      "t": 24145.951700000067,
      "d": 61.94673333333412,
      "v": 93
    },
    {
      "midi": 57,
      "hit": false,
      "t": 24415.862466666735,
      "d": 75.22103333333507,
      "v": 105
    },
    {
      "midi": 41,
      "hit": false,
      "t": 24415.862466666735,
      "d": 101.76963333333333,
      "v": 111
    },
    {
      "midi": 53,
      "hit": false,
      "t": 24420.2872333334,
      "d": 61.94673333333412,
      "v": 106
    },
    {
      "midi": 60,
      "hit": false,
      "t": 24420.2872333334,
      "d": 70.79626666666809,
      "v": 103
    },
    {
      "midi": 53,
      "hit": false,
      "t": 24681.348466666735,
      "d": 70.79626666666809,
      "v": 97
    },
    {
      "midi": 60,
      "hit": false,
      "t": 24681.348466666735,
      "d": 70.79626666666809,
      "v": 90
    },
    {
      "midi": 57,
      "hit": false,
      "t": 24681.348466666735,
      "d": 75.22103333333507,
      "v": 93
    },
    {
      "midi": 36,
      "hit": false,
      "t": 24951.259233333403,
      "d": 141.59253333333618,
      "v": 106
    },
    {
      "midi": 60,
      "hit": false,
      "t": 24955.68400000007,
      "d": 84.07056666666904,
      "v": 98
    },
    {
      "midi": 57,
      "hit": false,
      "t": 24960.108766666737,
      "d": 79.64580000000205,
      "v": 100
    },
    {
      "midi": 53,
      "hit": false,
      "t": 24964.533533333404,
      "d": 53.09720000000016,
      "v": 97
    },
    {
      "midi": 41,
      "hit": false,
      "t": 25199.04616666674,
      "d": 53.09720000000016,
      "v": 109
    },
    {
      "midi": 60,
      "hit": false,
      "t": 25199.04616666674,
      "d": 79.64579999999842,
      "v": 93
    },
    {
      "midi": 53,
      "hit": false,
      "t": 25207.895700000074,
      "d": 79.64579999999842,
      "v": 94
    },
    {
      "midi": 57,
      "hit": false,
      "t": 25221.170000000075,
      "d": 30.973366666665243,
      "v": 93
    },
    {
      "midi": 55,
      "hit": false,
      "t": 25468.956933333404,
      "d": 79.64580000000205,
      "v": 105
    },
    {
      "midi": 63,
      "hit": false,
      "t": 25477.806466666738,
      "d": 92.920100000003,
      "v": 91
    },
    {
      "midi": 48,
      "hit": false,
      "t": 25477.806466666738,
      "d": 101.76963333333697,
      "v": 110
    },
    {
      "midi": 60,
      "hit": false,
      "t": 25482.231233333405,
      "d": 48.672433333333174,
      "v": 92
    },
    {
      "midi": 63,
      "hit": false,
      "t": 25725.593400000074,
      "d": 101.76963333333697,
      "v": 92
    },
    {
      "midi": 55,
      "hit": false,
      "t": 25730.01816666674,
      "d": 79.64580000000205,
      "v": 98
    },
    {
      "midi": 60,
      "hit": false,
      "t": 25738.867700000075,
      "d": 66.3715000000011,
      "v": 85
    },
    {
      "midi": 63,
      "hit": false,
      "t": 25991.07940000008,
      "d": 106.19440000000395,
      "v": 95
    },
    {
      "midi": 55,
      "hit": false,
      "t": 25995.504166666746,
      "d": 75.22103333333507,
      "v": 106
    },
    {
      "midi": 43,
      "hit": false,
      "t": 25995.504166666746,
      "d": 123.89346666667188,
      "v": 108
    },
    {
      "midi": 60,
      "hit": false,
      "t": 25999.928933333413,
      "d": 75.22103333333507,
      "v": 96
    },
    {
      "midi": 55,
      "hit": false,
      "t": 26247.71586666675,
      "d": 75.22103333333143,
      "v": 99
    },
    {
      "midi": 63,
      "hit": false,
      "t": 26247.71586666675,
      "d": 88.49533333333238,
      "v": 92
    },
    {
      "midi": 60,
      "hit": false,
      "t": 26265.414933333417,
      "d": 30.973366666665243,
      "v": 83
    },
    {
      "midi": 63,
      "hit": false,
      "t": 26513.20186666675,
      "d": 92.920100000003,
      "v": 93
    },
    {
      "midi": 55,
      "hit": false,
      "t": 26517.626633333417,
      "d": 66.3715000000011,
      "v": 103
    },
    {
      "midi": 60,
      "hit": false,
      "t": 26526.47616666675,
      "d": 39.82289999999921,
      "v": 92
    },
    {
      "midi": 48,
      "hit": false,
      "t": 26530.900933333418,
      "d": 92.920100000003,
      "v": 112
    },
    {
      "midi": 55,
      "hit": false,
      "t": 26778.687866666754,
      "d": 75.22103333333143,
      "v": 102
    },
    {
      "midi": 63,
      "hit": false,
      "t": 26778.687866666754,
      "d": 75.22103333333143,
      "v": 91
    },
    {
      "midi": 60,
      "hit": false,
      "t": 26787.53740000009,
      "d": 35.398133333332225,
      "v": 90
    },
    {
      "midi": 43,
      "hit": false,
      "t": 27039.749100000085,
      "d": 150.4420666666665,
      "v": 106
    },
    {
      "midi": 55,
      "hit": false,
      "t": 27048.59863333342,
      "d": 75.22103333333507,
      "v": 103
    },
    {
      "midi": 63,
      "hit": false,
      "t": 27048.59863333342,
      "d": 110.6191666666673,
      "v": 95
    },
    {
      "midi": 60,
      "hit": false,
      "t": 27061.87293333342,
      "d": 70.79626666666809,
      "v": 95
    },
    {
      "midi": 63,
      "hit": false,
      "t": 27291.960800000084,
      "d": 97.34486666666635,
      "v": 79
    },
    {
      "midi": 55,
      "hit": false,
      "t": 27300.81033333342,
      "d": 88.49533333333238,
      "v": 97
    },
    {
      "midi": 48,
      "hit": false,
      "t": 27318.509400000086,
      "d": 84.0705666666654,
      "v": 109
    },
    {
      "midi": 60,
      "hit": false,
      "t": 27322.934166666753,
      "d": 30.973366666665243,
      "v": 77
    },
    {
      "midi": 55,
      "hit": false,
      "t": 27579.57063333342,
      "d": 75.22103333333507,
      "v": 106
    },
    {
      "midi": 58,
      "hit": false,
      "t": 27579.57063333342,
      "d": 88.49533333333602,
      "v": 100
    },
    {
      "midi": 43,
      "hit": false,
      "t": 27579.57063333342,
      "d": 110.61916666667094,
      "v": 110
    },
    {
      "midi": 62,
      "hit": false,
      "t": 27601.694466666755,
      "d": 39.82289999999921,
      "v": 68
    },
    {
      "midi": 58,
      "hit": false,
      "t": 27827.357566666757,
      "d": 75.22103333333507,
      "v": 90
    },
    {
      "midi": 62,
      "hit": false,
      "t": 27831.782333333424,
      "d": 48.672433333333174,
      "v": 92
    },
    {
      "midi": 55,
      "hit": false,
      "t": 27831.782333333424,
      "d": 61.94673333333412,
      "v": 96
    },
    {
      "midi": 62,
      "hit": false,
      "t": 28106.11786666676,
      "d": 84.07056666666904,
      "v": 105
    },
    {
      "midi": 38,
      "hit": false,
      "t": 28106.11786666676,
      "d": 123.89346666666825,
      "v": 108
    },
    {
      "midi": 55,
      "hit": false,
      "t": 28110.542633333425,
      "d": 75.22103333333507,
      "v": 110
    },
    {
      "midi": 58,
      "hit": false,
      "t": 28110.542633333425,
      "d": 88.49533333333602,
      "v": 100
    },
    {
      "midi": 62,
      "hit": false,
      "t": 28371.60386666676,
      "d": 53.09720000000016,
      "v": 100
    },
    {
      "midi": 58,
      "hit": false,
      "t": 28371.60386666676,
      "d": 61.94673333333412,
      "v": 95
    },
    {
      "midi": 55,
      "hit": false,
      "t": 28376.028633333426,
      "d": 39.82289999999921,
      "v": 104
    },
    {
      "midi": 58,
      "hit": false,
      "t": 28659.213700000095,
      "d": 84.07056666666904,
      "v": 112
    },
    {
      "midi": 62,
      "hit": false,
      "t": 28663.63846666676,
      "d": 66.3715000000011,
      "v": 108
    },
    {
      "midi": 55,
      "hit": false,
      "t": 28663.63846666676,
      "d": 75.22103333333507,
      "v": 112
    },
    {
      "midi": 43,
      "hit": false,
      "t": 28663.63846666676,
      "d": 79.64580000000205,
      "v": 120
    },
    {
      "midi": 55,
      "hit": false,
      "t": 29703.45863333343,
      "d": 79.64580000000205,
      "v": 98
    },
    {
      "midi": 58,
      "hit": false,
      "t": 29721.157700000098,
      "d": 70.79626666666809,
      "v": 96
    },
    {
      "midi": 62,
      "hit": false,
      "t": 29725.582466666765,
      "d": 35.398133333332225,
      "v": 93
    },
    {
      "midi": 43,
      "hit": false,
      "t": 29725.582466666765,
      "d": 88.49533333333602,
      "v": 113
    },
    {
      "midi": 55,
      "hit": false,
      "t": 29973.3694000001,
      "d": 57.52196666666714,
      "v": 102
    },
    {
      "midi": 58,
      "hit": false,
      "t": 29973.3694000001,
      "d": 66.3715000000011,
      "v": 92
    },
    {
      "midi": 62,
      "hit": false,
      "t": 29977.79416666677,
      "d": 35.398133333332225,
      "v": 96
    },
    {
      "midi": 38,
      "hit": false,
      "t": 30247.704933333436,
      "d": 110.6191666666673,
      "v": 105
    },
    {
      "midi": 55,
      "hit": false,
      "t": 30252.129700000103,
      "d": 70.79626666666809,
      "v": 104
    },
    {
      "midi": 58,
      "hit": false,
      "t": 30252.129700000103,
      "d": 70.79626666666809,
      "v": 95
    },
    {
      "midi": 62,
      "hit": false,
      "t": 30252.129700000103,
      "d": 70.79626666666809,
      "v": 102
    },
    {
      "midi": 55,
      "hit": false,
      "t": 30508.76616666677,
      "d": 39.82289999999921,
      "v": 101
    },
    {
      "midi": 62,
      "hit": false,
      "t": 30508.76616666677,
      "d": 44.24766666666619,
      "v": 96
    },
    {
      "midi": 58,
      "hit": false,
      "t": 30513.190933333437,
      "d": 44.24766666666619,
      "v": 84
    },
    {
      "midi": 58,
      "hit": false,
      "t": 30783.101700000105,
      "d": 70.79626666666445,
      "v": 103
    },
    {
      "midi": 55,
      "hit": false,
      "t": 30787.52646666677,
      "d": 35.398133333332225,
      "v": 103
    },
    {
      "midi": 62,
      "hit": false,
      "t": 30787.52646666677,
      "d": 35.398133333332225,
      "v": 96
    },
    {
      "midi": 43,
      "hit": false,
      "t": 30787.52646666677,
      "d": 75.22103333333143,
      "v": 109
    },
    {
      "midi": 55,
      "hit": false,
      "t": 31039.73816666677,
      "d": 39.82289999999921,
      "v": 102
    },
    {
      "midi": 62,
      "hit": false,
      "t": 31044.16293333344,
      "d": 48.672433333333174,
      "v": 97
    },
    {
      "midi": 58,
      "hit": false,
      "t": 31044.16293333344,
      "d": 66.3715000000011,
      "v": 91
    },
    {
      "midi": 38,
      "hit": false,
      "t": 31300.799400000105,
      "d": 137.16776666666556,
      "v": 103
    },
    {
      "midi": 58,
      "hit": false,
      "t": 31322.92323333344,
      "d": 75.22103333333143,
      "v": 97
    },
    {
      "midi": 55,
      "hit": false,
      "t": 31327.348000000107,
      "d": 35.398133333332225,
      "v": 102
    },
    {
      "midi": 62,
      "hit": false,
      "t": 31327.348000000107,
      "d": 39.82289999999921,
      "v": 97
    },
    {
      "midi": 58,
      "hit": false,
      "t": 31566.285400000103,
      "d": 75.22103333333143,
      "v": 89
    },
    {
      "midi": 43,
      "hit": false,
      "t": 31566.285400000103,
      "d": 88.49533333333238,
      "v": 103
    },
    {
      "midi": 62,
      "hit": false,
      "t": 31570.71016666677,
      "d": 39.82289999999921,
      "v": 91
    },
    {
      "midi": 55,
      "hit": false,
      "t": 31575.134933333436,
      "d": 66.37149999999747,
      "v": 96
    },
    {
      "midi": 41,
      "hit": false,
      "t": 31827.346633333436,
      "d": 97.34486666666999,
      "v": 110
    },
    {
      "midi": 60,
      "hit": false,
      "t": 31836.19616666677,
      "d": 53.09720000000016,
      "v": 96
    },
    {
      "midi": 53,
      "hit": false,
      "t": 31836.19616666677,
      "d": 61.94673333333412,
      "v": 100
    },
    {
      "midi": 57,
      "hit": false,
      "t": 31840.620933333437,
      "d": 61.94673333333412,
      "v": 102
    },
    {
      "midi": 60,
      "hit": false,
      "t": 32088.407866666774,
      "d": 53.09720000000016,
      "v": 92
    },
    {
      "midi": 53,
      "hit": false,
      "t": 32092.83263333344,
      "d": 35.398133333332225,
      "v": 91
    },
    {
      "midi": 57,
      "hit": false,
      "t": 32092.83263333344,
      "d": 39.82289999999921,
      "v": 91
    },
    {
      "midi": 57,
      "hit": false,
      "t": 32345.04433333344,
      "d": 75.22103333333507,
      "v": 108
    },
    {
      "midi": 60,
      "hit": false,
      "t": 32345.04433333344,
      "d": 79.64580000000205,
      "v": 103
    },
    {
      "midi": 36,
      "hit": false,
      "t": 32345.04433333344,
      "d": 110.6191666666673,
      "v": 109
    },
    {
      "midi": 53,
      "hit": false,
      "t": 32349.469100000108,
      "d": 61.94673333333412,
      "v": 103
    },
    {
      "midi": 53,
      "hit": false,
      "t": 32592.831266666773,
      "d": 61.94673333333412,
      "v": 101
    },
    {
      "midi": 60,
      "hit": false,
      "t": 32592.831266666773,
      "d": 70.79626666666809,
      "v": 96
    },
    {
      "midi": 57,
      "hit": false,
      "t": 32601.680800000107,
      "d": 39.82289999999921,
      "v": 93
    },
    {
      "midi": 57,
      "hit": false,
      "t": 32858.317266666774,
      "d": 75.22103333333507,
      "v": 109
    },
    {
      "midi": 60,
      "hit": false,
      "t": 32858.317266666774,
      "d": 75.22103333333507,
      "v": 104
    },
    {
      "midi": 53,
      "hit": false,
      "t": 32862.74203333344,
      "d": 44.24766666666983,
      "v": 106
    },
    {
      "midi": 41,
      "hit": false,
      "t": 32862.74203333344,
      "d": 92.920100000003,
      "v": 113
    },
    {
      "midi": 60,
      "hit": false,
      "t": 33114.95373333344,
      "d": 70.79626666666445,
      "v": 100
    },
    {
      "midi": 53,
      "hit": false,
      "t": 33119.3785000001,
      "d": 39.82289999999921,
      "v": 100
    },
    {
      "midi": 57,
      "hit": false,
      "t": 33119.3785000001,
      "d": 66.3715000000011,
      "v": 98
    },
    {
      "midi": 36,
      "hit": false,
      "t": 33376.01496666677,
      "d": 137.16776666666556,
      "v": 106
    },
    {
      "midi": 57,
      "hit": false,
      "t": 33393.71403333344,
      "d": 75.22103333333507,
      "v": 104
    },
    {
      "midi": 60,
      "hit": false,
      "t": 33393.71403333344,
      "d": 79.64579999999842,
      "v": 103
    },
    {
      "midi": 53,
      "hit": false,
      "t": 33398.1388000001,
      "d": 44.24766666666983,
      "v": 103
    },
    {
      "midi": 41,
      "hit": false,
      "t": 33628.22666666677,
      "d": 75.22103333333507,
      "v": 112
    },
    {
      "midi": 60,
      "hit": false,
      "t": 33628.22666666677,
      "d": 84.07056666666904,
      "v": 97
    },
    {
      "midi": 53,
      "hit": false,
      "t": 33637.076200000105,
      "d": 75.22103333333507,
      "v": 98
    },
    {
      "midi": 57,
      "hit": false,
      "t": 33645.92573333344,
      "d": 35.39813333333586,
      "v": 91
    },
    {
      "midi": 55,
      "hit": false,
      "t": 33915.83650000011,
      "d": 79.64579999999842,
      "v": 106
    },
    {
      "midi": 48,
      "hit": false,
      "t": 33915.83650000011,
      "d": 110.61916666666366,
      "v": 110
    },
    {
      "midi": 60,
      "hit": false,
      "t": 33929.110800000104,
      "d": 35.39813333333586,
      "v": 93
    },
    {
      "midi": 63,
      "hit": false,
      "t": 33929.110800000104,
      "d": 79.64579999999842,
      "v": 90
    },
    {
      "midi": 55,
      "hit": false,
      "t": 34176.89773333344,
      "d": 75.22103333333507,
      "v": 103
    },
    {
      "midi": 63,
      "hit": false,
      "t": 34176.89773333344,
      "d": 97.34486666666635,
      "v": 94
    },
    {
      "midi": 60,
      "hit": false,
      "t": 34190.17203333344,
      "d": 35.39813333333586,
      "v": 89
    },
    {
      "midi": 55,
      "hit": false,
      "t": 34455.65803333344,
      "d": 70.79626666666445,
      "v": 109
    },
    {
      "midi": 63,
      "hit": false,
      "t": 34455.65803333344,
      "d": 97.34486666666635,
      "v": 97
    },
    {
      "midi": 43,
      "hit": false,
      "t": 34455.65803333344,
      "d": 115.04393333333428,
      "v": 112
    },
    {
      "midi": 60,
      "hit": false,
      "t": 34464.507566666776,
      "d": 53.09719999999652,
      "v": 92
    },
    {
      "midi": 63,
      "hit": false,
      "t": 34712.29450000011,
      "d": 92.920100000003,
      "v": 93
    },
    {
      "midi": 55,
      "hit": false,
      "t": 34721.14403333345,
      "d": 66.3715000000011,
      "v": 103
    },
    {
      "midi": 60,
      "hit": false,
      "t": 34729.99356666678,
      "d": 35.39813333333586,
      "v": 87
    },
    {
      "midi": 63,
      "hit": false,
      "t": 34991.054800000114,
      "d": 97.34486666666635,
      "v": 98
    },
    {
      "midi": 55,
      "hit": false,
      "t": 34995.47956666678,
      "d": 66.3715000000011,
      "v": 109
    },
    {
      "midi": 60,
      "hit": false,
      "t": 35004.32910000011,
      "d": 30.973366666665243,
      "v": 97
    },
    {
      "midi": 48,
      "hit": false,
      "t": 35004.32910000011,
      "d": 84.07056666666904,
      "v": 116
    },
    {
      "midi": 55,
      "hit": false,
      "t": 35265.390333333446,
      "d": 66.3715000000011,
      "v": 108
    },
    {
      "midi": 63,
      "hit": false,
      "t": 35265.390333333446,
      "d": 84.07056666666904,
      "v": 96
    },
    {
      "midi": 60,
      "hit": false,
      "t": 35274.23986666678,
      "d": 35.39813333333586,
      "v": 91
    },
    {
      "midi": 43,
      "hit": false,
      "t": 35535.30110000011,
      "d": 146.01729999999225,
      "v": 110
    },
    {
      "midi": 63,
      "hit": false,
      "t": 35548.57540000011,
      "d": 101.7696333333297,
      "v": 99
    },
    {
      "midi": 55,
      "hit": false,
      "t": 35553.000166666774,
      "d": 70.79626666666445,
      "v": 109
    },
    {
      "midi": 60,
      "hit": false,
      "t": 35557.42493333344,
      "d": 44.24766666666983,
      "v": 99
    },
    {
      "midi": 63,
      "hit": false,
      "t": 35805.211866666774,
      "d": 70.79626666666445,
      "v": 87
    },
    {
      "midi": 55,
      "hit": false,
      "t": 35805.211866666774,
      "d": 79.64579999999842,
      "v": 106
    },
    {
      "midi": 48,
      "hit": false,
      "t": 35809.63663333344,
      "d": 66.3715000000011,
      "v": 113
    },
    {
      "midi": 60,
      "hit": false,
      "t": 35822.910933333435,
      "d": 35.39813333333586,
      "v": 80
    },
    {
      "midi": 55,
      "hit": false,
      "t": 36079.547400000105,
      "d": 70.79626666665717,
      "v": 110
    },
    {
      "midi": 43,
      "hit": false,
      "t": 36083.97216666677,
      "d": 101.7696333333297,
      "v": 116
    },
    {
      "midi": 62,
      "hit": false,
      "t": 36088.39693333343,
      "d": 39.82289999999921,
      "v": 103
    },
    {
      "midi": 58,
      "hit": false,
      "t": 36088.39693333343,
      "d": 61.946733333330485,
      "v": 98
    },
    {
      "midi": 62,
      "hit": false,
      "t": 36336.18386666677,
      "d": 79.64579999998386,
      "v": 102
    },
    {
      "midi": 55,
      "hit": false,
      "t": 36340.60863333343,
      "d": 70.79626666665717,
      "v": 103
    },
    {
      "midi": 58,
      "hit": false,
      "t": 36345.033400000095,
      "d": 61.946733333330485,
      "v": 86
    },
    {
      "midi": 38,
      "hit": false,
      "t": 36606.09463333342,
      "d": 119.46869999999035,
      "v": 112
    },
    {
      "midi": 55,
      "hit": false,
      "t": 36619.36893333342,
      "d": 75.2210333333278,
      "v": 110
    },
    {
      "midi": 58,
      "hit": false,
      "t": 36619.36893333342,
      "d": 88.4953333333251,
      "v": 104
    },
    {
      "midi": 62,
      "hit": false,
      "t": 36623.79370000008,
      "d": 79.64579999999842,
      "v": 104
    },
    {
      "midi": 58,
      "hit": false,
      "t": 36871.58063333341,
      "d": 75.2210333333278,
      "v": 98
    },
    {
      "midi": 62,
      "hit": false,
      "t": 36876.005400000075,
      "d": 70.79626666666445,
      "v": 102
    },
    {
      "midi": 55,
      "hit": false,
      "t": 36880.43016666674,
      "d": 66.3715000000011,
      "v": 105
    },
    {
      "midi": 43,
      "hit": false,
      "t": 37154.76570000007,
      "d": 79.64579999999114,
      "v": 118
    },
    {
      "midi": 55,
      "hit": false,
      "t": 37159.19046666673,
      "d": 66.37149999999383,
      "v": 115
    },
    {
      "midi": 58,
      "hit": false,
      "t": 37159.19046666673,
      "d": 84.07056666666176,
      "v": 109
    },
    {
      "midi": 62,
      "hit": false,
      "t": 37163.615233333396,
      "d": 57.52196666666714,
      "v": 109
    },
    {
      "midi": 55,
      "hit": false,
      "t": 38212.284933333394,
      "d": 79.64579999999842,
      "v": 97
    },
    {
      "midi": 58,
      "hit": false,
      "t": 38229.98400000006,
      "d": 79.64579999999842,
      "v": 98
    },
    {
      "midi": 62,
      "hit": false,
      "t": 38234.408766666726,
      "d": 30.973366666665243,
      "v": 92
    },
    {
      "midi": 43,
      "hit": false,
      "t": 38243.25830000006,
      "d": 88.49533333333238,
      "v": 113
    },
    {
      "midi": 62,
      "hit": false,
      "t": 38486.620466666725,
      "d": 57.52196666666714,
      "v": 98
    },
    {
      "midi": 58,
      "hit": false,
      "t": 38486.620466666725,
      "d": 70.79626666666445,
      "v": 95
    },
    {
      "midi": 55,
      "hit": false,
      "t": 38486.620466666725,
      "d": 79.64579999999842,
      "v": 105
    },
    {
      "midi": 62,
      "hit": false,
      "t": 38756.53123333339,
      "d": 48.672433333333174,
      "v": 97
    },
    {
      "midi": 55,
      "hit": false,
      "t": 38756.53123333339,
      "d": 57.52196666666714,
      "v": 103
    },
    {
      "midi": 38,
      "hit": false,
      "t": 38756.53123333339,
      "d": 92.920100000003,
      "v": 104
    },
    {
      "midi": 58,
      "hit": false,
      "t": 38760.95600000006,
      "d": 61.94673333333776,
      "v": 89
    },
    {
      "midi": 62,
      "hit": false,
      "t": 39013.16770000006,
      "d": 57.521966666659864,
      "v": 99
    },
    {
      "midi": 55,
      "hit": false,
      "t": 39017.59246666673,
      "d": 39.82289999999921,
      "v": 103
    },
    {
      "midi": 58,
      "hit": false,
      "t": 39017.59246666673,
      "d": 57.521966666659864,
      "v": 89
    },
    {
      "midi": 58,
      "hit": false,
      "t": 39291.92800000005,
      "d": 66.3715000000011,
      "v": 101
    },
    {
      "midi": 55,
      "hit": false,
      "t": 39291.92800000005,
      "d": 79.64579999999842,
      "v": 109
    },
    {
      "midi": 62,
      "hit": false,
      "t": 39296.352766666714,
      "d": 35.39813333333586,
      "v": 100
    },
    {
      "midi": 43,
      "hit": false,
      "t": 39296.352766666714,
      "d": 70.79626666667173,
      "v": 111
    },
    {
      "midi": 55,
      "hit": false,
      "t": 39561.83876666672,
      "d": 53.09719999999652,
      "v": 108
    },
    {
      "midi": 58,
      "hit": false,
      "t": 39561.83876666672,
      "d": 53.09719999999652,
      "v": 96
    },
    {
      "midi": 62,
      "hit": false,
      "t": 39566.26353333338,
      "d": 30.973366666665243,
      "v": 96
    },
    {
      "midi": 38,
      "hit": false,
      "t": 39818.47523333338,
      "d": 150.44206666667014,
      "v": 103
    },
    {
      "midi": 55,
      "hit": false,
      "t": 39836.17430000005,
      "d": 35.39813333333586,
      "v": 103
    },
    {
      "midi": 62,
      "hit": false,
      "t": 39836.17430000005,
      "d": 39.82289999999921,
      "v": 99
    },
    {
      "midi": 58,
      "hit": false,
      "t": 39836.17430000005,
      "d": 75.22103333333507,
      "v": 98
    },
    {
      "midi": 43,
      "hit": false,
      "t": 40083.961233333386,
      "d": 57.521966666659864,
      "v": 104
    },
    {
      "midi": 58,
      "hit": false,
      "t": 40088.38600000005,
      "d": 53.09719999999652,
      "v": 89
    },
    {
      "midi": 55,
      "hit": false,
      "t": 40088.38600000005,
      "d": 75.2210333333278,
      "v": 106
    },
    {
      "midi": 62,
      "hit": false,
      "t": 40092.81076666671,
      "d": 35.39813333333586,
      "v": 92
    },
    {
      "midi": 60,
      "hit": false,
      "t": 40349.447233333376,
      "d": 75.2210333333278,
      "v": 106
    },
    {
      "midi": 53,
      "hit": false,
      "t": 40353.87200000004,
      "d": 70.79626666666445,
      "v": 108
    },
    {
      "midi": 57,
      "hit": false,
      "t": 40358.2967666667,
      "d": 35.39813333333586,
      "v": 103
    },
    {
      "midi": 41,
      "hit": false,
      "t": 40358.2967666667,
      "d": 70.79626666666445,
      "v": 109
    },
    {
      "midi": 60,
      "hit": false,
      "t": 40614.933233333366,
      "d": 53.09719999999652,
      "v": 90
    },
    {
      "midi": 53,
      "hit": false,
      "t": 40619.35800000003,
      "d": 39.82289999999921,
      "v": 90
    },
    {
      "midi": 57,
      "hit": false,
      "t": 40619.35800000003,
      "d": 39.82289999999921,
      "v": 91
    },
    {
      "midi": 36,
      "hit": false,
      "t": 40880.41923333336,
      "d": 97.34486666665907,
      "v": 105
    },
    {
      "midi": 60,
      "hit": false,
      "t": 40884.84400000003,
      "d": 75.2210333333278,
      "v": 106
    },
    {
      "midi": 57,
      "hit": false,
      "t": 40889.26876666669,
      "d": 70.79626666666445,
      "v": 106
    },
    {
      "midi": 53,
      "hit": false,
      "t": 40893.69353333335,
      "d": 35.39813333333586,
      "v": 102
    },
    {
      "midi": 60,
      "hit": false,
      "t": 41137.05570000002,
      "d": 70.79626666666445,
      "v": 105
    },
    {
      "midi": 53,
      "hit": false,
      "t": 41145.90523333335,
      "d": 39.82289999999921,
      "v": 103
    },
    {
      "midi": 57,
      "hit": false,
      "t": 41150.330000000016,
      "d": 35.39813333333586,
      "v": 97
    },
    {
      "midi": 57,
      "hit": false,
      "t": 41415.81600000001,
      "d": 57.521966666659864,
      "v": 109
    },
    {
      "midi": 60,
      "hit": false,
      "t": 41415.81600000001,
      "d": 66.37149999998655,
      "v": 108
    },
    {
      "midi": 53,
      "hit": false,
      "t": 41420.24076666668,
      "d": 57.521966666659864,
      "v": 112
    },
    {
      "midi": 41,
      "hit": false,
      "t": 41424.66553333334,
      "d": 66.37149999999383,
      "v": 110
    },
    {
      "midi": 60,
      "hit": false,
      "t": 41685.72676666667,
      "d": 70.79626666665717,
      "v": 105
    },
    {
      "midi": 53,
      "hit": false,
      "t": 41690.15153333333,
      "d": 57.521966666659864,
      "v": 109
    },
    {
      "midi": 57,
      "hit": false,
      "t": 41694.57629999999,
      "d": 30.973366666665243,
      "v": 99
    },
    {
      "midi": 36,
      "hit": false,
      "t": 41946.78799999999,
      "d": 115.04393333333428,
      "v": 106
    },
    {
      "midi": 53,
      "hit": false,
      "t": 41964.48706666666,
      "d": 70.79626666666445,
      "v": 109
    },
    {
      "midi": 60,
      "hit": false,
      "t": 41964.48706666666,
      "d": 70.79626666666445,
      "v": 106
    },
    {
      "midi": 57,
      "hit": false,
      "t": 41968.911833333324,
      "d": 48.672433333333174,
      "v": 103
    },
    {
      "midi": 60,
      "hit": false,
      "t": 42207.84923333333,
      "d": 84.07056666665449,
      "v": 100
    },
    {
      "midi": 41,
      "hit": false,
      "t": 42212.27399999999,
      "d": 70.79626666665717,
      "v": 106
    },
    {
      "midi": 57,
      "hit": false,
      "t": 42216.698766666654,
      "d": 53.09719999999652,
      "v": 97
    },
    {
      "midi": 53,
      "hit": false,
      "t": 42221.12353333332,
      "d": 53.09719999999652,
      "v": 97
    },
    {
      "midi": 48,
      "hit": false,
      "t": 42482.18476666665,
      "d": 106.19439999999304,
      "v": 106
    },
    {
      "midi": 55,
      "hit": false,
      "t": 42486.609533333314,
      "d": 79.64579999999842,
      "v": 101
    },
    {
      "midi": 63,
      "hit": false,
      "t": 42499.88383333331,
      "d": 84.07056666666904,
      "v": 90
    },
    {
      "midi": 60,
      "hit": false,
      "t": 42504.308599999975,
      "d": 35.39813333333586,
      "v": 90
    },
    {
      "midi": 63,
      "hit": false,
      "t": 42734.39646666664,
      "d": 97.34486666666635,
      "v": 95
    },
    {
      "midi": 55,
      "hit": false,
      "t": 42738.82123333331,
      "d": 75.22103333333507,
      "v": 100
    },
    {
      "midi": 60,
      "hit": false,
      "t": 42747.67076666664,
      "d": 44.24766666666983,
      "v": 91
    },
    {
      "midi": 63,
      "hit": false,
      "t": 42999.88246666664,
      "d": 101.7696333333297,
      "v": 97
    },
    {
      "midi": 55,
      "hit": false,
      "t": 43004.307233333304,
      "d": 75.22103333333507,
      "v": 108
    },
    {
      "midi": 43,
      "hit": false,
      "t": 43004.307233333304,
      "d": 101.7696333333297,
      "v": 111
    },
    {
      "midi": 60,
      "hit": false,
      "t": 43013.15676666664,
      "d": 39.82289999999921,
      "v": 96
    },
    {
      "midi": 63,
      "hit": false,
      "t": 43247.66939999997,
      "d": 97.34486666666635,
      "v": 93
    },
    {
      "midi": 55,
      "hit": false,
      "t": 43256.518933333304,
      "d": 70.79626666666445,
      "v": 100
    },
    {
      "midi": 60,
      "hit": false,
      "t": 43269.7932333333,
      "d": 35.39813333333586,
      "v": 77
    },
    {
      "midi": 55,
      "hit": false,
      "t": 43526.42969999997,
      "d": 66.37149999999383,
      "v": 108
    },
    {
      "midi": 63,
      "hit": false,
      "t": 43526.42969999997,
      "d": 92.92009999999573,
      "v": 97
    },
    {
      "midi": 60,
      "hit": false,
      "t": 43535.279233333305,
      "d": 35.39813333332859,
      "v": 96
    },
    {
      "midi": 48,
      "hit": false,
      "t": 43539.70399999997,
      "d": 92.92009999999573,
      "v": 111
    },
    {
      "midi": 55,
      "hit": false,
      "t": 43787.4909333333,
      "d": 70.79626666666445,
      "v": 104
    },
    {
      "midi": 63,
      "hit": false,
      "t": 43787.4909333333,
      "d": 92.92009999999573,
      "v": 92
    },
    {
      "midi": 60,
      "hit": false,
      "t": 43800.765233333295,
      "d": 35.39813333333586,
      "v": 92
    },
    {
      "midi": 43,
      "hit": false,
      "t": 44057.40169999996,
      "d": 203.5392666666594,
      "v": 109
    },
    {
      "midi": 63,
      "hit": false,
      "t": 44066.25123333329,
      "d": 106.19439999999304,
      "v": 98
    },
    {
      "midi": 55,
      "hit": false,
      "t": 44070.675999999956,
      "d": 70.79626666666445,
      "v": 106
    },
    {
      "midi": 60,
      "hit": false,
      "t": 44079.52553333329,
      "d": 30.973366666665243,
      "v": 95
    },
    {
      "midi": 63,
      "hit": false,
      "t": 44318.462933333285,
      "d": 75.22103333333507,
      "v": 82
    },
    {
      "midi": 55,
      "hit": false,
      "t": 44318.462933333285,
      "d": 79.64579999999842,
      "v": 108
    },
    {
      "midi": 48,
      "hit": false,
      "t": 44327.31246666662,
      "d": 75.2210333333278,
      "v": 112
    },
    {
      "midi": 55,
      "hit": false,
      "t": 44588.373699999946,
      "d": 84.07056666665449,
      "v": 109
    },
    {
      "midi": 62,
      "hit": false,
      "t": 44592.79846666661,
      "d": 44.24766666666255,
      "v": 100
    },
    {
      "midi": 43,
      "hit": false,
      "t": 44592.79846666661,
      "d": 106.19439999999304,
      "v": 115
    },
    {
      "midi": 58,
      "hit": false,
      "t": 44597.22323333327,
      "d": 70.79626666666445,
      "v": 96
    },
    {
      "midi": 62,
      "hit": false,
      "t": 44845.0101666666,
      "d": 70.79626666666445,
      "v": 95
    },
    {
      "midi": 55,
      "hit": false,
      "t": 44845.0101666666,
      "d": 75.2210333333278,
      "v": 99
    },
    {
      "midi": 58,
      "hit": false,
      "t": 44849.434933333265,
      "d": 75.2210333333278,
      "v": 92
    },
    {
      "midi": 58,
      "hit": false,
      "t": 45119.345699999925,
      "d": 84.07056666665449,
      "v": 102
    },
    {
      "midi": 38,
      "hit": false,
      "t": 45119.345699999925,
      "d": 115.04393333331973,
      "v": 108
    },
    {
      "midi": 55,
      "hit": false,
      "t": 45123.77046666659,
      "d": 79.64579999999114,
      "v": 108
    },
    {
      "midi": 62,
      "hit": false,
      "t": 45128.19523333325,
      "d": 70.79626666666445,
      "v": 100
    },
    {
      "midi": 62,
      "hit": false,
      "t": 45375.98216666658,
      "d": 61.946733333330485,
      "v": 101
    },
    {
      "midi": 58,
      "hit": false,
      "t": 45375.98216666658,
      "d": 66.37149999999383,
      "v": 96
    },
    {
      "midi": 55,
      "hit": false,
      "t": 45375.98216666658,
      "d": 70.79626666665717,
      "v": 103
    },
    {
      "midi": 55,
      "hit": false,
      "t": 45641.46816666657,
      "d": 70.79626666666445,
      "v": 113
    },
    {
      "midi": 62,
      "hit": false,
      "t": 45645.892933333234,
      "d": 48.672433333333174,
      "v": 106
    },
    {
      "midi": 58,
      "hit": false,
      "t": 45645.892933333234,
      "d": 66.3715000000011,
      "v": 109
    },
    {
      "midi": 43,
      "hit": false,
      "t": 45645.892933333234,
      "d": 75.22103333333507,
      "v": 118
    },
    {
      "midi": 55,
      "hit": false,
      "t": 46694.56263333323,
      "d": 88.4953333333251,
      "v": 101
    },
    {
      "midi": 62,
      "hit": false,
      "t": 46725.5359999999,
      "d": 30.973366666657967,
      "v": 98
    },
    {
      "midi": 58,
      "hit": false,
      "t": 46729.96076666656,
      "d": 75.2210333333278,
      "v": 100
    },
    {
      "midi": 43,
      "hit": false,
      "t": 46734.385533333225,
      "d": 75.2210333333278,
      "v": 117
    },
    {
      "midi": 55,
      "hit": false,
      "t": 46977.74769999988,
      "d": 75.2210333333278,
      "v": 104
    },
    {
      "midi": 58,
      "hit": false,
      "t": 46982.17246666655,
      "d": 66.3715000000011,
      "v": 91
    },
    {
      "midi": 62,
      "hit": false,
      "t": 46991.02199999988,
      "d": 30.973366666665243,
      "v": 90
    },
    {
      "midi": 62,
      "hit": false,
      "t": 47256.50799999988,
      "d": 70.79626666665717,
      "v": 100
    },
    {
      "midi": 55,
      "hit": false,
      "t": 47256.50799999988,
      "d": 79.64579999999114,
      "v": 106
    },
    {
      "midi": 58,
      "hit": false,
      "t": 47260.93276666654,
      "d": 75.2210333333278,
      "v": 96
    },
    {
      "midi": 38,
      "hit": false,
      "t": 47265.357533333205,
      "d": 92.92009999999573,
      "v": 105
    },
    {
      "midi": 62,
      "hit": false,
      "t": 47508.71969999987,
      "d": 61.946733333330485,
      "v": 99
    },
    {
      "midi": 55,
      "hit": false,
      "t": 47508.71969999987,
      "d": 70.79626666666445,
      "v": 102
    },
    {
      "midi": 58,
      "hit": false,
      "t": 47517.569233333204,
      "d": 39.82289999999921,
      "v": 86
    },
    {
      "midi": 58,
      "hit": false,
      "t": 47787.479999999865,
      "d": 70.79626666665717,
      "v": 101
    },
    {
      "midi": 62,
      "hit": false,
      "t": 47791.90476666653,
      "d": 39.82289999999921,
      "v": 102
    },
    {
      "midi": 55,
      "hit": false,
      "t": 47791.90476666653,
      "d": 44.24766666666255,
      "v": 106
    },
    {
      "midi": 43,
      "hit": false,
      "t": 47796.32953333319,
      "d": 75.2210333333278,
      "v": 96
    },
    {
      "midi": 55,
      "hit": false,
      "t": 48044.11646666652,
      "d": 66.37149999999383,
      "v": 103
    },
    {
      "midi": 62,
      "hit": false,
      "t": 48048.541233333184,
      "d": 39.82289999999921,
      "v": 98
    },
    {
      "midi": 58,
      "hit": false,
      "t": 48048.541233333184,
      "d": 57.52196666666714,
      "v": 91
    },
    {
      "midi": 38,
      "hit": false,
      "t": 48314.02723333318,
      "d": 101.7696333333297,
      "v": 100
    },
    {
      "midi": 55,
      "hit": false,
      "t": 48336.15106666651,
      "d": 35.39813333333586,
      "v": 98
    },
    {
      "midi": 62,
      "hit": false,
      "t": 48336.15106666651,
      "d": 39.82289999999921,
      "v": 95
    },
    {
      "midi": 58,
      "hit": false,
      "t": 48336.15106666651,
      "d": 57.52196666666714,
      "v": 92
    },
    {
      "midi": 43,
      "hit": false,
      "t": 48570.663699999845,
      "d": 66.37149999999383,
      "v": 112
    },
    {
      "midi": 55,
      "hit": false,
      "t": 48579.51323333318,
      "d": 44.24766666666255,
      "v": 104
    },
    {
      "midi": 58,
      "hit": false,
      "t": 48579.51323333318,
      "d": 61.94673333332321,
      "v": 98
    },
    {
      "midi": 62,
      "hit": false,
      "t": 48583.93799999984,
      "d": 30.973366666665243,
      "v": 98
    },
    {
      "midi": 53,
      "hit": false,
      "t": 48840.574466666505,
      "d": 75.2210333333278,
      "v": 102
    },
    {
      "midi": 60,
      "hit": false,
      "t": 48840.574466666505,
      "d": 79.64579999999114,
      "v": 100
    },
    {
      "midi": 57,
      "hit": false,
      "t": 48844.99923333317,
      "d": 75.2210333333278,
      "v": 103
    },
    {
      "midi": 41,
      "hit": false,
      "t": 48844.99923333317,
      "d": 88.4953333333251,
      "v": 114
    },
    {
      "midi": 60,
      "hit": false,
      "t": 49106.060466666495,
      "d": 70.79626666666445,
      "v": 94
    },
    {
      "midi": 57,
      "hit": false,
      "t": 49114.90999999983,
      "d": 39.82289999999921,
      "v": 91
    },
    {
      "midi": 53,
      "hit": false,
      "t": 49114.90999999983,
      "d": 44.24766666666255,
      "v": 92
    },
    {
      "midi": 60,
      "hit": false,
      "t": 49375.97123333316,
      "d": 79.64579999999114,
      "v": 102
    },
    {
      "midi": 57,
      "hit": false,
      "t": 49380.395999999826,
      "d": 75.2210333333278,
      "v": 103
    },
    {
      "midi": 53,
      "hit": false,
      "t": 49384.82076666649,
      "d": 48.672433333333174,
      "v": 102
    },
    {
      "midi": 36,
      "hit": false,
      "t": 49389.24553333315,
      "d": 75.22103333333507,
      "v": 103
    },
    {
      "midi": 60,
      "hit": false,
      "t": 49637.03246666649,
      "d": 75.2210333333278,
      "v": 103
    },
    {
      "midi": 53,
      "hit": false,
      "t": 49641.45723333315,
      "d": 66.3715000000011,
      "v": 106
    },
    {
      "midi": 57,
      "hit": false,
      "t": 49650.30676666649,
      "d": 30.973366666665243,
      "v": 100
    },
    {
      "midi": 60,
      "hit": false,
      "t": 49915.792766666484,
      "d": 79.64579999999114,
      "v": 102
    },
    {
      "midi": 53,
      "hit": false,
      "t": 49920.21753333315,
      "d": 44.24766666666255,
      "v": 104
    },
    {
      "midi": 41,
      "hit": false,
      "t": 49920.21753333315,
      "d": 53.09719999999652,
      "v": 96
    },
    {
      "midi": 57,
      "hit": false,
      "t": 49924.64229999981,
      "d": 48.672433333333174,
      "v": 103
    },
    {
      "midi": 60,
      "hit": false,
      "t": 50172.42923333314,
      "d": 70.79626666665717,
      "v": 103
    },
    {
      "midi": 53,
      "hit": false,
      "t": 50176.8539999998,
      "d": 57.521966666659864,
      "v": 105
    },
    {
      "midi": 57,
      "hit": false,
      "t": 50181.278766666466,
      "d": 30.973366666665243,
      "v": 99
    },
    {
      "midi": 36,
      "hit": false,
      "t": 50446.76476666646,
      "d": 110.61916666665638,
      "v": 102
    },
    {
      "midi": 53,
      "hit": false,
      "t": 50455.6142999998,
      "d": 57.521966666659864,
      "v": 103
    },
    {
      "midi": 57,
      "hit": false,
      "t": 50455.6142999998,
      "d": 61.94673333332321,
      "v": 100
    },
    {
      "midi": 60,
      "hit": false,
      "t": 50460.03906666646,
      "d": 70.79626666665717,
      "v": 101
    },
    {
      "midi": 60,
      "hit": false,
      "t": 50681.27739999979,
      "d": 88.4953333333251,
      "v": 93
    },
    {
      "midi": 41,
      "hit": false,
      "t": 50694.551699999785,
      "d": 48.672433333333174,
      "v": 100
    },
    {
      "midi": 53,
      "hit": false,
      "t": 50694.551699999785,
      "d": 53.09719999999652,
      "v": 95
    },
    {
      "midi": 57,
      "hit": false,
      "t": 50698.97646666645,
      "d": 44.24766666666983,
      "v": 96
    },
    {
      "midi": 55,
      "hit": false,
      "t": 50964.462466666446,
      "d": 79.64580000000569,
      "v": 100
    },
    {
      "midi": 48,
      "hit": false,
      "t": 50964.462466666446,
      "d": 88.49533333333238,
      "v": 106
    },
    {
      "midi": 63,
      "hit": false,
      "t": 50973.31199999978,
      "d": 75.22103333333507,
      "v": 87
    },
    {
      "midi": 60,
      "hit": false,
      "t": 50982.161533333114,
      "d": 35.39813333333586,
      "v": 80
    },
    {
      "midi": 63,
      "hit": false,
      "t": 51212.249399999775,
      "d": 106.19440000000031,
      "v": 90
    },
    {
      "midi": 55,
      "hit": false,
      "t": 51221.09893333311,
      "d": 75.22103333333507,
      "v": 94
    },
    {
      "midi": 60,
      "hit": false,
      "t": 51229.94846666644,
      "d": 48.672433333333174,
      "v": 83
    },
    {
      "midi": 63,
      "hit": false,
      "t": 51486.584933333106,
      "d": 97.34486666666635,
      "v": 93
    },
    {
      "midi": 55,
      "hit": false,
      "t": 51491.00969999977,
      "d": 75.22103333333507,
      "v": 103
    },
    {
      "midi": 60,
      "hit": false,
      "t": 51499.8592333331,
      "d": 35.39813333333586,
      "v": 95
    },
    {
      "midi": 43,
      "hit": false,
      "t": 51508.70876666644,
      "d": 44.24766666666983,
      "v": 92
    },
    {
      "midi": 63,
      "hit": false,
      "t": 51747.64616666644,
      "d": 88.49533333333238,
      "v": 91
    },
    {
      "midi": 55,
      "hit": false,
      "t": 51752.0709333331,
      "d": 75.22103333333507,
      "v": 102
    },
    {
      "midi": 60,
      "hit": false,
      "t": 51760.92046666644,
      "d": 35.39813333333586,
      "v": 91
    },
    {
      "midi": 63,
      "hit": false,
      "t": 52013.13216666644,
      "d": 97.34486666666635,
      "v": 94
    },
    {
      "midi": 55,
      "hit": false,
      "t": 52021.98169999977,
      "d": 70.79626666666445,
      "v": 104
    },
    {
      "midi": 60,
      "hit": false,
      "t": 52026.406466666434,
      "d": 48.672433333333174,
      "v": 96
    },
    {
      "midi": 48,
      "hit": false,
      "t": 52030.8312333331,
      "d": 79.64580000000569,
      "v": 104
    },
    {
      "midi": 63,
      "hit": false,
      "t": 52283.042933333105,
      "d": 92.92009999999573,
      "v": 95
    },
    {
      "midi": 55,
      "hit": false,
      "t": 52287.46769999977,
      "d": 66.3715000000011,
      "v": 108
    },
    {
      "midi": 60,
      "hit": false,
      "t": 52291.89246666643,
      "d": 35.39813333333586,
      "v": 96
    },
    {
      "midi": 43,
      "hit": false,
      "t": 52552.953699999765,
      "d": 106.19439999998576,
      "v": 97
    },
    {
      "midi": 63,
      "hit": false,
      "t": 52557.37846666643,
      "d": 97.34486666665907,
      "v": 94
    },
    {
      "midi": 55,
      "hit": false,
      "t": 52561.80323333309,
      "d": 70.79626666666445,
      "v": 101
    },
    {
      "midi": 60,
      "hit": false,
      "t": 52566.227999999755,
      "d": 35.39813333333586,
      "v": 92
    },
    {
      "midi": 63,
      "hit": false,
      "t": 52800.74063333309,
      "d": 97.34486666666635,
      "v": 86
    },
    {
      "midi": 55,
      "hit": false,
      "t": 52809.59016666642,
      "d": 84.07056666666904,
      "v": 100
    },
    {
      "midi": 48,
      "hit": false,
      "t": 52818.439699999755,
      "d": 79.64579999999842,
      "v": 104
    },
    {
      "midi": 55,
      "hit": false,
      "t": 53075.07616666642,
      "d": 79.64579999999114,
      "v": 109
    },
    {
      "midi": 43,
      "hit": false,
      "t": 53079.50093333308,
      "d": 106.19439999999304,
      "v": 111
    },
    {
      "midi": 62,
      "hit": false,
      "t": 53083.925699999745,
      "d": 39.82289999999921,
      "v": 101
    },
    {
      "midi": 58,
      "hit": false,
      "t": 53083.925699999745,
      "d": 70.79626666666445,
      "v": 95
    },
    {
      "midi": 55,
      "hit": false,
      "t": 53327.28786666641,
      "d": 88.49533333333238,
      "v": 98
    },
    {
      "midi": 62,
      "hit": false,
      "t": 53331.712633333074,
      "d": 57.52196666666714,
      "v": 94
    },
    {
      "midi": 58,
      "hit": false,
      "t": 53331.712633333074,
      "d": 84.07056666666904,
      "v": 92
    },
    {
      "midi": 38,
      "hit": false,
      "t": 53606.04816666641,
      "d": 97.34486666665907,
      "v": 98
    },
    {
      "midi": 55,
      "hit": false,
      "t": 53610.472933333076,
      "d": 79.64579999999842,
      "v": 108
    },
    {
      "midi": 62,
      "hit": false,
      "t": 53610.472933333076,
      "d": 79.64579999999842,
      "v": 100
    },
    {
      "midi": 58,
      "hit": false,
      "t": 53610.472933333076,
      "d": 84.07056666666176,
      "v": 99
    },
    {
      "midi": 55,
      "hit": false,
      "t": 53862.68463333307,
      "d": 79.64579999999114,
      "v": 101
    },
    {
      "midi": 62,
      "hit": false,
      "t": 53867.10939999973,
      "d": 75.2210333333278,
      "v": 97
    },
    {
      "midi": 58,
      "hit": false,
      "t": 53871.534166666395,
      "d": 57.52196666666714,
      "v": 83
    },
    {
      "midi": 55,
      "hit": false,
      "t": 54128.17063333306,
      "d": 92.92009999999573,
      "v": 103
    },
    {
      "midi": 58,
      "hit": false,
      "t": 54128.17063333306,
      "d": 106.19439999999304,
      "v": 89
    },
    {
      "midi": 62,
      "hit": false,
      "t": 54132.59539999972,
      "d": 97.34486666666635,
      "v": 95
    },
    {
      "midi": 43,
      "hit": false,
      "t": 54141.444933333056,
      "d": 75.22103333333507,
      "v": 109
    },
    {
      "midi": 70,
      "hit": false,
      "t": 54393.65663333305,
      "d": 57.521966666659864,
      "v": 82
    },
    {
      "midi": 43,
      "hit": false,
      "t": 54398.08139999971,
      "d": 84.07056666666176,
      "v": 108
    },
    {
      "midi": 82,
      "hit": false,
      "t": 54402.506166666375,
      "d": 61.946733333330485,
      "v": 110
    },
    {
      "midi": 69,
      "hit": false,
      "t": 54654.717866666375,
      "d": 35.39813333332859,
      "v": 108
    },
    {
      "midi": 42,
      "hit": false,
      "t": 54663.56739999971,
      "d": 75.22103333332052,
      "v": 92
    },
    {
      "midi": 81,
      "hit": false,
      "t": 54667.99216666637,
      "d": 48.6724333333259,
      "v": 93
    },
    {
      "midi": 79,
      "hit": false,
      "t": 54676.841699999706,
      "d": 35.39813333332859,
      "v": 91
    },
    {
      "midi": 67,
      "hit": false,
      "t": 54920.203866666365,
      "d": 61.94673333332321,
      "v": 106
    },
    {
      "midi": 79,
      "hit": false,
      "t": 54924.62863333303,
      "d": 61.94673333332321,
      "v": 106
    },
    {
      "midi": 40,
      "hit": false,
      "t": 54929.05339999969,
      "d": 75.2210333333278,
      "v": 99
    },
    {
      "midi": 66,
      "hit": false,
      "t": 55194.53939999969,
      "d": 2212.383333333324,
      "v": 109
    },
    {
      "midi": 78,
      "hit": false,
      "t": 55198.96416666635,
      "d": 2212.383333333324,
      "v": 116
    },
    {
      "midi": 38,
      "hit": false,
      "t": 55221.08799999968,
      "d": 482.2995666666684,
      "v": 84
    },
    {
      "midi": 40,
      "hit": false,
      "t": 55225.51276666635,
      "d": 150.44206666667014,
      "v": 94
    },
    {
      "midi": 62,
      "hit": false,
      "t": 55460.025399999686,
      "d": 84.07056666666904,
      "v": 91
    },
    {
      "midi": 54,
      "hit": false,
      "t": 55473.29969999968,
      "d": 35.39813333333586,
      "v": 74
    },
    {
      "midi": 57,
      "hit": false,
      "t": 55482.14923333302,
      "d": 35.39813333333586,
      "v": 81
    },
    {
      "midi": 54,
      "hit": false,
      "t": 55614.89223333302,
      "d": 141.5925333333289,
      "v": 82
    },
    {
      "midi": 62,
      "hit": false,
      "t": 55614.89223333302,
      "d": 207.96403333333,
      "v": 102
    },
    {
      "midi": 57,
      "hit": false,
      "t": 55623.74176666635,
      "d": 172.56589999999414,
      "v": 72
    },
    {
      "midi": 45,
      "hit": false,
      "t": 55769.759066666345,
      "d": 88.49533333333966,
      "v": 91
    },
    {
      "midi": 62,
      "hit": false,
      "t": 56008.696466666355,
      "d": 146.01729999999952,
      "v": 99
    },
    {
      "midi": 54,
      "hit": false,
      "t": 56013.12123333302,
      "d": 84.07056666666904,
      "v": 100
    },
    {
      "midi": 57,
      "hit": false,
      "t": 56021.97076666635,
      "d": 119.4687000000049,
      "v": 95
    },
    {
      "midi": 50,
      "hit": false,
      "t": 56287.45676666636,
      "d": 513.2729333333264,
      "v": 108
    },
    {
      "midi": 54,
      "hit": false,
      "t": 56526.39416666636,
      "d": 66.37149999999383,
      "v": 93
    },
    {
      "midi": 62,
      "hit": false,
      "t": 56526.39416666636,
      "d": 75.2210333333278,
      "v": 99
    },
    {
      "midi": 57,
      "hit": false,
      "t": 56548.51799999969,
      "d": 30.973366666665243,
      "v": 79
    },
    {
      "midi": 62,
      "hit": false,
      "t": 56663.56193333302,
      "d": 216.81356666666397,
      "v": 92
    },
    {
      "midi": 54,
      "hit": false,
      "t": 56667.98669999968,
      "d": 154.8668333333335,
      "v": 87
    },
    {
      "midi": 57,
      "hit": false,
      "t": 56676.836233333015,
      "d": 190.26496666666935,
      "v": 75
    },
    {
      "midi": 45,
      "hit": false,
      "t": 56756.48203333301,
      "d": 309.733666666667,
      "v": 100
    },
    {
      "midi": 54,
      "hit": false,
      "t": 57052.94139999968,
      "d": 92.92009999999573,
      "v": 98
    },
    {
      "midi": 50,
      "hit": false,
      "t": 57057.36616666635,
      "d": 106.19440000000031,
      "v": 101
    },
    {
      "midi": 62,
      "hit": false,
      "t": 57057.36616666635,
      "d": 154.8668333333335,
      "v": 98
    },
    {
      "midi": 57,
      "hit": false,
      "t": 57066.21569999968,
      "d": 88.49533333333238,
      "v": 90
    },
    {
      "midi": 43,
      "hit": false,
      "t": 57331.70169999968,
      "d": 305.30889999999636,
      "v": 108
    },
    {
      "midi": 55,
      "hit": false,
      "t": 57575.06386666634,
      "d": 30.973366666665243,
      "v": 98
    },
    {
      "midi": 62,
      "hit": false,
      "t": 57579.48863333301,
      "d": 35.39813333333586,
      "v": 83
    },
    {
      "midi": 58,
      "hit": false,
      "t": 57588.33816666634,
      "d": 30.973366666665243,
      "v": 74
    },
    {
      "midi": 62,
      "hit": false,
      "t": 57690.10779999967,
      "d": 97.34486666666635,
      "v": 89
    },
    {
      "midi": 58,
      "hit": false,
      "t": 57694.532566666334,
      "d": 92.920100000003,
      "v": 86
    },
    {
      "midi": 55,
      "hit": false,
      "t": 57703.38209999967,
      "d": 92.920100000003,
      "v": 91
    },
    {
      "midi": 38,
      "hit": false,
      "t": 57827.275566666336,
      "d": 539.8215333333137,
      "v": 96
    },
    {
      "midi": 55,
      "hit": false,
      "t": 58110.460633333,
      "d": 17.699066666660656,
      "v": 106
    },
    {
      "midi": 62,
      "hit": false,
      "t": 58110.460633333,
      "d": 17.699066666660656,
      "v": 105
    },
    {
      "midi": 58,
      "hit": false,
      "t": 58123.734933333,
      "d": 30.973366666665243,
      "v": 68
    },
    {
      "midi": 62,
      "hit": false,
      "t": 58234.35409999966,
      "d": 163.7163666666529,
      "v": 93
    },
    {
      "midi": 55,
      "hit": false,
      "t": 58238.778866666325,
      "d": 128.31823333332432,
      "v": 92
    },
    {
      "midi": 58,
      "hit": false,
      "t": 58243.20363333299,
      "d": 119.46869999999763,
      "v": 87
    },
    {
      "midi": 43,
      "hit": false,
      "t": 58384.79616666632,
      "d": 429.20236666665005,
      "v": 104
    },
    {
      "midi": 62,
      "hit": false,
      "t": 58610.459266666316,
      "d": 61.946733333330485,
      "v": 96
    },
    {
      "midi": 55,
      "hit": false,
      "t": 58614.88403333298,
      "d": 30.973366666665243,
      "v": 98
    },
    {
      "midi": 58,
      "hit": false,
      "t": 58623.73356666631,
      "d": 30.973366666665243,
      "v": 73
    },
    {
      "midi": 55,
      "hit": false,
      "t": 58752.051799999645,
      "d": 141.59253333332163,
      "v": 87
    },
    {
      "midi": 62,
      "hit": false,
      "t": 58756.47656666631,
      "d": 137.16776666665828,
      "v": 89
    },
    {
      "midi": 58,
      "hit": false,
      "t": 58760.90133333297,
      "d": 150.44206666666287,
      "v": 93
    },
    {
      "midi": 38,
      "hit": false,
      "t": 58853.82143333297,
      "d": 296.4593666666624,
      "v": 96
    },
    {
      "midi": 43,
      "hit": false,
      "t": 59132.58173333297,
      "d": 92.92009999998845,
      "v": 103
    },
    {
      "midi": 62,
      "hit": false,
      "t": 59132.58173333297,
      "d": 97.3448666666518,
      "v": 95
    },
    {
      "midi": 58,
      "hit": false,
      "t": 59137.00649999963,
      "d": 84.07056666666176,
      "v": 90
    },
    {
      "midi": 55,
      "hit": false,
      "t": 59141.431266666295,
      "d": 66.3715000000011,
      "v": 95
    },
    {
      "midi": 48,
      "hit": false,
      "t": 59424.61633333295,
      "d": 424.77759999997215,
      "v": 106
    },
    {
      "midi": 55,
      "hit": false,
      "t": 59437.89063333295,
      "d": 57.52196666666714,
      "v": 63
    },
    {
      "midi": 55,
      "hit": false,
      "t": 59681.25279999962,
      "d": 75.22103333332052,
      "v": 92
    },
    {
      "midi": 63,
      "hit": false,
      "t": 59685.67756666628,
      "d": 92.92009999998845,
      "v": 83
    },
    {
      "midi": 60,
      "hit": false,
      "t": 59690.10233333294,
      "d": 61.946733333330485,
      "v": 86
    },
    {
      "midi": 63,
      "hit": false,
      "t": 59831.694866666265,
      "d": 172.56589999999414,
      "v": 78
    },
    {
      "midi": 60,
      "hit": false,
      "t": 59836.11963333293,
      "d": 128.3182333333316,
      "v": 80
    },
    {
      "midi": 55,
      "hit": false,
      "t": 59836.11963333293,
      "d": 132.74299999999494,
      "v": 96
    },
    {
      "midi": 43,
      "hit": false,
      "t": 59933.464499999594,
      "d": 548.6710666666477,
      "v": 101
    },
    {
      "midi": 63,
      "hit": false,
      "t": 60207.800033332926,
      "d": 84.07056666665449,
      "v": 90
    },
    {
      "midi": 55,
      "hit": false,
      "t": 60221.07433333292,
      "d": 35.39813333332859,
      "v": 89
    },
    {
      "midi": 60,
      "hit": false,
      "t": 60225.499099999586,
      "d": 35.39813333332859,
      "v": 77
    },
    {
      "midi": 63,
      "hit": false,
      "t": 60353.81733333291,
      "d": 163.71636666666018,
      "v": 81
    },
    {
      "midi": 55,
      "hit": false,
      "t": 60358.242099999574,
      "d": 132.7430000000022,
      "v": 91
    },
    {
      "midi": 60,
      "hit": false,
      "t": 60367.09163333291,
      "d": 115.04393333333428,
      "v": 85
    },
    {
      "midi": 48,
      "hit": false,
      "t": 60495.40986666624,
      "d": 455.7509666666592,
      "v": 103
    },
    {
      "midi": 63,
      "hit": false,
      "t": 60756.47109999957,
      "d": 75.2210333333278,
      "v": 87
    },
    {
      "midi": 55,
      "hit": false,
      "t": 60765.32063333291,
      "d": 39.82289999999193,
      "v": 92
    },
    {
      "midi": 60,
      "hit": false,
      "t": 60769.74539999957,
      "d": 30.973366666665243,
      "v": 82
    },
    {
      "midi": 55,
      "hit": false,
      "t": 60893.63886666623,
      "d": 172.56589999999414,
      "v": 95
    },
    {
      "midi": 63,
      "hit": false,
      "t": 60893.63886666623,
      "d": 203.5392666666594,
      "v": 86
    },
    {
      "midi": 60,
      "hit": false,
      "t": 60902.488399999565,
      "d": 150.44206666666287,
      "v": 81
    },
    {
      "midi": 43,
      "hit": false,
      "t": 61013.10756666623,
      "d": 269.9107666666605,
      "v": 99
    },
    {
      "midi": 48,
      "hit": false,
      "t": 61287.44309999955,
      "d": 97.34486666665907,
      "v": 103
    },
    {
      "midi": 63,
      "hit": false,
      "t": 61287.44309999955,
      "d": 132.74299999999494,
      "v": 95
    },
    {
      "midi": 55,
      "hit": false,
      "t": 61291.867866666216,
      "d": 75.2210333333278,
      "v": 102
    },
    {
      "midi": 60,
      "hit": false,
      "t": 61300.71739999955,
      "d": 53.09719999999652,
      "v": 91
    },
    {
      "midi": 50,
      "hit": false,
      "t": 61561.778633332884,
      "d": 561.9453666666595,
      "v": 112
    },
    {
      "midi": 54,
      "hit": false,
      "t": 61827.26463333288,
      "d": 70.79626666666445,
      "v": 90
    },
    {
      "midi": 62,
      "hit": false,
      "t": 61831.689399999545,
      "d": 75.22103333333507,
      "v": 91
    },
    {
      "midi": 57,
      "hit": false,
      "t": 61840.53893333288,
      "d": 39.82289999999921,
      "v": 85
    },
    {
      "midi": 54,
      "hit": false,
      "t": 61968.85716666621,
      "d": 176.99066666666477,
      "v": 90
    },
    {
      "midi": 62,
      "hit": false,
      "t": 61973.28193333287,
      "d": 207.96403333333728,
      "v": 96
    },
    {
      "midi": 57,
      "hit": false,
      "t": 61973.28193333287,
      "d": 212.38880000000063,
      "v": 84
    },
    {
      "midi": 45,
      "hit": false,
      "t": 62079.476333332874,
      "d": 539.8215333333283,
      "v": 102
    },
    {
      "midi": 54,
      "hit": false,
      "t": 62367.08616666621,
      "d": 70.79626666666445,
      "v": 89
    },
    {
      "midi": 62,
      "hit": false,
      "t": 62371.51093333287,
      "d": 44.24766666666983,
      "v": 90
    },
    {
      "midi": 57,
      "hit": false,
      "t": 62371.51093333287,
      "d": 48.672433333333174,
      "v": 86
    },
    {
      "midi": 54,
      "hit": false,
      "t": 62495.40439999954,
      "d": 176.9906666666575,
      "v": 76
    },
    {
      "midi": 62,
      "hit": false,
      "t": 62504.253933332875,
      "d": 203.5392666666594,
      "v": 99
    },
    {
      "midi": 57,
      "hit": false,
      "t": 62508.67869999954,
      "d": 207.96403333333,
      "v": 92
    },
    {
      "midi": 50,
      "hit": false,
      "t": 62632.5721666662,
      "d": 473.4500333333199,
      "v": 112
    },
    {
      "midi": 54,
      "hit": false,
      "t": 62902.48293333287,
      "d": 79.64579999999842,
      "v": 85
    },
    {
      "midi": 57,
      "hit": false,
      "t": 62906.90769999953,
      "d": 48.672433333333174,
      "v": 79
    },
    {
      "midi": 62,
      "hit": false,
      "t": 62906.90769999953,
      "d": 48.672433333333174,
      "v": 86
    },
    {
      "midi": 54,
      "hit": false,
      "t": 63035.22593333286,
      "d": 243.36216666665132,
      "v": 77
    },
    {
      "midi": 62,
      "hit": false,
      "t": 63039.650699999525,
      "d": 269.9107666666532,
      "v": 98
    },
    {
      "midi": 57,
      "hit": false,
      "t": 63044.07546666619,
      "d": 287.60983333332115,
      "v": 87
    },
    {
      "midi": 45,
      "hit": false,
      "t": 63167.96893333285,
      "d": 283.1850666666505,
      "v": 105
    },
    {
      "midi": 54,
      "hit": false,
      "t": 63437.87969999951,
      "d": 106.19439999999304,
      "v": 98
    },
    {
      "midi": 62,
      "hit": false,
      "t": 63437.87969999951,
      "d": 137.167766666651,
      "v": 98
    },
    {
      "midi": 50,
      "hit": false,
      "t": 63442.30446666617,
      "d": 106.19439999999304,
      "v": 104
    },
    {
      "midi": 57,
      "hit": false,
      "t": 63446.72923333284,
      "d": 115.043933333327,
      "v": 83
    },
    {
      "midi": 51,
      "hit": false,
      "t": 63716.6399999995,
      "d": 420.35283333333064,
      "v": 113
    },
    {
      "midi": 63,
      "hit": false,
      "t": 63756.4628999995,
      "d": 39.82289999999921,
      "v": 62
    },
    {
      "midi": 63,
      "hit": false,
      "t": 63955.57739999949,
      "d": 438.05190000000584,
      "v": 94
    },
    {
      "midi": 54,
      "hit": false,
      "t": 63964.42693333283,
      "d": 57.52196666666714,
      "v": 92
    },
    {
      "midi": 57,
      "hit": false,
      "t": 63973.27646666616,
      "d": 35.39813333333586,
      "v": 91
    },
    {
      "midi": 54,
      "hit": false,
      "t": 64097.16993333283,
      "d": 247.7869333333365,
      "v": 90
    },
    {
      "midi": 57,
      "hit": false,
      "t": 64101.59469999949,
      "d": 274.3355333333384,
      "v": 91
    },
    {
      "midi": 51,
      "hit": false,
      "t": 64260.886299999496,
      "d": 336.2822666666689,
      "v": 97
    },
    {
      "midi": 63,
      "hit": false,
      "t": 64508.67323333283,
      "d": 415.9280666666673,
      "v": 103
    },
    {
      "midi": 54,
      "hit": false,
      "t": 64517.52276666617,
      "d": 358.40610000000015,
      "v": 106
    },
    {
      "midi": 57,
      "hit": false,
      "t": 64517.52276666617,
      "d": 415.9280666666673,
      "v": 102
    },
    {
      "midi": 51,
      "hit": false,
      "t": 64783.008766666164,
      "d": 398.2289999999921,
      "v": 92
    },
    {
      "midi": 54,
      "hit": false,
      "t": 65039.645233332834,
      "d": 44.24766666666255,
      "v": 85
    },
    {
      "midi": 63,
      "hit": false,
      "t": 65039.645233332834,
      "d": 75.2210333333278,
      "v": 83
    },
    {
      "midi": 57,
      "hit": false,
      "t": 65052.91953333283,
      "d": 35.39813333332859,
      "v": 77
    },
    {
      "midi": 54,
      "hit": false,
      "t": 65154.68916666616,
      "d": 269.9107666666605,
      "v": 90
    },
    {
      "midi": 63,
      "hit": false,
      "t": 65159.113933332825,
      "d": 300.884133333333,
      "v": 79
    },
    {
      "midi": 57,
      "hit": false,
      "t": 65163.53869999949,
      "d": 309.733666666667,
      "v": 95
    },
    {
      "midi": 51,
      "hit": false,
      "t": 65309.55599999949,
      "d": 243.36216666667315,
      "v": 100
    },
    {
      "midi": 63,
      "hit": false,
      "t": 65557.34293333282,
      "d": 199.1144999999815,
      "v": 95
    },
    {
      "midi": 54,
      "hit": false,
      "t": 65566.19246666615,
      "d": 110.61916666665638,
      "v": 104
    },
    {
      "midi": 57,
      "hit": false,
      "t": 65570.61723333281,
      "d": 123.89346666666097,
      "v": 90
    },
    {
      "midi": 43,
      "hit": false,
      "t": 65836.1032333328,
      "d": 362.8308666666562,
      "v": 101
    },
    {
      "midi": 41,
      "hit": false,
      "t": 65849.37753333281,
      "d": 30.97336666667252,
      "v": 96
    },
    {
      "midi": 62,
      "hit": false,
      "t": 66079.46539999948,
      "d": 75.22103333332052,
      "v": 96
    },
    {
      "midi": 55,
      "hit": false,
      "t": 66083.89016666614,
      "d": 70.79626666665717,
      "v": 103
    },
    {
      "midi": 58,
      "hit": false,
      "t": 66088.3149333328,
      "d": 44.24766666666255,
      "v": 87
    },
    {
      "midi": 55,
      "hit": false,
      "t": 66229.90746666613,
      "d": 119.46869999999763,
      "v": 97
    },
    {
      "midi": 58,
      "hit": false,
      "t": 66229.90746666613,
      "d": 128.31823333332432,
      "v": 86
    },
    {
      "midi": 62,
      "hit": false,
      "t": 66229.90746666613,
      "d": 141.5925333333289,
      "v": 98
    },
    {
      "midi": 38,
      "hit": false,
      "t": 66358.22569999946,
      "d": 327.4327333333349,
      "v": 97
    },
    {
      "midi": 62,
      "hit": false,
      "t": 66606.0126333328,
      "d": 376.10516666667536,
      "v": 112
    },
    {
      "midi": 58,
      "hit": false,
      "t": 66606.0126333328,
      "d": 393.8042333333433,
      "v": 105
    },
    {
      "midi": 55,
      "hit": false,
      "t": 66610.43739999946,
      "d": 371.680400000012,
      "v": 112
    },
    {
      "midi": 43,
      "hit": false,
      "t": 66889.19769999947,
      "d": 473.45003333332716,
      "v": 113
    },
    {
      "midi": 70,
      "hit": false,
      "t": 67132.55986666614,
      "d": 66.37149999999383,
      "v": 77
    },
    {
      "midi": 82,
      "hit": false,
      "t": 67141.40939999947,
      "d": 92.920100000003,
      "v": 106
    },
    {
      "midi": 55,
      "hit": false,
      "t": 67141.40939999947,
      "d": 216.81356666666397,
      "v": 105
    },
    {
      "midi": 58,
      "hit": false,
      "t": 67145.83416666613,
      "d": 225.66309999999066,
      "v": 93
    },
    {
      "midi": 62,
      "hit": false,
      "t": 67145.83416666613,
      "d": 252.21169999998529,
      "v": 99
    },
    {
      "midi": 69,
      "hit": false,
      "t": 67415.74493333278,
      "d": 57.52196666666714,
      "v": 105
    },
    {
      "midi": 81,
      "hit": false,
      "t": 67415.74493333278,
      "d": 61.946733333330485,
      "v": 111
    },
    {
      "midi": 42,
      "hit": false,
      "t": 67415.74493333278,
      "d": 110.61916666667094,
      "v": 108
    },
    {
      "midi": 67,
      "hit": false,
      "t": 67663.53186666612,
      "d": 48.6724333333259,
      "v": 106
    },
    {
      "midi": 79,
      "hit": false,
      "t": 67663.53186666612,
      "d": 57.52196666665259,
      "v": 109
    },
    {
      "midi": 40,
      "hit": false,
      "t": 67672.38139999945,
      "d": 88.4953333333251,
      "v": 111
    },
    {
      "midi": 62,
      "hit": false,
      "t": 67725.47859999943,
      "d": 314.1584333333449,
      "v": 47
    },
    {
      "midi": 66,
      "hit": false,
      "t": 67946.71693333278,
      "d": 2123.887999999977,
      "v": 110
    },
    {
      "midi": 78,
      "hit": false,
      "t": 67946.71693333278,
      "d": 2154.8613666666497,
      "v": 117
    },
    {
      "midi": 38,
      "hit": false,
      "t": 67951.14169999944,
      "d": 530.9720000000088,
      "v": 116
    },
    {
      "midi": 54,
      "hit": false,
      "t": 68207.77816666612,
      "d": 70.79626666667173,
      "v": 85
    },
    {
      "midi": 62,
      "hit": false,
      "t": 68207.77816666612,
      "d": 84.07056666667631,
      "v": 84
    },
    {
      "midi": 57,
      "hit": false,
      "t": 68221.05246666612,
      "d": 48.67243333334045,
      "v": 81
    },
    {
      "midi": 54,
      "hit": false,
      "t": 68367.06976666613,
      "d": 146.01729999999225,
      "v": 79
    },
    {
      "midi": 62,
      "hit": false,
      "t": 68371.49453333279,
      "d": 168.14113333332352,
      "v": 91
    },
    {
      "midi": 57,
      "hit": false,
      "t": 68380.34406666612,
      "d": 159.29159999999683,
      "v": 82
    },
    {
      "midi": 45,
      "hit": false,
      "t": 68495.38799999945,
      "d": 513.2729333333264,
      "v": 103
    },
    {
      "midi": 54,
      "hit": false,
      "t": 68760.87399999944,
      "d": 367.2556333333341,
      "v": 100
    },
    {
      "midi": 62,
      "hit": false,
      "t": 68760.87399999944,
      "d": 389.3794666666654,
      "v": 106
    },
    {
      "midi": 57,
      "hit": false,
      "t": 68765.2987666661,
      "d": 371.68039999999746,
      "v": 97
    },
    {
      "midi": 50,
      "hit": false,
      "t": 69026.35999999945,
      "d": 544.2462999999843,
      "v": 106
    },
    {
      "midi": 54,
      "hit": false,
      "t": 69269.7221666661,
      "d": 70.79626666667173,
      "v": 81
    },
    {
      "midi": 62,
      "hit": false,
      "t": 69269.7221666661,
      "d": 75.22103333333507,
      "v": 75
    },
    {
      "midi": 57,
      "hit": false,
      "t": 69282.99646666611,
      "d": 44.24766666666255,
      "v": 83
    },
    {
      "midi": 54,
      "hit": false,
      "t": 69424.58899999944,
      "d": 181.4154333333281,
      "v": 86
    },
    {
      "midi": 62,
      "hit": false,
      "t": 69424.58899999944,
      "d": 203.5392666666594,
      "v": 89
    },
    {
      "midi": 57,
      "hit": false,
      "t": 69429.0137666661,
      "d": 212.38880000000063,
      "v": 85
    },
    {
      "midi": 45,
      "hit": false,
      "t": 69535.2081666661,
      "d": 261.0612333333265,
      "v": 103
    },
    {
      "midi": 54,
      "hit": false,
      "t": 69782.99509999943,
      "d": 97.3448666666518,
      "v": 97
    },
    {
      "midi": 62,
      "hit": false,
      "t": 69782.99509999943,
      "d": 150.4420666666556,
      "v": 96
    },
    {
      "midi": 57,
      "hit": false,
      "t": 69787.4198666661,
      "d": 92.92009999998845,
      "v": 90
    },
    {
      "midi": 50,
      "hit": false,
      "t": 69791.84463333276,
      "d": 92.92009999998845,
      "v": 105
    },
    {
      "midi": 43,
      "hit": false,
      "t": 70070.60493333275,
      "d": 353.98133333332953,
      "v": 114
    },
    {
      "midi": 55,
      "hit": false,
      "t": 70313.96709999943,
      "d": 70.79626666665717,
      "v": 99
    },
    {
      "midi": 62,
      "hit": false,
      "t": 70318.39186666609,
      "d": 39.82289999999921,
      "v": 87
    },
    {
      "midi": 58,
      "hit": false,
      "t": 70327.24139999942,
      "d": 35.39813333333586,
      "v": 77
    },
    {
      "midi": 55,
      "hit": false,
      "t": 70473.25869999942,
      "d": 92.92009999998845,
      "v": 103
    },
    {
      "midi": 58,
      "hit": false,
      "t": 70482.10823333275,
      "d": 75.22103333333507,
      "v": 85
    },
    {
      "midi": 62,
      "hit": false,
      "t": 70482.10823333275,
      "d": 88.4953333333251,
      "v": 92
    },
    {
      "midi": 38,
      "hit": false,
      "t": 70588.30263333274,
      "d": 469.02526666664926,
      "v": 105
    },
    {
      "midi": 55,
      "hit": false,
      "t": 70862.63816666607,
      "d": 66.37149999999383,
      "v": 108
    },
    {
      "midi": 62,
      "hit": false,
      "t": 70862.63816666607,
      "d": 70.79626666665717,
      "v": 108
    },
    {
      "midi": 58,
      "hit": false,
      "t": 70871.4876999994,
      "d": 30.97336666667252,
      "v": 87
    },
    {
      "midi": 43,
      "hit": false,
      "t": 71132.54893333273,
      "d": 442.47666666665464,
      "v": 112
    },
    {
      "midi": 55,
      "hit": false,
      "t": 71198.92043333272,
      "d": 30.97336666667252,
      "v": 50
    },
    {
      "midi": 55,
      "hit": false,
      "t": 71393.61016666605,
      "d": 30.973366666657967,
      "v": 103
    },
    {
      "midi": 62,
      "hit": false,
      "t": 71393.61016666605,
      "d": 39.82289999998466,
      "v": 100
    },
    {
      "midi": 58,
      "hit": false,
      "t": 71398.03493333272,
      "d": 35.39813333332131,
      "v": 89
    },
    {
      "midi": 55,
      "hit": false,
      "t": 71530.7779333327,
      "d": 146.01730000002135,
      "v": 104
    },
    {
      "midi": 62,
      "hit": false,
      "t": 71530.7779333327,
      "d": 181.41543333334266,
      "v": 98
    },
    {
      "midi": 58,
      "hit": false,
      "t": 71544.05223333271,
      "d": 141.59253333334345,
      "v": 96
    },
    {
      "midi": 38,
      "hit": false,
      "t": 71645.82186666605,
      "d": 261.0612333333265,
      "v": 100
    },
    {
      "midi": 43,
      "hit": false,
      "t": 71898.03356666605,
      "d": 88.49533333331055,
      "v": 108
    },
    {
      "midi": 62,
      "hit": false,
      "t": 71911.30786666604,
      "d": 106.19439999997849,
      "v": 101
    },
    {
      "midi": 55,
      "hit": false,
      "t": 71915.73263333271,
      "d": 79.64579999998386,
      "v": 109
    },
    {
      "midi": 58,
      "hit": false,
      "t": 71924.58216666603,
      "d": 75.22103333332052,
      "v": 94
    },
    {
      "midi": 48,
      "hit": false,
      "t": 72190.06816666602,
      "d": 407.0785333333042,
      "v": 112
    },
    {
      "midi": 55,
      "hit": false,
      "t": 72243.16536666603,
      "d": 53.097200000003795,
      "v": 36
    },
    {
      "midi": 55,
      "hit": false,
      "t": 72437.85509999936,
      "d": 79.64579999998386,
      "v": 102
    },
    {
      "midi": 63,
      "hit": false,
      "t": 72446.70463333269,
      "d": 79.64579999998386,
      "v": 85
    },
    {
      "midi": 60,
      "hit": false,
      "t": 72451.12939999935,
      "d": 57.52196666666714,
      "v": 82
    },
    {
      "midi": 60,
      "hit": false,
      "t": 72588.297166666,
      "d": 172.56590000000142,
      "v": 90
    },
    {
      "midi": 63,
      "hit": false,
      "t": 72588.297166666,
      "d": 207.96403333333728,
      "v": 81
    },
    {
      "midi": 55,
      "hit": false,
      "t": 72592.72193333266,
      "d": 154.8668333333335,
      "v": 98
    },
    {
      "midi": 43,
      "hit": false,
      "t": 72725.46493333267,
      "d": 522.1224666666676,
      "v": 98
    },
    {
      "midi": 63,
      "hit": false,
      "t": 72990.95093333267,
      "d": 75.22103333333507,
      "v": 92
    },
    {
      "midi": 55,
      "hit": false,
      "t": 72995.37569999933,
      "d": 53.097200000003795,
      "v": 100
    },
    {
      "midi": 60,
      "hit": false,
      "t": 72999.800466666,
      "d": 30.97336666667252,
      "v": 92
    },
    {
      "midi": 55,
      "hit": false,
      "t": 73128.11869999934,
      "d": 128.31823333332432,
      "v": 98
    },
    {
      "midi": 63,
      "hit": false,
      "t": 73128.11869999934,
      "d": 159.29159999998228,
      "v": 83
    },
    {
      "midi": 60,
      "hit": false,
      "t": 73136.96823333266,
      "d": 110.61916666667094,
      "v": 84
    },
    {
      "midi": 48,
      "hit": false,
      "t": 73265.28646666599,
      "d": 433.62713333332795,
      "v": 108
    },
    {
      "midi": 55,
      "hit": false,
      "t": 73513.07339999932,
      "d": 57.52196666666714,
      "v": 100
    },
    {
      "midi": 63,
      "hit": false,
      "t": 73513.07339999932,
      "d": 70.79626666667173,
      "v": 86
    },
    {
      "midi": 60,
      "hit": false,
      "t": 73517.49816666599,
      "d": 35.39813333333586,
      "v": 91
    },
    {
      "midi": 55,
      "hit": false,
      "t": 73650.24116666599,
      "d": 176.99066666666477,
      "v": 99
    },
    {
      "midi": 63,
      "hit": false,
      "t": 73650.24116666599,
      "d": 212.38880000000063,
      "v": 72
    },
    {
      "midi": 60,
      "hit": false,
      "t": 73659.09069999932,
      "d": 172.56590000000142,
      "v": 85
    },
    {
      "midi": 43,
      "hit": false,
      "t": 73778.55939999931,
      "d": 283.18506666667236,
      "v": 96
    },
    {
      "midi": 55,
      "hit": false,
      "t": 74039.62063333266,
      "d": 84.07056666666176,
      "v": 106
    },
    {
      "midi": 63,
      "hit": false,
      "t": 74039.62063333266,
      "d": 141.5925333333289,
      "v": 93
    },
    {
      "midi": 60,
      "hit": false,
      "t": 74044.04539999932,
      "d": 79.64579999999842,
      "v": 96
    },
    {
      "midi": 48,
      "hit": false,
      "t": 74066.16923333265,
      "d": 88.49533333333966,
      "v": 106
    },
    {
      "midi": 50,
      "hit": false,
      "t": 74309.53139999932,
      "d": 455.7509666666592,
      "v": 114
    },
    {
      "midi": 54,
      "hit": false,
      "t": 74557.31833333266,
      "d": 66.37149999999383,
      "v": 90
    },
    {
      "midi": 62,
      "hit": false,
      "t": 74561.74309999932,
      "d": 88.4953333333251,
      "v": 91
    },
    {
      "midi": 57,
      "hit": false,
      "t": 74570.59263333265,
      "d": 411.50329999999667,
      "v": 91
    },
    {
      "midi": 54,
      "hit": false,
      "t": 74707.76039999932,
      "d": 247.7869333333365,
      "v": 89
    },
    {
      "midi": 62,
      "hit": false,
      "t": 74712.18516666598,
      "d": 269.91076666666777,
      "v": 87
    },
    {
      "midi": 45,
      "hit": false,
      "t": 74840.50339999932,
      "d": 526.5472333333018,
      "v": 103
    },
    {
      "midi": 54,
      "hit": false,
      "t": 75114.83893333265,
      "d": 57.52196666665259,
      "v": 86
    },
    {
      "midi": 62,
      "hit": false,
      "t": 75119.26369999931,
      "d": 79.64579999998386,
      "v": 92
    },
    {
      "midi": 57,
      "hit": false,
      "t": 75123.68846666598,
      "d": 44.24766666666255,
      "v": 90
    },
    {
      "midi": 54,
      "hit": false,
      "t": 75243.15716666596,
      "d": 185.840200000006,
      "v": 78
    },
    {
      "midi": 62,
      "hit": false,
      "t": 75247.58193333262,
      "d": 234.51263333334646,
      "v": 85
    },
    {
      "midi": 57,
      "hit": false,
      "t": 75256.43146666595,
      "d": 230.0878666666831,
      "v": 95
    },
    {
      "midi": 50,
      "hit": false,
      "t": 75380.32493333262,
      "d": 429.2023666666646,
      "v": 109
    },
    {
      "midi": 54,
      "hit": false,
      "t": 75636.9613999993,
      "d": 84.07056666666176,
      "v": 92
    },
    {
      "midi": 62,
      "hit": false,
      "t": 75641.38616666596,
      "d": 92.920100000003,
      "v": 92
    },
    {
      "midi": 57,
      "hit": false,
      "t": 75645.81093333263,
      "d": 88.49533333333966,
      "v": 87
    },
    {
      "midi": 54,
      "hit": false,
      "t": 75778.55393333263,
      "d": 203.5392666666594,
      "v": 65
    },
    {
      "midi": 62,
      "hit": false,
      "t": 75787.40346666596,
      "d": 247.7869333333365,
      "v": 83
    },
    {
      "midi": 57,
      "hit": false,
      "t": 75796.25299999928,
      "d": 238.9374000000098,
      "v": 81
    },
    {
      "midi": 45,
      "hit": false,
      "t": 75884.74833333262,
      "d": 309.733666666667,
      "v": 104
    },
    {
      "midi": 54,
      "hit": false,
      "t": 76167.9333999993,
      "d": 88.4953333333251,
      "v": 96
    },
    {
      "midi": 62,
      "hit": false,
      "t": 76172.35816666596,
      "d": 106.19439999999304,
      "v": 97
    },
    {
      "midi": 50,
      "hit": false,
      "t": 76176.78293333262,
      "d": 92.920100000003,
      "v": 104
    },
    {
      "midi": 57,
      "hit": false,
      "t": 76176.78293333262,
      "d": 97.34486666666635,
      "v": 94
    },
    {
      "midi": 51,
      "hit": false,
      "t": 76442.26893333261,
      "d": 411.5032999999821,
      "v": 112
    },
    {
      "midi": 63,
      "hit": false,
      "t": 76464.39276666594,
      "d": 75.22103333333507,
      "v": 58
    },
    {
      "midi": 63,
      "hit": false,
      "t": 76681.20633333261,
      "d": 92.92009999998845,
      "v": 95
    },
    {
      "midi": 54,
      "hit": false,
      "t": 76690.05586666593,
      "d": 57.52196666666714,
      "v": 90
    },
    {
      "midi": 57,
      "hit": false,
      "t": 76698.90539999926,
      "d": 48.67243333334045,
      "v": 92
    },
    {
      "midi": 54,
      "hit": false,
      "t": 76818.37409999926,
      "d": 238.9374000000098,
      "v": 96
    },
    {
      "midi": 63,
      "hit": false,
      "t": 76818.37409999926,
      "d": 287.6098333333357,
      "v": 86
    },
    {
      "midi": 57,
      "hit": false,
      "t": 76831.64839999926,
      "d": 265.4860000000044,
      "v": 105
    },
    {
      "midi": 51,
      "hit": false,
      "t": 76968.81616666593,
      "d": 305.3088999999891,
      "v": 90
    },
    {
      "midi": 63,
      "hit": false,
      "t": 77216.60309999927,
      "d": 526.547233333331,
      "v": 106
    },
    {
      "midi": 54,
      "hit": false,
      "t": 77225.45263333259,
      "d": 407.0785333333333,
      "v": 112
    },
    {
      "midi": 57,
      "hit": false,
      "t": 77234.30216666592,
      "d": 477.87480000000505,
      "v": 106
    },
    {
      "midi": 51,
      "hit": false,
      "t": 77517.48723333259,
      "d": 637.1664000000164,
      "v": 97
    },
    {
      "midi": 54,
      "hit": false,
      "t": 77769.69893333259,
      "d": 146.0173000000068,
      "v": 103
    },
    {
      "midi": 63,
      "hit": false,
      "t": 78044.03446666594,
      "d": 340.7070333333395,
      "v": 108
    },
    {
      "midi": 54,
      "hit": false,
      "t": 78048.4592333326,
      "d": 283.18506666667236,
      "v": 115
    },
    {
      "midi": 57,
      "hit": false,
      "t": 78061.7335333326,
      "d": 256.6364666666632,
      "v": 108
    },
    {
      "midi": 66,
      "hit": false,
      "t": 78495.36066666595,
      "d": 30.97336666667252,
      "v": 57
    },
    {
      "midi": 46,
      "hit": false,
      "t": 78597.13029999929,
      "d": 676.989299999972,
      "v": 109
    },
    {
      "midi": 65,
      "hit": false,
      "t": 78601.55506666595,
      "d": 371.68039999999746,
      "v": 103
    },
    {
      "midi": 58,
      "hit": false,
      "t": 78605.97983333262,
      "d": 159.29159999999683,
      "v": 93
    },
    {
      "midi": 61,
      "hit": false,
      "t": 78610.40459999928,
      "d": 336.28226666667615,
      "v": 104
    },
    {
      "midi": 58,
      "hit": false,
      "t": 78898.01443333262,
      "d": 278.76029999999446,
      "v": 84
    },
    {
      "midi": 65,
      "hit": false,
      "t": 79039.60696666595,
      "d": 146.01729999999225,
      "v": 84
    },
    {
      "midi": 61,
      "hit": false,
      "t": 79066.15556666594,
      "d": 181.4154333333281,
      "v": 95
    },
    {
      "midi": 65,
      "hit": false,
      "t": 79393.58829999926,
      "d": 575.2196666666714,
      "v": 118
    },
    {
      "midi": 58,
      "hit": false,
      "t": 79398.01306666592,
      "d": 402.65376666667,
      "v": 106
    },
    {
      "midi": 46,
      "hit": false,
      "t": 79398.01306666592,
      "d": 1146.014566666665,
      "v": 112
    },
    {
      "midi": 61,
      "hit": false,
      "t": 79402.43783333259,
      "d": 601.7682666666806,
      "v": 109
    },
    {
      "midi": 58,
      "hit": false,
      "t": 79928.98506666593,
      "d": 154.8668333333335,
      "v": 87
    },
    {
      "midi": 58,
      "hit": false,
      "t": 80176.77199999927,
      "d": 247.78693333332194,
      "v": 96
    },
    {
      "midi": 65,
      "hit": false,
      "t": 80181.19676666593,
      "d": 323.007966666657,
      "v": 111
    },
    {
      "midi": 61,
      "hit": false,
      "t": 80190.04629999926,
      "d": 292.03459999999905,
      "v": 101
    },
    {
      "midi": 61,
      "hit": false,
      "t": 80681.19539999925,
      "d": 92.920100000003,
      "v": 100
    },
    {
      "midi": 62,
      "hit": false,
      "t": 80778.54026666592,
      "d": 159.29160000001139,
      "v": 91
    },
    {
      "midi": 64,
      "hit": false,
      "t": 80906.85849999926,
      "d": 137.1677666666801,
      "v": 84
    },
    {
      "midi": 66,
      "hit": false,
      "t": 81026.32719999927,
      "d": 207.96403333333728,
      "v": 92
    },
    {
      "midi": 67,
      "hit": false,
      "t": 81190.04356666595,
      "d": 92.920100000003,
      "v": 116
    },
    {
      "midi": 67,
      "hit": false,
      "t": 81464.37909999928,
      "d": 504.4233999999997,
      "v": 121
    },
    {
      "midi": 66,
      "hit": false,
      "t": 82004.20063333261,
      "d": 309.733666666667,
      "v": 109
    },
    {
      "midi": 64,
      "hit": false,
      "t": 82265.26186666594,
      "d": 438.05190000000584,
      "v": 113
    },
    {
      "midi": 66,
      "hit": false,
      "t": 82787.38433333261,
      "d": 106.19439999999304,
      "v": 106
    },
    {
      "midi": 67,
      "hit": false,
      "t": 82915.70256666593,
      "d": 137.16776666666556,
      "v": 109
    },
    {
      "midi": 69,
      "hit": false,
      "t": 83044.02079999927,
      "d": 230.08786666666856,
      "v": 103
    },
    {
      "midi": 71,
      "hit": false,
      "t": 83185.6133333326,
      "d": 141.59253333334345,
      "v": 92
    },
    {
      "midi": 72,
      "hit": false,
      "t": 83260.83436666593,
      "d": 159.29160000001139,
      "v": 112
    },
    {
      "midi": 72,
      "hit": false,
      "t": 83561.71849999928,
      "d": 637.1663999999873,
      "v": 120
    },
    {
      "midi": 71,
      "hit": false,
      "t": 84132.51339999927,
      "d": 340.70703333332494,
      "v": 117
    },
    {
      "midi": 69,
      "hit": false,
      "t": 84411.27369999926,
      "d": 398.2289999999921,
      "v": 118
    },
    {
      "midi": 70,
      "hit": false,
      "t": 84928.97139999925,
      "d": 203.53926666667394,
      "v": 102
    },
    {
      "midi": 69,
      "hit": false,
      "t": 85074.98869999926,
      "d": 146.0173000000068,
      "v": 103
    },
    {
      "midi": 67,
      "hit": false,
      "t": 85190.0326333326,
      "d": 146.0173000000068,
      "v": 100
    },
    {
      "midi": 70,
      "hit": false,
      "t": 85477.64246666593,
      "d": 203.53926666667394,
      "v": 104
    },
    {
      "midi": 69,
      "hit": false,
      "t": 85623.65976666594,
      "d": 146.01729999999225,
      "v": 103
    },
    {
      "midi": 67,
      "hit": false,
      "t": 85743.12846666593,
      "d": 115.04393333333428,
      "v": 102
    },
    {
      "midi": 70,
      "hit": false,
      "t": 86021.88876666593,
      "d": 194.6897333333327,
      "v": 102
    },
    {
      "midi": 69,
      "hit": false,
      "t": 86154.63176666593,
      "d": 150.44206666667014,
      "v": 102
    },
    {
      "midi": 67,
      "hit": false,
      "t": 86274.10046666593,
      "d": 110.61916666667094,
      "v": 106
    },
    {
      "midi": 70,
      "hit": false,
      "t": 86548.43599999926,
      "d": 199.1145000000106,
      "v": 101
    },
    {
      "midi": 69,
      "hit": false,
      "t": 86676.7542333326,
      "d": 146.0173000000068,
      "v": 92
    },
    {
      "midi": 67,
      "hit": false,
      "t": 86787.37339999927,
      "d": 75.22103333333507,
      "v": 99
    },
    {
      "midi": 66,
      "hit": false,
      "t": 87061.7089333326,
      "d": 79.64579999998386,
      "v": 101
    },
    {
      "midi": 62,
      "hit": false,
      "t": 87061.7089333326,
      "d": 84.07056666664721,
      "v": 102
    },
    {
      "midi": 69,
      "hit": false,
      "t": 87066.13369999926,
      "d": 35.39813333332131,
      "v": 102
    },
    {
      "midi": 50,
      "hit": false,
      "t": 87066.13369999926,
      "d": 88.49533333331055,
      "v": 106
    },
    {
      "midi": 38,
      "hit": false,
      "t": 87074.98323333259,
      "d": 70.79626666665717,
      "v": 92
    },
    {
      "midi": 50,
      "hit": false,
      "t": 87331.61969999924,
      "d": 88.4953333333251,
      "v": 112
    },
    {
      "midi": 38,
      "hit": false,
      "t": 87331.61969999924,
      "d": 92.92009999998845,
      "v": 105
    },
    {
      "midi": 62,
      "hit": false,
      "t": 87336.0444666659,
      "d": 75.22103333333507,
      "v": 106
    },
    {
      "midi": 69,
      "hit": false,
      "t": 87336.0444666659,
      "d": 79.64579999999842,
      "v": 112
    },
    {
      "midi": 66,
      "hit": false,
      "t": 87340.46923333257,
      "d": 84.07056666666176,
      "v": 103
    },
    {
      "midi": 69,
      "hit": false,
      "t": 87867.0164666659,
      "d": 955.7495999999956,
      "v": 117
    },
    {
      "midi": 38,
      "hit": false,
      "t": 87867.0164666659,
      "d": 1106.1916666666657,
      "v": 113
    },
    {
      "midi": 66,
      "hit": false,
      "t": 87871.44123333256,
      "d": 986.7229666666681,
      "v": 108
    },
    {
      "midi": 50,
      "hit": false,
      "t": 87871.44123333256,
      "d": 1212.3860666666733,
      "v": 115
    },
    {
      "midi": 62,
      "hit": false,
      "t": 87875.86599999922,
      "d": 982.2982000000047,
      "v": 111
    },
    {
      "midi": 55,
      "hit": false,
      "t": 89167.8978666659,
      "d": 115.04393333333428,
      "v": 94
    },
    {
      "midi": 43,
      "hit": false,
      "t": 89198.87123333257,
      "d": 110.61916666665638,
      "v": 118
    },
    {
      "midi": 58,
      "hit": false,
      "t": 89203.29599999923,
      "d": 106.19439999999304,
      "v": 96
    },
    {
      "midi": 62,
      "hit": false,
      "t": 89455.50769999923,
      "d": 97.3448666666809,
      "v": 99
    },
    {
      "midi": 55,
      "hit": false,
      "t": 89468.78199999924,
      "d": 84.07056666667631,
      "v": 96
    },
    {
      "midi": 58,
      "hit": false,
      "t": 89482.05629999924,
      "d": 75.22103333333507,
      "v": 79
    },
    {
      "midi": 62,
      "hit": false,
      "t": 89738.6927666659,
      "d": 84.07056666666176,
      "v": 104
    },
    {
      "midi": 38,
      "hit": false,
      "t": 89743.11753333257,
      "d": 101.7696333333297,
      "v": 110
    },
    {
      "midi": 55,
      "hit": false,
      "t": 89747.54229999923,
      "d": 75.22103333333507,
      "v": 101
    },
    {
      "midi": 58,
      "hit": false,
      "t": 89751.9670666659,
      "d": 70.79626666667173,
      "v": 89
    },
    {
      "midi": 55,
      "hit": false,
      "t": 89995.32923333257,
      "d": 66.37149999999383,
      "v": 99
    },
    {
      "midi": 62,
      "hit": false,
      "t": 89995.32923333257,
      "d": 75.22103333332052,
      "v": 98
    },
    {
      "midi": 58,
      "hit": false,
      "t": 90004.1787666659,
      "d": 61.946733333330485,
      "v": 87
    },
    {
      "midi": 55,
      "hit": false,
      "t": 90274.08953333256,
      "d": 75.22103333332052,
      "v": 109
    },
    {
      "midi": 62,
      "hit": false,
      "t": 90274.08953333256,
      "d": 75.22103333332052,
      "v": 106
    },
    {
      "midi": 58,
      "hit": false,
      "t": 90278.51429999922,
      "d": 66.37149999999383,
      "v": 93
    },
    {
      "midi": 43,
      "hit": false,
      "t": 90282.93906666589,
      "d": 70.79626666665717,
      "v": 112
    },
    {
      "midi": 62,
      "hit": false,
      "t": 90535.15076666587,
      "d": 70.79626666665717,
      "v": 101
    },
    {
      "midi": 55,
      "hit": false,
      "t": 90544.0002999992,
      "d": 39.82289999999921,
      "v": 102
    },
    {
      "midi": 58,
      "hit": false,
      "t": 90544.0002999992,
      "d": 44.24766666666255,
      "v": 86
    },
    {
      "midi": 38,
      "hit": false,
      "t": 90800.63676666586,
      "d": 274.335533333302,
      "v": 105
    },
    {
      "midi": 62,
      "hit": false,
      "t": 90813.91106666587,
      "d": 92.92009999998845,
      "v": 106
    },
    {
      "midi": 55,
      "hit": false,
      "t": 90822.7605999992,
      "d": 75.22103333333507,
      "v": 103
    },
    {
      "midi": 58,
      "hit": false,
      "t": 90822.7605999992,
      "d": 92.92009999998845,
      "v": 92
    },
    {
      "midi": 62,
      "hit": false,
      "t": 91057.27323333251,
      "d": 79.64579999998386,
      "v": 90
    },
    {
      "midi": 58,
      "hit": false,
      "t": 91061.69799999917,
      "d": 88.4953333333251,
      "v": 84
    },
    {
      "midi": 55,
      "hit": false,
      "t": 91066.12276666584,
      "d": 92.92009999998845,
      "v": 95
    },
    {
      "midi": 43,
      "hit": false,
      "t": 91066.12276666584,
      "d": 274.33553333331656,
      "v": 111
    },
    {
      "midi": 53,
      "hit": false,
      "t": 91327.18399999916,
      "d": 75.22103333332052,
      "v": 106
    },
    {
      "midi": 41,
      "hit": false,
      "t": 91327.18399999916,
      "d": 88.4953333333251,
      "v": 109
    },
    {
      "midi": 60,
      "hit": false,
      "t": 91331.60876666583,
      "d": 84.07056666666176,
      "v": 93
    },
    {
      "midi": 57,
      "hit": false,
      "t": 91344.88306666582,
      "d": 53.097200000003795,
      "v": 80
    },
    {
      "midi": 55,
      "hit": false,
      "t": 91362.58213333249,
      "d": 30.97336666667252,
      "v": 83
    },
    {
      "midi": 60,
      "hit": false,
      "t": 91588.24523333249,
      "d": 75.22103333333507,
      "v": 95
    },
    {
      "midi": 53,
      "hit": false,
      "t": 91592.66999999915,
      "d": 70.79626666667173,
      "v": 97
    },
    {
      "midi": 57,
      "hit": false,
      "t": 91592.66999999915,
      "d": 75.22103333333507,
      "v": 96
    },
    {
      "midi": 60,
      "hit": false,
      "t": 91862.58076666582,
      "d": 75.22103333333507,
      "v": 103
    },
    {
      "midi": 53,
      "hit": false,
      "t": 91867.00553333249,
      "d": 66.37150000000838,
      "v": 104
    },
    {
      "midi": 36,
      "hit": false,
      "t": 91867.00553333249,
      "d": 84.07056666666176,
      "v": 92
    },
    {
      "midi": 57,
      "hit": false,
      "t": 91871.43029999915,
      "d": 70.79626666667173,
      "v": 103
    },
    {
      "midi": 38,
      "hit": false,
      "t": 91884.70459999915,
      "d": 30.97336666667252,
      "v": 86
    },
    {
      "midi": 60,
      "hit": false,
      "t": 92123.64199999915,
      "d": 70.79626666667173,
      "v": 100
    },
    {
      "midi": 53,
      "hit": false,
      "t": 92128.06676666581,
      "d": 53.097200000003795,
      "v": 99
    },
    {
      "midi": 57,
      "hit": false,
      "t": 92132.49153333248,
      "d": 48.67243333334045,
      "v": 96
    },
    {
      "midi": 41,
      "hit": false,
      "t": 92402.40229999916,
      "d": 88.4953333333251,
      "v": 110
    },
    {
      "midi": 60,
      "hit": false,
      "t": 92406.82706666582,
      "d": 66.37149999999383,
      "v": 103
    },
    {
      "midi": 53,
      "hit": false,
      "t": 92411.25183333248,
      "d": 48.6724333333259,
      "v": 100
    },
    {
      "midi": 57,
      "hit": false,
      "t": 92415.67659999915,
      "d": 44.24766666666255,
      "v": 99
    },
    {
      "midi": 60,
      "hit": false,
      "t": 92650.18923333248,
      "d": 79.64579999998386,
      "v": 100
    },
    {
      "midi": 53,
      "hit": false,
      "t": 92659.0387666658,
      "d": 61.946733333330485,
      "v": 99
    },
    {
      "midi": 57,
      "hit": false,
      "t": 92659.0387666658,
      "d": 61.946733333330485,
      "v": 96
    },
    {
      "midi": 36,
      "hit": false,
      "t": 92924.5247666658,
      "d": 146.01729999999225,
      "v": 106
    },
    {
      "midi": 60,
      "hit": false,
      "t": 92937.7990666658,
      "d": 92.92009999998845,
      "v": 103
    },
    {
      "midi": 53,
      "hit": false,
      "t": 92942.22383333246,
      "d": 70.79626666667173,
      "v": 103
    },
    {
      "midi": 57,
      "hit": false,
      "t": 92942.22383333246,
      "d": 79.64579999999842,
      "v": 102
    },
    {
      "midi": 60,
      "hit": false,
      "t": 93163.46216666579,
      "d": 101.7696333333297,
      "v": 90
    },
    {
      "midi": 41,
      "hit": false,
      "t": 93181.16123333246,
      "d": 75.22103333333507,
      "v": 105
    },
    {
      "midi": 53,
      "hit": false,
      "t": 93194.43553333246,
      "d": 70.79626666665717,
      "v": 92
    },
    {
      "midi": 57,
      "hit": false,
      "t": 93198.86029999913,
      "d": 39.82289999999921,
      "v": 92
    },
    {
      "midi": 55,
      "hit": false,
      "t": 93455.49676666579,
      "d": 101.7696333333297,
      "v": 102
    },
    {
      "midi": 48,
      "hit": false,
      "t": 93464.34629999912,
      "d": 115.04393333333428,
      "v": 109
    },
    {
      "midi": 60,
      "hit": false,
      "t": 93468.77106666578,
      "d": 88.49533333333966,
      "v": 95
    },
    {
      "midi": 63,
      "hit": false,
      "t": 93468.77106666578,
      "d": 97.34486666666635,
      "v": 85
    },
    {
      "midi": 55,
      "hit": false,
      "t": 93712.13323333245,
      "d": 79.64579999999842,
      "v": 95
    },
    {
      "midi": 60,
      "hit": false,
      "t": 93716.55799999912,
      "d": 88.49533333333966,
      "v": 90
    },
    {
      "midi": 63,
      "hit": false,
      "t": 93716.55799999912,
      "d": 106.19440000000759,
      "v": 89
    },
    {
      "midi": 63,
      "hit": false,
      "t": 93982.04399999912,
      "d": 110.61916666665638,
      "v": 96
    },
    {
      "midi": 43,
      "hit": false,
      "t": 93982.04399999912,
      "d": 115.04393333331973,
      "v": 113
    },
    {
      "midi": 55,
      "hit": false,
      "t": 93986.46876666578,
      "d": 79.64579999999842,
      "v": 108
    },
    {
      "midi": 60,
      "hit": false,
      "t": 93990.89353333245,
      "d": 79.64579999999842,
      "v": 98
    },
    {
      "midi": 63,
      "hit": false,
      "t": 94238.68046666577,
      "d": 101.76963333331514,
      "v": 90
    },
    {
      "midi": 55,
      "hit": false,
      "t": 94243.10523333243,
      "d": 75.22103333332052,
      "v": 99
    },
    {
      "midi": 60,
      "hit": false,
      "t": 94251.95476666576,
      "d": 39.82289999999921,
      "v": 91
    },
    {
      "midi": 63,
      "hit": false,
      "t": 94517.44076666575,
      "d": 92.92009999998845,
      "v": 99
    },
    {
      "midi": 55,
      "hit": false,
      "t": 94521.86553333241,
      "d": 66.37149999999383,
      "v": 108
    },
    {
      "midi": 60,
      "hit": false,
      "t": 94526.29029999908,
      "d": 35.39813333333586,
      "v": 98
    },
    {
      "midi": 48,
      "hit": false,
      "t": 94526.29029999908,
      "d": 92.92009999998845,
      "v": 114
    },
    {
      "midi": 63,
      "hit": false,
      "t": 94774.0772333324,
      "d": 97.3448666666518,
      "v": 96
    },
    {
      "midi": 55,
      "hit": false,
      "t": 94778.50199999906,
      "d": 70.79626666665717,
      "v": 104
    },
    {
      "midi": 60,
      "hit": false,
      "t": 94787.35153333239,
      "d": 35.39813333333586,
      "v": 91
    },
    {
      "midi": 43,
      "hit": false,
      "t": 95035.13846666571,
      "d": 154.86683333331894,
      "v": 109
    },
    {
      "midi": 63,
      "hit": false,
      "t": 95048.41276666572,
      "d": 132.74299999998766,
      "v": 98
    },
    {
      "midi": 60,
      "hit": false,
      "t": 95057.26229999904,
      "d": 66.37149999999383,
      "v": 98
    },
    {
      "midi": 55,
      "hit": false,
      "t": 95057.26229999904,
      "d": 70.79626666665717,
      "v": 103
    },
    {
      "midi": 63,
      "hit": false,
      "t": 95296.19969999902,
      "d": 75.22103333332052,
      "v": 76
    },
    {
      "midi": 55,
      "hit": false,
      "t": 95296.19969999902,
      "d": 92.92009999998845,
      "v": 103
    },
    {
      "midi": 48,
      "hit": false,
      "t": 95305.04923333235,
      "d": 84.07056666666176,
      "v": 111
    },
    {
      "midi": 55,
      "hit": false,
      "t": 95570.53523333234,
      "d": 84.07056666664721,
      "v": 106
    },
    {
      "midi": 62,
      "hit": false,
      "t": 95574.959999999,
      "d": 35.39813333332131,
      "v": 100
    },
    {
      "midi": 58,
      "hit": false,
      "t": 95574.959999999,
      "d": 84.07056666664721,
      "v": 96
    },
    {
      "midi": 43,
      "hit": false,
      "t": 95579.38476666567,
      "d": 101.76963333331514,
      "v": 100
    },
    {
      "midi": 45,
      "hit": false,
      "t": 95601.508599999,
      "d": 35.39813333332131,
      "v": 72
    },
    {
      "midi": 55,
      "hit": false,
      "t": 95831.59646666565,
      "d": 84.07056666666176,
      "v": 102
    },
    {
      "midi": 62,
      "hit": false,
      "t": 95831.59646666565,
      "d": 88.4953333333251,
      "v": 98
    },
    {
      "midi": 58,
      "hit": false,
      "t": 95836.02123333231,
      "d": 92.92009999998845,
      "v": 95
    },
    {
      "midi": 38,
      "hit": false,
      "t": 96097.08246666564,
      "d": 119.46869999999763,
      "v": 111
    },
    {
      "midi": 55,
      "hit": false,
      "t": 96114.78153333231,
      "d": 70.79626666667173,
      "v": 111
    },
    {
      "midi": 62,
      "hit": false,
      "t": 96114.78153333231,
      "d": 84.07056666667631,
      "v": 105
    },
    {
      "midi": 58,
      "hit": false,
      "t": 96114.78153333231,
      "d": 92.920100000003,
      "v": 103
    },
    {
      "midi": 62,
      "hit": false,
      "t": 96371.41799999897,
      "d": 61.946733333330485,
      "v": 100
    },
    {
      "midi": 55,
      "hit": false,
      "t": 96371.41799999897,
      "d": 70.79626666665717,
      "v": 105
    },
    {
      "midi": 58,
      "hit": false,
      "t": 96371.41799999897,
      "d": 75.22103333332052,
      "v": 94
    },
    {
      "midi": 55,
      "hit": false,
      "t": 96632.4792333323,
      "d": 66.37149999999383,
      "v": 118
    },
    {
      "midi": 43,
      "hit": false,
      "t": 96632.4792333323,
      "d": 75.22103333332052,
      "v": 122
    },
    {
      "midi": 62,
      "hit": false,
      "t": 96636.90399999896,
      "d": 66.37149999999383,
      "v": 115
    },
    {
      "midi": 58,
      "hit": false,
      "t": 96636.90399999896,
      "d": 79.64579999998386,
      "v": 112
    },
    {
      "midi": 55,
      "hit": false,
      "t": 97641.32603333228,
      "d": 137.16776666666556,
      "v": 78
    },
    {
      "midi": 62,
      "hit": false,
      "t": 97698.84799999895,
      "d": 44.24766666666255,
      "v": 95
    },
    {
      "midi": 58,
      "hit": false,
      "t": 97703.27276666561,
      "d": 92.920100000003,
      "v": 96
    },
    {
      "midi": 43,
      "hit": false,
      "t": 97707.69753333228,
      "d": 101.76963333334425,
      "v": 116
    },
    {
      "midi": 58,
      "hit": false,
      "t": 97959.90923333229,
      "d": 75.22103333333507,
      "v": 90
    },
    {
      "midi": 55,
      "hit": false,
      "t": 97959.90923333229,
      "d": 84.07056666666176,
      "v": 100
    },
    {
      "midi": 62,
      "hit": false,
      "t": 97964.33399999895,
      "d": 48.67243333334045,
      "v": 93
    },
    {
      "midi": 55,
      "hit": false,
      "t": 98234.24476666562,
      "d": 84.07056666666176,
      "v": 109
    },
    {
      "midi": 38,
      "hit": false,
      "t": 98234.24476666562,
      "d": 92.92009999998845,
      "v": 109
    },
    {
      "midi": 58,
      "hit": false,
      "t": 98238.66953333229,
      "d": 75.22103333333507,
      "v": 98
    },
    {
      "midi": 62,
      "hit": false,
      "t": 98238.66953333229,
      "d": 79.64579999999842,
      "v": 105
    },
    {
      "midi": 55,
      "hit": false,
      "t": 98477.60693333228,
      "d": 84.07056666666176,
      "v": 100
    },
    {
      "midi": 62,
      "hit": false,
      "t": 98477.60693333228,
      "d": 84.07056666666176,
      "v": 98
    },
    {
      "midi": 58,
      "hit": false,
      "t": 98486.45646666561,
      "d": 79.64579999999842,
      "v": 90
    },
    {
      "midi": 62,
      "hit": false,
      "t": 98765.2167666656,
      "d": 70.79626666665717,
      "v": 103
    },
    {
      "midi": 55,
      "hit": false,
      "t": 98765.2167666656,
      "d": 75.22103333332052,
      "v": 106
    },
    {
      "midi": 43,
      "hit": false,
      "t": 98765.2167666656,
      "d": 84.07056666664721,
      "v": 112
    },
    {
      "midi": 58,
      "hit": false,
      "t": 98769.64153333227,
      "d": 66.37149999999383,
      "v": 99
    },
    {
      "midi": 62,
      "hit": false,
      "t": 99021.85323333225,
      "d": 88.4953333333251,
      "v": 99
    },
    {
      "midi": 58,
      "hit": false,
      "t": 99026.27799999891,
      "d": 75.22103333333507,
      "v": 93
    },
    {
      "midi": 55,
      "hit": false,
      "t": 99030.70276666558,
      "d": 39.82289999999921,
      "v": 100
    },
    {
      "midi": 38,
      "hit": false,
      "t": 99269.64016666557,
      "d": 172.56590000001597,
      "v": 104
    },
    {
      "midi": 62,
      "hit": false,
      "t": 99300.61353333225,
      "d": 97.34486666666635,
      "v": 101
    },
    {
      "midi": 58,
      "hit": false,
      "t": 99300.61353333225,
      "d": 110.61916666667094,
      "v": 98
    },
    {
      "midi": 55,
      "hit": false,
      "t": 99305.03829999891,
      "d": 75.22103333333507,
      "v": 103
    },
    {
      "midi": 62,
      "hit": false,
      "t": 99539.55093333226,
      "d": 88.4953333333251,
      "v": 92
    },
    {
      "midi": 43,
      "hit": false,
      "t": 99543.97569999892,
      "d": 123.89346666666097,
      "v": 112
    },
    {
      "midi": 55,
      "hit": false,
      "t": 99548.40046666558,
      "d": 97.34486666666635,
      "v": 98
    },
    {
      "midi": 58,
      "hit": false,
      "t": 99561.67476666559,
      "d": 70.79626666665717,
      "v": 80
    },
    {
      "midi": 57,
      "hit": false,
      "t": 99822.73599999891,
      "d": 92.92009999998845,
      "v": 103
    },
    {
      "midi": 53,
      "hit": false,
      "t": 99827.16076666558,
      "d": 79.64579999999842,
      "v": 103
    },
    {
      "midi": 41,
      "hit": false,
      "t": 99827.16076666558,
      "d": 84.07056666666176,
      "v": 113
    },
    {
      "midi": 60,
      "hit": false,
      "t": 99831.58553333224,
      "d": 84.07056666666176,
      "v": 97
    },
    {
      "midi": 60,
      "hit": false,
      "t": 100079.37246666556,
      "d": 88.4953333333251,
      "v": 96
    },
    {
      "midi": 53,
      "hit": false,
      "t": 100083.79723333223,
      "d": 75.22103333333507,
      "v": 99
    },
    {
      "midi": 57,
      "hit": false,
      "t": 100088.22199999889,
      "d": 57.52196666666714,
      "v": 93
    },
    {
      "midi": 36,
      "hit": false,
      "t": 100349.28323333221,
      "d": 110.61916666665638,
      "v": 112
    },
    {
      "midi": 53,
      "hit": false,
      "t": 100353.70799999888,
      "d": 79.64579999999842,
      "v": 104
    },
    {
      "midi": 60,
      "hit": false,
      "t": 100353.70799999888,
      "d": 92.92009999998845,
      "v": 102
    },
    {
      "midi": 57,
      "hit": false,
      "t": 100358.13276666554,
      "d": 79.64579999999842,
      "v": 98
    },
    {
      "midi": 60,
      "hit": false,
      "t": 100605.91969999888,
      "d": 79.64579999998386,
      "v": 96
    },
    {
      "midi": 53,
      "hit": false,
      "t": 100610.34446666554,
      "d": 61.946733333330485,
      "v": 99
    },
    {
      "midi": 57,
      "hit": false,
      "t": 100614.7692333322,
      "d": 61.946733333330485,
      "v": 95
    },
    {
      "midi": 60,
      "hit": false,
      "t": 100875.83046666553,
      "d": 97.3448666666518,
      "v": 106
    },
    {
      "midi": 57,
      "hit": false,
      "t": 100884.67999999886,
      "d": 84.07056666666176,
      "v": 105
    },
    {
      "midi": 41,
      "hit": false,
      "t": 100884.67999999886,
      "d": 92.92009999998845,
      "v": 113
    },
    {
      "midi": 53,
      "hit": false,
      "t": 100889.10476666552,
      "d": 66.37149999999383,
      "v": 105
    },
    {
      "midi": 53,
      "hit": false,
      "t": 101150.16599999885,
      "d": 66.37149999999383,
      "v": 104
    },
    {
      "midi": 60,
      "hit": false,
      "t": 101150.16599999885,
      "d": 70.79626666665717,
      "v": 100
    },
    {
      "midi": 57,
      "hit": false,
      "t": 101154.59076666551,
      "d": 57.52196666666714,
      "v": 98
    },
    {
      "midi": 36,
      "hit": false,
      "t": 101415.65199999884,
      "d": 137.16776666666556,
      "v": 111
    },
    {
      "midi": 57,
      "hit": false,
      "t": 101433.3510666655,
      "d": 84.07056666666176,
      "v": 103
    },
    {
      "midi": 60,
      "hit": false,
      "t": 101433.3510666655,
      "d": 88.4953333333251,
      "v": 102
    },
    {
      "midi": 53,
      "hit": false,
      "t": 101437.77583333217,
      "d": 53.097200000003795,
      "v": 102
    },
    {
      "midi": 41,
      "hit": false,
      "t": 101676.71323333216,
      "d": 79.64579999998386,
      "v": 112
    },
    {
      "midi": 60,
      "hit": false,
      "t": 101685.56276666549,
      "d": 88.49533333331055,
      "v": 94
    },
    {
      "midi": 57,
      "hit": false,
      "t": 101694.41229999882,
      "d": 70.79626666665717,
      "v": 97
    },
    {
      "midi": 53,
      "hit": false,
      "t": 101698.83706666548,
      "d": 53.097200000003795,
      "v": 94
    },
    {
      "midi": 55,
      "hit": false,
      "t": 101959.89829999881,
      "d": 84.07056666664721,
      "v": 104
    },
    {
      "midi": 48,
      "hit": false,
      "t": 101964.32306666547,
      "d": 106.19439999997849,
      "v": 112
    },
    {
      "midi": 60,
      "hit": false,
      "t": 101973.1725999988,
      "d": 70.79626666665717,
      "v": 95
    },
    {
      "midi": 63,
      "hit": false,
      "t": 101982.02213333212,
      "d": 44.24766666666255,
      "v": 75
    },
    {
      "midi": 55,
      "hit": false,
      "t": 102220.95953333212,
      "d": 84.07056666666176,
      "v": 98
    },
    {
      "midi": 63,
      "hit": false,
      "t": 102220.95953333212,
      "d": 115.04393333331973,
      "v": 90
    },
    {
      "midi": 60,
      "hit": false,
      "t": 102225.38429999878,
      "d": 84.07056666666176,
      "v": 93
    },
    {
      "midi": 43,
      "hit": false,
      "t": 102482.02076666545,
      "d": 106.19439999999304,
      "v": 113
    },
    {
      "midi": 63,
      "hit": false,
      "t": 102482.02076666545,
      "d": 110.61916666665638,
      "v": 98
    },
    {
      "midi": 55,
      "hit": false,
      "t": 102486.44553333211,
      "d": 75.22103333333507,
      "v": 108
    },
    {
      "midi": 60,
      "hit": false,
      "t": 102486.44553333211,
      "d": 79.64579999999842,
      "v": 99
    },
    {
      "midi": 63,
      "hit": false,
      "t": 102725.3829333321,
      "d": 110.61916666665638,
      "v": 91
    },
    {
      "midi": 55,
      "hit": false,
      "t": 102729.80769999877,
      "d": 75.22103333332052,
      "v": 99
    },
    {
      "midi": 60,
      "hit": false,
      "t": 102738.6572333321,
      "d": 61.946733333330485,
      "v": 91
    },
    {
      "midi": 48,
      "hit": false,
      "t": 103008.56799999876,
      "d": 97.3448666666518,
      "v": 112
    },
    {
      "midi": 63,
      "hit": false,
      "t": 103008.56799999876,
      "d": 101.76963333331514,
      "v": 98
    },
    {
      "midi": 55,
      "hit": false,
      "t": 103012.99276666543,
      "d": 66.37149999999383,
      "v": 105
    },
    {
      "midi": 60,
      "hit": false,
      "t": 103017.41753333209,
      "d": 66.37149999999383,
      "v": 96
    },
    {
      "midi": 55,
      "hit": false,
      "t": 103265.20446666541,
      "d": 75.22103333332052,
      "v": 101
    },
    {
      "midi": 63,
      "hit": false,
      "t": 103265.20446666541,
      "d": 101.76963333331514,
      "v": 95
    },
    {
      "midi": 60,
      "hit": false,
      "t": 103269.62923333207,
      "d": 66.37149999999383,
      "v": 91
    },
    {
      "midi": 43,
      "hit": false,
      "t": 103526.26569999872,
      "d": 216.81356666667853,
      "v": 111
    },
    {
      "midi": 63,
      "hit": false,
      "t": 103539.53999999873,
      "d": 132.7430000000022,
      "v": 95
    },
    {
      "midi": 55,
      "hit": false,
      "t": 103543.96476666539,
      "d": 75.22103333333507,
      "v": 101
    },
    {
      "midi": 60,
      "hit": false,
      "t": 103548.38953333205,
      "d": 84.07056666667631,
      "v": 96
    },
    {
      "midi": 63,
      "hit": false,
      "t": 103787.32693333206,
      "d": 97.34486666666635,
      "v": 79
    },
    {
      "midi": 55,
      "hit": false,
      "t": 103796.17646666539,
      "d": 88.49533333333966,
      "v": 97
    },
    {
      "midi": 48,
      "hit": false,
      "t": 103800.60123333205,
      "d": 88.49533333333966,
      "v": 109
    },
    {
      "midi": 60,
      "hit": false,
      "t": 103818.30029999872,
      "d": 35.39813333333586,
      "v": 74
    },
    {
      "midi": 43,
      "hit": false,
      "t": 104066.08723333206,
      "d": 119.46869999999763,
      "v": 114
    },
    {
      "midi": 55,
      "hit": false,
      "t": 104074.93676666539,
      "d": 88.49533333333966,
      "v": 106
    },
    {
      "midi": 58,
      "hit": false,
      "t": 104074.93676666539,
      "d": 97.34486666666635,
      "v": 98
    },
    {
      "midi": 62,
      "hit": false,
      "t": 104079.36153333205,
      "d": 53.097200000003795,
      "v": 99
    },
    {
      "midi": 62,
      "hit": false,
      "t": 104327.14846666539,
      "d": 88.4953333333251,
      "v": 93
    },
    {
      "midi": 55,
      "hit": false,
      "t": 104331.57323333205,
      "d": 84.07056666666176,
      "v": 98
    },
    {
      "midi": 58,
      "hit": false,
      "t": 104331.57323333205,
      "d": 92.92009999998845,
      "v": 92
    },
    {
      "midi": 38,
      "hit": false,
      "t": 104597.05923333204,
      "d": 123.89346666666097,
      "v": 111
    },
    {
      "midi": 55,
      "hit": false,
      "t": 104610.33353333204,
      "d": 75.22103333333507,
      "v": 108
    },
    {
      "midi": 62,
      "hit": false,
      "t": 104610.33353333204,
      "d": 79.64579999999842,
      "v": 105
    },
    {
      "midi": 58,
      "hit": false,
      "t": 104610.33353333204,
      "d": 88.4953333333251,
      "v": 100
    },
    {
      "midi": 55,
      "hit": false,
      "t": 104844.84616666536,
      "d": 97.34486666666635,
      "v": 98
    },
    {
      "midi": 62,
      "hit": false,
      "t": 104849.27093333202,
      "d": 101.7696333333297,
      "v": 95
    },
    {
      "midi": 58,
      "hit": false,
      "t": 104849.27093333202,
      "d": 110.61916666665638,
      "v": 91
    },
    {
      "midi": 55,
      "hit": false,
      "t": 105110.33216666535,
      "d": 92.920100000003,
      "v": 99
    },
    {
      "midi": 62,
      "hit": false,
      "t": 105114.75693333201,
      "d": 97.34486666666635,
      "v": 90
    },
    {
      "midi": 58,
      "hit": false,
      "t": 105114.75693333201,
      "d": 101.7696333333297,
      "v": 90
    },
    {
      "midi": 43,
      "hit": false,
      "t": 105128.03123333202,
      "d": 88.4953333333251,
      "v": 116
    },
    {
      "midi": 82,
      "hit": false,
      "t": 105380.242933332,
      "d": 92.920100000003,
      "v": 112
    },
    {
      "midi": 70,
      "hit": false,
      "t": 105384.66769999867,
      "d": 57.52196666666714,
      "v": 98
    },
    {
      "midi": 43,
      "hit": false,
      "t": 105389.09246666533,
      "d": 88.49533333333966,
      "v": 111
    },
    {
      "midi": 81,
      "hit": false,
      "t": 105645.72893333201,
      "d": 57.52196666666714,
      "v": 106
    },
    {
      "midi": 69,
      "hit": false,
      "t": 105650.15369999867,
      "d": 30.97336666667252,
      "v": 108
    },
    {
      "midi": 42,
      "hit": false,
      "t": 105650.15369999867,
      "d": 84.07056666667631,
      "v": 98
    },
    {
      "midi": 40,
      "hit": false,
      "t": 105906.79016666535,
      "d": 79.64580000001297,
      "v": 102
    },
    {
      "midi": 67,
      "hit": false,
      "t": 105920.06446666535,
      "d": 30.97336666667252,
      "v": 103
    },
    {
      "midi": 79,
      "hit": false,
      "t": 105920.06446666535,
      "d": 35.39813333333586,
      "v": 100
    },
    {
      "midi": 66,
      "hit": false,
      "t": 106167.85139999869,
      "d": 2230.08239999997,
      "v": 112
    },
    {
      "midi": 78,
      "hit": false,
      "t": 106172.27616666535,
      "d": 2230.08239999997,
      "v": 115
    },
    {
      "midi": 38,
      "hit": false,
      "t": 106176.70093333202,
      "d": 495.57386666665843,
      "v": 106
    },
    {
      "midi": 54,
      "hit": false,
      "t": 106420.06309999869,
      "d": 70.79626666667173,
      "v": 89
    },
    {
      "midi": 62,
      "hit": false,
      "t": 106420.06309999869,
      "d": 79.64579999999842,
      "v": 91
    },
    {
      "midi": 57,
      "hit": false,
      "t": 106437.76216666536,
      "d": 39.82289999999921,
      "v": 84
    },
    {
      "midi": 54,
      "hit": false,
      "t": 106561.65563333202,
      "d": 172.56589999998687,
      "v": 92
    },
    {
      "midi": 62,
      "hit": false,
      "t": 106566.08039999868,
      "d": 185.84019999999146,
      "v": 97
    },
    {
      "midi": 57,
      "hit": false,
      "t": 106574.92993333201,
      "d": 185.84019999999146,
      "v": 89
    },
    {
      "midi": 45,
      "hit": false,
      "t": 106672.27479999868,
      "d": 544.2462999999843,
      "v": 96
    },
    {
      "midi": 54,
      "hit": false,
      "t": 106951.03509999867,
      "d": 48.6724333333259,
      "v": 91
    },
    {
      "midi": 62,
      "hit": false,
      "t": 106955.45986666533,
      "d": 39.82289999999921,
      "v": 90
    },
    {
      "midi": 57,
      "hit": false,
      "t": 106959.884633332,
      "d": 35.39813333333586,
      "v": 86
    },
    {
      "midi": 62,
      "hit": false,
      "t": 107070.50379999867,
      "d": 221.23833333332732,
      "v": 103
    },
    {
      "midi": 54,
      "hit": false,
      "t": 107074.92856666533,
      "d": 163.71636666666018,
      "v": 86
    },
    {
      "midi": 57,
      "hit": false,
      "t": 107079.353333332,
      "d": 212.38880000000063,
      "v": 83
    },
    {
      "midi": 50,
      "hit": false,
      "t": 107212.096333332,
      "d": 566.3701333333302,
      "v": 105
    },
    {
      "midi": 54,
      "hit": false,
      "t": 107468.73279999866,
      "d": 66.37149999999383,
      "v": 90
    },
    {
      "midi": 62,
      "hit": false,
      "t": 107473.15756666532,
      "d": 84.07056666666176,
      "v": 91
    },
    {
      "midi": 57,
      "hit": false,
      "t": 107477.58233333199,
      "d": 79.64579999999842,
      "v": 89
    },
    {
      "midi": 54,
      "hit": false,
      "t": 107628.02439999866,
      "d": 190.26496666666935,
      "v": 79
    },
    {
      "midi": 62,
      "hit": false,
      "t": 107632.44916666532,
      "d": 221.23833333334187,
      "v": 96
    },
    {
      "midi": 57,
      "hit": false,
      "t": 107641.29869999865,
      "d": 216.81356666667853,
      "v": 96
    },
    {
      "midi": 45,
      "hit": false,
      "t": 107729.79403333199,
      "d": 495.573866666673,
      "v": 103
    },
    {
      "midi": 54,
      "hit": false,
      "t": 107995.28003333199,
      "d": 159.29159999999683,
      "v": 106
    },
    {
      "midi": 57,
      "hit": false,
      "t": 107999.70479999865,
      "d": 212.38880000000063,
      "v": 98
    },
    {
      "midi": 62,
      "hit": false,
      "t": 107999.70479999865,
      "d": 438.05190000000584,
      "v": 103
    },
    {
      "midi": 43,
      "hit": false,
      "t": 108287.31463333199,
      "d": 358.406100000022,
      "v": 108
    },
    {
      "midi": 55,
      "hit": false,
      "t": 108535.10156666533,
      "d": 79.64580000001297,
      "v": 102
    },
    {
      "midi": 62,
      "hit": false,
      "t": 108535.10156666533,
      "d": 79.64580000001297,
      "v": 83
    },
    {
      "midi": 58,
      "hit": false,
      "t": 108548.37586666533,
      "d": 53.097200000003795,
      "v": 90
    },
    {
      "midi": 62,
      "hit": false,
      "t": 108672.269333332,
      "d": 176.99066666666477,
      "v": 87
    },
    {
      "midi": 55,
      "hit": false,
      "t": 108676.69409999867,
      "d": 141.59253333334345,
      "v": 97
    },
    {
      "midi": 58,
      "hit": false,
      "t": 108676.69409999867,
      "d": 150.44206666667014,
      "v": 84
    },
    {
      "midi": 38,
      "hit": false,
      "t": 108805.01233333201,
      "d": 544.2462999999843,
      "v": 102
    },
    {
      "midi": 62,
      "hit": false,
      "t": 109039.52496666534,
      "d": 75.22103333332052,
      "v": 98
    },
    {
      "midi": 55,
      "hit": false,
      "t": 109043.949733332,
      "d": 61.946733333330485,
      "v": 102
    },
    {
      "midi": 58,
      "hit": false,
      "t": 109048.37449999867,
      "d": 44.24766666666255,
      "v": 85
    },
    {
      "midi": 55,
      "hit": false,
      "t": 109194.39179999866,
      "d": 150.44206666667014,
      "v": 96
    },
    {
      "midi": 58,
      "hit": false,
      "t": 109194.39179999866,
      "d": 181.4154333333281,
      "v": 97
    },
    {
      "midi": 62,
      "hit": false,
      "t": 109194.39179999866,
      "d": 181.4154333333281,
      "v": 91
    },
    {
      "midi": 43,
      "hit": false,
      "t": 109331.55956666532,
      "d": 517.6976999999752,
      "v": 105
    },
    {
      "midi": 55,
      "hit": false,
      "t": 109579.34649999865,
      "d": 61.946733333330485,
      "v": 100
    },
    {
      "midi": 62,
      "hit": false,
      "t": 109579.34649999865,
      "d": 61.946733333330485,
      "v": 95
    },
    {
      "midi": 58,
      "hit": false,
      "t": 109583.77126666531,
      "d": 44.24766666666255,
      "v": 82
    },
    {
      "midi": 62,
      "hit": false,
      "t": 109716.51426666531,
      "d": 212.38879999998608,
      "v": 93
    },
    {
      "midi": 55,
      "hit": false,
      "t": 109725.36379999864,
      "d": 172.56589999998687,
      "v": 97
    },
    {
      "midi": 58,
      "hit": false,
      "t": 109725.36379999864,
      "d": 212.38879999998608,
      "v": 91
    },
    {
      "midi": 38,
      "hit": false,
      "t": 109853.68203333196,
      "d": 278.76029999999446,
      "v": 102
    },
    {
      "midi": 43,
      "hit": false,
      "t": 110105.89373333196,
      "d": 101.76963333331514,
      "v": 105
    },
    {
      "midi": 58,
      "hit": false,
      "t": 110110.31849999863,
      "d": 88.4953333333251,
      "v": 91
    },
    {
      "midi": 62,
      "hit": false,
      "t": 110110.31849999863,
      "d": 97.3448666666518,
      "v": 95
    },
    {
      "midi": 55,
      "hit": false,
      "t": 110119.16803333195,
      "d": 75.22103333333507,
      "v": 96
    },
    {
      "midi": 48,
      "hit": false,
      "t": 110402.35309999861,
      "d": 508.84816666664847,
      "v": 111
    },
    {
      "midi": 63,
      "hit": false,
      "t": 110455.45029999861,
      "d": 70.79626666665717,
      "v": 38
    },
    {
      "midi": 60,
      "hit": false,
      "t": 110459.87506666528,
      "d": 57.52196666666714,
      "v": 44
    },
    {
      "midi": 55,
      "hit": false,
      "t": 110658.98956666527,
      "d": 75.22103333332052,
      "v": 95
    },
    {
      "midi": 60,
      "hit": false,
      "t": 110658.98956666527,
      "d": 75.22103333332052,
      "v": 85
    },
    {
      "midi": 63,
      "hit": false,
      "t": 110667.8390999986,
      "d": 79.64579999999842,
      "v": 77
    },
    {
      "midi": 60,
      "hit": false,
      "t": 110809.43163333193,
      "d": 190.2649666666548,
      "v": 85
    },
    {
      "midi": 63,
      "hit": false,
      "t": 110813.85639999859,
      "d": 221.23833333332732,
      "v": 85
    },
    {
      "midi": 55,
      "hit": false,
      "t": 110818.28116666526,
      "d": 172.56590000000142,
      "v": 98
    },
    {
      "midi": 43,
      "hit": false,
      "t": 110928.90033333193,
      "d": 522.122466666653,
      "v": 106
    },
    {
      "midi": 63,
      "hit": false,
      "t": 111185.53679999859,
      "d": 84.07056666666176,
      "v": 87
    },
    {
      "midi": 60,
      "hit": false,
      "t": 111189.96156666525,
      "d": 61.946733333330485,
      "v": 92
    },
    {
      "midi": 55,
      "hit": false,
      "t": 111189.96156666525,
      "d": 66.37149999999383,
      "v": 97
    },
    {
      "midi": 60,
      "hit": false,
      "t": 111340.40363333192,
      "d": 176.99066666666477,
      "v": 83
    },
    {
      "midi": 55,
      "hit": false,
      "t": 111344.82839999859,
      "d": 168.14113333333808,
      "v": 99
    },
    {
      "midi": 63,
      "hit": false,
      "t": 111344.82839999859,
      "d": 207.96403333333728,
      "v": 89
    },
    {
      "midi": 48,
      "hit": false,
      "t": 111464.29709999858,
      "d": 460.17573333332257,
      "v": 112
    },
    {
      "midi": 55,
      "hit": false,
      "t": 111734.20786666525,
      "d": 48.6724333333259,
      "v": 94
    },
    {
      "midi": 63,
      "hit": false,
      "t": 111734.20786666525,
      "d": 70.79626666665717,
      "v": 87
    },
    {
      "midi": 60,
      "hit": false,
      "t": 111738.63263333192,
      "d": 44.24766666666255,
      "v": 87
    },
    {
      "midi": 55,
      "hit": false,
      "t": 111866.95086666524,
      "d": 212.38880000000063,
      "v": 100
    },
    {
      "midi": 60,
      "hit": false,
      "t": 111866.95086666524,
      "d": 221.23833333332732,
      "v": 84
    },
    {
      "midi": 63,
      "hit": false,
      "t": 111871.3756333319,
      "d": 243.3621666666586,
      "v": 90
    },
    {
      "midi": 43,
      "hit": false,
      "t": 111990.8443333319,
      "d": 269.9107666666532,
      "v": 101
    },
    {
      "midi": 63,
      "hit": false,
      "t": 112251.90556666523,
      "d": 159.29159999999683,
      "v": 86
    },
    {
      "midi": 55,
      "hit": false,
      "t": 112256.33033333189,
      "d": 119.46869999999763,
      "v": 105
    },
    {
      "midi": 48,
      "hit": false,
      "t": 112265.17986666522,
      "d": 115.04393333333428,
      "v": 105
    },
    {
      "midi": 60,
      "hit": false,
      "t": 112269.60463333188,
      "d": 92.920100000003,
      "v": 91
    },
    {
      "midi": 50,
      "hit": false,
      "t": 112539.51539999856,
      "d": 477.87479999997595,
      "v": 117
    },
    {
      "midi": 62,
      "hit": false,
      "t": 112791.72709999856,
      "d": 97.3448666666518,
      "v": 96
    },
    {
      "midi": 54,
      "hit": false,
      "t": 112796.15186666523,
      "d": 57.52196666665259,
      "v": 89
    },
    {
      "midi": 57,
      "hit": false,
      "t": 112805.00139999855,
      "d": 39.82289999999921,
      "v": 89
    },
    {
      "midi": 62,
      "hit": false,
      "t": 112924.47009999855,
      "d": 287.60983333332115,
      "v": 57
    },
    {
      "midi": 54,
      "hit": false,
      "t": 112928.89486666521,
      "d": 243.3621666666586,
      "v": 95
    },
    {
      "midi": 57,
      "hit": false,
      "t": 112933.31963333188,
      "d": 274.3355333333311,
      "v": 94
    },
    {
      "midi": 45,
      "hit": false,
      "t": 113057.21309999854,
      "d": 539.821533333321,
      "v": 109
    },
    {
      "midi": 57,
      "hit": false,
      "t": 113344.82293333187,
      "d": 88.4953333333251,
      "v": 93
    },
    {
      "midi": 54,
      "hit": false,
      "t": 113349.24769999854,
      "d": 66.37149999999383,
      "v": 90
    },
    {
      "midi": 62,
      "hit": false,
      "t": 113349.24769999854,
      "d": 84.07056666666176,
      "v": 100
    },
    {
      "midi": 54,
      "hit": false,
      "t": 113481.99069999854,
      "d": 207.96403333332273,
      "v": 91
    },
    {
      "midi": 62,
      "hit": false,
      "t": 113486.4154666652,
      "d": 238.93739999999525,
      "v": 95
    },
    {
      "midi": 57,
      "hit": false,
      "t": 113490.84023333187,
      "d": 252.21169999999984,
      "v": 91
    },
    {
      "midi": 50,
      "hit": false,
      "t": 113614.73369999853,
      "d": 482.29956666665385,
      "v": 115
    },
    {
      "midi": 54,
      "hit": false,
      "t": 113880.21969999853,
      "d": 75.22103333332052,
      "v": 91
    },
    {
      "midi": 62,
      "hit": false,
      "t": 113880.21969999853,
      "d": 97.3448666666518,
      "v": 98
    },
    {
      "midi": 57,
      "hit": false,
      "t": 113889.06923333186,
      "d": 57.52196666666714,
      "v": 86
    },
    {
      "midi": 62,
      "hit": false,
      "t": 114012.96269999852,
      "d": 261.0612333333265,
      "v": 73
    },
    {
      "midi": 54,
      "hit": false,
      "t": 114017.38746666518,
      "d": 234.5126333333319,
      "v": 81
    },
    {
      "midi": 57,
      "hit": false,
      "t": 114030.66176666519,
      "d": 261.0612333333265,
      "v": 96
    },
    {
      "midi": 45,
      "hit": false,
      "t": 114132.43139999852,
      "d": 292.0345999999845,
      "v": 104
    },
    {
      "midi": 54,
      "hit": false,
      "t": 114384.64309999852,
      "d": 123.89346666664642,
      "v": 104
    },
    {
      "midi": 62,
      "hit": false,
      "t": 114389.06786666518,
      "d": 146.0172999999777,
      "v": 102
    },
    {
      "midi": 50,
      "hit": false,
      "t": 114397.9173999985,
      "d": 123.89346666666097,
      "v": 112
    },
    {
      "midi": 57,
      "hit": false,
      "t": 114397.9173999985,
      "d": 132.74299999998766,
      "v": 89
    },
    {
      "midi": 51,
      "hit": false,
      "t": 114672.25293333182,
      "d": 407.0785333333042,
      "v": 117
    },
    {
      "midi": 63,
      "hit": false,
      "t": 114698.80153333182,
      "d": 57.52196666666714,
      "v": 64
    },
    {
      "midi": 54,
      "hit": false,
      "t": 114712.07583333182,
      "d": 39.82289999999921,
      "v": 47
    },
    {
      "midi": 63,
      "hit": false,
      "t": 114902.34079999849,
      "d": 464.6004999999859,
      "v": 98
    },
    {
      "midi": 54,
      "hit": false,
      "t": 114911.19033333182,
      "d": 61.946733333330485,
      "v": 100
    },
    {
      "midi": 57,
      "hit": false,
      "t": 114915.61509999848,
      "d": 66.37149999999383,
      "v": 99
    },
    {
      "midi": 54,
      "hit": false,
      "t": 115043.9333333318,
      "d": 261.0612333333265,
      "v": 98
    },
    {
      "midi": 57,
      "hit": false,
      "t": 115052.78286666513,
      "d": 300.8841333333403,
      "v": 105
    },
    {
      "midi": 51,
      "hit": false,
      "t": 115176.6763333318,
      "d": 398.22900000000664,
      "v": 96
    },
    {
      "midi": 63,
      "hit": false,
      "t": 115468.71093333181,
      "d": 637.1663999999873,
      "v": 109
    },
    {
      "midi": 54,
      "hit": false,
      "t": 115473.13569999847,
      "d": 420.35283333332336,
      "v": 112
    },
    {
      "midi": 57,
      "hit": false,
      "t": 115481.9852333318,
      "d": 619.467333333334,
      "v": 111
    },
    {
      "midi": 51,
      "hit": false,
      "t": 115756.32076666513,
      "d": 668.1397666666744,
      "v": 98
    },
    {
      "midi": 54,
      "hit": false,
      "t": 116026.2315333318,
      "d": 159.29159999999683,
      "v": 93
    },
    {
      "midi": 63,
      "hit": false,
      "t": 116278.4432333318,
      "d": 367.2556333333341,
      "v": 103
    },
    {
      "midi": 54,
      "hit": false,
      "t": 116282.86799999846,
      "d": 318.5832000000082,
      "v": 110
    },
    {
      "midi": 57,
      "hit": false,
      "t": 116296.14229999846,
      "d": 234.5126333333319,
      "v": 103
    },
    {
      "midi": 51,
      "hit": false,
      "t": 116526.23016666513,
      "d": 97.34486666666635,
      "v": 98
    },
    {
      "midi": 43,
      "hit": false,
      "t": 116800.56569999846,
      "d": 402.6537666666409,
      "v": 113
    },
    {
      "midi": 55,
      "hit": false,
      "t": 116804.99046666513,
      "d": 132.74299999998766,
      "v": 108
    },
    {
      "midi": 62,
      "hit": false,
      "t": 116809.41523333179,
      "d": 163.71636666666018,
      "v": 102
    },
    {
      "midi": 58,
      "hit": false,
      "t": 116813.83999999845,
      "d": 190.26496666666935,
      "v": 96
    },
    {
      "midi": 55,
      "hit": false,
      "t": 117083.75076666512,
      "d": 256.63646666664863,
      "v": 99
    },
    {
      "midi": 58,
      "hit": false,
      "t": 117088.17553333179,
      "d": 53.09719999998924,
      "v": 71
    },
    {
      "midi": 62,
      "hit": false,
      "t": 117097.02506666511,
      "d": 39.82289999999921,
      "v": 76
    },
    {
      "midi": 62,
      "hit": false,
      "t": 117189.94516666511,
      "d": 181.4154333333281,
      "v": 91
    },
    {
      "midi": 58,
      "hit": false,
      "t": 117194.36993333178,
      "d": 181.4154333333281,
      "v": 81
    },
    {
      "midi": 38,
      "hit": false,
      "t": 117335.9624666651,
      "d": 358.4060999999929,
      "v": 106
    },
    {
      "midi": 58,
      "hit": false,
      "t": 117605.87323333177,
      "d": 716.8122000000003,
      "v": 112
    },
    {
      "midi": 62,
      "hit": false,
      "t": 117605.87323333177,
      "d": 823.0065999999788,
      "v": 117
    },
    {
      "midi": 55,
      "hit": false,
      "t": 117610.29799999844,
      "d": 716.8122000000003,
      "v": 118
    },
    {
      "midi": 43,
      "hit": false,
      "t": 117880.2087666651,
      "d": 137.16776666666556,
      "v": 113
    },
    {
      "midi": 70,
      "hit": false,
      "t": 118110.29663333177,
      "d": 97.34486666666635,
      "v": 66
    },
    {
      "midi": 43,
      "hit": false,
      "t": 118145.69476666511,
      "d": 106.19439999999304,
      "v": 112
    },
    {
      "midi": 82,
      "hit": false,
      "t": 118145.69476666511,
      "d": 106.19439999999304,
      "v": 112
    },
    {
      "midi": 69,
      "hit": false,
      "t": 118393.48169999843,
      "d": 61.94673333331593,
      "v": 111
    },
    {
      "midi": 81,
      "hit": false,
      "t": 118397.9064666651,
      "d": 57.52196666665259,
      "v": 111
    },
    {
      "midi": 42,
      "hit": false,
      "t": 118406.75599999842,
      "d": 97.34486666666635,
      "v": 108
    },
    {
      "midi": 79,
      "hit": false,
      "t": 118636.84386666509,
      "d": 66.37149999997928,
      "v": 111
    },
    {
      "midi": 67,
      "hit": false,
      "t": 118641.26863333175,
      "d": 66.37149999997928,
      "v": 103
    },
    {
      "midi": 40,
      "hit": false,
      "t": 118667.81723333175,
      "d": 88.4953333333251,
      "v": 110
    },
    {
      "midi": 62,
      "hit": false,
      "t": 118676.66676666508,
      "d": 389.37946666665084,
      "v": 28
    },
    {
      "midi": 66,
      "hit": false,
      "t": 118915.60416666507,
      "d": 2362.825399999958,
      "v": 112
    },
    {
      "midi": 78,
      "hit": false,
      "t": 118915.60416666507,
      "d": 2380.524466666626,
      "v": 118
    },
    {
      "midi": 38,
      "hit": false,
      "t": 118942.15276666507,
      "d": 544.2462999999843,
      "v": 118
    },
    {
      "midi": 62,
      "hit": false,
      "t": 119181.09016666506,
      "d": 97.3448666666518,
      "v": 91
    },
    {
      "midi": 54,
      "hit": false,
      "t": 119185.51493333172,
      "d": 66.37149999999383,
      "v": 92
    },
    {
      "midi": 57,
      "hit": false,
      "t": 119194.36446666505,
      "d": 48.67243333334045,
      "v": 86
    },
    {
      "midi": 54,
      "hit": false,
      "t": 119335.95699999838,
      "d": 190.26496666666935,
      "v": 89
    },
    {
      "midi": 62,
      "hit": false,
      "t": 119344.8065333317,
      "d": 216.81356666667853,
      "v": 100
    },
    {
      "midi": 57,
      "hit": false,
      "t": 119344.8065333317,
      "d": 225.66310000000522,
      "v": 84
    },
    {
      "midi": 45,
      "hit": false,
      "t": 119473.12476666505,
      "d": 517.6977000000043,
      "v": 109
    },
    {
      "midi": 57,
      "hit": false,
      "t": 119720.91169999838,
      "d": 376.10516666667536,
      "v": 90
    },
    {
      "midi": 54,
      "hit": false,
      "t": 119725.33646666505,
      "d": 358.4061000000074,
      "v": 91
    },
    {
      "midi": 62,
      "hit": false,
      "t": 119725.33646666505,
      "d": 358.4061000000074,
      "v": 96
    },
    {
      "midi": 50,
      "hit": false,
      "t": 119995.24723333171,
      "d": 539.821533333321,
      "v": 111
    },
    {
      "midi": 54,
      "hit": false,
      "t": 120234.18463333172,
      "d": 75.22103333333507,
      "v": 79
    },
    {
      "midi": 62,
      "hit": false,
      "t": 120238.60939999839,
      "d": 57.52196666666714,
      "v": 79
    },
    {
      "midi": 57,
      "hit": false,
      "t": 120251.88369999839,
      "d": 39.82289999999921,
      "v": 81
    },
    {
      "midi": 54,
      "hit": false,
      "t": 120371.35239999839,
      "d": 194.68973333331815,
      "v": 80
    },
    {
      "midi": 62,
      "hit": false,
      "t": 120375.77716666505,
      "d": 230.087866666654,
      "v": 93
    },
    {
      "midi": 57,
      "hit": false,
      "t": 120384.62669999838,
      "d": 212.38880000000063,
      "v": 83
    },
    {
      "midi": 45,
      "hit": false,
      "t": 120490.82109999837,
      "d": 278.7602999999799,
      "v": 104
    },
    {
      "midi": 54,
      "hit": false,
      "t": 120747.45756666503,
      "d": 70.79626666665717,
      "v": 100
    },
    {
      "midi": 62,
      "hit": false,
      "t": 120751.8823333317,
      "d": 123.89346666666097,
      "v": 97
    },
    {
      "midi": 57,
      "hit": false,
      "t": 120756.30709999836,
      "d": 75.22103333333507,
      "v": 91
    },
    {
      "midi": 50,
      "hit": false,
      "t": 120760.73186666502,
      "d": 92.920100000003,
      "v": 106
    },
    {
      "midi": 43,
      "hit": false,
      "t": 121021.79309999837,
      "d": 358.4060999999783,
      "v": 114
    },
    {
      "midi": 55,
      "hit": false,
      "t": 121274.00479999837,
      "d": 30.973366666657967,
      "v": 98
    },
    {
      "midi": 62,
      "hit": false,
      "t": 121274.00479999837,
      "d": 35.39813333332131,
      "v": 90
    },
    {
      "midi": 58,
      "hit": false,
      "t": 121282.85433333169,
      "d": 35.39813333332131,
      "v": 78
    },
    {
      "midi": 55,
      "hit": false,
      "t": 121411.17256666502,
      "d": 97.3448666666518,
      "v": 105
    },
    {
      "midi": 62,
      "hit": false,
      "t": 121411.17256666502,
      "d": 97.3448666666518,
      "v": 92
    },
    {
      "midi": 58,
      "hit": false,
      "t": 121420.02209999834,
      "d": 66.37149999999383,
      "v": 85
    },
    {
      "midi": 38,
      "hit": false,
      "t": 121552.76509999833,
      "d": 305.3088999999891,
      "v": 97
    },
    {
      "midi": 62,
      "hit": false,
      "t": 121809.401566665,
      "d": 398.2289999999921,
      "v": 112
    },
    {
      "midi": 55,
      "hit": false,
      "t": 121813.82633333166,
      "d": 362.8308666666708,
      "v": 112
    },
    {
      "midi": 58,
      "hit": false,
      "t": 121818.25109999832,
      "d": 362.8308666666708,
      "v": 95
    },
    {
      "midi": 43,
      "hit": false,
      "t": 122105.86093333166,
      "d": 451.3261999999668,
      "v": 106
    },
    {
      "midi": 62,
      "hit": false,
      "t": 122362.49739999832,
      "d": 57.521966666638036,
      "v": 95
    },
    {
      "midi": 55,
      "hit": false,
      "t": 122371.34693333165,
      "d": 35.39813333332131,
      "v": 100
    },
    {
      "midi": 58,
      "hit": false,
      "t": 122380.19646666497,
      "d": 30.973366666657967,
      "v": 79
    },
    {
      "midi": 62,
      "hit": false,
      "t": 122499.66516666496,
      "d": 247.7869333333365,
      "v": 96
    },
    {
      "midi": 55,
      "hit": false,
      "t": 122508.51469999828,
      "d": 199.1145000000106,
      "v": 99
    },
    {
      "midi": 58,
      "hit": false,
      "t": 122508.51469999828,
      "d": 225.66310000000522,
      "v": 95
    },
    {
      "midi": 38,
      "hit": false,
      "t": 122632.40816666496,
      "d": 380.52993333332415,
      "v": 100
    },
    {
      "midi": 58,
      "hit": false,
      "t": 122897.89416666496,
      "d": 48.6724333333259,
      "v": 84
    },
    {
      "midi": 55,
      "hit": false,
      "t": 122902.31893333163,
      "d": 35.39813333333586,
      "v": 95
    },
    {
      "midi": 62,
      "hit": false,
      "t": 122902.31893333163,
      "d": 39.82289999999921,
      "v": 86
    },
    {
      "midi": 58,
      "hit": false,
      "t": 123021.78763333161,
      "d": 119.46869999999763,
      "v": 91
    },
    {
      "midi": 62,
      "hit": false,
      "t": 123021.78763333161,
      "d": 128.31823333332432,
      "v": 91
    },
    {
      "midi": 55,
      "hit": false,
      "t": 123030.63716666494,
      "d": 92.920100000003,
      "v": 98
    },
    {
      "midi": 48,
      "hit": false,
      "t": 123185.50399999827,
      "d": 469.0252666666638,
      "v": 116
    },
    {
      "midi": 55,
      "hit": false,
      "t": 123428.86616666494,
      "d": 70.79626666665717,
      "v": 93
    },
    {
      "midi": 60,
      "hit": false,
      "t": 123433.2909333316,
      "d": 66.37149999999383,
      "v": 82
    },
    {
      "midi": 63,
      "hit": false,
      "t": 123437.71569999827,
      "d": 79.64579999999842,
      "v": 79
    },
    {
      "midi": 55,
      "hit": false,
      "t": 123570.45869999827,
      "d": 146.01729999999225,
      "v": 89
    },
    {
      "midi": 60,
      "hit": false,
      "t": 123570.45869999827,
      "d": 154.86683333331894,
      "v": 94
    },
    {
      "midi": 63,
      "hit": false,
      "t": 123570.45869999827,
      "d": 190.2649666666548,
      "v": 76
    },
    {
      "midi": 43,
      "hit": false,
      "t": 123694.35216666493,
      "d": 522.122466666653,
      "v": 104
    },
    {
      "midi": 63,
      "hit": false,
      "t": 123942.13909999825,
      "d": 101.7696333333297,
      "v": 86
    },
    {
      "midi": 55,
      "hit": false,
      "t": 123946.56386666492,
      "d": 70.79626666667173,
      "v": 95
    },
    {
      "midi": 60,
      "hit": false,
      "t": 123946.56386666492,
      "d": 75.22103333333507,
      "v": 90
    },
    {
      "midi": 55,
      "hit": false,
      "t": 124097.00593333159,
      "d": 132.7430000000022,
      "v": 96
    },
    {
      "midi": 60,
      "hit": false,
      "t": 124097.00593333159,
      "d": 146.0173000000068,
      "v": 85
    },
    {
      "midi": 63,
      "hit": false,
      "t": 124105.85546666491,
      "d": 168.14113333335263,
      "v": 92
    },
    {
      "midi": 48,
      "hit": false,
      "t": 124216.47463333159,
      "d": 473.45003333332716,
      "v": 105
    },
    {
      "midi": 63,
      "hit": false,
      "t": 124481.9606333316,
      "d": 79.64579999998386,
      "v": 83
    },
    {
      "midi": 60,
      "hit": false,
      "t": 124486.38539999827,
      "d": 44.24766666666255,
      "v": 87
    },
    {
      "midi": 55,
      "hit": false,
      "t": 124486.38539999827,
      "d": 48.6724333333259,
      "v": 92
    },
    {
      "midi": 60,
      "hit": false,
      "t": 124619.12839999826,
      "d": 216.81356666666397,
      "v": 82
    },
    {
      "midi": 55,
      "hit": false,
      "t": 124623.55316666492,
      "d": 199.11449999999604,
      "v": 98
    },
    {
      "midi": 63,
      "hit": false,
      "t": 124623.55316666492,
      "d": 238.93739999999525,
      "v": 82
    },
    {
      "midi": 43,
      "hit": false,
      "t": 124743.02186666492,
      "d": 256.6364666666632,
      "v": 101
    },
    {
      "midi": 63,
      "hit": false,
      "t": 124999.65833333158,
      "d": 159.29159999999683,
      "v": 90
    },
    {
      "midi": 55,
      "hit": false,
      "t": 125004.08309999824,
      "d": 101.7696333333297,
      "v": 104
    },
    {
      "midi": 48,
      "hit": false,
      "t": 125004.08309999824,
      "d": 119.46869999999763,
      "v": 104
    },
    {
      "midi": 60,
      "hit": false,
      "t": 125012.93263333157,
      "d": 97.34486666666635,
      "v": 93
    },
    {
      "midi": 50,
      "hit": false,
      "t": 125273.99386666491,
      "d": 491.1490999999951,
      "v": 112
    },
    {
      "midi": 63,
      "hit": false,
      "t": 125296.11769999824,
      "d": 39.82289999999921,
      "v": 63
    },
    {
      "midi": 54,
      "hit": false,
      "t": 125526.20556666491,
      "d": 66.37150000000838,
      "v": 92
    },
    {
      "midi": 62,
      "hit": false,
      "t": 125526.20556666491,
      "d": 97.34486666666635,
      "v": 95
    },
    {
      "midi": 57,
      "hit": false,
      "t": 125539.47986666491,
      "d": 79.64579999999842,
      "v": 89
    },
    {
      "midi": 54,
      "hit": false,
      "t": 125672.22286666492,
      "d": 225.66309999999066,
      "v": 87
    },
    {
      "midi": 62,
      "hit": false,
      "t": 125676.64763333158,
      "d": 269.9107666666532,
      "v": 90
    },
    {
      "midi": 57,
      "hit": false,
      "t": 125685.4971666649,
      "d": 256.6364666666632,
      "v": 86
    },
    {
      "midi": 45,
      "hit": false,
      "t": 125800.54109999824,
      "d": 535.3967666666431,
      "v": 104
    },
    {
      "midi": 54,
      "hit": false,
      "t": 126074.87663333157,
      "d": 70.79626666665717,
      "v": 91
    },
    {
      "midi": 62,
      "hit": false,
      "t": 126083.7261666649,
      "d": 79.64579999999842,
      "v": 93
    },
    {
      "midi": 57,
      "hit": false,
      "t": 126088.15093333156,
      "d": 53.097200000003795,
      "v": 86
    },
    {
      "midi": 54,
      "hit": false,
      "t": 126220.89393333156,
      "d": 181.41543333331356,
      "v": 94
    },
    {
      "midi": 62,
      "hit": false,
      "t": 126225.31869999823,
      "d": 225.66309999999066,
      "v": 92
    },
    {
      "midi": 57,
      "hit": false,
      "t": 126234.16823333155,
      "d": 221.23833333332732,
      "v": 99
    },
    {
      "midi": 50,
      "hit": false,
      "t": 126344.78739999821,
      "d": 451.3261999999959,
      "v": 106
    },
    {
      "midi": 62,
      "hit": false,
      "t": 126627.97246666488,
      "d": 48.6724333333259,
      "v": 84
    },
    {
      "midi": 54,
      "hit": false,
      "t": 126632.39723333155,
      "d": 44.24766666666255,
      "v": 69
    },
    {
      "midi": 57,
      "hit": false,
      "t": 126632.39723333155,
      "d": 48.6724333333259,
      "v": 82
    },
    {
      "midi": 54,
      "hit": false,
      "t": 126756.29069999821,
      "d": 221.23833333332732,
      "v": 75
    },
    {
      "midi": 62,
      "hit": false,
      "t": 126756.29069999821,
      "d": 265.4859999999899,
      "v": 98
    },
    {
      "midi": 57,
      "hit": false,
      "t": 126769.56499999821,
      "d": 256.63646666664863,
      "v": 97
    },
    {
      "midi": 45,
      "hit": false,
      "t": 126871.33463333154,
      "d": 287.6098333333066,
      "v": 96
    },
    {
      "midi": 50,
      "hit": false,
      "t": 127141.2453999982,
      "d": 97.3448666666518,
      "v": 97
    },
    {
      "midi": 54,
      "hit": false,
      "t": 127141.2453999982,
      "d": 128.31823333332432,
      "v": 98
    },
    {
      "midi": 62,
      "hit": false,
      "t": 127141.2453999982,
      "d": 154.86683333331894,
      "v": 96
    },
    {
      "midi": 57,
      "hit": false,
      "t": 127150.09493333152,
      "d": 203.5392666666594,
      "v": 86
    },
    {
      "midi": 51,
      "hit": false,
      "t": 127428.85523333152,
      "d": 429.2023666666646,
      "v": 99
    },
    {
      "midi": 63,
      "hit": false,
      "t": 127667.79263333151,
      "d": 101.76963333334425,
      "v": 89
    },
    {
      "midi": 57,
      "hit": false,
      "t": 127681.06693333152,
      "d": 66.37150000000838,
      "v": 90
    },
    {
      "midi": 54,
      "hit": false,
      "t": 127685.49169999818,
      "d": 30.97336666667252,
      "v": 80
    },
    {
      "midi": 63,
      "hit": false,
      "t": 127809.38516666486,
      "d": 265.4859999999899,
      "v": 87
    },
    {
      "midi": 54,
      "hit": false,
      "t": 127818.23469999818,
      "d": 199.11449999999604,
      "v": 93
    },
    {
      "midi": 57,
      "hit": false,
      "t": 127827.08423333151,
      "d": 243.36216666667315,
      "v": 96
    },
    {
      "midi": 51,
      "hit": false,
      "t": 127955.40246666485,
      "d": 292.03459999999905,
      "v": 73
    },
    {
      "midi": 63,
      "hit": false,
      "t": 128207.61416666485,
      "d": 464.60050000000047,
      "v": 101
    },
    {
      "midi": 54,
      "hit": false,
      "t": 128212.03893333151,
      "d": 376.10516666667536,
      "v": 109
    },
    {
      "midi": 57,
      "hit": false,
      "t": 128216.46369999817,
      "d": 438.05190000000584,
      "v": 102
    },
    {
      "midi": 51,
      "hit": false,
      "t": 128495.22399999818,
      "d": 455.7509666666592,
      "v": 96
    },
    {
      "midi": 54,
      "hit": false,
      "t": 128743.01093333152,
      "d": 75.22103333333507,
      "v": 96
    },
    {
      "midi": 63,
      "hit": false,
      "t": 128858.05486666485,
      "d": 287.60983333332115,
      "v": 94
    },
    {
      "midi": 54,
      "hit": false,
      "t": 128866.90439999818,
      "d": 234.5126333333319,
      "v": 55
    },
    {
      "midi": 57,
      "hit": false,
      "t": 128875.7539333315,
      "d": 274.3355333333311,
      "v": 93
    },
    {
      "midi": 51,
      "hit": false,
      "t": 129043.89506666485,
      "d": 283.1850666666578,
      "v": 95
    },
    {
      "midi": 54,
      "hit": false,
      "t": 129260.70863333151,
      "d": 110.61916666667094,
      "v": 106
    },
    {
      "midi": 63,
      "hit": false,
      "t": 129260.70863333151,
      "d": 150.44206666667014,
      "v": 99
    },
    {
      "midi": 57,
      "hit": false,
      "t": 129282.83246666484,
      "d": 75.22103333333507,
      "v": 97
    },
    {
      "midi": 46,
      "hit": false,
      "t": 129526.19463333151,
      "d": 685.8388333333569,
      "v": 108
    },
    {
      "midi": 58,
      "hit": false,
      "t": 129561.59276666485,
      "d": 79.64580000001297,
      "v": 47
    },
    {
      "midi": 65,
      "hit": false,
      "t": 129579.29183333152,
      "d": 88.49533333333966,
      "v": 62
    },
    {
      "midi": 61,
      "hit": false,
      "t": 129579.29183333152,
      "d": 128.31823333333887,
      "v": 75
    },
    {
      "midi": 64,
      "hit": false,
      "t": 129592.56613333152,
      "d": 35.39813333333586,
      "v": 55
    },
    {
      "midi": 65,
      "hit": false,
      "t": 129809.37969999819,
      "d": 318.5832000000082,
      "v": 71
    },
    {
      "midi": 58,
      "hit": false,
      "t": 129862.47689999819,
      "d": 92.920100000003,
      "v": 57
    },
    {
      "midi": 61,
      "hit": false,
      "t": 130043.89233333153,
      "d": 119.46869999999763,
      "v": 90
    },
    {
      "midi": 56,
      "hit": false,
      "t": 130048.3170999982,
      "d": 97.34486666666635,
      "v": 78
    },
    {
      "midi": 65,
      "hit": false,
      "t": 130322.65263333154,
      "d": 623.8920999999973,
      "v": 105
    },
    {
      "midi": 61,
      "hit": false,
      "t": 130331.50216666487,
      "d": 561.9453666666668,
      "v": 99
    },
    {
      "midi": 46,
      "hit": false,
      "t": 130331.50216666487,
      "d": 1199.1117666666687,
      "v": 103
    },
    {
      "midi": 56,
      "hit": false,
      "t": 130335.92693333153,
      "d": 128.31823333333887,
      "v": 94
    },
    {
      "midi": 58,
      "hit": false,
      "t": 130853.62463333154,
      "d": 132.7430000000022,
      "v": 87
    },
    {
      "midi": 65,
      "hit": false,
      "t": 131141.23446666487,
      "d": 389.3794666666654,
      "v": 110
    },
    {
      "midi": 58,
      "hit": false,
      "t": 131145.65923333153,
      "d": 292.0345999999845,
      "v": 103
    },
    {
      "midi": 61,
      "hit": false,
      "t": 131150.0839999982,
      "d": 358.4060999999929,
      "v": 102
    },
    {
      "midi": 61,
      "hit": false,
      "t": 131658.93216666486,
      "d": 106.19440000000759,
      "v": 103
    },
    {
      "midi": 62,
      "hit": false,
      "t": 131800.5246999982,
      "d": 274.3355333333311,
      "v": 103
    },
    {
      "midi": 64,
      "hit": false,
      "t": 131915.56863333154,
      "d": 185.840200000006,
      "v": 85
    },
    {
      "midi": 66,
      "hit": false,
      "t": 132066.0106999982,
      "d": 181.41543333334266,
      "v": 93
    },
    {
      "midi": 67,
      "hit": false,
      "t": 132203.1784666649,
      "d": 110.61916666667094,
      "v": 115
    },
    {
      "midi": 67,
      "hit": false,
      "t": 132450.96539999824,
      "d": 482.29956666665385,
      "v": 120
    },
    {
      "midi": 66,
      "hit": false,
      "t": 132964.23833333157,
      "d": 331.8574999999837,
      "v": 108
    },
    {
      "midi": 64,
      "hit": false,
      "t": 133247.42339999822,
      "d": 499.99863333333633,
      "v": 114
    },
    {
      "midi": 66,
      "hit": false,
      "t": 133765.1210999982,
      "d": 128.31823333332432,
      "v": 99
    },
    {
      "midi": 67,
      "hit": false,
      "t": 133906.71363333153,
      "d": 132.74299999998766,
      "v": 104
    },
    {
      "midi": 69,
      "hit": false,
      "t": 134030.6070999982,
      "d": 230.08786666666856,
      "v": 96
    },
    {
      "midi": 71,
      "hit": false,
      "t": 134181.04916666486,
      "d": 168.14113333335263,
      "v": 90
    },
    {
      "midi": 72,
      "hit": false,
      "t": 134282.8187999982,
      "d": 150.44206666667014,
      "v": 103
    },
    {
      "midi": 72,
      "hit": false,
      "t": 134548.3047999982,
      "d": 597.3434999999881,
      "v": 121
    },
    {
      "midi": 71,
      "hit": false,
      "t": 135061.57773333153,
      "d": 318.58319999999367,
      "v": 118
    },
    {
      "midi": 69,
      "hit": false,
      "t": 135340.33803333153,
      "d": 455.7509666666738,
      "v": 115
    },
    {
      "midi": 70,
      "hit": false,
      "t": 135880.15956666486,
      "d": 225.66310000000522,
      "v": 103
    },
    {
      "midi": 69,
      "hit": false,
      "t": 136030.60163333153,
      "d": 150.44206666667014,
      "v": 108
    },
    {
      "midi": 67,
      "hit": false,
      "t": 136158.91986666486,
      "d": 110.61916666667094,
      "v": 103
    },
    {
      "midi": 70,
      "hit": false,
      "t": 136437.68016666485,
      "d": 190.26496666666935,
      "v": 100
    },
    {
      "midi": 69,
      "hit": false,
      "t": 136579.2726999982,
      "d": 137.167766666651,
      "v": 105
    },
    {
      "midi": 67,
      "hit": false,
      "t": 136703.16616666486,
      "d": 88.4953333333251,
      "v": 104
    },
    {
      "midi": 70,
      "hit": false,
      "t": 136964.22739999817,
      "d": 176.9906666666502,
      "v": 103
    },
    {
      "midi": 69,
      "hit": false,
      "t": 137096.97039999816,
      "d": 132.74299999998766,
      "v": 104
    },
    {
      "midi": 67,
      "hit": false,
      "t": 137220.86386666482,
      "d": 79.64579999999842,
      "v": 100
    },
    {
      "midi": 70,
      "hit": false,
      "t": 137473.0755666648,
      "d": 194.6897333333327,
      "v": 100
    },
    {
      "midi": 69,
      "hit": false,
      "t": 137610.24333333148,
      "d": 128.31823333332432,
      "v": 86
    },
    {
      "midi": 67,
      "hit": false,
      "t": 137716.43773333146,
      "d": 53.09720000001835,
      "v": 97
    },
    {
      "midi": 66,
      "hit": false,
      "t": 137999.62279999815,
      "d": 75.22103333333507,
      "v": 101
    },
    {
      "midi": 62,
      "hit": false,
      "t": 138004.0475666648,
      "d": 79.64579999999842,
      "v": 97
    },
    {
      "midi": 50,
      "hit": false,
      "t": 138008.47233333148,
      "d": 70.79626666667173,
      "v": 104
    },
    {
      "midi": 38,
      "hit": false,
      "t": 138012.89709999814,
      "d": 79.64579999999842,
      "v": 100
    },
    {
      "midi": 69,
      "hit": false,
      "t": 138017.3218666648,
      "d": 30.97336666667252,
      "v": 93
    },
    {
      "midi": 69,
      "hit": false,
      "t": 138282.8078666648,
      "d": 70.79626666664262,
      "v": 109
    },
    {
      "midi": 62,
      "hit": false,
      "t": 138282.8078666648,
      "d": 75.22103333330597,
      "v": 100
    },
    {
      "midi": 50,
      "hit": false,
      "t": 138287.23263333147,
      "d": 70.79626666664262,
      "v": 109
    },
    {
      "midi": 38,
      "hit": false,
      "t": 138287.23263333147,
      "d": 75.22103333330597,
      "v": 106
    },
    {
      "midi": 66,
      "hit": false,
      "t": 138291.65739999813,
      "d": 53.09719999998924,
      "v": 95
    },
    {
      "midi": 69,
      "hit": false,
      "t": 138835.9036999981,
      "d": 849.5552000000025,
      "v": 112
    },
    {
      "midi": 62,
      "hit": false,
      "t": 138835.9036999981,
      "d": 902.6523999999918,
      "v": 103
    },
    {
      "midi": 66,
      "hit": false,
      "t": 138835.9036999981,
      "d": 907.0771666666551,
      "v": 99
    },
    {
      "midi": 38,
      "hit": false,
      "t": 138844.75323333143,
      "d": 1053.094466666662,
      "v": 111
    },
    {
      "midi": 50,
      "hit": false,
      "t": 138849.1779999981,
      "d": 1159.2888666666695,
      "v": 113
    },
    {
      "midi": 55,
      "hit": false,
      "t": 140141.20986666475,
      "d": 88.49533333335421,
      "v": 104
    },
    {
      "midi": 43,
      "hit": false,
      "t": 140167.75846666476,
      "d": 84.07056666669087,
      "v": 113
    },
    {
      "midi": 62,
      "hit": false,
      "t": 140172.18323333142,
      "d": 30.97336666667252,
      "v": 93
    },
    {
      "midi": 58,
      "hit": false,
      "t": 140176.6079999981,
      "d": 92.92010000001756,
      "v": 97
    },
    {
      "midi": 62,
      "hit": false,
      "t": 140442.0939999981,
      "d": 66.37149999997928,
      "v": 101
    },
    {
      "midi": 55,
      "hit": false,
      "t": 140446.51876666475,
      "d": 53.09719999998924,
      "v": 101
    },
    {
      "midi": 58,
      "hit": false,
      "t": 140455.36829999808,
      "d": 35.39813333333586,
      "v": 77
    },
    {
      "midi": 62,
      "hit": false,
      "t": 140720.85429999806,
      "d": 70.79626666664262,
      "v": 103
    },
    {
      "midi": 38,
      "hit": false,
      "t": 140720.85429999806,
      "d": 84.07056666663266,
      "v": 102
    },
    {
      "midi": 55,
      "hit": false,
      "t": 140725.27906666472,
      "d": 57.52196666665259,
      "v": 103
    },
    {
      "midi": 58,
      "hit": false,
      "t": 140734.12859999805,
      "d": 61.94673333331593,
      "v": 90
    },
    {
      "midi": 62,
      "hit": false,
      "t": 140973.065999998,
      "d": 70.79626666664262,
      "v": 105
    },
    {
      "midi": 55,
      "hit": false,
      "t": 140981.91553333134,
      "d": 66.37149999997928,
      "v": 102
    },
    {
      "midi": 58,
      "hit": false,
      "t": 140995.18983333133,
      "d": 30.97336666667252,
      "v": 87
    },
    {
      "midi": 62,
      "hit": false,
      "t": 141247.40153333131,
      "d": 66.37149999997928,
      "v": 109
    },
    {
      "midi": 55,
      "hit": false,
      "t": 141256.25106666464,
      "d": 66.37149999997928,
      "v": 109
    },
    {
      "midi": 43,
      "hit": false,
      "t": 141256.25106666464,
      "d": 79.64579999996931,
      "v": 106
    },
    {
      "midi": 58,
      "hit": false,
      "t": 141265.10059999797,
      "d": 61.94673333331593,
      "v": 98
    },
    {
      "midi": 62,
      "hit": false,
      "t": 141521.73706666462,
      "d": 61.94673333331593,
      "v": 110
    },
    {
      "midi": 55,
      "hit": false,
      "t": 141521.73706666462,
      "d": 66.37149999997928,
      "v": 112
    },
    {
      "midi": 58,
      "hit": false,
      "t": 141535.0113666646,
      "d": 57.52196666665259,
      "v": 95
    },
    {
      "midi": 38,
      "hit": false,
      "t": 141787.2230666646,
      "d": 141.59253333331435,
      "v": 106
    },
    {
      "midi": 62,
      "hit": false,
      "t": 141800.49736666458,
      "d": 75.22103333333507,
      "v": 111
    },
    {
      "midi": 55,
      "hit": false,
      "t": 141809.3468999979,
      "d": 61.94673333334504,
      "v": 106
    },
    {
      "midi": 58,
      "hit": false,
      "t": 141809.3468999979,
      "d": 75.22103333333507,
      "v": 98
    },
    {
      "midi": 62,
      "hit": false,
      "t": 142052.70906666457,
      "d": 75.22103333333507,
      "v": 111
    },
    {
      "midi": 58,
      "hit": false,
      "t": 142057.13383333123,
      "d": 84.07056666666176,
      "v": 101
    },
    {
      "midi": 55,
      "hit": false,
      "t": 142061.5585999979,
      "d": 66.37150000000838,
      "v": 112
    },
    {
      "midi": 62,
      "hit": false,
      "t": 142331.46936666456,
      "d": 70.79626666667173,
      "v": 113
    },
    {
      "midi": 55,
      "hit": false,
      "t": 142335.89413333123,
      "d": 70.79626666667173,
      "v": 113
    },
    {
      "midi": 58,
      "hit": false,
      "t": 142340.3188999979,
      "d": 75.22103333333507,
      "v": 98
    },
    {
      "midi": 43,
      "hit": false,
      "t": 142340.3188999979,
      "d": 88.4953333333251,
      "v": 116
    },
    {
      "midi": 62,
      "hit": false,
      "t": 142588.1058333312,
      "d": 70.79626666667173,
      "v": 105
    },
    {
      "midi": 58,
      "hit": false,
      "t": 142592.53059999787,
      "d": 61.94673333334504,
      "v": 94
    },
    {
      "midi": 55,
      "hit": false,
      "t": 142596.95536666454,
      "d": 35.39813333333586,
      "v": 105
    },
    {
      "midi": 38,
      "hit": false,
      "t": 142858.01659999788,
      "d": 115.04393333330518,
      "v": 106
    },
    {
      "midi": 58,
      "hit": false,
      "t": 142871.29089999787,
      "d": 70.79626666664262,
      "v": 98
    },
    {
      "midi": 62,
      "hit": false,
      "t": 142871.29089999787,
      "d": 75.22103333330597,
      "v": 108
    },
    {
      "midi": 55,
      "hit": false,
      "t": 142875.71566666453,
      "d": 53.09719999998924,
      "v": 106
    },
    {
      "midi": 55,
      "hit": false,
      "t": 143119.0778333312,
      "d": 57.52196666665259,
      "v": 103
    },
    {
      "midi": 62,
      "hit": false,
      "t": 143119.0778333312,
      "d": 70.79626666664262,
      "v": 104
    },
    {
      "midi": 58,
      "hit": false,
      "t": 143123.50259999785,
      "d": 57.52196666665259,
      "v": 89
    },
    {
      "midi": 43,
      "hit": false,
      "t": 143380.1390666645,
      "d": 92.92009999998845,
      "v": 112
    },
    {
      "midi": 62,
      "hit": false,
      "t": 143384.56383333117,
      "d": 75.22103333333507,
      "v": 110
    },
    {
      "midi": 55,
      "hit": false,
      "t": 143388.98859999783,
      "d": 66.37150000000838,
      "v": 109
    },
    {
      "midi": 58,
      "hit": false,
      "t": 143388.98859999783,
      "d": 70.79626666667173,
      "v": 98
    },
    {
      "midi": 55,
      "hit": false,
      "t": 143645.62506666448,
      "d": 70.79626666667173,
      "v": 108
    },
    {
      "midi": 62,
      "hit": false,
      "t": 143645.62506666448,
      "d": 70.79626666667173,
      "v": 109
    },
    {
      "midi": 58,
      "hit": false,
      "t": 143650.04983333114,
      "d": 75.22103333333507,
      "v": 94
    },
    {
      "midi": 38,
      "hit": false,
      "t": 143897.83676666446,
      "d": 265.4860000000044,
      "v": 106
    },
    {
      "midi": 62,
      "hit": false,
      "t": 143919.9605999978,
      "d": 141.59253333331435,
      "v": 108
    },
    {
      "midi": 55,
      "hit": false,
      "t": 143924.38536666447,
      "d": 79.64579999999842,
      "v": 106
    },
    {
      "midi": 58,
      "hit": false,
      "t": 143928.81013333114,
      "d": 123.89346666666097,
      "v": 93
    },
    {
      "midi": 43,
      "hit": false,
      "t": 144158.8979999978,
      "d": 88.4953333333251,
      "v": 111
    },
    {
      "midi": 62,
      "hit": false,
      "t": 144167.74753333113,
      "d": 44.24766666666255,
      "v": 50
    },
    {
      "midi": 58,
      "hit": false,
      "t": 144181.02183333112,
      "d": 30.97336666667252,
      "v": 65
    },
    {
      "midi": 55,
      "hit": false,
      "t": 144189.87136666445,
      "d": 97.3448666666809,
      "v": 100
    },
    {
      "midi": 55,
      "hit": false,
      "t": 144419.95923333112,
      "d": 101.76963333331514,
      "v": 100
    },
    {
      "midi": 60,
      "hit": false,
      "t": 144424.38399999778,
      "d": 119.46869999999763,
      "v": 98
    },
    {
      "midi": 63,
      "hit": false,
      "t": 144424.38399999778,
      "d": 132.74299999998766,
      "v": 89
    },
    {
      "midi": 48,
      "hit": false,
      "t": 144433.2335333311,
      "d": 119.46869999999763,
      "v": 114
    },
    {
      "midi": 55,
      "hit": false,
      "t": 144672.1709333311,
      "d": 92.92009999998845,
      "v": 95
    },
    {
      "midi": 60,
      "hit": false,
      "t": 144676.59569999776,
      "d": 92.92009999998845,
      "v": 95
    },
    {
      "midi": 63,
      "hit": false,
      "t": 144676.59569999776,
      "d": 110.61916666664183,
      "v": 90
    },
    {
      "midi": 55,
      "hit": false,
      "t": 144959.7807666644,
      "d": 79.64579999999842,
      "v": 106
    },
    {
      "midi": 63,
      "hit": false,
      "t": 144959.7807666644,
      "d": 123.89346666666097,
      "v": 98
    },
    {
      "midi": 60,
      "hit": false,
      "t": 144964.20553333106,
      "d": 75.22103333333507,
      "v": 102
    },
    {
      "midi": 43,
      "hit": false,
      "t": 144964.20553333106,
      "d": 119.46869999999763,
      "v": 115
    },
    {
      "midi": 63,
      "hit": false,
      "t": 145211.99246666438,
      "d": 106.19439999997849,
      "v": 91
    },
    {
      "midi": 60,
      "hit": false,
      "t": 145225.26676666437,
      "d": 57.52196666665259,
      "v": 94
    },
    {
      "midi": 55,
      "hit": false,
      "t": 145225.26676666437,
      "d": 66.37149999997928,
      "v": 98
    },
    {
      "midi": 63,
      "hit": false,
      "t": 145495.17753333104,
      "d": 101.76963333331514,
      "v": 100
    },
    {
      "midi": 55,
      "hit": false,
      "t": 145499.6022999977,
      "d": 66.37149999997928,
      "v": 109
    },
    {
      "midi": 48,
      "hit": false,
      "t": 145499.6022999977,
      "d": 97.3448666666518,
      "v": 116
    },
    {
      "midi": 60,
      "hit": false,
      "t": 145504.02706666436,
      "d": 53.09719999998924,
      "v": 100
    },
    {
      "midi": 55,
      "hit": false,
      "t": 145756.23876666435,
      "d": 70.79626666667173,
      "v": 103
    },
    {
      "midi": 63,
      "hit": false,
      "t": 145756.23876666435,
      "d": 70.79626666667173,
      "v": 94
    },
    {
      "midi": 60,
      "hit": false,
      "t": 145765.08829999767,
      "d": 35.39813333333586,
      "v": 94
    },
    {
      "midi": 43,
      "hit": false,
      "t": 146012.87523333103,
      "d": 181.41543333334266,
      "v": 109
    },
    {
      "midi": 63,
      "hit": false,
      "t": 146034.99906666437,
      "d": 123.89346666666097,
      "v": 99
    },
    {
      "midi": 55,
      "hit": false,
      "t": 146039.42383333103,
      "d": 66.37150000000838,
      "v": 104
    },
    {
      "midi": 60,
      "hit": false,
      "t": 146039.42383333103,
      "d": 75.22103333333507,
      "v": 102
    },
    {
      "midi": 63,
      "hit": false,
      "t": 146273.93646666437,
      "d": 66.37150000000838,
      "v": 96
    },
    {
      "midi": 48,
      "hit": false,
      "t": 146273.93646666437,
      "d": 84.07056666666176,
      "v": 115
    },
    {
      "midi": 55,
      "hit": false,
      "t": 146273.93646666437,
      "d": 84.07056666666176,
      "v": 111
    },
    {
      "midi": 43,
      "hit": false,
      "t": 146548.2719999977,
      "d": 110.61916666664183,
      "v": 117
    },
    {
      "midi": 55,
      "hit": false,
      "t": 146552.69676666436,
      "d": 66.37150000000838,
      "v": 114
    },
    {
      "midi": 62,
      "hit": false,
      "t": 146557.12153333102,
      "d": 66.37150000000838,
      "v": 111
    },
    {
      "midi": 58,
      "hit": false,
      "t": 146557.12153333102,
      "d": 84.07056666666176,
      "v": 104
    },
    {
      "midi": 55,
      "hit": false,
      "t": 146813.75799999767,
      "d": 75.22103333333507,
      "v": 109
    },
    {
      "midi": 62,
      "hit": false,
      "t": 146818.18276666434,
      "d": 79.64579999999842,
      "v": 103
    },
    {
      "midi": 58,
      "hit": false,
      "t": 146822.607533331,
      "d": 79.64579999999842,
      "v": 91
    },
    {
      "midi": 38,
      "hit": false,
      "t": 147070.39446666432,
      "d": 115.04393333333428,
      "v": 114
    },
    {
      "midi": 62,
      "hit": false,
      "t": 147079.24399999765,
      "d": 79.64579999999842,
      "v": 114
    },
    {
      "midi": 55,
      "hit": false,
      "t": 147083.6687666643,
      "d": 66.37150000000838,
      "v": 114
    },
    {
      "midi": 58,
      "hit": false,
      "t": 147083.6687666643,
      "d": 79.64579999999842,
      "v": 109
    },
    {
      "midi": 55,
      "hit": false,
      "t": 147331.45569999766,
      "d": 79.64579999999842,
      "v": 113
    },
    {
      "midi": 62,
      "hit": false,
      "t": 147335.88046666433,
      "d": 75.22103333333507,
      "v": 109
    },
    {
      "midi": 58,
      "hit": false,
      "t": 147335.88046666433,
      "d": 84.07056666666176,
      "v": 99
    },
    {
      "midi": 55,
      "hit": false,
      "t": 147601.36646666433,
      "d": 66.37150000000838,
      "v": 118
    },
    {
      "midi": 62,
      "hit": false,
      "t": 147601.36646666433,
      "d": 75.22103333333507,
      "v": 116
    },
    {
      "midi": 58,
      "hit": false,
      "t": 147601.36646666433,
      "d": 88.4953333333251,
      "v": 114
    },
    {
      "midi": 43,
      "hit": false,
      "t": 147605.791233331,
      "d": 92.92009999998845,
      "v": 124
    },
    {
      "midi": 55,
      "hit": false,
      "t": 148636.7618666643,
      "d": 92.92009999998845,
      "v": 102
    },
    {
      "midi": 62,
      "hit": false,
      "t": 148658.88569999766,
      "d": 84.07056666663266,
      "v": 102
    },
    {
      "midi": 58,
      "hit": false,
      "t": 148667.73523333098,
      "d": 88.495333333296,
      "v": 100
    },
    {
      "midi": 43,
      "hit": false,
      "t": 148676.5847666643,
      "d": 88.495333333296,
      "v": 117
    },
    {
      "midi": 55,
      "hit": false,
      "t": 148919.94693333094,
      "d": 84.07056666666176,
      "v": 108
    },
    {
      "midi": 62,
      "hit": false,
      "t": 148924.3716999976,
      "d": 75.22103333333507,
      "v": 103
    },
    {
      "midi": 58,
      "hit": false,
      "t": 148928.79646666427,
      "d": 84.07056666666176,
      "v": 90
    },
    {
      "midi": 38,
      "hit": false,
      "t": 149194.28246666427,
      "d": 110.61916666664183,
      "v": 113
    },
    {
      "midi": 62,
      "hit": false,
      "t": 149198.70723333093,
      "d": 88.4953333333251,
      "v": 103
    },
    {
      "midi": 58,
      "hit": false,
      "t": 149198.70723333093,
      "d": 92.92009999998845,
      "v": 100
    },
    {
      "midi": 55,
      "hit": false,
      "t": 149203.1319999976,
      "d": 70.79626666667173,
      "v": 105
    },
    {
      "midi": 62,
      "hit": false,
      "t": 149459.76846666425,
      "d": 84.07056666666176,
      "v": 100
    },
    {
      "midi": 55,
      "hit": false,
      "t": 149464.1932333309,
      "d": 70.79626666667173,
      "v": 103
    },
    {
      "midi": 58,
      "hit": false,
      "t": 149464.1932333309,
      "d": 75.22103333333507,
      "v": 91
    },
    {
      "midi": 55,
      "hit": false,
      "t": 149742.9535333309,
      "d": 61.94673333334504,
      "v": 106
    },
    {
      "midi": 62,
      "hit": false,
      "t": 149742.9535333309,
      "d": 75.22103333333507,
      "v": 106
    },
    {
      "midi": 58,
      "hit": false,
      "t": 149742.9535333309,
      "d": 79.64579999999842,
      "v": 103
    },
    {
      "midi": 43,
      "hit": false,
      "t": 149742.9535333309,
      "d": 88.4953333333251,
      "v": 114
    },
    {
      "midi": 58,
      "hit": false,
      "t": 149990.74046666423,
      "d": 70.79626666664262,
      "v": 92
    },
    {
      "midi": 55,
      "hit": false,
      "t": 149995.1652333309,
      "d": 57.52196666665259,
      "v": 103
    },
    {
      "midi": 62,
      "hit": false,
      "t": 149995.1652333309,
      "d": 57.52196666665259,
      "v": 98
    },
    {
      "midi": 38,
      "hit": false,
      "t": 150265.07599999753,
      "d": 119.46869999999763,
      "v": 111
    },
    {
      "midi": 55,
      "hit": false,
      "t": 150278.35029999752,
      "d": 75.22103333333507,
      "v": 110
    },
    {
      "midi": 62,
      "hit": false,
      "t": 150278.35029999752,
      "d": 75.22103333333507,
      "v": 105
    },
    {
      "midi": 58,
      "hit": false,
      "t": 150278.35029999752,
      "d": 79.64579999999842,
      "v": 99
    },
    {
      "midi": 58,
      "hit": false,
      "t": 150539.41153333086,
      "d": 97.3448666666518,
      "v": 105
    },
    {
      "midi": 55,
      "hit": false,
      "t": 150543.83629999752,
      "d": 79.64579999999842,
      "v": 112
    },
    {
      "midi": 62,
      "hit": false,
      "t": 150543.83629999752,
      "d": 84.07056666666176,
      "v": 103
    },
    {
      "midi": 43,
      "hit": false,
      "t": 150804.89753333083,
      "d": 88.4953333333251,
      "v": 118
    },
    {
      "midi": 62,
      "hit": false,
      "t": 150809.3222999975,
      "d": 70.79626666667173,
      "v": 101
    },
    {
      "midi": 55,
      "hit": false,
      "t": 150809.3222999975,
      "d": 75.22103333333507,
      "v": 110
    },
    {
      "midi": 58,
      "hit": false,
      "t": 150809.3222999975,
      "d": 75.22103333333507,
      "v": 96
    },
    {
      "midi": 58,
      "hit": false,
      "t": 151052.68446666416,
      "d": 79.64579999996931,
      "v": 98
    },
    {
      "midi": 55,
      "hit": false,
      "t": 151057.10923333082,
      "d": 48.6724333333259,
      "v": 99
    },
    {
      "midi": 62,
      "hit": false,
      "t": 151057.10923333082,
      "d": 57.52196666665259,
      "v": 97
    },
    {
      "midi": 62,
      "hit": false,
      "t": 151327.01999999746,
      "d": 79.64579999999842,
      "v": 108
    },
    {
      "midi": 38,
      "hit": false,
      "t": 151327.01999999746,
      "d": 110.61916666667094,
      "v": 111
    },
    {
      "midi": 58,
      "hit": false,
      "t": 151331.44476666412,
      "d": 84.07056666666176,
      "v": 102
    },
    {
      "midi": 55,
      "hit": false,
      "t": 151335.86953333078,
      "d": 61.94673333334504,
      "v": 109
    },
    {
      "midi": 62,
      "hit": false,
      "t": 151574.8069333308,
      "d": 75.22103333333507,
      "v": 100
    },
    {
      "midi": 55,
      "hit": false,
      "t": 151579.23169999747,
      "d": 61.94673333334504,
      "v": 103
    },
    {
      "midi": 58,
      "hit": false,
      "t": 151579.23169999747,
      "d": 70.79626666667173,
      "v": 87
    },
    {
      "midi": 58,
      "hit": false,
      "t": 151831.4433999975,
      "d": 79.64579999996931,
      "v": 101
    },
    {
      "midi": 62,
      "hit": false,
      "t": 151835.86816666415,
      "d": 75.22103333330597,
      "v": 103
    },
    {
      "midi": 55,
      "hit": false,
      "t": 151840.2929333308,
      "d": 53.09719999998924,
      "v": 103
    },
    {
      "midi": 43,
      "hit": false,
      "t": 151840.2929333308,
      "d": 88.495333333296,
      "v": 113
    },
    {
      "midi": 58,
      "hit": false,
      "t": 152083.65509999744,
      "d": 79.64579999999842,
      "v": 92
    },
    {
      "midi": 62,
      "hit": false,
      "t": 152083.65509999744,
      "d": 79.64579999999842,
      "v": 100
    },
    {
      "midi": 55,
      "hit": false,
      "t": 152088.0798666641,
      "d": 44.24766666666255,
      "v": 99
    },
    {
      "midi": 38,
      "hit": false,
      "t": 152335.86679999743,
      "d": 172.56589999995776,
      "v": 106
    },
    {
      "midi": 62,
      "hit": false,
      "t": 152353.56586666408,
      "d": 84.07056666666176,
      "v": 106
    },
    {
      "midi": 58,
      "hit": false,
      "t": 152353.56586666408,
      "d": 97.3448666666518,
      "v": 100
    },
    {
      "midi": 55,
      "hit": false,
      "t": 152357.99063333074,
      "d": 70.79626666667173,
      "v": 106
    },
    {
      "midi": 43,
      "hit": false,
      "t": 152583.65373333072,
      "d": 92.92009999998845,
      "v": 113
    },
    {
      "midi": 62,
      "hit": false,
      "t": 152596.9280333307,
      "d": 88.4953333333251,
      "v": 100
    },
    {
      "midi": 58,
      "hit": false,
      "t": 152601.35279999737,
      "d": 84.07056666666176,
      "v": 92
    },
    {
      "midi": 55,
      "hit": false,
      "t": 152610.2023333307,
      "d": 84.07056666666176,
      "v": 101
    },
    {
      "midi": 55,
      "hit": false,
      "t": 152866.83879999735,
      "d": 92.92009999998845,
      "v": 103
    },
    {
      "midi": 48,
      "hit": false,
      "t": 152866.83879999735,
      "d": 123.89346666663187,
      "v": 115
    },
    {
      "midi": 63,
      "hit": false,
      "t": 152871.263566664,
      "d": 110.61916666664183,
      "v": 89
    },
    {
      "midi": 60,
      "hit": false,
      "t": 152875.68833333068,
      "d": 97.3448666666518,
      "v": 94
    },
    {
      "midi": 63,
      "hit": false,
      "t": 153119.0504999973,
      "d": 115.04393333333428,
      "v": 89
    },
    {
      "midi": 55,
      "hit": false,
      "t": 153123.47526666397,
      "d": 84.07056666666176,
      "v": 98
    },
    {
      "midi": 60,
      "hit": false,
      "t": 153123.47526666397,
      "d": 88.4953333333251,
      "v": 92
    },
    {
      "midi": 63,
      "hit": false,
      "t": 153402.23556666396,
      "d": 101.76963333334425,
      "v": 98
    },
    {
      "midi": 43,
      "hit": false,
      "t": 153402.23556666396,
      "d": 119.46869999999763,
      "v": 114
    },
    {
      "midi": 55,
      "hit": false,
      "t": 153406.66033333063,
      "d": 70.79626666667173,
      "v": 110
    },
    {
      "midi": 60,
      "hit": false,
      "t": 153415.50986666395,
      "d": 35.39813333333586,
      "v": 96
    },
    {
      "midi": 63,
      "hit": false,
      "t": 153654.44726666395,
      "d": 115.04393333330518,
      "v": 96
    },
    {
      "midi": 55,
      "hit": false,
      "t": 153663.29679999728,
      "d": 70.79626666664262,
      "v": 100
    },
    {
      "midi": 60,
      "hit": false,
      "t": 153672.1463333306,
      "d": 44.24766666666255,
      "v": 91
    },
    {
      "midi": 55,
      "hit": false,
      "t": 153933.2075666639,
      "d": 70.79626666664262,
      "v": 109
    },
    {
      "midi": 63,
      "hit": false,
      "t": 153933.2075666639,
      "d": 110.61916666664183,
      "v": 98
    },
    {
      "midi": 60,
      "hit": false,
      "t": 153937.63233333058,
      "d": 75.22103333330597,
      "v": 100
    },
    {
      "midi": 48,
      "hit": false,
      "t": 153946.4818666639,
      "d": 101.76963333331514,
      "v": 114
    },
    {
      "midi": 55,
      "hit": false,
      "t": 154189.84403333056,
      "d": 70.79626666667173,
      "v": 104
    },
    {
      "midi": 63,
      "hit": false,
      "t": 154189.84403333056,
      "d": 97.3448666666518,
      "v": 93
    },
    {
      "midi": 60,
      "hit": false,
      "t": 154198.6935666639,
      "d": 70.79626666667173,
      "v": 96
    },
    {
      "midi": 43,
      "hit": false,
      "t": 154446.4804999972,
      "d": 154.8668333333335,
      "v": 112
    },
    {
      "midi": 55,
      "hit": false,
      "t": 154459.7547999972,
      "d": 70.79626666667173,
      "v": 106
    },
    {
      "midi": 63,
      "hit": false,
      "t": 154459.7547999972,
      "d": 115.04393333333428,
      "v": 98
    },
    {
      "midi": 60,
      "hit": false,
      "t": 154464.17956666386,
      "d": 79.64579999999842,
      "v": 100
    },
    {
      "midi": 63,
      "hit": false,
      "t": 154698.69219999723,
      "d": 88.4953333333251,
      "v": 89
    },
    {
      "midi": 48,
      "hit": false,
      "t": 154711.96649999722,
      "d": 88.4953333333251,
      "v": 114
    },
    {
      "midi": 55,
      "hit": false,
      "t": 154711.96649999722,
      "d": 88.4953333333251,
      "v": 105
    },
    {
      "midi": 55,
      "hit": false,
      "t": 154981.87726666388,
      "d": 79.64579999999842,
      "v": 116
    },
    {
      "midi": 43,
      "hit": false,
      "t": 154981.87726666388,
      "d": 123.89346666669007,
      "v": 120
    },
    {
      "midi": 62,
      "hit": false,
      "t": 154986.30203333055,
      "d": 75.22103333333507,
      "v": 109
    },
    {
      "midi": 58,
      "hit": false,
      "t": 154990.7267999972,
      "d": 92.92010000001756,
      "v": 100
    },
    {
      "midi": 62,
      "hit": false,
      "t": 155242.93849999725,
      "d": 88.4953333333251,
      "v": 103
    },
    {
      "midi": 55,
      "hit": false,
      "t": 155247.36326666392,
      "d": 75.22103333333507,
      "v": 106
    },
    {
      "midi": 58,
      "hit": false,
      "t": 155247.36326666392,
      "d": 88.4953333333251,
      "v": 98
    },
    {
      "midi": 38,
      "hit": false,
      "t": 155503.99973333057,
      "d": 119.46869999999763,
      "v": 117
    },
    {
      "midi": 62,
      "hit": false,
      "t": 155508.42449999723,
      "d": 88.4953333333251,
      "v": 113
    },
    {
      "midi": 55,
      "hit": false,
      "t": 155512.8492666639,
      "d": 66.37150000000838,
      "v": 115
    },
    {
      "midi": 58,
      "hit": false,
      "t": 155512.8492666639,
      "d": 84.07056666666176,
      "v": 106
    },
    {
      "midi": 62,
      "hit": false,
      "t": 155765.0609666639,
      "d": 79.64579999999842,
      "v": 102
    },
    {
      "midi": 55,
      "hit": false,
      "t": 155769.48573333057,
      "d": 75.22103333333507,
      "v": 108
    },
    {
      "midi": 58,
      "hit": false,
      "t": 155769.48573333057,
      "d": 92.92009999998845,
      "v": 91
    },
    {
      "midi": 43,
      "hit": false,
      "t": 156030.54696666388,
      "d": 88.4953333333251,
      "v": 124
    },
    {
      "midi": 58,
      "hit": false,
      "t": 156030.54696666388,
      "d": 106.19439999997849,
      "v": 113
    },
    {
      "midi": 55,
      "hit": false,
      "t": 156034.97173333055,
      "d": 66.37150000000838,
      "v": 120
    },
    {
      "midi": 62,
      "hit": false,
      "t": 156034.97173333055,
      "d": 84.07056666666176,
      "v": 114
    },
    {
      "midi": 55,
      "hit": false,
      "t": 157074.7918999972,
      "d": 101.76963333331514,
      "v": 98
    },
    {
      "midi": 62,
      "hit": false,
      "t": 157101.3404999972,
      "d": 92.92009999995935,
      "v": 103
    },
    {
      "midi": 58,
      "hit": false,
      "t": 157110.19003333052,
      "d": 97.34486666662269,
      "v": 100
    },
    {
      "midi": 43,
      "hit": false,
      "t": 157119.03956666385,
      "d": 97.34486666662269,
      "v": 117
    },
    {
      "midi": 55,
      "hit": false,
      "t": 157380.10079999713,
      "d": 84.07056666666176,
      "v": 103
    },
    {
      "midi": 62,
      "hit": false,
      "t": 157384.5255666638,
      "d": 70.79626666667173,
      "v": 96
    },
    {
      "midi": 58,
      "hit": false,
      "t": 157384.5255666638,
      "d": 84.07056666666176,
      "v": 93
    },
    {
      "midi": 38,
      "hit": false,
      "t": 157667.71063333045,
      "d": 101.76963333331514,
      "v": 109
    },
    {
      "midi": 55,
      "hit": false,
      "t": 157672.13539999712,
      "d": 79.64579999999842,
      "v": 103
    },
    {
      "midi": 58,
      "hit": false,
      "t": 157672.13539999712,
      "d": 84.07056666666176,
      "v": 96
    },
    {
      "midi": 62,
      "hit": false,
      "t": 157672.13539999712,
      "d": 84.07056666666176,
      "v": 100
    },
    {
      "midi": 62,
      "hit": false,
      "t": 157942.04616666376,
      "d": 53.09719999998924,
      "v": 92
    },
    {
      "midi": 55,
      "hit": false,
      "t": 157946.47093333042,
      "d": 61.94673333331593,
      "v": 99
    },
    {
      "midi": 58,
      "hit": false,
      "t": 157946.47093333042,
      "d": 79.64579999996931,
      "v": 89
    },
    {
      "midi": 43,
      "hit": false,
      "t": 158220.80646666372,
      "d": 92.92009999998845,
      "v": 112
    },
    {
      "midi": 58,
      "hit": false,
      "t": 158225.23123333039,
      "d": 84.07056666666176,
      "v": 98
    },
    {
      "midi": 62,
      "hit": false,
      "t": 158225.23123333039,
      "d": 84.07056666666176,
      "v": 100
    },
    {
      "midi": 55,
      "hit": false,
      "t": 158229.65599999705,
      "d": 75.22103333333507,
      "v": 102
    },
    {
      "midi": 55,
      "hit": false,
      "t": 158486.2924666637,
      "d": 66.37150000000838,
      "v": 100
    },
    {
      "midi": 62,
      "hit": false,
      "t": 158486.2924666637,
      "d": 75.22103333333507,
      "v": 95
    },
    {
      "midi": 58,
      "hit": false,
      "t": 158486.2924666637,
      "d": 84.07056666666176,
      "v": 92
    },
    {
      "midi": 38,
      "hit": false,
      "t": 158751.7784666637,
      "d": 296.45936666661873,
      "v": 110
    },
    {
      "midi": 62,
      "hit": false,
      "t": 158769.47753333036,
      "d": 97.3448666666518,
      "v": 102
    },
    {
      "midi": 58,
      "hit": false,
      "t": 158769.47753333036,
      "d": 106.19439999997849,
      "v": 96
    },
    {
      "midi": 55,
      "hit": false,
      "t": 158773.90229999702,
      "d": 84.07056666666176,
      "v": 103
    },
    {
      "midi": 62,
      "hit": false,
      "t": 159012.839699997,
      "d": 106.19439999997849,
      "v": 93
    },
    {
      "midi": 58,
      "hit": false,
      "t": 159017.26446666368,
      "d": 123.89346666663187,
      "v": 91
    },
    {
      "midi": 55,
      "hit": false,
      "t": 159030.53876666367,
      "d": 92.92009999998845,
      "v": 95
    },
    {
      "midi": 43,
      "hit": false,
      "t": 159030.53876666367,
      "d": 309.7336666666379,
      "v": 112
    },
    {
      "midi": 41,
      "hit": false,
      "t": 159300.4495333303,
      "d": 88.4953333333251,
      "v": 112
    },
    {
      "midi": 53,
      "hit": false,
      "t": 159304.87429999697,
      "d": 97.3448666666518,
      "v": 106
    },
    {
      "midi": 57,
      "hit": false,
      "t": 159304.87429999697,
      "d": 97.3448666666518,
      "v": 105
    },
    {
      "midi": 60,
      "hit": false,
      "t": 159309.29906666363,
      "d": 92.92009999998845,
      "v": 99
    },
    {
      "midi": 53,
      "hit": false,
      "t": 159565.93553333028,
      "d": 84.07056666666176,
      "v": 100
    },
    {
      "midi": 60,
      "hit": false,
      "t": 159565.93553333028,
      "d": 97.3448666666518,
      "v": 95
    },
    {
      "midi": 57,
      "hit": false,
      "t": 159570.36029999694,
      "d": 88.4953333333251,
      "v": 98
    },
    {
      "midi": 36,
      "hit": false,
      "t": 159835.84629999692,
      "d": 123.89346666663187,
      "v": 112
    },
    {
      "midi": 60,
      "hit": false,
      "t": 159844.69583333025,
      "d": 97.3448666666518,
      "v": 102
    },
    {
      "midi": 53,
      "hit": false,
      "t": 159849.1205999969,
      "d": 75.22103333333507,
      "v": 103
    },
    {
      "midi": 57,
      "hit": false,
      "t": 159849.1205999969,
      "d": 84.07056666666176,
      "v": 105
    },
    {
      "midi": 60,
      "hit": false,
      "t": 160101.3322999969,
      "d": 84.07056666666176,
      "v": 93
    },
    {
      "midi": 53,
      "hit": false,
      "t": 160110.18183333022,
      "d": 53.09719999998924,
      "v": 95
    },
    {
      "midi": 57,
      "hit": false,
      "t": 160110.18183333022,
      "d": 75.22103333333507,
      "v": 98
    },
    {
      "midi": 60,
      "hit": false,
      "t": 160375.66783333023,
      "d": 88.4953333333251,
      "v": 103
    },
    {
      "midi": 57,
      "hit": false,
      "t": 160380.0925999969,
      "d": 79.64579999999842,
      "v": 106
    },
    {
      "midi": 41,
      "hit": false,
      "t": 160380.0925999969,
      "d": 92.92009999998845,
      "v": 115
    },
    {
      "midi": 53,
      "hit": false,
      "t": 160384.51736666355,
      "d": 70.79626666667173,
      "v": 104
    },
    {
      "midi": 60,
      "hit": false,
      "t": 160632.30429999687,
      "d": 92.92009999998845,
      "v": 95
    },
    {
      "midi": 53,
      "hit": false,
      "t": 160636.72906666354,
      "d": 79.64579999999842,
      "v": 97
    },
    {
      "midi": 57,
      "hit": false,
      "t": 160641.1538333302,
      "d": 84.07056666666176,
      "v": 98
    },
    {
      "midi": 57,
      "hit": false,
      "t": 160893.3655333302,
      "d": 137.1677666666801,
      "v": 106
    },
    {
      "midi": 60,
      "hit": false,
      "t": 160893.3655333302,
      "d": 141.59253333334345,
      "v": 100
    },
    {
      "midi": 36,
      "hit": false,
      "t": 160893.3655333302,
      "d": 234.5126333333319,
      "v": 112
    },
    {
      "midi": 53,
      "hit": false,
      "t": 160915.48936666353,
      "d": 84.07056666666176,
      "v": 101
    },
    {
      "midi": 41,
      "hit": false,
      "t": 161154.42676666353,
      "d": 88.4953333333251,
      "v": 112
    },
    {
      "midi": 60,
      "hit": false,
      "t": 161154.42676666353,
      "d": 115.04393333330518,
      "v": 85
    },
    {
      "midi": 57,
      "hit": false,
      "t": 161163.27629999685,
      "d": 84.07056666666176,
      "v": 95
    },
    {
      "midi": 53,
      "hit": false,
      "t": 161176.55059999684,
      "d": 84.07056666666176,
      "v": 96
    },
    {
      "midi": 48,
      "hit": false,
      "t": 161437.61183333016,
      "d": 115.04393333330518,
      "v": 112
    },
    {
      "midi": 55,
      "hit": false,
      "t": 161442.03659999682,
      "d": 92.92009999998845,
      "v": 100
    },
    {
      "midi": 60,
      "hit": false,
      "t": 161450.88613333015,
      "d": 92.92009999998845,
      "v": 99
    },
    {
      "midi": 63,
      "hit": false,
      "t": 161450.88613333015,
      "d": 115.04393333330518,
      "v": 84
    },
    {
      "midi": 63,
      "hit": false,
      "t": 161685.39876666345,
      "d": 128.31823333332432,
      "v": 93
    },
    {
      "midi": 55,
      "hit": false,
      "t": 161689.8235333301,
      "d": 92.92009999998845,
      "v": 95
    },
    {
      "midi": 60,
      "hit": false,
      "t": 161694.24829999678,
      "d": 97.3448666666518,
      "v": 89
    },
    {
      "midi": 63,
      "hit": false,
      "t": 161959.73429999678,
      "d": 123.89346666666097,
      "v": 95
    },
    {
      "midi": 55,
      "hit": false,
      "t": 161964.15906666344,
      "d": 88.4953333333251,
      "v": 106
    },
    {
      "midi": 43,
      "hit": false,
      "t": 161964.15906666344,
      "d": 119.46869999999763,
      "v": 115
    },
    {
      "midi": 60,
      "hit": false,
      "t": 161968.5838333301,
      "d": 84.07056666666176,
      "v": 99
    },
    {
      "midi": 63,
      "hit": false,
      "t": 162207.5212333301,
      "d": 123.89346666666097,
      "v": 92
    },
    {
      "midi": 55,
      "hit": false,
      "t": 162216.37076666343,
      "d": 84.07056666666176,
      "v": 95
    },
    {
      "midi": 60,
      "hit": false,
      "t": 162225.22029999676,
      "d": 75.22103333333507,
      "v": 94
    },
    {
      "midi": 63,
      "hit": false,
      "t": 162477.43199999677,
      "d": 115.04393333330518,
      "v": 98
    },
    {
      "midi": 55,
      "hit": false,
      "t": 162481.85676666343,
      "d": 79.64579999999842,
      "v": 108
    },
    {
      "midi": 60,
      "hit": false,
      "t": 162486.2815333301,
      "d": 75.22103333333507,
      "v": 99
    },
    {
      "midi": 48,
      "hit": false,
      "t": 162486.2815333301,
      "d": 92.92009999998845,
      "v": 118
    },
    {
      "midi": 63,
      "hit": false,
      "t": 162738.49323333008,
      "d": 106.19440000000759,
      "v": 92
    },
    {
      "midi": 55,
      "hit": false,
      "t": 162742.91799999675,
      "d": 75.22103333333507,
      "v": 99
    },
    {
      "midi": 60,
      "hit": false,
      "t": 162742.91799999675,
      "d": 75.22103333333507,
      "v": 95
    },
    {
      "midi": 43,
      "hit": false,
      "t": 162995.12969999676,
      "d": 269.91076666663866,
      "v": 113
    },
    {
      "midi": 55,
      "hit": false,
      "t": 163012.8287666634,
      "d": 79.64579999999842,
      "v": 106
    },
    {
      "midi": 63,
      "hit": false,
      "t": 163012.8287666634,
      "d": 137.167766666651,
      "v": 96
    },
    {
      "midi": 60,
      "hit": false,
      "t": 163017.25353333008,
      "d": 84.07056666666176,
      "v": 101
    },
    {
      "midi": 63,
      "hit": false,
      "t": 163251.7661666634,
      "d": 106.19439999997849,
      "v": 86
    },
    {
      "midi": 55,
      "hit": false,
      "t": 163265.0404666634,
      "d": 97.3448666666518,
      "v": 103
    },
    {
      "midi": 48,
      "hit": false,
      "t": 163269.46523333006,
      "d": 88.4953333333251,
      "v": 114
    },
    {
      "midi": 60,
      "hit": false,
      "t": 163287.16429999672,
      "d": 35.39813333333586,
      "v": 75
    },
    {
      "midi": 55,
      "hit": false,
      "t": 163534.95123333004,
      "d": 101.76963333331514,
      "v": 106
    },
    {
      "midi": 43,
      "hit": false,
      "t": 163534.95123333004,
      "d": 115.04393333330518,
      "v": 116
    },
    {
      "midi": 62,
      "hit": false,
      "t": 163539.3759999967,
      "d": 88.4953333333251,
      "v": 105
    },
    {
      "midi": 58,
      "hit": false,
      "t": 163548.22553333003,
      "d": 92.92009999998845,
      "v": 94
    },
    {
      "midi": 55,
      "hit": false,
      "t": 163800.43723333,
      "d": 84.07056666666176,
      "v": 100
    },
    {
      "midi": 58,
      "hit": false,
      "t": 163800.43723333,
      "d": 97.3448666666518,
      "v": 98
    },
    {
      "midi": 62,
      "hit": false,
      "t": 163809.28676666334,
      "d": 66.37150000000838,
      "v": 94
    },
    {
      "midi": 38,
      "hit": false,
      "t": 164065.92323333,
      "d": 123.89346666663187,
      "v": 112
    },
    {
      "midi": 58,
      "hit": false,
      "t": 164079.19753332998,
      "d": 92.92009999998845,
      "v": 103
    },
    {
      "midi": 55,
      "hit": false,
      "t": 164083.62229999664,
      "d": 75.22103333333507,
      "v": 106
    },
    {
      "midi": 62,
      "hit": false,
      "t": 164088.0470666633,
      "d": 84.07056666666176,
      "v": 100
    },
    {
      "midi": 55,
      "hit": false,
      "t": 164326.9844666633,
      "d": 79.64579999999842,
      "v": 103
    },
    {
      "midi": 58,
      "hit": false,
      "t": 164326.9844666633,
      "d": 101.76963333331514,
      "v": 98
    },
    {
      "midi": 62,
      "hit": false,
      "t": 164331.40923332996,
      "d": 88.4953333333251,
      "v": 97
    },
    {
      "midi": 43,
      "hit": false,
      "t": 164592.47046666328,
      "d": 88.495333333296,
      "v": 122
    },
    {
      "midi": 55,
      "hit": false,
      "t": 164601.3199999966,
      "d": 75.22103333330597,
      "v": 112
    },
    {
      "midi": 58,
      "hit": false,
      "t": 164601.3199999966,
      "d": 106.19439999997849,
      "v": 113
    },
    {
      "midi": 62,
      "hit": false,
      "t": 164610.16953332993,
      "d": 53.09719999998924,
      "v": 104
    },
    {
      "midi": 55,
      "hit": false,
      "t": 165592.46773332992,
      "d": 128.3182333332952,
      "v": 97
    },
    {
      "midi": 62,
      "hit": false,
      "t": 165636.71539999658,
      "d": 79.64579999996931,
      "v": 97
    },
    {
      "midi": 58,
      "hit": false,
      "t": 165654.41446666323,
      "d": 92.92009999998845,
      "v": 99
    },
    {
      "midi": 43,
      "hit": false,
      "t": 165663.26399999656,
      "d": 97.3448666666518,
      "v": 118
    },
    {
      "midi": 55,
      "hit": false,
      "t": 165924.32523332987,
      "d": 79.64579999996931,
      "v": 102
    },
    {
      "midi": 62,
      "hit": false,
      "t": 165928.74999999654,
      "d": 57.52196666665259,
      "v": 95
    },
    {
      "midi": 58,
      "hit": false,
      "t": 165933.1747666632,
      "d": 88.495333333296,
      "v": 94
    },
    {
      "midi": 38,
      "hit": false,
      "t": 166198.66076666318,
      "d": 110.61916666664183,
      "v": 110
    },
    {
      "midi": 55,
      "hit": false,
      "t": 166207.5102999965,
      "d": 84.07056666666176,
      "v": 106
    },
    {
      "midi": 58,
      "hit": false,
      "t": 166207.5102999965,
      "d": 97.3448666666518,
      "v": 100
    },
    {
      "midi": 62,
      "hit": false,
      "t": 166211.93506666317,
      "d": 88.4953333333251,
      "v": 100
    },
    {
      "midi": 55,
      "hit": false,
      "t": 166450.87246666316,
      "d": 84.07056666666176,
      "v": 98
    },
    {
      "midi": 62,
      "hit": false,
      "t": 166455.29723332982,
      "d": 79.64579999999842,
      "v": 93
    },
    {
      "midi": 58,
      "hit": false,
      "t": 166455.29723332982,
      "d": 84.07056666666176,
      "v": 92
    },
    {
      "midi": 43,
      "hit": false,
      "t": 166720.78323332983,
      "d": 92.92009999998845,
      "v": 113
    },
    {
      "midi": 55,
      "hit": false,
      "t": 166725.2079999965,
      "d": 79.64579999999842,
      "v": 112
    },
    {
      "midi": 62,
      "hit": false,
      "t": 166729.63276666316,
      "d": 84.07056666666176,
      "v": 106
    },
    {
      "midi": 58,
      "hit": false,
      "t": 166734.05753332982,
      "d": 70.79626666667173,
      "v": 98
    },
    {
      "midi": 62,
      "hit": false,
      "t": 166986.2692333298,
      "d": 84.07056666666176,
      "v": 100
    },
    {
      "midi": 55,
      "hit": false,
      "t": 166990.69399999647,
      "d": 70.79626666667173,
      "v": 103
    },
    {
      "midi": 58,
      "hit": false,
      "t": 166990.69399999647,
      "d": 79.64579999999842,
      "v": 95
    },
    {
      "midi": 38,
      "hit": false,
      "t": 167238.4809333298,
      "d": 247.78693333332194,
      "v": 110
    },
    {
      "midi": 55,
      "hit": false,
      "t": 167260.60476666313,
      "d": 84.07056666666176,
      "v": 106
    },
    {
      "midi": 62,
      "hit": false,
      "t": 167260.60476666313,
      "d": 101.76963333331514,
      "v": 103
    },
    {
      "midi": 58,
      "hit": false,
      "t": 167265.0295333298,
      "d": 110.61916666664183,
      "v": 98
    },
    {
      "midi": 62,
      "hit": false,
      "t": 167508.39169999646,
      "d": 79.64579999996931,
      "v": 96
    },
    {
      "midi": 55,
      "hit": false,
      "t": 167508.39169999646,
      "d": 119.46869999996852,
      "v": 105
    },
    {
      "midi": 43,
      "hit": false,
      "t": 167512.81646666312,
      "d": 305.3088999999745,
      "v": 113
    },
    {
      "midi": 58,
      "hit": false,
      "t": 167530.51553332977,
      "d": 39.82289999999921,
      "v": 77
    },
    {
      "midi": 53,
      "hit": false,
      "t": 167782.72723332976,
      "d": 97.3448666666518,
      "v": 106
    },
    {
      "midi": 41,
      "hit": false,
      "t": 167787.15199999642,
      "d": 88.4953333333251,
      "v": 114
    },
    {
      "midi": 57,
      "hit": false,
      "t": 167787.15199999642,
      "d": 92.92009999998845,
      "v": 105
    },
    {
      "midi": 60,
      "hit": false,
      "t": 167791.57676666309,
      "d": 88.4953333333251,
      "v": 96
    },
    {
      "midi": 53,
      "hit": false,
      "t": 168048.21323332973,
      "d": 75.22103333333507,
      "v": 99
    },
    {
      "midi": 60,
      "hit": false,
      "t": 168048.21323332973,
      "d": 88.4953333333251,
      "v": 97
    },
    {
      "midi": 57,
      "hit": false,
      "t": 168052.6379999964,
      "d": 79.64579999999842,
      "v": 100
    },
    {
      "midi": 36,
      "hit": false,
      "t": 168309.27446666305,
      "d": 119.46869999999763,
      "v": 111
    },
    {
      "midi": 60,
      "hit": false,
      "t": 168313.6992333297,
      "d": 92.92009999998845,
      "v": 99
    },
    {
      "midi": 53,
      "hit": false,
      "t": 168322.54876666304,
      "d": 79.64579999999842,
      "v": 102
    },
    {
      "midi": 57,
      "hit": false,
      "t": 168322.54876666304,
      "d": 84.07056666666176,
      "v": 103
    },
    {
      "midi": 60,
      "hit": false,
      "t": 168565.91093332972,
      "d": 92.92009999998845,
      "v": 96
    },
    {
      "midi": 53,
      "hit": false,
      "t": 168574.76046666305,
      "d": 70.79626666667173,
      "v": 97
    },
    {
      "midi": 57,
      "hit": false,
      "t": 168579.1852333297,
      "d": 61.94673333334504,
      "v": 96
    },
    {
      "midi": 60,
      "hit": false,
      "t": 168844.67123332972,
      "d": 97.3448666666518,
      "v": 103
    },
    {
      "midi": 57,
      "hit": false,
      "t": 168849.09599999638,
      "d": 79.64579999999842,
      "v": 106
    },
    {
      "midi": 53,
      "hit": false,
      "t": 168853.52076666304,
      "d": 70.79626666667173,
      "v": 100
    },
    {
      "midi": 41,
      "hit": false,
      "t": 168853.52076666304,
      "d": 92.92009999998845,
      "v": 112
    },
    {
      "midi": 53,
      "hit": false,
      "t": 169110.1572333297,
      "d": 75.22103333333507,
      "v": 100
    },
    {
      "midi": 60,
      "hit": false,
      "t": 169110.1572333297,
      "d": 79.64579999999842,
      "v": 100
    },
    {
      "midi": 57,
      "hit": false,
      "t": 169119.00676666302,
      "d": 75.22103333333507,
      "v": 96
    },
    {
      "midi": 36,
      "hit": false,
      "t": 169375.6432333297,
      "d": 132.74299999998766,
      "v": 110
    },
    {
      "midi": 57,
      "hit": false,
      "t": 169393.34229999635,
      "d": 70.79626666667173,
      "v": 108
    },
    {
      "midi": 60,
      "hit": false,
      "t": 169393.34229999635,
      "d": 75.22103333333507,
      "v": 103
    },
    {
      "midi": 53,
      "hit": false,
      "t": 169397.76706666301,
      "d": 35.39813333333586,
      "v": 100
    },
    {
      "midi": 41,
      "hit": false,
      "t": 169632.27969999635,
      "d": 88.4953333333251,
      "v": 114
    },
    {
      "midi": 60,
      "hit": false,
      "t": 169641.12923332967,
      "d": 101.76963333331514,
      "v": 103
    },
    {
      "midi": 53,
      "hit": false,
      "t": 169645.55399999634,
      "d": 79.64579999999842,
      "v": 104
    },
    {
      "midi": 57,
      "hit": false,
      "t": 169649.978766663,
      "d": 79.64579999999842,
      "v": 100
    },
    {
      "midi": 55,
      "hit": false,
      "t": 169924.31429999633,
      "d": 70.79626666664262,
      "v": 98
    },
    {
      "midi": 48,
      "hit": false,
      "t": 169924.31429999633,
      "d": 115.04393333330518,
      "v": 112
    },
    {
      "midi": 63,
      "hit": false,
      "t": 169933.16383332966,
      "d": 101.76963333331514,
      "v": 82
    },
    {
      "midi": 60,
      "hit": false,
      "t": 169937.58859999632,
      "d": 48.6724333333259,
      "v": 79
    },
    {
      "midi": 53,
      "hit": false,
      "t": 169942.01336666298,
      "d": 66.37149999997928,
      "v": 55
    },
    {
      "midi": 59,
      "hit": false,
      "t": 169946.43813332965,
      "d": 30.97336666667252,
      "v": 79
    },
    {
      "midi": 63,
      "hit": false,
      "t": 170172.10123332962,
      "d": 128.31823333332432,
      "v": 89
    },
    {
      "midi": 55,
      "hit": false,
      "t": 170176.5259999963,
      "d": 97.3448666666518,
      "v": 102
    },
    {
      "midi": 60,
      "hit": false,
      "t": 170180.95076666295,
      "d": 92.92009999998845,
      "v": 92
    },
    {
      "midi": 55,
      "hit": false,
      "t": 170442.0119999963,
      "d": 88.4953333333251,
      "v": 108
    },
    {
      "midi": 43,
      "hit": false,
      "t": 170442.0119999963,
      "d": 123.89346666666097,
      "v": 116
    },
    {
      "midi": 63,
      "hit": false,
      "t": 170442.0119999963,
      "d": 128.31823333332432,
      "v": 96
    },
    {
      "midi": 60,
      "hit": false,
      "t": 170450.86153332962,
      "d": 84.07056666666176,
      "v": 97
    },
    {
      "midi": 63,
      "hit": false,
      "t": 170703.0732333296,
      "d": 110.61916666667094,
      "v": 92
    },
    {
      "midi": 55,
      "hit": false,
      "t": 170707.49799999627,
      "d": 79.64579999999842,
      "v": 103
    },
    {
      "midi": 60,
      "hit": false,
      "t": 170711.92276666293,
      "d": 75.22103333333507,
      "v": 93
    },
    {
      "midi": 63,
      "hit": false,
      "t": 170981.8335333296,
      "d": 101.76963333331514,
      "v": 100
    },
    {
      "midi": 55,
      "hit": false,
      "t": 170986.25829999626,
      "d": 66.37150000000838,
      "v": 108
    },
    {
      "midi": 60,
      "hit": false,
      "t": 170986.25829999626,
      "d": 75.22103333333507,
      "v": 105
    },
    {
      "midi": 48,
      "hit": false,
      "t": 170990.68306666292,
      "d": 88.4953333333251,
      "v": 117
    },
    {
      "midi": 63,
      "hit": false,
      "t": 171242.8947666629,
      "d": 97.3448666666809,
      "v": 96
    },
    {
      "midi": 55,
      "hit": false,
      "t": 171247.31953332957,
      "d": 70.79626666667173,
      "v": 105
    },
    {
      "midi": 60,
      "hit": false,
      "t": 171256.1690666629,
      "d": 39.82289999999921,
      "v": 92
    },
    {
      "midi": 43,
      "hit": false,
      "t": 171495.10646666292,
      "d": 256.63646666664863,
      "v": 110
    },
    {
      "midi": 63,
      "hit": false,
      "t": 171517.23029999627,
      "d": 181.41543333331356,
      "v": 99
    },
    {
      "midi": 55,
      "hit": false,
      "t": 171521.65506666293,
      "d": 75.22103333333507,
      "v": 106
    },
    {
      "midi": 60,
      "hit": false,
      "t": 171521.65506666293,
      "d": 92.92009999998845,
      "v": 101
    },
    {
      "midi": 63,
      "hit": false,
      "t": 171760.5924666629,
      "d": 79.64579999999842,
      "v": 65
    },
    {
      "midi": 55,
      "hit": false,
      "t": 171769.44199999623,
      "d": 92.92010000001756,
      "v": 110
    },
    {
      "midi": 48,
      "hit": false,
      "t": 171778.29153332955,
      "d": 84.07056666669087,
      "v": 112
    },
    {
      "midi": 55,
      "hit": false,
      "t": 172034.92799999623,
      "d": 92.92009999998845,
      "v": 110
    },
    {
      "midi": 43,
      "hit": false,
      "t": 172039.3527666629,
      "d": 115.04393333333428,
      "v": 116
    },
    {
      "midi": 62,
      "hit": false,
      "t": 172043.77753332956,
      "d": 75.22103333333507,
      "v": 103
    },
    {
      "midi": 58,
      "hit": false,
      "t": 172043.77753332956,
      "d": 88.4953333333251,
      "v": 96
    },
    {
      "midi": 55,
      "hit": false,
      "t": 172295.98923332957,
      "d": 88.4953333333251,
      "v": 100
    },
    {
      "midi": 62,
      "hit": false,
      "t": 172300.41399999624,
      "d": 88.4953333333251,
      "v": 95
    },
    {
      "midi": 58,
      "hit": false,
      "t": 172300.41399999624,
      "d": 97.3448666666518,
      "v": 92
    },
    {
      "midi": 38,
      "hit": false,
      "t": 172570.32476666287,
      "d": 123.89346666663187,
      "v": 113
    },
    {
      "midi": 58,
      "hit": false,
      "t": 172579.1742999962,
      "d": 97.3448666666518,
      "v": 102
    },
    {
      "midi": 55,
      "hit": false,
      "t": 172583.59906666286,
      "d": 75.22103333333507,
      "v": 110
    },
    {
      "midi": 62,
      "hit": false,
      "t": 172583.59906666286,
      "d": 84.07056666666176,
      "v": 104
    },
    {
      "midi": 58,
      "hit": false,
      "t": 172822.53646666283,
      "d": 101.76963333331514,
      "v": 96
    },
    {
      "midi": 55,
      "hit": false,
      "t": 172826.9612333295,
      "d": 84.07056666666176,
      "v": 100
    },
    {
      "midi": 62,
      "hit": false,
      "t": 172826.9612333295,
      "d": 92.92009999998845,
      "v": 95
    },
    {
      "midi": 43,
      "hit": false,
      "t": 173088.0224666628,
      "d": 84.07056666666176,
      "v": 121
    },
    {
      "midi": 55,
      "hit": false,
      "t": 173092.44723332947,
      "d": 70.79626666667173,
      "v": 115
    },
    {
      "midi": 58,
      "hit": false,
      "t": 173092.44723332947,
      "d": 97.3448666666518,
      "v": 109
    },
    {
      "midi": 62,
      "hit": false,
      "t": 173096.87199999613,
      "d": 75.22103333333507,
      "v": 106
    },
    {
      "midi": 58,
      "hit": false,
      "t": 173924.3033666628,
      "d": 57.52196666665259,
      "v": 50
    },
    {
      "midi": 55,
      "hit": false,
      "t": 174127.84263332945,
      "d": 110.61916666667094,
      "v": 92
    },
    {
      "midi": 62,
      "hit": false,
      "t": 174158.81599999612,
      "d": 57.52196666665259,
      "v": 95
    },
    {
      "midi": 58,
      "hit": false,
      "t": 174167.66553332945,
      "d": 92.92010000001756,
      "v": 93
    },
    {
      "midi": 43,
      "hit": false,
      "t": 174180.93983332944,
      "d": 92.92010000001756,
      "v": 118
    },
    {
      "midi": 55,
      "hit": false,
      "t": 174433.15153332945,
      "d": 70.79626666664262,
      "v": 100
    },
    {
      "midi": 62,
      "hit": false,
      "t": 174437.57629999612,
      "d": 44.24766666666255,
      "v": 90
    },
    {
      "midi": 58,
      "hit": false,
      "t": 174442.00106666278,
      "d": 44.24766666666255,
      "v": 77
    },
    {
      "midi": 38,
      "hit": false,
      "t": 174703.0622999961,
      "d": 97.34486666662269,
      "v": 108
    },
    {
      "midi": 55,
      "hit": false,
      "t": 174707.48706666275,
      "d": 75.22103333330597,
      "v": 106
    },
    {
      "midi": 62,
      "hit": false,
      "t": 174707.48706666275,
      "d": 75.22103333330597,
      "v": 103
    },
    {
      "midi": 58,
      "hit": false,
      "t": 174711.91183332942,
      "d": 57.52196666665259,
      "v": 92
    },
    {
      "midi": 55,
      "hit": false,
      "t": 174959.6987666627,
      "d": 79.64579999999842,
      "v": 103
    },
    {
      "midi": 62,
      "hit": false,
      "t": 174964.12353332937,
      "d": 39.82289999999921,
      "v": 95
    },
    {
      "midi": 58,
      "hit": false,
      "t": 174964.12353332937,
      "d": 66.37150000000838,
      "v": 91
    },
    {
      "midi": 58,
      "hit": false,
      "t": 175229.60953332938,
      "d": 88.4953333333251,
      "v": 103
    },
    {
      "midi": 43,
      "hit": false,
      "t": 175229.60953332938,
      "d": 97.3448666666518,
      "v": 112
    },
    {
      "midi": 62,
      "hit": false,
      "t": 175234.03429999604,
      "d": 44.24766666666255,
      "v": 97
    },
    {
      "midi": 55,
      "hit": false,
      "t": 175234.03429999604,
      "d": 75.22103333333507,
      "v": 104
    },
    {
      "midi": 58,
      "hit": false,
      "t": 175477.3964666627,
      "d": 70.79626666664262,
      "v": 95
    },
    {
      "midi": 62,
      "hit": false,
      "t": 175481.82123332936,
      "d": 48.6724333333259,
      "v": 94
    },
    {
      "midi": 55,
      "hit": false,
      "t": 175481.82123332936,
      "d": 61.94673333331593,
      "v": 99
    },
    {
      "midi": 38,
      "hit": false,
      "t": 175738.457699996,
      "d": 287.60983333329204,
      "v": 106
    },
    {
      "midi": 58,
      "hit": false,
      "t": 175756.15676666267,
      "d": 110.61916666664183,
      "v": 103
    },
    {
      "midi": 62,
      "hit": false,
      "t": 175760.58153332933,
      "d": 92.92009999998845,
      "v": 103
    },
    {
      "midi": 55,
      "hit": false,
      "t": 175765.006299996,
      "d": 70.79626666667173,
      "v": 104
    },
    {
      "midi": 55,
      "hit": false,
      "t": 176012.7932333293,
      "d": 110.61916666664183,
      "v": 110
    },
    {
      "midi": 43,
      "hit": false,
      "t": 176012.7932333293,
      "d": 300.8841333333112,
      "v": 109
    },
    {
      "midi": 62,
      "hit": false,
      "t": 176021.64276666264,
      "d": 57.52196666665259,
      "v": 89
    },
    {
      "midi": 58,
      "hit": false,
      "t": 176021.64276666264,
      "d": 70.79626666664262,
      "v": 81
    },
    {
      "midi": 41,
      "hit": false,
      "t": 176278.2792333293,
      "d": 110.61916666667094,
      "v": 109
    },
    {
      "midi": 60,
      "hit": false,
      "t": 176282.70399999595,
      "d": 101.76963333334425,
      "v": 100
    },
    {
      "midi": 53,
      "hit": false,
      "t": 176282.70399999595,
      "d": 106.19440000000759,
      "v": 109
    },
    {
      "midi": 57,
      "hit": false,
      "t": 176291.55353332928,
      "d": 84.07056666669087,
      "v": 103
    },
    {
      "midi": 53,
      "hit": false,
      "t": 176539.34046666263,
      "d": 79.64579999999842,
      "v": 93
    },
    {
      "midi": 60,
      "hit": false,
      "t": 176539.34046666263,
      "d": 88.4953333333251,
      "v": 92
    },
    {
      "midi": 57,
      "hit": false,
      "t": 176543.7652333293,
      "d": 79.64579999999842,
      "v": 96
    },
    {
      "midi": 36,
      "hit": false,
      "t": 176804.82646666263,
      "d": 123.89346666663187,
      "v": 111
    },
    {
      "midi": 60,
      "hit": false,
      "t": 176813.67599999596,
      "d": 97.3448666666518,
      "v": 103
    },
    {
      "midi": 53,
      "hit": false,
      "t": 176822.5255333293,
      "d": 75.22103333333507,
      "v": 103
    },
    {
      "midi": 57,
      "hit": false,
      "t": 176822.5255333293,
      "d": 75.22103333333507,
      "v": 105
    },
    {
      "midi": 60,
      "hit": false,
      "t": 177070.3124666626,
      "d": 79.64579999999842,
      "v": 95
    },
    {
      "midi": 53,
      "hit": false,
      "t": 177074.73723332927,
      "d": 70.79626666667173,
      "v": 98
    },
    {
      "midi": 57,
      "hit": false,
      "t": 177079.16199999594,
      "d": 61.94673333334504,
      "v": 94
    },
    {
      "midi": 41,
      "hit": false,
      "t": 177344.64799999594,
      "d": 84.07056666666176,
      "v": 113
    },
    {
      "midi": 57,
      "hit": false,
      "t": 177349.0727666626,
      "d": 75.22103333333507,
      "v": 105
    },
    {
      "midi": 60,
      "hit": false,
      "t": 177349.0727666626,
      "d": 79.64579999999842,
      "v": 100
    },
    {
      "midi": 53,
      "hit": false,
      "t": 177353.49753332927,
      "d": 61.94673333334504,
      "v": 103
    },
    {
      "midi": 53,
      "hit": false,
      "t": 177592.43493332926,
      "d": 75.22103333333507,
      "v": 99
    },
    {
      "midi": 60,
      "hit": false,
      "t": 177592.43493332926,
      "d": 75.22103333333507,
      "v": 95
    },
    {
      "midi": 57,
      "hit": false,
      "t": 177605.70923332925,
      "d": 30.97336666667252,
      "v": 90
    },
    {
      "midi": 36,
      "hit": false,
      "t": 177866.7704666626,
      "d": 194.6897333333327,
      "v": 111
    },
    {
      "midi": 60,
      "hit": false,
      "t": 177871.19523332926,
      "d": 123.89346666666097,
      "v": 103
    },
    {
      "midi": 53,
      "hit": false,
      "t": 177880.04476666258,
      "d": 66.37150000000838,
      "v": 100
    },
    {
      "midi": 57,
      "hit": false,
      "t": 177880.04476666258,
      "d": 84.07056666666176,
      "v": 102
    },
    {
      "midi": 41,
      "hit": false,
      "t": 178127.83169999594,
      "d": 75.22103333333507,
      "v": 111
    },
    {
      "midi": 60,
      "hit": false,
      "t": 178132.2564666626,
      "d": 70.79626666667173,
      "v": 93
    },
    {
      "midi": 53,
      "hit": false,
      "t": 178136.68123332926,
      "d": 92.92010000001756,
      "v": 98
    },
    {
      "midi": 55,
      "hit": false,
      "t": 178402.16723332927,
      "d": 88.4953333333251,
      "v": 101
    },
    {
      "midi": 48,
      "hit": false,
      "t": 178406.59199999593,
      "d": 110.61916666667094,
      "v": 111
    },
    {
      "midi": 63,
      "hit": false,
      "t": 178411.0167666626,
      "d": 110.61916666667094,
      "v": 92
    },
    {
      "midi": 60,
      "hit": false,
      "t": 178415.44153332926,
      "d": 97.3448666666809,
      "v": 94
    },
    {
      "midi": 63,
      "hit": false,
      "t": 178654.37893332925,
      "d": 123.89346666666097,
      "v": 89
    },
    {
      "midi": 55,
      "hit": false,
      "t": 178667.65323332924,
      "d": 79.64579999999842,
      "v": 96
    },
    {
      "midi": 60,
      "hit": false,
      "t": 178667.65323332924,
      "d": 88.4953333333251,
      "v": 89
    },
    {
      "midi": 43,
      "hit": false,
      "t": 178928.71446666258,
      "d": 110.61916666664183,
      "v": 112
    },
    {
      "midi": 63,
      "hit": false,
      "t": 178933.13923332925,
      "d": 119.46869999996852,
      "v": 96
    },
    {
      "midi": 55,
      "hit": false,
      "t": 178937.5639999959,
      "d": 75.22103333333507,
      "v": 104
    },
    {
      "midi": 60,
      "hit": false,
      "t": 178941.98876666257,
      "d": 79.64579999999842,
      "v": 93
    },
    {
      "midi": 63,
      "hit": false,
      "t": 179176.50139999588,
      "d": 128.31823333332432,
      "v": 92
    },
    {
      "midi": 55,
      "hit": false,
      "t": 179189.77569999587,
      "d": 75.22103333333507,
      "v": 98
    },
    {
      "midi": 60,
      "hit": false,
      "t": 179198.6252333292,
      "d": 61.94673333334504,
      "v": 93
    },
    {
      "midi": 55,
      "hit": false,
      "t": 179464.1112333292,
      "d": 84.07056666666176,
      "v": 105
    },
    {
      "midi": 63,
      "hit": false,
      "t": 179464.1112333292,
      "d": 119.46869999999763,
      "v": 98
    },
    {
      "midi": 60,
      "hit": false,
      "t": 179472.96076666252,
      "d": 79.64579999999842,
      "v": 95
    },
    {
      "midi": 48,
      "hit": false,
      "t": 179472.96076666252,
      "d": 106.19440000000759,
      "v": 114
    },
    {
      "midi": 63,
      "hit": false,
      "t": 179707.47339999586,
      "d": 119.46869999999763,
      "v": 89
    },
    {
      "midi": 55,
      "hit": false,
      "t": 179720.74769999585,
      "d": 84.07056666666176,
      "v": 96
    },
    {
      "midi": 60,
      "hit": false,
      "t": 179729.59723332917,
      "d": 53.09719999998924,
      "v": 84
    },
    {
      "midi": 63,
      "hit": false,
      "t": 179981.8089333292,
      "d": 132.74299999998766,
      "v": 99
    },
    {
      "midi": 43,
      "hit": false,
      "t": 179981.8089333292,
      "d": 154.8668333333335,
      "v": 111
    },
    {
      "midi": 55,
      "hit": false,
      "t": 179995.08323332918,
      "d": 70.79626666667173,
      "v": 106
    },
    {
      "midi": 60,
      "hit": false,
      "t": 179995.08323332918,
      "d": 70.79626666667173,
      "v": 98
    },
    {
      "midi": 63,
      "hit": false,
      "t": 180234.0206333292,
      "d": 106.19439999997849,
      "v": 87
    },
    {
      "midi": 55,
      "hit": false,
      "t": 180247.2949333292,
      "d": 84.07056666666176,
      "v": 103
    },
    {
      "midi": 48,
      "hit": false,
      "t": 180256.14446666252,
      "d": 66.37150000000838,
      "v": 109
    },
    {
      "midi": 55,
      "hit": false,
      "t": 180526.05523332919,
      "d": 84.07056666666176,
      "v": 110
    },
    {
      "midi": 43,
      "hit": false,
      "t": 180526.05523332919,
      "d": 115.04393333333428,
      "v": 114
    },
    {
      "midi": 62,
      "hit": false,
      "t": 180530.47999999585,
      "d": 57.52196666665259,
      "v": 103
    },
    {
      "midi": 58,
      "hit": false,
      "t": 180530.47999999585,
      "d": 88.4953333333251,
      "v": 97
    },
    {
      "midi": 55,
      "hit": false,
      "t": 180791.5412333292,
      "d": 61.94673333331593,
      "v": 96
    },
    {
      "midi": 58,
      "hit": false,
      "t": 180791.5412333292,
      "d": 75.22103333330597,
      "v": 91
    },
    {
      "midi": 62,
      "hit": false,
      "t": 180795.96599999585,
      "d": 44.24766666666255,
      "v": 87
    },
    {
      "midi": 38,
      "hit": false,
      "t": 181048.17769999584,
      "d": 115.04393333330518,
      "v": 109
    },
    {
      "midi": 55,
      "hit": false,
      "t": 181057.02723332917,
      "d": 79.64579999999842,
      "v": 108
    },
    {
      "midi": 62,
      "hit": false,
      "t": 181057.02723332917,
      "d": 92.92009999998845,
      "v": 100
    },
    {
      "midi": 58,
      "hit": false,
      "t": 181061.45199999583,
      "d": 92.92009999998845,
      "v": 100
    },
    {
      "midi": 55,
      "hit": false,
      "t": 181313.6636999958,
      "d": 92.92009999998845,
      "v": 100
    },
    {
      "midi": 58,
      "hit": false,
      "t": 181313.6636999958,
      "d": 92.92009999998845,
      "v": 92
    },
    {
      "midi": 62,
      "hit": false,
      "t": 181322.51323332914,
      "d": 79.64579999999842,
      "v": 91
    },
    {
      "midi": 55,
      "hit": false,
      "t": 181587.99923332914,
      "d": 75.22103333333507,
      "v": 113
    },
    {
      "midi": 58,
      "hit": false,
      "t": 181587.99923332914,
      "d": 88.4953333333251,
      "v": 105
    },
    {
      "midi": 43,
      "hit": false,
      "t": 181587.99923332914,
      "d": 92.92009999998845,
      "v": 117
    },
    {
      "midi": 62,
      "hit": false,
      "t": 181592.4239999958,
      "d": 84.07056666666176,
      "v": 104
    },
    {
      "midi": 55,
      "hit": false,
      "t": 182618.96986666246,
      "d": 128.3182333332952,
      "v": 97
    },
    {
      "midi": 62,
      "hit": false,
      "t": 182663.21753332912,
      "d": 92.92009999995935,
      "v": 94
    },
    {
      "midi": 58,
      "hit": false,
      "t": 182676.4918333291,
      "d": 106.19439999997849,
      "v": 94
    },
    {
      "midi": 43,
      "hit": false,
      "t": 182689.7661333291,
      "d": 97.3448666666518,
      "v": 116
    },
    {
      "midi": 58,
      "hit": false,
      "t": 182933.12829999576,
      "d": 92.92009999998845,
      "v": 89
    },
    {
      "midi": 55,
      "hit": false,
      "t": 182937.55306666243,
      "d": 75.22103333333507,
      "v": 97
    },
    {
      "midi": 62,
      "hit": false,
      "t": 182946.40259999575,
      "d": 70.79626666667173,
      "v": 67
    },
    {
      "midi": 38,
      "hit": false,
      "t": 183189.7647666624,
      "d": 115.04393333330518,
      "v": 110
    },
    {
      "midi": 58,
      "hit": false,
      "t": 183194.18953332907,
      "d": 106.19439999997849,
      "v": 100
    },
    {
      "midi": 55,
      "hit": false,
      "t": 183203.0390666624,
      "d": 84.07056666666176,
      "v": 106
    },
    {
      "midi": 62,
      "hit": false,
      "t": 183207.46383332906,
      "d": 79.64579999999842,
      "v": 78
    },
    {
      "midi": 64,
      "hit": false,
      "t": 183220.73813332905,
      "d": 30.97336666667252,
      "v": 79
    },
    {
      "midi": 62,
      "hit": false,
      "t": 183441.9764666624,
      "d": 88.4953333333251,
      "v": 92
    },
    {
      "midi": 55,
      "hit": false,
      "t": 183450.82599999572,
      "d": 79.64579999999842,
      "v": 92
    },
    {
      "midi": 58,
      "hit": false,
      "t": 183455.2507666624,
      "d": 75.22103333333507,
      "v": 80
    },
    {
      "midi": 62,
      "hit": false,
      "t": 183716.31199999573,
      "d": 79.64579999999842,
      "v": 106
    },
    {
      "midi": 55,
      "hit": false,
      "t": 183720.7367666624,
      "d": 66.37150000000838,
      "v": 106
    },
    {
      "midi": 43,
      "hit": false,
      "t": 183720.7367666624,
      "d": 75.22103333333507,
      "v": 112
    },
    {
      "midi": 58,
      "hit": false,
      "t": 183725.16153332905,
      "d": 66.37150000000838,
      "v": 98
    },
    {
      "midi": 58,
      "hit": false,
      "t": 183968.5236999957,
      "d": 75.22103333333507,
      "v": 93
    },
    {
      "midi": 62,
      "hit": false,
      "t": 183977.37323332904,
      "d": 39.82289999999921,
      "v": 95
    },
    {
      "midi": 55,
      "hit": false,
      "t": 183981.7979999957,
      "d": 30.97336666667252,
      "v": 96
    },
    {
      "midi": 38,
      "hit": false,
      "t": 184234.00969999572,
      "d": 292.0345999999845,
      "v": 114
    },
    {
      "midi": 62,
      "hit": false,
      "t": 184247.2839999957,
      "d": 119.46869999999763,
      "v": 108
    },
    {
      "midi": 58,
      "hit": false,
      "t": 184247.2839999957,
      "d": 137.167766666651,
      "v": 101
    },
    {
      "midi": 55,
      "hit": false,
      "t": 184251.70876666237,
      "d": 84.07056666666176,
      "v": 106
    },
    {
      "midi": 62,
      "hit": false,
      "t": 184490.64616666237,
      "d": 84.07056666666176,
      "v": 93
    },
    {
      "midi": 55,
      "hit": false,
      "t": 184490.64616666237,
      "d": 128.31823333332432,
      "v": 110
    },
    {
      "midi": 58,
      "hit": false,
      "t": 184495.07093332903,
      "d": 88.4953333333251,
      "v": 87
    },
    {
      "midi": 43,
      "hit": false,
      "t": 184495.07093332903,
      "d": 305.3088999999745,
      "v": 116
    },
    {
      "midi": 41,
      "hit": false,
      "t": 184773.83123332902,
      "d": 92.92009999998845,
      "v": 112
    },
    {
      "midi": 60,
      "hit": false,
      "t": 184778.2559999957,
      "d": 84.07056666666176,
      "v": 98
    },
    {
      "midi": 53,
      "hit": false,
      "t": 184778.2559999957,
      "d": 88.4953333333251,
      "v": 106
    },
    {
      "midi": 57,
      "hit": false,
      "t": 184782.68076666235,
      "d": 84.07056666666176,
      "v": 100
    },
    {
      "midi": 60,
      "hit": false,
      "t": 185030.46769999567,
      "d": 70.79626666664262,
      "v": 92
    },
    {
      "midi": 53,
      "hit": false,
      "t": 185034.89246666234,
      "d": 61.94673333331593,
      "v": 95
    },
    {
      "midi": 57,
      "hit": false,
      "t": 185039.317233329,
      "d": 39.82289999999921,
      "v": 92
    },
    {
      "midi": 53,
      "hit": false,
      "t": 185295.95369999565,
      "d": 75.22103333333507,
      "v": 100
    },
    {
      "midi": 60,
      "hit": false,
      "t": 185295.95369999565,
      "d": 79.64579999999842,
      "v": 95
    },
    {
      "midi": 57,
      "hit": false,
      "t": 185300.3784666623,
      "d": 79.64579999999842,
      "v": 100
    },
    {
      "midi": 36,
      "hit": false,
      "t": 185300.3784666623,
      "d": 110.61916666667094,
      "v": 111
    },
    {
      "midi": 60,
      "hit": false,
      "t": 185557.014933329,
      "d": 84.07056666666176,
      "v": 95
    },
    {
      "midi": 53,
      "hit": false,
      "t": 185561.43969999565,
      "d": 70.79626666667173,
      "v": 95
    },
    {
      "midi": 57,
      "hit": false,
      "t": 185561.43969999565,
      "d": 70.79626666667173,
      "v": 93
    },
    {
      "midi": 60,
      "hit": false,
      "t": 185831.35046666232,
      "d": 70.79626666664262,
      "v": 101
    },
    {
      "midi": 41,
      "hit": false,
      "t": 185831.35046666232,
      "d": 75.22103333330597,
      "v": 112
    },
    {
      "midi": 57,
      "hit": false,
      "t": 185835.77523332898,
      "d": 61.94673333331593,
      "v": 100
    },
    {
      "midi": 53,
      "hit": false,
      "t": 185840.19999999565,
      "d": 39.82289999999921,
      "v": 98
    },
    {
      "midi": 60,
      "hit": false,
      "t": 186092.41169999563,
      "d": 70.79626666664262,
      "v": 97
    },
    {
      "midi": 53,
      "hit": false,
      "t": 186101.26123332896,
      "d": 44.24766666666255,
      "v": 95
    },
    {
      "midi": 57,
      "hit": false,
      "t": 186105.68599999562,
      "d": 35.39813333333586,
      "v": 95
    },
    {
      "midi": 36,
      "hit": false,
      "t": 186353.47293332894,
      "d": 154.86683333330438,
      "v": 111
    },
    {
      "midi": 60,
      "hit": false,
      "t": 186366.74723332893,
      "d": 88.4953333333251,
      "v": 102
    },
    {
      "midi": 53,
      "hit": false,
      "t": 186371.1719999956,
      "d": 70.79626666667173,
      "v": 100
    },
    {
      "midi": 57,
      "hit": false,
      "t": 186371.1719999956,
      "d": 79.64579999999842,
      "v": 102
    },
    {
      "midi": 60,
      "hit": false,
      "t": 186614.53416666226,
      "d": 79.64579999996931,
      "v": 95
    },
    {
      "midi": 41,
      "hit": false,
      "t": 186618.95893332892,
      "d": 70.79626666664262,
      "v": 112
    },
    {
      "midi": 53,
      "hit": false,
      "t": 186627.80846666225,
      "d": 79.64579999996931,
      "v": 93
    },
    {
      "midi": 57,
      "hit": false,
      "t": 186636.65799999557,
      "d": 39.82289999999921,
      "v": 84
    },
    {
      "midi": 55,
      "hit": false,
      "t": 186888.86969999556,
      "d": 88.4953333333251,
      "v": 102
    },
    {
      "midi": 48,
      "hit": false,
      "t": 186893.29446666222,
      "d": 110.61916666664183,
      "v": 112
    },
    {
      "midi": 60,
      "hit": false,
      "t": 186902.14399999555,
      "d": 88.4953333333251,
      "v": 94
    },
    {
      "midi": 63,
      "hit": false,
      "t": 186906.5687666622,
      "d": 97.3448666666518,
      "v": 79
    },
    {
      "midi": 63,
      "hit": false,
      "t": 187141.08139999554,
      "d": 128.31823333332432,
      "v": 86
    },
    {
      "midi": 55,
      "hit": false,
      "t": 187145.5061666622,
      "d": 84.07056666666176,
      "v": 93
    },
    {
      "midi": 60,
      "hit": false,
      "t": 187145.5061666622,
      "d": 97.3448666666518,
      "v": 90
    },
    {
      "midi": 63,
      "hit": false,
      "t": 187406.56739999555,
      "d": 132.74299999998766,
      "v": 92
    },
    {
      "midi": 43,
      "hit": false,
      "t": 187410.9921666622,
      "d": 119.46869999999763,
      "v": 113
    },
    {
      "midi": 55,
      "hit": false,
      "t": 187415.41693332887,
      "d": 79.64579999999842,
      "v": 98
    },
    {
      "midi": 60,
      "hit": false,
      "t": 187419.84169999554,
      "d": 84.07056666666176,
      "v": 93
    },
    {
      "midi": 63,
      "hit": false,
      "t": 187658.77909999553,
      "d": 128.31823333332432,
      "v": 93
    },
    {
      "midi": 55,
      "hit": false,
      "t": 187667.62863332886,
      "d": 88.4953333333251,
      "v": 99
    },
    {
      "midi": 60,
      "hit": false,
      "t": 187676.4781666622,
      "d": 84.07056666666176,
      "v": 94
    },
    {
      "midi": 63,
      "hit": false,
      "t": 187937.53939999553,
      "d": 119.46869999999763,
      "v": 94
    },
    {
      "midi": 55,
      "hit": false,
      "t": 187941.9641666622,
      "d": 79.64579999999842,
      "v": 108
    },
    {
      "midi": 60,
      "hit": false,
      "t": 187946.38893332885,
      "d": 75.22103333333507,
      "v": 93
    },
    {
      "midi": 48,
      "hit": false,
      "t": 187950.81369999552,
      "d": 97.3448666666809,
      "v": 113
    },
    {
      "midi": 63,
      "hit": false,
      "t": 188189.7510999955,
      "d": 119.46869999999763,
      "v": 91
    },
    {
      "midi": 55,
      "hit": false,
      "t": 188194.17586666218,
      "d": 84.07056666666176,
      "v": 103
    },
    {
      "midi": 60,
      "hit": false,
      "t": 188203.0253999955,
      "d": 61.94673333334504,
      "v": 93
    },
    {
      "midi": 43,
      "hit": false,
      "t": 188464.08663332884,
      "d": 185.8401999999769,
      "v": 111
    },
    {
      "midi": 55,
      "hit": false,
      "t": 188468.5113999955,
      "d": 84.07056666666176,
      "v": 105
    },
    {
      "midi": 60,
      "hit": false,
      "t": 188472.93616666217,
      "d": 92.92009999998845,
      "v": 96
    },
    {
      "midi": 63,
      "hit": false,
      "t": 188472.93616666217,
      "d": 150.44206666664104,
      "v": 96
    },
    {
      "midi": 63,
      "hit": false,
      "t": 188716.29833332883,
      "d": 79.64579999999842,
      "v": 75
    },
    {
      "midi": 55,
      "hit": false,
      "t": 188729.57263332882,
      "d": 97.3448666666518,
      "v": 109
    },
    {
      "midi": 48,
      "hit": false,
      "t": 188733.99739999548,
      "d": 79.64579999999842,
      "v": 114
    },
    {
      "midi": 43,
      "hit": false,
      "t": 188990.63386666213,
      "d": 119.46869999996852,
      "v": 116
    },
    {
      "midi": 55,
      "hit": false,
      "t": 188995.0586333288,
      "d": 84.07056666666176,
      "v": 104
    },
    {
      "midi": 62,
      "hit": false,
      "t": 188999.48339999546,
      "d": 39.82289999999921,
      "v": 100
    },
    {
      "midi": 58,
      "hit": false,
      "t": 188999.48339999546,
      "d": 97.3448666666518,
      "v": 100
    },
    {
      "midi": 55,
      "hit": false,
      "t": 189260.54463332877,
      "d": 84.07056666666176,
      "v": 100
    },
    {
      "midi": 58,
      "hit": false,
      "t": 189260.54463332877,
      "d": 84.07056666666176,
      "v": 90
    },
    {
      "midi": 62,
      "hit": false,
      "t": 189264.96939999543,
      "d": 48.6724333333259,
      "v": 89
    },
    {
      "midi": 38,
      "hit": false,
      "t": 189521.6058666621,
      "d": 128.31823333332432,
      "v": 112
    },
    {
      "midi": 55,
      "hit": false,
      "t": 189534.8801666621,
      "d": 79.64579999999842,
      "v": 108
    },
    {
      "midi": 58,
      "hit": false,
      "t": 189534.8801666621,
      "d": 88.4953333333251,
      "v": 101
    },
    {
      "midi": 62,
      "hit": false,
      "t": 189539.30493332876,
      "d": 84.07056666666176,
      "v": 100
    },
    {
      "midi": 55,
      "hit": false,
      "t": 189787.09186666211,
      "d": 88.4953333333251,
      "v": 99
    },
    {
      "midi": 62,
      "hit": false,
      "t": 189787.09186666211,
      "d": 92.92009999998845,
      "v": 95
    },
    {
      "midi": 58,
      "hit": false,
      "t": 189787.09186666211,
      "d": 101.76963333331514,
      "v": 91
    },
    {
      "midi": 43,
      "hit": false,
      "t": 190048.15309999543,
      "d": 84.07056666666176,
      "v": 112
    },
    {
      "midi": 58,
      "hit": false,
      "t": 190048.15309999543,
      "d": 110.61916666664183,
      "v": 96
    },
    {
      "midi": 55,
      "hit": false,
      "t": 190052.5778666621,
      "d": 84.07056666666176,
      "v": 106
    },
    {
      "midi": 62,
      "hit": false,
      "t": 190057.00263332875,
      "d": 92.92009999998845,
      "v": 101
    },
    {
      "midi": 43,
      "hit": false,
      "t": 190304.78956666208,
      "d": 97.3448666666518,
      "v": 112
    },
    {
      "midi": 70,
      "hit": false,
      "t": 190309.21433332874,
      "d": 61.94673333331593,
      "v": 95
    },
    {
      "midi": 82,
      "hit": false,
      "t": 190313.6390999954,
      "d": 88.4953333333251,
      "v": 110
    },
    {
      "midi": 69,
      "hit": false,
      "t": 190574.7003333287,
      "d": 30.973366666643415,
      "v": 108
    },
    {
      "midi": 42,
      "hit": false,
      "t": 190574.7003333287,
      "d": 88.495333333296,
      "v": 106
    },
    {
      "midi": 81,
      "hit": false,
      "t": 190579.12509999538,
      "d": 57.521966666623484,
      "v": 96
    },
    {
      "midi": 79,
      "hit": false,
      "t": 190587.9746333287,
      "d": 30.973366666643415,
      "v": 103
    },
    {
      "midi": 67,
      "hit": false,
      "t": 190831.33679999533,
      "d": 39.82289999999921,
      "v": 109
    },
    {
      "midi": 79,
      "hit": false,
      "t": 190831.33679999533,
      "d": 61.94673333334504,
      "v": 115
    },
    {
      "midi": 40,
      "hit": false,
      "t": 190844.61109999532,
      "d": 75.22103333336418,
      "v": 99
    },
    {
      "midi": 78,
      "hit": false,
      "t": 191096.82279999537,
      "d": 4115.032999999763,
      "v": 116
    },
    {
      "midi": 66,
      "hit": false,
      "t": 191096.82279999537,
      "d": 4119.457766666426,
      "v": 111
    },
    {
      "midi": 38,
      "hit": false,
      "t": 191118.9466333287,
      "d": 517.6976999999606,
      "v": 111
    },
    {
      "midi": 54,
      "hit": false,
      "t": 191366.73356666203,
      "d": 61.94673333331593,
      "v": 80
    },
    {
      "midi": 62,
      "hit": false,
      "t": 191366.73356666203,
      "d": 75.22103333330597,
      "v": 81
    },
    {
      "midi": 57,
      "hit": false,
      "t": 191375.58309999536,
      "d": 44.24766666666255,
      "v": 77
    },
    {
      "midi": 54,
      "hit": false,
      "t": 191503.9013333287,
      "d": 190.26496666664025,
      "v": 90
    },
    {
      "midi": 62,
      "hit": false,
      "t": 191512.750866662,
      "d": 221.23833333331277,
      "v": 103
    },
    {
      "midi": 57,
      "hit": false,
      "t": 191517.17563332868,
      "d": 216.81356666664942,
      "v": 84
    },
    {
      "midi": 45,
      "hit": false,
      "t": 191632.219566662,
      "d": 530.9719999999215,
      "v": 102
    },
    {
      "midi": 54,
      "hit": false,
      "t": 191897.70556666199,
      "d": 57.52196666665259,
      "v": 86
    },
    {
      "midi": 57,
      "hit": false,
      "t": 191902.13033332865,
      "d": 66.37149999997928,
      "v": 85
    },
    {
      "midi": 62,
      "hit": false,
      "t": 191902.13033332865,
      "d": 75.22103333330597,
      "v": 91
    },
    {
      "midi": 54,
      "hit": false,
      "t": 192026.02379999528,
      "d": 176.9906666666502,
      "v": 84
    },
    {
      "midi": 62,
      "hit": false,
      "t": 192030.44856666194,
      "d": 221.23833333331277,
      "v": 80
    },
    {
      "midi": 57,
      "hit": false,
      "t": 192039.29809999527,
      "d": 194.6897333333327,
      "v": 82
    },
    {
      "midi": 50,
      "hit": false,
      "t": 192149.91726666194,
      "d": 570.7948999999498,
      "v": 106
    },
    {
      "midi": 54,
      "hit": false,
      "t": 192424.25279999524,
      "d": 57.52196666665259,
      "v": 87
    },
    {
      "midi": 57,
      "hit": false,
      "t": 192428.6775666619,
      "d": 44.24766666666255,
      "v": 83
    },
    {
      "midi": 62,
      "hit": false,
      "t": 192428.6775666619,
      "d": 66.37149999997928,
      "v": 90
    },
    {
      "midi": 54,
      "hit": false,
      "t": 192561.4205666619,
      "d": 154.8668333333335,
      "v": 85
    },
    {
      "midi": 62,
      "hit": false,
      "t": 192570.27009999522,
      "d": 207.96403333332273,
      "v": 102
    },
    {
      "midi": 57,
      "hit": false,
      "t": 192574.69486666188,
      "d": 190.26496666666935,
      "v": 84
    },
    {
      "midi": 45,
      "hit": false,
      "t": 192676.46449999523,
      "d": 305.3088999999745,
      "v": 103
    },
    {
      "midi": 54,
      "hit": false,
      "t": 192946.37526666187,
      "d": 88.4953333333251,
      "v": 93
    },
    {
      "midi": 62,
      "hit": false,
      "t": 192946.37526666187,
      "d": 132.74299999998766,
      "v": 86
    },
    {
      "midi": 57,
      "hit": false,
      "t": 192959.64956666186,
      "d": 39.82289999999921,
      "v": 78
    },
    {
      "midi": 50,
      "hit": false,
      "t": 192959.64956666186,
      "d": 110.61916666667094,
      "v": 105
    },
    {
      "midi": 43,
      "hit": false,
      "t": 193216.28603332854,
      "d": 389.3794666666654,
      "v": 114
    },
    {
      "midi": 55,
      "hit": false,
      "t": 193295.93183332853,
      "d": 35.39813333333586,
      "v": 47
    },
    {
      "midi": 62,
      "hit": false,
      "t": 193468.49773332855,
      "d": 70.79626666664262,
      "v": 96
    },
    {
      "midi": 55,
      "hit": false,
      "t": 193468.49773332855,
      "d": 75.22103333330597,
      "v": 104
    },
    {
      "midi": 58,
      "hit": false,
      "t": 193477.34726666188,
      "d": 48.6724333333259,
      "v": 86
    },
    {
      "midi": 62,
      "hit": false,
      "t": 193610.09026666186,
      "d": 132.74299999998766,
      "v": 98
    },
    {
      "midi": 58,
      "hit": false,
      "t": 193618.9397999952,
      "d": 101.76963333334425,
      "v": 90
    },
    {
      "midi": 55,
      "hit": false,
      "t": 193618.9397999952,
      "d": 106.19440000000759,
      "v": 103
    },
    {
      "midi": 38,
      "hit": false,
      "t": 193729.55896666186,
      "d": 557.5205999999307,
      "v": 108
    },
    {
      "midi": 62,
      "hit": false,
      "t": 193999.46973332853,
      "d": 30.973366666643415,
      "v": 99
    },
    {
      "midi": 55,
      "hit": false,
      "t": 194003.8944999952,
      "d": 35.39813333330676,
      "v": 96
    },
    {
      "midi": 58,
      "hit": false,
      "t": 194021.59356666185,
      "d": 30.973366666643415,
      "v": 50
    },
    {
      "midi": 62,
      "hit": false,
      "t": 194118.9384333285,
      "d": 163.71636666663107,
      "v": 91
    },
    {
      "midi": 55,
      "hit": false,
      "t": 194132.2127333285,
      "d": 115.04393333333428,
      "v": 96
    },
    {
      "midi": 58,
      "hit": false,
      "t": 194136.63749999515,
      "d": 123.89346666666097,
      "v": 84
    },
    {
      "midi": 43,
      "hit": false,
      "t": 194273.8052666618,
      "d": 460.175733333308,
      "v": 111
    },
    {
      "midi": 55,
      "hit": false,
      "t": 194477.34453332846,
      "d": 44.24766666666255,
      "v": 95
    },
    {
      "midi": 62,
      "hit": false,
      "t": 194477.34453332846,
      "d": 44.24766666666255,
      "v": 92
    },
    {
      "midi": 58,
      "hit": false,
      "t": 194477.34453332846,
      "d": 57.52196666665259,
      "v": 82
    },
    {
      "midi": 55,
      "hit": false,
      "t": 194698.58286666177,
      "d": 92.92010000001756,
      "v": 95
    },
    {
      "midi": 62,
      "hit": false,
      "t": 194703.00763332844,
      "d": 88.49533333335421,
      "v": 94
    },
    {
      "midi": 58,
      "hit": false,
      "t": 194707.4323999951,
      "d": 84.07056666669087,
      "v": 85
    },
    {
      "midi": 38,
      "hit": false,
      "t": 194756.10483332846,
      "d": 345.13180000000284,
      "v": 106
    },
    {
      "midi": 62,
      "hit": false,
      "t": 195061.41373332846,
      "d": 79.64579999999842,
      "v": 106
    },
    {
      "midi": 58,
      "hit": false,
      "t": 195065.83849999512,
      "d": 75.22103333333507,
      "v": 103
    },
    {
      "midi": 43,
      "hit": false,
      "t": 195065.83849999512,
      "d": 101.76963333334425,
      "v": 112
    },
    {
      "midi": 55,
      "hit": false,
      "t": 195074.68803332845,
      "d": 30.97336666667252,
      "v": 103
    },
    {
      "midi": 48,
      "hit": false,
      "t": 195331.32449999513,
      "d": 592.9187333333248,
      "v": 112
    },
    {
      "midi": 55,
      "hit": false,
      "t": 195362.2978666618,
      "d": 44.24766666666255,
      "v": 77
    },
    {
      "midi": 55,
      "hit": false,
      "t": 195583.53619999514,
      "d": 79.64579999999842,
      "v": 94
    },
    {
      "midi": 60,
      "hit": false,
      "t": 195587.9609666618,
      "d": 70.79626666667173,
      "v": 86
    },
    {
      "midi": 63,
      "hit": false,
      "t": 195587.9609666618,
      "d": 115.04393333333428,
      "v": 84
    },
    {
      "midi": 60,
      "hit": false,
      "t": 195738.40303332848,
      "d": 203.53926666663028,
      "v": 92
    },
    {
      "midi": 63,
      "hit": false,
      "t": 195738.40303332848,
      "d": 238.93739999996615,
      "v": 57
    },
    {
      "midi": 55,
      "hit": false,
      "t": 195742.82779999514,
      "d": 190.26496666664025,
      "v": 90
    },
    {
      "midi": 43,
      "hit": false,
      "t": 195866.7212666618,
      "d": 530.9719999999506,
      "v": 104
    },
    {
      "midi": 63,
      "hit": false,
      "t": 196127.7824999951,
      "d": 88.4953333333251,
      "v": 86
    },
    {
      "midi": 60,
      "hit": false,
      "t": 196136.63203332844,
      "d": 44.24766666666255,
      "v": 82
    },
    {
      "midi": 55,
      "hit": false,
      "t": 196136.63203332844,
      "d": 48.6724333333259,
      "v": 92
    },
    {
      "midi": 60,
      "hit": false,
      "t": 196273.7997999951,
      "d": 150.44206666664104,
      "v": 90
    },
    {
      "midi": 55,
      "hit": false,
      "t": 196278.22456666175,
      "d": 146.0172999999777,
      "v": 96
    },
    {
      "midi": 63,
      "hit": false,
      "t": 196278.22456666175,
      "d": 190.26496666664025,
      "v": 93
    },
    {
      "midi": 48,
      "hit": false,
      "t": 196406.54279999508,
      "d": 477.8747999999614,
      "v": 112
    },
    {
      "midi": 55,
      "hit": false,
      "t": 196658.75449999506,
      "d": 57.52196666665259,
      "v": 97
    },
    {
      "midi": 63,
      "hit": false,
      "t": 196658.75449999506,
      "d": 61.94673333331593,
      "v": 86
    },
    {
      "midi": 60,
      "hit": false,
      "t": 196667.6040333284,
      "d": 35.39813333333586,
      "v": 81
    },
    {
      "midi": 63,
      "hit": false,
      "t": 196795.9222666617,
      "d": 252.2117000000144,
      "v": 84
    },
    {
      "midi": 60,
      "hit": false,
      "t": 196800.34703332838,
      "d": 207.96403333335184,
      "v": 90
    },
    {
      "midi": 55,
      "hit": false,
      "t": 196804.77179999504,
      "d": 176.99066666667932,
      "v": 103
    },
    {
      "midi": 43,
      "hit": false,
      "t": 196919.81573332837,
      "d": 296.45936666667694,
      "v": 99
    },
    {
      "midi": 55,
      "hit": false,
      "t": 197194.15126666173,
      "d": 88.4953333333251,
      "v": 104
    },
    {
      "midi": 63,
      "hit": false,
      "t": 197194.15126666173,
      "d": 132.74299999998766,
      "v": 94
    },
    {
      "midi": 60,
      "hit": false,
      "t": 197203.00079999506,
      "d": 75.22103333333507,
      "v": 92
    },
    {
      "midi": 48,
      "hit": false,
      "t": 197216.27509999505,
      "d": 97.3448666666809,
      "v": 112
    },
    {
      "midi": 50,
      "hit": false,
      "t": 197472.91156666173,
      "d": 584.069199999969,
      "v": 117
    },
    {
      "midi": 54,
      "hit": false,
      "t": 197733.97279999507,
      "d": 70.79626666664262,
      "v": 91
    },
    {
      "midi": 62,
      "hit": false,
      "t": 197738.39756666173,
      "d": 84.07056666663266,
      "v": 96
    },
    {
      "midi": 57,
      "hit": false,
      "t": 197747.24709999506,
      "d": 57.52196666665259,
      "v": 89
    },
    {
      "midi": 54,
      "hit": false,
      "t": 197884.4148666617,
      "d": 212.38879999998608,
      "v": 84
    },
    {
      "midi": 62,
      "hit": false,
      "t": 197893.26439999504,
      "d": 243.3621666666586,
      "v": 100
    },
    {
      "midi": 57,
      "hit": false,
      "t": 197897.6891666617,
      "d": 234.5126333333319,
      "v": 95
    },
    {
      "midi": 45,
      "hit": false,
      "t": 198003.8835666617,
      "d": 530.9719999999506,
      "v": 108
    },
    {
      "midi": 54,
      "hit": false,
      "t": 198287.06863332837,
      "d": 66.37149999997928,
      "v": 91
    },
    {
      "midi": 62,
      "hit": false,
      "t": 198291.49339999503,
      "d": 97.34486666662269,
      "v": 90
    },
    {
      "midi": 57,
      "hit": false,
      "t": 198295.9181666617,
      "d": 75.22103333330597,
      "v": 90
    },
    {
      "midi": 62,
      "hit": false,
      "t": 198424.236399995,
      "d": 243.3621666666586,
      "v": 64
    },
    {
      "midi": 54,
      "hit": false,
      "t": 198428.66116666165,
      "d": 163.71636666666018,
      "v": 94
    },
    {
      "midi": 57,
      "hit": false,
      "t": 198433.08593332832,
      "d": 207.96403333332273,
      "v": 82
    },
    {
      "midi": 50,
      "hit": false,
      "t": 198539.28033332832,
      "d": 460.175733333308,
      "v": 112
    },
    {
      "midi": 62,
      "hit": false,
      "t": 198818.04063332832,
      "d": 79.64579999999842,
      "v": 95
    },
    {
      "midi": 54,
      "hit": false,
      "t": 198826.89016666164,
      "d": 39.82289999999921,
      "v": 82
    },
    {
      "midi": 57,
      "hit": false,
      "t": 198831.3149333283,
      "d": 35.39813333333586,
      "v": 83
    },
    {
      "midi": 62,
      "hit": false,
      "t": 198946.35886666164,
      "d": 247.78693333332194,
      "v": 98
    },
    {
      "midi": 54,
      "hit": false,
      "t": 198950.7836333283,
      "d": 199.11449999999604,
      "v": 94
    },
    {
      "midi": 57,
      "hit": false,
      "t": 198950.7836333283,
      "d": 247.78693333332194,
      "v": 82
    },
    {
      "midi": 45,
      "hit": false,
      "t": 199043.7037333283,
      "d": 296.45936666664784,
      "v": 108
    },
    {
      "midi": 50,
      "hit": false,
      "t": 199304.76496666163,
      "d": 119.46869999996852,
      "v": 111
    },
    {
      "midi": 54,
      "hit": false,
      "t": 199309.1897333283,
      "d": 97.3448666666518,
      "v": 103
    },
    {
      "midi": 62,
      "hit": false,
      "t": 199309.1897333283,
      "d": 128.3182333332952,
      "v": 100
    },
    {
      "midi": 57,
      "hit": false,
      "t": 199322.4640333283,
      "d": 106.19439999997849,
      "v": 91
    },
    {
      "midi": 51,
      "hit": false,
      "t": 199592.37479999493,
      "d": 415.92806666664546,
      "v": 116
    },
    {
      "midi": 63,
      "hit": false,
      "t": 199645.47199999492,
      "d": 39.82289999999921,
      "v": 45
    },
    {
      "midi": 63,
      "hit": false,
      "t": 199831.31219999492,
      "d": 97.3448666666518,
      "v": 93
    },
    {
      "midi": 54,
      "hit": false,
      "t": 199840.16173332825,
      "d": 53.09719999998924,
      "v": 92
    },
    {
      "midi": 57,
      "hit": false,
      "t": 199849.01126666158,
      "d": 35.39813333333586,
      "v": 91
    },
    {
      "midi": 54,
      "hit": false,
      "t": 199981.75426666156,
      "d": 212.38879999998608,
      "v": 90
    },
    {
      "midi": 63,
      "hit": false,
      "t": 199981.75426666156,
      "d": 287.60983333332115,
      "v": 94
    },
    {
      "midi": 57,
      "hit": false,
      "t": 199986.17903332823,
      "d": 256.63646666664863,
      "v": 92
    },
    {
      "midi": 51,
      "hit": false,
      "t": 200101.22296666156,
      "d": 376.10516666667536,
      "v": 95
    },
    {
      "midi": 54,
      "hit": false,
      "t": 200375.5584999949,
      "d": 389.3794666666654,
      "v": 110
    },
    {
      "midi": 63,
      "hit": false,
      "t": 200375.5584999949,
      "d": 544.2462999999989,
      "v": 108
    },
    {
      "midi": 57,
      "hit": false,
      "t": 200379.98326666155,
      "d": 508.848166666663,
      "v": 104
    },
    {
      "midi": 51,
      "hit": false,
      "t": 200649.89403332822,
      "d": 681.4140666666499,
      "v": 106
    },
    {
      "midi": 54,
      "hit": false,
      "t": 200928.65433332822,
      "d": 146.0173000000068,
      "v": 100
    },
    {
      "midi": 63,
      "hit": false,
      "t": 201198.56509999488,
      "d": 252.21169999998529,
      "v": 103
    },
    {
      "midi": 54,
      "hit": false,
      "t": 201202.98986666155,
      "d": 185.8401999999769,
      "v": 112
    },
    {
      "midi": 57,
      "hit": false,
      "t": 201211.83939999487,
      "d": 172.56589999998687,
      "v": 108
    },
    {
      "midi": 51,
      "hit": false,
      "t": 201464.05109999486,
      "d": 88.4953333333251,
      "v": 91
    },
    {
      "midi": 58,
      "hit": false,
      "t": 201747.23616666152,
      "d": 159.29159999999683,
      "v": 100
    },
    {
      "midi": 65,
      "hit": false,
      "t": 201747.23616666152,
      "d": 690.2636000000057,
      "v": 112
    },
    {
      "midi": 61,
      "hit": false,
      "t": 201751.66093332818,
      "d": 296.45936666667694,
      "v": 106
    },
    {
      "midi": 46,
      "hit": false,
      "t": 201751.66093332818,
      "d": 699.1131333333324,
      "v": 111
    },
    {
      "midi": 58,
      "hit": false,
      "t": 202017.1469333282,
      "d": 380.5299333333387,
      "v": 95
    },
    {
      "midi": 61,
      "hit": false,
      "t": 202167.58899999486,
      "d": 243.3621666666586,
      "v": 98
    },
    {
      "midi": 58,
      "hit": false,
      "t": 202552.54369999486,
      "d": 438.0518999999913,
      "v": 102
    },
    {
      "midi": 61,
      "hit": false,
      "t": 202552.54369999486,
      "d": 623.8920999999973,
      "v": 106
    },
    {
      "midi": 65,
      "hit": false,
      "t": 202556.96846666152,
      "d": 623.8920999999973,
      "v": 113
    },
    {
      "midi": 46,
      "hit": false,
      "t": 202561.39323332818,
      "d": 1234.5099000000046,
      "v": 117
    },
    {
      "midi": 58,
      "hit": false,
      "t": 203101.21476666152,
      "d": 146.0173000000068,
      "v": 91
    },
    {
      "midi": 58,
      "hit": false,
      "t": 203371.1255333282,
      "d": 123.89346666666097,
      "v": 100
    },
    {
      "midi": 65,
      "hit": false,
      "t": 203371.1255333282,
      "d": 238.93739999999525,
      "v": 113
    },
    {
      "midi": 61,
      "hit": false,
      "t": 203375.55029999485,
      "d": 194.6897333333327,
      "v": 105
    },
    {
      "midi": 62,
      "hit": false,
      "t": 203879.97369999485,
      "d": 199.11449999999604,
      "v": 100
    },
    {
      "midi": 61,
      "hit": false,
      "t": 203884.3984666615,
      "d": 35.39813333333586,
      "v": 66
    },
    {
      "midi": 64,
      "hit": false,
      "t": 204048.11483332817,
      "d": 154.8668333333335,
      "v": 97
    },
    {
      "midi": 66,
      "hit": false,
      "t": 204194.13213332818,
      "d": 115.04393333333428,
      "v": 92
    },
    {
      "midi": 67,
      "hit": false,
      "t": 204375.54756666152,
      "d": 119.46869999999763,
      "v": 114
    },
    {
      "midi": 67,
      "hit": false,
      "t": 204685.2812333282,
      "d": 486.7243333333463,
      "v": 121
    },
    {
      "midi": 66,
      "hit": false,
      "t": 205207.40369999487,
      "d": 309.733666666667,
      "v": 110
    },
    {
      "midi": 64,
      "hit": false,
      "t": 205477.31446666154,
      "d": 491.14910000000964,
      "v": 113
    },
    {
      "midi": 66,
      "hit": false,
      "t": 205972.8883333282,
      "d": 92.92009999998845,
      "v": 103
    },
    {
      "midi": 67,
      "hit": false,
      "t": 206096.78179999487,
      "d": 115.04393333333428,
      "v": 108
    },
    {
      "midi": 69,
      "hit": false,
      "t": 206211.8257333282,
      "d": 203.5392666666594,
      "v": 100
    },
    {
      "midi": 71,
      "hit": false,
      "t": 206326.86966666154,
      "d": 159.29159999996773,
      "v": 91
    },
    {
      "midi": 72,
      "hit": false,
      "t": 206428.63929999486,
      "d": 141.59253333331435,
      "v": 106
    },
    {
      "midi": 72,
      "hit": false,
      "t": 206733.94819999483,
      "d": 615.0425666666706,
      "v": 122
    },
    {
      "midi": 71,
      "hit": false,
      "t": 207269.3449666615,
      "d": 336.28226666664705,
      "v": 115
    },
    {
      "midi": 69,
      "hit": false,
      "t": 207556.95479999483,
      "d": 380.5299333333387,
      "v": 121
    },
    {
      "midi": 70,
      "hit": false,
      "t": 208114.47539999484,
      "d": 190.26496666666935,
      "v": 106
    },
    {
      "midi": 69,
      "hit": false,
      "t": 208238.3688666615,
      "d": 150.44206666667014,
      "v": 105
    },
    {
      "midi": 67,
      "hit": false,
      "t": 208362.26233332817,
      "d": 110.61916666667094,
      "v": 108
    },
    {
      "midi": 70,
      "hit": false,
      "t": 208645.44739999482,
      "d": 168.14113333332352,
      "v": 103
    },
    {
      "midi": 69,
      "hit": false,
      "t": 208769.34086666149,
      "d": 150.44206666664104,
      "v": 106
    },
    {
      "midi": 67,
      "hit": false,
      "t": 208902.08386666147,
      "d": 101.76963333331514,
      "v": 108
    },
    {
      "midi": 70,
      "hit": false,
      "t": 209163.14509999478,
      "d": 168.14113333332352,
      "v": 103
    },
    {
      "midi": 69,
      "hit": false,
      "t": 209282.61379999478,
      "d": 137.1677666666801,
      "v": 105
    },
    {
      "midi": 67,
      "hit": false,
      "t": 209393.23296666145,
      "d": 101.76963333334425,
      "v": 108
    },
    {
      "midi": 70,
      "hit": false,
      "t": 209654.2941999948,
      "d": 163.71636666666018,
      "v": 99
    },
    {
      "midi": 69,
      "hit": false,
      "t": 209764.91336666147,
      "d": 137.167766666651,
      "v": 99
    },
    {
      "midi": 67,
      "hit": false,
      "t": 209862.25823332812,
      "d": 88.4953333333251,
      "v": 106
    },
    {
      "midi": 62,
      "hit": false,
      "t": 210149.86806666144,
      "d": 75.22103333333507,
      "v": 111
    },
    {
      "midi": 66,
      "hit": false,
      "t": 210154.2928333281,
      "d": 92.92009999998845,
      "v": 106
    },
    {
      "midi": 50,
      "hit": false,
      "t": 210158.71759999476,
      "d": 84.07056666666176,
      "v": 110
    },
    {
      "midi": 38,
      "hit": false,
      "t": 210158.71759999476,
      "d": 92.92009999998845,
      "v": 106
    },
    {
      "midi": 69,
      "hit": false,
      "t": 210163.14236666143,
      "d": 26.548600000009174,
      "v": 108
    },
    {
      "midi": 38,
      "hit": false,
      "t": 210437.47789999476,
      "d": 110.61916666664183,
      "v": 109
    },
    {
      "midi": 69,
      "hit": false,
      "t": 210446.3274333281,
      "d": 79.64579999999842,
      "v": 117
    },
    {
      "midi": 50,
      "hit": false,
      "t": 210446.3274333281,
      "d": 88.4953333333251,
      "v": 112
    },
    {
      "midi": 62,
      "hit": false,
      "t": 210450.75219999475,
      "d": 70.79626666667173,
      "v": 112
    },
    {
      "midi": 66,
      "hit": false,
      "t": 210450.75219999475,
      "d": 88.4953333333251,
      "v": 106
    },
    {
      "midi": 62,
      "hit": false,
      "t": 210990.57373332806,
      "d": 2384.9492333333474,
      "v": 112
    },
    {
      "midi": 50,
      "hit": false,
      "t": 210990.57373332806,
      "d": 2504.417933333345,
      "v": 121
    },
    {
      "midi": 69,
      "hit": false,
      "t": 210994.99849999472,
      "d": 2353.975866666675,
      "v": 121
    },
    {
      "midi": 66,
      "hit": false,
      "t": 210994.99849999472,
      "d": 2415.92260000002,
      "v": 106
    },
    {
      "midi": 38,
      "hit": false,
      "t": 210994.99849999472,
      "d": 2464.595033333346,
      "v": 117
    }
  ]
}