{
  "jsonPath": "Rock/Progressive House/Solarstone/late-summer-fields-ft-alucard.json",
  "path": "Rock\\Progressive House\\Solarstone\\Late Summer Fields (ft Alucard).mid",
  "name": "Late Summer Fields (ft Alucard)",
  "difficulty": "Advanced",
  "bpm": 70.00007000007,
  "notes": [
    {
      "midi": 51,
      "hit": false,
      "t": 6857.136,
      "d": 142.85699999999997,
      "v": 67
    },
    {
      "midi": 63,
      "hit": false,
      "t": 6857.136,
      "d": 185.71410000000014,
      "v": 71
    },
    {
      "midi": 56,
      "hit": false,
      "t": 6857.136,
      "d": 192.85695000000032,
      "v": 62
    },
    {
      "midi": 44,
      "hit": false,
      "t": 6857.136,
      "d": 199.9998000000005,
      "v": 81
    },
    {
      "midi": 60,
      "hit": false,
      "t": 6857.136,
      "d": 207.14265000000069,
      "v": 73
    },
    {
      "midi": 68,
      "hit": false,
      "t": 6857.136,
      "d": 1610.7126750000025,
      "v": 58
    },
    {
      "midi": 72,
      "hit": false,
      "t": 6857.136,
      "d": 1610.7126750000025,
      "v": 58
    },
    {
      "midi": 60,
      "hit": false,
      "t": 7142.850000000001,
      "d": 67.8570749999999,
      "v": 51
    },
    {
      "midi": 51,
      "hit": false,
      "t": 7142.850000000001,
      "d": 110.71417500000007,
      "v": 51
    },
    {
      "midi": 56,
      "hit": false,
      "t": 7142.850000000001,
      "d": 139.28557499999988,
      "v": 55
    },
    {
      "midi": 44,
      "hit": false,
      "t": 7142.850000000001,
      "d": 1117.856025,
      "v": 55
    },
    {
      "midi": 56,
      "hit": false,
      "t": 7428.564000000001,
      "d": 157.14270000000033,
      "v": 51
    },
    {
      "midi": 51,
      "hit": false,
      "t": 7428.564000000001,
      "d": 510.71377500000017,
      "v": 59
    },
    {
      "midi": 56,
      "hit": false,
      "t": 7714.278000000001,
      "d": 449.99955000000045,
      "v": 55
    },
    {
      "midi": 60,
      "hit": false,
      "t": 7714.278000000001,
      "d": 474.9995250000002,
      "v": 64
    },
    {
      "midi": 63,
      "hit": false,
      "t": 7714.278000000001,
      "d": 492.8566500000006,
      "v": 68
    },
    {
      "midi": 51,
      "hit": false,
      "t": 8285.706000000002,
      "d": 160.71412500000042,
      "v": 56
    },
    {
      "midi": 44,
      "hit": false,
      "t": 8285.706000000002,
      "d": 199.99980000000141,
      "v": 50
    },
    {
      "midi": 56,
      "hit": false,
      "t": 8285.706000000002,
      "d": 228.57120000000214,
      "v": 56
    },
    {
      "midi": 51,
      "hit": false,
      "t": 8571.420000000004,
      "d": 107.14275000000089,
      "v": 46
    },
    {
      "midi": 63,
      "hit": false,
      "t": 8571.420000000004,
      "d": 392.85675000000265,
      "v": 64
    },
    {
      "midi": 56,
      "hit": false,
      "t": 8571.420000000004,
      "d": 399.99960000000283,
      "v": 54
    },
    {
      "midi": 60,
      "hit": false,
      "t": 8571.420000000004,
      "d": 414.2853000000032,
      "v": 67
    },
    {
      "midi": 72,
      "hit": false,
      "t": 8571.420000000004,
      "d": 857.1420000000035,
      "v": 64
    },
    {
      "midi": 44,
      "hit": false,
      "t": 8571.420000000004,
      "d": 1210.7130750000033,
      "v": 67
    },
    {
      "midi": 68,
      "hit": false,
      "t": 8571.420000000004,
      "d": 1571.4270000000051,
      "v": 59
    },
    {
      "midi": 51,
      "hit": false,
      "t": 8857.134000000005,
      "d": 710.7135750000016,
      "v": 63
    },
    {
      "midi": 56,
      "hit": false,
      "t": 9142.848000000007,
      "d": 207.14264999999978,
      "v": 58
    },
    {
      "midi": 56,
      "hit": false,
      "t": 9428.562000000007,
      "d": 442.8567000000003,
      "v": 66
    },
    {
      "midi": 63,
      "hit": false,
      "t": 9428.562000000007,
      "d": 460.7138250000007,
      "v": 83
    },
    {
      "midi": 60,
      "hit": false,
      "t": 9428.562000000007,
      "d": 464.2852500000008,
      "v": 77
    },
    {
      "midi": 44,
      "hit": false,
      "t": 9999.990000000009,
      "d": 178.57125000000087,
      "v": 62
    },
    {
      "midi": 51,
      "hit": false,
      "t": 9999.990000000009,
      "d": 196.42837500000132,
      "v": 54
    },
    {
      "midi": 56,
      "hit": false,
      "t": 9999.990000000009,
      "d": 207.1426500000016,
      "v": 60
    },
    {
      "midi": 51,
      "hit": false,
      "t": 10285.70400000001,
      "d": 142.85699999999997,
      "v": 58
    },
    {
      "midi": 56,
      "hit": false,
      "t": 10285.70400000001,
      "d": 532.1423249999989,
      "v": 71
    },
    {
      "midi": 60,
      "hit": false,
      "t": 10285.70400000001,
      "d": 574.9994249999982,
      "v": 83
    },
    {
      "midi": 63,
      "hit": false,
      "t": 10285.70400000001,
      "d": 589.2851249999985,
      "v": 71
    },
    {
      "midi": 72,
      "hit": false,
      "t": 10285.70400000001,
      "d": 857.141999999998,
      "v": 64
    },
    {
      "midi": 44,
      "hit": false,
      "t": 10285.70400000001,
      "d": 1285.712999999998,
      "v": 81
    },
    {
      "midi": 68,
      "hit": false,
      "t": 10285.70400000001,
      "d": 1607.1412499999988,
      "v": 66
    },
    {
      "midi": 51,
      "hit": false,
      "t": 10571.41800000001,
      "d": 128.5712999999996,
      "v": 68
    },
    {
      "midi": 51,
      "hit": false,
      "t": 10857.132000000009,
      "d": 139.28557499999988,
      "v": 54
    },
    {
      "midi": 56,
      "hit": false,
      "t": 10857.132000000009,
      "d": 185.71409999999923,
      "v": 61
    },
    {
      "midi": 51,
      "hit": false,
      "t": 11142.846000000009,
      "d": 371.4282000000003,
      "v": 52
    },
    {
      "midi": 56,
      "hit": false,
      "t": 11142.846000000009,
      "d": 428.5709999999999,
      "v": 67
    },
    {
      "midi": 60,
      "hit": false,
      "t": 11142.846000000009,
      "d": 446.42812500000036,
      "v": 77
    },
    {
      "midi": 63,
      "hit": false,
      "t": 11142.846000000009,
      "d": 449.99955000000045,
      "v": 70
    },
    {
      "midi": 51,
      "hit": false,
      "t": 11714.274000000009,
      "d": 149.99985000000015,
      "v": 63
    },
    {
      "midi": 44,
      "hit": false,
      "t": 11714.274000000009,
      "d": 196.42837500000132,
      "v": 55
    },
    {
      "midi": 56,
      "hit": false,
      "t": 11714.274000000009,
      "d": 221.42835000000196,
      "v": 54
    },
    {
      "midi": 51,
      "hit": false,
      "t": 11999.98800000001,
      "d": 103.5713250000008,
      "v": 59
    },
    {
      "midi": 60,
      "hit": false,
      "t": 11999.98800000001,
      "d": 203.5712250000015,
      "v": 73
    },
    {
      "midi": 63,
      "hit": false,
      "t": 11999.98800000001,
      "d": 203.5712250000015,
      "v": 71
    },
    {
      "midi": 56,
      "hit": false,
      "t": 11999.98800000001,
      "d": 207.1426500000016,
      "v": 64
    },
    {
      "midi": 72,
      "hit": false,
      "t": 11999.98800000001,
      "d": 857.1420000000016,
      "v": 64
    },
    {
      "midi": 44,
      "hit": false,
      "t": 11999.98800000001,
      "d": 1028.5704000000023,
      "v": 66
    },
    {
      "midi": 68,
      "hit": false,
      "t": 11999.98800000001,
      "d": 1446.4271250000038,
      "v": 59
    },
    {
      "midi": 56,
      "hit": false,
      "t": 12285.702000000012,
      "d": 146.42842500000006,
      "v": 50
    },
    {
      "midi": 63,
      "hit": false,
      "t": 12285.702000000012,
      "d": 160.71412500000042,
      "v": 52
    },
    {
      "midi": 60,
      "hit": false,
      "t": 12285.702000000012,
      "d": 164.2855500000005,
      "v": 57
    },
    {
      "midi": 51,
      "hit": false,
      "t": 12285.702000000012,
      "d": 324.9996749999991,
      "v": 47
    },
    {
      "midi": 56,
      "hit": false,
      "t": 12571.416000000012,
      "d": 185.71409999999923,
      "v": 60
    },
    {
      "midi": 51,
      "hit": false,
      "t": 12857.130000000012,
      "d": 203.5712250000015,
      "v": 66
    },
    {
      "midi": 56,
      "hit": false,
      "t": 12857.130000000012,
      "d": 321.42825000000084,
      "v": 70
    },
    {
      "midi": 60,
      "hit": false,
      "t": 12857.130000000012,
      "d": 332.1425250000011,
      "v": 70
    },
    {
      "midi": 63,
      "hit": false,
      "t": 12857.130000000012,
      "d": 396.4281750000009,
      "v": 83
    },
    {
      "midi": 56,
      "hit": false,
      "t": 13428.558000000014,
      "d": 71.42849999999999,
      "v": 59
    },
    {
      "midi": 56,
      "hit": false,
      "t": 13714.272000000014,
      "d": 167.8569750000006,
      "v": 64
    },
    {
      "midi": 63,
      "hit": false,
      "t": 13714.272000000014,
      "d": 296.42827500000203,
      "v": 71
    },
    {
      "midi": 61,
      "hit": false,
      "t": 13714.272000000014,
      "d": 357.14250000000175,
      "v": 55
    },
    {
      "midi": 68,
      "hit": false,
      "t": 13714.272000000014,
      "d": 414.28530000000137,
      "v": 63
    },
    {
      "midi": 65,
      "hit": false,
      "t": 13714.272000000014,
      "d": 421.42815000000155,
      "v": 59
    },
    {
      "midi": 49,
      "hit": false,
      "t": 13714.272000000014,
      "d": 1321.4272500000025,
      "v": 81
    },
    {
      "midi": 75,
      "hit": false,
      "t": 13714.272000000014,
      "d": 5939.279775000008,
      "v": 64
    },
    {
      "midi": 56,
      "hit": false,
      "t": 13999.986000000015,
      "d": 121.42844999999943,
      "v": 64
    },
    {
      "midi": 56,
      "hit": false,
      "t": 14285.700000000015,
      "d": 135.7141499999998,
      "v": 59
    },
    {
      "midi": 61,
      "hit": false,
      "t": 14285.700000000015,
      "d": 167.8569750000006,
      "v": 57
    },
    {
      "midi": 61,
      "hit": false,
      "t": 14571.414000000015,
      "d": 407.14244999999937,
      "v": 61
    },
    {
      "midi": 56,
      "hit": false,
      "t": 14571.414000000015,
      "d": 432.142425,
      "v": 75
    },
    {
      "midi": 68,
      "hit": false,
      "t": 14571.414000000015,
      "d": 464.2852500000008,
      "v": 67
    },
    {
      "midi": 65,
      "hit": false,
      "t": 14571.414000000015,
      "d": 517.8566250000003,
      "v": 73
    },
    {
      "midi": 49,
      "hit": false,
      "t": 15142.842000000015,
      "d": 153.57127500000024,
      "v": 86
    },
    {
      "midi": 56,
      "hit": false,
      "t": 15142.842000000015,
      "d": 221.42835000000014,
      "v": 68
    },
    {
      "midi": 61,
      "hit": false,
      "t": 15142.842000000015,
      "d": 239.2854750000006,
      "v": 66
    },
    {
      "midi": 56,
      "hit": false,
      "t": 15428.556000000017,
      "d": 171.4284000000007,
      "v": 61
    },
    {
      "midi": 61,
      "hit": false,
      "t": 15428.556000000017,
      "d": 371.4282000000003,
      "v": 77
    },
    {
      "midi": 68,
      "hit": false,
      "t": 15428.556000000017,
      "d": 392.85675000000083,
      "v": 88
    },
    {
      "midi": 65,
      "hit": false,
      "t": 15428.556000000017,
      "d": 428.57100000000173,
      "v": 83
    },
    {
      "midi": 49,
      "hit": false,
      "t": 15428.556000000017,
      "d": 1192.8559499999992,
      "v": 94
    },
    {
      "midi": 56,
      "hit": false,
      "t": 15714.270000000017,
      "d": 121.42845000000125,
      "v": 54
    },
    {
      "midi": 61,
      "hit": false,
      "t": 15999.984000000019,
      "d": 157.14270000000033,
      "v": 64
    },
    {
      "midi": 56,
      "hit": false,
      "t": 15999.984000000019,
      "d": 603.5708249999989,
      "v": 61
    },
    {
      "midi": 61,
      "hit": false,
      "t": 16285.698000000019,
      "d": 410.71387499999764,
      "v": 77
    },
    {
      "midi": 65,
      "hit": false,
      "t": 16285.698000000019,
      "d": 499.9994999999981,
      "v": 83
    },
    {
      "midi": 68,
      "hit": false,
      "t": 16285.698000000019,
      "d": 503.57092499999635,
      "v": 86
    },
    {
      "midi": 68,
      "hit": false,
      "t": 16857.126000000015,
      "d": 71.4285000000018,
      "v": 48
    },
    {
      "midi": 49,
      "hit": false,
      "t": 16857.126000000015,
      "d": 171.4284000000007,
      "v": 88
    },
    {
      "midi": 56,
      "hit": false,
      "t": 16857.126000000015,
      "d": 182.14267499999914,
      "v": 68
    },
    {
      "midi": 61,
      "hit": false,
      "t": 16857.126000000015,
      "d": 196.4283749999995,
      "v": 56
    },
    {
      "midi": 56,
      "hit": false,
      "t": 17142.840000000015,
      "d": 135.7141499999998,
      "v": 63
    },
    {
      "midi": 49,
      "hit": false,
      "t": 17142.840000000015,
      "d": 164.2855500000005,
      "v": 86
    },
    {
      "midi": 63,
      "hit": false,
      "t": 17142.840000000015,
      "d": 189.28552499999932,
      "v": 77
    },
    {
      "midi": 61,
      "hit": false,
      "t": 17142.840000000015,
      "d": 196.4283749999995,
      "v": 60
    },
    {
      "midi": 68,
      "hit": false,
      "t": 17142.840000000015,
      "d": 232.1426250000004,
      "v": 71
    },
    {
      "midi": 65,
      "hit": false,
      "t": 17142.840000000015,
      "d": 242.85689999999886,
      "v": 81
    },
    {
      "midi": 65,
      "hit": false,
      "t": 17428.554000000015,
      "d": 117.85702500000116,
      "v": 67
    },
    {
      "midi": 68,
      "hit": false,
      "t": 17428.554000000015,
      "d": 117.85702500000116,
      "v": 64
    },
    {
      "midi": 61,
      "hit": false,
      "t": 17428.554000000015,
      "d": 139.2855750000017,
      "v": 66
    },
    {
      "midi": 56,
      "hit": false,
      "t": 17428.554000000015,
      "d": 146.42842500000188,
      "v": 68
    },
    {
      "midi": 49,
      "hit": false,
      "t": 17428.554000000015,
      "d": 214.28550000000178,
      "v": 81
    },
    {
      "midi": 61,
      "hit": false,
      "t": 17714.26800000002,
      "d": 132.14272500000152,
      "v": 59
    },
    {
      "midi": 56,
      "hit": false,
      "t": 17714.26800000002,
      "d": 174.9998250000026,
      "v": 58
    },
    {
      "midi": 49,
      "hit": false,
      "t": 17714.26800000002,
      "d": 274.9997250000015,
      "v": 51
    },
    {
      "midi": 56,
      "hit": false,
      "t": 17999.982000000018,
      "d": 346.42822499999966,
      "v": 67
    },
    {
      "midi": 61,
      "hit": false,
      "t": 17999.982000000018,
      "d": 357.1424999999981,
      "v": 79
    },
    {
      "midi": 49,
      "hit": false,
      "t": 17999.982000000018,
      "d": 367.85677499999656,
      "v": 52
    },
    {
      "midi": 68,
      "hit": false,
      "t": 17999.982000000018,
      "d": 424.999574999998,
      "v": 91
    },
    {
      "midi": 65,
      "hit": false,
      "t": 17999.982000000018,
      "d": 467.8566749999991,
      "v": 81
    },
    {
      "midi": 61,
      "hit": false,
      "t": 18571.410000000018,
      "d": 203.57122499999969,
      "v": 55
    },
    {
      "midi": 56,
      "hit": false,
      "t": 18571.410000000018,
      "d": 457.14240000000063,
      "v": 67
    },
    {
      "midi": 61,
      "hit": false,
      "t": 18857.124000000018,
      "d": 267.8568750000013,
      "v": 73
    },
    {
      "midi": 68,
      "hit": false,
      "t": 18857.124000000018,
      "d": 410.7138750000013,
      "v": 86
    },
    {
      "midi": 65,
      "hit": false,
      "t": 18857.124000000018,
      "d": 499.9995000000017,
      "v": 88
    },
    {
      "midi": 49,
      "hit": false,
      "t": 18857.124000000018,
      "d": 1103.5703250000006,
      "v": 91
    },
    {
      "midi": 56,
      "hit": false,
      "t": 19142.838000000018,
      "d": 132.14272500000152,
      "v": 67
    },
    {
      "midi": 56,
      "hit": false,
      "t": 19428.55200000002,
      "d": 107.14274999999907,
      "v": 51
    },
    {
      "midi": 61,
      "hit": false,
      "t": 19428.55200000002,
      "d": 160.7141249999986,
      "v": 58
    },
    {
      "midi": 61,
      "hit": false,
      "t": 19714.26600000002,
      "d": 142.85699999999997,
      "v": 71
    },
    {
      "midi": 56,
      "hit": false,
      "t": 19714.26600000002,
      "d": 146.42842499999824,
      "v": 81
    },
    {
      "midi": 68,
      "hit": false,
      "t": 19714.26600000002,
      "d": 360.7139249999964,
      "v": 79
    },
    {
      "midi": 65,
      "hit": false,
      "t": 19714.26600000002,
      "d": 464.2852499999972,
      "v": 83
    },
    {
      "midi": 61,
      "hit": false,
      "t": 20285.694000000018,
      "d": 96.42847500000062,
      "v": 71
    },
    {
      "midi": 51,
      "hit": false,
      "t": 20571.408000000018,
      "d": 132.14272500000152,
      "v": 75
    },
    {
      "midi": 44,
      "hit": false,
      "t": 20571.408000000018,
      "d": 160.71412500000224,
      "v": 81
    },
    {
      "midi": 58,
      "hit": false,
      "t": 20571.408000000018,
      "d": 171.4284000000007,
      "v": 62
    },
    {
      "midi": 56,
      "hit": false,
      "t": 20571.408000000018,
      "d": 174.99982499999896,
      "v": 61
    },
    {
      "midi": 63,
      "hit": false,
      "t": 20571.408000000018,
      "d": 214.28549999999814,
      "v": 67
    },
    {
      "midi": 60,
      "hit": false,
      "t": 20571.408000000018,
      "d": 217.8569249999964,
      "v": 60
    },
    {
      "midi": 68,
      "hit": false,
      "t": 20571.408000000018,
      "d": 1646.4269249999925,
      "v": 81
    },
    {
      "midi": 72,
      "hit": false,
      "t": 20571.408000000018,
      "d": 1646.4269249999925,
      "v": 81
    },
    {
      "midi": 63,
      "hit": false,
      "t": 20857.122000000014,
      "d": 53.571374999999534,
      "v": 56
    },
    {
      "midi": 51,
      "hit": false,
      "t": 20857.122000000014,
      "d": 128.5712999999996,
      "v": 68
    },
    {
      "midi": 56,
      "hit": false,
      "t": 20857.122000000014,
      "d": 178.57125000000087,
      "v": 63
    },
    {
      "midi": 44,
      "hit": false,
      "t": 20857.122000000014,
      "d": 1124.9988750000011,
      "v": 58
    },
    {
      "midi": 51,
      "hit": false,
      "t": 21142.836000000014,
      "d": 121.42844999999943,
      "v": 61
    },
    {
      "midi": 60,
      "hit": false,
      "t": 21142.836000000014,
      "d": 135.7141499999998,
      "v": 66
    },
    {
      "midi": 63,
      "hit": false,
      "t": 21142.836000000014,
      "d": 135.7141499999998,
      "v": 75
    },
    {
      "midi": 56,
      "hit": false,
      "t": 21142.836000000014,
      "d": 146.42842499999824,
      "v": 60
    },
    {
      "midi": 56,
      "hit": false,
      "t": 21428.550000000014,
      "d": 260.71402500000113,
      "v": 77
    },
    {
      "midi": 51,
      "hit": false,
      "t": 21428.550000000014,
      "d": 364.2853500000019,
      "v": 88
    },
    {
      "midi": 63,
      "hit": false,
      "t": 21428.550000000014,
      "d": 485.71380000000136,
      "v": 94
    },
    {
      "midi": 60,
      "hit": false,
      "t": 21428.550000000014,
      "d": 514.2852000000021,
      "v": 79
    },
    {
      "midi": 51,
      "hit": false,
      "t": 21999.978000000014,
      "d": 189.28552499999932,
      "v": 67
    },
    {
      "midi": 44,
      "hit": false,
      "t": 21999.978000000014,
      "d": 192.8569499999976,
      "v": 62
    },
    {
      "midi": 56,
      "hit": false,
      "t": 21999.978000000014,
      "d": 232.14262499999677,
      "v": 61
    },
    {
      "midi": 51,
      "hit": false,
      "t": 22285.69200000001,
      "d": 124.99987500000134,
      "v": 59
    },
    {
      "midi": 56,
      "hit": false,
      "t": 22285.69200000001,
      "d": 346.42822499999966,
      "v": 67
    },
    {
      "midi": 63,
      "hit": false,
      "t": 22285.69200000001,
      "d": 407.14244999999937,
      "v": 83
    },
    {
      "midi": 60,
      "hit": false,
      "t": 22285.69200000001,
      "d": 464.2852500000008,
      "v": 86
    },
    {
      "midi": 44,
      "hit": false,
      "t": 22285.69200000001,
      "d": 1282.1415749999978,
      "v": 86
    },
    {
      "midi": 68,
      "hit": false,
      "t": 22285.69200000001,
      "d": 1564.2841499999959,
      "v": 75
    },
    {
      "midi": 72,
      "hit": false,
      "t": 22285.69200000001,
      "d": 1564.2841499999959,
      "v": 75
    },
    {
      "midi": 51,
      "hit": false,
      "t": 22571.40600000001,
      "d": 982.1418749999975,
      "v": 61
    },
    {
      "midi": 56,
      "hit": false,
      "t": 22857.12000000001,
      "d": 224.99977500000023,
      "v": 62
    },
    {
      "midi": 56,
      "hit": false,
      "t": 23142.83400000001,
      "d": 385.71389999999883,
      "v": 73
    },
    {
      "midi": 63,
      "hit": false,
      "t": 23142.83400000001,
      "d": 478.57094999999754,
      "v": 91
    },
    {
      "midi": 60,
      "hit": false,
      "t": 23142.83400000001,
      "d": 503.57092499999635,
      "v": 88
    },
    {
      "midi": 63,
      "hit": false,
      "t": 23714.262000000006,
      "d": 46.428524999999354,
      "v": 50
    },
    {
      "midi": 51,
      "hit": false,
      "t": 23714.262000000006,
      "d": 153.57127499999842,
      "v": 64
    },
    {
      "midi": 44,
      "hit": false,
      "t": 23714.262000000006,
      "d": 174.99982499999896,
      "v": 67
    },
    {
      "midi": 56,
      "hit": false,
      "t": 23714.262000000006,
      "d": 207.14264999999796,
      "v": 64
    },
    {
      "midi": 51,
      "hit": false,
      "t": 23999.976000000002,
      "d": 146.42842499999824,
      "v": 75
    },
    {
      "midi": 58,
      "hit": false,
      "t": 23999.976000000002,
      "d": 157.1426999999967,
      "v": 83
    },
    {
      "midi": 44,
      "hit": false,
      "t": 23999.976000000002,
      "d": 174.99982499999533,
      "v": 81
    },
    {
      "midi": 56,
      "hit": false,
      "t": 23999.976000000002,
      "d": 207.14264999999432,
      "v": 66
    },
    {
      "midi": 63,
      "hit": false,
      "t": 23999.976000000002,
      "d": 221.42834999999468,
      "v": 77
    },
    {
      "midi": 60,
      "hit": false,
      "t": 23999.976000000002,
      "d": 285.7139999999963,
      "v": 71
    },
    {
      "midi": 68,
      "hit": false,
      "t": 23999.976000000002,
      "d": 1492.8556499999977,
      "v": 57
    },
    {
      "midi": 72,
      "hit": false,
      "t": 23999.976000000002,
      "d": 1492.8556499999977,
      "v": 57
    },
    {
      "midi": 63,
      "hit": false,
      "t": 24285.69,
      "d": 64.28565000000162,
      "v": 49
    },
    {
      "midi": 56,
      "hit": false,
      "t": 24285.69,
      "d": 110.71417500000098,
      "v": 62
    },
    {
      "midi": 51,
      "hit": false,
      "t": 24285.69,
      "d": 860.7134249999981,
      "v": 79
    },
    {
      "midi": 44,
      "hit": false,
      "t": 24285.69,
      "d": 917.8562249999995,
      "v": 83
    },
    {
      "midi": 56,
      "hit": false,
      "t": 24571.404,
      "d": 142.85699999999997,
      "v": 59
    },
    {
      "midi": 56,
      "hit": false,
      "t": 24857.118,
      "d": 346.42822499999966,
      "v": 81
    },
    {
      "midi": 63,
      "hit": false,
      "t": 24857.118,
      "d": 421.42814999999973,
      "v": 91
    },
    {
      "midi": 60,
      "hit": false,
      "t": 24857.118,
      "d": 489.2852249999996,
      "v": 86
    },
    {
      "midi": 51,
      "hit": false,
      "t": 25428.546,
      "d": 210.71407499999987,
      "v": 59
    },
    {
      "midi": 44,
      "hit": false,
      "t": 25428.546,
      "d": 242.85689999999886,
      "v": 81
    },
    {
      "midi": 56,
      "hit": false,
      "t": 25428.546,
      "d": 271.4282999999996,
      "v": 71
    },
    {
      "midi": 56,
      "hit": false,
      "t": 25714.26,
      "d": 385.71389999999883,
      "v": 77
    },
    {
      "midi": 63,
      "hit": false,
      "t": 25714.26,
      "d": 449.99955000000045,
      "v": 91
    },
    {
      "midi": 60,
      "hit": false,
      "t": 25714.26,
      "d": 457.14240000000063,
      "v": 81
    },
    {
      "midi": 51,
      "hit": false,
      "t": 25714.26,
      "d": 607.1422500000008,
      "v": 70
    },
    {
      "midi": 44,
      "hit": false,
      "t": 25714.26,
      "d": 932.1419249999999,
      "v": 83
    },
    {
      "midi": 68,
      "hit": false,
      "t": 25714.26,
      "d": 1553.569875000001,
      "v": 68
    },
    {
      "midi": 72,
      "hit": false,
      "t": 25714.26,
      "d": 1553.569875000001,
      "v": 68
    },
    {
      "midi": 56,
      "hit": false,
      "t": 26285.688,
      "d": 232.1426250000004,
      "v": 70
    },
    {
      "midi": 51,
      "hit": false,
      "t": 26571.402,
      "d": 142.85699999999997,
      "v": 91
    },
    {
      "midi": 56,
      "hit": false,
      "t": 26571.402,
      "d": 182.14267499999914,
      "v": 81
    },
    {
      "midi": 60,
      "hit": false,
      "t": 26571.402,
      "d": 449.99955000000045,
      "v": 88
    },
    {
      "midi": 63,
      "hit": false,
      "t": 26571.402,
      "d": 453.5709749999987,
      "v": 97
    },
    {
      "midi": 56,
      "hit": false,
      "t": 27142.829999999998,
      "d": 89.28562500000044,
      "v": 71
    },
    {
      "midi": 56,
      "hit": false,
      "t": 27428.543999999998,
      "d": 178.57125000000087,
      "v": 55
    },
    {
      "midi": 63,
      "hit": false,
      "t": 27428.543999999998,
      "d": 182.14267499999914,
      "v": 77
    },
    {
      "midi": 49,
      "hit": false,
      "t": 27428.543999999998,
      "d": 199.99979999999778,
      "v": 83
    },
    {
      "midi": 61,
      "hit": false,
      "t": 27428.543999999998,
      "d": 210.71407499999623,
      "v": 83
    },
    {
      "midi": 68,
      "hit": false,
      "t": 27428.543999999998,
      "d": 260.7140249999975,
      "v": 91
    },
    {
      "midi": 75,
      "hit": false,
      "t": 27428.543999999998,
      "d": 3024.996974999998,
      "v": 77
    },
    {
      "midi": 56,
      "hit": false,
      "t": 27714.257999999994,
      "d": 89.28562500000044,
      "v": 68
    },
    {
      "midi": 61,
      "hit": false,
      "t": 27714.257999999994,
      "d": 399.9995999999992,
      "v": 70
    },
    {
      "midi": 49,
      "hit": false,
      "t": 27714.257999999994,
      "d": 996.4275750000015,
      "v": 86
    },
    {
      "midi": 56,
      "hit": false,
      "t": 27999.971999999994,
      "d": 564.2851499999997,
      "v": 68
    },
    {
      "midi": 61,
      "hit": false,
      "t": 28285.685999999994,
      "d": 374.9996250000004,
      "v": 81
    },
    {
      "midi": 68,
      "hit": false,
      "t": 28285.685999999994,
      "d": 471.428100000001,
      "v": 91
    },
    {
      "midi": 56,
      "hit": false,
      "t": 28857.113999999994,
      "d": 207.1426500000016,
      "v": 75
    },
    {
      "midi": 49,
      "hit": false,
      "t": 28857.113999999994,
      "d": 228.57120000000214,
      "v": 70
    },
    {
      "midi": 61,
      "hit": false,
      "t": 28857.113999999994,
      "d": 271.4283000000032,
      "v": 61
    },
    {
      "midi": 56,
      "hit": false,
      "t": 29142.827999999998,
      "d": 157.14270000000033,
      "v": 54
    },
    {
      "midi": 61,
      "hit": false,
      "t": 29142.827999999998,
      "d": 335.7139500000012,
      "v": 63
    },
    {
      "midi": 68,
      "hit": false,
      "t": 29142.827999999998,
      "d": 382.14247500000056,
      "v": 88
    },
    {
      "midi": 49,
      "hit": false,
      "t": 29142.827999999998,
      "d": 1285.7129999999997,
      "v": 94
    },
    {
      "midi": 56,
      "hit": false,
      "t": 29428.541999999998,
      "d": 107.14274999999907,
      "v": 75
    },
    {
      "midi": 56,
      "hit": false,
      "t": 29714.255999999998,
      "d": 128.5712999999996,
      "v": 70
    },
    {
      "midi": 61,
      "hit": false,
      "t": 29714.255999999998,
      "d": 164.2855500000005,
      "v": 63
    },
    {
      "midi": 61,
      "hit": false,
      "t": 29999.969999999998,
      "d": 378.57104999999865,
      "v": 77
    },
    {
      "midi": 56,
      "hit": false,
      "t": 29999.969999999998,
      "d": 392.856749999999,
      "v": 83
    },
    {
      "midi": 68,
      "hit": false,
      "t": 29999.969999999998,
      "d": 521.4280499999986,
      "v": 88
    },
    {
      "midi": 56,
      "hit": false,
      "t": 30571.397999999997,
      "d": 117.85702500000116,
      "v": 79
    },
    {
      "midi": 49,
      "hit": false,
      "t": 30571.397999999997,
      "d": 146.42842500000188,
      "v": 49
    },
    {
      "midi": 61,
      "hit": false,
      "t": 30571.397999999997,
      "d": 246.42832500000077,
      "v": 67
    },
    {
      "midi": 56,
      "hit": false,
      "t": 30857.111999999997,
      "d": 160.71412500000224,
      "v": 59
    },
    {
      "midi": 49,
      "hit": false,
      "t": 30857.111999999997,
      "d": 207.1426500000016,
      "v": 83
    },
    {
      "midi": 61,
      "hit": false,
      "t": 30857.111999999997,
      "d": 417.85672500000146,
      "v": 64
    },
    {
      "midi": 68,
      "hit": false,
      "t": 30857.111999999997,
      "d": 471.428100000001,
      "v": 86
    },
    {
      "midi": 56,
      "hit": false,
      "t": 31142.825999999997,
      "d": 124.99987500000134,
      "v": 68
    },
    {
      "midi": 49,
      "hit": false,
      "t": 31142.825999999997,
      "d": 432.1424249999982,
      "v": 83
    },
    {
      "midi": 56,
      "hit": false,
      "t": 31285.682999999997,
      "d": 153.57127499999842,
      "v": 42
    },
    {
      "midi": 61,
      "hit": false,
      "t": 31428.539999999997,
      "d": 178.57124999999724,
      "v": 75
    },
    {
      "midi": 61,
      "hit": false,
      "t": 31714.253999999994,
      "d": 357.14250000000175,
      "v": 68
    },
    {
      "midi": 56,
      "hit": false,
      "t": 31714.253999999994,
      "d": 428.57100000000355,
      "v": 75
    },
    {
      "midi": 68,
      "hit": false,
      "t": 31714.253999999994,
      "d": 492.8566500000052,
      "v": 81
    },
    {
      "midi": 49,
      "hit": false,
      "t": 31714.253999999994,
      "d": 789.2849250000036,
      "v": 73
    },
    {
      "midi": 56,
      "hit": false,
      "t": 32285.681999999997,
      "d": 171.4284000000007,
      "v": 57
    },
    {
      "midi": 61,
      "hit": false,
      "t": 32285.681999999997,
      "d": 235.71404999999868,
      "v": 79
    },
    {
      "midi": 56,
      "hit": false,
      "t": 32571.395999999997,
      "d": 121.42844999999943,
      "v": 66
    },
    {
      "midi": 49,
      "hit": false,
      "t": 32571.395999999997,
      "d": 164.28554999999687,
      "v": 86
    },
    {
      "midi": 61,
      "hit": false,
      "t": 32571.395999999997,
      "d": 396.4281749999973,
      "v": 83
    },
    {
      "midi": 68,
      "hit": false,
      "t": 32571.395999999997,
      "d": 499.99949999999444,
      "v": 91
    },
    {
      "midi": 56,
      "hit": false,
      "t": 32857.10999999999,
      "d": 139.2855750000017,
      "v": 55
    },
    {
      "midi": 49,
      "hit": false,
      "t": 32857.10999999999,
      "d": 864.2848499999964,
      "v": 77
    },
    {
      "midi": 56,
      "hit": false,
      "t": 33142.82399999999,
      "d": 96.42847500000062,
      "v": 45
    },
    {
      "midi": 61,
      "hit": false,
      "t": 33142.82399999999,
      "d": 232.1426250000004,
      "v": 77
    },
    {
      "midi": 61,
      "hit": false,
      "t": 33428.53799999999,
      "d": 171.42839999999705,
      "v": 79
    },
    {
      "midi": 56,
      "hit": false,
      "t": 33428.53799999999,
      "d": 196.42837499999587,
      "v": 71
    },
    {
      "midi": 68,
      "hit": false,
      "t": 33428.53799999999,
      "d": 478.5709499999939,
      "v": 97
    },
    {
      "midi": 61,
      "hit": false,
      "t": 33999.965999999986,
      "d": 117.85702499999752,
      "v": 73
    },
    {
      "midi": 51,
      "hit": false,
      "t": 34285.679999999986,
      "d": 142.8570000000036,
      "v": 67
    },
    {
      "midi": 58,
      "hit": false,
      "t": 34285.679999999986,
      "d": 160.71412500000588,
      "v": 63
    },
    {
      "midi": 44,
      "hit": false,
      "t": 34285.679999999986,
      "d": 192.8569500000085,
      "v": 86
    },
    {
      "midi": 56,
      "hit": false,
      "t": 34285.679999999986,
      "d": 249.99975000000995,
      "v": 77
    },
    {
      "midi": 60,
      "hit": false,
      "t": 34285.679999999986,
      "d": 507.1423500000019,
      "v": 68
    },
    {
      "midi": 68,
      "hit": false,
      "t": 34285.679999999986,
      "d": 1582.1412749999945,
      "v": 70
    },
    {
      "midi": 72,
      "hit": false,
      "t": 34285.679999999986,
      "d": 1582.1412749999945,
      "v": 70
    },
    {
      "midi": 63,
      "hit": false,
      "t": 34571.39399999999,
      "d": 35.714249999997264,
      "v": 59
    },
    {
      "midi": 51,
      "hit": false,
      "t": 34571.39399999999,
      "d": 149.99985000000015,
      "v": 68
    },
    {
      "midi": 56,
      "hit": false,
      "t": 34571.39399999999,
      "d": 199.99979999999778,
      "v": 58
    },
    {
      "midi": 44,
      "hit": false,
      "t": 34571.39399999999,
      "d": 1335.7129499999792,
      "v": 73
    },
    {
      "midi": 51,
      "hit": false,
      "t": 34857.107999999986,
      "d": 132.14272499999788,
      "v": 71
    },
    {
      "midi": 56,
      "hit": false,
      "t": 34857.107999999986,
      "d": 221.42834999999468,
      "v": 75
    },
    {
      "midi": 56,
      "hit": false,
      "t": 35142.82199999998,
      "d": 367.8567750000002,
      "v": 73
    },
    {
      "midi": 51,
      "hit": false,
      "t": 35142.82199999998,
      "d": 392.856749999999,
      "v": 77
    },
    {
      "midi": 60,
      "hit": false,
      "t": 35142.82199999998,
      "d": 474.99952499999927,
      "v": 81
    },
    {
      "midi": 63,
      "hit": false,
      "t": 35142.82199999998,
      "d": 478.5709500000012,
      "v": 88
    },
    {
      "midi": 51,
      "hit": false,
      "t": 35714.24999999998,
      "d": 160.7141249999986,
      "v": 71
    },
    {
      "midi": 56,
      "hit": false,
      "t": 35714.24999999998,
      "d": 657.1421999999948,
      "v": 66
    },
    {
      "midi": 51,
      "hit": false,
      "t": 35999.96399999997,
      "d": 139.2855750000017,
      "v": 59
    },
    {
      "midi": 63,
      "hit": false,
      "t": 35999.96399999997,
      "d": 417.8567250000051,
      "v": 88
    },
    {
      "midi": 60,
      "hit": false,
      "t": 35999.96399999997,
      "d": 489.2852250000069,
      "v": 81
    },
    {
      "midi": 44,
      "hit": false,
      "t": 35999.96399999997,
      "d": 1260.7130250000118,
      "v": 75
    },
    {
      "midi": 68,
      "hit": false,
      "t": 35999.96399999997,
      "d": 1528.5699000000168,
      "v": 91
    },
    {
      "midi": 72,
      "hit": false,
      "t": 35999.96399999997,
      "d": 1528.5699000000168,
      "v": 91
    },
    {
      "midi": 51,
      "hit": false,
      "t": 36285.67799999997,
      "d": 946.4276250000112,
      "v": 68
    },
    {
      "midi": 56,
      "hit": false,
      "t": 36571.39199999998,
      "d": 260.71402500000113,
      "v": 73
    },
    {
      "midi": 56,
      "hit": false,
      "t": 36857.10599999998,
      "d": 360.71392500000366,
      "v": 68
    },
    {
      "midi": 63,
      "hit": false,
      "t": 36857.10599999998,
      "d": 510.7137750000038,
      "v": 88
    },
    {
      "midi": 60,
      "hit": false,
      "t": 36857.10599999998,
      "d": 514.2852000000057,
      "v": 86
    },
    {
      "midi": 51,
      "hit": false,
      "t": 37428.533999999985,
      "d": 164.2855500000005,
      "v": 67
    },
    {
      "midi": 44,
      "hit": false,
      "t": 37428.533999999985,
      "d": 189.28552499999932,
      "v": 67
    },
    {
      "midi": 56,
      "hit": false,
      "t": 37714.247999999985,
      "d": 7.1428499999965425,
      "v": 59
    },
    {
      "midi": 51,
      "hit": false,
      "t": 37714.247999999985,
      "d": 139.28557499999442,
      "v": 64
    },
    {
      "midi": 44,
      "hit": false,
      "t": 37714.247999999985,
      "d": 189.28552499999205,
      "v": 83
    },
    {
      "midi": 60,
      "hit": false,
      "t": 37714.247999999985,
      "d": 753.5706749999881,
      "v": 83
    },
    {
      "midi": 63,
      "hit": false,
      "t": 37714.247999999985,
      "d": 757.14209999999,
      "v": 91
    },
    {
      "midi": 68,
      "hit": false,
      "t": 37714.247999999985,
      "d": 1560.7127249999903,
      "v": 66
    },
    {
      "midi": 72,
      "hit": false,
      "t": 37714.247999999985,
      "d": 1560.7127249999903,
      "v": 66
    },
    {
      "midi": 51,
      "hit": false,
      "t": 37999.96199999998,
      "d": 149.99985000000015,
      "v": 60
    },
    {
      "midi": 56,
      "hit": false,
      "t": 37999.96199999998,
      "d": 471.42809999999736,
      "v": 71
    },
    {
      "midi": 44,
      "hit": false,
      "t": 37999.96199999998,
      "d": 1032.1418249999988,
      "v": 71
    },
    {
      "midi": 51,
      "hit": false,
      "t": 38285.67599999998,
      "d": 92.85704999999871,
      "v": 68
    },
    {
      "midi": 56,
      "hit": false,
      "t": 38571.38999999998,
      "d": 389.2853249999971,
      "v": 86
    },
    {
      "midi": 51,
      "hit": false,
      "t": 38571.38999999998,
      "d": 428.5709999999963,
      "v": 66
    },
    {
      "midi": 63,
      "hit": false,
      "t": 38571.38999999998,
      "d": 489.2852249999996,
      "v": 101
    },
    {
      "midi": 60,
      "hit": false,
      "t": 38571.38999999998,
      "d": 510.71377499999653,
      "v": 97
    },
    {
      "midi": 44,
      "hit": false,
      "t": 39142.81799999998,
      "d": 167.85697499999515,
      "v": 86
    },
    {
      "midi": 51,
      "hit": false,
      "t": 39142.81799999998,
      "d": 167.85697499999515,
      "v": 68
    },
    {
      "midi": 56,
      "hit": false,
      "t": 39142.81799999998,
      "d": 264.28544999999576,
      "v": 70
    },
    {
      "midi": 51,
      "hit": false,
      "t": 39428.53199999997,
      "d": 114.28560000000289,
      "v": 67
    },
    {
      "midi": 56,
      "hit": false,
      "t": 39428.53199999997,
      "d": 328.571100000001,
      "v": 77
    },
    {
      "midi": 63,
      "hit": false,
      "t": 39428.53199999997,
      "d": 414.2853000000032,
      "v": 81
    },
    {
      "midi": 60,
      "hit": false,
      "t": 39428.53199999997,
      "d": 471.42810000000463,
      "v": 81
    },
    {
      "midi": 44,
      "hit": false,
      "t": 39428.53199999997,
      "d": 489.2852250000069,
      "v": 88
    },
    {
      "midi": 68,
      "hit": false,
      "t": 39428.53199999997,
      "d": 1478.5699500000046,
      "v": 79
    },
    {
      "midi": 72,
      "hit": false,
      "t": 39428.53199999997,
      "d": 1478.5699500000046,
      "v": 79
    },
    {
      "midi": 51,
      "hit": false,
      "t": 39714.24599999997,
      "d": 132.14272500000516,
      "v": 83
    },
    {
      "midi": 51,
      "hit": false,
      "t": 39999.95999999998,
      "d": 85.71420000000217,
      "v": 70
    },
    {
      "midi": 56,
      "hit": false,
      "t": 39999.95999999998,
      "d": 203.57122499999969,
      "v": 75
    },
    {
      "midi": 44,
      "hit": false,
      "t": 39999.95999999998,
      "d": 510.7137750000038,
      "v": 81
    },
    {
      "midi": 58,
      "hit": false,
      "t": 40285.67399999998,
      "d": 149.99985000000015,
      "v": 81
    },
    {
      "midi": 56,
      "hit": false,
      "t": 40285.67399999998,
      "d": 192.85695000000123,
      "v": 62
    },
    {
      "midi": 51,
      "hit": false,
      "t": 40285.67399999998,
      "d": 207.1426500000016,
      "v": 83
    },
    {
      "midi": 60,
      "hit": false,
      "t": 40285.67399999998,
      "d": 478.5709500000012,
      "v": 83
    },
    {
      "midi": 63,
      "hit": false,
      "t": 40285.67399999998,
      "d": 485.7137999999977,
      "v": 75
    },
    {
      "midi": 56,
      "hit": false,
      "t": 40857.10199999998,
      "d": 85.71419999999489,
      "v": 77
    },
    {
      "midi": 56,
      "hit": false,
      "t": 41142.81599999997,
      "d": 139.2855750000017,
      "v": 71
    },
    {
      "midi": 49,
      "hit": false,
      "t": 41142.81599999997,
      "d": 178.57125000000087,
      "v": 88
    },
    {
      "midi": 61,
      "hit": false,
      "t": 41142.81599999997,
      "d": 178.57125000000087,
      "v": 83
    },
    {
      "midi": 63,
      "hit": false,
      "t": 41142.81599999997,
      "d": 228.5711999999985,
      "v": 91
    },
    {
      "midi": 68,
      "hit": false,
      "t": 41142.81599999997,
      "d": 771.4277999999977,
      "v": 91
    },
    {
      "midi": 65,
      "hit": false,
      "t": 41142.81599999997,
      "d": 796.4277749999965,
      "v": 81
    },
    {
      "midi": 75,
      "hit": false,
      "t": 41142.81599999997,
      "d": 1703.5697250000012,
      "v": 88
    },
    {
      "midi": 56,
      "hit": false,
      "t": 41428.52999999997,
      "d": 139.28557499999442,
      "v": 75
    },
    {
      "midi": 49,
      "hit": false,
      "t": 41428.52999999997,
      "d": 228.57119999999122,
      "v": 79
    },
    {
      "midi": 61,
      "hit": false,
      "t": 41428.52999999997,
      "d": 428.5709999999963,
      "v": 60
    },
    {
      "midi": 56,
      "hit": false,
      "t": 41714.24399999996,
      "d": 142.8570000000036,
      "v": 68
    },
    {
      "midi": 49,
      "hit": false,
      "t": 41714.24399999996,
      "d": 796.4277750000037,
      "v": 55
    },
    {
      "midi": 61,
      "hit": false,
      "t": 41999.95799999997,
      "d": 392.856749999999,
      "v": 83
    },
    {
      "midi": 56,
      "hit": false,
      "t": 41999.95799999997,
      "d": 407.14244999999937,
      "v": 79
    },
    {
      "midi": 68,
      "hit": false,
      "t": 41999.95799999997,
      "d": 460.7138249999989,
      "v": 94
    },
    {
      "midi": 65,
      "hit": false,
      "t": 41999.95799999997,
      "d": 517.8566249999931,
      "v": 88
    },
    {
      "midi": 56,
      "hit": false,
      "t": 42571.38599999996,
      "d": 167.85697500000242,
      "v": 73
    },
    {
      "midi": 49,
      "hit": false,
      "t": 42571.38599999996,
      "d": 185.7141000000047,
      "v": 79
    },
    {
      "midi": 61,
      "hit": false,
      "t": 42571.38599999996,
      "d": 260.7140250000084,
      "v": 75
    },
    {
      "midi": 56,
      "hit": false,
      "t": 42857.09999999997,
      "d": 114.28559999999561,
      "v": 62
    },
    {
      "midi": 61,
      "hit": false,
      "t": 42857.09999999997,
      "d": 321.42824999998993,
      "v": 81
    },
    {
      "midi": 68,
      "hit": false,
      "t": 42857.09999999997,
      "d": 446.42812499999127,
      "v": 91
    },
    {
      "midi": 65,
      "hit": false,
      "t": 42857.09999999997,
      "d": 471.4280999999901,
      "v": 86
    },
    {
      "midi": 49,
      "hit": false,
      "t": 42857.09999999997,
      "d": 1235.7130499999912,
      "v": 83
    },
    {
      "midi": 56,
      "hit": false,
      "t": 43142.81399999996,
      "d": 746.4278249999988,
      "v": 77
    },
    {
      "midi": 61,
      "hit": false,
      "t": 43428.52799999996,
      "d": 253.5711749999973,
      "v": 79
    },
    {
      "midi": 61,
      "hit": false,
      "t": 43714.24199999996,
      "d": 321.4282499999972,
      "v": 91
    },
    {
      "midi": 65,
      "hit": false,
      "t": 43714.24199999996,
      "d": 514.2851999999984,
      "v": 91
    },
    {
      "midi": 68,
      "hit": false,
      "t": 43714.24199999996,
      "d": 514.2851999999984,
      "v": 91
    },
    {
      "midi": 49,
      "hit": false,
      "t": 44285.66999999996,
      "d": 149.99985000000015,
      "v": 86
    },
    {
      "midi": 56,
      "hit": false,
      "t": 44285.66999999996,
      "d": 174.99982499999896,
      "v": 66
    },
    {
      "midi": 61,
      "hit": false,
      "t": 44285.66999999996,
      "d": 239.28547499999695,
      "v": 68
    },
    {
      "midi": 56,
      "hit": false,
      "t": 44571.38399999996,
      "d": 99.99990000000253,
      "v": 66
    },
    {
      "midi": 49,
      "hit": false,
      "t": 44571.38399999996,
      "d": 153.57127500000206,
      "v": 91
    },
    {
      "midi": 63,
      "hit": false,
      "t": 44571.38399999996,
      "d": 199.99980000000505,
      "v": 77
    },
    {
      "midi": 61,
      "hit": false,
      "t": 44571.38399999996,
      "d": 324.9996750000064,
      "v": 66
    },
    {
      "midi": 68,
      "hit": false,
      "t": 44571.38399999996,
      "d": 482.14237500001036,
      "v": 77
    },
    {
      "midi": 65,
      "hit": false,
      "t": 44571.38399999996,
      "d": 489.2852250000069,
      "v": 75
    },
    {
      "midi": 56,
      "hit": false,
      "t": 44857.09799999997,
      "d": 124.99987500000134,
      "v": 70
    },
    {
      "midi": 49,
      "hit": false,
      "t": 44857.09799999997,
      "d": 1085.7131999999983,
      "v": 81
    },
    {
      "midi": 56,
      "hit": false,
      "t": 45142.81199999997,
      "d": 78.57134999999835,
      "v": 58
    },
    {
      "midi": 61,
      "hit": false,
      "t": 45428.52599999997,
      "d": 396.4281750000009,
      "v": 77
    },
    {
      "midi": 56,
      "hit": false,
      "t": 45428.52599999997,
      "d": 410.7138750000013,
      "v": 68
    },
    {
      "midi": 68,
      "hit": false,
      "t": 45428.52599999997,
      "d": 546.4280250000011,
      "v": 91
    },
    {
      "midi": 65,
      "hit": false,
      "t": 45428.52599999997,
      "d": 557.1422999999995,
      "v": 91
    },
    {
      "midi": 56,
      "hit": false,
      "t": 45999.95399999997,
      "d": 157.1426999999967,
      "v": 70
    },
    {
      "midi": 49,
      "hit": false,
      "t": 45999.95399999997,
      "d": 257.1425999999992,
      "v": 21
    },
    {
      "midi": 61,
      "hit": false,
      "t": 45999.95399999997,
      "d": 610.7136749999991,
      "v": 67
    },
    {
      "midi": 56,
      "hit": false,
      "t": 46285.66799999997,
      "d": 110.71417500000098,
      "v": 61
    },
    {
      "midi": 68,
      "hit": false,
      "t": 46285.66799999997,
      "d": 424.99957500000164,
      "v": 91
    },
    {
      "midi": 65,
      "hit": false,
      "t": 46285.66799999997,
      "d": 449.99955000000045,
      "v": 86
    },
    {
      "midi": 49,
      "hit": false,
      "t": 46285.66799999997,
      "d": 1099.998900000006,
      "v": 67
    },
    {
      "midi": 56,
      "hit": false,
      "t": 46571.38199999997,
      "d": 710.7135750000016,
      "v": 61
    },
    {
      "midi": 61,
      "hit": false,
      "t": 46857.09599999997,
      "d": 228.5711999999985,
      "v": 83
    },
    {
      "midi": 61,
      "hit": false,
      "t": 47142.80999999997,
      "d": 199.99980000000505,
      "v": 73
    },
    {
      "midi": 68,
      "hit": false,
      "t": 47142.80999999997,
      "d": 467.8566750000027,
      "v": 94
    },
    {
      "midi": 65,
      "hit": false,
      "t": 47142.80999999997,
      "d": 478.5709500000012,
      "v": 91
    },
    {
      "midi": 61,
      "hit": false,
      "t": 47714.23799999997,
      "d": 85.71420000000217,
      "v": 55
    },
    {
      "midi": 51,
      "hit": false,
      "t": 47999.95199999997,
      "d": 124.99987500000134,
      "v": 57
    },
    {
      "midi": 56,
      "hit": false,
      "t": 47999.95199999997,
      "d": 242.85689999999886,
      "v": 68
    },
    {
      "midi": 63,
      "hit": false,
      "t": 47999.95199999997,
      "d": 742.8564000000115,
      "v": 70
    },
    {
      "midi": 60,
      "hit": false,
      "t": 47999.95199999997,
      "d": 796.427775000011,
      "v": 68
    },
    {
      "midi": 44,
      "hit": false,
      "t": 47999.95199999997,
      "d": 1246.4273250000115,
      "v": 77
    },
    {
      "midi": 68,
      "hit": false,
      "t": 47999.95199999997,
      "d": 1532.1413250000114,
      "v": 81
    },
    {
      "midi": 72,
      "hit": false,
      "t": 47999.95199999997,
      "d": 1532.1413250000114,
      "v": 81
    },
    {
      "midi": 51,
      "hit": false,
      "t": 48285.66599999997,
      "d": 142.8570000000036,
      "v": 54
    },
    {
      "midi": 56,
      "hit": false,
      "t": 48285.66599999997,
      "d": 174.99982500000624,
      "v": 52
    },
    {
      "midi": 51,
      "hit": false,
      "t": 48571.379999999976,
      "d": 167.85697500000242,
      "v": 60
    },
    {
      "midi": 56,
      "hit": false,
      "t": 48571.379999999976,
      "d": 203.57122500000696,
      "v": 54
    },
    {
      "midi": 56,
      "hit": false,
      "t": 48857.09399999998,
      "d": 364.2853499999983,
      "v": 71
    },
    {
      "midi": 51,
      "hit": false,
      "t": 48857.09399999998,
      "d": 385.7138999999952,
      "v": 28
    },
    {
      "midi": 60,
      "hit": false,
      "t": 48857.09399999998,
      "d": 524.9994749999969,
      "v": 71
    },
    {
      "midi": 63,
      "hit": false,
      "t": 48857.09399999998,
      "d": 539.2851749999973,
      "v": 81
    },
    {
      "midi": 51,
      "hit": false,
      "t": 49428.52199999998,
      "d": 174.99982499999896,
      "v": 71
    },
    {
      "midi": 44,
      "hit": false,
      "t": 49428.52199999998,
      "d": 224.9997749999966,
      "v": 67
    },
    {
      "midi": 56,
      "hit": false,
      "t": 49428.52199999998,
      "d": 271.4282999999996,
      "v": 58
    },
    {
      "midi": 72,
      "hit": false,
      "t": 49628.52179999998,
      "d": 1582.1412749999945,
      "v": 59
    },
    {
      "midi": 51,
      "hit": false,
      "t": 49714.23599999998,
      "d": 121.42844999999943,
      "v": 62
    },
    {
      "midi": 56,
      "hit": false,
      "t": 49714.23599999998,
      "d": 357.14250000000175,
      "v": 59
    },
    {
      "midi": 63,
      "hit": false,
      "t": 49714.23599999998,
      "d": 528.5708999999988,
      "v": 75
    },
    {
      "midi": 60,
      "hit": false,
      "t": 49714.23599999998,
      "d": 564.2851499999961,
      "v": 86
    },
    {
      "midi": 68,
      "hit": false,
      "t": 49714.23599999998,
      "d": 1582.1412749999945,
      "v": 59
    },
    {
      "midi": 44,
      "hit": false,
      "t": 49714.23599999998,
      "d": 1628.5697999999975,
      "v": 64
    },
    {
      "midi": 51,
      "hit": false,
      "t": 49999.94999999998,
      "d": 628.570799999994,
      "v": 66
    },
    {
      "midi": 56,
      "hit": false,
      "t": 50285.663999999975,
      "d": 260.71402500000113,
      "v": 59
    },
    {
      "midi": 56,
      "hit": false,
      "t": 50571.377999999975,
      "d": 378.57104999999865,
      "v": 86
    },
    {
      "midi": 63,
      "hit": false,
      "t": 50571.377999999975,
      "d": 474.99952499999927,
      "v": 86
    },
    {
      "midi": 60,
      "hit": false,
      "t": 50571.377999999975,
      "d": 582.1422749999983,
      "v": 83
    },
    {
      "midi": 51,
      "hit": false,
      "t": 51142.805999999975,
      "d": 182.14267500000278,
      "v": 81
    },
    {
      "midi": 56,
      "hit": false,
      "t": 51142.805999999975,
      "d": 221.42835000000196,
      "v": 79
    },
    {
      "midi": 51,
      "hit": false,
      "t": 51428.519999999975,
      "d": 89.2856249999968,
      "v": 64
    },
    {
      "midi": 56,
      "hit": false,
      "t": 51428.519999999975,
      "d": 410.713874999994,
      "v": 79
    },
    {
      "midi": 63,
      "hit": false,
      "t": 51428.519999999975,
      "d": 510.71377499998925,
      "v": 91
    },
    {
      "midi": 60,
      "hit": false,
      "t": 51428.519999999975,
      "d": 532.1423249999862,
      "v": 86
    },
    {
      "midi": 68,
      "hit": false,
      "t": 51428.519999999975,
      "d": 1560.7127249999976,
      "v": 57
    },
    {
      "midi": 72,
      "hit": false,
      "t": 51428.519999999975,
      "d": 1560.7127249999976,
      "v": 57
    },
    {
      "midi": 44,
      "hit": false,
      "t": 51428.519999999975,
      "d": 1585.7126999999964,
      "v": 71
    },
    {
      "midi": 51,
      "hit": false,
      "t": 51714.23399999997,
      "d": 792.8563499999946,
      "v": 77
    },
    {
      "midi": 56,
      "hit": false,
      "t": 51999.94799999996,
      "d": 246.42832500000077,
      "v": 68
    },
    {
      "midi": 56,
      "hit": false,
      "t": 52285.66199999996,
      "d": 417.8567250000051,
      "v": 55
    },
    {
      "midi": 63,
      "hit": false,
      "t": 52285.66199999996,
      "d": 507.1423500000092,
      "v": 94
    },
    {
      "midi": 60,
      "hit": false,
      "t": 52285.66199999996,
      "d": 510.7137750000111,
      "v": 91
    },
    {
      "midi": 51,
      "hit": false,
      "t": 52857.089999999975,
      "d": 174.99982499999896,
      "v": 77
    },
    {
      "midi": 56,
      "hit": false,
      "t": 52857.089999999975,
      "d": 264.28545000000304,
      "v": 68
    },
    {
      "midi": 51,
      "hit": false,
      "t": 53142.80399999998,
      "d": 53.571374999999534,
      "v": 52
    },
    {
      "midi": 56,
      "hit": false,
      "t": 53142.80399999998,
      "d": 332.14252500000293,
      "v": 79
    },
    {
      "midi": 63,
      "hit": false,
      "t": 53142.80399999998,
      "d": 389.2853250000044,
      "v": 91
    },
    {
      "midi": 60,
      "hit": false,
      "t": 53142.80399999998,
      "d": 410.7138750000013,
      "v": 88
    },
    {
      "midi": 44,
      "hit": false,
      "t": 53142.80399999998,
      "d": 928.5705000000016,
      "v": 94
    },
    {
      "midi": 68,
      "hit": false,
      "t": 53142.80399999998,
      "d": 1610.7126750000098,
      "v": 60
    },
    {
      "midi": 72,
      "hit": false,
      "t": 53142.80399999998,
      "d": 1610.7126750000098,
      "v": 60
    },
    {
      "midi": 51,
      "hit": false,
      "t": 53428.51799999998,
      "d": 474.99952499999927,
      "v": 58
    },
    {
      "midi": 56,
      "hit": false,
      "t": 53714.23199999998,
      "d": 249.99975000000268,
      "v": 81
    },
    {
      "midi": 56,
      "hit": false,
      "t": 53999.94599999998,
      "d": 157.14270000000397,
      "v": 71
    },
    {
      "midi": 58,
      "hit": false,
      "t": 53999.94599999998,
      "d": 178.57125000000087,
      "v": 79
    },
    {
      "midi": 60,
      "hit": false,
      "t": 53999.94599999998,
      "d": 442.8567000000039,
      "v": 71
    },
    {
      "midi": 63,
      "hit": false,
      "t": 53999.94599999998,
      "d": 460.7138250000062,
      "v": 88
    },
    {
      "midi": 56,
      "hit": false,
      "t": 54571.37399999999,
      "d": 96.42847500000062,
      "v": 91
    },
    {
      "midi": 56,
      "hit": false,
      "t": 54857.08799999999,
      "d": 149.99985000000015,
      "v": 66
    },
    {
      "midi": 63,
      "hit": false,
      "t": 54857.08799999999,
      "d": 196.42837500000314,
      "v": 81
    },
    {
      "midi": 61,
      "hit": false,
      "t": 54857.08799999999,
      "d": 460.7138249999989,
      "v": 75
    },
    {
      "midi": 68,
      "hit": false,
      "t": 54857.08799999999,
      "d": 678.570749999999,
      "v": 86
    },
    {
      "midi": 65,
      "hit": false,
      "t": 54857.08799999999,
      "d": 724.999275000002,
      "v": 83
    },
    {
      "midi": 49,
      "hit": false,
      "t": 54857.08799999999,
      "d": 1278.5701499999996,
      "v": 77
    },
    {
      "midi": 75,
      "hit": false,
      "t": 54857.08799999999,
      "d": 6071.422500000015,
      "v": 73
    },
    {
      "midi": 56,
      "hit": false,
      "t": 55142.801999999996,
      "d": 92.85704999999871,
      "v": 64
    },
    {
      "midi": 61,
      "hit": false,
      "t": 55428.51599999999,
      "d": 167.85697500000242,
      "v": 67
    },
    {
      "midi": 56,
      "hit": false,
      "t": 55428.51599999999,
      "d": 564.2851500000033,
      "v": 75
    },
    {
      "midi": 61,
      "hit": false,
      "t": 55714.22999999999,
      "d": 335.71395000000484,
      "v": 81
    },
    {
      "midi": 68,
      "hit": false,
      "t": 55714.22999999999,
      "d": 464.2852500000008,
      "v": 94
    },
    {
      "midi": 65,
      "hit": false,
      "t": 55714.22999999999,
      "d": 796.4277749999965,
      "v": 88
    },
    {
      "midi": 56,
      "hit": false,
      "t": 56285.65799999999,
      "d": 210.71407499999623,
      "v": 75
    },
    {
      "midi": 68,
      "hit": false,
      "t": 56285.65799999999,
      "d": 214.28549999999814,
      "v": 62
    },
    {
      "midi": 49,
      "hit": false,
      "t": 56285.65799999999,
      "d": 232.14262499999313,
      "v": 46
    },
    {
      "midi": 61,
      "hit": false,
      "t": 56285.65799999999,
      "d": 249.9997499999954,
      "v": 75
    },
    {
      "midi": 56,
      "hit": false,
      "t": 56571.37199999999,
      "d": 135.7141499999998,
      "v": 55
    },
    {
      "midi": 61,
      "hit": false,
      "t": 56571.37199999999,
      "d": 335.71394999999757,
      "v": 77
    },
    {
      "midi": 68,
      "hit": false,
      "t": 56571.37199999999,
      "d": 464.2852500000008,
      "v": 77
    },
    {
      "midi": 65,
      "hit": false,
      "t": 56571.37199999999,
      "d": 492.85665000000154,
      "v": 81
    },
    {
      "midi": 49,
      "hit": false,
      "t": 56571.37199999999,
      "d": 1207.1416499999978,
      "v": 81
    },
    {
      "midi": 56,
      "hit": false,
      "t": 56857.08599999999,
      "d": 732.1421249999985,
      "v": 64
    },
    {
      "midi": 61,
      "hit": false,
      "t": 57142.79999999999,
      "d": 207.1426500000016,
      "v": 75
    },
    {
      "midi": 61,
      "hit": false,
      "t": 57428.51399999999,
      "d": 346.428224999996,
      "v": 81
    },
    {
      "midi": 68,
      "hit": false,
      "t": 57428.51399999999,
      "d": 492.85665000000154,
      "v": 94
    },
    {
      "midi": 65,
      "hit": false,
      "t": 57428.51399999999,
      "d": 499.9994999999981,
      "v": 94
    },
    {
      "midi": 49,
      "hit": false,
      "t": 57999.94199999999,
      "d": 42.85710000000108,
      "v": 52
    },
    {
      "midi": 56,
      "hit": false,
      "t": 57999.94199999999,
      "d": 139.2855750000017,
      "v": 66
    },
    {
      "midi": 61,
      "hit": false,
      "t": 57999.94199999999,
      "d": 210.7140750000035,
      "v": 63
    },
    {
      "midi": 56,
      "hit": false,
      "t": 58285.65599999999,
      "d": 121.42844999999943,
      "v": 55
    },
    {
      "midi": 63,
      "hit": false,
      "t": 58285.65599999999,
      "d": 171.42839999999705,
      "v": 68
    },
    {
      "midi": 61,
      "hit": false,
      "t": 58285.65599999999,
      "d": 417.8567249999978,
      "v": 70
    },
    {
      "midi": 68,
      "hit": false,
      "t": 58285.65599999999,
      "d": 535.7137499999953,
      "v": 79
    },
    {
      "midi": 65,
      "hit": false,
      "t": 58285.65599999999,
      "d": 553.5708749999976,
      "v": 68
    },
    {
      "midi": 49,
      "hit": false,
      "t": 58285.65599999999,
      "d": 1299.9987000000037,
      "v": 86
    },
    {
      "midi": 56,
      "hit": false,
      "t": 58571.36999999999,
      "d": 99.99989999999525,
      "v": 64
    },
    {
      "midi": 61,
      "hit": false,
      "t": 58857.08399999999,
      "d": 171.42839999999705,
      "v": 73
    },
    {
      "midi": 56,
      "hit": false,
      "t": 58857.08399999999,
      "d": 642.8565000000017,
      "v": 68
    },
    {
      "midi": 61,
      "hit": false,
      "t": 59142.79799999999,
      "d": 389.2853250000044,
      "v": 81
    },
    {
      "midi": 68,
      "hit": false,
      "t": 59142.79799999999,
      "d": 460.7138250000062,
      "v": 91
    },
    {
      "midi": 65,
      "hit": false,
      "t": 59142.79799999999,
      "d": 499.99950000000536,
      "v": 83
    },
    {
      "midi": 49,
      "hit": false,
      "t": 59714.225999999995,
      "d": 171.42840000000433,
      "v": 86
    },
    {
      "midi": 56,
      "hit": false,
      "t": 59714.225999999995,
      "d": 403.571025000012,
      "v": 73
    },
    {
      "midi": 61,
      "hit": false,
      "t": 59714.225999999995,
      "d": 692.8564500000139,
      "v": 70
    },
    {
      "midi": 68,
      "hit": false,
      "t": 59999.94,
      "d": 514.2852000000057,
      "v": 94
    },
    {
      "midi": 65,
      "hit": false,
      "t": 59999.94,
      "d": 521.4280500000023,
      "v": 83
    },
    {
      "midi": 49,
      "hit": false,
      "t": 59999.94,
      "d": 1085.7132000000056,
      "v": 79
    },
    {
      "midi": 56,
      "hit": false,
      "t": 60285.65400000001,
      "d": 107.14274999999907,
      "v": 63
    },
    {
      "midi": 61,
      "hit": false,
      "t": 60571.368,
      "d": 228.5711999999985,
      "v": 62
    },
    {
      "midi": 61,
      "hit": false,
      "t": 60857.082,
      "d": 139.2855750000017,
      "v": 79
    },
    {
      "midi": 56,
      "hit": false,
      "t": 60857.082,
      "d": 157.14270000000397,
      "v": 83
    },
    {
      "midi": 68,
      "hit": false,
      "t": 60857.082,
      "d": 417.8567250000051,
      "v": 94
    },
    {
      "midi": 65,
      "hit": false,
      "t": 60857.082,
      "d": 467.8566750000027,
      "v": 91
    },
    {
      "midi": 61,
      "hit": false,
      "t": 61428.51,
      "d": 103.57132499999716,
      "v": 71
    },
    {
      "midi": 51,
      "hit": false,
      "t": 61714.223999999995,
      "d": 121.42844999999943,
      "v": 50
    },
    {
      "midi": 56,
      "hit": false,
      "t": 61714.223999999995,
      "d": 392.856749999999,
      "v": 81
    },
    {
      "midi": 63,
      "hit": false,
      "t": 61714.223999999995,
      "d": 424.99957499999437,
      "v": 88
    },
    {
      "midi": 60,
      "hit": false,
      "t": 61714.223999999995,
      "d": 482.1423749999958,
      "v": 83
    },
    {
      "midi": 68,
      "hit": false,
      "t": 61714.223999999995,
      "d": 1549.9984499999919,
      "v": 54
    },
    {
      "midi": 72,
      "hit": false,
      "t": 61714.223999999995,
      "d": 1549.9984499999919,
      "v": 54
    },
    {
      "midi": 44,
      "hit": false,
      "t": 61714.223999999995,
      "d": 1582.1412749999945,
      "v": 91
    },
    {
      "midi": 51,
      "hit": false,
      "t": 61999.937999999995,
      "d": 114.28559999999561,
      "v": 79
    },
    {
      "midi": 51,
      "hit": false,
      "t": 62285.65199999999,
      "d": 99.99990000000253,
      "v": 71
    },
    {
      "midi": 56,
      "hit": false,
      "t": 62285.65199999999,
      "d": 196.42837500000314,
      "v": 67
    },
    {
      "midi": 51,
      "hit": false,
      "t": 62571.36599999999,
      "d": 339.2853749999995,
      "v": 66
    },
    {
      "midi": 56,
      "hit": false,
      "t": 62571.36599999999,
      "d": 382.14247500000056,
      "v": 75
    },
    {
      "midi": 63,
      "hit": false,
      "t": 62571.36599999999,
      "d": 474.99952499999927,
      "v": 88
    },
    {
      "midi": 60,
      "hit": false,
      "t": 62571.36599999999,
      "d": 510.71377499999653,
      "v": 88
    },
    {
      "midi": 51,
      "hit": false,
      "t": 63142.79399999999,
      "d": 174.99982500000624,
      "v": 71
    },
    {
      "midi": 56,
      "hit": false,
      "t": 63142.79399999999,
      "d": 235.7140500000096,
      "v": 66
    },
    {
      "midi": 51,
      "hit": false,
      "t": 63428.507999999994,
      "d": 49.999949999997625,
      "v": 52
    },
    {
      "midi": 56,
      "hit": false,
      "t": 63428.507999999994,
      "d": 314.28540000000066,
      "v": 75
    },
    {
      "midi": 63,
      "hit": false,
      "t": 63428.507999999994,
      "d": 357.14250000000175,
      "v": 86
    },
    {
      "midi": 60,
      "hit": false,
      "t": 63428.507999999994,
      "d": 446.42812499999854,
      "v": 81
    },
    {
      "midi": 44,
      "hit": false,
      "t": 63428.507999999994,
      "d": 1299.9986999999965,
      "v": 81
    },
    {
      "midi": 68,
      "hit": false,
      "t": 63428.507999999994,
      "d": 1582.1412750000018,
      "v": 67
    },
    {
      "midi": 72,
      "hit": false,
      "t": 63428.507999999994,
      "d": 1582.1412750000018,
      "v": 67
    },
    {
      "midi": 51,
      "hit": false,
      "t": 63714.221999999994,
      "d": 110.71417500000098,
      "v": 88
    },
    {
      "midi": 51,
      "hit": false,
      "t": 63999.935999999994,
      "d": 89.2856249999968,
      "v": 67
    },
    {
      "midi": 56,
      "hit": false,
      "t": 63999.935999999994,
      "d": 214.28549999999814,
      "v": 67
    },
    {
      "midi": 56,
      "hit": false,
      "t": 64285.649999999994,
      "d": 407.14244999999937,
      "v": 77
    },
    {
      "midi": 51,
      "hit": false,
      "t": 64285.649999999994,
      "d": 478.5709499999939,
      "v": 77
    },
    {
      "midi": 63,
      "hit": false,
      "t": 64285.649999999994,
      "d": 535.7137499999953,
      "v": 88
    },
    {
      "midi": 60,
      "hit": false,
      "t": 64285.649999999994,
      "d": 539.2851749999973,
      "v": 81
    },
    {
      "midi": 44,
      "hit": false,
      "t": 64857.077999999994,
      "d": 142.8570000000036,
      "v": 60
    },
    {
      "midi": 51,
      "hit": false,
      "t": 64857.077999999994,
      "d": 178.57125000000087,
      "v": 70
    },
    {
      "midi": 56,
      "hit": false,
      "t": 64857.077999999994,
      "d": 235.71405000000232,
      "v": 59
    },
    {
      "midi": 51,
      "hit": false,
      "t": 65142.791999999994,
      "d": 74.99992499999644,
      "v": 52
    },
    {
      "midi": 56,
      "hit": false,
      "t": 65142.791999999994,
      "d": 421.4281499999852,
      "v": 67
    },
    {
      "midi": 63,
      "hit": false,
      "t": 65142.791999999994,
      "d": 503.57092499998544,
      "v": 88
    },
    {
      "midi": 60,
      "hit": false,
      "t": 65142.791999999994,
      "d": 539.28517499999,
      "v": 83
    },
    {
      "midi": 68,
      "hit": false,
      "t": 65142.791999999994,
      "d": 1589.2841249999692,
      "v": 70
    },
    {
      "midi": 72,
      "hit": false,
      "t": 65142.791999999994,
      "d": 1589.2841249999692,
      "v": 70
    },
    {
      "midi": 44,
      "hit": false,
      "t": 65142.791999999994,
      "d": 2649.997349999954,
      "v": 79
    },
    {
      "midi": 51,
      "hit": false,
      "t": 65428.50599999999,
      "d": 107.14274999999907,
      "v": 77
    },
    {
      "midi": 51,
      "hit": false,
      "t": 65714.21999999999,
      "d": 110.71417500000098,
      "v": 71
    },
    {
      "midi": 56,
      "hit": false,
      "t": 65714.21999999999,
      "d": 214.28549999999814,
      "v": 63
    },
    {
      "midi": 51,
      "hit": false,
      "t": 65999.93399999998,
      "d": 292.8568499999965,
      "v": 66
    },
    {
      "midi": 56,
      "hit": false,
      "t": 65999.93399999998,
      "d": 389.2853249999898,
      "v": 73
    },
    {
      "midi": 63,
      "hit": false,
      "t": 65999.93399999998,
      "d": 414.28529999998864,
      "v": 81
    },
    {
      "midi": 60,
      "hit": false,
      "t": 65999.93399999998,
      "d": 474.999524999992,
      "v": 83
    },
    {
      "midi": 51,
      "hit": false,
      "t": 66571.36199999996,
      "d": 132.14272499999788,
      "v": 79
    },
    {
      "midi": 56,
      "hit": false,
      "t": 66571.36199999996,
      "d": 242.85689999999886,
      "v": 79
    },
    {
      "midi": 51,
      "hit": false,
      "t": 66857.07599999996,
      "d": 103.57132499999716,
      "v": 71
    },
    {
      "midi": 56,
      "hit": false,
      "t": 66857.07599999996,
      "d": 378.57104999999865,
      "v": 79
    },
    {
      "midi": 63,
      "hit": false,
      "t": 66857.07599999996,
      "d": 414.2853000000032,
      "v": 88
    },
    {
      "midi": 60,
      "hit": false,
      "t": 66857.07599999996,
      "d": 467.8566750000027,
      "v": 86
    },
    {
      "midi": 68,
      "hit": false,
      "t": 66857.07599999996,
      "d": 1535.712750000006,
      "v": 68
    },
    {
      "midi": 72,
      "hit": false,
      "t": 66857.07599999996,
      "d": 1535.712750000006,
      "v": 68
    },
    {
      "midi": 51,
      "hit": false,
      "t": 67142.78999999995,
      "d": 392.8567500000063,
      "v": 83
    },
    {
      "midi": 56,
      "hit": false,
      "t": 67428.50399999996,
      "d": 235.71404999999504,
      "v": 83
    },
    {
      "midi": 51,
      "hit": false,
      "t": 67714.21799999995,
      "d": 160.7141249999986,
      "v": 91
    },
    {
      "midi": 56,
      "hit": false,
      "t": 67714.21799999995,
      "d": 249.99975000000268,
      "v": 81
    },
    {
      "midi": 63,
      "hit": false,
      "t": 67714.21799999995,
      "d": 364.28535000000556,
      "v": 94
    },
    {
      "midi": 60,
      "hit": false,
      "t": 67714.21799999995,
      "d": 432.14242500001274,
      "v": 91
    },
    {
      "midi": 56,
      "hit": false,
      "t": 68285.64599999996,
      "d": 71.42849999999453,
      "v": 63
    },
    {
      "midi": 56,
      "hit": false,
      "t": 68571.35999999996,
      "d": 167.85697499998787,
      "v": 66
    },
    {
      "midi": 61,
      "hit": false,
      "t": 68571.35999999996,
      "d": 424.99957499999437,
      "v": 91
    },
    {
      "midi": 68,
      "hit": false,
      "t": 68571.35999999996,
      "d": 503.5709249999927,
      "v": 101
    },
    {
      "midi": 65,
      "hit": false,
      "t": 68571.35999999996,
      "d": 514.2851999999984,
      "v": 91
    },
    {
      "midi": 49,
      "hit": false,
      "t": 68571.35999999996,
      "d": 1267.8558750000084,
      "v": 75
    },
    {
      "midi": 75,
      "hit": false,
      "t": 68571.35999999996,
      "d": 1632.1412249999994,
      "v": 79
    },
    {
      "midi": 56,
      "hit": false,
      "t": 68857.07399999995,
      "d": 107.14274999999907,
      "v": 57
    },
    {
      "midi": 56,
      "hit": false,
      "t": 69142.78799999996,
      "d": 139.2855750000017,
      "v": 71
    },
    {
      "midi": 61,
      "hit": false,
      "t": 69142.78799999996,
      "d": 217.85692500000005,
      "v": 61
    },
    {
      "midi": 61,
      "hit": false,
      "t": 69428.50199999996,
      "d": 378.57104999999865,
      "v": 71
    },
    {
      "midi": 56,
      "hit": false,
      "t": 69428.50199999996,
      "d": 389.2853250000044,
      "v": 71
    },
    {
      "midi": 68,
      "hit": false,
      "t": 69428.50199999996,
      "d": 489.2852249999996,
      "v": 86
    },
    {
      "midi": 65,
      "hit": false,
      "t": 69428.50199999996,
      "d": 517.8566250000003,
      "v": 83
    },
    {
      "midi": 56,
      "hit": false,
      "t": 69999.92999999996,
      "d": 146.42842500000552,
      "v": 66
    },
    {
      "midi": 49,
      "hit": false,
      "t": 69999.92999999996,
      "d": 160.7141249999986,
      "v": 61
    },
    {
      "midi": 61,
      "hit": false,
      "t": 69999.92999999996,
      "d": 210.71407499999623,
      "v": 67
    },
    {
      "midi": 56,
      "hit": false,
      "t": 70285.64399999996,
      "d": 117.85702499999024,
      "v": 70
    },
    {
      "midi": 63,
      "hit": false,
      "t": 70285.64399999996,
      "d": 160.71412499998405,
      "v": 83
    },
    {
      "midi": 61,
      "hit": false,
      "t": 70285.64399999996,
      "d": 171.42839999998978,
      "v": 66
    },
    {
      "midi": 49,
      "hit": false,
      "t": 70285.64399999996,
      "d": 178.5712499999936,
      "v": 81
    },
    {
      "midi": 68,
      "hit": false,
      "t": 70285.64399999996,
      "d": 185.71409999999742,
      "v": 83
    },
    {
      "midi": 65,
      "hit": false,
      "t": 70285.64399999996,
      "d": 235.71404999999504,
      "v": 75
    },
    {
      "midi": 75,
      "hit": false,
      "t": 70285.64399999996,
      "d": 1514.2841999999946,
      "v": 71
    },
    {
      "midi": 56,
      "hit": false,
      "t": 70571.35799999995,
      "d": 367.8567749999929,
      "v": 68
    },
    {
      "midi": 49,
      "hit": false,
      "t": 70571.35799999995,
      "d": 967.8561750000081,
      "v": 59
    },
    {
      "midi": 61,
      "hit": false,
      "t": 70714.21499999995,
      "d": 71.42849999999453,
      "v": 60
    },
    {
      "midi": 61,
      "hit": false,
      "t": 70857.07199999994,
      "d": 167.85697500000242,
      "v": 68
    },
    {
      "midi": 61,
      "hit": false,
      "t": 71142.78599999995,
      "d": 357.14250000000175,
      "v": 83
    },
    {
      "midi": 56,
      "hit": false,
      "t": 71142.78599999995,
      "d": 396.4281750000082,
      "v": 67
    },
    {
      "midi": 68,
      "hit": false,
      "t": 71142.78599999995,
      "d": 410.7138750000013,
      "v": 91
    },
    {
      "midi": 65,
      "hit": false,
      "t": 71142.78599999995,
      "d": 464.2852500000008,
      "v": 88
    },
    {
      "midi": 56,
      "hit": false,
      "t": 71714.21399999995,
      "d": 117.8570250000048,
      "v": 68
    },
    {
      "midi": 49,
      "hit": false,
      "t": 71714.21399999995,
      "d": 164.2855500000005,
      "v": 73
    },
    {
      "midi": 61,
      "hit": false,
      "t": 71714.21399999995,
      "d": 214.2855000000127,
      "v": 71
    },
    {
      "midi": 56,
      "hit": false,
      "t": 71999.92799999996,
      "d": 114.28560000000289,
      "v": 63
    },
    {
      "midi": 61,
      "hit": false,
      "t": 71999.92799999996,
      "d": 314.28540000000794,
      "v": 73
    },
    {
      "midi": 63,
      "hit": false,
      "t": 71999.92799999996,
      "d": 346.42822500001057,
      "v": 81
    },
    {
      "midi": 68,
      "hit": false,
      "t": 71999.92799999996,
      "d": 399.9996000000101,
      "v": 86
    },
    {
      "midi": 65,
      "hit": false,
      "t": 71999.92799999996,
      "d": 428.5710000000108,
      "v": 81
    },
    {
      "midi": 49,
      "hit": false,
      "t": 71999.92799999996,
      "d": 1267.8558750000084,
      "v": 81
    },
    {
      "midi": 75,
      "hit": false,
      "t": 71999.92799999996,
      "d": 1542.8556000000244,
      "v": 68
    },
    {
      "midi": 56,
      "hit": false,
      "t": 72285.64199999996,
      "d": 99.9999000000098,
      "v": 71
    },
    {
      "midi": 61,
      "hit": false,
      "t": 72571.35599999997,
      "d": 132.14272499999788,
      "v": 62
    },
    {
      "midi": 56,
      "hit": false,
      "t": 72571.35599999997,
      "d": 214.28549999999814,
      "v": 51
    },
    {
      "midi": 56,
      "hit": false,
      "t": 72857.06999999996,
      "d": 357.14250000000175,
      "v": 70
    },
    {
      "midi": 61,
      "hit": false,
      "t": 72857.06999999996,
      "d": 357.14250000000175,
      "v": 83
    },
    {
      "midi": 68,
      "hit": false,
      "t": 72857.06999999996,
      "d": 449.99955000000773,
      "v": 97
    },
    {
      "midi": 65,
      "hit": false,
      "t": 72857.06999999996,
      "d": 485.71380000001227,
      "v": 91
    },
    {
      "midi": 49,
      "hit": false,
      "t": 73428.49799999998,
      "d": 174.99982500000624,
      "v": 75
    },
    {
      "midi": 56,
      "hit": false,
      "t": 73428.49799999998,
      "d": 178.57125000000815,
      "v": 70
    },
    {
      "midi": 61,
      "hit": false,
      "t": 73428.49799999998,
      "d": 260.7140250000084,
      "v": 79
    },
    {
      "midi": 61,
      "hit": false,
      "t": 73714.21199999998,
      "d": 357.14250000000175,
      "v": 64
    },
    {
      "midi": 68,
      "hit": false,
      "t": 73714.21199999998,
      "d": 414.2853000000032,
      "v": 91
    },
    {
      "midi": 65,
      "hit": false,
      "t": 73714.21199999998,
      "d": 457.142399999997,
      "v": 91
    },
    {
      "midi": 49,
      "hit": false,
      "t": 73714.21199999998,
      "d": 832.1420249999937,
      "v": 79
    },
    {
      "midi": 75,
      "hit": false,
      "t": 73714.21199999998,
      "d": 1357.141499999998,
      "v": 75
    },
    {
      "midi": 56,
      "hit": false,
      "t": 73857.06899999999,
      "d": 35.71425000000454,
      "v": 48
    },
    {
      "midi": 56,
      "hit": false,
      "t": 73999.92599999999,
      "d": 382.142474999986,
      "v": 66
    },
    {
      "midi": 61,
      "hit": false,
      "t": 74285.63999999998,
      "d": 214.28549999999814,
      "v": 73
    },
    {
      "midi": 56,
      "hit": false,
      "t": 74571.35399999998,
      "d": 167.85697500000242,
      "v": 77
    },
    {
      "midi": 61,
      "hit": false,
      "t": 74571.35399999998,
      "d": 199.99980000000505,
      "v": 81
    },
    {
      "midi": 49,
      "hit": false,
      "t": 74571.35399999998,
      "d": 278.5711500000034,
      "v": 55
    },
    {
      "midi": 68,
      "hit": false,
      "t": 74571.35399999998,
      "d": 421.428150000007,
      "v": 97
    },
    {
      "midi": 65,
      "hit": false,
      "t": 74571.35399999998,
      "d": 471.42810000000463,
      "v": 91
    },
    {
      "midi": 61,
      "hit": false,
      "t": 75142.78199999998,
      "d": 96.42847499999334,
      "v": 68
    },
    {
      "midi": 51,
      "hit": false,
      "t": 75428.49599999997,
      "d": 128.57129999999597,
      "v": 70
    },
    {
      "midi": 58,
      "hit": false,
      "t": 75428.49599999997,
      "d": 357.1424999999872,
      "v": 79
    },
    {
      "midi": 56,
      "hit": false,
      "t": 75428.49599999997,
      "d": 392.85674999999173,
      "v": 81
    },
    {
      "midi": 63,
      "hit": false,
      "t": 75428.49599999997,
      "d": 424.99957499999437,
      "v": 86
    },
    {
      "midi": 60,
      "hit": false,
      "t": 75428.49599999997,
      "d": 428.5709999999963,
      "v": 71
    },
    {
      "midi": 44,
      "hit": false,
      "t": 75428.49599999997,
      "d": 1242.8559000000096,
      "v": 91
    },
    {
      "midi": 68,
      "hit": false,
      "t": 75428.49599999997,
      "d": 1610.7126750000025,
      "v": 68
    },
    {
      "midi": 72,
      "hit": false,
      "t": 75428.49599999997,
      "d": 1610.7126750000025,
      "v": 68
    },
    {
      "midi": 51,
      "hit": false,
      "t": 75714.20999999996,
      "d": 99.99989999999525,
      "v": 63
    },
    {
      "midi": 51,
      "hit": false,
      "t": 75999.92399999997,
      "d": 128.57129999999597,
      "v": 60
    },
    {
      "midi": 56,
      "hit": false,
      "t": 75999.92399999997,
      "d": 207.14264999999432,
      "v": 63
    },
    {
      "midi": 51,
      "hit": false,
      "t": 76285.63799999996,
      "d": 339.28537500000675,
      "v": 77
    },
    {
      "midi": 56,
      "hit": false,
      "t": 76285.63799999996,
      "d": 374.9996250000113,
      "v": 70
    },
    {
      "midi": 63,
      "hit": false,
      "t": 76285.63799999996,
      "d": 510.7137750000111,
      "v": 81
    },
    {
      "midi": 60,
      "hit": false,
      "t": 76285.63799999996,
      "d": 524.9994750000042,
      "v": 81
    },
    {
      "midi": 51,
      "hit": false,
      "t": 76857.06599999996,
      "d": 128.57129999999597,
      "v": 73
    },
    {
      "midi": 44,
      "hit": false,
      "t": 76857.06599999996,
      "d": 178.57125000000815,
      "v": 77
    },
    {
      "midi": 56,
      "hit": false,
      "t": 76857.06599999996,
      "d": 235.7140500000096,
      "v": 63
    },
    {
      "midi": 51,
      "hit": false,
      "t": 77142.77999999997,
      "d": 110.71417500000098,
      "v": 68
    },
    {
      "midi": 58,
      "hit": false,
      "t": 77142.77999999997,
      "d": 164.2855500000005,
      "v": 83
    },
    {
      "midi": 56,
      "hit": false,
      "t": 77142.77999999997,
      "d": 317.85682500000985,
      "v": 67
    },
    {
      "midi": 63,
      "hit": false,
      "t": 77142.77999999997,
      "d": 382.1424750000151,
      "v": 86
    },
    {
      "midi": 60,
      "hit": false,
      "t": 77142.77999999997,
      "d": 460.71382500001346,
      "v": 77
    },
    {
      "midi": 44,
      "hit": false,
      "t": 77142.77999999997,
      "d": 1232.1416250000038,
      "v": 71
    },
    {
      "midi": 68,
      "hit": false,
      "t": 77142.77999999997,
      "d": 1557.1412999999884,
      "v": 67
    },
    {
      "midi": 72,
      "hit": false,
      "t": 77142.77999999997,
      "d": 1557.1412999999884,
      "v": 67
    },
    {
      "midi": 51,
      "hit": false,
      "t": 77428.49399999998,
      "d": 103.57132500001171,
      "v": 79
    },
    {
      "midi": 56,
      "hit": false,
      "t": 77714.20799999998,
      "d": 157.1426999999967,
      "v": 68
    },
    {
      "midi": 51,
      "hit": false,
      "t": 77714.20799999998,
      "d": 546.4280249999865,
      "v": 79
    },
    {
      "midi": 56,
      "hit": false,
      "t": 77999.92199999998,
      "d": 364.285349999991,
      "v": 75
    },
    {
      "midi": 63,
      "hit": false,
      "t": 77999.92199999998,
      "d": 421.42814999999246,
      "v": 86
    },
    {
      "midi": 60,
      "hit": false,
      "t": 77999.92199999998,
      "d": 517.8566249999858,
      "v": 75
    },
    {
      "midi": 51,
      "hit": false,
      "t": 78571.34999999996,
      "d": 142.85699999998906,
      "v": 77
    },
    {
      "midi": 44,
      "hit": false,
      "t": 78571.34999999996,
      "d": 189.28552499998477,
      "v": 81
    },
    {
      "midi": 56,
      "hit": false,
      "t": 78571.34999999996,
      "d": 228.57119999999122,
      "v": 64
    },
    {
      "midi": 51,
      "hit": false,
      "t": 78857.06399999995,
      "d": 117.8570250000048,
      "v": 66
    },
    {
      "midi": 56,
      "hit": false,
      "t": 78857.06399999995,
      "d": 414.28529999998864,
      "v": 75
    },
    {
      "midi": 63,
      "hit": false,
      "t": 78857.06399999995,
      "d": 471.4280999999901,
      "v": 88
    },
    {
      "midi": 60,
      "hit": false,
      "t": 78857.06399999995,
      "d": 507.1423499999946,
      "v": 83
    },
    {
      "midi": 68,
      "hit": false,
      "t": 78857.06399999995,
      "d": 1599.9983999999968,
      "v": 73
    },
    {
      "midi": 72,
      "hit": false,
      "t": 78857.06399999995,
      "d": 1599.9983999999968,
      "v": 73
    },
    {
      "midi": 44,
      "hit": false,
      "t": 78857.06399999995,
      "d": 1610.7126750000025,
      "v": 77
    },
    {
      "midi": 51,
      "hit": false,
      "t": 79142.77799999995,
      "d": 78.57134999999835,
      "v": 56
    },
    {
      "midi": 56,
      "hit": false,
      "t": 79428.49199999995,
      "d": 196.42837500000314,
      "v": 63
    },
    {
      "midi": 51,
      "hit": false,
      "t": 79428.49199999995,
      "d": 382.14247500000056,
      "v": 61
    },
    {
      "midi": 56,
      "hit": false,
      "t": 79714.20599999996,
      "d": 357.1424999999872,
      "v": 71
    },
    {
      "midi": 63,
      "hit": false,
      "t": 79714.20599999996,
      "d": 396.42817499999364,
      "v": 79
    },
    {
      "midi": 60,
      "hit": false,
      "t": 79714.20599999996,
      "d": 449.9995499999932,
      "v": 75
    },
    {
      "midi": 51,
      "hit": false,
      "t": 80285.63399999996,
      "d": 128.57129999999597,
      "v": 62
    },
    {
      "midi": 56,
      "hit": false,
      "t": 80285.63399999996,
      "d": 224.9997749999893,
      "v": 68
    },
    {
      "midi": 51,
      "hit": false,
      "t": 80571.34799999995,
      "d": 103.57132499999716,
      "v": 60
    },
    {
      "midi": 56,
      "hit": false,
      "t": 80571.34799999995,
      "d": 439.285275000002,
      "v": 64
    },
    {
      "midi": 63,
      "hit": false,
      "t": 80571.34799999995,
      "d": 492.85665000000154,
      "v": 91
    },
    {
      "midi": 60,
      "hit": false,
      "t": 80571.34799999995,
      "d": 514.2851999999984,
      "v": 91
    },
    {
      "midi": 44,
      "hit": false,
      "t": 80571.34799999995,
      "d": 910.7133750000066,
      "v": 88
    },
    {
      "midi": 68,
      "hit": false,
      "t": 80571.34799999995,
      "d": 1557.141300000003,
      "v": 81
    },
    {
      "midi": 72,
      "hit": false,
      "t": 80571.34799999995,
      "d": 1557.141300000003,
      "v": 81
    },
    {
      "midi": 51,
      "hit": false,
      "t": 80857.06199999995,
      "d": 114.28560000000289,
      "v": 83
    },
    {
      "midi": 51,
      "hit": false,
      "t": 81142.77599999995,
      "d": 121.4284500000067,
      "v": 75
    },
    {
      "midi": 56,
      "hit": false,
      "t": 81142.77599999995,
      "d": 171.42840000000433,
      "v": 61
    },
    {
      "midi": 51,
      "hit": false,
      "t": 81428.48999999996,
      "d": 124.99987499999406,
      "v": 86
    },
    {
      "midi": 56,
      "hit": false,
      "t": 81428.48999999996,
      "d": 189.28552499999932,
      "v": 73
    },
    {
      "midi": 63,
      "hit": false,
      "t": 81428.48999999996,
      "d": 249.99975000000268,
      "v": 94
    },
    {
      "midi": 60,
      "hit": false,
      "t": 81428.48999999996,
      "d": 321.4282499999972,
      "v": 81
    },
    {
      "midi": 56,
      "hit": false,
      "t": 81999.91799999996,
      "d": 99.99989999999525,
      "v": 59
    },
    {
      "midi": 56,
      "hit": false,
      "t": 82285.63199999997,
      "d": 128.57129999999597,
      "v": 71
    },
    {
      "midi": 49,
      "hit": false,
      "t": 82285.63199999997,
      "d": 189.28552499999932,
      "v": 73
    },
    {
      "midi": 61,
      "hit": false,
      "t": 82285.63199999997,
      "d": 324.99967500001367,
      "v": 86
    },
    {
      "midi": 68,
      "hit": false,
      "t": 82285.63199999997,
      "d": 403.571025000012,
      "v": 81
    },
    {
      "midi": 65,
      "hit": false,
      "t": 82285.63199999997,
      "d": 442.85670000001846,
      "v": 86
    },
    {
      "midi": 75,
      "hit": false,
      "t": 82285.63199999997,
      "d": 4360.7099250000465,
      "v": 81
    },
    {
      "midi": 56,
      "hit": false,
      "t": 82571.34599999998,
      "d": 89.28562500000407,
      "v": 54
    },
    {
      "midi": 49,
      "hit": false,
      "t": 82571.34599999998,
      "d": 1028.5704000000114,
      "v": 50
    },
    {
      "midi": 56,
      "hit": false,
      "t": 82857.05999999998,
      "d": 128.57129999999597,
      "v": 63
    },
    {
      "midi": 61,
      "hit": false,
      "t": 82857.05999999998,
      "d": 182.1426749999955,
      "v": 73
    },
    {
      "midi": 61,
      "hit": false,
      "t": 83142.77399999998,
      "d": 324.9996749999991,
      "v": 81
    },
    {
      "midi": 56,
      "hit": false,
      "t": 83142.77399999998,
      "d": 392.8567500000063,
      "v": 77
    },
    {
      "midi": 68,
      "hit": false,
      "t": 83142.77399999998,
      "d": 471.42810000000463,
      "v": 91
    },
    {
      "midi": 65,
      "hit": false,
      "t": 83142.77399999998,
      "d": 521.4280500000023,
      "v": 86
    },
    {
      "midi": 56,
      "hit": false,
      "t": 83714.20199999998,
      "d": 171.42840000000433,
      "v": 62
    },
    {
      "midi": 49,
      "hit": false,
      "t": 83714.20199999998,
      "d": 196.42837500000314,
      "v": 60
    },
    {
      "midi": 61,
      "hit": false,
      "t": 83714.20199999998,
      "d": 257.1426000000065,
      "v": 71
    },
    {
      "midi": 56,
      "hit": false,
      "t": 83999.91599999998,
      "d": 107.14274999999907,
      "v": 57
    },
    {
      "midi": 61,
      "hit": false,
      "t": 83999.91599999998,
      "d": 378.5710500000132,
      "v": 61
    },
    {
      "midi": 68,
      "hit": false,
      "t": 83999.91599999998,
      "d": 449.9995500000223,
      "v": 94
    },
    {
      "midi": 65,
      "hit": false,
      "t": 83999.91599999998,
      "d": 485.7138000000268,
      "v": 88
    },
    {
      "midi": 49,
      "hit": false,
      "t": 83999.91599999998,
      "d": 1267.8558750000375,
      "v": 83
    },
    {
      "midi": 56,
      "hit": false,
      "t": 84285.62999999999,
      "d": 99.9999000000098,
      "v": 59
    },
    {
      "midi": 61,
      "hit": false,
      "t": 84571.34400000001,
      "d": 199.99980000000505,
      "v": 70
    },
    {
      "midi": 56,
      "hit": false,
      "t": 84571.34400000001,
      "d": 574.9994250000018,
      "v": 58
    },
    {
      "midi": 61,
      "hit": false,
      "t": 84857.05800000002,
      "d": 307.14254999998957,
      "v": 83
    },
    {
      "midi": 68,
      "hit": false,
      "t": 84857.05800000002,
      "d": 342.8567999999941,
      "v": 88
    },
    {
      "midi": 65,
      "hit": false,
      "t": 84857.05800000002,
      "d": 503.57092500000726,
      "v": 91
    },
    {
      "midi": 49,
      "hit": false,
      "t": 85428.48600000003,
      "d": 153.57127499999478,
      "v": 62
    },
    {
      "midi": 56,
      "hit": false,
      "t": 85428.48600000003,
      "d": 160.7141249999986,
      "v": 67
    },
    {
      "midi": 61,
      "hit": false,
      "t": 85428.48600000003,
      "d": 224.99977500000386,
      "v": 75
    },
    {
      "midi": 56,
      "hit": false,
      "t": 85714.20000000003,
      "d": 121.4284500000067,
      "v": 61
    },
    {
      "midi": 61,
      "hit": false,
      "t": 85714.20000000003,
      "d": 382.14247500000056,
      "v": 79
    },
    {
      "midi": 68,
      "hit": false,
      "t": 85714.20000000003,
      "d": 432.1424249999982,
      "v": 94
    },
    {
      "midi": 65,
      "hit": false,
      "t": 85714.20000000003,
      "d": 492.85665000000154,
      "v": 91
    },
    {
      "midi": 49,
      "hit": false,
      "t": 85714.20000000003,
      "d": 1303.5701249999693,
      "v": 81
    },
    {
      "midi": 56,
      "hit": false,
      "t": 85999.91400000003,
      "d": 78.57134999999835,
      "v": 53
    },
    {
      "midi": 61,
      "hit": false,
      "t": 86285.62800000003,
      "d": 182.1426749999955,
      "v": 71
    },
    {
      "midi": 56,
      "hit": false,
      "t": 86285.62800000003,
      "d": 485.71379999998317,
      "v": 62
    },
    {
      "midi": 61,
      "hit": false,
      "t": 86571.34200000002,
      "d": 328.5710999999865,
      "v": 83
    },
    {
      "midi": 68,
      "hit": false,
      "t": 86571.34200000002,
      "d": 432.14242499998363,
      "v": 94
    },
    {
      "midi": 65,
      "hit": false,
      "t": 86571.34200000002,
      "d": 474.99952499997744,
      "v": 91
    },
    {
      "midi": 56,
      "hit": false,
      "t": 87142.76999999999,
      "d": 135.7141499999998,
      "v": 66
    },
    {
      "midi": 49,
      "hit": false,
      "t": 87142.76999999999,
      "d": 167.85697500000242,
      "v": 64
    },
    {
      "midi": 61,
      "hit": false,
      "t": 87142.76999999999,
      "d": 196.42837500000314,
      "v": 75
    },
    {
      "midi": 56,
      "hit": false,
      "t": 87428.484,
      "d": 96.42847499999334,
      "v": 62
    },
    {
      "midi": 63,
      "hit": false,
      "t": 87428.484,
      "d": 174.9998249999917,
      "v": 79
    },
    {
      "midi": 61,
      "hit": false,
      "t": 87428.484,
      "d": 217.8569249999855,
      "v": 77
    },
    {
      "midi": 68,
      "hit": false,
      "t": 87428.484,
      "d": 353.57107499999984,
      "v": 91
    },
    {
      "midi": 65,
      "hit": false,
      "t": 87428.484,
      "d": 367.8567749999929,
      "v": 79
    },
    {
      "midi": 49,
      "hit": false,
      "t": 87428.484,
      "d": 1024.9989749999804,
      "v": 86
    },
    {
      "midi": 56,
      "hit": false,
      "t": 87714.19799999999,
      "d": 103.57132499999716,
      "v": 59
    },
    {
      "midi": 56,
      "hit": false,
      "t": 87999.91199999998,
      "d": 103.57132499999716,
      "v": 58
    },
    {
      "midi": 61,
      "hit": false,
      "t": 87999.91199999998,
      "d": 132.14272499999788,
      "v": 73
    },
    {
      "midi": 56,
      "hit": false,
      "t": 88285.62599999997,
      "d": 146.42842500000552,
      "v": 77
    },
    {
      "midi": 61,
      "hit": false,
      "t": 88285.62599999997,
      "d": 207.14265000000887,
      "v": 86
    },
    {
      "midi": 68,
      "hit": false,
      "t": 88285.62599999997,
      "d": 285.7140000000072,
      "v": 91
    },
    {
      "midi": 65,
      "hit": false,
      "t": 88285.62599999997,
      "d": 396.4281750000082,
      "v": 88
    },
    {
      "midi": 61,
      "hit": false,
      "t": 88714.19699999999,
      "d": 110.71417500000098,
      "v": 71
    },
    {
      "midi": 53,
      "hit": false,
      "t": 89142.76799999998,
      "d": 146.42842500000552,
      "v": 79
    },
    {
      "midi": 46,
      "hit": false,
      "t": 89142.76799999998,
      "d": 178.57125000000815,
      "v": 77
    },
    {
      "midi": 58,
      "hit": false,
      "t": 89142.76799999998,
      "d": 382.14247500000056,
      "v": 68
    },
    {
      "midi": 60,
      "hit": false,
      "t": 89142.76799999998,
      "d": 414.2853000000032,
      "v": 61
    },
    {
      "midi": 65,
      "hit": false,
      "t": 89142.76799999998,
      "d": 421.428150000007,
      "v": 56
    },
    {
      "midi": 61,
      "hit": false,
      "t": 89142.76799999998,
      "d": 432.14242500001274,
      "v": 60
    },
    {
      "midi": 46,
      "hit": false,
      "t": 89428.48199999999,
      "d": 1057.1417999999976,
      "v": 63
    },
    {
      "midi": 58,
      "hit": false,
      "t": 89714.196,
      "d": 153.57127499999478,
      "v": 67
    },
    {
      "midi": 58,
      "hit": false,
      "t": 89999.90999999999,
      "d": 307.1425500000041,
      "v": 60
    },
    {
      "midi": 60,
      "hit": false,
      "t": 89999.90999999999,
      "d": 332.14252500000293,
      "v": 70
    },
    {
      "midi": 53,
      "hit": false,
      "t": 89999.90999999999,
      "d": 439.285275000002,
      "v": 67
    },
    {
      "midi": 65,
      "hit": false,
      "t": 89999.90999999999,
      "d": 507.1423499999946,
      "v": 79
    },
    {
      "midi": 61,
      "hit": false,
      "t": 89999.90999999999,
      "d": 514.2851999999984,
      "v": 77
    },
    {
      "midi": 53,
      "hit": false,
      "t": 90571.33799999999,
      "d": 157.1426999999967,
      "v": 75
    },
    {
      "midi": 46,
      "hit": false,
      "t": 90571.33799999999,
      "d": 203.5712249999924,
      "v": 50
    },
    {
      "midi": 58,
      "hit": false,
      "t": 90571.33799999999,
      "d": 228.57119999999122,
      "v": 67
    },
    {
      "midi": 53,
      "hit": false,
      "t": 90857.05199999998,
      "d": 121.4284500000067,
      "v": 63
    },
    {
      "midi": 58,
      "hit": false,
      "t": 90857.05199999998,
      "d": 371.4282000000094,
      "v": 79
    },
    {
      "midi": 65,
      "hit": false,
      "t": 90857.05199999998,
      "d": 414.2853000000032,
      "v": 94
    },
    {
      "midi": 61,
      "hit": false,
      "t": 90857.05199999998,
      "d": 460.7138249999989,
      "v": 91
    },
    {
      "midi": 46,
      "hit": false,
      "t": 90857.05199999998,
      "d": 1035.7132500000007,
      "v": 73
    },
    {
      "midi": 53,
      "hit": false,
      "t": 91142.76599999999,
      "d": 746.4278249999916,
      "v": 79
    },
    {
      "midi": 58,
      "hit": false,
      "t": 91428.47999999998,
      "d": 160.7141249999986,
      "v": 71
    },
    {
      "midi": 58,
      "hit": false,
      "t": 91714.19399999997,
      "d": 278.5711500000034,
      "v": 91
    },
    {
      "midi": 65,
      "hit": false,
      "t": 91714.19399999997,
      "d": 378.57104999999865,
      "v": 97
    },
    {
      "midi": 61,
      "hit": false,
      "t": 91714.19399999997,
      "d": 435.7138500000001,
      "v": 86
    },
    {
      "midi": 58,
      "hit": false,
      "t": 92285.62199999997,
      "d": 196.42837500000314,
      "v": 67
    },
    {
      "midi": 53,
      "hit": false,
      "t": 92571.33599999998,
      "d": 142.8570000000036,
      "v": 61
    },
    {
      "midi": 60,
      "hit": false,
      "t": 92571.33599999998,
      "d": 182.14267500001006,
      "v": 75
    },
    {
      "midi": 58,
      "hit": false,
      "t": 92571.33599999998,
      "d": 310.71397500000603,
      "v": 79
    },
    {
      "midi": 65,
      "hit": false,
      "t": 92571.33599999998,
      "d": 392.8567500000063,
      "v": 94
    },
    {
      "midi": 61,
      "hit": false,
      "t": 92571.33599999998,
      "d": 417.8567250000051,
      "v": 75
    },
    {
      "midi": 46,
      "hit": false,
      "t": 92571.33599999998,
      "d": 1617.8555250000063,
      "v": 91
    },
    {
      "midi": 53,
      "hit": false,
      "t": 92857.04999999999,
      "d": 339.2853749999922,
      "v": 68
    },
    {
      "midi": 58,
      "hit": false,
      "t": 93142.76399999998,
      "d": 153.57127499999478,
      "v": 73
    },
    {
      "midi": 58,
      "hit": false,
      "t": 93428.47799999997,
      "d": 357.14250000000175,
      "v": 83
    },
    {
      "midi": 65,
      "hit": false,
      "t": 93428.47799999997,
      "d": 417.8567250000051,
      "v": 97
    },
    {
      "midi": 53,
      "hit": false,
      "t": 93428.47799999997,
      "d": 428.5710000000108,
      "v": 83
    },
    {
      "midi": 61,
      "hit": false,
      "t": 93428.47799999997,
      "d": 478.57095000000845,
      "v": 86
    },
    {
      "midi": 53,
      "hit": false,
      "t": 93999.90599999999,
      "d": 132.14272499999788,
      "v": 58
    },
    {
      "midi": 58,
      "hit": false,
      "t": 93999.90599999999,
      "d": 182.1426749999955,
      "v": 77
    },
    {
      "midi": 53,
      "hit": false,
      "t": 94285.61999999998,
      "d": 114.28560000000289,
      "v": 59
    },
    {
      "midi": 58,
      "hit": false,
      "t": 94285.61999999998,
      "d": 435.71385000001465,
      "v": 86
    },
    {
      "midi": 65,
      "hit": false,
      "t": 94285.61999999998,
      "d": 460.71382500001346,
      "v": 97
    },
    {
      "midi": 61,
      "hit": false,
      "t": 94285.61999999998,
      "d": 571.4280000000144,
      "v": 91
    },
    {
      "midi": 46,
      "hit": false,
      "t": 94285.61999999998,
      "d": 907.1419500000193,
      "v": 71
    },
    {
      "midi": 53,
      "hit": false,
      "t": 94571.33399999999,
      "d": 82.14277500000026,
      "v": 75
    },
    {
      "midi": 53,
      "hit": false,
      "t": 94857.048,
      "d": 374.9996250000113,
      "v": 81
    },
    {
      "midi": 58,
      "hit": false,
      "t": 95142.762,
      "d": 289.2854250000091,
      "v": 91
    },
    {
      "midi": 65,
      "hit": false,
      "t": 95142.762,
      "d": 339.28537500000675,
      "v": 97
    },
    {
      "midi": 61,
      "hit": false,
      "t": 95142.762,
      "d": 353.57107499999984,
      "v": 91
    },
    {
      "midi": 61,
      "hit": false,
      "t": 95999.90400000001,
      "d": 149.99985000000743,
      "v": 91
    },
    {
      "midi": 66,
      "hit": false,
      "t": 95999.90400000001,
      "d": 303.57112500001676,
      "v": 83
    },
    {
      "midi": 65,
      "hit": false,
      "t": 95999.90400000001,
      "d": 389.28532500001893,
      "v": 86
    },
    {
      "midi": 54,
      "hit": false,
      "t": 95999.90400000001,
      "d": 899.9991000000009,
      "v": 80
    },
    {
      "midi": 61,
      "hit": false,
      "t": 96571.33200000002,
      "d": 107.14274999999907,
      "v": 64
    },
    {
      "midi": 66,
      "hit": false,
      "t": 96857.04600000002,
      "d": 339.2853749999922,
      "v": 55
    },
    {
      "midi": 58,
      "hit": false,
      "t": 96857.04600000002,
      "d": 349.9996499999979,
      "v": 83
    },
    {
      "midi": 65,
      "hit": false,
      "t": 96857.04600000002,
      "d": 357.14250000000175,
      "v": 79
    },
    {
      "midi": 61,
      "hit": false,
      "t": 96857.04600000002,
      "d": 382.14247500000056,
      "v": 86
    },
    {
      "midi": 54,
      "hit": false,
      "t": 97428.47400000002,
      "d": 149.99984999999288,
      "v": 45
    },
    {
      "midi": 58,
      "hit": false,
      "t": 97428.47400000002,
      "d": 203.5712249999924,
      "v": 61
    },
    {
      "midi": 54,
      "hit": false,
      "t": 97714.18800000001,
      "d": 189.28552499999932,
      "v": 71
    },
    {
      "midi": 58,
      "hit": false,
      "t": 97714.18800000001,
      "d": 367.8567749999929,
      "v": 81
    },
    {
      "midi": 65,
      "hit": false,
      "t": 97714.18800000001,
      "d": 435.7138500000001,
      "v": 77
    },
    {
      "midi": 66,
      "hit": false,
      "t": 97714.18800000001,
      "d": 435.7138500000001,
      "v": 65
    },
    {
      "midi": 61,
      "hit": false,
      "t": 97714.18800000001,
      "d": 446.4281250000058,
      "v": 83
    },
    {
      "midi": 54,
      "hit": false,
      "t": 97999.902,
      "d": 942.8561999999947,
      "v": 61
    },
    {
      "midi": 58,
      "hit": false,
      "t": 98285.61600000001,
      "d": 235.71404999999504,
      "v": 71
    },
    {
      "midi": 58,
      "hit": false,
      "t": 98571.33,
      "d": 346.428224999996,
      "v": 75
    },
    {
      "midi": 61,
      "hit": false,
      "t": 98571.33,
      "d": 439.285275000002,
      "v": 86
    },
    {
      "midi": 66,
      "hit": false,
      "t": 98571.33,
      "d": 442.8567000000039,
      "v": 59
    },
    {
      "midi": 65,
      "hit": false,
      "t": 98571.33,
      "d": 460.7138249999989,
      "v": 86
    },
    {
      "midi": 54,
      "hit": false,
      "t": 99142.758,
      "d": 135.7141499999998,
      "v": 57
    },
    {
      "midi": 58,
      "hit": false,
      "t": 99142.758,
      "d": 242.85689999999886,
      "v": 68
    },
    {
      "midi": 54,
      "hit": false,
      "t": 99428.472,
      "d": 164.2855500000005,
      "v": 65
    },
    {
      "midi": 58,
      "hit": false,
      "t": 99428.472,
      "d": 382.142474999986,
      "v": 66
    },
    {
      "midi": 65,
      "hit": false,
      "t": 99428.472,
      "d": 407.1424499999848,
      "v": 75
    },
    {
      "midi": 66,
      "hit": false,
      "t": 99428.472,
      "d": 417.85672499999055,
      "v": 57
    },
    {
      "midi": 61,
      "hit": false,
      "t": 99428.472,
      "d": 432.14242499998363,
      "v": 91
    },
    {
      "midi": 54,
      "hit": false,
      "t": 99714.18599999999,
      "d": 935.7133500000054,
      "v": 73
    },
    {
      "midi": 58,
      "hit": false,
      "t": 99999.89999999998,
      "d": 203.57122500000696,
      "v": 71
    },
    {
      "midi": 58,
      "hit": false,
      "t": 100285.61399999999,
      "d": 396.4281750000082,
      "v": 88
    },
    {
      "midi": 66,
      "hit": false,
      "t": 100285.61399999999,
      "d": 439.285275000002,
      "v": 71
    },
    {
      "midi": 65,
      "hit": false,
      "t": 100285.61399999999,
      "d": 442.8567000000039,
      "v": 94
    },
    {
      "midi": 61,
      "hit": false,
      "t": 100285.61399999999,
      "d": 449.99955000000773,
      "v": 97
    },
    {
      "midi": 54,
      "hit": false,
      "t": 100857.042,
      "d": 139.2855750000017,
      "v": 63
    },
    {
      "midi": 58,
      "hit": false,
      "t": 100857.042,
      "d": 239.2854750000115,
      "v": 75
    },
    {
      "midi": 54,
      "hit": false,
      "t": 101142.75600000001,
      "d": 146.42842500000552,
      "v": 76
    },
    {
      "midi": 58,
      "hit": false,
      "t": 101142.75600000001,
      "d": 360.71392500000366,
      "v": 83
    },
    {
      "midi": 65,
      "hit": false,
      "t": 101142.75600000001,
      "d": 403.57102499999746,
      "v": 91
    },
    {
      "midi": 66,
      "hit": false,
      "t": 101142.75600000001,
      "d": 414.2853000000032,
      "v": 73
    },
    {
      "midi": 61,
      "hit": false,
      "t": 101142.75600000001,
      "d": 439.285275000002,
      "v": 97
    },
    {
      "midi": 54,
      "hit": false,
      "t": 101428.47000000002,
      "d": 424.99957499999437,
      "v": 71
    },
    {
      "midi": 58,
      "hit": false,
      "t": 101714.18400000001,
      "d": 210.71407499999623,
      "v": 59
    },
    {
      "midi": 58,
      "hit": false,
      "t": 101999.898,
      "d": 199.99980000000505,
      "v": 86
    },
    {
      "midi": 65,
      "hit": false,
      "t": 101999.898,
      "d": 303.5711250000022,
      "v": 91
    },
    {
      "midi": 61,
      "hit": false,
      "t": 101999.898,
      "d": 439.285275000002,
      "v": 97
    },
    {
      "midi": 66,
      "hit": false,
      "t": 101999.898,
      "d": 482.1423749999958,
      "v": 80
    },
    {
      "midi": 58,
      "hit": false,
      "t": 102571.326,
      "d": 128.57129999999597,
      "v": 55
    },
    {
      "midi": 54,
      "hit": false,
      "t": 102857.04,
      "d": 135.7141499999998,
      "v": 55
    },
    {
      "midi": 51,
      "hit": false,
      "t": 102857.04,
      "d": 153.57127499999478,
      "v": 75
    },
    {
      "midi": 58,
      "hit": false,
      "t": 102857.04,
      "d": 389.2853249999898,
      "v": 81
    },
    {
      "midi": 63,
      "hit": false,
      "t": 102857.04,
      "d": 432.1424249999982,
      "v": 97
    },
    {
      "midi": 60,
      "hit": false,
      "t": 102857.04,
      "d": 439.285275000002,
      "v": 101
    },
    {
      "midi": 66,
      "hit": false,
      "t": 102857.04,
      "d": 467.8566750000027,
      "v": 76
    },
    {
      "midi": 48,
      "hit": false,
      "t": 102857.04,
      "d": 1267.8558750000084,
      "v": 75
    },
    {
      "midi": 51,
      "hit": false,
      "t": 103142.75399999999,
      "d": 107.14274999999907,
      "v": 70
    },
    {
      "midi": 58,
      "hit": false,
      "t": 103428.468,
      "d": 164.2855500000005,
      "v": 59
    },
    {
      "midi": 58,
      "hit": false,
      "t": 103714.182,
      "d": 382.14247500000056,
      "v": 97
    },
    {
      "midi": 63,
      "hit": false,
      "t": 103714.182,
      "d": 399.99959999999555,
      "v": 104
    },
    {
      "midi": 60,
      "hit": false,
      "t": 103714.182,
      "d": 428.5709999999963,
      "v": 104
    },
    {
      "midi": 66,
      "hit": false,
      "t": 103714.182,
      "d": 439.285275000002,
      "v": 87
    },
    {
      "midi": 48,
      "hit": false,
      "t": 104285.61,
      "d": 214.28549999999814,
      "v": 71
    },
    {
      "midi": 58,
      "hit": false,
      "t": 104285.61,
      "d": 217.85692500000005,
      "v": 79
    },
    {
      "midi": 54,
      "hit": false,
      "t": 104571.324,
      "d": 164.2855500000005,
      "v": 71
    },
    {
      "midi": 48,
      "hit": false,
      "t": 104571.324,
      "d": 257.1426000000065,
      "v": 86
    },
    {
      "midi": 58,
      "hit": false,
      "t": 104571.324,
      "d": 446.4281250000058,
      "v": 91
    },
    {
      "midi": 60,
      "hit": false,
      "t": 104571.324,
      "d": 532.142325000008,
      "v": 88
    },
    {
      "midi": 63,
      "hit": false,
      "t": 104571.324,
      "d": 539.2851750000118,
      "v": 86
    },
    {
      "midi": 66,
      "hit": false,
      "t": 104571.324,
      "d": 539.2851750000118,
      "v": 68
    },
    {
      "midi": 54,
      "hit": false,
      "t": 104857.038,
      "d": 153.57127499999478,
      "v": 73
    },
    {
      "midi": 48,
      "hit": false,
      "t": 104857.038,
      "d": 1017.8561250000203,
      "v": 48
    },
    {
      "midi": 58,
      "hit": false,
      "t": 105142.75200000001,
      "d": 171.42840000000433,
      "v": 77
    },
    {
      "midi": 54,
      "hit": false,
      "t": 105142.75200000001,
      "d": 607.1422500000044,
      "v": 57
    },
    {
      "midi": 58,
      "hit": false,
      "t": 105428.46600000001,
      "d": 292.8568499999965,
      "v": 88
    },
    {
      "midi": 63,
      "hit": false,
      "t": 105428.46600000001,
      "d": 410.7138750000013,
      "v": 83
    },
    {
      "midi": 60,
      "hit": false,
      "t": 105428.46600000001,
      "d": 421.428150000007,
      "v": 91
    },
    {
      "midi": 66,
      "hit": false,
      "t": 105428.46600000001,
      "d": 442.8567000000039,
      "v": 76
    },
    {
      "midi": 58,
      "hit": false,
      "t": 105999.89400000001,
      "d": 110.71417500000098,
      "v": 54
    },
    {
      "midi": 53,
      "hit": false,
      "t": 106285.60800000002,
      "d": 199.99980000000505,
      "v": 86
    },
    {
      "midi": 63,
      "hit": false,
      "t": 106285.60800000002,
      "d": 360.71392500000366,
      "v": 94
    },
    {
      "midi": 57,
      "hit": false,
      "t": 106285.60800000002,
      "d": 364.28535000000556,
      "v": 68
    },
    {
      "midi": 60,
      "hit": false,
      "t": 106285.60800000002,
      "d": 399.9996000000101,
      "v": 88
    },
    {
      "midi": 66,
      "hit": false,
      "t": 106285.60800000002,
      "d": 424.9995750000089,
      "v": 73
    },
    {
      "midi": 53,
      "hit": false,
      "t": 106571.32200000003,
      "d": 128.57129999999597,
      "v": 75
    },
    {
      "midi": 53,
      "hit": false,
      "t": 106857.03600000004,
      "d": 178.5712499999936,
      "v": 66
    },
    {
      "midi": 57,
      "hit": false,
      "t": 106857.03600000004,
      "d": 189.28552499999932,
      "v": 59
    },
    {
      "midi": 57,
      "hit": false,
      "t": 107142.75000000003,
      "d": 414.2853000000032,
      "v": 76
    },
    {
      "midi": 53,
      "hit": false,
      "t": 107142.75000000003,
      "d": 428.5709999999963,
      "v": 48
    },
    {
      "midi": 63,
      "hit": false,
      "t": 107142.75000000003,
      "d": 460.7138249999989,
      "v": 97
    },
    {
      "midi": 60,
      "hit": false,
      "t": 107142.75000000003,
      "d": 464.2852500000008,
      "v": 94
    },
    {
      "midi": 66,
      "hit": false,
      "t": 107142.75000000003,
      "d": 542.8565999999992,
      "v": 80
    },
    {
      "midi": 53,
      "hit": false,
      "t": 107714.17800000003,
      "d": 174.99982500000624,
      "v": 66
    },
    {
      "midi": 57,
      "hit": false,
      "t": 107714.17800000003,
      "d": 207.14265000000887,
      "v": 59
    },
    {
      "midi": 53,
      "hit": false,
      "t": 107999.89200000004,
      "d": 153.57127499999478,
      "v": 60
    },
    {
      "midi": 57,
      "hit": false,
      "t": 107999.89200000004,
      "d": 528.5708999999915,
      "v": 80
    },
    {
      "midi": 60,
      "hit": false,
      "t": 107999.89200000004,
      "d": 560.7137249999942,
      "v": 91
    },
    {
      "midi": 63,
      "hit": false,
      "t": 107999.89200000004,
      "d": 560.7137249999942,
      "v": 81
    },
    {
      "midi": 66,
      "hit": false,
      "t": 107999.89200000004,
      "d": 624.9993749999994,
      "v": 83
    },
    {
      "midi": 53,
      "hit": false,
      "t": 108285.60600000003,
      "d": 117.8570250000048,
      "v": 67
    },
    {
      "midi": 57,
      "hit": false,
      "t": 108571.32000000004,
      "d": 92.85705000000598,
      "v": 1
    },
    {
      "midi": 53,
      "hit": false,
      "t": 108571.32000000004,
      "d": 567.856574999998,
      "v": 67
    },
    {
      "midi": 57,
      "hit": false,
      "t": 108857.03400000004,
      "d": 232.14262499999313,
      "v": 83
    },
    {
      "midi": 63,
      "hit": false,
      "t": 108857.03400000004,
      "d": 317.8568249999953,
      "v": 64
    },
    {
      "midi": 60,
      "hit": false,
      "t": 108857.03400000004,
      "d": 342.8567999999941,
      "v": 101
    },
    {
      "midi": 66,
      "hit": false,
      "t": 108857.03400000004,
      "d": 389.2853249999898,
      "v": 87
    },
    {
      "midi": 57,
      "hit": false,
      "t": 109285.60500000004,
      "d": 96.42847499999334,
      "v": 65
    },
    {
      "midi": 53,
      "hit": false,
      "t": 109428.46200000003,
      "d": 189.28552499999932,
      "v": 67
    },
    {
      "midi": 53,
      "hit": false,
      "t": 109714.17600000002,
      "d": 146.42842500000552,
      "v": 73
    },
    {
      "midi": 65,
      "hit": false,
      "t": 109714.17600000002,
      "d": 624.9993749999994,
      "v": 88
    },
    {
      "midi": 61,
      "hit": false,
      "t": 109714.17600000002,
      "d": 696.427874999994,
      "v": 101
    },
    {
      "midi": 58,
      "hit": false,
      "t": 109714.17600000002,
      "d": 710.713574999987,
      "v": 104
    },
    {
      "midi": 46,
      "hit": false,
      "t": 109714.17600000002,
      "d": 1239.284474999993,
      "v": 73
    },
    {
      "midi": 53,
      "hit": false,
      "t": 109999.89000000003,
      "d": 103.57132499999716,
      "v": 62
    },
    {
      "midi": 53,
      "hit": false,
      "t": 110285.60400000002,
      "d": 617.8565249999956,
      "v": 77
    },
    {
      "midi": 58,
      "hit": false,
      "t": 110571.31800000001,
      "d": 774.9992250000068,
      "v": 97
    },
    {
      "midi": 65,
      "hit": false,
      "t": 110571.31800000001,
      "d": 828.5706000000064,
      "v": 94
    },
    {
      "midi": 61,
      "hit": false,
      "t": 110571.31800000001,
      "d": 853.5705750000052,
      "v": 88
    },
    {
      "midi": 53,
      "hit": false,
      "t": 111142.74600000001,
      "d": 164.2855500000005,
      "v": 73
    },
    {
      "midi": 46,
      "hit": false,
      "t": 111142.74600000001,
      "d": 214.2855000000127,
      "v": 79
    },
    {
      "midi": 53,
      "hit": false,
      "t": 111428.46000000002,
      "d": 160.7141249999986,
      "v": 64
    },
    {
      "midi": 46,
      "hit": false,
      "t": 111428.46000000002,
      "d": 235.71404999999504,
      "v": 79
    },
    {
      "midi": 58,
      "hit": false,
      "t": 111428.46000000002,
      "d": 724.9992749999947,
      "v": 81
    },
    {
      "midi": 61,
      "hit": false,
      "t": 111428.46000000002,
      "d": 728.5706999999966,
      "v": 83
    },
    {
      "midi": 65,
      "hit": false,
      "t": 111428.46000000002,
      "d": 732.1421249999985,
      "v": 75
    },
    {
      "midi": 53,
      "hit": false,
      "t": 111714.17400000001,
      "d": 92.85705000000598,
      "v": 71
    },
    {
      "midi": 46,
      "hit": false,
      "t": 111714.17400000001,
      "d": 878.570550000004,
      "v": 68
    },
    {
      "midi": 53,
      "hit": false,
      "t": 111999.88800000002,
      "d": 564.2851499999961,
      "v": 75
    },
    {
      "midi": 58,
      "hit": false,
      "t": 112285.60200000001,
      "d": 407.14244999999937,
      "v": 97
    },
    {
      "midi": 65,
      "hit": false,
      "t": 112285.60200000001,
      "d": 449.9995499999932,
      "v": 104
    },
    {
      "midi": 61,
      "hit": false,
      "t": 112285.60200000001,
      "d": 467.8566749999882,
      "v": 104
    },
    {
      "midi": 53,
      "hit": false,
      "t": 112857.03,
      "d": 160.7141249999986,
      "v": 73
    },
    {
      "midi": 58,
      "hit": false,
      "t": 112857.03,
      "d": 185.71409999999742,
      "v": 75
    },
    {
      "midi": 46,
      "hit": false,
      "t": 112857.03,
      "d": 239.28547499999695,
      "v": 91
    },
    {
      "midi": 54,
      "hit": false,
      "t": 113142.74399999999,
      "d": 174.99982500000624,
      "v": 71
    },
    {
      "midi": 58,
      "hit": false,
      "t": 113142.74399999999,
      "d": 439.28527500001655,
      "v": 97
    },
    {
      "midi": 61,
      "hit": false,
      "t": 113142.74399999999,
      "d": 517.8566250000149,
      "v": 91
    },
    {
      "midi": 66,
      "hit": false,
      "t": 113142.74399999999,
      "d": 546.4280250000156,
      "v": 80
    },
    {
      "midi": 54,
      "hit": false,
      "t": 113428.458,
      "d": 146.42842500000552,
      "v": 65
    },
    {
      "midi": 58,
      "hit": false,
      "t": 113714.172,
      "d": 185.71409999999742,
      "v": 66
    },
    {
      "midi": 54,
      "hit": false,
      "t": 113714.172,
      "d": 678.5707499999844,
      "v": 47
    },
    {
      "midi": 58,
      "hit": false,
      "t": 113999.886,
      "d": 378.57104999999865,
      "v": 91
    },
    {
      "midi": 61,
      "hit": false,
      "t": 113999.886,
      "d": 489.2852249999851,
      "v": 91
    },
    {
      "midi": 66,
      "hit": false,
      "t": 113999.886,
      "d": 507.14234999998007,
      "v": 80
    },
    {
      "midi": 61,
      "hit": false,
      "t": 114571.31399999998,
      "d": 146.42842500000552,
      "v": 50
    },
    {
      "midi": 54,
      "hit": false,
      "t": 114571.31399999998,
      "d": 167.85697500000242,
      "v": 65
    },
    {
      "midi": 58,
      "hit": false,
      "t": 114571.31399999998,
      "d": 253.5711750000046,
      "v": 71
    },
    {
      "midi": 54,
      "hit": false,
      "t": 114857.02799999999,
      "d": 146.42842500000552,
      "v": 63
    },
    {
      "midi": 58,
      "hit": false,
      "t": 114857.02799999999,
      "d": 721.4278499999928,
      "v": 88
    },
    {
      "midi": 61,
      "hit": false,
      "t": 114857.02799999999,
      "d": 721.4278499999928,
      "v": 94
    },
    {
      "midi": 66,
      "hit": false,
      "t": 114857.02799999999,
      "d": 746.4278249999916,
      "v": 63
    },
    {
      "midi": 54,
      "hit": false,
      "t": 115142.742,
      "d": 149.99984999999288,
      "v": 61
    },
    {
      "midi": 54,
      "hit": false,
      "t": 115428.45599999999,
      "d": 503.5709249999927,
      "v": 65
    },
    {
      "midi": 58,
      "hit": false,
      "t": 115714.16999999998,
      "d": 385.71390000000247,
      "v": 91
    },
    {
      "midi": 61,
      "hit": false,
      "t": 115714.16999999998,
      "d": 482.1423749999958,
      "v": 88
    },
    {
      "midi": 66,
      "hit": false,
      "t": 115714.16999999998,
      "d": 539.2851749999973,
      "v": 83
    },
    {
      "midi": 58,
      "hit": false,
      "t": 116285.59799999998,
      "d": 117.8570250000048,
      "v": 67
    },
    {
      "midi": 51,
      "hit": false,
      "t": 116571.31199999999,
      "d": 160.71412500001315,
      "v": 63
    },
    {
      "midi": 56,
      "hit": false,
      "t": 116571.31199999999,
      "d": 192.8569500000158,
      "v": 71
    },
    {
      "midi": 58,
      "hit": false,
      "t": 116571.31199999999,
      "d": 439.285275000002,
      "v": 75
    },
    {
      "midi": 63,
      "hit": false,
      "t": 116571.31199999999,
      "d": 439.285275000002,
      "v": 81
    },
    {
      "midi": 60,
      "hit": false,
      "t": 116571.31199999999,
      "d": 442.8567000000039,
      "v": 66
    },
    {
      "midi": 44,
      "hit": false,
      "t": 116571.31199999999,
      "d": 1299.998700000011,
      "v": 81
    },
    {
      "midi": 51,
      "hit": false,
      "t": 116857.026,
      "d": 128.57129999999597,
      "v": 52
    },
    {
      "midi": 56,
      "hit": false,
      "t": 116857.026,
      "d": 174.9998249999917,
      "v": 55
    },
    {
      "midi": 51,
      "hit": false,
      "t": 117142.73999999999,
      "d": 135.7141499999998,
      "v": 64
    },
    {
      "midi": 56,
      "hit": false,
      "t": 117142.73999999999,
      "d": 203.57122500000696,
      "v": 59
    },
    {
      "midi": 56,
      "hit": false,
      "t": 117428.454,
      "d": 374.99962499999674,
      "v": 70
    },
    {
      "midi": 51,
      "hit": false,
      "t": 117428.454,
      "d": 417.8567250000051,
      "v": 77
    },
    {
      "midi": 63,
      "hit": false,
      "t": 117428.454,
      "d": 485.7137999999977,
      "v": 86
    },
    {
      "midi": 58,
      "hit": false,
      "t": 117428.454,
      "d": 496.42807500000345,
      "v": 77
    },
    {
      "midi": 60,
      "hit": false,
      "t": 117428.454,
      "d": 507.1423500000092,
      "v": 71
    },
    {
      "midi": 51,
      "hit": false,
      "t": 117999.88200000001,
      "d": 160.7141249999986,
      "v": 66
    },
    {
      "midi": 44,
      "hit": false,
      "t": 117999.88200000001,
      "d": 221.4283499999874,
      "v": 63
    },
    {
      "midi": 56,
      "hit": false,
      "t": 117999.88200000001,
      "d": 739.2849749999878,
      "v": 59
    },
    {
      "midi": 51,
      "hit": false,
      "t": 118285.596,
      "d": 132.14272499999788,
      "v": 59
    },
    {
      "midi": 58,
      "hit": false,
      "t": 118285.596,
      "d": 517.8566250000003,
      "v": 77
    },
    {
      "midi": 60,
      "hit": false,
      "t": 118285.596,
      "d": 521.4280500000023,
      "v": 71
    },
    {
      "midi": 63,
      "hit": false,
      "t": 118285.596,
      "d": 546.4280250000011,
      "v": 86
    },
    {
      "midi": 44,
      "hit": false,
      "t": 118285.596,
      "d": 1299.9987000000256,
      "v": 71
    },
    {
      "midi": 51,
      "hit": false,
      "t": 118571.31,
      "d": 107.14274999999907,
      "v": 60
    },
    {
      "midi": 56,
      "hit": false,
      "t": 118857.024,
      "d": 221.42835000000196,
      "v": 59
    },
    {
      "midi": 51,
      "hit": false,
      "t": 118857.024,
      "d": 724.9992750000238,
      "v": 73
    },
    {
      "midi": 56,
      "hit": false,
      "t": 119142.73800000001,
      "d": 364.28535000000556,
      "v": 75
    },
    {
      "midi": 63,
      "hit": false,
      "t": 119142.73800000001,
      "d": 428.5710000000108,
      "v": 94
    },
    {
      "midi": 58,
      "hit": false,
      "t": 119142.73800000001,
      "d": 449.9995500000223,
      "v": 79
    },
    {
      "midi": 60,
      "hit": false,
      "t": 119142.73800000001,
      "d": 467.8566750000173,
      "v": 77
    },
    {
      "midi": 56,
      "hit": false,
      "t": 119714.16600000003,
      "d": 210.71407499999623,
      "v": 53
    },
    {
      "midi": 51,
      "hit": false,
      "t": 119714.16600000003,
      "d": 224.9997749999893,
      "v": 79
    },
    {
      "midi": 51,
      "hit": false,
      "t": 119999.88000000002,
      "d": 142.8570000000036,
      "v": 63
    },
    {
      "midi": 44,
      "hit": false,
      "t": 119999.88000000002,
      "d": 185.71410000001197,
      "v": 75
    },
    {
      "midi": 56,
      "hit": false,
      "t": 119999.88000000002,
      "d": 414.2853000000323,
      "v": 64
    },
    {
      "midi": 60,
      "hit": false,
      "t": 119999.88000000002,
      "d": 503.57092500003637,
      "v": 71
    },
    {
      "midi": 58,
      "hit": false,
      "t": 119999.88000000002,
      "d": 510.7137750000402,
      "v": 79
    },
    {
      "midi": 63,
      "hit": false,
      "t": 119999.88000000002,
      "d": 521.4280500000459,
      "v": 79
    },
    {
      "midi": 51,
      "hit": false,
      "t": 120285.59400000004,
      "d": 117.8570250000048,
      "v": 62
    },
    {
      "midi": 44,
      "hit": false,
      "t": 120285.59400000004,
      "d": 1307.1415500000294,
      "v": 73
    },
    {
      "midi": 51,
      "hit": false,
      "t": 120571.30800000006,
      "d": 117.8570250000048,
      "v": 73
    },
    {
      "midi": 56,
      "hit": false,
      "t": 120571.30800000006,
      "d": 232.14262500000768,
      "v": 51
    },
    {
      "midi": 51,
      "hit": false,
      "t": 120857.02200000007,
      "d": 410.7138750000013,
      "v": 71
    },
    {
      "midi": 56,
      "hit": false,
      "t": 120857.02200000007,
      "d": 414.2853000000032,
      "v": 68
    },
    {
      "midi": 58,
      "hit": false,
      "t": 120857.02200000007,
      "d": 728.5706999999966,
      "v": 83
    },
    {
      "midi": 63,
      "hit": false,
      "t": 120857.02200000007,
      "d": 753.5706749999954,
      "v": 83
    },
    {
      "midi": 60,
      "hit": false,
      "t": 120857.02200000007,
      "d": 771.4278000000049,
      "v": 77
    },
    {
      "midi": 51,
      "hit": false,
      "t": 121428.45000000007,
      "d": 149.99984999999288,
      "v": 68
    },
    {
      "midi": 56,
      "hit": false,
      "t": 121428.45000000007,
      "d": 249.99975000000268,
      "v": 58
    },
    {
      "midi": 51,
      "hit": false,
      "t": 121714.16400000008,
      "d": 132.14272499999788,
      "v": 75
    },
    {
      "midi": 56,
      "hit": false,
      "t": 121714.16400000008,
      "d": 692.8564500000211,
      "v": 73
    },
    {
      "midi": 63,
      "hit": false,
      "t": 121714.16400000008,
      "d": 692.8564500000211,
      "v": 79
    },
    {
      "midi": 60,
      "hit": false,
      "t": 121714.16400000008,
      "d": 739.2849750000169,
      "v": 83
    },
    {
      "midi": 44,
      "hit": false,
      "t": 121714.16400000008,
      "d": 899.9991000000155,
      "v": 86
    },
    {
      "midi": 51,
      "hit": false,
      "t": 121999.87800000008,
      "d": 110.71417500000098,
      "v": 68
    },
    {
      "midi": 51,
      "hit": false,
      "t": 122285.59200000009,
      "d": 382.14247500000056,
      "v": 79
    },
    {
      "midi": 56,
      "hit": false,
      "t": 122571.3060000001,
      "d": 167.85697499998787,
      "v": 73
    },
    {
      "midi": 60,
      "hit": false,
      "t": 122571.3060000001,
      "d": 228.57119999999122,
      "v": 71
    },
    {
      "midi": 63,
      "hit": false,
      "t": 122571.3060000001,
      "d": 264.28544999999576,
      "v": 86
    },
    {
      "midi": 56,
      "hit": false,
      "t": 123428.44800000009,
      "d": 182.1426749999955,
      "v": 71
    },
    {
      "midi": 61,
      "hit": false,
      "t": 123428.44800000009,
      "d": 396.42817499999364,
      "v": 68
    },
    {
      "midi": 63,
      "hit": false,
      "t": 123428.44800000009,
      "d": 457.142399999997,
      "v": 73
    },
    {
      "midi": 68,
      "hit": false,
      "t": 123428.44800000009,
      "d": 478.5709499999939,
      "v": 83
    },
    {
      "midi": 65,
      "hit": false,
      "t": 123428.44800000009,
      "d": 507.1423499999946,
      "v": 77
    },
    {
      "midi": 49,
      "hit": false,
      "t": 123428.44800000009,
      "d": 1232.1416249999893,
      "v": 79
    },
    {
      "midi": 56,
      "hit": false,
      "t": 123714.16200000008,
      "d": 117.8570250000048,
      "v": 57
    },
    {
      "midi": 61,
      "hit": false,
      "t": 123999.87600000009,
      "d": 182.1426749999955,
      "v": 59
    },
    {
      "midi": 56,
      "hit": false,
      "t": 123999.87600000009,
      "d": 646.4279249999963,
      "v": 64
    },
    {
      "midi": 61,
      "hit": false,
      "t": 124285.59000000008,
      "d": 321.4282499999972,
      "v": 64
    },
    {
      "midi": 63,
      "hit": false,
      "t": 124285.59000000008,
      "d": 471.4280999999901,
      "v": 79
    },
    {
      "midi": 68,
      "hit": false,
      "t": 124285.59000000008,
      "d": 474.999524999992,
      "v": 81
    },
    {
      "midi": 65,
      "hit": false,
      "t": 124285.59000000008,
      "d": 482.1423749999958,
      "v": 79
    },
    {
      "midi": 56,
      "hit": false,
      "t": 124857.01800000008,
      "d": 199.99980000000505,
      "v": 64
    },
    {
      "midi": 49,
      "hit": false,
      "t": 124857.01800000008,
      "d": 203.57122500000696,
      "v": 75
    },
    {
      "midi": 61,
      "hit": false,
      "t": 124857.01800000008,
      "d": 689.2850250000047,
      "v": 52
    },
    {
      "midi": 56,
      "hit": false,
      "t": 125142.73200000009,
      "d": 135.7141499999998,
      "v": 57
    },
    {
      "midi": 49,
      "hit": false,
      "t": 125142.73200000009,
      "d": 182.1426749999955,
      "v": 73
    },
    {
      "midi": 63,
      "hit": false,
      "t": 125142.73200000009,
      "d": 546.4280250000011,
      "v": 81
    },
    {
      "midi": 65,
      "hit": false,
      "t": 125142.73200000009,
      "d": 560.7137249999942,
      "v": 77
    },
    {
      "midi": 68,
      "hit": false,
      "t": 125142.73200000009,
      "d": 567.856574999998,
      "v": 88
    },
    {
      "midi": 49,
      "hit": false,
      "t": 125428.44600000008,
      "d": 967.8561750000081,
      "v": 73
    },
    {
      "midi": 56,
      "hit": false,
      "t": 125714.16000000009,
      "d": 153.57127499999478,
      "v": 60
    },
    {
      "midi": 61,
      "hit": false,
      "t": 125714.16000000009,
      "d": 207.14264999999432,
      "v": 59
    },
    {
      "midi": 61,
      "hit": false,
      "t": 125999.87400000008,
      "d": 364.28535000000556,
      "v": 68
    },
    {
      "midi": 56,
      "hit": false,
      "t": 125999.87400000008,
      "d": 410.7138750000013,
      "v": 64
    },
    {
      "midi": 68,
      "hit": false,
      "t": 125999.87400000008,
      "d": 464.2852500000008,
      "v": 79
    },
    {
      "midi": 65,
      "hit": false,
      "t": 125999.87400000008,
      "d": 499.99950000000536,
      "v": 71
    },
    {
      "midi": 63,
      "hit": false,
      "t": 125999.87400000008,
      "d": 510.7137750000111,
      "v": 75
    },
    {
      "midi": 49,
      "hit": false,
      "t": 126571.3020000001,
      "d": 164.2855500000005,
      "v": 71
    },
    {
      "midi": 56,
      "hit": false,
      "t": 126571.3020000001,
      "d": 167.85697500000242,
      "v": 60
    },
    {
      "midi": 61,
      "hit": false,
      "t": 126571.3020000001,
      "d": 239.2854750000115,
      "v": 70
    },
    {
      "midi": 56,
      "hit": false,
      "t": 126857.01600000012,
      "d": 107.14274999999907,
      "v": 64
    },
    {
      "midi": 49,
      "hit": false,
      "t": 126857.01600000012,
      "d": 149.99984999999288,
      "v": 83
    },
    {
      "midi": 68,
      "hit": false,
      "t": 126857.01600000012,
      "d": 171.42840000000433,
      "v": 88
    },
    {
      "midi": 61,
      "hit": false,
      "t": 126857.01600000012,
      "d": 203.57122500000696,
      "v": 73
    },
    {
      "midi": 63,
      "hit": false,
      "t": 126857.01600000012,
      "d": 732.1421249999985,
      "v": 77
    },
    {
      "midi": 65,
      "hit": false,
      "t": 126857.01600000012,
      "d": 742.8564000000042,
      "v": 79
    },
    {
      "midi": 56,
      "hit": false,
      "t": 127142.73000000013,
      "d": 103.57132499999716,
      "v": 55
    },
    {
      "midi": 61,
      "hit": false,
      "t": 127142.73000000013,
      "d": 482.1423749999958,
      "v": 49
    },
    {
      "midi": 68,
      "hit": false,
      "t": 127142.73000000013,
      "d": 492.85665000000154,
      "v": 44
    },
    {
      "midi": 49,
      "hit": false,
      "t": 127142.73000000013,
      "d": 1046.4275250000064,
      "v": 79
    },
    {
      "midi": 56,
      "hit": false,
      "t": 127428.44400000012,
      "d": 135.7141499999998,
      "v": 57
    },
    {
      "midi": 56,
      "hit": false,
      "t": 127714.15800000013,
      "d": 392.8567500000063,
      "v": 64
    },
    {
      "midi": 61,
      "hit": false,
      "t": 127714.15800000013,
      "d": 464.2852500000008,
      "v": 75
    },
    {
      "midi": 63,
      "hit": false,
      "t": 127714.15800000013,
      "d": 564.2851500000106,
      "v": 77
    },
    {
      "midi": 68,
      "hit": false,
      "t": 127714.15800000013,
      "d": 832.1420250000083,
      "v": 83
    },
    {
      "midi": 65,
      "hit": false,
      "t": 127714.15800000013,
      "d": 857.1420000000071,
      "v": 73
    },
    {
      "midi": 56,
      "hit": false,
      "t": 128285.58600000014,
      "d": 164.2855500000005,
      "v": 64
    },
    {
      "midi": 49,
      "hit": false,
      "t": 128285.58600000014,
      "d": 228.57119999999122,
      "v": 59
    },
    {
      "midi": 61,
      "hit": false,
      "t": 128285.58600000014,
      "d": 264.28544999999576,
      "v": 54
    },
    {
      "midi": 56,
      "hit": false,
      "t": 128571.30000000013,
      "d": 374.99962499999674,
      "v": 67
    },
    {
      "midi": 61,
      "hit": false,
      "t": 128571.30000000013,
      "d": 449.9995499999932,
      "v": 86
    },
    {
      "midi": 68,
      "hit": false,
      "t": 128571.30000000013,
      "d": 535.7137499999953,
      "v": 88
    },
    {
      "midi": 65,
      "hit": false,
      "t": 128571.30000000013,
      "d": 546.4280250000011,
      "v": 88
    },
    {
      "midi": 49,
      "hit": false,
      "t": 128571.30000000013,
      "d": 1214.2844999999797,
      "v": 79
    },
    {
      "midi": 56,
      "hit": false,
      "t": 129142.72800000013,
      "d": 135.7141499999998,
      "v": 68
    },
    {
      "midi": 61,
      "hit": false,
      "t": 129142.72800000013,
      "d": 214.28549999999814,
      "v": 63
    },
    {
      "midi": 61,
      "hit": false,
      "t": 129428.44200000013,
      "d": 185.71409999999742,
      "v": 83
    },
    {
      "midi": 56,
      "hit": false,
      "t": 129428.44200000013,
      "d": 242.85689999999886,
      "v": 81
    },
    {
      "midi": 68,
      "hit": false,
      "t": 129428.44200000013,
      "d": 489.2852249999851,
      "v": 97
    },
    {
      "midi": 65,
      "hit": false,
      "t": 129428.44200000013,
      "d": 567.8565749999834,
      "v": 94
    },
    {
      "midi": 61,
      "hit": false,
      "t": 129714.15600000012,
      "d": 267.8568749999977,
      "v": 83
    },
    {
      "midi": 56,
      "hit": false,
      "t": 129999.87000000011,
      "d": 253.5711750000046,
      "v": 73
    },
    {
      "midi": 58,
      "hit": false,
      "t": 130285.58400000012,
      "d": 139.2855750000017,
      "v": 88
    },
    {
      "midi": 51,
      "hit": false,
      "t": 130285.58400000012,
      "d": 149.99985000000743,
      "v": 75
    },
    {
      "midi": 56,
      "hit": false,
      "t": 130285.58400000012,
      "d": 449.99955000000773,
      "v": 79
    },
    {
      "midi": 63,
      "hit": false,
      "t": 130285.58400000012,
      "d": 721.4278500000219,
      "v": 83
    },
    {
      "midi": 60,
      "hit": false,
      "t": 130285.58400000012,
      "d": 767.8563750000176,
      "v": 86
    },
    {
      "midi": 44,
      "hit": false,
      "t": 130285.58400000012,
      "d": 1292.8558500000217,
      "v": 94
    },
    {
      "midi": 51,
      "hit": false,
      "t": 130571.29800000013,
      "d": 110.71417500000098,
      "v": 63
    },
    {
      "midi": 51,
      "hit": false,
      "t": 130857.01200000013,
      "d": 110.71417500000098,
      "v": 88
    },
    {
      "midi": 56,
      "hit": false,
      "t": 130857.01200000013,
      "d": 207.14265000000887,
      "v": 53
    },
    {
      "midi": 51,
      "hit": false,
      "t": 131142.72600000014,
      "d": 442.8567000000039,
      "v": 71
    },
    {
      "midi": 56,
      "hit": false,
      "t": 131142.72600000014,
      "d": 453.57097500000964,
      "v": 81
    },
    {
      "midi": 63,
      "hit": false,
      "t": 131142.72600000014,
      "d": 507.1423500000092,
      "v": 97
    },
    {
      "midi": 60,
      "hit": false,
      "t": 131142.72600000014,
      "d": 528.5709000000206,
      "v": 86
    },
    {
      "midi": 51,
      "hit": false,
      "t": 131714.15400000016,
      "d": 182.14267500001006,
      "v": 67
    },
    {
      "midi": 44,
      "hit": false,
      "t": 131714.15400000016,
      "d": 199.9998000000196,
      "v": 60
    },
    {
      "midi": 56,
      "hit": false,
      "t": 131714.15400000016,
      "d": 939.2847750000365,
      "v": 68
    },
    {
      "midi": 51,
      "hit": false,
      "t": 131999.86800000016,
      "d": 132.14272500001243,
      "v": 62
    },
    {
      "midi": 63,
      "hit": false,
      "t": 131999.86800000016,
      "d": 635.7136500000197,
      "v": 88
    },
    {
      "midi": 60,
      "hit": false,
      "t": 131999.86800000016,
      "d": 721.4278500000364,
      "v": 81
    },
    {
      "midi": 44,
      "hit": false,
      "t": 131999.86800000016,
      "d": 1442.8557000000728,
      "v": 83
    },
    {
      "midi": 51,
      "hit": false,
      "t": 132285.5820000002,
      "d": 89.28562499998952,
      "v": 57
    },
    {
      "midi": 51,
      "hit": false,
      "t": 132571.29600000018,
      "d": 614.2851000000373,
      "v": 75
    },
    {
      "midi": 56,
      "hit": false,
      "t": 132857.0100000002,
      "d": 185.71410000001197,
      "v": 77
    },
    {
      "midi": 63,
      "hit": false,
      "t": 132857.0100000002,
      "d": 699.999300000025,
      "v": 88
    },
    {
      "midi": 60,
      "hit": false,
      "t": 132857.0100000002,
      "d": 767.856375000003,
      "v": 75
    },
    {
      "midi": 56,
      "hit": false,
      "t": 133142.72400000022,
      "d": 446.4281250000058,
      "v": 61
    },
    {
      "midi": 51,
      "hit": false,
      "t": 133428.43800000023,
      "d": 421.42814999999246,
      "v": 79
    },
    {
      "midi": 63,
      "hit": false,
      "t": 133714.1520000002,
      "d": 721.4278500000073,
      "v": 86
    },
    {
      "midi": 56,
      "hit": false,
      "t": 133714.1520000002,
      "d": 753.5706749999954,
      "v": 66
    },
    {
      "midi": 60,
      "hit": false,
      "t": 133714.1520000002,
      "d": 771.4278000000049,
      "v": 73
    },
    {
      "midi": 44,
      "hit": false,
      "t": 133714.1520000002,
      "d": 1599.9984000000113,
      "v": 75
    },
    {
      "midi": 51,
      "hit": false,
      "t": 133999.8660000002,
      "d": 99.99989999999525,
      "v": 61
    },
    {
      "midi": 51,
      "hit": false,
      "t": 134285.58000000022,
      "d": 99.99989999999525,
      "v": 77
    },
    {
      "midi": 51,
      "hit": false,
      "t": 134571.2940000002,
      "d": 385.71390000000247,
      "v": 75
    },
    {
      "midi": 56,
      "hit": false,
      "t": 134571.2940000002,
      "d": 424.99957500002347,
      "v": 67
    },
    {
      "midi": 60,
      "hit": false,
      "t": 134571.2940000002,
      "d": 517.8566250000149,
      "v": 79
    },
    {
      "midi": 63,
      "hit": false,
      "t": 134571.2940000002,
      "d": 528.5709000000206,
      "v": 81
    },
    {
      "midi": 51,
      "hit": false,
      "t": 135142.7220000002,
      "d": 185.71410000001197,
      "v": 62
    },
    {
      "midi": 56,
      "hit": false,
      "t": 135142.7220000002,
      "d": 253.57117500001914,
      "v": 68
    },
    {
      "midi": 51,
      "hit": false,
      "t": 135428.43600000022,
      "d": 78.5713500000129,
      "v": 51
    },
    {
      "midi": 56,
      "hit": false,
      "t": 135428.43600000022,
      "d": 610.7136750000063,
      "v": 77
    },
    {
      "midi": 63,
      "hit": false,
      "t": 135428.43600000022,
      "d": 639.2850749999925,
      "v": 81
    },
    {
      "midi": 60,
      "hit": false,
      "t": 135428.43600000022,
      "d": 724.9992749999801,
      "v": 86
    },
    {
      "midi": 44,
      "hit": false,
      "t": 135428.43600000022,
      "d": 928.5705000000016,
      "v": 81
    },
    {
      "midi": 51,
      "hit": false,
      "t": 135714.15000000023,
      "d": 103.57132499999716,
      "v": 67
    },
    {
      "midi": 51,
      "hit": false,
      "t": 135999.86400000023,
      "d": 385.71389999997336,
      "v": 86
    },
    {
      "midi": 56,
      "hit": false,
      "t": 136285.5780000002,
      "d": 157.1426999999967,
      "v": 83
    },
    {
      "midi": 63,
      "hit": false,
      "t": 136285.5780000002,
      "d": 267.8568749999977,
      "v": 97
    },
    {
      "midi": 60,
      "hit": false,
      "t": 136285.5780000002,
      "d": 271.4282999999996,
      "v": 94
    },
    {
      "midi": 56,
      "hit": false,
      "t": 136571.29200000022,
      "d": 135.71415000001434,
      "v": 77
    },
    {
      "midi": 56,
      "hit": false,
      "t": 136857.00600000023,
      "d": 196.4283749999886,
      "v": 81
    },
    {
      "midi": 56,
      "hit": false,
      "t": 137142.7200000002,
      "d": 128.57129999998142,
      "v": 53
    },
    {
      "midi": 63,
      "hit": false,
      "t": 137142.7200000002,
      "d": 335.71394999997574,
      "v": 71
    },
    {
      "midi": 61,
      "hit": false,
      "t": 137142.7200000002,
      "d": 746.4278249999625,
      "v": 86
    },
    {
      "midi": 68,
      "hit": false,
      "t": 137142.7200000002,
      "d": 749.9992499999644,
      "v": 91
    },
    {
      "midi": 65,
      "hit": false,
      "t": 137142.7200000002,
      "d": 803.5706249999639,
      "v": 86
    },
    {
      "midi": 49,
      "hit": false,
      "t": 137142.7200000002,
      "d": 1578.5698499999417,
      "v": 71
    },
    {
      "midi": 56,
      "hit": false,
      "t": 137428.43400000018,
      "d": 139.28557499998715,
      "v": 54
    },
    {
      "midi": 56,
      "hit": false,
      "t": 137714.14800000016,
      "d": 674.9993250000116,
      "v": 73
    },
    {
      "midi": 61,
      "hit": false,
      "t": 137999.86200000017,
      "d": 428.5709999999963,
      "v": 86
    },
    {
      "midi": 68,
      "hit": false,
      "t": 137999.86200000017,
      "d": 467.8566749999882,
      "v": 101
    },
    {
      "midi": 65,
      "hit": false,
      "t": 137999.86200000017,
      "d": 539.2851749999973,
      "v": 88
    },
    {
      "midi": 68,
      "hit": false,
      "t": 138571.29000000015,
      "d": 107.14274999999907,
      "v": 64
    },
    {
      "midi": 65,
      "hit": false,
      "t": 138571.29000000015,
      "d": 203.5712249999924,
      "v": 51
    },
    {
      "midi": 61,
      "hit": false,
      "t": 138571.29000000015,
      "d": 257.14259999999194,
      "v": 67
    },
    {
      "midi": 56,
      "hit": false,
      "t": 138571.29000000015,
      "d": 407.1424499999848,
      "v": 63
    },
    {
      "midi": 61,
      "hit": false,
      "t": 138857.00400000013,
      "d": 349.9996500000125,
      "v": 77
    },
    {
      "midi": 68,
      "hit": false,
      "t": 138857.00400000013,
      "d": 442.8567000000039,
      "v": 91
    },
    {
      "midi": 65,
      "hit": false,
      "t": 138857.00400000013,
      "d": 485.7137999999977,
      "v": 81
    },
    {
      "midi": 49,
      "hit": false,
      "t": 138857.00400000013,
      "d": 1496.427074999985,
      "v": 86
    },
    {
      "midi": 56,
      "hit": false,
      "t": 139142.71800000014,
      "d": 696.4278749999648,
      "v": 66
    },
    {
      "midi": 61,
      "hit": false,
      "t": 139428.43200000012,
      "d": 196.4283749999886,
      "v": 59
    },
    {
      "midi": 61,
      "hit": false,
      "t": 139714.1460000001,
      "d": 449.99955000000773,
      "v": 81
    },
    {
      "midi": 68,
      "hit": false,
      "t": 139714.1460000001,
      "d": 492.85665000000154,
      "v": 97
    },
    {
      "midi": 65,
      "hit": false,
      "t": 139714.1460000001,
      "d": 782.1420750000398,
      "v": 86
    },
    {
      "midi": 56,
      "hit": false,
      "t": 139999.8600000001,
      "d": 478.570950000023,
      "v": 57
    },
    {
      "midi": 63,
      "hit": false,
      "t": 140285.5740000001,
      "d": 114.28560000000289,
      "v": 59
    },
    {
      "midi": 68,
      "hit": false,
      "t": 140285.5740000001,
      "d": 167.85697500000242,
      "v": 52
    },
    {
      "midi": 61,
      "hit": false,
      "t": 140285.5740000001,
      "d": 974.9990249999973,
      "v": 54
    },
    {
      "midi": 56,
      "hit": false,
      "t": 140571.28800000015,
      "d": 160.7141249999986,
      "v": 68
    },
    {
      "midi": 49,
      "hit": false,
      "t": 140571.28800000015,
      "d": 199.9997999999905,
      "v": 83
    },
    {
      "midi": 63,
      "hit": false,
      "t": 140571.28800000015,
      "d": 299.99969999998575,
      "v": 81
    },
    {
      "midi": 68,
      "hit": false,
      "t": 140571.28800000015,
      "d": 653.570774999971,
      "v": 81
    },
    {
      "midi": 65,
      "hit": false,
      "t": 140571.28800000015,
      "d": 703.5707249999687,
      "v": 75
    },
    {
      "midi": 56,
      "hit": false,
      "t": 140857.00200000012,
      "d": 103.57132499999716,
      "v": 59
    },
    {
      "midi": 49,
      "hit": false,
      "t": 140857.00200000012,
      "d": 1314.284399999975,
      "v": 91
    },
    {
      "midi": 56,
      "hit": false,
      "t": 141142.71600000013,
      "d": 482.1423749999667,
      "v": 68
    },
    {
      "midi": 61,
      "hit": false,
      "t": 141428.4300000001,
      "d": 424.99957499999437,
      "v": 86
    },
    {
      "midi": 68,
      "hit": false,
      "t": 141428.4300000001,
      "d": 764.2849500000011,
      "v": 97
    },
    {
      "midi": 65,
      "hit": false,
      "t": 141428.4300000001,
      "d": 817.8563250000007,
      "v": 94
    },
    {
      "midi": 56,
      "hit": false,
      "t": 141999.8580000001,
      "d": 232.14262500000768,
      "v": 64
    },
    {
      "midi": 61,
      "hit": false,
      "t": 141999.8580000001,
      "d": 235.7140500000096,
      "v": 64
    },
    {
      "midi": 56,
      "hit": false,
      "t": 142285.5720000001,
      "d": 67.85707500000717,
      "v": 44
    },
    {
      "midi": 61,
      "hit": false,
      "t": 142285.5720000001,
      "d": 410.71387500001583,
      "v": 79
    },
    {
      "midi": 68,
      "hit": false,
      "t": 142285.5720000001,
      "d": 517.8566250000149,
      "v": 91
    },
    {
      "midi": 65,
      "hit": false,
      "t": 142285.5720000001,
      "d": 582.1422750000202,
      "v": 79
    },
    {
      "midi": 49,
      "hit": false,
      "t": 142285.5720000001,
      "d": 907.1419500000193,
      "v": 91
    },
    {
      "midi": 56,
      "hit": false,
      "t": 142571.2860000001,
      "d": 435.7138500000001,
      "v": 60
    },
    {
      "midi": 61,
      "hit": false,
      "t": 142857.00000000012,
      "d": 224.99977500000386,
      "v": 67
    },
    {
      "midi": 61,
      "hit": false,
      "t": 143142.71400000012,
      "d": 146.42842499999097,
      "v": 73
    },
    {
      "midi": 68,
      "hit": false,
      "t": 143142.71400000012,
      "d": 482.1423749999958,
      "v": 94
    },
    {
      "midi": 65,
      "hit": false,
      "t": 143142.71400000012,
      "d": 499.99950000000536,
      "v": 91
    },
    {
      "midi": 61,
      "hit": false,
      "t": 143714.14200000014,
      "d": 96.42847499999334,
      "v": 61
    },
    {
      "midi": 51,
      "hit": false,
      "t": 143999.85600000015,
      "d": 149.99985000002198,
      "v": 55
    },
    {
      "midi": 63,
      "hit": false,
      "t": 143999.85600000015,
      "d": 739.284975000046,
      "v": 86
    },
    {
      "midi": 56,
      "hit": false,
      "t": 143999.85600000015,
      "d": 753.5706750000536,
      "v": 86
    },
    {
      "midi": 60,
      "hit": false,
      "t": 143999.85600000015,
      "d": 785.7135000000417,
      "v": 86
    },
    {
      "midi": 44,
      "hit": false,
      "t": 143999.85600000015,
      "d": 1599.9984000000695,
      "v": 86
    },
    {
      "midi": 51,
      "hit": false,
      "t": 144285.57000000018,
      "d": 128.57130000001052,
      "v": 57
    },
    {
      "midi": 51,
      "hit": false,
      "t": 144571.2840000002,
      "d": 592.8565499999968,
      "v": 71
    },
    {
      "midi": 56,
      "hit": false,
      "t": 144856.9980000002,
      "d": 407.1424499999848,
      "v": 68
    },
    {
      "midi": 63,
      "hit": false,
      "t": 144856.9980000002,
      "d": 482.1423749999958,
      "v": 91
    },
    {
      "midi": 60,
      "hit": false,
      "t": 144856.9980000002,
      "d": 546.4280250000011,
      "v": 88
    },
    {
      "midi": 51,
      "hit": false,
      "t": 145428.4260000002,
      "d": 196.4283750000177,
      "v": 64
    },
    {
      "midi": 56,
      "hit": false,
      "t": 145428.4260000002,
      "d": 760.7135249999992,
      "v": 64
    },
    {
      "midi": 63,
      "hit": false,
      "t": 145714.14000000022,
      "d": 671.4278999999806,
      "v": 83
    },
    {
      "midi": 60,
      "hit": false,
      "t": 145714.14000000022,
      "d": 696.427874999994,
      "v": 75
    },
    {
      "midi": 44,
      "hit": false,
      "t": 145714.14000000022,
      "d": 1585.7126999999746,
      "v": 81
    },
    {
      "midi": 51,
      "hit": false,
      "t": 145999.85400000022,
      "d": 103.57132499999716,
      "v": 81
    },
    {
      "midi": 51,
      "hit": false,
      "t": 146285.5680000002,
      "d": 692.856449999992,
      "v": 73
    },
    {
      "midi": 56,
      "hit": false,
      "t": 146571.2820000002,
      "d": 371.42819999999483,
      "v": 86
    },
    {
      "midi": 63,
      "hit": false,
      "t": 146571.2820000002,
      "d": 742.8563999999897,
      "v": 94
    },
    {
      "midi": 60,
      "hit": false,
      "t": 146571.2820000002,
      "d": 785.7135000000126,
      "v": 88
    },
    {
      "midi": 51,
      "hit": false,
      "t": 147142.7100000002,
      "d": 196.4283750000177,
      "v": 61
    },
    {
      "midi": 56,
      "hit": false,
      "t": 147142.7100000002,
      "d": 242.8569000000134,
      "v": 60
    },
    {
      "midi": 63,
      "hit": false,
      "t": 147428.4240000002,
      "d": 635.7136500000197,
      "v": 83
    },
    {
      "midi": 56,
      "hit": false,
      "t": 147428.4240000002,
      "d": 642.8565000000235,
      "v": 68
    },
    {
      "midi": 60,
      "hit": false,
      "t": 147428.4240000002,
      "d": 714.2850000000326,
      "v": 68
    },
    {
      "midi": 44,
      "hit": false,
      "t": 147428.4240000002,
      "d": 1557.1413000000466,
      "v": 70
    },
    {
      "midi": 51,
      "hit": false,
      "t": 147714.1380000002,
      "d": 99.99989999999525,
      "v": 63
    },
    {
      "midi": 51,
      "hit": false,
      "t": 147999.85200000022,
      "d": 571.4280000000144,
      "v": 70
    },
    {
      "midi": 56,
      "hit": false,
      "t": 148285.56600000022,
      "d": 407.1424500000139,
      "v": 81
    },
    {
      "midi": 63,
      "hit": false,
      "t": 148285.56600000022,
      "d": 492.85665000000154,
      "v": 91
    },
    {
      "midi": 60,
      "hit": false,
      "t": 148285.56600000022,
      "d": 549.999450000003,
      "v": 75
    },
    {
      "midi": 51,
      "hit": false,
      "t": 148856.99400000024,
      "d": 192.8569500000158,
      "v": 75
    },
    {
      "midi": 56,
      "hit": false,
      "t": 148856.99400000024,
      "d": 207.14265000002342,
      "v": 60
    },
    {
      "midi": 56,
      "hit": false,
      "t": 149142.70800000028,
      "d": 514.2851999999839,
      "v": 70
    },
    {
      "midi": 63,
      "hit": false,
      "t": 149142.70800000028,
      "d": 721.4278499999782,
      "v": 88
    },
    {
      "midi": 60,
      "hit": false,
      "t": 149142.70800000028,
      "d": 753.5706749999663,
      "v": 81
    },
    {
      "midi": 44,
      "hit": false,
      "t": 149142.70800000028,
      "d": 1046.4275249999773,
      "v": 83
    },
    {
      "midi": 51,
      "hit": false,
      "t": 149428.42200000028,
      "d": 85.71419999998761,
      "v": 70
    },
    {
      "midi": 51,
      "hit": false,
      "t": 149714.13600000026,
      "d": 539.2851749999973,
      "v": 79
    },
    {
      "midi": 56,
      "hit": false,
      "t": 149999.85000000024,
      "d": 128.57130000001052,
      "v": 67
    },
    {
      "midi": 63,
      "hit": false,
      "t": 149999.85000000024,
      "d": 232.14262500000768,
      "v": 94
    },
    {
      "midi": 60,
      "hit": false,
      "t": 149999.85000000024,
      "d": 257.14260000002105,
      "v": 83
    },
    {
      "midi": 56,
      "hit": false,
      "t": 150285.56400000025,
      "d": 210.71407499999623,
      "v": 54
    },
    {
      "midi": 60,
      "hit": false,
      "t": 150571.27800000025,
      "d": 99.99989999999525,
      "v": 66
    },
    {
      "midi": 56,
      "hit": false,
      "t": 150856.99200000026,
      "d": 153.57127499999478,
      "v": 62
    },
    {
      "midi": 61,
      "hit": false,
      "t": 150856.99200000026,
      "d": 424.99957499999437,
      "v": 83
    },
    {
      "midi": 68,
      "hit": false,
      "t": 150856.99200000026,
      "d": 528.5708999999915,
      "v": 88
    },
    {
      "midi": 65,
      "hit": false,
      "t": 150856.99200000026,
      "d": 610.7136749999772,
      "v": 94
    },
    {
      "midi": 49,
      "hit": false,
      "t": 150856.99200000026,
      "d": 1367.8557750000036,
      "v": 77
    },
    {
      "midi": 56,
      "hit": false,
      "t": 151142.70600000027,
      "d": 85.71419999998761,
      "v": 50
    },
    {
      "midi": 61,
      "hit": false,
      "t": 151428.42000000025,
      "d": 157.1426999999967,
      "v": 54
    },
    {
      "midi": 56,
      "hit": false,
      "t": 151428.42000000025,
      "d": 639.2850750000216,
      "v": 67
    },
    {
      "midi": 61,
      "hit": false,
      "t": 151714.13400000025,
      "d": 399.9996000000101,
      "v": 86
    },
    {
      "midi": 68,
      "hit": false,
      "t": 151714.13400000025,
      "d": 424.99957500002347,
      "v": 91
    },
    {
      "midi": 65,
      "hit": false,
      "t": 151714.13400000025,
      "d": 510.7137750000111,
      "v": 91
    },
    {
      "midi": 49,
      "hit": false,
      "t": 152285.56200000027,
      "d": 146.42842499999097,
      "v": 52
    },
    {
      "midi": 56,
      "hit": false,
      "t": 152285.56200000027,
      "d": 196.4283749999886,
      "v": 58
    },
    {
      "midi": 61,
      "hit": false,
      "t": 152285.56200000027,
      "d": 267.8568749999977,
      "v": 70
    },
    {
      "midi": 56,
      "hit": false,
      "t": 152571.27600000027,
      "d": 114.28560000000289,
      "v": 55
    },
    {
      "midi": 61,
      "hit": false,
      "t": 152571.27600000027,
      "d": 367.8567749999929,
      "v": 62
    },
    {
      "midi": 68,
      "hit": false,
      "t": 152571.27600000027,
      "d": 442.8567000000039,
      "v": 94
    },
    {
      "midi": 65,
      "hit": false,
      "t": 152571.27600000027,
      "d": 464.28525000001537,
      "v": 88
    },
    {
      "midi": 49,
      "hit": false,
      "t": 152571.27600000027,
      "d": 1296.4272749999946,
      "v": 81
    },
    {
      "midi": 56,
      "hit": false,
      "t": 152856.99000000028,
      "d": 435.7138500000001,
      "v": 57
    },
    {
      "midi": 61,
      "hit": false,
      "t": 153142.7040000003,
      "d": 196.4283749999886,
      "v": 64
    },
    {
      "midi": 56,
      "hit": false,
      "t": 153428.41800000027,
      "d": 371.42819999999483,
      "v": 62
    },
    {
      "midi": 61,
      "hit": false,
      "t": 153428.41800000027,
      "d": 374.99962499999674,
      "v": 86
    },
    {
      "midi": 68,
      "hit": false,
      "t": 153428.41800000027,
      "d": 499.99950000000536,
      "v": 94
    },
    {
      "midi": 65,
      "hit": false,
      "t": 153428.41800000027,
      "d": 528.5708999999915,
      "v": 94
    },
    {
      "midi": 56,
      "hit": false,
      "t": 153999.84600000025,
      "d": 182.14267499998095,
      "v": 58
    },
    {
      "midi": 49,
      "hit": false,
      "t": 153999.84600000025,
      "d": 203.5712249999924,
      "v": 50
    },
    {
      "midi": 61,
      "hit": false,
      "t": 153999.84600000025,
      "d": 232.14262499997858,
      "v": 63
    },
    {
      "midi": 56,
      "hit": false,
      "t": 154285.56000000023,
      "d": 107.14274999999907,
      "v": 53
    },
    {
      "midi": 61,
      "hit": false,
      "t": 154285.56000000023,
      "d": 410.71387500001583,
      "v": 86
    },
    {
      "midi": 68,
      "hit": false,
      "t": 154285.56000000023,
      "d": 517.8566250000149,
      "v": 88
    },
    {
      "midi": 65,
      "hit": false,
      "t": 154285.56000000023,
      "d": 624.999375000014,
      "v": 91
    },
    {
      "midi": 49,
      "hit": false,
      "t": 154285.56000000023,
      "d": 757.1421000000264,
      "v": 77
    },
    {
      "midi": 56,
      "hit": false,
      "t": 154571.27400000024,
      "d": 132.14272500001243,
      "v": 67
    },
    {
      "midi": 56,
      "hit": false,
      "t": 154856.98800000024,
      "d": 149.99984999999288,
      "v": 57
    },
    {
      "midi": 61,
      "hit": false,
      "t": 154856.98800000024,
      "d": 167.85697500000242,
      "v": 64
    },
    {
      "midi": 61,
      "hit": false,
      "t": 155142.70200000025,
      "d": 399.9996000000101,
      "v": 86
    },
    {
      "midi": 68,
      "hit": false,
      "t": 155142.70200000025,
      "d": 785.7135000000417,
      "v": 97
    },
    {
      "midi": 65,
      "hit": false,
      "t": 155142.70200000025,
      "d": 810.713475000055,
      "v": 97
    },
    {
      "midi": 56,
      "hit": false,
      "t": 155714.13000000027,
      "d": 189.28552500001388,
      "v": 59
    },
    {
      "midi": 61,
      "hit": false,
      "t": 155714.13000000027,
      "d": 696.427875000023,
      "v": 61
    },
    {
      "midi": 49,
      "hit": false,
      "t": 155714.13000000027,
      "d": 1567.8555750000232,
      "v": 63
    },
    {
      "midi": 56,
      "hit": false,
      "t": 155999.8440000003,
      "d": 210.71407499999623,
      "v": 49
    },
    {
      "midi": 68,
      "hit": false,
      "t": 155999.8440000003,
      "d": 471.4280999999901,
      "v": 91
    },
    {
      "midi": 65,
      "hit": false,
      "t": 155999.8440000003,
      "d": 535.7137499999953,
      "v": 91
    },
    {
      "midi": 61,
      "hit": false,
      "t": 156571.2720000003,
      "d": 224.99977500000386,
      "v": 73
    },
    {
      "midi": 61,
      "hit": false,
      "t": 156856.9860000003,
      "d": 221.42835000000196,
      "v": 83
    },
    {
      "midi": 68,
      "hit": false,
      "t": 156856.9860000003,
      "d": 435.7138500000001,
      "v": 94
    },
    {
      "midi": 65,
      "hit": false,
      "t": 156856.9860000003,
      "d": 485.7137999999977,
      "v": 101
    },
    {
      "midi": 56,
      "hit": false,
      "t": 156999.84300000028,
      "d": 171.42840000000433,
      "v": 46
    },
    {
      "midi": 61,
      "hit": false,
      "t": 157428.41400000028,
      "d": 71.42850000000908,
      "v": 68
    },
    {
      "midi": 51,
      "hit": false,
      "t": 157714.1280000003,
      "d": 142.85699999998906,
      "v": 70
    },
    {
      "midi": 56,
      "hit": false,
      "t": 157714.1280000003,
      "d": 360.7139250000182,
      "v": 91
    },
    {
      "midi": 58,
      "hit": false,
      "t": 157714.1280000003,
      "d": 439.285275000002,
      "v": 91
    },
    {
      "midi": 63,
      "hit": false,
      "t": 157714.1280000003,
      "d": 439.285275000002,
      "v": 91
    },
    {
      "midi": 60,
      "hit": false,
      "t": 157714.1280000003,
      "d": 474.999524999992,
      "v": 86
    },
    {
      "midi": 44,
      "hit": false,
      "t": 157714.1280000003,
      "d": 1503.5699249999598,
      "v": 88
    },
    {
      "midi": 51,
      "hit": false,
      "t": 157999.8420000003,
      "d": 117.8570250000048,
      "v": 58
    },
    {
      "midi": 51,
      "hit": false,
      "t": 158285.55600000027,
      "d": 146.42842499999097,
      "v": 68
    },
    {
      "midi": 56,
      "hit": false,
      "t": 158285.55600000027,
      "d": 221.42835000000196,
      "v": 63
    },
    {
      "midi": 51,
      "hit": false,
      "t": 158571.27000000028,
      "d": 299.99969999998575,
      "v": 71
    },
    {
      "midi": 56,
      "hit": false,
      "t": 158571.27000000028,
      "d": 346.42822499998147,
      "v": 77
    },
    {
      "midi": 63,
      "hit": false,
      "t": 158571.27000000028,
      "d": 510.713774999982,
      "v": 91
    },
    {
      "midi": 60,
      "hit": false,
      "t": 158571.27000000028,
      "d": 542.8565999999701,
      "v": 91
    },
    {
      "midi": 51,
      "hit": false,
      "t": 159142.69800000024,
      "d": 174.99982500000624,
      "v": 59
    },
    {
      "midi": 56,
      "hit": false,
      "t": 159142.69800000024,
      "d": 221.42835000000196,
      "v": 77
    },
    {
      "midi": 51,
      "hit": false,
      "t": 159428.41200000024,
      "d": 132.14272500001243,
      "v": 59
    },
    {
      "midi": 56,
      "hit": false,
      "t": 159428.41200000024,
      "d": 407.1424500000139,
      "v": 83
    },
    {
      "midi": 63,
      "hit": false,
      "t": 159428.41200000024,
      "d": 478.570950000023,
      "v": 88
    },
    {
      "midi": 60,
      "hit": false,
      "t": 159428.41200000024,
      "d": 524.9994750000187,
      "v": 86
    },
    {
      "midi": 44,
      "hit": false,
      "t": 159428.41200000024,
      "d": 1582.1412750000309,
      "v": 97
    },
    {
      "midi": 51,
      "hit": false,
      "t": 159714.12600000025,
      "d": 703.5707250000269,
      "v": 59
    },
    {
      "midi": 56,
      "hit": false,
      "t": 159999.84000000026,
      "d": 214.28549999999814,
      "v": 70
    },
    {
      "midi": 58,
      "hit": false,
      "t": 160285.55400000027,
      "d": 135.71415000001434,
      "v": 81
    },
    {
      "midi": 56,
      "hit": false,
      "t": 160285.55400000027,
      "d": 192.8569500000158,
      "v": 77
    },
    {
      "midi": 63,
      "hit": false,
      "t": 160285.55400000027,
      "d": 799.9991999999911,
      "v": 88
    },
    {
      "midi": 60,
      "hit": false,
      "t": 160285.55400000027,
      "d": 814.2848999999987,
      "v": 83
    },
    {
      "midi": 56,
      "hit": false,
      "t": 160571.26800000027,
      "d": 485.7137999999977,
      "v": 66
    },
    {
      "midi": 51,
      "hit": false,
      "t": 160856.98200000028,
      "d": 421.42814999999246,
      "v": 81
    },
    {
      "midi": 56,
      "hit": false,
      "t": 161142.69600000026,
      "d": 410.71387499998673,
      "v": 81
    },
    {
      "midi": 63,
      "hit": false,
      "t": 161142.69600000026,
      "d": 492.85664999997243,
      "v": 91
    },
    {
      "midi": 60,
      "hit": false,
      "t": 161142.69600000026,
      "d": 499.99949999997625,
      "v": 81
    },
    {
      "midi": 44,
      "hit": false,
      "t": 161142.69600000026,
      "d": 1524.9984750000003,
      "v": 86
    },
    {
      "midi": 51,
      "hit": false,
      "t": 161428.41000000027,
      "d": 92.85704999999143,
      "v": 64
    },
    {
      "midi": 56,
      "hit": false,
      "t": 161714.12400000024,
      "d": 174.99982500000624,
      "v": 71
    },
    {
      "midi": 51,
      "hit": false,
      "t": 161714.12400000024,
      "d": 457.14240000001155,
      "v": 67
    },
    {
      "midi": 58,
      "hit": false,
      "t": 161999.83800000025,
      "d": 164.2855500000005,
      "v": 91
    },
    {
      "midi": 56,
      "hit": false,
      "t": 161999.83800000025,
      "d": 399.9996000000101,
      "v": 83
    },
    {
      "midi": 63,
      "hit": false,
      "t": 161999.83800000025,
      "d": 524.9994750000187,
      "v": 97
    },
    {
      "midi": 60,
      "hit": false,
      "t": 161999.83800000025,
      "d": 732.142125000013,
      "v": 94
    },
    {
      "midi": 56,
      "hit": false,
      "t": 162571.26600000027,
      "d": 228.57120000000577,
      "v": 73
    },
    {
      "midi": 51,
      "hit": false,
      "t": 162571.26600000027,
      "d": 249.99975000001723,
      "v": 94
    },
    {
      "midi": 51,
      "hit": false,
      "t": 162856.98000000027,
      "d": 160.7141249999986,
      "v": 58
    },
    {
      "midi": 56,
      "hit": false,
      "t": 162856.98000000027,
      "d": 260.71402499999385,
      "v": 83
    },
    {
      "midi": 58,
      "hit": false,
      "t": 162856.98000000027,
      "d": 485.7137999999977,
      "v": 94
    },
    {
      "midi": 63,
      "hit": false,
      "t": 162856.98000000027,
      "d": 485.7137999999977,
      "v": 94
    },
    {
      "midi": 60,
      "hit": false,
      "t": 162856.98000000027,
      "d": 521.4280499999877,
      "v": 83
    },
    {
      "midi": 44,
      "hit": false,
      "t": 162856.98000000027,
      "d": 1117.8560249999864,
      "v": 101
    },
    {
      "midi": 51,
      "hit": false,
      "t": 163428.40800000026,
      "d": 117.8570250000048,
      "v": 79
    },
    {
      "midi": 56,
      "hit": false,
      "t": 163428.40800000026,
      "d": 157.1426999999967,
      "v": 88
    },
    {
      "midi": 51,
      "hit": false,
      "t": 163714.12200000026,
      "d": 299.99969999998575,
      "v": 91
    },
    {
      "midi": 56,
      "hit": false,
      "t": 163714.12200000026,
      "d": 339.28537499997765,
      "v": 94
    },
    {
      "midi": 63,
      "hit": false,
      "t": 163714.12200000026,
      "d": 474.999524999992,
      "v": 97
    },
    {
      "midi": 60,
      "hit": false,
      "t": 163714.12200000026,
      "d": 489.2852249999996,
      "v": 101
    },
    {
      "midi": 56,
      "hit": false,
      "t": 164285.55000000025,
      "d": 74.99992500001099,
      "v": 88
    },
    {
      "midi": 56,
      "hit": false,
      "t": 164571.26400000026,
      "d": 139.28557499998715,
      "v": 68
    },
    {
      "midi": 61,
      "hit": false,
      "t": 164571.26400000026,
      "d": 389.2853250000044,
      "v": 94
    },
    {
      "midi": 63,
      "hit": false,
      "t": 164571.26400000026,
      "d": 510.7137750000111,
      "v": 94
    },
    {
      "midi": 68,
      "hit": false,
      "t": 164571.26400000026,
      "d": 517.8566250000149,
      "v": 97
    },
    {
      "midi": 65,
      "hit": false,
      "t": 164571.26400000026,
      "d": 521.4280500000168,
      "v": 94
    },
    {
      "midi": 49,
      "hit": false,
      "t": 164571.26400000026,
      "d": 1389.284325000015,
      "v": 88
    },
    {
      "midi": 56,
      "hit": false,
      "t": 164856.97800000026,
      "d": 92.85704999999143,
      "v": 57
    },
    {
      "midi": 56,
      "hit": false,
      "t": 165142.69200000027,
      "d": 574.9994249999872,
      "v": 67
    },
    {
      "midi": 61,
      "hit": false,
      "t": 165142.69200000027,
      "d": 735.7135499999858,
      "v": 83
    },
    {
      "midi": 68,
      "hit": false,
      "t": 165428.40600000025,
      "d": 521.4280500000168,
      "v": 86
    },
    {
      "midi": 63,
      "hit": false,
      "t": 165428.40600000025,
      "d": 582.1422750000202,
      "v": 83
    },
    {
      "midi": 65,
      "hit": false,
      "t": 165428.40600000025,
      "d": 589.285125000024,
      "v": 88
    },
    {
      "midi": 56,
      "hit": false,
      "t": 165999.83400000026,
      "d": 149.99985000002198,
      "v": 54
    },
    {
      "midi": 61,
      "hit": false,
      "t": 165999.83400000026,
      "d": 632.1422250000469,
      "v": 71
    },
    {
      "midi": 56,
      "hit": false,
      "t": 166285.5480000003,
      "d": 128.57130000001052,
      "v": 68
    },
    {
      "midi": 49,
      "hit": false,
      "t": 166285.5480000003,
      "d": 185.71410000001197,
      "v": 88
    },
    {
      "midi": 68,
      "hit": false,
      "t": 166285.5480000003,
      "d": 460.71382500001346,
      "v": 97
    },
    {
      "midi": 65,
      "hit": false,
      "t": 166285.5480000003,
      "d": 510.7137750000111,
      "v": 81
    },
    {
      "midi": 56,
      "hit": false,
      "t": 166571.2620000003,
      "d": 114.28560000000289,
      "v": 49
    },
    {
      "midi": 49,
      "hit": false,
      "t": 166571.2620000003,
      "d": 1335.7129500000156,
      "v": 55
    },
    {
      "midi": 56,
      "hit": false,
      "t": 166856.97600000032,
      "d": 82.1427749999857,
      "v": 49
    },
    {
      "midi": 61,
      "hit": false,
      "t": 166856.97600000032,
      "d": 189.28552499998477,
      "v": 62
    },
    {
      "midi": 61,
      "hit": false,
      "t": 167142.6900000003,
      "d": 389.2853250000044,
      "v": 83
    },
    {
      "midi": 56,
      "hit": false,
      "t": 167142.6900000003,
      "d": 407.1424500000139,
      "v": 66
    },
    {
      "midi": 65,
      "hit": false,
      "t": 167142.6900000003,
      "d": 542.8566000000283,
      "v": 86
    },
    {
      "midi": 68,
      "hit": false,
      "t": 167142.6900000003,
      "d": 589.285125000024,
      "v": 91
    },
    {
      "midi": 56,
      "hit": false,
      "t": 167714.1180000003,
      "d": 182.14267500001006,
      "v": 70
    },
    {
      "midi": 61,
      "hit": false,
      "t": 167714.1180000003,
      "d": 239.2854750000115,
      "v": 86
    },
    {
      "midi": 56,
      "hit": false,
      "t": 167999.83200000032,
      "d": 92.85704999999143,
      "v": 49
    },
    {
      "midi": 61,
      "hit": false,
      "t": 167999.83200000032,
      "d": 378.57104999996955,
      "v": 71
    },
    {
      "midi": 63,
      "hit": false,
      "t": 167999.83200000032,
      "d": 467.85667499995907,
      "v": 91
    },
    {
      "midi": 68,
      "hit": false,
      "t": 167999.83200000032,
      "d": 474.9995249999629,
      "v": 88
    },
    {
      "midi": 65,
      "hit": false,
      "t": 167999.83200000032,
      "d": 503.57092499994906,
      "v": 86
    },
    {
      "midi": 49,
      "hit": false,
      "t": 167999.83200000032,
      "d": 1246.4273249999096,
      "v": 71
    },
    {
      "midi": 56,
      "hit": false,
      "t": 168285.5460000003,
      "d": 121.4284499999776,
      "v": 63
    },
    {
      "midi": 56,
      "hit": false,
      "t": 168571.26000000027,
      "d": 107.14274999999907,
      "v": 61
    },
    {
      "midi": 61,
      "hit": false,
      "t": 168571.26000000027,
      "d": 199.9997999999905,
      "v": 71
    },
    {
      "midi": 61,
      "hit": false,
      "t": 168856.97400000025,
      "d": 360.7139249999891,
      "v": 79
    },
    {
      "midi": 56,
      "hit": false,
      "t": 168856.97400000025,
      "d": 417.85672499996144,
      "v": 55
    },
    {
      "midi": 68,
      "hit": false,
      "t": 168856.97400000025,
      "d": 439.2852749999729,
      "v": 86
    },
    {
      "midi": 65,
      "hit": false,
      "t": 168856.97400000025,
      "d": 489.2852249999705,
      "v": 83
    },
    {
      "midi": 61,
      "hit": false,
      "t": 169428.4020000002,
      "d": 217.85692500000005,
      "v": 86
    },
    {
      "midi": 56,
      "hit": false,
      "t": 169714.1160000002,
      "d": 132.14272500001243,
      "v": 70
    },
    {
      "midi": 61,
      "hit": false,
      "t": 169714.1160000002,
      "d": 524.9994750000187,
      "v": 86
    },
    {
      "midi": 68,
      "hit": false,
      "t": 169714.1160000002,
      "d": 607.1422500000044,
      "v": 97
    },
    {
      "midi": 65,
      "hit": false,
      "t": 169714.1160000002,
      "d": 707.1421499999997,
      "v": 97
    },
    {
      "midi": 49,
      "hit": false,
      "t": 169714.1160000002,
      "d": 1085.7131999999983,
      "v": 94
    },
    {
      "midi": 56,
      "hit": false,
      "t": 169999.83000000022,
      "d": 121.4284500000067,
      "v": 60
    },
    {
      "midi": 56,
      "hit": false,
      "t": 170285.54400000023,
      "d": 182.14267499998095,
      "v": 61
    },
    {
      "midi": 56,
      "hit": false,
      "t": 170571.2580000002,
      "d": 124.99987500000861,
      "v": 51
    },
    {
      "midi": 61,
      "hit": false,
      "t": 170571.2580000002,
      "d": 328.571100000001,
      "v": 101
    },
    {
      "midi": 68,
      "hit": false,
      "t": 170571.2580000002,
      "d": 489.2852249999996,
      "v": 97
    },
    {
      "midi": 65,
      "hit": false,
      "t": 170571.2580000002,
      "d": 507.1423500000092,
      "v": 97
    },
    {
      "midi": 61,
      "hit": false,
      "t": 171142.68600000022,
      "d": 99.99989999999525,
      "v": 83
    },
    {
      "midi": 53,
      "hit": false,
      "t": 171428.40000000023,
      "d": 174.99982499997714,
      "v": 79
    },
    {
      "midi": 58,
      "hit": false,
      "t": 171428.40000000023,
      "d": 764.284949999972,
      "v": 86
    },
    {
      "midi": 61,
      "hit": false,
      "t": 171428.40000000023,
      "d": 764.284949999972,
      "v": 91
    },
    {
      "midi": 65,
      "hit": false,
      "t": 171428.40000000023,
      "d": 774.9992249999777,
      "v": 86
    },
    {
      "midi": 46,
      "hit": false,
      "t": 171428.40000000023,
      "d": 1557.1412999999593,
      "v": 91
    },
    {
      "midi": 53,
      "hit": false,
      "t": 171714.1140000002,
      "d": 117.8570250000048,
      "v": 66
    },
    {
      "midi": 53,
      "hit": false,
      "t": 171999.8280000002,
      "d": 403.5710249999829,
      "v": 59
    },
    {
      "midi": 61,
      "hit": false,
      "t": 172285.5420000002,
      "d": 664.2850500000059,
      "v": 83
    },
    {
      "midi": 65,
      "hit": false,
      "t": 172285.5420000002,
      "d": 746.4278249999916,
      "v": 88
    },
    {
      "midi": 58,
      "hit": false,
      "t": 172285.5420000002,
      "d": 764.2849500000011,
      "v": 91
    },
    {
      "midi": 53,
      "hit": false,
      "t": 172856.9700000002,
      "d": 160.7141249999695,
      "v": 61
    },
    {
      "midi": 53,
      "hit": false,
      "t": 173142.68400000018,
      "d": 103.57132499999716,
      "v": 56
    },
    {
      "midi": 60,
      "hit": false,
      "t": 173142.68400000018,
      "d": 382.14247500000056,
      "v": 75
    },
    {
      "midi": 58,
      "hit": false,
      "t": 173142.68400000018,
      "d": 410.71387499998673,
      "v": 77
    },
    {
      "midi": 65,
      "hit": false,
      "t": 173142.68400000018,
      "d": 682.1421749999863,
      "v": 68
    },
    {
      "midi": 61,
      "hit": false,
      "t": 173142.68400000018,
      "d": 696.427874999994,
      "v": 79
    },
    {
      "midi": 46,
      "hit": false,
      "t": 173142.68400000018,
      "d": 1310.7129750000022,
      "v": 81
    },
    {
      "midi": 53,
      "hit": false,
      "t": 173428.3980000002,
      "d": 96.42847499999334,
      "v": 73
    },
    {
      "midi": 53,
      "hit": false,
      "t": 173714.11200000017,
      "d": 528.5709000000206,
      "v": 81
    },
    {
      "midi": 58,
      "hit": false,
      "t": 173999.82600000018,
      "d": 403.571025000012,
      "v": 101
    },
    {
      "midi": 65,
      "hit": false,
      "t": 173999.82600000018,
      "d": 471.4281000000192,
      "v": 94
    },
    {
      "midi": 61,
      "hit": false,
      "t": 173999.82600000018,
      "d": 492.85665000003064,
      "v": 101
    },
    {
      "midi": 58,
      "hit": false,
      "t": 174571.25400000022,
      "d": 203.5712249999924,
      "v": 60
    },
    {
      "midi": 53,
      "hit": false,
      "t": 174571.25400000022,
      "d": 253.57117499999003,
      "v": 59
    },
    {
      "midi": 53,
      "hit": false,
      "t": 174856.9680000002,
      "d": 132.14272500001243,
      "v": 39
    },
    {
      "midi": 65,
      "hit": false,
      "t": 174856.9680000002,
      "d": 721.4278500000073,
      "v": 97
    },
    {
      "midi": 61,
      "hit": false,
      "t": 174856.9680000002,
      "d": 746.4278250000207,
      "v": 86
    },
    {
      "midi": 58,
      "hit": false,
      "t": 174856.9680000002,
      "d": 799.9992000000202,
      "v": 91
    },
    {
      "midi": 46,
      "hit": false,
      "t": 174856.9680000002,
      "d": 1646.4269250000361,
      "v": 91
    },
    {
      "midi": 53,
      "hit": false,
      "t": 175142.6820000002,
      "d": 96.42847499999334,
      "v": 61
    },
    {
      "midi": 53,
      "hit": false,
      "t": 175428.3960000002,
      "d": 478.5709499999939,
      "v": 68
    },
    {
      "midi": 58,
      "hit": false,
      "t": 175714.11000000022,
      "d": 39.2856749999919,
      "v": 79
    },
    {
      "midi": 61,
      "hit": false,
      "t": 175714.11000000022,
      "d": 792.8563500000164,
      "v": 75
    },
    {
      "midi": 65,
      "hit": false,
      "t": 175714.11000000022,
      "d": 810.7134750000259,
      "v": 91
    },
    {
      "midi": 56,
      "hit": false,
      "t": 175714.11000000022,
      "d": 824.9991750000336,
      "v": 91
    },
    {
      "midi": 53,
      "hit": false,
      "t": 176285.5380000002,
      "d": 135.71415000001434,
      "v": 77
    },
    {
      "midi": 53,
      "hit": false,
      "t": 176571.25200000024,
      "d": 146.42842500002007,
      "v": 71
    },
    {
      "midi": 46,
      "hit": false,
      "t": 176571.25200000024,
      "d": 457.14239999998244,
      "v": 94
    },
    {
      "midi": 58,
      "hit": false,
      "t": 176571.25200000024,
      "d": 503.57092499997816,
      "v": 94
    },
    {
      "midi": 65,
      "hit": false,
      "t": 176571.25200000024,
      "d": 553.5708749999758,
      "v": 79
    },
    {
      "midi": 61,
      "hit": false,
      "t": 176571.25200000024,
      "d": 560.7137249999796,
      "v": 94
    },
    {
      "midi": 53,
      "hit": false,
      "t": 176856.96600000025,
      "d": 89.28562499998952,
      "v": 66
    },
    {
      "midi": 46,
      "hit": false,
      "t": 177142.68000000023,
      "d": 453.57097500000964,
      "v": 67
    },
    {
      "midi": 53,
      "hit": false,
      "t": 177142.68000000023,
      "d": 610.7136750000063,
      "v": 86
    },
    {
      "midi": 58,
      "hit": false,
      "t": 177428.39400000023,
      "d": 332.14252500000293,
      "v": 97
    },
    {
      "midi": 65,
      "hit": false,
      "t": 177428.39400000023,
      "d": 414.28529999998864,
      "v": 101
    },
    {
      "midi": 61,
      "hit": false,
      "t": 177428.39400000023,
      "d": 460.71382499998435,
      "v": 97
    },
    {
      "midi": 58,
      "hit": false,
      "t": 177999.82200000022,
      "d": 107.14274999999907,
      "v": 59
    },
    {
      "midi": 54,
      "hit": false,
      "t": 178285.53600000023,
      "d": 192.85694999998668,
      "v": 73
    },
    {
      "midi": 58,
      "hit": false,
      "t": 178285.53600000023,
      "d": 760.7135249999992,
      "v": 88
    },
    {
      "midi": 61,
      "hit": false,
      "t": 178285.53600000023,
      "d": 778.5706500000088,
      "v": 97
    },
    {
      "midi": 65,
      "hit": false,
      "t": 178285.53600000023,
      "d": 782.1420750000107,
      "v": 97
    },
    {
      "midi": 54,
      "hit": false,
      "t": 178571.2500000002,
      "d": 110.71417500000098,
      "v": 41
    },
    {
      "midi": 54,
      "hit": false,
      "t": 178856.9640000002,
      "d": 710.7135750000307,
      "v": 65
    },
    {
      "midi": 58,
      "hit": false,
      "t": 179142.67800000025,
      "d": 385.71390000000247,
      "v": 91
    },
    {
      "midi": 61,
      "hit": false,
      "t": 179142.67800000025,
      "d": 492.85665000000154,
      "v": 94
    },
    {
      "midi": 65,
      "hit": false,
      "t": 179142.67800000025,
      "d": 503.57092500000726,
      "v": 91
    },
    {
      "midi": 54,
      "hit": false,
      "t": 179714.10600000026,
      "d": 128.57130000001052,
      "v": 71
    },
    {
      "midi": 58,
      "hit": false,
      "t": 179714.10600000026,
      "d": 207.14265000002342,
      "v": 66
    },
    {
      "midi": 54,
      "hit": false,
      "t": 179999.8200000003,
      "d": 174.99982500000624,
      "v": 71
    },
    {
      "midi": 58,
      "hit": false,
      "t": 179999.8200000003,
      "d": 389.2853250000044,
      "v": 81
    },
    {
      "midi": 61,
      "hit": false,
      "t": 179999.8200000003,
      "d": 714.2850000000035,
      "v": 88
    },
    {
      "midi": 65,
      "hit": false,
      "t": 179999.8200000003,
      "d": 717.8564250000054,
      "v": 101
    },
    {
      "midi": 54,
      "hit": false,
      "t": 180285.5340000003,
      "d": 1271.4273000000394,
      "v": 71
    },
    {
      "midi": 58,
      "hit": false,
      "t": 180571.2480000003,
      "d": 207.14264999999432,
      "v": 70
    },
    {
      "midi": 58,
      "hit": false,
      "t": 180856.96200000032,
      "d": 392.8567500000063,
      "v": 77
    },
    {
      "midi": 61,
      "hit": false,
      "t": 180856.96200000032,
      "d": 714.2850000000326,
      "v": 83
    },
    {
      "midi": 65,
      "hit": false,
      "t": 180856.96200000032,
      "d": 728.5707000000402,
      "v": 88
    },
    {
      "midi": 58,
      "hit": false,
      "t": 181428.39000000033,
      "d": 199.9998000000196,
      "v": 75
    },
    {
      "midi": 54,
      "hit": false,
      "t": 181714.10400000034,
      "d": 192.85694999998668,
      "v": 65
    },
    {
      "midi": 58,
      "hit": false,
      "t": 181714.10400000034,
      "d": 778.5706499999505,
      "v": 86
    },
    {
      "midi": 61,
      "hit": false,
      "t": 181714.10400000034,
      "d": 803.5706249999639,
      "v": 88
    },
    {
      "midi": 65,
      "hit": false,
      "t": 181714.10400000034,
      "d": 810.7134749999677,
      "v": 88
    },
    {
      "midi": 54,
      "hit": false,
      "t": 181999.81800000032,
      "d": 139.28557499998715,
      "v": 51
    },
    {
      "midi": 54,
      "hit": false,
      "t": 182285.5320000003,
      "d": 1032.1418249999988,
      "v": 65
    },
    {
      "midi": 58,
      "hit": false,
      "t": 182571.2460000003,
      "d": 428.5709999999963,
      "v": 83
    },
    {
      "midi": 65,
      "hit": false,
      "t": 182571.2460000003,
      "d": 696.427874999994,
      "v": 88
    },
    {
      "midi": 61,
      "hit": false,
      "t": 182571.2460000003,
      "d": 732.1421249999839,
      "v": 86
    },
    {
      "midi": 58,
      "hit": false,
      "t": 183142.6740000003,
      "d": 189.28552500001388,
      "v": 73
    },
    {
      "midi": 54,
      "hit": false,
      "t": 183428.3880000003,
      "d": 196.4283749999886,
      "v": 63
    },
    {
      "midi": 58,
      "hit": false,
      "t": 183428.3880000003,
      "d": 707.1421499999997,
      "v": 83
    },
    {
      "midi": 61,
      "hit": false,
      "t": 183428.3880000003,
      "d": 753.5706749999954,
      "v": 88
    },
    {
      "midi": 65,
      "hit": false,
      "t": 183428.3880000003,
      "d": 767.856375000003,
      "v": 88
    },
    {
      "midi": 54,
      "hit": false,
      "t": 183714.10200000028,
      "d": 157.1426999999967,
      "v": 59
    },
    {
      "midi": 54,
      "hit": false,
      "t": 183999.81600000028,
      "d": 360.7139250000182,
      "v": 57
    },
    {
      "midi": 58,
      "hit": false,
      "t": 184285.5300000003,
      "d": 314.2854000000225,
      "v": 79
    },
    {
      "midi": 61,
      "hit": false,
      "t": 184285.5300000003,
      "d": 442.856700000033,
      "v": 97
    },
    {
      "midi": 65,
      "hit": false,
      "t": 184285.5300000003,
      "d": 442.856700000033,
      "v": 94
    },
    {
      "midi": 58,
      "hit": false,
      "t": 184856.95800000033,
      "d": 128.57130000001052,
      "v": 50
    },
    {
      "midi": 54,
      "hit": false,
      "t": 185142.67200000034,
      "d": 199.9998000000196,
      "v": 71
    },
    {
      "midi": 48,
      "hit": false,
      "t": 185142.67200000034,
      "d": 214.28550000002724,
      "v": 79
    },
    {
      "midi": 58,
      "hit": false,
      "t": 185142.67200000034,
      "d": 753.5706750000245,
      "v": 97
    },
    {
      "midi": 63,
      "hit": false,
      "t": 185142.67200000034,
      "d": 760.7135250000283,
      "v": 91
    },
    {
      "midi": 66,
      "hit": false,
      "t": 185142.67200000034,
      "d": 764.2849500000302,
      "v": 76
    },
    {
      "midi": 54,
      "hit": false,
      "t": 185428.38600000038,
      "d": 89.28562499998952,
      "v": 42
    },
    {
      "midi": 48,
      "hit": false,
      "t": 185428.38600000038,
      "d": 1017.8561249999912,
      "v": 73
    },
    {
      "midi": 54,
      "hit": false,
      "t": 185714.10000000036,
      "d": 682.1421750000154,
      "v": 65
    },
    {
      "midi": 58,
      "hit": false,
      "t": 185999.81400000036,
      "d": 439.285275000002,
      "v": 83
    },
    {
      "midi": 60,
      "hit": false,
      "t": 185999.81400000036,
      "d": 507.1423500000092,
      "v": 104
    },
    {
      "midi": 66,
      "hit": false,
      "t": 185999.81400000036,
      "d": 507.1423500000092,
      "v": 83
    },
    {
      "midi": 63,
      "hit": false,
      "t": 185999.81400000036,
      "d": 521.4280500000168,
      "v": 104
    },
    {
      "midi": 48,
      "hit": false,
      "t": 186571.24200000038,
      "d": 121.4284500000067,
      "v": 67
    },
    {
      "midi": 54,
      "hit": false,
      "t": 186571.24200000038,
      "d": 167.85697500000242,
      "v": 55
    },
    {
      "midi": 58,
      "hit": false,
      "t": 186571.24200000038,
      "d": 242.8569000000134,
      "v": 73
    },
    {
      "midi": 54,
      "hit": false,
      "t": 186856.95600000038,
      "d": 178.57125000000815,
      "v": 55
    },
    {
      "midi": 66,
      "hit": false,
      "t": 186856.95600000038,
      "d": 703.5707250000269,
      "v": 65
    },
    {
      "midi": 58,
      "hit": false,
      "t": 186856.95600000038,
      "d": 707.1421500000288,
      "v": 60
    },
    {
      "midi": 63,
      "hit": false,
      "t": 186856.95600000038,
      "d": 710.7135750000307,
      "v": 94
    },
    {
      "midi": 60,
      "hit": false,
      "t": 186856.95600000038,
      "d": 721.4278500000364,
      "v": 91
    },
    {
      "midi": 48,
      "hit": false,
      "t": 186856.95600000038,
      "d": 1364.28435000006,
      "v": 73
    },
    {
      "midi": 54,
      "hit": false,
      "t": 187142.6700000004,
      "d": 124.99987500000861,
      "v": 47
    },
    {
      "midi": 54,
      "hit": false,
      "t": 187428.3840000004,
      "d": 724.9992750000383,
      "v": 61
    },
    {
      "midi": 58,
      "hit": false,
      "t": 187714.09800000043,
      "d": 385.71390000000247,
      "v": 86
    },
    {
      "midi": 66,
      "hit": false,
      "t": 187714.09800000043,
      "d": 524.9994750000187,
      "v": 68
    },
    {
      "midi": 60,
      "hit": false,
      "t": 187714.09800000043,
      "d": 589.285125000024,
      "v": 97
    },
    {
      "midi": 63,
      "hit": false,
      "t": 187714.09800000043,
      "d": 599.9994000000297,
      "v": 94
    },
    {
      "midi": 58,
      "hit": false,
      "t": 188285.52600000045,
      "d": 110.71417500000098,
      "v": 73
    },
    {
      "midi": 53,
      "hit": false,
      "t": 188571.24000000046,
      "d": 196.4283749999886,
      "v": 73
    },
    {
      "midi": 57,
      "hit": false,
      "t": 188571.24000000046,
      "d": 457.14239999998244,
      "v": 73
    },
    {
      "midi": 60,
      "hit": false,
      "t": 188571.24000000046,
      "d": 510.713774999982,
      "v": 94
    },
    {
      "midi": 65,
      "hit": false,
      "t": 188571.24000000046,
      "d": 749.9992499999935,
      "v": 97
    },
    {
      "midi": 53,
      "hit": false,
      "t": 188856.95400000043,
      "d": 1007.1418500000145,
      "v": 71
    },
    {
      "midi": 57,
      "hit": false,
      "t": 189142.66800000044,
      "d": 192.8569500000158,
      "v": 55
    },
    {
      "midi": 57,
      "hit": false,
      "t": 189428.38200000045,
      "d": 432.1424249999982,
      "v": 68
    },
    {
      "midi": 65,
      "hit": false,
      "t": 189428.38200000045,
      "d": 482.1423749999958,
      "v": 83
    },
    {
      "midi": 60,
      "hit": false,
      "t": 189428.38200000045,
      "d": 507.1423500000092,
      "v": 97
    },
    {
      "midi": 63,
      "hit": false,
      "t": 189428.38200000045,
      "d": 514.285200000013,
      "v": 91
    },
    {
      "midi": 53,
      "hit": false,
      "t": 189999.81000000046,
      "d": 174.99982500000624,
      "v": 59
    },
    {
      "midi": 60,
      "hit": false,
      "t": 189999.81000000046,
      "d": 207.14264999999432,
      "v": 68
    },
    {
      "midi": 57,
      "hit": false,
      "t": 189999.81000000046,
      "d": 257.14259999999194,
      "v": 68
    },
    {
      "midi": 53,
      "hit": false,
      "t": 190285.52400000044,
      "d": 417.85672499999055,
      "v": 68
    },
    {
      "midi": 57,
      "hit": false,
      "t": 190285.52400000044,
      "d": 724.9992749999801,
      "v": 36
    },
    {
      "midi": 63,
      "hit": false,
      "t": 190285.52400000044,
      "d": 728.570699999982,
      "v": 88
    },
    {
      "midi": 60,
      "hit": false,
      "t": 190285.52400000044,
      "d": 732.1421249999839,
      "v": 97
    },
    {
      "midi": 65,
      "hit": false,
      "t": 190285.52400000044,
      "d": 753.5706749999954,
      "v": 81
    },
    {
      "midi": 53,
      "hit": false,
      "t": 190856.95200000043,
      "d": 778.5706500000379,
      "v": 67
    },
    {
      "midi": 57,
      "hit": false,
      "t": 191142.66600000043,
      "d": 292.85685000001104,
      "v": 76
    },
    {
      "midi": 63,
      "hit": false,
      "t": 191142.66600000043,
      "d": 367.856775000022,
      "v": 91
    },
    {
      "midi": 65,
      "hit": false,
      "t": 191142.66600000043,
      "d": 399.9996000000101,
      "v": 94
    },
    {
      "midi": 60,
      "hit": false,
      "t": 191142.66600000043,
      "d": 474.9995250000211,
      "v": 101
    },
    {
      "midi": 57,
      "hit": false,
      "t": 191714.09400000048,
      "d": 128.57130000001052,
      "v": 63
    },
    {
      "midi": 53,
      "hit": false,
      "t": 191714.09400000048,
      "d": 171.42840000000433,
      "v": 73
    },
    {
      "midi": 53,
      "hit": false,
      "t": 191999.80800000048,
      "d": 149.99984999999288,
      "v": 59
    },
    {
      "midi": 65,
      "hit": false,
      "t": 191999.80800000048,
      "d": 732.142125000013,
      "v": 86
    },
    {
      "midi": 61,
      "hit": false,
      "t": 191999.80800000048,
      "d": 757.1421000000264,
      "v": 94
    },
    {
      "midi": 58,
      "hit": false,
      "t": 191999.80800000048,
      "d": 764.2849500000302,
      "v": 108
    },
    {
      "midi": 46,
      "hit": false,
      "t": 191999.80800000048,
      "d": 1567.8555749999941,
      "v": 97
    },
    {
      "midi": 53,
      "hit": false,
      "t": 192285.5220000005,
      "d": 124.99987500000861,
      "v": 67
    },
    {
      "midi": 53,
      "hit": false,
      "t": 192571.2360000005,
      "d": 653.5707750000001,
      "v": 70
    },
    {
      "midi": 65,
      "hit": false,
      "t": 192856.9500000005,
      "d": 792.8563499999873,
      "v": 97
    },
    {
      "midi": 58,
      "hit": false,
      "t": 192856.9500000005,
      "d": 810.7134749999968,
      "v": 97
    },
    {
      "midi": 61,
      "hit": false,
      "t": 192856.9500000005,
      "d": 814.2848999999987,
      "v": 94
    },
    {
      "midi": 53,
      "hit": false,
      "t": 193428.3780000005,
      "d": 199.9997999999905,
      "v": 59
    },
    {
      "midi": 53,
      "hit": false,
      "t": 193714.0920000005,
      "d": 174.99982500000624,
      "v": 48
    },
    {
      "midi": 46,
      "hit": false,
      "t": 193714.0920000005,
      "d": 217.85692500000005,
      "v": 53
    },
    {
      "midi": 65,
      "hit": false,
      "t": 193714.0920000005,
      "d": 707.1421499999997,
      "v": 83
    },
    {
      "midi": 58,
      "hit": false,
      "t": 193714.0920000005,
      "d": 728.5707000000111,
      "v": 86
    },
    {
      "midi": 61,
      "hit": false,
      "t": 193714.0920000005,
      "d": 728.5707000000111,
      "v": 79
    },
    {
      "midi": 53,
      "hit": false,
      "t": 193999.8060000005,
      "d": 103.57132499999716,
      "v": 50
    },
    {
      "midi": 46,
      "hit": false,
      "t": 193999.8060000005,
      "d": 1003.5704250000126,
      "v": 71
    },
    {
      "midi": 53,
      "hit": false,
      "t": 194571.23400000052,
      "d": 260.71402499999385,
      "v": 60
    },
    {
      "midi": 58,
      "hit": false,
      "t": 194571.23400000052,
      "d": 417.85672499999055,
      "v": 104
    },
    {
      "midi": 65,
      "hit": false,
      "t": 194571.23400000052,
      "d": 449.99955000000773,
      "v": 97
    },
    {
      "midi": 61,
      "hit": false,
      "t": 194571.23400000052,
      "d": 453.57097500000964,
      "v": 91
    },
    {
      "midi": 53,
      "hit": false,
      "t": 195142.66200000054,
      "d": 57.14280000000144,
      "v": 44
    },
    {
      "midi": 58,
      "hit": false,
      "t": 195142.66200000054,
      "d": 89.28562499998952,
      "v": 1
    },
    {
      "midi": 46,
      "hit": false,
      "t": 195142.66200000054,
      "d": 142.85699999998906,
      "v": 67
    },
    {
      "midi": 54,
      "hit": false,
      "t": 195428.37600000054,
      "d": 167.85697500000242,
      "v": 83
    },
    {
      "midi": 58,
      "hit": false,
      "t": 195428.37600000054,
      "d": 460.71382500001346,
      "v": 97
    },
    {
      "midi": 66,
      "hit": false,
      "t": 195428.37600000054,
      "d": 574.9994250000163,
      "v": 91
    },
    {
      "midi": 61,
      "hit": false,
      "t": 195428.37600000054,
      "d": 632.1422250000178,
      "v": 101
    },
    {
      "midi": 54,
      "hit": false,
      "t": 195714.09000000055,
      "d": 135.71415000001434,
      "v": 41
    },
    {
      "midi": 54,
      "hit": false,
      "t": 195999.80400000056,
      "d": 128.57130000001052,
      "v": 36
    },
    {
      "midi": 58,
      "hit": false,
      "t": 195999.80400000056,
      "d": 146.42842500002007,
      "v": 57
    },
    {
      "midi": 54,
      "hit": false,
      "t": 196142.66100000057,
      "d": 174.99982499997714,
      "v": 35
    },
    {
      "midi": 58,
      "hit": false,
      "t": 196285.51800000056,
      "d": 457.14239999998244,
      "v": 91
    },
    {
      "midi": 61,
      "hit": false,
      "t": 196285.51800000056,
      "d": 521.4280499999877,
      "v": 101
    },
    {
      "midi": 66,
      "hit": false,
      "t": 196285.51800000056,
      "d": 549.9994499999739,
      "v": 91
    },
    {
      "midi": 54,
      "hit": false,
      "t": 196856.94600000055,
      "d": 114.28560000000289,
      "v": 39
    },
    {
      "midi": 58,
      "hit": false,
      "t": 196856.94600000055,
      "d": 192.8569500000158,
      "v": 73
    },
    {
      "midi": 54,
      "hit": false,
      "t": 197142.66000000056,
      "d": 146.42842499999097,
      "v": 63
    },
    {
      "midi": 58,
      "hit": false,
      "t": 197142.66000000056,
      "d": 535.7137499999662,
      "v": 88
    },
    {
      "midi": 61,
      "hit": false,
      "t": 197142.66000000056,
      "d": 617.856524999952,
      "v": 88
    },
    {
      "midi": 66,
      "hit": false,
      "t": 197142.66000000056,
      "d": 632.1422249999596,
      "v": 80
    },
    {
      "midi": 54,
      "hit": false,
      "t": 197428.37400000053,
      "d": 107.14274999999907,
      "v": 49
    },
    {
      "midi": 54,
      "hit": false,
      "t": 197714.0880000005,
      "d": 482.1423749999958,
      "v": 51
    },
    {
      "midi": 58,
      "hit": false,
      "t": 197999.80200000052,
      "d": 310.7139749999915,
      "v": 94
    },
    {
      "midi": 61,
      "hit": false,
      "t": 197999.80200000052,
      "d": 482.1423749999958,
      "v": 101
    },
    {
      "midi": 66,
      "hit": false,
      "t": 197999.80200000052,
      "d": 496.42807500000345,
      "v": 91
    },
    {
      "midi": 58,
      "hit": false,
      "t": 198571.23000000053,
      "d": 107.14274999999907,
      "v": 67
    },
    {
      "midi": 51,
      "hit": false,
      "t": 198856.9440000005,
      "d": 139.28557499998715,
      "v": 70
    },
    {
      "midi": 44,
      "hit": false,
      "t": 198856.9440000005,
      "d": 232.14262499997858,
      "v": 79
    },
    {
      "midi": 56,
      "hit": false,
      "t": 198856.9440000005,
      "d": 478.5709499999939,
      "v": 73
    },
    {
      "midi": 63,
      "hit": false,
      "t": 198856.9440000005,
      "d": 574.9994249999872,
      "v": 75
    },
    {
      "midi": 60,
      "hit": false,
      "t": 198856.9440000005,
      "d": 582.1422749999911,
      "v": 79
    },
    {
      "midi": 58,
      "hit": false,
      "t": 198856.9440000005,
      "d": 596.4279749999987,
      "v": 75
    },
    {
      "midi": 51,
      "hit": false,
      "t": 199142.6580000005,
      "d": 121.4284500000067,
      "v": 57
    },
    {
      "midi": 44,
      "hit": false,
      "t": 199142.6580000005,
      "d": 1092.8560500000021,
      "v": 59
    },
    {
      "midi": 51,
      "hit": false,
      "t": 199428.3720000005,
      "d": 96.42847500002244,
      "v": 59
    },
    {
      "midi": 56,
      "hit": false,
      "t": 199428.3720000005,
      "d": 142.85700000001816,
      "v": 53
    },
    {
      "midi": 56,
      "hit": false,
      "t": 199714.0860000005,
      "d": 360.7139249999891,
      "v": 68
    },
    {
      "midi": 51,
      "hit": false,
      "t": 199714.0860000005,
      "d": 449.9995499999786,
      "v": 73
    },
    {
      "midi": 63,
      "hit": false,
      "t": 199714.0860000005,
      "d": 492.85664999997243,
      "v": 73
    },
    {
      "midi": 60,
      "hit": false,
      "t": 199714.0860000005,
      "d": 510.713774999982,
      "v": 67
    },
    {
      "midi": 58,
      "hit": false,
      "t": 199714.0860000005,
      "d": 517.8566249999858,
      "v": 77
    },
    {
      "midi": 44,
      "hit": false,
      "t": 200285.5140000005,
      "d": 67.85707500000717,
      "v": 1
    },
    {
      "midi": 56,
      "hit": false,
      "t": 200285.5140000005,
      "d": 203.5712250000215,
      "v": 70
    },
    {
      "midi": 51,
      "hit": false,
      "t": 200571.2280000005,
      "d": 139.28557500001625,
      "v": 67
    },
    {
      "midi": 44,
      "hit": false,
      "t": 200571.2280000005,
      "d": 178.57125000000815,
      "v": 88
    },
    {
      "midi": 56,
      "hit": false,
      "t": 200571.2280000005,
      "d": 707.1421499999997,
      "v": 77
    },
    {
      "midi": 58,
      "hit": false,
      "t": 200571.2280000005,
      "d": 707.1421499999997,
      "v": 73
    },
    {
      "midi": 63,
      "hit": false,
      "t": 200571.2280000005,
      "d": 721.4278500000073,
      "v": 97
    },
    {
      "midi": 60,
      "hit": false,
      "t": 200571.2280000005,
      "d": 739.2849750000169,
      "v": 81
    },
    {
      "midi": 51,
      "hit": false,
      "t": 200856.9420000005,
      "d": 92.85704999999143,
      "v": 52
    },
    {
      "midi": 44,
      "hit": false,
      "t": 200856.9420000005,
      "d": 174.99982499997714,
      "v": 57
    },
    {
      "midi": 44,
      "hit": false,
      "t": 201142.65600000048,
      "d": 735.713550000044,
      "v": 79
    },
    {
      "midi": 51,
      "hit": false,
      "t": 201142.65600000048,
      "d": 735.713550000044,
      "v": 61
    },
    {
      "midi": 56,
      "hit": false,
      "t": 201428.37000000052,
      "d": 424.99957499999437,
      "v": 81
    },
    {
      "midi": 63,
      "hit": false,
      "t": 201428.37000000052,
      "d": 553.5708750000049,
      "v": 97
    },
    {
      "midi": 60,
      "hit": false,
      "t": 201428.37000000052,
      "d": 557.1423000000068,
      "v": 75
    },
    {
      "midi": 58,
      "hit": false,
      "t": 201428.37000000052,
      "d": 564.2851500000106,
      "v": 86
    },
    {
      "midi": 44,
      "hit": false,
      "t": 201999.79800000053,
      "d": 92.85704999999143,
      "v": 41
    },
    {
      "midi": 56,
      "hit": false,
      "t": 201999.79800000053,
      "d": 260.71402499999385,
      "v": 60
    },
    {
      "midi": 51,
      "hit": false,
      "t": 202142.65500000052,
      "d": 67.85707500000717,
      "v": 1
    },
    {
      "midi": 51,
      "hit": false,
      "t": 202285.51200000054,
      "d": 139.28557499998715,
      "v": 64
    },
    {
      "midi": 44,
      "hit": false,
      "t": 202285.51200000054,
      "d": 146.42842499999097,
      "v": 91
    },
    {
      "midi": 56,
      "hit": false,
      "t": 202285.51200000054,
      "d": 728.5706999999529,
      "v": 83
    },
    {
      "midi": 60,
      "hit": false,
      "t": 202285.51200000054,
      "d": 735.7135499999567,
      "v": 88
    },
    {
      "midi": 58,
      "hit": false,
      "t": 202285.51200000054,
      "d": 742.8563999999606,
      "v": 97
    },
    {
      "midi": 63,
      "hit": false,
      "t": 202285.51200000054,
      "d": 746.4278249999625,
      "v": 101
    },
    {
      "midi": 51,
      "hit": false,
      "t": 202571.22600000052,
      "d": 85.71419999998761,
      "v": 54
    },
    {
      "midi": 44,
      "hit": false,
      "t": 202571.22600000052,
      "d": 124.99987499997951,
      "v": 83
    },
    {
      "midi": 51,
      "hit": false,
      "t": 202856.9400000005,
      "d": 96.42847499999334,
      "v": 60
    },
    {
      "midi": 44,
      "hit": false,
      "t": 202856.9400000005,
      "d": 1014.2846999999892,
      "v": 67
    },
    {
      "midi": 56,
      "hit": false,
      "t": 203142.6540000005,
      "d": 371.42819999999483,
      "v": 88
    },
    {
      "midi": 60,
      "hit": false,
      "t": 203142.6540000005,
      "d": 482.1423749999958,
      "v": 83
    },
    {
      "midi": 58,
      "hit": false,
      "t": 203142.6540000005,
      "d": 510.713774999982,
      "v": 94
    },
    {
      "midi": 63,
      "hit": false,
      "t": 203142.6540000005,
      "d": 524.9994749999896,
      "v": 91
    },
    {
      "midi": 51,
      "hit": false,
      "t": 203142.6540000005,
      "d": 717.8564249999763,
      "v": 75
    },
    {
      "midi": 56,
      "hit": false,
      "t": 203714.0820000005,
      "d": 274.9997250000015,
      "v": 64
    },
    {
      "midi": 51,
      "hit": false,
      "t": 203999.7960000005,
      "d": 142.85700000001816,
      "v": 79
    },
    {
      "midi": 44,
      "hit": false,
      "t": 203999.7960000005,
      "d": 146.42842500002007,
      "v": 91
    },
    {
      "midi": 56,
      "hit": false,
      "t": 203999.7960000005,
      "d": 667.8564750000369,
      "v": 86
    },
    {
      "midi": 63,
      "hit": false,
      "t": 203999.7960000005,
      "d": 746.4278250000498,
      "v": 91
    },
    {
      "midi": 58,
      "hit": false,
      "t": 203999.7960000005,
      "d": 767.8563750000612,
      "v": 86
    },
    {
      "midi": 60,
      "hit": false,
      "t": 203999.7960000005,
      "d": 771.4278000000631,
      "v": 86
    },
    {
      "midi": 51,
      "hit": false,
      "t": 204285.51000000053,
      "d": 107.14274999999907,
      "v": 51
    },
    {
      "midi": 44,
      "hit": false,
      "t": 204285.51000000053,
      "d": 742.8564000000188,
      "v": 77
    },
    {
      "midi": 51,
      "hit": false,
      "t": 204571.22400000054,
      "d": 96.42847499999334,
      "v": 61
    },
    {
      "midi": 51,
      "hit": false,
      "t": 204856.93800000055,
      "d": 217.85692500000005,
      "v": 68
    },
    {
      "midi": 56,
      "hit": false,
      "t": 204856.93800000055,
      "d": 289.2854250000091,
      "v": 86
    },
    {
      "midi": 60,
      "hit": false,
      "t": 204856.93800000055,
      "d": 403.571025000012,
      "v": 86
    },
    {
      "midi": 58,
      "hit": false,
      "t": 204856.93800000055,
      "d": 460.71382500001346,
      "v": 97
    },
    {
      "midi": 63,
      "hit": false,
      "t": 204856.93800000055,
      "d": 471.4281000000192,
      "v": 94
    },
    {
      "midi": 56,
      "hit": false,
      "t": 205428.36600000056,
      "d": 96.42847499999334,
      "v": 77
    },
    {
      "midi": 49,
      "hit": false,
      "t": 205714.08000000054,
      "d": 174.99982500000624,
      "v": 83
    },
    {
      "midi": 56,
      "hit": false,
      "t": 205714.08000000054,
      "d": 192.8569500000158,
      "v": 68
    },
    {
      "midi": 61,
      "hit": false,
      "t": 205714.08000000054,
      "d": 435.7138500000001,
      "v": 88
    },
    {
      "midi": 68,
      "hit": false,
      "t": 205714.08000000054,
      "d": 685.7136000000173,
      "v": 91
    },
    {
      "midi": 63,
      "hit": false,
      "t": 205714.08000000054,
      "d": 724.9992750000383,
      "v": 91
    },
    {
      "midi": 65,
      "hit": false,
      "t": 205714.08000000054,
      "d": 724.9992750000383,
      "v": 91
    },
    {
      "midi": 56,
      "hit": false,
      "t": 205999.79400000055,
      "d": 82.1427749999857,
      "v": 36
    },
    {
      "midi": 49,
      "hit": false,
      "t": 205999.79400000055,
      "d": 1349.998649999994,
      "v": 88
    },
    {
      "midi": 56,
      "hit": false,
      "t": 206285.50800000055,
      "d": 132.14272500001243,
      "v": 66
    },
    {
      "midi": 61,
      "hit": false,
      "t": 206571.2220000006,
      "d": 357.1424999999872,
      "v": 91
    },
    {
      "midi": 56,
      "hit": false,
      "t": 206571.2220000006,
      "d": 414.28529999998864,
      "v": 71
    },
    {
      "midi": 68,
      "hit": false,
      "t": 206571.2220000006,
      "d": 535.7137499999953,
      "v": 91
    },
    {
      "midi": 65,
      "hit": false,
      "t": 206571.2220000006,
      "d": 653.570774999971,
      "v": 86
    },
    {
      "midi": 63,
      "hit": false,
      "t": 206571.2220000006,
      "d": 707.1421499999706,
      "v": 86
    },
    {
      "midi": 56,
      "hit": false,
      "t": 207142.65000000058,
      "d": 164.2855499999714,
      "v": 60
    },
    {
      "midi": 61,
      "hit": false,
      "t": 207142.65000000058,
      "d": 214.28549999996903,
      "v": 70
    },
    {
      "midi": 63,
      "hit": false,
      "t": 207428.36400000055,
      "d": 153.57127499999478,
      "v": 79
    },
    {
      "midi": 56,
      "hit": false,
      "t": 207428.36400000055,
      "d": 174.99982500000624,
      "v": 53
    },
    {
      "midi": 49,
      "hit": false,
      "t": 207428.36400000055,
      "d": 182.14267500001006,
      "v": 62
    },
    {
      "midi": 61,
      "hit": false,
      "t": 207428.36400000055,
      "d": 632.1422250000469,
      "v": 71
    },
    {
      "midi": 68,
      "hit": false,
      "t": 207428.36400000055,
      "d": 639.2850750000507,
      "v": 94
    },
    {
      "midi": 65,
      "hit": false,
      "t": 207428.36400000055,
      "d": 714.2850000000617,
      "v": 86
    },
    {
      "midi": 56,
      "hit": false,
      "t": 207714.0780000006,
      "d": 121.4284500000067,
      "v": 52
    },
    {
      "midi": 49,
      "hit": false,
      "t": 207714.0780000006,
      "d": 1085.7131999999983,
      "v": 61
    },
    {
      "midi": 56,
      "hit": false,
      "t": 207999.7920000006,
      "d": 649.9993499999982,
      "v": 71
    },
    {
      "midi": 61,
      "hit": false,
      "t": 208285.5060000006,
      "d": 403.5710249999829,
      "v": 91
    },
    {
      "midi": 68,
      "hit": false,
      "t": 208285.5060000006,
      "d": 507.14234999998007,
      "v": 104
    },
    {
      "midi": 65,
      "hit": false,
      "t": 208285.5060000006,
      "d": 539.2851749999973,
      "v": 97
    },
    {
      "midi": 49,
      "hit": false,
      "t": 208856.9340000006,
      "d": 146.42842499999097,
      "v": 52
    },
    {
      "midi": 56,
      "hit": false,
      "t": 208856.9340000006,
      "d": 167.85697500000242,
      "v": 62
    },
    {
      "midi": 61,
      "hit": false,
      "t": 208856.9340000006,
      "d": 239.2854750000115,
      "v": 66
    },
    {
      "midi": 56,
      "hit": false,
      "t": 209142.6480000006,
      "d": 192.85694999998668,
      "v": 66
    },
    {
      "midi": 49,
      "hit": false,
      "t": 209142.6480000006,
      "d": 203.5712249999924,
      "v": 88
    },
    {
      "midi": 61,
      "hit": false,
      "t": 209142.6480000006,
      "d": 660.713625000004,
      "v": 83
    },
    {
      "midi": 68,
      "hit": false,
      "t": 209142.6480000006,
      "d": 742.8564000000188,
      "v": 97
    },
    {
      "midi": 63,
      "hit": false,
      "t": 209142.6480000006,
      "d": 778.5706500000088,
      "v": 86
    },
    {
      "midi": 65,
      "hit": false,
      "t": 209142.6480000006,
      "d": 785.7135000000126,
      "v": 91
    },
    {
      "midi": 49,
      "hit": false,
      "t": 209428.3620000006,
      "d": 174.99982500000624,
      "v": 79
    },
    {
      "midi": 56,
      "hit": false,
      "t": 209714.0760000006,
      "d": 103.57132499999716,
      "v": 67
    },
    {
      "midi": 49,
      "hit": false,
      "t": 209714.0760000006,
      "d": 732.142125000013,
      "v": 83
    },
    {
      "midi": 61,
      "hit": false,
      "t": 209999.79000000062,
      "d": 310.7139749999915,
      "v": 83
    },
    {
      "midi": 56,
      "hit": false,
      "t": 209999.79000000062,
      "d": 474.999524999992,
      "v": 70
    },
    {
      "midi": 68,
      "hit": false,
      "t": 209999.79000000062,
      "d": 524.9994749999896,
      "v": 101
    },
    {
      "midi": 65,
      "hit": false,
      "t": 209999.79000000062,
      "d": 549.999450000003,
      "v": 88
    },
    {
      "midi": 63,
      "hit": false,
      "t": 209999.79000000062,
      "d": 585.7137000000221,
      "v": 86
    },
    {
      "midi": 56,
      "hit": false,
      "t": 210571.21800000063,
      "d": 160.7141249999986,
      "v": 52
    },
    {
      "midi": 49,
      "hit": false,
      "t": 210571.21800000063,
      "d": 192.85694999998668,
      "v": 59
    },
    {
      "midi": 61,
      "hit": false,
      "t": 210571.21800000063,
      "d": 260.71402499999385,
      "v": 70
    },
    {
      "midi": 49,
      "hit": false,
      "t": 210856.93200000064,
      "d": 146.42842499999097,
      "v": 91
    },
    {
      "midi": 56,
      "hit": false,
      "t": 210856.93200000064,
      "d": 207.14264999999432,
      "v": 71
    },
    {
      "midi": 61,
      "hit": false,
      "t": 210856.93200000064,
      "d": 724.9992749999801,
      "v": 73
    },
    {
      "midi": 68,
      "hit": false,
      "t": 210856.93200000064,
      "d": 739.2849749999878,
      "v": 88
    },
    {
      "midi": 63,
      "hit": false,
      "t": 210856.93200000064,
      "d": 757.1420999999973,
      "v": 94
    },
    {
      "midi": 65,
      "hit": false,
      "t": 210856.93200000064,
      "d": 764.2849500000011,
      "v": 86
    },
    {
      "midi": 49,
      "hit": false,
      "t": 211142.64600000065,
      "d": 139.28557499998715,
      "v": 83
    },
    {
      "midi": 49,
      "hit": false,
      "t": 211428.36000000063,
      "d": 399.9996000000101,
      "v": 81
    },
    {
      "midi": 61,
      "hit": false,
      "t": 211714.07400000063,
      "d": 164.2855500000005,
      "v": 83
    },
    {
      "midi": 56,
      "hit": false,
      "t": 211714.07400000063,
      "d": 242.8569000000134,
      "v": 70
    },
    {
      "midi": 68,
      "hit": false,
      "t": 211714.07400000063,
      "d": 467.8566750000173,
      "v": 97
    },
    {
      "midi": 65,
      "hit": false,
      "t": 211714.07400000063,
      "d": 492.85665000003064,
      "v": 83
    },
    {
      "midi": 63,
      "hit": false,
      "t": 211714.07400000063,
      "d": 503.57092500003637,
      "v": 83
    },
    {
      "midi": 49,
      "hit": false,
      "t": 211856.93100000062,
      "d": 207.14265000002342,
      "v": 55
    },
    {
      "midi": 61,
      "hit": false,
      "t": 212285.50200000068,
      "d": 85.71419999998761,
      "v": 64
    },
    {
      "midi": 51,
      "hit": false,
      "t": 212571.21600000066,
      "d": 153.57127499999478,
      "v": 64
    },
    {
      "midi": 56,
      "hit": false,
      "t": 212571.21600000066,
      "d": 382.14247500000056,
      "v": 91
    },
    {
      "midi": 63,
      "hit": false,
      "t": 212571.21600000066,
      "d": 728.5707000000111,
      "v": 88
    },
    {
      "midi": 60,
      "hit": false,
      "t": 212571.21600000066,
      "d": 742.8564000000188,
      "v": 88
    },
    {
      "midi": 58,
      "hit": false,
      "t": 212571.21600000066,
      "d": 749.9992500000226,
      "v": 94
    },
    {
      "midi": 44,
      "hit": false,
      "t": 212571.21600000066,
      "d": 1349.9986500000232,
      "v": 91
    },
    {
      "midi": 51,
      "hit": false,
      "t": 212856.93000000066,
      "d": 99.99989999999525,
      "v": 58
    },
    {
      "midi": 51,
      "hit": false,
      "t": 213142.64400000067,
      "d": 110.71417500000098,
      "v": 53
    },
    {
      "midi": 56,
      "hit": false,
      "t": 213428.35800000068,
      "d": 378.57104999999865,
      "v": 83
    },
    {
      "midi": 51,
      "hit": false,
      "t": 213428.35800000068,
      "d": 442.8567000000039,
      "v": 64
    },
    {
      "midi": 63,
      "hit": false,
      "t": 213428.35800000068,
      "d": 457.14240000001155,
      "v": 91
    },
    {
      "midi": 58,
      "hit": false,
      "t": 213428.35800000068,
      "d": 499.99950000000536,
      "v": 91
    },
    {
      "midi": 60,
      "hit": false,
      "t": 213428.35800000068,
      "d": 499.99950000000536,
      "v": 79
    },
    {
      "midi": 51,
      "hit": false,
      "t": 213999.7860000007,
      "d": 153.57127499999478,
      "v": 70
    },
    {
      "midi": 56,
      "hit": false,
      "t": 213999.7860000007,
      "d": 178.57125000000815,
      "v": 60
    },
    {
      "midi": 44,
      "hit": false,
      "t": 213999.7860000007,
      "d": 210.71407499999623,
      "v": 53
    },
    {
      "midi": 51,
      "hit": false,
      "t": 214285.5000000007,
      "d": 117.8570250000048,
      "v": 61
    },
    {
      "midi": 56,
      "hit": false,
      "t": 214285.5000000007,
      "d": 692.8564500000211,
      "v": 75
    },
    {
      "midi": 63,
      "hit": false,
      "t": 214285.5000000007,
      "d": 699.999300000025,
      "v": 88
    },
    {
      "midi": 60,
      "hit": false,
      "t": 214285.5000000007,
      "d": 728.5707000000111,
      "v": 88
    },
    {
      "midi": 44,
      "hit": false,
      "t": 214285.5000000007,
      "d": 1557.1413000000175,
      "v": 75
    },
    {
      "midi": 51,
      "hit": false,
      "t": 214856.9280000007,
      "d": 592.8565499999968,
      "v": 68
    },
    {
      "midi": 56,
      "hit": false,
      "t": 215142.64200000072,
      "d": 410.71387499998673,
      "v": 88
    },
    {
      "midi": 63,
      "hit": false,
      "t": 215142.64200000072,
      "d": 474.999524999992,
      "v": 97
    },
    {
      "midi": 60,
      "hit": false,
      "t": 215142.64200000072,
      "d": 532.1423249999934,
      "v": 88
    },
    {
      "midi": 51,
      "hit": false,
      "t": 215714.0700000007,
      "d": 153.5712750000239,
      "v": 71
    },
    {
      "midi": 56,
      "hit": false,
      "t": 215714.0700000007,
      "d": 228.57120000003488,
      "v": 77
    },
    {
      "midi": 51,
      "hit": false,
      "t": 215999.78400000074,
      "d": 135.71415000001434,
      "v": 73
    },
    {
      "midi": 44,
      "hit": false,
      "t": 215999.78400000074,
      "d": 149.99985000002198,
      "v": 94
    },
    {
      "midi": 56,
      "hit": false,
      "t": 215999.78400000074,
      "d": 482.142375000054,
      "v": 79
    },
    {
      "midi": 63,
      "hit": false,
      "t": 215999.78400000074,
      "d": 571.4280000000435,
      "v": 91
    },
    {
      "midi": 60,
      "hit": false,
      "t": 215999.78400000074,
      "d": 592.856550000055,
      "v": 83
    },
    {
      "midi": 51,
      "hit": false,
      "t": 216285.49800000078,
      "d": 128.57130000001052,
      "v": 71
    },
    {
      "midi": 44,
      "hit": false,
      "t": 216285.49800000078,
      "d": 1114.2846000000427,
      "v": 86
    },
    {
      "midi": 51,
      "hit": false,
      "t": 216571.21200000079,
      "d": 57.14280000000144,
      "v": 58
    },
    {
      "midi": 56,
      "hit": false,
      "t": 216571.21200000079,
      "d": 182.14267500001006,
      "v": 70
    },
    {
      "midi": 51,
      "hit": false,
      "t": 216856.9260000008,
      "d": 460.71382500001346,
      "v": 81
    },
    {
      "midi": 56,
      "hit": false,
      "t": 216856.9260000008,
      "d": 485.7138000000268,
      "v": 75
    },
    {
      "midi": 63,
      "hit": false,
      "t": 216856.9260000008,
      "d": 549.9994500000321,
      "v": 88
    },
    {
      "midi": 58,
      "hit": false,
      "t": 216856.9260000008,
      "d": 582.1422750000493,
      "v": 86
    },
    {
      "midi": 60,
      "hit": false,
      "t": 216856.9260000008,
      "d": 599.9994000000588,
      "v": 79
    },
    {
      "midi": 51,
      "hit": false,
      "t": 217428.35400000084,
      "d": 160.7141250000277,
      "v": 79
    },
    {
      "midi": 44,
      "hit": false,
      "t": 217428.35400000084,
      "d": 178.57125000003725,
      "v": 61
    },
    {
      "midi": 56,
      "hit": false,
      "t": 217428.35400000084,
      "d": 217.85692500002915,
      "v": 67
    },
    {
      "midi": 56,
      "hit": false,
      "t": 217714.06800000087,
      "d": 421.42814999999246,
      "v": 83
    },
    {
      "midi": 51,
      "hit": false,
      "t": 217714.06800000087,
      "d": 460.71382499998435,
      "v": 64
    },
    {
      "midi": 63,
      "hit": false,
      "t": 217714.06800000087,
      "d": 499.99949999997625,
      "v": 91
    },
    {
      "midi": 60,
      "hit": false,
      "t": 217714.06800000087,
      "d": 549.9994499999739,
      "v": 88
    },
    {
      "midi": 44,
      "hit": false,
      "t": 217714.06800000087,
      "d": 1042.8561000000045,
      "v": 91
    },
    {
      "midi": 56,
      "hit": false,
      "t": 218285.49600000086,
      "d": 182.14267500001006,
      "v": 64
    },
    {
      "midi": 51,
      "hit": false,
      "t": 218571.21000000086,
      "d": 246.42832500001532,
      "v": 94
    },
    {
      "midi": 56,
      "hit": false,
      "t": 218571.21000000086,
      "d": 278.5711500000034,
      "v": 81
    },
    {
      "midi": 63,
      "hit": false,
      "t": 218571.21000000086,
      "d": 449.99955000000773,
      "v": 97
    },
    {
      "midi": 60,
      "hit": false,
      "t": 218571.21000000086,
      "d": 453.57097500000964,
      "v": 91
    },
    {
      "midi": 56,
      "hit": false,
      "t": 219142.63800000088,
      "d": 74.99992500001099,
      "v": 63
    },
    {
      "midi": 56,
      "hit": false,
      "t": 219428.3520000009,
      "d": 157.1426999999967,
      "v": 71
    },
    {
      "midi": 68,
      "hit": false,
      "t": 219428.3520000009,
      "d": 717.8564250000345,
      "v": 97
    },
    {
      "midi": 61,
      "hit": false,
      "t": 219428.3520000009,
      "d": 728.5707000000402,
      "v": 101
    },
    {
      "midi": 65,
      "hit": false,
      "t": 219428.3520000009,
      "d": 767.8563750000321,
      "v": 101
    },
    {
      "midi": 49,
      "hit": false,
      "t": 219428.3520000009,
      "d": 1599.9984000000404,
      "v": 81
    },
    {
      "midi": 56,
      "hit": false,
      "t": 219714.0660000009,
      "d": 117.8570250000048,
      "v": 54
    },
    {
      "midi": 56,
      "hit": false,
      "t": 219999.7800000009,
      "d": 128.57130000001052,
      "v": 60
    },
    {
      "midi": 56,
      "hit": false,
      "t": 220285.4940000009,
      "d": 439.285275000002,
      "v": 68
    },
    {
      "midi": 61,
      "hit": false,
      "t": 220285.4940000009,
      "d": 464.28525000001537,
      "v": 81
    },
    {
      "midi": 68,
      "hit": false,
      "t": 220285.4940000009,
      "d": 532.1423250000225,
      "v": 97
    },
    {
      "midi": 65,
      "hit": false,
      "t": 220285.4940000009,
      "d": 803.5706250000221,
      "v": 86
    },
    {
      "midi": 68,
      "hit": false,
      "t": 220856.92200000092,
      "d": 157.1426999999967,
      "v": 59
    },
    {
      "midi": 56,
      "hit": false,
      "t": 220856.92200000092,
      "d": 260.71402499999385,
      "v": 66
    },
    {
      "midi": 61,
      "hit": false,
      "t": 220856.92200000092,
      "d": 710.7135750000016,
      "v": 68
    },
    {
      "midi": 56,
      "hit": false,
      "t": 221142.63600000093,
      "d": 135.71415000001434,
      "v": 49
    },
    {
      "midi": 68,
      "hit": false,
      "t": 221142.63600000093,
      "d": 535.7137499999953,
      "v": 88
    },
    {
      "midi": 65,
      "hit": false,
      "t": 221142.63600000093,
      "d": 542.8565999999992,
      "v": 86
    },
    {
      "midi": 49,
      "hit": false,
      "t": 221142.63600000093,
      "d": 1242.855899999995,
      "v": 94
    },
    {
      "midi": 56,
      "hit": false,
      "t": 221428.35000000094,
      "d": 85.71419999998761,
      "v": 54
    },
    {
      "midi": 56,
      "hit": false,
      "t": 221714.06400000092,
      "d": 103.57132499999716,
      "v": 58
    },
    {
      "midi": 61,
      "hit": false,
      "t": 221714.06400000092,
      "d": 182.14267500001006,
      "v": 68
    },
    {
      "midi": 61,
      "hit": false,
      "t": 221999.77800000092,
      "d": 346.42822500001057,
      "v": 79
    },
    {
      "midi": 56,
      "hit": false,
      "t": 221999.77800000092,
      "d": 403.571025000012,
      "v": 73
    },
    {
      "midi": 68,
      "hit": false,
      "t": 221999.77800000092,
      "d": 482.1423750000249,
      "v": 91
    },
    {
      "midi": 65,
      "hit": false,
      "t": 221999.77800000092,
      "d": 507.1423500000383,
      "v": 86
    },
    {
      "midi": 49,
      "hit": false,
      "t": 222571.20600000097,
      "d": 128.57130000001052,
      "v": 52
    },
    {
      "midi": 61,
      "hit": false,
      "t": 222571.20600000097,
      "d": 221.42835000000196,
      "v": 68
    },
    {
      "midi": 56,
      "hit": false,
      "t": 222571.20600000097,
      "d": 449.99955000000773,
      "v": 58
    },
    {
      "midi": 49,
      "hit": false,
      "t": 222856.92000000097,
      "d": 178.57125000000815,
      "v": 77
    },
    {
      "midi": 68,
      "hit": false,
      "t": 222856.92000000097,
      "d": 774.9992250000068,
      "v": 81
    },
    {
      "midi": 61,
      "hit": false,
      "t": 222856.92000000097,
      "d": 778.5706500000088,
      "v": 70
    },
    {
      "midi": 65,
      "hit": false,
      "t": 222856.92000000097,
      "d": 814.2848999999987,
      "v": 83
    },
    {
      "midi": 49,
      "hit": false,
      "t": 223142.63400000098,
      "d": 1299.9986999999674,
      "v": 70
    },
    {
      "midi": 56,
      "hit": false,
      "t": 223428.348000001,
      "d": 546.428024999972,
      "v": 54
    },
    {
      "midi": 61,
      "hit": false,
      "t": 223714.06200000097,
      "d": 417.85672499999055,
      "v": 86
    },
    {
      "midi": 68,
      "hit": false,
      "t": 223714.06200000097,
      "d": 524.9994749999896,
      "v": 91
    },
    {
      "midi": 65,
      "hit": false,
      "t": 223714.06200000097,
      "d": 814.2848999999696,
      "v": 91
    },
    {
      "midi": 56,
      "hit": false,
      "t": 224285.49000000095,
      "d": 449.9995499999786,
      "v": 57
    },
    {
      "midi": 61,
      "hit": false,
      "t": 224571.20400000093,
      "d": 7.142850000003818,
      "v": 73
    },
    {
      "midi": 68,
      "hit": false,
      "t": 224571.20400000093,
      "d": 396.4281750000082,
      "v": 91
    },
    {
      "midi": 65,
      "hit": false,
      "t": 224571.20400000093,
      "d": 446.4281250000058,
      "v": 94
    },
    {
      "midi": 49,
      "hit": false,
      "t": 224571.20400000093,
      "d": 1164.2845500000694,
      "v": 86
    },
    {
      "midi": 56,
      "hit": false,
      "t": 224856.91800000094,
      "d": 378.57104999999865,
      "v": 63
    },
    {
      "midi": 61,
      "hit": false,
      "t": 225142.63200000094,
      "d": 149.99984999999288,
      "v": 83
    },
    {
      "midi": 63,
      "hit": false,
      "t": 225428.34600000095,
      "d": 124.99987500000861,
      "v": 88
    },
    {
      "midi": 56,
      "hit": false,
      "t": 225428.34600000095,
      "d": 221.42835000003106,
      "v": 73
    },
    {
      "midi": 68,
      "hit": false,
      "t": 225428.34600000095,
      "d": 464.28525000004447,
      "v": 86
    },
    {
      "midi": 65,
      "hit": false,
      "t": 225571.20300000097,
      "d": 428.5710000000254,
      "v": 75
    },
    {
      "midi": 61,
      "hit": false,
      "t": 225714.060000001,
      "d": 271.4282999999996,
      "v": 94
    },
    {
      "midi": 56,
      "hit": false,
      "t": 225999.774000001,
      "d": 221.42835000000196,
      "v": 73
    },
    {
      "midi": 58,
      "hit": false,
      "t": 226285.488000001,
      "d": 74.99992500001099,
      "v": 64
    },
    {
      "midi": 51,
      "hit": false,
      "t": 226285.488000001,
      "d": 128.57130000001052,
      "v": 58
    },
    {
      "midi": 63,
      "hit": false,
      "t": 226285.488000001,
      "d": 732.142125000013,
      "v": 97
    },
    {
      "midi": 56,
      "hit": false,
      "t": 226285.488000001,
      "d": 749.9992500000226,
      "v": 83
    },
    {
      "midi": 60,
      "hit": false,
      "t": 226285.488000001,
      "d": 753.5706750000245,
      "v": 86
    },
    {
      "midi": 44,
      "hit": false,
      "t": 226285.488000001,
      "d": 1596.4269750000094,
      "v": 79
    },
    {
      "midi": 51,
      "hit": false,
      "t": 226571.202000001,
      "d": 107.14274999999907,
      "v": 63
    },
    {
      "midi": 51,
      "hit": false,
      "t": 226856.91600000102,
      "d": 453.57097500000964,
      "v": 62
    },
    {
      "midi": 56,
      "hit": false,
      "t": 227142.63000000102,
      "d": 346.42822500001057,
      "v": 71
    },
    {
      "midi": 63,
      "hit": false,
      "t": 227142.63000000102,
      "d": 489.2852249999996,
      "v": 86
    },
    {
      "midi": 60,
      "hit": false,
      "t": 227142.63000000102,
      "d": 632.1422249999887,
      "v": 79
    },
    {
      "midi": 51,
      "hit": false,
      "t": 227714.058000001,
      "d": 182.14267500001006,
      "v": 68
    },
    {
      "midi": 56,
      "hit": false,
      "t": 227714.058000001,
      "d": 214.28549999999814,
      "v": 71
    },
    {
      "midi": 51,
      "hit": false,
      "t": 227999.77200000102,
      "d": 96.42847499999334,
      "v": 55
    },
    {
      "midi": 63,
      "hit": false,
      "t": 227999.77200000102,
      "d": 674.9993250000116,
      "v": 88
    },
    {
      "midi": 56,
      "hit": false,
      "t": 227999.77200000102,
      "d": 689.2850250000192,
      "v": 73
    },
    {
      "midi": 60,
      "hit": false,
      "t": 227999.77200000102,
      "d": 689.2850250000192,
      "v": 81
    },
    {
      "midi": 44,
      "hit": false,
      "t": 227999.77200000102,
      "d": 1546.4270250000409,
      "v": 83
    },
    {
      "midi": 51,
      "hit": false,
      "t": 228285.48600000102,
      "d": 99.99989999999525,
      "v": 64
    },
    {
      "midi": 51,
      "hit": false,
      "t": 228571.20000000103,
      "d": 607.1422500000044,
      "v": 77
    },
    {
      "midi": 56,
      "hit": false,
      "t": 228856.91400000104,
      "d": 332.14252500000293,
      "v": 86
    },
    {
      "midi": 63,
      "hit": false,
      "t": 228856.91400000104,
      "d": 510.7137750000111,
      "v": 101
    },
    {
      "midi": 60,
      "hit": false,
      "t": 228856.91400000104,
      "d": 589.285125000024,
      "v": 97
    },
    {
      "midi": 51,
      "hit": false,
      "t": 229428.34200000105,
      "d": 178.57125000000815,
      "v": 75
    },
    {
      "midi": 56,
      "hit": false,
      "t": 229428.34200000105,
      "d": 239.2854750000115,
      "v": 66
    },
    {
      "midi": 51,
      "hit": false,
      "t": 229714.05600000106,
      "d": 124.99987500000861,
      "v": 61
    },
    {
      "midi": 56,
      "hit": false,
      "t": 229714.05600000106,
      "d": 385.71390000000247,
      "v": 81
    },
    {
      "midi": 63,
      "hit": false,
      "t": 229714.05600000106,
      "d": 474.999524999992,
      "v": 79
    },
    {
      "midi": 60,
      "hit": false,
      "t": 229714.05600000106,
      "d": 528.5708999999915,
      "v": 81
    },
    {
      "midi": 44,
      "hit": false,
      "t": 229714.05600000106,
      "d": 1307.1415499999712,
      "v": 94
    },
    {
      "midi": 51,
      "hit": false,
      "t": 229999.77000000107,
      "d": 107.14274999999907,
      "v": 62
    },
    {
      "midi": 51,
      "hit": false,
      "t": 230285.48400000104,
      "d": 96.42847499999334,
      "v": 60
    },
    {
      "midi": 56,
      "hit": false,
      "t": 230285.48400000104,
      "d": 160.7141249999986,
      "v": 61
    },
    {
      "midi": 51,
      "hit": false,
      "t": 230571.19800000105,
      "d": 367.8567749999929,
      "v": 53
    },
    {
      "midi": 56,
      "hit": false,
      "t": 230571.19800000105,
      "d": 367.8567749999929,
      "v": 73
    },
    {
      "midi": 63,
      "hit": false,
      "t": 230571.19800000105,
      "d": 503.57092499997816,
      "v": 86
    },
    {
      "midi": 60,
      "hit": false,
      "t": 230571.19800000105,
      "d": 532.1423249999643,
      "v": 70
    },
    {
      "midi": 51,
      "hit": false,
      "t": 231142.626000001,
      "d": 185.71410000001197,
      "v": 59
    },
    {
      "midi": 56,
      "hit": false,
      "t": 231142.626000001,
      "d": 214.28549999999814,
      "v": 64
    },
    {
      "midi": 51,
      "hit": false,
      "t": 231428.34000000102,
      "d": 189.28552500001388,
      "v": 54
    },
    {
      "midi": 56,
      "hit": false,
      "t": 231428.34000000102,
      "d": 389.2853250000044,
      "v": 77
    },
    {
      "midi": 63,
      "hit": false,
      "t": 231428.34000000102,
      "d": 478.5709499999939,
      "v": 88
    },
    {
      "midi": 60,
      "hit": false,
      "t": 231428.34000000102,
      "d": 507.14234999998007,
      "v": 86
    },
    {
      "midi": 44,
      "hit": false,
      "t": 231428.34000000102,
      "d": 978.5704499999993,
      "v": 86
    },
    {
      "midi": 56,
      "hit": false,
      "t": 231999.768000001,
      "d": 185.71410000001197,
      "v": 67
    },
    {
      "midi": 51,
      "hit": false,
      "t": 231999.768000001,
      "d": 189.28552500001388,
      "v": 66
    },
    {
      "midi": 51,
      "hit": false,
      "t": 232285.482000001,
      "d": 232.14262500000768,
      "v": 50
    },
    {
      "midi": 56,
      "hit": false,
      "t": 232285.482000001,
      "d": 271.4282999999996,
      "v": 79
    },
    {
      "midi": 63,
      "hit": false,
      "t": 232285.482000001,
      "d": 453.57097500000964,
      "v": 91
    },
    {
      "midi": 60,
      "hit": false,
      "t": 232285.482000001,
      "d": 474.9995250000211,
      "v": 88
    },
    {
      "midi": 56,
      "hit": false,
      "t": 232856.91000000102,
      "d": 64.28565000000526,
      "v": 61
    },
    {
      "midi": 56,
      "hit": false,
      "t": 233142.62400000103,
      "d": 149.99984999999288,
      "v": 67
    },
    {
      "midi": 63,
      "hit": false,
      "t": 233142.62400000103,
      "d": 407.1424499999848,
      "v": 88
    },
    {
      "midi": 68,
      "hit": false,
      "t": 233142.62400000103,
      "d": 749.9992499999644,
      "v": 94
    },
    {
      "midi": 61,
      "hit": false,
      "t": 233142.62400000103,
      "d": 767.8563749999739,
      "v": 88
    },
    {
      "midi": 65,
      "hit": false,
      "t": 233142.62400000103,
      "d": 785.7134999999835,
      "v": 91
    },
    {
      "midi": 49,
      "hit": false,
      "t": 233142.62400000103,
      "d": 1224.9987749999855,
      "v": 83
    },
    {
      "midi": 56,
      "hit": false,
      "t": 233428.338000001,
      "d": 114.28560000000289,
      "v": 62
    },
    {
      "midi": 56,
      "hit": false,
      "t": 233714.05200000101,
      "d": 142.85699999998906,
      "v": 71
    },
    {
      "midi": 61,
      "hit": false,
      "t": 233999.76600000102,
      "d": 414.28529999998864,
      "v": 79
    },
    {
      "midi": 68,
      "hit": false,
      "t": 233999.76600000102,
      "d": 428.5709999999963,
      "v": 97
    },
    {
      "midi": 56,
      "hit": false,
      "t": 233999.76600000102,
      "d": 432.1424249999982,
      "v": 68
    },
    {
      "midi": 65,
      "hit": false,
      "t": 233999.76600000102,
      "d": 489.2852249999996,
      "v": 88
    },
    {
      "midi": 49,
      "hit": false,
      "t": 234571.194000001,
      "d": 192.8569500000158,
      "v": 53
    },
    {
      "midi": 56,
      "hit": false,
      "t": 234571.194000001,
      "d": 199.9998000000196,
      "v": 64
    },
    {
      "midi": 61,
      "hit": false,
      "t": 234571.194000001,
      "d": 214.28550000002724,
      "v": 64
    },
    {
      "midi": 56,
      "hit": false,
      "t": 234856.908000001,
      "d": 132.14272500001243,
      "v": 57
    },
    {
      "midi": 61,
      "hit": false,
      "t": 234856.908000001,
      "d": 396.4281750000082,
      "v": 88
    },
    {
      "midi": 68,
      "hit": false,
      "t": 234856.908000001,
      "d": 546.4280250000011,
      "v": 91
    },
    {
      "midi": 65,
      "hit": false,
      "t": 234856.908000001,
      "d": 585.7137000000221,
      "v": 91
    },
    {
      "midi": 49,
      "hit": false,
      "t": 234856.908000001,
      "d": 1242.8559000000241,
      "v": 81
    },
    {
      "midi": 56,
      "hit": false,
      "t": 235142.62200000102,
      "d": 114.28560000000289,
      "v": 52
    },
    {
      "midi": 61,
      "hit": false,
      "t": 235428.33600000103,
      "d": 203.5712250000215,
      "v": 63
    },
    {
      "midi": 56,
      "hit": false,
      "t": 235428.33600000103,
      "d": 510.7137750000111,
      "v": 59
    },
    {
      "midi": 61,
      "hit": false,
      "t": 235714.05000000104,
      "d": 357.1425000000163,
      "v": 86
    },
    {
      "midi": 68,
      "hit": false,
      "t": 235714.05000000104,
      "d": 496.42807500000345,
      "v": 91
    },
    {
      "midi": 65,
      "hit": false,
      "t": 235714.05000000104,
      "d": 553.5708750000049,
      "v": 88
    },
    {
      "midi": 49,
      "hit": false,
      "t": 236285.47800000105,
      "d": 171.42840000000433,
      "v": 70
    },
    {
      "midi": 56,
      "hit": false,
      "t": 236285.47800000105,
      "d": 174.99982500000624,
      "v": 60
    },
    {
      "midi": 61,
      "hit": false,
      "t": 236285.47800000105,
      "d": 221.42835000000196,
      "v": 70
    },
    {
      "midi": 56,
      "hit": false,
      "t": 236571.19200000106,
      "d": 135.71415000001434,
      "v": 60
    },
    {
      "midi": 61,
      "hit": false,
      "t": 236571.19200000106,
      "d": 367.8567749999929,
      "v": 91
    },
    {
      "midi": 68,
      "hit": false,
      "t": 236571.19200000106,
      "d": 521.4280500000168,
      "v": 94
    },
    {
      "midi": 65,
      "hit": false,
      "t": 236571.19200000106,
      "d": 582.1422750000202,
      "v": 91
    },
    {
      "midi": 49,
      "hit": false,
      "t": 236571.19200000106,
      "d": 1299.9987000000256,
      "v": 86
    },
    {
      "midi": 56,
      "hit": false,
      "t": 236856.90600000106,
      "d": 107.14274999999907,
      "v": 56
    },
    {
      "midi": 61,
      "hit": false,
      "t": 237142.62000000107,
      "d": 142.85700000001816,
      "v": 68
    },
    {
      "midi": 56,
      "hit": false,
      "t": 237142.62000000107,
      "d": 682.1421750000154,
      "v": 62
    },
    {
      "midi": 61,
      "hit": false,
      "t": 237428.33400000108,
      "d": 414.28530000001774,
      "v": 97
    },
    {
      "midi": 68,
      "hit": false,
      "t": 237428.33400000108,
      "d": 492.85665000000154,
      "v": 94
    },
    {
      "midi": 65,
      "hit": false,
      "t": 237428.33400000108,
      "d": 521.4280499999877,
      "v": 101
    },
    {
      "midi": 56,
      "hit": false,
      "t": 237999.76200000106,
      "d": 135.71415000001434,
      "v": 63
    },
    {
      "midi": 49,
      "hit": false,
      "t": 237999.76200000106,
      "d": 167.85697500000242,
      "v": 59
    },
    {
      "midi": 61,
      "hit": false,
      "t": 237999.76200000106,
      "d": 228.57120000000577,
      "v": 62
    },
    {
      "midi": 56,
      "hit": false,
      "t": 238285.47600000107,
      "d": 182.14267500001006,
      "v": 64
    },
    {
      "midi": 49,
      "hit": false,
      "t": 238285.47600000107,
      "d": 246.42832500001532,
      "v": 81
    },
    {
      "midi": 61,
      "hit": false,
      "t": 238285.47600000107,
      "d": 489.2852249999996,
      "v": 88
    },
    {
      "midi": 68,
      "hit": false,
      "t": 238285.47600000107,
      "d": 699.9992999999668,
      "v": 94
    },
    {
      "midi": 65,
      "hit": false,
      "t": 238285.47600000107,
      "d": 724.9992749999801,
      "v": 94
    },
    {
      "midi": 49,
      "hit": false,
      "t": 238571.19000000108,
      "d": 471.428099999961,
      "v": 79
    },
    {
      "midi": 56,
      "hit": false,
      "t": 238856.90400000106,
      "d": 99.99989999999525,
      "v": 83
    },
    {
      "midi": 56,
      "hit": false,
      "t": 239142.61800000104,
      "d": 257.14259999999194,
      "v": 77
    },
    {
      "midi": 49,
      "hit": false,
      "t": 239142.61800000104,
      "d": 378.57104999996955,
      "v": 56
    },
    {
      "midi": 68,
      "hit": false,
      "t": 239142.61800000104,
      "d": 471.428099999961,
      "v": 101
    },
    {
      "midi": 65,
      "hit": false,
      "t": 239142.61800000104,
      "d": 539.2851749999681,
      "v": 108
    },
    {
      "midi": 61,
      "hit": false,
      "t": 239428.332000001,
      "d": 260.71402499999385,
      "v": 101
    },
    {
      "midi": 56,
      "hit": false,
      "t": 239714.04600000102,
      "d": 221.42835000000196,
      "v": 64
    },
    {
      "midi": 51,
      "hit": false,
      "t": 239999.76000000103,
      "d": 117.8570250000048,
      "v": 63
    },
    {
      "midi": 63,
      "hit": false,
      "t": 239999.76000000103,
      "d": 710.7135750000016,
      "v": 88
    },
    {
      "midi": 56,
      "hit": false,
      "t": 239999.76000000103,
      "d": 724.9992750000092,
      "v": 79
    },
    {
      "midi": 60,
      "hit": false,
      "t": 239999.76000000103,
      "d": 739.2849750000169,
      "v": 88
    },
    {
      "midi": 44,
      "hit": false,
      "t": 239999.76000000103,
      "d": 1285.713000000018,
      "v": 79
    },
    {
      "midi": 51,
      "hit": false,
      "t": 240285.47400000104,
      "d": 114.28560000000289,
      "v": 53
    },
    {
      "midi": 51,
      "hit": false,
      "t": 240571.18800000104,
      "d": 596.4279749999987,
      "v": 70
    },
    {
      "midi": 56,
      "hit": false,
      "t": 240856.90200000105,
      "d": 364.285349999991,
      "v": 71
    },
    {
      "midi": 63,
      "hit": false,
      "t": 240856.90200000105,
      "d": 460.71382499998435,
      "v": 88
    },
    {
      "midi": 60,
      "hit": false,
      "t": 240856.90200000105,
      "d": 524.9994749999896,
      "v": 77
    },
    {
      "midi": 51,
      "hit": false,
      "t": 241428.33000000103,
      "d": 132.14272500001243,
      "v": 79
    },
    {
      "midi": 44,
      "hit": false,
      "t": 241428.33000000103,
      "d": 203.5712250000215,
      "v": 56
    },
    {
      "midi": 56,
      "hit": false,
      "t": 241428.33000000103,
      "d": 239.2854750000115,
      "v": 57
    },
    {
      "midi": 51,
      "hit": false,
      "t": 241714.04400000104,
      "d": 132.14272500001243,
      "v": 55
    },
    {
      "midi": 56,
      "hit": false,
      "t": 241714.04400000104,
      "d": 442.8567000000039,
      "v": 73
    },
    {
      "midi": 63,
      "hit": false,
      "t": 241714.04400000104,
      "d": 582.1422750000202,
      "v": 88
    },
    {
      "midi": 60,
      "hit": false,
      "t": 241714.04400000104,
      "d": 610.7136750000063,
      "v": 88
    },
    {
      "midi": 44,
      "hit": false,
      "t": 241714.04400000104,
      "d": 1349.9986500000232,
      "v": 55
    },
    {
      "midi": 51,
      "hit": false,
      "t": 241999.75800000105,
      "d": 96.42847499999334,
      "v": 54
    },
    {
      "midi": 56,
      "hit": false,
      "t": 242285.47200000106,
      "d": 174.99982500000624,
      "v": 53
    },
    {
      "midi": 51,
      "hit": false,
      "t": 242285.47200000106,
      "d": 599.9994000000006,
      "v": 55
    },
    {
      "midi": 56,
      "hit": false,
      "t": 242571.18600000106,
      "d": 339.28537500000675,
      "v": 86
    },
    {
      "midi": 63,
      "hit": false,
      "t": 242571.18600000106,
      "d": 485.7137999999977,
      "v": 91
    },
    {
      "midi": 60,
      "hit": false,
      "t": 242571.18600000106,
      "d": 489.2852249999996,
      "v": 94
    },
    {
      "midi": 44,
      "hit": false,
      "t": 243142.61400000108,
      "d": 139.28557499998715,
      "v": 51
    },
    {
      "midi": 51,
      "hit": false,
      "t": 243142.61400000108,
      "d": 171.42839999997523,
      "v": 55
    },
    {
      "midi": 56,
      "hit": false,
      "t": 243142.61400000108,
      "d": 235.7140499999805,
      "v": 64
    },
    {
      "midi": 51,
      "hit": false,
      "t": 243428.32800000106,
      "d": 117.8570250000048,
      "v": 56
    },
    {
      "midi": 56,
      "hit": false,
      "t": 243428.32800000106,
      "d": 485.7137999999977,
      "v": 83
    },
    {
      "midi": 63,
      "hit": false,
      "t": 243428.32800000106,
      "d": 653.570774999971,
      "v": 88
    },
    {
      "midi": 60,
      "hit": false,
      "t": 243428.32800000106,
      "d": 742.8563999999606,
      "v": 91
    },
    {
      "midi": 44,
      "hit": false,
      "t": 243428.32800000106,
      "d": 1624.9983749999665,
      "v": 91
    },
    {
      "midi": 51,
      "hit": false,
      "t": 243714.04200000106,
      "d": 96.42847499999334,
      "v": 58
    },
    {
      "midi": 56,
      "hit": false,
      "t": 243999.75600000104,
      "d": 171.42839999997523,
      "v": 67
    },
    {
      "midi": 51,
      "hit": false,
      "t": 243999.75600000104,
      "d": 682.1421749999863,
      "v": 79
    },
    {
      "midi": 56,
      "hit": false,
      "t": 244285.47000000102,
      "d": 396.4281750000082,
      "v": 83
    },
    {
      "midi": 63,
      "hit": false,
      "t": 244285.47000000102,
      "d": 453.57097500000964,
      "v": 91
    },
    {
      "midi": 60,
      "hit": false,
      "t": 244285.47000000102,
      "d": 835.7134500000102,
      "v": 91
    },
    {
      "midi": 51,
      "hit": false,
      "t": 244856.89800000103,
      "d": 196.4283749999886,
      "v": 64
    },
    {
      "midi": 56,
      "hit": false,
      "t": 244856.89800000103,
      "d": 260.71402499999385,
      "v": 75
    },
    {
      "midi": 51,
      "hit": false,
      "t": 245142.61200000104,
      "d": 121.4284500000067,
      "v": 62
    },
    {
      "midi": 56,
      "hit": false,
      "t": 245142.61200000104,
      "d": 364.2853500000201,
      "v": 81
    },
    {
      "midi": 63,
      "hit": false,
      "t": 245142.61200000104,
      "d": 528.5709000000206,
      "v": 91
    },
    {
      "midi": 60,
      "hit": false,
      "t": 245142.61200000104,
      "d": 546.4280250000302,
      "v": 88
    },
    {
      "midi": 44,
      "hit": false,
      "t": 245142.61200000104,
      "d": 960.7133250000479,
      "v": 94
    },
    {
      "midi": 51,
      "hit": false,
      "t": 245428.32600000105,
      "d": 99.99990000002435,
      "v": 61
    },
    {
      "midi": 56,
      "hit": false,
      "t": 245714.04000000108,
      "d": 178.57125000000815,
      "v": 73
    },
    {
      "midi": 51,
      "hit": false,
      "t": 245714.04000000108,
      "d": 467.8566750000173,
      "v": 63
    },
    {
      "midi": 56,
      "hit": false,
      "t": 245999.7540000011,
      "d": 107.14274999999907,
      "v": 73
    },
    {
      "midi": 63,
      "hit": false,
      "t": 245999.7540000011,
      "d": 410.71387500001583,
      "v": 97
    },
    {
      "midi": 60,
      "hit": false,
      "t": 245999.7540000011,
      "d": 442.856700000033,
      "v": 94
    },
    {
      "midi": 56,
      "hit": false,
      "t": 246428.32500000112,
      "d": 85.71420000001672,
      "v": 66
    },
    {
      "midi": 49,
      "hit": false,
      "t": 246856.89600000114,
      "d": 149.99984999999288,
      "v": 83
    },
    {
      "midi": 56,
      "hit": false,
      "t": 246856.89600000114,
      "d": 160.7141249999986,
      "v": 64
    },
    {
      "midi": 68,
      "hit": false,
      "t": 246856.89600000114,
      "d": 735.713550000015,
      "v": 94
    },
    {
      "midi": 61,
      "hit": false,
      "t": 246856.89600000114,
      "d": 742.8564000000188,
      "v": 88
    },
    {
      "midi": 65,
      "hit": false,
      "t": 246856.89600000114,
      "d": 774.9992250000068,
      "v": 91
    },
    {
      "midi": 56,
      "hit": false,
      "t": 247142.61000000115,
      "d": 121.4284500000067,
      "v": 55
    },
    {
      "midi": 49,
      "hit": false,
      "t": 247142.61000000115,
      "d": 164.2855500000005,
      "v": 75
    },
    {
      "midi": 56,
      "hit": false,
      "t": 247428.32400000116,
      "d": 121.4284500000067,
      "v": 59
    },
    {
      "midi": 49,
      "hit": false,
      "t": 247428.32400000116,
      "d": 696.427874999994,
      "v": 70
    },
    {
      "midi": 61,
      "hit": false,
      "t": 247714.03800000114,
      "d": 389.2853250000044,
      "v": 86
    },
    {
      "midi": 56,
      "hit": false,
      "t": 247714.03800000114,
      "d": 432.1424250000273,
      "v": 62
    },
    {
      "midi": 68,
      "hit": false,
      "t": 247714.03800000114,
      "d": 485.7138000000268,
      "v": 97
    },
    {
      "midi": 65,
      "hit": false,
      "t": 247714.03800000114,
      "d": 760.7135250000283,
      "v": 94
    },
    {
      "midi": 49,
      "hit": false,
      "t": 248285.46600000115,
      "d": 174.99982500000624,
      "v": 75
    },
    {
      "midi": 56,
      "hit": false,
      "t": 248285.46600000115,
      "d": 196.4283750000177,
      "v": 55
    },
    {
      "midi": 61,
      "hit": false,
      "t": 248285.46600000115,
      "d": 239.2854750000115,
      "v": 70
    },
    {
      "midi": 56,
      "hit": false,
      "t": 248571.18000000116,
      "d": 132.14272500001243,
      "v": 62
    },
    {
      "midi": 49,
      "hit": false,
      "t": 248571.18000000116,
      "d": 174.99982500000624,
      "v": 79
    },
    {
      "midi": 61,
      "hit": false,
      "t": 248571.18000000116,
      "d": 421.42815000002156,
      "v": 83
    },
    {
      "midi": 68,
      "hit": false,
      "t": 248571.18000000116,
      "d": 728.5707000000111,
      "v": 94
    },
    {
      "midi": 65,
      "hit": false,
      "t": 248571.18000000116,
      "d": 785.7135000000126,
      "v": 94
    },
    {
      "midi": 56,
      "hit": false,
      "t": 248856.89400000116,
      "d": 128.57130000001052,
      "v": 63
    },
    {
      "midi": 49,
      "hit": false,
      "t": 248856.89400000116,
      "d": 935.7133500000054,
      "v": 63
    },
    {
      "midi": 56,
      "hit": false,
      "t": 249142.60800000117,
      "d": 82.1427749999857,
      "v": 81
    },
    {
      "midi": 61,
      "hit": false,
      "t": 249428.32200000118,
      "d": 374.99962499999674,
      "v": 86
    },
    {
      "midi": 56,
      "hit": false,
      "t": 249428.32200000118,
      "d": 482.1423749999958,
      "v": 53
    },
    {
      "midi": 68,
      "hit": false,
      "t": 249428.32200000118,
      "d": 542.8565999999992,
      "v": 97
    },
    {
      "midi": 65,
      "hit": false,
      "t": 249428.32200000118,
      "d": 546.4280250000011,
      "v": 88
    },
    {
      "midi": 49,
      "hit": false,
      "t": 249999.7500000012,
      "d": 157.1426999999967,
      "v": 77
    },
    {
      "midi": 56,
      "hit": false,
      "t": 249999.7500000012,
      "d": 174.99982500000624,
      "v": 53
    },
    {
      "midi": 61,
      "hit": false,
      "t": 249999.7500000012,
      "d": 232.14262500000768,
      "v": 61
    },
    {
      "midi": 56,
      "hit": false,
      "t": 250285.4640000012,
      "d": 157.1426999999967,
      "v": 73
    },
    {
      "midi": 49,
      "hit": false,
      "t": 250285.4640000012,
      "d": 160.7141249999986,
      "v": 81
    },
    {
      "midi": 61,
      "hit": false,
      "t": 250285.4640000012,
      "d": 667.8564750000078,
      "v": 86
    },
    {
      "midi": 68,
      "hit": false,
      "t": 250285.4640000012,
      "d": 735.713550000015,
      "v": 91
    },
    {
      "midi": 65,
      "hit": false,
      "t": 250285.4640000012,
      "d": 767.856375000003,
      "v": 83
    },
    {
      "midi": 49,
      "hit": false,
      "t": 250571.1780000012,
      "d": 185.71410000001197,
      "v": 62
    },
    {
      "midi": 49,
      "hit": false,
      "t": 250856.89200000121,
      "d": 699.9992999999959,
      "v": 71
    },
    {
      "midi": 61,
      "hit": false,
      "t": 251142.6060000012,
      "d": 392.8567500000063,
      "v": 94
    },
    {
      "midi": 56,
      "hit": false,
      "t": 251142.6060000012,
      "d": 407.1424500000139,
      "v": 68
    },
    {
      "midi": 68,
      "hit": false,
      "t": 251142.6060000012,
      "d": 474.9995250000211,
      "v": 101
    },
    {
      "midi": 65,
      "hit": false,
      "t": 251142.6060000012,
      "d": 517.8566250000149,
      "v": 101
    },
    {
      "midi": 56,
      "hit": false,
      "t": 251714.0340000012,
      "d": 149.99984999999288,
      "v": 67
    },
    {
      "midi": 49,
      "hit": false,
      "t": 251714.0340000012,
      "d": 167.85697500000242,
      "v": 81
    },
    {
      "midi": 61,
      "hit": false,
      "t": 251714.0340000012,
      "d": 249.99974999998813,
      "v": 73
    },
    {
      "midi": 56,
      "hit": false,
      "t": 251999.7480000012,
      "d": 128.57130000001052,
      "v": 70
    },
    {
      "midi": 49,
      "hit": false,
      "t": 251999.7480000012,
      "d": 199.9998000000196,
      "v": 77
    },
    {
      "midi": 61,
      "hit": false,
      "t": 251999.7480000012,
      "d": 632.1422250000178,
      "v": 91
    },
    {
      "midi": 68,
      "hit": false,
      "t": 251999.7480000012,
      "d": 642.8565000000235,
      "v": 91
    },
    {
      "midi": 65,
      "hit": false,
      "t": 251999.7480000012,
      "d": 724.9992750000092,
      "v": 97
    },
    {
      "midi": 56,
      "hit": false,
      "t": 252285.4620000012,
      "d": 96.42847499999334,
      "v": 59
    },
    {
      "midi": 49,
      "hit": false,
      "t": 252285.4620000012,
      "d": 828.5706000000355,
      "v": 83
    },
    {
      "midi": 56,
      "hit": false,
      "t": 252571.1760000012,
      "d": 399.9996000000101,
      "v": 77
    },
    {
      "midi": 61,
      "hit": false,
      "t": 252856.8900000012,
      "d": 128.57130000001052,
      "v": 83
    },
    {
      "midi": 68,
      "hit": false,
      "t": 252856.8900000012,
      "d": 474.9995250000211,
      "v": 94
    },
    {
      "midi": 65,
      "hit": false,
      "t": 252856.8900000012,
      "d": 492.85665000003064,
      "v": 97
    },
    {
      "midi": 61,
      "hit": false,
      "t": 253428.31800000125,
      "d": 92.85704999999143,
      "v": 67
    },
    {
      "midi": 51,
      "hit": false,
      "t": 253714.03200000123,
      "d": 146.42842499999097,
      "v": 64
    },
    {
      "midi": 63,
      "hit": false,
      "t": 253714.03200000123,
      "d": 710.7135749999725,
      "v": 83
    },
    {
      "midi": 56,
      "hit": false,
      "t": 253714.03200000123,
      "d": 742.8563999999606,
      "v": 88
    },
    {
      "midi": 60,
      "hit": false,
      "t": 253714.03200000123,
      "d": 760.7135249999701,
      "v": 88
    },
    {
      "midi": 44,
      "hit": false,
      "t": 253714.03200000123,
      "d": 1596.4269749999512,
      "v": 86
    },
    {
      "midi": 51,
      "hit": false,
      "t": 253999.7460000012,
      "d": 107.14274999999907,
      "v": 54
    },
    {
      "midi": 51,
      "hit": false,
      "t": 254285.4600000012,
      "d": 757.1420999999682,
      "v": 64
    },
    {
      "midi": 56,
      "hit": false,
      "t": 254571.1740000012,
      "d": 432.1424249999982,
      "v": 71
    },
    {
      "midi": 63,
      "hit": false,
      "t": 254571.1740000012,
      "d": 460.71382499998435,
      "v": 86
    },
    {
      "midi": 60,
      "hit": false,
      "t": 254571.1740000012,
      "d": 557.1422999999777,
      "v": 79
    },
    {
      "midi": 51,
      "hit": false,
      "t": 255142.60200000118,
      "d": 146.42842499999097,
      "v": 60
    },
    {
      "midi": 56,
      "hit": false,
      "t": 255142.60200000118,
      "d": 210.71407499999623,
      "v": 64
    },
    {
      "midi": 51,
      "hit": false,
      "t": 255428.31600000118,
      "d": 124.99987500000861,
      "v": 64
    },
    {
      "midi": 63,
      "hit": false,
      "t": 255428.31600000118,
      "d": 642.8564999999944,
      "v": 79
    },
    {
      "midi": 56,
      "hit": false,
      "t": 255428.31600000118,
      "d": 671.4278999999806,
      "v": 75
    },
    {
      "midi": 60,
      "hit": false,
      "t": 255428.31600000118,
      "d": 710.7135749999725,
      "v": 81
    },
    {
      "midi": 44,
      "hit": false,
      "t": 255428.31600000118,
      "d": 1296.4272749999654,
      "v": 75
    },
    {
      "midi": 51,
      "hit": false,
      "t": 255999.74400000117,
      "d": 678.5707499999844,
      "v": 73
    },
    {
      "midi": 56,
      "hit": false,
      "t": 256285.45800000115,
      "d": 342.85680000000866,
      "v": 81
    },
    {
      "midi": 63,
      "hit": false,
      "t": 256285.45800000115,
      "d": 467.8566749999882,
      "v": 94
    },
    {
      "midi": 60,
      "hit": false,
      "t": 256285.45800000115,
      "d": 578.5708499999892,
      "v": 86
    },
    {
      "midi": 51,
      "hit": false,
      "t": 256856.88600000113,
      "d": 164.2855500000005,
      "v": 57
    },
    {
      "midi": 44,
      "hit": false,
      "t": 256856.88600000113,
      "d": 174.99982500000624,
      "v": 48
    },
    {
      "midi": 56,
      "hit": false,
      "t": 256856.88600000113,
      "d": 210.71407499999623,
      "v": 64
    },
    {
      "midi": 51,
      "hit": false,
      "t": 257142.60000000114,
      "d": 114.28560000000289,
      "v": 73
    },
    {
      "midi": 44,
      "hit": false,
      "t": 257142.60000000114,
      "d": 164.2855500000005,
      "v": 91
    },
    {
      "midi": 56,
      "hit": false,
      "t": 257142.60000000114,
      "d": 439.2852749999729,
      "v": 73
    },
    {
      "midi": 63,
      "hit": false,
      "t": 257142.60000000114,
      "d": 603.5708249999734,
      "v": 83
    },
    {
      "midi": 58,
      "hit": false,
      "t": 257142.60000000114,
      "d": 632.1422249999596,
      "v": 86
    },
    {
      "midi": 60,
      "hit": false,
      "t": 257142.60000000114,
      "d": 664.2850499999477,
      "v": 81
    },
    {
      "midi": 51,
      "hit": false,
      "t": 257428.31400000112,
      "d": 114.28560000000289,
      "v": 58
    },
    {
      "midi": 44,
      "hit": false,
      "t": 257428.31400000112,
      "d": 1124.998874999932,
      "v": 86
    },
    {
      "midi": 51,
      "hit": false,
      "t": 257714.02800000113,
      "d": 114.28559999997378,
      "v": 68
    },
    {
      "midi": 56,
      "hit": false,
      "t": 257714.02800000113,
      "d": 203.5712249999633,
      "v": 67
    },
    {
      "midi": 51,
      "hit": false,
      "t": 257999.74200000108,
      "d": 424.99957499999437,
      "v": 66
    },
    {
      "midi": 56,
      "hit": false,
      "t": 257999.74200000108,
      "d": 460.71382499998435,
      "v": 73
    },
    {
      "midi": 63,
      "hit": false,
      "t": 257999.74200000108,
      "d": 514.2851999999839,
      "v": 88
    },
    {
      "midi": 60,
      "hit": false,
      "t": 257999.74200000108,
      "d": 592.8565499999968,
      "v": 79
    },
    {
      "midi": 51,
      "hit": false,
      "t": 258571.17000000106,
      "d": 164.2855500000005,
      "v": 70
    },
    {
      "midi": 44,
      "hit": false,
      "t": 258571.17000000106,
      "d": 182.14267500001006,
      "v": 46
    },
    {
      "midi": 56,
      "hit": false,
      "t": 258571.17000000106,
      "d": 239.2854750000115,
      "v": 67
    },
    {
      "midi": 51,
      "hit": false,
      "t": 258856.88400000107,
      "d": 135.71415000001434,
      "v": 64
    },
    {
      "midi": 56,
      "hit": false,
      "t": 258856.88400000107,
      "d": 657.142200000002,
      "v": 86
    },
    {
      "midi": 63,
      "hit": false,
      "t": 258856.88400000107,
      "d": 660.713625000004,
      "v": 88
    },
    {
      "midi": 60,
      "hit": false,
      "t": 258856.88400000107,
      "d": 685.7136000000173,
      "v": 86
    },
    {
      "midi": 44,
      "hit": false,
      "t": 258856.88400000107,
      "d": 985.7133000000322,
      "v": 86
    },
    {
      "midi": 51,
      "hit": false,
      "t": 259142.59800000107,
      "d": 78.5713500000129,
      "v": 63
    },
    {
      "midi": 51,
      "hit": false,
      "t": 259428.31200000108,
      "d": 478.570950000023,
      "v": 71
    },
    {
      "midi": 56,
      "hit": false,
      "t": 259714.0260000011,
      "d": 282.1425750000053,
      "v": 81
    },
    {
      "midi": 63,
      "hit": false,
      "t": 259714.0260000011,
      "d": 503.57092500000726,
      "v": 91
    },
    {
      "midi": 60,
      "hit": false,
      "t": 259714.0260000011,
      "d": 517.8566250000149,
      "v": 86
    },
    {
      "midi": 56,
      "hit": false,
      "t": 260285.4540000011,
      "d": 96.42847499999334,
      "v": 61
    },
    {
      "midi": 56,
      "hit": false,
      "t": 260571.16800000108,
      "d": 149.99984999999288,
      "v": 61
    },
    {
      "midi": 63,
      "hit": false,
      "t": 260571.16800000108,
      "d": 389.2853250000044,
      "v": 81
    },
    {
      "midi": 61,
      "hit": false,
      "t": 260571.16800000108,
      "d": 678.5707500000135,
      "v": 88
    },
    {
      "midi": 68,
      "hit": false,
      "t": 260571.16800000108,
      "d": 710.7135750000016,
      "v": 91
    },
    {
      "midi": 65,
      "hit": false,
      "t": 260571.16800000108,
      "d": 742.8563999999897,
      "v": 91
    },
    {
      "midi": 49,
      "hit": false,
      "t": 260571.16800000108,
      "d": 1246.427324999997,
      "v": 77
    },
    {
      "midi": 56,
      "hit": false,
      "t": 260856.8820000011,
      "d": 117.8570250000048,
      "v": 60
    },
    {
      "midi": 56,
      "hit": false,
      "t": 261142.5960000011,
      "d": 135.71414999998524,
      "v": 73
    },
    {
      "midi": 61,
      "hit": false,
      "t": 261428.31000000107,
      "d": 432.1424249999982,
      "v": 86
    },
    {
      "midi": 68,
      "hit": false,
      "t": 261428.31000000107,
      "d": 514.2851999999839,
      "v": 88
    },
    {
      "midi": 65,
      "hit": false,
      "t": 261428.31000000107,
      "d": 532.1423249999934,
      "v": 86
    },
    {
      "midi": 56,
      "hit": false,
      "t": 261428.31000000107,
      "d": 753.5706749999954,
      "v": 71
    },
    {
      "midi": 49,
      "hit": false,
      "t": 261999.73800000106,
      "d": 174.99982500000624,
      "v": 77
    },
    {
      "midi": 61,
      "hit": false,
      "t": 261999.73800000106,
      "d": 224.99977500003297,
      "v": 75
    },
    {
      "midi": 56,
      "hit": false,
      "t": 262285.4520000011,
      "d": 135.71415000001434,
      "v": 60
    },
    {
      "midi": 61,
      "hit": false,
      "t": 262285.4520000011,
      "d": 639.2850749999634,
      "v": 79
    },
    {
      "midi": 68,
      "hit": false,
      "t": 262285.4520000011,
      "d": 692.8564499999629,
      "v": 86
    },
    {
      "midi": 65,
      "hit": false,
      "t": 262285.4520000011,
      "d": 746.4278249999625,
      "v": 88
    },
    {
      "midi": 49,
      "hit": false,
      "t": 262285.4520000011,
      "d": 1571.426999999967,
      "v": 88
    },
    {
      "midi": 56,
      "hit": false,
      "t": 262571.1660000011,
      "d": 121.4284500000067,
      "v": 63
    },
    {
      "midi": 56,
      "hit": false,
      "t": 262856.88000000105,
      "d": 742.8563999999897,
      "v": 61
    },
    {
      "midi": 61,
      "hit": false,
      "t": 263142.59400000103,
      "d": 396.4281750000082,
      "v": 86
    },
    {
      "midi": 68,
      "hit": false,
      "t": 263142.59400000103,
      "d": 524.9994750000187,
      "v": 91
    },
    {
      "midi": 65,
      "hit": false,
      "t": 263142.59400000103,
      "d": 807.142050000024,
      "v": 83
    },
    {
      "midi": 61,
      "hit": false,
      "t": 263714.02200000104,
      "d": 217.85692500002915,
      "v": 64
    },
    {
      "midi": 56,
      "hit": false,
      "t": 263714.02200000104,
      "d": 535.7137500000536,
      "v": 52
    },
    {
      "midi": 49,
      "hit": false,
      "t": 263999.7360000011,
      "d": 182.14267500001006,
      "v": 83
    },
    {
      "midi": 61,
      "hit": false,
      "t": 263999.7360000011,
      "d": 767.8563750000321,
      "v": 83
    },
    {
      "midi": 68,
      "hit": false,
      "t": 263999.7360000011,
      "d": 767.8563750000321,
      "v": 97
    },
    {
      "midi": 65,
      "hit": false,
      "t": 263999.7360000011,
      "d": 810.713475000055,
      "v": 88
    },
    {
      "midi": 49,
      "hit": false,
      "t": 264285.4500000011,
      "d": 160.7141249999986,
      "v": 77
    },
    {
      "midi": 56,
      "hit": false,
      "t": 264285.4500000011,
      "d": 178.57124999997905,
      "v": 59
    },
    {
      "midi": 49,
      "hit": false,
      "t": 264571.1640000011,
      "d": 1060.7132250000723,
      "v": 86
    },
    {
      "midi": 61,
      "hit": false,
      "t": 264856.87800000113,
      "d": 392.8567499999772,
      "v": 81
    },
    {
      "midi": 56,
      "hit": false,
      "t": 264856.87800000113,
      "d": 421.42814999999246,
      "v": 70
    },
    {
      "midi": 68,
      "hit": false,
      "t": 264856.87800000113,
      "d": 760.7135250000283,
      "v": 94
    },
    {
      "midi": 65,
      "hit": false,
      "t": 264856.87800000113,
      "d": 792.8563500000164,
      "v": 88
    },
    {
      "midi": 56,
      "hit": false,
      "t": 265428.30600000115,
      "d": 196.4283750000177,
      "v": 62
    },
    {
      "midi": 61,
      "hit": false,
      "t": 265428.30600000115,
      "d": 249.99975000001723,
      "v": 73
    },
    {
      "midi": 49,
      "hit": false,
      "t": 265714.0200000012,
      "d": 174.99982500000624,
      "v": 70
    },
    {
      "midi": 56,
      "hit": false,
      "t": 265714.0200000012,
      "d": 174.99982500000624,
      "v": 67
    },
    {
      "midi": 61,
      "hit": false,
      "t": 265714.0200000012,
      "d": 453.57097499998054,
      "v": 83
    },
    {
      "midi": 68,
      "hit": false,
      "t": 265714.0200000012,
      "d": 664.2850499999477,
      "v": 91
    },
    {
      "midi": 65,
      "hit": false,
      "t": 265714.0200000012,
      "d": 717.8564249999472,
      "v": 86
    },
    {
      "midi": 49,
      "hit": false,
      "t": 265999.73400000116,
      "d": 796.427774999931,
      "v": 67
    },
    {
      "midi": 56,
      "hit": false,
      "t": 266285.44800000114,
      "d": 392.8567499999772,
      "v": 67
    },
    {
      "midi": 61,
      "hit": false,
      "t": 266571.1620000011,
      "d": 332.14252499997383,
      "v": 91
    },
    {
      "midi": 68,
      "hit": false,
      "t": 266571.1620000011,
      "d": 553.5708749999758,
      "v": 97
    },
    {
      "midi": 65,
      "hit": false,
      "t": 266571.1620000011,
      "d": 560.7137249999796,
      "v": 94
    },
    {
      "midi": 61,
      "hit": false,
      "t": 267142.5900000011,
      "d": 92.85704999999143,
      "v": 70
    },
    {
      "midi": 51,
      "hit": false,
      "t": 267428.30400000105,
      "d": 139.28557499998715,
      "v": 66
    },
    {
      "midi": 56,
      "hit": false,
      "t": 267428.30400000105,
      "d": 696.4278749999357,
      "v": 88
    },
    {
      "midi": 63,
      "hit": false,
      "t": 267428.30400000105,
      "d": 696.4278749999357,
      "v": 86
    },
    {
      "midi": 60,
      "hit": false,
      "t": 267428.30400000105,
      "d": 749.9992499999353,
      "v": 86
    },
    {
      "midi": 44,
      "hit": false,
      "t": 267428.30400000105,
      "d": 1571.426999999967,
      "v": 83
    },
    {
      "midi": 51,
      "hit": false,
      "t": 267714.01800000103,
      "d": 99.99989999999525,
      "v": 59
    },
    {
      "midi": 51,
      "hit": false,
      "t": 267999.732000001,
      "d": 507.14234999998007,
      "v": 71
    },
    {
      "midi": 56,
      "hit": false,
      "t": 268285.446000001,
      "d": 414.28529999998864,
      "v": 77
    },
    {
      "midi": 63,
      "hit": false,
      "t": 268285.446000001,
      "d": 753.5706750000245,
      "v": 88
    },
    {
      "midi": 60,
      "hit": false,
      "t": 268285.446000001,
      "d": 764.2849500000011,
      "v": 86
    },
    {
      "midi": 51,
      "hit": false,
      "t": 268856.874000001,
      "d": 192.85694999998668,
      "v": 71
    },
    {
      "midi": 56,
      "hit": false,
      "t": 268856.874000001,
      "d": 228.57120000000577,
      "v": 59
    },
    {
      "midi": 51,
      "hit": false,
      "t": 269142.588000001,
      "d": 124.99987499997951,
      "v": 60
    },
    {
      "midi": 44,
      "hit": false,
      "t": 269142.588000001,
      "d": 210.71407499996712,
      "v": 88
    },
    {
      "midi": 56,
      "hit": false,
      "t": 269142.588000001,
      "d": 689.2850249999319,
      "v": 73
    },
    {
      "midi": 63,
      "hit": false,
      "t": 269142.588000001,
      "d": 724.999274999951,
      "v": 86
    },
    {
      "midi": 60,
      "hit": false,
      "t": 269142.588000001,
      "d": 735.7135499999276,
      "v": 81
    },
    {
      "midi": 51,
      "hit": false,
      "t": 269428.30200000096,
      "d": 99.99989999999525,
      "v": 53
    },
    {
      "midi": 44,
      "hit": false,
      "t": 269428.30200000096,
      "d": 1217.8559249999234,
      "v": 67
    },
    {
      "midi": 51,
      "hit": false,
      "t": 269714.01600000093,
      "d": 699.9992999999668,
      "v": 77
    },
    {
      "midi": 56,
      "hit": false,
      "t": 269999.7300000009,
      "d": 403.571025000012,
      "v": 77
    },
    {
      "midi": 60,
      "hit": false,
      "t": 269999.7300000009,
      "d": 610.7136750000063,
      "v": 88
    },
    {
      "midi": 63,
      "hit": false,
      "t": 269999.7300000009,
      "d": 635.7136499999906,
      "v": 91
    },
    {
      "midi": 51,
      "hit": false,
      "t": 270571.1580000009,
      "d": 78.57134999992559,
      "v": 53
    },
    {
      "midi": 56,
      "hit": false,
      "t": 270571.1580000009,
      "d": 157.14269999990938,
      "v": 60
    },
    {
      "midi": 51,
      "hit": false,
      "t": 270856.87200000085,
      "d": 142.85700000001816,
      "v": 75
    },
    {
      "midi": 44,
      "hit": false,
      "t": 270856.87200000085,
      "d": 199.9997999999905,
      "v": 86
    },
    {
      "midi": 56,
      "hit": false,
      "t": 270856.87200000085,
      "d": 764.2849500000011,
      "v": 71
    },
    {
      "midi": 63,
      "hit": false,
      "t": 270856.87200000085,
      "d": 764.2849500000011,
      "v": 86
    },
    {
      "midi": 60,
      "hit": false,
      "t": 270856.87200000085,
      "d": 807.142050000024,
      "v": 79
    },
    {
      "midi": 51,
      "hit": false,
      "t": 271142.5860000008,
      "d": 99.99989999999525,
      "v": 67
    },
    {
      "midi": 44,
      "hit": false,
      "t": 271142.5860000008,
      "d": 1046.4275250000646,
      "v": 46
    },
    {
      "midi": 51,
      "hit": false,
      "t": 271428.3000000008,
      "d": 103.57132500002626,
      "v": 66
    },
    {
      "midi": 51,
      "hit": false,
      "t": 271714.0140000009,
      "d": 389.2853250000044,
      "v": 49
    },
    {
      "midi": 56,
      "hit": false,
      "t": 271714.0140000009,
      "d": 453.57097499998054,
      "v": 67
    },
    {
      "midi": 63,
      "hit": false,
      "t": 271714.0140000009,
      "d": 510.7137750000111,
      "v": 81
    },
    {
      "midi": 60,
      "hit": false,
      "t": 271714.0140000009,
      "d": 785.7135000000126,
      "v": 67
    },
    {
      "midi": 51,
      "hit": false,
      "t": 272285.4420000009,
      "d": 182.14267500001006,
      "v": 50
    },
    {
      "midi": 44,
      "hit": false,
      "t": 272285.4420000009,
      "d": 207.14264999999432,
      "v": 70
    },
    {
      "midi": 56,
      "hit": false,
      "t": 272285.4420000009,
      "d": 239.2854749999824,
      "v": 71
    },
    {
      "midi": 51,
      "hit": false,
      "t": 272571.1560000009,
      "d": 124.99987499997951,
      "v": 67
    },
    {
      "midi": 44,
      "hit": false,
      "t": 272571.1560000009,
      "d": 167.85697500000242,
      "v": 86
    },
    {
      "midi": 56,
      "hit": false,
      "t": 272571.1560000009,
      "d": 467.8566749999882,
      "v": 64
    },
    {
      "midi": 63,
      "hit": false,
      "t": 272571.1560000009,
      "d": 632.1422250000178,
      "v": 83
    },
    {
      "midi": 60,
      "hit": false,
      "t": 272571.1560000009,
      "d": 717.8564250000054,
      "v": 83
    },
    {
      "midi": 51,
      "hit": false,
      "t": 272856.87000000087,
      "d": 114.28560000000289,
      "v": 79
    },
    {
      "midi": 44,
      "hit": false,
      "t": 272856.87000000087,
      "d": 682.1421749999863,
      "v": 91
    },
    {
      "midi": 51,
      "hit": false,
      "t": 273142.5840000009,
      "d": 410.7138749999576,
      "v": 64
    },
    {
      "midi": 56,
      "hit": false,
      "t": 273428.2980000009,
      "d": 153.57127499999478,
      "v": 75
    },
    {
      "midi": 63,
      "hit": false,
      "t": 273428.2980000009,
      "d": 457.14240000001155,
      "v": 91
    },
    {
      "midi": 60,
      "hit": false,
      "t": 273428.2980000009,
      "d": 489.2852249999996,
      "v": 86
    },
    {
      "midi": 56,
      "hit": false,
      "t": 273999.7260000009,
      "d": 74.99992500001099,
      "v": 63
    },
    {
      "midi": 56,
      "hit": false,
      "t": 274285.4400000009,
      "d": 149.99985000002198,
      "v": 67
    },
    {
      "midi": 61,
      "hit": false,
      "t": 274285.4400000009,
      "d": 678.5707500000135,
      "v": 88
    },
    {
      "midi": 68,
      "hit": false,
      "t": 274285.4400000009,
      "d": 703.5707249999978,
      "v": 88
    },
    {
      "midi": 65,
      "hit": false,
      "t": 274285.4400000009,
      "d": 739.2849750000169,
      "v": 94
    },
    {
      "midi": 49,
      "hit": false,
      "t": 274285.4400000009,
      "d": 1578.569850000029,
      "v": 73
    },
    {
      "midi": 56,
      "hit": false,
      "t": 274571.1540000009,
      "d": 121.4284500000067,
      "v": 61
    },
    {
      "midi": 56,
      "hit": false,
      "t": 274856.8680000009,
      "d": 107.14274999999907,
      "v": 67
    },
    {
      "midi": 61,
      "hit": false,
      "t": 275142.58200000087,
      "d": 357.1425000000163,
      "v": 81
    },
    {
      "midi": 68,
      "hit": false,
      "t": 275142.58200000087,
      "d": 549.999450000003,
      "v": 91
    },
    {
      "midi": 65,
      "hit": false,
      "t": 275142.58200000087,
      "d": 807.142050000024,
      "v": 86
    },
    {
      "midi": 56,
      "hit": false,
      "t": 275714.0100000009,
      "d": 149.99985000002198,
      "v": 62
    },
    {
      "midi": 61,
      "hit": false,
      "t": 275714.0100000009,
      "d": 224.99977500003297,
      "v": 67
    },
    {
      "midi": 63,
      "hit": false,
      "t": 275999.7240000009,
      "d": 78.5713499999838,
      "v": 63
    },
    {
      "midi": 56,
      "hit": false,
      "t": 275999.7240000009,
      "d": 103.57132499996806,
      "v": 53
    },
    {
      "midi": 61,
      "hit": false,
      "t": 275999.7240000009,
      "d": 642.8564999999362,
      "v": 77
    },
    {
      "midi": 68,
      "hit": false,
      "t": 275999.7240000009,
      "d": 649.99934999994,
      "v": 91
    },
    {
      "midi": 65,
      "hit": false,
      "t": 275999.7240000009,
      "d": 714.2849999999162,
      "v": 81
    },
    {
      "midi": 49,
      "hit": false,
      "t": 275999.7240000009,
      "d": 1524.998474999913,
      "v": 73
    },
    {
      "midi": 56,
      "hit": false,
      "t": 276285.4380000009,
      "d": 78.5713499999838,
      "v": 67
    },
    {
      "midi": 56,
      "hit": false,
      "t": 276571.1520000009,
      "d": 710.7135749999434,
      "v": 57
    },
    {
      "midi": 61,
      "hit": false,
      "t": 276856.86600000085,
      "d": 360.7139249999891,
      "v": 86
    },
    {
      "midi": 68,
      "hit": false,
      "t": 276856.86600000085,
      "d": 621.427949999983,
      "v": 97
    },
    {
      "midi": 65,
      "hit": false,
      "t": 276856.86600000085,
      "d": 703.5707249999978,
      "v": 91
    },
    {
      "midi": 56,
      "hit": false,
      "t": 277428.2940000008,
      "d": 110.71417500003008,
      "v": 53
    },
    {
      "midi": 61,
      "hit": false,
      "t": 277428.2940000008,
      "d": 221.42835000006016,
      "v": 62
    },
    {
      "midi": 56,
      "hit": false,
      "t": 277714.00800000085,
      "d": 135.71415000001434,
      "v": 59
    },
    {
      "midi": 49,
      "hit": false,
      "t": 277714.00800000085,
      "d": 203.5712250000215,
      "v": 77
    },
    {
      "midi": 61,
      "hit": false,
      "t": 277714.00800000085,
      "d": 678.5707500000717,
      "v": 81
    },
    {
      "midi": 68,
      "hit": false,
      "t": 277714.00800000085,
      "d": 703.570725000056,
      "v": 91
    },
    {
      "midi": 65,
      "hit": false,
      "t": 277714.00800000085,
      "d": 732.1421250000712,
      "v": 88
    },
    {
      "midi": 49,
      "hit": false,
      "t": 277999.7220000009,
      "d": 1028.570400000026,
      "v": 71
    },
    {
      "midi": 56,
      "hit": false,
      "t": 278285.4360000009,
      "d": 128.57130000001052,
      "v": 68
    },
    {
      "midi": 61,
      "hit": false,
      "t": 278571.1500000009,
      "d": 417.85672500001965,
      "v": 88
    },
    {
      "midi": 68,
      "hit": false,
      "t": 278571.1500000009,
      "d": 517.8566250000149,
      "v": 97
    },
    {
      "midi": 65,
      "hit": false,
      "t": 278571.1500000009,
      "d": 549.999450000003,
      "v": 91
    },
    {
      "midi": 49,
      "hit": false,
      "t": 279142.5780000009,
      "d": 103.57132500002626,
      "v": 71
    },
    {
      "midi": 56,
      "hit": false,
      "t": 279142.5780000009,
      "d": 124.99987500003772,
      "v": 57
    },
    {
      "midi": 61,
      "hit": false,
      "t": 279142.5780000009,
      "d": 196.4283750000177,
      "v": 75
    },
    {
      "midi": 56,
      "hit": false,
      "t": 279428.29200000095,
      "d": 124.99987499997951,
      "v": 62
    },
    {
      "midi": 61,
      "hit": false,
      "t": 279428.29200000095,
      "d": 689.2850249999319,
      "v": 86
    },
    {
      "midi": 68,
      "hit": false,
      "t": 279428.29200000095,
      "d": 699.9992999999085,
      "v": 88
    },
    {
      "midi": 65,
      "hit": false,
      "t": 279428.29200000095,
      "d": 735.7135499999276,
      "v": 91
    },
    {
      "midi": 49,
      "hit": false,
      "t": 279428.29200000095,
      "d": 992.8561499999487,
      "v": 75
    },
    {
      "midi": 56,
      "hit": false,
      "t": 279714.0060000009,
      "d": 132.14272499998333,
      "v": 61
    },
    {
      "midi": 56,
      "hit": false,
      "t": 279999.7200000009,
      "d": 267.8568749999977,
      "v": 67
    },
    {
      "midi": 61,
      "hit": false,
      "t": 280285.4340000009,
      "d": 421.42814999999246,
      "v": 83
    },
    {
      "midi": 68,
      "hit": false,
      "t": 280285.4340000009,
      "d": 578.5708500000183,
      "v": 94
    },
    {
      "midi": 65,
      "hit": false,
      "t": 280285.4340000009,
      "d": 585.7137000000221,
      "v": 86
    },
    {
      "midi": 61,
      "hit": false,
      "t": 280856.8620000009,
      "d": 82.14277500001481,
      "v": 75
    }
  ]
}