{
  "jsonPath": "Rock/Folk Rock/Country Joe McDonald/space-patrol.json",
  "path": "Rock\\Folk Rock\\Country Joe McDonald\\Space Patrol.mid",
  "name": "Space Patrol",
  "difficulty": "Advanced",
  "bpm": 72.99998296667064,
  "notes": [
    {
      "midi": 69,
      "hit": false,
      "t": 23529.42,
      "d": 4073.5308374999986,
      "v": 93
    },
    {
      "midi": 64,
      "hit": false,
      "t": 23529.42,
      "d": 4208.334806250001,
      "v": 93
    },
    {
      "midi": 60,
      "hit": false,
      "t": 23529.42,
      "d": 9387.258187499996,
      "v": 93
    },
    {
      "midi": 57,
      "hit": false,
      "t": 23529.42,
      "d": 9424.022906249993,
      "v": 93
    },
    {
      "midi": 71,
      "hit": false,
      "t": 27647.068499999998,
      "d": 5213.237118749999,
      "v": 93
    },
    {
      "midi": 67,
      "hit": false,
      "t": 27647.068499999998,
      "d": 5220.590062499996,
      "v": 93
    },
    {
      "midi": 74,
      "hit": false,
      "t": 31176.481499999998,
      "d": 2303.922374999991,
      "v": 87
    },
    {
      "midi": 64,
      "hit": false,
      "t": 32953.44290624999,
      "d": 4367.6485875,
      "v": 93
    },
    {
      "midi": 60,
      "hit": false,
      "t": 32953.44290624999,
      "d": 4387.2564375,
      "v": 93
    },
    {
      "midi": 36,
      "hit": false,
      "t": 32953.44290624999,
      "d": 4669.119281250001,
      "v": 93
    },
    {
      "midi": 55,
      "hit": false,
      "t": 32953.44290624999,
      "d": 9142.1600625,
      "v": 93
    },
    {
      "midi": 64,
      "hit": false,
      "t": 37647.07199999999,
      "d": 4497.550593749991,
      "v": 103
    },
    {
      "midi": 60,
      "hit": false,
      "t": 37651.97396249999,
      "d": 4480.393724999994,
      "v": 108
    },
    {
      "midi": 33,
      "hit": false,
      "t": 37651.97396249999,
      "d": 4676.47222499999,
      "v": 88
    },
    {
      "midi": 60,
      "hit": false,
      "t": 42357.857962499984,
      "d": 4276.962281249995,
      "v": 100
    },
    {
      "midi": 64,
      "hit": false,
      "t": 42357.857962499984,
      "d": 4296.570131249995,
      "v": 97
    },
    {
      "midi": 41,
      "hit": false,
      "t": 42357.857962499984,
      "d": 4651.962412499997,
      "v": 89
    },
    {
      "midi": 69,
      "hit": false,
      "t": 42365.21090624998,
      "d": 4178.92303125,
      "v": 94
    },
    {
      "midi": 59,
      "hit": false,
      "t": 47063.74196249998,
      "d": 4338.236812499992,
      "v": 83
    },
    {
      "midi": 64,
      "hit": false,
      "t": 47063.74196249998,
      "d": 4345.589756249989,
      "v": 95
    },
    {
      "midi": 69,
      "hit": false,
      "t": 47071.09490624998,
      "d": 2205.8831250000003,
      "v": 97
    },
    {
      "midi": 62,
      "hit": false,
      "t": 47071.09490624998,
      "d": 4338.236812499992,
      "v": 98
    },
    {
      "midi": 40,
      "hit": false,
      "t": 47071.09490624998,
      "d": 4730.393812499991,
      "v": 83
    },
    {
      "midi": 68,
      "hit": false,
      "t": 49416.68396249998,
      "d": 1899.5104687499988,
      "v": 88
    },
    {
      "midi": 64,
      "hit": false,
      "t": 51769.62596249997,
      "d": 4492.648631249998,
      "v": 92
    },
    {
      "midi": 60,
      "hit": false,
      "t": 51769.62596249997,
      "d": 4504.903537499995,
      "v": 101
    },
    {
      "midi": 36,
      "hit": false,
      "t": 51769.62596249997,
      "d": 4725.491849999991,
      "v": 93
    },
    {
      "midi": 55,
      "hit": false,
      "t": 51776.97890624997,
      "d": 4460.785875000001,
      "v": 97
    },
    {
      "midi": 55,
      "hit": false,
      "t": 56475.50996249997,
      "d": 4468.138818749991,
      "v": 87
    },
    {
      "midi": 64,
      "hit": false,
      "t": 56475.50996249997,
      "d": 4497.550593749991,
      "v": 94
    },
    {
      "midi": 60,
      "hit": false,
      "t": 56475.50996249997,
      "d": 4504.903537499988,
      "v": 100
    },
    {
      "midi": 33,
      "hit": false,
      "t": 56482.86290624997,
      "d": 4656.86437499999,
      "v": 91
    },
    {
      "midi": 60,
      "hit": false,
      "t": 61176.491999999955,
      "d": 4387.256437499993,
      "v": 94
    },
    {
      "midi": 69,
      "hit": false,
      "t": 61181.393962499955,
      "d": 4375.001531249996,
      "v": 89
    },
    {
      "midi": 64,
      "hit": false,
      "t": 61181.393962499955,
      "d": 4382.354474999993,
      "v": 89
    },
    {
      "midi": 41,
      "hit": false,
      "t": 61181.393962499955,
      "d": 4688.727131249987,
      "v": 88
    },
    {
      "midi": 64,
      "hit": false,
      "t": 65887.27796249994,
      "d": 3218.1383812499844,
      "v": 93
    },
    {
      "midi": 59,
      "hit": false,
      "t": 65887.27796249994,
      "d": 4174.021068749993,
      "v": 84
    },
    {
      "midi": 62,
      "hit": false,
      "t": 65887.27796249994,
      "d": 4203.4328437499935,
      "v": 94
    },
    {
      "midi": 69,
      "hit": false,
      "t": 65894.63090624993,
      "d": 2267.1576562499977,
      "v": 93
    },
    {
      "midi": 40,
      "hit": false,
      "t": 65894.63090624993,
      "d": 4661.7663374999975,
      "v": 85
    },
    {
      "midi": 68,
      "hit": false,
      "t": 68235.31799999993,
      "d": 1794.1182750000007,
      "v": 85
    },
    {
      "midi": 64,
      "hit": false,
      "t": 70588.25999999994,
      "d": 4080.8837812499987,
      "v": 73
    },
    {
      "midi": 60,
      "hit": false,
      "t": 70588.25999999994,
      "d": 4245.099524999998,
      "v": 78
    },
    {
      "midi": 67,
      "hit": false,
      "t": 70593.16196249993,
      "d": 4235.295600000012,
      "v": 84
    },
    {
      "midi": 36,
      "hit": false,
      "t": 70593.16196249993,
      "d": 4259.805412500005,
      "v": 79
    },
    {
      "midi": 67,
      "hit": false,
      "t": 72321.10374375,
      "d": 227.94125624999288,
      "v": 101
    },
    {
      "midi": 69,
      "hit": false,
      "t": 72627.4764,
      "d": 227.94125624999288,
      "v": 104
    },
    {
      "midi": 71,
      "hit": false,
      "t": 72995.1235875,
      "d": 325.9805062499945,
      "v": 104
    },
    {
      "midi": 72,
      "hit": false,
      "t": 73436.30021249999,
      "d": 245.09812500000407,
      "v": 85
    },
    {
      "midi": 71,
      "hit": false,
      "t": 73786.79053125,
      "d": 225.49027500000375,
      "v": 74
    },
    {
      "midi": 71,
      "hit": false,
      "t": 74117.673,
      "d": 1720.5888375000068,
      "v": 70
    },
    {
      "midi": 67,
      "hit": false,
      "t": 77009.830875,
      "d": 245.09812500000407,
      "v": 90
    },
    {
      "midi": 69,
      "hit": false,
      "t": 77333.3604,
      "d": 208.3334062500071,
      "v": 97
    },
    {
      "midi": 71,
      "hit": false,
      "t": 77720.61543750002,
      "d": 286.76480624999385,
      "v": 104
    },
    {
      "midi": 72,
      "hit": false,
      "t": 78129.92930625001,
      "d": 264.7059750000044,
      "v": 79
    },
    {
      "midi": 74,
      "hit": false,
      "t": 78436.30196250002,
      "d": 227.94125624999288,
      "v": 79
    },
    {
      "midi": 71,
      "hit": false,
      "t": 78725.51775000001,
      "d": 1715.6868749999994,
      "v": 76
    },
    {
      "midi": 69,
      "hit": false,
      "t": 80600.51840625002,
      "d": 164.2157437499991,
      "v": 76
    },
    {
      "midi": 69,
      "hit": false,
      "t": 80887.28321250001,
      "d": 166.66672500000277,
      "v": 83
    },
    {
      "midi": 69,
      "hit": false,
      "t": 81201.00881250002,
      "d": 183.82359374999942,
      "v": 104
    },
    {
      "midi": 67,
      "hit": false,
      "t": 81470.61675000002,
      "d": 147.05887500000244,
      "v": 88
    },
    {
      "midi": 67,
      "hit": false,
      "t": 81757.38155625002,
      "d": 171.56868749999558,
      "v": 94
    },
    {
      "midi": 67,
      "hit": false,
      "t": 82071.10715625001,
      "d": 519.6080249999941,
      "v": 104
    },
    {
      "midi": 65,
      "hit": false,
      "t": 82634.83284375,
      "d": 208.3334062500071,
      "v": 75
    },
    {
      "midi": 65,
      "hit": false,
      "t": 82941.20550000001,
      "d": 208.3334062500071,
      "v": 92
    },
    {
      "midi": 65,
      "hit": false,
      "t": 83276.98993125002,
      "d": 539.2158749999944,
      "v": 104
    },
    {
      "midi": 64,
      "hit": false,
      "t": 83816.20580625001,
      "d": 338.23541249999835,
      "v": 72
    },
    {
      "midi": 62,
      "hit": false,
      "t": 84098.06865000002,
      "d": 232.84321875000023,
      "v": 73
    },
    {
      "midi": 64,
      "hit": false,
      "t": 84436.30406250001,
      "d": 3068.628524999993,
      "v": 75
    },
    {
      "midi": 67,
      "hit": false,
      "t": 91188.75740625,
      "d": 200.98046249999607,
      "v": 99
    },
    {
      "midi": 69,
      "hit": false,
      "t": 91475.5222125,
      "d": 203.43144374999974,
      "v": 99
    },
    {
      "midi": 71,
      "hit": false,
      "t": 91826.01253125,
      "d": 299.0197124999977,
      "v": 104
    },
    {
      "midi": 72,
      "hit": false,
      "t": 92230.4244375,
      "d": 245.09812500000407,
      "v": 86
    },
    {
      "midi": 71,
      "hit": false,
      "t": 92553.9539625,
      "d": 245.09812500000407,
      "v": 88
    },
    {
      "midi": 71,
      "hit": false,
      "t": 92921.60115,
      "d": 465.68643750000047,
      "v": 94
    },
    {
      "midi": 74,
      "hit": false,
      "t": 93406.8954375,
      "d": 1977.9418687500001,
      "v": 65
    },
    {
      "midi": 67,
      "hit": false,
      "t": 95821.11196875,
      "d": 245.09812500000407,
      "v": 76
    },
    {
      "midi": 69,
      "hit": false,
      "t": 96127.48462500001,
      "d": 208.3334062500071,
      "v": 107
    },
    {
      "midi": 71,
      "hit": false,
      "t": 96512.28868125002,
      "d": 269.6079374999972,
      "v": 110
    },
    {
      "midi": 72,
      "hit": false,
      "t": 96899.54371875002,
      "d": 250.00008749999688,
      "v": 82
    },
    {
      "midi": 74,
      "hit": false,
      "t": 97230.42618750002,
      "d": 225.49027500000375,
      "v": 83
    },
    {
      "midi": 71,
      "hit": false,
      "t": 97524.54393750003,
      "d": 1389.706368750005,
      "v": 70
    },
    {
      "midi": 69,
      "hit": false,
      "t": 99367.68183750003,
      "d": 129.9020062500058,
      "v": 64
    },
    {
      "midi": 69,
      "hit": false,
      "t": 99661.79958750003,
      "d": 191.1765374999959,
      "v": 97
    },
    {
      "midi": 69,
      "hit": false,
      "t": 99987.78009375003,
      "d": 225.49027500000375,
      "v": 120
    },
    {
      "midi": 67,
      "hit": false,
      "t": 100281.89784375003,
      "d": 164.2157437499991,
      "v": 78
    },
    {
      "midi": 67,
      "hit": false,
      "t": 100568.66265000003,
      "d": 171.56868749999558,
      "v": 76
    },
    {
      "midi": 67,
      "hit": false,
      "t": 100882.38825000002,
      "d": 539.2158749999944,
      "v": 92
    },
    {
      "midi": 65,
      "hit": false,
      "t": 101463.27080625002,
      "d": 183.82359374999942,
      "v": 75
    },
    {
      "midi": 65,
      "hit": false,
      "t": 101752.48659375001,
      "d": 171.56868749999558,
      "v": 94
    },
    {
      "midi": 65,
      "hit": false,
      "t": 102083.36906250002,
      "d": 575.9805937500059,
      "v": 101
    },
    {
      "midi": 64,
      "hit": false,
      "t": 102659.34965625002,
      "d": 330.88246875000186,
      "v": 75
    },
    {
      "midi": 62,
      "hit": false,
      "t": 103093.17333750002,
      "d": 325.9805062499945,
      "v": 94
    },
    {
      "midi": 64,
      "hit": false,
      "t": 103541.70290625001,
      "d": 3235.2952499999956,
      "v": 86
    },
    {
      "midi": 69,
      "hit": false,
      "t": 108791.70474375,
      "d": 220.5883124999964,
      "v": 101
    },
    {
      "midi": 69,
      "hit": false,
      "t": 109098.0774,
      "d": 497.54919375000463,
      "v": 94
    },
    {
      "midi": 76,
      "hit": false,
      "t": 109735.332525,
      "d": 889.7061937499966,
      "v": 92
    },
    {
      "midi": 67,
      "hit": false,
      "t": 110625.03871875,
      "d": 1242.6474937500025,
      "v": 65
    },
    {
      "midi": 67,
      "hit": false,
      "t": 112296.60793125001,
      "d": 539.2158749999944,
      "v": 107
    },
    {
      "midi": 79,
      "hit": false,
      "t": 112879.94146875,
      "d": 985.2944624999946,
      "v": 94
    },
    {
      "midi": 75,
      "hit": false,
      "t": 113987.78499374999,
      "d": 85.78434374999779,
      "v": 100
    },
    {
      "midi": 76,
      "hit": false,
      "t": 114073.56933749998,
      "d": 441.1766249999928,
      "v": 107
    },
    {
      "midi": 75,
      "hit": false,
      "t": 114080.92228124998,
      "d": 36.76471874999697,
      "v": 62
    },
    {
      "midi": 74,
      "hit": false,
      "t": 114637.29502499997,
      "d": 1250.000437499999,
      "v": 101
    },
    {
      "midi": 72,
      "hit": false,
      "t": 115857.88368749997,
      "d": 1843.1379000000015,
      "v": 73
    },
    {
      "midi": 69,
      "hit": false,
      "t": 118174.06096874997,
      "d": 232.84321875000023,
      "v": 92
    },
    {
      "midi": 69,
      "hit": false,
      "t": 118522.10030624997,
      "d": 477.9413437500043,
      "v": 88
    },
    {
      "midi": 76,
      "hit": false,
      "t": 119105.43384374997,
      "d": 911.7650250000006,
      "v": 97
    },
    {
      "midi": 67,
      "hit": false,
      "t": 120017.19886874997,
      "d": 1801.4712187499972,
      "v": 85
    },
    {
      "midi": 67,
      "hit": false,
      "t": 122639.74880624996,
      "d": 191.1765374999959,
      "v": 68
    },
    {
      "midi": 67,
      "hit": false,
      "t": 122946.12146249996,
      "d": 171.56868749999558,
      "v": 85
    },
    {
      "midi": 67,
      "hit": false,
      "t": 123223.08234374995,
      "d": 183.82359374999942,
      "v": 80
    },
    {
      "midi": 69,
      "hit": false,
      "t": 123529.45499999994,
      "d": 465.68643750000047,
      "v": 107
    },
    {
      "midi": 72,
      "hit": false,
      "t": 124117.69049999994,
      "d": 397.0589624999993,
      "v": 101
    },
    {
      "midi": 74,
      "hit": false,
      "t": 124674.06324374994,
      "d": 833.3336249999993,
      "v": 104
    },
    {
      "midi": 72,
      "hit": false,
      "t": 125568.67139999995,
      "d": 1612.745662500005,
      "v": 85
    },
    {
      "midi": 69,
      "hit": false,
      "t": 127573.57406249996,
      "d": 183.82359374999942,
      "v": 83
    },
    {
      "midi": 69,
      "hit": false,
      "t": 127916.71143749997,
      "d": 441.1766249999928,
      "v": 86
    },
    {
      "midi": 76,
      "hit": false,
      "t": 128517.20184374996,
      "d": 870.0983437499963,
      "v": 97
    },
    {
      "midi": 67,
      "hit": false,
      "t": 129387.30018749996,
      "d": 1450.980899999995,
      "v": 73
    },
    {
      "midi": 67,
      "hit": false,
      "t": 131152.00668749996,
      "d": 502.45115624999744,
      "v": 101
    },
    {
      "midi": 79,
      "hit": false,
      "t": 131732.88924374996,
      "d": 980.3924999999872,
      "v": 99
    },
    {
      "midi": 48,
      "hit": false,
      "t": 131764.75199999992,
      "d": 1188.7259062500088,
      "v": 82
    },
    {
      "midi": 67,
      "hit": false,
      "t": 131769.65396249993,
      "d": 992.6474062500056,
      "v": 82
    },
    {
      "midi": 64,
      "hit": false,
      "t": 131769.65396249993,
      "d": 1134.8043187500152,
      "v": 83
    },
    {
      "midi": 75,
      "hit": false,
      "t": 132872.59552499995,
      "d": 93.13728749999427,
      "v": 96
    },
    {
      "midi": 62,
      "hit": false,
      "t": 132953.47790624993,
      "d": 943.6277812499902,
      "v": 77
    },
    {
      "midi": 67,
      "hit": false,
      "t": 132953.47790624993,
      "d": 980.3924999999872,
      "v": 83
    },
    {
      "midi": 47,
      "hit": false,
      "t": 132953.47790624993,
      "d": 1225.4906249999767,
      "v": 76
    },
    {
      "midi": 76,
      "hit": false,
      "t": 132970.63477499995,
      "d": 460.7844749999931,
      "v": 86
    },
    {
      "midi": 74,
      "hit": false,
      "t": 133497.59574374996,
      "d": 1139.7062812499935,
      "v": 86
    },
    {
      "midi": 60,
      "hit": false,
      "t": 134129.94890624992,
      "d": 936.2748374999792,
      "v": 73
    },
    {
      "midi": 64,
      "hit": false,
      "t": 134129.94890624992,
      "d": 943.6277812499902,
      "v": 61
    },
    {
      "midi": 69,
      "hit": false,
      "t": 134129.94890624992,
      "d": 960.7846499999869,
      "v": 77
    },
    {
      "midi": 45,
      "hit": false,
      "t": 134129.94890624992,
      "d": 1071.0788062499778,
      "v": 81
    },
    {
      "midi": 76,
      "hit": false,
      "t": 134632.40006249995,
      "d": 220.58831250001094,
      "v": 79
    },
    {
      "midi": 74,
      "hit": false,
      "t": 134821.12561874997,
      "d": 178.9216312499775,
      "v": 62
    },
    {
      "midi": 72,
      "hit": false,
      "t": 135017.20411874994,
      "d": 1556.3730937500077,
      "v": 83
    },
    {
      "midi": 64,
      "hit": false,
      "t": 135299.0669624999,
      "d": 938.725818750012,
      "v": 78
    },
    {
      "midi": 71,
      "hit": false,
      "t": 135299.0669624999,
      "d": 975.4905375000089,
      "v": 83
    },
    {
      "midi": 43,
      "hit": false,
      "t": 135299.0669624999,
      "d": 1000.0003500000166,
      "v": 77
    },
    {
      "midi": 64,
      "hit": false,
      "t": 136475.53796249992,
      "d": 5387.256787500024,
      "v": 77
    },
    {
      "midi": 41,
      "hit": false,
      "t": 136482.89090624993,
      "d": 5360.295993750013,
      "v": 73
    },
    {
      "midi": 60,
      "hit": false,
      "t": 136482.89090624993,
      "d": 5360.295993750013,
      "v": 75
    },
    {
      "midi": 69,
      "hit": false,
      "t": 136482.89090624993,
      "d": 5379.903843750013,
      "v": 83
    },
    {
      "midi": 69,
      "hit": false,
      "t": 137100.53818124995,
      "d": 154.41181874999893,
      "v": 73
    },
    {
      "midi": 69,
      "hit": false,
      "t": 137389.75396874995,
      "d": 458.33349374998943,
      "v": 97
    },
    {
      "midi": 76,
      "hit": false,
      "t": 137933.87180624995,
      "d": 264.70597499998985,
      "v": 101
    },
    {
      "midi": 67,
      "hit": false,
      "t": 138223.08759374995,
      "d": 563.7256875000021,
      "v": 71
    },
    {
      "midi": 69,
      "hit": false,
      "t": 138786.81328124995,
      "d": 2389.706718750007,
      "v": 66
    },
    {
      "midi": 67,
      "hit": false,
      "t": 147647.11049999995,
      "d": 237.7451812500076,
      "v": 80
    },
    {
      "midi": 69,
      "hit": false,
      "t": 147965.73806249996,
      "d": 208.33340624999255,
      "v": 92
    },
    {
      "midi": 71,
      "hit": false,
      "t": 148350.54211874996,
      "d": 325.9805062499945,
      "v": 94
    },
    {
      "midi": 72,
      "hit": false,
      "t": 148779.46383749996,
      "d": 240.19616250001127,
      "v": 74
    },
    {
      "midi": 71,
      "hit": false,
      "t": 149142.20906249998,
      "d": 245.09812499998952,
      "v": 76
    },
    {
      "midi": 71,
      "hit": false,
      "t": 149490.24839999998,
      "d": 2267.1576562499977,
      "v": 80
    },
    {
      "midi": 67,
      "hit": false,
      "t": 152308.8768375,
      "d": 245.09812499998952,
      "v": 88
    },
    {
      "midi": 69,
      "hit": false,
      "t": 152652.01421249998,
      "d": 208.33340624999255,
      "v": 104
    },
    {
      "midi": 71,
      "hit": false,
      "t": 153019.66139999998,
      "d": 281.8628437499865,
      "v": 104
    },
    {
      "midi": 72,
      "hit": false,
      "t": 153406.91643749998,
      "d": 262.25499374998617,
      "v": 83
    },
    {
      "midi": 74,
      "hit": false,
      "t": 153791.72049374998,
      "d": 245.09812499998952,
      "v": 85
    },
    {
      "midi": 71,
      "hit": false,
      "t": 154122.60296249998,
      "d": 1551.4711312500003,
      "v": 82
    },
    {
      "midi": 69,
      "hit": false,
      "t": 155850.54474374998,
      "d": 166.66672499998822,
      "v": 65
    },
    {
      "midi": 69,
      "hit": false,
      "t": 156193.68211874997,
      "d": 110.29415624999092,
      "v": 75
    },
    {
      "midi": 69,
      "hit": false,
      "t": 156470.64299999995,
      "d": 225.4902749999892,
      "v": 113
    },
    {
      "midi": 67,
      "hit": false,
      "t": 156740.25093749995,
      "d": 164.21574375001364,
      "v": 76
    },
    {
      "midi": 67,
      "hit": false,
      "t": 157046.62359374997,
      "d": 134.8039687499986,
      "v": 71
    },
    {
      "midi": 67,
      "hit": false,
      "t": 157357.89821249997,
      "d": 539.2158749999944,
      "v": 107
    },
    {
      "midi": 65,
      "hit": false,
      "t": 157941.23174999998,
      "d": 208.33340624999255,
      "v": 75
    },
    {
      "midi": 65,
      "hit": false,
      "t": 158235.34949999998,
      "d": 208.33340624999255,
      "v": 101
    },
    {
      "midi": 65,
      "hit": false,
      "t": 158546.62411874998,
      "d": 477.94134374998976,
      "v": 110
    },
    {
      "midi": 64,
      "hit": false,
      "t": 159110.34980625,
      "d": 240.19616250001127,
      "v": 85
    },
    {
      "midi": 62,
      "hit": false,
      "t": 159416.7224625,
      "d": 338.2354124999838,
      "v": 92
    },
    {
      "midi": 63,
      "hit": false,
      "t": 159705.93825,
      "d": 78.4313999999722,
      "v": 96
    },
    {
      "midi": 64,
      "hit": false,
      "t": 159784.36964999998,
      "d": 3683.8248187499994,
      "v": 90
    },
    {
      "midi": 67,
      "hit": false,
      "t": 166470.64649999997,
      "d": 245.09812499998952,
      "v": 92
    },
    {
      "midi": 69,
      "hit": false,
      "t": 166794.17602499996,
      "d": 208.33340624999255,
      "v": 99
    },
    {
      "midi": 71,
      "hit": false,
      "t": 167125.05849374997,
      "d": 289.21578749999753,
      "v": 101
    },
    {
      "midi": 72,
      "hit": false,
      "t": 167512.31353124997,
      "d": 245.09812499998952,
      "v": 97
    },
    {
      "midi": 71,
      "hit": false,
      "t": 167860.35286874996,
      "d": 227.94125624999288,
      "v": 94
    },
    {
      "midi": 71,
      "hit": false,
      "t": 168228.00005624996,
      "d": 362.7452249999915,
      "v": 101
    },
    {
      "midi": 73,
      "hit": false,
      "t": 168656.92177499997,
      "d": 68.62747500001569,
      "v": 86
    },
    {
      "midi": 74,
      "hit": false,
      "t": 168718.19630624997,
      "d": 2205.883125000022,
      "v": 113
    },
    {
      "midi": 67,
      "hit": false,
      "t": 171004.9618125,
      "d": 262.25499374998617,
      "v": 90
    },
    {
      "midi": 69,
      "hit": false,
      "t": 171372.609,
      "d": 262.25499374998617,
      "v": 99
    },
    {
      "midi": 71,
      "hit": false,
      "t": 171801.53071874997,
      "d": 397.0589625000139,
      "v": 107
    },
    {
      "midi": 72,
      "hit": false,
      "t": 172259.8642125,
      "d": 245.09812499998952,
      "v": 90
    },
    {
      "midi": 74,
      "hit": false,
      "t": 172573.58981249997,
      "d": 245.09812499998952,
      "v": 92
    },
    {
      "midi": 71,
      "hit": false,
      "t": 172904.47228124997,
      "d": 1450.980899999995,
      "v": 90
    },
    {
      "midi": 69,
      "hit": false,
      "t": 174649.57093124997,
      "d": 191.1765374999959,
      "v": 97
    },
    {
      "midi": 69,
      "hit": false,
      "t": 174963.29653124997,
      "d": 164.21574375001364,
      "v": 68
    },
    {
      "midi": 69,
      "hit": false,
      "t": 175294.17899999997,
      "d": 220.58831250001094,
      "v": 101
    },
    {
      "midi": 67,
      "hit": false,
      "t": 175576.04184375,
      "d": 151.96083749999525,
      "v": 75
    },
    {
      "midi": 67,
      "hit": false,
      "t": 175887.3164625,
      "d": 154.41181874999893,
      "v": 86
    },
    {
      "midi": 67,
      "hit": false,
      "t": 176181.4342125,
      "d": 558.8237249999947,
      "v": 104
    },
    {
      "midi": 65,
      "hit": false,
      "t": 176764.76775,
      "d": 164.21574375001364,
      "v": 80
    },
    {
      "midi": 65,
      "hit": false,
      "t": 177071.14040625002,
      "d": 134.8039687499986,
      "v": 94
    },
    {
      "midi": 65,
      "hit": false,
      "t": 177382.41502500002,
      "d": 522.0590062499978,
      "v": 110
    },
    {
      "midi": 64,
      "hit": false,
      "t": 177946.14071250003,
      "d": 338.2354124999838,
      "v": 74
    },
    {
      "midi": 62,
      "hit": false,
      "t": 178235.35650000002,
      "d": 208.33340624999255,
      "v": 83
    },
    {
      "midi": 64,
      "hit": false,
      "t": 178546.63111875003,
      "d": 4370.099568750011,
      "v": 88
    },
    {
      "midi": 69,
      "hit": false,
      "t": 184105.45659375004,
      "d": 188.72555624999222,
      "v": 92
    },
    {
      "midi": 69,
      "hit": false,
      "t": 184411.82925000004,
      "d": 502.45115624999744,
      "v": 88
    },
    {
      "midi": 76,
      "hit": false,
      "t": 185036.82946875005,
      "d": 833.3336249999993,
      "v": 94
    },
    {
      "midi": 67,
      "hit": false,
      "t": 185870.16309375004,
      "d": 1568.627999999997,
      "v": 71
    },
    {
      "midi": 67,
      "hit": false,
      "t": 187634.86959375005,
      "d": 593.137462499988,
      "v": 107
    },
    {
      "midi": 79,
      "hit": false,
      "t": 188235.36000000004,
      "d": 980.3924999999872,
      "v": 107
    },
    {
      "midi": 75,
      "hit": false,
      "t": 189294.18390000003,
      "d": 105.39219374998356,
      "v": 96
    },
    {
      "midi": 76,
      "hit": false,
      "t": 189367.71333750003,
      "d": 465.68643750000047,
      "v": 101
    },
    {
      "midi": 74,
      "hit": false,
      "t": 189894.67430625003,
      "d": 1159.3141312499938,
      "v": 88
    },
    {
      "midi": 76,
      "hit": false,
      "t": 191058.89040000003,
      "d": 196.07849999997416,
      "v": 76
    },
    {
      "midi": 74,
      "hit": false,
      "t": 191225.55712500002,
      "d": 171.56868749999558,
      "v": 73
    },
    {
      "midi": 72,
      "hit": false,
      "t": 191397.12581250002,
      "d": 2112.7458374999987,
      "v": 82
    },
    {
      "midi": 69,
      "hit": false,
      "t": 193553.98931250002,
      "d": 225.4902749999892,
      "v": 86
    },
    {
      "midi": 69,
      "hit": false,
      "t": 193902.02865000002,
      "d": 502.45115624999744,
      "v": 92
    },
    {
      "midi": 76,
      "hit": false,
      "t": 194448.59746875003,
      "d": 862.7454000000143,
      "v": 92
    },
    {
      "midi": 67,
      "hit": false,
      "t": 195311.34286875004,
      "d": 1654.4123437500093,
      "v": 76
    },
    {
      "midi": 67,
      "hit": false,
      "t": 197879.97121875006,
      "d": 208.33340624999255,
      "v": 66
    },
    {
      "midi": 67,
      "hit": false,
      "t": 198186.34387500005,
      "d": 164.21574375001364,
      "v": 83
    },
    {
      "midi": 67,
      "hit": false,
      "t": 198497.61849375005,
      "d": 183.82359375001397,
      "v": 97
    },
    {
      "midi": 69,
      "hit": false,
      "t": 198803.99115000007,
      "d": 502.45115624999744,
      "v": 113
    },
    {
      "midi": 72,
      "hit": false,
      "t": 199387.32468750008,
      "d": 306.3726562499942,
      "v": 101
    },
    {
      "midi": 74,
      "hit": false,
      "t": 199987.81509375008,
      "d": 563.7256875000021,
      "v": 107
    },
    {
      "midi": 76,
      "hit": false,
      "t": 200593.20746250008,
      "d": 245.09812499998952,
      "v": 78
    },
    {
      "midi": 72,
      "hit": false,
      "t": 200899.58011875008,
      "d": 987.7454437499982,
      "v": 88
    },
    {
      "midi": 69,
      "hit": false,
      "t": 202909.38474375007,
      "d": 220.58831250001094,
      "v": 80
    },
    {
      "midi": 69,
      "hit": false,
      "t": 203252.5221187501,
      "d": 497.5491937499901,
      "v": 92
    },
    {
      "midi": 76,
      "hit": false,
      "t": 203811.34584375008,
      "d": 808.8238124999916,
      "v": 94
    },
    {
      "midi": 67,
      "hit": false,
      "t": 204686.34615000008,
      "d": 1004.9023124999949,
      "v": 85
    },
    {
      "midi": 67,
      "hit": false,
      "t": 206433.8957812501,
      "d": 556.3727437499911,
      "v": 104
    },
    {
      "midi": 79,
      "hit": false,
      "t": 207034.3861875001,
      "d": 985.2944624999946,
      "v": 92
    },
    {
      "midi": 75,
      "hit": false,
      "t": 208198.6022812501,
      "d": 73.52943750002305,
      "v": 96
    },
    {
      "midi": 76,
      "hit": false,
      "t": 208264.7787750001,
      "d": 424.01975625002524,
      "v": 101
    },
    {
      "midi": 74,
      "hit": false,
      "t": 208730.46521250013,
      "d": 1029.4121250000026,
      "v": 79
    },
    {
      "midi": 76,
      "hit": false,
      "t": 209779.48518750013,
      "d": 200.9804624999815,
      "v": 59
    },
    {
      "midi": 74,
      "hit": false,
      "t": 209951.05387500013,
      "d": 151.96083749999525,
      "v": 57
    },
    {
      "midi": 72,
      "hit": false,
      "t": 210103.01471250012,
      "d": 1691.1770625000063,
      "v": 78
    },
    {
      "midi": 69,
      "hit": false,
      "t": 212345.66255625014,
      "d": 147.0588749999879,
      "v": 75
    },
    {
      "midi": 69,
      "hit": false,
      "t": 212634.87834375014,
      "d": 477.94134374998976,
      "v": 88
    },
    {
      "midi": 76,
      "hit": false,
      "t": 213191.25108750013,
      "d": 264.70597499998985,
      "v": 88
    },
    {
      "midi": 67,
      "hit": false,
      "t": 213497.62374375013,
      "d": 588.2355000000098,
      "v": 71
    },
    {
      "midi": 69,
      "hit": false,
      "t": 214061.34943125013,
      "d": 1838.2359374999942,
      "v": 65
    },
    {
      "midi": 72,
      "hit": false,
      "t": 221176.54799999995,
      "d": 294.1177500000049,
      "v": 83
    },
    {
      "midi": 76,
      "hit": false,
      "t": 221176.54799999995,
      "d": 294.1177500000049,
      "v": 85
    },
    {
      "midi": 72,
      "hit": false,
      "t": 222353.01899999997,
      "d": 299.01971250001225,
      "v": 83
    },
    {
      "midi": 76,
      "hit": false,
      "t": 222353.01899999997,
      "d": 299.01971250001225,
      "v": 83
    },
    {
      "midi": 72,
      "hit": false,
      "t": 223529.49,
      "d": 294.1177500000049,
      "v": 83
    },
    {
      "midi": 76,
      "hit": false,
      "t": 223529.49,
      "d": 294.1177500000049,
      "v": 83
    },
    {
      "midi": 72,
      "hit": false,
      "t": 224705.96099999998,
      "d": 294.1177500000049,
      "v": 88
    },
    {
      "midi": 76,
      "hit": false,
      "t": 224705.96099999998,
      "d": 294.1177500000049,
      "v": 90
    },
    {
      "midi": 71,
      "hit": false,
      "t": 225882.43199999997,
      "d": 299.01971250001225,
      "v": 75
    },
    {
      "midi": 74,
      "hit": false,
      "t": 225882.43199999997,
      "d": 299.01971250001225,
      "v": 83
    },
    {
      "midi": 76,
      "hit": false,
      "t": 225882.43199999997,
      "d": 306.3726562500233,
      "v": 83
    },
    {
      "midi": 71,
      "hit": false,
      "t": 227058.903,
      "d": 294.1177500000049,
      "v": 84
    },
    {
      "midi": 74,
      "hit": false,
      "t": 227058.903,
      "d": 294.1177500000049,
      "v": 82
    },
    {
      "midi": 76,
      "hit": false,
      "t": 227058.903,
      "d": 294.1177500000049,
      "v": 83
    },
    {
      "midi": 71,
      "hit": false,
      "t": 228235.37399999998,
      "d": 294.1177500000049,
      "v": 82
    },
    {
      "midi": 74,
      "hit": false,
      "t": 228235.37399999998,
      "d": 294.1177500000049,
      "v": 81
    },
    {
      "midi": 76,
      "hit": false,
      "t": 228235.37399999998,
      "d": 294.1177500000049,
      "v": 83
    },
    {
      "midi": 76,
      "hit": false,
      "t": 229411.84499999997,
      "d": 294.1177500000049,
      "v": 89
    },
    {
      "midi": 71,
      "hit": false,
      "t": 229411.84499999997,
      "d": 318.6275625000126,
      "v": 86
    },
    {
      "midi": 74,
      "hit": false,
      "t": 229411.84499999997,
      "d": 318.6275625000126,
      "v": 88
    },
    {
      "midi": 69,
      "hit": false,
      "t": 230588.316,
      "d": 294.1177500000049,
      "v": 83
    },
    {
      "midi": 72,
      "hit": false,
      "t": 230588.316,
      "d": 294.1177500000049,
      "v": 84
    },
    {
      "midi": 76,
      "hit": false,
      "t": 230588.316,
      "d": 294.1177500000049,
      "v": 92
    },
    {
      "midi": 69,
      "hit": false,
      "t": 231764.78699999998,
      "d": 294.1177500000049,
      "v": 82
    },
    {
      "midi": 76,
      "hit": false,
      "t": 231764.78699999998,
      "d": 294.1177500000049,
      "v": 83
    },
    {
      "midi": 72,
      "hit": false,
      "t": 231764.78699999998,
      "d": 299.01971250001225,
      "v": 86
    },
    {
      "midi": 69,
      "hit": false,
      "t": 232941.258,
      "d": 294.1177500000049,
      "v": 71
    },
    {
      "midi": 72,
      "hit": false,
      "t": 232941.258,
      "d": 294.1177500000049,
      "v": 85
    },
    {
      "midi": 76,
      "hit": false,
      "t": 232941.258,
      "d": 294.1177500000049,
      "v": 83
    },
    {
      "midi": 69,
      "hit": false,
      "t": 234117.729,
      "d": 294.1177500000049,
      "v": 75
    },
    {
      "midi": 72,
      "hit": false,
      "t": 234117.729,
      "d": 294.1177500000049,
      "v": 82
    },
    {
      "midi": 76,
      "hit": false,
      "t": 234117.729,
      "d": 294.1177500000049,
      "v": 76
    },
    {
      "midi": 71,
      "hit": false,
      "t": 235294.19999999998,
      "d": 294.1177500000049,
      "v": 77
    },
    {
      "midi": 74,
      "hit": false,
      "t": 235294.19999999998,
      "d": 294.1177500000049,
      "v": 78
    },
    {
      "midi": 76,
      "hit": false,
      "t": 235294.19999999998,
      "d": 299.01971250001225,
      "v": 80
    },
    {
      "midi": 71,
      "hit": false,
      "t": 236470.671,
      "d": 294.1177500000049,
      "v": 75
    },
    {
      "midi": 74,
      "hit": false,
      "t": 236470.671,
      "d": 294.1177500000049,
      "v": 78
    },
    {
      "midi": 76,
      "hit": false,
      "t": 236470.671,
      "d": 294.1177500000049,
      "v": 74
    },
    {
      "midi": 71,
      "hit": false,
      "t": 237647.142,
      "d": 294.1177500000049,
      "v": 76
    },
    {
      "midi": 74,
      "hit": false,
      "t": 237647.142,
      "d": 294.1177500000049,
      "v": 80
    },
    {
      "midi": 76,
      "hit": false,
      "t": 237647.142,
      "d": 294.1177500000049,
      "v": 71
    },
    {
      "midi": 71,
      "hit": false,
      "t": 238823.61299999998,
      "d": 294.1177500000049,
      "v": 75
    },
    {
      "midi": 74,
      "hit": false,
      "t": 238823.61299999998,
      "d": 294.1177500000049,
      "v": 79
    },
    {
      "midi": 76,
      "hit": false,
      "t": 238823.61299999998,
      "d": 294.1177500000049,
      "v": 71
    },
    {
      "midi": 65,
      "hit": false,
      "t": 254122.63796249998,
      "d": 1470.5887499999953,
      "v": 93
    },
    {
      "midi": 72,
      "hit": false,
      "t": 254122.63796249998,
      "d": 1563.7260374999896,
      "v": 92
    },
    {
      "midi": 68,
      "hit": false,
      "t": 254122.63796249998,
      "d": 1580.8829062499863,
      "v": 102
    },
    {
      "midi": 67,
      "hit": false,
      "t": 255882.44249999998,
      "d": 2566.17736875001,
      "v": 91
    },
    {
      "midi": 70,
      "hit": false,
      "t": 255882.44249999998,
      "d": 2598.0401249999995,
      "v": 94
    },
    {
      "midi": 74,
      "hit": false,
      "t": 255887.34446249998,
      "d": 2642.1577874999784,
      "v": 86
    },
    {
      "midi": 68,
      "hit": false,
      "t": 258823.61999999997,
      "d": 1205.8827750000055,
      "v": 85
    },
    {
      "midi": 75,
      "hit": false,
      "t": 258823.61999999997,
      "d": 1225.4906250000058,
      "v": 90
    },
    {
      "midi": 72,
      "hit": false,
      "t": 258823.61999999997,
      "d": 1250.0004375000135,
      "v": 92
    },
    {
      "midi": 77,
      "hit": false,
      "t": 260593.22846249997,
      "d": 2801.4715687499847,
      "v": 88
    },
    {
      "midi": 72,
      "hit": false,
      "t": 260593.22846249997,
      "d": 2818.6284374999814,
      "v": 91
    },
    {
      "midi": 70,
      "hit": false,
      "t": 260593.22846249997,
      "d": 2825.9813812499633,
      "v": 82
    },
    {
      "midi": 70,
      "hit": false,
      "t": 265294.2105000001,
      "d": 183.82359375001397,
      "v": 92
    },
    {
      "midi": 72,
      "hit": false,
      "t": 265556.4654937501,
      "d": 227.94125625002198,
      "v": 86
    },
    {
      "midi": 74,
      "hit": false,
      "t": 265906.95581250015,
      "d": 225.4902749999892,
      "v": 110
    },
    {
      "midi": 75,
      "hit": false,
      "t": 266274.6030000001,
      "d": 245.09812500001863,
      "v": 86
    },
    {
      "midi": 74,
      "hit": false,
      "t": 266642.25018750015,
      "d": 225.4902749999892,
      "v": 99
    },
    {
      "midi": 74,
      "hit": false,
      "t": 267027.0542437501,
      "d": 1703.4319687500247,
      "v": 92
    },
    {
      "midi": 70,
      "hit": false,
      "t": 269980.48665000015,
      "d": 171.56868750002468,
      "v": 92
    },
    {
      "midi": 72,
      "hit": false,
      "t": 270269.7024375002,
      "d": 188.72555625002133,
      "v": 80
    },
    {
      "midi": 74,
      "hit": false,
      "t": 270617.7417750002,
      "d": 306.3726562500233,
      "v": 113
    },
    {
      "midi": 75,
      "hit": false,
      "t": 271004.9968125002,
      "d": 262.2549937500153,
      "v": 84
    },
    {
      "midi": 77,
      "hit": false,
      "t": 271372.6440000002,
      "d": 245.09812500001863,
      "v": 85
    },
    {
      "midi": 74,
      "hit": false,
      "t": 271740.29118750023,
      "d": 1573.5299624999752,
      "v": 97
    },
    {
      "midi": 72,
      "hit": false,
      "t": 273546.6643687502,
      "d": 129.90200624999125,
      "v": 92
    },
    {
      "midi": 72,
      "hit": false,
      "t": 273823.62525000016,
      "d": 122.54906250000931,
      "v": 83
    },
    {
      "midi": 72,
      "hit": false,
      "t": 274105.48809375014,
      "d": 188.72555625002133,
      "v": 101
    },
    {
      "midi": 70,
      "hit": false,
      "t": 274399.6058437502,
      "d": 110.29415625002002,
      "v": 86
    },
    {
      "midi": 70,
      "hit": false,
      "t": 274669.2137812502,
      "d": 127.45102500001667,
      "v": 81
    },
    {
      "midi": 70,
      "hit": false,
      "t": 274980.4884000002,
      "d": 460.7844749999931,
      "v": 104
    },
    {
      "midi": 68,
      "hit": false,
      "t": 275580.9788062502,
      "d": 110.29415625002002,
      "v": 89
    },
    {
      "midi": 68,
      "hit": false,
      "t": 275833.4298750002,
      "d": 127.45102500001667,
      "v": 92
    },
    {
      "midi": 68,
      "hit": false,
      "t": 276164.3123437502,
      "d": 477.94134374998976,
      "v": 96
    },
    {
      "midi": 67,
      "hit": false,
      "t": 276740.29293750017,
      "d": 151.96083749999525,
      "v": 62
    },
    {
      "midi": 65,
      "hit": false,
      "t": 277034.41068750015,
      "d": 164.21574374998454,
      "v": 72
    },
    {
      "midi": 66,
      "hit": false,
      "t": 277304.01862500014,
      "d": 66.17649375001201,
      "v": 79
    },
    {
      "midi": 67,
      "hit": false,
      "t": 277377.54806250014,
      "d": 2272.059618750005,
      "v": 80
    },
    {
      "midi": 70,
      "hit": false,
      "t": 284122.64846250013,
      "d": 183.82359375001397,
      "v": 96
    },
    {
      "midi": 72,
      "hit": false,
      "t": 284411.86425000016,
      "d": 220.58831249998184,
      "v": 94
    },
    {
      "midi": 74,
      "hit": false,
      "t": 284772.15849375015,
      "d": 306.3726562500233,
      "v": 113
    },
    {
      "midi": 75,
      "hit": false,
      "t": 285176.57040000014,
      "d": 289.21578750002664,
      "v": 92
    },
    {
      "midi": 74,
      "hit": false,
      "t": 285563.82543750014,
      "d": 208.33340624999255,
      "v": 110
    },
    {
      "midi": 74,
      "hit": false,
      "t": 285931.4726250001,
      "d": 490.19625000003725,
      "v": 88
    },
    {
      "midi": 75,
      "hit": false,
      "t": 286389.80611875013,
      "d": 129.90200624999125,
      "v": 79
    },
    {
      "midi": 76,
      "hit": false,
      "t": 286561.3748062501,
      "d": 159.3137812500354,
      "v": 68
    },
    {
      "midi": 77,
      "hit": false,
      "t": 286671.6689625001,
      "d": 1519.6083750000107,
      "v": 101
    },
    {
      "midi": 70,
      "hit": false,
      "t": 288779.51283750014,
      "d": 220.58831249998184,
      "v": 54
    },
    {
      "midi": 72,
      "hit": false,
      "t": 289105.49334375013,
      "d": 208.33340624999255,
      "v": 80
    },
    {
      "midi": 74,
      "hit": false,
      "t": 289453.53268125013,
      "d": 301.4706937500159,
      "v": 113
    },
    {
      "midi": 75,
      "hit": false,
      "t": 289955.98383750016,
      "d": 203.4314437499852,
      "v": 96
    },
    {
      "midi": 77,
      "hit": false,
      "t": 290245.1996250001,
      "d": 220.58831249998184,
      "v": 82
    },
    {
      "midi": 74,
      "hit": false,
      "t": 290551.5722812501,
      "d": 1781.863368750026,
      "v": 85
    },
    {
      "midi": 72,
      "hit": false,
      "t": 292377.5533125001,
      "d": 164.21574374998454,
      "v": 78
    },
    {
      "midi": 72,
      "hit": false,
      "t": 292664.3181187501,
      "d": 147.0588749999879,
      "v": 97
    },
    {
      "midi": 72,
      "hit": false,
      "t": 292933.9260562501,
      "d": 208.33340624999255,
      "v": 117
    },
    {
      "midi": 70,
      "hit": false,
      "t": 293240.2987125001,
      "d": 289.21578750002664,
      "v": 84
    },
    {
      "midi": 70,
      "hit": false,
      "t": 293571.1811812501,
      "d": 129.90200624999125,
      "v": 86
    },
    {
      "midi": 70,
      "hit": false,
      "t": 293840.7891187501,
      "d": 502.45115625002654,
      "v": 114
    },
    {
      "midi": 68,
      "hit": false,
      "t": 294404.5148062501,
      "d": 203.4314437499852,
      "v": 81
    },
    {
      "midi": 68,
      "hit": false,
      "t": 294710.8874625001,
      "d": 154.41181875002803,
      "v": 86
    },
    {
      "midi": 68,
      "hit": false,
      "t": 295041.7699312501,
      "d": 502.45115625002654,
      "v": 109
    },
    {
      "midi": 67,
      "hit": false,
      "t": 295605.4956187501,
      "d": 269.6079374999972,
      "v": 86
    },
    {
      "midi": 65,
      "hit": false,
      "t": 295973.1428062501,
      "d": 269.6079374999972,
      "v": 90
    },
    {
      "midi": 66,
      "hit": false,
      "t": 296377.5547125001,
      "d": 110.29415625002002,
      "v": 79
    },
    {
      "midi": 67,
      "hit": false,
      "t": 296495.2018125001,
      "d": 1242.6474937499734,
      "v": 72
    },
    {
      "midi": 67,
      "hit": false,
      "t": 297835.88855625,
      "d": 343.13737499999115,
      "v": 82
    },
    {
      "midi": 67,
      "hit": false,
      "t": 298284.418125,
      "d": 343.13737499999115,
      "v": 74
    },
    {
      "midi": 67,
      "hit": false,
      "t": 298730.4967125,
      "d": 1348.039687499986,
      "v": 62
    },
    {
      "midi": 72,
      "hit": false,
      "t": 301720.6938375,
      "d": 166.66672500001732,
      "v": 101
    },
    {
      "midi": 72,
      "hit": false,
      "t": 302034.4194375,
      "d": 355.39228124998044,
      "v": 99
    },
    {
      "midi": 79,
      "hit": false,
      "t": 302634.90984375,
      "d": 838.2355874999776,
      "v": 97
    },
    {
      "midi": 70,
      "hit": false,
      "t": 303522.16505625,
      "d": 1134.8043187499861,
      "v": 92
    },
    {
      "midi": 70,
      "hit": false,
      "t": 305269.7146875,
      "d": 433.82368124998175,
      "v": 100
    },
    {
      "midi": 82,
      "hit": false,
      "t": 305845.69528124994,
      "d": 980.3925000000163,
      "v": 79
    },
    {
      "midi": 79,
      "hit": false,
      "t": 307027.06824374996,
      "d": 477.94134374998976,
      "v": 94
    },
    {
      "midi": 77,
      "hit": false,
      "t": 307566.28411874996,
      "d": 1176.4710000000196,
      "v": 90
    },
    {
      "midi": 75,
      "hit": false,
      "t": 308767.26493124996,
      "d": 1838.2359375000233,
      "v": 86
    },
    {
      "midi": 72,
      "hit": false,
      "t": 311156.97164999996,
      "d": 183.82359375001397,
      "v": 88
    },
    {
      "midi": 72,
      "hit": false,
      "t": 311482.95215624996,
      "d": 323.52952500001993,
      "v": 88
    },
    {
      "midi": 79,
      "hit": false,
      "t": 312039.32489999995,
      "d": 735.2943749999977,
      "v": 86
    },
    {
      "midi": 70,
      "hit": false,
      "t": 312916.7761874999,
      "d": 833.3336250000284,
      "v": 81
    },
    {
      "midi": 70,
      "hit": false,
      "t": 313828.54121249996,
      "d": 1433.8240312500275,
      "v": 59
    },
    {
      "midi": 70,
      "hit": false,
      "t": 315576.09084375,
      "d": 208.33340624999255,
      "v": 84
    },
    {
      "midi": 70,
      "hit": false,
      "t": 315924.13018125,
      "d": 129.90200624999125,
      "v": 77
    },
    {
      "midi": 70,
      "hit": false,
      "t": 316139.81653124996,
      "d": 188.72555625002133,
      "v": 64
    },
    {
      "midi": 72,
      "hit": false,
      "t": 316463.34605625,
      "d": 485.2942874999717,
      "v": 90
    },
    {
      "midi": 75,
      "hit": false,
      "t": 317063.8364625,
      "d": 208.33340624999255,
      "v": 89
    },
    {
      "midi": 77,
      "hit": false,
      "t": 317627.56214999995,
      "d": 563.725687499973,
      "v": 99
    },
    {
      "midi": 79,
      "hit": false,
      "t": 318235.40549999994,
      "d": 225.4902749999892,
      "v": 74
    },
    {
      "midi": 75,
      "hit": false,
      "t": 318541.7781562499,
      "d": 1495.098562499974,
      "v": 86
    },
    {
      "midi": 72,
      "hit": false,
      "t": 320544.22983749985,
      "d": 166.66672500001732,
      "v": 82
    },
    {
      "midi": 72,
      "hit": false,
      "t": 320894.7201562499,
      "d": 281.8628437499865,
      "v": 94
    },
    {
      "midi": 79,
      "hit": false,
      "t": 321470.70074999984,
      "d": 813.725774999999,
      "v": 101
    },
    {
      "midi": 70,
      "hit": false,
      "t": 322321.19124374987,
      "d": 1299.0200625000289,
      "v": 84
    },
    {
      "midi": 70,
      "hit": false,
      "t": 324093.2506874999,
      "d": 519.6080250000232,
      "v": 100
    },
    {
      "midi": 82,
      "hit": false,
      "t": 324674.1332437499,
      "d": 1024.5101625000243,
      "v": 68
    },
    {
      "midi": 79,
      "hit": false,
      "t": 325857.9571874999,
      "d": 477.94134374998976,
      "v": 94
    },
    {
      "midi": 77,
      "hit": false,
      "t": 326414.3299312499,
      "d": 1102.9415625000256,
      "v": 88
    },
    {
      "midi": 75,
      "hit": false,
      "t": 327603.0558374999,
      "d": 1551.4711312499712,
      "v": 86
    },
    {
      "midi": 72,
      "hit": false,
      "t": 329992.76255624986,
      "d": 147.0588749999879,
      "v": 79
    },
    {
      "midi": 72,
      "hit": false,
      "t": 330318.74306249985,
      "d": 502.45115625002654,
      "v": 94
    },
    {
      "midi": 75,
      "hit": false,
      "t": 330882.4687499999,
      "d": 250.00008750002598,
      "v": 82
    },
    {
      "midi": 70,
      "hit": false,
      "t": 331230.5080874999,
      "d": 387.25503749999916,
      "v": 94
    },
    {
      "midi": 72,
      "hit": false,
      "t": 331715.80237499985,
      "d": 1438.7259937499766,
      "v": 79
    },
    {
      "midi": 70,
      "hit": false,
      "t": 341446.19793749985,
      "d": 164.21574374998454,
      "v": 75
    },
    {
      "midi": 70,
      "hit": false,
      "t": 341752.5705937498,
      "d": 147.0588749999879,
      "v": 79
    },
    {
      "midi": 70,
      "hit": false,
      "t": 342039.3353999998,
      "d": 171.56868750002468,
      "v": 86
    },
    {
      "midi": 70,
      "hit": false,
      "t": 342353.0609999998,
      "d": 183.82359375001397,
      "v": 96
    },
    {
      "midi": 72,
      "hit": false,
      "t": 342639.8258062498,
      "d": 183.82359375001397,
      "v": 94
    },
    {
      "midi": 75,
      "hit": false,
      "t": 342929.04159374983,
      "d": 147.0588749999879,
      "v": 104
    },
    {
      "midi": 77,
      "hit": false,
      "t": 343235.4142499998,
      "d": 507.3531187499757,
      "v": 104
    },
    {
      "midi": 79,
      "hit": false,
      "t": 343718.2575562498,
      "d": 215.68634999997448,
      "v": 68
    },
    {
      "midi": 77,
      "hit": false,
      "t": 343865.3164312498,
      "d": 196.07850000000326,
      "v": 66
    },
    {
      "midi": 75,
      "hit": false,
      "t": 344012.37530624977,
      "d": 784.314000000013,
      "v": 86
    },
    {
      "midi": 79,
      "hit": false,
      "t": 344956.00308749976,
      "d": 343.13737499999115,
      "v": 104
    },
    {
      "midi": 77,
      "hit": false,
      "t": 345556.49349374976,
      "d": 1857.8437874999945,
      "v": 101
    },
    {
      "midi": 70,
      "hit": false,
      "t": 350845.7110312498,
      "d": 164.21574374998454,
      "v": 71
    },
    {
      "midi": 70,
      "hit": false,
      "t": 351132.4758374998,
      "d": 166.66672500001732,
      "v": 66
    },
    {
      "midi": 70,
      "hit": false,
      "t": 351438.8484937498,
      "d": 147.0588749999879,
      "v": 77
    },
    {
      "midi": 70,
      "hit": false,
      "t": 351745.22114999976,
      "d": 191.1765374999959,
      "v": 89
    },
    {
      "midi": 72,
      "hit": false,
      "t": 352022.18203124974,
      "d": 200.98046250001062,
      "v": 85
    },
    {
      "midi": 75,
      "hit": false,
      "t": 352328.55468749977,
      "d": 164.21574374998454,
      "v": 100
    },
    {
      "midi": 77,
      "hit": false,
      "t": 352634.92734374973,
      "d": 531.8629312500125,
      "v": 101
    },
    {
      "midi": 79,
      "hit": false,
      "t": 353117.77064999973,
      "d": 220.58831249998184,
      "v": 75
    },
    {
      "midi": 77,
      "hit": false,
      "t": 353247.6726562497,
      "d": 213.2353687499417,
      "v": 62
    },
    {
      "midi": 75,
      "hit": false,
      "t": 353419.2413437497,
      "d": 894.6081562499749,
      "v": 86
    },
    {
      "midi": 72,
      "hit": false,
      "t": 353505.02568749967,
      "d": 164.21574374998454,
      "v": 117
    },
    {
      "midi": 72,
      "hit": false,
      "t": 353828.55521249963,
      "d": 441.1766250000219,
      "v": 110
    },
    {
      "midi": 79,
      "hit": false,
      "t": 354436.3985624996,
      "d": 24.50981249997858,
      "v": 97
    },
    {
      "midi": 77,
      "hit": false,
      "t": 355036.8889687496,
      "d": 985.2944624999654,
      "v": 92
    },
    {
      "midi": 70,
      "hit": false,
      "t": 355245.2223749996,
      "d": 1242.6474937499734,
      "v": 96
    },
    {
      "midi": 70,
      "hit": false,
      "t": 360250.12608749955,
      "d": 183.82359375001397,
      "v": 63
    },
    {
      "midi": 70,
      "hit": false,
      "t": 360556.4987437496,
      "d": 147.0588749999879,
      "v": 69
    },
    {
      "midi": 70,
      "hit": false,
      "t": 360845.71453124954,
      "d": 164.21574374998454,
      "v": 86
    },
    {
      "midi": 70,
      "hit": false,
      "t": 361152.0871874995,
      "d": 208.33340624999255,
      "v": 96
    },
    {
      "midi": 72,
      "hit": false,
      "t": 361446.2049374995,
      "d": 183.82359375001397,
      "v": 88
    },
    {
      "midi": 75,
      "hit": false,
      "t": 361732.9697437495,
      "d": 183.82359375001397,
      "v": 100
    },
    {
      "midi": 77,
      "hit": false,
      "t": 362058.95024999947,
      "d": 441.1766250000219,
      "v": 99
    },
    {
      "midi": 79,
      "hit": false,
      "t": 362500.1268749995,
      "d": 220.58831250004005,
      "v": 71
    },
    {
      "midi": 77,
      "hit": false,
      "t": 362671.6955624995,
      "d": 196.07850000000326,
      "v": 66
    },
    {
      "midi": 75,
      "hit": false,
      "t": 362818.7544374995,
      "d": 899.5101187499822,
      "v": 81
    },
    {
      "midi": 72,
      "hit": false,
      "t": 362872.6760249995,
      "d": 183.82359375001397,
      "v": 104
    },
    {
      "midi": 72,
      "hit": false,
      "t": 363215.8133999995,
      "d": 404.4119062499958,
      "v": 86
    },
    {
      "midi": 79,
      "hit": false,
      "t": 363823.6567499995,
      "d": 453.4315312500112,
      "v": 94
    },
    {
      "midi": 70,
      "hit": false,
      "t": 364436.4020624995,
      "d": 1144.6082437500008,
      "v": 89
    },
    {
      "midi": 77,
      "hit": false,
      "t": 364441.3040249995,
      "d": 1629.9025312499725,
      "v": 82
    },
    {
      "midi": 41,
      "hit": false,
      "t": 447022.21528124996,
      "d": 14889.711093750026,
      "v": 92
    },
    {
      "midi": 55,
      "hit": false,
      "t": 447058.98,
      "d": 14852.946375,
      "v": 84
    },
    {
      "midi": 53,
      "hit": false,
      "t": 447076.13686875,
      "d": 14835.789506250003,
      "v": 96
    },
    {
      "midi": 57,
      "hit": false,
      "t": 447095.74471874995,
      "d": 14816.181656250032,
      "v": 107
    },
    {
      "midi": 60,
      "hit": false,
      "t": 447157.01924999995,
      "d": 14754.907125000027,
      "v": 88
    },
    {
      "midi": 65,
      "hit": false,
      "t": 447218.29378124996,
      "d": 14693.632593750022,
      "v": 87
    }
  ]
}