{
  "jsonPath": "Rock/Pop Rock/Sara Bareilles/love-song.json",
  "path": "Rock\\Pop Rock\\Sara Bareilles\\Love Song.mid",
  "name": "Love Song",
  "difficulty": "Advanced",
  "bpm": 120,
  "notes": [
    {
      "midi": 65,
      "hit": false,
      "t": 4012.2928083333336,
      "d": 323.77030833333356,
      "v": 64
    },
    {
      "midi": 67,
      "hit": false,
      "t": 4012.2928083333336,
      "d": 323.77030833333356,
      "v": 100
    },
    {
      "midi": 31,
      "hit": false,
      "t": 4012.2928083333336,
      "d": 327.8686666666672,
      "v": 100
    },
    {
      "midi": 43,
      "hit": false,
      "t": 4012.2928083333336,
      "d": 327.8686666666672,
      "v": 100
    },
    {
      "midi": 58,
      "hit": false,
      "t": 4012.2928083333336,
      "d": 348.36045833333355,
      "v": 100
    },
    {
      "midi": 62,
      "hit": false,
      "t": 4012.2928083333336,
      "d": 348.36045833333355,
      "v": 100
    },
    {
      "midi": 65,
      "hit": false,
      "t": 4504.0958083333335,
      "d": 344.2620999999999,
      "v": 64
    },
    {
      "midi": 67,
      "hit": false,
      "t": 4504.0958083333335,
      "d": 344.2620999999999,
      "v": 100
    },
    {
      "midi": 58,
      "hit": false,
      "t": 4504.0958083333335,
      "d": 368.8522499999999,
      "v": 100
    },
    {
      "midi": 62,
      "hit": false,
      "t": 4504.0958083333335,
      "d": 381.1473249999999,
      "v": 100
    },
    {
      "midi": 58,
      "hit": false,
      "t": 4995.898808333333,
      "d": 286.88508333333357,
      "v": 100
    },
    {
      "midi": 65,
      "hit": false,
      "t": 4995.898808333333,
      "d": 295.08179999999993,
      "v": 64
    },
    {
      "midi": 67,
      "hit": false,
      "t": 4995.898808333333,
      "d": 295.08179999999993,
      "v": 100
    },
    {
      "midi": 62,
      "hit": false,
      "t": 4995.898808333333,
      "d": 303.2785166666663,
      "v": 100
    },
    {
      "midi": 45,
      "hit": false,
      "t": 5323.767475,
      "d": 307.3768749999999,
      "v": 100
    },
    {
      "midi": 33,
      "hit": false,
      "t": 5323.767475,
      "d": 315.5735916666663,
      "v": 100
    },
    {
      "midi": 60,
      "hit": false,
      "t": 5487.701808333333,
      "d": 323.77030833333265,
      "v": 100
    },
    {
      "midi": 65,
      "hit": false,
      "t": 5487.701808333333,
      "d": 323.77030833333265,
      "v": 100
    },
    {
      "midi": 57,
      "hit": false,
      "t": 5487.701808333333,
      "d": 331.9670249999999,
      "v": 100
    },
    {
      "midi": 46,
      "hit": false,
      "t": 5815.5704749999995,
      "d": 336.06538333333356,
      "v": 100
    },
    {
      "midi": 34,
      "hit": false,
      "t": 5815.5704749999995,
      "d": 348.36045833333355,
      "v": 100
    },
    {
      "midi": 65,
      "hit": false,
      "t": 5979.504808333333,
      "d": 282.78672499999993,
      "v": 100
    },
    {
      "midi": 58,
      "hit": false,
      "t": 5979.504808333333,
      "d": 299.18015833333357,
      "v": 100
    },
    {
      "midi": 60,
      "hit": false,
      "t": 5979.504808333333,
      "d": 299.18015833333357,
      "v": 100
    },
    {
      "midi": 65,
      "hit": false,
      "t": 6471.307808333333,
      "d": 311.47523333333356,
      "v": 100
    },
    {
      "midi": 58,
      "hit": false,
      "t": 6471.307808333333,
      "d": 323.77030833333356,
      "v": 100
    },
    {
      "midi": 60,
      "hit": false,
      "t": 6471.307808333333,
      "d": 331.9670249999999,
      "v": 100
    },
    {
      "midi": 65,
      "hit": false,
      "t": 6963.110808333333,
      "d": 290.9834416666663,
      "v": 100
    },
    {
      "midi": 58,
      "hit": false,
      "t": 6963.110808333333,
      "d": 299.18015833333266,
      "v": 100
    },
    {
      "midi": 60,
      "hit": false,
      "t": 6963.110808333333,
      "d": 303.2785166666663,
      "v": 100
    },
    {
      "midi": 36,
      "hit": false,
      "t": 7290.979474999999,
      "d": 295.08179999999993,
      "v": 100
    },
    {
      "midi": 48,
      "hit": false,
      "t": 7290.979474999999,
      "d": 307.3768749999999,
      "v": 100
    },
    {
      "midi": 64,
      "hit": false,
      "t": 7454.913808333333,
      "d": 323.77030833333265,
      "v": 100
    },
    {
      "midi": 55,
      "hit": false,
      "t": 7454.913808333333,
      "d": 327.8686666666663,
      "v": 100
    },
    {
      "midi": 60,
      "hit": false,
      "t": 7454.913808333333,
      "d": 336.06538333333265,
      "v": 100
    },
    {
      "midi": 50,
      "hit": false,
      "t": 7782.782474999999,
      "d": 356.557174999999,
      "v": 100
    },
    {
      "midi": 38,
      "hit": false,
      "t": 7782.782474999999,
      "d": 368.852249999999,
      "v": 100
    },
    {
      "midi": 65,
      "hit": false,
      "t": 7946.716808333332,
      "d": 303.2785166666663,
      "v": 100
    },
    {
      "midi": 69,
      "hit": false,
      "t": 7946.716808333332,
      "d": 307.376874999999,
      "v": 100
    },
    {
      "midi": 62,
      "hit": false,
      "t": 7946.716808333332,
      "d": 331.967024999999,
      "v": 100
    },
    {
      "midi": 65,
      "hit": false,
      "t": 8438.51980833333,
      "d": 319.6719499999999,
      "v": 100
    },
    {
      "midi": 69,
      "hit": false,
      "t": 8438.51980833333,
      "d": 327.8686666666672,
      "v": 100
    },
    {
      "midi": 62,
      "hit": false,
      "t": 8438.51980833333,
      "d": 336.06538333333447,
      "v": 100
    },
    {
      "midi": 65,
      "hit": false,
      "t": 8930.322808333332,
      "d": 299.18015833333266,
      "v": 100
    },
    {
      "midi": 62,
      "hit": false,
      "t": 8930.322808333332,
      "d": 303.2785166666654,
      "v": 100
    },
    {
      "midi": 69,
      "hit": false,
      "t": 8930.322808333332,
      "d": 303.2785166666654,
      "v": 100
    },
    {
      "midi": 40,
      "hit": false,
      "t": 9258.191474999998,
      "d": 303.2785166666654,
      "v": 100
    },
    {
      "midi": 52,
      "hit": false,
      "t": 9258.191474999998,
      "d": 303.2785166666654,
      "v": 100
    },
    {
      "midi": 64,
      "hit": false,
      "t": 9422.12580833333,
      "d": 303.2785166666654,
      "v": 100
    },
    {
      "midi": 67,
      "hit": false,
      "t": 9422.12580833333,
      "d": 303.2785166666654,
      "v": 100
    },
    {
      "midi": 60,
      "hit": false,
      "t": 9422.12580833333,
      "d": 311.47523333333265,
      "v": 100
    },
    {
      "midi": 53,
      "hit": false,
      "t": 9749.994474999996,
      "d": 303.2785166666654,
      "v": 100
    },
    {
      "midi": 41,
      "hit": false,
      "t": 9749.994474999996,
      "d": 307.3768749999981,
      "v": 100
    },
    {
      "midi": 60,
      "hit": false,
      "t": 9913.928808333329,
      "d": 290.9834416666654,
      "v": 100
    },
    {
      "midi": 65,
      "hit": false,
      "t": 9913.928808333329,
      "d": 299.18015833333266,
      "v": 100
    },
    {
      "midi": 69,
      "hit": false,
      "t": 9913.928808333329,
      "d": 307.3768749999999,
      "v": 100
    },
    {
      "midi": 65,
      "hit": false,
      "t": 10405.731808333328,
      "d": 336.06538333333265,
      "v": 100
    },
    {
      "midi": 60,
      "hit": false,
      "t": 10405.731808333328,
      "d": 340.1637416666654,
      "v": 100
    },
    {
      "midi": 69,
      "hit": false,
      "t": 10405.731808333328,
      "d": 340.1637416666654,
      "v": 100
    },
    {
      "midi": 65,
      "hit": false,
      "t": 10897.534808333327,
      "d": 233.60642499999994,
      "v": 100
    },
    {
      "midi": 60,
      "hit": false,
      "t": 10897.534808333327,
      "d": 249.99985833333267,
      "v": 100
    },
    {
      "midi": 69,
      "hit": false,
      "t": 10897.534808333327,
      "d": 249.99985833333267,
      "v": 100
    },
    {
      "midi": 30,
      "hit": false,
      "t": 11225.403474999992,
      "d": 491.8029999999999,
      "v": 100
    },
    {
      "midi": 42,
      "hit": false,
      "t": 11225.403474999992,
      "d": 499.99971666666534,
      "v": 100
    },
    {
      "midi": 66,
      "hit": false,
      "t": 11389.337808333325,
      "d": 319.6719499999999,
      "v": 100
    },
    {
      "midi": 57,
      "hit": false,
      "t": 11389.337808333325,
      "d": 327.8686666666672,
      "v": 100
    },
    {
      "midi": 62,
      "hit": false,
      "t": 11389.337808333325,
      "d": 331.9670249999999,
      "v": 100
    },
    {
      "midi": 26,
      "hit": false,
      "t": 11717.206474999992,
      "d": 155.73761666666542,
      "v": 85
    },
    {
      "midi": 38,
      "hit": false,
      "t": 11717.206474999992,
      "d": 155.73761666666542,
      "v": 85
    },
    {
      "midi": 65,
      "hit": false,
      "t": 11881.140808333324,
      "d": 323.77030833333265,
      "v": 64
    },
    {
      "midi": 67,
      "hit": false,
      "t": 11881.140808333324,
      "d": 323.77030833333265,
      "v": 100
    },
    {
      "midi": 31,
      "hit": false,
      "t": 11881.140808333324,
      "d": 327.8686666666654,
      "v": 100
    },
    {
      "midi": 43,
      "hit": false,
      "t": 11881.140808333324,
      "d": 327.8686666666654,
      "v": 100
    },
    {
      "midi": 58,
      "hit": false,
      "t": 11881.140808333324,
      "d": 348.36045833333264,
      "v": 100
    },
    {
      "midi": 62,
      "hit": false,
      "t": 11881.140808333324,
      "d": 348.36045833333264,
      "v": 100
    },
    {
      "midi": 65,
      "hit": false,
      "t": 12372.943808333324,
      "d": 344.2620999999999,
      "v": 64
    },
    {
      "midi": 67,
      "hit": false,
      "t": 12372.943808333324,
      "d": 344.2620999999999,
      "v": 100
    },
    {
      "midi": 58,
      "hit": false,
      "t": 12372.943808333324,
      "d": 368.8522499999999,
      "v": 100
    },
    {
      "midi": 62,
      "hit": false,
      "t": 12372.943808333324,
      "d": 381.1473249999999,
      "v": 100
    },
    {
      "midi": 58,
      "hit": false,
      "t": 12864.746808333324,
      "d": 286.88508333333266,
      "v": 100
    },
    {
      "midi": 65,
      "hit": false,
      "t": 12864.746808333324,
      "d": 295.08179999999993,
      "v": 64
    },
    {
      "midi": 67,
      "hit": false,
      "t": 12864.746808333324,
      "d": 295.08179999999993,
      "v": 100
    },
    {
      "midi": 62,
      "hit": false,
      "t": 12864.746808333324,
      "d": 303.2785166666672,
      "v": 100
    },
    {
      "midi": 45,
      "hit": false,
      "t": 13192.615474999991,
      "d": 307.3768749999999,
      "v": 100
    },
    {
      "midi": 33,
      "hit": false,
      "t": 13192.615474999991,
      "d": 315.5735916666672,
      "v": 100
    },
    {
      "midi": 60,
      "hit": false,
      "t": 13356.549808333324,
      "d": 323.77030833333447,
      "v": 100
    },
    {
      "midi": 65,
      "hit": false,
      "t": 13356.549808333324,
      "d": 323.77030833333447,
      "v": 100
    },
    {
      "midi": 57,
      "hit": false,
      "t": 13356.549808333324,
      "d": 331.9670249999999,
      "v": 100
    },
    {
      "midi": 46,
      "hit": false,
      "t": 13684.418474999991,
      "d": 336.06538333333265,
      "v": 100
    },
    {
      "midi": 34,
      "hit": false,
      "t": 13684.418474999991,
      "d": 348.36045833333264,
      "v": 100
    },
    {
      "midi": 65,
      "hit": false,
      "t": 13848.352808333324,
      "d": 282.78672499999993,
      "v": 100
    },
    {
      "midi": 58,
      "hit": false,
      "t": 13848.352808333324,
      "d": 299.18015833333266,
      "v": 100
    },
    {
      "midi": 60,
      "hit": false,
      "t": 13848.352808333324,
      "d": 299.18015833333266,
      "v": 100
    },
    {
      "midi": 65,
      "hit": false,
      "t": 14340.155808333324,
      "d": 311.47523333333265,
      "v": 100
    },
    {
      "midi": 58,
      "hit": false,
      "t": 14340.155808333324,
      "d": 323.77030833333265,
      "v": 100
    },
    {
      "midi": 60,
      "hit": false,
      "t": 14340.155808333324,
      "d": 331.9670249999999,
      "v": 100
    },
    {
      "midi": 65,
      "hit": false,
      "t": 14831.958808333324,
      "d": 290.9834416666672,
      "v": 100
    },
    {
      "midi": 58,
      "hit": false,
      "t": 14831.958808333324,
      "d": 299.1801583333345,
      "v": 100
    },
    {
      "midi": 60,
      "hit": false,
      "t": 14831.958808333324,
      "d": 303.2785166666672,
      "v": 100
    },
    {
      "midi": 36,
      "hit": false,
      "t": 15159.827474999991,
      "d": 295.08179999999993,
      "v": 100
    },
    {
      "midi": 48,
      "hit": false,
      "t": 15159.827474999991,
      "d": 307.3768749999999,
      "v": 100
    },
    {
      "midi": 64,
      "hit": false,
      "t": 15323.761808333324,
      "d": 323.77030833333447,
      "v": 100
    },
    {
      "midi": 55,
      "hit": false,
      "t": 15323.761808333324,
      "d": 327.8686666666672,
      "v": 100
    },
    {
      "midi": 60,
      "hit": false,
      "t": 15323.761808333324,
      "d": 336.06538333333447,
      "v": 100
    },
    {
      "midi": 50,
      "hit": false,
      "t": 15651.63047499999,
      "d": 356.55717500000173,
      "v": 100
    },
    {
      "midi": 38,
      "hit": false,
      "t": 15651.63047499999,
      "d": 368.85225000000173,
      "v": 100
    },
    {
      "midi": 65,
      "hit": false,
      "t": 15815.564808333325,
      "d": 303.2785166666672,
      "v": 100
    },
    {
      "midi": 69,
      "hit": false,
      "t": 15815.564808333325,
      "d": 307.3768749999999,
      "v": 100
    },
    {
      "midi": 62,
      "hit": false,
      "t": 15815.564808333325,
      "d": 331.9670249999999,
      "v": 100
    },
    {
      "midi": 65,
      "hit": false,
      "t": 16307.367808333325,
      "d": 319.6719499999999,
      "v": 100
    },
    {
      "midi": 69,
      "hit": false,
      "t": 16307.367808333325,
      "d": 327.8686666666654,
      "v": 100
    },
    {
      "midi": 62,
      "hit": false,
      "t": 16307.367808333325,
      "d": 336.06538333333083,
      "v": 100
    },
    {
      "midi": 65,
      "hit": false,
      "t": 16799.17080833332,
      "d": 299.18015833333266,
      "v": 100
    },
    {
      "midi": 62,
      "hit": false,
      "t": 16799.17080833332,
      "d": 303.2785166666654,
      "v": 100
    },
    {
      "midi": 69,
      "hit": false,
      "t": 16799.17080833332,
      "d": 303.2785166666654,
      "v": 100
    },
    {
      "midi": 40,
      "hit": false,
      "t": 17127.039474999987,
      "d": 303.278516666669,
      "v": 100
    },
    {
      "midi": 52,
      "hit": false,
      "t": 17127.039474999987,
      "d": 303.278516666669,
      "v": 100
    },
    {
      "midi": 64,
      "hit": false,
      "t": 17290.97380833332,
      "d": 303.278516666669,
      "v": 100
    },
    {
      "midi": 67,
      "hit": false,
      "t": 17290.97380833332,
      "d": 303.278516666669,
      "v": 100
    },
    {
      "midi": 60,
      "hit": false,
      "t": 17290.97380833332,
      "d": 311.4752333333345,
      "v": 100
    },
    {
      "midi": 53,
      "hit": false,
      "t": 17618.84247499999,
      "d": 303.278516666669,
      "v": 100
    },
    {
      "midi": 41,
      "hit": false,
      "t": 17618.84247499999,
      "d": 307.37687500000175,
      "v": 100
    },
    {
      "midi": 60,
      "hit": false,
      "t": 17782.776808333325,
      "d": 290.9834416666672,
      "v": 100
    },
    {
      "midi": 65,
      "hit": false,
      "t": 17782.776808333325,
      "d": 299.18015833333266,
      "v": 100
    },
    {
      "midi": 69,
      "hit": false,
      "t": 17782.776808333325,
      "d": 307.3768749999981,
      "v": 100
    },
    {
      "midi": 65,
      "hit": false,
      "t": 18274.579808333325,
      "d": 336.06538333333447,
      "v": 100
    },
    {
      "midi": 60,
      "hit": false,
      "t": 18274.579808333325,
      "d": 340.1637416666672,
      "v": 100
    },
    {
      "midi": 69,
      "hit": false,
      "t": 18274.579808333325,
      "d": 340.1637416666672,
      "v": 100
    },
    {
      "midi": 65,
      "hit": false,
      "t": 18766.382808333325,
      "d": 233.60642500000176,
      "v": 100
    },
    {
      "midi": 60,
      "hit": false,
      "t": 18766.382808333325,
      "d": 249.9998583333363,
      "v": 100
    },
    {
      "midi": 69,
      "hit": false,
      "t": 18766.382808333325,
      "d": 249.9998583333363,
      "v": 100
    },
    {
      "midi": 30,
      "hit": false,
      "t": 19094.251474999994,
      "d": 491.8029999999999,
      "v": 100
    },
    {
      "midi": 42,
      "hit": false,
      "t": 19094.251474999994,
      "d": 499.99971666666534,
      "v": 100
    },
    {
      "midi": 66,
      "hit": false,
      "t": 19258.185808333328,
      "d": 319.6719499999999,
      "v": 100
    },
    {
      "midi": 57,
      "hit": false,
      "t": 19258.185808333328,
      "d": 327.8686666666654,
      "v": 100
    },
    {
      "midi": 62,
      "hit": false,
      "t": 19258.185808333328,
      "d": 331.9670249999981,
      "v": 100
    },
    {
      "midi": 26,
      "hit": false,
      "t": 19586.054474999994,
      "d": 155.73761666666542,
      "v": 88
    },
    {
      "midi": 38,
      "hit": false,
      "t": 19586.054474999994,
      "d": 155.73761666666542,
      "v": 88
    },
    {
      "midi": 65,
      "hit": false,
      "t": 19749.988808333324,
      "d": 323.77030833333265,
      "v": 64
    },
    {
      "midi": 67,
      "hit": false,
      "t": 19749.988808333324,
      "d": 323.77030833333265,
      "v": 100
    },
    {
      "midi": 31,
      "hit": false,
      "t": 19749.988808333324,
      "d": 327.8686666666654,
      "v": 100
    },
    {
      "midi": 43,
      "hit": false,
      "t": 19749.988808333324,
      "d": 327.8686666666654,
      "v": 100
    },
    {
      "midi": 58,
      "hit": false,
      "t": 19749.988808333324,
      "d": 348.36045833333264,
      "v": 100
    },
    {
      "midi": 62,
      "hit": false,
      "t": 19749.988808333324,
      "d": 348.36045833333264,
      "v": 100
    },
    {
      "midi": 65,
      "hit": false,
      "t": 20241.791808333324,
      "d": 344.2620999999999,
      "v": 64
    },
    {
      "midi": 67,
      "hit": false,
      "t": 20241.791808333324,
      "d": 344.2620999999999,
      "v": 100
    },
    {
      "midi": 58,
      "hit": false,
      "t": 20241.791808333324,
      "d": 368.8522499999999,
      "v": 100
    },
    {
      "midi": 62,
      "hit": false,
      "t": 20241.791808333324,
      "d": 381.14732500000173,
      "v": 100
    },
    {
      "midi": 58,
      "hit": false,
      "t": 20733.594808333328,
      "d": 286.8850833333345,
      "v": 100
    },
    {
      "midi": 65,
      "hit": false,
      "t": 20733.594808333328,
      "d": 295.08179999999993,
      "v": 64
    },
    {
      "midi": 67,
      "hit": false,
      "t": 20733.594808333328,
      "d": 295.08179999999993,
      "v": 100
    },
    {
      "midi": 62,
      "hit": false,
      "t": 20733.594808333328,
      "d": 303.2785166666654,
      "v": 100
    },
    {
      "midi": 45,
      "hit": false,
      "t": 21061.463474999993,
      "d": 307.37687500000175,
      "v": 100
    },
    {
      "midi": 33,
      "hit": false,
      "t": 21061.463474999993,
      "d": 315.5735916666672,
      "v": 100
    },
    {
      "midi": 60,
      "hit": false,
      "t": 21225.397808333328,
      "d": 323.77030833333265,
      "v": 100
    },
    {
      "midi": 65,
      "hit": false,
      "t": 21225.397808333328,
      "d": 323.77030833333265,
      "v": 100
    },
    {
      "midi": 57,
      "hit": false,
      "t": 21225.397808333328,
      "d": 331.9670249999981,
      "v": 100
    },
    {
      "midi": 46,
      "hit": false,
      "t": 21553.266474999993,
      "d": 336.06538333333447,
      "v": 100
    },
    {
      "midi": 34,
      "hit": false,
      "t": 21553.266474999993,
      "d": 348.3604583333363,
      "v": 100
    },
    {
      "midi": 65,
      "hit": false,
      "t": 21717.200808333328,
      "d": 282.78672500000175,
      "v": 100
    },
    {
      "midi": 58,
      "hit": false,
      "t": 21717.200808333328,
      "d": 299.1801583333363,
      "v": 100
    },
    {
      "midi": 60,
      "hit": false,
      "t": 21717.200808333328,
      "d": 299.1801583333363,
      "v": 100
    },
    {
      "midi": 65,
      "hit": false,
      "t": 22209.00380833333,
      "d": 311.4752333333345,
      "v": 100
    },
    {
      "midi": 58,
      "hit": false,
      "t": 22209.00380833333,
      "d": 323.7703083333363,
      "v": 100
    },
    {
      "midi": 60,
      "hit": false,
      "t": 22209.00380833333,
      "d": 331.96702500000174,
      "v": 100
    },
    {
      "midi": 65,
      "hit": false,
      "t": 22700.806808333335,
      "d": 290.9834416666672,
      "v": 100
    },
    {
      "midi": 58,
      "hit": false,
      "t": 22700.806808333335,
      "d": 299.18015833333266,
      "v": 100
    },
    {
      "midi": 60,
      "hit": false,
      "t": 22700.806808333335,
      "d": 303.2785166666654,
      "v": 100
    },
    {
      "midi": 36,
      "hit": false,
      "t": 23028.675475,
      "d": 295.08179999999993,
      "v": 100
    },
    {
      "midi": 48,
      "hit": false,
      "t": 23028.675475,
      "d": 307.37687500000175,
      "v": 100
    },
    {
      "midi": 64,
      "hit": false,
      "t": 23192.609808333335,
      "d": 323.77030833333265,
      "v": 100
    },
    {
      "midi": 55,
      "hit": false,
      "t": 23192.609808333335,
      "d": 327.8686666666654,
      "v": 100
    },
    {
      "midi": 60,
      "hit": false,
      "t": 23192.609808333335,
      "d": 336.06538333333083,
      "v": 100
    },
    {
      "midi": 50,
      "hit": false,
      "t": 23520.478475,
      "d": 356.5571749999981,
      "v": 100
    },
    {
      "midi": 38,
      "hit": false,
      "t": 23520.478475,
      "d": 368.8522499999999,
      "v": 100
    },
    {
      "midi": 65,
      "hit": false,
      "t": 23684.41280833333,
      "d": 303.278516666669,
      "v": 100
    },
    {
      "midi": 69,
      "hit": false,
      "t": 23684.41280833333,
      "d": 307.37687500000175,
      "v": 100
    },
    {
      "midi": 62,
      "hit": false,
      "t": 23684.41280833333,
      "d": 331.96702500000174,
      "v": 100
    },
    {
      "midi": 65,
      "hit": false,
      "t": 24176.215808333334,
      "d": 319.6719499999999,
      "v": 100
    },
    {
      "midi": 69,
      "hit": false,
      "t": 24176.215808333334,
      "d": 327.8686666666654,
      "v": 100
    },
    {
      "midi": 62,
      "hit": false,
      "t": 24176.215808333334,
      "d": 336.06538333333083,
      "v": 100
    },
    {
      "midi": 65,
      "hit": false,
      "t": 24668.01880833333,
      "d": 299.18015833333266,
      "v": 100
    },
    {
      "midi": 62,
      "hit": false,
      "t": 24668.01880833333,
      "d": 303.2785166666654,
      "v": 100
    },
    {
      "midi": 69,
      "hit": false,
      "t": 24668.01880833333,
      "d": 303.2785166666654,
      "v": 100
    },
    {
      "midi": 40,
      "hit": false,
      "t": 24995.887474999996,
      "d": 303.278516666669,
      "v": 100
    },
    {
      "midi": 52,
      "hit": false,
      "t": 24995.887474999996,
      "d": 303.278516666669,
      "v": 100
    },
    {
      "midi": 64,
      "hit": false,
      "t": 25159.82180833333,
      "d": 303.278516666669,
      "v": 100
    },
    {
      "midi": 67,
      "hit": false,
      "t": 25159.82180833333,
      "d": 303.278516666669,
      "v": 100
    },
    {
      "midi": 60,
      "hit": false,
      "t": 25159.82180833333,
      "d": 311.4752333333345,
      "v": 100
    },
    {
      "midi": 53,
      "hit": false,
      "t": 25487.690475,
      "d": 303.278516666669,
      "v": 100
    },
    {
      "midi": 41,
      "hit": false,
      "t": 25487.690475,
      "d": 307.37687500000175,
      "v": 100
    },
    {
      "midi": 60,
      "hit": false,
      "t": 25651.624808333334,
      "d": 290.9834416666672,
      "v": 100
    },
    {
      "midi": 65,
      "hit": false,
      "t": 25651.624808333334,
      "d": 299.18015833333266,
      "v": 100
    },
    {
      "midi": 69,
      "hit": false,
      "t": 25651.624808333334,
      "d": 307.3768749999981,
      "v": 100
    },
    {
      "midi": 65,
      "hit": false,
      "t": 26143.427808333334,
      "d": 336.06538333333447,
      "v": 100
    },
    {
      "midi": 60,
      "hit": false,
      "t": 26143.427808333334,
      "d": 340.1637416666672,
      "v": 100
    },
    {
      "midi": 69,
      "hit": false,
      "t": 26143.427808333334,
      "d": 340.1637416666672,
      "v": 100
    },
    {
      "midi": 65,
      "hit": false,
      "t": 26635.230808333334,
      "d": 233.60642500000176,
      "v": 100
    },
    {
      "midi": 60,
      "hit": false,
      "t": 26635.230808333334,
      "d": 249.9998583333363,
      "v": 100
    },
    {
      "midi": 69,
      "hit": false,
      "t": 26635.230808333334,
      "d": 249.9998583333363,
      "v": 100
    },
    {
      "midi": 30,
      "hit": false,
      "t": 26963.099475000003,
      "d": 491.8029999999999,
      "v": 100
    },
    {
      "midi": 42,
      "hit": false,
      "t": 26963.099475000003,
      "d": 499.99971666666534,
      "v": 100
    },
    {
      "midi": 66,
      "hit": false,
      "t": 27127.033808333337,
      "d": 319.6719499999999,
      "v": 100
    },
    {
      "midi": 57,
      "hit": false,
      "t": 27127.033808333337,
      "d": 327.8686666666654,
      "v": 100
    },
    {
      "midi": 62,
      "hit": false,
      "t": 27127.033808333337,
      "d": 331.9670249999981,
      "v": 100
    },
    {
      "midi": 26,
      "hit": false,
      "t": 27454.902475000003,
      "d": 155.73761666666542,
      "v": 85
    },
    {
      "midi": 38,
      "hit": false,
      "t": 27454.902475000003,
      "d": 155.73761666666542,
      "v": 85
    },
    {
      "midi": 65,
      "hit": false,
      "t": 27618.836808333333,
      "d": 323.77030833333265,
      "v": 64
    },
    {
      "midi": 67,
      "hit": false,
      "t": 27618.836808333333,
      "d": 323.77030833333265,
      "v": 100
    },
    {
      "midi": 31,
      "hit": false,
      "t": 27618.836808333333,
      "d": 327.8686666666654,
      "v": 100
    },
    {
      "midi": 43,
      "hit": false,
      "t": 27618.836808333333,
      "d": 327.8686666666654,
      "v": 100
    },
    {
      "midi": 58,
      "hit": false,
      "t": 27618.836808333333,
      "d": 348.36045833333264,
      "v": 100
    },
    {
      "midi": 62,
      "hit": false,
      "t": 27618.836808333333,
      "d": 348.36045833333264,
      "v": 100
    },
    {
      "midi": 65,
      "hit": false,
      "t": 28110.639808333333,
      "d": 344.2620999999999,
      "v": 64
    },
    {
      "midi": 67,
      "hit": false,
      "t": 28110.639808333333,
      "d": 344.2620999999999,
      "v": 100
    },
    {
      "midi": 58,
      "hit": false,
      "t": 28110.639808333333,
      "d": 368.8522499999999,
      "v": 100
    },
    {
      "midi": 62,
      "hit": false,
      "t": 28110.639808333333,
      "d": 381.14732500000173,
      "v": 100
    },
    {
      "midi": 58,
      "hit": false,
      "t": 28602.442808333337,
      "d": 286.8850833333345,
      "v": 100
    },
    {
      "midi": 65,
      "hit": false,
      "t": 28602.442808333337,
      "d": 295.08179999999993,
      "v": 64
    },
    {
      "midi": 67,
      "hit": false,
      "t": 28602.442808333337,
      "d": 295.08179999999993,
      "v": 100
    },
    {
      "midi": 62,
      "hit": false,
      "t": 28602.442808333337,
      "d": 303.2785166666654,
      "v": 100
    },
    {
      "midi": 45,
      "hit": false,
      "t": 28930.311475000002,
      "d": 307.37687500000175,
      "v": 100
    },
    {
      "midi": 33,
      "hit": false,
      "t": 28930.311475000002,
      "d": 315.5735916666672,
      "v": 100
    },
    {
      "midi": 60,
      "hit": false,
      "t": 29094.245808333337,
      "d": 323.77030833333265,
      "v": 100
    },
    {
      "midi": 65,
      "hit": false,
      "t": 29094.245808333337,
      "d": 323.77030833333265,
      "v": 100
    },
    {
      "midi": 57,
      "hit": false,
      "t": 29094.245808333337,
      "d": 331.9670249999981,
      "v": 100
    },
    {
      "midi": 46,
      "hit": false,
      "t": 29422.114475000002,
      "d": 336.06538333333447,
      "v": 100
    },
    {
      "midi": 34,
      "hit": false,
      "t": 29422.114475000002,
      "d": 348.3604583333363,
      "v": 100
    },
    {
      "midi": 65,
      "hit": false,
      "t": 29586.048808333337,
      "d": 282.78672500000175,
      "v": 100
    },
    {
      "midi": 58,
      "hit": false,
      "t": 29586.048808333337,
      "d": 299.1801583333363,
      "v": 100
    },
    {
      "midi": 60,
      "hit": false,
      "t": 29586.048808333337,
      "d": 299.1801583333363,
      "v": 100
    },
    {
      "midi": 65,
      "hit": false,
      "t": 30077.85180833334,
      "d": 311.4752333333345,
      "v": 100
    },
    {
      "midi": 58,
      "hit": false,
      "t": 30077.85180833334,
      "d": 323.7703083333363,
      "v": 100
    },
    {
      "midi": 60,
      "hit": false,
      "t": 30077.85180833334,
      "d": 331.96702500000174,
      "v": 100
    },
    {
      "midi": 65,
      "hit": false,
      "t": 30569.654808333344,
      "d": 290.9834416666672,
      "v": 100
    },
    {
      "midi": 58,
      "hit": false,
      "t": 30569.654808333344,
      "d": 299.18015833333266,
      "v": 100
    },
    {
      "midi": 60,
      "hit": false,
      "t": 30569.654808333344,
      "d": 303.2785166666654,
      "v": 100
    },
    {
      "midi": 36,
      "hit": false,
      "t": 30897.52347500001,
      "d": 295.08179999999993,
      "v": 100
    },
    {
      "midi": 48,
      "hit": false,
      "t": 30897.52347500001,
      "d": 307.37687500000175,
      "v": 100
    },
    {
      "midi": 64,
      "hit": false,
      "t": 31061.457808333344,
      "d": 323.77030833333265,
      "v": 100
    },
    {
      "midi": 55,
      "hit": false,
      "t": 31061.457808333344,
      "d": 327.8686666666654,
      "v": 100
    },
    {
      "midi": 60,
      "hit": false,
      "t": 31061.457808333344,
      "d": 336.06538333333083,
      "v": 100
    },
    {
      "midi": 50,
      "hit": false,
      "t": 31389.32647500001,
      "d": 356.5571749999981,
      "v": 100
    },
    {
      "midi": 38,
      "hit": false,
      "t": 31389.32647500001,
      "d": 368.8522499999999,
      "v": 100
    },
    {
      "midi": 65,
      "hit": false,
      "t": 31553.26080833334,
      "d": 303.278516666669,
      "v": 100
    },
    {
      "midi": 69,
      "hit": false,
      "t": 31553.26080833334,
      "d": 307.37687500000175,
      "v": 100
    },
    {
      "midi": 62,
      "hit": false,
      "t": 31553.26080833334,
      "d": 331.96702500000174,
      "v": 100
    },
    {
      "midi": 65,
      "hit": false,
      "t": 32045.063808333343,
      "d": 319.6719499999999,
      "v": 100
    },
    {
      "midi": 69,
      "hit": false,
      "t": 32045.063808333343,
      "d": 327.8686666666654,
      "v": 100
    },
    {
      "midi": 62,
      "hit": false,
      "t": 32045.063808333343,
      "d": 336.06538333333083,
      "v": 100
    },
    {
      "midi": 65,
      "hit": false,
      "t": 32536.86680833334,
      "d": 299.1801583333363,
      "v": 100
    },
    {
      "midi": 62,
      "hit": false,
      "t": 32536.86680833334,
      "d": 303.27851666667266,
      "v": 100
    },
    {
      "midi": 69,
      "hit": false,
      "t": 32536.86680833334,
      "d": 303.27851666667266,
      "v": 100
    },
    {
      "midi": 40,
      "hit": false,
      "t": 32864.735475000016,
      "d": 303.2785166666654,
      "v": 100
    },
    {
      "midi": 52,
      "hit": false,
      "t": 32864.735475000016,
      "d": 303.2785166666654,
      "v": 100
    },
    {
      "midi": 64,
      "hit": false,
      "t": 33028.66980833335,
      "d": 303.2785166666654,
      "v": 100
    },
    {
      "midi": 67,
      "hit": false,
      "t": 33028.66980833335,
      "d": 303.2785166666654,
      "v": 100
    },
    {
      "midi": 60,
      "hit": false,
      "t": 33028.66980833335,
      "d": 311.47523333333083,
      "v": 100
    },
    {
      "midi": 53,
      "hit": false,
      "t": 33356.53847500001,
      "d": 303.2785166666654,
      "v": 100
    },
    {
      "midi": 41,
      "hit": false,
      "t": 33356.53847500001,
      "d": 307.37687500000175,
      "v": 100
    },
    {
      "midi": 60,
      "hit": false,
      "t": 33520.47280833334,
      "d": 290.98344166667084,
      "v": 100
    },
    {
      "midi": 65,
      "hit": false,
      "t": 33520.47280833334,
      "d": 299.1801583333363,
      "v": 100
    },
    {
      "midi": 69,
      "hit": false,
      "t": 33520.47280833334,
      "d": 307.37687500000175,
      "v": 100
    },
    {
      "midi": 65,
      "hit": false,
      "t": 34012.27580833334,
      "d": 336.06538333333447,
      "v": 100
    },
    {
      "midi": 60,
      "hit": false,
      "t": 34012.27580833334,
      "d": 340.16374166667083,
      "v": 100
    },
    {
      "midi": 69,
      "hit": false,
      "t": 34012.27580833334,
      "d": 340.16374166667083,
      "v": 100
    },
    {
      "midi": 65,
      "hit": false,
      "t": 34504.07880833335,
      "d": 233.60642499999813,
      "v": 100
    },
    {
      "midi": 60,
      "hit": false,
      "t": 34504.07880833335,
      "d": 249.99985833332903,
      "v": 100
    },
    {
      "midi": 69,
      "hit": false,
      "t": 34504.07880833335,
      "d": 249.99985833332903,
      "v": 100
    },
    {
      "midi": 30,
      "hit": false,
      "t": 34831.94747500001,
      "d": 491.8029999999999,
      "v": 100
    },
    {
      "midi": 42,
      "hit": false,
      "t": 34831.94747500001,
      "d": 499.9997166666726,
      "v": 100
    },
    {
      "midi": 66,
      "hit": false,
      "t": 34995.88180833334,
      "d": 319.67195000000356,
      "v": 100
    },
    {
      "midi": 57,
      "hit": false,
      "t": 34995.88180833334,
      "d": 327.868666666669,
      "v": 100
    },
    {
      "midi": 62,
      "hit": false,
      "t": 34995.88180833334,
      "d": 331.9670250000054,
      "v": 100
    },
    {
      "midi": 26,
      "hit": false,
      "t": 35323.75047500001,
      "d": 155.7376166666727,
      "v": 88
    },
    {
      "midi": 38,
      "hit": false,
      "t": 35323.75047500001,
      "d": 155.7376166666727,
      "v": 88
    },
    {
      "midi": 65,
      "hit": false,
      "t": 35487.684808333346,
      "d": 323.77030833333265,
      "v": 64
    },
    {
      "midi": 67,
      "hit": false,
      "t": 35487.684808333346,
      "d": 323.77030833333265,
      "v": 100
    },
    {
      "midi": 31,
      "hit": false,
      "t": 35487.684808333346,
      "d": 327.868666666669,
      "v": 100
    },
    {
      "midi": 43,
      "hit": false,
      "t": 35487.684808333346,
      "d": 327.868666666669,
      "v": 100
    },
    {
      "midi": 58,
      "hit": false,
      "t": 35487.684808333346,
      "d": 348.3604583333363,
      "v": 100
    },
    {
      "midi": 62,
      "hit": false,
      "t": 35487.684808333346,
      "d": 348.3604583333363,
      "v": 100
    },
    {
      "midi": 65,
      "hit": false,
      "t": 35979.487808333346,
      "d": 344.2620999999999,
      "v": 64
    },
    {
      "midi": 67,
      "hit": false,
      "t": 35979.487808333346,
      "d": 344.2620999999999,
      "v": 100
    },
    {
      "midi": 58,
      "hit": false,
      "t": 35979.487808333346,
      "d": 368.85225000000355,
      "v": 100
    },
    {
      "midi": 62,
      "hit": false,
      "t": 35979.487808333346,
      "d": 381.14732500000537,
      "v": 100
    },
    {
      "midi": 58,
      "hit": false,
      "t": 36471.29080833335,
      "d": 286.8850833333345,
      "v": 100
    },
    {
      "midi": 65,
      "hit": false,
      "t": 36471.29080833335,
      "d": 295.08179999999993,
      "v": 64
    },
    {
      "midi": 67,
      "hit": false,
      "t": 36471.29080833335,
      "d": 295.08179999999993,
      "v": 100
    },
    {
      "midi": 62,
      "hit": false,
      "t": 36471.29080833335,
      "d": 303.2785166666654,
      "v": 100
    },
    {
      "midi": 45,
      "hit": false,
      "t": 36799.15947500002,
      "d": 307.37687499999447,
      "v": 100
    },
    {
      "midi": 33,
      "hit": false,
      "t": 36799.15947500002,
      "d": 315.5735916666599,
      "v": 100
    },
    {
      "midi": 60,
      "hit": false,
      "t": 36963.09380833335,
      "d": 323.77030833333265,
      "v": 100
    },
    {
      "midi": 65,
      "hit": false,
      "t": 36963.09380833335,
      "d": 323.77030833333265,
      "v": 100
    },
    {
      "midi": 57,
      "hit": false,
      "t": 36963.09380833335,
      "d": 331.9670250000054,
      "v": 100
    },
    {
      "midi": 46,
      "hit": false,
      "t": 37290.96247500002,
      "d": 336.06538333334174,
      "v": 100
    },
    {
      "midi": 34,
      "hit": false,
      "t": 37290.96247500002,
      "d": 348.36045833334356,
      "v": 100
    },
    {
      "midi": 65,
      "hit": false,
      "t": 37454.89680833336,
      "d": 282.7867250000054,
      "v": 100
    },
    {
      "midi": 58,
      "hit": false,
      "t": 37454.89680833336,
      "d": 299.1801583333363,
      "v": 100
    },
    {
      "midi": 60,
      "hit": false,
      "t": 37454.89680833336,
      "d": 299.1801583333363,
      "v": 100
    },
    {
      "midi": 65,
      "hit": false,
      "t": 37946.69980833336,
      "d": 311.47523333333083,
      "v": 100
    },
    {
      "midi": 58,
      "hit": false,
      "t": 37946.69980833336,
      "d": 323.77030833333265,
      "v": 100
    },
    {
      "midi": 60,
      "hit": false,
      "t": 37946.69980833336,
      "d": 331.9670249999981,
      "v": 100
    },
    {
      "midi": 65,
      "hit": false,
      "t": 38438.50280833336,
      "d": 290.98344166666357,
      "v": 100
    },
    {
      "midi": 58,
      "hit": false,
      "t": 38438.50280833336,
      "d": 299.180158333329,
      "v": 100
    },
    {
      "midi": 60,
      "hit": false,
      "t": 38438.50280833336,
      "d": 303.2785166666654,
      "v": 100
    },
    {
      "midi": 36,
      "hit": false,
      "t": 38766.37147500003,
      "d": 295.08179999999993,
      "v": 100
    },
    {
      "midi": 48,
      "hit": false,
      "t": 38766.37147500003,
      "d": 307.37687500000175,
      "v": 100
    },
    {
      "midi": 64,
      "hit": false,
      "t": 38930.30580833336,
      "d": 323.7703083333399,
      "v": 100
    },
    {
      "midi": 55,
      "hit": false,
      "t": 38930.30580833336,
      "d": 327.8686666666763,
      "v": 100
    },
    {
      "midi": 60,
      "hit": false,
      "t": 38930.30580833336,
      "d": 336.06538333334174,
      "v": 100
    },
    {
      "midi": 50,
      "hit": false,
      "t": 39258.174475000036,
      "d": 356.55717499999446,
      "v": 100
    },
    {
      "midi": 38,
      "hit": false,
      "t": 39258.174475000036,
      "d": 368.8522499999963,
      "v": 100
    },
    {
      "midi": 65,
      "hit": false,
      "t": 39422.10880833337,
      "d": 303.2785166666654,
      "v": 100
    },
    {
      "midi": 69,
      "hit": false,
      "t": 39422.10880833337,
      "d": 307.37687500000175,
      "v": 100
    },
    {
      "midi": 62,
      "hit": false,
      "t": 39422.10880833337,
      "d": 331.9670250000054,
      "v": 100
    },
    {
      "midi": 65,
      "hit": false,
      "t": 39913.911808333374,
      "d": 319.67195000000356,
      "v": 100
    },
    {
      "midi": 69,
      "hit": false,
      "t": 39913.911808333374,
      "d": 327.868666666669,
      "v": 100
    },
    {
      "midi": 62,
      "hit": false,
      "t": 39913.911808333374,
      "d": 336.06538333333447,
      "v": 100
    },
    {
      "midi": 65,
      "hit": false,
      "t": 40405.714808333374,
      "d": 299.1801583333363,
      "v": 100
    },
    {
      "midi": 62,
      "hit": false,
      "t": 40405.714808333374,
      "d": 303.27851666667266,
      "v": 100
    },
    {
      "midi": 69,
      "hit": false,
      "t": 40405.714808333374,
      "d": 303.27851666667266,
      "v": 100
    },
    {
      "midi": 40,
      "hit": false,
      "t": 40733.58347500005,
      "d": 303.2785166666654,
      "v": 100
    },
    {
      "midi": 52,
      "hit": false,
      "t": 40733.58347500005,
      "d": 303.2785166666654,
      "v": 100
    },
    {
      "midi": 64,
      "hit": false,
      "t": 40897.51780833338,
      "d": 303.2785166666654,
      "v": 100
    },
    {
      "midi": 67,
      "hit": false,
      "t": 40897.51780833338,
      "d": 303.2785166666654,
      "v": 100
    },
    {
      "midi": 60,
      "hit": false,
      "t": 40897.51780833338,
      "d": 311.47523333333083,
      "v": 100
    },
    {
      "midi": 53,
      "hit": false,
      "t": 41225.38647500004,
      "d": 303.2785166666654,
      "v": 100
    },
    {
      "midi": 41,
      "hit": false,
      "t": 41225.38647500004,
      "d": 307.37687500000175,
      "v": 100
    },
    {
      "midi": 60,
      "hit": false,
      "t": 41389.320808333374,
      "d": 290.98344166667084,
      "v": 100
    },
    {
      "midi": 65,
      "hit": false,
      "t": 41389.320808333374,
      "d": 299.1801583333363,
      "v": 100
    },
    {
      "midi": 69,
      "hit": false,
      "t": 41389.320808333374,
      "d": 307.37687500000175,
      "v": 100
    },
    {
      "midi": 65,
      "hit": false,
      "t": 41881.123808333374,
      "d": 336.06538333333447,
      "v": 100
    },
    {
      "midi": 60,
      "hit": false,
      "t": 41881.123808333374,
      "d": 340.16374166667083,
      "v": 100
    },
    {
      "midi": 69,
      "hit": false,
      "t": 41881.123808333374,
      "d": 340.16374166667083,
      "v": 100
    },
    {
      "midi": 65,
      "hit": false,
      "t": 42372.92680833338,
      "d": 233.60642499999813,
      "v": 100
    },
    {
      "midi": 60,
      "hit": false,
      "t": 42372.92680833338,
      "d": 249.99985833332903,
      "v": 100
    },
    {
      "midi": 69,
      "hit": false,
      "t": 42372.92680833338,
      "d": 249.99985833332903,
      "v": 100
    },
    {
      "midi": 30,
      "hit": false,
      "t": 42700.79547500004,
      "d": 491.8029999999999,
      "v": 100
    },
    {
      "midi": 42,
      "hit": false,
      "t": 42700.79547500004,
      "d": 499.9997166666726,
      "v": 100
    },
    {
      "midi": 66,
      "hit": false,
      "t": 42864.72980833337,
      "d": 319.67195000000356,
      "v": 100
    },
    {
      "midi": 57,
      "hit": false,
      "t": 42864.72980833337,
      "d": 327.868666666669,
      "v": 100
    },
    {
      "midi": 62,
      "hit": false,
      "t": 42864.72980833337,
      "d": 331.9670250000054,
      "v": 100
    },
    {
      "midi": 26,
      "hit": false,
      "t": 43192.59847500004,
      "d": 155.7376166666727,
      "v": 85
    },
    {
      "midi": 38,
      "hit": false,
      "t": 43192.59847500004,
      "d": 155.7376166666727,
      "v": 85
    },
    {
      "midi": 58,
      "hit": false,
      "t": 43356.53280833338,
      "d": 327.868666666669,
      "v": 95
    },
    {
      "midi": 62,
      "hit": false,
      "t": 43356.53280833338,
      "d": 327.868666666669,
      "v": 95
    },
    {
      "midi": 65,
      "hit": false,
      "t": 43356.53280833338,
      "d": 327.868666666669,
      "v": 95
    },
    {
      "midi": 67,
      "hit": false,
      "t": 43356.53280833338,
      "d": 327.868666666669,
      "v": 95
    },
    {
      "midi": 43,
      "hit": false,
      "t": 43356.53280833338,
      "d": 1868.8513999999996,
      "v": 95
    },
    {
      "midi": 58,
      "hit": false,
      "t": 43848.33580833338,
      "d": 327.868666666669,
      "v": 95
    },
    {
      "midi": 62,
      "hit": false,
      "t": 43848.33580833338,
      "d": 327.868666666669,
      "v": 95
    },
    {
      "midi": 65,
      "hit": false,
      "t": 43848.33580833338,
      "d": 327.868666666669,
      "v": 95
    },
    {
      "midi": 67,
      "hit": false,
      "t": 43848.33580833338,
      "d": 327.868666666669,
      "v": 95
    },
    {
      "midi": 58,
      "hit": false,
      "t": 44340.13880833338,
      "d": 327.868666666669,
      "v": 95
    },
    {
      "midi": 62,
      "hit": false,
      "t": 44340.13880833338,
      "d": 327.868666666669,
      "v": 95
    },
    {
      "midi": 65,
      "hit": false,
      "t": 44340.13880833338,
      "d": 327.868666666669,
      "v": 95
    },
    {
      "midi": 67,
      "hit": false,
      "t": 44340.13880833338,
      "d": 327.868666666669,
      "v": 95
    },
    {
      "midi": 58,
      "hit": false,
      "t": 44831.94180833338,
      "d": 327.868666666669,
      "v": 95
    },
    {
      "midi": 62,
      "hit": false,
      "t": 44831.94180833338,
      "d": 327.868666666669,
      "v": 95
    },
    {
      "midi": 65,
      "hit": false,
      "t": 44831.94180833338,
      "d": 327.868666666669,
      "v": 95
    },
    {
      "midi": 67,
      "hit": false,
      "t": 44831.94180833338,
      "d": 327.868666666669,
      "v": 95
    },
    {
      "midi": 57,
      "hit": false,
      "t": 45323.74480833338,
      "d": 327.868666666669,
      "v": 95
    },
    {
      "midi": 60,
      "hit": false,
      "t": 45323.74480833338,
      "d": 327.868666666669,
      "v": 95
    },
    {
      "midi": 65,
      "hit": false,
      "t": 45323.74480833338,
      "d": 327.868666666669,
      "v": 95
    },
    {
      "midi": 45,
      "hit": false,
      "t": 45323.74480833338,
      "d": 1918.0316999999995,
      "v": 95
    },
    {
      "midi": 57,
      "hit": false,
      "t": 45815.54780833338,
      "d": 327.868666666669,
      "v": 95
    },
    {
      "midi": 60,
      "hit": false,
      "t": 45815.54780833338,
      "d": 327.868666666669,
      "v": 95
    },
    {
      "midi": 65,
      "hit": false,
      "t": 45815.54780833338,
      "d": 327.868666666669,
      "v": 95
    },
    {
      "midi": 57,
      "hit": false,
      "t": 46307.35080833338,
      "d": 327.868666666669,
      "v": 95
    },
    {
      "midi": 60,
      "hit": false,
      "t": 46307.35080833338,
      "d": 327.868666666669,
      "v": 95
    },
    {
      "midi": 65,
      "hit": false,
      "t": 46307.35080833338,
      "d": 327.868666666669,
      "v": 95
    },
    {
      "midi": 57,
      "hit": false,
      "t": 46799.15380833338,
      "d": 327.868666666669,
      "v": 95
    },
    {
      "midi": 60,
      "hit": false,
      "t": 46799.15380833338,
      "d": 327.868666666669,
      "v": 95
    },
    {
      "midi": 65,
      "hit": false,
      "t": 46799.15380833338,
      "d": 327.868666666669,
      "v": 95
    },
    {
      "midi": 58,
      "hit": false,
      "t": 47290.95680833338,
      "d": 327.868666666669,
      "v": 95
    },
    {
      "midi": 60,
      "hit": false,
      "t": 47290.95680833338,
      "d": 327.868666666669,
      "v": 95
    },
    {
      "midi": 65,
      "hit": false,
      "t": 47290.95680833338,
      "d": 327.868666666669,
      "v": 95
    },
    {
      "midi": 46,
      "hit": false,
      "t": 47290.95680833338,
      "d": 1877.0481166666723,
      "v": 95
    },
    {
      "midi": 58,
      "hit": false,
      "t": 47782.75980833338,
      "d": 327.868666666669,
      "v": 95
    },
    {
      "midi": 60,
      "hit": false,
      "t": 47782.75980833338,
      "d": 327.868666666669,
      "v": 95
    },
    {
      "midi": 65,
      "hit": false,
      "t": 47782.75980833338,
      "d": 327.868666666669,
      "v": 95
    },
    {
      "midi": 58,
      "hit": false,
      "t": 48274.56280833338,
      "d": 327.868666666669,
      "v": 95
    },
    {
      "midi": 60,
      "hit": false,
      "t": 48274.56280833338,
      "d": 327.868666666669,
      "v": 95
    },
    {
      "midi": 65,
      "hit": false,
      "t": 48274.56280833338,
      "d": 327.868666666669,
      "v": 95
    },
    {
      "midi": 58,
      "hit": false,
      "t": 48766.36580833338,
      "d": 327.868666666669,
      "v": 95
    },
    {
      "midi": 60,
      "hit": false,
      "t": 48766.36580833338,
      "d": 327.868666666669,
      "v": 95
    },
    {
      "midi": 65,
      "hit": false,
      "t": 48766.36580833338,
      "d": 327.868666666669,
      "v": 95
    },
    {
      "midi": 60,
      "hit": false,
      "t": 49258.16880833339,
      "d": 327.868666666669,
      "v": 95
    },
    {
      "midi": 65,
      "hit": false,
      "t": 49258.16880833339,
      "d": 327.868666666669,
      "v": 95
    },
    {
      "midi": 67,
      "hit": false,
      "t": 49258.16880833339,
      "d": 327.868666666669,
      "v": 95
    },
    {
      "midi": 48,
      "hit": false,
      "t": 49258.16880833339,
      "d": 1905.736625000005,
      "v": 95
    },
    {
      "midi": 60,
      "hit": false,
      "t": 49749.97180833339,
      "d": 327.868666666669,
      "v": 95
    },
    {
      "midi": 65,
      "hit": false,
      "t": 49749.97180833339,
      "d": 327.868666666669,
      "v": 95
    },
    {
      "midi": 67,
      "hit": false,
      "t": 49749.97180833339,
      "d": 327.868666666669,
      "v": 95
    },
    {
      "midi": 60,
      "hit": false,
      "t": 50241.774808333386,
      "d": 327.868666666669,
      "v": 95
    },
    {
      "midi": 65,
      "hit": false,
      "t": 50241.774808333386,
      "d": 327.868666666669,
      "v": 95
    },
    {
      "midi": 67,
      "hit": false,
      "t": 50241.774808333386,
      "d": 327.868666666669,
      "v": 95
    },
    {
      "midi": 60,
      "hit": false,
      "t": 50733.577808333386,
      "d": 327.868666666669,
      "v": 95
    },
    {
      "midi": 65,
      "hit": false,
      "t": 50733.577808333386,
      "d": 327.868666666669,
      "v": 95
    },
    {
      "midi": 67,
      "hit": false,
      "t": 50733.577808333386,
      "d": 327.868666666669,
      "v": 95
    },
    {
      "midi": 58,
      "hit": false,
      "t": 51225.38080833339,
      "d": 327.868666666669,
      "v": 95
    },
    {
      "midi": 62,
      "hit": false,
      "t": 51225.38080833339,
      "d": 327.868666666669,
      "v": 95
    },
    {
      "midi": 65,
      "hit": false,
      "t": 51225.38080833339,
      "d": 327.868666666669,
      "v": 95
    },
    {
      "midi": 67,
      "hit": false,
      "t": 51225.38080833339,
      "d": 327.868666666669,
      "v": 95
    },
    {
      "midi": 43,
      "hit": false,
      "t": 51225.38080833339,
      "d": 1918.0316999999995,
      "v": 95
    },
    {
      "midi": 58,
      "hit": false,
      "t": 51717.18380833339,
      "d": 327.868666666669,
      "v": 95
    },
    {
      "midi": 62,
      "hit": false,
      "t": 51717.18380833339,
      "d": 327.868666666669,
      "v": 95
    },
    {
      "midi": 65,
      "hit": false,
      "t": 51717.18380833339,
      "d": 327.868666666669,
      "v": 95
    },
    {
      "midi": 67,
      "hit": false,
      "t": 51717.18380833339,
      "d": 327.868666666669,
      "v": 95
    },
    {
      "midi": 58,
      "hit": false,
      "t": 52208.98680833339,
      "d": 327.868666666669,
      "v": 95
    },
    {
      "midi": 62,
      "hit": false,
      "t": 52208.98680833339,
      "d": 327.868666666669,
      "v": 95
    },
    {
      "midi": 65,
      "hit": false,
      "t": 52208.98680833339,
      "d": 327.868666666669,
      "v": 95
    },
    {
      "midi": 67,
      "hit": false,
      "t": 52208.98680833339,
      "d": 327.868666666669,
      "v": 95
    },
    {
      "midi": 58,
      "hit": false,
      "t": 52700.78980833339,
      "d": 327.868666666669,
      "v": 95
    },
    {
      "midi": 62,
      "hit": false,
      "t": 52700.78980833339,
      "d": 327.868666666669,
      "v": 95
    },
    {
      "midi": 65,
      "hit": false,
      "t": 52700.78980833339,
      "d": 327.868666666669,
      "v": 95
    },
    {
      "midi": 67,
      "hit": false,
      "t": 52700.78980833339,
      "d": 327.868666666669,
      "v": 95
    },
    {
      "midi": 57,
      "hit": false,
      "t": 53192.59280833339,
      "d": 327.868666666669,
      "v": 95
    },
    {
      "midi": 60,
      "hit": false,
      "t": 53192.59280833339,
      "d": 327.868666666669,
      "v": 95
    },
    {
      "midi": 65,
      "hit": false,
      "t": 53192.59280833339,
      "d": 327.868666666669,
      "v": 95
    },
    {
      "midi": 45,
      "hit": false,
      "t": 53192.59280833339,
      "d": 1930.3267750000014,
      "v": 95
    },
    {
      "midi": 57,
      "hit": false,
      "t": 53684.39580833339,
      "d": 327.868666666669,
      "v": 95
    },
    {
      "midi": 60,
      "hit": false,
      "t": 53684.39580833339,
      "d": 327.868666666669,
      "v": 95
    },
    {
      "midi": 65,
      "hit": false,
      "t": 53684.39580833339,
      "d": 327.868666666669,
      "v": 95
    },
    {
      "midi": 57,
      "hit": false,
      "t": 54176.19880833339,
      "d": 327.868666666669,
      "v": 95
    },
    {
      "midi": 60,
      "hit": false,
      "t": 54176.19880833339,
      "d": 327.868666666669,
      "v": 95
    },
    {
      "midi": 65,
      "hit": false,
      "t": 54176.19880833339,
      "d": 327.868666666669,
      "v": 95
    },
    {
      "midi": 57,
      "hit": false,
      "t": 54668.00180833339,
      "d": 327.868666666669,
      "v": 95
    },
    {
      "midi": 60,
      "hit": false,
      "t": 54668.00180833339,
      "d": 327.868666666669,
      "v": 95
    },
    {
      "midi": 65,
      "hit": false,
      "t": 54668.00180833339,
      "d": 327.868666666669,
      "v": 95
    },
    {
      "midi": 58,
      "hit": false,
      "t": 55159.80480833339,
      "d": 1922.130058333336,
      "v": 95
    },
    {
      "midi": 60,
      "hit": false,
      "t": 55159.80480833339,
      "d": 1922.130058333336,
      "v": 95
    },
    {
      "midi": 65,
      "hit": false,
      "t": 55159.80480833339,
      "d": 1922.130058333336,
      "v": 95
    },
    {
      "midi": 46,
      "hit": false,
      "t": 55159.80480833339,
      "d": 3913.932208333339,
      "v": 95
    },
    {
      "midi": 60,
      "hit": false,
      "t": 57127.01680833339,
      "d": 1926.228416666665,
      "v": 95
    },
    {
      "midi": 65,
      "hit": false,
      "t": 57127.01680833339,
      "d": 1930.3267750000014,
      "v": 95
    },
    {
      "midi": 58,
      "hit": false,
      "t": 57127.01680833339,
      "d": 1934.4251333333377,
      "v": 95
    },
    {
      "midi": 43,
      "hit": false,
      "t": 59094.2288083334,
      "d": 409.8358333333308,
      "v": 80
    },
    {
      "midi": 55,
      "hit": false,
      "t": 59094.2288083334,
      "d": 409.8358333333308,
      "v": 92
    },
    {
      "midi": 58,
      "hit": false,
      "t": 59094.2288083334,
      "d": 409.8358333333308,
      "v": 92
    },
    {
      "midi": 62,
      "hit": false,
      "t": 59094.2288083334,
      "d": 409.8358333333308,
      "v": 92
    },
    {
      "midi": 65,
      "hit": false,
      "t": 59094.2288083334,
      "d": 409.8358333333308,
      "v": 92
    },
    {
      "midi": 67,
      "hit": false,
      "t": 59094.2288083334,
      "d": 418.03254999999626,
      "v": 95
    },
    {
      "midi": 43,
      "hit": false,
      "t": 59586.0318083334,
      "d": 409.8358333333308,
      "v": 80
    },
    {
      "midi": 55,
      "hit": false,
      "t": 59586.0318083334,
      "d": 409.8358333333308,
      "v": 92
    },
    {
      "midi": 58,
      "hit": false,
      "t": 59586.0318083334,
      "d": 409.8358333333308,
      "v": 92
    },
    {
      "midi": 62,
      "hit": false,
      "t": 59586.0318083334,
      "d": 409.8358333333308,
      "v": 92
    },
    {
      "midi": 65,
      "hit": false,
      "t": 59586.0318083334,
      "d": 409.8358333333308,
      "v": 92
    },
    {
      "midi": 67,
      "hit": false,
      "t": 59586.0318083334,
      "d": 418.03254999999626,
      "v": 95
    },
    {
      "midi": 43,
      "hit": false,
      "t": 60077.8348083334,
      "d": 409.8358333333308,
      "v": 80
    },
    {
      "midi": 55,
      "hit": false,
      "t": 60077.8348083334,
      "d": 409.8358333333308,
      "v": 92
    },
    {
      "midi": 58,
      "hit": false,
      "t": 60077.8348083334,
      "d": 409.8358333333308,
      "v": 92
    },
    {
      "midi": 62,
      "hit": false,
      "t": 60077.8348083334,
      "d": 409.8358333333308,
      "v": 92
    },
    {
      "midi": 65,
      "hit": false,
      "t": 60077.8348083334,
      "d": 409.8358333333308,
      "v": 92
    },
    {
      "midi": 67,
      "hit": false,
      "t": 60077.8348083334,
      "d": 413.9341916666672,
      "v": 95
    },
    {
      "midi": 43,
      "hit": false,
      "t": 60569.6378083334,
      "d": 409.8358333333308,
      "v": 80
    },
    {
      "midi": 55,
      "hit": false,
      "t": 60569.6378083334,
      "d": 409.8358333333308,
      "v": 92
    },
    {
      "midi": 58,
      "hit": false,
      "t": 60569.6378083334,
      "d": 409.8358333333308,
      "v": 92
    },
    {
      "midi": 62,
      "hit": false,
      "t": 60569.6378083334,
      "d": 409.8358333333308,
      "v": 92
    },
    {
      "midi": 65,
      "hit": false,
      "t": 60569.6378083334,
      "d": 409.8358333333308,
      "v": 92
    },
    {
      "midi": 67,
      "hit": false,
      "t": 60569.6378083334,
      "d": 430.3276249999981,
      "v": 95
    },
    {
      "midi": 48,
      "hit": false,
      "t": 61061.4408083334,
      "d": 409.8358333333308,
      "v": 80
    },
    {
      "midi": 55,
      "hit": false,
      "t": 61061.4408083334,
      "d": 409.8358333333308,
      "v": 92
    },
    {
      "midi": 58,
      "hit": false,
      "t": 61061.4408083334,
      "d": 409.8358333333308,
      "v": 92
    },
    {
      "midi": 60,
      "hit": false,
      "t": 61061.4408083334,
      "d": 409.8358333333308,
      "v": 92
    },
    {
      "midi": 64,
      "hit": false,
      "t": 61061.4408083334,
      "d": 409.8358333333308,
      "v": 92
    },
    {
      "midi": 48,
      "hit": false,
      "t": 61553.2438083334,
      "d": 409.8358333333308,
      "v": 80
    },
    {
      "midi": 55,
      "hit": false,
      "t": 61553.2438083334,
      "d": 409.8358333333308,
      "v": 92
    },
    {
      "midi": 58,
      "hit": false,
      "t": 61553.2438083334,
      "d": 409.8358333333308,
      "v": 92
    },
    {
      "midi": 60,
      "hit": false,
      "t": 61553.2438083334,
      "d": 409.8358333333308,
      "v": 92
    },
    {
      "midi": 64,
      "hit": false,
      "t": 61553.2438083334,
      "d": 409.8358333333308,
      "v": 92
    },
    {
      "midi": 48,
      "hit": false,
      "t": 62045.0468083334,
      "d": 409.8358333333308,
      "v": 80
    },
    {
      "midi": 55,
      "hit": false,
      "t": 62045.0468083334,
      "d": 409.8358333333308,
      "v": 92
    },
    {
      "midi": 58,
      "hit": false,
      "t": 62045.0468083334,
      "d": 409.8358333333308,
      "v": 92
    },
    {
      "midi": 60,
      "hit": false,
      "t": 62045.0468083334,
      "d": 409.8358333333308,
      "v": 92
    },
    {
      "midi": 64,
      "hit": false,
      "t": 62045.0468083334,
      "d": 409.8358333333308,
      "v": 92
    },
    {
      "midi": 46,
      "hit": false,
      "t": 62536.8498083334,
      "d": 409.8358333333308,
      "v": 80
    },
    {
      "midi": 55,
      "hit": false,
      "t": 62536.8498083334,
      "d": 409.8358333333308,
      "v": 92
    },
    {
      "midi": 58,
      "hit": false,
      "t": 62536.8498083334,
      "d": 409.8358333333308,
      "v": 92
    },
    {
      "midi": 60,
      "hit": false,
      "t": 62536.8498083334,
      "d": 409.8358333333308,
      "v": 92
    },
    {
      "midi": 64,
      "hit": false,
      "t": 62536.8498083334,
      "d": 409.8358333333308,
      "v": 92
    },
    {
      "midi": 45,
      "hit": false,
      "t": 63028.6528083334,
      "d": 409.8358333333308,
      "v": 80
    },
    {
      "midi": 57,
      "hit": false,
      "t": 63028.6528083334,
      "d": 409.8358333333308,
      "v": 92
    },
    {
      "midi": 60,
      "hit": false,
      "t": 63028.6528083334,
      "d": 409.8358333333308,
      "v": 92
    },
    {
      "midi": 65,
      "hit": false,
      "t": 63028.6528083334,
      "d": 409.8358333333308,
      "v": 92
    },
    {
      "midi": 45,
      "hit": false,
      "t": 63520.4558083334,
      "d": 409.8358333333308,
      "v": 80
    },
    {
      "midi": 57,
      "hit": false,
      "t": 63520.4558083334,
      "d": 409.8358333333308,
      "v": 92
    },
    {
      "midi": 60,
      "hit": false,
      "t": 63520.4558083334,
      "d": 409.8358333333308,
      "v": 92
    },
    {
      "midi": 65,
      "hit": false,
      "t": 63520.4558083334,
      "d": 409.8358333333308,
      "v": 92
    },
    {
      "midi": 45,
      "hit": false,
      "t": 64012.2588083334,
      "d": 409.8358333333308,
      "v": 80
    },
    {
      "midi": 57,
      "hit": false,
      "t": 64012.2588083334,
      "d": 409.8358333333308,
      "v": 92
    },
    {
      "midi": 60,
      "hit": false,
      "t": 64012.2588083334,
      "d": 409.8358333333308,
      "v": 92
    },
    {
      "midi": 65,
      "hit": false,
      "t": 64012.2588083334,
      "d": 409.8358333333308,
      "v": 92
    },
    {
      "midi": 45,
      "hit": false,
      "t": 64504.0618083334,
      "d": 409.8358333333308,
      "v": 80
    },
    {
      "midi": 57,
      "hit": false,
      "t": 64504.0618083334,
      "d": 409.8358333333308,
      "v": 92
    },
    {
      "midi": 60,
      "hit": false,
      "t": 64504.0618083334,
      "d": 409.8358333333308,
      "v": 92
    },
    {
      "midi": 65,
      "hit": false,
      "t": 64504.0618083334,
      "d": 409.8358333333308,
      "v": 92
    },
    {
      "midi": 46,
      "hit": false,
      "t": 64995.8648083334,
      "d": 409.8358333333308,
      "v": 80
    },
    {
      "midi": 58,
      "hit": false,
      "t": 64995.8648083334,
      "d": 409.8358333333308,
      "v": 92
    },
    {
      "midi": 60,
      "hit": false,
      "t": 64995.8648083334,
      "d": 409.8358333333308,
      "v": 92
    },
    {
      "midi": 65,
      "hit": false,
      "t": 64995.8648083334,
      "d": 409.8358333333308,
      "v": 92
    },
    {
      "midi": 46,
      "hit": false,
      "t": 65487.6678083334,
      "d": 409.8358333333308,
      "v": 80
    },
    {
      "midi": 58,
      "hit": false,
      "t": 65487.6678083334,
      "d": 409.8358333333308,
      "v": 92
    },
    {
      "midi": 60,
      "hit": false,
      "t": 65487.6678083334,
      "d": 409.8358333333308,
      "v": 92
    },
    {
      "midi": 65,
      "hit": false,
      "t": 65487.6678083334,
      "d": 409.8358333333308,
      "v": 92
    },
    {
      "midi": 46,
      "hit": false,
      "t": 65979.4708083334,
      "d": 409.8358333333308,
      "v": 80
    },
    {
      "midi": 58,
      "hit": false,
      "t": 65979.4708083334,
      "d": 409.8358333333308,
      "v": 92
    },
    {
      "midi": 60,
      "hit": false,
      "t": 65979.4708083334,
      "d": 409.8358333333308,
      "v": 92
    },
    {
      "midi": 65,
      "hit": false,
      "t": 65979.4708083334,
      "d": 409.8358333333308,
      "v": 92
    },
    {
      "midi": 42,
      "hit": false,
      "t": 66471.2738083334,
      "d": 409.8358333333308,
      "v": 80
    },
    {
      "midi": 57,
      "hit": false,
      "t": 66471.2738083334,
      "d": 409.8358333333308,
      "v": 92
    },
    {
      "midi": 60,
      "hit": false,
      "t": 66471.2738083334,
      "d": 409.8358333333308,
      "v": 92
    },
    {
      "midi": 66,
      "hit": false,
      "t": 66471.2738083334,
      "d": 409.8358333333308,
      "v": 92
    },
    {
      "midi": 43,
      "hit": false,
      "t": 66963.0768083334,
      "d": 409.8358333333308,
      "v": 80
    },
    {
      "midi": 55,
      "hit": false,
      "t": 66963.0768083334,
      "d": 409.8358333333308,
      "v": 92
    },
    {
      "midi": 58,
      "hit": false,
      "t": 66963.0768083334,
      "d": 409.8358333333308,
      "v": 92
    },
    {
      "midi": 62,
      "hit": false,
      "t": 66963.0768083334,
      "d": 409.8358333333308,
      "v": 92
    },
    {
      "midi": 65,
      "hit": false,
      "t": 66963.0768083334,
      "d": 409.8358333333308,
      "v": 92
    },
    {
      "midi": 67,
      "hit": false,
      "t": 66963.0768083334,
      "d": 418.03255000000354,
      "v": 95
    },
    {
      "midi": 43,
      "hit": false,
      "t": 67454.8798083334,
      "d": 409.8358333333308,
      "v": 80
    },
    {
      "midi": 55,
      "hit": false,
      "t": 67454.8798083334,
      "d": 409.8358333333308,
      "v": 92
    },
    {
      "midi": 58,
      "hit": false,
      "t": 67454.8798083334,
      "d": 409.8358333333308,
      "v": 92
    },
    {
      "midi": 62,
      "hit": false,
      "t": 67454.8798083334,
      "d": 409.8358333333308,
      "v": 92
    },
    {
      "midi": 65,
      "hit": false,
      "t": 67454.8798083334,
      "d": 409.8358333333308,
      "v": 92
    },
    {
      "midi": 67,
      "hit": false,
      "t": 67454.8798083334,
      "d": 418.03255000000354,
      "v": 95
    },
    {
      "midi": 43,
      "hit": false,
      "t": 67946.6828083334,
      "d": 409.8358333333308,
      "v": 80
    },
    {
      "midi": 55,
      "hit": false,
      "t": 67946.6828083334,
      "d": 409.8358333333308,
      "v": 92
    },
    {
      "midi": 58,
      "hit": false,
      "t": 67946.6828083334,
      "d": 409.8358333333308,
      "v": 92
    },
    {
      "midi": 62,
      "hit": false,
      "t": 67946.6828083334,
      "d": 409.8358333333308,
      "v": 92
    },
    {
      "midi": 65,
      "hit": false,
      "t": 67946.6828083334,
      "d": 409.8358333333308,
      "v": 92
    },
    {
      "midi": 67,
      "hit": false,
      "t": 67946.6828083334,
      "d": 413.9341916666599,
      "v": 95
    },
    {
      "midi": 43,
      "hit": false,
      "t": 68438.4858083334,
      "d": 409.8358333333308,
      "v": 80
    },
    {
      "midi": 55,
      "hit": false,
      "t": 68438.4858083334,
      "d": 409.8358333333308,
      "v": 92
    },
    {
      "midi": 58,
      "hit": false,
      "t": 68438.4858083334,
      "d": 409.8358333333308,
      "v": 92
    },
    {
      "midi": 62,
      "hit": false,
      "t": 68438.4858083334,
      "d": 409.8358333333308,
      "v": 92
    },
    {
      "midi": 65,
      "hit": false,
      "t": 68438.4858083334,
      "d": 409.8358333333308,
      "v": 92
    },
    {
      "midi": 67,
      "hit": false,
      "t": 68438.4858083334,
      "d": 430.3276249999908,
      "v": 95
    },
    {
      "midi": 48,
      "hit": false,
      "t": 68930.28880833338,
      "d": 409.8358333333308,
      "v": 80
    },
    {
      "midi": 55,
      "hit": false,
      "t": 68930.28880833338,
      "d": 409.8358333333308,
      "v": 92
    },
    {
      "midi": 58,
      "hit": false,
      "t": 68930.28880833338,
      "d": 409.8358333333308,
      "v": 92
    },
    {
      "midi": 60,
      "hit": false,
      "t": 68930.28880833338,
      "d": 409.8358333333308,
      "v": 92
    },
    {
      "midi": 64,
      "hit": false,
      "t": 68930.28880833338,
      "d": 409.8358333333308,
      "v": 92
    },
    {
      "midi": 48,
      "hit": false,
      "t": 69422.09180833338,
      "d": 409.8358333333308,
      "v": 80
    },
    {
      "midi": 55,
      "hit": false,
      "t": 69422.09180833338,
      "d": 409.8358333333308,
      "v": 92
    },
    {
      "midi": 58,
      "hit": false,
      "t": 69422.09180833338,
      "d": 409.8358333333308,
      "v": 92
    },
    {
      "midi": 60,
      "hit": false,
      "t": 69422.09180833338,
      "d": 409.8358333333308,
      "v": 92
    },
    {
      "midi": 64,
      "hit": false,
      "t": 69422.09180833338,
      "d": 409.8358333333308,
      "v": 92
    },
    {
      "midi": 48,
      "hit": false,
      "t": 69913.89480833338,
      "d": 409.8358333333308,
      "v": 80
    },
    {
      "midi": 55,
      "hit": false,
      "t": 69913.89480833338,
      "d": 409.8358333333308,
      "v": 92
    },
    {
      "midi": 58,
      "hit": false,
      "t": 69913.89480833338,
      "d": 409.8358333333308,
      "v": 92
    },
    {
      "midi": 60,
      "hit": false,
      "t": 69913.89480833338,
      "d": 409.8358333333308,
      "v": 92
    },
    {
      "midi": 64,
      "hit": false,
      "t": 69913.89480833338,
      "d": 409.8358333333308,
      "v": 92
    },
    {
      "midi": 48,
      "hit": false,
      "t": 70405.69780833338,
      "d": 409.8358333333308,
      "v": 80
    },
    {
      "midi": 55,
      "hit": false,
      "t": 70405.69780833338,
      "d": 409.8358333333308,
      "v": 92
    },
    {
      "midi": 58,
      "hit": false,
      "t": 70405.69780833338,
      "d": 409.8358333333308,
      "v": 92
    },
    {
      "midi": 60,
      "hit": false,
      "t": 70405.69780833338,
      "d": 409.8358333333308,
      "v": 92
    },
    {
      "midi": 64,
      "hit": false,
      "t": 70405.69780833338,
      "d": 409.8358333333308,
      "v": 92
    },
    {
      "midi": 45,
      "hit": false,
      "t": 70897.50080833338,
      "d": 409.8358333333308,
      "v": 80
    },
    {
      "midi": 57,
      "hit": false,
      "t": 70897.50080833338,
      "d": 409.8358333333308,
      "v": 92
    },
    {
      "midi": 60,
      "hit": false,
      "t": 70897.50080833338,
      "d": 409.8358333333308,
      "v": 92
    },
    {
      "midi": 65,
      "hit": false,
      "t": 70897.50080833338,
      "d": 409.8358333333308,
      "v": 92
    },
    {
      "midi": 45,
      "hit": false,
      "t": 71389.30380833338,
      "d": 409.8358333333308,
      "v": 80
    },
    {
      "midi": 57,
      "hit": false,
      "t": 71389.30380833338,
      "d": 409.8358333333308,
      "v": 92
    },
    {
      "midi": 60,
      "hit": false,
      "t": 71389.30380833338,
      "d": 409.8358333333308,
      "v": 92
    },
    {
      "midi": 65,
      "hit": false,
      "t": 71389.30380833338,
      "d": 409.8358333333308,
      "v": 92
    },
    {
      "midi": 45,
      "hit": false,
      "t": 71881.10680833338,
      "d": 409.8358333333308,
      "v": 80
    },
    {
      "midi": 57,
      "hit": false,
      "t": 71881.10680833338,
      "d": 409.8358333333308,
      "v": 92
    },
    {
      "midi": 60,
      "hit": false,
      "t": 71881.10680833338,
      "d": 409.8358333333308,
      "v": 92
    },
    {
      "midi": 65,
      "hit": false,
      "t": 71881.10680833338,
      "d": 409.8358333333308,
      "v": 92
    },
    {
      "midi": 45,
      "hit": false,
      "t": 72372.90980833338,
      "d": 409.8358333333308,
      "v": 80
    },
    {
      "midi": 57,
      "hit": false,
      "t": 72372.90980833338,
      "d": 409.8358333333308,
      "v": 92
    },
    {
      "midi": 60,
      "hit": false,
      "t": 72372.90980833338,
      "d": 409.8358333333308,
      "v": 92
    },
    {
      "midi": 65,
      "hit": false,
      "t": 72372.90980833338,
      "d": 409.8358333333308,
      "v": 92
    },
    {
      "midi": 46,
      "hit": false,
      "t": 72864.71280833338,
      "d": 409.8358333333308,
      "v": 80
    },
    {
      "midi": 58,
      "hit": false,
      "t": 72864.71280833338,
      "d": 409.8358333333308,
      "v": 92
    },
    {
      "midi": 60,
      "hit": false,
      "t": 72864.71280833338,
      "d": 409.8358333333308,
      "v": 92
    },
    {
      "midi": 65,
      "hit": false,
      "t": 72864.71280833338,
      "d": 409.8358333333308,
      "v": 92
    },
    {
      "midi": 46,
      "hit": false,
      "t": 73356.51580833338,
      "d": 409.8358333333308,
      "v": 80
    },
    {
      "midi": 58,
      "hit": false,
      "t": 73356.51580833338,
      "d": 409.8358333333308,
      "v": 92
    },
    {
      "midi": 60,
      "hit": false,
      "t": 73356.51580833338,
      "d": 409.8358333333308,
      "v": 92
    },
    {
      "midi": 65,
      "hit": false,
      "t": 73356.51580833338,
      "d": 409.8358333333308,
      "v": 92
    },
    {
      "midi": 46,
      "hit": false,
      "t": 73848.31880833338,
      "d": 409.8358333333308,
      "v": 80
    },
    {
      "midi": 58,
      "hit": false,
      "t": 73848.31880833338,
      "d": 409.8358333333308,
      "v": 92
    },
    {
      "midi": 60,
      "hit": false,
      "t": 73848.31880833338,
      "d": 409.8358333333308,
      "v": 92
    },
    {
      "midi": 65,
      "hit": false,
      "t": 73848.31880833338,
      "d": 409.8358333333308,
      "v": 92
    },
    {
      "midi": 42,
      "hit": false,
      "t": 74340.12180833338,
      "d": 409.8358333333308,
      "v": 80
    },
    {
      "midi": 57,
      "hit": false,
      "t": 74340.12180833338,
      "d": 409.8358333333308,
      "v": 92
    },
    {
      "midi": 60,
      "hit": false,
      "t": 74340.12180833338,
      "d": 409.8358333333308,
      "v": 92
    },
    {
      "midi": 66,
      "hit": false,
      "t": 74340.12180833338,
      "d": 409.8358333333308,
      "v": 92
    },
    {
      "midi": 43,
      "hit": false,
      "t": 74831.92480833338,
      "d": 409.8358333333308,
      "v": 80
    },
    {
      "midi": 55,
      "hit": false,
      "t": 74831.92480833338,
      "d": 409.8358333333308,
      "v": 92
    },
    {
      "midi": 58,
      "hit": false,
      "t": 74831.92480833338,
      "d": 409.8358333333308,
      "v": 92
    },
    {
      "midi": 62,
      "hit": false,
      "t": 74831.92480833338,
      "d": 409.8358333333308,
      "v": 92
    },
    {
      "midi": 65,
      "hit": false,
      "t": 74831.92480833338,
      "d": 409.8358333333308,
      "v": 92
    },
    {
      "midi": 67,
      "hit": false,
      "t": 74831.92480833338,
      "d": 418.03255000000354,
      "v": 95
    },
    {
      "midi": 43,
      "hit": false,
      "t": 75323.72780833338,
      "d": 409.8358333333308,
      "v": 80
    },
    {
      "midi": 55,
      "hit": false,
      "t": 75323.72780833338,
      "d": 409.8358333333308,
      "v": 92
    },
    {
      "midi": 58,
      "hit": false,
      "t": 75323.72780833338,
      "d": 409.8358333333308,
      "v": 92
    },
    {
      "midi": 62,
      "hit": false,
      "t": 75323.72780833338,
      "d": 409.8358333333308,
      "v": 92
    },
    {
      "midi": 65,
      "hit": false,
      "t": 75323.72780833338,
      "d": 409.8358333333308,
      "v": 92
    },
    {
      "midi": 67,
      "hit": false,
      "t": 75323.72780833338,
      "d": 418.03255000000354,
      "v": 95
    },
    {
      "midi": 43,
      "hit": false,
      "t": 75815.53080833338,
      "d": 409.8358333333308,
      "v": 80
    },
    {
      "midi": 55,
      "hit": false,
      "t": 75815.53080833338,
      "d": 409.8358333333308,
      "v": 92
    },
    {
      "midi": 58,
      "hit": false,
      "t": 75815.53080833338,
      "d": 409.8358333333308,
      "v": 92
    },
    {
      "midi": 62,
      "hit": false,
      "t": 75815.53080833338,
      "d": 409.8358333333308,
      "v": 92
    },
    {
      "midi": 65,
      "hit": false,
      "t": 75815.53080833338,
      "d": 409.8358333333308,
      "v": 92
    },
    {
      "midi": 67,
      "hit": false,
      "t": 75815.53080833338,
      "d": 413.9341916666599,
      "v": 95
    },
    {
      "midi": 43,
      "hit": false,
      "t": 76307.33380833338,
      "d": 409.8358333333308,
      "v": 80
    },
    {
      "midi": 55,
      "hit": false,
      "t": 76307.33380833338,
      "d": 409.8358333333308,
      "v": 92
    },
    {
      "midi": 58,
      "hit": false,
      "t": 76307.33380833338,
      "d": 409.8358333333308,
      "v": 92
    },
    {
      "midi": 62,
      "hit": false,
      "t": 76307.33380833338,
      "d": 409.8358333333308,
      "v": 92
    },
    {
      "midi": 65,
      "hit": false,
      "t": 76307.33380833338,
      "d": 409.8358333333308,
      "v": 92
    },
    {
      "midi": 67,
      "hit": false,
      "t": 76307.33380833338,
      "d": 430.3276249999908,
      "v": 95
    },
    {
      "midi": 45,
      "hit": false,
      "t": 76799.13680833337,
      "d": 409.8358333333308,
      "v": 80
    },
    {
      "midi": 57,
      "hit": false,
      "t": 76799.13680833337,
      "d": 409.8358333333308,
      "v": 92
    },
    {
      "midi": 60,
      "hit": false,
      "t": 76799.13680833337,
      "d": 409.8358333333308,
      "v": 92
    },
    {
      "midi": 65,
      "hit": false,
      "t": 76799.13680833337,
      "d": 409.8358333333308,
      "v": 92
    },
    {
      "midi": 45,
      "hit": false,
      "t": 77290.93980833337,
      "d": 409.8358333333308,
      "v": 80
    },
    {
      "midi": 57,
      "hit": false,
      "t": 77290.93980833337,
      "d": 409.8358333333308,
      "v": 92
    },
    {
      "midi": 60,
      "hit": false,
      "t": 77290.93980833337,
      "d": 409.8358333333308,
      "v": 92
    },
    {
      "midi": 65,
      "hit": false,
      "t": 77290.93980833337,
      "d": 409.8358333333308,
      "v": 92
    },
    {
      "midi": 45,
      "hit": false,
      "t": 77782.74280833337,
      "d": 409.8358333333308,
      "v": 80
    },
    {
      "midi": 57,
      "hit": false,
      "t": 77782.74280833337,
      "d": 409.8358333333308,
      "v": 92
    },
    {
      "midi": 60,
      "hit": false,
      "t": 77782.74280833337,
      "d": 409.8358333333308,
      "v": 92
    },
    {
      "midi": 65,
      "hit": false,
      "t": 77782.74280833337,
      "d": 409.8358333333308,
      "v": 92
    },
    {
      "midi": 45,
      "hit": false,
      "t": 78274.54580833337,
      "d": 409.8358333333308,
      "v": 80
    },
    {
      "midi": 57,
      "hit": false,
      "t": 78274.54580833337,
      "d": 409.8358333333308,
      "v": 92
    },
    {
      "midi": 60,
      "hit": false,
      "t": 78274.54580833337,
      "d": 409.8358333333308,
      "v": 92
    },
    {
      "midi": 65,
      "hit": false,
      "t": 78274.54580833337,
      "d": 409.8358333333308,
      "v": 92
    },
    {
      "midi": 50,
      "hit": false,
      "t": 78766.34880833337,
      "d": 409.8358333333308,
      "v": 80
    },
    {
      "midi": 62,
      "hit": false,
      "t": 78766.34880833337,
      "d": 409.8358333333308,
      "v": 92
    },
    {
      "midi": 65,
      "hit": false,
      "t": 78766.34880833337,
      "d": 409.8358333333308,
      "v": 92
    },
    {
      "midi": 69,
      "hit": false,
      "t": 78766.34880833337,
      "d": 409.8358333333308,
      "v": 92
    },
    {
      "midi": 50,
      "hit": false,
      "t": 79258.15180833336,
      "d": 409.8358333333308,
      "v": 80
    },
    {
      "midi": 62,
      "hit": false,
      "t": 79258.15180833336,
      "d": 409.8358333333308,
      "v": 92
    },
    {
      "midi": 65,
      "hit": false,
      "t": 79258.15180833336,
      "d": 409.8358333333308,
      "v": 92
    },
    {
      "midi": 69,
      "hit": false,
      "t": 79258.15180833336,
      "d": 409.8358333333308,
      "v": 92
    },
    {
      "midi": 50,
      "hit": false,
      "t": 79749.95480833336,
      "d": 409.8358333333308,
      "v": 80
    },
    {
      "midi": 62,
      "hit": false,
      "t": 79749.95480833336,
      "d": 409.8358333333308,
      "v": 92
    },
    {
      "midi": 65,
      "hit": false,
      "t": 79749.95480833336,
      "d": 409.8358333333308,
      "v": 92
    },
    {
      "midi": 69,
      "hit": false,
      "t": 79749.95480833336,
      "d": 409.8358333333308,
      "v": 92
    },
    {
      "midi": 48,
      "hit": false,
      "t": 80241.75780833336,
      "d": 409.8358333333308,
      "v": 80
    },
    {
      "midi": 60,
      "hit": false,
      "t": 80241.75780833336,
      "d": 409.8358333333308,
      "v": 92
    },
    {
      "midi": 65,
      "hit": false,
      "t": 80241.75780833336,
      "d": 409.8358333333308,
      "v": 92
    },
    {
      "midi": 69,
      "hit": false,
      "t": 80241.75780833336,
      "d": 409.8358333333308,
      "v": 92
    },
    {
      "midi": 47,
      "hit": false,
      "t": 80733.56080833336,
      "d": 409.8358333333308,
      "v": 80
    },
    {
      "midi": 59,
      "hit": false,
      "t": 80733.56080833336,
      "d": 409.8358333333308,
      "v": 92
    },
    {
      "midi": 62,
      "hit": false,
      "t": 80733.56080833336,
      "d": 409.8358333333308,
      "v": 92
    },
    {
      "midi": 65,
      "hit": false,
      "t": 80733.56080833336,
      "d": 409.8358333333308,
      "v": 92
    },
    {
      "midi": 47,
      "hit": false,
      "t": 81225.36380833336,
      "d": 409.8358333333308,
      "v": 80
    },
    {
      "midi": 59,
      "hit": false,
      "t": 81225.36380833336,
      "d": 409.8358333333308,
      "v": 92
    },
    {
      "midi": 62,
      "hit": false,
      "t": 81225.36380833336,
      "d": 409.8358333333308,
      "v": 92
    },
    {
      "midi": 65,
      "hit": false,
      "t": 81225.36380833336,
      "d": 409.8358333333308,
      "v": 92
    },
    {
      "midi": 43,
      "hit": false,
      "t": 81717.16680833336,
      "d": 409.8358333333308,
      "v": 80
    },
    {
      "midi": 59,
      "hit": false,
      "t": 81717.16680833336,
      "d": 409.8358333333308,
      "v": 92
    },
    {
      "midi": 62,
      "hit": false,
      "t": 81717.16680833336,
      "d": 409.8358333333308,
      "v": 92
    },
    {
      "midi": 65,
      "hit": false,
      "t": 81717.16680833336,
      "d": 409.8358333333308,
      "v": 92
    },
    {
      "midi": 47,
      "hit": false,
      "t": 82208.96980833336,
      "d": 409.8358333333308,
      "v": 80
    },
    {
      "midi": 59,
      "hit": false,
      "t": 82208.96980833336,
      "d": 409.8358333333308,
      "v": 92
    },
    {
      "midi": 62,
      "hit": false,
      "t": 82208.96980833336,
      "d": 409.8358333333308,
      "v": 92
    },
    {
      "midi": 65,
      "hit": false,
      "t": 82208.96980833336,
      "d": 409.8358333333308,
      "v": 92
    },
    {
      "midi": 46,
      "hit": false,
      "t": 82700.77280833336,
      "d": 409.8358333333308,
      "v": 80
    },
    {
      "midi": 58,
      "hit": false,
      "t": 82700.77280833336,
      "d": 409.8358333333308,
      "v": 92
    },
    {
      "midi": 60,
      "hit": false,
      "t": 82700.77280833336,
      "d": 409.8358333333308,
      "v": 92
    },
    {
      "midi": 65,
      "hit": false,
      "t": 82700.77280833336,
      "d": 409.8358333333308,
      "v": 92
    },
    {
      "midi": 46,
      "hit": false,
      "t": 83192.57580833336,
      "d": 409.8358333333308,
      "v": 80
    },
    {
      "midi": 58,
      "hit": false,
      "t": 83192.57580833336,
      "d": 409.8358333333308,
      "v": 92
    },
    {
      "midi": 60,
      "hit": false,
      "t": 83192.57580833336,
      "d": 409.8358333333308,
      "v": 92
    },
    {
      "midi": 65,
      "hit": false,
      "t": 83192.57580833336,
      "d": 409.8358333333308,
      "v": 92
    },
    {
      "midi": 46,
      "hit": false,
      "t": 83684.37880833336,
      "d": 409.8358333333308,
      "v": 80
    },
    {
      "midi": 58,
      "hit": false,
      "t": 83684.37880833336,
      "d": 409.8358333333308,
      "v": 92
    },
    {
      "midi": 60,
      "hit": false,
      "t": 83684.37880833336,
      "d": 409.8358333333308,
      "v": 92
    },
    {
      "midi": 65,
      "hit": false,
      "t": 83684.37880833336,
      "d": 409.8358333333308,
      "v": 92
    },
    {
      "midi": 50,
      "hit": false,
      "t": 84176.18180833336,
      "d": 409.8358333333308,
      "v": 80
    },
    {
      "midi": 58,
      "hit": false,
      "t": 84176.18180833336,
      "d": 409.8358333333308,
      "v": 92
    },
    {
      "midi": 60,
      "hit": false,
      "t": 84176.18180833336,
      "d": 409.8358333333308,
      "v": 92
    },
    {
      "midi": 65,
      "hit": false,
      "t": 84176.18180833336,
      "d": 409.8358333333308,
      "v": 92
    },
    {
      "midi": 60,
      "hit": false,
      "t": 84667.98480833336,
      "d": 1909.834983333334,
      "v": 92
    },
    {
      "midi": 64,
      "hit": false,
      "t": 84667.98480833336,
      "d": 1913.9333416666632,
      "v": 92
    },
    {
      "midi": 55,
      "hit": false,
      "t": 84667.98480833336,
      "d": 1926.228416666665,
      "v": 92
    },
    {
      "midi": 48,
      "hit": false,
      "t": 84667.98480833336,
      "d": 1934.4251333333377,
      "v": 80
    },
    {
      "midi": 65,
      "hit": false,
      "t": 86635.19680833336,
      "d": 323.77030833333265,
      "v": 64
    },
    {
      "midi": 67,
      "hit": false,
      "t": 86635.19680833336,
      "d": 323.77030833333265,
      "v": 100
    },
    {
      "midi": 31,
      "hit": false,
      "t": 86635.19680833336,
      "d": 327.86866666666174,
      "v": 100
    },
    {
      "midi": 43,
      "hit": false,
      "t": 86635.19680833336,
      "d": 327.86866666666174,
      "v": 100
    },
    {
      "midi": 58,
      "hit": false,
      "t": 86635.19680833336,
      "d": 348.36045833332173,
      "v": 100
    },
    {
      "midi": 62,
      "hit": false,
      "t": 86635.19680833336,
      "d": 348.36045833332173,
      "v": 100
    },
    {
      "midi": 65,
      "hit": false,
      "t": 87126.99980833335,
      "d": 344.2621000000072,
      "v": 64
    },
    {
      "midi": 67,
      "hit": false,
      "t": 87126.99980833335,
      "d": 344.2621000000072,
      "v": 100
    },
    {
      "midi": 58,
      "hit": false,
      "t": 87126.99980833335,
      "d": 368.8522500000108,
      "v": 100
    },
    {
      "midi": 62,
      "hit": false,
      "t": 87126.99980833335,
      "d": 381.14732500001264,
      "v": 100
    },
    {
      "midi": 58,
      "hit": false,
      "t": 87618.80280833336,
      "d": 286.8850833333272,
      "v": 100
    },
    {
      "midi": 65,
      "hit": false,
      "t": 87618.80280833336,
      "d": 295.08179999999993,
      "v": 64
    },
    {
      "midi": 67,
      "hit": false,
      "t": 87618.80280833336,
      "d": 295.08179999999993,
      "v": 100
    },
    {
      "midi": 62,
      "hit": false,
      "t": 87618.80280833336,
      "d": 303.27851666667266,
      "v": 100
    },
    {
      "midi": 45,
      "hit": false,
      "t": 87946.67147500004,
      "d": 307.37687500000175,
      "v": 100
    },
    {
      "midi": 33,
      "hit": false,
      "t": 87946.67147500004,
      "d": 315.5735916666745,
      "v": 100
    },
    {
      "midi": 60,
      "hit": false,
      "t": 88110.60580833338,
      "d": 323.77030833333265,
      "v": 100
    },
    {
      "midi": 65,
      "hit": false,
      "t": 88110.60580833338,
      "d": 323.77030833333265,
      "v": 100
    },
    {
      "midi": 57,
      "hit": false,
      "t": 88110.60580833338,
      "d": 331.9670249999908,
      "v": 100
    },
    {
      "midi": 46,
      "hit": false,
      "t": 88438.47447500004,
      "d": 336.0653833333199,
      "v": 100
    },
    {
      "midi": 34,
      "hit": false,
      "t": 88438.47447500004,
      "d": 348.36045833332173,
      "v": 100
    },
    {
      "midi": 65,
      "hit": false,
      "t": 88602.40880833336,
      "d": 282.7867249999981,
      "v": 100
    },
    {
      "midi": 58,
      "hit": false,
      "t": 88602.40880833336,
      "d": 299.180158333329,
      "v": 100
    },
    {
      "midi": 60,
      "hit": false,
      "t": 88602.40880833336,
      "d": 299.180158333329,
      "v": 100
    },
    {
      "midi": 65,
      "hit": false,
      "t": 89094.21180833336,
      "d": 311.47523333333083,
      "v": 100
    },
    {
      "midi": 58,
      "hit": false,
      "t": 89094.21180833336,
      "d": 323.77030833333265,
      "v": 100
    },
    {
      "midi": 60,
      "hit": false,
      "t": 89094.21180833336,
      "d": 331.9670250000054,
      "v": 100
    },
    {
      "midi": 65,
      "hit": false,
      "t": 89586.01480833336,
      "d": 290.98344166667084,
      "v": 100
    },
    {
      "midi": 58,
      "hit": false,
      "t": 89586.01480833336,
      "d": 299.18015833334357,
      "v": 100
    },
    {
      "midi": 60,
      "hit": false,
      "t": 89586.01480833336,
      "d": 303.27851666667266,
      "v": 100
    },
    {
      "midi": 36,
      "hit": false,
      "t": 89913.88347500004,
      "d": 295.08179999999993,
      "v": 100
    },
    {
      "midi": 48,
      "hit": false,
      "t": 89913.88347500004,
      "d": 307.37687500000175,
      "v": 100
    },
    {
      "midi": 64,
      "hit": false,
      "t": 90077.81780833338,
      "d": 323.77030833333265,
      "v": 100
    },
    {
      "midi": 55,
      "hit": false,
      "t": 90077.81780833338,
      "d": 327.86866666666174,
      "v": 100
    },
    {
      "midi": 60,
      "hit": false,
      "t": 90077.81780833338,
      "d": 336.06538333333447,
      "v": 100
    },
    {
      "midi": 50,
      "hit": false,
      "t": 90405.68647500004,
      "d": 356.557175000009,
      "v": 100
    },
    {
      "midi": 38,
      "hit": false,
      "t": 90405.68647500004,
      "d": 368.8522500000108,
      "v": 100
    },
    {
      "midi": 65,
      "hit": false,
      "t": 90569.62080833338,
      "d": 303.27851666667266,
      "v": 100
    },
    {
      "midi": 69,
      "hit": false,
      "t": 90569.62080833338,
      "d": 307.37687500000175,
      "v": 100
    },
    {
      "midi": 62,
      "hit": false,
      "t": 90569.62080833338,
      "d": 331.9670250000054,
      "v": 100
    },
    {
      "midi": 65,
      "hit": false,
      "t": 91061.42380833338,
      "d": 319.67195000000356,
      "v": 100
    },
    {
      "midi": 69,
      "hit": false,
      "t": 91061.42380833338,
      "d": 327.8686666666763,
      "v": 100
    },
    {
      "midi": 62,
      "hit": false,
      "t": 91061.42380833338,
      "d": 336.065383333349,
      "v": 100
    },
    {
      "midi": 65,
      "hit": false,
      "t": 91553.22680833339,
      "d": 299.180158333329,
      "v": 100
    },
    {
      "midi": 62,
      "hit": false,
      "t": 91553.22680833339,
      "d": 303.2785166666581,
      "v": 100
    },
    {
      "midi": 69,
      "hit": false,
      "t": 91553.22680833339,
      "d": 303.2785166666581,
      "v": 100
    },
    {
      "midi": 40,
      "hit": false,
      "t": 91881.09547500005,
      "d": 303.27851666667266,
      "v": 100
    },
    {
      "midi": 52,
      "hit": false,
      "t": 91881.09547500005,
      "d": 303.27851666667266,
      "v": 100
    },
    {
      "midi": 64,
      "hit": false,
      "t": 92045.02980833339,
      "d": 303.27851666667266,
      "v": 100
    },
    {
      "midi": 67,
      "hit": false,
      "t": 92045.02980833339,
      "d": 303.27851666667266,
      "v": 100
    },
    {
      "midi": 60,
      "hit": false,
      "t": 92045.02980833339,
      "d": 311.4752333333454,
      "v": 100
    },
    {
      "midi": 53,
      "hit": false,
      "t": 92372.89847500007,
      "d": 303.27851666667266,
      "v": 100
    },
    {
      "midi": 41,
      "hit": false,
      "t": 92372.89847500007,
      "d": 307.37687500000175,
      "v": 100
    },
    {
      "midi": 60,
      "hit": false,
      "t": 92536.8328083334,
      "d": 290.98344166667084,
      "v": 100
    },
    {
      "midi": 65,
      "hit": false,
      "t": 92536.8328083334,
      "d": 299.18015833334357,
      "v": 100
    },
    {
      "midi": 69,
      "hit": false,
      "t": 92536.8328083334,
      "d": 307.3768750000163,
      "v": 100
    },
    {
      "midi": 65,
      "hit": false,
      "t": 93028.63580833342,
      "d": 336.06538333333447,
      "v": 100
    },
    {
      "midi": 60,
      "hit": false,
      "t": 93028.63580833342,
      "d": 340.16374166666355,
      "v": 100
    },
    {
      "midi": 69,
      "hit": false,
      "t": 93028.63580833342,
      "d": 340.16374166666355,
      "v": 100
    },
    {
      "midi": 65,
      "hit": false,
      "t": 93520.43880833342,
      "d": 233.6064250000054,
      "v": 100
    },
    {
      "midi": 60,
      "hit": false,
      "t": 93520.43880833342,
      "d": 249.9998583333363,
      "v": 100
    },
    {
      "midi": 69,
      "hit": false,
      "t": 93520.43880833342,
      "d": 249.9998583333363,
      "v": 100
    },
    {
      "midi": 30,
      "hit": false,
      "t": 93848.3074750001,
      "d": 491.80300000001444,
      "v": 100
    },
    {
      "midi": 42,
      "hit": false,
      "t": 93848.3074750001,
      "d": 499.9997166666726,
      "v": 100
    },
    {
      "midi": 66,
      "hit": false,
      "t": 94012.24180833343,
      "d": 319.67195000000356,
      "v": 100
    },
    {
      "midi": 57,
      "hit": false,
      "t": 94012.24180833343,
      "d": 327.8686666666763,
      "v": 100
    },
    {
      "midi": 62,
      "hit": false,
      "t": 94012.24180833343,
      "d": 331.9670250000054,
      "v": 100
    },
    {
      "midi": 26,
      "hit": false,
      "t": 94340.11047500011,
      "d": 155.73761666666542,
      "v": 85
    },
    {
      "midi": 38,
      "hit": false,
      "t": 94340.11047500011,
      "d": 155.73761666666542,
      "v": 85
    },
    {
      "midi": 65,
      "hit": false,
      "t": 94504.04480833345,
      "d": 323.77030833333265,
      "v": 64
    },
    {
      "midi": 67,
      "hit": false,
      "t": 94504.04480833345,
      "d": 323.77030833333265,
      "v": 100
    },
    {
      "midi": 31,
      "hit": false,
      "t": 94504.04480833345,
      "d": 327.86866666666174,
      "v": 100
    },
    {
      "midi": 43,
      "hit": false,
      "t": 94504.04480833345,
      "d": 327.86866666666174,
      "v": 100
    },
    {
      "midi": 58,
      "hit": false,
      "t": 94504.04480833345,
      "d": 348.36045833332173,
      "v": 100
    },
    {
      "midi": 62,
      "hit": false,
      "t": 94504.04480833345,
      "d": 348.36045833332173,
      "v": 100
    },
    {
      "midi": 65,
      "hit": false,
      "t": 94995.84780833343,
      "d": 344.2621000000072,
      "v": 64
    },
    {
      "midi": 67,
      "hit": false,
      "t": 94995.84780833343,
      "d": 344.2621000000072,
      "v": 100
    },
    {
      "midi": 58,
      "hit": false,
      "t": 94995.84780833343,
      "d": 368.8522500000108,
      "v": 100
    },
    {
      "midi": 62,
      "hit": false,
      "t": 94995.84780833343,
      "d": 381.14732500001264,
      "v": 100
    },
    {
      "midi": 58,
      "hit": false,
      "t": 95487.65080833345,
      "d": 286.8850833333272,
      "v": 100
    },
    {
      "midi": 65,
      "hit": false,
      "t": 95487.65080833345,
      "d": 295.08179999999993,
      "v": 64
    },
    {
      "midi": 67,
      "hit": false,
      "t": 95487.65080833345,
      "d": 295.08179999999993,
      "v": 100
    },
    {
      "midi": 62,
      "hit": false,
      "t": 95487.65080833345,
      "d": 303.27851666667266,
      "v": 100
    },
    {
      "midi": 45,
      "hit": false,
      "t": 95815.51947500012,
      "d": 307.37687500000175,
      "v": 100
    },
    {
      "midi": 33,
      "hit": false,
      "t": 95815.51947500012,
      "d": 315.5735916666745,
      "v": 100
    },
    {
      "midi": 60,
      "hit": false,
      "t": 95979.45380833346,
      "d": 323.77030833333265,
      "v": 100
    },
    {
      "midi": 65,
      "hit": false,
      "t": 95979.45380833346,
      "d": 323.77030833333265,
      "v": 100
    },
    {
      "midi": 57,
      "hit": false,
      "t": 95979.45380833346,
      "d": 331.9670249999908,
      "v": 100
    },
    {
      "midi": 46,
      "hit": false,
      "t": 96307.32247500012,
      "d": 336.0653833333199,
      "v": 100
    },
    {
      "midi": 34,
      "hit": false,
      "t": 96307.32247500012,
      "d": 348.36045833332173,
      "v": 100
    },
    {
      "midi": 65,
      "hit": false,
      "t": 96471.25680833345,
      "d": 282.7867249999981,
      "v": 100
    },
    {
      "midi": 58,
      "hit": false,
      "t": 96471.25680833345,
      "d": 299.180158333329,
      "v": 100
    },
    {
      "midi": 60,
      "hit": false,
      "t": 96471.25680833345,
      "d": 299.180158333329,
      "v": 100
    },
    {
      "midi": 65,
      "hit": false,
      "t": 96963.05980833345,
      "d": 311.47523333333083,
      "v": 100
    },
    {
      "midi": 58,
      "hit": false,
      "t": 96963.05980833345,
      "d": 323.77030833333265,
      "v": 100
    },
    {
      "midi": 60,
      "hit": false,
      "t": 96963.05980833345,
      "d": 331.9670250000054,
      "v": 100
    },
    {
      "midi": 65,
      "hit": false,
      "t": 97454.86280833345,
      "d": 290.98344166667084,
      "v": 100
    },
    {
      "midi": 58,
      "hit": false,
      "t": 97454.86280833345,
      "d": 299.18015833334357,
      "v": 100
    },
    {
      "midi": 60,
      "hit": false,
      "t": 97454.86280833345,
      "d": 303.27851666667266,
      "v": 100
    },
    {
      "midi": 36,
      "hit": false,
      "t": 97782.73147500012,
      "d": 295.08179999999993,
      "v": 100
    },
    {
      "midi": 48,
      "hit": false,
      "t": 97782.73147500012,
      "d": 307.37687500000175,
      "v": 100
    },
    {
      "midi": 64,
      "hit": false,
      "t": 97946.66580833346,
      "d": 323.77030833333265,
      "v": 100
    },
    {
      "midi": 55,
      "hit": false,
      "t": 97946.66580833346,
      "d": 327.86866666666174,
      "v": 100
    },
    {
      "midi": 60,
      "hit": false,
      "t": 97946.66580833346,
      "d": 336.06538333333447,
      "v": 100
    },
    {
      "midi": 50,
      "hit": false,
      "t": 98274.53447500012,
      "d": 356.557175000009,
      "v": 100
    },
    {
      "midi": 38,
      "hit": false,
      "t": 98274.53447500012,
      "d": 368.8522500000108,
      "v": 100
    },
    {
      "midi": 65,
      "hit": false,
      "t": 98438.46880833346,
      "d": 303.27851666667266,
      "v": 100
    },
    {
      "midi": 69,
      "hit": false,
      "t": 98438.46880833346,
      "d": 307.37687500000175,
      "v": 100
    },
    {
      "midi": 62,
      "hit": false,
      "t": 98438.46880833346,
      "d": 331.9670250000054,
      "v": 100
    },
    {
      "midi": 65,
      "hit": false,
      "t": 98930.27180833346,
      "d": 319.67195000000356,
      "v": 100
    },
    {
      "midi": 69,
      "hit": false,
      "t": 98930.27180833346,
      "d": 327.8686666666763,
      "v": 100
    },
    {
      "midi": 62,
      "hit": false,
      "t": 98930.27180833346,
      "d": 336.065383333349,
      "v": 100
    },
    {
      "midi": 65,
      "hit": false,
      "t": 99422.07480833348,
      "d": 299.180158333329,
      "v": 100
    },
    {
      "midi": 62,
      "hit": false,
      "t": 99422.07480833348,
      "d": 303.2785166666581,
      "v": 100
    },
    {
      "midi": 69,
      "hit": false,
      "t": 99422.07480833348,
      "d": 303.2785166666581,
      "v": 100
    },
    {
      "midi": 40,
      "hit": false,
      "t": 99749.94347500014,
      "d": 303.27851666667266,
      "v": 100
    },
    {
      "midi": 52,
      "hit": false,
      "t": 99749.94347500014,
      "d": 303.27851666667266,
      "v": 100
    },
    {
      "midi": 64,
      "hit": false,
      "t": 99913.87780833348,
      "d": 303.27851666667266,
      "v": 100
    },
    {
      "midi": 67,
      "hit": false,
      "t": 99913.87780833348,
      "d": 303.27851666667266,
      "v": 100
    },
    {
      "midi": 60,
      "hit": false,
      "t": 99913.87780833348,
      "d": 311.4752333333454,
      "v": 100
    },
    {
      "midi": 53,
      "hit": false,
      "t": 100241.74647500015,
      "d": 303.27851666667266,
      "v": 100
    },
    {
      "midi": 41,
      "hit": false,
      "t": 100241.74647500015,
      "d": 307.37687500000175,
      "v": 100
    },
    {
      "midi": 60,
      "hit": false,
      "t": 100405.68080833349,
      "d": 290.98344166667084,
      "v": 100
    },
    {
      "midi": 65,
      "hit": false,
      "t": 100405.68080833349,
      "d": 299.18015833334357,
      "v": 100
    },
    {
      "midi": 69,
      "hit": false,
      "t": 100405.68080833349,
      "d": 307.3768750000163,
      "v": 100
    },
    {
      "midi": 65,
      "hit": false,
      "t": 100897.4838083335,
      "d": 336.06538333333447,
      "v": 100
    },
    {
      "midi": 60,
      "hit": false,
      "t": 100897.4838083335,
      "d": 340.16374166666355,
      "v": 100
    },
    {
      "midi": 69,
      "hit": false,
      "t": 100897.4838083335,
      "d": 340.16374166666355,
      "v": 100
    },
    {
      "midi": 65,
      "hit": false,
      "t": 101389.2868083335,
      "d": 233.6064250000054,
      "v": 100
    },
    {
      "midi": 60,
      "hit": false,
      "t": 101389.2868083335,
      "d": 249.9998583333363,
      "v": 100
    },
    {
      "midi": 69,
      "hit": false,
      "t": 101389.2868083335,
      "d": 249.9998583333363,
      "v": 100
    },
    {
      "midi": 30,
      "hit": false,
      "t": 101717.15547500018,
      "d": 491.80300000001444,
      "v": 100
    },
    {
      "midi": 42,
      "hit": false,
      "t": 101717.15547500018,
      "d": 499.9997166666726,
      "v": 100
    },
    {
      "midi": 66,
      "hit": false,
      "t": 101881.08980833352,
      "d": 319.67195000000356,
      "v": 100
    },
    {
      "midi": 57,
      "hit": false,
      "t": 101881.08980833352,
      "d": 327.8686666666763,
      "v": 100
    },
    {
      "midi": 62,
      "hit": false,
      "t": 101881.08980833352,
      "d": 331.9670250000054,
      "v": 100
    },
    {
      "midi": 26,
      "hit": false,
      "t": 102208.9584750002,
      "d": 155.73761666666542,
      "v": 88
    },
    {
      "midi": 38,
      "hit": false,
      "t": 102208.9584750002,
      "d": 155.73761666666542,
      "v": 88
    },
    {
      "midi": 65,
      "hit": false,
      "t": 102372.89280833353,
      "d": 323.77030833333265,
      "v": 64
    },
    {
      "midi": 67,
      "hit": false,
      "t": 102372.89280833353,
      "d": 323.77030833333265,
      "v": 100
    },
    {
      "midi": 31,
      "hit": false,
      "t": 102372.89280833353,
      "d": 327.86866666666174,
      "v": 100
    },
    {
      "midi": 43,
      "hit": false,
      "t": 102372.89280833353,
      "d": 327.86866666666174,
      "v": 100
    },
    {
      "midi": 58,
      "hit": false,
      "t": 102372.89280833353,
      "d": 348.36045833332173,
      "v": 100
    },
    {
      "midi": 62,
      "hit": false,
      "t": 102372.89280833353,
      "d": 348.36045833332173,
      "v": 100
    },
    {
      "midi": 65,
      "hit": false,
      "t": 102864.69580833352,
      "d": 344.2621000000072,
      "v": 64
    },
    {
      "midi": 67,
      "hit": false,
      "t": 102864.69580833352,
      "d": 344.2621000000072,
      "v": 100
    },
    {
      "midi": 58,
      "hit": false,
      "t": 102864.69580833352,
      "d": 368.8522500000108,
      "v": 100
    },
    {
      "midi": 62,
      "hit": false,
      "t": 102864.69580833352,
      "d": 381.14732500001264,
      "v": 100
    },
    {
      "midi": 58,
      "hit": false,
      "t": 103356.49880833353,
      "d": 286.8850833333272,
      "v": 100
    },
    {
      "midi": 65,
      "hit": false,
      "t": 103356.49880833353,
      "d": 295.08179999999993,
      "v": 64
    },
    {
      "midi": 67,
      "hit": false,
      "t": 103356.49880833353,
      "d": 295.08179999999993,
      "v": 100
    },
    {
      "midi": 62,
      "hit": false,
      "t": 103356.49880833353,
      "d": 303.27851666667266,
      "v": 100
    },
    {
      "midi": 45,
      "hit": false,
      "t": 103684.36747500021,
      "d": 307.37687500000175,
      "v": 100
    },
    {
      "midi": 33,
      "hit": false,
      "t": 103684.36747500021,
      "d": 315.5735916666745,
      "v": 100
    },
    {
      "midi": 60,
      "hit": false,
      "t": 103848.30180833355,
      "d": 323.77030833333265,
      "v": 100
    },
    {
      "midi": 65,
      "hit": false,
      "t": 103848.30180833355,
      "d": 323.77030833333265,
      "v": 100
    },
    {
      "midi": 57,
      "hit": false,
      "t": 103848.30180833355,
      "d": 331.9670249999908,
      "v": 100
    },
    {
      "midi": 46,
      "hit": false,
      "t": 104176.17047500021,
      "d": 336.0653833333199,
      "v": 100
    },
    {
      "midi": 34,
      "hit": false,
      "t": 104176.17047500021,
      "d": 348.36045833332173,
      "v": 100
    },
    {
      "midi": 65,
      "hit": false,
      "t": 104340.10480833353,
      "d": 282.7867249999981,
      "v": 100
    },
    {
      "midi": 58,
      "hit": false,
      "t": 104340.10480833353,
      "d": 299.180158333329,
      "v": 100
    },
    {
      "midi": 60,
      "hit": false,
      "t": 104340.10480833353,
      "d": 299.180158333329,
      "v": 100
    },
    {
      "midi": 65,
      "hit": false,
      "t": 104831.90780833353,
      "d": 311.47523333333083,
      "v": 100
    },
    {
      "midi": 58,
      "hit": false,
      "t": 104831.90780833353,
      "d": 323.77030833333265,
      "v": 100
    },
    {
      "midi": 60,
      "hit": false,
      "t": 104831.90780833353,
      "d": 331.9670250000054,
      "v": 100
    },
    {
      "midi": 65,
      "hit": false,
      "t": 105323.71080833353,
      "d": 290.98344166667084,
      "v": 100
    },
    {
      "midi": 58,
      "hit": false,
      "t": 105323.71080833353,
      "d": 299.18015833334357,
      "v": 100
    },
    {
      "midi": 60,
      "hit": false,
      "t": 105323.71080833353,
      "d": 303.27851666667266,
      "v": 100
    },
    {
      "midi": 36,
      "hit": false,
      "t": 105651.57947500021,
      "d": 295.08179999999993,
      "v": 100
    },
    {
      "midi": 48,
      "hit": false,
      "t": 105651.57947500021,
      "d": 307.37687500000175,
      "v": 100
    },
    {
      "midi": 64,
      "hit": false,
      "t": 105815.51380833355,
      "d": 323.77030833333265,
      "v": 100
    },
    {
      "midi": 55,
      "hit": false,
      "t": 105815.51380833355,
      "d": 327.86866666666174,
      "v": 100
    },
    {
      "midi": 60,
      "hit": false,
      "t": 105815.51380833355,
      "d": 336.06538333333447,
      "v": 100
    },
    {
      "midi": 50,
      "hit": false,
      "t": 106143.38247500021,
      "d": 356.557175000009,
      "v": 100
    },
    {
      "midi": 38,
      "hit": false,
      "t": 106143.38247500021,
      "d": 368.8522500000108,
      "v": 100
    },
    {
      "midi": 65,
      "hit": false,
      "t": 106307.31680833355,
      "d": 303.27851666667266,
      "v": 100
    },
    {
      "midi": 69,
      "hit": false,
      "t": 106307.31680833355,
      "d": 307.37687500000175,
      "v": 100
    },
    {
      "midi": 62,
      "hit": false,
      "t": 106307.31680833355,
      "d": 331.9670250000054,
      "v": 100
    },
    {
      "midi": 65,
      "hit": false,
      "t": 106799.11980833355,
      "d": 319.67195000000356,
      "v": 100
    },
    {
      "midi": 69,
      "hit": false,
      "t": 106799.11980833355,
      "d": 327.8686666666763,
      "v": 100
    },
    {
      "midi": 62,
      "hit": false,
      "t": 106799.11980833355,
      "d": 336.065383333349,
      "v": 100
    },
    {
      "midi": 65,
      "hit": false,
      "t": 107290.92280833356,
      "d": 299.180158333329,
      "v": 100
    },
    {
      "midi": 62,
      "hit": false,
      "t": 107290.92280833356,
      "d": 303.2785166666581,
      "v": 100
    },
    {
      "midi": 69,
      "hit": false,
      "t": 107290.92280833356,
      "d": 303.2785166666581,
      "v": 100
    },
    {
      "midi": 40,
      "hit": false,
      "t": 107618.79147500022,
      "d": 303.27851666667266,
      "v": 100
    },
    {
      "midi": 52,
      "hit": false,
      "t": 107618.79147500022,
      "d": 303.27851666667266,
      "v": 100
    },
    {
      "midi": 64,
      "hit": false,
      "t": 107782.72580833356,
      "d": 303.27851666667266,
      "v": 100
    },
    {
      "midi": 67,
      "hit": false,
      "t": 107782.72580833356,
      "d": 303.27851666667266,
      "v": 100
    },
    {
      "midi": 60,
      "hit": false,
      "t": 107782.72580833356,
      "d": 311.4752333333454,
      "v": 100
    },
    {
      "midi": 53,
      "hit": false,
      "t": 108110.59447500024,
      "d": 303.27851666667266,
      "v": 100
    },
    {
      "midi": 41,
      "hit": false,
      "t": 108110.59447500024,
      "d": 307.37687500000175,
      "v": 100
    },
    {
      "midi": 60,
      "hit": false,
      "t": 108274.52880833358,
      "d": 290.98344166667084,
      "v": 100
    },
    {
      "midi": 65,
      "hit": false,
      "t": 108274.52880833358,
      "d": 299.18015833334357,
      "v": 100
    },
    {
      "midi": 69,
      "hit": false,
      "t": 108274.52880833358,
      "d": 307.3768750000163,
      "v": 100
    },
    {
      "midi": 65,
      "hit": false,
      "t": 108766.33180833359,
      "d": 336.06538333333447,
      "v": 100
    },
    {
      "midi": 60,
      "hit": false,
      "t": 108766.33180833359,
      "d": 340.16374166666355,
      "v": 100
    },
    {
      "midi": 69,
      "hit": false,
      "t": 108766.33180833359,
      "d": 340.16374166666355,
      "v": 100
    },
    {
      "midi": 65,
      "hit": false,
      "t": 109258.13480833359,
      "d": 233.6064250000054,
      "v": 100
    },
    {
      "midi": 60,
      "hit": false,
      "t": 109258.13480833359,
      "d": 249.9998583333363,
      "v": 100
    },
    {
      "midi": 69,
      "hit": false,
      "t": 109258.13480833359,
      "d": 249.9998583333363,
      "v": 100
    },
    {
      "midi": 30,
      "hit": false,
      "t": 109586.00347500027,
      "d": 491.80300000001444,
      "v": 100
    },
    {
      "midi": 42,
      "hit": false,
      "t": 109586.00347500027,
      "d": 499.9997166666726,
      "v": 100
    },
    {
      "midi": 66,
      "hit": false,
      "t": 109749.9378083336,
      "d": 319.67195000000356,
      "v": 100
    },
    {
      "midi": 57,
      "hit": false,
      "t": 109749.9378083336,
      "d": 327.8686666666763,
      "v": 100
    },
    {
      "midi": 62,
      "hit": false,
      "t": 109749.9378083336,
      "d": 331.9670250000054,
      "v": 100
    },
    {
      "midi": 26,
      "hit": false,
      "t": 110077.80647500028,
      "d": 155.73761666666542,
      "v": 85
    },
    {
      "midi": 38,
      "hit": false,
      "t": 110077.80647500028,
      "d": 155.73761666666542,
      "v": 85
    },
    {
      "midi": 65,
      "hit": false,
      "t": 110241.74080833362,
      "d": 323.77030833333265,
      "v": 64
    },
    {
      "midi": 67,
      "hit": false,
      "t": 110241.74080833362,
      "d": 323.77030833333265,
      "v": 100
    },
    {
      "midi": 31,
      "hit": false,
      "t": 110241.74080833362,
      "d": 327.86866666666174,
      "v": 100
    },
    {
      "midi": 43,
      "hit": false,
      "t": 110241.74080833362,
      "d": 327.86866666666174,
      "v": 100
    },
    {
      "midi": 58,
      "hit": false,
      "t": 110241.74080833362,
      "d": 348.36045833332173,
      "v": 100
    },
    {
      "midi": 62,
      "hit": false,
      "t": 110241.74080833362,
      "d": 348.36045833332173,
      "v": 100
    },
    {
      "midi": 65,
      "hit": false,
      "t": 110733.5438083336,
      "d": 344.2621000000072,
      "v": 64
    },
    {
      "midi": 67,
      "hit": false,
      "t": 110733.5438083336,
      "d": 344.2621000000072,
      "v": 100
    },
    {
      "midi": 58,
      "hit": false,
      "t": 110733.5438083336,
      "d": 368.8522500000108,
      "v": 100
    },
    {
      "midi": 62,
      "hit": false,
      "t": 110733.5438083336,
      "d": 381.14732500001264,
      "v": 100
    },
    {
      "midi": 58,
      "hit": false,
      "t": 111225.34680833362,
      "d": 286.8850833333272,
      "v": 100
    },
    {
      "midi": 65,
      "hit": false,
      "t": 111225.34680833362,
      "d": 295.08179999999993,
      "v": 64
    },
    {
      "midi": 67,
      "hit": false,
      "t": 111225.34680833362,
      "d": 295.08179999999993,
      "v": 100
    },
    {
      "midi": 62,
      "hit": false,
      "t": 111225.34680833362,
      "d": 303.27851666667266,
      "v": 100
    },
    {
      "midi": 45,
      "hit": false,
      "t": 111553.2154750003,
      "d": 307.37687500000175,
      "v": 100
    },
    {
      "midi": 33,
      "hit": false,
      "t": 111553.2154750003,
      "d": 315.5735916666745,
      "v": 100
    },
    {
      "midi": 60,
      "hit": false,
      "t": 111717.14980833363,
      "d": 323.77030833333265,
      "v": 100
    },
    {
      "midi": 65,
      "hit": false,
      "t": 111717.14980833363,
      "d": 323.77030833333265,
      "v": 100
    },
    {
      "midi": 57,
      "hit": false,
      "t": 111717.14980833363,
      "d": 331.9670249999908,
      "v": 100
    },
    {
      "midi": 46,
      "hit": false,
      "t": 112045.0184750003,
      "d": 336.0653833333199,
      "v": 100
    },
    {
      "midi": 34,
      "hit": false,
      "t": 112045.0184750003,
      "d": 348.36045833332173,
      "v": 100
    },
    {
      "midi": 65,
      "hit": false,
      "t": 112208.95280833362,
      "d": 282.7867249999981,
      "v": 100
    },
    {
      "midi": 58,
      "hit": false,
      "t": 112208.95280833362,
      "d": 299.180158333329,
      "v": 100
    },
    {
      "midi": 60,
      "hit": false,
      "t": 112208.95280833362,
      "d": 299.180158333329,
      "v": 100
    },
    {
      "midi": 65,
      "hit": false,
      "t": 112700.75580833362,
      "d": 311.47523333333083,
      "v": 100
    },
    {
      "midi": 58,
      "hit": false,
      "t": 112700.75580833362,
      "d": 323.77030833333265,
      "v": 100
    },
    {
      "midi": 60,
      "hit": false,
      "t": 112700.75580833362,
      "d": 331.9670250000054,
      "v": 100
    },
    {
      "midi": 65,
      "hit": false,
      "t": 113192.55880833362,
      "d": 290.98344166667084,
      "v": 100
    },
    {
      "midi": 58,
      "hit": false,
      "t": 113192.55880833362,
      "d": 299.18015833334357,
      "v": 100
    },
    {
      "midi": 60,
      "hit": false,
      "t": 113192.55880833362,
      "d": 303.27851666667266,
      "v": 100
    },
    {
      "midi": 36,
      "hit": false,
      "t": 113520.4274750003,
      "d": 295.08179999999993,
      "v": 100
    },
    {
      "midi": 48,
      "hit": false,
      "t": 113520.4274750003,
      "d": 307.37687500000175,
      "v": 100
    },
    {
      "midi": 64,
      "hit": false,
      "t": 113684.36180833363,
      "d": 323.77030833333265,
      "v": 100
    },
    {
      "midi": 55,
      "hit": false,
      "t": 113684.36180833363,
      "d": 327.86866666666174,
      "v": 100
    },
    {
      "midi": 60,
      "hit": false,
      "t": 113684.36180833363,
      "d": 336.06538333333447,
      "v": 100
    },
    {
      "midi": 50,
      "hit": false,
      "t": 114012.2304750003,
      "d": 356.557175000009,
      "v": 100
    },
    {
      "midi": 38,
      "hit": false,
      "t": 114012.2304750003,
      "d": 368.8522500000108,
      "v": 100
    },
    {
      "midi": 65,
      "hit": false,
      "t": 114176.16480833363,
      "d": 303.27851666667266,
      "v": 100
    },
    {
      "midi": 69,
      "hit": false,
      "t": 114176.16480833363,
      "d": 307.37687500000175,
      "v": 100
    },
    {
      "midi": 62,
      "hit": false,
      "t": 114176.16480833363,
      "d": 331.9670250000054,
      "v": 100
    },
    {
      "midi": 65,
      "hit": false,
      "t": 114667.96780833363,
      "d": 319.67195000000356,
      "v": 100
    },
    {
      "midi": 69,
      "hit": false,
      "t": 114667.96780833363,
      "d": 327.8686666666763,
      "v": 100
    },
    {
      "midi": 62,
      "hit": false,
      "t": 114667.96780833363,
      "d": 336.065383333349,
      "v": 100
    },
    {
      "midi": 65,
      "hit": false,
      "t": 115159.77080833365,
      "d": 299.180158333329,
      "v": 100
    },
    {
      "midi": 62,
      "hit": false,
      "t": 115159.77080833365,
      "d": 303.2785166666581,
      "v": 100
    },
    {
      "midi": 69,
      "hit": false,
      "t": 115159.77080833365,
      "d": 303.2785166666581,
      "v": 100
    },
    {
      "midi": 40,
      "hit": false,
      "t": 115487.63947500031,
      "d": 303.27851666667266,
      "v": 100
    },
    {
      "midi": 52,
      "hit": false,
      "t": 115487.63947500031,
      "d": 303.27851666667266,
      "v": 100
    },
    {
      "midi": 64,
      "hit": false,
      "t": 115651.57380833365,
      "d": 303.27851666667266,
      "v": 100
    },
    {
      "midi": 67,
      "hit": false,
      "t": 115651.57380833365,
      "d": 303.27851666667266,
      "v": 100
    },
    {
      "midi": 60,
      "hit": false,
      "t": 115651.57380833365,
      "d": 311.4752333333454,
      "v": 100
    },
    {
      "midi": 53,
      "hit": false,
      "t": 115979.44247500032,
      "d": 303.27851666667266,
      "v": 100
    },
    {
      "midi": 41,
      "hit": false,
      "t": 115979.44247500032,
      "d": 307.37687500000175,
      "v": 100
    },
    {
      "midi": 60,
      "hit": false,
      "t": 116143.37680833366,
      "d": 290.98344166667084,
      "v": 100
    },
    {
      "midi": 65,
      "hit": false,
      "t": 116143.37680833366,
      "d": 299.18015833334357,
      "v": 100
    },
    {
      "midi": 69,
      "hit": false,
      "t": 116143.37680833366,
      "d": 307.3768750000163,
      "v": 100
    },
    {
      "midi": 65,
      "hit": false,
      "t": 116635.17980833368,
      "d": 336.06538333333447,
      "v": 100
    },
    {
      "midi": 60,
      "hit": false,
      "t": 116635.17980833368,
      "d": 340.16374166666355,
      "v": 100
    },
    {
      "midi": 69,
      "hit": false,
      "t": 116635.17980833368,
      "d": 340.16374166666355,
      "v": 100
    },
    {
      "midi": 65,
      "hit": false,
      "t": 117126.98280833368,
      "d": 233.6064250000054,
      "v": 100
    },
    {
      "midi": 60,
      "hit": false,
      "t": 117126.98280833368,
      "d": 249.9998583333363,
      "v": 100
    },
    {
      "midi": 69,
      "hit": false,
      "t": 117126.98280833368,
      "d": 249.9998583333363,
      "v": 100
    },
    {
      "midi": 30,
      "hit": false,
      "t": 117454.85147500035,
      "d": 491.80300000001444,
      "v": 100
    },
    {
      "midi": 42,
      "hit": false,
      "t": 117454.85147500035,
      "d": 499.9997166666726,
      "v": 100
    },
    {
      "midi": 66,
      "hit": false,
      "t": 117618.78580833369,
      "d": 319.67195000000356,
      "v": 100
    },
    {
      "midi": 57,
      "hit": false,
      "t": 117618.78580833369,
      "d": 327.8686666666763,
      "v": 100
    },
    {
      "midi": 62,
      "hit": false,
      "t": 117618.78580833369,
      "d": 331.9670250000054,
      "v": 100
    },
    {
      "midi": 26,
      "hit": false,
      "t": 117946.65447500037,
      "d": 155.73761666666542,
      "v": 88
    },
    {
      "midi": 38,
      "hit": false,
      "t": 117946.65447500037,
      "d": 155.73761666666542,
      "v": 88
    },
    {
      "midi": 65,
      "hit": false,
      "t": 118110.5888083337,
      "d": 323.77030833333265,
      "v": 64
    },
    {
      "midi": 67,
      "hit": false,
      "t": 118110.5888083337,
      "d": 323.77030833333265,
      "v": 100
    },
    {
      "midi": 31,
      "hit": false,
      "t": 118110.5888083337,
      "d": 327.86866666666174,
      "v": 100
    },
    {
      "midi": 43,
      "hit": false,
      "t": 118110.5888083337,
      "d": 327.86866666666174,
      "v": 100
    },
    {
      "midi": 58,
      "hit": false,
      "t": 118110.5888083337,
      "d": 348.36045833332173,
      "v": 100
    },
    {
      "midi": 62,
      "hit": false,
      "t": 118110.5888083337,
      "d": 348.36045833332173,
      "v": 100
    },
    {
      "midi": 65,
      "hit": false,
      "t": 118602.39180833369,
      "d": 344.2621000000072,
      "v": 64
    },
    {
      "midi": 67,
      "hit": false,
      "t": 118602.39180833369,
      "d": 344.2621000000072,
      "v": 100
    },
    {
      "midi": 58,
      "hit": false,
      "t": 118602.39180833369,
      "d": 368.8522500000108,
      "v": 100
    },
    {
      "midi": 62,
      "hit": false,
      "t": 118602.39180833369,
      "d": 381.14732500001264,
      "v": 100
    },
    {
      "midi": 58,
      "hit": false,
      "t": 119094.1948083337,
      "d": 286.8850833333272,
      "v": 100
    },
    {
      "midi": 65,
      "hit": false,
      "t": 119094.1948083337,
      "d": 295.08179999999993,
      "v": 64
    },
    {
      "midi": 67,
      "hit": false,
      "t": 119094.1948083337,
      "d": 295.08179999999993,
      "v": 100
    },
    {
      "midi": 62,
      "hit": false,
      "t": 119094.1948083337,
      "d": 303.27851666667266,
      "v": 100
    },
    {
      "midi": 45,
      "hit": false,
      "t": 119422.06347500038,
      "d": 307.37687500000175,
      "v": 100
    },
    {
      "midi": 33,
      "hit": false,
      "t": 119422.06347500038,
      "d": 315.5735916666745,
      "v": 100
    },
    {
      "midi": 60,
      "hit": false,
      "t": 119585.99780833372,
      "d": 323.77030833333265,
      "v": 100
    },
    {
      "midi": 65,
      "hit": false,
      "t": 119585.99780833372,
      "d": 323.77030833333265,
      "v": 100
    },
    {
      "midi": 57,
      "hit": false,
      "t": 119585.99780833372,
      "d": 331.9670249999908,
      "v": 100
    },
    {
      "midi": 46,
      "hit": false,
      "t": 119913.86647500038,
      "d": 336.0653833333199,
      "v": 100
    },
    {
      "midi": 34,
      "hit": false,
      "t": 119913.86647500038,
      "d": 348.36045833332173,
      "v": 100
    },
    {
      "midi": 65,
      "hit": false,
      "t": 120077.8008083337,
      "d": 282.7867249999981,
      "v": 100
    },
    {
      "midi": 58,
      "hit": false,
      "t": 120077.8008083337,
      "d": 299.180158333329,
      "v": 100
    },
    {
      "midi": 60,
      "hit": false,
      "t": 120077.8008083337,
      "d": 299.180158333329,
      "v": 100
    },
    {
      "midi": 65,
      "hit": false,
      "t": 120569.6038083337,
      "d": 311.47523333333083,
      "v": 100
    },
    {
      "midi": 58,
      "hit": false,
      "t": 120569.6038083337,
      "d": 323.77030833333265,
      "v": 100
    },
    {
      "midi": 60,
      "hit": false,
      "t": 120569.6038083337,
      "d": 331.9670250000054,
      "v": 100
    },
    {
      "midi": 65,
      "hit": false,
      "t": 121061.4068083337,
      "d": 290.98344166667084,
      "v": 100
    },
    {
      "midi": 58,
      "hit": false,
      "t": 121061.4068083337,
      "d": 299.18015833334357,
      "v": 100
    },
    {
      "midi": 60,
      "hit": false,
      "t": 121061.4068083337,
      "d": 303.27851666667266,
      "v": 100
    },
    {
      "midi": 36,
      "hit": false,
      "t": 121389.27547500038,
      "d": 295.08179999999993,
      "v": 100
    },
    {
      "midi": 48,
      "hit": false,
      "t": 121389.27547500038,
      "d": 307.37687500000175,
      "v": 100
    },
    {
      "midi": 64,
      "hit": false,
      "t": 121553.20980833372,
      "d": 323.77030833333265,
      "v": 100
    },
    {
      "midi": 55,
      "hit": false,
      "t": 121553.20980833372,
      "d": 327.86866666666174,
      "v": 100
    },
    {
      "midi": 60,
      "hit": false,
      "t": 121553.20980833372,
      "d": 336.06538333333447,
      "v": 100
    },
    {
      "midi": 50,
      "hit": false,
      "t": 121881.07847500038,
      "d": 356.557175000009,
      "v": 100
    },
    {
      "midi": 38,
      "hit": false,
      "t": 121881.07847500038,
      "d": 368.8522500000108,
      "v": 100
    },
    {
      "midi": 65,
      "hit": false,
      "t": 122045.01280833372,
      "d": 303.27851666667266,
      "v": 100
    },
    {
      "midi": 69,
      "hit": false,
      "t": 122045.01280833372,
      "d": 307.37687500000175,
      "v": 100
    },
    {
      "midi": 62,
      "hit": false,
      "t": 122045.01280833372,
      "d": 331.9670250000054,
      "v": 100
    },
    {
      "midi": 65,
      "hit": false,
      "t": 122536.81580833372,
      "d": 319.67195000000356,
      "v": 100
    },
    {
      "midi": 69,
      "hit": false,
      "t": 122536.81580833372,
      "d": 327.8686666666763,
      "v": 100
    },
    {
      "midi": 62,
      "hit": false,
      "t": 122536.81580833372,
      "d": 336.065383333349,
      "v": 100
    },
    {
      "midi": 65,
      "hit": false,
      "t": 123028.61880833373,
      "d": 299.180158333329,
      "v": 100
    },
    {
      "midi": 62,
      "hit": false,
      "t": 123028.61880833373,
      "d": 303.2785166666581,
      "v": 100
    },
    {
      "midi": 69,
      "hit": false,
      "t": 123028.61880833373,
      "d": 303.2785166666581,
      "v": 100
    },
    {
      "midi": 40,
      "hit": false,
      "t": 123356.4874750004,
      "d": 303.27851666667266,
      "v": 100
    },
    {
      "midi": 52,
      "hit": false,
      "t": 123356.4874750004,
      "d": 303.27851666667266,
      "v": 100
    },
    {
      "midi": 64,
      "hit": false,
      "t": 123520.42180833373,
      "d": 303.27851666667266,
      "v": 100
    },
    {
      "midi": 67,
      "hit": false,
      "t": 123520.42180833373,
      "d": 303.27851666667266,
      "v": 100
    },
    {
      "midi": 60,
      "hit": false,
      "t": 123520.42180833373,
      "d": 311.4752333333454,
      "v": 100
    },
    {
      "midi": 53,
      "hit": false,
      "t": 123848.29047500041,
      "d": 303.27851666667266,
      "v": 100
    },
    {
      "midi": 41,
      "hit": false,
      "t": 123848.29047500041,
      "d": 307.37687500000175,
      "v": 100
    },
    {
      "midi": 60,
      "hit": false,
      "t": 124012.22480833375,
      "d": 290.98344166667084,
      "v": 100
    },
    {
      "midi": 65,
      "hit": false,
      "t": 124012.22480833375,
      "d": 299.18015833334357,
      "v": 100
    },
    {
      "midi": 69,
      "hit": false,
      "t": 124012.22480833375,
      "d": 307.3768750000163,
      "v": 100
    },
    {
      "midi": 65,
      "hit": false,
      "t": 124504.02780833376,
      "d": 336.06538333333447,
      "v": 100
    },
    {
      "midi": 60,
      "hit": false,
      "t": 124504.02780833376,
      "d": 340.16374166666355,
      "v": 100
    },
    {
      "midi": 69,
      "hit": false,
      "t": 124504.02780833376,
      "d": 340.16374166666355,
      "v": 100
    },
    {
      "midi": 65,
      "hit": false,
      "t": 124995.83080833376,
      "d": 233.6064250000054,
      "v": 100
    },
    {
      "midi": 60,
      "hit": false,
      "t": 124995.83080833376,
      "d": 249.9998583333363,
      "v": 100
    },
    {
      "midi": 69,
      "hit": false,
      "t": 124995.83080833376,
      "d": 249.9998583333363,
      "v": 100
    },
    {
      "midi": 30,
      "hit": false,
      "t": 125323.69947500044,
      "d": 491.80300000001444,
      "v": 100
    },
    {
      "midi": 42,
      "hit": false,
      "t": 125323.69947500044,
      "d": 499.9997166666726,
      "v": 100
    },
    {
      "midi": 66,
      "hit": false,
      "t": 125487.63380833378,
      "d": 319.67195000000356,
      "v": 100
    },
    {
      "midi": 57,
      "hit": false,
      "t": 125487.63380833378,
      "d": 327.8686666666763,
      "v": 100
    },
    {
      "midi": 62,
      "hit": false,
      "t": 125487.63380833378,
      "d": 331.9670250000054,
      "v": 100
    },
    {
      "midi": 26,
      "hit": false,
      "t": 125815.50247500045,
      "d": 155.73761666666542,
      "v": 85
    },
    {
      "midi": 38,
      "hit": false,
      "t": 125815.50247500045,
      "d": 155.73761666666542,
      "v": 85
    },
    {
      "midi": 58,
      "hit": false,
      "t": 125979.43680833379,
      "d": 327.86866666666174,
      "v": 95
    },
    {
      "midi": 62,
      "hit": false,
      "t": 125979.43680833379,
      "d": 327.86866666666174,
      "v": 95
    },
    {
      "midi": 65,
      "hit": false,
      "t": 125979.43680833379,
      "d": 327.86866666666174,
      "v": 95
    },
    {
      "midi": 67,
      "hit": false,
      "t": 125979.43680833379,
      "d": 331.9670249999908,
      "v": 95
    },
    {
      "midi": 43,
      "hit": false,
      "t": 125979.43680833379,
      "d": 1868.851399999985,
      "v": 95
    },
    {
      "midi": 58,
      "hit": false,
      "t": 126471.23980833378,
      "d": 327.86866666666174,
      "v": 95
    },
    {
      "midi": 62,
      "hit": false,
      "t": 126471.23980833378,
      "d": 327.86866666666174,
      "v": 95
    },
    {
      "midi": 65,
      "hit": false,
      "t": 126471.23980833378,
      "d": 327.86866666666174,
      "v": 95
    },
    {
      "midi": 67,
      "hit": false,
      "t": 126471.23980833378,
      "d": 340.16374166666355,
      "v": 95
    },
    {
      "midi": 67,
      "hit": false,
      "t": 126963.04280833378,
      "d": 311.47523333333083,
      "v": 95
    },
    {
      "midi": 58,
      "hit": false,
      "t": 126963.04280833378,
      "d": 327.86866666666174,
      "v": 95
    },
    {
      "midi": 62,
      "hit": false,
      "t": 126963.04280833378,
      "d": 327.86866666666174,
      "v": 95
    },
    {
      "midi": 65,
      "hit": false,
      "t": 126963.04280833378,
      "d": 327.86866666666174,
      "v": 95
    },
    {
      "midi": 67,
      "hit": false,
      "t": 127454.84580833378,
      "d": 323.77030833333265,
      "v": 95
    },
    {
      "midi": 58,
      "hit": false,
      "t": 127454.84580833378,
      "d": 327.86866666666174,
      "v": 95
    },
    {
      "midi": 62,
      "hit": false,
      "t": 127454.84580833378,
      "d": 327.86866666666174,
      "v": 95
    },
    {
      "midi": 65,
      "hit": false,
      "t": 127454.84580833378,
      "d": 327.86866666666174,
      "v": 95
    },
    {
      "midi": 57,
      "hit": false,
      "t": 127946.64880833378,
      "d": 327.86866666666174,
      "v": 95
    },
    {
      "midi": 60,
      "hit": false,
      "t": 127946.64880833378,
      "d": 327.86866666666174,
      "v": 95
    },
    {
      "midi": 65,
      "hit": false,
      "t": 127946.64880833378,
      "d": 327.86866666666174,
      "v": 95
    },
    {
      "midi": 45,
      "hit": false,
      "t": 127946.64880833378,
      "d": 1918.0316999999923,
      "v": 95
    },
    {
      "midi": 57,
      "hit": false,
      "t": 128438.45180833378,
      "d": 327.86866666666174,
      "v": 95
    },
    {
      "midi": 60,
      "hit": false,
      "t": 128438.45180833378,
      "d": 327.86866666666174,
      "v": 95
    },
    {
      "midi": 65,
      "hit": false,
      "t": 128438.45180833378,
      "d": 327.86866666666174,
      "v": 95
    },
    {
      "midi": 57,
      "hit": false,
      "t": 128930.25480833378,
      "d": 327.86866666666174,
      "v": 95
    },
    {
      "midi": 60,
      "hit": false,
      "t": 128930.25480833378,
      "d": 327.86866666666174,
      "v": 95
    },
    {
      "midi": 65,
      "hit": false,
      "t": 128930.25480833378,
      "d": 327.86866666666174,
      "v": 95
    },
    {
      "midi": 57,
      "hit": false,
      "t": 129422.05780833378,
      "d": 327.86866666666174,
      "v": 95
    },
    {
      "midi": 60,
      "hit": false,
      "t": 129422.05780833378,
      "d": 327.86866666666174,
      "v": 95
    },
    {
      "midi": 65,
      "hit": false,
      "t": 129422.05780833378,
      "d": 327.86866666666174,
      "v": 95
    },
    {
      "midi": 58,
      "hit": false,
      "t": 129913.86080833377,
      "d": 327.86866666666174,
      "v": 95
    },
    {
      "midi": 60,
      "hit": false,
      "t": 129913.86080833377,
      "d": 327.86866666666174,
      "v": 95
    },
    {
      "midi": 65,
      "hit": false,
      "t": 129913.86080833377,
      "d": 327.86866666666174,
      "v": 95
    },
    {
      "midi": 46,
      "hit": false,
      "t": 129913.86080833377,
      "d": 1877.0481166666868,
      "v": 95
    },
    {
      "midi": 58,
      "hit": false,
      "t": 130405.66380833377,
      "d": 327.86866666666174,
      "v": 95
    },
    {
      "midi": 60,
      "hit": false,
      "t": 130405.66380833377,
      "d": 327.86866666666174,
      "v": 95
    },
    {
      "midi": 65,
      "hit": false,
      "t": 130405.66380833377,
      "d": 327.86866666666174,
      "v": 95
    },
    {
      "midi": 58,
      "hit": false,
      "t": 130897.46680833377,
      "d": 327.86866666666174,
      "v": 95
    },
    {
      "midi": 60,
      "hit": false,
      "t": 130897.46680833377,
      "d": 327.86866666666174,
      "v": 95
    },
    {
      "midi": 65,
      "hit": false,
      "t": 130897.46680833377,
      "d": 327.86866666666174,
      "v": 95
    },
    {
      "midi": 58,
      "hit": false,
      "t": 131389.26980833377,
      "d": 327.8686666666763,
      "v": 95
    },
    {
      "midi": 60,
      "hit": false,
      "t": 131389.26980833377,
      "d": 327.8686666666763,
      "v": 95
    },
    {
      "midi": 65,
      "hit": false,
      "t": 131389.26980833377,
      "d": 327.8686666666763,
      "v": 95
    },
    {
      "midi": 60,
      "hit": false,
      "t": 131881.0728083338,
      "d": 327.8686666666763,
      "v": 95
    },
    {
      "midi": 65,
      "hit": false,
      "t": 131881.0728083338,
      "d": 327.8686666666763,
      "v": 95
    },
    {
      "midi": 67,
      "hit": false,
      "t": 131881.0728083338,
      "d": 327.8686666666763,
      "v": 95
    },
    {
      "midi": 48,
      "hit": false,
      "t": 131881.0728083338,
      "d": 1905.7366250000487,
      "v": 95
    },
    {
      "midi": 60,
      "hit": false,
      "t": 132372.8758083338,
      "d": 327.8686666666763,
      "v": 95
    },
    {
      "midi": 65,
      "hit": false,
      "t": 132372.8758083338,
      "d": 327.8686666666763,
      "v": 95
    },
    {
      "midi": 67,
      "hit": false,
      "t": 132372.8758083338,
      "d": 327.8686666666763,
      "v": 95
    },
    {
      "midi": 60,
      "hit": false,
      "t": 132864.67880833382,
      "d": 327.8686666666763,
      "v": 95
    },
    {
      "midi": 65,
      "hit": false,
      "t": 132864.67880833382,
      "d": 327.8686666666763,
      "v": 95
    },
    {
      "midi": 67,
      "hit": false,
      "t": 132864.67880833382,
      "d": 327.8686666666763,
      "v": 95
    },
    {
      "midi": 60,
      "hit": false,
      "t": 133356.48180833383,
      "d": 327.8686666666763,
      "v": 95
    },
    {
      "midi": 65,
      "hit": false,
      "t": 133356.48180833383,
      "d": 327.8686666666763,
      "v": 95
    },
    {
      "midi": 67,
      "hit": false,
      "t": 133356.48180833383,
      "d": 327.8686666666763,
      "v": 95
    },
    {
      "midi": 58,
      "hit": false,
      "t": 133848.28480833385,
      "d": 327.8686666666763,
      "v": 95
    },
    {
      "midi": 62,
      "hit": false,
      "t": 133848.28480833385,
      "d": 327.8686666666763,
      "v": 95
    },
    {
      "midi": 65,
      "hit": false,
      "t": 133848.28480833385,
      "d": 327.8686666666763,
      "v": 95
    },
    {
      "midi": 67,
      "hit": false,
      "t": 133848.28480833385,
      "d": 331.96702500001993,
      "v": 95
    },
    {
      "midi": 43,
      "hit": false,
      "t": 133848.28480833385,
      "d": 1918.0317000000505,
      "v": 95
    },
    {
      "midi": 58,
      "hit": false,
      "t": 134340.08780833386,
      "d": 327.8686666666763,
      "v": 95
    },
    {
      "midi": 62,
      "hit": false,
      "t": 134340.08780833386,
      "d": 327.8686666666763,
      "v": 95
    },
    {
      "midi": 65,
      "hit": false,
      "t": 134340.08780833386,
      "d": 327.8686666666763,
      "v": 95
    },
    {
      "midi": 67,
      "hit": false,
      "t": 134340.08780833386,
      "d": 340.1637416666781,
      "v": 95
    },
    {
      "midi": 67,
      "hit": false,
      "t": 134831.89080833388,
      "d": 311.47523333333083,
      "v": 95
    },
    {
      "midi": 58,
      "hit": false,
      "t": 134831.89080833388,
      "d": 327.8686666666763,
      "v": 95
    },
    {
      "midi": 62,
      "hit": false,
      "t": 134831.89080833388,
      "d": 327.8686666666763,
      "v": 95
    },
    {
      "midi": 65,
      "hit": false,
      "t": 134831.89080833388,
      "d": 327.8686666666763,
      "v": 95
    },
    {
      "midi": 67,
      "hit": false,
      "t": 135323.6938083339,
      "d": 323.77030833333265,
      "v": 95
    },
    {
      "midi": 58,
      "hit": false,
      "t": 135323.6938083339,
      "d": 327.8686666666763,
      "v": 95
    },
    {
      "midi": 62,
      "hit": false,
      "t": 135323.6938083339,
      "d": 327.8686666666763,
      "v": 95
    },
    {
      "midi": 65,
      "hit": false,
      "t": 135323.6938083339,
      "d": 327.8686666666763,
      "v": 95
    },
    {
      "midi": 57,
      "hit": false,
      "t": 135815.4968083339,
      "d": 327.8686666666763,
      "v": 95
    },
    {
      "midi": 60,
      "hit": false,
      "t": 135815.4968083339,
      "d": 327.8686666666763,
      "v": 95
    },
    {
      "midi": 65,
      "hit": false,
      "t": 135815.4968083339,
      "d": 327.8686666666763,
      "v": 95
    },
    {
      "midi": 45,
      "hit": false,
      "t": 135815.4968083339,
      "d": 1930.3267750000523,
      "v": 95
    },
    {
      "midi": 57,
      "hit": false,
      "t": 136307.29980833392,
      "d": 327.8686666666763,
      "v": 95
    },
    {
      "midi": 60,
      "hit": false,
      "t": 136307.29980833392,
      "d": 327.8686666666763,
      "v": 95
    },
    {
      "midi": 65,
      "hit": false,
      "t": 136307.29980833392,
      "d": 327.8686666666763,
      "v": 95
    },
    {
      "midi": 57,
      "hit": false,
      "t": 136799.10280833393,
      "d": 327.8686666666763,
      "v": 95
    },
    {
      "midi": 60,
      "hit": false,
      "t": 136799.10280833393,
      "d": 327.8686666666763,
      "v": 95
    },
    {
      "midi": 65,
      "hit": false,
      "t": 136799.10280833393,
      "d": 327.8686666666763,
      "v": 95
    },
    {
      "midi": 57,
      "hit": false,
      "t": 137290.90580833395,
      "d": 327.8686666666763,
      "v": 95
    },
    {
      "midi": 60,
      "hit": false,
      "t": 137290.90580833395,
      "d": 327.8686666666763,
      "v": 95
    },
    {
      "midi": 65,
      "hit": false,
      "t": 137290.90580833395,
      "d": 327.8686666666763,
      "v": 95
    },
    {
      "midi": 58,
      "hit": false,
      "t": 137782.70880833396,
      "d": 3901.6371333333373,
      "v": 95
    },
    {
      "midi": 60,
      "hit": false,
      "t": 137782.70880833396,
      "d": 3905.735491666681,
      "v": 95
    },
    {
      "midi": 65,
      "hit": false,
      "t": 137782.70880833396,
      "d": 3905.735491666681,
      "v": 95
    },
    {
      "midi": 46,
      "hit": false,
      "t": 137782.70880833396,
      "d": 3913.932208333339,
      "v": 95
    },
    {
      "midi": 43,
      "hit": false,
      "t": 141717.13280833396,
      "d": 409.83583333334536,
      "v": 80
    },
    {
      "midi": 55,
      "hit": false,
      "t": 141717.13280833396,
      "d": 409.83583333334536,
      "v": 92
    },
    {
      "midi": 58,
      "hit": false,
      "t": 141717.13280833396,
      "d": 409.83583333334536,
      "v": 92
    },
    {
      "midi": 62,
      "hit": false,
      "t": 141717.13280833396,
      "d": 409.83583333334536,
      "v": 92
    },
    {
      "midi": 65,
      "hit": false,
      "t": 141717.13280833396,
      "d": 409.83583333334536,
      "v": 92
    },
    {
      "midi": 67,
      "hit": false,
      "t": 141717.13280833396,
      "d": 418.03255000000354,
      "v": 95
    },
    {
      "midi": 43,
      "hit": false,
      "t": 142208.93580833398,
      "d": 409.83583333334536,
      "v": 80
    },
    {
      "midi": 55,
      "hit": false,
      "t": 142208.93580833398,
      "d": 409.83583333334536,
      "v": 92
    },
    {
      "midi": 58,
      "hit": false,
      "t": 142208.93580833398,
      "d": 409.83583333334536,
      "v": 92
    },
    {
      "midi": 62,
      "hit": false,
      "t": 142208.93580833398,
      "d": 409.83583333334536,
      "v": 92
    },
    {
      "midi": 65,
      "hit": false,
      "t": 142208.93580833398,
      "d": 409.83583333334536,
      "v": 92
    },
    {
      "midi": 67,
      "hit": false,
      "t": 142208.93580833398,
      "d": 418.03255000000354,
      "v": 95
    },
    {
      "midi": 43,
      "hit": false,
      "t": 142700.738808334,
      "d": 409.83583333334536,
      "v": 80
    },
    {
      "midi": 55,
      "hit": false,
      "t": 142700.738808334,
      "d": 409.83583333334536,
      "v": 92
    },
    {
      "midi": 58,
      "hit": false,
      "t": 142700.738808334,
      "d": 409.83583333334536,
      "v": 92
    },
    {
      "midi": 62,
      "hit": false,
      "t": 142700.738808334,
      "d": 409.83583333334536,
      "v": 92
    },
    {
      "midi": 65,
      "hit": false,
      "t": 142700.738808334,
      "d": 409.83583333334536,
      "v": 92
    },
    {
      "midi": 67,
      "hit": false,
      "t": 142700.738808334,
      "d": 413.934191666689,
      "v": 95
    },
    {
      "midi": 43,
      "hit": false,
      "t": 143192.541808334,
      "d": 409.83583333334536,
      "v": 80
    },
    {
      "midi": 55,
      "hit": false,
      "t": 143192.541808334,
      "d": 409.83583333334536,
      "v": 92
    },
    {
      "midi": 58,
      "hit": false,
      "t": 143192.541808334,
      "d": 409.83583333334536,
      "v": 92
    },
    {
      "midi": 62,
      "hit": false,
      "t": 143192.541808334,
      "d": 409.83583333334536,
      "v": 92
    },
    {
      "midi": 65,
      "hit": false,
      "t": 143192.541808334,
      "d": 409.83583333334536,
      "v": 92
    },
    {
      "midi": 67,
      "hit": false,
      "t": 143192.541808334,
      "d": 430.32762500000536,
      "v": 95
    },
    {
      "midi": 48,
      "hit": false,
      "t": 143684.34480833402,
      "d": 409.83583333334536,
      "v": 80
    },
    {
      "midi": 55,
      "hit": false,
      "t": 143684.34480833402,
      "d": 409.83583333334536,
      "v": 92
    },
    {
      "midi": 58,
      "hit": false,
      "t": 143684.34480833402,
      "d": 409.83583333334536,
      "v": 92
    },
    {
      "midi": 60,
      "hit": false,
      "t": 143684.34480833402,
      "d": 409.83583333334536,
      "v": 92
    },
    {
      "midi": 64,
      "hit": false,
      "t": 143684.34480833402,
      "d": 409.83583333334536,
      "v": 92
    },
    {
      "midi": 48,
      "hit": false,
      "t": 144176.14780833403,
      "d": 409.83583333334536,
      "v": 80
    },
    {
      "midi": 55,
      "hit": false,
      "t": 144176.14780833403,
      "d": 409.83583333334536,
      "v": 92
    },
    {
      "midi": 58,
      "hit": false,
      "t": 144176.14780833403,
      "d": 409.83583333334536,
      "v": 92
    },
    {
      "midi": 60,
      "hit": false,
      "t": 144176.14780833403,
      "d": 409.83583333334536,
      "v": 92
    },
    {
      "midi": 64,
      "hit": false,
      "t": 144176.14780833403,
      "d": 409.83583333334536,
      "v": 92
    },
    {
      "midi": 48,
      "hit": false,
      "t": 144667.95080833405,
      "d": 409.83583333334536,
      "v": 80
    },
    {
      "midi": 55,
      "hit": false,
      "t": 144667.95080833405,
      "d": 409.83583333334536,
      "v": 92
    },
    {
      "midi": 58,
      "hit": false,
      "t": 144667.95080833405,
      "d": 409.83583333334536,
      "v": 92
    },
    {
      "midi": 60,
      "hit": false,
      "t": 144667.95080833405,
      "d": 409.83583333334536,
      "v": 92
    },
    {
      "midi": 64,
      "hit": false,
      "t": 144667.95080833405,
      "d": 409.83583333334536,
      "v": 92
    },
    {
      "midi": 46,
      "hit": false,
      "t": 145159.75380833406,
      "d": 409.83583333334536,
      "v": 80
    },
    {
      "midi": 55,
      "hit": false,
      "t": 145159.75380833406,
      "d": 409.83583333334536,
      "v": 92
    },
    {
      "midi": 58,
      "hit": false,
      "t": 145159.75380833406,
      "d": 409.83583333334536,
      "v": 92
    },
    {
      "midi": 60,
      "hit": false,
      "t": 145159.75380833406,
      "d": 409.83583333334536,
      "v": 92
    },
    {
      "midi": 64,
      "hit": false,
      "t": 145159.75380833406,
      "d": 409.83583333334536,
      "v": 92
    },
    {
      "midi": 45,
      "hit": false,
      "t": 145651.55680833408,
      "d": 409.83583333334536,
      "v": 80
    },
    {
      "midi": 57,
      "hit": false,
      "t": 145651.55680833408,
      "d": 409.83583333334536,
      "v": 92
    },
    {
      "midi": 60,
      "hit": false,
      "t": 145651.55680833408,
      "d": 409.83583333334536,
      "v": 92
    },
    {
      "midi": 65,
      "hit": false,
      "t": 145651.55680833408,
      "d": 409.83583333334536,
      "v": 92
    },
    {
      "midi": 45,
      "hit": false,
      "t": 146143.3598083341,
      "d": 409.83583333334536,
      "v": 80
    },
    {
      "midi": 57,
      "hit": false,
      "t": 146143.3598083341,
      "d": 409.83583333334536,
      "v": 92
    },
    {
      "midi": 60,
      "hit": false,
      "t": 146143.3598083341,
      "d": 409.83583333334536,
      "v": 92
    },
    {
      "midi": 65,
      "hit": false,
      "t": 146143.3598083341,
      "d": 409.83583333334536,
      "v": 92
    },
    {
      "midi": 45,
      "hit": false,
      "t": 146635.1628083341,
      "d": 409.83583333334536,
      "v": 80
    },
    {
      "midi": 57,
      "hit": false,
      "t": 146635.1628083341,
      "d": 409.83583333334536,
      "v": 92
    },
    {
      "midi": 60,
      "hit": false,
      "t": 146635.1628083341,
      "d": 409.83583333334536,
      "v": 92
    },
    {
      "midi": 65,
      "hit": false,
      "t": 146635.1628083341,
      "d": 409.83583333334536,
      "v": 92
    },
    {
      "midi": 45,
      "hit": false,
      "t": 147126.96580833412,
      "d": 409.83583333334536,
      "v": 80
    },
    {
      "midi": 57,
      "hit": false,
      "t": 147126.96580833412,
      "d": 409.83583333334536,
      "v": 92
    },
    {
      "midi": 60,
      "hit": false,
      "t": 147126.96580833412,
      "d": 409.83583333334536,
      "v": 92
    },
    {
      "midi": 65,
      "hit": false,
      "t": 147126.96580833412,
      "d": 409.83583333334536,
      "v": 92
    },
    {
      "midi": 46,
      "hit": false,
      "t": 147618.76880833413,
      "d": 409.83583333334536,
      "v": 80
    },
    {
      "midi": 58,
      "hit": false,
      "t": 147618.76880833413,
      "d": 409.83583333334536,
      "v": 92
    },
    {
      "midi": 60,
      "hit": false,
      "t": 147618.76880833413,
      "d": 409.83583333334536,
      "v": 92
    },
    {
      "midi": 65,
      "hit": false,
      "t": 147618.76880833413,
      "d": 409.83583333334536,
      "v": 92
    },
    {
      "midi": 46,
      "hit": false,
      "t": 148110.57180833415,
      "d": 409.83583333334536,
      "v": 80
    },
    {
      "midi": 58,
      "hit": false,
      "t": 148110.57180833415,
      "d": 409.83583333334536,
      "v": 92
    },
    {
      "midi": 60,
      "hit": false,
      "t": 148110.57180833415,
      "d": 409.83583333334536,
      "v": 92
    },
    {
      "midi": 65,
      "hit": false,
      "t": 148110.57180833415,
      "d": 409.83583333334536,
      "v": 92
    },
    {
      "midi": 46,
      "hit": false,
      "t": 148602.37480833416,
      "d": 409.83583333334536,
      "v": 80
    },
    {
      "midi": 58,
      "hit": false,
      "t": 148602.37480833416,
      "d": 409.83583333334536,
      "v": 92
    },
    {
      "midi": 60,
      "hit": false,
      "t": 148602.37480833416,
      "d": 409.83583333334536,
      "v": 92
    },
    {
      "midi": 65,
      "hit": false,
      "t": 148602.37480833416,
      "d": 409.83583333334536,
      "v": 92
    },
    {
      "midi": 42,
      "hit": false,
      "t": 149094.17780833418,
      "d": 409.83583333334536,
      "v": 80
    },
    {
      "midi": 57,
      "hit": false,
      "t": 149094.17780833418,
      "d": 409.83583333334536,
      "v": 92
    },
    {
      "midi": 60,
      "hit": false,
      "t": 149094.17780833418,
      "d": 409.83583333334536,
      "v": 92
    },
    {
      "midi": 66,
      "hit": false,
      "t": 149094.17780833418,
      "d": 409.83583333334536,
      "v": 92
    },
    {
      "midi": 43,
      "hit": false,
      "t": 149585.9808083342,
      "d": 409.83583333334536,
      "v": 80
    },
    {
      "midi": 55,
      "hit": false,
      "t": 149585.9808083342,
      "d": 409.83583333334536,
      "v": 92
    },
    {
      "midi": 58,
      "hit": false,
      "t": 149585.9808083342,
      "d": 409.83583333334536,
      "v": 92
    },
    {
      "midi": 62,
      "hit": false,
      "t": 149585.9808083342,
      "d": 409.83583333334536,
      "v": 92
    },
    {
      "midi": 65,
      "hit": false,
      "t": 149585.9808083342,
      "d": 409.83583333334536,
      "v": 92
    },
    {
      "midi": 67,
      "hit": false,
      "t": 149585.9808083342,
      "d": 418.03255000000354,
      "v": 95
    },
    {
      "midi": 43,
      "hit": false,
      "t": 150077.7838083342,
      "d": 409.83583333334536,
      "v": 80
    },
    {
      "midi": 55,
      "hit": false,
      "t": 150077.7838083342,
      "d": 409.83583333334536,
      "v": 92
    },
    {
      "midi": 58,
      "hit": false,
      "t": 150077.7838083342,
      "d": 409.83583333334536,
      "v": 92
    },
    {
      "midi": 62,
      "hit": false,
      "t": 150077.7838083342,
      "d": 409.83583333334536,
      "v": 92
    },
    {
      "midi": 65,
      "hit": false,
      "t": 150077.7838083342,
      "d": 409.83583333334536,
      "v": 92
    },
    {
      "midi": 67,
      "hit": false,
      "t": 150077.7838083342,
      "d": 418.03255000000354,
      "v": 95
    },
    {
      "midi": 43,
      "hit": false,
      "t": 150569.58680833422,
      "d": 409.83583333334536,
      "v": 80
    },
    {
      "midi": 55,
      "hit": false,
      "t": 150569.58680833422,
      "d": 409.83583333334536,
      "v": 92
    },
    {
      "midi": 58,
      "hit": false,
      "t": 150569.58680833422,
      "d": 409.83583333334536,
      "v": 92
    },
    {
      "midi": 62,
      "hit": false,
      "t": 150569.58680833422,
      "d": 409.83583333334536,
      "v": 92
    },
    {
      "midi": 65,
      "hit": false,
      "t": 150569.58680833422,
      "d": 409.83583333334536,
      "v": 92
    },
    {
      "midi": 67,
      "hit": false,
      "t": 150569.58680833422,
      "d": 413.934191666689,
      "v": 95
    },
    {
      "midi": 43,
      "hit": false,
      "t": 151061.38980833424,
      "d": 409.83583333334536,
      "v": 80
    },
    {
      "midi": 55,
      "hit": false,
      "t": 151061.38980833424,
      "d": 409.83583333334536,
      "v": 92
    },
    {
      "midi": 58,
      "hit": false,
      "t": 151061.38980833424,
      "d": 409.83583333334536,
      "v": 92
    },
    {
      "midi": 62,
      "hit": false,
      "t": 151061.38980833424,
      "d": 409.83583333334536,
      "v": 92
    },
    {
      "midi": 65,
      "hit": false,
      "t": 151061.38980833424,
      "d": 409.83583333334536,
      "v": 92
    },
    {
      "midi": 67,
      "hit": false,
      "t": 151061.38980833424,
      "d": 430.32762500000536,
      "v": 95
    },
    {
      "midi": 48,
      "hit": false,
      "t": 151553.19280833425,
      "d": 409.83583333334536,
      "v": 80
    },
    {
      "midi": 55,
      "hit": false,
      "t": 151553.19280833425,
      "d": 409.83583333334536,
      "v": 92
    },
    {
      "midi": 58,
      "hit": false,
      "t": 151553.19280833425,
      "d": 409.83583333334536,
      "v": 92
    },
    {
      "midi": 60,
      "hit": false,
      "t": 151553.19280833425,
      "d": 409.83583333334536,
      "v": 92
    },
    {
      "midi": 64,
      "hit": false,
      "t": 151553.19280833425,
      "d": 409.83583333334536,
      "v": 92
    },
    {
      "midi": 48,
      "hit": false,
      "t": 152044.99580833426,
      "d": 409.83583333334536,
      "v": 80
    },
    {
      "midi": 55,
      "hit": false,
      "t": 152044.99580833426,
      "d": 409.83583333334536,
      "v": 92
    },
    {
      "midi": 58,
      "hit": false,
      "t": 152044.99580833426,
      "d": 409.83583333334536,
      "v": 92
    },
    {
      "midi": 60,
      "hit": false,
      "t": 152044.99580833426,
      "d": 409.83583333334536,
      "v": 92
    },
    {
      "midi": 64,
      "hit": false,
      "t": 152044.99580833426,
      "d": 409.83583333334536,
      "v": 92
    },
    {
      "midi": 48,
      "hit": false,
      "t": 152536.79880833428,
      "d": 409.83583333334536,
      "v": 80
    },
    {
      "midi": 55,
      "hit": false,
      "t": 152536.79880833428,
      "d": 409.83583333334536,
      "v": 92
    },
    {
      "midi": 58,
      "hit": false,
      "t": 152536.79880833428,
      "d": 409.83583333334536,
      "v": 92
    },
    {
      "midi": 60,
      "hit": false,
      "t": 152536.79880833428,
      "d": 409.83583333334536,
      "v": 92
    },
    {
      "midi": 64,
      "hit": false,
      "t": 152536.79880833428,
      "d": 409.83583333334536,
      "v": 92
    },
    {
      "midi": 46,
      "hit": false,
      "t": 153028.6018083343,
      "d": 409.83583333334536,
      "v": 80
    },
    {
      "midi": 55,
      "hit": false,
      "t": 153028.6018083343,
      "d": 409.83583333334536,
      "v": 92
    },
    {
      "midi": 58,
      "hit": false,
      "t": 153028.6018083343,
      "d": 409.83583333334536,
      "v": 92
    },
    {
      "midi": 60,
      "hit": false,
      "t": 153028.6018083343,
      "d": 409.83583333334536,
      "v": 92
    },
    {
      "midi": 64,
      "hit": false,
      "t": 153028.6018083343,
      "d": 409.83583333334536,
      "v": 92
    },
    {
      "midi": 45,
      "hit": false,
      "t": 153520.4048083343,
      "d": 409.83583333334536,
      "v": 80
    },
    {
      "midi": 57,
      "hit": false,
      "t": 153520.4048083343,
      "d": 409.83583333334536,
      "v": 92
    },
    {
      "midi": 60,
      "hit": false,
      "t": 153520.4048083343,
      "d": 409.83583333334536,
      "v": 92
    },
    {
      "midi": 65,
      "hit": false,
      "t": 153520.4048083343,
      "d": 409.83583333334536,
      "v": 92
    },
    {
      "midi": 45,
      "hit": false,
      "t": 154012.20780833432,
      "d": 409.83583333334536,
      "v": 80
    },
    {
      "midi": 57,
      "hit": false,
      "t": 154012.20780833432,
      "d": 409.83583333334536,
      "v": 92
    },
    {
      "midi": 60,
      "hit": false,
      "t": 154012.20780833432,
      "d": 409.83583333334536,
      "v": 92
    },
    {
      "midi": 65,
      "hit": false,
      "t": 154012.20780833432,
      "d": 409.83583333334536,
      "v": 92
    },
    {
      "midi": 45,
      "hit": false,
      "t": 154504.01080833434,
      "d": 409.83583333334536,
      "v": 80
    },
    {
      "midi": 57,
      "hit": false,
      "t": 154504.01080833434,
      "d": 409.83583333334536,
      "v": 92
    },
    {
      "midi": 60,
      "hit": false,
      "t": 154504.01080833434,
      "d": 409.83583333334536,
      "v": 92
    },
    {
      "midi": 65,
      "hit": false,
      "t": 154504.01080833434,
      "d": 409.83583333334536,
      "v": 92
    },
    {
      "midi": 45,
      "hit": false,
      "t": 154995.81380833435,
      "d": 409.83583333334536,
      "v": 80
    },
    {
      "midi": 57,
      "hit": false,
      "t": 154995.81380833435,
      "d": 409.83583333334536,
      "v": 92
    },
    {
      "midi": 60,
      "hit": false,
      "t": 154995.81380833435,
      "d": 409.83583333334536,
      "v": 92
    },
    {
      "midi": 65,
      "hit": false,
      "t": 154995.81380833435,
      "d": 409.83583333334536,
      "v": 92
    },
    {
      "midi": 46,
      "hit": false,
      "t": 155487.61680833437,
      "d": 409.83583333334536,
      "v": 80
    },
    {
      "midi": 58,
      "hit": false,
      "t": 155487.61680833437,
      "d": 409.83583333334536,
      "v": 92
    },
    {
      "midi": 60,
      "hit": false,
      "t": 155487.61680833437,
      "d": 409.83583333334536,
      "v": 92
    },
    {
      "midi": 65,
      "hit": false,
      "t": 155487.61680833437,
      "d": 409.83583333334536,
      "v": 92
    },
    {
      "midi": 46,
      "hit": false,
      "t": 155979.41980833438,
      "d": 409.83583333334536,
      "v": 80
    },
    {
      "midi": 58,
      "hit": false,
      "t": 155979.41980833438,
      "d": 409.83583333334536,
      "v": 92
    },
    {
      "midi": 60,
      "hit": false,
      "t": 155979.41980833438,
      "d": 409.83583333334536,
      "v": 92
    },
    {
      "midi": 65,
      "hit": false,
      "t": 155979.41980833438,
      "d": 409.83583333334536,
      "v": 92
    },
    {
      "midi": 46,
      "hit": false,
      "t": 156471.2228083344,
      "d": 409.83583333334536,
      "v": 80
    },
    {
      "midi": 58,
      "hit": false,
      "t": 156471.2228083344,
      "d": 409.83583333334536,
      "v": 92
    },
    {
      "midi": 60,
      "hit": false,
      "t": 156471.2228083344,
      "d": 409.83583333334536,
      "v": 92
    },
    {
      "midi": 65,
      "hit": false,
      "t": 156471.2228083344,
      "d": 409.83583333334536,
      "v": 92
    },
    {
      "midi": 42,
      "hit": false,
      "t": 156963.0258083344,
      "d": 409.83583333334536,
      "v": 80
    },
    {
      "midi": 57,
      "hit": false,
      "t": 156963.0258083344,
      "d": 409.83583333334536,
      "v": 92
    },
    {
      "midi": 60,
      "hit": false,
      "t": 156963.0258083344,
      "d": 409.83583333334536,
      "v": 92
    },
    {
      "midi": 66,
      "hit": false,
      "t": 156963.0258083344,
      "d": 409.83583333334536,
      "v": 92
    },
    {
      "midi": 43,
      "hit": false,
      "t": 157454.82880833442,
      "d": 409.83583333334536,
      "v": 80
    },
    {
      "midi": 55,
      "hit": false,
      "t": 157454.82880833442,
      "d": 409.83583333334536,
      "v": 92
    },
    {
      "midi": 58,
      "hit": false,
      "t": 157454.82880833442,
      "d": 409.83583333334536,
      "v": 92
    },
    {
      "midi": 62,
      "hit": false,
      "t": 157454.82880833442,
      "d": 409.83583333334536,
      "v": 92
    },
    {
      "midi": 65,
      "hit": false,
      "t": 157454.82880833442,
      "d": 409.83583333334536,
      "v": 92
    },
    {
      "midi": 67,
      "hit": false,
      "t": 157454.82880833442,
      "d": 418.03255000000354,
      "v": 95
    },
    {
      "midi": 43,
      "hit": false,
      "t": 157946.63180833444,
      "d": 409.83583333334536,
      "v": 80
    },
    {
      "midi": 55,
      "hit": false,
      "t": 157946.63180833444,
      "d": 409.83583333334536,
      "v": 92
    },
    {
      "midi": 58,
      "hit": false,
      "t": 157946.63180833444,
      "d": 409.83583333334536,
      "v": 92
    },
    {
      "midi": 62,
      "hit": false,
      "t": 157946.63180833444,
      "d": 409.83583333334536,
      "v": 92
    },
    {
      "midi": 65,
      "hit": false,
      "t": 157946.63180833444,
      "d": 409.83583333334536,
      "v": 92
    },
    {
      "midi": 67,
      "hit": false,
      "t": 157946.63180833444,
      "d": 418.03255000000354,
      "v": 95
    },
    {
      "midi": 43,
      "hit": false,
      "t": 158438.43480833445,
      "d": 409.83583333334536,
      "v": 80
    },
    {
      "midi": 55,
      "hit": false,
      "t": 158438.43480833445,
      "d": 409.83583333334536,
      "v": 92
    },
    {
      "midi": 58,
      "hit": false,
      "t": 158438.43480833445,
      "d": 409.83583333334536,
      "v": 92
    },
    {
      "midi": 62,
      "hit": false,
      "t": 158438.43480833445,
      "d": 409.83583333334536,
      "v": 92
    },
    {
      "midi": 65,
      "hit": false,
      "t": 158438.43480833445,
      "d": 409.83583333334536,
      "v": 92
    },
    {
      "midi": 67,
      "hit": false,
      "t": 158438.43480833445,
      "d": 413.934191666689,
      "v": 95
    },
    {
      "midi": 43,
      "hit": false,
      "t": 158930.23780833447,
      "d": 409.83583333334536,
      "v": 80
    },
    {
      "midi": 55,
      "hit": false,
      "t": 158930.23780833447,
      "d": 409.83583333334536,
      "v": 92
    },
    {
      "midi": 58,
      "hit": false,
      "t": 158930.23780833447,
      "d": 409.83583333334536,
      "v": 92
    },
    {
      "midi": 62,
      "hit": false,
      "t": 158930.23780833447,
      "d": 409.83583333334536,
      "v": 92
    },
    {
      "midi": 65,
      "hit": false,
      "t": 158930.23780833447,
      "d": 409.83583333334536,
      "v": 92
    },
    {
      "midi": 67,
      "hit": false,
      "t": 158930.23780833447,
      "d": 430.32762500000536,
      "v": 95
    },
    {
      "midi": 45,
      "hit": false,
      "t": 159422.04080833448,
      "d": 409.83583333334536,
      "v": 80
    },
    {
      "midi": 57,
      "hit": false,
      "t": 159422.04080833448,
      "d": 409.83583333334536,
      "v": 92
    },
    {
      "midi": 60,
      "hit": false,
      "t": 159422.04080833448,
      "d": 409.83583333334536,
      "v": 92
    },
    {
      "midi": 65,
      "hit": false,
      "t": 159422.04080833448,
      "d": 409.83583333334536,
      "v": 92
    },
    {
      "midi": 45,
      "hit": false,
      "t": 159913.8438083345,
      "d": 409.83583333334536,
      "v": 80
    },
    {
      "midi": 57,
      "hit": false,
      "t": 159913.8438083345,
      "d": 409.83583333334536,
      "v": 92
    },
    {
      "midi": 60,
      "hit": false,
      "t": 159913.8438083345,
      "d": 409.83583333334536,
      "v": 92
    },
    {
      "midi": 65,
      "hit": false,
      "t": 159913.8438083345,
      "d": 409.83583333334536,
      "v": 92
    },
    {
      "midi": 45,
      "hit": false,
      "t": 160405.6468083345,
      "d": 409.83583333334536,
      "v": 80
    },
    {
      "midi": 57,
      "hit": false,
      "t": 160405.6468083345,
      "d": 409.83583333334536,
      "v": 92
    },
    {
      "midi": 60,
      "hit": false,
      "t": 160405.6468083345,
      "d": 409.83583333334536,
      "v": 92
    },
    {
      "midi": 65,
      "hit": false,
      "t": 160405.6468083345,
      "d": 409.83583333334536,
      "v": 92
    },
    {
      "midi": 45,
      "hit": false,
      "t": 160897.44980833452,
      "d": 409.83583333334536,
      "v": 80
    },
    {
      "midi": 57,
      "hit": false,
      "t": 160897.44980833452,
      "d": 409.83583333334536,
      "v": 92
    },
    {
      "midi": 60,
      "hit": false,
      "t": 160897.44980833452,
      "d": 409.83583333334536,
      "v": 92
    },
    {
      "midi": 65,
      "hit": false,
      "t": 160897.44980833452,
      "d": 409.83583333334536,
      "v": 92
    },
    {
      "midi": 50,
      "hit": false,
      "t": 161389.25280833454,
      "d": 409.83583333334536,
      "v": 80
    },
    {
      "midi": 62,
      "hit": false,
      "t": 161389.25280833454,
      "d": 409.83583333334536,
      "v": 92
    },
    {
      "midi": 65,
      "hit": false,
      "t": 161389.25280833454,
      "d": 409.83583333334536,
      "v": 92
    },
    {
      "midi": 69,
      "hit": false,
      "t": 161389.25280833454,
      "d": 409.83583333334536,
      "v": 92
    },
    {
      "midi": 50,
      "hit": false,
      "t": 161881.05580833455,
      "d": 409.83583333334536,
      "v": 80
    },
    {
      "midi": 62,
      "hit": false,
      "t": 161881.05580833455,
      "d": 409.83583333334536,
      "v": 92
    },
    {
      "midi": 65,
      "hit": false,
      "t": 161881.05580833455,
      "d": 409.83583333334536,
      "v": 92
    },
    {
      "midi": 69,
      "hit": false,
      "t": 161881.05580833455,
      "d": 409.83583333334536,
      "v": 92
    },
    {
      "midi": 50,
      "hit": false,
      "t": 162372.85880833457,
      "d": 409.83583333334536,
      "v": 80
    },
    {
      "midi": 62,
      "hit": false,
      "t": 162372.85880833457,
      "d": 409.83583333334536,
      "v": 92
    },
    {
      "midi": 65,
      "hit": false,
      "t": 162372.85880833457,
      "d": 409.83583333334536,
      "v": 92
    },
    {
      "midi": 69,
      "hit": false,
      "t": 162372.85880833457,
      "d": 409.83583333334536,
      "v": 92
    },
    {
      "midi": 48,
      "hit": false,
      "t": 162864.66180833458,
      "d": 409.83583333334536,
      "v": 80
    },
    {
      "midi": 60,
      "hit": false,
      "t": 162864.66180833458,
      "d": 409.83583333334536,
      "v": 92
    },
    {
      "midi": 65,
      "hit": false,
      "t": 162864.66180833458,
      "d": 409.83583333334536,
      "v": 92
    },
    {
      "midi": 69,
      "hit": false,
      "t": 162864.66180833458,
      "d": 409.83583333334536,
      "v": 92
    },
    {
      "midi": 47,
      "hit": false,
      "t": 163356.4648083346,
      "d": 409.83583333334536,
      "v": 80
    },
    {
      "midi": 59,
      "hit": false,
      "t": 163356.4648083346,
      "d": 409.83583333334536,
      "v": 92
    },
    {
      "midi": 62,
      "hit": false,
      "t": 163356.4648083346,
      "d": 409.83583333334536,
      "v": 92
    },
    {
      "midi": 65,
      "hit": false,
      "t": 163356.4648083346,
      "d": 409.83583333334536,
      "v": 92
    },
    {
      "midi": 47,
      "hit": false,
      "t": 163848.2678083346,
      "d": 409.83583333334536,
      "v": 80
    },
    {
      "midi": 59,
      "hit": false,
      "t": 163848.2678083346,
      "d": 409.83583333334536,
      "v": 92
    },
    {
      "midi": 62,
      "hit": false,
      "t": 163848.2678083346,
      "d": 409.83583333334536,
      "v": 92
    },
    {
      "midi": 65,
      "hit": false,
      "t": 163848.2678083346,
      "d": 409.83583333334536,
      "v": 92
    },
    {
      "midi": 43,
      "hit": false,
      "t": 164340.07080833463,
      "d": 409.83583333334536,
      "v": 80
    },
    {
      "midi": 59,
      "hit": false,
      "t": 164340.07080833463,
      "d": 409.83583333334536,
      "v": 92
    },
    {
      "midi": 62,
      "hit": false,
      "t": 164340.07080833463,
      "d": 409.83583333334536,
      "v": 92
    },
    {
      "midi": 65,
      "hit": false,
      "t": 164340.07080833463,
      "d": 409.83583333334536,
      "v": 92
    },
    {
      "midi": 43,
      "hit": false,
      "t": 164831.87380833464,
      "d": 409.83583333334536,
      "v": 80
    },
    {
      "midi": 59,
      "hit": false,
      "t": 164831.87380833464,
      "d": 409.83583333334536,
      "v": 92
    },
    {
      "midi": 62,
      "hit": false,
      "t": 164831.87380833464,
      "d": 409.83583333334536,
      "v": 92
    },
    {
      "midi": 65,
      "hit": false,
      "t": 164831.87380833464,
      "d": 409.83583333334536,
      "v": 92
    },
    {
      "midi": 58,
      "hit": false,
      "t": 165323.67680833465,
      "d": 926.2289833333343,
      "v": 92
    },
    {
      "midi": 46,
      "hit": false,
      "t": 165323.67680833465,
      "d": 942.6224166666798,
      "v": 80
    },
    {
      "midi": 60,
      "hit": false,
      "t": 165323.67680833465,
      "d": 942.6224166666798,
      "v": 92
    },
    {
      "midi": 65,
      "hit": false,
      "t": 165323.67680833465,
      "d": 942.6224166666798,
      "v": 92
    },
    {
      "midi": 60,
      "hit": false,
      "t": 166307.28280833465,
      "d": 946.7207749999943,
      "v": 92
    },
    {
      "midi": 65,
      "hit": false,
      "t": 166307.28280833465,
      "d": 954.9174916666525,
      "v": 92
    },
    {
      "midi": 46,
      "hit": false,
      "t": 166307.28280833465,
      "d": 959.0158499999961,
      "v": 80
    },
    {
      "midi": 58,
      "hit": false,
      "t": 166307.28280833465,
      "d": 963.1142083333398,
      "v": 92
    },
    {
      "midi": 60,
      "hit": false,
      "t": 167290.88880833465,
      "d": 1909.834983333334,
      "v": 92
    },
    {
      "midi": 64,
      "hit": false,
      "t": 167290.88880833465,
      "d": 1913.9333416666777,
      "v": 92
    },
    {
      "midi": 55,
      "hit": false,
      "t": 167290.88880833465,
      "d": 1926.2284166666795,
      "v": 92
    },
    {
      "midi": 48,
      "hit": false,
      "t": 167290.88880833465,
      "d": 1934.4251333333377,
      "v": 80
    },
    {
      "midi": 57,
      "hit": false,
      "t": 169258.10080833465,
      "d": 327.8686666666763,
      "v": 87
    },
    {
      "midi": 62,
      "hit": false,
      "t": 169258.10080833465,
      "d": 327.8686666666763,
      "v": 87
    },
    {
      "midi": 65,
      "hit": false,
      "t": 169258.10080833465,
      "d": 327.8686666666763,
      "v": 87
    },
    {
      "midi": 38,
      "hit": false,
      "t": 169258.10080833465,
      "d": 1549.1794500000542,
      "v": 87
    },
    {
      "midi": 50,
      "hit": false,
      "t": 169258.10080833465,
      "d": 1561.474525000056,
      "v": 87
    },
    {
      "midi": 57,
      "hit": false,
      "t": 169749.90380833467,
      "d": 327.8686666666763,
      "v": 87
    },
    {
      "midi": 62,
      "hit": false,
      "t": 169749.90380833467,
      "d": 327.8686666666763,
      "v": 87
    },
    {
      "midi": 65,
      "hit": false,
      "t": 169749.90380833467,
      "d": 327.8686666666763,
      "v": 87
    },
    {
      "midi": 57,
      "hit": false,
      "t": 170241.70680833468,
      "d": 327.8686666666763,
      "v": 87
    },
    {
      "midi": 62,
      "hit": false,
      "t": 170241.70680833468,
      "d": 327.8686666666763,
      "v": 87
    },
    {
      "midi": 65,
      "hit": false,
      "t": 170241.70680833468,
      "d": 327.8686666666763,
      "v": 87
    },
    {
      "midi": 57,
      "hit": false,
      "t": 170733.5098083347,
      "d": 327.8686666666763,
      "v": 87
    },
    {
      "midi": 62,
      "hit": false,
      "t": 170733.5098083347,
      "d": 327.8686666666763,
      "v": 87
    },
    {
      "midi": 65,
      "hit": false,
      "t": 170733.5098083347,
      "d": 327.8686666666763,
      "v": 87
    },
    {
      "midi": 38,
      "hit": false,
      "t": 171061.37847500137,
      "d": 159.8359749999945,
      "v": 87
    },
    {
      "midi": 50,
      "hit": false,
      "t": 171061.37847500137,
      "d": 176.22940833333996,
      "v": 87
    },
    {
      "midi": 57,
      "hit": false,
      "t": 171225.3128083347,
      "d": 327.8686666666763,
      "v": 87
    },
    {
      "midi": 60,
      "hit": false,
      "t": 171225.3128083347,
      "d": 327.8686666666763,
      "v": 87
    },
    {
      "midi": 64,
      "hit": false,
      "t": 171225.3128083347,
      "d": 327.8686666666763,
      "v": 87
    },
    {
      "midi": 45,
      "hit": false,
      "t": 171225.3128083347,
      "d": 1606.5564666667196,
      "v": 87
    },
    {
      "midi": 57,
      "hit": false,
      "t": 171717.11580833473,
      "d": 327.8686666666763,
      "v": 87
    },
    {
      "midi": 60,
      "hit": false,
      "t": 171717.11580833473,
      "d": 327.8686666666763,
      "v": 87
    },
    {
      "midi": 64,
      "hit": false,
      "t": 171717.11580833473,
      "d": 327.8686666666763,
      "v": 87
    },
    {
      "midi": 57,
      "hit": false,
      "t": 172208.91880833474,
      "d": 327.8686666666763,
      "v": 87
    },
    {
      "midi": 60,
      "hit": false,
      "t": 172208.91880833474,
      "d": 327.8686666666763,
      "v": 87
    },
    {
      "midi": 64,
      "hit": false,
      "t": 172208.91880833474,
      "d": 327.8686666666763,
      "v": 87
    },
    {
      "midi": 57,
      "hit": false,
      "t": 172700.72180833475,
      "d": 327.8686666666763,
      "v": 87
    },
    {
      "midi": 60,
      "hit": false,
      "t": 172700.72180833475,
      "d": 327.8686666666763,
      "v": 87
    },
    {
      "midi": 64,
      "hit": false,
      "t": 172700.72180833475,
      "d": 327.8686666666763,
      "v": 87
    },
    {
      "midi": 45,
      "hit": false,
      "t": 173028.59047500143,
      "d": 159.8359749999945,
      "v": 87
    },
    {
      "midi": 58,
      "hit": false,
      "t": 173192.52480833477,
      "d": 327.8686666666763,
      "v": 87
    },
    {
      "midi": 60,
      "hit": false,
      "t": 173192.52480833477,
      "d": 327.8686666666763,
      "v": 87
    },
    {
      "midi": 65,
      "hit": false,
      "t": 173192.52480833477,
      "d": 327.8686666666763,
      "v": 87
    },
    {
      "midi": 46,
      "hit": false,
      "t": 173192.52480833477,
      "d": 1602.458108333376,
      "v": 87
    },
    {
      "midi": 58,
      "hit": false,
      "t": 173684.32780833478,
      "d": 327.8686666666763,
      "v": 87
    },
    {
      "midi": 60,
      "hit": false,
      "t": 173684.32780833478,
      "d": 327.8686666666763,
      "v": 87
    },
    {
      "midi": 65,
      "hit": false,
      "t": 173684.32780833478,
      "d": 327.8686666666763,
      "v": 87
    },
    {
      "midi": 58,
      "hit": false,
      "t": 174176.1308083348,
      "d": 327.8686666666763,
      "v": 87
    },
    {
      "midi": 60,
      "hit": false,
      "t": 174176.1308083348,
      "d": 327.8686666666763,
      "v": 87
    },
    {
      "midi": 65,
      "hit": false,
      "t": 174176.1308083348,
      "d": 327.8686666666763,
      "v": 87
    },
    {
      "midi": 58,
      "hit": false,
      "t": 174667.9338083348,
      "d": 327.8686666666763,
      "v": 87
    },
    {
      "midi": 60,
      "hit": false,
      "t": 174667.9338083348,
      "d": 327.8686666666763,
      "v": 87
    },
    {
      "midi": 65,
      "hit": false,
      "t": 174667.9338083348,
      "d": 327.8686666666763,
      "v": 87
    },
    {
      "midi": 46,
      "hit": false,
      "t": 174995.8024750015,
      "d": 209.01627500000177,
      "v": 87
    },
    {
      "midi": 57,
      "hit": false,
      "t": 175159.73680833483,
      "d": 327.8686666666763,
      "v": 87
    },
    {
      "midi": 60,
      "hit": false,
      "t": 175159.73680833483,
      "d": 327.8686666666763,
      "v": 87
    },
    {
      "midi": 65,
      "hit": false,
      "t": 175159.73680833483,
      "d": 327.8686666666763,
      "v": 87
    },
    {
      "midi": 41,
      "hit": false,
      "t": 175159.73680833483,
      "d": 930.327341666678,
      "v": 87
    },
    {
      "midi": 57,
      "hit": false,
      "t": 175651.53980833484,
      "d": 327.8686666666763,
      "v": 87
    },
    {
      "midi": 60,
      "hit": false,
      "t": 175651.53980833484,
      "d": 327.8686666666763,
      "v": 87
    },
    {
      "midi": 65,
      "hit": false,
      "t": 175651.53980833484,
      "d": 327.8686666666763,
      "v": 87
    },
    {
      "midi": 55,
      "hit": false,
      "t": 176143.34280833483,
      "d": 327.8686666666763,
      "v": 87
    },
    {
      "midi": 60,
      "hit": false,
      "t": 176143.34280833483,
      "d": 327.8686666666763,
      "v": 87
    },
    {
      "midi": 64,
      "hit": false,
      "t": 176143.34280833483,
      "d": 327.8686666666763,
      "v": 87
    },
    {
      "midi": 40,
      "hit": false,
      "t": 176143.34280833483,
      "d": 610.655391666689,
      "v": 87
    },
    {
      "midi": 55,
      "hit": false,
      "t": 176635.14580833484,
      "d": 327.8686666666763,
      "v": 87
    },
    {
      "midi": 60,
      "hit": false,
      "t": 176635.14580833484,
      "d": 327.8686666666763,
      "v": 87
    },
    {
      "midi": 64,
      "hit": false,
      "t": 176635.14580833484,
      "d": 327.8686666666763,
      "v": 87
    },
    {
      "midi": 40,
      "hit": false,
      "t": 176963.01447500152,
      "d": 172.13104999999632,
      "v": 87
    },
    {
      "midi": 57,
      "hit": false,
      "t": 177126.94880833486,
      "d": 327.8686666666472,
      "v": 87
    },
    {
      "midi": 62,
      "hit": false,
      "t": 177126.94880833486,
      "d": 327.8686666666472,
      "v": 87
    },
    {
      "midi": 65,
      "hit": false,
      "t": 177126.94880833486,
      "d": 327.8686666666472,
      "v": 87
    },
    {
      "midi": 38,
      "hit": false,
      "t": 177126.94880833486,
      "d": 1549.179450000025,
      "v": 87
    },
    {
      "midi": 50,
      "hit": false,
      "t": 177126.94880833486,
      "d": 1561.474525000027,
      "v": 87
    },
    {
      "midi": 57,
      "hit": false,
      "t": 177618.75180833484,
      "d": 327.8686666666763,
      "v": 87
    },
    {
      "midi": 62,
      "hit": false,
      "t": 177618.75180833484,
      "d": 327.8686666666763,
      "v": 87
    },
    {
      "midi": 65,
      "hit": false,
      "t": 177618.75180833484,
      "d": 327.8686666666763,
      "v": 87
    },
    {
      "midi": 57,
      "hit": false,
      "t": 178110.55480833485,
      "d": 327.8686666666763,
      "v": 87
    },
    {
      "midi": 62,
      "hit": false,
      "t": 178110.55480833485,
      "d": 327.8686666666763,
      "v": 87
    },
    {
      "midi": 65,
      "hit": false,
      "t": 178110.55480833485,
      "d": 327.8686666666763,
      "v": 87
    },
    {
      "midi": 57,
      "hit": false,
      "t": 178602.35780833487,
      "d": 327.8686666666763,
      "v": 87
    },
    {
      "midi": 62,
      "hit": false,
      "t": 178602.35780833487,
      "d": 327.8686666666763,
      "v": 87
    },
    {
      "midi": 65,
      "hit": false,
      "t": 178602.35780833487,
      "d": 327.8686666666763,
      "v": 87
    },
    {
      "midi": 38,
      "hit": false,
      "t": 178930.22647500155,
      "d": 159.8359749999945,
      "v": 87
    },
    {
      "midi": 50,
      "hit": false,
      "t": 178930.22647500155,
      "d": 176.22940833333996,
      "v": 87
    },
    {
      "midi": 57,
      "hit": false,
      "t": 179094.16080833488,
      "d": 327.8686666666763,
      "v": 87
    },
    {
      "midi": 60,
      "hit": false,
      "t": 179094.16080833488,
      "d": 327.8686666666763,
      "v": 87
    },
    {
      "midi": 64,
      "hit": false,
      "t": 179094.16080833488,
      "d": 327.8686666666763,
      "v": 87
    },
    {
      "midi": 45,
      "hit": false,
      "t": 179094.16080833488,
      "d": 1606.5564666667196,
      "v": 87
    },
    {
      "midi": 57,
      "hit": false,
      "t": 179585.9638083349,
      "d": 327.8686666666763,
      "v": 87
    },
    {
      "midi": 60,
      "hit": false,
      "t": 179585.9638083349,
      "d": 327.8686666666763,
      "v": 87
    },
    {
      "midi": 64,
      "hit": false,
      "t": 179585.9638083349,
      "d": 327.8686666666763,
      "v": 87
    },
    {
      "midi": 57,
      "hit": false,
      "t": 180077.7668083349,
      "d": 327.8686666666763,
      "v": 87
    },
    {
      "midi": 60,
      "hit": false,
      "t": 180077.7668083349,
      "d": 327.8686666666763,
      "v": 87
    },
    {
      "midi": 64,
      "hit": false,
      "t": 180077.7668083349,
      "d": 327.8686666666763,
      "v": 87
    },
    {
      "midi": 57,
      "hit": false,
      "t": 180569.56980833493,
      "d": 327.8686666666763,
      "v": 87
    },
    {
      "midi": 60,
      "hit": false,
      "t": 180569.56980833493,
      "d": 327.8686666666763,
      "v": 87
    },
    {
      "midi": 64,
      "hit": false,
      "t": 180569.56980833493,
      "d": 327.8686666666763,
      "v": 87
    },
    {
      "midi": 45,
      "hit": false,
      "t": 180897.4384750016,
      "d": 159.8359749999945,
      "v": 87
    },
    {
      "midi": 58,
      "hit": false,
      "t": 181061.37280833494,
      "d": 327.8686666666763,
      "v": 87
    },
    {
      "midi": 60,
      "hit": false,
      "t": 181061.37280833494,
      "d": 327.8686666666763,
      "v": 87
    },
    {
      "midi": 65,
      "hit": false,
      "t": 181061.37280833494,
      "d": 327.8686666666763,
      "v": 87
    },
    {
      "midi": 46,
      "hit": false,
      "t": 181061.37280833494,
      "d": 1602.458108333376,
      "v": 87
    },
    {
      "midi": 58,
      "hit": false,
      "t": 181553.17580833496,
      "d": 327.8686666666763,
      "v": 87
    },
    {
      "midi": 60,
      "hit": false,
      "t": 181553.17580833496,
      "d": 327.8686666666763,
      "v": 87
    },
    {
      "midi": 65,
      "hit": false,
      "t": 181553.17580833496,
      "d": 327.8686666666763,
      "v": 87
    },
    {
      "midi": 58,
      "hit": false,
      "t": 182044.97880833497,
      "d": 327.8686666666763,
      "v": 87
    },
    {
      "midi": 60,
      "hit": false,
      "t": 182044.97880833497,
      "d": 327.8686666666763,
      "v": 87
    },
    {
      "midi": 65,
      "hit": false,
      "t": 182044.97880833497,
      "d": 327.8686666666763,
      "v": 87
    },
    {
      "midi": 58,
      "hit": false,
      "t": 182536.78180833498,
      "d": 327.8686666666763,
      "v": 87
    },
    {
      "midi": 60,
      "hit": false,
      "t": 182536.78180833498,
      "d": 327.8686666666763,
      "v": 87
    },
    {
      "midi": 65,
      "hit": false,
      "t": 182536.78180833498,
      "d": 327.8686666666763,
      "v": 87
    },
    {
      "midi": 46,
      "hit": false,
      "t": 182864.65047500166,
      "d": 209.01627500000177,
      "v": 87
    },
    {
      "midi": 57,
      "hit": false,
      "t": 183028.584808335,
      "d": 327.8686666666763,
      "v": 87
    },
    {
      "midi": 60,
      "hit": false,
      "t": 183028.584808335,
      "d": 327.8686666666763,
      "v": 87
    },
    {
      "midi": 65,
      "hit": false,
      "t": 183028.584808335,
      "d": 327.8686666666763,
      "v": 87
    },
    {
      "midi": 41,
      "hit": false,
      "t": 183028.584808335,
      "d": 930.327341666678,
      "v": 87
    },
    {
      "midi": 57,
      "hit": false,
      "t": 183520.387808335,
      "d": 327.8686666666763,
      "v": 87
    },
    {
      "midi": 60,
      "hit": false,
      "t": 183520.387808335,
      "d": 327.8686666666763,
      "v": 87
    },
    {
      "midi": 65,
      "hit": false,
      "t": 183520.387808335,
      "d": 327.8686666666763,
      "v": 87
    },
    {
      "midi": 55,
      "hit": false,
      "t": 184012.190808335,
      "d": 327.8686666666763,
      "v": 87
    },
    {
      "midi": 60,
      "hit": false,
      "t": 184012.190808335,
      "d": 327.8686666666763,
      "v": 87
    },
    {
      "midi": 64,
      "hit": false,
      "t": 184012.190808335,
      "d": 327.8686666666763,
      "v": 87
    },
    {
      "midi": 40,
      "hit": false,
      "t": 184012.190808335,
      "d": 610.655391666689,
      "v": 87
    },
    {
      "midi": 55,
      "hit": false,
      "t": 184503.993808335,
      "d": 327.8686666666763,
      "v": 87
    },
    {
      "midi": 60,
      "hit": false,
      "t": 184503.993808335,
      "d": 327.8686666666763,
      "v": 87
    },
    {
      "midi": 64,
      "hit": false,
      "t": 184503.993808335,
      "d": 327.8686666666763,
      "v": 87
    },
    {
      "midi": 40,
      "hit": false,
      "t": 184831.8624750017,
      "d": 172.13104999999632,
      "v": 87
    },
    {
      "midi": 57,
      "hit": false,
      "t": 184995.79680833503,
      "d": 327.8686666666472,
      "v": 87
    },
    {
      "midi": 62,
      "hit": false,
      "t": 184995.79680833503,
      "d": 327.8686666666472,
      "v": 87
    },
    {
      "midi": 65,
      "hit": false,
      "t": 184995.79680833503,
      "d": 327.8686666666472,
      "v": 87
    },
    {
      "midi": 38,
      "hit": false,
      "t": 184995.79680833503,
      "d": 1549.179450000025,
      "v": 87
    },
    {
      "midi": 50,
      "hit": false,
      "t": 184995.79680833503,
      "d": 1561.474525000027,
      "v": 87
    },
    {
      "midi": 57,
      "hit": false,
      "t": 185487.599808335,
      "d": 327.8686666666763,
      "v": 87
    },
    {
      "midi": 62,
      "hit": false,
      "t": 185487.599808335,
      "d": 327.8686666666763,
      "v": 87
    },
    {
      "midi": 65,
      "hit": false,
      "t": 185487.599808335,
      "d": 327.8686666666763,
      "v": 87
    },
    {
      "midi": 57,
      "hit": false,
      "t": 185979.40280833503,
      "d": 327.8686666666763,
      "v": 87
    },
    {
      "midi": 62,
      "hit": false,
      "t": 185979.40280833503,
      "d": 327.8686666666763,
      "v": 87
    },
    {
      "midi": 65,
      "hit": false,
      "t": 185979.40280833503,
      "d": 327.8686666666763,
      "v": 87
    },
    {
      "midi": 57,
      "hit": false,
      "t": 186471.20580833504,
      "d": 327.8686666666763,
      "v": 87
    },
    {
      "midi": 62,
      "hit": false,
      "t": 186471.20580833504,
      "d": 327.8686666666763,
      "v": 87
    },
    {
      "midi": 65,
      "hit": false,
      "t": 186471.20580833504,
      "d": 327.8686666666763,
      "v": 87
    },
    {
      "midi": 38,
      "hit": false,
      "t": 186799.07447500172,
      "d": 159.8359749999945,
      "v": 87
    },
    {
      "midi": 50,
      "hit": false,
      "t": 186799.07447500172,
      "d": 176.22940833333996,
      "v": 87
    },
    {
      "midi": 57,
      "hit": false,
      "t": 186963.00880833506,
      "d": 327.8686666666763,
      "v": 87
    },
    {
      "midi": 61,
      "hit": false,
      "t": 186963.00880833506,
      "d": 327.8686666666763,
      "v": 87
    },
    {
      "midi": 64,
      "hit": false,
      "t": 186963.00880833506,
      "d": 327.8686666666763,
      "v": 87
    },
    {
      "midi": 45,
      "hit": false,
      "t": 186963.00880833506,
      "d": 1606.5564666667196,
      "v": 87
    },
    {
      "midi": 57,
      "hit": false,
      "t": 187454.81180833507,
      "d": 327.8686666666763,
      "v": 87
    },
    {
      "midi": 61,
      "hit": false,
      "t": 187454.81180833507,
      "d": 327.8686666666763,
      "v": 87
    },
    {
      "midi": 64,
      "hit": false,
      "t": 187454.81180833507,
      "d": 327.8686666666763,
      "v": 87
    },
    {
      "midi": 57,
      "hit": false,
      "t": 187946.61480833509,
      "d": 327.8686666666763,
      "v": 87
    },
    {
      "midi": 61,
      "hit": false,
      "t": 187946.61480833509,
      "d": 327.8686666666763,
      "v": 87
    },
    {
      "midi": 64,
      "hit": false,
      "t": 187946.61480833509,
      "d": 327.8686666666763,
      "v": 87
    },
    {
      "midi": 57,
      "hit": false,
      "t": 188438.4178083351,
      "d": 327.8686666666763,
      "v": 87
    },
    {
      "midi": 61,
      "hit": false,
      "t": 188438.4178083351,
      "d": 327.8686666666763,
      "v": 87
    },
    {
      "midi": 64,
      "hit": false,
      "t": 188438.4178083351,
      "d": 327.8686666666763,
      "v": 87
    },
    {
      "midi": 45,
      "hit": false,
      "t": 188766.28647500178,
      "d": 159.8359749999945,
      "v": 87
    },
    {
      "midi": 58,
      "hit": false,
      "t": 188930.2208083351,
      "d": 327.8686666666763,
      "v": 87
    },
    {
      "midi": 60,
      "hit": false,
      "t": 188930.2208083351,
      "d": 327.8686666666763,
      "v": 87
    },
    {
      "midi": 65,
      "hit": false,
      "t": 188930.2208083351,
      "d": 327.8686666666763,
      "v": 87
    },
    {
      "midi": 46,
      "hit": false,
      "t": 188930.2208083351,
      "d": 1602.458108333376,
      "v": 87
    },
    {
      "midi": 58,
      "hit": false,
      "t": 189422.02380833513,
      "d": 327.8686666666763,
      "v": 87
    },
    {
      "midi": 60,
      "hit": false,
      "t": 189422.02380833513,
      "d": 327.8686666666763,
      "v": 87
    },
    {
      "midi": 65,
      "hit": false,
      "t": 189422.02380833513,
      "d": 327.8686666666763,
      "v": 87
    },
    {
      "midi": 58,
      "hit": false,
      "t": 189913.82680833514,
      "d": 327.8686666666763,
      "v": 87
    },
    {
      "midi": 60,
      "hit": false,
      "t": 189913.82680833514,
      "d": 327.8686666666763,
      "v": 87
    },
    {
      "midi": 65,
      "hit": false,
      "t": 189913.82680833514,
      "d": 327.8686666666763,
      "v": 87
    },
    {
      "midi": 58,
      "hit": false,
      "t": 190405.62980833516,
      "d": 327.8686666666763,
      "v": 87
    },
    {
      "midi": 60,
      "hit": false,
      "t": 190405.62980833516,
      "d": 327.8686666666763,
      "v": 87
    },
    {
      "midi": 65,
      "hit": false,
      "t": 190405.62980833516,
      "d": 327.8686666666763,
      "v": 87
    },
    {
      "midi": 46,
      "hit": false,
      "t": 190733.49847500183,
      "d": 209.01627500003087,
      "v": 87
    },
    {
      "midi": 48,
      "hit": false,
      "t": 190909.72788333517,
      "d": 3659.833991666703,
      "v": 87
    },
    {
      "midi": 55,
      "hit": false,
      "t": 190913.82624166852,
      "d": 3655.735633333359,
      "v": 87
    },
    {
      "midi": 60,
      "hit": false,
      "t": 190917.92460000186,
      "d": 3622.9487666666682,
      "v": 87
    },
    {
      "midi": 64,
      "hit": false,
      "t": 190917.92460000186,
      "d": 3635.24384166667,
      "v": 87
    },
    {
      "midi": 67,
      "hit": false,
      "t": 190917.92460000186,
      "d": 3635.24384166667,
      "v": 87
    },
    {
      "midi": 53,
      "hit": false,
      "t": 194626.93889166854,
      "d": 188.52448333334178,
      "v": 90
    },
    {
      "midi": 41,
      "hit": false,
      "t": 194639.23396666854,
      "d": 196.72120000002906,
      "v": 90
    },
    {
      "midi": 31,
      "hit": false,
      "t": 194831.85680833523,
      "d": 327.8686666666763,
      "v": 96
    },
    {
      "midi": 43,
      "hit": false,
      "t": 194831.85680833523,
      "d": 327.8686666666763,
      "v": 96
    },
    {
      "midi": 55,
      "hit": false,
      "t": 194831.85680833523,
      "d": 327.8686666666763,
      "v": 96
    },
    {
      "midi": 58,
      "hit": false,
      "t": 194831.85680833523,
      "d": 327.8686666666763,
      "v": 96
    },
    {
      "midi": 62,
      "hit": false,
      "t": 194831.85680833523,
      "d": 327.8686666666763,
      "v": 96
    },
    {
      "midi": 65,
      "hit": false,
      "t": 194831.85680833523,
      "d": 327.8686666666763,
      "v": 96
    },
    {
      "midi": 67,
      "hit": false,
      "t": 194831.85680833523,
      "d": 327.8686666666763,
      "v": 96
    },
    {
      "midi": 55,
      "hit": false,
      "t": 195323.65980833524,
      "d": 327.8686666666763,
      "v": 96
    },
    {
      "midi": 58,
      "hit": false,
      "t": 195323.65980833524,
      "d": 327.8686666666763,
      "v": 96
    },
    {
      "midi": 62,
      "hit": false,
      "t": 195323.65980833524,
      "d": 327.8686666666763,
      "v": 96
    },
    {
      "midi": 65,
      "hit": false,
      "t": 195323.65980833524,
      "d": 327.8686666666763,
      "v": 96
    },
    {
      "midi": 67,
      "hit": false,
      "t": 195323.65980833524,
      "d": 327.8686666666763,
      "v": 96
    },
    {
      "midi": 55,
      "hit": false,
      "t": 195815.46280833526,
      "d": 327.8686666666763,
      "v": 96
    },
    {
      "midi": 58,
      "hit": false,
      "t": 195815.46280833526,
      "d": 327.8686666666763,
      "v": 96
    },
    {
      "midi": 62,
      "hit": false,
      "t": 195815.46280833526,
      "d": 327.8686666666763,
      "v": 96
    },
    {
      "midi": 65,
      "hit": false,
      "t": 195815.46280833526,
      "d": 327.8686666666763,
      "v": 96
    },
    {
      "midi": 67,
      "hit": false,
      "t": 195815.46280833526,
      "d": 327.8686666666763,
      "v": 96
    },
    {
      "midi": 36,
      "hit": false,
      "t": 196143.33147500193,
      "d": 131.14746666667634,
      "v": 80
    },
    {
      "midi": 43,
      "hit": false,
      "t": 196307.26580833527,
      "d": 151.63925833333633,
      "v": 80
    },
    {
      "midi": 55,
      "hit": false,
      "t": 196307.26580833527,
      "d": 327.8686666666763,
      "v": 96
    },
    {
      "midi": 58,
      "hit": false,
      "t": 196307.26580833527,
      "d": 327.8686666666763,
      "v": 96
    },
    {
      "midi": 62,
      "hit": false,
      "t": 196307.26580833527,
      "d": 327.8686666666763,
      "v": 96
    },
    {
      "midi": 65,
      "hit": false,
      "t": 196307.26580833527,
      "d": 327.8686666666763,
      "v": 96
    },
    {
      "midi": 67,
      "hit": false,
      "t": 196307.26580833527,
      "d": 327.8686666666763,
      "v": 96
    },
    {
      "midi": 41,
      "hit": false,
      "t": 196471.2001416686,
      "d": 147.5408999999927,
      "v": 80
    },
    {
      "midi": 38,
      "hit": false,
      "t": 196635.13447500195,
      "d": 131.14746666667634,
      "v": 80
    },
    {
      "midi": 36,
      "hit": false,
      "t": 196799.0688083353,
      "d": 327.8686666666763,
      "v": 96
    },
    {
      "midi": 48,
      "hit": false,
      "t": 196799.0688083353,
      "d": 327.8686666666763,
      "v": 96
    },
    {
      "midi": 55,
      "hit": false,
      "t": 196799.0688083353,
      "d": 327.8686666666763,
      "v": 96
    },
    {
      "midi": 58,
      "hit": false,
      "t": 196799.0688083353,
      "d": 327.8686666666763,
      "v": 96
    },
    {
      "midi": 60,
      "hit": false,
      "t": 196799.0688083353,
      "d": 327.8686666666763,
      "v": 96
    },
    {
      "midi": 64,
      "hit": false,
      "t": 196799.0688083353,
      "d": 327.8686666666763,
      "v": 96
    },
    {
      "midi": 55,
      "hit": false,
      "t": 197290.8718083353,
      "d": 327.8686666666763,
      "v": 96
    },
    {
      "midi": 58,
      "hit": false,
      "t": 197290.8718083353,
      "d": 327.8686666666763,
      "v": 96
    },
    {
      "midi": 60,
      "hit": false,
      "t": 197290.8718083353,
      "d": 327.8686666666763,
      "v": 96
    },
    {
      "midi": 64,
      "hit": false,
      "t": 197290.8718083353,
      "d": 327.8686666666763,
      "v": 96
    },
    {
      "midi": 55,
      "hit": false,
      "t": 197782.67480833532,
      "d": 327.8686666666763,
      "v": 96
    },
    {
      "midi": 58,
      "hit": false,
      "t": 197782.67480833532,
      "d": 327.8686666666763,
      "v": 96
    },
    {
      "midi": 60,
      "hit": false,
      "t": 197782.67480833532,
      "d": 327.8686666666763,
      "v": 96
    },
    {
      "midi": 64,
      "hit": false,
      "t": 197782.67480833532,
      "d": 327.8686666666763,
      "v": 96
    },
    {
      "midi": 36,
      "hit": false,
      "t": 198110.543475002,
      "d": 327.8686666666763,
      "v": 96
    },
    {
      "midi": 48,
      "hit": false,
      "t": 198110.543475002,
      "d": 327.8686666666763,
      "v": 96
    },
    {
      "midi": 55,
      "hit": false,
      "t": 198274.47780833533,
      "d": 327.8686666666763,
      "v": 96
    },
    {
      "midi": 58,
      "hit": false,
      "t": 198274.47780833533,
      "d": 327.8686666666763,
      "v": 96
    },
    {
      "midi": 60,
      "hit": false,
      "t": 198274.47780833533,
      "d": 327.8686666666763,
      "v": 96
    },
    {
      "midi": 64,
      "hit": false,
      "t": 198274.47780833533,
      "d": 327.8686666666763,
      "v": 96
    },
    {
      "midi": 31,
      "hit": false,
      "t": 198602.346475002,
      "d": 155.73761666667997,
      "v": 96
    },
    {
      "midi": 43,
      "hit": false,
      "t": 198602.346475002,
      "d": 155.73761666667997,
      "v": 96
    },
    {
      "midi": 33,
      "hit": false,
      "t": 198766.28080833534,
      "d": 327.8686666666763,
      "v": 96
    },
    {
      "midi": 45,
      "hit": false,
      "t": 198766.28080833534,
      "d": 327.8686666666763,
      "v": 96
    },
    {
      "midi": 57,
      "hit": false,
      "t": 198766.28080833534,
      "d": 327.8686666666763,
      "v": 96
    },
    {
      "midi": 60,
      "hit": false,
      "t": 198766.28080833534,
      "d": 327.8686666666763,
      "v": 96
    },
    {
      "midi": 65,
      "hit": false,
      "t": 198766.28080833534,
      "d": 327.8686666666763,
      "v": 96
    },
    {
      "midi": 57,
      "hit": false,
      "t": 199258.08380833536,
      "d": 327.8686666666763,
      "v": 96
    },
    {
      "midi": 60,
      "hit": false,
      "t": 199258.08380833536,
      "d": 327.8686666666763,
      "v": 96
    },
    {
      "midi": 65,
      "hit": false,
      "t": 199258.08380833536,
      "d": 327.8686666666763,
      "v": 96
    },
    {
      "midi": 57,
      "hit": false,
      "t": 199749.88680833537,
      "d": 327.8686666666763,
      "v": 96
    },
    {
      "midi": 60,
      "hit": false,
      "t": 199749.88680833537,
      "d": 327.8686666666763,
      "v": 96
    },
    {
      "midi": 65,
      "hit": false,
      "t": 199749.88680833537,
      "d": 327.8686666666763,
      "v": 96
    },
    {
      "midi": 33,
      "hit": false,
      "t": 200077.75547500205,
      "d": 327.8686666666763,
      "v": 96
    },
    {
      "midi": 45,
      "hit": false,
      "t": 200077.75547500205,
      "d": 327.8686666666763,
      "v": 96
    },
    {
      "midi": 57,
      "hit": false,
      "t": 200241.6898083354,
      "d": 327.8686666666763,
      "v": 96
    },
    {
      "midi": 60,
      "hit": false,
      "t": 200241.6898083354,
      "d": 327.8686666666763,
      "v": 96
    },
    {
      "midi": 65,
      "hit": false,
      "t": 200241.6898083354,
      "d": 327.8686666666763,
      "v": 96
    },
    {
      "midi": 28,
      "hit": false,
      "t": 200569.55847500206,
      "d": 155.73761666667997,
      "v": 96
    },
    {
      "midi": 40,
      "hit": false,
      "t": 200569.55847500206,
      "d": 155.73761666667997,
      "v": 96
    },
    {
      "midi": 34,
      "hit": false,
      "t": 200733.4928083354,
      "d": 327.8686666666763,
      "v": 96
    },
    {
      "midi": 46,
      "hit": false,
      "t": 200733.4928083354,
      "d": 327.8686666666763,
      "v": 96
    },
    {
      "midi": 58,
      "hit": false,
      "t": 200733.4928083354,
      "d": 327.8686666666763,
      "v": 96
    },
    {
      "midi": 60,
      "hit": false,
      "t": 200733.4928083354,
      "d": 327.8686666666763,
      "v": 96
    },
    {
      "midi": 65,
      "hit": false,
      "t": 200733.4928083354,
      "d": 327.8686666666763,
      "v": 96
    },
    {
      "midi": 58,
      "hit": false,
      "t": 201225.29580833542,
      "d": 327.8686666666763,
      "v": 96
    },
    {
      "midi": 60,
      "hit": false,
      "t": 201225.29580833542,
      "d": 327.8686666666763,
      "v": 96
    },
    {
      "midi": 65,
      "hit": false,
      "t": 201225.29580833542,
      "d": 327.8686666666763,
      "v": 96
    },
    {
      "midi": 58,
      "hit": false,
      "t": 201717.09880833543,
      "d": 327.8686666666763,
      "v": 96
    },
    {
      "midi": 60,
      "hit": false,
      "t": 201717.09880833543,
      "d": 327.8686666666763,
      "v": 96
    },
    {
      "midi": 65,
      "hit": false,
      "t": 201717.09880833543,
      "d": 327.8686666666763,
      "v": 96
    },
    {
      "midi": 30,
      "hit": false,
      "t": 202044.9674750021,
      "d": 327.8686666666763,
      "v": 96
    },
    {
      "midi": 42,
      "hit": false,
      "t": 202044.9674750021,
      "d": 327.8686666666763,
      "v": 96
    },
    {
      "midi": 57,
      "hit": false,
      "t": 202208.90180833545,
      "d": 327.8686666666763,
      "v": 96
    },
    {
      "midi": 60,
      "hit": false,
      "t": 202208.90180833545,
      "d": 327.8686666666763,
      "v": 96
    },
    {
      "midi": 66,
      "hit": false,
      "t": 202208.90180833545,
      "d": 327.8686666666763,
      "v": 96
    },
    {
      "midi": 26,
      "hit": false,
      "t": 202536.77047500212,
      "d": 155.73761666667997,
      "v": 96
    },
    {
      "midi": 38,
      "hit": false,
      "t": 202536.77047500212,
      "d": 155.73761666667997,
      "v": 96
    },
    {
      "midi": 31,
      "hit": false,
      "t": 202700.70480833546,
      "d": 327.8686666666763,
      "v": 96
    },
    {
      "midi": 43,
      "hit": false,
      "t": 202700.70480833546,
      "d": 327.8686666666763,
      "v": 96
    },
    {
      "midi": 55,
      "hit": false,
      "t": 202700.70480833546,
      "d": 327.8686666666763,
      "v": 96
    },
    {
      "midi": 58,
      "hit": false,
      "t": 202700.70480833546,
      "d": 327.8686666666763,
      "v": 96
    },
    {
      "midi": 62,
      "hit": false,
      "t": 202700.70480833546,
      "d": 327.8686666666763,
      "v": 96
    },
    {
      "midi": 65,
      "hit": false,
      "t": 202700.70480833546,
      "d": 327.8686666666763,
      "v": 96
    },
    {
      "midi": 67,
      "hit": false,
      "t": 202700.70480833546,
      "d": 327.8686666666763,
      "v": 96
    },
    {
      "midi": 55,
      "hit": false,
      "t": 203192.50780833547,
      "d": 327.8686666666763,
      "v": 96
    },
    {
      "midi": 58,
      "hit": false,
      "t": 203192.50780833547,
      "d": 327.8686666666763,
      "v": 96
    },
    {
      "midi": 62,
      "hit": false,
      "t": 203192.50780833547,
      "d": 327.8686666666763,
      "v": 96
    },
    {
      "midi": 65,
      "hit": false,
      "t": 203192.50780833547,
      "d": 327.8686666666763,
      "v": 96
    },
    {
      "midi": 67,
      "hit": false,
      "t": 203192.50780833547,
      "d": 327.8686666666763,
      "v": 96
    },
    {
      "midi": 55,
      "hit": false,
      "t": 203684.3108083355,
      "d": 327.8686666666763,
      "v": 96
    },
    {
      "midi": 58,
      "hit": false,
      "t": 203684.3108083355,
      "d": 327.8686666666763,
      "v": 96
    },
    {
      "midi": 62,
      "hit": false,
      "t": 203684.3108083355,
      "d": 327.8686666666763,
      "v": 96
    },
    {
      "midi": 65,
      "hit": false,
      "t": 203684.3108083355,
      "d": 327.8686666666763,
      "v": 96
    },
    {
      "midi": 67,
      "hit": false,
      "t": 203684.3108083355,
      "d": 327.8686666666763,
      "v": 96
    },
    {
      "midi": 31,
      "hit": false,
      "t": 204012.17947500217,
      "d": 327.8686666666763,
      "v": 96
    },
    {
      "midi": 43,
      "hit": false,
      "t": 204012.17947500217,
      "d": 327.8686666666763,
      "v": 96
    },
    {
      "midi": 55,
      "hit": false,
      "t": 204176.1138083355,
      "d": 327.8686666666763,
      "v": 96
    },
    {
      "midi": 58,
      "hit": false,
      "t": 204176.1138083355,
      "d": 327.8686666666763,
      "v": 96
    },
    {
      "midi": 62,
      "hit": false,
      "t": 204176.1138083355,
      "d": 327.8686666666763,
      "v": 96
    },
    {
      "midi": 65,
      "hit": false,
      "t": 204176.1138083355,
      "d": 327.8686666666763,
      "v": 96
    },
    {
      "midi": 67,
      "hit": false,
      "t": 204176.1138083355,
      "d": 327.8686666666763,
      "v": 96
    },
    {
      "midi": 38,
      "hit": false,
      "t": 204503.98247500218,
      "d": 155.73761666667997,
      "v": 96
    },
    {
      "midi": 50,
      "hit": false,
      "t": 204503.98247500218,
      "d": 155.73761666667997,
      "v": 96
    },
    {
      "midi": 36,
      "hit": false,
      "t": 204667.91680833552,
      "d": 327.8686666666763,
      "v": 96
    },
    {
      "midi": 48,
      "hit": false,
      "t": 204667.91680833552,
      "d": 327.8686666666763,
      "v": 96
    },
    {
      "midi": 55,
      "hit": false,
      "t": 204667.91680833552,
      "d": 327.8686666666763,
      "v": 96
    },
    {
      "midi": 58,
      "hit": false,
      "t": 204667.91680833552,
      "d": 327.8686666666763,
      "v": 96
    },
    {
      "midi": 60,
      "hit": false,
      "t": 204667.91680833552,
      "d": 327.8686666666763,
      "v": 96
    },
    {
      "midi": 64,
      "hit": false,
      "t": 204667.91680833552,
      "d": 327.8686666666763,
      "v": 96
    },
    {
      "midi": 55,
      "hit": false,
      "t": 205159.71980833553,
      "d": 327.8686666666763,
      "v": 96
    },
    {
      "midi": 58,
      "hit": false,
      "t": 205159.71980833553,
      "d": 327.8686666666763,
      "v": 96
    },
    {
      "midi": 60,
      "hit": false,
      "t": 205159.71980833553,
      "d": 327.8686666666763,
      "v": 96
    },
    {
      "midi": 64,
      "hit": false,
      "t": 205159.71980833553,
      "d": 327.8686666666763,
      "v": 96
    },
    {
      "midi": 55,
      "hit": false,
      "t": 205651.52280833555,
      "d": 327.8686666666763,
      "v": 96
    },
    {
      "midi": 58,
      "hit": false,
      "t": 205651.52280833555,
      "d": 327.8686666666763,
      "v": 96
    },
    {
      "midi": 60,
      "hit": false,
      "t": 205651.52280833555,
      "d": 327.8686666666763,
      "v": 96
    },
    {
      "midi": 64,
      "hit": false,
      "t": 205651.52280833555,
      "d": 327.8686666666763,
      "v": 96
    },
    {
      "midi": 36,
      "hit": false,
      "t": 205979.39147500222,
      "d": 327.8686666666763,
      "v": 96
    },
    {
      "midi": 48,
      "hit": false,
      "t": 205979.39147500222,
      "d": 327.8686666666763,
      "v": 96
    },
    {
      "midi": 55,
      "hit": false,
      "t": 206143.32580833556,
      "d": 327.8686666666763,
      "v": 96
    },
    {
      "midi": 58,
      "hit": false,
      "t": 206143.32580833556,
      "d": 327.8686666666763,
      "v": 96
    },
    {
      "midi": 60,
      "hit": false,
      "t": 206143.32580833556,
      "d": 327.8686666666763,
      "v": 96
    },
    {
      "midi": 64,
      "hit": false,
      "t": 206143.32580833556,
      "d": 327.8686666666763,
      "v": 96
    },
    {
      "midi": 31,
      "hit": false,
      "t": 206471.19447500224,
      "d": 155.73761666667997,
      "v": 96
    },
    {
      "midi": 43,
      "hit": false,
      "t": 206471.19447500224,
      "d": 155.73761666667997,
      "v": 96
    },
    {
      "midi": 33,
      "hit": false,
      "t": 206635.12880833558,
      "d": 327.8686666666763,
      "v": 96
    },
    {
      "midi": 45,
      "hit": false,
      "t": 206635.12880833558,
      "d": 327.8686666666763,
      "v": 96
    },
    {
      "midi": 57,
      "hit": false,
      "t": 206635.12880833558,
      "d": 327.8686666666763,
      "v": 96
    },
    {
      "midi": 60,
      "hit": false,
      "t": 206635.12880833558,
      "d": 327.8686666666763,
      "v": 96
    },
    {
      "midi": 65,
      "hit": false,
      "t": 206635.12880833558,
      "d": 327.8686666666763,
      "v": 96
    },
    {
      "midi": 57,
      "hit": false,
      "t": 207126.9318083356,
      "d": 327.8686666666763,
      "v": 96
    },
    {
      "midi": 60,
      "hit": false,
      "t": 207126.9318083356,
      "d": 327.8686666666763,
      "v": 96
    },
    {
      "midi": 65,
      "hit": false,
      "t": 207126.9318083356,
      "d": 327.8686666666763,
      "v": 96
    },
    {
      "midi": 57,
      "hit": false,
      "t": 207618.7348083356,
      "d": 327.8686666666763,
      "v": 96
    },
    {
      "midi": 60,
      "hit": false,
      "t": 207618.7348083356,
      "d": 327.8686666666763,
      "v": 96
    },
    {
      "midi": 65,
      "hit": false,
      "t": 207618.7348083356,
      "d": 327.8686666666763,
      "v": 96
    },
    {
      "midi": 33,
      "hit": false,
      "t": 207946.60347500228,
      "d": 327.8686666666763,
      "v": 96
    },
    {
      "midi": 45,
      "hit": false,
      "t": 207946.60347500228,
      "d": 327.8686666666763,
      "v": 96
    },
    {
      "midi": 57,
      "hit": false,
      "t": 208110.53780833562,
      "d": 327.8686666666763,
      "v": 96
    },
    {
      "midi": 60,
      "hit": false,
      "t": 208110.53780833562,
      "d": 327.8686666666763,
      "v": 96
    },
    {
      "midi": 65,
      "hit": false,
      "t": 208110.53780833562,
      "d": 327.8686666666763,
      "v": 96
    },
    {
      "midi": 28,
      "hit": false,
      "t": 208438.4064750023,
      "d": 155.73761666667997,
      "v": 96
    },
    {
      "midi": 40,
      "hit": false,
      "t": 208438.4064750023,
      "d": 155.73761666667997,
      "v": 96
    },
    {
      "midi": 34,
      "hit": false,
      "t": 208602.34080833563,
      "d": 327.8686666666763,
      "v": 96
    },
    {
      "midi": 46,
      "hit": false,
      "t": 208602.34080833563,
      "d": 327.8686666666763,
      "v": 96
    },
    {
      "midi": 58,
      "hit": false,
      "t": 208602.34080833563,
      "d": 327.8686666666763,
      "v": 96
    },
    {
      "midi": 60,
      "hit": false,
      "t": 208602.34080833563,
      "d": 327.8686666666763,
      "v": 96
    },
    {
      "midi": 65,
      "hit": false,
      "t": 208602.34080833563,
      "d": 327.8686666666763,
      "v": 96
    },
    {
      "midi": 58,
      "hit": false,
      "t": 209094.14380833565,
      "d": 327.8686666666763,
      "v": 96
    },
    {
      "midi": 60,
      "hit": false,
      "t": 209094.14380833565,
      "d": 327.8686666666763,
      "v": 96
    },
    {
      "midi": 65,
      "hit": false,
      "t": 209094.14380833565,
      "d": 327.8686666666763,
      "v": 96
    },
    {
      "midi": 58,
      "hit": false,
      "t": 209585.94680833566,
      "d": 327.8686666666763,
      "v": 96
    },
    {
      "midi": 60,
      "hit": false,
      "t": 209585.94680833566,
      "d": 327.8686666666763,
      "v": 96
    },
    {
      "midi": 65,
      "hit": false,
      "t": 209585.94680833566,
      "d": 327.8686666666763,
      "v": 96
    },
    {
      "midi": 30,
      "hit": false,
      "t": 209913.81547500234,
      "d": 327.8686666666763,
      "v": 96
    },
    {
      "midi": 42,
      "hit": false,
      "t": 209913.81547500234,
      "d": 327.8686666666763,
      "v": 96
    },
    {
      "midi": 57,
      "hit": false,
      "t": 210077.74980833568,
      "d": 327.8686666666763,
      "v": 96
    },
    {
      "midi": 60,
      "hit": false,
      "t": 210077.74980833568,
      "d": 327.8686666666763,
      "v": 96
    },
    {
      "midi": 66,
      "hit": false,
      "t": 210077.74980833568,
      "d": 327.8686666666763,
      "v": 96
    },
    {
      "midi": 26,
      "hit": false,
      "t": 210405.61847500235,
      "d": 155.73761666667997,
      "v": 96
    },
    {
      "midi": 38,
      "hit": false,
      "t": 210405.61847500235,
      "d": 155.73761666667997,
      "v": 96
    },
    {
      "midi": 31,
      "hit": false,
      "t": 210569.5528083357,
      "d": 327.8686666666763,
      "v": 96
    },
    {
      "midi": 43,
      "hit": false,
      "t": 210569.5528083357,
      "d": 327.8686666666763,
      "v": 96
    },
    {
      "midi": 55,
      "hit": false,
      "t": 210569.5528083357,
      "d": 327.8686666666763,
      "v": 96
    },
    {
      "midi": 58,
      "hit": false,
      "t": 210569.5528083357,
      "d": 327.8686666666763,
      "v": 96
    },
    {
      "midi": 62,
      "hit": false,
      "t": 210569.5528083357,
      "d": 327.8686666666763,
      "v": 96
    },
    {
      "midi": 65,
      "hit": false,
      "t": 210569.5528083357,
      "d": 327.8686666666763,
      "v": 96
    },
    {
      "midi": 67,
      "hit": false,
      "t": 210569.5528083357,
      "d": 327.8686666666763,
      "v": 96
    },
    {
      "midi": 55,
      "hit": false,
      "t": 211061.3558083357,
      "d": 327.8686666666763,
      "v": 96
    },
    {
      "midi": 58,
      "hit": false,
      "t": 211061.3558083357,
      "d": 327.8686666666763,
      "v": 96
    },
    {
      "midi": 62,
      "hit": false,
      "t": 211061.3558083357,
      "d": 327.8686666666763,
      "v": 96
    },
    {
      "midi": 65,
      "hit": false,
      "t": 211061.3558083357,
      "d": 327.8686666666763,
      "v": 96
    },
    {
      "midi": 67,
      "hit": false,
      "t": 211061.3558083357,
      "d": 327.8686666666763,
      "v": 96
    },
    {
      "midi": 55,
      "hit": false,
      "t": 211553.15880833572,
      "d": 327.8686666666763,
      "v": 96
    },
    {
      "midi": 58,
      "hit": false,
      "t": 211553.15880833572,
      "d": 327.8686666666763,
      "v": 96
    },
    {
      "midi": 62,
      "hit": false,
      "t": 211553.15880833572,
      "d": 327.8686666666763,
      "v": 96
    },
    {
      "midi": 65,
      "hit": false,
      "t": 211553.15880833572,
      "d": 327.8686666666763,
      "v": 96
    },
    {
      "midi": 67,
      "hit": false,
      "t": 211553.15880833572,
      "d": 327.8686666666763,
      "v": 96
    },
    {
      "midi": 31,
      "hit": false,
      "t": 211881.0274750024,
      "d": 327.8686666666763,
      "v": 96
    },
    {
      "midi": 43,
      "hit": false,
      "t": 211881.0274750024,
      "d": 327.8686666666763,
      "v": 96
    },
    {
      "midi": 55,
      "hit": false,
      "t": 212044.96180833573,
      "d": 327.8686666666763,
      "v": 96
    },
    {
      "midi": 58,
      "hit": false,
      "t": 212044.96180833573,
      "d": 327.8686666666763,
      "v": 96
    },
    {
      "midi": 62,
      "hit": false,
      "t": 212044.96180833573,
      "d": 327.8686666666763,
      "v": 96
    },
    {
      "midi": 65,
      "hit": false,
      "t": 212044.96180833573,
      "d": 327.8686666666763,
      "v": 96
    },
    {
      "midi": 67,
      "hit": false,
      "t": 212044.96180833573,
      "d": 327.8686666666763,
      "v": 96
    },
    {
      "midi": 38,
      "hit": false,
      "t": 212372.8304750024,
      "d": 155.73761666667997,
      "v": 96
    },
    {
      "midi": 50,
      "hit": false,
      "t": 212372.8304750024,
      "d": 155.73761666667997,
      "v": 96
    },
    {
      "midi": 36,
      "hit": false,
      "t": 212536.76480833575,
      "d": 327.8686666666763,
      "v": 96
    },
    {
      "midi": 48,
      "hit": false,
      "t": 212536.76480833575,
      "d": 327.8686666666763,
      "v": 96
    },
    {
      "midi": 55,
      "hit": false,
      "t": 212536.76480833575,
      "d": 327.8686666666763,
      "v": 96
    },
    {
      "midi": 58,
      "hit": false,
      "t": 212536.76480833575,
      "d": 327.8686666666763,
      "v": 96
    },
    {
      "midi": 60,
      "hit": false,
      "t": 212536.76480833575,
      "d": 327.8686666666763,
      "v": 96
    },
    {
      "midi": 64,
      "hit": false,
      "t": 212536.76480833575,
      "d": 327.8686666666763,
      "v": 96
    },
    {
      "midi": 55,
      "hit": false,
      "t": 213028.56780833576,
      "d": 327.8686666666763,
      "v": 96
    },
    {
      "midi": 58,
      "hit": false,
      "t": 213028.56780833576,
      "d": 327.8686666666763,
      "v": 96
    },
    {
      "midi": 60,
      "hit": false,
      "t": 213028.56780833576,
      "d": 327.8686666666763,
      "v": 96
    },
    {
      "midi": 64,
      "hit": false,
      "t": 213028.56780833576,
      "d": 327.8686666666763,
      "v": 96
    },
    {
      "midi": 55,
      "hit": false,
      "t": 213520.37080833578,
      "d": 327.8686666666763,
      "v": 96
    },
    {
      "midi": 58,
      "hit": false,
      "t": 213520.37080833578,
      "d": 327.8686666666763,
      "v": 96
    },
    {
      "midi": 60,
      "hit": false,
      "t": 213520.37080833578,
      "d": 327.8686666666763,
      "v": 96
    },
    {
      "midi": 64,
      "hit": false,
      "t": 213520.37080833578,
      "d": 327.8686666666763,
      "v": 96
    },
    {
      "midi": 36,
      "hit": false,
      "t": 213848.23947500245,
      "d": 327.8686666666763,
      "v": 96
    },
    {
      "midi": 48,
      "hit": false,
      "t": 213848.23947500245,
      "d": 327.8686666666763,
      "v": 96
    },
    {
      "midi": 55,
      "hit": false,
      "t": 214012.1738083358,
      "d": 327.8686666666763,
      "v": 96
    },
    {
      "midi": 58,
      "hit": false,
      "t": 214012.1738083358,
      "d": 327.8686666666763,
      "v": 96
    },
    {
      "midi": 60,
      "hit": false,
      "t": 214012.1738083358,
      "d": 327.8686666666763,
      "v": 96
    },
    {
      "midi": 64,
      "hit": false,
      "t": 214012.1738083358,
      "d": 327.8686666666763,
      "v": 96
    },
    {
      "midi": 31,
      "hit": false,
      "t": 214340.04247500247,
      "d": 155.73761666667997,
      "v": 96
    },
    {
      "midi": 43,
      "hit": false,
      "t": 214340.04247500247,
      "d": 155.73761666667997,
      "v": 96
    },
    {
      "midi": 33,
      "hit": false,
      "t": 214503.9768083358,
      "d": 327.8686666666763,
      "v": 96
    },
    {
      "midi": 45,
      "hit": false,
      "t": 214503.9768083358,
      "d": 327.8686666666763,
      "v": 96
    },
    {
      "midi": 57,
      "hit": false,
      "t": 214503.9768083358,
      "d": 327.8686666666763,
      "v": 96
    },
    {
      "midi": 60,
      "hit": false,
      "t": 214503.9768083358,
      "d": 327.8686666666763,
      "v": 96
    },
    {
      "midi": 65,
      "hit": false,
      "t": 214503.9768083358,
      "d": 327.8686666666763,
      "v": 96
    },
    {
      "midi": 57,
      "hit": false,
      "t": 214995.77980833582,
      "d": 327.8686666666763,
      "v": 96
    },
    {
      "midi": 60,
      "hit": false,
      "t": 214995.77980833582,
      "d": 327.8686666666763,
      "v": 96
    },
    {
      "midi": 65,
      "hit": false,
      "t": 214995.77980833582,
      "d": 327.8686666666763,
      "v": 96
    },
    {
      "midi": 57,
      "hit": false,
      "t": 215487.58280833584,
      "d": 327.8686666666763,
      "v": 96
    },
    {
      "midi": 60,
      "hit": false,
      "t": 215487.58280833584,
      "d": 327.8686666666763,
      "v": 96
    },
    {
      "midi": 65,
      "hit": false,
      "t": 215487.58280833584,
      "d": 327.8686666666763,
      "v": 96
    },
    {
      "midi": 33,
      "hit": false,
      "t": 215815.4514750025,
      "d": 327.8686666666763,
      "v": 96
    },
    {
      "midi": 45,
      "hit": false,
      "t": 215815.4514750025,
      "d": 327.8686666666763,
      "v": 96
    },
    {
      "midi": 57,
      "hit": false,
      "t": 215979.38580833585,
      "d": 327.8686666666763,
      "v": 96
    },
    {
      "midi": 60,
      "hit": false,
      "t": 215979.38580833585,
      "d": 327.8686666666763,
      "v": 96
    },
    {
      "midi": 65,
      "hit": false,
      "t": 215979.38580833585,
      "d": 327.8686666666763,
      "v": 96
    },
    {
      "midi": 28,
      "hit": false,
      "t": 216307.25447500253,
      "d": 155.73761666667997,
      "v": 96
    },
    {
      "midi": 40,
      "hit": false,
      "t": 216307.25447500253,
      "d": 155.73761666667997,
      "v": 96
    },
    {
      "midi": 34,
      "hit": false,
      "t": 216471.18880833586,
      "d": 327.8686666666763,
      "v": 96
    },
    {
      "midi": 46,
      "hit": false,
      "t": 216471.18880833586,
      "d": 327.8686666666763,
      "v": 96
    },
    {
      "midi": 58,
      "hit": false,
      "t": 216471.18880833586,
      "d": 327.8686666666763,
      "v": 96
    },
    {
      "midi": 60,
      "hit": false,
      "t": 216471.18880833586,
      "d": 327.8686666666763,
      "v": 96
    },
    {
      "midi": 65,
      "hit": false,
      "t": 216471.18880833586,
      "d": 327.8686666666763,
      "v": 96
    },
    {
      "midi": 58,
      "hit": false,
      "t": 216962.99180833588,
      "d": 327.8686666666763,
      "v": 96
    },
    {
      "midi": 60,
      "hit": false,
      "t": 216962.99180833588,
      "d": 327.8686666666763,
      "v": 96
    },
    {
      "midi": 65,
      "hit": false,
      "t": 216962.99180833588,
      "d": 327.8686666666763,
      "v": 96
    },
    {
      "midi": 58,
      "hit": false,
      "t": 217454.7948083359,
      "d": 327.8686666666763,
      "v": 96
    },
    {
      "midi": 60,
      "hit": false,
      "t": 217454.7948083359,
      "d": 327.8686666666763,
      "v": 96
    },
    {
      "midi": 65,
      "hit": false,
      "t": 217454.7948083359,
      "d": 327.8686666666763,
      "v": 96
    },
    {
      "midi": 30,
      "hit": false,
      "t": 217782.66347500257,
      "d": 327.8686666666763,
      "v": 96
    },
    {
      "midi": 42,
      "hit": false,
      "t": 217782.66347500257,
      "d": 327.8686666666763,
      "v": 96
    },
    {
      "midi": 57,
      "hit": false,
      "t": 217946.5978083359,
      "d": 327.8686666666763,
      "v": 96
    },
    {
      "midi": 60,
      "hit": false,
      "t": 217946.5978083359,
      "d": 327.8686666666763,
      "v": 96
    },
    {
      "midi": 66,
      "hit": false,
      "t": 217946.5978083359,
      "d": 327.8686666666763,
      "v": 96
    },
    {
      "midi": 26,
      "hit": false,
      "t": 218274.46647500258,
      "d": 155.73761666667997,
      "v": 96
    },
    {
      "midi": 38,
      "hit": false,
      "t": 218274.46647500258,
      "d": 155.73761666667997,
      "v": 96
    },
    {
      "midi": 31,
      "hit": false,
      "t": 218438.40080833592,
      "d": 327.8686666666763,
      "v": 96
    },
    {
      "midi": 43,
      "hit": false,
      "t": 218438.40080833592,
      "d": 327.8686666666763,
      "v": 96
    },
    {
      "midi": 55,
      "hit": false,
      "t": 218438.40080833592,
      "d": 327.8686666666763,
      "v": 96
    },
    {
      "midi": 58,
      "hit": false,
      "t": 218438.40080833592,
      "d": 327.8686666666763,
      "v": 96
    },
    {
      "midi": 62,
      "hit": false,
      "t": 218438.40080833592,
      "d": 327.8686666666763,
      "v": 96
    },
    {
      "midi": 65,
      "hit": false,
      "t": 218438.40080833592,
      "d": 327.8686666666763,
      "v": 96
    },
    {
      "midi": 67,
      "hit": false,
      "t": 218438.40080833592,
      "d": 327.8686666666763,
      "v": 96
    },
    {
      "midi": 55,
      "hit": false,
      "t": 218930.20380833594,
      "d": 327.8686666666763,
      "v": 96
    },
    {
      "midi": 58,
      "hit": false,
      "t": 218930.20380833594,
      "d": 327.8686666666763,
      "v": 96
    },
    {
      "midi": 62,
      "hit": false,
      "t": 218930.20380833594,
      "d": 327.8686666666763,
      "v": 96
    },
    {
      "midi": 65,
      "hit": false,
      "t": 218930.20380833594,
      "d": 327.8686666666763,
      "v": 96
    },
    {
      "midi": 67,
      "hit": false,
      "t": 218930.20380833594,
      "d": 327.8686666666763,
      "v": 96
    },
    {
      "midi": 55,
      "hit": false,
      "t": 219422.00680833595,
      "d": 327.8686666666763,
      "v": 96
    },
    {
      "midi": 58,
      "hit": false,
      "t": 219422.00680833595,
      "d": 327.8686666666763,
      "v": 96
    },
    {
      "midi": 62,
      "hit": false,
      "t": 219422.00680833595,
      "d": 327.8686666666763,
      "v": 96
    },
    {
      "midi": 65,
      "hit": false,
      "t": 219422.00680833595,
      "d": 327.8686666666763,
      "v": 96
    },
    {
      "midi": 67,
      "hit": false,
      "t": 219422.00680833595,
      "d": 327.8686666666763,
      "v": 96
    },
    {
      "midi": 31,
      "hit": false,
      "t": 219749.87547500263,
      "d": 327.8686666666763,
      "v": 96
    },
    {
      "midi": 43,
      "hit": false,
      "t": 219749.87547500263,
      "d": 327.8686666666763,
      "v": 96
    },
    {
      "midi": 55,
      "hit": false,
      "t": 219913.80980833597,
      "d": 327.8686666666763,
      "v": 96
    },
    {
      "midi": 58,
      "hit": false,
      "t": 219913.80980833597,
      "d": 327.8686666666763,
      "v": 96
    },
    {
      "midi": 62,
      "hit": false,
      "t": 219913.80980833597,
      "d": 327.8686666666763,
      "v": 96
    },
    {
      "midi": 65,
      "hit": false,
      "t": 219913.80980833597,
      "d": 327.8686666666763,
      "v": 96
    },
    {
      "midi": 67,
      "hit": false,
      "t": 219913.80980833597,
      "d": 327.8686666666763,
      "v": 96
    },
    {
      "midi": 38,
      "hit": false,
      "t": 220241.67847500264,
      "d": 155.73761666667997,
      "v": 96
    },
    {
      "midi": 50,
      "hit": false,
      "t": 220241.67847500264,
      "d": 155.73761666667997,
      "v": 96
    },
    {
      "midi": 36,
      "hit": false,
      "t": 220405.61280833598,
      "d": 327.8686666666763,
      "v": 96
    },
    {
      "midi": 48,
      "hit": false,
      "t": 220405.61280833598,
      "d": 327.8686666666763,
      "v": 96
    },
    {
      "midi": 55,
      "hit": false,
      "t": 220405.61280833598,
      "d": 327.8686666666763,
      "v": 96
    },
    {
      "midi": 58,
      "hit": false,
      "t": 220405.61280833598,
      "d": 327.8686666666763,
      "v": 96
    },
    {
      "midi": 60,
      "hit": false,
      "t": 220405.61280833598,
      "d": 327.8686666666763,
      "v": 96
    },
    {
      "midi": 64,
      "hit": false,
      "t": 220405.61280833598,
      "d": 327.8686666666763,
      "v": 96
    },
    {
      "midi": 55,
      "hit": false,
      "t": 220897.415808336,
      "d": 327.8686666666763,
      "v": 96
    },
    {
      "midi": 58,
      "hit": false,
      "t": 220897.415808336,
      "d": 327.8686666666763,
      "v": 96
    },
    {
      "midi": 60,
      "hit": false,
      "t": 220897.415808336,
      "d": 327.8686666666763,
      "v": 96
    },
    {
      "midi": 64,
      "hit": false,
      "t": 220897.415808336,
      "d": 327.8686666666763,
      "v": 96
    },
    {
      "midi": 55,
      "hit": false,
      "t": 221389.218808336,
      "d": 327.8686666666763,
      "v": 96
    },
    {
      "midi": 58,
      "hit": false,
      "t": 221389.218808336,
      "d": 327.8686666666763,
      "v": 96
    },
    {
      "midi": 60,
      "hit": false,
      "t": 221389.218808336,
      "d": 327.8686666666763,
      "v": 96
    },
    {
      "midi": 64,
      "hit": false,
      "t": 221389.218808336,
      "d": 327.8686666666763,
      "v": 96
    },
    {
      "midi": 36,
      "hit": false,
      "t": 221717.08747500269,
      "d": 327.8686666666763,
      "v": 96
    },
    {
      "midi": 48,
      "hit": false,
      "t": 221717.08747500269,
      "d": 327.8686666666763,
      "v": 96
    },
    {
      "midi": 55,
      "hit": false,
      "t": 221881.02180833602,
      "d": 327.8686666666763,
      "v": 96
    },
    {
      "midi": 58,
      "hit": false,
      "t": 221881.02180833602,
      "d": 327.8686666666763,
      "v": 96
    },
    {
      "midi": 60,
      "hit": false,
      "t": 221881.02180833602,
      "d": 327.8686666666763,
      "v": 96
    },
    {
      "midi": 64,
      "hit": false,
      "t": 221881.02180833602,
      "d": 327.8686666666763,
      "v": 96
    },
    {
      "midi": 31,
      "hit": false,
      "t": 222208.8904750027,
      "d": 155.73761666667997,
      "v": 96
    },
    {
      "midi": 43,
      "hit": false,
      "t": 222208.8904750027,
      "d": 155.73761666667997,
      "v": 96
    },
    {
      "midi": 33,
      "hit": false,
      "t": 222372.82480833604,
      "d": 327.8686666666763,
      "v": 96
    },
    {
      "midi": 45,
      "hit": false,
      "t": 222372.82480833604,
      "d": 327.8686666666763,
      "v": 96
    },
    {
      "midi": 57,
      "hit": false,
      "t": 222372.82480833604,
      "d": 327.8686666666763,
      "v": 96
    },
    {
      "midi": 60,
      "hit": false,
      "t": 222372.82480833604,
      "d": 327.8686666666763,
      "v": 96
    },
    {
      "midi": 65,
      "hit": false,
      "t": 222372.82480833604,
      "d": 327.8686666666763,
      "v": 96
    },
    {
      "midi": 57,
      "hit": false,
      "t": 222864.62780833605,
      "d": 327.8686666666763,
      "v": 96
    },
    {
      "midi": 60,
      "hit": false,
      "t": 222864.62780833605,
      "d": 327.8686666666763,
      "v": 96
    },
    {
      "midi": 65,
      "hit": false,
      "t": 222864.62780833605,
      "d": 327.8686666666763,
      "v": 96
    },
    {
      "midi": 57,
      "hit": false,
      "t": 223356.43080833607,
      "d": 327.8686666666763,
      "v": 96
    },
    {
      "midi": 60,
      "hit": false,
      "t": 223356.43080833607,
      "d": 327.8686666666763,
      "v": 96
    },
    {
      "midi": 65,
      "hit": false,
      "t": 223356.43080833607,
      "d": 327.8686666666763,
      "v": 96
    },
    {
      "midi": 33,
      "hit": false,
      "t": 223684.29947500274,
      "d": 327.8686666666763,
      "v": 96
    },
    {
      "midi": 45,
      "hit": false,
      "t": 223684.29947500274,
      "d": 327.8686666666763,
      "v": 96
    },
    {
      "midi": 57,
      "hit": false,
      "t": 223848.23380833608,
      "d": 327.8686666666763,
      "v": 96
    },
    {
      "midi": 60,
      "hit": false,
      "t": 223848.23380833608,
      "d": 327.8686666666763,
      "v": 96
    },
    {
      "midi": 65,
      "hit": false,
      "t": 223848.23380833608,
      "d": 327.8686666666763,
      "v": 96
    },
    {
      "midi": 28,
      "hit": false,
      "t": 224176.10247500276,
      "d": 155.73761666667997,
      "v": 96
    },
    {
      "midi": 40,
      "hit": false,
      "t": 224176.10247500276,
      "d": 155.73761666667997,
      "v": 96
    },
    {
      "midi": 34,
      "hit": false,
      "t": 224340.0368083361,
      "d": 327.8686666666763,
      "v": 96
    },
    {
      "midi": 46,
      "hit": false,
      "t": 224340.0368083361,
      "d": 327.8686666666763,
      "v": 96
    },
    {
      "midi": 58,
      "hit": false,
      "t": 224340.0368083361,
      "d": 327.8686666666763,
      "v": 96
    },
    {
      "midi": 60,
      "hit": false,
      "t": 224340.0368083361,
      "d": 327.8686666666763,
      "v": 96
    },
    {
      "midi": 65,
      "hit": false,
      "t": 224340.0368083361,
      "d": 327.8686666666763,
      "v": 96
    },
    {
      "midi": 58,
      "hit": false,
      "t": 224831.8398083361,
      "d": 327.8686666666763,
      "v": 96
    },
    {
      "midi": 60,
      "hit": false,
      "t": 224831.8398083361,
      "d": 327.8686666666763,
      "v": 96
    },
    {
      "midi": 65,
      "hit": false,
      "t": 224831.8398083361,
      "d": 327.8686666666763,
      "v": 96
    },
    {
      "midi": 58,
      "hit": false,
      "t": 225323.64280833612,
      "d": 327.8686666666763,
      "v": 96
    },
    {
      "midi": 60,
      "hit": false,
      "t": 225323.64280833612,
      "d": 327.8686666666763,
      "v": 96
    },
    {
      "midi": 65,
      "hit": false,
      "t": 225323.64280833612,
      "d": 327.8686666666763,
      "v": 96
    },
    {
      "midi": 30,
      "hit": false,
      "t": 225651.5114750028,
      "d": 327.8686666666763,
      "v": 96
    },
    {
      "midi": 42,
      "hit": false,
      "t": 225651.5114750028,
      "d": 327.8686666666763,
      "v": 96
    },
    {
      "midi": 57,
      "hit": false,
      "t": 225815.44580833614,
      "d": 327.8686666666763,
      "v": 95
    },
    {
      "midi": 60,
      "hit": false,
      "t": 225815.44580833614,
      "d": 327.8686666666763,
      "v": 95
    },
    {
      "midi": 66,
      "hit": false,
      "t": 225815.44580833614,
      "d": 327.8686666666763,
      "v": 95
    },
    {
      "midi": 26,
      "hit": false,
      "t": 226143.31447500282,
      "d": 155.73761666667997,
      "v": 95
    },
    {
      "midi": 38,
      "hit": false,
      "t": 226143.31447500282,
      "d": 155.73761666667997,
      "v": 95
    },
    {
      "midi": 55,
      "hit": false,
      "t": 226307.24880833615,
      "d": 327.8686666666763,
      "v": 95
    },
    {
      "midi": 58,
      "hit": false,
      "t": 226307.24880833615,
      "d": 327.8686666666763,
      "v": 95
    },
    {
      "midi": 62,
      "hit": false,
      "t": 226307.24880833615,
      "d": 327.8686666666763,
      "v": 95
    },
    {
      "midi": 65,
      "hit": false,
      "t": 226307.24880833615,
      "d": 327.8686666666763,
      "v": 95
    },
    {
      "midi": 67,
      "hit": false,
      "t": 226307.24880833615,
      "d": 327.8686666666763,
      "v": 95
    },
    {
      "midi": 31,
      "hit": false,
      "t": 226307.24880833615,
      "d": 1913.9333416667068,
      "v": 80
    },
    {
      "midi": 43,
      "hit": false,
      "t": 226307.24880833615,
      "d": 1918.0317000000505,
      "v": 80
    },
    {
      "midi": 55,
      "hit": false,
      "t": 226799.05180833617,
      "d": 327.8686666666763,
      "v": 95
    },
    {
      "midi": 58,
      "hit": false,
      "t": 226799.05180833617,
      "d": 327.8686666666763,
      "v": 95
    },
    {
      "midi": 62,
      "hit": false,
      "t": 226799.05180833617,
      "d": 327.8686666666763,
      "v": 95
    },
    {
      "midi": 65,
      "hit": false,
      "t": 226799.05180833617,
      "d": 327.8686666666763,
      "v": 95
    },
    {
      "midi": 67,
      "hit": false,
      "t": 226799.05180833617,
      "d": 327.8686666666763,
      "v": 95
    },
    {
      "midi": 55,
      "hit": false,
      "t": 227290.85480833618,
      "d": 327.8686666666763,
      "v": 95
    },
    {
      "midi": 58,
      "hit": false,
      "t": 227290.85480833618,
      "d": 327.8686666666763,
      "v": 95
    },
    {
      "midi": 62,
      "hit": false,
      "t": 227290.85480833618,
      "d": 327.8686666666763,
      "v": 95
    },
    {
      "midi": 65,
      "hit": false,
      "t": 227290.85480833618,
      "d": 327.8686666666763,
      "v": 95
    },
    {
      "midi": 67,
      "hit": false,
      "t": 227290.85480833618,
      "d": 327.8686666666763,
      "v": 95
    },
    {
      "midi": 55,
      "hit": false,
      "t": 227782.6578083362,
      "d": 327.8686666666763,
      "v": 95
    },
    {
      "midi": 58,
      "hit": false,
      "t": 227782.6578083362,
      "d": 327.8686666666763,
      "v": 95
    },
    {
      "midi": 62,
      "hit": false,
      "t": 227782.6578083362,
      "d": 327.8686666666763,
      "v": 95
    },
    {
      "midi": 65,
      "hit": false,
      "t": 227782.6578083362,
      "d": 327.8686666666763,
      "v": 95
    },
    {
      "midi": 67,
      "hit": false,
      "t": 227782.6578083362,
      "d": 327.8686666666763,
      "v": 95
    },
    {
      "midi": 57,
      "hit": false,
      "t": 228274.4608083362,
      "d": 327.8686666666763,
      "v": 95
    },
    {
      "midi": 60,
      "hit": false,
      "t": 228274.4608083362,
      "d": 327.8686666666763,
      "v": 95
    },
    {
      "midi": 65,
      "hit": false,
      "t": 228274.4608083362,
      "d": 327.8686666666763,
      "v": 95
    },
    {
      "midi": 69,
      "hit": false,
      "t": 228274.4608083362,
      "d": 327.8686666666763,
      "v": 95
    },
    {
      "midi": 45,
      "hit": false,
      "t": 228274.4608083362,
      "d": 1922.1300583333941,
      "v": 80
    },
    {
      "midi": 33,
      "hit": false,
      "t": 228274.4608083362,
      "d": 1934.425133333396,
      "v": 80
    },
    {
      "midi": 57,
      "hit": false,
      "t": 228766.26380833623,
      "d": 327.8686666666763,
      "v": 95
    },
    {
      "midi": 60,
      "hit": false,
      "t": 228766.26380833623,
      "d": 327.8686666666763,
      "v": 95
    },
    {
      "midi": 65,
      "hit": false,
      "t": 228766.26380833623,
      "d": 327.8686666666763,
      "v": 95
    },
    {
      "midi": 69,
      "hit": false,
      "t": 228766.26380833623,
      "d": 327.8686666666763,
      "v": 95
    },
    {
      "midi": 57,
      "hit": false,
      "t": 229258.06680833624,
      "d": 327.8686666666763,
      "v": 95
    },
    {
      "midi": 60,
      "hit": false,
      "t": 229258.06680833624,
      "d": 327.8686666666763,
      "v": 95
    },
    {
      "midi": 65,
      "hit": false,
      "t": 229258.06680833624,
      "d": 327.8686666666763,
      "v": 95
    },
    {
      "midi": 69,
      "hit": false,
      "t": 229258.06680833624,
      "d": 327.8686666666763,
      "v": 95
    },
    {
      "midi": 57,
      "hit": false,
      "t": 229749.86980833625,
      "d": 327.8686666666763,
      "v": 95
    },
    {
      "midi": 60,
      "hit": false,
      "t": 229749.86980833625,
      "d": 327.8686666666763,
      "v": 95
    },
    {
      "midi": 65,
      "hit": false,
      "t": 229749.86980833625,
      "d": 327.8686666666763,
      "v": 95
    },
    {
      "midi": 69,
      "hit": false,
      "t": 229749.86980833625,
      "d": 327.8686666666763,
      "v": 95
    },
    {
      "midi": 58,
      "hit": false,
      "t": 230241.67280833627,
      "d": 327.8686666666763,
      "v": 95
    },
    {
      "midi": 60,
      "hit": false,
      "t": 230241.67280833627,
      "d": 327.8686666666763,
      "v": 95
    },
    {
      "midi": 65,
      "hit": false,
      "t": 230241.67280833627,
      "d": 327.8686666666763,
      "v": 95
    },
    {
      "midi": 34,
      "hit": false,
      "t": 230241.67280833627,
      "d": 1938.5234916667105,
      "v": 80
    },
    {
      "midi": 46,
      "hit": false,
      "t": 230241.67280833627,
      "d": 1959.0152833333705,
      "v": 80
    },
    {
      "midi": 58,
      "hit": false,
      "t": 230733.47580833628,
      "d": 327.8686666666763,
      "v": 95
    },
    {
      "midi": 60,
      "hit": false,
      "t": 230733.47580833628,
      "d": 327.8686666666763,
      "v": 95
    },
    {
      "midi": 65,
      "hit": false,
      "t": 230733.47580833628,
      "d": 327.8686666666763,
      "v": 95
    },
    {
      "midi": 58,
      "hit": false,
      "t": 231225.2788083363,
      "d": 327.8686666666763,
      "v": 95
    },
    {
      "midi": 60,
      "hit": false,
      "t": 231225.2788083363,
      "d": 327.8686666666763,
      "v": 95
    },
    {
      "midi": 65,
      "hit": false,
      "t": 231225.2788083363,
      "d": 327.8686666666763,
      "v": 95
    },
    {
      "midi": 58,
      "hit": false,
      "t": 231717.0818083363,
      "d": 327.8686666666763,
      "v": 95
    },
    {
      "midi": 60,
      "hit": false,
      "t": 231717.0818083363,
      "d": 327.8686666666763,
      "v": 95
    },
    {
      "midi": 65,
      "hit": false,
      "t": 231717.0818083363,
      "d": 327.8686666666763,
      "v": 95
    },
    {
      "midi": 55,
      "hit": false,
      "t": 232208.8848083363,
      "d": 327.8686666666763,
      "v": 95
    },
    {
      "midi": 60,
      "hit": false,
      "t": 232208.8848083363,
      "d": 327.8686666666763,
      "v": 95
    },
    {
      "midi": 64,
      "hit": false,
      "t": 232208.8848083363,
      "d": 327.8686666666763,
      "v": 95
    },
    {
      "midi": 67,
      "hit": false,
      "t": 232208.8848083363,
      "d": 327.8686666666763,
      "v": 95
    },
    {
      "midi": 36,
      "hit": false,
      "t": 232208.8848083363,
      "d": 1913.9333416667068,
      "v": 80
    },
    {
      "midi": 48,
      "hit": false,
      "t": 232208.8848083363,
      "d": 1918.0317000000505,
      "v": 80
    },
    {
      "midi": 55,
      "hit": false,
      "t": 232700.6878083363,
      "d": 327.8686666666763,
      "v": 95
    },
    {
      "midi": 60,
      "hit": false,
      "t": 232700.6878083363,
      "d": 327.8686666666763,
      "v": 95
    },
    {
      "midi": 64,
      "hit": false,
      "t": 232700.6878083363,
      "d": 327.8686666666763,
      "v": 95
    },
    {
      "midi": 67,
      "hit": false,
      "t": 232700.6878083363,
      "d": 327.8686666666763,
      "v": 95
    },
    {
      "midi": 55,
      "hit": false,
      "t": 233192.49080833633,
      "d": 327.8686666666763,
      "v": 95
    },
    {
      "midi": 60,
      "hit": false,
      "t": 233192.49080833633,
      "d": 327.8686666666763,
      "v": 95
    },
    {
      "midi": 64,
      "hit": false,
      "t": 233192.49080833633,
      "d": 327.8686666666763,
      "v": 95
    },
    {
      "midi": 67,
      "hit": false,
      "t": 233192.49080833633,
      "d": 327.8686666666763,
      "v": 95
    },
    {
      "midi": 55,
      "hit": false,
      "t": 233684.29380833634,
      "d": 327.8686666666763,
      "v": 95
    },
    {
      "midi": 60,
      "hit": false,
      "t": 233684.29380833634,
      "d": 327.8686666666763,
      "v": 95
    },
    {
      "midi": 64,
      "hit": false,
      "t": 233684.29380833634,
      "d": 327.8686666666763,
      "v": 95
    },
    {
      "midi": 67,
      "hit": false,
      "t": 233684.29380833634,
      "d": 327.8686666666763,
      "v": 95
    },
    {
      "midi": 57,
      "hit": false,
      "t": 234176.09680833636,
      "d": 327.8686666666763,
      "v": 95
    },
    {
      "midi": 62,
      "hit": false,
      "t": 234176.09680833636,
      "d": 327.8686666666763,
      "v": 95
    },
    {
      "midi": 65,
      "hit": false,
      "t": 234176.09680833636,
      "d": 327.8686666666763,
      "v": 95
    },
    {
      "midi": 69,
      "hit": false,
      "t": 234176.09680833636,
      "d": 327.8686666666763,
      "v": 95
    },
    {
      "midi": 38,
      "hit": false,
      "t": 234176.09680833636,
      "d": 1434.4254166666942,
      "v": 80
    },
    {
      "midi": 50,
      "hit": false,
      "t": 234176.09680833636,
      "d": 1438.5237750000379,
      "v": 80
    },
    {
      "midi": 57,
      "hit": false,
      "t": 234667.89980833637,
      "d": 327.8686666666763,
      "v": 95
    },
    {
      "midi": 62,
      "hit": false,
      "t": 234667.89980833637,
      "d": 327.8686666666763,
      "v": 95
    },
    {
      "midi": 65,
      "hit": false,
      "t": 234667.89980833637,
      "d": 327.8686666666763,
      "v": 95
    },
    {
      "midi": 69,
      "hit": false,
      "t": 234667.89980833637,
      "d": 327.8686666666763,
      "v": 95
    },
    {
      "midi": 57,
      "hit": false,
      "t": 235159.70280833638,
      "d": 327.8686666666763,
      "v": 95
    },
    {
      "midi": 62,
      "hit": false,
      "t": 235159.70280833638,
      "d": 327.8686666666763,
      "v": 95
    },
    {
      "midi": 65,
      "hit": false,
      "t": 235159.70280833638,
      "d": 327.8686666666763,
      "v": 95
    },
    {
      "midi": 69,
      "hit": false,
      "t": 235159.70280833638,
      "d": 327.8686666666763,
      "v": 95
    },
    {
      "midi": 57,
      "hit": false,
      "t": 235651.5058083364,
      "d": 327.8686666666763,
      "v": 95
    },
    {
      "midi": 60,
      "hit": false,
      "t": 235651.5058083364,
      "d": 327.8686666666763,
      "v": 95
    },
    {
      "midi": 65,
      "hit": false,
      "t": 235651.5058083364,
      "d": 327.8686666666763,
      "v": 95
    },
    {
      "midi": 69,
      "hit": false,
      "t": 235651.5058083364,
      "d": 327.8686666666763,
      "v": 95
    },
    {
      "midi": 36,
      "hit": false,
      "t": 235651.5058083364,
      "d": 450.81941666666535,
      "v": 80
    },
    {
      "midi": 48,
      "hit": false,
      "t": 235651.5058083364,
      "d": 463.11449166666716,
      "v": 80
    },
    {
      "midi": 59,
      "hit": false,
      "t": 236143.3088083364,
      "d": 327.8686666666763,
      "v": 95
    },
    {
      "midi": 62,
      "hit": false,
      "t": 236143.3088083364,
      "d": 327.8686666666763,
      "v": 95
    },
    {
      "midi": 65,
      "hit": false,
      "t": 236143.3088083364,
      "d": 327.8686666666763,
      "v": 95
    },
    {
      "midi": 35,
      "hit": false,
      "t": 236143.3088083364,
      "d": 1918.0317000000505,
      "v": 80
    },
    {
      "midi": 47,
      "hit": false,
      "t": 236143.3088083364,
      "d": 1922.1300583333941,
      "v": 80
    },
    {
      "midi": 59,
      "hit": false,
      "t": 236635.11180833643,
      "d": 327.8686666666763,
      "v": 95
    },
    {
      "midi": 62,
      "hit": false,
      "t": 236635.11180833643,
      "d": 327.8686666666763,
      "v": 95
    },
    {
      "midi": 65,
      "hit": false,
      "t": 236635.11180833643,
      "d": 327.8686666666763,
      "v": 95
    },
    {
      "midi": 59,
      "hit": false,
      "t": 237126.91480833644,
      "d": 327.8686666666763,
      "v": 95
    },
    {
      "midi": 62,
      "hit": false,
      "t": 237126.91480833644,
      "d": 327.8686666666763,
      "v": 95
    },
    {
      "midi": 65,
      "hit": false,
      "t": 237126.91480833644,
      "d": 327.8686666666763,
      "v": 95
    },
    {
      "midi": 59,
      "hit": false,
      "t": 237618.71780833646,
      "d": 327.8686666666763,
      "v": 95
    },
    {
      "midi": 62,
      "hit": false,
      "t": 237618.71780833646,
      "d": 327.8686666666763,
      "v": 95
    },
    {
      "midi": 65,
      "hit": false,
      "t": 237618.71780833646,
      "d": 327.8686666666763,
      "v": 95
    },
    {
      "midi": 58,
      "hit": false,
      "t": 238110.52080833647,
      "d": 327.8686666666763,
      "v": 95
    },
    {
      "midi": 60,
      "hit": false,
      "t": 238110.52080833647,
      "d": 327.8686666666763,
      "v": 95
    },
    {
      "midi": 65,
      "hit": false,
      "t": 238110.52080833647,
      "d": 327.8686666666763,
      "v": 95
    },
    {
      "midi": 34,
      "hit": false,
      "t": 238110.52080833647,
      "d": 1934.425133333396,
      "v": 80
    },
    {
      "midi": 46,
      "hit": false,
      "t": 238110.52080833647,
      "d": 1934.425133333396,
      "v": 80
    },
    {
      "midi": 58,
      "hit": false,
      "t": 238602.32380833648,
      "d": 327.8686666666763,
      "v": 95
    },
    {
      "midi": 60,
      "hit": false,
      "t": 238602.32380833648,
      "d": 327.8686666666763,
      "v": 95
    },
    {
      "midi": 65,
      "hit": false,
      "t": 238602.32380833648,
      "d": 327.8686666666763,
      "v": 95
    },
    {
      "midi": 58,
      "hit": false,
      "t": 239094.1268083365,
      "d": 327.8686666666763,
      "v": 95
    },
    {
      "midi": 60,
      "hit": false,
      "t": 239094.1268083365,
      "d": 327.8686666666763,
      "v": 95
    },
    {
      "midi": 65,
      "hit": false,
      "t": 239094.1268083365,
      "d": 327.8686666666763,
      "v": 95
    },
    {
      "midi": 58,
      "hit": false,
      "t": 239585.9298083365,
      "d": 327.8686666666763,
      "v": 95
    },
    {
      "midi": 60,
      "hit": false,
      "t": 239585.9298083365,
      "d": 327.8686666666763,
      "v": 95
    },
    {
      "midi": 65,
      "hit": false,
      "t": 239585.9298083365,
      "d": 327.8686666666763,
      "v": 95
    },
    {
      "midi": 55,
      "hit": false,
      "t": 240077.73280833653,
      "d": 1897.5399083333323,
      "v": 95
    },
    {
      "midi": 60,
      "hit": false,
      "t": 240077.73280833653,
      "d": 1901.638266666676,
      "v": 95
    },
    {
      "midi": 64,
      "hit": false,
      "t": 240077.73280833653,
      "d": 1905.7366250000196,
      "v": 95
    },
    {
      "midi": 36,
      "hit": false,
      "t": 240077.73280833653,
      "d": 1930.3267750000232,
      "v": 80
    },
    {
      "midi": 48,
      "hit": false,
      "t": 240077.73280833653,
      "d": 1930.3267750000232,
      "v": 80
    },
    {
      "midi": 65,
      "hit": false,
      "t": 242044.94480833656,
      "d": 323.77030833333265,
      "v": 64
    },
    {
      "midi": 67,
      "hit": false,
      "t": 242044.94480833656,
      "d": 323.77030833333265,
      "v": 100
    },
    {
      "midi": 31,
      "hit": false,
      "t": 242044.94480833656,
      "d": 327.8686666666763,
      "v": 100
    },
    {
      "midi": 43,
      "hit": false,
      "t": 242044.94480833656,
      "d": 327.8686666666763,
      "v": 100
    },
    {
      "midi": 58,
      "hit": false,
      "t": 242044.94480833656,
      "d": 348.3604583333363,
      "v": 100
    },
    {
      "midi": 62,
      "hit": false,
      "t": 242044.94480833656,
      "d": 348.3604583333363,
      "v": 100
    },
    {
      "midi": 65,
      "hit": false,
      "t": 242536.74780833657,
      "d": 344.26209999999264,
      "v": 64
    },
    {
      "midi": 67,
      "hit": false,
      "t": 242536.74780833657,
      "d": 344.26209999999264,
      "v": 100
    },
    {
      "midi": 58,
      "hit": false,
      "t": 242536.74780833657,
      "d": 368.8522499999963,
      "v": 100
    },
    {
      "midi": 62,
      "hit": false,
      "t": 242536.74780833657,
      "d": 381.1473249999981,
      "v": 100
    },
    {
      "midi": 58,
      "hit": false,
      "t": 243028.55080833656,
      "d": 286.8850833333272,
      "v": 100
    },
    {
      "midi": 65,
      "hit": false,
      "t": 243028.55080833656,
      "d": 295.0817999999854,
      "v": 64
    },
    {
      "midi": 67,
      "hit": false,
      "t": 243028.55080833656,
      "d": 295.0817999999854,
      "v": 100
    },
    {
      "midi": 62,
      "hit": false,
      "t": 243028.55080833656,
      "d": 303.27851666664355,
      "v": 100
    },
    {
      "midi": 45,
      "hit": false,
      "t": 243356.4194750032,
      "d": 307.3768750000163,
      "v": 100
    },
    {
      "midi": 33,
      "hit": false,
      "t": 243356.4194750032,
      "d": 315.5735916666745,
      "v": 100
    },
    {
      "midi": 60,
      "hit": false,
      "t": 243520.35380833654,
      "d": 323.77030833333265,
      "v": 100
    },
    {
      "midi": 65,
      "hit": false,
      "t": 243520.35380833654,
      "d": 323.77030833333265,
      "v": 100
    },
    {
      "midi": 57,
      "hit": false,
      "t": 243520.35380833654,
      "d": 331.96702500001993,
      "v": 100
    },
    {
      "midi": 46,
      "hit": false,
      "t": 243848.22247500322,
      "d": 336.06538333333447,
      "v": 100
    },
    {
      "midi": 34,
      "hit": false,
      "t": 243848.22247500322,
      "d": 348.3604583333363,
      "v": 100
    },
    {
      "midi": 65,
      "hit": false,
      "t": 244012.15680833656,
      "d": 282.78672500001267,
      "v": 100
    },
    {
      "midi": 58,
      "hit": false,
      "t": 244012.15680833656,
      "d": 299.1801583333581,
      "v": 100
    },
    {
      "midi": 60,
      "hit": false,
      "t": 244012.15680833656,
      "d": 299.1801583333581,
      "v": 100
    },
    {
      "midi": 65,
      "hit": false,
      "t": 244503.95980833657,
      "d": 311.47523333333083,
      "v": 100
    },
    {
      "midi": 58,
      "hit": false,
      "t": 244503.95980833657,
      "d": 323.77030833333265,
      "v": 100
    },
    {
      "midi": 60,
      "hit": false,
      "t": 244503.95980833657,
      "d": 331.9670249999908,
      "v": 100
    },
    {
      "midi": 65,
      "hit": false,
      "t": 244995.76280833656,
      "d": 290.98344166667084,
      "v": 100
    },
    {
      "midi": 58,
      "hit": false,
      "t": 244995.76280833656,
      "d": 299.180158333329,
      "v": 100
    },
    {
      "midi": 60,
      "hit": false,
      "t": 244995.76280833656,
      "d": 303.27851666667266,
      "v": 100
    },
    {
      "midi": 36,
      "hit": false,
      "t": 245323.63147500323,
      "d": 295.0818000000145,
      "v": 100
    },
    {
      "midi": 48,
      "hit": false,
      "t": 245323.63147500323,
      "d": 307.3768750000163,
      "v": 100
    },
    {
      "midi": 64,
      "hit": false,
      "t": 245487.56580833657,
      "d": 323.77030833333265,
      "v": 100
    },
    {
      "midi": 55,
      "hit": false,
      "t": 245487.56580833657,
      "d": 327.8686666666763,
      "v": 100
    },
    {
      "midi": 60,
      "hit": false,
      "t": 245487.56580833657,
      "d": 336.06538333333447,
      "v": 100
    },
    {
      "midi": 50,
      "hit": false,
      "t": 245815.43447500325,
      "d": 356.55717499999446,
      "v": 100
    },
    {
      "midi": 38,
      "hit": false,
      "t": 245815.43447500325,
      "d": 368.8522499999963,
      "v": 100
    },
    {
      "midi": 65,
      "hit": false,
      "t": 245979.36880833659,
      "d": 303.27851666667266,
      "v": 100
    },
    {
      "midi": 69,
      "hit": false,
      "t": 245979.36880833659,
      "d": 307.3768750000163,
      "v": 100
    },
    {
      "midi": 62,
      "hit": false,
      "t": 245979.36880833659,
      "d": 331.96702500001993,
      "v": 100
    },
    {
      "midi": 65,
      "hit": false,
      "t": 246471.1718083366,
      "d": 319.671949999989,
      "v": 100
    },
    {
      "midi": 69,
      "hit": false,
      "t": 246471.1718083366,
      "d": 327.8686666666472,
      "v": 100
    },
    {
      "midi": 62,
      "hit": false,
      "t": 246471.1718083366,
      "d": 336.06538333330536,
      "v": 100
    },
    {
      "midi": 65,
      "hit": false,
      "t": 246962.97480833658,
      "d": 299.180158333329,
      "v": 100
    },
    {
      "midi": 62,
      "hit": false,
      "t": 246962.97480833658,
      "d": 303.27851666667266,
      "v": 100
    },
    {
      "midi": 69,
      "hit": false,
      "t": 246962.97480833658,
      "d": 303.27851666667266,
      "v": 100
    },
    {
      "midi": 40,
      "hit": false,
      "t": 247290.84347500326,
      "d": 303.27851666667266,
      "v": 100
    },
    {
      "midi": 52,
      "hit": false,
      "t": 247290.84347500326,
      "d": 303.27851666667266,
      "v": 100
    },
    {
      "midi": 64,
      "hit": false,
      "t": 247454.7778083366,
      "d": 303.27851666667266,
      "v": 100
    },
    {
      "midi": 67,
      "hit": false,
      "t": 247454.7778083366,
      "d": 303.27851666667266,
      "v": 100
    },
    {
      "midi": 60,
      "hit": false,
      "t": 247454.7778083366,
      "d": 311.47523333333083,
      "v": 100
    },
    {
      "midi": 53,
      "hit": false,
      "t": 247782.64647500328,
      "d": 303.27851666667266,
      "v": 100
    },
    {
      "midi": 41,
      "hit": false,
      "t": 247782.64647500328,
      "d": 307.3768750000163,
      "v": 100
    },
    {
      "midi": 60,
      "hit": false,
      "t": 247946.5808083366,
      "d": 290.98344166667084,
      "v": 100
    },
    {
      "midi": 65,
      "hit": false,
      "t": 247946.5808083366,
      "d": 299.180158333329,
      "v": 100
    },
    {
      "midi": 69,
      "hit": false,
      "t": 247946.5808083366,
      "d": 307.3768749999872,
      "v": 100
    },
    {
      "midi": 65,
      "hit": false,
      "t": 248438.3838083366,
      "d": 336.06538333333447,
      "v": 100
    },
    {
      "midi": 60,
      "hit": false,
      "t": 248438.3838083366,
      "d": 340.1637416666781,
      "v": 100
    },
    {
      "midi": 69,
      "hit": false,
      "t": 248438.3838083366,
      "d": 340.1637416666781,
      "v": 100
    },
    {
      "midi": 65,
      "hit": false,
      "t": 248930.1868083366,
      "d": 233.6064250000054,
      "v": 100
    },
    {
      "midi": 60,
      "hit": false,
      "t": 248930.1868083366,
      "d": 249.99985833335086,
      "v": 100
    },
    {
      "midi": 69,
      "hit": false,
      "t": 248930.1868083366,
      "d": 249.99985833335086,
      "v": 100
    },
    {
      "midi": 30,
      "hit": false,
      "t": 249258.0554750033,
      "d": 491.80299999998533,
      "v": 100
    },
    {
      "midi": 42,
      "hit": false,
      "t": 249258.0554750033,
      "d": 499.9997166666726,
      "v": 100
    },
    {
      "midi": 66,
      "hit": false,
      "t": 249421.98980833663,
      "d": 319.671949999989,
      "v": 100
    },
    {
      "midi": 57,
      "hit": false,
      "t": 249421.98980833663,
      "d": 327.8686666666472,
      "v": 100
    },
    {
      "midi": 62,
      "hit": false,
      "t": 249421.98980833663,
      "d": 331.9670249999908,
      "v": 100
    },
    {
      "midi": 26,
      "hit": false,
      "t": 249749.85847500328,
      "d": 155.73761666667997,
      "v": 85
    },
    {
      "midi": 38,
      "hit": false,
      "t": 249749.85847500328,
      "d": 155.73761666667997,
      "v": 85
    },
    {
      "midi": 65,
      "hit": false,
      "t": 249913.7928083366,
      "d": 323.77030833333265,
      "v": 64
    },
    {
      "midi": 67,
      "hit": false,
      "t": 249913.7928083366,
      "d": 323.77030833333265,
      "v": 100
    },
    {
      "midi": 31,
      "hit": false,
      "t": 249913.7928083366,
      "d": 327.8686666666763,
      "v": 100
    },
    {
      "midi": 43,
      "hit": false,
      "t": 249913.7928083366,
      "d": 327.8686666666763,
      "v": 100
    },
    {
      "midi": 58,
      "hit": false,
      "t": 249913.7928083366,
      "d": 348.3604583333363,
      "v": 100
    },
    {
      "midi": 62,
      "hit": false,
      "t": 249913.7928083366,
      "d": 348.3604583333363,
      "v": 100
    },
    {
      "midi": 65,
      "hit": false,
      "t": 250405.59580833663,
      "d": 344.26209999999264,
      "v": 64
    },
    {
      "midi": 67,
      "hit": false,
      "t": 250405.59580833663,
      "d": 344.26209999999264,
      "v": 100
    },
    {
      "midi": 58,
      "hit": false,
      "t": 250405.59580833663,
      "d": 368.8522499999963,
      "v": 100
    },
    {
      "midi": 62,
      "hit": false,
      "t": 250405.59580833663,
      "d": 381.1473249999981,
      "v": 100
    },
    {
      "midi": 58,
      "hit": false,
      "t": 250897.3988083366,
      "d": 286.8850833333272,
      "v": 100
    },
    {
      "midi": 65,
      "hit": false,
      "t": 250897.3988083366,
      "d": 295.0817999999854,
      "v": 64
    },
    {
      "midi": 67,
      "hit": false,
      "t": 250897.3988083366,
      "d": 295.0817999999854,
      "v": 100
    },
    {
      "midi": 62,
      "hit": false,
      "t": 250897.3988083366,
      "d": 303.27851666664355,
      "v": 100
    },
    {
      "midi": 45,
      "hit": false,
      "t": 251225.26747500326,
      "d": 307.3768750000163,
      "v": 100
    },
    {
      "midi": 33,
      "hit": false,
      "t": 251225.26747500326,
      "d": 315.5735916666745,
      "v": 100
    },
    {
      "midi": 60,
      "hit": false,
      "t": 251389.2018083366,
      "d": 323.77030833333265,
      "v": 100
    },
    {
      "midi": 65,
      "hit": false,
      "t": 251389.2018083366,
      "d": 323.77030833333265,
      "v": 100
    },
    {
      "midi": 57,
      "hit": false,
      "t": 251389.2018083366,
      "d": 331.96702500001993,
      "v": 100
    },
    {
      "midi": 46,
      "hit": false,
      "t": 251717.07047500327,
      "d": 336.06538333333447,
      "v": 100
    },
    {
      "midi": 34,
      "hit": false,
      "t": 251717.07047500327,
      "d": 348.3604583333363,
      "v": 100
    },
    {
      "midi": 65,
      "hit": false,
      "t": 251881.0048083366,
      "d": 282.78672500001267,
      "v": 100
    },
    {
      "midi": 58,
      "hit": false,
      "t": 251881.0048083366,
      "d": 299.1801583333581,
      "v": 100
    },
    {
      "midi": 60,
      "hit": false,
      "t": 251881.0048083366,
      "d": 299.1801583333581,
      "v": 100
    },
    {
      "midi": 65,
      "hit": false,
      "t": 252372.80780833663,
      "d": 311.47523333333083,
      "v": 100
    },
    {
      "midi": 58,
      "hit": false,
      "t": 252372.80780833663,
      "d": 323.77030833333265,
      "v": 100
    },
    {
      "midi": 60,
      "hit": false,
      "t": 252372.80780833663,
      "d": 331.9670249999908,
      "v": 100
    },
    {
      "midi": 65,
      "hit": false,
      "t": 252864.6108083366,
      "d": 290.98344166667084,
      "v": 100
    },
    {
      "midi": 58,
      "hit": false,
      "t": 252864.6108083366,
      "d": 299.180158333329,
      "v": 100
    },
    {
      "midi": 60,
      "hit": false,
      "t": 252864.6108083366,
      "d": 303.27851666667266,
      "v": 100
    },
    {
      "midi": 36,
      "hit": false,
      "t": 253192.4794750033,
      "d": 295.0818000000145,
      "v": 100
    },
    {
      "midi": 48,
      "hit": false,
      "t": 253192.4794750033,
      "d": 307.3768750000163,
      "v": 100
    },
    {
      "midi": 64,
      "hit": false,
      "t": 253356.41380833663,
      "d": 323.77030833333265,
      "v": 100
    },
    {
      "midi": 55,
      "hit": false,
      "t": 253356.41380833663,
      "d": 327.8686666666763,
      "v": 100
    },
    {
      "midi": 60,
      "hit": false,
      "t": 253356.41380833663,
      "d": 336.06538333333447,
      "v": 100
    },
    {
      "midi": 50,
      "hit": false,
      "t": 253684.2824750033,
      "d": 356.55717499999446,
      "v": 100
    },
    {
      "midi": 38,
      "hit": false,
      "t": 253684.2824750033,
      "d": 368.8522499999963,
      "v": 100
    },
    {
      "midi": 65,
      "hit": false,
      "t": 253848.21680833664,
      "d": 303.27851666667266,
      "v": 100
    },
    {
      "midi": 69,
      "hit": false,
      "t": 253848.21680833664,
      "d": 307.3768750000163,
      "v": 100
    },
    {
      "midi": 62,
      "hit": false,
      "t": 253848.21680833664,
      "d": 331.96702500001993,
      "v": 100
    },
    {
      "midi": 65,
      "hit": false,
      "t": 254340.01980833666,
      "d": 319.671949999989,
      "v": 100
    },
    {
      "midi": 69,
      "hit": false,
      "t": 254340.01980833666,
      "d": 327.8686666666472,
      "v": 100
    },
    {
      "midi": 62,
      "hit": false,
      "t": 254340.01980833666,
      "d": 336.06538333330536,
      "v": 100
    },
    {
      "midi": 65,
      "hit": false,
      "t": 254831.82280833664,
      "d": 299.180158333329,
      "v": 100
    },
    {
      "midi": 62,
      "hit": false,
      "t": 254831.82280833664,
      "d": 303.27851666667266,
      "v": 100
    },
    {
      "midi": 69,
      "hit": false,
      "t": 254831.82280833664,
      "d": 303.27851666667266,
      "v": 100
    },
    {
      "midi": 40,
      "hit": false,
      "t": 255159.69147500332,
      "d": 303.27851666667266,
      "v": 100
    },
    {
      "midi": 52,
      "hit": false,
      "t": 255159.69147500332,
      "d": 303.27851666667266,
      "v": 100
    },
    {
      "midi": 64,
      "hit": false,
      "t": 255323.62580833666,
      "d": 434.425983333349,
      "v": 80
    },
    {
      "midi": 60,
      "hit": false,
      "t": 255323.62580833666,
      "d": 446.7210583333508,
      "v": 105
    },
    {
      "midi": 67,
      "hit": false,
      "t": 255323.62580833666,
      "d": 471.31120833335444,
      "v": 80
    },
    {
      "midi": 65,
      "hit": false,
      "t": 255815.42880833667,
      "d": 7729.503816666664,
      "v": 96
    },
    {
      "midi": 57,
      "hit": false,
      "t": 255815.42880833667,
      "d": 7733.602175000007,
      "v": 101
    },
    {
      "midi": 69,
      "hit": false,
      "t": 255815.42880833667,
      "d": 7737.700533333351,
      "v": 88
    },
    {
      "midi": 60,
      "hit": false,
      "t": 255815.42880833667,
      "d": 7741.7988916666945,
      "v": 105
    },
    {
      "midi": 41,
      "hit": false,
      "t": 255815.42880833667,
      "d": 7762.2906833333545,
      "v": 106
    }
  ]
}