{
  "jsonPath": "Rock/Alternative Rock/No More/suicide-commando-86-live-oberhausen-old-daddy.json",
  "path": "Rock\\Alternative Rock\\No More\\Suicide Commando 86 live Oberhausen Old Daddy.mid",
  "name": "Suicide Commando 86 live Oberhausen Old Daddy",
  "difficulty": "Advanced",
  "bpm": 148.000148000148,
  "notes": [
    {
      "midi": 55,
      "hit": false,
      "t": 3243.2400000000002,
      "d": 498.31031250000024,
      "v": 64
    },
    {
      "midi": 58,
      "hit": false,
      "t": 3243.2400000000002,
      "d": 515.2021875,
      "v": 102
    },
    {
      "midi": 51,
      "hit": false,
      "t": 3243.2400000000002,
      "d": 519.4251562499999,
      "v": 93
    },
    {
      "midi": 63,
      "hit": false,
      "t": 3243.2400000000002,
      "d": 540.54,
      "v": 102
    },
    {
      "midi": 39,
      "hit": false,
      "t": 3243.2400000000002,
      "d": 1359.7959375000023,
      "v": 96
    },
    {
      "midi": 51,
      "hit": false,
      "t": 3648.6450000000004,
      "d": 192.14507812500005,
      "v": 107
    },
    {
      "midi": 51,
      "hit": false,
      "t": 3851.3475000000003,
      "d": 667.2290625000019,
      "v": 72
    },
    {
      "midi": 46,
      "hit": false,
      "t": 3851.3475000000003,
      "d": 236.48624999999993,
      "v": 101
    },
    {
      "midi": 63,
      "hit": false,
      "t": 4054.05,
      "d": 272.3814843750006,
      "v": 83
    },
    {
      "midi": 58,
      "hit": false,
      "t": 4054.05,
      "d": 316.7226562500009,
      "v": 89
    },
    {
      "midi": 48,
      "hit": false,
      "t": 4054.05,
      "d": 185.81062500000007,
      "v": 84
    },
    {
      "midi": 65,
      "hit": false,
      "t": 4256.7525000000005,
      "d": 185.81062500000098,
      "v": 73
    },
    {
      "midi": 51,
      "hit": false,
      "t": 4256.7525000000005,
      "d": 181.58765624999978,
      "v": 89
    },
    {
      "midi": 53,
      "hit": false,
      "t": 4459.455,
      "d": 215.3714062500003,
      "v": 81
    },
    {
      "midi": 58,
      "hit": false,
      "t": 4459.455000000002,
      "d": 238.59773437500098,
      "v": 81
    },
    {
      "midi": 63,
      "hit": false,
      "t": 4459.455000000002,
      "d": 266.04703125000106,
      "v": 70
    },
    {
      "midi": 67,
      "hit": false,
      "t": 4459.455000000002,
      "d": 299.83078125000065,
      "v": 85
    },
    {
      "midi": 55,
      "hit": false,
      "t": 4662.1575,
      "d": 154.1383593749997,
      "v": 97
    },
    {
      "midi": 51,
      "hit": false,
      "t": 4662.157500000003,
      "d": 63.34453124999982,
      "v": 76
    },
    {
      "midi": 56,
      "hit": false,
      "t": 4864.86,
      "d": 215.3714062500003,
      "v": 96
    },
    {
      "midi": 44,
      "hit": false,
      "t": 4864.860000000002,
      "d": 458.19210937499975,
      "v": 89
    },
    {
      "midi": 63,
      "hit": false,
      "t": 4864.860000000002,
      "d": 475.083984375,
      "v": 99
    },
    {
      "midi": 68,
      "hit": false,
      "t": 4864.860000000002,
      "d": 481.41843750000044,
      "v": 86
    },
    {
      "midi": 60,
      "hit": false,
      "t": 4864.860000000002,
      "d": 485.6414062500007,
      "v": 70
    },
    {
      "midi": 55,
      "hit": false,
      "t": 5067.5625,
      "d": 185.81062500000007,
      "v": 109
    },
    {
      "midi": 53,
      "hit": false,
      "t": 5270.265,
      "d": 418.0739062500006,
      "v": 114
    },
    {
      "midi": 56,
      "hit": false,
      "t": 5270.265000000002,
      "d": 137.24648437500127,
      "v": 72
    },
    {
      "midi": 44,
      "hit": false,
      "t": 5472.967500000003,
      "d": 675.6749999999993,
      "v": 70
    },
    {
      "midi": 51,
      "hit": false,
      "t": 5675.670000000001,
      "d": 158.361328125,
      "v": 114
    },
    {
      "midi": 56,
      "hit": false,
      "t": 5675.670000000004,
      "d": 141.46945312499975,
      "v": 78
    },
    {
      "midi": 63,
      "hit": false,
      "t": 5675.670000000004,
      "d": 624.9993749999994,
      "v": 83
    },
    {
      "midi": 53,
      "hit": false,
      "t": 5878.372500000001,
      "d": 209.03695312500076,
      "v": 79
    },
    {
      "midi": 55,
      "hit": false,
      "t": 5878.372500000003,
      "d": 114.02015624999967,
      "v": 76
    },
    {
      "midi": 55,
      "hit": false,
      "t": 6081.075000000002,
      "d": 152.02687500000047,
      "v": 95
    },
    {
      "midi": 56,
      "hit": false,
      "t": 6081.075000000003,
      "d": 242.82070312500036,
      "v": 89
    },
    {
      "midi": 58,
      "hit": false,
      "t": 6283.777500000002,
      "d": 168.91874999999982,
      "v": 114
    },
    {
      "midi": 44,
      "hit": false,
      "t": 6283.777500000003,
      "d": 57.01007812500029,
      "v": 56
    },
    {
      "midi": 55,
      "hit": false,
      "t": 6486.480000000001,
      "d": 120.35460937500011,
      "v": 108
    },
    {
      "midi": 60,
      "hit": false,
      "t": 6486.480000000001,
      "d": 137.24648437500036,
      "v": 114
    },
    {
      "midi": 46,
      "hit": false,
      "t": 6486.480000000003,
      "d": 67.56750000000011,
      "v": 90
    },
    {
      "midi": 53,
      "hit": false,
      "t": 6486.480000000003,
      "d": 76.01343749999978,
      "v": 71
    },
    {
      "midi": 58,
      "hit": false,
      "t": 6486.480000000003,
      "d": 90.79382812499989,
      "v": 78
    },
    {
      "midi": 62,
      "hit": false,
      "t": 6486.480000000003,
      "d": 103.46273437499985,
      "v": 83
    },
    {
      "midi": 53,
      "hit": false,
      "t": 6891.885000000002,
      "d": 2804.0512500000004,
      "v": 114
    },
    {
      "midi": 58,
      "hit": false,
      "t": 6891.885000000002,
      "d": 2820.943125,
      "v": 114
    },
    {
      "midi": 53,
      "hit": false,
      "t": 6891.885000000003,
      "d": 327.2800781249998,
      "v": 79
    },
    {
      "midi": 46,
      "hit": false,
      "t": 6891.885000000003,
      "d": 475.083984375,
      "v": 102
    },
    {
      "midi": 58,
      "hit": false,
      "t": 6891.885000000003,
      "d": 878.3775000000005,
      "v": 80
    },
    {
      "midi": 62,
      "hit": false,
      "t": 6891.885000000003,
      "d": 880.4889843750007,
      "v": 60
    },
    {
      "midi": 65,
      "hit": false,
      "t": 6891.885000000003,
      "d": 907.9382812500007,
      "v": 94
    },
    {
      "midi": 53,
      "hit": false,
      "t": 7297.290000000003,
      "d": 238.59773437500098,
      "v": 53
    },
    {
      "midi": 46,
      "hit": false,
      "t": 7398.641250000003,
      "d": 576.4352343750006,
      "v": 67
    },
    {
      "midi": 53,
      "hit": false,
      "t": 7702.695000000003,
      "d": 154.13835937500062,
      "v": 79
    },
    {
      "midi": 58,
      "hit": false,
      "t": 7905.397500000004,
      "d": 481.4184374999995,
      "v": 72
    },
    {
      "midi": 65,
      "hit": false,
      "t": 7905.397500000004,
      "d": 671.4520312500017,
      "v": 64
    },
    {
      "midi": 62,
      "hit": false,
      "t": 7905.397500000004,
      "d": 692.5668750000013,
      "v": 81
    },
    {
      "midi": 46,
      "hit": false,
      "t": 8108.100000000004,
      "d": 1273.2250781250023,
      "v": 86
    },
    {
      "midi": 53,
      "hit": false,
      "t": 8310.802500000003,
      "d": 192.1450781250005,
      "v": 73
    },
    {
      "midi": 58,
      "hit": false,
      "t": 8513.505000000005,
      "d": 84.45937500000036,
      "v": 72
    },
    {
      "midi": 60,
      "hit": false,
      "t": 8716.207500000006,
      "d": 84.45937500000036,
      "v": 83
    },
    {
      "midi": 65,
      "hit": false,
      "t": 8716.207500000006,
      "d": 86.57085937500051,
      "v": 83
    },
    {
      "midi": 60,
      "hit": false,
      "t": 8918.910000000007,
      "d": 84.45937500000036,
      "v": 83
    },
    {
      "midi": 65,
      "hit": false,
      "t": 8918.910000000007,
      "d": 715.7932031249984,
      "v": 73
    },
    {
      "midi": 62,
      "hit": false,
      "t": 9020.261250000007,
      "d": 614.4419531249987,
      "v": 73
    },
    {
      "midi": 58,
      "hit": false,
      "t": 9324.315000000006,
      "d": 287.1618749999998,
      "v": 96
    },
    {
      "midi": 46,
      "hit": false,
      "t": 9527.017500000005,
      "d": 63.34453125000073,
      "v": 76
    },
    {
      "midi": 55,
      "hit": false,
      "t": 9729.720000000005,
      "d": 350.5064062500005,
      "v": 73
    },
    {
      "midi": 58,
      "hit": false,
      "t": 9729.720000000005,
      "d": 380.0671875000007,
      "v": 102
    },
    {
      "midi": 63,
      "hit": false,
      "t": 9729.720000000005,
      "d": 418.0739062500015,
      "v": 102
    },
    {
      "midi": 39,
      "hit": false,
      "t": 9729.720000000005,
      "d": 1545.6065625000028,
      "v": 96
    },
    {
      "midi": 51,
      "hit": false,
      "t": 10135.125000000002,
      "d": 194.25656250000065,
      "v": 110
    },
    {
      "midi": 51,
      "hit": false,
      "t": 10135.125000000005,
      "d": 779.137734375001,
      "v": 93
    },
    {
      "midi": 46,
      "hit": false,
      "t": 10337.827500000003,
      "d": 242.82070312499854,
      "v": 90
    },
    {
      "midi": 58,
      "hit": false,
      "t": 10337.827500000007,
      "d": 101.35124999999971,
      "v": 63
    },
    {
      "midi": 48,
      "hit": false,
      "t": 10540.530000000002,
      "d": 198.47953124999913,
      "v": 78
    },
    {
      "midi": 58,
      "hit": false,
      "t": 10540.530000000006,
      "d": 137.24648437500036,
      "v": 90
    },
    {
      "midi": 63,
      "hit": false,
      "t": 10540.530000000006,
      "d": 171.03023437500087,
      "v": 90
    },
    {
      "midi": 51,
      "hit": false,
      "t": 10743.232500000002,
      "d": 175.25320312499935,
      "v": 87
    },
    {
      "midi": 58,
      "hit": false,
      "t": 10743.232500000007,
      "d": 97.12828124999942,
      "v": 81
    },
    {
      "midi": 65,
      "hit": false,
      "t": 10743.232500000007,
      "d": 175.25320312499935,
      "v": 81
    },
    {
      "midi": 53,
      "hit": false,
      "t": 10945.935000000001,
      "d": 232.26328124999964,
      "v": 81
    },
    {
      "midi": 63,
      "hit": false,
      "t": 10945.935000000007,
      "d": 152.02687499999956,
      "v": 76
    },
    {
      "midi": 67,
      "hit": false,
      "t": 10945.935000000007,
      "d": 177.3646874999995,
      "v": 81
    },
    {
      "midi": 58,
      "hit": false,
      "t": 10945.935000000007,
      "d": 293.4963281250002,
      "v": 93
    },
    {
      "midi": 55,
      "hit": false,
      "t": 11148.6375,
      "d": 143.5809375000008,
      "v": 97
    },
    {
      "midi": 51,
      "hit": false,
      "t": 11148.637500000006,
      "d": 101.35125000000153,
      "v": 76
    },
    {
      "midi": 56,
      "hit": false,
      "t": 11351.340000000002,
      "d": 198.47953124999913,
      "v": 96
    },
    {
      "midi": 44,
      "hit": false,
      "t": 11351.340000000007,
      "d": 489.864375000001,
      "v": 86
    },
    {
      "midi": 68,
      "hit": false,
      "t": 11351.340000000007,
      "d": 513.0907031250008,
      "v": 83
    },
    {
      "midi": 60,
      "hit": false,
      "t": 11351.340000000007,
      "d": 565.8778125000008,
      "v": 67
    },
    {
      "midi": 63,
      "hit": false,
      "t": 11351.340000000007,
      "d": 591.2156250000007,
      "v": 74
    },
    {
      "midi": 55,
      "hit": false,
      "t": 11554.042500000001,
      "d": 177.3646874999995,
      "v": 102
    },
    {
      "midi": 53,
      "hit": false,
      "t": 11756.745,
      "d": 401.18203124999854,
      "v": 114
    },
    {
      "midi": 56,
      "hit": false,
      "t": 11756.745000000008,
      "d": 232.26328124999964,
      "v": 78
    },
    {
      "midi": 44,
      "hit": false,
      "t": 11959.447500000007,
      "d": 709.4587499999961,
      "v": 89
    },
    {
      "midi": 51,
      "hit": false,
      "t": 12162.15,
      "d": 198.47953124999913,
      "v": 104
    },
    {
      "midi": 56,
      "hit": false,
      "t": 12162.150000000007,
      "d": 152.02687499999956,
      "v": 81
    },
    {
      "midi": 60,
      "hit": false,
      "t": 12162.150000000007,
      "d": 390.6246093749978,
      "v": 73
    },
    {
      "midi": 63,
      "hit": false,
      "t": 12162.150000000007,
      "d": 580.6582031249964,
      "v": 65
    },
    {
      "midi": 53,
      "hit": false,
      "t": 12364.852499999999,
      "d": 242.82070312499854,
      "v": 84
    },
    {
      "midi": 55,
      "hit": false,
      "t": 12364.852500000006,
      "d": 92.90531249999913,
      "v": 67
    },
    {
      "midi": 55,
      "hit": false,
      "t": 12567.554999999998,
      "d": 228.04031249999935,
      "v": 88
    },
    {
      "midi": 60,
      "hit": false,
      "t": 12567.555000000004,
      "d": 194.25656249999884,
      "v": 63
    },
    {
      "midi": 56,
      "hit": false,
      "t": 12567.555000000004,
      "d": 255.48960937499942,
      "v": 90
    },
    {
      "midi": 58,
      "hit": false,
      "t": 12770.257499999998,
      "d": 120.3546093749992,
      "v": 101
    },
    {
      "midi": 44,
      "hit": false,
      "t": 12770.257500000003,
      "d": 80.23640625000007,
      "v": 56
    },
    {
      "midi": 56,
      "hit": false,
      "t": 12972.959999999997,
      "d": 120.3546093749992,
      "v": 104
    },
    {
      "midi": 60,
      "hit": false,
      "t": 12972.959999999997,
      "d": 126.68906249999964,
      "v": 114
    },
    {
      "midi": 63,
      "hit": false,
      "t": 12972.959999999997,
      "d": 126.68906249999964,
      "v": 114
    },
    {
      "midi": 46,
      "hit": false,
      "t": 12972.960000000003,
      "d": 69.67898437499935,
      "v": 102
    },
    {
      "midi": 53,
      "hit": false,
      "t": 12972.960000000003,
      "d": 73.90195312499964,
      "v": 64
    },
    {
      "midi": 58,
      "hit": false,
      "t": 12972.960000000003,
      "d": 114.02015624999876,
      "v": 96
    },
    {
      "midi": 62,
      "hit": false,
      "t": 13378.364999999998,
      "d": 2795.6053124999926,
      "v": 114
    },
    {
      "midi": 65,
      "hit": false,
      "t": 13378.364999999998,
      "d": 2795.6053124999926,
      "v": 114
    },
    {
      "midi": 58,
      "hit": false,
      "t": 13378.364999999998,
      "d": 2823.0546093749927,
      "v": 114
    },
    {
      "midi": 53,
      "hit": false,
      "t": 13378.365000000002,
      "d": 304.0537499999991,
      "v": 83
    },
    {
      "midi": 46,
      "hit": false,
      "t": 13378.365000000002,
      "d": 502.53328124999825,
      "v": 102
    },
    {
      "midi": 65,
      "hit": false,
      "t": 13378.365000000002,
      "d": 912.1612499999992,
      "v": 60
    },
    {
      "midi": 58,
      "hit": false,
      "t": 13378.365000000002,
      "d": 920.6071874999998,
      "v": 90
    },
    {
      "midi": 62,
      "hit": false,
      "t": 13378.365000000002,
      "d": 920.6071874999998,
      "v": 89
    },
    {
      "midi": 53,
      "hit": false,
      "t": 13783.77,
      "d": 255.48960937499942,
      "v": 60
    },
    {
      "midi": 46,
      "hit": false,
      "t": 13986.4725,
      "d": 1083.1914843749983,
      "v": 72
    },
    {
      "midi": 53,
      "hit": false,
      "t": 14189.175,
      "d": 90.7938281250008,
      "v": 67
    },
    {
      "midi": 60,
      "hit": false,
      "t": 14391.8775,
      "d": 202.70249999999942,
      "v": 90
    },
    {
      "midi": 65,
      "hit": false,
      "t": 14391.8775,
      "d": 1070.5225781249974,
      "v": 81
    },
    {
      "midi": 62,
      "hit": false,
      "t": 14594.58,
      "d": 901.6038281249985,
      "v": 72
    },
    {
      "midi": 53,
      "hit": false,
      "t": 14797.2825,
      "d": 472.97249999999804,
      "v": 73
    },
    {
      "midi": 46,
      "hit": false,
      "t": 15202.687499999998,
      "d": 726.350625000001,
      "v": 99
    },
    {
      "midi": 53,
      "hit": false,
      "t": 15405.389999999998,
      "d": 323.05710937500044,
      "v": 81
    },
    {
      "midi": 65,
      "hit": false,
      "t": 15608.092499999999,
      "d": 608.1075000000019,
      "v": 89
    },
    {
      "midi": 53,
      "hit": false,
      "t": 15810.794999999998,
      "d": 405.4050000000025,
      "v": 78
    },
    {
      "midi": 46,
      "hit": false,
      "t": 16013.4975,
      "d": 192.1450781250005,
      "v": 76
    },
    {
      "midi": 39,
      "hit": false,
      "t": 16216.19999999999,
      "d": 937.4990624999991,
      "v": 83
    },
    {
      "midi": 58,
      "hit": false,
      "t": 16216.2,
      "d": 8.445937500000582,
      "v": 89
    },
    {
      "midi": 51,
      "hit": false,
      "t": 16216.2,
      "d": 289.2733593749981,
      "v": 99
    },
    {
      "midi": 63,
      "hit": false,
      "t": 16216.2,
      "d": 819.2559374999983,
      "v": 90
    },
    {
      "midi": 55,
      "hit": false,
      "t": 16418.9025,
      "d": 287.16187499999796,
      "v": 53
    },
    {
      "midi": 46,
      "hit": false,
      "t": 16621.60499999999,
      "d": 1195.1001562500023,
      "v": 83
    },
    {
      "midi": 51,
      "hit": false,
      "t": 16621.60499999999,
      "d": 1233.106875000005,
      "v": 96
    },
    {
      "midi": 51,
      "hit": false,
      "t": 16621.605,
      "d": 743.2425000000003,
      "v": 48
    },
    {
      "midi": 55,
      "hit": false,
      "t": 16824.3075,
      "d": 654.5601562500015,
      "v": 64
    },
    {
      "midi": 58,
      "hit": false,
      "t": 17027.01,
      "d": 130.91203125000175,
      "v": 72
    },
    {
      "midi": 39,
      "hit": false,
      "t": 17229.71249999999,
      "d": 272.3814843750006,
      "v": 63
    },
    {
      "midi": 58,
      "hit": false,
      "t": 17229.7125,
      "d": 232.26328124999782,
      "v": 44
    },
    {
      "midi": 63,
      "hit": false,
      "t": 17229.7125,
      "d": 232.26328124999782,
      "v": 99
    },
    {
      "midi": 60,
      "hit": false,
      "t": 17432.415,
      "d": 158.361328125,
      "v": 64
    },
    {
      "midi": 51,
      "hit": false,
      "t": 17533.76625,
      "d": 97.12828124999942,
      "v": 54
    },
    {
      "midi": 39,
      "hit": false,
      "t": 17635.11749999999,
      "d": 171.03023437500087,
      "v": 67
    },
    {
      "midi": 58,
      "hit": false,
      "t": 17635.1175,
      "d": 76.0134375000016,
      "v": 90
    },
    {
      "midi": 63,
      "hit": false,
      "t": 17635.1175,
      "d": 101.35125000000335,
      "v": 96
    },
    {
      "midi": 44,
      "hit": false,
      "t": 17837.819999999992,
      "d": 574.3237500000032,
      "v": 90
    },
    {
      "midi": 56,
      "hit": false,
      "t": 18040.522500000003,
      "d": 451.8576562499984,
      "v": 74
    },
    {
      "midi": 58,
      "hit": false,
      "t": 18040.522500000003,
      "d": 654.5601562499978,
      "v": 81
    },
    {
      "midi": 63,
      "hit": false,
      "t": 18040.522500000003,
      "d": 1127.5326562500013,
      "v": 83
    },
    {
      "midi": 51,
      "hit": false,
      "t": 18243.224999999995,
      "d": 546.8744531250013,
      "v": 90
    },
    {
      "midi": 56,
      "hit": false,
      "t": 18243.224999999995,
      "d": 1201.4346093750028,
      "v": 87
    },
    {
      "midi": 44,
      "hit": false,
      "t": 18445.9275,
      "d": 616.5534375000025,
      "v": 72
    },
    {
      "midi": 44,
      "hit": false,
      "t": 18648.629999999997,
      "d": 194.25656249999884,
      "v": 63
    },
    {
      "midi": 56,
      "hit": false,
      "t": 18648.63,
      "d": 175.25320312500116,
      "v": 68
    },
    {
      "midi": 51,
      "hit": false,
      "t": 18851.332499999997,
      "d": 259.7125781249997,
      "v": 51
    },
    {
      "midi": 56,
      "hit": false,
      "t": 18851.3325,
      "d": 25.337812500001746,
      "v": 33
    },
    {
      "midi": 58,
      "hit": false,
      "t": 18851.3325,
      "d": 323.0571093750041,
      "v": 86
    },
    {
      "midi": 44,
      "hit": false,
      "t": 19054.034999999996,
      "d": 84.45937499999854,
      "v": 51
    },
    {
      "midi": 56,
      "hit": false,
      "t": 19054.035000000003,
      "d": 114.02015625000058,
      "v": 57
    },
    {
      "midi": 51,
      "hit": false,
      "t": 19256.737499999996,
      "d": 164.69578125000044,
      "v": 67
    },
    {
      "midi": 44,
      "hit": false,
      "t": 19256.737499999996,
      "d": 185.8106250000019,
      "v": 53
    },
    {
      "midi": 53,
      "hit": false,
      "t": 19256.737500000003,
      "d": 525.7596093749999,
      "v": 64
    },
    {
      "midi": 58,
      "hit": false,
      "t": 19256.737500000003,
      "d": 532.0940625000003,
      "v": 63
    },
    {
      "midi": 62,
      "hit": false,
      "t": 19256.737500000003,
      "d": 2601.3487500000047,
      "v": 73
    },
    {
      "midi": 46,
      "hit": false,
      "t": 19459.44,
      "d": 508.8677343749987,
      "v": 89
    },
    {
      "midi": 46,
      "hit": false,
      "t": 19560.791250000002,
      "d": 886.8234375000029,
      "v": 40
    },
    {
      "midi": 58,
      "hit": false,
      "t": 19864.844999999998,
      "d": 591.2156249999971,
      "v": 85
    },
    {
      "midi": 53,
      "hit": false,
      "t": 19864.844999999998,
      "d": 722.1276562499988,
      "v": 78
    },
    {
      "midi": 53,
      "hit": false,
      "t": 19864.845000000005,
      "d": 371.62125000000015,
      "v": 53
    },
    {
      "midi": 58,
      "hit": false,
      "t": 19864.845000000005,
      "d": 914.2727343750048,
      "v": 62
    },
    {
      "midi": 46,
      "hit": false,
      "t": 20270.249999999996,
      "d": 479.3069531250003,
      "v": 56
    },
    {
      "midi": 53,
      "hit": false,
      "t": 20371.601250000003,
      "d": 278.71593750000466,
      "v": 54
    },
    {
      "midi": 58,
      "hit": false,
      "t": 20472.952499999996,
      "d": 424.4083593750038,
      "v": 60
    },
    {
      "midi": 46,
      "hit": false,
      "t": 20574.303750000006,
      "d": 447.63468750000175,
      "v": 48
    },
    {
      "midi": 53,
      "hit": false,
      "t": 20675.654999999995,
      "d": 215.37140625000393,
      "v": 72
    },
    {
      "midi": 53,
      "hit": false,
      "t": 20675.65500000001,
      "d": 390.6246093749978,
      "v": 58
    },
    {
      "midi": 46,
      "hit": false,
      "t": 20878.3575,
      "d": 519.425156250003,
      "v": 76
    },
    {
      "midi": 58,
      "hit": false,
      "t": 20878.35750000001,
      "d": 181.58765624999796,
      "v": 74
    },
    {
      "midi": 60,
      "hit": false,
      "t": 21081.06,
      "d": 225.92882812500102,
      "v": 84
    },
    {
      "midi": 53,
      "hit": false,
      "t": 21081.06,
      "d": 413.8509374999994,
      "v": 77
    },
    {
      "midi": 46,
      "hit": false,
      "t": 21081.06000000001,
      "d": 259.7125781249997,
      "v": 59
    },
    {
      "midi": 58,
      "hit": false,
      "t": 21283.7625,
      "d": 312.4996874999997,
      "v": 81
    },
    {
      "midi": 53,
      "hit": false,
      "t": 21283.762500000008,
      "d": 299.83078124999884,
      "v": 79
    },
    {
      "midi": 58,
      "hit": false,
      "t": 21283.762500000008,
      "d": 456.0806249999987,
      "v": 81
    },
    {
      "midi": 46,
      "hit": false,
      "t": 21486.465,
      "d": 202.70249999999942,
      "v": 54
    },
    {
      "midi": 46,
      "hit": false,
      "t": 21486.465000000007,
      "d": 998.7321093749997,
      "v": 83
    },
    {
      "midi": 53,
      "hit": false,
      "t": 21689.1675,
      "d": 109.79718750000029,
      "v": 66
    },
    {
      "midi": 53,
      "hit": false,
      "t": 21689.167500000007,
      "d": 171.03023437500087,
      "v": 70
    },
    {
      "midi": 46,
      "hit": false,
      "t": 21891.87,
      "d": 413.8509374999994,
      "v": 78
    },
    {
      "midi": 58,
      "hit": false,
      "t": 21891.870000000006,
      "d": 25.337812500001746,
      "v": 36
    },
    {
      "midi": 60,
      "hit": false,
      "t": 21891.870000000006,
      "d": 84.45937500000218,
      "v": 64
    },
    {
      "midi": 53,
      "hit": false,
      "t": 22094.5725,
      "d": 40.11820312499913,
      "v": 45
    },
    {
      "midi": 58,
      "hit": false,
      "t": 22094.5725,
      "d": 333.61453125000116,
      "v": 96
    },
    {
      "midi": 60,
      "hit": false,
      "t": 22094.57250000001,
      "d": 152.02687499999956,
      "v": 81
    },
    {
      "midi": 53,
      "hit": false,
      "t": 22297.274999999998,
      "d": 219.59437500000422,
      "v": 76
    },
    {
      "midi": 62,
      "hit": false,
      "t": 22297.27500000001,
      "d": 261.82406249999985,
      "v": 81
    },
    {
      "midi": 46,
      "hit": false,
      "t": 22499.9775,
      "d": 69.67898437500116,
      "v": 85
    },
    {
      "midi": 58,
      "hit": false,
      "t": 22499.977500000008,
      "d": 935.3875781250063,
      "v": 89
    },
    {
      "midi": 39,
      "hit": false,
      "t": 22702.68,
      "d": 614.4419531249987,
      "v": 96
    },
    {
      "midi": 55,
      "hit": false,
      "t": 22702.680000000008,
      "d": 282.9389062500013,
      "v": 58
    },
    {
      "midi": 51,
      "hit": false,
      "t": 22702.680000000008,
      "d": 481.4184375000041,
      "v": 90
    },
    {
      "midi": 63,
      "hit": false,
      "t": 22702.680000000008,
      "d": 863.5971093750086,
      "v": 76
    },
    {
      "midi": 46,
      "hit": false,
      "t": 23108.085,
      "d": 1138.090078125002,
      "v": 89
    },
    {
      "midi": 51,
      "hit": false,
      "t": 23108.085,
      "d": 1199.323124999999,
      "v": 89
    },
    {
      "midi": 55,
      "hit": false,
      "t": 23108.08500000001,
      "d": 270.2700000000041,
      "v": 70
    },
    {
      "midi": 51,
      "hit": false,
      "t": 23310.787500000013,
      "d": 519.425156250003,
      "v": 64
    },
    {
      "midi": 55,
      "hit": false,
      "t": 23513.490000000016,
      "d": 73.90195312500146,
      "v": 28
    },
    {
      "midi": 58,
      "hit": false,
      "t": 23513.490000000016,
      "d": 118.24312500000087,
      "v": 72
    },
    {
      "midi": 58,
      "hit": false,
      "t": 23716.192500000016,
      "d": 204.81398437499956,
      "v": 80
    },
    {
      "midi": 63,
      "hit": false,
      "t": 23716.192500000016,
      "d": 282.9389062500013,
      "v": 96
    },
    {
      "midi": 55,
      "hit": false,
      "t": 23716.192500000016,
      "d": 515.2021875000028,
      "v": 54
    },
    {
      "midi": 39,
      "hit": false,
      "t": 23817.54375,
      "d": 42.22968749999927,
      "v": 40
    },
    {
      "midi": 60,
      "hit": false,
      "t": 23918.895000000015,
      "d": 238.5977343750019,
      "v": 64
    },
    {
      "midi": 39,
      "hit": false,
      "t": 24121.5975,
      "d": 154.1383593749997,
      "v": 54
    },
    {
      "midi": 63,
      "hit": false,
      "t": 24121.597500000018,
      "d": 137.24648437499854,
      "v": 70
    },
    {
      "midi": 58,
      "hit": false,
      "t": 24121.597500000018,
      "d": 143.58093749999898,
      "v": 58
    },
    {
      "midi": 44,
      "hit": false,
      "t": 24324.3,
      "d": 523.6481249999997,
      "v": 80
    },
    {
      "midi": 51,
      "hit": false,
      "t": 24324.300000000017,
      "d": 204.81398437499956,
      "v": 70
    },
    {
      "midi": 56,
      "hit": false,
      "t": 24527.002500000017,
      "d": 451.8576562499984,
      "v": 74
    },
    {
      "midi": 58,
      "hit": false,
      "t": 24527.002500000017,
      "d": 924.8301562499983,
      "v": 78
    },
    {
      "midi": 63,
      "hit": false,
      "t": 24527.002500000017,
      "d": 1049.407734374996,
      "v": 72
    },
    {
      "midi": 51,
      "hit": false,
      "t": 24729.704999999998,
      "d": 513.0907031250026,
      "v": 89
    },
    {
      "midi": 56,
      "hit": false,
      "t": 24729.704999999998,
      "d": 1116.9752343750042,
      "v": 96
    },
    {
      "midi": 44,
      "hit": false,
      "t": 24932.407500000016,
      "d": 869.9315624999981,
      "v": 68
    },
    {
      "midi": 44,
      "hit": false,
      "t": 25135.11,
      "d": 225.92882812500102,
      "v": 52
    },
    {
      "midi": 56,
      "hit": false,
      "t": 25135.110000000015,
      "d": 154.1383593749997,
      "v": 51
    },
    {
      "midi": 51,
      "hit": false,
      "t": 25337.8125,
      "d": 390.62460937500146,
      "v": 75
    },
    {
      "midi": 56,
      "hit": false,
      "t": 25337.812500000015,
      "d": 255.48960937499942,
      "v": 51
    },
    {
      "midi": 44,
      "hit": false,
      "t": 25540.515000000003,
      "d": 272.3814843750006,
      "v": 54
    },
    {
      "midi": 58,
      "hit": false,
      "t": 25540.515000000014,
      "d": 141.46945312499884,
      "v": 65
    },
    {
      "midi": 51,
      "hit": false,
      "t": 25743.217500000002,
      "d": 107.68570312500015,
      "v": 48
    },
    {
      "midi": 56,
      "hit": false,
      "t": 25743.217500000013,
      "d": 187.9221093749984,
      "v": 80
    },
    {
      "midi": 60,
      "hit": false,
      "t": 25743.217500000013,
      "d": 194.25656249999884,
      "v": 75
    },
    {
      "midi": 46,
      "hit": false,
      "t": 25945.920000000002,
      "d": 1313.3432812499996,
      "v": 83
    },
    {
      "midi": 46,
      "hit": false,
      "t": 25945.920000000013,
      "d": 344.17195312499825,
      "v": 81
    },
    {
      "midi": 53,
      "hit": false,
      "t": 26148.622500000012,
      "d": 333.6145312499975,
      "v": 66
    },
    {
      "midi": 58,
      "hit": false,
      "t": 26148.622500000012,
      "d": 846.7052343749965,
      "v": 80
    },
    {
      "midi": 53,
      "hit": false,
      "t": 26351.325,
      "d": 692.5668750000004,
      "v": 68
    },
    {
      "midi": 58,
      "hit": false,
      "t": 26351.325,
      "d": 1148.6474999999991,
      "v": 99
    },
    {
      "midi": 46,
      "hit": false,
      "t": 26351.32500000001,
      "d": 299.83078124999884,
      "v": 54
    },
    {
      "midi": 53,
      "hit": false,
      "t": 26554.02750000001,
      "d": 124.57757812499767,
      "v": 53
    },
    {
      "midi": 46,
      "hit": false,
      "t": 26756.73000000001,
      "d": 1123.3096874999937,
      "v": 67
    },
    {
      "midi": 53,
      "hit": false,
      "t": 26959.43250000001,
      "d": 118.24312499999724,
      "v": 69
    },
    {
      "midi": 53,
      "hit": false,
      "t": 27162.135000000002,
      "d": 346.2834374999984,
      "v": 70
    },
    {
      "midi": 58,
      "hit": false,
      "t": 27162.135000000006,
      "d": 69.67898437500116,
      "v": 65
    },
    {
      "midi": 46,
      "hit": false,
      "t": 27364.8375,
      "d": 783.3607031249994,
      "v": 75
    },
    {
      "midi": 60,
      "hit": false,
      "t": 27364.837500000005,
      "d": 198.47953124999913,
      "v": 76
    },
    {
      "midi": 65,
      "hit": false,
      "t": 27364.837500000005,
      "d": 1222.5494531250006,
      "v": 79
    },
    {
      "midi": 53,
      "hit": false,
      "t": 27567.54,
      "d": 171.03023437500087,
      "v": 75
    },
    {
      "midi": 60,
      "hit": false,
      "t": 27567.54,
      "d": 236.4862499999981,
      "v": 67
    },
    {
      "midi": 62,
      "hit": false,
      "t": 27567.540000000005,
      "d": 1013.5125000000007,
      "v": 53
    },
    {
      "midi": 53,
      "hit": false,
      "t": 27770.2425,
      "d": 107.68570312500015,
      "v": 67
    },
    {
      "midi": 58,
      "hit": false,
      "t": 27770.2425,
      "d": 363.17531249999956,
      "v": 76
    },
    {
      "midi": 53,
      "hit": false,
      "t": 27770.242500000004,
      "d": 219.59437500000058,
      "v": 69
    },
    {
      "midi": 53,
      "hit": false,
      "t": 27972.945,
      "d": 158.361328125,
      "v": 72
    },
    {
      "midi": 58,
      "hit": false,
      "t": 27972.945000000003,
      "d": 137.24648437500218,
      "v": 86
    },
    {
      "midi": 53,
      "hit": false,
      "t": 28175.647500000006,
      "d": 147.80390624999927,
      "v": 67
    },
    {
      "midi": 46,
      "hit": false,
      "t": 28378.350000000002,
      "d": 194.25656249999884,
      "v": 110
    },
    {
      "midi": 58,
      "hit": false,
      "t": 28378.350000000002,
      "d": 194.25656249999884,
      "v": 110
    },
    {
      "midi": 53,
      "hit": false,
      "t": 28378.350000000002,
      "d": 209.03695312499985,
      "v": 97
    },
    {
      "midi": 53,
      "hit": false,
      "t": 28378.350000000006,
      "d": 137.24648437499854,
      "v": 67
    },
    {
      "midi": 58,
      "hit": false,
      "t": 28378.350000000006,
      "d": 192.1450781249987,
      "v": 102
    },
    {
      "midi": 46,
      "hit": false,
      "t": 28378.350000000006,
      "d": 202.70249999999942,
      "v": 93
    },
    {
      "midi": 47,
      "hit": false,
      "t": 28783.755,
      "d": 204.81398437499956,
      "v": 88
    },
    {
      "midi": 53,
      "hit": false,
      "t": 28783.755,
      "d": 219.59437500000058,
      "v": 88
    },
    {
      "midi": 59,
      "hit": false,
      "t": 28783.755,
      "d": 228.04031250000116,
      "v": 93
    },
    {
      "midi": 59,
      "hit": false,
      "t": 28783.755000000005,
      "d": 177.3646875000013,
      "v": 91
    },
    {
      "midi": 47,
      "hit": false,
      "t": 28783.755000000005,
      "d": 187.92210937500204,
      "v": 76
    },
    {
      "midi": 60,
      "hit": false,
      "t": 29189.160000000003,
      "d": 1577.2788281249996,
      "v": 81
    },
    {
      "midi": 55,
      "hit": false,
      "t": 29189.160000000003,
      "d": 1583.61328125,
      "v": 85
    },
    {
      "midi": 48,
      "hit": false,
      "t": 29189.160000000007,
      "d": 462.4150781249991,
      "v": 79
    },
    {
      "midi": 67,
      "hit": false,
      "t": 29189.160000000007,
      "d": 853.039687499997,
      "v": 76
    },
    {
      "midi": 60,
      "hit": false,
      "t": 29189.160000000007,
      "d": 867.820078124998,
      "v": 79
    },
    {
      "midi": 63,
      "hit": false,
      "t": 29189.160000000007,
      "d": 869.9315624999981,
      "v": 96
    },
    {
      "midi": 55,
      "hit": false,
      "t": 29594.565000000006,
      "d": 219.59437500000058,
      "v": 64
    },
    {
      "midi": 48,
      "hit": false,
      "t": 29797.267500000005,
      "d": 447.6346874999981,
      "v": 75
    },
    {
      "midi": 55,
      "hit": false,
      "t": 29999.970000000005,
      "d": 97.12828124999942,
      "v": 60
    },
    {
      "midi": 67,
      "hit": false,
      "t": 30202.672500000004,
      "d": 238.59773437499825,
      "v": 81
    },
    {
      "midi": 63,
      "hit": false,
      "t": 30202.672500000004,
      "d": 272.38148437499694,
      "v": 83
    },
    {
      "midi": 60,
      "hit": false,
      "t": 30202.672500000004,
      "d": 276.60445312499724,
      "v": 70
    },
    {
      "midi": 55,
      "hit": false,
      "t": 30405.375000000004,
      "d": 137.24648437499854,
      "v": 72
    },
    {
      "midi": 48,
      "hit": false,
      "t": 30405.375000000004,
      "d": 209.03695312499985,
      "v": 81
    },
    {
      "midi": 65,
      "hit": false,
      "t": 30608.077500000003,
      "d": 323.05710937500044,
      "v": 89
    },
    {
      "midi": 60,
      "hit": false,
      "t": 30608.077500000003,
      "d": 356.8408593749991,
      "v": 70
    },
    {
      "midi": 51,
      "hit": false,
      "t": 30608.077500000003,
      "d": 1359.7959374999991,
      "v": 89
    },
    {
      "midi": 44,
      "hit": false,
      "t": 30810.780000000002,
      "d": 377.9557031250006,
      "v": 63
    },
    {
      "midi": 56,
      "hit": false,
      "t": 30810.780000000002,
      "d": 1110.6407812500001,
      "v": 58
    },
    {
      "midi": 44,
      "hit": false,
      "t": 30810.780000000002,
      "d": 1319.677734375,
      "v": 114
    },
    {
      "midi": 60,
      "hit": false,
      "t": 31013.482500000002,
      "d": 373.7327343750003,
      "v": 60
    },
    {
      "midi": 56,
      "hit": false,
      "t": 31013.482500000002,
      "d": 377.9557031250006,
      "v": 86
    },
    {
      "midi": 63,
      "hit": false,
      "t": 31013.482500000002,
      "d": 1167.6508593749968,
      "v": 72
    },
    {
      "midi": 44,
      "hit": false,
      "t": 31216.185,
      "d": 312.4996874999997,
      "v": 54
    },
    {
      "midi": 56,
      "hit": false,
      "t": 31418.8875,
      "d": 418.0739062499997,
      "v": 67
    },
    {
      "midi": 60,
      "hit": false,
      "t": 31418.8875,
      "d": 631.3338281249999,
      "v": 68
    },
    {
      "midi": 44,
      "hit": false,
      "t": 31824.2925,
      "d": 261.82406249999985,
      "v": 72
    },
    {
      "midi": 56,
      "hit": false,
      "t": 32026.995,
      "d": 126.68906250000146,
      "v": 78
    },
    {
      "midi": 51,
      "hit": false,
      "t": 32026.995000000003,
      "d": 312.4996874999997,
      "v": 66
    },
    {
      "midi": 56,
      "hit": false,
      "t": 32026.995000000003,
      "d": 337.83750000000146,
      "v": 73
    },
    {
      "midi": 44,
      "hit": false,
      "t": 32229.697500000002,
      "d": 171.03023437500087,
      "v": 80
    },
    {
      "midi": 46,
      "hit": false,
      "t": 32432.399999999998,
      "d": 498.3103125000016,
      "v": 93
    },
    {
      "midi": 58,
      "hit": false,
      "t": 32432.399999999998,
      "d": 802.3640625000007,
      "v": 60
    },
    {
      "midi": 65,
      "hit": false,
      "t": 32432.399999999998,
      "d": 1110.6407812500001,
      "v": 54
    },
    {
      "midi": 62,
      "hit": false,
      "t": 32432.399999999998,
      "d": 1218.3264843749967,
      "v": 73
    },
    {
      "midi": 53,
      "hit": false,
      "t": 32432.4,
      "d": 350.5064062500023,
      "v": 81
    },
    {
      "midi": 46,
      "hit": false,
      "t": 32432.4,
      "d": 665.1175781249985,
      "v": 104
    },
    {
      "midi": 58,
      "hit": false,
      "t": 32432.4,
      "d": 1539.2721093749933,
      "v": 93
    },
    {
      "midi": 53,
      "hit": false,
      "t": 32837.805,
      "d": 211.1484375,
      "v": 60
    },
    {
      "midi": 53,
      "hit": false,
      "t": 32837.805,
      "d": 1127.5326562499977,
      "v": 71
    },
    {
      "midi": 46,
      "hit": false,
      "t": 33040.5075,
      "d": 316.72265625,
      "v": 56
    },
    {
      "midi": 53,
      "hit": false,
      "t": 33243.21,
      "d": 276.6044531250009,
      "v": 54
    },
    {
      "midi": 46,
      "hit": false,
      "t": 33243.21,
      "d": 447.63468750000175,
      "v": 63
    },
    {
      "midi": 58,
      "hit": false,
      "t": 33445.9125,
      "d": 289.27335937499447,
      "v": 67
    },
    {
      "midi": 65,
      "hit": false,
      "t": 33648.615,
      "d": 76.01343749999796,
      "v": 56
    },
    {
      "midi": 55,
      "hit": false,
      "t": 33851.31749999999,
      "d": 67.56749999999738,
      "v": 45
    },
    {
      "midi": 67,
      "hit": false,
      "t": 33851.31749999999,
      "d": 97.12828124999942,
      "v": 59
    },
    {
      "midi": 65,
      "hit": false,
      "t": 33851.31749999999,
      "d": 107.68570312499651,
      "v": 60
    },
    {
      "midi": 58,
      "hit": false,
      "t": 33851.31749999999,
      "d": 244.93218750000233,
      "v": 78
    },
    {
      "midi": 46,
      "hit": false,
      "t": 33851.3175,
      "d": 135.13499999999476,
      "v": 63
    },
    {
      "midi": 51,
      "hit": false,
      "t": 34054.01999999999,
      "d": 363.1753124999959,
      "v": 86
    },
    {
      "midi": 39,
      "hit": false,
      "t": 34054.01999999999,
      "d": 515.2021874999991,
      "v": 69
    },
    {
      "midi": 58,
      "hit": false,
      "t": 34256.72249999999,
      "d": 225.92882812499738,
      "v": 83
    },
    {
      "midi": 55,
      "hit": false,
      "t": 34256.72249999999,
      "d": 266.0470312499965,
      "v": 68
    },
    {
      "midi": 63,
      "hit": false,
      "t": 34256.72249999999,
      "d": 270.2699999999968,
      "v": 86
    },
    {
      "midi": 46,
      "hit": false,
      "t": 34256.72249999999,
      "d": 698.9013281250009,
      "v": 99
    },
    {
      "midi": 51,
      "hit": false,
      "t": 34256.72249999999,
      "d": 717.9046874999985,
      "v": 107
    },
    {
      "midi": 51,
      "hit": false,
      "t": 34459.42499999999,
      "d": 924.8301562499983,
      "v": 63
    },
    {
      "midi": 63,
      "hit": false,
      "t": 34662.12749999999,
      "d": 236.48625000000175,
      "v": 93
    },
    {
      "midi": 55,
      "hit": false,
      "t": 34662.12749999999,
      "d": 779.1377343749991,
      "v": 57
    },
    {
      "midi": 39,
      "hit": false,
      "t": 34662.12749999999,
      "d": 76.01343749999796,
      "v": 81
    },
    {
      "midi": 58,
      "hit": false,
      "t": 34864.82999999999,
      "d": 158.361328125,
      "v": 65
    },
    {
      "midi": 39,
      "hit": false,
      "t": 34864.82999999999,
      "d": 508.8677343750023,
      "v": 104
    },
    {
      "midi": 60,
      "hit": false,
      "t": 34966.18124999999,
      "d": 168.9187499999971,
      "v": 70
    },
    {
      "midi": 63,
      "hit": false,
      "t": 35067.53249999999,
      "d": 430.7428125000006,
      "v": 78
    },
    {
      "midi": 46,
      "hit": false,
      "t": 35067.53249999999,
      "d": 118.24312500000087,
      "v": 85
    },
    {
      "midi": 51,
      "hit": false,
      "t": 35067.53249999999,
      "d": 451.85765625000204,
      "v": 81
    },
    {
      "midi": 60,
      "hit": false,
      "t": 35270.234999999986,
      "d": 249.15515625000262,
      "v": 63
    },
    {
      "midi": 46,
      "hit": false,
      "t": 35270.234999999986,
      "d": 147.8039062500029,
      "v": 85
    },
    {
      "midi": 58,
      "hit": false,
      "t": 35472.937499999985,
      "d": 135.13500000000204,
      "v": 99
    },
    {
      "midi": 39,
      "hit": false,
      "t": 35472.937499999985,
      "d": 141.4694531250061,
      "v": 93
    },
    {
      "midi": 44,
      "hit": false,
      "t": 35675.639999999985,
      "d": 498.31031249999796,
      "v": 90
    },
    {
      "midi": 58,
      "hit": false,
      "t": 35675.639999999985,
      "d": 785.4721874999959,
      "v": 83
    },
    {
      "midi": 63,
      "hit": false,
      "t": 35675.639999999985,
      "d": 920.607187499998,
      "v": 93
    },
    {
      "midi": 44,
      "hit": false,
      "t": 35675.63999999999,
      "d": 684.1209375000035,
      "v": 107
    },
    {
      "midi": 51,
      "hit": false,
      "t": 35675.63999999999,
      "d": 954.3909375000076,
      "v": 81
    },
    {
      "midi": 56,
      "hit": false,
      "t": 35675.63999999999,
      "d": 954.3909375000076,
      "v": 93
    },
    {
      "midi": 56,
      "hit": false,
      "t": 36081.044999999984,
      "d": 192.14507812500233,
      "v": 54
    },
    {
      "midi": 44,
      "hit": false,
      "t": 36283.74749999998,
      "d": 1106.4178125000035,
      "v": 63
    },
    {
      "midi": 56,
      "hit": false,
      "t": 36486.44999999998,
      "d": 114.02015625000058,
      "v": 49
    },
    {
      "midi": 44,
      "hit": false,
      "t": 36486.45,
      "d": 491.97585937500116,
      "v": 80
    },
    {
      "midi": 63,
      "hit": false,
      "t": 36689.15249999998,
      "d": 33.78375000000233,
      "v": 54
    },
    {
      "midi": 58,
      "hit": false,
      "t": 36689.15249999998,
      "d": 80.23640625000553,
      "v": 78
    },
    {
      "midi": 51,
      "hit": false,
      "t": 36689.1525,
      "d": 86.57085937500233,
      "v": 81
    },
    {
      "midi": 56,
      "hit": false,
      "t": 36689.1525,
      "d": 413.8509374999994,
      "v": 99
    },
    {
      "midi": 56,
      "hit": false,
      "t": 36891.85499999999,
      "d": 92.90531249999913,
      "v": 72
    },
    {
      "midi": 51,
      "hit": false,
      "t": 36891.854999999996,
      "d": 299.83078124999884,
      "v": 75
    },
    {
      "midi": 58,
      "hit": false,
      "t": 37094.55749999999,
      "d": 158.361328125,
      "v": 102
    },
    {
      "midi": 63,
      "hit": false,
      "t": 37094.55749999999,
      "d": 884.7119531249991,
      "v": 86
    },
    {
      "midi": 44,
      "hit": false,
      "t": 37094.557499999995,
      "d": 819.2559374999983,
      "v": 104
    },
    {
      "midi": 60,
      "hit": false,
      "t": 37297.25999999999,
      "d": 705.2357812499977,
      "v": 56
    },
    {
      "midi": 56,
      "hit": false,
      "t": 37297.259999999995,
      "d": 92.90531249999913,
      "v": 70
    },
    {
      "midi": 51,
      "hit": false,
      "t": 37297.259999999995,
      "d": 109.79718750000029,
      "v": 80
    },
    {
      "midi": 44,
      "hit": false,
      "t": 37499.96249999999,
      "d": 739.01953125,
      "v": 57
    },
    {
      "midi": 56,
      "hit": false,
      "t": 37702.664999999986,
      "d": 363.1753124999959,
      "v": 68
    },
    {
      "midi": 51,
      "hit": false,
      "t": 37702.66499999999,
      "d": 458.19210937499884,
      "v": 99
    },
    {
      "midi": 56,
      "hit": false,
      "t": 37702.66499999999,
      "d": 472.9724999999962,
      "v": 90
    },
    {
      "midi": 60,
      "hit": false,
      "t": 38108.069999999985,
      "d": 316.72265625,
      "v": 75
    },
    {
      "midi": 63,
      "hit": false,
      "t": 38108.069999999985,
      "d": 462.4150781249991,
      "v": 68
    },
    {
      "midi": 44,
      "hit": false,
      "t": 38108.06999999999,
      "d": 287.16187499999796,
      "v": 93
    },
    {
      "midi": 44,
      "hit": false,
      "t": 38310.772499999985,
      "d": 430.74281250000786,
      "v": 63
    },
    {
      "midi": 51,
      "hit": false,
      "t": 38310.77249999999,
      "d": 137.24648437499854,
      "v": 93
    },
    {
      "midi": 56,
      "hit": false,
      "t": 38310.77249999999,
      "d": 496.1988281249942,
      "v": 96
    },
    {
      "midi": 56,
      "hit": false,
      "t": 38513.474999999984,
      "d": 73.90195312500146,
      "v": 57
    },
    {
      "midi": 60,
      "hit": false,
      "t": 38513.474999999984,
      "d": 103.46273437500349,
      "v": 66
    },
    {
      "midi": 51,
      "hit": false,
      "t": 38513.47499999999,
      "d": 282.9389062499977,
      "v": 63
    },
    {
      "midi": 56,
      "hit": false,
      "t": 38716.17749999999,
      "d": 198.47953124999913,
      "v": 53
    },
    {
      "midi": 60,
      "hit": false,
      "t": 38716.17749999999,
      "d": 255.48960937499942,
      "v": 71
    },
    {
      "midi": 44,
      "hit": false,
      "t": 38716.17749999999,
      "d": 130.91203124999447,
      "v": 78
    },
    {
      "midi": 46,
      "hit": false,
      "t": 38918.87999999998,
      "d": 1792.6502343749962,
      "v": 110
    },
    {
      "midi": 46,
      "hit": false,
      "t": 38918.87999999999,
      "d": 320.9456250000003,
      "v": 74
    },
    {
      "midi": 53,
      "hit": false,
      "t": 39121.58249999999,
      "d": 282.9389062499977,
      "v": 64
    },
    {
      "midi": 58,
      "hit": false,
      "t": 39121.58249999999,
      "d": 542.6514843749974,
      "v": 86
    },
    {
      "midi": 58,
      "hit": false,
      "t": 39324.28499999998,
      "d": 73.90195312500146,
      "v": 93
    },
    {
      "midi": 63,
      "hit": false,
      "t": 39324.28499999998,
      "d": 97.12828124999942,
      "v": 93
    },
    {
      "midi": 65,
      "hit": false,
      "t": 39324.28499999998,
      "d": 109.79718750000029,
      "v": 90
    },
    {
      "midi": 70,
      "hit": false,
      "t": 39324.28499999998,
      "d": 120.35460937499738,
      "v": 89
    },
    {
      "midi": 46,
      "hit": false,
      "t": 39324.28499999999,
      "d": 255.48960937499942,
      "v": 63
    },
    {
      "midi": 53,
      "hit": false,
      "t": 39526.98749999999,
      "d": 266.0470312499965,
      "v": 60
    },
    {
      "midi": 65,
      "hit": false,
      "t": 39729.68999999998,
      "d": 154.1383593749997,
      "v": 93
    },
    {
      "midi": 63,
      "hit": false,
      "t": 39729.68999999998,
      "d": 158.361328125,
      "v": 90
    },
    {
      "midi": 70,
      "hit": false,
      "t": 39729.68999999998,
      "d": 164.6957812499968,
      "v": 96
    },
    {
      "midi": 46,
      "hit": false,
      "t": 39729.68999999999,
      "d": 1505.4883593749837,
      "v": 83
    },
    {
      "midi": 63,
      "hit": false,
      "t": 39932.39249999998,
      "d": 154.1383593749997,
      "v": 89
    },
    {
      "midi": 70,
      "hit": false,
      "t": 39932.39249999998,
      "d": 158.361328125,
      "v": 83
    },
    {
      "midi": 65,
      "hit": false,
      "t": 39932.39249999998,
      "d": 168.9187499999971,
      "v": 78
    },
    {
      "midi": 60,
      "hit": false,
      "t": 39932.39249999999,
      "d": 147.8039062500029,
      "v": 59
    },
    {
      "midi": 65,
      "hit": false,
      "t": 39932.39249999999,
      "d": 287.16187499999796,
      "v": 70
    },
    {
      "midi": 58,
      "hit": false,
      "t": 40135.09499999998,
      "d": 73.90195312500146,
      "v": 83
    },
    {
      "midi": 58,
      "hit": false,
      "t": 40135.09499999999,
      "d": 90.79382812499534,
      "v": 64
    },
    {
      "midi": 65,
      "hit": false,
      "t": 40337.79749999998,
      "d": 238.59773437499825,
      "v": 72
    },
    {
      "midi": 60,
      "hit": false,
      "t": 40337.79749999998,
      "d": 363.1753124999959,
      "v": 81
    },
    {
      "midi": 62,
      "hit": false,
      "t": 40337.79749999998,
      "d": 1165.5393750000076,
      "v": 105
    },
    {
      "midi": 70,
      "hit": false,
      "t": 40337.79749999998,
      "d": 1708.1908593750122,
      "v": 104
    },
    {
      "midi": 65,
      "hit": false,
      "t": 40337.79749999998,
      "d": 1739.8631250000108,
      "v": 97
    },
    {
      "midi": 62,
      "hit": false,
      "t": 40540.49999999998,
      "d": 225.92882812499738,
      "v": 67
    },
    {
      "midi": 58,
      "hit": false,
      "t": 40540.49999999998,
      "d": 278.7159374999974,
      "v": 72
    },
    {
      "midi": 65,
      "hit": false,
      "t": 40743.20249999998,
      "d": 86.57085937499505,
      "v": 73
    },
    {
      "midi": 46,
      "hit": false,
      "t": 40743.20249999998,
      "d": 306.1652343750029,
      "v": 61
    },
    {
      "midi": 58,
      "hit": false,
      "t": 40945.90499999997,
      "d": 259.7125781249997,
      "v": 80
    },
    {
      "midi": 58,
      "hit": false,
      "t": 40945.90499999998,
      "d": 323.0571093750041,
      "v": 63
    },
    {
      "midi": 70,
      "hit": false,
      "t": 41148.60749999997,
      "d": 209.03695312499622,
      "v": 102
    },
    {
      "midi": 46,
      "hit": false,
      "t": 41148.607499999984,
      "d": 513.0907031250026,
      "v": 71
    },
    {
      "midi": 58,
      "hit": false,
      "t": 41351.30999999997,
      "d": 73.90195312499418,
      "v": 28
    },
    {
      "midi": 46,
      "hit": false,
      "t": 41351.30999999997,
      "d": 126.68906249999418,
      "v": 81
    },
    {
      "midi": 58,
      "hit": false,
      "t": 41351.30999999998,
      "d": 734.796562500007,
      "v": 70
    },
    {
      "midi": 65,
      "hit": false,
      "t": 41554.01249999996,
      "d": 441.3002343749977,
      "v": 85
    },
    {
      "midi": 62,
      "hit": false,
      "t": 41554.01249999996,
      "d": 458.19210937499884,
      "v": 90
    },
    {
      "midi": 70,
      "hit": false,
      "t": 41554.01249999996,
      "d": 472.9724999999962,
      "v": 86
    },
    {
      "midi": 62,
      "hit": false,
      "t": 41554.01249999999,
      "d": 508.8677343750023,
      "v": 91
    },
    {
      "midi": 58,
      "hit": false,
      "t": 41756.71499999996,
      "d": 339.9489843749907,
      "v": 90
    },
    {
      "midi": 46,
      "hit": false,
      "t": 41959.41749999996,
      "d": 73.90195312499418,
      "v": 90
    },
    {
      "midi": 46,
      "hit": false,
      "t": 41959.41749999999,
      "d": 103.46273437500349,
      "v": 93
    },
    {
      "midi": 44,
      "hit": false,
      "t": 42162.11999999995,
      "d": 293.49632812500204,
      "v": 93
    },
    {
      "midi": 51,
      "hit": false,
      "t": 42162.11999999999,
      "d": 688.3439062499965,
      "v": 104
    },
    {
      "midi": 56,
      "hit": false,
      "t": 42162.11999999999,
      "d": 692.5668749999968,
      "v": 107
    },
    {
      "midi": 44,
      "hit": false,
      "t": 42162.11999999999,
      "d": 768.5803124999948,
      "v": 90
    },
    {
      "midi": 56,
      "hit": false,
      "t": 42364.82249999995,
      "d": 320.9456250000003,
      "v": 74
    },
    {
      "midi": 60,
      "hit": false,
      "t": 42364.82249999995,
      "d": 346.28343750000204,
      "v": 70
    },
    {
      "midi": 63,
      "hit": false,
      "t": 42364.82249999995,
      "d": 610.2189843749948,
      "v": 64
    },
    {
      "midi": 44,
      "hit": false,
      "t": 42567.52499999995,
      "d": 244.93218750000233,
      "v": 68
    },
    {
      "midi": 60,
      "hit": false,
      "t": 42770.22749999995,
      "d": 209.03695312499622,
      "v": 64
    },
    {
      "midi": 56,
      "hit": false,
      "t": 42770.22749999995,
      "d": 242.82070312499854,
      "v": 72
    },
    {
      "midi": 46,
      "hit": false,
      "t": 42972.92999999995,
      "d": 350.5064062500023,
      "v": 90
    },
    {
      "midi": 58,
      "hit": false,
      "t": 42972.929999999986,
      "d": 557.431875000002,
      "v": 93
    },
    {
      "midi": 53,
      "hit": false,
      "t": 42972.929999999986,
      "d": 563.7663281249988,
      "v": 88
    },
    {
      "midi": 46,
      "hit": false,
      "t": 42972.929999999986,
      "d": 624.9993749999994,
      "v": 110
    },
    {
      "midi": 62,
      "hit": false,
      "t": 43175.63249999995,
      "d": 282.9389062499977,
      "v": 75
    },
    {
      "midi": 58,
      "hit": false,
      "t": 43175.63249999995,
      "d": 320.9456250000003,
      "v": 72
    },
    {
      "midi": 46,
      "hit": false,
      "t": 43378.33499999995,
      "d": 211.1484375,
      "v": 80
    },
    {
      "midi": 67,
      "hit": false,
      "t": 43581.03749999995,
      "d": 869.9315624999945,
      "v": 94
    },
    {
      "midi": 63,
      "hit": false,
      "t": 43581.03749999995,
      "d": 897.3808593749927,
      "v": 74
    },
    {
      "midi": 58,
      "hit": false,
      "t": 43581.03749999995,
      "d": 912.1612499999901,
      "v": 89
    },
    {
      "midi": 51,
      "hit": false,
      "t": 43783.73999999995,
      "d": 299.83078124999884,
      "v": 81
    },
    {
      "midi": 46,
      "hit": false,
      "t": 43783.73999999998,
      "d": 491.97585937500116,
      "v": 96
    },
    {
      "midi": 39,
      "hit": false,
      "t": 43783.73999999998,
      "d": 709.458749999998,
      "v": 110
    },
    {
      "midi": 51,
      "hit": false,
      "t": 43783.73999999998,
      "d": 907.9382812499971,
      "v": 96
    },
    {
      "midi": 55,
      "hit": false,
      "t": 43986.44249999995,
      "d": 289.27335937500175,
      "v": 68
    },
    {
      "midi": 51,
      "hit": false,
      "t": 44189.144999999946,
      "d": 709.4587499999907,
      "v": 72
    },
    {
      "midi": 55,
      "hit": false,
      "t": 44391.847499999945,
      "d": 819.255937499991,
      "v": 72
    },
    {
      "midi": 46,
      "hit": false,
      "t": 44391.84749999998,
      "d": 293.49632812500204,
      "v": 59
    },
    {
      "midi": 67,
      "hit": false,
      "t": 44594.54999999994,
      "d": 109.79718750000029,
      "v": 97
    },
    {
      "midi": 58,
      "hit": false,
      "t": 44594.54999999994,
      "d": 177.36468749999767,
      "v": 63
    },
    {
      "midi": 39,
      "hit": false,
      "t": 44594.54999999998,
      "d": 481.4184374999968,
      "v": 101
    },
    {
      "midi": 58,
      "hit": false,
      "t": 44797.25249999994,
      "d": 126.68906250000146,
      "v": 48
    },
    {
      "midi": 65,
      "hit": false,
      "t": 44797.25249999994,
      "d": 126.68906250000146,
      "v": 78
    },
    {
      "midi": 51,
      "hit": false,
      "t": 44797.25249999998,
      "d": 259.7125781249997,
      "v": 99
    },
    {
      "midi": 63,
      "hit": false,
      "t": 44999.954999999936,
      "d": 344.17195312499825,
      "v": 86
    },
    {
      "midi": 46,
      "hit": false,
      "t": 44999.95499999998,
      "d": 97.12828124999942,
      "v": 93
    },
    {
      "midi": 51,
      "hit": false,
      "t": 45202.657499999936,
      "d": 52.787109375,
      "v": 83
    },
    {
      "midi": 39,
      "hit": false,
      "t": 45202.65749999998,
      "d": 141.46945312499884,
      "v": 96
    },
    {
      "midi": 58,
      "hit": false,
      "t": 45405.359999999935,
      "d": 202.70249999999942,
      "v": 78
    },
    {
      "midi": 60,
      "hit": false,
      "t": 45405.359999999935,
      "d": 320.9456250000003,
      "v": 72
    },
    {
      "midi": 63,
      "hit": false,
      "t": 45405.359999999935,
      "d": 356.8408593749991,
      "v": 93
    },
    {
      "midi": 44,
      "hit": false,
      "t": 45405.359999999935,
      "d": 675.6749999999956,
      "v": 93
    },
    {
      "midi": 44,
      "hit": false,
      "t": 45405.35999999998,
      "d": 576.4352343749997,
      "v": 104
    },
    {
      "midi": 51,
      "hit": false,
      "t": 45405.35999999998,
      "d": 677.7864843749994,
      "v": 85
    },
    {
      "midi": 56,
      "hit": false,
      "t": 45405.35999999998,
      "d": 698.9013281250009,
      "v": 80
    },
    {
      "midi": 56,
      "hit": false,
      "t": 45810.764999999934,
      "d": 312.4996874999997,
      "v": 80
    },
    {
      "midi": 63,
      "hit": false,
      "t": 45810.764999999934,
      "d": 320.9456250000003,
      "v": 74
    },
    {
      "midi": 60,
      "hit": false,
      "t": 45810.764999999934,
      "d": 356.8408593749991,
      "v": 81
    },
    {
      "midi": 62,
      "hit": false,
      "t": 46216.16999999993,
      "d": 135.13500000000204,
      "v": 55
    },
    {
      "midi": 46,
      "hit": false,
      "t": 46216.16999999993,
      "d": 633.4453125,
      "v": 78
    },
    {
      "midi": 46,
      "hit": false,
      "t": 46216.16999999998,
      "d": 304.0537499999991,
      "v": 96
    },
    {
      "midi": 53,
      "hit": false,
      "t": 46216.16999999998,
      "d": 553.2089062500017,
      "v": 82
    },
    {
      "midi": 58,
      "hit": false,
      "t": 46216.16999999998,
      "d": 802.3640625000044,
      "v": 85
    },
    {
      "midi": 58,
      "hit": false,
      "t": 46418.87249999993,
      "d": 266.0470312499965,
      "v": 70
    },
    {
      "midi": 62,
      "hit": false,
      "t": 46418.87249999993,
      "d": 367.3982812499962,
      "v": 64
    },
    {
      "midi": 53,
      "hit": false,
      "t": 46621.57499999993,
      "d": 90.79382812499534,
      "v": 55
    },
    {
      "midi": 46,
      "hit": false,
      "t": 46621.574999999975,
      "d": 185.81062500000553,
      "v": 49
    },
    {
      "midi": 55,
      "hit": false,
      "t": 46824.27749999993,
      "d": 320.9456250000003,
      "v": 72
    },
    {
      "midi": 58,
      "hit": false,
      "t": 46824.27749999993,
      "d": 817.1444531249945,
      "v": 86
    },
    {
      "midi": 53,
      "hit": false,
      "t": 46824.27749999998,
      "d": 181.58765624999796,
      "v": 72
    },
    {
      "midi": 63,
      "hit": false,
      "t": 46925.62874999993,
      "d": 29.560781250002037,
      "v": 40
    },
    {
      "midi": 51,
      "hit": false,
      "t": 47026.97999999993,
      "d": 289.27335937500175,
      "v": 59
    },
    {
      "midi": 39,
      "hit": false,
      "t": 47026.97999999998,
      "d": 506.75624999999854,
      "v": 99
    },
    {
      "midi": 55,
      "hit": false,
      "t": 47229.68249999993,
      "d": 276.6044531250009,
      "v": 64
    },
    {
      "midi": 46,
      "hit": false,
      "t": 47229.68249999998,
      "d": 120.35460937499738,
      "v": 99
    },
    {
      "midi": 51,
      "hit": false,
      "t": 47229.68249999998,
      "d": 219.59437500000058,
      "v": 96
    },
    {
      "midi": 51,
      "hit": false,
      "t": 47432.38499999993,
      "d": 610.218984375002,
      "v": 72
    },
    {
      "midi": 46,
      "hit": false,
      "t": 47432.38499999998,
      "d": 73.90195312500146,
      "v": 55
    },
    {
      "midi": 55,
      "hit": false,
      "t": 47635.08749999993,
      "d": 310.3882031250032,
      "v": 72
    },
    {
      "midi": 39,
      "hit": false,
      "t": 47635.08749999998,
      "d": 350.5064062500023,
      "v": 87
    },
    {
      "midi": 58,
      "hit": false,
      "t": 47837.78999999993,
      "d": 103.46273437500349,
      "v": 78
    },
    {
      "midi": 46,
      "hit": false,
      "t": 47837.78999999998,
      "d": 377.9557031250006,
      "v": 99
    },
    {
      "midi": 51,
      "hit": false,
      "t": 47837.78999999998,
      "d": 650.3371875000012,
      "v": 107
    },
    {
      "midi": 67,
      "hit": false,
      "t": 48040.492499999935,
      "d": 232.26328125000146,
      "v": 73
    },
    {
      "midi": 39,
      "hit": false,
      "t": 48040.49249999998,
      "d": 329.3915625000009,
      "v": 87
    },
    {
      "midi": 63,
      "hit": false,
      "t": 48243.194999999934,
      "d": 304.0537499999991,
      "v": 89
    },
    {
      "midi": 46,
      "hit": false,
      "t": 48243.19499999998,
      "d": 158.361328125,
      "v": 78
    },
    {
      "midi": 51,
      "hit": false,
      "t": 48445.897499999934,
      "d": 92.90531249999913,
      "v": 78
    },
    {
      "midi": 39,
      "hit": false,
      "t": 48445.89749999998,
      "d": 135.13500000000204,
      "v": 81
    },
    {
      "midi": 56,
      "hit": false,
      "t": 48648.59999999993,
      "d": 346.28343750000204,
      "v": 83
    },
    {
      "midi": 63,
      "hit": false,
      "t": 48648.59999999993,
      "d": 346.28343750000204,
      "v": 96
    },
    {
      "midi": 60,
      "hit": false,
      "t": 48648.59999999993,
      "d": 354.7293750000026,
      "v": 83
    },
    {
      "midi": 44,
      "hit": false,
      "t": 48648.59999999993,
      "d": 498.31031250000524,
      "v": 60
    },
    {
      "midi": 51,
      "hit": false,
      "t": 48648.59999999998,
      "d": 701.0128124999974,
      "v": 96
    },
    {
      "midi": 56,
      "hit": false,
      "t": 48648.59999999998,
      "d": 711.5702343749945,
      "v": 99
    },
    {
      "midi": 44,
      "hit": false,
      "t": 48648.59999999998,
      "d": 749.5769531249971,
      "v": 114
    },
    {
      "midi": 63,
      "hit": false,
      "t": 49054.00499999994,
      "d": 168.9187499999971,
      "v": 76
    },
    {
      "midi": 56,
      "hit": false,
      "t": 49054.00499999994,
      "d": 171.0302343749936,
      "v": 54
    },
    {
      "midi": 60,
      "hit": false,
      "t": 49054.00499999994,
      "d": 177.3646874999904,
      "v": 75
    },
    {
      "midi": 44,
      "hit": false,
      "t": 49256.70749999993,
      "d": 46.4526562500032,
      "v": 56
    },
    {
      "midi": 46,
      "hit": false,
      "t": 49459.40999999994,
      "d": 278.7159374999974,
      "v": 89
    },
    {
      "midi": 58,
      "hit": false,
      "t": 49459.40999999994,
      "d": 304.0537499999991,
      "v": 68
    },
    {
      "midi": 62,
      "hit": false,
      "t": 49459.40999999994,
      "d": 472.9724999999962,
      "v": 71
    },
    {
      "midi": 65,
      "hit": false,
      "t": 49459.40999999994,
      "d": 472.9724999999962,
      "v": 64
    },
    {
      "midi": 46,
      "hit": false,
      "t": 49459.409999999974,
      "d": 779.1377343749991,
      "v": 101
    },
    {
      "midi": 58,
      "hit": false,
      "t": 49459.409999999974,
      "d": 810.8099999999977,
      "v": 93
    },
    {
      "midi": 53,
      "hit": false,
      "t": 49459.409999999974,
      "d": 812.9214843749942,
      "v": 88
    },
    {
      "midi": 53,
      "hit": false,
      "t": 49662.11249999994,
      "d": 266.0470312499965,
      "v": 72
    },
    {
      "midi": 58,
      "hit": false,
      "t": 49864.81499999994,
      "d": 92.90531249999913,
      "v": 89
    },
    {
      "midi": 46,
      "hit": false,
      "t": 49864.81499999994,
      "d": 120.35460937499738,
      "v": 72
    },
    {
      "midi": 58,
      "hit": false,
      "t": 50067.517499999936,
      "d": 867.820078124998,
      "v": 93
    },
    {
      "midi": 67,
      "hit": false,
      "t": 50067.517499999936,
      "d": 1036.7388281250023,
      "v": 87
    },
    {
      "midi": 63,
      "hit": false,
      "t": 50067.517499999936,
      "d": 1066.2996093750044,
      "v": 80
    },
    {
      "midi": 51,
      "hit": false,
      "t": 50270.219999999936,
      "d": 289.27335937500175,
      "v": 81
    },
    {
      "midi": 39,
      "hit": false,
      "t": 50270.21999999997,
      "d": 532.0940625000003,
      "v": 83
    },
    {
      "midi": 55,
      "hit": false,
      "t": 50472.922499999935,
      "d": 289.27335937500175,
      "v": 60
    },
    {
      "midi": 51,
      "hit": false,
      "t": 50675.624999999935,
      "d": 306.1652343750029,
      "v": 72
    },
    {
      "midi": 46,
      "hit": false,
      "t": 50675.62499999997,
      "d": 114.02015625000058,
      "v": 61
    },
    {
      "midi": 55,
      "hit": false,
      "t": 50878.327499999934,
      "d": 316.7226562500073,
      "v": 60
    },
    {
      "midi": 39,
      "hit": false,
      "t": 50878.32749999997,
      "d": 333.61453125000116,
      "v": 89
    },
    {
      "midi": 51,
      "hit": false,
      "t": 51081.02999999994,
      "d": 57.01007812500029,
      "v": 54
    },
    {
      "midi": 58,
      "hit": false,
      "t": 51081.02999999994,
      "d": 114.02015625000058,
      "v": 56
    },
    {
      "midi": 46,
      "hit": false,
      "t": 51081.02999999997,
      "d": 384.2901562499974,
      "v": 83
    },
    {
      "midi": 51,
      "hit": false,
      "t": 51081.02999999997,
      "d": 671.4520312500026,
      "v": 96
    },
    {
      "midi": 58,
      "hit": false,
      "t": 51283.73249999994,
      "d": 130.91203125000175,
      "v": 72
    },
    {
      "midi": 67,
      "hit": false,
      "t": 51283.73249999994,
      "d": 323.0571093749968,
      "v": 85
    },
    {
      "midi": 39,
      "hit": false,
      "t": 51283.73249999997,
      "d": 354.7293750000026,
      "v": 89
    },
    {
      "midi": 63,
      "hit": false,
      "t": 51486.43499999994,
      "d": 228.04031250000116,
      "v": 78
    },
    {
      "midi": 46,
      "hit": false,
      "t": 51486.43499999997,
      "d": 185.81062500000553,
      "v": 80
    },
    {
      "midi": 51,
      "hit": false,
      "t": 51689.13749999994,
      "d": 80.23640624999825,
      "v": 78
    },
    {
      "midi": 58,
      "hit": false,
      "t": 51689.13749999994,
      "d": 147.8039062500029,
      "v": 68
    },
    {
      "midi": 39,
      "hit": false,
      "t": 51689.137499999975,
      "d": 135.13499999999476,
      "v": 89
    },
    {
      "midi": 44,
      "hit": false,
      "t": 51891.83999999994,
      "d": 329.3915625000009,
      "v": 49
    },
    {
      "midi": 56,
      "hit": false,
      "t": 51891.83999999994,
      "d": 496.19882812500146,
      "v": 86
    },
    {
      "midi": 60,
      "hit": false,
      "t": 51891.83999999994,
      "d": 711.5702343749945,
      "v": 75
    },
    {
      "midi": 63,
      "hit": false,
      "t": 51891.83999999994,
      "d": 743.242499999993,
      "v": 80
    },
    {
      "midi": 56,
      "hit": false,
      "t": 51891.83999999997,
      "d": 743.2425000000003,
      "v": 89
    },
    {
      "midi": 44,
      "hit": false,
      "t": 51891.83999999997,
      "d": 772.8032812500023,
      "v": 107
    },
    {
      "midi": 51,
      "hit": false,
      "t": 51891.83999999997,
      "d": 1478.0390625000073,
      "v": 89
    },
    {
      "midi": 44,
      "hit": false,
      "t": 52297.24499999994,
      "d": 1148.6474999999919,
      "v": 74
    },
    {
      "midi": 56,
      "hit": false,
      "t": 52499.94749999994,
      "d": 97.12828124999942,
      "v": 64
    },
    {
      "midi": 56,
      "hit": false,
      "t": 52702.64999999993,
      "d": 126.68906250000146,
      "v": 81
    },
    {
      "midi": 60,
      "hit": false,
      "t": 52702.64999999993,
      "d": 434.96578125000815,
      "v": 78
    },
    {
      "midi": 63,
      "hit": false,
      "t": 52702.64999999993,
      "d": 711.5702343750017,
      "v": 83
    },
    {
      "midi": 56,
      "hit": false,
      "t": 52702.64999999997,
      "d": 181.58765624999796,
      "v": 81
    },
    {
      "midi": 44,
      "hit": false,
      "t": 52702.64999999997,
      "d": 202.70249999999942,
      "v": 64
    },
    {
      "midi": 55,
      "hit": false,
      "t": 52905.35249999993,
      "d": 103.46273437500349,
      "v": 72
    },
    {
      "midi": 55,
      "hit": false,
      "t": 52905.35249999997,
      "d": 101.35124999999971,
      "v": 50
    },
    {
      "midi": 45,
      "hit": false,
      "t": 53006.70374999997,
      "d": 33.78375000000233,
      "v": 72
    },
    {
      "midi": 43,
      "hit": false,
      "t": 53006.70374999997,
      "d": 192.14507812500233,
      "v": 76
    },
    {
      "midi": 56,
      "hit": false,
      "t": 53108.054999999935,
      "d": 211.1484375,
      "v": 78
    },
    {
      "midi": 44,
      "hit": false,
      "t": 53108.05499999997,
      "d": 141.4694531250061,
      "v": 89
    },
    {
      "midi": 56,
      "hit": false,
      "t": 53108.05499999997,
      "d": 346.28343750000204,
      "v": 78
    },
    {
      "midi": 60,
      "hit": false,
      "t": 53310.757499999934,
      "d": 185.81062499999825,
      "v": 69
    },
    {
      "midi": 48,
      "hit": false,
      "t": 53310.75749999998,
      "d": 181.58765624999796,
      "v": 100
    },
    {
      "midi": 53,
      "hit": false,
      "t": 53513.459999999934,
      "d": 103.46273437500349,
      "v": 52
    },
    {
      "midi": 58,
      "hit": false,
      "t": 53513.459999999934,
      "d": 253.3781250000102,
      "v": 78
    },
    {
      "midi": 46,
      "hit": false,
      "t": 53513.459999999934,
      "d": 1292.2284375000017,
      "v": 86
    },
    {
      "midi": 46,
      "hit": false,
      "t": 53513.45999999998,
      "d": 337.83750000000146,
      "v": 104
    },
    {
      "midi": 53,
      "hit": false,
      "t": 53716.16249999994,
      "d": 278.71593750000466,
      "v": 63
    },
    {
      "midi": 58,
      "hit": false,
      "t": 53716.16249999998,
      "d": 118.24312500000087,
      "v": 114
    },
    {
      "midi": 53,
      "hit": false,
      "t": 53716.16249999998,
      "d": 143.58093750000262,
      "v": 114
    },
    {
      "midi": 59,
      "hit": false,
      "t": 53817.51374999998,
      "d": 57.01007812500029,
      "v": 27
    },
    {
      "midi": 58,
      "hit": false,
      "t": 53918.86499999995,
      "d": 86.57085937499505,
      "v": 89
    },
    {
      "midi": 46,
      "hit": false,
      "t": 53918.864999999976,
      "d": 67.56749999999738,
      "v": 56
    },
    {
      "midi": 65,
      "hit": false,
      "t": 54121.56749999994,
      "d": 92.90531249999913,
      "v": 78
    },
    {
      "midi": 60,
      "hit": false,
      "t": 54121.56749999994,
      "d": 101.35124999999971,
      "v": 75
    },
    {
      "midi": 46,
      "hit": false,
      "t": 54121.567499999976,
      "d": 333.61453125000116,
      "v": 104
    },
    {
      "midi": 60,
      "hit": false,
      "t": 54324.26999999994,
      "d": 175.25320312500116,
      "v": 81
    },
    {
      "midi": 65,
      "hit": false,
      "t": 54324.26999999994,
      "d": 580.6582031249927,
      "v": 72
    },
    {
      "midi": 53,
      "hit": false,
      "t": 54324.269999999975,
      "d": 367.3982812499962,
      "v": 100
    },
    {
      "midi": 58,
      "hit": false,
      "t": 54324.269999999975,
      "d": 840.3707812499924,
      "v": 114
    },
    {
      "midi": 62,
      "hit": false,
      "t": 54526.97249999994,
      "d": 323.0571093749968,
      "v": 72
    },
    {
      "midi": 46,
      "hit": false,
      "t": 54526.972499999974,
      "d": 295.60781249999854,
      "v": 71
    },
    {
      "midi": 58,
      "hit": false,
      "t": 54729.67499999994,
      "d": 323.0571093749895,
      "v": 93
    },
    {
      "midi": 53,
      "hit": false,
      "t": 54729.674999999974,
      "d": 272.3814843749933,
      "v": 72
    },
    {
      "midi": 46,
      "hit": false,
      "t": 54932.37749999993,
      "d": 86.57085937500233,
      "v": 76
    },
    {
      "midi": 46,
      "hit": false,
      "t": 54932.37749999997,
      "d": 67.56749999999738,
      "v": 67
    },
    {
      "midi": 58,
      "hit": false,
      "t": 55135.07999999993,
      "d": 337.83750000000146,
      "v": 89
    },
    {
      "midi": 44,
      "hit": false,
      "t": 55135.07999999993,
      "d": 519.4251562499994,
      "v": 90
    },
    {
      "midi": 63,
      "hit": false,
      "t": 55135.07999999993,
      "d": 597.5500781250012,
      "v": 96
    },
    {
      "midi": 51,
      "hit": false,
      "t": 55135.079999999965,
      "d": 692.5668749999968,
      "v": 107
    },
    {
      "midi": 56,
      "hit": false,
      "t": 55135.079999999965,
      "d": 762.245859374998,
      "v": 104
    },
    {
      "midi": 44,
      "hit": false,
      "t": 55135.079999999965,
      "d": 772.803281249995,
      "v": 90
    },
    {
      "midi": 60,
      "hit": false,
      "t": 55540.48499999993,
      "d": 141.46945312499884,
      "v": 67
    },
    {
      "midi": 56,
      "hit": false,
      "t": 55540.48499999993,
      "d": 175.25320312500116,
      "v": 76
    },
    {
      "midi": 44,
      "hit": false,
      "t": 55743.18749999993,
      "d": 73.90195312500146,
      "v": 67
    },
    {
      "midi": 46,
      "hit": false,
      "t": 55945.88999999993,
      "d": 306.1652343750029,
      "v": 89
    },
    {
      "midi": 58,
      "hit": false,
      "t": 55945.88999999993,
      "d": 306.1652343750029,
      "v": 58
    },
    {
      "midi": 65,
      "hit": false,
      "t": 55945.88999999993,
      "d": 445.52320312500524,
      "v": 54
    },
    {
      "midi": 62,
      "hit": false,
      "t": 55945.88999999993,
      "d": 447.63468750000175,
      "v": 70
    },
    {
      "midi": 53,
      "hit": false,
      "t": 55945.88999999996,
      "d": 603.884531249998,
      "v": 90
    },
    {
      "midi": 58,
      "hit": false,
      "t": 55945.88999999996,
      "d": 610.2189843749948,
      "v": 81
    },
    {
      "midi": 46,
      "hit": false,
      "t": 55945.88999999996,
      "d": 667.229062499995,
      "v": 101
    },
    {
      "midi": 53,
      "hit": false,
      "t": 56148.592499999926,
      "d": 253.3781250000029,
      "v": 72
    },
    {
      "midi": 58,
      "hit": false,
      "t": 56351.29499999993,
      "d": 135.13500000000204,
      "v": 68
    },
    {
      "midi": 58,
      "hit": false,
      "t": 56553.99749999993,
      "d": 253.3781250000029,
      "v": 63
    },
    {
      "midi": 63,
      "hit": false,
      "t": 56553.99749999993,
      "d": 299.8307812500061,
      "v": 68
    },
    {
      "midi": 67,
      "hit": false,
      "t": 56553.99749999993,
      "d": 304.0537500000064,
      "v": 79
    },
    {
      "midi": 51,
      "hit": false,
      "t": 56756.69999999993,
      "d": 722.1276562500061,
      "v": 89
    },
    {
      "midi": 39,
      "hit": false,
      "t": 56756.69999999996,
      "d": 698.9013281250009,
      "v": 78
    },
    {
      "midi": 46,
      "hit": false,
      "t": 56756.69999999996,
      "d": 886.8234374999956,
      "v": 96
    },
    {
      "midi": 51,
      "hit": false,
      "t": 56756.69999999996,
      "d": 918.4957031249942,
      "v": 90
    },
    {
      "midi": 58,
      "hit": false,
      "t": 56959.40249999994,
      "d": 259.7125781249997,
      "v": 89
    },
    {
      "midi": 63,
      "hit": false,
      "t": 57162.10499999994,
      "d": 120.35460937499738,
      "v": 76
    },
    {
      "midi": 58,
      "hit": false,
      "t": 57364.80749999994,
      "d": 295.60781249999854,
      "v": 89
    },
    {
      "midi": 70,
      "hit": false,
      "t": 57364.80749999994,
      "d": 327.2800781249971,
      "v": 93
    },
    {
      "midi": 63,
      "hit": false,
      "t": 57364.80749999994,
      "d": 344.17195312499825,
      "v": 76
    },
    {
      "midi": 51,
      "hit": false,
      "t": 57567.50999999994,
      "d": 272.3814843750006,
      "v": 72
    },
    {
      "midi": 39,
      "hit": false,
      "t": 57567.50999999996,
      "d": 529.9825781249965,
      "v": 90
    },
    {
      "midi": 58,
      "hit": false,
      "t": 57770.212499999936,
      "d": 107.68570312500378,
      "v": 72
    },
    {
      "midi": 67,
      "hit": false,
      "t": 57770.212499999936,
      "d": 232.26328125000873,
      "v": 81
    },
    {
      "midi": 46,
      "hit": false,
      "t": 57770.21249999996,
      "d": 97.12828124999942,
      "v": 67
    },
    {
      "midi": 51,
      "hit": false,
      "t": 57770.21249999996,
      "d": 515.2021874999991,
      "v": 89
    },
    {
      "midi": 63,
      "hit": false,
      "t": 57972.91499999994,
      "d": 80.23640625000553,
      "v": 72
    },
    {
      "midi": 58,
      "hit": false,
      "t": 57972.91499999994,
      "d": 137.24648437500582,
      "v": 72
    },
    {
      "midi": 46,
      "hit": false,
      "t": 57972.91499999996,
      "d": 215.3714062500003,
      "v": 85
    },
    {
      "midi": 51,
      "hit": false,
      "t": 58175.61749999995,
      "d": 76.01343749999796,
      "v": 80
    },
    {
      "midi": 39,
      "hit": false,
      "t": 58175.61749999996,
      "d": 175.25320312500116,
      "v": 93
    },
    {
      "midi": 56,
      "hit": false,
      "t": 58378.31999999995,
      "d": 320.9456250000003,
      "v": 74
    },
    {
      "midi": 44,
      "hit": false,
      "t": 58378.31999999995,
      "d": 451.85765625000204,
      "v": 70
    },
    {
      "midi": 60,
      "hit": false,
      "t": 58378.31999999995,
      "d": 532.0940625000003,
      "v": 72
    },
    {
      "midi": 63,
      "hit": false,
      "t": 58378.31999999995,
      "d": 546.8744531249977,
      "v": 70
    },
    {
      "midi": 51,
      "hit": false,
      "t": 58378.319999999956,
      "d": 682.0094531249997,
      "v": 90
    },
    {
      "midi": 56,
      "hit": false,
      "t": 58378.319999999956,
      "d": 694.6783593750006,
      "v": 90
    },
    {
      "midi": 44,
      "hit": false,
      "t": 58378.319999999956,
      "d": 768.580312500002,
      "v": 101
    },
    {
      "midi": 56,
      "hit": false,
      "t": 58783.72499999995,
      "d": 168.9187499999971,
      "v": 68
    },
    {
      "midi": 44,
      "hit": false,
      "t": 58986.42749999995,
      "d": 42.22968750000291,
      "v": 60
    },
    {
      "midi": 46,
      "hit": false,
      "t": 59189.12999999995,
      "d": 428.6313281249968,
      "v": 96
    },
    {
      "midi": 46,
      "hit": false,
      "t": 59189.12999999996,
      "d": 515.2021874999991,
      "v": 90
    },
    {
      "midi": 53,
      "hit": false,
      "t": 59189.12999999996,
      "d": 762.245859374998,
      "v": 87
    },
    {
      "midi": 58,
      "hit": false,
      "t": 59189.12999999996,
      "d": 802.3640624999971,
      "v": 83
    },
    {
      "midi": 62,
      "hit": false,
      "t": 59391.832499999946,
      "d": 261.8240624999962,
      "v": 78
    },
    {
      "midi": 58,
      "hit": false,
      "t": 59391.832499999946,
      "d": 282.9389062499977,
      "v": 76
    },
    {
      "midi": 65,
      "hit": false,
      "t": 59391.832499999946,
      "d": 434.9657812500009,
      "v": 72
    },
    {
      "midi": 53,
      "hit": false,
      "t": 59594.534999999945,
      "d": 109.79718750000029,
      "v": 49
    },
    {
      "midi": 46,
      "hit": false,
      "t": 59695.886249999945,
      "d": 86.57085937500233,
      "v": 20
    },
    {
      "midi": 55,
      "hit": false,
      "t": 59797.237499999945,
      "d": 310.3882031249959,
      "v": 58
    },
    {
      "midi": 58,
      "hit": false,
      "t": 59797.237499999945,
      "d": 428.6313281249968,
      "v": 67
    },
    {
      "midi": 63,
      "hit": false,
      "t": 59797.237499999945,
      "d": 563.7663281249988,
      "v": 80
    },
    {
      "midi": 46,
      "hit": false,
      "t": 59797.23749999996,
      "d": 97.12828124999942,
      "v": 76
    },
    {
      "midi": 39,
      "hit": false,
      "t": 59999.93999999996,
      "d": 489.8643749999974,
      "v": 80
    },
    {
      "midi": 51,
      "hit": false,
      "t": 60101.291249999944,
      "d": 1279.5595312499863,
      "v": 80
    },
    {
      "midi": 55,
      "hit": false,
      "t": 60202.64249999994,
      "d": 306.1652343750029,
      "v": 58
    },
    {
      "midi": 46,
      "hit": false,
      "t": 60202.64249999996,
      "d": 158.361328125,
      "v": 96
    },
    {
      "midi": 51,
      "hit": false,
      "t": 60202.64249999996,
      "d": 211.1484375,
      "v": 99
    },
    {
      "midi": 58,
      "hit": false,
      "t": 60405.34499999994,
      "d": 137.24648437500582,
      "v": 83
    },
    {
      "midi": 55,
      "hit": false,
      "t": 60608.04749999995,
      "d": 59.1215624999968,
      "v": 18
    },
    {
      "midi": 58,
      "hit": false,
      "t": 60608.04749999995,
      "d": 73.90195312499418,
      "v": 58
    },
    {
      "midi": 65,
      "hit": false,
      "t": 60608.04749999995,
      "d": 84.45937499999127,
      "v": 64
    },
    {
      "midi": 39,
      "hit": false,
      "t": 60608.04749999996,
      "d": 333.61453125000116,
      "v": 101
    },
    {
      "midi": 65,
      "hit": false,
      "t": 60810.74999999994,
      "d": 209.03695312499622,
      "v": 89
    },
    {
      "midi": 58,
      "hit": false,
      "t": 60810.74999999994,
      "d": 219.5943749999933,
      "v": 93
    },
    {
      "midi": 55,
      "hit": false,
      "t": 60810.74999999994,
      "d": 458.19210937499156,
      "v": 81
    },
    {
      "midi": 46,
      "hit": false,
      "t": 60810.749999999956,
      "d": 574.3237499999959,
      "v": 101
    },
    {
      "midi": 51,
      "hit": false,
      "t": 60810.749999999956,
      "d": 608.1074999999983,
      "v": 104
    },
    {
      "midi": 63,
      "hit": false,
      "t": 61013.45249999994,
      "d": 481.4184374999895,
      "v": 93
    },
    {
      "midi": 39,
      "hit": false,
      "t": 61013.452499999956,
      "d": 295.60781249999854,
      "v": 104
    },
    {
      "midi": 58,
      "hit": false,
      "t": 61216.15499999993,
      "d": 394.84757812499447,
      "v": 99
    },
    {
      "midi": 55,
      "hit": false,
      "t": 61418.85749999993,
      "d": 90.79382812499534,
      "v": 67
    },
    {
      "midi": 39,
      "hit": false,
      "t": 61418.857499999955,
      "d": 194.25656249999884,
      "v": 85
    },
    {
      "midi": 63,
      "hit": false,
      "t": 61621.559999999925,
      "d": 346.28343750000204,
      "v": 72
    },
    {
      "midi": 60,
      "hit": false,
      "t": 61621.559999999925,
      "d": 354.7293750000026,
      "v": 73
    },
    {
      "midi": 44,
      "hit": false,
      "t": 61621.559999999925,
      "d": 489.86437500000466,
      "v": 83
    },
    {
      "midi": 51,
      "hit": false,
      "t": 61621.559999999954,
      "d": 694.6783593750006,
      "v": 90
    },
    {
      "midi": 56,
      "hit": false,
      "t": 61621.559999999954,
      "d": 722.1276562499988,
      "v": 90
    },
    {
      "midi": 44,
      "hit": false,
      "t": 61621.559999999954,
      "d": 743.2425000000003,
      "v": 99
    },
    {
      "midi": 63,
      "hit": false,
      "t": 62026.96499999993,
      "d": 356.8408593749991,
      "v": 86
    },
    {
      "midi": 56,
      "hit": false,
      "t": 62026.96499999993,
      "d": 361.0638281249994,
      "v": 89
    },
    {
      "midi": 60,
      "hit": false,
      "t": 62026.96499999993,
      "d": 548.9859375000015,
      "v": 85
    },
    {
      "midi": 44,
      "hit": false,
      "t": 62229.66749999993,
      "d": 120.35460937499738,
      "v": 62
    },
    {
      "midi": 46,
      "hit": false,
      "t": 62432.36999999993,
      "d": 344.17195312499825,
      "v": 86
    },
    {
      "midi": 58,
      "hit": false,
      "t": 62432.36999999995,
      "d": 660.8946093749983,
      "v": 87
    },
    {
      "midi": 53,
      "hit": false,
      "t": 62432.36999999995,
      "d": 667.229062499995,
      "v": 88
    },
    {
      "midi": 46,
      "hit": false,
      "t": 62432.36999999995,
      "d": 732.6850781249959,
      "v": 104
    },
    {
      "midi": 62,
      "hit": false,
      "t": 62635.07249999993,
      "d": 187.92210937500204,
      "v": 71
    },
    {
      "midi": 65,
      "hit": false,
      "t": 62635.07249999993,
      "d": 192.14507812500233,
      "v": 61
    },
    {
      "midi": 58,
      "hit": false,
      "t": 62635.07249999993,
      "d": 249.15515625000262,
      "v": 70
    },
    {
      "midi": 53,
      "hit": false,
      "t": 62837.77499999993,
      "d": 59.121562500004075,
      "v": 34
    },
    {
      "midi": 46,
      "hit": false,
      "t": 62837.77499999993,
      "d": 259.712578125007,
      "v": 62
    },
    {
      "midi": 55,
      "hit": false,
      "t": 63040.477499999935,
      "d": 496.19882812500146,
      "v": 72
    },
    {
      "midi": 67,
      "hit": false,
      "t": 63040.477499999935,
      "d": 701.0128124999974,
      "v": 75
    },
    {
      "midi": 58,
      "hit": false,
      "t": 63040.477499999935,
      "d": 722.1276562499988,
      "v": 80
    },
    {
      "midi": 63,
      "hit": false,
      "t": 63040.477499999935,
      "d": 722.1276562499988,
      "v": 78
    },
    {
      "midi": 39,
      "hit": false,
      "t": 63243.17999999995,
      "d": 580.658203125,
      "v": 80
    },
    {
      "midi": 46,
      "hit": false,
      "t": 63243.17999999995,
      "d": 952.2794531249965,
      "v": 96
    },
    {
      "midi": 51,
      "hit": false,
      "t": 63243.17999999995,
      "d": 958.6139062499933,
      "v": 81
    },
    {
      "midi": 51,
      "hit": false,
      "t": 63445.882499999934,
      "d": 861.4856250000012,
      "v": 81
    },
    {
      "midi": 55,
      "hit": false,
      "t": 63648.584999999934,
      "d": 289.27335937500175,
      "v": 64
    },
    {
      "midi": 67,
      "hit": false,
      "t": 63851.28749999993,
      "d": 304.0537499999991,
      "v": 91
    },
    {
      "midi": 58,
      "hit": false,
      "t": 63851.28749999993,
      "d": 312.4996874999997,
      "v": 70
    },
    {
      "midi": 55,
      "hit": false,
      "t": 64053.98999999993,
      "d": 299.8307812500061,
      "v": 54
    },
    {
      "midi": 39,
      "hit": false,
      "t": 64053.98999999995,
      "d": 496.1988281249942,
      "v": 101
    },
    {
      "midi": 63,
      "hit": false,
      "t": 64256.69249999993,
      "d": 299.8307812500061,
      "v": 102
    },
    {
      "midi": 51,
      "hit": false,
      "t": 64256.69249999994,
      "d": 491.97585937500116,
      "v": 75
    },
    {
      "midi": 55,
      "hit": false,
      "t": 64459.39499999994,
      "d": 130.91203125000175,
      "v": 47
    },
    {
      "midi": 58,
      "hit": false,
      "t": 64459.39499999994,
      "d": 411.7394531250029,
      "v": 93
    },
    {
      "midi": 46,
      "hit": false,
      "t": 64459.39499999994,
      "d": 238.59773437499825,
      "v": 90
    },
    {
      "midi": 51,
      "hit": false,
      "t": 64662.09749999994,
      "d": 103.46273437500349,
      "v": 86
    },
    {
      "midi": 39,
      "hit": false,
      "t": 64662.09749999994,
      "d": 135.13500000000204,
      "v": 101
    },
    {
      "midi": 51,
      "hit": false,
      "t": 64864.79999999994,
      "d": 766.4688281250055,
      "v": 83
    },
    {
      "midi": 56,
      "hit": false,
      "t": 64864.79999999994,
      "d": 772.8032812500096,
      "v": 85
    },
    {
      "midi": 44,
      "hit": false,
      "t": 64864.79999999994,
      "d": 777.0262500000026,
      "v": 99
    },
    {
      "midi": 56,
      "hit": false,
      "t": 64864.799999999945,
      "d": 295.60781249999854,
      "v": 93
    },
    {
      "midi": 44,
      "hit": false,
      "t": 64864.799999999945,
      "d": 451.85765625000204,
      "v": 64
    },
    {
      "midi": 60,
      "hit": false,
      "t": 64864.799999999945,
      "d": 711.5702343750017,
      "v": 83
    },
    {
      "midi": 63,
      "hit": false,
      "t": 64864.799999999945,
      "d": 739.01953125,
      "v": 86
    },
    {
      "midi": 56,
      "hit": false,
      "t": 65270.20499999994,
      "d": 261.8240625000035,
      "v": 68
    },
    {
      "midi": 44,
      "hit": false,
      "t": 65472.90749999995,
      "d": 667.229062499995,
      "v": 86
    },
    {
      "midi": 56,
      "hit": false,
      "t": 65675.60999999994,
      "d": 158.361328125,
      "v": 86
    },
    {
      "midi": 63,
      "hit": false,
      "t": 65675.60999999994,
      "d": 563.7663281249988,
      "v": 65
    },
    {
      "midi": 60,
      "hit": false,
      "t": 65675.60999999994,
      "d": 648.2257031250047,
      "v": 76
    },
    {
      "midi": 44,
      "hit": false,
      "t": 65675.60999999994,
      "d": 187.92210937499476,
      "v": 93
    },
    {
      "midi": 51,
      "hit": false,
      "t": 65675.60999999994,
      "d": 479.306953124993,
      "v": 76
    },
    {
      "midi": 56,
      "hit": false,
      "t": 65675.60999999994,
      "d": 491.9758593749866,
      "v": 64
    },
    {
      "midi": 55,
      "hit": false,
      "t": 65878.31249999994,
      "d": 171.0302343749936,
      "v": 71
    },
    {
      "midi": 43,
      "hit": false,
      "t": 65878.31249999994,
      "d": 194.25656249999884,
      "v": 95
    },
    {
      "midi": 56,
      "hit": false,
      "t": 66081.01499999994,
      "d": 130.91203125000175,
      "v": 90
    },
    {
      "midi": 44,
      "hit": false,
      "t": 66081.01499999994,
      "d": 380.06718749998254,
      "v": 114
    },
    {
      "midi": 44,
      "hit": false,
      "t": 66283.71749999994,
      "d": 107.68570312501106,
      "v": 81
    },
    {
      "midi": 46,
      "hit": false,
      "t": 66486.41999999993,
      "d": 1621.6199999999953,
      "v": 110
    },
    {
      "midi": 53,
      "hit": false,
      "t": 66486.41999999993,
      "d": 1621.6199999999953,
      "v": 87
    },
    {
      "midi": 58,
      "hit": false,
      "t": 66486.41999999993,
      "d": 1621.6199999999953,
      "v": 83
    },
    {
      "midi": 53,
      "hit": false,
      "t": 66486.41999999995,
      "d": 1613.1740624999948,
      "v": 79
    },
    {
      "midi": 62,
      "hit": false,
      "t": 66486.41999999995,
      "d": 1634.288906249989,
      "v": 81
    },
    {
      "midi": 65,
      "hit": false,
      "t": 66486.41999999995,
      "d": 1634.288906249989,
      "v": 54
    },
    {
      "midi": 46,
      "hit": false,
      "t": 66486.41999999995,
      "d": 1651.18078124999,
      "v": 96
    },
    {
      "midi": 58,
      "hit": false,
      "t": 68108.03999999995,
      "d": 2.1114843749965075,
      "v": 102
    },
    {
      "midi": 55,
      "hit": false,
      "t": 68108.03999999995,
      "d": 350.5064062499878,
      "v": 73
    },
    {
      "midi": 63,
      "hit": false,
      "t": 68108.03999999995,
      "d": 418.0739062499779,
      "v": 102
    },
    {
      "midi": 39,
      "hit": false,
      "t": 68108.03999999995,
      "d": 1545.60656249999,
      "v": 96
    },
    {
      "midi": 51,
      "hit": false,
      "t": 68513.44499999992,
      "d": 194.25656249999884,
      "v": 110
    },
    {
      "midi": 51,
      "hit": false,
      "t": 68513.44499999993,
      "d": 779.137734375021,
      "v": 93
    },
    {
      "midi": 46,
      "hit": false,
      "t": 68716.14749999992,
      "d": 242.82070312500582,
      "v": 90
    },
    {
      "midi": 58,
      "hit": false,
      "t": 68716.14749999993,
      "d": 101.35125000000698,
      "v": 63
    },
    {
      "midi": 48,
      "hit": false,
      "t": 68918.84999999992,
      "d": 198.4795312500064,
      "v": 78
    },
    {
      "midi": 58,
      "hit": false,
      "t": 68918.84999999995,
      "d": 137.24648437500582,
      "v": 90
    },
    {
      "midi": 63,
      "hit": false,
      "t": 68918.84999999995,
      "d": 171.03023437500815,
      "v": 90
    },
    {
      "midi": 51,
      "hit": false,
      "t": 69121.55249999992,
      "d": 175.25320312500116,
      "v": 87
    },
    {
      "midi": 58,
      "hit": false,
      "t": 69121.55249999996,
      "d": 97.12828124999942,
      "v": 81
    },
    {
      "midi": 65,
      "hit": false,
      "t": 69121.55249999996,
      "d": 175.2532031249866,
      "v": 81
    },
    {
      "midi": 53,
      "hit": false,
      "t": 69324.25499999992,
      "d": 232.26328124999418,
      "v": 81
    },
    {
      "midi": 63,
      "hit": false,
      "t": 69324.25499999995,
      "d": 152.02687499999593,
      "v": 76
    },
    {
      "midi": 67,
      "hit": false,
      "t": 69324.25499999995,
      "d": 177.36468749999767,
      "v": 81
    },
    {
      "midi": 58,
      "hit": false,
      "t": 69324.25499999995,
      "d": 293.49632812499476,
      "v": 93
    },
    {
      "midi": 55,
      "hit": false,
      "t": 69526.95749999992,
      "d": 143.58093749999534,
      "v": 97
    },
    {
      "midi": 51,
      "hit": false,
      "t": 69526.95749999995,
      "d": 101.35124999999243,
      "v": 76
    },
    {
      "midi": 56,
      "hit": false,
      "t": 69729.65999999992,
      "d": 198.4795312500064,
      "v": 96
    },
    {
      "midi": 44,
      "hit": false,
      "t": 69729.65999999995,
      "d": 489.86437500000466,
      "v": 86
    },
    {
      "midi": 68,
      "hit": false,
      "t": 69729.65999999995,
      "d": 513.0907031250099,
      "v": 83
    },
    {
      "midi": 60,
      "hit": false,
      "t": 69729.65999999995,
      "d": 565.8778125000099,
      "v": 67
    },
    {
      "midi": 63,
      "hit": false,
      "t": 69729.65999999995,
      "d": 591.2156250000116,
      "v": 74
    },
    {
      "midi": 55,
      "hit": false,
      "t": 69932.36249999992,
      "d": 177.36468749999767,
      "v": 102
    },
    {
      "midi": 53,
      "hit": false,
      "t": 70135.06499999992,
      "d": 401.18203124999127,
      "v": 114
    },
    {
      "midi": 56,
      "hit": false,
      "t": 70135.06499999994,
      "d": 232.26328125000873,
      "v": 78
    },
    {
      "midi": 44,
      "hit": false,
      "t": 70337.76749999996,
      "d": 709.4587500000198,
      "v": 89
    },
    {
      "midi": 51,
      "hit": false,
      "t": 70540.4699999999,
      "d": 198.4795312500064,
      "v": 104
    },
    {
      "midi": 56,
      "hit": false,
      "t": 70540.46999999996,
      "d": 152.02687499999593,
      "v": 81
    },
    {
      "midi": 60,
      "hit": false,
      "t": 70540.46999999996,
      "d": 390.62460937500873,
      "v": 73
    },
    {
      "midi": 63,
      "hit": false,
      "t": 70540.46999999996,
      "d": 580.6582031250146,
      "v": 65
    },
    {
      "midi": 53,
      "hit": false,
      "t": 70743.1724999999,
      "d": 242.82070312500582,
      "v": 84
    },
    {
      "midi": 55,
      "hit": false,
      "t": 70743.17249999996,
      "d": 92.9053125000064,
      "v": 67
    },
    {
      "midi": 55,
      "hit": false,
      "t": 70945.8749999999,
      "d": 228.04031250000116,
      "v": 88
    },
    {
      "midi": 60,
      "hit": false,
      "t": 70945.87499999997,
      "d": 194.25656249999884,
      "v": 63
    },
    {
      "midi": 56,
      "hit": false,
      "t": 70945.87499999997,
      "d": 255.48960937499942,
      "v": 90
    },
    {
      "midi": 58,
      "hit": false,
      "t": 71148.5774999999,
      "d": 120.35460937500466,
      "v": 101
    },
    {
      "midi": 44,
      "hit": false,
      "t": 71148.57749999997,
      "d": 80.23640624999825,
      "v": 56
    },
    {
      "midi": 56,
      "hit": false,
      "t": 71351.2799999999,
      "d": 120.35460937500466,
      "v": 104
    },
    {
      "midi": 60,
      "hit": false,
      "t": 71351.2799999999,
      "d": 126.68906250000873,
      "v": 114
    },
    {
      "midi": 63,
      "hit": false,
      "t": 71351.2799999999,
      "d": 126.68906250000873,
      "v": 114
    },
    {
      "midi": 46,
      "hit": false,
      "t": 71351.27999999997,
      "d": 69.67898437500116,
      "v": 102
    },
    {
      "midi": 53,
      "hit": false,
      "t": 71351.27999999997,
      "d": 73.90195312499418,
      "v": 64
    },
    {
      "midi": 58,
      "hit": false,
      "t": 71351.27999999997,
      "d": 114.02015625000058,
      "v": 96
    },
    {
      "midi": 62,
      "hit": false,
      "t": 71756.6849999999,
      "d": 2795.605312499989,
      "v": 114
    },
    {
      "midi": 65,
      "hit": false,
      "t": 71756.6849999999,
      "d": 2795.605312499989,
      "v": 114
    },
    {
      "midi": 58,
      "hit": false,
      "t": 71756.6849999999,
      "d": 2823.054609374987,
      "v": 114
    },
    {
      "midi": 53,
      "hit": false,
      "t": 71756.68499999997,
      "d": 304.0537500000064,
      "v": 83
    },
    {
      "midi": 46,
      "hit": false,
      "t": 71756.68499999997,
      "d": 502.5332812500128,
      "v": 102
    },
    {
      "midi": 65,
      "hit": false,
      "t": 71756.68499999997,
      "d": 912.1612500000047,
      "v": 60
    },
    {
      "midi": 58,
      "hit": false,
      "t": 71756.68499999997,
      "d": 920.6071875000052,
      "v": 90
    },
    {
      "midi": 62,
      "hit": false,
      "t": 71756.68499999997,
      "d": 920.6071875000052,
      "v": 89
    },
    {
      "midi": 53,
      "hit": false,
      "t": 72162.08999999998,
      "d": 255.48960937499942,
      "v": 60
    },
    {
      "midi": 46,
      "hit": false,
      "t": 72364.79249999998,
      "d": 1083.1914843750128,
      "v": 72
    },
    {
      "midi": 53,
      "hit": false,
      "t": 72567.49499999998,
      "d": 90.79382812499534,
      "v": 67
    },
    {
      "midi": 60,
      "hit": false,
      "t": 72770.19749999998,
      "d": 202.70250000001397,
      "v": 90
    },
    {
      "midi": 65,
      "hit": false,
      "t": 72770.19749999998,
      "d": 1070.5225781250047,
      "v": 81
    },
    {
      "midi": 62,
      "hit": false,
      "t": 72972.9,
      "d": 901.603828124993,
      "v": 72
    },
    {
      "midi": 53,
      "hit": false,
      "t": 73175.6025,
      "d": 472.9725000000035,
      "v": 73
    },
    {
      "midi": 46,
      "hit": false,
      "t": 73581.00749999999,
      "d": 726.3506249999919,
      "v": 99
    },
    {
      "midi": 53,
      "hit": false,
      "t": 73783.70999999999,
      "d": 323.0571093750041,
      "v": 81
    },
    {
      "midi": 65,
      "hit": false,
      "t": 73986.41249999999,
      "d": 608.1074999999983,
      "v": 89
    },
    {
      "midi": 53,
      "hit": false,
      "t": 74189.11499999999,
      "d": 405.40499999999884,
      "v": 78
    },
    {
      "midi": 46,
      "hit": false,
      "t": 74391.81749999999,
      "d": 192.14507812500233,
      "v": 76
    },
    {
      "midi": 39,
      "hit": false,
      "t": 74594.51999999989,
      "d": 937.4990624999919,
      "v": 83
    },
    {
      "midi": 58,
      "hit": false,
      "t": 74594.51999999999,
      "d": 8.445937500000582,
      "v": 89
    },
    {
      "midi": 51,
      "hit": false,
      "t": 74594.51999999999,
      "d": 289.27335937500175,
      "v": 99
    },
    {
      "midi": 63,
      "hit": false,
      "t": 74594.51999999999,
      "d": 819.2559375000128,
      "v": 90
    },
    {
      "midi": 55,
      "hit": false,
      "t": 74797.22249999999,
      "d": 287.16187500000524,
      "v": 53
    },
    {
      "midi": 46,
      "hit": false,
      "t": 74999.92499999989,
      "d": 1195.1001562499878,
      "v": 83
    },
    {
      "midi": 51,
      "hit": false,
      "t": 74999.92499999989,
      "d": 1233.1068749999831,
      "v": 96
    },
    {
      "midi": 51,
      "hit": false,
      "t": 74999.92499999999,
      "d": 743.2425000000221,
      "v": 48
    },
    {
      "midi": 55,
      "hit": false,
      "t": 75202.62749999999,
      "d": 654.5601562500233,
      "v": 64
    },
    {
      "midi": 58,
      "hit": false,
      "t": 75405.33,
      "d": 130.91203125000175,
      "v": 72
    },
    {
      "midi": 39,
      "hit": false,
      "t": 75608.03249999988,
      "d": 272.3814843750006,
      "v": 63
    },
    {
      "midi": 58,
      "hit": false,
      "t": 75608.0325,
      "d": 232.26328125000873,
      "v": 44
    },
    {
      "midi": 63,
      "hit": false,
      "t": 75608.0325,
      "d": 232.26328125000873,
      "v": 99
    },
    {
      "midi": 60,
      "hit": false,
      "t": 75810.73500000002,
      "d": 158.36132812498545,
      "v": 64
    },
    {
      "midi": 51,
      "hit": false,
      "t": 75912.08625000001,
      "d": 97.12828124999942,
      "v": 54
    },
    {
      "midi": 39,
      "hit": false,
      "t": 76013.43749999988,
      "d": 171.0302343749936,
      "v": 67
    },
    {
      "midi": 58,
      "hit": false,
      "t": 76013.4375,
      "d": 76.01343750000524,
      "v": 90
    },
    {
      "midi": 63,
      "hit": false,
      "t": 76013.4375,
      "d": 101.35125000000698,
      "v": 96
    },
    {
      "midi": 44,
      "hit": false,
      "t": 76216.13999999987,
      "d": 574.3237499999959,
      "v": 90
    },
    {
      "midi": 56,
      "hit": false,
      "t": 76418.84250000001,
      "d": 451.85765624999476,
      "v": 74
    },
    {
      "midi": 58,
      "hit": false,
      "t": 76418.84250000001,
      "d": 654.5601562499942,
      "v": 81
    },
    {
      "midi": 63,
      "hit": false,
      "t": 76418.84250000001,
      "d": 1127.5326562500122,
      "v": 83
    },
    {
      "midi": 51,
      "hit": false,
      "t": 76621.54499999987,
      "d": 546.8744531249977,
      "v": 90
    },
    {
      "midi": 56,
      "hit": false,
      "t": 76621.54499999987,
      "d": 1201.4346093749773,
      "v": 87
    },
    {
      "midi": 44,
      "hit": false,
      "t": 76824.24750000001,
      "d": 616.5534375000134,
      "v": 72
    },
    {
      "midi": 44,
      "hit": false,
      "t": 77026.94999999987,
      "d": 194.25656249999884,
      "v": 63
    },
    {
      "midi": 56,
      "hit": false,
      "t": 77026.95000000001,
      "d": 175.25320312500116,
      "v": 68
    },
    {
      "midi": 51,
      "hit": false,
      "t": 77229.65249999987,
      "d": 259.71257812499243,
      "v": 51
    },
    {
      "midi": 56,
      "hit": false,
      "t": 77229.65250000001,
      "d": 25.337812500001746,
      "v": 33
    },
    {
      "midi": 58,
      "hit": false,
      "t": 77229.65250000001,
      "d": 323.0571093750186,
      "v": 86
    },
    {
      "midi": 44,
      "hit": false,
      "t": 77432.35499999986,
      "d": 84.45937499999127,
      "v": 51
    },
    {
      "midi": 56,
      "hit": false,
      "t": 77432.35500000003,
      "d": 114.02015625000058,
      "v": 57
    },
    {
      "midi": 51,
      "hit": false,
      "t": 77635.05749999985,
      "d": 164.69578125000407,
      "v": 67
    },
    {
      "midi": 44,
      "hit": false,
      "t": 77635.05749999985,
      "d": 185.81062499999825,
      "v": 53
    },
    {
      "midi": 53,
      "hit": false,
      "t": 77635.05750000002,
      "d": 525.7596093750035,
      "v": 64
    },
    {
      "midi": 58,
      "hit": false,
      "t": 77635.05750000002,
      "d": 532.0940625000076,
      "v": 63
    },
    {
      "midi": 62,
      "hit": false,
      "t": 77635.05750000002,
      "d": 2601.3487500000047,
      "v": 73
    },
    {
      "midi": 46,
      "hit": false,
      "t": 77837.75999999985,
      "d": 508.8677343750023,
      "v": 89
    },
    {
      "midi": 46,
      "hit": false,
      "t": 77939.11125000003,
      "d": 886.8234375000029,
      "v": 40
    },
    {
      "midi": 58,
      "hit": false,
      "t": 78243.16499999985,
      "d": 591.2156249999971,
      "v": 85
    },
    {
      "midi": 53,
      "hit": false,
      "t": 78243.16499999985,
      "d": 722.1276562499988,
      "v": 78
    },
    {
      "midi": 53,
      "hit": false,
      "t": 78243.16500000004,
      "d": 371.6212499999965,
      "v": 53
    },
    {
      "midi": 58,
      "hit": false,
      "t": 78243.16500000004,
      "d": 914.2727343750012,
      "v": 62
    },
    {
      "midi": 46,
      "hit": false,
      "t": 78648.56999999985,
      "d": 479.306953124993,
      "v": 56
    },
    {
      "midi": 53,
      "hit": false,
      "t": 78749.92125000003,
      "d": 278.71593750000466,
      "v": 54
    },
    {
      "midi": 58,
      "hit": false,
      "t": 78851.27249999985,
      "d": 424.4083593749965,
      "v": 60
    },
    {
      "midi": 46,
      "hit": false,
      "t": 78952.62375000003,
      "d": 447.63468750000175,
      "v": 48
    },
    {
      "midi": 53,
      "hit": false,
      "t": 79053.97499999985,
      "d": 215.37140624999302,
      "v": 72
    },
    {
      "midi": 53,
      "hit": false,
      "t": 79053.97500000003,
      "d": 390.6246093749942,
      "v": 58
    },
    {
      "midi": 46,
      "hit": false,
      "t": 79256.67749999985,
      "d": 519.4251562499994,
      "v": 76
    },
    {
      "midi": 58,
      "hit": false,
      "t": 79256.67750000003,
      "d": 181.5876562499907,
      "v": 74
    },
    {
      "midi": 60,
      "hit": false,
      "t": 79459.37999999984,
      "d": 225.92882812500466,
      "v": 84
    },
    {
      "midi": 53,
      "hit": false,
      "t": 79459.37999999984,
      "d": 413.8509374999994,
      "v": 77
    },
    {
      "midi": 46,
      "hit": false,
      "t": 79459.38000000003,
      "d": 259.71257812499243,
      "v": 59
    },
    {
      "midi": 58,
      "hit": false,
      "t": 79662.08249999984,
      "d": 312.499687500007,
      "v": 81
    },
    {
      "midi": 53,
      "hit": false,
      "t": 79662.08250000003,
      "d": 299.83078124999884,
      "v": 79
    },
    {
      "midi": 58,
      "hit": false,
      "t": 79662.08250000003,
      "d": 456.0806250000023,
      "v": 81
    },
    {
      "midi": 46,
      "hit": false,
      "t": 79864.78499999984,
      "d": 202.70250000001397,
      "v": 54
    },
    {
      "midi": 46,
      "hit": false,
      "t": 79864.78500000003,
      "d": 998.7321093749924,
      "v": 83
    },
    {
      "midi": 53,
      "hit": false,
      "t": 80067.48749999986,
      "d": 109.79718749999302,
      "v": 66
    },
    {
      "midi": 53,
      "hit": false,
      "t": 80067.48750000003,
      "d": 171.0302343749936,
      "v": 70
    },
    {
      "midi": 46,
      "hit": false,
      "t": 80270.18999999986,
      "d": 413.8509374999994,
      "v": 78
    },
    {
      "midi": 58,
      "hit": false,
      "t": 80270.19000000003,
      "d": 25.337812500001746,
      "v": 36
    },
    {
      "midi": 60,
      "hit": false,
      "t": 80270.19000000003,
      "d": 84.45937500000582,
      "v": 64
    },
    {
      "midi": 53,
      "hit": false,
      "t": 80472.89249999986,
      "d": 40.1182031250064,
      "v": 45
    },
    {
      "midi": 58,
      "hit": false,
      "t": 80472.89249999986,
      "d": 333.61453125000116,
      "v": 96
    },
    {
      "midi": 60,
      "hit": false,
      "t": 80472.89250000003,
      "d": 152.02687499999593,
      "v": 81
    },
    {
      "midi": 53,
      "hit": false,
      "t": 80675.59499999986,
      "d": 219.59437500000058,
      "v": 76
    },
    {
      "midi": 62,
      "hit": false,
      "t": 80675.59500000003,
      "d": 261.8240625000035,
      "v": 81
    },
    {
      "midi": 46,
      "hit": false,
      "t": 80878.29749999986,
      "d": 69.67898437500116,
      "v": 85
    },
    {
      "midi": 58,
      "hit": false,
      "t": 80878.29750000003,
      "d": 935.3875781250244,
      "v": 89
    },
    {
      "midi": 39,
      "hit": false,
      "t": 81080.99999999985,
      "d": 614.4419531250023,
      "v": 96
    },
    {
      "midi": 55,
      "hit": false,
      "t": 81081.00000000004,
      "d": 282.9389062499977,
      "v": 58
    },
    {
      "midi": 51,
      "hit": false,
      "t": 81081.00000000004,
      "d": 481.4184375000041,
      "v": 90
    },
    {
      "midi": 63,
      "hit": false,
      "t": 81081.00000000004,
      "d": 863.5971093750122,
      "v": 76
    },
    {
      "midi": 46,
      "hit": false,
      "t": 81486.40499999985,
      "d": 1138.0900781250093,
      "v": 89
    },
    {
      "midi": 51,
      "hit": false,
      "t": 81486.40499999985,
      "d": 1199.32312500001,
      "v": 89
    },
    {
      "midi": 55,
      "hit": false,
      "t": 81486.40500000004,
      "d": 270.2700000000186,
      "v": 70
    },
    {
      "midi": 51,
      "hit": false,
      "t": 81689.10750000006,
      "d": 519.4251562499994,
      "v": 64
    },
    {
      "midi": 55,
      "hit": false,
      "t": 81891.81000000006,
      "d": 73.90195312499418,
      "v": 28
    },
    {
      "midi": 58,
      "hit": false,
      "t": 81891.81000000006,
      "d": 118.2431249999936,
      "v": 72
    },
    {
      "midi": 58,
      "hit": false,
      "t": 82094.51250000006,
      "d": 204.81398437499593,
      "v": 80
    },
    {
      "midi": 63,
      "hit": false,
      "t": 82094.51250000006,
      "d": 282.9389062499977,
      "v": 96
    },
    {
      "midi": 55,
      "hit": false,
      "t": 82094.51250000006,
      "d": 515.2021874999919,
      "v": 54
    },
    {
      "midi": 39,
      "hit": false,
      "t": 82195.86374999986,
      "d": 42.22968750000291,
      "v": 40
    },
    {
      "midi": 60,
      "hit": false,
      "t": 82297.21500000005,
      "d": 238.59773437499825,
      "v": 64
    },
    {
      "midi": 39,
      "hit": false,
      "t": 82499.91749999986,
      "d": 154.13835937499243,
      "v": 54
    },
    {
      "midi": 63,
      "hit": false,
      "t": 82499.91750000005,
      "d": 137.24648437499127,
      "v": 70
    },
    {
      "midi": 58,
      "hit": false,
      "t": 82499.91750000005,
      "d": 143.58093749999534,
      "v": 58
    },
    {
      "midi": 44,
      "hit": false,
      "t": 82702.61999999986,
      "d": 523.6481249999924,
      "v": 80
    },
    {
      "midi": 51,
      "hit": false,
      "t": 82702.62000000005,
      "d": 204.81398437499593,
      "v": 70
    },
    {
      "midi": 56,
      "hit": false,
      "t": 82905.32250000005,
      "d": 451.85765624999476,
      "v": 74
    },
    {
      "midi": 58,
      "hit": false,
      "t": 82905.32250000005,
      "d": 924.8301562500128,
      "v": 78
    },
    {
      "midi": 63,
      "hit": false,
      "t": 82905.32250000005,
      "d": 1049.4077343750105,
      "v": 72
    },
    {
      "midi": 51,
      "hit": false,
      "t": 83108.02499999986,
      "d": 513.0907031249953,
      "v": 89
    },
    {
      "midi": 56,
      "hit": false,
      "t": 83108.02499999986,
      "d": 1116.9752343750006,
      "v": 96
    },
    {
      "midi": 44,
      "hit": false,
      "t": 83310.72750000005,
      "d": 869.9315625000163,
      "v": 68
    },
    {
      "midi": 44,
      "hit": false,
      "t": 83513.42999999986,
      "d": 225.92882812500466,
      "v": 52
    },
    {
      "midi": 56,
      "hit": false,
      "t": 83513.43000000005,
      "d": 154.13835937500698,
      "v": 51
    },
    {
      "midi": 51,
      "hit": false,
      "t": 83716.13249999986,
      "d": 390.6246093749942,
      "v": 75
    },
    {
      "midi": 56,
      "hit": false,
      "t": 83716.13250000007,
      "d": 255.48960937499942,
      "v": 51
    },
    {
      "midi": 44,
      "hit": false,
      "t": 83918.83499999986,
      "d": 272.3814843750006,
      "v": 54
    },
    {
      "midi": 58,
      "hit": false,
      "t": 83918.83500000006,
      "d": 141.46945312499884,
      "v": 65
    },
    {
      "midi": 51,
      "hit": false,
      "t": 84121.53749999986,
      "d": 107.68570312499651,
      "v": 48
    },
    {
      "midi": 56,
      "hit": false,
      "t": 84121.53750000006,
      "d": 187.9221093750093,
      "v": 80
    },
    {
      "midi": 60,
      "hit": false,
      "t": 84121.53750000006,
      "d": 194.2565625000134,
      "v": 75
    },
    {
      "midi": 46,
      "hit": false,
      "t": 84324.23999999986,
      "d": 1313.343281249996,
      "v": 83
    },
    {
      "midi": 46,
      "hit": false,
      "t": 84324.24000000008,
      "d": 344.17195312499825,
      "v": 81
    },
    {
      "midi": 53,
      "hit": false,
      "t": 84526.94250000008,
      "d": 333.61453125000116,
      "v": 66
    },
    {
      "midi": 58,
      "hit": false,
      "t": 84526.94250000008,
      "d": 846.7052343749965,
      "v": 80
    },
    {
      "midi": 53,
      "hit": false,
      "t": 84729.64499999986,
      "d": 692.5668750000041,
      "v": 68
    },
    {
      "midi": 58,
      "hit": false,
      "t": 84729.64499999986,
      "d": 1148.6474999999919,
      "v": 99
    },
    {
      "midi": 46,
      "hit": false,
      "t": 84729.64500000008,
      "d": 299.83078124999884,
      "v": 54
    },
    {
      "midi": 53,
      "hit": false,
      "t": 84932.34750000008,
      "d": 124.57757812499767,
      "v": 53
    },
    {
      "midi": 46,
      "hit": false,
      "t": 85135.05000000008,
      "d": 1123.30968749999,
      "v": 67
    },
    {
      "midi": 53,
      "hit": false,
      "t": 85337.75250000008,
      "d": 118.2431249999936,
      "v": 69
    },
    {
      "midi": 53,
      "hit": false,
      "t": 85540.45499999986,
      "d": 346.28343749999476,
      "v": 70
    },
    {
      "midi": 58,
      "hit": false,
      "t": 85540.45500000007,
      "d": 69.67898437500116,
      "v": 65
    },
    {
      "midi": 46,
      "hit": false,
      "t": 85743.15749999986,
      "d": 783.3607031249994,
      "v": 75
    },
    {
      "midi": 60,
      "hit": false,
      "t": 85743.15750000007,
      "d": 198.4795312500064,
      "v": 76
    },
    {
      "midi": 65,
      "hit": false,
      "t": 85743.15750000007,
      "d": 1222.5494531250006,
      "v": 79
    },
    {
      "midi": 53,
      "hit": false,
      "t": 85945.85999999986,
      "d": 171.0302343749936,
      "v": 75
    },
    {
      "midi": 60,
      "hit": false,
      "t": 85945.85999999986,
      "d": 236.48625000000175,
      "v": 67
    },
    {
      "midi": 62,
      "hit": false,
      "t": 85945.86000000007,
      "d": 1013.5124999999971,
      "v": 53
    },
    {
      "midi": 53,
      "hit": false,
      "t": 86148.56249999985,
      "d": 107.68570312499651,
      "v": 67
    },
    {
      "midi": 58,
      "hit": false,
      "t": 86148.56249999985,
      "d": 363.1753124999959,
      "v": 76
    },
    {
      "midi": 53,
      "hit": false,
      "t": 86148.56250000007,
      "d": 219.59437500000058,
      "v": 69
    },
    {
      "midi": 53,
      "hit": false,
      "t": 86351.26499999985,
      "d": 158.361328125,
      "v": 72
    },
    {
      "midi": 58,
      "hit": false,
      "t": 86351.26500000007,
      "d": 137.24648437500582,
      "v": 86
    },
    {
      "midi": 53,
      "hit": false,
      "t": 86553.96750000007,
      "d": 147.8039062500029,
      "v": 67
    },
    {
      "midi": 46,
      "hit": false,
      "t": 86756.66999999985,
      "d": 194.25656249999884,
      "v": 110
    },
    {
      "midi": 58,
      "hit": false,
      "t": 86756.66999999985,
      "d": 194.25656249999884,
      "v": 110
    },
    {
      "midi": 53,
      "hit": false,
      "t": 86756.66999999985,
      "d": 209.0369531250035,
      "v": 97
    },
    {
      "midi": 53,
      "hit": false,
      "t": 86756.67000000007,
      "d": 137.24648437500582,
      "v": 67
    },
    {
      "midi": 58,
      "hit": false,
      "t": 86756.67000000007,
      "d": 192.14507812500233,
      "v": 102
    },
    {
      "midi": 46,
      "hit": false,
      "t": 86756.67000000007,
      "d": 202.70249999999942,
      "v": 93
    },
    {
      "midi": 47,
      "hit": false,
      "t": 87162.07499999985,
      "d": 204.81398437499593,
      "v": 88
    },
    {
      "midi": 53,
      "hit": false,
      "t": 87162.07499999985,
      "d": 219.59437500000058,
      "v": 88
    },
    {
      "midi": 59,
      "hit": false,
      "t": 87162.07499999985,
      "d": 228.04031250000116,
      "v": 93
    },
    {
      "midi": 59,
      "hit": false,
      "t": 87162.07500000007,
      "d": 177.36468749999767,
      "v": 91
    },
    {
      "midi": 47,
      "hit": false,
      "t": 87162.07500000007,
      "d": 187.92210937499476,
      "v": 76
    },
    {
      "midi": 60,
      "hit": false,
      "t": 87567.47999999985,
      "d": 1577.278828124996,
      "v": 81
    },
    {
      "midi": 55,
      "hit": false,
      "t": 87567.47999999985,
      "d": 1583.61328125,
      "v": 85
    },
    {
      "midi": 48,
      "hit": false,
      "t": 87567.48000000007,
      "d": 462.41507812499185,
      "v": 79
    },
    {
      "midi": 67,
      "hit": false,
      "t": 87567.48000000007,
      "d": 853.0396875000006,
      "v": 76
    },
    {
      "midi": 60,
      "hit": false,
      "t": 87567.48000000007,
      "d": 867.8200781250052,
      "v": 79
    },
    {
      "midi": 63,
      "hit": false,
      "t": 87567.48000000007,
      "d": 869.9315625000017,
      "v": 96
    },
    {
      "midi": 55,
      "hit": false,
      "t": 87972.88500000007,
      "d": 219.59437500000058,
      "v": 64
    },
    {
      "midi": 48,
      "hit": false,
      "t": 88175.58750000007,
      "d": 447.63468750000175,
      "v": 75
    },
    {
      "midi": 55,
      "hit": false,
      "t": 88378.29000000007,
      "d": 97.12828124999942,
      "v": 60
    },
    {
      "midi": 67,
      "hit": false,
      "t": 88580.99250000007,
      "d": 238.59773437499825,
      "v": 81
    },
    {
      "midi": 63,
      "hit": false,
      "t": 88580.99250000007,
      "d": 272.3814843750006,
      "v": 83
    },
    {
      "midi": 60,
      "hit": false,
      "t": 88580.99250000007,
      "d": 276.6044531249936,
      "v": 70
    },
    {
      "midi": 48,
      "hit": false,
      "t": 88783.69499999985,
      "d": 209.0369531250035,
      "v": 81
    },
    {
      "midi": 55,
      "hit": false,
      "t": 88783.69500000007,
      "d": 137.24648437499127,
      "v": 72
    },
    {
      "midi": 51,
      "hit": false,
      "t": 88986.39749999985,
      "d": 1359.7959374999919,
      "v": 89
    },
    {
      "midi": 65,
      "hit": false,
      "t": 88986.39750000005,
      "d": 323.0571093750186,
      "v": 89
    },
    {
      "midi": 60,
      "hit": false,
      "t": 88986.39750000005,
      "d": 356.84085937502095,
      "v": 70
    },
    {
      "midi": 56,
      "hit": false,
      "t": 89189.09999999985,
      "d": 1110.6407812499965,
      "v": 58
    },
    {
      "midi": 44,
      "hit": false,
      "t": 89189.09999999985,
      "d": 1319.677734375,
      "v": 114
    },
    {
      "midi": 44,
      "hit": false,
      "t": 89189.10000000006,
      "d": 377.95570312501513,
      "v": 63
    },
    {
      "midi": 60,
      "hit": false,
      "t": 89391.80250000008,
      "d": 373.73273437500757,
      "v": 60
    },
    {
      "midi": 56,
      "hit": false,
      "t": 89391.80250000008,
      "d": 377.9557031250006,
      "v": 86
    },
    {
      "midi": 63,
      "hit": false,
      "t": 89391.80250000008,
      "d": 1167.650859375004,
      "v": 72
    },
    {
      "midi": 44,
      "hit": false,
      "t": 89594.50500000008,
      "d": 312.49968749999243,
      "v": 54
    },
    {
      "midi": 56,
      "hit": false,
      "t": 89797.20750000008,
      "d": 418.07390624999243,
      "v": 67
    },
    {
      "midi": 60,
      "hit": false,
      "t": 89797.20750000008,
      "d": 631.3338281250035,
      "v": 68
    },
    {
      "midi": 44,
      "hit": false,
      "t": 90202.61250000008,
      "d": 261.8240625000035,
      "v": 72
    },
    {
      "midi": 51,
      "hit": false,
      "t": 90405.31499999984,
      "d": 312.49968749999243,
      "v": 66
    },
    {
      "midi": 56,
      "hit": false,
      "t": 90405.31499999984,
      "d": 337.8374999999942,
      "v": 73
    },
    {
      "midi": 56,
      "hit": false,
      "t": 90405.31500000008,
      "d": 126.68906250000873,
      "v": 78
    },
    {
      "midi": 44,
      "hit": false,
      "t": 90608.01749999984,
      "d": 171.0302343749936,
      "v": 80
    },
    {
      "midi": 53,
      "hit": false,
      "t": 90810.71999999984,
      "d": 350.5064062500023,
      "v": 81
    },
    {
      "midi": 46,
      "hit": false,
      "t": 90810.71999999984,
      "d": 665.1175781250058,
      "v": 104
    },
    {
      "midi": 58,
      "hit": false,
      "t": 90810.71999999984,
      "d": 1539.2721093750151,
      "v": 93
    },
    {
      "midi": 46,
      "hit": false,
      "t": 90810.72000000009,
      "d": 498.31031250000524,
      "v": 93
    },
    {
      "midi": 58,
      "hit": false,
      "t": 90810.72000000009,
      "d": 802.3640624999971,
      "v": 60
    },
    {
      "midi": 65,
      "hit": false,
      "t": 90810.72000000009,
      "d": 1110.6407812499965,
      "v": 54
    },
    {
      "midi": 62,
      "hit": false,
      "t": 90810.72000000009,
      "d": 1218.326484374993,
      "v": 73
    },
    {
      "midi": 53,
      "hit": false,
      "t": 91216.12499999984,
      "d": 1127.5326562500122,
      "v": 71
    },
    {
      "midi": 53,
      "hit": false,
      "t": 91216.12500000009,
      "d": 211.1484375,
      "v": 60
    },
    {
      "midi": 46,
      "hit": false,
      "t": 91418.82750000009,
      "d": 316.72265625,
      "v": 56
    },
    {
      "midi": 46,
      "hit": false,
      "t": 91621.52999999985,
      "d": 447.63468750000175,
      "v": 63
    },
    {
      "midi": 53,
      "hit": false,
      "t": 91621.53000000009,
      "d": 276.6044531249936,
      "v": 54
    },
    {
      "midi": 58,
      "hit": false,
      "t": 91824.23250000009,
      "d": 289.2733593749872,
      "v": 67
    },
    {
      "midi": 65,
      "hit": false,
      "t": 92026.93500000008,
      "d": 76.01343749999069,
      "v": 56
    },
    {
      "midi": 46,
      "hit": false,
      "t": 92229.63749999985,
      "d": 135.1350000000093,
      "v": 63
    },
    {
      "midi": 55,
      "hit": false,
      "t": 92229.63750000007,
      "d": 67.56750000000466,
      "v": 45
    },
    {
      "midi": 67,
      "hit": false,
      "t": 92229.63750000007,
      "d": 97.12828124999942,
      "v": 59
    },
    {
      "midi": 65,
      "hit": false,
      "t": 92229.63750000007,
      "d": 107.68570312499651,
      "v": 60
    },
    {
      "midi": 58,
      "hit": false,
      "t": 92229.63750000007,
      "d": 244.93218750000233,
      "v": 78
    },
    {
      "midi": 39,
      "hit": false,
      "t": 92432.33999999987,
      "d": 515.2021875000064,
      "v": 69
    },
    {
      "midi": 51,
      "hit": false,
      "t": 92432.34000000007,
      "d": 363.1753124999959,
      "v": 86
    },
    {
      "midi": 46,
      "hit": false,
      "t": 92635.04249999986,
      "d": 698.9013281250081,
      "v": 99
    },
    {
      "midi": 51,
      "hit": false,
      "t": 92635.04249999986,
      "d": 717.9046875000058,
      "v": 107
    },
    {
      "midi": 58,
      "hit": false,
      "t": 92635.04250000007,
      "d": 225.92882812500466,
      "v": 83
    },
    {
      "midi": 55,
      "hit": false,
      "t": 92635.04250000007,
      "d": 266.04703125001106,
      "v": 68
    },
    {
      "midi": 63,
      "hit": false,
      "t": 92635.04250000007,
      "d": 270.2700000000041,
      "v": 86
    },
    {
      "midi": 51,
      "hit": false,
      "t": 92837.74500000007,
      "d": 924.8301562499983,
      "v": 63
    },
    {
      "midi": 39,
      "hit": false,
      "t": 93040.44749999988,
      "d": 76.01343750000524,
      "v": 81
    },
    {
      "midi": 63,
      "hit": false,
      "t": 93040.44750000007,
      "d": 236.48625000000175,
      "v": 93
    },
    {
      "midi": 55,
      "hit": false,
      "t": 93040.44750000007,
      "d": 779.1377343749919,
      "v": 57
    },
    {
      "midi": 39,
      "hit": false,
      "t": 93243.14999999988,
      "d": 508.8677343750023,
      "v": 104
    },
    {
      "midi": 58,
      "hit": false,
      "t": 93243.15000000007,
      "d": 158.361328125,
      "v": 65
    },
    {
      "midi": 60,
      "hit": false,
      "t": 93344.50125000007,
      "d": 168.9187499999971,
      "v": 70
    },
    {
      "midi": 46,
      "hit": false,
      "t": 93445.85249999988,
      "d": 118.2431249999936,
      "v": 85
    },
    {
      "midi": 51,
      "hit": false,
      "t": 93445.85249999988,
      "d": 451.85765624999476,
      "v": 81
    },
    {
      "midi": 63,
      "hit": false,
      "t": 93445.85250000007,
      "d": 430.7428125000006,
      "v": 78
    },
    {
      "midi": 46,
      "hit": false,
      "t": 93648.55499999988,
      "d": 147.8039062500029,
      "v": 85
    },
    {
      "midi": 60,
      "hit": false,
      "t": 93648.55500000007,
      "d": 249.15515624999534,
      "v": 63
    },
    {
      "midi": 39,
      "hit": false,
      "t": 93851.25749999988,
      "d": 141.46945312499884,
      "v": 93
    },
    {
      "midi": 58,
      "hit": false,
      "t": 93851.25750000007,
      "d": 135.13499999999476,
      "v": 99
    },
    {
      "midi": 44,
      "hit": false,
      "t": 94053.95999999988,
      "d": 684.1209375000035,
      "v": 107
    },
    {
      "midi": 51,
      "hit": false,
      "t": 94053.95999999988,
      "d": 954.390937499993,
      "v": 81
    },
    {
      "midi": 56,
      "hit": false,
      "t": 94053.95999999988,
      "d": 954.390937499993,
      "v": 93
    },
    {
      "midi": 44,
      "hit": false,
      "t": 94053.96000000006,
      "d": 498.31031250000524,
      "v": 90
    },
    {
      "midi": 58,
      "hit": false,
      "t": 94053.96000000006,
      "d": 785.4721874999959,
      "v": 83
    },
    {
      "midi": 63,
      "hit": false,
      "t": 94053.96000000006,
      "d": 920.6071874999907,
      "v": 93
    },
    {
      "midi": 56,
      "hit": false,
      "t": 94459.36500000006,
      "d": 192.14507812500233,
      "v": 54
    },
    {
      "midi": 44,
      "hit": false,
      "t": 94662.06750000006,
      "d": 1106.417812499989,
      "v": 63
    },
    {
      "midi": 44,
      "hit": false,
      "t": 94864.76999999987,
      "d": 491.97585937500116,
      "v": 80
    },
    {
      "midi": 56,
      "hit": false,
      "t": 94864.77000000006,
      "d": 114.02015624998603,
      "v": 49
    },
    {
      "midi": 51,
      "hit": false,
      "t": 95067.47249999987,
      "d": 86.57085937500233,
      "v": 81
    },
    {
      "midi": 56,
      "hit": false,
      "t": 95067.47249999987,
      "d": 413.8509374999994,
      "v": 99
    },
    {
      "midi": 63,
      "hit": false,
      "t": 95067.47250000005,
      "d": 33.78375000000233,
      "v": 54
    },
    {
      "midi": 58,
      "hit": false,
      "t": 95067.47250000005,
      "d": 80.23640624999825,
      "v": 78
    },
    {
      "midi": 51,
      "hit": false,
      "t": 95270.17499999987,
      "d": 299.83078124999884,
      "v": 75
    },
    {
      "midi": 56,
      "hit": false,
      "t": 95270.17500000005,
      "d": 92.9053125000064,
      "v": 72
    },
    {
      "midi": 44,
      "hit": false,
      "t": 95472.87749999987,
      "d": 819.2559375000128,
      "v": 104
    },
    {
      "midi": 58,
      "hit": false,
      "t": 95472.87750000005,
      "d": 158.361328125,
      "v": 102
    },
    {
      "midi": 63,
      "hit": false,
      "t": 95472.87750000005,
      "d": 884.7119531250064,
      "v": 86
    },
    {
      "midi": 56,
      "hit": false,
      "t": 95675.57999999987,
      "d": 92.9053125000064,
      "v": 70
    },
    {
      "midi": 51,
      "hit": false,
      "t": 95675.57999999987,
      "d": 109.79718750000757,
      "v": 80
    },
    {
      "midi": 60,
      "hit": false,
      "t": 95675.58000000005,
      "d": 705.2357812500122,
      "v": 56
    },
    {
      "midi": 44,
      "hit": false,
      "t": 95878.28250000004,
      "d": 739.0195312500146,
      "v": 57
    },
    {
      "midi": 51,
      "hit": false,
      "t": 96080.98499999988,
      "d": 458.19210937499884,
      "v": 99
    },
    {
      "midi": 56,
      "hit": false,
      "t": 96080.98499999988,
      "d": 472.9725000000035,
      "v": 90
    },
    {
      "midi": 56,
      "hit": false,
      "t": 96080.98500000004,
      "d": 363.1753125000105,
      "v": 68
    },
    {
      "midi": 44,
      "hit": false,
      "t": 96486.38999999988,
      "d": 287.16187500000524,
      "v": 93
    },
    {
      "midi": 60,
      "hit": false,
      "t": 96486.39000000006,
      "d": 316.72265625,
      "v": 75
    },
    {
      "midi": 63,
      "hit": false,
      "t": 96486.39000000006,
      "d": 462.41507812499185,
      "v": 68
    },
    {
      "midi": 51,
      "hit": false,
      "t": 96689.09249999988,
      "d": 137.24648437500582,
      "v": 93
    },
    {
      "midi": 56,
      "hit": false,
      "t": 96689.09249999988,
      "d": 496.1988281249942,
      "v": 96
    },
    {
      "midi": 44,
      "hit": false,
      "t": 96689.09250000006,
      "d": 430.74281249998603,
      "v": 63
    },
    {
      "midi": 51,
      "hit": false,
      "t": 96891.79499999988,
      "d": 282.9389062499977,
      "v": 63
    },
    {
      "midi": 56,
      "hit": false,
      "t": 96891.79500000006,
      "d": 73.90195312499418,
      "v": 57
    },
    {
      "midi": 60,
      "hit": false,
      "t": 96891.79500000006,
      "d": 103.46273437498894,
      "v": 66
    },
    {
      "midi": 44,
      "hit": false,
      "t": 97094.49749999988,
      "d": 130.91203125000175,
      "v": 78
    },
    {
      "midi": 56,
      "hit": false,
      "t": 97094.49750000004,
      "d": 198.4795312500064,
      "v": 53
    },
    {
      "midi": 60,
      "hit": false,
      "t": 97094.49750000004,
      "d": 255.48960937499942,
      "v": 71
    },
    {
      "midi": 46,
      "hit": false,
      "t": 97297.19999999988,
      "d": 1792.6502343749744,
      "v": 110
    },
    {
      "midi": 46,
      "hit": false,
      "t": 97297.20000000004,
      "d": 320.945624999993,
      "v": 74
    },
    {
      "midi": 53,
      "hit": false,
      "t": 97499.90250000004,
      "d": 282.9389062499977,
      "v": 64
    },
    {
      "midi": 58,
      "hit": false,
      "t": 97499.90250000004,
      "d": 542.6514843750047,
      "v": 86
    },
    {
      "midi": 58,
      "hit": false,
      "t": 97702.60499999988,
      "d": 73.90195312499418,
      "v": 93
    },
    {
      "midi": 63,
      "hit": false,
      "t": 97702.60499999988,
      "d": 97.12828124999942,
      "v": 93
    },
    {
      "midi": 65,
      "hit": false,
      "t": 97702.60499999988,
      "d": 109.79718749999302,
      "v": 90
    },
    {
      "midi": 70,
      "hit": false,
      "t": 97702.60499999988,
      "d": 120.3546093749901,
      "v": 89
    },
    {
      "midi": 46,
      "hit": false,
      "t": 97702.60500000004,
      "d": 255.48960937499942,
      "v": 63
    },
    {
      "midi": 53,
      "hit": false,
      "t": 97905.30750000004,
      "d": 266.0470312499965,
      "v": 60
    },
    {
      "midi": 65,
      "hit": false,
      "t": 98108.00999999986,
      "d": 154.13835937500698,
      "v": 93
    },
    {
      "midi": 63,
      "hit": false,
      "t": 98108.00999999986,
      "d": 158.361328125,
      "v": 90
    },
    {
      "midi": 70,
      "hit": false,
      "t": 98108.00999999986,
      "d": 164.69578125000407,
      "v": 96
    },
    {
      "midi": 46,
      "hit": false,
      "t": 98108.01000000004,
      "d": 1505.4883593749983,
      "v": 83
    },
    {
      "midi": 63,
      "hit": false,
      "t": 98310.71249999986,
      "d": 154.13835937500698,
      "v": 89
    },
    {
      "midi": 70,
      "hit": false,
      "t": 98310.71249999986,
      "d": 158.361328125,
      "v": 83
    },
    {
      "midi": 65,
      "hit": false,
      "t": 98310.71249999986,
      "d": 168.9187499999971,
      "v": 78
    },
    {
      "midi": 60,
      "hit": false,
      "t": 98310.71250000004,
      "d": 147.8039062500029,
      "v": 59
    },
    {
      "midi": 65,
      "hit": false,
      "t": 98310.71250000004,
      "d": 287.16187500000524,
      "v": 70
    },
    {
      "midi": 58,
      "hit": false,
      "t": 98513.41499999986,
      "d": 73.90195312499418,
      "v": 83
    },
    {
      "midi": 58,
      "hit": false,
      "t": 98513.41500000004,
      "d": 90.7938281250099,
      "v": 64
    },
    {
      "midi": 62,
      "hit": false,
      "t": 98716.11749999986,
      "d": 1165.539374999993,
      "v": 105
    },
    {
      "midi": 70,
      "hit": false,
      "t": 98716.11749999986,
      "d": 1708.1908593749977,
      "v": 104
    },
    {
      "midi": 65,
      "hit": false,
      "t": 98716.11749999986,
      "d": 1739.8631250000035,
      "v": 97
    },
    {
      "midi": 65,
      "hit": false,
      "t": 98716.11750000005,
      "d": 238.59773437499825,
      "v": 72
    },
    {
      "midi": 60,
      "hit": false,
      "t": 98716.11750000005,
      "d": 363.1753124999959,
      "v": 81
    },
    {
      "midi": 58,
      "hit": false,
      "t": 98918.81999999986,
      "d": 278.71593750000466,
      "v": 72
    },
    {
      "midi": 62,
      "hit": false,
      "t": 98918.82000000005,
      "d": 225.92882812500466,
      "v": 67
    },
    {
      "midi": 46,
      "hit": false,
      "t": 99121.52249999986,
      "d": 306.1652343750029,
      "v": 61
    },
    {
      "midi": 65,
      "hit": false,
      "t": 99121.52250000005,
      "d": 86.57085937500233,
      "v": 73
    },
    {
      "midi": 58,
      "hit": false,
      "t": 99324.22499999986,
      "d": 323.0571093750041,
      "v": 63
    },
    {
      "midi": 58,
      "hit": false,
      "t": 99324.22500000005,
      "d": 259.71257812499243,
      "v": 80
    },
    {
      "midi": 46,
      "hit": false,
      "t": 99526.92749999986,
      "d": 513.0907031249953,
      "v": 71
    },
    {
      "midi": 70,
      "hit": false,
      "t": 99526.92750000005,
      "d": 209.03695312498894,
      "v": 102
    },
    {
      "midi": 58,
      "hit": false,
      "t": 99729.62999999986,
      "d": 734.796562500007,
      "v": 70
    },
    {
      "midi": 58,
      "hit": false,
      "t": 99729.63000000003,
      "d": 73.90195312500873,
      "v": 28
    },
    {
      "midi": 46,
      "hit": false,
      "t": 99729.63000000003,
      "d": 126.68906250000873,
      "v": 81
    },
    {
      "midi": 62,
      "hit": false,
      "t": 99932.33249999986,
      "d": 508.8677343750023,
      "v": 91
    },
    {
      "midi": 65,
      "hit": false,
      "t": 99932.33250000005,
      "d": 441.3002343750122,
      "v": 85
    },
    {
      "midi": 62,
      "hit": false,
      "t": 99932.33250000005,
      "d": 458.1921093750134,
      "v": 90
    },
    {
      "midi": 70,
      "hit": false,
      "t": 99932.33250000005,
      "d": 472.97250000001804,
      "v": 86
    },
    {
      "midi": 58,
      "hit": false,
      "t": 100135.03500000005,
      "d": 339.9489843750198,
      "v": 90
    },
    {
      "midi": 46,
      "hit": false,
      "t": 100337.73749999986,
      "d": 103.46273437500349,
      "v": 93
    },
    {
      "midi": 46,
      "hit": false,
      "t": 100337.73750000006,
      "d": 73.90195312500873,
      "v": 90
    },
    {
      "midi": 51,
      "hit": false,
      "t": 100540.43999999987,
      "d": 688.3439062500111,
      "v": 104
    },
    {
      "midi": 56,
      "hit": false,
      "t": 100540.43999999987,
      "d": 692.5668750000041,
      "v": 107
    },
    {
      "midi": 44,
      "hit": false,
      "t": 100540.43999999987,
      "d": 768.5803125000093,
      "v": 90
    },
    {
      "midi": 44,
      "hit": false,
      "t": 100540.44000000006,
      "d": 293.49632812499476,
      "v": 93
    },
    {
      "midi": 56,
      "hit": false,
      "t": 100743.14250000006,
      "d": 320.945624999993,
      "v": 74
    },
    {
      "midi": 60,
      "hit": false,
      "t": 100743.14250000006,
      "d": 346.28343749999476,
      "v": 70
    },
    {
      "midi": 63,
      "hit": false,
      "t": 100743.14250000006,
      "d": 610.2189843750093,
      "v": 64
    },
    {
      "midi": 44,
      "hit": false,
      "t": 100945.84500000006,
      "d": 244.93218750000233,
      "v": 68
    },
    {
      "midi": 60,
      "hit": false,
      "t": 101148.54750000006,
      "d": 209.0369531250035,
      "v": 64
    },
    {
      "midi": 56,
      "hit": false,
      "t": 101148.54750000006,
      "d": 242.82070312500582,
      "v": 72
    },
    {
      "midi": 58,
      "hit": false,
      "t": 101351.24999999988,
      "d": 557.4318749999948,
      "v": 93
    },
    {
      "midi": 53,
      "hit": false,
      "t": 101351.24999999988,
      "d": 563.7663281249988,
      "v": 88
    },
    {
      "midi": 46,
      "hit": false,
      "t": 101351.24999999988,
      "d": 624.9993749999994,
      "v": 110
    },
    {
      "midi": 46,
      "hit": false,
      "t": 101351.25000000007,
      "d": 350.5064062499878,
      "v": 90
    },
    {
      "midi": 62,
      "hit": false,
      "t": 101553.95250000006,
      "d": 282.9389062499977,
      "v": 75
    },
    {
      "midi": 58,
      "hit": false,
      "t": 101553.95250000006,
      "d": 320.945624999993,
      "v": 72
    },
    {
      "midi": 46,
      "hit": false,
      "t": 101756.65500000006,
      "d": 211.1484375,
      "v": 80
    },
    {
      "midi": 67,
      "hit": false,
      "t": 101959.35750000006,
      "d": 869.9315625000163,
      "v": 94
    },
    {
      "midi": 63,
      "hit": false,
      "t": 101959.35750000006,
      "d": 897.3808593750146,
      "v": 74
    },
    {
      "midi": 58,
      "hit": false,
      "t": 101959.35750000006,
      "d": 912.1612500000192,
      "v": 89
    },
    {
      "midi": 46,
      "hit": false,
      "t": 102162.05999999988,
      "d": 491.97585937500116,
      "v": 96
    },
    {
      "midi": 39,
      "hit": false,
      "t": 102162.05999999988,
      "d": 709.4587500000052,
      "v": 110
    },
    {
      "midi": 51,
      "hit": false,
      "t": 102162.05999999988,
      "d": 907.9382812500116,
      "v": 96
    },
    {
      "midi": 51,
      "hit": false,
      "t": 102162.06000000006,
      "d": 299.83078124999884,
      "v": 81
    },
    {
      "midi": 55,
      "hit": false,
      "t": 102364.76250000006,
      "d": 289.27335937500175,
      "v": 68
    },
    {
      "midi": 51,
      "hit": false,
      "t": 102567.46500000005,
      "d": 709.4587500000343,
      "v": 72
    },
    {
      "midi": 46,
      "hit": false,
      "t": 102770.16749999988,
      "d": 293.4963281250093,
      "v": 59
    },
    {
      "midi": 55,
      "hit": false,
      "t": 102770.16750000007,
      "d": 819.2559375000274,
      "v": 72
    },
    {
      "midi": 39,
      "hit": false,
      "t": 102972.8699999999,
      "d": 481.4184374999895,
      "v": 101
    },
    {
      "midi": 67,
      "hit": false,
      "t": 102972.87000000008,
      "d": 109.79718749999302,
      "v": 97
    },
    {
      "midi": 58,
      "hit": false,
      "t": 102972.87000000008,
      "d": 177.36468749999767,
      "v": 63
    },
    {
      "midi": 51,
      "hit": false,
      "t": 103175.5724999999,
      "d": 259.71257812499243,
      "v": 99
    },
    {
      "midi": 58,
      "hit": false,
      "t": 103175.57250000008,
      "d": 126.68906250000873,
      "v": 48
    },
    {
      "midi": 65,
      "hit": false,
      "t": 103175.57250000008,
      "d": 126.68906250000873,
      "v": 78
    },
    {
      "midi": 46,
      "hit": false,
      "t": 103378.27499999989,
      "d": 97.12828124998487,
      "v": 93
    },
    {
      "midi": 63,
      "hit": false,
      "t": 103378.2750000001,
      "d": 344.17195312499825,
      "v": 86
    },
    {
      "midi": 39,
      "hit": false,
      "t": 103580.97749999988,
      "d": 141.46945312499884,
      "v": 96
    },
    {
      "midi": 51,
      "hit": false,
      "t": 103580.9775000001,
      "d": 52.787109375,
      "v": 83
    },
    {
      "midi": 44,
      "hit": false,
      "t": 103783.67999999988,
      "d": 576.4352343749924,
      "v": 104
    },
    {
      "midi": 51,
      "hit": false,
      "t": 103783.67999999988,
      "d": 677.7864843749994,
      "v": 85
    },
    {
      "midi": 56,
      "hit": false,
      "t": 103783.67999999988,
      "d": 698.9013281249936,
      "v": 80
    },
    {
      "midi": 58,
      "hit": false,
      "t": 103783.6800000001,
      "d": 202.70249999999942,
      "v": 78
    },
    {
      "midi": 60,
      "hit": false,
      "t": 103783.6800000001,
      "d": 320.945624999993,
      "v": 72
    },
    {
      "midi": 63,
      "hit": false,
      "t": 103783.6800000001,
      "d": 356.84085937499185,
      "v": 93
    },
    {
      "midi": 44,
      "hit": false,
      "t": 103783.6800000001,
      "d": 675.6750000000029,
      "v": 93
    },
    {
      "midi": 56,
      "hit": false,
      "t": 104189.0850000001,
      "d": 312.499687500007,
      "v": 80
    },
    {
      "midi": 63,
      "hit": false,
      "t": 104189.0850000001,
      "d": 320.94562500000757,
      "v": 74
    },
    {
      "midi": 60,
      "hit": false,
      "t": 104189.0850000001,
      "d": 356.8408593750064,
      "v": 81
    },
    {
      "midi": 46,
      "hit": false,
      "t": 104594.48999999987,
      "d": 304.0537500000064,
      "v": 96
    },
    {
      "midi": 53,
      "hit": false,
      "t": 104594.48999999987,
      "d": 553.2089062500163,
      "v": 82
    },
    {
      "midi": 58,
      "hit": false,
      "t": 104594.48999999987,
      "d": 802.3640625000116,
      "v": 85
    },
    {
      "midi": 62,
      "hit": false,
      "t": 104594.4900000001,
      "d": 135.13499999999476,
      "v": 55
    },
    {
      "midi": 46,
      "hit": false,
      "t": 104594.4900000001,
      "d": 633.4453124999854,
      "v": 78
    },
    {
      "midi": 58,
      "hit": false,
      "t": 104797.1925000001,
      "d": 266.0470312499965,
      "v": 70
    },
    {
      "midi": 62,
      "hit": false,
      "t": 104797.1925000001,
      "d": 367.39828124998894,
      "v": 64
    },
    {
      "midi": 46,
      "hit": false,
      "t": 104999.89499999989,
      "d": 185.81062499999825,
      "v": 49
    },
    {
      "midi": 53,
      "hit": false,
      "t": 104999.8950000001,
      "d": 90.79382812499534,
      "v": 55
    },
    {
      "midi": 53,
      "hit": false,
      "t": 105202.59749999989,
      "d": 181.58765625000524,
      "v": 72
    },
    {
      "midi": 55,
      "hit": false,
      "t": 105202.59750000009,
      "d": 320.945624999993,
      "v": 72
    },
    {
      "midi": 58,
      "hit": false,
      "t": 105202.59750000009,
      "d": 817.1444531250017,
      "v": 86
    },
    {
      "midi": 63,
      "hit": false,
      "t": 105303.9487500001,
      "d": 29.56078124999476,
      "v": 40
    },
    {
      "midi": 39,
      "hit": false,
      "t": 105405.29999999989,
      "d": 506.75624999999127,
      "v": 99
    },
    {
      "midi": 51,
      "hit": false,
      "t": 105405.30000000009,
      "d": 289.27335937500175,
      "v": 59
    },
    {
      "midi": 46,
      "hit": false,
      "t": 105608.00249999989,
      "d": 120.35460937500466,
      "v": 99
    },
    {
      "midi": 51,
      "hit": false,
      "t": 105608.00249999989,
      "d": 219.59437500000058,
      "v": 96
    },
    {
      "midi": 55,
      "hit": false,
      "t": 105608.00250000009,
      "d": 276.6044531249936,
      "v": 64
    },
    {
      "midi": 46,
      "hit": false,
      "t": 105810.70499999989,
      "d": 73.90195312499418,
      "v": 55
    },
    {
      "midi": 51,
      "hit": false,
      "t": 105810.70500000009,
      "d": 610.2189843749948,
      "v": 72
    },
    {
      "midi": 39,
      "hit": false,
      "t": 106013.40749999988,
      "d": 350.5064062500023,
      "v": 87
    },
    {
      "midi": 55,
      "hit": false,
      "t": 106013.40750000009,
      "d": 310.3882031249959,
      "v": 72
    },
    {
      "midi": 46,
      "hit": false,
      "t": 106216.10999999988,
      "d": 377.9557031250006,
      "v": 99
    },
    {
      "midi": 51,
      "hit": false,
      "t": 106216.10999999988,
      "d": 650.3371875000012,
      "v": 107
    },
    {
      "midi": 58,
      "hit": false,
      "t": 106216.11000000009,
      "d": 103.46273437500349,
      "v": 78
    },
    {
      "midi": 39,
      "hit": false,
      "t": 106418.81249999988,
      "d": 329.3915624999936,
      "v": 87
    },
    {
      "midi": 67,
      "hit": false,
      "t": 106418.81250000009,
      "d": 232.26328124999418,
      "v": 73
    },
    {
      "midi": 46,
      "hit": false,
      "t": 106621.51499999988,
      "d": 158.361328125,
      "v": 78
    },
    {
      "midi": 63,
      "hit": false,
      "t": 106621.51500000009,
      "d": 304.0537500000064,
      "v": 89
    },
    {
      "midi": 39,
      "hit": false,
      "t": 106824.21749999988,
      "d": 135.1350000000093,
      "v": 81
    },
    {
      "midi": 51,
      "hit": false,
      "t": 106824.21750000009,
      "d": 92.9053125000064,
      "v": 78
    },
    {
      "midi": 51,
      "hit": false,
      "t": 107026.9199999999,
      "d": 701.0128125000047,
      "v": 96
    },
    {
      "midi": 56,
      "hit": false,
      "t": 107026.9199999999,
      "d": 711.5702343750017,
      "v": 99
    },
    {
      "midi": 44,
      "hit": false,
      "t": 107026.9199999999,
      "d": 749.5769531249971,
      "v": 114
    },
    {
      "midi": 56,
      "hit": false,
      "t": 107026.9200000001,
      "d": 346.2834375000093,
      "v": 83
    },
    {
      "midi": 63,
      "hit": false,
      "t": 107026.9200000001,
      "d": 346.2834375000093,
      "v": 96
    },
    {
      "midi": 60,
      "hit": false,
      "t": 107026.9200000001,
      "d": 354.7293750000099,
      "v": 83
    },
    {
      "midi": 44,
      "hit": false,
      "t": 107026.9200000001,
      "d": 498.3103125000198,
      "v": 60
    },
    {
      "midi": 63,
      "hit": false,
      "t": 107432.32500000011,
      "d": 168.91875000001164,
      "v": 76
    },
    {
      "midi": 56,
      "hit": false,
      "t": 107432.32500000011,
      "d": 171.03023437500815,
      "v": 54
    },
    {
      "midi": 60,
      "hit": false,
      "t": 107432.32500000011,
      "d": 177.36468750001222,
      "v": 75
    },
    {
      "midi": 44,
      "hit": false,
      "t": 107635.02750000013,
      "d": 46.452656249995925,
      "v": 56
    },
    {
      "midi": 46,
      "hit": false,
      "t": 107837.7299999999,
      "d": 779.1377343749919,
      "v": 101
    },
    {
      "midi": 58,
      "hit": false,
      "t": 107837.7299999999,
      "d": 810.8099999999977,
      "v": 93
    },
    {
      "midi": 53,
      "hit": false,
      "t": 107837.7299999999,
      "d": 812.9214843749942,
      "v": 88
    },
    {
      "midi": 46,
      "hit": false,
      "t": 107837.73000000013,
      "d": 278.71593750000466,
      "v": 89
    },
    {
      "midi": 58,
      "hit": false,
      "t": 107837.73000000013,
      "d": 304.0537500000064,
      "v": 68
    },
    {
      "midi": 62,
      "hit": false,
      "t": 107837.73000000013,
      "d": 472.9725000000035,
      "v": 71
    },
    {
      "midi": 65,
      "hit": false,
      "t": 107837.73000000013,
      "d": 472.9725000000035,
      "v": 64
    },
    {
      "midi": 53,
      "hit": false,
      "t": 108040.43250000013,
      "d": 266.04703125001106,
      "v": 72
    },
    {
      "midi": 58,
      "hit": false,
      "t": 108243.13500000014,
      "d": 92.90531249999185,
      "v": 89
    },
    {
      "midi": 46,
      "hit": false,
      "t": 108243.13500000014,
      "d": 120.3546093749901,
      "v": 72
    },
    {
      "midi": 58,
      "hit": false,
      "t": 108445.83750000013,
      "d": 867.8200781250052,
      "v": 93
    },
    {
      "midi": 67,
      "hit": false,
      "t": 108445.83750000013,
      "d": 1036.7388281250023,
      "v": 87
    },
    {
      "midi": 63,
      "hit": false,
      "t": 108445.83750000013,
      "d": 1066.299609374997,
      "v": 80
    },
    {
      "midi": 39,
      "hit": false,
      "t": 108648.53999999989,
      "d": 532.094062499993,
      "v": 83
    },
    {
      "midi": 51,
      "hit": false,
      "t": 108648.54000000012,
      "d": 289.27335937500175,
      "v": 81
    },
    {
      "midi": 55,
      "hit": false,
      "t": 108851.24250000012,
      "d": 289.27335937500175,
      "v": 60
    },
    {
      "midi": 46,
      "hit": false,
      "t": 109053.94499999989,
      "d": 114.02015625000058,
      "v": 61
    },
    {
      "midi": 51,
      "hit": false,
      "t": 109053.94500000012,
      "d": 306.1652343750029,
      "v": 72
    },
    {
      "midi": 39,
      "hit": false,
      "t": 109256.64749999989,
      "d": 333.61453125000116,
      "v": 89
    },
    {
      "midi": 55,
      "hit": false,
      "t": 109256.64750000014,
      "d": 316.7226562499709,
      "v": 60
    },
    {
      "midi": 46,
      "hit": false,
      "t": 109459.34999999989,
      "d": 384.29015625000466,
      "v": 83
    },
    {
      "midi": 51,
      "hit": false,
      "t": 109459.34999999989,
      "d": 671.4520312499953,
      "v": 96
    },
    {
      "midi": 51,
      "hit": false,
      "t": 109459.35000000012,
      "d": 57.010078124993015,
      "v": 54
    },
    {
      "midi": 58,
      "hit": false,
      "t": 109459.35000000012,
      "d": 114.02015624998603,
      "v": 56
    },
    {
      "midi": 39,
      "hit": false,
      "t": 109662.05249999989,
      "d": 354.72937499999534,
      "v": 89
    },
    {
      "midi": 58,
      "hit": false,
      "t": 109662.0525000001,
      "d": 130.91203125000175,
      "v": 72
    },
    {
      "midi": 67,
      "hit": false,
      "t": 109662.0525000001,
      "d": 323.0571093750041,
      "v": 85
    },
    {
      "midi": 46,
      "hit": false,
      "t": 109864.75499999989,
      "d": 185.81062499999825,
      "v": 80
    },
    {
      "midi": 63,
      "hit": false,
      "t": 109864.7550000001,
      "d": 228.04031250000116,
      "v": 78
    },
    {
      "midi": 39,
      "hit": false,
      "t": 110067.45749999989,
      "d": 135.13499999999476,
      "v": 89
    },
    {
      "midi": 51,
      "hit": false,
      "t": 110067.4575000001,
      "d": 80.23640624999825,
      "v": 78
    },
    {
      "midi": 58,
      "hit": false,
      "t": 110067.4575000001,
      "d": 147.80390624998836,
      "v": 68
    },
    {
      "midi": 56,
      "hit": false,
      "t": 110270.15999999989,
      "d": 743.2425000000076,
      "v": 89
    },
    {
      "midi": 44,
      "hit": false,
      "t": 110270.15999999989,
      "d": 772.8032812500023,
      "v": 107
    },
    {
      "midi": 51,
      "hit": false,
      "t": 110270.15999999989,
      "d": 1478.0390625000146,
      "v": 89
    },
    {
      "midi": 44,
      "hit": false,
      "t": 110270.16000000009,
      "d": 329.3915624999936,
      "v": 49
    },
    {
      "midi": 56,
      "hit": false,
      "t": 110270.16000000009,
      "d": 496.1988281249942,
      "v": 86
    },
    {
      "midi": 60,
      "hit": false,
      "t": 110270.16000000009,
      "d": 711.5702343750017,
      "v": 75
    },
    {
      "midi": 63,
      "hit": false,
      "t": 110270.16000000009,
      "d": 743.2425000000076,
      "v": 80
    },
    {
      "midi": 44,
      "hit": false,
      "t": 110675.56500000009,
      "d": 1148.647500000021,
      "v": 74
    },
    {
      "midi": 56,
      "hit": false,
      "t": 110878.26750000009,
      "d": 97.12828124999942,
      "v": 64
    },
    {
      "midi": 56,
      "hit": false,
      "t": 111080.96999999988,
      "d": 181.58765625000524,
      "v": 81
    },
    {
      "midi": 44,
      "hit": false,
      "t": 111080.96999999988,
      "d": 202.70249999999942,
      "v": 64
    },
    {
      "midi": 56,
      "hit": false,
      "t": 111080.9700000001,
      "d": 126.68906249999418,
      "v": 81
    },
    {
      "midi": 60,
      "hit": false,
      "t": 111080.9700000001,
      "d": 434.9657812499936,
      "v": 78
    },
    {
      "midi": 63,
      "hit": false,
      "t": 111080.9700000001,
      "d": 711.5702343750017,
      "v": 83
    },
    {
      "midi": 55,
      "hit": false,
      "t": 111283.67249999988,
      "d": 101.35125000000698,
      "v": 50
    },
    {
      "midi": 55,
      "hit": false,
      "t": 111283.6725000001,
      "d": 103.46273437500349,
      "v": 72
    },
    {
      "midi": 45,
      "hit": false,
      "t": 111385.02374999989,
      "d": 33.78375000000233,
      "v": 72
    },
    {
      "midi": 43,
      "hit": false,
      "t": 111385.02374999989,
      "d": 192.14507812500233,
      "v": 76
    },
    {
      "midi": 44,
      "hit": false,
      "t": 111486.3749999999,
      "d": 141.46945312499884,
      "v": 89
    },
    {
      "midi": 56,
      "hit": false,
      "t": 111486.3749999999,
      "d": 346.2834375000093,
      "v": 78
    },
    {
      "midi": 56,
      "hit": false,
      "t": 111486.3750000001,
      "d": 211.1484375,
      "v": 78
    },
    {
      "midi": 48,
      "hit": false,
      "t": 111689.0774999999,
      "d": 181.58765625000524,
      "v": 100
    },
    {
      "midi": 60,
      "hit": false,
      "t": 111689.0775000001,
      "d": 185.8106250000128,
      "v": 69
    },
    {
      "midi": 46,
      "hit": false,
      "t": 111891.7799999999,
      "d": 337.83750000000873,
      "v": 104
    },
    {
      "midi": 53,
      "hit": false,
      "t": 111891.78000000012,
      "d": 103.46273437500349,
      "v": 52
    },
    {
      "midi": 58,
      "hit": false,
      "t": 111891.78000000012,
      "d": 253.3781250000029,
      "v": 78
    },
    {
      "midi": 46,
      "hit": false,
      "t": 111891.78000000012,
      "d": 1292.2284375000163,
      "v": 86
    },
    {
      "midi": 58,
      "hit": false,
      "t": 112094.4824999999,
      "d": 118.24312500000815,
      "v": 114
    },
    {
      "midi": 53,
      "hit": false,
      "t": 112094.4824999999,
      "d": 143.5809375000099,
      "v": 114
    },
    {
      "midi": 53,
      "hit": false,
      "t": 112094.48250000011,
      "d": 278.71593750000466,
      "v": 63
    },
    {
      "midi": 59,
      "hit": false,
      "t": 112195.8337499999,
      "d": 57.01007812500757,
      "v": 27
    },
    {
      "midi": 46,
      "hit": false,
      "t": 112297.18499999991,
      "d": 67.56750000000466,
      "v": 56
    },
    {
      "midi": 58,
      "hit": false,
      "t": 112297.18500000011,
      "d": 86.57085937500233,
      "v": 89
    },
    {
      "midi": 46,
      "hit": false,
      "t": 112499.88749999991,
      "d": 333.61453125000116,
      "v": 104
    },
    {
      "midi": 65,
      "hit": false,
      "t": 112499.88750000011,
      "d": 92.9053125000064,
      "v": 78
    },
    {
      "midi": 60,
      "hit": false,
      "t": 112499.88750000011,
      "d": 101.35125000000698,
      "v": 75
    },
    {
      "midi": 53,
      "hit": false,
      "t": 112702.58999999991,
      "d": 367.3982812500035,
      "v": 100
    },
    {
      "midi": 58,
      "hit": false,
      "t": 112702.58999999991,
      "d": 840.3707812499924,
      "v": 114
    },
    {
      "midi": 60,
      "hit": false,
      "t": 112702.59000000013,
      "d": 175.25320312500116,
      "v": 81
    },
    {
      "midi": 65,
      "hit": false,
      "t": 112702.59000000013,
      "d": 580.658203125,
      "v": 72
    },
    {
      "midi": 46,
      "hit": false,
      "t": 112905.29249999991,
      "d": 295.6078125000058,
      "v": 71
    },
    {
      "midi": 62,
      "hit": false,
      "t": 112905.29250000013,
      "d": 323.0571093750041,
      "v": 72
    },
    {
      "midi": 53,
      "hit": false,
      "t": 113107.99499999991,
      "d": 272.3814843750006,
      "v": 72
    },
    {
      "midi": 58,
      "hit": false,
      "t": 113107.99500000013,
      "d": 323.0571093750041,
      "v": 93
    },
    {
      "midi": 46,
      "hit": false,
      "t": 113310.69749999991,
      "d": 67.56750000000466,
      "v": 67
    },
    {
      "midi": 46,
      "hit": false,
      "t": 113310.69750000013,
      "d": 86.57085937500233,
      "v": 76
    },
    {
      "midi": 51,
      "hit": false,
      "t": 113513.3999999999,
      "d": 692.5668749999895,
      "v": 107
    },
    {
      "midi": 56,
      "hit": false,
      "t": 113513.3999999999,
      "d": 762.2458593749907,
      "v": 104
    },
    {
      "midi": 44,
      "hit": false,
      "t": 113513.3999999999,
      "d": 772.8032812499878,
      "v": 90
    },
    {
      "midi": 58,
      "hit": false,
      "t": 113513.40000000013,
      "d": 337.8374999999942,
      "v": 89
    },
    {
      "midi": 44,
      "hit": false,
      "t": 113513.40000000013,
      "d": 519.4251562499994,
      "v": 90
    },
    {
      "midi": 63,
      "hit": false,
      "t": 113513.40000000013,
      "d": 597.5500781250012,
      "v": 96
    },
    {
      "midi": 60,
      "hit": false,
      "t": 113918.80500000012,
      "d": 141.46945312499884,
      "v": 67
    },
    {
      "midi": 56,
      "hit": false,
      "t": 113918.80500000012,
      "d": 175.25320312500116,
      "v": 76
    },
    {
      "midi": 44,
      "hit": false,
      "t": 114121.50750000012,
      "d": 73.90195312499418,
      "v": 67
    },
    {
      "midi": 53,
      "hit": false,
      "t": 114324.20999999989,
      "d": 603.8845312500052,
      "v": 90
    },
    {
      "midi": 58,
      "hit": false,
      "t": 114324.20999999989,
      "d": 610.2189843750093,
      "v": 81
    },
    {
      "midi": 46,
      "hit": false,
      "t": 114324.20999999989,
      "d": 667.2290625000023,
      "v": 101
    },
    {
      "midi": 46,
      "hit": false,
      "t": 114324.21000000012,
      "d": 306.1652343750029,
      "v": 89
    },
    {
      "midi": 58,
      "hit": false,
      "t": 114324.21000000012,
      "d": 306.1652343750029,
      "v": 58
    },
    {
      "midi": 65,
      "hit": false,
      "t": 114324.21000000012,
      "d": 445.52320312500524,
      "v": 54
    },
    {
      "midi": 62,
      "hit": false,
      "t": 114324.21000000012,
      "d": 447.63468750000175,
      "v": 70
    },
    {
      "midi": 53,
      "hit": false,
      "t": 114526.91250000012,
      "d": 253.3781250000029,
      "v": 72
    },
    {
      "midi": 58,
      "hit": false,
      "t": 114729.61500000012,
      "d": 135.1350000000093,
      "v": 68
    },
    {
      "midi": 58,
      "hit": false,
      "t": 114932.31750000014,
      "d": 253.3781250000029,
      "v": 63
    },
    {
      "midi": 63,
      "hit": false,
      "t": 114932.31750000014,
      "d": 299.83078124999884,
      "v": 68
    },
    {
      "midi": 67,
      "hit": false,
      "t": 114932.31750000014,
      "d": 304.05374999999185,
      "v": 79
    },
    {
      "midi": 39,
      "hit": false,
      "t": 115135.01999999989,
      "d": 698.9013281249936,
      "v": 78
    },
    {
      "midi": 46,
      "hit": false,
      "t": 115135.01999999989,
      "d": 886.8234375000029,
      "v": 96
    },
    {
      "midi": 51,
      "hit": false,
      "t": 115135.01999999989,
      "d": 918.4957031250087,
      "v": 90
    },
    {
      "midi": 51,
      "hit": false,
      "t": 115135.02000000014,
      "d": 722.1276562499843,
      "v": 89
    },
    {
      "midi": 58,
      "hit": false,
      "t": 115337.72250000013,
      "d": 259.71257812499243,
      "v": 89
    },
    {
      "midi": 63,
      "hit": false,
      "t": 115540.42500000013,
      "d": 120.3546093749901,
      "v": 76
    },
    {
      "midi": 58,
      "hit": false,
      "t": 115743.12750000012,
      "d": 295.6078125000058,
      "v": 89
    },
    {
      "midi": 70,
      "hit": false,
      "t": 115743.12750000012,
      "d": 327.28007812501164,
      "v": 93
    },
    {
      "midi": 63,
      "hit": false,
      "t": 115743.12750000012,
      "d": 344.1719531250128,
      "v": 76
    },
    {
      "midi": 39,
      "hit": false,
      "t": 115945.82999999989,
      "d": 529.9825781250111,
      "v": 90
    },
    {
      "midi": 51,
      "hit": false,
      "t": 115945.83000000012,
      "d": 272.38148437501513,
      "v": 72
    },
    {
      "midi": 46,
      "hit": false,
      "t": 116148.5324999999,
      "d": 97.12828124999942,
      "v": 67
    },
    {
      "midi": 51,
      "hit": false,
      "t": 116148.5324999999,
      "d": 515.2021874999919,
      "v": 89
    },
    {
      "midi": 58,
      "hit": false,
      "t": 116148.53250000013,
      "d": 107.68570312499651,
      "v": 72
    },
    {
      "midi": 67,
      "hit": false,
      "t": 116148.53250000013,
      "d": 232.26328124999418,
      "v": 81
    },
    {
      "midi": 46,
      "hit": false,
      "t": 116351.2349999999,
      "d": 215.37140624999302,
      "v": 85
    },
    {
      "midi": 63,
      "hit": false,
      "t": 116351.23500000013,
      "d": 80.23640624999825,
      "v": 72
    },
    {
      "midi": 58,
      "hit": false,
      "t": 116351.23500000013,
      "d": 137.24648437499127,
      "v": 72
    },
    {
      "midi": 39,
      "hit": false,
      "t": 116553.9374999999,
      "d": 175.2532031249866,
      "v": 93
    },
    {
      "midi": 51,
      "hit": false,
      "t": 116553.93750000012,
      "d": 76.01343750000524,
      "v": 80
    },
    {
      "midi": 51,
      "hit": false,
      "t": 116756.63999999988,
      "d": 682.009453125007,
      "v": 90
    },
    {
      "midi": 56,
      "hit": false,
      "t": 116756.63999999988,
      "d": 694.6783593750006,
      "v": 90
    },
    {
      "midi": 44,
      "hit": false,
      "t": 116756.63999999988,
      "d": 768.5803124999948,
      "v": 101
    },
    {
      "midi": 56,
      "hit": false,
      "t": 116756.64000000012,
      "d": 320.945624999993,
      "v": 74
    },
    {
      "midi": 44,
      "hit": false,
      "t": 116756.64000000012,
      "d": 451.85765624999476,
      "v": 70
    },
    {
      "midi": 60,
      "hit": false,
      "t": 116756.64000000012,
      "d": 532.094062499993,
      "v": 72
    },
    {
      "midi": 63,
      "hit": false,
      "t": 116756.64000000012,
      "d": 546.8744531249977,
      "v": 70
    },
    {
      "midi": 56,
      "hit": false,
      "t": 117162.04500000011,
      "d": 168.9187499999971,
      "v": 68
    },
    {
      "midi": 44,
      "hit": false,
      "t": 117364.74750000011,
      "d": 42.22968750000291,
      "v": 60
    },
    {
      "midi": 46,
      "hit": false,
      "t": 117567.44999999988,
      "d": 515.2021875000064,
      "v": 90
    },
    {
      "midi": 53,
      "hit": false,
      "t": 117567.44999999988,
      "d": 762.2458593750052,
      "v": 87
    },
    {
      "midi": 58,
      "hit": false,
      "t": 117567.44999999988,
      "d": 802.3640625000116,
      "v": 83
    },
    {
      "midi": 46,
      "hit": false,
      "t": 117567.45000000013,
      "d": 428.6313281250041,
      "v": 96
    },
    {
      "midi": 62,
      "hit": false,
      "t": 117770.15250000013,
      "d": 261.8240625000035,
      "v": 78
    },
    {
      "midi": 58,
      "hit": false,
      "t": 117770.15250000013,
      "d": 282.9389062499977,
      "v": 76
    },
    {
      "midi": 65,
      "hit": false,
      "t": 117770.15250000013,
      "d": 434.9657812499936,
      "v": 72
    },
    {
      "midi": 53,
      "hit": false,
      "t": 117972.85500000013,
      "d": 109.79718749999302,
      "v": 49
    },
    {
      "midi": 46,
      "hit": false,
      "t": 118074.20625000012,
      "d": 86.57085937500233,
      "v": 20
    },
    {
      "midi": 46,
      "hit": false,
      "t": 118175.5574999999,
      "d": 97.12828124999942,
      "v": 76
    },
    {
      "midi": 55,
      "hit": false,
      "t": 118175.55750000013,
      "d": 310.3882031249959,
      "v": 58
    },
    {
      "midi": 58,
      "hit": false,
      "t": 118175.55750000013,
      "d": 428.6313281250041,
      "v": 67
    },
    {
      "midi": 63,
      "hit": false,
      "t": 118175.55750000013,
      "d": 563.7663281249988,
      "v": 80
    },
    {
      "midi": 39,
      "hit": false,
      "t": 118378.2599999999,
      "d": 489.86437500000466,
      "v": 80
    },
    {
      "midi": 51,
      "hit": false,
      "t": 118479.61125000012,
      "d": 1279.5595312500081,
      "v": 80
    },
    {
      "midi": 46,
      "hit": false,
      "t": 118580.96249999989,
      "d": 158.361328125,
      "v": 96
    },
    {
      "midi": 51,
      "hit": false,
      "t": 118580.96249999989,
      "d": 211.1484375,
      "v": 99
    },
    {
      "midi": 55,
      "hit": false,
      "t": 118580.96250000013,
      "d": 306.1652343750029,
      "v": 58
    },
    {
      "midi": 58,
      "hit": false,
      "t": 118783.66500000012,
      "d": 137.24648437500582,
      "v": 83
    },
    {
      "midi": 39,
      "hit": false,
      "t": 118986.36749999989,
      "d": 333.61453125000116,
      "v": 101
    },
    {
      "midi": 55,
      "hit": false,
      "t": 118986.36750000012,
      "d": 59.121562500004075,
      "v": 18
    },
    {
      "midi": 58,
      "hit": false,
      "t": 118986.36750000012,
      "d": 73.90195312500873,
      "v": 58
    },
    {
      "midi": 65,
      "hit": false,
      "t": 118986.36750000012,
      "d": 84.45937500000582,
      "v": 64
    },
    {
      "midi": 46,
      "hit": false,
      "t": 119189.06999999989,
      "d": 574.3237500000105,
      "v": 101
    },
    {
      "midi": 51,
      "hit": false,
      "t": 119189.06999999989,
      "d": 608.1075000000128,
      "v": 104
    },
    {
      "midi": 65,
      "hit": false,
      "t": 119189.07000000012,
      "d": 209.0369531250035,
      "v": 89
    },
    {
      "midi": 58,
      "hit": false,
      "t": 119189.07000000012,
      "d": 219.59437500000058,
      "v": 93
    },
    {
      "midi": 55,
      "hit": false,
      "t": 119189.07000000012,
      "d": 458.19210937499884,
      "v": 81
    },
    {
      "midi": 39,
      "hit": false,
      "t": 119391.77249999989,
      "d": 295.6078125000058,
      "v": 104
    },
    {
      "midi": 63,
      "hit": false,
      "t": 119391.77250000012,
      "d": 481.4184375000041,
      "v": 93
    },
    {
      "midi": 58,
      "hit": false,
      "t": 119594.47500000012,
      "d": 394.84757812500175,
      "v": 99
    },
    {
      "midi": 39,
      "hit": false,
      "t": 119797.1774999999,
      "d": 194.25656249999884,
      "v": 85
    },
    {
      "midi": 55,
      "hit": false,
      "t": 119797.17750000012,
      "d": 90.7938281250099,
      "v": 67
    },
    {
      "midi": 51,
      "hit": false,
      "t": 119999.8799999999,
      "d": 694.6783593750151,
      "v": 90
    },
    {
      "midi": 56,
      "hit": false,
      "t": 119999.8799999999,
      "d": 722.1276562500134,
      "v": 90
    },
    {
      "midi": 44,
      "hit": false,
      "t": 119999.8799999999,
      "d": 743.2425000000076,
      "v": 99
    },
    {
      "midi": 63,
      "hit": false,
      "t": 119999.88000000012,
      "d": 346.28343749999476,
      "v": 72
    },
    {
      "midi": 60,
      "hit": false,
      "t": 119999.88000000012,
      "d": 354.72937499999534,
      "v": 73
    },
    {
      "midi": 44,
      "hit": false,
      "t": 119999.88000000012,
      "d": 489.86437500000466,
      "v": 83
    },
    {
      "midi": 63,
      "hit": false,
      "t": 120405.28500000012,
      "d": 356.84085937502095,
      "v": 86
    },
    {
      "midi": 56,
      "hit": false,
      "t": 120405.28500000012,
      "d": 361.06382812501397,
      "v": 89
    },
    {
      "midi": 60,
      "hit": false,
      "t": 120405.28500000012,
      "d": 548.9859375000087,
      "v": 85
    },
    {
      "midi": 44,
      "hit": false,
      "t": 120607.98750000013,
      "d": 120.35460937500466,
      "v": 62
    },
    {
      "midi": 58,
      "hit": false,
      "t": 120810.68999999992,
      "d": 660.8946093749983,
      "v": 87
    },
    {
      "midi": 53,
      "hit": false,
      "t": 120810.68999999992,
      "d": 667.2290625000023,
      "v": 88
    },
    {
      "midi": 46,
      "hit": false,
      "t": 120810.68999999992,
      "d": 732.6850781249959,
      "v": 104
    },
    {
      "midi": 46,
      "hit": false,
      "t": 120810.69000000013,
      "d": 344.17195312499825,
      "v": 86
    },
    {
      "midi": 62,
      "hit": false,
      "t": 121013.39250000013,
      "d": 187.92210937499476,
      "v": 71
    },
    {
      "midi": 65,
      "hit": false,
      "t": 121013.39250000013,
      "d": 192.14507812498778,
      "v": 61
    },
    {
      "midi": 58,
      "hit": false,
      "t": 121013.39250000013,
      "d": 249.1551562499808,
      "v": 70
    },
    {
      "midi": 53,
      "hit": false,
      "t": 121216.09500000012,
      "d": 59.12156249998952,
      "v": 34
    },
    {
      "midi": 46,
      "hit": false,
      "t": 121216.09500000012,
      "d": 259.71257812499243,
      "v": 62
    },
    {
      "midi": 55,
      "hit": false,
      "t": 121418.79750000012,
      "d": 496.1988281249942,
      "v": 72
    },
    {
      "midi": 67,
      "hit": false,
      "t": 121418.79750000012,
      "d": 701.0128125000047,
      "v": 75
    },
    {
      "midi": 58,
      "hit": false,
      "t": 121418.79750000012,
      "d": 722.1276562499988,
      "v": 80
    },
    {
      "midi": 63,
      "hit": false,
      "t": 121418.79750000012,
      "d": 722.1276562499988,
      "v": 78
    },
    {
      "midi": 39,
      "hit": false,
      "t": 121621.49999999991,
      "d": 580.658203125,
      "v": 80
    },
    {
      "midi": 46,
      "hit": false,
      "t": 121621.49999999991,
      "d": 952.2794531249965,
      "v": 96
    },
    {
      "midi": 51,
      "hit": false,
      "t": 121621.49999999991,
      "d": 958.6139062500006,
      "v": 81
    },
    {
      "midi": 51,
      "hit": false,
      "t": 121824.20250000012,
      "d": 861.4856250000157,
      "v": 81
    },
    {
      "midi": 55,
      "hit": false,
      "t": 122026.90500000012,
      "d": 289.27335937500175,
      "v": 64
    },
    {
      "midi": 67,
      "hit": false,
      "t": 122229.60750000011,
      "d": 304.0537500000064,
      "v": 91
    },
    {
      "midi": 58,
      "hit": false,
      "t": 122229.60750000011,
      "d": 312.499687500007,
      "v": 70
    },
    {
      "midi": 39,
      "hit": false,
      "t": 122432.30999999991,
      "d": 496.1988281249942,
      "v": 101
    },
    {
      "midi": 55,
      "hit": false,
      "t": 122432.31000000011,
      "d": 299.8307812500134,
      "v": 54
    },
    {
      "midi": 51,
      "hit": false,
      "t": 122635.01249999991,
      "d": 491.97585937500116,
      "v": 75
    },
    {
      "midi": 63,
      "hit": false,
      "t": 122635.01250000013,
      "d": 299.83078124999884,
      "v": 102
    },
    {
      "midi": 46,
      "hit": false,
      "t": 122837.71499999991,
      "d": 238.59773437499825,
      "v": 90
    },
    {
      "midi": 55,
      "hit": false,
      "t": 122837.71500000013,
      "d": 130.91203125000175,
      "v": 47
    },
    {
      "midi": 58,
      "hit": false,
      "t": 122837.71500000013,
      "d": 411.7394531250029,
      "v": 93
    },
    {
      "midi": 39,
      "hit": false,
      "t": 123040.41749999991,
      "d": 135.1350000000093,
      "v": 101
    },
    {
      "midi": 51,
      "hit": false,
      "t": 123040.41750000013,
      "d": 103.46273437500349,
      "v": 86
    },
    {
      "midi": 51,
      "hit": false,
      "t": 123243.11999999992,
      "d": 766.4688281249983,
      "v": 83
    },
    {
      "midi": 56,
      "hit": false,
      "t": 123243.11999999992,
      "d": 772.8032812500023,
      "v": 85
    },
    {
      "midi": 44,
      "hit": false,
      "t": 123243.11999999992,
      "d": 777.0262499999953,
      "v": 99
    },
    {
      "midi": 56,
      "hit": false,
      "t": 123243.12000000013,
      "d": 295.6078125000058,
      "v": 93
    },
    {
      "midi": 44,
      "hit": false,
      "t": 123243.12000000013,
      "d": 451.85765624999476,
      "v": 64
    },
    {
      "midi": 60,
      "hit": false,
      "t": 123243.12000000013,
      "d": 711.5702343750017,
      "v": 83
    },
    {
      "midi": 63,
      "hit": false,
      "t": 123243.12000000013,
      "d": 739.01953125,
      "v": 86
    },
    {
      "midi": 56,
      "hit": false,
      "t": 123648.52500000013,
      "d": 261.8240625000035,
      "v": 68
    },
    {
      "midi": 44,
      "hit": false,
      "t": 123851.22750000012,
      "d": 667.2290625000023,
      "v": 86
    },
    {
      "midi": 44,
      "hit": false,
      "t": 124053.92999999992,
      "d": 187.92210937499476,
      "v": 93
    },
    {
      "midi": 51,
      "hit": false,
      "t": 124053.92999999992,
      "d": 479.306953124993,
      "v": 76
    },
    {
      "midi": 56,
      "hit": false,
      "t": 124053.92999999992,
      "d": 491.9758593749866,
      "v": 64
    },
    {
      "midi": 56,
      "hit": false,
      "t": 124053.93000000012,
      "d": 158.361328125,
      "v": 86
    },
    {
      "midi": 63,
      "hit": false,
      "t": 124053.93000000012,
      "d": 563.7663281249988,
      "v": 65
    },
    {
      "midi": 60,
      "hit": false,
      "t": 124053.93000000012,
      "d": 648.2257031250047,
      "v": 76
    },
    {
      "midi": 43,
      "hit": false,
      "t": 124256.63249999992,
      "d": 194.25656249999884,
      "v": 95
    },
    {
      "midi": 55,
      "hit": false,
      "t": 124256.63250000012,
      "d": 171.0302343749936,
      "v": 71
    },
    {
      "midi": 44,
      "hit": false,
      "t": 124459.33499999992,
      "d": 380.06718749998254,
      "v": 114
    },
    {
      "midi": 56,
      "hit": false,
      "t": 124459.33500000012,
      "d": 130.91203125000175,
      "v": 90
    },
    {
      "midi": 44,
      "hit": false,
      "t": 124662.03750000012,
      "d": 107.68570312501106,
      "v": 81
    },
    {
      "midi": 46,
      "hit": false,
      "t": 124864.7399999999,
      "d": 599.6615624999977,
      "v": 114
    },
    {
      "midi": 53,
      "hit": false,
      "t": 124864.7399999999,
      "d": 918.4957031249942,
      "v": 99
    },
    {
      "midi": 58,
      "hit": false,
      "t": 124864.7399999999,
      "d": 929.0531249999913,
      "v": 107
    },
    {
      "midi": 53,
      "hit": false,
      "t": 124864.74000000014,
      "d": 270.2700000000041,
      "v": 97
    },
    {
      "midi": 46,
      "hit": false,
      "t": 124864.74000000014,
      "d": 428.6313281250041,
      "v": 90
    },
    {
      "midi": 58,
      "hit": false,
      "t": 124864.74000000014,
      "d": 515.2021875000064,
      "v": 102
    },
    {
      "midi": 34,
      "hit": false,
      "t": 124864.74000000014,
      "d": 1543.4950781250081,
      "v": 102
    },
    {
      "midi": 53,
      "hit": false,
      "t": 125270.14500000014,
      "d": 114.02015625000058,
      "v": 75
    },
    {
      "midi": 46,
      "hit": false,
      "t": 125472.84750000013,
      "d": 924.8301562500128,
      "v": 93
    },
    {
      "midi": 46,
      "hit": false,
      "t": 125574.1987499999,
      "d": 52.787109375,
      "v": 57
    },
    {
      "midi": 46,
      "hit": false,
      "t": 125675.5499999999,
      "d": 513.0907031249953,
      "v": 90
    },
    {
      "midi": 53,
      "hit": false,
      "t": 125675.55000000013,
      "d": 109.79718749999302,
      "v": 89
    },
    {
      "midi": 53,
      "hit": false,
      "t": 125878.2524999999,
      "d": 120.35460937500466,
      "v": 97
    },
    {
      "midi": 58,
      "hit": false,
      "t": 125878.2524999999,
      "d": 479.30695312500757,
      "v": 110
    },
    {
      "midi": 60,
      "hit": false,
      "t": 125878.25250000013,
      "d": 168.91875000001164,
      "v": 98
    },
    {
      "midi": 65,
      "hit": false,
      "t": 125878.25250000013,
      "d": 536.3170312500151,
      "v": 98
    },
    {
      "midi": 53,
      "hit": false,
      "t": 126080.9549999999,
      "d": 270.2700000000041,
      "v": 75
    },
    {
      "midi": 62,
      "hit": false,
      "t": 126080.95500000015,
      "d": 337.8374999999942,
      "v": 73
    },
    {
      "midi": 46,
      "hit": false,
      "t": 126283.6574999999,
      "d": 187.9221093750093,
      "v": 96
    },
    {
      "midi": 58,
      "hit": false,
      "t": 126283.65750000015,
      "d": 124.57757812499767,
      "v": 81
    },
    {
      "midi": 53,
      "hit": false,
      "t": 126283.65750000015,
      "d": 154.13835937499243,
      "v": 64
    },
    {
      "midi": 44,
      "hit": false,
      "t": 126486.36000000015,
      "d": 481.4184375000186,
      "v": 90
    },
    {
      "midi": 60,
      "hit": false,
      "t": 126486.36000000015,
      "d": 513.0907031250244,
      "v": 73
    },
    {
      "midi": 68,
      "hit": false,
      "t": 126486.36000000015,
      "d": 513.0907031250244,
      "v": 93
    },
    {
      "midi": 63,
      "hit": false,
      "t": 126486.36000000015,
      "d": 523.6481250000215,
      "v": 74
    },
    {
      "midi": 68,
      "hit": false,
      "t": 126520.14374999992,
      "d": 135.13499999999476,
      "v": 114
    },
    {
      "midi": 63,
      "hit": false,
      "t": 126520.14374999992,
      "d": 137.24648437499127,
      "v": 114
    },
    {
      "midi": 63,
      "hit": false,
      "t": 126722.8462499999,
      "d": 42.22968750000291,
      "v": 90
    },
    {
      "midi": 68,
      "hit": false,
      "t": 126731.2921874999,
      "d": 25.337812500001746,
      "v": 71
    },
    {
      "midi": 63,
      "hit": false,
      "t": 126809.4171093749,
      "d": 50.67562500000349,
      "v": 99
    },
    {
      "midi": 68,
      "hit": false,
      "t": 126815.7515624999,
      "d": 33.78375000000233,
      "v": 96
    },
    {
      "midi": 56,
      "hit": false,
      "t": 126891.76500000016,
      "d": 181.58765625000524,
      "v": 78
    },
    {
      "midi": 63,
      "hit": false,
      "t": 126893.87648437491,
      "d": 156.24984374998894,
      "v": 93
    },
    {
      "midi": 68,
      "hit": false,
      "t": 126898.0994531249,
      "d": 152.02687499999593,
      "v": 101
    },
    {
      "midi": 44,
      "hit": false,
      "t": 127094.46750000016,
      "d": 109.79718749999302,
      "v": 72
    },
    {
      "midi": 63,
      "hit": false,
      "t": 127124.02828124989,
      "d": 365.286796875007,
      "v": 114
    },
    {
      "midi": 67,
      "hit": false,
      "t": 127130.3627343749,
      "d": 348.3949218750058,
      "v": 108
    },
    {
      "midi": 46,
      "hit": false,
      "t": 127297.17000000016,
      "d": 468.7495312499959,
      "v": 96
    },
    {
      "midi": 62,
      "hit": false,
      "t": 127297.17000000016,
      "d": 489.8643749999901,
      "v": 76
    },
    {
      "midi": 65,
      "hit": false,
      "t": 127297.17000000016,
      "d": 515.2021874999919,
      "v": 68
    },
    {
      "midi": 58,
      "hit": false,
      "t": 127297.17000000016,
      "d": 542.6514843749901,
      "v": 72
    },
    {
      "midi": 58,
      "hit": false,
      "t": 127525.2103124999,
      "d": 318.8341406249965,
      "v": 114
    },
    {
      "midi": 65,
      "hit": false,
      "t": 127525.2103124999,
      "d": 352.61789062499884,
      "v": 95
    },
    {
      "midi": 53,
      "hit": false,
      "t": 127702.57500000016,
      "d": 192.14507812498778,
      "v": 70
    },
    {
      "midi": 46,
      "hit": false,
      "t": 127905.27750000014,
      "d": 114.02015625000058,
      "v": 72
    },
    {
      "midi": 58,
      "hit": false,
      "t": 127928.5038281249,
      "d": 293.4963281249802,
      "v": 110
    },
    {
      "midi": 63,
      "hit": false,
      "t": 127930.6153124999,
      "d": 270.2699999999895,
      "v": 107
    },
    {
      "midi": 58,
      "hit": false,
      "t": 128107.98000000014,
      "d": 513.0907031250099,
      "v": 89
    },
    {
      "midi": 67,
      "hit": false,
      "t": 128107.98000000014,
      "d": 523.648125000007,
      "v": 81
    },
    {
      "midi": 63,
      "hit": false,
      "t": 128107.98000000014,
      "d": 553.2089062500017,
      "v": 89
    },
    {
      "midi": 39,
      "hit": false,
      "t": 128107.98000000014,
      "d": 1758.8664843749866,
      "v": 89
    },
    {
      "midi": 63,
      "hit": false,
      "t": 128312.79398437488,
      "d": 116.13164062499709,
      "v": 99
    },
    {
      "midi": 55,
      "hit": false,
      "t": 128513.38500000015,
      "d": 80.23640624999825,
      "v": 63
    },
    {
      "midi": 58,
      "hit": false,
      "t": 128526.05390624987,
      "d": 213.25992187501106,
      "v": 110
    },
    {
      "midi": 51,
      "hit": false,
      "t": 128716.08750000014,
      "d": 295.6078125000058,
      "v": 76
    },
    {
      "midi": 56,
      "hit": false,
      "t": 128749.87124999988,
      "d": 92.9053125000064,
      "v": 101
    },
    {
      "midi": 63,
      "hit": false,
      "t": 128918.79000000014,
      "d": 232.26328124999418,
      "v": 56
    },
    {
      "midi": 58,
      "hit": false,
      "t": 128918.79000000014,
      "d": 236.4862499999872,
      "v": 80
    },
    {
      "midi": 70,
      "hit": false,
      "t": 128918.79000000014,
      "d": 344.1719531249837,
      "v": 99
    },
    {
      "midi": 55,
      "hit": false,
      "t": 128935.6818749999,
      "d": 194.25656249999884,
      "v": 78
    },
    {
      "midi": 51,
      "hit": false,
      "t": 129121.49250000014,
      "d": 272.38148437498603,
      "v": 76
    },
    {
      "midi": 51,
      "hit": false,
      "t": 129155.2762499999,
      "d": 202.70249999999942,
      "v": 114
    },
    {
      "midi": 70,
      "hit": false,
      "t": 129324.19500000012,
      "d": 130.91203125000175,
      "v": 35
    },
    {
      "midi": 65,
      "hit": false,
      "t": 129324.19500000012,
      "d": 225.92882812500466,
      "v": 76
    },
    {
      "midi": 58,
      "hit": false,
      "t": 129324.19500000012,
      "d": 310.3882031249959,
      "v": 86
    },
    {
      "midi": 55,
      "hit": false,
      "t": 129357.9787499999,
      "d": 160.4728124999965,
      "v": 108
    },
    {
      "midi": 67,
      "hit": false,
      "t": 129526.89750000012,
      "d": 103.46273437500349,
      "v": 73
    },
    {
      "midi": 56,
      "hit": false,
      "t": 129556.45828124988,
      "d": 388.5131249999977,
      "v": 114
    },
    {
      "midi": 56,
      "hit": false,
      "t": 129729.60000000012,
      "d": 445.5232031250198,
      "v": 81
    },
    {
      "midi": 63,
      "hit": false,
      "t": 129729.60000000012,
      "d": 637.6682812500076,
      "v": 81
    },
    {
      "midi": 60,
      "hit": false,
      "t": 129729.60000000012,
      "d": 641.8912500000006,
      "v": 72
    },
    {
      "midi": 56,
      "hit": false,
      "t": 129972.42070312488,
      "d": 247.04367187499884,
      "v": 101
    },
    {
      "midi": 44,
      "hit": false,
      "t": 130135.00500000014,
      "d": 272.38148437498603,
      "v": 63
    },
    {
      "midi": 55,
      "hit": false,
      "t": 130185.68062499988,
      "d": 84.45937500000582,
      "v": 90
    },
    {
      "midi": 53,
      "hit": false,
      "t": 130287.03187499988,
      "d": 124.57757812501222,
      "v": 93
    },
    {
      "midi": 56,
      "hit": false,
      "t": 130337.70750000014,
      "d": 73.90195312497963,
      "v": 54
    },
    {
      "midi": 51,
      "hit": false,
      "t": 130388.38312499989,
      "d": 107.68570312501106,
      "v": 114
    },
    {
      "midi": 46,
      "hit": false,
      "t": 130540.41000000012,
      "d": 475.08398437501455,
      "v": 86
    },
    {
      "midi": 62,
      "hit": false,
      "t": 130540.41000000012,
      "d": 532.0940625000221,
      "v": 69
    },
    {
      "midi": 58,
      "hit": false,
      "t": 130540.41000000012,
      "d": 684.1209375000035,
      "v": 63
    },
    {
      "midi": 65,
      "hit": false,
      "t": 130540.41000000012,
      "d": 722.1276562499988,
      "v": 59
    },
    {
      "midi": 50,
      "hit": false,
      "t": 130565.7478124999,
      "d": 202.70249999998487,
      "v": 105
    },
    {
      "midi": 46,
      "hit": false,
      "t": 130779.00773437489,
      "d": 223.8173437499936,
      "v": 99
    },
    {
      "midi": 53,
      "hit": false,
      "t": 130945.81500000013,
      "d": 236.48625000000175,
      "v": 69
    },
    {
      "midi": 50,
      "hit": false,
      "t": 130975.37578124988,
      "d": 206.92546875002154,
      "v": 105
    },
    {
      "midi": 46,
      "hit": false,
      "t": 131148.5174999999,
      "d": 242.82070312500582,
      "v": 83
    },
    {
      "midi": 46,
      "hit": false,
      "t": 131148.51750000013,
      "d": 164.69578124998952,
      "v": 74
    },
    {
      "midi": 58,
      "hit": false,
      "t": 131351.22000000012,
      "d": 371.6212500000256,
      "v": 81
    },
    {
      "midi": 63,
      "hit": false,
      "t": 131351.22000000012,
      "d": 384.29015625003376,
      "v": 86
    },
    {
      "midi": 39,
      "hit": false,
      "t": 131351.22000000012,
      "d": 1556.1639843750454,
      "v": 93
    },
    {
      "midi": 65,
      "hit": false,
      "t": 131397.6726562499,
      "d": 299.83078124999884,
      "v": 114
    },
    {
      "midi": 46,
      "hit": false,
      "t": 131553.92250000013,
      "d": 1064.1881250000442,
      "v": 65
    },
    {
      "midi": 63,
      "hit": false,
      "t": 131674.2771093749,
      "d": 82.34789062498021,
      "v": 114
    },
    {
      "midi": 51,
      "hit": false,
      "t": 131756.62500000015,
      "d": 834.0363281250175,
      "v": 89
    },
    {
      "midi": 60,
      "hit": false,
      "t": 131781.96281249987,
      "d": 240.7092187500093,
      "v": 102
    },
    {
      "midi": 58,
      "hit": false,
      "t": 131959.32750000016,
      "d": 312.499687500007,
      "v": 86
    },
    {
      "midi": 58,
      "hit": false,
      "t": 131993.11124999987,
      "d": 143.58093749999534,
      "v": 114
    },
    {
      "midi": 63,
      "hit": false,
      "t": 132162.03000000017,
      "d": 147.80390624998836,
      "v": 65
    },
    {
      "midi": 53,
      "hit": false,
      "t": 132187.36781249987,
      "d": 318.8341406249965,
      "v": 112
    },
    {
      "midi": 58,
      "hit": false,
      "t": 132364.73250000016,
      "d": 130.9120312499872,
      "v": 90
    },
    {
      "midi": 65,
      "hit": false,
      "t": 132364.73250000016,
      "d": 215.37140624999302,
      "v": 83
    },
    {
      "midi": 51,
      "hit": false,
      "t": 132472.41820312486,
      "d": 114.02015625001513,
      "v": 101
    },
    {
      "midi": 63,
      "hit": false,
      "t": 132567.43500000014,
      "d": 124.57757812502678,
      "v": 90
    },
    {
      "midi": 55,
      "hit": false,
      "t": 132573.76945312487,
      "d": 204.81398437501048,
      "v": 81
    },
    {
      "midi": 51,
      "hit": false,
      "t": 132770.13750000016,
      "d": 118.24312500000815,
      "v": 93
    },
    {
      "midi": 58,
      "hit": false,
      "t": 132787.02937499987,
      "d": 228.04031250000116,
      "v": 114
    },
    {
      "midi": 56,
      "hit": false,
      "t": 132972.83999999988,
      "d": 346.2834374999802,
      "v": 93
    },
    {
      "midi": 51,
      "hit": false,
      "t": 132972.83999999988,
      "d": 350.5064062499732,
      "v": 93
    },
    {
      "midi": 44,
      "hit": false,
      "t": 132972.83999999988,
      "d": 523.6481249999779,
      "v": 90
    },
    {
      "midi": 56,
      "hit": false,
      "t": 132972.84000000017,
      "d": 289.2733593749872,
      "v": 83
    },
    {
      "midi": 63,
      "hit": false,
      "t": 132972.84000000017,
      "d": 496.1988281249942,
      "v": 72
    },
    {
      "midi": 60,
      "hit": false,
      "t": 132972.84000000017,
      "d": 506.7562500000058,
      "v": 81
    },
    {
      "midi": 44,
      "hit": false,
      "t": 132972.84000000017,
      "d": 508.8677343750023,
      "v": 93
    },
    {
      "midi": 56,
      "hit": false,
      "t": 133378.24499999985,
      "d": 384.29015625000466,
      "v": 99
    },
    {
      "midi": 51,
      "hit": false,
      "t": 133378.24499999985,
      "d": 394.8475781250163,
      "v": 93
    },
    {
      "midi": 56,
      "hit": false,
      "t": 133378.24500000017,
      "d": 175.25320312500116,
      "v": 81
    },
    {
      "midi": 44,
      "hit": false,
      "t": 133580.94749999986,
      "d": 67.56750000000466,
      "v": 69
    },
    {
      "midi": 44,
      "hit": false,
      "t": 133580.94750000018,
      "d": 107.68570312499651,
      "v": 72
    },
    {
      "midi": 46,
      "hit": false,
      "t": 133783.64999999988,
      "d": 278.71593750000466,
      "v": 89
    },
    {
      "midi": 46,
      "hit": false,
      "t": 133783.65000000017,
      "d": 430.74281249998603,
      "v": 99
    },
    {
      "midi": 62,
      "hit": false,
      "t": 133783.65000000017,
      "d": 456.0806249999732,
      "v": 73
    },
    {
      "midi": 65,
      "hit": false,
      "t": 133783.65000000017,
      "d": 468.7495312499814,
      "v": 69
    },
    {
      "midi": 58,
      "hit": false,
      "t": 133783.65000000017,
      "d": 570.1007812499884,
      "v": 81
    },
    {
      "midi": 53,
      "hit": false,
      "t": 133986.3524999999,
      "d": 356.84085937499185,
      "v": 88
    },
    {
      "midi": 58,
      "hit": false,
      "t": 133986.3524999999,
      "d": 591.2156250000116,
      "v": 99
    },
    {
      "midi": 46,
      "hit": false,
      "t": 134189.05499999988,
      "d": 101.35125000000698,
      "v": 54
    },
    {
      "midi": 53,
      "hit": false,
      "t": 134189.05500000017,
      "d": 185.8106249999837,
      "v": 72
    },
    {
      "midi": 53,
      "hit": false,
      "t": 134391.7574999999,
      "d": 185.8106250000128,
      "v": 79
    },
    {
      "midi": 46,
      "hit": false,
      "t": 134391.75750000015,
      "d": 120.35460937500466,
      "v": 72
    },
    {
      "midi": 39,
      "hit": false,
      "t": 134594.4599999999,
      "d": 513.0907031249953,
      "v": 72
    },
    {
      "midi": 67,
      "hit": false,
      "t": 134594.46000000017,
      "d": 388.5131249999977,
      "v": 83
    },
    {
      "midi": 58,
      "hit": false,
      "t": 134594.46000000017,
      "d": 394.8475781249872,
      "v": 93
    },
    {
      "midi": 63,
      "hit": false,
      "t": 134594.46000000017,
      "d": 462.41507812499185,
      "v": 93
    },
    {
      "midi": 39,
      "hit": false,
      "t": 134594.46000000017,
      "d": 1579.390312500007,
      "v": 76
    },
    {
      "midi": 46,
      "hit": false,
      "t": 134797.16249999992,
      "d": 124.57757812499767,
      "v": 90
    },
    {
      "midi": 51,
      "hit": false,
      "t": 134797.16249999992,
      "d": 164.69578124998952,
      "v": 104
    },
    {
      "midi": 46,
      "hit": false,
      "t": 134999.86500000017,
      "d": 519.4251562499849,
      "v": 58
    },
    {
      "midi": 39,
      "hit": false,
      "t": 135202.5674999999,
      "d": 316.72265625,
      "v": 85
    },
    {
      "midi": 51,
      "hit": false,
      "t": 135202.56750000015,
      "d": 293.4963281250093,
      "v": 76
    },
    {
      "midi": 46,
      "hit": false,
      "t": 135405.2699999999,
      "d": 371.6212499999965,
      "v": 93
    },
    {
      "midi": 51,
      "hit": false,
      "t": 135405.2699999999,
      "d": 688.3439062500256,
      "v": 99
    },
    {
      "midi": 58,
      "hit": false,
      "t": 135405.27000000016,
      "d": 304.05374999999185,
      "v": 76
    },
    {
      "midi": 70,
      "hit": false,
      "t": 135405.27000000016,
      "d": 323.0571093749895,
      "v": 96
    },
    {
      "midi": 39,
      "hit": false,
      "t": 135607.9724999999,
      "d": 135.1350000000093,
      "v": 52
    },
    {
      "midi": 51,
      "hit": false,
      "t": 135607.97250000015,
      "d": 272.38148437501513,
      "v": 80
    },
    {
      "midi": 46,
      "hit": false,
      "t": 135810.6749999999,
      "d": 215.37140625002212,
      "v": 69
    },
    {
      "midi": 65,
      "hit": false,
      "t": 135810.67500000016,
      "d": 192.14507812500233,
      "v": 75
    },
    {
      "midi": 58,
      "hit": false,
      "t": 135810.67500000016,
      "d": 310.3882031250105,
      "v": 86
    },
    {
      "midi": 39,
      "hit": false,
      "t": 136013.37749999992,
      "d": 147.80390625001746,
      "v": 93
    },
    {
      "midi": 67,
      "hit": false,
      "t": 136013.37750000018,
      "d": 86.57085937500233,
      "v": 73
    },
    {
      "midi": 51,
      "hit": false,
      "t": 136013.37750000018,
      "d": 114.02015624998603,
      "v": 78
    },
    {
      "midi": 51,
      "hit": false,
      "t": 136216.07999999993,
      "d": 350.5064062500023,
      "v": 101
    },
    {
      "midi": 44,
      "hit": false,
      "t": 136216.07999999993,
      "d": 513.0907031249953,
      "v": 104
    },
    {
      "midi": 56,
      "hit": false,
      "t": 136216.07999999993,
      "d": 722.1276562499697,
      "v": 96
    },
    {
      "midi": 56,
      "hit": false,
      "t": 136216.08000000016,
      "d": 310.3882031250105,
      "v": 78
    },
    {
      "midi": 44,
      "hit": false,
      "t": 136216.08000000016,
      "d": 445.5232031249907,
      "v": 76
    },
    {
      "midi": 60,
      "hit": false,
      "t": 136216.08000000016,
      "d": 705.2357812499977,
      "v": 79
    },
    {
      "midi": 63,
      "hit": false,
      "t": 136216.08000000016,
      "d": 732.6850781250105,
      "v": 80
    },
    {
      "midi": 51,
      "hit": false,
      "t": 136621.48499999993,
      "d": 346.2834374999802,
      "v": 66
    },
    {
      "midi": 56,
      "hit": false,
      "t": 136621.48500000016,
      "d": 299.83078124999884,
      "v": 54
    },
    {
      "midi": 44,
      "hit": false,
      "t": 136824.1874999999,
      "d": 181.5876562499907,
      "v": 75
    },
    {
      "midi": 44,
      "hit": false,
      "t": 136824.18750000015,
      "d": 637.6682812500221,
      "v": 80
    },
    {
      "midi": 51,
      "hit": false,
      "t": 137026.8899999999,
      "d": 614.4419531250023,
      "v": 69
    },
    {
      "midi": 56,
      "hit": false,
      "t": 137026.8899999999,
      "d": 844.5937500000291,
      "v": 75
    },
    {
      "midi": 56,
      "hit": false,
      "t": 137026.89000000016,
      "d": 158.361328125,
      "v": 68
    },
    {
      "midi": 63,
      "hit": false,
      "t": 137026.89000000016,
      "d": 354.72937499999534,
      "v": 53
    },
    {
      "midi": 60,
      "hit": false,
      "t": 137026.89000000016,
      "d": 489.86437500000466,
      "v": 64
    },
    {
      "midi": 44,
      "hit": false,
      "t": 137229.5924999999,
      "d": 90.79382812499534,
      "v": 47
    },
    {
      "midi": 55,
      "hit": false,
      "t": 137229.59250000017,
      "d": 90.79382812499534,
      "v": 64
    },
    {
      "midi": 43,
      "hit": false,
      "t": 137330.94374999992,
      "d": 52.787109375,
      "v": 59
    },
    {
      "midi": 56,
      "hit": false,
      "t": 137432.29500000016,
      "d": 204.81398437501048,
      "v": 72
    },
    {
      "midi": 44,
      "hit": false,
      "t": 137634.9974999999,
      "d": 69.67898437500116,
      "v": 47
    },
    {
      "midi": 44,
      "hit": false,
      "t": 137634.99750000017,
      "d": 97.12828124998487,
      "v": 78
    },
    {
      "midi": 46,
      "hit": false,
      "t": 137837.69999999992,
      "d": 380.06718750001164,
      "v": 110
    },
    {
      "midi": 58,
      "hit": false,
      "t": 137837.70000000016,
      "d": 244.93218750000233,
      "v": 64
    },
    {
      "midi": 62,
      "hit": false,
      "t": 137837.70000000016,
      "d": 333.61453125000116,
      "v": 63
    },
    {
      "midi": 65,
      "hit": false,
      "t": 137837.70000000016,
      "d": 593.3271093750081,
      "v": 58
    },
    {
      "midi": 46,
      "hit": false,
      "t": 137837.70000000016,
      "d": 1617.3970312500314,
      "v": 96
    },
    {
      "midi": 53,
      "hit": false,
      "t": 138040.40249999994,
      "d": 120.35460937500466,
      "v": 105
    },
    {
      "midi": 58,
      "hit": false,
      "t": 138040.40249999994,
      "d": 181.5876562499907,
      "v": 114
    },
    {
      "midi": 53,
      "hit": false,
      "t": 138040.40250000017,
      "d": 177.36468749999767,
      "v": 79
    },
    {
      "midi": 53,
      "hit": false,
      "t": 138243.10499999992,
      "d": 120.35460937500466,
      "v": 63
    },
    {
      "midi": 58,
      "hit": false,
      "t": 138243.10500000016,
      "d": 124.57757812499767,
      "v": 90
    },
    {
      "midi": 46,
      "hit": false,
      "t": 138445.80749999994,
      "d": 344.1719531250128,
      "v": 99
    },
    {
      "midi": 60,
      "hit": false,
      "t": 138445.80750000017,
      "d": 219.59437500001513,
      "v": 70
    },
    {
      "midi": 53,
      "hit": false,
      "t": 138648.50999999995,
      "d": 779.1377343749919,
      "v": 99
    },
    {
      "midi": 58,
      "hit": false,
      "t": 138648.50999999995,
      "d": 789.6951562500035,
      "v": 114
    },
    {
      "midi": 62,
      "hit": false,
      "t": 138648.51000000018,
      "d": 101.35125000000698,
      "v": 75
    },
    {
      "midi": 46,
      "hit": false,
      "t": 138851.21249999994,
      "d": 597.5500781250303,
      "v": 60
    },
    {
      "midi": 65,
      "hit": false,
      "t": 138851.2125000002,
      "d": 120.35460937500466,
      "v": 83
    },
    {
      "midi": 67,
      "hit": false,
      "t": 139053.9150000002,
      "d": 92.90531249999185,
      "v": 85
    },
    {
      "midi": 65,
      "hit": false,
      "t": 139256.6175000002,
      "d": 185.8106250000128,
      "v": 75
    },
    {
      "midi": 70,
      "hit": false,
      "t": 139256.6175000002,
      "d": 194.25656249999884,
      "v": 90
    },
    {
      "midi": 62,
      "hit": false,
      "t": 139256.6175000002,
      "d": 219.59437499998603,
      "v": 59
    },
    {
      "midi": 51,
      "hit": false,
      "t": 139459.31999999998,
      "d": 688.3439062499965,
      "v": 104
    },
    {
      "midi": 56,
      "hit": false,
      "t": 139459.31999999998,
      "d": 692.5668749999895,
      "v": 107
    },
    {
      "midi": 44,
      "hit": false,
      "t": 139459.31999999998,
      "d": 768.5803124999802,
      "v": 90
    },
    {
      "midi": 44,
      "hit": false,
      "t": 139459.32000000018,
      "d": 293.4963281250093,
      "v": 93
    },
    {
      "midi": 56,
      "hit": false,
      "t": 139662.0225000002,
      "d": 320.945624999993,
      "v": 74
    },
    {
      "midi": 60,
      "hit": false,
      "t": 139662.0225000002,
      "d": 346.2834374999802,
      "v": 70
    },
    {
      "midi": 63,
      "hit": false,
      "t": 139662.0225000002,
      "d": 610.2189843749511,
      "v": 64
    },
    {
      "midi": 44,
      "hit": false,
      "t": 139864.72500000018,
      "d": 244.93218749997322,
      "v": 68
    },
    {
      "midi": 60,
      "hit": false,
      "t": 140067.42750000017,
      "d": 209.0369531249744,
      "v": 64
    },
    {
      "midi": 56,
      "hit": false,
      "t": 140067.42750000017,
      "d": 242.82070312497672,
      "v": 72
    },
    {
      "midi": 58,
      "hit": false,
      "t": 140270.12999999995,
      "d": 557.4318750000093,
      "v": 93
    },
    {
      "midi": 53,
      "hit": false,
      "t": 140270.12999999995,
      "d": 563.7663281249988,
      "v": 88
    },
    {
      "midi": 46,
      "hit": false,
      "t": 140270.12999999995,
      "d": 624.9993749999849,
      "v": 110
    },
    {
      "midi": 46,
      "hit": false,
      "t": 140270.13000000015,
      "d": 350.5064062499732,
      "v": 90
    },
    {
      "midi": 62,
      "hit": false,
      "t": 140472.83250000014,
      "d": 282.9389062499977,
      "v": 75
    },
    {
      "midi": 58,
      "hit": false,
      "t": 140472.83250000014,
      "d": 320.945624999993,
      "v": 72
    },
    {
      "midi": 46,
      "hit": false,
      "t": 140675.53500000012,
      "d": 211.1484375,
      "v": 80
    },
    {
      "midi": 67,
      "hit": false,
      "t": 140878.23750000013,
      "d": 869.9315625000163,
      "v": 94
    },
    {
      "midi": 63,
      "hit": false,
      "t": 140878.23750000013,
      "d": 897.3808593750291,
      "v": 74
    },
    {
      "midi": 58,
      "hit": false,
      "t": 140878.23750000013,
      "d": 912.1612500000338,
      "v": 89
    },
    {
      "midi": 46,
      "hit": false,
      "t": 141080.93999999994,
      "d": 491.97585937500116,
      "v": 96
    },
    {
      "midi": 39,
      "hit": false,
      "t": 141080.93999999994,
      "d": 709.4587500000198,
      "v": 110
    },
    {
      "midi": 51,
      "hit": false,
      "t": 141080.93999999994,
      "d": 907.9382812500116,
      "v": 96
    },
    {
      "midi": 51,
      "hit": false,
      "t": 141080.94000000012,
      "d": 299.83078125002794,
      "v": 81
    },
    {
      "midi": 55,
      "hit": false,
      "t": 141283.64250000013,
      "d": 289.2733593750163,
      "v": 68
    },
    {
      "midi": 51,
      "hit": false,
      "t": 141486.34500000015,
      "d": 709.4587500000198,
      "v": 72
    },
    {
      "midi": 46,
      "hit": false,
      "t": 141689.04749999996,
      "d": 293.4963281250093,
      "v": 59
    },
    {
      "midi": 55,
      "hit": false,
      "t": 141689.04750000016,
      "d": 819.2559374999837,
      "v": 72
    },
    {
      "midi": 39,
      "hit": false,
      "t": 141891.74999999997,
      "d": 481.4184374999895,
      "v": 101
    },
    {
      "midi": 67,
      "hit": false,
      "t": 141891.75000000017,
      "d": 109.79718749999302,
      "v": 97
    },
    {
      "midi": 58,
      "hit": false,
      "t": 141891.75000000017,
      "d": 177.36468749999767,
      "v": 63
    },
    {
      "midi": 51,
      "hit": false,
      "t": 142094.45249999996,
      "d": 259.712578125007,
      "v": 99
    },
    {
      "midi": 58,
      "hit": false,
      "t": 142094.45250000016,
      "d": 126.68906249999418,
      "v": 48
    },
    {
      "midi": 65,
      "hit": false,
      "t": 142094.45250000016,
      "d": 126.68906249999418,
      "v": 78
    },
    {
      "midi": 46,
      "hit": false,
      "t": 142297.15499999997,
      "d": 97.12828124998487,
      "v": 93
    },
    {
      "midi": 63,
      "hit": false,
      "t": 142297.15500000014,
      "d": 344.1719531250128,
      "v": 86
    },
    {
      "midi": 39,
      "hit": false,
      "t": 142499.85749999995,
      "d": 141.46945312499884,
      "v": 96
    },
    {
      "midi": 51,
      "hit": false,
      "t": 142499.85750000016,
      "d": 52.787109375,
      "v": 83
    },
    {
      "midi": 44,
      "hit": false,
      "t": 142702.55999999994,
      "d": 576.435234375007,
      "v": 104
    },
    {
      "midi": 51,
      "hit": false,
      "t": 142702.55999999994,
      "d": 677.786484375014,
      "v": 85
    },
    {
      "midi": 56,
      "hit": false,
      "t": 142702.55999999994,
      "d": 698.9013281250081,
      "v": 80
    },
    {
      "midi": 58,
      "hit": false,
      "t": 142702.56000000014,
      "d": 202.70250000001397,
      "v": 78
    },
    {
      "midi": 60,
      "hit": false,
      "t": 142702.56000000014,
      "d": 320.9456250000221,
      "v": 72
    },
    {
      "midi": 63,
      "hit": false,
      "t": 142702.56000000014,
      "d": 356.84085937502095,
      "v": 93
    },
    {
      "midi": 44,
      "hit": false,
      "t": 142702.56000000014,
      "d": 675.6750000000175,
      "v": 93
    },
    {
      "midi": 56,
      "hit": false,
      "t": 143107.96500000017,
      "d": 312.4996874999779,
      "v": 80
    },
    {
      "midi": 63,
      "hit": false,
      "t": 143107.96500000017,
      "d": 320.9456249999639,
      "v": 74
    },
    {
      "midi": 60,
      "hit": false,
      "t": 143107.96500000017,
      "d": 356.84085937496275,
      "v": 81
    },
    {
      "midi": 46,
      "hit": false,
      "t": 143513.36999999994,
      "d": 304.05374999999185,
      "v": 96
    },
    {
      "midi": 53,
      "hit": false,
      "t": 143513.36999999994,
      "d": 553.2089062499872,
      "v": 82
    },
    {
      "midi": 58,
      "hit": false,
      "t": 143513.36999999994,
      "d": 802.3640624999825,
      "v": 85
    },
    {
      "midi": 62,
      "hit": false,
      "t": 143513.37000000014,
      "d": 135.1350000000093,
      "v": 55
    },
    {
      "midi": 46,
      "hit": false,
      "t": 143513.37000000014,
      "d": 633.4453125000291,
      "v": 78
    },
    {
      "midi": 58,
      "hit": false,
      "t": 143716.07250000015,
      "d": 266.0470312500256,
      "v": 70
    },
    {
      "midi": 62,
      "hit": false,
      "t": 143716.07250000015,
      "d": 367.3982812500326,
      "v": 64
    },
    {
      "midi": 46,
      "hit": false,
      "t": 143918.77499999994,
      "d": 185.8106249999837,
      "v": 49
    },
    {
      "midi": 53,
      "hit": false,
      "t": 143918.77500000017,
      "d": 90.79382812502445,
      "v": 55
    },
    {
      "midi": 53,
      "hit": false,
      "t": 144121.47749999992,
      "d": 181.5876562499907,
      "v": 72
    },
    {
      "midi": 55,
      "hit": false,
      "t": 144121.47750000018,
      "d": 320.945624999993,
      "v": 72
    },
    {
      "midi": 58,
      "hit": false,
      "t": 144121.47750000018,
      "d": 817.1444531249872,
      "v": 86
    },
    {
      "midi": 63,
      "hit": false,
      "t": 144222.82875000016,
      "d": 29.560781250009313,
      "v": 40
    },
    {
      "midi": 39,
      "hit": false,
      "t": 144324.1799999999,
      "d": 506.7562500000349,
      "v": 99
    },
    {
      "midi": 51,
      "hit": false,
      "t": 144324.18000000017,
      "d": 289.2733593750163,
      "v": 59
    },
    {
      "midi": 46,
      "hit": false,
      "t": 144526.88249999992,
      "d": 120.35460937500466,
      "v": 99
    },
    {
      "midi": 51,
      "hit": false,
      "t": 144526.88249999992,
      "d": 219.59437500001513,
      "v": 96
    },
    {
      "midi": 55,
      "hit": false,
      "t": 144526.88250000018,
      "d": 276.60445312500815,
      "v": 64
    },
    {
      "midi": 46,
      "hit": false,
      "t": 144729.58499999993,
      "d": 73.90195312499418,
      "v": 55
    },
    {
      "midi": 51,
      "hit": false,
      "t": 144729.5850000002,
      "d": 610.2189843749511,
      "v": 72
    },
    {
      "midi": 39,
      "hit": false,
      "t": 144932.28749999995,
      "d": 350.5064062500023,
      "v": 87
    },
    {
      "midi": 55,
      "hit": false,
      "t": 144932.28750000018,
      "d": 310.3882031249814,
      "v": 72
    },
    {
      "midi": 46,
      "hit": false,
      "t": 145134.98999999996,
      "d": 377.95570312498603,
      "v": 99
    },
    {
      "midi": 51,
      "hit": false,
      "t": 145134.98999999996,
      "d": 650.3371875000012,
      "v": 107
    },
    {
      "midi": 58,
      "hit": false,
      "t": 145134.99000000017,
      "d": 103.46273437500349,
      "v": 78
    },
    {
      "midi": 39,
      "hit": false,
      "t": 145337.69249999995,
      "d": 329.39156250000815,
      "v": 87
    },
    {
      "midi": 67,
      "hit": false,
      "t": 145337.69250000015,
      "d": 232.26328124999418,
      "v": 73
    },
    {
      "midi": 46,
      "hit": false,
      "t": 145540.39499999996,
      "d": 158.361328125,
      "v": 78
    },
    {
      "midi": 63,
      "hit": false,
      "t": 145540.39500000014,
      "d": 304.05374999999185,
      "v": 89
    },
    {
      "midi": 39,
      "hit": false,
      "t": 145743.09749999997,
      "d": 135.1349999999802,
      "v": 81
    },
    {
      "midi": 51,
      "hit": false,
      "t": 145743.09750000015,
      "d": 92.90531249999185,
      "v": 78
    },
    {
      "midi": 51,
      "hit": false,
      "t": 145945.79999999996,
      "d": 701.0128125000047,
      "v": 96
    },
    {
      "midi": 56,
      "hit": false,
      "t": 145945.79999999996,
      "d": 711.5702343750163,
      "v": 99
    },
    {
      "midi": 44,
      "hit": false,
      "t": 145945.79999999996,
      "d": 749.5769531250116,
      "v": 114
    },
    {
      "midi": 56,
      "hit": false,
      "t": 145945.80000000013,
      "d": 346.2834374999802,
      "v": 83
    },
    {
      "midi": 63,
      "hit": false,
      "t": 145945.80000000013,
      "d": 346.2834374999802,
      "v": 96
    },
    {
      "midi": 60,
      "hit": false,
      "t": 145945.80000000013,
      "d": 354.72937499996624,
      "v": 83
    },
    {
      "midi": 44,
      "hit": false,
      "t": 145945.80000000013,
      "d": 498.3103124999616,
      "v": 60
    },
    {
      "midi": 63,
      "hit": false,
      "t": 146351.2050000001,
      "d": 168.91874999998254,
      "v": 76
    },
    {
      "midi": 56,
      "hit": false,
      "t": 146351.2050000001,
      "d": 171.03023437497905,
      "v": 54
    },
    {
      "midi": 60,
      "hit": false,
      "t": 146351.2050000001,
      "d": 177.36468749996857,
      "v": 75
    },
    {
      "midi": 44,
      "hit": false,
      "t": 146553.90750000006,
      "d": 46.45265625001048,
      "v": 56
    },
    {
      "midi": 46,
      "hit": false,
      "t": 146756.60999999996,
      "d": 779.137734375021,
      "v": 101
    },
    {
      "midi": 58,
      "hit": false,
      "t": 146756.60999999996,
      "d": 810.8100000000268,
      "v": 93
    },
    {
      "midi": 53,
      "hit": false,
      "t": 146756.60999999996,
      "d": 812.9214843750233,
      "v": 88
    },
    {
      "midi": 46,
      "hit": false,
      "t": 146756.61000000007,
      "d": 278.71593750000466,
      "v": 89
    },
    {
      "midi": 58,
      "hit": false,
      "t": 146756.61000000007,
      "d": 304.05374999999185,
      "v": 68
    },
    {
      "midi": 62,
      "hit": false,
      "t": 146756.61000000007,
      "d": 472.9725000000035,
      "v": 71
    },
    {
      "midi": 65,
      "hit": false,
      "t": 146756.61000000007,
      "d": 472.9725000000035,
      "v": 64
    },
    {
      "midi": 53,
      "hit": false,
      "t": 146959.3125000001,
      "d": 266.0470312499965,
      "v": 72
    },
    {
      "midi": 58,
      "hit": false,
      "t": 147162.01500000007,
      "d": 92.90531249999185,
      "v": 89
    },
    {
      "midi": 46,
      "hit": false,
      "t": 147162.01500000007,
      "d": 120.35460937497555,
      "v": 72
    },
    {
      "midi": 58,
      "hit": false,
      "t": 147364.71750000006,
      "d": 867.8200781250489,
      "v": 93
    },
    {
      "midi": 67,
      "hit": false,
      "t": 147364.71750000006,
      "d": 1036.7388281250605,
      "v": 87
    },
    {
      "midi": 63,
      "hit": false,
      "t": 147364.71750000006,
      "d": 1066.2996093750698,
      "v": 80
    },
    {
      "midi": 39,
      "hit": false,
      "t": 147567.41999999998,
      "d": 532.094062499993,
      "v": 83
    },
    {
      "midi": 51,
      "hit": false,
      "t": 147567.42000000007,
      "d": 289.2733593750163,
      "v": 81
    },
    {
      "midi": 55,
      "hit": false,
      "t": 147770.12250000008,
      "d": 289.2733593750163,
      "v": 60
    },
    {
      "midi": 46,
      "hit": false,
      "t": 147972.82499999998,
      "d": 114.02015624998603,
      "v": 61
    },
    {
      "midi": 51,
      "hit": false,
      "t": 147972.8250000001,
      "d": 306.16523437501746,
      "v": 72
    },
    {
      "midi": 39,
      "hit": false,
      "t": 148175.52749999997,
      "d": 333.61453125000116,
      "v": 89
    },
    {
      "midi": 55,
      "hit": false,
      "t": 148175.5275000001,
      "d": 316.72265625,
      "v": 60
    },
    {
      "midi": 46,
      "hit": false,
      "t": 148378.22999999998,
      "d": 384.29015624997555,
      "v": 83
    },
    {
      "midi": 51,
      "hit": false,
      "t": 148378.22999999998,
      "d": 671.4520312499953,
      "v": 96
    },
    {
      "midi": 51,
      "hit": false,
      "t": 148378.23000000013,
      "d": 57.010078124993015,
      "v": 54
    },
    {
      "midi": 58,
      "hit": false,
      "t": 148378.23000000013,
      "d": 114.02015624998603,
      "v": 56
    },
    {
      "midi": 39,
      "hit": false,
      "t": 148580.93249999997,
      "d": 354.72937499999534,
      "v": 89
    },
    {
      "midi": 58,
      "hit": false,
      "t": 148580.9325000001,
      "d": 130.9120312499872,
      "v": 72
    },
    {
      "midi": 67,
      "hit": false,
      "t": 148580.9325000001,
      "d": 323.0571093749895,
      "v": 85
    },
    {
      "midi": 46,
      "hit": false,
      "t": 148783.63499999995,
      "d": 185.8106250000128,
      "v": 80
    },
    {
      "midi": 63,
      "hit": false,
      "t": 148783.6350000001,
      "d": 228.04031250000116,
      "v": 78
    },
    {
      "midi": 39,
      "hit": false,
      "t": 148986.33749999997,
      "d": 135.1350000000093,
      "v": 89
    },
    {
      "midi": 51,
      "hit": false,
      "t": 148986.3375000001,
      "d": 80.2364062499837,
      "v": 78
    },
    {
      "midi": 58,
      "hit": false,
      "t": 148986.3375000001,
      "d": 147.80390624998836,
      "v": 68
    },
    {
      "midi": 48,
      "hit": false,
      "t": 149189.03999999998,
      "d": 620.776406250021,
      "v": 105
    },
    {
      "midi": 60,
      "hit": false,
      "t": 149189.03999999998,
      "d": 620.776406250021,
      "v": 102
    },
    {
      "midi": 68,
      "hit": false,
      "t": 149189.0400000001,
      "d": 396.9590624999837,
      "v": 80
    },
    {
      "midi": 48,
      "hit": false,
      "t": 149189.0400000001,
      "d": 536.317031249986,
      "v": 102
    },
    {
      "midi": 72,
      "hit": false,
      "t": 149189.0400000001,
      "d": 586.9926562499895,
      "v": 87
    },
    {
      "midi": 46,
      "hit": false,
      "t": 149797.1475,
      "d": 580.658203125,
      "v": 104
    },
    {
      "midi": 58,
      "hit": false,
      "t": 149797.1475,
      "d": 610.2189843750093,
      "v": 110
    },
    {
      "midi": 67,
      "hit": false,
      "t": 149797.14750000008,
      "d": 411.73945312498836,
      "v": 85
    },
    {
      "midi": 70,
      "hit": false,
      "t": 149797.14750000008,
      "d": 430.74281249998603,
      "v": 89
    },
    {
      "midi": 46,
      "hit": false,
      "t": 149797.14750000008,
      "d": 472.9724999999744,
      "v": 102
    },
    {
      "midi": 63,
      "hit": false,
      "t": 150202.55250000008,
      "d": 130.9120312499872,
      "v": 65
    },
    {
      "midi": 44,
      "hit": false,
      "t": 150405.255,
      "d": 546.8744531249977,
      "v": 93
    },
    {
      "midi": 56,
      "hit": false,
      "t": 150405.255,
      "d": 559.5433593750058,
      "v": 99
    },
    {
      "midi": 68,
      "hit": false,
      "t": 150405.25500000006,
      "d": 272.38148437501513,
      "v": 102
    },
    {
      "midi": 44,
      "hit": false,
      "t": 150405.25500000006,
      "d": 413.85093750001397,
      "v": 86
    },
    {
      "midi": 43,
      "hit": false,
      "t": 151013.36250000002,
      "d": 502.5332812500128,
      "v": 100
    },
    {
      "midi": 55,
      "hit": false,
      "t": 151013.36250000002,
      "d": 563.7663281249988,
      "v": 84
    },
    {
      "midi": 43,
      "hit": false,
      "t": 151013.36250000008,
      "d": 373.7327343750221,
      "v": 94
    },
    {
      "midi": 63,
      "hit": false,
      "t": 151013.36250000008,
      "d": 557.4318750000384,
      "v": 99
    },
    {
      "midi": 67,
      "hit": false,
      "t": 151013.36250000008,
      "d": 563.7663281250279,
      "v": 89
    },
    {
      "midi": 58,
      "hit": false,
      "t": 151418.7675000001,
      "d": 130.9120312500163,
      "v": 74
    },
    {
      "midi": 41,
      "hit": false,
      "t": 151621.47000000003,
      "d": 175.25320312500116,
      "v": 68
    },
    {
      "midi": 53,
      "hit": false,
      "t": 151621.47000000003,
      "d": 228.04031250000116,
      "v": 78
    },
    {
      "midi": 53,
      "hit": false,
      "t": 151621.47000000012,
      "d": 192.14507812500233,
      "v": 91
    },
    {
      "midi": 65,
      "hit": false,
      "t": 151621.47000000012,
      "d": 232.26328125002328,
      "v": 79
    },
    {
      "midi": 39,
      "hit": false,
      "t": 151824.17250000004,
      "d": 52.787109375,
      "v": 50
    },
    {
      "midi": 51,
      "hit": false,
      "t": 151824.17250000004,
      "d": 59.12156249998952,
      "v": 96
    },
    {
      "midi": 51,
      "hit": false,
      "t": 151824.17250000013,
      "d": 90.79382812499534,
      "v": 68
    },
    {
      "midi": 63,
      "hit": false,
      "t": 151824.17250000013,
      "d": 185.8106250000128,
      "v": 102
    },
    {
      "midi": 46,
      "hit": false,
      "t": 152026.87500000003,
      "d": 194.25656249999884,
      "v": 89
    },
    {
      "midi": 34,
      "hit": false,
      "t": 152026.87500000003,
      "d": 225.92882812497555,
      "v": 114
    },
    {
      "midi": 46,
      "hit": false,
      "t": 152026.87500000015,
      "d": 147.80390624998836,
      "v": 78
    },
    {
      "midi": 58,
      "hit": false,
      "t": 152026.87500000015,
      "d": 204.81398437498137,
      "v": 96
    },
    {
      "midi": 48,
      "hit": false,
      "t": 152229.5775,
      "d": 187.9221093749802,
      "v": 76
    },
    {
      "midi": 36,
      "hit": false,
      "t": 152229.5775,
      "d": 194.25656249996973,
      "v": 62
    },
    {
      "midi": 60,
      "hit": false,
      "t": 152229.57750000013,
      "d": 135.1350000000093,
      "v": 69
    },
    {
      "midi": 48,
      "hit": false,
      "t": 152229.57750000013,
      "d": 152.02687500001048,
      "v": 75
    },
    {
      "midi": 34,
      "hit": false,
      "t": 152432.27999999997,
      "d": 1594.1707031250116,
      "v": 114
    },
    {
      "midi": 46,
      "hit": false,
      "t": 152432.27999999997,
      "d": 1604.7281250000233,
      "v": 99
    },
    {
      "midi": 53,
      "hit": false,
      "t": 152432.28000000014,
      "d": 1589.9477343749895,
      "v": 83
    },
    {
      "midi": 46,
      "hit": false,
      "t": 152432.28000000014,
      "d": 1604.7281249999942,
      "v": 102
    },
    {
      "midi": 58,
      "hit": false,
      "t": 153876.53531250014,
      "d": 135.1349999999802,
      "v": 54
    },
    {
      "midi": 63,
      "hit": false,
      "t": 153965.21765625014,
      "d": 1541.3835937499825,
      "v": 64
    },
    {
      "midi": 51,
      "hit": false,
      "t": 153969.44062500013,
      "d": 1646.9578124999825,
      "v": 64
    },
    {
      "midi": 65,
      "hit": false,
      "t": 153994.77843750012,
      "d": 1535.049140624993,
      "v": 69
    },
    {
      "midi": 39,
      "hit": false,
      "t": 154053.9,
      "d": 519.425156250014,
      "v": 75
    },
    {
      "midi": 70,
      "hit": false,
      "t": 154062.34593750013,
      "d": 3270.6892968749744,
      "v": 93
    },
    {
      "midi": 51,
      "hit": false,
      "t": 154459.305,
      "d": 103.46273437500349,
      "v": 63
    },
    {
      "midi": 58,
      "hit": false,
      "t": 154459.305,
      "d": 118.24312500000815,
      "v": 93
    },
    {
      "midi": 39,
      "hit": false,
      "t": 154662.0075,
      "d": 519.425156250014,
      "v": 64
    },
    {
      "midi": 46,
      "hit": false,
      "t": 154864.71000000002,
      "d": 346.2834375000093,
      "v": 65
    },
    {
      "midi": 51,
      "hit": false,
      "t": 155067.41250000003,
      "d": 160.4728124999965,
      "v": 81
    },
    {
      "midi": 58,
      "hit": false,
      "t": 155067.41250000003,
      "d": 175.25320312500116,
      "v": 89
    },
    {
      "midi": 39,
      "hit": false,
      "t": 155270.11500000005,
      "d": 278.71593750000466,
      "v": 73
    },
    {
      "midi": 58,
      "hit": false,
      "t": 155472.81750000006,
      "d": 164.69578124998952,
      "v": 81
    },
    {
      "midi": 51,
      "hit": false,
      "t": 155472.81750000006,
      "d": 177.36468749999767,
      "v": 85
    },
    {
      "midi": 60,
      "hit": false,
      "t": 155675.5200000001,
      "d": 1532.9376562499965,
      "v": 71
    },
    {
      "midi": 63,
      "hit": false,
      "t": 155675.5200000001,
      "d": 1663.8496874999837,
      "v": 72
    },
    {
      "midi": 44,
      "hit": false,
      "t": 155681.8544531251,
      "d": 1480.1505468749965,
      "v": 74
    },
    {
      "midi": 44,
      "hit": false,
      "t": 155878.22250000006,
      "d": 337.8375000000233,
      "v": 64
    },
    {
      "midi": 56,
      "hit": false,
      "t": 156080.92500000008,
      "d": 143.58093749999534,
      "v": 87
    },
    {
      "midi": 51,
      "hit": false,
      "t": 156080.92500000008,
      "d": 158.361328125,
      "v": 101
    },
    {
      "midi": 44,
      "hit": false,
      "t": 156283.6275000001,
      "d": 861.4856250000303,
      "v": 83
    },
    {
      "midi": 56,
      "hit": false,
      "t": 156403.9821093751,
      "d": 84.45937500000582,
      "v": 36
    },
    {
      "midi": 53,
      "hit": false,
      "t": 156486.3300000001,
      "d": 175.25320312500116,
      "v": 72
    },
    {
      "midi": 56,
      "hit": false,
      "t": 156486.3300000001,
      "d": 812.9214843750233,
      "v": 99
    },
    {
      "midi": 56,
      "hit": false,
      "t": 156577.1238281251,
      "d": 162.58429687499302,
      "v": 41
    },
    {
      "midi": 51,
      "hit": false,
      "t": 156689.03250000012,
      "d": 198.47953124999185,
      "v": 60
    },
    {
      "midi": 53,
      "hit": false,
      "t": 156891.7350000001,
      "d": 316.7226562500291,
      "v": 72
    },
    {
      "midi": 51,
      "hit": false,
      "t": 157094.43750000012,
      "d": 171.03023437500815,
      "v": 89
    },
    {
      "midi": 46,
      "hit": false,
      "t": 157297.14000000013,
      "d": 401.1820312499767,
      "v": 87
    },
    {
      "midi": 46,
      "hit": false,
      "t": 157299.2514843751,
      "d": 1097.9718749999593,
      "v": 90
    },
    {
      "midi": 58,
      "hit": false,
      "t": 157499.84250000012,
      "d": 164.69578124998952,
      "v": 87
    },
    {
      "midi": 53,
      "hit": false,
      "t": 157499.84250000012,
      "d": 177.36468749999767,
      "v": 82
    },
    {
      "midi": 58,
      "hit": false,
      "t": 157506.17695312508,
      "d": 502.5332812499837,
      "v": 63
    },
    {
      "midi": 63,
      "hit": false,
      "t": 157702.54500000007,
      "d": 422.2968749999709,
      "v": 65
    },
    {
      "midi": 70,
      "hit": false,
      "t": 157704.65648437507,
      "d": 538.4285156249825,
      "v": 83
    },
    {
      "midi": 65,
      "hit": false,
      "t": 157719.43687500007,
      "d": 456.0806249999732,
      "v": 64
    },
    {
      "midi": 46,
      "hit": false,
      "t": 157905.2475000001,
      "d": 350.5064062500023,
      "v": 64
    },
    {
      "midi": 58,
      "hit": false,
      "t": 158093.16960937507,
      "d": 477.1954687499965,
      "v": 70
    },
    {
      "midi": 53,
      "hit": false,
      "t": 158107.95000000013,
      "d": 333.61453124997206,
      "v": 81
    },
    {
      "midi": 58,
      "hit": false,
      "t": 158107.95000000013,
      "d": 897.380859375,
      "v": 89
    },
    {
      "midi": 65,
      "hit": false,
      "t": 158306.42953125006,
      "d": 202.70249999998487,
      "v": 79
    },
    {
      "midi": 46,
      "hit": false,
      "t": 158310.6525000001,
      "d": 299.83078124999884,
      "v": 66
    },
    {
      "midi": 70,
      "hit": false,
      "t": 158312.76398437505,
      "d": 236.4862500000163,
      "v": 62
    },
    {
      "midi": 53,
      "hit": false,
      "t": 158513.3550000001,
      "d": 304.05375000002095,
      "v": 74
    },
    {
      "midi": 46,
      "hit": false,
      "t": 158519.68945312506,
      "d": 462.41507812502095,
      "v": 90
    },
    {
      "midi": 46,
      "hit": false,
      "t": 158716.0575000001,
      "d": 532.094062499993,
      "v": 107
    },
    {
      "midi": 70,
      "hit": false,
      "t": 158724.50343750007,
      "d": 696.7898437500116,
      "v": 99
    },
    {
      "midi": 62,
      "hit": false,
      "t": 158724.50343750007,
      "d": 831.924843750021,
      "v": 90
    },
    {
      "midi": 65,
      "hit": false,
      "t": 158724.50343750007,
      "d": 844.5937500000291,
      "v": 87
    },
    {
      "midi": 53,
      "hit": false,
      "t": 158918.76000000013,
      "d": 143.58093749999534,
      "v": 67
    },
    {
      "midi": 58,
      "hit": false,
      "t": 158937.76335937507,
      "d": 251.26664062502095,
      "v": 72
    },
    {
      "midi": 46,
      "hit": false,
      "t": 159121.46250000008,
      "d": 468.7495312500105,
      "v": 102
    },
    {
      "midi": 53,
      "hit": false,
      "t": 159121.4625000001,
      "d": 261.8240625000035,
      "v": 93
    },
    {
      "midi": 58,
      "hit": false,
      "t": 159121.4625000001,
      "d": 289.2733593750163,
      "v": 110
    },
    {
      "midi": 58,
      "hit": false,
      "t": 159315.71906250008,
      "d": 223.81734375000815,
      "v": 93
    },
    {
      "midi": 46,
      "hit": false,
      "t": 159324.1650000001,
      "d": 46.45265625001048,
      "v": 81
    },
    {
      "midi": 70,
      "hit": false,
      "t": 159518.4215625001,
      "d": 92.90531249999185,
      "v": 99
    },
    {
      "midi": 46,
      "hit": false,
      "t": 159526.86750000014,
      "d": 327.28007812501164,
      "v": 107
    },
    {
      "midi": 46,
      "hit": false,
      "t": 159704.23218750008,
      "d": 228.04031250008848,
      "v": 89
    },
    {
      "midi": 53,
      "hit": false,
      "t": 159729.57000000015,
      "d": 232.26328124999418,
      "v": 95
    },
    {
      "midi": 58,
      "hit": false,
      "t": 159729.57000000015,
      "d": 762.2458593750198,
      "v": 107
    },
    {
      "midi": 88,
      "hit": false,
      "t": 159735.90445312508,
      "d": 44.34117187501397,
      "v": 100
    },
    {
      "midi": 86,
      "hit": false,
      "t": 159763.3537500001,
      "d": 42.22968750001746,
      "v": 102
    },
    {
      "midi": 84,
      "hit": false,
      "t": 159792.9145312501,
      "d": 40.118203125020955,
      "v": 94
    },
    {
      "midi": 83,
      "hit": false,
      "t": 159820.36382812512,
      "d": 44.34117187501397,
      "v": 89
    },
    {
      "midi": 81,
      "hit": false,
      "t": 159854.14757812512,
      "d": 40.118203125020955,
      "v": 94
    },
    {
      "midi": 79,
      "hit": false,
      "t": 159877.37390625014,
      "d": 44.34117187501397,
      "v": 94
    },
    {
      "midi": 77,
      "hit": false,
      "t": 159906.93468750015,
      "d": 42.22968750001746,
      "v": 89
    },
    {
      "midi": 46,
      "hit": false,
      "t": 159932.27250000014,
      "d": 101.35125000000698,
      "v": 67
    },
    {
      "midi": 76,
      "hit": false,
      "t": 159934.38398437516,
      "d": 44.34117187501397,
      "v": 83
    },
    {
      "midi": 74,
      "hit": false,
      "t": 159968.16773437517,
      "d": 40.11820312499185,
      "v": 90
    },
    {
      "midi": 72,
      "hit": false,
      "t": 159999.84000000017,
      "d": 42.229687499959255,
      "v": 81
    },
    {
      "midi": 46,
      "hit": false,
      "t": 160016.73187500014,
      "d": 73.90195312496508,
      "v": 83
    },
    {
      "midi": 71,
      "hit": false,
      "t": 160033.62375000014,
      "d": 42.229687499959255,
      "v": 85
    },
    {
      "midi": 53,
      "hit": false,
      "t": 160033.62375000014,
      "d": 272.38148437501513,
      "v": 81
    },
    {
      "midi": 69,
      "hit": false,
      "t": 160067.40750000012,
      "d": 46.45265625001048,
      "v": 81
    },
    {
      "midi": 67,
      "hit": false,
      "t": 160103.30273437512,
      "d": 48.56414062503609,
      "v": 81
    },
    {
      "midi": 46,
      "hit": false,
      "t": 160134.97500000015,
      "d": 354.72937500002445,
      "v": 104
    },
    {
      "midi": 65,
      "hit": false,
      "t": 160141.30945312514,
      "d": 44.34117187501397,
      "v": 76
    },
    {
      "midi": 64,
      "hit": false,
      "t": 160170.87023437515,
      "d": 50.67562500000349,
      "v": 81
    },
    {
      "midi": 62,
      "hit": false,
      "t": 160208.87695312515,
      "d": 46.45265625001048,
      "v": 79
    },
    {
      "midi": 60,
      "hit": false,
      "t": 160244.77218750014,
      "d": 50.67562500000349,
      "v": 73
    },
    {
      "midi": 59,
      "hit": false,
      "t": 160278.55593750015,
      "d": 50.67562499997439,
      "v": 73
    },
    {
      "midi": 57,
      "hit": false,
      "t": 160320.78562500014,
      "d": 46.45265625001048,
      "v": 81
    },
    {
      "midi": 53,
      "hit": false,
      "t": 160337.67750000017,
      "d": 177.36468749999767,
      "v": 88
    },
    {
      "midi": 55,
      "hit": false,
      "t": 160356.68085937513,
      "d": 48.564140625006985,
      "v": 73
    },
    {
      "midi": 53,
      "hit": false,
      "t": 160390.46460937514,
      "d": 44.34117187501397,
      "v": 73
    },
    {
      "midi": 52,
      "hit": false,
      "t": 160422.13687500014,
      "d": 42.22968749998836,
      "v": 73
    },
    {
      "midi": 50,
      "hit": false,
      "t": 160455.92062500014,
      "d": 33.783749999973224,
      "v": 85
    },
    {
      "midi": 48,
      "hit": false,
      "t": 160491.8158593751,
      "d": 21.11484374999418,
      "v": 70
    },
    {
      "midi": 55,
      "hit": false,
      "t": 160540.38000000012,
      "d": 498.3103124999907,
      "v": 64
    },
    {
      "midi": 58,
      "hit": false,
      "t": 160540.38000000012,
      "d": 515.2021874999919,
      "v": 102
    },
    {
      "midi": 51,
      "hit": false,
      "t": 160540.38000000012,
      "d": 519.4251562499849,
      "v": 93
    },
    {
      "midi": 63,
      "hit": false,
      "t": 160540.38000000012,
      "d": 540.539999999979,
      "v": 102
    },
    {
      "midi": 39,
      "hit": false,
      "t": 160540.38000000012,
      "d": 1359.7959374999919,
      "v": 96
    },
    {
      "midi": 51,
      "hit": false,
      "t": 160945.78500000015,
      "d": 192.14507812500233,
      "v": 107
    },
    {
      "midi": 51,
      "hit": false,
      "t": 161148.4875000001,
      "d": 667.2290625000314,
      "v": 72
    },
    {
      "midi": 46,
      "hit": false,
      "t": 161148.48750000016,
      "d": 236.4862500000163,
      "v": 101
    },
    {
      "midi": 63,
      "hit": false,
      "t": 161351.19000000012,
      "d": 272.38148437501513,
      "v": 83
    },
    {
      "midi": 58,
      "hit": false,
      "t": 161351.19000000012,
      "d": 316.7226562500291,
      "v": 89
    },
    {
      "midi": 48,
      "hit": false,
      "t": 161351.19000000018,
      "d": 185.8106250000128,
      "v": 84
    },
    {
      "midi": 65,
      "hit": false,
      "t": 161553.89250000013,
      "d": 185.8106250000128,
      "v": 73
    },
    {
      "midi": 51,
      "hit": false,
      "t": 161553.8925000002,
      "d": 181.5876562499907,
      "v": 89
    },
    {
      "midi": 58,
      "hit": false,
      "t": 161756.59500000015,
      "d": 238.5977343749546,
      "v": 81
    },
    {
      "midi": 63,
      "hit": false,
      "t": 161756.59500000015,
      "d": 266.0470312499674,
      "v": 70
    },
    {
      "midi": 67,
      "hit": false,
      "t": 161756.59500000015,
      "d": 299.83078124996973,
      "v": 85
    },
    {
      "midi": 53,
      "hit": false,
      "t": 161756.59500000018,
      "d": 215.37140625002212,
      "v": 81
    },
    {
      "midi": 51,
      "hit": false,
      "t": 161959.2975000001,
      "d": 63.34453125001164,
      "v": 76
    },
    {
      "midi": 55,
      "hit": false,
      "t": 161959.2975000002,
      "d": 154.13835937500698,
      "v": 97
    },
    {
      "midi": 44,
      "hit": false,
      "t": 162162.00000000012,
      "d": 458.19210937499884,
      "v": 89
    },
    {
      "midi": 63,
      "hit": false,
      "t": 162162.00000000012,
      "d": 475.083984375,
      "v": 99
    },
    {
      "midi": 68,
      "hit": false,
      "t": 162162.00000000012,
      "d": 481.4184374999895,
      "v": 86
    },
    {
      "midi": 60,
      "hit": false,
      "t": 162162.00000000012,
      "d": 485.64140624998254,
      "v": 70
    },
    {
      "midi": 56,
      "hit": false,
      "t": 162162.0000000002,
      "d": 215.37140625002212,
      "v": 96
    },
    {
      "midi": 55,
      "hit": false,
      "t": 162364.70250000022,
      "d": 185.8106250000128,
      "v": 109
    },
    {
      "midi": 56,
      "hit": false,
      "t": 162567.40500000012,
      "d": 137.24648437497672,
      "v": 72
    },
    {
      "midi": 53,
      "hit": false,
      "t": 162567.40500000023,
      "d": 418.0739062500361,
      "v": 114
    },
    {
      "midi": 44,
      "hit": false,
      "t": 162770.1075000001,
      "d": 675.6749999999884,
      "v": 70
    },
    {
      "midi": 56,
      "hit": false,
      "t": 162972.8100000001,
      "d": 141.46945312499884,
      "v": 78
    },
    {
      "midi": 63,
      "hit": false,
      "t": 162972.8100000001,
      "d": 624.9993749999849,
      "v": 83
    },
    {
      "midi": 51,
      "hit": false,
      "t": 162972.81000000026,
      "d": 158.361328125,
      "v": 114
    },
    {
      "midi": 55,
      "hit": false,
      "t": 163175.5125000001,
      "d": 114.02015624998603,
      "v": 76
    },
    {
      "midi": 53,
      "hit": false,
      "t": 163175.51250000027,
      "d": 209.0369531250035,
      "v": 79
    },
    {
      "midi": 56,
      "hit": false,
      "t": 163378.21500000008,
      "d": 242.82070312500582,
      "v": 89
    },
    {
      "midi": 55,
      "hit": false,
      "t": 163378.2150000003,
      "d": 152.02687499998137,
      "v": 95
    },
    {
      "midi": 44,
      "hit": false,
      "t": 163580.9175000001,
      "d": 57.010078124993015,
      "v": 56
    },
    {
      "midi": 58,
      "hit": false,
      "t": 163580.91750000027,
      "d": 168.91875000001164,
      "v": 114
    },
    {
      "midi": 46,
      "hit": false,
      "t": 163783.62000000008,
      "d": 67.56750000000466,
      "v": 90
    },
    {
      "midi": 53,
      "hit": false,
      "t": 163783.62000000008,
      "d": 76.01343749999069,
      "v": 71
    },
    {
      "midi": 58,
      "hit": false,
      "t": 163783.62000000008,
      "d": 90.79382812499534,
      "v": 78
    },
    {
      "midi": 62,
      "hit": false,
      "t": 163783.62000000008,
      "d": 103.46273437500349,
      "v": 83
    },
    {
      "midi": 55,
      "hit": false,
      "t": 163783.6200000003,
      "d": 120.35460937500466,
      "v": 108
    },
    {
      "midi": 60,
      "hit": false,
      "t": 163783.6200000003,
      "d": 137.24648437500582,
      "v": 114
    },
    {
      "midi": 53,
      "hit": false,
      "t": 164189.02500000008,
      "d": 327.28007812501164,
      "v": 79
    },
    {
      "midi": 46,
      "hit": false,
      "t": 164189.02500000008,
      "d": 475.083984375,
      "v": 102
    },
    {
      "midi": 58,
      "hit": false,
      "t": 164189.02500000008,
      "d": 878.3775000000023,
      "v": 80
    },
    {
      "midi": 62,
      "hit": false,
      "t": 164189.02500000008,
      "d": 880.4889843749988,
      "v": 60
    },
    {
      "midi": 65,
      "hit": false,
      "t": 164189.02500000008,
      "d": 907.9382812500116,
      "v": 94
    },
    {
      "midi": 53,
      "hit": false,
      "t": 164189.02500000029,
      "d": 2804.0512499999895,
      "v": 114
    },
    {
      "midi": 58,
      "hit": false,
      "t": 164189.02500000029,
      "d": 2820.9431249999907,
      "v": 114
    },
    {
      "midi": 53,
      "hit": false,
      "t": 164594.43000000008,
      "d": 238.5977343750128,
      "v": 53
    },
    {
      "midi": 46,
      "hit": false,
      "t": 164695.7812500001,
      "d": 576.435234375007,
      "v": 67
    },
    {
      "midi": 53,
      "hit": false,
      "t": 164999.83500000008,
      "d": 154.13835937500698,
      "v": 79
    },
    {
      "midi": 58,
      "hit": false,
      "t": 165202.5375000001,
      "d": 481.4184375000186,
      "v": 72
    },
    {
      "midi": 65,
      "hit": false,
      "t": 165202.5375000001,
      "d": 671.4520312500536,
      "v": 64
    },
    {
      "midi": 62,
      "hit": false,
      "t": 165202.5375000001,
      "d": 692.5668750000477,
      "v": 81
    },
    {
      "midi": 46,
      "hit": false,
      "t": 165405.2400000001,
      "d": 1273.2250781250477,
      "v": 86
    },
    {
      "midi": 53,
      "hit": false,
      "t": 165607.94250000012,
      "d": 192.14507812500233,
      "v": 73
    },
    {
      "midi": 58,
      "hit": false,
      "t": 165810.64500000014,
      "d": 84.45937500000582,
      "v": 72
    },
    {
      "midi": 60,
      "hit": false,
      "t": 166013.34750000015,
      "d": 84.45937500000582,
      "v": 83
    },
    {
      "midi": 65,
      "hit": false,
      "t": 166013.34750000015,
      "d": 86.57085937500233,
      "v": 83
    },
    {
      "midi": 60,
      "hit": false,
      "t": 166216.05000000016,
      "d": 84.45937500000582,
      "v": 83
    },
    {
      "midi": 65,
      "hit": false,
      "t": 166216.05000000016,
      "d": 715.7932031249802,
      "v": 73
    },
    {
      "midi": 62,
      "hit": false,
      "t": 166317.40125000017,
      "d": 614.4419531249732,
      "v": 73
    },
    {
      "midi": 58,
      "hit": false,
      "t": 166621.45500000016,
      "d": 287.1618749999907,
      "v": 96
    },
    {
      "midi": 46,
      "hit": false,
      "t": 166824.15750000015,
      "d": 63.34453125001164,
      "v": 76
    },
    {
      "midi": 55,
      "hit": false,
      "t": 167026.86000000013,
      "d": 350.5064062500023,
      "v": 73
    },
    {
      "midi": 58,
      "hit": false,
      "t": 167026.86000000013,
      "d": 380.06718750001164,
      "v": 102
    },
    {
      "midi": 63,
      "hit": false,
      "t": 167026.86000000013,
      "d": 418.073906250007,
      "v": 102
    },
    {
      "midi": 39,
      "hit": false,
      "t": 167026.86000000013,
      "d": 1545.6065625000338,
      "v": 96
    },
    {
      "midi": 51,
      "hit": false,
      "t": 167432.26500000013,
      "d": 779.1377343750501,
      "v": 93
    },
    {
      "midi": 51,
      "hit": false,
      "t": 167432.26500000028,
      "d": 194.25656249999884,
      "v": 110
    },
    {
      "midi": 58,
      "hit": false,
      "t": 167634.96750000014,
      "d": 101.35125000000698,
      "v": 63
    },
    {
      "midi": 46,
      "hit": false,
      "t": 167634.96750000026,
      "d": 242.82070312500582,
      "v": 90
    },
    {
      "midi": 58,
      "hit": false,
      "t": 167837.67000000016,
      "d": 137.24648437500582,
      "v": 90
    },
    {
      "midi": 63,
      "hit": false,
      "t": 167837.67000000016,
      "d": 171.03023437500815,
      "v": 90
    },
    {
      "midi": 48,
      "hit": false,
      "t": 167837.67000000027,
      "d": 198.47953124999185,
      "v": 78
    },
    {
      "midi": 58,
      "hit": false,
      "t": 168040.37250000017,
      "d": 97.12828125001397,
      "v": 81
    },
    {
      "midi": 65,
      "hit": false,
      "t": 168040.37250000017,
      "d": 175.25320312500116,
      "v": 81
    },
    {
      "midi": 51,
      "hit": false,
      "t": 168040.37250000026,
      "d": 175.25320312500116,
      "v": 87
    },
    {
      "midi": 63,
      "hit": false,
      "t": 168243.0750000002,
      "d": 152.02687500001048,
      "v": 76
    },
    {
      "midi": 67,
      "hit": false,
      "t": 168243.0750000002,
      "d": 177.36468749999767,
      "v": 81
    },
    {
      "midi": 58,
      "hit": false,
      "t": 168243.0750000002,
      "d": 293.4963281249802,
      "v": 93
    },
    {
      "midi": 53,
      "hit": false,
      "t": 168243.07500000027,
      "d": 232.26328125002328,
      "v": 81
    },
    {
      "midi": 51,
      "hit": false,
      "t": 168445.77750000017,
      "d": 101.35125000000698,
      "v": 76
    },
    {
      "midi": 55,
      "hit": false,
      "t": 168445.7775000003,
      "d": 143.58093749999534,
      "v": 97
    },
    {
      "midi": 44,
      "hit": false,
      "t": 168648.48000000016,
      "d": 489.86437500000466,
      "v": 86
    },
    {
      "midi": 68,
      "hit": false,
      "t": 168648.48000000016,
      "d": 513.0907031249953,
      "v": 83
    },
    {
      "midi": 60,
      "hit": false,
      "t": 168648.48000000016,
      "d": 565.8778124999953,
      "v": 67
    },
    {
      "midi": 63,
      "hit": false,
      "t": 168648.48000000016,
      "d": 591.2156249999825,
      "v": 74
    },
    {
      "midi": 56,
      "hit": false,
      "t": 168648.48000000027,
      "d": 198.47953124999185,
      "v": 96
    },
    {
      "midi": 55,
      "hit": false,
      "t": 168851.18250000026,
      "d": 177.36468749999767,
      "v": 102
    },
    {
      "midi": 56,
      "hit": false,
      "t": 169053.88500000015,
      "d": 232.26328124999418,
      "v": 78
    },
    {
      "midi": 53,
      "hit": false,
      "t": 169053.88500000024,
      "d": 401.1820312500058,
      "v": 114
    },
    {
      "midi": 44,
      "hit": false,
      "t": 169256.58750000014,
      "d": 709.4587500000198,
      "v": 89
    },
    {
      "midi": 56,
      "hit": false,
      "t": 169459.29000000015,
      "d": 152.02687500001048,
      "v": 81
    },
    {
      "midi": 60,
      "hit": false,
      "t": 169459.29000000015,
      "d": 390.6246093749942,
      "v": 73
    },
    {
      "midi": 63,
      "hit": false,
      "t": 169459.29000000015,
      "d": 580.658203125,
      "v": 65
    },
    {
      "midi": 51,
      "hit": false,
      "t": 169459.29000000024,
      "d": 198.47953124999185,
      "v": 104
    },
    {
      "midi": 55,
      "hit": false,
      "t": 169661.99250000017,
      "d": 92.90531249999185,
      "v": 67
    },
    {
      "midi": 53,
      "hit": false,
      "t": 169661.99250000023,
      "d": 242.82070312500582,
      "v": 84
    },
    {
      "midi": 60,
      "hit": false,
      "t": 169864.69500000015,
      "d": 194.25656249999884,
      "v": 63
    },
    {
      "midi": 56,
      "hit": false,
      "t": 169864.69500000015,
      "d": 255.48960937498487,
      "v": 90
    },
    {
      "midi": 55,
      "hit": false,
      "t": 169864.69500000024,
      "d": 228.04031249997206,
      "v": 88
    },
    {
      "midi": 44,
      "hit": false,
      "t": 170067.39750000014,
      "d": 80.2364062500128,
      "v": 56
    },
    {
      "midi": 58,
      "hit": false,
      "t": 170067.39750000022,
      "d": 120.35460937497555,
      "v": 101
    },
    {
      "midi": 46,
      "hit": false,
      "t": 170270.10000000015,
      "d": 69.67898437500116,
      "v": 102
    },
    {
      "midi": 53,
      "hit": false,
      "t": 170270.10000000015,
      "d": 73.90195312499418,
      "v": 64
    },
    {
      "midi": 58,
      "hit": false,
      "t": 170270.10000000015,
      "d": 114.02015624998603,
      "v": 96
    },
    {
      "midi": 51,
      "hit": false,
      "t": 170270.1000000002,
      "d": 152.02687500001048,
      "v": 107
    },
    {
      "midi": 56,
      "hit": false,
      "t": 170270.1000000002,
      "d": 152.02687500001048,
      "v": 101
    },
    {
      "midi": 44,
      "hit": false,
      "t": 170270.1000000002,
      "d": 171.03023437500815,
      "v": 107
    },
    {
      "midi": 53,
      "hit": false,
      "t": 170675.50500000015,
      "d": 304.05374999999185,
      "v": 83
    },
    {
      "midi": 46,
      "hit": false,
      "t": 170675.50500000015,
      "d": 502.5332812500128,
      "v": 102
    },
    {
      "midi": 65,
      "hit": false,
      "t": 170675.50500000015,
      "d": 912.1612500000338,
      "v": 60
    },
    {
      "midi": 58,
      "hit": false,
      "t": 170675.50500000015,
      "d": 920.6071875000198,
      "v": 90
    },
    {
      "midi": 62,
      "hit": false,
      "t": 170675.50500000015,
      "d": 920.6071875000198,
      "v": 89
    },
    {
      "midi": 46,
      "hit": false,
      "t": 170675.5050000002,
      "d": 388.5131249999977,
      "v": 104
    },
    {
      "midi": 53,
      "hit": false,
      "t": 170675.5050000002,
      "d": 508.8677343750023,
      "v": 95
    },
    {
      "midi": 58,
      "hit": false,
      "t": 170675.5050000002,
      "d": 1216.2149999999965,
      "v": 107
    },
    {
      "midi": 53,
      "hit": false,
      "t": 171080.91000000015,
      "d": 255.48960937501397,
      "v": 60
    },
    {
      "midi": 46,
      "hit": false,
      "t": 171080.9100000002,
      "d": 276.60445312500815,
      "v": 38
    },
    {
      "midi": 46,
      "hit": false,
      "t": 171283.61250000016,
      "d": 1083.191484375042,
      "v": 72
    },
    {
      "midi": 53,
      "hit": false,
      "t": 171283.61250000022,
      "d": 276.60445312497905,
      "v": 70
    },
    {
      "midi": 53,
      "hit": false,
      "t": 171486.31500000018,
      "d": 90.79382812499534,
      "v": 67
    },
    {
      "midi": 46,
      "hit": false,
      "t": 171486.3150000002,
      "d": 266.0470312499965,
      "v": 110
    },
    {
      "midi": 60,
      "hit": false,
      "t": 171689.01750000016,
      "d": 202.70250000001397,
      "v": 90
    },
    {
      "midi": 65,
      "hit": false,
      "t": 171689.01750000016,
      "d": 1070.5225781250629,
      "v": 81
    },
    {
      "midi": 53,
      "hit": false,
      "t": 171689.0175000002,
      "d": 259.712578125007,
      "v": 85
    },
    {
      "midi": 62,
      "hit": false,
      "t": 171891.72000000018,
      "d": 901.6038281250512,
      "v": 72
    },
    {
      "midi": 46,
      "hit": false,
      "t": 171891.7200000002,
      "d": 428.6313281249895,
      "v": 114
    },
    {
      "midi": 53,
      "hit": false,
      "t": 172094.4225000002,
      "d": 472.9725000000326,
      "v": 73
    },
    {
      "midi": 53,
      "hit": false,
      "t": 172094.4225000002,
      "d": 120.35460937500466,
      "v": 114
    },
    {
      "midi": 58,
      "hit": false,
      "t": 172094.4225000002,
      "d": 175.25320312500116,
      "v": 114
    },
    {
      "midi": 53,
      "hit": false,
      "t": 172297.1250000002,
      "d": 67.56750000000466,
      "v": 65
    },
    {
      "midi": 46,
      "hit": false,
      "t": 172499.82750000022,
      "d": 726.350625000021,
      "v": 99
    },
    {
      "midi": 46,
      "hit": false,
      "t": 172499.82750000022,
      "d": 295.6078125000058,
      "v": 114
    },
    {
      "midi": 53,
      "hit": false,
      "t": 172702.53000000023,
      "d": 323.0571093749895,
      "v": 81
    },
    {
      "midi": 53,
      "hit": false,
      "t": 172702.53000000023,
      "d": 361.06382812498487,
      "v": 114
    },
    {
      "midi": 58,
      "hit": false,
      "t": 172702.53000000023,
      "d": 667.2290624999732,
      "v": 114
    },
    {
      "midi": 65,
      "hit": false,
      "t": 172905.23250000022,
      "d": 608.1075000000419,
      "v": 89
    },
    {
      "midi": 46,
      "hit": false,
      "t": 172905.23250000022,
      "d": 327.28007812501164,
      "v": 90
    },
    {
      "midi": 53,
      "hit": false,
      "t": 173107.93500000023,
      "d": 405.40500000002794,
      "v": 78
    },
    {
      "midi": 53,
      "hit": false,
      "t": 173107.93500000023,
      "d": 253.37812499998836,
      "v": 87
    },
    {
      "midi": 46,
      "hit": false,
      "t": 173310.63750000022,
      "d": 80.2364062499837,
      "v": 80
    },
    {
      "midi": 46,
      "hit": false,
      "t": 173310.63750000024,
      "d": 192.14507812500233,
      "v": 76
    },
    {
      "midi": 58,
      "hit": false,
      "t": 173513.34000000026,
      "d": 8.44593749998603,
      "v": 102
    },
    {
      "midi": 55,
      "hit": false,
      "t": 173513.34000000026,
      "d": 498.3103124999907,
      "v": 64
    },
    {
      "midi": 51,
      "hit": false,
      "t": 173513.34000000026,
      "d": 519.4251562499849,
      "v": 93
    },
    {
      "midi": 63,
      "hit": false,
      "t": 173513.34000000026,
      "d": 540.539999999979,
      "v": 102
    },
    {
      "midi": 39,
      "hit": false,
      "t": 173513.34000000026,
      "d": 1359.7959374999919,
      "v": 96
    },
    {
      "midi": 51,
      "hit": false,
      "t": 173918.7450000002,
      "d": 192.14507812500233,
      "v": 107
    },
    {
      "midi": 46,
      "hit": false,
      "t": 174121.4475000002,
      "d": 236.4862500000163,
      "v": 101
    },
    {
      "midi": 51,
      "hit": false,
      "t": 174121.44750000024,
      "d": 667.2290625000314,
      "v": 72
    },
    {
      "midi": 48,
      "hit": false,
      "t": 174324.15000000023,
      "d": 185.8106250000128,
      "v": 84
    },
    {
      "midi": 63,
      "hit": false,
      "t": 174324.15000000026,
      "d": 272.38148437501513,
      "v": 83
    },
    {
      "midi": 58,
      "hit": false,
      "t": 174324.15000000026,
      "d": 316.7226562500291,
      "v": 89
    },
    {
      "midi": 51,
      "hit": false,
      "t": 174526.85250000024,
      "d": 181.5876562499907,
      "v": 89
    },
    {
      "midi": 65,
      "hit": false,
      "t": 174526.85250000027,
      "d": 185.8106250000128,
      "v": 73
    },
    {
      "midi": 53,
      "hit": false,
      "t": 174729.55500000023,
      "d": 215.37140625002212,
      "v": 81
    },
    {
      "midi": 58,
      "hit": false,
      "t": 174729.55500000028,
      "d": 238.5977343749546,
      "v": 81
    },
    {
      "midi": 63,
      "hit": false,
      "t": 174729.55500000028,
      "d": 266.0470312499674,
      "v": 70
    },
    {
      "midi": 67,
      "hit": false,
      "t": 174729.55500000028,
      "d": 299.83078124996973,
      "v": 85
    },
    {
      "midi": 51,
      "hit": false,
      "t": 174932.25750000024,
      "d": 63.34453125001164,
      "v": 76
    },
    {
      "midi": 55,
      "hit": false,
      "t": 174932.25750000024,
      "d": 154.13835937500698,
      "v": 97
    },
    {
      "midi": 44,
      "hit": false,
      "t": 175134.96000000025,
      "d": 458.19210937499884,
      "v": 89
    },
    {
      "midi": 63,
      "hit": false,
      "t": 175134.96000000025,
      "d": 475.083984375,
      "v": 99
    },
    {
      "midi": 68,
      "hit": false,
      "t": 175134.96000000025,
      "d": 481.4184374999895,
      "v": 86
    },
    {
      "midi": 60,
      "hit": false,
      "t": 175134.96000000025,
      "d": 485.64140624998254,
      "v": 70
    },
    {
      "midi": 56,
      "hit": false,
      "t": 175134.96000000025,
      "d": 215.37140625002212,
      "v": 96
    },
    {
      "midi": 55,
      "hit": false,
      "t": 175337.66250000027,
      "d": 185.8106250000128,
      "v": 109
    },
    {
      "midi": 56,
      "hit": false,
      "t": 175540.36500000025,
      "d": 137.24648437497672,
      "v": 72
    },
    {
      "midi": 53,
      "hit": false,
      "t": 175540.36500000028,
      "d": 418.0739062500361,
      "v": 114
    },
    {
      "midi": 44,
      "hit": false,
      "t": 175743.06750000024,
      "d": 675.6749999999884,
      "v": 70
    },
    {
      "midi": 56,
      "hit": false,
      "t": 175945.77000000025,
      "d": 141.46945312499884,
      "v": 78
    },
    {
      "midi": 63,
      "hit": false,
      "t": 175945.77000000025,
      "d": 624.9993749999849,
      "v": 83
    },
    {
      "midi": 51,
      "hit": false,
      "t": 175945.7700000003,
      "d": 158.361328125,
      "v": 114
    },
    {
      "midi": 55,
      "hit": false,
      "t": 176148.47250000024,
      "d": 114.02015624998603,
      "v": 76
    },
    {
      "midi": 53,
      "hit": false,
      "t": 176148.47250000032,
      "d": 209.0369531250035,
      "v": 79
    },
    {
      "midi": 56,
      "hit": false,
      "t": 176351.17500000022,
      "d": 242.82070312500582,
      "v": 89
    },
    {
      "midi": 55,
      "hit": false,
      "t": 176351.17500000034,
      "d": 152.02687499998137,
      "v": 95
    },
    {
      "midi": 44,
      "hit": false,
      "t": 176553.87750000024,
      "d": 57.010078124993015,
      "v": 56
    },
    {
      "midi": 58,
      "hit": false,
      "t": 176553.87750000032,
      "d": 168.91875000001164,
      "v": 114
    },
    {
      "midi": 46,
      "hit": false,
      "t": 176756.58000000022,
      "d": 67.56750000000466,
      "v": 90
    },
    {
      "midi": 53,
      "hit": false,
      "t": 176756.58000000022,
      "d": 76.01343749999069,
      "v": 71
    },
    {
      "midi": 58,
      "hit": false,
      "t": 176756.58000000022,
      "d": 90.79382812499534,
      "v": 78
    },
    {
      "midi": 62,
      "hit": false,
      "t": 176756.58000000022,
      "d": 103.46273437500349,
      "v": 83
    },
    {
      "midi": 55,
      "hit": false,
      "t": 176756.58000000034,
      "d": 120.35460937500466,
      "v": 108
    },
    {
      "midi": 60,
      "hit": false,
      "t": 176756.58000000034,
      "d": 137.24648437500582,
      "v": 114
    },
    {
      "midi": 53,
      "hit": false,
      "t": 177161.98500000022,
      "d": 327.28007812501164,
      "v": 79
    },
    {
      "midi": 46,
      "hit": false,
      "t": 177161.98500000022,
      "d": 475.083984375,
      "v": 102
    },
    {
      "midi": 58,
      "hit": false,
      "t": 177161.98500000022,
      "d": 878.3775000000023,
      "v": 80
    },
    {
      "midi": 62,
      "hit": false,
      "t": 177161.98500000022,
      "d": 880.4889843749988,
      "v": 60
    },
    {
      "midi": 65,
      "hit": false,
      "t": 177161.98500000022,
      "d": 907.9382812500116,
      "v": 94
    },
    {
      "midi": 53,
      "hit": false,
      "t": 177161.98500000034,
      "d": 2804.0512499999895,
      "v": 114
    },
    {
      "midi": 58,
      "hit": false,
      "t": 177161.98500000034,
      "d": 2820.9431249999907,
      "v": 114
    },
    {
      "midi": 53,
      "hit": false,
      "t": 177567.39000000022,
      "d": 238.5977343750128,
      "v": 53
    },
    {
      "midi": 46,
      "hit": false,
      "t": 177668.74125000022,
      "d": 576.435234375007,
      "v": 67
    },
    {
      "midi": 53,
      "hit": false,
      "t": 177972.79500000022,
      "d": 154.13835937500698,
      "v": 79
    },
    {
      "midi": 58,
      "hit": false,
      "t": 178175.49750000023,
      "d": 481.4184375000186,
      "v": 72
    },
    {
      "midi": 65,
      "hit": false,
      "t": 178175.49750000023,
      "d": 671.4520312500536,
      "v": 64
    },
    {
      "midi": 62,
      "hit": false,
      "t": 178175.49750000023,
      "d": 692.5668750000477,
      "v": 81
    },
    {
      "midi": 46,
      "hit": false,
      "t": 178378.20000000024,
      "d": 1273.2250781250477,
      "v": 86
    },
    {
      "midi": 53,
      "hit": false,
      "t": 178580.90250000026,
      "d": 192.14507812500233,
      "v": 73
    },
    {
      "midi": 58,
      "hit": false,
      "t": 178783.60500000027,
      "d": 84.45937500000582,
      "v": 72
    },
    {
      "midi": 60,
      "hit": false,
      "t": 178986.3075000003,
      "d": 84.45937500000582,
      "v": 83
    },
    {
      "midi": 65,
      "hit": false,
      "t": 178986.3075000003,
      "d": 86.57085937500233,
      "v": 83
    },
    {
      "midi": 60,
      "hit": false,
      "t": 179189.0100000003,
      "d": 84.45937500000582,
      "v": 83
    },
    {
      "midi": 65,
      "hit": false,
      "t": 179189.0100000003,
      "d": 715.7932031249802,
      "v": 73
    },
    {
      "midi": 62,
      "hit": false,
      "t": 179290.3612500003,
      "d": 614.4419531249732,
      "v": 73
    },
    {
      "midi": 58,
      "hit": false,
      "t": 179594.4150000003,
      "d": 287.1618749999907,
      "v": 96
    },
    {
      "midi": 46,
      "hit": false,
      "t": 179797.11750000028,
      "d": 63.34453125001164,
      "v": 76
    },
    {
      "midi": 55,
      "hit": false,
      "t": 179999.82000000027,
      "d": 350.5064062500023,
      "v": 73
    },
    {
      "midi": 58,
      "hit": false,
      "t": 179999.82000000027,
      "d": 380.06718750001164,
      "v": 102
    },
    {
      "midi": 63,
      "hit": false,
      "t": 179999.82000000027,
      "d": 418.073906250007,
      "v": 102
    },
    {
      "midi": 39,
      "hit": false,
      "t": 179999.82000000027,
      "d": 1545.6065625000338,
      "v": 96
    },
    {
      "midi": 51,
      "hit": false,
      "t": 180405.22500000027,
      "d": 779.1377343750501,
      "v": 93
    },
    {
      "midi": 51,
      "hit": false,
      "t": 180405.22500000033,
      "d": 194.25656249999884,
      "v": 110
    },
    {
      "midi": 58,
      "hit": false,
      "t": 180607.92750000028,
      "d": 101.35125000000698,
      "v": 63
    },
    {
      "midi": 46,
      "hit": false,
      "t": 180607.9275000003,
      "d": 242.82070312500582,
      "v": 90
    },
    {
      "midi": 58,
      "hit": false,
      "t": 180810.6300000003,
      "d": 137.24648437500582,
      "v": 90
    },
    {
      "midi": 63,
      "hit": false,
      "t": 180810.6300000003,
      "d": 171.03023437500815,
      "v": 90
    },
    {
      "midi": 48,
      "hit": false,
      "t": 180810.63000000032,
      "d": 198.47953124999185,
      "v": 78
    },
    {
      "midi": 58,
      "hit": false,
      "t": 181013.3325000003,
      "d": 97.12828125001397,
      "v": 81
    },
    {
      "midi": 65,
      "hit": false,
      "t": 181013.3325000003,
      "d": 175.25320312500116,
      "v": 81
    },
    {
      "midi": 51,
      "hit": false,
      "t": 181013.3325000003,
      "d": 175.25320312500116,
      "v": 87
    },
    {
      "midi": 63,
      "hit": false,
      "t": 181216.03500000032,
      "d": 152.02687500001048,
      "v": 76
    },
    {
      "midi": 67,
      "hit": false,
      "t": 181216.03500000032,
      "d": 177.36468749999767,
      "v": 81
    },
    {
      "midi": 58,
      "hit": false,
      "t": 181216.03500000032,
      "d": 293.4963281249802,
      "v": 93
    },
    {
      "midi": 53,
      "hit": false,
      "t": 181216.03500000032,
      "d": 232.26328125002328,
      "v": 81
    },
    {
      "midi": 51,
      "hit": false,
      "t": 181418.7375000003,
      "d": 101.35125000000698,
      "v": 76
    },
    {
      "midi": 55,
      "hit": false,
      "t": 181418.73750000034,
      "d": 143.58093749999534,
      "v": 97
    },
    {
      "midi": 44,
      "hit": false,
      "t": 181621.4400000003,
      "d": 489.86437500000466,
      "v": 86
    },
    {
      "midi": 68,
      "hit": false,
      "t": 181621.4400000003,
      "d": 513.0907031249953,
      "v": 83
    },
    {
      "midi": 60,
      "hit": false,
      "t": 181621.4400000003,
      "d": 565.8778124999953,
      "v": 67
    },
    {
      "midi": 63,
      "hit": false,
      "t": 181621.4400000003,
      "d": 591.2156249999825,
      "v": 74
    },
    {
      "midi": 56,
      "hit": false,
      "t": 181621.44000000032,
      "d": 198.47953124999185,
      "v": 96
    },
    {
      "midi": 55,
      "hit": false,
      "t": 181824.1425000003,
      "d": 177.36468749999767,
      "v": 102
    },
    {
      "midi": 56,
      "hit": false,
      "t": 182026.8450000003,
      "d": 232.26328124999418,
      "v": 78
    },
    {
      "midi": 53,
      "hit": false,
      "t": 182026.8450000003,
      "d": 401.1820312500058,
      "v": 114
    },
    {
      "midi": 44,
      "hit": false,
      "t": 182229.54750000028,
      "d": 709.4587500000198,
      "v": 89
    },
    {
      "midi": 56,
      "hit": false,
      "t": 182432.2500000003,
      "d": 152.02687500001048,
      "v": 81
    },
    {
      "midi": 60,
      "hit": false,
      "t": 182432.2500000003,
      "d": 390.6246093749942,
      "v": 73
    },
    {
      "midi": 63,
      "hit": false,
      "t": 182432.2500000003,
      "d": 580.658203125,
      "v": 65
    },
    {
      "midi": 51,
      "hit": false,
      "t": 182432.2500000003,
      "d": 198.47953124999185,
      "v": 104
    },
    {
      "midi": 53,
      "hit": false,
      "t": 182634.95250000028,
      "d": 242.82070312500582,
      "v": 84
    },
    {
      "midi": 55,
      "hit": false,
      "t": 182634.9525000003,
      "d": 92.90531249999185,
      "v": 67
    },
    {
      "midi": 60,
      "hit": false,
      "t": 182837.6550000003,
      "d": 194.25656249999884,
      "v": 63
    },
    {
      "midi": 56,
      "hit": false,
      "t": 182837.6550000003,
      "d": 255.48960937498487,
      "v": 90
    },
    {
      "midi": 55,
      "hit": false,
      "t": 182837.6550000003,
      "d": 228.04031249997206,
      "v": 88
    },
    {
      "midi": 44,
      "hit": false,
      "t": 183040.35750000027,
      "d": 80.2364062500128,
      "v": 56
    },
    {
      "midi": 58,
      "hit": false,
      "t": 183040.35750000027,
      "d": 120.35460937497555,
      "v": 101
    },
    {
      "midi": 46,
      "hit": false,
      "t": 183243.0600000003,
      "d": 69.67898437500116,
      "v": 102
    },
    {
      "midi": 53,
      "hit": false,
      "t": 183243.0600000003,
      "d": 73.90195312499418,
      "v": 64
    },
    {
      "midi": 58,
      "hit": false,
      "t": 183243.0600000003,
      "d": 114.02015624998603,
      "v": 96
    },
    {
      "midi": 51,
      "hit": false,
      "t": 183245.17148437526,
      "d": 141.46945312496973,
      "v": 110
    },
    {
      "midi": 56,
      "hit": false,
      "t": 183249.39445312525,
      "d": 145.69242187496275,
      "v": 110
    },
    {
      "midi": 44,
      "hit": false,
      "t": 183255.72890625024,
      "d": 152.02687499998137,
      "v": 110
    },
    {
      "midi": 53,
      "hit": false,
      "t": 183648.4650000003,
      "d": 304.05374999999185,
      "v": 83
    },
    {
      "midi": 46,
      "hit": false,
      "t": 183648.4650000003,
      "d": 502.5332812500128,
      "v": 102
    },
    {
      "midi": 65,
      "hit": false,
      "t": 183648.4650000003,
      "d": 912.1612500000338,
      "v": 60
    },
    {
      "midi": 58,
      "hit": false,
      "t": 183648.4650000003,
      "d": 920.6071875000198,
      "v": 90
    },
    {
      "midi": 62,
      "hit": false,
      "t": 183648.4650000003,
      "d": 920.6071875000198,
      "v": 89
    },
    {
      "midi": 46,
      "hit": false,
      "t": 183650.57648437523,
      "d": 1112.752265624964,
      "v": 107
    },
    {
      "midi": 58,
      "hit": false,
      "t": 183654.79945312522,
      "d": 924.8301562499837,
      "v": 114
    },
    {
      "midi": 53,
      "hit": false,
      "t": 183656.91093750022,
      "d": 929.0531249999767,
      "v": 102
    },
    {
      "midi": 53,
      "hit": false,
      "t": 184053.8700000003,
      "d": 255.48960937501397,
      "v": 60
    },
    {
      "midi": 46,
      "hit": false,
      "t": 184256.5725000003,
      "d": 1083.191484375042,
      "v": 72
    },
    {
      "midi": 53,
      "hit": false,
      "t": 184459.2750000003,
      "d": 90.79382812499534,
      "v": 67
    },
    {
      "midi": 53,
      "hit": false,
      "t": 184661.97750000018,
      "d": 137.24648437500582,
      "v": 99
    },
    {
      "midi": 60,
      "hit": false,
      "t": 184661.9775000003,
      "d": 202.70250000001397,
      "v": 90
    },
    {
      "midi": 65,
      "hit": false,
      "t": 184661.9775000003,
      "d": 1070.5225781250629,
      "v": 81
    },
    {
      "midi": 58,
      "hit": false,
      "t": 184664.08898437518,
      "d": 124.57757812499767,
      "v": 114
    },
    {
      "midi": 62,
      "hit": false,
      "t": 184864.6800000003,
      "d": 901.6038281250512,
      "v": 72
    },
    {
      "midi": 46,
      "hit": false,
      "t": 184877.34890625018,
      "d": 314.6111718750035,
      "v": 93
    },
    {
      "midi": 53,
      "hit": false,
      "t": 185067.38250000018,
      "d": 282.9389062499977,
      "v": 102
    },
    {
      "midi": 53,
      "hit": false,
      "t": 185067.38250000033,
      "d": 472.9725000000326,
      "v": 73
    },
    {
      "midi": 58,
      "hit": false,
      "t": 185069.49398437518,
      "d": 538.4285156250116,
      "v": 114
    },
    {
      "midi": 58,
      "hit": false,
      "t": 185270.08500000034,
      "d": 1224.6609375000407,
      "v": 102
    },
    {
      "midi": 53,
      "hit": false,
      "t": 185451.6726562502,
      "d": 122.46609375000116,
      "v": 85
    },
    {
      "midi": 46,
      "hit": false,
      "t": 185472.78750000036,
      "d": 726.350625000021,
      "v": 99
    },
    {
      "midi": 53,
      "hit": false,
      "t": 185675.49000000037,
      "d": 323.0571093749895,
      "v": 81
    },
    {
      "midi": 55,
      "hit": false,
      "t": 185677.6014843752,
      "d": 192.14507812500233,
      "v": 102
    },
    {
      "midi": 58,
      "hit": false,
      "t": 185867.6350781252,
      "d": 187.9221093750093,
      "v": 99
    },
    {
      "midi": 65,
      "hit": false,
      "t": 185878.19250000035,
      "d": 608.1075000000419,
      "v": 89
    },
    {
      "midi": 53,
      "hit": false,
      "t": 186076.6720312502,
      "d": 415.9624218750105,
      "v": 114
    },
    {
      "midi": 53,
      "hit": false,
      "t": 186080.89500000037,
      "d": 405.40500000002794,
      "v": 78
    },
    {
      "midi": 46,
      "hit": false,
      "t": 186283.59750000038,
      "d": 192.14507812500233,
      "v": 76
    },
    {
      "midi": 51,
      "hit": false,
      "t": 186498.9689062502,
      "d": 4875.417421875027,
      "v": 114
    },
    {
      "midi": 46,
      "hit": false,
      "t": 186498.9689062502,
      "d": 4911.312656250026,
      "v": 110
    },
    {
      "midi": 39,
      "hit": false,
      "t": 186505.3033593752,
      "d": 4913.424140625022,
      "v": 114
    },
    {
      "midi": 55,
      "hit": false,
      "t": 186505.3033593754,
      "d": 4898.643749999988,
      "v": 85
    },
    {
      "midi": 39,
      "hit": false,
      "t": 186505.3033593754,
      "d": 4902.866718749981,
      "v": 102
    },
    {
      "midi": 51,
      "hit": false,
      "t": 186509.5263281254,
      "d": 4894.420781249995,
      "v": 102
    },
    {
      "midi": 63,
      "hit": false,
      "t": 186509.5263281254,
      "d": 4909.201171875,
      "v": 102
    },
    {
      "midi": 58,
      "hit": false,
      "t": 186511.63781250038,
      "d": 4907.0896875000035,
      "v": 68
    }
  ]
}