{
  "jsonPath": "Animes/Record Of Lodoss War MIDI Collection/stones.json",
  "path": "Animes\\Record Of Lodoss War MIDI Collection\\Stones.mid",
  "name": "Stones",
  "difficulty": "Advanced",
  "bpm": 120,
  "notes": [
    {
      "midi": 69,
      "hit": false,
      "t": 83.33333333333333,
      "d": 483.3333333333333,
      "v": 79
    },
    {
      "midi": 69,
      "hit": false,
      "t": 145.83333333333334,
      "d": 483.33333333333337,
      "v": 69
    },
    {
      "midi": 71,
      "hit": false,
      "t": 333.3333333333333,
      "d": 483.3333333333333,
      "v": 79
    },
    {
      "midi": 71,
      "hit": false,
      "t": 395.83333333333337,
      "d": 483.33333333333337,
      "v": 69
    },
    {
      "midi": 72,
      "hit": false,
      "t": 583.3333333333333,
      "d": 483.33333333333326,
      "v": 79
    },
    {
      "midi": 72,
      "hit": false,
      "t": 645.8333333333334,
      "d": 483.33333333333337,
      "v": 69
    },
    {
      "midi": 64,
      "hit": false,
      "t": 833.3333333333333,
      "d": 483.33333333333326,
      "v": 79
    },
    {
      "midi": 64,
      "hit": false,
      "t": 895.8333333333334,
      "d": 483.33333333333337,
      "v": 69
    },
    {
      "midi": 72,
      "hit": false,
      "t": 1083.3333333333333,
      "d": 483.33333333333326,
      "v": 79
    },
    {
      "midi": 72,
      "hit": false,
      "t": 1145.8333333333335,
      "d": 483.33333333333326,
      "v": 69
    },
    {
      "midi": 64,
      "hit": false,
      "t": 1333.3333333333333,
      "d": 483.33333333333326,
      "v": 79
    },
    {
      "midi": 64,
      "hit": false,
      "t": 1395.8333333333335,
      "d": 483.33333333333326,
      "v": 69
    },
    {
      "midi": 72,
      "hit": false,
      "t": 1583.3333333333333,
      "d": 483.33333333333326,
      "v": 79
    },
    {
      "midi": 72,
      "hit": false,
      "t": 1645.8333333333335,
      "d": 483.3333333333335,
      "v": 69
    },
    {
      "midi": 64,
      "hit": false,
      "t": 1833.3333333333333,
      "d": 483.33333333333326,
      "v": 79
    },
    {
      "midi": 64,
      "hit": false,
      "t": 1895.8333333333335,
      "d": 483.3333333333335,
      "v": 69
    },
    {
      "midi": 72,
      "hit": false,
      "t": 2083.333333333333,
      "d": 483.3333333333335,
      "v": 79
    },
    {
      "midi": 72,
      "hit": false,
      "t": 2145.8333333333335,
      "d": 483.3333333333335,
      "v": 69
    },
    {
      "midi": 64,
      "hit": false,
      "t": 2333.333333333333,
      "d": 483.3333333333335,
      "v": 79
    },
    {
      "midi": 64,
      "hit": false,
      "t": 2395.8333333333335,
      "d": 483.3333333333335,
      "v": 69
    },
    {
      "midi": 74,
      "hit": false,
      "t": 2583.333333333333,
      "d": 483.3333333333335,
      "v": 79
    },
    {
      "midi": 74,
      "hit": false,
      "t": 2645.8333333333335,
      "d": 483.3333333333335,
      "v": 69
    },
    {
      "midi": 64,
      "hit": false,
      "t": 2833.333333333333,
      "d": 483.3333333333335,
      "v": 79
    },
    {
      "midi": 64,
      "hit": false,
      "t": 2895.8333333333335,
      "d": 483.3333333333335,
      "v": 69
    },
    {
      "midi": 72,
      "hit": false,
      "t": 3083.333333333333,
      "d": 483.3333333333335,
      "v": 79
    },
    {
      "midi": 72,
      "hit": false,
      "t": 3145.8333333333335,
      "d": 483.3333333333335,
      "v": 69
    },
    {
      "midi": 64,
      "hit": false,
      "t": 3333.333333333333,
      "d": 483.3333333333335,
      "v": 79
    },
    {
      "midi": 64,
      "hit": false,
      "t": 3395.8333333333335,
      "d": 483.3333333333335,
      "v": 69
    },
    {
      "midi": 71,
      "hit": false,
      "t": 3583.333333333333,
      "d": 483.3333333333335,
      "v": 79
    },
    {
      "midi": 71,
      "hit": false,
      "t": 3645.8333333333335,
      "d": 483.3333333333335,
      "v": 69
    },
    {
      "midi": 64,
      "hit": false,
      "t": 3833.333333333333,
      "d": 483.33333333333303,
      "v": 79
    },
    {
      "midi": 64,
      "hit": false,
      "t": 3895.8333333333335,
      "d": 483.3333333333335,
      "v": 69
    },
    {
      "midi": 71,
      "hit": false,
      "t": 4083.333333333333,
      "d": 483.33333333333303,
      "v": 79
    },
    {
      "midi": 71,
      "hit": false,
      "t": 4145.833333333334,
      "d": 483.33333333333303,
      "v": 69
    },
    {
      "midi": 71,
      "hit": false,
      "t": 4583.333333333333,
      "d": 233.33333333333303,
      "v": 79
    },
    {
      "midi": 71,
      "hit": false,
      "t": 4645.833333333334,
      "d": 233.33333333333303,
      "v": 69
    },
    {
      "midi": 64,
      "hit": false,
      "t": 4833.333333333333,
      "d": 0,
      "v": 79
    },
    {
      "midi": 64,
      "hit": false,
      "t": 4895.833333333334,
      "d": 0,
      "v": 69
    },
    {
      "midi": 71,
      "hit": false,
      "t": 5083.333333333333,
      "d": 483.33333333333303,
      "v": 79
    },
    {
      "midi": 71,
      "hit": false,
      "t": 5145.833333333334,
      "d": 483.33333333333303,
      "v": 69
    },
    {
      "midi": 64,
      "hit": false,
      "t": 5333.333333333333,
      "d": 483.33333333333303,
      "v": 79
    },
    {
      "midi": 64,
      "hit": false,
      "t": 5395.833333333334,
      "d": 483.33333333333303,
      "v": 69
    },
    {
      "midi": 72,
      "hit": false,
      "t": 5583.333333333333,
      "d": 483.33333333333303,
      "v": 79
    },
    {
      "midi": 72,
      "hit": false,
      "t": 5645.833333333334,
      "d": 483.33333333333303,
      "v": 69
    },
    {
      "midi": 64,
      "hit": false,
      "t": 5833.333333333333,
      "d": 483.33333333333303,
      "v": 79
    },
    {
      "midi": 64,
      "hit": false,
      "t": 5895.833333333334,
      "d": 483.33333333333303,
      "v": 69
    },
    {
      "midi": 71,
      "hit": false,
      "t": 6083.333333333333,
      "d": 483.33333333333303,
      "v": 79
    },
    {
      "midi": 71,
      "hit": false,
      "t": 6145.833333333334,
      "d": 483.33333333333303,
      "v": 69
    },
    {
      "midi": 64,
      "hit": false,
      "t": 6333.333333333333,
      "d": 733.333333333333,
      "v": 79
    },
    {
      "midi": 64,
      "hit": false,
      "t": 6395.833333333334,
      "d": 733.333333333333,
      "v": 69
    },
    {
      "midi": 69,
      "hit": false,
      "t": 7083.333333333333,
      "d": 0,
      "v": 79
    },
    {
      "midi": 71,
      "hit": false,
      "t": 7133.333333333333,
      "d": 50,
      "v": 79
    },
    {
      "midi": 69,
      "hit": false,
      "t": 7145.833333333334,
      "d": 0,
      "v": 69
    },
    {
      "midi": 71,
      "hit": false,
      "t": 7195.833333333334,
      "d": 50,
      "v": 69
    },
    {
      "midi": 69,
      "hit": false,
      "t": 7200,
      "d": 483.33333333333303,
      "v": 79
    },
    {
      "midi": 69,
      "hit": false,
      "t": 7262.500000000001,
      "d": 483.33333333333303,
      "v": 69
    },
    {
      "midi": 69,
      "hit": false,
      "t": 7700,
      "d": 83.33333333333303,
      "v": 79
    },
    {
      "midi": 69,
      "hit": false,
      "t": 7762.500000000001,
      "d": 83.33333333333303,
      "v": 69
    },
    {
      "midi": 71,
      "hit": false,
      "t": 7800,
      "d": 66.66666666666697,
      "v": 79
    },
    {
      "midi": 71,
      "hit": false,
      "t": 7862.500000000001,
      "d": 66.66666666666697,
      "v": 69
    },
    {
      "midi": 69,
      "hit": false,
      "t": 7883.333333333334,
      "d": 487.5,
      "v": 79
    },
    {
      "midi": 69,
      "hit": false,
      "t": 7945.833333333335,
      "d": 487.5000000000009,
      "v": 69
    },
    {
      "midi": 69,
      "hit": false,
      "t": 8383.333333333334,
      "d": 116.66666666666606,
      "v": 79
    },
    {
      "midi": 69,
      "hit": false,
      "t": 8445.833333333336,
      "d": 116.66666666666606,
      "v": 69
    },
    {
      "midi": 71,
      "hit": false,
      "t": 8516.666666666666,
      "d": 133.33333333333394,
      "v": 79
    },
    {
      "midi": 71,
      "hit": false,
      "t": 8579.166666666668,
      "d": 133.33333333333394,
      "v": 69
    },
    {
      "midi": 69,
      "hit": false,
      "t": 8666.666666666666,
      "d": 233.33333333333394,
      "v": 79
    },
    {
      "midi": 69,
      "hit": false,
      "t": 8729.166666666668,
      "d": 233.33333333333394,
      "v": 69
    },
    {
      "midi": 67,
      "hit": false,
      "t": 8916.666666666666,
      "d": 483.33333333333394,
      "v": 79
    },
    {
      "midi": 67,
      "hit": false,
      "t": 8979.166666666668,
      "d": 483.33333333333394,
      "v": 69
    },
    {
      "midi": 64,
      "hit": false,
      "t": 9166.666666666666,
      "d": 483.33333333333394,
      "v": 79
    },
    {
      "midi": 64,
      "hit": false,
      "t": 9229.166666666668,
      "d": 483.33333333333394,
      "v": 69
    },
    {
      "midi": 62,
      "hit": false,
      "t": 9416.666666666666,
      "d": 2233.333333333334,
      "v": 79
    },
    {
      "midi": 62,
      "hit": false,
      "t": 9479.166666666668,
      "d": 2233.333333333334,
      "v": 69
    },
    {
      "midi": 88,
      "hit": false,
      "t": 9816.666666666659,
      "d": 26812.499999999956,
      "v": 7
    },
    {
      "midi": 69,
      "hit": false,
      "t": 10416.666666666666,
      "d": 233.33333333333394,
      "v": 50
    },
    {
      "midi": 69,
      "hit": false,
      "t": 10416.666666666666,
      "d": 483.33333333333394,
      "v": 79
    },
    {
      "midi": 69,
      "hit": false,
      "t": 10479.166666666668,
      "d": 483.33333333333394,
      "v": 69
    },
    {
      "midi": 71,
      "hit": false,
      "t": 10666.666666666666,
      "d": 237.5,
      "v": 50
    },
    {
      "midi": 71,
      "hit": false,
      "t": 10666.666666666666,
      "d": 483.33333333333394,
      "v": 79
    },
    {
      "midi": 71,
      "hit": false,
      "t": 10729.166666666668,
      "d": 483.33333333333394,
      "v": 69
    },
    {
      "midi": 33,
      "hit": false,
      "t": 10916.666666666666,
      "d": 2983.333333333334,
      "v": 79
    },
    {
      "midi": 72,
      "hit": false,
      "t": 10916.666666666666,
      "d": 483.33333333333394,
      "v": 79
    },
    {
      "midi": 72,
      "hit": false,
      "t": 10920.833333333332,
      "d": 1979.166666666666,
      "v": 50
    },
    {
      "midi": 72,
      "hit": false,
      "t": 10979.166666666668,
      "d": 483.33333333333394,
      "v": 69
    },
    {
      "midi": 64,
      "hit": false,
      "t": 11166.666666666666,
      "d": 483.33333333333394,
      "v": 79
    },
    {
      "midi": 64,
      "hit": false,
      "t": 11229.166666666668,
      "d": 483.33333333333394,
      "v": 69
    },
    {
      "midi": 72,
      "hit": false,
      "t": 11416.666666666666,
      "d": 483.33333333333394,
      "v": 79
    },
    {
      "midi": 72,
      "hit": false,
      "t": 11479.166666666668,
      "d": 483.33333333333394,
      "v": 69
    },
    {
      "midi": 64,
      "hit": false,
      "t": 11666.666666666666,
      "d": 233.33333333333394,
      "v": 79
    },
    {
      "midi": 64,
      "hit": false,
      "t": 11729.166666666668,
      "d": 233.33333333333394,
      "v": 69
    },
    {
      "midi": 72,
      "hit": false,
      "t": 11916.666666666666,
      "d": 483.33333333333394,
      "v": 79
    },
    {
      "midi": 72,
      "hit": false,
      "t": 11979.166666666668,
      "d": 483.33333333333394,
      "v": 69
    },
    {
      "midi": 64,
      "hit": false,
      "t": 12166.666666666666,
      "d": 483.33333333333394,
      "v": 79
    },
    {
      "midi": 64,
      "hit": false,
      "t": 12229.166666666668,
      "d": 483.33333333333394,
      "v": 69
    },
    {
      "midi": 72,
      "hit": false,
      "t": 12416.666666666666,
      "d": 483.33333333333394,
      "v": 79
    },
    {
      "midi": 72,
      "hit": false,
      "t": 12479.166666666668,
      "d": 483.33333333333394,
      "v": 69
    },
    {
      "midi": 64,
      "hit": false,
      "t": 12666.666666666666,
      "d": 483.33333333333394,
      "v": 79
    },
    {
      "midi": 64,
      "hit": false,
      "t": 12729.166666666668,
      "d": 483.33333333333394,
      "v": 69
    },
    {
      "midi": 74,
      "hit": false,
      "t": 12916.666666666664,
      "d": 483.33333333333394,
      "v": 50
    },
    {
      "midi": 74,
      "hit": false,
      "t": 12916.666666666666,
      "d": 483.33333333333394,
      "v": 79
    },
    {
      "midi": 74,
      "hit": false,
      "t": 12979.166666666668,
      "d": 483.33333333333394,
      "v": 69
    },
    {
      "midi": 64,
      "hit": false,
      "t": 13166.666666666666,
      "d": 483.33333333333394,
      "v": 79
    },
    {
      "midi": 64,
      "hit": false,
      "t": 13229.166666666668,
      "d": 483.33333333333394,
      "v": 69
    },
    {
      "midi": 72,
      "hit": false,
      "t": 13416.666666666664,
      "d": 487.5,
      "v": 50
    },
    {
      "midi": 72,
      "hit": false,
      "t": 13416.666666666666,
      "d": 483.33333333333394,
      "v": 79
    },
    {
      "midi": 72,
      "hit": false,
      "t": 13479.166666666668,
      "d": 483.33333333333394,
      "v": 69
    },
    {
      "midi": 64,
      "hit": false,
      "t": 13666.666666666666,
      "d": 483.33333333333394,
      "v": 79
    },
    {
      "midi": 64,
      "hit": false,
      "t": 13729.166666666668,
      "d": 483.33333333333394,
      "v": 69
    },
    {
      "midi": 31,
      "hit": false,
      "t": 13916.666666666666,
      "d": 2983.333333333334,
      "v": 79
    },
    {
      "midi": 71,
      "hit": false,
      "t": 13916.666666666666,
      "d": 483.33333333333394,
      "v": 79
    },
    {
      "midi": 71,
      "hit": false,
      "t": 13920.83333333333,
      "d": 1979.166666666666,
      "v": 50
    },
    {
      "midi": 71,
      "hit": false,
      "t": 13979.166666666668,
      "d": 483.33333333333394,
      "v": 69
    },
    {
      "midi": 64,
      "hit": false,
      "t": 14166.666666666666,
      "d": 483.33333333333394,
      "v": 79
    },
    {
      "midi": 64,
      "hit": false,
      "t": 14229.166666666668,
      "d": 483.33333333333394,
      "v": 69
    },
    {
      "midi": 71,
      "hit": false,
      "t": 14416.666666666666,
      "d": 483.33333333333394,
      "v": 79
    },
    {
      "midi": 71,
      "hit": false,
      "t": 14479.166666666668,
      "d": 483.33333333333394,
      "v": 69
    },
    {
      "midi": 71,
      "hit": false,
      "t": 14916.666666666666,
      "d": 233.33333333333394,
      "v": 79
    },
    {
      "midi": 71,
      "hit": false,
      "t": 14979.166666666668,
      "d": 233.33333333333394,
      "v": 69
    },
    {
      "midi": 64,
      "hit": false,
      "t": 15166.666666666666,
      "d": 0,
      "v": 79
    },
    {
      "midi": 64,
      "hit": false,
      "t": 15229.166666666668,
      "d": 0,
      "v": 69
    },
    {
      "midi": 71,
      "hit": false,
      "t": 15416.666666666666,
      "d": 483.33333333333394,
      "v": 79
    },
    {
      "midi": 71,
      "hit": false,
      "t": 15479.166666666668,
      "d": 483.33333333333394,
      "v": 69
    },
    {
      "midi": 64,
      "hit": false,
      "t": 15666.666666666666,
      "d": 483.33333333333394,
      "v": 79
    },
    {
      "midi": 64,
      "hit": false,
      "t": 15729.166666666668,
      "d": 483.33333333333394,
      "v": 69
    },
    {
      "midi": 72,
      "hit": false,
      "t": 15916.666666666662,
      "d": 487.5000000000018,
      "v": 50
    },
    {
      "midi": 72,
      "hit": false,
      "t": 15916.666666666666,
      "d": 483.33333333333394,
      "v": 79
    },
    {
      "midi": 72,
      "hit": false,
      "t": 15979.166666666668,
      "d": 483.3333333333321,
      "v": 69
    },
    {
      "midi": 64,
      "hit": false,
      "t": 16166.666666666666,
      "d": 483.33333333333394,
      "v": 79
    },
    {
      "midi": 64,
      "hit": false,
      "t": 16229.166666666668,
      "d": 483.3333333333321,
      "v": 69
    },
    {
      "midi": 71,
      "hit": false,
      "t": 16416.666666666664,
      "d": 487.5,
      "v": 50
    },
    {
      "midi": 71,
      "hit": false,
      "t": 16416.666666666668,
      "d": 483.3333333333321,
      "v": 79
    },
    {
      "midi": 71,
      "hit": false,
      "t": 16479.166666666668,
      "d": 483.3333333333321,
      "v": 69
    },
    {
      "midi": 64,
      "hit": false,
      "t": 16666.666666666668,
      "d": 733.3333333333321,
      "v": 79
    },
    {
      "midi": 64,
      "hit": false,
      "t": 16729.166666666668,
      "d": 733.3333333333321,
      "v": 69
    },
    {
      "midi": 33,
      "hit": false,
      "t": 16916.666666666668,
      "d": 3066.666666666668,
      "v": 79
    },
    {
      "midi": 69,
      "hit": false,
      "t": 16920.833333333332,
      "d": 529.1666666666679,
      "v": 50
    },
    {
      "midi": 69,
      "hit": false,
      "t": 17416.666666666668,
      "d": 0,
      "v": 79
    },
    {
      "midi": 71,
      "hit": false,
      "t": 17466.666666666668,
      "d": 50,
      "v": 50
    },
    {
      "midi": 71,
      "hit": false,
      "t": 17466.666666666668,
      "d": 50,
      "v": 79
    },
    {
      "midi": 69,
      "hit": false,
      "t": 17479.166666666668,
      "d": 0,
      "v": 69
    },
    {
      "midi": 71,
      "hit": false,
      "t": 17529.166666666668,
      "d": 50,
      "v": 69
    },
    {
      "midi": 69,
      "hit": false,
      "t": 17533.333333333336,
      "d": 483.3333333333321,
      "v": 79
    },
    {
      "midi": 69,
      "hit": false,
      "t": 17537.500000000004,
      "d": 0,
      "v": 50
    },
    {
      "midi": 69,
      "hit": false,
      "t": 17595.833333333336,
      "d": 483.3333333333321,
      "v": 69
    },
    {
      "midi": 69,
      "hit": false,
      "t": 18033.333333333336,
      "d": 83.33333333333212,
      "v": 79
    },
    {
      "midi": 69,
      "hit": false,
      "t": 18095.833333333336,
      "d": 83.33333333333212,
      "v": 69
    },
    {
      "midi": 71,
      "hit": false,
      "t": 18133.333333333336,
      "d": 66.66666666666788,
      "v": 79
    },
    {
      "midi": 71,
      "hit": false,
      "t": 18133.33333333334,
      "d": 66.66666666666788,
      "v": 50
    },
    {
      "midi": 71,
      "hit": false,
      "t": 18195.833333333336,
      "d": 66.66666666666788,
      "v": 69
    },
    {
      "midi": 69,
      "hit": false,
      "t": 18216.66666666667,
      "d": 487.5,
      "v": 79
    },
    {
      "midi": 69,
      "hit": false,
      "t": 18216.666666666675,
      "d": 483.3333333333321,
      "v": 50
    },
    {
      "midi": 69,
      "hit": false,
      "t": 18279.16666666667,
      "d": 487.5,
      "v": 69
    },
    {
      "midi": 69,
      "hit": false,
      "t": 18716.66666666667,
      "d": 116.66666666666788,
      "v": 79
    },
    {
      "midi": 69,
      "hit": false,
      "t": 18716.666666666675,
      "d": 116.66666666666788,
      "v": 50
    },
    {
      "midi": 69,
      "hit": false,
      "t": 18779.16666666667,
      "d": 116.66666666666788,
      "v": 69
    },
    {
      "midi": 71,
      "hit": false,
      "t": 18850.000000000007,
      "d": 133.33333333333212,
      "v": 79
    },
    {
      "midi": 71,
      "hit": false,
      "t": 18850.00000000001,
      "d": 133.33333333333212,
      "v": 50
    },
    {
      "midi": 71,
      "hit": false,
      "t": 18912.500000000007,
      "d": 133.33333333333212,
      "v": 69
    },
    {
      "midi": 69,
      "hit": false,
      "t": 19000.000000000007,
      "d": 233.33333333333212,
      "v": 79
    },
    {
      "midi": 69,
      "hit": false,
      "t": 19000.00000000001,
      "d": 233.33333333333212,
      "v": 50
    },
    {
      "midi": 69,
      "hit": false,
      "t": 19062.500000000007,
      "d": 233.33333333333212,
      "v": 69
    },
    {
      "midi": 67,
      "hit": false,
      "t": 19250.000000000007,
      "d": 483.3333333333321,
      "v": 79
    },
    {
      "midi": 67,
      "hit": false,
      "t": 19250.00000000001,
      "d": 233.33333333333212,
      "v": 50
    },
    {
      "midi": 67,
      "hit": false,
      "t": 19312.500000000007,
      "d": 483.3333333333321,
      "v": 69
    },
    {
      "midi": 64,
      "hit": false,
      "t": 19500.000000000007,
      "d": 483.3333333333321,
      "v": 79
    },
    {
      "midi": 64,
      "hit": false,
      "t": 19500.00000000001,
      "d": 233.33333333333212,
      "v": 50
    },
    {
      "midi": 64,
      "hit": false,
      "t": 19562.500000000007,
      "d": 483.3333333333321,
      "v": 69
    },
    {
      "midi": 62,
      "hit": false,
      "t": 19750.000000000007,
      "d": 2233.333333333332,
      "v": 79
    },
    {
      "midi": 62,
      "hit": false,
      "t": 19750.00000000001,
      "d": 237.5,
      "v": 50
    },
    {
      "midi": 62,
      "hit": false,
      "t": 19812.500000000007,
      "d": 2233.333333333332,
      "v": 69
    },
    {
      "midi": 28,
      "hit": false,
      "t": 20000.000000000004,
      "d": 2483.333333333332,
      "v": 79
    },
    {
      "midi": 64,
      "hit": false,
      "t": 20000.000000000007,
      "d": 2233.333333333332,
      "v": 79
    },
    {
      "midi": 64,
      "hit": false,
      "t": 20004.16666666668,
      "d": 1979.1666666666679,
      "v": 50
    },
    {
      "midi": 64,
      "hit": false,
      "t": 20062.500000000007,
      "d": 2233.333333333332,
      "v": 69
    },
    {
      "midi": 69,
      "hit": false,
      "t": 22000.000000000007,
      "d": 483.3333333333321,
      "v": 79
    },
    {
      "midi": 69,
      "hit": false,
      "t": 22000.000000000015,
      "d": 233.33333333333212,
      "v": 50
    },
    {
      "midi": 69,
      "hit": false,
      "t": 22062.500000000007,
      "d": 483.3333333333321,
      "v": 69
    },
    {
      "midi": 71,
      "hit": false,
      "t": 22250.000000000007,
      "d": 483.3333333333321,
      "v": 79
    },
    {
      "midi": 71,
      "hit": false,
      "t": 22250.000000000015,
      "d": 233.33333333333212,
      "v": 50
    },
    {
      "midi": 71,
      "hit": false,
      "t": 22312.500000000007,
      "d": 483.3333333333321,
      "v": 69
    },
    {
      "midi": 33,
      "hit": false,
      "t": 22500.000000000004,
      "d": 2983.333333333332,
      "v": 79
    },
    {
      "midi": 72,
      "hit": false,
      "t": 22500.000000000007,
      "d": 483.3333333333321,
      "v": 79
    },
    {
      "midi": 72,
      "hit": false,
      "t": 22500.000000000015,
      "d": 1983.3333333333321,
      "v": 50
    },
    {
      "midi": 72,
      "hit": false,
      "t": 22562.500000000007,
      "d": 483.3333333333321,
      "v": 69
    },
    {
      "midi": 64,
      "hit": false,
      "t": 22750.000000000007,
      "d": 483.3333333333321,
      "v": 79
    },
    {
      "midi": 64,
      "hit": false,
      "t": 22812.500000000007,
      "d": 483.3333333333321,
      "v": 69
    },
    {
      "midi": 72,
      "hit": false,
      "t": 23000.000000000007,
      "d": 483.3333333333321,
      "v": 79
    },
    {
      "midi": 72,
      "hit": false,
      "t": 23062.500000000007,
      "d": 483.3333333333321,
      "v": 69
    },
    {
      "midi": 64,
      "hit": false,
      "t": 23250.000000000007,
      "d": 483.3333333333321,
      "v": 79
    },
    {
      "midi": 64,
      "hit": false,
      "t": 23312.500000000007,
      "d": 483.3333333333321,
      "v": 69
    },
    {
      "midi": 72,
      "hit": false,
      "t": 23500.000000000007,
      "d": 483.3333333333321,
      "v": 79
    },
    {
      "midi": 72,
      "hit": false,
      "t": 23562.500000000007,
      "d": 483.3333333333321,
      "v": 69
    },
    {
      "midi": 64,
      "hit": false,
      "t": 23750.000000000007,
      "d": 483.3333333333321,
      "v": 79
    },
    {
      "midi": 64,
      "hit": false,
      "t": 23812.500000000007,
      "d": 483.3333333333321,
      "v": 69
    },
    {
      "midi": 72,
      "hit": false,
      "t": 24000.000000000007,
      "d": 483.3333333333321,
      "v": 79
    },
    {
      "midi": 72,
      "hit": false,
      "t": 24062.500000000007,
      "d": 483.3333333333321,
      "v": 69
    },
    {
      "midi": 64,
      "hit": false,
      "t": 24250.000000000007,
      "d": 483.3333333333321,
      "v": 79
    },
    {
      "midi": 64,
      "hit": false,
      "t": 24312.500000000007,
      "d": 483.3333333333321,
      "v": 69
    },
    {
      "midi": 74,
      "hit": false,
      "t": 24500.000000000007,
      "d": 483.3333333333321,
      "v": 79
    },
    {
      "midi": 74,
      "hit": false,
      "t": 24500.000000000015,
      "d": 483.3333333333321,
      "v": 50
    },
    {
      "midi": 74,
      "hit": false,
      "t": 24562.500000000007,
      "d": 483.3333333333321,
      "v": 69
    },
    {
      "midi": 64,
      "hit": false,
      "t": 24750.000000000007,
      "d": 483.3333333333321,
      "v": 79
    },
    {
      "midi": 64,
      "hit": false,
      "t": 24812.500000000007,
      "d": 483.3333333333321,
      "v": 69
    },
    {
      "midi": 72,
      "hit": false,
      "t": 25000.000000000007,
      "d": 483.3333333333321,
      "v": 79
    },
    {
      "midi": 72,
      "hit": false,
      "t": 25000.000000000015,
      "d": 483.3333333333321,
      "v": 50
    },
    {
      "midi": 72,
      "hit": false,
      "t": 25062.500000000007,
      "d": 483.3333333333321,
      "v": 69
    },
    {
      "midi": 64,
      "hit": false,
      "t": 25250.000000000007,
      "d": 483.3333333333321,
      "v": 79
    },
    {
      "midi": 64,
      "hit": false,
      "t": 25312.500000000007,
      "d": 483.3333333333321,
      "v": 69
    },
    {
      "midi": 31,
      "hit": false,
      "t": 25500.000000000004,
      "d": 2983.333333333332,
      "v": 79
    },
    {
      "midi": 71,
      "hit": false,
      "t": 25500.000000000007,
      "d": 483.3333333333321,
      "v": 79
    },
    {
      "midi": 71,
      "hit": false,
      "t": 25500.000000000015,
      "d": 1983.3333333333321,
      "v": 50
    },
    {
      "midi": 71,
      "hit": false,
      "t": 25562.500000000007,
      "d": 483.3333333333321,
      "v": 69
    },
    {
      "midi": 64,
      "hit": false,
      "t": 25750.000000000007,
      "d": 483.3333333333321,
      "v": 79
    },
    {
      "midi": 64,
      "hit": false,
      "t": 25812.500000000007,
      "d": 483.3333333333321,
      "v": 69
    },
    {
      "midi": 71,
      "hit": false,
      "t": 26000.000000000007,
      "d": 483.3333333333321,
      "v": 79
    },
    {
      "midi": 71,
      "hit": false,
      "t": 26062.500000000007,
      "d": 483.3333333333321,
      "v": 69
    },
    {
      "midi": 71,
      "hit": false,
      "t": 26500.000000000007,
      "d": 233.33333333333212,
      "v": 79
    },
    {
      "midi": 71,
      "hit": false,
      "t": 26562.500000000007,
      "d": 233.33333333333212,
      "v": 69
    },
    {
      "midi": 64,
      "hit": false,
      "t": 26750.000000000007,
      "d": 0,
      "v": 79
    },
    {
      "midi": 64,
      "hit": false,
      "t": 26812.500000000007,
      "d": 0,
      "v": 69
    },
    {
      "midi": 71,
      "hit": false,
      "t": 27000.000000000007,
      "d": 483.3333333333321,
      "v": 79
    },
    {
      "midi": 71,
      "hit": false,
      "t": 27062.500000000007,
      "d": 483.3333333333321,
      "v": 69
    },
    {
      "midi": 64,
      "hit": false,
      "t": 27250.000000000007,
      "d": 483.3333333333321,
      "v": 79
    },
    {
      "midi": 64,
      "hit": false,
      "t": 27312.500000000007,
      "d": 483.3333333333321,
      "v": 69
    },
    {
      "midi": 72,
      "hit": false,
      "t": 27500.000000000007,
      "d": 483.3333333333321,
      "v": 79
    },
    {
      "midi": 72,
      "hit": false,
      "t": 27500.000000000015,
      "d": 483.3333333333321,
      "v": 50
    },
    {
      "midi": 72,
      "hit": false,
      "t": 27562.500000000007,
      "d": 483.3333333333321,
      "v": 69
    },
    {
      "midi": 64,
      "hit": false,
      "t": 27750.000000000007,
      "d": 483.3333333333321,
      "v": 79
    },
    {
      "midi": 64,
      "hit": false,
      "t": 27812.500000000007,
      "d": 483.3333333333321,
      "v": 69
    },
    {
      "midi": 71,
      "hit": false,
      "t": 28000.000000000007,
      "d": 483.3333333333321,
      "v": 79
    },
    {
      "midi": 71,
      "hit": false,
      "t": 28000.000000000015,
      "d": 483.3333333333321,
      "v": 50
    },
    {
      "midi": 71,
      "hit": false,
      "t": 28062.500000000007,
      "d": 483.3333333333321,
      "v": 69
    },
    {
      "midi": 64,
      "hit": false,
      "t": 28250.000000000007,
      "d": 733.3333333333321,
      "v": 79
    },
    {
      "midi": 64,
      "hit": false,
      "t": 28312.500000000007,
      "d": 733.3333333333321,
      "v": 69
    },
    {
      "midi": 33,
      "hit": false,
      "t": 28500.000000000004,
      "d": 3066.666666666668,
      "v": 79
    },
    {
      "midi": 69,
      "hit": false,
      "t": 28500.000000000015,
      "d": 533.3333333333321,
      "v": 50
    },
    {
      "midi": 69,
      "hit": false,
      "t": 29000.000000000007,
      "d": 0,
      "v": 79
    },
    {
      "midi": 71,
      "hit": false,
      "t": 29050.000000000007,
      "d": 50,
      "v": 79
    },
    {
      "midi": 71,
      "hit": false,
      "t": 29050.000000000015,
      "d": 50,
      "v": 50
    },
    {
      "midi": 69,
      "hit": false,
      "t": 29062.500000000007,
      "d": 0,
      "v": 69
    },
    {
      "midi": 71,
      "hit": false,
      "t": 29112.500000000007,
      "d": 50,
      "v": 69
    },
    {
      "midi": 69,
      "hit": false,
      "t": 29116.666666666675,
      "d": 483.3333333333321,
      "v": 79
    },
    {
      "midi": 69,
      "hit": false,
      "t": 29116.666666666682,
      "d": 4.166666666667879,
      "v": 50
    },
    {
      "midi": 69,
      "hit": false,
      "t": 29179.166666666675,
      "d": 483.3333333333321,
      "v": 69
    },
    {
      "midi": 69,
      "hit": false,
      "t": 29616.666666666675,
      "d": 83.33333333333212,
      "v": 79
    },
    {
      "midi": 69,
      "hit": false,
      "t": 29679.166666666675,
      "d": 83.33333333333212,
      "v": 69
    },
    {
      "midi": 71,
      "hit": false,
      "t": 29716.666666666675,
      "d": 66.66666666666788,
      "v": 79
    },
    {
      "midi": 71,
      "hit": false,
      "t": 29716.666666666686,
      "d": 66.66666666666788,
      "v": 50
    },
    {
      "midi": 71,
      "hit": false,
      "t": 29779.166666666675,
      "d": 66.66666666666788,
      "v": 69
    },
    {
      "midi": 69,
      "hit": false,
      "t": 29800.00000000001,
      "d": 483.3333333333321,
      "v": 79
    },
    {
      "midi": 69,
      "hit": false,
      "t": 29800.000000000022,
      "d": 483.3333333333321,
      "v": 50
    },
    {
      "midi": 69,
      "hit": false,
      "t": 29862.50000000001,
      "d": 483.3333333333321,
      "v": 69
    },
    {
      "midi": 69,
      "hit": false,
      "t": 30300.00000000001,
      "d": 116.66666666666788,
      "v": 79
    },
    {
      "midi": 69,
      "hit": false,
      "t": 30300.000000000022,
      "d": 116.66666666666788,
      "v": 50
    },
    {
      "midi": 69,
      "hit": false,
      "t": 30362.50000000001,
      "d": 116.66666666666788,
      "v": 69
    },
    {
      "midi": 71,
      "hit": false,
      "t": 30433.333333333347,
      "d": 133.33333333333212,
      "v": 79
    },
    {
      "midi": 71,
      "hit": false,
      "t": 30433.333333333358,
      "d": 133.33333333333212,
      "v": 50
    },
    {
      "midi": 71,
      "hit": false,
      "t": 30495.833333333347,
      "d": 133.33333333333212,
      "v": 69
    },
    {
      "midi": 69,
      "hit": false,
      "t": 30583.333333333347,
      "d": 233.33333333333212,
      "v": 79
    },
    {
      "midi": 69,
      "hit": false,
      "t": 30583.333333333358,
      "d": 233.33333333333212,
      "v": 50
    },
    {
      "midi": 69,
      "hit": false,
      "t": 30645.833333333347,
      "d": 233.33333333333212,
      "v": 69
    },
    {
      "midi": 67,
      "hit": false,
      "t": 30833.333333333347,
      "d": 483.3333333333321,
      "v": 79
    },
    {
      "midi": 67,
      "hit": false,
      "t": 30833.333333333358,
      "d": 233.33333333333212,
      "v": 50
    },
    {
      "midi": 67,
      "hit": false,
      "t": 30895.833333333347,
      "d": 483.3333333333321,
      "v": 69
    },
    {
      "midi": 64,
      "hit": false,
      "t": 31083.333333333347,
      "d": 483.3333333333321,
      "v": 79
    },
    {
      "midi": 64,
      "hit": false,
      "t": 31083.333333333358,
      "d": 233.33333333333212,
      "v": 50
    },
    {
      "midi": 64,
      "hit": false,
      "t": 31145.833333333347,
      "d": 483.3333333333321,
      "v": 69
    },
    {
      "midi": 67,
      "hit": false,
      "t": 31333.333333333347,
      "d": 233.33333333333212,
      "v": 79
    },
    {
      "midi": 67,
      "hit": false,
      "t": 31333.333333333358,
      "d": 237.5,
      "v": 50
    },
    {
      "midi": 67,
      "hit": false,
      "t": 31395.833333333347,
      "d": 233.33333333333212,
      "v": 69
    },
    {
      "midi": 57,
      "hit": false,
      "t": 31583.333333333332,
      "d": 1983.3333333333321,
      "v": 79
    },
    {
      "midi": 33,
      "hit": false,
      "t": 31583.33333333334,
      "d": 1983.3333333333321,
      "v": 79
    },
    {
      "midi": 69,
      "hit": false,
      "t": 31583.333333333347,
      "d": 1983.3333333333321,
      "v": 79
    },
    {
      "midi": 69,
      "hit": false,
      "t": 31583.333333333358,
      "d": 1987.5,
      "v": 50
    },
    {
      "midi": 69,
      "hit": false,
      "t": 31645.833333333347,
      "d": 1983.3333333333321,
      "v": 69
    },
    {
      "midi": 69,
      "hit": false,
      "t": 33583.333333333336,
      "d": 233.33333333333576,
      "v": 55
    },
    {
      "midi": 69,
      "hit": false,
      "t": 33583.33333333334,
      "d": 233.33333333333576,
      "v": 79
    },
    {
      "midi": 69,
      "hit": false,
      "t": 33645.83333333334,
      "d": 233.33333333333576,
      "v": 69
    },
    {
      "midi": 71,
      "hit": false,
      "t": 33833.333333333336,
      "d": 233.33333333333576,
      "v": 55
    },
    {
      "midi": 71,
      "hit": false,
      "t": 33833.33333333334,
      "d": 233.33333333333576,
      "v": 79
    },
    {
      "midi": 71,
      "hit": false,
      "t": 33895.83333333334,
      "d": 233.33333333333576,
      "v": 69
    },
    {
      "midi": 33,
      "hit": false,
      "t": 34083.333333333336,
      "d": 233.33333333333576,
      "v": 79
    },
    {
      "midi": 72,
      "hit": false,
      "t": 34083.333333333336,
      "d": 1483.3333333333358,
      "v": 55
    },
    {
      "midi": 72,
      "hit": false,
      "t": 34083.33333333334,
      "d": 1483.3333333333358,
      "v": 79
    },
    {
      "midi": 72,
      "hit": false,
      "t": 34145.83333333334,
      "d": 1483.3333333333358,
      "v": 69
    },
    {
      "midi": 52,
      "hit": false,
      "t": 34333.33333333333,
      "d": 233.33333333333576,
      "v": 79
    },
    {
      "midi": 57,
      "hit": false,
      "t": 34583.33333333333,
      "d": 233.33333333333576,
      "v": 79
    },
    {
      "midi": 60,
      "hit": false,
      "t": 34833.33333333333,
      "d": 233.33333333333576,
      "v": 79
    },
    {
      "midi": 52,
      "hit": false,
      "t": 35083.33333333333,
      "d": 233.33333333333576,
      "v": 79
    },
    {
      "midi": 57,
      "hit": false,
      "t": 35333.33333333333,
      "d": 233.33333333333576,
      "v": 79
    },
    {
      "midi": 60,
      "hit": false,
      "t": 35583.33333333333,
      "d": 233.33333333333576,
      "v": 79
    },
    {
      "midi": 74,
      "hit": false,
      "t": 35583.333333333336,
      "d": 233.33333333333576,
      "v": 55
    },
    {
      "midi": 74,
      "hit": false,
      "t": 35583.33333333334,
      "d": 233.33333333333576,
      "v": 79
    },
    {
      "midi": 74,
      "hit": false,
      "t": 35645.83333333334,
      "d": 233.33333333333576,
      "v": 69
    },
    {
      "midi": 52,
      "hit": false,
      "t": 35833.33333333333,
      "d": 233.33333333333576,
      "v": 79
    },
    {
      "midi": 72,
      "hit": false,
      "t": 35833.333333333336,
      "d": 233.33333333333576,
      "v": 55
    },
    {
      "midi": 72,
      "hit": false,
      "t": 35833.33333333334,
      "d": 233.33333333333576,
      "v": 79
    },
    {
      "midi": 72,
      "hit": false,
      "t": 35895.83333333334,
      "d": 233.33333333333576,
      "v": 69
    },
    {
      "midi": 31,
      "hit": false,
      "t": 36083.333333333336,
      "d": 233.33333333333576,
      "v": 79
    },
    {
      "midi": 71,
      "hit": false,
      "t": 36083.333333333336,
      "d": 1483.3333333333358,
      "v": 55
    },
    {
      "midi": 71,
      "hit": false,
      "t": 36083.33333333334,
      "d": 1483.3333333333358,
      "v": 79
    },
    {
      "midi": 71,
      "hit": false,
      "t": 36145.83333333334,
      "d": 1483.3333333333358,
      "v": 69
    },
    {
      "midi": 50,
      "hit": false,
      "t": 36333.33333333333,
      "d": 233.33333333333576,
      "v": 79
    },
    {
      "midi": 55,
      "hit": false,
      "t": 36583.33333333333,
      "d": 233.33333333333576,
      "v": 79
    },
    {
      "midi": 59,
      "hit": false,
      "t": 36833.33333333333,
      "d": 233.33333333333576,
      "v": 79
    },
    {
      "midi": 50,
      "hit": false,
      "t": 37083.33333333333,
      "d": 233.33333333333576,
      "v": 79
    },
    {
      "midi": 55,
      "hit": false,
      "t": 37333.33333333333,
      "d": 233.33333333333576,
      "v": 79
    },
    {
      "midi": 59,
      "hit": false,
      "t": 37583.33333333333,
      "d": 233.33333333333576,
      "v": 79
    },
    {
      "midi": 72,
      "hit": false,
      "t": 37583.333333333336,
      "d": 233.33333333333576,
      "v": 55
    },
    {
      "midi": 72,
      "hit": false,
      "t": 37583.33333333334,
      "d": 233.33333333333576,
      "v": 79
    },
    {
      "midi": 72,
      "hit": false,
      "t": 37645.83333333334,
      "d": 233.33333333333576,
      "v": 69
    },
    {
      "midi": 50,
      "hit": false,
      "t": 37833.33333333333,
      "d": 233.33333333333576,
      "v": 79
    },
    {
      "midi": 71,
      "hit": false,
      "t": 37833.333333333336,
      "d": 233.33333333333576,
      "v": 55
    },
    {
      "midi": 71,
      "hit": false,
      "t": 37833.33333333334,
      "d": 233.33333333333576,
      "v": 79
    },
    {
      "midi": 71,
      "hit": false,
      "t": 37895.83333333334,
      "d": 233.33333333333576,
      "v": 69
    },
    {
      "midi": 33,
      "hit": false,
      "t": 38083.333333333336,
      "d": 233.33333333333576,
      "v": 79
    },
    {
      "midi": 69,
      "hit": false,
      "t": 38083.333333333336,
      "d": 1233.3333333333358,
      "v": 55
    },
    {
      "midi": 69,
      "hit": false,
      "t": 38083.33333333334,
      "d": 1233.3333333333358,
      "v": 79
    },
    {
      "midi": 69,
      "hit": false,
      "t": 38145.83333333334,
      "d": 1233.3333333333358,
      "v": 69
    },
    {
      "midi": 52,
      "hit": false,
      "t": 38333.33333333333,
      "d": 233.33333333333576,
      "v": 79
    },
    {
      "midi": 57,
      "hit": false,
      "t": 38583.33333333333,
      "d": 233.33333333333576,
      "v": 79
    },
    {
      "midi": 60,
      "hit": false,
      "t": 38833.33333333333,
      "d": 233.33333333333576,
      "v": 79
    },
    {
      "midi": 52,
      "hit": false,
      "t": 39083.33333333333,
      "d": 233.33333333333576,
      "v": 79
    },
    {
      "midi": 57,
      "hit": false,
      "t": 39333.33333333333,
      "d": 233.33333333333576,
      "v": 79
    },
    {
      "midi": 71,
      "hit": false,
      "t": 39333.333333333336,
      "d": 233.33333333333576,
      "v": 55
    },
    {
      "midi": 71,
      "hit": false,
      "t": 39333.33333333334,
      "d": 233.33333333333576,
      "v": 79
    },
    {
      "midi": 71,
      "hit": false,
      "t": 39395.83333333334,
      "d": 233.33333333333576,
      "v": 69
    },
    {
      "midi": 60,
      "hit": false,
      "t": 39583.33333333333,
      "d": 233.33333333333576,
      "v": 79
    },
    {
      "midi": 69,
      "hit": false,
      "t": 39583.333333333336,
      "d": 233.33333333333576,
      "v": 55
    },
    {
      "midi": 69,
      "hit": false,
      "t": 39583.33333333334,
      "d": 233.33333333333576,
      "v": 79
    },
    {
      "midi": 69,
      "hit": false,
      "t": 39645.83333333334,
      "d": 233.33333333333576,
      "v": 69
    },
    {
      "midi": 52,
      "hit": false,
      "t": 39833.33333333333,
      "d": 233.33333333333576,
      "v": 79
    },
    {
      "midi": 67,
      "hit": false,
      "t": 39833.333333333336,
      "d": 233.33333333333576,
      "v": 55
    },
    {
      "midi": 67,
      "hit": false,
      "t": 39833.33333333334,
      "d": 233.33333333333576,
      "v": 79
    },
    {
      "midi": 67,
      "hit": false,
      "t": 39895.83333333334,
      "d": 233.33333333333576,
      "v": 69
    },
    {
      "midi": 28,
      "hit": false,
      "t": 40083.333333333336,
      "d": 233.33333333333576,
      "v": 79
    },
    {
      "midi": 64,
      "hit": false,
      "t": 40083.333333333336,
      "d": 1483.3333333333358,
      "v": 55
    },
    {
      "midi": 64,
      "hit": false,
      "t": 40083.33333333334,
      "d": 1483.3333333333358,
      "v": 79
    },
    {
      "midi": 64,
      "hit": false,
      "t": 40145.83333333334,
      "d": 1483.3333333333358,
      "v": 69
    },
    {
      "midi": 35,
      "hit": false,
      "t": 40333.333333333336,
      "d": 233.33333333333576,
      "v": 79
    },
    {
      "midi": 52,
      "hit": false,
      "t": 40583.33333333333,
      "d": 233.33333333333576,
      "v": 79
    },
    {
      "midi": 59,
      "hit": false,
      "t": 40833.33333333333,
      "d": 233.33333333333576,
      "v": 79
    },
    {
      "midi": 35,
      "hit": false,
      "t": 41083.333333333336,
      "d": 233.33333333333576,
      "v": 79
    },
    {
      "midi": 52,
      "hit": false,
      "t": 41333.33333333333,
      "d": 233.33333333333576,
      "v": 79
    },
    {
      "midi": 59,
      "hit": false,
      "t": 41583.33333333333,
      "d": 233.33333333333576,
      "v": 79
    },
    {
      "midi": 69,
      "hit": false,
      "t": 41583.333333333336,
      "d": 233.33333333333576,
      "v": 55
    },
    {
      "midi": 69,
      "hit": false,
      "t": 41583.33333333334,
      "d": 233.33333333333576,
      "v": 79
    },
    {
      "midi": 69,
      "hit": false,
      "t": 41645.83333333334,
      "d": 233.33333333333576,
      "v": 69
    },
    {
      "midi": 35,
      "hit": false,
      "t": 41833.333333333336,
      "d": 233.33333333333576,
      "v": 79
    },
    {
      "midi": 71,
      "hit": false,
      "t": 41833.333333333336,
      "d": 233.33333333333576,
      "v": 55
    },
    {
      "midi": 71,
      "hit": false,
      "t": 41833.33333333334,
      "d": 233.33333333333576,
      "v": 79
    },
    {
      "midi": 71,
      "hit": false,
      "t": 41895.83333333334,
      "d": 233.33333333333576,
      "v": 69
    },
    {
      "midi": 33,
      "hit": false,
      "t": 42083.333333333336,
      "d": 233.33333333333576,
      "v": 79
    },
    {
      "midi": 72,
      "hit": false,
      "t": 42083.333333333336,
      "d": 983.3333333333358,
      "v": 55
    },
    {
      "midi": 72,
      "hit": false,
      "t": 42083.33333333334,
      "d": 983.3333333333358,
      "v": 79
    },
    {
      "midi": 72,
      "hit": false,
      "t": 42145.83333333334,
      "d": 983.3333333333358,
      "v": 69
    },
    {
      "midi": 52,
      "hit": false,
      "t": 42333.33333333333,
      "d": 233.33333333333576,
      "v": 79
    },
    {
      "midi": 57,
      "hit": false,
      "t": 42583.33333333333,
      "d": 233.33333333333576,
      "v": 79
    },
    {
      "midi": 60,
      "hit": false,
      "t": 42833.33333333333,
      "d": 233.33333333333576,
      "v": 79
    },
    {
      "midi": 52,
      "hit": false,
      "t": 43083.33333333333,
      "d": 233.33333333333576,
      "v": 79
    },
    {
      "midi": 71,
      "hit": false,
      "t": 43083.333333333336,
      "d": 483.33333333333576,
      "v": 55
    },
    {
      "midi": 71,
      "hit": false,
      "t": 43083.33333333334,
      "d": 483.33333333333576,
      "v": 79
    },
    {
      "midi": 71,
      "hit": false,
      "t": 43145.83333333334,
      "d": 483.33333333333576,
      "v": 69
    },
    {
      "midi": 57,
      "hit": false,
      "t": 43333.33333333333,
      "d": 233.33333333333576,
      "v": 79
    },
    {
      "midi": 60,
      "hit": false,
      "t": 43583.33333333333,
      "d": 233.33333333333576,
      "v": 79
    },
    {
      "midi": 72,
      "hit": false,
      "t": 43583.333333333336,
      "d": 483.33333333333576,
      "v": 55
    },
    {
      "midi": 72,
      "hit": false,
      "t": 43583.33333333334,
      "d": 483.33333333333576,
      "v": 79
    },
    {
      "midi": 72,
      "hit": false,
      "t": 43645.83333333334,
      "d": 483.33333333333576,
      "v": 69
    },
    {
      "midi": 52,
      "hit": false,
      "t": 43833.33333333333,
      "d": 233.33333333333576,
      "v": 79
    },
    {
      "midi": 31,
      "hit": false,
      "t": 44083.333333333336,
      "d": 233.33333333333576,
      "v": 79
    },
    {
      "midi": 74,
      "hit": false,
      "t": 44083.333333333336,
      "d": 983.3333333333358,
      "v": 55
    },
    {
      "midi": 74,
      "hit": false,
      "t": 44083.33333333334,
      "d": 983.3333333333358,
      "v": 79
    },
    {
      "midi": 74,
      "hit": false,
      "t": 44145.83333333334,
      "d": 983.3333333333358,
      "v": 69
    },
    {
      "midi": 50,
      "hit": false,
      "t": 44333.33333333333,
      "d": 233.33333333333576,
      "v": 79
    },
    {
      "midi": 55,
      "hit": false,
      "t": 44583.33333333333,
      "d": 233.33333333333576,
      "v": 79
    },
    {
      "midi": 59,
      "hit": false,
      "t": 44833.33333333333,
      "d": 233.33333333333576,
      "v": 79
    },
    {
      "midi": 50,
      "hit": false,
      "t": 45083.33333333333,
      "d": 233.33333333333576,
      "v": 79
    },
    {
      "midi": 72,
      "hit": false,
      "t": 45083.333333333336,
      "d": 483.33333333333576,
      "v": 55
    },
    {
      "midi": 72,
      "hit": false,
      "t": 45083.33333333334,
      "d": 483.33333333333576,
      "v": 79
    },
    {
      "midi": 72,
      "hit": false,
      "t": 45145.83333333334,
      "d": 483.33333333333576,
      "v": 69
    },
    {
      "midi": 55,
      "hit": false,
      "t": 45333.33333333333,
      "d": 233.33333333333576,
      "v": 79
    },
    {
      "midi": 59,
      "hit": false,
      "t": 45583.33333333333,
      "d": 233.33333333333576,
      "v": 79
    },
    {
      "midi": 74,
      "hit": false,
      "t": 45583.333333333336,
      "d": 483.33333333333576,
      "v": 55
    },
    {
      "midi": 74,
      "hit": false,
      "t": 45583.33333333334,
      "d": 483.33333333333576,
      "v": 79
    },
    {
      "midi": 74,
      "hit": false,
      "t": 45645.83333333334,
      "d": 483.33333333333576,
      "v": 69
    },
    {
      "midi": 50,
      "hit": false,
      "t": 45833.33333333333,
      "d": 233.33333333333576,
      "v": 79
    },
    {
      "midi": 33,
      "hit": false,
      "t": 46083.333333333336,
      "d": 233.33333333333576,
      "v": 79
    },
    {
      "midi": 76,
      "hit": false,
      "t": 46083.333333333336,
      "d": 2983.3333333333358,
      "v": 55
    },
    {
      "midi": 76,
      "hit": false,
      "t": 46083.33333333334,
      "d": 2983.3333333333358,
      "v": 79
    },
    {
      "midi": 76,
      "hit": false,
      "t": 46145.83333333334,
      "d": 2983.3333333333358,
      "v": 69
    },
    {
      "midi": 52,
      "hit": false,
      "t": 46333.33333333333,
      "d": 233.33333333333576,
      "v": 79
    },
    {
      "midi": 57,
      "hit": false,
      "t": 46583.33333333333,
      "d": 233.33333333333576,
      "v": 79
    },
    {
      "midi": 60,
      "hit": false,
      "t": 46833.33333333333,
      "d": 233.33333333333576,
      "v": 79
    },
    {
      "midi": 52,
      "hit": false,
      "t": 47083.33333333333,
      "d": 233.33333333333576,
      "v": 79
    },
    {
      "midi": 57,
      "hit": false,
      "t": 47333.33333333333,
      "d": 233.33333333333576,
      "v": 79
    },
    {
      "midi": 60,
      "hit": false,
      "t": 47583.33333333333,
      "d": 233.33333333333576,
      "v": 79
    },
    {
      "midi": 52,
      "hit": false,
      "t": 47833.33333333333,
      "d": 233.33333333333576,
      "v": 79
    },
    {
      "midi": 28,
      "hit": false,
      "t": 48083.333333333336,
      "d": 233.33333333333576,
      "v": 79
    },
    {
      "midi": 35,
      "hit": false,
      "t": 48333.333333333336,
      "d": 233.33333333333576,
      "v": 79
    },
    {
      "midi": 52,
      "hit": false,
      "t": 48583.33333333333,
      "d": 233.33333333333576,
      "v": 79
    },
    {
      "midi": 59,
      "hit": false,
      "t": 48833.33333333333,
      "d": 233.33333333333576,
      "v": 79
    },
    {
      "midi": 35,
      "hit": false,
      "t": 49083.333333333336,
      "d": 233.33333333333576,
      "v": 79
    },
    {
      "midi": 69,
      "hit": false,
      "t": 49083.333333333336,
      "d": 483.33333333333576,
      "v": 55
    },
    {
      "midi": 69,
      "hit": false,
      "t": 49083.33333333334,
      "d": 483.33333333333576,
      "v": 79
    },
    {
      "midi": 69,
      "hit": false,
      "t": 49145.83333333334,
      "d": 483.33333333333576,
      "v": 69
    },
    {
      "midi": 52,
      "hit": false,
      "t": 49333.33333333333,
      "d": 233.33333333333576,
      "v": 79
    },
    {
      "midi": 59,
      "hit": false,
      "t": 49583.33333333333,
      "d": 233.33333333333576,
      "v": 79
    },
    {
      "midi": 71,
      "hit": false,
      "t": 49583.333333333336,
      "d": 483.33333333333576,
      "v": 55
    },
    {
      "midi": 71,
      "hit": false,
      "t": 49583.33333333334,
      "d": 483.33333333333576,
      "v": 79
    },
    {
      "midi": 71,
      "hit": false,
      "t": 49645.83333333334,
      "d": 483.33333333333576,
      "v": 69
    },
    {
      "midi": 35,
      "hit": false,
      "t": 49833.333333333336,
      "d": 233.33333333333576,
      "v": 79
    },
    {
      "midi": 33,
      "hit": false,
      "t": 50083.333333333336,
      "d": 233.33333333333576,
      "v": 79
    },
    {
      "midi": 72,
      "hit": false,
      "t": 50083.333333333336,
      "d": 983.3333333333358,
      "v": 55
    },
    {
      "midi": 72,
      "hit": false,
      "t": 50083.33333333334,
      "d": 983.3333333333358,
      "v": 79
    },
    {
      "midi": 72,
      "hit": false,
      "t": 50145.83333333334,
      "d": 983.3333333333358,
      "v": 69
    },
    {
      "midi": 52,
      "hit": false,
      "t": 50333.33333333333,
      "d": 233.33333333333576,
      "v": 79
    },
    {
      "midi": 57,
      "hit": false,
      "t": 50583.33333333333,
      "d": 233.33333333333576,
      "v": 79
    },
    {
      "midi": 60,
      "hit": false,
      "t": 50833.33333333333,
      "d": 233.33333333333576,
      "v": 79
    },
    {
      "midi": 52,
      "hit": false,
      "t": 51083.33333333333,
      "d": 233.33333333333576,
      "v": 79
    },
    {
      "midi": 74,
      "hit": false,
      "t": 51083.333333333336,
      "d": 483.33333333333576,
      "v": 55
    },
    {
      "midi": 74,
      "hit": false,
      "t": 51083.33333333334,
      "d": 483.33333333333576,
      "v": 79
    },
    {
      "midi": 74,
      "hit": false,
      "t": 51145.83333333334,
      "d": 483.33333333333576,
      "v": 69
    },
    {
      "midi": 57,
      "hit": false,
      "t": 51333.33333333333,
      "d": 233.33333333333576,
      "v": 79
    },
    {
      "midi": 60,
      "hit": false,
      "t": 51583.33333333333,
      "d": 233.33333333333576,
      "v": 79
    },
    {
      "midi": 72,
      "hit": false,
      "t": 51583.333333333336,
      "d": 483.33333333333576,
      "v": 55
    },
    {
      "midi": 72,
      "hit": false,
      "t": 51583.33333333334,
      "d": 483.33333333333576,
      "v": 79
    },
    {
      "midi": 72,
      "hit": false,
      "t": 51645.83333333334,
      "d": 483.33333333333576,
      "v": 69
    },
    {
      "midi": 52,
      "hit": false,
      "t": 51833.33333333333,
      "d": 233.33333333333576,
      "v": 79
    },
    {
      "midi": 31,
      "hit": false,
      "t": 52083.333333333336,
      "d": 233.33333333333576,
      "v": 79
    },
    {
      "midi": 71,
      "hit": false,
      "t": 52083.333333333336,
      "d": 983.3333333333358,
      "v": 55
    },
    {
      "midi": 71,
      "hit": false,
      "t": 52083.33333333334,
      "d": 979.1666666666642,
      "v": 79
    },
    {
      "midi": 71,
      "hit": false,
      "t": 52145.83333333334,
      "d": 979.1666666666642,
      "v": 69
    },
    {
      "midi": 50,
      "hit": false,
      "t": 52333.33333333333,
      "d": 229.16666666666424,
      "v": 79
    },
    {
      "midi": 55,
      "hit": false,
      "t": 52579.16666666666,
      "d": 233.33333333333576,
      "v": 79
    },
    {
      "midi": 59,
      "hit": false,
      "t": 52833.33333333333,
      "d": 233.33333333333576,
      "v": 79
    },
    {
      "midi": 72,
      "hit": false,
      "t": 53079.16666666667,
      "d": 483.33333333333576,
      "v": 79
    },
    {
      "midi": 50,
      "hit": false,
      "t": 53083.33333333333,
      "d": 233.33333333333576,
      "v": 79
    },
    {
      "midi": 72,
      "hit": false,
      "t": 53083.333333333336,
      "d": 483.33333333333576,
      "v": 55
    },
    {
      "midi": 72,
      "hit": false,
      "t": 53141.66666666667,
      "d": 483.33333333333576,
      "v": 69
    },
    {
      "midi": 55,
      "hit": false,
      "t": 53329.166666666664,
      "d": 237.5,
      "v": 79
    },
    {
      "midi": 71,
      "hit": false,
      "t": 53579.16666666667,
      "d": 483.33333333333576,
      "v": 79
    },
    {
      "midi": 59,
      "hit": false,
      "t": 53583.33333333333,
      "d": 229.16666666666424,
      "v": 79
    },
    {
      "midi": 71,
      "hit": false,
      "t": 53583.333333333336,
      "d": 483.33333333333576,
      "v": 55
    },
    {
      "midi": 71,
      "hit": false,
      "t": 53641.66666666667,
      "d": 483.33333333333576,
      "v": 69
    },
    {
      "midi": 50,
      "hit": false,
      "t": 53829.16666666666,
      "d": 237.5,
      "v": 79
    },
    {
      "midi": 69,
      "hit": false,
      "t": 54079.16666666667,
      "d": 733.3333333333358,
      "v": 79
    },
    {
      "midi": 33,
      "hit": false,
      "t": 54083.333333333336,
      "d": 229.16666666666424,
      "v": 79
    },
    {
      "midi": 69,
      "hit": false,
      "t": 54083.333333333336,
      "d": 733.3333333333358,
      "v": 55
    },
    {
      "midi": 69,
      "hit": false,
      "t": 54141.66666666667,
      "d": 733.3333333333358,
      "v": 69
    },
    {
      "midi": 52,
      "hit": false,
      "t": 54329.16666666666,
      "d": 233.33333333333576,
      "v": 79
    },
    {
      "midi": 57,
      "hit": false,
      "t": 54579.16666666666,
      "d": 237.5,
      "v": 79
    },
    {
      "midi": 71,
      "hit": false,
      "t": 54829.16666666667,
      "d": 233.33333333333576,
      "v": 79
    },
    {
      "midi": 60,
      "hit": false,
      "t": 54833.33333333332,
      "d": 233.33333333333576,
      "v": 79
    },
    {
      "midi": 71,
      "hit": false,
      "t": 54833.333333333336,
      "d": 233.33333333333576,
      "v": 55
    },
    {
      "midi": 71,
      "hit": false,
      "t": 54891.66666666667,
      "d": 233.33333333333576,
      "v": 69
    },
    {
      "midi": 69,
      "hit": false,
      "t": 55079.16666666667,
      "d": 483.33333333333576,
      "v": 79
    },
    {
      "midi": 52,
      "hit": false,
      "t": 55083.33333333332,
      "d": 229.16666666666424,
      "v": 79
    },
    {
      "midi": 69,
      "hit": false,
      "t": 55083.333333333336,
      "d": 483.33333333333576,
      "v": 55
    },
    {
      "midi": 69,
      "hit": false,
      "t": 55141.66666666667,
      "d": 483.33333333333576,
      "v": 69
    },
    {
      "midi": 57,
      "hit": false,
      "t": 55329.16666666665,
      "d": 237.5,
      "v": 79
    },
    {
      "midi": 67,
      "hit": false,
      "t": 55579.16666666667,
      "d": 483.33333333333576,
      "v": 79
    },
    {
      "midi": 60,
      "hit": false,
      "t": 55583.333333333314,
      "d": 229.16666666666424,
      "v": 79
    },
    {
      "midi": 67,
      "hit": false,
      "t": 55583.333333333336,
      "d": 483.33333333333576,
      "v": 55
    },
    {
      "midi": 67,
      "hit": false,
      "t": 55641.66666666667,
      "d": 483.33333333333576,
      "v": 69
    },
    {
      "midi": 52,
      "hit": false,
      "t": 55829.16666666664,
      "d": 237.5,
      "v": 79
    },
    {
      "midi": 64,
      "hit": false,
      "t": 56079.16666666667,
      "d": 983.3333333333358,
      "v": 79
    },
    {
      "midi": 28,
      "hit": false,
      "t": 56083.333333333336,
      "d": 229.16666666666424,
      "v": 79
    },
    {
      "midi": 64,
      "hit": false,
      "t": 56083.333333333336,
      "d": 983.3333333333358,
      "v": 55
    },
    {
      "midi": 64,
      "hit": false,
      "t": 56141.66666666667,
      "d": 983.3333333333358,
      "v": 69
    },
    {
      "midi": 35,
      "hit": false,
      "t": 56329.166666666664,
      "d": 233.33333333333576,
      "v": 79
    },
    {
      "midi": 52,
      "hit": false,
      "t": 56579.16666666664,
      "d": 233.33333333333576,
      "v": 79
    },
    {
      "midi": 59,
      "hit": false,
      "t": 56829.16666666664,
      "d": 237.5,
      "v": 79
    },
    {
      "midi": 69,
      "hit": false,
      "t": 57079.16666666667,
      "d": 483.33333333333576,
      "v": 79
    },
    {
      "midi": 35,
      "hit": false,
      "t": 57083.333333333336,
      "d": 229.16666666666424,
      "v": 79
    },
    {
      "midi": 69,
      "hit": false,
      "t": 57083.333333333336,
      "d": 483.33333333333576,
      "v": 55
    },
    {
      "midi": 69,
      "hit": false,
      "t": 57141.66666666667,
      "d": 483.33333333333576,
      "v": 69
    },
    {
      "midi": 52,
      "hit": false,
      "t": 57329.16666666664,
      "d": 237.5,
      "v": 79
    },
    {
      "midi": 71,
      "hit": false,
      "t": 57579.16666666667,
      "d": 483.33333333333576,
      "v": 79
    },
    {
      "midi": 59,
      "hit": false,
      "t": 57583.33333333331,
      "d": 229.16666666666424,
      "v": 79
    },
    {
      "midi": 71,
      "hit": false,
      "t": 57583.333333333336,
      "d": 483.33333333333576,
      "v": 55
    },
    {
      "midi": 71,
      "hit": false,
      "t": 57641.66666666667,
      "d": 483.33333333333576,
      "v": 69
    },
    {
      "midi": 35,
      "hit": false,
      "t": 57829.166666666664,
      "d": 237.5,
      "v": 79
    },
    {
      "midi": 72,
      "hit": false,
      "t": 58079.16666666667,
      "d": 983.3333333333358,
      "v": 79
    },
    {
      "midi": 33,
      "hit": false,
      "t": 58083.33333333333,
      "d": 229.16666666666424,
      "v": 79
    },
    {
      "midi": 72,
      "hit": false,
      "t": 58083.333333333336,
      "d": 983.3333333333358,
      "v": 55
    },
    {
      "midi": 72,
      "hit": false,
      "t": 58141.66666666667,
      "d": 983.3333333333358,
      "v": 69
    },
    {
      "midi": 52,
      "hit": false,
      "t": 58329.166666666635,
      "d": 233.33333333333576,
      "v": 79
    },
    {
      "midi": 57,
      "hit": false,
      "t": 58579.166666666635,
      "d": 233.33333333333576,
      "v": 79
    },
    {
      "midi": 60,
      "hit": false,
      "t": 58829.166666666635,
      "d": 237.5,
      "v": 79
    },
    {
      "midi": 74,
      "hit": false,
      "t": 59079.16666666667,
      "d": 483.33333333333576,
      "v": 79
    },
    {
      "midi": 52,
      "hit": false,
      "t": 59083.3333333333,
      "d": 229.16666666666424,
      "v": 79
    },
    {
      "midi": 74,
      "hit": false,
      "t": 59083.333333333336,
      "d": 483.33333333333576,
      "v": 55
    },
    {
      "midi": 74,
      "hit": false,
      "t": 59141.66666666667,
      "d": 483.33333333333576,
      "v": 69
    },
    {
      "midi": 57,
      "hit": false,
      "t": 59329.16666666663,
      "d": 237.5,
      "v": 79
    },
    {
      "midi": 72,
      "hit": false,
      "t": 59579.16666666667,
      "d": 483.33333333333576,
      "v": 79
    },
    {
      "midi": 60,
      "hit": false,
      "t": 59583.33333333329,
      "d": 229.16666666666424,
      "v": 79
    },
    {
      "midi": 72,
      "hit": false,
      "t": 59583.333333333336,
      "d": 483.33333333333576,
      "v": 55
    },
    {
      "midi": 72,
      "hit": false,
      "t": 59641.66666666667,
      "d": 483.33333333333576,
      "v": 69
    },
    {
      "midi": 52,
      "hit": false,
      "t": 59829.16666666662,
      "d": 237.5,
      "v": 79
    },
    {
      "midi": 31,
      "hit": false,
      "t": 60079.16666666666,
      "d": 233.33333333333576,
      "v": 79
    },
    {
      "midi": 71,
      "hit": false,
      "t": 60079.16666666667,
      "d": 983.3333333333358,
      "v": 79
    },
    {
      "midi": 71,
      "hit": false,
      "t": 60083.333333333336,
      "d": 983.3333333333358,
      "v": 55
    },
    {
      "midi": 71,
      "hit": false,
      "t": 60141.66666666667,
      "d": 983.3333333333358,
      "v": 69
    },
    {
      "midi": 50,
      "hit": false,
      "t": 60329.16666666662,
      "d": 233.33333333333576,
      "v": 79
    },
    {
      "midi": 55,
      "hit": false,
      "t": 60579.16666666662,
      "d": 233.33333333333576,
      "v": 79
    },
    {
      "midi": 59,
      "hit": false,
      "t": 60829.16666666662,
      "d": 233.33333333333576,
      "v": 79
    },
    {
      "midi": 69,
      "hit": false,
      "t": 61079.16666666667,
      "d": 733.3333333333358,
      "v": 79
    },
    {
      "midi": 50,
      "hit": false,
      "t": 61083.33333333329,
      "d": 229.16666666666424,
      "v": 79
    },
    {
      "midi": 69,
      "hit": false,
      "t": 61083.333333333336,
      "d": 733.3333333333358,
      "v": 55
    },
    {
      "midi": 69,
      "hit": false,
      "t": 61141.66666666667,
      "d": 733.3333333333358,
      "v": 69
    },
    {
      "midi": 55,
      "hit": false,
      "t": 61329.16666666662,
      "d": 233.33333333333576,
      "v": 79
    },
    {
      "midi": 59,
      "hit": false,
      "t": 61579.16666666662,
      "d": 233.33333333333576,
      "v": 79
    },
    {
      "midi": 50,
      "hit": false,
      "t": 61829.16666666662,
      "d": 233.33333333333576,
      "v": 79
    },
    {
      "midi": 67,
      "hit": false,
      "t": 61829.16666666667,
      "d": 233.33333333333576,
      "v": 79
    },
    {
      "midi": 67,
      "hit": false,
      "t": 61833.333333333336,
      "d": 233.33333333333576,
      "v": 55
    },
    {
      "midi": 67,
      "hit": false,
      "t": 61891.66666666667,
      "d": 233.33333333333576,
      "v": 69
    },
    {
      "midi": 33,
      "hit": false,
      "t": 62079.16666666666,
      "d": 233.33333333333576,
      "v": 79
    },
    {
      "midi": 71,
      "hit": false,
      "t": 62079.16666666667,
      "d": 483.33333333333576,
      "v": 79
    },
    {
      "midi": 71,
      "hit": false,
      "t": 62083.333333333336,
      "d": 483.33333333333576,
      "v": 55
    },
    {
      "midi": 71,
      "hit": false,
      "t": 62141.66666666667,
      "d": 483.33333333333576,
      "v": 69
    },
    {
      "midi": 52,
      "hit": false,
      "t": 62329.16666666662,
      "d": 233.33333333333576,
      "v": 79
    },
    {
      "midi": 57,
      "hit": false,
      "t": 62579.16666666662,
      "d": 233.33333333333576,
      "v": 79
    },
    {
      "midi": 69,
      "hit": false,
      "t": 62579.16666666667,
      "d": 2983.3333333333285,
      "v": 79
    },
    {
      "midi": 69,
      "hit": false,
      "t": 62583.333333333336,
      "d": 1479.1666666666642,
      "v": 55
    },
    {
      "midi": 69,
      "hit": false,
      "t": 62641.66666666667,
      "d": 2983.3333333333285,
      "v": 69
    },
    {
      "midi": 60,
      "hit": false,
      "t": 62829.16666666662,
      "d": 233.33333333333576,
      "v": 79
    },
    {
      "midi": 52,
      "hit": false,
      "t": 63079.16666666662,
      "d": 233.33333333333576,
      "v": 79
    },
    {
      "midi": 57,
      "hit": false,
      "t": 63329.16666666662,
      "d": 233.33333333333576,
      "v": 79
    },
    {
      "midi": 60,
      "hit": false,
      "t": 63579.16666666662,
      "d": 233.33333333333576,
      "v": 79
    },
    {
      "midi": 52,
      "hit": false,
      "t": 63829.16666666662,
      "d": 237.5,
      "v": 79
    },
    {
      "midi": 60,
      "hit": false,
      "t": 64079.16666666662,
      "d": 1987.5000000000073,
      "v": 79
    },
    {
      "midi": 33,
      "hit": false,
      "t": 64079.16666666666,
      "d": 1987.5,
      "v": 79
    },
    {
      "midi": 69,
      "hit": false,
      "t": 65579.16666666667,
      "d": 233.33333333332848,
      "v": 79
    },
    {
      "midi": 69,
      "hit": false,
      "t": 65583.33333333336,
      "d": 229.16666666667152,
      "v": 50
    },
    {
      "midi": 69,
      "hit": false,
      "t": 65641.66666666667,
      "d": 233.33333333332848,
      "v": 69
    },
    {
      "midi": 71,
      "hit": false,
      "t": 65829.16666666667,
      "d": 237.5,
      "v": 79
    },
    {
      "midi": 71,
      "hit": false,
      "t": 65829.1666666667,
      "d": 233.33333333332848,
      "v": 50
    },
    {
      "midi": 71,
      "hit": false,
      "t": 65891.66666666667,
      "d": 237.5,
      "v": 69
    },
    {
      "midi": 88,
      "hit": false,
      "t": 66066.66666666661,
      "d": 1920.8333333333285,
      "v": 20
    },
    {
      "midi": 33,
      "hit": false,
      "t": 66079.16666666666,
      "d": 233.33333333332848,
      "v": 79
    },
    {
      "midi": 72,
      "hit": false,
      "t": 66079.16666666667,
      "d": 1483.3333333333285,
      "v": 79
    },
    {
      "midi": 72,
      "hit": false,
      "t": 66083.33333333336,
      "d": 1483.3333333333285,
      "v": 50
    },
    {
      "midi": 72,
      "hit": false,
      "t": 66141.66666666667,
      "d": 1483.3333333333285,
      "v": 69
    },
    {
      "midi": 52,
      "hit": false,
      "t": 66329.16666666663,
      "d": 233.33333333332848,
      "v": 79
    },
    {
      "midi": 57,
      "hit": false,
      "t": 66579.16666666663,
      "d": 233.33333333332848,
      "v": 79
    },
    {
      "midi": 60,
      "hit": false,
      "t": 66829.16666666663,
      "d": 233.33333333332848,
      "v": 79
    },
    {
      "midi": 52,
      "hit": false,
      "t": 67079.16666666663,
      "d": 233.33333333332848,
      "v": 79
    },
    {
      "midi": 57,
      "hit": false,
      "t": 67329.16666666663,
      "d": 233.33333333332848,
      "v": 79
    },
    {
      "midi": 60,
      "hit": false,
      "t": 67579.16666666663,
      "d": 233.33333333332848,
      "v": 79
    },
    {
      "midi": 74,
      "hit": false,
      "t": 67579.16666666667,
      "d": 233.33333333332848,
      "v": 79
    },
    {
      "midi": 74,
      "hit": false,
      "t": 67583.33333333336,
      "d": 233.33333333332848,
      "v": 50
    },
    {
      "midi": 74,
      "hit": false,
      "t": 67641.66666666667,
      "d": 233.33333333332848,
      "v": 69
    },
    {
      "midi": 52,
      "hit": false,
      "t": 67829.16666666663,
      "d": 233.33333333332848,
      "v": 79
    },
    {
      "midi": 72,
      "hit": false,
      "t": 67829.16666666667,
      "d": 233.33333333332848,
      "v": 79
    },
    {
      "midi": 72,
      "hit": false,
      "t": 67833.33333333336,
      "d": 233.33333333332848,
      "v": 50
    },
    {
      "midi": 72,
      "hit": false,
      "t": 67891.66666666667,
      "d": 233.33333333332848,
      "v": 69
    },
    {
      "midi": 86,
      "hit": false,
      "t": 68012.49999999994,
      "d": 2091.666666666657,
      "v": 20
    },
    {
      "midi": 31,
      "hit": false,
      "t": 68079.16666666666,
      "d": 233.33333333332848,
      "v": 79
    },
    {
      "midi": 71,
      "hit": false,
      "t": 68079.16666666667,
      "d": 1483.3333333333285,
      "v": 79
    },
    {
      "midi": 71,
      "hit": false,
      "t": 68083.33333333336,
      "d": 1483.3333333333285,
      "v": 50
    },
    {
      "midi": 71,
      "hit": false,
      "t": 68141.66666666667,
      "d": 1483.3333333333285,
      "v": 69
    },
    {
      "midi": 50,
      "hit": false,
      "t": 68329.16666666663,
      "d": 233.33333333332848,
      "v": 79
    },
    {
      "midi": 55,
      "hit": false,
      "t": 68579.16666666663,
      "d": 233.33333333332848,
      "v": 79
    },
    {
      "midi": 59,
      "hit": false,
      "t": 68829.16666666663,
      "d": 233.33333333332848,
      "v": 79
    },
    {
      "midi": 50,
      "hit": false,
      "t": 69079.16666666663,
      "d": 233.33333333332848,
      "v": 79
    },
    {
      "midi": 55,
      "hit": false,
      "t": 69329.16666666663,
      "d": 233.33333333332848,
      "v": 79
    },
    {
      "midi": 59,
      "hit": false,
      "t": 69579.16666666663,
      "d": 233.33333333332848,
      "v": 79
    },
    {
      "midi": 72,
      "hit": false,
      "t": 69579.16666666667,
      "d": 233.33333333332848,
      "v": 79
    },
    {
      "midi": 72,
      "hit": false,
      "t": 69583.33333333336,
      "d": 233.33333333332848,
      "v": 50
    },
    {
      "midi": 72,
      "hit": false,
      "t": 69641.66666666667,
      "d": 233.33333333332848,
      "v": 69
    },
    {
      "midi": 50,
      "hit": false,
      "t": 69829.16666666663,
      "d": 233.33333333332848,
      "v": 79
    },
    {
      "midi": 71,
      "hit": false,
      "t": 69829.16666666667,
      "d": 233.33333333332848,
      "v": 79
    },
    {
      "midi": 71,
      "hit": false,
      "t": 69833.33333333336,
      "d": 233.33333333332848,
      "v": 50
    },
    {
      "midi": 71,
      "hit": false,
      "t": 69891.66666666667,
      "d": 233.33333333332848,
      "v": 69
    },
    {
      "midi": 84,
      "hit": false,
      "t": 70058.33333333327,
      "d": 2016.6666666666715,
      "v": 20
    },
    {
      "midi": 33,
      "hit": false,
      "t": 70079.16666666666,
      "d": 233.33333333332848,
      "v": 79
    },
    {
      "midi": 69,
      "hit": false,
      "t": 70079.16666666667,
      "d": 1233.3333333333285,
      "v": 79
    },
    {
      "midi": 69,
      "hit": false,
      "t": 70083.33333333336,
      "d": 1233.3333333333285,
      "v": 50
    },
    {
      "midi": 69,
      "hit": false,
      "t": 70141.66666666667,
      "d": 1233.3333333333285,
      "v": 69
    },
    {
      "midi": 52,
      "hit": false,
      "t": 70329.16666666663,
      "d": 233.33333333332848,
      "v": 79
    },
    {
      "midi": 57,
      "hit": false,
      "t": 70579.16666666663,
      "d": 233.33333333332848,
      "v": 79
    },
    {
      "midi": 60,
      "hit": false,
      "t": 70829.16666666663,
      "d": 233.33333333332848,
      "v": 79
    },
    {
      "midi": 52,
      "hit": false,
      "t": 71079.16666666663,
      "d": 233.33333333332848,
      "v": 79
    },
    {
      "midi": 57,
      "hit": false,
      "t": 71329.16666666663,
      "d": 233.33333333332848,
      "v": 79
    },
    {
      "midi": 71,
      "hit": false,
      "t": 71329.16666666667,
      "d": 233.33333333332848,
      "v": 79
    },
    {
      "midi": 71,
      "hit": false,
      "t": 71333.33333333336,
      "d": 233.33333333332848,
      "v": 50
    },
    {
      "midi": 71,
      "hit": false,
      "t": 71391.66666666667,
      "d": 233.33333333332848,
      "v": 69
    },
    {
      "midi": 60,
      "hit": false,
      "t": 71579.16666666663,
      "d": 233.33333333332848,
      "v": 79
    },
    {
      "midi": 69,
      "hit": false,
      "t": 71579.16666666667,
      "d": 233.33333333332848,
      "v": 79
    },
    {
      "midi": 69,
      "hit": false,
      "t": 71583.33333333336,
      "d": 233.33333333332848,
      "v": 50
    },
    {
      "midi": 69,
      "hit": false,
      "t": 71641.66666666667,
      "d": 233.33333333332848,
      "v": 69
    },
    {
      "midi": 52,
      "hit": false,
      "t": 71829.16666666663,
      "d": 233.33333333332848,
      "v": 79
    },
    {
      "midi": 67,
      "hit": false,
      "t": 71829.16666666667,
      "d": 233.33333333332848,
      "v": 79
    },
    {
      "midi": 67,
      "hit": false,
      "t": 71833.33333333336,
      "d": 233.33333333332848,
      "v": 50
    },
    {
      "midi": 67,
      "hit": false,
      "t": 71891.66666666667,
      "d": 233.33333333332848,
      "v": 69
    },
    {
      "midi": 83,
      "hit": false,
      "t": 72070.83333333327,
      "d": 1487.5,
      "v": 20
    },
    {
      "midi": 28,
      "hit": false,
      "t": 72079.16666666666,
      "d": 233.33333333332848,
      "v": 79
    },
    {
      "midi": 64,
      "hit": false,
      "t": 72079.16666666667,
      "d": 1483.3333333333285,
      "v": 79
    },
    {
      "midi": 64,
      "hit": false,
      "t": 72083.33333333336,
      "d": 1483.3333333333285,
      "v": 50
    },
    {
      "midi": 64,
      "hit": false,
      "t": 72141.66666666667,
      "d": 1483.3333333333285,
      "v": 69
    },
    {
      "midi": 35,
      "hit": false,
      "t": 72329.16666666666,
      "d": 233.33333333332848,
      "v": 79
    },
    {
      "midi": 52,
      "hit": false,
      "t": 72579.16666666663,
      "d": 233.33333333332848,
      "v": 79
    },
    {
      "midi": 59,
      "hit": false,
      "t": 72829.16666666663,
      "d": 233.33333333332848,
      "v": 79
    },
    {
      "midi": 35,
      "hit": false,
      "t": 73079.16666666666,
      "d": 233.33333333332848,
      "v": 79
    },
    {
      "midi": 52,
      "hit": false,
      "t": 73329.16666666663,
      "d": 233.33333333332848,
      "v": 79
    },
    {
      "midi": 84,
      "hit": false,
      "t": 73545.83333333327,
      "d": 495.8333333333285,
      "v": 20
    },
    {
      "midi": 59,
      "hit": false,
      "t": 73579.16666666663,
      "d": 233.33333333332848,
      "v": 79
    },
    {
      "midi": 69,
      "hit": false,
      "t": 73579.16666666667,
      "d": 233.33333333332848,
      "v": 79
    },
    {
      "midi": 69,
      "hit": false,
      "t": 73583.33333333336,
      "d": 233.33333333332848,
      "v": 50
    },
    {
      "midi": 69,
      "hit": false,
      "t": 73641.66666666667,
      "d": 233.33333333332848,
      "v": 69
    },
    {
      "midi": 35,
      "hit": false,
      "t": 73829.16666666666,
      "d": 233.33333333332848,
      "v": 79
    },
    {
      "midi": 71,
      "hit": false,
      "t": 73829.16666666667,
      "d": 233.33333333332848,
      "v": 79
    },
    {
      "midi": 71,
      "hit": false,
      "t": 73833.33333333336,
      "d": 233.33333333332848,
      "v": 50
    },
    {
      "midi": 71,
      "hit": false,
      "t": 73891.66666666667,
      "d": 233.33333333332848,
      "v": 69
    },
    {
      "midi": 33,
      "hit": false,
      "t": 74079.16666666666,
      "d": 233.33333333332848,
      "v": 79
    },
    {
      "midi": 72,
      "hit": false,
      "t": 74079.16666666667,
      "d": 983.3333333333285,
      "v": 79
    },
    {
      "midi": 72,
      "hit": false,
      "t": 74083.33333333336,
      "d": 983.3333333333285,
      "v": 50
    },
    {
      "midi": 72,
      "hit": false,
      "t": 74141.66666666667,
      "d": 983.3333333333285,
      "v": 69
    },
    {
      "midi": 88,
      "hit": false,
      "t": 74158.33333333327,
      "d": 1891.6666666666715,
      "v": 20
    },
    {
      "midi": 52,
      "hit": false,
      "t": 74329.16666666663,
      "d": 233.33333333332848,
      "v": 79
    },
    {
      "midi": 57,
      "hit": false,
      "t": 74579.16666666663,
      "d": 233.33333333332848,
      "v": 79
    },
    {
      "midi": 60,
      "hit": false,
      "t": 74829.16666666663,
      "d": 233.33333333332848,
      "v": 79
    },
    {
      "midi": 52,
      "hit": false,
      "t": 75079.16666666663,
      "d": 233.33333333332848,
      "v": 79
    },
    {
      "midi": 71,
      "hit": false,
      "t": 75079.16666666667,
      "d": 483.3333333333285,
      "v": 79
    },
    {
      "midi": 71,
      "hit": false,
      "t": 75079.16666666669,
      "d": 487.5,
      "v": 50
    },
    {
      "midi": 71,
      "hit": false,
      "t": 75141.66666666667,
      "d": 483.3333333333285,
      "v": 69
    },
    {
      "midi": 57,
      "hit": false,
      "t": 75329.16666666663,
      "d": 233.33333333332848,
      "v": 79
    },
    {
      "midi": 60,
      "hit": false,
      "t": 75579.16666666663,
      "d": 233.33333333332848,
      "v": 79
    },
    {
      "midi": 72,
      "hit": false,
      "t": 75579.16666666667,
      "d": 483.3333333333285,
      "v": 79
    },
    {
      "midi": 72,
      "hit": false,
      "t": 75579.16666666669,
      "d": 487.5,
      "v": 50
    },
    {
      "midi": 72,
      "hit": false,
      "t": 75641.66666666667,
      "d": 483.3333333333285,
      "v": 69
    },
    {
      "midi": 52,
      "hit": false,
      "t": 75829.16666666663,
      "d": 233.33333333332848,
      "v": 79
    },
    {
      "midi": 86,
      "hit": false,
      "t": 76062.49999999994,
      "d": 1979.1666666666715,
      "v": 20
    },
    {
      "midi": 31,
      "hit": false,
      "t": 76079.16666666666,
      "d": 233.33333333332848,
      "v": 79
    },
    {
      "midi": 74,
      "hit": false,
      "t": 76079.16666666667,
      "d": 983.3333333333285,
      "v": 79
    },
    {
      "midi": 74,
      "hit": false,
      "t": 76079.16666666669,
      "d": 987.5,
      "v": 50
    },
    {
      "midi": 74,
      "hit": false,
      "t": 76141.66666666667,
      "d": 983.3333333333285,
      "v": 69
    },
    {
      "midi": 50,
      "hit": false,
      "t": 76329.16666666663,
      "d": 233.33333333332848,
      "v": 79
    },
    {
      "midi": 55,
      "hit": false,
      "t": 76579.16666666663,
      "d": 233.33333333332848,
      "v": 79
    },
    {
      "midi": 59,
      "hit": false,
      "t": 76829.16666666663,
      "d": 233.33333333332848,
      "v": 79
    },
    {
      "midi": 50,
      "hit": false,
      "t": 77079.16666666663,
      "d": 233.33333333332848,
      "v": 79
    },
    {
      "midi": 72,
      "hit": false,
      "t": 77079.16666666667,
      "d": 483.3333333333285,
      "v": 79
    },
    {
      "midi": 72,
      "hit": false,
      "t": 77083.33333333336,
      "d": 483.3333333333285,
      "v": 50
    },
    {
      "midi": 72,
      "hit": false,
      "t": 77141.66666666667,
      "d": 483.3333333333285,
      "v": 69
    },
    {
      "midi": 55,
      "hit": false,
      "t": 77329.16666666663,
      "d": 233.33333333332848,
      "v": 79
    },
    {
      "midi": 59,
      "hit": false,
      "t": 77579.16666666663,
      "d": 233.33333333332848,
      "v": 79
    },
    {
      "midi": 74,
      "hit": false,
      "t": 77579.16666666667,
      "d": 483.3333333333285,
      "v": 79
    },
    {
      "midi": 74,
      "hit": false,
      "t": 77583.33333333336,
      "d": 483.3333333333285,
      "v": 50
    },
    {
      "midi": 74,
      "hit": false,
      "t": 77641.66666666667,
      "d": 483.3333333333285,
      "v": 69
    },
    {
      "midi": 50,
      "hit": false,
      "t": 77829.16666666663,
      "d": 233.33333333332848,
      "v": 79
    },
    {
      "midi": 88,
      "hit": false,
      "t": 78049.99999999994,
      "d": 2016.6666666666715,
      "v": 20
    },
    {
      "midi": 33,
      "hit": false,
      "t": 78079.16666666666,
      "d": 233.33333333332848,
      "v": 79
    },
    {
      "midi": 76,
      "hit": false,
      "t": 78079.16666666667,
      "d": 2983.3333333333285,
      "v": 79
    },
    {
      "midi": 76,
      "hit": false,
      "t": 78079.16666666669,
      "d": 2987.5,
      "v": 30
    },
    {
      "midi": 76,
      "hit": false,
      "t": 78141.66666666667,
      "d": 2983.3333333333285,
      "v": 69
    },
    {
      "midi": 52,
      "hit": false,
      "t": 78329.16666666663,
      "d": 233.33333333332848,
      "v": 79
    },
    {
      "midi": 57,
      "hit": false,
      "t": 78579.16666666663,
      "d": 233.33333333332848,
      "v": 79
    },
    {
      "midi": 60,
      "hit": false,
      "t": 78829.16666666663,
      "d": 233.33333333332848,
      "v": 79
    },
    {
      "midi": 52,
      "hit": false,
      "t": 79079.16666666663,
      "d": 233.33333333332848,
      "v": 79
    },
    {
      "midi": 57,
      "hit": false,
      "t": 79329.16666666663,
      "d": 233.33333333332848,
      "v": 79
    },
    {
      "midi": 60,
      "hit": false,
      "t": 79579.16666666663,
      "d": 233.33333333332848,
      "v": 79
    },
    {
      "midi": 52,
      "hit": false,
      "t": 79829.16666666663,
      "d": 233.33333333332848,
      "v": 79
    },
    {
      "midi": 81,
      "hit": false,
      "t": 80079.16666666661,
      "d": 1025,
      "v": 20
    },
    {
      "midi": 28,
      "hit": false,
      "t": 80079.16666666666,
      "d": 233.33333333332848,
      "v": 79
    },
    {
      "midi": 35,
      "hit": false,
      "t": 80329.16666666666,
      "d": 233.33333333332848,
      "v": 79
    },
    {
      "midi": 52,
      "hit": false,
      "t": 80579.16666666663,
      "d": 233.33333333332848,
      "v": 79
    },
    {
      "midi": 59,
      "hit": false,
      "t": 80829.16666666663,
      "d": 233.33333333332848,
      "v": 79
    },
    {
      "midi": 35,
      "hit": false,
      "t": 81079.16666666666,
      "d": 233.33333333332848,
      "v": 79
    },
    {
      "midi": 69,
      "hit": false,
      "t": 81079.16666666667,
      "d": 483.3333333333285,
      "v": 79
    },
    {
      "midi": 69,
      "hit": false,
      "t": 81079.16666666669,
      "d": 487.5,
      "v": 50
    },
    {
      "midi": 83,
      "hit": false,
      "t": 81083.33333333328,
      "d": 1008.3333333333285,
      "v": 20
    },
    {
      "midi": 69,
      "hit": false,
      "t": 81141.66666666667,
      "d": 483.3333333333285,
      "v": 69
    },
    {
      "midi": 52,
      "hit": false,
      "t": 81329.16666666663,
      "d": 233.33333333332848,
      "v": 79
    },
    {
      "midi": 59,
      "hit": false,
      "t": 81579.16666666663,
      "d": 233.33333333332848,
      "v": 79
    },
    {
      "midi": 71,
      "hit": false,
      "t": 81579.16666666667,
      "d": 483.3333333333285,
      "v": 79
    },
    {
      "midi": 71,
      "hit": false,
      "t": 81579.16666666669,
      "d": 483.3333333333285,
      "v": 50
    },
    {
      "midi": 71,
      "hit": false,
      "t": 81641.66666666667,
      "d": 483.3333333333285,
      "v": 69
    },
    {
      "midi": 35,
      "hit": false,
      "t": 81829.16666666666,
      "d": 237.5,
      "v": 79
    },
    {
      "midi": 33,
      "hit": false,
      "t": 82079.16666666666,
      "d": 233.33333333332848,
      "v": 79
    },
    {
      "midi": 72,
      "hit": false,
      "t": 82079.16666666667,
      "d": 983.3333333333285,
      "v": 79
    },
    {
      "midi": 72,
      "hit": false,
      "t": 82079.16666666669,
      "d": 987.5,
      "v": 50
    },
    {
      "midi": 88,
      "hit": false,
      "t": 82087.49999999994,
      "d": 2008.333333333343,
      "v": 20
    },
    {
      "midi": 72,
      "hit": false,
      "t": 82141.66666666667,
      "d": 983.3333333333285,
      "v": 69
    },
    {
      "midi": 52,
      "hit": false,
      "t": 82329.16666666663,
      "d": 233.33333333332848,
      "v": 79
    },
    {
      "midi": 57,
      "hit": false,
      "t": 82579.16666666663,
      "d": 233.33333333332848,
      "v": 79
    },
    {
      "midi": 60,
      "hit": false,
      "t": 82829.16666666663,
      "d": 233.33333333332848,
      "v": 79
    },
    {
      "midi": 52,
      "hit": false,
      "t": 83079.16666666663,
      "d": 233.33333333332848,
      "v": 79
    },
    {
      "midi": 74,
      "hit": false,
      "t": 83079.16666666667,
      "d": 483.3333333333285,
      "v": 79
    },
    {
      "midi": 74,
      "hit": false,
      "t": 83079.16666666669,
      "d": 487.5,
      "v": 50
    },
    {
      "midi": 74,
      "hit": false,
      "t": 83141.66666666667,
      "d": 483.3333333333285,
      "v": 69
    },
    {
      "midi": 57,
      "hit": false,
      "t": 83329.16666666663,
      "d": 233.33333333332848,
      "v": 79
    },
    {
      "midi": 60,
      "hit": false,
      "t": 83579.16666666663,
      "d": 233.33333333332848,
      "v": 79
    },
    {
      "midi": 72,
      "hit": false,
      "t": 83579.16666666667,
      "d": 483.3333333333285,
      "v": 79
    },
    {
      "midi": 72,
      "hit": false,
      "t": 83579.16666666669,
      "d": 487.5,
      "v": 50
    },
    {
      "midi": 72,
      "hit": false,
      "t": 83641.66666666667,
      "d": 483.3333333333285,
      "v": 69
    },
    {
      "midi": 52,
      "hit": false,
      "t": 83829.16666666663,
      "d": 233.33333333332848,
      "v": 79
    },
    {
      "midi": 31,
      "hit": false,
      "t": 84079.16666666666,
      "d": 233.33333333332848,
      "v": 79
    },
    {
      "midi": 71,
      "hit": false,
      "t": 84079.16666666667,
      "d": 983.3333333333285,
      "v": 79
    },
    {
      "midi": 71,
      "hit": false,
      "t": 84079.16666666669,
      "d": 987.5,
      "v": 50
    },
    {
      "midi": 86,
      "hit": false,
      "t": 84095.83333333328,
      "d": 2037.5,
      "v": 20
    },
    {
      "midi": 71,
      "hit": false,
      "t": 84141.66666666667,
      "d": 983.3333333333285,
      "v": 69
    },
    {
      "midi": 50,
      "hit": false,
      "t": 84329.16666666663,
      "d": 233.33333333332848,
      "v": 79
    },
    {
      "midi": 55,
      "hit": false,
      "t": 84579.16666666663,
      "d": 233.33333333332848,
      "v": 79
    },
    {
      "midi": 59,
      "hit": false,
      "t": 84829.16666666663,
      "d": 233.33333333332848,
      "v": 79
    },
    {
      "midi": 50,
      "hit": false,
      "t": 85079.16666666663,
      "d": 233.33333333332848,
      "v": 79
    },
    {
      "midi": 72,
      "hit": false,
      "t": 85079.16666666667,
      "d": 483.3333333333285,
      "v": 79
    },
    {
      "midi": 72,
      "hit": false,
      "t": 85079.16666666669,
      "d": 487.5,
      "v": 50
    },
    {
      "midi": 72,
      "hit": false,
      "t": 85141.66666666667,
      "d": 483.3333333333285,
      "v": 69
    },
    {
      "midi": 55,
      "hit": false,
      "t": 85329.16666666663,
      "d": 233.33333333332848,
      "v": 79
    },
    {
      "midi": 59,
      "hit": false,
      "t": 85579.16666666663,
      "d": 233.33333333332848,
      "v": 79
    },
    {
      "midi": 71,
      "hit": false,
      "t": 85579.16666666667,
      "d": 483.3333333333285,
      "v": 79
    },
    {
      "midi": 71,
      "hit": false,
      "t": 85579.16666666669,
      "d": 483.3333333333285,
      "v": 50
    },
    {
      "midi": 71,
      "hit": false,
      "t": 85641.66666666667,
      "d": 483.3333333333285,
      "v": 69
    },
    {
      "midi": 50,
      "hit": false,
      "t": 85829.16666666663,
      "d": 233.33333333332848,
      "v": 79
    },
    {
      "midi": 33,
      "hit": false,
      "t": 86079.16666666666,
      "d": 233.33333333332848,
      "v": 79
    },
    {
      "midi": 69,
      "hit": false,
      "t": 86079.16666666667,
      "d": 733.3333333333285,
      "v": 79
    },
    {
      "midi": 69,
      "hit": false,
      "t": 86079.16666666669,
      "d": 737.5,
      "v": 50
    },
    {
      "midi": 84,
      "hit": false,
      "t": 86099.99999999996,
      "d": 1954.166666666657,
      "v": 20
    },
    {
      "midi": 69,
      "hit": false,
      "t": 86141.66666666667,
      "d": 733.3333333333285,
      "v": 69
    },
    {
      "midi": 52,
      "hit": false,
      "t": 86329.16666666663,
      "d": 233.33333333332848,
      "v": 79
    },
    {
      "midi": 57,
      "hit": false,
      "t": 86579.16666666663,
      "d": 233.33333333332848,
      "v": 79
    },
    {
      "midi": 60,
      "hit": false,
      "t": 86829.16666666663,
      "d": 233.33333333332848,
      "v": 79
    },
    {
      "midi": 71,
      "hit": false,
      "t": 86829.16666666667,
      "d": 233.33333333332848,
      "v": 79
    },
    {
      "midi": 71,
      "hit": false,
      "t": 86829.16666666669,
      "d": 233.33333333332848,
      "v": 50
    },
    {
      "midi": 71,
      "hit": false,
      "t": 86891.66666666667,
      "d": 233.33333333332848,
      "v": 69
    },
    {
      "midi": 52,
      "hit": false,
      "t": 87079.16666666663,
      "d": 233.33333333332848,
      "v": 79
    },
    {
      "midi": 69,
      "hit": false,
      "t": 87079.16666666667,
      "d": 483.3333333333285,
      "v": 79
    },
    {
      "midi": 69,
      "hit": false,
      "t": 87079.16666666669,
      "d": 487.5,
      "v": 50
    },
    {
      "midi": 69,
      "hit": false,
      "t": 87141.66666666667,
      "d": 483.3333333333285,
      "v": 69
    },
    {
      "midi": 57,
      "hit": false,
      "t": 87329.16666666663,
      "d": 233.33333333332848,
      "v": 79
    },
    {
      "midi": 60,
      "hit": false,
      "t": 87579.16666666663,
      "d": 233.33333333332848,
      "v": 79
    },
    {
      "midi": 67,
      "hit": false,
      "t": 87579.16666666667,
      "d": 483.3333333333285,
      "v": 79
    },
    {
      "midi": 67,
      "hit": false,
      "t": 87579.16666666669,
      "d": 487.5,
      "v": 50
    },
    {
      "midi": 67,
      "hit": false,
      "t": 87641.66666666667,
      "d": 483.3333333333285,
      "v": 69
    },
    {
      "midi": 52,
      "hit": false,
      "t": 87829.16666666663,
      "d": 233.33333333332848,
      "v": 79
    },
    {
      "midi": 28,
      "hit": false,
      "t": 88079.16666666666,
      "d": 233.33333333332848,
      "v": 79
    },
    {
      "midi": 64,
      "hit": false,
      "t": 88079.16666666667,
      "d": 983.3333333333285,
      "v": 79
    },
    {
      "midi": 64,
      "hit": false,
      "t": 88079.16666666669,
      "d": 983.3333333333285,
      "v": 50
    },
    {
      "midi": 83,
      "hit": false,
      "t": 88083.33333333328,
      "d": 1495.8333333333285,
      "v": 20
    },
    {
      "midi": 64,
      "hit": false,
      "t": 88141.66666666667,
      "d": 983.3333333333285,
      "v": 69
    },
    {
      "midi": 35,
      "hit": false,
      "t": 88329.16666666666,
      "d": 233.33333333332848,
      "v": 79
    },
    {
      "midi": 52,
      "hit": false,
      "t": 88579.16666666663,
      "d": 233.33333333332848,
      "v": 79
    },
    {
      "midi": 59,
      "hit": false,
      "t": 88829.16666666663,
      "d": 233.33333333332848,
      "v": 79
    },
    {
      "midi": 35,
      "hit": false,
      "t": 89079.16666666666,
      "d": 233.33333333332848,
      "v": 79
    },
    {
      "midi": 69,
      "hit": false,
      "t": 89079.16666666667,
      "d": 483.3333333333285,
      "v": 79
    },
    {
      "midi": 69,
      "hit": false,
      "t": 89079.16666666669,
      "d": 483.3333333333285,
      "v": 50
    },
    {
      "midi": 69,
      "hit": false,
      "t": 89141.66666666667,
      "d": 483.3333333333285,
      "v": 69
    },
    {
      "midi": 52,
      "hit": false,
      "t": 89329.16666666663,
      "d": 233.33333333332848,
      "v": 79
    },
    {
      "midi": 84,
      "hit": false,
      "t": 89566.66666666661,
      "d": 491.6666666666715,
      "v": 20
    },
    {
      "midi": 59,
      "hit": false,
      "t": 89579.16666666663,
      "d": 233.33333333332848,
      "v": 79
    },
    {
      "midi": 71,
      "hit": false,
      "t": 89579.16666666667,
      "d": 483.3333333333285,
      "v": 79
    },
    {
      "midi": 71,
      "hit": false,
      "t": 89579.16666666669,
      "d": 483.3333333333285,
      "v": 50
    },
    {
      "midi": 71,
      "hit": false,
      "t": 89641.66666666667,
      "d": 483.3333333333285,
      "v": 69
    },
    {
      "midi": 35,
      "hit": false,
      "t": 89829.16666666666,
      "d": 233.33333333332848,
      "v": 79
    },
    {
      "midi": 33,
      "hit": false,
      "t": 90079.16666666666,
      "d": 233.33333333332848,
      "v": 79
    },
    {
      "midi": 72,
      "hit": false,
      "t": 90079.16666666667,
      "d": 983.3333333333285,
      "v": 79
    },
    {
      "midi": 72,
      "hit": false,
      "t": 90079.16666666669,
      "d": 983.3333333333285,
      "v": 50
    },
    {
      "midi": 88,
      "hit": false,
      "t": 90116.66666666661,
      "d": 1954.1666666666715,
      "v": 20
    },
    {
      "midi": 72,
      "hit": false,
      "t": 90141.66666666667,
      "d": 983.3333333333285,
      "v": 69
    },
    {
      "midi": 52,
      "hit": false,
      "t": 90329.16666666663,
      "d": 233.33333333332848,
      "v": 79
    },
    {
      "midi": 57,
      "hit": false,
      "t": 90579.16666666663,
      "d": 233.33333333332848,
      "v": 79
    },
    {
      "midi": 60,
      "hit": false,
      "t": 90829.16666666663,
      "d": 233.33333333332848,
      "v": 79
    },
    {
      "midi": 52,
      "hit": false,
      "t": 91079.16666666663,
      "d": 233.33333333332848,
      "v": 79
    },
    {
      "midi": 74,
      "hit": false,
      "t": 91079.16666666667,
      "d": 483.3333333333285,
      "v": 79
    },
    {
      "midi": 74,
      "hit": false,
      "t": 91079.16666666669,
      "d": 483.3333333333285,
      "v": 50
    },
    {
      "midi": 74,
      "hit": false,
      "t": 91141.66666666667,
      "d": 483.3333333333285,
      "v": 69
    },
    {
      "midi": 57,
      "hit": false,
      "t": 91329.16666666663,
      "d": 233.33333333332848,
      "v": 79
    },
    {
      "midi": 60,
      "hit": false,
      "t": 91579.16666666663,
      "d": 233.33333333332848,
      "v": 79
    },
    {
      "midi": 72,
      "hit": false,
      "t": 91579.16666666667,
      "d": 483.3333333333285,
      "v": 79
    },
    {
      "midi": 72,
      "hit": false,
      "t": 91579.16666666669,
      "d": 483.3333333333285,
      "v": 50
    },
    {
      "midi": 72,
      "hit": false,
      "t": 91641.66666666667,
      "d": 483.3333333333285,
      "v": 69
    },
    {
      "midi": 52,
      "hit": false,
      "t": 91829.16666666663,
      "d": 233.33333333332848,
      "v": 79
    },
    {
      "midi": 31,
      "hit": false,
      "t": 92079.16666666666,
      "d": 233.33333333332848,
      "v": 79
    },
    {
      "midi": 71,
      "hit": false,
      "t": 92079.16666666667,
      "d": 983.3333333333285,
      "v": 79
    },
    {
      "midi": 71,
      "hit": false,
      "t": 92079.16666666669,
      "d": 983.3333333333285,
      "v": 50
    },
    {
      "midi": 86,
      "hit": false,
      "t": 92083.33333333328,
      "d": 1975,
      "v": 20
    },
    {
      "midi": 71,
      "hit": false,
      "t": 92141.66666666667,
      "d": 983.3333333333285,
      "v": 69
    },
    {
      "midi": 50,
      "hit": false,
      "t": 92329.16666666663,
      "d": 233.33333333332848,
      "v": 79
    },
    {
      "midi": 55,
      "hit": false,
      "t": 92579.16666666663,
      "d": 233.33333333332848,
      "v": 79
    },
    {
      "midi": 59,
      "hit": false,
      "t": 92829.16666666663,
      "d": 233.33333333332848,
      "v": 79
    },
    {
      "midi": 50,
      "hit": false,
      "t": 93079.16666666663,
      "d": 233.33333333332848,
      "v": 79
    },
    {
      "midi": 69,
      "hit": false,
      "t": 93079.16666666667,
      "d": 733.3333333333285,
      "v": 79
    },
    {
      "midi": 69,
      "hit": false,
      "t": 93079.16666666669,
      "d": 733.3333333333285,
      "v": 50
    },
    {
      "midi": 69,
      "hit": false,
      "t": 93141.66666666667,
      "d": 733.3333333333285,
      "v": 69
    },
    {
      "midi": 55,
      "hit": false,
      "t": 93329.16666666663,
      "d": 233.33333333332848,
      "v": 79
    },
    {
      "midi": 59,
      "hit": false,
      "t": 93579.16666666663,
      "d": 233.33333333332848,
      "v": 79
    },
    {
      "midi": 50,
      "hit": false,
      "t": 93829.16666666663,
      "d": 233.33333333332848,
      "v": 79
    },
    {
      "midi": 67,
      "hit": false,
      "t": 93829.16666666667,
      "d": 233.33333333332848,
      "v": 79
    },
    {
      "midi": 67,
      "hit": false,
      "t": 93829.16666666669,
      "d": 233.33333333332848,
      "v": 50
    },
    {
      "midi": 67,
      "hit": false,
      "t": 93891.66666666667,
      "d": 233.33333333332848,
      "v": 69
    },
    {
      "midi": 81,
      "hit": false,
      "t": 94058.33333333328,
      "d": 1666.6666666667297,
      "v": 20
    },
    {
      "midi": 33,
      "hit": false,
      "t": 94079.16666666666,
      "d": 233.33333333332848,
      "v": 79
    },
    {
      "midi": 71,
      "hit": false,
      "t": 94079.16666666667,
      "d": 483.3333333333285,
      "v": 79
    },
    {
      "midi": 71,
      "hit": false,
      "t": 94079.16666666669,
      "d": 483.3333333333285,
      "v": 50
    },
    {
      "midi": 71,
      "hit": false,
      "t": 94141.66666666667,
      "d": 483.3333333333285,
      "v": 69
    },
    {
      "midi": 52,
      "hit": false,
      "t": 94329.16666666663,
      "d": 233.33333333332848,
      "v": 79
    },
    {
      "midi": 57,
      "hit": false,
      "t": 94579.16666666663,
      "d": 233.33333333332848,
      "v": 79
    },
    {
      "midi": 69,
      "hit": false,
      "t": 94579.16666666667,
      "d": 2983.3333333333285,
      "v": 79
    },
    {
      "midi": 69,
      "hit": false,
      "t": 94579.16666666669,
      "d": 1483.3333333333285,
      "v": 50
    },
    {
      "midi": 69,
      "hit": false,
      "t": 94641.66666666667,
      "d": 2983.3333333333285,
      "v": 69
    },
    {
      "midi": 60,
      "hit": false,
      "t": 94829.16666666663,
      "d": 233.33333333332848,
      "v": 79
    },
    {
      "midi": 52,
      "hit": false,
      "t": 95079.16666666663,
      "d": 233.33333333332848,
      "v": 79
    },
    {
      "midi": 57,
      "hit": false,
      "t": 95329.16666666663,
      "d": 233.33333333332848,
      "v": 79
    },
    {
      "midi": 60,
      "hit": false,
      "t": 95579.16666666663,
      "d": 233.33333333332848,
      "v": 79
    },
    {
      "midi": 52,
      "hit": false,
      "t": 95829.16666666663,
      "d": 233.33333333332848,
      "v": 79
    },
    {
      "midi": 60,
      "hit": false,
      "t": 96079.16666666663,
      "d": 1483.3333333333285,
      "v": 79
    },
    {
      "midi": 33,
      "hit": false,
      "t": 96079.16666666666,
      "d": 1483.3333333333285,
      "v": 79
    },
    {
      "midi": 72,
      "hit": false,
      "t": 97579.16666666666,
      "d": 233.33333333332848,
      "v": 76
    },
    {
      "midi": 72,
      "hit": false,
      "t": 97579.16666666667,
      "d": 233.33333333332848,
      "v": 79
    },
    {
      "midi": 72,
      "hit": false,
      "t": 97579.16666666669,
      "d": 233.33333333332848,
      "v": 50
    },
    {
      "midi": 72,
      "hit": false,
      "t": 97641.66666666667,
      "d": 233.33333333332848,
      "v": 69
    },
    {
      "midi": 74,
      "hit": false,
      "t": 97829.16666666666,
      "d": 233.33333333332848,
      "v": 76
    },
    {
      "midi": 74,
      "hit": false,
      "t": 97829.16666666667,
      "d": 233.33333333332848,
      "v": 79
    },
    {
      "midi": 74,
      "hit": false,
      "t": 97829.16666666669,
      "d": 233.33333333332848,
      "v": 50
    },
    {
      "midi": 74,
      "hit": false,
      "t": 97891.66666666667,
      "d": 233.33333333332848,
      "v": 69
    },
    {
      "midi": 48,
      "hit": false,
      "t": 98079.16666666663,
      "d": 233.33333333332848,
      "v": 79
    },
    {
      "midi": 76,
      "hit": false,
      "t": 98079.16666666666,
      "d": 233.33333333332848,
      "v": 76
    },
    {
      "midi": 76,
      "hit": false,
      "t": 98079.16666666667,
      "d": 233.33333333332848,
      "v": 79
    },
    {
      "midi": 76,
      "hit": false,
      "t": 98079.16666666669,
      "d": 233.33333333332848,
      "v": 50
    },
    {
      "midi": 76,
      "hit": false,
      "t": 98141.66666666667,
      "d": 233.33333333332848,
      "v": 69
    },
    {
      "midi": 91,
      "hit": false,
      "t": 98200.00000000003,
      "d": 3766.6666666666715,
      "v": 40
    },
    {
      "midi": 88,
      "hit": false,
      "t": 98204.1666666667,
      "d": 3766.6666666666715,
      "v": 40
    },
    {
      "midi": 55,
      "hit": false,
      "t": 98329.16666666663,
      "d": 233.33333333332848,
      "v": 79
    },
    {
      "midi": 74,
      "hit": false,
      "t": 98329.16666666666,
      "d": 983.3333333333285,
      "v": 76
    },
    {
      "midi": 74,
      "hit": false,
      "t": 98329.16666666667,
      "d": 983.3333333333285,
      "v": 79
    },
    {
      "midi": 74,
      "hit": false,
      "t": 98329.16666666669,
      "d": 983.3333333333285,
      "v": 50
    },
    {
      "midi": 74,
      "hit": false,
      "t": 98391.66666666667,
      "d": 983.3333333333285,
      "v": 69
    },
    {
      "midi": 60,
      "hit": false,
      "t": 98579.16666666663,
      "d": 233.33333333332848,
      "v": 79
    },
    {
      "midi": 64,
      "hit": false,
      "t": 98829.16666666663,
      "d": 233.33333333332848,
      "v": 79
    },
    {
      "midi": 55,
      "hit": false,
      "t": 99079.16666666663,
      "d": 233.33333333332848,
      "v": 79
    },
    {
      "midi": 60,
      "hit": false,
      "t": 99329.16666666663,
      "d": 233.33333333332848,
      "v": 79
    },
    {
      "midi": 72,
      "hit": false,
      "t": 99329.16666666666,
      "d": 233.33333333332848,
      "v": 76
    },
    {
      "midi": 72,
      "hit": false,
      "t": 99329.16666666667,
      "d": 233.33333333332848,
      "v": 79
    },
    {
      "midi": 72,
      "hit": false,
      "t": 99329.16666666669,
      "d": 233.33333333332848,
      "v": 50
    },
    {
      "midi": 72,
      "hit": false,
      "t": 99391.66666666667,
      "d": 233.33333333332848,
      "v": 69
    },
    {
      "midi": 64,
      "hit": false,
      "t": 99579.16666666663,
      "d": 233.33333333332848,
      "v": 79
    },
    {
      "midi": 74,
      "hit": false,
      "t": 99579.16666666666,
      "d": 233.33333333332848,
      "v": 76
    },
    {
      "midi": 74,
      "hit": false,
      "t": 99579.16666666667,
      "d": 233.33333333332848,
      "v": 79
    },
    {
      "midi": 74,
      "hit": false,
      "t": 99579.16666666669,
      "d": 233.33333333332848,
      "v": 50
    },
    {
      "midi": 74,
      "hit": false,
      "t": 99641.66666666667,
      "d": 233.33333333332848,
      "v": 69
    },
    {
      "midi": 55,
      "hit": false,
      "t": 99829.16666666663,
      "d": 233.33333333332848,
      "v": 79
    },
    {
      "midi": 76,
      "hit": false,
      "t": 99829.16666666666,
      "d": 1233.3333333333285,
      "v": 76
    },
    {
      "midi": 76,
      "hit": false,
      "t": 99829.16666666667,
      "d": 1233.3333333333285,
      "v": 79
    },
    {
      "midi": 76,
      "hit": false,
      "t": 99829.16666666669,
      "d": 1233.3333333333285,
      "v": 50
    },
    {
      "midi": 76,
      "hit": false,
      "t": 99891.66666666667,
      "d": 1233.3333333333285,
      "v": 69
    },
    {
      "midi": 48,
      "hit": false,
      "t": 100079.16666666663,
      "d": 233.33333333332848,
      "v": 79
    },
    {
      "midi": 55,
      "hit": false,
      "t": 100329.16666666663,
      "d": 233.33333333332848,
      "v": 79
    },
    {
      "midi": 60,
      "hit": false,
      "t": 100579.16666666663,
      "d": 233.33333333332848,
      "v": 79
    },
    {
      "midi": 64,
      "hit": false,
      "t": 100829.16666666663,
      "d": 233.33333333332848,
      "v": 79
    },
    {
      "midi": 55,
      "hit": false,
      "t": 101079.16666666663,
      "d": 233.33333333332848,
      "v": 79
    },
    {
      "midi": 74,
      "hit": false,
      "t": 101079.16666666666,
      "d": 483.3333333333285,
      "v": 76
    },
    {
      "midi": 74,
      "hit": false,
      "t": 101079.16666666667,
      "d": 483.3333333333285,
      "v": 79
    },
    {
      "midi": 74,
      "hit": false,
      "t": 101079.16666666669,
      "d": 483.3333333333285,
      "v": 50
    },
    {
      "midi": 74,
      "hit": false,
      "t": 101141.66666666667,
      "d": 483.3333333333285,
      "v": 69
    },
    {
      "midi": 60,
      "hit": false,
      "t": 101329.16666666663,
      "d": 233.33333333332848,
      "v": 79
    },
    {
      "midi": 64,
      "hit": false,
      "t": 101579.16666666663,
      "d": 233.33333333332848,
      "v": 79
    },
    {
      "midi": 72,
      "hit": false,
      "t": 101579.16666666666,
      "d": 483.3333333333285,
      "v": 76
    },
    {
      "midi": 72,
      "hit": false,
      "t": 101579.16666666667,
      "d": 483.3333333333285,
      "v": 79
    },
    {
      "midi": 72,
      "hit": false,
      "t": 101579.16666666669,
      "d": 483.3333333333285,
      "v": 50
    },
    {
      "midi": 72,
      "hit": false,
      "t": 101641.66666666667,
      "d": 483.3333333333285,
      "v": 69
    },
    {
      "midi": 55,
      "hit": false,
      "t": 101829.16666666663,
      "d": 233.33333333332848,
      "v": 79
    },
    {
      "midi": 31,
      "hit": false,
      "t": 102079.16666666666,
      "d": 233.33333333332848,
      "v": 79
    },
    {
      "midi": 74,
      "hit": false,
      "t": 102079.16666666666,
      "d": 233.33333333332848,
      "v": 76
    },
    {
      "midi": 74,
      "hit": false,
      "t": 102079.16666666667,
      "d": 233.33333333332848,
      "v": 79
    },
    {
      "midi": 74,
      "hit": false,
      "t": 102079.16666666669,
      "d": 233.33333333332848,
      "v": 50
    },
    {
      "midi": 88,
      "hit": false,
      "t": 102116.6666666667,
      "d": 3820.8333333333285,
      "v": 40
    },
    {
      "midi": 93,
      "hit": false,
      "t": 102129.1666666667,
      "d": 3795.8333333333285,
      "v": 40
    },
    {
      "midi": 74,
      "hit": false,
      "t": 102141.66666666667,
      "d": 233.33333333332848,
      "v": 69
    },
    {
      "midi": 50,
      "hit": false,
      "t": 102329.16666666663,
      "d": 233.33333333332848,
      "v": 79
    },
    {
      "midi": 72,
      "hit": false,
      "t": 102329.16666666666,
      "d": 733.3333333333285,
      "v": 76
    },
    {
      "midi": 72,
      "hit": false,
      "t": 102329.16666666667,
      "d": 733.3333333333285,
      "v": 79
    },
    {
      "midi": 72,
      "hit": false,
      "t": 102329.16666666669,
      "d": 733.3333333333285,
      "v": 50
    },
    {
      "midi": 72,
      "hit": false,
      "t": 102391.66666666667,
      "d": 733.3333333333285,
      "v": 69
    },
    {
      "midi": 55,
      "hit": false,
      "t": 102579.16666666663,
      "d": 233.33333333332848,
      "v": 79
    },
    {
      "midi": 59,
      "hit": false,
      "t": 102829.16666666663,
      "d": 233.33333333332848,
      "v": 79
    },
    {
      "midi": 50,
      "hit": false,
      "t": 103079.16666666663,
      "d": 233.33333333332848,
      "v": 79
    },
    {
      "midi": 71,
      "hit": false,
      "t": 103079.16666666666,
      "d": 483.3333333333285,
      "v": 76
    },
    {
      "midi": 71,
      "hit": false,
      "t": 103079.16666666667,
      "d": 483.3333333333285,
      "v": 79
    },
    {
      "midi": 71,
      "hit": false,
      "t": 103079.16666666669,
      "d": 483.3333333333285,
      "v": 50
    },
    {
      "midi": 71,
      "hit": false,
      "t": 103141.66666666667,
      "d": 483.3333333333285,
      "v": 69
    },
    {
      "midi": 55,
      "hit": false,
      "t": 103329.16666666663,
      "d": 233.33333333332848,
      "v": 79
    },
    {
      "midi": 59,
      "hit": false,
      "t": 103579.16666666663,
      "d": 233.33333333332848,
      "v": 79
    },
    {
      "midi": 72,
      "hit": false,
      "t": 103579.16666666666,
      "d": 233.33333333332848,
      "v": 76
    },
    {
      "midi": 72,
      "hit": false,
      "t": 103579.16666666667,
      "d": 233.33333333332848,
      "v": 79
    },
    {
      "midi": 72,
      "hit": false,
      "t": 103579.16666666669,
      "d": 233.33333333332848,
      "v": 50
    },
    {
      "midi": 72,
      "hit": false,
      "t": 103641.66666666667,
      "d": 233.33333333332848,
      "v": 69
    },
    {
      "midi": 50,
      "hit": false,
      "t": 103829.16666666663,
      "d": 233.33333333332848,
      "v": 79
    },
    {
      "midi": 74,
      "hit": false,
      "t": 103829.16666666666,
      "d": 1233.3333333333285,
      "v": 76
    },
    {
      "midi": 74,
      "hit": false,
      "t": 103829.16666666667,
      "d": 1233.3333333333285,
      "v": 79
    },
    {
      "midi": 74,
      "hit": false,
      "t": 103829.16666666669,
      "d": 1233.3333333333285,
      "v": 50
    },
    {
      "midi": 74,
      "hit": false,
      "t": 103891.66666666667,
      "d": 1233.3333333333285,
      "v": 69
    },
    {
      "midi": 31,
      "hit": false,
      "t": 104079.16666666666,
      "d": 233.33333333332848,
      "v": 79
    },
    {
      "midi": 50,
      "hit": false,
      "t": 104329.16666666663,
      "d": 233.33333333332848,
      "v": 79
    },
    {
      "midi": 55,
      "hit": false,
      "t": 104579.16666666663,
      "d": 233.33333333332848,
      "v": 79
    },
    {
      "midi": 59,
      "hit": false,
      "t": 104829.16666666663,
      "d": 233.33333333332848,
      "v": 79
    },
    {
      "midi": 50,
      "hit": false,
      "t": 105079.16666666663,
      "d": 233.33333333332848,
      "v": 79
    },
    {
      "midi": 72,
      "hit": false,
      "t": 105079.16666666666,
      "d": 483.3333333333285,
      "v": 76
    },
    {
      "midi": 72,
      "hit": false,
      "t": 105079.16666666667,
      "d": 483.3333333333285,
      "v": 79
    },
    {
      "midi": 72,
      "hit": false,
      "t": 105079.16666666669,
      "d": 483.3333333333285,
      "v": 50
    },
    {
      "midi": 72,
      "hit": false,
      "t": 105141.66666666667,
      "d": 483.3333333333285,
      "v": 69
    },
    {
      "midi": 55,
      "hit": false,
      "t": 105329.16666666663,
      "d": 233.33333333332848,
      "v": 79
    },
    {
      "midi": 59,
      "hit": false,
      "t": 105579.16666666663,
      "d": 233.33333333332848,
      "v": 79
    },
    {
      "midi": 71,
      "hit": false,
      "t": 105579.16666666666,
      "d": 483.3333333333285,
      "v": 76
    },
    {
      "midi": 71,
      "hit": false,
      "t": 105579.16666666667,
      "d": 483.3333333333285,
      "v": 79
    },
    {
      "midi": 71,
      "hit": false,
      "t": 105579.16666666669,
      "d": 483.3333333333285,
      "v": 50
    },
    {
      "midi": 71,
      "hit": false,
      "t": 105641.66666666667,
      "d": 483.3333333333285,
      "v": 69
    },
    {
      "midi": 50,
      "hit": false,
      "t": 105829.16666666663,
      "d": 233.33333333332848,
      "v": 79
    },
    {
      "midi": 88,
      "hit": false,
      "t": 106075.00000000003,
      "d": 2925,
      "v": 40
    },
    {
      "midi": 33,
      "hit": false,
      "t": 106079.16666666666,
      "d": 229.16666666667152,
      "v": 79
    },
    {
      "midi": 72,
      "hit": false,
      "t": 106079.16666666666,
      "d": 983.3333333333285,
      "v": 76
    },
    {
      "midi": 72,
      "hit": false,
      "t": 106079.16666666667,
      "d": 983.3333333333285,
      "v": 79
    },
    {
      "midi": 72,
      "hit": false,
      "t": 106079.16666666669,
      "d": 983.3333333333285,
      "v": 50
    },
    {
      "midi": 96,
      "hit": false,
      "t": 106079.1666666667,
      "d": 945.8333333333285,
      "v": 40
    },
    {
      "midi": 72,
      "hit": false,
      "t": 106141.66666666667,
      "d": 983.3333333333285,
      "v": 69
    },
    {
      "midi": 52,
      "hit": false,
      "t": 106329.16666666663,
      "d": 233.33333333332848,
      "v": 79
    },
    {
      "midi": 57,
      "hit": false,
      "t": 106574.99999999996,
      "d": 237.5,
      "v": 79
    },
    {
      "midi": 60,
      "hit": false,
      "t": 106829.16666666663,
      "d": 233.33333333332848,
      "v": 79
    },
    {
      "midi": 52,
      "hit": false,
      "t": 107079.16666666663,
      "d": 229.16666666667152,
      "v": 79
    },
    {
      "midi": 69,
      "hit": false,
      "t": 107079.16666666666,
      "d": 483.3333333333285,
      "v": 76
    },
    {
      "midi": 69,
      "hit": false,
      "t": 107079.16666666667,
      "d": 479.1666666666715,
      "v": 79
    },
    {
      "midi": 69,
      "hit": false,
      "t": 107079.16666666669,
      "d": 483.3333333333285,
      "v": 50
    },
    {
      "midi": 95,
      "hit": false,
      "t": 107125.00000000003,
      "d": 887.5,
      "v": 40
    },
    {
      "midi": 69,
      "hit": false,
      "t": 107141.66666666667,
      "d": 479.1666666666715,
      "v": 69
    },
    {
      "midi": 57,
      "hit": false,
      "t": 107329.16666666663,
      "d": 233.33333333332848,
      "v": 79
    },
    {
      "midi": 71,
      "hit": false,
      "t": 107575.00000000001,
      "d": 233.33333333332848,
      "v": 79
    },
    {
      "midi": 60,
      "hit": false,
      "t": 107579.16666666663,
      "d": 233.33333333332848,
      "v": 79
    },
    {
      "midi": 71,
      "hit": false,
      "t": 107579.16666666666,
      "d": 233.33333333332848,
      "v": 76
    },
    {
      "midi": 71,
      "hit": false,
      "t": 107579.16666666669,
      "d": 233.33333333332848,
      "v": 50
    },
    {
      "midi": 71,
      "hit": false,
      "t": 107637.50000000001,
      "d": 233.33333333332848,
      "v": 69
    },
    {
      "midi": 72,
      "hit": false,
      "t": 107825.00000000001,
      "d": 1483.3333333333285,
      "v": 79
    },
    {
      "midi": 52,
      "hit": false,
      "t": 107829.16666666663,
      "d": 229.16666666667152,
      "v": 79
    },
    {
      "midi": 72,
      "hit": false,
      "t": 107829.16666666666,
      "d": 1483.3333333333285,
      "v": 76
    },
    {
      "midi": 72,
      "hit": false,
      "t": 107829.16666666669,
      "d": 1483.3333333333285,
      "v": 50
    },
    {
      "midi": 72,
      "hit": false,
      "t": 107887.50000000001,
      "d": 1483.3333333333285,
      "v": 69
    },
    {
      "midi": 33,
      "hit": false,
      "t": 108075,
      "d": 237.5,
      "v": 79
    },
    {
      "midi": 93,
      "hit": false,
      "t": 108095.83333333336,
      "d": 891.6666666666715,
      "v": 40
    },
    {
      "midi": 52,
      "hit": false,
      "t": 108324.99999999997,
      "d": 233.33333333332848,
      "v": 79
    },
    {
      "midi": 57,
      "hit": false,
      "t": 108574.99999999997,
      "d": 233.33333333332848,
      "v": 79
    },
    {
      "midi": 60,
      "hit": false,
      "t": 108824.99999999997,
      "d": 233.33333333332848,
      "v": 79
    },
    {
      "midi": 52,
      "hit": false,
      "t": 109074.99999999997,
      "d": 237.5,
      "v": 79
    },
    {
      "midi": 96,
      "hit": false,
      "t": 109087.50000000003,
      "d": 862.5,
      "v": 40
    },
    {
      "midi": 88,
      "hit": false,
      "t": 109091.6666666667,
      "d": 4908.3333333333285,
      "v": 40
    },
    {
      "midi": 57,
      "hit": false,
      "t": 109329.16666666664,
      "d": 229.16666666667152,
      "v": 79
    },
    {
      "midi": 71,
      "hit": false,
      "t": 109329.16666666666,
      "d": 483.3333333333285,
      "v": 76
    },
    {
      "midi": 71,
      "hit": false,
      "t": 109329.16666666667,
      "d": 479.1666666666715,
      "v": 79
    },
    {
      "midi": 71,
      "hit": false,
      "t": 109329.16666666669,
      "d": 483.3333333333285,
      "v": 50
    },
    {
      "midi": 71,
      "hit": false,
      "t": 109391.66666666667,
      "d": 479.1666666666715,
      "v": 69
    },
    {
      "midi": 60,
      "hit": false,
      "t": 109574.99999999999,
      "d": 237.5,
      "v": 79
    },
    {
      "midi": 69,
      "hit": false,
      "t": 109825.00000000001,
      "d": 233.33333333332848,
      "v": 79
    },
    {
      "midi": 69,
      "hit": false,
      "t": 109829.16666666666,
      "d": 233.33333333332848,
      "v": 76
    },
    {
      "midi": 52,
      "hit": false,
      "t": 109829.16666666666,
      "d": 233.33333333332848,
      "v": 79
    },
    {
      "midi": 69,
      "hit": false,
      "t": 109829.16666666669,
      "d": 233.33333333332848,
      "v": 50
    },
    {
      "midi": 69,
      "hit": false,
      "t": 109887.50000000001,
      "d": 233.33333333332848,
      "v": 69
    },
    {
      "midi": 67,
      "hit": false,
      "t": 110075.00000000001,
      "d": 3483.3333333333285,
      "v": 79
    },
    {
      "midi": 67,
      "hit": false,
      "t": 110079.16666666666,
      "d": 3483.3333333333285,
      "v": 76
    },
    {
      "midi": 28,
      "hit": false,
      "t": 110079.16666666667,
      "d": 229.16666666667152,
      "v": 79
    },
    {
      "midi": 67,
      "hit": false,
      "t": 110079.16666666669,
      "d": 3483.3333333333285,
      "v": 50
    },
    {
      "midi": 95,
      "hit": false,
      "t": 110100.00000000003,
      "d": 1900,
      "v": 40
    },
    {
      "midi": 67,
      "hit": false,
      "t": 110137.50000000001,
      "d": 3483.3333333333285,
      "v": 69
    },
    {
      "midi": 35,
      "hit": false,
      "t": 110325.00000000001,
      "d": 233.33333333332848,
      "v": 79
    },
    {
      "midi": 52,
      "hit": false,
      "t": 110574.99999999999,
      "d": 233.33333333332848,
      "v": 79
    },
    {
      "midi": 59,
      "hit": false,
      "t": 110824.99999999999,
      "d": 233.33333333332848,
      "v": 79
    },
    {
      "midi": 35,
      "hit": false,
      "t": 111075.00000000001,
      "d": 233.33333333332848,
      "v": 79
    },
    {
      "midi": 52,
      "hit": false,
      "t": 111324.99999999999,
      "d": 233.33333333332848,
      "v": 79
    },
    {
      "midi": 59,
      "hit": false,
      "t": 111574.99999999999,
      "d": 233.33333333332848,
      "v": 79
    },
    {
      "midi": 35,
      "hit": false,
      "t": 111825.00000000001,
      "d": 233.33333333332848,
      "v": 79
    },
    {
      "midi": 28,
      "hit": false,
      "t": 112075.00000000001,
      "d": 233.33333333332848,
      "v": 79
    },
    {
      "midi": 91,
      "hit": false,
      "t": 112087.50000000003,
      "d": 1891.6666666666715,
      "v": 40
    },
    {
      "midi": 35,
      "hit": false,
      "t": 112325.00000000001,
      "d": 233.33333333332848,
      "v": 79
    },
    {
      "midi": 52,
      "hit": false,
      "t": 112574.99999999999,
      "d": 233.33333333332848,
      "v": 79
    },
    {
      "midi": 59,
      "hit": false,
      "t": 112824.99999999999,
      "d": 233.33333333332848,
      "v": 79
    },
    {
      "midi": 35,
      "hit": false,
      "t": 113075.00000000001,
      "d": 233.33333333332848,
      "v": 79
    },
    {
      "midi": 52,
      "hit": false,
      "t": 113324.99999999999,
      "d": 237.5,
      "v": 79
    },
    {
      "midi": 69,
      "hit": false,
      "t": 113575.00000000001,
      "d": 233.33333333332848,
      "v": 79
    },
    {
      "midi": 69,
      "hit": false,
      "t": 113579.16666666666,
      "d": 233.33333333332848,
      "v": 76
    },
    {
      "midi": 59,
      "hit": false,
      "t": 113579.16666666666,
      "d": 233.33333333332848,
      "v": 79
    },
    {
      "midi": 69,
      "hit": false,
      "t": 113579.16666666669,
      "d": 233.33333333332848,
      "v": 50
    },
    {
      "midi": 69,
      "hit": false,
      "t": 113637.50000000001,
      "d": 233.33333333332848,
      "v": 69
    },
    {
      "midi": 71,
      "hit": false,
      "t": 113825.00000000001,
      "d": 233.33333333332848,
      "v": 79
    },
    {
      "midi": 71,
      "hit": false,
      "t": 113829.16666666666,
      "d": 233.33333333332848,
      "v": 76
    },
    {
      "midi": 35,
      "hit": false,
      "t": 113829.16666666667,
      "d": 233.33333333332848,
      "v": 79
    },
    {
      "midi": 71,
      "hit": false,
      "t": 113829.16666666669,
      "d": 233.33333333332848,
      "v": 50
    },
    {
      "midi": 71,
      "hit": false,
      "t": 113887.50000000001,
      "d": 233.33333333332848,
      "v": 69
    },
    {
      "midi": 72,
      "hit": false,
      "t": 114075.00000000001,
      "d": 233.33333333332848,
      "v": 79
    },
    {
      "midi": 72,
      "hit": false,
      "t": 114079.16666666666,
      "d": 233.33333333332848,
      "v": 76
    },
    {
      "midi": 33,
      "hit": false,
      "t": 114079.16666666667,
      "d": 233.33333333332848,
      "v": 79
    },
    {
      "midi": 72,
      "hit": false,
      "t": 114079.16666666669,
      "d": 233.33333333332848,
      "v": 50
    },
    {
      "midi": 93,
      "hit": false,
      "t": 114116.6666666667,
      "d": 1920.833333333343,
      "v": 40
    },
    {
      "midi": 88,
      "hit": false,
      "t": 114120.83333333337,
      "d": 3850.0000000000146,
      "v": 40
    },
    {
      "midi": 72,
      "hit": false,
      "t": 114137.50000000001,
      "d": 233.33333333332848,
      "v": 69
    },
    {
      "midi": 71,
      "hit": false,
      "t": 114325.00000000001,
      "d": 733.3333333333285,
      "v": 79
    },
    {
      "midi": 71,
      "hit": false,
      "t": 114329.16666666666,
      "d": 733.3333333333285,
      "v": 76
    },
    {
      "midi": 52,
      "hit": false,
      "t": 114329.16666666666,
      "d": 229.16666666667152,
      "v": 79
    },
    {
      "midi": 71,
      "hit": false,
      "t": 114329.16666666669,
      "d": 733.3333333333285,
      "v": 50
    },
    {
      "midi": 71,
      "hit": false,
      "t": 114387.50000000001,
      "d": 733.3333333333285,
      "v": 69
    },
    {
      "midi": 57,
      "hit": false,
      "t": 114575,
      "d": 233.33333333332848,
      "v": 79
    },
    {
      "midi": 60,
      "hit": false,
      "t": 114825,
      "d": 233.33333333332848,
      "v": 79
    },
    {
      "midi": 52,
      "hit": false,
      "t": 115075,
      "d": 233.33333333332848,
      "v": 79
    },
    {
      "midi": 69,
      "hit": false,
      "t": 115075.00000000001,
      "d": 483.3333333333285,
      "v": 79
    },
    {
      "midi": 69,
      "hit": false,
      "t": 115079.16666666666,
      "d": 483.3333333333285,
      "v": 76
    },
    {
      "midi": 69,
      "hit": false,
      "t": 115079.16666666669,
      "d": 483.3333333333285,
      "v": 50
    },
    {
      "midi": 69,
      "hit": false,
      "t": 115137.50000000001,
      "d": 483.3333333333285,
      "v": 69
    },
    {
      "midi": 57,
      "hit": false,
      "t": 115325,
      "d": 233.33333333332848,
      "v": 79
    },
    {
      "midi": 72,
      "hit": false,
      "t": 115575.00000000001,
      "d": 233.33333333332848,
      "v": 79
    },
    {
      "midi": 72,
      "hit": false,
      "t": 115579.16666666666,
      "d": 233.33333333332848,
      "v": 76
    },
    {
      "midi": 60,
      "hit": false,
      "t": 115579.16666666666,
      "d": 229.16666666667152,
      "v": 79
    },
    {
      "midi": 72,
      "hit": false,
      "t": 115579.16666666669,
      "d": 233.33333333332848,
      "v": 50
    },
    {
      "midi": 72,
      "hit": false,
      "t": 115637.50000000001,
      "d": 233.33333333332848,
      "v": 69
    },
    {
      "midi": 52,
      "hit": false,
      "t": 115825,
      "d": 233.33333333332848,
      "v": 79
    },
    {
      "midi": 71,
      "hit": false,
      "t": 115825.00000000001,
      "d": 1733.3333333333285,
      "v": 79
    },
    {
      "midi": 71,
      "hit": false,
      "t": 115829.16666666666,
      "d": 1733.3333333333285,
      "v": 76
    },
    {
      "midi": 71,
      "hit": false,
      "t": 115829.16666666669,
      "d": 1733.3333333333285,
      "v": 50
    },
    {
      "midi": 71,
      "hit": false,
      "t": 115887.50000000001,
      "d": 1733.3333333333285,
      "v": 69
    },
    {
      "midi": 31,
      "hit": false,
      "t": 116075,
      "d": 233.33333333332848,
      "v": 79
    },
    {
      "midi": 91,
      "hit": false,
      "t": 116116.66666666672,
      "d": 1854.1666666666715,
      "v": 40
    },
    {
      "midi": 50,
      "hit": false,
      "t": 116325,
      "d": 233.33333333332848,
      "v": 79
    },
    {
      "midi": 55,
      "hit": false,
      "t": 116575,
      "d": 233.33333333332848,
      "v": 79
    },
    {
      "midi": 59,
      "hit": false,
      "t": 116825,
      "d": 233.33333333332848,
      "v": 79
    },
    {
      "midi": 50,
      "hit": false,
      "t": 117075,
      "d": 233.33333333332848,
      "v": 79
    },
    {
      "midi": 55,
      "hit": false,
      "t": 117325,
      "d": 233.33333333332848,
      "v": 79
    },
    {
      "midi": 59,
      "hit": false,
      "t": 117575,
      "d": 233.33333333332848,
      "v": 79
    },
    {
      "midi": 72,
      "hit": false,
      "t": 117575.00000000001,
      "d": 233.33333333332848,
      "v": 79
    },
    {
      "midi": 72,
      "hit": false,
      "t": 117579.16666666666,
      "d": 233.33333333332848,
      "v": 76
    },
    {
      "midi": 72,
      "hit": false,
      "t": 117579.16666666669,
      "d": 233.33333333332848,
      "v": 50
    },
    {
      "midi": 72,
      "hit": false,
      "t": 117637.50000000001,
      "d": 233.33333333332848,
      "v": 69
    },
    {
      "midi": 50,
      "hit": false,
      "t": 117825,
      "d": 233.33333333332848,
      "v": 79
    },
    {
      "midi": 71,
      "hit": false,
      "t": 117825.00000000001,
      "d": 233.33333333332848,
      "v": 79
    },
    {
      "midi": 71,
      "hit": false,
      "t": 117829.16666666666,
      "d": 233.33333333332848,
      "v": 76
    },
    {
      "midi": 71,
      "hit": false,
      "t": 117829.16666666669,
      "d": 233.33333333332848,
      "v": 50
    },
    {
      "midi": 71,
      "hit": false,
      "t": 117887.50000000001,
      "d": 233.33333333332848,
      "v": 69
    },
    {
      "midi": 33,
      "hit": false,
      "t": 118075,
      "d": 233.33333333332848,
      "v": 79
    },
    {
      "midi": 72,
      "hit": false,
      "t": 118075.00000000001,
      "d": 733.3333333333285,
      "v": 79
    },
    {
      "midi": 72,
      "hit": false,
      "t": 118079.16666666666,
      "d": 733.3333333333285,
      "v": 76
    },
    {
      "midi": 72,
      "hit": false,
      "t": 118079.16666666669,
      "d": 733.3333333333285,
      "v": 50
    },
    {
      "midi": 93,
      "hit": false,
      "t": 118100.00000000006,
      "d": 1858.3333333333285,
      "v": 40
    },
    {
      "midi": 88,
      "hit": false,
      "t": 118100.00000000006,
      "d": 1866.666666666657,
      "v": 40
    },
    {
      "midi": 72,
      "hit": false,
      "t": 118137.50000000001,
      "d": 733.3333333333285,
      "v": 69
    },
    {
      "midi": 52,
      "hit": false,
      "t": 118325,
      "d": 233.33333333332848,
      "v": 79
    },
    {
      "midi": 57,
      "hit": false,
      "t": 118575,
      "d": 233.33333333332848,
      "v": 79
    },
    {
      "midi": 60,
      "hit": false,
      "t": 118825,
      "d": 233.33333333332848,
      "v": 79
    },
    {
      "midi": 71,
      "hit": false,
      "t": 118825.00000000001,
      "d": 233.33333333332848,
      "v": 79
    },
    {
      "midi": 71,
      "hit": false,
      "t": 118829.16666666666,
      "d": 233.33333333332848,
      "v": 76
    },
    {
      "midi": 71,
      "hit": false,
      "t": 118829.16666666669,
      "d": 233.33333333332848,
      "v": 50
    },
    {
      "midi": 71,
      "hit": false,
      "t": 118887.50000000001,
      "d": 233.33333333332848,
      "v": 69
    },
    {
      "midi": 52,
      "hit": false,
      "t": 119075,
      "d": 233.33333333332848,
      "v": 79
    },
    {
      "midi": 69,
      "hit": false,
      "t": 119075.00000000001,
      "d": 233.33333333332848,
      "v": 79
    },
    {
      "midi": 69,
      "hit": false,
      "t": 119079.16666666666,
      "d": 233.33333333332848,
      "v": 76
    },
    {
      "midi": 69,
      "hit": false,
      "t": 119079.16666666669,
      "d": 233.33333333332848,
      "v": 50
    },
    {
      "midi": 69,
      "hit": false,
      "t": 119137.50000000001,
      "d": 233.33333333332848,
      "v": 69
    },
    {
      "midi": 57,
      "hit": false,
      "t": 119325,
      "d": 233.33333333332848,
      "v": 79
    },
    {
      "midi": 67,
      "hit": false,
      "t": 119325.00000000001,
      "d": 483.3333333333285,
      "v": 79
    },
    {
      "midi": 67,
      "hit": false,
      "t": 119329.16666666666,
      "d": 483.3333333333285,
      "v": 76
    },
    {
      "midi": 67,
      "hit": false,
      "t": 119329.16666666669,
      "d": 483.3333333333285,
      "v": 50
    },
    {
      "midi": 67,
      "hit": false,
      "t": 119387.50000000001,
      "d": 483.3333333333285,
      "v": 69
    },
    {
      "midi": 60,
      "hit": false,
      "t": 119575,
      "d": 237.5,
      "v": 79
    },
    {
      "midi": 52,
      "hit": false,
      "t": 119825,
      "d": 233.33333333332848,
      "v": 79
    },
    {
      "midi": 64,
      "hit": false,
      "t": 119825.00000000001,
      "d": 1233.3333333333285,
      "v": 79
    },
    {
      "midi": 64,
      "hit": false,
      "t": 119829.16666666666,
      "d": 1233.3333333333285,
      "v": 76
    },
    {
      "midi": 64,
      "hit": false,
      "t": 119829.16666666669,
      "d": 1233.3333333333285,
      "v": 50
    },
    {
      "midi": 64,
      "hit": false,
      "t": 119887.50000000001,
      "d": 1233.3333333333285,
      "v": 69
    },
    {
      "midi": 95,
      "hit": false,
      "t": 120066.66666666672,
      "d": 1883.333333333343,
      "v": 40
    },
    {
      "midi": 28,
      "hit": false,
      "t": 120075,
      "d": 233.33333333332848,
      "v": 79
    },
    {
      "midi": 88,
      "hit": false,
      "t": 120083.33333333339,
      "d": 1908.333333333343,
      "v": 40
    },
    {
      "midi": 35,
      "hit": false,
      "t": 120325,
      "d": 233.33333333332848,
      "v": 79
    },
    {
      "midi": 52,
      "hit": false,
      "t": 120575,
      "d": 233.33333333332848,
      "v": 79
    },
    {
      "midi": 59,
      "hit": false,
      "t": 120825,
      "d": 233.33333333332848,
      "v": 79
    },
    {
      "midi": 35,
      "hit": false,
      "t": 121075,
      "d": 233.33333333332848,
      "v": 79
    },
    {
      "midi": 69,
      "hit": false,
      "t": 121075.00000000001,
      "d": 483.3333333333285,
      "v": 79
    },
    {
      "midi": 69,
      "hit": false,
      "t": 121079.16666666666,
      "d": 483.3333333333285,
      "v": 76
    },
    {
      "midi": 69,
      "hit": false,
      "t": 121079.16666666669,
      "d": 483.3333333333285,
      "v": 50
    },
    {
      "midi": 69,
      "hit": false,
      "t": 121137.50000000001,
      "d": 483.3333333333285,
      "v": 69
    },
    {
      "midi": 52,
      "hit": false,
      "t": 121325,
      "d": 233.33333333332848,
      "v": 79
    },
    {
      "midi": 59,
      "hit": false,
      "t": 121575,
      "d": 233.33333333332848,
      "v": 79
    },
    {
      "midi": 71,
      "hit": false,
      "t": 121575.00000000001,
      "d": 483.3333333333285,
      "v": 79
    },
    {
      "midi": 71,
      "hit": false,
      "t": 121579.16666666666,
      "d": 483.3333333333285,
      "v": 76
    },
    {
      "midi": 71,
      "hit": false,
      "t": 121579.16666666669,
      "d": 483.3333333333285,
      "v": 50
    },
    {
      "midi": 71,
      "hit": false,
      "t": 121637.50000000001,
      "d": 483.3333333333285,
      "v": 69
    },
    {
      "midi": 35,
      "hit": false,
      "t": 121825,
      "d": 233.33333333332848,
      "v": 79
    },
    {
      "midi": 33,
      "hit": false,
      "t": 122075,
      "d": 233.33333333332848,
      "v": 79
    },
    {
      "midi": 72,
      "hit": false,
      "t": 122075.00000000001,
      "d": 983.3333333333285,
      "v": 79
    },
    {
      "midi": 72,
      "hit": false,
      "t": 122079.16666666666,
      "d": 983.3333333333285,
      "v": 76
    },
    {
      "midi": 72,
      "hit": false,
      "t": 122079.16666666669,
      "d": 983.3333333333285,
      "v": 50
    },
    {
      "midi": 88,
      "hit": false,
      "t": 122079.16666666673,
      "d": 1937.5,
      "v": 40
    },
    {
      "midi": 93,
      "hit": false,
      "t": 122083.3333333334,
      "d": 1908.3333333333285,
      "v": 40
    },
    {
      "midi": 72,
      "hit": false,
      "t": 122137.50000000001,
      "d": 983.3333333333285,
      "v": 69
    },
    {
      "midi": 52,
      "hit": false,
      "t": 122325,
      "d": 233.33333333332848,
      "v": 79
    },
    {
      "midi": 57,
      "hit": false,
      "t": 122575,
      "d": 233.33333333332848,
      "v": 79
    },
    {
      "midi": 60,
      "hit": false,
      "t": 122825,
      "d": 233.33333333332848,
      "v": 79
    },
    {
      "midi": 52,
      "hit": false,
      "t": 123075,
      "d": 233.33333333332848,
      "v": 79
    },
    {
      "midi": 74,
      "hit": false,
      "t": 123075.00000000001,
      "d": 733.3333333333285,
      "v": 79
    },
    {
      "midi": 74,
      "hit": false,
      "t": 123079.16666666666,
      "d": 733.3333333333285,
      "v": 76
    },
    {
      "midi": 74,
      "hit": false,
      "t": 123079.16666666669,
      "d": 733.3333333333285,
      "v": 50
    },
    {
      "midi": 74,
      "hit": false,
      "t": 123137.50000000001,
      "d": 733.3333333333285,
      "v": 69
    },
    {
      "midi": 57,
      "hit": false,
      "t": 123325,
      "d": 233.33333333332848,
      "v": 79
    },
    {
      "midi": 60,
      "hit": false,
      "t": 123575,
      "d": 233.33333333332848,
      "v": 79
    },
    {
      "midi": 52,
      "hit": false,
      "t": 123825,
      "d": 233.33333333332848,
      "v": 79
    },
    {
      "midi": 72,
      "hit": false,
      "t": 123825.00000000001,
      "d": 233.33333333332848,
      "v": 79
    },
    {
      "midi": 72,
      "hit": false,
      "t": 123829.16666666666,
      "d": 233.33333333332848,
      "v": 76
    },
    {
      "midi": 72,
      "hit": false,
      "t": 123829.16666666669,
      "d": 233.33333333332848,
      "v": 50
    },
    {
      "midi": 72,
      "hit": false,
      "t": 123887.50000000001,
      "d": 233.33333333332848,
      "v": 69
    },
    {
      "midi": 31,
      "hit": false,
      "t": 124075,
      "d": 233.33333333332848,
      "v": 79
    },
    {
      "midi": 71,
      "hit": false,
      "t": 124075.00000000001,
      "d": 983.3333333333285,
      "v": 79
    },
    {
      "midi": 71,
      "hit": false,
      "t": 124079.16666666666,
      "d": 983.3333333333285,
      "v": 76
    },
    {
      "midi": 71,
      "hit": false,
      "t": 124079.16666666669,
      "d": 983.3333333333285,
      "v": 50
    },
    {
      "midi": 88,
      "hit": false,
      "t": 124108.3333333334,
      "d": 1908.333333333343,
      "v": 40
    },
    {
      "midi": 91,
      "hit": false,
      "t": 124112.50000000007,
      "d": 1883.3333333333285,
      "v": 40
    },
    {
      "midi": 71,
      "hit": false,
      "t": 124137.50000000001,
      "d": 983.3333333333285,
      "v": 69
    },
    {
      "midi": 50,
      "hit": false,
      "t": 124325,
      "d": 233.33333333332848,
      "v": 79
    },
    {
      "midi": 55,
      "hit": false,
      "t": 124575,
      "d": 233.33333333332848,
      "v": 79
    },
    {
      "midi": 59,
      "hit": false,
      "t": 124825,
      "d": 233.33333333332848,
      "v": 79
    },
    {
      "midi": 50,
      "hit": false,
      "t": 125075,
      "d": 233.33333333332848,
      "v": 79
    },
    {
      "midi": 69,
      "hit": false,
      "t": 125075.00000000001,
      "d": 733.3333333333285,
      "v": 79
    },
    {
      "midi": 69,
      "hit": false,
      "t": 125079.16666666666,
      "d": 733.3333333333285,
      "v": 76
    },
    {
      "midi": 69,
      "hit": false,
      "t": 125079.16666666669,
      "d": 733.3333333333285,
      "v": 50
    },
    {
      "midi": 69,
      "hit": false,
      "t": 125137.50000000001,
      "d": 733.3333333333285,
      "v": 69
    },
    {
      "midi": 55,
      "hit": false,
      "t": 125325,
      "d": 233.33333333332848,
      "v": 79
    },
    {
      "midi": 59,
      "hit": false,
      "t": 125575,
      "d": 233.33333333332848,
      "v": 79
    },
    {
      "midi": 50,
      "hit": false,
      "t": 125825,
      "d": 233.33333333332848,
      "v": 79
    },
    {
      "midi": 67,
      "hit": false,
      "t": 125825.00000000001,
      "d": 233.33333333332848,
      "v": 79
    },
    {
      "midi": 67,
      "hit": false,
      "t": 125829.16666666666,
      "d": 233.33333333332848,
      "v": 76
    },
    {
      "midi": 67,
      "hit": false,
      "t": 125829.16666666669,
      "d": 233.33333333332848,
      "v": 50
    },
    {
      "midi": 67,
      "hit": false,
      "t": 125887.50000000001,
      "d": 233.33333333332848,
      "v": 69
    },
    {
      "midi": 33,
      "hit": false,
      "t": 126075,
      "d": 233.33333333332848,
      "v": 79
    },
    {
      "midi": 71,
      "hit": false,
      "t": 126075.00000000001,
      "d": 233.33333333332848,
      "v": 79
    },
    {
      "midi": 71,
      "hit": false,
      "t": 126079.16666666666,
      "d": 233.33333333332848,
      "v": 76
    },
    {
      "midi": 71,
      "hit": false,
      "t": 126079.16666666669,
      "d": 233.33333333332848,
      "v": 50
    },
    {
      "midi": 88,
      "hit": false,
      "t": 126095.83333333342,
      "d": 2095.8333333334594,
      "v": 40
    },
    {
      "midi": 93,
      "hit": false,
      "t": 126108.33333333342,
      "d": 2075.000000000131,
      "v": 40
    },
    {
      "midi": 71,
      "hit": false,
      "t": 126137.50000000001,
      "d": 233.33333333332848,
      "v": 69
    },
    {
      "midi": 52,
      "hit": false,
      "t": 126325,
      "d": 233.33333333332848,
      "v": 79
    },
    {
      "midi": 69,
      "hit": false,
      "t": 126325.00000000001,
      "d": 1737.5,
      "v": 79
    },
    {
      "midi": 69,
      "hit": false,
      "t": 126329.16666666666,
      "d": 1729.1666666666715,
      "v": 76
    },
    {
      "midi": 69,
      "hit": false,
      "t": 126329.16666666669,
      "d": 1729.1666666666715,
      "v": 50
    },
    {
      "midi": 69,
      "hit": false,
      "t": 126387.50000000001,
      "d": 1737.5,
      "v": 69
    },
    {
      "midi": 57,
      "hit": false,
      "t": 126575,
      "d": 233.33333333332848,
      "v": 79
    },
    {
      "midi": 60,
      "hit": false,
      "t": 126825,
      "d": 233.33333333332848,
      "v": 79
    },
    {
      "midi": 52,
      "hit": false,
      "t": 127075,
      "d": 233.33333333332848,
      "v": 79
    },
    {
      "midi": 57,
      "hit": false,
      "t": 127325,
      "d": 233.33333333332848,
      "v": 79
    },
    {
      "midi": 60,
      "hit": false,
      "t": 127575,
      "d": 233.33333333332848,
      "v": 79
    },
    {
      "midi": 52,
      "hit": false,
      "t": 127825,
      "d": 237.5,
      "v": 79
    },
    {
      "midi": 33,
      "hit": false,
      "t": 128075,
      "d": 2000,
      "v": 79
    },
    {
      "midi": 60,
      "hit": false,
      "t": 128075,
      "d": 1483.3333333333285,
      "v": 79
    }
  ]
}