{
  "jsonPath": "Rock/Art Rock/Steve Howe/sad-eyed-lady-of-the-lowlands.json",
  "path": "Rock\\Art Rock\\Steve Howe\\Sad Eyed Lady Of The Lowlands.mid",
  "name": "Sad Eyed Lady Of The Lowlands",
  "difficulty": "Advanced",
  "bpm": 57.00008550012825,
  "notes": [
    {
      "midi": 59,
      "hit": false,
      "t": 4210.52,
      "d": 2187.4967187499988,
      "v": 57
    },
    {
      "midi": 55,
      "hit": false,
      "t": 4254.379583333333,
      "d": 1211.6209895833326,
      "v": 55
    },
    {
      "midi": 31,
      "hit": false,
      "t": 4254.379583333333,
      "d": 1496.7082812499993,
      "v": 62
    },
    {
      "midi": 43,
      "hit": false,
      "t": 4254.379583333333,
      "d": 1666.6641666666656,
      "v": 55
    },
    {
      "midi": 62,
      "hit": false,
      "t": 4254.379583333333,
      "d": 1677.6290624999992,
      "v": 53
    },
    {
      "midi": 57,
      "hit": false,
      "t": 4254.379583333333,
      "d": 2132.672239583332,
      "v": 62
    },
    {
      "midi": 31,
      "hit": false,
      "t": 7149.1120833333325,
      "d": 224.78036458333372,
      "v": 38
    },
    {
      "midi": 55,
      "hit": false,
      "t": 7412.269583333333,
      "d": 323.46442708333325,
      "v": 76
    },
    {
      "midi": 57,
      "hit": false,
      "t": 7631.567499999999,
      "d": 328.94687500000055,
      "v": 64
    },
    {
      "midi": 62,
      "hit": false,
      "t": 7894.724999999999,
      "d": 137.06119791666697,
      "v": 72
    },
    {
      "midi": 38,
      "hit": false,
      "t": 8421.039999999999,
      "d": 2428.7244270833344,
      "v": 55
    },
    {
      "midi": 50,
      "hit": false,
      "t": 8421.039999999999,
      "d": 2467.101562500002,
      "v": 57
    },
    {
      "midi": 62,
      "hit": false,
      "t": 8421.039999999999,
      "d": 2609.645208333335,
      "v": 62
    },
    {
      "midi": 57,
      "hit": false,
      "t": 8421.039999999999,
      "d": 2730.259062500003,
      "v": 60
    },
    {
      "midi": 54,
      "hit": false,
      "t": 8421.039999999999,
      "d": 2741.2239583333358,
      "v": 56
    },
    {
      "midi": 38,
      "hit": false,
      "t": 11096.474583333335,
      "d": 531.7974479166678,
      "v": 48
    },
    {
      "midi": 54,
      "hit": false,
      "t": 11578.930000000002,
      "d": 317.98197916666686,
      "v": 72
    },
    {
      "midi": 57,
      "hit": false,
      "t": 12061.38541666667,
      "d": 487.93786458333307,
      "v": 76
    },
    {
      "midi": 52,
      "hit": false,
      "t": 12587.70041666667,
      "d": 1820.1727083333335,
      "v": 60
    },
    {
      "midi": 40,
      "hit": false,
      "t": 12587.70041666667,
      "d": 2006.5759374999998,
      "v": 59
    },
    {
      "midi": 55,
      "hit": false,
      "t": 12587.70041666667,
      "d": 2373.899947916667,
      "v": 72
    },
    {
      "midi": 59,
      "hit": false,
      "t": 12587.70041666667,
      "d": 2417.75953125,
      "v": 56
    },
    {
      "midi": 62,
      "hit": false,
      "t": 12587.70041666667,
      "d": 2489.0313541666656,
      "v": 72
    },
    {
      "midi": 40,
      "hit": false,
      "t": 15263.135000000002,
      "d": 559.2096874999988,
      "v": 49
    },
    {
      "midi": 52,
      "hit": false,
      "t": 15482.432916666668,
      "d": 186.40322916666628,
      "v": 62
    },
    {
      "midi": 55,
      "hit": false,
      "t": 15745.590416666668,
      "d": 367.32401041666526,
      "v": 85
    },
    {
      "midi": 59,
      "hit": false,
      "t": 16008.747916666667,
      "d": 350.8766666666652,
      "v": 80
    },
    {
      "midi": 62,
      "hit": false,
      "t": 16271.905416666666,
      "d": 153.5085416666643,
      "v": 89
    },
    {
      "midi": 57,
      "hit": false,
      "t": 16798.220416666663,
      "d": 844.2969791666656,
      "v": 62
    },
    {
      "midi": 62,
      "hit": false,
      "t": 16798.220416666663,
      "d": 1112.9369270833304,
      "v": 72
    },
    {
      "midi": 64,
      "hit": false,
      "t": 16798.220416666663,
      "d": 1129.3842708333286,
      "v": 72
    },
    {
      "midi": 33,
      "hit": false,
      "t": 16798.220416666663,
      "d": 1310.3050520833276,
      "v": 56
    },
    {
      "midi": 45,
      "hit": false,
      "t": 16798.220416666663,
      "d": 1546.0503124999923,
      "v": 62
    },
    {
      "midi": 57,
      "hit": false,
      "t": 17850.85041666666,
      "d": 285.0872916666631,
      "v": 59
    },
    {
      "midi": 45,
      "hit": false,
      "t": 18947.33999999999,
      "d": 1332.2348437500004,
      "v": 40
    },
    {
      "midi": 61,
      "hit": false,
      "t": 18947.33999999999,
      "d": 1595.392343749998,
      "v": 41
    },
    {
      "midi": 64,
      "hit": false,
      "t": 18947.33999999999,
      "d": 1847.5849479166645,
      "v": 50
    },
    {
      "midi": 33,
      "hit": false,
      "t": 18947.33999999999,
      "d": 1891.4445312499993,
      "v": 51
    },
    {
      "midi": 57,
      "hit": false,
      "t": 18991.199583333324,
      "d": 1496.7082812499975,
      "v": 24
    },
    {
      "midi": 57,
      "hit": false,
      "t": 21052.599999999988,
      "d": 82.23671875000218,
      "v": 46
    },
    {
      "midi": 55,
      "hit": false,
      "t": 21052.599999999988,
      "d": 175.43833333333532,
      "v": 52
    },
    {
      "midi": 43,
      "hit": false,
      "t": 21052.599999999988,
      "d": 2571.268072916664,
      "v": 43
    },
    {
      "midi": 31,
      "hit": false,
      "t": 21052.599999999988,
      "d": 2724.7766145833302,
      "v": 50
    },
    {
      "midi": 59,
      "hit": false,
      "t": 21096.459583333322,
      "d": 158.99098958333343,
      "v": 68
    },
    {
      "midi": 62,
      "hit": false,
      "t": 21140.319166666657,
      "d": 137.06119791666424,
      "v": 72
    },
    {
      "midi": 73,
      "hit": false,
      "t": 21622.77458333332,
      "d": 137.06119791666788,
      "v": 50
    },
    {
      "midi": 74,
      "hit": false,
      "t": 22105.22999999999,
      "d": 597.5868229166663,
      "v": 93
    },
    {
      "midi": 76,
      "hit": false,
      "t": 22631.544999999987,
      "d": 498.90276041666584,
      "v": 62
    },
    {
      "midi": 71,
      "hit": false,
      "t": 23157.859999999986,
      "d": 208.33302083333183,
      "v": 56
    },
    {
      "midi": 50,
      "hit": false,
      "t": 24736.804999999986,
      "d": 158.99098958333343,
      "v": 29
    },
    {
      "midi": 38,
      "hit": false,
      "t": 24780.66458333332,
      "d": 169.9558854166644,
      "v": 29
    },
    {
      "midi": 55,
      "hit": false,
      "t": 25263.119999999984,
      "d": 268.63994791666846,
      "v": 50
    },
    {
      "midi": 57,
      "hit": false,
      "t": 25263.119999999984,
      "d": 274.12239583333576,
      "v": 55
    },
    {
      "midi": 31,
      "hit": false,
      "t": 25263.119999999984,
      "d": 2620.6101041666698,
      "v": 56
    },
    {
      "midi": 43,
      "hit": false,
      "t": 25263.119999999984,
      "d": 2658.987239583337,
      "v": 52
    },
    {
      "midi": 59,
      "hit": false,
      "t": 25306.97958333332,
      "d": 285.0872916666667,
      "v": 64
    },
    {
      "midi": 62,
      "hit": false,
      "t": 25306.97958333332,
      "d": 307.01708333333227,
      "v": 53
    },
    {
      "midi": 73,
      "hit": false,
      "t": 25833.294583333318,
      "d": 202.85057291666817,
      "v": 85
    },
    {
      "midi": 74,
      "hit": false,
      "t": 26315.749999999985,
      "d": 520.832552083335,
      "v": 98
    },
    {
      "midi": 76,
      "hit": false,
      "t": 26842.064999999988,
      "d": 531.797447916666,
      "v": 62
    },
    {
      "midi": 71,
      "hit": false,
      "t": 27412.23958333332,
      "d": 471.490520833333,
      "v": 40
    },
    {
      "midi": 62,
      "hit": false,
      "t": 28421.009999999987,
      "d": 202.85057291666817,
      "v": 50
    },
    {
      "midi": 57,
      "hit": false,
      "t": 28421.009999999987,
      "d": 307.0170833333359,
      "v": 76
    },
    {
      "midi": 43,
      "hit": false,
      "t": 28421.009999999987,
      "d": 498.9027604166695,
      "v": 55
    },
    {
      "midi": 31,
      "hit": false,
      "t": 28421.009999999987,
      "d": 542.7623437500006,
      "v": 64
    },
    {
      "midi": 59,
      "hit": false,
      "t": 28684.16749999999,
      "d": 520.8325520833314,
      "v": 85
    },
    {
      "midi": 62,
      "hit": false,
      "t": 28947.32499999999,
      "d": 383.7713541666635,
      "v": 102
    },
    {
      "midi": 55,
      "hit": false,
      "t": 29210.482499999987,
      "d": 252.19260416666657,
      "v": 70
    },
    {
      "midi": 62,
      "hit": false,
      "t": 29473.63999999999,
      "d": 498.90276041666584,
      "v": 85
    },
    {
      "midi": 57,
      "hit": false,
      "t": 29473.63999999999,
      "d": 509.86765625000044,
      "v": 76
    },
    {
      "midi": 38,
      "hit": false,
      "t": 29473.63999999999,
      "d": 1573.4625520833324,
      "v": 72
    },
    {
      "midi": 54,
      "hit": false,
      "t": 29999.954999999987,
      "d": 498.90276041666584,
      "v": 55
    },
    {
      "midi": 50,
      "hit": false,
      "t": 29999.954999999987,
      "d": 1112.936927083334,
      "v": 53
    },
    {
      "midi": 57,
      "hit": false,
      "t": 30526.269999999986,
      "d": 597.5868229166699,
      "v": 85
    },
    {
      "midi": 62,
      "hit": false,
      "t": 31052.58499999999,
      "d": 257.67505208333387,
      "v": 53
    },
    {
      "midi": 62,
      "hit": false,
      "t": 31578.899999999987,
      "d": 537.2798958333369,
      "v": 60
    },
    {
      "midi": 38,
      "hit": false,
      "t": 31578.899999999987,
      "d": 1485.7433854166738,
      "v": 64
    },
    {
      "midi": 50,
      "hit": false,
      "t": 31842.057499999988,
      "d": 1107.4544791666704,
      "v": 60
    },
    {
      "midi": 57,
      "hit": false,
      "t": 32105.21499999999,
      "d": 213.81546875000276,
      "v": 60
    },
    {
      "midi": 66,
      "hit": false,
      "t": 32368.37249999999,
      "d": 246.71015624999927,
      "v": 89
    },
    {
      "midi": 62,
      "hit": false,
      "t": 32368.37249999999,
      "d": 466.0080729166657,
      "v": 80
    },
    {
      "midi": 57,
      "hit": false,
      "t": 32631.529999999988,
      "d": 126.09630208333328,
      "v": 41
    },
    {
      "midi": 69,
      "hit": false,
      "t": 32894.68749999999,
      "d": 323.4644270833378,
      "v": 93
    },
    {
      "midi": 62,
      "hit": false,
      "t": 32894.68749999999,
      "d": 350.87666666667064,
      "v": 98
    },
    {
      "midi": 57,
      "hit": false,
      "t": 33157.844999999994,
      "d": 460.52562500000204,
      "v": 49
    },
    {
      "midi": 62,
      "hit": false,
      "t": 33684.159999999996,
      "d": 498.9027604166622,
      "v": 76
    },
    {
      "midi": 59,
      "hit": false,
      "t": 33684.159999999996,
      "d": 624.9990624999919,
      "v": 80
    },
    {
      "midi": 40,
      "hit": false,
      "t": 33684.159999999996,
      "d": 1540.5678645833177,
      "v": 76
    },
    {
      "midi": 52,
      "hit": false,
      "t": 34210.47499999999,
      "d": 981.3581770833262,
      "v": 49
    },
    {
      "midi": 62,
      "hit": false,
      "t": 34736.789999999986,
      "d": 482.45541666666395,
      "v": 80
    },
    {
      "midi": 57,
      "hit": false,
      "t": 34736.789999999986,
      "d": 531.7974479166587,
      "v": 76
    },
    {
      "midi": 55,
      "hit": false,
      "t": 35263.10499999998,
      "d": 137.06119791666424,
      "v": 42
    },
    {
      "midi": 62,
      "hit": false,
      "t": 35526.26249999998,
      "d": 559.2096874999988,
      "v": 93
    },
    {
      "midi": 59,
      "hit": false,
      "t": 35526.26249999998,
      "d": 624.9990624999991,
      "v": 107
    },
    {
      "midi": 40,
      "hit": false,
      "t": 35789.419999999984,
      "d": 926.5336979166605,
      "v": 57
    },
    {
      "midi": 52,
      "hit": false,
      "t": 36052.577499999985,
      "d": 718.200677083325,
      "v": 56
    },
    {
      "midi": 55,
      "hit": false,
      "t": 36315.73499999998,
      "d": 131.57875000000058,
      "v": 72
    },
    {
      "midi": 57,
      "hit": false,
      "t": 36578.89249999998,
      "d": 268.63994791665755,
      "v": 113
    },
    {
      "midi": 59,
      "hit": false,
      "t": 36842.049999999974,
      "d": 433.1133854166619,
      "v": 102
    },
    {
      "midi": 62,
      "hit": false,
      "t": 37105.20749999997,
      "d": 350.87666666667064,
      "v": 102
    },
    {
      "midi": 55,
      "hit": false,
      "t": 37368.36499999997,
      "d": 219.29791666667006,
      "v": 56
    },
    {
      "midi": 62,
      "hit": false,
      "t": 37894.67999999998,
      "d": 548.2447916666642,
      "v": 85
    },
    {
      "midi": 57,
      "hit": false,
      "t": 37894.67999999998,
      "d": 592.1043749999953,
      "v": 72
    },
    {
      "midi": 38,
      "hit": false,
      "t": 37894.67999999998,
      "d": 1540.5678645833323,
      "v": 76
    },
    {
      "midi": 50,
      "hit": false,
      "t": 38420.99499999997,
      "d": 1162.278958333336,
      "v": 45
    },
    {
      "midi": 54,
      "hit": false,
      "t": 38947.309999999976,
      "d": 356.3591145833343,
      "v": 68
    },
    {
      "midi": 57,
      "hit": false,
      "t": 39473.62499999998,
      "d": 120.61385416666599,
      "v": 62
    },
    {
      "midi": 66,
      "hit": false,
      "t": 39736.78249999998,
      "d": 32.89468749999651,
      "v": 26
    },
    {
      "midi": 57,
      "hit": false,
      "t": 39736.78249999998,
      "d": 186.40322916666628,
      "v": 64
    },
    {
      "midi": 62,
      "hit": false,
      "t": 39736.78249999998,
      "d": 586.6219270833317,
      "v": 64
    },
    {
      "midi": 66,
      "hit": false,
      "t": 39999.93999999998,
      "d": 570.1745833333262,
      "v": 89
    },
    {
      "midi": 57,
      "hit": false,
      "t": 40526.254999999976,
      "d": 433.1133854166619,
      "v": 50
    },
    {
      "midi": 60,
      "hit": false,
      "t": 41052.56999999997,
      "d": 487.9378645833349,
      "v": 93
    },
    {
      "midi": 66,
      "hit": false,
      "t": 41052.56999999997,
      "d": 487.9378645833349,
      "v": 72
    },
    {
      "midi": 38,
      "hit": false,
      "t": 41052.56999999997,
      "d": 630.4815104166701,
      "v": 76
    },
    {
      "midi": 50,
      "hit": false,
      "t": 41315.72749999997,
      "d": 307.01708333333227,
      "v": 60
    },
    {
      "midi": 57,
      "hit": false,
      "t": 41578.88499999997,
      "d": 263.15750000000116,
      "v": 80
    },
    {
      "midi": 60,
      "hit": false,
      "t": 41842.042499999974,
      "d": 109.6489583333314,
      "v": 76
    },
    {
      "midi": 57,
      "hit": false,
      "t": 42105.199999999975,
      "d": 82.23671874999854,
      "v": 46
    },
    {
      "midi": 55,
      "hit": false,
      "t": 42105.199999999975,
      "d": 175.43833333333168,
      "v": 52
    },
    {
      "midi": 43,
      "hit": false,
      "t": 42105.199999999975,
      "d": 2571.2680729166605,
      "v": 43
    },
    {
      "midi": 31,
      "hit": false,
      "t": 42105.199999999975,
      "d": 2724.7766145833302,
      "v": 50
    },
    {
      "midi": 59,
      "hit": false,
      "t": 42149.05958333331,
      "d": 158.99098958333343,
      "v": 68
    },
    {
      "midi": 62,
      "hit": false,
      "t": 42192.91916666664,
      "d": 137.06119791667152,
      "v": 72
    },
    {
      "midi": 73,
      "hit": false,
      "t": 42675.37458333331,
      "d": 137.06119791666424,
      "v": 50
    },
    {
      "midi": 74,
      "hit": false,
      "t": 43157.82999999997,
      "d": 597.5868229166663,
      "v": 93
    },
    {
      "midi": 76,
      "hit": false,
      "t": 43684.144999999975,
      "d": 498.9027604166622,
      "v": 62
    },
    {
      "midi": 71,
      "hit": false,
      "t": 44210.45999999997,
      "d": 208.33302083333547,
      "v": 56
    },
    {
      "midi": 50,
      "hit": false,
      "t": 45789.40499999997,
      "d": 158.99098958333343,
      "v": 29
    },
    {
      "midi": 38,
      "hit": false,
      "t": 45833.2645833333,
      "d": 169.95588541666802,
      "v": 29
    },
    {
      "midi": 55,
      "hit": false,
      "t": 46315.71999999997,
      "d": 268.6399479166648,
      "v": 50
    },
    {
      "midi": 57,
      "hit": false,
      "t": 46315.71999999997,
      "d": 274.1223958333285,
      "v": 55
    },
    {
      "midi": 31,
      "hit": false,
      "t": 46315.71999999997,
      "d": 2620.6101041666625,
      "v": 56
    },
    {
      "midi": 43,
      "hit": false,
      "t": 46315.71999999997,
      "d": 2658.98723958333,
      "v": 52
    },
    {
      "midi": 59,
      "hit": false,
      "t": 46359.5795833333,
      "d": 285.0872916666631,
      "v": 64
    },
    {
      "midi": 62,
      "hit": false,
      "t": 46359.5795833333,
      "d": 307.01708333333227,
      "v": 53
    },
    {
      "midi": 73,
      "hit": false,
      "t": 46885.894583333305,
      "d": 202.85057291666453,
      "v": 85
    },
    {
      "midi": 74,
      "hit": false,
      "t": 47368.34999999997,
      "d": 520.8325520833314,
      "v": 98
    },
    {
      "midi": 76,
      "hit": false,
      "t": 47894.664999999964,
      "d": 531.797447916666,
      "v": 62
    },
    {
      "midi": 71,
      "hit": false,
      "t": 48464.8395833333,
      "d": 471.49052083333663,
      "v": 40
    },
    {
      "midi": 62,
      "hit": false,
      "t": 49473.60999999997,
      "d": 202.85057291666453,
      "v": 50
    },
    {
      "midi": 57,
      "hit": false,
      "t": 49473.60999999997,
      "d": 307.01708333333227,
      "v": 76
    },
    {
      "midi": 43,
      "hit": false,
      "t": 49473.60999999997,
      "d": 498.9027604166622,
      "v": 55
    },
    {
      "midi": 31,
      "hit": false,
      "t": 49473.60999999997,
      "d": 542.7623437499933,
      "v": 64
    },
    {
      "midi": 59,
      "hit": false,
      "t": 49736.76749999997,
      "d": 520.8325520833241,
      "v": 85
    },
    {
      "midi": 62,
      "hit": false,
      "t": 49999.92499999997,
      "d": 383.7713541666599,
      "v": 102
    },
    {
      "midi": 55,
      "hit": false,
      "t": 50263.08249999996,
      "d": 252.19260416666657,
      "v": 68
    },
    {
      "midi": 62,
      "hit": false,
      "t": 50526.23999999996,
      "d": 498.9027604166622,
      "v": 85
    },
    {
      "midi": 57,
      "hit": false,
      "t": 50526.23999999996,
      "d": 509.8676562499968,
      "v": 76
    },
    {
      "midi": 38,
      "hit": false,
      "t": 50526.23999999996,
      "d": 1573.4625520833288,
      "v": 72
    },
    {
      "midi": 54,
      "hit": false,
      "t": 51052.55499999996,
      "d": 498.9027604166695,
      "v": 55
    },
    {
      "midi": 50,
      "hit": false,
      "t": 51052.55499999996,
      "d": 1112.936927083334,
      "v": 53
    },
    {
      "midi": 57,
      "hit": false,
      "t": 51578.86999999996,
      "d": 597.5868229166663,
      "v": 85
    },
    {
      "midi": 62,
      "hit": false,
      "t": 52105.184999999954,
      "d": 257.6750520833375,
      "v": 53
    },
    {
      "midi": 62,
      "hit": false,
      "t": 52631.499999999956,
      "d": 537.2798958333369,
      "v": 60
    },
    {
      "midi": 38,
      "hit": false,
      "t": 52631.499999999956,
      "d": 1485.7433854166811,
      "v": 64
    },
    {
      "midi": 50,
      "hit": false,
      "t": 52894.65749999996,
      "d": 1107.4544791666776,
      "v": 60
    },
    {
      "midi": 57,
      "hit": false,
      "t": 53157.81499999996,
      "d": 213.81546874999913,
      "v": 60
    },
    {
      "midi": 66,
      "hit": false,
      "t": 53420.97249999996,
      "d": 246.7101562500029,
      "v": 89
    },
    {
      "midi": 62,
      "hit": false,
      "t": 53420.97249999996,
      "d": 466.008072916673,
      "v": 80
    },
    {
      "midi": 57,
      "hit": false,
      "t": 53684.12999999996,
      "d": 126.09630208333692,
      "v": 41
    },
    {
      "midi": 69,
      "hit": false,
      "t": 53947.28749999997,
      "d": 323.4644270833378,
      "v": 93
    },
    {
      "midi": 62,
      "hit": false,
      "t": 53947.28749999997,
      "d": 350.87666666667064,
      "v": 98
    },
    {
      "midi": 57,
      "hit": false,
      "t": 54210.44499999997,
      "d": 460.52562500000204,
      "v": 49
    },
    {
      "midi": 55,
      "hit": false,
      "t": 54736.75999999997,
      "d": 345.3942187499997,
      "v": 72
    },
    {
      "midi": 62,
      "hit": false,
      "t": 54736.75999999997,
      "d": 433.1133854166692,
      "v": 89
    },
    {
      "midi": 59,
      "hit": false,
      "t": 54736.75999999997,
      "d": 493.4203125000058,
      "v": 89
    },
    {
      "midi": 40,
      "hit": false,
      "t": 54736.75999999997,
      "d": 553.7272395833352,
      "v": 76
    },
    {
      "midi": 52,
      "hit": false,
      "t": 54736.75999999997,
      "d": 603.0692708333372,
      "v": 72
    },
    {
      "midi": 55,
      "hit": false,
      "t": 55263.074999999975,
      "d": 257.6750520833375,
      "v": 59
    },
    {
      "midi": 40,
      "hit": false,
      "t": 55526.23249999998,
      "d": 520.8325520833314,
      "v": 51
    },
    {
      "midi": 55,
      "hit": false,
      "t": 55789.38999999998,
      "d": 274.1223958333285,
      "v": 89
    },
    {
      "midi": 57,
      "hit": false,
      "t": 56052.54749999997,
      "d": 334.4293229166651,
      "v": 80
    },
    {
      "midi": 59,
      "hit": false,
      "t": 56315.70499999997,
      "d": 345.39421874999243,
      "v": 89
    },
    {
      "midi": 62,
      "hit": false,
      "t": 56578.86249999997,
      "d": 153.5085416666625,
      "v": 80
    },
    {
      "midi": 64,
      "hit": false,
      "t": 56842.01999999996,
      "d": 471.49052083333663,
      "v": 93
    },
    {
      "midi": 61,
      "hit": false,
      "t": 56842.01999999996,
      "d": 641.4464062500047,
      "v": 62
    },
    {
      "midi": 45,
      "hit": false,
      "t": 56842.01999999996,
      "d": 3037.2761458333334,
      "v": 89
    },
    {
      "midi": 33,
      "hit": false,
      "t": 56842.01999999996,
      "d": 3245.609166666669,
      "v": 76
    },
    {
      "midi": 57,
      "hit": false,
      "t": 57368.33499999996,
      "d": 394.73625000000175,
      "v": 62
    },
    {
      "midi": 59,
      "hit": false,
      "t": 57894.649999999965,
      "d": 624.9990624999991,
      "v": 72
    },
    {
      "midi": 61,
      "hit": false,
      "t": 58420.96499999997,
      "d": 635.9639583333264,
      "v": 51
    },
    {
      "midi": 64,
      "hit": false,
      "t": 58947.27999999996,
      "d": 126.09630208332965,
      "v": 51
    },
    {
      "midi": 66,
      "hit": false,
      "t": 61052.53999999996,
      "d": 679.8235416666721,
      "v": 72
    },
    {
      "midi": 62,
      "hit": false,
      "t": 61052.53999999996,
      "d": 701.7533333333413,
      "v": 93
    },
    {
      "midi": 50,
      "hit": false,
      "t": 61052.53999999996,
      "d": 1288.3752604166802,
      "v": 89
    },
    {
      "midi": 57,
      "hit": false,
      "t": 61578.85499999996,
      "d": 131.57875000000058,
      "v": 59
    },
    {
      "midi": 69,
      "hit": false,
      "t": 61842.01249999997,
      "d": 274.12239583333576,
      "v": 98
    },
    {
      "midi": 62,
      "hit": false,
      "t": 61842.01249999997,
      "d": 751.095364583336,
      "v": 93
    },
    {
      "midi": 57,
      "hit": false,
      "t": 62105.16999999997,
      "d": 186.40322916666628,
      "v": 51
    },
    {
      "midi": 66,
      "hit": false,
      "t": 62368.32749999997,
      "d": 268.6399479166648,
      "v": 93
    },
    {
      "midi": 57,
      "hit": false,
      "t": 62631.48499999997,
      "d": 274.1223958333285,
      "v": 46
    },
    {
      "midi": 64,
      "hit": false,
      "t": 63157.79999999997,
      "d": 630.4815104166701,
      "v": 85
    },
    {
      "midi": 61,
      "hit": false,
      "t": 63157.79999999997,
      "d": 635.9639583333337,
      "v": 102
    },
    {
      "midi": 42,
      "hit": false,
      "t": 63157.79999999997,
      "d": 1332.234843750004,
      "v": 76
    },
    {
      "midi": 57,
      "hit": false,
      "t": 63684.11499999997,
      "d": 131.57875000000058,
      "v": 51
    },
    {
      "midi": 64,
      "hit": false,
      "t": 63947.27249999997,
      "d": 383.77135416666715,
      "v": 89
    },
    {
      "midi": 59,
      "hit": false,
      "t": 63947.27249999997,
      "d": 509.8676562500041,
      "v": 98
    },
    {
      "midi": 64,
      "hit": false,
      "t": 64473.58749999997,
      "d": 208.3330208333282,
      "v": 76
    },
    {
      "midi": 61,
      "hit": false,
      "t": 64473.58749999997,
      "d": 296.0521874999904,
      "v": 89
    },
    {
      "midi": 57,
      "hit": false,
      "t": 64736.744999999966,
      "d": 290.56973958332674,
      "v": 59
    },
    {
      "midi": 59,
      "hit": false,
      "t": 64999.90249999996,
      "d": 153.50854166666977,
      "v": 43
    },
    {
      "midi": 59,
      "hit": false,
      "t": 65263.05999999996,
      "d": 378.2889062499962,
      "v": 93
    },
    {
      "midi": 52,
      "hit": false,
      "t": 65263.05999999996,
      "d": 1321.2699479166695,
      "v": 85
    },
    {
      "midi": 55,
      "hit": false,
      "t": 65526.21749999996,
      "d": 356.359114583327,
      "v": 56
    },
    {
      "midi": 59,
      "hit": false,
      "t": 65789.37499999996,
      "d": 153.50854166666977,
      "v": 64
    },
    {
      "midi": 59,
      "hit": false,
      "t": 66052.53249999996,
      "d": 345.394218750007,
      "v": 98
    },
    {
      "midi": 62,
      "hit": false,
      "t": 66052.53249999996,
      "d": 581.139479166668,
      "v": 93
    },
    {
      "midi": 55,
      "hit": false,
      "t": 66315.68999999996,
      "d": 246.7101562500029,
      "v": 57
    },
    {
      "midi": 59,
      "hit": false,
      "t": 66578.84749999996,
      "d": 301.5346354166686,
      "v": 72
    },
    {
      "midi": 55,
      "hit": false,
      "t": 66842.00499999996,
      "d": 241.22770833333198,
      "v": 46
    },
    {
      "midi": 59,
      "hit": false,
      "t": 67105.16249999996,
      "d": 43.85958333333838,
      "v": 28
    },
    {
      "midi": 64,
      "hit": false,
      "t": 67368.31999999996,
      "d": 542.7623437500006,
      "v": 98
    },
    {
      "midi": 45,
      "hit": false,
      "t": 67368.31999999996,
      "d": 986.8406250000116,
      "v": 93
    },
    {
      "midi": 57,
      "hit": false,
      "t": 67631.47749999996,
      "d": 361.84156250000524,
      "v": 47
    },
    {
      "midi": 62,
      "hit": false,
      "t": 67894.63499999997,
      "d": 526.3150000000023,
      "v": 76
    },
    {
      "midi": 61,
      "hit": false,
      "t": 68420.94999999997,
      "d": 411.18359375,
      "v": 85
    },
    {
      "midi": 49,
      "hit": false,
      "t": 68420.94999999997,
      "d": 619.5166145833355,
      "v": 85
    },
    {
      "midi": 57,
      "hit": false,
      "t": 68684.10749999997,
      "d": 405.70114583332906,
      "v": 60
    },
    {
      "midi": 61,
      "hit": false,
      "t": 68947.26499999997,
      "d": 191.88567708332266,
      "v": 60
    },
    {
      "midi": 64,
      "hit": false,
      "t": 69210.42249999996,
      "d": 131.57875000000058,
      "v": 93
    },
    {
      "midi": 66,
      "hit": false,
      "t": 69473.57999999996,
      "d": 515.3501041666605,
      "v": 80
    },
    {
      "midi": 50,
      "hit": false,
      "t": 69473.57999999996,
      "d": 1430.918906249979,
      "v": 93
    },
    {
      "midi": 62,
      "hit": false,
      "t": 69736.73749999996,
      "d": 274.12239583331393,
      "v": 80
    },
    {
      "midi": 57,
      "hit": false,
      "t": 69999.89499999995,
      "d": 169.95588541665347,
      "v": 62
    },
    {
      "midi": 69,
      "hit": false,
      "t": 70263.05249999993,
      "d": 296.0521874999977,
      "v": 102
    },
    {
      "midi": 62,
      "hit": false,
      "t": 70263.05249999993,
      "d": 422.14848958334187,
      "v": 102
    },
    {
      "midi": 57,
      "hit": false,
      "t": 70526.20999999993,
      "d": 76.75427083333489,
      "v": 10
    },
    {
      "midi": 69,
      "hit": false,
      "t": 70789.36749999993,
      "d": 307.01708333333954,
      "v": 98
    },
    {
      "midi": 62,
      "hit": false,
      "t": 70789.36749999993,
      "d": 394.73625000000175,
      "v": 102
    },
    {
      "midi": 57,
      "hit": false,
      "t": 71052.52499999994,
      "d": 350.87666666666337,
      "v": 57
    },
    {
      "midi": 61,
      "hit": false,
      "t": 71578.83999999994,
      "d": 372.80645833333256,
      "v": 85
    },
    {
      "midi": 64,
      "hit": false,
      "t": 71578.83999999994,
      "d": 400.2186979166727,
      "v": 89
    },
    {
      "midi": 42,
      "hit": false,
      "t": 71578.83999999994,
      "d": 1502.1907291666867,
      "v": 72
    },
    {
      "midi": 57,
      "hit": false,
      "t": 71841.99749999994,
      "d": 312.4995312500105,
      "v": 59
    },
    {
      "midi": 64,
      "hit": false,
      "t": 72368.31249999996,
      "d": 60.30692708333663,
      "v": 50
    },
    {
      "midi": 59,
      "hit": false,
      "t": 72368.31249999996,
      "d": 158.9909895833407,
      "v": 93
    },
    {
      "midi": 57,
      "hit": false,
      "t": 72631.46999999996,
      "d": 186.40322916666628,
      "v": 85
    },
    {
      "midi": 61,
      "hit": false,
      "t": 72894.62749999996,
      "d": 334.4293229166651,
      "v": 107
    },
    {
      "midi": 64,
      "hit": false,
      "t": 73157.78499999996,
      "d": 219.2979166666628,
      "v": 93
    },
    {
      "midi": 57,
      "hit": false,
      "t": 73420.94249999996,
      "d": 213.8154687500064,
      "v": 52
    },
    {
      "midi": 59,
      "hit": false,
      "t": 73684.09999999996,
      "d": 378.2889062500035,
      "v": 93
    },
    {
      "midi": 52,
      "hit": false,
      "t": 73684.09999999996,
      "d": 1217.1034375000163,
      "v": 85
    },
    {
      "midi": 55,
      "hit": false,
      "t": 73947.25749999996,
      "d": 323.4644270833378,
      "v": 49
    },
    {
      "midi": 59,
      "hit": false,
      "t": 74210.41499999996,
      "d": 148.02609374999884,
      "v": 62
    },
    {
      "midi": 59,
      "hit": false,
      "t": 74473.57249999997,
      "d": 345.394218750007,
      "v": 93
    },
    {
      "midi": 62,
      "hit": false,
      "t": 74473.57249999997,
      "d": 564.6921354166843,
      "v": 93
    },
    {
      "midi": 55,
      "hit": false,
      "t": 74736.72999999997,
      "d": 301.53463541668316,
      "v": 57
    },
    {
      "midi": 59,
      "hit": false,
      "t": 74999.88749999998,
      "d": 378.2889062500035,
      "v": 80
    },
    {
      "midi": 62,
      "hit": false,
      "t": 75263.04499999998,
      "d": 180.92078124999534,
      "v": 80
    },
    {
      "midi": 64,
      "hit": false,
      "t": 75789.35999999999,
      "d": 482.45541666666395,
      "v": 102
    },
    {
      "midi": 45,
      "hit": false,
      "t": 75789.35999999999,
      "d": 1047.1475520833337,
      "v": 93
    },
    {
      "midi": 57,
      "hit": false,
      "t": 76052.51749999999,
      "d": 274.1223958333285,
      "v": 60
    },
    {
      "midi": 62,
      "hit": false,
      "t": 76315.67499999999,
      "d": 471.49052083333663,
      "v": 64
    },
    {
      "midi": 57,
      "hit": false,
      "t": 76578.83249999999,
      "d": 224.78036458333372,
      "v": 46
    },
    {
      "midi": 61,
      "hit": false,
      "t": 76841.98999999999,
      "d": 449.56072916666744,
      "v": 93
    },
    {
      "midi": 49,
      "hit": false,
      "t": 76841.98999999999,
      "d": 487.9378645833349,
      "v": 80
    },
    {
      "midi": 57,
      "hit": false,
      "t": 77105.14749999999,
      "d": 274.1223958333285,
      "v": 60
    },
    {
      "midi": 64,
      "hit": false,
      "t": 77368.305,
      "d": 224.78036458333372,
      "v": 102
    },
    {
      "midi": 57,
      "hit": false,
      "t": 77631.4625,
      "d": 213.8154687500064,
      "v": 52
    },
    {
      "midi": 59,
      "hit": false,
      "t": 77894.62,
      "d": 444.0782812499965,
      "v": 93
    },
    {
      "midi": 43,
      "hit": false,
      "t": 77894.62,
      "d": 1529.6029687500122,
      "v": 93
    },
    {
      "midi": 55,
      "hit": false,
      "t": 78157.7775,
      "d": 307.01708333333954,
      "v": 64
    },
    {
      "midi": 57,
      "hit": false,
      "t": 78420.935,
      "d": 175.43833333333896,
      "v": 72
    },
    {
      "midi": 59,
      "hit": false,
      "t": 78684.0925,
      "d": 438.5958333333401,
      "v": 107
    },
    {
      "midi": 55,
      "hit": false,
      "t": 78947.25,
      "d": 115.13140625000233,
      "v": 50
    },
    {
      "midi": 62,
      "hit": false,
      "t": 79210.4075,
      "d": 263.15750000000116,
      "v": 93
    },
    {
      "midi": 59,
      "hit": false,
      "t": 79210.4075,
      "d": 279.6048437499994,
      "v": 93
    },
    {
      "midi": 55,
      "hit": false,
      "t": 79473.565,
      "d": 235.74526041666104,
      "v": 59
    },
    {
      "midi": 43,
      "hit": false,
      "t": 79736.7225,
      "d": 252.19260416667385,
      "v": 60
    },
    {
      "midi": 61,
      "hit": false,
      "t": 79999.88000000002,
      "d": 307.01708333333954,
      "v": 102
    },
    {
      "midi": 45,
      "hit": false,
      "t": 79999.88000000002,
      "d": 696.2708854166704,
      "v": 85
    },
    {
      "midi": 57,
      "hit": false,
      "t": 80263.03750000002,
      "d": 317.98197916666686,
      "v": 62
    },
    {
      "midi": 61,
      "hit": false,
      "t": 80526.19500000002,
      "d": 148.02609374999884,
      "v": 89
    },
    {
      "midi": 51,
      "hit": false,
      "t": 81052.51000000002,
      "d": 1710.5237500000076,
      "v": 89
    },
    {
      "midi": 63,
      "hit": false,
      "t": 81052.51000000002,
      "d": 1716.0061979166785,
      "v": 89
    },
    {
      "midi": 66,
      "hit": false,
      "t": 81052.51000000002,
      "d": 1726.9710937500058,
      "v": 89
    },
    {
      "midi": 59,
      "hit": false,
      "t": 81052.51000000002,
      "d": 1792.7604687499988,
      "v": 76
    },
    {
      "midi": 52,
      "hit": false,
      "t": 83157.77000000002,
      "d": 1425.436458333308,
      "v": 89
    },
    {
      "midi": 55,
      "hit": false,
      "t": 83420.92750000002,
      "d": 460.52562499999476,
      "v": 52
    },
    {
      "midi": 59,
      "hit": false,
      "t": 83684.08500000002,
      "d": 657.8937499999738,
      "v": 76
    },
    {
      "midi": 64,
      "hit": false,
      "t": 83947.24250000001,
      "d": 526.3149999999878,
      "v": 98
    },
    {
      "midi": 55,
      "hit": false,
      "t": 83947.24250000001,
      "d": 581.1394791666535,
      "v": 85
    },
    {
      "midi": 59,
      "hit": false,
      "t": 84473.5575,
      "d": 268.6399479166721,
      "v": 80
    },
    {
      "midi": 55,
      "hit": false,
      "t": 84736.715,
      "d": 285.08729166667035,
      "v": 72
    },
    {
      "midi": 57,
      "hit": false,
      "t": 85263.03,
      "d": 224.78036458333372,
      "v": 62
    },
    {
      "midi": 61,
      "hit": false,
      "t": 85263.03,
      "d": 548.2447916666715,
      "v": 89
    },
    {
      "midi": 42,
      "hit": false,
      "t": 85263.03,
      "d": 1683.1115104166674,
      "v": 85
    },
    {
      "midi": 54,
      "hit": false,
      "t": 85526.1875,
      "d": 323.4644270833378,
      "v": 46
    },
    {
      "midi": 57,
      "hit": false,
      "t": 85789.345,
      "d": 619.5166145833355,
      "v": 62
    },
    {
      "midi": 61,
      "hit": false,
      "t": 86052.5025,
      "d": 263.15750000000116,
      "v": 89
    },
    {
      "midi": 54,
      "hit": false,
      "t": 86315.66,
      "d": 115.13140625000233,
      "v": 41
    },
    {
      "midi": 64,
      "hit": false,
      "t": 86578.8175,
      "d": 213.8154687500064,
      "v": 102
    },
    {
      "midi": 57,
      "hit": false,
      "t": 86578.8175,
      "d": 394.73625000000175,
      "v": 93
    },
    {
      "midi": 54,
      "hit": false,
      "t": 86841.975,
      "d": 191.8856770833372,
      "v": 56
    },
    {
      "midi": 42,
      "hit": false,
      "t": 87105.1325,
      "d": 290.5697395833413,
      "v": 51
    },
    {
      "midi": 59,
      "hit": false,
      "t": 87368.29000000001,
      "d": 597.5868229166663,
      "v": 102
    },
    {
      "midi": 43,
      "hit": false,
      "t": 87368.29000000001,
      "d": 1600.8747916666616,
      "v": 85
    },
    {
      "midi": 55,
      "hit": false,
      "t": 87631.44750000001,
      "d": 361.84156250000524,
      "v": 46
    },
    {
      "midi": 57,
      "hit": false,
      "t": 87894.60500000001,
      "d": 230.26281250000466,
      "v": 80
    },
    {
      "midi": 59,
      "hit": false,
      "t": 88157.76250000001,
      "d": 471.4905208333221,
      "v": 102
    },
    {
      "midi": 55,
      "hit": false,
      "t": 88420.92000000001,
      "d": 142.5436458333279,
      "v": 49
    },
    {
      "midi": 59,
      "hit": false,
      "t": 88684.0775,
      "d": 312.4995312500105,
      "v": 93
    },
    {
      "midi": 62,
      "hit": false,
      "t": 88684.0775,
      "d": 312.4995312500105,
      "v": 93
    },
    {
      "midi": 55,
      "hit": false,
      "t": 88947.235,
      "d": 158.9909895833407,
      "v": 60
    },
    {
      "midi": 43,
      "hit": false,
      "t": 89210.3925,
      "d": 263.15750000000116,
      "v": 60
    },
    {
      "midi": 64,
      "hit": false,
      "t": 89473.55,
      "d": 498.9027604166622,
      "v": 98
    },
    {
      "midi": 45,
      "hit": false,
      "t": 89473.55,
      "d": 1463.8135937499756,
      "v": 93
    },
    {
      "midi": 57,
      "hit": false,
      "t": 89736.7075,
      "d": 328.9468749999942,
      "v": 60
    },
    {
      "midi": 62,
      "hit": false,
      "t": 89999.865,
      "d": 422.14848958331277,
      "v": 62
    },
    {
      "midi": 64,
      "hit": false,
      "t": 90263.02249999999,
      "d": 674.3410937499866,
      "v": 93
    },
    {
      "midi": 61,
      "hit": false,
      "t": 90526.17999999998,
      "d": 328.9468749999942,
      "v": 80
    },
    {
      "midi": 57,
      "hit": false,
      "t": 90789.33749999998,
      "d": 383.7713541666744,
      "v": 64
    },
    {
      "midi": 64,
      "hit": false,
      "t": 91052.49499999998,
      "d": 241.22770833334653,
      "v": 80
    },
    {
      "midi": 69,
      "hit": false,
      "t": 91315.6525,
      "d": 115.13140625000233,
      "v": 80
    },
    {
      "midi": 66,
      "hit": false,
      "t": 91578.81,
      "d": 679.8235416666721,
      "v": 72
    },
    {
      "midi": 62,
      "hit": false,
      "t": 91578.81,
      "d": 701.7533333333413,
      "v": 93
    },
    {
      "midi": 50,
      "hit": false,
      "t": 91578.81,
      "d": 1288.3752604166657,
      "v": 89
    },
    {
      "midi": 57,
      "hit": false,
      "t": 92105.125,
      "d": 131.57875000000058,
      "v": 59
    },
    {
      "midi": 69,
      "hit": false,
      "t": 92368.2825,
      "d": 274.1223958333285,
      "v": 98
    },
    {
      "midi": 62,
      "hit": false,
      "t": 92368.2825,
      "d": 751.095364583336,
      "v": 93
    },
    {
      "midi": 57,
      "hit": false,
      "t": 92631.44,
      "d": 186.40322916666628,
      "v": 51
    },
    {
      "midi": 66,
      "hit": false,
      "t": 92894.5975,
      "d": 268.6399479166721,
      "v": 93
    },
    {
      "midi": 57,
      "hit": false,
      "t": 93157.755,
      "d": 274.12239583334303,
      "v": 46
    },
    {
      "midi": 64,
      "hit": false,
      "t": 93684.07000000002,
      "d": 630.4815104166482,
      "v": 85
    },
    {
      "midi": 61,
      "hit": false,
      "t": 93684.07000000002,
      "d": 635.9639583333192,
      "v": 102
    },
    {
      "midi": 42,
      "hit": false,
      "t": 93684.07000000002,
      "d": 1332.234843749975,
      "v": 76
    },
    {
      "midi": 57,
      "hit": false,
      "t": 94210.38500000001,
      "d": 131.57875000000058,
      "v": 51
    },
    {
      "midi": 64,
      "hit": false,
      "t": 94473.54250000001,
      "d": 383.7713541666599,
      "v": 89
    },
    {
      "midi": 59,
      "hit": false,
      "t": 94473.54250000001,
      "d": 509.8676562499895,
      "v": 98
    },
    {
      "midi": 64,
      "hit": false,
      "t": 94999.8575,
      "d": 208.33302083333547,
      "v": 76
    },
    {
      "midi": 61,
      "hit": false,
      "t": 94999.8575,
      "d": 296.0521874999977,
      "v": 89
    },
    {
      "midi": 57,
      "hit": false,
      "t": 95263.015,
      "d": 290.5697395833413,
      "v": 59
    },
    {
      "midi": 59,
      "hit": false,
      "t": 95526.1725,
      "d": 153.50854166666977,
      "v": 43
    },
    {
      "midi": 59,
      "hit": false,
      "t": 95789.33,
      "d": 378.2889062500035,
      "v": 93
    },
    {
      "midi": 52,
      "hit": false,
      "t": 95789.33,
      "d": 1321.2699479166768,
      "v": 85
    },
    {
      "midi": 55,
      "hit": false,
      "t": 96052.4875,
      "d": 356.3591145833343,
      "v": 56
    },
    {
      "midi": 59,
      "hit": false,
      "t": 96315.645,
      "d": 153.50854166666977,
      "v": 64
    },
    {
      "midi": 59,
      "hit": false,
      "t": 96578.8025,
      "d": 345.394218750007,
      "v": 98
    },
    {
      "midi": 62,
      "hit": false,
      "t": 96578.8025,
      "d": 581.139479166668,
      "v": 93
    },
    {
      "midi": 55,
      "hit": false,
      "t": 96841.96,
      "d": 246.7101562500029,
      "v": 57
    },
    {
      "midi": 59,
      "hit": false,
      "t": 97105.11750000001,
      "d": 301.5346354166686,
      "v": 72
    },
    {
      "midi": 55,
      "hit": false,
      "t": 97368.27500000001,
      "d": 241.22770833333198,
      "v": 46
    },
    {
      "midi": 59,
      "hit": false,
      "t": 97631.43250000001,
      "d": 43.85958333333838,
      "v": 28
    },
    {
      "midi": 64,
      "hit": false,
      "t": 97894.59000000001,
      "d": 542.7623437500006,
      "v": 98
    },
    {
      "midi": 45,
      "hit": false,
      "t": 97894.59000000001,
      "d": 986.8406250000116,
      "v": 93
    },
    {
      "midi": 57,
      "hit": false,
      "t": 98157.74750000001,
      "d": 361.84156250000524,
      "v": 47
    },
    {
      "midi": 62,
      "hit": false,
      "t": 98420.90500000001,
      "d": 526.3150000000023,
      "v": 76
    },
    {
      "midi": 61,
      "hit": false,
      "t": 98947.22000000002,
      "d": 411.18359375,
      "v": 85
    },
    {
      "midi": 49,
      "hit": false,
      "t": 98947.22000000002,
      "d": 619.5166145833355,
      "v": 85
    },
    {
      "midi": 57,
      "hit": false,
      "t": 99210.37750000002,
      "d": 405.70114583332906,
      "v": 60
    },
    {
      "midi": 61,
      "hit": false,
      "t": 99473.53500000002,
      "d": 191.88567708332266,
      "v": 60
    },
    {
      "midi": 64,
      "hit": false,
      "t": 99736.6925,
      "d": 131.57875000000058,
      "v": 93
    },
    {
      "midi": 66,
      "hit": false,
      "t": 99999.85,
      "d": 515.3501041666605,
      "v": 80
    },
    {
      "midi": 50,
      "hit": false,
      "t": 99999.85,
      "d": 1430.918906249979,
      "v": 93
    },
    {
      "midi": 62,
      "hit": false,
      "t": 100263.0075,
      "d": 274.12239583331393,
      "v": 80
    },
    {
      "midi": 57,
      "hit": false,
      "t": 100526.165,
      "d": 169.95588541665347,
      "v": 62
    },
    {
      "midi": 69,
      "hit": false,
      "t": 100789.32249999998,
      "d": 296.0521874999977,
      "v": 102
    },
    {
      "midi": 62,
      "hit": false,
      "t": 100789.32249999998,
      "d": 422.14848958334187,
      "v": 102
    },
    {
      "midi": 57,
      "hit": false,
      "t": 101052.47999999998,
      "d": 76.75427083333489,
      "v": 10
    },
    {
      "midi": 69,
      "hit": false,
      "t": 101315.63749999998,
      "d": 307.01708333333954,
      "v": 98
    },
    {
      "midi": 62,
      "hit": false,
      "t": 101315.63749999998,
      "d": 394.73625000000175,
      "v": 102
    },
    {
      "midi": 57,
      "hit": false,
      "t": 101578.79499999998,
      "d": 350.87666666666337,
      "v": 57
    },
    {
      "midi": 61,
      "hit": false,
      "t": 102105.10999999999,
      "d": 372.80645833333256,
      "v": 85
    },
    {
      "midi": 64,
      "hit": false,
      "t": 102105.10999999999,
      "d": 400.2186979166727,
      "v": 89
    },
    {
      "midi": 42,
      "hit": false,
      "t": 102105.10999999999,
      "d": 1502.1907291666867,
      "v": 72
    },
    {
      "midi": 57,
      "hit": false,
      "t": 102368.26749999999,
      "d": 312.4995312500105,
      "v": 59
    },
    {
      "midi": 64,
      "hit": false,
      "t": 102894.5825,
      "d": 60.30692708333663,
      "v": 50
    },
    {
      "midi": 59,
      "hit": false,
      "t": 102894.5825,
      "d": 158.9909895833407,
      "v": 93
    },
    {
      "midi": 57,
      "hit": false,
      "t": 103157.74,
      "d": 186.40322916666628,
      "v": 85
    },
    {
      "midi": 61,
      "hit": false,
      "t": 103420.8975,
      "d": 334.4293229166651,
      "v": 107
    },
    {
      "midi": 64,
      "hit": false,
      "t": 103684.05500000001,
      "d": 219.2979166666628,
      "v": 93
    },
    {
      "midi": 57,
      "hit": false,
      "t": 103947.21250000001,
      "d": 213.8154687500064,
      "v": 52
    },
    {
      "midi": 59,
      "hit": false,
      "t": 104210.37000000001,
      "d": 378.2889062500035,
      "v": 93
    },
    {
      "midi": 52,
      "hit": false,
      "t": 104210.37000000001,
      "d": 1217.1034375000163,
      "v": 85
    },
    {
      "midi": 55,
      "hit": false,
      "t": 104473.52750000001,
      "d": 323.4644270833378,
      "v": 49
    },
    {
      "midi": 59,
      "hit": false,
      "t": 104736.68500000001,
      "d": 148.02609374999884,
      "v": 62
    },
    {
      "midi": 59,
      "hit": false,
      "t": 104999.84250000001,
      "d": 345.394218750007,
      "v": 93
    },
    {
      "midi": 62,
      "hit": false,
      "t": 104999.84250000001,
      "d": 564.6921354166843,
      "v": 93
    },
    {
      "midi": 55,
      "hit": false,
      "t": 105263.00000000001,
      "d": 301.53463541668316,
      "v": 57
    },
    {
      "midi": 59,
      "hit": false,
      "t": 105526.15750000003,
      "d": 378.2889062500035,
      "v": 80
    },
    {
      "midi": 62,
      "hit": false,
      "t": 105789.31500000003,
      "d": 180.92078124999534,
      "v": 80
    },
    {
      "midi": 64,
      "hit": false,
      "t": 106315.63000000003,
      "d": 482.45541666666395,
      "v": 102
    },
    {
      "midi": 45,
      "hit": false,
      "t": 106315.63000000003,
      "d": 1047.1475520833337,
      "v": 93
    },
    {
      "midi": 57,
      "hit": false,
      "t": 106578.78750000003,
      "d": 274.1223958333285,
      "v": 60
    },
    {
      "midi": 62,
      "hit": false,
      "t": 106841.94500000004,
      "d": 471.49052083333663,
      "v": 64
    },
    {
      "midi": 57,
      "hit": false,
      "t": 107105.10250000004,
      "d": 224.78036458333372,
      "v": 46
    },
    {
      "midi": 61,
      "hit": false,
      "t": 107368.26000000004,
      "d": 449.56072916666744,
      "v": 93
    },
    {
      "midi": 49,
      "hit": false,
      "t": 107368.26000000004,
      "d": 487.9378645833349,
      "v": 80
    },
    {
      "midi": 57,
      "hit": false,
      "t": 107631.41750000004,
      "d": 274.1223958333285,
      "v": 60
    },
    {
      "midi": 64,
      "hit": false,
      "t": 107894.57500000004,
      "d": 224.78036458333372,
      "v": 102
    },
    {
      "midi": 57,
      "hit": false,
      "t": 108157.73250000004,
      "d": 213.8154687500064,
      "v": 52
    },
    {
      "midi": 55,
      "hit": false,
      "t": 108420.89000000004,
      "d": 1414.4715624999953,
      "v": 60
    },
    {
      "midi": 62,
      "hit": false,
      "t": 108420.89000000004,
      "d": 1606.3572395833326,
      "v": 60
    },
    {
      "midi": 43,
      "hit": false,
      "t": 108420.89000000004,
      "d": 1885.962083333332,
      "v": 72
    },
    {
      "midi": 59,
      "hit": false,
      "t": 108420.89000000004,
      "d": 2236.8387499999953,
      "v": 76
    },
    {
      "midi": 55,
      "hit": false,
      "t": 110778.34260416671,
      "d": 279.6048437499994,
      "v": 51
    },
    {
      "midi": 57,
      "hit": false,
      "t": 111041.50010416671,
      "d": 252.19260416667385,
      "v": 64
    },
    {
      "midi": 59,
      "hit": false,
      "t": 111271.76291666672,
      "d": 619.5166145833355,
      "v": 85
    },
    {
      "midi": 62,
      "hit": false,
      "t": 111781.63057291672,
      "d": 153.50854166666977,
      "v": 89
    },
    {
      "midi": 38,
      "hit": false,
      "t": 112455.97166666672,
      "d": 1995.6110416666634,
      "v": 28
    },
    {
      "midi": 54,
      "hit": false,
      "t": 112494.34880208339,
      "d": 2105.2599999999948,
      "v": 25
    },
    {
      "midi": 57,
      "hit": false,
      "t": 112527.24348958339,
      "d": 2138.154687500006,
      "v": 60
    },
    {
      "midi": 62,
      "hit": false,
      "t": 112587.55041666672,
      "d": 2050.435520833329,
      "v": 80
    },
    {
      "midi": 50,
      "hit": false,
      "t": 112593.0328645834,
      "d": 1929.8216666666558,
      "v": 34
    },
    {
      "midi": 54,
      "hit": false,
      "t": 114966.93281250006,
      "d": 301.5346354166686,
      "v": 37
    },
    {
      "midi": 57,
      "hit": false,
      "t": 115219.12541666673,
      "d": 718.200677083325,
      "v": 59
    },
    {
      "midi": 62,
      "hit": false,
      "t": 115520.6600520834,
      "d": 296.0521874999977,
      "v": 89
    },
    {
      "midi": 54,
      "hit": false,
      "t": 115866.0542708334,
      "d": 169.95588541666802,
      "v": 22
    },
    {
      "midi": 57,
      "hit": false,
      "t": 116063.4223958334,
      "d": 723.6831249999959,
      "v": 76
    },
    {
      "midi": 59,
      "hit": false,
      "t": 116869.3422395834,
      "d": 1003.2879687500099,
      "v": 60
    },
    {
      "midi": 62,
      "hit": false,
      "t": 116869.3422395834,
      "d": 1118.4193750000122,
      "v": 57
    },
    {
      "midi": 52,
      "hit": false,
      "t": 116874.82468750008,
      "d": 2850.8729166666744,
      "v": 50
    },
    {
      "midi": 55,
      "hit": false,
      "t": 116880.30713541675,
      "d": 959.4283854166715,
      "v": 55
    },
    {
      "midi": 40,
      "hit": false,
      "t": 116880.30713541675,
      "d": 3070.170833333337,
      "v": 39
    },
    {
      "midi": 55,
      "hit": false,
      "t": 118135.78770833342,
      "d": 520.8325520833314,
      "v": 52
    },
    {
      "midi": 59,
      "hit": false,
      "t": 118398.94520833342,
      "d": 307.017083333325,
      "v": 68
    },
    {
      "midi": 62,
      "hit": false,
      "t": 118667.58515625008,
      "d": 120.61385416667326,
      "v": 85
    },
    {
      "midi": 67,
      "hit": false,
      "t": 119150.04057291675,
      "d": 520.8325520833314,
      "v": 53
    },
    {
      "midi": 69,
      "hit": false,
      "t": 119670.87312500009,
      "d": 230.26281250000466,
      "v": 64
    },
    {
      "midi": 57,
      "hit": false,
      "t": 121030.52020833342,
      "d": 1074.5597916666593,
      "v": 50
    },
    {
      "midi": 64,
      "hit": false,
      "t": 121036.00265625009,
      "d": 1332.2348437499895,
      "v": 57
    },
    {
      "midi": 33,
      "hit": false,
      "t": 121036.00265625009,
      "d": 1507.6731770833285,
      "v": 55
    },
    {
      "midi": 62,
      "hit": false,
      "t": 121046.96755208341,
      "d": 1315.7874999999913,
      "v": 53
    },
    {
      "midi": 45,
      "hit": false,
      "t": 121046.96755208341,
      "d": 1540.5678645833395,
      "v": 46
    },
    {
      "midi": 69,
      "hit": false,
      "t": 122072.18531250008,
      "d": 230.2628124999901,
      "v": 64
    },
    {
      "midi": 33,
      "hit": false,
      "t": 122976.78921875008,
      "d": 2110.7424479166802,
      "v": 55
    },
    {
      "midi": 57,
      "hit": false,
      "t": 123020.64880208342,
      "d": 1792.7604687500134,
      "v": 10
    },
    {
      "midi": 61,
      "hit": false,
      "t": 123075.47328125009,
      "d": 1869.5147395833483,
      "v": 39
    },
    {
      "midi": 45,
      "hit": false,
      "t": 123097.40307291676,
      "d": 1469.2960416666756,
      "v": 23
    },
    {
      "midi": 64,
      "hit": false,
      "t": 123157.7100000001,
      "d": 1957.2339062500105,
      "v": 44
    },
    {
      "midi": 57,
      "hit": false,
      "t": 125262.9700000001,
      "d": 82.23671874999127,
      "v": 46
    },
    {
      "midi": 55,
      "hit": false,
      "t": 125262.9700000001,
      "d": 175.4383333333244,
      "v": 52
    },
    {
      "midi": 43,
      "hit": false,
      "t": 125262.9700000001,
      "d": 2571.2680729166896,
      "v": 43
    },
    {
      "midi": 31,
      "hit": false,
      "t": 125262.9700000001,
      "d": 2724.7766145833593,
      "v": 50
    },
    {
      "midi": 59,
      "hit": false,
      "t": 125306.82958333343,
      "d": 158.9909895833407,
      "v": 68
    },
    {
      "midi": 62,
      "hit": false,
      "t": 125350.68916666677,
      "d": 137.06119791667152,
      "v": 72
    },
    {
      "midi": 73,
      "hit": false,
      "t": 125833.14458333344,
      "d": 137.06119791667152,
      "v": 50
    },
    {
      "midi": 74,
      "hit": false,
      "t": 126315.60000000012,
      "d": 597.5868229166663,
      "v": 93
    },
    {
      "midi": 76,
      "hit": false,
      "t": 126841.91500000012,
      "d": 498.9027604166622,
      "v": 62
    },
    {
      "midi": 71,
      "hit": false,
      "t": 127368.23000000013,
      "d": 208.33302083333547,
      "v": 56
    },
    {
      "midi": 50,
      "hit": false,
      "t": 128947.17500000013,
      "d": 158.9909895833407,
      "v": 29
    },
    {
      "midi": 38,
      "hit": false,
      "t": 128991.03458333347,
      "d": 169.95588541666802,
      "v": 29
    },
    {
      "midi": 55,
      "hit": false,
      "t": 129473.49000000014,
      "d": 268.6399479166721,
      "v": 50
    },
    {
      "midi": 57,
      "hit": false,
      "t": 129473.49000000014,
      "d": 274.12239583334303,
      "v": 55
    },
    {
      "midi": 31,
      "hit": false,
      "t": 129473.49000000014,
      "d": 2620.6101041666698,
      "v": 56
    },
    {
      "midi": 43,
      "hit": false,
      "t": 129473.49000000014,
      "d": 2658.987239583337,
      "v": 52
    },
    {
      "midi": 59,
      "hit": false,
      "t": 129517.34958333347,
      "d": 285.08729166667035,
      "v": 64
    },
    {
      "midi": 62,
      "hit": false,
      "t": 129517.34958333347,
      "d": 307.01708333333954,
      "v": 53
    },
    {
      "midi": 73,
      "hit": false,
      "t": 130043.66458333348,
      "d": 202.85057291666453,
      "v": 85
    },
    {
      "midi": 74,
      "hit": false,
      "t": 130526.12000000014,
      "d": 520.8325520833314,
      "v": 98
    },
    {
      "midi": 76,
      "hit": false,
      "t": 131052.43500000014,
      "d": 531.7974479166733,
      "v": 62
    },
    {
      "midi": 71,
      "hit": false,
      "t": 131622.60958333348,
      "d": 471.4905208333221,
      "v": 40
    },
    {
      "midi": 62,
      "hit": false,
      "t": 132631.38000000015,
      "d": 202.85057291667908,
      "v": 50
    },
    {
      "midi": 57,
      "hit": false,
      "t": 132631.38000000015,
      "d": 307.01708333333954,
      "v": 76
    },
    {
      "midi": 43,
      "hit": false,
      "t": 132631.38000000015,
      "d": 498.90276041667676,
      "v": 55
    },
    {
      "midi": 31,
      "hit": false,
      "t": 132631.38000000015,
      "d": 542.7623437500151,
      "v": 64
    },
    {
      "midi": 59,
      "hit": false,
      "t": 132894.53750000015,
      "d": 520.8325520833605,
      "v": 85
    },
    {
      "midi": 62,
      "hit": false,
      "t": 133157.69500000015,
      "d": 383.77135416670353,
      "v": 102
    },
    {
      "midi": 55,
      "hit": false,
      "t": 133420.85250000018,
      "d": 252.1926041666593,
      "v": 70
    },
    {
      "midi": 62,
      "hit": false,
      "t": 133684.01000000018,
      "d": 498.90276041667676,
      "v": 85
    },
    {
      "midi": 57,
      "hit": false,
      "t": 133684.01000000018,
      "d": 509.8676562500186,
      "v": 76
    },
    {
      "midi": 38,
      "hit": false,
      "t": 133684.01000000018,
      "d": 1573.4625520833652,
      "v": 72
    },
    {
      "midi": 54,
      "hit": false,
      "t": 134210.32500000022,
      "d": 498.90276041667676,
      "v": 55
    },
    {
      "midi": 50,
      "hit": false,
      "t": 134210.32500000022,
      "d": 1112.9369270833267,
      "v": 53
    },
    {
      "midi": 57,
      "hit": false,
      "t": 134736.64000000022,
      "d": 597.5868229166663,
      "v": 85
    },
    {
      "midi": 62,
      "hit": false,
      "t": 135262.95500000022,
      "d": 257.67505208333023,
      "v": 53
    },
    {
      "midi": 62,
      "hit": false,
      "t": 135789.27000000022,
      "d": 537.2798958333442,
      "v": 60
    },
    {
      "midi": 38,
      "hit": false,
      "t": 135789.27000000022,
      "d": 1485.7433854167175,
      "v": 64
    },
    {
      "midi": 50,
      "hit": false,
      "t": 136052.42750000022,
      "d": 1107.454479166714,
      "v": 60
    },
    {
      "midi": 57,
      "hit": false,
      "t": 136315.58500000022,
      "d": 213.81546875002095,
      "v": 60
    },
    {
      "midi": 66,
      "hit": false,
      "t": 136578.74250000025,
      "d": 246.71015624998836,
      "v": 89
    },
    {
      "midi": 62,
      "hit": false,
      "t": 136578.74250000025,
      "d": 466.00807291668025,
      "v": 80
    },
    {
      "midi": 57,
      "hit": false,
      "t": 136841.90000000026,
      "d": 126.0963020833442,
      "v": 41
    },
    {
      "midi": 69,
      "hit": false,
      "t": 137105.05750000026,
      "d": 323.46442708335235,
      "v": 93
    },
    {
      "midi": 62,
      "hit": false,
      "t": 137105.05750000026,
      "d": 350.8766666666779,
      "v": 98
    },
    {
      "midi": 57,
      "hit": false,
      "t": 137368.2150000003,
      "d": 460.5256249999802,
      "v": 49
    },
    {
      "midi": 62,
      "hit": false,
      "t": 137894.53000000026,
      "d": 498.90276041664765,
      "v": 76
    },
    {
      "midi": 59,
      "hit": false,
      "t": 137894.53000000026,
      "d": 624.9990624999627,
      "v": 80
    },
    {
      "midi": 40,
      "hit": false,
      "t": 137894.53000000026,
      "d": 1540.5678645833104,
      "v": 76
    },
    {
      "midi": 52,
      "hit": false,
      "t": 138420.84500000023,
      "d": 981.3581770833407,
      "v": 49
    },
    {
      "midi": 62,
      "hit": false,
      "t": 138947.16000000024,
      "d": 482.45541666666395,
      "v": 80
    },
    {
      "midi": 57,
      "hit": false,
      "t": 138947.16000000024,
      "d": 531.7974479166733,
      "v": 76
    },
    {
      "midi": 55,
      "hit": false,
      "t": 139473.47500000024,
      "d": 137.06119791665697,
      "v": 42
    },
    {
      "midi": 62,
      "hit": false,
      "t": 139736.63250000024,
      "d": 559.2096874999988,
      "v": 93
    },
    {
      "midi": 59,
      "hit": false,
      "t": 139736.63250000024,
      "d": 624.9990624999919,
      "v": 107
    },
    {
      "midi": 40,
      "hit": false,
      "t": 139999.79000000024,
      "d": 926.5336979166314,
      "v": 57
    },
    {
      "midi": 52,
      "hit": false,
      "t": 140262.94750000024,
      "d": 718.2006770833104,
      "v": 56
    },
    {
      "midi": 55,
      "hit": false,
      "t": 140526.10500000024,
      "d": 131.57874999998603,
      "v": 72
    },
    {
      "midi": 57,
      "hit": false,
      "t": 140789.26250000022,
      "d": 268.6399479166721,
      "v": 113
    },
    {
      "midi": 59,
      "hit": false,
      "t": 141052.42000000022,
      "d": 433.11338541665464,
      "v": 102
    },
    {
      "midi": 62,
      "hit": false,
      "t": 141315.57750000022,
      "d": 350.8766666666779,
      "v": 102
    },
    {
      "midi": 55,
      "hit": false,
      "t": 141578.73500000022,
      "d": 219.2979166666628,
      "v": 56
    },
    {
      "midi": 62,
      "hit": false,
      "t": 142105.0500000002,
      "d": 548.244791666657,
      "v": 85
    },
    {
      "midi": 57,
      "hit": false,
      "t": 142105.0500000002,
      "d": 592.1043749999953,
      "v": 72
    },
    {
      "midi": 38,
      "hit": false,
      "t": 142105.0500000002,
      "d": 1540.5678645833104,
      "v": 76
    },
    {
      "midi": 50,
      "hit": false,
      "t": 142631.3650000002,
      "d": 1162.278958333307,
      "v": 45
    },
    {
      "midi": 54,
      "hit": false,
      "t": 143157.6800000002,
      "d": 356.35911458331975,
      "v": 68
    },
    {
      "midi": 57,
      "hit": false,
      "t": 143683.99500000017,
      "d": 120.61385416667326,
      "v": 62
    },
    {
      "midi": 66,
      "hit": false,
      "t": 143947.15250000017,
      "d": 32.89468749999651,
      "v": 26
    },
    {
      "midi": 57,
      "hit": false,
      "t": 143947.15250000017,
      "d": 186.40322916666628,
      "v": 64
    },
    {
      "midi": 62,
      "hit": false,
      "t": 143947.15250000017,
      "d": 586.6219270833244,
      "v": 64
    },
    {
      "midi": 66,
      "hit": false,
      "t": 144210.31000000017,
      "d": 570.1745833333407,
      "v": 89
    },
    {
      "midi": 57,
      "hit": false,
      "t": 144736.62500000017,
      "d": 433.11338541668374,
      "v": 50
    },
    {
      "midi": 60,
      "hit": false,
      "t": 145262.9400000002,
      "d": 487.9378645833349,
      "v": 93
    },
    {
      "midi": 66,
      "hit": false,
      "t": 145262.9400000002,
      "d": 487.9378645833349,
      "v": 72
    },
    {
      "midi": 38,
      "hit": false,
      "t": 145262.9400000002,
      "d": 630.4815104166628,
      "v": 76
    },
    {
      "midi": 50,
      "hit": false,
      "t": 145526.0975000002,
      "d": 307.01708333333954,
      "v": 60
    },
    {
      "midi": 57,
      "hit": false,
      "t": 145789.2550000002,
      "d": 263.15750000000116,
      "v": 80
    },
    {
      "midi": 60,
      "hit": false,
      "t": 146052.4125000002,
      "d": 109.6489583333314,
      "v": 76
    },
    {
      "midi": 57,
      "hit": false,
      "t": 146315.5700000002,
      "d": 82.23671875000582,
      "v": 46
    },
    {
      "midi": 55,
      "hit": false,
      "t": 146315.5700000002,
      "d": 175.4383333333535,
      "v": 52
    },
    {
      "midi": 43,
      "hit": false,
      "t": 146315.5700000002,
      "d": 2571.2680729166605,
      "v": 43
    },
    {
      "midi": 31,
      "hit": false,
      "t": 146315.5700000002,
      "d": 2724.7766145833302,
      "v": 50
    },
    {
      "midi": 59,
      "hit": false,
      "t": 146359.42958333355,
      "d": 158.9909895833407,
      "v": 68
    },
    {
      "midi": 62,
      "hit": false,
      "t": 146403.2891666669,
      "d": 137.06119791665697,
      "v": 72
    },
    {
      "midi": 50,
      "hit": false,
      "t": 149999.7750000002,
      "d": 158.9909895833407,
      "v": 29
    },
    {
      "midi": 38,
      "hit": false,
      "t": 150043.63458333354,
      "d": 169.95588541668258,
      "v": 29
    },
    {
      "midi": 55,
      "hit": false,
      "t": 150526.09000000023,
      "d": 268.6399479166721,
      "v": 50
    },
    {
      "midi": 57,
      "hit": false,
      "t": 150526.09000000023,
      "d": 274.12239583334303,
      "v": 55
    },
    {
      "midi": 31,
      "hit": false,
      "t": 150526.09000000023,
      "d": 2620.610104166699,
      "v": 56
    },
    {
      "midi": 43,
      "hit": false,
      "t": 150526.09000000023,
      "d": 2658.9872395833663,
      "v": 52
    },
    {
      "midi": 59,
      "hit": false,
      "t": 150569.94958333357,
      "d": 285.0872916666849,
      "v": 64
    },
    {
      "midi": 62,
      "hit": false,
      "t": 150569.94958333357,
      "d": 307.01708333333954,
      "v": 53
    },
    {
      "midi": 73,
      "hit": false,
      "t": 151096.26458333357,
      "d": 202.85057291667908,
      "v": 85
    },
    {
      "midi": 74,
      "hit": false,
      "t": 151578.72000000026,
      "d": 520.8325520833314,
      "v": 98
    },
    {
      "midi": 76,
      "hit": false,
      "t": 152105.03500000027,
      "d": 531.7974479166733,
      "v": 62
    },
    {
      "midi": 71,
      "hit": false,
      "t": 152675.2095833336,
      "d": 471.4905208333221,
      "v": 40
    },
    {
      "midi": 62,
      "hit": false,
      "t": 153683.98000000027,
      "d": 202.85057291667908,
      "v": 50
    },
    {
      "midi": 57,
      "hit": false,
      "t": 153683.98000000027,
      "d": 307.01708333333954,
      "v": 76
    },
    {
      "midi": 43,
      "hit": false,
      "t": 153683.98000000027,
      "d": 498.90276041667676,
      "v": 55
    },
    {
      "midi": 31,
      "hit": false,
      "t": 153683.98000000027,
      "d": 542.7623437500151,
      "v": 64
    },
    {
      "midi": 59,
      "hit": false,
      "t": 153947.13750000027,
      "d": 520.8325520833605,
      "v": 85
    },
    {
      "midi": 62,
      "hit": false,
      "t": 154210.29500000027,
      "d": 383.77135416670353,
      "v": 102
    },
    {
      "midi": 55,
      "hit": false,
      "t": 154473.4525000003,
      "d": 252.1926041666593,
      "v": 68
    },
    {
      "midi": 62,
      "hit": false,
      "t": 154736.6100000003,
      "d": 498.90276041667676,
      "v": 85
    },
    {
      "midi": 57,
      "hit": false,
      "t": 154736.6100000003,
      "d": 509.8676562500186,
      "v": 76
    },
    {
      "midi": 38,
      "hit": false,
      "t": 154736.6100000003,
      "d": 1573.4625520833652,
      "v": 72
    },
    {
      "midi": 54,
      "hit": false,
      "t": 155262.92500000034,
      "d": 498.90276041667676,
      "v": 55
    },
    {
      "midi": 50,
      "hit": false,
      "t": 155262.92500000034,
      "d": 1112.9369270833267,
      "v": 53
    },
    {
      "midi": 57,
      "hit": false,
      "t": 155789.24000000034,
      "d": 597.5868229166663,
      "v": 85
    },
    {
      "midi": 62,
      "hit": false,
      "t": 156315.55500000034,
      "d": 257.67505208333023,
      "v": 53
    },
    {
      "midi": 62,
      "hit": false,
      "t": 156841.87000000034,
      "d": 537.2798958333442,
      "v": 60
    },
    {
      "midi": 38,
      "hit": false,
      "t": 156841.87000000034,
      "d": 1485.7433854167175,
      "v": 64
    },
    {
      "midi": 50,
      "hit": false,
      "t": 157105.02750000035,
      "d": 1107.454479166714,
      "v": 60
    },
    {
      "midi": 57,
      "hit": false,
      "t": 157368.18500000035,
      "d": 213.81546875002095,
      "v": 60
    },
    {
      "midi": 66,
      "hit": false,
      "t": 157631.34250000038,
      "d": 246.71015624998836,
      "v": 89
    },
    {
      "midi": 62,
      "hit": false,
      "t": 157631.34250000038,
      "d": 466.00807291668025,
      "v": 80
    },
    {
      "midi": 57,
      "hit": false,
      "t": 157894.50000000038,
      "d": 126.0963020833442,
      "v": 41
    },
    {
      "midi": 69,
      "hit": false,
      "t": 158157.65750000038,
      "d": 323.46442708335235,
      "v": 93
    },
    {
      "midi": 62,
      "hit": false,
      "t": 158157.65750000038,
      "d": 350.8766666666779,
      "v": 98
    },
    {
      "midi": 57,
      "hit": false,
      "t": 158420.8150000004,
      "d": 460.5256249999802,
      "v": 49
    },
    {
      "midi": 55,
      "hit": false,
      "t": 158947.13000000038,
      "d": 345.394218750007,
      "v": 72
    },
    {
      "midi": 62,
      "hit": false,
      "t": 158947.13000000038,
      "d": 433.11338541668374,
      "v": 89
    },
    {
      "midi": 59,
      "hit": false,
      "t": 158947.13000000038,
      "d": 493.4203125000058,
      "v": 89
    },
    {
      "midi": 40,
      "hit": false,
      "t": 158947.13000000038,
      "d": 553.7272395833279,
      "v": 76
    },
    {
      "midi": 52,
      "hit": false,
      "t": 158947.13000000038,
      "d": 603.0692708333372,
      "v": 72
    },
    {
      "midi": 55,
      "hit": false,
      "t": 159473.44500000039,
      "d": 257.67505208333023,
      "v": 59
    },
    {
      "midi": 40,
      "hit": false,
      "t": 159736.6025000004,
      "d": 520.8325520833314,
      "v": 51
    },
    {
      "midi": 55,
      "hit": false,
      "t": 159999.7600000004,
      "d": 274.12239583334303,
      "v": 89
    },
    {
      "midi": 57,
      "hit": false,
      "t": 160262.9175000004,
      "d": 334.4293229166651,
      "v": 80
    },
    {
      "midi": 59,
      "hit": false,
      "t": 160526.0750000004,
      "d": 345.394218750007,
      "v": 89
    },
    {
      "midi": 62,
      "hit": false,
      "t": 160789.2325000004,
      "d": 153.50854166666977,
      "v": 80
    },
    {
      "midi": 64,
      "hit": false,
      "t": 161052.39000000042,
      "d": 471.4905208333221,
      "v": 93
    },
    {
      "midi": 61,
      "hit": false,
      "t": 161052.39000000042,
      "d": 641.4464062500047,
      "v": 62
    },
    {
      "midi": 45,
      "hit": false,
      "t": 161052.39000000042,
      "d": 3037.2761458333407,
      "v": 89
    },
    {
      "midi": 33,
      "hit": false,
      "t": 161052.39000000042,
      "d": 3245.6091666666616,
      "v": 76
    },
    {
      "midi": 57,
      "hit": false,
      "t": 161578.70500000042,
      "d": 394.7362500000163,
      "v": 62
    },
    {
      "midi": 59,
      "hit": false,
      "t": 162105.02000000043,
      "d": 624.9990624999919,
      "v": 72
    },
    {
      "midi": 61,
      "hit": false,
      "t": 162631.33500000043,
      "d": 635.9639583333337,
      "v": 51
    },
    {
      "midi": 64,
      "hit": false,
      "t": 163157.65000000043,
      "d": 126.0963020833442,
      "v": 51
    },
    {
      "midi": 66,
      "hit": false,
      "t": 167368.17000000042,
      "d": 679.823541666643,
      "v": 72
    },
    {
      "midi": 62,
      "hit": false,
      "t": 167368.17000000042,
      "d": 701.7533333332976,
      "v": 93
    },
    {
      "midi": 50,
      "hit": false,
      "t": 167368.17000000042,
      "d": 1288.3752604166511,
      "v": 89
    },
    {
      "midi": 57,
      "hit": false,
      "t": 167894.48500000042,
      "d": 131.57874999998603,
      "v": 59
    },
    {
      "midi": 69,
      "hit": false,
      "t": 168157.6425000004,
      "d": 274.12239583334303,
      "v": 98
    },
    {
      "midi": 62,
      "hit": false,
      "t": 168157.6425000004,
      "d": 751.095364583336,
      "v": 93
    },
    {
      "midi": 57,
      "hit": false,
      "t": 168420.8000000004,
      "d": 186.40322916666628,
      "v": 51
    },
    {
      "midi": 66,
      "hit": false,
      "t": 168683.9575000004,
      "d": 268.6399479166721,
      "v": 93
    },
    {
      "midi": 57,
      "hit": false,
      "t": 168947.1150000004,
      "d": 274.12239583334303,
      "v": 46
    },
    {
      "midi": 64,
      "hit": false,
      "t": 169473.4300000004,
      "d": 630.4815104166628,
      "v": 85
    },
    {
      "midi": 61,
      "hit": false,
      "t": 169473.4300000004,
      "d": 635.9639583333337,
      "v": 102
    },
    {
      "midi": 42,
      "hit": false,
      "t": 169473.4300000004,
      "d": 1332.2348437500186,
      "v": 76
    },
    {
      "midi": 57,
      "hit": false,
      "t": 169999.7450000004,
      "d": 131.57874999998603,
      "v": 51
    },
    {
      "midi": 64,
      "hit": false,
      "t": 170262.90250000037,
      "d": 383.7713541666744,
      "v": 89
    },
    {
      "midi": 59,
      "hit": false,
      "t": 170262.90250000037,
      "d": 509.8676562500186,
      "v": 98
    },
    {
      "midi": 64,
      "hit": false,
      "t": 170789.2175000004,
      "d": 208.33302083335002,
      "v": 76
    },
    {
      "midi": 61,
      "hit": false,
      "t": 170789.2175000004,
      "d": 296.0521875000268,
      "v": 89
    },
    {
      "midi": 57,
      "hit": false,
      "t": 171052.37500000044,
      "d": 290.56973958332674,
      "v": 59
    },
    {
      "midi": 59,
      "hit": false,
      "t": 171315.53250000044,
      "d": 153.50854166666977,
      "v": 43
    },
    {
      "midi": 59,
      "hit": false,
      "t": 171578.69000000044,
      "d": 378.2889062500035,
      "v": 93
    },
    {
      "midi": 52,
      "hit": false,
      "t": 171578.69000000044,
      "d": 1321.2699479167059,
      "v": 85
    },
    {
      "midi": 55,
      "hit": false,
      "t": 171841.84750000044,
      "d": 356.35911458334886,
      "v": 56
    },
    {
      "midi": 59,
      "hit": false,
      "t": 172105.00500000044,
      "d": 153.50854166666977,
      "v": 64
    },
    {
      "midi": 59,
      "hit": false,
      "t": 172368.16250000044,
      "d": 345.394218750007,
      "v": 98
    },
    {
      "midi": 62,
      "hit": false,
      "t": 172368.16250000044,
      "d": 581.1394791667117,
      "v": 93
    },
    {
      "midi": 55,
      "hit": false,
      "t": 172631.32000000044,
      "d": 246.71015625001746,
      "v": 57
    },
    {
      "midi": 59,
      "hit": false,
      "t": 172894.47750000047,
      "d": 301.5346354166686,
      "v": 72
    },
    {
      "midi": 55,
      "hit": false,
      "t": 173157.63500000047,
      "d": 241.22770833334653,
      "v": 46
    },
    {
      "midi": 59,
      "hit": false,
      "t": 173420.79250000048,
      "d": 43.85958333333838,
      "v": 28
    },
    {
      "midi": 64,
      "hit": false,
      "t": 173683.95000000048,
      "d": 542.7623437500151,
      "v": 98
    },
    {
      "midi": 45,
      "hit": false,
      "t": 173683.95000000048,
      "d": 986.8406250000116,
      "v": 93
    },
    {
      "midi": 57,
      "hit": false,
      "t": 173947.10750000048,
      "d": 361.8415625000198,
      "v": 47
    },
    {
      "midi": 62,
      "hit": false,
      "t": 174210.26500000048,
      "d": 526.3150000000023,
      "v": 76
    },
    {
      "midi": 61,
      "hit": false,
      "t": 174736.58000000048,
      "d": 411.18359375,
      "v": 85
    },
    {
      "midi": 49,
      "hit": false,
      "t": 174736.58000000048,
      "d": 619.51661458335,
      "v": 85
    },
    {
      "midi": 57,
      "hit": false,
      "t": 174999.73750000048,
      "d": 405.70114583335817,
      "v": 60
    },
    {
      "midi": 61,
      "hit": false,
      "t": 175262.89500000048,
      "d": 191.88567708336632,
      "v": 60
    },
    {
      "midi": 64,
      "hit": false,
      "t": 175526.05250000051,
      "d": 131.57874999998603,
      "v": 93
    },
    {
      "midi": 66,
      "hit": false,
      "t": 175789.2100000005,
      "d": 515.3501041666896,
      "v": 80
    },
    {
      "midi": 50,
      "hit": false,
      "t": 175789.2100000005,
      "d": 1430.9189062500664,
      "v": 93
    },
    {
      "midi": 62,
      "hit": false,
      "t": 176052.3675000005,
      "d": 274.12239583337214,
      "v": 80
    },
    {
      "midi": 57,
      "hit": false,
      "t": 176315.52500000052,
      "d": 169.95588541668258,
      "v": 62
    },
    {
      "midi": 69,
      "hit": false,
      "t": 176578.68250000055,
      "d": 296.0521874999977,
      "v": 102
    },
    {
      "midi": 62,
      "hit": false,
      "t": 176578.68250000055,
      "d": 422.14848958334187,
      "v": 102
    },
    {
      "midi": 57,
      "hit": false,
      "t": 176841.84000000055,
      "d": 76.75427083333489,
      "v": 10
    },
    {
      "midi": 69,
      "hit": false,
      "t": 177104.99750000055,
      "d": 307.01708333333954,
      "v": 98
    },
    {
      "midi": 62,
      "hit": false,
      "t": 177104.99750000055,
      "d": 394.7362500000163,
      "v": 102
    },
    {
      "midi": 57,
      "hit": false,
      "t": 177368.15500000055,
      "d": 350.8766666666779,
      "v": 57
    },
    {
      "midi": 61,
      "hit": false,
      "t": 177894.47000000055,
      "d": 372.80645833333256,
      "v": 85
    },
    {
      "midi": 64,
      "hit": false,
      "t": 177894.47000000055,
      "d": 400.21869791665813,
      "v": 89
    },
    {
      "midi": 42,
      "hit": false,
      "t": 177894.47000000055,
      "d": 1502.190729166614,
      "v": 72
    },
    {
      "midi": 57,
      "hit": false,
      "t": 178157.62750000056,
      "d": 312.4995312499814,
      "v": 59
    },
    {
      "midi": 64,
      "hit": false,
      "t": 178683.94250000053,
      "d": 60.30692708332208,
      "v": 50
    },
    {
      "midi": 59,
      "hit": false,
      "t": 178683.94250000053,
      "d": 158.9909895833116,
      "v": 93
    },
    {
      "midi": 57,
      "hit": false,
      "t": 178947.1000000005,
      "d": 186.40322916666628,
      "v": 85
    },
    {
      "midi": 61,
      "hit": false,
      "t": 179210.2575000005,
      "d": 334.4293229166651,
      "v": 107
    },
    {
      "midi": 64,
      "hit": false,
      "t": 179473.4150000005,
      "d": 219.2979166666628,
      "v": 93
    },
    {
      "midi": 57,
      "hit": false,
      "t": 179736.5725000005,
      "d": 213.81546874999185,
      "v": 52
    },
    {
      "midi": 59,
      "hit": false,
      "t": 179999.7300000005,
      "d": 378.2889062500035,
      "v": 93
    },
    {
      "midi": 52,
      "hit": false,
      "t": 179999.7300000005,
      "d": 1217.1034375000163,
      "v": 85
    },
    {
      "midi": 55,
      "hit": false,
      "t": 180262.8875000005,
      "d": 323.46442708332324,
      "v": 49
    },
    {
      "midi": 59,
      "hit": false,
      "t": 180526.0450000005,
      "d": 148.02609374999884,
      "v": 62
    },
    {
      "midi": 59,
      "hit": false,
      "t": 180789.2025000005,
      "d": 345.394218750007,
      "v": 93
    },
    {
      "midi": 62,
      "hit": false,
      "t": 180789.2025000005,
      "d": 564.6921354166698,
      "v": 93
    },
    {
      "midi": 55,
      "hit": false,
      "t": 181052.3600000005,
      "d": 301.5346354166686,
      "v": 57
    },
    {
      "midi": 59,
      "hit": false,
      "t": 181315.5175000005,
      "d": 378.2889062500035,
      "v": 80
    },
    {
      "midi": 62,
      "hit": false,
      "t": 181578.6750000005,
      "d": 180.92078124999534,
      "v": 80
    },
    {
      "midi": 64,
      "hit": false,
      "t": 182104.9900000005,
      "d": 482.45541666666395,
      "v": 102
    },
    {
      "midi": 45,
      "hit": false,
      "t": 182104.9900000005,
      "d": 1047.1475520833337,
      "v": 93
    },
    {
      "midi": 57,
      "hit": false,
      "t": 182368.1475000005,
      "d": 274.12239583334303,
      "v": 60
    },
    {
      "midi": 62,
      "hit": false,
      "t": 182631.3050000005,
      "d": 471.4905208333221,
      "v": 64
    },
    {
      "midi": 57,
      "hit": false,
      "t": 182894.4625000005,
      "d": 224.78036458333372,
      "v": 46
    },
    {
      "midi": 61,
      "hit": false,
      "t": 183157.6200000005,
      "d": 449.56072916666744,
      "v": 93
    },
    {
      "midi": 49,
      "hit": false,
      "t": 183157.6200000005,
      "d": 487.9378645833349,
      "v": 80
    },
    {
      "midi": 57,
      "hit": false,
      "t": 183420.7775000005,
      "d": 274.12239583334303,
      "v": 60
    },
    {
      "midi": 64,
      "hit": false,
      "t": 183683.9350000005,
      "d": 224.78036458333372,
      "v": 102
    },
    {
      "midi": 57,
      "hit": false,
      "t": 183947.0925000005,
      "d": 213.81546874999185,
      "v": 52
    },
    {
      "midi": 66,
      "hit": false,
      "t": 184210.2500000005,
      "d": 679.823541666643,
      "v": 72
    },
    {
      "midi": 62,
      "hit": false,
      "t": 184210.2500000005,
      "d": 701.7533333332976,
      "v": 93
    },
    {
      "midi": 50,
      "hit": false,
      "t": 184210.2500000005,
      "d": 1288.3752604166511,
      "v": 89
    },
    {
      "midi": 57,
      "hit": false,
      "t": 184736.5650000005,
      "d": 131.57874999998603,
      "v": 59
    },
    {
      "midi": 69,
      "hit": false,
      "t": 184999.72250000047,
      "d": 274.12239583334303,
      "v": 98
    },
    {
      "midi": 62,
      "hit": false,
      "t": 184999.72250000047,
      "d": 751.095364583336,
      "v": 93
    },
    {
      "midi": 57,
      "hit": false,
      "t": 185262.88000000047,
      "d": 186.40322916666628,
      "v": 51
    },
    {
      "midi": 66,
      "hit": false,
      "t": 185526.03750000047,
      "d": 268.6399479166721,
      "v": 93
    },
    {
      "midi": 57,
      "hit": false,
      "t": 185789.19500000047,
      "d": 274.12239583334303,
      "v": 46
    },
    {
      "midi": 64,
      "hit": false,
      "t": 186315.51000000047,
      "d": 630.4815104166628,
      "v": 85
    },
    {
      "midi": 61,
      "hit": false,
      "t": 186315.51000000047,
      "d": 635.9639583333337,
      "v": 102
    },
    {
      "midi": 42,
      "hit": false,
      "t": 186315.51000000047,
      "d": 1332.2348437500186,
      "v": 76
    },
    {
      "midi": 57,
      "hit": false,
      "t": 186841.82500000048,
      "d": 131.57874999998603,
      "v": 51
    },
    {
      "midi": 64,
      "hit": false,
      "t": 187104.98250000045,
      "d": 383.7713541666744,
      "v": 89
    },
    {
      "midi": 59,
      "hit": false,
      "t": 187104.98250000045,
      "d": 509.8676562500186,
      "v": 98
    },
    {
      "midi": 64,
      "hit": false,
      "t": 187631.29750000048,
      "d": 208.33302083335002,
      "v": 76
    },
    {
      "midi": 61,
      "hit": false,
      "t": 187631.29750000048,
      "d": 296.0521875000268,
      "v": 89
    },
    {
      "midi": 57,
      "hit": false,
      "t": 187894.4550000005,
      "d": 290.56973958332674,
      "v": 59
    },
    {
      "midi": 59,
      "hit": false,
      "t": 188157.6125000005,
      "d": 153.50854166666977,
      "v": 43
    },
    {
      "midi": 59,
      "hit": false,
      "t": 188420.7700000005,
      "d": 378.2889062500035,
      "v": 93
    },
    {
      "midi": 52,
      "hit": false,
      "t": 188420.7700000005,
      "d": 1321.2699479167059,
      "v": 85
    },
    {
      "midi": 55,
      "hit": false,
      "t": 188683.92750000051,
      "d": 356.35911458334886,
      "v": 56
    },
    {
      "midi": 59,
      "hit": false,
      "t": 188947.08500000052,
      "d": 153.50854166666977,
      "v": 64
    },
    {
      "midi": 59,
      "hit": false,
      "t": 189210.24250000052,
      "d": 345.394218750007,
      "v": 98
    },
    {
      "midi": 62,
      "hit": false,
      "t": 189210.24250000052,
      "d": 581.1394791667117,
      "v": 93
    },
    {
      "midi": 55,
      "hit": false,
      "t": 189473.40000000052,
      "d": 246.71015625001746,
      "v": 57
    },
    {
      "midi": 59,
      "hit": false,
      "t": 189736.55750000055,
      "d": 301.5346354166686,
      "v": 72
    },
    {
      "midi": 55,
      "hit": false,
      "t": 189999.71500000055,
      "d": 241.22770833334653,
      "v": 46
    },
    {
      "midi": 59,
      "hit": false,
      "t": 190262.87250000055,
      "d": 43.85958333333838,
      "v": 28
    },
    {
      "midi": 64,
      "hit": false,
      "t": 190526.03000000055,
      "d": 542.7623437500151,
      "v": 98
    },
    {
      "midi": 45,
      "hit": false,
      "t": 190526.03000000055,
      "d": 986.8406250000116,
      "v": 93
    },
    {
      "midi": 57,
      "hit": false,
      "t": 190789.18750000055,
      "d": 361.8415625000198,
      "v": 47
    },
    {
      "midi": 62,
      "hit": false,
      "t": 191052.34500000055,
      "d": 526.3150000000023,
      "v": 76
    },
    {
      "midi": 61,
      "hit": false,
      "t": 191578.66000000056,
      "d": 411.18359375,
      "v": 85
    },
    {
      "midi": 49,
      "hit": false,
      "t": 191578.66000000056,
      "d": 619.51661458335,
      "v": 85
    },
    {
      "midi": 57,
      "hit": false,
      "t": 191841.81750000056,
      "d": 405.70114583335817,
      "v": 60
    },
    {
      "midi": 61,
      "hit": false,
      "t": 192104.97500000056,
      "d": 191.88567708336632,
      "v": 60
    },
    {
      "midi": 64,
      "hit": false,
      "t": 192368.1325000006,
      "d": 131.57874999998603,
      "v": 93
    },
    {
      "midi": 66,
      "hit": false,
      "t": 192631.29000000056,
      "d": 515.3501041666896,
      "v": 80
    },
    {
      "midi": 50,
      "hit": false,
      "t": 192631.29000000056,
      "d": 1430.9189062500664,
      "v": 93
    },
    {
      "midi": 62,
      "hit": false,
      "t": 192894.44750000056,
      "d": 274.12239583337214,
      "v": 80
    },
    {
      "midi": 57,
      "hit": false,
      "t": 193157.6050000006,
      "d": 169.95588541668258,
      "v": 62
    },
    {
      "midi": 69,
      "hit": false,
      "t": 193420.76250000062,
      "d": 296.0521874999977,
      "v": 102
    },
    {
      "midi": 62,
      "hit": false,
      "t": 193420.76250000062,
      "d": 422.14848958334187,
      "v": 102
    },
    {
      "midi": 57,
      "hit": false,
      "t": 193683.92000000062,
      "d": 76.75427083333489,
      "v": 10
    },
    {
      "midi": 69,
      "hit": false,
      "t": 193947.07750000063,
      "d": 307.01708333333954,
      "v": 98
    },
    {
      "midi": 62,
      "hit": false,
      "t": 193947.07750000063,
      "d": 394.7362500000163,
      "v": 102
    },
    {
      "midi": 57,
      "hit": false,
      "t": 194210.23500000063,
      "d": 350.8766666666779,
      "v": 57
    },
    {
      "midi": 61,
      "hit": false,
      "t": 194736.55000000063,
      "d": 372.80645833333256,
      "v": 85
    },
    {
      "midi": 64,
      "hit": false,
      "t": 194736.55000000063,
      "d": 400.21869791665813,
      "v": 89
    },
    {
      "midi": 42,
      "hit": false,
      "t": 194736.55000000063,
      "d": 1502.190729166614,
      "v": 72
    },
    {
      "midi": 57,
      "hit": false,
      "t": 194999.70750000063,
      "d": 312.4995312499814,
      "v": 59
    },
    {
      "midi": 64,
      "hit": false,
      "t": 195526.0225000006,
      "d": 60.30692708332208,
      "v": 50
    },
    {
      "midi": 59,
      "hit": false,
      "t": 195526.0225000006,
      "d": 158.9909895833116,
      "v": 93
    },
    {
      "midi": 57,
      "hit": false,
      "t": 195789.18000000058,
      "d": 186.40322916666628,
      "v": 85
    },
    {
      "midi": 61,
      "hit": false,
      "t": 196052.33750000058,
      "d": 334.4293229166651,
      "v": 107
    },
    {
      "midi": 64,
      "hit": false,
      "t": 196315.49500000058,
      "d": 219.2979166666628,
      "v": 93
    },
    {
      "midi": 57,
      "hit": false,
      "t": 196578.65250000058,
      "d": 213.81546874999185,
      "v": 52
    },
    {
      "midi": 59,
      "hit": false,
      "t": 196841.81000000058,
      "d": 378.2889062500035,
      "v": 93
    },
    {
      "midi": 52,
      "hit": false,
      "t": 196841.81000000058,
      "d": 1217.1034375000163,
      "v": 85
    },
    {
      "midi": 55,
      "hit": false,
      "t": 197104.96750000058,
      "d": 323.46442708332324,
      "v": 49
    },
    {
      "midi": 59,
      "hit": false,
      "t": 197368.12500000058,
      "d": 148.02609374999884,
      "v": 62
    },
    {
      "midi": 59,
      "hit": false,
      "t": 197631.28250000058,
      "d": 345.394218750007,
      "v": 93
    },
    {
      "midi": 62,
      "hit": false,
      "t": 197631.28250000058,
      "d": 564.6921354166698,
      "v": 93
    },
    {
      "midi": 55,
      "hit": false,
      "t": 197894.44000000058,
      "d": 301.5346354166686,
      "v": 57
    },
    {
      "midi": 59,
      "hit": false,
      "t": 198157.5975000006,
      "d": 378.2889062500035,
      "v": 80
    },
    {
      "midi": 62,
      "hit": false,
      "t": 198420.7550000006,
      "d": 180.92078124999534,
      "v": 80
    },
    {
      "midi": 64,
      "hit": false,
      "t": 198947.07000000056,
      "d": 482.45541666666395,
      "v": 102
    },
    {
      "midi": 45,
      "hit": false,
      "t": 198947.07000000056,
      "d": 1047.1475520833337,
      "v": 93
    },
    {
      "midi": 57,
      "hit": false,
      "t": 199210.22750000056,
      "d": 274.12239583334303,
      "v": 60
    },
    {
      "midi": 62,
      "hit": false,
      "t": 199473.38500000056,
      "d": 471.4905208333221,
      "v": 64
    },
    {
      "midi": 57,
      "hit": false,
      "t": 199736.54250000056,
      "d": 224.78036458333372,
      "v": 46
    },
    {
      "midi": 61,
      "hit": false,
      "t": 199999.70000000056,
      "d": 449.56072916666744,
      "v": 93
    },
    {
      "midi": 49,
      "hit": false,
      "t": 199999.70000000056,
      "d": 487.9378645833349,
      "v": 80
    },
    {
      "midi": 57,
      "hit": false,
      "t": 200262.85750000057,
      "d": 274.12239583334303,
      "v": 60
    },
    {
      "midi": 64,
      "hit": false,
      "t": 200526.01500000057,
      "d": 224.78036458333372,
      "v": 102
    },
    {
      "midi": 57,
      "hit": false,
      "t": 200789.17250000057,
      "d": 213.81546874999185,
      "v": 52
    },
    {
      "midi": 66,
      "hit": false,
      "t": 201052.33000000057,
      "d": 679.823541666643,
      "v": 72
    },
    {
      "midi": 62,
      "hit": false,
      "t": 201052.33000000057,
      "d": 701.7533333332976,
      "v": 93
    },
    {
      "midi": 50,
      "hit": false,
      "t": 201052.33000000057,
      "d": 1288.3752604166511,
      "v": 89
    },
    {
      "midi": 57,
      "hit": false,
      "t": 201578.64500000057,
      "d": 131.57874999998603,
      "v": 59
    },
    {
      "midi": 69,
      "hit": false,
      "t": 201841.80250000054,
      "d": 274.12239583334303,
      "v": 98
    },
    {
      "midi": 62,
      "hit": false,
      "t": 201841.80250000054,
      "d": 751.095364583336,
      "v": 93
    },
    {
      "midi": 57,
      "hit": false,
      "t": 202104.96000000054,
      "d": 186.40322916666628,
      "v": 51
    },
    {
      "midi": 66,
      "hit": false,
      "t": 202368.11750000055,
      "d": 268.6399479166721,
      "v": 93
    },
    {
      "midi": 57,
      "hit": false,
      "t": 202631.27500000055,
      "d": 274.12239583334303,
      "v": 46
    },
    {
      "midi": 64,
      "hit": false,
      "t": 203157.59000000055,
      "d": 630.4815104166628,
      "v": 85
    },
    {
      "midi": 61,
      "hit": false,
      "t": 203157.59000000055,
      "d": 635.9639583333337,
      "v": 102
    },
    {
      "midi": 42,
      "hit": false,
      "t": 203157.59000000055,
      "d": 1332.2348437500186,
      "v": 76
    },
    {
      "midi": 57,
      "hit": false,
      "t": 203683.90500000055,
      "d": 131.57874999998603,
      "v": 51
    },
    {
      "midi": 64,
      "hit": false,
      "t": 203947.06250000052,
      "d": 383.7713541666744,
      "v": 89
    },
    {
      "midi": 59,
      "hit": false,
      "t": 203947.06250000052,
      "d": 509.8676562500186,
      "v": 98
    },
    {
      "midi": 64,
      "hit": false,
      "t": 204473.37750000056,
      "d": 208.33302083335002,
      "v": 76
    },
    {
      "midi": 61,
      "hit": false,
      "t": 204473.37750000056,
      "d": 296.0521875000268,
      "v": 89
    },
    {
      "midi": 57,
      "hit": false,
      "t": 204736.5350000006,
      "d": 290.56973958332674,
      "v": 59
    },
    {
      "midi": 59,
      "hit": false,
      "t": 204999.6925000006,
      "d": 153.50854166666977,
      "v": 43
    },
    {
      "midi": 59,
      "hit": false,
      "t": 205262.8500000006,
      "d": 378.2889062500035,
      "v": 93
    },
    {
      "midi": 52,
      "hit": false,
      "t": 205262.8500000006,
      "d": 1321.2699479167059,
      "v": 85
    },
    {
      "midi": 55,
      "hit": false,
      "t": 205526.0075000006,
      "d": 356.35911458334886,
      "v": 56
    },
    {
      "midi": 59,
      "hit": false,
      "t": 205789.1650000006,
      "d": 153.50854166666977,
      "v": 64
    },
    {
      "midi": 59,
      "hit": false,
      "t": 206052.3225000006,
      "d": 345.394218750007,
      "v": 98
    },
    {
      "midi": 62,
      "hit": false,
      "t": 206052.3225000006,
      "d": 581.1394791667117,
      "v": 93
    },
    {
      "midi": 55,
      "hit": false,
      "t": 206315.4800000006,
      "d": 246.71015625001746,
      "v": 57
    },
    {
      "midi": 59,
      "hit": false,
      "t": 206578.63750000062,
      "d": 301.5346354166686,
      "v": 72
    },
    {
      "midi": 55,
      "hit": false,
      "t": 206841.79500000062,
      "d": 241.22770833334653,
      "v": 46
    },
    {
      "midi": 59,
      "hit": false,
      "t": 207104.95250000063,
      "d": 43.85958333333838,
      "v": 28
    },
    {
      "midi": 64,
      "hit": false,
      "t": 207368.11000000063,
      "d": 542.7623437500151,
      "v": 98
    },
    {
      "midi": 45,
      "hit": false,
      "t": 207368.11000000063,
      "d": 986.8406250000116,
      "v": 93
    },
    {
      "midi": 57,
      "hit": false,
      "t": 207631.26750000063,
      "d": 361.8415625000198,
      "v": 47
    },
    {
      "midi": 62,
      "hit": false,
      "t": 207894.42500000063,
      "d": 526.3150000000023,
      "v": 76
    },
    {
      "midi": 61,
      "hit": false,
      "t": 208420.74000000063,
      "d": 411.18359375,
      "v": 85
    },
    {
      "midi": 49,
      "hit": false,
      "t": 208420.74000000063,
      "d": 619.51661458335,
      "v": 85
    },
    {
      "midi": 57,
      "hit": false,
      "t": 208683.89750000063,
      "d": 405.70114583335817,
      "v": 60
    },
    {
      "midi": 61,
      "hit": false,
      "t": 208947.05500000063,
      "d": 191.88567708336632,
      "v": 60
    },
    {
      "midi": 64,
      "hit": false,
      "t": 209210.21250000066,
      "d": 131.57874999998603,
      "v": 93
    },
    {
      "midi": 66,
      "hit": false,
      "t": 209473.37000000064,
      "d": 515.3501041666896,
      "v": 80
    },
    {
      "midi": 50,
      "hit": false,
      "t": 209473.37000000064,
      "d": 1430.9189062500664,
      "v": 93
    },
    {
      "midi": 62,
      "hit": false,
      "t": 209736.52750000064,
      "d": 274.12239583337214,
      "v": 80
    },
    {
      "midi": 57,
      "hit": false,
      "t": 209999.68500000067,
      "d": 169.95588541668258,
      "v": 62
    },
    {
      "midi": 69,
      "hit": false,
      "t": 210262.8425000007,
      "d": 296.0521874999977,
      "v": 102
    },
    {
      "midi": 62,
      "hit": false,
      "t": 210262.8425000007,
      "d": 422.14848958334187,
      "v": 102
    },
    {
      "midi": 57,
      "hit": false,
      "t": 210526.0000000007,
      "d": 76.75427083333489,
      "v": 10
    },
    {
      "midi": 69,
      "hit": false,
      "t": 210789.1575000007,
      "d": 307.01708333333954,
      "v": 98
    },
    {
      "midi": 62,
      "hit": false,
      "t": 210789.1575000007,
      "d": 394.7362500000163,
      "v": 102
    },
    {
      "midi": 57,
      "hit": false,
      "t": 211052.3150000007,
      "d": 350.8766666666779,
      "v": 57
    },
    {
      "midi": 61,
      "hit": false,
      "t": 211578.6300000007,
      "d": 372.80645833333256,
      "v": 85
    },
    {
      "midi": 64,
      "hit": false,
      "t": 211578.6300000007,
      "d": 400.21869791665813,
      "v": 89
    },
    {
      "midi": 42,
      "hit": false,
      "t": 211578.6300000007,
      "d": 1502.190729166614,
      "v": 72
    },
    {
      "midi": 57,
      "hit": false,
      "t": 211841.7875000007,
      "d": 312.4995312499814,
      "v": 59
    },
    {
      "midi": 64,
      "hit": false,
      "t": 212368.10250000068,
      "d": 60.30692708332208,
      "v": 50
    },
    {
      "midi": 59,
      "hit": false,
      "t": 212368.10250000068,
      "d": 158.9909895833116,
      "v": 93
    },
    {
      "midi": 57,
      "hit": false,
      "t": 212631.26000000065,
      "d": 186.40322916666628,
      "v": 85
    },
    {
      "midi": 61,
      "hit": false,
      "t": 212894.41750000065,
      "d": 334.4293229166651,
      "v": 107
    },
    {
      "midi": 64,
      "hit": false,
      "t": 213157.57500000065,
      "d": 219.2979166666628,
      "v": 93
    },
    {
      "midi": 57,
      "hit": false,
      "t": 213420.73250000065,
      "d": 213.81546874999185,
      "v": 52
    }
  ]
}