{
  "jsonPath": "Unknown/Unknown/Syreeta/with-you-im-born-again.json",
  "path": "Unknown\\Unknown\\Syreeta\\With you Im born again.mid",
  "name": "With you Im born again",
  "difficulty": "Advanced",
  "bpm": 79.00038183517887,
  "notes": [
    {
      "midi": 61,
      "hit": false,
      "t": 93409.35864583333,
      "d": 707.2750625000044,
      "v": 78
    },
    {
      "midi": 38,
      "hit": false,
      "t": 93409.35864583333,
      "d": 2226.255062500044,
      "v": 84
    },
    {
      "midi": 64,
      "hit": false,
      "t": 93412.5231875,
      "d": 708.8573333333334,
      "v": 81
    },
    {
      "midi": 57,
      "hit": false,
      "t": 93792.2681875,
      "d": 387.65635416668374,
      "v": 76
    },
    {
      "midi": 45,
      "hit": false,
      "t": 93792.2681875,
      "d": 1871.82639583337,
      "v": 66
    },
    {
      "midi": 61,
      "hit": false,
      "t": 94160.93729166668,
      "d": 696.1991666666727,
      "v": 79
    },
    {
      "midi": 64,
      "hit": false,
      "t": 94172.01318750001,
      "d": 688.2878125000134,
      "v": 90
    },
    {
      "midi": 52,
      "hit": false,
      "t": 94172.01318750001,
      "d": 1492.0813958333601,
      "v": 72
    },
    {
      "midi": 57,
      "hit": false,
      "t": 94556.50500000002,
      "d": 643.9842291666719,
      "v": 75
    },
    {
      "midi": 67,
      "hit": false,
      "t": 94931.50318750003,
      "d": 305.37827083333104,
      "v": 103
    },
    {
      "midi": 64,
      "hit": false,
      "t": 94931.50318750003,
      "d": 344.93504166667117,
      "v": 103
    },
    {
      "midi": 67,
      "hit": false,
      "t": 95308.08364583337,
      "d": 367.08683333333465,
      "v": 105
    },
    {
      "midi": 64,
      "hit": false,
      "t": 95308.08364583337,
      "d": 371.83364583333605,
      "v": 95
    },
    {
      "midi": 57,
      "hit": false,
      "t": 95311.24818750004,
      "d": 368.6691041666636,
      "v": 83
    },
    {
      "midi": 66,
      "hit": false,
      "t": 95687.82864583338,
      "d": 675.6296458333381,
      "v": 87
    },
    {
      "midi": 62,
      "hit": false,
      "t": 95690.99318750005,
      "d": 661.389208333334,
      "v": 90
    },
    {
      "midi": 38,
      "hit": false,
      "t": 95690.99318750005,
      "d": 2227.8373333333584,
      "v": 88
    },
    {
      "midi": 57,
      "hit": false,
      "t": 96070.73818750004,
      "d": 387.65635416668374,
      "v": 69
    },
    {
      "midi": 45,
      "hit": false,
      "t": 96070.73818750004,
      "d": 1871.82639583337,
      "v": 63
    },
    {
      "midi": 54,
      "hit": false,
      "t": 96447.31864583338,
      "d": 1490.4991250000312,
      "v": 70
    },
    {
      "midi": 62,
      "hit": false,
      "t": 96450.48318750005,
      "d": 685.1232708333409,
      "v": 87
    },
    {
      "midi": 66,
      "hit": false,
      "t": 96450.48318750005,
      "d": 708.8573333333479,
      "v": 92
    },
    {
      "midi": 57,
      "hit": false,
      "t": 96834.97500000006,
      "d": 643.9842291666719,
      "v": 69
    },
    {
      "midi": 62,
      "hit": false,
      "t": 97206.8086458334,
      "d": 738.9204791666853,
      "v": 103
    },
    {
      "midi": 66,
      "hit": false,
      "t": 97586.5536458334,
      "d": 367.08683333336376,
      "v": 105
    },
    {
      "midi": 57,
      "hit": false,
      "t": 97589.71818750007,
      "d": 368.6691041666927,
      "v": 83
    },
    {
      "midi": 61,
      "hit": false,
      "t": 97966.29864583343,
      "d": 656.6423958333326,
      "v": 87
    },
    {
      "midi": 64,
      "hit": false,
      "t": 97969.4631875001,
      "d": 704.110520833332,
      "v": 97
    },
    {
      "midi": 38,
      "hit": false,
      "t": 97969.4631875001,
      "d": 2227.8373333333584,
      "v": 84
    },
    {
      "midi": 57,
      "hit": false,
      "t": 98349.2081875001,
      "d": 387.65635416668374,
      "v": 77
    },
    {
      "midi": 45,
      "hit": false,
      "t": 98349.2081875001,
      "d": 1871.82639583337,
      "v": 63
    },
    {
      "midi": 52,
      "hit": false,
      "t": 98725.78864583344,
      "d": 1490.4991250000312,
      "v": 68
    },
    {
      "midi": 61,
      "hit": false,
      "t": 98728.95318750011,
      "d": 669.3005625000078,
      "v": 91
    },
    {
      "midi": 64,
      "hit": false,
      "t": 98728.95318750011,
      "d": 685.1232708333409,
      "v": 89
    },
    {
      "midi": 57,
      "hit": false,
      "t": 99108.69818750012,
      "d": 664.5537500000064,
      "v": 79
    },
    {
      "midi": 61,
      "hit": false,
      "t": 99485.27864583346,
      "d": 738.9204791666853,
      "v": 108
    },
    {
      "midi": 64,
      "hit": false,
      "t": 99865.02364583345,
      "d": 367.08683333336376,
      "v": 102
    },
    {
      "midi": 57,
      "hit": false,
      "t": 99868.18818750013,
      "d": 368.6691041666927,
      "v": 83
    },
    {
      "midi": 66,
      "hit": false,
      "t": 100240.02183333349,
      "d": 672.4651041666657,
      "v": 95
    },
    {
      "midi": 62,
      "hit": false,
      "t": 100247.93318750017,
      "d": 685.1232708333264,
      "v": 90
    },
    {
      "midi": 38,
      "hit": false,
      "t": 100247.93318750017,
      "d": 2227.837333333344,
      "v": 84
    },
    {
      "midi": 57,
      "hit": false,
      "t": 100627.67818750016,
      "d": 387.65635416668374,
      "v": 79
    },
    {
      "midi": 45,
      "hit": false,
      "t": 100627.67818750016,
      "d": 1871.8263958333555,
      "v": 63
    },
    {
      "midi": 54,
      "hit": false,
      "t": 100999.5118333335,
      "d": 1492.0813958333456,
      "v": 70
    },
    {
      "midi": 62,
      "hit": false,
      "t": 101007.42318750017,
      "d": 648.7310416666733,
      "v": 87
    },
    {
      "midi": 66,
      "hit": false,
      "t": 101007.42318750017,
      "d": 740.5027499999997,
      "v": 91
    },
    {
      "midi": 57,
      "hit": false,
      "t": 101391.91500000018,
      "d": 825.9453749999957,
      "v": 85
    },
    {
      "midi": 62,
      "hit": false,
      "t": 101766.91318750018,
      "d": 780.0595208333398,
      "v": 87
    },
    {
      "midi": 66,
      "hit": false,
      "t": 101953.62114583352,
      "d": 620.2501666666794,
      "v": 98
    },
    {
      "midi": 69,
      "hit": false,
      "t": 102138.74683333351,
      "d": 431.9599375000107,
      "v": 107
    },
    {
      "midi": 57,
      "hit": false,
      "t": 102325.45479166684,
      "d": 256.3278750000318,
      "v": 97
    },
    {
      "midi": 67,
      "hit": false,
      "t": 102518.49183333352,
      "d": 664.553750000021,
      "v": 95
    },
    {
      "midi": 64,
      "hit": false,
      "t": 102518.49183333352,
      "d": 669.3005625000224,
      "v": 89
    },
    {
      "midi": 38,
      "hit": false,
      "t": 102518.49183333352,
      "d": 2227.837333333402,
      "v": 84
    },
    {
      "midi": 57,
      "hit": false,
      "t": 102906.1481875002,
      "d": 387.65635416668374,
      "v": 79
    },
    {
      "midi": 45,
      "hit": false,
      "t": 102906.1481875002,
      "d": 1871.8263958333846,
      "v": 70
    },
    {
      "midi": 64,
      "hit": false,
      "t": 103274.81729166688,
      "d": 422.4663125000079,
      "v": 79
    },
    {
      "midi": 67,
      "hit": false,
      "t": 103285.89318750022,
      "d": 645.5665000000154,
      "v": 90
    },
    {
      "midi": 52,
      "hit": false,
      "t": 103285.89318750022,
      "d": 1056.9569166666915,
      "v": 72
    },
    {
      "midi": 57,
      "hit": false,
      "t": 103678.29635416689,
      "d": 398.7322500000155,
      "v": 74
    },
    {
      "midi": 64,
      "hit": false,
      "t": 103852.34614583357,
      "d": 569.6175000000076,
      "v": 93
    },
    {
      "midi": 67,
      "hit": false,
      "t": 104042.21864583356,
      "d": 390.8208958333562,
      "v": 112
    },
    {
      "midi": 52,
      "hit": false,
      "t": 104425.12818750025,
      "d": 368.66910416667815,
      "v": 78
    },
    {
      "midi": 57,
      "hit": false,
      "t": 104437.78635416692,
      "d": 343.3527708333422,
      "v": 91
    },
    {
      "midi": 64,
      "hit": false,
      "t": 104611.83614583359,
      "d": 200.94839583334397,
      "v": 100
    },
    {
      "midi": 62,
      "hit": false,
      "t": 104796.9618333336,
      "d": 400.31452083334443,
      "v": 95
    },
    {
      "midi": 66,
      "hit": false,
      "t": 104796.9618333336,
      "d": 637.6551458333415,
      "v": 104
    },
    {
      "midi": 38,
      "hit": false,
      "t": 104801.7086458336,
      "d": 2226.255062500015,
      "v": 88
    },
    {
      "midi": 45,
      "hit": false,
      "t": 105184.61818750027,
      "d": 1397.1451458333468,
      "v": 73
    },
    {
      "midi": 57,
      "hit": false,
      "t": 105189.36500000027,
      "d": 387.6563541666692,
      "v": 65
    },
    {
      "midi": 62,
      "hit": false,
      "t": 105374.49068750028,
      "d": 276.89739583332266,
      "v": 80
    },
    {
      "midi": 66,
      "hit": false,
      "t": 105561.1986458336,
      "d": 161.39162500000384,
      "v": 96
    },
    {
      "midi": 50,
      "hit": false,
      "t": 105561.1986458336,
      "d": 1490.4991250000166,
      "v": 80
    },
    {
      "midi": 66,
      "hit": false,
      "t": 105754.23568750027,
      "d": 253.16333333333023,
      "v": 93
    },
    {
      "midi": 62,
      "hit": false,
      "t": 105754.23568750027,
      "d": 281.64420833332406,
      "v": 102
    },
    {
      "midi": 57,
      "hit": false,
      "t": 105944.10818750027,
      "d": 487.3394166666694,
      "v": 70
    },
    {
      "midi": 62,
      "hit": false,
      "t": 106133.98068750027,
      "d": 371.83364583333605,
      "v": 93
    },
    {
      "midi": 66,
      "hit": false,
      "t": 106133.98068750027,
      "d": 408.2258750000037,
      "v": 110
    },
    {
      "midi": 57,
      "hit": false,
      "t": 106526.38385416694,
      "d": 553.794791666689,
      "v": 74
    },
    {
      "midi": 62,
      "hit": false,
      "t": 106703.59818750028,
      "d": 344.93504166667117,
      "v": 91
    },
    {
      "midi": 45,
      "hit": false,
      "t": 106703.59818750028,
      "d": 384.49181250002584,
      "v": 74
    },
    {
      "midi": 66,
      "hit": false,
      "t": 106890.30614583362,
      "d": 169.3029791666777,
      "v": 103
    },
    {
      "midi": 64,
      "hit": false,
      "t": 107072.26729166695,
      "d": 549.047979166673,
      "v": 94
    },
    {
      "midi": 61,
      "hit": false,
      "t": 107075.43183333363,
      "d": 566.4529583333351,
      "v": 90
    },
    {
      "midi": 38,
      "hit": false,
      "t": 107080.17864583363,
      "d": 2226.2550625000295,
      "v": 84
    },
    {
      "midi": 45,
      "hit": false,
      "t": 107463.0881875003,
      "d": 685.1232708333409,
      "v": 78
    },
    {
      "midi": 57,
      "hit": false,
      "t": 107660.87204166697,
      "d": 142.40437499999825,
      "v": 86
    },
    {
      "midi": 64,
      "hit": false,
      "t": 107831.75729166696,
      "d": 395.5677083333576,
      "v": 103
    },
    {
      "midi": 61,
      "hit": false,
      "t": 107831.75729166696,
      "d": 411.3904166666907,
      "v": 94
    },
    {
      "midi": 52,
      "hit": false,
      "t": 107839.66864583363,
      "d": 719.9332291666797,
      "v": 71
    },
    {
      "midi": 57,
      "hit": false,
      "t": 108214.66683333364,
      "d": 329.11233333333803,
      "v": 94
    },
    {
      "midi": 45,
      "hit": false,
      "t": 108222.57818750032,
      "d": 632.9083333333401,
      "v": 71
    },
    {
      "midi": 64,
      "hit": false,
      "t": 108594.41183333365,
      "d": 719.9332291666797,
      "v": 103
    },
    {
      "midi": 61,
      "hit": false,
      "t": 108599.15864583365,
      "d": 699.3637083333306,
      "v": 94
    },
    {
      "midi": 52,
      "hit": false,
      "t": 108599.15864583365,
      "d": 723.0977708333521,
      "v": 79
    },
    {
      "midi": 69,
      "hit": false,
      "t": 108784.28433333365,
      "d": 522.1493750000081,
      "v": 103
    },
    {
      "midi": 45,
      "hit": false,
      "t": 108986.81500000032,
      "d": 379.74500000002445,
      "v": 82
    },
    {
      "midi": 66,
      "hit": false,
      "t": 109353.90183333367,
      "d": 669.3005625000078,
      "v": 101
    },
    {
      "midi": 62,
      "hit": false,
      "t": 109353.90183333367,
      "d": 685.1232708333409,
      "v": 90
    },
    {
      "midi": 38,
      "hit": false,
      "t": 109358.64864583367,
      "d": 2226.2550625000295,
      "v": 84
    },
    {
      "midi": 57,
      "hit": false,
      "t": 109741.55818750034,
      "d": 387.65635416668374,
      "v": 69
    },
    {
      "midi": 45,
      "hit": false,
      "t": 109741.55818750034,
      "d": 601.2629166666884,
      "v": 73
    },
    {
      "midi": 62,
      "hit": false,
      "t": 110121.30318750035,
      "d": 645.5665000000154,
      "v": 91
    },
    {
      "midi": 66,
      "hit": false,
      "t": 110121.30318750035,
      "d": 661.3892083333485,
      "v": 95
    },
    {
      "midi": 54,
      "hit": false,
      "t": 110121.30318750035,
      "d": 672.4651041666802,
      "v": 58
    },
    {
      "midi": 45,
      "hit": false,
      "t": 110501.04818750036,
      "d": 669.3005625000078,
      "v": 76
    },
    {
      "midi": 57,
      "hit": false,
      "t": 110698.83204166703,
      "d": 197.78385416667152,
      "v": 79
    },
    {
      "midi": 54,
      "hit": false,
      "t": 110877.6286458337,
      "d": 680.3764583333395,
      "v": 60
    },
    {
      "midi": 62,
      "hit": false,
      "t": 110877.6286458337,
      "d": 691.4523541666713,
      "v": 104
    },
    {
      "midi": 66,
      "hit": false,
      "t": 110880.79318750037,
      "d": 740.5027499999997,
      "v": 99
    },
    {
      "midi": 57,
      "hit": false,
      "t": 111249.46229166703,
      "d": 374.9981875000085,
      "v": 95
    },
    {
      "midi": 45,
      "hit": false,
      "t": 111252.6268333337,
      "d": 395.56770833334303,
      "v": 82
    },
    {
      "midi": 65,
      "hit": false,
      "t": 111624.46047916704,
      "d": 780.0595208333398,
      "v": 94
    },
    {
      "midi": 62,
      "hit": false,
      "t": 111632.37183333372,
      "d": 764.2368124999921,
      "v": 90
    },
    {
      "midi": 38,
      "hit": false,
      "t": 111637.11864583372,
      "d": 2262.647291666668,
      "v": 88
    },
    {
      "midi": 45,
      "hit": false,
      "t": 112012.11683333371,
      "d": 1863.915041666667,
      "v": 71
    },
    {
      "midi": 69,
      "hit": false,
      "t": 112024.77500000037,
      "d": 367.08683333333465,
      "v": 82
    },
    {
      "midi": 74,
      "hit": false,
      "t": 112396.60864583371,
      "d": 664.5537499999919,
      "v": 102
    },
    {
      "midi": 77,
      "hit": false,
      "t": 112399.77318750038,
      "d": 632.9083333333256,
      "v": 103
    },
    {
      "midi": 53,
      "hit": false,
      "t": 112399.77318750038,
      "d": 1463.6005208333372,
      "v": 74
    },
    {
      "midi": 69,
      "hit": false,
      "t": 112779.51818750038,
      "d": 368.6691041666636,
      "v": 61
    },
    {
      "midi": 74,
      "hit": false,
      "t": 113156.09864583371,
      "d": 667.7182916666643,
      "v": 107
    },
    {
      "midi": 77,
      "hit": false,
      "t": 113159.26318750039,
      "d": 680.376458333325,
      "v": 103
    },
    {
      "midi": 69,
      "hit": false,
      "t": 113527.93229166705,
      "d": 382.9095416666678,
      "v": 64
    },
    {
      "midi": 72,
      "hit": false,
      "t": 113910.84183333372,
      "d": 704.1105208333174,
      "v": 99
    },
    {
      "midi": 76,
      "hit": false,
      "t": 113915.58864583372,
      "d": 636.0728749999835,
      "v": 109
    },
    {
      "midi": 45,
      "hit": false,
      "t": 113915.58864583372,
      "d": 2262.647291666668,
      "v": 88
    },
    {
      "midi": 52,
      "hit": false,
      "t": 114290.58683333371,
      "d": 1887.649104166674,
      "v": 71
    },
    {
      "midi": 67,
      "hit": false,
      "t": 114303.24500000037,
      "d": 367.08683333333465,
      "v": 64
    },
    {
      "midi": 72,
      "hit": false,
      "t": 114678.24318750038,
      "d": 632.9083333333256,
      "v": 93
    },
    {
      "midi": 76,
      "hit": false,
      "t": 114678.24318750038,
      "d": 772.1481666666659,
      "v": 103
    },
    {
      "midi": 55,
      "hit": false,
      "t": 114678.24318750038,
      "d": 1463.6005208333372,
      "v": 74
    },
    {
      "midi": 67,
      "hit": false,
      "t": 115062.73500000038,
      "d": 351.2641250000015,
      "v": 67
    },
    {
      "midi": 67,
      "hit": false,
      "t": 115453.55589583372,
      "d": 743.6672916666867,
      "v": 96
    },
    {
      "midi": 72,
      "hit": false,
      "t": 115632.35250000039,
      "d": 580.6933958333539,
      "v": 103
    },
    {
      "midi": 76,
      "hit": false,
      "t": 115814.31364583372,
      "d": 403.4790625000169,
      "v": 99
    },
    {
      "midi": 79,
      "hit": false,
      "t": 115999.43933333372,
      "d": 218.3533750000206,
      "v": 111
    },
    {
      "midi": 69,
      "hit": false,
      "t": 116181.40047916706,
      "d": 693.0346250000148,
      "v": 112
    },
    {
      "midi": 74,
      "hit": false,
      "t": 116186.14729166706,
      "d": 767.4013541666936,
      "v": 91
    },
    {
      "midi": 46,
      "hit": false,
      "t": 116194.05864583373,
      "d": 719.9332291666797,
      "v": 88
    },
    {
      "midi": 53,
      "hit": false,
      "t": 116569.05683333374,
      "d": 716.7686875000218,
      "v": 71
    },
    {
      "midi": 62,
      "hit": false,
      "t": 116569.05683333374,
      "d": 1096.5136875000317,
      "v": 75
    },
    {
      "midi": 65,
      "hit": false,
      "t": 116956.71318750043,
      "d": 704.1105208333465,
      "v": 103
    },
    {
      "midi": 46,
      "hit": false,
      "t": 116956.71318750043,
      "d": 712.0218750000204,
      "v": 74
    },
    {
      "midi": 69,
      "hit": false,
      "t": 116956.71318750043,
      "d": 759.4900000000343,
      "v": 102
    },
    {
      "midi": 74,
      "hit": false,
      "t": 117325.3822916671,
      "d": 387.65635416668374,
      "v": 84
    },
    {
      "midi": 53,
      "hit": false,
      "t": 117341.20500000044,
      "d": 1068.0328125000378,
      "v": 60
    },
    {
      "midi": 65,
      "hit": false,
      "t": 117705.12729166712,
      "d": 751.578645833375,
      "v": 97
    },
    {
      "midi": 62,
      "hit": false,
      "t": 117708.29183333379,
      "d": 743.6672916667012,
      "v": 92
    },
    {
      "midi": 46,
      "hit": false,
      "t": 117724.11454166714,
      "d": 704.1105208333465,
      "v": 59
    },
    {
      "midi": 74,
      "hit": false,
      "t": 118084.87229166714,
      "d": 371.8336458333506,
      "v": 82
    },
    {
      "midi": 67,
      "hit": false,
      "t": 118464.61729166716,
      "d": 719.9332291666506,
      "v": 101
    },
    {
      "midi": 72,
      "hit": false,
      "t": 118467.78183333384,
      "d": 672.4651041666511,
      "v": 112
    },
    {
      "midi": 45,
      "hit": false,
      "t": 118472.52864583384,
      "d": 2262.6472916666535,
      "v": 88
    },
    {
      "midi": 52,
      "hit": false,
      "t": 118847.52683333383,
      "d": 1887.6491041666595,
      "v": 71
    },
    {
      "midi": 62,
      "hit": false,
      "t": 118860.18500000049,
      "d": 343.35277083332767,
      "v": 74
    },
    {
      "midi": 72,
      "hit": false,
      "t": 119227.27183333383,
      "d": 724.6800416666665,
      "v": 103
    },
    {
      "midi": 67,
      "hit": false,
      "t": 119232.01864583383,
      "d": 651.8955833333312,
      "v": 107
    },
    {
      "midi": 55,
      "hit": false,
      "t": 119235.1831875005,
      "d": 1463.6005208333227,
      "v": 74
    },
    {
      "midi": 62,
      "hit": false,
      "t": 119619.6750000005,
      "d": 332.2768749999959,
      "v": 76
    },
    {
      "midi": 67,
      "hit": false,
      "t": 119994.67318750049,
      "d": 368.6691041666636,
      "v": 105
    },
    {
      "midi": 72,
      "hit": false,
      "t": 119994.67318750049,
      "d": 669.3005624999932,
      "v": 103
    },
    {
      "midi": 62,
      "hit": false,
      "t": 120390.24089583382,
      "d": 316.45416666667734,
      "v": 86
    },
    {
      "midi": 67,
      "hit": false,
      "t": 120572.20204166716,
      "d": 147.15118749999965,
      "v": 94
    },
    {
      "midi": 60,
      "hit": false,
      "t": 120750.99864583382,
      "d": 731.0091249999969,
      "v": 82
    },
    {
      "midi": 69,
      "hit": false,
      "t": 120750.99864583382,
      "d": 735.7559374999983,
      "v": 103
    },
    {
      "midi": 43,
      "hit": false,
      "t": 120750.99864583382,
      "d": 1827.5228125000285,
      "v": 88
    },
    {
      "midi": 65,
      "hit": false,
      "t": 120754.1631875005,
      "d": 685.1232708333264,
      "v": 112
    },
    {
      "midi": 50,
      "hit": false,
      "t": 121125.99683333383,
      "d": 1887.6491041667032,
      "v": 71
    },
    {
      "midi": 62,
      "hit": false,
      "t": 121138.6550000005,
      "d": 371.83364583333605,
      "v": 94
    },
    {
      "midi": 69,
      "hit": false,
      "t": 121513.6531875005,
      "d": 379.7450000000099,
      "v": 103
    },
    {
      "midi": 58,
      "hit": false,
      "t": 121513.6531875005,
      "d": 1463.6005208333663,
      "v": 74
    },
    {
      "midi": 65,
      "hit": false,
      "t": 121518.4000000005,
      "d": 351.2641250000015,
      "v": 112
    },
    {
      "midi": 60,
      "hit": false,
      "t": 121700.36114583384,
      "d": 928.7929791666829,
      "v": 80
    },
    {
      "midi": 62,
      "hit": false,
      "t": 121893.39818750051,
      "d": 1052.2101041666901,
      "v": 103
    },
    {
      "midi": 65,
      "hit": false,
      "t": 122072.19479166718,
      "d": 920.8816250000236,
      "v": 94
    },
    {
      "midi": 69,
      "hit": false,
      "t": 122265.23183333385,
      "d": 735.7559375000274,
      "v": 112
    },
    {
      "midi": 74,
      "hit": false,
      "t": 122652.88818750053,
      "d": 348.0995833333436,
      "v": 106
    },
    {
      "midi": 43,
      "hit": false,
      "t": 122657.63500000053,
      "d": 332.2768749999959,
      "v": 74
    },
    {
      "midi": 65,
      "hit": false,
      "t": 123021.55729166721,
      "d": 311.70735416667594,
      "v": 104
    },
    {
      "midi": 62,
      "hit": false,
      "t": 123024.72183333388,
      "d": 300.63145833332965,
      "v": 100
    },
    {
      "midi": 45,
      "hit": false,
      "t": 123029.46864583388,
      "d": 1867.0795833333977,
      "v": 88
    },
    {
      "midi": 55,
      "hit": false,
      "t": 123404.46683333389,
      "d": 324.36552083333663,
      "v": 82
    },
    {
      "midi": 62,
      "hit": false,
      "t": 123409.2136458339,
      "d": 272.1505833333358,
      "v": 94
    },
    {
      "midi": 65,
      "hit": false,
      "t": 123412.37818750057,
      "d": 281.64420833332406,
      "v": 90
    },
    {
      "midi": 62,
      "hit": false,
      "t": 123781.04729166723,
      "d": 335.4414166666829,
      "v": 103
    },
    {
      "midi": 58,
      "hit": false,
      "t": 123784.2118333339,
      "d": 337.0236875000119,
      "v": 94
    },
    {
      "midi": 55,
      "hit": false,
      "t": 123792.12318750058,
      "d": 712.0218750000204,
      "v": 74
    },
    {
      "midi": 65,
      "hit": false,
      "t": 124176.61500000059,
      "d": 308.5428125000035,
      "v": 102
    },
    {
      "midi": 62,
      "hit": false,
      "t": 124176.61500000059,
      "d": 332.2768750000105,
      "v": 112
    },
    {
      "midi": 57,
      "hit": false,
      "t": 124192.43770833392,
      "d": 276.8973958333372,
      "v": 86
    },
    {
      "midi": 64,
      "hit": false,
      "t": 124564.27135416727,
      "d": 712.0218750000204,
      "v": 103
    },
    {
      "midi": 55,
      "hit": false,
      "t": 124567.43589583394,
      "d": 716.7686875000218,
      "v": 103
    },
    {
      "midi": 61,
      "hit": false,
      "t": 124567.43589583394,
      "d": 732.5913958333549,
      "v": 94
    },
    {
      "midi": 45,
      "hit": false,
      "t": 124936.10500000062,
      "d": 332.2768749999959,
      "v": 71
    },
    {
      "midi": 62,
      "hit": false,
      "t": 125303.19183333397,
      "d": 2227.8373333333584,
      "v": 103
    },
    {
      "midi": 38,
      "hit": false,
      "t": 125307.93864583397,
      "d": 2249.989125000022,
      "v": 88
    },
    {
      "midi": 64,
      "hit": false,
      "t": 125311.10318750064,
      "d": 2096.508854166692,
      "v": 112
    },
    {
      "midi": 67,
      "hit": false,
      "t": 125311.10318750064,
      "d": 2096.508854166692,
      "v": 112
    },
    {
      "midi": 57,
      "hit": false,
      "t": 125682.93683333398,
      "d": 1887.649104166674,
      "v": 87
    },
    {
      "midi": 74,
      "hit": false,
      "t": 126070.59318750065,
      "d": 669.3005625000078,
      "v": 99
    },
    {
      "midi": 76,
      "hit": false,
      "t": 126070.59318750065,
      "d": 685.1232708333409,
      "v": 105
    },
    {
      "midi": 52,
      "hit": false,
      "t": 126070.59318750065,
      "d": 1068.0328125000087,
      "v": 74
    },
    {
      "midi": 81,
      "hit": false,
      "t": 126075.34000000065,
      "d": 1110.7541250000068,
      "v": 87
    },
    {
      "midi": 69,
      "hit": false,
      "t": 126447.17364583399,
      "d": 398.73225000000093,
      "v": 76
    },
    {
      "midi": 74,
      "hit": false,
      "t": 126834.83000000066,
      "d": 177.21433333333698,
      "v": 94
    },
    {
      "midi": 69,
      "hit": false,
      "t": 127024.70250000065,
      "d": 490.50395833334187,
      "v": 85
    },
    {
      "midi": 52,
      "hit": false,
      "t": 127209.82818750067,
      "d": 368.6691041666636,
      "v": 74
    },
    {
      "midi": 76,
      "hit": false,
      "t": 127209.82818750067,
      "d": 387.6563541666692,
      "v": 89
    },
    {
      "midi": 81,
      "hit": false,
      "t": 127399.70068750066,
      "d": 142.40437499999825,
      "v": 81
    },
    {
      "midi": 81,
      "hit": false,
      "t": 127573.75047916733,
      "d": 624.9969791666808,
      "v": 96
    },
    {
      "midi": 69,
      "hit": false,
      "t": 127578.49729166733,
      "d": 403.4790625000023,
      "v": 104
    },
    {
      "midi": 78,
      "hit": false,
      "t": 127578.49729166733,
      "d": 443.03583333334245,
      "v": 104
    },
    {
      "midi": 38,
      "hit": false,
      "t": 127586.408645834,
      "d": 2262.6472916667117,
      "v": 88
    },
    {
      "midi": 45,
      "hit": false,
      "t": 127961.406833334,
      "d": 1887.6491041667177,
      "v": 71
    },
    {
      "midi": 74,
      "hit": false,
      "t": 127969.31818750067,
      "d": 348.0995833333436,
      "v": 71
    },
    {
      "midi": 69,
      "hit": false,
      "t": 128337.98729166735,
      "d": 382.90954166668234,
      "v": 86
    },
    {
      "midi": 81,
      "hit": false,
      "t": 128337.98729166735,
      "d": 617.0856250000215,
      "v": 94
    },
    {
      "midi": 78,
      "hit": false,
      "t": 128341.15183333402,
      "d": 685.1232708333555,
      "v": 99
    },
    {
      "midi": 54,
      "hit": false,
      "t": 128349.0631875007,
      "d": 1463.6005208333518,
      "v": 74
    },
    {
      "midi": 74,
      "hit": false,
      "t": 128736.71954166736,
      "d": 332.2768750000105,
      "v": 67
    },
    {
      "midi": 69,
      "hit": false,
      "t": 129105.38864583404,
      "d": 675.6296458333381,
      "v": 96
    },
    {
      "midi": 81,
      "hit": false,
      "t": 129105.38864583404,
      "d": 743.6672916666721,
      "v": 97
    },
    {
      "midi": 78,
      "hit": false,
      "t": 129108.55318750071,
      "d": 764.2368125000212,
      "v": 105
    },
    {
      "midi": 74,
      "hit": false,
      "t": 129488.29818750071,
      "d": 329.11233333333803,
      "v": 78
    },
    {
      "midi": 74,
      "hit": false,
      "t": 129852.22047916739,
      "d": 661.389208333334,
      "v": 103
    },
    {
      "midi": 69,
      "hit": false,
      "t": 129860.13183333406,
      "d": 640.8196874999994,
      "v": 90
    },
    {
      "midi": 38,
      "hit": false,
      "t": 129864.87864583406,
      "d": 2262.647291666697,
      "v": 88
    },
    {
      "midi": 45,
      "hit": false,
      "t": 130239.87683333407,
      "d": 1863.9150416666816,
      "v": 71
    },
    {
      "midi": 65,
      "hit": false,
      "t": 130252.53500000073,
      "d": 367.0868333333201,
      "v": 82
    },
    {
      "midi": 69,
      "hit": false,
      "t": 130624.36864583405,
      "d": 664.5537500000355,
      "v": 102
    },
    {
      "midi": 53,
      "hit": false,
      "t": 130627.53318750073,
      "d": 474.6812500000233,
      "v": 74
    },
    {
      "midi": 74,
      "hit": false,
      "t": 130627.53318750073,
      "d": 632.9083333333547,
      "v": 103
    },
    {
      "midi": 57,
      "hit": false,
      "t": 130999.36683333406,
      "d": 368.66910416670726,
      "v": 78
    },
    {
      "midi": 65,
      "hit": false,
      "t": 131007.27818750073,
      "d": 368.6691041666927,
      "v": 69
    },
    {
      "midi": 53,
      "hit": false,
      "t": 131375.94729166743,
      "d": 395.56770833331393,
      "v": 86
    },
    {
      "midi": 69,
      "hit": false,
      "t": 131383.8586458341,
      "d": 667.7182916666497,
      "v": 107
    },
    {
      "midi": 74,
      "hit": false,
      "t": 131387.02318750074,
      "d": 680.3764583333395,
      "v": 103
    },
    {
      "midi": 65,
      "hit": false,
      "t": 131755.69229166742,
      "d": 382.90954166668234,
      "v": 64
    },
    {
      "midi": 50,
      "hit": false,
      "t": 131763.60364583408,
      "d": 356.01093750001746,
      "v": 89
    },
    {
      "midi": 72,
      "hit": false,
      "t": 132138.6018333341,
      "d": 704.1105208333174,
      "v": 99
    },
    {
      "midi": 76,
      "hit": false,
      "t": 132143.3486458341,
      "d": 636.0728749999835,
      "v": 109
    },
    {
      "midi": 45,
      "hit": false,
      "t": 132143.3486458341,
      "d": 1787.9660416666302,
      "v": 88
    },
    {
      "midi": 52,
      "hit": false,
      "t": 132518.3468333341,
      "d": 1887.6491041666304,
      "v": 71
    },
    {
      "midi": 67,
      "hit": false,
      "t": 132531.00500000076,
      "d": 367.08683333333465,
      "v": 64
    },
    {
      "midi": 72,
      "hit": false,
      "t": 132879.1045833341,
      "d": 746.83183333333,
      "v": 78
    },
    {
      "midi": 55,
      "hit": false,
      "t": 132906.00318750076,
      "d": 1463.600520833308,
      "v": 74
    },
    {
      "midi": 76,
      "hit": false,
      "t": 132918.66135416742,
      "d": 731.0091250000114,
      "v": 103
    },
    {
      "midi": 79,
      "hit": false,
      "t": 132969.2940208341,
      "d": 704.1105208333174,
      "v": 103
    },
    {
      "midi": 67,
      "hit": false,
      "t": 133290.49500000075,
      "d": 351.26412500001607,
      "v": 70
    },
    {
      "midi": 72,
      "hit": false,
      "t": 133670.24000000075,
      "d": 395.56770833334303,
      "v": 114
    },
    {
      "midi": 76,
      "hit": false,
      "t": 133670.24000000075,
      "d": 398.73225000000093,
      "v": 103
    },
    {
      "midi": 67,
      "hit": false,
      "t": 134049.98500000074,
      "d": 82.27808333333815,
      "v": 67
    },
    {
      "midi": 45,
      "hit": false,
      "t": 134049.98500000074,
      "d": 332.2768749999814,
      "v": 90
    },
    {
      "midi": 72,
      "hit": false,
      "t": 134239.85750000074,
      "d": 177.21433333330788,
      "v": 103
    },
    {
      "midi": 69,
      "hit": false,
      "t": 134413.9072916674,
      "d": 719.9332291666651,
      "v": 112
    },
    {
      "midi": 74,
      "hit": false,
      "t": 134413.9072916674,
      "d": 767.40135416665,
      "v": 91
    },
    {
      "midi": 65,
      "hit": false,
      "t": 134421.81864583405,
      "d": 696.1991666666581,
      "v": 94
    },
    {
      "midi": 46,
      "hit": false,
      "t": 134421.81864583405,
      "d": 719.9332291666651,
      "v": 88
    },
    {
      "midi": 53,
      "hit": false,
      "t": 134796.81683333404,
      "d": 716.7686874999781,
      "v": 71
    },
    {
      "midi": 62,
      "hit": false,
      "t": 134804.7281875007,
      "d": 1096.5136874999735,
      "v": 81
    },
    {
      "midi": 69,
      "hit": false,
      "t": 135181.30864583404,
      "d": 759.4899999999616,
      "v": 102
    },
    {
      "midi": 65,
      "hit": false,
      "t": 135184.4731875007,
      "d": 704.1105208333174,
      "v": 103
    },
    {
      "midi": 46,
      "hit": false,
      "t": 135184.4731875007,
      "d": 712.0218749999767,
      "v": 74
    },
    {
      "midi": 74,
      "hit": false,
      "t": 135561.05364583404,
      "d": 387.65635416662553,
      "v": 84
    },
    {
      "midi": 53,
      "hit": false,
      "t": 135568.9650000007,
      "d": 1068.032812499936,
      "v": 60
    },
    {
      "midi": 65,
      "hit": false,
      "t": 135932.88729166734,
      "d": 751.5786458333023,
      "v": 97
    },
    {
      "midi": 62,
      "hit": false,
      "t": 135936.051833334,
      "d": 743.667291666643,
      "v": 92
    },
    {
      "midi": 46,
      "hit": false,
      "t": 135951.87454166732,
      "d": 704.1105208333174,
      "v": 59
    },
    {
      "midi": 74,
      "hit": false,
      "t": 136312.6322916673,
      "d": 371.83364583333605,
      "v": 88
    },
    {
      "midi": 67,
      "hit": false,
      "t": 136692.3772916673,
      "d": 719.933229166636,
      "v": 98
    },
    {
      "midi": 72,
      "hit": false,
      "t": 136695.54183333396,
      "d": 672.4651041666511,
      "v": 112
    },
    {
      "midi": 45,
      "hit": false,
      "t": 136700.28864583396,
      "d": 1827.522812500014,
      "v": 88
    },
    {
      "midi": 52,
      "hit": false,
      "t": 137075.28683333396,
      "d": 1887.6491041666595,
      "v": 71
    },
    {
      "midi": 62,
      "hit": false,
      "t": 137087.94500000062,
      "d": 343.35277083332767,
      "v": 72
    },
    {
      "midi": 72,
      "hit": false,
      "t": 137455.03183333395,
      "d": 724.6800416666665,
      "v": 103
    },
    {
      "midi": 67,
      "hit": false,
      "t": 137459.77864583395,
      "d": 651.8955833333312,
      "v": 97
    },
    {
      "midi": 55,
      "hit": false,
      "t": 137462.9431875006,
      "d": 1463.6005208333372,
      "v": 74
    },
    {
      "midi": 62,
      "hit": false,
      "t": 137847.4350000006,
      "d": 332.2768750000105,
      "v": 70
    },
    {
      "midi": 62,
      "hit": false,
      "t": 138227.18000000063,
      "d": 181.96114583333838,
      "v": 108
    },
    {
      "midi": 74,
      "hit": false,
      "t": 138227.18000000063,
      "d": 200.94839583334397,
      "v": 117
    },
    {
      "midi": 67,
      "hit": false,
      "t": 138409.14114583397,
      "d": 185.12568749999627,
      "v": 83
    },
    {
      "midi": 62,
      "hit": false,
      "t": 138594.26683333397,
      "d": 363.92229166664765,
      "v": 108
    },
    {
      "midi": 74,
      "hit": false,
      "t": 138594.26683333397,
      "d": 376.58045833330834,
      "v": 109
    },
    {
      "midi": 45,
      "hit": false,
      "t": 138602.17818750063,
      "d": 316.4541666666628,
      "v": 82
    },
    {
      "midi": 60,
      "hit": false,
      "t": 138978.75864583394,
      "d": 731.0091250000114,
      "v": 82
    },
    {
      "midi": 69,
      "hit": false,
      "t": 138978.75864583394,
      "d": 735.7559375000128,
      "v": 103
    },
    {
      "midi": 43,
      "hit": false,
      "t": 138978.75864583394,
      "d": 1827.522812500014,
      "v": 88
    },
    {
      "midi": 65,
      "hit": false,
      "t": 138981.9231875006,
      "d": 685.1232708333409,
      "v": 112
    },
    {
      "midi": 50,
      "hit": false,
      "t": 139353.75683333393,
      "d": 1887.6491041666595,
      "v": 71
    },
    {
      "midi": 62,
      "hit": false,
      "t": 139366.4150000006,
      "d": 371.83364583336515,
      "v": 74
    },
    {
      "midi": 65,
      "hit": false,
      "t": 139741.4131875006,
      "d": 352.84639583333046,
      "v": 112
    },
    {
      "midi": 69,
      "hit": false,
      "t": 139741.4131875006,
      "d": 379.74499999999534,
      "v": 103
    },
    {
      "midi": 58,
      "hit": false,
      "t": 139741.4131875006,
      "d": 1463.6005208333372,
      "v": 74
    },
    {
      "midi": 60,
      "hit": false,
      "t": 139928.12114583395,
      "d": 928.7929791666684,
      "v": 80
    },
    {
      "midi": 62,
      "hit": false,
      "t": 140121.1581875006,
      "d": 1052.2101041666756,
      "v": 103
    },
    {
      "midi": 65,
      "hit": false,
      "t": 140299.9547916673,
      "d": 920.88162499998,
      "v": 94
    },
    {
      "midi": 69,
      "hit": false,
      "t": 140492.99183333394,
      "d": 735.7559374999837,
      "v": 112
    },
    {
      "midi": 74,
      "hit": false,
      "t": 140880.64818750063,
      "d": 348.09958333329996,
      "v": 106
    },
    {
      "midi": 43,
      "hit": false,
      "t": 140885.39500000063,
      "d": 332.2768749999814,
      "v": 74
    },
    {
      "midi": 45,
      "hit": false,
      "t": 141257.22864583394,
      "d": 1867.0795833333104,
      "v": 88
    },
    {
      "midi": 67,
      "hit": false,
      "t": 141265.1400000006,
      "d": 1455.6891666666488,
      "v": 105
    },
    {
      "midi": 76,
      "hit": false,
      "t": 141276.21589583394,
      "d": 1444.6132708333025,
      "v": 106
    },
    {
      "midi": 62,
      "hit": false,
      "t": 141636.97364583393,
      "d": 343.35277083332767,
      "v": 94
    },
    {
      "midi": 52,
      "hit": false,
      "t": 141640.1381875006,
      "d": 348.09958333332906,
      "v": 74
    },
    {
      "midi": 59,
      "hit": false,
      "t": 142016.71864583393,
      "d": 580.6933958333102,
      "v": 103
    },
    {
      "midi": 55,
      "hit": false,
      "t": 142019.88318750059,
      "d": 732.5913958333258,
      "v": 90
    },
    {
      "midi": 62,
      "hit": false,
      "t": 142404.37500000058,
      "d": 335.4414166666684,
      "v": 88
    },
    {
      "midi": 64,
      "hit": false,
      "t": 142784.12000000058,
      "d": 712.0218750000058,
      "v": 103
    },
    {
      "midi": 55,
      "hit": false,
      "t": 142787.28454166724,
      "d": 716.7686875000072,
      "v": 103
    },
    {
      "midi": 61,
      "hit": false,
      "t": 142787.28454166724,
      "d": 732.5913958333549,
      "v": 94
    },
    {
      "midi": 45,
      "hit": false,
      "t": 143163.86500000057,
      "d": 332.2768750000105,
      "v": 71
    },
    {
      "midi": 62,
      "hit": false,
      "t": 143530.95183333394,
      "d": 685.1232708333118,
      "v": 103
    },
    {
      "midi": 38,
      "hit": false,
      "t": 143535.69864583394,
      "d": 2249.989124999993,
      "v": 88
    },
    {
      "midi": 64,
      "hit": false,
      "t": 143538.8631875006,
      "d": 712.0218749999767,
      "v": 112
    },
    {
      "midi": 67,
      "hit": false,
      "t": 143538.8631875006,
      "d": 2096.508854166663,
      "v": 112
    },
    {
      "midi": 45,
      "hit": false,
      "t": 143899.6209375006,
      "d": 1867.0795833333395,
      "v": 86
    },
    {
      "midi": 62,
      "hit": false,
      "t": 144290.4418333339,
      "d": 526.8961875000095,
      "v": 98
    },
    {
      "midi": 69,
      "hit": false,
      "t": 144290.4418333339,
      "d": 550.6302500000165,
      "v": 98
    },
    {
      "midi": 52,
      "hit": false,
      "t": 144295.1886458339,
      "d": 387.65635416668374,
      "v": 86
    },
    {
      "midi": 64,
      "hit": false,
      "t": 144298.35318750056,
      "d": 545.8834375000151,
      "v": 89
    },
    {
      "midi": 55,
      "hit": false,
      "t": 144667.02229166724,
      "d": 1083.8555208333419,
      "v": 86
    },
    {
      "midi": 57,
      "hit": false,
      "t": 144682.84500000058,
      "d": 158.2270833333314,
      "v": 74
    },
    {
      "midi": 62,
      "hit": false,
      "t": 144867.97068750058,
      "d": 297.4669166666572,
      "v": 85
    },
    {
      "midi": 64,
      "hit": false,
      "t": 144872.71750000058,
      "d": 166.1384374999907,
      "v": 107
    },
    {
      "midi": 69,
      "hit": false,
      "t": 144872.71750000058,
      "d": 216.77110416666255,
      "v": 77
    },
    {
      "midi": 52,
      "hit": false,
      "t": 145046.76729166723,
      "d": 704.1105208333465,
      "v": 94
    },
    {
      "midi": 57,
      "hit": false,
      "t": 145057.84318750058,
      "d": 126.58166666666511,
      "v": 90
    },
    {
      "midi": 62,
      "hit": false,
      "t": 145239.80433333392,
      "d": 569.6175000000221,
      "v": 107
    },
    {
      "midi": 69,
      "hit": false,
      "t": 145244.55114583392,
      "d": 533.2252708333544,
      "v": 112
    },
    {
      "midi": 64,
      "hit": false,
      "t": 145244.55114583392,
      "d": 572.78204166668,
      "v": 107
    },
    {
      "midi": 38,
      "hit": false,
      "t": 145814.16864583394,
      "d": 2262.6472916666535,
      "v": 88
    },
    {
      "midi": 69,
      "hit": false,
      "t": 145817.3331875006,
      "d": 617.085625000007,
      "v": 103
    },
    {
      "midi": 57,
      "hit": false,
      "t": 145817.3331875006,
      "d": 637.655145833327,
      "v": 112
    },
    {
      "midi": 66,
      "hit": false,
      "t": 145817.3331875006,
      "d": 764.2368124999921,
      "v": 103
    },
    {
      "midi": 62,
      "hit": false,
      "t": 145991.38297916728,
      "d": 624.9969791666372,
      "v": 82
    },
    {
      "midi": 45,
      "hit": false,
      "t": 146189.16683333393,
      "d": 1887.6491041666595,
      "v": 71
    },
    {
      "midi": 57,
      "hit": false,
      "t": 146576.8231875006,
      "d": 466.7698958333349,
      "v": 112
    },
    {
      "midi": 69,
      "hit": false,
      "t": 146576.8231875006,
      "d": 542.7188958333281,
      "v": 112
    },
    {
      "midi": 54,
      "hit": false,
      "t": 146576.8231875006,
      "d": 1463.6005208333372,
      "v": 74
    },
    {
      "midi": 62,
      "hit": false,
      "t": 146763.53114583393,
      "d": 379.74499999999534,
      "v": 103
    },
    {
      "midi": 69,
      "hit": false,
      "t": 147151.18750000058,
      "d": 126.58166666666511,
      "v": 103
    },
    {
      "midi": 57,
      "hit": false,
      "t": 147154.35204166724,
      "d": 213.60656250000466,
      "v": 112
    },
    {
      "midi": 62,
      "hit": false,
      "t": 147328.40183333392,
      "d": 131.3284791666665,
      "v": 94
    },
    {
      "midi": 69,
      "hit": false,
      "t": 147515.10979166726,
      "d": 537.9720833333267,
      "v": 105
    },
    {
      "midi": 57,
      "hit": false,
      "t": 147515.10979166726,
      "d": 604.4274583333463,
      "v": 92
    },
    {
      "midi": 43,
      "hit": false,
      "t": 148092.63864583394,
      "d": 1716.7638541666965,
      "v": 94
    },
    {
      "midi": 65,
      "hit": false,
      "t": 148100.5500000006,
      "d": 656.6423958333326,
      "v": 102
    },
    {
      "midi": 69,
      "hit": false,
      "t": 148103.71454166726,
      "d": 688.2878124999988,
      "v": 112
    },
    {
      "midi": 62,
      "hit": false,
      "t": 148475.5481875006,
      "d": 332.2768750000105,
      "v": 76
    },
    {
      "midi": 50,
      "hit": false,
      "t": 148475.5481875006,
      "d": 1579.1062916667433,
      "v": 82
    },
    {
      "midi": 69,
      "hit": false,
      "t": 148855.29318750062,
      "d": 680.3764583333395,
      "v": 106
    },
    {
      "midi": 65,
      "hit": false,
      "t": 148855.29318750062,
      "d": 704.1105208333465,
      "v": 104
    },
    {
      "midi": 74,
      "hit": false,
      "t": 148855.29318750062,
      "d": 735.7559375000128,
      "v": 94
    },
    {
      "midi": 53,
      "hit": false,
      "t": 148855.29318750062,
      "d": 1128.159104166698,
      "v": 86
    },
    {
      "midi": 62,
      "hit": false,
      "t": 149239.78500000061,
      "d": 348.09958333335817,
      "v": 81
    },
    {
      "midi": 65,
      "hit": false,
      "t": 149614.78318750064,
      "d": 685.12327083337,
      "v": 103
    },
    {
      "midi": 69,
      "hit": false,
      "t": 149614.78318750064,
      "d": 688.2878125000279,
      "v": 112
    },
    {
      "midi": 62,
      "hit": false,
      "t": 149994.52818750066,
      "d": 273.7328541666793,
      "v": 90
    },
    {
      "midi": 43,
      "hit": false,
      "t": 149994.52818750066,
      "d": 392.40316666665603,
      "v": 82
    },
    {
      "midi": 74,
      "hit": false,
      "t": 150374.27318750066,
      "d": 155.0625416666735,
      "v": 112
    },
    {
      "midi": 76,
      "hit": false,
      "t": 150374.27318750066,
      "d": 268.9860416666779,
      "v": 94
    },
    {
      "midi": 67,
      "hit": false,
      "t": 150374.27318750066,
      "d": 273.7328541666793,
      "v": 112
    },
    {
      "midi": 45,
      "hit": false,
      "t": 150374.27318750066,
      "d": 1780.0546875,
      "v": 91
    },
    {
      "midi": 74,
      "hit": false,
      "t": 150742.94229166734,
      "d": 319.6187083333207,
      "v": 103
    },
    {
      "midi": 65,
      "hit": false,
      "t": 150746.106833334,
      "d": 289.5555624999979,
      "v": 107
    },
    {
      "midi": 52,
      "hit": false,
      "t": 150754.01818750065,
      "d": 1851.256875000021,
      "v": 75
    },
    {
      "midi": 64,
      "hit": false,
      "t": 151122.68729166733,
      "d": 648.7310416666442,
      "v": 112
    },
    {
      "midi": 72,
      "hit": false,
      "t": 151125.851833334,
      "d": 680.3764583333104,
      "v": 112
    },
    {
      "midi": 55,
      "hit": false,
      "t": 151125.851833334,
      "d": 1484.1700416666863,
      "v": 84
    },
    {
      "midi": 60,
      "hit": false,
      "t": 151510.343645834,
      "d": 343.35277083332767,
      "v": 80
    },
    {
      "midi": 64,
      "hit": false,
      "t": 151882.17729166732,
      "d": 696.1991666666872,
      "v": 112
    },
    {
      "midi": 67,
      "hit": false,
      "t": 151882.17729166732,
      "d": 696.1991666666872,
      "v": 112
    },
    {
      "midi": 72,
      "hit": false,
      "t": 152265.086833334,
      "d": 352.84639583333046,
      "v": 94
    },
    {
      "midi": 60,
      "hit": false,
      "t": 152272.99818750066,
      "d": 300.6314583333442,
      "v": 86
    },
    {
      "midi": 45,
      "hit": false,
      "t": 152272.99818750066,
      "d": 387.65635416665464,
      "v": 78
    },
    {
      "midi": 65,
      "hit": false,
      "t": 152649.578645834,
      "d": 719.933229166636,
      "v": 94
    },
    {
      "midi": 46,
      "hit": false,
      "t": 152649.578645834,
      "d": 2231.001874999987,
      "v": 94
    },
    {
      "midi": 69,
      "hit": false,
      "t": 152652.74318750066,
      "d": 672.4651041666511,
      "v": 103
    },
    {
      "midi": 62,
      "hit": false,
      "t": 153029.323645834,
      "d": 348.09958333329996,
      "v": 68
    },
    {
      "midi": 53,
      "hit": false,
      "t": 153032.48818750065,
      "d": 724.6800416666374,
      "v": 82
    },
    {
      "midi": 69,
      "hit": false,
      "t": 153404.32183333396,
      "d": 653.4778541666456,
      "v": 103
    },
    {
      "midi": 65,
      "hit": false,
      "t": 153404.32183333396,
      "d": 724.6800416666374,
      "v": 103
    },
    {
      "midi": 57,
      "hit": false,
      "t": 153412.23318750062,
      "d": 727.8445833333244,
      "v": 91
    },
    {
      "midi": 62,
      "hit": false,
      "t": 153791.97818750062,
      "d": 356.01093749998836,
      "v": 71
    },
    {
      "midi": 53,
      "hit": false,
      "t": 153791.97818750062,
      "d": 716.7686875000072,
      "v": 74
    },
    {
      "midi": 57,
      "hit": false,
      "t": 154160.64729166726,
      "d": 382.90954166671145,
      "v": 90
    },
    {
      "midi": 65,
      "hit": false,
      "t": 154171.7231875006,
      "d": 352.84639583335957,
      "v": 103
    },
    {
      "midi": 69,
      "hit": false,
      "t": 154176.4700000006,
      "d": 390.82089583337074,
      "v": 112
    },
    {
      "midi": 74,
      "hit": false,
      "t": 154551.46818750064,
      "d": 297.4669166666863,
      "v": 94
    },
    {
      "midi": 62,
      "hit": false,
      "t": 154551.46818750064,
      "d": 368.66910416667815,
      "v": 87
    },
    {
      "midi": 53,
      "hit": false,
      "t": 154551.46818750064,
      "d": 376.58045833333745,
      "v": 70
    },
    {
      "midi": 72,
      "hit": false,
      "t": 154923.30183333397,
      "d": 751.5786458333314,
      "v": 103
    },
    {
      "midi": 67,
      "hit": false,
      "t": 154928.04864583397,
      "d": 688.2878124999988,
      "v": 107
    },
    {
      "midi": 64,
      "hit": false,
      "t": 154928.04864583397,
      "d": 691.4523541666567,
      "v": 96
    },
    {
      "midi": 45,
      "hit": false,
      "t": 154931.21318750063,
      "d": 1780.0546875,
      "v": 91
    },
    {
      "midi": 60,
      "hit": false,
      "t": 155310.95818750063,
      "d": 324.3655208333512,
      "v": 63
    },
    {
      "midi": 55,
      "hit": false,
      "t": 155310.95818750063,
      "d": 704.1105208333465,
      "v": 78
    },
    {
      "midi": 60,
      "hit": false,
      "t": 155690.70318750065,
      "d": 455.6939999999886,
      "v": 82
    },
    {
      "midi": 64,
      "hit": false,
      "t": 155690.70318750065,
      "d": 669.3005624999932,
      "v": 103
    },
    {
      "midi": 67,
      "hit": false,
      "t": 155690.70318750065,
      "d": 669.3005624999932,
      "v": 103
    },
    {
      "midi": 55,
      "hit": false,
      "t": 156083.1063541673,
      "d": 1102.8427708333184,
      "v": 67
    },
    {
      "midi": 60,
      "hit": false,
      "t": 156260.32068750064,
      "d": 416.137229166663,
      "v": 89
    },
    {
      "midi": 64,
      "hit": false,
      "t": 156450.19318750064,
      "d": 205.69520833334536,
      "v": 108
    },
    {
      "midi": 67,
      "hit": false,
      "t": 156640.06568750064,
      "d": 617.0856249999488,
      "v": 117
    },
    {
      "midi": 64,
      "hit": false,
      "t": 156829.93818750064,
      "d": 379.74499999996624,
      "v": 105
    },
    {
      "midi": 45,
      "hit": false,
      "t": 156829.93818750064,
      "d": 387.65635416662553,
      "v": 78
    },
    {
      "midi": 60,
      "hit": false,
      "t": 157019.81068750063,
      "d": 218.35337499994785,
      "v": 101
    },
    {
      "midi": 43,
      "hit": false,
      "t": 157206.51864583394,
      "d": 1716.7638541666383,
      "v": 94
    },
    {
      "midi": 62,
      "hit": false,
      "t": 157209.6831875006,
      "d": 664.5537499999919,
      "v": 94
    },
    {
      "midi": 65,
      "hit": false,
      "t": 157209.6831875006,
      "d": 672.4651041666511,
      "v": 98
    },
    {
      "midi": 58,
      "hit": false,
      "t": 157589.4281875006,
      "d": 767.4013541666209,
      "v": 63
    },
    {
      "midi": 50,
      "hit": false,
      "t": 157589.4281875006,
      "d": 1856.0036874999932,
      "v": 82
    },
    {
      "midi": 62,
      "hit": false,
      "t": 157966.0086458339,
      "d": 501.57985416665906,
      "v": 108
    },
    {
      "midi": 65,
      "hit": false,
      "t": 157969.17318750056,
      "d": 482.5926041666535,
      "v": 102
    },
    {
      "midi": 53,
      "hit": false,
      "t": 157969.17318750056,
      "d": 1484.1700416666863,
      "v": 88
    },
    {
      "midi": 65,
      "hit": false,
      "t": 158530.8793333339,
      "d": 213.60656250000466,
      "v": 111
    },
    {
      "midi": 62,
      "hit": false,
      "t": 158530.8793333339,
      "d": 242.08743750001304,
      "v": 120
    },
    {
      "midi": 58,
      "hit": false,
      "t": 158712.84047916724,
      "d": 400.31452083334443,
      "v": 90
    },
    {
      "midi": 65,
      "hit": false,
      "t": 159081.50958333391,
      "d": 390.82089583334164,
      "v": 112
    },
    {
      "midi": 62,
      "hit": false,
      "t": 159084.67412500057,
      "d": 371.83364583333605,
      "v": 103
    },
    {
      "midi": 43,
      "hit": false,
      "t": 159108.40818750058,
      "d": 392.40316666665603,
      "v": 82
    },
    {
      "midi": 64,
      "hit": false,
      "t": 159484.98864583392,
      "d": 640.8196874999849,
      "v": 103
    },
    {
      "midi": 60,
      "hit": false,
      "t": 159488.15318750057,
      "d": 609.1742708333186,
      "v": 94
    },
    {
      "midi": 45,
      "hit": false,
      "t": 159488.15318750057,
      "d": 1780.0546875,
      "v": 91
    },
    {
      "midi": 52,
      "hit": false,
      "t": 159867.89818750057,
      "d": 1851.2568749999919,
      "v": 78
    },
    {
      "midi": 55,
      "hit": false,
      "t": 159872.64500000057,
      "d": 300.6314583333442,
      "v": 94
    },
    {
      "midi": 64,
      "hit": false,
      "t": 160239.7318333339,
      "d": 574.3643124999944,
      "v": 112
    },
    {
      "midi": 55,
      "hit": false,
      "t": 160244.4786458339,
      "d": 316.4541666666628,
      "v": 87
    },
    {
      "midi": 60,
      "hit": false,
      "t": 160244.4786458339,
      "d": 406.6436041666602,
      "v": 112
    },
    {
      "midi": 55,
      "hit": false,
      "t": 160627.38818750056,
      "d": 1088.6023333333433,
      "v": 74
    },
    {
      "midi": 60,
      "hit": false,
      "t": 160809.3493333339,
      "d": 938.2866041666712,
      "v": 89
    },
    {
      "midi": 64,
      "hit": false,
      "t": 161003.9686458339,
      "d": 738.9204791666707,
      "v": 121
    },
    {
      "midi": 67,
      "hit": false,
      "t": 161378.96683333392,
      "d": 384.49181249999674,
      "v": 112
    },
    {
      "midi": 45,
      "hit": false,
      "t": 161386.87818750058,
      "d": 387.65635416665464,
      "v": 78
    },
    {
      "midi": 39,
      "hit": false,
      "t": 161763.45864583392,
      "d": 1479.4232291666558,
      "v": 94
    },
    {
      "midi": 58,
      "hit": false,
      "t": 161766.62318750058,
      "d": 427.2131250000093,
      "v": 101
    },
    {
      "midi": 62,
      "hit": false,
      "t": 161766.62318750058,
      "d": 613.9210833333491,
      "v": 101
    },
    {
      "midi": 65,
      "hit": false,
      "t": 161766.62318750058,
      "d": 624.9969791666954,
      "v": 110
    },
    {
      "midi": 55,
      "hit": false,
      "t": 162146.36818750057,
      "d": 94.93625000002794,
      "v": 89
    },
    {
      "midi": 46,
      "hit": false,
      "t": 162146.36818750057,
      "d": 1104.4250416666619,
      "v": 82
    },
    {
      "midi": 58,
      "hit": false,
      "t": 162336.2406875006,
      "d": 134.4930208333535,
      "v": 99
    },
    {
      "midi": 58,
      "hit": false,
      "t": 162515.03729166728,
      "d": 675.629645833309,
      "v": 93
    },
    {
      "midi": 65,
      "hit": false,
      "t": 162515.03729166728,
      "d": 688.2878124999697,
      "v": 119
    },
    {
      "midi": 62,
      "hit": false,
      "t": 162522.94864583394,
      "d": 683.5409999999683,
      "v": 110
    },
    {
      "midi": 53,
      "hit": false,
      "t": 162526.1131875006,
      "d": 732.5913958332967,
      "v": 91
    },
    {
      "midi": 55,
      "hit": false,
      "t": 162897.94683333393,
      "d": 337.02368749998277,
      "v": 101
    },
    {
      "midi": 57,
      "hit": false,
      "t": 163282.4386458339,
      "d": 688.2878124999988,
      "v": 101
    },
    {
      "midi": 50,
      "hit": false,
      "t": 163282.4386458339,
      "d": 715.1864166666637,
      "v": 89
    },
    {
      "midi": 65,
      "hit": false,
      "t": 163285.60318750056,
      "d": 332.2768750000105,
      "v": 110
    },
    {
      "midi": 60,
      "hit": false,
      "t": 163285.60318750056,
      "d": 672.4651041666802,
      "v": 97
    },
    {
      "midi": 38,
      "hit": false,
      "t": 163665.34818750058,
      "d": 352.84639583330136,
      "v": 82
    },
    {
      "midi": 65,
      "hit": false,
      "t": 163665.34818750058,
      "d": 356.01093749995925,
      "v": 96
    },
    {
      "midi": 62,
      "hit": false,
      "t": 164041.92864583386,
      "d": 738.9204791666416,
      "v": 106
    },
    {
      "midi": 70,
      "hit": false,
      "t": 164045.09318750052,
      "d": 685.1232708333118,
      "v": 112
    },
    {
      "midi": 63,
      "hit": false,
      "t": 164045.09318750052,
      "d": 751.5786458333023,
      "v": 112
    },
    {
      "midi": 36,
      "hit": false,
      "t": 164045.09318750052,
      "d": 4469.915104166634,
      "v": 91
    },
    {
      "midi": 43,
      "hit": false,
      "t": 164424.8381875005,
      "d": 4071.1828541666328,
      "v": 78
    },
    {
      "midi": 67,
      "hit": false,
      "t": 164437.49635416718,
      "d": 356.01093749998836,
      "v": 89
    },
    {
      "midi": 51,
      "hit": false,
      "t": 164796.67183333382,
      "d": 3699.349208333326,
      "v": 77
    },
    {
      "midi": 70,
      "hit": false,
      "t": 164804.58318750048,
      "d": 688.2878124999988,
      "v": 103
    },
    {
      "midi": 75,
      "hit": false,
      "t": 164809.33000000048,
      "d": 664.5537499999919,
      "v": 90
    },
    {
      "midi": 74,
      "hit": false,
      "t": 164812.49454166714,
      "d": 677.2119166666816,
      "v": 112
    },
    {
      "midi": 67,
      "hit": false,
      "t": 165181.16364583382,
      "d": 379.74499999999534,
      "v": 78
    },
    {
      "midi": 70,
      "hit": false,
      "t": 165556.1618333338,
      "d": 708.8573333333188,
      "v": 112
    },
    {
      "midi": 74,
      "hit": false,
      "t": 165568.82000000047,
      "d": 659.8069374999905,
      "v": 112
    },
    {
      "midi": 75,
      "hit": false,
      "t": 165571.98454166713,
      "d": 724.6800416666665,
      "v": 103
    },
    {
      "midi": 67,
      "hit": false,
      "t": 165940.6536458338,
      "d": 351.26412499998696,
      "v": 90
    },
    {
      "midi": 70,
      "hit": false,
      "t": 166320.3986458338,
      "d": 411.3904166666616,
      "v": 95
    },
    {
      "midi": 74,
      "hit": false,
      "t": 166320.3986458338,
      "d": 628.1615208333242,
      "v": 103
    },
    {
      "midi": 79,
      "hit": false,
      "t": 166320.3986458338,
      "d": 643.9842291666719,
      "v": 103
    },
    {
      "midi": 75,
      "hit": false,
      "t": 166320.3986458338,
      "d": 659.8069375000196,
      "v": 101
    },
    {
      "midi": 67,
      "hit": false,
      "t": 166700.1436458338,
      "d": 382.90954166668234,
      "v": 76
    },
    {
      "midi": 70,
      "hit": false,
      "t": 167075.14183333382,
      "d": 395.56770833334303,
      "v": 90
    },
    {
      "midi": 75,
      "hit": false,
      "t": 167079.88864583382,
      "d": 656.6423958333326,
      "v": 103
    },
    {
      "midi": 74,
      "hit": false,
      "t": 167079.88864583382,
      "d": 691.4523541666567,
      "v": 94
    },
    {
      "midi": 79,
      "hit": false,
      "t": 167079.88864583382,
      "d": 704.1105208333174,
      "v": 90
    },
    {
      "midi": 67,
      "hit": false,
      "t": 167454.88683333382,
      "d": 387.65635416665464,
      "v": 74
    },
    {
      "midi": 75,
      "hit": false,
      "t": 167834.6318333338,
      "d": 395.56770833334303,
      "v": 94
    },
    {
      "midi": 74,
      "hit": false,
      "t": 167834.6318333338,
      "d": 400.31452083334443,
      "v": 94
    },
    {
      "midi": 70,
      "hit": false,
      "t": 167834.6318333338,
      "d": 408.2258750000037,
      "v": 86
    },
    {
      "midi": 79,
      "hit": false,
      "t": 167834.6318333338,
      "d": 680.3764583333395,
      "v": 94
    },
    {
      "midi": 67,
      "hit": false,
      "t": 168219.1236458338,
      "d": 348.09958333332906,
      "v": 76
    },
    {
      "midi": 66,
      "hit": false,
      "t": 168586.21047916714,
      "d": 780.0595208333107,
      "v": 95
    },
    {
      "midi": 63,
      "hit": false,
      "t": 168594.1218333338,
      "d": 764.2368124999921,
      "v": 100
    },
    {
      "midi": 39,
      "hit": false,
      "t": 168598.8686458338,
      "d": 2262.6472916666826,
      "v": 88
    },
    {
      "midi": 46,
      "hit": false,
      "t": 168973.8668333338,
      "d": 1863.9150416666816,
      "v": 71
    },
    {
      "midi": 70,
      "hit": false,
      "t": 168986.52500000046,
      "d": 367.08683333333465,
      "v": 82
    },
    {
      "midi": 75,
      "hit": false,
      "t": 169358.3586458338,
      "d": 664.5537499999919,
      "v": 102
    },
    {
      "midi": 78,
      "hit": false,
      "t": 169361.52318750045,
      "d": 632.9083333333256,
      "v": 103
    },
    {
      "midi": 54,
      "hit": false,
      "t": 169361.52318750045,
      "d": 1463.6005208333663,
      "v": 74
    },
    {
      "midi": 70,
      "hit": false,
      "t": 169741.26818750045,
      "d": 368.66910416667815,
      "v": 69
    },
    {
      "midi": 75,
      "hit": false,
      "t": 170117.8486458338,
      "d": 667.7182916666789,
      "v": 107
    },
    {
      "midi": 78,
      "hit": false,
      "t": 170121.01318750044,
      "d": 680.3764583333686,
      "v": 103
    },
    {
      "midi": 70,
      "hit": false,
      "t": 170489.68229166712,
      "d": 382.90954166671145,
      "v": 64
    },
    {
      "midi": 73,
      "hit": false,
      "t": 170872.59183333383,
      "d": 704.1105208333174,
      "v": 99
    },
    {
      "midi": 77,
      "hit": false,
      "t": 170877.33864583384,
      "d": 636.0728749999835,
      "v": 109
    },
    {
      "midi": 46,
      "hit": false,
      "t": 170877.33864583384,
      "d": 2262.6472916666535,
      "v": 88
    },
    {
      "midi": 80,
      "hit": false,
      "t": 170880.5031875005,
      "d": 569.617499999993,
      "v": 94
    },
    {
      "midi": 53,
      "hit": false,
      "t": 171252.33683333383,
      "d": 1887.6491041666595,
      "v": 71
    },
    {
      "midi": 68,
      "hit": false,
      "t": 171264.9950000005,
      "d": 367.08683333333465,
      "v": 64
    },
    {
      "midi": 56,
      "hit": false,
      "t": 171639.99318750048,
      "d": 1463.6005208333372,
      "v": 74
    },
    {
      "midi": 73,
      "hit": false,
      "t": 171644.7400000005,
      "d": 632.9083333333547,
      "v": 93
    },
    {
      "midi": 80,
      "hit": false,
      "t": 171644.7400000005,
      "d": 735.7559375000128,
      "v": 94
    },
    {
      "midi": 77,
      "hit": false,
      "t": 171655.81589583383,
      "d": 772.1481666666514,
      "v": 103
    },
    {
      "midi": 68,
      "hit": false,
      "t": 172024.4850000005,
      "d": 351.26412499998696,
      "v": 70
    },
    {
      "midi": 68,
      "hit": false,
      "t": 172407.39454166716,
      "d": 743.667291666643,
      "v": 96
    },
    {
      "midi": 73,
      "hit": false,
      "t": 172586.1911458338,
      "d": 580.6933958333393,
      "v": 103
    },
    {
      "midi": 77,
      "hit": false,
      "t": 172771.3168333338,
      "d": 403.4790625000023,
      "v": 99
    },
    {
      "midi": 80,
      "hit": false,
      "t": 172953.27797916715,
      "d": 218.35337500000605,
      "v": 111
    },
    {
      "midi": 70,
      "hit": false,
      "t": 173143.15047916715,
      "d": 613.92108333332,
      "v": 112
    },
    {
      "midi": 75,
      "hit": false,
      "t": 173143.15047916715,
      "d": 767.40135416665,
      "v": 91
    },
    {
      "midi": 47,
      "hit": false,
      "t": 173151.0618333338,
      "d": 719.9332291666651,
      "v": 88
    },
    {
      "midi": 54,
      "hit": false,
      "t": 173530.8068333338,
      "d": 716.7686874999781,
      "v": 71
    },
    {
      "midi": 63,
      "hit": false,
      "t": 173530.8068333338,
      "d": 1096.5136874999735,
      "v": 75
    },
    {
      "midi": 66,
      "hit": false,
      "t": 173918.46318750046,
      "d": 704.1105208333174,
      "v": 103
    },
    {
      "midi": 47,
      "hit": false,
      "t": 173918.46318750046,
      "d": 712.0218749999767,
      "v": 74
    },
    {
      "midi": 70,
      "hit": false,
      "t": 173918.46318750046,
      "d": 719.933229166636,
      "v": 106
    },
    {
      "midi": 75,
      "hit": false,
      "t": 174287.1322916671,
      "d": 387.65635416665464,
      "v": 90
    },
    {
      "midi": 54,
      "hit": false,
      "t": 174302.95500000045,
      "d": 1068.032812499936,
      "v": 60
    },
    {
      "midi": 66,
      "hit": false,
      "t": 174666.8772916671,
      "d": 751.5786458333023,
      "v": 100
    },
    {
      "midi": 63,
      "hit": false,
      "t": 174670.04183333376,
      "d": 743.667291666643,
      "v": 92
    },
    {
      "midi": 70,
      "hit": false,
      "t": 174677.95318750042,
      "d": 716.7686874999781,
      "v": 78
    },
    {
      "midi": 47,
      "hit": false,
      "t": 174685.86454166708,
      "d": 704.1105208333174,
      "v": 59
    },
    {
      "midi": 75,
      "hit": false,
      "t": 175046.62229166707,
      "d": 371.83364583333605,
      "v": 90
    },
    {
      "midi": 77,
      "hit": false,
      "t": 175426.36729166706,
      "d": 556.9593333333032,
      "v": 90
    },
    {
      "midi": 68,
      "hit": false,
      "t": 175426.36729166706,
      "d": 719.933229166636,
      "v": 101
    },
    {
      "midi": 73,
      "hit": false,
      "t": 175429.53183333372,
      "d": 672.4651041666511,
      "v": 112
    },
    {
      "midi": 46,
      "hit": false,
      "t": 175434.27864583372,
      "d": 2262.6472916666535,
      "v": 88
    },
    {
      "midi": 53,
      "hit": false,
      "t": 175809.27683333372,
      "d": 1887.6491041666595,
      "v": 71
    },
    {
      "midi": 63,
      "hit": false,
      "t": 175817.18818750037,
      "d": 344.93504166667117,
      "v": 77
    },
    {
      "midi": 73,
      "hit": false,
      "t": 176189.0218333337,
      "d": 487.33941666665487,
      "v": 103
    },
    {
      "midi": 68,
      "hit": false,
      "t": 176193.7686458337,
      "d": 335.4414166666684,
      "v": 103
    },
    {
      "midi": 77,
      "hit": false,
      "t": 176196.93318750037,
      "d": 458.8585416666756,
      "v": 103
    },
    {
      "midi": 56,
      "hit": false,
      "t": 176196.93318750037,
      "d": 1463.6005208333372,
      "v": 74
    },
    {
      "midi": 68,
      "hit": false,
      "t": 176584.58954166705,
      "d": 1052.2101041666465,
      "v": 66
    },
    {
      "midi": 73,
      "hit": false,
      "t": 176766.55068750036,
      "d": 511.07347916666185,
      "v": 86
    },
    {
      "midi": 77,
      "hit": false,
      "t": 176932.68912500035,
      "d": 716.7686875000072,
      "v": 112
    },
    {
      "midi": 73,
      "hit": false,
      "t": 177328.2568333337,
      "d": 332.2768750000105,
      "v": 112
    },
    {
      "midi": 73,
      "hit": false,
      "t": 177712.74864583372,
      "d": 688.2878124999988,
      "v": 90
    },
    {
      "midi": 70,
      "hit": false,
      "t": 177712.74864583372,
      "d": 735.7559375000128,
      "v": 104
    },
    {
      "midi": 44,
      "hit": false,
      "t": 177712.74864583372,
      "d": 1827.522812500043,
      "v": 88
    },
    {
      "midi": 66,
      "hit": false,
      "t": 177715.91318750038,
      "d": 685.1232708333409,
      "v": 112
    },
    {
      "midi": 51,
      "hit": false,
      "t": 178087.74683333372,
      "d": 1887.6491041666886,
      "v": 71
    },
    {
      "midi": 63,
      "hit": false,
      "t": 178100.40500000038,
      "d": 371.83364583336515,
      "v": 94
    },
    {
      "midi": 70,
      "hit": false,
      "t": 178475.4031875004,
      "d": 379.74500000002445,
      "v": 103
    },
    {
      "midi": 73,
      "hit": false,
      "t": 178475.4031875004,
      "d": 439.8712916666991,
      "v": 94
    },
    {
      "midi": 59,
      "hit": false,
      "t": 178475.4031875004,
      "d": 1463.6005208333663,
      "v": 74
    },
    {
      "midi": 66,
      "hit": false,
      "t": 178480.1500000004,
      "d": 351.26412500001607,
      "v": 112
    },
    {
      "midi": 61,
      "hit": false,
      "t": 178662.11114583374,
      "d": 928.7929791666975,
      "v": 80
    },
    {
      "midi": 63,
      "hit": false,
      "t": 178855.14818750042,
      "d": 1052.2101041666756,
      "v": 103
    },
    {
      "midi": 66,
      "hit": false,
      "t": 179033.9447916671,
      "d": 920.88162499998,
      "v": 94
    },
    {
      "midi": 70,
      "hit": false,
      "t": 179226.98183333376,
      "d": 735.7559374999837,
      "v": 112
    },
    {
      "midi": 75,
      "hit": false,
      "t": 179614.63818750044,
      "d": 348.09958333329996,
      "v": 106
    },
    {
      "midi": 44,
      "hit": false,
      "t": 179619.38500000045,
      "d": 332.2768749999814,
      "v": 74
    },
    {
      "midi": 65,
      "hit": false,
      "t": 179986.47183333375,
      "d": 669.3005624999932,
      "v": 99
    },
    {
      "midi": 63,
      "hit": false,
      "t": 179991.21864583375,
      "d": 640.8196874999849,
      "v": 112
    },
    {
      "midi": 68,
      "hit": false,
      "t": 179991.21864583375,
      "d": 719.9332291666651,
      "v": 107
    },
    {
      "midi": 46,
      "hit": false,
      "t": 179991.21864583375,
      "d": 1867.0795833333686,
      "v": 88
    },
    {
      "midi": 59,
      "hit": false,
      "t": 180374.1281875004,
      "d": 324.3655208333512,
      "v": 90
    },
    {
      "midi": 68,
      "hit": false,
      "t": 180753.87318750043,
      "d": 693.0346250000002,
      "v": 94
    },
    {
      "midi": 63,
      "hit": false,
      "t": 180753.87318750043,
      "d": 700.9459791666595,
      "v": 112
    },
    {
      "midi": 65,
      "hit": false,
      "t": 180753.87318750043,
      "d": 712.0218750000058,
      "v": 121
    },
    {
      "midi": 59,
      "hit": false,
      "t": 181130.45364583377,
      "d": 371.83364583333605,
      "v": 103
    },
    {
      "midi": 68,
      "hit": false,
      "t": 181513.36318750045,
      "d": 716.7686875000072,
      "v": 111
    },
    {
      "midi": 62,
      "hit": false,
      "t": 181513.36318750045,
      "d": 732.5913958333258,
      "v": 94
    },
    {
      "midi": 56,
      "hit": false,
      "t": 181518.11000000045,
      "d": 715.1864166666637,
      "v": 103
    },
    {
      "midi": 65,
      "hit": false,
      "t": 181526.0213541671,
      "d": 712.0218750000058,
      "v": 103
    },
    {
      "midi": 46,
      "hit": false,
      "t": 181897.85500000045,
      "d": 332.2768750000105,
      "v": 71
    },
    {
      "midi": 39,
      "hit": false,
      "t": 182269.68864583378,
      "d": 2249.9891249999346,
      "v": 88
    },
    {
      "midi": 66,
      "hit": false,
      "t": 182277.60000000044,
      "d": 688.2878124999988,
      "v": 103
    },
    {
      "midi": 63,
      "hit": false,
      "t": 182280.7645416671,
      "d": 677.2119166666816,
      "v": 90
    },
    {
      "midi": 70,
      "hit": false,
      "t": 182280.7645416671,
      "d": 693.0346250000002,
      "v": 94
    },
    {
      "midi": 58,
      "hit": false,
      "t": 182649.43364583378,
      "d": 466.7698958333058,
      "v": 90
    },
    {
      "midi": 63,
      "hit": false,
      "t": 183029.17864583377,
      "d": 672.4651041666511,
      "v": 94
    },
    {
      "midi": 70,
      "hit": false,
      "t": 183029.17864583377,
      "d": 715.1864166666637,
      "v": 94
    },
    {
      "midi": 66,
      "hit": false,
      "t": 183032.34318750043,
      "d": 693.0346250000002,
      "v": 103
    },
    {
      "midi": 58,
      "hit": false,
      "t": 183412.08818750043,
      "d": 411.3904166666616,
      "v": 82
    },
    {
      "midi": 63,
      "hit": false,
      "t": 183796.58000000042,
      "d": 691.4523541666567,
      "v": 94
    },
    {
      "midi": 70,
      "hit": false,
      "t": 183796.58000000042,
      "d": 712.0218749999767,
      "v": 86
    },
    {
      "midi": 66,
      "hit": false,
      "t": 183796.58000000042,
      "d": 715.1864166666346,
      "v": 103
    },
    {
      "midi": 58,
      "hit": false,
      "t": 184171.57818750042,
      "d": 392.40316666662693,
      "v": 90
    },
    {
      "midi": 37,
      "hit": false,
      "t": 184548.15864583373,
      "d": 2226.255062499986,
      "v": 88
    },
    {
      "midi": 63,
      "hit": false,
      "t": 184556.07000000039,
      "d": 664.5537499999919,
      "v": 94
    },
    {
      "midi": 66,
      "hit": false,
      "t": 184556.07000000039,
      "d": 683.5409999999974,
      "v": 94
    },
    {
      "midi": 70,
      "hit": false,
      "t": 184556.07000000039,
      "d": 696.1991666666581,
      "v": 94
    },
    {
      "midi": 58,
      "hit": false,
      "t": 184931.06818750038,
      "d": 403.4790625000023,
      "v": 82
    },
    {
      "midi": 70,
      "hit": false,
      "t": 185310.81318750037,
      "d": 716.7686874999781,
      "v": 90
    },
    {
      "midi": 63,
      "hit": false,
      "t": 185315.56000000038,
      "d": 704.1105208333174,
      "v": 90
    },
    {
      "midi": 66,
      "hit": false,
      "t": 185315.56000000038,
      "d": 715.1864166666346,
      "v": 90
    },
    {
      "midi": 58,
      "hit": false,
      "t": 185690.55818750037,
      "d": 427.2131249999802,
      "v": 78
    },
    {
      "midi": 63,
      "hit": false,
      "t": 186075.05000000034,
      "d": 651.8955833333603,
      "v": 90
    },
    {
      "midi": 66,
      "hit": false,
      "t": 186075.05000000034,
      "d": 688.2878125000279,
      "v": 86
    },
    {
      "midi": 70,
      "hit": false,
      "t": 186075.05000000034,
      "d": 704.1105208333756,
      "v": 94
    },
    {
      "midi": 58,
      "hit": false,
      "t": 186454.79500000036,
      "d": 268.9860416666779,
      "v": 67
    },
    {
      "midi": 47,
      "hit": false,
      "t": 186782.32506250037,
      "d": 2310.1154166666674,
      "v": 86
    },
    {
      "midi": 59,
      "hit": false,
      "t": 186787.07187500037,
      "d": 2325.938124999986,
      "v": 70
    },
    {
      "midi": 63,
      "hit": false,
      "t": 186850.3627083337,
      "d": 2207.2678125000093,
      "v": 90
    },
    {
      "midi": 66,
      "hit": false,
      "t": 186853.52725000036,
      "d": 2204.1032708333514,
      "v": 90
    },
    {
      "midi": 70,
      "hit": false,
      "t": 186908.90672916704,
      "d": 2196.191916666663,
      "v": 94
    },
    {
      "midi": 46,
      "hit": false,
      "t": 189113.01000000036,
      "d": 2131.318812499958,
      "v": 86
    },
    {
      "midi": 68,
      "hit": false,
      "t": 189120.92135416702,
      "d": 2218.3437083332974,
      "v": 82
    },
    {
      "midi": 72,
      "hit": false,
      "t": 189128.83270833368,
      "d": 2136.0656249999593,
      "v": 78
    },
    {
      "midi": 58,
      "hit": false,
      "t": 189231.68031250034,
      "d": 2155.052874999965,
      "v": 91
    },
    {
      "midi": 63,
      "hit": false,
      "t": 189334.527916667,
      "d": 2049.040729166649,
      "v": 94
    },
    {
      "midi": 65,
      "hit": false,
      "t": 189464.27412500032,
      "d": 1919.2945208333258,
      "v": 86
    },
    {
      "midi": 53,
      "hit": false,
      "t": 191391.4800000003,
      "d": 2091.7620416666905,
      "v": 60
    },
    {
      "midi": 46,
      "hit": false,
      "t": 191402.55589583365,
      "d": 2136.0656250000175,
      "v": 46
    },
    {
      "midi": 58,
      "hit": false,
      "t": 191450.02402083366,
      "d": 2101.255666666664,
      "v": 70
    },
    {
      "midi": 62,
      "hit": false,
      "t": 191518.061666667,
      "d": 2020.5598541666695,
      "v": 78
    },
    {
      "midi": 39,
      "hit": false,
      "t": 193669.95000000033,
      "d": 4393.9661041666695,
      "v": 66
    },
    {
      "midi": 53,
      "hit": false,
      "t": 193681.02589583368,
      "d": 4525.294583333336,
      "v": 50
    },
    {
      "midi": 56,
      "hit": false,
      "t": 193775.96214583368,
      "d": 4395.548375000013,
      "v": 61
    },
    {
      "midi": 58,
      "hit": false,
      "t": 193820.265729167,
      "d": 4351.244791666686,
      "v": 66
    },
    {
      "midi": 63,
      "hit": false,
      "t": 193883.55656250034,
      "d": 4272.131250000006,
      "v": 61
    },
    {
      "midi": 65,
      "hit": false,
      "t": 193934.189229167,
      "d": 4193.017708333326,
      "v": 74
    },
    {
      "midi": 39,
      "hit": false,
      "t": 198237.96589583368,
      "d": 4419.28243750002,
      "v": 59
    },
    {
      "midi": 46,
      "hit": false,
      "t": 198266.4467708337,
      "d": 4469.915104166692,
      "v": 57
    },
    {
      "midi": 55,
      "hit": false,
      "t": 198306.003541667,
      "d": 4393.966104166699,
      "v": 65
    },
    {
      "midi": 63,
      "hit": false,
      "t": 198321.82625000036,
      "d": 4393.966104166699,
      "v": 67
    }
  ]
}