{
  "jsonPath": "Unknown/Unknown/Phyllis Nelson/move-closer.json",
  "path": "Unknown\\Unknown\\Phyllis Nelson\\Move Closer.mid",
  "name": "Move Closer",
  "difficulty": "Advanced",
  "bpm": 200,
  "notes": [
    {
      "midi": 38,
      "hit": false,
      "t": 6233.76,
      "d": 1874.998125,
      "v": 96
    },
    {
      "midi": 45,
      "hit": false,
      "t": 6233.76,
      "d": 1874.998125,
      "v": 105
    },
    {
      "midi": 57,
      "hit": false,
      "t": 6233.76,
      "d": 2264.6081250000007,
      "v": 101
    },
    {
      "midi": 61,
      "hit": false,
      "t": 6233.76,
      "d": 2264.6081250000007,
      "v": 101
    },
    {
      "midi": 66,
      "hit": false,
      "t": 6233.76,
      "d": 2264.6081250000007,
      "v": 98
    },
    {
      "midi": 57,
      "hit": false,
      "t": 8571.42,
      "d": 357.1424999999999,
      "v": 101
    },
    {
      "midi": 61,
      "hit": false,
      "t": 8571.42,
      "d": 357.1424999999999,
      "v": 102
    },
    {
      "midi": 66,
      "hit": false,
      "t": 8571.42,
      "d": 357.1424999999999,
      "v": 99
    },
    {
      "midi": 38,
      "hit": false,
      "t": 8571.42,
      "d": 1874.998125,
      "v": 96
    },
    {
      "midi": 45,
      "hit": false,
      "t": 8571.42,
      "d": 1874.998125,
      "v": 105
    },
    {
      "midi": 57,
      "hit": false,
      "t": 8961.03,
      "d": 1485.3881249999995,
      "v": 96
    },
    {
      "midi": 61,
      "hit": false,
      "t": 8961.03,
      "d": 1485.3881249999995,
      "v": 99
    },
    {
      "midi": 64,
      "hit": false,
      "t": 8961.03,
      "d": 1485.3881249999995,
      "v": 99
    },
    {
      "midi": 57,
      "hit": false,
      "t": 10519.47,
      "d": 1095.7781250000007,
      "v": 100
    },
    {
      "midi": 61,
      "hit": false,
      "t": 10519.47,
      "d": 1095.7781250000007,
      "v": 103
    },
    {
      "midi": 66,
      "hit": false,
      "t": 10519.47,
      "d": 1095.7781250000007,
      "v": 103
    },
    {
      "midi": 38,
      "hit": false,
      "t": 10519.47,
      "d": 1874.998125,
      "v": 104
    },
    {
      "midi": 45,
      "hit": false,
      "t": 10519.47,
      "d": 1874.998125,
      "v": 101
    },
    {
      "midi": 61,
      "hit": false,
      "t": 11688.3,
      "d": 706.1681250000001,
      "v": 100
    },
    {
      "midi": 66,
      "hit": false,
      "t": 11688.3,
      "d": 706.1681250000001,
      "v": 98
    },
    {
      "midi": 69,
      "hit": false,
      "t": 11688.3,
      "d": 706.1681250000001,
      "v": 100
    },
    {
      "midi": 59,
      "hit": false,
      "t": 12467.519999999999,
      "d": 1874.998125,
      "v": 101
    },
    {
      "midi": 62,
      "hit": false,
      "t": 12467.519999999999,
      "d": 1874.998125,
      "v": 96
    },
    {
      "midi": 66,
      "hit": false,
      "t": 12467.519999999999,
      "d": 1874.998125,
      "v": 99
    },
    {
      "midi": 43,
      "hit": false,
      "t": 12467.519999999999,
      "d": 3043.828125,
      "v": 98
    },
    {
      "midi": 50,
      "hit": false,
      "t": 12467.519999999999,
      "d": 3043.828125,
      "v": 98
    },
    {
      "midi": 59,
      "hit": false,
      "t": 14415.569999999998,
      "d": 357.1424999999999,
      "v": 101
    },
    {
      "midi": 62,
      "hit": false,
      "t": 14415.569999999998,
      "d": 357.1424999999999,
      "v": 101
    },
    {
      "midi": 66,
      "hit": false,
      "t": 14415.569999999998,
      "d": 357.1424999999999,
      "v": 104
    },
    {
      "midi": 59,
      "hit": false,
      "t": 14805.179999999998,
      "d": 357.1424999999999,
      "v": 105
    },
    {
      "midi": 64,
      "hit": false,
      "t": 14805.179999999998,
      "d": 357.1424999999999,
      "v": 103
    },
    {
      "midi": 57,
      "hit": false,
      "t": 15194.789999999999,
      "d": 1485.3881249999995,
      "v": 97
    },
    {
      "midi": 62,
      "hit": false,
      "t": 15194.789999999999,
      "d": 1485.3881249999995,
      "v": 99
    },
    {
      "midi": 57,
      "hit": false,
      "t": 16753.23,
      "d": 1095.7781250000007,
      "v": 98
    },
    {
      "midi": 64,
      "hit": false,
      "t": 16753.23,
      "d": 1095.7781250000007,
      "v": 100
    },
    {
      "midi": 45,
      "hit": false,
      "t": 17532.45,
      "d": 706.1681250000001,
      "v": 101
    },
    {
      "midi": 69,
      "hit": false,
      "t": 17922.06,
      "d": 706.1681250000001,
      "v": 101
    },
    {
      "midi": 45,
      "hit": false,
      "t": 18311.670000000002,
      "d": 357.1424999999981,
      "v": 103
    },
    {
      "midi": 57,
      "hit": false,
      "t": 18701.28,
      "d": 2264.608124999999,
      "v": 98
    },
    {
      "midi": 61,
      "hit": false,
      "t": 18701.28,
      "d": 2264.608124999999,
      "v": 103
    },
    {
      "midi": 66,
      "hit": false,
      "t": 18701.28,
      "d": 2264.608124999999,
      "v": 105
    },
    {
      "midi": 45,
      "hit": false,
      "t": 18701.28,
      "d": 3043.828125,
      "v": 98
    },
    {
      "midi": 50,
      "hit": false,
      "t": 18701.28,
      "d": 3043.828125,
      "v": 105
    },
    {
      "midi": 57,
      "hit": false,
      "t": 21038.94,
      "d": 357.14250000000175,
      "v": 104
    },
    {
      "midi": 61,
      "hit": false,
      "t": 21038.94,
      "d": 357.14250000000175,
      "v": 96
    },
    {
      "midi": 66,
      "hit": false,
      "t": 21038.94,
      "d": 357.14250000000175,
      "v": 105
    },
    {
      "midi": 57,
      "hit": false,
      "t": 21428.55,
      "d": 1485.3881250000013,
      "v": 102
    },
    {
      "midi": 61,
      "hit": false,
      "t": 21428.55,
      "d": 1485.3881250000013,
      "v": 100
    },
    {
      "midi": 64,
      "hit": false,
      "t": 21428.55,
      "d": 1485.3881250000013,
      "v": 105
    },
    {
      "midi": 57,
      "hit": false,
      "t": 22986.99,
      "d": 1095.7781250000007,
      "v": 104
    },
    {
      "midi": 61,
      "hit": false,
      "t": 22986.99,
      "d": 1095.7781250000007,
      "v": 98
    },
    {
      "midi": 66,
      "hit": false,
      "t": 22986.99,
      "d": 1095.7781250000007,
      "v": 96
    },
    {
      "midi": 45,
      "hit": false,
      "t": 23766.210000000003,
      "d": 706.1681250000001,
      "v": 102
    },
    {
      "midi": 61,
      "hit": false,
      "t": 24155.820000000003,
      "d": 706.1681250000001,
      "v": 98
    },
    {
      "midi": 66,
      "hit": false,
      "t": 24155.820000000003,
      "d": 706.1681250000001,
      "v": 104
    },
    {
      "midi": 69,
      "hit": false,
      "t": 24155.820000000003,
      "d": 706.1681250000001,
      "v": 102
    },
    {
      "midi": 45,
      "hit": false,
      "t": 24545.430000000004,
      "d": 357.1424999999981,
      "v": 104
    },
    {
      "midi": 59,
      "hit": false,
      "t": 24935.04,
      "d": 1874.9981249999983,
      "v": 98
    },
    {
      "midi": 62,
      "hit": false,
      "t": 24935.04,
      "d": 1874.9981249999983,
      "v": 98
    },
    {
      "midi": 66,
      "hit": false,
      "t": 24935.04,
      "d": 1874.9981249999983,
      "v": 101
    },
    {
      "midi": 59,
      "hit": false,
      "t": 26883.09,
      "d": 357.14250000000175,
      "v": 97
    },
    {
      "midi": 62,
      "hit": false,
      "t": 26883.09,
      "d": 357.14250000000175,
      "v": 98
    },
    {
      "midi": 66,
      "hit": false,
      "t": 26883.09,
      "d": 357.14250000000175,
      "v": 105
    },
    {
      "midi": 59,
      "hit": false,
      "t": 27272.7,
      "d": 357.14250000000175,
      "v": 104
    },
    {
      "midi": 64,
      "hit": false,
      "t": 27272.7,
      "d": 357.14250000000175,
      "v": 99
    },
    {
      "midi": 57,
      "hit": false,
      "t": 27662.31,
      "d": 1485.3881250000013,
      "v": 105
    },
    {
      "midi": 62,
      "hit": false,
      "t": 27662.31,
      "d": 1485.3881250000013,
      "v": 101
    },
    {
      "midi": 57,
      "hit": false,
      "t": 29220.750000000004,
      "d": 1095.7781250000007,
      "v": 103
    },
    {
      "midi": 64,
      "hit": false,
      "t": 29220.750000000004,
      "d": 1095.7781250000007,
      "v": 97
    },
    {
      "midi": 69,
      "hit": false,
      "t": 30389.580000000005,
      "d": 706.1681250000001,
      "v": 100
    },
    {
      "midi": 69,
      "hit": false,
      "t": 31168.800000000007,
      "d": 162.33750000000146,
      "v": 100
    },
    {
      "midi": 38,
      "hit": false,
      "t": 31168.800000000007,
      "d": 1095.7781250000007,
      "v": 105
    },
    {
      "midi": 71,
      "hit": false,
      "t": 31363.605000000007,
      "d": 162.33750000000146,
      "v": 101
    },
    {
      "midi": 69,
      "hit": false,
      "t": 31558.410000000007,
      "d": 162.33750000000146,
      "v": 98
    },
    {
      "midi": 71,
      "hit": false,
      "t": 31753.215000000007,
      "d": 162.33750000000146,
      "v": 97
    },
    {
      "midi": 69,
      "hit": false,
      "t": 31948.020000000008,
      "d": 162.33750000000146,
      "v": 100
    },
    {
      "midi": 71,
      "hit": false,
      "t": 32142.825000000008,
      "d": 162.33749999999782,
      "v": 105
    },
    {
      "midi": 69,
      "hit": false,
      "t": 32337.630000000005,
      "d": 162.33750000000146,
      "v": 100
    },
    {
      "midi": 38,
      "hit": false,
      "t": 32337.630000000005,
      "d": 357.14250000000175,
      "v": 101
    },
    {
      "midi": 71,
      "hit": false,
      "t": 32532.435000000005,
      "d": 162.33750000000146,
      "v": 99
    },
    {
      "midi": 69,
      "hit": false,
      "t": 32727.240000000005,
      "d": 162.33750000000146,
      "v": 103
    },
    {
      "midi": 38,
      "hit": false,
      "t": 32727.240000000005,
      "d": 1485.388125000005,
      "v": 98
    },
    {
      "midi": 71,
      "hit": false,
      "t": 32922.045000000006,
      "d": 162.33750000000146,
      "v": 97
    },
    {
      "midi": 69,
      "hit": false,
      "t": 33116.850000000006,
      "d": 162.33750000000146,
      "v": 99
    },
    {
      "midi": 71,
      "hit": false,
      "t": 33311.655000000006,
      "d": 162.33750000000146,
      "v": 99
    },
    {
      "midi": 69,
      "hit": false,
      "t": 33506.46000000001,
      "d": 162.33750000000146,
      "v": 103
    },
    {
      "midi": 71,
      "hit": false,
      "t": 33701.26500000001,
      "d": 162.33750000000146,
      "v": 100
    },
    {
      "midi": 69,
      "hit": false,
      "t": 33896.07000000001,
      "d": 162.33750000000146,
      "v": 102
    },
    {
      "midi": 71,
      "hit": false,
      "t": 34090.87500000001,
      "d": 162.33750000000146,
      "v": 101
    },
    {
      "midi": 69,
      "hit": false,
      "t": 34285.68000000001,
      "d": 162.33750000000146,
      "v": 103
    },
    {
      "midi": 38,
      "hit": false,
      "t": 34285.68000000001,
      "d": 1095.7781250000044,
      "v": 100
    },
    {
      "midi": 71,
      "hit": false,
      "t": 34480.48500000001,
      "d": 162.33750000000146,
      "v": 105
    },
    {
      "midi": 69,
      "hit": false,
      "t": 34675.29000000001,
      "d": 162.33750000000146,
      "v": 98
    },
    {
      "midi": 71,
      "hit": false,
      "t": 34870.09500000001,
      "d": 162.33750000000146,
      "v": 100
    },
    {
      "midi": 69,
      "hit": false,
      "t": 35064.90000000001,
      "d": 162.33750000000146,
      "v": 102
    },
    {
      "midi": 71,
      "hit": false,
      "t": 35259.70500000001,
      "d": 162.33750000000146,
      "v": 102
    },
    {
      "midi": 69,
      "hit": false,
      "t": 35454.51000000001,
      "d": 162.33750000000146,
      "v": 97
    },
    {
      "midi": 38,
      "hit": false,
      "t": 35454.51000000001,
      "d": 357.14250000000175,
      "v": 99
    },
    {
      "midi": 71,
      "hit": false,
      "t": 35649.31500000001,
      "d": 162.33750000000146,
      "v": 105
    },
    {
      "midi": 69,
      "hit": false,
      "t": 35844.12000000001,
      "d": 162.33750000000146,
      "v": 98
    },
    {
      "midi": 38,
      "hit": false,
      "t": 35844.12000000001,
      "d": 1485.388125000005,
      "v": 100
    },
    {
      "midi": 71,
      "hit": false,
      "t": 36038.92500000001,
      "d": 162.33750000000146,
      "v": 104
    },
    {
      "midi": 69,
      "hit": false,
      "t": 36233.73000000001,
      "d": 162.33750000000146,
      "v": 97
    },
    {
      "midi": 71,
      "hit": false,
      "t": 36428.53500000001,
      "d": 162.33750000000146,
      "v": 96
    },
    {
      "midi": 69,
      "hit": false,
      "t": 36623.34000000001,
      "d": 162.33750000000146,
      "v": 101
    },
    {
      "midi": 71,
      "hit": false,
      "t": 36818.14500000001,
      "d": 162.33750000000146,
      "v": 104
    },
    {
      "midi": 69,
      "hit": false,
      "t": 37012.95000000001,
      "d": 162.33750000000146,
      "v": 96
    },
    {
      "midi": 71,
      "hit": false,
      "t": 37207.75500000001,
      "d": 162.33750000000146,
      "v": 103
    },
    {
      "midi": 69,
      "hit": false,
      "t": 37402.56000000001,
      "d": 162.33750000000146,
      "v": 101
    },
    {
      "midi": 38,
      "hit": false,
      "t": 37402.56000000001,
      "d": 1095.7781250000044,
      "v": 104
    },
    {
      "midi": 71,
      "hit": false,
      "t": 37597.36500000001,
      "d": 162.33750000000146,
      "v": 101
    },
    {
      "midi": 69,
      "hit": false,
      "t": 37792.17000000001,
      "d": 162.33750000000146,
      "v": 96
    },
    {
      "midi": 71,
      "hit": false,
      "t": 37986.97500000001,
      "d": 162.33750000000146,
      "v": 96
    },
    {
      "midi": 69,
      "hit": false,
      "t": 38181.78000000001,
      "d": 162.33750000000146,
      "v": 104
    },
    {
      "midi": 71,
      "hit": false,
      "t": 38376.585000000014,
      "d": 162.33750000000146,
      "v": 104
    },
    {
      "midi": 69,
      "hit": false,
      "t": 38571.390000000014,
      "d": 162.33750000000146,
      "v": 104
    },
    {
      "midi": 38,
      "hit": false,
      "t": 38571.390000000014,
      "d": 357.14250000000175,
      "v": 102
    },
    {
      "midi": 71,
      "hit": false,
      "t": 38766.195000000014,
      "d": 162.33750000000146,
      "v": 102
    },
    {
      "midi": 69,
      "hit": false,
      "t": 38961.000000000015,
      "d": 162.33750000000146,
      "v": 99
    },
    {
      "midi": 38,
      "hit": false,
      "t": 38961.000000000015,
      "d": 1485.388125000005,
      "v": 100
    },
    {
      "midi": 71,
      "hit": false,
      "t": 39155.805000000015,
      "d": 162.33750000000146,
      "v": 103
    },
    {
      "midi": 69,
      "hit": false,
      "t": 39350.610000000015,
      "d": 162.33750000000146,
      "v": 105
    },
    {
      "midi": 71,
      "hit": false,
      "t": 39545.415000000015,
      "d": 162.33750000000146,
      "v": 100
    },
    {
      "midi": 69,
      "hit": false,
      "t": 39740.220000000016,
      "d": 162.33750000000146,
      "v": 96
    },
    {
      "midi": 71,
      "hit": false,
      "t": 39935.025000000016,
      "d": 162.33750000000146,
      "v": 99
    },
    {
      "midi": 69,
      "hit": false,
      "t": 40129.830000000016,
      "d": 162.33750000000146,
      "v": 104
    },
    {
      "midi": 71,
      "hit": false,
      "t": 40324.63500000002,
      "d": 162.33750000000146,
      "v": 103
    },
    {
      "midi": 69,
      "hit": false,
      "t": 40519.44000000002,
      "d": 162.33750000000146,
      "v": 100
    },
    {
      "midi": 38,
      "hit": false,
      "t": 40519.44000000002,
      "d": 1095.7781250000044,
      "v": 104
    },
    {
      "midi": 71,
      "hit": false,
      "t": 40714.24500000002,
      "d": 162.33750000000146,
      "v": 104
    },
    {
      "midi": 69,
      "hit": false,
      "t": 40909.05000000002,
      "d": 162.33750000000146,
      "v": 100
    },
    {
      "midi": 71,
      "hit": false,
      "t": 41103.85500000002,
      "d": 162.33750000000146,
      "v": 97
    },
    {
      "midi": 69,
      "hit": false,
      "t": 41298.66000000002,
      "d": 162.33750000000146,
      "v": 103
    },
    {
      "midi": 71,
      "hit": false,
      "t": 41493.46500000002,
      "d": 162.33750000000146,
      "v": 101
    },
    {
      "midi": 69,
      "hit": false,
      "t": 41688.27000000002,
      "d": 162.33750000000146,
      "v": 96
    },
    {
      "midi": 38,
      "hit": false,
      "t": 41688.27000000002,
      "d": 357.14250000000175,
      "v": 96
    },
    {
      "midi": 71,
      "hit": false,
      "t": 41883.07500000002,
      "d": 162.33750000000146,
      "v": 96
    },
    {
      "midi": 69,
      "hit": false,
      "t": 42077.88000000002,
      "d": 162.33750000000146,
      "v": 101
    },
    {
      "midi": 38,
      "hit": false,
      "t": 42077.88000000002,
      "d": 1485.388125000005,
      "v": 104
    },
    {
      "midi": 71,
      "hit": false,
      "t": 42272.68500000002,
      "d": 162.33750000000146,
      "v": 100
    },
    {
      "midi": 69,
      "hit": false,
      "t": 42467.49000000002,
      "d": 162.33750000000146,
      "v": 99
    },
    {
      "midi": 71,
      "hit": false,
      "t": 42662.29500000002,
      "d": 162.33750000000146,
      "v": 99
    },
    {
      "midi": 69,
      "hit": false,
      "t": 42857.10000000002,
      "d": 162.33750000000146,
      "v": 101
    },
    {
      "midi": 71,
      "hit": false,
      "t": 43051.90500000002,
      "d": 162.33750000000146,
      "v": 103
    },
    {
      "midi": 69,
      "hit": false,
      "t": 43246.71000000002,
      "d": 162.33750000000146,
      "v": 100
    },
    {
      "midi": 71,
      "hit": false,
      "t": 43441.51500000002,
      "d": 162.33750000000146,
      "v": 101
    },
    {
      "midi": 57,
      "hit": false,
      "t": 44415.54000000002,
      "d": 706.1681249999965,
      "v": 97
    },
    {
      "midi": 61,
      "hit": false,
      "t": 44415.54000000002,
      "d": 706.1681249999965,
      "v": 105
    },
    {
      "midi": 66,
      "hit": false,
      "t": 44415.54000000002,
      "d": 706.1681249999965,
      "v": 97
    },
    {
      "midi": 57,
      "hit": false,
      "t": 45973.98000000002,
      "d": 357.14250000000175,
      "v": 104
    },
    {
      "midi": 61,
      "hit": false,
      "t": 45973.98000000002,
      "d": 357.14250000000175,
      "v": 99
    },
    {
      "midi": 66,
      "hit": false,
      "t": 45973.98000000002,
      "d": 357.14250000000175,
      "v": 96
    },
    {
      "midi": 57,
      "hit": false,
      "t": 46363.59000000002,
      "d": 1485.3881249999977,
      "v": 98
    },
    {
      "midi": 61,
      "hit": false,
      "t": 46363.59000000002,
      "d": 1485.3881249999977,
      "v": 100
    },
    {
      "midi": 64,
      "hit": false,
      "t": 46363.59000000002,
      "d": 1485.3881249999977,
      "v": 102
    },
    {
      "midi": 57,
      "hit": false,
      "t": 47922.03000000001,
      "d": 1095.778124999997,
      "v": 103
    },
    {
      "midi": 61,
      "hit": false,
      "t": 47922.03000000001,
      "d": 1095.778124999997,
      "v": 99
    },
    {
      "midi": 66,
      "hit": false,
      "t": 47922.03000000001,
      "d": 1095.778124999997,
      "v": 105
    },
    {
      "midi": 61,
      "hit": false,
      "t": 49090.86000000001,
      "d": 706.1681249999965,
      "v": 103
    },
    {
      "midi": 66,
      "hit": false,
      "t": 49090.86000000001,
      "d": 706.1681249999965,
      "v": 105
    },
    {
      "midi": 69,
      "hit": false,
      "t": 49090.86000000001,
      "d": 706.1681249999965,
      "v": 101
    },
    {
      "midi": 59,
      "hit": false,
      "t": 49870.08,
      "d": 1485.3881249999977,
      "v": 100
    },
    {
      "midi": 62,
      "hit": false,
      "t": 49870.08,
      "d": 1485.3881249999977,
      "v": 99
    },
    {
      "midi": 66,
      "hit": false,
      "t": 49870.08,
      "d": 1485.3881249999977,
      "v": 99
    },
    {
      "midi": 59,
      "hit": false,
      "t": 51818.13,
      "d": 357.14250000000175,
      "v": 102
    },
    {
      "midi": 62,
      "hit": false,
      "t": 51818.13,
      "d": 357.14250000000175,
      "v": 97
    },
    {
      "midi": 59,
      "hit": false,
      "t": 52207.74,
      "d": 357.14250000000175,
      "v": 100
    },
    {
      "midi": 62,
      "hit": false,
      "t": 52207.74,
      "d": 357.14250000000175,
      "v": 99
    },
    {
      "midi": 59,
      "hit": false,
      "t": 52597.35,
      "d": 706.1681249999965,
      "v": 97
    },
    {
      "midi": 62,
      "hit": false,
      "t": 52597.35,
      "d": 706.1681249999965,
      "v": 98
    },
    {
      "midi": 57,
      "hit": false,
      "t": 53376.56999999999,
      "d": 1095.778124999997,
      "v": 102
    },
    {
      "midi": 61,
      "hit": false,
      "t": 53376.56999999999,
      "d": 1095.778124999997,
      "v": 105
    },
    {
      "midi": 64,
      "hit": false,
      "t": 53376.56999999999,
      "d": 1095.778124999997,
      "v": 97
    },
    {
      "midi": 57,
      "hit": false,
      "t": 54935.00999999999,
      "d": 357.14250000000175,
      "v": 100
    },
    {
      "midi": 69,
      "hit": false,
      "t": 55324.61999999999,
      "d": 357.14250000000175,
      "v": 103
    },
    {
      "midi": 57,
      "hit": false,
      "t": 55714.22999999999,
      "d": 2654.2181249999994,
      "v": 101
    },
    {
      "midi": 61,
      "hit": false,
      "t": 55714.22999999999,
      "d": 2654.2181249999994,
      "v": 103
    },
    {
      "midi": 66,
      "hit": false,
      "t": 55714.22999999999,
      "d": 2654.2181249999994,
      "v": 101
    },
    {
      "midi": 57,
      "hit": false,
      "t": 58441.499999999985,
      "d": 357.14250000000175,
      "v": 102
    },
    {
      "midi": 61,
      "hit": false,
      "t": 58441.499999999985,
      "d": 357.14250000000175,
      "v": 103
    },
    {
      "midi": 66,
      "hit": false,
      "t": 58441.499999999985,
      "d": 357.14250000000175,
      "v": 101
    },
    {
      "midi": 57,
      "hit": false,
      "t": 58831.109999999986,
      "d": 1485.3881249999977,
      "v": 103
    },
    {
      "midi": 61,
      "hit": false,
      "t": 58831.109999999986,
      "d": 1485.3881249999977,
      "v": 102
    },
    {
      "midi": 64,
      "hit": false,
      "t": 58831.109999999986,
      "d": 1485.3881249999977,
      "v": 104
    },
    {
      "midi": 57,
      "hit": false,
      "t": 60389.54999999998,
      "d": 1095.778124999997,
      "v": 97
    },
    {
      "midi": 61,
      "hit": false,
      "t": 60389.54999999998,
      "d": 1095.778124999997,
      "v": 105
    },
    {
      "midi": 66,
      "hit": false,
      "t": 60389.54999999998,
      "d": 1095.778124999997,
      "v": 102
    },
    {
      "midi": 61,
      "hit": false,
      "t": 61558.379999999976,
      "d": 706.1681249999965,
      "v": 102
    },
    {
      "midi": 66,
      "hit": false,
      "t": 61558.379999999976,
      "d": 706.1681249999965,
      "v": 98
    },
    {
      "midi": 69,
      "hit": false,
      "t": 61558.379999999976,
      "d": 706.1681249999965,
      "v": 101
    },
    {
      "midi": 59,
      "hit": false,
      "t": 62337.59999999997,
      "d": 1485.3881249999977,
      "v": 104
    },
    {
      "midi": 62,
      "hit": false,
      "t": 62337.59999999997,
      "d": 1485.3881249999977,
      "v": 101
    },
    {
      "midi": 66,
      "hit": false,
      "t": 62337.59999999997,
      "d": 1485.3881249999977,
      "v": 102
    },
    {
      "midi": 59,
      "hit": false,
      "t": 64285.649999999965,
      "d": 357.14250000000175,
      "v": 103
    },
    {
      "midi": 62,
      "hit": false,
      "t": 64285.649999999965,
      "d": 357.14250000000175,
      "v": 103
    },
    {
      "midi": 59,
      "hit": false,
      "t": 64675.259999999966,
      "d": 357.14250000000175,
      "v": 96
    },
    {
      "midi": 62,
      "hit": false,
      "t": 64675.259999999966,
      "d": 357.14250000000175,
      "v": 99
    },
    {
      "midi": 59,
      "hit": false,
      "t": 65064.869999999966,
      "d": 706.1681249999965,
      "v": 99
    },
    {
      "midi": 62,
      "hit": false,
      "t": 65064.869999999966,
      "d": 706.1681249999965,
      "v": 102
    },
    {
      "midi": 57,
      "hit": false,
      "t": 65844.08999999997,
      "d": 1095.778124999997,
      "v": 100
    },
    {
      "midi": 61,
      "hit": false,
      "t": 65844.08999999997,
      "d": 1095.778124999997,
      "v": 99
    },
    {
      "midi": 64,
      "hit": false,
      "t": 65844.08999999997,
      "d": 1095.778124999997,
      "v": 100
    },
    {
      "midi": 61,
      "hit": false,
      "t": 67012.91999999997,
      "d": 357.14250000000175,
      "v": 98
    },
    {
      "midi": 64,
      "hit": false,
      "t": 67402.52999999997,
      "d": 357.14250000000175,
      "v": 105
    },
    {
      "midi": 69,
      "hit": false,
      "t": 67792.13999999997,
      "d": 357.14250000000175,
      "v": 96
    },
    {
      "midi": 57,
      "hit": false,
      "t": 68181.74999999997,
      "d": 1874.9981249999983,
      "v": 100
    },
    {
      "midi": 61,
      "hit": false,
      "t": 68181.74999999997,
      "d": 1874.9981249999983,
      "v": 104
    },
    {
      "midi": 66,
      "hit": false,
      "t": 68181.74999999997,
      "d": 1874.9981249999983,
      "v": 96
    },
    {
      "midi": 57,
      "hit": false,
      "t": 70519.40999999997,
      "d": 357.14250000000175,
      "v": 97
    },
    {
      "midi": 62,
      "hit": false,
      "t": 70909.01999999997,
      "d": 357.14250000000175,
      "v": 102
    },
    {
      "midi": 57,
      "hit": false,
      "t": 71298.62999999998,
      "d": 706.1681249999965,
      "v": 102
    },
    {
      "midi": 61,
      "hit": false,
      "t": 71298.62999999998,
      "d": 706.1681249999965,
      "v": 100
    },
    {
      "midi": 64,
      "hit": false,
      "t": 71298.62999999998,
      "d": 706.1681249999965,
      "v": 100
    },
    {
      "midi": 57,
      "hit": false,
      "t": 72077.84999999998,
      "d": 1095.778124999997,
      "v": 105
    },
    {
      "midi": 61,
      "hit": false,
      "t": 72077.84999999998,
      "d": 1095.778124999997,
      "v": 102
    },
    {
      "midi": 66,
      "hit": false,
      "t": 72077.84999999998,
      "d": 1095.778124999997,
      "v": 103
    },
    {
      "midi": 57,
      "hit": false,
      "t": 73636.28999999998,
      "d": 357.14250000000175,
      "v": 101
    },
    {
      "midi": 57,
      "hit": false,
      "t": 74025.89999999998,
      "d": 357.14250000000175,
      "v": 100
    },
    {
      "midi": 61,
      "hit": false,
      "t": 74025.89999999998,
      "d": 357.14250000000175,
      "v": 102
    },
    {
      "midi": 64,
      "hit": false,
      "t": 74025.89999999998,
      "d": 357.14250000000175,
      "v": 96
    },
    {
      "midi": 55,
      "hit": false,
      "t": 74415.50999999998,
      "d": 1095.778124999997,
      "v": 101
    },
    {
      "midi": 59,
      "hit": false,
      "t": 74415.50999999998,
      "d": 1095.778124999997,
      "v": 99
    },
    {
      "midi": 62,
      "hit": false,
      "t": 74415.50999999998,
      "d": 1095.778124999997,
      "v": 99
    },
    {
      "midi": 59,
      "hit": false,
      "t": 75584.33999999998,
      "d": 1485.3881249999977,
      "v": 97
    },
    {
      "midi": 62,
      "hit": false,
      "t": 75584.33999999998,
      "d": 1485.3881249999977,
      "v": 104
    },
    {
      "midi": 67,
      "hit": false,
      "t": 75584.33999999998,
      "d": 1485.3881249999977,
      "v": 102
    },
    {
      "midi": 55,
      "hit": false,
      "t": 77142.77999999998,
      "d": 357.14250000000175,
      "v": 96
    },
    {
      "midi": 59,
      "hit": false,
      "t": 77142.77999999998,
      "d": 357.14250000000175,
      "v": 102
    },
    {
      "midi": 62,
      "hit": false,
      "t": 77142.77999999998,
      "d": 357.14250000000175,
      "v": 99
    },
    {
      "midi": 55,
      "hit": false,
      "t": 77532.38999999998,
      "d": 706.1681249999965,
      "v": 104
    },
    {
      "midi": 59,
      "hit": false,
      "t": 77532.38999999998,
      "d": 706.1681249999965,
      "v": 103
    },
    {
      "midi": 62,
      "hit": false,
      "t": 77532.38999999998,
      "d": 706.1681249999965,
      "v": 102
    },
    {
      "midi": 57,
      "hit": false,
      "t": 78311.60999999999,
      "d": 1095.778124999997,
      "v": 103
    },
    {
      "midi": 61,
      "hit": false,
      "t": 78311.60999999999,
      "d": 1095.778124999997,
      "v": 100
    },
    {
      "midi": 64,
      "hit": false,
      "t": 78311.60999999999,
      "d": 1095.778124999997,
      "v": 103
    },
    {
      "midi": 57,
      "hit": false,
      "t": 79480.43999999999,
      "d": 357.14250000000175,
      "v": 101
    },
    {
      "midi": 61,
      "hit": false,
      "t": 79480.43999999999,
      "d": 357.14250000000175,
      "v": 96
    },
    {
      "midi": 64,
      "hit": false,
      "t": 79480.43999999999,
      "d": 357.14250000000175,
      "v": 102
    },
    {
      "midi": 57,
      "hit": false,
      "t": 79870.04999999999,
      "d": 357.14250000000175,
      "v": 96
    },
    {
      "midi": 69,
      "hit": false,
      "t": 80259.65999999999,
      "d": 357.14250000000175,
      "v": 101
    },
    {
      "midi": 57,
      "hit": false,
      "t": 80649.26999999999,
      "d": 2654.2181249999994,
      "v": 104
    },
    {
      "midi": 61,
      "hit": false,
      "t": 80649.26999999999,
      "d": 2654.2181249999994,
      "v": 104
    },
    {
      "midi": 64,
      "hit": false,
      "t": 80649.26999999999,
      "d": 2654.2181249999994,
      "v": 104
    },
    {
      "midi": 57,
      "hit": false,
      "t": 83376.54,
      "d": 357.14250000000175,
      "v": 105
    },
    {
      "midi": 61,
      "hit": false,
      "t": 83376.54,
      "d": 357.14250000000175,
      "v": 104
    },
    {
      "midi": 66,
      "hit": false,
      "t": 83376.54,
      "d": 357.14250000000175,
      "v": 103
    },
    {
      "midi": 57,
      "hit": false,
      "t": 83766.15,
      "d": 1485.3881249999977,
      "v": 102
    },
    {
      "midi": 61,
      "hit": false,
      "t": 83766.15,
      "d": 1485.3881249999977,
      "v": 104
    },
    {
      "midi": 64,
      "hit": false,
      "t": 83766.15,
      "d": 1485.3881249999977,
      "v": 99
    },
    {
      "midi": 57,
      "hit": false,
      "t": 85324.59,
      "d": 1095.778124999997,
      "v": 101
    },
    {
      "midi": 61,
      "hit": false,
      "t": 85324.59,
      "d": 1095.778124999997,
      "v": 105
    },
    {
      "midi": 66,
      "hit": false,
      "t": 85324.59,
      "d": 1095.778124999997,
      "v": 100
    },
    {
      "midi": 57,
      "hit": false,
      "t": 86493.42,
      "d": 357.14250000000175,
      "v": 97
    },
    {
      "midi": 61,
      "hit": false,
      "t": 86493.42,
      "d": 357.14250000000175,
      "v": 102
    },
    {
      "midi": 64,
      "hit": false,
      "t": 86493.42,
      "d": 357.14250000000175,
      "v": 101
    },
    {
      "midi": 55,
      "hit": false,
      "t": 86883.03,
      "d": 1095.778124999997,
      "v": 96
    },
    {
      "midi": 59,
      "hit": false,
      "t": 86883.03,
      "d": 1095.778124999997,
      "v": 102
    },
    {
      "midi": 62,
      "hit": false,
      "t": 86883.03,
      "d": 1095.778124999997,
      "v": 101
    },
    {
      "midi": 55,
      "hit": false,
      "t": 88051.86,
      "d": 1485.3881249999977,
      "v": 104
    },
    {
      "midi": 59,
      "hit": false,
      "t": 88051.86,
      "d": 1485.3881249999977,
      "v": 97
    },
    {
      "midi": 62,
      "hit": false,
      "t": 88051.86,
      "d": 1485.3881249999977,
      "v": 103
    },
    {
      "midi": 55,
      "hit": false,
      "t": 89999.91,
      "d": 706.1681249999965,
      "v": 105
    },
    {
      "midi": 59,
      "hit": false,
      "t": 89999.91,
      "d": 706.1681249999965,
      "v": 102
    },
    {
      "midi": 62,
      "hit": false,
      "t": 89999.91,
      "d": 706.1681249999965,
      "v": 100
    },
    {
      "midi": 57,
      "hit": false,
      "t": 90779.13,
      "d": 2654.2181249999994,
      "v": 96
    },
    {
      "midi": 61,
      "hit": false,
      "t": 90779.13,
      "d": 2654.2181249999994,
      "v": 104
    },
    {
      "midi": 64,
      "hit": false,
      "t": 90779.13,
      "d": 2654.2181249999994,
      "v": 99
    },
    {
      "midi": 45,
      "hit": false,
      "t": 93506.40000000001,
      "d": 1095.778124999997,
      "v": 96
    },
    {
      "midi": 57,
      "hit": false,
      "t": 93506.40000000001,
      "d": 2654.2181249999994,
      "v": 103
    },
    {
      "midi": 61,
      "hit": false,
      "t": 93506.40000000001,
      "d": 2654.2181249999994,
      "v": 103
    },
    {
      "midi": 66,
      "hit": false,
      "t": 93506.40000000001,
      "d": 2654.2181249999994,
      "v": 98
    },
    {
      "midi": 45,
      "hit": false,
      "t": 94675.23000000001,
      "d": 357.14250000000175,
      "v": 96
    },
    {
      "midi": 45,
      "hit": false,
      "t": 95064.84000000001,
      "d": 1095.778124999997,
      "v": 97
    },
    {
      "midi": 45,
      "hit": false,
      "t": 96233.67000000001,
      "d": 357.14250000000175,
      "v": 96
    },
    {
      "midi": 57,
      "hit": false,
      "t": 96233.67000000001,
      "d": 706.1681249999965,
      "v": 101
    },
    {
      "midi": 61,
      "hit": false,
      "t": 96233.67000000001,
      "d": 706.1681249999965,
      "v": 105
    },
    {
      "midi": 64,
      "hit": false,
      "t": 96233.67000000001,
      "d": 706.1681249999965,
      "v": 102
    },
    {
      "midi": 45,
      "hit": false,
      "t": 96623.28000000001,
      "d": 1095.778124999997,
      "v": 103
    },
    {
      "midi": 57,
      "hit": false,
      "t": 97012.89000000001,
      "d": 1874.9981249999983,
      "v": 99
    },
    {
      "midi": 45,
      "hit": false,
      "t": 97792.11000000002,
      "d": 357.14250000000175,
      "v": 96
    },
    {
      "midi": 45,
      "hit": false,
      "t": 98181.72000000002,
      "d": 1095.778124999997,
      "v": 102
    },
    {
      "midi": 57,
      "hit": false,
      "t": 98960.94000000002,
      "d": 357.14250000000175,
      "v": 97
    },
    {
      "midi": 61,
      "hit": false,
      "t": 98960.94000000002,
      "d": 357.14250000000175,
      "v": 104
    },
    {
      "midi": 66,
      "hit": false,
      "t": 98960.94000000002,
      "d": 357.14250000000175,
      "v": 105
    },
    {
      "midi": 45,
      "hit": false,
      "t": 99350.55000000002,
      "d": 357.14250000000175,
      "v": 99
    },
    {
      "midi": 57,
      "hit": false,
      "t": 99350.55000000002,
      "d": 1095.778124999997,
      "v": 102
    },
    {
      "midi": 61,
      "hit": false,
      "t": 99350.55000000002,
      "d": 1095.778124999997,
      "v": 98
    },
    {
      "midi": 64,
      "hit": false,
      "t": 99350.55000000002,
      "d": 1095.778124999997,
      "v": 101
    },
    {
      "midi": 45,
      "hit": false,
      "t": 99740.16000000002,
      "d": 1095.778124999997,
      "v": 97
    },
    {
      "midi": 57,
      "hit": false,
      "t": 100519.38000000002,
      "d": 1485.3881249999977,
      "v": 99
    },
    {
      "midi": 61,
      "hit": false,
      "t": 100519.38000000002,
      "d": 1485.3881249999977,
      "v": 103
    },
    {
      "midi": 66,
      "hit": false,
      "t": 100519.38000000002,
      "d": 1485.3881249999977,
      "v": 105
    },
    {
      "midi": 45,
      "hit": false,
      "t": 100908.99000000002,
      "d": 357.14250000000175,
      "v": 101
    },
    {
      "midi": 45,
      "hit": false,
      "t": 101298.60000000002,
      "d": 1095.778124999997,
      "v": 105
    },
    {
      "midi": 57,
      "hit": false,
      "t": 102077.82000000002,
      "d": 357.14250000000175,
      "v": 101
    },
    {
      "midi": 61,
      "hit": false,
      "t": 102077.82000000002,
      "d": 357.14250000000175,
      "v": 105
    },
    {
      "midi": 66,
      "hit": false,
      "t": 102077.82000000002,
      "d": 357.14250000000175,
      "v": 104
    },
    {
      "midi": 45,
      "hit": false,
      "t": 102467.43000000002,
      "d": 357.14250000000175,
      "v": 96
    },
    {
      "midi": 57,
      "hit": false,
      "t": 102467.43000000002,
      "d": 1485.3881249999977,
      "v": 97
    },
    {
      "midi": 61,
      "hit": false,
      "t": 102467.43000000002,
      "d": 1485.3881249999977,
      "v": 101
    },
    {
      "midi": 64,
      "hit": false,
      "t": 102467.43000000002,
      "d": 1485.3881249999977,
      "v": 104
    },
    {
      "midi": 45,
      "hit": false,
      "t": 102857.04000000002,
      "d": 1095.778124999997,
      "v": 101
    },
    {
      "midi": 45,
      "hit": false,
      "t": 104025.87000000002,
      "d": 357.14250000000175,
      "v": 103
    },
    {
      "midi": 57,
      "hit": false,
      "t": 104025.87000000002,
      "d": 1874.9981249999983,
      "v": 96
    },
    {
      "midi": 61,
      "hit": false,
      "t": 104025.87000000002,
      "d": 1874.9981249999983,
      "v": 98
    },
    {
      "midi": 66,
      "hit": false,
      "t": 104025.87000000002,
      "d": 1874.9981249999983,
      "v": 97
    },
    {
      "midi": 45,
      "hit": false,
      "t": 104415.48000000003,
      "d": 1095.778124999997,
      "v": 102
    },
    {
      "midi": 45,
      "hit": false,
      "t": 105584.31000000003,
      "d": 357.14250000000175,
      "v": 102
    },
    {
      "midi": 43,
      "hit": false,
      "t": 105973.92000000003,
      "d": 1095.778124999997,
      "v": 99
    },
    {
      "midi": 55,
      "hit": false,
      "t": 106753.14000000003,
      "d": 706.1681249999965,
      "v": 104
    },
    {
      "midi": 59,
      "hit": false,
      "t": 106753.14000000003,
      "d": 706.1681249999965,
      "v": 99
    },
    {
      "midi": 62,
      "hit": false,
      "t": 106753.14000000003,
      "d": 706.1681249999965,
      "v": 103
    },
    {
      "midi": 43,
      "hit": false,
      "t": 107142.75000000003,
      "d": 357.14250000000175,
      "v": 101
    },
    {
      "midi": 55,
      "hit": false,
      "t": 107532.36000000003,
      "d": 706.1681249999965,
      "v": 102
    },
    {
      "midi": 59,
      "hit": false,
      "t": 107532.36000000003,
      "d": 706.1681249999965,
      "v": 103
    },
    {
      "midi": 62,
      "hit": false,
      "t": 107532.36000000003,
      "d": 706.1681249999965,
      "v": 96
    },
    {
      "midi": 43,
      "hit": false,
      "t": 107532.36000000003,
      "d": 1095.778124999997,
      "v": 105
    },
    {
      "midi": 55,
      "hit": false,
      "t": 108311.58000000003,
      "d": 706.1681249999965,
      "v": 96
    },
    {
      "midi": 59,
      "hit": false,
      "t": 108311.58000000003,
      "d": 706.1681249999965,
      "v": 98
    },
    {
      "midi": 62,
      "hit": false,
      "t": 108311.58000000003,
      "d": 706.1681249999965,
      "v": 98
    },
    {
      "midi": 43,
      "hit": false,
      "t": 108701.19000000003,
      "d": 357.14250000000175,
      "v": 97
    },
    {
      "midi": 57,
      "hit": false,
      "t": 109090.80000000003,
      "d": 706.1681249999965,
      "v": 101
    },
    {
      "midi": 61,
      "hit": false,
      "t": 109090.80000000003,
      "d": 706.1681249999965,
      "v": 97
    },
    {
      "midi": 64,
      "hit": false,
      "t": 109090.80000000003,
      "d": 706.1681249999965,
      "v": 98
    },
    {
      "midi": 45,
      "hit": false,
      "t": 109090.80000000003,
      "d": 1095.778124999997,
      "v": 104
    },
    {
      "midi": 57,
      "hit": false,
      "t": 109870.02000000003,
      "d": 357.14250000000175,
      "v": 103
    },
    {
      "midi": 45,
      "hit": false,
      "t": 110259.63000000003,
      "d": 357.14250000000175,
      "v": 102
    },
    {
      "midi": 59,
      "hit": false,
      "t": 110259.63000000003,
      "d": 706.1681249999965,
      "v": 103
    },
    {
      "midi": 64,
      "hit": false,
      "t": 110259.63000000003,
      "d": 706.1681249999965,
      "v": 104
    },
    {
      "midi": 45,
      "hit": false,
      "t": 110649.24000000003,
      "d": 1095.778124999997,
      "v": 103
    },
    {
      "midi": 52,
      "hit": false,
      "t": 111038.85000000003,
      "d": 357.14250000000175,
      "v": 102
    },
    {
      "midi": 57,
      "hit": false,
      "t": 111428.46000000004,
      "d": 357.14250000000175,
      "v": 103
    },
    {
      "midi": 45,
      "hit": false,
      "t": 111818.07000000004,
      "d": 357.14250000000175,
      "v": 103
    },
    {
      "midi": 55,
      "hit": false,
      "t": 111818.07000000004,
      "d": 1095.778124999997,
      "v": 98
    },
    {
      "midi": 43,
      "hit": false,
      "t": 112207.68000000004,
      "d": 1095.778124999997,
      "v": 96
    },
    {
      "midi": 59,
      "hit": false,
      "t": 112986.90000000004,
      "d": 357.14250000000175,
      "v": 100
    },
    {
      "midi": 62,
      "hit": false,
      "t": 112986.90000000004,
      "d": 357.14250000000175,
      "v": 97
    },
    {
      "midi": 66,
      "hit": false,
      "t": 112986.90000000004,
      "d": 357.14250000000175,
      "v": 96
    },
    {
      "midi": 43,
      "hit": false,
      "t": 113376.51000000004,
      "d": 357.14250000000175,
      "v": 97
    },
    {
      "midi": 59,
      "hit": false,
      "t": 113376.51000000004,
      "d": 357.14250000000175,
      "v": 96
    },
    {
      "midi": 62,
      "hit": false,
      "t": 113376.51000000004,
      "d": 357.14250000000175,
      "v": 102
    },
    {
      "midi": 66,
      "hit": false,
      "t": 113376.51000000004,
      "d": 357.14250000000175,
      "v": 101
    },
    {
      "midi": 59,
      "hit": false,
      "t": 113766.12000000004,
      "d": 706.1681249999965,
      "v": 102
    },
    {
      "midi": 62,
      "hit": false,
      "t": 113766.12000000004,
      "d": 706.1681249999965,
      "v": 100
    },
    {
      "midi": 66,
      "hit": false,
      "t": 113766.12000000004,
      "d": 706.1681249999965,
      "v": 101
    },
    {
      "midi": 43,
      "hit": false,
      "t": 113766.12000000004,
      "d": 1095.778124999997,
      "v": 101
    },
    {
      "midi": 59,
      "hit": false,
      "t": 114545.34000000004,
      "d": 357.14250000000175,
      "v": 96
    },
    {
      "midi": 62,
      "hit": false,
      "t": 114545.34000000004,
      "d": 357.14250000000175,
      "v": 99
    },
    {
      "midi": 66,
      "hit": false,
      "t": 114545.34000000004,
      "d": 357.14250000000175,
      "v": 99
    },
    {
      "midi": 43,
      "hit": false,
      "t": 114934.95000000004,
      "d": 357.14250000000175,
      "v": 103
    },
    {
      "midi": 59,
      "hit": false,
      "t": 114934.95000000004,
      "d": 357.14250000000175,
      "v": 102
    },
    {
      "midi": 62,
      "hit": false,
      "t": 114934.95000000004,
      "d": 357.14250000000175,
      "v": 104
    },
    {
      "midi": 66,
      "hit": false,
      "t": 114934.95000000004,
      "d": 357.14250000000175,
      "v": 102
    },
    {
      "midi": 59,
      "hit": false,
      "t": 115324.56000000004,
      "d": 706.1681249999965,
      "v": 98
    },
    {
      "midi": 62,
      "hit": false,
      "t": 115324.56000000004,
      "d": 706.1681249999965,
      "v": 100
    },
    {
      "midi": 66,
      "hit": false,
      "t": 115324.56000000004,
      "d": 706.1681249999965,
      "v": 103
    },
    {
      "midi": 43,
      "hit": false,
      "t": 115324.56000000004,
      "d": 1095.778124999997,
      "v": 101
    },
    {
      "midi": 62,
      "hit": false,
      "t": 116103.78000000004,
      "d": 706.1681249999965,
      "v": 102
    },
    {
      "midi": 66,
      "hit": false,
      "t": 116103.78000000004,
      "d": 706.1681249999965,
      "v": 96
    },
    {
      "midi": 71,
      "hit": false,
      "t": 116103.78000000004,
      "d": 706.1681249999965,
      "v": 102
    },
    {
      "midi": 43,
      "hit": false,
      "t": 116493.39000000004,
      "d": 357.14250000000175,
      "v": 102
    },
    {
      "midi": 50,
      "hit": false,
      "t": 116883.00000000004,
      "d": 706.1681249999965,
      "v": 96
    },
    {
      "midi": 62,
      "hit": false,
      "t": 116883.00000000004,
      "d": 706.1681249999965,
      "v": 98
    },
    {
      "midi": 74,
      "hit": false,
      "t": 116883.00000000004,
      "d": 706.1681249999965,
      "v": 102
    },
    {
      "midi": 52,
      "hit": false,
      "t": 117662.22000000004,
      "d": 706.1681249999965,
      "v": 105
    },
    {
      "midi": 64,
      "hit": false,
      "t": 117662.22000000004,
      "d": 706.1681249999965,
      "v": 97
    },
    {
      "midi": 76,
      "hit": false,
      "t": 117662.22000000004,
      "d": 706.1681249999965,
      "v": 98
    },
    {
      "midi": 45,
      "hit": false,
      "t": 118441.44000000005,
      "d": 1095.778124999997,
      "v": 102
    },
    {
      "midi": 57,
      "hit": false,
      "t": 118441.44000000005,
      "d": 2654.2181249999994,
      "v": 99
    },
    {
      "midi": 61,
      "hit": false,
      "t": 118441.44000000005,
      "d": 2654.2181249999994,
      "v": 101
    },
    {
      "midi": 66,
      "hit": false,
      "t": 118441.44000000005,
      "d": 2654.2181249999994,
      "v": 103
    },
    {
      "midi": 45,
      "hit": false,
      "t": 119610.27000000005,
      "d": 357.14250000000175,
      "v": 97
    },
    {
      "midi": 45,
      "hit": false,
      "t": 119999.88000000005,
      "d": 1095.778124999997,
      "v": 101
    },
    {
      "midi": 45,
      "hit": false,
      "t": 121168.71000000005,
      "d": 357.14250000000175,
      "v": 100
    },
    {
      "midi": 57,
      "hit": false,
      "t": 121168.71000000005,
      "d": 706.1681249999965,
      "v": 104
    },
    {
      "midi": 61,
      "hit": false,
      "t": 121168.71000000005,
      "d": 706.1681249999965,
      "v": 97
    },
    {
      "midi": 64,
      "hit": false,
      "t": 121168.71000000005,
      "d": 706.1681249999965,
      "v": 99
    },
    {
      "midi": 45,
      "hit": false,
      "t": 121558.32000000005,
      "d": 1095.778124999997,
      "v": 98
    },
    {
      "midi": 57,
      "hit": false,
      "t": 121947.93000000005,
      "d": 1874.9981249999983,
      "v": 96
    },
    {
      "midi": 45,
      "hit": false,
      "t": 122727.15000000005,
      "d": 357.14250000000175,
      "v": 102
    },
    {
      "midi": 45,
      "hit": false,
      "t": 123116.76000000005,
      "d": 1095.778124999997,
      "v": 99
    },
    {
      "midi": 57,
      "hit": false,
      "t": 123895.98000000005,
      "d": 357.14250000000175,
      "v": 103
    },
    {
      "midi": 61,
      "hit": false,
      "t": 123895.98000000005,
      "d": 357.14250000000175,
      "v": 99
    },
    {
      "midi": 66,
      "hit": false,
      "t": 123895.98000000005,
      "d": 357.14250000000175,
      "v": 104
    },
    {
      "midi": 45,
      "hit": false,
      "t": 124285.59000000005,
      "d": 357.14250000000175,
      "v": 96
    },
    {
      "midi": 57,
      "hit": false,
      "t": 124285.59000000005,
      "d": 1095.778124999997,
      "v": 102
    },
    {
      "midi": 61,
      "hit": false,
      "t": 124285.59000000005,
      "d": 1095.778124999997,
      "v": 97
    },
    {
      "midi": 64,
      "hit": false,
      "t": 124285.59000000005,
      "d": 1095.778124999997,
      "v": 96
    },
    {
      "midi": 45,
      "hit": false,
      "t": 124675.20000000006,
      "d": 1095.778124999997,
      "v": 98
    },
    {
      "midi": 57,
      "hit": false,
      "t": 125454.42000000006,
      "d": 1485.3881249999977,
      "v": 98
    },
    {
      "midi": 61,
      "hit": false,
      "t": 125454.42000000006,
      "d": 1485.3881249999977,
      "v": 98
    },
    {
      "midi": 66,
      "hit": false,
      "t": 125454.42000000006,
      "d": 1485.3881249999977,
      "v": 101
    },
    {
      "midi": 45,
      "hit": false,
      "t": 125844.03000000006,
      "d": 357.14250000000175,
      "v": 105
    },
    {
      "midi": 45,
      "hit": false,
      "t": 126233.64000000006,
      "d": 1095.778124999997,
      "v": 105
    },
    {
      "midi": 57,
      "hit": false,
      "t": 127012.86000000006,
      "d": 357.14250000000175,
      "v": 99
    },
    {
      "midi": 61,
      "hit": false,
      "t": 127012.86000000006,
      "d": 357.14250000000175,
      "v": 100
    },
    {
      "midi": 66,
      "hit": false,
      "t": 127012.86000000006,
      "d": 357.14250000000175,
      "v": 105
    },
    {
      "midi": 45,
      "hit": false,
      "t": 127402.47000000006,
      "d": 357.14250000000175,
      "v": 105
    },
    {
      "midi": 57,
      "hit": false,
      "t": 127402.47000000006,
      "d": 1485.3881249999977,
      "v": 99
    },
    {
      "midi": 61,
      "hit": false,
      "t": 127402.47000000006,
      "d": 1485.3881249999977,
      "v": 99
    },
    {
      "midi": 64,
      "hit": false,
      "t": 127402.47000000006,
      "d": 1485.3881249999977,
      "v": 99
    },
    {
      "midi": 45,
      "hit": false,
      "t": 127792.08000000006,
      "d": 1095.778124999997,
      "v": 103
    },
    {
      "midi": 45,
      "hit": false,
      "t": 128960.91000000006,
      "d": 357.14250000000175,
      "v": 99
    },
    {
      "midi": 57,
      "hit": false,
      "t": 128960.91000000006,
      "d": 1874.9981249999983,
      "v": 102
    },
    {
      "midi": 61,
      "hit": false,
      "t": 128960.91000000006,
      "d": 1874.9981249999983,
      "v": 100
    },
    {
      "midi": 66,
      "hit": false,
      "t": 128960.91000000006,
      "d": 1874.9981249999983,
      "v": 105
    },
    {
      "midi": 45,
      "hit": false,
      "t": 129350.52000000006,
      "d": 1095.778124999997,
      "v": 99
    },
    {
      "midi": 45,
      "hit": false,
      "t": 130519.35000000006,
      "d": 357.14250000000175,
      "v": 97
    },
    {
      "midi": 43,
      "hit": false,
      "t": 130908.96000000006,
      "d": 1095.778124999997,
      "v": 103
    },
    {
      "midi": 55,
      "hit": false,
      "t": 131688.18000000005,
      "d": 706.1681250000256,
      "v": 100
    },
    {
      "midi": 59,
      "hit": false,
      "t": 131688.18000000005,
      "d": 706.1681250000256,
      "v": 96
    },
    {
      "midi": 62,
      "hit": false,
      "t": 131688.18000000005,
      "d": 706.1681250000256,
      "v": 96
    },
    {
      "midi": 43,
      "hit": false,
      "t": 132077.79000000007,
      "d": 357.1425000000163,
      "v": 100
    },
    {
      "midi": 55,
      "hit": false,
      "t": 132467.40000000008,
      "d": 706.1681249999965,
      "v": 105
    },
    {
      "midi": 59,
      "hit": false,
      "t": 132467.40000000008,
      "d": 706.1681249999965,
      "v": 105
    },
    {
      "midi": 62,
      "hit": false,
      "t": 132467.40000000008,
      "d": 706.1681249999965,
      "v": 100
    },
    {
      "midi": 43,
      "hit": false,
      "t": 132467.40000000008,
      "d": 1095.7781250000116,
      "v": 101
    },
    {
      "midi": 55,
      "hit": false,
      "t": 133246.62000000008,
      "d": 706.1681250000256,
      "v": 103
    },
    {
      "midi": 59,
      "hit": false,
      "t": 133246.62000000008,
      "d": 706.1681250000256,
      "v": 99
    },
    {
      "midi": 62,
      "hit": false,
      "t": 133246.62000000008,
      "d": 706.1681250000256,
      "v": 98
    },
    {
      "midi": 43,
      "hit": false,
      "t": 133636.2300000001,
      "d": 357.1425000000163,
      "v": 103
    },
    {
      "midi": 57,
      "hit": false,
      "t": 134025.8400000001,
      "d": 706.1681249999965,
      "v": 102
    },
    {
      "midi": 61,
      "hit": false,
      "t": 134025.8400000001,
      "d": 706.1681249999965,
      "v": 104
    },
    {
      "midi": 64,
      "hit": false,
      "t": 134025.8400000001,
      "d": 706.1681249999965,
      "v": 102
    },
    {
      "midi": 45,
      "hit": false,
      "t": 134025.8400000001,
      "d": 1095.7781250000116,
      "v": 102
    },
    {
      "midi": 57,
      "hit": false,
      "t": 134805.0600000001,
      "d": 357.1425000000163,
      "v": 101
    },
    {
      "midi": 45,
      "hit": false,
      "t": 135194.67000000013,
      "d": 357.1424999999872,
      "v": 102
    },
    {
      "midi": 59,
      "hit": false,
      "t": 135194.67000000013,
      "d": 706.1681249999965,
      "v": 101
    },
    {
      "midi": 64,
      "hit": false,
      "t": 135194.67000000013,
      "d": 706.1681249999965,
      "v": 100
    },
    {
      "midi": 45,
      "hit": false,
      "t": 135584.28000000012,
      "d": 1095.7781250000116,
      "v": 100
    },
    {
      "midi": 52,
      "hit": false,
      "t": 135973.89000000013,
      "d": 357.1424999999872,
      "v": 105
    },
    {
      "midi": 57,
      "hit": false,
      "t": 136363.50000000012,
      "d": 357.1425000000163,
      "v": 105
    },
    {
      "midi": 45,
      "hit": false,
      "t": 136753.11000000013,
      "d": 357.1424999999872,
      "v": 104
    },
    {
      "midi": 55,
      "hit": false,
      "t": 136753.11000000013,
      "d": 1095.7781249999825,
      "v": 98
    },
    {
      "midi": 43,
      "hit": false,
      "t": 137142.72000000012,
      "d": 1095.7781250000116,
      "v": 101
    },
    {
      "midi": 59,
      "hit": false,
      "t": 137921.94000000012,
      "d": 357.1425000000163,
      "v": 104
    },
    {
      "midi": 62,
      "hit": false,
      "t": 137921.94000000012,
      "d": 357.1425000000163,
      "v": 100
    },
    {
      "midi": 66,
      "hit": false,
      "t": 137921.94000000012,
      "d": 357.1425000000163,
      "v": 105
    },
    {
      "midi": 43,
      "hit": false,
      "t": 138311.55000000013,
      "d": 357.1424999999872,
      "v": 104
    },
    {
      "midi": 59,
      "hit": false,
      "t": 138311.55000000013,
      "d": 357.1424999999872,
      "v": 97
    },
    {
      "midi": 62,
      "hit": false,
      "t": 138311.55000000013,
      "d": 357.1424999999872,
      "v": 103
    },
    {
      "midi": 66,
      "hit": false,
      "t": 138311.55000000013,
      "d": 357.1424999999872,
      "v": 102
    },
    {
      "midi": 59,
      "hit": false,
      "t": 138701.16000000012,
      "d": 706.1681249999965,
      "v": 103
    },
    {
      "midi": 62,
      "hit": false,
      "t": 138701.16000000012,
      "d": 706.1681249999965,
      "v": 101
    },
    {
      "midi": 66,
      "hit": false,
      "t": 138701.16000000012,
      "d": 706.1681249999965,
      "v": 104
    },
    {
      "midi": 43,
      "hit": false,
      "t": 138701.16000000012,
      "d": 1095.7781250000116,
      "v": 101
    },
    {
      "midi": 59,
      "hit": false,
      "t": 139480.38000000012,
      "d": 357.1425000000163,
      "v": 101
    },
    {
      "midi": 62,
      "hit": false,
      "t": 139480.38000000012,
      "d": 357.1425000000163,
      "v": 104
    },
    {
      "midi": 66,
      "hit": false,
      "t": 139480.38000000012,
      "d": 357.1425000000163,
      "v": 97
    },
    {
      "midi": 43,
      "hit": false,
      "t": 139869.99000000014,
      "d": 357.1424999999872,
      "v": 103
    },
    {
      "midi": 59,
      "hit": false,
      "t": 139869.99000000014,
      "d": 357.1424999999872,
      "v": 105
    },
    {
      "midi": 62,
      "hit": false,
      "t": 139869.99000000014,
      "d": 357.1424999999872,
      "v": 99
    },
    {
      "midi": 66,
      "hit": false,
      "t": 139869.99000000014,
      "d": 357.1424999999872,
      "v": 97
    },
    {
      "midi": 59,
      "hit": false,
      "t": 140259.60000000012,
      "d": 706.1681249999965,
      "v": 105
    },
    {
      "midi": 62,
      "hit": false,
      "t": 140259.60000000012,
      "d": 706.1681249999965,
      "v": 102
    },
    {
      "midi": 66,
      "hit": false,
      "t": 140259.60000000012,
      "d": 706.1681249999965,
      "v": 105
    },
    {
      "midi": 43,
      "hit": false,
      "t": 140259.60000000012,
      "d": 1095.7781250000116,
      "v": 96
    },
    {
      "midi": 62,
      "hit": false,
      "t": 141038.82000000012,
      "d": 706.1681250000256,
      "v": 103
    },
    {
      "midi": 66,
      "hit": false,
      "t": 141038.82000000012,
      "d": 706.1681250000256,
      "v": 96
    },
    {
      "midi": 71,
      "hit": false,
      "t": 141038.82000000012,
      "d": 706.1681250000256,
      "v": 100
    },
    {
      "midi": 43,
      "hit": false,
      "t": 141428.43000000014,
      "d": 357.1425000000163,
      "v": 103
    },
    {
      "midi": 50,
      "hit": false,
      "t": 141818.04000000015,
      "d": 706.1681249999965,
      "v": 101
    },
    {
      "midi": 62,
      "hit": false,
      "t": 141818.04000000015,
      "d": 706.1681249999965,
      "v": 103
    },
    {
      "midi": 74,
      "hit": false,
      "t": 141818.04000000015,
      "d": 706.1681249999965,
      "v": 105
    },
    {
      "midi": 52,
      "hit": false,
      "t": 142597.26000000015,
      "d": 706.1681249999965,
      "v": 103
    },
    {
      "midi": 64,
      "hit": false,
      "t": 142597.26000000015,
      "d": 706.1681249999965,
      "v": 99
    },
    {
      "midi": 76,
      "hit": false,
      "t": 142597.26000000015,
      "d": 706.1681249999965,
      "v": 104
    },
    {
      "midi": 57,
      "hit": false,
      "t": 144155.70000000016,
      "d": 706.1681249999965,
      "v": 98
    },
    {
      "midi": 61,
      "hit": false,
      "t": 144155.70000000016,
      "d": 706.1681249999965,
      "v": 99
    },
    {
      "midi": 66,
      "hit": false,
      "t": 144155.70000000016,
      "d": 706.1681249999965,
      "v": 104
    },
    {
      "midi": 57,
      "hit": false,
      "t": 145714.14000000016,
      "d": 357.1424999999872,
      "v": 98
    },
    {
      "midi": 61,
      "hit": false,
      "t": 145714.14000000016,
      "d": 357.1424999999872,
      "v": 99
    },
    {
      "midi": 66,
      "hit": false,
      "t": 145714.14000000016,
      "d": 357.1424999999872,
      "v": 101
    },
    {
      "midi": 57,
      "hit": false,
      "t": 146103.75000000015,
      "d": 1485.3881249999977,
      "v": 103
    },
    {
      "midi": 61,
      "hit": false,
      "t": 146103.75000000015,
      "d": 1485.3881249999977,
      "v": 99
    },
    {
      "midi": 64,
      "hit": false,
      "t": 146103.75000000015,
      "d": 1485.3881249999977,
      "v": 104
    },
    {
      "midi": 57,
      "hit": false,
      "t": 147662.19000000015,
      "d": 1095.7781250000116,
      "v": 100
    },
    {
      "midi": 61,
      "hit": false,
      "t": 147662.19000000015,
      "d": 1095.7781250000116,
      "v": 99
    },
    {
      "midi": 66,
      "hit": false,
      "t": 147662.19000000015,
      "d": 1095.7781250000116,
      "v": 103
    },
    {
      "midi": 61,
      "hit": false,
      "t": 148831.02000000016,
      "d": 706.1681249999965,
      "v": 99
    },
    {
      "midi": 66,
      "hit": false,
      "t": 148831.02000000016,
      "d": 706.1681249999965,
      "v": 101
    },
    {
      "midi": 69,
      "hit": false,
      "t": 148831.02000000016,
      "d": 706.1681249999965,
      "v": 98
    },
    {
      "midi": 59,
      "hit": false,
      "t": 149610.24000000017,
      "d": 1485.3881249999977,
      "v": 104
    },
    {
      "midi": 62,
      "hit": false,
      "t": 149610.24000000017,
      "d": 1485.3881249999977,
      "v": 101
    },
    {
      "midi": 66,
      "hit": false,
      "t": 149610.24000000017,
      "d": 1485.3881249999977,
      "v": 104
    },
    {
      "midi": 59,
      "hit": false,
      "t": 151558.29000000015,
      "d": 357.1424999999872,
      "v": 96
    },
    {
      "midi": 62,
      "hit": false,
      "t": 151558.29000000015,
      "d": 357.1424999999872,
      "v": 102
    },
    {
      "midi": 59,
      "hit": false,
      "t": 151947.90000000014,
      "d": 357.1424999999872,
      "v": 98
    },
    {
      "midi": 62,
      "hit": false,
      "t": 151947.90000000014,
      "d": 357.1424999999872,
      "v": 102
    },
    {
      "midi": 59,
      "hit": false,
      "t": 152337.51000000013,
      "d": 706.1681249999965,
      "v": 102
    },
    {
      "midi": 62,
      "hit": false,
      "t": 152337.51000000013,
      "d": 706.1681249999965,
      "v": 98
    },
    {
      "midi": 57,
      "hit": false,
      "t": 153116.73000000013,
      "d": 1095.7781250000116,
      "v": 104
    },
    {
      "midi": 61,
      "hit": false,
      "t": 153116.73000000013,
      "d": 1095.7781250000116,
      "v": 99
    },
    {
      "midi": 64,
      "hit": false,
      "t": 153116.73000000013,
      "d": 1095.7781250000116,
      "v": 103
    },
    {
      "midi": 57,
      "hit": false,
      "t": 154675.17000000013,
      "d": 357.1424999999872,
      "v": 96
    },
    {
      "midi": 69,
      "hit": false,
      "t": 155064.78000000012,
      "d": 357.1424999999872,
      "v": 96
    },
    {
      "midi": 57,
      "hit": false,
      "t": 155454.3900000001,
      "d": 2654.218125000014,
      "v": 100
    },
    {
      "midi": 61,
      "hit": false,
      "t": 155454.3900000001,
      "d": 2654.218125000014,
      "v": 102
    },
    {
      "midi": 66,
      "hit": false,
      "t": 155454.3900000001,
      "d": 2654.218125000014,
      "v": 97
    },
    {
      "midi": 57,
      "hit": false,
      "t": 158181.66000000012,
      "d": 357.1424999999872,
      "v": 103
    },
    {
      "midi": 61,
      "hit": false,
      "t": 158181.66000000012,
      "d": 357.1424999999872,
      "v": 102
    },
    {
      "midi": 66,
      "hit": false,
      "t": 158181.66000000012,
      "d": 357.1424999999872,
      "v": 102
    },
    {
      "midi": 57,
      "hit": false,
      "t": 158571.2700000001,
      "d": 1485.3881249999977,
      "v": 96
    },
    {
      "midi": 61,
      "hit": false,
      "t": 158571.2700000001,
      "d": 1485.3881249999977,
      "v": 104
    },
    {
      "midi": 64,
      "hit": false,
      "t": 158571.2700000001,
      "d": 1485.3881249999977,
      "v": 96
    },
    {
      "midi": 57,
      "hit": false,
      "t": 160129.7100000001,
      "d": 1095.7781250000116,
      "v": 97
    },
    {
      "midi": 61,
      "hit": false,
      "t": 160129.7100000001,
      "d": 1095.7781250000116,
      "v": 100
    },
    {
      "midi": 66,
      "hit": false,
      "t": 160129.7100000001,
      "d": 1095.7781250000116,
      "v": 102
    },
    {
      "midi": 61,
      "hit": false,
      "t": 161298.54000000012,
      "d": 706.1681249999965,
      "v": 97
    },
    {
      "midi": 66,
      "hit": false,
      "t": 161298.54000000012,
      "d": 706.1681249999965,
      "v": 100
    },
    {
      "midi": 69,
      "hit": false,
      "t": 161298.54000000012,
      "d": 706.1681249999965,
      "v": 98
    },
    {
      "midi": 59,
      "hit": false,
      "t": 162077.76000000013,
      "d": 1485.3881249999977,
      "v": 96
    },
    {
      "midi": 62,
      "hit": false,
      "t": 162077.76000000013,
      "d": 1485.3881249999977,
      "v": 103
    },
    {
      "midi": 66,
      "hit": false,
      "t": 162077.76000000013,
      "d": 1485.3881249999977,
      "v": 97
    },
    {
      "midi": 59,
      "hit": false,
      "t": 164025.8100000001,
      "d": 357.1424999999872,
      "v": 104
    },
    {
      "midi": 62,
      "hit": false,
      "t": 164025.8100000001,
      "d": 357.1424999999872,
      "v": 105
    },
    {
      "midi": 59,
      "hit": false,
      "t": 164415.4200000001,
      "d": 357.1424999999872,
      "v": 105
    },
    {
      "midi": 62,
      "hit": false,
      "t": 164415.4200000001,
      "d": 357.1424999999872,
      "v": 104
    },
    {
      "midi": 59,
      "hit": false,
      "t": 164805.0300000001,
      "d": 706.1681249999965,
      "v": 103
    },
    {
      "midi": 62,
      "hit": false,
      "t": 164805.0300000001,
      "d": 706.1681249999965,
      "v": 102
    },
    {
      "midi": 57,
      "hit": false,
      "t": 165584.2500000001,
      "d": 1095.7781250000116,
      "v": 97
    },
    {
      "midi": 61,
      "hit": false,
      "t": 165584.2500000001,
      "d": 1095.7781250000116,
      "v": 102
    },
    {
      "midi": 64,
      "hit": false,
      "t": 165584.2500000001,
      "d": 1095.7781250000116,
      "v": 96
    },
    {
      "midi": 61,
      "hit": false,
      "t": 166753.0800000001,
      "d": 357.1424999999872,
      "v": 99
    },
    {
      "midi": 64,
      "hit": false,
      "t": 167142.6900000001,
      "d": 357.1424999999872,
      "v": 97
    },
    {
      "midi": 69,
      "hit": false,
      "t": 167532.30000000008,
      "d": 357.1424999999872,
      "v": 103
    },
    {
      "midi": 57,
      "hit": false,
      "t": 167921.91000000006,
      "d": 1874.9981250000128,
      "v": 105
    },
    {
      "midi": 61,
      "hit": false,
      "t": 167921.91000000006,
      "d": 1874.9981250000128,
      "v": 102
    },
    {
      "midi": 66,
      "hit": false,
      "t": 167921.91000000006,
      "d": 1874.9981250000128,
      "v": 100
    },
    {
      "midi": 57,
      "hit": false,
      "t": 170259.57000000007,
      "d": 357.1424999999872,
      "v": 96
    },
    {
      "midi": 62,
      "hit": false,
      "t": 170649.18000000005,
      "d": 357.1424999999872,
      "v": 101
    },
    {
      "midi": 57,
      "hit": false,
      "t": 171038.79000000004,
      "d": 706.1681249999965,
      "v": 105
    },
    {
      "midi": 61,
      "hit": false,
      "t": 171038.79000000004,
      "d": 706.1681249999965,
      "v": 99
    },
    {
      "midi": 64,
      "hit": false,
      "t": 171038.79000000004,
      "d": 706.1681249999965,
      "v": 101
    },
    {
      "midi": 57,
      "hit": false,
      "t": 171818.01000000004,
      "d": 1095.7781250000116,
      "v": 105
    },
    {
      "midi": 61,
      "hit": false,
      "t": 171818.01000000004,
      "d": 1095.7781250000116,
      "v": 96
    },
    {
      "midi": 66,
      "hit": false,
      "t": 171818.01000000004,
      "d": 1095.7781250000116,
      "v": 101
    },
    {
      "midi": 57,
      "hit": false,
      "t": 173376.45000000004,
      "d": 357.1424999999872,
      "v": 96
    },
    {
      "midi": 57,
      "hit": false,
      "t": 173766.06000000003,
      "d": 357.1424999999872,
      "v": 102
    },
    {
      "midi": 61,
      "hit": false,
      "t": 173766.06000000003,
      "d": 357.1424999999872,
      "v": 98
    },
    {
      "midi": 64,
      "hit": false,
      "t": 173766.06000000003,
      "d": 357.1424999999872,
      "v": 105
    },
    {
      "midi": 55,
      "hit": false,
      "t": 174155.67,
      "d": 1095.7781250000116,
      "v": 103
    },
    {
      "midi": 59,
      "hit": false,
      "t": 174155.67,
      "d": 1095.7781250000116,
      "v": 99
    },
    {
      "midi": 62,
      "hit": false,
      "t": 174155.67,
      "d": 1095.7781250000116,
      "v": 98
    },
    {
      "midi": 59,
      "hit": false,
      "t": 175324.50000000003,
      "d": 1485.3881249999977,
      "v": 97
    },
    {
      "midi": 62,
      "hit": false,
      "t": 175324.50000000003,
      "d": 1485.3881249999977,
      "v": 103
    },
    {
      "midi": 67,
      "hit": false,
      "t": 175324.50000000003,
      "d": 1485.3881249999977,
      "v": 96
    },
    {
      "midi": 55,
      "hit": false,
      "t": 176882.94000000003,
      "d": 357.1424999999872,
      "v": 103
    },
    {
      "midi": 59,
      "hit": false,
      "t": 176882.94000000003,
      "d": 357.1424999999872,
      "v": 105
    },
    {
      "midi": 62,
      "hit": false,
      "t": 176882.94000000003,
      "d": 357.1424999999872,
      "v": 103
    },
    {
      "midi": 55,
      "hit": false,
      "t": 177272.55000000002,
      "d": 706.1681249999965,
      "v": 100
    },
    {
      "midi": 59,
      "hit": false,
      "t": 177272.55000000002,
      "d": 706.1681249999965,
      "v": 97
    },
    {
      "midi": 62,
      "hit": false,
      "t": 177272.55000000002,
      "d": 706.1681249999965,
      "v": 99
    },
    {
      "midi": 57,
      "hit": false,
      "t": 178051.77000000002,
      "d": 1095.7781250000116,
      "v": 103
    },
    {
      "midi": 61,
      "hit": false,
      "t": 178051.77000000002,
      "d": 1095.7781250000116,
      "v": 105
    },
    {
      "midi": 64,
      "hit": false,
      "t": 178051.77000000002,
      "d": 1095.7781250000116,
      "v": 97
    },
    {
      "midi": 57,
      "hit": false,
      "t": 179220.60000000003,
      "d": 357.1424999999872,
      "v": 105
    },
    {
      "midi": 61,
      "hit": false,
      "t": 179220.60000000003,
      "d": 357.1424999999872,
      "v": 105
    },
    {
      "midi": 64,
      "hit": false,
      "t": 179220.60000000003,
      "d": 357.1424999999872,
      "v": 96
    },
    {
      "midi": 57,
      "hit": false,
      "t": 179610.21000000002,
      "d": 357.1424999999872,
      "v": 100
    },
    {
      "midi": 69,
      "hit": false,
      "t": 179999.82,
      "d": 357.1424999999872,
      "v": 104
    },
    {
      "midi": 57,
      "hit": false,
      "t": 180389.43,
      "d": 2654.218125000014,
      "v": 97
    },
    {
      "midi": 61,
      "hit": false,
      "t": 180389.43,
      "d": 2654.218125000014,
      "v": 97
    },
    {
      "midi": 64,
      "hit": false,
      "t": 180389.43,
      "d": 2654.218125000014,
      "v": 105
    },
    {
      "midi": 57,
      "hit": false,
      "t": 183116.7,
      "d": 357.1424999999872,
      "v": 98
    },
    {
      "midi": 61,
      "hit": false,
      "t": 183116.7,
      "d": 357.1424999999872,
      "v": 102
    },
    {
      "midi": 66,
      "hit": false,
      "t": 183116.7,
      "d": 357.1424999999872,
      "v": 97
    },
    {
      "midi": 57,
      "hit": false,
      "t": 183506.31,
      "d": 1485.3881249999977,
      "v": 99
    },
    {
      "midi": 61,
      "hit": false,
      "t": 183506.31,
      "d": 1485.3881249999977,
      "v": 104
    },
    {
      "midi": 64,
      "hit": false,
      "t": 183506.31,
      "d": 1485.3881249999977,
      "v": 105
    },
    {
      "midi": 57,
      "hit": false,
      "t": 185064.75,
      "d": 1095.7781250000116,
      "v": 102
    },
    {
      "midi": 61,
      "hit": false,
      "t": 185064.75,
      "d": 1095.7781250000116,
      "v": 100
    },
    {
      "midi": 66,
      "hit": false,
      "t": 185064.75,
      "d": 1095.7781250000116,
      "v": 100
    },
    {
      "midi": 57,
      "hit": false,
      "t": 186233.58000000002,
      "d": 357.1424999999872,
      "v": 100
    },
    {
      "midi": 61,
      "hit": false,
      "t": 186233.58000000002,
      "d": 357.1424999999872,
      "v": 99
    },
    {
      "midi": 64,
      "hit": false,
      "t": 186233.58000000002,
      "d": 357.1424999999872,
      "v": 98
    },
    {
      "midi": 55,
      "hit": false,
      "t": 186623.19,
      "d": 1095.7781250000116,
      "v": 98
    },
    {
      "midi": 59,
      "hit": false,
      "t": 186623.19,
      "d": 1095.7781250000116,
      "v": 101
    },
    {
      "midi": 62,
      "hit": false,
      "t": 186623.19,
      "d": 1095.7781250000116,
      "v": 100
    },
    {
      "midi": 55,
      "hit": false,
      "t": 187792.02000000002,
      "d": 1485.3881249999977,
      "v": 101
    },
    {
      "midi": 59,
      "hit": false,
      "t": 187792.02000000002,
      "d": 1485.3881249999977,
      "v": 104
    },
    {
      "midi": 62,
      "hit": false,
      "t": 187792.02000000002,
      "d": 1485.3881249999977,
      "v": 99
    },
    {
      "midi": 55,
      "hit": false,
      "t": 189740.07,
      "d": 706.1681249999965,
      "v": 102
    },
    {
      "midi": 59,
      "hit": false,
      "t": 189740.07,
      "d": 706.1681249999965,
      "v": 102
    },
    {
      "midi": 62,
      "hit": false,
      "t": 189740.07,
      "d": 706.1681249999965,
      "v": 96
    },
    {
      "midi": 57,
      "hit": false,
      "t": 190519.29,
      "d": 2654.218125000014,
      "v": 97
    },
    {
      "midi": 61,
      "hit": false,
      "t": 190519.29,
      "d": 2654.218125000014,
      "v": 102
    },
    {
      "midi": 64,
      "hit": false,
      "t": 190519.29,
      "d": 2654.218125000014,
      "v": 100
    },
    {
      "midi": 45,
      "hit": false,
      "t": 193246.56000000003,
      "d": 1095.7781250000116,
      "v": 101
    },
    {
      "midi": 61,
      "hit": false,
      "t": 193246.56000000003,
      "d": 1095.7781250000116,
      "v": 99
    },
    {
      "midi": 64,
      "hit": false,
      "t": 193246.56000000003,
      "d": 1095.7781250000116,
      "v": 96
    },
    {
      "midi": 69,
      "hit": false,
      "t": 193246.56000000003,
      "d": 1095.7781250000116,
      "v": 103
    },
    {
      "midi": 45,
      "hit": false,
      "t": 194415.39000000004,
      "d": 357.1424999999872,
      "v": 102
    },
    {
      "midi": 61,
      "hit": false,
      "t": 194415.39000000004,
      "d": 357.1424999999872,
      "v": 97
    },
    {
      "midi": 64,
      "hit": false,
      "t": 194415.39000000004,
      "d": 357.1424999999872,
      "v": 101
    },
    {
      "midi": 69,
      "hit": false,
      "t": 194415.39000000004,
      "d": 357.1424999999872,
      "v": 103
    },
    {
      "midi": 45,
      "hit": false,
      "t": 194805.00000000003,
      "d": 1095.7781250000116,
      "v": 105
    },
    {
      "midi": 61,
      "hit": false,
      "t": 194805.00000000003,
      "d": 1095.7781250000116,
      "v": 100
    },
    {
      "midi": 64,
      "hit": false,
      "t": 194805.00000000003,
      "d": 1095.7781250000116,
      "v": 97
    },
    {
      "midi": 69,
      "hit": false,
      "t": 194805.00000000003,
      "d": 1095.7781250000116,
      "v": 96
    },
    {
      "midi": 45,
      "hit": false,
      "t": 195973.83000000005,
      "d": 357.1424999999872,
      "v": 99
    },
    {
      "midi": 61,
      "hit": false,
      "t": 195973.83000000005,
      "d": 357.1424999999872,
      "v": 105
    },
    {
      "midi": 64,
      "hit": false,
      "t": 195973.83000000005,
      "d": 357.1424999999872,
      "v": 98
    },
    {
      "midi": 69,
      "hit": false,
      "t": 195973.83000000005,
      "d": 357.1424999999872,
      "v": 99
    },
    {
      "midi": 45,
      "hit": false,
      "t": 196363.44000000003,
      "d": 1095.7781250000116,
      "v": 105
    },
    {
      "midi": 61,
      "hit": false,
      "t": 196363.44000000003,
      "d": 1095.7781250000116,
      "v": 104
    },
    {
      "midi": 64,
      "hit": false,
      "t": 196363.44000000003,
      "d": 1095.7781250000116,
      "v": 97
    },
    {
      "midi": 69,
      "hit": false,
      "t": 196363.44000000003,
      "d": 1095.7781250000116,
      "v": 103
    },
    {
      "midi": 45,
      "hit": false,
      "t": 197532.27000000005,
      "d": 357.1424999999872,
      "v": 103
    },
    {
      "midi": 61,
      "hit": false,
      "t": 197532.27000000005,
      "d": 357.1424999999872,
      "v": 102
    },
    {
      "midi": 64,
      "hit": false,
      "t": 197532.27000000005,
      "d": 357.1424999999872,
      "v": 100
    },
    {
      "midi": 69,
      "hit": false,
      "t": 197532.27000000005,
      "d": 357.1424999999872,
      "v": 100
    },
    {
      "midi": 45,
      "hit": false,
      "t": 197921.88000000003,
      "d": 1095.7781250000116,
      "v": 102
    },
    {
      "midi": 61,
      "hit": false,
      "t": 197921.88000000003,
      "d": 1095.7781250000116,
      "v": 104
    },
    {
      "midi": 64,
      "hit": false,
      "t": 197921.88000000003,
      "d": 1095.7781250000116,
      "v": 102
    },
    {
      "midi": 69,
      "hit": false,
      "t": 197921.88000000003,
      "d": 1095.7781250000116,
      "v": 96
    },
    {
      "midi": 45,
      "hit": false,
      "t": 199090.71000000005,
      "d": 357.1424999999872,
      "v": 100
    },
    {
      "midi": 61,
      "hit": false,
      "t": 199090.71000000005,
      "d": 357.1424999999872,
      "v": 101
    },
    {
      "midi": 64,
      "hit": false,
      "t": 199090.71000000005,
      "d": 357.1424999999872,
      "v": 105
    },
    {
      "midi": 69,
      "hit": false,
      "t": 199090.71000000005,
      "d": 357.1424999999872,
      "v": 103
    },
    {
      "midi": 45,
      "hit": false,
      "t": 199480.32000000004,
      "d": 1095.7781250000116,
      "v": 105
    },
    {
      "midi": 57,
      "hit": false,
      "t": 199480.32000000004,
      "d": 2654.218125000014,
      "v": 96
    },
    {
      "midi": 61,
      "hit": false,
      "t": 199480.32000000004,
      "d": 2654.218125000014,
      "v": 97
    },
    {
      "midi": 66,
      "hit": false,
      "t": 199480.32000000004,
      "d": 2654.218125000014,
      "v": 99
    },
    {
      "midi": 45,
      "hit": false,
      "t": 200649.15000000005,
      "d": 357.1424999999872,
      "v": 98
    },
    {
      "midi": 45,
      "hit": false,
      "t": 201038.76000000004,
      "d": 1095.7781250000116,
      "v": 100
    },
    {
      "midi": 45,
      "hit": false,
      "t": 202207.59000000005,
      "d": 357.1424999999872,
      "v": 98
    },
    {
      "midi": 57,
      "hit": false,
      "t": 202207.59000000005,
      "d": 706.1681249999965,
      "v": 100
    },
    {
      "midi": 61,
      "hit": false,
      "t": 202207.59000000005,
      "d": 706.1681249999965,
      "v": 99
    },
    {
      "midi": 64,
      "hit": false,
      "t": 202207.59000000005,
      "d": 706.1681249999965,
      "v": 98
    },
    {
      "midi": 45,
      "hit": false,
      "t": 202597.20000000004,
      "d": 1095.7781250000116,
      "v": 104
    },
    {
      "midi": 57,
      "hit": false,
      "t": 202986.81000000006,
      "d": 1874.9981249999837,
      "v": 102
    },
    {
      "midi": 45,
      "hit": false,
      "t": 203766.03000000006,
      "d": 357.1424999999872,
      "v": 97
    },
    {
      "midi": 45,
      "hit": false,
      "t": 204155.64000000004,
      "d": 1095.7781250000116,
      "v": 105
    },
    {
      "midi": 57,
      "hit": false,
      "t": 204934.86000000004,
      "d": 357.1425000000163,
      "v": 105
    },
    {
      "midi": 61,
      "hit": false,
      "t": 204934.86000000004,
      "d": 357.1425000000163,
      "v": 99
    },
    {
      "midi": 66,
      "hit": false,
      "t": 204934.86000000004,
      "d": 357.1425000000163,
      "v": 104
    },
    {
      "midi": 45,
      "hit": false,
      "t": 205324.47000000006,
      "d": 357.1424999999872,
      "v": 99
    },
    {
      "midi": 57,
      "hit": false,
      "t": 205324.47000000006,
      "d": 1095.7781249999825,
      "v": 102
    },
    {
      "midi": 61,
      "hit": false,
      "t": 205324.47000000006,
      "d": 1095.7781249999825,
      "v": 105
    },
    {
      "midi": 64,
      "hit": false,
      "t": 205324.47000000006,
      "d": 1095.7781249999825,
      "v": 97
    },
    {
      "midi": 45,
      "hit": false,
      "t": 205714.08000000005,
      "d": 1095.7781250000116,
      "v": 96
    },
    {
      "midi": 57,
      "hit": false,
      "t": 206493.30000000005,
      "d": 1485.3881249999977,
      "v": 102
    },
    {
      "midi": 61,
      "hit": false,
      "t": 206493.30000000005,
      "d": 1485.3881249999977,
      "v": 102
    },
    {
      "midi": 66,
      "hit": false,
      "t": 206493.30000000005,
      "d": 1485.3881249999977,
      "v": 96
    },
    {
      "midi": 45,
      "hit": false,
      "t": 206882.91000000006,
      "d": 357.1424999999872,
      "v": 100
    },
    {
      "midi": 45,
      "hit": false,
      "t": 207272.52000000005,
      "d": 1095.7781250000116,
      "v": 105
    },
    {
      "midi": 57,
      "hit": false,
      "t": 208051.74000000005,
      "d": 357.1425000000163,
      "v": 98
    },
    {
      "midi": 61,
      "hit": false,
      "t": 208051.74000000005,
      "d": 357.1425000000163,
      "v": 103
    },
    {
      "midi": 66,
      "hit": false,
      "t": 208051.74000000005,
      "d": 357.1425000000163,
      "v": 100
    },
    {
      "midi": 45,
      "hit": false,
      "t": 208441.35000000006,
      "d": 357.1424999999872,
      "v": 100
    },
    {
      "midi": 57,
      "hit": false,
      "t": 208441.35000000006,
      "d": 1485.3881249999977,
      "v": 102
    },
    {
      "midi": 61,
      "hit": false,
      "t": 208441.35000000006,
      "d": 1485.3881249999977,
      "v": 102
    },
    {
      "midi": 64,
      "hit": false,
      "t": 208441.35000000006,
      "d": 1485.3881249999977,
      "v": 96
    },
    {
      "midi": 45,
      "hit": false,
      "t": 208830.96000000005,
      "d": 1095.7781250000116,
      "v": 99
    },
    {
      "midi": 45,
      "hit": false,
      "t": 209999.79000000007,
      "d": 357.1424999999872,
      "v": 104
    },
    {
      "midi": 57,
      "hit": false,
      "t": 209999.79000000007,
      "d": 1874.9981250000128,
      "v": 105
    },
    {
      "midi": 61,
      "hit": false,
      "t": 209999.79000000007,
      "d": 1874.9981250000128,
      "v": 105
    },
    {
      "midi": 66,
      "hit": false,
      "t": 209999.79000000007,
      "d": 1874.9981250000128,
      "v": 104
    },
    {
      "midi": 45,
      "hit": false,
      "t": 210389.40000000005,
      "d": 1095.7781250000116,
      "v": 103
    },
    {
      "midi": 45,
      "hit": false,
      "t": 211558.23000000007,
      "d": 357.1425000000163,
      "v": 96
    },
    {
      "midi": 43,
      "hit": false,
      "t": 211947.84000000008,
      "d": 1095.7781250000116,
      "v": 99
    },
    {
      "midi": 55,
      "hit": false,
      "t": 212727.06000000008,
      "d": 706.1681250000256,
      "v": 99
    },
    {
      "midi": 59,
      "hit": false,
      "t": 212727.06000000008,
      "d": 706.1681250000256,
      "v": 97
    },
    {
      "midi": 62,
      "hit": false,
      "t": 212727.06000000008,
      "d": 706.1681250000256,
      "v": 99
    },
    {
      "midi": 43,
      "hit": false,
      "t": 213116.6700000001,
      "d": 357.1425000000163,
      "v": 103
    },
    {
      "midi": 55,
      "hit": false,
      "t": 213506.28000000012,
      "d": 706.1681249999965,
      "v": 104
    },
    {
      "midi": 59,
      "hit": false,
      "t": 213506.28000000012,
      "d": 706.1681249999965,
      "v": 103
    },
    {
      "midi": 62,
      "hit": false,
      "t": 213506.28000000012,
      "d": 706.1681249999965,
      "v": 96
    },
    {
      "midi": 43,
      "hit": false,
      "t": 213506.28000000012,
      "d": 1095.7781250000116,
      "v": 97
    },
    {
      "midi": 55,
      "hit": false,
      "t": 214285.50000000012,
      "d": 706.1681250000256,
      "v": 104
    },
    {
      "midi": 59,
      "hit": false,
      "t": 214285.50000000012,
      "d": 706.1681250000256,
      "v": 97
    },
    {
      "midi": 62,
      "hit": false,
      "t": 214285.50000000012,
      "d": 706.1681250000256,
      "v": 99
    },
    {
      "midi": 43,
      "hit": false,
      "t": 214675.11000000013,
      "d": 357.1425000000163,
      "v": 97
    },
    {
      "midi": 57,
      "hit": false,
      "t": 215064.72000000015,
      "d": 706.1681249999965,
      "v": 104
    },
    {
      "midi": 61,
      "hit": false,
      "t": 215064.72000000015,
      "d": 706.1681249999965,
      "v": 102
    },
    {
      "midi": 64,
      "hit": false,
      "t": 215064.72000000015,
      "d": 706.1681249999965,
      "v": 101
    },
    {
      "midi": 45,
      "hit": false,
      "t": 215064.72000000015,
      "d": 1095.7781250000116,
      "v": 97
    },
    {
      "midi": 57,
      "hit": false,
      "t": 215843.94000000015,
      "d": 357.1425000000163,
      "v": 104
    },
    {
      "midi": 45,
      "hit": false,
      "t": 216233.55000000016,
      "d": 357.1424999999872,
      "v": 99
    },
    {
      "midi": 59,
      "hit": false,
      "t": 216233.55000000016,
      "d": 706.1681249999965,
      "v": 98
    },
    {
      "midi": 64,
      "hit": false,
      "t": 216233.55000000016,
      "d": 706.1681249999965,
      "v": 105
    },
    {
      "midi": 45,
      "hit": false,
      "t": 216623.16000000015,
      "d": 1095.7781250000116,
      "v": 104
    },
    {
      "midi": 52,
      "hit": false,
      "t": 217012.77000000016,
      "d": 357.1424999999872,
      "v": 98
    },
    {
      "midi": 57,
      "hit": false,
      "t": 217402.38000000015,
      "d": 357.1425000000163,
      "v": 104
    },
    {
      "midi": 45,
      "hit": false,
      "t": 217791.99000000017,
      "d": 357.1424999999872,
      "v": 97
    },
    {
      "midi": 55,
      "hit": false,
      "t": 217791.99000000017,
      "d": 1095.7781249999825,
      "v": 100
    },
    {
      "midi": 43,
      "hit": false,
      "t": 218181.60000000015,
      "d": 1095.7781250000116,
      "v": 99
    },
    {
      "midi": 59,
      "hit": false,
      "t": 218960.82000000015,
      "d": 357.1425000000163,
      "v": 97
    },
    {
      "midi": 62,
      "hit": false,
      "t": 218960.82000000015,
      "d": 357.1425000000163,
      "v": 96
    },
    {
      "midi": 66,
      "hit": false,
      "t": 218960.82000000015,
      "d": 357.1425000000163,
      "v": 100
    },
    {
      "midi": 43,
      "hit": false,
      "t": 219350.43000000017,
      "d": 357.1424999999872,
      "v": 99
    },
    {
      "midi": 59,
      "hit": false,
      "t": 219350.43000000017,
      "d": 357.1424999999872,
      "v": 102
    },
    {
      "midi": 62,
      "hit": false,
      "t": 219350.43000000017,
      "d": 357.1424999999872,
      "v": 100
    },
    {
      "midi": 66,
      "hit": false,
      "t": 219350.43000000017,
      "d": 357.1424999999872,
      "v": 102
    },
    {
      "midi": 59,
      "hit": false,
      "t": 219740.04000000015,
      "d": 706.1681249999965,
      "v": 105
    },
    {
      "midi": 62,
      "hit": false,
      "t": 219740.04000000015,
      "d": 706.1681249999965,
      "v": 99
    },
    {
      "midi": 66,
      "hit": false,
      "t": 219740.04000000015,
      "d": 706.1681249999965,
      "v": 100
    },
    {
      "midi": 43,
      "hit": false,
      "t": 219740.04000000015,
      "d": 1095.7781250000116,
      "v": 103
    },
    {
      "midi": 59,
      "hit": false,
      "t": 220519.26000000015,
      "d": 357.1425000000163,
      "v": 97
    },
    {
      "midi": 62,
      "hit": false,
      "t": 220519.26000000015,
      "d": 357.1425000000163,
      "v": 101
    },
    {
      "midi": 66,
      "hit": false,
      "t": 220519.26000000015,
      "d": 357.1425000000163,
      "v": 102
    },
    {
      "midi": 43,
      "hit": false,
      "t": 220908.87000000017,
      "d": 357.1424999999872,
      "v": 99
    },
    {
      "midi": 59,
      "hit": false,
      "t": 220908.87000000017,
      "d": 357.1424999999872,
      "v": 97
    },
    {
      "midi": 62,
      "hit": false,
      "t": 220908.87000000017,
      "d": 357.1424999999872,
      "v": 98
    },
    {
      "midi": 66,
      "hit": false,
      "t": 220908.87000000017,
      "d": 357.1424999999872,
      "v": 97
    },
    {
      "midi": 59,
      "hit": false,
      "t": 221298.48000000016,
      "d": 706.1681249999965,
      "v": 99
    },
    {
      "midi": 62,
      "hit": false,
      "t": 221298.48000000016,
      "d": 706.1681249999965,
      "v": 105
    },
    {
      "midi": 66,
      "hit": false,
      "t": 221298.48000000016,
      "d": 706.1681249999965,
      "v": 99
    },
    {
      "midi": 43,
      "hit": false,
      "t": 221298.48000000016,
      "d": 1095.7781250000116,
      "v": 98
    },
    {
      "midi": 62,
      "hit": false,
      "t": 222077.70000000016,
      "d": 706.1681250000256,
      "v": 101
    },
    {
      "midi": 66,
      "hit": false,
      "t": 222077.70000000016,
      "d": 706.1681250000256,
      "v": 96
    },
    {
      "midi": 71,
      "hit": false,
      "t": 222077.70000000016,
      "d": 706.1681250000256,
      "v": 105
    },
    {
      "midi": 43,
      "hit": false,
      "t": 222467.31000000017,
      "d": 357.1425000000163,
      "v": 105
    },
    {
      "midi": 50,
      "hit": false,
      "t": 222856.9200000002,
      "d": 706.1681249999965,
      "v": 97
    },
    {
      "midi": 62,
      "hit": false,
      "t": 222856.9200000002,
      "d": 706.1681249999965,
      "v": 96
    },
    {
      "midi": 74,
      "hit": false,
      "t": 222856.9200000002,
      "d": 706.1681249999965,
      "v": 103
    },
    {
      "midi": 52,
      "hit": false,
      "t": 223636.1400000002,
      "d": 706.1681249999965,
      "v": 101
    },
    {
      "midi": 64,
      "hit": false,
      "t": 223636.1400000002,
      "d": 706.1681249999965,
      "v": 101
    },
    {
      "midi": 76,
      "hit": false,
      "t": 223636.1400000002,
      "d": 706.1681249999965,
      "v": 98
    },
    {
      "midi": 45,
      "hit": false,
      "t": 224415.3600000002,
      "d": 1095.7781250000116,
      "v": 102
    },
    {
      "midi": 57,
      "hit": false,
      "t": 224415.3600000002,
      "d": 2654.218125000014,
      "v": 104
    },
    {
      "midi": 61,
      "hit": false,
      "t": 224415.3600000002,
      "d": 2654.218125000014,
      "v": 105
    },
    {
      "midi": 66,
      "hit": false,
      "t": 224415.3600000002,
      "d": 2654.218125000014,
      "v": 104
    },
    {
      "midi": 45,
      "hit": false,
      "t": 225584.1900000002,
      "d": 357.1424999999872,
      "v": 100
    },
    {
      "midi": 45,
      "hit": false,
      "t": 225973.8000000002,
      "d": 1095.7781250000116,
      "v": 100
    },
    {
      "midi": 45,
      "hit": false,
      "t": 227142.6300000002,
      "d": 357.1424999999872,
      "v": 99
    },
    {
      "midi": 57,
      "hit": false,
      "t": 227142.6300000002,
      "d": 706.1681249999965,
      "v": 98
    },
    {
      "midi": 61,
      "hit": false,
      "t": 227142.6300000002,
      "d": 706.1681249999965,
      "v": 99
    },
    {
      "midi": 64,
      "hit": false,
      "t": 227142.6300000002,
      "d": 706.1681249999965,
      "v": 102
    },
    {
      "midi": 45,
      "hit": false,
      "t": 227532.2400000002,
      "d": 1095.7781250000116,
      "v": 105
    },
    {
      "midi": 57,
      "hit": false,
      "t": 227921.8500000002,
      "d": 1874.9981249999837,
      "v": 97
    },
    {
      "midi": 45,
      "hit": false,
      "t": 228701.0700000002,
      "d": 357.1424999999872,
      "v": 96
    },
    {
      "midi": 45,
      "hit": false,
      "t": 229090.6800000002,
      "d": 1095.7781250000116,
      "v": 105
    },
    {
      "midi": 57,
      "hit": false,
      "t": 229869.9000000002,
      "d": 357.1425000000163,
      "v": 105
    },
    {
      "midi": 61,
      "hit": false,
      "t": 229869.9000000002,
      "d": 357.1425000000163,
      "v": 97
    },
    {
      "midi": 66,
      "hit": false,
      "t": 229869.9000000002,
      "d": 357.1425000000163,
      "v": 102
    },
    {
      "midi": 45,
      "hit": false,
      "t": 230259.5100000002,
      "d": 357.1424999999872,
      "v": 96
    },
    {
      "midi": 57,
      "hit": false,
      "t": 230259.5100000002,
      "d": 1095.7781249999825,
      "v": 99
    },
    {
      "midi": 61,
      "hit": false,
      "t": 230259.5100000002,
      "d": 1095.7781249999825,
      "v": 103
    },
    {
      "midi": 64,
      "hit": false,
      "t": 230259.5100000002,
      "d": 1095.7781249999825,
      "v": 96
    },
    {
      "midi": 45,
      "hit": false,
      "t": 230649.1200000002,
      "d": 1095.7781250000116,
      "v": 96
    },
    {
      "midi": 57,
      "hit": false,
      "t": 231428.3400000002,
      "d": 1485.3881249999977,
      "v": 104
    },
    {
      "midi": 61,
      "hit": false,
      "t": 231428.3400000002,
      "d": 1485.3881249999977,
      "v": 96
    },
    {
      "midi": 66,
      "hit": false,
      "t": 231428.3400000002,
      "d": 1485.3881249999977,
      "v": 104
    },
    {
      "midi": 45,
      "hit": false,
      "t": 231817.95000000022,
      "d": 357.1424999999872,
      "v": 97
    },
    {
      "midi": 45,
      "hit": false,
      "t": 232207.5600000002,
      "d": 1095.7781250000116,
      "v": 99
    },
    {
      "midi": 57,
      "hit": false,
      "t": 232986.7800000002,
      "d": 357.1425000000163,
      "v": 96
    },
    {
      "midi": 61,
      "hit": false,
      "t": 232986.7800000002,
      "d": 357.1425000000163,
      "v": 103
    },
    {
      "midi": 66,
      "hit": false,
      "t": 232986.7800000002,
      "d": 357.1425000000163,
      "v": 104
    },
    {
      "midi": 45,
      "hit": false,
      "t": 233376.39000000022,
      "d": 357.1424999999872,
      "v": 98
    },
    {
      "midi": 57,
      "hit": false,
      "t": 233376.39000000022,
      "d": 1485.3881249999977,
      "v": 100
    },
    {
      "midi": 61,
      "hit": false,
      "t": 233376.39000000022,
      "d": 1485.3881249999977,
      "v": 96
    },
    {
      "midi": 64,
      "hit": false,
      "t": 233376.39000000022,
      "d": 1485.3881249999977,
      "v": 101
    },
    {
      "midi": 45,
      "hit": false,
      "t": 233766.0000000002,
      "d": 1095.7781250000116,
      "v": 98
    },
    {
      "midi": 45,
      "hit": false,
      "t": 234934.83000000022,
      "d": 357.1424999999872,
      "v": 104
    },
    {
      "midi": 57,
      "hit": false,
      "t": 234934.83000000022,
      "d": 1874.9981250000128,
      "v": 103
    },
    {
      "midi": 61,
      "hit": false,
      "t": 234934.83000000022,
      "d": 1874.9981250000128,
      "v": 97
    },
    {
      "midi": 66,
      "hit": false,
      "t": 234934.83000000022,
      "d": 1874.9981250000128,
      "v": 96
    },
    {
      "midi": 45,
      "hit": false,
      "t": 235324.4400000002,
      "d": 1095.7781250000116,
      "v": 100
    },
    {
      "midi": 45,
      "hit": false,
      "t": 236493.27000000022,
      "d": 357.1425000000163,
      "v": 103
    },
    {
      "midi": 43,
      "hit": false,
      "t": 236882.88000000024,
      "d": 1095.7781250000116,
      "v": 103
    },
    {
      "midi": 55,
      "hit": false,
      "t": 237662.10000000024,
      "d": 706.1681250000256,
      "v": 96
    },
    {
      "midi": 59,
      "hit": false,
      "t": 237662.10000000024,
      "d": 706.1681250000256,
      "v": 105
    },
    {
      "midi": 62,
      "hit": false,
      "t": 237662.10000000024,
      "d": 706.1681250000256,
      "v": 103
    },
    {
      "midi": 43,
      "hit": false,
      "t": 238051.71000000025,
      "d": 357.1425000000163,
      "v": 98
    },
    {
      "midi": 55,
      "hit": false,
      "t": 238441.32000000027,
      "d": 706.1681249999965,
      "v": 100
    },
    {
      "midi": 59,
      "hit": false,
      "t": 238441.32000000027,
      "d": 706.1681249999965,
      "v": 96
    },
    {
      "midi": 62,
      "hit": false,
      "t": 238441.32000000027,
      "d": 706.1681249999965,
      "v": 96
    },
    {
      "midi": 43,
      "hit": false,
      "t": 238441.32000000027,
      "d": 1095.7781250000116,
      "v": 97
    },
    {
      "midi": 55,
      "hit": false,
      "t": 239220.54000000027,
      "d": 706.1681250000256,
      "v": 99
    },
    {
      "midi": 59,
      "hit": false,
      "t": 239220.54000000027,
      "d": 706.1681250000256,
      "v": 105
    },
    {
      "midi": 62,
      "hit": false,
      "t": 239220.54000000027,
      "d": 706.1681250000256,
      "v": 98
    },
    {
      "midi": 43,
      "hit": false,
      "t": 239610.15000000029,
      "d": 357.1425000000163,
      "v": 104
    },
    {
      "midi": 57,
      "hit": false,
      "t": 239999.7600000003,
      "d": 706.1681249999965,
      "v": 97
    },
    {
      "midi": 61,
      "hit": false,
      "t": 239999.7600000003,
      "d": 706.1681249999965,
      "v": 104
    },
    {
      "midi": 64,
      "hit": false,
      "t": 239999.7600000003,
      "d": 706.1681249999965,
      "v": 105
    },
    {
      "midi": 45,
      "hit": false,
      "t": 239999.7600000003,
      "d": 1095.7781250000116,
      "v": 101
    },
    {
      "midi": 57,
      "hit": false,
      "t": 240778.9800000003,
      "d": 357.1425000000163,
      "v": 101
    },
    {
      "midi": 45,
      "hit": false,
      "t": 241168.59000000032,
      "d": 357.1424999999872,
      "v": 99
    },
    {
      "midi": 59,
      "hit": false,
      "t": 241168.59000000032,
      "d": 706.1681249999965,
      "v": 97
    },
    {
      "midi": 64,
      "hit": false,
      "t": 241168.59000000032,
      "d": 706.1681249999965,
      "v": 98
    },
    {
      "midi": 45,
      "hit": false,
      "t": 241558.2000000003,
      "d": 1095.7781250000116,
      "v": 96
    },
    {
      "midi": 52,
      "hit": false,
      "t": 241947.81000000032,
      "d": 357.1424999999872,
      "v": 97
    },
    {
      "midi": 57,
      "hit": false,
      "t": 242337.4200000003,
      "d": 357.1425000000163,
      "v": 97
    },
    {
      "midi": 45,
      "hit": false,
      "t": 242727.03000000032,
      "d": 357.1424999999872,
      "v": 100
    },
    {
      "midi": 55,
      "hit": false,
      "t": 242727.03000000032,
      "d": 1095.7781249999825,
      "v": 96
    },
    {
      "midi": 43,
      "hit": false,
      "t": 243116.6400000003,
      "d": 1095.7781250000116,
      "v": 104
    },
    {
      "midi": 59,
      "hit": false,
      "t": 243895.8600000003,
      "d": 357.1425000000163,
      "v": 97
    },
    {
      "midi": 62,
      "hit": false,
      "t": 243895.8600000003,
      "d": 357.1425000000163,
      "v": 104
    },
    {
      "midi": 66,
      "hit": false,
      "t": 243895.8600000003,
      "d": 357.1425000000163,
      "v": 98
    },
    {
      "midi": 43,
      "hit": false,
      "t": 244285.47000000032,
      "d": 357.1424999999872,
      "v": 105
    },
    {
      "midi": 59,
      "hit": false,
      "t": 244285.47000000032,
      "d": 357.1424999999872,
      "v": 100
    },
    {
      "midi": 62,
      "hit": false,
      "t": 244285.47000000032,
      "d": 357.1424999999872,
      "v": 98
    },
    {
      "midi": 66,
      "hit": false,
      "t": 244285.47000000032,
      "d": 357.1424999999872,
      "v": 99
    },
    {
      "midi": 59,
      "hit": false,
      "t": 244675.0800000003,
      "d": 706.1681249999965,
      "v": 104
    },
    {
      "midi": 62,
      "hit": false,
      "t": 244675.0800000003,
      "d": 706.1681249999965,
      "v": 105
    },
    {
      "midi": 66,
      "hit": false,
      "t": 244675.0800000003,
      "d": 706.1681249999965,
      "v": 103
    },
    {
      "midi": 43,
      "hit": false,
      "t": 244675.0800000003,
      "d": 1095.7781250000116,
      "v": 105
    },
    {
      "midi": 59,
      "hit": false,
      "t": 245454.3000000003,
      "d": 357.1425000000163,
      "v": 103
    },
    {
      "midi": 62,
      "hit": false,
      "t": 245454.3000000003,
      "d": 357.1425000000163,
      "v": 97
    },
    {
      "midi": 66,
      "hit": false,
      "t": 245454.3000000003,
      "d": 357.1425000000163,
      "v": 98
    },
    {
      "midi": 43,
      "hit": false,
      "t": 245843.91000000032,
      "d": 357.1424999999872,
      "v": 96
    },
    {
      "midi": 59,
      "hit": false,
      "t": 245843.91000000032,
      "d": 357.1424999999872,
      "v": 102
    },
    {
      "midi": 62,
      "hit": false,
      "t": 245843.91000000032,
      "d": 357.1424999999872,
      "v": 97
    },
    {
      "midi": 66,
      "hit": false,
      "t": 245843.91000000032,
      "d": 357.1424999999872,
      "v": 102
    },
    {
      "midi": 59,
      "hit": false,
      "t": 246233.5200000003,
      "d": 706.1681249999965,
      "v": 98
    },
    {
      "midi": 62,
      "hit": false,
      "t": 246233.5200000003,
      "d": 706.1681249999965,
      "v": 96
    },
    {
      "midi": 66,
      "hit": false,
      "t": 246233.5200000003,
      "d": 706.1681249999965,
      "v": 98
    },
    {
      "midi": 43,
      "hit": false,
      "t": 246233.5200000003,
      "d": 1095.7781250000116,
      "v": 96
    },
    {
      "midi": 62,
      "hit": false,
      "t": 247012.7400000003,
      "d": 706.1681250000256,
      "v": 100
    },
    {
      "midi": 66,
      "hit": false,
      "t": 247012.7400000003,
      "d": 706.1681250000256,
      "v": 103
    },
    {
      "midi": 71,
      "hit": false,
      "t": 247012.7400000003,
      "d": 706.1681250000256,
      "v": 98
    },
    {
      "midi": 43,
      "hit": false,
      "t": 247402.35000000033,
      "d": 357.1425000000163,
      "v": 102
    },
    {
      "midi": 50,
      "hit": false,
      "t": 247791.96000000034,
      "d": 706.1681249999965,
      "v": 96
    },
    {
      "midi": 62,
      "hit": false,
      "t": 247791.96000000034,
      "d": 706.1681249999965,
      "v": 103
    },
    {
      "midi": 74,
      "hit": false,
      "t": 247791.96000000034,
      "d": 706.1681249999965,
      "v": 104
    },
    {
      "midi": 52,
      "hit": false,
      "t": 248571.18000000034,
      "d": 706.1681249999965,
      "v": 99
    },
    {
      "midi": 64,
      "hit": false,
      "t": 248571.18000000034,
      "d": 706.1681249999965,
      "v": 96
    },
    {
      "midi": 76,
      "hit": false,
      "t": 248571.18000000034,
      "d": 706.1681249999965,
      "v": 100
    },
    {
      "midi": 57,
      "hit": false,
      "t": 249350.40000000034,
      "d": 2264.608124999999,
      "v": 98
    },
    {
      "midi": 61,
      "hit": false,
      "t": 249350.40000000034,
      "d": 2264.608124999999,
      "v": 98
    },
    {
      "midi": 66,
      "hit": false,
      "t": 249350.40000000034,
      "d": 2264.608124999999,
      "v": 97
    },
    {
      "midi": 57,
      "hit": false,
      "t": 251688.06000000035,
      "d": 357.1424999999872,
      "v": 104
    },
    {
      "midi": 61,
      "hit": false,
      "t": 251688.06000000035,
      "d": 357.1424999999872,
      "v": 96
    },
    {
      "midi": 66,
      "hit": false,
      "t": 251688.06000000035,
      "d": 357.1424999999872,
      "v": 96
    },
    {
      "midi": 57,
      "hit": false,
      "t": 252077.67000000033,
      "d": 1485.3881249999977,
      "v": 98
    },
    {
      "midi": 61,
      "hit": false,
      "t": 252077.67000000033,
      "d": 1485.3881249999977,
      "v": 101
    },
    {
      "midi": 64,
      "hit": false,
      "t": 252077.67000000033,
      "d": 1485.3881249999977,
      "v": 97
    },
    {
      "midi": 57,
      "hit": false,
      "t": 253636.11000000034,
      "d": 1095.7781250000116,
      "v": 99
    },
    {
      "midi": 61,
      "hit": false,
      "t": 253636.11000000034,
      "d": 1095.7781250000116,
      "v": 100
    },
    {
      "midi": 66,
      "hit": false,
      "t": 253636.11000000034,
      "d": 1095.7781250000116,
      "v": 103
    },
    {
      "midi": 61,
      "hit": false,
      "t": 254804.94000000035,
      "d": 706.1681249999965,
      "v": 98
    },
    {
      "midi": 66,
      "hit": false,
      "t": 254804.94000000035,
      "d": 706.1681249999965,
      "v": 96
    },
    {
      "midi": 69,
      "hit": false,
      "t": 254804.94000000035,
      "d": 706.1681249999965,
      "v": 99
    },
    {
      "midi": 59,
      "hit": false,
      "t": 255584.16000000035,
      "d": 706.1681249999965,
      "v": 98
    },
    {
      "midi": 62,
      "hit": false,
      "t": 255584.16000000035,
      "d": 706.1681249999965,
      "v": 105
    },
    {
      "midi": 66,
      "hit": false,
      "t": 255584.16000000035,
      "d": 706.1681249999965,
      "v": 96
    },
    {
      "midi": 55,
      "hit": false,
      "t": 256363.38000000035,
      "d": 1485.3881249999977,
      "v": 103
    },
    {
      "midi": 59,
      "hit": false,
      "t": 256363.38000000035,
      "d": 1485.3881249999977,
      "v": 105
    },
    {
      "midi": 62,
      "hit": false,
      "t": 256363.38000000035,
      "d": 1485.3881249999977,
      "v": 96
    },
    {
      "midi": 55,
      "hit": false,
      "t": 257921.82000000036,
      "d": 357.1424999999872,
      "v": 102
    },
    {
      "midi": 59,
      "hit": false,
      "t": 257921.82000000036,
      "d": 357.1424999999872,
      "v": 101
    },
    {
      "midi": 62,
      "hit": false,
      "t": 257921.82000000036,
      "d": 357.1424999999872,
      "v": 104
    },
    {
      "midi": 55,
      "hit": false,
      "t": 258311.43000000034,
      "d": 357.1424999999872,
      "v": 101
    },
    {
      "midi": 59,
      "hit": false,
      "t": 258311.43000000034,
      "d": 357.1424999999872,
      "v": 99
    },
    {
      "midi": 62,
      "hit": false,
      "t": 258311.43000000034,
      "d": 357.1424999999872,
      "v": 97
    },
    {
      "midi": 55,
      "hit": false,
      "t": 258701.04000000033,
      "d": 357.1424999999872,
      "v": 96
    },
    {
      "midi": 59,
      "hit": false,
      "t": 258701.04000000033,
      "d": 357.1424999999872,
      "v": 101
    },
    {
      "midi": 62,
      "hit": false,
      "t": 258701.04000000033,
      "d": 357.1424999999872,
      "v": 100
    },
    {
      "midi": 57,
      "hit": false,
      "t": 259090.6500000003,
      "d": 1874.9981250000128,
      "v": 98
    },
    {
      "midi": 61,
      "hit": false,
      "t": 259090.6500000003,
      "d": 1874.9981250000128,
      "v": 104
    },
    {
      "midi": 64,
      "hit": false,
      "t": 259090.6500000003,
      "d": 1874.9981250000128,
      "v": 98
    },
    {
      "midi": 61,
      "hit": false,
      "t": 261038.70000000033,
      "d": 706.1681249999965,
      "v": 102
    },
    {
      "midi": 64,
      "hit": false,
      "t": 261038.70000000033,
      "d": 706.1681249999965,
      "v": 104
    },
    {
      "midi": 69,
      "hit": false,
      "t": 261038.70000000033,
      "d": 706.1681249999965,
      "v": 100
    },
    {
      "midi": 57,
      "hit": false,
      "t": 261817.92000000033,
      "d": 2264.608125000028,
      "v": 101
    },
    {
      "midi": 61,
      "hit": false,
      "t": 261817.92000000033,
      "d": 2264.608125000028,
      "v": 97
    },
    {
      "midi": 66,
      "hit": false,
      "t": 261817.92000000033,
      "d": 2264.608125000028,
      "v": 102
    },
    {
      "midi": 57,
      "hit": false,
      "t": 264155.58000000037,
      "d": 357.1425000000163,
      "v": 104
    },
    {
      "midi": 61,
      "hit": false,
      "t": 264155.58000000037,
      "d": 357.1425000000163,
      "v": 96
    },
    {
      "midi": 66,
      "hit": false,
      "t": 264155.58000000037,
      "d": 357.1425000000163,
      "v": 103
    },
    {
      "midi": 57,
      "hit": false,
      "t": 264545.1900000004,
      "d": 1485.3881249999977,
      "v": 96
    },
    {
      "midi": 61,
      "hit": false,
      "t": 264545.1900000004,
      "d": 1485.3881249999977,
      "v": 105
    },
    {
      "midi": 64,
      "hit": false,
      "t": 264545.1900000004,
      "d": 1485.3881249999977,
      "v": 96
    },
    {
      "midi": 57,
      "hit": false,
      "t": 266103.6300000004,
      "d": 1095.7781250000116,
      "v": 99
    },
    {
      "midi": 61,
      "hit": false,
      "t": 266103.6300000004,
      "d": 1095.7781250000116,
      "v": 99
    },
    {
      "midi": 66,
      "hit": false,
      "t": 266103.6300000004,
      "d": 1095.7781250000116,
      "v": 101
    },
    {
      "midi": 61,
      "hit": false,
      "t": 267272.4600000004,
      "d": 706.1681250000256,
      "v": 102
    },
    {
      "midi": 66,
      "hit": false,
      "t": 267272.4600000004,
      "d": 706.1681250000256,
      "v": 104
    },
    {
      "midi": 69,
      "hit": false,
      "t": 267272.4600000004,
      "d": 706.1681250000256,
      "v": 103
    },
    {
      "midi": 59,
      "hit": false,
      "t": 268051.68000000046,
      "d": 706.1681250000256,
      "v": 96
    },
    {
      "midi": 62,
      "hit": false,
      "t": 268051.68000000046,
      "d": 706.1681250000256,
      "v": 104
    },
    {
      "midi": 66,
      "hit": false,
      "t": 268051.68000000046,
      "d": 706.1681250000256,
      "v": 103
    },
    {
      "midi": 55,
      "hit": false,
      "t": 268830.9000000005,
      "d": 1485.3881249999977,
      "v": 105
    },
    {
      "midi": 59,
      "hit": false,
      "t": 268830.9000000005,
      "d": 1485.3881249999977,
      "v": 96
    },
    {
      "midi": 62,
      "hit": false,
      "t": 268830.9000000005,
      "d": 1485.3881249999977,
      "v": 104
    },
    {
      "midi": 55,
      "hit": false,
      "t": 270389.3400000005,
      "d": 357.1425000000163,
      "v": 99
    },
    {
      "midi": 59,
      "hit": false,
      "t": 270389.3400000005,
      "d": 357.1425000000163,
      "v": 104
    },
    {
      "midi": 62,
      "hit": false,
      "t": 270389.3400000005,
      "d": 357.1425000000163,
      "v": 105
    },
    {
      "midi": 55,
      "hit": false,
      "t": 270778.95000000054,
      "d": 357.1425000000163,
      "v": 104
    },
    {
      "midi": 59,
      "hit": false,
      "t": 270778.95000000054,
      "d": 357.1425000000163,
      "v": 105
    },
    {
      "midi": 62,
      "hit": false,
      "t": 270778.95000000054,
      "d": 357.1425000000163,
      "v": 101
    },
    {
      "midi": 55,
      "hit": false,
      "t": 271168.5600000006,
      "d": 357.1425000000163,
      "v": 105
    },
    {
      "midi": 59,
      "hit": false,
      "t": 271168.5600000006,
      "d": 357.1425000000163,
      "v": 97
    },
    {
      "midi": 62,
      "hit": false,
      "t": 271168.5600000006,
      "d": 357.1425000000163,
      "v": 102
    },
    {
      "midi": 57,
      "hit": false,
      "t": 271558.1700000006,
      "d": 1874.9981249999837,
      "v": 105
    },
    {
      "midi": 61,
      "hit": false,
      "t": 271558.1700000006,
      "d": 1874.9981249999837,
      "v": 104
    },
    {
      "midi": 64,
      "hit": false,
      "t": 271558.1700000006,
      "d": 1874.9981249999837,
      "v": 105
    },
    {
      "midi": 61,
      "hit": false,
      "t": 273506.2200000006,
      "d": 706.1681250000256,
      "v": 98
    },
    {
      "midi": 64,
      "hit": false,
      "t": 273506.2200000006,
      "d": 706.1681250000256,
      "v": 97
    },
    {
      "midi": 69,
      "hit": false,
      "t": 273506.2200000006,
      "d": 706.1681250000256,
      "v": 104
    },
    {
      "midi": 38,
      "hit": false,
      "t": 274285.44000000064,
      "d": 6063.305624999921,
      "v": 99
    },
    {
      "midi": 45,
      "hit": false,
      "t": 274675.0500000006,
      "d": 5673.695624999935,
      "v": 96
    },
    {
      "midi": 54,
      "hit": false,
      "t": 275364.98437500064,
      "d": 4837.657499999914,
      "v": 96
    },
    {
      "midi": 61,
      "hit": false,
      "t": 275413.6856250006,
      "d": 4805.189999999944,
      "v": 100
    },
    {
      "midi": 64,
      "hit": false,
      "t": 275454.2700000006,
      "d": 4756.48874999996,
      "v": 96
    },
    {
      "midi": 66,
      "hit": false,
      "t": 275502.9712500006,
      "d": 4724.021249999991,
      "v": 105
    },
    {
      "midi": 69,
      "hit": false,
      "t": 275559.7893750006,
      "d": 4675.320000000007,
      "v": 102
    }
  ]
}