{
  "jsonPath": "Jazz/Vocal Jazz/Mary Stallings/give-me-the-simple-life.json",
  "path": "Jazz\\Vocal Jazz\\Mary Stallings\\Give Me The Simple Life.mid",
  "name": "Give Me The Simple Life",
  "difficulty": "Advanced",
  "bpm": 89.00017206699933,
  "notes": [
    {
      "midi": 77,
      "hit": false,
      "t": 2696.624,
      "d": 42.13475000000017,
      "v": 58
    },
    {
      "midi": 81,
      "hit": false,
      "t": 2696.624,
      "d": 266.8534166666673,
      "v": 63
    },
    {
      "midi": 84,
      "hit": false,
      "t": 2696.624,
      "d": 273.87587500000063,
      "v": 68
    },
    {
      "midi": 74,
      "hit": false,
      "t": 2696.624,
      "d": 280.898333333334,
      "v": 71
    },
    {
      "midi": 26,
      "hit": false,
      "t": 2696.624,
      "d": 98.31441666666706,
      "v": 56
    },
    {
      "midi": 69,
      "hit": false,
      "t": 2710.6689166666665,
      "d": 294.9432500000007,
      "v": 55
    },
    {
      "midi": 77,
      "hit": false,
      "t": 2808.9833333333336,
      "d": 168.53900000000021,
      "v": 22
    },
    {
      "midi": 81,
      "hit": false,
      "t": 3398.869833333334,
      "d": 330.0555416666666,
      "v": 52
    },
    {
      "midi": 72,
      "hit": false,
      "t": 3398.869833333334,
      "d": 379.21275000000014,
      "v": 46
    },
    {
      "midi": 65,
      "hit": false,
      "t": 3405.8922916666675,
      "d": 245.78604166666673,
      "v": 49
    },
    {
      "midi": 74,
      "hit": false,
      "t": 3405.8922916666675,
      "d": 407.3025833333336,
      "v": 48
    },
    {
      "midi": 77,
      "hit": false,
      "t": 3412.914750000001,
      "d": 351.1229166666667,
      "v": 49
    },
    {
      "midi": 65,
      "hit": false,
      "t": 3426.9596666666666,
      "d": 245.78604166666673,
      "v": 54
    },
    {
      "midi": 60,
      "hit": false,
      "t": 3433.982125,
      "d": 112.35933333333332,
      "v": 46
    },
    {
      "midi": 72,
      "hit": false,
      "t": 3433.982125,
      "d": 196.6288333333332,
      "v": 54
    },
    {
      "midi": 57,
      "hit": false,
      "t": 3441.0045833333334,
      "d": 126.40425000000005,
      "v": 48
    },
    {
      "midi": 69,
      "hit": false,
      "t": 3448.0270416666667,
      "d": 203.65129166666657,
      "v": 45
    },
    {
      "midi": 63,
      "hit": false,
      "t": 4073.0258333333336,
      "d": 330.05554166666525,
      "v": 58
    },
    {
      "midi": 71,
      "hit": false,
      "t": 4073.0258333333336,
      "d": 344.10045833333197,
      "v": 57
    },
    {
      "midi": 53,
      "hit": false,
      "t": 4094.0932083333337,
      "d": 273.8758749999988,
      "v": 38
    },
    {
      "midi": 43,
      "hit": false,
      "t": 4101.115666666667,
      "d": 1706.4573749999981,
      "v": 39
    },
    {
      "midi": 79,
      "hit": false,
      "t": 4101.1156666666675,
      "d": 372.1902916666668,
      "v": 56
    },
    {
      "midi": 71,
      "hit": false,
      "t": 4101.1156666666675,
      "d": 435.3924166666666,
      "v": 48
    },
    {
      "midi": 74,
      "hit": false,
      "t": 4115.160583333334,
      "d": 372.1902916666668,
      "v": 50
    },
    {
      "midi": 64,
      "hit": false,
      "t": 4115.160583333334,
      "d": 660.1110833333332,
      "v": 43
    },
    {
      "midi": 68,
      "hit": false,
      "t": 4719.091999999999,
      "d": 337.0779999999995,
      "v": 56
    },
    {
      "midi": 53,
      "hit": false,
      "t": 4740.159374999998,
      "d": 126.40424999999959,
      "v": 43
    },
    {
      "midi": 59,
      "hit": false,
      "t": 4740.159374999998,
      "d": 196.6288333333332,
      "v": 38
    },
    {
      "midi": 63,
      "hit": false,
      "t": 4740.159374999998,
      "d": 351.12291666666624,
      "v": 49
    },
    {
      "midi": 77,
      "hit": false,
      "t": 4754.204291666668,
      "d": 217.69620833333192,
      "v": 51
    },
    {
      "midi": 72,
      "hit": false,
      "t": 4768.2492083333345,
      "d": 182.58391666666557,
      "v": 52
    },
    {
      "midi": 62,
      "hit": false,
      "t": 4775.271666666667,
      "d": 91.29195833333324,
      "v": 46
    },
    {
      "midi": 69,
      "hit": false,
      "t": 4775.271666666667,
      "d": 112.35933333333287,
      "v": 31
    },
    {
      "midi": 52,
      "hit": false,
      "t": 5393.247999999998,
      "d": 646.0661666666665,
      "v": 48
    },
    {
      "midi": 57,
      "hit": false,
      "t": 5400.270458333331,
      "d": 639.0437083333336,
      "v": 41
    },
    {
      "midi": 59,
      "hit": false,
      "t": 5400.270458333331,
      "d": 772.470416666667,
      "v": 39
    },
    {
      "midi": 67,
      "hit": false,
      "t": 5400.270458333331,
      "d": 807.5827083333334,
      "v": 46
    },
    {
      "midi": 62,
      "hit": false,
      "t": 5428.360291666664,
      "d": 765.4479583333332,
      "v": 41
    },
    {
      "midi": 83,
      "hit": false,
      "t": 5428.360291666667,
      "d": 308.988166666667,
      "v": 84
    },
    {
      "midi": 79,
      "hit": false,
      "t": 5428.360291666667,
      "d": 323.0330833333337,
      "v": 76
    },
    {
      "midi": 76,
      "hit": false,
      "t": 5428.360291666667,
      "d": 365.1678333333339,
      "v": 83
    },
    {
      "midi": 72,
      "hit": false,
      "t": 5428.360291666667,
      "d": 372.1902916666668,
      "v": 86
    },
    {
      "midi": 67,
      "hit": false,
      "t": 5442.405208333334,
      "d": 610.9538750000002,
      "v": 77
    },
    {
      "midi": 79,
      "hit": false,
      "t": 6074.426458333333,
      "d": 280.89833333333263,
      "v": 64
    },
    {
      "midi": 74,
      "hit": false,
      "t": 6081.448916666666,
      "d": 287.92079166666645,
      "v": 68
    },
    {
      "midi": 46,
      "hit": false,
      "t": 6088.471374999997,
      "d": 610.9538750000002,
      "v": 66
    },
    {
      "midi": 71,
      "hit": false,
      "t": 6088.471374999999,
      "d": 323.0330833333337,
      "v": 56
    },
    {
      "midi": 64,
      "hit": false,
      "t": 6102.516291666666,
      "d": 596.9089583333334,
      "v": 52
    },
    {
      "midi": 63,
      "hit": false,
      "t": 6460.661666666664,
      "d": 56.17966666666689,
      "v": 25
    },
    {
      "midi": 55,
      "hit": false,
      "t": 6727.515083333331,
      "d": 330.0555416666657,
      "v": 44
    },
    {
      "midi": 61,
      "hit": false,
      "t": 6734.537541666664,
      "d": 372.19029166666587,
      "v": 51
    },
    {
      "midi": 58,
      "hit": false,
      "t": 6734.537541666664,
      "d": 379.2127499999988,
      "v": 48
    },
    {
      "midi": 64,
      "hit": false,
      "t": 6734.537541666664,
      "d": 526.6843749999989,
      "v": 45
    },
    {
      "midi": 45,
      "hit": false,
      "t": 6762.627374999997,
      "d": 702.2458333333316,
      "v": 42
    },
    {
      "midi": 77,
      "hit": false,
      "t": 6762.627374999999,
      "d": 323.0330833333328,
      "v": 57
    },
    {
      "midi": 67,
      "hit": false,
      "t": 6762.627374999999,
      "d": 421.34749999999985,
      "v": 37
    },
    {
      "midi": 73,
      "hit": false,
      "t": 6762.627374999999,
      "d": 435.3924166666666,
      "v": 46
    },
    {
      "midi": 70,
      "hit": false,
      "t": 6783.694749999999,
      "d": 435.3924166666666,
      "v": 46
    },
    {
      "midi": 61,
      "hit": false,
      "t": 6790.717208333332,
      "d": 589.8864999999996,
      "v": 40
    },
    {
      "midi": 58,
      "hit": false,
      "t": 7380.603708333329,
      "d": 210.67374999999902,
      "v": 51
    },
    {
      "midi": 61,
      "hit": false,
      "t": 7394.648624999996,
      "d": 210.67374999999902,
      "v": 46
    },
    {
      "midi": 55,
      "hit": false,
      "t": 7401.671083333329,
      "d": 98.31441666666615,
      "v": 43
    },
    {
      "midi": 60,
      "hit": false,
      "t": 7401.671083333331,
      "d": 70.2245833333318,
      "v": 52
    },
    {
      "midi": 70,
      "hit": false,
      "t": 7408.693541666664,
      "d": 105.33687499999905,
      "v": 43
    },
    {
      "midi": 67,
      "hit": false,
      "t": 7415.715999999997,
      "d": 70.2245833333327,
      "v": 33
    },
    {
      "midi": 76,
      "hit": false,
      "t": 7415.715999999997,
      "d": 147.47162499999922,
      "v": 46
    },
    {
      "midi": 73,
      "hit": false,
      "t": 7422.73845833333,
      "d": 140.44916666666631,
      "v": 39
    },
    {
      "midi": 63,
      "hit": false,
      "t": 7815.996124999996,
      "d": 42.13474999999926,
      "v": 41
    },
    {
      "midi": 64,
      "hit": false,
      "t": 7837.063499999996,
      "d": 119.38179166666578,
      "v": 66
    },
    {
      "midi": 72,
      "hit": false,
      "t": 7886.220708333329,
      "d": 231.74112499999956,
      "v": 77
    },
    {
      "midi": 81,
      "hit": false,
      "t": 7886.220708333329,
      "d": 245.78604166666628,
      "v": 81
    },
    {
      "midi": 74,
      "hit": false,
      "t": 7886.220708333329,
      "d": 259.8309583333321,
      "v": 78
    },
    {
      "midi": 77,
      "hit": false,
      "t": 7886.220708333329,
      "d": 273.8758749999988,
      "v": 78
    },
    {
      "midi": 65,
      "hit": false,
      "t": 7907.288083333328,
      "d": 224.71866666666665,
      "v": 62
    },
    {
      "midi": 46,
      "hit": false,
      "t": 7907.288083333328,
      "d": 175.56145833333267,
      "v": 45
    },
    {
      "midi": 48,
      "hit": false,
      "t": 7998.580041666662,
      "d": 49.157208333333074,
      "v": 34
    },
    {
      "midi": 50,
      "hit": false,
      "t": 8033.692333333328,
      "d": 660.1110833333323,
      "v": 73
    },
    {
      "midi": 65,
      "hit": false,
      "t": 8047.737249999995,
      "d": 407.3025833333322,
      "v": 72
    },
    {
      "midi": 60,
      "hit": false,
      "t": 8054.759708333328,
      "d": 210.67374999999993,
      "v": 80
    },
    {
      "midi": 69,
      "hit": false,
      "t": 8054.759708333328,
      "d": 428.36995833333276,
      "v": 71
    },
    {
      "midi": 81,
      "hit": false,
      "t": 8223.298708333328,
      "d": 231.74112500000047,
      "v": 66
    },
    {
      "midi": 65,
      "hit": false,
      "t": 8223.298708333328,
      "d": 456.459791666668,
      "v": 52
    },
    {
      "midi": 74,
      "hit": false,
      "t": 8244.366083333329,
      "d": 217.69620833333283,
      "v": 57
    },
    {
      "midi": 72,
      "hit": false,
      "t": 8244.366083333329,
      "d": 245.78604166666628,
      "v": 59
    },
    {
      "midi": 77,
      "hit": false,
      "t": 8251.388541666662,
      "d": 168.53900000000067,
      "v": 69
    },
    {
      "midi": 77,
      "hit": false,
      "t": 8693.803416666662,
      "d": 224.71866666666574,
      "v": 64
    },
    {
      "midi": 72,
      "hit": false,
      "t": 8693.803416666662,
      "d": 238.76358333333155,
      "v": 58
    },
    {
      "midi": 69,
      "hit": false,
      "t": 8693.803416666662,
      "d": 287.9207916666637,
      "v": 55
    },
    {
      "midi": 62,
      "hit": false,
      "t": 8700.825874999995,
      "d": 266.853416666665,
      "v": 52
    },
    {
      "midi": 74,
      "hit": false,
      "t": 8707.848333333328,
      "d": 175.56145833333358,
      "v": 57
    },
    {
      "midi": 69,
      "hit": false,
      "t": 8749.983083333327,
      "d": 294.94324999999844,
      "v": 61
    },
    {
      "midi": 48,
      "hit": false,
      "t": 8749.983083333327,
      "d": 568.8191249999963,
      "v": 63
    },
    {
      "midi": 62,
      "hit": false,
      "t": 8757.00554166666,
      "d": 358.14537499999824,
      "v": 63
    },
    {
      "midi": 57,
      "hit": false,
      "t": 8764.027999999993,
      "d": 358.14537499999824,
      "v": 58
    },
    {
      "midi": 65,
      "hit": false,
      "t": 8764.027999999993,
      "d": 372.19029166666405,
      "v": 60
    },
    {
      "midi": 66,
      "hit": false,
      "t": 8778.072916666659,
      "d": 351.12291666666533,
      "v": 38
    },
    {
      "midi": 46,
      "hit": false,
      "t": 9283.689916666657,
      "d": 98.31441666666615,
      "v": 45
    },
    {
      "midi": 67,
      "hit": false,
      "t": 9396.04924999999,
      "d": 273.8758749999979,
      "v": 63
    },
    {
      "midi": 62,
      "hit": false,
      "t": 9396.04924999999,
      "d": 323.0330833333319,
      "v": 66
    },
    {
      "midi": 57,
      "hit": false,
      "t": 9410.094166666655,
      "d": 238.76358333333337,
      "v": 58
    },
    {
      "midi": 47,
      "hit": false,
      "t": 9410.094166666655,
      "d": 252.80849999999919,
      "v": 56
    },
    {
      "midi": 76,
      "hit": false,
      "t": 9431.16154166666,
      "d": 372.19029166666587,
      "v": 77
    },
    {
      "midi": 65,
      "hit": false,
      "t": 9431.16154166666,
      "d": 456.4597916666662,
      "v": 72
    },
    {
      "midi": 68,
      "hit": false,
      "t": 9431.16154166666,
      "d": 477.52716666666674,
      "v": 60
    },
    {
      "midi": 71,
      "hit": false,
      "t": 9431.16154166666,
      "d": 512.6394583333331,
      "v": 63
    },
    {
      "midi": 62,
      "hit": false,
      "t": 9431.16154166666,
      "d": 617.9763333333321,
      "v": 66
    },
    {
      "midi": 46,
      "hit": false,
      "t": 10042.115416666655,
      "d": 287.92079166666554,
      "v": 50
    },
    {
      "midi": 34,
      "hit": false,
      "t": 10042.115416666655,
      "d": 316.010624999999,
      "v": 52
    },
    {
      "midi": 62,
      "hit": false,
      "t": 10049.137874999988,
      "d": 238.76358333333337,
      "v": 58
    },
    {
      "midi": 65,
      "hit": false,
      "t": 10049.137874999988,
      "d": 287.92079166666554,
      "v": 60
    },
    {
      "midi": 56,
      "hit": false,
      "t": 10056.16033333332,
      "d": 280.89833333333263,
      "v": 56
    },
    {
      "midi": 68,
      "hit": false,
      "t": 10070.205249999992,
      "d": 365.16783333333296,
      "v": 63
    },
    {
      "midi": 74,
      "hit": false,
      "t": 10077.227708333325,
      "d": 316.0106250000008,
      "v": 58
    },
    {
      "midi": 65,
      "hit": false,
      "t": 10077.227708333325,
      "d": 330.0555416666666,
      "v": 57
    },
    {
      "midi": 56,
      "hit": false,
      "t": 10077.227708333325,
      "d": 667.1335416666661,
      "v": 58
    },
    {
      "midi": 71,
      "hit": false,
      "t": 10098.295083333325,
      "d": 168.53900000000067,
      "v": 46
    },
    {
      "midi": 64,
      "hit": false,
      "t": 10737.338791666652,
      "d": 231.74112499999865,
      "v": 63
    },
    {
      "midi": 33,
      "hit": false,
      "t": 10737.338791666652,
      "d": 308.9881666666661,
      "v": 48
    },
    {
      "midi": 45,
      "hit": false,
      "t": 10737.338791666652,
      "d": 337.0779999999995,
      "v": 45
    },
    {
      "midi": 55,
      "hit": false,
      "t": 10751.383708333318,
      "d": 266.8534166666668,
      "v": 50
    },
    {
      "midi": 60,
      "hit": false,
      "t": 10758.406166666651,
      "d": 287.92079166666736,
      "v": 52
    },
    {
      "midi": 72,
      "hit": false,
      "t": 10765.428624999991,
      "d": 330.055541666663,
      "v": 49
    },
    {
      "midi": 64,
      "hit": false,
      "t": 10772.451083333324,
      "d": 280.8983333333308,
      "v": 38
    },
    {
      "midi": 67,
      "hit": false,
      "t": 10772.451083333324,
      "d": 294.9432499999966,
      "v": 52
    },
    {
      "midi": 57,
      "hit": false,
      "t": 10786.49599999999,
      "d": 105.33687499999905,
      "v": 38
    },
    {
      "midi": 65,
      "hit": false,
      "t": 11418.517249999988,
      "d": 266.853416666665,
      "v": 63
    },
    {
      "midi": 70,
      "hit": false,
      "t": 11418.517249999988,
      "d": 323.0330833333319,
      "v": 54
    },
    {
      "midi": 44,
      "hit": false,
      "t": 11425.53970833332,
      "d": 323.0330833333337,
      "v": 36
    },
    {
      "midi": 32,
      "hit": false,
      "t": 11425.53970833332,
      "d": 330.0555416666666,
      "v": 43
    },
    {
      "midi": 58,
      "hit": false,
      "t": 11425.539708333321,
      "d": 316.010624999999,
      "v": 46
    },
    {
      "midi": 54,
      "hit": false,
      "t": 11432.562166666652,
      "d": 316.0106250000008,
      "v": 39
    },
    {
      "midi": 54,
      "hit": false,
      "t": 11439.584624999987,
      "d": 238.76358333333337,
      "v": 32
    },
    {
      "midi": 44,
      "hit": false,
      "t": 11453.629541666653,
      "d": 266.8534166666668,
      "v": 37
    },
    {
      "midi": 59,
      "hit": false,
      "t": 11453.629541666653,
      "d": 266.8534166666668,
      "v": 46
    },
    {
      "midi": 63,
      "hit": false,
      "t": 11460.651999999985,
      "d": 379.2127500000006,
      "v": 32
    },
    {
      "midi": 58,
      "hit": false,
      "t": 12099.69570833332,
      "d": 182.58391666666648,
      "v": 49
    },
    {
      "midi": 62,
      "hit": false,
      "t": 12120.76308333332,
      "d": 161.51654166666594,
      "v": 49
    },
    {
      "midi": 69,
      "hit": false,
      "t": 12120.76308333332,
      "d": 217.69620833333283,
      "v": 39
    },
    {
      "midi": 43,
      "hit": false,
      "t": 12134.807999999986,
      "d": 91.29195833333324,
      "v": 32
    },
    {
      "midi": 53,
      "hit": false,
      "t": 12134.807999999986,
      "d": 196.62883333333411,
      "v": 32
    },
    {
      "midi": 58,
      "hit": false,
      "t": 12141.83045833332,
      "d": 330.0555416666666,
      "v": 48
    },
    {
      "midi": 62,
      "hit": false,
      "t": 12148.852916666652,
      "d": 231.74112500000047,
      "v": 48
    },
    {
      "midi": 31,
      "hit": false,
      "t": 12155.875374999985,
      "d": 91.29195833333324,
      "v": 32
    },
    {
      "midi": 43,
      "hit": false,
      "t": 12155.875374999985,
      "d": 203.65129166666702,
      "v": 34
    },
    {
      "midi": 53,
      "hit": false,
      "t": 12155.875374999985,
      "d": 203.65129166666702,
      "v": 31
    },
    {
      "midi": 64,
      "hit": false,
      "t": 12794.91908333332,
      "d": 259.8309583333321,
      "v": 48
    },
    {
      "midi": 73,
      "hit": false,
      "t": 12801.941541666652,
      "d": 372.19029166666587,
      "v": 41
    },
    {
      "midi": 68,
      "hit": false,
      "t": 12801.941541666652,
      "d": 477.5271666666649,
      "v": 51
    },
    {
      "midi": 70,
      "hit": false,
      "t": 12815.986458333318,
      "d": 414.32504166666695,
      "v": 48
    },
    {
      "midi": 58,
      "hit": false,
      "t": 12815.986458333318,
      "d": 421.34749999999985,
      "v": 44
    },
    {
      "midi": 58,
      "hit": false,
      "t": 12815.986458333318,
      "d": 449.4373333333333,
      "v": 52
    },
    {
      "midi": 52,
      "hit": false,
      "t": 12823.008916666651,
      "d": 182.58391666666648,
      "v": 39
    },
    {
      "midi": 61,
      "hit": false,
      "t": 12823.008916666651,
      "d": 491.5720833333344,
      "v": 48
    },
    {
      "midi": 48,
      "hit": false,
      "t": 13286.491166666652,
      "d": 119.38179166666669,
      "v": 26
    },
    {
      "midi": 53,
      "hit": false,
      "t": 13476.097541666652,
      "d": 105.33687499999905,
      "v": 42
    },
    {
      "midi": 72,
      "hit": false,
      "t": 13490.142458333317,
      "d": 477.5271666666631,
      "v": 50
    },
    {
      "midi": 60,
      "hit": false,
      "t": 13490.142458333317,
      "d": 1109.5484166666647,
      "v": 38
    },
    {
      "midi": 57,
      "hit": false,
      "t": 13490.142458333317,
      "d": 112.35933333333378,
      "v": 41
    },
    {
      "midi": 60,
      "hit": false,
      "t": 13490.142458333317,
      "d": 182.58391666666648,
      "v": 49
    },
    {
      "midi": 69,
      "hit": false,
      "t": 13504.187374999983,
      "d": 449.4373333333315,
      "v": 42
    },
    {
      "midi": 76,
      "hit": false,
      "t": 13504.187374999983,
      "d": 582.864041666664,
      "v": 48
    },
    {
      "midi": 41,
      "hit": false,
      "t": 13511.209833333318,
      "d": 63.202124999999796,
      "v": 33
    },
    {
      "midi": 50,
      "hit": false,
      "t": 13511.209833333318,
      "d": 119.38179166666669,
      "v": 23
    },
    {
      "midi": 64,
      "hit": false,
      "t": 13525.254749999982,
      "d": 1053.3687499999996,
      "v": 27
    },
    {
      "midi": 65,
      "hit": false,
      "t": 13532.277208333315,
      "d": 323.0330833333337,
      "v": 43
    },
    {
      "midi": 57,
      "hit": false,
      "t": 14157.275999999983,
      "d": 372.19029166666587,
      "v": 46
    },
    {
      "midi": 60,
      "hit": false,
      "t": 14164.298458333316,
      "d": 617.9763333333321,
      "v": 45
    },
    {
      "midi": 53,
      "hit": false,
      "t": 14192.388291666648,
      "d": 407.30258333333404,
      "v": 37
    },
    {
      "midi": 69,
      "hit": false,
      "t": 14592.66841666665,
      "d": 224.71866666666574,
      "v": 102
    },
    {
      "midi": 72,
      "hit": false,
      "t": 14655.870541666649,
      "d": 196.6288333333323,
      "v": 102
    },
    {
      "midi": 68,
      "hit": false,
      "t": 14845.476916666648,
      "d": 603.9314166666663,
      "v": 68
    },
    {
      "midi": 53,
      "hit": false,
      "t": 14845.476916666648,
      "d": 1032.3013749999973,
      "v": 45
    },
    {
      "midi": 62,
      "hit": false,
      "t": 14852.499374999981,
      "d": 224.71866666666756,
      "v": 31
    },
    {
      "midi": 74,
      "hit": false,
      "t": 14922.723958333314,
      "d": 1053.3687499999996,
      "v": 86
    },
    {
      "midi": 60,
      "hit": false,
      "t": 15491.543083333314,
      "d": 533.7068333333318,
      "v": 36
    },
    {
      "midi": 65,
      "hit": false,
      "t": 15512.610458333314,
      "d": 351.12291666666533,
      "v": 52
    },
    {
      "midi": 56,
      "hit": false,
      "t": 15526.65537499998,
      "d": 533.7068333333318,
      "v": 37
    },
    {
      "midi": 72,
      "hit": false,
      "t": 15933.957958333314,
      "d": 126.40424999999959,
      "v": 57
    },
    {
      "midi": 67,
      "hit": false,
      "t": 16165.699083333313,
      "d": 807.5827083333334,
      "v": 63
    },
    {
      "midi": 52,
      "hit": false,
      "t": 16179.743999999979,
      "d": 814.6051666666663,
      "v": 50
    },
    {
      "midi": 68,
      "hit": false,
      "t": 16601.09149999998,
      "d": 98.31441666666433,
      "v": 67
    },
    {
      "midi": 80,
      "hit": false,
      "t": 16615.136416666646,
      "d": 91.29195833333142,
      "v": 82
    },
    {
      "midi": 81,
      "hit": false,
      "t": 16622.15887499998,
      "d": 126.40424999999595,
      "v": 85
    },
    {
      "midi": 69,
      "hit": false,
      "t": 16629.181333333312,
      "d": 91.29195833333142,
      "v": 75
    },
    {
      "midi": 59,
      "hit": false,
      "t": 16846.877541666647,
      "d": 63.202124999999796,
      "v": 35
    },
    {
      "midi": 64,
      "hit": false,
      "t": 16846.877541666647,
      "d": 112.35933333333378,
      "v": 49
    },
    {
      "midi": 60,
      "hit": false,
      "t": 16867.944916666645,
      "d": 189.6063749999994,
      "v": 40
    },
    {
      "midi": 72,
      "hit": false,
      "t": 17120.75341666664,
      "d": 77.24704166666561,
      "v": 56
    },
    {
      "midi": 60,
      "hit": false,
      "t": 17134.798333333307,
      "d": 70.2245833333327,
      "v": 50
    },
    {
      "midi": 60,
      "hit": false,
      "t": 17324.404708333306,
      "d": 154.49408333333122,
      "v": 44
    },
    {
      "midi": 72,
      "hit": false,
      "t": 17338.449624999972,
      "d": 119.38179166666669,
      "v": 49
    },
    {
      "midi": 54,
      "hit": false,
      "t": 17485.921249999978,
      "d": 547.7517499999994,
      "v": 55
    },
    {
      "midi": 57,
      "hit": false,
      "t": 17492.94370833331,
      "d": 344.1004583333306,
      "v": 45
    },
    {
      "midi": 60,
      "hit": false,
      "t": 17492.94370833331,
      "d": 379.2127499999988,
      "v": 47
    },
    {
      "midi": 63,
      "hit": false,
      "t": 17492.94370833331,
      "d": 428.36995833333276,
      "v": 48
    },
    {
      "midi": 66,
      "hit": false,
      "t": 17506.988624999976,
      "d": 653.0886250000003,
      "v": 44
    },
    {
      "midi": 62,
      "hit": false,
      "t": 17549.12337499997,
      "d": 442.4148749999986,
      "v": 49
    },
    {
      "midi": 74,
      "hit": false,
      "t": 17563.168291666636,
      "d": 414.32504166666695,
      "v": 60
    },
    {
      "midi": 72,
      "hit": false,
      "t": 17984.515791666636,
      "d": 287.9207916666637,
      "v": 58
    },
    {
      "midi": 60,
      "hit": false,
      "t": 18012.605624999967,
      "d": 175.56145833333358,
      "v": 45
    },
    {
      "midi": 51,
      "hit": false,
      "t": 18188.16708333331,
      "d": 84.26950000000215,
      "v": 50
    },
    {
      "midi": 63,
      "hit": false,
      "t": 18188.16708333331,
      "d": 414.3250416666706,
      "v": 45
    },
    {
      "midi": 57,
      "hit": false,
      "t": 18195.18954166664,
      "d": 308.9881666666697,
      "v": 44
    },
    {
      "midi": 60,
      "hit": false,
      "t": 18237.324291666642,
      "d": 168.53900000000067,
      "v": 39
    },
    {
      "midi": 49,
      "hit": false,
      "t": 18721.873916666646,
      "d": 119.38179166666669,
      "v": 46
    },
    {
      "midi": 68,
      "hit": false,
      "t": 18813.165874999966,
      "d": 91.29195833333142,
      "v": 41
    },
    {
      "midi": 65,
      "hit": false,
      "t": 18841.255708333312,
      "d": 231.74112500000047,
      "v": 60
    },
    {
      "midi": 60,
      "hit": false,
      "t": 18848.278166666645,
      "d": 210.67375000000175,
      "v": 63
    },
    {
      "midi": 57,
      "hit": false,
      "t": 18855.300624999978,
      "d": 280.89833333333445,
      "v": 59
    },
    {
      "midi": 50,
      "hit": false,
      "t": 18862.32308333331,
      "d": 653.0886250000003,
      "v": 52
    },
    {
      "midi": 74,
      "hit": false,
      "t": 18883.3904583333,
      "d": 70.22458333332906,
      "v": 81
    },
    {
      "midi": 84,
      "hit": false,
      "t": 18883.3904583333,
      "d": 147.47162499999467,
      "v": 75
    },
    {
      "midi": 77,
      "hit": false,
      "t": 18890.41291666663,
      "d": 49.157208333330345,
      "v": 71
    },
    {
      "midi": 69,
      "hit": false,
      "t": 18890.41291666663,
      "d": 161.5165416666605,
      "v": 60
    },
    {
      "midi": 81,
      "hit": false,
      "t": 18897.435374999965,
      "d": 35.11229166666453,
      "v": 60
    },
    {
      "midi": 68,
      "hit": false,
      "t": 19094.064208333293,
      "d": 84.26949999999852,
      "v": 38
    },
    {
      "midi": 67,
      "hit": false,
      "t": 19213.44599999996,
      "d": 147.47162500000195,
      "v": 48
    },
    {
      "midi": 66,
      "hit": false,
      "t": 19353.89516666663,
      "d": 147.4716249999983,
      "v": 54
    },
    {
      "midi": 81,
      "hit": false,
      "t": 19487.32187499996,
      "d": 182.58391666666648,
      "v": 65
    },
    {
      "midi": 77,
      "hit": false,
      "t": 19494.344333333294,
      "d": 175.56145833333358,
      "v": 65
    },
    {
      "midi": 74,
      "hit": false,
      "t": 19494.344333333294,
      "d": 498.5945416666691,
      "v": 61
    },
    {
      "midi": 72,
      "hit": false,
      "t": 19501.366791666627,
      "d": 456.459791666668,
      "v": 56
    },
    {
      "midi": 53,
      "hit": false,
      "t": 19515.41170833331,
      "d": 323.0330833333355,
      "v": 61
    },
    {
      "midi": 65,
      "hit": false,
      "t": 19522.434166666626,
      "d": 554.774208333336,
      "v": 60
    },
    {
      "midi": 57,
      "hit": false,
      "t": 19522.434166666644,
      "d": 372.1902916666695,
      "v": 56
    },
    {
      "midi": 60,
      "hit": false,
      "t": 19529.456624999977,
      "d": 372.1902916666695,
      "v": 57
    },
    {
      "midi": 45,
      "hit": false,
      "t": 19529.456624999977,
      "d": 653.088625000004,
      "v": 45
    },
    {
      "midi": 53,
      "hit": false,
      "t": 20196.590166666647,
      "d": 224.71866666666756,
      "v": 52
    },
    {
      "midi": 57,
      "hit": false,
      "t": 20196.590166666647,
      "d": 231.74112500000047,
      "v": 49
    },
    {
      "midi": 60,
      "hit": false,
      "t": 20203.61262499998,
      "d": 238.76358333333337,
      "v": 50
    },
    {
      "midi": 50,
      "hit": false,
      "t": 20210.635083333313,
      "d": 646.0661666666674,
      "v": 39
    },
    {
      "midi": 79,
      "hit": false,
      "t": 20217.65754166663,
      "d": 301.96570833332953,
      "v": 68
    },
    {
      "midi": 74,
      "hit": false,
      "t": 20217.65754166663,
      "d": 308.98816666666244,
      "v": 70
    },
    {
      "midi": 71,
      "hit": false,
      "t": 20224.679999999964,
      "d": 358.1453749999964,
      "v": 62
    },
    {
      "midi": 76,
      "hit": false,
      "t": 20231.702458333297,
      "d": 259.8309583333321,
      "v": 63
    },
    {
      "midi": 64,
      "hit": false,
      "t": 20238.72491666663,
      "d": 554.7742083333324,
      "v": 51
    },
    {
      "midi": 70,
      "hit": false,
      "t": 20870.746166666628,
      "d": 428.3699583333364,
      "v": 65
    },
    {
      "midi": 73,
      "hit": false,
      "t": 20870.746166666628,
      "d": 428.3699583333364,
      "v": 60
    },
    {
      "midi": 76,
      "hit": false,
      "t": 20870.746166666628,
      "d": 449.4373333333351,
      "v": 65
    },
    {
      "midi": 64,
      "hit": false,
      "t": 20870.746166666646,
      "d": 189.6063749999994,
      "v": 56
    },
    {
      "midi": 58,
      "hit": false,
      "t": 20870.746166666646,
      "d": 351.12291666666715,
      "v": 57
    },
    {
      "midi": 67,
      "hit": false,
      "t": 20884.791083333293,
      "d": 337.07800000000134,
      "v": 54
    },
    {
      "midi": 49,
      "hit": false,
      "t": 20884.79108333331,
      "d": 56.17966666666689,
      "v": 44
    },
    {
      "midi": 55,
      "hit": false,
      "t": 20884.79108333331,
      "d": 189.6063749999994,
      "v": 51
    },
    {
      "midi": 61,
      "hit": false,
      "t": 20884.79108333331,
      "d": 245.78604166666628,
      "v": 50
    },
    {
      "midi": 61,
      "hit": false,
      "t": 20898.83599999996,
      "d": 365.1678333333366,
      "v": 50
    },
    {
      "midi": 65,
      "hit": false,
      "t": 21572.991999999962,
      "d": 449.4373333333315,
      "v": 51
    },
    {
      "midi": 70,
      "hit": false,
      "t": 21572.991999999962,
      "d": 449.4373333333315,
      "v": 56
    },
    {
      "midi": 74,
      "hit": false,
      "t": 21572.991999999962,
      "d": 1116.5708749999976,
      "v": 61
    },
    {
      "midi": 60,
      "hit": false,
      "t": 21580.014458333295,
      "d": 421.34749999999985,
      "v": 40
    },
    {
      "midi": 54,
      "hit": false,
      "t": 21580.014458333295,
      "d": 941.009416666664,
      "v": 43
    },
    {
      "midi": 58,
      "hit": false,
      "t": 21580.014458333313,
      "d": 484.54962499999965,
      "v": 58
    },
    {
      "midi": 65,
      "hit": false,
      "t": 21580.014458333313,
      "d": 582.8640416666676,
      "v": 63
    },
    {
      "midi": 54,
      "hit": false,
      "t": 21587.036916666646,
      "d": 477.52716666666674,
      "v": 53
    },
    {
      "midi": 32,
      "hit": false,
      "t": 21594.05937499998,
      "d": 589.8865000000005,
      "v": 41
    },
    {
      "midi": 44,
      "hit": false,
      "t": 21601.08183333331,
      "d": 449.4373333333351,
      "v": 36
    },
    {
      "midi": 70,
      "hit": false,
      "t": 22282.260291666626,
      "d": 428.36995833333276,
      "v": 43
    },
    {
      "midi": 60,
      "hit": false,
      "t": 22289.28274999996,
      "d": 182.58391666666648,
      "v": 28
    },
    {
      "midi": 65,
      "hit": false,
      "t": 22303.327666666624,
      "d": 316.0106250000026,
      "v": 37
    },
    {
      "midi": 58,
      "hit": false,
      "t": 22303.327666666646,
      "d": 435.39241666666567,
      "v": 55
    },
    {
      "midi": 44,
      "hit": false,
      "t": 22310.35012499998,
      "d": 294.94325000000026,
      "v": 49
    },
    {
      "midi": 54,
      "hit": false,
      "t": 22310.35012499998,
      "d": 294.94325000000026,
      "v": 48
    },
    {
      "midi": 61,
      "hit": false,
      "t": 22310.35012499998,
      "d": 407.30258333333404,
      "v": 56
    },
    {
      "midi": 32,
      "hit": false,
      "t": 22366.529791666646,
      "d": 287.92079166666736,
      "v": 19
    },
    {
      "midi": 53,
      "hit": false,
      "t": 22935.348916666644,
      "d": 330.0555416666648,
      "v": 51
    },
    {
      "midi": 60,
      "hit": false,
      "t": 22949.39383333331,
      "d": 266.853416666665,
      "v": 50
    },
    {
      "midi": 31,
      "hit": false,
      "t": 22949.39383333331,
      "d": 498.59454166666546,
      "v": 40
    },
    {
      "midi": 43,
      "hit": false,
      "t": 22956.416291666643,
      "d": 224.71866666666392,
      "v": 37
    },
    {
      "midi": 57,
      "hit": false,
      "t": 22963.438749999976,
      "d": 252.80849999999919,
      "v": 43
    },
    {
      "midi": 65,
      "hit": false,
      "t": 23012.59595833329,
      "d": 133.42670833332886,
      "v": 33
    },
    {
      "midi": 69,
      "hit": false,
      "t": 23012.59595833329,
      "d": 189.6063749999921,
      "v": 39
    },
    {
      "midi": 62,
      "hit": false,
      "t": 23040.685791666623,
      "d": 133.42670833332886,
      "v": 29
    },
    {
      "midi": 55,
      "hit": false,
      "t": 23047.708249999956,
      "d": 133.42670833332886,
      "v": 32
    },
    {
      "midi": 61,
      "hit": false,
      "t": 23581.415083333282,
      "d": 112.35933333333014,
      "v": 48
    },
    {
      "midi": 55,
      "hit": false,
      "t": 23588.43754166664,
      "d": 358.14537500000006,
      "v": 79
    },
    {
      "midi": 64,
      "hit": false,
      "t": 23588.43754166664,
      "d": 372.19029166666587,
      "v": 71
    },
    {
      "midi": 58,
      "hit": false,
      "t": 23588.43754166664,
      "d": 526.6843750000007,
      "v": 75
    },
    {
      "midi": 61,
      "hit": false,
      "t": 23588.43754166664,
      "d": 589.8865000000005,
      "v": 69
    },
    {
      "midi": 62,
      "hit": false,
      "t": 23637.59474999995,
      "d": 56.17966666666325,
      "v": 56
    },
    {
      "midi": 49,
      "hit": false,
      "t": 23637.594749999975,
      "d": 512.6394583333349,
      "v": 52
    },
    {
      "midi": 73,
      "hit": false,
      "t": 23651.639666666615,
      "d": 175.56145833332994,
      "v": 86
    },
    {
      "midi": 70,
      "hit": false,
      "t": 23658.662124999948,
      "d": 133.42670833332886,
      "v": 88
    },
    {
      "midi": 79,
      "hit": false,
      "t": 23658.662124999948,
      "d": 175.56145833332994,
      "v": 86
    },
    {
      "midi": 77,
      "hit": false,
      "t": 23679.729499999947,
      "d": 42.13474999999744,
      "v": 54
    },
    {
      "midi": 64,
      "hit": false,
      "t": 23679.729499999947,
      "d": 203.6512916666652,
      "v": 68
    },
    {
      "midi": 76,
      "hit": false,
      "t": 23693.774416666613,
      "d": 35.11229166666453,
      "v": 44
    },
    {
      "midi": 61,
      "hit": false,
      "t": 23918.49308333328,
      "d": 189.6063749999994,
      "v": 48
    },
    {
      "midi": 79,
      "hit": false,
      "t": 24087.03208333328,
      "d": 98.31441666666433,
      "v": 78
    },
    {
      "midi": 70,
      "hit": false,
      "t": 24087.03208333328,
      "d": 126.40424999999595,
      "v": 73
    },
    {
      "midi": 73,
      "hit": false,
      "t": 24087.03208333328,
      "d": 161.51654166666412,
      "v": 69
    },
    {
      "midi": 64,
      "hit": false,
      "t": 24108.09945833328,
      "d": 217.69620833333101,
      "v": 61
    },
    {
      "midi": 77,
      "hit": false,
      "t": 24157.256666666613,
      "d": 42.13474999999744,
      "v": 25
    },
    {
      "midi": 60,
      "hit": false,
      "t": 24248.548624999974,
      "d": 421.34749999999985,
      "v": 75
    },
    {
      "midi": 65,
      "hit": false,
      "t": 24248.548624999974,
      "d": 1235.952666666668,
      "v": 76
    },
    {
      "midi": 50,
      "hit": false,
      "t": 24255.571083333307,
      "d": 477.52716666666674,
      "v": 72
    },
    {
      "midi": 57,
      "hit": false,
      "t": 24262.59354166664,
      "d": 358.14537500000006,
      "v": 73
    },
    {
      "midi": 69,
      "hit": false,
      "t": 24339.840583333276,
      "d": 77.24704166666561,
      "v": 72
    },
    {
      "midi": 72,
      "hit": false,
      "t": 24339.840583333276,
      "d": 126.40424999999595,
      "v": 69
    },
    {
      "midi": 62,
      "hit": false,
      "t": 24353.885499999942,
      "d": 98.31441666666433,
      "v": 60
    },
    {
      "midi": 77,
      "hit": false,
      "t": 24353.885499999942,
      "d": 133.42670833332886,
      "v": 72
    },
    {
      "midi": 74,
      "hit": false,
      "t": 24754.165624999936,
      "d": 154.49408333333122,
      "v": 96
    },
    {
      "midi": 77,
      "hit": false,
      "t": 24754.165624999936,
      "d": 168.53899999999703,
      "v": 88
    },
    {
      "midi": 81,
      "hit": false,
      "t": 24754.165624999936,
      "d": 168.53899999999703,
      "v": 82
    },
    {
      "midi": 84,
      "hit": false,
      "t": 24754.165624999936,
      "d": 175.56145833332994,
      "v": 96
    },
    {
      "midi": 69,
      "hit": false,
      "t": 24768.2105416666,
      "d": 168.53899999999703,
      "v": 84
    },
    {
      "midi": 60,
      "hit": false,
      "t": 24950.79445833331,
      "d": 294.94325000000026,
      "v": 54
    },
    {
      "midi": 50,
      "hit": false,
      "t": 24964.839374999974,
      "d": 196.6288333333323,
      "v": 45
    },
    {
      "midi": 57,
      "hit": false,
      "t": 24985.906749999973,
      "d": 217.69620833333465,
      "v": 24
    },
    {
      "midi": 84,
      "hit": false,
      "t": 25021.019041666597,
      "d": 133.42670833332886,
      "v": 77
    },
    {
      "midi": 69,
      "hit": false,
      "t": 25021.019041666597,
      "d": 147.47162499999467,
      "v": 65
    },
    {
      "midi": 77,
      "hit": false,
      "t": 25028.04149999993,
      "d": 140.44916666666177,
      "v": 82
    },
    {
      "midi": 81,
      "hit": false,
      "t": 25042.086416666596,
      "d": 84.26949999999852,
      "v": 63
    },
    {
      "midi": 74,
      "hit": false,
      "t": 25042.086416666596,
      "d": 105.33687499999724,
      "v": 81
    },
    {
      "midi": 65,
      "hit": false,
      "t": 25421.29916666659,
      "d": 210.6737499999981,
      "v": 57
    },
    {
      "midi": 81,
      "hit": false,
      "t": 25435.344083333257,
      "d": 112.35933333333378,
      "v": 63
    },
    {
      "midi": 74,
      "hit": false,
      "t": 25435.344083333257,
      "d": 147.4716249999983,
      "v": 61
    },
    {
      "midi": 72,
      "hit": false,
      "t": 25435.344083333257,
      "d": 154.49408333333122,
      "v": 62
    },
    {
      "midi": 77,
      "hit": false,
      "t": 25442.36654166659,
      "d": 119.38179166666669,
      "v": 61
    },
    {
      "midi": 53,
      "hit": false,
      "t": 25610.90554166664,
      "d": 330.05554166666843,
      "v": 39
    },
    {
      "midi": 62,
      "hit": false,
      "t": 25617.927999999974,
      "d": 224.71866666666756,
      "v": 51
    },
    {
      "midi": 43,
      "hit": false,
      "t": 25617.927999999974,
      "d": 891.8522083333337,
      "v": 42
    },
    {
      "midi": 59,
      "hit": false,
      "t": 25624.950458333307,
      "d": 266.85341666666864,
      "v": 43
    },
    {
      "midi": 64,
      "hit": false,
      "t": 25702.197499999922,
      "d": 119.38179166666305,
      "v": 47
    },
    {
      "midi": 79,
      "hit": false,
      "t": 25709.219958333255,
      "d": 133.42670833332886,
      "v": 50
    },
    {
      "midi": 74,
      "hit": false,
      "t": 25716.242416666588,
      "d": 105.33687499999724,
      "v": 48
    },
    {
      "midi": 71,
      "hit": false,
      "t": 25723.26487499992,
      "d": 77.24704166666561,
      "v": 48
    },
    {
      "midi": 76,
      "hit": false,
      "t": 25751.354708333252,
      "d": 49.15720833333398,
      "v": 31
    },
    {
      "midi": 79,
      "hit": false,
      "t": 26081.410249999917,
      "d": 105.33687499999724,
      "v": 61
    },
    {
      "midi": 74,
      "hit": false,
      "t": 26095.455166666583,
      "d": 112.35933333333014,
      "v": 49
    },
    {
      "midi": 64,
      "hit": false,
      "t": 26095.455166666583,
      "d": 196.62883333332866,
      "v": 46
    },
    {
      "midi": 71,
      "hit": false,
      "t": 26109.50008333325,
      "d": 84.26949999999852,
      "v": 33
    },
    {
      "midi": 59,
      "hit": false,
      "t": 26299.10645833331,
      "d": 217.69620833333101,
      "v": 48
    },
    {
      "midi": 57,
      "hit": false,
      "t": 26320.17383333331,
      "d": 210.6737499999981,
      "v": 39
    },
    {
      "midi": 77,
      "hit": false,
      "t": 26341.241208333246,
      "d": 154.49408333332758,
      "v": 52
    },
    {
      "midi": 53,
      "hit": false,
      "t": 26341.241208333307,
      "d": 91.29195833333506,
      "v": 33
    },
    {
      "midi": 62,
      "hit": false,
      "t": 26348.26366666658,
      "d": 133.42670833332886,
      "v": 50
    },
    {
      "midi": 74,
      "hit": false,
      "t": 26355.28612499991,
      "d": 91.29195833333142,
      "v": 46
    },
    {
      "midi": 72,
      "hit": false,
      "t": 26355.28612499991,
      "d": 98.31441666666433,
      "v": 45
    },
    {
      "midi": 69,
      "hit": false,
      "t": 26369.331041666577,
      "d": 56.17966666666689,
      "v": 23
    },
    {
      "midi": 36,
      "hit": false,
      "t": 26938.150166666637,
      "d": 154.49408333333486,
      "v": 54
    },
    {
      "midi": 52,
      "hit": false,
      "t": 26980.28491666664,
      "d": 182.58391666666648,
      "v": 53
    },
    {
      "midi": 73,
      "hit": false,
      "t": 27015.39720833324,
      "d": 119.38179166666669,
      "v": 85
    },
    {
      "midi": 75,
      "hit": false,
      "t": 27015.39720833324,
      "d": 154.49408333333486,
      "v": 86
    },
    {
      "midi": 82,
      "hit": false,
      "t": 27015.39720833324,
      "d": 161.51654166666776,
      "v": 85
    },
    {
      "midi": 66,
      "hit": false,
      "t": 27015.39720833324,
      "d": 245.78604166666628,
      "v": 76
    },
    {
      "midi": 78,
      "hit": false,
      "t": 27036.46458333324,
      "d": 35.11229166666817,
      "v": 57
    },
    {
      "midi": 83,
      "hit": false,
      "t": 27219.04849999991,
      "d": 294.9432499999966,
      "v": 81
    },
    {
      "midi": 74,
      "hit": false,
      "t": 27226.070958333243,
      "d": 330.0555416666648,
      "v": 83
    },
    {
      "midi": 76,
      "hit": false,
      "t": 27233.093416666576,
      "d": 287.9207916666637,
      "v": 77
    },
    {
      "midi": 67,
      "hit": false,
      "t": 27240.11587499991,
      "d": 428.36995833333276,
      "v": 75
    },
    {
      "midi": 79,
      "hit": false,
      "t": 27254.160791666574,
      "d": 252.80849999999919,
      "v": 66
    },
    {
      "midi": 81,
      "hit": false,
      "t": 27310.34045833324,
      "d": 161.51654166666412,
      "v": 29
    },
    {
      "midi": 59,
      "hit": false,
      "t": 27647.418458333304,
      "d": 231.74112500000047,
      "v": 76
    },
    {
      "midi": 71,
      "hit": false,
      "t": 27647.418458333304,
      "d": 301.96570833333317,
      "v": 81
    },
    {
      "midi": 64,
      "hit": false,
      "t": 27647.418458333304,
      "d": 358.14537500000006,
      "v": 86
    },
    {
      "midi": 62,
      "hit": false,
      "t": 27654.440916666637,
      "d": 330.05554166666843,
      "v": 85
    },
    {
      "midi": 67,
      "hit": false,
      "t": 27654.440916666637,
      "d": 351.12291666666715,
      "v": 63
    },
    {
      "midi": 79,
      "hit": false,
      "t": 27689.55320833324,
      "d": 330.05554166666116,
      "v": 77
    },
    {
      "midi": 76,
      "hit": false,
      "t": 27696.575666666573,
      "d": 287.9207916666637,
      "v": 73
    },
    {
      "midi": 71,
      "hit": false,
      "t": 27696.575666666573,
      "d": 344.10045833332697,
      "v": 68
    },
    {
      "midi": 74,
      "hit": false,
      "t": 27703.598124999906,
      "d": 301.96570833332953,
      "v": 72
    },
    {
      "midi": 64,
      "hit": false,
      "t": 27703.598124999906,
      "d": 610.9538749999956,
      "v": 65
    },
    {
      "midi": 70,
      "hit": false,
      "t": 28314.55199999997,
      "d": 646.0661666666674,
      "v": 66
    },
    {
      "midi": 73,
      "hit": false,
      "t": 28321.574458333234,
      "d": 442.4148750000022,
      "v": 58
    },
    {
      "midi": 66,
      "hit": false,
      "t": 28321.574458333303,
      "d": 442.4148750000022,
      "v": 65
    },
    {
      "midi": 77,
      "hit": false,
      "t": 28328.596916666567,
      "d": 287.92079166666736,
      "v": 68
    },
    {
      "midi": 67,
      "hit": false,
      "t": 28328.596916666567,
      "d": 379.2127500000024,
      "v": 46
    },
    {
      "midi": 70,
      "hit": false,
      "t": 28328.596916666567,
      "d": 428.3699583333364,
      "v": 54
    },
    {
      "midi": 61,
      "hit": false,
      "t": 28328.596916666567,
      "d": 737.3581250000025,
      "v": 54
    },
    {
      "midi": 61,
      "hit": false,
      "t": 28328.596916666636,
      "d": 379.2127500000024,
      "v": 65
    },
    {
      "midi": 55,
      "hit": false,
      "t": 28335.61937499997,
      "d": 610.9538750000029,
      "v": 55
    },
    {
      "midi": 70,
      "hit": false,
      "t": 28981.68554166657,
      "d": 196.6288333333323,
      "v": 46
    },
    {
      "midi": 57,
      "hit": false,
      "t": 28988.707999999904,
      "d": 119.38179166666669,
      "v": 41
    },
    {
      "midi": 67,
      "hit": false,
      "t": 28988.707999999904,
      "d": 119.38179166666669,
      "v": 39
    },
    {
      "midi": 73,
      "hit": false,
      "t": 28988.707999999904,
      "d": 224.71866666666392,
      "v": 40
    },
    {
      "midi": 76,
      "hit": false,
      "t": 28995.730458333237,
      "d": 203.6512916666652,
      "v": 46
    },
    {
      "midi": 61,
      "hit": false,
      "t": 29009.775374999972,
      "d": 273.87587500000154,
      "v": 51
    },
    {
      "midi": 66,
      "hit": false,
      "t": 29009.775374999972,
      "d": 463.48225000000093,
      "v": 54
    },
    {
      "midi": 45,
      "hit": false,
      "t": 29023.820291666638,
      "d": 49.15720833333398,
      "v": 39
    },
    {
      "midi": 80,
      "hit": false,
      "t": 29662.863999999903,
      "d": 154.49408333333122,
      "v": 78
    },
    {
      "midi": 64,
      "hit": false,
      "t": 29669.886458333236,
      "d": 175.56145833332994,
      "v": 62
    },
    {
      "midi": 74,
      "hit": false,
      "t": 29676.90891666657,
      "d": 140.4491666666654,
      "v": 72
    },
    {
      "midi": 72,
      "hit": false,
      "t": 29683.931374999902,
      "d": 91.29195833333506,
      "v": 65
    },
    {
      "midi": 65,
      "hit": false,
      "t": 29697.976291666637,
      "d": 344.1004583333306,
      "v": 50
    },
    {
      "midi": 60,
      "hit": false,
      "t": 29697.976291666637,
      "d": 407.3025833333304,
      "v": 48
    },
    {
      "midi": 69,
      "hit": false,
      "t": 29719.043666666636,
      "d": 294.94325000000026,
      "v": 46
    },
    {
      "midi": 78,
      "hit": false,
      "t": 29740.11104166657,
      "d": 63.202124999999796,
      "v": 26
    },
    {
      "midi": 72,
      "hit": false,
      "t": 29866.515291666565,
      "d": 280.8983333333272,
      "v": 61
    },
    {
      "midi": 81,
      "hit": false,
      "t": 29866.515291666565,
      "d": 280.8983333333272,
      "v": 72
    },
    {
      "midi": 77,
      "hit": false,
      "t": 29873.537749999898,
      "d": 245.78604166666264,
      "v": 61
    },
    {
      "midi": 74,
      "hit": false,
      "t": 29873.537749999898,
      "d": 294.943249999993,
      "v": 52
    },
    {
      "midi": 65,
      "hit": false,
      "t": 29873.537749999898,
      "d": 477.52716666665947,
      "v": 61
    },
    {
      "midi": 79,
      "hit": false,
      "t": 29978.874624999895,
      "d": 168.53899999999703,
      "v": 17
    },
    {
      "midi": 53,
      "hit": false,
      "t": 30133.3687083333,
      "d": 189.6063749999994,
      "v": 47
    },
    {
      "midi": 77,
      "hit": false,
      "t": 30344.042458333224,
      "d": 287.9207916666601,
      "v": 66
    },
    {
      "midi": 72,
      "hit": false,
      "t": 30351.064916666557,
      "d": 301.9657083333259,
      "v": 57
    },
    {
      "midi": 69,
      "hit": false,
      "t": 30351.064916666557,
      "d": 316.0106249999917,
      "v": 56
    },
    {
      "midi": 62,
      "hit": false,
      "t": 30365.109833333223,
      "d": 217.69620833333101,
      "v": 56
    },
    {
      "midi": 74,
      "hit": false,
      "t": 30365.109833333223,
      "d": 245.78604166666264,
      "v": 57
    },
    {
      "midi": 38,
      "hit": false,
      "t": 30386.177208333298,
      "d": 140.4491666666654,
      "v": 48
    },
    {
      "midi": 56,
      "hit": false,
      "t": 31011.175999999963,
      "d": 428.3699583333364,
      "v": 48
    },
    {
      "midi": 52,
      "hit": false,
      "t": 31018.198458333296,
      "d": 505.617000000002,
      "v": 43
    },
    {
      "midi": 76,
      "hit": false,
      "t": 31025.22091666655,
      "d": 351.1229166666635,
      "v": 60
    },
    {
      "midi": 65,
      "hit": false,
      "t": 31025.22091666655,
      "d": 414.3250416666633,
      "v": 48
    },
    {
      "midi": 62,
      "hit": false,
      "t": 31025.22091666655,
      "d": 716.2907499999928,
      "v": 52
    },
    {
      "midi": 62,
      "hit": false,
      "t": 31025.22091666663,
      "d": 344.1004583333379,
      "v": 49
    },
    {
      "midi": 67,
      "hit": false,
      "t": 31025.22091666663,
      "d": 428.3699583333364,
      "v": 41
    },
    {
      "midi": 68,
      "hit": false,
      "t": 31046.288291666548,
      "d": 463.4822499999973,
      "v": 46
    },
    {
      "midi": 71,
      "hit": false,
      "t": 31053.31074999988,
      "d": 484.549624999996,
      "v": 54
    },
    {
      "midi": 40,
      "hit": false,
      "t": 31060.333208333297,
      "d": 744.3805833333317,
      "v": 28
    },
    {
      "midi": 62,
      "hit": false,
      "t": 31671.287083333296,
      "d": 196.6288333333323,
      "v": 54
    },
    {
      "midi": 56,
      "hit": false,
      "t": 31671.287083333296,
      "d": 210.6737499999981,
      "v": 50
    },
    {
      "midi": 47,
      "hit": false,
      "t": 31713.421833333297,
      "d": 147.4716249999983,
      "v": 26
    },
    {
      "midi": 65,
      "hit": false,
      "t": 31713.421833333297,
      "d": 175.56145833332994,
      "v": 40
    },
    {
      "midi": 68,
      "hit": false,
      "t": 31720.444291666543,
      "d": 337.0779999999977,
      "v": 38
    },
    {
      "midi": 65,
      "hit": false,
      "t": 31734.48920833321,
      "d": 266.853416666665,
      "v": 33
    },
    {
      "midi": 71,
      "hit": false,
      "t": 31741.51166666654,
      "d": 182.58391666666648,
      "v": 36
    },
    {
      "midi": 74,
      "hit": false,
      "t": 31741.51166666654,
      "d": 266.853416666665,
      "v": 45
    },
    {
      "midi": 56,
      "hit": false,
      "t": 31741.51166666654,
      "d": 533.7068333333336,
      "v": 43
    },
    {
      "midi": 57,
      "hit": false,
      "t": 32352.46554166654,
      "d": 112.35933333333014,
      "v": 39
    },
    {
      "midi": 72,
      "hit": false,
      "t": 32352.46554166654,
      "d": 168.53899999999703,
      "v": 48
    },
    {
      "midi": 67,
      "hit": false,
      "t": 32352.46554166654,
      "d": 217.69620833333101,
      "v": 54
    },
    {
      "midi": 55,
      "hit": false,
      "t": 32352.46554166663,
      "d": 112.35933333333378,
      "v": 42
    },
    {
      "midi": 64,
      "hit": false,
      "t": 32359.487999999874,
      "d": 154.49408333333122,
      "v": 31
    },
    {
      "midi": 64,
      "hit": false,
      "t": 32359.48799999996,
      "d": 119.38179166666669,
      "v": 49
    },
    {
      "midi": 60,
      "hit": false,
      "t": 32373.532916666627,
      "d": 91.29195833333506,
      "v": 47
    },
    {
      "midi": 45,
      "hit": false,
      "t": 32373.532916666627,
      "d": 112.35933333333378,
      "v": 31
    },
    {
      "midi": 64,
      "hit": false,
      "t": 32822.97024999996,
      "d": 42.13474999999744,
      "v": 48
    },
    {
      "midi": 55,
      "hit": false,
      "t": 32829.992708333295,
      "d": 70.22458333332906,
      "v": 43
    },
    {
      "midi": 60,
      "hit": false,
      "t": 32829.992708333295,
      "d": 91.29195833332778,
      "v": 57
    },
    {
      "midi": 45,
      "hit": false,
      "t": 32837.01516666663,
      "d": 168.53899999999703,
      "v": 51
    },
    {
      "midi": 71,
      "hit": false,
      "t": 33033.64399999987,
      "d": 273.8758749999979,
      "v": 59
    },
    {
      "midi": 66,
      "hit": false,
      "t": 33033.64399999987,
      "d": 449.43733333332784,
      "v": 61
    },
    {
      "midi": 54,
      "hit": false,
      "t": 33047.688916666535,
      "d": 273.8758749999979,
      "v": 41
    },
    {
      "midi": 59,
      "hit": false,
      "t": 33047.688916666535,
      "d": 287.9207916666637,
      "v": 46
    },
    {
      "midi": 44,
      "hit": false,
      "t": 33047.688916666535,
      "d": 308.98816666666244,
      "v": 47
    },
    {
      "midi": 54,
      "hit": false,
      "t": 33047.68891666662,
      "d": 316.0106250000026,
      "v": 50
    },
    {
      "midi": 44,
      "hit": false,
      "t": 33047.68891666662,
      "d": 547.7517500000031,
      "v": 49
    },
    {
      "midi": 63,
      "hit": false,
      "t": 33054.711374999955,
      "d": 379.21275000000605,
      "v": 45
    },
    {
      "midi": 59,
      "hit": false,
      "t": 33075.778749999954,
      "d": 294.9432500000039,
      "v": 49
    },
    {
      "midi": 53,
      "hit": false,
      "t": 33679.71016666663,
      "d": 245.78604166666628,
      "v": 33
    },
    {
      "midi": 58,
      "hit": false,
      "t": 33679.71016666663,
      "d": 294.9432499999966,
      "v": 49
    },
    {
      "midi": 43,
      "hit": false,
      "t": 33686.73262499996,
      "d": 98.31441666666797,
      "v": 31
    },
    {
      "midi": 62,
      "hit": false,
      "t": 33686.73262499996,
      "d": 126.40424999999959,
      "v": 48
    },
    {
      "midi": 58,
      "hit": false,
      "t": 33700.77754166653,
      "d": 140.4491666666654,
      "v": 48
    },
    {
      "midi": 70,
      "hit": false,
      "t": 33700.77754166653,
      "d": 330.05554166666843,
      "v": 50
    },
    {
      "midi": 65,
      "hit": false,
      "t": 33721.84491666653,
      "d": 189.60637500000303,
      "v": 47
    },
    {
      "midi": 53,
      "hit": false,
      "t": 33721.84491666653,
      "d": 196.62883333333593,
      "v": 35
    },
    {
      "midi": 43,
      "hit": false,
      "t": 33728.86737499986,
      "d": 112.35933333333378,
      "v": 38
    },
    {
      "midi": 49,
      "hit": false,
      "t": 34325.77633333329,
      "d": 308.98816666666244,
      "v": 41
    },
    {
      "midi": 61,
      "hit": false,
      "t": 34325.77633333329,
      "d": 477.52716666666674,
      "v": 48
    },
    {
      "midi": 52,
      "hit": false,
      "t": 34332.798791666624,
      "d": 161.51654166666412,
      "v": 45
    },
    {
      "midi": 56,
      "hit": false,
      "t": 34332.798791666624,
      "d": 400.2801249999975,
      "v": 50
    },
    {
      "midi": 58,
      "hit": false,
      "t": 34388.9784583332,
      "d": 351.12291666666715,
      "v": 45
    },
    {
      "midi": 53,
      "hit": false,
      "t": 35020.99970833329,
      "d": 140.4491666666654,
      "v": 42
    },
    {
      "midi": 69,
      "hit": false,
      "t": 35028.02216666653,
      "d": 386.2352083333317,
      "v": 56
    },
    {
      "midi": 64,
      "hit": false,
      "t": 35028.02216666653,
      "d": 435.39241666666203,
      "v": 30
    },
    {
      "midi": 57,
      "hit": false,
      "t": 35028.022166666626,
      "d": 140.4491666666654,
      "v": 41
    },
    {
      "midi": 60,
      "hit": false,
      "t": 35028.022166666626,
      "d": 203.65129166666884,
      "v": 49
    },
    {
      "midi": 52,
      "hit": false,
      "t": 35035.04462499996,
      "d": 301.9657083333368,
      "v": 35
    },
    {
      "midi": 41,
      "hit": false,
      "t": 35042.06708333329,
      "d": 316.0106250000026,
      "v": 35
    },
    {
      "midi": 60,
      "hit": false,
      "t": 35056.11199999986,
      "d": 351.12291666666715,
      "v": 31
    },
    {
      "midi": 57,
      "hit": false,
      "t": 35056.11199999986,
      "d": 919.942041666669,
      "v": 49
    },
    {
      "midi": 67,
      "hit": false,
      "t": 35723.24554166663,
      "d": 252.8084999999919,
      "v": 75
    },
    {
      "midi": 60,
      "hit": false,
      "t": 35730.26799999996,
      "d": 308.98816666665516,
      "v": 72
    },
    {
      "midi": 57,
      "hit": false,
      "t": 35744.312916666626,
      "d": 238.7635833333261,
      "v": 67
    },
    {
      "midi": 52,
      "hit": false,
      "t": 35758.35783333329,
      "d": 63.20212499999616,
      "v": 45
    },
    {
      "midi": 53,
      "hit": false,
      "t": 35772.40274999996,
      "d": 42.13474999999744,
      "v": 34
    },
    {
      "midi": 64,
      "hit": false,
      "t": 35779.425208333196,
      "d": 112.35933333333378,
      "v": 23
    },
    {
      "midi": 81,
      "hit": false,
      "t": 36011.166333333196,
      "d": 112.35933333333378,
      "v": 64
    },
    {
      "midi": 84,
      "hit": false,
      "t": 36228.86254166653,
      "d": 161.51654166666412,
      "v": 117
    },
    {
      "midi": 65,
      "hit": false,
      "t": 36411.44645833328,
      "d": 891.8522083333228,
      "v": 55
    },
    {
      "midi": 60,
      "hit": false,
      "t": 36418.468916666614,
      "d": 266.853416666665,
      "v": 57
    },
    {
      "midi": 56,
      "hit": false,
      "t": 36418.468916666614,
      "d": 273.8758749999979,
      "v": 52
    },
    {
      "midi": 50,
      "hit": false,
      "t": 36418.468916666614,
      "d": 301.96570833332953,
      "v": 39
    },
    {
      "midi": 41,
      "hit": false,
      "t": 36432.51383333328,
      "d": 793.5377916666621,
      "v": 40
    },
    {
      "midi": 56,
      "hit": false,
      "t": 36446.55874999986,
      "d": 1186.795458333334,
      "v": 51
    },
    {
      "midi": 80,
      "hit": false,
      "t": 36467.62612499986,
      "d": 273.8758749999979,
      "v": 76
    },
    {
      "midi": 79,
      "hit": false,
      "t": 36811.72658333319,
      "d": 133.4267083333325,
      "v": 82
    },
    {
      "midi": 80,
      "hit": false,
      "t": 37001.33295833319,
      "d": 126.40424999999959,
      "v": 50
    },
    {
      "midi": 79,
      "hit": false,
      "t": 37057.51262499985,
      "d": 161.5165416666714,
      "v": 60
    },
    {
      "midi": 56,
      "hit": false,
      "t": 37071.55754166661,
      "d": 238.7635833333261,
      "v": 54
    },
    {
      "midi": 50,
      "hit": false,
      "t": 37078.57999999994,
      "d": 182.58391666666284,
      "v": 40
    },
    {
      "midi": 60,
      "hit": false,
      "t": 37099.64737499994,
      "d": 189.60637499999575,
      "v": 56
    },
    {
      "midi": 64,
      "hit": false,
      "t": 37127.73720833319,
      "d": 540.7292916666702,
      "v": 30
    },
    {
      "midi": 60,
      "hit": false,
      "t": 37134.75966666652,
      "d": 653.088625000004,
      "v": 37
    },
    {
      "midi": 77,
      "hit": false,
      "t": 37197.96179166652,
      "d": 98.31441666666797,
      "v": 63
    },
    {
      "midi": 76,
      "hit": false,
      "t": 37380.54570833319,
      "d": 98.31441666666797,
      "v": 48
    },
    {
      "midi": 77,
      "hit": false,
      "t": 37528.01733333319,
      "d": 168.53899999999703,
      "v": 65
    },
    {
      "midi": 79,
      "hit": false,
      "t": 37710.601249999854,
      "d": 189.60637500000303,
      "v": 81
    },
    {
      "midi": 55,
      "hit": false,
      "t": 37731.66862499994,
      "d": 112.35933333333378,
      "v": 49
    },
    {
      "midi": 40,
      "hit": false,
      "t": 37738.69108333327,
      "d": 133.4267083333325,
      "v": 43
    },
    {
      "midi": 52,
      "hit": false,
      "t": 37738.69108333327,
      "d": 210.67375000000175,
      "v": 43
    },
    {
      "midi": 60,
      "hit": false,
      "t": 37872.117791666526,
      "d": 316.01062499999534,
      "v": 22
    },
    {
      "midi": 64,
      "hit": false,
      "t": 37872.117791666526,
      "d": 316.01062499999534,
      "v": 35
    },
    {
      "midi": 76,
      "hit": false,
      "t": 37900.20762499986,
      "d": 182.58391666666284,
      "v": 58
    },
    {
      "midi": 55,
      "hit": false,
      "t": 37921.274999999856,
      "d": 948.0318749999933,
      "v": 25
    },
    {
      "midi": 72,
      "hit": false,
      "t": 38117.903833333185,
      "d": 154.4940833333385,
      "v": 56
    },
    {
      "midi": 74,
      "hit": false,
      "t": 38440.93691666661,
      "d": 182.58391666667012,
      "v": 63
    },
    {
      "midi": 62,
      "hit": false,
      "t": 38440.93691666661,
      "d": 245.78604166667355,
      "v": 68
    },
    {
      "midi": 67,
      "hit": false,
      "t": 38440.93691666661,
      "d": 245.78604166667355,
      "v": 66
    },
    {
      "midi": 60,
      "hit": false,
      "t": 38504.13904166652,
      "d": 301.96570833332953,
      "v": 31
    },
    {
      "midi": 64,
      "hit": false,
      "t": 38511.16149999986,
      "d": 294.9432499999966,
      "v": 25
    },
    {
      "midi": 72,
      "hit": false,
      "t": 38511.16149999986,
      "d": 351.1229166666599,
      "v": 34
    },
    {
      "midi": 60,
      "hit": false,
      "t": 39108.070458333284,
      "d": 210.67375000000175,
      "v": 55
    },
    {
      "midi": 72,
      "hit": false,
      "t": 39108.070458333284,
      "d": 210.67375000000175,
      "v": 63
    },
    {
      "midi": 66,
      "hit": false,
      "t": 39108.070458333284,
      "d": 280.8983333333308,
      "v": 60
    },
    {
      "midi": 63,
      "hit": false,
      "t": 39115.09291666662,
      "d": 252.80849999999919,
      "v": 57
    },
    {
      "midi": 63,
      "hit": false,
      "t": 39571.55270833318,
      "d": 203.65129166666156,
      "v": 82
    },
    {
      "midi": 74,
      "hit": false,
      "t": 39571.55270833318,
      "d": 203.65129166666156,
      "v": 85
    },
    {
      "midi": 66,
      "hit": false,
      "t": 39571.55270833318,
      "d": 231.7411249999932,
      "v": 73
    },
    {
      "midi": 62,
      "hit": false,
      "t": 39585.59762499985,
      "d": 245.786041666659,
      "v": 79
    },
    {
      "midi": 69,
      "hit": false,
      "t": 39592.62008333318,
      "d": 154.49408333333122,
      "v": 56
    },
    {
      "midi": 54,
      "hit": false,
      "t": 39789.24891666661,
      "d": 147.4716249999983,
      "v": 46
    },
    {
      "midi": 69,
      "hit": false,
      "t": 39789.24891666661,
      "d": 154.49408333333122,
      "v": 57
    },
    {
      "midi": 63,
      "hit": false,
      "t": 39789.24891666661,
      "d": 224.71866666666028,
      "v": 54
    },
    {
      "midi": 60,
      "hit": false,
      "t": 39796.271374999946,
      "d": 147.4716249999983,
      "v": 46
    },
    {
      "midi": 66,
      "hit": false,
      "t": 39803.29383333328,
      "d": 189.60637499999575,
      "v": 45
    },
    {
      "midi": 63,
      "hit": false,
      "t": 39859.47349999984,
      "d": 119.38179166666669,
      "v": 58
    },
    {
      "midi": 72,
      "hit": false,
      "t": 39866.49595833317,
      "d": 189.60637499999575,
      "v": 63
    },
    {
      "midi": 60,
      "hit": false,
      "t": 39873.518416666506,
      "d": 140.4491666666654,
      "v": 57
    },
    {
      "midi": 66,
      "hit": false,
      "t": 39873.518416666506,
      "d": 168.53899999999703,
      "v": 50
    },
    {
      "midi": 69,
      "hit": false,
      "t": 39901.60824999984,
      "d": 91.29195833333506,
      "v": 42
    },
    {
      "midi": 50,
      "hit": false,
      "t": 40428.292624999944,
      "d": 210.67374999999447,
      "v": 49
    },
    {
      "midi": 65,
      "hit": false,
      "t": 40428.292624999944,
      "d": 238.7635833333261,
      "v": 57
    },
    {
      "midi": 60,
      "hit": false,
      "t": 40449.35999999994,
      "d": 196.62883333332866,
      "v": 52
    },
    {
      "midi": 57,
      "hit": false,
      "t": 40449.35999999994,
      "d": 252.8084999999919,
      "v": 48
    },
    {
      "midi": 77,
      "hit": false,
      "t": 40470.42737499983,
      "d": 287.920791666671,
      "v": 87
    },
    {
      "midi": 74,
      "hit": false,
      "t": 40470.42737499983,
      "d": 301.9657083333368,
      "v": 92
    },
    {
      "midi": 84,
      "hit": false,
      "t": 40470.42737499983,
      "d": 323.0330833333355,
      "v": 102
    },
    {
      "midi": 69,
      "hit": false,
      "t": 40470.42737499983,
      "d": 330.05554166666843,
      "v": 85
    },
    {
      "midi": 81,
      "hit": false,
      "t": 40470.42737499983,
      "d": 344.10045833333425,
      "v": 84
    },
    {
      "midi": 84,
      "hit": false,
      "t": 40884.7524166665,
      "d": 98.31441666666797,
      "v": 70
    },
    {
      "midi": 77,
      "hit": false,
      "t": 40898.79733333317,
      "d": 91.29195833333506,
      "v": 75
    },
    {
      "midi": 69,
      "hit": false,
      "t": 40898.79733333317,
      "d": 189.60637499999575,
      "v": 59
    },
    {
      "midi": 74,
      "hit": false,
      "t": 40905.8197916665,
      "d": 119.38179166666669,
      "v": 63
    },
    {
      "midi": 53,
      "hit": false,
      "t": 41081.38124999993,
      "d": 287.9207916666637,
      "v": 51
    },
    {
      "midi": 45,
      "hit": false,
      "t": 41088.403708333266,
      "d": 49.157208333330345,
      "v": 49
    },
    {
      "midi": 57,
      "hit": false,
      "t": 41088.403708333266,
      "d": 280.8983333333308,
      "v": 49
    },
    {
      "midi": 60,
      "hit": false,
      "t": 41095.4261666666,
      "d": 316.01062499999534,
      "v": 51
    },
    {
      "midi": 72,
      "hit": false,
      "t": 41144.58337499983,
      "d": 126.40424999999959,
      "v": 62
    },
    {
      "midi": 81,
      "hit": false,
      "t": 41144.58337499983,
      "d": 147.4716249999983,
      "v": 56
    },
    {
      "midi": 74,
      "hit": false,
      "t": 41158.62829166649,
      "d": 119.38179166666669,
      "v": 57
    },
    {
      "midi": 65,
      "hit": false,
      "t": 41158.62829166649,
      "d": 133.4267083333325,
      "v": 57
    },
    {
      "midi": 77,
      "hit": false,
      "t": 41158.62829166649,
      "d": 133.4267083333325,
      "v": 55
    },
    {
      "midi": 81,
      "hit": false,
      "t": 41565.93087499982,
      "d": 77.24704166666197,
      "v": 68
    },
    {
      "midi": 72,
      "hit": false,
      "t": 41572.95333333316,
      "d": 63.20212499999616,
      "v": 65
    },
    {
      "midi": 65,
      "hit": false,
      "t": 41572.95333333316,
      "d": 140.44916666665813,
      "v": 62
    },
    {
      "midi": 77,
      "hit": false,
      "t": 41579.97579166649,
      "d": 35.11229166666453,
      "v": 52
    },
    {
      "midi": 74,
      "hit": false,
      "t": 41579.97579166649,
      "d": 77.24704166666197,
      "v": 63
    },
    {
      "midi": 53,
      "hit": false,
      "t": 41741.49233333326,
      "d": 386.2352083333317,
      "v": 51
    },
    {
      "midi": 56,
      "hit": false,
      "t": 41755.53724999993,
      "d": 442.41487499999494,
      "v": 44
    },
    {
      "midi": 62,
      "hit": false,
      "t": 41755.53724999993,
      "d": 568.8191249999945,
      "v": 54
    },
    {
      "midi": 43,
      "hit": false,
      "t": 41762.55970833326,
      "d": 716.2907499999928,
      "v": 40
    },
    {
      "midi": 59,
      "hit": false,
      "t": 41783.62708333326,
      "d": 379.2127499999988,
      "v": 41
    },
    {
      "midi": 74,
      "hit": false,
      "t": 41825.76183333315,
      "d": 175.56145833332266,
      "v": 49
    },
    {
      "midi": 64,
      "hit": false,
      "t": 41825.76183333315,
      "d": 372.1902916666513,
      "v": 51
    },
    {
      "midi": 79,
      "hit": false,
      "t": 41832.78429166648,
      "d": 133.42670833332522,
      "v": 45
    },
    {
      "midi": 71,
      "hit": false,
      "t": 41832.78429166648,
      "d": 189.60637499998847,
      "v": 51
    },
    {
      "midi": 76,
      "hit": false,
      "t": 41867.896583333146,
      "d": 70.22458333332906,
      "v": 46
    },
    {
      "midi": 31,
      "hit": false,
      "t": 42429.693249999924,
      "d": 42.13474999999744,
      "v": 47
    },
    {
      "midi": 56,
      "hit": false,
      "t": 42436.71570833326,
      "d": 189.60637500000303,
      "v": 49
    },
    {
      "midi": 76,
      "hit": false,
      "t": 42450.7606249998,
      "d": 196.62883333333593,
      "v": 57
    },
    {
      "midi": 65,
      "hit": false,
      "t": 42450.7606249998,
      "d": 259.8309583333321,
      "v": 49
    },
    {
      "midi": 53,
      "hit": false,
      "t": 42450.76062499992,
      "d": 98.31441666666797,
      "v": 44
    },
    {
      "midi": 59,
      "hit": false,
      "t": 42471.8279999998,
      "d": 112.35933333333378,
      "v": 45
    },
    {
      "midi": 68,
      "hit": false,
      "t": 42471.8279999998,
      "d": 280.8983333333308,
      "v": 45
    },
    {
      "midi": 59,
      "hit": false,
      "t": 42471.82799999992,
      "d": 161.5165416666714,
      "v": 41
    },
    {
      "midi": 71,
      "hit": false,
      "t": 42485.87291666646,
      "d": 196.62883333333593,
      "v": 46
    },
    {
      "midi": 64,
      "hit": false,
      "t": 43124.916624999794,
      "d": 344.10045833333425,
      "v": 43
    },
    {
      "midi": 36,
      "hit": false,
      "t": 43124.916624999925,
      "d": 344.10045833332697,
      "v": 46
    },
    {
      "midi": 57,
      "hit": false,
      "t": 43124.916624999925,
      "d": 470.50470833332656,
      "v": 45
    },
    {
      "midi": 59,
      "hit": false,
      "t": 43124.916624999925,
      "d": 470.50470833332656,
      "v": 44
    },
    {
      "midi": 62,
      "hit": false,
      "t": 43124.916624999925,
      "d": 526.6843749999898,
      "v": 48
    },
    {
      "midi": 67,
      "hit": false,
      "t": 43138.96154166646,
      "d": 547.7517500000031,
      "v": 48
    },
    {
      "midi": 72,
      "hit": false,
      "t": 43138.96154166646,
      "d": 561.7966666666689,
      "v": 43
    },
    {
      "midi": 67,
      "hit": false,
      "t": 43138.96154166659,
      "d": 821.6276249999937,
      "v": 41
    },
    {
      "midi": 55,
      "hit": false,
      "t": 43167.05137499979,
      "d": 814.6051666666681,
      "v": 36
    },
    {
      "midi": 52,
      "hit": false,
      "t": 43174.073833333256,
      "d": 372.19029166666587,
      "v": 38
    },
    {
      "midi": 43,
      "hit": false,
      "t": 43595.42133333325,
      "d": 386.2352083333317,
      "v": 72
    },
    {
      "midi": 60,
      "hit": false,
      "t": 44002.72391666646,
      "d": 105.33687500000087,
      "v": 52
    },
    {
      "midi": 61,
      "hit": false,
      "t": 44129.12816666646,
      "d": 133.4267083333325,
      "v": 64
    },
    {
      "midi": 63,
      "hit": false,
      "t": 44248.509958333125,
      "d": 42.13474999999744,
      "v": 65
    },
    {
      "midi": 64,
      "hit": false,
      "t": 44332.77945833312,
      "d": 84.26950000000215,
      "v": 63
    },
    {
      "midi": 66,
      "hit": false,
      "t": 44417.04895833312,
      "d": 84.26950000000215,
      "v": 70
    },
    {
      "midi": 45,
      "hit": false,
      "t": 44480.25108333325,
      "d": 814.6051666666681,
      "v": 43
    },
    {
      "midi": 67,
      "hit": false,
      "t": 44543.45320833312,
      "d": 91.29195833333506,
      "v": 72
    },
    {
      "midi": 69,
      "hit": false,
      "t": 44648.79008333312,
      "d": 70.22458333333634,
      "v": 63
    },
    {
      "midi": 70,
      "hit": false,
      "t": 44726.03712499979,
      "d": 35.11229166666453,
      "v": 62
    },
    {
      "midi": 72,
      "hit": false,
      "t": 44824.35154166646,
      "d": 84.26950000000215,
      "v": 59
    },
    {
      "midi": 73,
      "hit": false,
      "t": 44908.62104166646,
      "d": 84.26950000000215,
      "v": 57
    },
    {
      "midi": 61,
      "hit": false,
      "t": 44929.688416666584,
      "d": 561.7966666666689,
      "v": 60
    },
    {
      "midi": 70,
      "hit": false,
      "t": 44936.71087499992,
      "d": 624.998791666665,
      "v": 54
    },
    {
      "midi": 66,
      "hit": false,
      "t": 44950.75579166658,
      "d": 589.8865000000005,
      "v": 49
    },
    {
      "midi": 55,
      "hit": false,
      "t": 44957.778249999916,
      "d": 519.6619166666715,
      "v": 48
    },
    {
      "midi": 75,
      "hit": false,
      "t": 44992.890541666464,
      "d": 42.13474999999744,
      "v": 62
    },
    {
      "midi": 76,
      "hit": false,
      "t": 45091.204958333125,
      "d": 77.24704166666925,
      "v": 57
    },
    {
      "midi": 78,
      "hit": false,
      "t": 45175.47445833313,
      "d": 63.20212499999616,
      "v": 64
    },
    {
      "midi": 64,
      "hit": false,
      "t": 45182.49691666646,
      "d": 330.05554166666843,
      "v": 36
    },
    {
      "midi": 61,
      "hit": false,
      "t": 45189.51937499979,
      "d": 386.2352083333317,
      "v": 38
    },
    {
      "midi": 58,
      "hit": false,
      "t": 45203.56429166646,
      "d": 372.19029166666587,
      "v": 39
    },
    {
      "midi": 55,
      "hit": false,
      "t": 45238.67658333312,
      "d": 252.80850000000646,
      "v": 36
    },
    {
      "midi": 79,
      "hit": false,
      "t": 45329.96854166646,
      "d": 98.31441666666797,
      "v": 53
    },
    {
      "midi": 81,
      "hit": false,
      "t": 45421.26049999979,
      "d": 105.33687500000087,
      "v": 56
    },
    {
      "midi": 82,
      "hit": false,
      "t": 45575.754583333124,
      "d": 84.26950000000215,
      "v": 60
    },
    {
      "midi": 83,
      "hit": false,
      "t": 45695.13637499979,
      "d": 105.33687500000087,
      "v": 46
    },
    {
      "midi": 84,
      "hit": false,
      "t": 45786.428333333126,
      "d": 154.49408333333122,
      "v": 74
    },
    {
      "midi": 60,
      "hit": false,
      "t": 45800.473249999915,
      "d": 1074.4361250000002,
      "v": 52
    },
    {
      "midi": 65,
      "hit": false,
      "t": 45821.540624999914,
      "d": 1081.458583333333,
      "v": 43
    },
    {
      "midi": 69,
      "hit": false,
      "t": 45821.540624999914,
      "d": 1165.7280833333352,
      "v": 40
    },
    {
      "midi": 64,
      "hit": false,
      "t": 45905.81012499979,
      "d": 660.1110833333296,
      "v": 34
    },
    {
      "midi": 60,
      "hit": false,
      "t": 45912.832583333126,
      "d": 632.021249999998,
      "v": 41
    },
    {
      "midi": 57,
      "hit": false,
      "t": 45919.85504166646,
      "d": 617.9763333333321,
      "v": 40
    },
    {
      "midi": 81,
      "hit": false,
      "t": 45933.899958333124,
      "d": 653.0886249999967,
      "v": 57
    },
    {
      "midi": 55,
      "hit": false,
      "t": 46523.78645833325,
      "d": 1264.0425000000032,
      "v": 43
    },
    {
      "midi": 81,
      "hit": false,
      "t": 47001.313624999784,
      "d": 112.35933333333378,
      "v": 70
    },
    {
      "midi": 59,
      "hit": false,
      "t": 47148.78524999991,
      "d": 624.9987916666723,
      "v": 48
    },
    {
      "midi": 64,
      "hit": false,
      "t": 47162.83016666658,
      "d": 667.1335416666698,
      "v": 49
    },
    {
      "midi": 67,
      "hit": false,
      "t": 47183.89754166658,
      "d": 695.2233750000014,
      "v": 45
    },
    {
      "midi": 81,
      "hit": false,
      "t": 47233.054749999785,
      "d": 372.1902916666586,
      "v": 57
    },
    {
      "midi": 60,
      "hit": false,
      "t": 47254.12212499978,
      "d": 610.953874999992,
      "v": 41
    },
    {
      "midi": 65,
      "hit": false,
      "t": 47254.12212499978,
      "d": 617.9763333333249,
      "v": 31
    },
    {
      "midi": 55,
      "hit": false,
      "t": 47261.144583333116,
      "d": 646.0661666666565,
      "v": 25
    },
    {
      "midi": 57,
      "hit": false,
      "t": 47282.211958333115,
      "d": 639.0437083333236,
      "v": 34
    },
    {
      "midi": 79,
      "hit": false,
      "t": 47619.28995833311,
      "d": 175.56145833332994,
      "v": 56
    },
    {
      "midi": 43,
      "hit": false,
      "t": 47815.91879166658,
      "d": 828.6500833333266,
      "v": 52
    },
    {
      "midi": 77,
      "hit": false,
      "t": 47886.143374999774,
      "d": 98.31441666666797,
      "v": 28
    },
    {
      "midi": 50,
      "hit": false,
      "t": 48321.53579166658,
      "d": 119.38179166666669,
      "v": 25
    },
    {
      "midi": 67,
      "hit": false,
      "t": 48511.14216666658,
      "d": 779.4928749999963,
      "v": 68
    },
    {
      "midi": 62,
      "hit": false,
      "t": 48525.18708333324,
      "d": 835.6725416666668,
      "v": 64
    },
    {
      "midi": 55,
      "hit": false,
      "t": 48532.209541666576,
      "d": 533.70683333333,
      "v": 52
    },
    {
      "midi": 52,
      "hit": false,
      "t": 48539.23199999991,
      "d": 688.2009166666612,
      "v": 54
    },
    {
      "midi": 63,
      "hit": false,
      "t": 48546.25445833324,
      "d": 582.8640416666676,
      "v": 46
    },
    {
      "midi": 43,
      "hit": false,
      "t": 49150.18587499991,
      "d": 1039.3238333333284,
      "v": 84
    },
    {
      "midi": 80,
      "hit": false,
      "t": 49585.57829166644,
      "d": 112.35933333333378,
      "v": 80
    },
    {
      "midi": 56,
      "hit": false,
      "t": 49599.623208333105,
      "d": 91.29195833333506,
      "v": 68
    },
    {
      "midi": 81,
      "hit": false,
      "t": 49599.623208333105,
      "d": 224.71866666666756,
      "v": 83
    },
    {
      "midi": 57,
      "hit": false,
      "t": 49606.64566666644,
      "d": 266.853416666665,
      "v": 72
    },
    {
      "midi": 70,
      "hit": false,
      "t": 49810.29695833324,
      "d": 1151.6831666666549,
      "v": 85
    },
    {
      "midi": 61,
      "hit": false,
      "t": 49817.31941666657,
      "d": 997.1890833333237,
      "v": 87
    },
    {
      "midi": 66,
      "hit": false,
      "t": 49817.31941666657,
      "d": 1214.8852916666583,
      "v": 79
    },
    {
      "midi": 55,
      "hit": false,
      "t": 49831.36433333324,
      "d": 653.0886249999967,
      "v": 79
    },
    {
      "midi": 55,
      "hit": false,
      "t": 49887.54399999977,
      "d": 337.07799999999406,
      "v": 55
    },
    {
      "midi": 79,
      "hit": false,
      "t": 49901.588916666435,
      "d": 330.05554166666116,
      "v": 57
    },
    {
      "midi": 54,
      "hit": false,
      "t": 50273.77920833309,
      "d": 196.62883333333593,
      "v": 55
    },
    {
      "midi": 78,
      "hit": false,
      "t": 50287.82412499976,
      "d": 189.60637500000303,
      "v": 61
    },
    {
      "midi": 55,
      "hit": false,
      "t": 50491.47541666643,
      "d": 189.60637499999575,
      "v": 56
    },
    {
      "midi": 43,
      "hit": false,
      "t": 50505.52033333323,
      "d": 849.7174583333253,
      "v": 76
    },
    {
      "midi": 79,
      "hit": false,
      "t": 50526.58770833309,
      "d": 175.56145833332994,
      "v": 60
    },
    {
      "midi": 56,
      "hit": false,
      "t": 50954.95766666642,
      "d": 154.49408333333122,
      "v": 64
    },
    {
      "midi": 80,
      "hit": false,
      "t": 50961.980124999754,
      "d": 133.4267083333325,
      "v": 66
    },
    {
      "midi": 65,
      "hit": false,
      "t": 51172.653874999894,
      "d": 835.6725416666595,
      "v": 73
    },
    {
      "midi": 60,
      "hit": false,
      "t": 51172.653874999894,
      "d": 849.7174583333253,
      "v": 75
    },
    {
      "midi": 69,
      "hit": false,
      "t": 51179.67633333323,
      "d": 730.3356666666587,
      "v": 68
    },
    {
      "midi": 53,
      "hit": false,
      "t": 51193.72124999989,
      "d": 688.2009166666612,
      "v": 58
    },
    {
      "midi": 57,
      "hit": false,
      "t": 51207.76616666642,
      "d": 372.19029166666587,
      "v": 56
    },
    {
      "midi": 81,
      "hit": false,
      "t": 51221.81108333309,
      "d": 91.29195833333506,
      "v": 55
    },
    {
      "midi": 84,
      "hit": false,
      "t": 51622.091208333084,
      "d": 119.38179166665941,
      "v": 64
    },
    {
      "midi": 60,
      "hit": false,
      "t": 51629.11366666642,
      "d": 49.157208333330345,
      "v": 48
    },
    {
      "midi": 77,
      "hit": false,
      "t": 51664.22595833308,
      "d": 42.13474999999744,
      "v": 35
    },
    {
      "midi": 81,
      "hit": false,
      "t": 51671.248416666414,
      "d": 35.11229166666453,
      "v": 25
    },
    {
      "midi": 64,
      "hit": false,
      "t": 51867.87724999974,
      "d": 126.40424999999232,
      "v": 54
    },
    {
      "midi": 88,
      "hit": false,
      "t": 51881.92216666641,
      "d": 98.31441666666069,
      "v": 56
    },
    {
      "midi": 43,
      "hit": false,
      "t": 51881.922166666554,
      "d": 1018.2564583333224,
      "v": 58
    },
    {
      "midi": 76,
      "hit": false,
      "t": 51888.94462499974,
      "d": 42.13474999999744,
      "v": 39
    },
    {
      "midi": 81,
      "hit": false,
      "t": 51888.94462499974,
      "d": 49.157208333330345,
      "v": 39
    },
    {
      "midi": 84,
      "hit": false,
      "t": 51895.967083333075,
      "d": 49.157208333330345,
      "v": 43
    },
    {
      "midi": 79,
      "hit": false,
      "t": 52324.337041666404,
      "d": 84.26950000000215,
      "v": 68
    },
    {
      "midi": 65,
      "hit": false,
      "t": 52324.337041666404,
      "d": 91.29195833333506,
      "v": 54
    },
    {
      "midi": 91,
      "hit": false,
      "t": 52324.337041666404,
      "d": 119.38179166666669,
      "v": 78
    },
    {
      "midi": 84,
      "hit": false,
      "t": 52331.35949999974,
      "d": 98.31441666666797,
      "v": 66
    },
    {
      "midi": 88,
      "hit": false,
      "t": 52331.35949999974,
      "d": 98.31441666666797,
      "v": 60
    },
    {
      "midi": 64,
      "hit": false,
      "t": 52584.16799999988,
      "d": 589.8865000000005,
      "v": 63
    },
    {
      "midi": 59,
      "hit": false,
      "t": 52598.21291666655,
      "d": 491.57208333333256,
      "v": 51
    },
    {
      "midi": 67,
      "hit": false,
      "t": 52598.21291666655,
      "d": 589.8865000000005,
      "v": 52
    },
    {
      "midi": 55,
      "hit": false,
      "t": 52619.280291666546,
      "d": 582.8640416666676,
      "v": 48
    },
    {
      "midi": 43,
      "hit": false,
      "t": 53223.21170833321,
      "d": 849.7174583333326,
      "v": 46
    },
    {
      "midi": 59,
      "hit": false,
      "t": 53321.526124999735,
      "d": 63.202125000003434,
      "v": 40
    },
    {
      "midi": 95,
      "hit": false,
      "t": 53714.78379166641,
      "d": 112.3593333333265,
      "v": 102
    },
    {
      "midi": 64,
      "hit": false,
      "t": 53721.80624999974,
      "d": 70.22458333332906,
      "v": 73
    },
    {
      "midi": 59,
      "hit": false,
      "t": 53721.80624999974,
      "d": 84.26949999999488,
      "v": 66
    },
    {
      "midi": 83,
      "hit": false,
      "t": 53721.80624999974,
      "d": 105.3368749999936,
      "v": 86
    },
    {
      "midi": 88,
      "hit": false,
      "t": 53721.80624999974,
      "d": 112.3593333333265,
      "v": 84
    },
    {
      "midi": 53,
      "hit": false,
      "t": 53728.82870833307,
      "d": 42.13474999999744,
      "v": 66
    },
    {
      "midi": 91,
      "hit": false,
      "t": 53735.851166666405,
      "d": 28.089833333331626,
      "v": 67
    },
    {
      "midi": 52,
      "hit": false,
      "t": 53862.25541666654,
      "d": 709.2682916666672,
      "v": 46
    },
    {
      "midi": 57,
      "hit": false,
      "t": 53876.30033333321,
      "d": 337.07800000000134,
      "v": 48
    },
    {
      "midi": 59,
      "hit": false,
      "t": 53876.30033333321,
      "d": 337.07800000000134,
      "v": 47
    },
    {
      "midi": 67,
      "hit": false,
      "t": 53883.32279166654,
      "d": 351.12291666666715,
      "v": 47
    },
    {
      "midi": 62,
      "hit": false,
      "t": 53890.345249999875,
      "d": 407.3025833333377,
      "v": 50
    },
    {
      "midi": 62,
      "hit": false,
      "t": 53967.5922916664,
      "d": 98.31441666666797,
      "v": 66
    },
    {
      "midi": 59,
      "hit": false,
      "t": 53967.5922916664,
      "d": 147.4716249999983,
      "v": 57
    },
    {
      "midi": 91,
      "hit": false,
      "t": 53967.5922916664,
      "d": 147.4716249999983,
      "v": 77
    },
    {
      "midi": 79,
      "hit": false,
      "t": 53981.637208333064,
      "d": 84.26950000000215,
      "v": 72
    },
    {
      "midi": 52,
      "hit": false,
      "t": 53981.637208333064,
      "d": 119.38179166666669,
      "v": 55
    },
    {
      "midi": 86,
      "hit": false,
      "t": 53988.6596666664,
      "d": 98.31441666666797,
      "v": 67
    },
    {
      "midi": 55,
      "hit": false,
      "t": 53995.68212499973,
      "d": 133.4267083333325,
      "v": 63
    },
    {
      "midi": 91,
      "hit": false,
      "t": 54199.3334166664,
      "d": 84.26949999999488,
      "v": 65
    },
    {
      "midi": 79,
      "hit": false,
      "t": 54213.378333333065,
      "d": 77.24704166666197,
      "v": 57
    },
    {
      "midi": 62,
      "hit": false,
      "t": 54213.378333333065,
      "d": 84.26949999999488,
      "v": 49
    },
    {
      "midi": 59,
      "hit": false,
      "t": 54220.4007916664,
      "d": 77.24704166666197,
      "v": 36
    },
    {
      "midi": 86,
      "hit": false,
      "t": 54227.42324999973,
      "d": 35.11229166666453,
      "v": 56
    },
    {
      "midi": 55,
      "hit": false,
      "t": 54227.42324999973,
      "d": 91.29195833332778,
      "v": 53
    },
    {
      "midi": 88,
      "hit": false,
      "t": 54438.096999999725,
      "d": 147.4716249999983,
      "v": 75
    },
    {
      "midi": 62,
      "hit": false,
      "t": 54459.164374999724,
      "d": 105.33687500000087,
      "v": 55
    },
    {
      "midi": 76,
      "hit": false,
      "t": 54459.164374999724,
      "d": 105.33687500000087,
      "v": 45
    },
    {
      "midi": 83,
      "hit": false,
      "t": 54459.164374999724,
      "d": 112.35933333333378,
      "v": 56
    },
    {
      "midi": 55,
      "hit": false,
      "t": 54459.164374999724,
      "d": 154.49408333333122,
      "v": 52
    },
    {
      "midi": 59,
      "hit": false,
      "t": 54459.164374999724,
      "d": 154.49408333333122,
      "v": 43
    },
    {
      "midi": 85,
      "hit": false,
      "t": 54480.23174999972,
      "d": 63.202125000003434,
      "v": 30
    },
    {
      "midi": 52,
      "hit": false,
      "t": 54480.23174999972,
      "d": 112.35933333333378,
      "v": 41
    },
    {
      "midi": 66,
      "hit": false,
      "t": 54564.50124999988,
      "d": 477.52716666666674,
      "v": 48
    },
    {
      "midi": 56,
      "hit": false,
      "t": 54571.52370833321,
      "d": 393.2576666666646,
      "v": 48
    },
    {
      "midi": 61,
      "hit": false,
      "t": 54571.52370833321,
      "d": 526.6843749999971,
      "v": 52
    },
    {
      "midi": 51,
      "hit": false,
      "t": 54585.568624999876,
      "d": 674.1559999999954,
      "v": 41
    },
    {
      "midi": 88,
      "hit": false,
      "t": 54683.88304166639,
      "d": 42.13474999999744,
      "v": 50
    },
    {
      "midi": 83,
      "hit": false,
      "t": 54697.92795833306,
      "d": 42.13474999999744,
      "v": 50
    },
    {
      "midi": 62,
      "hit": false,
      "t": 54697.92795833306,
      "d": 63.20212499999616,
      "v": 32
    },
    {
      "midi": 76,
      "hit": false,
      "t": 54697.92795833306,
      "d": 77.24704166666197,
      "v": 49
    },
    {
      "midi": 59,
      "hit": false,
      "t": 54697.92795833306,
      "d": 84.26949999999488,
      "v": 31
    },
    {
      "midi": 55,
      "hit": false,
      "t": 54711.97287499972,
      "d": 63.20212499999616,
      "v": 40
    },
    {
      "midi": 84,
      "hit": false,
      "t": 54887.53433333305,
      "d": 119.38179166666669,
      "v": 62
    },
    {
      "midi": 79,
      "hit": false,
      "t": 54894.556791666386,
      "d": 105.33687500000087,
      "v": 60
    },
    {
      "midi": 62,
      "hit": false,
      "t": 54915.624166666385,
      "d": 63.202125000003434,
      "v": 44
    },
    {
      "midi": 72,
      "hit": false,
      "t": 54915.624166666385,
      "d": 63.202125000003434,
      "v": 39
    },
    {
      "midi": 59,
      "hit": false,
      "t": 54915.624166666385,
      "d": 84.26950000000215,
      "v": 36
    },
    {
      "midi": 55,
      "hit": false,
      "t": 54915.624166666385,
      "d": 98.31441666666797,
      "v": 38
    },
    {
      "midi": 84,
      "hit": false,
      "t": 55126.297916666386,
      "d": 70.22458333332906,
      "v": 49
    },
    {
      "midi": 72,
      "hit": false,
      "t": 55126.297916666386,
      "d": 84.26949999999488,
      "v": 59
    },
    {
      "midi": 79,
      "hit": false,
      "t": 55147.365291666385,
      "d": 28.089833333331626,
      "v": 59
    },
    {
      "midi": 62,
      "hit": false,
      "t": 55147.365291666385,
      "d": 56.17966666666325,
      "v": 42
    },
    {
      "midi": 59,
      "hit": false,
      "t": 55147.365291666385,
      "d": 63.20212499999616,
      "v": 43
    },
    {
      "midi": 55,
      "hit": false,
      "t": 55147.365291666385,
      "d": 84.26949999999488,
      "v": 43
    },
    {
      "midi": 57,
      "hit": false,
      "t": 55252.70216666654,
      "d": 330.05554166666116,
      "v": 48
    },
    {
      "midi": 67,
      "hit": false,
      "t": 55266.747083333205,
      "d": 266.853416666665,
      "v": 48
    },
    {
      "midi": 52,
      "hit": false,
      "t": 55273.76954166654,
      "d": 603.9314166666591,
      "v": 43
    },
    {
      "midi": 62,
      "hit": false,
      "t": 55280.79199999987,
      "d": 316.01062499999534,
      "v": 46
    },
    {
      "midi": 81,
      "hit": false,
      "t": 55351.01658333305,
      "d": 105.3368749999936,
      "v": 55
    },
    {
      "midi": 76,
      "hit": false,
      "t": 55358.03904166638,
      "d": 77.24704166666197,
      "v": 57
    },
    {
      "midi": 55,
      "hit": false,
      "t": 55393.151333333044,
      "d": 70.22458333332906,
      "v": 26
    },
    {
      "midi": 66,
      "hit": false,
      "t": 55912.81324999986,
      "d": 428.3699583333364,
      "v": 56
    },
    {
      "midi": 56,
      "hit": false,
      "t": 55912.81324999986,
      "d": 526.6843750000044,
      "v": 54
    },
    {
      "midi": 61,
      "hit": false,
      "t": 55919.835708333194,
      "d": 589.8865000000005,
      "v": 60
    },
    {
      "midi": 46,
      "hit": false,
      "t": 55947.925541666526,
      "d": 568.8191250000018,
      "v": 40
    },
    {
      "midi": 62,
      "hit": false,
      "t": 55990.06029166637,
      "d": 147.47162499999104,
      "v": 35
    },
    {
      "midi": 79,
      "hit": false,
      "t": 55990.06029166637,
      "d": 210.6737499999872,
      "v": 49
    },
    {
      "midi": 74,
      "hit": false,
      "t": 55997.0827499997,
      "d": 203.6512916666543,
      "v": 56
    },
    {
      "midi": 67,
      "hit": false,
      "t": 56011.12766666637,
      "d": 140.44916666665813,
      "v": 29
    },
    {
      "midi": 55,
      "hit": false,
      "t": 56025.172583333035,
      "d": 77.24704166666197,
      "v": 31
    },
    {
      "midi": 59,
      "hit": false,
      "t": 56060.2848749997,
      "d": 70.22458333332906,
      "v": 23
    },
    {
      "midi": 42,
      "hit": false,
      "t": 56460.564999999864,
      "d": 126.40424999999959,
      "v": 41
    },
    {
      "midi": 65,
      "hit": false,
      "t": 56593.99170833303,
      "d": 56.17966666666325,
      "v": 52
    },
    {
      "midi": 57,
      "hit": false,
      "t": 56601.01416666653,
      "d": 428.3699583333291,
      "v": 57
    },
    {
      "midi": 77,
      "hit": false,
      "t": 56608.036624999695,
      "d": 91.29195833332778,
      "v": 61
    },
    {
      "midi": 69,
      "hit": false,
      "t": 56608.036624999695,
      "d": 98.31441666666069,
      "v": 58
    },
    {
      "midi": 62,
      "hit": false,
      "t": 56615.05908333303,
      "d": 77.24704166666197,
      "v": 54
    },
    {
      "midi": 62,
      "hit": false,
      "t": 56615.059083333195,
      "d": 484.54962499999965,
      "v": 48
    },
    {
      "midi": 65,
      "hit": false,
      "t": 56615.059083333195,
      "d": 533.70683333333,
      "v": 49
    },
    {
      "midi": 74,
      "hit": false,
      "t": 56622.08154166636,
      "d": 91.29195833332778,
      "v": 57
    },
    {
      "midi": 47,
      "hit": false,
      "t": 56629.10399999986,
      "d": 639.0437083333309,
      "v": 43
    },
    {
      "midi": 57,
      "hit": false,
      "t": 56650.17137499969,
      "d": 56.17966666666325,
      "v": 23
    },
    {
      "midi": 57,
      "hit": false,
      "t": 57022.36166666636,
      "d": 42.13474999999744,
      "v": 54
    },
    {
      "midi": 53,
      "hit": false,
      "t": 57071.51887499969,
      "d": 49.157208333330345,
      "v": 46
    },
    {
      "midi": 59,
      "hit": false,
      "t": 57099.60870833302,
      "d": 70.22458333332906,
      "v": 38
    },
    {
      "midi": 55,
      "hit": false,
      "t": 57155.78837499968,
      "d": 56.17966666666325,
      "v": 59
    },
    {
      "midi": 60,
      "hit": false,
      "t": 57183.878208333015,
      "d": 91.29195833332778,
      "v": 43
    },
    {
      "midi": 57,
      "hit": false,
      "t": 57247.08033333301,
      "d": 49.157208333330345,
      "v": 61
    },
    {
      "midi": 62,
      "hit": false,
      "t": 57261.12524999968,
      "d": 98.31441666666069,
      "v": 46
    },
    {
      "midi": 56,
      "hit": false,
      "t": 57282.19262499986,
      "d": 372.19029166666587,
      "v": 55
    },
    {
      "midi": 62,
      "hit": false,
      "t": 57289.21508333319,
      "d": 372.19029166666587,
      "v": 57
    },
    {
      "midi": 41,
      "hit": false,
      "t": 57296.23754166652,
      "d": 667.1335416666698,
      "v": 47
    },
    {
      "midi": 59,
      "hit": false,
      "t": 57317.30491666634,
      "d": 56.17966666666325,
      "v": 60
    },
    {
      "midi": 64,
      "hit": false,
      "t": 57331.349833333006,
      "d": 112.3593333333265,
      "v": 47
    },
    {
      "midi": 65,
      "hit": false,
      "t": 57373.48458333319,
      "d": 231.74112500000047,
      "v": 14
    },
    {
      "midi": 60,
      "hit": false,
      "t": 57380.50704166634,
      "d": 63.20212499999616,
      "v": 56
    },
    {
      "midi": 65,
      "hit": false,
      "t": 57408.59687499967,
      "d": 105.3368749999936,
      "v": 57
    },
    {
      "midi": 62,
      "hit": false,
      "t": 57457.754083333,
      "d": 70.22458333332906,
      "v": 60
    },
    {
      "midi": 67,
      "hit": false,
      "t": 57485.84391666633,
      "d": 119.38179166665941,
      "v": 56
    },
    {
      "midi": 64,
      "hit": false,
      "t": 57542.02358333299,
      "d": 77.24704166666197,
      "v": 63
    },
    {
      "midi": 69,
      "hit": false,
      "t": 57577.13587499966,
      "d": 119.38179166665941,
      "v": 48
    },
    {
      "midi": 65,
      "hit": false,
      "t": 57619.270624999655,
      "d": 84.26949999999488,
      "v": 57
    },
    {
      "midi": 71,
      "hit": false,
      "t": 57668.427833332986,
      "d": 126.40424999999232,
      "v": 40
    },
    {
      "midi": 67,
      "hit": false,
      "t": 57717.585041666316,
      "d": 84.26949999999488,
      "v": 49
    },
    {
      "midi": 72,
      "hit": false,
      "t": 57759.71979166631,
      "d": 126.40424999999232,
      "v": 40
    },
    {
      "midi": 69,
      "hit": false,
      "t": 57815.89945833298,
      "d": 70.22458333332906,
      "v": 49
    },
    {
      "midi": 74,
      "hit": false,
      "t": 57858.034208332974,
      "d": 119.38179166665941,
      "v": 47
    },
    {
      "midi": 71,
      "hit": false,
      "t": 57900.16895833297,
      "d": 84.26949999999488,
      "v": 46
    },
    {
      "midi": 76,
      "hit": false,
      "t": 57942.30370833297,
      "d": 126.40424999999232,
      "v": 45
    },
    {
      "midi": 67,
      "hit": false,
      "t": 57956.34862499986,
      "d": 386.2352083333317,
      "v": 61
    },
    {
      "midi": 56,
      "hit": false,
      "t": 57963.37108333319,
      "d": 386.2352083333317,
      "v": 52
    },
    {
      "midi": 62,
      "hit": false,
      "t": 57970.393541666526,
      "d": 379.2127499999988,
      "v": 56
    },
    {
      "midi": 72,
      "hit": false,
      "t": 57991.4609166663,
      "d": 84.26949999999488,
      "v": 48
    },
    {
      "midi": 40,
      "hit": false,
      "t": 57991.460916666525,
      "d": 617.9763333333321,
      "v": 43
    },
    {
      "midi": 77,
      "hit": false,
      "t": 58033.5956666663,
      "d": 119.38179166665941,
      "v": 47
    },
    {
      "midi": 74,
      "hit": false,
      "t": 58089.77533333296,
      "d": 84.26949999999488,
      "v": 48
    },
    {
      "midi": 79,
      "hit": false,
      "t": 58138.93254166629,
      "d": 112.3593333333265,
      "v": 41
    },
    {
      "midi": 76,
      "hit": false,
      "t": 58195.112208332954,
      "d": 77.24704166666197,
      "v": 45
    },
    {
      "midi": 81,
      "hit": false,
      "t": 58237.24695833295,
      "d": 98.31441666666069,
      "v": 43
    },
    {
      "midi": 77,
      "hit": false,
      "t": 58300.44908333295,
      "d": 70.22458333332906,
      "v": 43
    },
    {
      "midi": 83,
      "hit": false,
      "t": 58335.56137499961,
      "d": 91.29195833332778,
      "v": 46
    },
    {
      "midi": 79,
      "hit": false,
      "t": 58412.808416666274,
      "d": 70.22458333332906,
      "v": 40
    },
    {
      "midi": 84,
      "hit": false,
      "t": 58447.92070833294,
      "d": 84.26949999999488,
      "v": 51
    },
    {
      "midi": 81,
      "hit": false,
      "t": 58525.1677499996,
      "d": 77.24704166666197,
      "v": 48
    },
    {
      "midi": 86,
      "hit": false,
      "t": 58567.3024999996,
      "d": 77.24704166666197,
      "v": 57
    },
    {
      "midi": 62,
      "hit": false,
      "t": 58616.45970833319,
      "d": 259.83095833333937,
      "v": 62
    },
    {
      "midi": 56,
      "hit": false,
      "t": 58616.45970833319,
      "d": 273.8758750000052,
      "v": 66
    },
    {
      "midi": 65,
      "hit": false,
      "t": 58616.45970833319,
      "d": 316.0106250000026,
      "v": 57
    },
    {
      "midi": 46,
      "hit": false,
      "t": 58616.45970833319,
      "d": 456.459791666668,
      "v": 56
    },
    {
      "midi": 62,
      "hit": false,
      "t": 58693.70674999959,
      "d": 308.9881666666697,
      "v": 47
    },
    {
      "midi": 67,
      "hit": false,
      "t": 58693.70674999959,
      "d": 308.9881666666697,
      "v": 52
    },
    {
      "midi": 88,
      "hit": false,
      "t": 58693.70674999959,
      "d": 379.21275000000605,
      "v": 33
    },
    {
      "midi": 56,
      "hit": false,
      "t": 58693.70674999959,
      "d": 610.9538750000065,
      "v": 54
    },
    {
      "midi": 84,
      "hit": false,
      "t": 58770.95379166626,
      "d": 91.29195833333506,
      "v": 31
    },
    {
      "midi": 64,
      "hit": false,
      "t": 59297.638166666526,
      "d": 294.9432499999966,
      "v": 68
    },
    {
      "midi": 45,
      "hit": false,
      "t": 59304.66062499986,
      "d": 372.19029166666587,
      "v": 56
    },
    {
      "midi": 55,
      "hit": false,
      "t": 59304.66062499986,
      "d": 386.2352083333317,
      "v": 68
    },
    {
      "midi": 60,
      "hit": false,
      "t": 59304.66062499986,
      "d": 393.2576666666646,
      "v": 66
    },
    {
      "midi": 86,
      "hit": false,
      "t": 59395.952583332924,
      "d": 154.49408333333122,
      "v": 52
    },
    {
      "midi": 64,
      "hit": false,
      "t": 59395.952583332924,
      "d": 217.69620833332738,
      "v": 35
    },
    {
      "midi": 57,
      "hit": false,
      "t": 59402.97504166626,
      "d": 505.6169999999838,
      "v": 50
    },
    {
      "midi": 60,
      "hit": false,
      "t": 59424.042416666256,
      "d": 147.4716249999983,
      "v": 39
    },
    {
      "midi": 88,
      "hit": false,
      "t": 59571.514041666254,
      "d": 98.31441666666069,
      "v": 56
    },
    {
      "midi": 86,
      "hit": false,
      "t": 59655.78354166625,
      "d": 119.38179166666669,
      "v": 52
    },
    {
      "midi": 84,
      "hit": false,
      "t": 59775.165333332916,
      "d": 105.3368749999936,
      "v": 56
    },
    {
      "midi": 60,
      "hit": false,
      "t": 59831.34499999958,
      "d": 603.9314166666518,
      "v": 11
    },
    {
      "midi": 83,
      "hit": false,
      "t": 59908.59204166624,
      "d": 84.26949999999488,
      "v": 56
    },
    {
      "midi": 63,
      "hit": false,
      "t": 59992.86154166652,
      "d": 428.3699583333364,
      "v": 72
    },
    {
      "midi": 44,
      "hit": false,
      "t": 59992.86154166652,
      "d": 435.3924166666693,
      "v": 68
    },
    {
      "midi": 54,
      "hit": false,
      "t": 59999.88399999985,
      "d": 330.05554166666843,
      "v": 75
    },
    {
      "midi": 59,
      "hit": false,
      "t": 59999.88399999985,
      "d": 337.07800000000134,
      "v": 75
    },
    {
      "midi": 32,
      "hit": false,
      "t": 59999.88399999985,
      "d": 414.3250416666706,
      "v": 58
    },
    {
      "midi": 84,
      "hit": false,
      "t": 60049.0412083329,
      "d": 414.3250416666633,
      "v": 70
    },
    {
      "midi": 56,
      "hit": false,
      "t": 60049.0412083329,
      "d": 449.43733333332784,
      "v": 40
    },
    {
      "midi": 64,
      "hit": false,
      "t": 60056.06366666623,
      "d": 344.10045833333425,
      "v": 34
    },
    {
      "midi": 64,
      "hit": false,
      "t": 60652.97262499956,
      "d": 379.2127499999988,
      "v": 41
    },
    {
      "midi": 55,
      "hit": false,
      "t": 60659.99508333289,
      "d": 379.2127499999988,
      "v": 46
    },
    {
      "midi": 60,
      "hit": false,
      "t": 60659.99508333289,
      "d": 512.6394583333313,
      "v": 48
    },
    {
      "midi": 53,
      "hit": false,
      "t": 60667.01754166652,
      "d": 330.05554166666116,
      "v": 68
    },
    {
      "midi": 58,
      "hit": false,
      "t": 60667.01754166652,
      "d": 435.39241666666203,
      "v": 64
    },
    {
      "midi": 62,
      "hit": false,
      "t": 60667.01754166652,
      "d": 491.5720833333253,
      "v": 63
    },
    {
      "midi": 43,
      "hit": false,
      "t": 60667.01754166652,
      "d": 632.0212499999907,
      "v": 61
    },
    {
      "midi": 42,
      "hit": false,
      "t": 61327.128624999845,
      "d": 161.51654166666412,
      "v": 45
    },
    {
      "midi": 52,
      "hit": false,
      "t": 61327.128624999845,
      "d": 175.56145833332994,
      "v": 57
    },
    {
      "midi": 62,
      "hit": false,
      "t": 61334.15108333318,
      "d": 203.65129166666156,
      "v": 49
    },
    {
      "midi": 58,
      "hit": false,
      "t": 61348.19599999984,
      "d": 323.03308333332825,
      "v": 54
    },
    {
      "midi": 60,
      "hit": false,
      "t": 61376.28583333289,
      "d": 316.01062499999534,
      "v": 21
    },
    {
      "midi": 64,
      "hit": false,
      "t": 61383.308291666224,
      "d": 161.51654166666412,
      "v": 41
    },
    {
      "midi": 54,
      "hit": false,
      "t": 61390.33074999956,
      "d": 308.98816666666244,
      "v": 43
    },
    {
      "midi": 54,
      "hit": false,
      "t": 61973.19479166651,
      "d": 126.40424999999959,
      "v": 50
    },
    {
      "midi": 57,
      "hit": false,
      "t": 61994.26216666651,
      "d": 112.35933333333378,
      "v": 52
    },
    {
      "midi": 48,
      "hit": false,
      "t": 62001.28462499984,
      "d": 133.4267083333325,
      "v": 42
    },
    {
      "midi": 38,
      "hit": false,
      "t": 62008.30708333317,
      "d": 98.31441666666797,
      "v": 44
    },
    {
      "midi": 60,
      "hit": false,
      "t": 62092.576583332884,
      "d": 56.17966666666325,
      "v": 39
    },
    {
      "midi": 62,
      "hit": false,
      "t": 62092.576583332884,
      "d": 56.17966666666325,
      "v": 32
    },
    {
      "midi": 54,
      "hit": false,
      "t": 62092.576583332884,
      "d": 133.4267083333325,
      "v": 39
    },
    {
      "midi": 60,
      "hit": false,
      "t": 62289.20541666622,
      "d": 91.29195833333506,
      "v": 49
    },
    {
      "midi": 61,
      "hit": false,
      "t": 62436.67704166622,
      "d": 35.11229166666453,
      "v": 48
    },
    {
      "midi": 62,
      "hit": false,
      "t": 62513.92408333288,
      "d": 84.26950000000215,
      "v": 64
    },
    {
      "midi": 63,
      "hit": false,
      "t": 62626.283416666214,
      "d": 35.11229166666453,
      "v": 63
    },
    {
      "midi": 76,
      "hit": false,
      "t": 62682.463083333176,
      "d": 161.51654166665685,
      "v": 71
    },
    {
      "midi": 66,
      "hit": false,
      "t": 62682.463083333176,
      "d": 224.718666666653,
      "v": 60
    },
    {
      "midi": 64,
      "hit": false,
      "t": 62689.48554166651,
      "d": 49.157208333330345,
      "v": 45
    },
    {
      "midi": 69,
      "hit": false,
      "t": 62689.48554166651,
      "d": 203.6512916666543,
      "v": 63
    },
    {
      "midi": 54,
      "hit": false,
      "t": 62703.530458333174,
      "d": 105.3368749999936,
      "v": 39
    },
    {
      "midi": 60,
      "hit": false,
      "t": 62717.57537499984,
      "d": 49.157208333330345,
      "v": 39
    },
    {
      "midi": 64,
      "hit": false,
      "t": 62731.620291666215,
      "d": 91.29195833332778,
      "v": 66
    },
    {
      "midi": 60,
      "hit": false,
      "t": 62745.66520833288,
      "d": 168.53899999999703,
      "v": 38
    },
    {
      "midi": 62,
      "hit": false,
      "t": 62759.71012499955,
      "d": 77.24704166666197,
      "v": 39
    },
    {
      "midi": 54,
      "hit": false,
      "t": 62787.79995833288,
      "d": 119.38179166666669,
      "v": 23
    },
    {
      "midi": 66,
      "hit": false,
      "t": 62829.934708332876,
      "d": 126.40424999999959,
      "v": 59
    },
    {
      "midi": 68,
      "hit": false,
      "t": 62921.22666666621,
      "d": 119.38179166665941,
      "v": 59
    },
    {
      "midi": 70,
      "hit": false,
      "t": 63012.51862499954,
      "d": 28.089833333331626,
      "v": 57
    },
    {
      "midi": 72,
      "hit": false,
      "t": 63103.810583332874,
      "d": 84.26950000000215,
      "v": 66
    },
    {
      "midi": 73,
      "hit": false,
      "t": 63230.21483333287,
      "d": 35.11229166666453,
      "v": 61
    },
    {
      "midi": 74,
      "hit": false,
      "t": 63335.551708332874,
      "d": 49.157208333330345,
      "v": 61
    },
    {
      "midi": 72,
      "hit": false,
      "t": 63349.59662499983,
      "d": 161.51654166666412,
      "v": 62
    },
    {
      "midi": 66,
      "hit": false,
      "t": 63363.6415416665,
      "d": 224.71866666666756,
      "v": 57
    },
    {
      "midi": 54,
      "hit": false,
      "t": 63370.66399999983,
      "d": 154.49408333333122,
      "v": 39
    },
    {
      "midi": 45,
      "hit": false,
      "t": 63377.68645833316,
      "d": 77.24704166666925,
      "v": 42
    },
    {
      "midi": 75,
      "hit": false,
      "t": 63426.8436666662,
      "d": 35.11229166666453,
      "v": 61
    },
    {
      "midi": 60,
      "hit": false,
      "t": 63440.88858333287,
      "d": 112.35933333333378,
      "v": 32
    },
    {
      "midi": 62,
      "hit": false,
      "t": 63440.88858333287,
      "d": 161.51654166666412,
      "v": 29
    },
    {
      "midi": 54,
      "hit": false,
      "t": 63454.93349999953,
      "d": 154.49408333333122,
      "v": 35
    },
    {
      "midi": 76,
      "hit": false,
      "t": 63539.202999999536,
      "d": 84.26949999999488,
      "v": 58
    },
    {
      "midi": 78,
      "hit": false,
      "t": 63637.5174166662,
      "d": 105.33687500000087,
      "v": 65
    },
    {
      "midi": 82,
      "hit": false,
      "t": 63784.989041666195,
      "d": 70.22458333333634,
      "v": 26
    },
    {
      "midi": 84,
      "hit": false,
      "t": 63925.43820833287,
      "d": 91.29195833333506,
      "v": 56
    },
    {
      "midi": 54,
      "hit": false,
      "t": 64016.7301666665,
      "d": 126.40424999999959,
      "v": 39
    },
    {
      "midi": 60,
      "hit": false,
      "t": 64016.7301666665,
      "d": 182.58391666666284,
      "v": 50
    },
    {
      "midi": 69,
      "hit": false,
      "t": 64023.752624999834,
      "d": 112.35933333333378,
      "v": 49
    },
    {
      "midi": 63,
      "hit": false,
      "t": 64023.752624999834,
      "d": 182.58391666666284,
      "v": 48
    },
    {
      "midi": 85,
      "hit": false,
      "t": 64044.819999999534,
      "d": 35.11229166666453,
      "v": 67
    },
    {
      "midi": 54,
      "hit": false,
      "t": 64044.819999999534,
      "d": 330.05554166666116,
      "v": 40
    },
    {
      "midi": 62,
      "hit": false,
      "t": 64044.819999999534,
      "d": 330.05554166666116,
      "v": 34
    },
    {
      "midi": 60,
      "hit": false,
      "t": 64051.84245833287,
      "d": 294.9432499999966,
      "v": 42
    },
    {
      "midi": 66,
      "hit": false,
      "t": 64051.842458333165,
      "d": 126.40424999999959,
      "v": 38
    },
    {
      "midi": 86,
      "hit": false,
      "t": 64171.224249999534,
      "d": 56.17966666666325,
      "v": 67
    },
    {
      "midi": 87,
      "hit": false,
      "t": 64297.62849999953,
      "d": 112.3593333333265,
      "v": 61
    },
    {
      "midi": 88,
      "hit": false,
      "t": 64431.05520833286,
      "d": 49.157208333330345,
      "v": 35
    },
    {
      "midi": 67,
      "hit": false,
      "t": 64690.886166666496,
      "d": 1404.4916666666613,
      "v": 52
    },
    {
      "midi": 96,
      "hit": false,
      "t": 64697.90862499952,
      "d": 77.24704166666197,
      "v": 75
    },
    {
      "midi": 55,
      "hit": false,
      "t": 64697.90862499983,
      "d": 42.13474999999744,
      "v": 47
    },
    {
      "midi": 57,
      "hit": false,
      "t": 64697.90862499983,
      "d": 1341.2895416666652,
      "v": 41
    },
    {
      "midi": 65,
      "hit": false,
      "t": 64697.90862499983,
      "d": 1411.5141249999942,
      "v": 48
    },
    {
      "midi": 60,
      "hit": false,
      "t": 64711.953541666495,
      "d": 1116.5708749999976,
      "v": 47
    },
    {
      "midi": 64,
      "hit": false,
      "t": 64747.065833332854,
      "d": 196.62883333332866,
      "v": 44
    },
    {
      "midi": 60,
      "hit": false,
      "t": 64761.11074999952,
      "d": 259.8309583333321,
      "v": 31
    },
    {
      "midi": 53,
      "hit": false,
      "t": 64782.17812499952,
      "d": 681.1784583333283,
      "v": 35
    },
    {
      "midi": 57,
      "hit": false,
      "t": 64789.20058333285,
      "d": 301.9657083333368,
      "v": 47
    },
    {
      "midi": 60,
      "hit": false,
      "t": 65147.34595833285,
      "d": 42.13474999999744,
      "v": 42
    },
    {
      "midi": 43,
      "hit": false,
      "t": 65154.36841666649,
      "d": 891.8522083333373,
      "v": 61
    },
    {
      "midi": 31,
      "hit": false,
      "t": 65175.43579166649,
      "d": 786.5153333333437,
      "v": 56
    },
    {
      "midi": 62,
      "hit": false,
      "t": 65182.458249999516,
      "d": 70.22458333333634,
      "v": 39
    },
    {
      "midi": 64,
      "hit": false,
      "t": 65266.72774999952,
      "d": 84.26950000000215,
      "v": 57
    },
    {
      "midi": 65,
      "hit": false,
      "t": 65336.952333332854,
      "d": 70.22458333332906,
      "v": 46
    },
    {
      "midi": 67,
      "hit": false,
      "t": 65414.199374999516,
      "d": 70.22458333332906,
      "v": 54
    },
    {
      "midi": 69,
      "hit": false,
      "t": 65484.423958332845,
      "d": 70.22458333332906,
      "v": 55
    },
    {
      "midi": 71,
      "hit": false,
      "t": 65568.69345833284,
      "d": 42.13474999999744,
      "v": 45
    },
    {
      "midi": 72,
      "hit": false,
      "t": 65638.91804166617,
      "d": 42.13474999999744,
      "v": 40
    },
    {
      "midi": 74,
      "hit": false,
      "t": 65709.1426249995,
      "d": 35.11229166666453,
      "v": 48
    },
    {
      "midi": 76,
      "hit": false,
      "t": 65779.36720833283,
      "d": 35.11229166666453,
      "v": 45
    },
    {
      "midi": 77,
      "hit": false,
      "t": 65842.56933333282,
      "d": 28.089833333331626,
      "v": 54
    },
    {
      "midi": 79,
      "hit": false,
      "t": 65912.79391666615,
      "d": 35.11229166666453,
      "v": 47
    },
    {
      "midi": 81,
      "hit": false,
      "t": 65961.95112499948,
      "d": 35.11229166666453,
      "v": 54
    },
    {
      "midi": 83,
      "hit": false,
      "t": 66039.19816666614,
      "d": 28.089833333331626,
      "v": 46
    },
    {
      "midi": 84,
      "hit": false,
      "t": 66088.35537499948,
      "d": 49.157208333330345,
      "v": 49
    },
    {
      "midi": 86,
      "hit": false,
      "t": 66158.5799583328,
      "d": 49.157208333330345,
      "v": 52
    },
    {
      "midi": 88,
      "hit": false,
      "t": 66235.82699999947,
      "d": 42.13474999999744,
      "v": 45
    },
    {
      "midi": 89,
      "hit": false,
      "t": 66313.07404166613,
      "d": 35.11229166666453,
      "v": 48
    },
    {
      "midi": 91,
      "hit": false,
      "t": 66390.32108333279,
      "d": 42.13474999999744,
      "v": 49
    },
    {
      "midi": 93,
      "hit": false,
      "t": 66467.56812499945,
      "d": 98.31441666666069,
      "v": 52
    },
    {
      "midi": 95,
      "hit": false,
      "t": 66544.81516666611,
      "d": 119.38179166665941,
      "v": 47
    },
    {
      "midi": 96,
      "hit": false,
      "t": 66657.17449999944,
      "d": 49.157208333330345,
      "v": 39
    },
    {
      "midi": 55,
      "hit": false,
      "t": 66734.4215416665,
      "d": 105.3368749999936,
      "v": 54
    },
    {
      "midi": 49,
      "hit": false,
      "t": 66734.4215416665,
      "d": 175.56145833332266,
      "v": 57
    },
    {
      "midi": 61,
      "hit": false,
      "t": 66741.44399999944,
      "d": 273.87587499998335,
      "v": 47
    },
    {
      "midi": 64,
      "hit": false,
      "t": 66741.44399999983,
      "d": 154.49408333332394,
      "v": 48
    },
    {
      "midi": 58,
      "hit": false,
      "t": 66741.44399999983,
      "d": 217.6962083333201,
      "v": 56
    },
    {
      "midi": 65,
      "hit": false,
      "t": 66755.4889166661,
      "d": 119.38179166665941,
      "v": 39
    },
    {
      "midi": 97,
      "hit": false,
      "t": 66755.4889166661,
      "d": 610.9538749999774,
      "v": 70
    },
    {
      "midi": 61,
      "hit": false,
      "t": 66755.4889166665,
      "d": 210.6737499999872,
      "v": 42
    },
    {
      "midi": 58,
      "hit": false,
      "t": 66762.51137499943,
      "d": 203.6512916666543,
      "v": 44
    },
    {
      "midi": 55,
      "hit": false,
      "t": 66832.73595833276,
      "d": 84.26949999999488,
      "v": 25
    },
    {
      "midi": 50,
      "hit": false,
      "t": 67401.55508333315,
      "d": 962.0767916666373,
      "v": 69
    },
    {
      "midi": 72,
      "hit": false,
      "t": 67450.71229166648,
      "d": 674.1559999999881,
      "v": 73
    },
    {
      "midi": 64,
      "hit": false,
      "t": 67457.7347499994,
      "d": 695.2233749999868,
      "v": 27
    },
    {
      "midi": 57,
      "hit": false,
      "t": 67464.75720833274,
      "d": 709.2682916666527,
      "v": 37
    },
    {
      "midi": 60,
      "hit": false,
      "t": 67464.75720833274,
      "d": 709.2682916666527,
      "v": 39
    },
    {
      "midi": 98,
      "hit": false,
      "t": 67471.77966666607,
      "d": 344.10045833332697,
      "v": 56
    },
    {
      "midi": 53,
      "hit": false,
      "t": 67492.84704166607,
      "d": 667.1335416666552,
      "v": 31
    },
    {
      "midi": 60,
      "hit": false,
      "t": 68103.80091666647,
      "d": 119.38179166665941,
      "v": 32
    },
    {
      "midi": 65,
      "hit": false,
      "t": 68110.8233749998,
      "d": 632.0212499999907,
      "v": 54
    },
    {
      "midi": 62,
      "hit": false,
      "t": 68124.86829166647,
      "d": 372.1902916666586,
      "v": 33
    },
    {
      "midi": 57,
      "hit": false,
      "t": 68138.91320833314,
      "d": 140.44916666665813,
      "v": 29
    },
    {
      "midi": 73,
      "hit": false,
      "t": 68756.88954166646,
      "d": 660.1110833333369,
      "v": 77
    },
    {
      "midi": 43,
      "hit": false,
      "t": 68763.9119999998,
      "d": 386.23520833333896,
      "v": 62
    },
    {
      "midi": 84,
      "hit": false,
      "t": 68813.06920833272,
      "d": 112.3593333333265,
      "v": 99
    },
    {
      "midi": 74,
      "hit": false,
      "t": 68820.09166666605,
      "d": 63.20212499999616,
      "v": 84
    },
    {
      "midi": 77,
      "hit": false,
      "t": 68827.11412499938,
      "d": 35.11229166666453,
      "v": 81
    },
    {
      "midi": 81,
      "hit": false,
      "t": 68827.11412499938,
      "d": 35.11229166666453,
      "v": 79
    },
    {
      "midi": 69,
      "hit": false,
      "t": 68827.11412499938,
      "d": 63.20212499999616,
      "v": 67
    },
    {
      "midi": 76,
      "hit": false,
      "t": 68834.13658333271,
      "d": 35.11229166666453,
      "v": 76
    },
    {
      "midi": 81,
      "hit": false,
      "t": 69262.50654166604,
      "d": 133.42670833332522,
      "v": 74
    },
    {
      "midi": 65,
      "hit": false,
      "t": 69262.50654166604,
      "d": 210.6737499999872,
      "v": 59
    },
    {
      "midi": 72,
      "hit": false,
      "t": 69276.5514583327,
      "d": 105.3368749999936,
      "v": 54
    },
    {
      "midi": 74,
      "hit": false,
      "t": 69276.5514583327,
      "d": 126.40424999999232,
      "v": 56
    },
    {
      "midi": 77,
      "hit": false,
      "t": 69290.59637499937,
      "d": 42.13474999999744,
      "v": 55
    },
    {
      "midi": 65,
      "hit": false,
      "t": 69452.11291666646,
      "d": 617.9763333333249,
      "v": 39
    },
    {
      "midi": 71,
      "hit": false,
      "t": 69473.18029166646,
      "d": 435.39241666665475,
      "v": 52
    },
    {
      "midi": 61,
      "hit": false,
      "t": 69487.22520833313,
      "d": 63.20212499999616,
      "v": 31
    },
    {
      "midi": 64,
      "hit": false,
      "t": 69522.33749999935,
      "d": 231.74112500000047,
      "v": 39
    },
    {
      "midi": 79,
      "hit": false,
      "t": 69522.33749999935,
      "d": 266.853416666665,
      "v": 49
    },
    {
      "midi": 72,
      "hit": false,
      "t": 69557.44979166602,
      "d": 133.42670833333977,
      "v": 23
    },
    {
      "midi": 64,
      "hit": false,
      "t": 69873.46041666601,
      "d": 119.38179166665941,
      "v": 49
    },
    {
      "midi": 77,
      "hit": false,
      "t": 69880.48287499935,
      "d": 56.17966666666325,
      "v": 62
    },
    {
      "midi": 67,
      "hit": false,
      "t": 70119.24645833268,
      "d": 126.40424999999232,
      "v": 56
    },
    {
      "midi": 74,
      "hit": false,
      "t": 70119.24645833312,
      "d": 610.9538750000065,
      "v": 78
    },
    {
      "midi": 74,
      "hit": false,
      "t": 70126.26891666601,
      "d": 98.31441666666069,
      "v": 50
    },
    {
      "midi": 79,
      "hit": false,
      "t": 70140.31383333268,
      "d": 98.31441666666069,
      "v": 41
    },
    {
      "midi": 76,
      "hit": false,
      "t": 70140.31383333268,
      "d": 105.3368749999936,
      "v": 47
    },
    {
      "midi": 83,
      "hit": false,
      "t": 70140.31383333268,
      "d": 119.38179166665941,
      "v": 47
    },
    {
      "midi": 52,
      "hit": false,
      "t": 70154.35874999978,
      "d": 779.4928749999963,
      "v": 45
    },
    {
      "midi": 62,
      "hit": false,
      "t": 70744.24524999979,
      "d": 91.29195833332778,
      "v": 39
    },
    {
      "midi": 67,
      "hit": false,
      "t": 70758.29016666645,
      "d": 252.80849999998463,
      "v": 48
    },
    {
      "midi": 64,
      "hit": false,
      "t": 70765.31262499979,
      "d": 196.62883333332138,
      "v": 40
    },
    {
      "midi": 59,
      "hit": false,
      "t": 70772.33508333312,
      "d": 56.17966666666325,
      "v": 37
    },
    {
      "midi": 79,
      "hit": false,
      "t": 70821.492291666,
      "d": 323.03308333332825,
      "v": 51
    },
    {
      "midi": 74,
      "hit": false,
      "t": 70821.492291666,
      "d": 351.1229166666599,
      "v": 52
    },
    {
      "midi": 64,
      "hit": false,
      "t": 70821.492291666,
      "d": 400.2801249999902,
      "v": 43
    },
    {
      "midi": 71,
      "hit": false,
      "t": 70828.51474999933,
      "d": 358.1453749999928,
      "v": 39
    },
    {
      "midi": 45,
      "hit": false,
      "t": 71186.66012499978,
      "d": 112.3593333333265,
      "v": 80
    },
    {
      "midi": 66,
      "hit": false,
      "t": 71432.44616666643,
      "d": 505.6169999999838,
      "v": 81
    },
    {
      "midi": 75,
      "hit": false,
      "t": 71432.44616666643,
      "d": 962.0767916666518,
      "v": 75
    },
    {
      "midi": 71,
      "hit": false,
      "t": 71439.46862499976,
      "d": 414.32504166665603,
      "v": 72
    },
    {
      "midi": 61,
      "hit": false,
      "t": 71474.58091666643,
      "d": 779.4928749999817,
      "v": 56
    },
    {
      "midi": 64,
      "hit": false,
      "t": 71853.793666666,
      "d": 98.31441666666069,
      "v": 66
    },
    {
      "midi": 76,
      "hit": false,
      "t": 71867.83858333266,
      "d": 84.26949999999488,
      "v": 89
    },
    {
      "midi": 77,
      "hit": false,
      "t": 71888.90595833266,
      "d": 210.67375000000175,
      "v": 82
    },
    {
      "midi": 65,
      "hit": false,
      "t": 71909.97333333266,
      "d": 259.8309583333321,
      "v": 72
    },
    {
      "midi": 66,
      "hit": false,
      "t": 72120.64708333308,
      "d": 259.8309583333321,
      "v": 61
    },
    {
      "midi": 64,
      "hit": false,
      "t": 72127.66954166642,
      "d": 112.3593333333265,
      "v": 49
    },
    {
      "midi": 76,
      "hit": false,
      "t": 72169.80429166599,
      "d": 428.3699583333364,
      "v": 68
    },
    {
      "midi": 64,
      "hit": false,
      "t": 72197.89412499932,
      "d": 470.50470833333384,
      "v": 46
    },
    {
      "midi": 63,
      "hit": false,
      "t": 72703.51112499932,
      "d": 84.26949999999488,
      "v": 45
    },
    {
      "midi": 64,
      "hit": false,
      "t": 72780.75816666598,
      "d": 91.29195833332778,
      "v": 52
    },
    {
      "midi": 81,
      "hit": false,
      "t": 72815.87045833265,
      "d": 344.10045833332697,
      "v": 77
    },
    {
      "midi": 69,
      "hit": false,
      "t": 72815.87045833308,
      "d": 400.2801249999902,
      "v": 56
    },
    {
      "midi": 60,
      "hit": false,
      "t": 72815.87045833308,
      "d": 421.34749999998894,
      "v": 47
    },
    {
      "midi": 76,
      "hit": false,
      "t": 72815.87045833308,
      "d": 540.7292916666484,
      "v": 63
    },
    {
      "midi": 65,
      "hit": false,
      "t": 72822.89291666598,
      "d": 681.178458333321,
      "v": 57
    },
    {
      "midi": 72,
      "hit": false,
      "t": 72822.89291666642,
      "d": 393.2576666666573,
      "v": 55
    },
    {
      "midi": 65,
      "hit": false,
      "t": 72829.91537499975,
      "d": 273.8758749999979,
      "v": 48
    },
    {
      "midi": 50,
      "hit": false,
      "t": 72850.98274999975,
      "d": 737.3581249999697,
      "v": 41
    },
    {
      "midi": 57,
      "hit": false,
      "t": 73475.98154166639,
      "d": 140.44916666665813,
      "v": 39
    },
    {
      "midi": 65,
      "hit": false,
      "t": 73475.98154166639,
      "d": 217.6962083333201,
      "v": 39
    },
    {
      "midi": 69,
      "hit": false,
      "t": 73475.98154166639,
      "d": 259.83095833331754,
      "v": 43
    },
    {
      "midi": 72,
      "hit": false,
      "t": 73475.98154166639,
      "d": 280.89833333331626,
      "v": 46
    },
    {
      "midi": 77,
      "hit": false,
      "t": 73511.09383333263,
      "d": 266.853416666665,
      "v": 68
    },
    {
      "midi": 62,
      "hit": false,
      "t": 73511.09383333263,
      "d": 414.3250416666706,
      "v": 48
    },
    {
      "midi": 52,
      "hit": false,
      "t": 74108.00279166637,
      "d": 112.3593333333265,
      "v": 63
    },
    {
      "midi": 76,
      "hit": false,
      "t": 74157.1599999993,
      "d": 330.05554166666116,
      "v": 65
    },
    {
      "midi": 65,
      "hit": false,
      "t": 74164.18245833264,
      "d": 400.2801249999902,
      "v": 50
    },
    {
      "midi": 62,
      "hit": false,
      "t": 74164.18245833264,
      "d": 639.043708333309,
      "v": 49
    },
    {
      "midi": 68,
      "hit": false,
      "t": 74199.2947499993,
      "d": 407.3025833333231,
      "v": 42
    },
    {
      "midi": 68,
      "hit": false,
      "t": 74796.20370833261,
      "d": 400.2801250000048,
      "v": 48
    },
    {
      "midi": 67,
      "hit": false,
      "t": 74796.20370833302,
      "d": 98.31441666666069,
      "v": 48
    },
    {
      "midi": 56,
      "hit": false,
      "t": 74796.20370833302,
      "d": 266.85341666665045,
      "v": 56
    },
    {
      "midi": 77,
      "hit": false,
      "t": 74796.20370833302,
      "d": 351.1229166666453,
      "v": 68
    },
    {
      "midi": 64,
      "hit": false,
      "t": 74803.22616666595,
      "d": 210.67375000000175,
      "v": 39
    },
    {
      "midi": 74,
      "hit": false,
      "t": 74803.22616666595,
      "d": 217.69620833333465,
      "v": 50
    },
    {
      "midi": 68,
      "hit": false,
      "t": 74803.22616666635,
      "d": 280.89833333331626,
      "v": 66
    },
    {
      "midi": 56,
      "hit": false,
      "t": 74817.27108333261,
      "d": 575.841583333342,
      "v": 41
    },
    {
      "midi": 62,
      "hit": false,
      "t": 74817.27108333302,
      "d": 119.38179166665941,
      "v": 49
    },
    {
      "midi": 71,
      "hit": false,
      "t": 74817.27108333302,
      "d": 224.718666666653,
      "v": 59
    },
    {
      "midi": 74,
      "hit": false,
      "t": 74838.33845833302,
      "d": 252.80849999998463,
      "v": 49
    },
    {
      "midi": 72,
      "hit": false,
      "t": 75470.35970833262,
      "d": 393.25766666664276,
      "v": 52
    },
    {
      "midi": 76,
      "hit": false,
      "t": 75484.40462499966,
      "d": 175.56145833332266,
      "v": 63
    },
    {
      "midi": 60,
      "hit": false,
      "t": 75491.42708333262,
      "d": 161.51654166665685,
      "v": 39
    },
    {
      "midi": 67,
      "hit": false,
      "t": 75491.42708333262,
      "d": 210.6737499999872,
      "v": 52
    },
    {
      "midi": 57,
      "hit": false,
      "t": 75491.42708333262,
      "d": 301.965708333315,
      "v": 39
    },
    {
      "midi": 64,
      "hit": false,
      "t": 75491.427083333,
      "d": 140.44916666665813,
      "v": 51
    },
    {
      "midi": 57,
      "hit": false,
      "t": 75498.44954166633,
      "d": 231.7411249999859,
      "v": 48
    },
    {
      "midi": 72,
      "hit": false,
      "t": 75505.47199999966,
      "d": 182.58391666665557,
      "v": 52
    },
    {
      "midi": 67,
      "hit": false,
      "t": 75505.47199999966,
      "d": 231.7411249999859,
      "v": 43
    },
    {
      "midi": 60,
      "hit": false,
      "t": 75533.56183333299,
      "d": 91.29195833332778,
      "v": 36
    },
    {
      "midi": 65,
      "hit": false,
      "t": 76116.42587499926,
      "d": 49.157208333330345,
      "v": 53
    },
    {
      "midi": 60,
      "hit": false,
      "t": 76151.53816666632,
      "d": 287.9207916666637,
      "v": 54
    },
    {
      "midi": 66,
      "hit": false,
      "t": 76158.56062499965,
      "d": 386.2352083333244,
      "v": 51
    },
    {
      "midi": 54,
      "hit": false,
      "t": 76172.60554166631,
      "d": 238.76358333333337,
      "v": 42
    },
    {
      "midi": 44,
      "hit": false,
      "t": 76179.62799999965,
      "d": 273.8758749999979,
      "v": 41
    },
    {
      "midi": 66,
      "hit": false,
      "t": 76193.67291666592,
      "d": 147.47162499999104,
      "v": 45
    },
    {
      "midi": 68,
      "hit": false,
      "t": 76299.00979166591,
      "d": 84.26949999999488,
      "v": 58
    },
    {
      "midi": 70,
      "hit": false,
      "t": 76369.23437499924,
      "d": 42.13474999999744,
      "v": 43
    },
    {
      "midi": 71,
      "hit": false,
      "t": 76439.45895833257,
      "d": 112.3593333333265,
      "v": 54
    },
    {
      "midi": 72,
      "hit": false,
      "t": 76558.84074999923,
      "d": 91.29195833332778,
      "v": 45
    },
    {
      "midi": 73,
      "hit": false,
      "t": 76629.06533333256,
      "d": 98.31441666666069,
      "v": 65
    },
    {
      "midi": 74,
      "hit": false,
      "t": 76769.51449999922,
      "d": 105.3368749999936,
      "v": 26
    },
    {
      "midi": 75,
      "hit": false,
      "t": 76783.55941666588,
      "d": 126.40424999999232,
      "v": 43
    },
    {
      "midi": 58,
      "hit": false,
      "t": 76832.71662499964,
      "d": 91.29195833332778,
      "v": 49
    },
    {
      "midi": 43,
      "hit": false,
      "t": 76832.71662499964,
      "d": 119.38179166665941,
      "v": 48
    },
    {
      "midi": 65,
      "hit": false,
      "t": 76846.7615416663,
      "d": 161.51654166665685,
      "v": 45
    },
    {
      "midi": 53,
      "hit": false,
      "t": 76853.78399999964,
      "d": 168.53899999998976,
      "v": 36
    },
    {
      "midi": 76,
      "hit": false,
      "t": 76909.96366666588,
      "d": 126.40424999999232,
      "v": 52
    },
    {
      "midi": 77,
      "hit": false,
      "t": 76973.16579166587,
      "d": 182.58391666665557,
      "v": 73
    },
    {
      "midi": 58,
      "hit": false,
      "t": 77029.34545833254,
      "d": 112.3593333333265,
      "v": 31
    },
    {
      "midi": 74,
      "hit": false,
      "t": 77225.97429166586,
      "d": 77.24704166666197,
      "v": 75
    },
    {
      "midi": 70,
      "hit": false,
      "t": 77394.51329166585,
      "d": 154.4940833333385,
      "v": 58
    },
    {
      "midi": 73,
      "hit": false,
      "t": 77520.91754166629,
      "d": 421.34749999998894,
      "v": 66
    },
    {
      "midi": 68,
      "hit": false,
      "t": 77527.93999999962,
      "d": 456.4597916666535,
      "v": 66
    },
    {
      "midi": 64,
      "hit": false,
      "t": 77534.96245833296,
      "d": 330.05554166666116,
      "v": 57
    },
    {
      "midi": 58,
      "hit": false,
      "t": 77549.00737499962,
      "d": 463.4822499999864,
      "v": 50
    },
    {
      "midi": 69,
      "hit": false,
      "t": 77598.16458333252,
      "d": 49.157208333330345,
      "v": 41
    },
    {
      "midi": 76,
      "hit": false,
      "t": 77703.50145833251,
      "d": 140.44916666667268,
      "v": 80
    },
    {
      "midi": 73,
      "hit": false,
      "t": 77970.35487499919,
      "d": 133.42670833333977,
      "v": 63
    },
    {
      "midi": 70,
      "hit": false,
      "t": 78195.07354166586,
      "d": 49.157208333330345,
      "v": 41
    },
    {
      "midi": 72,
      "hit": false,
      "t": 78195.07354166626,
      "d": 182.58391666667012,
      "v": 48
    },
    {
      "midi": 62,
      "hit": false,
      "t": 78195.07354166626,
      "d": 287.9207916666637,
      "v": 40
    },
    {
      "midi": 67,
      "hit": false,
      "t": 78202.0959999996,
      "d": 182.58391666667012,
      "v": 49
    },
    {
      "midi": 57,
      "hit": false,
      "t": 78209.11845833293,
      "d": 154.4940833333385,
      "v": 49
    },
    {
      "midi": 58,
      "hit": false,
      "t": 78216.14091666586,
      "d": 189.60637499998847,
      "v": 31
    },
    {
      "midi": 68,
      "hit": false,
      "t": 78293.38795833252,
      "d": 63.20212499999616,
      "v": 28
    },
    {
      "midi": 64,
      "hit": false,
      "t": 78377.65745833251,
      "d": 63.20212499999616,
      "v": 50
    },
    {
      "midi": 72,
      "hit": false,
      "t": 78511.08416666584,
      "d": 898.8746666666702,
      "v": 74
    },
    {
      "midi": 60,
      "hit": false,
      "t": 78869.22954166627,
      "d": 203.6512916666543,
      "v": 48
    },
    {
      "midi": 53,
      "hit": false,
      "t": 78876.2519999996,
      "d": 49.157208333330345,
      "v": 44
    },
    {
      "midi": 64,
      "hit": false,
      "t": 78876.2519999996,
      "d": 119.38179166665941,
      "v": 50
    },
    {
      "midi": 69,
      "hit": false,
      "t": 78883.27445833293,
      "d": 70.22458333332906,
      "v": 40
    },
    {
      "midi": 69,
      "hit": false,
      "t": 79360.80162499918,
      "d": 161.51654166665685,
      "v": 72
    },
    {
      "midi": 56,
      "hit": false,
      "t": 79522.31816666626,
      "d": 386.2352083333244,
      "v": 54
    },
    {
      "midi": 60,
      "hit": false,
      "t": 79522.31816666626,
      "d": 407.3025833333231,
      "v": 57
    },
    {
      "midi": 67,
      "hit": false,
      "t": 79522.31816666626,
      "d": 470.5047083333193,
      "v": 54
    },
    {
      "midi": 52,
      "hit": false,
      "t": 79522.31816666626,
      "d": 639.0437083333236,
      "v": 50
    },
    {
      "midi": 68,
      "hit": false,
      "t": 79606.58766666583,
      "d": 1200.8403749999707,
      "v": 57
    },
    {
      "midi": 62,
      "hit": false,
      "t": 79620.6325833325,
      "d": 344.10045833332697,
      "v": 25
    },
    {
      "midi": 56,
      "hit": false,
      "t": 79620.6325833325,
      "d": 365.1678333333257,
      "v": 32
    },
    {
      "midi": 60,
      "hit": false,
      "t": 79627.65504166583,
      "d": 323.03308333332825,
      "v": 39
    },
    {
      "midi": 53,
      "hit": false,
      "t": 79662.7673333325,
      "d": 800.5602499999804,
      "v": 31
    },
    {
      "midi": 56,
      "hit": false,
      "t": 80203.49662499958,
      "d": 203.65129166666884,
      "v": 51
    },
    {
      "midi": 50,
      "hit": false,
      "t": 80210.51908333291,
      "d": 154.4940833333385,
      "v": 41
    },
    {
      "midi": 60,
      "hit": false,
      "t": 80210.51908333291,
      "d": 196.62883333333593,
      "v": 52
    },
    {
      "midi": 65,
      "hit": false,
      "t": 80210.51908333291,
      "d": 224.71866666666756,
      "v": 52
    },
    {
      "midi": 62,
      "hit": false,
      "t": 80231.58645833249,
      "d": 91.29195833332778,
      "v": 28
    },
    {
      "midi": 56,
      "hit": false,
      "t": 80238.60891666582,
      "d": 182.58391666665557,
      "v": 39
    },
    {
      "midi": 60,
      "hit": false,
      "t": 80245.63137499915,
      "d": 49.157208333330345,
      "v": 39
    },
    {
      "midi": 64,
      "hit": false,
      "t": 80870.63016666623,
      "d": 196.62883333332138,
      "v": 52
    },
    {
      "midi": 55,
      "hit": false,
      "t": 80891.69754166623,
      "d": 91.29195833332778,
      "v": 31
    },
    {
      "midi": 60,
      "hit": false,
      "t": 80891.69754166623,
      "d": 147.47162499999104,
      "v": 43
    },
    {
      "midi": 48,
      "hit": false,
      "t": 80926.8098333329,
      "d": 56.17966666666325,
      "v": 31
    },
    {
      "midi": 64,
      "hit": false,
      "t": 81544.78616666622,
      "d": 182.58391666665557,
      "v": 53
    },
    {
      "midi": 59,
      "hit": false,
      "t": 81558.83108333289,
      "d": 77.24704166666197,
      "v": 29
    },
    {
      "midi": 62,
      "hit": false,
      "t": 81558.83108333289,
      "d": 140.44916666665813,
      "v": 43
    },
    {
      "midi": 92,
      "hit": false,
      "t": 81593.94337499913,
      "d": 238.76358333333337,
      "v": 82
    },
    {
      "midi": 80,
      "hit": false,
      "t": 81600.96583333246,
      "d": 252.80849999999919,
      "v": 82
    },
    {
      "midi": 55,
      "hit": false,
      "t": 81600.96583333288,
      "d": 56.17966666666325,
      "v": 22
    },
    {
      "midi": 62,
      "hit": false,
      "t": 81607.9882916658,
      "d": 196.62883333333593,
      "v": 53
    },
    {
      "midi": 87,
      "hit": false,
      "t": 81615.01074999913,
      "d": 182.58391666667012,
      "v": 73
    },
    {
      "midi": 59,
      "hit": false,
      "t": 81622.03320833246,
      "d": 196.62883333333593,
      "v": 47
    },
    {
      "midi": 55,
      "hit": false,
      "t": 81629.0556666658,
      "d": 196.62883333333593,
      "v": 51
    },
    {
      "midi": 52,
      "hit": false,
      "t": 81636.07812499913,
      "d": 175.5614583333372,
      "v": 45
    },
    {
      "midi": 93,
      "hit": false,
      "t": 82029.3357916658,
      "d": 35.11229166666453,
      "v": 58
    },
    {
      "midi": 59,
      "hit": false,
      "t": 82036.35824999913,
      "d": 49.157208333330345,
      "v": 44
    },
    {
      "midi": 81,
      "hit": false,
      "t": 82050.4031666658,
      "d": 42.13474999999744,
      "v": 67
    },
    {
      "midi": 62,
      "hit": false,
      "t": 82050.4031666658,
      "d": 56.17966666666325,
      "v": 33
    },
    {
      "midi": 39,
      "hit": false,
      "t": 82204.89724999954,
      "d": 133.42670833332522,
      "v": 57
    },
    {
      "midi": 54,
      "hit": false,
      "t": 82218.94216666621,
      "d": 231.7411249999859,
      "v": 42
    },
    {
      "midi": 74,
      "hit": false,
      "t": 82225.96462499954,
      "d": 238.76358333331882,
      "v": 68
    },
    {
      "midi": 66,
      "hit": false,
      "t": 82225.96462499954,
      "d": 407.3025833333231,
      "v": 58
    },
    {
      "midi": 63,
      "hit": false,
      "t": 82232.98708333288,
      "d": 245.78604166665173,
      "v": 55
    },
    {
      "midi": 84,
      "hit": false,
      "t": 82282.14429166578,
      "d": 252.80849999999919,
      "v": 72
    },
    {
      "midi": 72,
      "hit": false,
      "t": 82296.18920833245,
      "d": 217.69620833333465,
      "v": 56
    },
    {
      "midi": 64,
      "hit": false,
      "t": 82296.18920833245,
      "d": 224.71866666666756,
      "v": 39
    },
    {
      "midi": 57,
      "hit": false,
      "t": 82338.32395833245,
      "d": 210.67375000000175,
      "v": 33
    },
    {
      "midi": 60,
      "hit": false,
      "t": 82345.34641666578,
      "d": 189.60637500000303,
      "v": 33
    },
    {
      "midi": 55,
      "hit": false,
      "t": 82359.39133333245,
      "d": 140.44916666667268,
      "v": 22
    },
    {
      "midi": 86,
      "hit": false,
      "t": 82689.4468749991,
      "d": 112.3593333333265,
      "v": 71
    },
    {
      "midi": 74,
      "hit": false,
      "t": 82696.46933333244,
      "d": 112.3593333333265,
      "v": 66
    },
    {
      "midi": 64,
      "hit": false,
      "t": 82703.49179166577,
      "d": 105.3368749999936,
      "v": 43
    },
    {
      "midi": 60,
      "hit": false,
      "t": 82731.5816249991,
      "d": 84.26949999999488,
      "v": 46
    },
    {
      "midi": 57,
      "hit": false,
      "t": 82731.5816249991,
      "d": 126.40424999999232,
      "v": 44
    },
    {
      "midi": 55,
      "hit": false,
      "t": 82745.62654166577,
      "d": 63.20212499999616,
      "v": 24
    },
    {
      "midi": 54,
      "hit": false,
      "t": 82900.12062499953,
      "d": 140.44916666665813,
      "v": 51
    },
    {
      "midi": 63,
      "hit": false,
      "t": 82900.12062499953,
      "d": 175.56145833332266,
      "v": 66
    },
    {
      "midi": 72,
      "hit": false,
      "t": 82907.14308333286,
      "d": 182.58391666665557,
      "v": 57
    },
    {
      "midi": 66,
      "hit": false,
      "t": 82907.14308333286,
      "d": 252.80849999998463,
      "v": 59
    },
    {
      "midi": 60,
      "hit": false,
      "t": 82914.1655416662,
      "d": 49.157208333330345,
      "v": 50
    },
    {
      "midi": 84,
      "hit": false,
      "t": 82935.23291666576,
      "d": 196.62883333332138,
      "v": 51
    },
    {
      "midi": 64,
      "hit": false,
      "t": 82942.25537499909,
      "d": 105.3368749999936,
      "v": 39
    },
    {
      "midi": 72,
      "hit": false,
      "t": 82949.27783333242,
      "d": 77.24704166666197,
      "v": 42
    },
    {
      "midi": 60,
      "hit": false,
      "t": 82970.34520833242,
      "d": 98.31441666666069,
      "v": 37
    },
    {
      "midi": 55,
      "hit": false,
      "t": 82977.36766666576,
      "d": 126.40424999999232,
      "v": 31
    },
    {
      "midi": 57,
      "hit": false,
      "t": 82977.36766666576,
      "d": 133.42670833332522,
      "v": 38
    },
    {
      "midi": 57,
      "hit": false,
      "t": 83581.29908333285,
      "d": 112.3593333333265,
      "v": 55
    },
    {
      "midi": 65,
      "hit": false,
      "t": 83581.29908333285,
      "d": 182.58391666665557,
      "v": 68
    },
    {
      "midi": 60,
      "hit": false,
      "t": 83588.32154166618,
      "d": 189.60637499998847,
      "v": 57
    },
    {
      "midi": 50,
      "hit": false,
      "t": 83602.36645833285,
      "d": 126.40424999999232,
      "v": 46
    },
    {
      "midi": 84,
      "hit": false,
      "t": 83841.13004166575,
      "d": 63.20212499999616,
      "v": 63
    },
    {
      "midi": 96,
      "hit": false,
      "t": 83841.13004166575,
      "d": 84.26949999999488,
      "v": 70
    },
    {
      "midi": 91,
      "hit": false,
      "t": 83862.19741666575,
      "d": 35.11229166666453,
      "v": 49
    },
    {
      "midi": 64,
      "hit": false,
      "t": 83862.19741666575,
      "d": 42.13474999999744,
      "v": 61
    },
    {
      "midi": 60,
      "hit": false,
      "t": 83862.19741666575,
      "d": 49.157208333330345,
      "v": 53
    },
    {
      "midi": 57,
      "hit": false,
      "t": 83883.26479166574,
      "d": 35.11229166666453,
      "v": 48
    },
    {
      "midi": 96,
      "hit": false,
      "t": 84079.89362499908,
      "d": 84.26949999999488,
      "v": 80
    },
    {
      "midi": 64,
      "hit": false,
      "t": 84086.91608333241,
      "d": 49.157208333330345,
      "v": 50
    },
    {
      "midi": 84,
      "hit": false,
      "t": 84086.91608333241,
      "d": 49.157208333330345,
      "v": 68
    },
    {
      "midi": 91,
      "hit": false,
      "t": 84086.91608333241,
      "d": 49.157208333330345,
      "v": 72
    },
    {
      "midi": 60,
      "hit": false,
      "t": 84086.91608333241,
      "d": 56.17966666666325,
      "v": 49
    },
    {
      "midi": 57,
      "hit": false,
      "t": 84093.93854166575,
      "d": 63.20212499999616,
      "v": 52
    },
    {
      "midi": 69,
      "hit": false,
      "t": 84248.4326249995,
      "d": 435.3924166666693,
      "v": 81
    },
    {
      "midi": 60,
      "hit": false,
      "t": 84255.45508333284,
      "d": 308.988166666677,
      "v": 82
    },
    {
      "midi": 65,
      "hit": false,
      "t": 84262.47754166617,
      "d": 393.25766666667187,
      "v": 68
    },
    {
      "midi": 57,
      "hit": false,
      "t": 84269.4999999995,
      "d": 126.40425000000687,
      "v": 73
    },
    {
      "midi": 66,
      "hit": false,
      "t": 84269.4999999995,
      "d": 337.0780000000086,
      "v": 46
    },
    {
      "midi": 81,
      "hit": false,
      "t": 84325.67966666575,
      "d": 42.13474999999744,
      "v": 63
    },
    {
      "midi": 88,
      "hit": false,
      "t": 84325.67966666575,
      "d": 49.157208333330345,
      "v": 61
    },
    {
      "midi": 64,
      "hit": false,
      "t": 84325.67966666575,
      "d": 56.17966666666325,
      "v": 57
    },
    {
      "midi": 90,
      "hit": false,
      "t": 84325.67966666575,
      "d": 56.17966666666325,
      "v": 45
    },
    {
      "midi": 60,
      "hit": false,
      "t": 84325.67966666575,
      "d": 70.22458333332906,
      "v": 49
    },
    {
      "midi": 57,
      "hit": false,
      "t": 84325.67966666575,
      "d": 91.29195833332778,
      "v": 57
    },
    {
      "midi": 93,
      "hit": false,
      "t": 84325.67966666575,
      "d": 91.29195833332778,
      "v": 72
    },
    {
      "midi": 93,
      "hit": false,
      "t": 84543.37587499908,
      "d": 77.24704166666197,
      "v": 57
    },
    {
      "midi": 60,
      "hit": false,
      "t": 84557.42079166575,
      "d": 49.157208333330345,
      "v": 51
    },
    {
      "midi": 64,
      "hit": false,
      "t": 84557.42079166575,
      "d": 49.157208333330345,
      "v": 42
    },
    {
      "midi": 81,
      "hit": false,
      "t": 84557.42079166575,
      "d": 49.157208333330345,
      "v": 46
    },
    {
      "midi": 88,
      "hit": false,
      "t": 84557.42079166575,
      "d": 63.20212499999616,
      "v": 56
    },
    {
      "midi": 57,
      "hit": false,
      "t": 84557.42079166575,
      "d": 84.26949999999488,
      "v": 42
    },
    {
      "midi": 90,
      "hit": false,
      "t": 84585.51062499908,
      "d": 35.11229166666453,
      "v": 28
    },
    {
      "midi": 91,
      "hit": false,
      "t": 84789.16191666575,
      "d": 280.89833333334536,
      "v": 81
    },
    {
      "midi": 64,
      "hit": false,
      "t": 84796.18437499908,
      "d": 344.1004583333415,
      "v": 68
    },
    {
      "midi": 59,
      "hit": false,
      "t": 84796.18437499908,
      "d": 358.14537500000733,
      "v": 66
    },
    {
      "midi": 86,
      "hit": false,
      "t": 84803.20683333241,
      "d": 294.9432500000112,
      "v": 73
    },
    {
      "midi": 79,
      "hit": false,
      "t": 84803.20683333241,
      "d": 308.988166666677,
      "v": 59
    },
    {
      "midi": 53,
      "hit": false,
      "t": 84803.20683333241,
      "d": 365.16783333334024,
      "v": 56
    },
    {
      "midi": 64,
      "hit": false,
      "t": 84929.61108333284,
      "d": 189.60637499998847,
      "v": 56
    },
    {
      "midi": 59,
      "hit": false,
      "t": 84929.61108333284,
      "d": 231.7411249999859,
      "v": 57
    },
    {
      "midi": 43,
      "hit": false,
      "t": 84929.61108333284,
      "d": 294.9432499999821,
      "v": 50
    },
    {
      "midi": 67,
      "hit": false,
      "t": 84936.63354166618,
      "d": 189.60637499998847,
      "v": 54
    },
    {
      "midi": 53,
      "hit": false,
      "t": 84936.63354166618,
      "d": 280.89833333331626,
      "v": 46
    },
    {
      "midi": 66,
      "hit": false,
      "t": 85582.69970833282,
      "d": 372.19029166667315,
      "v": 55
    },
    {
      "midi": 53,
      "hit": false,
      "t": 85589.72216666615,
      "d": 196.62883333333593,
      "v": 46
    },
    {
      "midi": 61,
      "hit": false,
      "t": 85589.72216666615,
      "d": 358.14537500000733,
      "v": 54
    },
    {
      "midi": 59,
      "hit": false,
      "t": 85596.74462499948,
      "d": 224.71866666666756,
      "v": 50
    },
    {
      "midi": 43,
      "hit": false,
      "t": 85603.76708333282,
      "d": 554.7742083333433,
      "v": 39
    },
    {
      "midi": 88,
      "hit": false,
      "t": 85631.85691666575,
      "d": 196.62883333333593,
      "v": 56
    },
    {
      "midi": 59,
      "hit": false,
      "t": 85631.85691666575,
      "d": 210.67375000000175,
      "v": 56
    },
    {
      "midi": 83,
      "hit": false,
      "t": 85645.90183333242,
      "d": 196.62883333333593,
      "v": 50
    },
    {
      "midi": 76,
      "hit": false,
      "t": 85645.90183333242,
      "d": 252.80849999999919,
      "v": 39
    },
    {
      "midi": 64,
      "hit": false,
      "t": 85652.92429166575,
      "d": 133.42670833333977,
      "v": 38
    },
    {
      "midi": 53,
      "hit": false,
      "t": 85659.94674999909,
      "d": 231.74112500000047,
      "v": 35
    },
    {
      "midi": 50,
      "hit": false,
      "t": 86095.33916666616,
      "d": 42.13474999999744,
      "v": 36
    },
    {
      "midi": 59,
      "hit": false,
      "t": 86249.83324999949,
      "d": 898.8746666666702,
      "v": 57
    },
    {
      "midi": 62,
      "hit": false,
      "t": 86256.85570833282,
      "d": 919.942041666669,
      "v": 57
    },
    {
      "midi": 67,
      "hit": false,
      "t": 86256.85570833282,
      "d": 926.9645000000019,
      "v": 60
    },
    {
      "midi": 84,
      "hit": false,
      "t": 86291.96799999909,
      "d": 133.42670833332522,
      "v": 53
    },
    {
      "midi": 72,
      "hit": false,
      "t": 86291.96799999909,
      "d": 196.62883333332138,
      "v": 39
    },
    {
      "midi": 60,
      "hit": false,
      "t": 86291.96799999909,
      "d": 337.07799999999406,
      "v": 36
    },
    {
      "midi": 57,
      "hit": false,
      "t": 86306.01291666576,
      "d": 435.39241666665475,
      "v": 38
    },
    {
      "midi": 79,
      "hit": false,
      "t": 86313.03537499909,
      "d": 133.42670833332522,
      "v": 54
    },
    {
      "midi": 52,
      "hit": false,
      "t": 86355.17012499909,
      "d": 877.807291666657,
      "v": 20
    },
    {
      "midi": 42,
      "hit": false,
      "t": 86720.33795833282,
      "d": 168.5390000000043,
      "v": 66
    },
    {
      "midi": 60,
      "hit": false,
      "t": 86776.51762499908,
      "d": 210.67375000000175,
      "v": 72
    },
    {
      "midi": 43,
      "hit": false,
      "t": 86938.03416666616,
      "d": 533.70683333333,
      "v": 58
    },
    {
      "midi": 61,
      "hit": false,
      "t": 86994.21383333241,
      "d": 147.4716250000056,
      "v": 62
    },
    {
      "midi": 57,
      "hit": false,
      "t": 87001.23629166574,
      "d": 168.5390000000043,
      "v": 48
    },
    {
      "midi": 64,
      "hit": false,
      "t": 87225.95495833241,
      "d": 126.40424999999232,
      "v": 56
    },
    {
      "midi": 31,
      "hit": false,
      "t": 87387.47149999949,
      "d": 835.672541666645,
      "v": 82
    },
    {
      "midi": 67,
      "hit": false,
      "t": 87485.78591666574,
      "d": 140.44916666667268,
      "v": 76
    },
    {
      "midi": 70,
      "hit": false,
      "t": 87710.50458333241,
      "d": 259.8309583333321,
      "v": 50
    },
    {
      "midi": 75,
      "hit": false,
      "t": 87921.17833333241,
      "d": 133.42670833332522,
      "v": 58
    },
    {
      "midi": 53,
      "hit": false,
      "t": 88103.76224999948,
      "d": 112.3593333333265,
      "v": 73
    },
    {
      "midi": 57,
      "hit": false,
      "t": 88103.76224999948,
      "d": 147.47162499999104,
      "v": 75
    },
    {
      "midi": 60,
      "hit": false,
      "t": 88103.76224999948,
      "d": 175.56145833332266,
      "v": 68
    },
    {
      "midi": 43,
      "hit": false,
      "t": 88110.78470833281,
      "d": 161.51654166665685,
      "v": 77
    },
    {
      "midi": 79,
      "hit": false,
      "t": 88131.8520833324,
      "d": 147.4716250000056,
      "v": 85
    },
    {
      "midi": 82,
      "hit": false,
      "t": 88356.57074999907,
      "d": 168.53899999998976,
      "v": 85
    },
    {
      "midi": 66,
      "hit": false,
      "t": 88363.5932083324,
      "d": 140.44916666665813,
      "v": 52
    },
    {
      "midi": 61,
      "hit": false,
      "t": 88384.6605833324,
      "d": 351.1229166666599,
      "v": 48
    },
    {
      "midi": 87,
      "hit": false,
      "t": 88581.28941666572,
      "d": 140.44916666667268,
      "v": 78
    },
    {
      "midi": 73,
      "hit": false,
      "t": 88728.76104166613,
      "d": 161.5165416666714,
      "v": 82
    },
    {
      "midi": 61,
      "hit": false,
      "t": 88728.76104166613,
      "d": 203.65129166666884,
      "v": 80
    },
    {
      "midi": 63,
      "hit": false,
      "t": 88735.78349999947,
      "d": 182.58391666667012,
      "v": 83
    },
    {
      "midi": 66,
      "hit": false,
      "t": 88735.78349999947,
      "d": 203.65129166666884,
      "v": 81
    },
    {
      "midi": 51,
      "hit": false,
      "t": 88735.78349999947,
      "d": 266.853416666665,
      "v": 72
    },
    {
      "midi": 70,
      "hit": false,
      "t": 88742.8059583328,
      "d": 196.62883333333593,
      "v": 68
    },
    {
      "midi": 88,
      "hit": false,
      "t": 88798.98562499906,
      "d": 168.5390000000043,
      "v": 107
    },
    {
      "midi": 64,
      "hit": false,
      "t": 88995.61445833239,
      "d": 365.1678333333257,
      "v": 51
    },
    {
      "midi": 50,
      "hit": false,
      "t": 89002.63691666613,
      "d": 294.9432499999821,
      "v": 72
    },
    {
      "midi": 60,
      "hit": false,
      "t": 89009.65937499906,
      "d": 372.1902916666586,
      "v": 42
    },
    {
      "midi": 69,
      "hit": false,
      "t": 89009.65937499946,
      "d": 210.6737499999872,
      "v": 60
    },
    {
      "midi": 72,
      "hit": false,
      "t": 89009.65937499946,
      "d": 245.78604166665173,
      "v": 66
    },
    {
      "midi": 60,
      "hit": false,
      "t": 89009.65937499946,
      "d": 266.85341666665045,
      "v": 66
    },
    {
      "midi": 65,
      "hit": false,
      "t": 89009.65937499946,
      "d": 266.85341666665045,
      "v": 61
    },
    {
      "midi": 53,
      "hit": false,
      "t": 89023.70429166572,
      "d": 1123.5933333333087,
      "v": 41
    },
    {
      "midi": 62,
      "hit": false,
      "t": 89023.70429166613,
      "d": 266.85341666665045,
      "v": 57
    },
    {
      "midi": 91,
      "hit": false,
      "t": 89030.72674999906,
      "d": 203.65129166666884,
      "v": 115
    },
    {
      "midi": 57,
      "hit": false,
      "t": 89030.72674999906,
      "d": 400.2801249999902,
      "v": 47
    },
    {
      "midi": 88,
      "hit": false,
      "t": 89269.49033333239,
      "d": 140.44916666665813,
      "v": 66
    },
    {
      "midi": 89,
      "hit": false,
      "t": 89480.16408333238,
      "d": 161.5165416666714,
      "v": 107
    },
    {
      "midi": 69,
      "hit": false,
      "t": 89676.79291666612,
      "d": 386.23520833330986,
      "v": 52
    },
    {
      "midi": 57,
      "hit": false,
      "t": 89683.81537499945,
      "d": 119.38179166665941,
      "v": 57
    },
    {
      "midi": 62,
      "hit": false,
      "t": 89683.81537499945,
      "d": 210.6737499999872,
      "v": 52
    },
    {
      "midi": 60,
      "hit": false,
      "t": 89683.81537499945,
      "d": 287.92079166664917,
      "v": 46
    },
    {
      "midi": 57,
      "hit": false,
      "t": 89697.86029166571,
      "d": 449.43733333332057,
      "v": 54
    },
    {
      "midi": 65,
      "hit": false,
      "t": 89697.86029166612,
      "d": 400.28012499997567,
      "v": 46
    },
    {
      "midi": 60,
      "hit": false,
      "t": 89718.92766666571,
      "d": 358.1453749999928,
      "v": 30
    },
    {
      "midi": 64,
      "hit": false,
      "t": 89725.95012499904,
      "d": 372.1902916666586,
      "v": 31
    },
    {
      "midi": 84,
      "hit": false,
      "t": 90070.05058333237,
      "d": 133.42670833332522,
      "v": 75
    },
    {
      "midi": 88,
      "hit": false,
      "t": 90252.63449999903,
      "d": 140.44916666667268,
      "v": 96
    },
    {
      "midi": 53,
      "hit": false,
      "t": 90329.8815416661,
      "d": 245.78604166666628,
      "v": 47
    },
    {
      "midi": 64,
      "hit": false,
      "t": 90336.90399999943,
      "d": 238.76358333333337,
      "v": 49
    },
    {
      "midi": 43,
      "hit": false,
      "t": 90336.90399999943,
      "d": 646.0661666666565,
      "v": 47
    },
    {
      "midi": 59,
      "hit": false,
      "t": 90343.92645833276,
      "d": 280.8983333333308,
      "v": 45
    },
    {
      "midi": 67,
      "hit": false,
      "t": 90343.92645833276,
      "d": 814.6051666666608,
      "v": 45
    },
    {
      "midi": 64,
      "hit": false,
      "t": 90428.19595833236,
      "d": 891.8522083333228,
      "v": 38
    },
    {
      "midi": 59,
      "hit": false,
      "t": 90442.24087499903,
      "d": 962.0767916666518,
      "v": 43
    },
    {
      "midi": 86,
      "hit": false,
      "t": 90456.2857916657,
      "d": 358.1453749999928,
      "v": 81
    },
    {
      "midi": 53,
      "hit": false,
      "t": 90484.37562499903,
      "d": 926.9644999999873,
      "v": 45
    },
    {
      "midi": 84,
      "hit": false,
      "t": 90891.67820833235,
      "d": 168.5390000000043,
      "v": 84
    },
    {
      "midi": 53,
      "hit": false,
      "t": 90997.01508333275,
      "d": 154.4940833333385,
      "v": 42
    },
    {
      "midi": 59,
      "hit": false,
      "t": 90997.01508333275,
      "d": 175.5614583333372,
      "v": 51
    },
    {
      "midi": 64,
      "hit": false,
      "t": 91004.03754166608,
      "d": 259.8309583333321,
      "v": 49
    },
    {
      "midi": 83,
      "hit": false,
      "t": 91158.53162499901,
      "d": 280.8983333333308,
      "v": 60
    },
    {
      "midi": 86,
      "hit": false,
      "t": 91523.69945833234,
      "d": 189.60637499998847,
      "v": 84
    },
    {
      "midi": 36,
      "hit": false,
      "t": 91685.2159999994,
      "d": 133.42670833332522,
      "v": 39
    },
    {
      "midi": 64,
      "hit": false,
      "t": 91692.23845833274,
      "d": 112.3593333333265,
      "v": 42
    },
    {
      "midi": 62,
      "hit": false,
      "t": 91699.26091666607,
      "d": 133.42670833332522,
      "v": 34
    },
    {
      "midi": 52,
      "hit": false,
      "t": 91727.3507499994,
      "d": 203.6512916666543,
      "v": 36
    },
    {
      "midi": 55,
      "hit": false,
      "t": 91741.39566666566,
      "d": 835.672541666645,
      "v": 36
    },
    {
      "midi": 59,
      "hit": false,
      "t": 91748.41812499899,
      "d": 821.6276249999792,
      "v": 35
    },
    {
      "midi": 52,
      "hit": false,
      "t": 91755.44058333233,
      "d": 800.5602499999804,
      "v": 27
    },
    {
      "midi": 62,
      "hit": false,
      "t": 91762.46304166566,
      "d": 905.897124999974,
      "v": 19
    },
    {
      "midi": 82,
      "hit": false,
      "t": 91825.66516666565,
      "d": 133.42670833332522,
      "v": 65
    },
    {
      "midi": 83,
      "hit": false,
      "t": 91916.95712499898,
      "d": 119.38179166665941,
      "v": 56
    },
    {
      "midi": 78,
      "hit": false,
      "t": 92190.83299999898,
      "d": 168.53899999998976,
      "v": 64
    },
    {
      "midi": 79,
      "hit": false,
      "t": 92310.21479166564,
      "d": 77.24704166666197,
      "v": 53
    },
    {
      "midi": 56,
      "hit": false,
      "t": 92359.37199999939,
      "d": 259.8309583333321,
      "v": 35
    },
    {
      "midi": 46,
      "hit": false,
      "t": 92380.43937499939,
      "d": 330.05554166666116,
      "v": 37
    },
    {
      "midi": 76,
      "hit": false,
      "t": 92548.97837499897,
      "d": 259.8309583333321,
      "v": 59
    },
    {
      "midi": 74,
      "hit": false,
      "t": 92900.10129166563,
      "d": 140.44916666667268,
      "v": 59
    },
    {
      "midi": 55,
      "hit": false,
      "t": 93012.46062499938,
      "d": 154.49408333332394,
      "v": 49
    },
    {
      "midi": 70,
      "hit": false,
      "t": 93026.50554166605,
      "d": 147.47162499999104,
      "v": 46
    },
    {
      "midi": 61,
      "hit": false,
      "t": 93026.50554166605,
      "d": 168.53899999998976,
      "v": 47
    },
    {
      "midi": 66,
      "hit": false,
      "t": 93040.55045833271,
      "d": 140.44916666665813,
      "v": 45
    },
    {
      "midi": 45,
      "hit": false,
      "t": 93047.57291666605,
      "d": 147.47162499999104,
      "v": 30
    },
    {
      "midi": 61,
      "hit": false,
      "t": 93075.66274999897,
      "d": 400.2801249999902,
      "v": 38
    },
    {
      "midi": 64,
      "hit": false,
      "t": 93082.6852083323,
      "d": 372.1902916666586,
      "v": 30
    },
    {
      "midi": 55,
      "hit": false,
      "t": 93089.70766666564,
      "d": 828.6500833333266,
      "v": 33
    },
    {
      "midi": 73,
      "hit": false,
      "t": 93180.99962499896,
      "d": 252.80849999999919,
      "v": 49
    },
    {
      "midi": 69,
      "hit": false,
      "t": 93539.14499999896,
      "d": 589.8865000000078,
      "v": 57
    },
    {
      "midi": 49,
      "hit": false,
      "t": 93588.3022083327,
      "d": 63.20212499999616,
      "v": 29
    },
    {
      "midi": 51,
      "hit": false,
      "t": 93644.48187499936,
      "d": 42.13474999999744,
      "v": 40
    },
    {
      "midi": 58,
      "hit": false,
      "t": 93658.52679166602,
      "d": 252.80849999998463,
      "v": 51
    },
    {
      "midi": 61,
      "hit": false,
      "t": 93672.57170833269,
      "d": 484.5496249999851,
      "v": 41
    },
    {
      "midi": 52,
      "hit": false,
      "t": 93679.59416666602,
      "d": 477.5271666666522,
      "v": 45
    },
    {
      "midi": 67,
      "hit": false,
      "t": 93700.66154166602,
      "d": 140.44916666665813,
      "v": 38
    },
    {
      "midi": 64,
      "hit": false,
      "t": 93707.68399999935,
      "d": 196.62883333332138,
      "v": 40
    },
    {
      "midi": 61,
      "hit": false,
      "t": 93728.75137499896,
      "d": 245.78604166666628,
      "v": 33
    },
    {
      "midi": 64,
      "hit": false,
      "t": 93749.81874999896,
      "d": 126.40425000000687,
      "v": 24
    },
    {
      "midi": 49,
      "hit": false,
      "t": 94227.345916666,
      "d": 91.29195833332778,
      "v": 39
    },
    {
      "midi": 57,
      "hit": false,
      "t": 94339.70524999933,
      "d": 779.4928749999817,
      "v": 43
    },
    {
      "midi": 60,
      "hit": false,
      "t": 94339.70524999933,
      "d": 835.672541666645,
      "v": 51
    },
    {
      "midi": 50,
      "hit": false,
      "t": 94346.72770833266,
      "d": 491.57208333333256,
      "v": 39
    },
    {
      "midi": 65,
      "hit": false,
      "t": 94367.79508333266,
      "d": 772.4704166666488,
      "v": 31
    },
    {
      "midi": 57,
      "hit": false,
      "t": 94430.99720833231,
      "d": 414.32504166665603,
      "v": 42
    },
    {
      "midi": 60,
      "hit": false,
      "t": 94438.01966666564,
      "d": 323.03308333332825,
      "v": 32
    },
    {
      "midi": 64,
      "hit": false,
      "t": 94452.0645833323,
      "d": 287.9207916666637,
      "v": 14
    },
    {
      "midi": 53,
      "hit": false,
      "t": 94452.0645833323,
      "d": 856.7399166666291,
      "v": 26
    },
    {
      "midi": 80,
      "hit": false,
      "t": 94775.09766666564,
      "d": 161.51654166665685,
      "v": 85
    },
    {
      "midi": 81,
      "hit": false,
      "t": 94901.50191666563,
      "d": 112.3593333333265,
      "v": 77
    },
    {
      "midi": 48,
      "hit": false,
      "t": 95027.90616666598,
      "d": 484.5496249999851,
      "v": 52
    },
    {
      "midi": 60,
      "hit": false,
      "t": 95084.08583333228,
      "d": 189.60637499998847,
      "v": 33
    },
    {
      "midi": 57,
      "hit": false,
      "t": 95084.08583333228,
      "d": 245.78604166665173,
      "v": 26
    },
    {
      "midi": 76,
      "hit": false,
      "t": 95175.37779166561,
      "d": 154.49408333332394,
      "v": 82
    },
    {
      "midi": 77,
      "hit": false,
      "t": 95308.80449999894,
      "d": 133.42670833332522,
      "v": 74
    },
    {
      "midi": 46,
      "hit": false,
      "t": 95526.50070833263,
      "d": 91.29195833332778,
      "v": 45
    },
    {
      "midi": 72,
      "hit": false,
      "t": 95575.6579166656,
      "d": 112.3593333333265,
      "v": 56
    },
    {
      "midi": 67,
      "hit": false,
      "t": 95688.01724999929,
      "d": 477.52716666666674,
      "v": 57
    },
    {
      "midi": 56,
      "hit": false,
      "t": 95688.01724999929,
      "d": 498.59454166666546,
      "v": 55
    },
    {
      "midi": 62,
      "hit": false,
      "t": 95702.06216666596,
      "d": 449.4373333333351,
      "v": 58
    },
    {
      "midi": 47,
      "hit": false,
      "t": 95702.06216666596,
      "d": 533.70683333333,
      "v": 55
    },
    {
      "midi": 67,
      "hit": false,
      "t": 96200.65670833226,
      "d": 316.01062499999534,
      "v": 57
    },
    {
      "midi": 62,
      "hit": false,
      "t": 96214.70162499892,
      "d": 400.2801249999902,
      "v": 61
    },
    {
      "midi": 56,
      "hit": false,
      "t": 96214.70162499892,
      "d": 568.81912499998,
      "v": 54
    },
    {
      "midi": 56,
      "hit": false,
      "t": 96376.21816666595,
      "d": 280.8983333333308,
      "v": 48
    },
    {
      "midi": 65,
      "hit": false,
      "t": 96376.21816666595,
      "d": 294.9432499999966,
      "v": 57
    },
    {
      "midi": 46,
      "hit": false,
      "t": 96376.21816666595,
      "d": 407.3025833333231,
      "v": 55
    },
    {
      "midi": 62,
      "hit": false,
      "t": 96383.24062499928,
      "d": 231.74112500000047,
      "v": 52
    },
    {
      "midi": 76,
      "hit": false,
      "t": 96453.46520833226,
      "d": 175.56145833332266,
      "v": 111
    },
    {
      "midi": 74,
      "hit": false,
      "t": 96664.13895833225,
      "d": 140.44916666665813,
      "v": 84
    },
    {
      "midi": 76,
      "hit": false,
      "t": 96671.16141666558,
      "d": 49.157208333330345,
      "v": 31
    },
    {
      "midi": 72,
      "hit": false,
      "t": 96853.74533333223,
      "d": 161.5165416666714,
      "v": 81
    },
    {
      "midi": 45,
      "hit": false,
      "t": 97022.2843333326,
      "d": 287.9207916666637,
      "v": 51
    },
    {
      "midi": 55,
      "hit": false,
      "t": 97022.2843333326,
      "d": 323.03308333332825,
      "v": 50
    },
    {
      "midi": 57,
      "hit": false,
      "t": 97029.30679166557,
      "d": 912.9195833332778,
      "v": 38
    },
    {
      "midi": 64,
      "hit": false,
      "t": 97036.3292499989,
      "d": 316.0106249999808,
      "v": 40
    },
    {
      "midi": 64,
      "hit": false,
      "t": 97036.32924999927,
      "d": 203.65129166666884,
      "v": 53
    },
    {
      "midi": 71,
      "hit": false,
      "t": 97050.37416666557,
      "d": 119.38179166665941,
      "v": 67
    },
    {
      "midi": 60,
      "hit": false,
      "t": 97050.37416666593,
      "d": 280.8983333333308,
      "v": 48
    },
    {
      "midi": 60,
      "hit": false,
      "t": 97071.44154166557,
      "d": 280.89833333331626,
      "v": 41
    },
    {
      "midi": 74,
      "hit": false,
      "t": 97282.11529166556,
      "d": 154.49408333332394,
      "v": 86
    },
    {
      "midi": 71,
      "hit": false,
      "t": 97485.76658333221,
      "d": 98.31441666666069,
      "v": 58
    },
    {
      "midi": 72,
      "hit": false,
      "t": 97654.3055833322,
      "d": 2127.8048749999725,
      "v": 76
    },
    {
      "midi": 64,
      "hit": false,
      "t": 97696.4403333322,
      "d": 84.26949999999488,
      "v": 32
    },
    {
      "midi": 60,
      "hit": false,
      "t": 97703.46279166553,
      "d": 119.38179166665941,
      "v": 36
    },
    {
      "midi": 44,
      "hit": false,
      "t": 97703.46279166592,
      "d": 238.76358333333337,
      "v": 46
    },
    {
      "midi": 32,
      "hit": false,
      "t": 97703.46279166592,
      "d": 252.80849999999919,
      "v": 49
    },
    {
      "midi": 54,
      "hit": false,
      "t": 97717.50770833259,
      "d": 238.76358333333337,
      "v": 52
    },
    {
      "midi": 59,
      "hit": false,
      "t": 97717.50770833259,
      "d": 245.78604166666628,
      "v": 54
    },
    {
      "midi": 63,
      "hit": false,
      "t": 97724.53016666592,
      "d": 351.1229166666599,
      "v": 47
    },
    {
      "midi": 56,
      "hit": false,
      "t": 98209.07979166551,
      "d": 112.3593333333265,
      "v": 38
    },
    {
      "midi": 43,
      "hit": false,
      "t": 98384.64124999924,
      "d": 133.42670833332522,
      "v": 46
    },
    {
      "midi": 62,
      "hit": false,
      "t": 98384.64124999924,
      "d": 140.44916666665813,
      "v": 51
    },
    {
      "midi": 58,
      "hit": false,
      "t": 98384.64124999924,
      "d": 175.56145833332266,
      "v": 50
    },
    {
      "midi": 31,
      "hit": false,
      "t": 98398.68616666591,
      "d": 42.13474999999744,
      "v": 42
    },
    {
      "midi": 62,
      "hit": false,
      "t": 98869.19087499884,
      "d": 42.13474999999744,
      "v": 49
    },
    {
      "midi": 58,
      "hit": false,
      "t": 98869.19087499884,
      "d": 63.20212499999616,
      "v": 48
    },
    {
      "midi": 64,
      "hit": false,
      "t": 99072.8421666659,
      "d": 217.69620833333465,
      "v": 57
    },
    {
      "midi": 68,
      "hit": false,
      "t": 99072.8421666659,
      "d": 421.3475000000035,
      "v": 58
    },
    {
      "midi": 72,
      "hit": false,
      "t": 99072.8421666659,
      "d": 484.54962499999965,
      "v": 58
    },
    {
      "midi": 58,
      "hit": false,
      "t": 99086.88708333256,
      "d": 393.25766666667187,
      "v": 52
    },
    {
      "midi": 66,
      "hit": false,
      "t": 99739.97570833257,
      "d": 547.7517499999958,
      "v": 79
    },
    {
      "midi": 69,
      "hit": false,
      "t": 99754.02062499923,
      "d": 997.1890833333309,
      "v": 70
    },
    {
      "midi": 64,
      "hit": false,
      "t": 99768.0655416659,
      "d": 266.853416666665,
      "v": 55
    },
    {
      "midi": 60,
      "hit": false,
      "t": 99789.1329166659,
      "d": 294.9432499999966,
      "v": 51
    },
    {
      "midi": 54,
      "hit": false,
      "t": 99796.15537499923,
      "d": 1088.4810416666733,
      "v": 33
    },
    {
      "midi": 64,
      "hit": false,
      "t": 99810.2002916655,
      "d": 140.44916666665813,
      "v": 31
    },
    {
      "midi": 60,
      "hit": false,
      "t": 99817.22274999884,
      "d": 154.49408333332394,
      "v": 31
    },
    {
      "midi": 57,
      "hit": false,
      "t": 99838.29012499884,
      "d": 98.31441666666069,
      "v": 29
    },
    {
      "midi": 53,
      "hit": false,
      "t": 99845.31258333217,
      "d": 105.3368749999936,
      "v": 26
    },
    {
      "midi": 66,
      "hit": false,
      "t": 100421.1541666659,
      "d": 575.8415833333274,
      "v": 51
    },
    {
      "midi": 60,
      "hit": false,
      "t": 100449.24399999923,
      "d": 561.7966666666616,
      "v": 53
    },
    {
      "midi": 64,
      "hit": false,
      "t": 100547.55841666549,
      "d": 252.80849999999919,
      "v": 39
    },
    {
      "midi": 54,
      "hit": false,
      "t": 100554.58087499882,
      "d": 505.61699999999837,
      "v": 40
    },
    {
      "midi": 60,
      "hit": false,
      "t": 100568.62579166549,
      "d": 414.3250416666706,
      "v": 37
    },
    {
      "midi": 69,
      "hit": false,
      "t": 100975.92837499882,
      "d": 91.29195833332778,
      "v": 88
    },
    {
      "midi": 56,
      "hit": false,
      "t": 101074.24279166589,
      "d": 1060.391208333327,
      "v": 45
    },
    {
      "midi": 65,
      "hit": false,
      "t": 101088.28770833256,
      "d": 491.57208333333256,
      "v": 57
    },
    {
      "midi": 62,
      "hit": false,
      "t": 101095.31016666589,
      "d": 435.3924166666693,
      "v": 45
    },
    {
      "midi": 68,
      "hit": false,
      "t": 101095.31016666589,
      "d": 1095.5034999999916,
      "v": 54
    },
    {
      "midi": 53,
      "hit": false,
      "t": 101109.35508333256,
      "d": 926.9645000000019,
      "v": 46
    },
    {
      "midi": 62,
      "hit": false,
      "t": 101214.69195833216,
      "d": 245.78604166665173,
      "v": 36
    },
    {
      "midi": 56,
      "hit": false,
      "t": 101214.69195833216,
      "d": 301.965708333315,
      "v": 45
    },
    {
      "midi": 60,
      "hit": false,
      "t": 101228.73687499882,
      "d": 266.85341666665045,
      "v": 38
    },
    {
      "midi": 53,
      "hit": false,
      "t": 101242.78179166549,
      "d": 856.7399166666291,
      "v": 40
    },
    {
      "midi": 72,
      "hit": false,
      "t": 101256.82670833216,
      "d": 105.3368749999936,
      "v": 94
    },
    {
      "midi": 76,
      "hit": false,
      "t": 101621.99454166547,
      "d": 140.44916666667268,
      "v": 122
    },
    {
      "midi": 65,
      "hit": false,
      "t": 101755.42124999923,
      "d": 316.01062499999534,
      "v": 48
    },
    {
      "midi": 62,
      "hit": false,
      "t": 101755.42124999923,
      "d": 372.1902916666586,
      "v": 36
    },
    {
      "midi": 60,
      "hit": false,
      "t": 101783.51108333256,
      "d": 63.20212499999616,
      "v": 36
    },
    {
      "midi": 56,
      "hit": false,
      "t": 101860.7581249988,
      "d": 245.78604166665173,
      "v": 37
    },
    {
      "midi": 60,
      "hit": false,
      "t": 101867.78058333213,
      "d": 126.40424999999232,
      "v": 35
    },
    {
      "midi": 62,
      "hit": false,
      "t": 101867.78058333213,
      "d": 133.42670833332522,
      "v": 20
    },
    {
      "midi": 79,
      "hit": false,
      "t": 101895.87041666546,
      "d": 133.42670833332522,
      "v": 115
    },
    {
      "midi": 77,
      "hit": false,
      "t": 102106.54416666545,
      "d": 140.44916666667268,
      "v": 82
    },
    {
      "midi": 72,
      "hit": false,
      "t": 102317.21791666545,
      "d": 154.4940833333385,
      "v": 68
    },
    {
      "midi": 59,
      "hit": false,
      "t": 102443.62216666588,
      "d": 112.3593333333265,
      "v": 36
    },
    {
      "midi": 67,
      "hit": false,
      "t": 102443.62216666588,
      "d": 175.56145833332266,
      "v": 46
    },
    {
      "midi": 64,
      "hit": false,
      "t": 102443.62216666588,
      "d": 217.6962083333201,
      "v": 46
    },
    {
      "midi": 52,
      "hit": false,
      "t": 102443.62216666588,
      "d": 1214.885291666622,
      "v": 36
    },
    {
      "midi": 62,
      "hit": false,
      "t": 102450.64462499922,
      "d": 91.29195833332778,
      "v": 28
    },
    {
      "midi": 59,
      "hit": false,
      "t": 102513.84674999879,
      "d": 238.76358333331882,
      "v": 31
    },
    {
      "midi": 67,
      "hit": false,
      "t": 102534.91412499879,
      "d": 119.38179166665941,
      "v": 57
    },
    {
      "midi": 55,
      "hit": false,
      "t": 102548.95904166545,
      "d": 210.6737499999872,
      "v": 35
    },
    {
      "midi": 65,
      "hit": false,
      "t": 102745.58787499878,
      "d": 182.58391666667012,
      "v": 56
    },
    {
      "midi": 62,
      "hit": false,
      "t": 102879.01458333254,
      "d": 140.44916666665813,
      "v": 65
    },
    {
      "midi": 64,
      "hit": false,
      "t": 102886.03704166587,
      "d": 126.40424999999232,
      "v": 78
    },
    {
      "midi": 67,
      "hit": false,
      "t": 102893.0594999992,
      "d": 126.40424999999232,
      "v": 60
    },
    {
      "midi": 74,
      "hit": false,
      "t": 102893.0594999992,
      "d": 182.58391666665557,
      "v": 73
    },
    {
      "midi": 70,
      "hit": false,
      "t": 102914.1268749992,
      "d": 35.11229166666453,
      "v": 49
    },
    {
      "midi": 64,
      "hit": false,
      "t": 102970.30654166544,
      "d": 105.3368749999936,
      "v": 53
    },
    {
      "midi": 62,
      "hit": false,
      "t": 103124.80062499877,
      "d": 400.2801249999902,
      "v": 30
    },
    {
      "midi": 59,
      "hit": false,
      "t": 103138.84554166543,
      "d": 330.05554166666116,
      "v": 39
    },
    {
      "midi": 60,
      "hit": false,
      "t": 103138.84554166585,
      "d": 126.40424999999232,
      "v": 53
    },
    {
      "midi": 52,
      "hit": false,
      "t": 103166.93537499876,
      "d": 259.8309583333321,
      "v": 31
    },
    {
      "midi": 55,
      "hit": false,
      "t": 103166.93537499876,
      "d": 273.8758749999979,
      "v": 41
    },
    {
      "midi": 72,
      "hit": false,
      "t": 103166.93537499919,
      "d": 266.853416666665,
      "v": 50
    },
    {
      "midi": 64,
      "hit": false,
      "t": 103173.95783333252,
      "d": 56.17966666666325,
      "v": 39
    },
    {
      "midi": 67,
      "hit": false,
      "t": 103180.98029166585,
      "d": 105.3368749999936,
      "v": 33
    },
    {
      "midi": 63,
      "hit": false,
      "t": 103560.19304166584,
      "d": 449.43733333332057,
      "v": 69
    },
    {
      "midi": 74,
      "hit": false,
      "t": 103560.19304166584,
      "d": 477.5271666666522,
      "v": 68
    },
    {
      "midi": 66,
      "hit": false,
      "t": 103560.19304166584,
      "d": 484.5496249999851,
      "v": 61
    },
    {
      "midi": 62,
      "hit": false,
      "t": 103574.23795833251,
      "d": 617.9763333333249,
      "v": 66
    },
    {
      "midi": 69,
      "hit": false,
      "t": 103581.26041666584,
      "d": 372.1902916666586,
      "v": 49
    },
    {
      "midi": 63,
      "hit": false,
      "t": 104227.3265833325,
      "d": 266.85341666665045,
      "v": 63
    },
    {
      "midi": 72,
      "hit": false,
      "t": 104234.34904166583,
      "d": 203.6512916666543,
      "v": 55
    },
    {
      "midi": 66,
      "hit": false,
      "t": 104234.34904166583,
      "d": 287.92079166664917,
      "v": 57
    },
    {
      "midi": 60,
      "hit": false,
      "t": 104248.3939583325,
      "d": 119.38179166665941,
      "v": 58
    },
    {
      "midi": 69,
      "hit": false,
      "t": 104269.4613333325,
      "d": 196.62883333332138,
      "v": 46
    },
    {
      "midi": 63,
      "hit": false,
      "t": 104276.48379166542,
      "d": 245.78604166666628,
      "v": 41
    },
    {
      "midi": 60,
      "hit": false,
      "t": 104297.55116666542,
      "d": 231.74112500000047,
      "v": 40
    },
    {
      "midi": 57,
      "hit": false,
      "t": 104311.59608333209,
      "d": 189.60637500000303,
      "v": 45
    },
    {
      "midi": 54,
      "hit": false,
      "t": 104318.61854166542,
      "d": 330.05554166666116,
      "v": 34
    },
    {
      "midi": 71,
      "hit": false,
      "t": 104725.92112499874,
      "d": 98.31441666666069,
      "v": 48
    },
    {
      "midi": 62,
      "hit": false,
      "t": 104894.46012499915,
      "d": 112.3593333333265,
      "v": 57
    },
    {
      "midi": 60,
      "hit": false,
      "t": 104894.46012499915,
      "d": 154.49408333332394,
      "v": 57
    },
    {
      "midi": 57,
      "hit": false,
      "t": 104901.48258333249,
      "d": 77.24704166666197,
      "v": 54
    },
    {
      "midi": 69,
      "hit": false,
      "t": 104908.50504166582,
      "d": 49.157208333330345,
      "v": 36
    },
    {
      "midi": 50,
      "hit": false,
      "t": 104915.52749999915,
      "d": 126.40424999999232,
      "v": 43
    },
    {
      "midi": 72,
      "hit": false,
      "t": 104922.54995833206,
      "d": 175.5614583333372,
      "v": 81
    },
    {
      "midi": 65,
      "hit": false,
      "t": 104922.54995833249,
      "d": 49.157208333330345,
      "v": 39
    },
    {
      "midi": 64,
      "hit": false,
      "t": 105161.3135416654,
      "d": 301.96570833332953,
      "v": 29
    },
    {
      "midi": 69,
      "hit": false,
      "t": 105168.33599999873,
      "d": 2169.9396249999554,
      "v": 65
    },
    {
      "midi": 60,
      "hit": false,
      "t": 105182.3809166654,
      "d": 273.8758749999979,
      "v": 36
    },
    {
      "midi": 57,
      "hit": false,
      "t": 105182.3809166654,
      "d": 294.9432499999966,
      "v": 36
    },
    {
      "midi": 53,
      "hit": false,
      "t": 105189.40337499873,
      "d": 884.8297499999753,
      "v": 28
    },
    {
      "midi": 49,
      "hit": false,
      "t": 105519.4589166658,
      "d": 91.29195833332778,
      "v": 56
    },
    {
      "midi": 50,
      "hit": false,
      "t": 105540.5262916658,
      "d": 617.9763333333103,
      "v": 58
    },
    {
      "midi": 65,
      "hit": false,
      "t": 105554.57120833246,
      "d": 210.6737499999872,
      "v": 50
    },
    {
      "midi": 57,
      "hit": false,
      "t": 105554.57120833246,
      "d": 231.7411249999859,
      "v": 57
    },
    {
      "midi": 60,
      "hit": false,
      "t": 105561.5936666658,
      "d": 210.6737499999872,
      "v": 58
    },
    {
      "midi": 62,
      "hit": false,
      "t": 105596.70595833246,
      "d": 126.40424999999232,
      "v": 43
    },
    {
      "midi": 64,
      "hit": false,
      "t": 105821.42462499872,
      "d": 112.3593333333265,
      "v": 34
    },
    {
      "midi": 57,
      "hit": false,
      "t": 105835.46954166538,
      "d": 175.56145833332266,
      "v": 43
    },
    {
      "midi": 60,
      "hit": false,
      "t": 105842.49199999872,
      "d": 133.42670833332522,
      "v": 37
    },
    {
      "midi": 53,
      "hit": false,
      "t": 106235.74966666577,
      "d": 112.3593333333265,
      "v": 57
    },
    {
      "midi": 45,
      "hit": false,
      "t": 106235.74966666577,
      "d": 147.47162499999104,
      "v": 48
    },
    {
      "midi": 60,
      "hit": false,
      "t": 106235.74966666577,
      "d": 154.49408333332394,
      "v": 61
    },
    {
      "midi": 57,
      "hit": false,
      "t": 106242.7721249991,
      "d": 147.47162499999104,
      "v": 54
    },
    {
      "midi": 45,
      "hit": false,
      "t": 106923.95058333244,
      "d": 400.2801249999902,
      "v": 54
    },
    {
      "midi": 57,
      "hit": false,
      "t": 106937.9954999991,
      "d": 316.01062499999534,
      "v": 54
    },
    {
      "midi": 60,
      "hit": false,
      "t": 106937.9954999991,
      "d": 400.2801249999902,
      "v": 54
    },
    {
      "midi": 53,
      "hit": false,
      "t": 106945.01795833244,
      "d": 273.8758749999979,
      "v": 45
    },
    {
      "midi": 61,
      "hit": false,
      "t": 107169.7366249987,
      "d": 161.51654166665685,
      "v": 30
    },
    {
      "midi": 58,
      "hit": false,
      "t": 107204.84891666536,
      "d": 126.40424999999232,
      "v": 25
    },
    {
      "midi": 55,
      "hit": false,
      "t": 107239.96120833202,
      "d": 84.26949999999488,
      "v": 22
    },
    {
      "midi": 58,
      "hit": false,
      "t": 107612.15149999909,
      "d": 189.60637499998847,
      "v": 62
    },
    {
      "midi": 55,
      "hit": false,
      "t": 107619.17395833242,
      "d": 49.157208333330345,
      "v": 53
    },
    {
      "midi": 61,
      "hit": false,
      "t": 107619.17395833242,
      "d": 105.3368749999936,
      "v": 58
    },
    {
      "midi": 45,
      "hit": false,
      "t": 107619.17395833242,
      "d": 140.44916666665813,
      "v": 53
    },
    {
      "midi": 58,
      "hit": false,
      "t": 107886.02737499907,
      "d": 561.7966666666616,
      "v": 62
    },
    {
      "midi": 54,
      "hit": false,
      "t": 107900.07229166574,
      "d": 540.7292916666629,
      "v": 57
    },
    {
      "midi": 44,
      "hit": false,
      "t": 107900.07229166574,
      "d": 1025.278916666648,
      "v": 62
    },
    {
      "midi": 60,
      "hit": false,
      "t": 107921.13966666574,
      "d": 828.6500833333266,
      "v": 50
    },
    {
      "midi": 77,
      "hit": false,
      "t": 108335.46470833203,
      "d": 91.29195833332778,
      "v": 77
    },
    {
      "midi": 89,
      "hit": false,
      "t": 108335.46470833203,
      "d": 112.3593333333265,
      "v": 57
    },
    {
      "midi": 82,
      "hit": false,
      "t": 108335.46470833203,
      "d": 140.44916666665813,
      "v": 68
    },
    {
      "midi": 65,
      "hit": false,
      "t": 108335.46470833203,
      "d": 147.47162499999104,
      "v": 61
    },
    {
      "midi": 85,
      "hit": false,
      "t": 108335.46470833203,
      "d": 168.53899999998976,
      "v": 66
    },
    {
      "midi": 54,
      "hit": false,
      "t": 108342.48716666536,
      "d": 175.56145833332266,
      "v": 50
    },
    {
      "midi": 60,
      "hit": false,
      "t": 108342.48716666536,
      "d": 175.56145833332266,
      "v": 57
    },
    {
      "midi": 58,
      "hit": false,
      "t": 108342.48716666536,
      "d": 182.58391666665557,
      "v": 55
    },
    {
      "midi": 88,
      "hit": false,
      "t": 108370.5769999987,
      "d": 42.13474999999744,
      "v": 46
    },
    {
      "midi": 87,
      "hit": false,
      "t": 108384.62191666536,
      "d": 63.20212499999616,
      "v": 34
    },
    {
      "midi": 32,
      "hit": false,
      "t": 108525.0710833324,
      "d": 393.2576666666573,
      "v": 54
    },
    {
      "midi": 54,
      "hit": false,
      "t": 108539.11599999906,
      "d": 316.01062499999534,
      "v": 48
    },
    {
      "midi": 58,
      "hit": false,
      "t": 108553.16091666573,
      "d": 505.61699999999837,
      "v": 55
    },
    {
      "midi": 78,
      "hit": false,
      "t": 108609.34058333201,
      "d": 147.4716250000056,
      "v": 82
    },
    {
      "midi": 65,
      "hit": false,
      "t": 108609.34058333201,
      "d": 154.4940833333385,
      "v": 52
    },
    {
      "midi": 90,
      "hit": false,
      "t": 108609.34058333201,
      "d": 175.5614583333372,
      "v": 82
    },
    {
      "midi": 54,
      "hit": false,
      "t": 108609.34058333201,
      "d": 210.67375000000175,
      "v": 56
    },
    {
      "midi": 60,
      "hit": false,
      "t": 108616.36304166535,
      "d": 182.58391666667012,
      "v": 57
    },
    {
      "midi": 58,
      "hit": false,
      "t": 108623.38549999868,
      "d": 203.65129166666884,
      "v": 61
    },
    {
      "midi": 85,
      "hit": false,
      "t": 108630.40795833201,
      "d": 126.40425000000687,
      "v": 61
    },
    {
      "midi": 80,
      "hit": false,
      "t": 109002.59824999869,
      "d": 140.44916666665813,
      "v": 75
    },
    {
      "midi": 58,
      "hit": false,
      "t": 109002.59824999869,
      "d": 147.47162499999104,
      "v": 51
    },
    {
      "midi": 54,
      "hit": false,
      "t": 109002.59824999869,
      "d": 154.49408333332394,
      "v": 59
    },
    {
      "midi": 92,
      "hit": false,
      "t": 109002.59824999869,
      "d": 154.49408333332394,
      "v": 82
    },
    {
      "midi": 87,
      "hit": false,
      "t": 109002.59824999869,
      "d": 175.56145833332266,
      "v": 82
    },
    {
      "midi": 60,
      "hit": false,
      "t": 109023.66562499868,
      "d": 70.22458333332906,
      "v": 50
    },
    {
      "midi": 65,
      "hit": false,
      "t": 109030.68808333202,
      "d": 42.13474999999744,
      "v": 29
    },
    {
      "midi": 53,
      "hit": false,
      "t": 109178.15970833239,
      "d": 252.80849999999919,
      "v": 56
    },
    {
      "midi": 59,
      "hit": false,
      "t": 109178.15970833239,
      "d": 252.80849999999919,
      "v": 54
    },
    {
      "midi": 43,
      "hit": false,
      "t": 109178.15970833239,
      "d": 547.7517499999958,
      "v": 55
    },
    {
      "midi": 79,
      "hit": false,
      "t": 109515.237708332,
      "d": 77.24704166666197,
      "v": 75
    },
    {
      "midi": 91,
      "hit": false,
      "t": 109515.237708332,
      "d": 91.29195833332778,
      "v": 66
    },
    {
      "midi": 64,
      "hit": false,
      "t": 109515.237708332,
      "d": 98.31441666666069,
      "v": 63
    },
    {
      "midi": 60,
      "hit": false,
      "t": 109515.237708332,
      "d": 126.40424999999232,
      "v": 55
    },
    {
      "midi": 86,
      "hit": false,
      "t": 109515.237708332,
      "d": 147.47162499999104,
      "v": 67
    },
    {
      "midi": 57,
      "hit": false,
      "t": 109536.305083332,
      "d": 112.3593333333265,
      "v": 51
    },
    {
      "midi": 53,
      "hit": false,
      "t": 109543.32754166533,
      "d": 70.22458333332906,
      "v": 44
    },
    {
      "midi": 64,
      "hit": false,
      "t": 109718.88899999866,
      "d": 91.29195833332778,
      "v": 56
    },
    {
      "midi": 80,
      "hit": false,
      "t": 109718.88899999866,
      "d": 98.31441666666069,
      "v": 82
    },
    {
      "midi": 92,
      "hit": false,
      "t": 109718.88899999866,
      "d": 126.40424999999232,
      "v": 75
    },
    {
      "midi": 60,
      "hit": false,
      "t": 109739.95637499866,
      "d": 84.26949999999488,
      "v": 60
    },
    {
      "midi": 53,
      "hit": false,
      "t": 109746.97883333199,
      "d": 42.13474999999744,
      "v": 42
    },
    {
      "midi": 86,
      "hit": false,
      "t": 109746.97883333199,
      "d": 42.13474999999744,
      "v": 62
    },
    {
      "midi": 57,
      "hit": false,
      "t": 109746.97883333199,
      "d": 91.29195833332778,
      "v": 63
    },
    {
      "midi": 61,
      "hit": false,
      "t": 109838.27079166571,
      "d": 526.6843750000116,
      "v": 75
    },
    {
      "midi": 39,
      "hit": false,
      "t": 109838.27079166571,
      "d": 596.9089583333407,
      "v": 65
    },
    {
      "midi": 56,
      "hit": false,
      "t": 109845.29324999904,
      "d": 561.7966666666762,
      "v": 79
    },
    {
      "midi": 53,
      "hit": false,
      "t": 109852.31570833237,
      "d": 365.16783333334024,
      "v": 74
    },
    {
      "midi": 93,
      "hit": false,
      "t": 109915.51783333198,
      "d": 77.24704166666197,
      "v": 75
    },
    {
      "midi": 81,
      "hit": false,
      "t": 109922.54029166531,
      "d": 35.11229166666453,
      "v": 67
    },
    {
      "midi": 53,
      "hit": false,
      "t": 109922.54029166531,
      "d": 49.157208333330345,
      "v": 41
    },
    {
      "midi": 64,
      "hit": false,
      "t": 109922.54029166531,
      "d": 56.17966666666325,
      "v": 47
    },
    {
      "midi": 86,
      "hit": false,
      "t": 109922.54029166531,
      "d": 84.26949999999488,
      "v": 73
    },
    {
      "midi": 60,
      "hit": false,
      "t": 109922.54029166531,
      "d": 98.31441666666069,
      "v": 60
    },
    {
      "midi": 57,
      "hit": false,
      "t": 109922.54029166531,
      "d": 105.3368749999936,
      "v": 53
    },
    {
      "midi": 94,
      "hit": false,
      "t": 110105.12420833197,
      "d": 84.26949999999488,
      "v": 78
    },
    {
      "midi": 82,
      "hit": false,
      "t": 110112.1466666653,
      "d": 63.20212499999616,
      "v": 68
    },
    {
      "midi": 60,
      "hit": false,
      "t": 110126.19158333197,
      "d": 84.26949999999488,
      "v": 42
    },
    {
      "midi": 64,
      "hit": false,
      "t": 110133.2140416653,
      "d": 42.13474999999744,
      "v": 49
    },
    {
      "midi": 87,
      "hit": false,
      "t": 110147.25895833196,
      "d": 42.13474999999744,
      "v": 40
    },
    {
      "midi": 57,
      "hit": false,
      "t": 110147.25895833196,
      "d": 63.20212499999616,
      "v": 36
    },
    {
      "midi": 83,
      "hit": false,
      "t": 110301.75304166529,
      "d": 91.29195833332778,
      "v": 82
    },
    {
      "midi": 88,
      "hit": false,
      "t": 110301.75304166529,
      "d": 105.3368749999936,
      "v": 82
    },
    {
      "midi": 95,
      "hit": false,
      "t": 110301.75304166529,
      "d": 126.40424999999232,
      "v": 85
    },
    {
      "midi": 53,
      "hit": false,
      "t": 110315.79795833195,
      "d": 91.29195833332778,
      "v": 44
    },
    {
      "midi": 64,
      "hit": false,
      "t": 110315.79795833195,
      "d": 91.29195833332778,
      "v": 67
    },
    {
      "midi": 91,
      "hit": false,
      "t": 110315.79795833195,
      "d": 119.38179166665941,
      "v": 63
    },
    {
      "midi": 60,
      "hit": false,
      "t": 110315.79795833195,
      "d": 126.40424999999232,
      "v": 64
    },
    {
      "midi": 57,
      "hit": false,
      "t": 110315.79795833195,
      "d": 140.44916666665813,
      "v": 57
    },
    {
      "midi": 60,
      "hit": false,
      "t": 110505.40433333238,
      "d": 196.62883333332138,
      "v": 64
    },
    {
      "midi": 53,
      "hit": false,
      "t": 110512.42679166571,
      "d": 91.29195833332778,
      "v": 61
    },
    {
      "midi": 38,
      "hit": false,
      "t": 110512.42679166571,
      "d": 105.3368749999936,
      "v": 64
    },
    {
      "midi": 57,
      "hit": false,
      "t": 110512.42679166571,
      "d": 133.42670833332522,
      "v": 61
    },
    {
      "midi": 90,
      "hit": false,
      "t": 110533.49416666527,
      "d": 344.10045833332697,
      "v": 58
    },
    {
      "midi": 93,
      "hit": false,
      "t": 110533.49416666527,
      "d": 393.2576666666573,
      "v": 74
    },
    {
      "midi": 96,
      "hit": false,
      "t": 110533.49416666527,
      "d": 400.2801249999902,
      "v": 98
    },
    {
      "midi": 53,
      "hit": false,
      "t": 110533.49416666527,
      "d": 470.5047083333193,
      "v": 64
    },
    {
      "midi": 64,
      "hit": false,
      "t": 110533.49416666527,
      "d": 470.5047083333193,
      "v": 75
    },
    {
      "midi": 60,
      "hit": false,
      "t": 110533.49416666527,
      "d": 477.5271666666522,
      "v": 63
    },
    {
      "midi": 57,
      "hit": false,
      "t": 110533.49416666527,
      "d": 505.6169999999838,
      "v": 71
    },
    {
      "midi": 89,
      "hit": false,
      "t": 110533.49416666527,
      "d": 505.6169999999838,
      "v": 80
    },
    {
      "midi": 84,
      "hit": false,
      "t": 110533.49416666527,
      "d": 512.6394583333167,
      "v": 81
    },
    {
      "midi": 72,
      "hit": false,
      "t": 111193.60524999903,
      "d": 175.56145833332266,
      "v": 75
    },
    {
      "midi": 60,
      "hit": false,
      "t": 111200.62770833237,
      "d": 84.26949999999488,
      "v": 68
    },
    {
      "midi": 65,
      "hit": false,
      "t": 111200.62770833237,
      "d": 217.6962083333201,
      "v": 85
    },
    {
      "midi": 57,
      "hit": false,
      "t": 111207.6501666657,
      "d": 112.3593333333265,
      "v": 55
    },
    {
      "midi": 68,
      "hit": false,
      "t": 111207.6501666657,
      "d": 154.49408333332394,
      "v": 36
    },
    {
      "midi": 69,
      "hit": false,
      "t": 111207.6501666657,
      "d": 154.49408333332394,
      "v": 76
    },
    {
      "midi": 53,
      "hit": false,
      "t": 111221.69508333236,
      "d": 147.47162499999104,
      "v": 50
    },
    {
      "midi": 50,
      "hit": false,
      "t": 111235.73999999903,
      "d": 140.44916666665813,
      "v": 34
    },
    {
      "midi": 60,
      "hit": false,
      "t": 111446.4137499986,
      "d": 49.157208333330345,
      "v": 37
    },
    {
      "midi": 93,
      "hit": false,
      "t": 111446.4137499986,
      "d": 91.29195833332778,
      "v": 55
    },
    {
      "midi": 86,
      "hit": false,
      "t": 111467.4811249986,
      "d": 42.13474999999744,
      "v": 48
    },
    {
      "midi": 81,
      "hit": false,
      "t": 111488.5484999986,
      "d": 42.13474999999744,
      "v": 27
    },
    {
      "midi": 89,
      "hit": false,
      "t": 111495.57095833193,
      "d": 42.13474999999744,
      "v": 42
    },
    {
      "midi": 64,
      "hit": false,
      "t": 111650.06504166525,
      "d": 91.29195833332778,
      "v": 71
    },
    {
      "midi": 60,
      "hit": false,
      "t": 111650.06504166525,
      "d": 105.3368749999936,
      "v": 64
    },
    {
      "midi": 53,
      "hit": false,
      "t": 111650.06504166525,
      "d": 112.3593333333265,
      "v": 52
    },
    {
      "midi": 96,
      "hit": false,
      "t": 111650.06504166525,
      "d": 119.38179166665941,
      "v": 94
    },
    {
      "midi": 84,
      "hit": false,
      "t": 111650.06504166525,
      "d": 126.40424999999232,
      "v": 82
    },
    {
      "midi": 89,
      "hit": false,
      "t": 111650.06504166525,
      "d": 126.40424999999232,
      "v": 82
    },
    {
      "midi": 57,
      "hit": false,
      "t": 111650.06504166525,
      "d": 161.51654166665685,
      "v": 63
    },
    {
      "midi": 93,
      "hit": false,
      "t": 111685.17733333191,
      "d": 35.11229166666453,
      "v": 57
    },
    {
      "midi": 71,
      "hit": false,
      "t": 111860.73879166569,
      "d": 231.7411249999859,
      "v": 71
    },
    {
      "midi": 43,
      "hit": false,
      "t": 111867.76124999902,
      "d": 112.3593333333265,
      "v": 62
    },
    {
      "midi": 63,
      "hit": false,
      "t": 111867.76124999902,
      "d": 196.62883333332138,
      "v": 68
    },
    {
      "midi": 53,
      "hit": false,
      "t": 111874.78370833235,
      "d": 161.51654166665685,
      "v": 58
    },
    {
      "midi": 59,
      "hit": false,
      "t": 111881.80616666569,
      "d": 112.3593333333265,
      "v": 58
    },
    {
      "midi": 83,
      "hit": false,
      "t": 111909.89599999857,
      "d": 112.3593333333265,
      "v": 72
    },
    {
      "midi": 88,
      "hit": false,
      "t": 111909.89599999857,
      "d": 126.40424999999232,
      "v": 70
    },
    {
      "midi": 91,
      "hit": false,
      "t": 111909.89599999857,
      "d": 147.47162499999104,
      "v": 63
    },
    {
      "midi": 95,
      "hit": false,
      "t": 111909.89599999857,
      "d": 161.51654166665685,
      "v": 66
    },
    {
      "midi": 64,
      "hit": false,
      "t": 111909.89599999857,
      "d": 210.6737499999872,
      "v": 61
    },
    {
      "midi": 53,
      "hit": false,
      "t": 111909.89599999857,
      "d": 224.718666666653,
      "v": 51
    },
    {
      "midi": 59,
      "hit": false,
      "t": 111909.89599999857,
      "d": 224.718666666653,
      "v": 60
    },
    {
      "midi": 57,
      "hit": false,
      "t": 111952.03074999856,
      "d": 175.56145833332266,
      "v": 37
    },
    {
      "midi": 98,
      "hit": false,
      "t": 112331.24349999856,
      "d": 112.3593333333265,
      "v": 81
    },
    {
      "midi": 64,
      "hit": false,
      "t": 112331.24349999856,
      "d": 133.42670833332522,
      "v": 74
    },
    {
      "midi": 59,
      "hit": false,
      "t": 112338.26595833189,
      "d": 175.56145833332266,
      "v": 64
    },
    {
      "midi": 53,
      "hit": false,
      "t": 112345.28841666522,
      "d": 126.40424999999232,
      "v": 57
    },
    {
      "midi": 95,
      "hit": false,
      "t": 112352.31087499855,
      "d": 42.13474999999744,
      "v": 51
    },
    {
      "midi": 100,
      "hit": false,
      "t": 112352.31087499855,
      "d": 56.17966666666325,
      "v": 32
    },
    {
      "midi": 88,
      "hit": false,
      "t": 112352.31087499855,
      "d": 63.20212499999616,
      "v": 51
    },
    {
      "midi": 86,
      "hit": false,
      "t": 112352.31087499855,
      "d": 77.24704166666197,
      "v": 48
    },
    {
      "midi": 92,
      "hit": false,
      "t": 112352.31087499855,
      "d": 84.26949999999488,
      "v": 48
    },
    {
      "midi": 91,
      "hit": false,
      "t": 112352.31087499855,
      "d": 91.29195833332778,
      "v": 57
    },
    {
      "midi": 57,
      "hit": false,
      "t": 112352.31087499855,
      "d": 133.42670833332522,
      "v": 60
    },
    {
      "midi": 73,
      "hit": false,
      "t": 112513.82741666568,
      "d": 351.1229166666453,
      "v": 80
    },
    {
      "midi": 63,
      "hit": false,
      "t": 112520.84987499901,
      "d": 231.7411249999859,
      "v": 68
    },
    {
      "midi": 69,
      "hit": false,
      "t": 112527.87233333234,
      "d": 203.6512916666543,
      "v": 72
    },
    {
      "midi": 65,
      "hit": false,
      "t": 112527.87233333234,
      "d": 259.83095833331754,
      "v": 75
    },
    {
      "midi": 53,
      "hit": false,
      "t": 112534.89479166568,
      "d": 175.56145833332266,
      "v": 54
    },
    {
      "midi": 59,
      "hit": false,
      "t": 112534.89479166568,
      "d": 196.62883333332138,
      "v": 57
    },
    {
      "midi": 88,
      "hit": false,
      "t": 112598.0969166652,
      "d": 147.47162499999104,
      "v": 69
    },
    {
      "midi": 95,
      "hit": false,
      "t": 112598.0969166652,
      "d": 154.49408333332394,
      "v": 75
    },
    {
      "midi": 83,
      "hit": false,
      "t": 112605.11937499854,
      "d": 175.56145833332266,
      "v": 66
    },
    {
      "midi": 64,
      "hit": false,
      "t": 112612.14183333187,
      "d": 161.51654166665685,
      "v": 57
    },
    {
      "midi": 59,
      "hit": false,
      "t": 112612.14183333187,
      "d": 196.62883333332138,
      "v": 57
    },
    {
      "midi": 57,
      "hit": false,
      "t": 112619.1642916652,
      "d": 168.53899999998976,
      "v": 50
    },
    {
      "midi": 53,
      "hit": false,
      "t": 112619.1642916652,
      "d": 189.60637499998847,
      "v": 45
    },
    {
      "midi": 91,
      "hit": false,
      "t": 112633.20920833187,
      "d": 84.26949999999488,
      "v": 50
    },
    {
      "midi": 93,
      "hit": false,
      "t": 112998.3770416652,
      "d": 147.47162499999104,
      "v": 56
    },
    {
      "midi": 86,
      "hit": false,
      "t": 112998.3770416652,
      "d": 238.76358333331882,
      "v": 60
    },
    {
      "midi": 91,
      "hit": false,
      "t": 112998.3770416652,
      "d": 245.78604166665173,
      "v": 57
    },
    {
      "midi": 79,
      "hit": false,
      "t": 112998.3770416652,
      "d": 287.92079166664917,
      "v": 45
    },
    {
      "midi": 55,
      "hit": false,
      "t": 112998.3770416652,
      "d": 358.14537499997823,
      "v": 58
    },
    {
      "midi": 59,
      "hit": false,
      "t": 112998.3770416652,
      "d": 358.14537499997823,
      "v": 49
    },
    {
      "midi": 62,
      "hit": false,
      "t": 112998.3770416652,
      "d": 365.16783333331114,
      "v": 55
    },
    {
      "midi": 52,
      "hit": false,
      "t": 112998.3770416652,
      "d": 386.23520833330986,
      "v": 51
    },
    {
      "midi": 81,
      "hit": false,
      "t": 113026.46687499853,
      "d": 42.13474999999744,
      "v": 41
    },
    {
      "midi": 59,
      "hit": false,
      "t": 113180.96095833232,
      "d": 266.853416666665,
      "v": 52
    },
    {
      "midi": 62,
      "hit": false,
      "t": 113180.96095833232,
      "d": 266.853416666665,
      "v": 69
    },
    {
      "midi": 67,
      "hit": false,
      "t": 113180.96095833232,
      "d": 344.10045833332697,
      "v": 102
    },
    {
      "midi": 74,
      "hit": false,
      "t": 113180.96095833232,
      "d": 505.61699999999837,
      "v": 96
    },
    {
      "midi": 52,
      "hit": false,
      "t": 113195.00587499898,
      "d": 301.96570833332953,
      "v": 52
    },
    {
      "midi": 88,
      "hit": false,
      "t": 113658.4881249985,
      "d": 217.69620833333465,
      "v": 58
    },
    {
      "midi": 62,
      "hit": false,
      "t": 113665.51058333184,
      "d": 245.78604166666628,
      "v": 42
    },
    {
      "midi": 83,
      "hit": false,
      "t": 113665.51058333184,
      "d": 245.78604166666628,
      "v": 57
    },
    {
      "midi": 55,
      "hit": false,
      "t": 113665.51058333184,
      "d": 252.80849999999919,
      "v": 55
    },
    {
      "midi": 59,
      "hit": false,
      "t": 113665.51058333184,
      "d": 266.853416666665,
      "v": 47
    },
    {
      "midi": 76,
      "hit": false,
      "t": 113665.51058333184,
      "d": 308.98816666666244,
      "v": 51
    },
    {
      "midi": 52,
      "hit": false,
      "t": 113679.5554999985,
      "d": 238.76358333333337,
      "v": 39
    },
    {
      "midi": 56,
      "hit": false,
      "t": 113862.13941666565,
      "d": 133.42670833332522,
      "v": 43
    },
    {
      "midi": 46,
      "hit": false,
      "t": 113862.13941666565,
      "d": 140.44916666665813,
      "v": 52
    },
    {
      "midi": 67,
      "hit": false,
      "t": 113869.16187499899,
      "d": 238.76358333331882,
      "v": 53
    },
    {
      "midi": 64,
      "hit": false,
      "t": 113883.20679166565,
      "d": 140.44916666665813,
      "v": 43
    },
    {
      "midi": 84,
      "hit": false,
      "t": 114262.41954166516,
      "d": 154.49408333332394,
      "v": 92
    },
    {
      "midi": 72,
      "hit": false,
      "t": 114269.4419999985,
      "d": 161.51654166665685,
      "v": 80
    },
    {
      "midi": 73,
      "hit": false,
      "t": 114269.4419999985,
      "d": 224.718666666653,
      "v": 96
    },
    {
      "midi": 77,
      "hit": false,
      "t": 114276.46445833183,
      "d": 154.49408333332394,
      "v": 89
    },
    {
      "midi": 81,
      "hit": false,
      "t": 114283.48691666516,
      "d": 105.3368749999936,
      "v": 72
    },
    {
      "midi": 45,
      "hit": false,
      "t": 114318.5992083323,
      "d": 49.157208333330345,
      "v": 70
    },
    {
      "midi": 75,
      "hit": false,
      "t": 114550.34033333231,
      "d": 646.066166666671,
      "v": 85
    },
    {
      "midi": 67,
      "hit": false,
      "t": 114557.36279166564,
      "d": 449.4373333333351,
      "v": 81
    },
    {
      "midi": 70,
      "hit": false,
      "t": 114557.36279166564,
      "d": 463.48225000000093,
      "v": 83
    },
    {
      "midi": 61,
      "hit": false,
      "t": 114564.38524999897,
      "d": 477.52716666666674,
      "v": 83
    },
    {
      "midi": 55,
      "hit": false,
      "t": 114571.4077083323,
      "d": 407.3025833333377,
      "v": 75
    },
    {
      "midi": 81,
      "hit": false,
      "t": 114669.72212499849,
      "d": 161.51654166665685,
      "v": 88
    },
    {
      "midi": 69,
      "hit": false,
      "t": 114669.72212499849,
      "d": 182.58391666665557,
      "v": 75
    },
    {
      "midi": 73,
      "hit": false,
      "t": 114669.72212499849,
      "d": 203.6512916666543,
      "v": 75
    },
    {
      "midi": 70,
      "hit": false,
      "t": 114669.72212499849,
      "d": 231.7411249999859,
      "v": 83
    },
    {
      "midi": 76,
      "hit": false,
      "t": 114697.81195833182,
      "d": 161.51654166665685,
      "v": 57
    },
    {
      "midi": 78,
      "hit": false,
      "t": 115077.02470833181,
      "d": 301.965708333315,
      "v": 81
    },
    {
      "midi": 67,
      "hit": false,
      "t": 115091.06962499848,
      "d": 280.89833333331626,
      "v": 61
    },
    {
      "midi": 70,
      "hit": false,
      "t": 115098.09208333181,
      "d": 280.89833333331626,
      "v": 74
    },
    {
      "midi": 66,
      "hit": false,
      "t": 115098.09208333181,
      "d": 316.0106249999808,
      "v": 72
    },
    {
      "midi": 69,
      "hit": false,
      "t": 115119.15945833181,
      "d": 35.11229166666453,
      "v": 56
    },
    {
      "midi": 73,
      "hit": false,
      "t": 115119.15945833181,
      "d": 91.29195833332778,
      "v": 54
    },
    {
      "midi": 61,
      "hit": false,
      "t": 115231.51879166564,
      "d": 189.60637500000303,
      "v": 57
    },
    {
      "midi": 70,
      "hit": false,
      "t": 115245.56370833231,
      "d": 512.6394583333313,
      "v": 54
    },
    {
      "midi": 67,
      "hit": false,
      "t": 115252.58616666564,
      "d": 238.76358333333337,
      "v": 49
    },
    {
      "midi": 63,
      "hit": false,
      "t": 115477.30483333179,
      "d": 154.49408333332394,
      "v": 56
    },
    {
      "midi": 67,
      "hit": false,
      "t": 115491.34974999845,
      "d": 98.31441666666069,
      "v": 56
    },
    {
      "midi": 73,
      "hit": false,
      "t": 115491.34974999845,
      "d": 154.49408333332394,
      "v": 61
    },
    {
      "midi": 70,
      "hit": false,
      "t": 115491.34974999845,
      "d": 189.60637499998847,
      "v": 60
    },
    {
      "midi": 65,
      "hit": false,
      "t": 115702.02349999844,
      "d": 42.13474999999744,
      "v": 54
    },
    {
      "midi": 60,
      "hit": false,
      "t": 115709.04595833177,
      "d": 168.5390000000043,
      "v": 60
    },
    {
      "midi": 65,
      "hit": false,
      "t": 115912.69724999844,
      "d": 519.6619166666496,
      "v": 60
    },
    {
      "midi": 76,
      "hit": false,
      "t": 115919.71970833177,
      "d": 337.07799999999406,
      "v": 63
    },
    {
      "midi": 72,
      "hit": false,
      "t": 115919.71970833177,
      "d": 428.36995833332185,
      "v": 60
    },
    {
      "midi": 69,
      "hit": false,
      "t": 115919.71970833177,
      "d": 498.5945416666509,
      "v": 62
    },
    {
      "midi": 64,
      "hit": false,
      "t": 115919.71970833177,
      "d": 681.178458333321,
      "v": 69
    },
    {
      "midi": 69,
      "hit": false,
      "t": 115947.80954166564,
      "d": 365.1678333333257,
      "v": 69
    },
    {
      "midi": 65,
      "hit": false,
      "t": 115947.80954166564,
      "d": 393.2576666666573,
      "v": 71
    },
    {
      "midi": 76,
      "hit": false,
      "t": 115947.80954166564,
      "d": 639.0437083333236,
      "v": 80
    },
    {
      "midi": 60,
      "hit": false,
      "t": 115954.83199999898,
      "d": 337.07799999999406,
      "v": 53
    },
    {
      "midi": 50,
      "hit": false,
      "t": 115961.85445833231,
      "d": 259.8309583333321,
      "v": 52
    },
    {
      "midi": 57,
      "hit": false,
      "t": 115968.87691666564,
      "d": 259.8309583333321,
      "v": 46
    },
    {
      "midi": 62,
      "hit": false,
      "t": 116628.98799999843,
      "d": 112.3593333333265,
      "v": 57
    },
    {
      "midi": 69,
      "hit": false,
      "t": 116628.98799999843,
      "d": 119.38179166665941,
      "v": 64
    },
    {
      "midi": 65,
      "hit": false,
      "t": 116628.98799999843,
      "d": 140.44916666665813,
      "v": 56
    },
    {
      "midi": 74,
      "hit": false,
      "t": 116628.98799999843,
      "d": 140.44916666665813,
      "v": 58
    },
    {
      "midi": 64,
      "hit": false,
      "t": 116628.98799999896,
      "d": 182.58391666667012,
      "v": 56
    },
    {
      "midi": 65,
      "hit": false,
      "t": 116636.0104583323,
      "d": 203.65129166666884,
      "v": 48
    },
    {
      "midi": 69,
      "hit": false,
      "t": 116636.0104583323,
      "d": 238.76358333333337,
      "v": 54
    },
    {
      "midi": 62,
      "hit": false,
      "t": 117078.42533333175,
      "d": 133.42670833333977,
      "v": 81
    },
    {
      "midi": 67,
      "hit": false,
      "t": 117085.44779166508,
      "d": 175.5614583333372,
      "v": 76
    },
    {
      "midi": 71,
      "hit": false,
      "t": 117085.44779166508,
      "d": 203.65129166666884,
      "v": 82
    },
    {
      "midi": 56,
      "hit": false,
      "t": 117085.44779166508,
      "d": 554.7742083333287,
      "v": 73
    },
    {
      "midi": 68,
      "hit": false,
      "t": 117246.96433333229,
      "d": 252.80849999998463,
      "v": 58
    },
    {
      "midi": 77,
      "hit": false,
      "t": 117261.00924999896,
      "d": 238.76358333331882,
      "v": 61
    },
    {
      "midi": 62,
      "hit": false,
      "t": 117268.03170833229,
      "d": 224.718666666653,
      "v": 39
    },
    {
      "midi": 52,
      "hit": false,
      "t": 117275.05416666562,
      "d": 140.44916666665813,
      "v": 38
    },
    {
      "midi": 65,
      "hit": false,
      "t": 117380.39104166508,
      "d": 77.24704166666197,
      "v": 78
    },
    {
      "midi": 70,
      "hit": false,
      "t": 117387.41349999841,
      "d": 84.26949999999488,
      "v": 67
    },
    {
      "midi": 74,
      "hit": false,
      "t": 117387.41349999841,
      "d": 119.38179166665941,
      "v": 77
    },
    {
      "midi": 59,
      "hit": false,
      "t": 117387.41349999841,
      "d": 330.05554166666116,
      "v": 75
    },
    {
      "midi": 68,
      "hit": false,
      "t": 117401.45841666507,
      "d": 42.13474999999744,
      "v": 41
    },
    {
      "midi": 77,
      "hit": false,
      "t": 117745.5588749984,
      "d": 84.26949999999488,
      "v": 73
    },
    {
      "midi": 68,
      "hit": false,
      "t": 117745.5588749984,
      "d": 154.49408333332394,
      "v": 82
    },
    {
      "midi": 62,
      "hit": false,
      "t": 117752.58133333173,
      "d": 203.6512916666543,
      "v": 67
    },
    {
      "midi": 65,
      "hit": false,
      "t": 117914.09787499894,
      "d": 196.62883333332138,
      "v": 45
    },
    {
      "midi": 56,
      "hit": false,
      "t": 117928.14279166561,
      "d": 231.7411249999859,
      "v": 49
    },
    {
      "midi": 62,
      "hit": false,
      "t": 117949.21016666561,
      "d": 105.3368749999936,
      "v": 36
    },
    {
      "midi": 65,
      "hit": false,
      "t": 117998.36737499839,
      "d": 421.34749999998894,
      "v": 62
    },
    {
      "midi": 80,
      "hit": false,
      "t": 118026.45720833172,
      "d": 35.11229166666453,
      "v": 61
    },
    {
      "midi": 80,
      "hit": false,
      "t": 118363.53520833171,
      "d": 133.42670833332522,
      "v": 68
    },
    {
      "midi": 83,
      "hit": false,
      "t": 118363.53520833171,
      "d": 168.53899999998976,
      "v": 73
    },
    {
      "midi": 68,
      "hit": false,
      "t": 118370.55766666504,
      "d": 133.42670833332522,
      "v": 78
    },
    {
      "midi": 77,
      "hit": false,
      "t": 118377.58012499838,
      "d": 91.29195833332778,
      "v": 75
    },
    {
      "midi": 64,
      "hit": false,
      "t": 118581.23141666559,
      "d": 119.38179166665941,
      "v": 42
    },
    {
      "midi": 67,
      "hit": false,
      "t": 118581.23141666559,
      "d": 189.60637499998847,
      "v": 50
    },
    {
      "midi": 76,
      "hit": false,
      "t": 118588.25387499892,
      "d": 161.51654166665685,
      "v": 56
    },
    {
      "midi": 57,
      "hit": false,
      "t": 118595.27633333225,
      "d": 189.60637499998847,
      "v": 39
    },
    {
      "midi": 60,
      "hit": false,
      "t": 118609.32124999892,
      "d": 91.29195833332778,
      "v": 48
    },
    {
      "midi": 71,
      "hit": false,
      "t": 118651.45599999836,
      "d": 56.17966666666325,
      "v": 68
    },
    {
      "midi": 80,
      "hit": false,
      "t": 118651.45599999836,
      "d": 126.40424999999232,
      "v": 78
    },
    {
      "midi": 86,
      "hit": false,
      "t": 118658.4784583317,
      "d": 98.31441666666069,
      "v": 72
    },
    {
      "midi": 76,
      "hit": false,
      "t": 118672.52337499836,
      "d": 42.13474999999744,
      "v": 46
    },
    {
      "midi": 77,
      "hit": false,
      "t": 118700.61320833169,
      "d": 49.157208333330345,
      "v": 34
    },
    {
      "midi": 84,
      "hit": false,
      "t": 119044.71366666502,
      "d": 84.26949999999488,
      "v": 68
    },
    {
      "midi": 69,
      "hit": false,
      "t": 119044.71366666502,
      "d": 112.3593333333265,
      "v": 65
    },
    {
      "midi": 74,
      "hit": false,
      "t": 119058.75858333168,
      "d": 70.22458333332906,
      "v": 57
    },
    {
      "midi": 79,
      "hit": false,
      "t": 119065.78104166502,
      "d": 35.11229166666453,
      "v": 49
    },
    {
      "midi": 76,
      "hit": false,
      "t": 119065.78104166502,
      "d": 70.22458333332906,
      "v": 57
    },
    {
      "midi": 55,
      "hit": false,
      "t": 119269.43233333224,
      "d": 161.5165416666714,
      "v": 41
    },
    {
      "midi": 60,
      "hit": false,
      "t": 119269.43233333224,
      "d": 189.60637500000303,
      "v": 52
    },
    {
      "midi": 45,
      "hit": false,
      "t": 119283.4772499989,
      "d": 175.5614583333372,
      "v": 38
    },
    {
      "midi": 67,
      "hit": false,
      "t": 119290.49970833224,
      "d": 133.42670833333977,
      "v": 48
    },
    {
      "midi": 70,
      "hit": false,
      "t": 119753.98195833167,
      "d": 126.40424999999232,
      "v": 83
    },
    {
      "midi": 60,
      "hit": false,
      "t": 119761.004416665,
      "d": 112.3593333333265,
      "v": 77
    },
    {
      "midi": 54,
      "hit": false,
      "t": 119775.04933333167,
      "d": 84.26949999999488,
      "v": 43
    },
    {
      "midi": 44,
      "hit": false,
      "t": 119789.09424999834,
      "d": 105.3368749999936,
      "v": 33
    },
    {
      "midi": 68,
      "hit": false,
      "t": 119810.16162499833,
      "d": 63.20212499999616,
      "v": 29
    },
    {
      "midi": 58,
      "hit": false,
      "t": 119943.58833333224,
      "d": 175.5614583333372,
      "v": 42
    },
    {
      "midi": 43,
      "hit": false,
      "t": 119957.63324999891,
      "d": 154.4940833333385,
      "v": 42
    },
    {
      "midi": 62,
      "hit": false,
      "t": 119957.63324999891,
      "d": 189.60637500000303,
      "v": 45
    },
    {
      "midi": 53,
      "hit": false,
      "t": 119971.67816666557,
      "d": 210.67375000000175,
      "v": 36
    },
    {
      "midi": 69,
      "hit": false,
      "t": 120098.082416665,
      "d": 344.10045833332697,
      "v": 56
    },
    {
      "midi": 43,
      "hit": false,
      "t": 120105.10487499833,
      "d": 168.5390000000043,
      "v": 52
    },
    {
      "midi": 58,
      "hit": false,
      "t": 120105.10487499833,
      "d": 280.8983333333308,
      "v": 51
    },
    {
      "midi": 62,
      "hit": false,
      "t": 120105.10487499833,
      "d": 294.9432499999966,
      "v": 61
    },
    {
      "midi": 65,
      "hit": false,
      "t": 120126.17224999833,
      "d": 224.71866666666756,
      "v": 37
    },
    {
      "midi": 53,
      "hit": false,
      "t": 120133.19470833166,
      "d": 259.8309583333321,
      "v": 42
    },
    {
      "midi": 73,
      "hit": false,
      "t": 120624.76679166558,
      "d": 386.2352083333244,
      "v": 49
    },
    {
      "midi": 64,
      "hit": false,
      "t": 120631.78924999891,
      "d": 273.8758749999979,
      "v": 43
    },
    {
      "midi": 68,
      "hit": false,
      "t": 120631.78924999891,
      "d": 400.2801249999902,
      "v": 49
    },
    {
      "midi": 58,
      "hit": false,
      "t": 120652.85662499891,
      "d": 414.32504166665603,
      "v": 45
    },
    {
      "midi": 64,
      "hit": false,
      "t": 120694.99137499832,
      "d": 49.157208333330345,
      "v": 59
    },
    {
      "midi": 66,
      "hit": false,
      "t": 120694.99137499832,
      "d": 603.9314166666591,
      "v": 58
    },
    {
      "midi": 72,
      "hit": false,
      "t": 120716.05874999832,
      "d": 603.9314166666591,
      "v": 46
    },
    {
      "midi": 68,
      "hit": false,
      "t": 120723.08120833166,
      "d": 470.50470833333384,
      "v": 67
    },
    {
      "midi": 70,
      "hit": false,
      "t": 120737.12612499832,
      "d": 582.8640416666603,
      "v": 46
    },
    {
      "midi": 64,
      "hit": false,
      "t": 120814.37316666498,
      "d": 217.69620833333465,
      "v": 22
    },
    {
      "midi": 64,
      "hit": false,
      "t": 121334.03508333223,
      "d": 344.10045833332697,
      "v": 47
    },
    {
      "midi": 69,
      "hit": false,
      "t": 121341.05754166556,
      "d": 351.1229166666599,
      "v": 49
    },
    {
      "midi": 72,
      "hit": false,
      "t": 121341.05754166556,
      "d": 386.2352083333244,
      "v": 42
    },
    {
      "midi": 69,
      "hit": false,
      "t": 121348.07999999831,
      "d": 695.2233749999868,
      "v": 66
    },
    {
      "midi": 64,
      "hit": false,
      "t": 121355.10245833165,
      "d": 386.2352083333244,
      "v": 43
    },
    {
      "midi": 57,
      "hit": false,
      "t": 121390.21474999831,
      "d": 56.17966666666325,
      "v": 46
    },
    {
      "midi": 57,
      "hit": false,
      "t": 121537.6863749983,
      "d": 168.5390000000043,
      "v": 13
    },
    {
      "midi": 54,
      "hit": false,
      "t": 121769.42749999888,
      "d": 428.36995833332185,
      "v": 53
    },
    {
      "midi": 64,
      "hit": false,
      "t": 121776.44995833222,
      "d": 365.1678333333257,
      "v": 55
    },
    {
      "midi": 69,
      "hit": false,
      "t": 121790.49487499888,
      "d": 386.2352083333244,
      "v": 57
    },
    {
      "midi": 60,
      "hit": false,
      "t": 121804.53979166555,
      "d": 351.1229166666599,
      "v": 44
    },
    {
      "midi": 57,
      "hit": false,
      "t": 122078.41566666497,
      "d": 407.3025833333377,
      "v": 45
    },
    {
      "midi": 64,
      "hit": false,
      "t": 122099.48304166496,
      "d": 442.4148750000022,
      "v": 22
    },
    {
      "midi": 60,
      "hit": false,
      "t": 122099.48304166496,
      "d": 512.6394583333313,
      "v": 35
    },
    {
      "midi": 54,
      "hit": false,
      "t": 122443.58349999887,
      "d": 182.58391666665557,
      "v": 57
    },
    {
      "midi": 64,
      "hit": false,
      "t": 122450.6059583322,
      "d": 112.3593333333265,
      "v": 55
    },
    {
      "midi": 69,
      "hit": false,
      "t": 122450.6059583322,
      "d": 203.6512916666543,
      "v": 57
    },
    {
      "midi": 54,
      "hit": false,
      "t": 122478.69579166497,
      "d": 168.53899999998976,
      "v": 58
    },
    {
      "midi": 60,
      "hit": false,
      "t": 122485.71824999887,
      "d": 77.24704166666197,
      "v": 36
    },
    {
      "midi": 62,
      "hit": false,
      "t": 122724.48183333162,
      "d": 231.74112500000047,
      "v": 31
    },
    {
      "midi": 63,
      "hit": false,
      "t": 122731.50429166552,
      "d": 273.8758749999979,
      "v": 58
    },
    {
      "midi": 60,
      "hit": false,
      "t": 122738.52674999829,
      "d": 344.10045833332697,
      "v": 35
    },
    {
      "midi": 56,
      "hit": false,
      "t": 122738.52674999829,
      "d": 414.32504166665603,
      "v": 47
    },
    {
      "midi": 53,
      "hit": false,
      "t": 122752.57166666495,
      "d": 955.0543333333044,
      "v": 39
    },
    {
      "midi": 68,
      "hit": false,
      "t": 122752.57166666552,
      "d": 316.01062499999534,
      "v": 51
    },
    {
      "midi": 60,
      "hit": false,
      "t": 122759.59412499885,
      "d": 217.69620833333465,
      "v": 45
    },
    {
      "midi": 53,
      "hit": false,
      "t": 122766.61658333219,
      "d": 273.8758749999979,
      "v": 40
    },
    {
      "midi": 70,
      "hit": false,
      "t": 123068.58229166495,
      "d": 133.42670833332522,
      "v": 63
    },
    {
      "midi": 68,
      "hit": false,
      "t": 123131.78441666494,
      "d": 126.40424999999232,
      "v": 57
    },
    {
      "midi": 67,
      "hit": false,
      "t": 123258.18866666494,
      "d": 105.3368749999936,
      "v": 54
    },
    {
      "midi": 63,
      "hit": false,
      "t": 123328.41324999885,
      "d": 273.8758749999979,
      "v": 49
    },
    {
      "midi": 68,
      "hit": false,
      "t": 123328.41324999885,
      "d": 386.2352083333244,
      "v": 53
    },
    {
      "midi": 60,
      "hit": false,
      "t": 123335.43570833218,
      "d": 189.60637500000303,
      "v": 46
    },
    {
      "midi": 53,
      "hit": false,
      "t": 123335.43570833218,
      "d": 266.853416666665,
      "v": 45
    },
    {
      "midi": 60,
      "hit": false,
      "t": 123398.6378333316,
      "d": 175.5614583333372,
      "v": 40
    },
    {
      "midi": 56,
      "hit": false,
      "t": 123398.6378333316,
      "d": 337.07799999999406,
      "v": 38
    },
    {
      "midi": 62,
      "hit": false,
      "t": 123412.68274999826,
      "d": 182.58391666667012,
      "v": 20
    },
    {
      "midi": 68,
      "hit": false,
      "t": 123440.77258333159,
      "d": 126.40425000000687,
      "v": 57
    },
    {
      "midi": 70,
      "hit": false,
      "t": 123595.26666666493,
      "d": 84.26949999999488,
      "v": 57
    },
    {
      "midi": 72,
      "hit": false,
      "t": 123742.73829166492,
      "d": 98.31441666666069,
      "v": 68
    },
    {
      "midi": 74,
      "hit": false,
      "t": 123883.18745833158,
      "d": 105.3368749999936,
      "v": 79
    },
    {
      "midi": 52,
      "hit": false,
      "t": 123995.5467916655,
      "d": 273.8758749999979,
      "v": 42
    },
    {
      "midi": 59,
      "hit": false,
      "t": 123995.5467916655,
      "d": 273.8758749999979,
      "v": 37
    },
    {
      "midi": 67,
      "hit": false,
      "t": 123995.5467916655,
      "d": 294.9432499999966,
      "v": 48
    },
    {
      "midi": 62,
      "hit": false,
      "t": 123995.5467916655,
      "d": 308.98816666666244,
      "v": 45
    },
    {
      "midi": 59,
      "hit": false,
      "t": 124009.59170833157,
      "d": 287.92079166664917,
      "v": 36
    },
    {
      "midi": 55,
      "hit": false,
      "t": 124009.59170833157,
      "d": 316.0106249999808,
      "v": 43
    },
    {
      "midi": 62,
      "hit": false,
      "t": 124030.65908333157,
      "d": 182.58391666665557,
      "v": 16
    },
    {
      "midi": 52,
      "hit": false,
      "t": 124037.6815416649,
      "d": 835.6725416666159,
      "v": 25
    },
    {
      "midi": 75,
      "hit": false,
      "t": 124051.72645833157,
      "d": 105.3368749999936,
      "v": 73
    },
    {
      "midi": 76,
      "hit": false,
      "t": 124234.31037499823,
      "d": 98.31441666666069,
      "v": 75
    },
    {
      "midi": 79,
      "hit": false,
      "t": 124395.82691666488,
      "d": 105.3368749999936,
      "v": 84
    },
    {
      "midi": 67,
      "hit": false,
      "t": 124592.4557499982,
      "d": 105.3368749999936,
      "v": 61
    },
    {
      "midi": 62,
      "hit": false,
      "t": 124641.61295833153,
      "d": 330.0555416666466,
      "v": 25
    },
    {
      "midi": 55,
      "hit": false,
      "t": 124669.70279166487,
      "d": 224.718666666653,
      "v": 28
    },
    {
      "midi": 62,
      "hit": false,
      "t": 124690.7701666655,
      "d": 224.718666666653,
      "v": 51
    },
    {
      "midi": 59,
      "hit": false,
      "t": 124697.79262499884,
      "d": 63.20212499999616,
      "v": 42
    },
    {
      "midi": 67,
      "hit": false,
      "t": 124697.79262499884,
      "d": 168.53899999998976,
      "v": 47
    },
    {
      "midi": 67,
      "hit": false,
      "t": 124789.08458333153,
      "d": 105.3368749999936,
      "v": 50
    },
    {
      "midi": 59,
      "hit": false,
      "t": 124824.19687499819,
      "d": 98.31441666666069,
      "v": 1
    },
    {
      "midi": 67,
      "hit": false,
      "t": 124978.69095833151,
      "d": 91.29195833332778,
      "v": 57
    },
    {
      "midi": 67,
      "hit": false,
      "t": 125154.25241666484,
      "d": 84.26949999999488,
      "v": 63
    },
    {
      "midi": 67,
      "hit": false,
      "t": 125329.81387499816,
      "d": 98.31441666666069,
      "v": 57
    },
    {
      "midi": 60,
      "hit": false,
      "t": 125343.85879166482,
      "d": 294.9432499999821,
      "v": 38
    },
    {
      "midi": 66,
      "hit": false,
      "t": 125350.88124999883,
      "d": 330.05554166666116,
      "v": 72
    },
    {
      "midi": 51,
      "hit": false,
      "t": 125357.90370833149,
      "d": 877.8072916666424,
      "v": 42
    },
    {
      "midi": 74,
      "hit": false,
      "t": 125357.90370833216,
      "d": 280.8983333333308,
      "v": 69
    },
    {
      "midi": 63,
      "hit": false,
      "t": 125357.90370833216,
      "d": 301.96570833332953,
      "v": 77
    },
    {
      "midi": 54,
      "hit": false,
      "t": 125364.92616666482,
      "d": 428.3699583333073,
      "v": 36
    },
    {
      "midi": 62,
      "hit": false,
      "t": 125364.9261666655,
      "d": 308.98816666666244,
      "v": 71
    },
    {
      "midi": 57,
      "hit": false,
      "t": 125385.99354166482,
      "d": 308.9881666666479,
      "v": 43
    },
    {
      "midi": 69,
      "hit": false,
      "t": 125385.99354166549,
      "d": 238.76358333333337,
      "v": 42
    },
    {
      "midi": 67,
      "hit": false,
      "t": 125540.48762499815,
      "d": 245.78604166665173,
      "v": 60
    },
    {
      "midi": 63,
      "hit": false,
      "t": 125779.25120833215,
      "d": 126.40424999999232,
      "v": 64
    },
    {
      "midi": 74,
      "hit": false,
      "t": 125779.25120833215,
      "d": 133.42670833332522,
      "v": 72
    },
    {
      "midi": 62,
      "hit": false,
      "t": 125779.25120833215,
      "d": 189.60637499998847,
      "v": 58
    },
    {
      "midi": 66,
      "hit": false,
      "t": 125793.29612499881,
      "d": 112.3593333333265,
      "v": 50
    },
    {
      "midi": 66,
      "hit": false,
      "t": 125849.4757916648,
      "d": 168.5390000000043,
      "v": 62
    },
    {
      "midi": 60,
      "hit": false,
      "t": 126032.05970833146,
      "d": 316.01062499999534,
      "v": 35
    },
    {
      "midi": 63,
      "hit": false,
      "t": 126032.05970833213,
      "d": 133.42670833332522,
      "v": 60
    },
    {
      "midi": 60,
      "hit": false,
      "t": 126039.08216666547,
      "d": 35.11229166666453,
      "v": 63
    },
    {
      "midi": 54,
      "hit": false,
      "t": 126046.10462499813,
      "d": 245.78604166666628,
      "v": 36
    },
    {
      "midi": 72,
      "hit": false,
      "t": 126046.1046249988,
      "d": 70.22458333332906,
      "v": 52
    },
    {
      "midi": 66,
      "hit": false,
      "t": 126046.1046249988,
      "d": 140.44916666665813,
      "v": 45
    },
    {
      "midi": 67,
      "hit": false,
      "t": 126067.17199999813,
      "d": 365.1678333333257,
      "v": 53
    },
    {
      "midi": 68,
      "hit": false,
      "t": 126502.56441666478,
      "d": 182.58391666667012,
      "v": 68
    },
    {
      "midi": 57,
      "hit": false,
      "t": 126502.56441666545,
      "d": 119.38179166665941,
      "v": 56
    },
    {
      "midi": 60,
      "hit": false,
      "t": 126502.56441666545,
      "d": 154.49408333332394,
      "v": 55
    },
    {
      "midi": 65,
      "hit": false,
      "t": 126502.56441666545,
      "d": 154.49408333332394,
      "v": 57
    },
    {
      "midi": 69,
      "hit": false,
      "t": 126509.58687499879,
      "d": 126.40424999999232,
      "v": 54
    },
    {
      "midi": 50,
      "hit": false,
      "t": 126509.58687499879,
      "d": 175.56145833332266,
      "v": 48
    },
    {
      "midi": 60,
      "hit": false,
      "t": 126685.14833333145,
      "d": 273.87587499998335,
      "v": 27
    },
    {
      "midi": 57,
      "hit": false,
      "t": 126692.17079166479,
      "d": 259.83095833331754,
      "v": 37
    },
    {
      "midi": 53,
      "hit": false,
      "t": 126699.19324999812,
      "d": 287.92079166664917,
      "v": 36
    },
    {
      "midi": 50,
      "hit": false,
      "t": 126706.21570833145,
      "d": 870.784833333295,
      "v": 35
    },
    {
      "midi": 69,
      "hit": false,
      "t": 126762.39537499812,
      "d": 112.3593333333265,
      "v": 48
    },
    {
      "midi": 72,
      "hit": false,
      "t": 126980.09158333144,
      "d": 105.3368749999936,
      "v": 62
    },
    {
      "midi": 76,
      "hit": false,
      "t": 127183.74287499809,
      "d": 168.5390000000043,
      "v": 117
    },
    {
      "midi": 43,
      "hit": false,
      "t": 127190.7653333321,
      "d": 175.56145833332266,
      "v": 39
    },
    {
      "midi": 31,
      "hit": false,
      "t": 127190.7653333321,
      "d": 477.5271666666522,
      "v": 48
    },
    {
      "midi": 53,
      "hit": false,
      "t": 127197.78779166544,
      "d": 147.47162499999104,
      "v": 54
    },
    {
      "midi": 57,
      "hit": false,
      "t": 127204.81024999877,
      "d": 175.56145833332266,
      "v": 52
    },
    {
      "midi": 60,
      "hit": false,
      "t": 127211.8327083321,
      "d": 161.51654166665685,
      "v": 48
    },
    {
      "midi": 60,
      "hit": false,
      "t": 127394.41662499809,
      "d": 316.0106249999808,
      "v": 40
    },
    {
      "midi": 79,
      "hit": false,
      "t": 127415.48399999809,
      "d": 147.47162499999104,
      "v": 111
    },
    {
      "midi": 57,
      "hit": false,
      "t": 127415.48399999809,
      "d": 175.56145833332266,
      "v": 34
    },
    {
      "midi": 53,
      "hit": false,
      "t": 127443.57383333142,
      "d": 140.44916666665813,
      "v": 20
    },
    {
      "midi": 43,
      "hit": false,
      "t": 127464.64120833209,
      "d": 189.60637500000303,
      "v": 38
    },
    {
      "midi": 53,
      "hit": false,
      "t": 127485.70858333209,
      "d": 161.5165416666714,
      "v": 41
    },
    {
      "midi": 57,
      "hit": false,
      "t": 127513.79841666542,
      "d": 147.4716250000056,
      "v": 36
    },
    {
      "midi": 60,
      "hit": false,
      "t": 127513.79841666542,
      "d": 154.4940833333385,
      "v": 38
    },
    {
      "midi": 78,
      "hit": false,
      "t": 127640.20266666474,
      "d": 140.44916666665813,
      "v": 81
    },
    {
      "midi": 77,
      "hit": false,
      "t": 127864.9213333314,
      "d": 175.5614583333372,
      "v": 81
    },
    {
      "midi": 31,
      "hit": false,
      "t": 127900.03362499876,
      "d": 126.40424999999232,
      "v": 46
    },
    {
      "midi": 43,
      "hit": false,
      "t": 127907.05608333209,
      "d": 105.3368749999936,
      "v": 40
    },
    {
      "midi": 53,
      "hit": false,
      "t": 127907.05608333209,
      "d": 112.3593333333265,
      "v": 52
    },
    {
      "midi": 60,
      "hit": false,
      "t": 127914.07854166543,
      "d": 119.38179166665941,
      "v": 50
    },
    {
      "midi": 57,
      "hit": false,
      "t": 127921.10099999876,
      "d": 84.26949999999488,
      "v": 46
    },
    {
      "midi": 73,
      "hit": false,
      "t": 128096.6624583314,
      "d": 189.60637500000303,
      "v": 60
    },
    {
      "midi": 59,
      "hit": false,
      "t": 128103.68491666473,
      "d": 386.23520833333896,
      "v": 39
    },
    {
      "midi": 64,
      "hit": false,
      "t": 128103.68491666473,
      "d": 393.25766666667187,
      "v": 31
    },
    {
      "midi": 53,
      "hit": false,
      "t": 128117.7298333314,
      "d": 344.1004583333415,
      "v": 33
    },
    {
      "midi": 43,
      "hit": false,
      "t": 128209.02179166542,
      "d": 161.51654166665685,
      "v": 48
    },
    {
      "midi": 53,
      "hit": false,
      "t": 128216.04424999875,
      "d": 154.49408333332394,
      "v": 43
    },
    {
      "midi": 64,
      "hit": false,
      "t": 128216.04424999875,
      "d": 189.60637499998847,
      "v": 49
    },
    {
      "midi": 31,
      "hit": false,
      "t": 128223.06670833209,
      "d": 147.47162499999104,
      "v": 39
    },
    {
      "midi": 56,
      "hit": false,
      "t": 128230.08916666542,
      "d": 154.49408333332394,
      "v": 48
    },
    {
      "midi": 59,
      "hit": false,
      "t": 128251.15654166542,
      "d": 133.42670833332522,
      "v": 43
    },
    {
      "midi": 76,
      "hit": false,
      "t": 128335.42604166473,
      "d": 133.42670833333977,
      "v": 68
    },
    {
      "midi": 74,
      "hit": false,
      "t": 128546.09979166473,
      "d": 196.62883333333593,
      "v": 74
    },
    {
      "midi": 56,
      "hit": false,
      "t": 128630.36929166541,
      "d": 147.47162499999104,
      "v": 54
    },
    {
      "midi": 53,
      "hit": false,
      "t": 128644.41420833208,
      "d": 98.31441666666069,
      "v": 48
    },
    {
      "midi": 31,
      "hit": false,
      "t": 128651.43666666541,
      "d": 49.157208333330345,
      "v": 41
    },
    {
      "midi": 43,
      "hit": false,
      "t": 128658.45912499874,
      "d": 112.3593333333265,
      "v": 42
    },
    {
      "midi": 59,
      "hit": false,
      "t": 128665.48158333208,
      "d": 112.3593333333265,
      "v": 48
    },
    {
      "midi": 64,
      "hit": false,
      "t": 128679.52649999874,
      "d": 126.40424999999232,
      "v": 31
    },
    {
      "midi": 64,
      "hit": false,
      "t": 128812.9532083314,
      "d": 316.01062499999534,
      "v": 36
    },
    {
      "midi": 59,
      "hit": false,
      "t": 128812.9532083314,
      "d": 337.07799999999406,
      "v": 43
    },
    {
      "midi": 53,
      "hit": false,
      "t": 128834.0205833314,
      "d": 407.3025833333231,
      "v": 31
    },
    {
      "midi": 67,
      "hit": false,
      "t": 128834.0205833314,
      "d": 414.32504166665603,
      "v": 50
    },
    {
      "midi": 60,
      "hit": false,
      "t": 129276.43545833207,
      "d": 2071.6252083333384,
      "v": 63
    },
    {
      "midi": 55,
      "hit": false,
      "t": 129283.4579166654,
      "d": 2015.4455416666606,
      "v": 59
    },
    {
      "midi": 69,
      "hit": false,
      "t": 129304.52529166472,
      "d": 168.53899999998976,
      "v": 56
    },
    {
      "midi": 52,
      "hit": false,
      "t": 129304.5252916654,
      "d": 140.44916666667268,
      "v": 42
    },
    {
      "midi": 62,
      "hit": false,
      "t": 129515.1990416647,
      "d": 442.4148750000022,
      "v": 36
    },
    {
      "midi": 72,
      "hit": false,
      "t": 129529.24395833137,
      "d": 470.50470833333384,
      "v": 69
    },
    {
      "midi": 57,
      "hit": false,
      "t": 129543.28887499803,
      "d": 379.21275000000605,
      "v": 42
    },
    {
      "midi": 52,
      "hit": false,
      "t": 129557.3337916647,
      "d": 870.7848333333241,
      "v": 27
    },
    {
      "midi": 42,
      "hit": false,
      "t": 129922.50162499874,
      "d": 189.60637500000303,
      "v": 60
    },
    {
      "midi": 69,
      "hit": false,
      "t": 130062.9507916647,
      "d": 126.40425000000687,
      "v": 23
    },
    {
      "midi": 43,
      "hit": false,
      "t": 130161.26520833207,
      "d": 1179.7729999999865,
      "v": 59
    },
    {
      "midi": 72,
      "hit": false,
      "t": 130238.51224999804,
      "d": 245.78604166665173,
      "v": 57
    },
    {
      "midi": 62,
      "hit": false,
      "t": 130245.53470833137,
      "d": 210.6737499999872,
      "v": 26
    },
    {
      "midi": 57,
      "hit": false,
      "t": 130259.57962499803,
      "d": 84.26949999999488,
      "v": 33
    },
    {
      "midi": 72,
      "hit": false,
      "t": 130856.48858333135,
      "d": 98.31441666666069,
      "v": 61
    },
    {
      "midi": 84,
      "hit": false,
      "t": 130863.51104166468,
      "d": 189.60637499998847,
      "v": 57
    },
    {
      "midi": 58,
      "hit": false,
      "t": 130863.51104166468,
      "d": 210.67375000000175,
      "v": 48
    },
    {
      "midi": 65,
      "hit": false,
      "t": 130870.53349999801,
      "d": 112.3593333333265,
      "v": 38
    },
    {
      "midi": 77,
      "hit": false,
      "t": 130877.55595833134,
      "d": 91.29195833332778,
      "v": 57
    },
    {
      "midi": 61,
      "hit": false,
      "t": 130877.55595833134,
      "d": 182.58391666665557,
      "v": 42
    },
    {
      "midi": 81,
      "hit": false,
      "t": 130884.57841666468,
      "d": 133.42670833332522,
      "v": 41
    },
    {
      "midi": 55,
      "hit": false,
      "t": 130884.57841666468,
      "d": 161.51654166665685,
      "v": 37
    },
    {
      "midi": 90,
      "hit": false,
      "t": 131312.948374998,
      "d": 35.112291666679084,
      "v": 59
    },
    {
      "midi": 81,
      "hit": false,
      "t": 131312.948374998,
      "d": 70.22458333335817,
      "v": 66
    },
    {
      "midi": 93,
      "hit": false,
      "t": 131312.948374998,
      "d": 112.35933333341382,
      "v": 82
    },
    {
      "midi": 88,
      "hit": false,
      "t": 131326.99329166466,
      "d": 70.22458333338727,
      "v": 68
    },
    {
      "midi": 65,
      "hit": false,
      "t": 131326.99329166466,
      "d": 77.24704166673473,
      "v": 68
    },
    {
      "midi": 61,
      "hit": false,
      "t": 131326.99329166466,
      "d": 112.35933333344292,
      "v": 62
    },
    {
      "midi": 58,
      "hit": false,
      "t": 131341.03820833133,
      "d": 91.29195833342965,
      "v": 56
    },
    {
      "midi": 55,
      "hit": false,
      "t": 131348.06066666468,
      "d": 42.13475000002654,
      "v": 48
    },
    {
      "midi": 55,
      "hit": false,
      "t": 131544.68949999812,
      "d": 294.9432500000403,
      "v": 73
    },
    {
      "midi": 61,
      "hit": false,
      "t": 131544.68949999812,
      "d": 308.9881666667061,
      "v": 66
    },
    {
      "midi": 84,
      "hit": false,
      "t": 131551.71195833146,
      "d": 245.78604166666628,
      "v": 87
    },
    {
      "midi": 65,
      "hit": false,
      "t": 131551.71195833146,
      "d": 259.8309583333321,
      "v": 75
    },
    {
      "midi": 96,
      "hit": false,
      "t": 131551.71195833146,
      "d": 273.8758749999979,
      "v": 107
    },
    {
      "midi": 58,
      "hit": false,
      "t": 131551.71195833146,
      "d": 280.89833333334536,
      "v": 63
    },
    {
      "midi": 91,
      "hit": false,
      "t": 131558.7344166648,
      "d": 238.76358333331882,
      "v": 84
    },
    {
      "midi": 51,
      "hit": false,
      "t": 131867.72258333207,
      "d": 161.5165416666714,
      "v": 49
    },
    {
      "midi": 61,
      "hit": false,
      "t": 131959.01454166483,
      "d": 161.5165416667296,
      "v": 48
    },
    {
      "midi": 65,
      "hit": false,
      "t": 131973.0594583315,
      "d": 35.11229166670819,
      "v": 54
    },
    {
      "midi": 58,
      "hit": false,
      "t": 131980.08191666484,
      "d": 91.29195833337144,
      "v": 49
    },
    {
      "midi": 96,
      "hit": false,
      "t": 131980.08191666484,
      "d": 119.38179166670307,
      "v": 78
    },
    {
      "midi": 84,
      "hit": false,
      "t": 132001.14929166486,
      "d": 70.22458333335817,
      "v": 63
    },
    {
      "midi": 91,
      "hit": false,
      "t": 132001.14929166486,
      "d": 98.3144166666898,
      "v": 68
    },
    {
      "midi": 53,
      "hit": false,
      "t": 132106.48616666542,
      "d": 175.56145833336632,
      "v": 46
    },
    {
      "midi": 50,
      "hit": false,
      "t": 132113.50862499877,
      "d": 203.65129166669794,
      "v": 55
    },
    {
      "midi": 60,
      "hit": false,
      "t": 132127.55354166543,
      "d": 224.71866666671121,
      "v": 46
    },
    {
      "midi": 57,
      "hit": false,
      "t": 132134.57599999878,
      "d": 154.49408333335305,
      "v": 41
    },
    {
      "midi": 64,
      "hit": false,
      "t": 132197.77812499824,
      "d": 379.21275000000605,
      "v": 59
    },
    {
      "midi": 96,
      "hit": false,
      "t": 132218.84549999825,
      "d": 323.0330833333137,
      "v": 75
    },
    {
      "midi": 91,
      "hit": false,
      "t": 132218.84549999825,
      "d": 337.0779999999795,
      "v": 70
    },
    {
      "midi": 60,
      "hit": false,
      "t": 132218.84549999825,
      "d": 372.1902916666586,
      "v": 49
    },
    {
      "midi": 57,
      "hit": false,
      "t": 132218.84549999825,
      "d": 379.21275000000605,
      "v": 52
    },
    {
      "midi": 53,
      "hit": false,
      "t": 132218.84549999825,
      "d": 386.2352083333535,
      "v": 40
    },
    {
      "midi": 84,
      "hit": false,
      "t": 132232.89041666492,
      "d": 365.16783333334024,
      "v": 56
    },
    {
      "midi": 57,
      "hit": false,
      "t": 132787.6646249988,
      "d": 140.44916666665813,
      "v": 54
    },
    {
      "midi": 60,
      "hit": false,
      "t": 132787.6646249988,
      "d": 308.9881666666479,
      "v": 56
    },
    {
      "midi": 65,
      "hit": false,
      "t": 132801.70954166548,
      "d": 386.2352083333244,
      "v": 48
    },
    {
      "midi": 69,
      "hit": false,
      "t": 132815.75445833214,
      "d": 337.0779999999795,
      "v": 41
    },
    {
      "midi": 64,
      "hit": false,
      "t": 132857.8892083316,
      "d": 273.8758749999979,
      "v": 40
    },
    {
      "midi": 60,
      "hit": false,
      "t": 132864.91166666494,
      "d": 238.76358333331882,
      "v": 48
    },
    {
      "midi": 57,
      "hit": false,
      "t": 132864.91166666494,
      "d": 301.96570833332953,
      "v": 53
    },
    {
      "midi": 53,
      "hit": false,
      "t": 132864.91166666494,
      "d": 323.0330833333428,
      "v": 32
    },
    {
      "midi": 81,
      "hit": false,
      "t": 132864.91166666494,
      "d": 372.1902916666877,
      "v": 57
    },
    {
      "midi": 93,
      "hit": false,
      "t": 132864.91166666494,
      "d": 386.2352083333535,
      "v": 57
    },
    {
      "midi": 88,
      "hit": false,
      "t": 132864.91166666494,
      "d": 414.32504166668514,
      "v": 56
    },
    {
      "midi": 43,
      "hit": false,
      "t": 133454.79816666548,
      "d": 112.35933333335561,
      "v": 48
    },
    {
      "midi": 59,
      "hit": false,
      "t": 133454.79816666548,
      "d": 112.35933333335561,
      "v": 49
    },
    {
      "midi": 67,
      "hit": false,
      "t": 133461.82062499883,
      "d": 147.4716250000056,
      "v": 42
    },
    {
      "midi": 64,
      "hit": false,
      "t": 133475.8655416655,
      "d": 189.60637500000303,
      "v": 48
    },
    {
      "midi": 53,
      "hit": false,
      "t": 133482.88799999884,
      "d": 140.44916666665813,
      "v": 31
    },
    {
      "midi": 87,
      "hit": false,
      "t": 133496.93291666495,
      "d": 217.69620833333465,
      "v": 58
    },
    {
      "midi": 81,
      "hit": false,
      "t": 133496.93291666495,
      "d": 379.21275000000605,
      "v": 61
    },
    {
      "midi": 93,
      "hit": false,
      "t": 133496.93291666495,
      "d": 407.3025833333377,
      "v": 52
    },
    {
      "midi": 64,
      "hit": false,
      "t": 133496.93291666495,
      "d": 435.3924166666693,
      "v": 51
    },
    {
      "midi": 59,
      "hit": false,
      "t": 133496.93291666495,
      "d": 442.41487500001676,
      "v": 56
    },
    {
      "midi": 53,
      "hit": false,
      "t": 133496.93291666495,
      "d": 456.4597916667117,
      "v": 45
    },
    {
      "midi": 57,
      "hit": false,
      "t": 133532.04520833163,
      "d": 414.32504166668514,
      "v": 42
    },
    {
      "midi": 88,
      "hit": false,
      "t": 133770.80879166495,
      "d": 161.5165416666714,
      "v": 19
    },
    {
      "midi": 63,
      "hit": false,
      "t": 134121.93170833215,
      "d": 175.5614583333372,
      "v": 62
    },
    {
      "midi": 67,
      "hit": false,
      "t": 134121.93170833215,
      "d": 224.7186666666821,
      "v": 56
    },
    {
      "midi": 74,
      "hit": false,
      "t": 134121.93170833215,
      "d": 308.988166666677,
      "v": 75
    },
    {
      "midi": 68,
      "hit": false,
      "t": 134121.93170833215,
      "d": 337.0780000000086,
      "v": 65
    },
    {
      "midi": 53,
      "hit": false,
      "t": 134135.97662499882,
      "d": 154.49408333332394,
      "v": 50
    },
    {
      "midi": 59,
      "hit": false,
      "t": 134135.97662499882,
      "d": 210.6737500000163,
      "v": 55
    },
    {
      "midi": 83,
      "hit": false,
      "t": 134592.436416665,
      "d": 182.58391666671378,
      "v": 89
    },
    {
      "midi": 95,
      "hit": false,
      "t": 134592.436416665,
      "d": 210.6737500000745,
      "v": 99
    },
    {
      "midi": 62,
      "hit": false,
      "t": 134599.45887499835,
      "d": 196.6288333333796,
      "v": 86
    },
    {
      "midi": 92,
      "hit": false,
      "t": 134613.50379166502,
      "d": 42.13475000002654,
      "v": 30
    },
    {
      "midi": 88,
      "hit": false,
      "t": 134613.50379166502,
      "d": 154.49408333335305,
      "v": 82
    },
    {
      "midi": 52,
      "hit": false,
      "t": 134613.50379166502,
      "d": 182.58391666671378,
      "v": 75
    },
    {
      "midi": 55,
      "hit": false,
      "t": 134613.50379166502,
      "d": 210.6737500000745,
      "v": 70
    },
    {
      "midi": 59,
      "hit": false,
      "t": 134613.50379166502,
      "d": 210.6737500000745,
      "v": 73
    },
    {
      "midi": 91,
      "hit": false,
      "t": 134620.52624999837,
      "d": 35.112291666679084,
      "v": 58
    },
    {
      "midi": 93,
      "hit": false,
      "t": 134634.57116666503,
      "d": 49.1572083333449,
      "v": 44
    },
    {
      "midi": 52,
      "hit": false,
      "t": 134789.06524999882,
      "d": 203.65129166669794,
      "v": 51
    },
    {
      "midi": 71,
      "hit": false,
      "t": 134796.08770833217,
      "d": 365.16783333336934,
      "v": 60
    },
    {
      "midi": 62,
      "hit": false,
      "t": 134803.11016666552,
      "d": 196.62883333335049,
      "v": 52
    },
    {
      "midi": 59,
      "hit": false,
      "t": 134803.11016666552,
      "d": 210.6737500000163,
      "v": 48
    },
    {
      "midi": 67,
      "hit": false,
      "t": 134803.11016666552,
      "d": 280.89833333334536,
      "v": 56
    },
    {
      "midi": 95,
      "hit": false,
      "t": 134894.40212499845,
      "d": 245.78604166669538,
      "v": 75
    },
    {
      "midi": 52,
      "hit": false,
      "t": 134901.4245833318,
      "d": 316.01062500002445,
      "v": 52
    },
    {
      "midi": 62,
      "hit": false,
      "t": 134901.4245833318,
      "d": 330.05554166671936,
      "v": 57
    },
    {
      "midi": 88,
      "hit": false,
      "t": 134908.44704166515,
      "d": 245.78604166666628,
      "v": 74
    },
    {
      "midi": 83,
      "hit": false,
      "t": 134908.44704166515,
      "d": 287.9207916666637,
      "v": 72
    },
    {
      "midi": 55,
      "hit": false,
      "t": 134908.44704166515,
      "d": 308.988166666677,
      "v": 66
    },
    {
      "midi": 59,
      "hit": false,
      "t": 134908.44704166515,
      "d": 316.01062500002445,
      "v": 59
    },
    {
      "midi": 91,
      "hit": false,
      "t": 134929.51441666516,
      "d": 196.62883333332138,
      "v": 55
    },
    {
      "midi": 73,
      "hit": false,
      "t": 135456.19879166555,
      "d": 196.62883333335049,
      "v": 59
    },
    {
      "midi": 68,
      "hit": false,
      "t": 135463.2212499989,
      "d": 252.80850000001374,
      "v": 75
    },
    {
      "midi": 61,
      "hit": false,
      "t": 135477.26616666556,
      "d": 105.33687500000815,
      "v": 54
    },
    {
      "midi": 55,
      "hit": false,
      "t": 135484.28862499853,
      "d": 245.7860416667245,
      "v": 57
    },
    {
      "midi": 91,
      "hit": false,
      "t": 135491.31108333188,
      "d": 203.65129166669794,
      "v": 63
    },
    {
      "midi": 62,
      "hit": false,
      "t": 135505.35599999854,
      "d": 238.76358333337703,
      "v": 36
    },
    {
      "midi": 52,
      "hit": false,
      "t": 135512.3784583319,
      "d": 161.5165416666714,
      "v": 37
    },
    {
      "midi": 59,
      "hit": false,
      "t": 135512.3784583319,
      "d": 203.65129166669794,
      "v": 46
    },
    {
      "midi": 86,
      "hit": false,
      "t": 135512.3784583319,
      "d": 203.65129166669794,
      "v": 54
    },
    {
      "midi": 79,
      "hit": false,
      "t": 135512.3784583319,
      "d": 259.8309583333612,
      "v": 48
    },
    {
      "midi": 72,
      "hit": false,
      "t": 136123.33233333225,
      "d": 491.57208333339076,
      "v": 56
    },
    {
      "midi": 61,
      "hit": false,
      "t": 136130.3547916656,
      "d": 351.12291666670353,
      "v": 52
    },
    {
      "midi": 65,
      "hit": false,
      "t": 136137.37724999894,
      "d": 294.9432500000112,
      "v": 58
    },
    {
      "midi": 60,
      "hit": false,
      "t": 136144.3997083323,
      "d": 568.8191250000091,
      "v": 51
    },
    {
      "midi": 65,
      "hit": false,
      "t": 136158.44462499858,
      "d": 442.41487499998766,
      "v": 46
    },
    {
      "midi": 76,
      "hit": false,
      "t": 136158.44462499858,
      "d": 491.57208333333256,
      "v": 55
    },
    {
      "midi": 61,
      "hit": false,
      "t": 136158.44462499858,
      "d": 526.6843750000116,
      "v": 48
    },
    {
      "midi": 88,
      "hit": false,
      "t": 136158.44462499858,
      "d": 765.4479583333596,
      "v": 56
    },
    {
      "midi": 69,
      "hit": false,
      "t": 136158.44462499896,
      "d": 245.78604166666628,
      "v": 46
    },
    {
      "midi": 55,
      "hit": false,
      "t": 136172.48954166524,
      "d": 547.7517500000249,
      "v": 42
    },
    {
      "midi": 83,
      "hit": false,
      "t": 136172.48954166524,
      "d": 632.0212500000198,
      "v": 51
    },
    {
      "midi": 55,
      "hit": false,
      "t": 136825.57816666528,
      "d": 273.8758749999979,
      "v": 32
    },
    {
      "midi": 64,
      "hit": false,
      "t": 136839.62308333194,
      "d": 245.78604166666628,
      "v": 43
    },
    {
      "midi": 61,
      "hit": false,
      "t": 136839.62308333194,
      "d": 301.96570833332953,
      "v": 38
    },
    {
      "midi": 58,
      "hit": false,
      "t": 136909.84766666527,
      "d": 189.60637500000303,
      "v": 22
    },
    {
      "midi": 69,
      "hit": false,
      "t": 137218.8358333323,
      "d": 154.49408333335305,
      "v": 70
    },
    {
      "midi": 61,
      "hit": false,
      "t": 137218.8358333323,
      "d": 189.60637500003213,
      "v": 68
    },
    {
      "midi": 57,
      "hit": false,
      "t": 137232.88074999896,
      "d": 105.33687500000815,
      "v": 52
    },
    {
      "midi": 51,
      "hit": false,
      "t": 137232.88074999896,
      "d": 287.9207916666928,
      "v": 50
    },
    {
      "midi": 65,
      "hit": false,
      "t": 137246.92566666563,
      "d": 105.33687500000815,
      "v": 52
    },
    {
      "midi": 81,
      "hit": false,
      "t": 137513.77908333196,
      "d": 294.9432500000112,
      "v": 107
    },
    {
      "midi": 53,
      "hit": false,
      "t": 137513.77908333196,
      "d": 323.0330833333428,
      "v": 74
    },
    {
      "midi": 64,
      "hit": false,
      "t": 137513.77908333196,
      "d": 323.0330833333428,
      "v": 81
    },
    {
      "midi": 89,
      "hit": false,
      "t": 137513.77908333196,
      "d": 323.0330833333428,
      "v": 107
    },
    {
      "midi": 57,
      "hit": false,
      "t": 137513.77908333196,
      "d": 351.1229166666744,
      "v": 68
    },
    {
      "midi": 60,
      "hit": false,
      "t": 137513.77908333196,
      "d": 358.1453750000219,
      "v": 72
    },
    {
      "midi": 93,
      "hit": false,
      "t": 137513.77908333196,
      "d": 358.1453750000219,
      "v": 117
    },
    {
      "midi": 64,
      "hit": false,
      "t": 137598.04858333233,
      "d": 224.7186666666821,
      "v": 61
    },
    {
      "midi": 55,
      "hit": false,
      "t": 137598.04858333233,
      "d": 308.9881666667061,
      "v": 49
    },
    {
      "midi": 50,
      "hit": false,
      "t": 137598.04858333233,
      "d": 463.48225000003004,
      "v": 49
    },
    {
      "midi": 67,
      "hit": false,
      "t": 137605.07104166568,
      "d": 203.65129166666884,
      "v": 52
    },
    {
      "midi": 60,
      "hit": false,
      "t": 137605.07104166568,
      "d": 294.9432500000112,
      "v": 54
    },
    {
      "midi": 93,
      "hit": false,
      "t": 137963.21641666532,
      "d": 126.40425000002142,
      "v": 82
    },
    {
      "midi": 89,
      "hit": false,
      "t": 137977.261333332,
      "d": 91.29195833334234,
      "v": 73
    },
    {
      "midi": 81,
      "hit": false,
      "t": 137977.261333332,
      "d": 126.40425000002142,
      "v": 79
    },
    {
      "midi": 53,
      "hit": false,
      "t": 137977.261333332,
      "d": 140.44916666668723,
      "v": 57
    },
    {
      "midi": 64,
      "hit": false,
      "t": 137977.261333332,
      "d": 147.4716250000347,
      "v": 65
    },
    {
      "midi": 60,
      "hit": false,
      "t": 137977.261333332,
      "d": 161.5165416667005,
      "v": 58
    },
    {
      "midi": 57,
      "hit": false,
      "t": 137977.261333332,
      "d": 182.58391666671378,
      "v": 57
    },
    {
      "midi": 91,
      "hit": false,
      "t": 138019.396083332,
      "d": 49.1572083333449,
      "v": 40
    },
    {
      "midi": 65,
      "hit": false,
      "t": 138209.00245833237,
      "d": 161.5165416667296,
      "v": 56
    },
    {
      "midi": 55,
      "hit": false,
      "t": 138216.02491666572,
      "d": 42.13475000002654,
      "v": 41
    },
    {
      "midi": 60,
      "hit": false,
      "t": 138216.02491666572,
      "d": 140.44916666671634,
      "v": 56
    },
    {
      "midi": 57,
      "hit": false,
      "t": 138230.06983333238,
      "d": 119.38179166670307,
      "v": 38
    },
    {
      "midi": 89,
      "hit": false,
      "t": 138237.09229166538,
      "d": 301.96570833335863,
      "v": 48
    },
    {
      "midi": 64,
      "hit": false,
      "t": 138237.09229166538,
      "d": 323.033083333401,
      "v": 50
    },
    {
      "midi": 50,
      "hit": false,
      "t": 138237.09229166573,
      "d": 49.1572083333449,
      "v": 42
    },
    {
      "midi": 60,
      "hit": false,
      "t": 138244.11474999873,
      "d": 301.96570833335863,
      "v": 52
    },
    {
      "midi": 77,
      "hit": false,
      "t": 138244.11474999873,
      "d": 337.0780000000668,
      "v": 58
    },
    {
      "midi": 53,
      "hit": false,
      "t": 138244.11474999873,
      "d": 372.1902916667459,
      "v": 39
    },
    {
      "midi": 57,
      "hit": false,
      "t": 138244.11474999873,
      "d": 379.21275000009337,
      "v": 66
    },
    {
      "midi": 84,
      "hit": false,
      "t": 138272.20458333206,
      "d": 280.89833333337447,
      "v": 53
    },
    {
      "midi": 32,
      "hit": false,
      "t": 138616.30504166576,
      "d": 168.53899999998976,
      "v": 54
    },
    {
      "midi": 43,
      "hit": false,
      "t": 138862.09108333243,
      "d": 786.5153333334019,
      "v": 61
    },
    {
      "midi": 53,
      "hit": false,
      "t": 138876.1359999991,
      "d": 351.1229166666744,
      "v": 49
    },
    {
      "midi": 60,
      "hit": false,
      "t": 138883.15845833244,
      "d": 358.1453749999928,
      "v": 56
    },
    {
      "midi": 57,
      "hit": false,
      "t": 138883.15845833244,
      "d": 365.16783333334024,
      "v": 56
    },
    {
      "midi": 74,
      "hit": false,
      "t": 138904.22583333217,
      "d": 238.76358333334792,
      "v": 60
    },
    {
      "midi": 86,
      "hit": false,
      "t": 138911.2482916655,
      "d": 189.60637500000303,
      "v": 53
    },
    {
      "midi": 64,
      "hit": false,
      "t": 138911.2482916655,
      "d": 393.25766666667187,
      "v": 48
    },
    {
      "midi": 59,
      "hit": false,
      "t": 138925.29320833218,
      "d": 372.1902916666586,
      "v": 50
    },
    {
      "midi": 53,
      "hit": false,
      "t": 138925.29320833218,
      "d": 414.32504166668514,
      "v": 40
    },
    {
      "midi": 31,
      "hit": false,
      "t": 139550.2919999991,
      "d": 35.11229166670819,
      "v": 51
    },
    {
      "midi": 56,
      "hit": false,
      "t": 139557.31445833246,
      "d": 161.5165416667005,
      "v": 50
    },
    {
      "midi": 53,
      "hit": false,
      "t": 139564.3369166658,
      "d": 140.44916666668723,
      "v": 43
    },
    {
      "midi": 71,
      "hit": false,
      "t": 139578.3818333322,
      "d": 154.49408333335305,
      "v": 42
    },
    {
      "midi": 64,
      "hit": false,
      "t": 139578.3818333322,
      "d": 182.58391666668467,
      "v": 43
    },
    {
      "midi": 59,
      "hit": false,
      "t": 139578.3818333322,
      "d": 217.69620833339286,
      "v": 51
    },
    {
      "midi": 53,
      "hit": false,
      "t": 139578.3818333322,
      "d": 252.80850000007194,
      "v": 41
    },
    {
      "midi": 83,
      "hit": false,
      "t": 139578.3818333322,
      "d": 266.85341666673776,
      "v": 51
    },
    {
      "midi": 59,
      "hit": false,
      "t": 139578.38183333247,
      "d": 224.7186666666821,
      "v": 52
    },
    {
      "midi": 76,
      "hit": false,
      "t": 139599.44920833223,
      "d": 175.56145833336632,
      "v": 49
    },
    {
      "midi": 79,
      "hit": false,
      "t": 139620.51658333224,
      "d": 147.4716250000056,
      "v": 39
    },
    {
      "midi": 36,
      "hit": false,
      "t": 140189.3357083325,
      "d": 610.9538750000356,
      "v": 42
    },
    {
      "midi": 55,
      "hit": false,
      "t": 140231.4704583325,
      "d": 196.62883333335049,
      "v": 57
    },
    {
      "midi": 59,
      "hit": false,
      "t": 140231.4704583325,
      "d": 238.76358333334792,
      "v": 56
    },
    {
      "midi": 64,
      "hit": false,
      "t": 140238.49291666585,
      "d": 238.76358333334792,
      "v": 47
    },
    {
      "midi": 52,
      "hit": false,
      "t": 140238.49291666585,
      "d": 287.9207916666928,
      "v": 57
    },
    {
      "midi": 95,
      "hit": false,
      "t": 140259.56029166564,
      "d": 316.01062500002445,
      "v": 63
    },
    {
      "midi": 83,
      "hit": false,
      "t": 140266.58274999898,
      "d": 337.0780000000086,
      "v": 50
    },
    {
      "midi": 59,
      "hit": false,
      "t": 140273.60520833233,
      "d": 386.2352083333244,
      "v": 37
    },
    {
      "midi": 91,
      "hit": false,
      "t": 140280.62766666568,
      "d": 294.9432499999821,
      "v": 45
    },
    {
      "midi": 88,
      "hit": false,
      "t": 140280.62766666568,
      "d": 308.9881666666479,
      "v": 50
    },
    {
      "midi": 62,
      "hit": false,
      "t": 140280.62766666568,
      "d": 365.16783333331114,
      "v": 31
    },
    {
      "midi": 52,
      "hit": false,
      "t": 140280.62766666568,
      "d": 400.2801249999902,
      "v": 36
    },
    {
      "midi": 55,
      "hit": false,
      "t": 140280.62766666568,
      "d": 400.2801249999902,
      "v": 47
    },
    {
      "midi": 67,
      "hit": false,
      "t": 140884.55908333254,
      "d": 210.6737500000163,
      "v": 69
    },
    {
      "midi": 62,
      "hit": false,
      "t": 140884.55908333254,
      "d": 252.80850000001374,
      "v": 68
    },
    {
      "midi": 57,
      "hit": false,
      "t": 140891.5815416659,
      "d": 147.4716250000056,
      "v": 67
    },
    {
      "midi": 52,
      "hit": false,
      "t": 140898.60399999924,
      "d": 98.31441666666069,
      "v": 39
    },
    {
      "midi": 91,
      "hit": false,
      "t": 140926.69383333233,
      "d": 210.6737500000163,
      "v": 56
    },
    {
      "midi": 79,
      "hit": false,
      "t": 140940.738749999,
      "d": 259.8309583333612,
      "v": 43
    },
    {
      "midi": 86,
      "hit": false,
      "t": 140961.806124999,
      "d": 189.60637500000303,
      "v": 50
    },
    {
      "midi": 62,
      "hit": false,
      "t": 140961.806124999,
      "d": 245.78604166669538,
      "v": 25
    },
    {
      "midi": 59,
      "hit": false,
      "t": 140961.806124999,
      "d": 266.85341666670865,
      "v": 40
    },
    {
      "midi": 55,
      "hit": false,
      "t": 140961.806124999,
      "d": 273.8758750000561,
      "v": 42
    },
    {
      "midi": 52,
      "hit": false,
      "t": 140975.85104166568,
      "d": 231.74112500002957,
      "v": 26
    },
    {
      "midi": 57,
      "hit": false,
      "t": 141467.42312499922,
      "d": 140.44916666671634,
      "v": 66
    },
    {
      "midi": 71,
      "hit": false,
      "t": 141537.64770833257,
      "d": 575.8415833333856,
      "v": 79
    },
    {
      "midi": 64,
      "hit": false,
      "t": 141544.67016666592,
      "d": 456.4597916666826,
      "v": 82
    },
    {
      "midi": 62,
      "hit": false,
      "t": 141558.7150833326,
      "d": 407.3025833333377,
      "v": 86
    },
    {
      "midi": 67,
      "hit": false,
      "t": 141558.7150833326,
      "d": 449.4373333333642,
      "v": 58
    },
    {
      "midi": 59,
      "hit": false,
      "t": 141558.7150833326,
      "d": 674.1560000000463,
      "v": 86
    },
    {
      "midi": 55,
      "hit": false,
      "t": 142232.87108333263,
      "d": 105.33687500000815,
      "v": 63
    },
    {
      "midi": 62,
      "hit": false,
      "t": 142239.89354166598,
      "d": 161.5165416666714,
      "v": 61
    },
    {
      "midi": 67,
      "hit": false,
      "t": 142239.89354166598,
      "d": 168.53900000001886,
      "v": 63
    },
    {
      "midi": 64,
      "hit": false,
      "t": 142239.89354166598,
      "d": 203.65129166669794,
      "v": 60
    },
    {
      "midi": 62,
      "hit": false,
      "t": 142928.0944583327,
      "d": 161.5165416667005,
      "v": 57
    },
    {
      "midi": 65,
      "hit": false,
      "t": 142928.0944583327,
      "d": 182.58391666671378,
      "v": 57
    },
    {
      "midi": 57,
      "hit": false,
      "t": 142942.13937499936,
      "d": 112.35933333335561,
      "v": 50
    },
    {
      "midi": 47,
      "hit": false,
      "t": 142949.1618333327,
      "d": 98.31441666666069,
      "v": 54
    },
    {
      "midi": 65,
      "hit": false,
      "t": 143061.52116666574,
      "d": 196.6288333333796,
      "v": 60
    },
    {
      "midi": 69,
      "hit": false,
      "t": 143152.81312499908,
      "d": 77.24704166667652,
      "v": 77
    },
    {
      "midi": 66,
      "hit": false,
      "t": 143251.12754166577,
      "d": 168.53900000001886,
      "v": 66
    },
    {
      "midi": 70,
      "hit": false,
      "t": 143342.41949999912,
      "d": 112.35933333335561,
      "v": 84
    },
    {
      "midi": 67,
      "hit": false,
      "t": 143461.80129166582,
      "d": 189.60637500000303,
      "v": 55
    },
    {
      "midi": 71,
      "hit": false,
      "t": 143532.02587499915,
      "d": 98.31441666666069,
      "v": 84
    },
    {
      "midi": 69,
      "hit": false,
      "t": 143616.2953749994,
      "d": 337.0780000000377,
      "v": 68
    },
    {
      "midi": 76,
      "hit": false,
      "t": 143616.2953749994,
      "d": 421.3475000000326,
      "v": 68
    },
    {
      "midi": 65,
      "hit": false,
      "t": 143623.31783333275,
      "d": 316.01062500002445,
      "v": 68
    },
    {
      "midi": 71,
      "hit": false,
      "t": 143630.3402916661,
      "d": 337.0780000000086,
      "v": 61
    },
    {
      "midi": 68,
      "hit": false,
      "t": 143637.36274999916,
      "d": 154.49408333335305,
      "v": 60
    },
    {
      "midi": 64,
      "hit": false,
      "t": 143637.36274999945,
      "d": 217.69620833333465,
      "v": 67
    },
    {
      "midi": 72,
      "hit": false,
      "t": 143742.69962499916,
      "d": 105.33687500003725,
      "v": 81
    },
    {
      "midi": 69,
      "hit": false,
      "t": 143841.01404166585,
      "d": 168.53900000001886,
      "v": 54
    },
    {
      "midi": 73,
      "hit": false,
      "t": 143939.32845833254,
      "d": 98.31441666666069,
      "v": 52
    },
    {
      "midi": 70,
      "hit": false,
      "t": 143981.46320833254,
      "d": 287.9207916666637,
      "v": 55
    },
    {
      "midi": 74,
      "hit": false,
      "t": 144135.95729166587,
      "d": 91.29195833334234,
      "v": 72
    },
    {
      "midi": 71,
      "hit": false,
      "t": 144199.15941666588,
      "d": 126.40425000002142,
      "v": 43
    },
    {
      "midi": 76,
      "hit": false,
      "t": 144283.4289166661,
      "d": 294.9432500000403,
      "v": 63
    },
    {
      "midi": 62,
      "hit": false,
      "t": 144283.4289166661,
      "d": 568.8191250000382,
      "v": 57
    },
    {
      "midi": 65,
      "hit": false,
      "t": 144297.47383333277,
      "d": 273.875875000027,
      "v": 47
    },
    {
      "midi": 68,
      "hit": false,
      "t": 144304.49629166612,
      "d": 379.21275000003516,
      "v": 44
    },
    {
      "midi": 71,
      "hit": false,
      "t": 144311.51874999946,
      "d": 330.05554166669026,
      "v": 49
    },
    {
      "midi": 75,
      "hit": false,
      "t": 144318.54120833255,
      "d": 133.42670833336888,
      "v": 81
    },
    {
      "midi": 72,
      "hit": false,
      "t": 144346.6310416659,
      "d": 49.1572083333449,
      "v": 42
    },
    {
      "midi": 76,
      "hit": false,
      "t": 144522.19249999925,
      "d": 126.40424999999232,
      "v": 80
    },
    {
      "midi": 64,
      "hit": false,
      "t": 144845.22558333256,
      "d": 449.4373333333642,
      "v": 68
    },
    {
      "midi": 73,
      "hit": false,
      "t": 144894.3827916659,
      "d": 56.17966666666325,
      "v": 29
    },
    {
      "midi": 56,
      "hit": false,
      "t": 144943.53999999948,
      "d": 147.4716250000056,
      "v": 51
    },
    {
      "midi": 68,
      "hit": false,
      "t": 144943.53999999948,
      "d": 252.80850000001374,
      "v": 48
    },
    {
      "midi": 65,
      "hit": false,
      "t": 144957.58491666615,
      "d": 133.42670833333977,
      "v": 47
    },
    {
      "midi": 56,
      "hit": false,
      "t": 145027.80949999925,
      "d": 77.24704166667652,
      "v": 48
    },
    {
      "midi": 68,
      "hit": false,
      "t": 145259.55062499925,
      "d": 140.44916666668723,
      "v": 66
    },
    {
      "midi": 74,
      "hit": false,
      "t": 145442.13454166593,
      "d": 133.42670833336888,
      "v": 80
    },
    {
      "midi": 56,
      "hit": false,
      "t": 145477.2468333326,
      "d": 49.1572083333449,
      "v": 43
    },
    {
      "midi": 60,
      "hit": false,
      "t": 145589.60616666617,
      "d": 308.9881666667061,
      "v": 57
    },
    {
      "midi": 67,
      "hit": false,
      "t": 145596.62862499952,
      "d": 238.76358333334792,
      "v": 60
    },
    {
      "midi": 45,
      "hit": false,
      "t": 145596.62862499952,
      "d": 337.0780000000377,
      "v": 43
    },
    {
      "midi": 55,
      "hit": false,
      "t": 145603.65108333286,
      "d": 301.96570833335863,
      "v": 43
    },
    {
      "midi": 72,
      "hit": false,
      "t": 145673.87566666596,
      "d": 533.70683333333,
      "v": 65
    },
    {
      "midi": 60,
      "hit": false,
      "t": 146074.15579166595,
      "d": 84.26949999999488,
      "v": 48
    },
    {
      "midi": 44,
      "hit": false,
      "t": 146263.76216666625,
      "d": 273.8758750000561,
      "v": 49
    },
    {
      "midi": 66,
      "hit": false,
      "t": 146270.7846249996,
      "d": 301.96570833338774,
      "v": 48
    },
    {
      "midi": 54,
      "hit": false,
      "t": 146284.82954166597,
      "d": 287.9207916666928,
      "v": 58
    },
    {
      "midi": 59,
      "hit": false,
      "t": 146284.82954166597,
      "d": 330.05554166669026,
      "v": 50
    },
    {
      "midi": 63,
      "hit": false,
      "t": 146284.82954166597,
      "d": 435.3924166666984,
      "v": 56
    },
    {
      "midi": 59,
      "hit": false,
      "t": 146284.82954166626,
      "d": 154.49408333335305,
      "v": 34
    },
    {
      "midi": 54,
      "hit": false,
      "t": 146284.82954166626,
      "d": 203.65129166669794,
      "v": 35
    },
    {
      "midi": 44,
      "hit": false,
      "t": 146298.87445833263,
      "d": 344.1004583333561,
      "v": 43
    },
    {
      "midi": 53,
      "hit": false,
      "t": 146930.895708333,
      "d": 168.53900000001886,
      "v": 45
    },
    {
      "midi": 58,
      "hit": false,
      "t": 146930.895708333,
      "d": 308.9881666667061,
      "v": 54
    },
    {
      "midi": 43,
      "hit": false,
      "t": 146944.94062499967,
      "d": 126.40425000002142,
      "v": 39
    },
    {
      "midi": 65,
      "hit": false,
      "t": 146951.96308333302,
      "d": 238.76358333334792,
      "v": 45
    },
    {
      "midi": 43,
      "hit": false,
      "t": 146966.00799999933,
      "d": 603.9314166666882,
      "v": 45
    },
    {
      "midi": 53,
      "hit": false,
      "t": 146994.09783333266,
      "d": 77.24704166667652,
      "v": 21
    },
    {
      "midi": 58,
      "hit": false,
      "t": 147583.98433333304,
      "d": 224.718666666653,
      "v": 59
    },
    {
      "midi": 64,
      "hit": false,
      "t": 147598.0292499997,
      "d": 126.40424999999232,
      "v": 57
    },
    {
      "midi": 52,
      "hit": false,
      "t": 147612.07416666637,
      "d": 42.13474999999744,
      "v": 34
    },
    {
      "midi": 49,
      "hit": false,
      "t": 147633.14154166603,
      "d": 119.38179166670307,
      "v": 54
    },
    {
      "midi": 61,
      "hit": false,
      "t": 147647.1864583327,
      "d": 231.74112500002957,
      "v": 46
    },
    {
      "midi": 58,
      "hit": false,
      "t": 147654.20891666604,
      "d": 182.58391666668467,
      "v": 45
    },
    {
      "midi": 39,
      "hit": false,
      "t": 148054.48904166635,
      "d": 119.38179166667396,
      "v": 49
    },
    {
      "midi": 54,
      "hit": false,
      "t": 148272.1852499997,
      "d": 133.42670833336888,
      "v": 62
    },
    {
      "midi": 38,
      "hit": false,
      "t": 148286.23016666636,
      "d": 98.3144166666898,
      "v": 51
    },
    {
      "midi": 54,
      "hit": false,
      "t": 148293.2526249994,
      "d": 1671.3450833334064,
      "v": 46
    },
    {
      "midi": 60,
      "hit": false,
      "t": 148314.31999999942,
      "d": 386.2352083333535,
      "v": 43
    },
    {
      "midi": 64,
      "hit": false,
      "t": 148335.38737499944,
      "d": 245.78604166666628,
      "v": 23
    },
    {
      "midi": 69,
      "hit": false,
      "t": 148553.08358333277,
      "d": 70.22458333332906,
      "v": 57
    },
    {
      "midi": 76,
      "hit": false,
      "t": 148777.80224999945,
      "d": 161.5165416666714,
      "v": 92
    },
    {
      "midi": 54,
      "hit": false,
      "t": 148939.3187916664,
      "d": 126.40425000002142,
      "v": 48
    },
    {
      "midi": 66,
      "hit": false,
      "t": 148953.36370833305,
      "d": 238.76358333337703,
      "v": 53
    },
    {
      "midi": 72,
      "hit": false,
      "t": 148960.3861666664,
      "d": 140.44916666668723,
      "v": 54
    },
    {
      "midi": 72,
      "hit": false,
      "t": 149016.5658333328,
      "d": 112.35933333335561,
      "v": 60
    },
    {
      "midi": 60,
      "hit": false,
      "t": 149037.63320833282,
      "d": 231.74112500000047,
      "v": 27
    },
    {
      "midi": 72,
      "hit": false,
      "t": 149241.28449999948,
      "d": 140.44916666665813,
      "v": 63
    },
    {
      "midi": 66,
      "hit": false,
      "t": 149444.93579166615,
      "d": 1228.9302083333605,
      "v": 68
    },
    {
      "midi": 60,
      "hit": false,
      "t": 149592.40741666616,
      "d": 470.5047083333193,
      "v": 28
    },
    {
      "midi": 63,
      "hit": false,
      "t": 149606.4523333331,
      "d": 554.7742083333433,
      "v": 73
    },
    {
      "midi": 54,
      "hit": false,
      "t": 149641.56462499977,
      "d": 259.8309583333321,
      "v": 44
    },
    {
      "midi": 54,
      "hit": false,
      "t": 150287.63079166642,
      "d": 119.38179166667396,
      "v": 40
    },
    {
      "midi": 54,
      "hit": false,
      "t": 150308.69816666617,
      "d": 196.62883333335049,
      "v": 41
    },
    {
      "midi": 60,
      "hit": false,
      "t": 150315.72062499952,
      "d": 189.60637500000303,
      "v": 31
    },
    {
      "midi": 64,
      "hit": false,
      "t": 150322.74308333287,
      "d": 196.62883333332138,
      "v": 31
    },
    {
      "midi": 60,
      "hit": false,
      "t": 150322.7430833331,
      "d": 308.9881666666479,
      "v": 39
    },
    {
      "midi": 50,
      "hit": false,
      "t": 150772.1804166664,
      "d": 168.53899999998976,
      "v": 52
    },
    {
      "midi": 65,
      "hit": false,
      "t": 150989.8766249995,
      "d": 393.25766666667187,
      "v": 36
    },
    {
      "midi": 55,
      "hit": false,
      "t": 150989.8766249995,
      "d": 941.0094166667259,
      "v": 35
    },
    {
      "midi": 57,
      "hit": false,
      "t": 150989.87662499974,
      "d": 358.1453750000219,
      "v": 43
    },
    {
      "midi": 65,
      "hit": false,
      "t": 150989.87662499974,
      "d": 660.1110833333514,
      "v": 49
    },
    {
      "midi": 60,
      "hit": false,
      "t": 150996.8990833331,
      "d": 344.10045833332697,
      "v": 50
    },
    {
      "midi": 60,
      "hit": false,
      "t": 151003.92154166618,
      "d": 407.3025833333377,
      "v": 45
    },
    {
      "midi": 57,
      "hit": false,
      "t": 151010.94399999952,
      "d": 456.4597916666535,
      "v": 37
    },
    {
      "midi": 53,
      "hit": false,
      "t": 151039.0338333331,
      "d": 667.1335416666698,
      "v": 38
    },
    {
      "midi": 72,
      "hit": false,
      "t": 151453.3588749995,
      "d": 133.42670833333977,
      "v": 66
    },
    {
      "midi": 65,
      "hit": false,
      "t": 151678.0775416662,
      "d": 98.3144166666898,
      "v": 44
    },
    {
      "midi": 43,
      "hit": false,
      "t": 151678.07754166643,
      "d": 105.33687500000815,
      "v": 49
    },
    {
      "midi": 74,
      "hit": false,
      "t": 151692.12245833286,
      "d": 112.35933333335561,
      "v": 76
    },
    {
      "midi": 57,
      "hit": false,
      "t": 151692.1224583331,
      "d": 105.33687500000815,
      "v": 46
    },
    {
      "midi": 60,
      "hit": false,
      "t": 151692.1224583331,
      "d": 133.42670833333977,
      "v": 54
    },
    {
      "midi": 60,
      "hit": false,
      "t": 151720.2122916662,
      "d": 49.1572083333449,
      "v": 40
    },
    {
      "midi": 74,
      "hit": false,
      "t": 151923.8635833329,
      "d": 112.35933333335561,
      "v": 68
    },
    {
      "midi": 67,
      "hit": false,
      "t": 152141.55979166625,
      "d": 463.48225000000093,
      "v": 61
    },
    {
      "midi": 64,
      "hit": false,
      "t": 152310.09879166627,
      "d": 266.85341666665045,
      "v": 35
    },
    {
      "midi": 61,
      "hit": false,
      "t": 152324.14370833294,
      "d": 365.16783333334024,
      "v": 43
    },
    {
      "midi": 40,
      "hit": false,
      "t": 152331.16616666643,
      "d": 119.38179166673217,
      "v": 54
    },
    {
      "midi": 55,
      "hit": false,
      "t": 152338.1886249996,
      "d": 400.2801250000193,
      "v": 35
    },
    {
      "midi": 69,
      "hit": false,
      "t": 152366.2784583331,
      "d": 259.8309583334194,
      "v": 57
    },
    {
      "midi": 66,
      "hit": false,
      "t": 152366.2784583331,
      "d": 344.1004583334434,
      "v": 53
    },
    {
      "midi": 58,
      "hit": false,
      "t": 152373.30091666646,
      "d": 182.58391666671378,
      "v": 65
    },
    {
      "midi": 62,
      "hit": false,
      "t": 152373.30091666646,
      "d": 259.8309583334194,
      "v": 66
    },
    {
      "midi": 55,
      "hit": false,
      "t": 152380.3233749998,
      "d": 196.6288333333796,
      "v": 44
    },
    {
      "midi": 69,
      "hit": false,
      "t": 152612.0644999996,
      "d": 112.35933333335561,
      "v": 34
    },
    {
      "midi": 70,
      "hit": false,
      "t": 152815.7157916663,
      "d": 119.38179166667396,
      "v": 70
    },
    {
      "midi": 45,
      "hit": false,
      "t": 153012.3446249999,
      "d": 147.4716250000347,
      "v": 43
    },
    {
      "midi": 70,
      "hit": false,
      "t": 153026.38954166658,
      "d": 421.3475000000326,
      "v": 64
    },
    {
      "midi": 55,
      "hit": false,
      "t": 153033.41199999992,
      "d": 210.6737500000163,
      "v": 42
    },
    {
      "midi": 66,
      "hit": false,
      "t": 153033.41199999992,
      "d": 393.25766666667187,
      "v": 63
    },
    {
      "midi": 61,
      "hit": false,
      "t": 153033.41199999992,
      "d": 414.32504166668514,
      "v": 61
    },
    {
      "midi": 73,
      "hit": false,
      "t": 153061.50183333296,
      "d": 126.40425000005052,
      "v": 75
    },
    {
      "midi": 61,
      "hit": false,
      "t": 153061.50183333296,
      "d": 140.44916666671634,
      "v": 39
    },
    {
      "midi": 75,
      "hit": false,
      "t": 153075.54674999963,
      "d": 91.29195833337144,
      "v": 56
    },
    {
      "midi": 64,
      "hit": false,
      "t": 153082.56920833298,
      "d": 77.24704166667652,
      "v": 23
    },
    {
      "midi": 55,
      "hit": false,
      "t": 153082.56920833298,
      "d": 147.4716250000347,
      "v": 29
    },
    {
      "midi": 73,
      "hit": false,
      "t": 153300.26541666634,
      "d": 154.49408333335305,
      "v": 56
    },
    {
      "midi": 75,
      "hit": false,
      "t": 153307.2878749997,
      "d": 140.44916666665813,
      "v": 60
    },
    {
      "midi": 72,
      "hit": false,
      "t": 153524.98408333302,
      "d": 316.01062500005355,
      "v": 80
    },
    {
      "midi": 76,
      "hit": false,
      "t": 153532.00654166637,
      "d": 238.76358333334792,
      "v": 71
    },
    {
      "midi": 65,
      "hit": false,
      "t": 153672.4557083333,
      "d": 428.36995833338005,
      "v": 63
    },
    {
      "midi": 72,
      "hit": false,
      "t": 153679.47816666664,
      "d": 526.6843750000407,
      "v": 66
    },
    {
      "midi": 60,
      "hit": false,
      "t": 153686.500625,
      "d": 273.8758749999979,
      "v": 67
    },
    {
      "midi": 69,
      "hit": false,
      "t": 153700.54554166665,
      "d": 365.16783333334024,
      "v": 61
    },
    {
      "midi": 57,
      "hit": false,
      "t": 153700.54554166665,
      "d": 449.4373333333642,
      "v": 54
    },
    {
      "midi": 50,
      "hit": false,
      "t": 153700.54554166665,
      "d": 877.8072916667152,
      "v": 50
    },
    {
      "midi": 57,
      "hit": false,
      "t": 153763.74766666637,
      "d": 428.36995833338005,
      "v": 40
    },
    {
      "midi": 53,
      "hit": false,
      "t": 153763.74766666637,
      "d": 533.7068333333882,
      "v": 40
    },
    {
      "midi": 69,
      "hit": false,
      "t": 153770.77012499972,
      "d": 498.5945416667091,
      "v": 52
    },
    {
      "midi": 50,
      "hit": false,
      "t": 153770.77012499972,
      "d": 758.4255000000412,
      "v": 34
    },
    {
      "midi": 60,
      "hit": false,
      "t": 153777.79258333307,
      "d": 393.25766666667187,
      "v": 19
    },
    {
      "midi": 57,
      "hit": false,
      "t": 154353.63416666668,
      "d": 161.5165416666714,
      "v": 45
    },
    {
      "midi": 60,
      "hit": false,
      "t": 154458.97104166643,
      "d": 70.22458333332906,
      "v": 34
    },
    {
      "midi": 57,
      "hit": false,
      "t": 154473.0159583331,
      "d": 56.17966666666325,
      "v": 39
    },
    {
      "midi": 50,
      "hit": false,
      "t": 154824.13887500003,
      "d": 224.71866666671121,
      "v": 23
    },
    {
      "midi": 69,
      "hit": false,
      "t": 154866.27362499977,
      "d": 154.49408333332394,
      "v": 63
    },
    {
      "midi": 59,
      "hit": false,
      "t": 155034.81262500005,
      "d": 428.36995833335095,
      "v": 56
    },
    {
      "midi": 64,
      "hit": false,
      "t": 155041.8350833334,
      "d": 379.21275000000605,
      "v": 52
    },
    {
      "midi": 67,
      "hit": false,
      "t": 155041.8350833334,
      "d": 1011.234000000055,
      "v": 56
    },
    {
      "midi": 53,
      "hit": false,
      "t": 155048.85754166674,
      "d": 807.582708333357,
      "v": 49
    },
    {
      "midi": 64,
      "hit": false,
      "t": 155119.08212499975,
      "d": 182.58391666665557,
      "v": 31
    },
    {
      "midi": 67,
      "hit": false,
      "t": 155119.08212499975,
      "d": 428.36995833332185,
      "v": 64
    },
    {
      "midi": 59,
      "hit": false,
      "t": 155133.12704166642,
      "d": 224.718666666653,
      "v": 39
    },
    {
      "midi": 65,
      "hit": false,
      "t": 155575.5419166664,
      "d": 105.33687500000815,
      "v": 55
    },
    {
      "midi": 43,
      "hit": false,
      "t": 155680.87879166674,
      "d": 84.26950000002398,
      "v": 50
    },
    {
      "midi": 63,
      "hit": false,
      "t": 155708.96862500007,
      "d": 442.41487500004587,
      "v": 57
    },
    {
      "midi": 59,
      "hit": false,
      "t": 155730.03600000008,
      "d": 203.65129166669794,
      "v": 39
    },
    {
      "midi": 64,
      "hit": false,
      "t": 155758.1258333331,
      "d": 119.38179166667396,
      "v": 42
    },
    {
      "midi": 59,
      "hit": false,
      "t": 155779.1932083331,
      "d": 126.40424999999232,
      "v": 43
    },
    {
      "midi": 36,
      "hit": false,
      "t": 156340.98987500012,
      "d": 126.40425000005052,
      "v": 39
    },
    {
      "midi": 62,
      "hit": false,
      "t": 156348.01233333346,
      "d": 196.6288333333796,
      "v": 58
    },
    {
      "midi": 59,
      "hit": false,
      "t": 156369.07970833348,
      "d": 126.40425000002142,
      "v": 41
    },
    {
      "midi": 52,
      "hit": false,
      "t": 156390.1470833335,
      "d": 182.58391666668467,
      "v": 31
    },
    {
      "midi": 82,
      "hit": false,
      "t": 156818.5170416664,
      "d": 77.24704166670563,
      "v": 86
    },
    {
      "midi": 62,
      "hit": false,
      "t": 156832.56195833307,
      "d": 210.6737500000745,
      "v": 71
    },
    {
      "midi": 91,
      "hit": false,
      "t": 156839.58441666642,
      "d": 175.56145833339542,
      "v": 56
    },
    {
      "midi": 59,
      "hit": false,
      "t": 156839.58441666642,
      "d": 210.6737500000745,
      "v": 56
    },
    {
      "midi": 95,
      "hit": false,
      "t": 156846.60687499976,
      "d": 168.53900000004796,
      "v": 61
    },
    {
      "midi": 52,
      "hit": false,
      "t": 156853.6293333331,
      "d": 175.56145833336632,
      "v": 52
    },
    {
      "midi": 55,
      "hit": false,
      "t": 156853.6293333331,
      "d": 203.65129166672705,
      "v": 55
    },
    {
      "midi": 83,
      "hit": false,
      "t": 156916.83145833312,
      "d": 77.24704166667652,
      "v": 49
    },
    {
      "midi": 93,
      "hit": false,
      "t": 156937.89883333314,
      "d": 63.20212500001071,
      "v": 22
    },
    {
      "midi": 71,
      "hit": false,
      "t": 157043.23570833352,
      "d": 161.5165416667005,
      "v": 63
    },
    {
      "midi": 56,
      "hit": false,
      "t": 157050.25816666687,
      "d": 196.62883333335049,
      "v": 49
    },
    {
      "midi": 64,
      "hit": false,
      "t": 157050.25816666687,
      "d": 252.80850000001374,
      "v": 68
    },
    {
      "midi": 46,
      "hit": false,
      "t": 157050.25816666687,
      "d": 266.85341666667955,
      "v": 52
    },
    {
      "midi": 62,
      "hit": false,
      "t": 157057.28062500022,
      "d": 217.69620833333465,
      "v": 67
    },
    {
      "midi": 67,
      "hit": false,
      "t": 157064.30308333357,
      "d": 273.8758749999979,
      "v": 45
    },
    {
      "midi": 91,
      "hit": false,
      "t": 157148.57258333318,
      "d": 112.35933333341382,
      "v": 74
    },
    {
      "midi": 79,
      "hit": false,
      "t": 157162.61749999988,
      "d": 84.26950000002398,
      "v": 53
    },
    {
      "midi": 62,
      "hit": false,
      "t": 157162.61749999988,
      "d": 91.29195833337144,
      "v": 50
    },
    {
      "midi": 59,
      "hit": false,
      "t": 157169.63995833322,
      "d": 77.24704166667652,
      "v": 42
    },
    {
      "midi": 55,
      "hit": false,
      "t": 157169.63995833322,
      "d": 105.33687500003725,
      "v": 46
    },
    {
      "midi": 52,
      "hit": false,
      "t": 157197.72979166656,
      "d": 42.13474999999744,
      "v": 39
    },
    {
      "midi": 70,
      "hit": false,
      "t": 157717.39170833357,
      "d": 224.71866666671121,
      "v": 63
    },
    {
      "midi": 61,
      "hit": false,
      "t": 157724.41416666692,
      "d": 280.89833333337447,
      "v": 56
    },
    {
      "midi": 55,
      "hit": false,
      "t": 157731.43662500026,
      "d": 196.62883333335049,
      "v": 48
    },
    {
      "midi": 64,
      "hit": false,
      "t": 157738.4590833336,
      "d": 210.6737500000163,
      "v": 52
    },
    {
      "midi": 45,
      "hit": false,
      "t": 157738.4590833336,
      "d": 646.0661666666856,
      "v": 41
    },
    {
      "midi": 65,
      "hit": false,
      "t": 157766.5489166666,
      "d": 245.78604166666628,
      "v": 61
    },
    {
      "midi": 89,
      "hit": false,
      "t": 157766.5489166666,
      "d": 259.8309583333321,
      "v": 60
    },
    {
      "midi": 77,
      "hit": false,
      "t": 157766.5489166666,
      "d": 273.8758749999979,
      "v": 71
    },
    {
      "midi": 55,
      "hit": false,
      "t": 157766.5489166666,
      "d": 287.9207916666637,
      "v": 47
    },
    {
      "midi": 58,
      "hit": false,
      "t": 157766.5489166666,
      "d": 294.9432500000112,
      "v": 45
    },
    {
      "midi": 61,
      "hit": false,
      "t": 157766.5489166666,
      "d": 294.9432500000112,
      "v": 49
    },
    {
      "midi": 85,
      "hit": false,
      "t": 157766.5489166666,
      "d": 294.9432500000112,
      "v": 56
    },
    {
      "midi": 82,
      "hit": false,
      "t": 157766.5489166666,
      "d": 308.988166666677,
      "v": 60
    },
    {
      "midi": 67,
      "hit": false,
      "t": 157766.54891666694,
      "d": 140.44916666665813,
      "v": 39
    },
    {
      "midi": 49,
      "hit": false,
      "t": 158279.1883750003,
      "d": 126.40425000005052,
      "v": 32
    },
    {
      "midi": 58,
      "hit": false,
      "t": 158391.54770833364,
      "d": 294.9432500000985,
      "v": 63
    },
    {
      "midi": 69,
      "hit": false,
      "t": 158398.570166667,
      "d": 217.69620833339286,
      "v": 49
    },
    {
      "midi": 61,
      "hit": false,
      "t": 158398.570166667,
      "d": 323.0330833334301,
      "v": 57
    },
    {
      "midi": 52,
      "hit": false,
      "t": 158412.6150833337,
      "d": 709.2682916667545,
      "v": 54
    },
    {
      "midi": 64,
      "hit": false,
      "t": 158419.63754166703,
      "d": 231.74112500002957,
      "v": 55
    },
    {
      "midi": 76,
      "hit": false,
      "t": 158426.65999999995,
      "d": 189.60637500003213,
      "v": 60
    },
    {
      "midi": 64,
      "hit": false,
      "t": 158426.65999999995,
      "d": 245.78604166669538,
      "v": 46
    },
    {
      "midi": 82,
      "hit": false,
      "t": 158426.65999999995,
      "d": 252.80850000004284,
      "v": 59
    },
    {
      "midi": 61,
      "hit": false,
      "t": 158426.65999999995,
      "d": 301.96570833338774,
      "v": 45
    },
    {
      "midi": 88,
      "hit": false,
      "t": 158433.6824583333,
      "d": 238.76358333334792,
      "v": 52
    },
    {
      "midi": 85,
      "hit": false,
      "t": 158433.6824583333,
      "d": 252.80850000004284,
      "v": 48
    },
    {
      "midi": 55,
      "hit": false,
      "t": 158433.6824583333,
      "d": 266.85341666670865,
      "v": 42
    },
    {
      "midi": 58,
      "hit": false,
      "t": 158440.70491666664,
      "d": 273.875875000027,
      "v": 46
    },
    {
      "midi": 64,
      "hit": false,
      "t": 159093.79354166667,
      "d": 266.85341666670865,
      "v": 66
    },
    {
      "midi": 60,
      "hit": false,
      "t": 159093.79354166667,
      "d": 280.89833333337447,
      "v": 54
    },
    {
      "midi": 93,
      "hit": false,
      "t": 159107.83845833334,
      "d": 217.69620833336376,
      "v": 81
    },
    {
      "midi": 53,
      "hit": false,
      "t": 159107.83845833334,
      "d": 294.9432500000694,
      "v": 55
    },
    {
      "midi": 89,
      "hit": false,
      "t": 159114.8609166667,
      "d": 224.7186666666821,
      "v": 70
    },
    {
      "midi": 81,
      "hit": false,
      "t": 159114.8609166667,
      "d": 259.8309583333612,
      "v": 80
    },
    {
      "midi": 86,
      "hit": false,
      "t": 159121.88337500003,
      "d": 238.76358333334792,
      "v": 72
    },
    {
      "midi": 50,
      "hit": false,
      "t": 159121.88337500044,
      "d": 744.3805833333463,
      "v": 55
    },
    {
      "midi": 57,
      "hit": false,
      "t": 159128.90583333338,
      "d": 252.80850000001374,
      "v": 51
    },
    {
      "midi": 55,
      "hit": false,
      "t": 159760.92708333378,
      "d": 119.38179166667396,
      "v": 48
    },
    {
      "midi": 89,
      "hit": false,
      "t": 159774.97200000007,
      "d": 238.76358333337703,
      "v": 77
    },
    {
      "midi": 64,
      "hit": false,
      "t": 159774.97200000007,
      "d": 259.8309583333903,
      "v": 52
    },
    {
      "midi": 69,
      "hit": false,
      "t": 159774.97200000045,
      "d": 154.49408333335305,
      "v": 54
    },
    {
      "midi": 60,
      "hit": false,
      "t": 159774.97200000045,
      "d": 196.62883333335049,
      "v": 58
    },
    {
      "midi": 62,
      "hit": false,
      "t": 159774.97200000045,
      "d": 273.875875000027,
      "v": 55
    },
    {
      "midi": 60,
      "hit": false,
      "t": 159781.9944583334,
      "d": 252.80850000004284,
      "v": 43
    },
    {
      "midi": 77,
      "hit": false,
      "t": 159781.9944583334,
      "d": 273.8758750000561,
      "v": 68
    },
    {
      "midi": 84,
      "hit": false,
      "t": 159789.01691666676,
      "d": 238.76358333334792,
      "v": 65
    },
    {
      "midi": 53,
      "hit": false,
      "t": 159796.0393750001,
      "d": 217.69620833333465,
      "v": 42
    },
    {
      "midi": 57,
      "hit": false,
      "t": 159803.06183333346,
      "d": 224.718666666653,
      "v": 50
    },
    {
      "midi": 65,
      "hit": false,
      "t": 159803.06183333378,
      "d": 210.6737500000163,
      "v": 41
    },
    {
      "midi": 52,
      "hit": false,
      "t": 160385.92587500048,
      "d": 337.0780000000377,
      "v": 52
    },
    {
      "midi": 68,
      "hit": false,
      "t": 160399.97079166715,
      "d": 308.9881666667061,
      "v": 54
    },
    {
      "midi": 62,
      "hit": false,
      "t": 160406.9932500005,
      "d": 259.8309583333321,
      "v": 56
    },
    {
      "midi": 56,
      "hit": false,
      "t": 160406.9932500005,
      "d": 280.89833333334536,
      "v": 48
    },
    {
      "midi": 40,
      "hit": false,
      "t": 160421.03816666716,
      "d": 639.0437083333964,
      "v": 49
    },
    {
      "midi": 88,
      "hit": false,
      "t": 160463.1729166668,
      "d": 301.96570833338774,
      "v": 85
    },
    {
      "midi": 76,
      "hit": false,
      "t": 160463.1729166668,
      "d": 351.12291666676174,
      "v": 90
    },
    {
      "midi": 80,
      "hit": false,
      "t": 160470.19537500016,
      "d": 365.16783333342755,
      "v": 73
    },
    {
      "midi": 67,
      "hit": false,
      "t": 160477.2178333335,
      "d": 301.96570833338774,
      "v": 75
    },
    {
      "midi": 56,
      "hit": false,
      "t": 160477.2178333335,
      "d": 351.12291666673264,
      "v": 75
    },
    {
      "midi": 83,
      "hit": false,
      "t": 160477.2178333335,
      "d": 365.16783333342755,
      "v": 66
    },
    {
      "midi": 62,
      "hit": false,
      "t": 160484.24029166685,
      "d": 358.1453750000801,
      "v": 62
    },
    {
      "midi": 86,
      "hit": false,
      "t": 160912.6102500003,
      "d": 98.3144166666898,
      "v": 57
    },
    {
      "midi": 65,
      "hit": false,
      "t": 160912.6102500003,
      "d": 154.49408333338215,
      "v": 65
    },
    {
      "midi": 56,
      "hit": false,
      "t": 160912.6102500003,
      "d": 168.53900000004796,
      "v": 66
    },
    {
      "midi": 80,
      "hit": false,
      "t": 160912.6102500003,
      "d": 203.65129166672705,
      "v": 66
    },
    {
      "midi": 74,
      "hit": false,
      "t": 160926.65516666695,
      "d": 91.29195833337144,
      "v": 52
    },
    {
      "midi": 62,
      "hit": false,
      "t": 160933.6776250003,
      "d": 365.16783333339845,
      "v": 58
    },
    {
      "midi": 83,
      "hit": false,
      "t": 160940.70008333365,
      "d": 105.33687500000815,
      "v": 63
    },
    {
      "midi": 44,
      "hit": false,
      "t": 161003.90220833386,
      "d": 63.202125000039814,
      "v": 31
    },
    {
      "midi": 67,
      "hit": false,
      "t": 161067.1043333339,
      "d": 196.62883333332138,
      "v": 51
    },
    {
      "midi": 56,
      "hit": false,
      "t": 161067.1043333339,
      "d": 330.05554166666116,
      "v": 49
    },
    {
      "midi": 66,
      "hit": false,
      "t": 161081.14925000057,
      "d": 189.60637500000303,
      "v": 31
    },
    {
      "midi": 59,
      "hit": false,
      "t": 161081.14925000057,
      "d": 203.65129166666884,
      "v": 49
    },
    {
      "midi": 47,
      "hit": false,
      "t": 161081.14925000057,
      "d": 477.52716666666674,
      "v": 48
    },
    {
      "midi": 62,
      "hit": false,
      "t": 161095.19416666724,
      "d": 393.25766666667187,
      "v": 45
    },
    {
      "midi": 65,
      "hit": false,
      "t": 161179.46366666703,
      "d": 140.44916666668723,
      "v": 47
    },
    {
      "midi": 56,
      "hit": false,
      "t": 161179.46366666703,
      "d": 266.85341666670865,
      "v": 53
    },
    {
      "midi": 85,
      "hit": false,
      "t": 161179.46366666703,
      "d": 266.85341666670865,
      "v": 57
    },
    {
      "midi": 73,
      "hit": false,
      "t": 161179.46366666703,
      "d": 287.9207916667219,
      "v": 49
    },
    {
      "midi": 80,
      "hit": false,
      "t": 161179.46366666703,
      "d": 287.9207916667219,
      "v": 48
    },
    {
      "midi": 57,
      "hit": false,
      "t": 161565.6988750004,
      "d": 575.8415833334147,
      "v": 57
    },
    {
      "midi": 84,
      "hit": false,
      "t": 161572.72133333376,
      "d": 596.9089583333989,
      "v": 65
    },
    {
      "midi": 72,
      "hit": false,
      "t": 161572.72133333376,
      "d": 639.0437083333964,
      "v": 63
    },
    {
      "midi": 64,
      "hit": false,
      "t": 161579.7437916671,
      "d": 526.6843750000407,
      "v": 53
    },
    {
      "midi": 44,
      "hit": false,
      "t": 161579.74379166725,
      "d": 112.3593333333265,
      "v": 42
    },
    {
      "midi": 79,
      "hit": false,
      "t": 161586.76625000045,
      "d": 568.8191250000382,
      "v": 60
    },
    {
      "midi": 60,
      "hit": false,
      "t": 161621.87854166713,
      "d": 470.5047083333484,
      "v": 42
    },
    {
      "midi": 45,
      "hit": false,
      "t": 161734.23787500057,
      "d": 330.05554166671936,
      "v": 45
    },
    {
      "midi": 55,
      "hit": false,
      "t": 161741.26033333392,
      "d": 280.89833333337447,
      "v": 52
    },
    {
      "midi": 64,
      "hit": false,
      "t": 161762.32770833393,
      "d": 224.7186666666821,
      "v": 46
    },
    {
      "midi": 60,
      "hit": false,
      "t": 161762.32770833393,
      "d": 287.9207916666928,
      "v": 47
    },
    {
      "midi": 63,
      "hit": false,
      "t": 162436.48370833384,
      "d": 344.1004583334143,
      "v": 57
    },
    {
      "midi": 83,
      "hit": false,
      "t": 162443.50616666718,
      "d": 203.65129166672705,
      "v": 58
    },
    {
      "midi": 71,
      "hit": false,
      "t": 162450.52862500053,
      "d": 337.0780000000668,
      "v": 57
    },
    {
      "midi": 78,
      "hit": false,
      "t": 162450.52862500053,
      "d": 512.639458333404,
      "v": 61
    },
    {
      "midi": 54,
      "hit": false,
      "t": 162457.55108333388,
      "d": 449.4373333333933,
      "v": 45
    },
    {
      "midi": 58,
      "hit": false,
      "t": 162485.6409166672,
      "d": 301.96570833338774,
      "v": 36
    },
    {
      "midi": 59,
      "hit": false,
      "t": 162492.66337500056,
      "d": 147.4716250000056,
      "v": 40
    },
    {
      "midi": 32,
      "hit": false,
      "t": 162871.87612500062,
      "d": 196.6288333334378,
      "v": 57
    },
    {
      "midi": 44,
      "hit": false,
      "t": 162885.9210416673,
      "d": 147.4716250000929,
      "v": 45
    },
    {
      "midi": 54,
      "hit": false,
      "t": 162892.94350000063,
      "d": 112.35933333338471,
      "v": 57
    },
    {
      "midi": 63,
      "hit": false,
      "t": 162899.96595833398,
      "d": 126.40425000005052,
      "v": 50
    },
    {
      "midi": 59,
      "hit": false,
      "t": 162906.98841666733,
      "d": 63.20212500001071,
      "v": 46
    },
    {
      "midi": 82,
      "hit": false,
      "t": 163117.6621666673,
      "d": 308.9881666667643,
      "v": 55
    },
    {
      "midi": 58,
      "hit": false,
      "t": 163124.68462500063,
      "d": 280.89833333340357,
      "v": 41
    },
    {
      "midi": 70,
      "hit": false,
      "t": 163131.70708333398,
      "d": 273.8758750000561,
      "v": 43
    },
    {
      "midi": 62,
      "hit": false,
      "t": 163131.70708333398,
      "d": 280.89833333340357,
      "v": 35
    },
    {
      "midi": 57,
      "hit": false,
      "t": 163145.75200000065,
      "d": 175.56145833336632,
      "v": 38
    },
    {
      "midi": 77,
      "hit": false,
      "t": 163152.774458334,
      "d": 196.62883333335049,
      "v": 48
    },
    {
      "midi": 53,
      "hit": false,
      "t": 163152.774458334,
      "d": 231.74112500002957,
      "v": 31
    },
    {
      "midi": 62,
      "hit": false,
      "t": 163152.77445833405,
      "d": 133.42670833336888,
      "v": 49
    },
    {
      "midi": 43,
      "hit": false,
      "t": 163152.77445833405,
      "d": 189.60637500006123,
      "v": 39
    },
    {
      "midi": 53,
      "hit": false,
      "t": 163159.7969166674,
      "d": 77.24704166667652,
      "v": 42
    },
    {
      "midi": 58,
      "hit": false,
      "t": 163173.84183333407,
      "d": 133.42670833336888,
      "v": 49
    },
    {
      "midi": 81,
      "hit": false,
      "t": 163819.90800000072,
      "d": 112.35933333335561,
      "v": 38
    },
    {
      "midi": 64,
      "hit": false,
      "t": 163819.90800000072,
      "d": 161.5165416667005,
      "v": 39
    },
    {
      "midi": 73,
      "hit": false,
      "t": 163819.90800000072,
      "d": 210.6737500000454,
      "v": 40
    },
    {
      "midi": 69,
      "hit": false,
      "t": 163819.90800000072,
      "d": 224.71866666671121,
      "v": 34
    },
    {
      "midi": 61,
      "hit": false,
      "t": 163819.90800000072,
      "d": 287.9207916667219,
      "v": 40
    },
    {
      "midi": 58,
      "hit": false,
      "t": 163840.97537500074,
      "d": 308.9881666667061,
      "v": 39
    },
    {
      "midi": 76,
      "hit": false,
      "t": 163847.99783333408,
      "d": 126.40424999999232,
      "v": 46
    },
    {
      "midi": 54,
      "hit": false,
      "t": 164487.04154166745,
      "d": 905.8971250000468,
      "v": 34
    },
    {
      "midi": 64,
      "hit": false,
      "t": 164487.04154166745,
      "d": 154.49408333335305,
      "v": 45
    },
    {
      "midi": 30,
      "hit": false,
      "t": 164494.0640000008,
      "d": 35.112291666679084,
      "v": 50
    },
    {
      "midi": 57,
      "hit": false,
      "t": 164494.0640000008,
      "d": 77.24704166667652,
      "v": 51
    },
    {
      "midi": 64,
      "hit": false,
      "t": 164515.13137500078,
      "d": 337.0779999999795,
      "v": 52
    },
    {
      "midi": 72,
      "hit": false,
      "t": 164515.13137500078,
      "d": 414.32504166665603,
      "v": 54
    },
    {
      "midi": 60,
      "hit": false,
      "t": 164515.13137500078,
      "d": 442.41487499998766,
      "v": 38
    },
    {
      "midi": 69,
      "hit": false,
      "t": 164515.13137500078,
      "d": 463.48225000000093,
      "v": 56
    },
    {
      "midi": 76,
      "hit": false,
      "t": 164515.13137500078,
      "d": 547.7517499999958,
      "v": 55
    },
    {
      "midi": 57,
      "hit": false,
      "t": 164515.13137500078,
      "d": 1081.458583333384,
      "v": 50
    },
    {
      "midi": 64,
      "hit": false,
      "t": 164964.56870833415,
      "d": 112.35933333338471,
      "v": 68
    },
    {
      "midi": 72,
      "hit": false,
      "t": 164971.5911666675,
      "d": 154.49408333338215,
      "v": 61
    },
    {
      "midi": 54,
      "hit": false,
      "t": 164971.5911666675,
      "d": 175.56145833339542,
      "v": 54
    },
    {
      "midi": 60,
      "hit": false,
      "t": 164978.61362500084,
      "d": 182.58391666671378,
      "v": 59
    },
    {
      "midi": 69,
      "hit": false,
      "t": 164985.6360833342,
      "d": 147.4716250000347,
      "v": 57
    },
    {
      "midi": 72,
      "hit": false,
      "t": 165196.30983333412,
      "d": 512.639458333404,
      "v": 58
    },
    {
      "midi": 64,
      "hit": false,
      "t": 165203.33229166747,
      "d": 400.28012500004843,
      "v": 46
    },
    {
      "midi": 69,
      "hit": false,
      "t": 165210.3547500008,
      "d": 456.4597916667117,
      "v": 47
    },
    {
      "midi": 60,
      "hit": false,
      "t": 165217.37720833416,
      "d": 554.7742083333724,
      "v": 38
    },
    {
      "midi": 72,
      "hit": false,
      "t": 165252.4895000009,
      "d": 147.4716250000347,
      "v": 49
    },
    {
      "midi": 69,
      "hit": false,
      "t": 165266.53441666756,
      "d": 126.40425000002142,
      "v": 39
    },
    {
      "midi": 64,
      "hit": false,
      "t": 165273.5568750009,
      "d": 91.29195833334234,
      "v": 50
    },
    {
      "midi": 54,
      "hit": false,
      "t": 165294.62425000092,
      "d": 84.26949999999488,
      "v": 23
    },
    {
      "midi": 54,
      "hit": false,
      "t": 165645.7471666675,
      "d": 112.35933333335561,
      "v": 52
    },
    {
      "midi": 54,
      "hit": false,
      "t": 165645.7471666676,
      "d": 140.44916666671634,
      "v": 51
    },
    {
      "midi": 72,
      "hit": false,
      "t": 165652.76962500095,
      "d": 119.38179166670307,
      "v": 59
    },
    {
      "midi": 64,
      "hit": false,
      "t": 165659.7920833343,
      "d": 49.1572083333449,
      "v": 56
    },
    {
      "midi": 60,
      "hit": false,
      "t": 165687.88191666763,
      "d": 56.179666666692356,
      "v": 32
    },
    {
      "midi": 68,
      "hit": false,
      "t": 165877.48829166754,
      "d": 505.6170000000275,
      "v": 69
    },
    {
      "midi": 74,
      "hit": false,
      "t": 165877.48829166754,
      "d": 596.9089583333698,
      "v": 74
    },
    {
      "midi": 60,
      "hit": false,
      "t": 165884.5107500009,
      "d": 365.16783333334024,
      "v": 46
    },
    {
      "midi": 62,
      "hit": false,
      "t": 165884.5107500009,
      "d": 365.16783333334024,
      "v": 45
    },
    {
      "midi": 65,
      "hit": false,
      "t": 165884.5107500009,
      "d": 435.3924166666693,
      "v": 66
    },
    {
      "midi": 53,
      "hit": false,
      "t": 165884.5107500009,
      "d": 793.5377916667203,
      "v": 45
    },
    {
      "midi": 60,
      "hit": false,
      "t": 165905.578125001,
      "d": 182.58391666671378,
      "v": 42
    },
    {
      "midi": 56,
      "hit": false,
      "t": 165919.62304166757,
      "d": 386.2352083333244,
      "v": 50
    },
    {
      "midi": 72,
      "hit": false,
      "t": 165919.62304166766,
      "d": 147.4716250000347,
      "v": 51
    },
    {
      "midi": 63,
      "hit": false,
      "t": 165926.645500001,
      "d": 112.35933333335561,
      "v": 54
    },
    {
      "midi": 53,
      "hit": false,
      "t": 165933.66795833435,
      "d": 175.56145833336632,
      "v": 38
    },
    {
      "midi": 68,
      "hit": false,
      "t": 165940.6904166677,
      "d": 196.62883333335049,
      "v": 43
    },
    {
      "midi": 68,
      "hit": false,
      "t": 166523.55445833426,
      "d": 175.56145833336632,
      "v": 53
    },
    {
      "midi": 65,
      "hit": false,
      "t": 166537.59937500092,
      "d": 105.33687500000815,
      "v": 56
    },
    {
      "midi": 56,
      "hit": false,
      "t": 166537.59937500092,
      "d": 287.9207916667219,
      "v": 39
    },
    {
      "midi": 72,
      "hit": false,
      "t": 166537.59937500104,
      "d": 231.74112500002957,
      "v": 42
    },
    {
      "midi": 63,
      "hit": false,
      "t": 166537.59937500104,
      "d": 245.78604166669538,
      "v": 48
    },
    {
      "midi": 68,
      "hit": false,
      "t": 166537.59937500104,
      "d": 330.05554166669026,
      "v": 52
    },
    {
      "midi": 60,
      "hit": false,
      "t": 166544.6218333344,
      "d": 203.65129166666884,
      "v": 40
    },
    {
      "midi": 72,
      "hit": false,
      "t": 166551.6442916676,
      "d": 168.53900000004796,
      "v": 56
    },
    {
      "midi": 62,
      "hit": false,
      "t": 166551.6442916676,
      "d": 175.56145833339542,
      "v": 36
    },
    {
      "midi": 60,
      "hit": false,
      "t": 166558.66675000094,
      "d": 168.53900000004796,
      "v": 43
    },
    {
      "midi": 53,
      "hit": false,
      "t": 166558.66675000105,
      "d": 280.89833333334536,
      "v": 37
    },
    {
      "midi": 56,
      "hit": false,
      "t": 166958.94687500098,
      "d": 140.44916666665813,
      "v": 27
    },
    {
      "midi": 67,
      "hit": false,
      "t": 167190.68800000107,
      "d": 217.69620833333465,
      "v": 49
    },
    {
      "midi": 72,
      "hit": false,
      "t": 167190.68800000107,
      "d": 224.7186666666821,
      "v": 46
    },
    {
      "midi": 62,
      "hit": false,
      "t": 167197.71045833442,
      "d": 224.7186666666821,
      "v": 39
    },
    {
      "midi": 52,
      "hit": false,
      "t": 167211.75537500108,
      "d": 182.58391666665557,
      "v": 40
    },
    {
      "midi": 59,
      "hit": false,
      "t": 167211.75537500108,
      "d": 196.62883333332138,
      "v": 41
    },
    {
      "midi": 81,
      "hit": false,
      "t": 167218.77783333432,
      "d": 217.69620833336376,
      "v": 83
    },
    {
      "midi": 62,
      "hit": false,
      "t": 167218.77783333432,
      "d": 231.74112500002957,
      "v": 49
    },
    {
      "midi": 72,
      "hit": false,
      "t": 167225.80029166766,
      "d": 245.78604166669538,
      "v": 68
    },
    {
      "midi": 59,
      "hit": false,
      "t": 167225.80029166766,
      "d": 294.9432500000403,
      "v": 43
    },
    {
      "midi": 52,
      "hit": false,
      "t": 167232.822750001,
      "d": 941.0094166666968,
      "v": 49
    },
    {
      "midi": 59,
      "hit": false,
      "t": 167878.8889166677,
      "d": 147.4716250000056,
      "v": 41
    },
    {
      "midi": 72,
      "hit": false,
      "t": 167878.8889166677,
      "d": 259.8309583333321,
      "v": 56
    },
    {
      "midi": 59,
      "hit": false,
      "t": 167878.88891666775,
      "d": 547.751750000054,
      "v": 39
    },
    {
      "midi": 72,
      "hit": false,
      "t": 167878.88891666775,
      "d": 688.2009166667413,
      "v": 50
    },
    {
      "midi": 64,
      "hit": false,
      "t": 167885.91137500104,
      "d": 266.85341666665045,
      "v": 46
    },
    {
      "midi": 62,
      "hit": false,
      "t": 167885.9113750011,
      "d": 568.8191250000382,
      "v": 42
    },
    {
      "midi": 67,
      "hit": false,
      "t": 167892.93383333445,
      "d": 639.0437083333672,
      "v": 39
    },
    {
      "midi": 62,
      "hit": false,
      "t": 167899.9562916677,
      "d": 84.26949999999488,
      "v": 26
    },
    {
      "midi": 52,
      "hit": false,
      "t": 167899.9562916678,
      "d": 610.9538750000065,
      "v": 37
    },
    {
      "midi": 74,
      "hit": false,
      "t": 168546.02245833437,
      "d": 358.1453750000219,
      "v": 62
    },
    {
      "midi": 63,
      "hit": false,
      "t": 168553.0449166677,
      "d": 308.988166666677,
      "v": 51
    },
    {
      "midi": 66,
      "hit": false,
      "t": 168560.06737500106,
      "d": 301.96570833332953,
      "v": 49
    },
    {
      "midi": 62,
      "hit": false,
      "t": 168574.11229166773,
      "d": 421.3475000000035,
      "v": 45
    },
    {
      "midi": 72,
      "hit": false,
      "t": 168981.41487500118,
      "d": 372.1902916667168,
      "v": 54
    },
    {
      "midi": 51,
      "hit": false,
      "t": 168981.41487500118,
      "d": 428.36995833338005,
      "v": 49
    },
    {
      "midi": 60,
      "hit": false,
      "t": 168988.43733333453,
      "d": 323.0330833333428,
      "v": 42
    },
    {
      "midi": 66,
      "hit": false,
      "t": 168988.43733333453,
      "d": 428.36995833338005,
      "v": 55
    },
    {
      "midi": 63,
      "hit": false,
      "t": 168995.45979166788,
      "d": 351.1229166666744,
      "v": 48
    },
    {
      "midi": 63,
      "hit": false,
      "t": 169002.48225000108,
      "d": 63.20212500001071,
      "v": 51
    },
    {
      "midi": 66,
      "hit": false,
      "t": 169009.50470833443,
      "d": 56.17966666666325,
      "v": 45
    },
    {
      "midi": 72,
      "hit": false,
      "t": 169009.50470833443,
      "d": 182.58391666665557,
      "v": 54
    },
    {
      "midi": 60,
      "hit": false,
      "t": 169023.5496250011,
      "d": 42.13474999999744,
      "v": 48
    },
    {
      "midi": 72,
      "hit": false,
      "t": 169655.57087500126,
      "d": 210.6737500000745,
      "v": 63
    },
    {
      "midi": 60,
      "hit": false,
      "t": 169669.61579166792,
      "d": 133.42670833336888,
      "v": 52
    },
    {
      "midi": 50,
      "hit": false,
      "t": 169669.61579166792,
      "d": 238.76358333340613,
      "v": 58
    },
    {
      "midi": 58,
      "hit": false,
      "t": 169676.6382500011,
      "d": 63.20212500001071,
      "v": 38
    },
    {
      "midi": 65,
      "hit": false,
      "t": 169676.63825000127,
      "d": 182.58391666671378,
      "v": 66
    },
    {
      "midi": 62,
      "hit": false,
      "t": 169683.66070833462,
      "d": 154.49408333335305,
      "v": 62
    },
    {
      "midi": 69,
      "hit": false,
      "t": 169683.66070833462,
      "d": 161.5165416667005,
      "v": 50
    },
    {
      "midi": 59,
      "hit": false,
      "t": 169725.79545833444,
      "d": 105.33687500000815,
      "v": 57
    },
    {
      "midi": 84,
      "hit": false,
      "t": 169774.95266666778,
      "d": 351.1229166666744,
      "v": 55
    },
    {
      "midi": 72,
      "hit": false,
      "t": 169774.95266666778,
      "d": 449.4373333333642,
      "v": 45
    },
    {
      "midi": 81,
      "hit": false,
      "t": 169803.04250000112,
      "d": 294.9432500000112,
      "v": 50
    },
    {
      "midi": 77,
      "hit": false,
      "t": 169803.04250000112,
      "d": 358.1453750000219,
      "v": 52
    },
    {
      "midi": 60,
      "hit": false,
      "t": 169803.04250000112,
      "d": 737.3581250000279,
      "v": 45
    },
    {
      "midi": 69,
      "hit": false,
      "t": 170350.79425000132,
      "d": 568.8191250000382,
      "v": 50
    },
    {
      "midi": 62,
      "hit": false,
      "t": 170357.81670833466,
      "d": 519.6619166666933,
      "v": 56
    },
    {
      "midi": 50,
      "hit": false,
      "t": 170364.839166668,
      "d": 294.9432500000112,
      "v": 52
    },
    {
      "midi": 60,
      "hit": false,
      "t": 170364.839166668,
      "d": 407.3025833333377,
      "v": 54
    },
    {
      "midi": 57,
      "hit": false,
      "t": 170371.86162500136,
      "d": 231.74112500000047,
      "v": 48
    },
    {
      "midi": 65,
      "hit": false,
      "t": 170371.86162500136,
      "d": 456.4597916666535,
      "v": 41
    },
    {
      "midi": 81,
      "hit": false,
      "t": 170547.4230833345,
      "d": 168.53899999998976,
      "v": 50
    },
    {
      "midi": 72,
      "hit": false,
      "t": 170547.4230833345,
      "d": 175.5614583333372,
      "v": 43
    },
    {
      "midi": 57,
      "hit": false,
      "t": 170547.4230833345,
      "d": 224.7186666666821,
      "v": 45
    },
    {
      "midi": 77,
      "hit": false,
      "t": 170561.46800000116,
      "d": 182.58391666668467,
      "v": 56
    },
    {
      "midi": 67,
      "hit": false,
      "t": 171207.53416666784,
      "d": 575.8415833333274,
      "v": 31
    },
    {
      "midi": 55,
      "hit": false,
      "t": 171207.53416666784,
      "d": 730.3356666666514,
      "v": 33
    },
    {
      "midi": 74,
      "hit": false,
      "t": 171207.53416666784,
      "d": 955.0543333333044,
      "v": 48
    },
    {
      "midi": 79,
      "hit": false,
      "t": 171207.53416666784,
      "d": 1074.4361249999783,
      "v": 45
    },
    {
      "midi": 43,
      "hit": false,
      "t": 171242.6464583347,
      "d": 98.3144166666898,
      "v": 46
    },
    {
      "midi": 53,
      "hit": false,
      "t": 171256.69137500136,
      "d": 77.24704166667652,
      "v": 36
    },
    {
      "midi": 59,
      "hit": false,
      "t": 171256.69137500136,
      "d": 351.1229166666744,
      "v": 41
    },
    {
      "midi": 62,
      "hit": false,
      "t": 171256.69137500136,
      "d": 477.52716666666674,
      "v": 46
    },
    {
      "midi": 67,
      "hit": false,
      "t": 171256.69137500136,
      "d": 751.4030416666938,
      "v": 48
    },
    {
      "midi": 64,
      "hit": false,
      "t": 171284.7812083347,
      "d": 582.8640416666749,
      "v": 41
    },
    {
      "midi": 55,
      "hit": false,
      "t": 171895.7350833347,
      "d": 224.7186666666821,
      "v": 57
    },
    {
      "midi": 47,
      "hit": false,
      "t": 172359.2173333347,
      "d": 133.42670833333977,
      "v": 52
    },
    {
      "midi": 76,
      "hit": false,
      "t": 172366.23979166782,
      "d": 84.26949999999488,
      "v": 54
    },
    {
      "midi": 40,
      "hit": false,
      "t": 172562.86862500137,
      "d": 49.1572083333449,
      "v": 64
    },
    {
      "midi": 62,
      "hit": false,
      "t": 172605.00337500116,
      "d": 344.1004583333561,
      "v": 27
    },
    {
      "midi": 59,
      "hit": false,
      "t": 172612.0258333345,
      "d": 323.0330833333428,
      "v": 39
    },
    {
      "midi": 55,
      "hit": false,
      "t": 172612.0258333345,
      "d": 962.07679166671,
      "v": 38
    },
    {
      "midi": 83,
      "hit": false,
      "t": 172612.0258333345,
      "d": 1095.5035000000498,
      "v": 111
    },
    {
      "midi": 52,
      "hit": false,
      "t": 172626.07075000118,
      "d": 891.8522083333519,
      "v": 31
    },
    {
      "midi": 71,
      "hit": false,
      "t": 173005.2835000014,
      "d": 470.5047083333775,
      "v": 78
    },
    {
      "midi": 64,
      "hit": false,
      "t": 173005.2835000014,
      "d": 540.7292916667066,
      "v": 75
    },
    {
      "midi": 59,
      "hit": false,
      "t": 173019.32841666805,
      "d": 273.875875000027,
      "v": 63
    },
    {
      "midi": 52,
      "hit": false,
      "t": 173019.32841666805,
      "d": 358.145375000051,
      "v": 56
    },
    {
      "midi": 62,
      "hit": false,
      "t": 173019.32841666805,
      "d": 484.5496250000433,
      "v": 74
    },
    {
      "midi": 55,
      "hit": false,
      "t": 173026.3508750014,
      "d": 301.96570833335863,
      "v": 63
    },
    {
      "midi": 67,
      "hit": false,
      "t": 173033.37333333475,
      "d": 456.4597916666826,
      "v": 44
    },
    {
      "midi": 62,
      "hit": false,
      "t": 173314.27166666786,
      "d": 400.28012500004843,
      "v": 36
    },
    {
      "midi": 59,
      "hit": false,
      "t": 173328.31658333453,
      "d": 224.7186666666821,
      "v": 37
    },
    {
      "midi": 71,
      "hit": false,
      "t": 173735.61916666792,
      "d": 301.96570833335863,
      "v": 77
    },
    {
      "midi": 45,
      "hit": false,
      "t": 173883.0907916681,
      "d": 519.6619166667224,
      "v": 50
    },
    {
      "midi": 61,
      "hit": false,
      "t": 174016.51750000127,
      "d": 372.1902916667168,
      "v": 42
    },
    {
      "midi": 65,
      "hit": false,
      "t": 174030.56241666793,
      "d": 337.0780000000377,
      "v": 35
    },
    {
      "midi": 55,
      "hit": false,
      "t": 174044.60733333463,
      "d": 379.21275000003516,
      "v": 31
    },
    {
      "midi": 70,
      "hit": false,
      "t": 174058.6522500013,
      "d": 1537.9183750000957,
      "v": 60
    },
    {
      "midi": 66,
      "hit": false,
      "t": 174339.55058333479,
      "d": 653.0886250000331,
      "v": 50
    },
    {
      "midi": 58,
      "hit": false,
      "t": 174339.55058333479,
      "d": 681.1784583333647,
      "v": 55
    },
    {
      "midi": 61,
      "hit": false,
      "t": 174353.59550000148,
      "d": 716.2907500000147,
      "v": 56
    },
    {
      "midi": 51,
      "hit": false,
      "t": 174353.59550000148,
      "d": 793.5377916666912,
      "v": 48
    },
    {
      "midi": 61,
      "hit": false,
      "t": 174515.112041668,
      "d": 526.6843750000116,
      "v": 42
    },
    {
      "midi": 65,
      "hit": false,
      "t": 174522.13450000135,
      "d": 133.42670833333977,
      "v": 42
    },
    {
      "midi": 55,
      "hit": false,
      "t": 174522.13450000135,
      "d": 351.1229166666744,
      "v": 34
    },
    {
      "midi": 49,
      "hit": false,
      "t": 175062.86379166815,
      "d": 140.44916666668723,
      "v": 37
    },
    {
      "midi": 60,
      "hit": false,
      "t": 175245.4477083347,
      "d": 449.4373333333933,
      "v": 36
    },
    {
      "midi": 57,
      "hit": false,
      "t": 175245.44770833483,
      "d": 280.89833333337447,
      "v": 46
    },
    {
      "midi": 64,
      "hit": false,
      "t": 175252.47016666803,
      "d": 421.3475000000326,
      "v": 26
    },
    {
      "midi": 53,
      "hit": false,
      "t": 175259.49262500138,
      "d": 849.7174583333544,
      "v": 25
    },
    {
      "midi": 57,
      "hit": false,
      "t": 175266.51508333473,
      "d": 912.9195833333652,
      "v": 36
    },
    {
      "midi": 60,
      "hit": false,
      "t": 175266.51508333485,
      "d": 182.58391666668467,
      "v": 43
    },
    {
      "midi": 50,
      "hit": false,
      "t": 175266.51508333485,
      "d": 603.9314166666882,
      "v": 44
    },
    {
      "midi": 65,
      "hit": false,
      "t": 175287.58245833486,
      "d": 147.4716250000056,
      "v": 28
    },
    {
      "midi": 69,
      "hit": false,
      "t": 175722.9748750014,
      "d": 224.718666666653,
      "v": 78
    },
    {
      "midi": 60,
      "hit": false,
      "t": 175877.46895833474,
      "d": 203.65129166666884,
      "v": 36
    },
    {
      "midi": 64,
      "hit": false,
      "t": 175891.5138750014,
      "d": 91.29195833334234,
      "v": 23
    },
    {
      "midi": 53,
      "hit": false,
      "t": 175954.71600000153,
      "d": 182.58391666668467,
      "v": 28
    },
    {
      "midi": 60,
      "hit": false,
      "t": 175954.71600000153,
      "d": 224.71866666671121,
      "v": 42
    },
    {
      "midi": 68,
      "hit": false,
      "t": 175961.73845833473,
      "d": 154.49408333335305,
      "v": 52
    },
    {
      "midi": 45,
      "hit": false,
      "t": 175961.73845833488,
      "d": 182.58391666668467,
      "v": 31
    },
    {
      "midi": 57,
      "hit": false,
      "t": 175968.76091666822,
      "d": 210.6737500000163,
      "v": 36
    },
    {
      "midi": 69,
      "hit": false,
      "t": 176193.47958333476,
      "d": 112.3593333333265,
      "v": 57
    },
    {
      "midi": 73,
      "hit": false,
      "t": 176390.10841666808,
      "d": 35.112291666679084,
      "v": 63
    },
    {
      "midi": 72,
      "hit": false,
      "t": 176411.1757916681,
      "d": 154.49408333332394,
      "v": 82
    },
    {
      "midi": 56,
      "hit": false,
      "t": 176607.80462500156,
      "d": 196.62883333335049,
      "v": 45
    },
    {
      "midi": 53,
      "hit": false,
      "t": 176614.8270833349,
      "d": 105.33687500000815,
      "v": 38
    },
    {
      "midi": 43,
      "hit": false,
      "t": 176614.8270833349,
      "d": 330.05554166669026,
      "v": 32
    },
    {
      "midi": 64,
      "hit": false,
      "t": 176628.87200000143,
      "d": 316.01062499999534,
      "v": 39
    },
    {
      "midi": 59,
      "hit": false,
      "t": 176628.87200000143,
      "d": 379.21275000000605,
      "v": 51
    },
    {
      "midi": 76,
      "hit": false,
      "t": 176635.89445833478,
      "d": 196.62883333332138,
      "v": 88
    },
    {
      "midi": 59,
      "hit": false,
      "t": 176635.89445833492,
      "d": 217.69620833333465,
      "v": 43
    },
    {
      "midi": 53,
      "hit": false,
      "t": 176649.93937500144,
      "d": 330.05554166666116,
      "v": 40
    },
    {
      "midi": 79,
      "hit": false,
      "t": 176874.6580416681,
      "d": 154.49408333335305,
      "v": 85
    },
    {
      "midi": 77,
      "hit": false,
      "t": 177099.37670833478,
      "d": 133.42670833333977,
      "v": 86
    },
    {
      "midi": 59,
      "hit": false,
      "t": 177281.96062500146,
      "d": 407.3025833333668,
      "v": 44
    },
    {
      "midi": 64,
      "hit": false,
      "t": 177288.9830833348,
      "d": 330.05554166666116,
      "v": 35
    },
    {
      "midi": 53,
      "hit": false,
      "t": 177288.9830833348,
      "d": 414.32504166668514,
      "v": 36
    },
    {
      "midi": 41,
      "hit": false,
      "t": 177310.05045833494,
      "d": 393.25766666667187,
      "v": 72
    },
    {
      "midi": 75,
      "hit": false,
      "t": 177317.07291666814,
      "d": 119.38179166667396,
      "v": 56
    },
    {
      "midi": 76,
      "hit": false,
      "t": 177401.34241666814,
      "d": 266.85341666667955,
      "v": 73
    },
    {
      "midi": 74,
      "hit": false,
      "t": 177752.46533333484,
      "d": 266.85341666667955,
      "v": 85
    },
    {
      "midi": 40,
      "hit": false,
      "t": 177794.60008333495,
      "d": 702.2458333333489,
      "v": 67
    },
    {
      "midi": 62,
      "hit": false,
      "t": 177921.00433333483,
      "d": 217.69620833336376,
      "v": 34
    },
    {
      "midi": 59,
      "hit": false,
      "t": 177928.02679166818,
      "d": 294.9432500000112,
      "v": 37
    },
    {
      "midi": 55,
      "hit": false,
      "t": 177949.0941666682,
      "d": 301.96570833332953,
      "v": 41
    },
    {
      "midi": 52,
      "hit": false,
      "t": 177963.13908333486,
      "d": 477.52716666666674,
      "v": 39
    },
    {
      "midi": 71,
      "hit": false,
      "t": 178131.67808333485,
      "d": 140.44916666668723,
      "v": 75
    },
    {
      "midi": 67,
      "hit": false,
      "t": 178328.3069166682,
      "d": 98.31441666666069,
      "v": 60
    },
    {
      "midi": 28,
      "hit": false,
      "t": 178426.62133333494,
      "d": 77.24704166670563,
      "v": 81
    },
    {
      "midi": 62,
      "hit": false,
      "t": 178440.6662500016,
      "d": 56.179666666692356,
      "v": 81
    },
    {
      "midi": 71,
      "hit": false,
      "t": 178440.6662500016,
      "d": 84.26950000005309,
      "v": 76
    },
    {
      "midi": 67,
      "hit": false,
      "t": 178447.68870833496,
      "d": 91.29195833337144,
      "v": 65
    },
    {
      "midi": 62,
      "hit": false,
      "t": 178524.93575000152,
      "d": 154.49408333335305,
      "v": 66
    },
    {
      "midi": 52,
      "hit": false,
      "t": 178623.25016666818,
      "d": 140.44916666671634,
      "v": 30
    },
    {
      "midi": 55,
      "hit": false,
      "t": 178630.27262500153,
      "d": 63.20212500001071,
      "v": 45
    },
    {
      "midi": 59,
      "hit": false,
      "t": 178756.67687500155,
      "d": 351.1229166666744,
      "v": 63
    },
    {
      "midi": 70,
      "hit": false,
      "t": 179100.777333335,
      "d": 133.42670833336888,
      "v": 85
    },
    {
      "midi": 61,
      "hit": false,
      "t": 179107.79979166834,
      "d": 70.22458333335817,
      "v": 87
    },
    {
      "midi": 66,
      "hit": false,
      "t": 179107.79979166834,
      "d": 126.40425000002142,
      "v": 78
    },
    {
      "midi": 55,
      "hit": false,
      "t": 179114.8222500017,
      "d": 119.38179166667396,
      "v": 75
    },
    {
      "midi": 45,
      "hit": false,
      "t": 179121.84470833503,
      "d": 112.3593333333265,
      "v": 69
    },
    {
      "midi": 60,
      "hit": false,
      "t": 179135.88962500155,
      "d": 175.5614583333372,
      "v": 79
    },
    {
      "midi": 55,
      "hit": false,
      "t": 179367.63075000155,
      "d": 294.9432500000112,
      "v": 36
    },
    {
      "midi": 45,
      "hit": false,
      "t": 179367.63075000155,
      "d": 772.470416666707,
      "v": 36
    },
    {
      "midi": 61,
      "hit": false,
      "t": 179395.72058333489,
      "d": 358.1453750000219,
      "v": 74
    },
    {
      "midi": 55,
      "hit": false,
      "t": 179760.88841666837,
      "d": 266.85341666667955,
      "v": 70
    },
    {
      "midi": 61,
      "hit": false,
      "t": 179767.91087500172,
      "d": 646.0661666666565,
      "v": 82
    },
    {
      "midi": 70,
      "hit": false,
      "t": 179767.91087500172,
      "d": 835.6725416666595,
      "v": 76
    },
    {
      "midi": 66,
      "hit": false,
      "t": 179774.93333333507,
      "d": 835.6725416666595,
      "v": 63
    },
    {
      "midi": 45,
      "hit": false,
      "t": 179788.97825000173,
      "d": 351.1229166666453,
      "v": 49
    },
    {
      "midi": 63,
      "hit": false,
      "t": 179796.0007083349,
      "d": 161.5165416666714,
      "v": 64
    },
    {
      "midi": 61,
      "hit": false,
      "t": 179838.1354583349,
      "d": 91.29195833334234,
      "v": 26
    },
    {
      "midi": 64,
      "hit": false,
      "t": 180020.7193750016,
      "d": 119.38179166667396,
      "v": 50
    },
    {
      "midi": 65,
      "hit": false,
      "t": 180245.43804166827,
      "d": 42.13474999999744,
      "v": 48
    },
    {
      "midi": 39,
      "hit": false,
      "t": 180449.08933333494,
      "d": 56.17966666666325,
      "v": 41
    },
    {
      "midi": 77,
      "hit": false,
      "t": 180701.89783333492,
      "d": 316.01062499999534,
      "v": 84
    },
    {
      "midi": 38,
      "hit": false,
      "t": 180701.89783333492,
      "d": 407.3025833333377,
      "v": 66
    },
    {
      "midi": 65,
      "hit": false,
      "t": 180708.92029166827,
      "d": 323.0330833333137,
      "v": 73
    },
    {
      "midi": 72,
      "hit": false,
      "t": 180708.92029166827,
      "d": 330.05554166666116,
      "v": 77
    },
    {
      "midi": 38,
      "hit": false,
      "t": 180708.92029166842,
      "d": 203.65129166666884,
      "v": 66
    },
    {
      "midi": 60,
      "hit": false,
      "t": 180715.94275000176,
      "d": 140.44916666665813,
      "v": 64
    },
    {
      "midi": 26,
      "hit": false,
      "t": 180722.96520833494,
      "d": 308.9881666666479,
      "v": 57
    },
    {
      "midi": 65,
      "hit": false,
      "t": 180729.98766666843,
      "d": 126.40424999999232,
      "v": 56
    },
    {
      "midi": 69,
      "hit": false,
      "t": 180729.98766666843,
      "d": 154.49408333332394,
      "v": 60
    },
    {
      "midi": 40,
      "hit": false,
      "t": 181151.3351666684,
      "d": 196.62883333332138,
      "v": 48
    },
    {
      "midi": 41,
      "hit": false,
      "t": 181404.1436666684,
      "d": 266.85341666667955,
      "v": 47
    },
    {
      "midi": 76,
      "hit": false,
      "t": 181418.1885833349,
      "d": 182.58391666671378,
      "v": 60
    },
    {
      "midi": 28,
      "hit": false,
      "t": 181425.21104166826,
      "d": 182.58391666671378,
      "v": 39
    },
    {
      "midi": 40,
      "hit": false,
      "t": 181425.21104166826,
      "d": 287.9207916667219,
      "v": 48
    },
    {
      "midi": 64,
      "hit": false,
      "t": 181425.21104166826,
      "d": 294.9432500000694,
      "v": 52
    },
    {
      "midi": 71,
      "hit": false,
      "t": 181432.2335000016,
      "d": 175.56145833336632,
      "v": 54
    },
    {
      "midi": 73,
      "hit": false,
      "t": 181460.32333333493,
      "d": 56.17966666666325,
      "v": 39
    },
    {
      "midi": 42,
      "hit": false,
      "t": 181797.40133333506,
      "d": 196.62883333332138,
      "v": 41
    },
    {
      "midi": 41,
      "hit": false,
      "t": 181846.55854166835,
      "d": 49.1572083333449,
      "v": 49
    },
    {
      "midi": 29,
      "hit": false,
      "t": 181867.62591666836,
      "d": 49.1572083333449,
      "v": 33
    },
    {
      "midi": 53,
      "hit": false,
      "t": 182050.20983333504,
      "d": 112.3593333333265,
      "v": 41
    },
    {
      "midi": 60,
      "hit": false,
      "t": 182050.20983333504,
      "d": 168.53899999998976,
      "v": 40
    },
    {
      "midi": 43,
      "hit": false,
      "t": 182050.20983333504,
      "d": 273.8758749999979,
      "v": 46
    },
    {
      "midi": 57,
      "hit": false,
      "t": 182064.2547500017,
      "d": 140.44916666665813,
      "v": 36
    },
    {
      "midi": 43,
      "hit": false,
      "t": 182078.29966666838,
      "d": 414.32504166668514,
      "v": 58
    },
    {
      "midi": 72,
      "hit": false,
      "t": 182092.34458333504,
      "d": 189.60637500003213,
      "v": 57
    },
    {
      "midi": 60,
      "hit": false,
      "t": 182092.34458333504,
      "d": 231.74112500002957,
      "v": 66
    },
    {
      "midi": 69,
      "hit": false,
      "t": 182106.3895000017,
      "d": 140.44916666668723,
      "v": 60
    },
    {
      "midi": 31,
      "hit": false,
      "t": 182120.43441666837,
      "d": 49.1572083333449,
      "v": 41
    },
    {
      "midi": 31,
      "hit": false,
      "t": 182450.48995833503,
      "d": 56.17966666666325,
      "v": 37
    },
    {
      "midi": 31,
      "hit": false,
      "t": 182534.75945833506,
      "d": 49.1572083333449,
      "v": 41
    },
    {
      "midi": 56,
      "hit": false,
      "t": 182675.2086250017,
      "d": 231.74112500005867,
      "v": 50
    },
    {
      "midi": 35,
      "hit": false,
      "t": 182703.29845833502,
      "d": 351.12291666673264,
      "v": 41
    },
    {
      "midi": 63,
      "hit": false,
      "t": 182710.32091666837,
      "d": 259.8309583333903,
      "v": 37
    },
    {
      "midi": 53,
      "hit": false,
      "t": 182717.3433750017,
      "d": 70.22458333335817,
      "v": 29
    },
    {
      "midi": 68,
      "hit": false,
      "t": 182766.50058333506,
      "d": 231.74112500000047,
      "v": 45
    },
    {
      "midi": 59,
      "hit": false,
      "t": 182787.56795833507,
      "d": 196.62883333332138,
      "v": 36
    },
    {
      "midi": 63,
      "hit": false,
      "t": 182787.56795833507,
      "d": 266.85341666665045,
      "v": 45
    },
    {
      "midi": 36,
      "hit": false,
      "t": 183089.53366666843,
      "d": 681.1784583333647,
      "v": 45
    },
    {
      "midi": 55,
      "hit": false,
      "t": 183103.5785833351,
      "d": 56.179666666692356,
      "v": 38
    },
    {
      "midi": 60,
      "hit": false,
      "t": 183117.62350000176,
      "d": 112.35933333335561,
      "v": 39
    },
    {
      "midi": 57,
      "hit": false,
      "t": 183124.6459583351,
      "d": 77.24704166667652,
      "v": 33
    },
    {
      "midi": 67,
      "hit": false,
      "t": 183159.75825000173,
      "d": 273.8758750000561,
      "v": 49
    },
    {
      "midi": 57,
      "hit": false,
      "t": 183166.78070833508,
      "d": 168.53900000001886,
      "v": 45
    },
    {
      "midi": 62,
      "hit": false,
      "t": 183173.80316666843,
      "d": 210.6737500000163,
      "v": 48
    },
    {
      "midi": 48,
      "hit": false,
      "t": 183194.87054166844,
      "d": 203.65129166666884,
      "v": 35
    },
    {
      "midi": 30,
      "hit": false,
      "t": 183812.8468750018,
      "d": 231.74112500000047,
      "v": 56
    },
    {
      "midi": 31,
      "hit": false,
      "t": 184100.76766666846,
      "d": 365.16783333334024,
      "v": 37
    },
    {
      "midi": 96,
      "hit": false,
      "t": 184465.9355000018,
      "d": 926.9645000000019,
      "v": 62
    },
    {
      "midi": 24,
      "hit": false,
      "t": 184479.98041666846,
      "d": 891.8522083333228,
      "v": 49
    },
    {
      "midi": 108,
      "hit": false,
      "t": 185442.0572083351,
      "d": 1980.3332500000251,
      "v": 54
    },
    {
      "midi": 24,
      "hit": false,
      "t": 185449.07966666846,
      "d": 2120.7824166666833,
      "v": 42
    },
    {
      "midi": 36,
      "hit": false,
      "t": 185463.12458333513,
      "d": 2162.9171666666807,
      "v": 35
    }
  ]
}