{
  "jsonPath": "Electronic/Disco/Santa Esmeralda/black-magic-woman-re-recording.json",
  "path": "Electronic\\Disco\\Santa Esmeralda\\Black Magic Woman - Re-Recording.mid",
  "name": "Black Magic Woman - Re-Recording",
  "difficulty": "Advanced",
  "bpm": 118.0001337334849,
  "notes": [
    {
      "midi": 62,
      "hit": false,
      "t": 43795.6,
      "d": 1281.9337083333303,
      "v": 90
    },
    {
      "midi": 72,
      "hit": false,
      "t": 43795.6,
      "d": 1373.17454166666,
      "v": 90
    },
    {
      "midi": 69,
      "hit": false,
      "t": 43795.6,
      "d": 1400.5467916666603,
      "v": 90
    },
    {
      "midi": 65,
      "hit": false,
      "t": 43795.6,
      "d": 1418.7949583333248,
      "v": 90
    },
    {
      "midi": 62,
      "hit": false,
      "t": 45109.46799999999,
      "d": 86.67879166666535,
      "v": 90
    },
    {
      "midi": 62,
      "hit": false,
      "t": 45328.44599999999,
      "d": 1687.955416666664,
      "v": 90
    },
    {
      "midi": 65,
      "hit": false,
      "t": 45328.44599999999,
      "d": 1687.955416666664,
      "v": 90
    },
    {
      "midi": 72,
      "hit": false,
      "t": 45328.44599999999,
      "d": 1724.4517500000002,
      "v": 90
    },
    {
      "midi": 69,
      "hit": false,
      "t": 45328.44599999999,
      "d": 1738.1378750000003,
      "v": 90
    },
    {
      "midi": 72,
      "hit": false,
      "t": 47299.24799999999,
      "d": 1341.2402500000026,
      "v": 90
    },
    {
      "midi": 67,
      "hit": false,
      "t": 47299.24799999999,
      "d": 1350.3643333333384,
      "v": 90
    },
    {
      "midi": 69,
      "hit": false,
      "t": 47299.24799999999,
      "d": 1354.9263750000027,
      "v": 90
    },
    {
      "midi": 64,
      "hit": false,
      "t": 47299.24799999999,
      "d": 1364.0504583333386,
      "v": 90
    },
    {
      "midi": 67,
      "hit": false,
      "t": 48832.094,
      "d": 1779.1962500000009,
      "v": 90
    },
    {
      "midi": 72,
      "hit": false,
      "t": 48832.094,
      "d": 1779.1962500000009,
      "v": 90
    },
    {
      "midi": 64,
      "hit": false,
      "t": 48832.094,
      "d": 1802.006458333337,
      "v": 90
    },
    {
      "midi": 69,
      "hit": false,
      "t": 48832.094,
      "d": 1802.006458333337,
      "v": 90
    },
    {
      "midi": 72,
      "hit": false,
      "t": 50802.896,
      "d": 1322.992083333338,
      "v": 90
    },
    {
      "midi": 65,
      "hit": false,
      "t": 50802.896,
      "d": 1336.6782083333383,
      "v": 90
    },
    {
      "midi": 69,
      "hit": false,
      "t": 50802.896,
      "d": 1341.2402500000026,
      "v": 90
    },
    {
      "midi": 62,
      "hit": false,
      "t": 50802.896,
      "d": 1359.488416666667,
      "v": 90
    },
    {
      "midi": 69,
      "hit": false,
      "t": 52335.742,
      "d": 1624.0868333333347,
      "v": 90
    },
    {
      "midi": 72,
      "hit": false,
      "t": 52335.742,
      "d": 1637.7729583333348,
      "v": 90
    },
    {
      "midi": 65,
      "hit": false,
      "t": 52335.742,
      "d": 1660.5831666666709,
      "v": 90
    },
    {
      "midi": 62,
      "hit": false,
      "t": 52335.742,
      "d": 1674.269291666671,
      "v": 90
    },
    {
      "midi": 70,
      "hit": false,
      "t": 54306.544,
      "d": 1322.9920833333308,
      "v": 90
    },
    {
      "midi": 62,
      "hit": false,
      "t": 54306.544,
      "d": 1336.678208333331,
      "v": 90
    },
    {
      "midi": 65,
      "hit": false,
      "t": 54306.544,
      "d": 1336.678208333331,
      "v": 90
    },
    {
      "midi": 67,
      "hit": false,
      "t": 54306.544,
      "d": 1345.8022916666669,
      "v": 90
    },
    {
      "midi": 65,
      "hit": false,
      "t": 55839.39000000001,
      "d": 1619.524791666663,
      "v": 90
    },
    {
      "midi": 70,
      "hit": false,
      "t": 55839.39000000001,
      "d": 1619.524791666663,
      "v": 90
    },
    {
      "midi": 62,
      "hit": false,
      "t": 55839.39000000001,
      "d": 1624.0868333333274,
      "v": 90
    },
    {
      "midi": 67,
      "hit": false,
      "t": 55839.39000000001,
      "d": 1624.0868333333274,
      "v": 90
    },
    {
      "midi": 65,
      "hit": false,
      "t": 57810.192,
      "d": 1286.4957499999946,
      "v": 90
    },
    {
      "midi": 72,
      "hit": false,
      "t": 57810.192,
      "d": 1295.6198333333305,
      "v": 90
    },
    {
      "midi": 62,
      "hit": false,
      "t": 57810.192,
      "d": 1300.1818749999948,
      "v": 90
    },
    {
      "midi": 69,
      "hit": false,
      "t": 57810.192,
      "d": 1309.3059583333306,
      "v": 90
    },
    {
      "midi": 67,
      "hit": false,
      "t": 59343.038,
      "d": 1683.3933749999997,
      "v": 90
    },
    {
      "midi": 72,
      "hit": false,
      "t": 59343.038,
      "d": 1697.0794999999998,
      "v": 90
    },
    {
      "midi": 64,
      "hit": false,
      "t": 59343.038,
      "d": 1706.2035833333357,
      "v": 90
    },
    {
      "midi": 69,
      "hit": false,
      "t": 59343.038,
      "d": 1715.3276666666716,
      "v": 90
    },
    {
      "midi": 65,
      "hit": false,
      "t": 61313.840000000004,
      "d": 360.40129166666884,
      "v": 90
    },
    {
      "midi": 72,
      "hit": false,
      "t": 61313.840000000004,
      "d": 364.96333333333314,
      "v": 90
    },
    {
      "midi": 62,
      "hit": false,
      "t": 61313.840000000004,
      "d": 369.52537499999744,
      "v": 90
    },
    {
      "midi": 69,
      "hit": false,
      "t": 61313.840000000004,
      "d": 374.08741666666174,
      "v": 90
    },
    {
      "midi": 48,
      "hit": false,
      "t": 61970.774,
      "d": 187.04370833333087,
      "v": 90
    },
    {
      "midi": 50,
      "hit": false,
      "t": 62189.75199999999,
      "d": 145.98533333333035,
      "v": 90
    },
    {
      "midi": 53,
      "hit": false,
      "t": 62408.72999999999,
      "d": 114.0510416666657,
      "v": 90
    },
    {
      "midi": 55,
      "hit": false,
      "t": 62627.707999999984,
      "d": 109.4890000000014,
      "v": 90
    },
    {
      "midi": 57,
      "hit": false,
      "t": 62846.68599999999,
      "d": 95.80287500000122,
      "v": 90
    },
    {
      "midi": 60,
      "hit": false,
      "t": 63065.66399999999,
      "d": 82.11675000000105,
      "v": 90
    },
    {
      "midi": 62,
      "hit": false,
      "t": 63284.64199999999,
      "d": 82.11675000000105,
      "v": 90
    },
    {
      "midi": 65,
      "hit": false,
      "t": 63503.619999999995,
      "d": 82.11675000000105,
      "v": 90
    },
    {
      "midi": 67,
      "hit": false,
      "t": 63722.598,
      "d": 82.11675000000105,
      "v": 90
    },
    {
      "midi": 69,
      "hit": false,
      "t": 63941.576,
      "d": 72.99266666666517,
      "v": 90
    },
    {
      "midi": 72,
      "hit": false,
      "t": 64160.554,
      "d": 82.11675000000105,
      "v": 90
    },
    {
      "midi": 74,
      "hit": false,
      "t": 64379.532,
      "d": 91.24083333333692,
      "v": 90
    },
    {
      "midi": 72,
      "hit": false,
      "t": 64817.488000000005,
      "d": 109.4890000000014,
      "v": 90
    },
    {
      "midi": 74,
      "hit": false,
      "t": 64817.488000000005,
      "d": 118.61308333333727,
      "v": 90
    },
    {
      "midi": 67,
      "hit": false,
      "t": 64817.488000000005,
      "d": 132.29920833333745,
      "v": 90
    },
    {
      "midi": 69,
      "hit": false,
      "t": 64817.488000000005,
      "d": 136.86125000000175,
      "v": 90
    },
    {
      "midi": 60,
      "hit": false,
      "t": 66569.312,
      "d": 1350.3643333333312,
      "v": 90
    },
    {
      "midi": 53,
      "hit": false,
      "t": 66569.312,
      "d": 1354.9263749999955,
      "v": 90
    },
    {
      "midi": 50,
      "hit": false,
      "t": 66569.312,
      "d": 1359.4884166666598,
      "v": 90
    },
    {
      "midi": 57,
      "hit": false,
      "t": 66569.312,
      "d": 1359.4884166666598,
      "v": 90
    },
    {
      "midi": 80,
      "hit": false,
      "t": 66628.61854166667,
      "d": 45.6204166666721,
      "v": 94
    },
    {
      "midi": 81,
      "hit": false,
      "t": 66678.801,
      "d": 114.0510416666657,
      "v": 94
    },
    {
      "midi": 84,
      "hit": false,
      "t": 66788.29000000001,
      "d": 72.9926666666579,
      "v": 94
    },
    {
      "midi": 81,
      "hit": false,
      "t": 66865.84470833333,
      "d": 72.99266666667245,
      "v": 93
    },
    {
      "midi": 84,
      "hit": false,
      "t": 66952.5235,
      "d": 72.9926666666579,
      "v": 93
    },
    {
      "midi": 81,
      "hit": false,
      "t": 67020.95412499999,
      "d": 82.11675000000105,
      "v": 93
    },
    {
      "midi": 84,
      "hit": false,
      "t": 67107.63291666665,
      "d": 72.9926666666579,
      "v": 92
    },
    {
      "midi": 81,
      "hit": false,
      "t": 67176.06354166665,
      "d": 68.4306249999936,
      "v": 92
    },
    {
      "midi": 84,
      "hit": false,
      "t": 67249.0562083333,
      "d": 68.4306249999936,
      "v": 92
    },
    {
      "midi": 81,
      "hit": false,
      "t": 67317.4868333333,
      "d": 68.4306249999936,
      "v": 92
    },
    {
      "midi": 84,
      "hit": false,
      "t": 67390.47949999996,
      "d": 63.8685833333293,
      "v": 91
    },
    {
      "midi": 81,
      "hit": false,
      "t": 67454.34808333329,
      "d": 68.4306249999936,
      "v": 91
    },
    {
      "midi": 84,
      "hit": false,
      "t": 67522.77870833328,
      "d": 63.8685833333293,
      "v": 91
    },
    {
      "midi": 81,
      "hit": false,
      "t": 67582.08524999995,
      "d": 77.55470833333675,
      "v": 91
    },
    {
      "midi": 84,
      "hit": false,
      "t": 67664.20199999995,
      "d": 68.4306249999936,
      "v": 90
    },
    {
      "midi": 81,
      "hit": false,
      "t": 67732.63262499994,
      "d": 63.8685833333293,
      "v": 90
    },
    {
      "midi": 84,
      "hit": false,
      "t": 67805.6252916666,
      "d": 68.4306249999936,
      "v": 90
    },
    {
      "midi": 81,
      "hit": false,
      "t": 67869.49387499993,
      "d": 77.5547083333222,
      "v": 90
    },
    {
      "midi": 84,
      "hit": false,
      "t": 67942.48654166659,
      "d": 77.5547083333222,
      "v": 89
    },
    {
      "midi": 81,
      "hit": false,
      "t": 68006.35512499991,
      "d": 91.24083333332965,
      "v": 89
    },
    {
      "midi": 84,
      "hit": false,
      "t": 68093.03391666658,
      "d": 77.5547083333222,
      "v": 89
    },
    {
      "midi": 60,
      "hit": false,
      "t": 68102.158,
      "d": 1838.5027916666731,
      "v": 90
    },
    {
      "midi": 53,
      "hit": false,
      "t": 68102.158,
      "d": 1843.0648333333374,
      "v": 90
    },
    {
      "midi": 50,
      "hit": false,
      "t": 68102.158,
      "d": 1852.188916666666,
      "v": 90
    },
    {
      "midi": 57,
      "hit": false,
      "t": 68102.158,
      "d": 1852.188916666666,
      "v": 90
    },
    {
      "midi": 81,
      "hit": false,
      "t": 68161.46454166657,
      "d": 91.24083333332965,
      "v": 89
    },
    {
      "midi": 84,
      "hit": false,
      "t": 68243.58129166657,
      "d": 82.1167499999865,
      "v": 88
    },
    {
      "midi": 81,
      "hit": false,
      "t": 68312.01191666657,
      "d": 479.01437499999884,
      "v": 88
    },
    {
      "midi": 84,
      "hit": false,
      "t": 68407.81479166656,
      "d": 378.6494583333406,
      "v": 88
    },
    {
      "midi": 79,
      "hit": false,
      "t": 68987.19408333323,
      "d": 118.61308333334455,
      "v": 89
    },
    {
      "midi": 80,
      "hit": false,
      "t": 69005.4422499999,
      "d": 59.306541666665,
      "v": 89
    },
    {
      "midi": 81,
      "hit": false,
      "t": 69037.37654166657,
      "d": 164.2335000000021,
      "v": 89
    },
    {
      "midi": 84,
      "hit": false,
      "t": 69087.5589999999,
      "d": 469.89029166667024,
      "v": 89
    },
    {
      "midi": 79,
      "hit": false,
      "t": 69201.61004166657,
      "d": 164.2335000000021,
      "v": 90
    },
    {
      "midi": 77,
      "hit": false,
      "t": 69420.58804166658,
      "d": 155.1094166666735,
      "v": 90
    },
    {
      "midi": 74,
      "hit": false,
      "t": 69653.25216666659,
      "d": 118.61308333333,
      "v": 90
    },
    {
      "midi": 74,
      "hit": false,
      "t": 69899.60241666659,
      "d": 907.8462916666613,
      "v": 91
    },
    {
      "midi": 77,
      "hit": false,
      "t": 69986.28120833325,
      "d": 761.8609583333309,
      "v": 91
    },
    {
      "midi": 81,
      "hit": false,
      "t": 70054.71183333325,
      "d": 634.1237916666723,
      "v": 91
    },
    {
      "midi": 57,
      "hit": false,
      "t": 70072.95999999999,
      "d": 1386.86066666666,
      "v": 90
    },
    {
      "midi": 60,
      "hit": false,
      "t": 70072.95999999999,
      "d": 1386.86066666666,
      "v": 90
    },
    {
      "midi": 53,
      "hit": false,
      "t": 70072.95999999999,
      "d": 1391.4227083333244,
      "v": 90
    },
    {
      "midi": 50,
      "hit": false,
      "t": 70072.95999999999,
      "d": 1395.9847499999887,
      "v": 90
    },
    {
      "midi": 84,
      "hit": false,
      "t": 70100.33224999992,
      "d": 552.0070416666713,
      "v": 91
    },
    {
      "midi": 84,
      "hit": false,
      "t": 70739.01808333326,
      "d": 164.23349999998754,
      "v": 92
    },
    {
      "midi": 81,
      "hit": false,
      "t": 70802.88666666659,
      "d": 145.9853333333158,
      "v": 93
    },
    {
      "midi": 77,
      "hit": false,
      "t": 70871.31729166658,
      "d": 114.05104166665114,
      "v": 93
    },
    {
      "midi": 74,
      "hit": false,
      "t": 70944.30995833324,
      "d": 255.47433333333174,
      "v": 93
    },
    {
      "midi": 72,
      "hit": false,
      "t": 71172.41204166657,
      "d": 228.1020833333314,
      "v": 99
    },
    {
      "midi": 69,
      "hit": false,
      "t": 71373.1418749999,
      "d": 1021.8973333333124,
      "v": 100
    },
    {
      "midi": 72,
      "hit": false,
      "t": 71605.8059999999,
      "d": 775.5470833333238,
      "v": 101
    },
    {
      "midi": 74,
      "hit": false,
      "t": 71605.8059999999,
      "d": 816.6054583333171,
      "v": 101
    },
    {
      "midi": 50,
      "hit": false,
      "t": 71605.80599999998,
      "d": 1674.269291666671,
      "v": 90
    },
    {
      "midi": 53,
      "hit": false,
      "t": 71605.80599999998,
      "d": 1952.5538333333388,
      "v": 90
    },
    {
      "midi": 60,
      "hit": false,
      "t": 71605.80599999998,
      "d": 1957.1158750000031,
      "v": 90
    },
    {
      "midi": 57,
      "hit": false,
      "t": 71605.80599999998,
      "d": 1961.6779166666674,
      "v": 90
    },
    {
      "midi": 77,
      "hit": false,
      "t": 71610.36804166656,
      "d": 866.7879166666535,
      "v": 101
    },
    {
      "midi": 67,
      "hit": false,
      "t": 72481.71799999988,
      "d": 150.54737499999464,
      "v": 98
    },
    {
      "midi": 71,
      "hit": false,
      "t": 72486.28004166654,
      "d": 141.42329166666605,
      "v": 98
    },
    {
      "midi": 65,
      "hit": false,
      "t": 72728.06824999987,
      "d": 150.54737499999464,
      "v": 98
    },
    {
      "midi": 69,
      "hit": false,
      "t": 72732.63029166653,
      "d": 159.67145833332324,
      "v": 98
    },
    {
      "midi": 62,
      "hit": false,
      "t": 72937.92216666653,
      "d": 164.2335000000021,
      "v": 97
    },
    {
      "midi": 69,
      "hit": false,
      "t": 73143.21404166652,
      "d": 132.2992083333229,
      "v": 96
    },
    {
      "midi": 62,
      "hit": false,
      "t": 73147.77608333318,
      "d": 41.05837499999325,
      "v": 96
    },
    {
      "midi": 65,
      "hit": false,
      "t": 73147.77608333318,
      "d": 123.1751249999943,
      "v": 96
    },
    {
      "midi": 68,
      "hit": false,
      "t": 73362.19204166651,
      "d": 54.7445000000007,
      "v": 96
    },
    {
      "midi": 69,
      "hit": false,
      "t": 73416.93654166651,
      "d": 132.29920833333745,
      "v": 96
    },
    {
      "midi": 72,
      "hit": false,
      "t": 73544.67370833318,
      "d": 114.0510416666657,
      "v": 95
    },
    {
      "midi": 60,
      "hit": false,
      "t": 73576.60799999998,
      "d": 1336.6782083333383,
      "v": 90
    },
    {
      "midi": 57,
      "hit": false,
      "t": 73576.60799999998,
      "d": 1354.92637500001,
      "v": 90
    },
    {
      "midi": 53,
      "hit": false,
      "t": 73576.60799999998,
      "d": 1359.4884166666743,
      "v": 90
    },
    {
      "midi": 50,
      "hit": false,
      "t": 73576.60799999998,
      "d": 1377.736583333346,
      "v": 90
    },
    {
      "midi": 69,
      "hit": false,
      "t": 73667.84883333318,
      "d": 72.9926666666579,
      "v": 95
    },
    {
      "midi": 72,
      "hit": false,
      "t": 73736.27945833317,
      "d": 86.67879166666535,
      "v": 95
    },
    {
      "midi": 69,
      "hit": false,
      "t": 73818.39620833317,
      "d": 68.4306249999936,
      "v": 95
    },
    {
      "midi": 72,
      "hit": false,
      "t": 73886.82683333317,
      "d": 72.9926666666579,
      "v": 94
    },
    {
      "midi": 69,
      "hit": false,
      "t": 73955.25745833316,
      "d": 68.4306249999936,
      "v": 74
    },
    {
      "midi": 72,
      "hit": false,
      "t": 74023.68808333315,
      "d": 68.4306249999936,
      "v": 94
    },
    {
      "midi": 69,
      "hit": false,
      "t": 74082.99462499982,
      "d": 72.9926666666579,
      "v": 94
    },
    {
      "midi": 72,
      "hit": false,
      "t": 74151.42524999981,
      "d": 72.9926666666579,
      "v": 94
    },
    {
      "midi": 69,
      "hit": false,
      "t": 74219.8558749998,
      "d": 127.7371666666586,
      "v": 94
    },
    {
      "midi": 72,
      "hit": false,
      "t": 74288.2864999998,
      "d": 109.4890000000014,
      "v": 94
    },
    {
      "midi": 67,
      "hit": false,
      "t": 74420.58570833314,
      "d": 86.67879166666535,
      "v": 94
    },
    {
      "midi": 68,
      "hit": false,
      "t": 74457.08204166646,
      "d": 86.67879166666535,
      "v": 94
    },
    {
      "midi": 69,
      "hit": false,
      "t": 74502.70245833314,
      "d": 164.23349999998754,
      "v": 94
    },
    {
      "midi": 74,
      "hit": false,
      "t": 74520.9506249998,
      "d": 136.86125000000175,
      "v": 94
    },
    {
      "midi": 67,
      "hit": false,
      "t": 74753.61474999979,
      "d": 100.36491666665825,
      "v": 94
    },
    {
      "midi": 68,
      "hit": false,
      "t": 74794.67312499978,
      "d": 82.11675000000105,
      "v": 94
    },
    {
      "midi": 69,
      "hit": false,
      "t": 74822.04537499978,
      "d": 118.61308333333,
      "v": 94
    },
    {
      "midi": 74,
      "hit": false,
      "t": 74858.54170833311,
      "d": 100.3649166666728,
      "v": 94
    },
    {
      "midi": 67,
      "hit": false,
      "t": 75041.02337499979,
      "d": 104.9269583333371,
      "v": 94
    },
    {
      "midi": 68,
      "hit": false,
      "t": 75086.64379166646,
      "d": 95.80287499999395,
      "v": 94
    },
    {
      "midi": 60,
      "hit": false,
      "t": 75109.454,
      "d": 1865.8750416666735,
      "v": 90
    },
    {
      "midi": 53,
      "hit": false,
      "t": 75109.454,
      "d": 1874.999125000002,
      "v": 90
    },
    {
      "midi": 57,
      "hit": false,
      "t": 75109.454,
      "d": 1879.5611666666664,
      "v": 90
    },
    {
      "midi": 50,
      "hit": false,
      "t": 75109.454,
      "d": 1888.685249999995,
      "v": 90
    },
    {
      "midi": 69,
      "hit": false,
      "t": 75123.14012499979,
      "d": 150.54737499999464,
      "v": 94
    },
    {
      "midi": 74,
      "hit": false,
      "t": 75159.63645833312,
      "d": 123.1751249999943,
      "v": 94
    },
    {
      "midi": 67,
      "hit": false,
      "t": 75328.43199999978,
      "d": 95.80287499999395,
      "v": 94
    },
    {
      "midi": 68,
      "hit": false,
      "t": 75346.68016666645,
      "d": 91.2408333333151,
      "v": 94
    },
    {
      "midi": 69,
      "hit": false,
      "t": 75387.73854166645,
      "d": 104.92695833332255,
      "v": 94
    },
    {
      "midi": 74,
      "hit": false,
      "t": 75410.54874999978,
      "d": 141.4232916666515,
      "v": 94
    },
    {
      "midi": 67,
      "hit": false,
      "t": 75597.5924583331,
      "d": 109.48899999998685,
      "v": 94
    },
    {
      "midi": 68,
      "hit": false,
      "t": 75638.6508333331,
      "d": 91.24083333332965,
      "v": 94
    },
    {
      "midi": 69,
      "hit": false,
      "t": 75670.58512499976,
      "d": 241.78820833333884,
      "v": 94
    },
    {
      "midi": 74,
      "hit": false,
      "t": 75702.51941666643,
      "d": 250.91229166666744,
      "v": 94
    },
    {
      "midi": 69,
      "hit": false,
      "t": 75976.24191666643,
      "d": 228.1020833333314,
      "v": 94
    },
    {
      "midi": 72,
      "hit": false,
      "t": 76204.34399999976,
      "d": 218.9780000000028,
      "v": 94
    },
    {
      "midi": 74,
      "hit": false,
      "t": 76204.34399999976,
      "d": 237.22616666666,
      "v": 94
    },
    {
      "midi": 77,
      "hit": false,
      "t": 76208.90604166643,
      "d": 218.9780000000028,
      "v": 94
    },
    {
      "midi": 69,
      "hit": false,
      "t": 76437.00812499976,
      "d": 214.41595833332394,
      "v": 94
    },
    {
      "midi": 74,
      "hit": false,
      "t": 76651.42408333308,
      "d": 214.41595833332394,
      "v": 94
    },
    {
      "midi": 77,
      "hit": false,
      "t": 76655.98612499975,
      "d": 351.2772083333257,
      "v": 94
    },
    {
      "midi": 72,
      "hit": false,
      "t": 76852.15391666642,
      "d": 255.47433333333174,
      "v": 94
    },
    {
      "midi": 53,
      "hit": false,
      "t": 77080.256,
      "d": 1240.8753333333298,
      "v": 90
    },
    {
      "midi": 57,
      "hit": false,
      "t": 77080.256,
      "d": 1263.6855416666658,
      "v": 90
    },
    {
      "midi": 60,
      "hit": false,
      "t": 77080.256,
      "d": 1327.554124999995,
      "v": 90
    },
    {
      "midi": 50,
      "hit": false,
      "t": 77080.256,
      "d": 1592.1525416666555,
      "v": 90
    },
    {
      "midi": 69,
      "hit": false,
      "t": 77084.81804166641,
      "d": 241.7882083333243,
      "v": 94
    },
    {
      "midi": 74,
      "hit": false,
      "t": 77317.4821666664,
      "d": 387.7735416666692,
      "v": 94
    },
    {
      "midi": 77,
      "hit": false,
      "t": 77317.4821666664,
      "d": 629.561750000008,
      "v": 94
    },
    {
      "midi": 72,
      "hit": false,
      "t": 77723.50387499975,
      "d": 250.91229166666744,
      "v": 93
    },
    {
      "midi": 69,
      "hit": false,
      "t": 77974.41616666641,
      "d": 200.72983333333104,
      "v": 93
    },
    {
      "midi": 67,
      "hit": false,
      "t": 78184.27008333307,
      "d": 200.72983333333104,
      "v": 93
    },
    {
      "midi": 65,
      "hit": false,
      "t": 78398.6860416664,
      "d": 86.67879166666535,
      "v": 93
    },
    {
      "midi": 62,
      "hit": false,
      "t": 78631.3501666664,
      "d": 132.2992083333229,
      "v": 107
    },
    {
      "midi": 65,
      "hit": false,
      "t": 78695.21874999972,
      "d": 100.36491666665825,
      "v": 112
    },
    {
      "midi": 69,
      "hit": false,
      "t": 78763.64937499972,
      "d": 68.4306249999936,
      "v": 117
    },
    {
      "midi": 72,
      "hit": false,
      "t": 78777.33549999971,
      "d": 41.0583750000078,
      "v": 121
    },
    {
      "midi": 74,
      "hit": false,
      "t": 78832.07999999971,
      "d": 50.1824583333364,
      "v": 125
    },
    {
      "midi": 53,
      "hit": false,
      "t": 80583.90399999998,
      "d": 1332.116166666674,
      "v": 90
    },
    {
      "midi": 57,
      "hit": false,
      "t": 80583.90399999998,
      "d": 1341.2402500000026,
      "v": 90
    },
    {
      "midi": 60,
      "hit": false,
      "t": 80583.90399999998,
      "d": 1345.8022916666669,
      "v": 90
    },
    {
      "midi": 50,
      "hit": false,
      "t": 80583.90399999998,
      "d": 1354.9263749999955,
      "v": 90
    },
    {
      "midi": 50,
      "hit": false,
      "t": 82116.74999999997,
      "d": 1847.6268750000017,
      "v": 90
    },
    {
      "midi": 53,
      "hit": false,
      "t": 82116.74999999997,
      "d": 1847.6268750000017,
      "v": 90
    },
    {
      "midi": 57,
      "hit": false,
      "t": 82116.74999999997,
      "d": 1870.4370833333378,
      "v": 90
    },
    {
      "midi": 60,
      "hit": false,
      "t": 82116.74999999997,
      "d": 1870.4370833333378,
      "v": 90
    },
    {
      "midi": 55,
      "hit": false,
      "t": 84087.55199999998,
      "d": 1336.6782083333383,
      "v": 90
    },
    {
      "midi": 60,
      "hit": false,
      "t": 84087.55199999998,
      "d": 1336.6782083333383,
      "v": 90
    },
    {
      "midi": 52,
      "hit": false,
      "t": 84087.55199999998,
      "d": 1350.3643333333312,
      "v": 90
    },
    {
      "midi": 57,
      "hit": false,
      "t": 84087.55199999998,
      "d": 1350.3643333333312,
      "v": 90
    },
    {
      "midi": 52,
      "hit": false,
      "t": 85620.39799999999,
      "d": 1802.0064583333296,
      "v": 90
    },
    {
      "midi": 55,
      "hit": false,
      "t": 85620.39799999999,
      "d": 1806.568499999994,
      "v": 90
    },
    {
      "midi": 57,
      "hit": false,
      "t": 85620.39799999999,
      "d": 1820.2546249999868,
      "v": 90
    },
    {
      "midi": 60,
      "hit": false,
      "t": 85620.39799999999,
      "d": 1829.3787083333154,
      "v": 90
    },
    {
      "midi": 57,
      "hit": false,
      "t": 87591.19999999997,
      "d": 1368.612500000003,
      "v": 90
    },
    {
      "midi": 62,
      "hit": false,
      "t": 87591.19999999997,
      "d": 1373.1745416666672,
      "v": 90
    },
    {
      "midi": 60,
      "hit": false,
      "t": 87591.19999999997,
      "d": 1382.2986249999958,
      "v": 90
    },
    {
      "midi": 53,
      "hit": false,
      "t": 87591.19999999997,
      "d": 1386.86066666666,
      "v": 90
    },
    {
      "midi": 60,
      "hit": false,
      "t": 89124.04599999996,
      "d": 1797.4444166666653,
      "v": 90
    },
    {
      "midi": 57,
      "hit": false,
      "t": 89124.04599999996,
      "d": 1815.692583333337,
      "v": 90
    },
    {
      "midi": 62,
      "hit": false,
      "t": 89124.04599999996,
      "d": 1815.692583333337,
      "v": 90
    },
    {
      "midi": 53,
      "hit": false,
      "t": 89124.04599999996,
      "d": 1838.5027916666731,
      "v": 90
    },
    {
      "midi": 55,
      "hit": false,
      "t": 91094.84799999997,
      "d": 1345.8022916666669,
      "v": 90
    },
    {
      "midi": 53,
      "hit": false,
      "t": 91094.84799999997,
      "d": 1359.4884166666598,
      "v": 90
    },
    {
      "midi": 62,
      "hit": false,
      "t": 91094.84799999997,
      "d": 1359.4884166666598,
      "v": 90
    },
    {
      "midi": 58,
      "hit": false,
      "t": 91094.84799999997,
      "d": 1368.6124999999884,
      "v": 90
    },
    {
      "midi": 55,
      "hit": false,
      "t": 92627.69399999996,
      "d": 1756.386041666672,
      "v": 90
    },
    {
      "midi": 58,
      "hit": false,
      "t": 92627.69399999996,
      "d": 1774.6342083333438,
      "v": 90
    },
    {
      "midi": 53,
      "hit": false,
      "t": 92627.69399999996,
      "d": 1802.0064583333442,
      "v": 90
    },
    {
      "midi": 62,
      "hit": false,
      "t": 92627.69399999996,
      "d": 1815.692583333337,
      "v": 90
    },
    {
      "midi": 60,
      "hit": false,
      "t": 94598.49599999997,
      "d": 1368.612500000003,
      "v": 90
    },
    {
      "midi": 62,
      "hit": false,
      "t": 94598.49599999997,
      "d": 1368.612500000003,
      "v": 90
    },
    {
      "midi": 57,
      "hit": false,
      "t": 94598.49599999997,
      "d": 1395.9847500000033,
      "v": 90
    },
    {
      "midi": 53,
      "hit": false,
      "t": 94598.49599999997,
      "d": 1400.5467916666676,
      "v": 90
    },
    {
      "midi": 52,
      "hit": false,
      "t": 96131.34199999998,
      "d": 1797.4444166666653,
      "v": 90
    },
    {
      "midi": 55,
      "hit": false,
      "t": 96131.34199999998,
      "d": 1806.568499999994,
      "v": 90
    },
    {
      "midi": 57,
      "hit": false,
      "t": 96131.34199999998,
      "d": 1806.568499999994,
      "v": 90
    },
    {
      "midi": 60,
      "hit": false,
      "t": 96131.34199999998,
      "d": 1833.9407499999943,
      "v": 90
    },
    {
      "midi": 62,
      "hit": false,
      "t": 98102.14399999997,
      "d": 1596.7145833333343,
      "v": 90
    },
    {
      "midi": 60,
      "hit": false,
      "t": 98102.14399999997,
      "d": 1610.4007083333272,
      "v": 90
    },
    {
      "midi": 57,
      "hit": false,
      "t": 98102.14399999997,
      "d": 1619.5247916666558,
      "v": 90
    },
    {
      "midi": 53,
      "hit": false,
      "t": 98102.14399999997,
      "d": 1624.08683333332,
      "v": 90
    },
    {
      "midi": 57,
      "hit": false,
      "t": 99853.96799999996,
      "d": 82.11675000000105,
      "v": 90
    },
    {
      "midi": 62,
      "hit": false,
      "t": 99853.96799999996,
      "d": 95.80287499999395,
      "v": 90
    },
    {
      "midi": 53,
      "hit": false,
      "t": 99853.96799999996,
      "d": 100.36491666665825,
      "v": 90
    },
    {
      "midi": 60,
      "hit": false,
      "t": 99853.96799999996,
      "d": 100.36491666665825,
      "v": 90
    },
    {
      "midi": 55,
      "hit": false,
      "t": 99853.96799999996,
      "d": 109.48899999998685,
      "v": 90
    },
    {
      "midi": 53,
      "hit": false,
      "t": 101605.79199999996,
      "d": 1332.116166666674,
      "v": 90
    },
    {
      "midi": 57,
      "hit": false,
      "t": 101605.79199999996,
      "d": 1341.2402500000026,
      "v": 90
    },
    {
      "midi": 60,
      "hit": false,
      "t": 101605.79199999996,
      "d": 1345.8022916666669,
      "v": 90
    },
    {
      "midi": 50,
      "hit": false,
      "t": 101605.79199999996,
      "d": 1354.9263749999955,
      "v": 90
    },
    {
      "midi": 50,
      "hit": false,
      "t": 103138.63799999995,
      "d": 1847.6268750000017,
      "v": 90
    },
    {
      "midi": 53,
      "hit": false,
      "t": 103138.63799999995,
      "d": 1847.6268750000017,
      "v": 90
    },
    {
      "midi": 57,
      "hit": false,
      "t": 103138.63799999995,
      "d": 1870.4370833333378,
      "v": 90
    },
    {
      "midi": 60,
      "hit": false,
      "t": 103138.63799999995,
      "d": 1870.4370833333378,
      "v": 90
    },
    {
      "midi": 55,
      "hit": false,
      "t": 105109.43999999996,
      "d": 1336.6782083333383,
      "v": 90
    },
    {
      "midi": 60,
      "hit": false,
      "t": 105109.43999999996,
      "d": 1336.6782083333383,
      "v": 90
    },
    {
      "midi": 52,
      "hit": false,
      "t": 105109.43999999996,
      "d": 1350.3643333333312,
      "v": 90
    },
    {
      "midi": 57,
      "hit": false,
      "t": 105109.43999999996,
      "d": 1350.3643333333312,
      "v": 90
    },
    {
      "midi": 52,
      "hit": false,
      "t": 106642.28599999996,
      "d": 1802.0064583333296,
      "v": 90
    },
    {
      "midi": 55,
      "hit": false,
      "t": 106642.28599999996,
      "d": 1806.568499999994,
      "v": 90
    },
    {
      "midi": 57,
      "hit": false,
      "t": 106642.28599999996,
      "d": 1820.2546249999868,
      "v": 90
    },
    {
      "midi": 60,
      "hit": false,
      "t": 106642.28599999996,
      "d": 1829.3787083333154,
      "v": 90
    },
    {
      "midi": 57,
      "hit": false,
      "t": 108613.08799999995,
      "d": 1368.612500000003,
      "v": 90
    },
    {
      "midi": 62,
      "hit": false,
      "t": 108613.08799999995,
      "d": 1373.1745416666672,
      "v": 90
    },
    {
      "midi": 60,
      "hit": false,
      "t": 108613.08799999995,
      "d": 1382.2986249999958,
      "v": 90
    },
    {
      "midi": 53,
      "hit": false,
      "t": 108613.08799999995,
      "d": 1386.86066666666,
      "v": 90
    },
    {
      "midi": 60,
      "hit": false,
      "t": 110145.93399999994,
      "d": 1797.4444166666653,
      "v": 90
    },
    {
      "midi": 57,
      "hit": false,
      "t": 110145.93399999994,
      "d": 1815.692583333337,
      "v": 90
    },
    {
      "midi": 62,
      "hit": false,
      "t": 110145.93399999994,
      "d": 1815.692583333337,
      "v": 90
    },
    {
      "midi": 53,
      "hit": false,
      "t": 110145.93399999994,
      "d": 1838.5027916666731,
      "v": 90
    },
    {
      "midi": 55,
      "hit": false,
      "t": 112116.73599999995,
      "d": 1345.8022916666669,
      "v": 90
    },
    {
      "midi": 53,
      "hit": false,
      "t": 112116.73599999995,
      "d": 1359.4884166666598,
      "v": 90
    },
    {
      "midi": 62,
      "hit": false,
      "t": 112116.73599999995,
      "d": 1359.4884166666598,
      "v": 90
    },
    {
      "midi": 58,
      "hit": false,
      "t": 112116.73599999995,
      "d": 1368.6124999999884,
      "v": 90
    },
    {
      "midi": 55,
      "hit": false,
      "t": 113649.58199999994,
      "d": 1756.386041666672,
      "v": 90
    },
    {
      "midi": 58,
      "hit": false,
      "t": 113649.58199999994,
      "d": 1774.6342083333438,
      "v": 90
    },
    {
      "midi": 53,
      "hit": false,
      "t": 113649.58199999994,
      "d": 1802.0064583333442,
      "v": 90
    },
    {
      "midi": 62,
      "hit": false,
      "t": 113649.58199999994,
      "d": 1815.692583333337,
      "v": 90
    },
    {
      "midi": 60,
      "hit": false,
      "t": 115620.38399999995,
      "d": 1368.612500000003,
      "v": 90
    },
    {
      "midi": 62,
      "hit": false,
      "t": 115620.38399999995,
      "d": 1368.612500000003,
      "v": 90
    },
    {
      "midi": 57,
      "hit": false,
      "t": 115620.38399999995,
      "d": 1395.9847500000033,
      "v": 90
    },
    {
      "midi": 53,
      "hit": false,
      "t": 115620.38399999995,
      "d": 1400.5467916666676,
      "v": 90
    },
    {
      "midi": 52,
      "hit": false,
      "t": 117153.22999999995,
      "d": 1797.4444166666653,
      "v": 90
    },
    {
      "midi": 55,
      "hit": false,
      "t": 117153.22999999995,
      "d": 1806.568499999994,
      "v": 90
    },
    {
      "midi": 57,
      "hit": false,
      "t": 117153.22999999995,
      "d": 1806.568499999994,
      "v": 90
    },
    {
      "midi": 60,
      "hit": false,
      "t": 117153.22999999995,
      "d": 1833.9407499999943,
      "v": 90
    },
    {
      "midi": 62,
      "hit": false,
      "t": 119124.03199999995,
      "d": 1596.7145833333343,
      "v": 90
    },
    {
      "midi": 60,
      "hit": false,
      "t": 119124.03199999995,
      "d": 1610.4007083333272,
      "v": 90
    },
    {
      "midi": 57,
      "hit": false,
      "t": 119124.03199999995,
      "d": 1619.5247916666558,
      "v": 90
    },
    {
      "midi": 53,
      "hit": false,
      "t": 119124.03199999995,
      "d": 1624.08683333332,
      "v": 90
    },
    {
      "midi": 57,
      "hit": false,
      "t": 120875.85599999994,
      "d": 82.11675000000105,
      "v": 90
    },
    {
      "midi": 62,
      "hit": false,
      "t": 120875.85599999994,
      "d": 95.80287499999395,
      "v": 90
    },
    {
      "midi": 53,
      "hit": false,
      "t": 120875.85599999994,
      "d": 100.36491666665825,
      "v": 90
    },
    {
      "midi": 60,
      "hit": false,
      "t": 120875.85599999994,
      "d": 100.36491666665825,
      "v": 90
    },
    {
      "midi": 65,
      "hit": false,
      "t": 122627.67999999993,
      "d": 1332.116166666674,
      "v": 90
    },
    {
      "midi": 69,
      "hit": false,
      "t": 122627.67999999993,
      "d": 1341.2402500000026,
      "v": 90
    },
    {
      "midi": 62,
      "hit": false,
      "t": 122627.67999999993,
      "d": 1354.9263749999955,
      "v": 90
    },
    {
      "midi": 53,
      "hit": false,
      "t": 122627.67999999993,
      "d": 1373.1745416666672,
      "v": 90
    },
    {
      "midi": 57,
      "hit": false,
      "t": 122627.67999999993,
      "d": 1373.1745416666672,
      "v": 90
    },
    {
      "midi": 62,
      "hit": false,
      "t": 124160.52599999994,
      "d": 1847.6268750000017,
      "v": 90
    },
    {
      "midi": 65,
      "hit": false,
      "t": 124160.52599999994,
      "d": 1847.6268750000017,
      "v": 90
    },
    {
      "midi": 57,
      "hit": false,
      "t": 124160.52599999994,
      "d": 1852.188916666666,
      "v": 90
    },
    {
      "midi": 69,
      "hit": false,
      "t": 124160.52599999994,
      "d": 1870.4370833333378,
      "v": 90
    },
    {
      "midi": 67,
      "hit": false,
      "t": 126131.32799999995,
      "d": 1336.6782083333383,
      "v": 90
    },
    {
      "midi": 64,
      "hit": false,
      "t": 126131.32799999995,
      "d": 1350.3643333333312,
      "v": 90
    },
    {
      "midi": 69,
      "hit": false,
      "t": 126131.32799999995,
      "d": 1350.3643333333312,
      "v": 90
    },
    {
      "midi": 52,
      "hit": false,
      "t": 126131.32799999995,
      "d": 1364.050458333324,
      "v": 90
    },
    {
      "midi": 55,
      "hit": false,
      "t": 126131.32799999995,
      "d": 1382.2986249999958,
      "v": 90
    },
    {
      "midi": 64,
      "hit": false,
      "t": 127664.17399999994,
      "d": 1802.0064583333296,
      "v": 90
    },
    {
      "midi": 67,
      "hit": false,
      "t": 127664.17399999994,
      "d": 1806.568499999994,
      "v": 90
    },
    {
      "midi": 69,
      "hit": false,
      "t": 127664.17399999994,
      "d": 1820.2546249999868,
      "v": 90
    },
    {
      "midi": 55,
      "hit": false,
      "t": 127664.17399999994,
      "d": 1847.6268749999872,
      "v": 90
    },
    {
      "midi": 69,
      "hit": false,
      "t": 129634.97599999992,
      "d": 1368.612500000003,
      "v": 90
    },
    {
      "midi": 65,
      "hit": false,
      "t": 129634.97599999992,
      "d": 1386.8606666666747,
      "v": 90
    },
    {
      "midi": 53,
      "hit": false,
      "t": 129634.97599999992,
      "d": 1409.6708750000107,
      "v": 90
    },
    {
      "midi": 57,
      "hit": false,
      "t": 129634.97599999992,
      "d": 1427.9190416666825,
      "v": 90
    },
    {
      "midi": 57,
      "hit": false,
      "t": 131167.82199999993,
      "d": 1792.8823749999865,
      "v": 90
    },
    {
      "midi": 69,
      "hit": false,
      "t": 131167.82199999993,
      "d": 1815.6925833333225,
      "v": 90
    },
    {
      "midi": 65,
      "hit": false,
      "t": 131167.82199999993,
      "d": 1838.5027916666586,
      "v": 90
    },
    {
      "midi": 55,
      "hit": false,
      "t": 133138.62399999992,
      "d": 1240.8753333333298,
      "v": 90
    },
    {
      "midi": 58,
      "hit": false,
      "t": 133138.62399999992,
      "d": 1313.8679999999877,
      "v": 90
    },
    {
      "midi": 67,
      "hit": false,
      "t": 133138.62399999992,
      "d": 1345.8022916666523,
      "v": 90
    },
    {
      "midi": 65,
      "hit": false,
      "t": 133138.62399999992,
      "d": 1359.4884166666598,
      "v": 90
    },
    {
      "midi": 70,
      "hit": false,
      "t": 133138.62399999992,
      "d": 1368.6124999999884,
      "v": 90
    },
    {
      "midi": 67,
      "hit": false,
      "t": 134671.4699999999,
      "d": 1756.386041666672,
      "v": 90
    },
    {
      "midi": 70,
      "hit": false,
      "t": 134671.4699999999,
      "d": 1774.6342083333293,
      "v": 90
    },
    {
      "midi": 58,
      "hit": false,
      "t": 134671.4699999999,
      "d": 1783.758291666658,
      "v": 90
    },
    {
      "midi": 65,
      "hit": false,
      "t": 134671.4699999999,
      "d": 1802.006458333315,
      "v": 90
    },
    {
      "midi": 53,
      "hit": false,
      "t": 136642.2719999999,
      "d": 1386.8606666666747,
      "v": 90
    },
    {
      "midi": 57,
      "hit": false,
      "t": 136642.2719999999,
      "d": 1391.4227083333535,
      "v": 90
    },
    {
      "midi": 69,
      "hit": false,
      "t": 136642.2719999999,
      "d": 1395.9847500000324,
      "v": 90
    },
    {
      "midi": 65,
      "hit": false,
      "t": 136642.2719999999,
      "d": 1400.5467916667112,
      "v": 90
    },
    {
      "midi": 64,
      "hit": false,
      "t": 138175.11799999996,
      "d": 1797.4444166666653,
      "v": 90
    },
    {
      "midi": 52,
      "hit": false,
      "t": 138175.11799999996,
      "d": 1806.568499999994,
      "v": 90
    },
    {
      "midi": 67,
      "hit": false,
      "t": 138175.11799999996,
      "d": 1806.568499999994,
      "v": 90
    },
    {
      "midi": 69,
      "hit": false,
      "t": 138175.11799999996,
      "d": 1806.568499999994,
      "v": 90
    },
    {
      "midi": 55,
      "hit": false,
      "t": 138175.11799999996,
      "d": 1838.5027916666586,
      "v": 90
    },
    {
      "midi": 69,
      "hit": false,
      "t": 140145.91999999995,
      "d": 1619.5247916666558,
      "v": 90
    },
    {
      "midi": 65,
      "hit": false,
      "t": 140145.91999999995,
      "d": 1624.0868333333347,
      "v": 90
    },
    {
      "midi": 57,
      "hit": false,
      "t": 140145.91999999995,
      "d": 1646.8970416666707,
      "v": 90
    },
    {
      "midi": 69,
      "hit": false,
      "t": 141897.74399999995,
      "d": 82.1167499999865,
      "v": 90
    },
    {
      "midi": 65,
      "hit": false,
      "t": 141897.74399999995,
      "d": 100.3649166666437,
      "v": 90
    },
    {
      "midi": 72,
      "hit": false,
      "t": 141897.74399999995,
      "d": 100.3649166666437,
      "v": 90
    },
    {
      "midi": 65,
      "hit": false,
      "t": 143649.5679999999,
      "d": 1332.116166666674,
      "v": 90
    },
    {
      "midi": 69,
      "hit": false,
      "t": 143649.5679999999,
      "d": 1341.2402500000026,
      "v": 90
    },
    {
      "midi": 72,
      "hit": false,
      "t": 143649.5679999999,
      "d": 1345.8022916666814,
      "v": 90
    },
    {
      "midi": 62,
      "hit": false,
      "t": 143649.5679999999,
      "d": 1354.92637500001,
      "v": 90
    },
    {
      "midi": 62,
      "hit": false,
      "t": 145182.41399999993,
      "d": 1847.6268749999872,
      "v": 90
    },
    {
      "midi": 65,
      "hit": false,
      "t": 145182.41399999993,
      "d": 1847.6268749999872,
      "v": 90
    },
    {
      "midi": 69,
      "hit": false,
      "t": 145182.41399999993,
      "d": 1870.4370833333232,
      "v": 90
    },
    {
      "midi": 72,
      "hit": false,
      "t": 145182.41399999993,
      "d": 1870.4370833333232,
      "v": 90
    },
    {
      "midi": 67,
      "hit": false,
      "t": 147153.21599999993,
      "d": 1336.6782083333237,
      "v": 90
    },
    {
      "midi": 72,
      "hit": false,
      "t": 147153.21599999993,
      "d": 1336.6782083333237,
      "v": 90
    },
    {
      "midi": 64,
      "hit": false,
      "t": 147153.21599999993,
      "d": 1350.3643333333312,
      "v": 90
    },
    {
      "midi": 69,
      "hit": false,
      "t": 147153.21599999993,
      "d": 1350.3643333333312,
      "v": 90
    },
    {
      "midi": 64,
      "hit": false,
      "t": 148686.06199999992,
      "d": 1802.0064583333442,
      "v": 90
    },
    {
      "midi": 67,
      "hit": false,
      "t": 148686.06199999992,
      "d": 1806.568500000023,
      "v": 90
    },
    {
      "midi": 69,
      "hit": false,
      "t": 148686.06199999992,
      "d": 1820.2546250000305,
      "v": 90
    },
    {
      "midi": 72,
      "hit": false,
      "t": 148686.06199999992,
      "d": 1829.378708333359,
      "v": 90
    },
    {
      "midi": 69,
      "hit": false,
      "t": 150656.86399999994,
      "d": 1368.6124999999884,
      "v": 90
    },
    {
      "midi": 74,
      "hit": false,
      "t": 150656.86399999994,
      "d": 1373.1745416666672,
      "v": 90
    },
    {
      "midi": 72,
      "hit": false,
      "t": 150656.86399999994,
      "d": 1382.2986249999958,
      "v": 90
    },
    {
      "midi": 65,
      "hit": false,
      "t": 150656.86399999994,
      "d": 1386.8606666666747,
      "v": 90
    },
    {
      "midi": 72,
      "hit": false,
      "t": 152189.70999999996,
      "d": 1797.4444166666653,
      "v": 90
    },
    {
      "midi": 69,
      "hit": false,
      "t": 152189.70999999996,
      "d": 1815.6925833333225,
      "v": 90
    },
    {
      "midi": 74,
      "hit": false,
      "t": 152189.70999999996,
      "d": 1815.6925833333225,
      "v": 90
    },
    {
      "midi": 65,
      "hit": false,
      "t": 152189.70999999996,
      "d": 1838.5027916666586,
      "v": 90
    },
    {
      "midi": 67,
      "hit": false,
      "t": 154160.51199999996,
      "d": 1345.8022916666523,
      "v": 90
    },
    {
      "midi": 65,
      "hit": false,
      "t": 154160.51199999996,
      "d": 1359.4884166666598,
      "v": 90
    },
    {
      "midi": 74,
      "hit": false,
      "t": 154160.51199999996,
      "d": 1359.4884166666598,
      "v": 90
    },
    {
      "midi": 70,
      "hit": false,
      "t": 154160.51199999996,
      "d": 1368.6124999999884,
      "v": 90
    },
    {
      "midi": 67,
      "hit": false,
      "t": 155693.35799999995,
      "d": 1756.386041666672,
      "v": 90
    },
    {
      "midi": 70,
      "hit": false,
      "t": 155693.35799999995,
      "d": 1774.6342083333293,
      "v": 90
    },
    {
      "midi": 65,
      "hit": false,
      "t": 155693.35799999995,
      "d": 1802.006458333315,
      "v": 90
    },
    {
      "midi": 74,
      "hit": false,
      "t": 155693.35799999995,
      "d": 1815.6925833333225,
      "v": 90
    },
    {
      "midi": 72,
      "hit": false,
      "t": 157664.15999999995,
      "d": 1368.6124999999884,
      "v": 90
    },
    {
      "midi": 74,
      "hit": false,
      "t": 157664.15999999995,
      "d": 1368.6124999999884,
      "v": 90
    },
    {
      "midi": 69,
      "hit": false,
      "t": 157664.15999999995,
      "d": 1395.9847499999742,
      "v": 90
    },
    {
      "midi": 65,
      "hit": false,
      "t": 157664.15999999995,
      "d": 1400.546791666653,
      "v": 90
    },
    {
      "midi": 67,
      "hit": false,
      "t": 159197.00599999994,
      "d": 1806.568499999994,
      "v": 90
    },
    {
      "midi": 69,
      "hit": false,
      "t": 159197.00599999994,
      "d": 1806.568499999994,
      "v": 90
    },
    {
      "midi": 72,
      "hit": false,
      "t": 159197.00599999994,
      "d": 1833.9407499999797,
      "v": 90
    },
    {
      "midi": 74,
      "hit": false,
      "t": 161167.8079999999,
      "d": 1596.7145833333198,
      "v": 90
    },
    {
      "midi": 72,
      "hit": false,
      "t": 161167.8079999999,
      "d": 1610.4007083333272,
      "v": 90
    },
    {
      "midi": 69,
      "hit": false,
      "t": 161167.8079999999,
      "d": 1619.5247916666558,
      "v": 90
    },
    {
      "midi": 65,
      "hit": false,
      "t": 161167.8079999999,
      "d": 1624.0868333333347,
      "v": 90
    },
    {
      "midi": 69,
      "hit": false,
      "t": 162919.6319999999,
      "d": 82.1167499999865,
      "v": 90
    },
    {
      "midi": 74,
      "hit": false,
      "t": 162919.6319999999,
      "d": 95.80287499999395,
      "v": 90
    },
    {
      "midi": 65,
      "hit": false,
      "t": 162919.6319999999,
      "d": 100.3649166666728,
      "v": 90
    },
    {
      "midi": 72,
      "hit": false,
      "t": 162919.6319999999,
      "d": 100.3649166666728,
      "v": 90
    },
    {
      "midi": 53,
      "hit": false,
      "t": 164671.4559999999,
      "d": 1332.116166666674,
      "v": 90
    },
    {
      "midi": 57,
      "hit": false,
      "t": 164671.4559999999,
      "d": 1341.2402500000026,
      "v": 90
    },
    {
      "midi": 60,
      "hit": false,
      "t": 164671.4559999999,
      "d": 1345.8022916666814,
      "v": 90
    },
    {
      "midi": 50,
      "hit": false,
      "t": 164671.4559999999,
      "d": 1354.92637500001,
      "v": 90
    },
    {
      "midi": 50,
      "hit": false,
      "t": 166204.3019999999,
      "d": 1847.6268749999872,
      "v": 90
    },
    {
      "midi": 53,
      "hit": false,
      "t": 166204.3019999999,
      "d": 1847.6268749999872,
      "v": 90
    },
    {
      "midi": 57,
      "hit": false,
      "t": 166204.3019999999,
      "d": 1870.4370833333232,
      "v": 90
    },
    {
      "midi": 60,
      "hit": false,
      "t": 166204.3019999999,
      "d": 1870.4370833333232,
      "v": 90
    },
    {
      "midi": 55,
      "hit": false,
      "t": 168175.1039999999,
      "d": 1336.6782083333237,
      "v": 90
    },
    {
      "midi": 60,
      "hit": false,
      "t": 168175.1039999999,
      "d": 1336.6782083333237,
      "v": 90
    },
    {
      "midi": 52,
      "hit": false,
      "t": 168175.1039999999,
      "d": 1350.3643333333312,
      "v": 90
    },
    {
      "midi": 57,
      "hit": false,
      "t": 168175.1039999999,
      "d": 1350.3643333333312,
      "v": 90
    },
    {
      "midi": 52,
      "hit": false,
      "t": 169707.9499999999,
      "d": 1802.0064583333442,
      "v": 90
    },
    {
      "midi": 55,
      "hit": false,
      "t": 169707.9499999999,
      "d": 1806.568500000023,
      "v": 90
    },
    {
      "midi": 57,
      "hit": false,
      "t": 169707.9499999999,
      "d": 1820.2546250000305,
      "v": 90
    },
    {
      "midi": 60,
      "hit": false,
      "t": 169707.9499999999,
      "d": 1829.378708333359,
      "v": 90
    },
    {
      "midi": 57,
      "hit": false,
      "t": 171678.75199999992,
      "d": 1368.6124999999884,
      "v": 90
    },
    {
      "midi": 62,
      "hit": false,
      "t": 171678.75199999992,
      "d": 1373.1745416666672,
      "v": 90
    },
    {
      "midi": 60,
      "hit": false,
      "t": 171678.75199999992,
      "d": 1382.2986249999958,
      "v": 90
    },
    {
      "midi": 53,
      "hit": false,
      "t": 171678.75199999992,
      "d": 1386.8606666666747,
      "v": 90
    },
    {
      "midi": 60,
      "hit": false,
      "t": 173211.59799999994,
      "d": 1797.4444166666653,
      "v": 90
    },
    {
      "midi": 57,
      "hit": false,
      "t": 173211.59799999994,
      "d": 1815.6925833333225,
      "v": 90
    },
    {
      "midi": 62,
      "hit": false,
      "t": 173211.59799999994,
      "d": 1815.6925833333225,
      "v": 90
    },
    {
      "midi": 53,
      "hit": false,
      "t": 173211.59799999994,
      "d": 1838.5027916666586,
      "v": 90
    },
    {
      "midi": 55,
      "hit": false,
      "t": 175182.39999999994,
      "d": 1345.8022916666523,
      "v": 90
    },
    {
      "midi": 53,
      "hit": false,
      "t": 175182.39999999994,
      "d": 1359.4884166666598,
      "v": 90
    },
    {
      "midi": 62,
      "hit": false,
      "t": 175182.39999999994,
      "d": 1359.4884166666598,
      "v": 90
    },
    {
      "midi": 58,
      "hit": false,
      "t": 175182.39999999994,
      "d": 1368.6124999999884,
      "v": 90
    },
    {
      "midi": 55,
      "hit": false,
      "t": 176715.24599999993,
      "d": 1756.386041666672,
      "v": 90
    },
    {
      "midi": 58,
      "hit": false,
      "t": 176715.24599999993,
      "d": 1774.6342083333293,
      "v": 90
    },
    {
      "midi": 53,
      "hit": false,
      "t": 176715.24599999993,
      "d": 1802.006458333315,
      "v": 90
    },
    {
      "midi": 62,
      "hit": false,
      "t": 176715.24599999993,
      "d": 1815.6925833333225,
      "v": 90
    },
    {
      "midi": 60,
      "hit": false,
      "t": 178686.04799999992,
      "d": 1368.6124999999884,
      "v": 90
    },
    {
      "midi": 62,
      "hit": false,
      "t": 178686.04799999992,
      "d": 1368.6124999999884,
      "v": 90
    },
    {
      "midi": 57,
      "hit": false,
      "t": 178686.04799999992,
      "d": 1395.9847499999742,
      "v": 90
    },
    {
      "midi": 53,
      "hit": false,
      "t": 178686.04799999992,
      "d": 1400.546791666653,
      "v": 90
    },
    {
      "midi": 52,
      "hit": false,
      "t": 180218.8939999999,
      "d": 1797.4444166666653,
      "v": 90
    },
    {
      "midi": 55,
      "hit": false,
      "t": 180218.8939999999,
      "d": 1806.568499999994,
      "v": 90
    },
    {
      "midi": 57,
      "hit": false,
      "t": 180218.8939999999,
      "d": 1806.568499999994,
      "v": 90
    },
    {
      "midi": 60,
      "hit": false,
      "t": 180218.8939999999,
      "d": 1833.9407499999797,
      "v": 90
    },
    {
      "midi": 62,
      "hit": false,
      "t": 182189.69599999988,
      "d": 1596.7145833333198,
      "v": 90
    },
    {
      "midi": 60,
      "hit": false,
      "t": 182189.69599999988,
      "d": 1610.4007083333272,
      "v": 90
    },
    {
      "midi": 57,
      "hit": false,
      "t": 182189.69599999988,
      "d": 1619.5247916666558,
      "v": 90
    },
    {
      "midi": 53,
      "hit": false,
      "t": 182189.69599999988,
      "d": 1624.0868333333347,
      "v": 90
    },
    {
      "midi": 54,
      "hit": false,
      "t": 203211.5839999999,
      "d": 269.16045833332464,
      "v": 90
    },
    {
      "midi": 50,
      "hit": false,
      "t": 203211.5839999999,
      "d": 1660.5831666666782,
      "v": 90
    },
    {
      "midi": 54,
      "hit": false,
      "t": 203540.0509999999,
      "d": 1345.8022916666814,
      "v": 90
    },
    {
      "midi": 66,
      "hit": false,
      "t": 203540.0509999999,
      "d": 3161.494875000004,
      "v": 90
    },
    {
      "midi": 69,
      "hit": false,
      "t": 203540.0509999999,
      "d": 3175.1810000000114,
      "v": 90
    },
    {
      "midi": 74,
      "hit": false,
      "t": 203540.0509999999,
      "d": 3202.553249999997,
      "v": 90
    },
    {
      "midi": 50,
      "hit": false,
      "t": 206715.2319999999,
      "d": 241.78820833330974,
      "v": 90
    },
    {
      "midi": 54,
      "hit": false,
      "t": 206715.2319999999,
      "d": 250.91229166663834,
      "v": 90
    },
    {
      "midi": 50,
      "hit": false,
      "t": 207043.69899999988,
      "d": 1341.2402500000026,
      "v": 90
    },
    {
      "midi": 54,
      "hit": false,
      "t": 207043.69899999988,
      "d": 1359.4884166666598,
      "v": 90
    },
    {
      "midi": 69,
      "hit": false,
      "t": 207043.69899999988,
      "d": 2988.1372916666733,
      "v": 90
    },
    {
      "midi": 66,
      "hit": false,
      "t": 207043.69899999988,
      "d": 2992.699333333352,
      "v": 90
    },
    {
      "midi": 74,
      "hit": false,
      "t": 207043.69899999988,
      "d": 2992.699333333352,
      "v": 90
    },
    {
      "midi": 54,
      "hit": false,
      "t": 210218.8799999999,
      "d": 269.16045833332464,
      "v": 90
    },
    {
      "midi": 50,
      "hit": false,
      "t": 210218.8799999999,
      "d": 1660.5831666666782,
      "v": 90
    },
    {
      "midi": 54,
      "hit": false,
      "t": 210547.3469999999,
      "d": 1345.8022916666814,
      "v": 90
    },
    {
      "midi": 66,
      "hit": false,
      "t": 210547.3469999999,
      "d": 3161.494875000004,
      "v": 90
    },
    {
      "midi": 69,
      "hit": false,
      "t": 210547.3469999999,
      "d": 3175.1810000000114,
      "v": 90
    },
    {
      "midi": 74,
      "hit": false,
      "t": 210547.3469999999,
      "d": 3202.553249999997,
      "v": 90
    },
    {
      "midi": 50,
      "hit": false,
      "t": 213722.5279999999,
      "d": 241.78820833330974,
      "v": 90
    },
    {
      "midi": 54,
      "hit": false,
      "t": 213722.5279999999,
      "d": 250.91229166663834,
      "v": 90
    },
    {
      "midi": 50,
      "hit": false,
      "t": 214050.99499999988,
      "d": 1341.2402500000026,
      "v": 90
    },
    {
      "midi": 54,
      "hit": false,
      "t": 214050.99499999988,
      "d": 1359.4884166666598,
      "v": 90
    },
    {
      "midi": 69,
      "hit": false,
      "t": 214050.99499999988,
      "d": 2988.1372916666733,
      "v": 90
    },
    {
      "midi": 66,
      "hit": false,
      "t": 214050.99499999988,
      "d": 2992.699333333352,
      "v": 90
    },
    {
      "midi": 74,
      "hit": false,
      "t": 214050.99499999988,
      "d": 2992.699333333352,
      "v": 90
    },
    {
      "midi": 54,
      "hit": false,
      "t": 217226.1759999999,
      "d": 269.16045833332464,
      "v": 90
    },
    {
      "midi": 50,
      "hit": false,
      "t": 217226.1759999999,
      "d": 1660.5831666666782,
      "v": 90
    },
    {
      "midi": 54,
      "hit": false,
      "t": 217554.6429999999,
      "d": 1345.8022916666814,
      "v": 90
    },
    {
      "midi": 66,
      "hit": false,
      "t": 217554.6429999999,
      "d": 3161.494875000004,
      "v": 90
    },
    {
      "midi": 69,
      "hit": false,
      "t": 217554.6429999999,
      "d": 3175.1810000000114,
      "v": 90
    },
    {
      "midi": 74,
      "hit": false,
      "t": 217554.6429999999,
      "d": 3202.553249999997,
      "v": 90
    },
    {
      "midi": 50,
      "hit": false,
      "t": 220729.8239999999,
      "d": 241.78820833330974,
      "v": 90
    },
    {
      "midi": 54,
      "hit": false,
      "t": 220729.8239999999,
      "d": 250.91229166663834,
      "v": 90
    },
    {
      "midi": 50,
      "hit": false,
      "t": 221058.29099999988,
      "d": 1341.2402500000026,
      "v": 90
    },
    {
      "midi": 54,
      "hit": false,
      "t": 221058.29099999988,
      "d": 1359.4884166666598,
      "v": 90
    },
    {
      "midi": 69,
      "hit": false,
      "t": 221058.29099999988,
      "d": 2988.1372916666733,
      "v": 90
    },
    {
      "midi": 66,
      "hit": false,
      "t": 221058.29099999988,
      "d": 2992.699333333352,
      "v": 90
    },
    {
      "midi": 74,
      "hit": false,
      "t": 221058.29099999988,
      "d": 2992.699333333352,
      "v": 90
    },
    {
      "midi": 54,
      "hit": false,
      "t": 224233.4719999999,
      "d": 269.16045833332464,
      "v": 90
    },
    {
      "midi": 50,
      "hit": false,
      "t": 224233.4719999999,
      "d": 1660.5831666666782,
      "v": 90
    },
    {
      "midi": 54,
      "hit": false,
      "t": 224561.9389999999,
      "d": 1345.8022916666814,
      "v": 90
    },
    {
      "midi": 66,
      "hit": false,
      "t": 224561.9389999999,
      "d": 3161.494875000004,
      "v": 90
    },
    {
      "midi": 69,
      "hit": false,
      "t": 224561.9389999999,
      "d": 3175.1810000000114,
      "v": 90
    },
    {
      "midi": 74,
      "hit": false,
      "t": 224561.9389999999,
      "d": 3202.553249999997,
      "v": 90
    },
    {
      "midi": 50,
      "hit": false,
      "t": 227737.1199999999,
      "d": 241.78820833330974,
      "v": 90
    },
    {
      "midi": 54,
      "hit": false,
      "t": 227737.1199999999,
      "d": 250.91229166663834,
      "v": 90
    },
    {
      "midi": 50,
      "hit": false,
      "t": 228065.58699999988,
      "d": 1341.2402500000026,
      "v": 90
    },
    {
      "midi": 54,
      "hit": false,
      "t": 228065.58699999988,
      "d": 1359.4884166666598,
      "v": 90
    },
    {
      "midi": 50,
      "hit": false,
      "t": 229488.94399999987,
      "d": 1592.152541666699,
      "v": 90
    },
    {
      "midi": 54,
      "hit": false,
      "t": 229817.41099999988,
      "d": 328.4670000000042,
      "v": 90
    },
    {
      "midi": 69,
      "hit": false,
      "t": 229817.41099999988,
      "d": 1236.31329166668,
      "v": 90
    },
    {
      "midi": 66,
      "hit": false,
      "t": 229817.41099999988,
      "d": 1240.8753333333589,
      "v": 90
    },
    {
      "midi": 74,
      "hit": false,
      "t": 229817.41099999988,
      "d": 1240.8753333333589,
      "v": 90
    },
    {
      "midi": 50,
      "hit": false,
      "t": 232992.59199999992,
      "d": 241.78820833333884,
      "v": 90
    },
    {
      "midi": 54,
      "hit": false,
      "t": 232992.59199999992,
      "d": 250.91229166666744,
      "v": 90
    },
    {
      "midi": 50,
      "hit": false,
      "t": 233321.05899999992,
      "d": 1341.2402500000026,
      "v": 90
    },
    {
      "midi": 54,
      "hit": false,
      "t": 233321.05899999992,
      "d": 1359.4884166666598,
      "v": 90
    },
    {
      "midi": 69,
      "hit": false,
      "t": 233321.05899999992,
      "d": 2988.1372916666733,
      "v": 90
    },
    {
      "midi": 66,
      "hit": false,
      "t": 233321.05899999992,
      "d": 2992.699333333352,
      "v": 90
    },
    {
      "midi": 74,
      "hit": false,
      "t": 233321.05899999992,
      "d": 2992.699333333352,
      "v": 90
    },
    {
      "midi": 50,
      "hit": false,
      "t": 236496.23999999993,
      "d": 241.78820833333884,
      "v": 90
    },
    {
      "midi": 54,
      "hit": false,
      "t": 236496.23999999993,
      "d": 250.91229166666744,
      "v": 90
    },
    {
      "midi": 50,
      "hit": false,
      "t": 236824.70699999994,
      "d": 1341.2402500000026,
      "v": 90
    },
    {
      "midi": 54,
      "hit": false,
      "t": 236824.70699999994,
      "d": 1359.4884166666598,
      "v": 90
    },
    {
      "midi": 69,
      "hit": false,
      "t": 236824.70699999994,
      "d": 2988.1372916666733,
      "v": 90
    },
    {
      "midi": 66,
      "hit": false,
      "t": 236824.70699999994,
      "d": 2992.699333333352,
      "v": 90
    },
    {
      "midi": 74,
      "hit": false,
      "t": 236824.70699999994,
      "d": 2992.699333333352,
      "v": 90
    },
    {
      "midi": 54,
      "hit": false,
      "t": 239999.88799999995,
      "d": 269.16045833332464,
      "v": 90
    },
    {
      "midi": 50,
      "hit": false,
      "t": 239999.88799999995,
      "d": 1660.5831666666782,
      "v": 90
    },
    {
      "midi": 54,
      "hit": false,
      "t": 240328.35499999995,
      "d": 1345.8022916666814,
      "v": 90
    },
    {
      "midi": 66,
      "hit": false,
      "t": 240328.35499999995,
      "d": 3161.494875000004,
      "v": 90
    },
    {
      "midi": 69,
      "hit": false,
      "t": 240328.35499999995,
      "d": 3175.1810000000114,
      "v": 90
    },
    {
      "midi": 74,
      "hit": false,
      "t": 240328.35499999995,
      "d": 3202.553249999997,
      "v": 90
    },
    {
      "midi": 50,
      "hit": false,
      "t": 243503.53599999996,
      "d": 241.78820833330974,
      "v": 90
    },
    {
      "midi": 54,
      "hit": false,
      "t": 243503.53599999996,
      "d": 250.91229166663834,
      "v": 90
    },
    {
      "midi": 50,
      "hit": false,
      "t": 243832.00299999994,
      "d": 1341.2402500000026,
      "v": 90
    },
    {
      "midi": 54,
      "hit": false,
      "t": 243832.00299999994,
      "d": 1359.4884166666598,
      "v": 90
    },
    {
      "midi": 69,
      "hit": false,
      "t": 243832.00299999994,
      "d": 2988.1372916666733,
      "v": 90
    },
    {
      "midi": 66,
      "hit": false,
      "t": 243832.00299999994,
      "d": 2992.699333333352,
      "v": 90
    },
    {
      "midi": 74,
      "hit": false,
      "t": 243832.00299999994,
      "d": 2992.699333333352,
      "v": 90
    },
    {
      "midi": 54,
      "hit": false,
      "t": 247007.18399999995,
      "d": 269.16045833332464,
      "v": 90
    },
    {
      "midi": 50,
      "hit": false,
      "t": 247007.18399999995,
      "d": 1660.5831666666782,
      "v": 90
    },
    {
      "midi": 54,
      "hit": false,
      "t": 247335.65099999995,
      "d": 1345.8022916666814,
      "v": 90
    },
    {
      "midi": 66,
      "hit": false,
      "t": 247335.65099999995,
      "d": 3161.494875000004,
      "v": 90
    },
    {
      "midi": 69,
      "hit": false,
      "t": 247335.65099999995,
      "d": 3175.1810000000114,
      "v": 90
    },
    {
      "midi": 74,
      "hit": false,
      "t": 247335.65099999995,
      "d": 3202.553249999997,
      "v": 90
    },
    {
      "midi": 50,
      "hit": false,
      "t": 250510.83199999997,
      "d": 241.78820833330974,
      "v": 90
    },
    {
      "midi": 54,
      "hit": false,
      "t": 250510.83199999997,
      "d": 250.91229166663834,
      "v": 90
    },
    {
      "midi": 50,
      "hit": false,
      "t": 250839.29899999994,
      "d": 1341.2402500000026,
      "v": 90
    },
    {
      "midi": 54,
      "hit": false,
      "t": 250839.29899999994,
      "d": 1359.4884166666598,
      "v": 90
    },
    {
      "midi": 69,
      "hit": false,
      "t": 250839.29899999994,
      "d": 2988.137291666644,
      "v": 90
    },
    {
      "midi": 66,
      "hit": false,
      "t": 250839.29899999994,
      "d": 2992.699333333323,
      "v": 90
    },
    {
      "midi": 74,
      "hit": false,
      "t": 250839.29899999994,
      "d": 2992.699333333323,
      "v": 90
    },
    {
      "midi": 50,
      "hit": false,
      "t": 252262.65599999993,
      "d": 1592.15254166667,
      "v": 90
    },
    {
      "midi": 54,
      "hit": false,
      "t": 252262.65599999993,
      "d": 1596.7145833333489,
      "v": 90
    },
    {
      "midi": 54,
      "hit": false,
      "t": 254014.47999999995,
      "d": 269.16045833332464,
      "v": 90
    },
    {
      "midi": 50,
      "hit": false,
      "t": 254014.47999999995,
      "d": 1660.5831666666782,
      "v": 90
    },
    {
      "midi": 54,
      "hit": false,
      "t": 254342.94699999996,
      "d": 1345.8022916666814,
      "v": 90
    },
    {
      "midi": 66,
      "hit": false,
      "t": 254342.94699999996,
      "d": 3161.494875000004,
      "v": 90
    },
    {
      "midi": 69,
      "hit": false,
      "t": 254342.94699999996,
      "d": 3175.1810000000114,
      "v": 90
    },
    {
      "midi": 74,
      "hit": false,
      "t": 254342.94699999996,
      "d": 3202.553249999997,
      "v": 90
    },
    {
      "midi": 50,
      "hit": false,
      "t": 257518.12799999997,
      "d": 241.78820833330974,
      "v": 90
    },
    {
      "midi": 54,
      "hit": false,
      "t": 257518.12799999997,
      "d": 250.91229166663834,
      "v": 90
    },
    {
      "midi": 50,
      "hit": false,
      "t": 257846.59499999994,
      "d": 1341.2402500000026,
      "v": 90
    },
    {
      "midi": 54,
      "hit": false,
      "t": 257846.59499999994,
      "d": 1359.4884166666598,
      "v": 90
    },
    {
      "midi": 74,
      "hit": false,
      "t": 257846.59499999994,
      "d": 1478.1014999999898,
      "v": 90
    },
    {
      "midi": 69,
      "hit": false,
      "t": 257846.59499999994,
      "d": 2988.137291666644,
      "v": 90
    },
    {
      "midi": 66,
      "hit": false,
      "t": 257846.59499999994,
      "d": 2992.699333333323,
      "v": 90
    },
    {
      "midi": 62,
      "hit": false,
      "t": 259292.76220833327,
      "d": 1601.2766249999986,
      "v": 90
    },
    {
      "midi": 72,
      "hit": false,
      "t": 259297.32424999995,
      "d": 1592.152541666641,
      "v": 90
    },
    {
      "midi": 54,
      "hit": false,
      "t": 261021.77599999993,
      "d": 269.16045833332464,
      "v": 90
    },
    {
      "midi": 50,
      "hit": false,
      "t": 261021.77599999993,
      "d": 1660.583166666649,
      "v": 90
    },
    {
      "midi": 71,
      "hit": false,
      "t": 261040.02416666658,
      "d": 1592.15254166667,
      "v": 90
    },
    {
      "midi": 62,
      "hit": false,
      "t": 261044.58620833326,
      "d": 1592.152541666641,
      "v": 90
    },
    {
      "midi": 54,
      "hit": false,
      "t": 261350.24299999993,
      "d": 1345.8022916666523,
      "v": 90
    },
    {
      "midi": 70,
      "hit": false,
      "t": 262787.2861249999,
      "d": 1724.4517500000075,
      "v": 90
    },
    {
      "midi": 66,
      "hit": false,
      "t": 266277.2479999999,
      "d": 109.4890000000014,
      "v": 90
    },
    {
      "midi": 69,
      "hit": false,
      "t": 266277.2479999999,
      "d": 109.4890000000014,
      "v": 90
    },
    {
      "midi": 74,
      "hit": false,
      "t": 266277.2479999999,
      "d": 109.4890000000014,
      "v": 90
    },
    {
      "midi": 66,
      "hit": false,
      "t": 268029.0719999999,
      "d": 54.744499999971595,
      "v": 90
    },
    {
      "midi": 69,
      "hit": false,
      "t": 268029.0719999999,
      "d": 54.744499999971595,
      "v": 90
    },
    {
      "midi": 74,
      "hit": false,
      "t": 268029.0719999999,
      "d": 54.744499999971595,
      "v": 90
    },
    {
      "midi": 62,
      "hit": false,
      "t": 280291.8399999999,
      "d": 118.6130833333591,
      "v": 90
    },
    {
      "midi": 57,
      "hit": false,
      "t": 280291.8399999999,
      "d": 141.42329166666605,
      "v": 90
    },
    {
      "midi": 62,
      "hit": false,
      "t": 280510.8179999999,
      "d": 114.05104166665114,
      "v": 90
    },
    {
      "midi": 57,
      "hit": false,
      "t": 280510.8179999999,
      "d": 132.29920833330834,
      "v": 90
    },
    {
      "midi": 60,
      "hit": false,
      "t": 280729.7959999999,
      "d": 232.66412500001024,
      "v": 90
    },
    {
      "midi": 57,
      "hit": false,
      "t": 280729.7959999999,
      "d": 246.3502500000177,
      "v": 90
    },
    {
      "midi": 62,
      "hit": false,
      "t": 281058.2629999999,
      "d": 114.05104166665114,
      "v": 90
    },
    {
      "midi": 57,
      "hit": false,
      "t": 281058.2629999999,
      "d": 136.8612499999581,
      "v": 90
    },
    {
      "midi": 62,
      "hit": false,
      "t": 281277.24099999986,
      "d": 95.80287499999395,
      "v": 90
    },
    {
      "midi": 57,
      "hit": false,
      "t": 281277.24099999986,
      "d": 114.05104166665114,
      "v": 90
    },
    {
      "midi": 60,
      "hit": false,
      "t": 281496.21899999987,
      "d": 118.6130833333591,
      "v": 90
    },
    {
      "midi": 57,
      "hit": false,
      "t": 281496.21899999987,
      "d": 123.17512500000885,
      "v": 90
    },
    {
      "midi": 60,
      "hit": false,
      "t": 281715.19699999987,
      "d": 118.6130833333591,
      "v": 90
    },
    {
      "midi": 57,
      "hit": false,
      "t": 281715.19699999987,
      "d": 141.42329166666605,
      "v": 90
    },
    {
      "midi": 57,
      "hit": false,
      "t": 281934.1749999999,
      "d": 72.992666666687,
      "v": 90
    },
    {
      "midi": 60,
      "hit": false,
      "t": 281934.1749999999,
      "d": 72.992666666687,
      "v": 90
    },
    {
      "midi": 62,
      "hit": false,
      "t": 282043.6639999999,
      "d": 104.92695833335165,
      "v": 90
    },
    {
      "midi": 57,
      "hit": false,
      "t": 282043.6639999999,
      "d": 118.6130833333591,
      "v": 90
    },
    {
      "midi": 57,
      "hit": false,
      "t": 282262.6419999999,
      "d": 109.4890000000014,
      "v": 90
    },
    {
      "midi": 62,
      "hit": false,
      "t": 282262.6419999999,
      "d": 109.4890000000014,
      "v": 90
    },
    {
      "midi": 57,
      "hit": false,
      "t": 282481.6199999999,
      "d": 237.22616666666,
      "v": 90
    },
    {
      "midi": 60,
      "hit": false,
      "t": 282481.6199999999,
      "d": 237.22616666666,
      "v": 90
    },
    {
      "midi": 62,
      "hit": false,
      "t": 282810.0869999999,
      "d": 95.80287499999395,
      "v": 90
    },
    {
      "midi": 57,
      "hit": false,
      "t": 282810.0869999999,
      "d": 114.05104166665114,
      "v": 90
    },
    {
      "midi": 62,
      "hit": false,
      "t": 283029.0649999999,
      "d": 109.4890000000014,
      "v": 90
    },
    {
      "midi": 57,
      "hit": false,
      "t": 283029.0649999999,
      "d": 114.05104166665114,
      "v": 90
    },
    {
      "midi": 57,
      "hit": false,
      "t": 283248.0429999999,
      "d": 114.05104166665114,
      "v": 90
    },
    {
      "midi": 60,
      "hit": false,
      "t": 283248.0429999999,
      "d": 114.05104166665114,
      "v": 90
    },
    {
      "midi": 60,
      "hit": false,
      "t": 283467.0209999999,
      "d": 173.3575833333307,
      "v": 90
    },
    {
      "midi": 57,
      "hit": false,
      "t": 283467.0209999999,
      "d": 200.7298333333456,
      "v": 90
    },
    {
      "midi": 62,
      "hit": false,
      "t": 283685.9989999999,
      "d": 214.41595833335305,
      "v": 90
    },
    {
      "midi": 62,
      "hit": false,
      "t": 284014.4659999999,
      "d": 118.6130833333591,
      "v": 90
    },
    {
      "midi": 57,
      "hit": false,
      "t": 284014.4659999999,
      "d": 127.7371666667168,
      "v": 90
    },
    {
      "midi": 60,
      "hit": false,
      "t": 284233.44399999996,
      "d": 200.7298333333456,
      "v": 90
    },
    {
      "midi": 57,
      "hit": false,
      "t": 284233.44399999996,
      "d": 223.54004166665254,
      "v": 90
    },
    {
      "midi": 57,
      "hit": false,
      "t": 284561.91099999996,
      "d": 123.17512500000885,
      "v": 90
    },
    {
      "midi": 62,
      "hit": false,
      "t": 284561.91099999996,
      "d": 123.17512500000885,
      "v": 90
    },
    {
      "midi": 62,
      "hit": false,
      "t": 284780.88899999997,
      "d": 114.05104166665114,
      "v": 90
    },
    {
      "midi": 57,
      "hit": false,
      "t": 284780.88899999997,
      "d": 118.61308333330089,
      "v": 90
    },
    {
      "midi": 57,
      "hit": false,
      "t": 284999.8669999999,
      "d": 109.4890000000014,
      "v": 90
    },
    {
      "midi": 60,
      "hit": false,
      "t": 284999.8669999999,
      "d": 109.4890000000014,
      "v": 90
    },
    {
      "midi": 57,
      "hit": false,
      "t": 285218.8449999999,
      "d": 104.92695833335165,
      "v": 90
    },
    {
      "midi": 60,
      "hit": false,
      "t": 285218.8449999999,
      "d": 104.92695833335165,
      "v": 90
    },
    {
      "midi": 57,
      "hit": false,
      "t": 285437.8229999999,
      "d": 63.8685833333293,
      "v": 90
    },
    {
      "midi": 60,
      "hit": false,
      "t": 285437.8229999999,
      "d": 77.55470833333675,
      "v": 90
    },
    {
      "midi": 62,
      "hit": false,
      "t": 285547.3119999999,
      "d": 109.4890000000014,
      "v": 90
    },
    {
      "midi": 57,
      "hit": false,
      "t": 285547.3119999999,
      "d": 123.17512500000885,
      "v": 90
    },
    {
      "midi": 62,
      "hit": false,
      "t": 285766.2899999999,
      "d": 86.67879166669445,
      "v": 90
    },
    {
      "midi": 57,
      "hit": false,
      "t": 285766.2899999999,
      "d": 95.80287500005215,
      "v": 90
    },
    {
      "midi": 57,
      "hit": false,
      "t": 285985.268,
      "d": 223.54004166665254,
      "v": 90
    },
    {
      "midi": 60,
      "hit": false,
      "t": 285985.268,
      "d": 237.22616666666,
      "v": 90
    },
    {
      "midi": 62,
      "hit": false,
      "t": 286313.735,
      "d": 100.3649166666437,
      "v": 90
    },
    {
      "midi": 57,
      "hit": false,
      "t": 286313.735,
      "d": 104.92695833329344,
      "v": 90
    },
    {
      "midi": 62,
      "hit": false,
      "t": 286532.71299999993,
      "d": 91.2408333333442,
      "v": 90
    },
    {
      "midi": 57,
      "hit": false,
      "t": 286532.71299999993,
      "d": 95.80287499999395,
      "v": 90
    },
    {
      "midi": 60,
      "hit": false,
      "t": 286751.69099999993,
      "d": 100.3649166666437,
      "v": 90
    },
    {
      "midi": 57,
      "hit": false,
      "t": 286751.69099999993,
      "d": 118.61308333330089,
      "v": 90
    },
    {
      "midi": 60,
      "hit": false,
      "t": 286970.6689999999,
      "d": 114.05104166665114,
      "v": 90
    },
    {
      "midi": 57,
      "hit": false,
      "t": 286970.6689999999,
      "d": 118.61308333330089,
      "v": 90
    },
    {
      "midi": 60,
      "hit": false,
      "t": 287189.6469999998,
      "d": 63.8685833333293,
      "v": 90
    },
    {
      "midi": 57,
      "hit": false,
      "t": 287189.6469999998,
      "d": 223.54004166665254,
      "v": 90
    },
    {
      "midi": 62,
      "hit": false,
      "t": 287299.1359999998,
      "d": 118.61308333330089,
      "v": 90
    },
    {
      "midi": 62,
      "hit": false,
      "t": 287518.11399999977,
      "d": 95.80287499999395,
      "v": 90
    },
    {
      "midi": 57,
      "hit": false,
      "t": 287518.11399999977,
      "d": 109.4890000000014,
      "v": 90
    },
    {
      "midi": 60,
      "hit": false,
      "t": 287737.0919999998,
      "d": 228.1020833333605,
      "v": 90
    },
    {
      "midi": 57,
      "hit": false,
      "t": 287737.0919999998,
      "d": 246.3502500000177,
      "v": 90
    },
    {
      "midi": 62,
      "hit": false,
      "t": 288065.5589999998,
      "d": 104.92695833335165,
      "v": 90
    },
    {
      "midi": 57,
      "hit": false,
      "t": 288065.5589999998,
      "d": 127.7371666666586,
      "v": 90
    },
    {
      "midi": 62,
      "hit": false,
      "t": 288284.5369999998,
      "d": 100.3649166666437,
      "v": 90
    },
    {
      "midi": 57,
      "hit": false,
      "t": 288284.5369999998,
      "d": 114.05104166665114,
      "v": 90
    },
    {
      "midi": 60,
      "hit": false,
      "t": 288503.5149999998,
      "d": 91.2408333333442,
      "v": 90
    },
    {
      "midi": 57,
      "hit": false,
      "t": 288503.5149999998,
      "d": 95.80287499999395,
      "v": 90
    },
    {
      "midi": 60,
      "hit": false,
      "t": 288722.4929999998,
      "d": 104.92695833335165,
      "v": 90
    },
    {
      "midi": 57,
      "hit": false,
      "t": 288722.4929999998,
      "d": 109.4890000000014,
      "v": 90
    },
    {
      "midi": 60,
      "hit": false,
      "t": 288941.4709999998,
      "d": 72.992666666687,
      "v": 90
    },
    {
      "midi": 57,
      "hit": false,
      "t": 288941.4709999998,
      "d": 232.66412500001024,
      "v": 90
    },
    {
      "midi": 62,
      "hit": false,
      "t": 289050.9599999998,
      "d": 127.7371666666586,
      "v": 90
    },
    {
      "midi": 57,
      "hit": false,
      "t": 289269.9379999998,
      "d": 104.92695833335165,
      "v": 90
    },
    {
      "midi": 62,
      "hit": false,
      "t": 289269.9379999998,
      "d": 109.4890000000014,
      "v": 90
    },
    {
      "midi": 60,
      "hit": false,
      "t": 289488.9159999998,
      "d": 237.22616666666,
      "v": 90
    },
    {
      "midi": 57,
      "hit": false,
      "t": 289488.9159999998,
      "d": 246.3502500000177,
      "v": 90
    },
    {
      "midi": 62,
      "hit": false,
      "t": 289817.3829999998,
      "d": 100.3649166666437,
      "v": 90
    },
    {
      "midi": 57,
      "hit": false,
      "t": 289817.3829999998,
      "d": 118.61308333330089,
      "v": 90
    },
    {
      "midi": 62,
      "hit": false,
      "t": 290036.36099999974,
      "d": 104.92695833335165,
      "v": 90
    },
    {
      "midi": 57,
      "hit": false,
      "t": 290036.36099999974,
      "d": 109.4890000000014,
      "v": 90
    },
    {
      "midi": 57,
      "hit": false,
      "t": 290255.33899999975,
      "d": 109.4890000000014,
      "v": 90
    },
    {
      "midi": 60,
      "hit": false,
      "t": 290255.33899999975,
      "d": 109.4890000000014,
      "v": 90
    },
    {
      "midi": 60,
      "hit": false,
      "t": 290474.31699999975,
      "d": 155.1094166666735,
      "v": 90
    },
    {
      "midi": 57,
      "hit": false,
      "t": 290474.31699999975,
      "d": 168.79554166668095,
      "v": 90
    },
    {
      "midi": 60,
      "hit": false,
      "t": 290693.29499999975,
      "d": 72.992666666687,
      "v": 90
    },
    {
      "midi": 57,
      "hit": false,
      "t": 290693.29499999975,
      "d": 214.41595833335305,
      "v": 90
    },
    {
      "midi": 62,
      "hit": false,
      "t": 290802.78399999975,
      "d": 109.4890000000014,
      "v": 90
    },
    {
      "midi": 62,
      "hit": false,
      "t": 291021.76199999976,
      "d": 118.6130833333591,
      "v": 90
    },
    {
      "midi": 57,
      "hit": false,
      "t": 291021.76199999976,
      "d": 141.42329166666605,
      "v": 90
    },
    {
      "midi": 60,
      "hit": false,
      "t": 291240.73999999976,
      "d": 214.41595833335305,
      "v": 90
    },
    {
      "midi": 57,
      "hit": false,
      "t": 291240.73999999976,
      "d": 237.22616666666,
      "v": 90
    },
    {
      "midi": 62,
      "hit": false,
      "t": 291569.20699999976,
      "d": 118.6130833333591,
      "v": 90
    },
    {
      "midi": 57,
      "hit": false,
      "t": 291569.20699999976,
      "d": 132.29920833336655,
      "v": 90
    },
    {
      "midi": 57,
      "hit": false,
      "t": 291788.1849999998,
      "d": 118.6130833333591,
      "v": 90
    },
    {
      "midi": 62,
      "hit": false,
      "t": 291788.1849999998,
      "d": 123.17512500000885,
      "v": 90
    },
    {
      "midi": 57,
      "hit": false,
      "t": 292007.1629999998,
      "d": 104.92695833335165,
      "v": 90
    },
    {
      "midi": 60,
      "hit": false,
      "t": 292007.1629999998,
      "d": 104.92695833335165,
      "v": 90
    },
    {
      "midi": 60,
      "hit": false,
      "t": 292226.1409999998,
      "d": 109.4890000000014,
      "v": 90
    },
    {
      "midi": 57,
      "hit": false,
      "t": 292226.1409999998,
      "d": 114.05104166665114,
      "v": 90
    },
    {
      "midi": 57,
      "hit": false,
      "t": 292445.11899999983,
      "d": 63.8685833333293,
      "v": 90
    },
    {
      "midi": 60,
      "hit": false,
      "t": 292445.11899999983,
      "d": 68.43062499997905,
      "v": 90
    },
    {
      "midi": 62,
      "hit": false,
      "t": 292554.60799999983,
      "d": 95.80287499999395,
      "v": 90
    },
    {
      "midi": 57,
      "hit": false,
      "t": 292554.60799999983,
      "d": 100.3649166666437,
      "v": 90
    },
    {
      "midi": 57,
      "hit": false,
      "t": 292773.58599999984,
      "d": 109.4890000000014,
      "v": 90
    },
    {
      "midi": 62,
      "hit": false,
      "t": 292773.58599999984,
      "d": 109.4890000000014,
      "v": 90
    },
    {
      "midi": 60,
      "hit": false,
      "t": 292992.56399999984,
      "d": 200.7298333333456,
      "v": 90
    },
    {
      "midi": 57,
      "hit": false,
      "t": 292992.56399999984,
      "d": 209.8539166667033,
      "v": 90
    },
    {
      "midi": 57,
      "hit": false,
      "t": 293321.0309999999,
      "d": 104.92695833335165,
      "v": 90
    },
    {
      "midi": 62,
      "hit": false,
      "t": 293321.0309999999,
      "d": 109.4890000000014,
      "v": 90
    },
    {
      "midi": 62,
      "hit": false,
      "t": 293540.0089999999,
      "d": 118.6130833333591,
      "v": 90
    },
    {
      "midi": 57,
      "hit": false,
      "t": 293540.0089999999,
      "d": 123.17512500000885,
      "v": 90
    },
    {
      "midi": 57,
      "hit": false,
      "t": 293758.9869999999,
      "d": 100.3649166666437,
      "v": 90
    },
    {
      "midi": 60,
      "hit": false,
      "t": 293758.9869999999,
      "d": 104.92695833329344,
      "v": 90
    },
    {
      "midi": 60,
      "hit": false,
      "t": 293977.96499999985,
      "d": 100.3649166666437,
      "v": 90
    },
    {
      "midi": 57,
      "hit": false,
      "t": 293977.96499999985,
      "d": 123.17512499995064,
      "v": 90
    },
    {
      "midi": 60,
      "hit": false,
      "t": 294306.4319999998,
      "d": 638.6858333333512,
      "v": 90
    },
    {
      "midi": 48,
      "hit": false,
      "t": 294306.4319999998,
      "d": 652.3719583333586,
      "v": 90
    },
    {
      "midi": 64,
      "hit": false,
      "t": 294306.4319999998,
      "d": 716.2405416666297,
      "v": 90
    },
    {
      "midi": 59,
      "hit": false,
      "t": 294963.3659999998,
      "d": 510.9486666666344,
      "v": 90
    },
    {
      "midi": 47,
      "hit": false,
      "t": 294963.3659999998,
      "d": 583.9413333333214,
      "v": 90
    },
    {
      "midi": 62,
      "hit": false,
      "t": 294963.3659999998,
      "d": 652.3719583333004,
      "v": 90
    },
    {
      "midi": 55,
      "hit": false,
      "t": 295018.1104999998,
      "d": 54.744499999971595,
      "v": 90
    },
    {
      "midi": 52,
      "hit": false,
      "t": 295620.29999999976,
      "d": 3923.355833333335,
      "v": 90
    },
    {
      "midi": 57,
      "hit": false,
      "t": 295620.29999999976,
      "d": 3923.355833333335,
      "v": 90
    },
    {
      "midi": 61,
      "hit": false,
      "t": 295620.29999999976,
      "d": 3941.603999999992,
      "v": 90
    },
    {
      "midi": 45,
      "hit": false,
      "t": 295620.29999999976,
      "d": 3978.1003333333065,
      "v": 90
    }
  ]
}