{
  "jsonPath": "Electronic/Disco/Santa Esmeralda/youre-my-everything-re-recording.json",
  "path": "Electronic\\Disco\\Santa Esmeralda\\Youre My Everything - Re-Recording.mid",
  "name": "Youre My Everything - Re-Recording",
  "difficulty": "Advanced",
  "bpm": 94.99999208333399,
  "notes": [
    {
      "midi": 67,
      "hit": false,
      "t": 52515.625,
      "d": 1109.375,
      "v": 85
    },
    {
      "midi": 58,
      "hit": false,
      "t": 52515.625,
      "d": 2984.375,
      "v": 85
    },
    {
      "midi": 62,
      "hit": false,
      "t": 52515.625,
      "d": 2984.375,
      "v": 80
    },
    {
      "midi": 66,
      "hit": false,
      "t": 54007.8125,
      "d": 750,
      "v": 85
    },
    {
      "midi": 65,
      "hit": false,
      "t": 54734.375,
      "d": 757.8125,
      "v": 85
    },
    {
      "midi": 55,
      "hit": false,
      "t": 55492.1875,
      "d": 617.1875,
      "v": 97
    },
    {
      "midi": 63,
      "hit": false,
      "t": 55492.1875,
      "d": 703.125,
      "v": 88
    },
    {
      "midi": 70,
      "hit": false,
      "t": 55492.1875,
      "d": 734.375,
      "v": 80
    },
    {
      "midi": 58,
      "hit": false,
      "t": 56617.1875,
      "d": 257.8125,
      "v": 80
    },
    {
      "midi": 67,
      "hit": false,
      "t": 56617.1875,
      "d": 296.875,
      "v": 94
    },
    {
      "midi": 75,
      "hit": false,
      "t": 56617.1875,
      "d": 296.875,
      "v": 85
    },
    {
      "midi": 63,
      "hit": false,
      "t": 57367.1875,
      "d": 132.8125,
      "v": 91
    },
    {
      "midi": 67,
      "hit": false,
      "t": 57492.1875,
      "d": 125,
      "v": 77
    },
    {
      "midi": 70,
      "hit": false,
      "t": 57617.1875,
      "d": 125,
      "v": 73
    },
    {
      "midi": 74,
      "hit": false,
      "t": 57742.1875,
      "d": 250,
      "v": 91
    },
    {
      "midi": 72,
      "hit": false,
      "t": 57992.1875,
      "d": 250,
      "v": 94
    },
    {
      "midi": 70,
      "hit": false,
      "t": 58242.1875,
      "d": 250,
      "v": 97
    },
    {
      "midi": 57,
      "hit": false,
      "t": 58492.1875,
      "d": 953.125,
      "v": 80
    },
    {
      "midi": 65,
      "hit": false,
      "t": 58492.1875,
      "d": 1046.875,
      "v": 85
    },
    {
      "midi": 74,
      "hit": false,
      "t": 58492.1875,
      "d": 1070.3125,
      "v": 82
    },
    {
      "midi": 69,
      "hit": false,
      "t": 59992.1875,
      "d": 375,
      "v": 94
    },
    {
      "midi": 65,
      "hit": false,
      "t": 59992.1875,
      "d": 750,
      "v": 85
    },
    {
      "midi": 62,
      "hit": false,
      "t": 59992.1875,
      "d": 1500,
      "v": 77
    },
    {
      "midi": 70,
      "hit": false,
      "t": 60367.1875,
      "d": 382.8125,
      "v": 75
    },
    {
      "midi": 69,
      "hit": false,
      "t": 60742.1875,
      "d": 375,
      "v": 82
    },
    {
      "midi": 65,
      "hit": false,
      "t": 61117.1875,
      "d": 375,
      "v": 82
    },
    {
      "midi": 58,
      "hit": false,
      "t": 61492.1875,
      "d": 1484.375,
      "v": 91
    },
    {
      "midi": 67,
      "hit": false,
      "t": 61492.1875,
      "d": 1531.25,
      "v": 80
    },
    {
      "midi": 62,
      "hit": false,
      "t": 61492.1875,
      "d": 2992.1875,
      "v": 82
    },
    {
      "midi": 69,
      "hit": false,
      "t": 62992.1875,
      "d": 765.625,
      "v": 82
    },
    {
      "midi": 57,
      "hit": false,
      "t": 62992.1875,
      "d": 789.0625,
      "v": 82
    },
    {
      "midi": 58,
      "hit": false,
      "t": 63742.1875,
      "d": 742.1875,
      "v": 91
    },
    {
      "midi": 70,
      "hit": false,
      "t": 63742.1875,
      "d": 750,
      "v": 82
    },
    {
      "midi": 74,
      "hit": false,
      "t": 64492.1875,
      "d": 781.25,
      "v": 82
    },
    {
      "midi": 63,
      "hit": false,
      "t": 64492.1875,
      "d": 2992.1875,
      "v": 85
    },
    {
      "midi": 67,
      "hit": false,
      "t": 64492.1875,
      "d": 2992.1875,
      "v": 82
    },
    {
      "midi": 72,
      "hit": false,
      "t": 65242.1875,
      "d": 750,
      "v": 88
    },
    {
      "midi": 70,
      "hit": false,
      "t": 65992.1875,
      "d": 1515.625,
      "v": 80
    },
    {
      "midi": 58,
      "hit": false,
      "t": 66742.1875,
      "d": 750,
      "v": 88
    },
    {
      "midi": 67,
      "hit": false,
      "t": 67492.1875,
      "d": 750,
      "v": 94
    },
    {
      "midi": 58,
      "hit": false,
      "t": 67492.1875,
      "d": 765.625,
      "v": 85
    },
    {
      "midi": 63,
      "hit": false,
      "t": 67492.1875,
      "d": 804.6875,
      "v": 88
    },
    {
      "midi": 58,
      "hit": false,
      "t": 68429.6875,
      "d": 359.375,
      "v": 85
    },
    {
      "midi": 63,
      "hit": false,
      "t": 68617.1875,
      "d": 187.5,
      "v": 82
    },
    {
      "midi": 67,
      "hit": false,
      "t": 68804.6875,
      "d": 54.6875,
      "v": 77
    },
    {
      "midi": 60,
      "hit": false,
      "t": 68992.1875,
      "d": 203.125,
      "v": 88
    },
    {
      "midi": 65,
      "hit": false,
      "t": 68992.1875,
      "d": 226.5625,
      "v": 80
    },
    {
      "midi": 69,
      "hit": false,
      "t": 68992.1875,
      "d": 234.375,
      "v": 80
    },
    {
      "midi": 79,
      "hit": false,
      "t": 69742.1875,
      "d": 203.125,
      "v": 88
    },
    {
      "midi": 84,
      "hit": false,
      "t": 69742.1875,
      "d": 234.375,
      "v": 85
    },
    {
      "midi": 81,
      "hit": false,
      "t": 69929.6875,
      "d": 195.3125,
      "v": 77
    },
    {
      "midi": 77,
      "hit": false,
      "t": 70117.1875,
      "d": 148.4375,
      "v": 80
    },
    {
      "midi": 72,
      "hit": false,
      "t": 70304.6875,
      "d": 179.6875,
      "v": 85
    },
    {
      "midi": 65,
      "hit": false,
      "t": 70492.1875,
      "d": 289.0625,
      "v": 80
    },
    {
      "midi": 69,
      "hit": false,
      "t": 70492.1875,
      "d": 296.875,
      "v": 80
    },
    {
      "midi": 74,
      "hit": false,
      "t": 70492.1875,
      "d": 328.125,
      "v": 91
    },
    {
      "midi": 98,
      "hit": false,
      "t": 70679.6875,
      "d": 70.3125,
      "v": 64
    },
    {
      "midi": 99,
      "hit": false,
      "t": 70773.4375,
      "d": 140.625,
      "v": 70
    },
    {
      "midi": 98,
      "hit": false,
      "t": 70867.1875,
      "d": 210.9375,
      "v": 57
    },
    {
      "midi": 96,
      "hit": false,
      "t": 71054.6875,
      "d": 140.625,
      "v": 85
    },
    {
      "midi": 98,
      "hit": false,
      "t": 71242.1875,
      "d": 921.875,
      "v": 82
    },
    {
      "midi": 94,
      "hit": false,
      "t": 71429.6875,
      "d": 226.5625,
      "v": 60
    },
    {
      "midi": 93,
      "hit": false,
      "t": 71617.1875,
      "d": 250,
      "v": 55
    },
    {
      "midi": 89,
      "hit": false,
      "t": 71804.6875,
      "d": 203.125,
      "v": 60
    },
    {
      "midi": 84,
      "hit": false,
      "t": 71992.1875,
      "d": 164.0625,
      "v": 77
    },
    {
      "midi": 82,
      "hit": false,
      "t": 72179.6875,
      "d": 195.3125,
      "v": 88
    },
    {
      "midi": 94,
      "hit": false,
      "t": 72179.6875,
      "d": 203.125,
      "v": 91
    },
    {
      "midi": 81,
      "hit": false,
      "t": 72367.1875,
      "d": 210.9375,
      "v": 82
    },
    {
      "midi": 89,
      "hit": false,
      "t": 72367.1875,
      "d": 515.625,
      "v": 91
    },
    {
      "midi": 77,
      "hit": false,
      "t": 72554.6875,
      "d": 171.875,
      "v": 80
    },
    {
      "midi": 72,
      "hit": false,
      "t": 72742.1875,
      "d": 164.0625,
      "v": 80
    },
    {
      "midi": 101,
      "hit": false,
      "t": 72929.6875,
      "d": 156.25,
      "v": 102
    },
    {
      "midi": 70,
      "hit": false,
      "t": 72929.6875,
      "d": 210.9375,
      "v": 94
    },
    {
      "midi": 69,
      "hit": false,
      "t": 73117.1875,
      "d": 203.125,
      "v": 85
    },
    {
      "midi": 89,
      "hit": false,
      "t": 73117.1875,
      "d": 367.1875,
      "v": 85
    },
    {
      "midi": 68,
      "hit": false,
      "t": 73304.6875,
      "d": 140.625,
      "v": 82
    },
    {
      "midi": 59,
      "hit": false,
      "t": 73492.1875,
      "d": 351.5625,
      "v": 102
    },
    {
      "midi": 67,
      "hit": false,
      "t": 73492.1875,
      "d": 476.5625,
      "v": 102
    },
    {
      "midi": 62,
      "hit": false,
      "t": 73492.1875,
      "d": 484.375,
      "v": 102
    },
    {
      "midi": 95,
      "hit": false,
      "t": 73867.1875,
      "d": 171.875,
      "v": 82
    },
    {
      "midi": 91,
      "hit": false,
      "t": 74054.6875,
      "d": 179.6875,
      "v": 91
    },
    {
      "midi": 59,
      "hit": false,
      "t": 74054.6875,
      "d": 210.9375,
      "v": 102
    },
    {
      "midi": 86,
      "hit": false,
      "t": 74242.1875,
      "d": 132.8125,
      "v": 102
    },
    {
      "midi": 62,
      "hit": false,
      "t": 74242.1875,
      "d": 210.9375,
      "v": 91
    },
    {
      "midi": 67,
      "hit": false,
      "t": 74429.6875,
      "d": 164.0625,
      "v": 86
    },
    {
      "midi": 91,
      "hit": false,
      "t": 74617.1875,
      "d": 148.4375,
      "v": 91
    },
    {
      "midi": 71,
      "hit": false,
      "t": 74617.1875,
      "d": 187.5,
      "v": 91
    },
    {
      "midi": 86,
      "hit": false,
      "t": 74804.6875,
      "d": 195.3125,
      "v": 85
    },
    {
      "midi": 62,
      "hit": false,
      "t": 74804.6875,
      "d": 234.375,
      "v": 102
    },
    {
      "midi": 67,
      "hit": false,
      "t": 74992.1875,
      "d": 132.8125,
      "v": 81
    },
    {
      "midi": 83,
      "hit": false,
      "t": 74992.1875,
      "d": 187.5,
      "v": 88
    },
    {
      "midi": 71,
      "hit": false,
      "t": 75179.6875,
      "d": 140.625,
      "v": 88
    },
    {
      "midi": 86,
      "hit": false,
      "t": 75367.1875,
      "d": 140.625,
      "v": 97
    },
    {
      "midi": 74,
      "hit": false,
      "t": 75367.1875,
      "d": 257.8125,
      "v": 100
    },
    {
      "midi": 83,
      "hit": false,
      "t": 75554.6875,
      "d": 140.625,
      "v": 91
    },
    {
      "midi": 67,
      "hit": false,
      "t": 75554.6875,
      "d": 179.6875,
      "v": 102
    },
    {
      "midi": 79,
      "hit": false,
      "t": 75742.1875,
      "d": 164.0625,
      "v": 102
    },
    {
      "midi": 71,
      "hit": false,
      "t": 75742.1875,
      "d": 218.75,
      "v": 102
    },
    {
      "midi": 74,
      "hit": false,
      "t": 75929.6875,
      "d": 179.6875,
      "v": 88
    },
    {
      "midi": 79,
      "hit": false,
      "t": 76117.1875,
      "d": 234.375,
      "v": 100
    },
    {
      "midi": 78,
      "hit": false,
      "t": 76304.6875,
      "d": 179.6875,
      "v": 94
    },
    {
      "midi": 63,
      "hit": false,
      "t": 76500,
      "d": 804.6875,
      "v": 102
    },
    {
      "midi": 74,
      "hit": false,
      "t": 76500,
      "d": 804.6875,
      "v": 94
    },
    {
      "midi": 67,
      "hit": false,
      "t": 76500,
      "d": 843.75,
      "v": 102
    },
    {
      "midi": 63,
      "hit": false,
      "t": 77437.5,
      "d": 406.25,
      "v": 97
    },
    {
      "midi": 67,
      "hit": false,
      "t": 77625,
      "d": 210.9375,
      "v": 91
    },
    {
      "midi": 74,
      "hit": false,
      "t": 77812.5,
      "d": 70.3125,
      "v": 77
    },
    {
      "midi": 63,
      "hit": false,
      "t": 78000,
      "d": 1500,
      "v": 97
    },
    {
      "midi": 67,
      "hit": false,
      "t": 78000,
      "d": 1500,
      "v": 97
    },
    {
      "midi": 72,
      "hit": false,
      "t": 78000,
      "d": 1500,
      "v": 94
    },
    {
      "midi": 67,
      "hit": false,
      "t": 79500,
      "d": 734.375,
      "v": 97
    },
    {
      "midi": 58,
      "hit": false,
      "t": 79500,
      "d": 757.8125,
      "v": 94
    },
    {
      "midi": 63,
      "hit": false,
      "t": 79500,
      "d": 789.0625,
      "v": 94
    },
    {
      "midi": 58,
      "hit": false,
      "t": 80437.5,
      "d": 359.375,
      "v": 97
    },
    {
      "midi": 63,
      "hit": false,
      "t": 80625,
      "d": 179.6875,
      "v": 88
    },
    {
      "midi": 67,
      "hit": false,
      "t": 80812.5,
      "d": 54.6875,
      "v": 77
    },
    {
      "midi": 60,
      "hit": false,
      "t": 81000,
      "d": 335.9375,
      "v": 91
    },
    {
      "midi": 65,
      "hit": false,
      "t": 81000,
      "d": 359.375,
      "v": 82
    },
    {
      "midi": 69,
      "hit": false,
      "t": 81000,
      "d": 359.375,
      "v": 97
    },
    {
      "midi": 72,
      "hit": false,
      "t": 81750,
      "d": 242.1875,
      "v": 91
    },
    {
      "midi": 67,
      "hit": false,
      "t": 81750,
      "d": 250,
      "v": 88
    },
    {
      "midi": 69,
      "hit": false,
      "t": 81937.5,
      "d": 195.3125,
      "v": 80
    },
    {
      "midi": 65,
      "hit": false,
      "t": 82125,
      "d": 171.875,
      "v": 97
    },
    {
      "midi": 60,
      "hit": false,
      "t": 82312.5,
      "d": 171.875,
      "v": 88
    },
    {
      "midi": 65,
      "hit": false,
      "t": 82500,
      "d": 851.5625,
      "v": 97
    },
    {
      "midi": 75,
      "hit": false,
      "t": 82500,
      "d": 859.375,
      "v": 102
    },
    {
      "midi": 58,
      "hit": false,
      "t": 82500,
      "d": 937.5,
      "v": 91
    },
    {
      "midi": 57,
      "hit": false,
      "t": 83625,
      "d": 562.5,
      "v": 86
    },
    {
      "midi": 65,
      "hit": false,
      "t": 83625,
      "d": 664.0625,
      "v": 85
    },
    {
      "midi": 74,
      "hit": false,
      "t": 83625,
      "d": 695.3125,
      "v": 102
    },
    {
      "midi": 70,
      "hit": false,
      "t": 84375,
      "d": 367.1875,
      "v": 102
    },
    {
      "midi": 58,
      "hit": false,
      "t": 84375,
      "d": 375,
      "v": 86
    },
    {
      "midi": 57,
      "hit": false,
      "t": 84750,
      "d": 375,
      "v": 86
    },
    {
      "midi": 69,
      "hit": false,
      "t": 84750,
      "d": 414.0625,
      "v": 91
    },
    {
      "midi": 53,
      "hit": false,
      "t": 85125,
      "d": 375,
      "v": 86
    },
    {
      "midi": 65,
      "hit": false,
      "t": 85125,
      "d": 375,
      "v": 91
    },
    {
      "midi": 58,
      "hit": false,
      "t": 85500,
      "d": 1484.375,
      "v": 91
    },
    {
      "midi": 67,
      "hit": false,
      "t": 85500,
      "d": 1531.25,
      "v": 80
    },
    {
      "midi": 62,
      "hit": false,
      "t": 85500,
      "d": 2992.1875,
      "v": 82
    },
    {
      "midi": 69,
      "hit": false,
      "t": 87000,
      "d": 765.625,
      "v": 82
    },
    {
      "midi": 57,
      "hit": false,
      "t": 87000,
      "d": 789.0625,
      "v": 82
    },
    {
      "midi": 58,
      "hit": false,
      "t": 87750,
      "d": 742.1875,
      "v": 91
    },
    {
      "midi": 70,
      "hit": false,
      "t": 87750,
      "d": 750,
      "v": 82
    },
    {
      "midi": 62,
      "hit": false,
      "t": 88500,
      "d": 765.625,
      "v": 82
    },
    {
      "midi": 60,
      "hit": false,
      "t": 88500,
      "d": 1054.6875,
      "v": 85
    },
    {
      "midi": 55,
      "hit": false,
      "t": 88500,
      "d": 1117.1875,
      "v": 85
    },
    {
      "midi": 64,
      "hit": false,
      "t": 89250,
      "d": 335.9375,
      "v": 91
    },
    {
      "midi": 74,
      "hit": false,
      "t": 90000,
      "d": 796.875,
      "v": 85
    },
    {
      "midi": 64,
      "hit": false,
      "t": 90000,
      "d": 1500,
      "v": 88
    },
    {
      "midi": 67,
      "hit": false,
      "t": 90000,
      "d": 1500,
      "v": 85
    },
    {
      "midi": 72,
      "hit": false,
      "t": 90750,
      "d": 750,
      "v": 88
    },
    {
      "midi": 60,
      "hit": false,
      "t": 91500,
      "d": 585.9375,
      "v": 88
    },
    {
      "midi": 67,
      "hit": false,
      "t": 91500,
      "d": 585.9375,
      "v": 91
    },
    {
      "midi": 62,
      "hit": false,
      "t": 91500,
      "d": 601.5625,
      "v": 91
    },
    {
      "midi": 60,
      "hit": false,
      "t": 92437.5,
      "d": 367.1875,
      "v": 88
    },
    {
      "midi": 62,
      "hit": false,
      "t": 92625,
      "d": 218.75,
      "v": 77
    },
    {
      "midi": 67,
      "hit": false,
      "t": 92812.5,
      "d": 78.125,
      "v": 66
    },
    {
      "midi": 57,
      "hit": false,
      "t": 93000,
      "d": 234.375,
      "v": 85
    },
    {
      "midi": 66,
      "hit": false,
      "t": 93187.5,
      "d": 242.1875,
      "v": 85
    },
    {
      "midi": 74,
      "hit": false,
      "t": 93375,
      "d": 257.8125,
      "v": 80
    },
    {
      "midi": 62,
      "hit": false,
      "t": 93562.5,
      "d": 562.5,
      "v": 80
    },
    {
      "midi": 69,
      "hit": false,
      "t": 93562.5,
      "d": 562.5,
      "v": 88
    },
    {
      "midi": 78,
      "hit": false,
      "t": 93562.5,
      "d": 562.5,
      "v": 85
    },
    {
      "midi": 66,
      "hit": false,
      "t": 94125,
      "d": 375,
      "v": 88
    },
    {
      "midi": 74,
      "hit": false,
      "t": 94125,
      "d": 375,
      "v": 97
    },
    {
      "midi": 81,
      "hit": false,
      "t": 94125,
      "d": 375,
      "v": 85
    },
    {
      "midi": 58,
      "hit": false,
      "t": 94500,
      "d": 671.875,
      "v": 97
    },
    {
      "midi": 62,
      "hit": false,
      "t": 94500,
      "d": 703.125,
      "v": 94
    },
    {
      "midi": 67,
      "hit": false,
      "t": 94500,
      "d": 710.9375,
      "v": 102
    },
    {
      "midi": 70,
      "hit": false,
      "t": 96000,
      "d": 789.0625,
      "v": 97
    },
    {
      "midi": 67,
      "hit": false,
      "t": 96000,
      "d": 1234.375,
      "v": 94
    },
    {
      "midi": 62,
      "hit": false,
      "t": 96000,
      "d": 1242.1875,
      "v": 88
    },
    {
      "midi": 69,
      "hit": false,
      "t": 96750,
      "d": 484.375,
      "v": 94
    },
    {
      "midi": 62,
      "hit": false,
      "t": 97500,
      "d": 890.625,
      "v": 85
    },
    {
      "midi": 67,
      "hit": false,
      "t": 97500,
      "d": 921.875,
      "v": 91
    },
    {
      "midi": 71,
      "hit": false,
      "t": 97500,
      "d": 921.875,
      "v": 97
    },
    {
      "midi": 67,
      "hit": false,
      "t": 99000,
      "d": 328.125,
      "v": 94
    },
    {
      "midi": 70,
      "hit": false,
      "t": 99000,
      "d": 351.5625,
      "v": 88
    },
    {
      "midi": 73,
      "hit": false,
      "t": 99000,
      "d": 359.375,
      "v": 94
    },
    {
      "midi": 65,
      "hit": false,
      "t": 99750,
      "d": 750,
      "v": 94
    },
    {
      "midi": 71,
      "hit": false,
      "t": 99750,
      "d": 750,
      "v": 91
    },
    {
      "midi": 74,
      "hit": false,
      "t": 99750,
      "d": 750,
      "v": 102
    },
    {
      "midi": 63,
      "hit": false,
      "t": 100500,
      "d": 804.6875,
      "v": 102
    },
    {
      "midi": 74,
      "hit": false,
      "t": 100500,
      "d": 804.6875,
      "v": 94
    },
    {
      "midi": 67,
      "hit": false,
      "t": 100500,
      "d": 843.75,
      "v": 102
    },
    {
      "midi": 63,
      "hit": false,
      "t": 101437.5,
      "d": 406.25,
      "v": 97
    },
    {
      "midi": 67,
      "hit": false,
      "t": 101625,
      "d": 210.9375,
      "v": 91
    },
    {
      "midi": 74,
      "hit": false,
      "t": 101812.5,
      "d": 70.3125,
      "v": 77
    },
    {
      "midi": 63,
      "hit": false,
      "t": 102000,
      "d": 1500,
      "v": 97
    },
    {
      "midi": 67,
      "hit": false,
      "t": 102000,
      "d": 1500,
      "v": 97
    },
    {
      "midi": 72,
      "hit": false,
      "t": 102000,
      "d": 1500,
      "v": 94
    },
    {
      "midi": 67,
      "hit": false,
      "t": 103500,
      "d": 734.375,
      "v": 97
    },
    {
      "midi": 58,
      "hit": false,
      "t": 103500,
      "d": 757.8125,
      "v": 94
    },
    {
      "midi": 63,
      "hit": false,
      "t": 103500,
      "d": 789.0625,
      "v": 94
    },
    {
      "midi": 58,
      "hit": false,
      "t": 104437.5,
      "d": 359.375,
      "v": 97
    },
    {
      "midi": 63,
      "hit": false,
      "t": 104625,
      "d": 179.6875,
      "v": 88
    },
    {
      "midi": 67,
      "hit": false,
      "t": 104812.5,
      "d": 54.6875,
      "v": 77
    },
    {
      "midi": 60,
      "hit": false,
      "t": 105000,
      "d": 335.9375,
      "v": 91
    },
    {
      "midi": 65,
      "hit": false,
      "t": 105000,
      "d": 359.375,
      "v": 82
    },
    {
      "midi": 69,
      "hit": false,
      "t": 105000,
      "d": 359.375,
      "v": 97
    },
    {
      "midi": 72,
      "hit": false,
      "t": 105750,
      "d": 242.1875,
      "v": 91
    },
    {
      "midi": 67,
      "hit": false,
      "t": 105750,
      "d": 250,
      "v": 88
    },
    {
      "midi": 69,
      "hit": false,
      "t": 105937.5,
      "d": 195.3125,
      "v": 80
    },
    {
      "midi": 65,
      "hit": false,
      "t": 106125,
      "d": 171.875,
      "v": 97
    },
    {
      "midi": 60,
      "hit": false,
      "t": 106312.5,
      "d": 171.875,
      "v": 88
    },
    {
      "midi": 58,
      "hit": false,
      "t": 106500,
      "d": 851.5625,
      "v": 91
    },
    {
      "midi": 65,
      "hit": false,
      "t": 106500,
      "d": 851.5625,
      "v": 97
    },
    {
      "midi": 75,
      "hit": false,
      "t": 106500,
      "d": 859.375,
      "v": 102
    },
    {
      "midi": 69,
      "hit": false,
      "t": 107625,
      "d": 664.0625,
      "v": 85
    },
    {
      "midi": 77,
      "hit": false,
      "t": 107625,
      "d": 695.3125,
      "v": 102
    },
    {
      "midi": 62,
      "hit": false,
      "t": 107625,
      "d": 703.125,
      "v": 82
    },
    {
      "midi": 70,
      "hit": false,
      "t": 108375,
      "d": 367.1875,
      "v": 102
    },
    {
      "midi": 58,
      "hit": false,
      "t": 108375,
      "d": 375,
      "v": 86
    },
    {
      "midi": 57,
      "hit": false,
      "t": 108750,
      "d": 375,
      "v": 86
    },
    {
      "midi": 69,
      "hit": false,
      "t": 108750,
      "d": 414.0625,
      "v": 91
    },
    {
      "midi": 53,
      "hit": false,
      "t": 109125,
      "d": 375,
      "v": 86
    },
    {
      "midi": 65,
      "hit": false,
      "t": 109125,
      "d": 375,
      "v": 91
    },
    {
      "midi": 58,
      "hit": false,
      "t": 109500,
      "d": 1484.375,
      "v": 91
    },
    {
      "midi": 67,
      "hit": false,
      "t": 109500,
      "d": 1531.25,
      "v": 80
    },
    {
      "midi": 62,
      "hit": false,
      "t": 109500,
      "d": 2992.1875,
      "v": 82
    },
    {
      "midi": 69,
      "hit": false,
      "t": 111000,
      "d": 765.625,
      "v": 82
    },
    {
      "midi": 57,
      "hit": false,
      "t": 111000,
      "d": 789.0625,
      "v": 82
    },
    {
      "midi": 58,
      "hit": false,
      "t": 111750,
      "d": 742.1875,
      "v": 91
    },
    {
      "midi": 70,
      "hit": false,
      "t": 111750,
      "d": 750,
      "v": 82
    },
    {
      "midi": 74,
      "hit": false,
      "t": 112500,
      "d": 781.25,
      "v": 82
    },
    {
      "midi": 63,
      "hit": false,
      "t": 112500,
      "d": 2992.1875,
      "v": 85
    },
    {
      "midi": 67,
      "hit": false,
      "t": 112500,
      "d": 2992.1875,
      "v": 82
    },
    {
      "midi": 72,
      "hit": false,
      "t": 113250,
      "d": 750,
      "v": 88
    },
    {
      "midi": 70,
      "hit": false,
      "t": 114000,
      "d": 1500,
      "v": 80
    },
    {
      "midi": 58,
      "hit": false,
      "t": 114750,
      "d": 750,
      "v": 88
    },
    {
      "midi": 60,
      "hit": false,
      "t": 115500,
      "d": 585.9375,
      "v": 88
    },
    {
      "midi": 67,
      "hit": false,
      "t": 115500,
      "d": 585.9375,
      "v": 91
    },
    {
      "midi": 62,
      "hit": false,
      "t": 115500,
      "d": 601.5625,
      "v": 91
    },
    {
      "midi": 60,
      "hit": false,
      "t": 116437.5,
      "d": 367.1875,
      "v": 88
    },
    {
      "midi": 62,
      "hit": false,
      "t": 116625,
      "d": 218.75,
      "v": 77
    },
    {
      "midi": 67,
      "hit": false,
      "t": 116812.5,
      "d": 78.125,
      "v": 66
    },
    {
      "midi": 57,
      "hit": false,
      "t": 117000,
      "d": 234.375,
      "v": 85
    },
    {
      "midi": 66,
      "hit": false,
      "t": 117187.5,
      "d": 242.1875,
      "v": 85
    },
    {
      "midi": 74,
      "hit": false,
      "t": 117375,
      "d": 257.8125,
      "v": 80
    },
    {
      "midi": 62,
      "hit": false,
      "t": 117562.5,
      "d": 562.5,
      "v": 80
    },
    {
      "midi": 69,
      "hit": false,
      "t": 117562.5,
      "d": 562.5,
      "v": 88
    },
    {
      "midi": 78,
      "hit": false,
      "t": 117562.5,
      "d": 562.5,
      "v": 85
    },
    {
      "midi": 66,
      "hit": false,
      "t": 118125,
      "d": 375,
      "v": 88
    },
    {
      "midi": 74,
      "hit": false,
      "t": 118125,
      "d": 375,
      "v": 97
    },
    {
      "midi": 81,
      "hit": false,
      "t": 118125,
      "d": 375,
      "v": 85
    },
    {
      "midi": 70,
      "hit": false,
      "t": 118500,
      "d": 679.6875,
      "v": 94
    },
    {
      "midi": 62,
      "hit": false,
      "t": 118500,
      "d": 710.9375,
      "v": 94
    },
    {
      "midi": 55,
      "hit": false,
      "t": 118500,
      "d": 726.5625,
      "v": 97
    },
    {
      "midi": 58,
      "hit": false,
      "t": 119625,
      "d": 914.0625,
      "v": 102
    },
    {
      "midi": 67,
      "hit": false,
      "t": 119625,
      "d": 1867.1875,
      "v": 94
    },
    {
      "midi": 74,
      "hit": false,
      "t": 119625,
      "d": 1867.1875,
      "v": 97
    },
    {
      "midi": 60,
      "hit": false,
      "t": 120750,
      "d": 734.375,
      "v": 85
    },
    {
      "midi": 62,
      "hit": false,
      "t": 121500,
      "d": 3000,
      "v": 97
    },
    {
      "midi": 67,
      "hit": false,
      "t": 121500,
      "d": 3000,
      "v": 80
    },
    {
      "midi": 69,
      "hit": false,
      "t": 121500,
      "d": 3000,
      "v": 85
    },
    {
      "midi": 74,
      "hit": false,
      "t": 122601.5625,
      "d": 1890.625,
      "v": 94
    },
    {
      "midi": 67,
      "hit": false,
      "t": 124515.625,
      "d": 1109.375,
      "v": 85
    },
    {
      "midi": 58,
      "hit": false,
      "t": 124515.625,
      "d": 2984.375,
      "v": 85
    },
    {
      "midi": 62,
      "hit": false,
      "t": 124515.625,
      "d": 2984.375,
      "v": 80
    },
    {
      "midi": 66,
      "hit": false,
      "t": 126007.8125,
      "d": 750,
      "v": 85
    },
    {
      "midi": 65,
      "hit": false,
      "t": 126742.1875,
      "d": 757.8125,
      "v": 85
    },
    {
      "midi": 55,
      "hit": false,
      "t": 127492.1875,
      "d": 617.1875,
      "v": 97
    },
    {
      "midi": 63,
      "hit": false,
      "t": 127492.1875,
      "d": 703.125,
      "v": 88
    },
    {
      "midi": 70,
      "hit": false,
      "t": 127492.1875,
      "d": 734.375,
      "v": 80
    },
    {
      "midi": 58,
      "hit": false,
      "t": 128617.1875,
      "d": 257.8125,
      "v": 80
    },
    {
      "midi": 67,
      "hit": false,
      "t": 128617.1875,
      "d": 296.875,
      "v": 94
    },
    {
      "midi": 75,
      "hit": false,
      "t": 128617.1875,
      "d": 296.875,
      "v": 85
    },
    {
      "midi": 63,
      "hit": false,
      "t": 129367.1875,
      "d": 132.8125,
      "v": 91
    },
    {
      "midi": 67,
      "hit": false,
      "t": 129492.1875,
      "d": 125,
      "v": 77
    },
    {
      "midi": 70,
      "hit": false,
      "t": 129617.1875,
      "d": 125,
      "v": 73
    },
    {
      "midi": 74,
      "hit": false,
      "t": 129742.1875,
      "d": 250,
      "v": 91
    },
    {
      "midi": 72,
      "hit": false,
      "t": 129992.1875,
      "d": 250,
      "v": 94
    },
    {
      "midi": 70,
      "hit": false,
      "t": 130242.1875,
      "d": 250,
      "v": 97
    },
    {
      "midi": 57,
      "hit": false,
      "t": 130492.1875,
      "d": 953.125,
      "v": 80
    },
    {
      "midi": 65,
      "hit": false,
      "t": 130492.1875,
      "d": 1046.875,
      "v": 85
    },
    {
      "midi": 74,
      "hit": false,
      "t": 130492.1875,
      "d": 1070.3125,
      "v": 82
    },
    {
      "midi": 69,
      "hit": false,
      "t": 131992.1875,
      "d": 375,
      "v": 94
    },
    {
      "midi": 65,
      "hit": false,
      "t": 131992.1875,
      "d": 750,
      "v": 85
    },
    {
      "midi": 62,
      "hit": false,
      "t": 131992.1875,
      "d": 1500,
      "v": 77
    },
    {
      "midi": 70,
      "hit": false,
      "t": 132367.1875,
      "d": 382.8125,
      "v": 75
    },
    {
      "midi": 69,
      "hit": false,
      "t": 132742.1875,
      "d": 375,
      "v": 82
    },
    {
      "midi": 65,
      "hit": false,
      "t": 133117.1875,
      "d": 375,
      "v": 82
    },
    {
      "midi": 58,
      "hit": false,
      "t": 133492.1875,
      "d": 1484.375,
      "v": 91
    },
    {
      "midi": 67,
      "hit": false,
      "t": 133492.1875,
      "d": 1531.25,
      "v": 80
    },
    {
      "midi": 62,
      "hit": false,
      "t": 133492.1875,
      "d": 2992.1875,
      "v": 82
    },
    {
      "midi": 69,
      "hit": false,
      "t": 134992.1875,
      "d": 765.625,
      "v": 82
    },
    {
      "midi": 57,
      "hit": false,
      "t": 134992.1875,
      "d": 789.0625,
      "v": 82
    },
    {
      "midi": 58,
      "hit": false,
      "t": 135742.1875,
      "d": 742.1875,
      "v": 91
    },
    {
      "midi": 70,
      "hit": false,
      "t": 135742.1875,
      "d": 750,
      "v": 82
    },
    {
      "midi": 74,
      "hit": false,
      "t": 136492.1875,
      "d": 781.25,
      "v": 82
    },
    {
      "midi": 63,
      "hit": false,
      "t": 136492.1875,
      "d": 2992.1875,
      "v": 85
    },
    {
      "midi": 67,
      "hit": false,
      "t": 136492.1875,
      "d": 2992.1875,
      "v": 82
    },
    {
      "midi": 72,
      "hit": false,
      "t": 137242.1875,
      "d": 750,
      "v": 88
    },
    {
      "midi": 70,
      "hit": false,
      "t": 137992.1875,
      "d": 1515.625,
      "v": 80
    },
    {
      "midi": 58,
      "hit": false,
      "t": 138742.1875,
      "d": 750,
      "v": 88
    },
    {
      "midi": 67,
      "hit": false,
      "t": 139492.1875,
      "d": 750,
      "v": 94
    },
    {
      "midi": 58,
      "hit": false,
      "t": 139492.1875,
      "d": 765.625,
      "v": 85
    },
    {
      "midi": 63,
      "hit": false,
      "t": 139492.1875,
      "d": 804.6875,
      "v": 88
    },
    {
      "midi": 58,
      "hit": false,
      "t": 140429.6875,
      "d": 359.375,
      "v": 85
    },
    {
      "midi": 63,
      "hit": false,
      "t": 140617.1875,
      "d": 187.5,
      "v": 82
    },
    {
      "midi": 67,
      "hit": false,
      "t": 140804.6875,
      "d": 54.6875,
      "v": 77
    },
    {
      "midi": 60,
      "hit": false,
      "t": 140992.1875,
      "d": 203.125,
      "v": 88
    },
    {
      "midi": 65,
      "hit": false,
      "t": 140992.1875,
      "d": 226.5625,
      "v": 80
    },
    {
      "midi": 69,
      "hit": false,
      "t": 140992.1875,
      "d": 234.375,
      "v": 80
    },
    {
      "midi": 79,
      "hit": false,
      "t": 141742.1875,
      "d": 203.125,
      "v": 88
    },
    {
      "midi": 84,
      "hit": false,
      "t": 141742.1875,
      "d": 234.375,
      "v": 85
    },
    {
      "midi": 81,
      "hit": false,
      "t": 141929.6875,
      "d": 195.3125,
      "v": 77
    },
    {
      "midi": 77,
      "hit": false,
      "t": 142117.1875,
      "d": 148.4375,
      "v": 80
    },
    {
      "midi": 72,
      "hit": false,
      "t": 142304.6875,
      "d": 179.6875,
      "v": 85
    },
    {
      "midi": 65,
      "hit": false,
      "t": 142492.1875,
      "d": 210.9375,
      "v": 85
    },
    {
      "midi": 74,
      "hit": false,
      "t": 142492.1875,
      "d": 617.1875,
      "v": 102
    },
    {
      "midi": 69,
      "hit": false,
      "t": 142679.6875,
      "d": 421.875,
      "v": 80
    },
    {
      "midi": 65,
      "hit": false,
      "t": 142867.1875,
      "d": 203.125,
      "v": 97
    },
    {
      "midi": 69,
      "hit": false,
      "t": 143617.1875,
      "d": 203.125,
      "v": 80
    },
    {
      "midi": 77,
      "hit": false,
      "t": 143617.1875,
      "d": 640.625,
      "v": 102
    },
    {
      "midi": 74,
      "hit": false,
      "t": 143804.6875,
      "d": 445.3125,
      "v": 77
    },
    {
      "midi": 69,
      "hit": false,
      "t": 143992.1875,
      "d": 234.375,
      "v": 97
    },
    {
      "midi": 74,
      "hit": false,
      "t": 144742.1875,
      "d": 226.5625,
      "v": 85
    },
    {
      "midi": 81,
      "hit": false,
      "t": 144742.1875,
      "d": 750,
      "v": 102
    },
    {
      "midi": 77,
      "hit": false,
      "t": 144929.6875,
      "d": 554.6875,
      "v": 85
    },
    {
      "midi": 74,
      "hit": false,
      "t": 145117.1875,
      "d": 359.375,
      "v": 102
    },
    {
      "midi": 64,
      "hit": false,
      "t": 145492.1875,
      "d": 187.5,
      "v": 91
    },
    {
      "midi": 62,
      "hit": false,
      "t": 145492.1875,
      "d": 203.125,
      "v": 82
    },
    {
      "midi": 69,
      "hit": false,
      "t": 145492.1875,
      "d": 203.125,
      "v": 97
    },
    {
      "midi": 74,
      "hit": false,
      "t": 146054.6875,
      "d": 289.0625,
      "v": 91
    },
    {
      "midi": 64,
      "hit": false,
      "t": 146054.6875,
      "d": 320.3125,
      "v": 88
    },
    {
      "midi": 69,
      "hit": false,
      "t": 146054.6875,
      "d": 320.3125,
      "v": 80
    },
    {
      "midi": 70,
      "hit": false,
      "t": 146992.1875,
      "d": 406.25,
      "v": 97
    },
    {
      "midi": 62,
      "hit": false,
      "t": 146992.1875,
      "d": 453.125,
      "v": 85
    },
    {
      "midi": 79,
      "hit": false,
      "t": 146992.1875,
      "d": 453.125,
      "v": 80
    },
    {
      "midi": 62,
      "hit": false,
      "t": 147742.1875,
      "d": 750,
      "v": 80
    },
    {
      "midi": 69,
      "hit": false,
      "t": 147742.1875,
      "d": 750,
      "v": 97
    },
    {
      "midi": 78,
      "hit": false,
      "t": 147742.1875,
      "d": 750,
      "v": 94
    },
    {
      "midi": 67,
      "hit": false,
      "t": 148492.1875,
      "d": 1109.375,
      "v": 85
    },
    {
      "midi": 58,
      "hit": false,
      "t": 148492.1875,
      "d": 2984.375,
      "v": 85
    },
    {
      "midi": 62,
      "hit": false,
      "t": 148492.1875,
      "d": 2984.375,
      "v": 80
    },
    {
      "midi": 66,
      "hit": false,
      "t": 149992.1875,
      "d": 750,
      "v": 85
    },
    {
      "midi": 65,
      "hit": false,
      "t": 150742.1875,
      "d": 757.8125,
      "v": 85
    },
    {
      "midi": 55,
      "hit": false,
      "t": 151492.1875,
      "d": 617.1875,
      "v": 97
    },
    {
      "midi": 63,
      "hit": false,
      "t": 151492.1875,
      "d": 703.125,
      "v": 88
    },
    {
      "midi": 70,
      "hit": false,
      "t": 151492.1875,
      "d": 734.375,
      "v": 80
    },
    {
      "midi": 58,
      "hit": false,
      "t": 152617.1875,
      "d": 257.8125,
      "v": 80
    },
    {
      "midi": 67,
      "hit": false,
      "t": 152617.1875,
      "d": 296.875,
      "v": 94
    },
    {
      "midi": 75,
      "hit": false,
      "t": 152617.1875,
      "d": 296.875,
      "v": 85
    },
    {
      "midi": 63,
      "hit": false,
      "t": 153367.1875,
      "d": 132.8125,
      "v": 91
    },
    {
      "midi": 67,
      "hit": false,
      "t": 153492.1875,
      "d": 125,
      "v": 77
    },
    {
      "midi": 70,
      "hit": false,
      "t": 153617.1875,
      "d": 125,
      "v": 73
    },
    {
      "midi": 74,
      "hit": false,
      "t": 153742.1875,
      "d": 250,
      "v": 91
    },
    {
      "midi": 72,
      "hit": false,
      "t": 153992.1875,
      "d": 250,
      "v": 94
    },
    {
      "midi": 70,
      "hit": false,
      "t": 154242.1875,
      "d": 250,
      "v": 97
    },
    {
      "midi": 57,
      "hit": false,
      "t": 154492.1875,
      "d": 953.125,
      "v": 80
    },
    {
      "midi": 65,
      "hit": false,
      "t": 154492.1875,
      "d": 1046.875,
      "v": 85
    },
    {
      "midi": 74,
      "hit": false,
      "t": 154492.1875,
      "d": 1070.3125,
      "v": 82
    },
    {
      "midi": 69,
      "hit": false,
      "t": 155992.1875,
      "d": 375,
      "v": 94
    },
    {
      "midi": 65,
      "hit": false,
      "t": 155992.1875,
      "d": 750,
      "v": 85
    },
    {
      "midi": 62,
      "hit": false,
      "t": 155992.1875,
      "d": 1500,
      "v": 77
    },
    {
      "midi": 70,
      "hit": false,
      "t": 156367.1875,
      "d": 382.8125,
      "v": 75
    },
    {
      "midi": 69,
      "hit": false,
      "t": 156742.1875,
      "d": 375,
      "v": 82
    },
    {
      "midi": 65,
      "hit": false,
      "t": 157117.1875,
      "d": 375,
      "v": 82
    },
    {
      "midi": 58,
      "hit": false,
      "t": 157492.1875,
      "d": 1484.375,
      "v": 91
    },
    {
      "midi": 67,
      "hit": false,
      "t": 157492.1875,
      "d": 1531.25,
      "v": 80
    },
    {
      "midi": 62,
      "hit": false,
      "t": 157492.1875,
      "d": 2992.1875,
      "v": 82
    },
    {
      "midi": 69,
      "hit": false,
      "t": 158992.1875,
      "d": 765.625,
      "v": 82
    },
    {
      "midi": 57,
      "hit": false,
      "t": 158992.1875,
      "d": 789.0625,
      "v": 82
    },
    {
      "midi": 58,
      "hit": false,
      "t": 159742.1875,
      "d": 742.1875,
      "v": 91
    },
    {
      "midi": 70,
      "hit": false,
      "t": 159742.1875,
      "d": 750,
      "v": 82
    },
    {
      "midi": 74,
      "hit": false,
      "t": 160492.1875,
      "d": 781.25,
      "v": 82
    },
    {
      "midi": 63,
      "hit": false,
      "t": 160492.1875,
      "d": 2992.1875,
      "v": 85
    },
    {
      "midi": 67,
      "hit": false,
      "t": 160492.1875,
      "d": 2992.1875,
      "v": 82
    },
    {
      "midi": 72,
      "hit": false,
      "t": 161242.1875,
      "d": 750,
      "v": 88
    },
    {
      "midi": 70,
      "hit": false,
      "t": 161992.1875,
      "d": 1515.625,
      "v": 80
    },
    {
      "midi": 58,
      "hit": false,
      "t": 162742.1875,
      "d": 750,
      "v": 88
    },
    {
      "midi": 67,
      "hit": false,
      "t": 163492.1875,
      "d": 750,
      "v": 94
    },
    {
      "midi": 58,
      "hit": false,
      "t": 163492.1875,
      "d": 765.625,
      "v": 85
    },
    {
      "midi": 63,
      "hit": false,
      "t": 163492.1875,
      "d": 804.6875,
      "v": 88
    },
    {
      "midi": 58,
      "hit": false,
      "t": 164429.6875,
      "d": 359.375,
      "v": 85
    },
    {
      "midi": 63,
      "hit": false,
      "t": 164617.1875,
      "d": 187.5,
      "v": 82
    },
    {
      "midi": 67,
      "hit": false,
      "t": 164804.6875,
      "d": 54.6875,
      "v": 77
    },
    {
      "midi": 60,
      "hit": false,
      "t": 164992.1875,
      "d": 203.125,
      "v": 88
    },
    {
      "midi": 65,
      "hit": false,
      "t": 164992.1875,
      "d": 226.5625,
      "v": 80
    },
    {
      "midi": 69,
      "hit": false,
      "t": 164992.1875,
      "d": 234.375,
      "v": 80
    },
    {
      "midi": 79,
      "hit": false,
      "t": 165742.1875,
      "d": 203.125,
      "v": 88
    },
    {
      "midi": 84,
      "hit": false,
      "t": 165742.1875,
      "d": 234.375,
      "v": 85
    },
    {
      "midi": 81,
      "hit": false,
      "t": 165929.6875,
      "d": 195.3125,
      "v": 77
    },
    {
      "midi": 77,
      "hit": false,
      "t": 166117.1875,
      "d": 148.4375,
      "v": 80
    },
    {
      "midi": 72,
      "hit": false,
      "t": 166304.6875,
      "d": 179.6875,
      "v": 85
    },
    {
      "midi": 65,
      "hit": false,
      "t": 166492.1875,
      "d": 289.0625,
      "v": 80
    },
    {
      "midi": 69,
      "hit": false,
      "t": 166492.1875,
      "d": 296.875,
      "v": 80
    },
    {
      "midi": 74,
      "hit": false,
      "t": 166492.1875,
      "d": 328.125,
      "v": 91
    },
    {
      "midi": 98,
      "hit": false,
      "t": 166679.6875,
      "d": 70.3125,
      "v": 64
    },
    {
      "midi": 99,
      "hit": false,
      "t": 166773.4375,
      "d": 140.625,
      "v": 70
    },
    {
      "midi": 98,
      "hit": false,
      "t": 166867.1875,
      "d": 210.9375,
      "v": 57
    },
    {
      "midi": 96,
      "hit": false,
      "t": 167054.6875,
      "d": 140.625,
      "v": 85
    },
    {
      "midi": 98,
      "hit": false,
      "t": 167242.1875,
      "d": 921.875,
      "v": 82
    },
    {
      "midi": 94,
      "hit": false,
      "t": 167429.6875,
      "d": 226.5625,
      "v": 60
    },
    {
      "midi": 93,
      "hit": false,
      "t": 167617.1875,
      "d": 250,
      "v": 55
    },
    {
      "midi": 89,
      "hit": false,
      "t": 167804.6875,
      "d": 203.125,
      "v": 60
    },
    {
      "midi": 84,
      "hit": false,
      "t": 167992.1875,
      "d": 164.0625,
      "v": 77
    },
    {
      "midi": 82,
      "hit": false,
      "t": 168179.6875,
      "d": 195.3125,
      "v": 88
    },
    {
      "midi": 94,
      "hit": false,
      "t": 168179.6875,
      "d": 203.125,
      "v": 91
    },
    {
      "midi": 81,
      "hit": false,
      "t": 168367.1875,
      "d": 210.9375,
      "v": 82
    },
    {
      "midi": 89,
      "hit": false,
      "t": 168367.1875,
      "d": 515.625,
      "v": 91
    },
    {
      "midi": 77,
      "hit": false,
      "t": 168554.6875,
      "d": 171.875,
      "v": 80
    },
    {
      "midi": 72,
      "hit": false,
      "t": 168742.1875,
      "d": 164.0625,
      "v": 80
    },
    {
      "midi": 101,
      "hit": false,
      "t": 168929.6875,
      "d": 156.25,
      "v": 102
    },
    {
      "midi": 70,
      "hit": false,
      "t": 168929.6875,
      "d": 210.9375,
      "v": 94
    },
    {
      "midi": 69,
      "hit": false,
      "t": 169117.1875,
      "d": 203.125,
      "v": 85
    },
    {
      "midi": 89,
      "hit": false,
      "t": 169117.1875,
      "d": 367.1875,
      "v": 85
    },
    {
      "midi": 68,
      "hit": false,
      "t": 169304.6875,
      "d": 140.625,
      "v": 82
    },
    {
      "midi": 59,
      "hit": false,
      "t": 169492.1875,
      "d": 351.5625,
      "v": 102
    },
    {
      "midi": 67,
      "hit": false,
      "t": 169492.1875,
      "d": 476.5625,
      "v": 102
    },
    {
      "midi": 62,
      "hit": false,
      "t": 169492.1875,
      "d": 484.375,
      "v": 102
    },
    {
      "midi": 95,
      "hit": false,
      "t": 169867.1875,
      "d": 171.875,
      "v": 82
    },
    {
      "midi": 91,
      "hit": false,
      "t": 170054.6875,
      "d": 179.6875,
      "v": 91
    },
    {
      "midi": 59,
      "hit": false,
      "t": 170054.6875,
      "d": 210.9375,
      "v": 102
    },
    {
      "midi": 86,
      "hit": false,
      "t": 170242.1875,
      "d": 132.8125,
      "v": 102
    },
    {
      "midi": 62,
      "hit": false,
      "t": 170242.1875,
      "d": 210.9375,
      "v": 91
    },
    {
      "midi": 67,
      "hit": false,
      "t": 170429.6875,
      "d": 164.0625,
      "v": 86
    },
    {
      "midi": 91,
      "hit": false,
      "t": 170617.1875,
      "d": 148.4375,
      "v": 91
    },
    {
      "midi": 71,
      "hit": false,
      "t": 170617.1875,
      "d": 187.5,
      "v": 91
    },
    {
      "midi": 86,
      "hit": false,
      "t": 170804.6875,
      "d": 195.3125,
      "v": 85
    },
    {
      "midi": 62,
      "hit": false,
      "t": 170804.6875,
      "d": 234.375,
      "v": 102
    },
    {
      "midi": 67,
      "hit": false,
      "t": 170992.1875,
      "d": 132.8125,
      "v": 81
    },
    {
      "midi": 83,
      "hit": false,
      "t": 170992.1875,
      "d": 187.5,
      "v": 88
    },
    {
      "midi": 71,
      "hit": false,
      "t": 171179.6875,
      "d": 140.625,
      "v": 88
    },
    {
      "midi": 86,
      "hit": false,
      "t": 171367.1875,
      "d": 140.625,
      "v": 97
    },
    {
      "midi": 74,
      "hit": false,
      "t": 171367.1875,
      "d": 257.8125,
      "v": 100
    },
    {
      "midi": 83,
      "hit": false,
      "t": 171554.6875,
      "d": 140.625,
      "v": 91
    },
    {
      "midi": 67,
      "hit": false,
      "t": 171554.6875,
      "d": 179.6875,
      "v": 102
    },
    {
      "midi": 79,
      "hit": false,
      "t": 171742.1875,
      "d": 164.0625,
      "v": 102
    },
    {
      "midi": 71,
      "hit": false,
      "t": 171742.1875,
      "d": 218.75,
      "v": 102
    },
    {
      "midi": 74,
      "hit": false,
      "t": 171929.6875,
      "d": 179.6875,
      "v": 88
    },
    {
      "midi": 79,
      "hit": false,
      "t": 172117.1875,
      "d": 234.375,
      "v": 100
    },
    {
      "midi": 78,
      "hit": false,
      "t": 172304.6875,
      "d": 179.6875,
      "v": 94
    },
    {
      "midi": 63,
      "hit": false,
      "t": 172500,
      "d": 804.6875,
      "v": 102
    },
    {
      "midi": 74,
      "hit": false,
      "t": 172500,
      "d": 804.6875,
      "v": 94
    },
    {
      "midi": 67,
      "hit": false,
      "t": 172500,
      "d": 843.75,
      "v": 102
    },
    {
      "midi": 63,
      "hit": false,
      "t": 173437.5,
      "d": 406.25,
      "v": 97
    },
    {
      "midi": 67,
      "hit": false,
      "t": 173625,
      "d": 210.9375,
      "v": 91
    },
    {
      "midi": 74,
      "hit": false,
      "t": 173812.5,
      "d": 70.3125,
      "v": 77
    },
    {
      "midi": 63,
      "hit": false,
      "t": 174000,
      "d": 1500,
      "v": 97
    },
    {
      "midi": 67,
      "hit": false,
      "t": 174000,
      "d": 1500,
      "v": 97
    },
    {
      "midi": 72,
      "hit": false,
      "t": 174000,
      "d": 1500,
      "v": 94
    },
    {
      "midi": 67,
      "hit": false,
      "t": 175500,
      "d": 734.375,
      "v": 97
    },
    {
      "midi": 58,
      "hit": false,
      "t": 175500,
      "d": 757.8125,
      "v": 94
    },
    {
      "midi": 63,
      "hit": false,
      "t": 175500,
      "d": 789.0625,
      "v": 94
    },
    {
      "midi": 58,
      "hit": false,
      "t": 176437.5,
      "d": 359.375,
      "v": 97
    },
    {
      "midi": 63,
      "hit": false,
      "t": 176625,
      "d": 179.6875,
      "v": 88
    },
    {
      "midi": 67,
      "hit": false,
      "t": 176812.5,
      "d": 54.6875,
      "v": 77
    },
    {
      "midi": 60,
      "hit": false,
      "t": 177000,
      "d": 335.9375,
      "v": 91
    },
    {
      "midi": 65,
      "hit": false,
      "t": 177000,
      "d": 359.375,
      "v": 82
    },
    {
      "midi": 69,
      "hit": false,
      "t": 177000,
      "d": 359.375,
      "v": 97
    },
    {
      "midi": 72,
      "hit": false,
      "t": 177750,
      "d": 242.1875,
      "v": 91
    },
    {
      "midi": 67,
      "hit": false,
      "t": 177750,
      "d": 250,
      "v": 88
    },
    {
      "midi": 69,
      "hit": false,
      "t": 177937.5,
      "d": 195.3125,
      "v": 80
    },
    {
      "midi": 65,
      "hit": false,
      "t": 178125,
      "d": 171.875,
      "v": 97
    },
    {
      "midi": 60,
      "hit": false,
      "t": 178312.5,
      "d": 171.875,
      "v": 88
    },
    {
      "midi": 65,
      "hit": false,
      "t": 178500,
      "d": 851.5625,
      "v": 97
    },
    {
      "midi": 75,
      "hit": false,
      "t": 178500,
      "d": 859.375,
      "v": 102
    },
    {
      "midi": 58,
      "hit": false,
      "t": 178500,
      "d": 937.5,
      "v": 91
    },
    {
      "midi": 57,
      "hit": false,
      "t": 179625,
      "d": 562.5,
      "v": 86
    },
    {
      "midi": 65,
      "hit": false,
      "t": 179625,
      "d": 664.0625,
      "v": 85
    },
    {
      "midi": 74,
      "hit": false,
      "t": 179625,
      "d": 695.3125,
      "v": 102
    },
    {
      "midi": 70,
      "hit": false,
      "t": 180375,
      "d": 367.1875,
      "v": 102
    },
    {
      "midi": 58,
      "hit": false,
      "t": 180375,
      "d": 375,
      "v": 86
    },
    {
      "midi": 57,
      "hit": false,
      "t": 180750,
      "d": 375,
      "v": 86
    },
    {
      "midi": 69,
      "hit": false,
      "t": 180750,
      "d": 414.0625,
      "v": 91
    },
    {
      "midi": 53,
      "hit": false,
      "t": 181125,
      "d": 375,
      "v": 86
    },
    {
      "midi": 65,
      "hit": false,
      "t": 181125,
      "d": 375,
      "v": 91
    },
    {
      "midi": 58,
      "hit": false,
      "t": 181500,
      "d": 1484.375,
      "v": 91
    },
    {
      "midi": 67,
      "hit": false,
      "t": 181500,
      "d": 1531.25,
      "v": 80
    },
    {
      "midi": 62,
      "hit": false,
      "t": 181500,
      "d": 2992.1875,
      "v": 82
    },
    {
      "midi": 69,
      "hit": false,
      "t": 183000,
      "d": 765.625,
      "v": 82
    },
    {
      "midi": 57,
      "hit": false,
      "t": 183000,
      "d": 789.0625,
      "v": 82
    },
    {
      "midi": 58,
      "hit": false,
      "t": 183750,
      "d": 742.1875,
      "v": 91
    },
    {
      "midi": 70,
      "hit": false,
      "t": 183750,
      "d": 750,
      "v": 82
    },
    {
      "midi": 62,
      "hit": false,
      "t": 184500,
      "d": 765.625,
      "v": 82
    },
    {
      "midi": 60,
      "hit": false,
      "t": 184500,
      "d": 1054.6875,
      "v": 85
    },
    {
      "midi": 55,
      "hit": false,
      "t": 184500,
      "d": 1117.1875,
      "v": 85
    },
    {
      "midi": 64,
      "hit": false,
      "t": 185250,
      "d": 335.9375,
      "v": 91
    },
    {
      "midi": 74,
      "hit": false,
      "t": 186000,
      "d": 796.875,
      "v": 85
    },
    {
      "midi": 64,
      "hit": false,
      "t": 186000,
      "d": 1500,
      "v": 88
    },
    {
      "midi": 67,
      "hit": false,
      "t": 186000,
      "d": 1500,
      "v": 85
    },
    {
      "midi": 72,
      "hit": false,
      "t": 186750,
      "d": 750,
      "v": 88
    },
    {
      "midi": 60,
      "hit": false,
      "t": 187500,
      "d": 585.9375,
      "v": 88
    },
    {
      "midi": 67,
      "hit": false,
      "t": 187500,
      "d": 585.9375,
      "v": 91
    },
    {
      "midi": 62,
      "hit": false,
      "t": 187500,
      "d": 601.5625,
      "v": 91
    },
    {
      "midi": 60,
      "hit": false,
      "t": 188437.5,
      "d": 367.1875,
      "v": 88
    },
    {
      "midi": 62,
      "hit": false,
      "t": 188625,
      "d": 218.75,
      "v": 77
    },
    {
      "midi": 67,
      "hit": false,
      "t": 188812.5,
      "d": 78.125,
      "v": 66
    },
    {
      "midi": 57,
      "hit": false,
      "t": 189000,
      "d": 234.375,
      "v": 85
    },
    {
      "midi": 66,
      "hit": false,
      "t": 189187.5,
      "d": 242.1875,
      "v": 85
    },
    {
      "midi": 74,
      "hit": false,
      "t": 189375,
      "d": 257.8125,
      "v": 80
    },
    {
      "midi": 62,
      "hit": false,
      "t": 189562.5,
      "d": 562.5,
      "v": 80
    },
    {
      "midi": 69,
      "hit": false,
      "t": 189562.5,
      "d": 562.5,
      "v": 88
    },
    {
      "midi": 78,
      "hit": false,
      "t": 189562.5,
      "d": 562.5,
      "v": 85
    },
    {
      "midi": 66,
      "hit": false,
      "t": 190125,
      "d": 375,
      "v": 88
    },
    {
      "midi": 74,
      "hit": false,
      "t": 190125,
      "d": 375,
      "v": 97
    },
    {
      "midi": 81,
      "hit": false,
      "t": 190125,
      "d": 375,
      "v": 85
    },
    {
      "midi": 58,
      "hit": false,
      "t": 190500,
      "d": 671.875,
      "v": 97
    },
    {
      "midi": 62,
      "hit": false,
      "t": 190500,
      "d": 703.125,
      "v": 94
    },
    {
      "midi": 67,
      "hit": false,
      "t": 190500,
      "d": 710.9375,
      "v": 102
    },
    {
      "midi": 70,
      "hit": false,
      "t": 192000,
      "d": 789.0625,
      "v": 97
    },
    {
      "midi": 67,
      "hit": false,
      "t": 192000,
      "d": 1234.375,
      "v": 94
    },
    {
      "midi": 62,
      "hit": false,
      "t": 192000,
      "d": 1242.1875,
      "v": 88
    },
    {
      "midi": 69,
      "hit": false,
      "t": 192750,
      "d": 484.375,
      "v": 94
    },
    {
      "midi": 62,
      "hit": false,
      "t": 193500,
      "d": 890.625,
      "v": 85
    },
    {
      "midi": 67,
      "hit": false,
      "t": 193500,
      "d": 921.875,
      "v": 91
    },
    {
      "midi": 71,
      "hit": false,
      "t": 193500,
      "d": 921.875,
      "v": 97
    },
    {
      "midi": 67,
      "hit": false,
      "t": 195000,
      "d": 328.125,
      "v": 94
    },
    {
      "midi": 70,
      "hit": false,
      "t": 195000,
      "d": 351.5625,
      "v": 88
    },
    {
      "midi": 73,
      "hit": false,
      "t": 195000,
      "d": 359.375,
      "v": 94
    },
    {
      "midi": 65,
      "hit": false,
      "t": 195750,
      "d": 750,
      "v": 94
    },
    {
      "midi": 71,
      "hit": false,
      "t": 195750,
      "d": 750,
      "v": 91
    },
    {
      "midi": 74,
      "hit": false,
      "t": 195750,
      "d": 750,
      "v": 102
    },
    {
      "midi": 63,
      "hit": false,
      "t": 196500,
      "d": 804.6875,
      "v": 102
    },
    {
      "midi": 74,
      "hit": false,
      "t": 196500,
      "d": 804.6875,
      "v": 94
    },
    {
      "midi": 67,
      "hit": false,
      "t": 196500,
      "d": 843.75,
      "v": 102
    },
    {
      "midi": 63,
      "hit": false,
      "t": 197437.5,
      "d": 406.25,
      "v": 97
    },
    {
      "midi": 67,
      "hit": false,
      "t": 197625,
      "d": 210.9375,
      "v": 91
    },
    {
      "midi": 74,
      "hit": false,
      "t": 197812.5,
      "d": 70.3125,
      "v": 77
    },
    {
      "midi": 63,
      "hit": false,
      "t": 198000,
      "d": 1500,
      "v": 97
    },
    {
      "midi": 67,
      "hit": false,
      "t": 198000,
      "d": 1500,
      "v": 97
    },
    {
      "midi": 72,
      "hit": false,
      "t": 198000,
      "d": 1500,
      "v": 94
    },
    {
      "midi": 67,
      "hit": false,
      "t": 199500,
      "d": 734.375,
      "v": 97
    },
    {
      "midi": 58,
      "hit": false,
      "t": 199500,
      "d": 757.8125,
      "v": 94
    },
    {
      "midi": 63,
      "hit": false,
      "t": 199500,
      "d": 789.0625,
      "v": 94
    },
    {
      "midi": 58,
      "hit": false,
      "t": 200437.5,
      "d": 359.375,
      "v": 97
    },
    {
      "midi": 63,
      "hit": false,
      "t": 200625,
      "d": 179.6875,
      "v": 88
    },
    {
      "midi": 67,
      "hit": false,
      "t": 200812.5,
      "d": 54.6875,
      "v": 77
    },
    {
      "midi": 60,
      "hit": false,
      "t": 201000,
      "d": 335.9375,
      "v": 91
    },
    {
      "midi": 65,
      "hit": false,
      "t": 201000,
      "d": 359.375,
      "v": 82
    },
    {
      "midi": 69,
      "hit": false,
      "t": 201000,
      "d": 359.375,
      "v": 97
    },
    {
      "midi": 72,
      "hit": false,
      "t": 201750,
      "d": 242.1875,
      "v": 91
    },
    {
      "midi": 67,
      "hit": false,
      "t": 201750,
      "d": 250,
      "v": 88
    },
    {
      "midi": 69,
      "hit": false,
      "t": 201937.5,
      "d": 195.3125,
      "v": 80
    },
    {
      "midi": 65,
      "hit": false,
      "t": 202125,
      "d": 171.875,
      "v": 97
    },
    {
      "midi": 60,
      "hit": false,
      "t": 202312.5,
      "d": 171.875,
      "v": 88
    },
    {
      "midi": 58,
      "hit": false,
      "t": 202500,
      "d": 851.5625,
      "v": 91
    },
    {
      "midi": 65,
      "hit": false,
      "t": 202500,
      "d": 851.5625,
      "v": 97
    },
    {
      "midi": 75,
      "hit": false,
      "t": 202500,
      "d": 859.375,
      "v": 102
    },
    {
      "midi": 69,
      "hit": false,
      "t": 203625,
      "d": 664.0625,
      "v": 85
    },
    {
      "midi": 77,
      "hit": false,
      "t": 203625,
      "d": 695.3125,
      "v": 102
    },
    {
      "midi": 62,
      "hit": false,
      "t": 203625,
      "d": 703.125,
      "v": 82
    },
    {
      "midi": 70,
      "hit": false,
      "t": 204375,
      "d": 367.1875,
      "v": 102
    },
    {
      "midi": 58,
      "hit": false,
      "t": 204375,
      "d": 375,
      "v": 86
    },
    {
      "midi": 57,
      "hit": false,
      "t": 204750,
      "d": 375,
      "v": 86
    },
    {
      "midi": 69,
      "hit": false,
      "t": 204750,
      "d": 414.0625,
      "v": 91
    },
    {
      "midi": 53,
      "hit": false,
      "t": 205125,
      "d": 375,
      "v": 86
    },
    {
      "midi": 65,
      "hit": false,
      "t": 205125,
      "d": 375,
      "v": 91
    },
    {
      "midi": 58,
      "hit": false,
      "t": 205500,
      "d": 1484.375,
      "v": 91
    },
    {
      "midi": 67,
      "hit": false,
      "t": 205500,
      "d": 1531.25,
      "v": 80
    },
    {
      "midi": 62,
      "hit": false,
      "t": 205500,
      "d": 2992.1875,
      "v": 82
    },
    {
      "midi": 69,
      "hit": false,
      "t": 207000,
      "d": 765.625,
      "v": 82
    },
    {
      "midi": 57,
      "hit": false,
      "t": 207000,
      "d": 789.0625,
      "v": 82
    },
    {
      "midi": 58,
      "hit": false,
      "t": 207750,
      "d": 742.1875,
      "v": 91
    },
    {
      "midi": 70,
      "hit": false,
      "t": 207750,
      "d": 750,
      "v": 82
    },
    {
      "midi": 74,
      "hit": false,
      "t": 208500,
      "d": 781.25,
      "v": 82
    },
    {
      "midi": 63,
      "hit": false,
      "t": 208500,
      "d": 2992.1875,
      "v": 85
    },
    {
      "midi": 67,
      "hit": false,
      "t": 208500,
      "d": 2992.1875,
      "v": 82
    },
    {
      "midi": 72,
      "hit": false,
      "t": 209250,
      "d": 750,
      "v": 88
    },
    {
      "midi": 70,
      "hit": false,
      "t": 210000,
      "d": 1500,
      "v": 80
    },
    {
      "midi": 58,
      "hit": false,
      "t": 210750,
      "d": 750,
      "v": 88
    },
    {
      "midi": 60,
      "hit": false,
      "t": 211500,
      "d": 585.9375,
      "v": 88
    },
    {
      "midi": 67,
      "hit": false,
      "t": 211500,
      "d": 585.9375,
      "v": 91
    },
    {
      "midi": 62,
      "hit": false,
      "t": 211500,
      "d": 601.5625,
      "v": 91
    },
    {
      "midi": 60,
      "hit": false,
      "t": 212437.5,
      "d": 367.1875,
      "v": 88
    },
    {
      "midi": 62,
      "hit": false,
      "t": 212625,
      "d": 218.75,
      "v": 77
    },
    {
      "midi": 67,
      "hit": false,
      "t": 212812.5,
      "d": 78.125,
      "v": 66
    },
    {
      "midi": 57,
      "hit": false,
      "t": 213000,
      "d": 234.375,
      "v": 85
    },
    {
      "midi": 66,
      "hit": false,
      "t": 213187.5,
      "d": 242.1875,
      "v": 85
    },
    {
      "midi": 74,
      "hit": false,
      "t": 213375,
      "d": 257.8125,
      "v": 80
    },
    {
      "midi": 62,
      "hit": false,
      "t": 213562.5,
      "d": 562.5,
      "v": 80
    },
    {
      "midi": 69,
      "hit": false,
      "t": 213562.5,
      "d": 562.5,
      "v": 88
    },
    {
      "midi": 78,
      "hit": false,
      "t": 213562.5,
      "d": 562.5,
      "v": 85
    },
    {
      "midi": 66,
      "hit": false,
      "t": 214125,
      "d": 375,
      "v": 88
    },
    {
      "midi": 74,
      "hit": false,
      "t": 214125,
      "d": 375,
      "v": 97
    },
    {
      "midi": 81,
      "hit": false,
      "t": 214125,
      "d": 375,
      "v": 85
    },
    {
      "midi": 70,
      "hit": false,
      "t": 214500,
      "d": 679.6875,
      "v": 94
    },
    {
      "midi": 62,
      "hit": false,
      "t": 214500,
      "d": 710.9375,
      "v": 94
    },
    {
      "midi": 55,
      "hit": false,
      "t": 214500,
      "d": 726.5625,
      "v": 97
    },
    {
      "midi": 58,
      "hit": false,
      "t": 215625,
      "d": 914.0625,
      "v": 102
    },
    {
      "midi": 67,
      "hit": false,
      "t": 215625,
      "d": 1867.1875,
      "v": 94
    },
    {
      "midi": 74,
      "hit": false,
      "t": 215625,
      "d": 1867.1875,
      "v": 97
    },
    {
      "midi": 60,
      "hit": false,
      "t": 216750,
      "d": 734.375,
      "v": 85
    },
    {
      "midi": 62,
      "hit": false,
      "t": 217500,
      "d": 3000,
      "v": 97
    },
    {
      "midi": 67,
      "hit": false,
      "t": 217500,
      "d": 3000,
      "v": 80
    },
    {
      "midi": 69,
      "hit": false,
      "t": 217500,
      "d": 3000,
      "v": 85
    },
    {
      "midi": 74,
      "hit": false,
      "t": 218601.5625,
      "d": 1890.625,
      "v": 94
    },
    {
      "midi": 67,
      "hit": false,
      "t": 220515.625,
      "d": 1109.375,
      "v": 85
    },
    {
      "midi": 58,
      "hit": false,
      "t": 220515.625,
      "d": 2984.375,
      "v": 85
    },
    {
      "midi": 62,
      "hit": false,
      "t": 220515.625,
      "d": 2984.375,
      "v": 80
    },
    {
      "midi": 66,
      "hit": false,
      "t": 222007.8125,
      "d": 750,
      "v": 85
    },
    {
      "midi": 65,
      "hit": false,
      "t": 222742.1875,
      "d": 757.8125,
      "v": 85
    },
    {
      "midi": 55,
      "hit": false,
      "t": 223492.1875,
      "d": 617.1875,
      "v": 97
    },
    {
      "midi": 63,
      "hit": false,
      "t": 223492.1875,
      "d": 703.125,
      "v": 88
    },
    {
      "midi": 70,
      "hit": false,
      "t": 223492.1875,
      "d": 734.375,
      "v": 80
    },
    {
      "midi": 58,
      "hit": false,
      "t": 224617.1875,
      "d": 257.8125,
      "v": 80
    },
    {
      "midi": 67,
      "hit": false,
      "t": 224617.1875,
      "d": 296.875,
      "v": 94
    },
    {
      "midi": 75,
      "hit": false,
      "t": 224617.1875,
      "d": 296.875,
      "v": 85
    },
    {
      "midi": 63,
      "hit": false,
      "t": 225367.1875,
      "d": 132.8125,
      "v": 91
    },
    {
      "midi": 67,
      "hit": false,
      "t": 225492.1875,
      "d": 125,
      "v": 77
    },
    {
      "midi": 70,
      "hit": false,
      "t": 225617.1875,
      "d": 125,
      "v": 73
    },
    {
      "midi": 74,
      "hit": false,
      "t": 225742.1875,
      "d": 250,
      "v": 91
    },
    {
      "midi": 72,
      "hit": false,
      "t": 225992.1875,
      "d": 250,
      "v": 94
    },
    {
      "midi": 70,
      "hit": false,
      "t": 226242.1875,
      "d": 250,
      "v": 97
    },
    {
      "midi": 57,
      "hit": false,
      "t": 226492.1875,
      "d": 953.125,
      "v": 80
    },
    {
      "midi": 65,
      "hit": false,
      "t": 226492.1875,
      "d": 1046.875,
      "v": 85
    },
    {
      "midi": 74,
      "hit": false,
      "t": 226492.1875,
      "d": 1070.3125,
      "v": 82
    },
    {
      "midi": 69,
      "hit": false,
      "t": 227992.1875,
      "d": 375,
      "v": 94
    },
    {
      "midi": 65,
      "hit": false,
      "t": 227992.1875,
      "d": 750,
      "v": 85
    },
    {
      "midi": 62,
      "hit": false,
      "t": 227992.1875,
      "d": 1500,
      "v": 77
    },
    {
      "midi": 70,
      "hit": false,
      "t": 228367.1875,
      "d": 382.8125,
      "v": 75
    },
    {
      "midi": 69,
      "hit": false,
      "t": 228742.1875,
      "d": 375,
      "v": 82
    },
    {
      "midi": 65,
      "hit": false,
      "t": 229117.1875,
      "d": 375,
      "v": 82
    },
    {
      "midi": 58,
      "hit": false,
      "t": 229492.1875,
      "d": 1484.375,
      "v": 91
    },
    {
      "midi": 67,
      "hit": false,
      "t": 229492.1875,
      "d": 1531.25,
      "v": 80
    },
    {
      "midi": 62,
      "hit": false,
      "t": 229492.1875,
      "d": 2992.1875,
      "v": 82
    },
    {
      "midi": 69,
      "hit": false,
      "t": 230992.1875,
      "d": 765.625,
      "v": 82
    },
    {
      "midi": 57,
      "hit": false,
      "t": 230992.1875,
      "d": 789.0625,
      "v": 82
    },
    {
      "midi": 58,
      "hit": false,
      "t": 231742.1875,
      "d": 742.1875,
      "v": 91
    },
    {
      "midi": 70,
      "hit": false,
      "t": 231742.1875,
      "d": 750,
      "v": 82
    },
    {
      "midi": 74,
      "hit": false,
      "t": 232492.1875,
      "d": 781.25,
      "v": 82
    },
    {
      "midi": 63,
      "hit": false,
      "t": 232492.1875,
      "d": 2992.1875,
      "v": 85
    },
    {
      "midi": 67,
      "hit": false,
      "t": 232492.1875,
      "d": 2992.1875,
      "v": 82
    },
    {
      "midi": 72,
      "hit": false,
      "t": 233242.1875,
      "d": 750,
      "v": 88
    },
    {
      "midi": 70,
      "hit": false,
      "t": 233992.1875,
      "d": 1515.625,
      "v": 80
    },
    {
      "midi": 58,
      "hit": false,
      "t": 234742.1875,
      "d": 750,
      "v": 88
    },
    {
      "midi": 67,
      "hit": false,
      "t": 235492.1875,
      "d": 750,
      "v": 94
    },
    {
      "midi": 58,
      "hit": false,
      "t": 235492.1875,
      "d": 765.625,
      "v": 85
    },
    {
      "midi": 63,
      "hit": false,
      "t": 235492.1875,
      "d": 804.6875,
      "v": 88
    },
    {
      "midi": 58,
      "hit": false,
      "t": 236429.6875,
      "d": 359.375,
      "v": 85
    },
    {
      "midi": 63,
      "hit": false,
      "t": 236617.1875,
      "d": 187.5,
      "v": 82
    },
    {
      "midi": 67,
      "hit": false,
      "t": 236804.6875,
      "d": 54.6875,
      "v": 77
    },
    {
      "midi": 60,
      "hit": false,
      "t": 236992.1875,
      "d": 203.125,
      "v": 88
    },
    {
      "midi": 65,
      "hit": false,
      "t": 236992.1875,
      "d": 226.5625,
      "v": 80
    },
    {
      "midi": 69,
      "hit": false,
      "t": 236992.1875,
      "d": 234.375,
      "v": 80
    },
    {
      "midi": 79,
      "hit": false,
      "t": 237742.1875,
      "d": 203.125,
      "v": 88
    },
    {
      "midi": 84,
      "hit": false,
      "t": 237742.1875,
      "d": 234.375,
      "v": 85
    },
    {
      "midi": 81,
      "hit": false,
      "t": 237929.6875,
      "d": 195.3125,
      "v": 77
    },
    {
      "midi": 77,
      "hit": false,
      "t": 238117.1875,
      "d": 148.4375,
      "v": 80
    },
    {
      "midi": 72,
      "hit": false,
      "t": 238304.6875,
      "d": 179.6875,
      "v": 85
    },
    {
      "midi": 65,
      "hit": false,
      "t": 238492.1875,
      "d": 210.9375,
      "v": 85
    },
    {
      "midi": 74,
      "hit": false,
      "t": 238492.1875,
      "d": 617.1875,
      "v": 102
    },
    {
      "midi": 69,
      "hit": false,
      "t": 238679.6875,
      "d": 421.875,
      "v": 80
    },
    {
      "midi": 65,
      "hit": false,
      "t": 238867.1875,
      "d": 203.125,
      "v": 97
    },
    {
      "midi": 69,
      "hit": false,
      "t": 239617.1875,
      "d": 203.125,
      "v": 80
    },
    {
      "midi": 77,
      "hit": false,
      "t": 239617.1875,
      "d": 640.625,
      "v": 102
    },
    {
      "midi": 74,
      "hit": false,
      "t": 239804.6875,
      "d": 445.3125,
      "v": 77
    },
    {
      "midi": 69,
      "hit": false,
      "t": 239992.1875,
      "d": 234.375,
      "v": 97
    },
    {
      "midi": 74,
      "hit": false,
      "t": 240742.1875,
      "d": 226.5625,
      "v": 85
    },
    {
      "midi": 81,
      "hit": false,
      "t": 240742.1875,
      "d": 750,
      "v": 102
    },
    {
      "midi": 77,
      "hit": false,
      "t": 240929.6875,
      "d": 554.6875,
      "v": 85
    },
    {
      "midi": 74,
      "hit": false,
      "t": 241117.1875,
      "d": 359.375,
      "v": 102
    },
    {
      "midi": 64,
      "hit": false,
      "t": 241492.1875,
      "d": 187.5,
      "v": 91
    },
    {
      "midi": 62,
      "hit": false,
      "t": 241492.1875,
      "d": 203.125,
      "v": 82
    },
    {
      "midi": 69,
      "hit": false,
      "t": 241492.1875,
      "d": 203.125,
      "v": 97
    },
    {
      "midi": 74,
      "hit": false,
      "t": 242054.6875,
      "d": 289.0625,
      "v": 91
    },
    {
      "midi": 64,
      "hit": false,
      "t": 242054.6875,
      "d": 320.3125,
      "v": 88
    },
    {
      "midi": 69,
      "hit": false,
      "t": 242054.6875,
      "d": 320.3125,
      "v": 80
    },
    {
      "midi": 70,
      "hit": false,
      "t": 242992.1875,
      "d": 406.25,
      "v": 97
    },
    {
      "midi": 62,
      "hit": false,
      "t": 242992.1875,
      "d": 453.125,
      "v": 85
    },
    {
      "midi": 79,
      "hit": false,
      "t": 242992.1875,
      "d": 453.125,
      "v": 80
    },
    {
      "midi": 62,
      "hit": false,
      "t": 243742.1875,
      "d": 750,
      "v": 80
    },
    {
      "midi": 69,
      "hit": false,
      "t": 243742.1875,
      "d": 750,
      "v": 97
    },
    {
      "midi": 78,
      "hit": false,
      "t": 243742.1875,
      "d": 750,
      "v": 94
    },
    {
      "midi": 67,
      "hit": false,
      "t": 244492.1875,
      "d": 1109.375,
      "v": 85
    },
    {
      "midi": 58,
      "hit": false,
      "t": 244492.1875,
      "d": 2984.375,
      "v": 85
    },
    {
      "midi": 62,
      "hit": false,
      "t": 244492.1875,
      "d": 2984.375,
      "v": 80
    },
    {
      "midi": 66,
      "hit": false,
      "t": 245992.1875,
      "d": 750,
      "v": 85
    },
    {
      "midi": 65,
      "hit": false,
      "t": 246742.1875,
      "d": 757.8125,
      "v": 85
    },
    {
      "midi": 55,
      "hit": false,
      "t": 247492.1875,
      "d": 617.1875,
      "v": 97
    },
    {
      "midi": 63,
      "hit": false,
      "t": 247492.1875,
      "d": 703.125,
      "v": 88
    },
    {
      "midi": 70,
      "hit": false,
      "t": 247492.1875,
      "d": 734.375,
      "v": 80
    },
    {
      "midi": 58,
      "hit": false,
      "t": 248617.1875,
      "d": 257.8125,
      "v": 80
    },
    {
      "midi": 67,
      "hit": false,
      "t": 248617.1875,
      "d": 296.875,
      "v": 94
    },
    {
      "midi": 75,
      "hit": false,
      "t": 248617.1875,
      "d": 296.875,
      "v": 85
    },
    {
      "midi": 63,
      "hit": false,
      "t": 249367.1875,
      "d": 132.8125,
      "v": 91
    },
    {
      "midi": 67,
      "hit": false,
      "t": 249492.1875,
      "d": 125,
      "v": 77
    },
    {
      "midi": 70,
      "hit": false,
      "t": 249617.1875,
      "d": 125,
      "v": 73
    },
    {
      "midi": 74,
      "hit": false,
      "t": 249742.1875,
      "d": 250,
      "v": 91
    },
    {
      "midi": 72,
      "hit": false,
      "t": 249992.1875,
      "d": 250,
      "v": 94
    },
    {
      "midi": 70,
      "hit": false,
      "t": 250242.1875,
      "d": 250,
      "v": 97
    },
    {
      "midi": 57,
      "hit": false,
      "t": 250492.1875,
      "d": 953.125,
      "v": 80
    },
    {
      "midi": 65,
      "hit": false,
      "t": 250492.1875,
      "d": 1046.875,
      "v": 85
    },
    {
      "midi": 74,
      "hit": false,
      "t": 250492.1875,
      "d": 1070.3125,
      "v": 82
    },
    {
      "midi": 69,
      "hit": false,
      "t": 251992.1875,
      "d": 375,
      "v": 94
    },
    {
      "midi": 65,
      "hit": false,
      "t": 251992.1875,
      "d": 750,
      "v": 85
    },
    {
      "midi": 62,
      "hit": false,
      "t": 251992.1875,
      "d": 1500,
      "v": 77
    },
    {
      "midi": 70,
      "hit": false,
      "t": 252367.1875,
      "d": 382.8125,
      "v": 75
    },
    {
      "midi": 69,
      "hit": false,
      "t": 252742.1875,
      "d": 375,
      "v": 82
    },
    {
      "midi": 65,
      "hit": false,
      "t": 253117.1875,
      "d": 375,
      "v": 82
    },
    {
      "midi": 58,
      "hit": false,
      "t": 253492.1875,
      "d": 1484.375,
      "v": 91
    },
    {
      "midi": 67,
      "hit": false,
      "t": 253492.1875,
      "d": 1531.25,
      "v": 80
    },
    {
      "midi": 62,
      "hit": false,
      "t": 253492.1875,
      "d": 2992.1875,
      "v": 82
    },
    {
      "midi": 69,
      "hit": false,
      "t": 254992.1875,
      "d": 765.625,
      "v": 82
    },
    {
      "midi": 57,
      "hit": false,
      "t": 254992.1875,
      "d": 789.0625,
      "v": 82
    },
    {
      "midi": 58,
      "hit": false,
      "t": 255742.1875,
      "d": 742.1875,
      "v": 91
    },
    {
      "midi": 70,
      "hit": false,
      "t": 255742.1875,
      "d": 750,
      "v": 82
    },
    {
      "midi": 74,
      "hit": false,
      "t": 256492.1875,
      "d": 781.25,
      "v": 82
    },
    {
      "midi": 63,
      "hit": false,
      "t": 256492.1875,
      "d": 2992.1875,
      "v": 85
    },
    {
      "midi": 67,
      "hit": false,
      "t": 256492.1875,
      "d": 2992.1875,
      "v": 82
    },
    {
      "midi": 72,
      "hit": false,
      "t": 257242.1875,
      "d": 750,
      "v": 88
    },
    {
      "midi": 70,
      "hit": false,
      "t": 257992.1875,
      "d": 1515.625,
      "v": 80
    },
    {
      "midi": 58,
      "hit": false,
      "t": 258742.1875,
      "d": 750,
      "v": 88
    },
    {
      "midi": 67,
      "hit": false,
      "t": 259492.1875,
      "d": 750,
      "v": 94
    },
    {
      "midi": 58,
      "hit": false,
      "t": 259492.1875,
      "d": 765.625,
      "v": 85
    },
    {
      "midi": 63,
      "hit": false,
      "t": 259492.1875,
      "d": 804.6875,
      "v": 88
    },
    {
      "midi": 58,
      "hit": false,
      "t": 260429.6875,
      "d": 359.375,
      "v": 85
    },
    {
      "midi": 63,
      "hit": false,
      "t": 260617.1875,
      "d": 187.5,
      "v": 82
    },
    {
      "midi": 67,
      "hit": false,
      "t": 260804.6875,
      "d": 54.6875,
      "v": 77
    },
    {
      "midi": 60,
      "hit": false,
      "t": 260992.1875,
      "d": 203.125,
      "v": 88
    },
    {
      "midi": 65,
      "hit": false,
      "t": 260992.1875,
      "d": 226.5625,
      "v": 80
    },
    {
      "midi": 69,
      "hit": false,
      "t": 260992.1875,
      "d": 234.375,
      "v": 80
    },
    {
      "midi": 79,
      "hit": false,
      "t": 261742.1875,
      "d": 203.125,
      "v": 88
    },
    {
      "midi": 84,
      "hit": false,
      "t": 261742.1875,
      "d": 234.375,
      "v": 85
    },
    {
      "midi": 81,
      "hit": false,
      "t": 261929.6875,
      "d": 195.3125,
      "v": 77
    },
    {
      "midi": 77,
      "hit": false,
      "t": 262117.1875,
      "d": 148.4375,
      "v": 80
    },
    {
      "midi": 72,
      "hit": false,
      "t": 262304.6875,
      "d": 179.6875,
      "v": 85
    },
    {
      "midi": 65,
      "hit": false,
      "t": 262492.1875,
      "d": 289.0625,
      "v": 80
    },
    {
      "midi": 74,
      "hit": false,
      "t": 262492.1875,
      "d": 328.125,
      "v": 91
    },
    {
      "midi": 69,
      "hit": false,
      "t": 262679.6875,
      "d": 109.375,
      "v": 80
    },
    {
      "midi": 65,
      "hit": false,
      "t": 262867.1875,
      "d": 203.125,
      "v": 97
    },
    {
      "midi": 69,
      "hit": false,
      "t": 263617.1875,
      "d": 203.125,
      "v": 80
    },
    {
      "midi": 77,
      "hit": false,
      "t": 263617.1875,
      "d": 640.625,
      "v": 102
    },
    {
      "midi": 74,
      "hit": false,
      "t": 263804.6875,
      "d": 445.3125,
      "v": 77
    },
    {
      "midi": 69,
      "hit": false,
      "t": 263992.1875,
      "d": 234.375,
      "v": 97
    },
    {
      "midi": 74,
      "hit": false,
      "t": 264742.1875,
      "d": 226.5625,
      "v": 85
    },
    {
      "midi": 81,
      "hit": false,
      "t": 264742.1875,
      "d": 750,
      "v": 102
    },
    {
      "midi": 77,
      "hit": false,
      "t": 264929.6875,
      "d": 554.6875,
      "v": 85
    },
    {
      "midi": 74,
      "hit": false,
      "t": 265117.1875,
      "d": 359.375,
      "v": 102
    },
    {
      "midi": 64,
      "hit": false,
      "t": 265492.1875,
      "d": 187.5,
      "v": 91
    },
    {
      "midi": 62,
      "hit": false,
      "t": 265492.1875,
      "d": 203.125,
      "v": 82
    },
    {
      "midi": 69,
      "hit": false,
      "t": 265492.1875,
      "d": 203.125,
      "v": 97
    },
    {
      "midi": 74,
      "hit": false,
      "t": 266054.6875,
      "d": 289.0625,
      "v": 91
    },
    {
      "midi": 64,
      "hit": false,
      "t": 266054.6875,
      "d": 320.3125,
      "v": 88
    },
    {
      "midi": 69,
      "hit": false,
      "t": 266054.6875,
      "d": 320.3125,
      "v": 80
    },
    {
      "midi": 70,
      "hit": false,
      "t": 266992.1875,
      "d": 406.25,
      "v": 97
    },
    {
      "midi": 62,
      "hit": false,
      "t": 266992.1875,
      "d": 453.125,
      "v": 85
    },
    {
      "midi": 79,
      "hit": false,
      "t": 266992.1875,
      "d": 453.125,
      "v": 80
    },
    {
      "midi": 62,
      "hit": false,
      "t": 267742.1875,
      "d": 750,
      "v": 80
    },
    {
      "midi": 69,
      "hit": false,
      "t": 267742.1875,
      "d": 750,
      "v": 97
    },
    {
      "midi": 78,
      "hit": false,
      "t": 267742.1875,
      "d": 750,
      "v": 94
    },
    {
      "midi": 67,
      "hit": false,
      "t": 268515.625,
      "d": 1085.9375,
      "v": 85
    },
    {
      "midi": 58,
      "hit": false,
      "t": 268515.625,
      "d": 2960.9375,
      "v": 85
    },
    {
      "midi": 62,
      "hit": false,
      "t": 268515.625,
      "d": 2960.9375,
      "v": 80
    },
    {
      "midi": 66,
      "hit": false,
      "t": 270007.8125,
      "d": 750,
      "v": 85
    },
    {
      "midi": 65,
      "hit": false,
      "t": 270742.1875,
      "d": 757.8125,
      "v": 85
    },
    {
      "midi": 55,
      "hit": false,
      "t": 271492.1875,
      "d": 617.1875,
      "v": 97
    },
    {
      "midi": 63,
      "hit": false,
      "t": 271492.1875,
      "d": 703.125,
      "v": 88
    },
    {
      "midi": 70,
      "hit": false,
      "t": 271492.1875,
      "d": 734.375,
      "v": 80
    },
    {
      "midi": 58,
      "hit": false,
      "t": 272617.1875,
      "d": 257.8125,
      "v": 80
    },
    {
      "midi": 67,
      "hit": false,
      "t": 272617.1875,
      "d": 296.875,
      "v": 94
    },
    {
      "midi": 75,
      "hit": false,
      "t": 272617.1875,
      "d": 296.875,
      "v": 85
    },
    {
      "midi": 63,
      "hit": false,
      "t": 273367.1875,
      "d": 132.8125,
      "v": 91
    },
    {
      "midi": 67,
      "hit": false,
      "t": 273492.1875,
      "d": 125,
      "v": 77
    },
    {
      "midi": 70,
      "hit": false,
      "t": 273617.1875,
      "d": 125,
      "v": 73
    },
    {
      "midi": 74,
      "hit": false,
      "t": 273742.1875,
      "d": 250,
      "v": 91
    },
    {
      "midi": 72,
      "hit": false,
      "t": 273992.1875,
      "d": 250,
      "v": 94
    },
    {
      "midi": 70,
      "hit": false,
      "t": 274242.1875,
      "d": 250,
      "v": 97
    },
    {
      "midi": 57,
      "hit": false,
      "t": 274492.1875,
      "d": 953.125,
      "v": 80
    },
    {
      "midi": 65,
      "hit": false,
      "t": 274492.1875,
      "d": 1046.875,
      "v": 85
    },
    {
      "midi": 74,
      "hit": false,
      "t": 274492.1875,
      "d": 1070.3125,
      "v": 82
    },
    {
      "midi": 69,
      "hit": false,
      "t": 275992.1875,
      "d": 375,
      "v": 94
    },
    {
      "midi": 65,
      "hit": false,
      "t": 275992.1875,
      "d": 750,
      "v": 85
    },
    {
      "midi": 62,
      "hit": false,
      "t": 275992.1875,
      "d": 1500,
      "v": 77
    },
    {
      "midi": 70,
      "hit": false,
      "t": 276367.1875,
      "d": 382.8125,
      "v": 75
    },
    {
      "midi": 69,
      "hit": false,
      "t": 276742.1875,
      "d": 375,
      "v": 82
    },
    {
      "midi": 65,
      "hit": false,
      "t": 277117.1875,
      "d": 375,
      "v": 82
    },
    {
      "midi": 58,
      "hit": false,
      "t": 277492.1875,
      "d": 1484.375,
      "v": 91
    },
    {
      "midi": 67,
      "hit": false,
      "t": 277492.1875,
      "d": 1531.25,
      "v": 80
    },
    {
      "midi": 62,
      "hit": false,
      "t": 277492.1875,
      "d": 2992.1875,
      "v": 82
    },
    {
      "midi": 69,
      "hit": false,
      "t": 278992.1875,
      "d": 765.625,
      "v": 82
    },
    {
      "midi": 57,
      "hit": false,
      "t": 278992.1875,
      "d": 789.0625,
      "v": 82
    },
    {
      "midi": 58,
      "hit": false,
      "t": 279742.1875,
      "d": 742.1875,
      "v": 91
    },
    {
      "midi": 70,
      "hit": false,
      "t": 279742.1875,
      "d": 750,
      "v": 82
    },
    {
      "midi": 74,
      "hit": false,
      "t": 280492.1875,
      "d": 781.25,
      "v": 82
    },
    {
      "midi": 63,
      "hit": false,
      "t": 280492.1875,
      "d": 2992.1875,
      "v": 85
    },
    {
      "midi": 67,
      "hit": false,
      "t": 280492.1875,
      "d": 2992.1875,
      "v": 82
    },
    {
      "midi": 72,
      "hit": false,
      "t": 281242.1875,
      "d": 750,
      "v": 88
    },
    {
      "midi": 70,
      "hit": false,
      "t": 281992.1875,
      "d": 1515.625,
      "v": 80
    },
    {
      "midi": 58,
      "hit": false,
      "t": 282742.1875,
      "d": 750,
      "v": 88
    },
    {
      "midi": 67,
      "hit": false,
      "t": 283492.1875,
      "d": 750,
      "v": 94
    },
    {
      "midi": 58,
      "hit": false,
      "t": 283492.1875,
      "d": 765.625,
      "v": 85
    },
    {
      "midi": 63,
      "hit": false,
      "t": 283492.1875,
      "d": 804.6875,
      "v": 88
    },
    {
      "midi": 58,
      "hit": false,
      "t": 284429.6875,
      "d": 359.375,
      "v": 85
    },
    {
      "midi": 63,
      "hit": false,
      "t": 284617.1875,
      "d": 187.5,
      "v": 82
    },
    {
      "midi": 67,
      "hit": false,
      "t": 284804.6875,
      "d": 54.6875,
      "v": 77
    },
    {
      "midi": 60,
      "hit": false,
      "t": 284992.1875,
      "d": 203.125,
      "v": 88
    },
    {
      "midi": 65,
      "hit": false,
      "t": 284992.1875,
      "d": 226.5625,
      "v": 80
    },
    {
      "midi": 69,
      "hit": false,
      "t": 284992.1875,
      "d": 234.375,
      "v": 80
    },
    {
      "midi": 79,
      "hit": false,
      "t": 285742.1875,
      "d": 203.125,
      "v": 88
    },
    {
      "midi": 84,
      "hit": false,
      "t": 285742.1875,
      "d": 234.375,
      "v": 85
    },
    {
      "midi": 81,
      "hit": false,
      "t": 285929.6875,
      "d": 195.3125,
      "v": 77
    },
    {
      "midi": 77,
      "hit": false,
      "t": 286117.1875,
      "d": 148.4375,
      "v": 80
    },
    {
      "midi": 72,
      "hit": false,
      "t": 286304.6875,
      "d": 179.6875,
      "v": 85
    },
    {
      "midi": 65,
      "hit": false,
      "t": 286492.1875,
      "d": 210.9375,
      "v": 85
    },
    {
      "midi": 74,
      "hit": false,
      "t": 286492.1875,
      "d": 617.1875,
      "v": 102
    },
    {
      "midi": 69,
      "hit": false,
      "t": 286679.6875,
      "d": 421.875,
      "v": 80
    },
    {
      "midi": 65,
      "hit": false,
      "t": 286867.1875,
      "d": 203.125,
      "v": 97
    },
    {
      "midi": 69,
      "hit": false,
      "t": 287617.1875,
      "d": 203.125,
      "v": 80
    },
    {
      "midi": 77,
      "hit": false,
      "t": 287617.1875,
      "d": 640.625,
      "v": 102
    },
    {
      "midi": 74,
      "hit": false,
      "t": 287804.6875,
      "d": 445.3125,
      "v": 77
    },
    {
      "midi": 69,
      "hit": false,
      "t": 287992.1875,
      "d": 234.375,
      "v": 97
    },
    {
      "midi": 74,
      "hit": false,
      "t": 288742.1875,
      "d": 226.5625,
      "v": 85
    },
    {
      "midi": 81,
      "hit": false,
      "t": 288742.1875,
      "d": 750,
      "v": 102
    },
    {
      "midi": 77,
      "hit": false,
      "t": 288929.6875,
      "d": 554.6875,
      "v": 85
    },
    {
      "midi": 74,
      "hit": false,
      "t": 289117.1875,
      "d": 359.375,
      "v": 102
    },
    {
      "midi": 64,
      "hit": false,
      "t": 289492.1875,
      "d": 187.5,
      "v": 91
    },
    {
      "midi": 62,
      "hit": false,
      "t": 289492.1875,
      "d": 203.125,
      "v": 82
    },
    {
      "midi": 69,
      "hit": false,
      "t": 289492.1875,
      "d": 203.125,
      "v": 97
    },
    {
      "midi": 74,
      "hit": false,
      "t": 290054.6875,
      "d": 289.0625,
      "v": 91
    },
    {
      "midi": 64,
      "hit": false,
      "t": 290054.6875,
      "d": 320.3125,
      "v": 88
    },
    {
      "midi": 69,
      "hit": false,
      "t": 290054.6875,
      "d": 320.3125,
      "v": 80
    },
    {
      "midi": 70,
      "hit": false,
      "t": 290992.1875,
      "d": 406.25,
      "v": 97
    },
    {
      "midi": 62,
      "hit": false,
      "t": 290992.1875,
      "d": 453.125,
      "v": 85
    },
    {
      "midi": 79,
      "hit": false,
      "t": 290992.1875,
      "d": 453.125,
      "v": 80
    },
    {
      "midi": 62,
      "hit": false,
      "t": 291742.1875,
      "d": 750,
      "v": 80
    },
    {
      "midi": 69,
      "hit": false,
      "t": 291742.1875,
      "d": 750,
      "v": 97
    },
    {
      "midi": 78,
      "hit": false,
      "t": 291742.1875,
      "d": 750,
      "v": 94
    },
    {
      "midi": 67,
      "hit": false,
      "t": 292515.625,
      "d": 1085.9375,
      "v": 85
    },
    {
      "midi": 58,
      "hit": false,
      "t": 292515.625,
      "d": 2960.9375,
      "v": 85
    },
    {
      "midi": 62,
      "hit": false,
      "t": 292515.625,
      "d": 2960.9375,
      "v": 80
    },
    {
      "midi": 66,
      "hit": false,
      "t": 294007.8125,
      "d": 750,
      "v": 85
    },
    {
      "midi": 65,
      "hit": false,
      "t": 294742.1875,
      "d": 757.8125,
      "v": 85
    },
    {
      "midi": 55,
      "hit": false,
      "t": 295492.1875,
      "d": 617.1875,
      "v": 97
    },
    {
      "midi": 63,
      "hit": false,
      "t": 295492.1875,
      "d": 703.125,
      "v": 88
    },
    {
      "midi": 70,
      "hit": false,
      "t": 295492.1875,
      "d": 734.375,
      "v": 80
    },
    {
      "midi": 58,
      "hit": false,
      "t": 296617.1875,
      "d": 257.8125,
      "v": 80
    },
    {
      "midi": 67,
      "hit": false,
      "t": 296617.1875,
      "d": 296.875,
      "v": 94
    },
    {
      "midi": 75,
      "hit": false,
      "t": 296617.1875,
      "d": 296.875,
      "v": 85
    },
    {
      "midi": 63,
      "hit": false,
      "t": 297367.1875,
      "d": 132.8125,
      "v": 91
    },
    {
      "midi": 67,
      "hit": false,
      "t": 297492.1875,
      "d": 125,
      "v": 77
    },
    {
      "midi": 70,
      "hit": false,
      "t": 297617.1875,
      "d": 125,
      "v": 73
    },
    {
      "midi": 74,
      "hit": false,
      "t": 297742.1875,
      "d": 250,
      "v": 91
    },
    {
      "midi": 72,
      "hit": false,
      "t": 297992.1875,
      "d": 250,
      "v": 94
    },
    {
      "midi": 70,
      "hit": false,
      "t": 298242.1875,
      "d": 250,
      "v": 97
    },
    {
      "midi": 57,
      "hit": false,
      "t": 298492.1875,
      "d": 953.125,
      "v": 80
    },
    {
      "midi": 65,
      "hit": false,
      "t": 298492.1875,
      "d": 1046.875,
      "v": 85
    },
    {
      "midi": 74,
      "hit": false,
      "t": 298492.1875,
      "d": 1070.3125,
      "v": 82
    },
    {
      "midi": 69,
      "hit": false,
      "t": 299992.1875,
      "d": 375,
      "v": 94
    },
    {
      "midi": 65,
      "hit": false,
      "t": 299992.1875,
      "d": 750,
      "v": 85
    },
    {
      "midi": 62,
      "hit": false,
      "t": 299992.1875,
      "d": 1500,
      "v": 77
    },
    {
      "midi": 70,
      "hit": false,
      "t": 300367.1875,
      "d": 382.8125,
      "v": 75
    },
    {
      "midi": 69,
      "hit": false,
      "t": 300742.1875,
      "d": 375,
      "v": 82
    },
    {
      "midi": 65,
      "hit": false,
      "t": 301117.1875,
      "d": 375,
      "v": 82
    },
    {
      "midi": 58,
      "hit": false,
      "t": 301492.1875,
      "d": 1484.375,
      "v": 91
    },
    {
      "midi": 67,
      "hit": false,
      "t": 301492.1875,
      "d": 1531.25,
      "v": 80
    },
    {
      "midi": 62,
      "hit": false,
      "t": 301492.1875,
      "d": 2992.1875,
      "v": 82
    },
    {
      "midi": 69,
      "hit": false,
      "t": 302992.1875,
      "d": 765.625,
      "v": 82
    },
    {
      "midi": 57,
      "hit": false,
      "t": 302992.1875,
      "d": 789.0625,
      "v": 82
    },
    {
      "midi": 58,
      "hit": false,
      "t": 303742.1875,
      "d": 742.1875,
      "v": 91
    },
    {
      "midi": 70,
      "hit": false,
      "t": 303742.1875,
      "d": 750,
      "v": 82
    },
    {
      "midi": 74,
      "hit": false,
      "t": 304492.1875,
      "d": 781.25,
      "v": 82
    },
    {
      "midi": 63,
      "hit": false,
      "t": 304492.1875,
      "d": 2992.1875,
      "v": 85
    },
    {
      "midi": 67,
      "hit": false,
      "t": 304492.1875,
      "d": 2992.1875,
      "v": 82
    },
    {
      "midi": 72,
      "hit": false,
      "t": 305242.1875,
      "d": 750,
      "v": 88
    },
    {
      "midi": 70,
      "hit": false,
      "t": 305992.1875,
      "d": 1515.625,
      "v": 80
    },
    {
      "midi": 58,
      "hit": false,
      "t": 306742.1875,
      "d": 750,
      "v": 88
    },
    {
      "midi": 67,
      "hit": false,
      "t": 307492.1875,
      "d": 750,
      "v": 94
    },
    {
      "midi": 58,
      "hit": false,
      "t": 307492.1875,
      "d": 765.625,
      "v": 85
    },
    {
      "midi": 63,
      "hit": false,
      "t": 307492.1875,
      "d": 804.6875,
      "v": 88
    },
    {
      "midi": 58,
      "hit": false,
      "t": 308429.6875,
      "d": 359.375,
      "v": 85
    },
    {
      "midi": 63,
      "hit": false,
      "t": 308617.1875,
      "d": 187.5,
      "v": 82
    },
    {
      "midi": 67,
      "hit": false,
      "t": 308804.6875,
      "d": 54.6875,
      "v": 77
    },
    {
      "midi": 60,
      "hit": false,
      "t": 308992.1875,
      "d": 203.125,
      "v": 88
    },
    {
      "midi": 65,
      "hit": false,
      "t": 308992.1875,
      "d": 226.5625,
      "v": 80
    },
    {
      "midi": 69,
      "hit": false,
      "t": 308992.1875,
      "d": 234.375,
      "v": 80
    },
    {
      "midi": 79,
      "hit": false,
      "t": 309742.1875,
      "d": 203.125,
      "v": 88
    },
    {
      "midi": 84,
      "hit": false,
      "t": 309742.1875,
      "d": 234.375,
      "v": 85
    },
    {
      "midi": 81,
      "hit": false,
      "t": 309929.6875,
      "d": 195.3125,
      "v": 77
    },
    {
      "midi": 77,
      "hit": false,
      "t": 310117.1875,
      "d": 148.4375,
      "v": 80
    },
    {
      "midi": 72,
      "hit": false,
      "t": 310304.6875,
      "d": 179.6875,
      "v": 85
    },
    {
      "midi": 65,
      "hit": false,
      "t": 310492.1875,
      "d": 210.9375,
      "v": 85
    },
    {
      "midi": 74,
      "hit": false,
      "t": 310492.1875,
      "d": 617.1875,
      "v": 102
    },
    {
      "midi": 69,
      "hit": false,
      "t": 310679.6875,
      "d": 421.875,
      "v": 80
    },
    {
      "midi": 65,
      "hit": false,
      "t": 310867.1875,
      "d": 203.125,
      "v": 97
    },
    {
      "midi": 69,
      "hit": false,
      "t": 311617.1875,
      "d": 203.125,
      "v": 80
    },
    {
      "midi": 77,
      "hit": false,
      "t": 311617.1875,
      "d": 640.625,
      "v": 102
    },
    {
      "midi": 74,
      "hit": false,
      "t": 311804.6875,
      "d": 445.3125,
      "v": 77
    },
    {
      "midi": 69,
      "hit": false,
      "t": 311992.1875,
      "d": 234.375,
      "v": 97
    },
    {
      "midi": 74,
      "hit": false,
      "t": 312742.1875,
      "d": 226.5625,
      "v": 85
    },
    {
      "midi": 81,
      "hit": false,
      "t": 312742.1875,
      "d": 750,
      "v": 102
    },
    {
      "midi": 77,
      "hit": false,
      "t": 312929.6875,
      "d": 554.6875,
      "v": 85
    },
    {
      "midi": 74,
      "hit": false,
      "t": 313117.1875,
      "d": 359.375,
      "v": 102
    },
    {
      "midi": 64,
      "hit": false,
      "t": 313492.1875,
      "d": 187.5,
      "v": 91
    },
    {
      "midi": 62,
      "hit": false,
      "t": 313492.1875,
      "d": 203.125,
      "v": 82
    },
    {
      "midi": 69,
      "hit": false,
      "t": 313492.1875,
      "d": 203.125,
      "v": 97
    },
    {
      "midi": 74,
      "hit": false,
      "t": 314054.6875,
      "d": 289.0625,
      "v": 91
    },
    {
      "midi": 64,
      "hit": false,
      "t": 314054.6875,
      "d": 320.3125,
      "v": 88
    },
    {
      "midi": 69,
      "hit": false,
      "t": 314054.6875,
      "d": 320.3125,
      "v": 80
    },
    {
      "midi": 70,
      "hit": false,
      "t": 314992.1875,
      "d": 406.25,
      "v": 97
    },
    {
      "midi": 62,
      "hit": false,
      "t": 314992.1875,
      "d": 453.125,
      "v": 85
    },
    {
      "midi": 79,
      "hit": false,
      "t": 314992.1875,
      "d": 453.125,
      "v": 80
    },
    {
      "midi": 62,
      "hit": false,
      "t": 315742.1875,
      "d": 750,
      "v": 80
    },
    {
      "midi": 69,
      "hit": false,
      "t": 315742.1875,
      "d": 750,
      "v": 97
    },
    {
      "midi": 78,
      "hit": false,
      "t": 315742.1875,
      "d": 750,
      "v": 94
    },
    {
      "midi": 67,
      "hit": false,
      "t": 316515.625,
      "d": 1085.9375,
      "v": 85
    },
    {
      "midi": 58,
      "hit": false,
      "t": 316515.625,
      "d": 2960.9375,
      "v": 85
    },
    {
      "midi": 62,
      "hit": false,
      "t": 316515.625,
      "d": 2960.9375,
      "v": 80
    },
    {
      "midi": 66,
      "hit": false,
      "t": 318007.8125,
      "d": 750,
      "v": 85
    },
    {
      "midi": 65,
      "hit": false,
      "t": 318742.1875,
      "d": 757.8125,
      "v": 85
    },
    {
      "midi": 55,
      "hit": false,
      "t": 319492.1875,
      "d": 617.1875,
      "v": 97
    },
    {
      "midi": 63,
      "hit": false,
      "t": 319492.1875,
      "d": 703.125,
      "v": 88
    },
    {
      "midi": 70,
      "hit": false,
      "t": 319492.1875,
      "d": 734.375,
      "v": 80
    },
    {
      "midi": 58,
      "hit": false,
      "t": 320617.1875,
      "d": 257.8125,
      "v": 80
    },
    {
      "midi": 67,
      "hit": false,
      "t": 320617.1875,
      "d": 296.875,
      "v": 94
    },
    {
      "midi": 75,
      "hit": false,
      "t": 320617.1875,
      "d": 296.875,
      "v": 85
    },
    {
      "midi": 63,
      "hit": false,
      "t": 321367.1875,
      "d": 132.8125,
      "v": 91
    },
    {
      "midi": 67,
      "hit": false,
      "t": 321492.1875,
      "d": 125,
      "v": 77
    },
    {
      "midi": 70,
      "hit": false,
      "t": 321617.1875,
      "d": 125,
      "v": 73
    },
    {
      "midi": 74,
      "hit": false,
      "t": 321742.1875,
      "d": 250,
      "v": 91
    },
    {
      "midi": 72,
      "hit": false,
      "t": 321992.1875,
      "d": 250,
      "v": 94
    },
    {
      "midi": 70,
      "hit": false,
      "t": 322242.1875,
      "d": 250,
      "v": 97
    },
    {
      "midi": 57,
      "hit": false,
      "t": 322492.1875,
      "d": 953.125,
      "v": 80
    },
    {
      "midi": 65,
      "hit": false,
      "t": 322492.1875,
      "d": 1046.875,
      "v": 85
    },
    {
      "midi": 74,
      "hit": false,
      "t": 322492.1875,
      "d": 1070.3125,
      "v": 82
    },
    {
      "midi": 69,
      "hit": false,
      "t": 323992.1875,
      "d": 375,
      "v": 94
    },
    {
      "midi": 65,
      "hit": false,
      "t": 323992.1875,
      "d": 750,
      "v": 85
    },
    {
      "midi": 62,
      "hit": false,
      "t": 323992.1875,
      "d": 1500,
      "v": 77
    },
    {
      "midi": 70,
      "hit": false,
      "t": 324367.1875,
      "d": 382.8125,
      "v": 75
    },
    {
      "midi": 69,
      "hit": false,
      "t": 324742.1875,
      "d": 375,
      "v": 82
    },
    {
      "midi": 65,
      "hit": false,
      "t": 325117.1875,
      "d": 375,
      "v": 82
    },
    {
      "midi": 58,
      "hit": false,
      "t": 325492.1875,
      "d": 1484.375,
      "v": 91
    },
    {
      "midi": 67,
      "hit": false,
      "t": 325492.1875,
      "d": 1531.25,
      "v": 80
    },
    {
      "midi": 62,
      "hit": false,
      "t": 325492.1875,
      "d": 2992.1875,
      "v": 82
    },
    {
      "midi": 69,
      "hit": false,
      "t": 326992.1875,
      "d": 765.625,
      "v": 82
    },
    {
      "midi": 57,
      "hit": false,
      "t": 326992.1875,
      "d": 789.0625,
      "v": 82
    },
    {
      "midi": 58,
      "hit": false,
      "t": 327742.1875,
      "d": 742.1875,
      "v": 91
    },
    {
      "midi": 70,
      "hit": false,
      "t": 327742.1875,
      "d": 750,
      "v": 82
    },
    {
      "midi": 74,
      "hit": false,
      "t": 328492.1875,
      "d": 781.25,
      "v": 82
    },
    {
      "midi": 63,
      "hit": false,
      "t": 328492.1875,
      "d": 2992.1875,
      "v": 85
    },
    {
      "midi": 67,
      "hit": false,
      "t": 328492.1875,
      "d": 2992.1875,
      "v": 82
    },
    {
      "midi": 72,
      "hit": false,
      "t": 329242.1875,
      "d": 750,
      "v": 88
    },
    {
      "midi": 70,
      "hit": false,
      "t": 329992.1875,
      "d": 1515.625,
      "v": 80
    },
    {
      "midi": 58,
      "hit": false,
      "t": 330742.1875,
      "d": 750,
      "v": 88
    },
    {
      "midi": 67,
      "hit": false,
      "t": 331492.1875,
      "d": 750,
      "v": 94
    },
    {
      "midi": 58,
      "hit": false,
      "t": 331492.1875,
      "d": 765.625,
      "v": 85
    },
    {
      "midi": 63,
      "hit": false,
      "t": 331492.1875,
      "d": 804.6875,
      "v": 88
    },
    {
      "midi": 58,
      "hit": false,
      "t": 332429.6875,
      "d": 359.375,
      "v": 85
    },
    {
      "midi": 63,
      "hit": false,
      "t": 332617.1875,
      "d": 187.5,
      "v": 82
    },
    {
      "midi": 67,
      "hit": false,
      "t": 332804.6875,
      "d": 54.6875,
      "v": 77
    },
    {
      "midi": 60,
      "hit": false,
      "t": 332992.1875,
      "d": 203.125,
      "v": 88
    },
    {
      "midi": 65,
      "hit": false,
      "t": 332992.1875,
      "d": 226.5625,
      "v": 80
    },
    {
      "midi": 69,
      "hit": false,
      "t": 332992.1875,
      "d": 234.375,
      "v": 80
    },
    {
      "midi": 79,
      "hit": false,
      "t": 333742.1875,
      "d": 203.125,
      "v": 88
    },
    {
      "midi": 84,
      "hit": false,
      "t": 333742.1875,
      "d": 234.375,
      "v": 85
    },
    {
      "midi": 81,
      "hit": false,
      "t": 333929.6875,
      "d": 195.3125,
      "v": 77
    },
    {
      "midi": 77,
      "hit": false,
      "t": 334117.1875,
      "d": 148.4375,
      "v": 80
    },
    {
      "midi": 72,
      "hit": false,
      "t": 334304.6875,
      "d": 179.6875,
      "v": 85
    },
    {
      "midi": 65,
      "hit": false,
      "t": 334492.1875,
      "d": 210.9375,
      "v": 85
    },
    {
      "midi": 74,
      "hit": false,
      "t": 334492.1875,
      "d": 617.1875,
      "v": 102
    },
    {
      "midi": 69,
      "hit": false,
      "t": 334679.6875,
      "d": 421.875,
      "v": 80
    },
    {
      "midi": 65,
      "hit": false,
      "t": 334867.1875,
      "d": 203.125,
      "v": 97
    },
    {
      "midi": 69,
      "hit": false,
      "t": 335617.1875,
      "d": 203.125,
      "v": 80
    },
    {
      "midi": 77,
      "hit": false,
      "t": 335617.1875,
      "d": 640.625,
      "v": 102
    },
    {
      "midi": 74,
      "hit": false,
      "t": 335804.6875,
      "d": 445.3125,
      "v": 77
    },
    {
      "midi": 69,
      "hit": false,
      "t": 335992.1875,
      "d": 234.375,
      "v": 97
    },
    {
      "midi": 74,
      "hit": false,
      "t": 336742.1875,
      "d": 226.5625,
      "v": 85
    },
    {
      "midi": 81,
      "hit": false,
      "t": 336742.1875,
      "d": 750,
      "v": 102
    },
    {
      "midi": 77,
      "hit": false,
      "t": 336929.6875,
      "d": 554.6875,
      "v": 85
    },
    {
      "midi": 74,
      "hit": false,
      "t": 337117.1875,
      "d": 359.375,
      "v": 102
    },
    {
      "midi": 64,
      "hit": false,
      "t": 337492.1875,
      "d": 187.5,
      "v": 91
    },
    {
      "midi": 62,
      "hit": false,
      "t": 337492.1875,
      "d": 203.125,
      "v": 82
    },
    {
      "midi": 69,
      "hit": false,
      "t": 337492.1875,
      "d": 203.125,
      "v": 97
    },
    {
      "midi": 74,
      "hit": false,
      "t": 338054.6875,
      "d": 289.0625,
      "v": 91
    },
    {
      "midi": 64,
      "hit": false,
      "t": 338054.6875,
      "d": 320.3125,
      "v": 88
    },
    {
      "midi": 69,
      "hit": false,
      "t": 338054.6875,
      "d": 320.3125,
      "v": 80
    },
    {
      "midi": 70,
      "hit": false,
      "t": 338992.1875,
      "d": 406.25,
      "v": 97
    },
    {
      "midi": 62,
      "hit": false,
      "t": 338992.1875,
      "d": 453.125,
      "v": 85
    },
    {
      "midi": 79,
      "hit": false,
      "t": 338992.1875,
      "d": 453.125,
      "v": 80
    },
    {
      "midi": 62,
      "hit": false,
      "t": 339742.1875,
      "d": 750,
      "v": 80
    },
    {
      "midi": 69,
      "hit": false,
      "t": 339742.1875,
      "d": 750,
      "v": 97
    },
    {
      "midi": 78,
      "hit": false,
      "t": 339742.1875,
      "d": 750,
      "v": 94
    },
    {
      "midi": 67,
      "hit": false,
      "t": 340515.625,
      "d": 1085.9375,
      "v": 85
    },
    {
      "midi": 58,
      "hit": false,
      "t": 340515.625,
      "d": 2960.9375,
      "v": 85
    },
    {
      "midi": 62,
      "hit": false,
      "t": 340515.625,
      "d": 2960.9375,
      "v": 80
    },
    {
      "midi": 66,
      "hit": false,
      "t": 342007.8125,
      "d": 750,
      "v": 85
    },
    {
      "midi": 65,
      "hit": false,
      "t": 342742.1875,
      "d": 757.8125,
      "v": 85
    },
    {
      "midi": 55,
      "hit": false,
      "t": 343492.1875,
      "d": 617.1875,
      "v": 97
    },
    {
      "midi": 63,
      "hit": false,
      "t": 343492.1875,
      "d": 703.125,
      "v": 88
    },
    {
      "midi": 70,
      "hit": false,
      "t": 343492.1875,
      "d": 734.375,
      "v": 80
    },
    {
      "midi": 58,
      "hit": false,
      "t": 344617.1875,
      "d": 257.8125,
      "v": 80
    },
    {
      "midi": 67,
      "hit": false,
      "t": 344617.1875,
      "d": 296.875,
      "v": 94
    },
    {
      "midi": 75,
      "hit": false,
      "t": 344617.1875,
      "d": 296.875,
      "v": 85
    },
    {
      "midi": 63,
      "hit": false,
      "t": 345367.1875,
      "d": 132.8125,
      "v": 91
    },
    {
      "midi": 67,
      "hit": false,
      "t": 345492.1875,
      "d": 125,
      "v": 77
    },
    {
      "midi": 70,
      "hit": false,
      "t": 345617.1875,
      "d": 125,
      "v": 73
    },
    {
      "midi": 74,
      "hit": false,
      "t": 345742.1875,
      "d": 250,
      "v": 91
    },
    {
      "midi": 72,
      "hit": false,
      "t": 345992.1875,
      "d": 250,
      "v": 94
    },
    {
      "midi": 70,
      "hit": false,
      "t": 346242.1875,
      "d": 250,
      "v": 97
    },
    {
      "midi": 57,
      "hit": false,
      "t": 346492.1875,
      "d": 953.125,
      "v": 80
    },
    {
      "midi": 65,
      "hit": false,
      "t": 346492.1875,
      "d": 1046.875,
      "v": 85
    },
    {
      "midi": 74,
      "hit": false,
      "t": 346492.1875,
      "d": 1070.3125,
      "v": 82
    },
    {
      "midi": 69,
      "hit": false,
      "t": 347992.1875,
      "d": 375,
      "v": 94
    },
    {
      "midi": 65,
      "hit": false,
      "t": 347992.1875,
      "d": 750,
      "v": 85
    },
    {
      "midi": 62,
      "hit": false,
      "t": 347992.1875,
      "d": 1500,
      "v": 77
    },
    {
      "midi": 70,
      "hit": false,
      "t": 348367.1875,
      "d": 382.8125,
      "v": 75
    },
    {
      "midi": 69,
      "hit": false,
      "t": 348742.1875,
      "d": 375,
      "v": 82
    },
    {
      "midi": 65,
      "hit": false,
      "t": 349117.1875,
      "d": 375,
      "v": 82
    },
    {
      "midi": 58,
      "hit": false,
      "t": 349492.1875,
      "d": 1484.375,
      "v": 91
    },
    {
      "midi": 67,
      "hit": false,
      "t": 349492.1875,
      "d": 1531.25,
      "v": 80
    },
    {
      "midi": 62,
      "hit": false,
      "t": 349492.1875,
      "d": 2992.1875,
      "v": 82
    },
    {
      "midi": 69,
      "hit": false,
      "t": 350992.1875,
      "d": 765.625,
      "v": 82
    },
    {
      "midi": 57,
      "hit": false,
      "t": 350992.1875,
      "d": 789.0625,
      "v": 82
    },
    {
      "midi": 58,
      "hit": false,
      "t": 351742.1875,
      "d": 742.1875,
      "v": 91
    },
    {
      "midi": 70,
      "hit": false,
      "t": 351742.1875,
      "d": 750,
      "v": 82
    },
    {
      "midi": 74,
      "hit": false,
      "t": 352492.1875,
      "d": 781.25,
      "v": 82
    },
    {
      "midi": 63,
      "hit": false,
      "t": 352492.1875,
      "d": 2992.1875,
      "v": 85
    },
    {
      "midi": 67,
      "hit": false,
      "t": 352492.1875,
      "d": 2992.1875,
      "v": 82
    },
    {
      "midi": 72,
      "hit": false,
      "t": 353242.1875,
      "d": 750,
      "v": 88
    },
    {
      "midi": 70,
      "hit": false,
      "t": 353992.1875,
      "d": 1515.625,
      "v": 80
    },
    {
      "midi": 58,
      "hit": false,
      "t": 354742.1875,
      "d": 750,
      "v": 88
    },
    {
      "midi": 67,
      "hit": false,
      "t": 355492.1875,
      "d": 750,
      "v": 94
    },
    {
      "midi": 58,
      "hit": false,
      "t": 355492.1875,
      "d": 765.625,
      "v": 85
    },
    {
      "midi": 63,
      "hit": false,
      "t": 355492.1875,
      "d": 804.6875,
      "v": 88
    },
    {
      "midi": 58,
      "hit": false,
      "t": 356429.6875,
      "d": 359.375,
      "v": 85
    },
    {
      "midi": 63,
      "hit": false,
      "t": 356617.1875,
      "d": 187.5,
      "v": 82
    },
    {
      "midi": 67,
      "hit": false,
      "t": 356804.6875,
      "d": 54.6875,
      "v": 77
    },
    {
      "midi": 60,
      "hit": false,
      "t": 356992.1875,
      "d": 203.125,
      "v": 88
    },
    {
      "midi": 65,
      "hit": false,
      "t": 356992.1875,
      "d": 226.5625,
      "v": 80
    },
    {
      "midi": 69,
      "hit": false,
      "t": 356992.1875,
      "d": 234.375,
      "v": 80
    },
    {
      "midi": 79,
      "hit": false,
      "t": 357742.1875,
      "d": 203.125,
      "v": 88
    },
    {
      "midi": 84,
      "hit": false,
      "t": 357742.1875,
      "d": 234.375,
      "v": 85
    },
    {
      "midi": 81,
      "hit": false,
      "t": 357929.6875,
      "d": 195.3125,
      "v": 77
    },
    {
      "midi": 77,
      "hit": false,
      "t": 358117.1875,
      "d": 148.4375,
      "v": 80
    },
    {
      "midi": 72,
      "hit": false,
      "t": 358304.6875,
      "d": 179.6875,
      "v": 85
    },
    {
      "midi": 65,
      "hit": false,
      "t": 358492.1875,
      "d": 210.9375,
      "v": 85
    },
    {
      "midi": 74,
      "hit": false,
      "t": 358492.1875,
      "d": 617.1875,
      "v": 102
    },
    {
      "midi": 69,
      "hit": false,
      "t": 358679.6875,
      "d": 421.875,
      "v": 80
    },
    {
      "midi": 65,
      "hit": false,
      "t": 358867.1875,
      "d": 203.125,
      "v": 97
    },
    {
      "midi": 69,
      "hit": false,
      "t": 359617.1875,
      "d": 203.125,
      "v": 80
    },
    {
      "midi": 77,
      "hit": false,
      "t": 359617.1875,
      "d": 640.625,
      "v": 102
    },
    {
      "midi": 74,
      "hit": false,
      "t": 359804.6875,
      "d": 445.3125,
      "v": 77
    },
    {
      "midi": 69,
      "hit": false,
      "t": 359992.1875,
      "d": 234.375,
      "v": 97
    },
    {
      "midi": 74,
      "hit": false,
      "t": 360742.1875,
      "d": 226.5625,
      "v": 85
    },
    {
      "midi": 81,
      "hit": false,
      "t": 360742.1875,
      "d": 750,
      "v": 102
    },
    {
      "midi": 77,
      "hit": false,
      "t": 360929.6875,
      "d": 554.6875,
      "v": 85
    },
    {
      "midi": 74,
      "hit": false,
      "t": 361117.1875,
      "d": 359.375,
      "v": 102
    },
    {
      "midi": 64,
      "hit": false,
      "t": 361492.1875,
      "d": 187.5,
      "v": 91
    },
    {
      "midi": 62,
      "hit": false,
      "t": 361492.1875,
      "d": 203.125,
      "v": 82
    },
    {
      "midi": 69,
      "hit": false,
      "t": 361492.1875,
      "d": 203.125,
      "v": 97
    },
    {
      "midi": 74,
      "hit": false,
      "t": 362054.6875,
      "d": 289.0625,
      "v": 91
    },
    {
      "midi": 64,
      "hit": false,
      "t": 362054.6875,
      "d": 320.3125,
      "v": 88
    },
    {
      "midi": 69,
      "hit": false,
      "t": 362054.6875,
      "d": 320.3125,
      "v": 80
    },
    {
      "midi": 70,
      "hit": false,
      "t": 362992.1875,
      "d": 406.25,
      "v": 97
    },
    {
      "midi": 62,
      "hit": false,
      "t": 362992.1875,
      "d": 453.125,
      "v": 85
    },
    {
      "midi": 79,
      "hit": false,
      "t": 362992.1875,
      "d": 453.125,
      "v": 80
    },
    {
      "midi": 62,
      "hit": false,
      "t": 363742.1875,
      "d": 750,
      "v": 80
    },
    {
      "midi": 69,
      "hit": false,
      "t": 363742.1875,
      "d": 750,
      "v": 97
    },
    {
      "midi": 78,
      "hit": false,
      "t": 363742.1875,
      "d": 750,
      "v": 94
    },
    {
      "midi": 67,
      "hit": false,
      "t": 364492.1875,
      "d": 1109.375,
      "v": 85
    },
    {
      "midi": 58,
      "hit": false,
      "t": 364492.1875,
      "d": 2984.375,
      "v": 85
    },
    {
      "midi": 62,
      "hit": false,
      "t": 364492.1875,
      "d": 2984.375,
      "v": 80
    }
  ]
}