{
  "jsonPath": "Rock/Folk Rock/Judy Collins/the-rose.json",
  "path": "Rock\\Folk Rock\\Judy Collins\\The Rose.mid",
  "name": "The Rose",
  "difficulty": "Advanced",
  "bpm": 65.99999340000066,
  "notes": [
    {
      "midi": 72,
      "hit": false,
      "t": 3636.364,
      "d": 901.5152416666665,
      "v": 78
    },
    {
      "midi": 79,
      "hit": false,
      "t": 3636.364,
      "d": 901.5152416666665,
      "v": 81
    },
    {
      "midi": 72,
      "hit": false,
      "t": 4545.455,
      "d": 901.515241666667,
      "v": 72
    },
    {
      "midi": 79,
      "hit": false,
      "t": 4545.455,
      "d": 901.515241666667,
      "v": 76
    },
    {
      "midi": 72,
      "hit": false,
      "t": 5454.546,
      "d": 901.515241666667,
      "v": 61
    },
    {
      "midi": 79,
      "hit": false,
      "t": 5454.546,
      "d": 901.515241666667,
      "v": 68
    },
    {
      "midi": 72,
      "hit": false,
      "t": 6363.637000000001,
      "d": 901.515241666667,
      "v": 65
    },
    {
      "midi": 79,
      "hit": false,
      "t": 6363.637000000001,
      "d": 901.515241666667,
      "v": 76
    },
    {
      "midi": 72,
      "hit": false,
      "t": 7272.728000000001,
      "d": 901.515241666667,
      "v": 70
    },
    {
      "midi": 79,
      "hit": false,
      "t": 7272.728000000001,
      "d": 901.515241666667,
      "v": 75
    },
    {
      "midi": 72,
      "hit": false,
      "t": 8181.819000000001,
      "d": 901.515241666666,
      "v": 76
    },
    {
      "midi": 79,
      "hit": false,
      "t": 8181.819000000001,
      "d": 901.515241666666,
      "v": 69
    },
    {
      "midi": 72,
      "hit": false,
      "t": 9090.91,
      "d": 901.515241666666,
      "v": 75
    },
    {
      "midi": 79,
      "hit": false,
      "t": 9090.91,
      "d": 901.515241666666,
      "v": 76
    },
    {
      "midi": 72,
      "hit": false,
      "t": 10000.000999999998,
      "d": 901.515241666666,
      "v": 80
    },
    {
      "midi": 79,
      "hit": false,
      "t": 10000.000999999998,
      "d": 901.515241666666,
      "v": 82
    },
    {
      "midi": 72,
      "hit": false,
      "t": 10909.091999999997,
      "d": 901.515241666666,
      "v": 78
    },
    {
      "midi": 79,
      "hit": false,
      "t": 10909.091999999997,
      "d": 901.515241666666,
      "v": 80
    },
    {
      "midi": 72,
      "hit": false,
      "t": 11818.182999999995,
      "d": 901.515241666666,
      "v": 74
    },
    {
      "midi": 79,
      "hit": false,
      "t": 11818.182999999995,
      "d": 901.515241666666,
      "v": 82
    },
    {
      "midi": 72,
      "hit": false,
      "t": 12727.273999999994,
      "d": 901.515241666666,
      "v": 76
    },
    {
      "midi": 79,
      "hit": false,
      "t": 12727.273999999994,
      "d": 901.515241666666,
      "v": 68
    },
    {
      "midi": 72,
      "hit": false,
      "t": 13636.364999999993,
      "d": 901.515241666666,
      "v": 70
    },
    {
      "midi": 79,
      "hit": false,
      "t": 13636.364999999993,
      "d": 901.515241666666,
      "v": 73
    },
    {
      "midi": 72,
      "hit": false,
      "t": 14545.455999999991,
      "d": 901.515241666666,
      "v": 75
    },
    {
      "midi": 79,
      "hit": false,
      "t": 14545.455999999991,
      "d": 901.515241666666,
      "v": 76
    },
    {
      "midi": 72,
      "hit": false,
      "t": 15454.54699999999,
      "d": 901.515241666666,
      "v": 73
    },
    {
      "midi": 79,
      "hit": false,
      "t": 15454.54699999999,
      "d": 901.515241666666,
      "v": 78
    },
    {
      "midi": 72,
      "hit": false,
      "t": 16363.637999999988,
      "d": 901.5152416666679,
      "v": 74
    },
    {
      "midi": 79,
      "hit": false,
      "t": 16363.637999999988,
      "d": 901.5152416666679,
      "v": 76
    },
    {
      "midi": 72,
      "hit": false,
      "t": 17272.72899999999,
      "d": 901.5152416666679,
      "v": 78
    },
    {
      "midi": 79,
      "hit": false,
      "t": 17272.72899999999,
      "d": 901.5152416666679,
      "v": 78
    },
    {
      "midi": 72,
      "hit": false,
      "t": 18181.81999999999,
      "d": 901.5152416666679,
      "v": 79
    },
    {
      "midi": 79,
      "hit": false,
      "t": 18181.81999999999,
      "d": 901.5152416666679,
      "v": 74
    },
    {
      "midi": 72,
      "hit": false,
      "t": 19090.91099999999,
      "d": 901.5152416666679,
      "v": 79
    },
    {
      "midi": 79,
      "hit": false,
      "t": 19090.91099999999,
      "d": 901.5152416666679,
      "v": 80
    },
    {
      "midi": 72,
      "hit": false,
      "t": 20000.00199999999,
      "d": 901.5152416666679,
      "v": 80
    },
    {
      "midi": 79,
      "hit": false,
      "t": 20000.00199999999,
      "d": 901.5152416666679,
      "v": 80
    },
    {
      "midi": 72,
      "hit": false,
      "t": 20909.09299999999,
      "d": 901.5152416666679,
      "v": 81
    },
    {
      "midi": 79,
      "hit": false,
      "t": 20909.09299999999,
      "d": 901.5152416666679,
      "v": 75
    },
    {
      "midi": 71,
      "hit": false,
      "t": 21818.18399999999,
      "d": 901.5152416666679,
      "v": 77
    },
    {
      "midi": 79,
      "hit": false,
      "t": 21818.18399999999,
      "d": 901.5152416666679,
      "v": 80
    },
    {
      "midi": 71,
      "hit": false,
      "t": 22727.27499999999,
      "d": 901.5152416666679,
      "v": 69
    },
    {
      "midi": 79,
      "hit": false,
      "t": 22727.27499999999,
      "d": 901.5152416666679,
      "v": 72
    },
    {
      "midi": 71,
      "hit": false,
      "t": 23636.36599999999,
      "d": 901.5152416666679,
      "v": 70
    },
    {
      "midi": 79,
      "hit": false,
      "t": 23636.36599999999,
      "d": 901.5152416666679,
      "v": 71
    },
    {
      "midi": 71,
      "hit": false,
      "t": 24545.45699999999,
      "d": 901.5152416666679,
      "v": 68
    },
    {
      "midi": 79,
      "hit": false,
      "t": 24545.45699999999,
      "d": 901.5152416666679,
      "v": 81
    },
    {
      "midi": 69,
      "hit": false,
      "t": 25454.54799999999,
      "d": 901.5152416666679,
      "v": 70
    },
    {
      "midi": 77,
      "hit": false,
      "t": 25454.54799999999,
      "d": 901.5152416666679,
      "v": 82
    },
    {
      "midi": 69,
      "hit": false,
      "t": 26363.638999999992,
      "d": 901.5152416666679,
      "v": 65
    },
    {
      "midi": 77,
      "hit": false,
      "t": 26363.638999999992,
      "d": 901.5152416666679,
      "v": 84
    },
    {
      "midi": 69,
      "hit": false,
      "t": 27272.729999999992,
      "d": 901.5152416666679,
      "v": 76
    },
    {
      "midi": 77,
      "hit": false,
      "t": 27272.729999999992,
      "d": 901.5152416666679,
      "v": 76
    },
    {
      "midi": 71,
      "hit": false,
      "t": 28181.820999999993,
      "d": 901.5152416666679,
      "v": 76
    },
    {
      "midi": 79,
      "hit": false,
      "t": 28181.820999999993,
      "d": 901.5152416666679,
      "v": 79
    },
    {
      "midi": 72,
      "hit": false,
      "t": 29090.911999999993,
      "d": 901.5152416666679,
      "v": 72
    },
    {
      "midi": 79,
      "hit": false,
      "t": 29090.911999999993,
      "d": 901.5152416666679,
      "v": 78
    },
    {
      "midi": 72,
      "hit": false,
      "t": 30000.002999999993,
      "d": 901.5152416666679,
      "v": 76
    },
    {
      "midi": 79,
      "hit": false,
      "t": 30000.002999999993,
      "d": 901.5152416666679,
      "v": 78
    },
    {
      "midi": 72,
      "hit": false,
      "t": 30909.093999999994,
      "d": 901.5152416666679,
      "v": 82
    },
    {
      "midi": 79,
      "hit": false,
      "t": 30909.093999999994,
      "d": 901.5152416666679,
      "v": 84
    },
    {
      "midi": 72,
      "hit": false,
      "t": 31818.184999999994,
      "d": 901.5152416666679,
      "v": 81
    },
    {
      "midi": 79,
      "hit": false,
      "t": 31818.184999999994,
      "d": 901.5152416666679,
      "v": 84
    },
    {
      "midi": 72,
      "hit": false,
      "t": 32727.275999999994,
      "d": 901.5152416666642,
      "v": 81
    },
    {
      "midi": 79,
      "hit": false,
      "t": 32727.275999999994,
      "d": 901.5152416666642,
      "v": 84
    },
    {
      "midi": 72,
      "hit": false,
      "t": 33636.36699999999,
      "d": 901.5152416666679,
      "v": 76
    },
    {
      "midi": 79,
      "hit": false,
      "t": 33636.36699999999,
      "d": 901.5152416666679,
      "v": 82
    },
    {
      "midi": 72,
      "hit": false,
      "t": 34545.45799999999,
      "d": 901.5152416666679,
      "v": 80
    },
    {
      "midi": 79,
      "hit": false,
      "t": 34545.45799999999,
      "d": 901.5152416666679,
      "v": 82
    },
    {
      "midi": 72,
      "hit": false,
      "t": 35454.54899999999,
      "d": 901.5152416666679,
      "v": 80
    },
    {
      "midi": 79,
      "hit": false,
      "t": 35454.54899999999,
      "d": 901.5152416666679,
      "v": 85
    },
    {
      "midi": 71,
      "hit": false,
      "t": 36363.63999999999,
      "d": 901.5152416666679,
      "v": 78
    },
    {
      "midi": 79,
      "hit": false,
      "t": 36363.63999999999,
      "d": 901.5152416666679,
      "v": 84
    },
    {
      "midi": 71,
      "hit": false,
      "t": 37272.73099999999,
      "d": 901.5152416666679,
      "v": 80
    },
    {
      "midi": 79,
      "hit": false,
      "t": 37272.73099999999,
      "d": 901.5152416666679,
      "v": 82
    },
    {
      "midi": 71,
      "hit": false,
      "t": 38181.82199999999,
      "d": 901.5152416666679,
      "v": 74
    },
    {
      "midi": 79,
      "hit": false,
      "t": 38181.82199999999,
      "d": 901.5152416666679,
      "v": 77
    },
    {
      "midi": 71,
      "hit": false,
      "t": 39090.91299999999,
      "d": 901.5152416666679,
      "v": 77
    },
    {
      "midi": 79,
      "hit": false,
      "t": 39090.91299999999,
      "d": 901.5152416666679,
      "v": 88
    },
    {
      "midi": 69,
      "hit": false,
      "t": 40000.00399999999,
      "d": 901.5152416666679,
      "v": 76
    },
    {
      "midi": 77,
      "hit": false,
      "t": 40000.00399999999,
      "d": 901.5152416666679,
      "v": 83
    },
    {
      "midi": 69,
      "hit": false,
      "t": 40909.094999999994,
      "d": 901.5152416666679,
      "v": 75
    },
    {
      "midi": 77,
      "hit": false,
      "t": 40909.094999999994,
      "d": 901.5152416666679,
      "v": 83
    },
    {
      "midi": 69,
      "hit": false,
      "t": 41818.185999999994,
      "d": 901.5152416666679,
      "v": 77
    },
    {
      "midi": 77,
      "hit": false,
      "t": 41818.185999999994,
      "d": 901.5152416666679,
      "v": 86
    },
    {
      "midi": 71,
      "hit": false,
      "t": 42727.276999999995,
      "d": 901.5152416666679,
      "v": 69
    },
    {
      "midi": 79,
      "hit": false,
      "t": 42727.276999999995,
      "d": 901.5152416666679,
      "v": 79
    },
    {
      "midi": 72,
      "hit": false,
      "t": 43636.367999999995,
      "d": 901.5152416666679,
      "v": 79
    },
    {
      "midi": 79,
      "hit": false,
      "t": 43636.367999999995,
      "d": 901.5152416666679,
      "v": 85
    },
    {
      "midi": 72,
      "hit": false,
      "t": 44545.458999999995,
      "d": 901.5152416666679,
      "v": 75
    },
    {
      "midi": 79,
      "hit": false,
      "t": 44545.458999999995,
      "d": 901.5152416666679,
      "v": 69
    },
    {
      "midi": 72,
      "hit": false,
      "t": 45454.549999999996,
      "d": 901.5152416666679,
      "v": 69
    },
    {
      "midi": 79,
      "hit": false,
      "t": 45454.549999999996,
      "d": 901.5152416666679,
      "v": 79
    },
    {
      "midi": 72,
      "hit": false,
      "t": 46363.640999999996,
      "d": 901.5152416666679,
      "v": 76
    },
    {
      "midi": 79,
      "hit": false,
      "t": 46363.640999999996,
      "d": 901.5152416666679,
      "v": 78
    },
    {
      "midi": 71,
      "hit": false,
      "t": 47272.731999999996,
      "d": 901.5152416666679,
      "v": 72
    },
    {
      "midi": 72,
      "hit": false,
      "t": 47272.731999999996,
      "d": 901.5152416666679,
      "v": 82
    },
    {
      "midi": 79,
      "hit": false,
      "t": 47272.731999999996,
      "d": 901.5152416666679,
      "v": 83
    },
    {
      "midi": 71,
      "hit": false,
      "t": 48181.823,
      "d": 901.5152416666679,
      "v": 71
    },
    {
      "midi": 72,
      "hit": false,
      "t": 48181.823,
      "d": 901.5152416666679,
      "v": 83
    },
    {
      "midi": 79,
      "hit": false,
      "t": 48181.823,
      "d": 901.5152416666679,
      "v": 81
    },
    {
      "midi": 71,
      "hit": false,
      "t": 49090.914,
      "d": 901.5152416666679,
      "v": 72
    },
    {
      "midi": 72,
      "hit": false,
      "t": 49090.914,
      "d": 901.5152416666679,
      "v": 81
    },
    {
      "midi": 79,
      "hit": false,
      "t": 49090.914,
      "d": 901.5152416666679,
      "v": 80
    },
    {
      "midi": 71,
      "hit": false,
      "t": 50000.005,
      "d": 901.5152416666679,
      "v": 76
    },
    {
      "midi": 72,
      "hit": false,
      "t": 50000.005,
      "d": 901.5152416666679,
      "v": 81
    },
    {
      "midi": 79,
      "hit": false,
      "t": 50000.005,
      "d": 901.5152416666679,
      "v": 83
    },
    {
      "midi": 69,
      "hit": false,
      "t": 50909.096,
      "d": 901.5152416666679,
      "v": 72
    },
    {
      "midi": 72,
      "hit": false,
      "t": 50909.096,
      "d": 901.5152416666679,
      "v": 85
    },
    {
      "midi": 79,
      "hit": false,
      "t": 50909.096,
      "d": 901.5152416666679,
      "v": 77
    },
    {
      "midi": 69,
      "hit": false,
      "t": 51818.187,
      "d": 901.5152416666679,
      "v": 69
    },
    {
      "midi": 72,
      "hit": false,
      "t": 51818.187,
      "d": 901.5152416666679,
      "v": 85
    },
    {
      "midi": 79,
      "hit": false,
      "t": 51818.187,
      "d": 901.5152416666679,
      "v": 75
    },
    {
      "midi": 69,
      "hit": false,
      "t": 52727.278,
      "d": 901.5152416666679,
      "v": 72
    },
    {
      "midi": 72,
      "hit": false,
      "t": 52727.278,
      "d": 901.5152416666679,
      "v": 85
    },
    {
      "midi": 79,
      "hit": false,
      "t": 52727.278,
      "d": 901.5152416666679,
      "v": 85
    },
    {
      "midi": 69,
      "hit": false,
      "t": 53636.369,
      "d": 901.5152416666679,
      "v": 72
    },
    {
      "midi": 72,
      "hit": false,
      "t": 53636.369,
      "d": 901.5152416666679,
      "v": 85
    },
    {
      "midi": 79,
      "hit": false,
      "t": 53636.369,
      "d": 901.5152416666679,
      "v": 82
    },
    {
      "midi": 69,
      "hit": false,
      "t": 54545.46,
      "d": 901.5152416666679,
      "v": 76
    },
    {
      "midi": 72,
      "hit": false,
      "t": 54545.46,
      "d": 901.5152416666679,
      "v": 82
    },
    {
      "midi": 77,
      "hit": false,
      "t": 54545.46,
      "d": 901.5152416666679,
      "v": 83
    },
    {
      "midi": 69,
      "hit": false,
      "t": 55454.551,
      "d": 901.5152416666679,
      "v": 74
    },
    {
      "midi": 72,
      "hit": false,
      "t": 55454.551,
      "d": 901.5152416666679,
      "v": 89
    },
    {
      "midi": 77,
      "hit": false,
      "t": 55454.551,
      "d": 901.5152416666679,
      "v": 80
    },
    {
      "midi": 69,
      "hit": false,
      "t": 56363.642,
      "d": 901.5152416666679,
      "v": 71
    },
    {
      "midi": 72,
      "hit": false,
      "t": 56363.642,
      "d": 901.5152416666679,
      "v": 84
    },
    {
      "midi": 77,
      "hit": false,
      "t": 56363.642,
      "d": 901.5152416666679,
      "v": 84
    },
    {
      "midi": 69,
      "hit": false,
      "t": 57272.733,
      "d": 901.5152416666679,
      "v": 73
    },
    {
      "midi": 72,
      "hit": false,
      "t": 57272.733,
      "d": 901.5152416666679,
      "v": 83
    },
    {
      "midi": 77,
      "hit": false,
      "t": 57272.733,
      "d": 901.5152416666679,
      "v": 80
    },
    {
      "midi": 67,
      "hit": false,
      "t": 58181.824,
      "d": 901.5152416666679,
      "v": 62
    },
    {
      "midi": 72,
      "hit": false,
      "t": 58181.824,
      "d": 901.5152416666679,
      "v": 79
    },
    {
      "midi": 77,
      "hit": false,
      "t": 58181.824,
      "d": 901.5152416666679,
      "v": 78
    },
    {
      "midi": 67,
      "hit": false,
      "t": 59090.915,
      "d": 901.5152416666679,
      "v": 74
    },
    {
      "midi": 72,
      "hit": false,
      "t": 59090.915,
      "d": 901.5152416666679,
      "v": 82
    },
    {
      "midi": 77,
      "hit": false,
      "t": 59090.915,
      "d": 901.5152416666679,
      "v": 82
    },
    {
      "midi": 67,
      "hit": false,
      "t": 60000.006,
      "d": 1810.6062416666682,
      "v": 75
    },
    {
      "midi": 71,
      "hit": false,
      "t": 60000.006,
      "d": 1810.6062416666682,
      "v": 76
    },
    {
      "midi": 77,
      "hit": false,
      "t": 60000.006,
      "d": 1810.6062416666682,
      "v": 81
    },
    {
      "midi": 72,
      "hit": false,
      "t": 61818.188,
      "d": 901.5152416666679,
      "v": 86
    },
    {
      "midi": 79,
      "hit": false,
      "t": 61818.188,
      "d": 901.5152416666679,
      "v": 83
    },
    {
      "midi": 72,
      "hit": false,
      "t": 62727.279,
      "d": 901.5152416666679,
      "v": 72
    },
    {
      "midi": 79,
      "hit": false,
      "t": 62727.279,
      "d": 901.5152416666679,
      "v": 84
    },
    {
      "midi": 72,
      "hit": false,
      "t": 63636.37,
      "d": 901.5152416666679,
      "v": 77
    },
    {
      "midi": 79,
      "hit": false,
      "t": 63636.37,
      "d": 901.5152416666679,
      "v": 84
    },
    {
      "midi": 72,
      "hit": false,
      "t": 64545.461,
      "d": 901.5152416666679,
      "v": 81
    },
    {
      "midi": 79,
      "hit": false,
      "t": 64545.461,
      "d": 901.5152416666679,
      "v": 88
    },
    {
      "midi": 71,
      "hit": false,
      "t": 65454.552,
      "d": 901.5152416666606,
      "v": 76
    },
    {
      "midi": 79,
      "hit": false,
      "t": 65454.552,
      "d": 901.5152416666606,
      "v": 69
    },
    {
      "midi": 71,
      "hit": false,
      "t": 66363.643,
      "d": 901.5152416666679,
      "v": 78
    },
    {
      "midi": 79,
      "hit": false,
      "t": 66363.643,
      "d": 901.5152416666679,
      "v": 85
    },
    {
      "midi": 71,
      "hit": false,
      "t": 67272.734,
      "d": 901.5152416666679,
      "v": 81
    },
    {
      "midi": 79,
      "hit": false,
      "t": 67272.734,
      "d": 901.5152416666679,
      "v": 88
    },
    {
      "midi": 71,
      "hit": false,
      "t": 68181.825,
      "d": 901.5152416666679,
      "v": 72
    },
    {
      "midi": 79,
      "hit": false,
      "t": 68181.825,
      "d": 901.5152416666679,
      "v": 84
    },
    {
      "midi": 69,
      "hit": false,
      "t": 69090.916,
      "d": 901.5152416666679,
      "v": 62
    },
    {
      "midi": 77,
      "hit": false,
      "t": 69090.916,
      "d": 901.5152416666679,
      "v": 74
    },
    {
      "midi": 69,
      "hit": false,
      "t": 70000.007,
      "d": 901.5152416666679,
      "v": 74
    },
    {
      "midi": 77,
      "hit": false,
      "t": 70000.007,
      "d": 901.5152416666679,
      "v": 73
    },
    {
      "midi": 69,
      "hit": false,
      "t": 70909.098,
      "d": 901.5152416666679,
      "v": 72
    },
    {
      "midi": 77,
      "hit": false,
      "t": 70909.098,
      "d": 901.5152416666679,
      "v": 76
    },
    {
      "midi": 67,
      "hit": false,
      "t": 71818.189,
      "d": 901.5152416666679,
      "v": 85
    },
    {
      "midi": 60,
      "hit": false,
      "t": 72727.28,
      "d": 446.9697416666604,
      "v": 82
    },
    {
      "midi": 64,
      "hit": false,
      "t": 72727.28,
      "d": 446.9697416666604,
      "v": 88
    },
    {
      "midi": 67,
      "hit": false,
      "t": 72727.28,
      "d": 446.9697416666604,
      "v": 89
    },
    {
      "midi": 48,
      "hit": false,
      "t": 72727.28,
      "d": 3174.242741666618,
      "v": 99
    },
    {
      "midi": 62,
      "hit": false,
      "t": 73181.82549999999,
      "d": 446.9697416666604,
      "v": 86
    },
    {
      "midi": 64,
      "hit": false,
      "t": 73636.37099999998,
      "d": 446.9697416666604,
      "v": 83
    },
    {
      "midi": 67,
      "hit": false,
      "t": 73636.37099999998,
      "d": 446.9697416666604,
      "v": 86
    },
    {
      "midi": 60,
      "hit": false,
      "t": 74090.91649999998,
      "d": 446.9697416666604,
      "v": 66
    },
    {
      "midi": 64,
      "hit": false,
      "t": 74545.46199999997,
      "d": 446.9697416666604,
      "v": 76
    },
    {
      "midi": 67,
      "hit": false,
      "t": 74545.46199999997,
      "d": 446.9697416666604,
      "v": 78
    },
    {
      "midi": 62,
      "hit": false,
      "t": 75000.00749999996,
      "d": 446.9697416666604,
      "v": 83
    },
    {
      "midi": 64,
      "hit": false,
      "t": 75454.55299999996,
      "d": 446.9697416666604,
      "v": 78
    },
    {
      "midi": 67,
      "hit": false,
      "t": 75454.55299999996,
      "d": 446.9697416666604,
      "v": 84
    },
    {
      "midi": 43,
      "hit": false,
      "t": 75909.09849999995,
      "d": 446.9697416666604,
      "v": 94
    },
    {
      "midi": 60,
      "hit": false,
      "t": 75909.09849999995,
      "d": 446.9697416666604,
      "v": 76
    },
    {
      "midi": 64,
      "hit": false,
      "t": 76363.64399999994,
      "d": 446.9697416666604,
      "v": 83
    },
    {
      "midi": 67,
      "hit": false,
      "t": 76363.64399999994,
      "d": 446.9697416666604,
      "v": 84
    },
    {
      "midi": 36,
      "hit": false,
      "t": 76363.64399999994,
      "d": 3628.7882416666253,
      "v": 86
    },
    {
      "midi": 43,
      "hit": false,
      "t": 76363.64399999994,
      "d": 3628.7882416666253,
      "v": 83
    },
    {
      "midi": 62,
      "hit": false,
      "t": 76818.18949999993,
      "d": 446.9697416666604,
      "v": 86
    },
    {
      "midi": 64,
      "hit": false,
      "t": 77272.73499999993,
      "d": 446.9697416666604,
      "v": 78
    },
    {
      "midi": 67,
      "hit": false,
      "t": 77272.73499999993,
      "d": 446.9697416666604,
      "v": 80
    },
    {
      "midi": 60,
      "hit": false,
      "t": 77727.28049999992,
      "d": 446.9697416666604,
      "v": 71
    },
    {
      "midi": 64,
      "hit": false,
      "t": 78181.82599999991,
      "d": 446.9697416666604,
      "v": 77
    },
    {
      "midi": 67,
      "hit": false,
      "t": 78181.82599999991,
      "d": 446.9697416666604,
      "v": 79
    },
    {
      "midi": 62,
      "hit": false,
      "t": 78636.3714999999,
      "d": 446.9697416666604,
      "v": 84
    },
    {
      "midi": 60,
      "hit": false,
      "t": 79090.917,
      "d": 446.9697416666604,
      "v": 86
    },
    {
      "midi": 62,
      "hit": false,
      "t": 79545.4625,
      "d": 219.69699166667124,
      "v": 83
    },
    {
      "midi": 60,
      "hit": false,
      "t": 79772.73525,
      "d": 219.69699166667124,
      "v": 84
    },
    {
      "midi": 64,
      "hit": false,
      "t": 80000.008,
      "d": 1810.6062416666682,
      "v": 89
    },
    {
      "midi": 55,
      "hit": false,
      "t": 80000.008,
      "d": 2265.151741666661,
      "v": 86
    },
    {
      "midi": 60,
      "hit": false,
      "t": 80000.008,
      "d": 2265.151741666661,
      "v": 86
    },
    {
      "midi": 60,
      "hit": false,
      "t": 82272.7355,
      "d": 446.9697416666604,
      "v": 79
    },
    {
      "midi": 64,
      "hit": false,
      "t": 82272.7355,
      "d": 446.9697416666604,
      "v": 91
    },
    {
      "midi": 62,
      "hit": false,
      "t": 82727.28099999999,
      "d": 674.2424916666641,
      "v": 88
    },
    {
      "midi": 65,
      "hit": false,
      "t": 82727.28099999999,
      "d": 674.2424916666641,
      "v": 90
    },
    {
      "midi": 55,
      "hit": false,
      "t": 82727.28099999999,
      "d": 901.5152416666679,
      "v": 94
    },
    {
      "midi": 60,
      "hit": false,
      "t": 83409.09924999998,
      "d": 219.69699166667124,
      "v": 85
    },
    {
      "midi": 64,
      "hit": false,
      "t": 83409.09924999998,
      "d": 219.69699166667124,
      "v": 88
    },
    {
      "midi": 55,
      "hit": false,
      "t": 83636.37199999999,
      "d": 674.2424916666641,
      "v": 83
    },
    {
      "midi": 60,
      "hit": false,
      "t": 83636.37199999999,
      "d": 674.2424916666641,
      "v": 88
    },
    {
      "midi": 64,
      "hit": false,
      "t": 83636.37199999999,
      "d": 674.2424916666641,
      "v": 88
    },
    {
      "midi": 59,
      "hit": false,
      "t": 84318.19024999999,
      "d": 219.69699166667124,
      "v": 70
    },
    {
      "midi": 62,
      "hit": false,
      "t": 84318.19024999999,
      "d": 219.69699166667124,
      "v": 79
    },
    {
      "midi": 55,
      "hit": false,
      "t": 84545.46299999999,
      "d": 1810.6062416666682,
      "v": 86
    },
    {
      "midi": 59,
      "hit": false,
      "t": 84545.46299999999,
      "d": 1810.6062416666682,
      "v": 94
    },
    {
      "midi": 62,
      "hit": false,
      "t": 84545.46299999999,
      "d": 1810.6062416666682,
      "v": 85
    },
    {
      "midi": 60,
      "hit": false,
      "t": 86818.1905,
      "d": 446.9697416666604,
      "v": 84
    },
    {
      "midi": 57,
      "hit": false,
      "t": 87272.73599999999,
      "d": 219.69699166667124,
      "v": 91
    },
    {
      "midi": 60,
      "hit": false,
      "t": 87272.73599999999,
      "d": 219.69699166667124,
      "v": 84
    },
    {
      "midi": 53,
      "hit": false,
      "t": 87272.73599999999,
      "d": 2719.6972416666686,
      "v": 89
    },
    {
      "midi": 57,
      "hit": false,
      "t": 87500.00875,
      "d": 2037.878991666672,
      "v": 90
    },
    {
      "midi": 60,
      "hit": false,
      "t": 87500.00875,
      "d": 2037.878991666672,
      "v": 85
    },
    {
      "midi": 55,
      "hit": false,
      "t": 90000.00899999999,
      "d": 446.9697416666604,
      "v": 86
    },
    {
      "midi": 59,
      "hit": false,
      "t": 90000.00899999999,
      "d": 446.9697416666604,
      "v": 85
    },
    {
      "midi": 62,
      "hit": false,
      "t": 90000.00899999999,
      "d": 446.9697416666604,
      "v": 91
    },
    {
      "midi": 59,
      "hit": false,
      "t": 90454.55449999998,
      "d": 219.69699166667124,
      "v": 93
    },
    {
      "midi": 62,
      "hit": false,
      "t": 90454.55449999998,
      "d": 219.69699166667124,
      "v": 86
    },
    {
      "midi": 60,
      "hit": false,
      "t": 90681.82724999999,
      "d": 219.69699166667124,
      "v": 83
    },
    {
      "midi": 64,
      "hit": false,
      "t": 90681.82724999999,
      "d": 219.69699166667124,
      "v": 84
    },
    {
      "midi": 64,
      "hit": false,
      "t": 90909.09999999999,
      "d": 1810.6062416666682,
      "v": 86
    },
    {
      "midi": 55,
      "hit": false,
      "t": 90909.09999999999,
      "d": 2719.6972416666686,
      "v": 80
    },
    {
      "midi": 60,
      "hit": false,
      "t": 90909.09999999999,
      "d": 2719.6972416666686,
      "v": 83
    },
    {
      "midi": 60,
      "hit": false,
      "t": 93636.37299999999,
      "d": 446.9697416666604,
      "v": 86
    },
    {
      "midi": 62,
      "hit": false,
      "t": 94090.91849999999,
      "d": 219.69699166667124,
      "v": 88
    },
    {
      "midi": 60,
      "hit": false,
      "t": 94318.19124999999,
      "d": 219.69699166667124,
      "v": 84
    },
    {
      "midi": 55,
      "hit": false,
      "t": 94545.46399999999,
      "d": 2265.151741666661,
      "v": 76
    },
    {
      "midi": 60,
      "hit": false,
      "t": 94545.46399999999,
      "d": 2265.151741666661,
      "v": 85
    },
    {
      "midi": 64,
      "hit": false,
      "t": 94545.46399999999,
      "d": 2265.151741666661,
      "v": 93
    },
    {
      "midi": 60,
      "hit": false,
      "t": 96818.19149999999,
      "d": 446.9697416666604,
      "v": 85
    },
    {
      "midi": 64,
      "hit": false,
      "t": 96818.19149999999,
      "d": 446.9697416666604,
      "v": 86
    },
    {
      "midi": 62,
      "hit": false,
      "t": 97272.73699999998,
      "d": 446.9697416666604,
      "v": 88
    },
    {
      "midi": 65,
      "hit": false,
      "t": 97272.73699999998,
      "d": 446.9697416666604,
      "v": 82
    },
    {
      "midi": 60,
      "hit": false,
      "t": 97727.28249999997,
      "d": 446.9697416666604,
      "v": 81
    },
    {
      "midi": 64,
      "hit": false,
      "t": 97727.28249999997,
      "d": 446.9697416666604,
      "v": 83
    },
    {
      "midi": 55,
      "hit": false,
      "t": 98181.82799999996,
      "d": 674.2424916666641,
      "v": 76
    },
    {
      "midi": 60,
      "hit": false,
      "t": 98181.82799999996,
      "d": 674.2424916666641,
      "v": 84
    },
    {
      "midi": 64,
      "hit": false,
      "t": 98181.82799999996,
      "d": 674.2424916666641,
      "v": 90
    },
    {
      "midi": 55,
      "hit": false,
      "t": 98863.64624999996,
      "d": 219.69699166667124,
      "v": 78
    },
    {
      "midi": 62,
      "hit": false,
      "t": 98863.64624999996,
      "d": 219.69699166667124,
      "v": 88
    },
    {
      "midi": 59,
      "hit": false,
      "t": 99090.91899999997,
      "d": 68.18182500000694,
      "v": 93
    },
    {
      "midi": 55,
      "hit": false,
      "t": 99090.91899999997,
      "d": 1810.6062416666682,
      "v": 85
    },
    {
      "midi": 62,
      "hit": false,
      "t": 99090.91899999997,
      "d": 1810.6062416666682,
      "v": 84
    },
    {
      "midi": 59,
      "hit": false,
      "t": 101363.64649999997,
      "d": 446.9697416666604,
      "v": 94
    },
    {
      "midi": 62,
      "hit": false,
      "t": 101363.64649999997,
      "d": 446.9697416666604,
      "v": 84
    },
    {
      "midi": 53,
      "hit": false,
      "t": 101818.19199999997,
      "d": 219.69699166667124,
      "v": 80
    },
    {
      "midi": 59,
      "hit": false,
      "t": 101818.19199999997,
      "d": 219.69699166667124,
      "v": 86
    },
    {
      "midi": 62,
      "hit": false,
      "t": 101818.19199999997,
      "d": 219.69699166667124,
      "v": 85
    },
    {
      "midi": 53,
      "hit": false,
      "t": 102045.46474999997,
      "d": 1583.3334916666645,
      "v": 83
    },
    {
      "midi": 57,
      "hit": false,
      "t": 102045.46474999997,
      "d": 1583.3334916666645,
      "v": 88
    },
    {
      "midi": 60,
      "hit": false,
      "t": 102045.46474999997,
      "d": 1583.3334916666645,
      "v": 81
    },
    {
      "midi": 55,
      "hit": false,
      "t": 104545.46499999997,
      "d": 446.9697416666604,
      "v": 78
    },
    {
      "midi": 59,
      "hit": false,
      "t": 104545.46499999997,
      "d": 446.9697416666604,
      "v": 86
    },
    {
      "midi": 62,
      "hit": false,
      "t": 104545.46499999997,
      "d": 446.9697416666604,
      "v": 91
    },
    {
      "midi": 55,
      "hit": false,
      "t": 105000.01049999996,
      "d": 219.69699166667124,
      "v": 80
    },
    {
      "midi": 59,
      "hit": false,
      "t": 105000.01049999996,
      "d": 219.69699166667124,
      "v": 85
    },
    {
      "midi": 62,
      "hit": false,
      "t": 105000.01049999996,
      "d": 219.69699166667124,
      "v": 89
    },
    {
      "midi": 55,
      "hit": false,
      "t": 105227.28324999996,
      "d": 674.2424916666641,
      "v": 82
    },
    {
      "midi": 60,
      "hit": false,
      "t": 105227.28324999996,
      "d": 674.2424916666641,
      "v": 86
    },
    {
      "midi": 64,
      "hit": false,
      "t": 105227.28324999996,
      "d": 674.2424916666641,
      "v": 85
    },
    {
      "midi": 55,
      "hit": false,
      "t": 105909.10149999996,
      "d": 1356.0607416666608,
      "v": 76
    },
    {
      "midi": 60,
      "hit": false,
      "t": 105909.10149999996,
      "d": 1356.0607416666608,
      "v": 83
    },
    {
      "midi": 64,
      "hit": false,
      "t": 105909.10149999996,
      "d": 1356.0607416666608,
      "v": 84
    },
    {
      "midi": 60,
      "hit": false,
      "t": 108181.82899999995,
      "d": 446.9697416666604,
      "v": 83
    },
    {
      "midi": 64,
      "hit": false,
      "t": 108181.82899999995,
      "d": 446.9697416666604,
      "v": 85
    },
    {
      "midi": 62,
      "hit": false,
      "t": 108636.37449999995,
      "d": 219.69699166667124,
      "v": 85
    },
    {
      "midi": 65,
      "hit": false,
      "t": 108636.37449999995,
      "d": 219.69699166667124,
      "v": 85
    },
    {
      "midi": 60,
      "hit": false,
      "t": 108863.64724999995,
      "d": 219.69699166667124,
      "v": 81
    },
    {
      "midi": 64,
      "hit": false,
      "t": 108863.64724999995,
      "d": 219.69699166667124,
      "v": 86
    },
    {
      "midi": 59,
      "hit": false,
      "t": 109090.91999999995,
      "d": 2265.151741666661,
      "v": 90
    },
    {
      "midi": 64,
      "hit": false,
      "t": 109090.91999999995,
      "d": 2265.151741666661,
      "v": 90
    },
    {
      "midi": 67,
      "hit": false,
      "t": 109090.91999999995,
      "d": 2265.151741666661,
      "v": 99
    },
    {
      "midi": 59,
      "hit": false,
      "t": 111363.64749999995,
      "d": 901.5152416666679,
      "v": 85
    },
    {
      "midi": 64,
      "hit": false,
      "t": 111363.64749999995,
      "d": 901.5152416666679,
      "v": 81
    },
    {
      "midi": 67,
      "hit": false,
      "t": 111363.64749999995,
      "d": 901.5152416666679,
      "v": 91
    },
    {
      "midi": 59,
      "hit": false,
      "t": 112272.73849999995,
      "d": 446.9697416666604,
      "v": 81
    },
    {
      "midi": 64,
      "hit": false,
      "t": 112272.73849999995,
      "d": 446.9697416666604,
      "v": 85
    },
    {
      "midi": 67,
      "hit": false,
      "t": 112272.73849999995,
      "d": 446.9697416666604,
      "v": 88
    },
    {
      "midi": 57,
      "hit": false,
      "t": 112727.28399999994,
      "d": 901.5152416666679,
      "v": 83
    },
    {
      "midi": 60,
      "hit": false,
      "t": 112727.28399999994,
      "d": 901.5152416666679,
      "v": 89
    },
    {
      "midi": 64,
      "hit": false,
      "t": 112727.28399999994,
      "d": 901.5152416666679,
      "v": 88
    },
    {
      "midi": 67,
      "hit": false,
      "t": 112727.28399999994,
      "d": 901.5152416666679,
      "v": 85
    },
    {
      "midi": 67,
      "hit": false,
      "t": 113636.37499999994,
      "d": 219.69699166667124,
      "v": 90
    },
    {
      "midi": 60,
      "hit": false,
      "t": 113863.64774999995,
      "d": 219.69699166667124,
      "v": 79
    },
    {
      "midi": 55,
      "hit": false,
      "t": 114090.92049999995,
      "d": 1356.0607416666608,
      "v": 90
    },
    {
      "midi": 57,
      "hit": false,
      "t": 114090.92049999995,
      "d": 1356.0607416666608,
      "v": 91
    },
    {
      "midi": 60,
      "hit": false,
      "t": 114090.92049999995,
      "d": 1810.6062416666537,
      "v": 85
    },
    {
      "midi": 57,
      "hit": false,
      "t": 115909.10249999994,
      "d": 446.9697416666604,
      "v": 83
    },
    {
      "midi": 60,
      "hit": false,
      "t": 115909.10249999994,
      "d": 446.9697416666604,
      "v": 82
    },
    {
      "midi": 64,
      "hit": false,
      "t": 115909.10249999994,
      "d": 446.9697416666604,
      "v": 88
    },
    {
      "midi": 53,
      "hit": false,
      "t": 116363.64799999993,
      "d": 2265.151741666661,
      "v": 90
    },
    {
      "midi": 57,
      "hit": false,
      "t": 116363.64799999993,
      "d": 2265.151741666661,
      "v": 90
    },
    {
      "midi": 65,
      "hit": false,
      "t": 116363.64799999993,
      "d": 2265.151741666661,
      "v": 96
    },
    {
      "midi": 53,
      "hit": false,
      "t": 118636.37549999992,
      "d": 446.9697416666604,
      "v": 86
    },
    {
      "midi": 64,
      "hit": false,
      "t": 118636.37549999992,
      "d": 446.9697416666604,
      "v": 84
    },
    {
      "midi": 53,
      "hit": false,
      "t": 119090.92099999991,
      "d": 674.2424916666641,
      "v": 89
    },
    {
      "midi": 62,
      "hit": false,
      "t": 119090.92099999991,
      "d": 674.2424916666641,
      "v": 84
    },
    {
      "midi": 60,
      "hit": false,
      "t": 119772.73924999991,
      "d": 219.69699166667124,
      "v": 79
    },
    {
      "midi": 57,
      "hit": false,
      "t": 120000.01199999992,
      "d": 446.9697416666604,
      "v": 83
    },
    {
      "midi": 55,
      "hit": false,
      "t": 120454.55749999991,
      "d": 2265.151741666661,
      "v": 85
    },
    {
      "midi": 55,
      "hit": false,
      "t": 122727.2849999999,
      "d": 446.9697416666604,
      "v": 88
    },
    {
      "midi": 60,
      "hit": false,
      "t": 122727.2849999999,
      "d": 446.9697416666604,
      "v": 80
    },
    {
      "midi": 62,
      "hit": false,
      "t": 123181.8304999999,
      "d": 219.69699166667124,
      "v": 86
    },
    {
      "midi": 55,
      "hit": false,
      "t": 123181.8304999999,
      "d": 446.96974166667496,
      "v": 88
    },
    {
      "midi": 60,
      "hit": false,
      "t": 123409.1032499999,
      "d": 219.69699166667124,
      "v": 76
    },
    {
      "midi": 64,
      "hit": false,
      "t": 123636.3759999999,
      "d": 1810.6062416666682,
      "v": 89
    },
    {
      "midi": 55,
      "hit": false,
      "t": 123636.3759999999,
      "d": 2265.151741666661,
      "v": 86
    },
    {
      "midi": 60,
      "hit": false,
      "t": 123636.3759999999,
      "d": 2265.151741666661,
      "v": 89
    },
    {
      "midi": 60,
      "hit": false,
      "t": 125909.1034999999,
      "d": 446.9697416666604,
      "v": 76
    },
    {
      "midi": 64,
      "hit": false,
      "t": 125909.1034999999,
      "d": 446.9697416666604,
      "v": 86
    },
    {
      "midi": 62,
      "hit": false,
      "t": 126363.64899999989,
      "d": 446.9697416666604,
      "v": 89
    },
    {
      "midi": 65,
      "hit": false,
      "t": 126363.64899999989,
      "d": 446.9697416666604,
      "v": 81
    },
    {
      "midi": 60,
      "hit": false,
      "t": 126818.19449999988,
      "d": 446.9697416666604,
      "v": 76
    },
    {
      "midi": 64,
      "hit": false,
      "t": 126818.19449999988,
      "d": 446.9697416666604,
      "v": 82
    },
    {
      "midi": 55,
      "hit": false,
      "t": 127272.73999999987,
      "d": 674.2424916666641,
      "v": 84
    },
    {
      "midi": 60,
      "hit": false,
      "t": 127272.73999999987,
      "d": 674.2424916666641,
      "v": 88
    },
    {
      "midi": 64,
      "hit": false,
      "t": 127272.73999999987,
      "d": 674.2424916666641,
      "v": 83
    },
    {
      "midi": 59,
      "hit": false,
      "t": 127954.55824999987,
      "d": 219.69699166667124,
      "v": 85
    },
    {
      "midi": 62,
      "hit": false,
      "t": 127954.55824999987,
      "d": 219.69699166667124,
      "v": 81
    },
    {
      "midi": 55,
      "hit": false,
      "t": 128181.83099999987,
      "d": 1810.6062416666682,
      "v": 89
    },
    {
      "midi": 59,
      "hit": false,
      "t": 128181.83099999987,
      "d": 1810.6062416666682,
      "v": 93
    },
    {
      "midi": 62,
      "hit": false,
      "t": 128181.83099999987,
      "d": 1810.6062416666682,
      "v": 88
    },
    {
      "midi": 59,
      "hit": false,
      "t": 130454.55849999988,
      "d": 446.9697416666604,
      "v": 93
    },
    {
      "midi": 62,
      "hit": false,
      "t": 130454.55849999988,
      "d": 446.9697416666604,
      "v": 85
    },
    {
      "midi": 53,
      "hit": false,
      "t": 130909.10399999988,
      "d": 219.6969916666567,
      "v": 82
    },
    {
      "midi": 59,
      "hit": false,
      "t": 130909.10399999988,
      "d": 219.6969916666567,
      "v": 83
    },
    {
      "midi": 62,
      "hit": false,
      "t": 130909.10399999988,
      "d": 219.6969916666567,
      "v": 77
    },
    {
      "midi": 53,
      "hit": false,
      "t": 131136.37674999988,
      "d": 2037.8789916666574,
      "v": 85
    },
    {
      "midi": 57,
      "hit": false,
      "t": 131136.37674999988,
      "d": 2037.8789916666574,
      "v": 94
    },
    {
      "midi": 60,
      "hit": false,
      "t": 131136.37674999988,
      "d": 2037.8789916666574,
      "v": 85
    },
    {
      "midi": 55,
      "hit": false,
      "t": 133636.37699999986,
      "d": 674.2424916666641,
      "v": 76
    },
    {
      "midi": 59,
      "hit": false,
      "t": 133636.37699999986,
      "d": 674.2424916666641,
      "v": 86
    },
    {
      "midi": 62,
      "hit": false,
      "t": 133636.37699999986,
      "d": 674.2424916666641,
      "v": 88
    },
    {
      "midi": 60,
      "hit": false,
      "t": 134318.19524999987,
      "d": 219.6969916666567,
      "v": 80
    },
    {
      "midi": 60,
      "hit": false,
      "t": 134545.46799999988,
      "d": 4537.879241666669,
      "v": 94
    },
    {
      "midi": 60,
      "hit": false,
      "t": 134545.4679999999,
      "d": 446.9697416666604,
      "v": 78
    },
    {
      "midi": 64,
      "hit": false,
      "t": 134545.4679999999,
      "d": 446.9697416666604,
      "v": 85
    },
    {
      "midi": 55,
      "hit": false,
      "t": 135000.0134999999,
      "d": 446.9697416666604,
      "v": 75
    },
    {
      "midi": 60,
      "hit": false,
      "t": 135454.55899999992,
      "d": 446.9697416666604,
      "v": 82
    },
    {
      "midi": 64,
      "hit": false,
      "t": 135454.55899999992,
      "d": 446.9697416666604,
      "v": 84
    },
    {
      "midi": 55,
      "hit": false,
      "t": 135909.10449999993,
      "d": 446.9697416666604,
      "v": 78
    },
    {
      "midi": 60,
      "hit": false,
      "t": 136363.64999999994,
      "d": 446.9697416666604,
      "v": 72
    },
    {
      "midi": 64,
      "hit": false,
      "t": 136363.64999999994,
      "d": 446.9697416666604,
      "v": 81
    },
    {
      "midi": 55,
      "hit": false,
      "t": 136818.19549999994,
      "d": 446.9697416666604,
      "v": 76
    },
    {
      "midi": 60,
      "hit": false,
      "t": 137272.74099999995,
      "d": 446.9697416666604,
      "v": 78
    },
    {
      "midi": 64,
      "hit": false,
      "t": 137272.74099999995,
      "d": 446.9697416666604,
      "v": 78
    },
    {
      "midi": 55,
      "hit": false,
      "t": 137727.28649999996,
      "d": 446.9697416666604,
      "v": 81
    },
    {
      "midi": 60,
      "hit": false,
      "t": 138181.83199999997,
      "d": 446.9697416666604,
      "v": 78
    },
    {
      "midi": 64,
      "hit": false,
      "t": 138181.83199999997,
      "d": 446.9697416666604,
      "v": 83
    },
    {
      "midi": 55,
      "hit": false,
      "t": 138636.37749999997,
      "d": 446.9697416666604,
      "v": 80
    },
    {
      "midi": 60,
      "hit": false,
      "t": 139090.92299999998,
      "d": 446.9697416666604,
      "v": 76
    },
    {
      "midi": 64,
      "hit": false,
      "t": 139090.92299999998,
      "d": 446.9697416666604,
      "v": 77
    },
    {
      "midi": 55,
      "hit": false,
      "t": 139545.4685,
      "d": 446.9697416666604,
      "v": 80
    },
    {
      "midi": 60,
      "hit": false,
      "t": 140000.014,
      "d": 446.9697416666604,
      "v": 76
    },
    {
      "midi": 64,
      "hit": false,
      "t": 140000.014,
      "d": 446.9697416666604,
      "v": 81
    },
    {
      "midi": 55,
      "hit": false,
      "t": 140454.5595,
      "d": 446.9697416666604,
      "v": 80
    },
    {
      "midi": 55,
      "hit": false,
      "t": 140909.1049999999,
      "d": 446.9697416666604,
      "v": 90
    },
    {
      "midi": 60,
      "hit": false,
      "t": 140909.1049999999,
      "d": 446.9697416666604,
      "v": 85
    },
    {
      "midi": 62,
      "hit": false,
      "t": 141363.6504999999,
      "d": 219.6969916666567,
      "v": 86
    },
    {
      "midi": 55,
      "hit": false,
      "t": 141363.6504999999,
      "d": 446.9697416666604,
      "v": 83
    },
    {
      "midi": 60,
      "hit": false,
      "t": 141590.9232499999,
      "d": 219.6969916666567,
      "v": 91
    },
    {
      "midi": 64,
      "hit": false,
      "t": 141818.1959999999,
      "d": 1810.6062416666537,
      "v": 89
    },
    {
      "midi": 55,
      "hit": false,
      "t": 141818.1959999999,
      "d": 2265.151741666661,
      "v": 86
    },
    {
      "midi": 60,
      "hit": false,
      "t": 141818.1959999999,
      "d": 2265.151741666661,
      "v": 86
    },
    {
      "midi": 60,
      "hit": false,
      "t": 144090.92349999992,
      "d": 446.9697416666604,
      "v": 79
    },
    {
      "midi": 64,
      "hit": false,
      "t": 144090.92349999992,
      "d": 446.9697416666604,
      "v": 91
    },
    {
      "midi": 62,
      "hit": false,
      "t": 144545.46899999992,
      "d": 674.2424916666641,
      "v": 88
    },
    {
      "midi": 65,
      "hit": false,
      "t": 144545.46899999992,
      "d": 674.2424916666641,
      "v": 90
    },
    {
      "midi": 55,
      "hit": false,
      "t": 144545.46899999992,
      "d": 901.5152416666679,
      "v": 94
    },
    {
      "midi": 60,
      "hit": false,
      "t": 145227.28724999994,
      "d": 219.6969916666567,
      "v": 85
    },
    {
      "midi": 64,
      "hit": false,
      "t": 145227.28724999994,
      "d": 219.6969916666567,
      "v": 88
    },
    {
      "midi": 55,
      "hit": false,
      "t": 145454.55999999994,
      "d": 674.2424916666641,
      "v": 83
    },
    {
      "midi": 60,
      "hit": false,
      "t": 145454.55999999994,
      "d": 674.2424916666641,
      "v": 88
    },
    {
      "midi": 64,
      "hit": false,
      "t": 145454.55999999994,
      "d": 674.2424916666641,
      "v": 88
    },
    {
      "midi": 59,
      "hit": false,
      "t": 146136.37824999995,
      "d": 219.6969916666567,
      "v": 70
    },
    {
      "midi": 62,
      "hit": false,
      "t": 146136.37824999995,
      "d": 219.6969916666567,
      "v": 79
    },
    {
      "midi": 55,
      "hit": false,
      "t": 146363.65099999995,
      "d": 1810.6062416666537,
      "v": 86
    },
    {
      "midi": 59,
      "hit": false,
      "t": 146363.65099999995,
      "d": 1810.6062416666537,
      "v": 94
    },
    {
      "midi": 62,
      "hit": false,
      "t": 146363.65099999995,
      "d": 1810.6062416666537,
      "v": 85
    },
    {
      "midi": 62,
      "hit": false,
      "t": 148181.83299999996,
      "d": 446.9697416666604,
      "v": 93
    },
    {
      "midi": 60,
      "hit": false,
      "t": 148636.37849999996,
      "d": 446.9697416666604,
      "v": 84
    },
    {
      "midi": 53,
      "hit": false,
      "t": 149090.92399999997,
      "d": 2719.6972416666686,
      "v": 89
    },
    {
      "midi": 57,
      "hit": false,
      "t": 149090.92399999997,
      "d": 2719.6972416666686,
      "v": 91
    },
    {
      "midi": 60,
      "hit": false,
      "t": 151363.65149999998,
      "d": 446.9697416666604,
      "v": 88
    },
    {
      "midi": 55,
      "hit": false,
      "t": 151818.197,
      "d": 446.9697416666604,
      "v": 86
    },
    {
      "midi": 59,
      "hit": false,
      "t": 151818.197,
      "d": 446.9697416666604,
      "v": 85
    },
    {
      "midi": 62,
      "hit": false,
      "t": 151818.197,
      "d": 446.9697416666604,
      "v": 91
    },
    {
      "midi": 59,
      "hit": false,
      "t": 152272.7425,
      "d": 219.6969916666567,
      "v": 93
    },
    {
      "midi": 62,
      "hit": false,
      "t": 152272.7425,
      "d": 219.6969916666567,
      "v": 86
    },
    {
      "midi": 60,
      "hit": false,
      "t": 152500.01525,
      "d": 219.6969916666567,
      "v": 83
    },
    {
      "midi": 64,
      "hit": false,
      "t": 152500.01525,
      "d": 219.6969916666567,
      "v": 84
    },
    {
      "midi": 64,
      "hit": false,
      "t": 152727.288,
      "d": 1810.6062416666537,
      "v": 86
    },
    {
      "midi": 55,
      "hit": false,
      "t": 152727.288,
      "d": 2719.6972416666395,
      "v": 80
    },
    {
      "midi": 60,
      "hit": false,
      "t": 152727.288,
      "d": 2719.6972416666395,
      "v": 83
    },
    {
      "midi": 60,
      "hit": false,
      "t": 155454.561,
      "d": 446.9697416666604,
      "v": 86
    },
    {
      "midi": 62,
      "hit": false,
      "t": 155909.1065,
      "d": 219.6969916666567,
      "v": 88
    },
    {
      "midi": 60,
      "hit": false,
      "t": 156136.37925,
      "d": 219.6969916666567,
      "v": 84
    },
    {
      "midi": 55,
      "hit": false,
      "t": 156363.652,
      "d": 2265.151741666661,
      "v": 76
    },
    {
      "midi": 60,
      "hit": false,
      "t": 156363.652,
      "d": 2265.151741666661,
      "v": 85
    },
    {
      "midi": 64,
      "hit": false,
      "t": 156363.652,
      "d": 2265.151741666661,
      "v": 93
    },
    {
      "midi": 60,
      "hit": false,
      "t": 158636.3795,
      "d": 446.9697416666604,
      "v": 85
    },
    {
      "midi": 64,
      "hit": false,
      "t": 158636.3795,
      "d": 446.9697416666604,
      "v": 86
    },
    {
      "midi": 62,
      "hit": false,
      "t": 159090.92500000002,
      "d": 446.9697416666604,
      "v": 88
    },
    {
      "midi": 65,
      "hit": false,
      "t": 159090.92500000002,
      "d": 446.9697416666604,
      "v": 82
    },
    {
      "midi": 60,
      "hit": false,
      "t": 159545.47050000002,
      "d": 446.9697416666604,
      "v": 81
    },
    {
      "midi": 64,
      "hit": false,
      "t": 159545.47050000002,
      "d": 446.9697416666604,
      "v": 83
    },
    {
      "midi": 55,
      "hit": false,
      "t": 160000.01600000003,
      "d": 674.2424916666641,
      "v": 76
    },
    {
      "midi": 60,
      "hit": false,
      "t": 160000.01600000003,
      "d": 674.2424916666641,
      "v": 84
    },
    {
      "midi": 64,
      "hit": false,
      "t": 160000.01600000003,
      "d": 674.2424916666641,
      "v": 90
    },
    {
      "midi": 55,
      "hit": false,
      "t": 160681.83425000004,
      "d": 219.6969916666567,
      "v": 78
    },
    {
      "midi": 62,
      "hit": false,
      "t": 160681.83425000004,
      "d": 219.6969916666567,
      "v": 88
    },
    {
      "midi": 59,
      "hit": false,
      "t": 160909.10700000005,
      "d": 68.18182500000694,
      "v": 93
    },
    {
      "midi": 55,
      "hit": false,
      "t": 160909.10700000005,
      "d": 1810.6062416666828,
      "v": 85
    },
    {
      "midi": 62,
      "hit": false,
      "t": 160909.10700000005,
      "d": 1810.6062416666828,
      "v": 84
    },
    {
      "midi": 62,
      "hit": false,
      "t": 162727.28900000008,
      "d": 446.9697416666604,
      "v": 93
    },
    {
      "midi": 59,
      "hit": false,
      "t": 163181.83450000008,
      "d": 446.9697416666604,
      "v": 94
    },
    {
      "midi": 62,
      "hit": false,
      "t": 163181.83450000008,
      "d": 446.9697416666604,
      "v": 84
    },
    {
      "midi": 53,
      "hit": false,
      "t": 163636.3800000001,
      "d": 219.6969916666567,
      "v": 80
    },
    {
      "midi": 59,
      "hit": false,
      "t": 163636.3800000001,
      "d": 219.6969916666567,
      "v": 86
    },
    {
      "midi": 62,
      "hit": false,
      "t": 163636.3800000001,
      "d": 219.6969916666567,
      "v": 85
    },
    {
      "midi": 53,
      "hit": false,
      "t": 163863.6527500001,
      "d": 1583.333491666679,
      "v": 83
    },
    {
      "midi": 57,
      "hit": false,
      "t": 163863.6527500001,
      "d": 1583.333491666679,
      "v": 88
    },
    {
      "midi": 60,
      "hit": false,
      "t": 163863.6527500001,
      "d": 1583.333491666679,
      "v": 81
    },
    {
      "midi": 55,
      "hit": false,
      "t": 166363.6530000001,
      "d": 446.9697416666604,
      "v": 78
    },
    {
      "midi": 59,
      "hit": false,
      "t": 166363.6530000001,
      "d": 446.9697416666604,
      "v": 86
    },
    {
      "midi": 62,
      "hit": false,
      "t": 166363.6530000001,
      "d": 446.9697416666604,
      "v": 91
    },
    {
      "midi": 55,
      "hit": false,
      "t": 166818.19850000012,
      "d": 219.6969916666567,
      "v": 80
    },
    {
      "midi": 59,
      "hit": false,
      "t": 166818.19850000012,
      "d": 219.6969916666567,
      "v": 85
    },
    {
      "midi": 62,
      "hit": false,
      "t": 166818.19850000012,
      "d": 219.6969916666567,
      "v": 89
    },
    {
      "midi": 55,
      "hit": false,
      "t": 167045.47125000012,
      "d": 674.2424916666641,
      "v": 82
    },
    {
      "midi": 60,
      "hit": false,
      "t": 167045.47125000012,
      "d": 674.2424916666641,
      "v": 86
    },
    {
      "midi": 64,
      "hit": false,
      "t": 167045.47125000012,
      "d": 674.2424916666641,
      "v": 85
    },
    {
      "midi": 55,
      "hit": false,
      "t": 167727.28950000013,
      "d": 1356.0607416666753,
      "v": 76
    },
    {
      "midi": 60,
      "hit": false,
      "t": 167727.28950000013,
      "d": 1356.0607416666753,
      "v": 83
    },
    {
      "midi": 64,
      "hit": false,
      "t": 167727.28950000013,
      "d": 1356.0607416666753,
      "v": 84
    },
    {
      "midi": 60,
      "hit": false,
      "t": 170000.01700000014,
      "d": 446.9697416666604,
      "v": 83
    },
    {
      "midi": 64,
      "hit": false,
      "t": 170000.01700000014,
      "d": 446.9697416666604,
      "v": 85
    },
    {
      "midi": 62,
      "hit": false,
      "t": 170454.56250000015,
      "d": 219.6969916666567,
      "v": 85
    },
    {
      "midi": 65,
      "hit": false,
      "t": 170454.56250000015,
      "d": 219.6969916666567,
      "v": 85
    },
    {
      "midi": 60,
      "hit": false,
      "t": 170681.83525000015,
      "d": 219.6969916666567,
      "v": 81
    },
    {
      "midi": 64,
      "hit": false,
      "t": 170681.83525000015,
      "d": 219.6969916666567,
      "v": 86
    },
    {
      "midi": 67,
      "hit": false,
      "t": 170909.10800000015,
      "d": 446.9697416666604,
      "v": 99
    },
    {
      "midi": 59,
      "hit": false,
      "t": 170909.10800000015,
      "d": 2265.151741666661,
      "v": 90
    },
    {
      "midi": 64,
      "hit": false,
      "t": 170909.10800000015,
      "d": 2265.151741666661,
      "v": 90
    },
    {
      "midi": 67,
      "hit": false,
      "t": 171363.65350000016,
      "d": 1810.6062416666537,
      "v": 99
    },
    {
      "midi": 59,
      "hit": false,
      "t": 173181.83550000016,
      "d": 901.5152416666679,
      "v": 85
    },
    {
      "midi": 64,
      "hit": false,
      "t": 173181.83550000016,
      "d": 901.5152416666679,
      "v": 81
    },
    {
      "midi": 67,
      "hit": false,
      "t": 173181.83550000016,
      "d": 901.5152416666679,
      "v": 91
    },
    {
      "midi": 59,
      "hit": false,
      "t": 174090.92650000018,
      "d": 446.9697416666604,
      "v": 81
    },
    {
      "midi": 64,
      "hit": false,
      "t": 174090.92650000018,
      "d": 446.9697416666604,
      "v": 85
    },
    {
      "midi": 67,
      "hit": false,
      "t": 174090.92650000018,
      "d": 446.9697416666604,
      "v": 88
    },
    {
      "midi": 57,
      "hit": false,
      "t": 174545.47200000018,
      "d": 901.5152416666679,
      "v": 89
    },
    {
      "midi": 60,
      "hit": false,
      "t": 174545.47200000018,
      "d": 901.5152416666679,
      "v": 81
    },
    {
      "midi": 64,
      "hit": false,
      "t": 174545.47200000018,
      "d": 901.5152416666679,
      "v": 88
    },
    {
      "midi": 67,
      "hit": false,
      "t": 174545.47200000018,
      "d": 901.5152416666679,
      "v": 96
    },
    {
      "midi": 55,
      "hit": false,
      "t": 175454.5630000002,
      "d": 1810.6062416666537,
      "v": 88
    },
    {
      "midi": 57,
      "hit": false,
      "t": 175454.5630000002,
      "d": 1810.6062416666537,
      "v": 96
    },
    {
      "midi": 60,
      "hit": false,
      "t": 175454.5630000002,
      "d": 1810.6062416666537,
      "v": 89
    },
    {
      "midi": 64,
      "hit": false,
      "t": 177272.7450000002,
      "d": 446.9697416666604,
      "v": 86
    },
    {
      "midi": 57,
      "hit": false,
      "t": 177272.7450000002,
      "d": 901.5152416666679,
      "v": 93
    },
    {
      "midi": 60,
      "hit": false,
      "t": 177272.7450000002,
      "d": 901.5152416666679,
      "v": 91
    },
    {
      "midi": 64,
      "hit": false,
      "t": 177727.2905000002,
      "d": 446.9697416666604,
      "v": 91
    },
    {
      "midi": 53,
      "hit": false,
      "t": 178181.8360000002,
      "d": 2265.151741666661,
      "v": 90
    },
    {
      "midi": 57,
      "hit": false,
      "t": 178181.8360000002,
      "d": 2265.151741666661,
      "v": 90
    },
    {
      "midi": 65,
      "hit": false,
      "t": 178181.8360000002,
      "d": 2265.151741666661,
      "v": 96
    },
    {
      "midi": 53,
      "hit": false,
      "t": 180454.56350000022,
      "d": 446.9697416666604,
      "v": 86
    },
    {
      "midi": 64,
      "hit": false,
      "t": 180454.56350000022,
      "d": 446.9697416666604,
      "v": 84
    },
    {
      "midi": 53,
      "hit": false,
      "t": 180909.10900000023,
      "d": 674.2424916666641,
      "v": 89
    },
    {
      "midi": 62,
      "hit": false,
      "t": 180909.10900000023,
      "d": 674.2424916666641,
      "v": 84
    },
    {
      "midi": 60,
      "hit": false,
      "t": 181590.92725000024,
      "d": 219.6969916666567,
      "v": 79
    },
    {
      "midi": 57,
      "hit": false,
      "t": 181818.20000000024,
      "d": 446.9697416666604,
      "v": 83
    },
    {
      "midi": 55,
      "hit": false,
      "t": 182272.74550000025,
      "d": 2265.151741666661,
      "v": 85
    },
    {
      "midi": 55,
      "hit": false,
      "t": 184545.47300000026,
      "d": 446.9697416666604,
      "v": 88
    },
    {
      "midi": 60,
      "hit": false,
      "t": 184545.47300000026,
      "d": 446.9697416666604,
      "v": 80
    },
    {
      "midi": 62,
      "hit": false,
      "t": 185000.01850000027,
      "d": 219.6969916666567,
      "v": 86
    },
    {
      "midi": 55,
      "hit": false,
      "t": 185000.01850000027,
      "d": 446.9697416666604,
      "v": 88
    },
    {
      "midi": 60,
      "hit": false,
      "t": 185227.29125000027,
      "d": 219.6969916666567,
      "v": 76
    },
    {
      "midi": 64,
      "hit": false,
      "t": 185454.56400000027,
      "d": 1810.6062416666537,
      "v": 89
    },
    {
      "midi": 55,
      "hit": false,
      "t": 185454.56400000027,
      "d": 2265.151741666661,
      "v": 86
    },
    {
      "midi": 60,
      "hit": false,
      "t": 185454.56400000027,
      "d": 2265.151741666661,
      "v": 89
    },
    {
      "midi": 60,
      "hit": false,
      "t": 187727.29150000028,
      "d": 446.9697416666604,
      "v": 76
    },
    {
      "midi": 64,
      "hit": false,
      "t": 187727.29150000028,
      "d": 446.9697416666604,
      "v": 86
    },
    {
      "midi": 62,
      "hit": false,
      "t": 188181.8370000003,
      "d": 446.9697416666604,
      "v": 89
    },
    {
      "midi": 65,
      "hit": false,
      "t": 188181.8370000003,
      "d": 446.9697416666604,
      "v": 81
    },
    {
      "midi": 60,
      "hit": false,
      "t": 188636.3825000003,
      "d": 446.9697416666604,
      "v": 76
    },
    {
      "midi": 64,
      "hit": false,
      "t": 188636.3825000003,
      "d": 446.9697416666604,
      "v": 82
    },
    {
      "midi": 55,
      "hit": false,
      "t": 189090.9280000003,
      "d": 674.2424916666641,
      "v": 84
    },
    {
      "midi": 60,
      "hit": false,
      "t": 189090.9280000003,
      "d": 674.2424916666641,
      "v": 88
    },
    {
      "midi": 64,
      "hit": false,
      "t": 189090.9280000003,
      "d": 674.2424916666641,
      "v": 83
    },
    {
      "midi": 59,
      "hit": false,
      "t": 189772.74625000032,
      "d": 219.6969916666567,
      "v": 85
    },
    {
      "midi": 62,
      "hit": false,
      "t": 189772.74625000032,
      "d": 219.6969916666567,
      "v": 81
    },
    {
      "midi": 55,
      "hit": false,
      "t": 190000.01900000032,
      "d": 1810.6062416666537,
      "v": 89
    },
    {
      "midi": 59,
      "hit": false,
      "t": 190000.01900000032,
      "d": 1810.6062416666537,
      "v": 93
    },
    {
      "midi": 62,
      "hit": false,
      "t": 190000.01900000032,
      "d": 1810.6062416666537,
      "v": 88
    },
    {
      "midi": 62,
      "hit": false,
      "t": 191818.20100000032,
      "d": 446.9697416666604,
      "v": 96
    },
    {
      "midi": 59,
      "hit": false,
      "t": 192272.74650000033,
      "d": 446.9697416666604,
      "v": 93
    },
    {
      "midi": 62,
      "hit": false,
      "t": 192272.74650000033,
      "d": 446.9697416666604,
      "v": 85
    },
    {
      "midi": 57,
      "hit": false,
      "t": 192727.29200000034,
      "d": 446.9697416666604,
      "v": 90
    },
    {
      "midi": 60,
      "hit": false,
      "t": 192727.29200000034,
      "d": 1810.6062416666828,
      "v": 96
    },
    {
      "midi": 53,
      "hit": false,
      "t": 193181.83750000034,
      "d": 446.9697416666604,
      "v": 86
    },
    {
      "midi": 55,
      "hit": false,
      "t": 193636.38300000035,
      "d": 446.9697416666604,
      "v": 86
    },
    {
      "midi": 52,
      "hit": false,
      "t": 194090.92850000036,
      "d": 446.9697416666604,
      "v": 83
    },
    {
      "midi": 55,
      "hit": false,
      "t": 194545.47400000037,
      "d": 446.9697416666604,
      "v": 91
    },
    {
      "midi": 57,
      "hit": false,
      "t": 194545.47400000037,
      "d": 446.9697416666604,
      "v": 86
    },
    {
      "midi": 53,
      "hit": false,
      "t": 195000.01950000037,
      "d": 446.9697416666604,
      "v": 86
    },
    {
      "midi": 57,
      "hit": false,
      "t": 195000.01950000037,
      "d": 446.9697416666604,
      "v": 82
    },
    {
      "midi": 60,
      "hit": false,
      "t": 195000.01950000037,
      "d": 446.9697416666604,
      "v": 91
    },
    {
      "midi": 59,
      "hit": false,
      "t": 195454.56500000038,
      "d": 446.9697416666604,
      "v": 85
    },
    {
      "midi": 62,
      "hit": false,
      "t": 195454.56500000038,
      "d": 674.2424916666641,
      "v": 89
    },
    {
      "midi": 55,
      "hit": false,
      "t": 195909.1105000004,
      "d": 446.9697416666604,
      "v": 86
    },
    {
      "midi": 60,
      "hit": false,
      "t": 196136.3832500004,
      "d": 219.6969916666567,
      "v": 84
    },
    {
      "midi": 76,
      "hit": false,
      "t": 196363.656,
      "d": 446.9697416666604,
      "v": 85
    },
    {
      "midi": 79,
      "hit": false,
      "t": 196363.656,
      "d": 446.9697416666604,
      "v": 85
    },
    {
      "midi": 60,
      "hit": false,
      "t": 196363.656,
      "d": 3174.242741666705,
      "v": 83
    },
    {
      "midi": 60,
      "hit": false,
      "t": 196363.6560000004,
      "d": 3628.7882416666544,
      "v": 97
    },
    {
      "midi": 74,
      "hit": false,
      "t": 196818.2015,
      "d": 446.9697416666604,
      "v": 90
    },
    {
      "midi": 76,
      "hit": false,
      "t": 197272.747,
      "d": 446.9697416666604,
      "v": 83
    },
    {
      "midi": 79,
      "hit": false,
      "t": 197272.747,
      "d": 446.9697416666604,
      "v": 72
    },
    {
      "midi": 72,
      "hit": false,
      "t": 197727.2925,
      "d": 446.9697416666604,
      "v": 81
    },
    {
      "midi": 76,
      "hit": false,
      "t": 198181.83800000002,
      "d": 446.9697416666604,
      "v": 82
    },
    {
      "midi": 79,
      "hit": false,
      "t": 198181.83800000002,
      "d": 446.9697416666604,
      "v": 84
    },
    {
      "midi": 74,
      "hit": false,
      "t": 198636.38350000003,
      "d": 446.9697416666604,
      "v": 86
    },
    {
      "midi": 76,
      "hit": false,
      "t": 199090.92900000003,
      "d": 446.9697416666604,
      "v": 76
    },
    {
      "midi": 79,
      "hit": false,
      "t": 199090.92900000003,
      "d": 446.9697416666604,
      "v": 83
    },
    {
      "midi": 55,
      "hit": false,
      "t": 199545.47450000004,
      "d": 446.9697416666604,
      "v": 80
    },
    {
      "midi": 72,
      "hit": false,
      "t": 199545.47450000004,
      "d": 446.9697416666604,
      "v": 83
    },
    {
      "midi": 76,
      "hit": false,
      "t": 200000.02000000005,
      "d": 446.9697416666604,
      "v": 80
    },
    {
      "midi": 79,
      "hit": false,
      "t": 200000.02000000005,
      "d": 446.9697416666604,
      "v": 82
    },
    {
      "midi": 60,
      "hit": false,
      "t": 200000.02000000005,
      "d": 3174.242741666705,
      "v": 83
    },
    {
      "midi": 74,
      "hit": false,
      "t": 200454.56550000006,
      "d": 446.9697416666604,
      "v": 74
    },
    {
      "midi": 76,
      "hit": false,
      "t": 200909.11100000006,
      "d": 446.9697416666604,
      "v": 79
    },
    {
      "midi": 79,
      "hit": false,
      "t": 200909.11100000006,
      "d": 446.9697416666604,
      "v": 77
    },
    {
      "midi": 72,
      "hit": false,
      "t": 201363.65650000007,
      "d": 446.9697416666604,
      "v": 79
    },
    {
      "midi": 76,
      "hit": false,
      "t": 201818.20200000008,
      "d": 446.9697416666604,
      "v": 79
    },
    {
      "midi": 79,
      "hit": false,
      "t": 201818.20200000008,
      "d": 446.9697416666604,
      "v": 79
    },
    {
      "midi": 74,
      "hit": false,
      "t": 202272.74750000008,
      "d": 446.9697416666604,
      "v": 88
    },
    {
      "midi": 76,
      "hit": false,
      "t": 202727.2930000001,
      "d": 446.9697416666604,
      "v": 86
    },
    {
      "midi": 79,
      "hit": false,
      "t": 202727.2930000001,
      "d": 446.9697416666604,
      "v": 81
    },
    {
      "midi": 55,
      "hit": false,
      "t": 203181.8385000001,
      "d": 446.9697416666604,
      "v": 80
    },
    {
      "midi": 72,
      "hit": false,
      "t": 203181.8385000001,
      "d": 446.9697416666604,
      "v": 83
    },
    {
      "midi": 76,
      "hit": false,
      "t": 203636.3840000001,
      "d": 446.9697416666604,
      "v": 81
    },
    {
      "midi": 79,
      "hit": false,
      "t": 203636.3840000001,
      "d": 446.9697416666604,
      "v": 84
    },
    {
      "midi": 60,
      "hit": false,
      "t": 203636.3840000001,
      "d": 3174.242741666705,
      "v": 83
    },
    {
      "midi": 74,
      "hit": false,
      "t": 204090.92950000011,
      "d": 446.9697416666604,
      "v": 88
    },
    {
      "midi": 76,
      "hit": false,
      "t": 204545.47500000012,
      "d": 446.9697416666604,
      "v": 86
    },
    {
      "midi": 79,
      "hit": false,
      "t": 204545.47500000012,
      "d": 446.9697416666604,
      "v": 86
    },
    {
      "midi": 72,
      "hit": false,
      "t": 205000.02050000013,
      "d": 446.9697416666604,
      "v": 80
    },
    {
      "midi": 76,
      "hit": false,
      "t": 205454.56600000014,
      "d": 446.9697416666604,
      "v": 83
    },
    {
      "midi": 79,
      "hit": false,
      "t": 205454.56600000014,
      "d": 446.9697416666604,
      "v": 89
    },
    {
      "midi": 74,
      "hit": false,
      "t": 205909.11150000014,
      "d": 446.9697416666604,
      "v": 85
    },
    {
      "midi": 76,
      "hit": false,
      "t": 206363.65700000015,
      "d": 446.9697416666604,
      "v": 84
    },
    {
      "midi": 79,
      "hit": false,
      "t": 206363.65700000015,
      "d": 446.9697416666604,
      "v": 88
    },
    {
      "midi": 55,
      "hit": false,
      "t": 206818.20250000016,
      "d": 446.9697416666604,
      "v": 80
    },
    {
      "midi": 72,
      "hit": false,
      "t": 206818.20250000016,
      "d": 446.9697416666604,
      "v": 76
    },
    {
      "midi": 76,
      "hit": false,
      "t": 207272.74800000017,
      "d": 446.9697416666604,
      "v": 85
    },
    {
      "midi": 79,
      "hit": false,
      "t": 207272.74800000017,
      "d": 446.9697416666604,
      "v": 84
    },
    {
      "midi": 60,
      "hit": false,
      "t": 207272.74800000017,
      "d": 3174.242741666705,
      "v": 83
    },
    {
      "midi": 74,
      "hit": false,
      "t": 207727.29350000017,
      "d": 446.9697416666604,
      "v": 88
    },
    {
      "midi": 76,
      "hit": false,
      "t": 208181.83900000018,
      "d": 446.9697416666604,
      "v": 85
    },
    {
      "midi": 79,
      "hit": false,
      "t": 208181.83900000018,
      "d": 446.9697416666604,
      "v": 86
    },
    {
      "midi": 72,
      "hit": false,
      "t": 208636.3845000002,
      "d": 446.9697416666604,
      "v": 80
    },
    {
      "midi": 76,
      "hit": false,
      "t": 209090.9300000002,
      "d": 446.9697416666604,
      "v": 80
    },
    {
      "midi": 79,
      "hit": false,
      "t": 209090.9300000002,
      "d": 446.9697416666604,
      "v": 81
    },
    {
      "midi": 74,
      "hit": false,
      "t": 209545.4755000002,
      "d": 446.9697416666604,
      "v": 86
    },
    {
      "midi": 76,
      "hit": false,
      "t": 210000.0210000002,
      "d": 446.9697416666604,
      "v": 85
    },
    {
      "midi": 79,
      "hit": false,
      "t": 210000.0210000002,
      "d": 446.9697416666604,
      "v": 84
    },
    {
      "midi": 55,
      "hit": false,
      "t": 210454.56650000022,
      "d": 446.9697416666604,
      "v": 80
    },
    {
      "midi": 72,
      "hit": false,
      "t": 210454.56650000022,
      "d": 446.9697416666604,
      "v": 85
    },
    {
      "midi": 76,
      "hit": false,
      "t": 210909.11200000023,
      "d": 446.9697416666604,
      "v": 74
    },
    {
      "midi": 79,
      "hit": false,
      "t": 210909.11200000023,
      "d": 446.9697416666604,
      "v": 72
    },
    {
      "midi": 60,
      "hit": false,
      "t": 210909.11200000023,
      "d": 3174.242741666705,
      "v": 83
    },
    {
      "midi": 74,
      "hit": false,
      "t": 211363.65750000023,
      "d": 446.9697416666604,
      "v": 90
    },
    {
      "midi": 76,
      "hit": false,
      "t": 211818.20300000024,
      "d": 446.9697416666604,
      "v": 73
    },
    {
      "midi": 79,
      "hit": false,
      "t": 211818.20300000024,
      "d": 446.9697416666604,
      "v": 84
    },
    {
      "midi": 72,
      "hit": false,
      "t": 212272.74850000025,
      "d": 446.9697416666604,
      "v": 77
    },
    {
      "midi": 76,
      "hit": false,
      "t": 212727.29400000026,
      "d": 446.9697416666604,
      "v": 83
    },
    {
      "midi": 79,
      "hit": false,
      "t": 212727.29400000026,
      "d": 446.9697416666604,
      "v": 88
    },
    {
      "midi": 74,
      "hit": false,
      "t": 213181.83950000026,
      "d": 446.9697416666604,
      "v": 90
    },
    {
      "midi": 76,
      "hit": false,
      "t": 213636.38500000027,
      "d": 446.9697416666604,
      "v": 82
    },
    {
      "midi": 79,
      "hit": false,
      "t": 213636.38500000027,
      "d": 446.9697416666604,
      "v": 90
    },
    {
      "midi": 55,
      "hit": false,
      "t": 214090.93050000028,
      "d": 446.9697416666604,
      "v": 80
    },
    {
      "midi": 72,
      "hit": false,
      "t": 214090.93050000028,
      "d": 446.9697416666604,
      "v": 80
    },
    {
      "midi": 48,
      "hit": false,
      "t": 214545.4760000003,
      "d": 7265.152241666656,
      "v": 90
    },
    {
      "midi": 55,
      "hit": false,
      "t": 214545.4760000003,
      "d": 7265.152241666656,
      "v": 96
    },
    {
      "midi": 60,
      "hit": false,
      "t": 214545.4760000003,
      "d": 7265.152241666656,
      "v": 104
    },
    {
      "midi": 64,
      "hit": false,
      "t": 214545.4760000003,
      "d": 7265.152241666656,
      "v": 88
    },
    {
      "midi": 67,
      "hit": false,
      "t": 214545.4760000003,
      "d": 7265.152241666656,
      "v": 91
    },
    {
      "midi": 72,
      "hit": false,
      "t": 214545.4760000003,
      "d": 7265.152241666656,
      "v": 90
    }
  ]
}