{
  "jsonPath": "Pop/Afropop/Youssou NDour/jealous-guy-album-version.json",
  "path": "Pop\\Afropop\\Youssou NDour\\Jealous Guy (Album Version).mid",
  "name": "Jealous Guy (Album Version)",
  "difficulty": "Advanced",
  "bpm": 68.0000725334107,
  "notes": [
    {
      "midi": 67,
      "hit": false,
      "t": 7049.624833333333,
      "d": 202.20566666666673,
      "v": 79
    },
    {
      "midi": 74,
      "hit": false,
      "t": 7049.624833333333,
      "d": 450.367166666666,
      "v": 93
    },
    {
      "midi": 62,
      "hit": false,
      "t": 7058.816,
      "d": 459.5583333333325,
      "v": 57
    },
    {
      "midi": 55,
      "hit": false,
      "t": 7058.816,
      "d": 1176.4693333333335,
      "v": 63
    },
    {
      "midi": 71,
      "hit": false,
      "t": 7270.212833333333,
      "d": 248.16149999999925,
      "v": 71
    },
    {
      "midi": 67,
      "hit": false,
      "t": 7490.800833333333,
      "d": 248.16150000000016,
      "v": 64
    },
    {
      "midi": 71,
      "hit": false,
      "t": 7711.3888333333325,
      "d": 229.77916666666715,
      "v": 74
    },
    {
      "midi": 67,
      "hit": false,
      "t": 7931.976833333333,
      "d": 229.77916666666624,
      "v": 84
    },
    {
      "midi": 62,
      "hit": false,
      "t": 7931.976833333333,
      "d": 330.8820000000005,
      "v": 71
    },
    {
      "midi": 74,
      "hit": false,
      "t": 7931.976833333333,
      "d": 340.07316666666793,
      "v": 91
    },
    {
      "midi": 71,
      "hit": false,
      "t": 8152.564833333333,
      "d": 257.3526666666685,
      "v": 78
    },
    {
      "midi": 67,
      "hit": false,
      "t": 8382.344000000001,
      "d": 248.16150000000016,
      "v": 71
    },
    {
      "midi": 71,
      "hit": false,
      "t": 8593.740833333335,
      "d": 220.58799999999974,
      "v": 77
    },
    {
      "midi": 67,
      "hit": false,
      "t": 8814.328833333335,
      "d": 229.77916666666715,
      "v": 90
    },
    {
      "midi": 76,
      "hit": false,
      "t": 8814.328833333335,
      "d": 330.8819999999996,
      "v": 88
    },
    {
      "midi": 64,
      "hit": false,
      "t": 8814.328833333335,
      "d": 560.6611666666668,
      "v": 65
    },
    {
      "midi": 52,
      "hit": false,
      "t": 8814.328833333335,
      "d": 1406.2484999999979,
      "v": 72
    },
    {
      "midi": 71,
      "hit": false,
      "t": 9034.916833333335,
      "d": 248.16150000000016,
      "v": 77
    },
    {
      "midi": 67,
      "hit": false,
      "t": 9264.696000000002,
      "d": 275.73499999999876,
      "v": 78
    },
    {
      "midi": 71,
      "hit": false,
      "t": 9476.092833333334,
      "d": 229.77916666666715,
      "v": 80
    },
    {
      "midi": 76,
      "hit": false,
      "t": 9705.872000000001,
      "d": 82.72049999999945,
      "v": 84
    },
    {
      "midi": 67,
      "hit": false,
      "t": 9705.872000000001,
      "d": 119.48516666666546,
      "v": 76
    },
    {
      "midi": 64,
      "hit": false,
      "t": 9705.872000000001,
      "d": 376.8378333333312,
      "v": 66
    },
    {
      "midi": 78,
      "hit": false,
      "t": 9926.46,
      "d": 248.16150000000016,
      "v": 94
    },
    {
      "midi": 67,
      "hit": false,
      "t": 9926.46,
      "d": 266.54383333333317,
      "v": 70
    },
    {
      "midi": 79,
      "hit": false,
      "t": 10147.047999999999,
      "d": 220.58800000000156,
      "v": 88
    },
    {
      "midi": 59,
      "hit": false,
      "t": 10358.444833333333,
      "d": 165.4410000000007,
      "v": 55
    },
    {
      "midi": 74,
      "hit": false,
      "t": 10588.224,
      "d": 477.9406666666655,
      "v": 97
    },
    {
      "midi": 62,
      "hit": false,
      "t": 10588.224,
      "d": 560.6611666666649,
      "v": 78
    },
    {
      "midi": 78,
      "hit": false,
      "t": 10588.224,
      "d": 689.3374999999978,
      "v": 103
    },
    {
      "midi": 50,
      "hit": false,
      "t": 10588.224,
      "d": 1387.8661666666685,
      "v": 86
    },
    {
      "midi": 66,
      "hit": false,
      "t": 11029.4,
      "d": 275.73499999999876,
      "v": 74
    },
    {
      "midi": 69,
      "hit": false,
      "t": 11249.987999999998,
      "d": 266.543833333335,
      "v": 48
    },
    {
      "midi": 74,
      "hit": false,
      "t": 11470.576,
      "d": 413.6025000000009,
      "v": 98
    },
    {
      "midi": 78,
      "hit": false,
      "t": 11470.576,
      "d": 422.7936666666683,
      "v": 94
    },
    {
      "midi": 62,
      "hit": false,
      "t": 11470.576,
      "d": 477.94066666666913,
      "v": 77
    },
    {
      "midi": 64,
      "hit": false,
      "t": 12352.928000000002,
      "d": 183.82333333333372,
      "v": 76
    },
    {
      "midi": 69,
      "hit": false,
      "t": 12352.928000000002,
      "d": 303.3084999999992,
      "v": 92
    },
    {
      "midi": 62,
      "hit": false,
      "t": 12352.928000000002,
      "d": 459.5583333333325,
      "v": 72
    },
    {
      "midi": 50,
      "hit": false,
      "t": 12352.928000000002,
      "d": 1488.9690000000028,
      "v": 77
    },
    {
      "midi": 66,
      "hit": false,
      "t": 12573.516000000001,
      "d": 349.2643333333326,
      "v": 70
    },
    {
      "midi": 69,
      "hit": false,
      "t": 12794.104000000001,
      "d": 137.8675000000003,
      "v": 85
    },
    {
      "midi": 74,
      "hit": false,
      "t": 12794.104000000001,
      "d": 358.45550000000003,
      "v": 96
    },
    {
      "midi": 66,
      "hit": false,
      "t": 13014.692000000001,
      "d": 193.01450000000114,
      "v": 85
    },
    {
      "midi": 62,
      "hit": false,
      "t": 13226.088833333335,
      "d": 294.1173333333354,
      "v": 57
    },
    {
      "midi": 69,
      "hit": false,
      "t": 13235.280000000002,
      "d": 422.7936666666683,
      "v": 82
    },
    {
      "midi": 76,
      "hit": false,
      "t": 13446.676833333337,
      "d": 431.9848333333339,
      "v": 88
    },
    {
      "midi": 62,
      "hit": false,
      "t": 13667.264833333338,
      "d": 330.8819999999996,
      "v": 57
    },
    {
      "midi": 66,
      "hit": false,
      "t": 13887.852833333338,
      "d": 1783.0863333333364,
      "v": 80
    },
    {
      "midi": 74,
      "hit": false,
      "t": 14108.440833333338,
      "d": 284.926166666668,
      "v": 88
    },
    {
      "midi": 62,
      "hit": false,
      "t": 14108.440833333338,
      "d": 597.4258333333346,
      "v": 66
    },
    {
      "midi": 78,
      "hit": false,
      "t": 14108.440833333338,
      "d": 965.0725000000002,
      "v": 93
    },
    {
      "midi": 69,
      "hit": false,
      "t": 14108.440833333338,
      "d": 974.2636666666676,
      "v": 85
    },
    {
      "midi": 50,
      "hit": false,
      "t": 14117.632000000005,
      "d": 1544.1160000000018,
      "v": 75
    },
    {
      "midi": 74,
      "hit": false,
      "t": 14549.616833333339,
      "d": 560.6611666666668,
      "v": 86
    },
    {
      "midi": 62,
      "hit": false,
      "t": 14990.792833333338,
      "d": 496.3230000000003,
      "v": 61
    },
    {
      "midi": 78,
      "hit": false,
      "t": 15441.160000000005,
      "d": 229.77916666666897,
      "v": 88
    },
    {
      "midi": 74,
      "hit": false,
      "t": 15441.160000000005,
      "d": 248.1615000000038,
      "v": 75
    },
    {
      "midi": 69,
      "hit": false,
      "t": 15441.160000000005,
      "d": 257.3526666666712,
      "v": 62
    },
    {
      "midi": 79,
      "hit": false,
      "t": 15652.55683333334,
      "d": 183.82333333333736,
      "v": 90
    },
    {
      "midi": 57,
      "hit": false,
      "t": 15670.939166666674,
      "d": 119.4851666666691,
      "v": 54
    },
    {
      "midi": 59,
      "hit": false,
      "t": 15680.130333333342,
      "d": 128.6763333333347,
      "v": 74
    },
    {
      "midi": 60,
      "hit": false,
      "t": 15735.277333333343,
      "d": 128.6763333333347,
      "v": 78
    },
    {
      "midi": 61,
      "hit": false,
      "t": 15808.806666666676,
      "d": 119.48516666666728,
      "v": 77
    },
    {
      "midi": 69,
      "hit": false,
      "t": 15882.33600000001,
      "d": 147.05866666666589,
      "v": 82
    },
    {
      "midi": 74,
      "hit": false,
      "t": 15882.33600000001,
      "d": 248.16149999999834,
      "v": 87
    },
    {
      "midi": 81,
      "hit": false,
      "t": 15882.33600000001,
      "d": 404.41133333333164,
      "v": 84
    },
    {
      "midi": 78,
      "hit": false,
      "t": 15882.33600000001,
      "d": 468.7494999999981,
      "v": 88
    },
    {
      "midi": 62,
      "hit": false,
      "t": 15882.33600000001,
      "d": 726.1021666666675,
      "v": 92
    },
    {
      "midi": 69,
      "hit": false,
      "t": 16314.320833333342,
      "d": 477.94066666667277,
      "v": 78
    },
    {
      "midi": 83,
      "hit": false,
      "t": 16544.10000000001,
      "d": 229.7791666666708,
      "v": 94
    },
    {
      "midi": 78,
      "hit": false,
      "t": 16544.10000000001,
      "d": 266.54383333334044,
      "v": 79
    },
    {
      "midi": 74,
      "hit": false,
      "t": 16544.10000000001,
      "d": 284.9261666666753,
      "v": 71
    },
    {
      "midi": 62,
      "hit": false,
      "t": 16764.688000000013,
      "d": 404.41133333334074,
      "v": 74
    },
    {
      "midi": 81,
      "hit": false,
      "t": 16976.084833333352,
      "d": 238.97033333333457,
      "v": 90
    },
    {
      "midi": 69,
      "hit": false,
      "t": 16976.084833333352,
      "d": 248.16150000000198,
      "v": 83
    },
    {
      "midi": 78,
      "hit": false,
      "t": 16976.084833333352,
      "d": 294.1173333333354,
      "v": 83
    },
    {
      "midi": 74,
      "hit": false,
      "t": 16985.27600000002,
      "d": 238.97033333333457,
      "v": 82
    },
    {
      "midi": 63,
      "hit": false,
      "t": 17196.672833333352,
      "d": 441.1760000000031,
      "v": 73
    },
    {
      "midi": 67,
      "hit": false,
      "t": 17426.452000000023,
      "d": 1231.6163333333316,
      "v": 68
    },
    {
      "midi": 79,
      "hit": false,
      "t": 17637.848833333355,
      "d": 487.1318333333329,
      "v": 97
    },
    {
      "midi": 64,
      "hit": false,
      "t": 17637.848833333355,
      "d": 781.2491666666647,
      "v": 75
    },
    {
      "midi": 71,
      "hit": false,
      "t": 17647.040000000023,
      "d": 1001.8371666666644,
      "v": 89
    },
    {
      "midi": 76,
      "hit": false,
      "t": 18088.216000000022,
      "d": 588.2346666666672,
      "v": 90
    },
    {
      "midi": 64,
      "hit": false,
      "t": 18529.39200000002,
      "d": 542.2788333333338,
      "v": 78
    },
    {
      "midi": 67,
      "hit": false,
      "t": 18970.56800000002,
      "d": 542.2788333333374,
      "v": 78
    },
    {
      "midi": 59,
      "hit": false,
      "t": 19181.964833333357,
      "d": 542.2788333333338,
      "v": 78
    },
    {
      "midi": 69,
      "hit": false,
      "t": 19402.552833333357,
      "d": 248.16150000000198,
      "v": 93
    },
    {
      "midi": 76,
      "hit": false,
      "t": 19402.552833333357,
      "d": 514.7053333333315,
      "v": 88
    },
    {
      "midi": 52,
      "hit": false,
      "t": 19402.552833333357,
      "d": 1424.6308333333327,
      "v": 85
    },
    {
      "midi": 71,
      "hit": false,
      "t": 19623.14083333336,
      "d": 266.54383333332953,
      "v": 87
    },
    {
      "midi": 67,
      "hit": false,
      "t": 19843.728833333356,
      "d": 808.8226666666669,
      "v": 89
    },
    {
      "midi": 59,
      "hit": false,
      "t": 20064.316833333356,
      "d": 257.35266666666575,
      "v": 84
    },
    {
      "midi": 78,
      "hit": false,
      "t": 20284.904833333356,
      "d": 128.67633333333288,
      "v": 108
    },
    {
      "midi": 64,
      "hit": false,
      "t": 20284.904833333356,
      "d": 569.8523333333324,
      "v": 76
    },
    {
      "midi": 76,
      "hit": false,
      "t": 20505.492833333356,
      "d": 487.1318333333329,
      "v": 88
    },
    {
      "midi": 71,
      "hit": false,
      "t": 20726.080833333355,
      "d": 275.7350000000006,
      "v": 92
    },
    {
      "midi": 59,
      "hit": false,
      "t": 20726.080833333355,
      "d": 450.3671666666669,
      "v": 75
    },
    {
      "midi": 67,
      "hit": false,
      "t": 20946.668833333355,
      "d": 220.58799999999974,
      "v": 71
    },
    {
      "midi": 62,
      "hit": false,
      "t": 21167.256833333355,
      "d": 321.690833333334,
      "v": 77
    },
    {
      "midi": 74,
      "hit": false,
      "t": 21167.256833333355,
      "d": 477.9406666666655,
      "v": 86
    },
    {
      "midi": 55,
      "hit": false,
      "t": 21167.256833333355,
      "d": 1443.0131666666675,
      "v": 76
    },
    {
      "midi": 71,
      "hit": false,
      "t": 21387.844833333354,
      "d": 321.690833333334,
      "v": 67
    },
    {
      "midi": 67,
      "hit": false,
      "t": 21608.432833333354,
      "d": 303.3084999999992,
      "v": 50
    },
    {
      "midi": 62,
      "hit": false,
      "t": 21829.020833333354,
      "d": 652.5728333333318,
      "v": 71
    },
    {
      "midi": 74,
      "hit": false,
      "t": 22049.608833333354,
      "d": 496.3230000000003,
      "v": 93
    },
    {
      "midi": 71,
      "hit": false,
      "t": 22270.196833333353,
      "d": 330.8820000000014,
      "v": 68
    },
    {
      "midi": 67,
      "hit": false,
      "t": 22490.784833333353,
      "d": 284.92616666667163,
      "v": 81
    },
    {
      "midi": 54,
      "hit": false,
      "t": 22711.372833333357,
      "d": 211.39683333333596,
      "v": 76
    },
    {
      "midi": 64,
      "hit": false,
      "t": 22931.96083333336,
      "d": 294.11733333333177,
      "v": 86
    },
    {
      "midi": 76,
      "hit": false,
      "t": 22931.96083333336,
      "d": 514.7053333333315,
      "v": 87
    },
    {
      "midi": 52,
      "hit": false,
      "t": 22931.96083333336,
      "d": 1636.027666666665,
      "v": 81
    },
    {
      "midi": 71,
      "hit": false,
      "t": 23152.54883333336,
      "d": 330.8819999999978,
      "v": 77
    },
    {
      "midi": 67,
      "hit": false,
      "t": 23373.13683333336,
      "d": 303.3084999999992,
      "v": 54
    },
    {
      "midi": 64,
      "hit": false,
      "t": 23593.72483333336,
      "d": 533.0876666666663,
      "v": 59
    },
    {
      "midi": 76,
      "hit": false,
      "t": 23814.31283333336,
      "d": 533.0876666666663,
      "v": 88
    },
    {
      "midi": 71,
      "hit": false,
      "t": 24034.90083333336,
      "d": 404.41133333333346,
      "v": 80
    },
    {
      "midi": 67,
      "hit": false,
      "t": 24255.48883333336,
      "d": 303.3084999999992,
      "v": 53
    },
    {
      "midi": 64,
      "hit": false,
      "t": 24476.076833333358,
      "d": 119.48516666666546,
      "v": 63
    },
    {
      "midi": 69,
      "hit": false,
      "t": 24696.664833333358,
      "d": 202.2056666666649,
      "v": 91
    },
    {
      "midi": 78,
      "hit": false,
      "t": 24696.664833333358,
      "d": 514.7053333333315,
      "v": 94
    },
    {
      "midi": 74,
      "hit": false,
      "t": 24696.664833333358,
      "d": 560.6611666666649,
      "v": 89
    },
    {
      "midi": 62,
      "hit": false,
      "t": 24696.664833333358,
      "d": 2362.129833333336,
      "v": 81
    },
    {
      "midi": 69,
      "hit": false,
      "t": 25147.03200000002,
      "d": 569.852333333336,
      "v": 54
    },
    {
      "midi": 78,
      "hit": false,
      "t": 25579.016833333357,
      "d": 496.3230000000003,
      "v": 87
    },
    {
      "midi": 74,
      "hit": false,
      "t": 25588.208000000024,
      "d": 505.51416666666773,
      "v": 86
    },
    {
      "midi": 69,
      "hit": false,
      "t": 26029.384000000024,
      "d": 533.08766666667,
      "v": 58
    },
    {
      "midi": 78,
      "hit": false,
      "t": 26470.560000000027,
      "d": 496.3230000000003,
      "v": 93
    },
    {
      "midi": 74,
      "hit": false,
      "t": 26470.560000000027,
      "d": 542.2788333333338,
      "v": 92
    },
    {
      "midi": 69,
      "hit": false,
      "t": 26911.736000000026,
      "d": 193.01450000000114,
      "v": 75
    },
    {
      "midi": 57,
      "hit": false,
      "t": 27141.515166666693,
      "d": 110.29400000000169,
      "v": 71
    },
    {
      "midi": 59,
      "hit": false,
      "t": 27187.471000000027,
      "d": 137.8675000000003,
      "v": 84
    },
    {
      "midi": 61,
      "hit": false,
      "t": 27297.76500000003,
      "d": 110.29399999999805,
      "v": 89
    },
    {
      "midi": 74,
      "hit": false,
      "t": 27352.912000000026,
      "d": 110.29400000000169,
      "v": 100
    },
    {
      "midi": 69,
      "hit": false,
      "t": 27352.912000000026,
      "d": 119.4851666666691,
      "v": 102
    },
    {
      "midi": 78,
      "hit": false,
      "t": 27352.912000000026,
      "d": 220.58800000000338,
      "v": 102
    },
    {
      "midi": 62,
      "hit": false,
      "t": 27352.912000000026,
      "d": 744.4845000000059,
      "v": 97
    },
    {
      "midi": 74,
      "hit": false,
      "t": 27573.50000000003,
      "d": 468.7495000000017,
      "v": 99
    },
    {
      "midi": 79,
      "hit": false,
      "t": 27573.50000000003,
      "d": 468.7495000000017,
      "v": 98
    },
    {
      "midi": 71,
      "hit": false,
      "t": 27573.50000000003,
      "d": 477.94066666666913,
      "v": 95
    },
    {
      "midi": 78,
      "hit": false,
      "t": 28226.072833333365,
      "d": 1029.4106666666667,
      "v": 102
    },
    {
      "midi": 62,
      "hit": false,
      "t": 28235.264000000032,
      "d": 606.6169999999984,
      "v": 89
    },
    {
      "midi": 69,
      "hit": false,
      "t": 28235.264000000032,
      "d": 992.6460000000006,
      "v": 66
    },
    {
      "midi": 74,
      "hit": false,
      "t": 28235.264000000032,
      "d": 1066.1753333333327,
      "v": 101
    },
    {
      "midi": 62,
      "hit": false,
      "t": 29117.61600000003,
      "d": 551.4700000000012,
      "v": 48
    },
    {
      "midi": 69,
      "hit": false,
      "t": 29549.600833333363,
      "d": 101.10283333333427,
      "v": 78
    },
    {
      "midi": 74,
      "hit": false,
      "t": 29549.600833333363,
      "d": 110.29400000000169,
      "v": 81
    },
    {
      "midi": 78,
      "hit": false,
      "t": 29549.600833333363,
      "d": 156.24983333333512,
      "v": 89
    },
    {
      "midi": 74,
      "hit": false,
      "t": 29770.188833333366,
      "d": 119.4851666666691,
      "v": 77
    },
    {
      "midi": 79,
      "hit": false,
      "t": 29770.188833333366,
      "d": 147.0586666666677,
      "v": 91
    },
    {
      "midi": 71,
      "hit": false,
      "t": 29779.380000000034,
      "d": 101.10283333333427,
      "v": 84
    },
    {
      "midi": 69,
      "hit": false,
      "t": 29999.968000000033,
      "d": 321.690833333334,
      "v": 101
    },
    {
      "midi": 74,
      "hit": false,
      "t": 29999.968000000033,
      "d": 431.9848333333357,
      "v": 100
    },
    {
      "midi": 78,
      "hit": false,
      "t": 29999.968000000033,
      "d": 468.7495000000017,
      "v": 103
    },
    {
      "midi": 62,
      "hit": false,
      "t": 29999.968000000033,
      "d": 579.0435000000034,
      "v": 92
    },
    {
      "midi": 83,
      "hit": false,
      "t": 30882.320000000036,
      "d": 284.926166666668,
      "v": 103
    },
    {
      "midi": 62,
      "hit": false,
      "t": 30882.320000000036,
      "d": 643.3816666666717,
      "v": 86
    },
    {
      "midi": 74,
      "hit": false,
      "t": 31102.908000000036,
      "d": 413.6025000000045,
      "v": 89
    },
    {
      "midi": 81,
      "hit": false,
      "t": 31323.49600000004,
      "d": 441.1760000000031,
      "v": 91
    },
    {
      "midi": 79,
      "hit": false,
      "t": 31764.672000000042,
      "d": 395.22016666666605,
      "v": 94
    },
    {
      "midi": 76,
      "hit": false,
      "t": 31764.672000000042,
      "d": 413.6025000000009,
      "v": 86
    },
    {
      "midi": 71,
      "hit": false,
      "t": 31764.672000000042,
      "d": 422.7936666666683,
      "v": 92
    },
    {
      "midi": 52,
      "hit": false,
      "t": 31764.672000000042,
      "d": 1397.0573333333377,
      "v": 81
    },
    {
      "midi": 64,
      "hit": false,
      "t": 32205.848000000045,
      "d": 284.926166666668,
      "v": 54
    },
    {
      "midi": 59,
      "hit": false,
      "t": 32647.02400000005,
      "d": 459.5583333333343,
      "v": 70
    },
    {
      "midi": 71,
      "hit": false,
      "t": 32647.02400000005,
      "d": 468.7494999999981,
      "v": 87
    },
    {
      "midi": 67,
      "hit": false,
      "t": 32647.02400000005,
      "d": 477.94066666666185,
      "v": 86
    },
    {
      "midi": 76,
      "hit": false,
      "t": 32647.02400000005,
      "d": 514.7053333333315,
      "v": 91
    },
    {
      "midi": 64,
      "hit": false,
      "t": 33088.20000000005,
      "d": 330.8819999999978,
      "v": 52
    },
    {
      "midi": 69,
      "hit": false,
      "t": 33529.37600000005,
      "d": 303.30850000000646,
      "v": 104
    },
    {
      "midi": 52,
      "hit": false,
      "t": 33529.37600000005,
      "d": 1240.80750000001,
      "v": 83
    },
    {
      "midi": 76,
      "hit": false,
      "t": 33529.37600000005,
      "d": 1249.9986666666737,
      "v": 101
    },
    {
      "midi": 71,
      "hit": false,
      "t": 33749.96400000005,
      "d": 965.0725000000093,
      "v": 84
    },
    {
      "midi": 64,
      "hit": false,
      "t": 33970.552000000054,
      "d": 284.92616666666436,
      "v": 70
    },
    {
      "midi": 67,
      "hit": false,
      "t": 33970.552000000054,
      "d": 707.7198333333363,
      "v": 95
    },
    {
      "midi": 59,
      "hit": false,
      "t": 34411.728000000054,
      "d": 312.49966666667024,
      "v": 46
    },
    {
      "midi": 67,
      "hit": false,
      "t": 34852.90400000005,
      "d": 110.29400000000169,
      "v": 60
    },
    {
      "midi": 76,
      "hit": false,
      "t": 34852.90400000005,
      "d": 110.29400000000169,
      "v": 86
    },
    {
      "midi": 71,
      "hit": false,
      "t": 34852.90400000005,
      "d": 165.4409999999989,
      "v": 82
    },
    {
      "midi": 67,
      "hit": false,
      "t": 35073.49200000005,
      "d": 110.29400000000169,
      "v": 75
    },
    {
      "midi": 72,
      "hit": false,
      "t": 35073.49200000005,
      "d": 110.29400000000169,
      "v": 87
    },
    {
      "midi": 76,
      "hit": false,
      "t": 35073.49200000005,
      "d": 110.29400000000169,
      "v": 74
    },
    {
      "midi": 67,
      "hit": false,
      "t": 35294.08000000005,
      "d": 165.4409999999989,
      "v": 102
    },
    {
      "midi": 73,
      "hit": false,
      "t": 35294.08000000005,
      "d": 487.1318333333329,
      "v": 105
    },
    {
      "midi": 76,
      "hit": false,
      "t": 35294.08000000005,
      "d": 505.51416666666773,
      "v": 100
    },
    {
      "midi": 52,
      "hit": false,
      "t": 35294.08000000005,
      "d": 919.1166666666686,
      "v": 103
    },
    {
      "midi": 64,
      "hit": false,
      "t": 35726.06483333339,
      "d": 73.52933333333203,
      "v": 28
    },
    {
      "midi": 67,
      "hit": false,
      "t": 35726.06483333339,
      "d": 110.29400000000169,
      "v": 34
    },
    {
      "midi": 67,
      "hit": false,
      "t": 36167.24083333339,
      "d": 183.82333333333372,
      "v": 90
    },
    {
      "midi": 73,
      "hit": false,
      "t": 36167.24083333339,
      "d": 505.51416666666773,
      "v": 91
    },
    {
      "midi": 76,
      "hit": false,
      "t": 36167.24083333339,
      "d": 560.6611666666649,
      "v": 88
    },
    {
      "midi": 64,
      "hit": false,
      "t": 36608.41683333339,
      "d": 45.95583333333343,
      "v": 30
    },
    {
      "midi": 67,
      "hit": false,
      "t": 36608.41683333339,
      "d": 165.4409999999989,
      "v": 56
    },
    {
      "midi": 67,
      "hit": false,
      "t": 37049.59283333339,
      "d": 165.4409999999989,
      "v": 87
    },
    {
      "midi": 73,
      "hit": false,
      "t": 37049.59283333339,
      "d": 514.7053333333315,
      "v": 98
    },
    {
      "midi": 52,
      "hit": false,
      "t": 37049.59283333339,
      "d": 523.8964999999953,
      "v": 74
    },
    {
      "midi": 76,
      "hit": false,
      "t": 37049.59283333339,
      "d": 551.4699999999939,
      "v": 91
    },
    {
      "midi": 64,
      "hit": false,
      "t": 37490.768833333386,
      "d": 45.95583333333343,
      "v": 61
    },
    {
      "midi": 67,
      "hit": false,
      "t": 37499.96000000005,
      "d": 110.29399999999441,
      "v": 60
    },
    {
      "midi": 67,
      "hit": false,
      "t": 37941.13600000004,
      "d": 193.0144999999975,
      "v": 94
    },
    {
      "midi": 73,
      "hit": false,
      "t": 37941.13600000004,
      "d": 477.94066666666185,
      "v": 96
    },
    {
      "midi": 76,
      "hit": false,
      "t": 37941.13600000004,
      "d": 505.51416666666046,
      "v": 95
    },
    {
      "midi": 52,
      "hit": false,
      "t": 38373.12083333337,
      "d": 110.29400000000169,
      "v": 71
    },
    {
      "midi": 67,
      "hit": false,
      "t": 38382.312000000034,
      "d": 45.95583333333343,
      "v": 77
    },
    {
      "midi": 78,
      "hit": false,
      "t": 38814.29683333337,
      "d": 395.22016666666605,
      "v": 100
    },
    {
      "midi": 74,
      "hit": false,
      "t": 38814.29683333337,
      "d": 459.558333333327,
      "v": 99
    },
    {
      "midi": 50,
      "hit": false,
      "t": 38814.29683333337,
      "d": 1461.3954999999914,
      "v": 90
    },
    {
      "midi": 69,
      "hit": false,
      "t": 38823.488000000034,
      "d": 496.3229999999967,
      "v": 84
    },
    {
      "midi": 62,
      "hit": false,
      "t": 39264.66400000003,
      "d": 110.29399999999441,
      "v": 42
    },
    {
      "midi": 78,
      "hit": false,
      "t": 39696.64883333336,
      "d": 165.4409999999989,
      "v": 101
    },
    {
      "midi": 74,
      "hit": false,
      "t": 39705.840000000026,
      "d": 174.63216666666995,
      "v": 94
    },
    {
      "midi": 69,
      "hit": false,
      "t": 39705.840000000026,
      "d": 183.82333333333372,
      "v": 84
    },
    {
      "midi": 57,
      "hit": false,
      "t": 39705.840000000026,
      "d": 386.02900000000227,
      "v": 68
    },
    {
      "midi": 62,
      "hit": false,
      "t": 40147.016000000025,
      "d": 395.2201666666733,
      "v": 40
    },
    {
      "midi": 74,
      "hit": false,
      "t": 40579.00083333337,
      "d": 615.8081666666621,
      "v": 96
    },
    {
      "midi": 69,
      "hit": false,
      "t": 40588.19200000003,
      "d": 477.94066666666913,
      "v": 88
    },
    {
      "midi": 66,
      "hit": false,
      "t": 40588.19200000003,
      "d": 533.0876666666663,
      "v": 93
    },
    {
      "midi": 50,
      "hit": false,
      "t": 40588.19200000003,
      "d": 1341.9103333333333,
      "v": 81
    },
    {
      "midi": 62,
      "hit": false,
      "t": 41029.36800000003,
      "d": 202.20566666666855,
      "v": 29
    },
    {
      "midi": 66,
      "hit": false,
      "t": 41470.54400000003,
      "d": 220.58800000000338,
      "v": 96
    },
    {
      "midi": 57,
      "hit": false,
      "t": 41470.54400000003,
      "d": 459.5583333333343,
      "v": 57
    },
    {
      "midi": 69,
      "hit": false,
      "t": 41470.54400000003,
      "d": 477.94066666666913,
      "v": 89
    },
    {
      "midi": 74,
      "hit": false,
      "t": 41470.54400000003,
      "d": 560.6611666666722,
      "v": 97
    },
    {
      "midi": 67,
      "hit": false,
      "t": 41691.132000000034,
      "d": 229.77916666666715,
      "v": 65
    },
    {
      "midi": 62,
      "hit": false,
      "t": 41911.72000000004,
      "d": 55.146999999997206,
      "v": 43
    },
    {
      "midi": 66,
      "hit": false,
      "t": 41911.72000000004,
      "d": 220.5879999999961,
      "v": 77
    },
    {
      "midi": 67,
      "hit": false,
      "t": 42132.308000000034,
      "d": 119.48516666666546,
      "v": 63
    },
    {
      "midi": 67,
      "hit": false,
      "t": 42352.89600000003,
      "d": 193.0144999999975,
      "v": 73
    },
    {
      "midi": 71,
      "hit": false,
      "t": 42352.89600000003,
      "d": 514.7053333333315,
      "v": 80
    },
    {
      "midi": 76,
      "hit": false,
      "t": 42352.89600000003,
      "d": 523.8964999999953,
      "v": 79
    },
    {
      "midi": 52,
      "hit": false,
      "t": 42352.89600000003,
      "d": 1213.2339999999895,
      "v": 71
    },
    {
      "midi": 67,
      "hit": false,
      "t": 42784.88083333336,
      "d": 211.39683333333232,
      "v": 42
    },
    {
      "midi": 67,
      "hit": false,
      "t": 43226.05683333336,
      "d": 193.0144999999975,
      "v": 82
    },
    {
      "midi": 76,
      "hit": false,
      "t": 43226.05683333336,
      "d": 496.3229999999894,
      "v": 88
    },
    {
      "midi": 71,
      "hit": false,
      "t": 43226.05683333336,
      "d": 551.4699999999866,
      "v": 87
    },
    {
      "midi": 67,
      "hit": false,
      "t": 43667.23283333335,
      "d": 193.0144999999975,
      "v": 40
    },
    {
      "midi": 64,
      "hit": false,
      "t": 43667.23283333335,
      "d": 496.3229999999967,
      "v": 40
    },
    {
      "midi": 67,
      "hit": false,
      "t": 44108.40883333335,
      "d": 156.24983333332784,
      "v": 80
    },
    {
      "midi": 76,
      "hit": false,
      "t": 44108.40883333335,
      "d": 450.367166666656,
      "v": 87
    },
    {
      "midi": 71,
      "hit": false,
      "t": 44108.40883333335,
      "d": 569.8523333333214,
      "v": 87
    },
    {
      "midi": 52,
      "hit": false,
      "t": 44108.40883333335,
      "d": 1415.439666666658,
      "v": 83
    },
    {
      "midi": 67,
      "hit": false,
      "t": 44549.58483333334,
      "d": 193.0144999999975,
      "v": 54
    },
    {
      "midi": 67,
      "hit": false,
      "t": 44999.952000000005,
      "d": 321.690833333334,
      "v": 90
    },
    {
      "midi": 78,
      "hit": false,
      "t": 44999.952000000005,
      "d": 533.0876666666663,
      "v": 100
    },
    {
      "midi": 64,
      "hit": false,
      "t": 44999.952000000005,
      "d": 551.4700000000012,
      "v": 73
    },
    {
      "midi": 76,
      "hit": false,
      "t": 45220.54000000001,
      "d": 413.6025000000009,
      "v": 86
    },
    {
      "midi": 71,
      "hit": false,
      "t": 45441.128000000004,
      "d": 294.1173333333427,
      "v": 100
    },
    {
      "midi": 67,
      "hit": false,
      "t": 45652.524833333344,
      "d": 193.01450000000477,
      "v": 91
    },
    {
      "midi": 76,
      "hit": false,
      "t": 45873.11283333335,
      "d": 634.190499999997,
      "v": 101
    },
    {
      "midi": 67,
      "hit": false,
      "t": 45882.30400000001,
      "d": 193.0144999999975,
      "v": 93
    },
    {
      "midi": 60,
      "hit": false,
      "t": 45882.30400000001,
      "d": 413.6025000000009,
      "v": 92
    },
    {
      "midi": 72,
      "hit": false,
      "t": 45882.30400000001,
      "d": 652.5728333333318,
      "v": 98
    },
    {
      "midi": 48,
      "hit": false,
      "t": 45882.30400000001,
      "d": 3005.511499999986,
      "v": 94
    },
    {
      "midi": 67,
      "hit": false,
      "t": 46323.48000000001,
      "d": 202.20566666666855,
      "v": 46
    },
    {
      "midi": 67,
      "hit": false,
      "t": 46755.464833333346,
      "d": 156.24983333333512,
      "v": 88
    },
    {
      "midi": 60,
      "hit": false,
      "t": 46755.464833333346,
      "d": 229.77916666666715,
      "v": 89
    },
    {
      "midi": 76,
      "hit": false,
      "t": 46755.464833333346,
      "d": 330.8819999999978,
      "v": 94
    },
    {
      "midi": 72,
      "hit": false,
      "t": 46755.464833333346,
      "d": 551.4699999999939,
      "v": 98
    },
    {
      "midi": 67,
      "hit": false,
      "t": 47205.83200000001,
      "d": 55.146999999997206,
      "v": 69
    },
    {
      "midi": 67,
      "hit": false,
      "t": 47417.22883333334,
      "d": 91.91166666666686,
      "v": 105
    },
    {
      "midi": 72,
      "hit": false,
      "t": 47426.420000000006,
      "d": 82.72050000000309,
      "v": 97
    },
    {
      "midi": 76,
      "hit": false,
      "t": 47426.420000000006,
      "d": 91.91166666666686,
      "v": 91
    },
    {
      "midi": 79,
      "hit": false,
      "t": 47426.420000000006,
      "d": 101.10283333333064,
      "v": 93
    },
    {
      "midi": 60,
      "hit": false,
      "t": 47637.81683333334,
      "d": 183.82333333333372,
      "v": 98
    },
    {
      "midi": 79,
      "hit": false,
      "t": 47637.81683333334,
      "d": 551.4700000000012,
      "v": 110
    },
    {
      "midi": 76,
      "hit": false,
      "t": 47637.81683333334,
      "d": 606.6169999999984,
      "v": 100
    },
    {
      "midi": 72,
      "hit": false,
      "t": 47637.81683333334,
      "d": 772.05799999999,
      "v": 104
    },
    {
      "midi": 67,
      "hit": false,
      "t": 47637.81683333334,
      "d": 808.8226666666596,
      "v": 113
    },
    {
      "midi": 79,
      "hit": false,
      "t": 48299.58083333333,
      "d": 73.52933333333203,
      "v": 105
    },
    {
      "midi": 88,
      "hit": false,
      "t": 48299.58083333333,
      "d": 82.72049999999581,
      "v": 97
    },
    {
      "midi": 91,
      "hit": false,
      "t": 48299.58083333333,
      "d": 101.10283333333064,
      "v": 105
    },
    {
      "midi": 84,
      "hit": false,
      "t": 48308.772,
      "d": 73.52933333333203,
      "v": 95
    },
    {
      "midi": 60,
      "hit": false,
      "t": 48520.16883333333,
      "d": 101.10283333333064,
      "v": 87
    },
    {
      "midi": 88,
      "hit": false,
      "t": 48520.16883333333,
      "d": 863.9696666666714,
      "v": 104
    },
    {
      "midi": 79,
      "hit": false,
      "t": 48520.16883333333,
      "d": 882.3520000000062,
      "v": 118
    },
    {
      "midi": 84,
      "hit": false,
      "t": 48520.16883333333,
      "d": 882.3520000000062,
      "v": 108
    },
    {
      "midi": 91,
      "hit": false,
      "t": 48520.16883333333,
      "d": 882.3520000000062,
      "v": 115
    },
    {
      "midi": 50,
      "hit": false,
      "t": 48970.536,
      "d": 441.1759999999995,
      "v": 73
    },
    {
      "midi": 71,
      "hit": false,
      "t": 49402.520833333336,
      "d": 661.7639999999956,
      "v": 101
    },
    {
      "midi": 67,
      "hit": false,
      "t": 49402.520833333336,
      "d": 680.1463333333304,
      "v": 94
    },
    {
      "midi": 74,
      "hit": false,
      "t": 49402.520833333336,
      "d": 689.3374999999942,
      "v": 102
    },
    {
      "midi": 55,
      "hit": false,
      "t": 49402.520833333336,
      "d": 983.4548333333296,
      "v": 99
    },
    {
      "midi": 67,
      "hit": false,
      "t": 50294.064,
      "d": 468.7494999999981,
      "v": 102
    },
    {
      "midi": 71,
      "hit": false,
      "t": 50294.064,
      "d": 588.2346666666635,
      "v": 103
    },
    {
      "midi": 74,
      "hit": false,
      "t": 50294.064,
      "d": 597.4258333333273,
      "v": 109
    },
    {
      "midi": 55,
      "hit": false,
      "t": 50735.24,
      "d": 431.9848333333284,
      "v": 72
    },
    {
      "midi": 65,
      "hit": false,
      "t": 51176.41599999999,
      "d": 652.5728333333318,
      "v": 99
    },
    {
      "midi": 69,
      "hit": false,
      "t": 51176.41599999999,
      "d": 661.7639999999956,
      "v": 97
    },
    {
      "midi": 74,
      "hit": false,
      "t": 51176.41599999999,
      "d": 689.3374999999942,
      "v": 108
    },
    {
      "midi": 53,
      "hit": false,
      "t": 51176.41599999999,
      "d": 946.6901666666599,
      "v": 97
    },
    {
      "midi": 69,
      "hit": false,
      "t": 52058.76799999998,
      "d": 542.2788333333301,
      "v": 94
    },
    {
      "midi": 74,
      "hit": false,
      "t": 52058.76799999998,
      "d": 569.8523333333287,
      "v": 105
    },
    {
      "midi": 65,
      "hit": false,
      "t": 52058.76799999998,
      "d": 597.4258333333273,
      "v": 99
    },
    {
      "midi": 53,
      "hit": false,
      "t": 52499.94399999998,
      "d": 413.6024999999936,
      "v": 63
    },
    {
      "midi": 74,
      "hit": false,
      "t": 52931.92883333331,
      "d": 726.1021666666638,
      "v": 108
    },
    {
      "midi": 64,
      "hit": false,
      "t": 52941.11999999997,
      "d": 634.190499999997,
      "v": 98
    },
    {
      "midi": 67,
      "hit": false,
      "t": 52941.11999999997,
      "d": 652.5728333333318,
      "v": 96
    },
    {
      "midi": 48,
      "hit": false,
      "t": 52941.11999999997,
      "d": 1001.8371666666644,
      "v": 96
    },
    {
      "midi": 64,
      "hit": false,
      "t": 53823.47199999997,
      "d": 229.77916666666715,
      "v": 91
    },
    {
      "midi": 67,
      "hit": false,
      "t": 53823.47199999997,
      "d": 238.97033333333093,
      "v": 91
    },
    {
      "midi": 74,
      "hit": false,
      "t": 53823.47199999997,
      "d": 312.49966666666296,
      "v": 103
    },
    {
      "midi": 48,
      "hit": false,
      "t": 54264.64799999997,
      "d": 174.63216666666995,
      "v": 68
    },
    {
      "midi": 67,
      "hit": false,
      "t": 54705.82399999998,
      "d": 193.0144999999975,
      "v": 87
    },
    {
      "midi": 72,
      "hit": false,
      "t": 54705.82399999998,
      "d": 202.20566666666127,
      "v": 91
    },
    {
      "midi": 79,
      "hit": false,
      "t": 54705.82399999998,
      "d": 229.77916666665988,
      "v": 97
    },
    {
      "midi": 76,
      "hit": false,
      "t": 54705.82399999998,
      "d": 238.97033333332365,
      "v": 81
    },
    {
      "midi": 60,
      "hit": false,
      "t": 54705.82399999998,
      "d": 533.0876666666591,
      "v": 89
    },
    {
      "midi": 48,
      "hit": false,
      "t": 54705.82399999998,
      "d": 1323.5280000000057,
      "v": 92
    },
    {
      "midi": 72,
      "hit": false,
      "t": 55146.99999999997,
      "d": 257.35266666667303,
      "v": 93
    },
    {
      "midi": 76,
      "hit": false,
      "t": 55146.99999999997,
      "d": 358.45550000000367,
      "v": 90
    },
    {
      "midi": 79,
      "hit": false,
      "t": 55146.99999999997,
      "d": 505.514166666675,
      "v": 105
    },
    {
      "midi": 67,
      "hit": false,
      "t": 55367.587999999974,
      "d": 312.49966666667024,
      "v": 86
    },
    {
      "midi": 72,
      "hit": false,
      "t": 55588.17599999998,
      "d": 643.381666666668,
      "v": 101
    },
    {
      "midi": 79,
      "hit": false,
      "t": 55808.76399999998,
      "d": 367.64666666666744,
      "v": 102
    },
    {
      "midi": 76,
      "hit": false,
      "t": 55808.76399999998,
      "d": 422.79366666666465,
      "v": 93
    },
    {
      "midi": 60,
      "hit": false,
      "t": 56029.351999999984,
      "d": 220.58799999998882,
      "v": 70
    },
    {
      "midi": 67,
      "hit": false,
      "t": 56240.74883333331,
      "d": 119.48516666666546,
      "v": 63
    },
    {
      "midi": 67,
      "hit": false,
      "t": 56461.336833333306,
      "d": 606.6169999999984,
      "v": 98
    },
    {
      "midi": 71,
      "hit": false,
      "t": 56461.336833333306,
      "d": 624.9993333333332,
      "v": 100
    },
    {
      "midi": 74,
      "hit": false,
      "t": 56461.336833333306,
      "d": 634.190499999997,
      "v": 107
    },
    {
      "midi": 55,
      "hit": false,
      "t": 56461.336833333306,
      "d": 919.1166666666686,
      "v": 97
    },
    {
      "midi": 67,
      "hit": false,
      "t": 57343.688833333305,
      "d": 624.9993333333405,
      "v": 102
    },
    {
      "midi": 71,
      "hit": false,
      "t": 57343.688833333305,
      "d": 624.9993333333405,
      "v": 104
    },
    {
      "midi": 74,
      "hit": false,
      "t": 57343.688833333305,
      "d": 624.9993333333405,
      "v": 113
    },
    {
      "midi": 55,
      "hit": false,
      "t": 57794.055999999975,
      "d": 395.2201666666733,
      "v": 61
    },
    {
      "midi": 65,
      "hit": false,
      "t": 58235.23199999998,
      "d": 533.0876666666663,
      "v": 100
    },
    {
      "midi": 69,
      "hit": false,
      "t": 58235.23199999998,
      "d": 560.6611666666649,
      "v": 100
    },
    {
      "midi": 74,
      "hit": false,
      "t": 58235.23199999998,
      "d": 569.8523333333287,
      "v": 107
    },
    {
      "midi": 53,
      "hit": false,
      "t": 58235.23199999998,
      "d": 937.4989999999962,
      "v": 91
    },
    {
      "midi": 65,
      "hit": false,
      "t": 59117.58399999998,
      "d": 431.9848333333284,
      "v": 101
    },
    {
      "midi": 69,
      "hit": false,
      "t": 59117.58399999998,
      "d": 468.7494999999908,
      "v": 102
    },
    {
      "midi": 74,
      "hit": false,
      "t": 59117.58399999998,
      "d": 496.3229999999894,
      "v": 110
    },
    {
      "midi": 53,
      "hit": false,
      "t": 59558.75999999997,
      "d": 165.4409999999989,
      "v": 86
    },
    {
      "midi": 65,
      "hit": false,
      "t": 59999.93599999997,
      "d": 284.92616666666436,
      "v": 104
    },
    {
      "midi": 74,
      "hit": false,
      "t": 59999.93599999997,
      "d": 376.8378333333312,
      "v": 110
    },
    {
      "midi": 70,
      "hit": false,
      "t": 59999.93599999997,
      "d": 395.22016666666605,
      "v": 105
    },
    {
      "midi": 58,
      "hit": false,
      "t": 59999.93599999997,
      "d": 431.9848333333357,
      "v": 103
    },
    {
      "midi": 46,
      "hit": false,
      "t": 59999.93599999997,
      "d": 3244.481833333346,
      "v": 107
    },
    {
      "midi": 72,
      "hit": false,
      "t": 60882.28799999997,
      "d": 358.45550000000367,
      "v": 107
    },
    {
      "midi": 77,
      "hit": false,
      "t": 60882.28799999997,
      "d": 376.8378333333385,
      "v": 107
    },
    {
      "midi": 58,
      "hit": false,
      "t": 60882.28799999997,
      "d": 514.7053333333388,
      "v": 100
    },
    {
      "midi": 74,
      "hit": false,
      "t": 61102.875999999975,
      "d": 358.45550000000367,
      "v": 90
    },
    {
      "midi": 70,
      "hit": false,
      "t": 61323.46399999998,
      "d": 202.20566666666855,
      "v": 98
    },
    {
      "midi": 77,
      "hit": false,
      "t": 61764.63999999998,
      "d": 376.8378333333385,
      "v": 104
    },
    {
      "midi": 58,
      "hit": false,
      "t": 61764.63999999998,
      "d": 441.17600000000675,
      "v": 104
    },
    {
      "midi": 72,
      "hit": false,
      "t": 61764.63999999998,
      "d": 514.7053333333388,
      "v": 108
    },
    {
      "midi": 74,
      "hit": false,
      "t": 61985.22799999998,
      "d": 340.07316666666884,
      "v": 87
    },
    {
      "midi": 70,
      "hit": false,
      "t": 62205.815999999984,
      "d": 193.0144999999975,
      "v": 98
    },
    {
      "midi": 72,
      "hit": false,
      "t": 62646.991999999984,
      "d": 487.1318333333402,
      "v": 107
    },
    {
      "midi": 58,
      "hit": false,
      "t": 62646.991999999984,
      "d": 496.32300000000396,
      "v": 105
    },
    {
      "midi": 77,
      "hit": false,
      "t": 62646.991999999984,
      "d": 744.4845000000059,
      "v": 103
    },
    {
      "midi": 74,
      "hit": false,
      "t": 62867.57999999999,
      "d": 459.5583333333343,
      "v": 90
    },
    {
      "midi": 70,
      "hit": false,
      "t": 63088.16799999999,
      "d": 238.97033333333093,
      "v": 106
    },
    {
      "midi": 55,
      "hit": false,
      "t": 63529.34399999999,
      "d": 110.29400000000169,
      "v": 87
    },
    {
      "midi": 71,
      "hit": false,
      "t": 63529.34399999999,
      "d": 229.77916666666715,
      "v": 89
    },
    {
      "midi": 67,
      "hit": false,
      "t": 63529.34399999999,
      "d": 569.852333333336,
      "v": 79
    },
    {
      "midi": 79,
      "hit": false,
      "t": 63529.34399999999,
      "d": 661.7640000000029,
      "v": 98
    },
    {
      "midi": 74,
      "hit": false,
      "t": 63529.34399999999,
      "d": 680.1463333333377,
      "v": 87
    },
    {
      "midi": 55,
      "hit": false,
      "t": 63749.93199999999,
      "d": 101.10283333333064,
      "v": 28
    },
    {
      "midi": 62,
      "hit": false,
      "t": 63749.93199999999,
      "d": 1277.5721666666795,
      "v": 16
    },
    {
      "midi": 71,
      "hit": false,
      "t": 63970.51999999999,
      "d": 156.24983333333512,
      "v": 21
    },
    {
      "midi": 55,
      "hit": false,
      "t": 63970.51999999999,
      "d": 1038.6018333333486,
      "v": 10
    },
    {
      "midi": 71,
      "hit": false,
      "t": 64411.695999999996,
      "d": 275.7350000000006,
      "v": 74
    },
    {
      "midi": 79,
      "hit": false,
      "t": 64411.695999999996,
      "d": 294.1173333333354,
      "v": 87
    },
    {
      "midi": 67,
      "hit": false,
      "t": 64411.695999999996,
      "d": 312.49966666667024,
      "v": 56
    },
    {
      "midi": 74,
      "hit": false,
      "t": 64411.695999999996,
      "d": 670.9551666666739,
      "v": 84
    },
    {
      "midi": 81,
      "hit": false,
      "t": 64632.284,
      "d": 183.82333333333372,
      "v": 78
    },
    {
      "midi": 79,
      "hit": false,
      "t": 64852.872,
      "d": 220.58800000000338,
      "v": 67
    },
    {
      "midi": 83,
      "hit": false,
      "t": 64852.872,
      "d": 413.6025000000009,
      "v": 77
    },
    {
      "midi": 71,
      "hit": false,
      "t": 64852.872,
      "d": 689.3374999999942,
      "v": 73
    },
    {
      "midi": 66,
      "hit": false,
      "t": 65294.048,
      "d": 487.13183333332563,
      "v": 63
    },
    {
      "midi": 74,
      "hit": false,
      "t": 65294.048,
      "d": 615.8081666666621,
      "v": 89
    },
    {
      "midi": 79,
      "hit": false,
      "t": 65294.048,
      "d": 615.8081666666621,
      "v": 89
    },
    {
      "midi": 54,
      "hit": false,
      "t": 65294.048,
      "d": 928.3078333333178,
      "v": 63
    },
    {
      "midi": 71,
      "hit": false,
      "t": 65735.224,
      "d": 174.63216666666267,
      "v": 35
    },
    {
      "midi": 74,
      "hit": false,
      "t": 66176.4,
      "d": 128.67633333332196,
      "v": 92
    },
    {
      "midi": 71,
      "hit": false,
      "t": 66176.4,
      "d": 284.9261666666571,
      "v": 84
    },
    {
      "midi": 79,
      "hit": false,
      "t": 66176.4,
      "d": 284.9261666666571,
      "v": 88
    },
    {
      "midi": 66,
      "hit": false,
      "t": 66176.4,
      "d": 404.41133333332255,
      "v": 70
    },
    {
      "midi": 67,
      "hit": false,
      "t": 66176.4,
      "d": 597.4258333333273,
      "v": 54
    },
    {
      "midi": 81,
      "hit": false,
      "t": 66396.98799999998,
      "d": 193.01450000000477,
      "v": 73
    },
    {
      "midi": 79,
      "hit": false,
      "t": 66617.57599999999,
      "d": 275.7350000000006,
      "v": 75
    },
    {
      "midi": 71,
      "hit": false,
      "t": 66617.57599999999,
      "d": 330.8819999999978,
      "v": 73
    },
    {
      "midi": 83,
      "hit": false,
      "t": 66617.57599999999,
      "d": 349.26433333332534,
      "v": 75
    },
    {
      "midi": 54,
      "hit": false,
      "t": 66819.78166666665,
      "d": 64.33816666666826,
      "v": 29
    },
    {
      "midi": 76,
      "hit": false,
      "t": 67049.56083333331,
      "d": 753.675666666677,
      "v": 67
    },
    {
      "midi": 79,
      "hit": false,
      "t": 67049.56083333331,
      "d": 1001.8371666666644,
      "v": 75
    },
    {
      "midi": 64,
      "hit": false,
      "t": 67058.75199999998,
      "d": 652.5728333333391,
      "v": 74
    },
    {
      "midi": 83,
      "hit": false,
      "t": 67058.75199999998,
      "d": 772.0580000000045,
      "v": 73
    },
    {
      "midi": 88,
      "hit": false,
      "t": 67058.75199999998,
      "d": 1093.7488333333167,
      "v": 101
    },
    {
      "midi": 52,
      "hit": false,
      "t": 67067.94316666665,
      "d": 1066.1753333333181,
      "v": 80
    },
    {
      "midi": 76,
      "hit": false,
      "t": 67941.10399999998,
      "d": 542.2788333333301,
      "v": 84
    },
    {
      "midi": 83,
      "hit": false,
      "t": 67941.10399999998,
      "d": 680.1463333333231,
      "v": 89
    },
    {
      "midi": 79,
      "hit": false,
      "t": 68161.69199999997,
      "d": 294.1173333333427,
      "v": 63
    },
    {
      "midi": 71,
      "hit": false,
      "t": 68382.27999999997,
      "d": 983.4548333333369,
      "v": 84
    },
    {
      "midi": 76,
      "hit": false,
      "t": 68823.45599999996,
      "d": 533.0876666666736,
      "v": 73
    },
    {
      "midi": 79,
      "hit": false,
      "t": 68823.45599999996,
      "d": 542.2788333333447,
      "v": 81
    },
    {
      "midi": 76,
      "hit": false,
      "t": 69705.80799999998,
      "d": 229.77916666667443,
      "v": 105
    },
    {
      "midi": 79,
      "hit": false,
      "t": 69705.80799999998,
      "d": 284.92616666667163,
      "v": 104
    },
    {
      "midi": 74,
      "hit": false,
      "t": 69926.39599999998,
      "d": 441.17600000000675,
      "v": 95
    },
    {
      "midi": 77,
      "hit": false,
      "t": 69926.39599999998,
      "d": 450.3671666666778,
      "v": 85
    },
    {
      "midi": 67,
      "hit": false,
      "t": 70588.15999999999,
      "d": 266.54383333332953,
      "v": 101
    },
    {
      "midi": 74,
      "hit": false,
      "t": 70588.15999999999,
      "d": 413.6024999999936,
      "v": 104
    },
    {
      "midi": 60,
      "hit": false,
      "t": 70588.15999999999,
      "d": 468.7494999999908,
      "v": 97
    },
    {
      "midi": 79,
      "hit": false,
      "t": 70588.15999999999,
      "d": 496.3229999999894,
      "v": 107
    },
    {
      "midi": 48,
      "hit": false,
      "t": 70588.15999999999,
      "d": 1498.1601666666684,
      "v": 99
    },
    {
      "midi": 76,
      "hit": false,
      "t": 70808.74799999999,
      "d": 303.30849999998463,
      "v": 69
    },
    {
      "midi": 67,
      "hit": false,
      "t": 71029.33599999998,
      "d": 156.24983333333512,
      "v": 60
    },
    {
      "midi": 67,
      "hit": false,
      "t": 71470.51199999999,
      "d": 165.44100000000617,
      "v": 75
    },
    {
      "midi": 64,
      "hit": false,
      "t": 71470.51199999999,
      "d": 275.7350000000006,
      "v": 94
    },
    {
      "midi": 60,
      "hit": false,
      "t": 71470.51199999999,
      "d": 459.5583333333343,
      "v": 100
    },
    {
      "midi": 72,
      "hit": false,
      "t": 71470.51199999999,
      "d": 551.4700000000012,
      "v": 98
    },
    {
      "midi": 67,
      "hit": false,
      "t": 71691.09999999999,
      "d": 248.16150000000198,
      "v": 75
    },
    {
      "midi": 64,
      "hit": false,
      "t": 71911.688,
      "d": 174.63216666666267,
      "v": 57
    },
    {
      "midi": 60,
      "hit": false,
      "t": 72132.27599999998,
      "d": 193.01450000000477,
      "v": 89
    },
    {
      "midi": 62,
      "hit": false,
      "t": 72352.86399999999,
      "d": 643.381666666668,
      "v": 68
    },
    {
      "midi": 67,
      "hit": false,
      "t": 72352.86399999999,
      "d": 680.1463333333377,
      "v": 69
    },
    {
      "midi": 71,
      "hit": false,
      "t": 72352.86399999999,
      "d": 1213.2339999999967,
      "v": 100
    },
    {
      "midi": 55,
      "hit": false,
      "t": 72352.86399999999,
      "d": 3970.583999999959,
      "v": 93
    },
    {
      "midi": 67,
      "hit": false,
      "t": 73235.21599999999,
      "d": 248.16150000000198,
      "v": 96
    },
    {
      "midi": 62,
      "hit": false,
      "t": 73235.21599999999,
      "d": 533.0876666666591,
      "v": 47
    },
    {
      "midi": 69,
      "hit": false,
      "t": 73455.80399999999,
      "d": 220.58799999998882,
      "v": 30
    },
    {
      "midi": 71,
      "hit": false,
      "t": 73676.39199999998,
      "d": 238.97033333333093,
      "v": 51
    },
    {
      "midi": 67,
      "hit": false,
      "t": 73896.97999999998,
      "d": 266.543833333315,
      "v": 46
    },
    {
      "midi": 69,
      "hit": false,
      "t": 74117.56799999997,
      "d": 266.543833333315,
      "v": 94
    },
    {
      "midi": 62,
      "hit": false,
      "t": 74117.56799999997,
      "d": 588.2346666666417,
      "v": 49
    },
    {
      "midi": 71,
      "hit": false,
      "t": 74338.15599999996,
      "d": 248.16149999998743,
      "v": 66
    },
    {
      "midi": 67,
      "hit": false,
      "t": 74558.74399999995,
      "d": 147.05866666666407,
      "v": 64
    },
    {
      "midi": 79,
      "hit": false,
      "t": 74558.74399999995,
      "d": 514.7053333333461,
      "v": 107
    },
    {
      "midi": 71,
      "hit": false,
      "t": 74779.33199999995,
      "d": 395.2201666666806,
      "v": 86
    },
    {
      "midi": 74,
      "hit": false,
      "t": 74999.91999999995,
      "d": 275.7350000000006,
      "v": 87
    },
    {
      "midi": 62,
      "hit": false,
      "t": 74999.91999999995,
      "d": 523.8965000000026,
      "v": 64
    },
    {
      "midi": 67,
      "hit": false,
      "t": 74999.91999999995,
      "d": 560.6611666666722,
      "v": 71
    },
    {
      "midi": 81,
      "hit": false,
      "t": 75220.50799999996,
      "d": 441.17600000000675,
      "v": 104
    },
    {
      "midi": 71,
      "hit": false,
      "t": 75441.09599999996,
      "d": 330.8819999999978,
      "v": 91
    },
    {
      "midi": 74,
      "hit": false,
      "t": 75624.9193333333,
      "d": 165.44099999999162,
      "v": 89
    },
    {
      "midi": 71,
      "hit": false,
      "t": 75873.08083333328,
      "d": 257.3526666666585,
      "v": 74
    },
    {
      "midi": 79,
      "hit": false,
      "t": 75873.08083333328,
      "d": 560.6611666666722,
      "v": 80
    },
    {
      "midi": 67,
      "hit": false,
      "t": 75873.08083333328,
      "d": 634.1905000000115,
      "v": 68
    },
    {
      "midi": 62,
      "hit": false,
      "t": 75882.27199999995,
      "d": 542.2788333333301,
      "v": 66
    },
    {
      "midi": 83,
      "hit": false,
      "t": 75882.27199999995,
      "d": 551.4700000000012,
      "v": 113
    },
    {
      "midi": 55,
      "hit": false,
      "t": 75882.27200000001,
      "d": 487.1318333333329,
      "v": 85
    },
    {
      "midi": 43,
      "hit": false,
      "t": 75882.27200000001,
      "d": 1369.4838333333319,
      "v": 90
    },
    {
      "midi": 62,
      "hit": false,
      "t": 75882.27200000001,
      "d": 1452.2043333333277,
      "v": 98
    },
    {
      "midi": 67,
      "hit": false,
      "t": 75882.27200000001,
      "d": 1544.1159999999945,
      "v": 95
    },
    {
      "midi": 74,
      "hit": false,
      "t": 75900.65433333328,
      "d": 330.8819999999978,
      "v": 77
    },
    {
      "midi": 71,
      "hit": false,
      "t": 76764.62399999997,
      "d": 128.67633333333652,
      "v": 78
    },
    {
      "midi": 67,
      "hit": false,
      "t": 76764.62399999997,
      "d": 312.49966666667024,
      "v": 67
    },
    {
      "midi": 79,
      "hit": false,
      "t": 76764.62399999997,
      "d": 431.9848333333357,
      "v": 85
    },
    {
      "midi": 74,
      "hit": false,
      "t": 76764.62399999997,
      "d": 459.5583333333343,
      "v": 76
    },
    {
      "midi": 59,
      "hit": false,
      "t": 76764.62400000001,
      "d": 147.05866666666407,
      "v": 58
    },
    {
      "midi": 55,
      "hit": false,
      "t": 76764.62400000001,
      "d": 229.77916666665988,
      "v": 66
    },
    {
      "midi": 71,
      "hit": false,
      "t": 77205.79999999997,
      "d": 73.52933333332476,
      "v": 46
    },
    {
      "midi": 69,
      "hit": false,
      "t": 77646.97599999997,
      "d": 284.92616666667163,
      "v": 96
    },
    {
      "midi": 64,
      "hit": false,
      "t": 77646.97599999997,
      "d": 560.6611666666722,
      "v": 83
    },
    {
      "midi": 76,
      "hit": false,
      "t": 77646.97599999997,
      "d": 689.3375000000087,
      "v": 81
    },
    {
      "midi": 59,
      "hit": false,
      "t": 77646.97600000001,
      "d": 487.1318333333329,
      "v": 89
    },
    {
      "midi": 52,
      "hit": false,
      "t": 77646.97600000001,
      "d": 533.0876666666591,
      "v": 84
    },
    {
      "midi": 64,
      "hit": false,
      "t": 77646.97600000001,
      "d": 1102.9400000000023,
      "v": 87
    },
    {
      "midi": 40,
      "hit": false,
      "t": 77646.97600000001,
      "d": 1378.675000000003,
      "v": 88
    },
    {
      "midi": 67,
      "hit": false,
      "t": 77646.97600000001,
      "d": 1452.2043333333422,
      "v": 94
    },
    {
      "midi": 71,
      "hit": false,
      "t": 77867.56399999997,
      "d": 238.97033333333093,
      "v": 72
    },
    {
      "midi": 67,
      "hit": false,
      "t": 78088.15199999997,
      "d": 330.8819999999978,
      "v": 73
    },
    {
      "midi": 67,
      "hit": false,
      "t": 78529.32799999996,
      "d": 119.48516666666546,
      "v": 35
    },
    {
      "midi": 64,
      "hit": false,
      "t": 78529.32799999996,
      "d": 523.896499999988,
      "v": 81
    },
    {
      "midi": 71,
      "hit": false,
      "t": 78529.32799999996,
      "d": 533.0876666666591,
      "v": 96
    },
    {
      "midi": 76,
      "hit": false,
      "t": 78529.32799999996,
      "d": 560.6611666666577,
      "v": 91
    },
    {
      "midi": 52,
      "hit": false,
      "t": 78529.32800000001,
      "d": 312.49966666667024,
      "v": 57
    },
    {
      "midi": 59,
      "hit": false,
      "t": 78529.32800000001,
      "d": 459.5583333333343,
      "v": 59
    },
    {
      "midi": 67,
      "hit": false,
      "t": 78970.50399999996,
      "d": 238.97033333333093,
      "v": 55
    },
    {
      "midi": 74,
      "hit": false,
      "t": 79402.4888333333,
      "d": 505.514166666675,
      "v": 95
    },
    {
      "midi": 78,
      "hit": false,
      "t": 79402.4888333333,
      "d": 560.6611666666722,
      "v": 97
    },
    {
      "midi": 62,
      "hit": false,
      "t": 79411.67999999996,
      "d": 560.6611666666722,
      "v": 77
    },
    {
      "midi": 50,
      "hit": false,
      "t": 79411.67999999996,
      "d": 3529.407999999952,
      "v": 85
    },
    {
      "midi": 66,
      "hit": false,
      "t": 79411.68000000002,
      "d": 330.8819999999978,
      "v": 97
    },
    {
      "midi": 62,
      "hit": false,
      "t": 79411.68000000002,
      "d": 376.83783333332394,
      "v": 93
    },
    {
      "midi": 50,
      "hit": false,
      "t": 79411.68000000002,
      "d": 468.7494999999908,
      "v": 89
    },
    {
      "midi": 38,
      "hit": false,
      "t": 79411.68000000002,
      "d": 3281.246499999994,
      "v": 91
    },
    {
      "midi": 62,
      "hit": false,
      "t": 80294.03199999996,
      "d": 459.5583333333343,
      "v": 78
    },
    {
      "midi": 66,
      "hit": false,
      "t": 80294.03199999996,
      "d": 753.6756666666624,
      "v": 87
    },
    {
      "midi": 74,
      "hit": false,
      "t": 80294.03199999996,
      "d": 836.3961666666582,
      "v": 89
    },
    {
      "midi": 78,
      "hit": false,
      "t": 80294.03199999996,
      "d": 1185.6604999999836,
      "v": 91
    },
    {
      "midi": 50,
      "hit": false,
      "t": 80294.032,
      "d": 367.64666666666744,
      "v": 78
    },
    {
      "midi": 66,
      "hit": false,
      "t": 80294.032,
      "d": 2389.7033333333384,
      "v": 103
    },
    {
      "midi": 62,
      "hit": false,
      "t": 80294.032,
      "d": 2435.659166666679,
      "v": 97
    },
    {
      "midi": 69,
      "hit": false,
      "t": 80294.032,
      "d": 2472.4238333333487,
      "v": 102
    },
    {
      "midi": 66,
      "hit": false,
      "t": 81176.38399999995,
      "d": 487.1318333333329,
      "v": 40
    },
    {
      "midi": 62,
      "hit": false,
      "t": 81176.38399999995,
      "d": 569.8523333333287,
      "v": 47
    },
    {
      "midi": 74,
      "hit": false,
      "t": 81608.36883333328,
      "d": 404.41133333332255,
      "v": 104
    },
    {
      "midi": 66,
      "hit": false,
      "t": 81828.95683333327,
      "d": 376.83783333332394,
      "v": 72
    },
    {
      "midi": 69,
      "hit": false,
      "t": 82058.73599999993,
      "d": 238.97033333333093,
      "v": 52
    },
    {
      "midi": 62,
      "hit": false,
      "t": 82058.73599999993,
      "d": 321.69083333332674,
      "v": 61
    },
    {
      "midi": 76,
      "hit": false,
      "t": 82279.32399999994,
      "d": 441.1759999999922,
      "v": 108
    },
    {
      "midi": 62,
      "hit": false,
      "t": 82499.91199999992,
      "d": 110.29399999999441,
      "v": 58
    },
    {
      "midi": 66,
      "hit": false,
      "t": 82711.30883333326,
      "d": 110.29399999999441,
      "v": 10
    },
    {
      "midi": 69,
      "hit": false,
      "t": 82720.49999999993,
      "d": 82.72049999999581,
      "v": 58
    },
    {
      "midi": 78,
      "hit": false,
      "t": 82931.89683333325,
      "d": 946.6901666666818,
      "v": 95
    },
    {
      "midi": 62,
      "hit": false,
      "t": 82931.89683333325,
      "d": 1433.8220000000292,
      "v": 82
    },
    {
      "midi": 69,
      "hit": false,
      "t": 82941.08799999992,
      "d": 404.4113333333371,
      "v": 87
    },
    {
      "midi": 50,
      "hit": false,
      "t": 82941.08800000002,
      "d": 468.7494999999908,
      "v": 81
    },
    {
      "midi": 57,
      "hit": false,
      "t": 82941.08800000002,
      "d": 735.2933333333203,
      "v": 74
    },
    {
      "midi": 38,
      "hit": false,
      "t": 82941.08800000002,
      "d": 3106.6143333333166,
      "v": 86
    },
    {
      "midi": 66,
      "hit": false,
      "t": 82941.08800000002,
      "d": 3226.099499999982,
      "v": 98
    },
    {
      "midi": 62,
      "hit": false,
      "t": 82941.08800000002,
      "d": 3244.4818333333096,
      "v": 88
    },
    {
      "midi": 74,
      "hit": false,
      "t": 83373.07283333325,
      "d": 542.2788333333447,
      "v": 70
    },
    {
      "midi": 69,
      "hit": false,
      "t": 83814.24883333326,
      "d": 762.8668333333335,
      "v": 82
    },
    {
      "midi": 78,
      "hit": false,
      "t": 84264.61599999994,
      "d": 257.3526666666585,
      "v": 89
    },
    {
      "midi": 79,
      "hit": false,
      "t": 84476.01283333327,
      "d": 174.63216666664812,
      "v": 86
    },
    {
      "midi": 57,
      "hit": false,
      "t": 84494.3951666666,
      "d": 119.48516666665091,
      "v": 65
    },
    {
      "midi": 59,
      "hit": false,
      "t": 84521.9686666666,
      "d": 147.05866666666407,
      "v": 81
    },
    {
      "midi": 60,
      "hit": false,
      "t": 84595.49799999992,
      "d": 119.48516666668002,
      "v": 84
    },
    {
      "midi": 61,
      "hit": false,
      "t": 84659.83616666659,
      "d": 91.91166666668141,
      "v": 80
    },
    {
      "midi": 62,
      "hit": false,
      "t": 84696.60083333326,
      "d": 1406.248500000016,
      "v": 99
    },
    {
      "midi": 78,
      "hit": false,
      "t": 84705.79199999993,
      "d": 487.1318333333329,
      "v": 96
    },
    {
      "midi": 81,
      "hit": false,
      "t": 84705.79199999993,
      "d": 533.0876666666591,
      "v": 100
    },
    {
      "midi": 69,
      "hit": false,
      "t": 84917.18883333328,
      "d": 606.6169999999838,
      "v": 79
    },
    {
      "midi": 74,
      "hit": false,
      "t": 85146.96799999994,
      "d": 772.05799999999,
      "v": 80
    },
    {
      "midi": 78,
      "hit": false,
      "t": 85367.55599999992,
      "d": 588.2346666666708,
      "v": 74
    },
    {
      "midi": 83,
      "hit": false,
      "t": 85588.14399999993,
      "d": 275.7350000000006,
      "v": 102
    },
    {
      "midi": 74,
      "hit": false,
      "t": 86029.31999999993,
      "d": 101.10283333333791,
      "v": 60
    },
    {
      "midi": 78,
      "hit": false,
      "t": 86029.31999999993,
      "d": 211.39683333333232,
      "v": 76
    },
    {
      "midi": 81,
      "hit": false,
      "t": 86029.31999999993,
      "d": 266.54383333332953,
      "v": 96
    },
    {
      "midi": 67,
      "hit": false,
      "t": 86461.30483333327,
      "d": 238.97033333333093,
      "v": 79
    },
    {
      "midi": 79,
      "hit": false,
      "t": 86461.30483333327,
      "d": 431.9848333333357,
      "v": 87
    },
    {
      "midi": 64,
      "hit": false,
      "t": 86461.30483333327,
      "d": 597.4258333333273,
      "v": 70
    },
    {
      "midi": 52,
      "hit": false,
      "t": 86461.30483333327,
      "d": 3538.599166666623,
      "v": 80
    },
    {
      "midi": 76,
      "hit": false,
      "t": 86470.49599999994,
      "d": 487.13183333331835,
      "v": 84
    },
    {
      "midi": 64,
      "hit": false,
      "t": 86470.496,
      "d": 2242.6446666666598,
      "v": 91
    },
    {
      "midi": 59,
      "hit": false,
      "t": 86470.496,
      "d": 2261.0269999999873,
      "v": 95
    },
    {
      "midi": 67,
      "hit": false,
      "t": 86470.496,
      "d": 2444.850333333321,
      "v": 94
    },
    {
      "midi": 52,
      "hit": false,
      "t": 86470.496,
      "d": 2591.908999999985,
      "v": 84
    },
    {
      "midi": 40,
      "hit": false,
      "t": 86470.496,
      "d": 3216.9083333333256,
      "v": 92
    },
    {
      "midi": 67,
      "hit": false,
      "t": 86911.67199999993,
      "d": 257.3526666666585,
      "v": 42
    },
    {
      "midi": 67,
      "hit": false,
      "t": 87352.84799999993,
      "d": 110.29399999999441,
      "v": 23
    },
    {
      "midi": 71,
      "hit": false,
      "t": 87352.84799999993,
      "d": 147.05866666666407,
      "v": 79
    },
    {
      "midi": 76,
      "hit": false,
      "t": 87352.84799999993,
      "d": 229.77916666665988,
      "v": 77
    },
    {
      "midi": 64,
      "hit": false,
      "t": 87352.84799999993,
      "d": 606.6169999999984,
      "v": 56
    },
    {
      "midi": 69,
      "hit": false,
      "t": 87794.02399999992,
      "d": 266.54383333332953,
      "v": 81
    },
    {
      "midi": 76,
      "hit": false,
      "t": 87794.02399999992,
      "d": 744.4844999999914,
      "v": 68
    },
    {
      "midi": 71,
      "hit": false,
      "t": 88014.61199999992,
      "d": 238.97033333331638,
      "v": 79
    },
    {
      "midi": 67,
      "hit": false,
      "t": 88235.19999999991,
      "d": 487.1318333333329,
      "v": 86
    },
    {
      "midi": 64,
      "hit": false,
      "t": 88235.19999999991,
      "d": 670.9551666666666,
      "v": 80
    },
    {
      "midi": 71,
      "hit": false,
      "t": 88667.18483333325,
      "d": 303.30849999998463,
      "v": 79
    },
    {
      "midi": 76,
      "hit": false,
      "t": 88896.9639999999,
      "d": 55.146999999997206,
      "v": 66
    },
    {
      "midi": 67,
      "hit": false,
      "t": 89108.36083333322,
      "d": 110.29399999999441,
      "v": 90
    },
    {
      "midi": 76,
      "hit": false,
      "t": 89108.36083333322,
      "d": 312.4996666666557,
      "v": 99
    },
    {
      "midi": 71,
      "hit": false,
      "t": 89108.36083333322,
      "d": 386.028999999995,
      "v": 100
    },
    {
      "midi": 64,
      "hit": false,
      "t": 89108.36083333322,
      "d": 514.7053333333315,
      "v": 81
    },
    {
      "midi": 67,
      "hit": false,
      "t": 89338.13999999988,
      "d": 275.7350000000006,
      "v": 76
    },
    {
      "midi": 72,
      "hit": false,
      "t": 89558.72799999989,
      "d": 229.77916666667443,
      "v": 104
    },
    {
      "midi": 76,
      "hit": false,
      "t": 89558.72799999989,
      "d": 294.1173333333427,
      "v": 95
    },
    {
      "midi": 52,
      "hit": false,
      "t": 89558.72799999999,
      "d": 174.63216666666267,
      "v": 57
    },
    {
      "midi": 67,
      "hit": false,
      "t": 89558.72799999999,
      "d": 284.9261666666571,
      "v": 93
    },
    {
      "midi": 71,
      "hit": false,
      "t": 89558.72799999999,
      "d": 303.30849999998463,
      "v": 101
    },
    {
      "midi": 67,
      "hit": false,
      "t": 89770.12483333322,
      "d": 110.29400000000896,
      "v": 74
    },
    {
      "midi": 64,
      "hit": false,
      "t": 89779.31599999989,
      "d": 64.33816666666826,
      "v": 58
    },
    {
      "midi": 72,
      "hit": false,
      "t": 89779.31599999998,
      "d": 119.48516666666546,
      "v": 93
    },
    {
      "midi": 67,
      "hit": false,
      "t": 89990.71283333322,
      "d": 183.82333333333372,
      "v": 87
    },
    {
      "midi": 73,
      "hit": false,
      "t": 89990.71283333322,
      "d": 560.6611666666577,
      "v": 91
    },
    {
      "midi": 76,
      "hit": false,
      "t": 89990.71283333322,
      "d": 615.8081666666549,
      "v": 90
    },
    {
      "midi": 64,
      "hit": false,
      "t": 89999.9039999999,
      "d": 523.896499999988,
      "v": 79
    },
    {
      "midi": 52,
      "hit": false,
      "t": 89999.9039999999,
      "d": 3033.084999999948,
      "v": 81
    },
    {
      "midi": 67,
      "hit": false,
      "t": 89999.90399999998,
      "d": 3106.614333333331,
      "v": 97
    },
    {
      "midi": 73,
      "hit": false,
      "t": 89999.90399999998,
      "d": 3106.614333333331,
      "v": 110
    },
    {
      "midi": 64,
      "hit": false,
      "t": 89999.90399999998,
      "d": 3115.805500000002,
      "v": 91
    },
    {
      "midi": 40,
      "hit": false,
      "t": 89999.90399999998,
      "d": 3134.1878333333298,
      "v": 97
    },
    {
      "midi": 52,
      "hit": false,
      "t": 89999.90399999998,
      "d": 3143.379000000001,
      "v": 93
    },
    {
      "midi": 67,
      "hit": false,
      "t": 90441.07999999989,
      "d": 193.01449999999022,
      "v": 17
    },
    {
      "midi": 67,
      "hit": false,
      "t": 90882.25599999988,
      "d": 110.29399999999441,
      "v": 66
    },
    {
      "midi": 64,
      "hit": false,
      "t": 90882.25599999988,
      "d": 395.22016666666605,
      "v": 69
    },
    {
      "midi": 73,
      "hit": false,
      "t": 90882.25599999988,
      "d": 542.2788333333301,
      "v": 81
    },
    {
      "midi": 76,
      "hit": false,
      "t": 90882.25599999988,
      "d": 744.4844999999914,
      "v": 84
    },
    {
      "midi": 67,
      "hit": false,
      "t": 91323.43199999987,
      "d": 321.69083333332674,
      "v": 40
    },
    {
      "midi": 67,
      "hit": false,
      "t": 91755.41683333319,
      "d": 147.05866666666407,
      "v": 66
    },
    {
      "midi": 73,
      "hit": false,
      "t": 91764.60799999986,
      "d": 431.98483333332115,
      "v": 77
    },
    {
      "midi": 64,
      "hit": false,
      "t": 91764.60799999986,
      "d": 624.9993333333259,
      "v": 68
    },
    {
      "midi": 76,
      "hit": false,
      "t": 91764.60799999986,
      "d": 1378.6749999999738,
      "v": 66
    },
    {
      "midi": 67,
      "hit": false,
      "t": 92205.78399999985,
      "d": 91.91166666666686,
      "v": 36
    },
    {
      "midi": 67,
      "hit": false,
      "t": 92426.37199999986,
      "d": 110.29399999999441,
      "v": 52
    },
    {
      "midi": 67,
      "hit": false,
      "t": 92646.95999999985,
      "d": 147.05866666666407,
      "v": 77
    },
    {
      "midi": 73,
      "hit": false,
      "t": 92646.95999999985,
      "d": 459.55833333331975,
      "v": 81
    },
    {
      "midi": 64,
      "hit": false,
      "t": 92646.95999999985,
      "d": 634.1904999999824,
      "v": 79
    },
    {
      "midi": 67,
      "hit": false,
      "t": 93088.13599999984,
      "d": 110.29399999999441,
      "v": 57
    },
    {
      "midi": 69,
      "hit": false,
      "t": 93529.31199999983,
      "d": 606.6169999999984,
      "v": 102
    },
    {
      "midi": 74,
      "hit": false,
      "t": 93529.31199999983,
      "d": 670.9551666666666,
      "v": 105
    },
    {
      "midi": 78,
      "hit": false,
      "t": 93529.31199999983,
      "d": 680.1463333333377,
      "v": 107
    },
    {
      "midi": 62,
      "hit": false,
      "t": 93529.31199999983,
      "d": 1525.733666666667,
      "v": 108
    },
    {
      "midi": 38,
      "hit": false,
      "t": 93529.31199999998,
      "d": 3097.42316666666,
      "v": 92
    },
    {
      "midi": 57,
      "hit": false,
      "t": 93529.31199999998,
      "d": 3244.481833333324,
      "v": 86
    },
    {
      "midi": 66,
      "hit": false,
      "t": 93529.31199999998,
      "d": 3244.481833333324,
      "v": 99
    },
    {
      "midi": 50,
      "hit": false,
      "t": 93529.31199999998,
      "d": 3299.6288333333214,
      "v": 91
    },
    {
      "midi": 62,
      "hit": false,
      "t": 93529.31199999998,
      "d": 3345.5846666666475,
      "v": 88
    },
    {
      "midi": 69,
      "hit": false,
      "t": 94411.66399999983,
      "d": 284.92616666667163,
      "v": 98
    },
    {
      "midi": 78,
      "hit": false,
      "t": 94411.66399999983,
      "d": 588.2346666666708,
      "v": 108
    },
    {
      "midi": 74,
      "hit": false,
      "t": 94411.66399999983,
      "d": 606.6169999999984,
      "v": 107
    },
    {
      "midi": 69,
      "hit": false,
      "t": 94852.83999999984,
      "d": 137.86749999999302,
      "v": 38
    },
    {
      "midi": 57,
      "hit": false,
      "t": 95082.6191666665,
      "d": 156.24983333333512,
      "v": 78
    },
    {
      "midi": 59,
      "hit": false,
      "t": 95119.38383333317,
      "d": 137.86749999999302,
      "v": 86
    },
    {
      "midi": 60,
      "hit": false,
      "t": 95183.72199999983,
      "d": 101.10283333332336,
      "v": 83
    },
    {
      "midi": 61,
      "hit": false,
      "t": 95229.67783333316,
      "d": 101.10283333333791,
      "v": 95
    },
    {
      "midi": 62,
      "hit": false,
      "t": 95284.82483333316,
      "d": 661.7640000000101,
      "v": 104
    },
    {
      "midi": 69,
      "hit": false,
      "t": 95294.01599999983,
      "d": 110.29400000000896,
      "v": 98
    },
    {
      "midi": 74,
      "hit": false,
      "t": 95294.01599999983,
      "d": 147.05866666667862,
      "v": 103
    },
    {
      "midi": 78,
      "hit": false,
      "t": 95294.01599999983,
      "d": 174.63216666667722,
      "v": 103
    },
    {
      "midi": 71,
      "hit": false,
      "t": 95514.60399999983,
      "d": 477.94066666666185,
      "v": 103
    },
    {
      "midi": 79,
      "hit": false,
      "t": 95514.60399999983,
      "d": 477.94066666666185,
      "v": 104
    },
    {
      "midi": 74,
      "hit": false,
      "t": 95514.60399999983,
      "d": 514.7053333333315,
      "v": 96
    },
    {
      "midi": 57,
      "hit": false,
      "t": 95919.01533333317,
      "d": 156.24983333332057,
      "v": 80
    },
    {
      "midi": 59,
      "hit": false,
      "t": 95974.16233333317,
      "d": 147.05866666664951,
      "v": 87
    },
    {
      "midi": 60,
      "hit": false,
      "t": 96047.69166666649,
      "d": 101.10283333332336,
      "v": 90
    },
    {
      "midi": 61,
      "hit": false,
      "t": 96093.64749999982,
      "d": 82.72049999999581,
      "v": 91
    },
    {
      "midi": 62,
      "hit": false,
      "t": 96130.41216666649,
      "d": 836.3961666666728,
      "v": 99
    },
    {
      "midi": 71,
      "hit": false,
      "t": 96176.36799999981,
      "d": 110.29399999999441,
      "v": 104
    },
    {
      "midi": 74,
      "hit": false,
      "t": 96176.36799999981,
      "d": 119.48516666666546,
      "v": 102
    },
    {
      "midi": 79,
      "hit": false,
      "t": 96176.36799999981,
      "d": 156.24983333333512,
      "v": 105
    },
    {
      "midi": 69,
      "hit": false,
      "t": 96396.95599999982,
      "d": 441.17600000000675,
      "v": 103
    },
    {
      "midi": 74,
      "hit": false,
      "t": 96396.95599999982,
      "d": 450.3671666666778,
      "v": 108
    },
    {
      "midi": 78,
      "hit": false,
      "t": 96396.95599999982,
      "d": 468.74950000000536,
      "v": 108
    },
    {
      "midi": 67,
      "hit": false,
      "t": 97049.52883333316,
      "d": 229.77916666665988,
      "v": 90
    },
    {
      "midi": 64,
      "hit": false,
      "t": 97049.52883333316,
      "d": 569.8523333333287,
      "v": 79
    },
    {
      "midi": 71,
      "hit": false,
      "t": 97049.52883333316,
      "d": 606.6169999999984,
      "v": 92
    },
    {
      "midi": 76,
      "hit": false,
      "t": 97049.52883333316,
      "d": 661.7639999999956,
      "v": 95
    },
    {
      "midi": 79,
      "hit": false,
      "t": 97049.52883333316,
      "d": 661.7639999999956,
      "v": 95
    },
    {
      "midi": 52,
      "hit": false,
      "t": 97049.52883333316,
      "d": 3290.437666666665,
      "v": 91
    },
    {
      "midi": 52,
      "hit": false,
      "t": 97058.71999999994,
      "d": 2849.2616666666727,
      "v": 89
    },
    {
      "midi": 40,
      "hit": false,
      "t": 97058.71999999994,
      "d": 3051.467333333334,
      "v": 95
    },
    {
      "midi": 59,
      "hit": false,
      "t": 97058.71999999994,
      "d": 3088.2320000000036,
      "v": 91
    },
    {
      "midi": 64,
      "hit": false,
      "t": 97058.71999999994,
      "d": 3115.805500000002,
      "v": 88
    },
    {
      "midi": 67,
      "hit": false,
      "t": 97058.71999999994,
      "d": 3152.570166666672,
      "v": 94
    },
    {
      "midi": 67,
      "hit": false,
      "t": 97499.89599999982,
      "d": 202.20566666666127,
      "v": 33
    },
    {
      "midi": 67,
      "hit": false,
      "t": 97941.07199999981,
      "d": 128.67633333333652,
      "v": 86
    },
    {
      "midi": 64,
      "hit": false,
      "t": 97941.07199999981,
      "d": 431.9848333333357,
      "v": 78
    },
    {
      "midi": 71,
      "hit": false,
      "t": 97941.07199999981,
      "d": 533.0876666666736,
      "v": 89
    },
    {
      "midi": 76,
      "hit": false,
      "t": 97941.07199999981,
      "d": 597.4258333333419,
      "v": 94
    },
    {
      "midi": 79,
      "hit": false,
      "t": 97941.07199999981,
      "d": 661.7640000000101,
      "v": 95
    },
    {
      "midi": 67,
      "hit": false,
      "t": 98382.24799999982,
      "d": 220.58800000000338,
      "v": 49
    },
    {
      "midi": 76,
      "hit": false,
      "t": 98814.23283333315,
      "d": 689.3375000000087,
      "v": 90
    },
    {
      "midi": 69,
      "hit": false,
      "t": 98823.42399999982,
      "d": 275.7350000000006,
      "v": 97
    },
    {
      "midi": 64,
      "hit": false,
      "t": 98823.42399999982,
      "d": 477.9406666666764,
      "v": 87
    },
    {
      "midi": 79,
      "hit": false,
      "t": 98823.42399999982,
      "d": 661.7640000000101,
      "v": 95
    },
    {
      "midi": 71,
      "hit": false,
      "t": 99044.01199999983,
      "d": 257.35266666667303,
      "v": 85
    },
    {
      "midi": 67,
      "hit": false,
      "t": 99264.59999999983,
      "d": 358.4554999999964,
      "v": 78
    },
    {
      "midi": 64,
      "hit": false,
      "t": 99705.77599999982,
      "d": 533.0876666666736,
      "v": 89
    },
    {
      "midi": 71,
      "hit": false,
      "t": 99705.77599999982,
      "d": 542.2788333333447,
      "v": 98
    },
    {
      "midi": 76,
      "hit": false,
      "t": 99705.77599999982,
      "d": 588.2346666666708,
      "v": 98
    },
    {
      "midi": 79,
      "hit": false,
      "t": 99705.77599999982,
      "d": 661.7639999999956,
      "v": 95
    },
    {
      "midi": 67,
      "hit": false,
      "t": 100146.95199999983,
      "d": 147.05866666666407,
      "v": 71
    },
    {
      "midi": 67,
      "hit": false,
      "t": 100578.93683333315,
      "d": 312.49966666667024,
      "v": 91
    },
    {
      "midi": 76,
      "hit": false,
      "t": 100578.93683333315,
      "d": 551.4700000000012,
      "v": 97
    },
    {
      "midi": 72,
      "hit": false,
      "t": 100578.93683333315,
      "d": 624.9993333333405,
      "v": 104
    },
    {
      "midi": 60,
      "hit": false,
      "t": 100588.12799999982,
      "d": 496.32300000000396,
      "v": 97
    },
    {
      "midi": 48,
      "hit": false,
      "t": 100588.12799999982,
      "d": 3060.658500000005,
      "v": 97
    },
    {
      "midi": 55,
      "hit": false,
      "t": 100588.12799999995,
      "d": 1783.0863333333255,
      "v": 90
    },
    {
      "midi": 36,
      "hit": false,
      "t": 100588.12799999995,
      "d": 2325.3651666666556,
      "v": 102
    },
    {
      "midi": 60,
      "hit": false,
      "t": 100588.12799999995,
      "d": 2334.5563333333266,
      "v": 99
    },
    {
      "midi": 48,
      "hit": false,
      "t": 100588.12799999995,
      "d": 2343.7474999999977,
      "v": 103
    },
    {
      "midi": 64,
      "hit": false,
      "t": 100588.12799999995,
      "d": 2371.3209999999963,
      "v": 97
    },
    {
      "midi": 67,
      "hit": false,
      "t": 100588.12799999995,
      "d": 2371.3209999999963,
      "v": 92
    },
    {
      "midi": 67,
      "hit": false,
      "t": 101470.47999999982,
      "d": 91.91166666666686,
      "v": 83
    },
    {
      "midi": 72,
      "hit": false,
      "t": 101470.47999999982,
      "d": 110.29399999999441,
      "v": 91
    },
    {
      "midi": 76,
      "hit": false,
      "t": 101470.47999999982,
      "d": 119.48516666666546,
      "v": 89
    },
    {
      "midi": 60,
      "hit": false,
      "t": 101470.47999999982,
      "d": 330.8819999999978,
      "v": 87
    },
    {
      "midi": 76,
      "hit": false,
      "t": 102132.24399999982,
      "d": 73.52933333333931,
      "v": 97
    },
    {
      "midi": 72,
      "hit": false,
      "t": 102132.24399999982,
      "d": 82.72050000001036,
      "v": 107
    },
    {
      "midi": 79,
      "hit": false,
      "t": 102132.24399999982,
      "d": 91.91166666668141,
      "v": 111
    },
    {
      "midi": 76,
      "hit": false,
      "t": 102343.64083333316,
      "d": 386.028999999995,
      "v": 101
    },
    {
      "midi": 72,
      "hit": false,
      "t": 102343.64083333316,
      "d": 422.79366666666465,
      "v": 111
    },
    {
      "midi": 79,
      "hit": false,
      "t": 102343.64083333316,
      "d": 441.1759999999922,
      "v": 114
    },
    {
      "midi": 60,
      "hit": false,
      "t": 102352.83199999983,
      "d": 174.63216666666267,
      "v": 98
    },
    {
      "midi": 60,
      "hit": false,
      "t": 102794.00799999983,
      "d": 156.24983333333512,
      "v": 28
    },
    {
      "midi": 84,
      "hit": false,
      "t": 103014.59599999983,
      "d": 36.764666666669655,
      "v": 89
    },
    {
      "midi": 79,
      "hit": false,
      "t": 103014.59599999983,
      "d": 64.33816666666826,
      "v": 107
    },
    {
      "midi": 88,
      "hit": false,
      "t": 103014.59599999983,
      "d": 73.52933333333931,
      "v": 93
    },
    {
      "midi": 91,
      "hit": false,
      "t": 103014.59599999983,
      "d": 101.10283333333791,
      "v": 109
    },
    {
      "midi": 60,
      "hit": false,
      "t": 103225.99283333316,
      "d": 156.24983333333512,
      "v": 87
    },
    {
      "midi": 88,
      "hit": false,
      "t": 103225.99283333316,
      "d": 533.0876666666591,
      "v": 109
    },
    {
      "midi": 84,
      "hit": false,
      "t": 103225.99283333316,
      "d": 569.8523333333287,
      "v": 109
    },
    {
      "midi": 79,
      "hit": false,
      "t": 103225.99283333316,
      "d": 606.6169999999984,
      "v": 118
    },
    {
      "midi": 91,
      "hit": false,
      "t": 103225.99283333316,
      "d": 606.6169999999984,
      "v": 122
    },
    {
      "midi": 67,
      "hit": false,
      "t": 104117.53599999983,
      "d": 689.3374999999942,
      "v": 108
    },
    {
      "midi": 74,
      "hit": false,
      "t": 104117.53599999983,
      "d": 707.7198333333217,
      "v": 113
    },
    {
      "midi": 71,
      "hit": false,
      "t": 104117.53599999983,
      "d": 716.9109999999928,
      "v": 108
    },
    {
      "midi": 55,
      "hit": false,
      "t": 104117.53599999983,
      "d": 955.8813333333383,
      "v": 100
    },
    {
      "midi": 55,
      "hit": false,
      "t": 104117.53599999995,
      "d": 1433.8220000000001,
      "v": 94
    },
    {
      "midi": 62,
      "hit": false,
      "t": 104117.53599999995,
      "d": 1470.5866666666698,
      "v": 96
    },
    {
      "midi": 71,
      "hit": false,
      "t": 104117.53599999995,
      "d": 1498.1601666666684,
      "v": 101
    },
    {
      "midi": 67,
      "hit": false,
      "t": 104117.53599999995,
      "d": 1516.542499999996,
      "v": 95
    },
    {
      "midi": 67,
      "hit": false,
      "t": 104999.88799999983,
      "d": 496.32300000000396,
      "v": 100
    },
    {
      "midi": 71,
      "hit": false,
      "t": 104999.88799999983,
      "d": 533.0876666666736,
      "v": 103
    },
    {
      "midi": 74,
      "hit": false,
      "t": 104999.88799999983,
      "d": 551.4700000000012,
      "v": 107
    },
    {
      "midi": 55,
      "hit": false,
      "t": 105441.06399999984,
      "d": 183.82333333333372,
      "v": 76
    },
    {
      "midi": 65,
      "hit": false,
      "t": 105873.04883333317,
      "d": 569.8523333333433,
      "v": 100
    },
    {
      "midi": 69,
      "hit": false,
      "t": 105873.04883333317,
      "d": 588.2346666666708,
      "v": 97
    },
    {
      "midi": 74,
      "hit": false,
      "t": 105873.04883333317,
      "d": 606.6169999999984,
      "v": 107
    },
    {
      "midi": 53,
      "hit": false,
      "t": 105882.23999999985,
      "d": 900.7343333333265,
      "v": 95
    },
    {
      "midi": 60,
      "hit": false,
      "t": 105882.23999999995,
      "d": 1553.3071666666656,
      "v": 89
    },
    {
      "midi": 65,
      "hit": false,
      "t": 105882.23999999995,
      "d": 1562.4983333333366,
      "v": 88
    },
    {
      "midi": 53,
      "hit": false,
      "t": 105882.23999999995,
      "d": 1580.8806666666642,
      "v": 91
    },
    {
      "midi": 69,
      "hit": false,
      "t": 105882.23999999995,
      "d": 1599.2629999999917,
      "v": 94
    },
    {
      "midi": 69,
      "hit": false,
      "t": 106755.40083333317,
      "d": 477.94066666666185,
      "v": 96
    },
    {
      "midi": 65,
      "hit": false,
      "t": 106755.40083333317,
      "d": 533.0876666666591,
      "v": 101
    },
    {
      "midi": 74,
      "hit": false,
      "t": 106755.40083333317,
      "d": 533.0876666666591,
      "v": 105
    },
    {
      "midi": 53,
      "hit": false,
      "t": 107196.57683333317,
      "d": 183.82333333333372,
      "v": 67
    },
    {
      "midi": 64,
      "hit": false,
      "t": 107637.75283333317,
      "d": 560.6611666666722,
      "v": 103
    },
    {
      "midi": 60,
      "hit": false,
      "t": 107637.75283333317,
      "d": 588.2346666666708,
      "v": 92
    },
    {
      "midi": 67,
      "hit": false,
      "t": 107637.75283333317,
      "d": 588.2346666666708,
      "v": 98
    },
    {
      "midi": 74,
      "hit": false,
      "t": 107637.75283333317,
      "d": 624.9993333333405,
      "v": 110
    },
    {
      "midi": 48,
      "hit": false,
      "t": 107637.75283333317,
      "d": 1011.0283333333355,
      "v": 96
    },
    {
      "midi": 48,
      "hit": false,
      "t": 107646.94399999994,
      "d": 1240.8074999999953,
      "v": 87
    },
    {
      "midi": 67,
      "hit": false,
      "t": 107646.94399999994,
      "d": 3253.672999999995,
      "v": 94
    },
    {
      "midi": 60,
      "hit": false,
      "t": 107646.94399999994,
      "d": 3272.055333333323,
      "v": 92
    },
    {
      "midi": 64,
      "hit": false,
      "t": 107646.94399999994,
      "d": 3354.7758333333186,
      "v": 91
    },
    {
      "midi": 60,
      "hit": false,
      "t": 108529.29599999984,
      "d": 413.6024999999936,
      "v": 79
    },
    {
      "midi": 67,
      "hit": false,
      "t": 108529.29599999984,
      "d": 533.0876666666591,
      "v": 97
    },
    {
      "midi": 64,
      "hit": false,
      "t": 108529.29599999984,
      "d": 560.6611666666577,
      "v": 99
    },
    {
      "midi": 74,
      "hit": false,
      "t": 108529.29599999984,
      "d": 983.4548333333223,
      "v": 107
    },
    {
      "midi": 48,
      "hit": false,
      "t": 108961.28083333316,
      "d": 156.24983333333512,
      "v": 63
    },
    {
      "midi": 48,
      "hit": false,
      "t": 109411.64799999983,
      "d": 257.35266666667303,
      "v": 105
    },
    {
      "midi": 64,
      "hit": false,
      "t": 109411.64799999983,
      "d": 284.92616666667163,
      "v": 98
    },
    {
      "midi": 67,
      "hit": false,
      "t": 109411.64799999983,
      "d": 284.92616666667163,
      "v": 101
    },
    {
      "midi": 76,
      "hit": false,
      "t": 109843.63283333316,
      "d": 330.8819999999978,
      "v": 94
    },
    {
      "midi": 79,
      "hit": false,
      "t": 109843.63283333316,
      "d": 487.1318333333329,
      "v": 109
    },
    {
      "midi": 67,
      "hit": false,
      "t": 110064.22083333317,
      "d": 330.8819999999978,
      "v": 85
    },
    {
      "midi": 60,
      "hit": false,
      "t": 110293.99999999983,
      "d": 110.29400000000896,
      "v": 45
    },
    {
      "midi": 72,
      "hit": false,
      "t": 110293.99999999983,
      "d": 147.05866666667862,
      "v": 84
    },
    {
      "midi": 76,
      "hit": false,
      "t": 110514.58799999984,
      "d": 496.32300000000396,
      "v": 100
    },
    {
      "midi": 79,
      "hit": false,
      "t": 110514.58799999984,
      "d": 569.8523333333287,
      "v": 109
    },
    {
      "midi": 60,
      "hit": false,
      "t": 110735.17599999985,
      "d": 358.4554999999964,
      "v": 66
    },
    {
      "midi": 67,
      "hit": false,
      "t": 110946.57283333318,
      "d": 110.29399999999441,
      "v": 71
    },
    {
      "midi": 67,
      "hit": false,
      "t": 111167.16083333318,
      "d": 661.7639999999956,
      "v": 94
    },
    {
      "midi": 71,
      "hit": false,
      "t": 111167.16083333318,
      "d": 661.7639999999956,
      "v": 94
    },
    {
      "midi": 74,
      "hit": false,
      "t": 111167.16083333318,
      "d": 670.9551666666666,
      "v": 100
    },
    {
      "midi": 55,
      "hit": false,
      "t": 111167.16083333318,
      "d": 1038.601833333334,
      "v": 95
    },
    {
      "midi": 67,
      "hit": false,
      "t": 111176.35199999993,
      "d": 1470.5866666666552,
      "v": 93
    },
    {
      "midi": 71,
      "hit": false,
      "t": 111176.35199999993,
      "d": 1507.3513333333249,
      "v": 102
    },
    {
      "midi": 55,
      "hit": false,
      "t": 111176.35199999993,
      "d": 1562.498333333322,
      "v": 91
    },
    {
      "midi": 62,
      "hit": false,
      "t": 111176.35199999993,
      "d": 1562.498333333322,
      "v": 97
    },
    {
      "midi": 71,
      "hit": false,
      "t": 112058.70399999985,
      "d": 615.8081666666694,
      "v": 101
    },
    {
      "midi": 74,
      "hit": false,
      "t": 112058.70399999985,
      "d": 615.8081666666694,
      "v": 107
    },
    {
      "midi": 67,
      "hit": false,
      "t": 112058.70399999985,
      "d": 624.9993333333405,
      "v": 95
    },
    {
      "midi": 55,
      "hit": false,
      "t": 112490.68883333319,
      "d": 450.3671666666778,
      "v": 84
    },
    {
      "midi": 65,
      "hit": false,
      "t": 112931.8648333332,
      "d": 661.7640000000101,
      "v": 96
    },
    {
      "midi": 69,
      "hit": false,
      "t": 112931.8648333332,
      "d": 670.9551666666812,
      "v": 96
    },
    {
      "midi": 74,
      "hit": false,
      "t": 112931.8648333332,
      "d": 680.1463333333522,
      "v": 103
    },
    {
      "midi": 53,
      "hit": false,
      "t": 112931.8648333332,
      "d": 974.2636666666804,
      "v": 102
    },
    {
      "midi": 53,
      "hit": false,
      "t": 112941.05599999991,
      "d": 1323.5279999999912,
      "v": 102
    },
    {
      "midi": 69,
      "hit": false,
      "t": 112941.05599999991,
      "d": 1351.1014999999898,
      "v": 96
    },
    {
      "midi": 65,
      "hit": false,
      "t": 112941.05599999991,
      "d": 1378.6749999999884,
      "v": 89
    },
    {
      "midi": 72,
      "hit": false,
      "t": 112941.05599999991,
      "d": 1424.6308333333145,
      "v": 102
    },
    {
      "midi": 69,
      "hit": false,
      "t": 113823.40799999988,
      "d": 312.4996666666557,
      "v": 101
    },
    {
      "midi": 74,
      "hit": false,
      "t": 113823.40799999988,
      "d": 367.6466666666529,
      "v": 108
    },
    {
      "midi": 65,
      "hit": false,
      "t": 113823.40799999988,
      "d": 376.83783333332394,
      "v": 102
    },
    {
      "midi": 53,
      "hit": false,
      "t": 114264.58399999987,
      "d": 413.6024999999936,
      "v": 69
    },
    {
      "midi": 77,
      "hit": false,
      "t": 114696.5688333332,
      "d": 615.8081666666694,
      "v": 99
    },
    {
      "midi": 70,
      "hit": false,
      "t": 114705.75999999986,
      "d": 597.4258333333273,
      "v": 99
    },
    {
      "midi": 65,
      "hit": false,
      "t": 114705.75999999986,
      "d": 615.8081666666694,
      "v": 94
    },
    {
      "midi": 58,
      "hit": false,
      "t": 114705.75999999986,
      "d": 624.9993333333405,
      "v": 102
    },
    {
      "midi": 74,
      "hit": false,
      "t": 114705.75999999986,
      "d": 624.9993333333405,
      "v": 99
    },
    {
      "midi": 46,
      "hit": false,
      "t": 114705.75999999986,
      "d": 1029.4106666666776,
      "v": 102
    },
    {
      "midi": 70,
      "hit": false,
      "t": 114705.7599999999,
      "d": 3170.9524999999994,
      "v": 104
    },
    {
      "midi": 58,
      "hit": false,
      "t": 114705.7599999999,
      "d": 3235.2906666666677,
      "v": 100
    },
    {
      "midi": 62,
      "hit": false,
      "t": 114705.7599999999,
      "d": 3290.437666666665,
      "v": 97
    },
    {
      "midi": 65,
      "hit": false,
      "t": 114705.7599999999,
      "d": 3299.628833333336,
      "v": 96
    },
    {
      "midi": 58,
      "hit": false,
      "t": 115588.11199999988,
      "d": 404.4113333333371,
      "v": 94
    },
    {
      "midi": 70,
      "hit": false,
      "t": 115588.11199999988,
      "d": 450.3671666666778,
      "v": 106
    },
    {
      "midi": 65,
      "hit": false,
      "t": 115588.11199999988,
      "d": 468.74950000000536,
      "v": 110
    },
    {
      "midi": 74,
      "hit": false,
      "t": 115588.11199999988,
      "d": 496.32300000000396,
      "v": 103
    },
    {
      "midi": 77,
      "hit": false,
      "t": 115588.11199999988,
      "d": 514.7053333333315,
      "v": 109
    },
    {
      "midi": 46,
      "hit": false,
      "t": 116029.28799999988,
      "d": 55.146999999997206,
      "v": 38
    },
    {
      "midi": 70,
      "hit": false,
      "t": 116461.2728333332,
      "d": 266.54383333332953,
      "v": 113
    },
    {
      "midi": 82,
      "hit": false,
      "t": 116461.2728333332,
      "d": 284.9261666666571,
      "v": 114
    },
    {
      "midi": 74,
      "hit": false,
      "t": 116461.2728333332,
      "d": 294.11733333332813,
      "v": 104
    },
    {
      "midi": 77,
      "hit": false,
      "t": 116691.05199999987,
      "d": 294.1173333333427,
      "v": 91
    },
    {
      "midi": 70,
      "hit": false,
      "t": 116911.63999999987,
      "d": 275.7350000000006,
      "v": 108
    },
    {
      "midi": 82,
      "hit": false,
      "t": 116911.63999999987,
      "d": 284.92616666667163,
      "v": 108
    },
    {
      "midi": 74,
      "hit": false,
      "t": 116911.63999999987,
      "d": 312.49966666667024,
      "v": 98
    },
    {
      "midi": 82,
      "hit": false,
      "t": 117343.6248333332,
      "d": 303.3084999999992,
      "v": 106
    },
    {
      "midi": 74,
      "hit": false,
      "t": 117352.81599999988,
      "d": 330.8819999999978,
      "v": 105
    },
    {
      "midi": 70,
      "hit": false,
      "t": 117352.81599999988,
      "d": 854.7784999999858,
      "v": 109
    },
    {
      "midi": 79,
      "hit": false,
      "t": 117564.21283333321,
      "d": 551.4699999999866,
      "v": 91
    },
    {
      "midi": 74,
      "hit": false,
      "t": 117793.99199999987,
      "d": 275.7350000000006,
      "v": 108
    },
    {
      "midi": 67,
      "hit": false,
      "t": 118225.97683333319,
      "d": 643.381666666668,
      "v": 89
    },
    {
      "midi": 74,
      "hit": false,
      "t": 118225.97683333319,
      "d": 680.1463333333377,
      "v": 101
    },
    {
      "midi": 79,
      "hit": false,
      "t": 118225.97683333319,
      "d": 680.1463333333377,
      "v": 98
    },
    {
      "midi": 71,
      "hit": false,
      "t": 118225.97683333319,
      "d": 698.5286666666652,
      "v": 101
    },
    {
      "midi": 55,
      "hit": false,
      "t": 118225.97683333319,
      "d": 1295.954500000007,
      "v": 92
    },
    {
      "midi": 62,
      "hit": false,
      "t": 118235.16799999989,
      "d": 1580.8806666666642,
      "v": 94
    },
    {
      "midi": 71,
      "hit": false,
      "t": 118235.16799999989,
      "d": 1590.0718333333352,
      "v": 99
    },
    {
      "midi": 67,
      "hit": false,
      "t": 118235.16799999989,
      "d": 1608.4541666666628,
      "v": 90
    },
    {
      "midi": 55,
      "hit": false,
      "t": 118235.16799999989,
      "d": 1663.60116666666,
      "v": 95
    },
    {
      "midi": 71,
      "hit": false,
      "t": 119117.51999999986,
      "d": 487.1318333333329,
      "v": 101
    },
    {
      "midi": 79,
      "hit": false,
      "t": 119117.51999999986,
      "d": 505.51416666666046,
      "v": 98
    },
    {
      "midi": 74,
      "hit": false,
      "t": 119117.51999999986,
      "d": 533.0876666666591,
      "v": 101
    },
    {
      "midi": 67,
      "hit": false,
      "t": 119117.51999999986,
      "d": 560.6611666666577,
      "v": 89
    },
    {
      "midi": 81,
      "hit": false,
      "t": 119338.10799999986,
      "d": 303.30849999998463,
      "v": 89
    },
    {
      "midi": 83,
      "hit": false,
      "t": 119558.69599999987,
      "d": 229.77916666665988,
      "v": 105
    },
    {
      "midi": 62,
      "hit": false,
      "t": 119779.28399999985,
      "d": 91.91166666666686,
      "v": 69
    },
    {
      "midi": 71,
      "hit": false,
      "t": 119999.87199999986,
      "d": 248.16150000000198,
      "v": 104
    },
    {
      "midi": 66,
      "hit": false,
      "t": 119999.87199999986,
      "d": 514.7053333333315,
      "v": 86
    },
    {
      "midi": 74,
      "hit": false,
      "t": 119999.87199999986,
      "d": 514.7053333333315,
      "v": 105
    },
    {
      "midi": 79,
      "hit": false,
      "t": 119999.87199999986,
      "d": 523.8965000000026,
      "v": 103
    },
    {
      "midi": 54,
      "hit": false,
      "t": 119999.87199999986,
      "d": 928.3078333333251,
      "v": 99
    },
    {
      "midi": 62,
      "hit": false,
      "t": 119999.87199999989,
      "d": 1461.3954999999987,
      "v": 91
    },
    {
      "midi": 66,
      "hit": false,
      "t": 119999.87199999989,
      "d": 1534.924833333338,
      "v": 94
    },
    {
      "midi": 71,
      "hit": false,
      "t": 119999.87199999989,
      "d": 1553.3071666666656,
      "v": 99
    },
    {
      "midi": 54,
      "hit": false,
      "t": 119999.87199999989,
      "d": 1737.1304999999993,
      "v": 99
    },
    {
      "midi": 71,
      "hit": false,
      "t": 120431.8568333332,
      "d": 220.58800000000338,
      "v": 44
    },
    {
      "midi": 74,
      "hit": false,
      "t": 120882.22399999986,
      "d": 284.9261666666571,
      "v": 96
    },
    {
      "midi": 71,
      "hit": false,
      "t": 120882.22399999986,
      "d": 395.2201666666515,
      "v": 99
    },
    {
      "midi": 66,
      "hit": false,
      "t": 120882.22399999986,
      "d": 431.98483333332115,
      "v": 87
    },
    {
      "midi": 79,
      "hit": false,
      "t": 120882.22399999986,
      "d": 477.94066666666185,
      "v": 97
    },
    {
      "midi": 81,
      "hit": false,
      "t": 121102.81199999985,
      "d": 284.92616666667163,
      "v": 89
    },
    {
      "midi": 83,
      "hit": false,
      "t": 121323.39999999985,
      "d": 101.10283333333791,
      "v": 104
    },
    {
      "midi": 54,
      "hit": false,
      "t": 121323.39999999985,
      "d": 110.29400000000896,
      "v": 88
    },
    {
      "midi": 76,
      "hit": false,
      "t": 121553.17916666652,
      "d": 174.63216666666267,
      "v": 90
    },
    {
      "midi": 79,
      "hit": false,
      "t": 121617.51733333319,
      "d": 854.7785000000003,
      "v": 84
    },
    {
      "midi": 83,
      "hit": false,
      "t": 121681.85549999986,
      "d": 1341.9103333333333,
      "v": 83
    },
    {
      "midi": 64,
      "hit": false,
      "t": 121764.57599999986,
      "d": 652.5728333333391,
      "v": 74
    },
    {
      "midi": 76,
      "hit": false,
      "t": 121764.57599999986,
      "d": 744.4845000000059,
      "v": 67
    },
    {
      "midi": 52,
      "hit": false,
      "t": 121764.57599999986,
      "d": 1066.1753333333327,
      "v": 80
    },
    {
      "midi": 88,
      "hit": false,
      "t": 121764.57599999986,
      "d": 1093.7488333333313,
      "v": 101
    },
    {
      "midi": 52,
      "hit": false,
      "t": 121764.57599999988,
      "d": 1838.2333333333372,
      "v": 87
    },
    {
      "midi": 67,
      "hit": false,
      "t": 121764.57599999988,
      "d": 3216.9083333333256,
      "v": 85
    },
    {
      "midi": 59,
      "hit": false,
      "t": 121764.57599999988,
      "d": 3244.481833333324,
      "v": 90
    },
    {
      "midi": 64,
      "hit": false,
      "t": 121764.57599999988,
      "d": 3262.8641666666517,
      "v": 81
    },
    {
      "midi": 71,
      "hit": false,
      "t": 121764.57599999988,
      "d": 3363.9669999999896,
      "v": 98
    },
    {
      "midi": 64,
      "hit": false,
      "t": 122646.92799999985,
      "d": 376.8378333333385,
      "v": 70
    },
    {
      "midi": 76,
      "hit": false,
      "t": 122646.92799999985,
      "d": 542.2788333333447,
      "v": 84
    },
    {
      "midi": 79,
      "hit": false,
      "t": 122867.51599999986,
      "d": 294.1173333333427,
      "v": 63
    },
    {
      "midi": 71,
      "hit": false,
      "t": 123088.10399999986,
      "d": 974.2636666666804,
      "v": 84
    },
    {
      "midi": 76,
      "hit": false,
      "t": 123529.27999999987,
      "d": 533.0876666666736,
      "v": 73
    },
    {
      "midi": 79,
      "hit": false,
      "t": 123529.27999999987,
      "d": 542.2788333333447,
      "v": 81
    },
    {
      "midi": 50,
      "hit": false,
      "t": 123529.27999999988,
      "d": 1406.2485000000015,
      "v": 84
    },
    {
      "midi": 76,
      "hit": false,
      "t": 124411.63199999988,
      "d": 229.77916666667443,
      "v": 105
    },
    {
      "midi": 79,
      "hit": false,
      "t": 124411.63199999988,
      "d": 284.92616666667163,
      "v": 104
    },
    {
      "midi": 74,
      "hit": false,
      "t": 124632.21999999988,
      "d": 441.17600000000675,
      "v": 95
    },
    {
      "midi": 77,
      "hit": false,
      "t": 124632.21999999988,
      "d": 450.3671666666778,
      "v": 85
    },
    {
      "midi": 48,
      "hit": false,
      "t": 125293.98399999987,
      "d": 1277.572166666665,
      "v": 99
    },
    {
      "midi": 60,
      "hit": false,
      "t": 125293.98399999987,
      "d": 1341.9103333333333,
      "v": 91
    },
    {
      "midi": 64,
      "hit": false,
      "t": 125293.98399999987,
      "d": 1360.2926666666608,
      "v": 85
    },
    {
      "midi": 67,
      "hit": false,
      "t": 125293.98399999987,
      "d": 1360.2926666666608,
      "v": 88
    },
    {
      "midi": 67,
      "hit": false,
      "t": 125293.9839999999,
      "d": 266.54383333332953,
      "v": 101
    },
    {
      "midi": 74,
      "hit": false,
      "t": 125293.9839999999,
      "d": 413.6024999999936,
      "v": 104
    },
    {
      "midi": 60,
      "hit": false,
      "t": 125293.9839999999,
      "d": 468.7494999999908,
      "v": 97
    },
    {
      "midi": 79,
      "hit": false,
      "t": 125293.9839999999,
      "d": 496.3229999999894,
      "v": 107
    },
    {
      "midi": 48,
      "hit": false,
      "t": 125293.9839999999,
      "d": 1498.1601666666684,
      "v": 99
    },
    {
      "midi": 76,
      "hit": false,
      "t": 125514.5719999999,
      "d": 303.30849999998463,
      "v": 69
    },
    {
      "midi": 67,
      "hit": false,
      "t": 125735.15999999989,
      "d": 156.24983333333512,
      "v": 60
    },
    {
      "midi": 67,
      "hit": false,
      "t": 126176.3359999999,
      "d": 165.44100000000617,
      "v": 75
    },
    {
      "midi": 64,
      "hit": false,
      "t": 126176.3359999999,
      "d": 275.7350000000006,
      "v": 94
    },
    {
      "midi": 60,
      "hit": false,
      "t": 126176.3359999999,
      "d": 459.5583333333343,
      "v": 100
    },
    {
      "midi": 72,
      "hit": false,
      "t": 126176.3359999999,
      "d": 551.4700000000012,
      "v": 98
    },
    {
      "midi": 67,
      "hit": false,
      "t": 126396.9239999999,
      "d": 248.16150000000198,
      "v": 75
    },
    {
      "midi": 64,
      "hit": false,
      "t": 126617.5119999999,
      "d": 174.63216666666267,
      "v": 57
    },
    {
      "midi": 60,
      "hit": false,
      "t": 126838.09999999989,
      "d": 193.01450000000477,
      "v": 89
    },
    {
      "midi": 43,
      "hit": false,
      "t": 127058.68799999986,
      "d": 3529.407999999996,
      "v": 95
    },
    {
      "midi": 59,
      "hit": false,
      "t": 127058.68799999986,
      "d": 3529.407999999996,
      "v": 97
    },
    {
      "midi": 62,
      "hit": false,
      "t": 127058.68799999986,
      "d": 3529.407999999996,
      "v": 89
    },
    {
      "midi": 67,
      "hit": false,
      "t": 127058.68799999986,
      "d": 3529.407999999996,
      "v": 94
    },
    {
      "midi": 62,
      "hit": false,
      "t": 127058.6879999999,
      "d": 643.381666666668,
      "v": 68
    },
    {
      "midi": 67,
      "hit": false,
      "t": 127058.6879999999,
      "d": 680.1463333333377,
      "v": 69
    },
    {
      "midi": 71,
      "hit": false,
      "t": 127058.6879999999,
      "d": 1213.2339999999967,
      "v": 100
    },
    {
      "midi": 55,
      "hit": false,
      "t": 127058.6879999999,
      "d": 3529.4079999999813,
      "v": 93
    },
    {
      "midi": 67,
      "hit": false,
      "t": 127941.03999999989,
      "d": 248.16150000000198,
      "v": 96
    },
    {
      "midi": 62,
      "hit": false,
      "t": 127941.03999999989,
      "d": 533.0876666666591,
      "v": 47
    },
    {
      "midi": 69,
      "hit": false,
      "t": 128161.6279999999,
      "d": 220.58799999998882,
      "v": 30
    },
    {
      "midi": 71,
      "hit": false,
      "t": 128382.21599999988,
      "d": 238.97033333333093,
      "v": 51
    },
    {
      "midi": 67,
      "hit": false,
      "t": 128602.80399999989,
      "d": 266.543833333315,
      "v": 46
    },
    {
      "midi": 69,
      "hit": false,
      "t": 128823.39199999988,
      "d": 266.543833333315,
      "v": 94
    },
    {
      "midi": 62,
      "hit": false,
      "t": 128823.39199999988,
      "d": 588.2346666666417,
      "v": 49
    },
    {
      "midi": 71,
      "hit": false,
      "t": 129043.97999999986,
      "d": 248.16149999998743,
      "v": 66
    },
    {
      "midi": 67,
      "hit": false,
      "t": 129264.56799999985,
      "d": 147.05866666666407,
      "v": 64
    },
    {
      "midi": 79,
      "hit": false,
      "t": 129264.56799999985,
      "d": 514.7053333333461,
      "v": 107
    },
    {
      "midi": 71,
      "hit": false,
      "t": 129485.15599999986,
      "d": 395.2201666666806,
      "v": 86
    },
    {
      "midi": 74,
      "hit": false,
      "t": 129705.74399999986,
      "d": 275.7350000000006,
      "v": 87
    },
    {
      "midi": 62,
      "hit": false,
      "t": 129705.74399999986,
      "d": 523.8965000000026,
      "v": 64
    },
    {
      "midi": 67,
      "hit": false,
      "t": 129705.74399999986,
      "d": 560.6611666666722,
      "v": 71
    },
    {
      "midi": 81,
      "hit": false,
      "t": 129926.33199999986,
      "d": 441.17600000000675,
      "v": 104
    },
    {
      "midi": 71,
      "hit": false,
      "t": 130146.91999999987,
      "d": 349.2643333333399,
      "v": 91
    },
    {
      "midi": 74,
      "hit": false,
      "t": 130367.50799999987,
      "d": 147.05866666666407,
      "v": 89
    },
    {
      "midi": 55,
      "hit": false,
      "t": 130588.09599999986,
      "d": 487.1318333333329,
      "v": 85
    },
    {
      "midi": 43,
      "hit": false,
      "t": 130588.09599999986,
      "d": 1369.4838333333464,
      "v": 90
    },
    {
      "midi": 62,
      "hit": false,
      "t": 130588.09599999986,
      "d": 1452.2043333333422,
      "v": 98
    },
    {
      "midi": 67,
      "hit": false,
      "t": 130588.09599999986,
      "d": 1544.1159999999945,
      "v": 95
    },
    {
      "midi": 71,
      "hit": false,
      "t": 130588.09599999987,
      "d": 248.16150000000198,
      "v": 74
    },
    {
      "midi": 55,
      "hit": false,
      "t": 130588.09599999987,
      "d": 441.17600000000675,
      "v": 93
    },
    {
      "midi": 62,
      "hit": false,
      "t": 130588.09599999987,
      "d": 542.2788333333447,
      "v": 66
    },
    {
      "midi": 79,
      "hit": false,
      "t": 130588.09599999987,
      "d": 551.4700000000012,
      "v": 80
    },
    {
      "midi": 83,
      "hit": false,
      "t": 130588.09599999987,
      "d": 551.4700000000012,
      "v": 113
    },
    {
      "midi": 74,
      "hit": false,
      "t": 130588.09599999987,
      "d": 597.4258333333419,
      "v": 77
    },
    {
      "midi": 67,
      "hit": false,
      "t": 130588.09599999987,
      "d": 624.9993333333405,
      "v": 68
    },
    {
      "midi": 59,
      "hit": false,
      "t": 131470.44799999986,
      "d": 147.05866666667862,
      "v": 58
    },
    {
      "midi": 55,
      "hit": false,
      "t": 131470.44799999986,
      "d": 229.77916666667443,
      "v": 66
    },
    {
      "midi": 71,
      "hit": false,
      "t": 131470.4479999999,
      "d": 128.67633333333652,
      "v": 78
    },
    {
      "midi": 67,
      "hit": false,
      "t": 131470.4479999999,
      "d": 312.49966666667024,
      "v": 67
    },
    {
      "midi": 79,
      "hit": false,
      "t": 131470.4479999999,
      "d": 431.98483333335025,
      "v": 85
    },
    {
      "midi": 74,
      "hit": false,
      "t": 131470.4479999999,
      "d": 459.55833333334886,
      "v": 76
    },
    {
      "midi": 71,
      "hit": false,
      "t": 131911.6239999999,
      "d": 73.52933333333931,
      "v": 46
    },
    {
      "midi": 59,
      "hit": false,
      "t": 132352.79999999984,
      "d": 487.13183333334746,
      "v": 89
    },
    {
      "midi": 52,
      "hit": false,
      "t": 132352.79999999984,
      "d": 533.0876666666882,
      "v": 84
    },
    {
      "midi": 64,
      "hit": false,
      "t": 132352.79999999984,
      "d": 1102.9400000000023,
      "v": 87
    },
    {
      "midi": 40,
      "hit": false,
      "t": 132352.79999999984,
      "d": 1378.6749999999884,
      "v": 88
    },
    {
      "midi": 67,
      "hit": false,
      "t": 132352.79999999984,
      "d": 1452.2043333333277,
      "v": 94
    },
    {
      "midi": 69,
      "hit": false,
      "t": 132352.7999999999,
      "d": 284.92616666664253,
      "v": 96
    },
    {
      "midi": 64,
      "hit": false,
      "t": 132352.7999999999,
      "d": 560.6611666666577,
      "v": 83
    },
    {
      "midi": 76,
      "hit": false,
      "t": 132352.7999999999,
      "d": 689.3374999999942,
      "v": 81
    },
    {
      "midi": 71,
      "hit": false,
      "t": 132573.3879999999,
      "d": 238.97033333333093,
      "v": 72
    },
    {
      "midi": 67,
      "hit": false,
      "t": 132793.97599999988,
      "d": 330.88200000001234,
      "v": 73
    },
    {
      "midi": 52,
      "hit": false,
      "t": 133235.15199999986,
      "d": 312.49966666664113,
      "v": 57
    },
    {
      "midi": 59,
      "hit": false,
      "t": 133235.15199999986,
      "d": 459.55833333331975,
      "v": 59
    },
    {
      "midi": 67,
      "hit": false,
      "t": 133235.15199999989,
      "d": 119.48516666668002,
      "v": 35
    },
    {
      "midi": 64,
      "hit": false,
      "t": 133235.15199999989,
      "d": 523.8965000000026,
      "v": 81
    },
    {
      "midi": 71,
      "hit": false,
      "t": 133235.15199999989,
      "d": 533.0876666666591,
      "v": 96
    },
    {
      "midi": 76,
      "hit": false,
      "t": 133235.15199999989,
      "d": 560.6611666666577,
      "v": 91
    },
    {
      "midi": 67,
      "hit": false,
      "t": 133676.3279999999,
      "d": 101.10283333330881,
      "v": 55
    },
    {
      "midi": 74,
      "hit": false,
      "t": 134108.3128333332,
      "d": 505.51416666666046,
      "v": 95
    },
    {
      "midi": 78,
      "hit": false,
      "t": 134108.3128333332,
      "d": 560.6611666666577,
      "v": 97
    },
    {
      "midi": 66,
      "hit": false,
      "t": 134117.50399999984,
      "d": 330.88199999998324,
      "v": 97
    },
    {
      "midi": 62,
      "hit": false,
      "t": 134117.50399999984,
      "d": 376.83783333332394,
      "v": 93
    },
    {
      "midi": 50,
      "hit": false,
      "t": 134117.50399999984,
      "d": 468.74949999997625,
      "v": 89
    },
    {
      "midi": 38,
      "hit": false,
      "t": 134117.50399999984,
      "d": 3281.2464999999793,
      "v": 91
    },
    {
      "midi": 62,
      "hit": false,
      "t": 134117.50399999987,
      "d": 560.6611666666577,
      "v": 77
    },
    {
      "midi": 50,
      "hit": false,
      "t": 134117.50399999987,
      "d": 3529.407999999996,
      "v": 85
    },
    {
      "midi": 50,
      "hit": false,
      "t": 134999.85599999983,
      "d": 367.64666666666744,
      "v": 78
    },
    {
      "midi": 66,
      "hit": false,
      "t": 134999.85599999983,
      "d": 2389.7033333333384,
      "v": 103
    },
    {
      "midi": 62,
      "hit": false,
      "t": 134999.85599999983,
      "d": 2435.65916666665,
      "v": 97
    },
    {
      "midi": 69,
      "hit": false,
      "t": 134999.85599999983,
      "d": 2472.423833333305,
      "v": 102
    },
    {
      "midi": 66,
      "hit": false,
      "t": 134999.85599999985,
      "d": 137.86749999999302,
      "v": 87
    },
    {
      "midi": 62,
      "hit": false,
      "t": 134999.85599999985,
      "d": 459.55833333331975,
      "v": 78
    },
    {
      "midi": 74,
      "hit": false,
      "t": 134999.85599999985,
      "d": 836.3961666666437,
      "v": 89
    },
    {
      "midi": 78,
      "hit": false,
      "t": 134999.85599999985,
      "d": 1185.6604999999981,
      "v": 91
    },
    {
      "midi": 66,
      "hit": false,
      "t": 135882.20799999984,
      "d": 487.13183333334746,
      "v": 40
    },
    {
      "midi": 62,
      "hit": false,
      "t": 135882.20799999984,
      "d": 569.8523333333433,
      "v": 47
    },
    {
      "midi": 74,
      "hit": false,
      "t": 136314.1928333332,
      "d": 404.41133333332255,
      "v": 104
    },
    {
      "midi": 66,
      "hit": false,
      "t": 136534.78083333318,
      "d": 376.83783333335305,
      "v": 72
    },
    {
      "midi": 69,
      "hit": false,
      "t": 136764.55999999985,
      "d": 238.97033333336003,
      "v": 52
    },
    {
      "midi": 62,
      "hit": false,
      "t": 136764.55999999985,
      "d": 321.69083333335584,
      "v": 61
    },
    {
      "midi": 76,
      "hit": false,
      "t": 136985.14799999987,
      "d": 441.17600000000675,
      "v": 108
    },
    {
      "midi": 62,
      "hit": false,
      "t": 137205.7359999999,
      "d": 110.29399999999441,
      "v": 58
    },
    {
      "midi": 66,
      "hit": false,
      "t": 137417.13283333322,
      "d": 110.29399999999441,
      "v": 10
    },
    {
      "midi": 69,
      "hit": false,
      "t": 137426.32399999988,
      "d": 82.72049999999581,
      "v": 58
    },
    {
      "midi": 78,
      "hit": false,
      "t": 137637.7208333332,
      "d": 946.6901666666381,
      "v": 95
    },
    {
      "midi": 62,
      "hit": false,
      "t": 137637.7208333332,
      "d": 1433.8219999999565,
      "v": 82
    },
    {
      "midi": 50,
      "hit": false,
      "t": 137646.9119999998,
      "d": 468.74950000000536,
      "v": 81
    },
    {
      "midi": 57,
      "hit": false,
      "t": 137646.9119999998,
      "d": 735.2933333333349,
      "v": 74
    },
    {
      "midi": 38,
      "hit": false,
      "t": 137646.9119999998,
      "d": 3106.614333333331,
      "v": 86
    },
    {
      "midi": 66,
      "hit": false,
      "t": 137646.9119999998,
      "d": 3226.099500000011,
      "v": 98
    },
    {
      "midi": 62,
      "hit": false,
      "t": 137646.9119999998,
      "d": 3244.4818333333533,
      "v": 88
    },
    {
      "midi": 69,
      "hit": false,
      "t": 137646.91199999987,
      "d": 404.41133333332255,
      "v": 87
    },
    {
      "midi": 74,
      "hit": false,
      "t": 138078.8968333332,
      "d": 542.2788333333156,
      "v": 70
    },
    {
      "midi": 69,
      "hit": false,
      "t": 138520.0728333332,
      "d": 762.8668333333044,
      "v": 82
    },
    {
      "midi": 78,
      "hit": false,
      "t": 138970.43999999983,
      "d": 257.35266666667303,
      "v": 89
    },
    {
      "midi": 79,
      "hit": false,
      "t": 139181.83683333316,
      "d": 174.63216666667722,
      "v": 86
    },
    {
      "midi": 57,
      "hit": false,
      "t": 139200.2191666665,
      "d": 119.48516666668002,
      "v": 65
    },
    {
      "midi": 59,
      "hit": false,
      "t": 139227.7926666665,
      "d": 147.05866666664951,
      "v": 81
    },
    {
      "midi": 60,
      "hit": false,
      "t": 139301.32199999984,
      "d": 119.48516666662181,
      "v": 84
    },
    {
      "midi": 61,
      "hit": false,
      "t": 139365.6601666665,
      "d": 91.9116666666232,
      "v": 80
    },
    {
      "midi": 62,
      "hit": false,
      "t": 139402.42483333315,
      "d": 1406.2484999999579,
      "v": 99
    },
    {
      "midi": 78,
      "hit": false,
      "t": 139411.6159999998,
      "d": 487.13183333331835,
      "v": 96
    },
    {
      "midi": 81,
      "hit": false,
      "t": 139411.6159999998,
      "d": 533.0876666666591,
      "v": 100
    },
    {
      "midi": 69,
      "hit": false,
      "t": 139623.0128333331,
      "d": 606.6170000000275,
      "v": 79
    },
    {
      "midi": 74,
      "hit": false,
      "t": 139852.79199999978,
      "d": 772.05799999999,
      "v": 80
    },
    {
      "midi": 78,
      "hit": false,
      "t": 140073.3799999998,
      "d": 588.2346666666272,
      "v": 74
    },
    {
      "midi": 83,
      "hit": false,
      "t": 140293.9679999998,
      "d": 275.73499999998603,
      "v": 102
    },
    {
      "midi": 74,
      "hit": false,
      "t": 140735.14399999977,
      "d": 101.10283333333791,
      "v": 60
    },
    {
      "midi": 78,
      "hit": false,
      "t": 140735.14399999977,
      "d": 211.39683333333232,
      "v": 76
    },
    {
      "midi": 81,
      "hit": false,
      "t": 140735.14399999977,
      "d": 266.54383333332953,
      "v": 96
    },
    {
      "midi": 67,
      "hit": false,
      "t": 141167.1288333331,
      "d": 238.97033333333093,
      "v": 79
    },
    {
      "midi": 79,
      "hit": false,
      "t": 141167.1288333331,
      "d": 431.98483333332115,
      "v": 87
    },
    {
      "midi": 64,
      "hit": false,
      "t": 141167.1288333331,
      "d": 597.4258333333419,
      "v": 70
    },
    {
      "midi": 52,
      "hit": false,
      "t": 141167.1288333331,
      "d": 3538.599166666623,
      "v": 80
    },
    {
      "midi": 76,
      "hit": false,
      "t": 141176.31999999975,
      "d": 487.13183333334746,
      "v": 84
    },
    {
      "midi": 64,
      "hit": false,
      "t": 141176.3199999998,
      "d": 2242.6446666666598,
      "v": 91
    },
    {
      "midi": 59,
      "hit": false,
      "t": 141176.3199999998,
      "d": 2261.027000000002,
      "v": 95
    },
    {
      "midi": 67,
      "hit": false,
      "t": 141176.3199999998,
      "d": 2444.8503333333356,
      "v": 94
    },
    {
      "midi": 52,
      "hit": false,
      "t": 141176.3199999998,
      "d": 2591.909000000014,
      "v": 84
    },
    {
      "midi": 40,
      "hit": false,
      "t": 141176.3199999998,
      "d": 3216.9083333333547,
      "v": 92
    },
    {
      "midi": 67,
      "hit": false,
      "t": 141617.49599999975,
      "d": 257.35266666667303,
      "v": 42
    },
    {
      "midi": 67,
      "hit": false,
      "t": 142058.67199999976,
      "d": 110.29399999999441,
      "v": 23
    },
    {
      "midi": 71,
      "hit": false,
      "t": 142058.67199999976,
      "d": 147.05866666664951,
      "v": 79
    },
    {
      "midi": 76,
      "hit": false,
      "t": 142058.67199999976,
      "d": 229.77916666664532,
      "v": 77
    },
    {
      "midi": 64,
      "hit": false,
      "t": 142058.67199999976,
      "d": 606.6169999999693,
      "v": 56
    },
    {
      "midi": 69,
      "hit": false,
      "t": 142499.84799999974,
      "d": 266.54383333332953,
      "v": 81
    },
    {
      "midi": 76,
      "hit": false,
      "t": 142499.84799999974,
      "d": 744.4845000000205,
      "v": 68
    },
    {
      "midi": 71,
      "hit": false,
      "t": 142720.43599999973,
      "d": 238.97033333336003,
      "v": 79
    },
    {
      "midi": 67,
      "hit": false,
      "t": 142941.02399999974,
      "d": 487.13183333334746,
      "v": 86
    },
    {
      "midi": 64,
      "hit": false,
      "t": 142941.02399999974,
      "d": 670.9551666666812,
      "v": 80
    },
    {
      "midi": 71,
      "hit": false,
      "t": 143373.0088333331,
      "d": 303.30850000001374,
      "v": 79
    },
    {
      "midi": 76,
      "hit": false,
      "t": 143602.78799999977,
      "d": 55.146999999997206,
      "v": 66
    },
    {
      "midi": 67,
      "hit": false,
      "t": 143814.1848333331,
      "d": 110.29399999999441,
      "v": 90
    },
    {
      "midi": 76,
      "hit": false,
      "t": 143814.1848333331,
      "d": 312.49966666667024,
      "v": 99
    },
    {
      "midi": 71,
      "hit": false,
      "t": 143814.1848333331,
      "d": 386.02900000000955,
      "v": 100
    },
    {
      "midi": 64,
      "hit": false,
      "t": 143814.1848333331,
      "d": 514.705333333317,
      "v": 81
    },
    {
      "midi": 67,
      "hit": false,
      "t": 144043.96399999977,
      "d": 275.73499999998603,
      "v": 76
    },
    {
      "midi": 72,
      "hit": false,
      "t": 144264.55199999976,
      "d": 229.77916666664532,
      "v": 104
    },
    {
      "midi": 76,
      "hit": false,
      "t": 144264.55199999976,
      "d": 294.11733333329903,
      "v": 95
    },
    {
      "midi": 52,
      "hit": false,
      "t": 144264.55199999982,
      "d": 174.63216666667722,
      "v": 57
    },
    {
      "midi": 67,
      "hit": false,
      "t": 144264.55199999982,
      "d": 284.92616666667163,
      "v": 93
    },
    {
      "midi": 71,
      "hit": false,
      "t": 144264.55199999982,
      "d": 303.30850000001374,
      "v": 101
    },
    {
      "midi": 67,
      "hit": false,
      "t": 144475.9488333331,
      "d": 110.29399999996531,
      "v": 74
    },
    {
      "midi": 64,
      "hit": false,
      "t": 144485.13999999975,
      "d": 64.3381666666537,
      "v": 58
    },
    {
      "midi": 72,
      "hit": false,
      "t": 144485.13999999984,
      "d": 119.48516666665091,
      "v": 93
    },
    {
      "midi": 67,
      "hit": false,
      "t": 144696.53683333306,
      "d": 183.82333333333372,
      "v": 87
    },
    {
      "midi": 73,
      "hit": false,
      "t": 144696.53683333306,
      "d": 560.6611666666577,
      "v": 91
    },
    {
      "midi": 76,
      "hit": false,
      "t": 144696.53683333306,
      "d": 615.8081666666549,
      "v": 90
    },
    {
      "midi": 64,
      "hit": false,
      "t": 144705.7279999997,
      "d": 523.8965000000026,
      "v": 79
    },
    {
      "midi": 52,
      "hit": false,
      "t": 144705.7279999997,
      "d": 3033.0849999999336,
      "v": 81
    },
    {
      "midi": 67,
      "hit": false,
      "t": 144705.7279999998,
      "d": 3106.614333333331,
      "v": 97
    },
    {
      "midi": 73,
      "hit": false,
      "t": 144705.7279999998,
      "d": 3106.614333333331,
      "v": 110
    },
    {
      "midi": 64,
      "hit": false,
      "t": 144705.7279999998,
      "d": 3115.8054999999877,
      "v": 91
    },
    {
      "midi": 40,
      "hit": false,
      "t": 144705.7279999998,
      "d": 3134.1878333333298,
      "v": 97
    },
    {
      "midi": 52,
      "hit": false,
      "t": 144705.7279999998,
      "d": 3143.3789999999863,
      "v": 93
    },
    {
      "midi": 67,
      "hit": false,
      "t": 145146.90399999972,
      "d": 193.01449999999022,
      "v": 17
    },
    {
      "midi": 67,
      "hit": false,
      "t": 145588.0799999997,
      "d": 110.29399999999441,
      "v": 66
    },
    {
      "midi": 64,
      "hit": false,
      "t": 145588.0799999997,
      "d": 395.22016666666605,
      "v": 69
    },
    {
      "midi": 73,
      "hit": false,
      "t": 145588.0799999997,
      "d": 542.2788333333447,
      "v": 81
    },
    {
      "midi": 76,
      "hit": false,
      "t": 145588.0799999997,
      "d": 744.4845000000205,
      "v": 84
    },
    {
      "midi": 67,
      "hit": false,
      "t": 146029.2559999997,
      "d": 321.69083333335584,
      "v": 40
    },
    {
      "midi": 67,
      "hit": false,
      "t": 146461.24083333305,
      "d": 147.05866666664951,
      "v": 66
    },
    {
      "midi": 73,
      "hit": false,
      "t": 146470.4319999997,
      "d": 431.98483333332115,
      "v": 77
    },
    {
      "midi": 64,
      "hit": false,
      "t": 146470.4319999997,
      "d": 624.9993333332823,
      "v": 68
    },
    {
      "midi": 76,
      "hit": false,
      "t": 146470.4319999997,
      "d": 1378.6749999999302,
      "v": 66
    },
    {
      "midi": 67,
      "hit": false,
      "t": 146911.6079999997,
      "d": 91.91166666665231,
      "v": 36
    },
    {
      "midi": 67,
      "hit": false,
      "t": 147132.19599999965,
      "d": 110.29399999999441,
      "v": 52
    },
    {
      "midi": 67,
      "hit": false,
      "t": 147352.78399999964,
      "d": 147.05866666667862,
      "v": 77
    },
    {
      "midi": 73,
      "hit": false,
      "t": 147352.78399999964,
      "d": 459.55833333334886,
      "v": 81
    },
    {
      "midi": 64,
      "hit": false,
      "t": 147352.78399999964,
      "d": 634.190499999997,
      "v": 79
    },
    {
      "midi": 67,
      "hit": false,
      "t": 147793.95999999964,
      "d": 110.29399999999441,
      "v": 57
    },
    {
      "midi": 69,
      "hit": false,
      "t": 148235.13599999962,
      "d": 606.6169999999984,
      "v": 102
    },
    {
      "midi": 74,
      "hit": false,
      "t": 148235.13599999962,
      "d": 670.9551666666521,
      "v": 105
    },
    {
      "midi": 78,
      "hit": false,
      "t": 148235.13599999962,
      "d": 680.1463333333086,
      "v": 107
    },
    {
      "midi": 62,
      "hit": false,
      "t": 148235.13599999962,
      "d": 1525.7336666666379,
      "v": 108
    },
    {
      "midi": 38,
      "hit": false,
      "t": 148235.1359999998,
      "d": 3097.4231666666456,
      "v": 92
    },
    {
      "midi": 57,
      "hit": false,
      "t": 148235.1359999998,
      "d": 3244.481833333324,
      "v": 86
    },
    {
      "midi": 66,
      "hit": false,
      "t": 148235.1359999998,
      "d": 3244.481833333324,
      "v": 99
    },
    {
      "midi": 50,
      "hit": false,
      "t": 148235.1359999998,
      "d": 3299.6288333333214,
      "v": 91
    },
    {
      "midi": 62,
      "hit": false,
      "t": 148235.1359999998,
      "d": 3345.584666666662,
      "v": 88
    },
    {
      "midi": 69,
      "hit": false,
      "t": 149117.4879999996,
      "d": 284.92616666667163,
      "v": 98
    },
    {
      "midi": 78,
      "hit": false,
      "t": 149117.4879999996,
      "d": 588.2346666666563,
      "v": 108
    },
    {
      "midi": 74,
      "hit": false,
      "t": 149117.4879999996,
      "d": 606.6169999999984,
      "v": 107
    },
    {
      "midi": 69,
      "hit": false,
      "t": 149558.6639999996,
      "d": 137.86749999999302,
      "v": 38
    },
    {
      "midi": 57,
      "hit": false,
      "t": 149788.44316666626,
      "d": 156.24983333330601,
      "v": 78
    },
    {
      "midi": 59,
      "hit": false,
      "t": 149825.2078333329,
      "d": 137.86749999999302,
      "v": 86
    },
    {
      "midi": 60,
      "hit": false,
      "t": 149889.54599999957,
      "d": 101.10283333333791,
      "v": 83
    },
    {
      "midi": 61,
      "hit": false,
      "t": 149935.5018333329,
      "d": 101.10283333330881,
      "v": 95
    },
    {
      "midi": 62,
      "hit": false,
      "t": 149990.6488333329,
      "d": 661.7639999999665,
      "v": 104
    },
    {
      "midi": 69,
      "hit": false,
      "t": 149999.83999999956,
      "d": 110.29399999999441,
      "v": 98
    },
    {
      "midi": 74,
      "hit": false,
      "t": 149999.83999999956,
      "d": 147.05866666664951,
      "v": 103
    },
    {
      "midi": 78,
      "hit": false,
      "t": 149999.83999999956,
      "d": 174.63216666664812,
      "v": 103
    },
    {
      "midi": 71,
      "hit": false,
      "t": 150220.42799999955,
      "d": 477.94066666666185,
      "v": 103
    },
    {
      "midi": 79,
      "hit": false,
      "t": 150220.42799999955,
      "d": 477.94066666666185,
      "v": 104
    },
    {
      "midi": 74,
      "hit": false,
      "t": 150220.42799999955,
      "d": 514.705333333317,
      "v": 96
    },
    {
      "midi": 57,
      "hit": false,
      "t": 150624.83933333287,
      "d": 156.24983333333512,
      "v": 80
    },
    {
      "midi": 59,
      "hit": false,
      "t": 150679.98633333287,
      "d": 147.05866666667862,
      "v": 87
    },
    {
      "midi": 60,
      "hit": false,
      "t": 150753.5156666662,
      "d": 101.10283333333791,
      "v": 90
    },
    {
      "midi": 61,
      "hit": false,
      "t": 150799.47149999955,
      "d": 82.72049999999581,
      "v": 91
    },
    {
      "midi": 62,
      "hit": false,
      "t": 150836.2361666662,
      "d": 836.3961666666437,
      "v": 99
    },
    {
      "midi": 71,
      "hit": false,
      "t": 150882.19199999954,
      "d": 110.29399999999441,
      "v": 104
    },
    {
      "midi": 74,
      "hit": false,
      "t": 150882.19199999954,
      "d": 119.48516666665091,
      "v": 102
    },
    {
      "midi": 79,
      "hit": false,
      "t": 150882.19199999954,
      "d": 156.24983333330601,
      "v": 105
    },
    {
      "midi": 69,
      "hit": false,
      "t": 151102.7799999995,
      "d": 441.17600000000675,
      "v": 103
    },
    {
      "midi": 74,
      "hit": false,
      "t": 151102.7799999995,
      "d": 450.36716666666325,
      "v": 108
    },
    {
      "midi": 78,
      "hit": false,
      "t": 151102.7799999995,
      "d": 468.74950000000536,
      "v": 108
    },
    {
      "midi": 67,
      "hit": false,
      "t": 151755.35283333284,
      "d": 229.77916666667443,
      "v": 90
    },
    {
      "midi": 64,
      "hit": false,
      "t": 151755.35283333284,
      "d": 569.8523333333433,
      "v": 79
    },
    {
      "midi": 71,
      "hit": false,
      "t": 151755.35283333284,
      "d": 606.6169999999984,
      "v": 92
    },
    {
      "midi": 76,
      "hit": false,
      "t": 151755.35283333284,
      "d": 661.7639999999956,
      "v": 95
    },
    {
      "midi": 79,
      "hit": false,
      "t": 151755.35283333284,
      "d": 661.7639999999956,
      "v": 95
    },
    {
      "midi": 52,
      "hit": false,
      "t": 151755.35283333284,
      "d": 3290.4376666666067,
      "v": 91
    },
    {
      "midi": 52,
      "hit": false,
      "t": 151764.5439999998,
      "d": 2849.261666666658,
      "v": 89
    },
    {
      "midi": 40,
      "hit": false,
      "t": 151764.5439999998,
      "d": 3051.467333333334,
      "v": 95
    },
    {
      "midi": 59,
      "hit": false,
      "t": 151764.5439999998,
      "d": 3088.231999999989,
      "v": 91
    },
    {
      "midi": 64,
      "hit": false,
      "t": 151764.5439999998,
      "d": 3115.8054999999877,
      "v": 88
    },
    {
      "midi": 67,
      "hit": false,
      "t": 151764.5439999998,
      "d": 3152.5701666666428,
      "v": 94
    },
    {
      "midi": 67,
      "hit": false,
      "t": 152205.7199999995,
      "d": 202.20566666667582,
      "v": 33
    },
    {
      "midi": 67,
      "hit": false,
      "t": 152646.8959999995,
      "d": 128.67633333333652,
      "v": 86
    },
    {
      "midi": 64,
      "hit": false,
      "t": 152646.8959999995,
      "d": 431.98483333335025,
      "v": 78
    },
    {
      "midi": 71,
      "hit": false,
      "t": 152646.8959999995,
      "d": 533.0876666666591,
      "v": 89
    },
    {
      "midi": 76,
      "hit": false,
      "t": 152646.8959999995,
      "d": 597.4258333333128,
      "v": 94
    },
    {
      "midi": 79,
      "hit": false,
      "t": 152646.8959999995,
      "d": 661.7639999999665,
      "v": 95
    },
    {
      "midi": 67,
      "hit": false,
      "t": 153088.07199999952,
      "d": 220.58799999995972,
      "v": 49
    },
    {
      "midi": 76,
      "hit": false,
      "t": 153520.0568333328,
      "d": 689.3374999999651,
      "v": 90
    },
    {
      "midi": 69,
      "hit": false,
      "t": 153529.24799999947,
      "d": 275.73499999998603,
      "v": 97
    },
    {
      "midi": 64,
      "hit": false,
      "t": 153529.24799999947,
      "d": 477.94066666663275,
      "v": 87
    },
    {
      "midi": 79,
      "hit": false,
      "t": 153529.24799999947,
      "d": 661.7639999999665,
      "v": 95
    },
    {
      "midi": 71,
      "hit": false,
      "t": 153749.83599999946,
      "d": 257.3526666666439,
      "v": 85
    },
    {
      "midi": 67,
      "hit": false,
      "t": 153970.42399999945,
      "d": 358.45550000001094,
      "v": 78
    },
    {
      "midi": 64,
      "hit": false,
      "t": 154411.59999999945,
      "d": 533.0876666666591,
      "v": 89
    },
    {
      "midi": 71,
      "hit": false,
      "t": 154411.59999999945,
      "d": 542.2788333333156,
      "v": 98
    },
    {
      "midi": 76,
      "hit": false,
      "t": 154411.59999999945,
      "d": 588.2346666666563,
      "v": 98
    },
    {
      "midi": 79,
      "hit": false,
      "t": 154411.59999999945,
      "d": 661.7639999999956,
      "v": 95
    },
    {
      "midi": 67,
      "hit": false,
      "t": 154852.77599999946,
      "d": 147.05866666664951,
      "v": 71
    },
    {
      "midi": 67,
      "hit": false,
      "t": 155284.76083333278,
      "d": 312.49966666667024,
      "v": 91
    },
    {
      "midi": 76,
      "hit": false,
      "t": 155284.76083333278,
      "d": 551.4700000000012,
      "v": 97
    },
    {
      "midi": 72,
      "hit": false,
      "t": 155284.76083333278,
      "d": 624.9993333333405,
      "v": 104
    },
    {
      "midi": 60,
      "hit": false,
      "t": 155293.95199999944,
      "d": 496.32300000000396,
      "v": 97
    },
    {
      "midi": 48,
      "hit": false,
      "t": 155293.95199999944,
      "d": 3060.6584999999614,
      "v": 97
    },
    {
      "midi": 55,
      "hit": false,
      "t": 155293.95199999976,
      "d": 1783.08633333334,
      "v": 90
    },
    {
      "midi": 36,
      "hit": false,
      "t": 155293.95199999976,
      "d": 2325.3651666666847,
      "v": 102
    },
    {
      "midi": 60,
      "hit": false,
      "t": 155293.95199999976,
      "d": 2334.556333333341,
      "v": 99
    },
    {
      "midi": 48,
      "hit": false,
      "t": 155293.95199999976,
      "d": 2343.7474999999977,
      "v": 103
    },
    {
      "midi": 64,
      "hit": false,
      "t": 155293.95199999976,
      "d": 2371.3209999999963,
      "v": 97
    },
    {
      "midi": 67,
      "hit": false,
      "t": 155293.95199999976,
      "d": 2371.3209999999963,
      "v": 92
    },
    {
      "midi": 67,
      "hit": false,
      "t": 156176.30399999945,
      "d": 91.91166666665231,
      "v": 83
    },
    {
      "midi": 72,
      "hit": false,
      "t": 156176.30399999945,
      "d": 110.29399999999441,
      "v": 91
    },
    {
      "midi": 76,
      "hit": false,
      "t": 156176.30399999945,
      "d": 119.48516666665091,
      "v": 89
    },
    {
      "midi": 60,
      "hit": false,
      "t": 156176.30399999945,
      "d": 330.88199999998324,
      "v": 87
    },
    {
      "midi": 76,
      "hit": false,
      "t": 156838.06799999945,
      "d": 73.52933333333931,
      "v": 97
    },
    {
      "midi": 72,
      "hit": false,
      "t": 156838.06799999945,
      "d": 82.72049999999581,
      "v": 107
    },
    {
      "midi": 79,
      "hit": false,
      "t": 156838.06799999945,
      "d": 91.91166666665231,
      "v": 111
    },
    {
      "midi": 72,
      "hit": false,
      "t": 157049.46483333278,
      "d": 422.79366666666465,
      "v": 111
    },
    {
      "midi": 76,
      "hit": false,
      "t": 157049.46483333278,
      "d": 477.94066666666185,
      "v": 101
    },
    {
      "midi": 79,
      "hit": false,
      "t": 157049.46483333278,
      "d": 496.32300000000396,
      "v": 114
    },
    {
      "midi": 60,
      "hit": false,
      "t": 157058.65599999944,
      "d": 174.63216666667722,
      "v": 98
    },
    {
      "midi": 60,
      "hit": false,
      "t": 157499.83199999944,
      "d": 156.24983333333512,
      "v": 28
    },
    {
      "midi": 84,
      "hit": false,
      "t": 157720.41999999943,
      "d": 36.7646666666551,
      "v": 89
    },
    {
      "midi": 79,
      "hit": false,
      "t": 157720.41999999943,
      "d": 64.3381666666537,
      "v": 107
    },
    {
      "midi": 88,
      "hit": false,
      "t": 157720.41999999943,
      "d": 73.5293333333102,
      "v": 93
    },
    {
      "midi": 91,
      "hit": false,
      "t": 157720.41999999943,
      "d": 101.10283333330881,
      "v": 109
    },
    {
      "midi": 60,
      "hit": false,
      "t": 157931.81683333273,
      "d": 156.24983333333512,
      "v": 87
    },
    {
      "midi": 79,
      "hit": false,
      "t": 157931.81683333273,
      "d": 588.2346666666563,
      "v": 118
    },
    {
      "midi": 84,
      "hit": false,
      "t": 157931.81683333273,
      "d": 588.2346666666563,
      "v": 109
    },
    {
      "midi": 88,
      "hit": false,
      "t": 157931.81683333273,
      "d": 643.3816666666535,
      "v": 109
    },
    {
      "midi": 91,
      "hit": false,
      "t": 157931.81683333273,
      "d": 680.1463333333086,
      "v": 122
    },
    {
      "midi": 67,
      "hit": false,
      "t": 158823.35999999937,
      "d": 689.3374999999942,
      "v": 108
    },
    {
      "midi": 74,
      "hit": false,
      "t": 158823.35999999937,
      "d": 707.7198333333363,
      "v": 113
    },
    {
      "midi": 71,
      "hit": false,
      "t": 158823.35999999937,
      "d": 716.9109999999928,
      "v": 108
    },
    {
      "midi": 55,
      "hit": false,
      "t": 158823.35999999937,
      "d": 955.8813333333237,
      "v": 100
    },
    {
      "midi": 55,
      "hit": false,
      "t": 158823.35999999975,
      "d": 1433.8219999999856,
      "v": 94
    },
    {
      "midi": 62,
      "hit": false,
      "t": 158823.35999999975,
      "d": 1470.5866666666407,
      "v": 96
    },
    {
      "midi": 71,
      "hit": false,
      "t": 158823.35999999975,
      "d": 1498.1601666666393,
      "v": 101
    },
    {
      "midi": 67,
      "hit": false,
      "t": 158823.35999999975,
      "d": 1516.5424999999814,
      "v": 95
    },
    {
      "midi": 67,
      "hit": false,
      "t": 159705.71199999936,
      "d": 496.32300000000396,
      "v": 100
    },
    {
      "midi": 71,
      "hit": false,
      "t": 159705.71199999936,
      "d": 533.0876666666591,
      "v": 103
    },
    {
      "midi": 74,
      "hit": false,
      "t": 159705.71199999936,
      "d": 551.4700000000012,
      "v": 107
    },
    {
      "midi": 55,
      "hit": false,
      "t": 160146.88799999937,
      "d": 183.82333333333372,
      "v": 76
    },
    {
      "midi": 65,
      "hit": false,
      "t": 160578.8728333327,
      "d": 569.8523333333142,
      "v": 100
    },
    {
      "midi": 69,
      "hit": false,
      "t": 160578.8728333327,
      "d": 588.2346666666563,
      "v": 97
    },
    {
      "midi": 74,
      "hit": false,
      "t": 160578.8728333327,
      "d": 606.6169999999984,
      "v": 107
    },
    {
      "midi": 53,
      "hit": false,
      "t": 160588.06399999934,
      "d": 900.7343333333265,
      "v": 95
    },
    {
      "midi": 60,
      "hit": false,
      "t": 160588.06399999972,
      "d": 1553.3071666666656,
      "v": 89
    },
    {
      "midi": 65,
      "hit": false,
      "t": 160588.06399999972,
      "d": 1562.498333333322,
      "v": 88
    },
    {
      "midi": 53,
      "hit": false,
      "t": 160588.06399999972,
      "d": 1580.8806666666642,
      "v": 91
    },
    {
      "midi": 69,
      "hit": false,
      "t": 160588.06399999972,
      "d": 1599.2630000000063,
      "v": 94
    },
    {
      "midi": 69,
      "hit": false,
      "t": 161461.22483333267,
      "d": 477.94066666666185,
      "v": 96
    },
    {
      "midi": 65,
      "hit": false,
      "t": 161461.22483333267,
      "d": 533.0876666666591,
      "v": 101
    },
    {
      "midi": 74,
      "hit": false,
      "t": 161461.22483333267,
      "d": 533.0876666666591,
      "v": 105
    },
    {
      "midi": 53,
      "hit": false,
      "t": 161902.40083333268,
      "d": 183.82333333330462,
      "v": 67
    },
    {
      "midi": 64,
      "hit": false,
      "t": 162343.57683333266,
      "d": 560.6611666666577,
      "v": 103
    },
    {
      "midi": 60,
      "hit": false,
      "t": 162343.57683333266,
      "d": 588.2346666666563,
      "v": 92
    },
    {
      "midi": 67,
      "hit": false,
      "t": 162343.57683333266,
      "d": 588.2346666666563,
      "v": 98
    },
    {
      "midi": 74,
      "hit": false,
      "t": 162343.57683333266,
      "d": 624.9993333333114,
      "v": 110
    },
    {
      "midi": 48,
      "hit": false,
      "t": 162343.57683333266,
      "d": 1011.0283333333209,
      "v": 96
    },
    {
      "midi": 48,
      "hit": false,
      "t": 162352.76799999972,
      "d": 1240.8074999999953,
      "v": 87
    },
    {
      "midi": 67,
      "hit": false,
      "t": 162352.76799999972,
      "d": 3253.67300000001,
      "v": 94
    },
    {
      "midi": 60,
      "hit": false,
      "t": 162352.76799999972,
      "d": 3272.055333333352,
      "v": 92
    },
    {
      "midi": 64,
      "hit": false,
      "t": 162352.76799999972,
      "d": 3354.7758333333477,
      "v": 91
    },
    {
      "midi": 60,
      "hit": false,
      "t": 163235.1199999993,
      "d": 413.60250000000815,
      "v": 79
    },
    {
      "midi": 67,
      "hit": false,
      "t": 163235.1199999993,
      "d": 533.0876666666882,
      "v": 97
    },
    {
      "midi": 64,
      "hit": false,
      "t": 163235.1199999993,
      "d": 560.6611666666868,
      "v": 99
    },
    {
      "midi": 74,
      "hit": false,
      "t": 163235.1199999993,
      "d": 983.4548333333514,
      "v": 107
    },
    {
      "midi": 48,
      "hit": false,
      "t": 163667.10483333265,
      "d": 156.24983333333512,
      "v": 63
    },
    {
      "midi": 48,
      "hit": false,
      "t": 164117.4719999993,
      "d": 257.35266666667303,
      "v": 105
    },
    {
      "midi": 64,
      "hit": false,
      "t": 164117.4719999993,
      "d": 284.92616666667163,
      "v": 98
    },
    {
      "midi": 67,
      "hit": false,
      "t": 164117.4719999993,
      "d": 284.92616666667163,
      "v": 101
    },
    {
      "midi": 76,
      "hit": false,
      "t": 164549.45683333266,
      "d": 330.88199999998324,
      "v": 94
    },
    {
      "midi": 79,
      "hit": false,
      "t": 164549.45683333266,
      "d": 487.13183333331835,
      "v": 109
    },
    {
      "midi": 67,
      "hit": false,
      "t": 164770.04483333265,
      "d": 330.88199999998324,
      "v": 85
    },
    {
      "midi": 60,
      "hit": false,
      "t": 164999.82399999932,
      "d": 110.29399999996531,
      "v": 45
    },
    {
      "midi": 72,
      "hit": false,
      "t": 164999.82399999932,
      "d": 147.0586666666204,
      "v": 84
    },
    {
      "midi": 76,
      "hit": false,
      "t": 165220.41199999928,
      "d": 496.32299999997485,
      "v": 100
    },
    {
      "midi": 79,
      "hit": false,
      "t": 165220.41199999928,
      "d": 569.8523333333142,
      "v": 109
    },
    {
      "midi": 60,
      "hit": false,
      "t": 165440.99999999927,
      "d": 358.45549999998184,
      "v": 66
    },
    {
      "midi": 67,
      "hit": false,
      "t": 165652.3968333326,
      "d": 110.29399999999441,
      "v": 71
    },
    {
      "midi": 67,
      "hit": false,
      "t": 165872.9848333326,
      "d": 661.7639999999956,
      "v": 94
    },
    {
      "midi": 71,
      "hit": false,
      "t": 165872.9848333326,
      "d": 661.7639999999956,
      "v": 94
    },
    {
      "midi": 74,
      "hit": false,
      "t": 165872.9848333326,
      "d": 670.9551666666521,
      "v": 100
    },
    {
      "midi": 55,
      "hit": false,
      "t": 165872.9848333326,
      "d": 1038.6018333333195,
      "v": 95
    },
    {
      "midi": 67,
      "hit": false,
      "t": 165882.17599999974,
      "d": 1470.5866666666698,
      "v": 93
    },
    {
      "midi": 71,
      "hit": false,
      "t": 165882.17599999974,
      "d": 1507.3513333333249,
      "v": 102
    },
    {
      "midi": 55,
      "hit": false,
      "t": 165882.17599999974,
      "d": 1562.498333333322,
      "v": 91
    },
    {
      "midi": 62,
      "hit": false,
      "t": 165882.17599999974,
      "d": 1562.498333333322,
      "v": 97
    },
    {
      "midi": 71,
      "hit": false,
      "t": 166764.52799999923,
      "d": 615.808166666684,
      "v": 101
    },
    {
      "midi": 74,
      "hit": false,
      "t": 166764.52799999923,
      "d": 615.808166666684,
      "v": 107
    },
    {
      "midi": 67,
      "hit": false,
      "t": 166764.52799999923,
      "d": 624.9993333333405,
      "v": 95
    },
    {
      "midi": 55,
      "hit": false,
      "t": 167196.51283333258,
      "d": 450.36716666663415,
      "v": 84
    },
    {
      "midi": 65,
      "hit": false,
      "t": 167637.68883333256,
      "d": 661.7639999999956,
      "v": 96
    },
    {
      "midi": 69,
      "hit": false,
      "t": 167637.68883333256,
      "d": 670.9551666666521,
      "v": 96
    },
    {
      "midi": 74,
      "hit": false,
      "t": 167637.68883333256,
      "d": 680.1463333333086,
      "v": 103
    },
    {
      "midi": 53,
      "hit": false,
      "t": 167637.68883333256,
      "d": 974.2636666666367,
      "v": 102
    },
    {
      "midi": 53,
      "hit": false,
      "t": 167646.87999999974,
      "d": 1323.5279999999912,
      "v": 102
    },
    {
      "midi": 69,
      "hit": false,
      "t": 167646.87999999974,
      "d": 1351.1014999999898,
      "v": 96
    },
    {
      "midi": 65,
      "hit": false,
      "t": 167646.87999999974,
      "d": 1378.6749999999884,
      "v": 89
    },
    {
      "midi": 72,
      "hit": false,
      "t": 167646.87999999974,
      "d": 1424.630833333329,
      "v": 102
    },
    {
      "midi": 69,
      "hit": false,
      "t": 168529.2319999992,
      "d": 312.49966666667024,
      "v": 101
    },
    {
      "midi": 74,
      "hit": false,
      "t": 168529.2319999992,
      "d": 367.64666666666744,
      "v": 108
    },
    {
      "midi": 65,
      "hit": false,
      "t": 168529.2319999992,
      "d": 376.83783333332394,
      "v": 102
    },
    {
      "midi": 53,
      "hit": false,
      "t": 168970.40799999918,
      "d": 413.60250000000815,
      "v": 69
    },
    {
      "midi": 77,
      "hit": false,
      "t": 169402.39283333253,
      "d": 615.8081666666549,
      "v": 99
    },
    {
      "midi": 70,
      "hit": false,
      "t": 169411.5839999992,
      "d": 597.4258333333419,
      "v": 99
    },
    {
      "midi": 65,
      "hit": false,
      "t": 169411.5839999992,
      "d": 615.8081666666549,
      "v": 94
    },
    {
      "midi": 58,
      "hit": false,
      "t": 169411.5839999992,
      "d": 624.9993333333114,
      "v": 102
    },
    {
      "midi": 74,
      "hit": false,
      "t": 169411.5839999992,
      "d": 624.9993333333114,
      "v": 99
    },
    {
      "midi": 46,
      "hit": false,
      "t": 169411.5839999992,
      "d": 1029.410666666663,
      "v": 102
    },
    {
      "midi": 70,
      "hit": false,
      "t": 169411.58399999974,
      "d": 3170.952499999985,
      "v": 104
    },
    {
      "midi": 58,
      "hit": false,
      "t": 169411.58399999974,
      "d": 3235.2906666666386,
      "v": 100
    },
    {
      "midi": 62,
      "hit": false,
      "t": 169411.58399999974,
      "d": 3290.437666666636,
      "v": 97
    },
    {
      "midi": 65,
      "hit": false,
      "t": 169411.58399999974,
      "d": 3299.6288333332923,
      "v": 96
    },
    {
      "midi": 58,
      "hit": false,
      "t": 170293.93599999917,
      "d": 404.41133333335165,
      "v": 94
    },
    {
      "midi": 70,
      "hit": false,
      "t": 170293.93599999917,
      "d": 450.36716666666325,
      "v": 106
    },
    {
      "midi": 65,
      "hit": false,
      "t": 170293.93599999917,
      "d": 468.74950000000536,
      "v": 110
    },
    {
      "midi": 74,
      "hit": false,
      "t": 170293.93599999917,
      "d": 496.32300000000396,
      "v": 103
    },
    {
      "midi": 77,
      "hit": false,
      "t": 170293.93599999917,
      "d": 514.7053333333461,
      "v": 109
    },
    {
      "midi": 46,
      "hit": false,
      "t": 170735.11199999918,
      "d": 55.146999999997206,
      "v": 38
    },
    {
      "midi": 70,
      "hit": false,
      "t": 171167.09683333253,
      "d": 266.54383333332953,
      "v": 113
    },
    {
      "midi": 82,
      "hit": false,
      "t": 171167.09683333253,
      "d": 284.92616666667163,
      "v": 114
    },
    {
      "midi": 74,
      "hit": false,
      "t": 171167.09683333253,
      "d": 294.11733333332813,
      "v": 104
    },
    {
      "midi": 77,
      "hit": false,
      "t": 171396.8759999992,
      "d": 294.11733333332813,
      "v": 91
    },
    {
      "midi": 70,
      "hit": false,
      "t": 171617.4639999992,
      "d": 275.73500000001513,
      "v": 108
    },
    {
      "midi": 82,
      "hit": false,
      "t": 171617.4639999992,
      "d": 284.92616666667163,
      "v": 108
    },
    {
      "midi": 74,
      "hit": false,
      "t": 171617.4639999992,
      "d": 312.49966666667024,
      "v": 98
    },
    {
      "midi": 82,
      "hit": false,
      "t": 172049.44883333254,
      "d": 303.30849999998463,
      "v": 106
    },
    {
      "midi": 74,
      "hit": false,
      "t": 172058.6399999992,
      "d": 330.88199999998324,
      "v": 105
    },
    {
      "midi": 70,
      "hit": false,
      "t": 172058.6399999992,
      "d": 854.7784999999567,
      "v": 109
    },
    {
      "midi": 79,
      "hit": false,
      "t": 172270.03683333253,
      "d": 551.4699999999721,
      "v": 91
    },
    {
      "midi": 74,
      "hit": false,
      "t": 172499.81599999918,
      "d": 275.73499999998603,
      "v": 108
    },
    {
      "midi": 67,
      "hit": false,
      "t": 172931.8008333325,
      "d": 643.3816666666535,
      "v": 89
    },
    {
      "midi": 74,
      "hit": false,
      "t": 172931.8008333325,
      "d": 680.1463333333086,
      "v": 101
    },
    {
      "midi": 79,
      "hit": false,
      "t": 172931.8008333325,
      "d": 680.1463333333086,
      "v": 98
    },
    {
      "midi": 71,
      "hit": false,
      "t": 172931.8008333325,
      "d": 698.5286666666507,
      "v": 101
    },
    {
      "midi": 55,
      "hit": false,
      "t": 172931.8008333325,
      "d": 1295.9544999999634,
      "v": 92
    },
    {
      "midi": 62,
      "hit": false,
      "t": 172940.9919999997,
      "d": 1580.8806666666642,
      "v": 94
    },
    {
      "midi": 71,
      "hit": false,
      "t": 172940.9919999997,
      "d": 1590.0718333333207,
      "v": 99
    },
    {
      "midi": 67,
      "hit": false,
      "t": 172940.9919999997,
      "d": 1608.4541666666628,
      "v": 90
    },
    {
      "midi": 55,
      "hit": false,
      "t": 172940.9919999997,
      "d": 1663.60116666666,
      "v": 95
    },
    {
      "midi": 71,
      "hit": false,
      "t": 173823.34399999914,
      "d": 487.13183333331835,
      "v": 101
    },
    {
      "midi": 79,
      "hit": false,
      "t": 173823.34399999914,
      "d": 505.51416666666046,
      "v": 98
    },
    {
      "midi": 74,
      "hit": false,
      "t": 173823.34399999914,
      "d": 533.0876666666591,
      "v": 101
    },
    {
      "midi": 67,
      "hit": false,
      "t": 173823.34399999914,
      "d": 560.6611666666577,
      "v": 89
    },
    {
      "midi": 81,
      "hit": false,
      "t": 174043.93199999913,
      "d": 303.30850000001374,
      "v": 89
    },
    {
      "midi": 83,
      "hit": false,
      "t": 174264.51999999912,
      "d": 229.77916666667443,
      "v": 105
    },
    {
      "midi": 62,
      "hit": false,
      "t": 174485.10799999913,
      "d": 91.91166666665231,
      "v": 69
    },
    {
      "midi": 71,
      "hit": false,
      "t": 174705.69599999912,
      "d": 248.16149999998743,
      "v": 104
    },
    {
      "midi": 66,
      "hit": false,
      "t": 174705.69599999912,
      "d": 514.705333333317,
      "v": 86
    },
    {
      "midi": 74,
      "hit": false,
      "t": 174705.69599999912,
      "d": 514.705333333317,
      "v": 105
    },
    {
      "midi": 79,
      "hit": false,
      "t": 174705.69599999912,
      "d": 523.8964999999735,
      "v": 103
    },
    {
      "midi": 54,
      "hit": false,
      "t": 174705.69599999912,
      "d": 928.3078333333251,
      "v": 99
    },
    {
      "midi": 62,
      "hit": false,
      "t": 174705.69599999968,
      "d": 1461.3955000000133,
      "v": 91
    },
    {
      "midi": 66,
      "hit": false,
      "t": 174705.69599999968,
      "d": 1534.9248333333526,
      "v": 94
    },
    {
      "midi": 71,
      "hit": false,
      "t": 174705.69599999968,
      "d": 1553.3071666666947,
      "v": 99
    },
    {
      "midi": 54,
      "hit": false,
      "t": 174705.69599999968,
      "d": 1737.1305000000284,
      "v": 99
    },
    {
      "midi": 71,
      "hit": false,
      "t": 175137.68083333244,
      "d": 220.58799999998882,
      "v": 44
    },
    {
      "midi": 74,
      "hit": false,
      "t": 175588.0479999991,
      "d": 284.92616666667163,
      "v": 96
    },
    {
      "midi": 71,
      "hit": false,
      "t": 175588.0479999991,
      "d": 395.22016666666605,
      "v": 99
    },
    {
      "midi": 66,
      "hit": false,
      "t": 175588.0479999991,
      "d": 431.98483333332115,
      "v": 87
    },
    {
      "midi": 79,
      "hit": false,
      "t": 175588.0479999991,
      "d": 477.94066666663275,
      "v": 97
    },
    {
      "midi": 81,
      "hit": false,
      "t": 175808.63599999913,
      "d": 284.9261666666134,
      "v": 89
    },
    {
      "midi": 83,
      "hit": false,
      "t": 176029.22399999909,
      "d": 101.10283333330881,
      "v": 104
    },
    {
      "midi": 54,
      "hit": false,
      "t": 176029.22399999909,
      "d": 110.29399999996531,
      "v": 88
    },
    {
      "midi": 64,
      "hit": false,
      "t": 176470.39999999906,
      "d": 652.5728333333391,
      "v": 74
    },
    {
      "midi": 76,
      "hit": false,
      "t": 176470.39999999906,
      "d": 744.4844999999914,
      "v": 67
    },
    {
      "midi": 83,
      "hit": false,
      "t": 176470.39999999906,
      "d": 772.05799999999,
      "v": 73
    },
    {
      "midi": 79,
      "hit": false,
      "t": 176470.39999999906,
      "d": 992.6459999999788,
      "v": 75
    },
    {
      "midi": 52,
      "hit": false,
      "t": 176470.39999999906,
      "d": 1066.1753333333181,
      "v": 80
    },
    {
      "midi": 88,
      "hit": false,
      "t": 176470.39999999906,
      "d": 1093.7488333333167,
      "v": 101
    },
    {
      "midi": 52,
      "hit": false,
      "t": 176470.3999999997,
      "d": 1838.2333333333372,
      "v": 87
    },
    {
      "midi": 67,
      "hit": false,
      "t": 176470.3999999997,
      "d": 3216.9083333333256,
      "v": 85
    },
    {
      "midi": 59,
      "hit": false,
      "t": 176470.3999999997,
      "d": 3244.481833333324,
      "v": 90
    },
    {
      "midi": 64,
      "hit": false,
      "t": 176470.3999999997,
      "d": 3262.8641666666663,
      "v": 81
    },
    {
      "midi": 71,
      "hit": false,
      "t": 176470.3999999997,
      "d": 3363.967000000004,
      "v": 98
    },
    {
      "midi": 64,
      "hit": false,
      "t": 177352.75199999905,
      "d": 376.83783333332394,
      "v": 70
    },
    {
      "midi": 76,
      "hit": false,
      "t": 177352.75199999905,
      "d": 542.2788333333156,
      "v": 84
    },
    {
      "midi": 83,
      "hit": false,
      "t": 177352.75199999905,
      "d": 680.1463333333086,
      "v": 89
    },
    {
      "midi": 79,
      "hit": false,
      "t": 177573.33999999904,
      "d": 294.11733333332813,
      "v": 63
    },
    {
      "midi": 71,
      "hit": false,
      "t": 177793.92799999902,
      "d": 974.2636666666658,
      "v": 84
    },
    {
      "midi": 76,
      "hit": false,
      "t": 178235.10399999903,
      "d": 533.0876666666591,
      "v": 73
    },
    {
      "midi": 79,
      "hit": false,
      "t": 178235.10399999903,
      "d": 542.2788333333156,
      "v": 81
    },
    {
      "midi": 50,
      "hit": false,
      "t": 178235.1039999997,
      "d": 1406.248499999987,
      "v": 84
    },
    {
      "midi": 76,
      "hit": false,
      "t": 179117.45599999902,
      "d": 229.77916666664532,
      "v": 105
    },
    {
      "midi": 79,
      "hit": false,
      "t": 179117.45599999902,
      "d": 284.92616666664253,
      "v": 104
    },
    {
      "midi": 74,
      "hit": false,
      "t": 179338.043999999,
      "d": 441.17599999997765,
      "v": 95
    },
    {
      "midi": 77,
      "hit": false,
      "t": 179338.043999999,
      "d": 450.36716666663415,
      "v": 85
    },
    {
      "midi": 67,
      "hit": false,
      "t": 179999.80799999897,
      "d": 266.54383333332953,
      "v": 101
    },
    {
      "midi": 74,
      "hit": false,
      "t": 179999.80799999897,
      "d": 413.60250000000815,
      "v": 104
    },
    {
      "midi": 60,
      "hit": false,
      "t": 179999.80799999897,
      "d": 468.74950000000536,
      "v": 97
    },
    {
      "midi": 79,
      "hit": false,
      "t": 179999.80799999897,
      "d": 496.32300000000396,
      "v": 107
    },
    {
      "midi": 48,
      "hit": false,
      "t": 179999.80799999897,
      "d": 1498.1601666666393,
      "v": 99
    },
    {
      "midi": 48,
      "hit": false,
      "t": 179999.8079999997,
      "d": 1277.5721666666504,
      "v": 99
    },
    {
      "midi": 60,
      "hit": false,
      "t": 179999.8079999997,
      "d": 1341.9103333333042,
      "v": 91
    },
    {
      "midi": 64,
      "hit": false,
      "t": 179999.8079999997,
      "d": 1360.2926666666463,
      "v": 85
    },
    {
      "midi": 67,
      "hit": false,
      "t": 179999.8079999997,
      "d": 1360.2926666666463,
      "v": 88
    },
    {
      "midi": 76,
      "hit": false,
      "t": 180220.39599999896,
      "d": 303.30850000001374,
      "v": 69
    },
    {
      "midi": 67,
      "hit": false,
      "t": 180440.98399999898,
      "d": 156.24983333333512,
      "v": 60
    },
    {
      "midi": 67,
      "hit": false,
      "t": 180882.15999999898,
      "d": 165.44099999999162,
      "v": 75
    },
    {
      "midi": 64,
      "hit": false,
      "t": 180882.15999999898,
      "d": 275.73499999998603,
      "v": 94
    },
    {
      "midi": 60,
      "hit": false,
      "t": 180882.15999999898,
      "d": 459.55833333331975,
      "v": 100
    },
    {
      "midi": 72,
      "hit": false,
      "t": 180882.15999999898,
      "d": 551.4699999999721,
      "v": 98
    },
    {
      "midi": 67,
      "hit": false,
      "t": 181102.74799999897,
      "d": 248.16149999998743,
      "v": 75
    },
    {
      "midi": 64,
      "hit": false,
      "t": 181323.33599999896,
      "d": 174.63216666664812,
      "v": 57
    },
    {
      "midi": 60,
      "hit": false,
      "t": 181543.92399999895,
      "d": 193.01449999999022,
      "v": 89
    },
    {
      "midi": 67,
      "hit": false,
      "t": 181764.51199999894,
      "d": 523.8965000000026,
      "v": 80
    },
    {
      "midi": 71,
      "hit": false,
      "t": 181764.51199999894,
      "d": 588.2346666666563,
      "v": 95
    },
    {
      "midi": 79,
      "hit": false,
      "t": 181764.51199999894,
      "d": 606.6169999999984,
      "v": 95
    },
    {
      "midi": 55,
      "hit": false,
      "t": 181764.51199999894,
      "d": 3455.8786666665983,
      "v": 75
    },
    {
      "midi": 43,
      "hit": false,
      "t": 181764.51199999967,
      "d": 3529.407999999996,
      "v": 95
    },
    {
      "midi": 59,
      "hit": false,
      "t": 181764.51199999967,
      "d": 3529.407999999996,
      "v": 97
    },
    {
      "midi": 62,
      "hit": false,
      "t": 181764.51199999967,
      "d": 3529.407999999996,
      "v": 89
    },
    {
      "midi": 67,
      "hit": false,
      "t": 181764.51199999967,
      "d": 3529.407999999996,
      "v": 94
    },
    {
      "midi": 71,
      "hit": false,
      "t": 182646.86399999892,
      "d": 238.97033333333093,
      "v": 79
    },
    {
      "midi": 67,
      "hit": false,
      "t": 182646.86399999892,
      "d": 376.83783333332394,
      "v": 63
    },
    {
      "midi": 74,
      "hit": false,
      "t": 182646.86399999892,
      "d": 459.55833333331975,
      "v": 72
    },
    {
      "midi": 79,
      "hit": false,
      "t": 182646.86399999892,
      "d": 1038.6018333333195,
      "v": 86
    },
    {
      "midi": 71,
      "hit": false,
      "t": 183308.62799999892,
      "d": 82.72049999999581,
      "v": 25
    },
    {
      "midi": 71,
      "hit": false,
      "t": 183529.2159999989,
      "d": 73.52933333333931,
      "v": 20
    },
    {
      "midi": 67,
      "hit": false,
      "t": 183529.2159999989,
      "d": 588.2346666666854,
      "v": 64
    },
    {
      "midi": 71,
      "hit": false,
      "t": 183970.39199999892,
      "d": 248.16150000001653,
      "v": 96
    },
    {
      "midi": 79,
      "hit": false,
      "t": 183970.39199999892,
      "d": 257.35266666667303,
      "v": 99
    },
    {
      "midi": 74,
      "hit": false,
      "t": 184190.97999999893,
      "d": 248.16149999998743,
      "v": 89
    },
    {
      "midi": 79,
      "hit": false,
      "t": 184411.56799999892,
      "d": 284.92616666664253,
      "v": 103
    },
    {
      "midi": 67,
      "hit": false,
      "t": 184411.56799999892,
      "d": 487.13183333328925,
      "v": 79
    },
    {
      "midi": 74,
      "hit": false,
      "t": 184632.1559999989,
      "d": 229.77916666664532,
      "v": 89
    },
    {
      "midi": 81,
      "hit": false,
      "t": 184852.7439999989,
      "d": 284.92616666664253,
      "v": 101
    },
    {
      "midi": 67,
      "hit": false,
      "t": 185073.3319999989,
      "d": 110.29399999999441,
      "v": 60
    },
    {
      "midi": 74,
      "hit": false,
      "t": 185073.3319999989,
      "d": 165.44099999999162,
      "v": 83
    },
    {
      "midi": 71,
      "hit": false,
      "t": 185293.91999999888,
      "d": 248.16149999998743,
      "v": 74
    },
    {
      "midi": 55,
      "hit": false,
      "t": 185293.91999999888,
      "d": 441.17599999997765,
      "v": 93
    },
    {
      "midi": 62,
      "hit": false,
      "t": 185293.91999999888,
      "d": 542.2788333333156,
      "v": 66
    },
    {
      "midi": 79,
      "hit": false,
      "t": 185293.91999999888,
      "d": 551.4699999999721,
      "v": 80
    },
    {
      "midi": 83,
      "hit": false,
      "t": 185293.91999999888,
      "d": 551.4699999999721,
      "v": 113
    },
    {
      "midi": 74,
      "hit": false,
      "t": 185293.91999999888,
      "d": 597.4258333333128,
      "v": 77
    },
    {
      "midi": 67,
      "hit": false,
      "t": 185293.91999999888,
      "d": 624.9993333333114,
      "v": 68
    },
    {
      "midi": 55,
      "hit": false,
      "t": 185293.91999999966,
      "d": 487.13183333334746,
      "v": 85
    },
    {
      "midi": 43,
      "hit": false,
      "t": 185293.91999999966,
      "d": 1369.483833333361,
      "v": 90
    },
    {
      "midi": 62,
      "hit": false,
      "t": 185293.91999999966,
      "d": 1452.2043333333568,
      "v": 98
    },
    {
      "midi": 67,
      "hit": false,
      "t": 185293.91999999966,
      "d": 1544.116000000009,
      "v": 95
    },
    {
      "midi": 71,
      "hit": false,
      "t": 186176.27199999886,
      "d": 128.67633333333652,
      "v": 78
    },
    {
      "midi": 67,
      "hit": false,
      "t": 186176.27199999886,
      "d": 312.49966666667024,
      "v": 67
    },
    {
      "midi": 79,
      "hit": false,
      "t": 186176.27199999886,
      "d": 431.98483333335025,
      "v": 85
    },
    {
      "midi": 74,
      "hit": false,
      "t": 186176.27199999886,
      "d": 459.55833333334886,
      "v": 76
    },
    {
      "midi": 59,
      "hit": false,
      "t": 186176.27199999968,
      "d": 147.05866666667862,
      "v": 58
    },
    {
      "midi": 55,
      "hit": false,
      "t": 186176.27199999968,
      "d": 229.77916666667443,
      "v": 66
    },
    {
      "midi": 71,
      "hit": false,
      "t": 186617.44799999887,
      "d": 73.52933333333931,
      "v": 46
    },
    {
      "midi": 69,
      "hit": false,
      "t": 187058.62399999888,
      "d": 284.92616666664253,
      "v": 96
    },
    {
      "midi": 64,
      "hit": false,
      "t": 187058.62399999888,
      "d": 560.6611666666577,
      "v": 83
    },
    {
      "midi": 76,
      "hit": false,
      "t": 187058.62399999888,
      "d": 689.3374999999942,
      "v": 81
    },
    {
      "midi": 59,
      "hit": false,
      "t": 187058.62399999966,
      "d": 487.13183333334746,
      "v": 89
    },
    {
      "midi": 52,
      "hit": false,
      "t": 187058.62399999966,
      "d": 533.0876666666882,
      "v": 84
    },
    {
      "midi": 64,
      "hit": false,
      "t": 187058.62399999966,
      "d": 1102.9400000000023,
      "v": 87
    },
    {
      "midi": 40,
      "hit": false,
      "t": 187058.62399999966,
      "d": 1378.6749999999884,
      "v": 88
    },
    {
      "midi": 67,
      "hit": false,
      "t": 187058.62399999966,
      "d": 1452.2043333333277,
      "v": 94
    },
    {
      "midi": 71,
      "hit": false,
      "t": 187279.21199999886,
      "d": 238.97033333333093,
      "v": 72
    },
    {
      "midi": 67,
      "hit": false,
      "t": 187499.79999999885,
      "d": 330.88200000001234,
      "v": 73
    },
    {
      "midi": 67,
      "hit": false,
      "t": 187940.97599999886,
      "d": 119.48516666668002,
      "v": 35
    },
    {
      "midi": 64,
      "hit": false,
      "t": 187940.97599999886,
      "d": 523.8965000000026,
      "v": 81
    },
    {
      "midi": 71,
      "hit": false,
      "t": 187940.97599999886,
      "d": 533.0876666666591,
      "v": 96
    },
    {
      "midi": 76,
      "hit": false,
      "t": 187940.97599999886,
      "d": 560.6611666666577,
      "v": 91
    },
    {
      "midi": 52,
      "hit": false,
      "t": 187940.97599999967,
      "d": 312.49966666664113,
      "v": 57
    },
    {
      "midi": 59,
      "hit": false,
      "t": 187940.97599999967,
      "d": 459.55833333331975,
      "v": 59
    },
    {
      "midi": 67,
      "hit": false,
      "t": 188382.15199999887,
      "d": 101.10283333330881,
      "v": 55
    },
    {
      "midi": 74,
      "hit": false,
      "t": 188814.1368333322,
      "d": 505.51416666666046,
      "v": 95
    },
    {
      "midi": 78,
      "hit": false,
      "t": 188814.1368333322,
      "d": 560.6611666666577,
      "v": 97
    },
    {
      "midi": 62,
      "hit": false,
      "t": 188823.32799999884,
      "d": 560.6611666666577,
      "v": 77
    },
    {
      "midi": 50,
      "hit": false,
      "t": 188823.32799999884,
      "d": 3529.407999999996,
      "v": 85
    },
    {
      "midi": 66,
      "hit": false,
      "t": 188823.32799999966,
      "d": 330.88199999998324,
      "v": 97
    },
    {
      "midi": 62,
      "hit": false,
      "t": 188823.32799999966,
      "d": 376.83783333332394,
      "v": 93
    },
    {
      "midi": 50,
      "hit": false,
      "t": 188823.32799999966,
      "d": 468.74949999997625,
      "v": 89
    },
    {
      "midi": 38,
      "hit": false,
      "t": 188823.32799999966,
      "d": 3281.2464999999793,
      "v": 91
    },
    {
      "midi": 66,
      "hit": false,
      "t": 189705.67999999883,
      "d": 137.86749999999302,
      "v": 87
    },
    {
      "midi": 62,
      "hit": false,
      "t": 189705.67999999883,
      "d": 459.55833333331975,
      "v": 78
    },
    {
      "midi": 74,
      "hit": false,
      "t": 189705.67999999883,
      "d": 836.3961666666437,
      "v": 89
    },
    {
      "midi": 78,
      "hit": false,
      "t": 189705.67999999883,
      "d": 1185.6604999999981,
      "v": 91
    },
    {
      "midi": 50,
      "hit": false,
      "t": 189705.67999999964,
      "d": 367.64666666666744,
      "v": 78
    },
    {
      "midi": 66,
      "hit": false,
      "t": 189705.67999999964,
      "d": 2389.7033333333384,
      "v": 103
    },
    {
      "midi": 62,
      "hit": false,
      "t": 189705.67999999964,
      "d": 2435.65916666665,
      "v": 97
    },
    {
      "midi": 69,
      "hit": false,
      "t": 189705.67999999964,
      "d": 2472.423833333305,
      "v": 102
    },
    {
      "midi": 66,
      "hit": false,
      "t": 190588.0319999988,
      "d": 487.13183333334746,
      "v": 40
    },
    {
      "midi": 62,
      "hit": false,
      "t": 190588.0319999988,
      "d": 569.8523333333433,
      "v": 47
    },
    {
      "midi": 74,
      "hit": false,
      "t": 191020.01683333216,
      "d": 404.41133333332255,
      "v": 104
    },
    {
      "midi": 66,
      "hit": false,
      "t": 191240.60483333215,
      "d": 376.83783333335305,
      "v": 72
    },
    {
      "midi": 69,
      "hit": false,
      "t": 191470.38399999883,
      "d": 238.97033333336003,
      "v": 52
    },
    {
      "midi": 62,
      "hit": false,
      "t": 191470.38399999883,
      "d": 321.69083333335584,
      "v": 61
    },
    {
      "midi": 76,
      "hit": false,
      "t": 191690.97199999884,
      "d": 441.17600000000675,
      "v": 108
    },
    {
      "midi": 62,
      "hit": false,
      "t": 191911.55999999886,
      "d": 110.29399999999441,
      "v": 58
    },
    {
      "midi": 66,
      "hit": false,
      "t": 192122.9568333322,
      "d": 110.29399999999441,
      "v": 10
    },
    {
      "midi": 69,
      "hit": false,
      "t": 192132.14799999885,
      "d": 82.72049999999581,
      "v": 58
    },
    {
      "midi": 78,
      "hit": false,
      "t": 192343.54483333218,
      "d": 946.6901666666381,
      "v": 95
    },
    {
      "midi": 62,
      "hit": false,
      "t": 192343.54483333218,
      "d": 1433.8219999999565,
      "v": 82
    },
    {
      "midi": 69,
      "hit": false,
      "t": 192352.73599999884,
      "d": 404.41133333332255,
      "v": 87
    },
    {
      "midi": 50,
      "hit": false,
      "t": 192352.73599999963,
      "d": 468.74950000000536,
      "v": 81
    },
    {
      "midi": 57,
      "hit": false,
      "t": 192352.73599999963,
      "d": 735.2933333333349,
      "v": 74
    },
    {
      "midi": 38,
      "hit": false,
      "t": 192352.73599999963,
      "d": 3106.614333333331,
      "v": 86
    },
    {
      "midi": 66,
      "hit": false,
      "t": 192352.73599999963,
      "d": 3226.099500000011,
      "v": 98
    },
    {
      "midi": 62,
      "hit": false,
      "t": 192352.73599999963,
      "d": 3244.4818333333533,
      "v": 88
    },
    {
      "midi": 74,
      "hit": false,
      "t": 192784.72083333216,
      "d": 542.2788333333156,
      "v": 70
    },
    {
      "midi": 69,
      "hit": false,
      "t": 193225.89683333217,
      "d": 762.8668333333044,
      "v": 82
    },
    {
      "midi": 78,
      "hit": false,
      "t": 193676.2639999988,
      "d": 257.35266666667303,
      "v": 89
    },
    {
      "midi": 79,
      "hit": false,
      "t": 193887.66083333213,
      "d": 174.63216666667722,
      "v": 86
    },
    {
      "midi": 78,
      "hit": false,
      "t": 194117.4399999988,
      "d": 487.13183333334746,
      "v": 96
    },
    {
      "midi": 81,
      "hit": false,
      "t": 194117.4399999988,
      "d": 533.0876666666882,
      "v": 100
    },
    {
      "midi": 62,
      "hit": false,
      "t": 194117.4399999988,
      "d": 753.675666666677,
      "v": 89
    },
    {
      "midi": 69,
      "hit": false,
      "t": 194328.83683333214,
      "d": 606.6169999999984,
      "v": 79
    },
    {
      "midi": 74,
      "hit": false,
      "t": 194558.61599999882,
      "d": 772.0579999999609,
      "v": 80
    },
    {
      "midi": 78,
      "hit": false,
      "t": 194779.20399999883,
      "d": 588.2346666665981,
      "v": 74
    },
    {
      "midi": 83,
      "hit": false,
      "t": 194999.7919999988,
      "d": 275.73499999998603,
      "v": 102
    },
    {
      "midi": 62,
      "hit": false,
      "t": 194999.7919999988,
      "d": 624.9993333333114,
      "v": 88
    },
    {
      "midi": 74,
      "hit": false,
      "t": 195440.96799999877,
      "d": 101.10283333333791,
      "v": 60
    },
    {
      "midi": 78,
      "hit": false,
      "t": 195440.96799999877,
      "d": 211.39683333333232,
      "v": 76
    },
    {
      "midi": 81,
      "hit": false,
      "t": 195440.96799999877,
      "d": 266.54383333332953,
      "v": 96
    },
    {
      "midi": 67,
      "hit": false,
      "t": 195872.9528333321,
      "d": 238.97033333333093,
      "v": 79
    },
    {
      "midi": 79,
      "hit": false,
      "t": 195872.9528333321,
      "d": 431.98483333332115,
      "v": 87
    },
    {
      "midi": 64,
      "hit": false,
      "t": 195872.9528333321,
      "d": 597.4258333333419,
      "v": 70
    },
    {
      "midi": 52,
      "hit": false,
      "t": 195872.9528333321,
      "d": 3455.8786666666274,
      "v": 80
    },
    {
      "midi": 76,
      "hit": false,
      "t": 195882.14399999875,
      "d": 487.13183333334746,
      "v": 84
    },
    {
      "midi": 64,
      "hit": false,
      "t": 195882.14399999962,
      "d": 2242.6446666666598,
      "v": 91
    },
    {
      "midi": 59,
      "hit": false,
      "t": 195882.14399999962,
      "d": 2261.027000000002,
      "v": 95
    },
    {
      "midi": 67,
      "hit": false,
      "t": 195882.14399999962,
      "d": 2444.8503333333356,
      "v": 94
    },
    {
      "midi": 52,
      "hit": false,
      "t": 195882.14399999962,
      "d": 2591.909000000014,
      "v": 84
    },
    {
      "midi": 40,
      "hit": false,
      "t": 195882.14399999962,
      "d": 3216.9083333333547,
      "v": 92
    },
    {
      "midi": 67,
      "hit": false,
      "t": 196323.31999999876,
      "d": 257.35266666667303,
      "v": 42
    },
    {
      "midi": 67,
      "hit": false,
      "t": 196764.49599999876,
      "d": 110.29399999999441,
      "v": 23
    },
    {
      "midi": 71,
      "hit": false,
      "t": 196764.49599999876,
      "d": 147.05866666664951,
      "v": 79
    },
    {
      "midi": 76,
      "hit": false,
      "t": 196764.49599999876,
      "d": 229.77916666664532,
      "v": 77
    },
    {
      "midi": 64,
      "hit": false,
      "t": 196764.49599999876,
      "d": 606.6169999999693,
      "v": 56
    },
    {
      "midi": 69,
      "hit": false,
      "t": 197205.67199999874,
      "d": 266.54383333332953,
      "v": 81
    },
    {
      "midi": 76,
      "hit": false,
      "t": 197205.67199999874,
      "d": 744.4845000000205,
      "v": 68
    },
    {
      "midi": 71,
      "hit": false,
      "t": 197426.25999999873,
      "d": 238.97033333336003,
      "v": 79
    },
    {
      "midi": 67,
      "hit": false,
      "t": 197646.84799999875,
      "d": 487.13183333334746,
      "v": 86
    },
    {
      "midi": 64,
      "hit": false,
      "t": 197646.84799999875,
      "d": 670.9551666666812,
      "v": 80
    },
    {
      "midi": 71,
      "hit": false,
      "t": 198078.8328333321,
      "d": 303.30850000001374,
      "v": 79
    },
    {
      "midi": 76,
      "hit": false,
      "t": 198308.61199999877,
      "d": 55.146999999997206,
      "v": 66
    },
    {
      "midi": 67,
      "hit": false,
      "t": 198520.0088333321,
      "d": 110.29399999999441,
      "v": 90
    },
    {
      "midi": 76,
      "hit": false,
      "t": 198520.0088333321,
      "d": 312.49966666667024,
      "v": 99
    },
    {
      "midi": 71,
      "hit": false,
      "t": 198520.0088333321,
      "d": 386.02900000000955,
      "v": 100
    },
    {
      "midi": 64,
      "hit": false,
      "t": 198520.0088333321,
      "d": 514.705333333317,
      "v": 81
    },
    {
      "midi": 67,
      "hit": false,
      "t": 198749.78799999878,
      "d": 275.73499999998603,
      "v": 76
    },
    {
      "midi": 72,
      "hit": false,
      "t": 198970.37599999877,
      "d": 229.77916666664532,
      "v": 104
    },
    {
      "midi": 76,
      "hit": false,
      "t": 198970.37599999877,
      "d": 294.11733333329903,
      "v": 95
    },
    {
      "midi": 52,
      "hit": false,
      "t": 198970.37599999964,
      "d": 174.63216666667722,
      "v": 57
    },
    {
      "midi": 67,
      "hit": false,
      "t": 198970.37599999964,
      "d": 284.92616666667163,
      "v": 93
    },
    {
      "midi": 71,
      "hit": false,
      "t": 198970.37599999964,
      "d": 303.30850000001374,
      "v": 101
    },
    {
      "midi": 67,
      "hit": false,
      "t": 199181.7728333321,
      "d": 110.29399999996531,
      "v": 74
    },
    {
      "midi": 64,
      "hit": false,
      "t": 199190.96399999876,
      "d": 64.3381666666537,
      "v": 58
    },
    {
      "midi": 72,
      "hit": false,
      "t": 199190.96399999966,
      "d": 119.48516666665091,
      "v": 93
    },
    {
      "midi": 67,
      "hit": false,
      "t": 199402.36083333206,
      "d": 183.82333333333372,
      "v": 87
    },
    {
      "midi": 73,
      "hit": false,
      "t": 199402.36083333206,
      "d": 560.6611666666577,
      "v": 91
    },
    {
      "midi": 76,
      "hit": false,
      "t": 199402.36083333206,
      "d": 615.8081666666549,
      "v": 90
    },
    {
      "midi": 64,
      "hit": false,
      "t": 199411.55199999872,
      "d": 523.8965000000026,
      "v": 79
    },
    {
      "midi": 52,
      "hit": false,
      "t": 199411.55199999872,
      "d": 3033.0849999999336,
      "v": 81
    },
    {
      "midi": 67,
      "hit": false,
      "t": 199411.55199999962,
      "d": 3106.614333333331,
      "v": 97
    },
    {
      "midi": 73,
      "hit": false,
      "t": 199411.55199999962,
      "d": 3106.614333333331,
      "v": 110
    },
    {
      "midi": 64,
      "hit": false,
      "t": 199411.55199999962,
      "d": 3115.8054999999877,
      "v": 91
    },
    {
      "midi": 40,
      "hit": false,
      "t": 199411.55199999962,
      "d": 3134.1878333333298,
      "v": 97
    },
    {
      "midi": 52,
      "hit": false,
      "t": 199411.55199999962,
      "d": 3143.3789999999863,
      "v": 93
    },
    {
      "midi": 67,
      "hit": false,
      "t": 199852.72799999872,
      "d": 193.01449999999022,
      "v": 17
    },
    {
      "midi": 67,
      "hit": false,
      "t": 200293.9039999987,
      "d": 110.29399999999441,
      "v": 66
    },
    {
      "midi": 64,
      "hit": false,
      "t": 200293.9039999987,
      "d": 395.22016666666605,
      "v": 69
    },
    {
      "midi": 73,
      "hit": false,
      "t": 200293.9039999987,
      "d": 542.2788333333447,
      "v": 81
    },
    {
      "midi": 76,
      "hit": false,
      "t": 200293.9039999987,
      "d": 744.4845000000205,
      "v": 84
    },
    {
      "midi": 67,
      "hit": false,
      "t": 200735.0799999987,
      "d": 321.69083333335584,
      "v": 40
    },
    {
      "midi": 67,
      "hit": false,
      "t": 201167.06483333206,
      "d": 147.05866666664951,
      "v": 66
    },
    {
      "midi": 73,
      "hit": false,
      "t": 201176.2559999987,
      "d": 431.98483333332115,
      "v": 77
    },
    {
      "midi": 64,
      "hit": false,
      "t": 201176.2559999987,
      "d": 624.9993333332823,
      "v": 68
    },
    {
      "midi": 76,
      "hit": false,
      "t": 201176.2559999987,
      "d": 1378.6749999999302,
      "v": 66
    },
    {
      "midi": 67,
      "hit": false,
      "t": 201617.4319999987,
      "d": 91.91166666665231,
      "v": 36
    },
    {
      "midi": 67,
      "hit": false,
      "t": 201838.01999999865,
      "d": 110.29399999999441,
      "v": 52
    },
    {
      "midi": 67,
      "hit": false,
      "t": 202058.60799999864,
      "d": 147.05866666667862,
      "v": 77
    },
    {
      "midi": 73,
      "hit": false,
      "t": 202058.60799999864,
      "d": 459.55833333334886,
      "v": 81
    },
    {
      "midi": 64,
      "hit": false,
      "t": 202058.60799999864,
      "d": 634.190499999997,
      "v": 79
    },
    {
      "midi": 67,
      "hit": false,
      "t": 202499.78399999865,
      "d": 110.29399999999441,
      "v": 57
    },
    {
      "midi": 69,
      "hit": false,
      "t": 202940.95999999862,
      "d": 606.6169999999984,
      "v": 102
    },
    {
      "midi": 74,
      "hit": false,
      "t": 202940.95999999862,
      "d": 670.9551666666521,
      "v": 105
    },
    {
      "midi": 78,
      "hit": false,
      "t": 202940.95999999862,
      "d": 680.1463333333086,
      "v": 107
    },
    {
      "midi": 62,
      "hit": false,
      "t": 202940.95999999862,
      "d": 1525.7336666666379,
      "v": 108
    },
    {
      "midi": 38,
      "hit": false,
      "t": 202940.9599999996,
      "d": 3097.4231666666456,
      "v": 92
    },
    {
      "midi": 57,
      "hit": false,
      "t": 202940.9599999996,
      "d": 3244.481833333324,
      "v": 86
    },
    {
      "midi": 66,
      "hit": false,
      "t": 202940.9599999996,
      "d": 3244.481833333324,
      "v": 99
    },
    {
      "midi": 50,
      "hit": false,
      "t": 202940.9599999996,
      "d": 3299.6288333333214,
      "v": 91
    },
    {
      "midi": 62,
      "hit": false,
      "t": 202940.9599999996,
      "d": 3345.584666666662,
      "v": 88
    },
    {
      "midi": 69,
      "hit": false,
      "t": 203823.3119999986,
      "d": 284.92616666667163,
      "v": 98
    },
    {
      "midi": 78,
      "hit": false,
      "t": 203823.3119999986,
      "d": 588.2346666666563,
      "v": 108
    },
    {
      "midi": 74,
      "hit": false,
      "t": 203823.3119999986,
      "d": 606.6169999999984,
      "v": 107
    },
    {
      "midi": 69,
      "hit": false,
      "t": 204264.48799999862,
      "d": 137.86749999999302,
      "v": 38
    },
    {
      "midi": 69,
      "hit": false,
      "t": 204705.6639999986,
      "d": 110.29399999999441,
      "v": 98
    },
    {
      "midi": 74,
      "hit": false,
      "t": 204705.6639999986,
      "d": 147.05866666664951,
      "v": 103
    },
    {
      "midi": 78,
      "hit": false,
      "t": 204705.6639999986,
      "d": 174.63216666664812,
      "v": 103
    },
    {
      "midi": 62,
      "hit": false,
      "t": 204705.6639999986,
      "d": 689.3374999999942,
      "v": 101
    },
    {
      "midi": 71,
      "hit": false,
      "t": 204926.25199999858,
      "d": 477.94066666666185,
      "v": 103
    },
    {
      "midi": 79,
      "hit": false,
      "t": 204926.25199999858,
      "d": 477.94066666666185,
      "v": 104
    },
    {
      "midi": 74,
      "hit": false,
      "t": 204926.25199999858,
      "d": 514.705333333317,
      "v": 96
    },
    {
      "midi": 71,
      "hit": false,
      "t": 205588.01599999858,
      "d": 110.29399999999441,
      "v": 104
    },
    {
      "midi": 74,
      "hit": false,
      "t": 205588.01599999858,
      "d": 119.48516666665091,
      "v": 102
    },
    {
      "midi": 79,
      "hit": false,
      "t": 205588.01599999858,
      "d": 156.24983333330601,
      "v": 105
    },
    {
      "midi": 62,
      "hit": false,
      "t": 205588.01599999858,
      "d": 716.9109999999637,
      "v": 101
    },
    {
      "midi": 69,
      "hit": false,
      "t": 205808.60399999854,
      "d": 441.17600000000675,
      "v": 103
    },
    {
      "midi": 74,
      "hit": false,
      "t": 205808.60399999854,
      "d": 450.36716666666325,
      "v": 108
    },
    {
      "midi": 78,
      "hit": false,
      "t": 205808.60399999854,
      "d": 468.74950000000536,
      "v": 108
    },
    {
      "midi": 67,
      "hit": false,
      "t": 206461.17683333188,
      "d": 229.77916666667443,
      "v": 90
    },
    {
      "midi": 64,
      "hit": false,
      "t": 206461.17683333188,
      "d": 569.8523333333433,
      "v": 79
    },
    {
      "midi": 71,
      "hit": false,
      "t": 206461.17683333188,
      "d": 606.6169999999984,
      "v": 92
    },
    {
      "midi": 76,
      "hit": false,
      "t": 206461.17683333188,
      "d": 661.7639999999956,
      "v": 95
    },
    {
      "midi": 79,
      "hit": false,
      "t": 206461.17683333188,
      "d": 661.7639999999956,
      "v": 95
    },
    {
      "midi": 52,
      "hit": false,
      "t": 206461.17683333188,
      "d": 3290.4376666666067,
      "v": 91
    },
    {
      "midi": 52,
      "hit": false,
      "t": 206470.3679999996,
      "d": 2849.261666666658,
      "v": 89
    },
    {
      "midi": 40,
      "hit": false,
      "t": 206470.3679999996,
      "d": 3051.467333333334,
      "v": 95
    },
    {
      "midi": 59,
      "hit": false,
      "t": 206470.3679999996,
      "d": 3088.231999999989,
      "v": 91
    },
    {
      "midi": 64,
      "hit": false,
      "t": 206470.3679999996,
      "d": 3115.8054999999877,
      "v": 88
    },
    {
      "midi": 67,
      "hit": false,
      "t": 206470.3679999996,
      "d": 3152.5701666666428,
      "v": 94
    },
    {
      "midi": 67,
      "hit": false,
      "t": 206911.54399999854,
      "d": 202.20566666667582,
      "v": 33
    },
    {
      "midi": 67,
      "hit": false,
      "t": 207352.71999999855,
      "d": 128.67633333333652,
      "v": 86
    },
    {
      "midi": 64,
      "hit": false,
      "t": 207352.71999999855,
      "d": 431.98483333335025,
      "v": 78
    },
    {
      "midi": 71,
      "hit": false,
      "t": 207352.71999999855,
      "d": 533.0876666666591,
      "v": 89
    },
    {
      "midi": 76,
      "hit": false,
      "t": 207352.71999999855,
      "d": 597.4258333333128,
      "v": 94
    },
    {
      "midi": 79,
      "hit": false,
      "t": 207352.71999999855,
      "d": 661.7639999999665,
      "v": 95
    },
    {
      "midi": 67,
      "hit": false,
      "t": 207793.89599999855,
      "d": 220.58799999995972,
      "v": 49
    },
    {
      "midi": 76,
      "hit": false,
      "t": 208225.88083333184,
      "d": 689.3374999999651,
      "v": 90
    },
    {
      "midi": 69,
      "hit": false,
      "t": 208235.0719999985,
      "d": 275.73499999998603,
      "v": 97
    },
    {
      "midi": 64,
      "hit": false,
      "t": 208235.0719999985,
      "d": 477.94066666663275,
      "v": 87
    },
    {
      "midi": 79,
      "hit": false,
      "t": 208235.0719999985,
      "d": 661.7639999999665,
      "v": 95
    },
    {
      "midi": 71,
      "hit": false,
      "t": 208455.6599999985,
      "d": 257.3526666666439,
      "v": 85
    },
    {
      "midi": 67,
      "hit": false,
      "t": 208676.24799999848,
      "d": 358.45550000001094,
      "v": 78
    },
    {
      "midi": 64,
      "hit": false,
      "t": 209117.4239999985,
      "d": 533.0876666666591,
      "v": 89
    },
    {
      "midi": 71,
      "hit": false,
      "t": 209117.4239999985,
      "d": 542.2788333333156,
      "v": 98
    },
    {
      "midi": 76,
      "hit": false,
      "t": 209117.4239999985,
      "d": 588.2346666666563,
      "v": 98
    },
    {
      "midi": 79,
      "hit": false,
      "t": 209117.4239999985,
      "d": 661.7639999999956,
      "v": 95
    },
    {
      "midi": 67,
      "hit": false,
      "t": 209558.5999999985,
      "d": 147.05866666664951,
      "v": 71
    },
    {
      "midi": 67,
      "hit": false,
      "t": 209990.5848333318,
      "d": 312.49966666667024,
      "v": 91
    },
    {
      "midi": 76,
      "hit": false,
      "t": 209990.5848333318,
      "d": 551.4700000000012,
      "v": 97
    },
    {
      "midi": 72,
      "hit": false,
      "t": 209990.5848333318,
      "d": 624.9993333333405,
      "v": 104
    },
    {
      "midi": 60,
      "hit": false,
      "t": 209999.77599999847,
      "d": 496.32300000000396,
      "v": 97
    },
    {
      "midi": 48,
      "hit": false,
      "t": 209999.77599999847,
      "d": 3060.6584999999905,
      "v": 97
    },
    {
      "midi": 55,
      "hit": false,
      "t": 209999.77599999958,
      "d": 1783.08633333334,
      "v": 90
    },
    {
      "midi": 36,
      "hit": false,
      "t": 209999.77599999958,
      "d": 2325.3651666666847,
      "v": 102
    },
    {
      "midi": 60,
      "hit": false,
      "t": 209999.77599999958,
      "d": 2334.556333333341,
      "v": 99
    },
    {
      "midi": 48,
      "hit": false,
      "t": 209999.77599999958,
      "d": 2343.7474999999977,
      "v": 103
    },
    {
      "midi": 64,
      "hit": false,
      "t": 209999.77599999958,
      "d": 2371.3209999999963,
      "v": 97
    },
    {
      "midi": 67,
      "hit": false,
      "t": 209999.77599999958,
      "d": 2371.3209999999963,
      "v": 92
    },
    {
      "midi": 72,
      "hit": false,
      "t": 210882.12799999848,
      "d": 238.97033333333093,
      "v": 91
    },
    {
      "midi": 67,
      "hit": false,
      "t": 210882.12799999848,
      "d": 257.35266666667303,
      "v": 83
    },
    {
      "midi": 76,
      "hit": false,
      "t": 210882.12799999848,
      "d": 257.35266666667303,
      "v": 89
    },
    {
      "midi": 60,
      "hit": false,
      "t": 210882.12799999848,
      "d": 330.88200000001234,
      "v": 87
    },
    {
      "midi": 76,
      "hit": false,
      "t": 211543.8919999985,
      "d": 73.52933333333931,
      "v": 97
    },
    {
      "midi": 72,
      "hit": false,
      "t": 211543.8919999985,
      "d": 82.72049999999581,
      "v": 107
    },
    {
      "midi": 79,
      "hit": false,
      "t": 211543.8919999985,
      "d": 91.91166666665231,
      "v": 111
    },
    {
      "midi": 72,
      "hit": false,
      "t": 211755.28883333184,
      "d": 606.6169999999984,
      "v": 111
    },
    {
      "midi": 76,
      "hit": false,
      "t": 211755.28883333184,
      "d": 606.6169999999984,
      "v": 101
    },
    {
      "midi": 79,
      "hit": false,
      "t": 211755.28883333184,
      "d": 606.6169999999984,
      "v": 114
    },
    {
      "midi": 60,
      "hit": false,
      "t": 211764.4799999985,
      "d": 174.63216666667722,
      "v": 98
    },
    {
      "midi": 60,
      "hit": false,
      "t": 212205.6559999985,
      "d": 156.24983333333512,
      "v": 28
    },
    {
      "midi": 84,
      "hit": false,
      "t": 212426.2439999985,
      "d": 36.7646666666551,
      "v": 89
    },
    {
      "midi": 79,
      "hit": false,
      "t": 212426.2439999985,
      "d": 64.3381666666537,
      "v": 107
    },
    {
      "midi": 88,
      "hit": false,
      "t": 212426.2439999985,
      "d": 73.5293333333102,
      "v": 93
    },
    {
      "midi": 91,
      "hit": false,
      "t": 212426.2439999985,
      "d": 101.10283333330881,
      "v": 109
    },
    {
      "midi": 60,
      "hit": false,
      "t": 212637.6408333318,
      "d": 156.24983333333512,
      "v": 87
    },
    {
      "midi": 84,
      "hit": false,
      "t": 212637.6408333318,
      "d": 698.5286666666507,
      "v": 109
    },
    {
      "midi": 88,
      "hit": false,
      "t": 212637.6408333318,
      "d": 698.5286666666507,
      "v": 109
    },
    {
      "midi": 91,
      "hit": false,
      "t": 212637.6408333318,
      "d": 716.9109999999928,
      "v": 122
    },
    {
      "midi": 79,
      "hit": false,
      "t": 212637.6408333318,
      "d": 753.6756666666479,
      "v": 118
    },
    {
      "midi": 67,
      "hit": false,
      "t": 213529.18399999844,
      "d": 689.3374999999942,
      "v": 108
    },
    {
      "midi": 74,
      "hit": false,
      "t": 213529.18399999844,
      "d": 707.7198333333363,
      "v": 113
    },
    {
      "midi": 71,
      "hit": false,
      "t": 213529.18399999844,
      "d": 716.9109999999928,
      "v": 108
    },
    {
      "midi": 55,
      "hit": false,
      "t": 213529.18399999844,
      "d": 955.8813333333237,
      "v": 100
    },
    {
      "midi": 55,
      "hit": false,
      "t": 213529.18399999957,
      "d": 1433.8219999999856,
      "v": 94
    },
    {
      "midi": 62,
      "hit": false,
      "t": 213529.18399999957,
      "d": 1470.5866666666407,
      "v": 96
    },
    {
      "midi": 71,
      "hit": false,
      "t": 213529.18399999957,
      "d": 1498.1601666666393,
      "v": 101
    },
    {
      "midi": 67,
      "hit": false,
      "t": 213529.18399999957,
      "d": 1516.5424999999814,
      "v": 95
    },
    {
      "midi": 67,
      "hit": false,
      "t": 214411.53599999842,
      "d": 496.32300000000396,
      "v": 100
    },
    {
      "midi": 71,
      "hit": false,
      "t": 214411.53599999842,
      "d": 533.0876666666591,
      "v": 103
    },
    {
      "midi": 74,
      "hit": false,
      "t": 214411.53599999842,
      "d": 551.4700000000012,
      "v": 107
    },
    {
      "midi": 55,
      "hit": false,
      "t": 214852.71199999843,
      "d": 183.82333333333372,
      "v": 76
    },
    {
      "midi": 65,
      "hit": false,
      "t": 215284.69683333175,
      "d": 569.8523333333142,
      "v": 100
    },
    {
      "midi": 69,
      "hit": false,
      "t": 215284.69683333175,
      "d": 588.2346666666563,
      "v": 97
    },
    {
      "midi": 74,
      "hit": false,
      "t": 215284.69683333175,
      "d": 606.6169999999984,
      "v": 107
    },
    {
      "midi": 53,
      "hit": false,
      "t": 215293.8879999984,
      "d": 900.7343333333265,
      "v": 95
    },
    {
      "midi": 60,
      "hit": false,
      "t": 215293.88799999954,
      "d": 1553.3071666666656,
      "v": 89
    },
    {
      "midi": 65,
      "hit": false,
      "t": 215293.88799999954,
      "d": 1562.498333333322,
      "v": 88
    },
    {
      "midi": 53,
      "hit": false,
      "t": 215293.88799999954,
      "d": 1580.8806666666642,
      "v": 91
    },
    {
      "midi": 69,
      "hit": false,
      "t": 215293.88799999954,
      "d": 1599.2630000000063,
      "v": 94
    },
    {
      "midi": 69,
      "hit": false,
      "t": 216167.04883333173,
      "d": 477.94066666666185,
      "v": 96
    },
    {
      "midi": 65,
      "hit": false,
      "t": 216167.04883333173,
      "d": 533.0876666666591,
      "v": 101
    },
    {
      "midi": 74,
      "hit": false,
      "t": 216167.04883333173,
      "d": 533.0876666666591,
      "v": 105
    },
    {
      "midi": 53,
      "hit": false,
      "t": 216608.22483333174,
      "d": 183.82333333330462,
      "v": 67
    },
    {
      "midi": 64,
      "hit": false,
      "t": 217049.40083333172,
      "d": 560.6611666666577,
      "v": 103
    },
    {
      "midi": 60,
      "hit": false,
      "t": 217049.40083333172,
      "d": 588.2346666666563,
      "v": 92
    },
    {
      "midi": 67,
      "hit": false,
      "t": 217049.40083333172,
      "d": 588.2346666666563,
      "v": 98
    },
    {
      "midi": 74,
      "hit": false,
      "t": 217049.40083333172,
      "d": 624.9993333333114,
      "v": 110
    },
    {
      "midi": 48,
      "hit": false,
      "t": 217049.40083333172,
      "d": 1011.0283333333209,
      "v": 96
    },
    {
      "midi": 48,
      "hit": false,
      "t": 217058.59199999954,
      "d": 1240.8074999999953,
      "v": 87
    },
    {
      "midi": 67,
      "hit": false,
      "t": 217058.59199999954,
      "d": 3253.67300000001,
      "v": 94
    },
    {
      "midi": 60,
      "hit": false,
      "t": 217058.59199999954,
      "d": 3272.055333333352,
      "v": 92
    },
    {
      "midi": 64,
      "hit": false,
      "t": 217058.59199999954,
      "d": 3354.7758333333477,
      "v": 91
    },
    {
      "midi": 60,
      "hit": false,
      "t": 217940.94399999836,
      "d": 413.60250000000815,
      "v": 79
    },
    {
      "midi": 67,
      "hit": false,
      "t": 217940.94399999836,
      "d": 533.0876666666882,
      "v": 97
    },
    {
      "midi": 64,
      "hit": false,
      "t": 217940.94399999836,
      "d": 560.6611666666868,
      "v": 99
    },
    {
      "midi": 74,
      "hit": false,
      "t": 217940.94399999836,
      "d": 983.4548333333514,
      "v": 107
    },
    {
      "midi": 48,
      "hit": false,
      "t": 218372.9288333317,
      "d": 156.24983333333512,
      "v": 63
    },
    {
      "midi": 48,
      "hit": false,
      "t": 218823.29599999837,
      "d": 257.35266666667303,
      "v": 105
    },
    {
      "midi": 64,
      "hit": false,
      "t": 218823.29599999837,
      "d": 284.92616666667163,
      "v": 98
    },
    {
      "midi": 67,
      "hit": false,
      "t": 218823.29599999837,
      "d": 284.92616666667163,
      "v": 101
    },
    {
      "midi": 76,
      "hit": false,
      "t": 219255.28083333172,
      "d": 330.88199999998324,
      "v": 94
    },
    {
      "midi": 79,
      "hit": false,
      "t": 219255.28083333172,
      "d": 487.13183333331835,
      "v": 109
    },
    {
      "midi": 67,
      "hit": false,
      "t": 219475.8688333317,
      "d": 330.88199999998324,
      "v": 85
    },
    {
      "midi": 60,
      "hit": false,
      "t": 219705.6479999984,
      "d": 110.29399999996531,
      "v": 45
    },
    {
      "midi": 72,
      "hit": false,
      "t": 219705.6479999984,
      "d": 147.0586666666204,
      "v": 84
    },
    {
      "midi": 76,
      "hit": false,
      "t": 219926.23599999835,
      "d": 496.32299999997485,
      "v": 100
    },
    {
      "midi": 79,
      "hit": false,
      "t": 219926.23599999835,
      "d": 569.8523333333142,
      "v": 109
    },
    {
      "midi": 60,
      "hit": false,
      "t": 220146.82399999833,
      "d": 358.45549999998184,
      "v": 66
    },
    {
      "midi": 67,
      "hit": false,
      "t": 220358.22083333167,
      "d": 110.29399999999441,
      "v": 71
    },
    {
      "midi": 67,
      "hit": false,
      "t": 220578.80883333166,
      "d": 661.7639999999956,
      "v": 94
    },
    {
      "midi": 71,
      "hit": false,
      "t": 220578.80883333166,
      "d": 661.7639999999956,
      "v": 94
    },
    {
      "midi": 74,
      "hit": false,
      "t": 220578.80883333166,
      "d": 670.9551666666521,
      "v": 100
    },
    {
      "midi": 55,
      "hit": false,
      "t": 220578.80883333166,
      "d": 1038.6018333333195,
      "v": 95
    },
    {
      "midi": 67,
      "hit": false,
      "t": 220587.99999999956,
      "d": 1470.5866666666698,
      "v": 93
    },
    {
      "midi": 71,
      "hit": false,
      "t": 220587.99999999956,
      "d": 1507.3513333333249,
      "v": 102
    },
    {
      "midi": 55,
      "hit": false,
      "t": 220587.99999999956,
      "d": 1562.498333333322,
      "v": 91
    },
    {
      "midi": 62,
      "hit": false,
      "t": 220587.99999999956,
      "d": 1562.498333333322,
      "v": 97
    },
    {
      "midi": 71,
      "hit": false,
      "t": 221470.3519999983,
      "d": 615.808166666684,
      "v": 101
    },
    {
      "midi": 74,
      "hit": false,
      "t": 221470.3519999983,
      "d": 615.808166666684,
      "v": 107
    },
    {
      "midi": 67,
      "hit": false,
      "t": 221470.3519999983,
      "d": 624.9993333333405,
      "v": 95
    },
    {
      "midi": 55,
      "hit": false,
      "t": 221902.33683333165,
      "d": 450.36716666663415,
      "v": 84
    },
    {
      "midi": 65,
      "hit": false,
      "t": 222343.51283333162,
      "d": 661.7639999999956,
      "v": 96
    },
    {
      "midi": 69,
      "hit": false,
      "t": 222343.51283333162,
      "d": 670.9551666666521,
      "v": 96
    },
    {
      "midi": 74,
      "hit": false,
      "t": 222343.51283333162,
      "d": 680.1463333333086,
      "v": 103
    },
    {
      "midi": 53,
      "hit": false,
      "t": 222343.51283333162,
      "d": 974.2636666666367,
      "v": 102
    },
    {
      "midi": 53,
      "hit": false,
      "t": 222352.70399999956,
      "d": 1323.5279999999912,
      "v": 102
    },
    {
      "midi": 69,
      "hit": false,
      "t": 222352.70399999956,
      "d": 1351.1014999999898,
      "v": 96
    },
    {
      "midi": 65,
      "hit": false,
      "t": 222352.70399999956,
      "d": 1378.6749999999884,
      "v": 89
    },
    {
      "midi": 72,
      "hit": false,
      "t": 222352.70399999956,
      "d": 1424.630833333329,
      "v": 102
    },
    {
      "midi": 69,
      "hit": false,
      "t": 223235.05599999827,
      "d": 312.49966666667024,
      "v": 101
    },
    {
      "midi": 74,
      "hit": false,
      "t": 223235.05599999827,
      "d": 367.64666666666744,
      "v": 108
    },
    {
      "midi": 65,
      "hit": false,
      "t": 223235.05599999827,
      "d": 376.83783333332394,
      "v": 102
    },
    {
      "midi": 53,
      "hit": false,
      "t": 223676.23199999824,
      "d": 413.60250000000815,
      "v": 69
    },
    {
      "midi": 77,
      "hit": false,
      "t": 224108.2168333316,
      "d": 615.8081666666549,
      "v": 99
    },
    {
      "midi": 70,
      "hit": false,
      "t": 224117.40799999825,
      "d": 597.4258333333419,
      "v": 99
    },
    {
      "midi": 65,
      "hit": false,
      "t": 224117.40799999825,
      "d": 615.8081666666549,
      "v": 94
    },
    {
      "midi": 58,
      "hit": false,
      "t": 224117.40799999825,
      "d": 624.9993333333114,
      "v": 102
    },
    {
      "midi": 74,
      "hit": false,
      "t": 224117.40799999825,
      "d": 624.9993333333114,
      "v": 99
    },
    {
      "midi": 46,
      "hit": false,
      "t": 224117.40799999825,
      "d": 1029.410666666663,
      "v": 102
    },
    {
      "midi": 70,
      "hit": false,
      "t": 224117.40799999956,
      "d": 3170.952499999985,
      "v": 104
    },
    {
      "midi": 58,
      "hit": false,
      "t": 224117.40799999956,
      "d": 3235.2906666666386,
      "v": 100
    },
    {
      "midi": 62,
      "hit": false,
      "t": 224117.40799999956,
      "d": 3290.437666666636,
      "v": 97
    },
    {
      "midi": 65,
      "hit": false,
      "t": 224117.40799999956,
      "d": 3299.6288333332923,
      "v": 96
    },
    {
      "midi": 58,
      "hit": false,
      "t": 224999.75999999823,
      "d": 404.41133333335165,
      "v": 94
    },
    {
      "midi": 70,
      "hit": false,
      "t": 224999.75999999823,
      "d": 450.36716666666325,
      "v": 106
    },
    {
      "midi": 65,
      "hit": false,
      "t": 224999.75999999823,
      "d": 468.74950000000536,
      "v": 110
    },
    {
      "midi": 74,
      "hit": false,
      "t": 224999.75999999823,
      "d": 496.32300000000396,
      "v": 103
    },
    {
      "midi": 77,
      "hit": false,
      "t": 224999.75999999823,
      "d": 514.7053333333461,
      "v": 109
    },
    {
      "midi": 46,
      "hit": false,
      "t": 225440.93599999824,
      "d": 55.146999999997206,
      "v": 38
    },
    {
      "midi": 70,
      "hit": false,
      "t": 225872.9208333316,
      "d": 266.54383333332953,
      "v": 113
    },
    {
      "midi": 82,
      "hit": false,
      "t": 225872.9208333316,
      "d": 284.92616666667163,
      "v": 114
    },
    {
      "midi": 74,
      "hit": false,
      "t": 225872.9208333316,
      "d": 294.11733333332813,
      "v": 104
    },
    {
      "midi": 77,
      "hit": false,
      "t": 226102.69999999827,
      "d": 294.11733333332813,
      "v": 91
    },
    {
      "midi": 70,
      "hit": false,
      "t": 226323.28799999825,
      "d": 275.73500000001513,
      "v": 108
    },
    {
      "midi": 82,
      "hit": false,
      "t": 226323.28799999825,
      "d": 284.92616666667163,
      "v": 108
    },
    {
      "midi": 74,
      "hit": false,
      "t": 226323.28799999825,
      "d": 312.49966666667024,
      "v": 98
    },
    {
      "midi": 82,
      "hit": false,
      "t": 226755.2728333316,
      "d": 303.30849999998463,
      "v": 106
    },
    {
      "midi": 74,
      "hit": false,
      "t": 226764.46399999826,
      "d": 330.88199999998324,
      "v": 105
    },
    {
      "midi": 70,
      "hit": false,
      "t": 226764.46399999826,
      "d": 854.7784999999567,
      "v": 109
    },
    {
      "midi": 79,
      "hit": false,
      "t": 226975.8608333316,
      "d": 551.4699999999721,
      "v": 91
    },
    {
      "midi": 74,
      "hit": false,
      "t": 227205.63999999824,
      "d": 275.73499999998603,
      "v": 108
    },
    {
      "midi": 67,
      "hit": false,
      "t": 227637.62483333156,
      "d": 643.3816666666535,
      "v": 89
    },
    {
      "midi": 74,
      "hit": false,
      "t": 227637.62483333156,
      "d": 680.1463333333086,
      "v": 101
    },
    {
      "midi": 79,
      "hit": false,
      "t": 227637.62483333156,
      "d": 680.1463333333086,
      "v": 98
    },
    {
      "midi": 71,
      "hit": false,
      "t": 227637.62483333156,
      "d": 698.5286666666507,
      "v": 101
    },
    {
      "midi": 55,
      "hit": false,
      "t": 227637.62483333156,
      "d": 1295.9544999999634,
      "v": 92
    },
    {
      "midi": 62,
      "hit": false,
      "t": 227646.81599999953,
      "d": 1580.8806666666642,
      "v": 94
    },
    {
      "midi": 71,
      "hit": false,
      "t": 227646.81599999953,
      "d": 1590.0718333333207,
      "v": 99
    },
    {
      "midi": 67,
      "hit": false,
      "t": 227646.81599999953,
      "d": 1608.4541666666628,
      "v": 90
    },
    {
      "midi": 55,
      "hit": false,
      "t": 227646.81599999953,
      "d": 1663.60116666666,
      "v": 95
    },
    {
      "midi": 71,
      "hit": false,
      "t": 228529.1679999982,
      "d": 487.13183333331835,
      "v": 101
    },
    {
      "midi": 79,
      "hit": false,
      "t": 228529.1679999982,
      "d": 505.51416666666046,
      "v": 98
    },
    {
      "midi": 74,
      "hit": false,
      "t": 228529.1679999982,
      "d": 533.0876666666591,
      "v": 101
    },
    {
      "midi": 67,
      "hit": false,
      "t": 228529.1679999982,
      "d": 560.6611666666577,
      "v": 89
    },
    {
      "midi": 81,
      "hit": false,
      "t": 228749.7559999982,
      "d": 303.30850000001374,
      "v": 89
    },
    {
      "midi": 83,
      "hit": false,
      "t": 228970.34399999818,
      "d": 229.77916666667443,
      "v": 105
    },
    {
      "midi": 62,
      "hit": false,
      "t": 229190.9319999982,
      "d": 91.91166666665231,
      "v": 69
    },
    {
      "midi": 71,
      "hit": false,
      "t": 229411.51999999819,
      "d": 248.16149999998743,
      "v": 104
    },
    {
      "midi": 66,
      "hit": false,
      "t": 229411.51999999819,
      "d": 514.705333333317,
      "v": 86
    },
    {
      "midi": 74,
      "hit": false,
      "t": 229411.51999999819,
      "d": 514.705333333317,
      "v": 105
    },
    {
      "midi": 79,
      "hit": false,
      "t": 229411.51999999819,
      "d": 523.8964999999735,
      "v": 103
    },
    {
      "midi": 54,
      "hit": false,
      "t": 229411.51999999819,
      "d": 928.3078333333251,
      "v": 99
    },
    {
      "midi": 62,
      "hit": false,
      "t": 229411.5199999995,
      "d": 1461.3955000000133,
      "v": 91
    },
    {
      "midi": 66,
      "hit": false,
      "t": 229411.5199999995,
      "d": 1534.9248333333526,
      "v": 94
    },
    {
      "midi": 71,
      "hit": false,
      "t": 229411.5199999995,
      "d": 1553.3071666666947,
      "v": 99
    },
    {
      "midi": 54,
      "hit": false,
      "t": 229411.5199999995,
      "d": 1737.1305000000284,
      "v": 99
    },
    {
      "midi": 71,
      "hit": false,
      "t": 229843.5048333315,
      "d": 220.58799999998882,
      "v": 44
    },
    {
      "midi": 74,
      "hit": false,
      "t": 230293.87199999817,
      "d": 284.92616666667163,
      "v": 96
    },
    {
      "midi": 71,
      "hit": false,
      "t": 230293.87199999817,
      "d": 395.22016666666605,
      "v": 99
    },
    {
      "midi": 66,
      "hit": false,
      "t": 230293.87199999817,
      "d": 431.98483333332115,
      "v": 87
    },
    {
      "midi": 79,
      "hit": false,
      "t": 230293.87199999817,
      "d": 477.94066666663275,
      "v": 97
    },
    {
      "midi": 81,
      "hit": false,
      "t": 230514.4599999982,
      "d": 284.9261666666134,
      "v": 89
    },
    {
      "midi": 83,
      "hit": false,
      "t": 230735.04799999815,
      "d": 101.10283333330881,
      "v": 104
    },
    {
      "midi": 54,
      "hit": false,
      "t": 230735.04799999815,
      "d": 110.29399999996531,
      "v": 88
    },
    {
      "midi": 64,
      "hit": false,
      "t": 231176.22399999812,
      "d": 652.5728333333391,
      "v": 74
    },
    {
      "midi": 76,
      "hit": false,
      "t": 231176.22399999812,
      "d": 744.4844999999914,
      "v": 67
    },
    {
      "midi": 83,
      "hit": false,
      "t": 231176.22399999812,
      "d": 772.05799999999,
      "v": 73
    },
    {
      "midi": 79,
      "hit": false,
      "t": 231176.22399999812,
      "d": 992.6459999999788,
      "v": 75
    },
    {
      "midi": 52,
      "hit": false,
      "t": 231176.22399999812,
      "d": 1066.1753333333181,
      "v": 80
    },
    {
      "midi": 88,
      "hit": false,
      "t": 231176.22399999812,
      "d": 1093.7488333333167,
      "v": 101
    },
    {
      "midi": 52,
      "hit": false,
      "t": 231176.22399999952,
      "d": 1838.2333333333372,
      "v": 87
    },
    {
      "midi": 67,
      "hit": false,
      "t": 231176.22399999952,
      "d": 3216.9083333333256,
      "v": 85
    },
    {
      "midi": 59,
      "hit": false,
      "t": 231176.22399999952,
      "d": 3244.481833333324,
      "v": 90
    },
    {
      "midi": 64,
      "hit": false,
      "t": 231176.22399999952,
      "d": 3262.8641666666663,
      "v": 81
    },
    {
      "midi": 71,
      "hit": false,
      "t": 231176.22399999952,
      "d": 3363.967000000004,
      "v": 98
    },
    {
      "midi": 64,
      "hit": false,
      "t": 232058.5759999981,
      "d": 376.83783333332394,
      "v": 70
    },
    {
      "midi": 76,
      "hit": false,
      "t": 232058.5759999981,
      "d": 542.2788333333156,
      "v": 84
    },
    {
      "midi": 83,
      "hit": false,
      "t": 232058.5759999981,
      "d": 680.1463333333086,
      "v": 89
    },
    {
      "midi": 79,
      "hit": false,
      "t": 232279.1639999981,
      "d": 294.11733333332813,
      "v": 63
    },
    {
      "midi": 71,
      "hit": false,
      "t": 232499.7519999981,
      "d": 974.2636666666658,
      "v": 84
    },
    {
      "midi": 76,
      "hit": false,
      "t": 232940.9279999981,
      "d": 533.0876666666591,
      "v": 73
    },
    {
      "midi": 79,
      "hit": false,
      "t": 232940.9279999981,
      "d": 542.2788333333156,
      "v": 81
    },
    {
      "midi": 50,
      "hit": false,
      "t": 232940.92799999952,
      "d": 1406.248499999987,
      "v": 84
    },
    {
      "midi": 76,
      "hit": false,
      "t": 233823.27999999808,
      "d": 229.77916666664532,
      "v": 105
    },
    {
      "midi": 79,
      "hit": false,
      "t": 233823.27999999808,
      "d": 284.92616666664253,
      "v": 104
    },
    {
      "midi": 74,
      "hit": false,
      "t": 234043.86799999807,
      "d": 441.17599999997765,
      "v": 95
    },
    {
      "midi": 77,
      "hit": false,
      "t": 234043.86799999807,
      "d": 450.36716666663415,
      "v": 85
    },
    {
      "midi": 67,
      "hit": false,
      "t": 234705.63199999803,
      "d": 266.54383333332953,
      "v": 101
    },
    {
      "midi": 74,
      "hit": false,
      "t": 234705.63199999803,
      "d": 413.60250000000815,
      "v": 104
    },
    {
      "midi": 60,
      "hit": false,
      "t": 234705.63199999803,
      "d": 468.74950000000536,
      "v": 97
    },
    {
      "midi": 79,
      "hit": false,
      "t": 234705.63199999803,
      "d": 496.32300000000396,
      "v": 107
    },
    {
      "midi": 48,
      "hit": false,
      "t": 234705.63199999803,
      "d": 1498.1601666666393,
      "v": 99
    },
    {
      "midi": 48,
      "hit": false,
      "t": 234705.63199999952,
      "d": 1277.5721666666504,
      "v": 99
    },
    {
      "midi": 60,
      "hit": false,
      "t": 234705.63199999952,
      "d": 1341.9103333333042,
      "v": 91
    },
    {
      "midi": 64,
      "hit": false,
      "t": 234705.63199999952,
      "d": 1360.2926666666463,
      "v": 85
    },
    {
      "midi": 67,
      "hit": false,
      "t": 234705.63199999952,
      "d": 1360.2926666666463,
      "v": 88
    },
    {
      "midi": 76,
      "hit": false,
      "t": 234926.21999999802,
      "d": 303.30850000001374,
      "v": 69
    },
    {
      "midi": 67,
      "hit": false,
      "t": 235146.80799999804,
      "d": 156.24983333333512,
      "v": 60
    },
    {
      "midi": 67,
      "hit": false,
      "t": 235587.98399999805,
      "d": 165.44099999999162,
      "v": 75
    },
    {
      "midi": 64,
      "hit": false,
      "t": 235587.98399999805,
      "d": 275.73499999998603,
      "v": 94
    },
    {
      "midi": 60,
      "hit": false,
      "t": 235587.98399999805,
      "d": 459.55833333331975,
      "v": 100
    },
    {
      "midi": 72,
      "hit": false,
      "t": 235587.98399999805,
      "d": 551.4699999999721,
      "v": 98
    },
    {
      "midi": 67,
      "hit": false,
      "t": 235808.57199999804,
      "d": 248.16149999998743,
      "v": 75
    },
    {
      "midi": 64,
      "hit": false,
      "t": 236029.15999999802,
      "d": 174.63216666664812,
      "v": 57
    },
    {
      "midi": 60,
      "hit": false,
      "t": 236249.747999998,
      "d": 193.01449999999022,
      "v": 89
    },
    {
      "midi": 67,
      "hit": false,
      "t": 236470.335999998,
      "d": 523.8965000000026,
      "v": 80
    },
    {
      "midi": 71,
      "hit": false,
      "t": 236470.335999998,
      "d": 588.2346666666563,
      "v": 95
    },
    {
      "midi": 79,
      "hit": false,
      "t": 236470.335999998,
      "d": 606.6169999999984,
      "v": 95
    },
    {
      "midi": 55,
      "hit": false,
      "t": 236470.335999998,
      "d": 1764.7039999999688,
      "v": 75
    },
    {
      "midi": 43,
      "hit": false,
      "t": 236470.3359999995,
      "d": 1764.703999999998,
      "v": 95
    },
    {
      "midi": 59,
      "hit": false,
      "t": 236470.3359999995,
      "d": 1764.703999999998,
      "v": 97
    },
    {
      "midi": 62,
      "hit": false,
      "t": 236470.3359999995,
      "d": 1764.703999999998,
      "v": 89
    },
    {
      "midi": 67,
      "hit": false,
      "t": 236470.3359999995,
      "d": 1764.703999999998,
      "v": 94
    },
    {
      "midi": 71,
      "hit": false,
      "t": 237352.687999998,
      "d": 238.97033333333093,
      "v": 79
    },
    {
      "midi": 67,
      "hit": false,
      "t": 237352.687999998,
      "d": 376.83783333332394,
      "v": 63
    },
    {
      "midi": 74,
      "hit": false,
      "t": 237352.687999998,
      "d": 459.55833333331975,
      "v": 72
    },
    {
      "midi": 79,
      "hit": false,
      "t": 237352.687999998,
      "d": 790.4403333333321,
      "v": 86
    },
    {
      "midi": 71,
      "hit": false,
      "t": 238014.45199999798,
      "d": 82.72049999999581,
      "v": 25
    },
    {
      "midi": 67,
      "hit": false,
      "t": 238235.03999999797,
      "d": 266.54383333332953,
      "v": 101
    },
    {
      "midi": 74,
      "hit": false,
      "t": 238235.03999999797,
      "d": 413.60250000000815,
      "v": 104
    },
    {
      "midi": 60,
      "hit": false,
      "t": 238235.03999999797,
      "d": 468.74950000000536,
      "v": 97
    },
    {
      "midi": 79,
      "hit": false,
      "t": 238235.03999999797,
      "d": 496.32300000000396,
      "v": 107
    },
    {
      "midi": 48,
      "hit": false,
      "t": 238235.03999999797,
      "d": 1498.1601666666393,
      "v": 99
    },
    {
      "midi": 48,
      "hit": false,
      "t": 238235.03999999948,
      "d": 1277.5721666666504,
      "v": 99
    },
    {
      "midi": 60,
      "hit": false,
      "t": 238235.03999999948,
      "d": 1341.9103333333042,
      "v": 91
    },
    {
      "midi": 64,
      "hit": false,
      "t": 238235.03999999948,
      "d": 1360.2926666666463,
      "v": 85
    },
    {
      "midi": 67,
      "hit": false,
      "t": 238235.03999999948,
      "d": 1360.2926666666463,
      "v": 88
    },
    {
      "midi": 76,
      "hit": false,
      "t": 238455.62799999796,
      "d": 303.30850000001374,
      "v": 69
    },
    {
      "midi": 67,
      "hit": false,
      "t": 238676.21599999798,
      "d": 156.24983333333512,
      "v": 60
    },
    {
      "midi": 67,
      "hit": false,
      "t": 239117.39199999798,
      "d": 165.44099999999162,
      "v": 75
    },
    {
      "midi": 64,
      "hit": false,
      "t": 239117.39199999798,
      "d": 275.73499999998603,
      "v": 94
    },
    {
      "midi": 60,
      "hit": false,
      "t": 239117.39199999798,
      "d": 459.55833333331975,
      "v": 100
    },
    {
      "midi": 72,
      "hit": false,
      "t": 239117.39199999798,
      "d": 551.4699999999721,
      "v": 98
    },
    {
      "midi": 67,
      "hit": false,
      "t": 239337.97999999797,
      "d": 248.16149999998743,
      "v": 75
    },
    {
      "midi": 64,
      "hit": false,
      "t": 239558.56799999796,
      "d": 174.63216666664812,
      "v": 57
    },
    {
      "midi": 60,
      "hit": false,
      "t": 239779.15599999795,
      "d": 193.01449999999022,
      "v": 89
    },
    {
      "midi": 67,
      "hit": false,
      "t": 239999.74399999794,
      "d": 523.8965000000026,
      "v": 80
    },
    {
      "midi": 71,
      "hit": false,
      "t": 239999.74399999794,
      "d": 588.2346666666563,
      "v": 95
    },
    {
      "midi": 79,
      "hit": false,
      "t": 239999.74399999794,
      "d": 606.6169999999984,
      "v": 95
    },
    {
      "midi": 55,
      "hit": false,
      "t": 239999.74399999794,
      "d": 1764.7039999999688,
      "v": 75
    },
    {
      "midi": 43,
      "hit": false,
      "t": 239999.74399999945,
      "d": 1764.703999999998,
      "v": 95
    },
    {
      "midi": 59,
      "hit": false,
      "t": 239999.74399999945,
      "d": 1764.703999999998,
      "v": 97
    },
    {
      "midi": 62,
      "hit": false,
      "t": 239999.74399999945,
      "d": 1764.703999999998,
      "v": 89
    },
    {
      "midi": 67,
      "hit": false,
      "t": 239999.74399999945,
      "d": 1764.703999999998,
      "v": 94
    },
    {
      "midi": 71,
      "hit": false,
      "t": 240882.09599999792,
      "d": 238.97033333333093,
      "v": 79
    },
    {
      "midi": 67,
      "hit": false,
      "t": 240882.09599999792,
      "d": 376.83783333332394,
      "v": 63
    },
    {
      "midi": 74,
      "hit": false,
      "t": 240882.09599999792,
      "d": 459.55833333331975,
      "v": 72
    },
    {
      "midi": 79,
      "hit": false,
      "t": 240882.09599999792,
      "d": 790.4403333333321,
      "v": 86
    },
    {
      "midi": 71,
      "hit": false,
      "t": 241543.85999999792,
      "d": 82.72049999999581,
      "v": 25
    },
    {
      "midi": 67,
      "hit": false,
      "t": 241764.4479999979,
      "d": 266.54383333332953,
      "v": 101
    },
    {
      "midi": 74,
      "hit": false,
      "t": 241764.4479999979,
      "d": 413.60250000000815,
      "v": 104
    },
    {
      "midi": 60,
      "hit": false,
      "t": 241764.4479999979,
      "d": 468.74950000000536,
      "v": 97
    },
    {
      "midi": 79,
      "hit": false,
      "t": 241764.4479999979,
      "d": 496.32300000000396,
      "v": 107
    },
    {
      "midi": 48,
      "hit": false,
      "t": 241764.4479999979,
      "d": 1498.1601666666393,
      "v": 99
    },
    {
      "midi": 48,
      "hit": false,
      "t": 241764.44799999945,
      "d": 1277.5721666666504,
      "v": 99
    },
    {
      "midi": 60,
      "hit": false,
      "t": 241764.44799999945,
      "d": 1341.9103333333042,
      "v": 91
    },
    {
      "midi": 64,
      "hit": false,
      "t": 241764.44799999945,
      "d": 1360.2926666666463,
      "v": 85
    },
    {
      "midi": 67,
      "hit": false,
      "t": 241764.44799999945,
      "d": 1360.2926666666463,
      "v": 88
    },
    {
      "midi": 76,
      "hit": false,
      "t": 241985.0359999979,
      "d": 303.30850000001374,
      "v": 69
    },
    {
      "midi": 67,
      "hit": false,
      "t": 242205.62399999792,
      "d": 156.24983333333512,
      "v": 60
    },
    {
      "midi": 67,
      "hit": false,
      "t": 242646.79999999792,
      "d": 165.44099999999162,
      "v": 75
    },
    {
      "midi": 64,
      "hit": false,
      "t": 242646.79999999792,
      "d": 275.73499999998603,
      "v": 94
    },
    {
      "midi": 60,
      "hit": false,
      "t": 242646.79999999792,
      "d": 459.55833333331975,
      "v": 100
    },
    {
      "midi": 72,
      "hit": false,
      "t": 242646.79999999792,
      "d": 551.4699999999721,
      "v": 98
    },
    {
      "midi": 67,
      "hit": false,
      "t": 242867.3879999979,
      "d": 248.16149999998743,
      "v": 75
    },
    {
      "midi": 64,
      "hit": false,
      "t": 243087.9759999979,
      "d": 174.63216666664812,
      "v": 57
    },
    {
      "midi": 60,
      "hit": false,
      "t": 243308.5639999979,
      "d": 193.01449999999022,
      "v": 89
    },
    {
      "midi": 67,
      "hit": false,
      "t": 243529.15199999788,
      "d": 1709.5570000000007,
      "v": 80
    },
    {
      "midi": 71,
      "hit": false,
      "t": 243529.15199999788,
      "d": 1727.9393333333428,
      "v": 95
    },
    {
      "midi": 79,
      "hit": false,
      "t": 243529.15199999788,
      "d": 1727.9393333333428,
      "v": 95
    },
    {
      "midi": 55,
      "hit": false,
      "t": 243529.15199999788,
      "d": 1755.5128333333414,
      "v": 75
    },
    {
      "midi": 43,
      "hit": false,
      "t": 243529.15199999942,
      "d": 1755.5128333333414,
      "v": 95
    },
    {
      "midi": 59,
      "hit": false,
      "t": 243529.15199999942,
      "d": 1755.5128333333414,
      "v": 97
    },
    {
      "midi": 62,
      "hit": false,
      "t": 243529.15199999942,
      "d": 1755.5128333333414,
      "v": 89
    },
    {
      "midi": 67,
      "hit": false,
      "t": 243529.15199999942,
      "d": 1755.5128333333414,
      "v": 94
    }
  ]
}