{
  "jsonPath": "Rock/Classic Rock/Jon Bon Jovi/always.json",
  "path": "Rock\\Classic Rock\\Jon Bon Jovi\\Always.mid",
  "name": "Always",
  "difficulty": "Advanced",
  "bpm": 70.00007000007,
  "notes": [
    {
      "midi": 64,
      "hit": false,
      "t": 0,
      "d": 1285.713,
      "v": 100
    },
    {
      "midi": 56,
      "hit": false,
      "t": 0,
      "d": 1714.284,
      "v": 100
    },
    {
      "midi": 59,
      "hit": false,
      "t": 0,
      "d": 1714.284,
      "v": 100
    },
    {
      "midi": 40,
      "hit": false,
      "t": 0,
      "d": 1285.713,
      "v": 100
    },
    {
      "midi": 66,
      "hit": false,
      "t": 1285.713,
      "d": 214.28549999999996,
      "v": 100
    },
    {
      "midi": 40,
      "hit": false,
      "t": 1285.713,
      "d": 428.57100000000014,
      "v": 100
    },
    {
      "midi": 68,
      "hit": false,
      "t": 1499.9985,
      "d": 214.28549999999996,
      "v": 100
    },
    {
      "midi": 69,
      "hit": false,
      "t": 1714.2839999999999,
      "d": 428.57100000000014,
      "v": 100
    },
    {
      "midi": 59,
      "hit": false,
      "t": 1714.284,
      "d": 1714.284,
      "v": 100
    },
    {
      "midi": 64,
      "hit": false,
      "t": 1714.284,
      "d": 1714.284,
      "v": 100
    },
    {
      "midi": 40,
      "hit": false,
      "t": 1714.284,
      "d": 1714.284,
      "v": 100
    },
    {
      "midi": 68,
      "hit": false,
      "t": 2142.855,
      "d": 428.5709999999999,
      "v": 100
    },
    {
      "midi": 66,
      "hit": false,
      "t": 2571.426,
      "d": 428.5709999999999,
      "v": 100
    },
    {
      "midi": 64,
      "hit": false,
      "t": 2999.997,
      "d": 428.5709999999999,
      "v": 100
    },
    {
      "midi": 59,
      "hit": false,
      "t": 3428.5679999999998,
      "d": 3428.5680000000007,
      "v": 100
    },
    {
      "midi": 61,
      "hit": false,
      "t": 3428.5679999999998,
      "d": 3428.5680000000007,
      "v": 100
    },
    {
      "midi": 64,
      "hit": false,
      "t": 3428.5679999999998,
      "d": 3428.5680000000007,
      "v": 100
    },
    {
      "midi": 45,
      "hit": false,
      "t": 3428.568,
      "d": 1714.2840000000006,
      "v": 100
    },
    {
      "midi": 45,
      "hit": false,
      "t": 5142.852000000001,
      "d": 428.5709999999999,
      "v": 100
    },
    {
      "midi": 45,
      "hit": false,
      "t": 5571.423000000001,
      "d": 428.5709999999999,
      "v": 100
    },
    {
      "midi": 47,
      "hit": false,
      "t": 5999.994000000001,
      "d": 857.1419999999998,
      "v": 100
    },
    {
      "midi": 64,
      "hit": false,
      "t": 6857.136,
      "d": 1285.7129999999997,
      "v": 100
    },
    {
      "midi": 56,
      "hit": false,
      "t": 6857.136,
      "d": 1714.2839999999997,
      "v": 100
    },
    {
      "midi": 61,
      "hit": false,
      "t": 6857.136,
      "d": 1714.2839999999997,
      "v": 100
    },
    {
      "midi": 49,
      "hit": false,
      "t": 6857.136,
      "d": 428.5709999999999,
      "v": 100
    },
    {
      "midi": 49,
      "hit": false,
      "t": 7285.707,
      "d": 428.5709999999999,
      "v": 100
    },
    {
      "midi": 51,
      "hit": false,
      "t": 7714.278,
      "d": 428.5709999999999,
      "v": 100
    },
    {
      "midi": 66,
      "hit": false,
      "t": 8142.849,
      "d": 214.28549999999996,
      "v": 100
    },
    {
      "midi": 52,
      "hit": false,
      "t": 8142.849,
      "d": 428.5709999999999,
      "v": 100
    },
    {
      "midi": 68,
      "hit": false,
      "t": 8357.1345,
      "d": 214.28549999999996,
      "v": 100
    },
    {
      "midi": 69,
      "hit": false,
      "t": 8571.42,
      "d": 428.5709999999999,
      "v": 100
    },
    {
      "midi": 59,
      "hit": false,
      "t": 8571.42,
      "d": 1714.2839999999997,
      "v": 100
    },
    {
      "midi": 63,
      "hit": false,
      "t": 8571.42,
      "d": 1714.2839999999997,
      "v": 100
    },
    {
      "midi": 45,
      "hit": false,
      "t": 8571.42,
      "d": 428.5709999999999,
      "v": 100
    },
    {
      "midi": 68,
      "hit": false,
      "t": 8999.991,
      "d": 428.5709999999999,
      "v": 100
    },
    {
      "midi": 45,
      "hit": false,
      "t": 8999.991,
      "d": 428.5709999999999,
      "v": 100
    },
    {
      "midi": 66,
      "hit": false,
      "t": 9428.562,
      "d": 428.5709999999999,
      "v": 100
    },
    {
      "midi": 51,
      "hit": false,
      "t": 9428.562,
      "d": 428.5709999999999,
      "v": 100
    },
    {
      "midi": 64,
      "hit": false,
      "t": 9857.133,
      "d": 428.5709999999999,
      "v": 100
    },
    {
      "midi": 52,
      "hit": false,
      "t": 9857.133,
      "d": 428.5709999999999,
      "v": 100
    },
    {
      "midi": 64,
      "hit": false,
      "t": 10285.704,
      "d": 6857.136,
      "v": 100
    },
    {
      "midi": 61,
      "hit": false,
      "t": 10285.704,
      "d": 428.5709999999999,
      "v": 100
    },
    {
      "midi": 57,
      "hit": false,
      "t": 10285.704,
      "d": 6857.136,
      "v": 100
    },
    {
      "midi": 59,
      "hit": false,
      "t": 10714.275,
      "d": 428.5709999999999,
      "v": 100
    },
    {
      "midi": 61,
      "hit": false,
      "t": 11142.846,
      "d": 428.5709999999999,
      "v": 100
    },
    {
      "midi": 59,
      "hit": false,
      "t": 11571.417,
      "d": 428.5709999999999,
      "v": 100
    },
    {
      "midi": 61,
      "hit": false,
      "t": 11999.988,
      "d": 428.5709999999999,
      "v": 100
    },
    {
      "midi": 59,
      "hit": false,
      "t": 12428.559,
      "d": 428.5709999999999,
      "v": 100
    },
    {
      "midi": 61,
      "hit": false,
      "t": 12857.13,
      "d": 428.5709999999999,
      "v": 100
    },
    {
      "midi": 59,
      "hit": false,
      "t": 13285.701,
      "d": 428.5709999999999,
      "v": 100
    },
    {
      "midi": 61,
      "hit": false,
      "t": 13714.271999999999,
      "d": 428.5709999999999,
      "v": 100
    },
    {
      "midi": 59,
      "hit": false,
      "t": 14142.842999999999,
      "d": 428.5709999999999,
      "v": 100
    },
    {
      "midi": 61,
      "hit": false,
      "t": 14571.413999999999,
      "d": 428.5709999999999,
      "v": 100
    },
    {
      "midi": 59,
      "hit": false,
      "t": 14999.984999999999,
      "d": 428.5709999999999,
      "v": 100
    },
    {
      "midi": 61,
      "hit": false,
      "t": 15428.555999999999,
      "d": 428.5709999999999,
      "v": 100
    },
    {
      "midi": 59,
      "hit": false,
      "t": 15857.126999999999,
      "d": 428.5709999999999,
      "v": 100
    },
    {
      "midi": 61,
      "hit": false,
      "t": 16285.697999999999,
      "d": 428.57100000000173,
      "v": 100
    },
    {
      "midi": 59,
      "hit": false,
      "t": 16714.269,
      "d": 428.5709999999999,
      "v": 100
    },
    {
      "midi": 63,
      "hit": false,
      "t": 17142.84,
      "d": 428.5709999999999,
      "v": 100
    },
    {
      "midi": 56,
      "hit": false,
      "t": 17142.84,
      "d": 857.1419999999998,
      "v": 100
    },
    {
      "midi": 64,
      "hit": false,
      "t": 17142.84,
      "d": 857.1419999999998,
      "v": 100
    },
    {
      "midi": 49,
      "hit": false,
      "t": 17142.84,
      "d": 3428.5679999999993,
      "v": 100
    },
    {
      "midi": 61,
      "hit": false,
      "t": 17571.411,
      "d": 428.5709999999999,
      "v": 100
    },
    {
      "midi": 63,
      "hit": false,
      "t": 17999.982,
      "d": 428.5709999999999,
      "v": 100
    },
    {
      "midi": 56,
      "hit": false,
      "t": 17999.982,
      "d": 857.1419999999998,
      "v": 100
    },
    {
      "midi": 64,
      "hit": false,
      "t": 17999.982,
      "d": 857.1419999999998,
      "v": 100
    },
    {
      "midi": 61,
      "hit": false,
      "t": 18428.553,
      "d": 428.5709999999999,
      "v": 100
    },
    {
      "midi": 63,
      "hit": false,
      "t": 18857.124,
      "d": 428.5709999999999,
      "v": 100
    },
    {
      "midi": 56,
      "hit": false,
      "t": 18857.124,
      "d": 857.1419999999998,
      "v": 100
    },
    {
      "midi": 64,
      "hit": false,
      "t": 18857.124,
      "d": 857.1419999999998,
      "v": 100
    },
    {
      "midi": 61,
      "hit": false,
      "t": 19285.695,
      "d": 428.5709999999999,
      "v": 100
    },
    {
      "midi": 63,
      "hit": false,
      "t": 19714.266,
      "d": 428.5709999999999,
      "v": 100
    },
    {
      "midi": 56,
      "hit": false,
      "t": 19714.266,
      "d": 857.1419999999998,
      "v": 100
    },
    {
      "midi": 64,
      "hit": false,
      "t": 19714.266,
      "d": 857.1419999999998,
      "v": 100
    },
    {
      "midi": 61,
      "hit": false,
      "t": 20142.837,
      "d": 428.5709999999999,
      "v": 100
    },
    {
      "midi": 61,
      "hit": false,
      "t": 20571.408,
      "d": 428.5709999999999,
      "v": 100
    },
    {
      "midi": 54,
      "hit": false,
      "t": 20571.408,
      "d": 857.1419999999998,
      "v": 100
    },
    {
      "midi": 63,
      "hit": false,
      "t": 20571.408,
      "d": 857.1419999999998,
      "v": 100
    },
    {
      "midi": 47,
      "hit": false,
      "t": 20571.408,
      "d": 3428.5679999999993,
      "v": 100
    },
    {
      "midi": 59,
      "hit": false,
      "t": 20999.979,
      "d": 428.5709999999999,
      "v": 100
    },
    {
      "midi": 61,
      "hit": false,
      "t": 21428.55,
      "d": 428.5709999999999,
      "v": 100
    },
    {
      "midi": 54,
      "hit": false,
      "t": 21428.55,
      "d": 857.1419999999998,
      "v": 100
    },
    {
      "midi": 63,
      "hit": false,
      "t": 21428.55,
      "d": 857.1419999999998,
      "v": 100
    },
    {
      "midi": 59,
      "hit": false,
      "t": 21857.121,
      "d": 428.5709999999999,
      "v": 100
    },
    {
      "midi": 61,
      "hit": false,
      "t": 22285.692,
      "d": 428.5709999999999,
      "v": 100
    },
    {
      "midi": 54,
      "hit": false,
      "t": 22285.692,
      "d": 857.1419999999998,
      "v": 100
    },
    {
      "midi": 63,
      "hit": false,
      "t": 22285.692,
      "d": 857.1419999999998,
      "v": 100
    },
    {
      "midi": 59,
      "hit": false,
      "t": 22714.263,
      "d": 428.5709999999999,
      "v": 100
    },
    {
      "midi": 61,
      "hit": false,
      "t": 23142.834,
      "d": 428.5709999999999,
      "v": 100
    },
    {
      "midi": 54,
      "hit": false,
      "t": 23142.834,
      "d": 857.1419999999998,
      "v": 100
    },
    {
      "midi": 63,
      "hit": false,
      "t": 23142.834,
      "d": 857.1419999999998,
      "v": 100
    },
    {
      "midi": 59,
      "hit": false,
      "t": 23571.405,
      "d": 428.5709999999999,
      "v": 100
    },
    {
      "midi": 59,
      "hit": false,
      "t": 23999.976,
      "d": 428.5709999999999,
      "v": 100
    },
    {
      "midi": 63,
      "hit": false,
      "t": 23999.976,
      "d": 857.1419999999998,
      "v": 100
    },
    {
      "midi": 66,
      "hit": false,
      "t": 23999.976,
      "d": 857.1419999999998,
      "v": 100
    },
    {
      "midi": 45,
      "hit": false,
      "t": 23999.976,
      "d": 3428.5679999999993,
      "v": 100
    },
    {
      "midi": 57,
      "hit": false,
      "t": 24428.547,
      "d": 428.5709999999999,
      "v": 100
    },
    {
      "midi": 59,
      "hit": false,
      "t": 24857.118,
      "d": 428.5709999999999,
      "v": 100
    },
    {
      "midi": 63,
      "hit": false,
      "t": 24857.118,
      "d": 857.1419999999998,
      "v": 100
    },
    {
      "midi": 66,
      "hit": false,
      "t": 24857.118,
      "d": 857.1419999999998,
      "v": 100
    },
    {
      "midi": 57,
      "hit": false,
      "t": 25285.689,
      "d": 428.5709999999999,
      "v": 100
    },
    {
      "midi": 59,
      "hit": false,
      "t": 25714.26,
      "d": 428.5709999999999,
      "v": 100
    },
    {
      "midi": 61,
      "hit": false,
      "t": 25714.26,
      "d": 857.1419999999998,
      "v": 100
    },
    {
      "midi": 64,
      "hit": false,
      "t": 25714.26,
      "d": 857.1419999999998,
      "v": 100
    },
    {
      "midi": 57,
      "hit": false,
      "t": 26142.831,
      "d": 428.5709999999999,
      "v": 100
    },
    {
      "midi": 59,
      "hit": false,
      "t": 26571.402,
      "d": 428.5709999999999,
      "v": 100
    },
    {
      "midi": 61,
      "hit": false,
      "t": 26571.402,
      "d": 857.1419999999998,
      "v": 100
    },
    {
      "midi": 64,
      "hit": false,
      "t": 26571.402,
      "d": 857.1419999999998,
      "v": 100
    },
    {
      "midi": 57,
      "hit": false,
      "t": 26999.972999999998,
      "d": 428.5709999999999,
      "v": 100
    },
    {
      "midi": 63,
      "hit": false,
      "t": 27428.543999999998,
      "d": 428.5709999999999,
      "v": 100
    },
    {
      "midi": 59,
      "hit": false,
      "t": 27428.543999999998,
      "d": 857.1419999999998,
      "v": 100
    },
    {
      "midi": 44,
      "hit": false,
      "t": 27428.543999999998,
      "d": 2571.4259999999995,
      "v": 100
    },
    {
      "midi": 56,
      "hit": false,
      "t": 27857.114999999998,
      "d": 428.5709999999999,
      "v": 100
    },
    {
      "midi": 63,
      "hit": false,
      "t": 28285.685999999998,
      "d": 428.5709999999999,
      "v": 100
    },
    {
      "midi": 59,
      "hit": false,
      "t": 28285.685999999998,
      "d": 857.1419999999998,
      "v": 100
    },
    {
      "midi": 56,
      "hit": false,
      "t": 28714.256999999998,
      "d": 428.5709999999999,
      "v": 100
    },
    {
      "midi": 63,
      "hit": false,
      "t": 29142.827999999998,
      "d": 428.5709999999999,
      "v": 100
    },
    {
      "midi": 59,
      "hit": false,
      "t": 29142.827999999998,
      "d": 857.1419999999998,
      "v": 100
    },
    {
      "midi": 56,
      "hit": false,
      "t": 29571.398999999998,
      "d": 428.5709999999999,
      "v": 100
    },
    {
      "midi": 59,
      "hit": false,
      "t": 29999.969999999998,
      "d": 214.28550000000178,
      "v": 100
    },
    {
      "midi": 63,
      "hit": false,
      "t": 29999.969999999998,
      "d": 214.28550000000178,
      "v": 100
    },
    {
      "midi": 52,
      "hit": false,
      "t": 30214.2555,
      "d": 642.8565000000017,
      "v": 100
    },
    {
      "midi": 54,
      "hit": false,
      "t": 30214.2555,
      "d": 642.8565000000017,
      "v": 100
    },
    {
      "midi": 59,
      "hit": false,
      "t": 30214.2555,
      "d": 642.8565000000017,
      "v": 100
    },
    {
      "midi": 63,
      "hit": false,
      "t": 30214.2555,
      "d": 642.8565000000017,
      "v": 100
    },
    {
      "midi": 47,
      "hit": false,
      "t": 30428.540999999997,
      "d": 428.5709999999999,
      "v": 100
    },
    {
      "midi": 56,
      "hit": false,
      "t": 30857.111999999997,
      "d": 857.1419999999998,
      "v": 100
    },
    {
      "midi": 64,
      "hit": false,
      "t": 30857.111999999997,
      "d": 857.1419999999998,
      "v": 100
    },
    {
      "midi": 49,
      "hit": false,
      "t": 30857.111999999997,
      "d": 3428.568000000003,
      "v": 100
    },
    {
      "midi": 63,
      "hit": false,
      "t": 30857.112,
      "d": 428.5709999999999,
      "v": 100
    },
    {
      "midi": 61,
      "hit": false,
      "t": 31285.683,
      "d": 428.5709999999999,
      "v": 100
    },
    {
      "midi": 56,
      "hit": false,
      "t": 31714.253999999997,
      "d": 857.1419999999998,
      "v": 100
    },
    {
      "midi": 64,
      "hit": false,
      "t": 31714.253999999997,
      "d": 857.1419999999998,
      "v": 100
    },
    {
      "midi": 63,
      "hit": false,
      "t": 31714.254,
      "d": 428.5709999999999,
      "v": 100
    },
    {
      "midi": 61,
      "hit": false,
      "t": 32142.825,
      "d": 428.5709999999999,
      "v": 100
    },
    {
      "midi": 56,
      "hit": false,
      "t": 32571.395999999997,
      "d": 857.1420000000035,
      "v": 100
    },
    {
      "midi": 64,
      "hit": false,
      "t": 32571.395999999997,
      "d": 857.1420000000035,
      "v": 100
    },
    {
      "midi": 63,
      "hit": false,
      "t": 32571.396,
      "d": 428.57100000000355,
      "v": 100
    },
    {
      "midi": 61,
      "hit": false,
      "t": 32999.967000000004,
      "d": 428.57100000000355,
      "v": 100
    },
    {
      "midi": 56,
      "hit": false,
      "t": 33428.538,
      "d": 857.1419999999998,
      "v": 100
    },
    {
      "midi": 64,
      "hit": false,
      "t": 33428.538,
      "d": 857.1419999999998,
      "v": 100
    },
    {
      "midi": 63,
      "hit": false,
      "t": 33428.53800000001,
      "d": 428.57100000000355,
      "v": 100
    },
    {
      "midi": 61,
      "hit": false,
      "t": 33857.10900000001,
      "d": 428.57100000000355,
      "v": 100
    },
    {
      "midi": 54,
      "hit": false,
      "t": 34285.68,
      "d": 857.1419999999998,
      "v": 100
    },
    {
      "midi": 63,
      "hit": false,
      "t": 34285.68,
      "d": 857.1419999999998,
      "v": 100
    },
    {
      "midi": 47,
      "hit": false,
      "t": 34285.68,
      "d": 3428.5679999999993,
      "v": 100
    },
    {
      "midi": 61,
      "hit": false,
      "t": 34285.680000000015,
      "d": 428.57100000000355,
      "v": 100
    },
    {
      "midi": 59,
      "hit": false,
      "t": 34714.25100000002,
      "d": 428.57100000000355,
      "v": 100
    },
    {
      "midi": 54,
      "hit": false,
      "t": 35142.822,
      "d": 857.1419999999998,
      "v": 100
    },
    {
      "midi": 63,
      "hit": false,
      "t": 35142.822,
      "d": 857.1419999999998,
      "v": 100
    },
    {
      "midi": 61,
      "hit": false,
      "t": 35142.82200000002,
      "d": 428.57100000000355,
      "v": 100
    },
    {
      "midi": 59,
      "hit": false,
      "t": 35571.393000000025,
      "d": 428.57100000000355,
      "v": 100
    },
    {
      "midi": 54,
      "hit": false,
      "t": 35999.964,
      "d": 857.1419999999998,
      "v": 100
    },
    {
      "midi": 63,
      "hit": false,
      "t": 35999.964,
      "d": 857.1419999999998,
      "v": 100
    },
    {
      "midi": 61,
      "hit": false,
      "t": 35999.96400000003,
      "d": 428.57100000000355,
      "v": 100
    },
    {
      "midi": 59,
      "hit": false,
      "t": 36428.53500000003,
      "d": 428.57100000000355,
      "v": 100
    },
    {
      "midi": 54,
      "hit": false,
      "t": 36857.106,
      "d": 857.1419999999998,
      "v": 100
    },
    {
      "midi": 63,
      "hit": false,
      "t": 36857.106,
      "d": 857.1419999999998,
      "v": 100
    },
    {
      "midi": 61,
      "hit": false,
      "t": 36857.106000000036,
      "d": 428.57100000000355,
      "v": 100
    },
    {
      "midi": 59,
      "hit": false,
      "t": 37285.67700000004,
      "d": 428.57100000000355,
      "v": 100
    },
    {
      "midi": 61,
      "hit": false,
      "t": 37714.248,
      "d": 857.1419999999998,
      "v": 100
    },
    {
      "midi": 64,
      "hit": false,
      "t": 37714.248,
      "d": 857.1419999999998,
      "v": 100
    },
    {
      "midi": 45,
      "hit": false,
      "t": 37714.248,
      "d": 3428.5679999999993,
      "v": 100
    },
    {
      "midi": 59,
      "hit": false,
      "t": 37714.24800000004,
      "d": 428.57100000000355,
      "v": 100
    },
    {
      "midi": 57,
      "hit": false,
      "t": 38142.81900000005,
      "d": 428.57100000000355,
      "v": 100
    },
    {
      "midi": 61,
      "hit": false,
      "t": 38571.39,
      "d": 857.1419999999998,
      "v": 100
    },
    {
      "midi": 64,
      "hit": false,
      "t": 38571.39,
      "d": 857.1419999999998,
      "v": 100
    },
    {
      "midi": 59,
      "hit": false,
      "t": 38571.39000000005,
      "d": 428.57100000000355,
      "v": 100
    },
    {
      "midi": 57,
      "hit": false,
      "t": 38999.961000000054,
      "d": 428.57100000000355,
      "v": 100
    },
    {
      "midi": 61,
      "hit": false,
      "t": 39428.532,
      "d": 857.1419999999998,
      "v": 100
    },
    {
      "midi": 64,
      "hit": false,
      "t": 39428.532,
      "d": 857.1419999999998,
      "v": 100
    },
    {
      "midi": 59,
      "hit": false,
      "t": 39428.53200000006,
      "d": 428.57100000000355,
      "v": 100
    },
    {
      "midi": 57,
      "hit": false,
      "t": 39857.10300000006,
      "d": 428.57100000000355,
      "v": 100
    },
    {
      "midi": 61,
      "hit": false,
      "t": 40285.674,
      "d": 857.1419999999998,
      "v": 100
    },
    {
      "midi": 64,
      "hit": false,
      "t": 40285.674,
      "d": 857.1419999999998,
      "v": 100
    },
    {
      "midi": 59,
      "hit": false,
      "t": 40285.674000000065,
      "d": 428.57100000000355,
      "v": 100
    },
    {
      "midi": 57,
      "hit": false,
      "t": 40714.24500000007,
      "d": 428.57100000000355,
      "v": 100
    },
    {
      "midi": 59,
      "hit": false,
      "t": 41142.816,
      "d": 857.1419999999998,
      "v": 100
    },
    {
      "midi": 44,
      "hit": false,
      "t": 41142.816,
      "d": 1714.2839999999997,
      "v": 100
    },
    {
      "midi": 63,
      "hit": false,
      "t": 41142.81600000007,
      "d": 428.57100000000355,
      "v": 100
    },
    {
      "midi": 56,
      "hit": false,
      "t": 41571.387000000075,
      "d": 428.57100000000355,
      "v": 100
    },
    {
      "midi": 59,
      "hit": false,
      "t": 41999.958,
      "d": 857.1419999999998,
      "v": 100
    },
    {
      "midi": 63,
      "hit": false,
      "t": 41999.95800000008,
      "d": 428.57100000000355,
      "v": 100
    },
    {
      "midi": 56,
      "hit": false,
      "t": 42428.52900000008,
      "d": 428.57100000000355,
      "v": 100
    },
    {
      "midi": 61,
      "hit": false,
      "t": 42857.1,
      "d": 857.1419999999998,
      "v": 100
    },
    {
      "midi": 45,
      "hit": false,
      "t": 42857.1,
      "d": 857.1419999999998,
      "v": 100
    },
    {
      "midi": 64,
      "hit": false,
      "t": 42857.100000000086,
      "d": 428.57100000000355,
      "v": 100
    },
    {
      "midi": 57,
      "hit": false,
      "t": 43285.67100000009,
      "d": 428.57100000000355,
      "v": 100
    },
    {
      "midi": 47,
      "hit": false,
      "t": 43714.242,
      "d": 857.1419999999998,
      "v": 100
    },
    {
      "midi": 54,
      "hit": false,
      "t": 43714.24200000009,
      "d": 214.28549999999814,
      "v": 100
    },
    {
      "midi": 59,
      "hit": false,
      "t": 43714.24200000009,
      "d": 214.28549999999814,
      "v": 100
    },
    {
      "midi": 63,
      "hit": false,
      "t": 43714.24200000009,
      "d": 214.28549999999814,
      "v": 100
    },
    {
      "midi": 54,
      "hit": false,
      "t": 43928.52750000009,
      "d": 642.8565000000017,
      "v": 100
    },
    {
      "midi": 59,
      "hit": false,
      "t": 43928.52750000009,
      "d": 642.8565000000017,
      "v": 100
    },
    {
      "midi": 63,
      "hit": false,
      "t": 43928.52750000009,
      "d": 642.8565000000017,
      "v": 100
    },
    {
      "midi": 56,
      "hit": false,
      "t": 44571.384,
      "d": 857.1419999999998,
      "v": 100
    },
    {
      "midi": 64,
      "hit": false,
      "t": 44571.384,
      "d": 857.1419999999998,
      "v": 100
    },
    {
      "midi": 49,
      "hit": false,
      "t": 44571.384,
      "d": 3428.5679999999993,
      "v": 100
    },
    {
      "midi": 63,
      "hit": false,
      "t": 44571.38400000009,
      "d": 428.57100000000355,
      "v": 100
    },
    {
      "midi": 61,
      "hit": false,
      "t": 44999.955000000096,
      "d": 428.57100000000355,
      "v": 100
    },
    {
      "midi": 56,
      "hit": false,
      "t": 45428.526,
      "d": 857.1419999999998,
      "v": 100
    },
    {
      "midi": 64,
      "hit": false,
      "t": 45428.526,
      "d": 857.1419999999998,
      "v": 100
    },
    {
      "midi": 63,
      "hit": false,
      "t": 45428.5260000001,
      "d": 428.57100000000355,
      "v": 100
    },
    {
      "midi": 61,
      "hit": false,
      "t": 45857.0970000001,
      "d": 428.57100000000355,
      "v": 100
    },
    {
      "midi": 56,
      "hit": false,
      "t": 46285.668,
      "d": 857.1419999999998,
      "v": 100
    },
    {
      "midi": 64,
      "hit": false,
      "t": 46285.668,
      "d": 857.1419999999998,
      "v": 100
    },
    {
      "midi": 63,
      "hit": false,
      "t": 46285.66800000011,
      "d": 428.57100000000355,
      "v": 100
    },
    {
      "midi": 61,
      "hit": false,
      "t": 46714.23900000011,
      "d": 428.57100000000355,
      "v": 100
    },
    {
      "midi": 56,
      "hit": false,
      "t": 47142.81,
      "d": 857.1419999999998,
      "v": 100
    },
    {
      "midi": 64,
      "hit": false,
      "t": 47142.81,
      "d": 857.1419999999998,
      "v": 100
    },
    {
      "midi": 63,
      "hit": false,
      "t": 47142.810000000114,
      "d": 428.57100000000355,
      "v": 100
    },
    {
      "midi": 61,
      "hit": false,
      "t": 47571.38100000012,
      "d": 428.57100000000355,
      "v": 100
    },
    {
      "midi": 61,
      "hit": false,
      "t": 47999.952,
      "d": 428.57100000000355,
      "v": 100
    },
    {
      "midi": 51,
      "hit": false,
      "t": 47999.952,
      "d": 3428.5679999999993,
      "v": 100
    },
    {
      "midi": 66,
      "hit": false,
      "t": 47999.95200000012,
      "d": 857.1419999999998,
      "v": 100
    },
    {
      "midi": 59,
      "hit": false,
      "t": 48428.523,
      "d": 428.57100000000355,
      "v": 100
    },
    {
      "midi": 61,
      "hit": false,
      "t": 48857.094000000005,
      "d": 428.57100000000355,
      "v": 100
    },
    {
      "midi": 66,
      "hit": false,
      "t": 48857.09400000012,
      "d": 857.1419999999998,
      "v": 100
    },
    {
      "midi": 59,
      "hit": false,
      "t": 49285.66500000001,
      "d": 428.57100000000355,
      "v": 100
    },
    {
      "midi": 61,
      "hit": false,
      "t": 49714.23600000001,
      "d": 428.57100000000355,
      "v": 100
    },
    {
      "midi": 66,
      "hit": false,
      "t": 49714.23600000012,
      "d": 857.1419999999998,
      "v": 100
    },
    {
      "midi": 59,
      "hit": false,
      "t": 50142.807000000015,
      "d": 428.57100000000355,
      "v": 100
    },
    {
      "midi": 61,
      "hit": false,
      "t": 50571.37800000002,
      "d": 428.57100000000355,
      "v": 100
    },
    {
      "midi": 66,
      "hit": false,
      "t": 50571.37800000012,
      "d": 857.1419999999998,
      "v": 100
    },
    {
      "midi": 59,
      "hit": false,
      "t": 50999.94900000002,
      "d": 428.57100000000355,
      "v": 100
    },
    {
      "midi": 52,
      "hit": false,
      "t": 51428.52,
      "d": 1714.2839999999997,
      "v": 100
    },
    {
      "midi": 61,
      "hit": false,
      "t": 51428.520000000026,
      "d": 428.57100000000355,
      "v": 100
    },
    {
      "midi": 69,
      "hit": false,
      "t": 51428.52000000012,
      "d": 857.1419999999998,
      "v": 100
    },
    {
      "midi": 57,
      "hit": false,
      "t": 51857.09100000003,
      "d": 428.57100000000355,
      "v": 100
    },
    {
      "midi": 61,
      "hit": false,
      "t": 52285.66200000003,
      "d": 428.57100000000355,
      "v": 100
    },
    {
      "midi": 69,
      "hit": false,
      "t": 52285.66200000012,
      "d": 857.1419999999998,
      "v": 100
    },
    {
      "midi": 57,
      "hit": false,
      "t": 52714.23300000004,
      "d": 428.57100000000355,
      "v": 100
    },
    {
      "midi": 52,
      "hit": false,
      "t": 53142.804,
      "d": 1714.2839999999997,
      "v": 100
    },
    {
      "midi": 61,
      "hit": false,
      "t": 53142.80400000004,
      "d": 428.57100000000355,
      "v": 100
    },
    {
      "midi": 69,
      "hit": false,
      "t": 53142.80400000012,
      "d": 857.1419999999998,
      "v": 100
    },
    {
      "midi": 57,
      "hit": false,
      "t": 53571.375000000044,
      "d": 428.57100000000355,
      "v": 100
    },
    {
      "midi": 59,
      "hit": false,
      "t": 53999.94600000005,
      "d": 214.28549999999814,
      "v": 100
    },
    {
      "midi": 69,
      "hit": false,
      "t": 53999.94600000012,
      "d": 857.1419999999998,
      "v": 100
    },
    {
      "midi": 61,
      "hit": false,
      "t": 54214.231500000045,
      "d": 214.28549999999814,
      "v": 100
    },
    {
      "midi": 57,
      "hit": false,
      "t": 54428.51700000004,
      "d": 428.57100000000355,
      "v": 100
    },
    {
      "midi": 47,
      "hit": false,
      "t": 54857.087999999996,
      "d": 1714.2839999999997,
      "v": 100
    },
    {
      "midi": 66,
      "hit": false,
      "t": 54857.08800000005,
      "d": 857.1419999999998,
      "v": 100
    },
    {
      "midi": 71,
      "hit": false,
      "t": 54857.08800000012,
      "d": 428.57100000000355,
      "v": 100
    },
    {
      "midi": 63,
      "hit": false,
      "t": 55285.65900000012,
      "d": 428.57100000000355,
      "v": 100
    },
    {
      "midi": 66,
      "hit": false,
      "t": 55714.23000000005,
      "d": 857.1419999999998,
      "v": 100
    },
    {
      "midi": 71,
      "hit": false,
      "t": 55714.23000000013,
      "d": 428.57100000000355,
      "v": 100
    },
    {
      "midi": 63,
      "hit": false,
      "t": 56142.80100000013,
      "d": 428.57100000000355,
      "v": 100
    },
    {
      "midi": 45,
      "hit": false,
      "t": 56571.371999999996,
      "d": 857.1419999999998,
      "v": 100
    },
    {
      "midi": 64,
      "hit": false,
      "t": 56571.37200000005,
      "d": 857.1419999999998,
      "v": 100
    },
    {
      "midi": 69,
      "hit": false,
      "t": 56571.372000000134,
      "d": 428.57100000000355,
      "v": 100
    },
    {
      "midi": 63,
      "hit": false,
      "t": 56999.94300000014,
      "d": 428.57100000000355,
      "v": 100
    },
    {
      "midi": 47,
      "hit": false,
      "t": 57428.513999999996,
      "d": 857.1419999999998,
      "v": 100
    },
    {
      "midi": 63,
      "hit": false,
      "t": 57428.51400000014,
      "d": 857.1419999999998,
      "v": 100
    },
    {
      "midi": 66,
      "hit": false,
      "t": 57428.51400000014,
      "d": 857.1419999999998,
      "v": 100
    },
    {
      "midi": 71,
      "hit": false,
      "t": 57428.51400000014,
      "d": 857.1419999999998,
      "v": 100
    },
    {
      "midi": 52,
      "hit": false,
      "t": 58285.655999999995,
      "d": 2571.4259999999995,
      "v": 100
    },
    {
      "midi": 59,
      "hit": false,
      "t": 58285.656000000046,
      "d": 857.1419999999998,
      "v": 100
    },
    {
      "midi": 64,
      "hit": false,
      "t": 58285.656000000046,
      "d": 857.1419999999998,
      "v": 100
    },
    {
      "midi": 68,
      "hit": false,
      "t": 58285.65600000014,
      "d": 1714.2839999999997,
      "v": 100
    },
    {
      "midi": 59,
      "hit": false,
      "t": 59142.798000000046,
      "d": 857.1419999999998,
      "v": 100
    },
    {
      "midi": 64,
      "hit": false,
      "t": 59142.798000000046,
      "d": 857.1419999999998,
      "v": 100
    },
    {
      "midi": 59,
      "hit": false,
      "t": 59999.940000000046,
      "d": 1714.2839999999997,
      "v": 100
    },
    {
      "midi": 64,
      "hit": false,
      "t": 59999.940000000046,
      "d": 1714.2839999999997,
      "v": 100
    },
    {
      "midi": 71,
      "hit": false,
      "t": 59999.94000000014,
      "d": 428.57100000000355,
      "v": 100
    },
    {
      "midi": 69,
      "hit": false,
      "t": 60428.511000000144,
      "d": 428.57100000000355,
      "v": 100
    },
    {
      "midi": 52,
      "hit": false,
      "t": 60857.081999999995,
      "d": 857.1419999999998,
      "v": 100
    },
    {
      "midi": 68,
      "hit": false,
      "t": 60857.08200000015,
      "d": 428.57100000000355,
      "v": 100
    },
    {
      "midi": 69,
      "hit": false,
      "t": 61285.65300000015,
      "d": 428.57100000000355,
      "v": 100
    },
    {
      "midi": 47,
      "hit": false,
      "t": 61714.223999999995,
      "d": 3428.5679999999993,
      "v": 100
    },
    {
      "midi": 63,
      "hit": false,
      "t": 61714.224000000046,
      "d": 1714.2839999999997,
      "v": 100
    },
    {
      "midi": 66,
      "hit": false,
      "t": 61714.224000000046,
      "d": 1714.2839999999997,
      "v": 100
    },
    {
      "midi": 71,
      "hit": false,
      "t": 61714.224000000155,
      "d": 1285.7130000000034,
      "v": 100
    },
    {
      "midi": 66,
      "hit": false,
      "t": 62999.93700000016,
      "d": 214.28549999999814,
      "v": 100
    },
    {
      "midi": 68,
      "hit": false,
      "t": 63214.222500000156,
      "d": 214.28549999999814,
      "v": 100
    },
    {
      "midi": 59,
      "hit": false,
      "t": 63428.508000000045,
      "d": 1714.2839999999997,
      "v": 100
    },
    {
      "midi": 63,
      "hit": false,
      "t": 63428.508000000045,
      "d": 1714.2839999999997,
      "v": 100
    },
    {
      "midi": 69,
      "hit": false,
      "t": 63428.508000000154,
      "d": 428.57100000000355,
      "v": 100
    },
    {
      "midi": 68,
      "hit": false,
      "t": 63857.07900000016,
      "d": 428.57100000000355,
      "v": 100
    },
    {
      "midi": 66,
      "hit": false,
      "t": 64285.65000000016,
      "d": 428.57100000000355,
      "v": 100
    },
    {
      "midi": 64,
      "hit": false,
      "t": 64714.221000000165,
      "d": 428.57100000000355,
      "v": 100
    },
    {
      "midi": 42,
      "hit": false,
      "t": 65142.791999999994,
      "d": 1714.284000000007,
      "v": 100
    },
    {
      "midi": 57,
      "hit": false,
      "t": 65142.79200000017,
      "d": 2571.4259999999995,
      "v": 100
    },
    {
      "midi": 61,
      "hit": false,
      "t": 65142.79200000017,
      "d": 2571.4259999999995,
      "v": 100
    },
    {
      "midi": 66,
      "hit": false,
      "t": 65142.79200000017,
      "d": 2571.4259999999995,
      "v": 100
    },
    {
      "midi": 42,
      "hit": false,
      "t": 66857.076,
      "d": 1714.2839999999997,
      "v": 100
    },
    {
      "midi": 61,
      "hit": false,
      "t": 67714.21800000005,
      "d": 214.28549999999814,
      "v": 100
    },
    {
      "midi": 66,
      "hit": false,
      "t": 67714.21800000017,
      "d": 857.1420000000071,
      "v": 100
    },
    {
      "midi": 64,
      "hit": false,
      "t": 67928.50350000005,
      "d": 214.28549999999814,
      "v": 100
    },
    {
      "midi": 59,
      "hit": false,
      "t": 68142.78900000005,
      "d": 214.28549999999814,
      "v": 100
    },
    {
      "midi": 56,
      "hit": false,
      "t": 68357.07450000005,
      "d": 214.28549999999814,
      "v": 100
    },
    {
      "midi": 49,
      "hit": false,
      "t": 68571.36,
      "d": 1285.7130000000034,
      "v": 100
    },
    {
      "midi": 61,
      "hit": false,
      "t": 68571.36000000018,
      "d": 857.1420000000071,
      "v": 100
    },
    {
      "midi": 64,
      "hit": false,
      "t": 68571.36000000018,
      "d": 857.1420000000071,
      "v": 100
    },
    {
      "midi": 68,
      "hit": false,
      "t": 68571.36000000018,
      "d": 857.1420000000071,
      "v": 100
    },
    {
      "midi": 61,
      "hit": false,
      "t": 69428.50200000018,
      "d": 857.1420000000071,
      "v": 100
    },
    {
      "midi": 64,
      "hit": false,
      "t": 69428.50200000018,
      "d": 857.1420000000071,
      "v": 100
    },
    {
      "midi": 68,
      "hit": false,
      "t": 69428.50200000018,
      "d": 857.1420000000071,
      "v": 100
    },
    {
      "midi": 49,
      "hit": false,
      "t": 69857.073,
      "d": 428.5709999999963,
      "v": 100
    },
    {
      "midi": 47,
      "hit": false,
      "t": 70285.644,
      "d": 1285.7130000000034,
      "v": 100
    },
    {
      "midi": 63,
      "hit": false,
      "t": 70285.64400000019,
      "d": 857.1420000000071,
      "v": 100
    },
    {
      "midi": 66,
      "hit": false,
      "t": 70285.64400000019,
      "d": 857.1420000000071,
      "v": 100
    },
    {
      "midi": 71,
      "hit": false,
      "t": 70285.64400000019,
      "d": 857.1420000000071,
      "v": 100
    },
    {
      "midi": 63,
      "hit": false,
      "t": 71142.7860000002,
      "d": 857.1420000000071,
      "v": 100
    },
    {
      "midi": 66,
      "hit": false,
      "t": 71142.7860000002,
      "d": 857.1420000000071,
      "v": 100
    },
    {
      "midi": 71,
      "hit": false,
      "t": 71142.7860000002,
      "d": 857.1420000000071,
      "v": 100
    },
    {
      "midi": 47,
      "hit": false,
      "t": 71571.357,
      "d": 428.5709999999963,
      "v": 100
    },
    {
      "midi": 40,
      "hit": false,
      "t": 71999.928,
      "d": 1714.2839999999997,
      "v": 100
    },
    {
      "midi": 59,
      "hit": false,
      "t": 71999.92800000004,
      "d": 857.1420000000071,
      "v": 100
    },
    {
      "midi": 64,
      "hit": false,
      "t": 71999.92800000004,
      "d": 857.1420000000071,
      "v": 100
    },
    {
      "midi": 68,
      "hit": false,
      "t": 71999.9280000002,
      "d": 1714.2839999999997,
      "v": 100
    },
    {
      "midi": 59,
      "hit": false,
      "t": 72857.07000000005,
      "d": 857.1420000000071,
      "v": 100
    },
    {
      "midi": 64,
      "hit": false,
      "t": 72857.07000000005,
      "d": 857.1420000000071,
      "v": 100
    },
    {
      "midi": 40,
      "hit": false,
      "t": 73714.212,
      "d": 1285.7130000000034,
      "v": 100
    },
    {
      "midi": 59,
      "hit": false,
      "t": 73714.21200000006,
      "d": 1714.2839999999997,
      "v": 100
    },
    {
      "midi": 64,
      "hit": false,
      "t": 73714.21200000006,
      "d": 1714.2839999999997,
      "v": 100
    },
    {
      "midi": 71,
      "hit": false,
      "t": 73714.2120000002,
      "d": 428.5709999999963,
      "v": 100
    },
    {
      "midi": 69,
      "hit": false,
      "t": 74142.7830000002,
      "d": 428.5709999999963,
      "v": 100
    },
    {
      "midi": 68,
      "hit": false,
      "t": 74571.3540000002,
      "d": 428.5709999999963,
      "v": 100
    },
    {
      "midi": 47,
      "hit": false,
      "t": 74999.925,
      "d": 214.28549999999814,
      "v": 100
    },
    {
      "midi": 69,
      "hit": false,
      "t": 74999.92500000019,
      "d": 428.5709999999963,
      "v": 100
    },
    {
      "midi": 49,
      "hit": false,
      "t": 75214.2105,
      "d": 214.28549999999814,
      "v": 100
    },
    {
      "midi": 47,
      "hit": false,
      "t": 75428.496,
      "d": 1714.2839999999997,
      "v": 100
    },
    {
      "midi": 63,
      "hit": false,
      "t": 75428.49600000006,
      "d": 1714.2839999999997,
      "v": 100
    },
    {
      "midi": 66,
      "hit": false,
      "t": 75428.49600000006,
      "d": 1714.2839999999997,
      "v": 100
    },
    {
      "midi": 71,
      "hit": false,
      "t": 75428.49600000019,
      "d": 1285.7130000000034,
      "v": 100
    },
    {
      "midi": 66,
      "hit": false,
      "t": 76714.20900000019,
      "d": 214.28549999999814,
      "v": 100
    },
    {
      "midi": 68,
      "hit": false,
      "t": 76928.49450000019,
      "d": 214.28549999999814,
      "v": 100
    },
    {
      "midi": 47,
      "hit": false,
      "t": 77142.78,
      "d": 1714.2839999999997,
      "v": 100
    },
    {
      "midi": 59,
      "hit": false,
      "t": 77142.78000000006,
      "d": 1714.2839999999997,
      "v": 100
    },
    {
      "midi": 63,
      "hit": false,
      "t": 77142.78000000006,
      "d": 1714.2839999999997,
      "v": 100
    },
    {
      "midi": 69,
      "hit": false,
      "t": 77142.78000000019,
      "d": 428.5709999999963,
      "v": 100
    },
    {
      "midi": 68,
      "hit": false,
      "t": 77571.35100000018,
      "d": 428.5709999999963,
      "v": 100
    },
    {
      "midi": 66,
      "hit": false,
      "t": 77999.92200000018,
      "d": 857.1420000000071,
      "v": 100
    },
    {
      "midi": 45,
      "hit": false,
      "t": 78857.064,
      "d": 1714.2839999999997,
      "v": 100
    },
    {
      "midi": 57,
      "hit": false,
      "t": 78857.06400000019,
      "d": 2571.4260000000068,
      "v": 100
    },
    {
      "midi": 61,
      "hit": false,
      "t": 78857.06400000019,
      "d": 2571.4260000000068,
      "v": 100
    },
    {
      "midi": 64,
      "hit": false,
      "t": 78857.06400000019,
      "d": 2571.4260000000068,
      "v": 100
    },
    {
      "midi": 45,
      "hit": false,
      "t": 80571.348,
      "d": 1285.7130000000034,
      "v": 100
    },
    {
      "midi": 57,
      "hit": false,
      "t": 81428.4900000002,
      "d": 214.28549999999814,
      "v": 100
    },
    {
      "midi": 59,
      "hit": false,
      "t": 81642.77550000019,
      "d": 214.28549999999814,
      "v": 100
    },
    {
      "midi": 45,
      "hit": false,
      "t": 81857.061,
      "d": 214.28549999999814,
      "v": 100
    },
    {
      "midi": 61,
      "hit": false,
      "t": 81857.06100000019,
      "d": 214.28549999999814,
      "v": 100
    },
    {
      "midi": 47,
      "hit": false,
      "t": 82071.3465,
      "d": 214.28549999999814,
      "v": 100
    },
    {
      "midi": 64,
      "hit": false,
      "t": 82071.34650000019,
      "d": 214.28549999999814,
      "v": 100
    },
    {
      "midi": 49,
      "hit": false,
      "t": 82285.632,
      "d": 1285.7130000000034,
      "v": 100
    },
    {
      "midi": 61,
      "hit": false,
      "t": 82285.63200000019,
      "d": 857.1420000000071,
      "v": 100
    },
    {
      "midi": 64,
      "hit": false,
      "t": 82285.63200000019,
      "d": 857.1420000000071,
      "v": 100
    },
    {
      "midi": 68,
      "hit": false,
      "t": 82285.63200000019,
      "d": 857.1420000000071,
      "v": 100
    },
    {
      "midi": 61,
      "hit": false,
      "t": 83142.7740000002,
      "d": 857.1420000000071,
      "v": 100
    },
    {
      "midi": 64,
      "hit": false,
      "t": 83142.7740000002,
      "d": 857.1420000000071,
      "v": 100
    },
    {
      "midi": 68,
      "hit": false,
      "t": 83142.7740000002,
      "d": 857.1420000000071,
      "v": 100
    },
    {
      "midi": 49,
      "hit": false,
      "t": 83571.345,
      "d": 428.5709999999963,
      "v": 100
    },
    {
      "midi": 47,
      "hit": false,
      "t": 83999.916,
      "d": 857.1420000000071,
      "v": 100
    },
    {
      "midi": 63,
      "hit": false,
      "t": 83999.9160000002,
      "d": 857.1420000000071,
      "v": 100
    },
    {
      "midi": 66,
      "hit": false,
      "t": 83999.9160000002,
      "d": 857.1420000000071,
      "v": 100
    },
    {
      "midi": 71,
      "hit": false,
      "t": 83999.9160000002,
      "d": 857.1420000000071,
      "v": 100
    },
    {
      "midi": 47,
      "hit": false,
      "t": 84857.058,
      "d": 428.5709999999963,
      "v": 100
    },
    {
      "midi": 63,
      "hit": false,
      "t": 84857.05800000021,
      "d": 857.1420000000071,
      "v": 100
    },
    {
      "midi": 66,
      "hit": false,
      "t": 84857.05800000021,
      "d": 857.1420000000071,
      "v": 100
    },
    {
      "midi": 71,
      "hit": false,
      "t": 84857.05800000021,
      "d": 857.1420000000071,
      "v": 100
    },
    {
      "midi": 47,
      "hit": false,
      "t": 85285.629,
      "d": 428.5709999999963,
      "v": 100
    },
    {
      "midi": 40,
      "hit": false,
      "t": 85714.2,
      "d": 1714.2839999999997,
      "v": 100
    },
    {
      "midi": 59,
      "hit": false,
      "t": 85714.20000000006,
      "d": 857.1420000000071,
      "v": 100
    },
    {
      "midi": 64,
      "hit": false,
      "t": 85714.20000000006,
      "d": 857.1420000000071,
      "v": 100
    },
    {
      "midi": 68,
      "hit": false,
      "t": 85714.20000000022,
      "d": 1714.2839999999997,
      "v": 100
    },
    {
      "midi": 59,
      "hit": false,
      "t": 86571.34200000006,
      "d": 857.1420000000071,
      "v": 100
    },
    {
      "midi": 64,
      "hit": false,
      "t": 86571.34200000006,
      "d": 857.1420000000071,
      "v": 100
    },
    {
      "midi": 40,
      "hit": false,
      "t": 87428.484,
      "d": 1714.2839999999997,
      "v": 100
    },
    {
      "midi": 59,
      "hit": false,
      "t": 87428.48400000007,
      "d": 1714.2839999999997,
      "v": 100
    },
    {
      "midi": 64,
      "hit": false,
      "t": 87428.48400000007,
      "d": 1714.2839999999997,
      "v": 100
    },
    {
      "midi": 71,
      "hit": false,
      "t": 87428.48400000022,
      "d": 428.5709999999963,
      "v": 100
    },
    {
      "midi": 69,
      "hit": false,
      "t": 87857.05500000021,
      "d": 428.5709999999963,
      "v": 100
    },
    {
      "midi": 68,
      "hit": false,
      "t": 88285.62600000021,
      "d": 428.5709999999963,
      "v": 100
    },
    {
      "midi": 69,
      "hit": false,
      "t": 88714.1970000002,
      "d": 214.28549999999814,
      "v": 100
    },
    {
      "midi": 71,
      "hit": false,
      "t": 88928.4825000002,
      "d": 214.28549999999814,
      "v": 100
    },
    {
      "midi": 42,
      "hit": false,
      "t": 89142.768,
      "d": 1714.2839999999997,
      "v": 100
    },
    {
      "midi": 59,
      "hit": false,
      "t": 89142.76800000007,
      "d": 1714.2839999999997,
      "v": 100
    },
    {
      "midi": 63,
      "hit": false,
      "t": 89142.76800000007,
      "d": 1714.2839999999997,
      "v": 100
    },
    {
      "midi": 71,
      "hit": false,
      "t": 89142.7680000002,
      "d": 1285.7130000000034,
      "v": 100
    },
    {
      "midi": 66,
      "hit": false,
      "t": 90428.4810000002,
      "d": 214.28549999999814,
      "v": 100
    },
    {
      "midi": 68,
      "hit": false,
      "t": 90642.7665000002,
      "d": 214.28549999999814,
      "v": 100
    },
    {
      "midi": 42,
      "hit": false,
      "t": 90857.052,
      "d": 1285.7130000000034,
      "v": 100
    },
    {
      "midi": 59,
      "hit": false,
      "t": 90857.05200000007,
      "d": 1714.2839999999997,
      "v": 100
    },
    {
      "midi": 63,
      "hit": false,
      "t": 90857.05200000007,
      "d": 1714.2839999999997,
      "v": 100
    },
    {
      "midi": 69,
      "hit": false,
      "t": 90857.0520000002,
      "d": 428.5709999999963,
      "v": 100
    },
    {
      "midi": 68,
      "hit": false,
      "t": 91285.6230000002,
      "d": 428.5709999999963,
      "v": 100
    },
    {
      "midi": 66,
      "hit": false,
      "t": 91714.19400000019,
      "d": 428.5709999999963,
      "v": 100
    },
    {
      "midi": 42,
      "hit": false,
      "t": 92142.765,
      "d": 214.28549999999814,
      "v": 100
    },
    {
      "midi": 64,
      "hit": false,
      "t": 92142.76500000019,
      "d": 428.5709999999963,
      "v": 100
    },
    {
      "midi": 44,
      "hit": false,
      "t": 92357.0505,
      "d": 214.28549999999814,
      "v": 100
    },
    {
      "midi": 45,
      "hit": false,
      "t": 92571.336,
      "d": 1714.2839999999997,
      "v": 100
    },
    {
      "midi": 61,
      "hit": false,
      "t": 92571.33600000007,
      "d": 3428.5679999999993,
      "v": 100
    },
    {
      "midi": 64,
      "hit": false,
      "t": 92571.33600000007,
      "d": 3428.5679999999993,
      "v": 100
    },
    {
      "midi": 69,
      "hit": false,
      "t": 92571.33600000018,
      "d": 1714.2839999999997,
      "v": 100
    },
    {
      "midi": 45,
      "hit": false,
      "t": 94285.62,
      "d": 1285.7130000000034,
      "v": 100
    },
    {
      "midi": 68,
      "hit": false,
      "t": 94285.62000000018,
      "d": 1714.2839999999997,
      "v": 100
    },
    {
      "midi": 47,
      "hit": false,
      "t": 95571.333,
      "d": 214.28549999999814,
      "v": 100
    },
    {
      "midi": 49,
      "hit": false,
      "t": 95785.6185,
      "d": 214.28549999999814,
      "v": 100
    },
    {
      "midi": 47,
      "hit": false,
      "t": 95999.904,
      "d": 1714.2839999999997,
      "v": 100
    },
    {
      "midi": 59,
      "hit": false,
      "t": 95999.90400000018,
      "d": 1714.2839999999997,
      "v": 100
    },
    {
      "midi": 63,
      "hit": false,
      "t": 95999.90400000018,
      "d": 1714.2839999999997,
      "v": 100
    },
    {
      "midi": 66,
      "hit": false,
      "t": 95999.90400000018,
      "d": 1714.2839999999997,
      "v": 100
    },
    {
      "midi": 45,
      "hit": false,
      "t": 97714.188,
      "d": 857.1420000000071,
      "v": 100
    },
    {
      "midi": 57,
      "hit": false,
      "t": 97714.18800000018,
      "d": 857.1420000000071,
      "v": 100
    },
    {
      "midi": 61,
      "hit": false,
      "t": 97714.18800000018,
      "d": 857.1420000000071,
      "v": 100
    },
    {
      "midi": 64,
      "hit": false,
      "t": 97714.18800000018,
      "d": 857.1420000000071,
      "v": 100
    },
    {
      "midi": 47,
      "hit": false,
      "t": 98571.33,
      "d": 857.1420000000071,
      "v": 100
    },
    {
      "midi": 54,
      "hit": false,
      "t": 98571.33000000019,
      "d": 857.1420000000071,
      "v": 100
    },
    {
      "midi": 59,
      "hit": false,
      "t": 98571.33000000019,
      "d": 857.1420000000071,
      "v": 100
    },
    {
      "midi": 63,
      "hit": false,
      "t": 98571.33000000019,
      "d": 857.1420000000071,
      "v": 100
    },
    {
      "midi": 49,
      "hit": false,
      "t": 99428.47200000001,
      "d": 3428.5679999999993,
      "v": 100
    },
    {
      "midi": 56,
      "hit": false,
      "t": 99428.47200000007,
      "d": 3428.5679999999993,
      "v": 100
    },
    {
      "midi": 61,
      "hit": false,
      "t": 99428.47200000007,
      "d": 3428.5679999999993,
      "v": 100
    },
    {
      "midi": 64,
      "hit": false,
      "t": 99428.4720000002,
      "d": 1285.7130000000034,
      "v": 100
    },
    {
      "midi": 66,
      "hit": false,
      "t": 100714.1850000002,
      "d": 214.28549999999814,
      "v": 100
    },
    {
      "midi": 68,
      "hit": false,
      "t": 100928.4705000002,
      "d": 214.28549999999814,
      "v": 100
    },
    {
      "midi": 69,
      "hit": false,
      "t": 101142.7560000002,
      "d": 428.5709999999963,
      "v": 100
    },
    {
      "midi": 68,
      "hit": false,
      "t": 101571.3270000002,
      "d": 428.5709999999963,
      "v": 100
    },
    {
      "midi": 66,
      "hit": false,
      "t": 101999.89800000019,
      "d": 428.5709999999963,
      "v": 100
    },
    {
      "midi": 64,
      "hit": false,
      "t": 102428.46900000019,
      "d": 428.5709999999963,
      "v": 100
    },
    {
      "midi": 45,
      "hit": false,
      "t": 102857.04000000001,
      "d": 2571.4260000000068,
      "v": 100
    },
    {
      "midi": 61,
      "hit": false,
      "t": 102857.04000000007,
      "d": 2571.4260000000068,
      "v": 100
    },
    {
      "midi": 64,
      "hit": false,
      "t": 102857.04000000007,
      "d": 2571.4260000000068,
      "v": 100
    },
    {
      "midi": 59,
      "hit": false,
      "t": 102857.04000000018,
      "d": 428.5709999999963,
      "v": 100
    },
    {
      "midi": 57,
      "hit": false,
      "t": 103285.61100000018,
      "d": 428.5709999999963,
      "v": 100
    },
    {
      "midi": 59,
      "hit": false,
      "t": 103714.18200000018,
      "d": 428.5709999999963,
      "v": 100
    },
    {
      "midi": 57,
      "hit": false,
      "t": 104142.75300000017,
      "d": 428.5709999999963,
      "v": 100
    },
    {
      "midi": 59,
      "hit": false,
      "t": 104571.32400000017,
      "d": 428.5709999999963,
      "v": 100
    },
    {
      "midi": 57,
      "hit": false,
      "t": 104999.89500000016,
      "d": 428.5709999999963,
      "v": 100
    },
    {
      "midi": 47,
      "hit": false,
      "t": 105428.46600000001,
      "d": 857.1420000000071,
      "v": 100
    },
    {
      "midi": 64,
      "hit": false,
      "t": 105428.46600000007,
      "d": 857.1420000000071,
      "v": 100
    },
    {
      "midi": 59,
      "hit": false,
      "t": 105428.46600000016,
      "d": 428.5709999999963,
      "v": 100
    },
    {
      "midi": 57,
      "hit": false,
      "t": 105857.03700000016,
      "d": 428.5709999999963,
      "v": 100
    },
    {
      "midi": 50,
      "hit": false,
      "t": 106285.60800000002,
      "d": 428.5709999999963,
      "v": 100
    },
    {
      "midi": 50,
      "hit": false,
      "t": 106714.17900000002,
      "d": 428.5709999999963,
      "v": 100
    },
    {
      "midi": 50,
      "hit": false,
      "t": 107142.75000000001,
      "d": 428.5709999999963,
      "v": 100
    },
    {
      "midi": 57,
      "hit": false,
      "t": 107142.75000000016,
      "d": 857.1420000000071,
      "v": 100
    },
    {
      "midi": 62,
      "hit": false,
      "t": 107142.75000000016,
      "d": 857.1420000000071,
      "v": 100
    },
    {
      "midi": 66,
      "hit": false,
      "t": 107142.75000000016,
      "d": 857.1420000000071,
      "v": 100
    },
    {
      "midi": 50,
      "hit": false,
      "t": 107571.32100000001,
      "d": 428.5709999999963,
      "v": 100
    },
    {
      "midi": 50,
      "hit": false,
      "t": 107999.892,
      "d": 428.5709999999963,
      "v": 100
    },
    {
      "midi": 50,
      "hit": false,
      "t": 108428.463,
      "d": 428.5709999999963,
      "v": 100
    },
    {
      "midi": 47,
      "hit": false,
      "t": 108857.034,
      "d": 428.5709999999963,
      "v": 100
    },
    {
      "midi": 57,
      "hit": false,
      "t": 108857.03400000017,
      "d": 857.1420000000071,
      "v": 100
    },
    {
      "midi": 62,
      "hit": false,
      "t": 108857.03400000017,
      "d": 857.1420000000071,
      "v": 100
    },
    {
      "midi": 66,
      "hit": false,
      "t": 108857.03400000017,
      "d": 857.1420000000071,
      "v": 100
    },
    {
      "midi": 45,
      "hit": false,
      "t": 109285.605,
      "d": 428.5709999999963,
      "v": 100
    },
    {
      "midi": 43,
      "hit": false,
      "t": 109714.17599999999,
      "d": 428.5709999999963,
      "v": 100
    },
    {
      "midi": 43,
      "hit": false,
      "t": 110142.74699999999,
      "d": 428.5709999999963,
      "v": 100
    },
    {
      "midi": 43,
      "hit": false,
      "t": 110571.31799999998,
      "d": 428.5709999999963,
      "v": 100
    },
    {
      "midi": 59,
      "hit": false,
      "t": 110571.31800000019,
      "d": 857.1420000000071,
      "v": 100
    },
    {
      "midi": 62,
      "hit": false,
      "t": 110571.31800000019,
      "d": 857.1420000000071,
      "v": 100
    },
    {
      "midi": 67,
      "hit": false,
      "t": 110571.31800000019,
      "d": 857.1420000000071,
      "v": 100
    },
    {
      "midi": 43,
      "hit": false,
      "t": 110999.88899999998,
      "d": 428.5709999999963,
      "v": 100
    },
    {
      "midi": 45,
      "hit": false,
      "t": 111428.45999999998,
      "d": 428.5709999999963,
      "v": 100
    },
    {
      "midi": 62,
      "hit": false,
      "t": 111642.7455000002,
      "d": 214.28549999999814,
      "v": 100
    },
    {
      "midi": 64,
      "hit": false,
      "t": 111642.7455000002,
      "d": 214.28549999999814,
      "v": 100
    },
    {
      "midi": 69,
      "hit": false,
      "t": 111642.7455000002,
      "d": 214.28549999999814,
      "v": 100
    },
    {
      "midi": 45,
      "hit": false,
      "t": 111857.03099999997,
      "d": 428.5709999999963,
      "v": 100
    },
    {
      "midi": 62,
      "hit": false,
      "t": 111857.03100000019,
      "d": 428.5709999999963,
      "v": 100
    },
    {
      "midi": 64,
      "hit": false,
      "t": 111857.03100000019,
      "d": 428.5709999999963,
      "v": 100
    },
    {
      "midi": 69,
      "hit": false,
      "t": 111857.03100000019,
      "d": 428.5709999999963,
      "v": 100
    },
    {
      "midi": 45,
      "hit": false,
      "t": 112285.60199999997,
      "d": 428.5709999999963,
      "v": 100
    },
    {
      "midi": 61,
      "hit": false,
      "t": 112285.60200000019,
      "d": 857.1420000000071,
      "v": 100
    },
    {
      "midi": 64,
      "hit": false,
      "t": 112285.60200000019,
      "d": 857.1420000000071,
      "v": 100
    },
    {
      "midi": 69,
      "hit": false,
      "t": 112285.60200000019,
      "d": 857.1420000000071,
      "v": 100
    },
    {
      "midi": 45,
      "hit": false,
      "t": 112714.17299999997,
      "d": 428.5709999999963,
      "v": 100
    },
    {
      "midi": 50,
      "hit": false,
      "t": 113142.74399999996,
      "d": 428.5709999999963,
      "v": 100
    },
    {
      "midi": 50,
      "hit": false,
      "t": 113571.31499999996,
      "d": 428.5709999999963,
      "v": 100
    },
    {
      "midi": 50,
      "hit": false,
      "t": 113999.88599999995,
      "d": 428.5709999999963,
      "v": 100
    },
    {
      "midi": 57,
      "hit": false,
      "t": 113999.8860000002,
      "d": 857.1420000000071,
      "v": 100
    },
    {
      "midi": 62,
      "hit": false,
      "t": 113999.8860000002,
      "d": 857.1420000000071,
      "v": 100
    },
    {
      "midi": 66,
      "hit": false,
      "t": 113999.8860000002,
      "d": 857.1420000000071,
      "v": 100
    },
    {
      "midi": 50,
      "hit": false,
      "t": 114428.45699999995,
      "d": 428.5709999999963,
      "v": 100
    },
    {
      "midi": 50,
      "hit": false,
      "t": 114857.02799999995,
      "d": 428.5709999999963,
      "v": 100
    },
    {
      "midi": 50,
      "hit": false,
      "t": 115285.59899999994,
      "d": 428.5709999999963,
      "v": 100
    },
    {
      "midi": 47,
      "hit": false,
      "t": 115714.16999999994,
      "d": 428.5709999999963,
      "v": 100
    },
    {
      "midi": 57,
      "hit": false,
      "t": 115714.17000000022,
      "d": 857.1420000000071,
      "v": 100
    },
    {
      "midi": 62,
      "hit": false,
      "t": 115714.17000000022,
      "d": 857.1420000000071,
      "v": 100
    },
    {
      "midi": 66,
      "hit": false,
      "t": 115714.17000000022,
      "d": 857.1420000000071,
      "v": 100
    },
    {
      "midi": 45,
      "hit": false,
      "t": 116142.74099999994,
      "d": 428.5709999999963,
      "v": 100
    },
    {
      "midi": 43,
      "hit": false,
      "t": 116571.31199999993,
      "d": 428.5709999999963,
      "v": 100
    },
    {
      "midi": 43,
      "hit": false,
      "t": 116999.88299999993,
      "d": 428.5709999999963,
      "v": 100
    },
    {
      "midi": 43,
      "hit": false,
      "t": 117428.45399999993,
      "d": 428.5709999999963,
      "v": 100
    },
    {
      "midi": 59,
      "hit": false,
      "t": 117428.45400000023,
      "d": 857.1420000000071,
      "v": 100
    },
    {
      "midi": 62,
      "hit": false,
      "t": 117428.45400000023,
      "d": 857.1420000000071,
      "v": 100
    },
    {
      "midi": 67,
      "hit": false,
      "t": 117428.45400000023,
      "d": 857.1420000000071,
      "v": 100
    },
    {
      "midi": 43,
      "hit": false,
      "t": 117857.02499999992,
      "d": 428.5709999999963,
      "v": 100
    },
    {
      "midi": 45,
      "hit": false,
      "t": 118285.59599999992,
      "d": 428.5709999999963,
      "v": 100
    },
    {
      "midi": 62,
      "hit": false,
      "t": 118499.88150000024,
      "d": 214.28549999999814,
      "v": 100
    },
    {
      "midi": 64,
      "hit": false,
      "t": 118499.88150000024,
      "d": 214.28549999999814,
      "v": 100
    },
    {
      "midi": 67,
      "hit": false,
      "t": 118499.88150000024,
      "d": 214.28549999999814,
      "v": 100
    },
    {
      "midi": 69,
      "hit": false,
      "t": 118499.88150000024,
      "d": 214.28549999999814,
      "v": 100
    },
    {
      "midi": 45,
      "hit": false,
      "t": 118714.16699999991,
      "d": 428.5709999999963,
      "v": 100
    },
    {
      "midi": 62,
      "hit": false,
      "t": 118714.16700000023,
      "d": 428.5709999999963,
      "v": 100
    },
    {
      "midi": 64,
      "hit": false,
      "t": 118714.16700000023,
      "d": 428.5709999999963,
      "v": 100
    },
    {
      "midi": 67,
      "hit": false,
      "t": 118714.16700000023,
      "d": 428.5709999999963,
      "v": 100
    },
    {
      "midi": 69,
      "hit": false,
      "t": 118714.16700000023,
      "d": 428.5709999999963,
      "v": 100
    },
    {
      "midi": 45,
      "hit": false,
      "t": 119142.73799999991,
      "d": 428.5709999999963,
      "v": 100
    },
    {
      "midi": 60,
      "hit": false,
      "t": 119142.73800000023,
      "d": 857.1420000000071,
      "v": 100
    },
    {
      "midi": 64,
      "hit": false,
      "t": 119142.73800000023,
      "d": 857.1420000000071,
      "v": 100
    },
    {
      "midi": 69,
      "hit": false,
      "t": 119142.73800000023,
      "d": 857.1420000000071,
      "v": 100
    },
    {
      "midi": 45,
      "hit": false,
      "t": 119571.3089999999,
      "d": 428.5709999999963,
      "v": 100
    },
    {
      "midi": 47,
      "hit": false,
      "t": 119999.8799999999,
      "d": 428.5709999999963,
      "v": 100
    },
    {
      "midi": 62,
      "hit": false,
      "t": 119999.88000000024,
      "d": 1714.2839999999997,
      "v": 100
    },
    {
      "midi": 66,
      "hit": false,
      "t": 119999.88000000024,
      "d": 1714.2839999999997,
      "v": 100
    },
    {
      "midi": 71,
      "hit": false,
      "t": 119999.88000000024,
      "d": 1714.2839999999997,
      "v": 100
    },
    {
      "midi": 47,
      "hit": false,
      "t": 120428.4509999999,
      "d": 428.5709999999963,
      "v": 100
    },
    {
      "midi": 47,
      "hit": false,
      "t": 120857.0219999999,
      "d": 428.5709999999963,
      "v": 100
    },
    {
      "midi": 47,
      "hit": false,
      "t": 121285.59299999989,
      "d": 428.5709999999963,
      "v": 100
    },
    {
      "midi": 47,
      "hit": false,
      "t": 121714.16399999989,
      "d": 428.5709999999963,
      "v": 100
    },
    {
      "midi": 61,
      "hit": false,
      "t": 121714.16400000024,
      "d": 1714.2839999999997,
      "v": 100
    },
    {
      "midi": 64,
      "hit": false,
      "t": 121714.16400000024,
      "d": 1714.2839999999997,
      "v": 100
    },
    {
      "midi": 69,
      "hit": false,
      "t": 121714.16400000024,
      "d": 1714.2839999999997,
      "v": 100
    },
    {
      "midi": 47,
      "hit": false,
      "t": 122142.73499999988,
      "d": 428.5709999999963,
      "v": 100
    },
    {
      "midi": 47,
      "hit": false,
      "t": 122571.30599999988,
      "d": 428.5709999999963,
      "v": 100
    },
    {
      "midi": 47,
      "hit": false,
      "t": 122999.87699999988,
      "d": 428.5709999999963,
      "v": 100
    },
    {
      "midi": 43,
      "hit": false,
      "t": 123428.44799999987,
      "d": 428.5709999999963,
      "v": 100
    },
    {
      "midi": 59,
      "hit": false,
      "t": 123428.44800000024,
      "d": 3428.5679999999993,
      "v": 100
    },
    {
      "midi": 62,
      "hit": false,
      "t": 123428.44800000024,
      "d": 3428.5679999999993,
      "v": 100
    },
    {
      "midi": 67,
      "hit": false,
      "t": 123428.44800000024,
      "d": 3428.5679999999993,
      "v": 100
    },
    {
      "midi": 43,
      "hit": false,
      "t": 123857.01899999987,
      "d": 428.5709999999963,
      "v": 100
    },
    {
      "midi": 43,
      "hit": false,
      "t": 124285.58999999987,
      "d": 428.5709999999963,
      "v": 100
    },
    {
      "midi": 43,
      "hit": false,
      "t": 124714.16099999986,
      "d": 428.5709999999963,
      "v": 100
    },
    {
      "midi": 43,
      "hit": false,
      "t": 125142.73199999986,
      "d": 428.5709999999963,
      "v": 100
    },
    {
      "midi": 43,
      "hit": false,
      "t": 125571.30299999985,
      "d": 428.5709999999963,
      "v": 100
    },
    {
      "midi": 43,
      "hit": false,
      "t": 125999.87399999985,
      "d": 428.5709999999963,
      "v": 100
    },
    {
      "midi": 43,
      "hit": false,
      "t": 126428.44499999985,
      "d": 428.5709999999963,
      "v": 100
    },
    {
      "midi": 45,
      "hit": false,
      "t": 126857.01599999984,
      "d": 5999.9939999999915,
      "v": 100
    },
    {
      "midi": 61,
      "hit": false,
      "t": 126857.01600000024,
      "d": 2571.4260000000068,
      "v": 100
    },
    {
      "midi": 64,
      "hit": false,
      "t": 126857.01600000024,
      "d": 2571.4260000000068,
      "v": 100
    },
    {
      "midi": 69,
      "hit": false,
      "t": 126857.01600000024,
      "d": 2571.4260000000068,
      "v": 100
    },
    {
      "midi": 76,
      "hit": false,
      "t": 129428.44200000024,
      "d": 857.1420000000071,
      "v": 100
    },
    {
      "midi": 64,
      "hit": false,
      "t": 130285.58400000025,
      "d": 2571.425999999992,
      "v": 100
    },
    {
      "midi": 69,
      "hit": false,
      "t": 130285.58400000025,
      "d": 2571.425999999992,
      "v": 100
    },
    {
      "midi": 71,
      "hit": false,
      "t": 130285.58400000025,
      "d": 2571.425999999992,
      "v": 100
    },
    {
      "midi": 76,
      "hit": false,
      "t": 130285.58400000025,
      "d": 2571.425999999992,
      "v": 100
    },
    {
      "midi": 45,
      "hit": false,
      "t": 132857.00999999983,
      "d": 857.1419999999925,
      "v": 100
    },
    {
      "midi": 68,
      "hit": false,
      "t": 132857.01000000024,
      "d": 214.28549999999814,
      "v": 100
    },
    {
      "midi": 71,
      "hit": false,
      "t": 133071.29550000024,
      "d": 214.28549999999814,
      "v": 100
    },
    {
      "midi": 73,
      "hit": false,
      "t": 133285.58100000024,
      "d": 428.5709999999963,
      "v": 100
    },
    {
      "midi": 40,
      "hit": false,
      "t": 133714.15199999983,
      "d": 1714.2840000000142,
      "v": 100
    },
    {
      "midi": 64,
      "hit": false,
      "t": 133714.1520000001,
      "d": 1714.2840000000142,
      "v": 100
    },
    {
      "midi": 68,
      "hit": false,
      "t": 133714.1520000001,
      "d": 1714.2840000000142,
      "v": 100
    },
    {
      "midi": 68,
      "hit": false,
      "t": 133714.15200000023,
      "d": 1285.7129999999888,
      "v": 100
    },
    {
      "midi": 71,
      "hit": false,
      "t": 134999.86500000022,
      "d": 214.28549999999814,
      "v": 100
    },
    {
      "midi": 73,
      "hit": false,
      "t": 135214.15050000022,
      "d": 214.28549999999814,
      "v": 100
    },
    {
      "midi": 40,
      "hit": false,
      "t": 135428.43599999984,
      "d": 1714.2840000000142,
      "v": 100
    },
    {
      "midi": 59,
      "hit": false,
      "t": 135428.4360000001,
      "d": 1714.2840000000142,
      "v": 100
    },
    {
      "midi": 64,
      "hit": false,
      "t": 135428.4360000001,
      "d": 1714.2840000000142,
      "v": 100
    },
    {
      "midi": 68,
      "hit": false,
      "t": 135428.43600000022,
      "d": 857.1419999999925,
      "v": 100
    },
    {
      "midi": 68,
      "hit": false,
      "t": 136285.5780000002,
      "d": 428.5709999999963,
      "v": 100
    },
    {
      "midi": 66,
      "hit": false,
      "t": 136714.1490000002,
      "d": 214.28549999999814,
      "v": 100
    },
    {
      "midi": 64,
      "hit": false,
      "t": 136928.4345000002,
      "d": 214.28549999999814,
      "v": 100
    },
    {
      "midi": 47,
      "hit": false,
      "t": 137142.71999999986,
      "d": 2571.4260000000068,
      "v": 100
    },
    {
      "midi": 59,
      "hit": false,
      "t": 137142.7200000002,
      "d": 2142.8550000000105,
      "v": 100
    },
    {
      "midi": 63,
      "hit": false,
      "t": 137142.7200000002,
      "d": 2142.8550000000105,
      "v": 100
    },
    {
      "midi": 66,
      "hit": false,
      "t": 137142.7200000002,
      "d": 2142.8550000000105,
      "v": 100
    },
    {
      "midi": 56,
      "hit": false,
      "t": 139285.57500000022,
      "d": 214.28549999999814,
      "v": 100
    },
    {
      "midi": 59,
      "hit": false,
      "t": 139499.8605000002,
      "d": 214.28549999999814,
      "v": 100
    },
    {
      "midi": 61,
      "hit": false,
      "t": 139714.1460000002,
      "d": 214.28549999999814,
      "v": 100
    },
    {
      "midi": 64,
      "hit": false,
      "t": 139928.4315000002,
      "d": 214.28549999999814,
      "v": 100
    },
    {
      "midi": 45,
      "hit": false,
      "t": 140142.71699999986,
      "d": 214.28549999999814,
      "v": 100
    },
    {
      "midi": 66,
      "hit": false,
      "t": 140142.7170000002,
      "d": 214.28549999999814,
      "v": 100
    },
    {
      "midi": 44,
      "hit": false,
      "t": 140357.00249999986,
      "d": 214.28549999999814,
      "v": 100
    },
    {
      "midi": 68,
      "hit": false,
      "t": 140357.0025000002,
      "d": 214.28549999999814,
      "v": 100
    },
    {
      "midi": 42,
      "hit": false,
      "t": 140571.28799999985,
      "d": 1714.2840000000142,
      "v": 100
    },
    {
      "midi": 57,
      "hit": false,
      "t": 140571.2880000002,
      "d": 321.4282499999972,
      "v": 100
    },
    {
      "midi": 61,
      "hit": false,
      "t": 140571.2880000002,
      "d": 321.4282499999972,
      "v": 100
    },
    {
      "midi": 66,
      "hit": false,
      "t": 140571.2880000002,
      "d": 321.4282499999972,
      "v": 100
    },
    {
      "midi": 64,
      "hit": false,
      "t": 140892.7162500002,
      "d": 107.14274999999907,
      "v": 100
    },
    {
      "midi": 61,
      "hit": false,
      "t": 140999.8590000002,
      "d": 214.28549999999814,
      "v": 100
    },
    {
      "midi": 59,
      "hit": false,
      "t": 141214.1445000002,
      "d": 214.28549999999814,
      "v": 100
    },
    {
      "midi": 61,
      "hit": false,
      "t": 141428.4300000002,
      "d": 214.28549999999814,
      "v": 100
    },
    {
      "midi": 63,
      "hit": false,
      "t": 141642.7155000002,
      "d": 214.28549999999814,
      "v": 100
    },
    {
      "midi": 66,
      "hit": false,
      "t": 141857.0010000002,
      "d": 214.28549999999814,
      "v": 100
    },
    {
      "midi": 68,
      "hit": false,
      "t": 142071.2865000002,
      "d": 214.28549999999814,
      "v": 100
    },
    {
      "midi": 42,
      "hit": false,
      "t": 142285.57199999987,
      "d": 428.5709999999963,
      "v": 100
    },
    {
      "midi": 57,
      "hit": false,
      "t": 142285.5720000002,
      "d": 321.4282499999972,
      "v": 100
    },
    {
      "midi": 61,
      "hit": false,
      "t": 142285.5720000002,
      "d": 321.4282499999972,
      "v": 100
    },
    {
      "midi": 66,
      "hit": false,
      "t": 142285.5720000002,
      "d": 321.4282499999972,
      "v": 100
    },
    {
      "midi": 64,
      "hit": false,
      "t": 142607.0002500002,
      "d": 107.14274999999907,
      "v": 100
    },
    {
      "midi": 44,
      "hit": false,
      "t": 142714.14299999987,
      "d": 428.5709999999963,
      "v": 100
    },
    {
      "midi": 61,
      "hit": false,
      "t": 142714.1430000002,
      "d": 214.28549999999814,
      "v": 100
    },
    {
      "midi": 59,
      "hit": false,
      "t": 142928.42850000018,
      "d": 214.28549999999814,
      "v": 100
    },
    {
      "midi": 45,
      "hit": false,
      "t": 143142.71399999986,
      "d": 857.1419999999925,
      "v": 100
    },
    {
      "midi": 61,
      "hit": false,
      "t": 143142.71400000018,
      "d": 214.28549999999814,
      "v": 100
    },
    {
      "midi": 64,
      "hit": false,
      "t": 143356.99950000018,
      "d": 214.28549999999814,
      "v": 100
    },
    {
      "midi": 66,
      "hit": false,
      "t": 143571.28500000018,
      "d": 107.14274999999907,
      "v": 100
    },
    {
      "midi": 64,
      "hit": false,
      "t": 143678.42775000018,
      "d": 107.14274999999907,
      "v": 100
    },
    {
      "midi": 61,
      "hit": false,
      "t": 143785.57050000018,
      "d": 214.28549999999814,
      "v": 100
    },
    {
      "midi": 49,
      "hit": false,
      "t": 143999.85599999985,
      "d": 1285.7129999999888,
      "v": 100
    },
    {
      "midi": 56,
      "hit": false,
      "t": 143999.85600000017,
      "d": 857.1419999999925,
      "v": 100
    },
    {
      "midi": 61,
      "hit": false,
      "t": 143999.85600000017,
      "d": 857.1419999999925,
      "v": 100
    },
    {
      "midi": 61,
      "hit": false,
      "t": 144856.9980000001,
      "d": 857.1419999999925,
      "v": 100
    },
    {
      "midi": 64,
      "hit": false,
      "t": 144856.99800000017,
      "d": 214.28549999999814,
      "v": 100
    },
    {
      "midi": 66,
      "hit": false,
      "t": 145071.28350000017,
      "d": 214.28549999999814,
      "v": 100
    },
    {
      "midi": 49,
      "hit": false,
      "t": 145285.56899999984,
      "d": 428.5709999999963,
      "v": 100
    },
    {
      "midi": 68,
      "hit": false,
      "t": 145285.56900000016,
      "d": 214.28549999999814,
      "v": 100
    },
    {
      "midi": 64,
      "hit": false,
      "t": 145499.85450000016,
      "d": 214.28549999999814,
      "v": 100
    },
    {
      "midi": 47,
      "hit": false,
      "t": 145714.13999999984,
      "d": 857.1419999999925,
      "v": 100
    },
    {
      "midi": 59,
      "hit": false,
      "t": 145714.14000000016,
      "d": 1285.7129999999888,
      "v": 100
    },
    {
      "midi": 63,
      "hit": false,
      "t": 145714.14000000016,
      "d": 1285.7129999999888,
      "v": 100
    },
    {
      "midi": 66,
      "hit": false,
      "t": 145714.14000000016,
      "d": 1285.7129999999888,
      "v": 100
    },
    {
      "midi": 47,
      "hit": false,
      "t": 146571.28199999983,
      "d": 857.1419999999925,
      "v": 100
    },
    {
      "midi": 73,
      "hit": false,
      "t": 146999.85300000015,
      "d": 214.28549999999814,
      "v": 100
    },
    {
      "midi": 73,
      "hit": false,
      "t": 147214.13850000015,
      "d": 214.28549999999814,
      "v": 100
    },
    {
      "midi": 40,
      "hit": false,
      "t": 147428.42399999982,
      "d": 1714.2840000000142,
      "v": 100
    },
    {
      "midi": 64,
      "hit": false,
      "t": 147428.42400000012,
      "d": 857.1419999999925,
      "v": 100
    },
    {
      "midi": 68,
      "hit": false,
      "t": 147428.42400000012,
      "d": 857.1419999999925,
      "v": 100
    },
    {
      "midi": 73,
      "hit": false,
      "t": 147428.42400000014,
      "d": 214.28549999999814,
      "v": 100
    },
    {
      "midi": 71,
      "hit": false,
      "t": 147642.70950000014,
      "d": 214.28549999999814,
      "v": 100
    },
    {
      "midi": 68,
      "hit": false,
      "t": 147856.99500000014,
      "d": 214.28549999999814,
      "v": 100
    },
    {
      "midi": 66,
      "hit": false,
      "t": 148071.28050000014,
      "d": 214.28549999999814,
      "v": 100
    },
    {
      "midi": 64,
      "hit": false,
      "t": 148285.5660000001,
      "d": 857.1419999999925,
      "v": 100
    },
    {
      "midi": 68,
      "hit": false,
      "t": 148285.5660000001,
      "d": 857.1419999999925,
      "v": 100
    },
    {
      "midi": 68,
      "hit": false,
      "t": 148285.56600000014,
      "d": 214.28549999999814,
      "v": 100
    },
    {
      "midi": 73,
      "hit": false,
      "t": 148499.85150000014,
      "d": 214.28549999999814,
      "v": 100
    },
    {
      "midi": 73,
      "hit": false,
      "t": 148714.13700000013,
      "d": 214.28549999999814,
      "v": 100
    },
    {
      "midi": 73,
      "hit": false,
      "t": 148928.42250000013,
      "d": 214.28549999999814,
      "v": 100
    },
    {
      "midi": 40,
      "hit": false,
      "t": 149142.70799999984,
      "d": 1714.2840000000142,
      "v": 100
    },
    {
      "midi": 64,
      "hit": false,
      "t": 149142.7080000001,
      "d": 857.1419999999925,
      "v": 100
    },
    {
      "midi": 68,
      "hit": false,
      "t": 149142.7080000001,
      "d": 857.1419999999925,
      "v": 100
    },
    {
      "midi": 73,
      "hit": false,
      "t": 149142.70800000013,
      "d": 214.28549999999814,
      "v": 100
    },
    {
      "midi": 71,
      "hit": false,
      "t": 149356.99350000013,
      "d": 214.28549999999814,
      "v": 100
    },
    {
      "midi": 68,
      "hit": false,
      "t": 149571.27900000013,
      "d": 214.28549999999814,
      "v": 100
    },
    {
      "midi": 66,
      "hit": false,
      "t": 149785.56450000012,
      "d": 214.28549999999814,
      "v": 100
    },
    {
      "midi": 59,
      "hit": false,
      "t": 149999.8500000001,
      "d": 857.1419999999925,
      "v": 100
    },
    {
      "midi": 64,
      "hit": false,
      "t": 149999.8500000001,
      "d": 857.1419999999925,
      "v": 100
    },
    {
      "midi": 68,
      "hit": false,
      "t": 149999.85000000012,
      "d": 642.8564999999944,
      "v": 100
    },
    {
      "midi": 66,
      "hit": false,
      "t": 150642.70650000012,
      "d": 107.14274999999907,
      "v": 100
    },
    {
      "midi": 64,
      "hit": false,
      "t": 150749.84925000012,
      "d": 107.14274999999907,
      "v": 100
    },
    {
      "midi": 42,
      "hit": false,
      "t": 150856.99199999985,
      "d": 1714.2840000000142,
      "v": 100
    },
    {
      "midi": 56,
      "hit": false,
      "t": 150856.9920000001,
      "d": 3428.5679999999993,
      "v": 100
    },
    {
      "midi": 59,
      "hit": false,
      "t": 150856.9920000001,
      "d": 3428.5679999999993,
      "v": 100
    },
    {
      "midi": 63,
      "hit": false,
      "t": 150856.99200000011,
      "d": 1285.7129999999888,
      "v": 100
    },
    {
      "midi": 69,
      "hit": false,
      "t": 152142.7050000001,
      "d": 2142.8550000000105,
      "v": 100
    },
    {
      "midi": 42,
      "hit": false,
      "t": 152571.27599999987,
      "d": 428.5709999999963,
      "v": 100
    },
    {
      "midi": 42,
      "hit": false,
      "t": 152999.84699999986,
      "d": 857.1419999999925,
      "v": 100
    },
    {
      "midi": 42,
      "hit": false,
      "t": 153856.98899999986,
      "d": 214.28549999999814,
      "v": 100
    },
    {
      "midi": 44,
      "hit": false,
      "t": 154071.27449999985,
      "d": 214.28549999999814,
      "v": 100
    },
    {
      "midi": 45,
      "hit": false,
      "t": 154285.55999999985,
      "d": 3428.5679999999993,
      "v": 100
    },
    {
      "midi": 64,
      "hit": false,
      "t": 154285.56000000008,
      "d": 1714.2840000000142,
      "v": 100
    },
    {
      "midi": 73,
      "hit": false,
      "t": 154285.5600000001,
      "d": 214.28549999999814,
      "v": 100
    },
    {
      "midi": 71,
      "hit": false,
      "t": 154499.8455000001,
      "d": 214.28549999999814,
      "v": 100
    },
    {
      "midi": 68,
      "hit": false,
      "t": 154714.1310000001,
      "d": 214.28549999999814,
      "v": 100
    },
    {
      "midi": 73,
      "hit": false,
      "t": 154928.4165000001,
      "d": 214.28549999999814,
      "v": 100
    },
    {
      "midi": 71,
      "hit": false,
      "t": 155142.7020000001,
      "d": 214.28549999999814,
      "v": 100
    },
    {
      "midi": 68,
      "hit": false,
      "t": 155356.9875000001,
      "d": 214.28549999999814,
      "v": 100
    },
    {
      "midi": 71,
      "hit": false,
      "t": 155571.2730000001,
      "d": 214.28549999999814,
      "v": 100
    },
    {
      "midi": 73,
      "hit": false,
      "t": 155785.5585000001,
      "d": 214.28549999999814,
      "v": 100
    },
    {
      "midi": 73,
      "hit": false,
      "t": 155999.8440000001,
      "d": 214.28549999999814,
      "v": 100
    },
    {
      "midi": 64,
      "hit": false,
      "t": 155999.8440000001,
      "d": 1714.2840000000142,
      "v": 100
    },
    {
      "midi": 71,
      "hit": false,
      "t": 156214.1295000001,
      "d": 214.28549999999814,
      "v": 100
    },
    {
      "midi": 68,
      "hit": false,
      "t": 156428.4150000001,
      "d": 214.28549999999814,
      "v": 100
    },
    {
      "midi": 71,
      "hit": false,
      "t": 156642.7005000001,
      "d": 214.28549999999814,
      "v": 100
    },
    {
      "midi": 73,
      "hit": false,
      "t": 156856.9860000001,
      "d": 214.28549999999814,
      "v": 100
    },
    {
      "midi": 76,
      "hit": false,
      "t": 157071.2715000001,
      "d": 214.28549999999814,
      "v": 100
    },
    {
      "midi": 80,
      "hit": false,
      "t": 157285.5570000001,
      "d": 214.28549999999814,
      "v": 100
    },
    {
      "midi": 78,
      "hit": false,
      "t": 157499.8425000001,
      "d": 214.28549999999814,
      "v": 100
    },
    {
      "midi": 47,
      "hit": false,
      "t": 157714.12799999985,
      "d": 1714.2840000000142,
      "v": 100
    },
    {
      "midi": 71,
      "hit": false,
      "t": 157714.12800000008,
      "d": 1714.2840000000142,
      "v": 100
    },
    {
      "midi": 75,
      "hit": false,
      "t": 157714.12800000008,
      "d": 1714.2840000000142,
      "v": 100
    },
    {
      "midi": 78,
      "hit": false,
      "t": 157714.12800000008,
      "d": 1714.2840000000142,
      "v": 100
    },
    {
      "midi": 45,
      "hit": false,
      "t": 159428.41199999987,
      "d": 857.1419999999925,
      "v": 100
    },
    {
      "midi": 73,
      "hit": false,
      "t": 159428.4120000001,
      "d": 857.1419999999925,
      "v": 100
    },
    {
      "midi": 76,
      "hit": false,
      "t": 159428.4120000001,
      "d": 857.1419999999925,
      "v": 100
    },
    {
      "midi": 81,
      "hit": false,
      "t": 159428.4120000001,
      "d": 857.1419999999925,
      "v": 100
    },
    {
      "midi": 47,
      "hit": false,
      "t": 160285.55399999986,
      "d": 857.1419999999925,
      "v": 100
    },
    {
      "midi": 71,
      "hit": false,
      "t": 160285.5540000001,
      "d": 857.1419999999925,
      "v": 100
    },
    {
      "midi": 75,
      "hit": false,
      "t": 160285.5540000001,
      "d": 857.1419999999925,
      "v": 100
    },
    {
      "midi": 80,
      "hit": false,
      "t": 160285.5540000001,
      "d": 857.1419999999925,
      "v": 100
    },
    {
      "midi": 45,
      "hit": false,
      "t": 161142.69599999985,
      "d": 3428.5679999999993,
      "v": 100
    },
    {
      "midi": 61,
      "hit": false,
      "t": 161142.69600000008,
      "d": 857.1419999999925,
      "v": 100
    },
    {
      "midi": 64,
      "hit": false,
      "t": 161142.69600000008,
      "d": 857.1419999999925,
      "v": 100
    },
    {
      "midi": 69,
      "hit": false,
      "t": 161142.69600000008,
      "d": 857.1419999999925,
      "v": 100
    },
    {
      "midi": 61,
      "hit": false,
      "t": 161999.83800000008,
      "d": 428.5709999999963,
      "v": 100
    },
    {
      "midi": 64,
      "hit": false,
      "t": 161999.83800000008,
      "d": 428.5709999999963,
      "v": 100
    },
    {
      "midi": 69,
      "hit": false,
      "t": 161999.83800000008,
      "d": 428.5709999999963,
      "v": 100
    },
    {
      "midi": 61,
      "hit": false,
      "t": 162428.40900000007,
      "d": 428.5709999999963,
      "v": 100
    },
    {
      "midi": 64,
      "hit": false,
      "t": 162428.40900000007,
      "d": 428.5709999999963,
      "v": 100
    },
    {
      "midi": 69,
      "hit": false,
      "t": 162428.40900000007,
      "d": 428.5709999999963,
      "v": 100
    },
    {
      "midi": 61,
      "hit": false,
      "t": 162856.98000000007,
      "d": 642.8564999999944,
      "v": 100
    },
    {
      "midi": 64,
      "hit": false,
      "t": 162856.98000000007,
      "d": 642.8564999999944,
      "v": 100
    },
    {
      "midi": 69,
      "hit": false,
      "t": 162856.98000000007,
      "d": 642.8564999999944,
      "v": 100
    },
    {
      "midi": 61,
      "hit": false,
      "t": 163499.83650000006,
      "d": 857.1419999999925,
      "v": 100
    },
    {
      "midi": 64,
      "hit": false,
      "t": 163499.83650000006,
      "d": 857.1419999999925,
      "v": 100
    },
    {
      "midi": 69,
      "hit": false,
      "t": 163499.83650000006,
      "d": 857.1419999999925,
      "v": 100
    },
    {
      "midi": 61,
      "hit": false,
      "t": 164356.97850000006,
      "d": 214.28549999999814,
      "v": 100
    },
    {
      "midi": 64,
      "hit": false,
      "t": 164356.97850000006,
      "d": 214.28549999999814,
      "v": 100
    },
    {
      "midi": 69,
      "hit": false,
      "t": 164356.97850000006,
      "d": 214.28549999999814,
      "v": 100
    },
    {
      "midi": 47,
      "hit": false,
      "t": 164571.26399999985,
      "d": 3428.5679999999993,
      "v": 100
    },
    {
      "midi": 63,
      "hit": false,
      "t": 164571.26400000005,
      "d": 857.1419999999925,
      "v": 100
    },
    {
      "midi": 66,
      "hit": false,
      "t": 164571.26400000005,
      "d": 857.1419999999925,
      "v": 100
    },
    {
      "midi": 71,
      "hit": false,
      "t": 164571.26400000005,
      "d": 857.1419999999925,
      "v": 100
    },
    {
      "midi": 63,
      "hit": false,
      "t": 165428.40600000005,
      "d": 428.5709999999963,
      "v": 100
    },
    {
      "midi": 66,
      "hit": false,
      "t": 165428.40600000005,
      "d": 428.5709999999963,
      "v": 100
    },
    {
      "midi": 71,
      "hit": false,
      "t": 165428.40600000005,
      "d": 428.5709999999963,
      "v": 100
    },
    {
      "midi": 63,
      "hit": false,
      "t": 165856.97700000004,
      "d": 428.5709999999963,
      "v": 100
    },
    {
      "midi": 66,
      "hit": false,
      "t": 165856.97700000004,
      "d": 428.5709999999963,
      "v": 100
    },
    {
      "midi": 71,
      "hit": false,
      "t": 165856.97700000004,
      "d": 428.5709999999963,
      "v": 100
    },
    {
      "midi": 63,
      "hit": false,
      "t": 166285.54800000004,
      "d": 642.8564999999944,
      "v": 100
    },
    {
      "midi": 66,
      "hit": false,
      "t": 166285.54800000004,
      "d": 642.8564999999944,
      "v": 100
    },
    {
      "midi": 71,
      "hit": false,
      "t": 166285.54800000004,
      "d": 642.8564999999944,
      "v": 100
    },
    {
      "midi": 63,
      "hit": false,
      "t": 166928.40450000003,
      "d": 857.1419999999925,
      "v": 100
    },
    {
      "midi": 66,
      "hit": false,
      "t": 166928.40450000003,
      "d": 857.1419999999925,
      "v": 100
    },
    {
      "midi": 71,
      "hit": false,
      "t": 166928.40450000003,
      "d": 857.1419999999925,
      "v": 100
    },
    {
      "midi": 63,
      "hit": false,
      "t": 167785.54650000003,
      "d": 214.28549999999814,
      "v": 100
    },
    {
      "midi": 66,
      "hit": false,
      "t": 167785.54650000003,
      "d": 214.28549999999814,
      "v": 100
    },
    {
      "midi": 71,
      "hit": false,
      "t": 167785.54650000003,
      "d": 214.28549999999814,
      "v": 100
    },
    {
      "midi": 49,
      "hit": false,
      "t": 167999.83199999985,
      "d": 428.5709999999963,
      "v": 100
    },
    {
      "midi": 57,
      "hit": false,
      "t": 167999.83200000002,
      "d": 857.1419999999925,
      "v": 100
    },
    {
      "midi": 64,
      "hit": false,
      "t": 167999.83200000002,
      "d": 857.1419999999925,
      "v": 100
    },
    {
      "midi": 69,
      "hit": false,
      "t": 167999.83200000002,
      "d": 857.1419999999925,
      "v": 100
    },
    {
      "midi": 49,
      "hit": false,
      "t": 168428.40299999985,
      "d": 428.5709999999963,
      "v": 100
    },
    {
      "midi": 49,
      "hit": false,
      "t": 168856.97399999984,
      "d": 428.5709999999963,
      "v": 100
    },
    {
      "midi": 57,
      "hit": false,
      "t": 168856.97400000002,
      "d": 857.1419999999925,
      "v": 100
    },
    {
      "midi": 64,
      "hit": false,
      "t": 168856.97400000002,
      "d": 857.1419999999925,
      "v": 100
    },
    {
      "midi": 69,
      "hit": false,
      "t": 168856.97400000002,
      "d": 857.1419999999925,
      "v": 100
    },
    {
      "midi": 49,
      "hit": false,
      "t": 169285.54499999984,
      "d": 428.5709999999963,
      "v": 100
    },
    {
      "midi": 49,
      "hit": false,
      "t": 169714.11599999983,
      "d": 428.5709999999963,
      "v": 100
    },
    {
      "midi": 57,
      "hit": false,
      "t": 169714.116,
      "d": 857.1419999999925,
      "v": 100
    },
    {
      "midi": 64,
      "hit": false,
      "t": 169714.116,
      "d": 857.1419999999925,
      "v": 100
    },
    {
      "midi": 69,
      "hit": false,
      "t": 169714.116,
      "d": 857.1419999999925,
      "v": 100
    },
    {
      "midi": 49,
      "hit": false,
      "t": 170142.68699999983,
      "d": 428.5709999999963,
      "v": 100
    },
    {
      "midi": 49,
      "hit": false,
      "t": 170571.25799999983,
      "d": 428.5709999999963,
      "v": 100
    },
    {
      "midi": 57,
      "hit": false,
      "t": 170571.258,
      "d": 857.1419999999925,
      "v": 100
    },
    {
      "midi": 64,
      "hit": false,
      "t": 170571.258,
      "d": 857.1419999999925,
      "v": 100
    },
    {
      "midi": 69,
      "hit": false,
      "t": 170571.258,
      "d": 857.1419999999925,
      "v": 100
    },
    {
      "midi": 49,
      "hit": false,
      "t": 170999.82899999982,
      "d": 428.5709999999963,
      "v": 100
    },
    {
      "midi": 51,
      "hit": false,
      "t": 171428.39999999982,
      "d": 428.5709999999963,
      "v": 100
    },
    {
      "midi": 51,
      "hit": false,
      "t": 171856.97099999982,
      "d": 428.5709999999963,
      "v": 100
    },
    {
      "midi": 59,
      "hit": false,
      "t": 171856.971,
      "d": 428.5709999999963,
      "v": 100
    },
    {
      "midi": 66,
      "hit": false,
      "t": 171856.971,
      "d": 428.5709999999963,
      "v": 100
    },
    {
      "midi": 71,
      "hit": false,
      "t": 171856.971,
      "d": 428.5709999999963,
      "v": 100
    },
    {
      "midi": 52,
      "hit": false,
      "t": 172714.1129999998,
      "d": 857.1419999999925,
      "v": 100
    },
    {
      "midi": 68,
      "hit": false,
      "t": 172714.11299999998,
      "d": 214.28549999999814,
      "v": 100
    },
    {
      "midi": 71,
      "hit": false,
      "t": 172714.11299999998,
      "d": 214.28549999999814,
      "v": 100
    },
    {
      "midi": 76,
      "hit": false,
      "t": 172714.11299999998,
      "d": 214.28549999999814,
      "v": 100
    },
    {
      "midi": 68,
      "hit": false,
      "t": 172928.39849999998,
      "d": 214.28549999999814,
      "v": 100
    },
    {
      "midi": 71,
      "hit": false,
      "t": 172928.39849999998,
      "d": 214.28549999999814,
      "v": 100
    },
    {
      "midi": 76,
      "hit": false,
      "t": 172928.39849999998,
      "d": 214.28549999999814,
      "v": 100
    },
    {
      "midi": 69,
      "hit": false,
      "t": 173142.68399999998,
      "d": 857.1419999999925,
      "v": 100
    },
    {
      "midi": 45,
      "hit": false,
      "t": 173571.2549999998,
      "d": 857.1419999999925,
      "v": 100
    },
    {
      "midi": 61,
      "hit": false,
      "t": 173571.25500000012,
      "d": 428.5709999999963,
      "v": 100
    },
    {
      "midi": 64,
      "hit": false,
      "t": 173571.25500000012,
      "d": 428.5709999999963,
      "v": 100
    },
    {
      "midi": 71,
      "hit": false,
      "t": 173999.82599999997,
      "d": 857.1419999999925,
      "v": 100
    },
    {
      "midi": 47,
      "hit": false,
      "t": 174428.3969999998,
      "d": 428.5709999999963,
      "v": 100
    },
    {
      "midi": 63,
      "hit": false,
      "t": 174428.3970000001,
      "d": 428.5709999999963,
      "v": 100
    },
    {
      "midi": 66,
      "hit": false,
      "t": 174428.3970000001,
      "d": 428.5709999999963,
      "v": 100
    },
    {
      "midi": 52,
      "hit": false,
      "t": 174856.9679999998,
      "d": 2571.4260000000068,
      "v": 100
    },
    {
      "midi": 68,
      "hit": false,
      "t": 174856.96799999996,
      "d": 1714.2840000000142,
      "v": 100
    },
    {
      "midi": 59,
      "hit": false,
      "t": 174856.9680000001,
      "d": 857.1419999999925,
      "v": 100
    },
    {
      "midi": 64,
      "hit": false,
      "t": 174856.9680000001,
      "d": 857.1419999999925,
      "v": 100
    },
    {
      "midi": 59,
      "hit": false,
      "t": 175714.1100000001,
      "d": 857.1419999999925,
      "v": 100
    },
    {
      "midi": 64,
      "hit": false,
      "t": 175714.1100000001,
      "d": 857.1419999999925,
      "v": 100
    },
    {
      "midi": 71,
      "hit": false,
      "t": 176571.25199999998,
      "d": 428.5709999999963,
      "v": 100
    },
    {
      "midi": 59,
      "hit": false,
      "t": 176571.2520000001,
      "d": 1714.2840000000142,
      "v": 100
    },
    {
      "midi": 64,
      "hit": false,
      "t": 176571.2520000001,
      "d": 1714.2840000000142,
      "v": 100
    },
    {
      "midi": 69,
      "hit": false,
      "t": 176999.82299999997,
      "d": 428.5709999999963,
      "v": 100
    },
    {
      "midi": 52,
      "hit": false,
      "t": 177428.3939999998,
      "d": 857.1419999999925,
      "v": 100
    },
    {
      "midi": 68,
      "hit": false,
      "t": 177428.39399999997,
      "d": 428.5709999999963,
      "v": 100
    },
    {
      "midi": 69,
      "hit": false,
      "t": 177856.96499999997,
      "d": 428.5709999999963,
      "v": 100
    },
    {
      "midi": 47,
      "hit": false,
      "t": 178285.5359999998,
      "d": 3428.5679999999993,
      "v": 100
    },
    {
      "midi": 71,
      "hit": false,
      "t": 178285.53599999996,
      "d": 1285.7129999999888,
      "v": 100
    },
    {
      "midi": 63,
      "hit": false,
      "t": 178285.5360000001,
      "d": 1714.2840000000142,
      "v": 100
    },
    {
      "midi": 66,
      "hit": false,
      "t": 178285.5360000001,
      "d": 1714.2840000000142,
      "v": 100
    },
    {
      "midi": 66,
      "hit": false,
      "t": 179571.24899999995,
      "d": 214.28549999999814,
      "v": 100
    },
    {
      "midi": 68,
      "hit": false,
      "t": 179785.53449999995,
      "d": 214.28549999999814,
      "v": 100
    },
    {
      "midi": 69,
      "hit": false,
      "t": 179999.81999999995,
      "d": 428.5709999999963,
      "v": 100
    },
    {
      "midi": 59,
      "hit": false,
      "t": 179999.82000000012,
      "d": 1714.2840000000142,
      "v": 100
    },
    {
      "midi": 63,
      "hit": false,
      "t": 179999.82000000012,
      "d": 1714.2840000000142,
      "v": 100
    },
    {
      "midi": 68,
      "hit": false,
      "t": 180428.39099999995,
      "d": 428.5709999999963,
      "v": 100
    },
    {
      "midi": 66,
      "hit": false,
      "t": 180856.96199999994,
      "d": 428.5709999999963,
      "v": 100
    },
    {
      "midi": 64,
      "hit": false,
      "t": 181285.53299999994,
      "d": 428.5709999999963,
      "v": 100
    },
    {
      "midi": 42,
      "hit": false,
      "t": 181714.1039999998,
      "d": 1714.2840000000142,
      "v": 100
    },
    {
      "midi": 57,
      "hit": false,
      "t": 181714.10399999993,
      "d": 2571.4260000000068,
      "v": 100
    },
    {
      "midi": 61,
      "hit": false,
      "t": 181714.10399999993,
      "d": 2571.4260000000068,
      "v": 100
    },
    {
      "midi": 66,
      "hit": false,
      "t": 181714.10399999993,
      "d": 2571.4260000000068,
      "v": 100
    },
    {
      "midi": 42,
      "hit": false,
      "t": 183428.3879999998,
      "d": 1714.2840000000142,
      "v": 100
    },
    {
      "midi": 66,
      "hit": false,
      "t": 184285.52999999994,
      "d": 857.1419999999925,
      "v": 100
    },
    {
      "midi": 61,
      "hit": false,
      "t": 184285.53000000014,
      "d": 214.28549999999814,
      "v": 100
    },
    {
      "midi": 64,
      "hit": false,
      "t": 184499.81550000014,
      "d": 214.28549999999814,
      "v": 100
    },
    {
      "midi": 59,
      "hit": false,
      "t": 184714.10100000014,
      "d": 214.28549999999814,
      "v": 100
    },
    {
      "midi": 56,
      "hit": false,
      "t": 184928.38650000014,
      "d": 214.28549999999814,
      "v": 100
    },
    {
      "midi": 49,
      "hit": false,
      "t": 185142.67199999982,
      "d": 1285.7129999999888,
      "v": 100
    },
    {
      "midi": 61,
      "hit": false,
      "t": 185142.67199999993,
      "d": 857.1419999999925,
      "v": 100
    },
    {
      "midi": 64,
      "hit": false,
      "t": 185142.67199999993,
      "d": 857.1419999999925,
      "v": 100
    },
    {
      "midi": 68,
      "hit": false,
      "t": 185142.67199999993,
      "d": 857.1419999999925,
      "v": 100
    },
    {
      "midi": 61,
      "hit": false,
      "t": 185999.81399999993,
      "d": 857.1419999999925,
      "v": 100
    },
    {
      "midi": 64,
      "hit": false,
      "t": 185999.81399999993,
      "d": 857.1419999999925,
      "v": 100
    },
    {
      "midi": 68,
      "hit": false,
      "t": 185999.81399999993,
      "d": 857.1419999999925,
      "v": 100
    },
    {
      "midi": 49,
      "hit": false,
      "t": 186428.3849999998,
      "d": 428.5709999999963,
      "v": 100
    },
    {
      "midi": 47,
      "hit": false,
      "t": 186856.9559999998,
      "d": 1285.7129999999888,
      "v": 100
    },
    {
      "midi": 63,
      "hit": false,
      "t": 186856.95599999992,
      "d": 857.1419999999925,
      "v": 100
    },
    {
      "midi": 66,
      "hit": false,
      "t": 186856.95599999992,
      "d": 857.1419999999925,
      "v": 100
    },
    {
      "midi": 71,
      "hit": false,
      "t": 186856.95599999992,
      "d": 857.1419999999925,
      "v": 100
    },
    {
      "midi": 63,
      "hit": false,
      "t": 187714.0979999999,
      "d": 857.1419999999925,
      "v": 100
    },
    {
      "midi": 66,
      "hit": false,
      "t": 187714.0979999999,
      "d": 857.1419999999925,
      "v": 100
    },
    {
      "midi": 71,
      "hit": false,
      "t": 187714.0979999999,
      "d": 857.1419999999925,
      "v": 100
    },
    {
      "midi": 47,
      "hit": false,
      "t": 188142.6689999998,
      "d": 428.5709999999963,
      "v": 100
    },
    {
      "midi": 40,
      "hit": false,
      "t": 188571.2399999998,
      "d": 1714.2840000000142,
      "v": 100
    },
    {
      "midi": 68,
      "hit": false,
      "t": 188571.2399999999,
      "d": 1714.2840000000142,
      "v": 100
    },
    {
      "midi": 59,
      "hit": false,
      "t": 188571.24000000014,
      "d": 857.1419999999925,
      "v": 100
    },
    {
      "midi": 64,
      "hit": false,
      "t": 188571.24000000014,
      "d": 857.1419999999925,
      "v": 100
    },
    {
      "midi": 59,
      "hit": false,
      "t": 189428.38200000013,
      "d": 857.1419999999925,
      "v": 100
    },
    {
      "midi": 64,
      "hit": false,
      "t": 189428.38200000013,
      "d": 857.1419999999925,
      "v": 100
    },
    {
      "midi": 40,
      "hit": false,
      "t": 190285.5239999998,
      "d": 1285.7129999999888,
      "v": 100
    },
    {
      "midi": 71,
      "hit": false,
      "t": 190285.52399999992,
      "d": 428.5709999999963,
      "v": 100
    },
    {
      "midi": 59,
      "hit": false,
      "t": 190285.52400000012,
      "d": 1714.2840000000142,
      "v": 100
    },
    {
      "midi": 64,
      "hit": false,
      "t": 190285.52400000012,
      "d": 1714.2840000000142,
      "v": 100
    },
    {
      "midi": 69,
      "hit": false,
      "t": 190714.0949999999,
      "d": 428.5709999999963,
      "v": 100
    },
    {
      "midi": 68,
      "hit": false,
      "t": 191142.6659999999,
      "d": 428.5709999999963,
      "v": 100
    },
    {
      "midi": 47,
      "hit": false,
      "t": 191571.2369999998,
      "d": 214.28549999999814,
      "v": 100
    },
    {
      "midi": 69,
      "hit": false,
      "t": 191571.2369999999,
      "d": 428.5709999999963,
      "v": 100
    },
    {
      "midi": 49,
      "hit": false,
      "t": 191785.5224999998,
      "d": 214.28549999999814,
      "v": 100
    },
    {
      "midi": 47,
      "hit": false,
      "t": 191999.8079999998,
      "d": 1714.2840000000142,
      "v": 100
    },
    {
      "midi": 71,
      "hit": false,
      "t": 191999.8079999999,
      "d": 1285.7129999999888,
      "v": 100
    },
    {
      "midi": 63,
      "hit": false,
      "t": 191999.80800000014,
      "d": 1714.2840000000142,
      "v": 100
    },
    {
      "midi": 66,
      "hit": false,
      "t": 191999.80800000014,
      "d": 1714.2840000000142,
      "v": 100
    },
    {
      "midi": 66,
      "hit": false,
      "t": 193285.5209999999,
      "d": 214.28549999999814,
      "v": 100
    },
    {
      "midi": 68,
      "hit": false,
      "t": 193499.8064999999,
      "d": 214.28549999999814,
      "v": 100
    },
    {
      "midi": 47,
      "hit": false,
      "t": 193714.0919999998,
      "d": 1714.2840000000142,
      "v": 100
    },
    {
      "midi": 69,
      "hit": false,
      "t": 193714.0919999999,
      "d": 428.5709999999963,
      "v": 100
    },
    {
      "midi": 59,
      "hit": false,
      "t": 193714.09200000015,
      "d": 1714.2840000000142,
      "v": 100
    },
    {
      "midi": 63,
      "hit": false,
      "t": 193714.09200000015,
      "d": 1714.2840000000142,
      "v": 100
    },
    {
      "midi": 68,
      "hit": false,
      "t": 194142.66299999988,
      "d": 428.5709999999963,
      "v": 100
    },
    {
      "midi": 66,
      "hit": false,
      "t": 194571.23399999988,
      "d": 857.1419999999925,
      "v": 100
    },
    {
      "midi": 45,
      "hit": false,
      "t": 195428.37599999981,
      "d": 1714.2840000000142,
      "v": 100
    },
    {
      "midi": 57,
      "hit": false,
      "t": 195428.37599999987,
      "d": 2571.4260000000068,
      "v": 100
    },
    {
      "midi": 61,
      "hit": false,
      "t": 195428.37599999987,
      "d": 2571.4260000000068,
      "v": 100
    },
    {
      "midi": 64,
      "hit": false,
      "t": 195428.37599999987,
      "d": 2571.4260000000068,
      "v": 100
    },
    {
      "midi": 45,
      "hit": false,
      "t": 197142.65999999983,
      "d": 1285.7129999999888,
      "v": 100
    },
    {
      "midi": 57,
      "hit": false,
      "t": 197999.80199999988,
      "d": 214.28549999999814,
      "v": 100
    },
    {
      "midi": 59,
      "hit": false,
      "t": 198214.08749999988,
      "d": 214.28549999999814,
      "v": 100
    },
    {
      "midi": 45,
      "hit": false,
      "t": 198428.37299999982,
      "d": 214.28549999999814,
      "v": 100
    },
    {
      "midi": 61,
      "hit": false,
      "t": 198428.37299999988,
      "d": 214.28549999999814,
      "v": 100
    },
    {
      "midi": 47,
      "hit": false,
      "t": 198642.65849999982,
      "d": 214.28549999999814,
      "v": 100
    },
    {
      "midi": 64,
      "hit": false,
      "t": 198642.65849999987,
      "d": 214.28549999999814,
      "v": 100
    },
    {
      "midi": 49,
      "hit": false,
      "t": 198856.9439999998,
      "d": 1285.7129999999888,
      "v": 100
    },
    {
      "midi": 61,
      "hit": false,
      "t": 198856.94399999987,
      "d": 857.1419999999925,
      "v": 100
    },
    {
      "midi": 64,
      "hit": false,
      "t": 198856.94399999987,
      "d": 857.1419999999925,
      "v": 100
    },
    {
      "midi": 68,
      "hit": false,
      "t": 198856.94399999987,
      "d": 857.1419999999925,
      "v": 100
    },
    {
      "midi": 61,
      "hit": false,
      "t": 199714.08599999986,
      "d": 857.1419999999925,
      "v": 100
    },
    {
      "midi": 64,
      "hit": false,
      "t": 199714.08599999986,
      "d": 857.1419999999925,
      "v": 100
    },
    {
      "midi": 68,
      "hit": false,
      "t": 199714.08599999986,
      "d": 857.1419999999925,
      "v": 100
    },
    {
      "midi": 49,
      "hit": false,
      "t": 200142.6569999998,
      "d": 428.5709999999963,
      "v": 100
    },
    {
      "midi": 47,
      "hit": false,
      "t": 200571.2279999998,
      "d": 857.1419999999925,
      "v": 100
    },
    {
      "midi": 63,
      "hit": false,
      "t": 200571.22799999986,
      "d": 857.1419999999925,
      "v": 100
    },
    {
      "midi": 66,
      "hit": false,
      "t": 200571.22799999986,
      "d": 857.1419999999925,
      "v": 100
    },
    {
      "midi": 71,
      "hit": false,
      "t": 200571.22799999986,
      "d": 857.1419999999925,
      "v": 100
    },
    {
      "midi": 47,
      "hit": false,
      "t": 201428.3699999998,
      "d": 428.5709999999963,
      "v": 100
    },
    {
      "midi": 63,
      "hit": false,
      "t": 201428.36999999985,
      "d": 857.1419999999925,
      "v": 100
    },
    {
      "midi": 66,
      "hit": false,
      "t": 201428.36999999985,
      "d": 857.1419999999925,
      "v": 100
    },
    {
      "midi": 71,
      "hit": false,
      "t": 201428.36999999985,
      "d": 857.1419999999925,
      "v": 100
    },
    {
      "midi": 47,
      "hit": false,
      "t": 201856.9409999998,
      "d": 428.5709999999963,
      "v": 100
    },
    {
      "midi": 40,
      "hit": false,
      "t": 202285.51199999978,
      "d": 1714.2840000000142,
      "v": 100
    },
    {
      "midi": 68,
      "hit": false,
      "t": 202285.51199999984,
      "d": 1714.2840000000142,
      "v": 100
    },
    {
      "midi": 59,
      "hit": false,
      "t": 202285.51200000016,
      "d": 857.1419999999925,
      "v": 100
    },
    {
      "midi": 64,
      "hit": false,
      "t": 202285.51200000016,
      "d": 857.1419999999925,
      "v": 100
    },
    {
      "midi": 59,
      "hit": false,
      "t": 203142.65400000016,
      "d": 857.1419999999925,
      "v": 100
    },
    {
      "midi": 64,
      "hit": false,
      "t": 203142.65400000016,
      "d": 857.1419999999925,
      "v": 100
    },
    {
      "midi": 40,
      "hit": false,
      "t": 203999.7959999998,
      "d": 1714.2840000000142,
      "v": 100
    },
    {
      "midi": 71,
      "hit": false,
      "t": 203999.79599999986,
      "d": 428.5709999999963,
      "v": 100
    },
    {
      "midi": 59,
      "hit": false,
      "t": 203999.79600000015,
      "d": 1714.2840000000142,
      "v": 100
    },
    {
      "midi": 64,
      "hit": false,
      "t": 203999.79600000015,
      "d": 1714.2840000000142,
      "v": 100
    },
    {
      "midi": 69,
      "hit": false,
      "t": 204428.36699999985,
      "d": 428.5709999999963,
      "v": 100
    },
    {
      "midi": 68,
      "hit": false,
      "t": 204856.93799999985,
      "d": 428.5709999999963,
      "v": 100
    },
    {
      "midi": 69,
      "hit": false,
      "t": 205285.50899999985,
      "d": 214.28549999999814,
      "v": 100
    },
    {
      "midi": 71,
      "hit": false,
      "t": 205499.79449999984,
      "d": 214.28549999999814,
      "v": 100
    },
    {
      "midi": 42,
      "hit": false,
      "t": 205714.0799999998,
      "d": 1714.2840000000142,
      "v": 100
    },
    {
      "midi": 71,
      "hit": false,
      "t": 205714.07999999984,
      "d": 1285.7129999999888,
      "v": 100
    },
    {
      "midi": 59,
      "hit": false,
      "t": 205714.08000000016,
      "d": 1714.2840000000142,
      "v": 100
    },
    {
      "midi": 63,
      "hit": false,
      "t": 205714.08000000016,
      "d": 1714.2840000000142,
      "v": 100
    },
    {
      "midi": 66,
      "hit": false,
      "t": 206999.79299999983,
      "d": 214.28549999999814,
      "v": 100
    },
    {
      "midi": 68,
      "hit": false,
      "t": 207214.07849999983,
      "d": 214.28549999999814,
      "v": 100
    },
    {
      "midi": 69,
      "hit": false,
      "t": 207428.36399999983,
      "d": 428.5709999999963,
      "v": 100
    },
    {
      "midi": 42,
      "hit": false,
      "t": 207428.36399999983,
      "d": 1285.7129999999888,
      "v": 100
    },
    {
      "midi": 59,
      "hit": false,
      "t": 207428.36400000018,
      "d": 1714.2840000000142,
      "v": 100
    },
    {
      "midi": 63,
      "hit": false,
      "t": 207428.36400000018,
      "d": 1714.2840000000142,
      "v": 100
    },
    {
      "midi": 68,
      "hit": false,
      "t": 207856.93499999982,
      "d": 428.5709999999963,
      "v": 100
    },
    {
      "midi": 66,
      "hit": false,
      "t": 208285.50599999982,
      "d": 428.5709999999963,
      "v": 100
    },
    {
      "midi": 64,
      "hit": false,
      "t": 208714.07699999982,
      "d": 428.5709999999963,
      "v": 100
    },
    {
      "midi": 42,
      "hit": false,
      "t": 208714.07699999982,
      "d": 214.28549999999814,
      "v": 100
    },
    {
      "midi": 44,
      "hit": false,
      "t": 208928.3624999998,
      "d": 214.28549999999814,
      "v": 100
    },
    {
      "midi": 69,
      "hit": false,
      "t": 209142.6479999998,
      "d": 1714.2840000000142,
      "v": 100
    },
    {
      "midi": 45,
      "hit": false,
      "t": 209142.6479999998,
      "d": 1714.2840000000142,
      "v": 100
    },
    {
      "midi": 61,
      "hit": false,
      "t": 209142.6480000002,
      "d": 3428.5679999999993,
      "v": 100
    },
    {
      "midi": 64,
      "hit": false,
      "t": 209142.6480000002,
      "d": 3428.5679999999993,
      "v": 100
    },
    {
      "midi": 68,
      "hit": false,
      "t": 210856.93199999983,
      "d": 1714.2840000000142,
      "v": 100
    },
    {
      "midi": 45,
      "hit": false,
      "t": 210856.93199999983,
      "d": 1285.7129999999888,
      "v": 100
    },
    {
      "midi": 47,
      "hit": false,
      "t": 212142.64499999981,
      "d": 214.28549999999814,
      "v": 100
    },
    {
      "midi": 49,
      "hit": false,
      "t": 212356.9304999998,
      "d": 214.28549999999814,
      "v": 100
    },
    {
      "midi": 47,
      "hit": false,
      "t": 212571.2159999998,
      "d": 1714.2840000000142,
      "v": 100
    },
    {
      "midi": 59,
      "hit": false,
      "t": 212571.21599999984,
      "d": 1714.2840000000142,
      "v": 100
    },
    {
      "midi": 63,
      "hit": false,
      "t": 212571.21599999984,
      "d": 1714.2840000000142,
      "v": 100
    },
    {
      "midi": 66,
      "hit": false,
      "t": 212571.21599999984,
      "d": 1714.2840000000142,
      "v": 100
    },
    {
      "midi": 45,
      "hit": false,
      "t": 214285.49999999983,
      "d": 857.1419999999925,
      "v": 100
    },
    {
      "midi": 57,
      "hit": false,
      "t": 214285.49999999985,
      "d": 857.1419999999925,
      "v": 100
    },
    {
      "midi": 61,
      "hit": false,
      "t": 214285.49999999985,
      "d": 857.1419999999925,
      "v": 100
    },
    {
      "midi": 64,
      "hit": false,
      "t": 214285.49999999985,
      "d": 857.1419999999925,
      "v": 100
    },
    {
      "midi": 47,
      "hit": false,
      "t": 215142.64199999982,
      "d": 857.1419999999925,
      "v": 100
    },
    {
      "midi": 54,
      "hit": false,
      "t": 215142.64199999985,
      "d": 857.1419999999925,
      "v": 100
    },
    {
      "midi": 59,
      "hit": false,
      "t": 215142.64199999985,
      "d": 857.1419999999925,
      "v": 100
    },
    {
      "midi": 63,
      "hit": false,
      "t": 215142.64199999985,
      "d": 857.1419999999925,
      "v": 100
    },
    {
      "midi": 40,
      "hit": false,
      "t": 215999.7839999998,
      "d": 1285.7129999999888,
      "v": 100
    },
    {
      "midi": 68,
      "hit": false,
      "t": 216214.06949999984,
      "d": 642.8564999999944,
      "v": 100
    },
    {
      "midi": 71,
      "hit": false,
      "t": 216214.06949999984,
      "d": 642.8564999999944,
      "v": 100
    },
    {
      "midi": 76,
      "hit": false,
      "t": 216214.06949999984,
      "d": 642.8564999999944,
      "v": 100
    },
    {
      "midi": 68,
      "hit": false,
      "t": 216856.92599999983,
      "d": 857.1419999999925,
      "v": 100
    },
    {
      "midi": 71,
      "hit": false,
      "t": 216856.92599999983,
      "d": 857.1419999999925,
      "v": 100
    },
    {
      "midi": 76,
      "hit": false,
      "t": 216856.92599999983,
      "d": 857.1419999999925,
      "v": 100
    },
    {
      "midi": 40,
      "hit": false,
      "t": 217285.4969999998,
      "d": 428.5709999999963,
      "v": 100
    },
    {
      "midi": 40,
      "hit": false,
      "t": 217714.0679999998,
      "d": 428.5709999999963,
      "v": 100
    },
    {
      "midi": 68,
      "hit": false,
      "t": 217928.35349999982,
      "d": 642.8564999999944,
      "v": 100
    },
    {
      "midi": 71,
      "hit": false,
      "t": 217928.35349999982,
      "d": 642.8564999999944,
      "v": 100
    },
    {
      "midi": 76,
      "hit": false,
      "t": 217928.35349999982,
      "d": 642.8564999999944,
      "v": 100
    },
    {
      "midi": 40,
      "hit": false,
      "t": 218142.6389999998,
      "d": 857.1419999999925,
      "v": 100
    },
    {
      "midi": 68,
      "hit": false,
      "t": 218571.20999999982,
      "d": 857.1419999999925,
      "v": 100
    },
    {
      "midi": 71,
      "hit": false,
      "t": 218571.20999999982,
      "d": 857.1419999999925,
      "v": 100
    },
    {
      "midi": 76,
      "hit": false,
      "t": 218571.20999999982,
      "d": 857.1419999999925,
      "v": 100
    },
    {
      "midi": 40,
      "hit": false,
      "t": 218999.78099999978,
      "d": 428.5709999999963,
      "v": 100
    },
    {
      "midi": 47,
      "hit": false,
      "t": 219428.35199999978,
      "d": 1285.7129999999888,
      "v": 100
    },
    {
      "midi": 66,
      "hit": false,
      "t": 219642.6374999998,
      "d": 642.8564999999944,
      "v": 100
    },
    {
      "midi": 71,
      "hit": false,
      "t": 219642.6374999998,
      "d": 642.8564999999944,
      "v": 100
    },
    {
      "midi": 75,
      "hit": false,
      "t": 219642.6374999998,
      "d": 642.8564999999944,
      "v": 100
    },
    {
      "midi": 66,
      "hit": false,
      "t": 220285.4939999998,
      "d": 857.1419999999925,
      "v": 100
    },
    {
      "midi": 71,
      "hit": false,
      "t": 220285.4939999998,
      "d": 857.1419999999925,
      "v": 100
    },
    {
      "midi": 75,
      "hit": false,
      "t": 220285.4939999998,
      "d": 857.1419999999925,
      "v": 100
    },
    {
      "midi": 47,
      "hit": false,
      "t": 220714.06499999977,
      "d": 428.5709999999963,
      "v": 100
    },
    {
      "midi": 47,
      "hit": false,
      "t": 221142.63599999977,
      "d": 428.5709999999963,
      "v": 100
    },
    {
      "midi": 66,
      "hit": false,
      "t": 221356.9214999998,
      "d": 642.8564999999944,
      "v": 100
    },
    {
      "midi": 71,
      "hit": false,
      "t": 221356.9214999998,
      "d": 642.8564999999944,
      "v": 100
    },
    {
      "midi": 75,
      "hit": false,
      "t": 221356.9214999998,
      "d": 642.8564999999944,
      "v": 100
    },
    {
      "midi": 47,
      "hit": false,
      "t": 221571.20699999976,
      "d": 857.1419999999925,
      "v": 100
    },
    {
      "midi": 66,
      "hit": false,
      "t": 221999.7779999998,
      "d": 857.1419999999925,
      "v": 100
    },
    {
      "midi": 71,
      "hit": false,
      "t": 221999.7779999998,
      "d": 857.1419999999925,
      "v": 100
    },
    {
      "midi": 75,
      "hit": false,
      "t": 221999.7779999998,
      "d": 857.1419999999925,
      "v": 100
    },
    {
      "midi": 47,
      "hit": false,
      "t": 222428.34899999975,
      "d": 428.5709999999963,
      "v": 100
    },
    {
      "midi": 49,
      "hit": false,
      "t": 222856.91999999975,
      "d": 428.5709999999963,
      "v": 100
    },
    {
      "midi": 68,
      "hit": false,
      "t": 222856.91999999978,
      "d": 1714.2840000000142,
      "v": 100
    },
    {
      "midi": 73,
      "hit": false,
      "t": 222856.91999999978,
      "d": 1714.2840000000142,
      "v": 100
    },
    {
      "midi": 76,
      "hit": false,
      "t": 222856.91999999978,
      "d": 1714.2840000000142,
      "v": 100
    },
    {
      "midi": 49,
      "hit": false,
      "t": 223285.49099999975,
      "d": 428.5709999999963,
      "v": 100
    },
    {
      "midi": 51,
      "hit": false,
      "t": 223714.06199999974,
      "d": 428.5709999999963,
      "v": 100
    },
    {
      "midi": 52,
      "hit": false,
      "t": 224142.63299999974,
      "d": 428.5709999999963,
      "v": 100
    },
    {
      "midi": 47,
      "hit": false,
      "t": 224571.20399999974,
      "d": 428.5709999999963,
      "v": 100
    },
    {
      "midi": 66,
      "hit": false,
      "t": 224571.2039999998,
      "d": 1714.2840000000142,
      "v": 100
    },
    {
      "midi": 71,
      "hit": false,
      "t": 224571.2039999998,
      "d": 1714.2840000000142,
      "v": 100
    },
    {
      "midi": 75,
      "hit": false,
      "t": 224571.2039999998,
      "d": 1714.2840000000142,
      "v": 100
    },
    {
      "midi": 47,
      "hit": false,
      "t": 224999.77499999973,
      "d": 428.5709999999963,
      "v": 100
    },
    {
      "midi": 49,
      "hit": false,
      "t": 225428.34599999973,
      "d": 428.5709999999963,
      "v": 100
    },
    {
      "midi": 51,
      "hit": false,
      "t": 225856.91699999972,
      "d": 428.5709999999963,
      "v": 100
    },
    {
      "midi": 45,
      "hit": false,
      "t": 226285.48799999972,
      "d": 428.5709999999963,
      "v": 100
    },
    {
      "midi": 69,
      "hit": false,
      "t": 226285.4879999998,
      "d": 428.5709999999963,
      "v": 100
    },
    {
      "midi": 73,
      "hit": false,
      "t": 226285.4879999998,
      "d": 428.5709999999963,
      "v": 100
    },
    {
      "midi": 76,
      "hit": false,
      "t": 226285.4879999998,
      "d": 428.5709999999963,
      "v": 100
    },
    {
      "midi": 45,
      "hit": false,
      "t": 226714.05899999972,
      "d": 428.5709999999963,
      "v": 100
    },
    {
      "midi": 69,
      "hit": false,
      "t": 226714.0589999998,
      "d": 428.5709999999963,
      "v": 100
    },
    {
      "midi": 73,
      "hit": false,
      "t": 226714.0589999998,
      "d": 428.5709999999963,
      "v": 100
    },
    {
      "midi": 76,
      "hit": false,
      "t": 226714.0589999998,
      "d": 428.5709999999963,
      "v": 100
    },
    {
      "midi": 45,
      "hit": false,
      "t": 227142.6299999997,
      "d": 857.1419999999925,
      "v": 100
    },
    {
      "midi": 69,
      "hit": false,
      "t": 227571.2009999998,
      "d": 214.28549999999814,
      "v": 100
    },
    {
      "midi": 73,
      "hit": false,
      "t": 227571.2009999998,
      "d": 214.28549999999814,
      "v": 100
    },
    {
      "midi": 76,
      "hit": false,
      "t": 227571.2009999998,
      "d": 214.28549999999814,
      "v": 100
    },
    {
      "midi": 69,
      "hit": false,
      "t": 227785.4864999998,
      "d": 214.28549999999814,
      "v": 100
    },
    {
      "midi": 73,
      "hit": false,
      "t": 227785.4864999998,
      "d": 214.28549999999814,
      "v": 100
    },
    {
      "midi": 76,
      "hit": false,
      "t": 227785.4864999998,
      "d": 214.28549999999814,
      "v": 100
    },
    {
      "midi": 45,
      "hit": false,
      "t": 227999.7719999997,
      "d": 428.5709999999963,
      "v": 100
    },
    {
      "midi": 69,
      "hit": false,
      "t": 227999.7719999998,
      "d": 214.28549999999814,
      "v": 100
    },
    {
      "midi": 73,
      "hit": false,
      "t": 227999.7719999998,
      "d": 214.28549999999814,
      "v": 100
    },
    {
      "midi": 76,
      "hit": false,
      "t": 227999.7719999998,
      "d": 214.28549999999814,
      "v": 100
    },
    {
      "midi": 69,
      "hit": false,
      "t": 228214.0574999998,
      "d": 214.28549999999814,
      "v": 100
    },
    {
      "midi": 73,
      "hit": false,
      "t": 228214.0574999998,
      "d": 214.28549999999814,
      "v": 100
    },
    {
      "midi": 76,
      "hit": false,
      "t": 228214.0574999998,
      "d": 214.28549999999814,
      "v": 100
    },
    {
      "midi": 45,
      "hit": false,
      "t": 228428.3429999997,
      "d": 428.5709999999963,
      "v": 100
    },
    {
      "midi": 69,
      "hit": false,
      "t": 228428.3429999998,
      "d": 428.5709999999963,
      "v": 100
    },
    {
      "midi": 73,
      "hit": false,
      "t": 228428.3429999998,
      "d": 428.5709999999963,
      "v": 100
    },
    {
      "midi": 76,
      "hit": false,
      "t": 228428.3429999998,
      "d": 428.5709999999963,
      "v": 100
    },
    {
      "midi": 45,
      "hit": false,
      "t": 228856.9139999997,
      "d": 428.5709999999963,
      "v": 100
    },
    {
      "midi": 69,
      "hit": false,
      "t": 228856.9139999998,
      "d": 214.28549999999814,
      "v": 100
    },
    {
      "midi": 73,
      "hit": false,
      "t": 228856.9139999998,
      "d": 214.28549999999814,
      "v": 100
    },
    {
      "midi": 76,
      "hit": false,
      "t": 228856.9139999998,
      "d": 214.28549999999814,
      "v": 100
    },
    {
      "midi": 69,
      "hit": false,
      "t": 229071.19949999978,
      "d": 214.28549999999814,
      "v": 100
    },
    {
      "midi": 73,
      "hit": false,
      "t": 229071.19949999978,
      "d": 214.28549999999814,
      "v": 100
    },
    {
      "midi": 76,
      "hit": false,
      "t": 229071.19949999978,
      "d": 214.28549999999814,
      "v": 100
    },
    {
      "midi": 45,
      "hit": false,
      "t": 229285.4849999997,
      "d": 428.5709999999963,
      "v": 100
    },
    {
      "midi": 69,
      "hit": false,
      "t": 229285.48499999978,
      "d": 428.5709999999963,
      "v": 100
    },
    {
      "midi": 73,
      "hit": false,
      "t": 229285.48499999978,
      "d": 428.5709999999963,
      "v": 100
    },
    {
      "midi": 76,
      "hit": false,
      "t": 229285.48499999978,
      "d": 428.5709999999963,
      "v": 100
    }
  ]
}