{
  "jsonPath": "Classical/Classical/Johann Sebastian Bach/6-partitas-clavierubung-part-i-no2.json",
  "path": "Classical\\Classical\\Johann Sebastian Bach\\6 Partitas, Clavierubung part I, no2.mid",
  "name": "6 Partitas, Clavierubung part I, no2",
  "difficulty": "Advanced",
  "bpm": 107.0001266168165,
  "notes": [
    {
      "midi": 67,
      "hit": false,
      "t": 0,
      "d": 560.747,
      "v": 127
    },
    {
      "midi": 72,
      "hit": false,
      "t": 0,
      "d": 560.747,
      "v": 127
    },
    {
      "midi": 75,
      "hit": false,
      "t": 0,
      "d": 560.747,
      "v": 127
    },
    {
      "midi": 48,
      "hit": false,
      "t": 0,
      "d": 560.747,
      "v": 127
    },
    {
      "midi": 51,
      "hit": false,
      "t": 0,
      "d": 560.747,
      "v": 127
    },
    {
      "midi": 55,
      "hit": false,
      "t": 0,
      "d": 560.747,
      "v": 127
    },
    {
      "midi": 60,
      "hit": false,
      "t": 0,
      "d": 560.747,
      "v": 127
    },
    {
      "midi": 72,
      "hit": false,
      "t": 700.9337499999999,
      "d": 140.18674999999996,
      "v": 127
    },
    {
      "midi": 75,
      "hit": false,
      "t": 700.9337499999999,
      "d": 140.18674999999996,
      "v": 127
    },
    {
      "midi": 74,
      "hit": false,
      "t": 841.1204999999999,
      "d": 140.18674999999996,
      "v": 127
    },
    {
      "midi": 72,
      "hit": false,
      "t": 981.3072499999998,
      "d": 140.18675000000007,
      "v": 127
    },
    {
      "midi": 75,
      "hit": false,
      "t": 981.3072499999998,
      "d": 140.18675000000007,
      "v": 127
    },
    {
      "midi": 74,
      "hit": false,
      "t": 1121.494,
      "d": 560.7470000000001,
      "v": 127
    },
    {
      "midi": 77,
      "hit": false,
      "t": 1121.494,
      "d": 560.7470000000001,
      "v": 127
    },
    {
      "midi": 48,
      "hit": false,
      "t": 1121.494,
      "d": 560.7470000000001,
      "v": 127
    },
    {
      "midi": 50,
      "hit": false,
      "t": 1121.494,
      "d": 560.7470000000001,
      "v": 127
    },
    {
      "midi": 53,
      "hit": false,
      "t": 1121.494,
      "d": 560.7470000000001,
      "v": 127
    },
    {
      "midi": 56,
      "hit": false,
      "t": 1121.494,
      "d": 560.7470000000001,
      "v": 127
    },
    {
      "midi": 59,
      "hit": false,
      "t": 1121.494,
      "d": 560.7470000000001,
      "v": 127
    },
    {
      "midi": 74,
      "hit": false,
      "t": 1822.42775,
      "d": 140.18675000000007,
      "v": 127
    },
    {
      "midi": 77,
      "hit": false,
      "t": 1822.42775,
      "d": 140.18675000000007,
      "v": 127
    },
    {
      "midi": 77,
      "hit": false,
      "t": 1962.6145000000001,
      "d": 140.18674999999985,
      "v": 127
    },
    {
      "midi": 75,
      "hit": false,
      "t": 2102.80125,
      "d": 140.18674999999985,
      "v": 127
    },
    {
      "midi": 79,
      "hit": false,
      "t": 2102.80125,
      "d": 140.18674999999985,
      "v": 127
    },
    {
      "midi": 77,
      "hit": false,
      "t": 2242.988,
      "d": 420.56025,
      "v": 127
    },
    {
      "midi": 80,
      "hit": false,
      "t": 2242.988,
      "d": 420.56025,
      "v": 127
    },
    {
      "midi": 77,
      "hit": false,
      "t": 2663.54825,
      "d": 140.18674999999985,
      "v": 127
    },
    {
      "midi": 80,
      "hit": false,
      "t": 2663.54825,
      "d": 140.18674999999985,
      "v": 127
    },
    {
      "midi": 80,
      "hit": false,
      "t": 2803.7349999999997,
      "d": 140.18674999999985,
      "v": 127
    },
    {
      "midi": 48,
      "hit": false,
      "t": 2803.7349999999997,
      "d": 560.7469999999998,
      "v": 127
    },
    {
      "midi": 50,
      "hit": false,
      "t": 2803.7349999999997,
      "d": 560.7469999999998,
      "v": 127
    },
    {
      "midi": 53,
      "hit": false,
      "t": 2803.7349999999997,
      "d": 560.7469999999998,
      "v": 127
    },
    {
      "midi": 59,
      "hit": false,
      "t": 2803.7349999999997,
      "d": 560.7469999999998,
      "v": 127
    },
    {
      "midi": 79,
      "hit": false,
      "t": 2943.9217499999995,
      "d": 140.18674999999985,
      "v": 127
    },
    {
      "midi": 79,
      "hit": false,
      "t": 3084.1084999999994,
      "d": 140.18674999999985,
      "v": 127
    },
    {
      "midi": 74,
      "hit": false,
      "t": 3224.295249999999,
      "d": 140.18674999999985,
      "v": 127
    },
    {
      "midi": 67,
      "hit": false,
      "t": 3364.481999999999,
      "d": 560.7469999999998,
      "v": 127
    },
    {
      "midi": 72,
      "hit": false,
      "t": 3364.481999999999,
      "d": 560.7469999999998,
      "v": 127
    },
    {
      "midi": 75,
      "hit": false,
      "t": 3364.481999999999,
      "d": 560.7469999999998,
      "v": 127
    },
    {
      "midi": 48,
      "hit": false,
      "t": 3364.4819999999995,
      "d": 560.7469999999998,
      "v": 127
    },
    {
      "midi": 51,
      "hit": false,
      "t": 3364.4819999999995,
      "d": 560.7469999999998,
      "v": 127
    },
    {
      "midi": 55,
      "hit": false,
      "t": 3364.4819999999995,
      "d": 560.7469999999998,
      "v": 127
    },
    {
      "midi": 60,
      "hit": false,
      "t": 3364.4819999999995,
      "d": 560.7469999999998,
      "v": 127
    },
    {
      "midi": 75,
      "hit": false,
      "t": 4065.4157499999988,
      "d": 140.1867500000003,
      "v": 127
    },
    {
      "midi": 79,
      "hit": false,
      "t": 4065.4157499999988,
      "d": 140.1867500000003,
      "v": 127
    },
    {
      "midi": 79,
      "hit": false,
      "t": 4205.602499999999,
      "d": 140.18674999999985,
      "v": 127
    },
    {
      "midi": 77,
      "hit": false,
      "t": 4345.789249999999,
      "d": 140.18674999999985,
      "v": 127
    },
    {
      "midi": 80,
      "hit": false,
      "t": 4345.789249999999,
      "d": 140.18674999999985,
      "v": 127
    },
    {
      "midi": 72,
      "hit": false,
      "t": 4485.975999999999,
      "d": 560.7470000000003,
      "v": 127
    },
    {
      "midi": 79,
      "hit": false,
      "t": 4485.975999999999,
      "d": 560.7470000000003,
      "v": 127
    },
    {
      "midi": 82,
      "hit": false,
      "t": 4485.975999999999,
      "d": 560.7470000000003,
      "v": 127
    },
    {
      "midi": 48,
      "hit": false,
      "t": 4485.976,
      "d": 560.7470000000003,
      "v": 127
    },
    {
      "midi": 52,
      "hit": false,
      "t": 4485.976,
      "d": 560.7470000000003,
      "v": 127
    },
    {
      "midi": 55,
      "hit": false,
      "t": 4485.976,
      "d": 560.7470000000003,
      "v": 127
    },
    {
      "midi": 60,
      "hit": false,
      "t": 4485.976,
      "d": 560.7470000000003,
      "v": 127
    },
    {
      "midi": 67,
      "hit": false,
      "t": 5186.909749999999,
      "d": 140.18674999999985,
      "v": 127
    },
    {
      "midi": 70,
      "hit": false,
      "t": 5186.909749999999,
      "d": 140.18674999999985,
      "v": 127
    },
    {
      "midi": 70,
      "hit": false,
      "t": 5327.096499999999,
      "d": 140.18674999999985,
      "v": 127
    },
    {
      "midi": 68,
      "hit": false,
      "t": 5467.283249999999,
      "d": 140.18674999999985,
      "v": 127
    },
    {
      "midi": 72,
      "hit": false,
      "t": 5467.283249999999,
      "d": 140.18674999999985,
      "v": 127
    },
    {
      "midi": 70,
      "hit": false,
      "t": 5607.469999999998,
      "d": 420.56024999999954,
      "v": 127
    },
    {
      "midi": 73,
      "hit": false,
      "t": 5607.469999999998,
      "d": 420.56024999999954,
      "v": 127
    },
    {
      "midi": 70,
      "hit": false,
      "t": 6028.030249999998,
      "d": 140.18674999999985,
      "v": 127
    },
    {
      "midi": 73,
      "hit": false,
      "t": 6028.030249999998,
      "d": 140.18674999999985,
      "v": 127
    },
    {
      "midi": 76,
      "hit": false,
      "t": 6168.216999999998,
      "d": 140.18674999999985,
      "v": 127
    },
    {
      "midi": 48,
      "hit": false,
      "t": 6168.217,
      "d": 560.7470000000003,
      "v": 127
    },
    {
      "midi": 55,
      "hit": false,
      "t": 6168.217,
      "d": 560.7470000000003,
      "v": 127
    },
    {
      "midi": 60,
      "hit": false,
      "t": 6168.217,
      "d": 560.7470000000003,
      "v": 127
    },
    {
      "midi": 72,
      "hit": false,
      "t": 6308.403749999998,
      "d": 140.18674999999985,
      "v": 127
    },
    {
      "midi": 72,
      "hit": false,
      "t": 6448.5904999999975,
      "d": 140.18674999999985,
      "v": 127
    },
    {
      "midi": 67,
      "hit": false,
      "t": 6588.777249999997,
      "d": 140.18674999999985,
      "v": 127
    },
    {
      "midi": 68,
      "hit": false,
      "t": 6728.963999999997,
      "d": 560.7470000000003,
      "v": 127
    },
    {
      "midi": 72,
      "hit": false,
      "t": 6728.963999999997,
      "d": 560.7470000000003,
      "v": 127
    },
    {
      "midi": 77,
      "hit": false,
      "t": 6728.963999999997,
      "d": 560.7470000000003,
      "v": 127
    },
    {
      "midi": 48,
      "hit": false,
      "t": 6728.964,
      "d": 560.7470000000003,
      "v": 127
    },
    {
      "midi": 53,
      "hit": false,
      "t": 6728.964,
      "d": 560.7470000000003,
      "v": 127
    },
    {
      "midi": 56,
      "hit": false,
      "t": 6728.964,
      "d": 560.7470000000003,
      "v": 127
    },
    {
      "midi": 60,
      "hit": false,
      "t": 6728.964,
      "d": 560.7470000000003,
      "v": 127
    },
    {
      "midi": 77,
      "hit": false,
      "t": 7429.897749999997,
      "d": 140.18674999999985,
      "v": 127
    },
    {
      "midi": 79,
      "hit": false,
      "t": 7570.084499999997,
      "d": 140.18674999999985,
      "v": 127
    },
    {
      "midi": 80,
      "hit": false,
      "t": 7710.271249999997,
      "d": 140.18674999999985,
      "v": 127
    },
    {
      "midi": 74,
      "hit": false,
      "t": 7850.457999999997,
      "d": 140.18674999999985,
      "v": 127
    },
    {
      "midi": 65,
      "hit": false,
      "t": 7990.644749999997,
      "d": 140.18674999999985,
      "v": 127
    },
    {
      "midi": 48,
      "hit": false,
      "t": 7990.64475,
      "d": 140.18674999999985,
      "v": 127
    },
    {
      "midi": 50,
      "hit": false,
      "t": 7990.64475,
      "d": 140.18674999999985,
      "v": 127
    },
    {
      "midi": 56,
      "hit": false,
      "t": 7990.64475,
      "d": 140.18674999999985,
      "v": 127
    },
    {
      "midi": 65,
      "hit": false,
      "t": 8130.831499999997,
      "d": 140.18675000000076,
      "v": 127
    },
    {
      "midi": 50,
      "hit": false,
      "t": 8130.8315,
      "d": 140.18675000000076,
      "v": 127
    },
    {
      "midi": 56,
      "hit": false,
      "t": 8130.8315,
      "d": 140.18675000000076,
      "v": 127
    },
    {
      "midi": 67,
      "hit": false,
      "t": 8271.018249999997,
      "d": 140.18675000000076,
      "v": 127
    },
    {
      "midi": 46,
      "hit": false,
      "t": 8271.018250000001,
      "d": 140.18675000000076,
      "v": 127
    },
    {
      "midi": 50,
      "hit": false,
      "t": 8271.018250000001,
      "d": 140.18675000000076,
      "v": 127
    },
    {
      "midi": 55,
      "hit": false,
      "t": 8271.018250000001,
      "d": 140.18675000000076,
      "v": 127
    },
    {
      "midi": 67,
      "hit": false,
      "t": 8411.204999999998,
      "d": 140.18675000000076,
      "v": 127
    },
    {
      "midi": 46,
      "hit": false,
      "t": 8411.205000000002,
      "d": 560.7469999999994,
      "v": 127
    },
    {
      "midi": 50,
      "hit": false,
      "t": 8411.205000000002,
      "d": 560.7469999999994,
      "v": 127
    },
    {
      "midi": 55,
      "hit": false,
      "t": 8411.205000000002,
      "d": 560.7469999999994,
      "v": 127
    },
    {
      "midi": 74,
      "hit": false,
      "t": 8551.391749999999,
      "d": 140.18675000000076,
      "v": 127
    },
    {
      "midi": 79,
      "hit": false,
      "t": 8691.5785,
      "d": 140.18675000000076,
      "v": 127
    },
    {
      "midi": 75,
      "hit": false,
      "t": 8831.76525,
      "d": 140.18675000000076,
      "v": 127
    },
    {
      "midi": 72,
      "hit": false,
      "t": 8971.952000000001,
      "d": 140.18675000000076,
      "v": 127
    },
    {
      "midi": 63,
      "hit": false,
      "t": 9112.138750000002,
      "d": 140.18675000000076,
      "v": 127
    },
    {
      "midi": 46,
      "hit": false,
      "t": 9112.138750000002,
      "d": 140.18675000000076,
      "v": 127
    },
    {
      "midi": 48,
      "hit": false,
      "t": 9112.138750000002,
      "d": 140.18675000000076,
      "v": 127
    },
    {
      "midi": 55,
      "hit": false,
      "t": 9112.138750000002,
      "d": 140.18675000000076,
      "v": 127
    },
    {
      "midi": 63,
      "hit": false,
      "t": 9252.325500000003,
      "d": 140.18675000000076,
      "v": 127
    },
    {
      "midi": 48,
      "hit": false,
      "t": 9252.325500000003,
      "d": 140.18675000000076,
      "v": 127
    },
    {
      "midi": 55,
      "hit": false,
      "t": 9252.325500000003,
      "d": 140.18675000000076,
      "v": 127
    },
    {
      "midi": 65,
      "hit": false,
      "t": 9392.512250000003,
      "d": 140.18675000000076,
      "v": 127
    },
    {
      "midi": 44,
      "hit": false,
      "t": 9392.512250000003,
      "d": 140.18675000000076,
      "v": 127
    },
    {
      "midi": 48,
      "hit": false,
      "t": 9392.512250000003,
      "d": 140.18675000000076,
      "v": 127
    },
    {
      "midi": 53,
      "hit": false,
      "t": 9392.512250000003,
      "d": 140.18675000000076,
      "v": 127
    },
    {
      "midi": 75,
      "hit": false,
      "t": 9532.699000000004,
      "d": 140.18675000000076,
      "v": 127
    },
    {
      "midi": 53,
      "hit": false,
      "t": 9532.699000000004,
      "d": 560.7469999999994,
      "v": 127
    },
    {
      "midi": 72,
      "hit": false,
      "t": 9672.885750000005,
      "d": 140.18675000000076,
      "v": 127
    },
    {
      "midi": 73,
      "hit": false,
      "t": 9672.885750000005,
      "d": 140.18675000000076,
      "v": 127
    },
    {
      "midi": 73,
      "hit": false,
      "t": 9813.072500000006,
      "d": 140.18675000000076,
      "v": 127
    },
    {
      "midi": 77,
      "hit": false,
      "t": 9953.259250000006,
      "d": 140.18675000000076,
      "v": 127
    },
    {
      "midi": 43,
      "hit": false,
      "t": 10093.446000000004,
      "d": 560.7469999999994,
      "v": 127
    },
    {
      "midi": 50,
      "hit": false,
      "t": 10093.446000000004,
      "d": 560.7469999999994,
      "v": 127
    },
    {
      "midi": 71,
      "hit": false,
      "t": 10093.446000000007,
      "d": 140.18675000000076,
      "v": 127
    },
    {
      "midi": 69,
      "hit": false,
      "t": 10233.632750000008,
      "d": 140.18675000000076,
      "v": 127
    },
    {
      "midi": 72,
      "hit": false,
      "t": 10233.632750000008,
      "d": 140.18675000000076,
      "v": 127
    },
    {
      "midi": 71,
      "hit": false,
      "t": 10373.819500000009,
      "d": 140.18675000000076,
      "v": 127
    },
    {
      "midi": 69,
      "hit": false,
      "t": 10514.00625000001,
      "d": 140.18675000000076,
      "v": 127
    },
    {
      "midi": 72,
      "hit": false,
      "t": 10514.00625000001,
      "d": 140.18675000000076,
      "v": 127
    },
    {
      "midi": 74,
      "hit": false,
      "t": 10654.19300000001,
      "d": 560.7469999999994,
      "v": 127
    },
    {
      "midi": 50,
      "hit": false,
      "t": 10794.379750000004,
      "d": 140.18675000000076,
      "v": 127
    },
    {
      "midi": 53,
      "hit": false,
      "t": 10794.379750000004,
      "d": 140.18675000000076,
      "v": 127
    },
    {
      "midi": 53,
      "hit": false,
      "t": 10934.566500000004,
      "d": 140.18675000000076,
      "v": 127
    },
    {
      "midi": 51,
      "hit": false,
      "t": 11074.753250000005,
      "d": 140.18675000000076,
      "v": 127
    },
    {
      "midi": 55,
      "hit": false,
      "t": 11074.753250000005,
      "d": 140.18675000000076,
      "v": 127
    },
    {
      "midi": 53,
      "hit": false,
      "t": 11214.940000000006,
      "d": 420.56025000000045,
      "v": 127
    },
    {
      "midi": 56,
      "hit": false,
      "t": 11214.940000000006,
      "d": 420.56025000000045,
      "v": 127
    },
    {
      "midi": 56,
      "hit": false,
      "t": 11635.500250000006,
      "d": 140.18675000000076,
      "v": 127
    },
    {
      "midi": 62,
      "hit": false,
      "t": 11635.50025000001,
      "d": 140.18675000000076,
      "v": 127
    },
    {
      "midi": 47,
      "hit": false,
      "t": 11775.687000000007,
      "d": 140.18675000000076,
      "v": 127
    },
    {
      "midi": 65,
      "hit": false,
      "t": 11775.68700000001,
      "d": 420.56025000000045,
      "v": 127
    },
    {
      "midi": 53,
      "hit": false,
      "t": 11915.873750000008,
      "d": 140.18675000000076,
      "v": 127
    },
    {
      "midi": 55,
      "hit": false,
      "t": 11915.873750000008,
      "d": 140.18675000000076,
      "v": 127
    },
    {
      "midi": 55,
      "hit": false,
      "t": 12056.060500000009,
      "d": 140.18675000000076,
      "v": 127
    },
    {
      "midi": 50,
      "hit": false,
      "t": 12196.24725000001,
      "d": 140.18675000000076,
      "v": 127
    },
    {
      "midi": 68,
      "hit": false,
      "t": 12196.247250000011,
      "d": 140.18675000000076,
      "v": 127
    },
    {
      "midi": 43,
      "hit": false,
      "t": 12336.43400000001,
      "d": 560.7469999999994,
      "v": 127
    },
    {
      "midi": 48,
      "hit": false,
      "t": 12336.43400000001,
      "d": 560.7469999999994,
      "v": 127
    },
    {
      "midi": 51,
      "hit": false,
      "t": 12336.43400000001,
      "d": 560.7469999999994,
      "v": 127
    },
    {
      "midi": 67,
      "hit": false,
      "t": 12336.434000000012,
      "d": 140.18675000000076,
      "v": 127
    },
    {
      "midi": 65,
      "hit": false,
      "t": 12476.620750000013,
      "d": 140.18675000000076,
      "v": 127
    },
    {
      "midi": 67,
      "hit": false,
      "t": 12476.620750000013,
      "d": 140.18675000000076,
      "v": 127
    },
    {
      "midi": 69,
      "hit": false,
      "t": 12616.807500000014,
      "d": 140.18675000000076,
      "v": 127
    },
    {
      "midi": 62,
      "hit": false,
      "t": 12756.994250000014,
      "d": 140.18675000000076,
      "v": 127
    },
    {
      "midi": 71,
      "hit": false,
      "t": 12756.994250000014,
      "d": 140.18675000000076,
      "v": 127
    },
    {
      "midi": 72,
      "hit": false,
      "t": 12897.181000000015,
      "d": 140.18675000000076,
      "v": 127
    },
    {
      "midi": 62,
      "hit": false,
      "t": 13037.367750000016,
      "d": 140.18675000000076,
      "v": 127
    },
    {
      "midi": 67,
      "hit": false,
      "t": 13037.367750000016,
      "d": 140.18675000000076,
      "v": 127
    },
    {
      "midi": 71,
      "hit": false,
      "t": 13037.367750000016,
      "d": 140.18675000000076,
      "v": 127
    },
    {
      "midi": 72,
      "hit": false,
      "t": 13177.554500000017,
      "d": 140.18675000000076,
      "v": 127
    },
    {
      "midi": 65,
      "hit": false,
      "t": 13317.741250000017,
      "d": 140.18675000000076,
      "v": 127
    },
    {
      "midi": 71,
      "hit": false,
      "t": 13317.741250000017,
      "d": 140.18675000000076,
      "v": 127
    },
    {
      "midi": 74,
      "hit": false,
      "t": 13317.741250000017,
      "d": 140.18675000000076,
      "v": 127
    },
    {
      "midi": 72,
      "hit": false,
      "t": 13457.928000000018,
      "d": 420.56025000000045,
      "v": 127
    },
    {
      "midi": 75,
      "hit": false,
      "t": 13457.928000000018,
      "d": 420.56025000000045,
      "v": 127
    },
    {
      "midi": 72,
      "hit": false,
      "t": 13878.488250000019,
      "d": 140.18675000000076,
      "v": 127
    },
    {
      "midi": 75,
      "hit": false,
      "t": 13878.488250000019,
      "d": 140.18675000000076,
      "v": 127
    },
    {
      "midi": 43,
      "hit": false,
      "t": 14018.67500000001,
      "d": 560.7469999999994,
      "v": 127
    },
    {
      "midi": 48,
      "hit": false,
      "t": 14018.67500000001,
      "d": 560.7469999999994,
      "v": 127
    },
    {
      "midi": 51,
      "hit": false,
      "t": 14018.67500000001,
      "d": 560.7469999999994,
      "v": 127
    },
    {
      "midi": 57,
      "hit": false,
      "t": 14018.67500000001,
      "d": 560.7469999999994,
      "v": 127
    },
    {
      "midi": 78,
      "hit": false,
      "t": 14018.67500000002,
      "d": 140.18675000000076,
      "v": 127
    },
    {
      "midi": 74,
      "hit": false,
      "t": 14158.86175000002,
      "d": 140.18675000000076,
      "v": 127
    },
    {
      "midi": 74,
      "hit": false,
      "t": 14299.04850000002,
      "d": 280.3734999999997,
      "v": 127
    },
    {
      "midi": 43,
      "hit": false,
      "t": 14579.42200000001,
      "d": 1121.4940000000006,
      "v": 127
    },
    {
      "midi": 50,
      "hit": false,
      "t": 14579.42200000001,
      "d": 1121.4940000000006,
      "v": 127
    },
    {
      "midi": 55,
      "hit": false,
      "t": 14579.42200000001,
      "d": 1121.4940000000006,
      "v": 127
    },
    {
      "midi": 71,
      "hit": false,
      "t": 14579.42200000002,
      "d": 1121.4940000000006,
      "v": 127
    },
    {
      "midi": 74,
      "hit": false,
      "t": 14579.42200000002,
      "d": 1121.4940000000006,
      "v": 127
    },
    {
      "midi": 79,
      "hit": false,
      "t": 14579.42200000002,
      "d": 1121.4940000000006,
      "v": 127
    },
    {
      "midi": 48,
      "hit": false,
      "t": 15700.91600000001,
      "d": 280.3734999999997,
      "v": 127
    },
    {
      "midi": 67,
      "hit": false,
      "t": 15700.916000000021,
      "d": 140.18675000000076,
      "v": 127
    },
    {
      "midi": 72,
      "hit": false,
      "t": 15841.102750000022,
      "d": 140.18675000000076,
      "v": 127
    },
    {
      "midi": 74,
      "hit": false,
      "t": 15841.102750000022,
      "d": 140.18675000000076,
      "v": 127
    },
    {
      "midi": 60,
      "hit": false,
      "t": 15981.28950000001,
      "d": 280.3734999999997,
      "v": 127
    },
    {
      "midi": 75,
      "hit": false,
      "t": 15981.289500000023,
      "d": 420.56025000000045,
      "v": 127
    },
    {
      "midi": 53,
      "hit": false,
      "t": 16261.66300000001,
      "d": 280.3734999999997,
      "v": 127
    },
    {
      "midi": 72,
      "hit": false,
      "t": 16401.849750000023,
      "d": 140.18675000000076,
      "v": 127
    },
    {
      "midi": 74,
      "hit": false,
      "t": 16401.849750000023,
      "d": 140.18675000000076,
      "v": 127
    },
    {
      "midi": 55,
      "hit": false,
      "t": 16542.03650000001,
      "d": 280.3735000000015,
      "v": 127
    },
    {
      "midi": 74,
      "hit": false,
      "t": 16542.036500000024,
      "d": 140.18675000000076,
      "v": 127
    },
    {
      "midi": 75,
      "hit": false,
      "t": 16542.036500000024,
      "d": 140.18675000000076,
      "v": 127
    },
    {
      "midi": 71,
      "hit": false,
      "t": 16682.223250000025,
      "d": 140.18675000000076,
      "v": 127
    },
    {
      "midi": 72,
      "hit": false,
      "t": 16682.223250000025,
      "d": 140.18675000000076,
      "v": 127
    },
    {
      "midi": 51,
      "hit": false,
      "t": 16822.41000000001,
      "d": 280.3735000000015,
      "v": 127
    },
    {
      "midi": 72,
      "hit": false,
      "t": 16822.410000000025,
      "d": 140.18675000000076,
      "v": 127
    },
    {
      "midi": 67,
      "hit": false,
      "t": 16962.596750000026,
      "d": 140.18675000000076,
      "v": 127
    },
    {
      "midi": 48,
      "hit": false,
      "t": 17102.783500000012,
      "d": 280.3735000000015,
      "v": 127
    },
    {
      "midi": 68,
      "hit": false,
      "t": 17102.783500000027,
      "d": 140.18675000000076,
      "v": 127
    },
    {
      "midi": 65,
      "hit": false,
      "t": 17242.970250000028,
      "d": 140.18675000000076,
      "v": 127
    },
    {
      "midi": 51,
      "hit": false,
      "t": 17383.157000000014,
      "d": 280.3735000000015,
      "v": 127
    },
    {
      "midi": 67,
      "hit": false,
      "t": 17383.15700000003,
      "d": 140.18675000000076,
      "v": 127
    },
    {
      "midi": 72,
      "hit": false,
      "t": 17523.34375000003,
      "d": 140.18675000000076,
      "v": 127
    },
    {
      "midi": 55,
      "hit": false,
      "t": 17663.530500000015,
      "d": 280.3735000000015,
      "v": 127
    },
    {
      "midi": 67,
      "hit": false,
      "t": 17663.53050000003,
      "d": 140.18675000000076,
      "v": 127
    },
    {
      "midi": 65,
      "hit": false,
      "t": 17803.71725000003,
      "d": 140.18675000000076,
      "v": 127
    },
    {
      "midi": 60,
      "hit": false,
      "t": 17943.904000000017,
      "d": 280.3735000000015,
      "v": 127
    },
    {
      "midi": 63,
      "hit": false,
      "t": 17943.90400000003,
      "d": 140.18675000000076,
      "v": 127
    },
    {
      "midi": 72,
      "hit": false,
      "t": 18084.090750000032,
      "d": 140.18675000000076,
      "v": 127
    },
    {
      "midi": 74,
      "hit": false,
      "t": 18084.090750000032,
      "d": 140.18675000000076,
      "v": 127
    },
    {
      "midi": 56,
      "hit": false,
      "t": 18224.27750000002,
      "d": 280.3735000000015,
      "v": 127
    },
    {
      "midi": 74,
      "hit": false,
      "t": 18224.277500000033,
      "d": 140.18675000000076,
      "v": 127
    },
    {
      "midi": 75,
      "hit": false,
      "t": 18224.277500000033,
      "d": 140.18675000000076,
      "v": 127
    },
    {
      "midi": 72,
      "hit": false,
      "t": 18364.464250000034,
      "d": 140.18675000000076,
      "v": 127
    },
    {
      "midi": 51,
      "hit": false,
      "t": 18504.65100000002,
      "d": 280.3735000000015,
      "v": 127
    },
    {
      "midi": 79,
      "hit": false,
      "t": 18504.651000000034,
      "d": 140.18675000000076,
      "v": 127
    },
    {
      "midi": 72,
      "hit": false,
      "t": 18644.837750000035,
      "d": 140.18675000000076,
      "v": 127
    },
    {
      "midi": 53,
      "hit": false,
      "t": 18785.02450000002,
      "d": 280.3735000000015,
      "v": 127
    },
    {
      "midi": 80,
      "hit": false,
      "t": 18785.024500000036,
      "d": 140.18675000000076,
      "v": 127
    },
    {
      "midi": 72,
      "hit": false,
      "t": 18925.211250000037,
      "d": 140.18675000000076,
      "v": 127
    },
    {
      "midi": 55,
      "hit": false,
      "t": 19065.398000000023,
      "d": 280.3735000000015,
      "v": 127
    },
    {
      "midi": 71,
      "hit": false,
      "t": 19065.398000000037,
      "d": 140.18675000000076,
      "v": 127
    },
    {
      "midi": 72,
      "hit": false,
      "t": 19205.58475000004,
      "d": 140.18675000000076,
      "v": 127
    },
    {
      "midi": 43,
      "hit": false,
      "t": 19345.771500000024,
      "d": 280.3735000000015,
      "v": 127
    },
    {
      "midi": 74,
      "hit": false,
      "t": 19345.77150000004,
      "d": 140.18675000000076,
      "v": 127
    },
    {
      "midi": 71,
      "hit": false,
      "t": 19485.95825000004,
      "d": 140.18675000000076,
      "v": 127
    },
    {
      "midi": 67,
      "hit": false,
      "t": 19626.14500000004,
      "d": 140.18675000000076,
      "v": 127
    },
    {
      "midi": 65,
      "hit": false,
      "t": 19766.33175000004,
      "d": 140.18675000000076,
      "v": 127
    },
    {
      "midi": 63,
      "hit": false,
      "t": 19906.518500000042,
      "d": 140.18675000000076,
      "v": 127
    },
    {
      "midi": 62,
      "hit": false,
      "t": 20046.705250000043,
      "d": 140.18675000000076,
      "v": 127
    },
    {
      "midi": 79,
      "hit": false,
      "t": 20186.892000000043,
      "d": 140.18675000000076,
      "v": 127
    },
    {
      "midi": 74,
      "hit": false,
      "t": 20327.078750000044,
      "d": 140.18675000000076,
      "v": 127
    },
    {
      "midi": 75,
      "hit": false,
      "t": 20327.078750000044,
      "d": 140.18675000000076,
      "v": 127
    },
    {
      "midi": 72,
      "hit": false,
      "t": 20467.265500000045,
      "d": 140.18675000000076,
      "v": 127
    },
    {
      "midi": 70,
      "hit": false,
      "t": 20607.452250000046,
      "d": 140.18675000000076,
      "v": 127
    },
    {
      "midi": 64,
      "hit": false,
      "t": 20747.639000000047,
      "d": 140.18675000000076,
      "v": 127
    },
    {
      "midi": 73,
      "hit": false,
      "t": 20887.825750000047,
      "d": 140.18675000000076,
      "v": 127
    },
    {
      "midi": 60,
      "hit": false,
      "t": 21028.012500000048,
      "d": 140.18675000000076,
      "v": 127
    },
    {
      "midi": 72,
      "hit": false,
      "t": 21168.19925000005,
      "d": 140.18675000000076,
      "v": 127
    },
    {
      "midi": 80,
      "hit": false,
      "t": 21308.38600000005,
      "d": 140.18675000000076,
      "v": 127
    },
    {
      "midi": 76,
      "hit": false,
      "t": 21448.57275000005,
      "d": 140.18675000000076,
      "v": 127
    },
    {
      "midi": 77,
      "hit": false,
      "t": 21448.57275000005,
      "d": 140.18675000000076,
      "v": 127
    },
    {
      "midi": 68,
      "hit": false,
      "t": 21588.75950000005,
      "d": 280.3735000000015,
      "v": 127
    },
    {
      "midi": 77,
      "hit": false,
      "t": 21588.75950000005,
      "d": 280.3735000000015,
      "v": 127
    },
    {
      "midi": 79,
      "hit": false,
      "t": 21869.133000000053,
      "d": 140.18675000000076,
      "v": 127
    },
    {
      "midi": 79,
      "hit": false,
      "t": 22009.319750000053,
      "d": 140.18675000000076,
      "v": 127
    },
    {
      "midi": 80,
      "hit": false,
      "t": 22009.319750000053,
      "d": 140.18675000000076,
      "v": 127
    },
    {
      "midi": 75,
      "hit": false,
      "t": 22149.506500000054,
      "d": 140.18675000000076,
      "v": 127
    },
    {
      "midi": 77,
      "hit": false,
      "t": 22149.506500000054,
      "d": 140.18675000000076,
      "v": 127
    },
    {
      "midi": 74,
      "hit": false,
      "t": 22289.693250000055,
      "d": 140.18675000000076,
      "v": 127
    },
    {
      "midi": 75,
      "hit": false,
      "t": 22289.693250000055,
      "d": 140.18675000000076,
      "v": 127
    },
    {
      "midi": 77,
      "hit": false,
      "t": 22429.880000000056,
      "d": 140.18675000000076,
      "v": 127
    },
    {
      "midi": 72,
      "hit": false,
      "t": 22570.066750000056,
      "d": 140.18675000000076,
      "v": 127
    },
    {
      "midi": 74,
      "hit": false,
      "t": 22570.066750000056,
      "d": 140.18675000000076,
      "v": 127
    },
    {
      "midi": 70,
      "hit": false,
      "t": 22710.253500000057,
      "d": 140.18675000000076,
      "v": 127
    },
    {
      "midi": 68,
      "hit": false,
      "t": 22850.440250000058,
      "d": 140.18675000000076,
      "v": 127
    },
    {
      "midi": 62,
      "hit": false,
      "t": 22990.62700000006,
      "d": 140.18675000000076,
      "v": 127
    },
    {
      "midi": 72,
      "hit": false,
      "t": 23130.81375000006,
      "d": 140.18675000000076,
      "v": 127
    },
    {
      "midi": 58,
      "hit": false,
      "t": 23271.00050000006,
      "d": 140.18675000000076,
      "v": 127
    },
    {
      "midi": 70,
      "hit": false,
      "t": 23411.18725000006,
      "d": 140.18675000000076,
      "v": 127
    },
    {
      "midi": 79,
      "hit": false,
      "t": 23551.37400000006,
      "d": 140.18675000000076,
      "v": 127
    },
    {
      "midi": 74,
      "hit": false,
      "t": 23691.560750000062,
      "d": 140.18675000000076,
      "v": 127
    },
    {
      "midi": 75,
      "hit": false,
      "t": 23691.560750000062,
      "d": 140.18675000000076,
      "v": 127
    },
    {
      "midi": 67,
      "hit": false,
      "t": 23831.747500000063,
      "d": 280.3735000000015,
      "v": 127
    },
    {
      "midi": 75,
      "hit": false,
      "t": 23831.747500000063,
      "d": 280.3735000000015,
      "v": 127
    },
    {
      "midi": 77,
      "hit": false,
      "t": 24112.121000000065,
      "d": 140.18675000000076,
      "v": 127
    },
    {
      "midi": 77,
      "hit": false,
      "t": 24252.307750000065,
      "d": 140.18675000000076,
      "v": 127
    },
    {
      "midi": 79,
      "hit": false,
      "t": 24252.307750000065,
      "d": 140.18675000000076,
      "v": 127
    },
    {
      "midi": 75,
      "hit": false,
      "t": 24392.494500000066,
      "d": 140.18675000000076,
      "v": 127
    },
    {
      "midi": 71,
      "hit": false,
      "t": 24532.681250000067,
      "d": 140.18675000000076,
      "v": 127
    },
    {
      "midi": 72,
      "hit": false,
      "t": 24532.681250000067,
      "d": 140.18675000000076,
      "v": 127
    },
    {
      "midi": 56,
      "hit": false,
      "t": 24672.868000000024,
      "d": 280.3735000000015,
      "v": 127
    },
    {
      "midi": 70,
      "hit": false,
      "t": 24672.868000000068,
      "d": 140.18675000000076,
      "v": 127
    },
    {
      "midi": 72,
      "hit": false,
      "t": 24672.868000000068,
      "d": 140.18675000000076,
      "v": 127
    },
    {
      "midi": 67,
      "hit": false,
      "t": 24813.05475000007,
      "d": 140.18675000000076,
      "v": 127
    },
    {
      "midi": 68,
      "hit": false,
      "t": 24813.05475000007,
      "d": 140.18675000000076,
      "v": 127
    },
    {
      "midi": 60,
      "hit": false,
      "t": 24953.241500000026,
      "d": 280.3735000000015,
      "v": 127
    },
    {
      "midi": 65,
      "hit": false,
      "t": 24953.24150000007,
      "d": 140.18675000000076,
      "v": 127
    },
    {
      "midi": 75,
      "hit": false,
      "t": 25093.42825000007,
      "d": 280.3735000000015,
      "v": 127
    },
    {
      "midi": 65,
      "hit": false,
      "t": 25233.615000000027,
      "d": 280.3735000000015,
      "v": 127
    },
    {
      "midi": 72,
      "hit": false,
      "t": 25373.80175000007,
      "d": 140.18675000000076,
      "v": 127
    },
    {
      "midi": 74,
      "hit": false,
      "t": 25373.80175000007,
      "d": 140.18675000000076,
      "v": 127
    },
    {
      "midi": 56,
      "hit": false,
      "t": 25513.98850000003,
      "d": 280.3735000000015,
      "v": 127
    },
    {
      "midi": 74,
      "hit": false,
      "t": 25513.988500000072,
      "d": 140.18675000000076,
      "v": 127
    },
    {
      "midi": 75,
      "hit": false,
      "t": 25513.988500000072,
      "d": 140.18675000000076,
      "v": 127
    },
    {
      "midi": 71,
      "hit": false,
      "t": 25654.175250000073,
      "d": 140.18675000000076,
      "v": 127
    },
    {
      "midi": 72,
      "hit": false,
      "t": 25654.175250000073,
      "d": 140.18675000000076,
      "v": 127
    },
    {
      "midi": 55,
      "hit": false,
      "t": 25794.36200000003,
      "d": 280.3735000000015,
      "v": 127
    },
    {
      "midi": 72,
      "hit": false,
      "t": 25794.362000000074,
      "d": 140.18675000000076,
      "v": 127
    },
    {
      "midi": 74,
      "hit": false,
      "t": 25794.362000000074,
      "d": 140.18675000000076,
      "v": 127
    },
    {
      "midi": 75,
      "hit": false,
      "t": 25934.548750000075,
      "d": 140.18675000000076,
      "v": 127
    },
    {
      "midi": 77,
      "hit": false,
      "t": 25934.548750000075,
      "d": 140.18675000000076,
      "v": 127
    },
    {
      "midi": 60,
      "hit": false,
      "t": 26074.73550000003,
      "d": 280.3735000000015,
      "v": 127
    },
    {
      "midi": 79,
      "hit": false,
      "t": 26074.735500000075,
      "d": 140.18675000000076,
      "v": 127
    },
    {
      "midi": 72,
      "hit": false,
      "t": 26214.922250000076,
      "d": 280.3735000000015,
      "v": 127
    },
    {
      "midi": 63,
      "hit": false,
      "t": 26355.109000000033,
      "d": 280.3735000000015,
      "v": 127
    },
    {
      "midi": 71,
      "hit": false,
      "t": 26495.295750000078,
      "d": 140.18675000000076,
      "v": 127
    },
    {
      "midi": 72,
      "hit": false,
      "t": 26495.295750000078,
      "d": 140.18675000000076,
      "v": 127
    },
    {
      "midi": 55,
      "hit": false,
      "t": 26635.482500000035,
      "d": 280.3735000000015,
      "v": 127
    },
    {
      "midi": 72,
      "hit": false,
      "t": 26635.48250000008,
      "d": 140.18675000000076,
      "v": 127
    },
    {
      "midi": 74,
      "hit": false,
      "t": 26635.48250000008,
      "d": 140.18675000000076,
      "v": 127
    },
    {
      "midi": 71,
      "hit": false,
      "t": 26775.66925000008,
      "d": 140.18675000000076,
      "v": 127
    },
    {
      "midi": 72,
      "hit": false,
      "t": 26775.66925000008,
      "d": 140.18675000000076,
      "v": 127
    },
    {
      "midi": 53,
      "hit": false,
      "t": 26915.856000000036,
      "d": 280.3735000000015,
      "v": 127
    },
    {
      "midi": 79,
      "hit": false,
      "t": 26915.85600000008,
      "d": 140.18675000000076,
      "v": 127
    },
    {
      "midi": 80,
      "hit": false,
      "t": 26915.85600000008,
      "d": 140.18675000000076,
      "v": 127
    },
    {
      "midi": 76,
      "hit": false,
      "t": 27056.04275000008,
      "d": 140.18675000000076,
      "v": 127
    },
    {
      "midi": 77,
      "hit": false,
      "t": 27056.04275000008,
      "d": 140.18675000000076,
      "v": 127
    },
    {
      "midi": 56,
      "hit": false,
      "t": 27196.229500000038,
      "d": 280.3735000000015,
      "v": 127
    },
    {
      "midi": 77,
      "hit": false,
      "t": 27196.22950000008,
      "d": 140.18675000000076,
      "v": 127
    },
    {
      "midi": 73,
      "hit": false,
      "t": 27336.416250000082,
      "d": 280.3735000000015,
      "v": 127
    },
    {
      "midi": 55,
      "hit": false,
      "t": 27476.60300000004,
      "d": 280.3735000000015,
      "v": 127
    },
    {
      "midi": 72,
      "hit": false,
      "t": 27616.789750000084,
      "d": 140.18675000000076,
      "v": 127
    },
    {
      "midi": 73,
      "hit": false,
      "t": 27616.789750000084,
      "d": 140.18675000000076,
      "v": 127
    },
    {
      "midi": 53,
      "hit": false,
      "t": 27756.97650000004,
      "d": 280.3735000000015,
      "v": 127
    },
    {
      "midi": 73,
      "hit": false,
      "t": 27756.976500000084,
      "d": 140.18675000000076,
      "v": 127
    },
    {
      "midi": 75,
      "hit": false,
      "t": 27756.976500000084,
      "d": 140.18675000000076,
      "v": 127
    },
    {
      "midi": 72,
      "hit": false,
      "t": 27897.163250000085,
      "d": 140.18675000000076,
      "v": 127
    },
    {
      "midi": 73,
      "hit": false,
      "t": 27897.163250000085,
      "d": 140.18675000000076,
      "v": 127
    },
    {
      "midi": 51,
      "hit": false,
      "t": 28037.350000000042,
      "d": 280.3735000000015,
      "v": 127
    },
    {
      "midi": 77,
      "hit": false,
      "t": 28037.350000000086,
      "d": 140.18675000000076,
      "v": 127
    },
    {
      "midi": 79,
      "hit": false,
      "t": 28037.350000000086,
      "d": 140.18675000000076,
      "v": 127
    },
    {
      "midi": 74,
      "hit": false,
      "t": 28177.536750000087,
      "d": 140.18675000000076,
      "v": 127
    },
    {
      "midi": 75,
      "hit": false,
      "t": 28177.536750000087,
      "d": 140.18675000000076,
      "v": 127
    },
    {
      "midi": 55,
      "hit": false,
      "t": 28317.723500000044,
      "d": 280.3735000000015,
      "v": 127
    },
    {
      "midi": 75,
      "hit": false,
      "t": 28317.723500000087,
      "d": 140.18675000000076,
      "v": 127
    },
    {
      "midi": 72,
      "hit": false,
      "t": 28457.910250000088,
      "d": 280.3735000000015,
      "v": 127
    },
    {
      "midi": 53,
      "hit": false,
      "t": 28598.097000000045,
      "d": 280.3735000000015,
      "v": 127
    },
    {
      "midi": 71,
      "hit": false,
      "t": 28738.28375000009,
      "d": 140.18675000000076,
      "v": 127
    },
    {
      "midi": 72,
      "hit": false,
      "t": 28738.28375000009,
      "d": 140.18675000000076,
      "v": 127
    },
    {
      "midi": 51,
      "hit": false,
      "t": 28878.470500000047,
      "d": 280.3735000000015,
      "v": 127
    },
    {
      "midi": 72,
      "hit": false,
      "t": 28878.47050000009,
      "d": 140.18675000000076,
      "v": 127
    },
    {
      "midi": 74,
      "hit": false,
      "t": 28878.47050000009,
      "d": 140.18675000000076,
      "v": 127
    },
    {
      "midi": 71,
      "hit": false,
      "t": 29018.65725000009,
      "d": 140.18675000000076,
      "v": 127
    },
    {
      "midi": 72,
      "hit": false,
      "t": 29018.65725000009,
      "d": 140.18675000000076,
      "v": 127
    },
    {
      "midi": 50,
      "hit": false,
      "t": 29158.84400000005,
      "d": 280.3735000000015,
      "v": 127
    },
    {
      "midi": 72,
      "hit": false,
      "t": 29158.844000000092,
      "d": 140.18675000000076,
      "v": 127
    },
    {
      "midi": 77,
      "hit": false,
      "t": 29158.844000000092,
      "d": 140.18675000000076,
      "v": 127
    },
    {
      "midi": 69,
      "hit": false,
      "t": 29299.030750000093,
      "d": 140.18675000000076,
      "v": 127
    },
    {
      "midi": 71,
      "hit": false,
      "t": 29299.030750000093,
      "d": 140.18675000000076,
      "v": 127
    },
    {
      "midi": 53,
      "hit": false,
      "t": 29439.21750000005,
      "d": 280.3735000000015,
      "v": 127
    },
    {
      "midi": 71,
      "hit": false,
      "t": 29439.217500000093,
      "d": 140.18675000000076,
      "v": 127
    },
    {
      "midi": 74,
      "hit": false,
      "t": 29579.404250000094,
      "d": 140.18675000000076,
      "v": 127
    },
    {
      "midi": 56,
      "hit": false,
      "t": 29719.59100000005,
      "d": 280.3735000000015,
      "v": 127
    },
    {
      "midi": 70,
      "hit": false,
      "t": 29719.591000000095,
      "d": 140.18675000000076,
      "v": 127
    },
    {
      "midi": 77,
      "hit": false,
      "t": 29719.591000000095,
      "d": 140.18675000000076,
      "v": 127
    },
    {
      "midi": 67,
      "hit": false,
      "t": 29859.777750000096,
      "d": 140.18675000000076,
      "v": 127
    },
    {
      "midi": 68,
      "hit": false,
      "t": 29859.777750000096,
      "d": 140.18675000000076,
      "v": 127
    },
    {
      "midi": 48,
      "hit": false,
      "t": 29999.964500000053,
      "d": 280.3735000000015,
      "v": 127
    },
    {
      "midi": 68,
      "hit": false,
      "t": 29999.964500000096,
      "d": 140.18675000000076,
      "v": 127
    },
    {
      "midi": 72,
      "hit": false,
      "t": 30140.151250000097,
      "d": 140.18675000000076,
      "v": 127
    },
    {
      "midi": 47,
      "hit": false,
      "t": 30280.338000000054,
      "d": 280.3735000000015,
      "v": 127
    },
    {
      "midi": 68,
      "hit": false,
      "t": 30280.338000000098,
      "d": 140.18675000000076,
      "v": 127
    },
    {
      "midi": 77,
      "hit": false,
      "t": 30280.338000000098,
      "d": 140.18675000000076,
      "v": 127
    },
    {
      "midi": 65,
      "hit": false,
      "t": 30420.5247500001,
      "d": 140.18675000000076,
      "v": 127
    },
    {
      "midi": 67,
      "hit": false,
      "t": 30420.5247500001,
      "d": 140.18675000000076,
      "v": 127
    },
    {
      "midi": 50,
      "hit": false,
      "t": 30560.711500000056,
      "d": 280.3735000000015,
      "v": 127
    },
    {
      "midi": 67,
      "hit": false,
      "t": 30560.7115000001,
      "d": 280.3735000000015,
      "v": 127
    },
    {
      "midi": 55,
      "hit": false,
      "t": 30841.085000000057,
      "d": 280.3735000000015,
      "v": 127
    },
    {
      "midi": 77,
      "hit": false,
      "t": 30841.0850000001,
      "d": 140.18675000000076,
      "v": 127
    },
    {
      "midi": 79,
      "hit": false,
      "t": 30981.2717500001,
      "d": 140.18675000000076,
      "v": 127
    },
    {
      "midi": 80,
      "hit": false,
      "t": 30981.2717500001,
      "d": 140.18675000000076,
      "v": 127
    },
    {
      "midi": 50,
      "hit": false,
      "t": 31121.45850000006,
      "d": 280.3735000000015,
      "v": 127
    },
    {
      "midi": 79,
      "hit": false,
      "t": 31121.458500000103,
      "d": 140.18675000000076,
      "v": 127
    },
    {
      "midi": 77,
      "hit": false,
      "t": 31261.645250000103,
      "d": 140.18675000000076,
      "v": 127
    },
    {
      "midi": 51,
      "hit": false,
      "t": 31401.83200000006,
      "d": 280.3735000000015,
      "v": 127
    },
    {
      "midi": 79,
      "hit": false,
      "t": 31401.832000000104,
      "d": 140.18675000000076,
      "v": 127
    },
    {
      "midi": 71,
      "hit": false,
      "t": 31542.018750000105,
      "d": 280.3735000000015,
      "v": 127
    },
    {
      "midi": 44,
      "hit": false,
      "t": 31682.205500000062,
      "d": 280.3735000000015,
      "v": 127
    },
    {
      "midi": 72,
      "hit": false,
      "t": 31822.392250000106,
      "d": 280.3735000000015,
      "v": 127
    },
    {
      "midi": 41,
      "hit": false,
      "t": 31962.579000000063,
      "d": 280.3735000000015,
      "v": 127
    },
    {
      "midi": 68,
      "hit": false,
      "t": 32102.765750000108,
      "d": 140.18675000000076,
      "v": 127
    },
    {
      "midi": 70,
      "hit": false,
      "t": 32102.765750000108,
      "d": 140.18675000000076,
      "v": 127
    },
    {
      "midi": 43,
      "hit": false,
      "t": 32242.952500000065,
      "d": 280.3735000000015,
      "v": 127
    },
    {
      "midi": 65,
      "hit": false,
      "t": 32242.95250000011,
      "d": 140.18675000000076,
      "v": 127
    },
    {
      "midi": 67,
      "hit": false,
      "t": 32242.95250000011,
      "d": 140.18675000000076,
      "v": 127
    },
    {
      "midi": 62,
      "hit": false,
      "t": 32383.13925000011,
      "d": 140.18675000000076,
      "v": 127
    },
    {
      "midi": 63,
      "hit": false,
      "t": 32383.13925000011,
      "d": 140.18675000000076,
      "v": 127
    },
    {
      "midi": 36,
      "hit": false,
      "t": 32523.326000000066,
      "d": 560.747000000003,
      "v": 127
    },
    {
      "midi": 63,
      "hit": false,
      "t": 32523.32600000011,
      "d": 140.18675000000076,
      "v": 127
    },
    {
      "midi": 67,
      "hit": false,
      "t": 32523.32600000011,
      "d": 140.18675000000076,
      "v": 127
    },
    {
      "midi": 63,
      "hit": false,
      "t": 32663.51275000011,
      "d": 140.18675000000076,
      "v": 127
    },
    {
      "midi": 65,
      "hit": false,
      "t": 32663.51275000011,
      "d": 140.18675000000076,
      "v": 127
    },
    {
      "midi": 63,
      "hit": false,
      "t": 32803.69950000011,
      "d": 140.18675000000076,
      "v": 127
    },
    {
      "midi": 65,
      "hit": false,
      "t": 32803.69950000011,
      "d": 140.18675000000076,
      "v": 127
    },
    {
      "midi": 62,
      "hit": false,
      "t": 32943.88625000011,
      "d": 140.18675000000076,
      "v": 127
    },
    {
      "midi": 63,
      "hit": false,
      "t": 32943.88625000011,
      "d": 140.18675000000076,
      "v": 127
    },
    {
      "midi": 62,
      "hit": false,
      "t": 33084.07300000011,
      "d": 280.3735000000015,
      "v": 127
    },
    {
      "midi": 38,
      "hit": false,
      "t": 33224.25975000007,
      "d": 140.18675000000076,
      "v": 127
    },
    {
      "midi": 39,
      "hit": false,
      "t": 33224.25975000007,
      "d": 140.18675000000076,
      "v": 127
    },
    {
      "midi": 41,
      "hit": false,
      "t": 33364.44650000007,
      "d": 140.18675000000076,
      "v": 127
    },
    {
      "midi": 43,
      "hit": false,
      "t": 33364.44650000007,
      "d": 140.18675000000076,
      "v": 127
    },
    {
      "midi": 60,
      "hit": false,
      "t": 33364.446500000115,
      "d": 280.3735000000015,
      "v": 127
    },
    {
      "midi": 45,
      "hit": false,
      "t": 33504.63325000007,
      "d": 140.18675000000076,
      "v": 127
    },
    {
      "midi": 47,
      "hit": false,
      "t": 33504.63325000007,
      "d": 140.18675000000076,
      "v": 127
    },
    {
      "midi": 48,
      "hit": false,
      "t": 33644.82000000007,
      "d": 280.3735000000015,
      "v": 127
    },
    {
      "midi": 60,
      "hit": false,
      "t": 33925.193500000074,
      "d": 280.3735000000015,
      "v": 127
    },
    {
      "midi": 67,
      "hit": false,
      "t": 33925.19350000012,
      "d": 280.3735000000015,
      "v": 127
    },
    {
      "midi": 58,
      "hit": false,
      "t": 34205.567000000075,
      "d": 280.3735000000015,
      "v": 127
    },
    {
      "midi": 68,
      "hit": false,
      "t": 34205.56700000012,
      "d": 140.18675000000076,
      "v": 127
    },
    {
      "midi": 65,
      "hit": false,
      "t": 34345.75375000012,
      "d": 140.18675000000076,
      "v": 127
    },
    {
      "midi": 67,
      "hit": false,
      "t": 34345.75375000012,
      "d": 140.18675000000076,
      "v": 127
    },
    {
      "midi": 56,
      "hit": false,
      "t": 34485.94050000008,
      "d": 280.3735000000015,
      "v": 127
    },
    {
      "midi": 67,
      "hit": false,
      "t": 34485.94050000012,
      "d": 140.18675000000076,
      "v": 127
    },
    {
      "midi": 68,
      "hit": false,
      "t": 34626.12725000012,
      "d": 140.18675000000076,
      "v": 127
    },
    {
      "midi": 55,
      "hit": false,
      "t": 34766.31400000008,
      "d": 280.3735000000015,
      "v": 127
    },
    {
      "midi": 70,
      "hit": false,
      "t": 34766.31400000012,
      "d": 140.18675000000076,
      "v": 127
    },
    {
      "midi": 74,
      "hit": false,
      "t": 34906.50075000012,
      "d": 140.18675000000076,
      "v": 127
    },
    {
      "midi": 58,
      "hit": false,
      "t": 35046.68750000008,
      "d": 280.3735000000015,
      "v": 127
    },
    {
      "midi": 75,
      "hit": false,
      "t": 35046.687500000124,
      "d": 280.3735000000015,
      "v": 127
    },
    {
      "midi": 55,
      "hit": false,
      "t": 35327.06100000008,
      "d": 280.3735000000015,
      "v": 127
    },
    {
      "midi": 70,
      "hit": false,
      "t": 35327.061000000125,
      "d": 140.18675000000076,
      "v": 127
    },
    {
      "midi": 75,
      "hit": false,
      "t": 35467.247750000126,
      "d": 140.18675000000076,
      "v": 127
    },
    {
      "midi": 77,
      "hit": false,
      "t": 35467.247750000126,
      "d": 140.18675000000076,
      "v": 127
    },
    {
      "midi": 51,
      "hit": false,
      "t": 35607.43450000008,
      "d": 280.3735000000015,
      "v": 127
    },
    {
      "midi": 79,
      "hit": false,
      "t": 35607.43450000013,
      "d": 140.18675000000076,
      "v": 127
    },
    {
      "midi": 75,
      "hit": false,
      "t": 35747.62125000013,
      "d": 140.18675000000076,
      "v": 127
    },
    {
      "midi": 56,
      "hit": false,
      "t": 35887.808000000085,
      "d": 280.3735000000015,
      "v": 127
    },
    {
      "midi": 73,
      "hit": false,
      "t": 35887.80800000013,
      "d": 140.18675000000076,
      "v": 127
    },
    {
      "midi": 72,
      "hit": false,
      "t": 36027.99475000013,
      "d": 140.18675000000076,
      "v": 127
    },
    {
      "midi": 60,
      "hit": false,
      "t": 36168.181500000086,
      "d": 280.3735000000015,
      "v": 127
    },
    {
      "midi": 77,
      "hit": false,
      "t": 36168.18150000013,
      "d": 280.3735000000015,
      "v": 127
    },
    {
      "midi": 56,
      "hit": false,
      "t": 36448.55500000009,
      "d": 280.3735000000015,
      "v": 127
    },
    {
      "midi": 72,
      "hit": false,
      "t": 36448.55500000013,
      "d": 140.18675000000076,
      "v": 127
    },
    {
      "midi": 77,
      "hit": false,
      "t": 36588.74175000013,
      "d": 140.18675000000076,
      "v": 127
    },
    {
      "midi": 79,
      "hit": false,
      "t": 36588.74175000013,
      "d": 140.18675000000076,
      "v": 127
    },
    {
      "midi": 53,
      "hit": false,
      "t": 36728.92850000009,
      "d": 280.3735000000015,
      "v": 127
    },
    {
      "midi": 80,
      "hit": false,
      "t": 36728.92850000013,
      "d": 140.18675000000076,
      "v": 127
    },
    {
      "midi": 77,
      "hit": false,
      "t": 36869.11525000013,
      "d": 140.18675000000076,
      "v": 127
    },
    {
      "midi": 58,
      "hit": false,
      "t": 37009.30200000009,
      "d": 280.3735000000015,
      "v": 127
    },
    {
      "midi": 75,
      "hit": false,
      "t": 37009.302000000134,
      "d": 140.18675000000076,
      "v": 127
    },
    {
      "midi": 72,
      "hit": false,
      "t": 37149.488750000135,
      "d": 140.18675000000076,
      "v": 127
    },
    {
      "midi": 56,
      "hit": false,
      "t": 37289.67550000009,
      "d": 280.3735000000015,
      "v": 127
    },
    {
      "midi": 74,
      "hit": false,
      "t": 37289.675500000136,
      "d": 280.3735000000015,
      "v": 127
    },
    {
      "midi": 55,
      "hit": false,
      "t": 37570.049000000094,
      "d": 280.3735000000015,
      "v": 127
    },
    {
      "midi": 77,
      "hit": false,
      "t": 37570.04900000014,
      "d": 140.18675000000076,
      "v": 127
    },
    {
      "midi": 79,
      "hit": false,
      "t": 37710.23575000014,
      "d": 140.18675000000076,
      "v": 127
    },
    {
      "midi": 80,
      "hit": false,
      "t": 37710.23575000014,
      "d": 140.18675000000076,
      "v": 127
    },
    {
      "midi": 53,
      "hit": false,
      "t": 37850.422500000095,
      "d": 280.3735000000015,
      "v": 127
    },
    {
      "midi": 80,
      "hit": false,
      "t": 37850.42250000014,
      "d": 140.18675000000076,
      "v": 127
    },
    {
      "midi": 82,
      "hit": false,
      "t": 37850.42250000014,
      "d": 140.18675000000076,
      "v": 127
    },
    {
      "midi": 79,
      "hit": false,
      "t": 37990.60925000014,
      "d": 140.18675000000076,
      "v": 127
    },
    {
      "midi": 80,
      "hit": false,
      "t": 37990.60925000014,
      "d": 140.18675000000076,
      "v": 127
    },
    {
      "midi": 52,
      "hit": false,
      "t": 38130.7960000001,
      "d": 280.3735000000015,
      "v": 127
    },
    {
      "midi": 80,
      "hit": false,
      "t": 38130.79600000014,
      "d": 140.18675000000076,
      "v": 127
    },
    {
      "midi": 82,
      "hit": false,
      "t": 38130.79600000014,
      "d": 140.18675000000076,
      "v": 127
    },
    {
      "midi": 79,
      "hit": false,
      "t": 38270.98275000014,
      "d": 140.18675000000076,
      "v": 127
    },
    {
      "midi": 55,
      "hit": false,
      "t": 38411.1695000001,
      "d": 280.3735000000015,
      "v": 127
    },
    {
      "midi": 77,
      "hit": false,
      "t": 38411.16950000014,
      "d": 140.18675000000076,
      "v": 127
    },
    {
      "midi": 76,
      "hit": false,
      "t": 38551.35625000014,
      "d": 140.18675000000076,
      "v": 127
    },
    {
      "midi": 60,
      "hit": false,
      "t": 38691.5430000001,
      "d": 280.3735000000015,
      "v": 127
    },
    {
      "midi": 74,
      "hit": false,
      "t": 38691.54300000014,
      "d": 140.18675000000076,
      "v": 127
    },
    {
      "midi": 72,
      "hit": false,
      "t": 38831.729750000144,
      "d": 140.18675000000076,
      "v": 127
    },
    {
      "midi": 52,
      "hit": false,
      "t": 38971.9165000001,
      "d": 280.3735000000015,
      "v": 127
    },
    {
      "midi": 79,
      "hit": false,
      "t": 38971.916500000145,
      "d": 140.18675000000076,
      "v": 127
    },
    {
      "midi": 80,
      "hit": false,
      "t": 39112.103250000146,
      "d": 140.18675000000076,
      "v": 127
    },
    {
      "midi": 82,
      "hit": false,
      "t": 39112.103250000146,
      "d": 140.18675000000076,
      "v": 127
    },
    {
      "midi": 53,
      "hit": false,
      "t": 39252.2900000001,
      "d": 280.3735000000015,
      "v": 127
    },
    {
      "midi": 79,
      "hit": false,
      "t": 39252.29000000015,
      "d": 140.18675000000076,
      "v": 127
    },
    {
      "midi": 80,
      "hit": false,
      "t": 39252.29000000015,
      "d": 140.18675000000076,
      "v": 127
    },
    {
      "midi": 77,
      "hit": false,
      "t": 39392.47675000015,
      "d": 140.18675000000076,
      "v": 127
    },
    {
      "midi": 56,
      "hit": false,
      "t": 39532.663500000104,
      "d": 280.3735000000015,
      "v": 127
    },
    {
      "midi": 75,
      "hit": false,
      "t": 39532.66350000015,
      "d": 140.18675000000076,
      "v": 127
    },
    {
      "midi": 73,
      "hit": false,
      "t": 39672.85025000015,
      "d": 140.18675000000076,
      "v": 127
    },
    {
      "midi": 53,
      "hit": false,
      "t": 39813.037000000106,
      "d": 280.3735000000015,
      "v": 127
    },
    {
      "midi": 72,
      "hit": false,
      "t": 39813.03700000015,
      "d": 140.18675000000076,
      "v": 127
    },
    {
      "midi": 70,
      "hit": false,
      "t": 39953.22375000015,
      "d": 140.18675000000076,
      "v": 127
    },
    {
      "midi": 49,
      "hit": false,
      "t": 40093.41050000011,
      "d": 280.3735000000015,
      "v": 127
    },
    {
      "midi": 77,
      "hit": false,
      "t": 40093.41050000015,
      "d": 140.18675000000076,
      "v": 127
    },
    {
      "midi": 79,
      "hit": false,
      "t": 40233.59725000015,
      "d": 140.18675000000076,
      "v": 127
    },
    {
      "midi": 80,
      "hit": false,
      "t": 40233.59725000015,
      "d": 140.18675000000076,
      "v": 127
    },
    {
      "midi": 46,
      "hit": false,
      "t": 40373.78400000011,
      "d": 280.3735000000015,
      "v": 127
    },
    {
      "midi": 77,
      "hit": false,
      "t": 40373.78400000015,
      "d": 140.18675000000076,
      "v": 127
    },
    {
      "midi": 79,
      "hit": false,
      "t": 40373.78400000015,
      "d": 140.18675000000076,
      "v": 127
    },
    {
      "midi": 76,
      "hit": false,
      "t": 40513.97075000015,
      "d": 140.18675000000076,
      "v": 127
    },
    {
      "midi": 77,
      "hit": false,
      "t": 40513.97075000015,
      "d": 140.18675000000076,
      "v": 127
    },
    {
      "midi": 43,
      "hit": false,
      "t": 40654.15750000011,
      "d": 280.3735000000015,
      "v": 127
    },
    {
      "midi": 77,
      "hit": false,
      "t": 40654.157500000154,
      "d": 140.18675000000076,
      "v": 127
    },
    {
      "midi": 82,
      "hit": false,
      "t": 40654.157500000154,
      "d": 140.18675000000076,
      "v": 127
    },
    {
      "midi": 76,
      "hit": false,
      "t": 40794.344250000155,
      "d": 140.18675000000076,
      "v": 127
    },
    {
      "midi": 77,
      "hit": false,
      "t": 40794.344250000155,
      "d": 140.18675000000076,
      "v": 127
    },
    {
      "midi": 48,
      "hit": false,
      "t": 40934.53100000011,
      "d": 280.3735000000015,
      "v": 127
    },
    {
      "midi": 77,
      "hit": false,
      "t": 40934.531000000155,
      "d": 140.18675000000076,
      "v": 127
    },
    {
      "midi": 80,
      "hit": false,
      "t": 40934.531000000155,
      "d": 140.18675000000076,
      "v": 127
    },
    {
      "midi": 76,
      "hit": false,
      "t": 41074.717750000156,
      "d": 140.18675000000076,
      "v": 127
    },
    {
      "midi": 77,
      "hit": false,
      "t": 41074.717750000156,
      "d": 140.18675000000076,
      "v": 127
    },
    {
      "midi": 36,
      "hit": false,
      "t": 41214.90450000011,
      "d": 280.3735000000015,
      "v": 127
    },
    {
      "midi": 77,
      "hit": false,
      "t": 41214.90450000016,
      "d": 140.18675000000076,
      "v": 127
    },
    {
      "midi": 79,
      "hit": false,
      "t": 41214.90450000016,
      "d": 140.18675000000076,
      "v": 127
    },
    {
      "midi": 76,
      "hit": false,
      "t": 41355.09125000016,
      "d": 140.18675000000076,
      "v": 127
    },
    {
      "midi": 77,
      "hit": false,
      "t": 41355.09125000016,
      "d": 140.18675000000076,
      "v": 127
    },
    {
      "midi": 41,
      "hit": false,
      "t": 41495.278000000115,
      "d": 140.18675000000076,
      "v": 127
    },
    {
      "midi": 77,
      "hit": false,
      "t": 41495.27800000016,
      "d": 560.747000000003,
      "v": 127
    },
    {
      "midi": 43,
      "hit": false,
      "t": 41635.464750000116,
      "d": 140.18675000000076,
      "v": 127
    },
    {
      "midi": 44,
      "hit": false,
      "t": 41635.464750000116,
      "d": 140.18675000000076,
      "v": 127
    },
    {
      "midi": 46,
      "hit": false,
      "t": 41775.651500000116,
      "d": 140.18675000000076,
      "v": 127
    },
    {
      "midi": 48,
      "hit": false,
      "t": 41775.651500000116,
      "d": 140.18675000000076,
      "v": 127
    },
    {
      "midi": 50,
      "hit": false,
      "t": 41915.83825000012,
      "d": 140.18675000000076,
      "v": 127
    },
    {
      "midi": 52,
      "hit": false,
      "t": 41915.83825000012,
      "d": 140.18675000000076,
      "v": 127
    },
    {
      "midi": 53,
      "hit": false,
      "t": 42056.02500000012,
      "d": 280.3735000000015,
      "v": 127
    },
    {
      "midi": 75,
      "hit": false,
      "t": 42056.02500000016,
      "d": 140.18675000000076,
      "v": 127
    },
    {
      "midi": 74,
      "hit": false,
      "t": 42196.21175000016,
      "d": 140.18675000000076,
      "v": 127
    },
    {
      "midi": 75,
      "hit": false,
      "t": 42196.21175000016,
      "d": 140.18675000000076,
      "v": 127
    },
    {
      "midi": 51,
      "hit": false,
      "t": 42336.39850000012,
      "d": 280.3735000000015,
      "v": 127
    },
    {
      "midi": 74,
      "hit": false,
      "t": 42336.39850000016,
      "d": 140.18675000000076,
      "v": 127
    },
    {
      "midi": 77,
      "hit": false,
      "t": 42336.39850000016,
      "d": 140.18675000000076,
      "v": 127
    },
    {
      "midi": 75,
      "hit": false,
      "t": 42476.585250000164,
      "d": 140.18675000000076,
      "v": 127
    },
    {
      "midi": 77,
      "hit": false,
      "t": 42476.585250000164,
      "d": 140.18675000000076,
      "v": 127
    },
    {
      "midi": 50,
      "hit": false,
      "t": 42616.77200000012,
      "d": 280.3735000000015,
      "v": 127
    },
    {
      "midi": 70,
      "hit": false,
      "t": 42616.772000000165,
      "d": 140.18675000000076,
      "v": 127
    },
    {
      "midi": 74,
      "hit": false,
      "t": 42616.772000000165,
      "d": 140.18675000000076,
      "v": 127
    },
    {
      "midi": 77,
      "hit": false,
      "t": 42756.958750000165,
      "d": 140.18675000000076,
      "v": 127
    },
    {
      "midi": 79,
      "hit": false,
      "t": 42756.958750000165,
      "d": 140.18675000000076,
      "v": 127
    },
    {
      "midi": 53,
      "hit": false,
      "t": 42897.14550000012,
      "d": 280.3735000000015,
      "v": 127
    },
    {
      "midi": 80,
      "hit": false,
      "t": 42897.145500000166,
      "d": 280.3735000000015,
      "v": 127
    },
    {
      "midi": 50,
      "hit": false,
      "t": 43177.519000000124,
      "d": 280.3735000000015,
      "v": 127
    },
    {
      "midi": 79,
      "hit": false,
      "t": 43177.51900000017,
      "d": 140.18675000000076,
      "v": 127
    },
    {
      "midi": 77,
      "hit": false,
      "t": 43317.70575000017,
      "d": 140.18675000000076,
      "v": 127
    },
    {
      "midi": 80,
      "hit": false,
      "t": 43317.70575000017,
      "d": 140.18675000000076,
      "v": 127
    },
    {
      "midi": 46,
      "hit": false,
      "t": 43457.892500000125,
      "d": 280.3735000000015,
      "v": 127
    },
    {
      "midi": 77,
      "hit": false,
      "t": 43457.89250000017,
      "d": 140.18675000000076,
      "v": 127
    },
    {
      "midi": 79,
      "hit": false,
      "t": 43457.89250000017,
      "d": 140.18675000000076,
      "v": 127
    },
    {
      "midi": 74,
      "hit": false,
      "t": 43598.07925000017,
      "d": 140.18675000000076,
      "v": 127
    },
    {
      "midi": 75,
      "hit": false,
      "t": 43598.07925000017,
      "d": 140.18675000000076,
      "v": 127
    },
    {
      "midi": 55,
      "hit": false,
      "t": 43738.26600000013,
      "d": 280.3735000000015,
      "v": 127
    },
    {
      "midi": 70,
      "hit": false,
      "t": 43738.26600000017,
      "d": 140.18675000000076,
      "v": 127
    },
    {
      "midi": 75,
      "hit": false,
      "t": 43738.26600000017,
      "d": 140.18675000000076,
      "v": 127
    },
    {
      "midi": 75,
      "hit": false,
      "t": 43878.45275000017,
      "d": 140.18675000000076,
      "v": 127
    },
    {
      "midi": 77,
      "hit": false,
      "t": 43878.45275000017,
      "d": 140.18675000000076,
      "v": 127
    },
    {
      "midi": 58,
      "hit": false,
      "t": 44018.63950000013,
      "d": 280.3735000000015,
      "v": 127
    },
    {
      "midi": 79,
      "hit": false,
      "t": 44018.63950000017,
      "d": 280.3735000000015,
      "v": 127
    },
    {
      "midi": 51,
      "hit": false,
      "t": 44299.01300000013,
      "d": 280.3735000000015,
      "v": 127
    },
    {
      "midi": 77,
      "hit": false,
      "t": 44299.01300000017,
      "d": 140.18675000000076,
      "v": 127
    },
    {
      "midi": 75,
      "hit": false,
      "t": 44439.199750000174,
      "d": 140.18675000000076,
      "v": 127
    },
    {
      "midi": 79,
      "hit": false,
      "t": 44439.199750000174,
      "d": 140.18675000000076,
      "v": 127
    },
    {
      "midi": 55,
      "hit": false,
      "t": 44579.38650000013,
      "d": 280.3735000000015,
      "v": 127
    },
    {
      "midi": 75,
      "hit": false,
      "t": 44579.386500000175,
      "d": 140.18675000000076,
      "v": 127
    },
    {
      "midi": 77,
      "hit": false,
      "t": 44579.386500000175,
      "d": 140.18675000000076,
      "v": 127
    },
    {
      "midi": 72,
      "hit": false,
      "t": 44719.573250000176,
      "d": 140.18675000000076,
      "v": 127
    },
    {
      "midi": 74,
      "hit": false,
      "t": 44719.573250000176,
      "d": 140.18675000000076,
      "v": 127
    },
    {
      "midi": 45,
      "hit": false,
      "t": 44859.76000000013,
      "d": 280.3735000000015,
      "v": 127
    },
    {
      "midi": 81,
      "hit": false,
      "t": 44859.76000000018,
      "d": 140.18675000000076,
      "v": 127
    },
    {
      "midi": 82,
      "hit": false,
      "t": 44859.76000000018,
      "d": 140.18675000000076,
      "v": 127
    },
    {
      "midi": 78,
      "hit": false,
      "t": 44999.94675000018,
      "d": 140.18675000000076,
      "v": 127
    },
    {
      "midi": 79,
      "hit": false,
      "t": 44999.94675000018,
      "d": 140.18675000000076,
      "v": 127
    },
    {
      "midi": 54,
      "hit": false,
      "t": 45140.133500000135,
      "d": 280.3735000000015,
      "v": 127
    },
    {
      "midi": 75,
      "hit": false,
      "t": 45140.13350000018,
      "d": 140.18675000000076,
      "v": 127
    },
    {
      "midi": 74,
      "hit": false,
      "t": 45280.32025000018,
      "d": 140.18675000000076,
      "v": 127
    },
    {
      "midi": 55,
      "hit": false,
      "t": 45420.507000000136,
      "d": 280.3735000000015,
      "v": 127
    },
    {
      "midi": 79,
      "hit": false,
      "t": 45420.50700000018,
      "d": 140.18675000000076,
      "v": 127
    },
    {
      "midi": 80,
      "hit": false,
      "t": 45560.69375000018,
      "d": 140.18675000000076,
      "v": 127
    },
    {
      "midi": 84,
      "hit": false,
      "t": 45560.69375000018,
      "d": 140.18675000000076,
      "v": 127
    },
    {
      "midi": 43,
      "hit": false,
      "t": 45700.88050000014,
      "d": 280.3735000000015,
      "v": 127
    },
    {
      "midi": 73,
      "hit": false,
      "t": 45700.88050000018,
      "d": 140.18675000000076,
      "v": 127
    },
    {
      "midi": 74,
      "hit": false,
      "t": 45841.06725000018,
      "d": 140.18675000000076,
      "v": 127
    },
    {
      "midi": 50,
      "hit": false,
      "t": 45981.25400000014,
      "d": 280.3735000000015,
      "v": 127
    },
    {
      "midi": 78,
      "hit": false,
      "t": 45981.25400000018,
      "d": 140.18675000000076,
      "v": 127
    },
    {
      "midi": 79,
      "hit": false,
      "t": 46121.44075000018,
      "d": 140.18675000000076,
      "v": 127
    },
    {
      "midi": 81,
      "hit": false,
      "t": 46121.44075000018,
      "d": 140.18675000000076,
      "v": 127
    },
    {
      "midi": 57,
      "hit": false,
      "t": 46261.62750000014,
      "d": 280.3735000000015,
      "v": 127
    },
    {
      "midi": 73,
      "hit": false,
      "t": 46261.627500000184,
      "d": 140.18675000000076,
      "v": 127
    },
    {
      "midi": 75,
      "hit": false,
      "t": 46261.627500000184,
      "d": 140.18675000000076,
      "v": 127
    },
    {
      "midi": 73,
      "hit": false,
      "t": 46401.814250000185,
      "d": 140.18675000000076,
      "v": 127
    },
    {
      "midi": 74,
      "hit": false,
      "t": 46401.814250000185,
      "d": 140.18675000000076,
      "v": 127
    },
    {
      "midi": 60,
      "hit": false,
      "t": 46542.00100000014,
      "d": 280.3735000000015,
      "v": 127
    },
    {
      "midi": 74,
      "hit": false,
      "t": 46542.001000000186,
      "d": 140.18675000000076,
      "v": 127
    },
    {
      "midi": 78,
      "hit": false,
      "t": 46542.001000000186,
      "d": 140.18675000000076,
      "v": 127
    },
    {
      "midi": 76,
      "hit": false,
      "t": 46682.18775000019,
      "d": 140.18675000000076,
      "v": 127
    },
    {
      "midi": 78,
      "hit": false,
      "t": 46682.18775000019,
      "d": 140.18675000000076,
      "v": 127
    },
    {
      "midi": 50,
      "hit": false,
      "t": 46822.37450000014,
      "d": 280.3735000000015,
      "v": 127
    },
    {
      "midi": 79,
      "hit": false,
      "t": 46822.37450000019,
      "d": 140.18675000000076,
      "v": 127
    },
    {
      "midi": 81,
      "hit": false,
      "t": 46822.37450000019,
      "d": 140.18675000000076,
      "v": 127
    },
    {
      "midi": 82,
      "hit": false,
      "t": 46962.56125000019,
      "d": 140.18675000000076,
      "v": 127
    },
    {
      "midi": 84,
      "hit": false,
      "t": 46962.56125000019,
      "d": 140.18675000000076,
      "v": 127
    },
    {
      "midi": 55,
      "hit": false,
      "t": 47102.748000000145,
      "d": 280.3735000000015,
      "v": 127
    },
    {
      "midi": 81,
      "hit": false,
      "t": 47102.74800000019,
      "d": 140.18675000000076,
      "v": 127
    },
    {
      "midi": 82,
      "hit": false,
      "t": 47102.74800000019,
      "d": 140.18675000000076,
      "v": 127
    },
    {
      "midi": 78,
      "hit": false,
      "t": 47242.93475000019,
      "d": 210.2801249999975,
      "v": 127
    },
    {
      "midi": 79,
      "hit": false,
      "t": 47242.93475000019,
      "d": 210.2801249999975,
      "v": 127
    },
    {
      "midi": 57,
      "hit": false,
      "t": 47383.12150000015,
      "d": 280.3735000000015,
      "v": 127
    },
    {
      "midi": 79,
      "hit": false,
      "t": 47523.308250000184,
      "d": 280.3735000000015,
      "v": 127
    },
    {
      "midi": 58,
      "hit": false,
      "t": 47663.49500000015,
      "d": 280.3735000000015,
      "v": 127
    },
    {
      "midi": 74,
      "hit": false,
      "t": 47803.681750000185,
      "d": 280.3735000000015,
      "v": 127
    },
    {
      "midi": 59,
      "hit": false,
      "t": 47943.86850000015,
      "d": 280.3735000000015,
      "v": 127
    },
    {
      "midi": 75,
      "hit": false,
      "t": 48084.05525000019,
      "d": 280.3735000000015,
      "v": 127
    },
    {
      "midi": 60,
      "hit": false,
      "t": 48224.24200000015,
      "d": 280.3735000000015,
      "v": 127
    },
    {
      "midi": 71,
      "hit": false,
      "t": 48364.42875000019,
      "d": 280.3735000000015,
      "v": 127
    },
    {
      "midi": 62,
      "hit": false,
      "t": 48504.61550000015,
      "d": 280.3735000000015,
      "v": 127
    },
    {
      "midi": 72,
      "hit": false,
      "t": 48644.80225000019,
      "d": 140.18675000000076,
      "v": 127
    },
    {
      "midi": 63,
      "hit": false,
      "t": 48784.989000000154,
      "d": 280.3735000000015,
      "v": 127
    },
    {
      "midi": 70,
      "hit": false,
      "t": 48784.98900000019,
      "d": 140.18675000000076,
      "v": 127
    },
    {
      "midi": 67,
      "hit": false,
      "t": 48925.17575000019,
      "d": 140.18675000000076,
      "v": 127
    },
    {
      "midi": 68,
      "hit": false,
      "t": 48925.17575000019,
      "d": 140.18675000000076,
      "v": 127
    },
    {
      "midi": 60,
      "hit": false,
      "t": 49065.362500000156,
      "d": 280.3735000000015,
      "v": 127
    },
    {
      "midi": 68,
      "hit": false,
      "t": 49065.36250000019,
      "d": 140.18675000000076,
      "v": 127
    },
    {
      "midi": 72,
      "hit": false,
      "t": 49205.54925000019,
      "d": 140.18675000000076,
      "v": 127
    },
    {
      "midi": 57,
      "hit": false,
      "t": 49345.73600000016,
      "d": 280.3735000000015,
      "v": 127
    },
    {
      "midi": 66,
      "hit": false,
      "t": 49345.73600000019,
      "d": 140.18675000000076,
      "v": 127
    },
    {
      "midi": 75,
      "hit": false,
      "t": 49345.73600000019,
      "d": 140.18675000000076,
      "v": 127
    },
    {
      "midi": 72,
      "hit": false,
      "t": 49485.922750000194,
      "d": 140.18675000000076,
      "v": 127
    },
    {
      "midi": 74,
      "hit": false,
      "t": 49485.922750000194,
      "d": 140.18675000000076,
      "v": 127
    },
    {
      "midi": 55,
      "hit": false,
      "t": 49626.10950000016,
      "d": 280.3735000000015,
      "v": 127
    },
    {
      "midi": 82,
      "hit": false,
      "t": 49626.109500000195,
      "d": 140.18675000000076,
      "v": 127
    },
    {
      "midi": 81,
      "hit": false,
      "t": 49766.296250000196,
      "d": 140.18675000000076,
      "v": 127
    },
    {
      "midi": 62,
      "hit": false,
      "t": 49906.48300000016,
      "d": 280.3735000000015,
      "v": 127
    },
    {
      "midi": 79,
      "hit": false,
      "t": 49906.4830000002,
      "d": 280.3735000000015,
      "v": 127
    },
    {
      "midi": 50,
      "hit": false,
      "t": 50186.85650000016,
      "d": 280.3735000000015,
      "v": 127
    },
    {
      "midi": 78,
      "hit": false,
      "t": 50186.8565000002,
      "d": 140.18675000000076,
      "v": 127
    },
    {
      "midi": 79,
      "hit": false,
      "t": 50327.0432500002,
      "d": 140.18675000000076,
      "v": 127
    },
    {
      "midi": 55,
      "hit": false,
      "t": 50467.23000000016,
      "d": 280.3735000000015,
      "v": 127
    },
    {
      "midi": 79,
      "hit": false,
      "t": 50467.2300000002,
      "d": 560.747000000003,
      "v": 127
    },
    {
      "midi": 57,
      "hit": false,
      "t": 50747.603500000165,
      "d": 280.3735000000015,
      "v": 127
    },
    {
      "midi": 59,
      "hit": false,
      "t": 51027.977000000166,
      "d": 280.3735000000015,
      "v": 127
    },
    {
      "midi": 77,
      "hit": false,
      "t": 51027.9770000002,
      "d": 140.18675000000076,
      "v": 127
    },
    {
      "midi": 79,
      "hit": false,
      "t": 51168.1637500002,
      "d": 140.18675000000076,
      "v": 127
    },
    {
      "midi": 80,
      "hit": false,
      "t": 51168.1637500002,
      "d": 140.18675000000076,
      "v": 127
    },
    {
      "midi": 55,
      "hit": false,
      "t": 51308.35050000017,
      "d": 280.3735000000015,
      "v": 127
    },
    {
      "midi": 77,
      "hit": false,
      "t": 51308.350500000204,
      "d": 140.18675000000076,
      "v": 127
    },
    {
      "midi": 79,
      "hit": false,
      "t": 51308.350500000204,
      "d": 140.18675000000076,
      "v": 127
    },
    {
      "midi": 74,
      "hit": false,
      "t": 51448.537250000205,
      "d": 140.18675000000076,
      "v": 127
    },
    {
      "midi": 75,
      "hit": false,
      "t": 51448.537250000205,
      "d": 140.18675000000076,
      "v": 127
    },
    {
      "midi": 60,
      "hit": false,
      "t": 51588.72400000017,
      "d": 280.3735000000015,
      "v": 127
    },
    {
      "midi": 75,
      "hit": false,
      "t": 51588.724000000206,
      "d": 140.18675000000076,
      "v": 127
    },
    {
      "midi": 77,
      "hit": false,
      "t": 51588.724000000206,
      "d": 140.18675000000076,
      "v": 127
    },
    {
      "midi": 72,
      "hit": false,
      "t": 51728.91075000021,
      "d": 140.18675000000076,
      "v": 127
    },
    {
      "midi": 74,
      "hit": false,
      "t": 51728.91075000021,
      "d": 140.18675000000076,
      "v": 127
    },
    {
      "midi": 63,
      "hit": false,
      "t": 51869.09750000017,
      "d": 280.3735000000015,
      "v": 127
    },
    {
      "midi": 79,
      "hit": false,
      "t": 51869.09750000021,
      "d": 280.3735000000015,
      "v": 127
    },
    {
      "midi": 60,
      "hit": false,
      "t": 52149.47100000017,
      "d": 280.3735000000015,
      "v": 127
    },
    {
      "midi": 75,
      "hit": false,
      "t": 52149.47100000021,
      "d": 140.18675000000076,
      "v": 127
    },
    {
      "midi": 77,
      "hit": false,
      "t": 52289.65775000021,
      "d": 140.18675000000076,
      "v": 127
    },
    {
      "midi": 79,
      "hit": false,
      "t": 52289.65775000021,
      "d": 140.18675000000076,
      "v": 127
    },
    {
      "midi": 57,
      "hit": false,
      "t": 52429.844500000174,
      "d": 280.3735000000015,
      "v": 127
    },
    {
      "midi": 75,
      "hit": false,
      "t": 52429.84450000021,
      "d": 140.18675000000076,
      "v": 127
    },
    {
      "midi": 77,
      "hit": false,
      "t": 52429.84450000021,
      "d": 140.18675000000076,
      "v": 127
    },
    {
      "midi": 72,
      "hit": false,
      "t": 52570.03125000021,
      "d": 140.18675000000076,
      "v": 127
    },
    {
      "midi": 74,
      "hit": false,
      "t": 52570.03125000021,
      "d": 140.18675000000076,
      "v": 127
    },
    {
      "midi": 58,
      "hit": false,
      "t": 52710.218000000175,
      "d": 280.3735000000015,
      "v": 127
    },
    {
      "midi": 74,
      "hit": false,
      "t": 52710.21800000021,
      "d": 140.18675000000076,
      "v": 127
    },
    {
      "midi": 75,
      "hit": false,
      "t": 52710.21800000021,
      "d": 140.18675000000076,
      "v": 127
    },
    {
      "midi": 70,
      "hit": false,
      "t": 52850.40475000021,
      "d": 140.18675000000076,
      "v": 127
    },
    {
      "midi": 72,
      "hit": false,
      "t": 52850.40475000021,
      "d": 140.18675000000076,
      "v": 127
    },
    {
      "midi": 62,
      "hit": false,
      "t": 52990.59150000018,
      "d": 280.3735000000015,
      "v": 127
    },
    {
      "midi": 79,
      "hit": false,
      "t": 52990.59150000021,
      "d": 280.3735000000015,
      "v": 127
    },
    {
      "midi": 58,
      "hit": false,
      "t": 53270.96500000018,
      "d": 280.3735000000015,
      "v": 127
    },
    {
      "midi": 74,
      "hit": false,
      "t": 53270.965000000215,
      "d": 140.18675000000076,
      "v": 127
    },
    {
      "midi": 75,
      "hit": false,
      "t": 53411.151750000216,
      "d": 140.18675000000076,
      "v": 127
    },
    {
      "midi": 77,
      "hit": false,
      "t": 53411.151750000216,
      "d": 140.18675000000076,
      "v": 127
    },
    {
      "midi": 55,
      "hit": false,
      "t": 53551.33850000018,
      "d": 280.3735000000015,
      "v": 127
    },
    {
      "midi": 74,
      "hit": false,
      "t": 53551.338500000216,
      "d": 140.18675000000076,
      "v": 127
    },
    {
      "midi": 75,
      "hit": false,
      "t": 53551.338500000216,
      "d": 140.18675000000076,
      "v": 127
    },
    {
      "midi": 70,
      "hit": false,
      "t": 53691.52525000022,
      "d": 140.18675000000076,
      "v": 127
    },
    {
      "midi": 72,
      "hit": false,
      "t": 53691.52525000022,
      "d": 140.18675000000076,
      "v": 127
    },
    {
      "midi": 57,
      "hit": false,
      "t": 53831.71200000018,
      "d": 280.3735000000015,
      "v": 127
    },
    {
      "midi": 72,
      "hit": false,
      "t": 53831.71200000022,
      "d": 140.18675000000076,
      "v": 127
    },
    {
      "midi": 74,
      "hit": false,
      "t": 53831.71200000022,
      "d": 140.18675000000076,
      "v": 127
    },
    {
      "midi": 68,
      "hit": false,
      "t": 53971.89875000022,
      "d": 140.18675000000076,
      "v": 127
    },
    {
      "midi": 70,
      "hit": false,
      "t": 53971.89875000022,
      "d": 140.18675000000076,
      "v": 127
    },
    {
      "midi": 60,
      "hit": false,
      "t": 54112.08550000018,
      "d": 280.3735000000015,
      "v": 127
    },
    {
      "midi": 79,
      "hit": false,
      "t": 54112.08550000022,
      "d": 280.3735000000015,
      "v": 127
    },
    {
      "midi": 57,
      "hit": false,
      "t": 54392.459000000184,
      "d": 280.3735000000015,
      "v": 127
    },
    {
      "midi": 72,
      "hit": false,
      "t": 54392.45900000022,
      "d": 140.18675000000076,
      "v": 127
    },
    {
      "midi": 74,
      "hit": false,
      "t": 54532.64575000022,
      "d": 140.18675000000076,
      "v": 127
    },
    {
      "midi": 75,
      "hit": false,
      "t": 54532.64575000022,
      "d": 140.18675000000076,
      "v": 127
    },
    {
      "midi": 54,
      "hit": false,
      "t": 54672.832500000186,
      "d": 280.3735000000015,
      "v": 127
    },
    {
      "midi": 72,
      "hit": false,
      "t": 54672.83250000022,
      "d": 140.18675000000076,
      "v": 127
    },
    {
      "midi": 74,
      "hit": false,
      "t": 54672.83250000022,
      "d": 140.18675000000076,
      "v": 127
    },
    {
      "midi": 68,
      "hit": false,
      "t": 54813.01925000022,
      "d": 140.18675000000076,
      "v": 127
    },
    {
      "midi": 70,
      "hit": false,
      "t": 54813.01925000022,
      "d": 140.18675000000076,
      "v": 127
    },
    {
      "midi": 55,
      "hit": false,
      "t": 54953.20600000019,
      "d": 280.3735000000015,
      "v": 127
    },
    {
      "midi": 70,
      "hit": false,
      "t": 54953.206000000224,
      "d": 140.18675000000076,
      "v": 127
    },
    {
      "midi": 72,
      "hit": false,
      "t": 54953.206000000224,
      "d": 140.18675000000076,
      "v": 127
    },
    {
      "midi": 67,
      "hit": false,
      "t": 55093.392750000225,
      "d": 140.18675000000076,
      "v": 127
    },
    {
      "midi": 69,
      "hit": false,
      "t": 55093.392750000225,
      "d": 140.18675000000076,
      "v": 127
    },
    {
      "midi": 58,
      "hit": false,
      "t": 55233.57950000019,
      "d": 280.3735000000015,
      "v": 127
    },
    {
      "midi": 79,
      "hit": false,
      "t": 55233.579500000225,
      "d": 280.3735000000015,
      "v": 127
    },
    {
      "midi": 55,
      "hit": false,
      "t": 55513.95300000019,
      "d": 280.3735000000015,
      "v": 127
    },
    {
      "midi": 70,
      "hit": false,
      "t": 55513.95300000023,
      "d": 140.18675000000076,
      "v": 127
    },
    {
      "midi": 72,
      "hit": false,
      "t": 55654.13975000023,
      "d": 140.18675000000076,
      "v": 127
    },
    {
      "midi": 74,
      "hit": false,
      "t": 55654.13975000023,
      "d": 140.18675000000076,
      "v": 127
    },
    {
      "midi": 51,
      "hit": false,
      "t": 55794.32650000019,
      "d": 280.3735000000015,
      "v": 127
    },
    {
      "midi": 70,
      "hit": false,
      "t": 55794.32650000023,
      "d": 140.18675000000076,
      "v": 127
    },
    {
      "midi": 72,
      "hit": false,
      "t": 55794.32650000023,
      "d": 140.18675000000076,
      "v": 127
    },
    {
      "midi": 67,
      "hit": false,
      "t": 55934.51325000023,
      "d": 140.18675000000076,
      "v": 127
    },
    {
      "midi": 69,
      "hit": false,
      "t": 55934.51325000023,
      "d": 140.18675000000076,
      "v": 127
    },
    {
      "midi": 48,
      "hit": false,
      "t": 56074.70000000019,
      "d": 140.18675000000076,
      "v": 127
    },
    {
      "midi": 68,
      "hit": false,
      "t": 56074.70000000023,
      "d": 560.747000000003,
      "v": 127
    },
    {
      "midi": 50,
      "hit": false,
      "t": 56214.886750000194,
      "d": 140.18675000000076,
      "v": 127
    },
    {
      "midi": 51,
      "hit": false,
      "t": 56214.886750000194,
      "d": 140.18675000000076,
      "v": 127
    },
    {
      "midi": 53,
      "hit": false,
      "t": 56355.073500000195,
      "d": 140.18675000000076,
      "v": 127
    },
    {
      "midi": 55,
      "hit": false,
      "t": 56355.073500000195,
      "d": 140.18675000000076,
      "v": 127
    },
    {
      "midi": 56,
      "hit": false,
      "t": 56495.260250000196,
      "d": 140.18675000000076,
      "v": 127
    },
    {
      "midi": 58,
      "hit": false,
      "t": 56495.260250000196,
      "d": 140.18675000000076,
      "v": 127
    },
    {
      "midi": 60,
      "hit": false,
      "t": 56635.4470000002,
      "d": 140.18675000000076,
      "v": 127
    },
    {
      "midi": 68,
      "hit": false,
      "t": 56635.44700000023,
      "d": 140.18675000000076,
      "v": 127
    },
    {
      "midi": 48,
      "hit": false,
      "t": 56775.6337500002,
      "d": 140.18675000000076,
      "v": 127
    },
    {
      "midi": 67,
      "hit": false,
      "t": 56775.633750000234,
      "d": 140.18675000000076,
      "v": 127
    },
    {
      "midi": 68,
      "hit": false,
      "t": 56775.633750000234,
      "d": 140.18675000000076,
      "v": 127
    },
    {
      "midi": 60,
      "hit": false,
      "t": 56915.8205000002,
      "d": 280.3735000000015,
      "v": 127
    },
    {
      "midi": 68,
      "hit": false,
      "t": 56915.820500000234,
      "d": 140.18675000000076,
      "v": 127
    },
    {
      "midi": 70,
      "hit": false,
      "t": 56915.820500000234,
      "d": 140.18675000000076,
      "v": 127
    },
    {
      "midi": 67,
      "hit": false,
      "t": 57056.007250000235,
      "d": 140.18675000000076,
      "v": 127
    },
    {
      "midi": 68,
      "hit": false,
      "t": 57056.007250000235,
      "d": 140.18675000000076,
      "v": 127
    },
    {
      "midi": 48,
      "hit": false,
      "t": 57196.1940000002,
      "d": 140.18675000000076,
      "v": 127
    },
    {
      "midi": 75,
      "hit": false,
      "t": 57196.194000000236,
      "d": 560.747000000003,
      "v": 127
    },
    {
      "midi": 50,
      "hit": false,
      "t": 57336.3807500002,
      "d": 140.18675000000076,
      "v": 127
    },
    {
      "midi": 51,
      "hit": false,
      "t": 57336.3807500002,
      "d": 140.18675000000076,
      "v": 127
    },
    {
      "midi": 53,
      "hit": false,
      "t": 57476.5675000002,
      "d": 140.18675000000076,
      "v": 127
    },
    {
      "midi": 55,
      "hit": false,
      "t": 57476.5675000002,
      "d": 140.18675000000076,
      "v": 127
    },
    {
      "midi": 56,
      "hit": false,
      "t": 57616.7542500002,
      "d": 140.18675000000076,
      "v": 127
    },
    {
      "midi": 58,
      "hit": false,
      "t": 57616.7542500002,
      "d": 140.18675000000076,
      "v": 127
    },
    {
      "midi": 60,
      "hit": false,
      "t": 57756.9410000002,
      "d": 140.18675000000076,
      "v": 127
    },
    {
      "midi": 72,
      "hit": false,
      "t": 57756.94100000024,
      "d": 140.18675000000076,
      "v": 127
    },
    {
      "midi": 48,
      "hit": false,
      "t": 57897.1277500002,
      "d": 140.18675000000076,
      "v": 127
    },
    {
      "midi": 71,
      "hit": false,
      "t": 57897.12775000024,
      "d": 140.18675000000076,
      "v": 127
    },
    {
      "midi": 72,
      "hit": false,
      "t": 57897.12775000024,
      "d": 140.18675000000076,
      "v": 127
    },
    {
      "midi": 60,
      "hit": false,
      "t": 58037.314500000204,
      "d": 280.3735000000015,
      "v": 127
    },
    {
      "midi": 72,
      "hit": false,
      "t": 58037.31450000024,
      "d": 140.18675000000076,
      "v": 127
    },
    {
      "midi": 74,
      "hit": false,
      "t": 58037.31450000024,
      "d": 140.18675000000076,
      "v": 127
    },
    {
      "midi": 71,
      "hit": false,
      "t": 58177.50125000024,
      "d": 140.18675000000076,
      "v": 127
    },
    {
      "midi": 72,
      "hit": false,
      "t": 58177.50125000024,
      "d": 140.18675000000076,
      "v": 127
    },
    {
      "midi": 78,
      "hit": false,
      "t": 58317.68800000024,
      "d": 140.18675000000076,
      "v": 127
    },
    {
      "midi": 75,
      "hit": false,
      "t": 58457.87475000024,
      "d": 280.3735000000015,
      "v": 127
    },
    {
      "midi": 48,
      "hit": false,
      "t": 58598.06150000021,
      "d": 280.3735000000015,
      "v": 127
    },
    {
      "midi": 74,
      "hit": false,
      "t": 58738.248250000244,
      "d": 140.18675000000076,
      "v": 127
    },
    {
      "midi": 46,
      "hit": false,
      "t": 58878.43500000021,
      "d": 280.3735000000015,
      "v": 127
    },
    {
      "midi": 79,
      "hit": false,
      "t": 58878.435000000245,
      "d": 140.18675000000076,
      "v": 127
    },
    {
      "midi": 74,
      "hit": false,
      "t": 59018.621750000246,
      "d": 280.3735000000015,
      "v": 127
    },
    {
      "midi": 58,
      "hit": false,
      "t": 59158.80850000021,
      "d": 280.3735000000015,
      "v": 127
    },
    {
      "midi": 72,
      "hit": false,
      "t": 59298.99525000025,
      "d": 140.18675000000076,
      "v": 127
    },
    {
      "midi": 54,
      "hit": false,
      "t": 59439.18200000021,
      "d": 280.3735000000015,
      "v": 127
    },
    {
      "midi": 81,
      "hit": false,
      "t": 59439.18200000025,
      "d": 140.18675000000076,
      "v": 127
    },
    {
      "midi": 72,
      "hit": false,
      "t": 59579.36875000025,
      "d": 280.3735000000015,
      "v": 127
    },
    {
      "midi": 50,
      "hit": false,
      "t": 59719.55550000021,
      "d": 280.3735000000015,
      "v": 127
    },
    {
      "midi": 70,
      "hit": false,
      "t": 59859.74225000025,
      "d": 140.18675000000076,
      "v": 127
    },
    {
      "midi": 55,
      "hit": false,
      "t": 59999.929000000215,
      "d": 280.3735000000015,
      "v": 127
    },
    {
      "midi": 74,
      "hit": false,
      "t": 59999.92900000025,
      "d": 140.18675000000076,
      "v": 127
    },
    {
      "midi": 70,
      "hit": false,
      "t": 60140.11575000025,
      "d": 140.18675000000076,
      "v": 127
    },
    {
      "midi": 72,
      "hit": false,
      "t": 60140.11575000025,
      "d": 140.18675000000076,
      "v": 127
    },
    {
      "midi": 51,
      "hit": false,
      "t": 60280.302500000216,
      "d": 280.3735000000015,
      "v": 127
    },
    {
      "midi": 70,
      "hit": false,
      "t": 60280.30250000025,
      "d": 140.18675000000076,
      "v": 127
    },
    {
      "midi": 79,
      "hit": false,
      "t": 60280.30250000025,
      "d": 140.18675000000076,
      "v": 127
    },
    {
      "midi": 67,
      "hit": false,
      "t": 60420.48925000025,
      "d": 140.18675000000076,
      "v": 127
    },
    {
      "midi": 69,
      "hit": false,
      "t": 60420.48925000025,
      "d": 140.18675000000076,
      "v": 127
    },
    {
      "midi": 49,
      "hit": false,
      "t": 60560.67600000022,
      "d": 560.747000000003,
      "v": 127
    },
    {
      "midi": 52,
      "hit": false,
      "t": 60560.67600000022,
      "d": 560.747000000003,
      "v": 127
    },
    {
      "midi": 55,
      "hit": false,
      "t": 60560.67600000022,
      "d": 560.747000000003,
      "v": 127
    },
    {
      "midi": 82,
      "hit": false,
      "t": 60560.676000000254,
      "d": 280.3735000000015,
      "v": 127
    },
    {
      "midi": 81,
      "hit": false,
      "t": 60841.049500000256,
      "d": 140.18675000000076,
      "v": 127
    },
    {
      "midi": 78,
      "hit": false,
      "t": 60981.23625000026,
      "d": 140.18675000000076,
      "v": 127
    },
    {
      "midi": 79,
      "hit": false,
      "t": 60981.23625000026,
      "d": 140.18675000000076,
      "v": 127
    },
    {
      "midi": 79,
      "hit": false,
      "t": 61121.42300000026,
      "d": 140.18675000000076,
      "v": 127
    },
    {
      "midi": 82,
      "hit": false,
      "t": 61121.42300000026,
      "d": 140.18675000000076,
      "v": 127
    },
    {
      "midi": 79,
      "hit": false,
      "t": 61261.60975000026,
      "d": 140.18675000000076,
      "v": 127
    },
    {
      "midi": 81,
      "hit": false,
      "t": 61261.60975000026,
      "d": 140.18675000000076,
      "v": 127
    },
    {
      "midi": 76,
      "hit": false,
      "t": 61401.79650000026,
      "d": 140.18675000000076,
      "v": 127
    },
    {
      "midi": 78,
      "hit": false,
      "t": 61401.79650000026,
      "d": 140.18675000000076,
      "v": 127
    },
    {
      "midi": 72,
      "hit": false,
      "t": 61541.98325000026,
      "d": 140.18675000000076,
      "v": 127
    },
    {
      "midi": 74,
      "hit": false,
      "t": 61541.98325000026,
      "d": 140.18675000000076,
      "v": 127
    },
    {
      "midi": 62,
      "hit": false,
      "t": 61682.170000000224,
      "d": 1121.4939999999988,
      "v": 127
    },
    {
      "midi": 70,
      "hit": false,
      "t": 61682.17000000026,
      "d": 140.18675000000076,
      "v": 127
    },
    {
      "midi": 74,
      "hit": false,
      "t": 61682.17000000026,
      "d": 140.18675000000076,
      "v": 127
    },
    {
      "midi": 72,
      "hit": false,
      "t": 61822.35675000026,
      "d": 140.18675000000076,
      "v": 127
    },
    {
      "midi": 76,
      "hit": false,
      "t": 61822.35675000026,
      "d": 140.18675000000076,
      "v": 127
    },
    {
      "midi": 74,
      "hit": false,
      "t": 61962.54350000026,
      "d": 140.18675000000076,
      "v": 127
    },
    {
      "midi": 79,
      "hit": false,
      "t": 61962.54350000026,
      "d": 140.18675000000076,
      "v": 127
    },
    {
      "midi": 76,
      "hit": false,
      "t": 62102.73025000026,
      "d": 140.18675000000076,
      "v": 127
    },
    {
      "midi": 78,
      "hit": false,
      "t": 62102.73025000026,
      "d": 140.18675000000076,
      "v": 127
    },
    {
      "midi": 72,
      "hit": false,
      "t": 62242.91700000026,
      "d": 140.18675000000076,
      "v": 127
    },
    {
      "midi": 74,
      "hit": false,
      "t": 62242.91700000026,
      "d": 140.18675000000076,
      "v": 127
    },
    {
      "midi": 69,
      "hit": false,
      "t": 62383.103750000264,
      "d": 140.18675000000076,
      "v": 127
    },
    {
      "midi": 70,
      "hit": false,
      "t": 62383.103750000264,
      "d": 140.18675000000076,
      "v": 127
    },
    {
      "midi": 70,
      "hit": false,
      "t": 62523.290500000265,
      "d": 140.18675000000076,
      "v": 127
    },
    {
      "midi": 74,
      "hit": false,
      "t": 62523.290500000265,
      "d": 140.18675000000076,
      "v": 127
    },
    {
      "midi": 67,
      "hit": false,
      "t": 62663.477250000265,
      "d": 140.18675000000076,
      "v": 127
    },
    {
      "midi": 70,
      "hit": false,
      "t": 62663.477250000265,
      "d": 140.18675000000076,
      "v": 127
    },
    {
      "midi": 61,
      "hit": false,
      "t": 62803.66400000022,
      "d": 560.747000000003,
      "v": 127
    },
    {
      "midi": 76,
      "hit": false,
      "t": 62943.85075000027,
      "d": 140.18675000000076,
      "v": 127
    },
    {
      "midi": 78,
      "hit": false,
      "t": 62943.85075000027,
      "d": 140.18675000000076,
      "v": 127
    },
    {
      "midi": 78,
      "hit": false,
      "t": 63084.03750000027,
      "d": 140.18675000000076,
      "v": 127
    },
    {
      "midi": 76,
      "hit": false,
      "t": 63224.22425000027,
      "d": 140.18675000000076,
      "v": 127
    },
    {
      "midi": 78,
      "hit": false,
      "t": 63224.22425000027,
      "d": 140.18675000000076,
      "v": 127
    },
    {
      "midi": 79,
      "hit": false,
      "t": 63224.22425000027,
      "d": 140.18675000000076,
      "v": 127
    },
    {
      "midi": 69,
      "hit": false,
      "t": 63364.41100000027,
      "d": 140.18675000000076,
      "v": 127
    },
    {
      "midi": 70,
      "hit": false,
      "t": 63364.41100000027,
      "d": 140.18675000000076,
      "v": 127
    },
    {
      "midi": 66,
      "hit": false,
      "t": 63504.59775000027,
      "d": 140.18675000000076,
      "v": 127
    },
    {
      "midi": 67,
      "hit": false,
      "t": 63504.59775000027,
      "d": 140.18675000000076,
      "v": 127
    },
    {
      "midi": 67,
      "hit": false,
      "t": 63644.78450000027,
      "d": 140.18675000000076,
      "v": 127
    },
    {
      "midi": 61,
      "hit": false,
      "t": 63784.97125000023,
      "d": 140.18675000000076,
      "v": 127
    },
    {
      "midi": 70,
      "hit": false,
      "t": 63784.97125000027,
      "d": 280.3735000000015,
      "v": 127
    },
    {
      "midi": 62,
      "hit": false,
      "t": 63925.15800000023,
      "d": 280.3735000000015,
      "v": 127
    },
    {
      "midi": 70,
      "hit": false,
      "t": 64065.34475000027,
      "d": 140.18675000000076,
      "v": 127
    },
    {
      "midi": 72,
      "hit": false,
      "t": 64065.34475000027,
      "d": 140.18675000000076,
      "v": 127
    },
    {
      "midi": 60,
      "hit": false,
      "t": 64205.53150000023,
      "d": 140.18675000000076,
      "v": 127
    },
    {
      "midi": 69,
      "hit": false,
      "t": 64205.531500000274,
      "d": 140.18675000000076,
      "v": 127
    },
    {
      "midi": 70,
      "hit": false,
      "t": 64205.531500000274,
      "d": 140.18675000000076,
      "v": 127
    },
    {
      "midi": 58,
      "hit": false,
      "t": 64345.71825000023,
      "d": 140.18675000000076,
      "v": 127
    },
    {
      "midi": 69,
      "hit": false,
      "t": 64345.718250000275,
      "d": 140.18675000000076,
      "v": 127
    },
    {
      "midi": 72,
      "hit": false,
      "t": 64345.718250000275,
      "d": 140.18675000000076,
      "v": 127
    },
    {
      "midi": 57,
      "hit": false,
      "t": 64485.90500000023,
      "d": 140.18675000000076,
      "v": 127
    },
    {
      "midi": 66,
      "hit": false,
      "t": 64485.905000000275,
      "d": 420.56025000000227,
      "v": 127
    },
    {
      "midi": 58,
      "hit": false,
      "t": 64626.09175000023,
      "d": 140.18675000000076,
      "v": 127
    },
    {
      "midi": 60,
      "hit": false,
      "t": 64766.27850000023,
      "d": 280.3735000000015,
      "v": 127
    },
    {
      "midi": 67,
      "hit": false,
      "t": 64906.46525000028,
      "d": 140.18675000000076,
      "v": 127
    },
    {
      "midi": 43,
      "hit": false,
      "t": 65046.652000000235,
      "d": 560.747000000003,
      "v": 127
    },
    {
      "midi": 55,
      "hit": false,
      "t": 65046.652000000235,
      "d": 560.747000000003,
      "v": 127
    },
    {
      "midi": 59,
      "hit": false,
      "t": 65046.65200000028,
      "d": 280.3735000000015,
      "v": 127
    },
    {
      "midi": 62,
      "hit": false,
      "t": 65046.65200000028,
      "d": 280.3735000000015,
      "v": 127
    },
    {
      "midi": 67,
      "hit": false,
      "t": 65046.65200000028,
      "d": 280.3735000000015,
      "v": 127
    },
    {
      "midi": 67,
      "hit": false,
      "t": 65327.02550000028,
      "d": 140.18675000000076,
      "v": 127
    },
    {
      "midi": 69,
      "hit": false,
      "t": 65467.21225000028,
      "d": 140.18675000000076,
      "v": 127
    },
    {
      "midi": 71,
      "hit": false,
      "t": 65607.39900000028,
      "d": 280.3735000000015,
      "v": 127
    },
    {
      "midi": 72,
      "hit": false,
      "t": 65887.77250000028,
      "d": 280.3735000000015,
      "v": 127
    },
    {
      "midi": 74,
      "hit": false,
      "t": 66168.14600000028,
      "d": 280.3735000000015,
      "v": 127
    },
    {
      "midi": 75,
      "hit": false,
      "t": 66448.51950000029,
      "d": 280.3735000000015,
      "v": 127
    },
    {
      "midi": 77,
      "hit": false,
      "t": 66728.89300000029,
      "d": 140.18674999999348,
      "v": 127
    },
    {
      "midi": 75,
      "hit": false,
      "t": 66869.07975000028,
      "d": 140.18674999999348,
      "v": 127
    },
    {
      "midi": 74,
      "hit": false,
      "t": 67009.26650000027,
      "d": 140.18674999999348,
      "v": 127
    },
    {
      "midi": 75,
      "hit": false,
      "t": 67149.45325000027,
      "d": 140.18674999999348,
      "v": 127
    },
    {
      "midi": 77,
      "hit": false,
      "t": 67289.64000000026,
      "d": 280.3735000000015,
      "v": 127
    },
    {
      "midi": 79,
      "hit": false,
      "t": 67570.01350000026,
      "d": 280.3735000000015,
      "v": 127
    },
    {
      "midi": 80,
      "hit": false,
      "t": 67850.38700000026,
      "d": 280.3735000000015,
      "v": 127
    },
    {
      "midi": 74,
      "hit": false,
      "t": 68130.76050000027,
      "d": 280.3735000000015,
      "v": 127
    },
    {
      "midi": 77,
      "hit": false,
      "t": 68411.13400000027,
      "d": 280.3735000000015,
      "v": 127
    },
    {
      "midi": 71,
      "hit": false,
      "t": 68691.50750000027,
      "d": 280.3735000000015,
      "v": 127
    },
    {
      "midi": 74,
      "hit": false,
      "t": 68971.88100000027,
      "d": 280.3735000000015,
      "v": 127
    },
    {
      "midi": 67,
      "hit": false,
      "t": 69252.25450000027,
      "d": 280.3735000000015,
      "v": 127
    },
    {
      "midi": 79,
      "hit": false,
      "t": 69532.62800000027,
      "d": 140.18674999999348,
      "v": 127
    },
    {
      "midi": 77,
      "hit": false,
      "t": 69672.81475000027,
      "d": 140.18674999999348,
      "v": 127
    },
    {
      "midi": 75,
      "hit": false,
      "t": 69813.00150000026,
      "d": 140.18674999999348,
      "v": 127
    },
    {
      "midi": 74,
      "hit": false,
      "t": 69953.18825000025,
      "d": 140.18674999999348,
      "v": 127
    },
    {
      "midi": 75,
      "hit": false,
      "t": 70093.37500000025,
      "d": 280.3735000000015,
      "v": 127
    },
    {
      "midi": 60,
      "hit": false,
      "t": 70373.74850000023,
      "d": 140.18674999999348,
      "v": 127
    },
    {
      "midi": 84,
      "hit": false,
      "t": 70373.74850000025,
      "d": 560.747000000003,
      "v": 127
    },
    {
      "midi": 62,
      "hit": false,
      "t": 70513.93525000023,
      "d": 140.18674999999348,
      "v": 127
    },
    {
      "midi": 63,
      "hit": false,
      "t": 70654.12200000022,
      "d": 280.3735000000015,
      "v": 127
    },
    {
      "midi": 65,
      "hit": false,
      "t": 70934.49550000022,
      "d": 280.3735000000015,
      "v": 127
    },
    {
      "midi": 82,
      "hit": false,
      "t": 70934.49550000025,
      "d": 140.18674999999348,
      "v": 127
    },
    {
      "midi": 80,
      "hit": false,
      "t": 71074.68225000025,
      "d": 140.18674999999348,
      "v": 127
    },
    {
      "midi": 67,
      "hit": false,
      "t": 71214.86900000022,
      "d": 280.3735000000015,
      "v": 127
    },
    {
      "midi": 79,
      "hit": false,
      "t": 71214.86900000024,
      "d": 140.18674999999348,
      "v": 127
    },
    {
      "midi": 77,
      "hit": false,
      "t": 71355.05575000023,
      "d": 140.18674999999348,
      "v": 127
    },
    {
      "midi": 75,
      "hit": false,
      "t": 71495.24250000023,
      "d": 140.18674999999348,
      "v": 127
    },
    {
      "midi": 68,
      "hit": false,
      "t": 71495.24250000023,
      "d": 280.3735000000015,
      "v": 127
    },
    {
      "midi": 74,
      "hit": false,
      "t": 71635.42925000022,
      "d": 140.18674999999348,
      "v": 127
    },
    {
      "midi": 72,
      "hit": false,
      "t": 71775.61600000021,
      "d": 560.747000000003,
      "v": 127
    },
    {
      "midi": 70,
      "hit": false,
      "t": 71775.61600000023,
      "d": 140.18674999999348,
      "v": 127
    },
    {
      "midi": 68,
      "hit": false,
      "t": 71915.80275000022,
      "d": 140.18674999999348,
      "v": 127
    },
    {
      "midi": 67,
      "hit": false,
      "t": 72055.98950000021,
      "d": 140.18674999999348,
      "v": 127
    },
    {
      "midi": 68,
      "hit": false,
      "t": 72196.17625000021,
      "d": 140.18674999999348,
      "v": 127
    },
    {
      "midi": 70,
      "hit": false,
      "t": 72336.3630000002,
      "d": 280.3735000000015,
      "v": 127
    },
    {
      "midi": 74,
      "hit": false,
      "t": 72476.54975000021,
      "d": 140.18674999999348,
      "v": 127
    },
    {
      "midi": 76,
      "hit": false,
      "t": 72616.7365000002,
      "d": 140.18674999999348,
      "v": 127
    },
    {
      "midi": 72,
      "hit": false,
      "t": 72616.7365000002,
      "d": 280.3735000000015,
      "v": 127
    },
    {
      "midi": 77,
      "hit": false,
      "t": 72756.9232500002,
      "d": 140.18674999999348,
      "v": 127
    },
    {
      "midi": 79,
      "hit": false,
      "t": 72897.11000000019,
      "d": 140.18674999999348,
      "v": 127
    },
    {
      "midi": 73,
      "hit": false,
      "t": 72897.1100000002,
      "d": 280.3735000000015,
      "v": 127
    },
    {
      "midi": 80,
      "hit": false,
      "t": 73037.29675000018,
      "d": 140.18674999999348,
      "v": 127
    },
    {
      "midi": 82,
      "hit": false,
      "t": 73177.48350000018,
      "d": 140.18674999999348,
      "v": 127
    },
    {
      "midi": 67,
      "hit": false,
      "t": 73177.4835000002,
      "d": 280.3735000000015,
      "v": 127
    },
    {
      "midi": 79,
      "hit": false,
      "t": 73317.67025000017,
      "d": 140.18674999999348,
      "v": 127
    },
    {
      "midi": 76,
      "hit": false,
      "t": 73457.85700000016,
      "d": 280.3735000000015,
      "v": 127
    },
    {
      "midi": 70,
      "hit": false,
      "t": 73457.85700000021,
      "d": 280.3735000000015,
      "v": 127
    },
    {
      "midi": 85,
      "hit": false,
      "t": 73738.23050000017,
      "d": 420.560249999995,
      "v": 127
    },
    {
      "midi": 64,
      "hit": false,
      "t": 73738.23050000021,
      "d": 280.3735000000015,
      "v": 127
    },
    {
      "midi": 67,
      "hit": false,
      "t": 74018.60400000021,
      "d": 280.3735000000015,
      "v": 127
    },
    {
      "midi": 79,
      "hit": false,
      "t": 74158.79075000016,
      "d": 140.18674999999348,
      "v": 127
    },
    {
      "midi": 80,
      "hit": false,
      "t": 74298.97750000015,
      "d": 140.18674999999348,
      "v": 127
    },
    {
      "midi": 60,
      "hit": false,
      "t": 74298.97750000021,
      "d": 280.3735000000015,
      "v": 127
    },
    {
      "midi": 82,
      "hit": false,
      "t": 74439.16425000015,
      "d": 140.18674999999348,
      "v": 127
    },
    {
      "midi": 80,
      "hit": false,
      "t": 74579.35100000014,
      "d": 140.18674999999348,
      "v": 127
    },
    {
      "midi": 72,
      "hit": false,
      "t": 74579.35100000021,
      "d": 140.18674999999348,
      "v": 127
    },
    {
      "midi": 79,
      "hit": false,
      "t": 74719.53775000013,
      "d": 140.18674999999348,
      "v": 127
    },
    {
      "midi": 70,
      "hit": false,
      "t": 74719.5377500002,
      "d": 140.18674999999348,
      "v": 127
    },
    {
      "midi": 77,
      "hit": false,
      "t": 74859.72450000013,
      "d": 140.18674999999348,
      "v": 127
    },
    {
      "midi": 68,
      "hit": false,
      "t": 74859.7245000002,
      "d": 140.18674999999348,
      "v": 127
    },
    {
      "midi": 76,
      "hit": false,
      "t": 74999.91125000012,
      "d": 140.18674999999348,
      "v": 127
    },
    {
      "midi": 67,
      "hit": false,
      "t": 74999.9112500002,
      "d": 140.18674999999348,
      "v": 127
    },
    {
      "midi": 77,
      "hit": false,
      "t": 75140.09800000011,
      "d": 140.18674999999348,
      "v": 127
    },
    {
      "midi": 68,
      "hit": false,
      "t": 75140.09800000019,
      "d": 280.3735000000015,
      "v": 127
    },
    {
      "midi": 79,
      "hit": false,
      "t": 75280.28475000011,
      "d": 140.18674999999348,
      "v": 127
    },
    {
      "midi": 80,
      "hit": false,
      "t": 75420.4715000001,
      "d": 420.560249999995,
      "v": 127
    },
    {
      "midi": 65,
      "hit": false,
      "t": 75420.47150000019,
      "d": 280.3735000000015,
      "v": 127
    },
    {
      "midi": 67,
      "hit": false,
      "t": 75700.84500000019,
      "d": 280.3735000000015,
      "v": 127
    },
    {
      "midi": 79,
      "hit": false,
      "t": 75841.0317500001,
      "d": 140.18674999999348,
      "v": 127
    },
    {
      "midi": 77,
      "hit": false,
      "t": 75981.21850000009,
      "d": 140.18674999999348,
      "v": 127
    },
    {
      "midi": 68,
      "hit": false,
      "t": 75981.21850000019,
      "d": 280.3735000000015,
      "v": 127
    },
    {
      "midi": 75,
      "hit": false,
      "t": 76121.40525000008,
      "d": 140.18674999999348,
      "v": 127
    },
    {
      "midi": 74,
      "hit": false,
      "t": 76261.59200000008,
      "d": 140.18674999999348,
      "v": 127
    },
    {
      "midi": 70,
      "hit": false,
      "t": 76261.5920000002,
      "d": 280.3735000000015,
      "v": 127
    },
    {
      "midi": 72,
      "hit": false,
      "t": 76401.77875000007,
      "d": 140.18674999999348,
      "v": 127
    },
    {
      "midi": 74,
      "hit": false,
      "t": 76541.96550000006,
      "d": 140.18674999999348,
      "v": 127
    },
    {
      "midi": 68,
      "hit": false,
      "t": 76541.9655000002,
      "d": 280.3735000000015,
      "v": 127
    },
    {
      "midi": 77,
      "hit": false,
      "t": 76682.15225000006,
      "d": 140.18674999999348,
      "v": 127
    },
    {
      "midi": 75,
      "hit": false,
      "t": 76822.33900000005,
      "d": 140.18674999999348,
      "v": 127
    },
    {
      "midi": 67,
      "hit": false,
      "t": 76822.3390000002,
      "d": 280.3735000000015,
      "v": 127
    },
    {
      "midi": 77,
      "hit": false,
      "t": 76962.52575000004,
      "d": 140.18674999999348,
      "v": 127
    },
    {
      "midi": 79,
      "hit": false,
      "t": 77102.71250000004,
      "d": 420.560249999995,
      "v": 127
    },
    {
      "midi": 63,
      "hit": false,
      "t": 77102.7125000002,
      "d": 280.3735000000015,
      "v": 127
    },
    {
      "midi": 65,
      "hit": false,
      "t": 77383.0860000002,
      "d": 280.3735000000015,
      "v": 127
    },
    {
      "midi": 77,
      "hit": false,
      "t": 77523.27275000003,
      "d": 140.18674999999348,
      "v": 127
    },
    {
      "midi": 75,
      "hit": false,
      "t": 77663.45950000003,
      "d": 140.18674999999348,
      "v": 127
    },
    {
      "midi": 67,
      "hit": false,
      "t": 77663.4595000002,
      "d": 280.3735000000015,
      "v": 127
    },
    {
      "midi": 74,
      "hit": false,
      "t": 77803.64625000002,
      "d": 140.18674999999348,
      "v": 127
    },
    {
      "midi": 72,
      "hit": false,
      "t": 77943.83300000001,
      "d": 140.18674999999348,
      "v": 127
    },
    {
      "midi": 68,
      "hit": false,
      "t": 77943.8330000002,
      "d": 280.3735000000015,
      "v": 127
    },
    {
      "midi": 71,
      "hit": false,
      "t": 78084.01975,
      "d": 140.18674999999348,
      "v": 127
    },
    {
      "midi": 72,
      "hit": false,
      "t": 78224.2065,
      "d": 140.18674999999348,
      "v": 127
    },
    {
      "midi": 67,
      "hit": false,
      "t": 78224.2065000002,
      "d": 280.3735000000015,
      "v": 127
    },
    {
      "midi": 75,
      "hit": false,
      "t": 78364.39325,
      "d": 140.18674999999348,
      "v": 127
    },
    {
      "midi": 74,
      "hit": false,
      "t": 78504.57999999999,
      "d": 140.18674999999348,
      "v": 127
    },
    {
      "midi": 65,
      "hit": false,
      "t": 78504.5800000002,
      "d": 280.3735000000015,
      "v": 127
    },
    {
      "midi": 80,
      "hit": false,
      "t": 78644.76674999998,
      "d": 140.18674999999348,
      "v": 127
    },
    {
      "midi": 74,
      "hit": false,
      "t": 78784.95349999997,
      "d": 140.18674999999348,
      "v": 127
    },
    {
      "midi": 63,
      "hit": false,
      "t": 78784.9535000002,
      "d": 280.3735000000015,
      "v": 127
    },
    {
      "midi": 72,
      "hit": false,
      "t": 78925.14024999997,
      "d": 140.18674999999348,
      "v": 127
    },
    {
      "midi": 74,
      "hit": false,
      "t": 79065.32699999996,
      "d": 140.18674999999348,
      "v": 127
    },
    {
      "midi": 65,
      "hit": false,
      "t": 79065.32700000021,
      "d": 280.3735000000015,
      "v": 127
    },
    {
      "midi": 75,
      "hit": false,
      "t": 79205.51374999995,
      "d": 140.18674999999348,
      "v": 127
    },
    {
      "midi": 77,
      "hit": false,
      "t": 79345.70049999995,
      "d": 140.18674999999348,
      "v": 127
    },
    {
      "midi": 62,
      "hit": false,
      "t": 79345.70050000021,
      "d": 280.3735000000015,
      "v": 127
    },
    {
      "midi": 79,
      "hit": false,
      "t": 79485.88724999994,
      "d": 140.18674999999348,
      "v": 127
    },
    {
      "midi": 77,
      "hit": false,
      "t": 79626.07399999994,
      "d": 140.18674999999348,
      "v": 127
    },
    {
      "midi": 63,
      "hit": false,
      "t": 79626.07400000021,
      "d": 280.3735000000015,
      "v": 127
    },
    {
      "midi": 75,
      "hit": false,
      "t": 79766.26074999993,
      "d": 140.18674999999348,
      "v": 127
    },
    {
      "midi": 74,
      "hit": false,
      "t": 79906.44749999992,
      "d": 140.18674999999348,
      "v": 127
    },
    {
      "midi": 65,
      "hit": false,
      "t": 79906.44750000021,
      "d": 280.3735000000015,
      "v": 127
    },
    {
      "midi": 72,
      "hit": false,
      "t": 80046.63424999992,
      "d": 140.18674999999348,
      "v": 127
    },
    {
      "midi": 71,
      "hit": false,
      "t": 80186.82099999991,
      "d": 140.18674999999348,
      "v": 127
    },
    {
      "midi": 67,
      "hit": false,
      "t": 80186.82100000021,
      "d": 280.3735000000015,
      "v": 127
    },
    {
      "midi": 79,
      "hit": false,
      "t": 80327.0077499999,
      "d": 140.18674999999348,
      "v": 127
    },
    {
      "midi": 77,
      "hit": false,
      "t": 80467.1944999999,
      "d": 140.18674999999348,
      "v": 127
    },
    {
      "midi": 55,
      "hit": false,
      "t": 80467.19450000022,
      "d": 140.18674999999348,
      "v": 127
    },
    {
      "midi": 75,
      "hit": false,
      "t": 80607.38124999989,
      "d": 140.18674999999348,
      "v": 127
    },
    {
      "midi": 57,
      "hit": false,
      "t": 80607.38125000021,
      "d": 140.18674999999348,
      "v": 127
    },
    {
      "midi": 74,
      "hit": false,
      "t": 80747.56799999988,
      "d": 140.18674999999348,
      "v": 127
    },
    {
      "midi": 59,
      "hit": false,
      "t": 80747.5680000002,
      "d": 280.3735000000015,
      "v": 127
    },
    {
      "midi": 77,
      "hit": false,
      "t": 80887.75474999988,
      "d": 140.18674999999348,
      "v": 127
    },
    {
      "midi": 74,
      "hit": false,
      "t": 81027.94149999987,
      "d": 140.18674999999348,
      "v": 127
    },
    {
      "midi": 60,
      "hit": false,
      "t": 81027.9415000002,
      "d": 280.3735000000015,
      "v": 127
    },
    {
      "midi": 72,
      "hit": false,
      "t": 81168.12824999986,
      "d": 140.18674999999348,
      "v": 127
    },
    {
      "midi": 71,
      "hit": false,
      "t": 81308.31499999986,
      "d": 140.18674999999348,
      "v": 127
    },
    {
      "midi": 62,
      "hit": false,
      "t": 81308.3150000002,
      "d": 280.3735000000015,
      "v": 127
    },
    {
      "midi": 74,
      "hit": false,
      "t": 81448.50174999985,
      "d": 140.18674999999348,
      "v": 127
    },
    {
      "midi": 71,
      "hit": false,
      "t": 81588.68849999984,
      "d": 140.18674999999348,
      "v": 127
    },
    {
      "midi": 63,
      "hit": false,
      "t": 81588.68850000021,
      "d": 280.3735000000015,
      "v": 127
    },
    {
      "midi": 69,
      "hit": false,
      "t": 81728.87524999984,
      "d": 140.18674999999348,
      "v": 127
    },
    {
      "midi": 67,
      "hit": false,
      "t": 81869.06199999983,
      "d": 140.18674999999348,
      "v": 127
    },
    {
      "midi": 65,
      "hit": false,
      "t": 81869.06200000021,
      "d": 140.18674999999348,
      "v": 127
    },
    {
      "midi": 69,
      "hit": false,
      "t": 82009.24874999982,
      "d": 140.18674999999348,
      "v": 127
    },
    {
      "midi": 63,
      "hit": false,
      "t": 82009.2487500002,
      "d": 140.18674999999348,
      "v": 127
    },
    {
      "midi": 71,
      "hit": false,
      "t": 82149.43549999982,
      "d": 140.18674999999348,
      "v": 127
    },
    {
      "midi": 62,
      "hit": false,
      "t": 82149.4355000002,
      "d": 140.18674999999348,
      "v": 127
    },
    {
      "midi": 72,
      "hit": false,
      "t": 82289.62224999981,
      "d": 140.18674999999348,
      "v": 127
    },
    {
      "midi": 63,
      "hit": false,
      "t": 82289.62225000019,
      "d": 140.18674999999348,
      "v": 127
    },
    {
      "midi": 74,
      "hit": false,
      "t": 82429.8089999998,
      "d": 140.18674999999348,
      "v": 127
    },
    {
      "midi": 65,
      "hit": false,
      "t": 82429.80900000018,
      "d": 280.3735000000015,
      "v": 127
    },
    {
      "midi": 72,
      "hit": false,
      "t": 82569.9957499998,
      "d": 140.18674999999348,
      "v": 127
    },
    {
      "midi": 71,
      "hit": false,
      "t": 82710.18249999979,
      "d": 140.18674999999348,
      "v": 127
    },
    {
      "midi": 67,
      "hit": false,
      "t": 82710.18250000018,
      "d": 280.3735000000015,
      "v": 127
    },
    {
      "midi": 72,
      "hit": false,
      "t": 82850.36924999979,
      "d": 140.18674999999348,
      "v": 127
    },
    {
      "midi": 74,
      "hit": false,
      "t": 82990.55599999978,
      "d": 140.18674999999348,
      "v": 127
    },
    {
      "midi": 68,
      "hit": false,
      "t": 82990.55600000019,
      "d": 280.3735000000015,
      "v": 127
    },
    {
      "midi": 75,
      "hit": false,
      "t": 83130.74274999977,
      "d": 140.18674999999348,
      "v": 127
    },
    {
      "midi": 77,
      "hit": false,
      "t": 83270.92949999977,
      "d": 140.18674999999348,
      "v": 127
    },
    {
      "midi": 62,
      "hit": false,
      "t": 83270.92950000019,
      "d": 280.3735000000015,
      "v": 127
    },
    {
      "midi": 74,
      "hit": false,
      "t": 83411.11624999976,
      "d": 140.18674999999348,
      "v": 127
    },
    {
      "midi": 71,
      "hit": false,
      "t": 83551.30299999975,
      "d": 140.18674999999348,
      "v": 127
    },
    {
      "midi": 65,
      "hit": false,
      "t": 83551.30300000019,
      "d": 280.3735000000015,
      "v": 127
    },
    {
      "midi": 72,
      "hit": false,
      "t": 83691.48974999975,
      "d": 140.18674999999348,
      "v": 127
    },
    {
      "midi": 74,
      "hit": false,
      "t": 83831.67649999974,
      "d": 140.18674999999348,
      "v": 127
    },
    {
      "midi": 59,
      "hit": false,
      "t": 83831.67650000019,
      "d": 280.3735000000015,
      "v": 127
    },
    {
      "midi": 75,
      "hit": false,
      "t": 83971.86324999973,
      "d": 140.18674999999348,
      "v": 127
    },
    {
      "midi": 77,
      "hit": false,
      "t": 84112.04999999973,
      "d": 140.18674999999348,
      "v": 127
    },
    {
      "midi": 62,
      "hit": false,
      "t": 84112.05000000019,
      "d": 280.3735000000015,
      "v": 127
    },
    {
      "midi": 80,
      "hit": false,
      "t": 84252.23674999972,
      "d": 140.18674999999348,
      "v": 127
    },
    {
      "midi": 79,
      "hit": false,
      "t": 84392.42349999971,
      "d": 140.18674999999348,
      "v": 127
    },
    {
      "midi": 55,
      "hit": false,
      "t": 84392.4235000002,
      "d": 280.3735000000015,
      "v": 127
    },
    {
      "midi": 77,
      "hit": false,
      "t": 84532.6102499997,
      "d": 140.18674999999348,
      "v": 127
    },
    {
      "midi": 75,
      "hit": false,
      "t": 84672.7969999997,
      "d": 140.18674999999348,
      "v": 127
    },
    {
      "midi": 67,
      "hit": false,
      "t": 84672.7970000002,
      "d": 140.18674999999348,
      "v": 127
    },
    {
      "midi": 74,
      "hit": false,
      "t": 84812.9837499997,
      "d": 140.18674999999348,
      "v": 127
    },
    {
      "midi": 65,
      "hit": false,
      "t": 84812.98375000019,
      "d": 140.18674999999348,
      "v": 127
    },
    {
      "midi": 72,
      "hit": false,
      "t": 84953.17049999969,
      "d": 140.18674999999348,
      "v": 127
    },
    {
      "midi": 63,
      "hit": false,
      "t": 84953.17050000018,
      "d": 140.18674999999348,
      "v": 127
    },
    {
      "midi": 71,
      "hit": false,
      "t": 85093.35724999968,
      "d": 140.18674999999348,
      "v": 127
    },
    {
      "midi": 62,
      "hit": false,
      "t": 85093.35725000018,
      "d": 140.18674999999348,
      "v": 127
    },
    {
      "midi": 72,
      "hit": false,
      "t": 85233.54399999967,
      "d": 140.18674999999348,
      "v": 127
    },
    {
      "midi": 63,
      "hit": false,
      "t": 85233.54400000017,
      "d": 140.18674999999348,
      "v": 127
    },
    {
      "midi": 74,
      "hit": false,
      "t": 85373.73074999967,
      "d": 140.18674999999348,
      "v": 127
    },
    {
      "midi": 62,
      "hit": false,
      "t": 85373.73075000016,
      "d": 140.18674999999348,
      "v": 127
    },
    {
      "midi": 75,
      "hit": false,
      "t": 85513.91749999966,
      "d": 140.18674999999348,
      "v": 127
    },
    {
      "midi": 60,
      "hit": false,
      "t": 85513.91750000016,
      "d": 420.560249999995,
      "v": 127
    },
    {
      "midi": 72,
      "hit": false,
      "t": 85654.10424999965,
      "d": 140.18674999999348,
      "v": 127
    },
    {
      "midi": 69,
      "hit": false,
      "t": 85794.29099999965,
      "d": 280.3735000000015,
      "v": 127
    },
    {
      "midi": 63,
      "hit": false,
      "t": 85934.47775000015,
      "d": 140.18674999999348,
      "v": 127
    },
    {
      "midi": 72,
      "hit": false,
      "t": 86074.66449999965,
      "d": 280.3735000000015,
      "v": 127
    },
    {
      "midi": 62,
      "hit": false,
      "t": 86074.66450000014,
      "d": 140.18674999999348,
      "v": 127
    },
    {
      "midi": 60,
      "hit": false,
      "t": 86214.85125000014,
      "d": 140.18674999999348,
      "v": 127
    },
    {
      "midi": 65,
      "hit": false,
      "t": 86355.03799999965,
      "d": 280.3735000000015,
      "v": 127
    },
    {
      "midi": 58,
      "hit": false,
      "t": 86355.03800000013,
      "d": 140.18674999999348,
      "v": 127
    },
    {
      "midi": 57,
      "hit": false,
      "t": 86495.22475000012,
      "d": 140.18674999999348,
      "v": 127
    },
    {
      "midi": 75,
      "hit": false,
      "t": 86635.41149999965,
      "d": 280.3735000000015,
      "v": 127
    },
    {
      "midi": 55,
      "hit": false,
      "t": 86635.41150000012,
      "d": 140.18674999999348,
      "v": 127
    },
    {
      "midi": 53,
      "hit": false,
      "t": 86775.59825000011,
      "d": 140.18674999999348,
      "v": 127
    },
    {
      "midi": 70,
      "hit": false,
      "t": 86915.78499999965,
      "d": 140.18674999999348,
      "v": 127
    },
    {
      "midi": 62,
      "hit": false,
      "t": 86915.7850000001,
      "d": 140.18674999999348,
      "v": 127
    },
    {
      "midi": 72,
      "hit": false,
      "t": 87055.97174999965,
      "d": 140.18674999999348,
      "v": 127
    },
    {
      "midi": 60,
      "hit": false,
      "t": 87055.9717500001,
      "d": 140.18674999999348,
      "v": 127
    },
    {
      "midi": 74,
      "hit": false,
      "t": 87196.15849999964,
      "d": 140.18674999999348,
      "v": 127
    },
    {
      "midi": 58,
      "hit": false,
      "t": 87196.15850000009,
      "d": 420.560249999995,
      "v": 127
    },
    {
      "midi": 70,
      "hit": false,
      "t": 87336.34524999963,
      "d": 140.18674999999348,
      "v": 127
    },
    {
      "midi": 67,
      "hit": false,
      "t": 87476.53199999963,
      "d": 280.3735000000015,
      "v": 127
    },
    {
      "midi": 62,
      "hit": false,
      "t": 87616.71875000009,
      "d": 140.18674999999348,
      "v": 127
    },
    {
      "midi": 70,
      "hit": false,
      "t": 87756.90549999963,
      "d": 280.3735000000015,
      "v": 127
    },
    {
      "midi": 60,
      "hit": false,
      "t": 87756.90550000008,
      "d": 140.18674999999348,
      "v": 127
    },
    {
      "midi": 58,
      "hit": false,
      "t": 87897.09225000007,
      "d": 140.18674999999348,
      "v": 127
    },
    {
      "midi": 63,
      "hit": false,
      "t": 88037.27899999963,
      "d": 280.3735000000015,
      "v": 127
    },
    {
      "midi": 57,
      "hit": false,
      "t": 88037.27900000007,
      "d": 140.18674999999348,
      "v": 127
    },
    {
      "midi": 55,
      "hit": false,
      "t": 88177.46575000006,
      "d": 140.18674999999348,
      "v": 127
    },
    {
      "midi": 74,
      "hit": false,
      "t": 88317.65249999963,
      "d": 280.3735000000015,
      "v": 127
    },
    {
      "midi": 54,
      "hit": false,
      "t": 88317.65250000005,
      "d": 140.18674999999348,
      "v": 127
    },
    {
      "midi": 55,
      "hit": false,
      "t": 88457.83925000005,
      "d": 140.18674999999348,
      "v": 127
    },
    {
      "midi": 69,
      "hit": false,
      "t": 88598.02599999963,
      "d": 140.18674999999348,
      "v": 127
    },
    {
      "midi": 60,
      "hit": false,
      "t": 88598.02600000004,
      "d": 140.18674999999348,
      "v": 127
    },
    {
      "midi": 70,
      "hit": false,
      "t": 88738.21274999963,
      "d": 140.18674999999348,
      "v": 127
    },
    {
      "midi": 58,
      "hit": false,
      "t": 88738.21275000004,
      "d": 140.18674999999348,
      "v": 127
    },
    {
      "midi": 72,
      "hit": false,
      "t": 88878.39949999962,
      "d": 140.18674999999348,
      "v": 127
    },
    {
      "midi": 57,
      "hit": false,
      "t": 88878.39950000003,
      "d": 420.560249999995,
      "v": 127
    },
    {
      "midi": 69,
      "hit": false,
      "t": 89018.58624999961,
      "d": 140.18674999999348,
      "v": 127
    },
    {
      "midi": 66,
      "hit": false,
      "t": 89158.77299999961,
      "d": 280.3735000000015,
      "v": 127
    },
    {
      "midi": 60,
      "hit": false,
      "t": 89298.95975000002,
      "d": 140.18674999999348,
      "v": 127
    },
    {
      "midi": 69,
      "hit": false,
      "t": 89439.14649999961,
      "d": 280.3735000000015,
      "v": 127
    },
    {
      "midi": 58,
      "hit": false,
      "t": 89439.14650000002,
      "d": 140.18674999999348,
      "v": 127
    },
    {
      "midi": 57,
      "hit": false,
      "t": 89579.33325000001,
      "d": 140.18674999999348,
      "v": 127
    },
    {
      "midi": 62,
      "hit": false,
      "t": 89719.51999999961,
      "d": 280.3735000000015,
      "v": 127
    },
    {
      "midi": 55,
      "hit": false,
      "t": 89719.52,
      "d": 140.18674999999348,
      "v": 127
    },
    {
      "midi": 54,
      "hit": false,
      "t": 89859.70675,
      "d": 140.18674999999348,
      "v": 127
    },
    {
      "midi": 72,
      "hit": false,
      "t": 89999.89349999961,
      "d": 280.3735000000015,
      "v": 127
    },
    {
      "midi": 52,
      "hit": false,
      "t": 89999.89349999999,
      "d": 140.18674999999348,
      "v": 127
    },
    {
      "midi": 50,
      "hit": false,
      "t": 90140.08024999998,
      "d": 140.18674999999348,
      "v": 127
    },
    {
      "midi": 67,
      "hit": false,
      "t": 90280.26699999961,
      "d": 140.18674999999348,
      "v": 127
    },
    {
      "midi": 58,
      "hit": false,
      "t": 90280.26699999998,
      "d": 280.3735000000015,
      "v": 127
    },
    {
      "midi": 69,
      "hit": false,
      "t": 90420.45374999961,
      "d": 140.18674999999348,
      "v": 127
    },
    {
      "midi": 70,
      "hit": false,
      "t": 90560.6404999996,
      "d": 140.18674999999348,
      "v": 127
    },
    {
      "midi": 62,
      "hit": false,
      "t": 90560.64049999998,
      "d": 280.3735000000015,
      "v": 127
    },
    {
      "midi": 67,
      "hit": false,
      "t": 90700.8272499996,
      "d": 140.18674999999348,
      "v": 127
    },
    {
      "midi": 63,
      "hit": false,
      "t": 90841.01399999959,
      "d": 140.18674999999348,
      "v": 127
    },
    {
      "midi": 55,
      "hit": false,
      "t": 90841.01399999998,
      "d": 280.3735000000015,
      "v": 127
    },
    {
      "midi": 67,
      "hit": false,
      "t": 90981.20074999958,
      "d": 140.18674999999348,
      "v": 127
    },
    {
      "midi": 62,
      "hit": false,
      "t": 91121.38749999958,
      "d": 140.18674999999348,
      "v": 127
    },
    {
      "midi": 58,
      "hit": false,
      "t": 91121.38749999998,
      "d": 280.3735000000015,
      "v": 127
    },
    {
      "midi": 67,
      "hit": false,
      "t": 91261.57424999957,
      "d": 140.18674999999348,
      "v": 127
    },
    {
      "midi": 61,
      "hit": false,
      "t": 91401.76099999956,
      "d": 140.18674999999348,
      "v": 127
    },
    {
      "midi": 52,
      "hit": false,
      "t": 91401.76099999998,
      "d": 280.3735000000015,
      "v": 127
    },
    {
      "midi": 70,
      "hit": false,
      "t": 91541.94774999956,
      "d": 140.18674999999348,
      "v": 127
    },
    {
      "midi": 69,
      "hit": false,
      "t": 91682.13449999955,
      "d": 140.18674999999348,
      "v": 127
    },
    {
      "midi": 61,
      "hit": false,
      "t": 91682.13449999999,
      "d": 280.3735000000015,
      "v": 127
    },
    {
      "midi": 67,
      "hit": false,
      "t": 91822.32124999954,
      "d": 140.18674999999348,
      "v": 127
    },
    {
      "midi": 66,
      "hit": false,
      "t": 91962.50799999954,
      "d": 140.18674999999348,
      "v": 127
    },
    {
      "midi": 62,
      "hit": false,
      "t": 91962.50799999999,
      "d": 280.3735000000015,
      "v": 127
    },
    {
      "midi": 64,
      "hit": false,
      "t": 92102.69474999953,
      "d": 140.18674999999348,
      "v": 127
    },
    {
      "midi": 62,
      "hit": false,
      "t": 92242.88149999952,
      "d": 140.18674999999348,
      "v": 127
    },
    {
      "midi": 50,
      "hit": false,
      "t": 92242.88149999999,
      "d": 560.747000000003,
      "v": 127
    },
    {
      "midi": 64,
      "hit": false,
      "t": 92383.06824999952,
      "d": 140.18674999999348,
      "v": 127
    },
    {
      "midi": 66,
      "hit": false,
      "t": 92523.25499999951,
      "d": 280.3735000000015,
      "v": 127
    },
    {
      "midi": 67,
      "hit": false,
      "t": 92803.62849999951,
      "d": 280.3735000000015,
      "v": 127
    },
    {
      "midi": 48,
      "hit": false,
      "t": 92803.62849999999,
      "d": 140.18674999999348,
      "v": 127
    },
    {
      "midi": 46,
      "hit": false,
      "t": 92943.81524999999,
      "d": 140.18674999999348,
      "v": 127
    },
    {
      "midi": 69,
      "hit": false,
      "t": 93084.00199999951,
      "d": 280.3735000000015,
      "v": 127
    },
    {
      "midi": 45,
      "hit": false,
      "t": 93084.00199999998,
      "d": 140.18674999999348,
      "v": 127
    },
    {
      "midi": 43,
      "hit": false,
      "t": 93224.18874999997,
      "d": 140.18674999999348,
      "v": 127
    },
    {
      "midi": 70,
      "hit": false,
      "t": 93364.37549999951,
      "d": 280.3735000000015,
      "v": 127
    },
    {
      "midi": 42,
      "hit": false,
      "t": 93364.37549999997,
      "d": 140.18674999999348,
      "v": 127
    },
    {
      "midi": 40,
      "hit": false,
      "t": 93504.56224999996,
      "d": 140.18674999999348,
      "v": 127
    },
    {
      "midi": 72,
      "hit": false,
      "t": 93644.74899999952,
      "d": 140.18674999999348,
      "v": 127
    },
    {
      "midi": 38,
      "hit": false,
      "t": 93644.74899999995,
      "d": 560.747000000003,
      "v": 127
    },
    {
      "midi": 70,
      "hit": false,
      "t": 93784.93574999951,
      "d": 140.18674999999348,
      "v": 127
    },
    {
      "midi": 69,
      "hit": false,
      "t": 93925.1224999995,
      "d": 140.18674999999348,
      "v": 127
    },
    {
      "midi": 70,
      "hit": false,
      "t": 94065.3092499995,
      "d": 140.18674999999348,
      "v": 127
    },
    {
      "midi": 72,
      "hit": false,
      "t": 94205.49599999949,
      "d": 280.3735000000015,
      "v": 127
    },
    {
      "midi": 40,
      "hit": false,
      "t": 94345.68274999995,
      "d": 140.18674999999348,
      "v": 127
    },
    {
      "midi": 74,
      "hit": false,
      "t": 94485.86949999949,
      "d": 280.3735000000015,
      "v": 127
    },
    {
      "midi": 42,
      "hit": false,
      "t": 94485.86949999994,
      "d": 140.18674999999348,
      "v": 127
    },
    {
      "midi": 43,
      "hit": false,
      "t": 94626.05624999994,
      "d": 140.18674999999348,
      "v": 127
    },
    {
      "midi": 75,
      "hit": false,
      "t": 94766.2429999995,
      "d": 280.3735000000015,
      "v": 127
    },
    {
      "midi": 45,
      "hit": false,
      "t": 94766.24299999993,
      "d": 140.18674999999348,
      "v": 127
    },
    {
      "midi": 46,
      "hit": false,
      "t": 94906.42974999992,
      "d": 140.18674999999348,
      "v": 127
    },
    {
      "midi": 69,
      "hit": false,
      "t": 95046.6164999995,
      "d": 280.3735000000015,
      "v": 127
    },
    {
      "midi": 48,
      "hit": false,
      "t": 95046.61649999992,
      "d": 140.18674999999348,
      "v": 127
    },
    {
      "midi": 45,
      "hit": false,
      "t": 95186.80324999991,
      "d": 140.18674999999348,
      "v": 127
    },
    {
      "midi": 72,
      "hit": false,
      "t": 95326.9899999995,
      "d": 280.3735000000015,
      "v": 127
    },
    {
      "midi": 42,
      "hit": false,
      "t": 95326.9899999999,
      "d": 280.3735000000015,
      "v": 127
    },
    {
      "midi": 66,
      "hit": false,
      "t": 95607.3634999995,
      "d": 280.3735000000015,
      "v": 127
    },
    {
      "midi": 51,
      "hit": false,
      "t": 95607.3634999999,
      "d": 420.560249999995,
      "v": 127
    },
    {
      "midi": 69,
      "hit": false,
      "t": 95887.7369999995,
      "d": 280.3735000000015,
      "v": 127
    },
    {
      "midi": 45,
      "hit": false,
      "t": 96027.9237499999,
      "d": 140.18674999999348,
      "v": 127
    },
    {
      "midi": 62,
      "hit": false,
      "t": 96168.1104999995,
      "d": 280.3735000000015,
      "v": 127
    },
    {
      "midi": 46,
      "hit": false,
      "t": 96168.1104999999,
      "d": 140.18674999999348,
      "v": 127
    },
    {
      "midi": 48,
      "hit": false,
      "t": 96308.29724999989,
      "d": 140.18674999999348,
      "v": 127
    },
    {
      "midi": 74,
      "hit": false,
      "t": 96448.4839999995,
      "d": 140.18674999999348,
      "v": 127
    },
    {
      "midi": 46,
      "hit": false,
      "t": 96448.48399999988,
      "d": 140.18674999999348,
      "v": 127
    },
    {
      "midi": 72,
      "hit": false,
      "t": 96588.6707499995,
      "d": 140.18674999999348,
      "v": 127
    },
    {
      "midi": 45,
      "hit": false,
      "t": 96588.67074999987,
      "d": 140.18674999999348,
      "v": 127
    },
    {
      "midi": 70,
      "hit": false,
      "t": 96728.85749999949,
      "d": 140.18674999999348,
      "v": 127
    },
    {
      "midi": 43,
      "hit": false,
      "t": 96728.85749999987,
      "d": 140.18674999999348,
      "v": 127
    },
    {
      "midi": 69,
      "hit": false,
      "t": 96869.04424999948,
      "d": 140.18674999999348,
      "v": 127
    },
    {
      "midi": 42,
      "hit": false,
      "t": 96869.04424999986,
      "d": 140.18674999999348,
      "v": 127
    },
    {
      "midi": 70,
      "hit": false,
      "t": 97009.23099999948,
      "d": 140.18674999999348,
      "v": 127
    },
    {
      "midi": 43,
      "hit": false,
      "t": 97009.23099999985,
      "d": 560.747000000003,
      "v": 127
    },
    {
      "midi": 69,
      "hit": false,
      "t": 97149.41774999947,
      "d": 140.18674999999348,
      "v": 127
    },
    {
      "midi": 67,
      "hit": false,
      "t": 97289.60449999946,
      "d": 140.18674999999348,
      "v": 127
    },
    {
      "midi": 69,
      "hit": false,
      "t": 97429.79124999946,
      "d": 140.18674999999348,
      "v": 127
    },
    {
      "midi": 70,
      "hit": false,
      "t": 97569.97799999945,
      "d": 280.3735000000015,
      "v": 127
    },
    {
      "midi": 55,
      "hit": false,
      "t": 97710.16474999985,
      "d": 140.18674999999348,
      "v": 127
    },
    {
      "midi": 72,
      "hit": false,
      "t": 97850.35149999945,
      "d": 280.3735000000015,
      "v": 127
    },
    {
      "midi": 56,
      "hit": false,
      "t": 97850.35149999984,
      "d": 140.18674999999348,
      "v": 127
    },
    {
      "midi": 58,
      "hit": false,
      "t": 97990.53824999984,
      "d": 140.18674999999348,
      "v": 127
    },
    {
      "midi": 74,
      "hit": false,
      "t": 98130.72499999945,
      "d": 280.3735000000015,
      "v": 127
    },
    {
      "midi": 56,
      "hit": false,
      "t": 98130.72499999983,
      "d": 140.18674999999348,
      "v": 127
    },
    {
      "midi": 55,
      "hit": false,
      "t": 98270.91174999982,
      "d": 140.18674999999348,
      "v": 127
    },
    {
      "midi": 75,
      "hit": false,
      "t": 98411.09849999945,
      "d": 280.3735000000015,
      "v": 127
    },
    {
      "midi": 53,
      "hit": false,
      "t": 98411.09849999982,
      "d": 140.18674999999348,
      "v": 127
    },
    {
      "midi": 51,
      "hit": false,
      "t": 98551.28524999981,
      "d": 140.18674999999348,
      "v": 127
    },
    {
      "midi": 77,
      "hit": false,
      "t": 98691.47199999946,
      "d": 140.18674999999348,
      "v": 127
    },
    {
      "midi": 50,
      "hit": false,
      "t": 98691.4719999998,
      "d": 280.3735000000015,
      "v": 127
    },
    {
      "midi": 75,
      "hit": false,
      "t": 98831.65874999945,
      "d": 140.18674999999348,
      "v": 127
    },
    {
      "midi": 74,
      "hit": false,
      "t": 98971.84549999944,
      "d": 140.18674999999348,
      "v": 127
    },
    {
      "midi": 53,
      "hit": false,
      "t": 98971.8454999998,
      "d": 280.3735000000015,
      "v": 127
    },
    {
      "midi": 72,
      "hit": false,
      "t": 99112.03224999944,
      "d": 140.18674999999348,
      "v": 127
    },
    {
      "midi": 70,
      "hit": false,
      "t": 99252.21899999943,
      "d": 140.18674999999348,
      "v": 127
    },
    {
      "midi": 50,
      "hit": false,
      "t": 99252.21899999981,
      "d": 280.3735000000015,
      "v": 127
    },
    {
      "midi": 77,
      "hit": false,
      "t": 99392.40574999942,
      "d": 140.18674999999348,
      "v": 127
    },
    {
      "midi": 72,
      "hit": false,
      "t": 99532.59249999942,
      "d": 140.18674999999348,
      "v": 127
    },
    {
      "midi": 46,
      "hit": false,
      "t": 99532.59249999981,
      "d": 280.3735000000015,
      "v": 127
    },
    {
      "midi": 70,
      "hit": false,
      "t": 99672.77924999941,
      "d": 140.18674999999348,
      "v": 127
    },
    {
      "midi": 68,
      "hit": false,
      "t": 99812.9659999994,
      "d": 140.18674999999348,
      "v": 127
    },
    {
      "midi": 48,
      "hit": false,
      "t": 99812.96599999981,
      "d": 280.3735000000015,
      "v": 127
    },
    {
      "midi": 77,
      "hit": false,
      "t": 99953.1527499994,
      "d": 140.18674999999348,
      "v": 127
    },
    {
      "midi": 70,
      "hit": false,
      "t": 100093.33949999939,
      "d": 140.18674999999348,
      "v": 127
    },
    {
      "midi": 50,
      "hit": false,
      "t": 100093.33949999981,
      "d": 280.3735000000015,
      "v": 127
    },
    {
      "midi": 68,
      "hit": false,
      "t": 100233.52624999938,
      "d": 140.18674999999348,
      "v": 127
    },
    {
      "midi": 67,
      "hit": false,
      "t": 100373.71299999938,
      "d": 140.18674999999348,
      "v": 127
    },
    {
      "midi": 51,
      "hit": false,
      "t": 100373.71299999981,
      "d": 280.3735000000015,
      "v": 127
    },
    {
      "midi": 65,
      "hit": false,
      "t": 100513.89974999937,
      "d": 140.18674999999348,
      "v": 127
    },
    {
      "midi": 63,
      "hit": false,
      "t": 100654.08649999936,
      "d": 140.18674999999348,
      "v": 127
    },
    {
      "midi": 39,
      "hit": false,
      "t": 100654.08649999982,
      "d": 420.560249999995,
      "v": 127
    },
    {
      "midi": 65,
      "hit": false,
      "t": 100794.27324999936,
      "d": 140.18674999999348,
      "v": 127
    },
    {
      "midi": 67,
      "hit": false,
      "t": 100934.45999999935,
      "d": 280.3735000000015,
      "v": 127
    },
    {
      "midi": 51,
      "hit": false,
      "t": 101074.64674999981,
      "d": 140.18674999999348,
      "v": 127
    },
    {
      "midi": 69,
      "hit": false,
      "t": 101214.83349999935,
      "d": 280.3735000000015,
      "v": 127
    },
    {
      "midi": 53,
      "hit": false,
      "t": 101214.8334999998,
      "d": 140.18674999999348,
      "v": 127
    },
    {
      "midi": 55,
      "hit": false,
      "t": 101355.0202499998,
      "d": 140.18674999999348,
      "v": 127
    },
    {
      "midi": 71,
      "hit": false,
      "t": 101495.20699999935,
      "d": 280.3735000000015,
      "v": 127
    },
    {
      "midi": 53,
      "hit": false,
      "t": 101495.20699999979,
      "d": 140.18674999999348,
      "v": 127
    },
    {
      "midi": 51,
      "hit": false,
      "t": 101635.39374999978,
      "d": 140.18674999999348,
      "v": 127
    },
    {
      "midi": 72,
      "hit": false,
      "t": 101775.58049999936,
      "d": 280.3735000000015,
      "v": 127
    },
    {
      "midi": 50,
      "hit": false,
      "t": 101775.58049999978,
      "d": 140.18674999999348,
      "v": 127
    },
    {
      "midi": 48,
      "hit": false,
      "t": 101915.76724999977,
      "d": 140.18674999999348,
      "v": 127
    },
    {
      "midi": 74,
      "hit": false,
      "t": 102055.95399999936,
      "d": 140.18674999999348,
      "v": 127
    },
    {
      "midi": 47,
      "hit": false,
      "t": 102055.95399999977,
      "d": 280.3735000000015,
      "v": 127
    },
    {
      "midi": 72,
      "hit": false,
      "t": 102196.14074999935,
      "d": 140.18674999999348,
      "v": 127
    },
    {
      "midi": 71,
      "hit": false,
      "t": 102336.32749999934,
      "d": 140.18674999999348,
      "v": 127
    },
    {
      "midi": 50,
      "hit": false,
      "t": 102336.32749999977,
      "d": 280.3735000000015,
      "v": 127
    },
    {
      "midi": 69,
      "hit": false,
      "t": 102476.51424999934,
      "d": 140.18674999999348,
      "v": 127
    },
    {
      "midi": 67,
      "hit": false,
      "t": 102616.70099999933,
      "d": 140.18674999999348,
      "v": 127
    },
    {
      "midi": 47,
      "hit": false,
      "t": 102616.70099999977,
      "d": 280.3735000000015,
      "v": 127
    },
    {
      "midi": 74,
      "hit": false,
      "t": 102756.88774999933,
      "d": 140.18674999999348,
      "v": 127
    },
    {
      "midi": 69,
      "hit": false,
      "t": 102897.07449999932,
      "d": 140.18674999999348,
      "v": 127
    },
    {
      "midi": 43,
      "hit": false,
      "t": 102897.07449999977,
      "d": 280.3735000000015,
      "v": 127
    },
    {
      "midi": 67,
      "hit": false,
      "t": 103037.26124999931,
      "d": 140.18674999999348,
      "v": 127
    },
    {
      "midi": 65,
      "hit": false,
      "t": 103177.4479999993,
      "d": 140.18674999999348,
      "v": 127
    },
    {
      "midi": 45,
      "hit": false,
      "t": 103177.44799999977,
      "d": 280.3735000000015,
      "v": 127
    },
    {
      "midi": 74,
      "hit": false,
      "t": 103317.6347499993,
      "d": 140.18674999999348,
      "v": 127
    },
    {
      "midi": 67,
      "hit": false,
      "t": 103457.82149999929,
      "d": 140.18674999999348,
      "v": 127
    },
    {
      "midi": 47,
      "hit": false,
      "t": 103457.82149999977,
      "d": 280.3735000000015,
      "v": 127
    },
    {
      "midi": 65,
      "hit": false,
      "t": 103598.00824999929,
      "d": 140.18674999999348,
      "v": 127
    },
    {
      "midi": 63,
      "hit": false,
      "t": 103738.19499999928,
      "d": 140.18674999999348,
      "v": 127
    },
    {
      "midi": 48,
      "hit": false,
      "t": 103738.19499999977,
      "d": 280.3735000000015,
      "v": 127
    },
    {
      "midi": 72,
      "hit": false,
      "t": 103878.38174999927,
      "d": 140.18674999999348,
      "v": 127
    },
    {
      "midi": 67,
      "hit": false,
      "t": 104018.56849999927,
      "d": 140.18674999999348,
      "v": 127
    },
    {
      "midi": 36,
      "hit": false,
      "t": 104018.56849999978,
      "d": 420.560249999995,
      "v": 127
    },
    {
      "midi": 65,
      "hit": false,
      "t": 104158.75524999926,
      "d": 140.18674999999348,
      "v": 127
    },
    {
      "midi": 63,
      "hit": false,
      "t": 104298.94199999925,
      "d": 140.18674999999348,
      "v": 127
    },
    {
      "midi": 65,
      "hit": false,
      "t": 104439.12874999925,
      "d": 140.18674999999348,
      "v": 127
    },
    {
      "midi": 62,
      "hit": false,
      "t": 104439.12874999977,
      "d": 140.18674999999348,
      "v": 127
    },
    {
      "midi": 67,
      "hit": false,
      "t": 104579.31549999924,
      "d": 140.18674999999348,
      "v": 127
    },
    {
      "midi": 63,
      "hit": false,
      "t": 104579.31549999976,
      "d": 140.18674999999348,
      "v": 127
    },
    {
      "midi": 68,
      "hit": false,
      "t": 104719.50224999923,
      "d": 140.18674999999348,
      "v": 127
    },
    {
      "midi": 65,
      "hit": false,
      "t": 104719.50224999976,
      "d": 140.18674999999348,
      "v": 127
    },
    {
      "midi": 67,
      "hit": false,
      "t": 104859.68899999923,
      "d": 140.18674999999348,
      "v": 127
    },
    {
      "midi": 63,
      "hit": false,
      "t": 104859.68899999975,
      "d": 280.3735000000015,
      "v": 127
    },
    {
      "midi": 72,
      "hit": false,
      "t": 104999.87574999922,
      "d": 140.18674999999348,
      "v": 127
    },
    {
      "midi": 67,
      "hit": false,
      "t": 105140.06249999921,
      "d": 140.18674999999348,
      "v": 127
    },
    {
      "midi": 62,
      "hit": false,
      "t": 105140.06249999975,
      "d": 280.3735000000015,
      "v": 127
    },
    {
      "midi": 65,
      "hit": false,
      "t": 105280.24924999921,
      "d": 140.18674999999348,
      "v": 127
    },
    {
      "midi": 63,
      "hit": false,
      "t": 105420.4359999992,
      "d": 140.18674999999348,
      "v": 127
    },
    {
      "midi": 60,
      "hit": false,
      "t": 105420.43599999975,
      "d": 280.3735000000015,
      "v": 127
    },
    {
      "midi": 72,
      "hit": false,
      "t": 105560.6227499992,
      "d": 140.18674999999348,
      "v": 127
    },
    {
      "midi": 67,
      "hit": false,
      "t": 105700.80949999919,
      "d": 140.18674999999348,
      "v": 127
    },
    {
      "midi": 48,
      "hit": false,
      "t": 105700.80949999976,
      "d": 420.560249999995,
      "v": 127
    },
    {
      "midi": 65,
      "hit": false,
      "t": 105840.99624999918,
      "d": 140.18674999999348,
      "v": 127
    },
    {
      "midi": 63,
      "hit": false,
      "t": 105981.18299999918,
      "d": 140.18674999999348,
      "v": 127
    },
    {
      "midi": 65,
      "hit": false,
      "t": 106121.36974999917,
      "d": 140.18674999999348,
      "v": 127
    },
    {
      "midi": 56,
      "hit": false,
      "t": 106121.36974999975,
      "d": 140.18674999999348,
      "v": 127
    },
    {
      "midi": 67,
      "hit": false,
      "t": 106261.55649999916,
      "d": 140.18674999999348,
      "v": 127
    },
    {
      "midi": 58,
      "hit": false,
      "t": 106261.55649999974,
      "d": 140.18674999999348,
      "v": 127
    },
    {
      "midi": 68,
      "hit": false,
      "t": 106401.74324999916,
      "d": 140.18674999999348,
      "v": 127
    },
    {
      "midi": 60,
      "hit": false,
      "t": 106401.74324999974,
      "d": 140.18674999999348,
      "v": 127
    },
    {
      "midi": 67,
      "hit": false,
      "t": 106541.92999999915,
      "d": 140.18674999999348,
      "v": 127
    },
    {
      "midi": 58,
      "hit": false,
      "t": 106541.92999999973,
      "d": 280.3735000000015,
      "v": 127
    },
    {
      "midi": 72,
      "hit": false,
      "t": 106682.11674999914,
      "d": 140.18674999999348,
      "v": 127
    },
    {
      "midi": 67,
      "hit": false,
      "t": 106822.30349999914,
      "d": 140.18674999999348,
      "v": 127
    },
    {
      "midi": 56,
      "hit": false,
      "t": 106822.30349999973,
      "d": 280.3735000000015,
      "v": 127
    },
    {
      "midi": 65,
      "hit": false,
      "t": 106962.49024999913,
      "d": 140.18674999999348,
      "v": 127
    },
    {
      "midi": 64,
      "hit": false,
      "t": 107102.67699999912,
      "d": 140.18674999999348,
      "v": 127
    },
    {
      "midi": 55,
      "hit": false,
      "t": 107102.67699999973,
      "d": 280.3735000000015,
      "v": 127
    },
    {
      "midi": 70,
      "hit": false,
      "t": 107242.86374999912,
      "d": 140.18674999999348,
      "v": 127
    },
    {
      "midi": 67,
      "hit": false,
      "t": 107383.05049999911,
      "d": 140.18674999999348,
      "v": 127
    },
    {
      "midi": 48,
      "hit": false,
      "t": 107383.05049999974,
      "d": 420.560249999995,
      "v": 127
    },
    {
      "midi": 65,
      "hit": false,
      "t": 107523.2372499991,
      "d": 140.18674999999348,
      "v": 127
    },
    {
      "midi": 64,
      "hit": false,
      "t": 107663.4239999991,
      "d": 140.18674999999348,
      "v": 127
    },
    {
      "midi": 65,
      "hit": false,
      "t": 107803.61074999909,
      "d": 140.18674999999348,
      "v": 127
    },
    {
      "midi": 62,
      "hit": false,
      "t": 107803.61074999973,
      "d": 140.18674999999348,
      "v": 127
    },
    {
      "midi": 67,
      "hit": false,
      "t": 107943.79749999908,
      "d": 140.18674999999348,
      "v": 127
    },
    {
      "midi": 64,
      "hit": false,
      "t": 107943.79749999972,
      "d": 140.18674999999348,
      "v": 127
    },
    {
      "midi": 68,
      "hit": false,
      "t": 108083.98424999908,
      "d": 140.18674999999348,
      "v": 127
    },
    {
      "midi": 65,
      "hit": false,
      "t": 108083.98424999972,
      "d": 140.18674999999348,
      "v": 127
    },
    {
      "midi": 67,
      "hit": false,
      "t": 108224.17099999907,
      "d": 140.18674999999348,
      "v": 127
    },
    {
      "midi": 64,
      "hit": false,
      "t": 108224.17099999971,
      "d": 280.3735000000015,
      "v": 127
    },
    {
      "midi": 70,
      "hit": false,
      "t": 108364.35774999906,
      "d": 140.18674999999348,
      "v": 127
    },
    {
      "midi": 67,
      "hit": false,
      "t": 108504.54449999906,
      "d": 140.18674999999348,
      "v": 127
    },
    {
      "midi": 62,
      "hit": false,
      "t": 108504.54449999971,
      "d": 280.3735000000015,
      "v": 127
    },
    {
      "midi": 65,
      "hit": false,
      "t": 108644.73124999905,
      "d": 140.18674999999348,
      "v": 127
    },
    {
      "midi": 64,
      "hit": false,
      "t": 108784.91799999904,
      "d": 140.18674999999348,
      "v": 127
    },
    {
      "midi": 60,
      "hit": false,
      "t": 108784.91799999971,
      "d": 280.3735000000015,
      "v": 127
    },
    {
      "midi": 70,
      "hit": false,
      "t": 108925.10474999904,
      "d": 140.18674999999348,
      "v": 127
    },
    {
      "midi": 67,
      "hit": false,
      "t": 109065.29149999903,
      "d": 140.18674999999348,
      "v": 127
    },
    {
      "midi": 48,
      "hit": false,
      "t": 109065.29149999972,
      "d": 420.560249999995,
      "v": 127
    },
    {
      "midi": 65,
      "hit": false,
      "t": 109205.47824999903,
      "d": 140.18674999999348,
      "v": 127
    },
    {
      "midi": 64,
      "hit": false,
      "t": 109345.66499999902,
      "d": 140.18674999999348,
      "v": 127
    },
    {
      "midi": 67,
      "hit": false,
      "t": 109485.85174999901,
      "d": 140.18674999999348,
      "v": 127
    },
    {
      "midi": 50,
      "hit": false,
      "t": 109485.85174999971,
      "d": 140.18674999999348,
      "v": 127
    },
    {
      "midi": 70,
      "hit": false,
      "t": 109626.038499999,
      "d": 140.18674999999348,
      "v": 127
    },
    {
      "midi": 52,
      "hit": false,
      "t": 109626.0384999997,
      "d": 140.18674999999348,
      "v": 127
    },
    {
      "midi": 73,
      "hit": false,
      "t": 109766.225249999,
      "d": 140.18674999999348,
      "v": 127
    },
    {
      "midi": 53,
      "hit": false,
      "t": 109766.2252499997,
      "d": 140.18674999999348,
      "v": 127
    },
    {
      "midi": 72,
      "hit": false,
      "t": 109906.41199999899,
      "d": 140.18674999999348,
      "v": 127
    },
    {
      "midi": 52,
      "hit": false,
      "t": 109906.41199999969,
      "d": 280.3735000000015,
      "v": 127
    },
    {
      "midi": 70,
      "hit": false,
      "t": 110046.59874999899,
      "d": 140.18674999999348,
      "v": 127
    },
    {
      "midi": 68,
      "hit": false,
      "t": 110186.78549999898,
      "d": 140.18674999999348,
      "v": 127
    },
    {
      "midi": 48,
      "hit": false,
      "t": 110186.78549999969,
      "d": 280.3735000000015,
      "v": 127
    },
    {
      "midi": 67,
      "hit": false,
      "t": 110326.97224999897,
      "d": 140.18674999999348,
      "v": 127
    },
    {
      "midi": 68,
      "hit": false,
      "t": 110467.15899999897,
      "d": 140.18674999999348,
      "v": 127
    },
    {
      "midi": 53,
      "hit": false,
      "t": 110467.1589999997,
      "d": 280.3735000000015,
      "v": 127
    },
    {
      "midi": 77,
      "hit": false,
      "t": 110607.34574999896,
      "d": 140.18674999999348,
      "v": 127
    },
    {
      "midi": 72,
      "hit": false,
      "t": 110747.53249999895,
      "d": 140.18674999999348,
      "v": 127
    },
    {
      "midi": 41,
      "hit": false,
      "t": 110747.5324999997,
      "d": 420.560249999995,
      "v": 127
    },
    {
      "midi": 70,
      "hit": false,
      "t": 110887.71924999895,
      "d": 140.18674999999348,
      "v": 127
    },
    {
      "midi": 68,
      "hit": false,
      "t": 111027.90599999894,
      "d": 140.18674999999348,
      "v": 127
    },
    {
      "midi": 70,
      "hit": false,
      "t": 111168.09274999893,
      "d": 140.18674999999348,
      "v": 127
    },
    {
      "midi": 67,
      "hit": false,
      "t": 111168.09274999969,
      "d": 140.18674999999348,
      "v": 127
    },
    {
      "midi": 72,
      "hit": false,
      "t": 111308.27949999893,
      "d": 140.18674999999348,
      "v": 127
    },
    {
      "midi": 68,
      "hit": false,
      "t": 111308.27949999968,
      "d": 140.18674999999348,
      "v": 127
    },
    {
      "midi": 73,
      "hit": false,
      "t": 111448.46624999892,
      "d": 140.18674999999348,
      "v": 127
    },
    {
      "midi": 70,
      "hit": false,
      "t": 111448.46624999968,
      "d": 140.18674999999348,
      "v": 127
    },
    {
      "midi": 72,
      "hit": false,
      "t": 111588.65299999891,
      "d": 140.18674999999348,
      "v": 127
    },
    {
      "midi": 68,
      "hit": false,
      "t": 111588.65299999967,
      "d": 280.3735000000015,
      "v": 127
    },
    {
      "midi": 77,
      "hit": false,
      "t": 111728.83974999891,
      "d": 140.18674999999348,
      "v": 127
    },
    {
      "midi": 72,
      "hit": false,
      "t": 111869.0264999989,
      "d": 140.18674999999348,
      "v": 127
    },
    {
      "midi": 67,
      "hit": false,
      "t": 111869.02649999967,
      "d": 280.3735000000015,
      "v": 127
    },
    {
      "midi": 70,
      "hit": false,
      "t": 112009.2132499989,
      "d": 140.18674999999348,
      "v": 127
    },
    {
      "midi": 68,
      "hit": false,
      "t": 112149.39999999889,
      "d": 140.18674999999348,
      "v": 127
    },
    {
      "midi": 65,
      "hit": false,
      "t": 112149.39999999967,
      "d": 280.3735000000015,
      "v": 127
    },
    {
      "midi": 77,
      "hit": false,
      "t": 112289.58674999888,
      "d": 140.18674999999348,
      "v": 127
    },
    {
      "midi": 72,
      "hit": false,
      "t": 112429.77349999888,
      "d": 140.18674999999348,
      "v": 127
    },
    {
      "midi": 53,
      "hit": false,
      "t": 112429.77349999968,
      "d": 420.560249999995,
      "v": 127
    },
    {
      "midi": 70,
      "hit": false,
      "t": 112569.96024999887,
      "d": 140.18674999999348,
      "v": 127
    },
    {
      "midi": 68,
      "hit": false,
      "t": 112710.14699999886,
      "d": 140.18674999999348,
      "v": 127
    },
    {
      "midi": 70,
      "hit": false,
      "t": 112850.33374999886,
      "d": 140.18674999999348,
      "v": 127
    },
    {
      "midi": 61,
      "hit": false,
      "t": 112850.33374999967,
      "d": 140.18674999999348,
      "v": 127
    },
    {
      "midi": 72,
      "hit": false,
      "t": 112990.52049999885,
      "d": 140.18674999999348,
      "v": 127
    },
    {
      "midi": 63,
      "hit": false,
      "t": 112990.52049999966,
      "d": 140.18674999999348,
      "v": 127
    },
    {
      "midi": 73,
      "hit": false,
      "t": 113130.70724999884,
      "d": 140.18674999999348,
      "v": 127
    },
    {
      "midi": 65,
      "hit": false,
      "t": 113130.70724999966,
      "d": 140.18674999999348,
      "v": 127
    },
    {
      "midi": 72,
      "hit": false,
      "t": 113270.89399999884,
      "d": 140.18674999999348,
      "v": 127
    },
    {
      "midi": 63,
      "hit": false,
      "t": 113270.89399999965,
      "d": 280.3735000000015,
      "v": 127
    },
    {
      "midi": 77,
      "hit": false,
      "t": 113411.08074999883,
      "d": 140.18674999999348,
      "v": 127
    },
    {
      "midi": 72,
      "hit": false,
      "t": 113551.26749999882,
      "d": 140.18674999999348,
      "v": 127
    },
    {
      "midi": 61,
      "hit": false,
      "t": 113551.26749999965,
      "d": 280.3735000000015,
      "v": 127
    },
    {
      "midi": 70,
      "hit": false,
      "t": 113691.45424999882,
      "d": 140.18674999999348,
      "v": 127
    },
    {
      "midi": 69,
      "hit": false,
      "t": 113831.64099999881,
      "d": 140.18674999999348,
      "v": 127
    },
    {
      "midi": 60,
      "hit": false,
      "t": 113831.64099999965,
      "d": 280.3735000000015,
      "v": 127
    },
    {
      "midi": 75,
      "hit": false,
      "t": 113971.8277499988,
      "d": 140.18674999999348,
      "v": 127
    },
    {
      "midi": 72,
      "hit": false,
      "t": 114112.0144999988,
      "d": 140.18674999999348,
      "v": 127
    },
    {
      "midi": 53,
      "hit": false,
      "t": 114112.01449999966,
      "d": 420.560249999995,
      "v": 127
    },
    {
      "midi": 70,
      "hit": false,
      "t": 114252.20124999879,
      "d": 140.18674999999348,
      "v": 127
    },
    {
      "midi": 69,
      "hit": false,
      "t": 114392.38799999878,
      "d": 140.18674999999348,
      "v": 127
    },
    {
      "midi": 70,
      "hit": false,
      "t": 114532.57474999878,
      "d": 140.18674999999348,
      "v": 127
    },
    {
      "midi": 67,
      "hit": false,
      "t": 114532.57474999965,
      "d": 140.18674999999348,
      "v": 127
    },
    {
      "midi": 72,
      "hit": false,
      "t": 114672.76149999877,
      "d": 140.18674999999348,
      "v": 127
    },
    {
      "midi": 69,
      "hit": false,
      "t": 114672.76149999964,
      "d": 140.18674999999348,
      "v": 127
    },
    {
      "midi": 73,
      "hit": false,
      "t": 114812.94824999876,
      "d": 140.18674999999348,
      "v": 127
    },
    {
      "midi": 70,
      "hit": false,
      "t": 114812.94824999964,
      "d": 140.18674999999348,
      "v": 127
    },
    {
      "midi": 72,
      "hit": false,
      "t": 114953.13499999876,
      "d": 140.18674999999348,
      "v": 127
    },
    {
      "midi": 69,
      "hit": false,
      "t": 114953.13499999963,
      "d": 280.3735000000015,
      "v": 127
    },
    {
      "midi": 75,
      "hit": false,
      "t": 115093.32174999875,
      "d": 140.18674999999348,
      "v": 127
    },
    {
      "midi": 72,
      "hit": false,
      "t": 115233.50849999874,
      "d": 140.18674999999348,
      "v": 127
    },
    {
      "midi": 67,
      "hit": false,
      "t": 115233.50849999963,
      "d": 280.3735000000015,
      "v": 127
    },
    {
      "midi": 70,
      "hit": false,
      "t": 115373.69524999874,
      "d": 140.18674999999348,
      "v": 127
    },
    {
      "midi": 69,
      "hit": false,
      "t": 115513.88199999873,
      "d": 140.18674999999348,
      "v": 127
    },
    {
      "midi": 65,
      "hit": false,
      "t": 115513.88199999963,
      "d": 280.3735000000015,
      "v": 127
    },
    {
      "midi": 75,
      "hit": false,
      "t": 115654.06874999873,
      "d": 140.18674999999348,
      "v": 127
    },
    {
      "midi": 72,
      "hit": false,
      "t": 115794.25549999872,
      "d": 140.18674999999348,
      "v": 127
    },
    {
      "midi": 53,
      "hit": false,
      "t": 115794.25549999964,
      "d": 420.560249999995,
      "v": 127
    },
    {
      "midi": 70,
      "hit": false,
      "t": 115934.44224999871,
      "d": 140.18674999999348,
      "v": 127
    },
    {
      "midi": 69,
      "hit": false,
      "t": 116074.6289999987,
      "d": 140.18674999999348,
      "v": 127
    },
    {
      "midi": 72,
      "hit": false,
      "t": 116214.8157499987,
      "d": 140.18674999999348,
      "v": 127
    },
    {
      "midi": 55,
      "hit": false,
      "t": 116214.81574999963,
      "d": 140.18674999999348,
      "v": 127
    },
    {
      "midi": 75,
      "hit": false,
      "t": 116355.00249999869,
      "d": 140.18674999999348,
      "v": 127
    },
    {
      "midi": 57,
      "hit": false,
      "t": 116355.00249999962,
      "d": 140.18674999999348,
      "v": 127
    },
    {
      "midi": 78,
      "hit": false,
      "t": 116495.18924999869,
      "d": 140.18674999999348,
      "v": 127
    },
    {
      "midi": 58,
      "hit": false,
      "t": 116495.18924999962,
      "d": 140.18674999999348,
      "v": 127
    },
    {
      "midi": 77,
      "hit": false,
      "t": 116635.37599999868,
      "d": 140.18674999999348,
      "v": 127
    },
    {
      "midi": 57,
      "hit": false,
      "t": 116635.37599999961,
      "d": 280.3735000000015,
      "v": 127
    },
    {
      "midi": 75,
      "hit": false,
      "t": 116775.56274999867,
      "d": 140.18674999999348,
      "v": 127
    },
    {
      "midi": 73,
      "hit": false,
      "t": 116915.74949999867,
      "d": 140.18674999999348,
      "v": 127
    },
    {
      "midi": 53,
      "hit": false,
      "t": 116915.74949999961,
      "d": 280.3735000000015,
      "v": 127
    },
    {
      "midi": 72,
      "hit": false,
      "t": 117055.93624999866,
      "d": 140.18674999999348,
      "v": 127
    },
    {
      "midi": 73,
      "hit": false,
      "t": 117196.12299999865,
      "d": 280.3735000000015,
      "v": 127
    },
    {
      "midi": 58,
      "hit": false,
      "t": 117196.12299999961,
      "d": 140.18674999999348,
      "v": 127
    },
    {
      "midi": 60,
      "hit": false,
      "t": 117336.30974999961,
      "d": 140.18674999999348,
      "v": 127
    },
    {
      "midi": 70,
      "hit": false,
      "t": 117476.49649999866,
      "d": 280.3735000000015,
      "v": 127
    },
    {
      "midi": 61,
      "hit": false,
      "t": 117476.4964999996,
      "d": 420.560249999995,
      "v": 127
    },
    {
      "midi": 72,
      "hit": false,
      "t": 117756.86999999866,
      "d": 280.3735000000015,
      "v": 127
    },
    {
      "midi": 60,
      "hit": false,
      "t": 117897.0567499996,
      "d": 140.18674999999348,
      "v": 127
    },
    {
      "midi": 73,
      "hit": false,
      "t": 118037.24349999866,
      "d": 280.3735000000015,
      "v": 127
    },
    {
      "midi": 58,
      "hit": false,
      "t": 118037.24349999959,
      "d": 140.18674999999348,
      "v": 127
    },
    {
      "midi": 56,
      "hit": false,
      "t": 118177.43024999958,
      "d": 140.18674999999348,
      "v": 127
    },
    {
      "midi": 75,
      "hit": false,
      "t": 118317.61699999866,
      "d": 280.3735000000015,
      "v": 127
    },
    {
      "midi": 55,
      "hit": false,
      "t": 118317.61699999958,
      "d": 140.18674999999348,
      "v": 127
    },
    {
      "midi": 53,
      "hit": false,
      "t": 118457.80374999957,
      "d": 140.18674999999348,
      "v": 127
    },
    {
      "midi": 73,
      "hit": false,
      "t": 118597.99049999866,
      "d": 280.3735000000015,
      "v": 127
    },
    {
      "midi": 55,
      "hit": false,
      "t": 118597.99049999956,
      "d": 140.18674999999348,
      "v": 127
    },
    {
      "midi": 58,
      "hit": false,
      "t": 118738.17724999956,
      "d": 140.18674999999348,
      "v": 127
    },
    {
      "midi": 72,
      "hit": false,
      "t": 118878.36399999866,
      "d": 280.3735000000015,
      "v": 127
    },
    {
      "midi": 56,
      "hit": false,
      "t": 118878.36399999955,
      "d": 140.18674999999348,
      "v": 127
    },
    {
      "midi": 58,
      "hit": false,
      "t": 119018.55074999954,
      "d": 140.18674999999348,
      "v": 127
    },
    {
      "midi": 68,
      "hit": false,
      "t": 119158.73749999866,
      "d": 280.3735000000015,
      "v": 127
    },
    {
      "midi": 60,
      "hit": false,
      "t": 119158.73749999954,
      "d": 420.560249999995,
      "v": 127
    },
    {
      "midi": 70,
      "hit": false,
      "t": 119439.11099999867,
      "d": 280.3735000000015,
      "v": 127
    },
    {
      "midi": 58,
      "hit": false,
      "t": 119579.29774999953,
      "d": 140.18674999999348,
      "v": 127
    },
    {
      "midi": 72,
      "hit": false,
      "t": 119719.48449999867,
      "d": 280.3735000000015,
      "v": 127
    },
    {
      "midi": 56,
      "hit": false,
      "t": 119719.48449999953,
      "d": 140.18674999999348,
      "v": 127
    },
    {
      "midi": 55,
      "hit": false,
      "t": 119859.67124999952,
      "d": 140.18674999999348,
      "v": 127
    },
    {
      "midi": 73,
      "hit": false,
      "t": 119999.85799999867,
      "d": 280.3735000000015,
      "v": 127
    },
    {
      "midi": 53,
      "hit": false,
      "t": 119999.85799999951,
      "d": 140.18674999999348,
      "v": 127
    },
    {
      "midi": 52,
      "hit": false,
      "t": 120140.0447499995,
      "d": 140.18674999999348,
      "v": 127
    },
    {
      "midi": 72,
      "hit": false,
      "t": 120280.23149999867,
      "d": 280.3735000000015,
      "v": 127
    },
    {
      "midi": 53,
      "hit": false,
      "t": 120280.2314999995,
      "d": 140.18674999999348,
      "v": 127
    },
    {
      "midi": 56,
      "hit": false,
      "t": 120420.4182499995,
      "d": 140.18674999999348,
      "v": 127
    },
    {
      "midi": 70,
      "hit": false,
      "t": 120560.60499999867,
      "d": 280.3735000000015,
      "v": 127
    },
    {
      "midi": 55,
      "hit": false,
      "t": 120560.60499999949,
      "d": 140.18674999999348,
      "v": 127
    },
    {
      "midi": 61,
      "hit": false,
      "t": 120700.79174999948,
      "d": 140.18674999999348,
      "v": 127
    },
    {
      "midi": 68,
      "hit": false,
      "t": 120840.97849999867,
      "d": 280.3735000000015,
      "v": 127
    },
    {
      "midi": 55,
      "hit": false,
      "t": 120840.97849999947,
      "d": 140.18674999999348,
      "v": 127
    },
    {
      "midi": 53,
      "hit": false,
      "t": 120981.16524999947,
      "d": 140.18674999999348,
      "v": 127
    },
    {
      "midi": 70,
      "hit": false,
      "t": 121121.35199999867,
      "d": 280.3735000000015,
      "v": 127
    },
    {
      "midi": 55,
      "hit": false,
      "t": 121121.35199999946,
      "d": 140.18674999999348,
      "v": 127
    },
    {
      "midi": 56,
      "hit": false,
      "t": 121261.53874999945,
      "d": 140.18674999999348,
      "v": 127
    },
    {
      "midi": 67,
      "hit": false,
      "t": 121401.72549999868,
      "d": 280.3735000000015,
      "v": 127
    },
    {
      "midi": 58,
      "hit": false,
      "t": 121401.72549999945,
      "d": 140.18674999999348,
      "v": 127
    },
    {
      "midi": 60,
      "hit": false,
      "t": 121541.91224999944,
      "d": 140.18674999999348,
      "v": 127
    },
    {
      "midi": 68,
      "hit": false,
      "t": 121682.09899999868,
      "d": 280.3735000000015,
      "v": 127
    },
    {
      "midi": 58,
      "hit": false,
      "t": 121682.09899999943,
      "d": 140.18674999999348,
      "v": 127
    },
    {
      "midi": 56,
      "hit": false,
      "t": 121822.28574999943,
      "d": 140.18674999999348,
      "v": 127
    },
    {
      "midi": 70,
      "hit": false,
      "t": 121962.47249999868,
      "d": 280.3735000000015,
      "v": 127
    },
    {
      "midi": 55,
      "hit": false,
      "t": 121962.47249999942,
      "d": 140.18674999999348,
      "v": 127
    },
    {
      "midi": 53,
      "hit": false,
      "t": 122102.65924999941,
      "d": 140.18674999999348,
      "v": 127
    },
    {
      "midi": 64,
      "hit": false,
      "t": 122242.84599999868,
      "d": 140.18674999999348,
      "v": 127
    },
    {
      "midi": 60,
      "hit": false,
      "t": 122242.84599999941,
      "d": 280.3735000000015,
      "v": 127
    },
    {
      "midi": 62,
      "hit": false,
      "t": 122383.03274999867,
      "d": 140.18674999999348,
      "v": 127
    },
    {
      "midi": 60,
      "hit": false,
      "t": 122523.21949999867,
      "d": 140.18674999999348,
      "v": 127
    },
    {
      "midi": 58,
      "hit": false,
      "t": 122523.21949999941,
      "d": 140.18674999999348,
      "v": 127
    },
    {
      "midi": 62,
      "hit": false,
      "t": 122663.40624999866,
      "d": 140.18674999999348,
      "v": 127
    },
    {
      "midi": 56,
      "hit": false,
      "t": 122663.4062499994,
      "d": 140.18674999999348,
      "v": 127
    },
    {
      "midi": 64,
      "hit": false,
      "t": 122803.59299999865,
      "d": 280.3735000000015,
      "v": 127
    },
    {
      "midi": 55,
      "hit": false,
      "t": 122803.5929999994,
      "d": 140.18674999999348,
      "v": 127
    },
    {
      "midi": 60,
      "hit": false,
      "t": 122943.77974999939,
      "d": 140.18674999999348,
      "v": 127
    },
    {
      "midi": 65,
      "hit": false,
      "t": 123083.96649999866,
      "d": 280.3735000000015,
      "v": 127
    },
    {
      "midi": 58,
      "hit": false,
      "t": 123083.96649999938,
      "d": 140.18674999999348,
      "v": 127
    },
    {
      "midi": 56,
      "hit": false,
      "t": 123224.15324999938,
      "d": 140.18674999999348,
      "v": 127
    },
    {
      "midi": 67,
      "hit": false,
      "t": 123364.33999999866,
      "d": 280.3735000000015,
      "v": 127
    },
    {
      "midi": 55,
      "hit": false,
      "t": 123364.33999999937,
      "d": 140.18674999999348,
      "v": 127
    },
    {
      "midi": 53,
      "hit": false,
      "t": 123504.52674999936,
      "d": 140.18674999999348,
      "v": 127
    },
    {
      "midi": 68,
      "hit": false,
      "t": 123644.71349999866,
      "d": 280.3735000000015,
      "v": 127
    },
    {
      "midi": 52,
      "hit": false,
      "t": 123644.71349999936,
      "d": 140.18674999999348,
      "v": 127
    },
    {
      "midi": 50,
      "hit": false,
      "t": 123784.90024999935,
      "d": 140.18674999999348,
      "v": 127
    },
    {
      "midi": 70,
      "hit": false,
      "t": 123925.08699999866,
      "d": 140.18674999999348,
      "v": 127
    },
    {
      "midi": 48,
      "hit": false,
      "t": 123925.08699999934,
      "d": 560.747000000003,
      "v": 127
    },
    {
      "midi": 68,
      "hit": false,
      "t": 124065.27374999865,
      "d": 140.18674999999348,
      "v": 127
    },
    {
      "midi": 67,
      "hit": false,
      "t": 124205.46049999865,
      "d": 140.18674999999348,
      "v": 127
    },
    {
      "midi": 68,
      "hit": false,
      "t": 124345.64724999864,
      "d": 140.18674999999348,
      "v": 127
    },
    {
      "midi": 70,
      "hit": false,
      "t": 124485.83399999863,
      "d": 280.3735000000015,
      "v": 127
    },
    {
      "midi": 50,
      "hit": false,
      "t": 124626.02074999934,
      "d": 140.18674999999348,
      "v": 127
    },
    {
      "midi": 72,
      "hit": false,
      "t": 124766.20749999864,
      "d": 280.3735000000015,
      "v": 127
    },
    {
      "midi": 52,
      "hit": false,
      "t": 124766.20749999933,
      "d": 140.18674999999348,
      "v": 127
    },
    {
      "midi": 53,
      "hit": false,
      "t": 124906.39424999933,
      "d": 140.18674999999348,
      "v": 127
    },
    {
      "midi": 73,
      "hit": false,
      "t": 125046.58099999864,
      "d": 280.3735000000015,
      "v": 127
    },
    {
      "midi": 55,
      "hit": false,
      "t": 125046.58099999932,
      "d": 140.18674999999348,
      "v": 127
    },
    {
      "midi": 56,
      "hit": false,
      "t": 125186.76774999932,
      "d": 140.18674999999348,
      "v": 127
    },
    {
      "midi": 67,
      "hit": false,
      "t": 125326.95449999864,
      "d": 280.3735000000015,
      "v": 127
    },
    {
      "midi": 58,
      "hit": false,
      "t": 125326.95449999931,
      "d": 140.18674999999348,
      "v": 127
    },
    {
      "midi": 55,
      "hit": false,
      "t": 125467.1412499993,
      "d": 140.18674999999348,
      "v": 127
    },
    {
      "midi": 70,
      "hit": false,
      "t": 125607.32799999864,
      "d": 280.3735000000015,
      "v": 127
    },
    {
      "midi": 52,
      "hit": false,
      "t": 125607.3279999993,
      "d": 280.3735000000015,
      "v": 127
    },
    {
      "midi": 64,
      "hit": false,
      "t": 125887.70149999864,
      "d": 280.3735000000015,
      "v": 127
    },
    {
      "midi": 61,
      "hit": false,
      "t": 125887.7014999993,
      "d": 420.560249999995,
      "v": 127
    },
    {
      "midi": 67,
      "hit": false,
      "t": 126168.07499999864,
      "d": 280.3735000000015,
      "v": 127
    },
    {
      "midi": 55,
      "hit": false,
      "t": 126308.26174999929,
      "d": 140.18674999999348,
      "v": 127
    },
    {
      "midi": 60,
      "hit": false,
      "t": 126448.44849999865,
      "d": 280.3735000000015,
      "v": 127
    },
    {
      "midi": 56,
      "hit": false,
      "t": 126448.44849999929,
      "d": 140.18674999999348,
      "v": 127
    },
    {
      "midi": 58,
      "hit": false,
      "t": 126588.63524999928,
      "d": 140.18674999999348,
      "v": 127
    },
    {
      "midi": 72,
      "hit": false,
      "t": 126728.82199999865,
      "d": 140.18674999999348,
      "v": 127
    },
    {
      "midi": 56,
      "hit": false,
      "t": 126728.82199999927,
      "d": 140.18674999999348,
      "v": 127
    },
    {
      "midi": 70,
      "hit": false,
      "t": 126869.00874999864,
      "d": 140.18674999999348,
      "v": 127
    },
    {
      "midi": 55,
      "hit": false,
      "t": 126869.00874999927,
      "d": 140.18674999999348,
      "v": 127
    },
    {
      "midi": 68,
      "hit": false,
      "t": 127009.19549999863,
      "d": 140.18674999999348,
      "v": 127
    },
    {
      "midi": 53,
      "hit": false,
      "t": 127009.19549999926,
      "d": 140.18674999999348,
      "v": 127
    },
    {
      "midi": 67,
      "hit": false,
      "t": 127149.38224999863,
      "d": 140.18674999999348,
      "v": 127
    },
    {
      "midi": 52,
      "hit": false,
      "t": 127149.38224999925,
      "d": 140.18674999999348,
      "v": 127
    },
    {
      "midi": 68,
      "hit": false,
      "t": 127289.56899999862,
      "d": 140.18674999999348,
      "v": 127
    },
    {
      "midi": 53,
      "hit": false,
      "t": 127289.56899999925,
      "d": 140.18674999999348,
      "v": 127
    },
    {
      "midi": 67,
      "hit": false,
      "t": 127429.75574999861,
      "d": 140.18674999999348,
      "v": 127
    },
    {
      "midi": 55,
      "hit": false,
      "t": 127429.75574999924,
      "d": 140.18674999999348,
      "v": 127
    },
    {
      "midi": 65,
      "hit": false,
      "t": 127569.94249999861,
      "d": 420.560249999995,
      "v": 127
    },
    {
      "midi": 56,
      "hit": false,
      "t": 127569.94249999923,
      "d": 140.18674999999348,
      "v": 127
    },
    {
      "midi": 53,
      "hit": false,
      "t": 127710.12924999923,
      "d": 140.18674999999348,
      "v": 127
    },
    {
      "midi": 50,
      "hit": false,
      "t": 127850.31599999922,
      "d": 280.3735000000015,
      "v": 127
    },
    {
      "midi": 68,
      "hit": false,
      "t": 127990.5027499986,
      "d": 140.18674999999348,
      "v": 127
    },
    {
      "midi": 67,
      "hit": false,
      "t": 128130.6894999986,
      "d": 140.18674999999348,
      "v": 127
    },
    {
      "midi": 53,
      "hit": false,
      "t": 128130.68949999922,
      "d": 280.3735000000015,
      "v": 127
    },
    {
      "midi": 65,
      "hit": false,
      "t": 128270.87624999859,
      "d": 140.18674999999348,
      "v": 127
    },
    {
      "midi": 63,
      "hit": false,
      "t": 128411.06299999858,
      "d": 140.18674999999348,
      "v": 127
    },
    {
      "midi": 46,
      "hit": false,
      "t": 128411.06299999922,
      "d": 280.3735000000015,
      "v": 127
    },
    {
      "midi": 62,
      "hit": false,
      "t": 128551.24974999858,
      "d": 140.18674999999348,
      "v": 127
    },
    {
      "midi": 60,
      "hit": false,
      "t": 128691.43649999857,
      "d": 140.18674999999348,
      "v": 127
    },
    {
      "midi": 56,
      "hit": false,
      "t": 128691.43649999922,
      "d": 280.3735000000015,
      "v": 127
    },
    {
      "midi": 58,
      "hit": false,
      "t": 128831.62324999856,
      "d": 140.18674999999348,
      "v": 127
    },
    {
      "midi": 67,
      "hit": false,
      "t": 128971.80999999856,
      "d": 140.18674999999348,
      "v": 127
    },
    {
      "midi": 51,
      "hit": false,
      "t": 128971.80999999923,
      "d": 140.18674999999348,
      "v": 127
    },
    {
      "midi": 65,
      "hit": false,
      "t": 129111.99674999855,
      "d": 140.18674999999348,
      "v": 127
    },
    {
      "midi": 53,
      "hit": false,
      "t": 129111.99674999922,
      "d": 140.18674999999348,
      "v": 127
    },
    {
      "midi": 63,
      "hit": false,
      "t": 129252.18349999854,
      "d": 420.560249999995,
      "v": 127
    },
    {
      "midi": 55,
      "hit": false,
      "t": 129252.18349999921,
      "d": 140.18674999999348,
      "v": 127
    },
    {
      "midi": 51,
      "hit": false,
      "t": 129392.3702499992,
      "d": 140.18674999999348,
      "v": 127
    },
    {
      "midi": 48,
      "hit": false,
      "t": 129532.5569999992,
      "d": 280.3735000000015,
      "v": 127
    },
    {
      "midi": 67,
      "hit": false,
      "t": 129672.74374999854,
      "d": 140.18674999999348,
      "v": 127
    },
    {
      "midi": 65,
      "hit": false,
      "t": 129812.93049999853,
      "d": 140.18674999999348,
      "v": 127
    },
    {
      "midi": 51,
      "hit": false,
      "t": 129812.9304999992,
      "d": 280.3735000000015,
      "v": 127
    },
    {
      "midi": 63,
      "hit": false,
      "t": 129953.11724999853,
      "d": 140.18674999999348,
      "v": 127
    },
    {
      "midi": 62,
      "hit": false,
      "t": 130093.30399999852,
      "d": 140.18674999999348,
      "v": 127
    },
    {
      "midi": 44,
      "hit": false,
      "t": 130093.3039999992,
      "d": 280.3735000000015,
      "v": 127
    },
    {
      "midi": 60,
      "hit": false,
      "t": 130233.49074999851,
      "d": 140.18674999999348,
      "v": 127
    },
    {
      "midi": 59,
      "hit": false,
      "t": 130373.6774999985,
      "d": 140.18674999999348,
      "v": 127
    },
    {
      "midi": 54,
      "hit": false,
      "t": 130373.6774999992,
      "d": 280.3735000000015,
      "v": 127
    },
    {
      "midi": 60,
      "hit": false,
      "t": 130513.8642499985,
      "d": 140.18674999999348,
      "v": 127
    },
    {
      "midi": 65,
      "hit": false,
      "t": 130654.0509999985,
      "d": 140.18674999999348,
      "v": 127
    },
    {
      "midi": 50,
      "hit": false,
      "t": 130654.0509999992,
      "d": 140.18674999999348,
      "v": 127
    },
    {
      "midi": 63,
      "hit": false,
      "t": 130794.23774999849,
      "d": 140.18674999999348,
      "v": 127
    },
    {
      "midi": 51,
      "hit": false,
      "t": 130794.2377499992,
      "d": 140.18674999999348,
      "v": 127
    },
    {
      "midi": 62,
      "hit": false,
      "t": 130934.42449999848,
      "d": 420.56025000000955,
      "v": 127
    },
    {
      "midi": 53,
      "hit": false,
      "t": 130934.4244999992,
      "d": 140.18675000000803,
      "v": 127
    },
    {
      "midi": 50,
      "hit": false,
      "t": 131074.6112499992,
      "d": 140.18674999999348,
      "v": 127
    },
    {
      "midi": 47,
      "hit": false,
      "t": 131214.7979999992,
      "d": 280.37349999998696,
      "v": 127
    },
    {
      "midi": 65,
      "hit": false,
      "t": 131354.9847499985,
      "d": 140.18674999999348,
      "v": 127
    },
    {
      "midi": 63,
      "hit": false,
      "t": 131495.17149999848,
      "d": 140.18674999999348,
      "v": 127
    },
    {
      "midi": 50,
      "hit": false,
      "t": 131495.17149999918,
      "d": 280.37349999998696,
      "v": 127
    },
    {
      "midi": 62,
      "hit": false,
      "t": 131635.35824999848,
      "d": 140.18674999999348,
      "v": 127
    },
    {
      "midi": 60,
      "hit": false,
      "t": 131775.54499999847,
      "d": 140.18674999999348,
      "v": 127
    },
    {
      "midi": 43,
      "hit": false,
      "t": 131775.54499999917,
      "d": 280.37349999998696,
      "v": 127
    },
    {
      "midi": 59,
      "hit": false,
      "t": 131915.73174999846,
      "d": 140.18674999999348,
      "v": 127
    },
    {
      "midi": 57,
      "hit": false,
      "t": 132055.91849999846,
      "d": 140.18674999999348,
      "v": 127
    },
    {
      "midi": 53,
      "hit": false,
      "t": 132055.91849999916,
      "d": 280.37349999998696,
      "v": 127
    },
    {
      "midi": 55,
      "hit": false,
      "t": 132196.10524999845,
      "d": 140.18674999999348,
      "v": 127
    },
    {
      "midi": 63,
      "hit": false,
      "t": 132336.29199999844,
      "d": 140.18674999999348,
      "v": 127
    },
    {
      "midi": 48,
      "hit": false,
      "t": 132336.29199999914,
      "d": 140.18674999999348,
      "v": 127
    },
    {
      "midi": 65,
      "hit": false,
      "t": 132476.47874999844,
      "d": 140.18674999999348,
      "v": 127
    },
    {
      "midi": 50,
      "hit": false,
      "t": 132476.47874999914,
      "d": 140.18674999999348,
      "v": 127
    },
    {
      "midi": 67,
      "hit": false,
      "t": 132616.66549999843,
      "d": 560.747000000003,
      "v": 127
    },
    {
      "midi": 51,
      "hit": false,
      "t": 132616.66549999913,
      "d": 140.18674999999348,
      "v": 127
    },
    {
      "midi": 48,
      "hit": false,
      "t": 132756.85224999912,
      "d": 140.18674999999348,
      "v": 127
    },
    {
      "midi": 44,
      "hit": false,
      "t": 132897.03899999912,
      "d": 140.18674999999348,
      "v": 127
    },
    {
      "midi": 48,
      "hit": false,
      "t": 133037.2257499991,
      "d": 140.18674999999348,
      "v": 127
    },
    {
      "midi": 65,
      "hit": false,
      "t": 133177.41249999843,
      "d": 140.18674999999348,
      "v": 127
    },
    {
      "midi": 43,
      "hit": false,
      "t": 133177.4124999991,
      "d": 140.18674999999348,
      "v": 127
    },
    {
      "midi": 63,
      "hit": false,
      "t": 133317.59924999843,
      "d": 140.18674999999348,
      "v": 127
    },
    {
      "midi": 48,
      "hit": false,
      "t": 133317.5992499991,
      "d": 140.18674999999348,
      "v": 127
    },
    {
      "midi": 62,
      "hit": false,
      "t": 133457.78599999842,
      "d": 140.18674999999348,
      "v": 127
    },
    {
      "midi": 42,
      "hit": false,
      "t": 133457.7859999991,
      "d": 140.18674999999348,
      "v": 127
    },
    {
      "midi": 68,
      "hit": false,
      "t": 133597.97274999841,
      "d": 140.18674999999348,
      "v": 127
    },
    {
      "midi": 51,
      "hit": false,
      "t": 133597.97274999908,
      "d": 140.18674999999348,
      "v": 127
    },
    {
      "midi": 71,
      "hit": false,
      "t": 133738.1594999984,
      "d": 140.18674999999348,
      "v": 127
    },
    {
      "midi": 50,
      "hit": false,
      "t": 133738.15949999908,
      "d": 140.18674999999348,
      "v": 127
    },
    {
      "midi": 72,
      "hit": false,
      "t": 133878.3462499984,
      "d": 140.18674999999348,
      "v": 127
    },
    {
      "midi": 48,
      "hit": false,
      "t": 133878.34624999907,
      "d": 140.18674999999348,
      "v": 127
    },
    {
      "midi": 74,
      "hit": false,
      "t": 134018.5329999984,
      "d": 140.18674999999348,
      "v": 127
    },
    {
      "midi": 47,
      "hit": false,
      "t": 134018.53299999906,
      "d": 140.18674999999348,
      "v": 127
    },
    {
      "midi": 72,
      "hit": false,
      "t": 134158.7197499984,
      "d": 140.18674999999348,
      "v": 127
    },
    {
      "midi": 45,
      "hit": false,
      "t": 134158.71974999906,
      "d": 140.18674999999348,
      "v": 127
    },
    {
      "midi": 71,
      "hit": false,
      "t": 134298.90649999838,
      "d": 140.18674999999348,
      "v": 127
    },
    {
      "midi": 43,
      "hit": false,
      "t": 134298.90649999905,
      "d": 140.18674999999348,
      "v": 127
    },
    {
      "midi": 72,
      "hit": false,
      "t": 134439.09324999838,
      "d": 140.18674999999348,
      "v": 127
    },
    {
      "midi": 45,
      "hit": false,
      "t": 134439.09324999904,
      "d": 140.18674999999348,
      "v": 127
    },
    {
      "midi": 74,
      "hit": false,
      "t": 134579.27999999837,
      "d": 140.18674999999348,
      "v": 127
    },
    {
      "midi": 47,
      "hit": false,
      "t": 134579.27999999904,
      "d": 280.37349999998696,
      "v": 127
    },
    {
      "midi": 79,
      "hit": false,
      "t": 134719.46674999836,
      "d": 140.18674999999348,
      "v": 127
    },
    {
      "midi": 77,
      "hit": false,
      "t": 134859.65349999836,
      "d": 140.18674999999348,
      "v": 127
    },
    {
      "midi": 48,
      "hit": false,
      "t": 134859.65349999903,
      "d": 280.37349999998696,
      "v": 127
    },
    {
      "midi": 75,
      "hit": false,
      "t": 134999.84024999835,
      "d": 140.18674999999348,
      "v": 127
    },
    {
      "midi": 74,
      "hit": false,
      "t": 135140.02699999834,
      "d": 140.18674999999348,
      "v": 127
    },
    {
      "midi": 50,
      "hit": false,
      "t": 135140.026999999,
      "d": 280.37349999998696,
      "v": 127
    },
    {
      "midi": 72,
      "hit": false,
      "t": 135280.21374999834,
      "d": 140.18674999999348,
      "v": 127
    },
    {
      "midi": 71,
      "hit": false,
      "t": 135420.40049999833,
      "d": 140.18674999999348,
      "v": 127
    },
    {
      "midi": 51,
      "hit": false,
      "t": 135420.400499999,
      "d": 280.37349999998696,
      "v": 127
    },
    {
      "midi": 69,
      "hit": false,
      "t": 135560.58724999832,
      "d": 140.18674999999348,
      "v": 127
    },
    {
      "midi": 67,
      "hit": false,
      "t": 135700.77399999832,
      "d": 560.747000000003,
      "v": 127
    },
    {
      "midi": 53,
      "hit": false,
      "t": 135700.773999999,
      "d": 140.18674999999348,
      "v": 127
    },
    {
      "midi": 51,
      "hit": false,
      "t": 135840.96074999898,
      "d": 140.18674999999348,
      "v": 127
    },
    {
      "midi": 50,
      "hit": false,
      "t": 135981.14749999897,
      "d": 140.18674999999348,
      "v": 127
    },
    {
      "midi": 51,
      "hit": false,
      "t": 136121.33424999897,
      "d": 140.18674999999348,
      "v": 127
    },
    {
      "midi": 53,
      "hit": false,
      "t": 136261.52099999896,
      "d": 280.37349999998696,
      "v": 127
    },
    {
      "midi": 69,
      "hit": false,
      "t": 136401.7077499983,
      "d": 140.18674999999348,
      "v": 127
    },
    {
      "midi": 71,
      "hit": false,
      "t": 136541.8944999983,
      "d": 140.18674999999348,
      "v": 127
    },
    {
      "midi": 55,
      "hit": false,
      "t": 136541.89449999895,
      "d": 280.37349999998696,
      "v": 127
    },
    {
      "midi": 72,
      "hit": false,
      "t": 136682.0812499983,
      "d": 140.18674999999348,
      "v": 127
    },
    {
      "midi": 74,
      "hit": false,
      "t": 136822.2679999983,
      "d": 140.18674999999348,
      "v": 127
    },
    {
      "midi": 56,
      "hit": false,
      "t": 136822.26799999893,
      "d": 280.37349999998696,
      "v": 127
    },
    {
      "midi": 75,
      "hit": false,
      "t": 136962.4547499983,
      "d": 140.18674999999348,
      "v": 127
    },
    {
      "midi": 77,
      "hit": false,
      "t": 137102.64149999828,
      "d": 140.18674999999348,
      "v": 127
    },
    {
      "midi": 50,
      "hit": false,
      "t": 137102.64149999892,
      "d": 280.37349999998696,
      "v": 127
    },
    {
      "midi": 74,
      "hit": false,
      "t": 137242.82824999827,
      "d": 140.18674999999348,
      "v": 127
    },
    {
      "midi": 71,
      "hit": false,
      "t": 137383.01499999827,
      "d": 280.37349999998696,
      "v": 127
    },
    {
      "midi": 53,
      "hit": false,
      "t": 137383.0149999989,
      "d": 280.37349999998696,
      "v": 127
    },
    {
      "midi": 80,
      "hit": false,
      "t": 137663.38849999825,
      "d": 420.56025000000955,
      "v": 127
    },
    {
      "midi": 47,
      "hit": false,
      "t": 137663.3884999989,
      "d": 280.37349999998696,
      "v": 127
    },
    {
      "midi": 50,
      "hit": false,
      "t": 137943.76199999888,
      "d": 280.37349999998696,
      "v": 127
    },
    {
      "midi": 74,
      "hit": false,
      "t": 138083.94874999826,
      "d": 140.18674999999348,
      "v": 127
    },
    {
      "midi": 75,
      "hit": false,
      "t": 138224.13549999826,
      "d": 140.18674999999348,
      "v": 127
    },
    {
      "midi": 43,
      "hit": false,
      "t": 138224.13549999887,
      "d": 280.37349999998696,
      "v": 127
    },
    {
      "midi": 77,
      "hit": false,
      "t": 138364.32224999825,
      "d": 140.18674999999348,
      "v": 127
    },
    {
      "midi": 75,
      "hit": false,
      "t": 138504.50899999824,
      "d": 140.18674999999348,
      "v": 127
    },
    {
      "midi": 55,
      "hit": false,
      "t": 138504.50899999886,
      "d": 140.18674999999348,
      "v": 127
    },
    {
      "midi": 74,
      "hit": false,
      "t": 138644.69574999824,
      "d": 140.18674999999348,
      "v": 127
    },
    {
      "midi": 53,
      "hit": false,
      "t": 138644.69574999885,
      "d": 140.18674999999348,
      "v": 127
    },
    {
      "midi": 72,
      "hit": false,
      "t": 138784.88249999823,
      "d": 140.18674999999348,
      "v": 127
    },
    {
      "midi": 51,
      "hit": false,
      "t": 138784.88249999884,
      "d": 140.18674999999348,
      "v": 127
    },
    {
      "midi": 71,
      "hit": false,
      "t": 138925.06924999823,
      "d": 140.18674999999348,
      "v": 127
    },
    {
      "midi": 50,
      "hit": false,
      "t": 138925.06924999884,
      "d": 140.18674999999348,
      "v": 127
    },
    {
      "midi": 72,
      "hit": false,
      "t": 139065.25599999822,
      "d": 560.747000000003,
      "v": 127
    },
    {
      "midi": 51,
      "hit": false,
      "t": 139065.25599999883,
      "d": 140.18674999999348,
      "v": 127
    },
    {
      "midi": 50,
      "hit": false,
      "t": 139205.44274999882,
      "d": 140.18674999999348,
      "v": 127
    },
    {
      "midi": 48,
      "hit": false,
      "t": 139345.62949999882,
      "d": 140.18674999999348,
      "v": 127
    },
    {
      "midi": 50,
      "hit": false,
      "t": 139485.8162499988,
      "d": 140.18674999999348,
      "v": 127
    },
    {
      "midi": 51,
      "hit": false,
      "t": 139626.0029999988,
      "d": 280.37349999998696,
      "v": 127
    },
    {
      "midi": 79,
      "hit": false,
      "t": 139766.18974999822,
      "d": 140.18674999999348,
      "v": 127
    },
    {
      "midi": 73,
      "hit": false,
      "t": 139906.3764999982,
      "d": 140.18674999999348,
      "v": 127
    },
    {
      "midi": 53,
      "hit": false,
      "t": 139906.3764999988,
      "d": 280.37349999998696,
      "v": 127
    },
    {
      "midi": 72,
      "hit": false,
      "t": 140046.5632499982,
      "d": 140.18674999999348,
      "v": 127
    },
    {
      "midi": 70,
      "hit": false,
      "t": 140186.7499999982,
      "d": 140.18674999999348,
      "v": 127
    },
    {
      "midi": 55,
      "hit": false,
      "t": 140186.74999999878,
      "d": 280.37349999998696,
      "v": 127
    },
    {
      "midi": 75,
      "hit": false,
      "t": 140326.9367499982,
      "d": 140.18674999999348,
      "v": 127
    },
    {
      "midi": 70,
      "hit": false,
      "t": 140467.12349999818,
      "d": 140.18674999999348,
      "v": 127
    },
    {
      "midi": 56,
      "hit": false,
      "t": 140467.12349999876,
      "d": 280.37349999998696,
      "v": 127
    },
    {
      "midi": 68,
      "hit": false,
      "t": 140607.31024999818,
      "d": 140.18674999999348,
      "v": 127
    },
    {
      "midi": 67,
      "hit": false,
      "t": 140747.49699999817,
      "d": 140.18674999999348,
      "v": 127
    },
    {
      "midi": 58,
      "hit": false,
      "t": 140747.49699999875,
      "d": 140.18674999999348,
      "v": 127
    },
    {
      "midi": 68,
      "hit": false,
      "t": 140887.68374999816,
      "d": 140.18674999999348,
      "v": 127
    },
    {
      "midi": 56,
      "hit": false,
      "t": 140887.68374999875,
      "d": 140.18674999999348,
      "v": 127
    },
    {
      "midi": 70,
      "hit": false,
      "t": 141027.87049999816,
      "d": 140.18674999999348,
      "v": 127
    },
    {
      "midi": 55,
      "hit": false,
      "t": 141027.87049999874,
      "d": 140.18674999999348,
      "v": 127
    },
    {
      "midi": 72,
      "hit": false,
      "t": 141168.05724999815,
      "d": 140.18674999999348,
      "v": 127
    },
    {
      "midi": 53,
      "hit": false,
      "t": 141168.05724999873,
      "d": 140.18674999999348,
      "v": 127
    },
    {
      "midi": 73,
      "hit": false,
      "t": 141308.24399999814,
      "d": 280.37349999998696,
      "v": 127
    },
    {
      "midi": 51,
      "hit": false,
      "t": 141308.24399999873,
      "d": 140.18674999999348,
      "v": 127
    },
    {
      "midi": 58,
      "hit": false,
      "t": 141448.43074999872,
      "d": 140.18674999999348,
      "v": 127
    },
    {
      "midi": 70,
      "hit": false,
      "t": 141588.61749999813,
      "d": 280.37349999998696,
      "v": 127
    },
    {
      "midi": 53,
      "hit": false,
      "t": 141588.6174999987,
      "d": 140.18674999999348,
      "v": 127
    },
    {
      "midi": 51,
      "hit": false,
      "t": 141728.8042499987,
      "d": 140.18674999999348,
      "v": 127
    },
    {
      "midi": 79,
      "hit": false,
      "t": 141868.99099999812,
      "d": 560.747000000003,
      "v": 127
    },
    {
      "midi": 49,
      "hit": false,
      "t": 141868.9909999987,
      "d": 140.18674999999348,
      "v": 127
    },
    {
      "midi": 58,
      "hit": false,
      "t": 142009.1777499987,
      "d": 140.18674999999348,
      "v": 127
    },
    {
      "midi": 51,
      "hit": false,
      "t": 142149.3644999987,
      "d": 140.18674999999348,
      "v": 127
    },
    {
      "midi": 49,
      "hit": false,
      "t": 142289.55124999868,
      "d": 140.18674999999348,
      "v": 127
    },
    {
      "midi": 48,
      "hit": false,
      "t": 142429.73799999867,
      "d": 140.18674999999348,
      "v": 127
    },
    {
      "midi": 46,
      "hit": false,
      "t": 142569.92474999867,
      "d": 140.18674999999348,
      "v": 127
    },
    {
      "midi": 72,
      "hit": false,
      "t": 142710.1114999981,
      "d": 140.18674999999348,
      "v": 127
    },
    {
      "midi": 44,
      "hit": false,
      "t": 142710.11149999866,
      "d": 140.18674999999348,
      "v": 127
    },
    {
      "midi": 70,
      "hit": false,
      "t": 142850.2982499981,
      "d": 140.18674999999348,
      "v": 127
    },
    {
      "midi": 46,
      "hit": false,
      "t": 142850.29824999865,
      "d": 140.18674999999348,
      "v": 127
    },
    {
      "midi": 68,
      "hit": false,
      "t": 142990.4849999981,
      "d": 140.18674999999348,
      "v": 127
    },
    {
      "midi": 48,
      "hit": false,
      "t": 142990.48499999865,
      "d": 280.37349999998696,
      "v": 127
    },
    {
      "midi": 77,
      "hit": false,
      "t": 143130.6717499981,
      "d": 140.18674999999348,
      "v": 127
    },
    {
      "midi": 70,
      "hit": false,
      "t": 143270.85849999808,
      "d": 140.18674999999348,
      "v": 127
    },
    {
      "midi": 50,
      "hit": false,
      "t": 143270.85849999863,
      "d": 280.37349999998696,
      "v": 127
    },
    {
      "midi": 68,
      "hit": false,
      "t": 143411.04524999807,
      "d": 140.18674999999348,
      "v": 127
    },
    {
      "midi": 67,
      "hit": false,
      "t": 143551.23199999807,
      "d": 140.18674999999348,
      "v": 127
    },
    {
      "midi": 52,
      "hit": false,
      "t": 143551.23199999862,
      "d": 280.37349999998696,
      "v": 127
    },
    {
      "midi": 73,
      "hit": false,
      "t": 143691.41874999806,
      "d": 140.18674999999348,
      "v": 127
    },
    {
      "midi": 67,
      "hit": false,
      "t": 143831.60549999806,
      "d": 140.18674999999348,
      "v": 127
    },
    {
      "midi": 53,
      "hit": false,
      "t": 143831.6054999986,
      "d": 280.37349999998696,
      "v": 127
    },
    {
      "midi": 65,
      "hit": false,
      "t": 143971.79224999805,
      "d": 140.18674999999348,
      "v": 127
    },
    {
      "midi": 64,
      "hit": false,
      "t": 144111.97899999804,
      "d": 140.18674999999348,
      "v": 127
    },
    {
      "midi": 55,
      "hit": false,
      "t": 144111.9789999986,
      "d": 140.18674999999348,
      "v": 127
    },
    {
      "midi": 65,
      "hit": false,
      "t": 144252.16574999804,
      "d": 140.18674999999348,
      "v": 127
    },
    {
      "midi": 53,
      "hit": false,
      "t": 144252.1657499986,
      "d": 140.18674999999348,
      "v": 127
    },
    {
      "midi": 67,
      "hit": false,
      "t": 144392.35249999803,
      "d": 140.18674999999348,
      "v": 127
    },
    {
      "midi": 52,
      "hit": false,
      "t": 144392.35249999858,
      "d": 140.18674999999348,
      "v": 127
    },
    {
      "midi": 68,
      "hit": false,
      "t": 144532.53924999802,
      "d": 140.18674999999348,
      "v": 127
    },
    {
      "midi": 50,
      "hit": false,
      "t": 144532.53924999858,
      "d": 140.18674999999348,
      "v": 127
    },
    {
      "midi": 70,
      "hit": false,
      "t": 144672.72599999802,
      "d": 280.37349999998696,
      "v": 127
    },
    {
      "midi": 48,
      "hit": false,
      "t": 144672.72599999857,
      "d": 140.18674999999348,
      "v": 127
    },
    {
      "midi": 55,
      "hit": false,
      "t": 144812.91274999856,
      "d": 140.18674999999348,
      "v": 127
    },
    {
      "midi": 67,
      "hit": false,
      "t": 144953.099499998,
      "d": 280.37349999998696,
      "v": 127
    },
    {
      "midi": 50,
      "hit": false,
      "t": 144953.09949999856,
      "d": 140.18674999999348,
      "v": 127
    },
    {
      "midi": 48,
      "hit": false,
      "t": 145093.28624999855,
      "d": 140.18674999999348,
      "v": 127
    },
    {
      "midi": 76,
      "hit": false,
      "t": 145233.472999998,
      "d": 420.56025000000955,
      "v": 127
    },
    {
      "midi": 46,
      "hit": false,
      "t": 145233.47299999854,
      "d": 140.18674999999348,
      "v": 127
    },
    {
      "midi": 55,
      "hit": false,
      "t": 145373.65974999854,
      "d": 140.18674999999348,
      "v": 127
    },
    {
      "midi": 48,
      "hit": false,
      "t": 145513.84649999853,
      "d": 140.18674999999348,
      "v": 127
    },
    {
      "midi": 74,
      "hit": false,
      "t": 145654.033249998,
      "d": 140.18674999999348,
      "v": 127
    },
    {
      "midi": 76,
      "hit": false,
      "t": 145654.033249998,
      "d": 140.18674999999348,
      "v": 127
    },
    {
      "midi": 46,
      "hit": false,
      "t": 145654.03324999852,
      "d": 140.18674999999348,
      "v": 127
    },
    {
      "midi": 77,
      "hit": false,
      "t": 145794.219999998,
      "d": 280.37349999998696,
      "v": 127
    },
    {
      "midi": 44,
      "hit": false,
      "t": 145794.21999999852,
      "d": 140.18674999999348,
      "v": 127
    },
    {
      "midi": 53,
      "hit": false,
      "t": 145934.4067499985,
      "d": 140.18674999999348,
      "v": 127
    },
    {
      "midi": 65,
      "hit": false,
      "t": 146074.59349999798,
      "d": 140.18674999999348,
      "v": 127
    },
    {
      "midi": 44,
      "hit": false,
      "t": 146074.5934999985,
      "d": 140.18674999999348,
      "v": 127
    },
    {
      "midi": 67,
      "hit": false,
      "t": 146214.78024999797,
      "d": 140.18674999999348,
      "v": 127
    },
    {
      "midi": 43,
      "hit": false,
      "t": 146214.7802499985,
      "d": 140.18674999999348,
      "v": 127
    },
    {
      "midi": 68,
      "hit": false,
      "t": 146354.96699999797,
      "d": 280.37349999998696,
      "v": 127
    },
    {
      "midi": 41,
      "hit": false,
      "t": 146354.9669999985,
      "d": 140.18674999999348,
      "v": 127
    },
    {
      "midi": 48,
      "hit": false,
      "t": 146495.15374999848,
      "d": 140.18674999999348,
      "v": 127
    },
    {
      "midi": 70,
      "hit": false,
      "t": 146635.34049999795,
      "d": 280.37349999998696,
      "v": 127
    },
    {
      "midi": 49,
      "hit": false,
      "t": 146635.34049999848,
      "d": 140.18674999999348,
      "v": 127
    },
    {
      "midi": 43,
      "hit": false,
      "t": 146775.52724999847,
      "d": 140.18674999999348,
      "v": 127
    },
    {
      "midi": 72,
      "hit": false,
      "t": 146915.71399999794,
      "d": 280.37349999998696,
      "v": 127
    },
    {
      "midi": 45,
      "hit": false,
      "t": 146915.71399999846,
      "d": 140.18674999999348,
      "v": 127
    },
    {
      "midi": 51,
      "hit": false,
      "t": 147055.90074999846,
      "d": 140.18674999999348,
      "v": 127
    },
    {
      "midi": 74,
      "hit": false,
      "t": 147196.08749999793,
      "d": 280.37349999998696,
      "v": 127
    },
    {
      "midi": 53,
      "hit": false,
      "t": 147196.08749999845,
      "d": 140.18674999999348,
      "v": 127
    },
    {
      "midi": 47,
      "hit": false,
      "t": 147336.27424999845,
      "d": 140.18674999999348,
      "v": 127
    },
    {
      "midi": 75,
      "hit": false,
      "t": 147476.46099999791,
      "d": 140.18674999999348,
      "v": 127
    },
    {
      "midi": 48,
      "hit": false,
      "t": 147476.46099999844,
      "d": 140.18674999999348,
      "v": 127
    },
    {
      "midi": 74,
      "hit": false,
      "t": 147616.6477499979,
      "d": 140.18674999999348,
      "v": 127
    },
    {
      "midi": 53,
      "hit": false,
      "t": 147616.64774999843,
      "d": 140.18674999999348,
      "v": 127
    },
    {
      "midi": 72,
      "hit": false,
      "t": 147756.8344999979,
      "d": 140.18674999999348,
      "v": 127
    },
    {
      "midi": 51,
      "hit": false,
      "t": 147756.83449999843,
      "d": 140.18674999999348,
      "v": 127
    },
    {
      "midi": 74,
      "hit": false,
      "t": 147897.0212499979,
      "d": 140.18674999999348,
      "v": 127
    },
    {
      "midi": 50,
      "hit": false,
      "t": 147897.02124999842,
      "d": 140.18674999999348,
      "v": 127
    },
    {
      "midi": 75,
      "hit": false,
      "t": 148037.2079999979,
      "d": 280.37349999998696,
      "v": 127
    },
    {
      "midi": 48,
      "hit": false,
      "t": 148037.2079999984,
      "d": 140.18674999999348,
      "v": 127
    },
    {
      "midi": 55,
      "hit": false,
      "t": 148177.3947499984,
      "d": 140.18674999999348,
      "v": 127
    },
    {
      "midi": 77,
      "hit": false,
      "t": 148317.58149999788,
      "d": 280.37349999998696,
      "v": 127
    },
    {
      "midi": 56,
      "hit": false,
      "t": 148317.5814999984,
      "d": 140.18674999999348,
      "v": 127
    },
    {
      "midi": 50,
      "hit": false,
      "t": 148457.7682499984,
      "d": 140.18674999999348,
      "v": 127
    },
    {
      "midi": 79,
      "hit": false,
      "t": 148597.95499999786,
      "d": 280.37349999998696,
      "v": 127
    },
    {
      "midi": 51,
      "hit": false,
      "t": 148597.9549999984,
      "d": 140.18674999999348,
      "v": 127
    },
    {
      "midi": 59,
      "hit": false,
      "t": 148738.14174999838,
      "d": 140.18674999999348,
      "v": 127
    },
    {
      "midi": 80,
      "hit": false,
      "t": 148878.32849999785,
      "d": 280.37349999998696,
      "v": 127
    },
    {
      "midi": 60,
      "hit": false,
      "t": 148878.32849999837,
      "d": 140.18674999999348,
      "v": 127
    },
    {
      "midi": 53,
      "hit": false,
      "t": 149018.51524999837,
      "d": 140.18674999999348,
      "v": 127
    },
    {
      "midi": 71,
      "hit": false,
      "t": 149158.70199999784,
      "d": 140.18674999999348,
      "v": 127
    },
    {
      "midi": 55,
      "hit": false,
      "t": 149158.70199999836,
      "d": 280.37349999998696,
      "v": 127
    },
    {
      "midi": 79,
      "hit": false,
      "t": 149298.88874999783,
      "d": 140.18674999999348,
      "v": 127
    },
    {
      "midi": 74,
      "hit": false,
      "t": 149439.07549999782,
      "d": 140.18674999999348,
      "v": 127
    },
    {
      "midi": 43,
      "hit": false,
      "t": 149439.07549999835,
      "d": 420.56025000000955,
      "v": 127
    },
    {
      "midi": 72,
      "hit": false,
      "t": 149579.26224999782,
      "d": 140.18674999999348,
      "v": 127
    },
    {
      "midi": 71,
      "hit": false,
      "t": 149719.4489999978,
      "d": 140.18674999999348,
      "v": 127
    },
    {
      "midi": 72,
      "hit": false,
      "t": 149859.6357499978,
      "d": 140.18674999999348,
      "v": 127
    },
    {
      "midi": 69,
      "hit": false,
      "t": 149859.63574999836,
      "d": 140.18674999999348,
      "v": 127
    },
    {
      "midi": 74,
      "hit": false,
      "t": 149999.8224999978,
      "d": 140.18674999999348,
      "v": 127
    },
    {
      "midi": 71,
      "hit": false,
      "t": 149999.82249999835,
      "d": 140.18674999999348,
      "v": 127
    },
    {
      "midi": 75,
      "hit": false,
      "t": 150140.0092499978,
      "d": 140.18674999999348,
      "v": 127
    },
    {
      "midi": 72,
      "hit": false,
      "t": 150140.00924999834,
      "d": 140.18674999999348,
      "v": 127
    },
    {
      "midi": 74,
      "hit": false,
      "t": 150280.19599999778,
      "d": 140.18674999999348,
      "v": 127
    },
    {
      "midi": 71,
      "hit": false,
      "t": 150280.19599999834,
      "d": 280.37349999998696,
      "v": 127
    },
    {
      "midi": 79,
      "hit": false,
      "t": 150420.38274999778,
      "d": 140.18674999999348,
      "v": 127
    },
    {
      "midi": 74,
      "hit": false,
      "t": 150560.56949999777,
      "d": 140.18674999999348,
      "v": 127
    },
    {
      "midi": 69,
      "hit": false,
      "t": 150560.56949999832,
      "d": 280.37349999998696,
      "v": 127
    },
    {
      "midi": 72,
      "hit": false,
      "t": 150700.75624999776,
      "d": 140.18674999999348,
      "v": 127
    },
    {
      "midi": 71,
      "hit": false,
      "t": 150840.94299999776,
      "d": 140.18674999999348,
      "v": 127
    },
    {
      "midi": 67,
      "hit": false,
      "t": 150840.9429999983,
      "d": 280.37349999998696,
      "v": 127
    },
    {
      "midi": 79,
      "hit": false,
      "t": 150981.12974999775,
      "d": 140.18674999999348,
      "v": 127
    },
    {
      "midi": 74,
      "hit": false,
      "t": 151121.31649999775,
      "d": 140.18674999999348,
      "v": 127
    },
    {
      "midi": 55,
      "hit": false,
      "t": 151121.3164999983,
      "d": 420.56025000000955,
      "v": 127
    },
    {
      "midi": 72,
      "hit": false,
      "t": 151261.50324999774,
      "d": 140.18674999999348,
      "v": 127
    },
    {
      "midi": 71,
      "hit": false,
      "t": 151401.68999999773,
      "d": 140.18674999999348,
      "v": 127
    },
    {
      "midi": 72,
      "hit": false,
      "t": 151541.87674999773,
      "d": 140.18674999999348,
      "v": 127
    },
    {
      "midi": 63,
      "hit": false,
      "t": 151541.8767499983,
      "d": 140.18674999999348,
      "v": 127
    },
    {
      "midi": 74,
      "hit": false,
      "t": 151682.06349999772,
      "d": 140.18674999999348,
      "v": 127
    },
    {
      "midi": 65,
      "hit": false,
      "t": 151682.0634999983,
      "d": 140.18674999999348,
      "v": 127
    },
    {
      "midi": 75,
      "hit": false,
      "t": 151822.2502499977,
      "d": 140.18674999999348,
      "v": 127
    },
    {
      "midi": 67,
      "hit": false,
      "t": 151822.2502499983,
      "d": 140.18674999999348,
      "v": 127
    },
    {
      "midi": 74,
      "hit": false,
      "t": 151962.4369999977,
      "d": 140.18674999999348,
      "v": 127
    },
    {
      "midi": 65,
      "hit": false,
      "t": 151962.4369999983,
      "d": 280.37349999998696,
      "v": 127
    },
    {
      "midi": 79,
      "hit": false,
      "t": 152102.6237499977,
      "d": 140.18674999999348,
      "v": 127
    },
    {
      "midi": 74,
      "hit": false,
      "t": 152242.8104999977,
      "d": 140.18674999999348,
      "v": 127
    },
    {
      "midi": 63,
      "hit": false,
      "t": 152242.81049999828,
      "d": 280.37349999998696,
      "v": 127
    },
    {
      "midi": 72,
      "hit": false,
      "t": 152382.9972499977,
      "d": 140.18674999999348,
      "v": 127
    },
    {
      "midi": 71,
      "hit": false,
      "t": 152523.18399999768,
      "d": 140.18674999999348,
      "v": 127
    },
    {
      "midi": 62,
      "hit": false,
      "t": 152523.18399999826,
      "d": 280.37349999998696,
      "v": 127
    },
    {
      "midi": 79,
      "hit": false,
      "t": 152663.37074999767,
      "d": 140.18674999999348,
      "v": 127
    },
    {
      "midi": 74,
      "hit": false,
      "t": 152803.55749999767,
      "d": 140.18674999999348,
      "v": 127
    },
    {
      "midi": 55,
      "hit": false,
      "t": 152803.55749999825,
      "d": 420.56025000000955,
      "v": 127
    },
    {
      "midi": 72,
      "hit": false,
      "t": 152943.74424999766,
      "d": 140.18674999999348,
      "v": 127
    },
    {
      "midi": 71,
      "hit": false,
      "t": 153083.93099999765,
      "d": 140.18674999999348,
      "v": 127
    },
    {
      "midi": 72,
      "hit": false,
      "t": 153224.11774999765,
      "d": 140.18674999999348,
      "v": 127
    },
    {
      "midi": 57,
      "hit": false,
      "t": 153224.11774999826,
      "d": 140.18674999999348,
      "v": 127
    },
    {
      "midi": 74,
      "hit": false,
      "t": 153364.30449999764,
      "d": 140.18674999999348,
      "v": 127
    },
    {
      "midi": 59,
      "hit": false,
      "t": 153364.30449999825,
      "d": 140.18674999999348,
      "v": 127
    },
    {
      "midi": 75,
      "hit": false,
      "t": 153504.49124999763,
      "d": 140.18674999999348,
      "v": 127
    },
    {
      "midi": 60,
      "hit": false,
      "t": 153504.49124999825,
      "d": 140.18674999999348,
      "v": 127
    },
    {
      "midi": 74,
      "hit": false,
      "t": 153644.67799999763,
      "d": 140.18674999999348,
      "v": 127
    },
    {
      "midi": 59,
      "hit": false,
      "t": 153644.67799999824,
      "d": 280.37349999998696,
      "v": 127
    },
    {
      "midi": 77,
      "hit": false,
      "t": 153784.86474999762,
      "d": 140.18674999999348,
      "v": 127
    },
    {
      "midi": 74,
      "hit": false,
      "t": 153925.05149999761,
      "d": 140.18674999999348,
      "v": 127
    },
    {
      "midi": 57,
      "hit": false,
      "t": 153925.05149999823,
      "d": 280.37349999998696,
      "v": 127
    },
    {
      "midi": 72,
      "hit": false,
      "t": 154065.2382499976,
      "d": 140.18674999999348,
      "v": 127
    },
    {
      "midi": 71,
      "hit": false,
      "t": 154205.4249999976,
      "d": 140.18674999999348,
      "v": 127
    },
    {
      "midi": 55,
      "hit": false,
      "t": 154205.4249999982,
      "d": 280.37349999998696,
      "v": 127
    },
    {
      "midi": 77,
      "hit": false,
      "t": 154345.6117499976,
      "d": 140.18674999999348,
      "v": 127
    },
    {
      "midi": 74,
      "hit": false,
      "t": 154485.7984999976,
      "d": 140.18674999999348,
      "v": 127
    },
    {
      "midi": 43,
      "hit": false,
      "t": 154485.7984999982,
      "d": 280.37349999998696,
      "v": 127
    },
    {
      "midi": 72,
      "hit": false,
      "t": 154625.98524999758,
      "d": 140.18674999999348,
      "v": 127
    },
    {
      "midi": 71,
      "hit": false,
      "t": 154766.17199999758,
      "d": 140.18674999999348,
      "v": 127
    },
    {
      "midi": 74,
      "hit": false,
      "t": 154906.35874999757,
      "d": 140.18674999999348,
      "v": 127
    },
    {
      "midi": 77,
      "hit": false,
      "t": 155046.54549999756,
      "d": 140.18674999999348,
      "v": 127
    },
    {
      "midi": 67,
      "hit": false,
      "t": 155046.54549999817,
      "d": 140.18674999999348,
      "v": 127
    },
    {
      "midi": 80,
      "hit": false,
      "t": 155186.73224999756,
      "d": 140.18674999999348,
      "v": 127
    },
    {
      "midi": 65,
      "hit": false,
      "t": 155186.73224999817,
      "d": 140.18674999999348,
      "v": 127
    },
    {
      "midi": 79,
      "hit": false,
      "t": 155326.91899999755,
      "d": 140.18674999999348,
      "v": 127
    },
    {
      "midi": 63,
      "hit": false,
      "t": 155326.91899999816,
      "d": 140.18674999999348,
      "v": 127
    },
    {
      "midi": 77,
      "hit": false,
      "t": 155467.10574999754,
      "d": 140.18674999999348,
      "v": 127
    },
    {
      "midi": 62,
      "hit": false,
      "t": 155467.10574999815,
      "d": 140.18674999999348,
      "v": 127
    },
    {
      "midi": 75,
      "hit": false,
      "t": 155607.29249999754,
      "d": 140.18674999999348,
      "v": 127
    },
    {
      "midi": 60,
      "hit": false,
      "t": 155607.29249999815,
      "d": 140.18674999999348,
      "v": 127
    },
    {
      "midi": 74,
      "hit": false,
      "t": 155747.47924999753,
      "d": 140.18674999999348,
      "v": 127
    },
    {
      "midi": 59,
      "hit": false,
      "t": 155747.47924999814,
      "d": 140.18674999999348,
      "v": 127
    },
    {
      "midi": 75,
      "hit": false,
      "t": 155887.66599999752,
      "d": 140.18674999999348,
      "v": 127
    },
    {
      "midi": 60,
      "hit": false,
      "t": 155887.66599999813,
      "d": 280.37349999998696,
      "v": 127
    },
    {
      "midi": 77,
      "hit": false,
      "t": 156027.85274999752,
      "d": 140.18674999999348,
      "v": 127
    },
    {
      "midi": 79,
      "hit": false,
      "t": 156168.0394999975,
      "d": 140.18674999999348,
      "v": 127
    },
    {
      "midi": 48,
      "hit": false,
      "t": 156168.03949999812,
      "d": 140.18674999999348,
      "v": 127
    },
    {
      "midi": 75,
      "hit": false,
      "t": 156308.2262499975,
      "d": 140.18674999999348,
      "v": 127
    },
    {
      "midi": 50,
      "hit": false,
      "t": 156308.22624999812,
      "d": 140.18674999999348,
      "v": 127
    },
    {
      "midi": 72,
      "hit": false,
      "t": 156448.4129999975,
      "d": 140.18674999999348,
      "v": 127
    },
    {
      "midi": 51,
      "hit": false,
      "t": 156448.4129999981,
      "d": 280.37349999998696,
      "v": 127
    },
    {
      "midi": 79,
      "hit": false,
      "t": 156588.5997499975,
      "d": 140.18674999999348,
      "v": 127
    },
    {
      "midi": 77,
      "hit": false,
      "t": 156728.78649999748,
      "d": 140.18674999999348,
      "v": 127
    },
    {
      "midi": 53,
      "hit": false,
      "t": 156728.7864999981,
      "d": 280.37349999998696,
      "v": 127
    },
    {
      "midi": 75,
      "hit": false,
      "t": 156868.97324999748,
      "d": 140.18674999999348,
      "v": 127
    },
    {
      "midi": 74,
      "hit": false,
      "t": 157009.15999999747,
      "d": 140.18674999999348,
      "v": 127
    },
    {
      "midi": 55,
      "hit": false,
      "t": 157009.15999999808,
      "d": 280.37349999998696,
      "v": 127
    },
    {
      "midi": 72,
      "hit": false,
      "t": 157149.34674999746,
      "d": 140.18674999999348,
      "v": 127
    },
    {
      "midi": 70,
      "hit": false,
      "t": 157289.53349999746,
      "d": 140.18674999999348,
      "v": 127
    },
    {
      "midi": 56,
      "hit": false,
      "t": 157289.53349999807,
      "d": 280.37349999998696,
      "v": 127
    },
    {
      "midi": 68,
      "hit": false,
      "t": 157429.72024999745,
      "d": 140.18674999999348,
      "v": 127
    },
    {
      "midi": 67,
      "hit": false,
      "t": 157569.90699999745,
      "d": 140.18674999999348,
      "v": 127
    },
    {
      "midi": 58,
      "hit": false,
      "t": 157569.90699999806,
      "d": 140.18674999999348,
      "v": 127
    },
    {
      "midi": 68,
      "hit": false,
      "t": 157710.09374999744,
      "d": 140.18674999999348,
      "v": 127
    },
    {
      "midi": 56,
      "hit": false,
      "t": 157710.09374999805,
      "d": 140.18674999999348,
      "v": 127
    },
    {
      "midi": 70,
      "hit": false,
      "t": 157850.28049999743,
      "d": 420.56025000000955,
      "v": 127
    },
    {
      "midi": 55,
      "hit": false,
      "t": 157850.28049999804,
      "d": 140.18674999999348,
      "v": 127
    },
    {
      "midi": 56,
      "hit": false,
      "t": 157990.46724999804,
      "d": 140.18674999999348,
      "v": 127
    },
    {
      "midi": 58,
      "hit": false,
      "t": 158130.65399999803,
      "d": 280.37349999998696,
      "v": 127
    },
    {
      "midi": 72,
      "hit": false,
      "t": 158270.84074999744,
      "d": 140.18674999999348,
      "v": 127
    },
    {
      "midi": 70,
      "hit": false,
      "t": 158411.02749999744,
      "d": 140.18674999999348,
      "v": 127
    },
    {
      "midi": 60,
      "hit": false,
      "t": 158411.02749999802,
      "d": 280.37349999998696,
      "v": 127
    },
    {
      "midi": 68,
      "hit": false,
      "t": 158551.21424999743,
      "d": 140.18674999999348,
      "v": 127
    },
    {
      "midi": 67,
      "hit": false,
      "t": 158691.40099999742,
      "d": 140.18674999999348,
      "v": 127
    },
    {
      "midi": 61,
      "hit": false,
      "t": 158691.400999998,
      "d": 280.37349999998696,
      "v": 127
    },
    {
      "midi": 65,
      "hit": false,
      "t": 158831.58774999742,
      "d": 140.18674999999348,
      "v": 127
    },
    {
      "midi": 64,
      "hit": false,
      "t": 158971.7744999974,
      "d": 140.18674999999348,
      "v": 127
    },
    {
      "midi": 55,
      "hit": false,
      "t": 158971.774499998,
      "d": 280.37349999998696,
      "v": 127
    },
    {
      "midi": 62,
      "hit": false,
      "t": 159111.9612499974,
      "d": 140.18674999999348,
      "v": 127
    },
    {
      "midi": 60,
      "hit": false,
      "t": 159252.1479999974,
      "d": 140.18674999999348,
      "v": 127
    },
    {
      "midi": 58,
      "hit": false,
      "t": 159252.14799999798,
      "d": 280.37349999998696,
      "v": 127
    },
    {
      "midi": 67,
      "hit": false,
      "t": 159392.3347499974,
      "d": 140.18674999999348,
      "v": 127
    },
    {
      "midi": 60,
      "hit": false,
      "t": 159532.52149999738,
      "d": 140.18674999999348,
      "v": 127
    },
    {
      "midi": 52,
      "hit": false,
      "t": 159532.52149999797,
      "d": 280.37349999998696,
      "v": 127
    },
    {
      "midi": 58,
      "hit": false,
      "t": 159672.70824999738,
      "d": 140.18674999999348,
      "v": 127
    },
    {
      "midi": 60,
      "hit": false,
      "t": 159812.89499999737,
      "d": 140.18674999999348,
      "v": 127
    },
    {
      "midi": 55,
      "hit": false,
      "t": 159812.89499999795,
      "d": 280.37349999998696,
      "v": 127
    },
    {
      "midi": 62,
      "hit": false,
      "t": 159953.08174999736,
      "d": 140.18674999999348,
      "v": 127
    },
    {
      "midi": 64,
      "hit": false,
      "t": 160093.26849999736,
      "d": 140.18674999999348,
      "v": 127
    },
    {
      "midi": 48,
      "hit": false,
      "t": 160093.26849999794,
      "d": 280.37349999998696,
      "v": 127
    },
    {
      "midi": 65,
      "hit": false,
      "t": 160233.45524999735,
      "d": 140.18674999999348,
      "v": 127
    },
    {
      "midi": 64,
      "hit": false,
      "t": 160373.64199999734,
      "d": 140.18674999999348,
      "v": 127
    },
    {
      "midi": 60,
      "hit": false,
      "t": 160373.64199999793,
      "d": 140.18674999999348,
      "v": 127
    },
    {
      "midi": 67,
      "hit": false,
      "t": 160513.82874999734,
      "d": 140.18674999999348,
      "v": 127
    },
    {
      "midi": 58,
      "hit": false,
      "t": 160513.82874999792,
      "d": 140.18674999999348,
      "v": 127
    },
    {
      "midi": 60,
      "hit": false,
      "t": 160654.01549999733,
      "d": 140.18674999999348,
      "v": 127
    },
    {
      "midi": 56,
      "hit": false,
      "t": 160654.0154999979,
      "d": 140.18674999999348,
      "v": 127
    },
    {
      "midi": 58,
      "hit": false,
      "t": 160794.20224999732,
      "d": 140.18674999999348,
      "v": 127
    },
    {
      "midi": 55,
      "hit": false,
      "t": 160794.2022499979,
      "d": 140.18674999999348,
      "v": 127
    },
    {
      "midi": 60,
      "hit": false,
      "t": 160934.38899999732,
      "d": 140.18674999999348,
      "v": 127
    },
    {
      "midi": 56,
      "hit": false,
      "t": 160934.3889999979,
      "d": 560.747000000003,
      "v": 127
    },
    {
      "midi": 67,
      "hit": false,
      "t": 161074.5757499973,
      "d": 140.18674999999348,
      "v": 127
    },
    {
      "midi": 65,
      "hit": false,
      "t": 161214.7624999973,
      "d": 140.18674999999348,
      "v": 127
    },
    {
      "midi": 64,
      "hit": false,
      "t": 161354.9492499973,
      "d": 140.18674999999348,
      "v": 127
    },
    {
      "midi": 65,
      "hit": false,
      "t": 161495.1359999973,
      "d": 140.18674999999348,
      "v": 127
    },
    {
      "midi": 60,
      "hit": false,
      "t": 161635.32274999729,
      "d": 140.18674999999348,
      "v": 127
    },
    {
      "midi": 58,
      "hit": false,
      "t": 161635.3227499979,
      "d": 140.18674999999348,
      "v": 127
    },
    {
      "midi": 65,
      "hit": false,
      "t": 161775.50949999728,
      "d": 140.18674999999348,
      "v": 127
    },
    {
      "midi": 56,
      "hit": false,
      "t": 161775.5094999979,
      "d": 140.18674999999348,
      "v": 127
    },
    {
      "midi": 67,
      "hit": false,
      "t": 161915.69624999727,
      "d": 140.18674999999348,
      "v": 127
    },
    {
      "midi": 55,
      "hit": false,
      "t": 161915.69624999788,
      "d": 140.18674999999348,
      "v": 127
    },
    {
      "midi": 68,
      "hit": false,
      "t": 162055.88299999727,
      "d": 140.18674999999348,
      "v": 127
    },
    {
      "midi": 53,
      "hit": false,
      "t": 162055.88299999788,
      "d": 140.18674999999348,
      "v": 127
    },
    {
      "midi": 70,
      "hit": false,
      "t": 162196.06974999726,
      "d": 140.18674999999348,
      "v": 127
    },
    {
      "midi": 55,
      "hit": false,
      "t": 162196.06974999787,
      "d": 140.18674999999348,
      "v": 127
    },
    {
      "midi": 72,
      "hit": false,
      "t": 162336.25649999725,
      "d": 140.18674999999348,
      "v": 127
    },
    {
      "midi": 56,
      "hit": false,
      "t": 162336.25649999786,
      "d": 140.18674999999348,
      "v": 127
    },
    {
      "midi": 74,
      "hit": false,
      "t": 162476.44324999725,
      "d": 140.18674999999348,
      "v": 127
    },
    {
      "midi": 53,
      "hit": false,
      "t": 162476.44324999786,
      "d": 140.18674999999348,
      "v": 127
    },
    {
      "midi": 75,
      "hit": false,
      "t": 162616.62999999724,
      "d": 140.18674999999348,
      "v": 127
    },
    {
      "midi": 55,
      "hit": false,
      "t": 162616.62999999785,
      "d": 140.18674999999348,
      "v": 127
    },
    {
      "midi": 74,
      "hit": false,
      "t": 162756.81674999723,
      "d": 140.18674999999348,
      "v": 127
    },
    {
      "midi": 53,
      "hit": false,
      "t": 162756.81674999784,
      "d": 140.18674999999348,
      "v": 127
    },
    {
      "midi": 72,
      "hit": false,
      "t": 162897.00349999723,
      "d": 140.18674999999348,
      "v": 127
    },
    {
      "midi": 51,
      "hit": false,
      "t": 162897.00349999784,
      "d": 140.18674999999348,
      "v": 127
    },
    {
      "midi": 74,
      "hit": false,
      "t": 163037.19024999722,
      "d": 140.18674999999348,
      "v": 127
    },
    {
      "midi": 50,
      "hit": false,
      "t": 163037.19024999783,
      "d": 140.18674999999348,
      "v": 127
    },
    {
      "midi": 75,
      "hit": false,
      "t": 163177.3769999972,
      "d": 280.37349999998696,
      "v": 127
    },
    {
      "midi": 48,
      "hit": false,
      "t": 163177.37699999782,
      "d": 140.18674999999348,
      "v": 127
    },
    {
      "midi": 46,
      "hit": false,
      "t": 163317.56374999782,
      "d": 140.18674999999348,
      "v": 127
    },
    {
      "midi": 77,
      "hit": false,
      "t": 163457.7504999972,
      "d": 140.18674999999348,
      "v": 127
    },
    {
      "midi": 44,
      "hit": false,
      "t": 163457.7504999978,
      "d": 140.18674999999348,
      "v": 127
    },
    {
      "midi": 79,
      "hit": false,
      "t": 163597.9372499972,
      "d": 140.18674999999348,
      "v": 127
    },
    {
      "midi": 43,
      "hit": false,
      "t": 163597.9372499978,
      "d": 140.18674999999348,
      "v": 127
    },
    {
      "midi": 80,
      "hit": false,
      "t": 163738.1239999972,
      "d": 280.37349999998696,
      "v": 127
    },
    {
      "midi": 41,
      "hit": false,
      "t": 163738.1239999978,
      "d": 140.18674999999348,
      "v": 127
    },
    {
      "midi": 53,
      "hit": false,
      "t": 163878.3107499978,
      "d": 140.18674999999348,
      "v": 127
    },
    {
      "midi": 73,
      "hit": false,
      "t": 164018.49749999717,
      "d": 280.37349999998696,
      "v": 127
    },
    {
      "midi": 52,
      "hit": false,
      "t": 164018.4974999978,
      "d": 140.18674999999348,
      "v": 127
    },
    {
      "midi": 53,
      "hit": false,
      "t": 164158.68424999778,
      "d": 140.18674999999348,
      "v": 127
    },
    {
      "midi": 77,
      "hit": false,
      "t": 164298.87099999716,
      "d": 280.37349999998696,
      "v": 127
    },
    {
      "midi": 56,
      "hit": false,
      "t": 164298.87099999777,
      "d": 140.18674999999348,
      "v": 127
    },
    {
      "midi": 53,
      "hit": false,
      "t": 164439.05774999777,
      "d": 140.18674999999348,
      "v": 127
    },
    {
      "midi": 71,
      "hit": false,
      "t": 164579.24449999715,
      "d": 280.37349999998696,
      "v": 127
    },
    {
      "midi": 52,
      "hit": false,
      "t": 164579.24449999776,
      "d": 140.18674999999348,
      "v": 127
    },
    {
      "midi": 53,
      "hit": false,
      "t": 164719.43124999775,
      "d": 140.18674999999348,
      "v": 127
    },
    {
      "midi": 74,
      "hit": false,
      "t": 164859.61799999714,
      "d": 280.37349999998696,
      "v": 127
    },
    {
      "midi": 47,
      "hit": false,
      "t": 164859.61799999775,
      "d": 140.18674999999348,
      "v": 127
    },
    {
      "midi": 53,
      "hit": false,
      "t": 164999.80474999774,
      "d": 140.18674999999348,
      "v": 127
    },
    {
      "midi": 67,
      "hit": false,
      "t": 165139.99149999712,
      "d": 280.37349999998696,
      "v": 127
    },
    {
      "midi": 51,
      "hit": false,
      "t": 165139.99149999773,
      "d": 140.18674999999348,
      "v": 127
    },
    {
      "midi": 50,
      "hit": false,
      "t": 165280.17824999773,
      "d": 140.18674999999348,
      "v": 127
    },
    {
      "midi": 79,
      "hit": false,
      "t": 165420.3649999971,
      "d": 140.18674999999348,
      "v": 127
    },
    {
      "midi": 51,
      "hit": false,
      "t": 165420.36499999772,
      "d": 140.18674999999348,
      "v": 127
    },
    {
      "midi": 77,
      "hit": false,
      "t": 165560.5517499971,
      "d": 140.18674999999348,
      "v": 127
    },
    {
      "midi": 55,
      "hit": false,
      "t": 165560.5517499977,
      "d": 140.18674999999348,
      "v": 127
    },
    {
      "midi": 75,
      "hit": false,
      "t": 165700.7384999971,
      "d": 140.18674999999348,
      "v": 127
    },
    {
      "midi": 48,
      "hit": false,
      "t": 165700.7384999977,
      "d": 140.18674999999348,
      "v": 127
    },
    {
      "midi": 74,
      "hit": false,
      "t": 165840.9252499971,
      "d": 140.18674999999348,
      "v": 127
    },
    {
      "midi": 51,
      "hit": false,
      "t": 165840.9252499977,
      "d": 140.18674999999348,
      "v": 127
    },
    {
      "midi": 75,
      "hit": false,
      "t": 165981.11199999708,
      "d": 420.56025000000955,
      "v": 127
    },
    {
      "midi": 42,
      "hit": false,
      "t": 165981.1119999977,
      "d": 420.56025000000955,
      "v": 127
    },
    {
      "midi": 63,
      "hit": false,
      "t": 166401.6722499971,
      "d": 140.18674999999348,
      "v": 127
    },
    {
      "midi": 69,
      "hit": false,
      "t": 166401.6722499971,
      "d": 140.18674999999348,
      "v": 127
    },
    {
      "midi": 72,
      "hit": false,
      "t": 166401.6722499971,
      "d": 140.18674999999348,
      "v": 127
    },
    {
      "midi": 54,
      "hit": false,
      "t": 166401.6722499977,
      "d": 140.18674999999348,
      "v": 127
    },
    {
      "midi": 72,
      "hit": false,
      "t": 166541.8589999971,
      "d": 560.747000000003,
      "v": 127
    },
    {
      "midi": 55,
      "hit": false,
      "t": 166541.8589999977,
      "d": 560.747000000003,
      "v": 127
    },
    {
      "midi": 71,
      "hit": false,
      "t": 167102.6059999971,
      "d": 420.56025000000955,
      "v": 127
    },
    {
      "midi": 43,
      "hit": false,
      "t": 167102.6059999977,
      "d": 560.747000000003,
      "v": 127
    },
    {
      "midi": 72,
      "hit": false,
      "t": 167523.1662499971,
      "d": 140.18674999999348,
      "v": 127
    },
    {
      "midi": 63,
      "hit": false,
      "t": 167663.3529999971,
      "d": 1121.494000000006,
      "v": 127
    },
    {
      "midi": 67,
      "hit": false,
      "t": 167663.3529999971,
      "d": 1121.494000000006,
      "v": 127
    },
    {
      "midi": 72,
      "hit": false,
      "t": 167663.3529999971,
      "d": 1121.494000000006,
      "v": 127
    },
    {
      "midi": 36,
      "hit": false,
      "t": 167663.3529999977,
      "d": 1121.494000000006,
      "v": 127
    }
  ]
}