{
  "jsonPath": "Classical/Classical/Johann Sebastian Bach/das-wohltemperierte-clavier-i-praeludium-xv.json",
  "path": "Classical\\Classical\\Johann Sebastian Bach\\Das Wohltemperierte Clavier I, Praeludium XV.mid",
  "name": "Das Wohltemperierte Clavier I, Praeludium XV",
  "difficulty": "Advanced",
  "bpm": 66.000066000066,
  "notes": [
    {
      "midi": 67,
      "hit": false,
      "t": 0,
      "d": 151.51500000000001,
      "v": 127
    },
    {
      "midi": 55,
      "hit": false,
      "t": 0,
      "d": 454.545,
      "v": 127
    },
    {
      "midi": 71,
      "hit": false,
      "t": 151.51500000000001,
      "d": 151.51500000000001,
      "v": 127
    },
    {
      "midi": 74,
      "hit": false,
      "t": 303.03000000000003,
      "d": 151.51500000000004,
      "v": 127
    },
    {
      "midi": 43,
      "hit": false,
      "t": 454.545,
      "d": 454.545,
      "v": 127
    },
    {
      "midi": 79,
      "hit": false,
      "t": 454.5450000000001,
      "d": 151.515,
      "v": 127
    },
    {
      "midi": 74,
      "hit": false,
      "t": 606.0600000000001,
      "d": 151.515,
      "v": 127
    },
    {
      "midi": 71,
      "hit": false,
      "t": 757.575,
      "d": 151.515,
      "v": 127
    },
    {
      "midi": 74,
      "hit": false,
      "t": 909.09,
      "d": 151.515,
      "v": 127
    },
    {
      "midi": 71,
      "hit": false,
      "t": 1060.605,
      "d": 151.5150000000001,
      "v": 127
    },
    {
      "midi": 67,
      "hit": false,
      "t": 1212.1200000000001,
      "d": 151.5150000000001,
      "v": 127
    },
    {
      "midi": 55,
      "hit": false,
      "t": 1363.635,
      "d": 454.5450000000001,
      "v": 127
    },
    {
      "midi": 71,
      "hit": false,
      "t": 1363.6350000000002,
      "d": 151.5150000000001,
      "v": 127
    },
    {
      "midi": 67,
      "hit": false,
      "t": 1515.1500000000003,
      "d": 151.5150000000001,
      "v": 127
    },
    {
      "midi": 62,
      "hit": false,
      "t": 1666.6650000000004,
      "d": 151.5150000000001,
      "v": 127
    },
    {
      "midi": 55,
      "hit": false,
      "t": 1818.18,
      "d": 454.54499999999985,
      "v": 127
    },
    {
      "midi": 64,
      "hit": false,
      "t": 1818.1800000000005,
      "d": 151.5150000000001,
      "v": 127
    },
    {
      "midi": 67,
      "hit": false,
      "t": 1969.6950000000006,
      "d": 151.51499999999987,
      "v": 127
    },
    {
      "midi": 72,
      "hit": false,
      "t": 2121.2100000000005,
      "d": 151.51499999999987,
      "v": 127
    },
    {
      "midi": 43,
      "hit": false,
      "t": 2272.725,
      "d": 454.5450000000001,
      "v": 127
    },
    {
      "midi": 76,
      "hit": false,
      "t": 2272.7250000000004,
      "d": 151.51499999999987,
      "v": 127
    },
    {
      "midi": 72,
      "hit": false,
      "t": 2424.2400000000002,
      "d": 151.51499999999987,
      "v": 127
    },
    {
      "midi": 67,
      "hit": false,
      "t": 2575.755,
      "d": 151.51499999999987,
      "v": 127
    },
    {
      "midi": 72,
      "hit": false,
      "t": 2727.27,
      "d": 151.51499999999987,
      "v": 127
    },
    {
      "midi": 67,
      "hit": false,
      "t": 2878.785,
      "d": 151.51499999999987,
      "v": 127
    },
    {
      "midi": 64,
      "hit": false,
      "t": 3030.2999999999997,
      "d": 151.51499999999987,
      "v": 127
    },
    {
      "midi": 67,
      "hit": false,
      "t": 3181.8149999999996,
      "d": 151.51499999999987,
      "v": 127
    },
    {
      "midi": 55,
      "hit": false,
      "t": 3181.815,
      "d": 454.5450000000001,
      "v": 127
    },
    {
      "midi": 64,
      "hit": false,
      "t": 3333.3299999999995,
      "d": 151.51499999999987,
      "v": 127
    },
    {
      "midi": 60,
      "hit": false,
      "t": 3484.8449999999993,
      "d": 151.51499999999987,
      "v": 127
    },
    {
      "midi": 57,
      "hit": false,
      "t": 3636.359999999999,
      "d": 151.51499999999987,
      "v": 127
    },
    {
      "midi": 55,
      "hit": false,
      "t": 3636.36,
      "d": 454.5450000000001,
      "v": 127
    },
    {
      "midi": 60,
      "hit": false,
      "t": 3787.874999999999,
      "d": 151.51499999999987,
      "v": 127
    },
    {
      "midi": 66,
      "hit": false,
      "t": 3939.389999999999,
      "d": 151.51499999999987,
      "v": 127
    },
    {
      "midi": 69,
      "hit": false,
      "t": 4090.904999999999,
      "d": 151.51500000000033,
      "v": 127
    },
    {
      "midi": 43,
      "hit": false,
      "t": 4090.905,
      "d": 454.5449999999996,
      "v": 127
    },
    {
      "midi": 66,
      "hit": false,
      "t": 4242.419999999999,
      "d": 151.51500000000033,
      "v": 127
    },
    {
      "midi": 60,
      "hit": false,
      "t": 4393.9349999999995,
      "d": 151.51500000000033,
      "v": 127
    },
    {
      "midi": 66,
      "hit": false,
      "t": 4545.45,
      "d": 151.51500000000033,
      "v": 127
    },
    {
      "midi": 60,
      "hit": false,
      "t": 4696.965,
      "d": 151.51500000000033,
      "v": 127
    },
    {
      "midi": 57,
      "hit": false,
      "t": 4848.4800000000005,
      "d": 151.51500000000033,
      "v": 127
    },
    {
      "midi": 55,
      "hit": false,
      "t": 4999.995,
      "d": 454.5450000000001,
      "v": 127
    },
    {
      "midi": 60,
      "hit": false,
      "t": 4999.995000000001,
      "d": 151.51500000000033,
      "v": 127
    },
    {
      "midi": 57,
      "hit": false,
      "t": 5151.510000000001,
      "d": 151.51500000000033,
      "v": 127
    },
    {
      "midi": 54,
      "hit": false,
      "t": 5303.0250000000015,
      "d": 151.51500000000033,
      "v": 127
    },
    {
      "midi": 55,
      "hit": false,
      "t": 5454.54,
      "d": 454.5450000000001,
      "v": 127
    },
    {
      "midi": 55,
      "hit": false,
      "t": 5454.540000000002,
      "d": 151.51500000000033,
      "v": 127
    },
    {
      "midi": 59,
      "hit": false,
      "t": 5606.055000000002,
      "d": 151.51500000000033,
      "v": 127
    },
    {
      "midi": 62,
      "hit": false,
      "t": 5757.570000000002,
      "d": 151.51500000000033,
      "v": 127
    },
    {
      "midi": 43,
      "hit": false,
      "t": 5909.085,
      "d": 454.5450000000001,
      "v": 127
    },
    {
      "midi": 67,
      "hit": false,
      "t": 5909.085000000003,
      "d": 151.51500000000033,
      "v": 127
    },
    {
      "midi": 62,
      "hit": false,
      "t": 6060.600000000003,
      "d": 151.51500000000033,
      "v": 127
    },
    {
      "midi": 59,
      "hit": false,
      "t": 6212.115000000003,
      "d": 151.51500000000033,
      "v": 127
    },
    {
      "midi": 62,
      "hit": false,
      "t": 6363.630000000004,
      "d": 151.51500000000033,
      "v": 127
    },
    {
      "midi": 59,
      "hit": false,
      "t": 6515.145000000004,
      "d": 151.51500000000033,
      "v": 127
    },
    {
      "midi": 55,
      "hit": false,
      "t": 6666.660000000004,
      "d": 151.51500000000033,
      "v": 127
    },
    {
      "midi": 55,
      "hit": false,
      "t": 6818.175,
      "d": 454.5450000000001,
      "v": 127
    },
    {
      "midi": 59,
      "hit": false,
      "t": 6818.175000000005,
      "d": 151.51500000000033,
      "v": 127
    },
    {
      "midi": 55,
      "hit": false,
      "t": 6969.690000000005,
      "d": 151.51500000000033,
      "v": 127
    },
    {
      "midi": 50,
      "hit": false,
      "t": 7121.205000000005,
      "d": 151.51500000000033,
      "v": 127
    },
    {
      "midi": 55,
      "hit": false,
      "t": 7272.72,
      "d": 454.5450000000001,
      "v": 127
    },
    {
      "midi": 57,
      "hit": false,
      "t": 7272.720000000006,
      "d": 151.51500000000033,
      "v": 127
    },
    {
      "midi": 61,
      "hit": false,
      "t": 7424.235000000006,
      "d": 151.51500000000033,
      "v": 127
    },
    {
      "midi": 64,
      "hit": false,
      "t": 7575.750000000006,
      "d": 151.51500000000033,
      "v": 127
    },
    {
      "midi": 43,
      "hit": false,
      "t": 7727.265,
      "d": 454.5450000000001,
      "v": 127
    },
    {
      "midi": 69,
      "hit": false,
      "t": 7727.265000000007,
      "d": 151.51500000000033,
      "v": 127
    },
    {
      "midi": 64,
      "hit": false,
      "t": 7878.780000000007,
      "d": 151.51500000000033,
      "v": 127
    },
    {
      "midi": 61,
      "hit": false,
      "t": 8030.295000000007,
      "d": 151.51500000000033,
      "v": 127
    },
    {
      "midi": 64,
      "hit": false,
      "t": 8181.810000000008,
      "d": 151.51500000000033,
      "v": 127
    },
    {
      "midi": 61,
      "hit": false,
      "t": 8333.325000000008,
      "d": 151.51499999999942,
      "v": 127
    },
    {
      "midi": 57,
      "hit": false,
      "t": 8484.840000000007,
      "d": 151.51499999999942,
      "v": 127
    },
    {
      "midi": 55,
      "hit": false,
      "t": 8636.355,
      "d": 454.5450000000001,
      "v": 127
    },
    {
      "midi": 61,
      "hit": false,
      "t": 8636.355000000007,
      "d": 151.51499999999942,
      "v": 127
    },
    {
      "midi": 57,
      "hit": false,
      "t": 8787.870000000006,
      "d": 151.51499999999942,
      "v": 127
    },
    {
      "midi": 52,
      "hit": false,
      "t": 8939.385000000006,
      "d": 151.51499999999942,
      "v": 127
    },
    {
      "midi": 54,
      "hit": false,
      "t": 9090.9,
      "d": 151.51499999999942,
      "v": 127
    },
    {
      "midi": 62,
      "hit": false,
      "t": 9090.900000000005,
      "d": 909.0900000000001,
      "v": 127
    },
    {
      "midi": 57,
      "hit": false,
      "t": 9242.414999999999,
      "d": 151.51499999999942,
      "v": 127
    },
    {
      "midi": 61,
      "hit": false,
      "t": 9393.929999999998,
      "d": 151.51499999999942,
      "v": 127
    },
    {
      "midi": 62,
      "hit": false,
      "t": 9545.444999999998,
      "d": 151.51499999999942,
      "v": 127
    },
    {
      "midi": 57,
      "hit": false,
      "t": 9696.959999999997,
      "d": 151.51499999999942,
      "v": 127
    },
    {
      "midi": 54,
      "hit": false,
      "t": 9848.474999999997,
      "d": 151.51499999999942,
      "v": 127
    },
    {
      "midi": 57,
      "hit": false,
      "t": 9999.989999999996,
      "d": 151.51499999999942,
      "v": 127
    },
    {
      "midi": 54,
      "hit": false,
      "t": 10151.504999999996,
      "d": 151.51499999999942,
      "v": 127
    },
    {
      "midi": 50,
      "hit": false,
      "t": 10303.019999999995,
      "d": 151.51499999999942,
      "v": 127
    },
    {
      "midi": 54,
      "hit": false,
      "t": 10454.534999999994,
      "d": 151.51499999999942,
      "v": 127
    },
    {
      "midi": 62,
      "hit": false,
      "t": 10454.535000000005,
      "d": 454.5450000000001,
      "v": 127
    },
    {
      "midi": 50,
      "hit": false,
      "t": 10606.049999999994,
      "d": 151.51499999999942,
      "v": 127
    },
    {
      "midi": 47,
      "hit": false,
      "t": 10757.564999999993,
      "d": 151.51499999999942,
      "v": 127
    },
    {
      "midi": 52,
      "hit": false,
      "t": 10909.079999999993,
      "d": 454.5450000000001,
      "v": 127
    },
    {
      "midi": 62,
      "hit": false,
      "t": 10909.080000000005,
      "d": 151.51499999999942,
      "v": 127
    },
    {
      "midi": 61,
      "hit": false,
      "t": 11060.595000000005,
      "d": 151.51499999999942,
      "v": 127
    },
    {
      "midi": 62,
      "hit": false,
      "t": 11212.110000000004,
      "d": 151.51499999999942,
      "v": 127
    },
    {
      "midi": 40,
      "hit": false,
      "t": 11363.624999999993,
      "d": 454.5450000000001,
      "v": 127
    },
    {
      "midi": 64,
      "hit": false,
      "t": 11363.625000000004,
      "d": 151.51499999999942,
      "v": 127
    },
    {
      "midi": 61,
      "hit": false,
      "t": 11515.140000000003,
      "d": 151.51499999999942,
      "v": 127
    },
    {
      "midi": 62,
      "hit": false,
      "t": 11666.655000000002,
      "d": 151.51499999999942,
      "v": 127
    },
    {
      "midi": 66,
      "hit": false,
      "t": 11818.170000000002,
      "d": 151.51499999999942,
      "v": 127
    },
    {
      "midi": 61,
      "hit": false,
      "t": 11969.685000000001,
      "d": 151.51499999999942,
      "v": 127
    },
    {
      "midi": 62,
      "hit": false,
      "t": 12121.2,
      "d": 151.51499999999942,
      "v": 127
    },
    {
      "midi": 52,
      "hit": false,
      "t": 12272.714999999993,
      "d": 454.5450000000001,
      "v": 127
    },
    {
      "midi": 67,
      "hit": false,
      "t": 12272.715,
      "d": 151.51499999999942,
      "v": 127
    },
    {
      "midi": 61,
      "hit": false,
      "t": 12424.23,
      "d": 151.51499999999942,
      "v": 127
    },
    {
      "midi": 62,
      "hit": false,
      "t": 12575.744999999999,
      "d": 151.51499999999942,
      "v": 127
    },
    {
      "midi": 49,
      "hit": false,
      "t": 12727.259999999993,
      "d": 454.5450000000001,
      "v": 127
    },
    {
      "midi": 69,
      "hit": false,
      "t": 12727.259999999998,
      "d": 151.51499999999942,
      "v": 127
    },
    {
      "midi": 61,
      "hit": false,
      "t": 12878.774999999998,
      "d": 151.51499999999942,
      "v": 127
    },
    {
      "midi": 62,
      "hit": false,
      "t": 13030.289999999997,
      "d": 151.51499999999942,
      "v": 127
    },
    {
      "midi": 45,
      "hit": false,
      "t": 13181.804999999993,
      "d": 454.5450000000001,
      "v": 127
    },
    {
      "midi": 71,
      "hit": false,
      "t": 13181.804999999997,
      "d": 151.51499999999942,
      "v": 127
    },
    {
      "midi": 61,
      "hit": false,
      "t": 13333.319999999996,
      "d": 151.51499999999942,
      "v": 127
    },
    {
      "midi": 62,
      "hit": false,
      "t": 13484.834999999995,
      "d": 151.51499999999942,
      "v": 127
    },
    {
      "midi": 47,
      "hit": false,
      "t": 13636.349999999993,
      "d": 454.5450000000001,
      "v": 127
    },
    {
      "midi": 69,
      "hit": false,
      "t": 13636.349999999995,
      "d": 151.51499999999942,
      "v": 127
    },
    {
      "midi": 61,
      "hit": false,
      "t": 13787.864999999994,
      "d": 151.51499999999942,
      "v": 127
    },
    {
      "midi": 62,
      "hit": false,
      "t": 13939.379999999994,
      "d": 151.51499999999942,
      "v": 127
    },
    {
      "midi": 67,
      "hit": false,
      "t": 14090.894999999993,
      "d": 151.51499999999942,
      "v": 127
    },
    {
      "midi": 49,
      "hit": false,
      "t": 14090.894999999993,
      "d": 454.5450000000001,
      "v": 127
    },
    {
      "midi": 63,
      "hit": false,
      "t": 14242.409999999993,
      "d": 151.51499999999942,
      "v": 127
    },
    {
      "midi": 64,
      "hit": false,
      "t": 14393.924999999992,
      "d": 151.51499999999942,
      "v": 127
    },
    {
      "midi": 66,
      "hit": false,
      "t": 14545.439999999991,
      "d": 454.5450000000001,
      "v": 127
    },
    {
      "midi": 50,
      "hit": false,
      "t": 14545.439999999993,
      "d": 151.51499999999942,
      "v": 127
    },
    {
      "midi": 61,
      "hit": false,
      "t": 14696.954999999993,
      "d": 151.51499999999942,
      "v": 127
    },
    {
      "midi": 62,
      "hit": false,
      "t": 14848.469999999992,
      "d": 151.51499999999942,
      "v": 127
    },
    {
      "midi": 67,
      "hit": false,
      "t": 14999.984999999991,
      "d": 454.5450000000001,
      "v": 127
    },
    {
      "midi": 52,
      "hit": false,
      "t": 14999.984999999991,
      "d": 151.51499999999942,
      "v": 127
    },
    {
      "midi": 61,
      "hit": false,
      "t": 15151.49999999999,
      "d": 151.51499999999942,
      "v": 127
    },
    {
      "midi": 62,
      "hit": false,
      "t": 15303.01499999999,
      "d": 151.51499999999942,
      "v": 127
    },
    {
      "midi": 54,
      "hit": false,
      "t": 15454.52999999999,
      "d": 151.51499999999942,
      "v": 127
    },
    {
      "midi": 69,
      "hit": false,
      "t": 15454.529999999992,
      "d": 454.5450000000001,
      "v": 127
    },
    {
      "midi": 61,
      "hit": false,
      "t": 15606.04499999999,
      "d": 151.51499999999942,
      "v": 127
    },
    {
      "midi": 62,
      "hit": false,
      "t": 15757.559999999989,
      "d": 151.51499999999942,
      "v": 127
    },
    {
      "midi": 55,
      "hit": false,
      "t": 15909.074999999988,
      "d": 151.51499999999942,
      "v": 127
    },
    {
      "midi": 71,
      "hit": false,
      "t": 15909.074999999992,
      "d": 454.5450000000001,
      "v": 127
    },
    {
      "midi": 61,
      "hit": false,
      "t": 16060.589999999987,
      "d": 151.51499999999942,
      "v": 127
    },
    {
      "midi": 62,
      "hit": false,
      "t": 16212.104999999987,
      "d": 151.51499999999942,
      "v": 127
    },
    {
      "midi": 54,
      "hit": false,
      "t": 16363.619999999986,
      "d": 151.51500000000124,
      "v": 127
    },
    {
      "midi": 69,
      "hit": false,
      "t": 16363.619999999992,
      "d": 454.54499999999825,
      "v": 127
    },
    {
      "midi": 61,
      "hit": false,
      "t": 16515.134999999987,
      "d": 151.51499999999942,
      "v": 127
    },
    {
      "midi": 62,
      "hit": false,
      "t": 16666.649999999987,
      "d": 151.51499999999942,
      "v": 127
    },
    {
      "midi": 52,
      "hit": false,
      "t": 16818.164999999986,
      "d": 151.51499999999942,
      "v": 127
    },
    {
      "midi": 67,
      "hit": false,
      "t": 16818.16499999999,
      "d": 454.54499999999825,
      "v": 127
    },
    {
      "midi": 61,
      "hit": false,
      "t": 16969.679999999986,
      "d": 151.51499999999942,
      "v": 127
    },
    {
      "midi": 62,
      "hit": false,
      "t": 17121.194999999985,
      "d": 151.51499999999942,
      "v": 127
    },
    {
      "midi": 50,
      "hit": false,
      "t": 17272.709999999985,
      "d": 151.51499999999942,
      "v": 127
    },
    {
      "midi": 66,
      "hit": false,
      "t": 17272.70999999999,
      "d": 454.54499999999825,
      "v": 127
    },
    {
      "midi": 61,
      "hit": false,
      "t": 17424.224999999984,
      "d": 151.51499999999942,
      "v": 127
    },
    {
      "midi": 62,
      "hit": false,
      "t": 17575.739999999983,
      "d": 151.51499999999942,
      "v": 127
    },
    {
      "midi": 54,
      "hit": false,
      "t": 17727.254999999983,
      "d": 151.51499999999942,
      "v": 127
    },
    {
      "midi": 69,
      "hit": false,
      "t": 17727.254999999986,
      "d": 454.54499999999825,
      "v": 127
    },
    {
      "midi": 61,
      "hit": false,
      "t": 17878.769999999982,
      "d": 151.51499999999942,
      "v": 127
    },
    {
      "midi": 62,
      "hit": false,
      "t": 18030.28499999998,
      "d": 151.51499999999942,
      "v": 127
    },
    {
      "midi": 47,
      "hit": false,
      "t": 18181.79999999998,
      "d": 454.54499999999825,
      "v": 127
    },
    {
      "midi": 68,
      "hit": false,
      "t": 18181.799999999985,
      "d": 151.51499999999942,
      "v": 127
    },
    {
      "midi": 71,
      "hit": false,
      "t": 18333.314999999984,
      "d": 151.51499999999942,
      "v": 127
    },
    {
      "midi": 74,
      "hit": false,
      "t": 18484.829999999984,
      "d": 151.51499999999942,
      "v": 127
    },
    {
      "midi": 59,
      "hit": false,
      "t": 18636.34499999998,
      "d": 454.54499999999825,
      "v": 127
    },
    {
      "midi": 77,
      "hit": false,
      "t": 18636.344999999983,
      "d": 151.51499999999942,
      "v": 127
    },
    {
      "midi": 74,
      "hit": false,
      "t": 18787.859999999982,
      "d": 151.51499999999942,
      "v": 127
    },
    {
      "midi": 71,
      "hit": false,
      "t": 18939.37499999998,
      "d": 151.51499999999942,
      "v": 127
    },
    {
      "midi": 74,
      "hit": false,
      "t": 19090.88999999998,
      "d": 151.51499999999942,
      "v": 127
    },
    {
      "midi": 71,
      "hit": false,
      "t": 19242.40499999998,
      "d": 151.51499999999942,
      "v": 127
    },
    {
      "midi": 68,
      "hit": false,
      "t": 19393.91999999998,
      "d": 151.51499999999942,
      "v": 127
    },
    {
      "midi": 57,
      "hit": false,
      "t": 19545.434999999976,
      "d": 454.54499999999825,
      "v": 127
    },
    {
      "midi": 71,
      "hit": false,
      "t": 19545.43499999998,
      "d": 151.51499999999942,
      "v": 127
    },
    {
      "midi": 68,
      "hit": false,
      "t": 19696.94999999998,
      "d": 151.51499999999942,
      "v": 127
    },
    {
      "midi": 65,
      "hit": false,
      "t": 19848.46499999998,
      "d": 151.51499999999942,
      "v": 127
    },
    {
      "midi": 56,
      "hit": false,
      "t": 19999.979999999974,
      "d": 454.54499999999825,
      "v": 127
    },
    {
      "midi": 62,
      "hit": false,
      "t": 19999.979999999978,
      "d": 151.51499999999942,
      "v": 127
    },
    {
      "midi": 65,
      "hit": false,
      "t": 20151.494999999977,
      "d": 151.51499999999942,
      "v": 127
    },
    {
      "midi": 68,
      "hit": false,
      "t": 20303.009999999977,
      "d": 151.51499999999942,
      "v": 127
    },
    {
      "midi": 44,
      "hit": false,
      "t": 20454.524999999972,
      "d": 454.54499999999825,
      "v": 127
    },
    {
      "midi": 71,
      "hit": false,
      "t": 20454.524999999976,
      "d": 151.51499999999942,
      "v": 127
    },
    {
      "midi": 68,
      "hit": false,
      "t": 20606.039999999975,
      "d": 151.51499999999942,
      "v": 127
    },
    {
      "midi": 65,
      "hit": false,
      "t": 20757.554999999975,
      "d": 151.51499999999942,
      "v": 127
    },
    {
      "midi": 68,
      "hit": false,
      "t": 20909.069999999974,
      "d": 151.51499999999942,
      "v": 127
    },
    {
      "midi": 65,
      "hit": false,
      "t": 21060.584999999974,
      "d": 151.51499999999942,
      "v": 127
    },
    {
      "midi": 62,
      "hit": false,
      "t": 21212.099999999973,
      "d": 151.51499999999942,
      "v": 127
    },
    {
      "midi": 56,
      "hit": false,
      "t": 21363.61499999997,
      "d": 454.54499999999825,
      "v": 127
    },
    {
      "midi": 65,
      "hit": false,
      "t": 21363.614999999972,
      "d": 151.51499999999942,
      "v": 127
    },
    {
      "midi": 62,
      "hit": false,
      "t": 21515.129999999972,
      "d": 151.51499999999942,
      "v": 127
    },
    {
      "midi": 59,
      "hit": false,
      "t": 21666.64499999997,
      "d": 151.51499999999942,
      "v": 127
    },
    {
      "midi": 57,
      "hit": false,
      "t": 21818.159999999967,
      "d": 151.51499999999942,
      "v": 127
    },
    {
      "midi": 60,
      "hit": false,
      "t": 21818.15999999997,
      "d": 454.54499999999825,
      "v": 127
    },
    {
      "midi": 60,
      "hit": false,
      "t": 21969.674999999967,
      "d": 151.51499999999942,
      "v": 127
    },
    {
      "midi": 64,
      "hit": false,
      "t": 22121.189999999966,
      "d": 151.51499999999942,
      "v": 127
    },
    {
      "midi": 69,
      "hit": false,
      "t": 22272.704999999965,
      "d": 151.51499999999942,
      "v": 127
    },
    {
      "midi": 76,
      "hit": false,
      "t": 22272.70499999997,
      "d": 454.54499999999825,
      "v": 127
    },
    {
      "midi": 64,
      "hit": false,
      "t": 22424.219999999965,
      "d": 151.51499999999942,
      "v": 127
    },
    {
      "midi": 60,
      "hit": false,
      "t": 22575.734999999964,
      "d": 151.51499999999942,
      "v": 127
    },
    {
      "midi": 64,
      "hit": false,
      "t": 22727.249999999964,
      "d": 151.51499999999942,
      "v": 127
    },
    {
      "midi": 72,
      "hit": false,
      "t": 22727.249999999967,
      "d": 454.54499999999825,
      "v": 127
    },
    {
      "midi": 60,
      "hit": false,
      "t": 22878.764999999963,
      "d": 151.51499999999942,
      "v": 127
    },
    {
      "midi": 57,
      "hit": false,
      "t": 23030.279999999962,
      "d": 151.51499999999942,
      "v": 127
    },
    {
      "midi": 60,
      "hit": false,
      "t": 23181.794999999962,
      "d": 151.51499999999942,
      "v": 127
    },
    {
      "midi": 69,
      "hit": false,
      "t": 23181.794999999966,
      "d": 454.54499999999825,
      "v": 127
    },
    {
      "midi": 57,
      "hit": false,
      "t": 23333.30999999996,
      "d": 151.51499999999942,
      "v": 127
    },
    {
      "midi": 52,
      "hit": false,
      "t": 23484.82499999996,
      "d": 151.51499999999942,
      "v": 127
    },
    {
      "midi": 48,
      "hit": false,
      "t": 23636.33999999996,
      "d": 151.51499999999942,
      "v": 127
    },
    {
      "midi": 64,
      "hit": false,
      "t": 23636.339999999964,
      "d": 454.54499999999825,
      "v": 127
    },
    {
      "midi": 52,
      "hit": false,
      "t": 23787.85499999996,
      "d": 151.51499999999942,
      "v": 127
    },
    {
      "midi": 57,
      "hit": false,
      "t": 23939.36999999996,
      "d": 151.51499999999942,
      "v": 127
    },
    {
      "midi": 60,
      "hit": false,
      "t": 24090.88499999996,
      "d": 151.51499999999942,
      "v": 127
    },
    {
      "midi": 76,
      "hit": false,
      "t": 24090.884999999962,
      "d": 454.54499999999825,
      "v": 127
    },
    {
      "midi": 57,
      "hit": false,
      "t": 24242.399999999958,
      "d": 151.51499999999942,
      "v": 127
    },
    {
      "midi": 52,
      "hit": false,
      "t": 24393.914999999957,
      "d": 151.51499999999942,
      "v": 127
    },
    {
      "midi": 57,
      "hit": false,
      "t": 24545.429999999957,
      "d": 151.51499999999942,
      "v": 127
    },
    {
      "midi": 72,
      "hit": false,
      "t": 24545.42999999996,
      "d": 454.54499999999825,
      "v": 127
    },
    {
      "midi": 52,
      "hit": false,
      "t": 24696.944999999956,
      "d": 151.51499999999942,
      "v": 127
    },
    {
      "midi": 48,
      "hit": false,
      "t": 24848.459999999955,
      "d": 151.51499999999942,
      "v": 127
    },
    {
      "midi": 52,
      "hit": false,
      "t": 24999.974999999955,
      "d": 151.51499999999942,
      "v": 127
    },
    {
      "midi": 69,
      "hit": false,
      "t": 24999.97499999996,
      "d": 454.54499999999825,
      "v": 127
    },
    {
      "midi": 48,
      "hit": false,
      "t": 25151.489999999954,
      "d": 151.51499999999942,
      "v": 127
    },
    {
      "midi": 45,
      "hit": false,
      "t": 25303.004999999954,
      "d": 151.51499999999942,
      "v": 127
    },
    {
      "midi": 42,
      "hit": false,
      "t": 25454.519999999953,
      "d": 454.54499999999825,
      "v": 127
    },
    {
      "midi": 75,
      "hit": false,
      "t": 25454.519999999957,
      "d": 151.51499999999942,
      "v": 127
    },
    {
      "midi": 78,
      "hit": false,
      "t": 25606.034999999956,
      "d": 151.51499999999942,
      "v": 127
    },
    {
      "midi": 81,
      "hit": false,
      "t": 25757.549999999956,
      "d": 151.51499999999942,
      "v": 127
    },
    {
      "midi": 54,
      "hit": false,
      "t": 25909.06499999995,
      "d": 454.54499999999825,
      "v": 127
    },
    {
      "midi": 84,
      "hit": false,
      "t": 25909.064999999955,
      "d": 151.51499999999942,
      "v": 127
    },
    {
      "midi": 81,
      "hit": false,
      "t": 26060.579999999954,
      "d": 151.51499999999942,
      "v": 127
    },
    {
      "midi": 78,
      "hit": false,
      "t": 26212.094999999954,
      "d": 151.51499999999942,
      "v": 127
    },
    {
      "midi": 81,
      "hit": false,
      "t": 26363.609999999953,
      "d": 151.51499999999942,
      "v": 127
    },
    {
      "midi": 78,
      "hit": false,
      "t": 26515.124999999953,
      "d": 151.51499999999942,
      "v": 127
    },
    {
      "midi": 75,
      "hit": false,
      "t": 26666.639999999952,
      "d": 151.51499999999942,
      "v": 127
    },
    {
      "midi": 52,
      "hit": false,
      "t": 26818.154999999948,
      "d": 454.54499999999825,
      "v": 127
    },
    {
      "midi": 78,
      "hit": false,
      "t": 26818.15499999995,
      "d": 151.51499999999942,
      "v": 127
    },
    {
      "midi": 75,
      "hit": false,
      "t": 26969.66999999995,
      "d": 151.51499999999942,
      "v": 127
    },
    {
      "midi": 72,
      "hit": false,
      "t": 27121.18499999995,
      "d": 151.51499999999942,
      "v": 127
    },
    {
      "midi": 51,
      "hit": false,
      "t": 27272.699999999946,
      "d": 454.54499999999825,
      "v": 127
    },
    {
      "midi": 69,
      "hit": false,
      "t": 27272.69999999995,
      "d": 151.51499999999942,
      "v": 127
    },
    {
      "midi": 72,
      "hit": false,
      "t": 27424.21499999995,
      "d": 151.51499999999942,
      "v": 127
    },
    {
      "midi": 75,
      "hit": false,
      "t": 27575.72999999995,
      "d": 151.51499999999942,
      "v": 127
    },
    {
      "midi": 39,
      "hit": false,
      "t": 27727.244999999944,
      "d": 454.54499999999825,
      "v": 127
    },
    {
      "midi": 78,
      "hit": false,
      "t": 27727.244999999948,
      "d": 151.51499999999942,
      "v": 127
    },
    {
      "midi": 75,
      "hit": false,
      "t": 27878.759999999947,
      "d": 151.51499999999942,
      "v": 127
    },
    {
      "midi": 72,
      "hit": false,
      "t": 28030.274999999947,
      "d": 151.51499999999942,
      "v": 127
    },
    {
      "midi": 75,
      "hit": false,
      "t": 28181.789999999946,
      "d": 151.51499999999942,
      "v": 127
    },
    {
      "midi": 72,
      "hit": false,
      "t": 28333.304999999946,
      "d": 151.51499999999942,
      "v": 127
    },
    {
      "midi": 69,
      "hit": false,
      "t": 28484.819999999945,
      "d": 151.51499999999942,
      "v": 127
    },
    {
      "midi": 51,
      "hit": false,
      "t": 28636.33499999994,
      "d": 454.54499999999825,
      "v": 127
    },
    {
      "midi": 72,
      "hit": false,
      "t": 28636.334999999945,
      "d": 151.51499999999942,
      "v": 127
    },
    {
      "midi": 69,
      "hit": false,
      "t": 28787.849999999944,
      "d": 151.51499999999942,
      "v": 127
    },
    {
      "midi": 66,
      "hit": false,
      "t": 28939.364999999943,
      "d": 151.51499999999942,
      "v": 127
    },
    {
      "midi": 52,
      "hit": false,
      "t": 29090.87999999994,
      "d": 151.51499999999942,
      "v": 127
    },
    {
      "midi": 67,
      "hit": false,
      "t": 29090.879999999943,
      "d": 454.54499999999825,
      "v": 127
    },
    {
      "midi": 63,
      "hit": false,
      "t": 29242.39499999994,
      "d": 151.51499999999942,
      "v": 127
    },
    {
      "midi": 64,
      "hit": false,
      "t": 29393.909999999938,
      "d": 151.51499999999942,
      "v": 127
    },
    {
      "midi": 54,
      "hit": false,
      "t": 29545.424999999937,
      "d": 151.51499999999942,
      "v": 127
    },
    {
      "midi": 69,
      "hit": false,
      "t": 29545.42499999994,
      "d": 454.54499999999825,
      "v": 127
    },
    {
      "midi": 63,
      "hit": false,
      "t": 29696.939999999937,
      "d": 151.51499999999942,
      "v": 127
    },
    {
      "midi": 64,
      "hit": false,
      "t": 29848.454999999936,
      "d": 151.51499999999942,
      "v": 127
    },
    {
      "midi": 55,
      "hit": false,
      "t": 29999.969999999936,
      "d": 151.51499999999942,
      "v": 127
    },
    {
      "midi": 71,
      "hit": false,
      "t": 29999.96999999994,
      "d": 454.54499999999825,
      "v": 127
    },
    {
      "midi": 63,
      "hit": false,
      "t": 30151.484999999935,
      "d": 151.51499999999942,
      "v": 127
    },
    {
      "midi": 64,
      "hit": false,
      "t": 30302.999999999935,
      "d": 151.51499999999942,
      "v": 127
    },
    {
      "midi": 57,
      "hit": false,
      "t": 30454.514999999934,
      "d": 151.51499999999942,
      "v": 127
    },
    {
      "midi": 72,
      "hit": false,
      "t": 30454.514999999938,
      "d": 454.54499999999825,
      "v": 127
    },
    {
      "midi": 63,
      "hit": false,
      "t": 30606.029999999933,
      "d": 151.51499999999942,
      "v": 127
    },
    {
      "midi": 64,
      "hit": false,
      "t": 30757.544999999933,
      "d": 151.51499999999942,
      "v": 127
    },
    {
      "midi": 55,
      "hit": false,
      "t": 30909.059999999932,
      "d": 151.51499999999942,
      "v": 127
    },
    {
      "midi": 71,
      "hit": false,
      "t": 30909.059999999936,
      "d": 454.54499999999825,
      "v": 127
    },
    {
      "midi": 63,
      "hit": false,
      "t": 31060.57499999993,
      "d": 151.51499999999942,
      "v": 127
    },
    {
      "midi": 64,
      "hit": false,
      "t": 31212.08999999993,
      "d": 151.51499999999942,
      "v": 127
    },
    {
      "midi": 54,
      "hit": false,
      "t": 31363.60499999993,
      "d": 151.51499999999942,
      "v": 127
    },
    {
      "midi": 69,
      "hit": false,
      "t": 31363.604999999934,
      "d": 454.54499999999825,
      "v": 127
    },
    {
      "midi": 63,
      "hit": false,
      "t": 31515.11999999993,
      "d": 151.51499999999942,
      "v": 127
    },
    {
      "midi": 64,
      "hit": false,
      "t": 31666.63499999993,
      "d": 151.51499999999942,
      "v": 127
    },
    {
      "midi": 52,
      "hit": false,
      "t": 31818.14999999993,
      "d": 151.51499999999942,
      "v": 127
    },
    {
      "midi": 67,
      "hit": false,
      "t": 31818.149999999932,
      "d": 454.54499999999825,
      "v": 127
    },
    {
      "midi": 63,
      "hit": false,
      "t": 31969.664999999928,
      "d": 151.51499999999942,
      "v": 127
    },
    {
      "midi": 64,
      "hit": false,
      "t": 32121.179999999928,
      "d": 151.51499999999942,
      "v": 127
    },
    {
      "midi": 55,
      "hit": false,
      "t": 32272.694999999927,
      "d": 151.51499999999942,
      "v": 127
    },
    {
      "midi": 71,
      "hit": false,
      "t": 32272.69499999993,
      "d": 454.54499999999825,
      "v": 127
    },
    {
      "midi": 63,
      "hit": false,
      "t": 32424.209999999926,
      "d": 151.51499999999942,
      "v": 127
    },
    {
      "midi": 64,
      "hit": false,
      "t": 32575.724999999926,
      "d": 151.51499999999942,
      "v": 127
    },
    {
      "midi": 49,
      "hit": false,
      "t": 32727.239999999925,
      "d": 454.54499999999825,
      "v": 127
    },
    {
      "midi": 69,
      "hit": false,
      "t": 32727.23999999993,
      "d": 151.51500000000306,
      "v": 127
    },
    {
      "midi": 68,
      "hit": false,
      "t": 32878.75499999993,
      "d": 151.51499999999942,
      "v": 127
    },
    {
      "midi": 69,
      "hit": false,
      "t": 33030.26999999993,
      "d": 151.51499999999942,
      "v": 127
    },
    {
      "midi": 50,
      "hit": false,
      "t": 33181.78499999992,
      "d": 454.54499999999825,
      "v": 127
    },
    {
      "midi": 71,
      "hit": false,
      "t": 33181.78499999993,
      "d": 151.51499999999942,
      "v": 127
    },
    {
      "midi": 68,
      "hit": false,
      "t": 33333.29999999993,
      "d": 151.51499999999942,
      "v": 127
    },
    {
      "midi": 69,
      "hit": false,
      "t": 33484.81499999993,
      "d": 151.51499999999942,
      "v": 127
    },
    {
      "midi": 52,
      "hit": false,
      "t": 33636.32999999992,
      "d": 454.54499999999825,
      "v": 127
    },
    {
      "midi": 73,
      "hit": false,
      "t": 33636.32999999993,
      "d": 151.51499999999942,
      "v": 127
    },
    {
      "midi": 68,
      "hit": false,
      "t": 33787.84499999993,
      "d": 151.51499999999942,
      "v": 127
    },
    {
      "midi": 69,
      "hit": false,
      "t": 33939.35999999993,
      "d": 151.51499999999942,
      "v": 127
    },
    {
      "midi": 54,
      "hit": false,
      "t": 34090.87499999992,
      "d": 454.54499999999825,
      "v": 127
    },
    {
      "midi": 74,
      "hit": false,
      "t": 34090.87499999993,
      "d": 151.51499999999942,
      "v": 127
    },
    {
      "midi": 68,
      "hit": false,
      "t": 34242.38999999993,
      "d": 151.51499999999942,
      "v": 127
    },
    {
      "midi": 69,
      "hit": false,
      "t": 34393.904999999926,
      "d": 151.51499999999942,
      "v": 127
    },
    {
      "midi": 49,
      "hit": false,
      "t": 34545.41999999992,
      "d": 454.54499999999825,
      "v": 127
    },
    {
      "midi": 76,
      "hit": false,
      "t": 34545.419999999925,
      "d": 151.51499999999942,
      "v": 127
    },
    {
      "midi": 68,
      "hit": false,
      "t": 34696.934999999925,
      "d": 151.51499999999942,
      "v": 127
    },
    {
      "midi": 69,
      "hit": false,
      "t": 34848.449999999924,
      "d": 151.51499999999942,
      "v": 127
    },
    {
      "midi": 47,
      "hit": false,
      "t": 34999.96499999992,
      "d": 454.54499999999825,
      "v": 127
    },
    {
      "midi": 78,
      "hit": false,
      "t": 34999.964999999924,
      "d": 151.51499999999942,
      "v": 127
    },
    {
      "midi": 68,
      "hit": false,
      "t": 35151.47999999992,
      "d": 151.51499999999942,
      "v": 127
    },
    {
      "midi": 69,
      "hit": false,
      "t": 35302.99499999992,
      "d": 151.51499999999942,
      "v": 127
    },
    {
      "midi": 45,
      "hit": false,
      "t": 35454.509999999915,
      "d": 454.54499999999825,
      "v": 127
    },
    {
      "midi": 79,
      "hit": false,
      "t": 35454.50999999992,
      "d": 151.51499999999942,
      "v": 127
    },
    {
      "midi": 76,
      "hit": false,
      "t": 35606.02499999992,
      "d": 151.51499999999942,
      "v": 127
    },
    {
      "midi": 73,
      "hit": false,
      "t": 35757.53999999992,
      "d": 151.51499999999942,
      "v": 127
    },
    {
      "midi": 49,
      "hit": false,
      "t": 35909.05499999991,
      "d": 454.54499999999825,
      "v": 127
    },
    {
      "midi": 69,
      "hit": false,
      "t": 35909.05499999992,
      "d": 151.51499999999942,
      "v": 127
    },
    {
      "midi": 73,
      "hit": false,
      "t": 36060.56999999992,
      "d": 151.51499999999942,
      "v": 127
    },
    {
      "midi": 76,
      "hit": false,
      "t": 36212.08499999992,
      "d": 151.51499999999942,
      "v": 127
    },
    {
      "midi": 50,
      "hit": false,
      "t": 36363.59999999991,
      "d": 151.51499999999942,
      "v": 127
    },
    {
      "midi": 78,
      "hit": false,
      "t": 36363.59999999992,
      "d": 909.0899999999965,
      "v": 127
    },
    {
      "midi": 54,
      "hit": false,
      "t": 36515.11499999991,
      "d": 151.51499999999942,
      "v": 127
    },
    {
      "midi": 57,
      "hit": false,
      "t": 36666.62999999991,
      "d": 151.51499999999942,
      "v": 127
    },
    {
      "midi": 62,
      "hit": false,
      "t": 36818.14499999991,
      "d": 151.51499999999942,
      "v": 127
    },
    {
      "midi": 57,
      "hit": false,
      "t": 36969.65999999991,
      "d": 151.51499999999942,
      "v": 127
    },
    {
      "midi": 54,
      "hit": false,
      "t": 37121.17499999991,
      "d": 151.51499999999942,
      "v": 127
    },
    {
      "midi": 50,
      "hit": false,
      "t": 37272.68999999991,
      "d": 454.54499999999825,
      "v": 127
    },
    {
      "midi": 81,
      "hit": false,
      "t": 37272.689999999915,
      "d": 151.51499999999942,
      "v": 127
    },
    {
      "midi": 78,
      "hit": false,
      "t": 37424.204999999914,
      "d": 151.51499999999942,
      "v": 127
    },
    {
      "midi": 74,
      "hit": false,
      "t": 37575.719999999914,
      "d": 151.51499999999942,
      "v": 127
    },
    {
      "midi": 62,
      "hit": false,
      "t": 37727.234999999906,
      "d": 454.54499999999825,
      "v": 127
    },
    {
      "midi": 72,
      "hit": false,
      "t": 37727.23499999991,
      "d": 151.51499999999942,
      "v": 127
    },
    {
      "midi": 74,
      "hit": false,
      "t": 37878.74999999991,
      "d": 151.51499999999942,
      "v": 127
    },
    {
      "midi": 78,
      "hit": false,
      "t": 38030.26499999991,
      "d": 151.51499999999942,
      "v": 127
    },
    {
      "midi": 50,
      "hit": false,
      "t": 38181.779999999904,
      "d": 151.51499999999942,
      "v": 127
    },
    {
      "midi": 81,
      "hit": false,
      "t": 38181.77999999991,
      "d": 454.54499999999825,
      "v": 127
    },
    {
      "midi": 55,
      "hit": false,
      "t": 38333.294999999904,
      "d": 151.51499999999942,
      "v": 127
    },
    {
      "midi": 59,
      "hit": false,
      "t": 38484.8099999999,
      "d": 151.51499999999942,
      "v": 127
    },
    {
      "midi": 62,
      "hit": false,
      "t": 38636.3249999999,
      "d": 151.51499999999942,
      "v": 127
    },
    {
      "midi": 79,
      "hit": false,
      "t": 38636.32499999991,
      "d": 454.54499999999825,
      "v": 127
    },
    {
      "midi": 59,
      "hit": false,
      "t": 38787.8399999999,
      "d": 151.51499999999942,
      "v": 127
    },
    {
      "midi": 55,
      "hit": false,
      "t": 38939.3549999999,
      "d": 151.51499999999942,
      "v": 127
    },
    {
      "midi": 50,
      "hit": false,
      "t": 39090.8699999999,
      "d": 454.54499999999825,
      "v": 127
    },
    {
      "midi": 79,
      "hit": false,
      "t": 39090.86999999991,
      "d": 151.51499999999942,
      "v": 127
    },
    {
      "midi": 76,
      "hit": false,
      "t": 39242.38499999991,
      "d": 151.51499999999942,
      "v": 127
    },
    {
      "midi": 73,
      "hit": false,
      "t": 39393.89999999991,
      "d": 151.51499999999942,
      "v": 127
    },
    {
      "midi": 62,
      "hit": false,
      "t": 39545.4149999999,
      "d": 454.54499999999825,
      "v": 127
    },
    {
      "midi": 69,
      "hit": false,
      "t": 39545.414999999906,
      "d": 151.51499999999942,
      "v": 127
    },
    {
      "midi": 73,
      "hit": false,
      "t": 39696.929999999906,
      "d": 151.51499999999942,
      "v": 127
    },
    {
      "midi": 76,
      "hit": false,
      "t": 39848.444999999905,
      "d": 151.51499999999942,
      "v": 127
    },
    {
      "midi": 50,
      "hit": false,
      "t": 39999.9599999999,
      "d": 151.51499999999942,
      "v": 127
    },
    {
      "midi": 79,
      "hit": false,
      "t": 39999.959999999905,
      "d": 454.54499999999825,
      "v": 127
    },
    {
      "midi": 57,
      "hit": false,
      "t": 40151.4749999999,
      "d": 151.51499999999942,
      "v": 127
    },
    {
      "midi": 61,
      "hit": false,
      "t": 40302.989999999896,
      "d": 151.51499999999942,
      "v": 127
    },
    {
      "midi": 62,
      "hit": false,
      "t": 40454.504999999896,
      "d": 151.51499999999942,
      "v": 127
    },
    {
      "midi": 78,
      "hit": false,
      "t": 40454.5049999999,
      "d": 454.54499999999825,
      "v": 127
    },
    {
      "midi": 57,
      "hit": false,
      "t": 40606.019999999895,
      "d": 151.51499999999942,
      "v": 127
    },
    {
      "midi": 54,
      "hit": false,
      "t": 40757.534999999894,
      "d": 151.51499999999942,
      "v": 127
    },
    {
      "midi": 50,
      "hit": false,
      "t": 40909.049999999894,
      "d": 454.54499999999825,
      "v": 127
    },
    {
      "midi": 78,
      "hit": false,
      "t": 40909.0499999999,
      "d": 151.51499999999942,
      "v": 127
    },
    {
      "midi": 74,
      "hit": false,
      "t": 41060.5649999999,
      "d": 151.51499999999942,
      "v": 127
    },
    {
      "midi": 71,
      "hit": false,
      "t": 41212.0799999999,
      "d": 151.51499999999942,
      "v": 127
    },
    {
      "midi": 62,
      "hit": false,
      "t": 41363.59499999989,
      "d": 454.54499999999825,
      "v": 127
    },
    {
      "midi": 67,
      "hit": false,
      "t": 41363.5949999999,
      "d": 151.51499999999942,
      "v": 127
    },
    {
      "midi": 71,
      "hit": false,
      "t": 41515.1099999999,
      "d": 151.51499999999942,
      "v": 127
    },
    {
      "midi": 74,
      "hit": false,
      "t": 41666.6249999999,
      "d": 151.51499999999942,
      "v": 127
    },
    {
      "midi": 50,
      "hit": false,
      "t": 41818.13999999989,
      "d": 151.51499999999942,
      "v": 127
    },
    {
      "midi": 78,
      "hit": false,
      "t": 41818.1399999999,
      "d": 454.54499999999825,
      "v": 127
    },
    {
      "midi": 52,
      "hit": false,
      "t": 41969.65499999989,
      "d": 151.51499999999942,
      "v": 127
    },
    {
      "midi": 55,
      "hit": false,
      "t": 42121.16999999989,
      "d": 151.51499999999942,
      "v": 127
    },
    {
      "midi": 59,
      "hit": false,
      "t": 42272.68499999989,
      "d": 151.51499999999942,
      "v": 127
    },
    {
      "midi": 76,
      "hit": false,
      "t": 42272.684999999896,
      "d": 454.54499999999825,
      "v": 127
    },
    {
      "midi": 55,
      "hit": false,
      "t": 42424.19999999989,
      "d": 151.51499999999942,
      "v": 127
    },
    {
      "midi": 52,
      "hit": false,
      "t": 42575.71499999989,
      "d": 151.51499999999942,
      "v": 127
    },
    {
      "midi": 50,
      "hit": false,
      "t": 42727.22999999989,
      "d": 454.54499999999825,
      "v": 127
    },
    {
      "midi": 76,
      "hit": false,
      "t": 42727.229999999894,
      "d": 151.51499999999942,
      "v": 127
    },
    {
      "midi": 73,
      "hit": false,
      "t": 42878.74499999989,
      "d": 151.51499999999942,
      "v": 127
    },
    {
      "midi": 69,
      "hit": false,
      "t": 43030.25999999989,
      "d": 151.51499999999942,
      "v": 127
    },
    {
      "midi": 62,
      "hit": false,
      "t": 43181.774999999885,
      "d": 454.54499999999825,
      "v": 127
    },
    {
      "midi": 67,
      "hit": false,
      "t": 43181.77499999989,
      "d": 151.51499999999942,
      "v": 127
    },
    {
      "midi": 69,
      "hit": false,
      "t": 43333.28999999989,
      "d": 151.51499999999942,
      "v": 127
    },
    {
      "midi": 73,
      "hit": false,
      "t": 43484.80499999989,
      "d": 151.51499999999942,
      "v": 127
    },
    {
      "midi": 50,
      "hit": false,
      "t": 43636.31999999988,
      "d": 151.51499999999942,
      "v": 127
    },
    {
      "midi": 76,
      "hit": false,
      "t": 43636.31999999989,
      "d": 454.54499999999825,
      "v": 127
    },
    {
      "midi": 54,
      "hit": false,
      "t": 43787.83499999988,
      "d": 151.51499999999942,
      "v": 127
    },
    {
      "midi": 57,
      "hit": false,
      "t": 43939.34999999988,
      "d": 151.51499999999942,
      "v": 127
    },
    {
      "midi": 62,
      "hit": false,
      "t": 44090.86499999988,
      "d": 151.51499999999942,
      "v": 127
    },
    {
      "midi": 74,
      "hit": false,
      "t": 44090.86499999989,
      "d": 454.54499999999825,
      "v": 127
    },
    {
      "midi": 57,
      "hit": false,
      "t": 44242.37999999988,
      "d": 151.51499999999942,
      "v": 127
    },
    {
      "midi": 54,
      "hit": false,
      "t": 44393.89499999988,
      "d": 151.51499999999942,
      "v": 127
    },
    {
      "midi": 57,
      "hit": false,
      "t": 44545.40999999988,
      "d": 151.51499999999942,
      "v": 127
    },
    {
      "midi": 54,
      "hit": false,
      "t": 44696.92499999988,
      "d": 151.51499999999942,
      "v": 127
    },
    {
      "midi": 50,
      "hit": false,
      "t": 44848.43999999988,
      "d": 151.51499999999942,
      "v": 127
    },
    {
      "midi": 54,
      "hit": false,
      "t": 44999.95499999988,
      "d": 151.51499999999942,
      "v": 127
    },
    {
      "midi": 74,
      "hit": false,
      "t": 44999.954999999885,
      "d": 454.54499999999825,
      "v": 127
    },
    {
      "midi": 50,
      "hit": false,
      "t": 45151.46999999988,
      "d": 151.51499999999942,
      "v": 127
    },
    {
      "midi": 48,
      "hit": false,
      "t": 45302.98499999988,
      "d": 151.51499999999942,
      "v": 127
    },
    {
      "midi": 47,
      "hit": false,
      "t": 45454.499999999876,
      "d": 151.51499999999942,
      "v": 127
    },
    {
      "midi": 74,
      "hit": false,
      "t": 45454.49999999988,
      "d": 151.51499999999942,
      "v": 127
    },
    {
      "midi": 50,
      "hit": false,
      "t": 45606.014999999876,
      "d": 151.51499999999942,
      "v": 127
    },
    {
      "midi": 72,
      "hit": false,
      "t": 45606.01499999988,
      "d": 151.51499999999942,
      "v": 127
    },
    {
      "midi": 54,
      "hit": false,
      "t": 45757.529999999875,
      "d": 151.51499999999942,
      "v": 127
    },
    {
      "midi": 71,
      "hit": false,
      "t": 45757.52999999988,
      "d": 151.51499999999942,
      "v": 127
    },
    {
      "midi": 55,
      "hit": false,
      "t": 45909.044999999875,
      "d": 151.51499999999942,
      "v": 127
    },
    {
      "midi": 71,
      "hit": false,
      "t": 45909.04499999988,
      "d": 151.51499999999942,
      "v": 127
    },
    {
      "midi": 50,
      "hit": false,
      "t": 46060.559999999874,
      "d": 151.51499999999942,
      "v": 127
    },
    {
      "midi": 69,
      "hit": false,
      "t": 46060.55999999988,
      "d": 151.51499999999942,
      "v": 127
    },
    {
      "midi": 47,
      "hit": false,
      "t": 46212.07499999987,
      "d": 151.51499999999942,
      "v": 127
    },
    {
      "midi": 67,
      "hit": false,
      "t": 46212.07499999988,
      "d": 151.51499999999942,
      "v": 127
    },
    {
      "midi": 50,
      "hit": false,
      "t": 46363.58999999987,
      "d": 151.51499999999942,
      "v": 127
    },
    {
      "midi": 67,
      "hit": false,
      "t": 46363.58999999988,
      "d": 151.51499999999942,
      "v": 127
    },
    {
      "midi": 47,
      "hit": false,
      "t": 46515.10499999987,
      "d": 151.51499999999942,
      "v": 127
    },
    {
      "midi": 71,
      "hit": false,
      "t": 46515.10499999988,
      "d": 151.51499999999942,
      "v": 127
    },
    {
      "midi": 43,
      "hit": false,
      "t": 46666.61999999987,
      "d": 151.51499999999942,
      "v": 127
    },
    {
      "midi": 74,
      "hit": false,
      "t": 46666.61999999988,
      "d": 151.51499999999942,
      "v": 127
    },
    {
      "midi": 47,
      "hit": false,
      "t": 46818.13499999987,
      "d": 151.51499999999942,
      "v": 127
    },
    {
      "midi": 77,
      "hit": false,
      "t": 46818.13499999988,
      "d": 151.51499999999942,
      "v": 127
    },
    {
      "midi": 43,
      "hit": false,
      "t": 46969.64999999987,
      "d": 151.51499999999942,
      "v": 127
    },
    {
      "midi": 76,
      "hit": false,
      "t": 46969.64999999988,
      "d": 151.51499999999942,
      "v": 127
    },
    {
      "midi": 41,
      "hit": false,
      "t": 47121.16499999987,
      "d": 151.51499999999942,
      "v": 127
    },
    {
      "midi": 74,
      "hit": false,
      "t": 47121.16499999988,
      "d": 151.51499999999942,
      "v": 127
    },
    {
      "midi": 40,
      "hit": false,
      "t": 47272.67999999987,
      "d": 151.51499999999942,
      "v": 127
    },
    {
      "midi": 74,
      "hit": false,
      "t": 47272.67999999988,
      "d": 151.51499999999942,
      "v": 127
    },
    {
      "midi": 43,
      "hit": false,
      "t": 47424.19499999987,
      "d": 151.51499999999942,
      "v": 127
    },
    {
      "midi": 76,
      "hit": false,
      "t": 47424.194999999876,
      "d": 151.51499999999942,
      "v": 127
    },
    {
      "midi": 47,
      "hit": false,
      "t": 47575.70999999987,
      "d": 151.51499999999942,
      "v": 127
    },
    {
      "midi": 77,
      "hit": false,
      "t": 47575.709999999875,
      "d": 151.51499999999942,
      "v": 127
    },
    {
      "midi": 48,
      "hit": false,
      "t": 47727.22499999987,
      "d": 151.51499999999942,
      "v": 127
    },
    {
      "midi": 76,
      "hit": false,
      "t": 47727.224999999875,
      "d": 454.54499999999825,
      "v": 127
    },
    {
      "midi": 52,
      "hit": false,
      "t": 47878.73999999987,
      "d": 151.51499999999942,
      "v": 127
    },
    {
      "midi": 55,
      "hit": false,
      "t": 48030.25499999987,
      "d": 151.51499999999942,
      "v": 127
    },
    {
      "midi": 60,
      "hit": false,
      "t": 48181.769999999866,
      "d": 151.51499999999942,
      "v": 127
    },
    {
      "midi": 55,
      "hit": false,
      "t": 48333.284999999865,
      "d": 151.51499999999942,
      "v": 127
    },
    {
      "midi": 52,
      "hit": false,
      "t": 48484.799999999865,
      "d": 151.51499999999942,
      "v": 127
    },
    {
      "midi": 55,
      "hit": false,
      "t": 48636.314999999864,
      "d": 151.51499999999942,
      "v": 127
    },
    {
      "midi": 76,
      "hit": false,
      "t": 48636.31499999987,
      "d": 454.54499999999825,
      "v": 127
    },
    {
      "midi": 52,
      "hit": false,
      "t": 48787.82999999986,
      "d": 151.51499999999942,
      "v": 127
    },
    {
      "midi": 50,
      "hit": false,
      "t": 48939.34499999986,
      "d": 151.51499999999942,
      "v": 127
    },
    {
      "midi": 49,
      "hit": false,
      "t": 49090.85999999986,
      "d": 151.51499999999942,
      "v": 127
    },
    {
      "midi": 76,
      "hit": false,
      "t": 49090.85999999987,
      "d": 151.51499999999942,
      "v": 127
    },
    {
      "midi": 52,
      "hit": false,
      "t": 49242.37499999986,
      "d": 151.51499999999942,
      "v": 127
    },
    {
      "midi": 74,
      "hit": false,
      "t": 49242.37499999987,
      "d": 151.51499999999942,
      "v": 127
    },
    {
      "midi": 55,
      "hit": false,
      "t": 49393.88999999986,
      "d": 151.51499999999942,
      "v": 127
    },
    {
      "midi": 73,
      "hit": false,
      "t": 49393.88999999987,
      "d": 151.51499999999942,
      "v": 127
    },
    {
      "midi": 57,
      "hit": false,
      "t": 49545.40499999986,
      "d": 151.51499999999942,
      "v": 127
    },
    {
      "midi": 73,
      "hit": false,
      "t": 49545.40499999987,
      "d": 151.51499999999942,
      "v": 127
    },
    {
      "midi": 52,
      "hit": false,
      "t": 49696.91999999986,
      "d": 151.51499999999942,
      "v": 127
    },
    {
      "midi": 71,
      "hit": false,
      "t": 49696.91999999987,
      "d": 151.51499999999942,
      "v": 127
    },
    {
      "midi": 49,
      "hit": false,
      "t": 49848.43499999986,
      "d": 151.51499999999942,
      "v": 127
    },
    {
      "midi": 69,
      "hit": false,
      "t": 49848.43499999987,
      "d": 151.51499999999942,
      "v": 127
    },
    {
      "midi": 52,
      "hit": false,
      "t": 49999.94999999986,
      "d": 151.51499999999942,
      "v": 127
    },
    {
      "midi": 69,
      "hit": false,
      "t": 49999.949999999866,
      "d": 151.51499999999942,
      "v": 127
    },
    {
      "midi": 49,
      "hit": false,
      "t": 50151.46499999986,
      "d": 151.51499999999942,
      "v": 127
    },
    {
      "midi": 73,
      "hit": false,
      "t": 50151.464999999866,
      "d": 151.51499999999942,
      "v": 127
    },
    {
      "midi": 45,
      "hit": false,
      "t": 50302.97999999986,
      "d": 151.51499999999942,
      "v": 127
    },
    {
      "midi": 76,
      "hit": false,
      "t": 50302.979999999865,
      "d": 151.51499999999942,
      "v": 127
    },
    {
      "midi": 49,
      "hit": false,
      "t": 50454.49499999986,
      "d": 151.51499999999942,
      "v": 127
    },
    {
      "midi": 79,
      "hit": false,
      "t": 50454.494999999864,
      "d": 151.51499999999942,
      "v": 127
    },
    {
      "midi": 45,
      "hit": false,
      "t": 50606.00999999986,
      "d": 151.51499999999942,
      "v": 127
    },
    {
      "midi": 78,
      "hit": false,
      "t": 50606.009999999864,
      "d": 151.51499999999942,
      "v": 127
    },
    {
      "midi": 43,
      "hit": false,
      "t": 50757.524999999856,
      "d": 151.51499999999942,
      "v": 127
    },
    {
      "midi": 76,
      "hit": false,
      "t": 50757.52499999986,
      "d": 151.51499999999942,
      "v": 127
    },
    {
      "midi": 42,
      "hit": false,
      "t": 50909.039999999855,
      "d": 151.51499999999942,
      "v": 127
    },
    {
      "midi": 76,
      "hit": false,
      "t": 50909.03999999986,
      "d": 151.51499999999942,
      "v": 127
    },
    {
      "midi": 45,
      "hit": false,
      "t": 51060.554999999855,
      "d": 151.51499999999942,
      "v": 127
    },
    {
      "midi": 78,
      "hit": false,
      "t": 51060.55499999986,
      "d": 151.51499999999942,
      "v": 127
    },
    {
      "midi": 49,
      "hit": false,
      "t": 51212.069999999854,
      "d": 151.51499999999942,
      "v": 127
    },
    {
      "midi": 79,
      "hit": false,
      "t": 51212.06999999986,
      "d": 151.51499999999942,
      "v": 127
    },
    {
      "midi": 50,
      "hit": false,
      "t": 51363.58499999985,
      "d": 151.51499999999942,
      "v": 127
    },
    {
      "midi": 78,
      "hit": false,
      "t": 51363.58499999986,
      "d": 454.54499999999825,
      "v": 127
    },
    {
      "midi": 54,
      "hit": false,
      "t": 51515.09999999985,
      "d": 151.51499999999942,
      "v": 127
    },
    {
      "midi": 57,
      "hit": false,
      "t": 51666.61499999985,
      "d": 151.51499999999942,
      "v": 127
    },
    {
      "midi": 62,
      "hit": false,
      "t": 51818.12999999985,
      "d": 151.51499999999942,
      "v": 127
    },
    {
      "midi": 57,
      "hit": false,
      "t": 51969.64499999985,
      "d": 151.51499999999942,
      "v": 127
    },
    {
      "midi": 54,
      "hit": false,
      "t": 52121.15999999985,
      "d": 151.51499999999942,
      "v": 127
    },
    {
      "midi": 57,
      "hit": false,
      "t": 52272.67499999985,
      "d": 151.51499999999942,
      "v": 127
    },
    {
      "midi": 81,
      "hit": false,
      "t": 52272.67499999986,
      "d": 454.54499999999825,
      "v": 127
    },
    {
      "midi": 54,
      "hit": false,
      "t": 52424.18999999985,
      "d": 151.51499999999942,
      "v": 127
    },
    {
      "midi": 50,
      "hit": false,
      "t": 52575.70499999985,
      "d": 151.51499999999942,
      "v": 127
    },
    {
      "midi": 54,
      "hit": false,
      "t": 52727.21999999985,
      "d": 151.51499999999942,
      "v": 127
    },
    {
      "midi": 81,
      "hit": false,
      "t": 52727.219999999856,
      "d": 151.51499999999942,
      "v": 127
    },
    {
      "midi": 50,
      "hit": false,
      "t": 52878.73499999985,
      "d": 151.51499999999942,
      "v": 127
    },
    {
      "midi": 79,
      "hit": false,
      "t": 52878.734999999855,
      "d": 151.51499999999942,
      "v": 127
    },
    {
      "midi": 45,
      "hit": false,
      "t": 53030.24999999985,
      "d": 151.51499999999942,
      "v": 127
    },
    {
      "midi": 78,
      "hit": false,
      "t": 53030.249999999854,
      "d": 151.51499999999942,
      "v": 127
    },
    {
      "midi": 50,
      "hit": false,
      "t": 53181.76499999985,
      "d": 151.51499999999942,
      "v": 127
    },
    {
      "midi": 78,
      "hit": false,
      "t": 53181.764999999854,
      "d": 151.51499999999942,
      "v": 127
    },
    {
      "midi": 45,
      "hit": false,
      "t": 53333.279999999846,
      "d": 151.51499999999942,
      "v": 127
    },
    {
      "midi": 76,
      "hit": false,
      "t": 53333.27999999985,
      "d": 151.51499999999942,
      "v": 127
    },
    {
      "midi": 42,
      "hit": false,
      "t": 53484.794999999845,
      "d": 151.51499999999942,
      "v": 127
    },
    {
      "midi": 74,
      "hit": false,
      "t": 53484.79499999985,
      "d": 151.51499999999942,
      "v": 127
    },
    {
      "midi": 38,
      "hit": false,
      "t": 53636.309999999845,
      "d": 454.54499999999825,
      "v": 127
    },
    {
      "midi": 74,
      "hit": false,
      "t": 53636.30999999985,
      "d": 151.51499999999942,
      "v": 127
    },
    {
      "midi": 78,
      "hit": false,
      "t": 53787.82499999985,
      "d": 151.51499999999942,
      "v": 127
    },
    {
      "midi": 81,
      "hit": false,
      "t": 53939.33999999985,
      "d": 151.51499999999942,
      "v": 127
    },
    {
      "midi": 50,
      "hit": false,
      "t": 54090.85499999984,
      "d": 454.54499999999825,
      "v": 127
    },
    {
      "midi": 84,
      "hit": false,
      "t": 54090.85499999985,
      "d": 151.51499999999942,
      "v": 127
    },
    {
      "midi": 83,
      "hit": false,
      "t": 54242.36999999985,
      "d": 151.51499999999942,
      "v": 127
    },
    {
      "midi": 81,
      "hit": false,
      "t": 54393.88499999985,
      "d": 151.51499999999942,
      "v": 127
    },
    {
      "midi": 43,
      "hit": false,
      "t": 54545.39999999984,
      "d": 454.54499999999825,
      "v": 127
    },
    {
      "midi": 81,
      "hit": false,
      "t": 54545.39999999985,
      "d": 151.51499999999942,
      "v": 127
    },
    {
      "midi": 83,
      "hit": false,
      "t": 54696.91499999985,
      "d": 151.51499999999942,
      "v": 127
    },
    {
      "midi": 84,
      "hit": false,
      "t": 54848.42999999985,
      "d": 151.51499999999942,
      "v": 127
    },
    {
      "midi": 83,
      "hit": false,
      "t": 54999.94499999985,
      "d": 454.54499999999825,
      "v": 127
    },
    {
      "midi": 47,
      "hit": false,
      "t": 55151.45999999984,
      "d": 151.51499999999942,
      "v": 127
    },
    {
      "midi": 50,
      "hit": false,
      "t": 55302.97499999984,
      "d": 151.51499999999942,
      "v": 127
    },
    {
      "midi": 55,
      "hit": false,
      "t": 55454.48999999984,
      "d": 151.51499999999942,
      "v": 127
    },
    {
      "midi": 57,
      "hit": false,
      "t": 55606.00499999984,
      "d": 151.51499999999942,
      "v": 127
    },
    {
      "midi": 81,
      "hit": false,
      "t": 55606.004999999845,
      "d": 151.51499999999942,
      "v": 127
    },
    {
      "midi": 59,
      "hit": false,
      "t": 55757.51999999984,
      "d": 151.51499999999942,
      "v": 127
    },
    {
      "midi": 79,
      "hit": false,
      "t": 55757.519999999844,
      "d": 151.51499999999942,
      "v": 127
    },
    {
      "midi": 59,
      "hit": false,
      "t": 55909.034999999836,
      "d": 151.51499999999942,
      "v": 127
    },
    {
      "midi": 77,
      "hit": false,
      "t": 55909.03499999984,
      "d": 151.51499999999942,
      "v": 127
    },
    {
      "midi": 60,
      "hit": false,
      "t": 56060.549999999836,
      "d": 151.51499999999942,
      "v": 127
    },
    {
      "midi": 76,
      "hit": false,
      "t": 56060.54999999984,
      "d": 151.51499999999942,
      "v": 127
    },
    {
      "midi": 62,
      "hit": false,
      "t": 56212.064999999835,
      "d": 151.51499999999942,
      "v": 127
    },
    {
      "midi": 74,
      "hit": false,
      "t": 56212.06499999984,
      "d": 151.51499999999942,
      "v": 127
    },
    {
      "midi": 64,
      "hit": false,
      "t": 56363.579999999834,
      "d": 454.54499999999825,
      "v": 127
    },
    {
      "midi": 72,
      "hit": false,
      "t": 56363.57999999984,
      "d": 151.51499999999942,
      "v": 127
    },
    {
      "midi": 76,
      "hit": false,
      "t": 56515.09499999984,
      "d": 151.51499999999942,
      "v": 127
    },
    {
      "midi": 79,
      "hit": false,
      "t": 56666.60999999984,
      "d": 151.51499999999942,
      "v": 127
    },
    {
      "midi": 60,
      "hit": false,
      "t": 56818.12499999983,
      "d": 151.51499999999942,
      "v": 127
    },
    {
      "midi": 81,
      "hit": false,
      "t": 56818.12499999984,
      "d": 151.51499999999942,
      "v": 127
    },
    {
      "midi": 57,
      "hit": false,
      "t": 56969.63999999983,
      "d": 151.51499999999942,
      "v": 127
    },
    {
      "midi": 78,
      "hit": false,
      "t": 56969.63999999984,
      "d": 151.51499999999942,
      "v": 127
    },
    {
      "midi": 54,
      "hit": false,
      "t": 57121.15499999983,
      "d": 151.51499999999942,
      "v": 127
    },
    {
      "midi": 74,
      "hit": false,
      "t": 57121.15499999984,
      "d": 151.51499999999942,
      "v": 127
    },
    {
      "midi": 62,
      "hit": false,
      "t": 57272.66999999983,
      "d": 454.54499999999825,
      "v": 127
    },
    {
      "midi": 71,
      "hit": false,
      "t": 57272.66999999984,
      "d": 151.51499999999942,
      "v": 127
    },
    {
      "midi": 74,
      "hit": false,
      "t": 57424.18499999984,
      "d": 151.51499999999942,
      "v": 127
    },
    {
      "midi": 78,
      "hit": false,
      "t": 57575.69999999984,
      "d": 151.51499999999942,
      "v": 127
    },
    {
      "midi": 59,
      "hit": false,
      "t": 57727.21499999983,
      "d": 151.51499999999942,
      "v": 127
    },
    {
      "midi": 79,
      "hit": false,
      "t": 57727.21499999984,
      "d": 151.51499999999942,
      "v": 127
    },
    {
      "midi": 55,
      "hit": false,
      "t": 57878.72999999983,
      "d": 151.51499999999942,
      "v": 127
    },
    {
      "midi": 76,
      "hit": false,
      "t": 57878.729999999836,
      "d": 151.51499999999942,
      "v": 127
    },
    {
      "midi": 52,
      "hit": false,
      "t": 58030.24499999983,
      "d": 151.51499999999942,
      "v": 127
    },
    {
      "midi": 72,
      "hit": false,
      "t": 58030.244999999835,
      "d": 151.51499999999942,
      "v": 127
    },
    {
      "midi": 60,
      "hit": false,
      "t": 58181.75999999983,
      "d": 454.54499999999825,
      "v": 127
    },
    {
      "midi": 69,
      "hit": false,
      "t": 58181.759999999835,
      "d": 151.51499999999942,
      "v": 127
    },
    {
      "midi": 72,
      "hit": false,
      "t": 58333.274999999834,
      "d": 151.51499999999942,
      "v": 127
    },
    {
      "midi": 76,
      "hit": false,
      "t": 58484.78999999983,
      "d": 151.51499999999942,
      "v": 127
    },
    {
      "midi": 57,
      "hit": false,
      "t": 58636.304999999826,
      "d": 151.51499999999942,
      "v": 127
    },
    {
      "midi": 78,
      "hit": false,
      "t": 58636.30499999983,
      "d": 151.51499999999942,
      "v": 127
    },
    {
      "midi": 54,
      "hit": false,
      "t": 58787.819999999825,
      "d": 151.51499999999942,
      "v": 127
    },
    {
      "midi": 74,
      "hit": false,
      "t": 58787.81999999983,
      "d": 151.51499999999942,
      "v": 127
    },
    {
      "midi": 50,
      "hit": false,
      "t": 58939.334999999825,
      "d": 151.51499999999942,
      "v": 127
    },
    {
      "midi": 71,
      "hit": false,
      "t": 58939.33499999983,
      "d": 151.51499999999942,
      "v": 127
    },
    {
      "midi": 59,
      "hit": false,
      "t": 59090.849999999824,
      "d": 454.54499999999825,
      "v": 127
    },
    {
      "midi": 67,
      "hit": false,
      "t": 59090.84999999983,
      "d": 151.51499999999942,
      "v": 127
    },
    {
      "midi": 71,
      "hit": false,
      "t": 59242.36499999983,
      "d": 151.51499999999942,
      "v": 127
    },
    {
      "midi": 74,
      "hit": false,
      "t": 59393.87999999983,
      "d": 151.51499999999942,
      "v": 127
    },
    {
      "midi": 55,
      "hit": false,
      "t": 59545.39499999982,
      "d": 151.51499999999942,
      "v": 127
    },
    {
      "midi": 76,
      "hit": false,
      "t": 59545.39499999983,
      "d": 151.51499999999942,
      "v": 127
    },
    {
      "midi": 52,
      "hit": false,
      "t": 59696.90999999982,
      "d": 151.51499999999942,
      "v": 127
    },
    {
      "midi": 72,
      "hit": false,
      "t": 59696.90999999983,
      "d": 151.51499999999942,
      "v": 127
    },
    {
      "midi": 48,
      "hit": false,
      "t": 59848.42499999982,
      "d": 151.51499999999942,
      "v": 127
    },
    {
      "midi": 69,
      "hit": false,
      "t": 59848.42499999983,
      "d": 151.51499999999942,
      "v": 127
    },
    {
      "midi": 57,
      "hit": false,
      "t": 59999.93999999982,
      "d": 454.54499999999825,
      "v": 127
    },
    {
      "midi": 66,
      "hit": false,
      "t": 59999.93999999983,
      "d": 151.51499999999942,
      "v": 127
    },
    {
      "midi": 69,
      "hit": false,
      "t": 60151.45499999983,
      "d": 151.51499999999942,
      "v": 127
    },
    {
      "midi": 72,
      "hit": false,
      "t": 60302.96999999983,
      "d": 151.51499999999942,
      "v": 127
    },
    {
      "midi": 54,
      "hit": false,
      "t": 60454.48499999982,
      "d": 151.51499999999942,
      "v": 127
    },
    {
      "midi": 74,
      "hit": false,
      "t": 60454.484999999826,
      "d": 151.51499999999942,
      "v": 127
    },
    {
      "midi": 50,
      "hit": false,
      "t": 60605.99999999982,
      "d": 151.51499999999942,
      "v": 127
    },
    {
      "midi": 71,
      "hit": false,
      "t": 60605.999999999825,
      "d": 151.51499999999942,
      "v": 127
    },
    {
      "midi": 47,
      "hit": false,
      "t": 60757.51499999982,
      "d": 151.51499999999942,
      "v": 127
    },
    {
      "midi": 67,
      "hit": false,
      "t": 60757.514999999825,
      "d": 151.51499999999942,
      "v": 127
    },
    {
      "midi": 55,
      "hit": false,
      "t": 60909.02999999982,
      "d": 454.54499999999825,
      "v": 127
    },
    {
      "midi": 64,
      "hit": false,
      "t": 60909.029999999824,
      "d": 151.51499999999942,
      "v": 127
    },
    {
      "midi": 67,
      "hit": false,
      "t": 61060.54499999982,
      "d": 151.51499999999942,
      "v": 127
    },
    {
      "midi": 71,
      "hit": false,
      "t": 61212.05999999982,
      "d": 151.51499999999942,
      "v": 127
    },
    {
      "midi": 52,
      "hit": false,
      "t": 61363.574999999815,
      "d": 151.51499999999942,
      "v": 127
    },
    {
      "midi": 72,
      "hit": false,
      "t": 61363.57499999982,
      "d": 151.51499999999942,
      "v": 127
    },
    {
      "midi": 48,
      "hit": false,
      "t": 61515.089999999815,
      "d": 151.51499999999942,
      "v": 127
    },
    {
      "midi": 69,
      "hit": false,
      "t": 61515.08999999982,
      "d": 151.51499999999942,
      "v": 127
    },
    {
      "midi": 45,
      "hit": false,
      "t": 61666.604999999814,
      "d": 151.51499999999942,
      "v": 127
    },
    {
      "midi": 66,
      "hit": false,
      "t": 61666.60499999982,
      "d": 151.51499999999942,
      "v": 127
    },
    {
      "midi": 54,
      "hit": false,
      "t": 61818.11999999981,
      "d": 454.54499999999825,
      "v": 127
    },
    {
      "midi": 62,
      "hit": false,
      "t": 61818.11999999982,
      "d": 151.51499999999942,
      "v": 127
    },
    {
      "midi": 66,
      "hit": false,
      "t": 61969.63499999982,
      "d": 151.51499999999942,
      "v": 127
    },
    {
      "midi": 69,
      "hit": false,
      "t": 62121.14999999982,
      "d": 151.51499999999942,
      "v": 127
    },
    {
      "midi": 50,
      "hit": false,
      "t": 62272.66499999981,
      "d": 151.51499999999942,
      "v": 127
    },
    {
      "midi": 71,
      "hit": false,
      "t": 62272.66499999982,
      "d": 151.51499999999942,
      "v": 127
    },
    {
      "midi": 47,
      "hit": false,
      "t": 62424.17999999981,
      "d": 151.51499999999942,
      "v": 127
    },
    {
      "midi": 67,
      "hit": false,
      "t": 62424.17999999982,
      "d": 151.51499999999942,
      "v": 127
    },
    {
      "midi": 43,
      "hit": false,
      "t": 62575.69499999981,
      "d": 151.51499999999942,
      "v": 127
    },
    {
      "midi": 64,
      "hit": false,
      "t": 62575.69499999982,
      "d": 151.51499999999942,
      "v": 127
    },
    {
      "midi": 52,
      "hit": false,
      "t": 62727.20999999981,
      "d": 151.51499999999942,
      "v": 127
    },
    {
      "midi": 60,
      "hit": false,
      "t": 62727.20999999982,
      "d": 151.51499999999942,
      "v": 127
    },
    {
      "midi": 48,
      "hit": false,
      "t": 62878.72499999981,
      "d": 151.51499999999942,
      "v": 127
    },
    {
      "midi": 64,
      "hit": false,
      "t": 62878.72499999982,
      "d": 151.51499999999942,
      "v": 127
    },
    {
      "midi": 45,
      "hit": false,
      "t": 63030.23999999981,
      "d": 151.51499999999942,
      "v": 127
    },
    {
      "midi": 67,
      "hit": false,
      "t": 63030.239999999816,
      "d": 151.51499999999942,
      "v": 127
    },
    {
      "midi": 54,
      "hit": false,
      "t": 63181.75499999981,
      "d": 151.51499999999942,
      "v": 127
    },
    {
      "midi": 69,
      "hit": false,
      "t": 63181.754999999815,
      "d": 151.51499999999942,
      "v": 127
    },
    {
      "midi": 50,
      "hit": false,
      "t": 63333.26999999981,
      "d": 151.51499999999942,
      "v": 127
    },
    {
      "midi": 66,
      "hit": false,
      "t": 63333.269999999815,
      "d": 151.51499999999942,
      "v": 127
    },
    {
      "midi": 47,
      "hit": false,
      "t": 63484.78499999981,
      "d": 151.51499999999942,
      "v": 127
    },
    {
      "midi": 62,
      "hit": false,
      "t": 63484.784999999814,
      "d": 151.51499999999942,
      "v": 127
    },
    {
      "midi": 55,
      "hit": false,
      "t": 63636.29999999981,
      "d": 454.54499999999825,
      "v": 127
    },
    {
      "midi": 59,
      "hit": false,
      "t": 63636.299999999814,
      "d": 151.51499999999942,
      "v": 127
    },
    {
      "midi": 62,
      "hit": false,
      "t": 63787.81499999981,
      "d": 151.51499999999942,
      "v": 127
    },
    {
      "midi": 66,
      "hit": false,
      "t": 63939.32999999981,
      "d": 151.51499999999942,
      "v": 127
    },
    {
      "midi": 52,
      "hit": false,
      "t": 64090.844999999805,
      "d": 454.54499999999825,
      "v": 127
    },
    {
      "midi": 67,
      "hit": false,
      "t": 64090.84499999981,
      "d": 151.51499999999942,
      "v": 127
    },
    {
      "midi": 64,
      "hit": false,
      "t": 64242.35999999981,
      "d": 151.51499999999942,
      "v": 127
    },
    {
      "midi": 59,
      "hit": false,
      "t": 64393.87499999981,
      "d": 151.51499999999942,
      "v": 127
    },
    {
      "midi": 48,
      "hit": false,
      "t": 64545.3899999998,
      "d": 454.54499999999825,
      "v": 127
    },
    {
      "midi": 57,
      "hit": false,
      "t": 64545.38999999981,
      "d": 151.51499999999942,
      "v": 127
    },
    {
      "midi": 64,
      "hit": false,
      "t": 64696.90499999981,
      "d": 151.51499999999942,
      "v": 127
    },
    {
      "midi": 67,
      "hit": false,
      "t": 64848.41999999981,
      "d": 151.51499999999942,
      "v": 127
    },
    {
      "midi": 50,
      "hit": false,
      "t": 64999.9349999998,
      "d": 454.54499999999825,
      "v": 127
    },
    {
      "midi": 66,
      "hit": false,
      "t": 64999.93499999981,
      "d": 151.51499999999942,
      "v": 127
    },
    {
      "midi": 62,
      "hit": false,
      "t": 65151.44999999981,
      "d": 151.51499999999942,
      "v": 127
    },
    {
      "midi": 60,
      "hit": false,
      "t": 65302.96499999981,
      "d": 151.51499999999942,
      "v": 127
    },
    {
      "midi": 43,
      "hit": false,
      "t": 65454.4799999998,
      "d": 3636.3599999999933,
      "v": 127
    },
    {
      "midi": 59,
      "hit": false,
      "t": 65454.47999999981,
      "d": 3636.3600000000006,
      "v": 127
    },
    {
      "midi": 62,
      "hit": false,
      "t": 65454.47999999981,
      "d": 3636.3600000000006,
      "v": 127
    },
    {
      "midi": 67,
      "hit": false,
      "t": 65454.47999999981,
      "d": 3636.3600000000006,
      "v": 127
    }
  ]
}