{
  "jsonPath": "Classical/Classical/Johann Sebastian Bach/das-wohltemperierte-clavier-i-praeludium-xvii.json",
  "path": "Classical\\Classical\\Johann Sebastian Bach\\Das Wohltemperierte Clavier I, Praeludium XVII.mid",
  "name": "Das Wohltemperierte Clavier I, Praeludium XVII",
  "difficulty": "Advanced",
  "bpm": 108.000108000108,
  "notes": [
    {
      "midi": 56,
      "hit": false,
      "t": 0,
      "d": 555.5550000000001,
      "v": 127
    },
    {
      "midi": 60,
      "hit": false,
      "t": 0,
      "d": 555.5550000000001,
      "v": 127
    },
    {
      "midi": 63,
      "hit": false,
      "t": 0,
      "d": 555.5550000000001,
      "v": 127
    },
    {
      "midi": 68,
      "hit": false,
      "t": 277.77750000000003,
      "d": 138.88875000000002,
      "v": 127
    },
    {
      "midi": 67,
      "hit": false,
      "t": 416.66625000000005,
      "d": 138.88875000000002,
      "v": 127
    },
    {
      "midi": 68,
      "hit": false,
      "t": 555.5550000000001,
      "d": 277.77750000000003,
      "v": 127
    },
    {
      "midi": 72,
      "hit": false,
      "t": 833.3325000000001,
      "d": 277.77750000000003,
      "v": 127
    },
    {
      "midi": 63,
      "hit": false,
      "t": 1111.1100000000001,
      "d": 277.77750000000015,
      "v": 127
    },
    {
      "midi": 68,
      "hit": false,
      "t": 1388.8875000000003,
      "d": 277.77750000000015,
      "v": 127
    },
    {
      "midi": 55,
      "hit": false,
      "t": 1666.6650000000002,
      "d": 555.5550000000001,
      "v": 127
    },
    {
      "midi": 58,
      "hit": false,
      "t": 1666.6650000000002,
      "d": 555.5550000000001,
      "v": 127
    },
    {
      "midi": 63,
      "hit": false,
      "t": 1666.6650000000002,
      "d": 555.5550000000001,
      "v": 127
    },
    {
      "midi": 70,
      "hit": false,
      "t": 1944.4425000000006,
      "d": 138.88875000000007,
      "v": 127
    },
    {
      "midi": 68,
      "hit": false,
      "t": 2083.3312500000006,
      "d": 138.88875000000007,
      "v": 127
    },
    {
      "midi": 70,
      "hit": false,
      "t": 2222.2200000000007,
      "d": 277.77750000000015,
      "v": 127
    },
    {
      "midi": 73,
      "hit": false,
      "t": 2499.997500000001,
      "d": 277.77750000000015,
      "v": 127
    },
    {
      "midi": 63,
      "hit": false,
      "t": 2777.775000000001,
      "d": 277.77750000000015,
      "v": 127
    },
    {
      "midi": 70,
      "hit": false,
      "t": 3055.552500000001,
      "d": 277.77750000000015,
      "v": 127
    },
    {
      "midi": 72,
      "hit": false,
      "t": 3333.3300000000013,
      "d": 555.5549999999998,
      "v": 127
    },
    {
      "midi": 56,
      "hit": false,
      "t": 3611.1075,
      "d": 138.88875000000007,
      "v": 127
    },
    {
      "midi": 55,
      "hit": false,
      "t": 3749.99625,
      "d": 138.88875000000007,
      "v": 127
    },
    {
      "midi": 56,
      "hit": false,
      "t": 3888.885,
      "d": 277.77750000000015,
      "v": 127
    },
    {
      "midi": 72,
      "hit": false,
      "t": 3888.885000000001,
      "d": 555.5550000000003,
      "v": 127
    },
    {
      "midi": 75,
      "hit": false,
      "t": 3888.885000000001,
      "d": 555.5550000000003,
      "v": 127
    },
    {
      "midi": 80,
      "hit": false,
      "t": 3888.885000000001,
      "d": 555.5550000000003,
      "v": 127
    },
    {
      "midi": 60,
      "hit": false,
      "t": 4166.6625,
      "d": 277.77750000000015,
      "v": 127
    },
    {
      "midi": 51,
      "hit": false,
      "t": 4444.4400000000005,
      "d": 277.77750000000015,
      "v": 127
    },
    {
      "midi": 56,
      "hit": false,
      "t": 4722.217500000001,
      "d": 277.77750000000015,
      "v": 127
    },
    {
      "midi": 72,
      "hit": false,
      "t": 4722.217500000002,
      "d": 277.77750000000015,
      "v": 127
    },
    {
      "midi": 75,
      "hit": false,
      "t": 4722.217500000002,
      "d": 277.77750000000015,
      "v": 127
    },
    {
      "midi": 70,
      "hit": false,
      "t": 4999.995000000002,
      "d": 555.5550000000003,
      "v": 127
    },
    {
      "midi": 73,
      "hit": false,
      "t": 4999.995000000002,
      "d": 555.5550000000003,
      "v": 127
    },
    {
      "midi": 58,
      "hit": false,
      "t": 5277.772500000001,
      "d": 138.88875000000007,
      "v": 127
    },
    {
      "midi": 56,
      "hit": false,
      "t": 5416.661250000001,
      "d": 138.88875000000007,
      "v": 127
    },
    {
      "midi": 58,
      "hit": false,
      "t": 5555.550000000001,
      "d": 277.77750000000015,
      "v": 127
    },
    {
      "midi": 79,
      "hit": false,
      "t": 5555.550000000002,
      "d": 555.5550000000003,
      "v": 127
    },
    {
      "midi": 61,
      "hit": false,
      "t": 5833.327500000001,
      "d": 277.77750000000015,
      "v": 127
    },
    {
      "midi": 51,
      "hit": false,
      "t": 6111.105000000001,
      "d": 277.77750000000015,
      "v": 127
    },
    {
      "midi": 58,
      "hit": false,
      "t": 6388.8825000000015,
      "d": 277.77750000000015,
      "v": 127
    },
    {
      "midi": 70,
      "hit": false,
      "t": 6388.882500000002,
      "d": 277.77750000000015,
      "v": 127
    },
    {
      "midi": 73,
      "hit": false,
      "t": 6388.882500000002,
      "d": 277.77750000000015,
      "v": 127
    },
    {
      "midi": 79,
      "hit": false,
      "t": 6388.882500000002,
      "d": 277.77750000000015,
      "v": 127
    },
    {
      "midi": 68,
      "hit": false,
      "t": 6666.660000000003,
      "d": 555.5550000000003,
      "v": 127
    },
    {
      "midi": 75,
      "hit": false,
      "t": 6666.660000000003,
      "d": 555.5550000000003,
      "v": 127
    },
    {
      "midi": 80,
      "hit": false,
      "t": 6666.660000000003,
      "d": 555.5550000000003,
      "v": 127
    },
    {
      "midi": 60,
      "hit": false,
      "t": 6944.437500000002,
      "d": 138.88875000000007,
      "v": 127
    },
    {
      "midi": 58,
      "hit": false,
      "t": 7083.326250000002,
      "d": 138.88875000000007,
      "v": 127
    },
    {
      "midi": 60,
      "hit": false,
      "t": 7222.215000000002,
      "d": 277.77750000000015,
      "v": 127
    },
    {
      "midi": 75,
      "hit": false,
      "t": 7222.215000000003,
      "d": 555.5550000000003,
      "v": 127
    },
    {
      "midi": 63,
      "hit": false,
      "t": 7499.992500000002,
      "d": 277.77750000000015,
      "v": 127
    },
    {
      "midi": 56,
      "hit": false,
      "t": 7777.770000000002,
      "d": 277.77750000000015,
      "v": 127
    },
    {
      "midi": 60,
      "hit": false,
      "t": 8055.547500000002,
      "d": 277.77750000000015,
      "v": 127
    },
    {
      "midi": 70,
      "hit": false,
      "t": 8055.547500000003,
      "d": 277.77749999999924,
      "v": 127
    },
    {
      "midi": 75,
      "hit": false,
      "t": 8055.547500000003,
      "d": 277.77749999999924,
      "v": 127
    },
    {
      "midi": 75,
      "hit": false,
      "t": 8333.325000000003,
      "d": 277.77750000000015,
      "v": 127
    },
    {
      "midi": 53,
      "hit": false,
      "t": 8333.325000000003,
      "d": 555.5550000000003,
      "v": 127
    },
    {
      "midi": 80,
      "hit": false,
      "t": 8611.102500000003,
      "d": 138.88875000000007,
      "v": 127
    },
    {
      "midi": 79,
      "hit": false,
      "t": 8749.991250000003,
      "d": 138.88875000000007,
      "v": 127
    },
    {
      "midi": 80,
      "hit": false,
      "t": 8888.880000000003,
      "d": 277.77750000000015,
      "v": 127
    },
    {
      "midi": 65,
      "hit": false,
      "t": 8888.880000000003,
      "d": 555.5550000000003,
      "v": 127
    },
    {
      "midi": 77,
      "hit": false,
      "t": 9166.657500000003,
      "d": 277.77750000000015,
      "v": 127
    },
    {
      "midi": 72,
      "hit": false,
      "t": 9444.435000000003,
      "d": 277.77750000000015,
      "v": 127
    },
    {
      "midi": 75,
      "hit": false,
      "t": 9722.212500000003,
      "d": 277.77750000000015,
      "v": 127
    },
    {
      "midi": 70,
      "hit": false,
      "t": 9999.990000000003,
      "d": 555.5550000000003,
      "v": 127
    },
    {
      "midi": 73,
      "hit": false,
      "t": 9999.990000000003,
      "d": 555.5550000000003,
      "v": 127
    },
    {
      "midi": 58,
      "hit": false,
      "t": 10277.767500000004,
      "d": 138.88875000000007,
      "v": 127
    },
    {
      "midi": 56,
      "hit": false,
      "t": 10416.656250000004,
      "d": 138.88875000000007,
      "v": 127
    },
    {
      "midi": 80,
      "hit": false,
      "t": 10555.545000000004,
      "d": 555.5550000000003,
      "v": 127
    },
    {
      "midi": 58,
      "hit": false,
      "t": 10555.545000000004,
      "d": 277.77750000000015,
      "v": 127
    },
    {
      "midi": 61,
      "hit": false,
      "t": 10833.322500000004,
      "d": 277.77750000000015,
      "v": 127
    },
    {
      "midi": 55,
      "hit": false,
      "t": 11111.100000000004,
      "d": 277.77750000000015,
      "v": 127
    },
    {
      "midi": 68,
      "hit": false,
      "t": 11388.877500000004,
      "d": 277.77750000000015,
      "v": 127
    },
    {
      "midi": 73,
      "hit": false,
      "t": 11388.877500000004,
      "d": 277.77750000000015,
      "v": 127
    },
    {
      "midi": 58,
      "hit": false,
      "t": 11388.877500000004,
      "d": 277.77750000000015,
      "v": 127
    },
    {
      "midi": 73,
      "hit": false,
      "t": 11666.655000000004,
      "d": 277.77750000000015,
      "v": 127
    },
    {
      "midi": 51,
      "hit": false,
      "t": 11666.655000000004,
      "d": 555.5550000000003,
      "v": 127
    },
    {
      "midi": 82,
      "hit": false,
      "t": 11944.432500000004,
      "d": 138.88875000000007,
      "v": 127
    },
    {
      "midi": 80,
      "hit": false,
      "t": 12083.321250000005,
      "d": 138.88875000000007,
      "v": 127
    },
    {
      "midi": 82,
      "hit": false,
      "t": 12222.210000000005,
      "d": 277.77750000000015,
      "v": 127
    },
    {
      "midi": 63,
      "hit": false,
      "t": 12222.210000000005,
      "d": 555.5550000000003,
      "v": 127
    },
    {
      "midi": 79,
      "hit": false,
      "t": 12499.987500000005,
      "d": 277.77750000000015,
      "v": 127
    },
    {
      "midi": 73,
      "hit": false,
      "t": 12777.765000000005,
      "d": 277.77750000000015,
      "v": 127
    },
    {
      "midi": 67,
      "hit": false,
      "t": 13055.542500000005,
      "d": 277.77750000000015,
      "v": 127
    },
    {
      "midi": 73,
      "hit": false,
      "t": 13055.542500000005,
      "d": 277.77750000000015,
      "v": 127
    },
    {
      "midi": 82,
      "hit": false,
      "t": 13055.542500000005,
      "d": 277.77750000000015,
      "v": 127
    },
    {
      "midi": 68,
      "hit": false,
      "t": 13333.320000000005,
      "d": 555.5550000000003,
      "v": 127
    },
    {
      "midi": 72,
      "hit": false,
      "t": 13333.320000000005,
      "d": 555.5550000000003,
      "v": 127
    },
    {
      "midi": 56,
      "hit": false,
      "t": 13611.097500000005,
      "d": 138.88875000000007,
      "v": 127
    },
    {
      "midi": 55,
      "hit": false,
      "t": 13749.986250000005,
      "d": 138.88875000000007,
      "v": 127
    },
    {
      "midi": 56,
      "hit": false,
      "t": 13888.875000000005,
      "d": 277.77750000000015,
      "v": 127
    },
    {
      "midi": 75,
      "hit": false,
      "t": 14027.763750000006,
      "d": 138.88875000000007,
      "v": 127
    },
    {
      "midi": 77,
      "hit": false,
      "t": 14166.652500000006,
      "d": 138.88875000000007,
      "v": 127
    },
    {
      "midi": 60,
      "hit": false,
      "t": 14166.652500000006,
      "d": 277.77750000000015,
      "v": 127
    },
    {
      "midi": 79,
      "hit": false,
      "t": 14305.541250000006,
      "d": 138.88875000000007,
      "v": 127
    },
    {
      "midi": 80,
      "hit": false,
      "t": 14444.430000000006,
      "d": 138.88875000000007,
      "v": 127
    },
    {
      "midi": 53,
      "hit": false,
      "t": 14444.430000000006,
      "d": 277.77750000000015,
      "v": 127
    },
    {
      "midi": 77,
      "hit": false,
      "t": 14583.318750000006,
      "d": 138.88875000000007,
      "v": 127
    },
    {
      "midi": 74,
      "hit": false,
      "t": 14722.207500000006,
      "d": 138.88875000000007,
      "v": 127
    },
    {
      "midi": 56,
      "hit": false,
      "t": 14722.207500000006,
      "d": 277.77750000000015,
      "v": 127
    },
    {
      "midi": 77,
      "hit": false,
      "t": 14861.096250000006,
      "d": 138.88875000000007,
      "v": 127
    },
    {
      "midi": 70,
      "hit": false,
      "t": 14999.985000000006,
      "d": 555.5550000000003,
      "v": 127
    },
    {
      "midi": 50,
      "hit": false,
      "t": 14999.985000000006,
      "d": 277.77750000000015,
      "v": 127
    },
    {
      "midi": 55,
      "hit": false,
      "t": 15277.762500000006,
      "d": 138.88875000000007,
      "v": 127
    },
    {
      "midi": 53,
      "hit": false,
      "t": 15416.651250000006,
      "d": 138.88875000000007,
      "v": 127
    },
    {
      "midi": 55,
      "hit": false,
      "t": 15555.540000000006,
      "d": 277.77750000000015,
      "v": 127
    },
    {
      "midi": 74,
      "hit": false,
      "t": 15694.428750000006,
      "d": 138.88875000000007,
      "v": 127
    },
    {
      "midi": 75,
      "hit": false,
      "t": 15833.317500000006,
      "d": 138.88875000000007,
      "v": 127
    },
    {
      "midi": 58,
      "hit": false,
      "t": 15833.317500000006,
      "d": 277.77750000000015,
      "v": 127
    },
    {
      "midi": 77,
      "hit": false,
      "t": 15972.206250000007,
      "d": 138.88875000000007,
      "v": 127
    },
    {
      "midi": 79,
      "hit": false,
      "t": 16111.095000000007,
      "d": 138.88875000000007,
      "v": 127
    },
    {
      "midi": 51,
      "hit": false,
      "t": 16111.095000000007,
      "d": 277.7774999999983,
      "v": 127
    },
    {
      "midi": 75,
      "hit": false,
      "t": 16249.983750000007,
      "d": 138.88874999999825,
      "v": 127
    },
    {
      "midi": 72,
      "hit": false,
      "t": 16388.872500000005,
      "d": 138.88874999999825,
      "v": 127
    },
    {
      "midi": 55,
      "hit": false,
      "t": 16388.872500000005,
      "d": 277.77750000000015,
      "v": 127
    },
    {
      "midi": 75,
      "hit": false,
      "t": 16527.761250000003,
      "d": 138.88874999999825,
      "v": 127
    },
    {
      "midi": 68,
      "hit": false,
      "t": 16666.65,
      "d": 138.88874999999825,
      "v": 127
    },
    {
      "midi": 48,
      "hit": false,
      "t": 16666.650000000005,
      "d": 277.77750000000015,
      "v": 127
    },
    {
      "midi": 70,
      "hit": false,
      "t": 16805.53875,
      "d": 138.88874999999825,
      "v": 127
    },
    {
      "midi": 67,
      "hit": false,
      "t": 16944.427499999998,
      "d": 138.88874999999825,
      "v": 127
    },
    {
      "midi": 53,
      "hit": false,
      "t": 16944.427500000005,
      "d": 138.88874999999825,
      "v": 127
    },
    {
      "midi": 70,
      "hit": false,
      "t": 17083.316249999996,
      "d": 138.88874999999825,
      "v": 127
    },
    {
      "midi": 51,
      "hit": false,
      "t": 17083.316250000003,
      "d": 138.88874999999825,
      "v": 127
    },
    {
      "midi": 68,
      "hit": false,
      "t": 17222.204999999994,
      "d": 138.88874999999825,
      "v": 127
    },
    {
      "midi": 53,
      "hit": false,
      "t": 17222.205,
      "d": 277.77750000000015,
      "v": 127
    },
    {
      "midi": 72,
      "hit": false,
      "t": 17361.093749999993,
      "d": 138.88874999999825,
      "v": 127
    },
    {
      "midi": 74,
      "hit": false,
      "t": 17499.98249999999,
      "d": 138.88874999999825,
      "v": 127
    },
    {
      "midi": 56,
      "hit": false,
      "t": 17499.982500000002,
      "d": 277.77750000000015,
      "v": 127
    },
    {
      "midi": 75,
      "hit": false,
      "t": 17638.87124999999,
      "d": 138.88874999999825,
      "v": 127
    },
    {
      "midi": 77,
      "hit": false,
      "t": 17777.759999999987,
      "d": 138.88874999999825,
      "v": 127
    },
    {
      "midi": 50,
      "hit": false,
      "t": 17777.760000000002,
      "d": 277.77750000000015,
      "v": 127
    },
    {
      "midi": 74,
      "hit": false,
      "t": 17916.648749999986,
      "d": 138.88874999999825,
      "v": 127
    },
    {
      "midi": 70,
      "hit": false,
      "t": 18055.537499999984,
      "d": 138.88874999999825,
      "v": 127
    },
    {
      "midi": 53,
      "hit": false,
      "t": 18055.537500000002,
      "d": 277.77750000000015,
      "v": 127
    },
    {
      "midi": 74,
      "hit": false,
      "t": 18194.426249999982,
      "d": 138.88874999999825,
      "v": 127
    },
    {
      "midi": 67,
      "hit": false,
      "t": 18333.31499999998,
      "d": 138.88874999999825,
      "v": 127
    },
    {
      "midi": 46,
      "hit": false,
      "t": 18333.315000000002,
      "d": 277.77750000000015,
      "v": 127
    },
    {
      "midi": 68,
      "hit": false,
      "t": 18472.20374999998,
      "d": 138.88874999999825,
      "v": 127
    },
    {
      "midi": 65,
      "hit": false,
      "t": 18611.092499999977,
      "d": 138.88874999999825,
      "v": 127
    },
    {
      "midi": 51,
      "hit": false,
      "t": 18611.092500000002,
      "d": 138.88874999999825,
      "v": 127
    },
    {
      "midi": 68,
      "hit": false,
      "t": 18749.981249999975,
      "d": 138.88874999999825,
      "v": 127
    },
    {
      "midi": 50,
      "hit": false,
      "t": 18749.98125,
      "d": 138.88874999999825,
      "v": 127
    },
    {
      "midi": 67,
      "hit": false,
      "t": 18888.869999999974,
      "d": 138.88874999999825,
      "v": 127
    },
    {
      "midi": 51,
      "hit": false,
      "t": 18888.87,
      "d": 277.77750000000015,
      "v": 127
    },
    {
      "midi": 70,
      "hit": false,
      "t": 19027.75874999997,
      "d": 138.88874999999825,
      "v": 127
    },
    {
      "midi": 72,
      "hit": false,
      "t": 19166.64749999997,
      "d": 138.88874999999825,
      "v": 127
    },
    {
      "midi": 55,
      "hit": false,
      "t": 19166.6475,
      "d": 277.77750000000015,
      "v": 127
    },
    {
      "midi": 74,
      "hit": false,
      "t": 19305.53624999997,
      "d": 138.88874999999825,
      "v": 127
    },
    {
      "midi": 75,
      "hit": false,
      "t": 19444.424999999967,
      "d": 138.88874999999825,
      "v": 127
    },
    {
      "midi": 48,
      "hit": false,
      "t": 19444.425,
      "d": 277.77750000000015,
      "v": 127
    },
    {
      "midi": 72,
      "hit": false,
      "t": 19583.313749999965,
      "d": 138.88874999999825,
      "v": 127
    },
    {
      "midi": 68,
      "hit": false,
      "t": 19722.202499999963,
      "d": 138.88874999999825,
      "v": 127
    },
    {
      "midi": 51,
      "hit": false,
      "t": 19722.2025,
      "d": 277.77750000000015,
      "v": 127
    },
    {
      "midi": 72,
      "hit": false,
      "t": 19861.09124999996,
      "d": 138.88874999999825,
      "v": 127
    },
    {
      "midi": 65,
      "hit": false,
      "t": 19999.97999999996,
      "d": 138.88874999999825,
      "v": 127
    },
    {
      "midi": 44,
      "hit": false,
      "t": 19999.98,
      "d": 277.77750000000015,
      "v": 127
    },
    {
      "midi": 75,
      "hit": false,
      "t": 20138.868749999958,
      "d": 138.88874999999825,
      "v": 127
    },
    {
      "midi": 74,
      "hit": false,
      "t": 20277.757499999956,
      "d": 138.88874999999825,
      "v": 127
    },
    {
      "midi": 53,
      "hit": false,
      "t": 20277.7575,
      "d": 138.88874999999825,
      "v": 127
    },
    {
      "midi": 75,
      "hit": false,
      "t": 20416.646249999954,
      "d": 138.88874999999825,
      "v": 127
    },
    {
      "midi": 51,
      "hit": false,
      "t": 20416.646249999998,
      "d": 138.88874999999825,
      "v": 127
    },
    {
      "midi": 68,
      "hit": false,
      "t": 20555.534999999953,
      "d": 138.88874999999825,
      "v": 127
    },
    {
      "midi": 53,
      "hit": false,
      "t": 20555.534999999996,
      "d": 277.77750000000015,
      "v": 127
    },
    {
      "midi": 75,
      "hit": false,
      "t": 20694.42374999995,
      "d": 138.88874999999825,
      "v": 127
    },
    {
      "midi": 74,
      "hit": false,
      "t": 20833.31249999995,
      "d": 138.88874999999825,
      "v": 127
    },
    {
      "midi": 56,
      "hit": false,
      "t": 20833.312499999996,
      "d": 277.77750000000015,
      "v": 127
    },
    {
      "midi": 75,
      "hit": false,
      "t": 20972.201249999947,
      "d": 138.88874999999825,
      "v": 127
    },
    {
      "midi": 65,
      "hit": false,
      "t": 21111.089999999946,
      "d": 138.88874999999825,
      "v": 127
    },
    {
      "midi": 50,
      "hit": false,
      "t": 21111.089999999997,
      "d": 277.77750000000015,
      "v": 127
    },
    {
      "midi": 75,
      "hit": false,
      "t": 21249.978749999944,
      "d": 138.88874999999825,
      "v": 127
    },
    {
      "midi": 74,
      "hit": false,
      "t": 21388.867499999942,
      "d": 138.88874999999825,
      "v": 127
    },
    {
      "midi": 53,
      "hit": false,
      "t": 21388.867499999997,
      "d": 277.77750000000015,
      "v": 127
    },
    {
      "midi": 75,
      "hit": false,
      "t": 21527.75624999994,
      "d": 138.88874999999825,
      "v": 127
    },
    {
      "midi": 67,
      "hit": false,
      "t": 21666.64499999994,
      "d": 138.88874999999825,
      "v": 127
    },
    {
      "midi": 46,
      "hit": false,
      "t": 21666.644999999997,
      "d": 277.77750000000015,
      "v": 127
    },
    {
      "midi": 75,
      "hit": false,
      "t": 21805.533749999937,
      "d": 138.88874999999825,
      "v": 127
    },
    {
      "midi": 74,
      "hit": false,
      "t": 21944.422499999935,
      "d": 138.88874999999825,
      "v": 127
    },
    {
      "midi": 55,
      "hit": false,
      "t": 21944.422499999997,
      "d": 138.88874999999825,
      "v": 127
    },
    {
      "midi": 75,
      "hit": false,
      "t": 22083.311249999933,
      "d": 138.88874999999825,
      "v": 127
    },
    {
      "midi": 53,
      "hit": false,
      "t": 22083.311249999995,
      "d": 138.88874999999825,
      "v": 127
    },
    {
      "midi": 70,
      "hit": false,
      "t": 22222.19999999993,
      "d": 138.88874999999825,
      "v": 127
    },
    {
      "midi": 55,
      "hit": false,
      "t": 22222.199999999993,
      "d": 277.77750000000015,
      "v": 127
    },
    {
      "midi": 75,
      "hit": false,
      "t": 22361.08874999993,
      "d": 138.88874999999825,
      "v": 127
    },
    {
      "midi": 74,
      "hit": false,
      "t": 22499.977499999928,
      "d": 138.88874999999825,
      "v": 127
    },
    {
      "midi": 58,
      "hit": false,
      "t": 22499.977499999994,
      "d": 277.77750000000015,
      "v": 127
    },
    {
      "midi": 75,
      "hit": false,
      "t": 22638.866249999926,
      "d": 138.88874999999825,
      "v": 127
    },
    {
      "midi": 67,
      "hit": false,
      "t": 22777.754999999925,
      "d": 138.88874999999825,
      "v": 127
    },
    {
      "midi": 51,
      "hit": false,
      "t": 22777.754999999994,
      "d": 277.77750000000015,
      "v": 127
    },
    {
      "midi": 75,
      "hit": false,
      "t": 22916.643749999923,
      "d": 138.88874999999825,
      "v": 127
    },
    {
      "midi": 74,
      "hit": false,
      "t": 23055.53249999992,
      "d": 138.88874999999825,
      "v": 127
    },
    {
      "midi": 55,
      "hit": false,
      "t": 23055.532499999994,
      "d": 277.77750000000015,
      "v": 127
    },
    {
      "midi": 75,
      "hit": false,
      "t": 23194.42124999992,
      "d": 138.88874999999825,
      "v": 127
    },
    {
      "midi": 68,
      "hit": false,
      "t": 23333.309999999918,
      "d": 138.88874999999825,
      "v": 127
    },
    {
      "midi": 48,
      "hit": false,
      "t": 23333.309999999994,
      "d": 277.77750000000015,
      "v": 127
    },
    {
      "midi": 75,
      "hit": false,
      "t": 23472.198749999916,
      "d": 138.88874999999825,
      "v": 127
    },
    {
      "midi": 73,
      "hit": false,
      "t": 23611.087499999914,
      "d": 138.88874999999825,
      "v": 127
    },
    {
      "midi": 56,
      "hit": false,
      "t": 23611.087499999994,
      "d": 138.88874999999825,
      "v": 127
    },
    {
      "midi": 75,
      "hit": false,
      "t": 23749.976249999912,
      "d": 138.88874999999825,
      "v": 127
    },
    {
      "midi": 55,
      "hit": false,
      "t": 23749.976249999992,
      "d": 138.88874999999825,
      "v": 127
    },
    {
      "midi": 72,
      "hit": false,
      "t": 23888.86499999991,
      "d": 138.88874999999825,
      "v": 127
    },
    {
      "midi": 56,
      "hit": false,
      "t": 23888.86499999999,
      "d": 277.77750000000015,
      "v": 127
    },
    {
      "midi": 75,
      "hit": false,
      "t": 24027.75374999991,
      "d": 138.88874999999825,
      "v": 127
    },
    {
      "midi": 70,
      "hit": false,
      "t": 24166.642499999907,
      "d": 138.88874999999825,
      "v": 127
    },
    {
      "midi": 60,
      "hit": false,
      "t": 24166.64249999999,
      "d": 277.77750000000015,
      "v": 127
    },
    {
      "midi": 75,
      "hit": false,
      "t": 24305.531249999905,
      "d": 138.88874999999825,
      "v": 127
    },
    {
      "midi": 68,
      "hit": false,
      "t": 24444.419999999904,
      "d": 138.88874999999825,
      "v": 127
    },
    {
      "midi": 53,
      "hit": false,
      "t": 24444.41999999999,
      "d": 277.77750000000015,
      "v": 127
    },
    {
      "midi": 75,
      "hit": false,
      "t": 24583.308749999902,
      "d": 138.88874999999825,
      "v": 127
    },
    {
      "midi": 67,
      "hit": false,
      "t": 24722.1974999999,
      "d": 138.88874999999825,
      "v": 127
    },
    {
      "midi": 56,
      "hit": false,
      "t": 24722.19749999999,
      "d": 277.77750000000015,
      "v": 127
    },
    {
      "midi": 75,
      "hit": false,
      "t": 24861.0862499999,
      "d": 138.88874999999825,
      "v": 127
    },
    {
      "midi": 65,
      "hit": false,
      "t": 24999.974999999897,
      "d": 138.88874999999825,
      "v": 127
    },
    {
      "midi": 50,
      "hit": false,
      "t": 24999.97499999999,
      "d": 277.77750000000015,
      "v": 127
    },
    {
      "midi": 75,
      "hit": false,
      "t": 25138.863749999895,
      "d": 138.88874999999825,
      "v": 127
    },
    {
      "midi": 67,
      "hit": false,
      "t": 25277.752499999893,
      "d": 138.88874999999825,
      "v": 127
    },
    {
      "midi": 53,
      "hit": false,
      "t": 25277.75249999999,
      "d": 277.77750000000015,
      "v": 127
    },
    {
      "midi": 75,
      "hit": false,
      "t": 25416.64124999989,
      "d": 138.88874999999825,
      "v": 127
    },
    {
      "midi": 68,
      "hit": false,
      "t": 25555.52999999989,
      "d": 138.88874999999825,
      "v": 127
    },
    {
      "midi": 46,
      "hit": false,
      "t": 25555.52999999999,
      "d": 277.77750000000015,
      "v": 127
    },
    {
      "midi": 74,
      "hit": false,
      "t": 25694.418749999888,
      "d": 138.88874999999825,
      "v": 127
    },
    {
      "midi": 75,
      "hit": false,
      "t": 25833.307499999886,
      "d": 138.88874999999825,
      "v": 127
    },
    {
      "midi": 50,
      "hit": false,
      "t": 25833.30749999999,
      "d": 277.77750000000015,
      "v": 127
    },
    {
      "midi": 77,
      "hit": false,
      "t": 25972.196249999884,
      "d": 138.88874999999825,
      "v": 127
    },
    {
      "midi": 67,
      "hit": false,
      "t": 26111.084999999883,
      "d": 138.88874999999825,
      "v": 127
    },
    {
      "midi": 51,
      "hit": false,
      "t": 26111.084999999992,
      "d": 277.77750000000015,
      "v": 127
    },
    {
      "midi": 70,
      "hit": false,
      "t": 26249.97374999988,
      "d": 138.88874999999825,
      "v": 127
    },
    {
      "midi": 68,
      "hit": false,
      "t": 26388.86249999988,
      "d": 138.88874999999825,
      "v": 127
    },
    {
      "midi": 48,
      "hit": false,
      "t": 26388.862499999992,
      "d": 277.77750000000015,
      "v": 127
    },
    {
      "midi": 72,
      "hit": false,
      "t": 26527.751249999877,
      "d": 138.88874999999825,
      "v": 127
    },
    {
      "midi": 70,
      "hit": false,
      "t": 26666.639999999876,
      "d": 138.88874999999825,
      "v": 127
    },
    {
      "midi": 43,
      "hit": false,
      "t": 26666.639999999992,
      "d": 277.77750000000015,
      "v": 127
    },
    {
      "midi": 75,
      "hit": false,
      "t": 26805.528749999874,
      "d": 138.88874999999825,
      "v": 127
    },
    {
      "midi": 74,
      "hit": false,
      "t": 26944.417499999872,
      "d": 138.88874999999825,
      "v": 127
    },
    {
      "midi": 41,
      "hit": false,
      "t": 26944.417499999992,
      "d": 277.77750000000015,
      "v": 127
    },
    {
      "midi": 72,
      "hit": false,
      "t": 27083.30624999987,
      "d": 138.88874999999825,
      "v": 127
    },
    {
      "midi": 70,
      "hit": false,
      "t": 27222.19499999987,
      "d": 138.88874999999825,
      "v": 127
    },
    {
      "midi": 43,
      "hit": false,
      "t": 27222.194999999992,
      "d": 277.77750000000015,
      "v": 127
    },
    {
      "midi": 68,
      "hit": false,
      "t": 27361.083749999867,
      "d": 138.88874999999825,
      "v": 127
    },
    {
      "midi": 70,
      "hit": false,
      "t": 27499.972499999865,
      "d": 138.88874999999825,
      "v": 127
    },
    {
      "midi": 44,
      "hit": false,
      "t": 27499.972499999993,
      "d": 277.77750000000015,
      "v": 127
    },
    {
      "midi": 72,
      "hit": false,
      "t": 27638.861249999864,
      "d": 138.88874999999825,
      "v": 127
    },
    {
      "midi": 65,
      "hit": false,
      "t": 27777.74999999986,
      "d": 416.6662499999984,
      "v": 127
    },
    {
      "midi": 46,
      "hit": false,
      "t": 27777.749999999993,
      "d": 555.5550000000003,
      "v": 127
    },
    {
      "midi": 63,
      "hit": false,
      "t": 28194.41624999986,
      "d": 138.88874999999825,
      "v": 127
    },
    {
      "midi": 63,
      "hit": false,
      "t": 28333.30499999986,
      "d": 555.5550000000003,
      "v": 127
    },
    {
      "midi": 51,
      "hit": false,
      "t": 28611.082499999993,
      "d": 138.88874999999825,
      "v": 127
    },
    {
      "midi": 50,
      "hit": false,
      "t": 28749.97124999999,
      "d": 138.88874999999825,
      "v": 127
    },
    {
      "midi": 67,
      "hit": false,
      "t": 28888.85999999986,
      "d": 555.5550000000003,
      "v": 127
    },
    {
      "midi": 70,
      "hit": false,
      "t": 28888.85999999986,
      "d": 555.5550000000003,
      "v": 127
    },
    {
      "midi": 75,
      "hit": false,
      "t": 28888.85999999986,
      "d": 555.5550000000003,
      "v": 127
    },
    {
      "midi": 51,
      "hit": false,
      "t": 28888.85999999999,
      "d": 277.77750000000015,
      "v": 127
    },
    {
      "midi": 55,
      "hit": false,
      "t": 29166.63749999999,
      "d": 277.77750000000015,
      "v": 127
    },
    {
      "midi": 46,
      "hit": false,
      "t": 29444.41499999999,
      "d": 277.77750000000015,
      "v": 127
    },
    {
      "midi": 67,
      "hit": false,
      "t": 29722.19249999986,
      "d": 277.77750000000015,
      "v": 127
    },
    {
      "midi": 70,
      "hit": false,
      "t": 29722.19249999986,
      "d": 277.77750000000015,
      "v": 127
    },
    {
      "midi": 51,
      "hit": false,
      "t": 29722.19249999999,
      "d": 277.77750000000015,
      "v": 127
    },
    {
      "midi": 65,
      "hit": false,
      "t": 29999.96999999986,
      "d": 555.5550000000003,
      "v": 127
    },
    {
      "midi": 68,
      "hit": false,
      "t": 29999.96999999986,
      "d": 555.5550000000003,
      "v": 127
    },
    {
      "midi": 53,
      "hit": false,
      "t": 30277.74749999999,
      "d": 138.88874999999825,
      "v": 127
    },
    {
      "midi": 51,
      "hit": false,
      "t": 30416.63624999999,
      "d": 138.88874999999825,
      "v": 127
    },
    {
      "midi": 74,
      "hit": false,
      "t": 30555.52499999986,
      "d": 555.5550000000003,
      "v": 127
    },
    {
      "midi": 53,
      "hit": false,
      "t": 30555.524999999987,
      "d": 277.77750000000015,
      "v": 127
    },
    {
      "midi": 56,
      "hit": false,
      "t": 30833.302499999987,
      "d": 277.77750000000015,
      "v": 127
    },
    {
      "midi": 46,
      "hit": false,
      "t": 31111.079999999987,
      "d": 277.77750000000015,
      "v": 127
    },
    {
      "midi": 65,
      "hit": false,
      "t": 31388.85749999986,
      "d": 277.77750000000015,
      "v": 127
    },
    {
      "midi": 68,
      "hit": false,
      "t": 31388.85749999986,
      "d": 277.77750000000015,
      "v": 127
    },
    {
      "midi": 74,
      "hit": false,
      "t": 31388.85749999986,
      "d": 277.77750000000015,
      "v": 127
    },
    {
      "midi": 53,
      "hit": false,
      "t": 31388.857499999987,
      "d": 277.77750000000015,
      "v": 127
    },
    {
      "midi": 63,
      "hit": false,
      "t": 31666.63499999986,
      "d": 277.77750000000015,
      "v": 127
    },
    {
      "midi": 67,
      "hit": false,
      "t": 31666.63499999986,
      "d": 277.77750000000015,
      "v": 127
    },
    {
      "midi": 70,
      "hit": false,
      "t": 31666.63499999986,
      "d": 277.77750000000015,
      "v": 127
    },
    {
      "midi": 75,
      "hit": false,
      "t": 31666.63499999986,
      "d": 277.77750000000015,
      "v": 127
    },
    {
      "midi": 55,
      "hit": false,
      "t": 31666.634999999987,
      "d": 555.5550000000003,
      "v": 127
    },
    {
      "midi": 63,
      "hit": false,
      "t": 31944.41249999986,
      "d": 138.88874999999825,
      "v": 127
    },
    {
      "midi": 62,
      "hit": false,
      "t": 32083.30124999986,
      "d": 138.88874999999825,
      "v": 127
    },
    {
      "midi": 63,
      "hit": false,
      "t": 32222.189999999857,
      "d": 277.77750000000015,
      "v": 127
    },
    {
      "midi": 67,
      "hit": false,
      "t": 32499.967499999857,
      "d": 277.77750000000015,
      "v": 127
    },
    {
      "midi": 51,
      "hit": false,
      "t": 32499.967499999988,
      "d": 138.88874999999825,
      "v": 127
    },
    {
      "midi": 53,
      "hit": false,
      "t": 32638.856249999986,
      "d": 138.8887500000019,
      "v": 127
    },
    {
      "midi": 58,
      "hit": false,
      "t": 32777.74499999986,
      "d": 277.7774999999965,
      "v": 127
    },
    {
      "midi": 55,
      "hit": false,
      "t": 32777.74499999999,
      "d": 138.88874999999825,
      "v": 127
    },
    {
      "midi": 53,
      "hit": false,
      "t": 32916.633749999986,
      "d": 138.88874999999825,
      "v": 127
    },
    {
      "midi": 63,
      "hit": false,
      "t": 33055.52249999985,
      "d": 277.7774999999965,
      "v": 127
    },
    {
      "midi": 55,
      "hit": false,
      "t": 33055.522499999985,
      "d": 138.88874999999825,
      "v": 127
    },
    {
      "midi": 51,
      "hit": false,
      "t": 33194.41124999998,
      "d": 138.88874999999825,
      "v": 127
    },
    {
      "midi": 58,
      "hit": false,
      "t": 33333.29999999998,
      "d": 277.7774999999965,
      "v": 127
    },
    {
      "midi": 65,
      "hit": false,
      "t": 33611.07749999985,
      "d": 138.88874999999825,
      "v": 127
    },
    {
      "midi": 46,
      "hit": false,
      "t": 33611.07749999998,
      "d": 277.7774999999965,
      "v": 127
    },
    {
      "midi": 63,
      "hit": false,
      "t": 33749.966249999845,
      "d": 138.88874999999825,
      "v": 127
    },
    {
      "midi": 65,
      "hit": false,
      "t": 33888.85499999984,
      "d": 277.7774999999965,
      "v": 127
    },
    {
      "midi": 68,
      "hit": false,
      "t": 34166.63249999984,
      "d": 277.7774999999965,
      "v": 127
    },
    {
      "midi": 46,
      "hit": false,
      "t": 34166.63249999997,
      "d": 138.88874999999825,
      "v": 127
    },
    {
      "midi": 48,
      "hit": false,
      "t": 34305.52124999997,
      "d": 138.88874999999825,
      "v": 127
    },
    {
      "midi": 58,
      "hit": false,
      "t": 34444.409999999836,
      "d": 277.7774999999965,
      "v": 127
    },
    {
      "midi": 50,
      "hit": false,
      "t": 34444.40999999997,
      "d": 138.88874999999825,
      "v": 127
    },
    {
      "midi": 48,
      "hit": false,
      "t": 34583.298749999965,
      "d": 138.88874999999825,
      "v": 127
    },
    {
      "midi": 65,
      "hit": false,
      "t": 34722.18749999983,
      "d": 277.7774999999965,
      "v": 127
    },
    {
      "midi": 50,
      "hit": false,
      "t": 34722.18749999996,
      "d": 138.88874999999825,
      "v": 127
    },
    {
      "midi": 46,
      "hit": false,
      "t": 34861.07624999996,
      "d": 138.88874999999825,
      "v": 127
    },
    {
      "midi": 67,
      "hit": false,
      "t": 34999.96499999983,
      "d": 277.7774999999965,
      "v": 127
    },
    {
      "midi": 51,
      "hit": false,
      "t": 34999.96499999996,
      "d": 277.7774999999965,
      "v": 127
    },
    {
      "midi": 70,
      "hit": false,
      "t": 35277.742499999826,
      "d": 138.88874999999825,
      "v": 127
    },
    {
      "midi": 39,
      "hit": false,
      "t": 35277.74249999996,
      "d": 277.7774999999965,
      "v": 127
    },
    {
      "midi": 68,
      "hit": false,
      "t": 35416.631249999824,
      "d": 138.88874999999825,
      "v": 127
    },
    {
      "midi": 70,
      "hit": false,
      "t": 35555.51999999982,
      "d": 277.7774999999965,
      "v": 127
    },
    {
      "midi": 75,
      "hit": false,
      "t": 35833.29749999982,
      "d": 277.7774999999965,
      "v": 127
    },
    {
      "midi": 61,
      "hit": false,
      "t": 35833.29749999995,
      "d": 138.88874999999825,
      "v": 127
    },
    {
      "midi": 60,
      "hit": false,
      "t": 35972.18624999995,
      "d": 138.88874999999825,
      "v": 127
    },
    {
      "midi": 67,
      "hit": false,
      "t": 36111.074999999815,
      "d": 277.7774999999965,
      "v": 127
    },
    {
      "midi": 58,
      "hit": false,
      "t": 36111.074999999946,
      "d": 138.88874999999825,
      "v": 127
    },
    {
      "midi": 60,
      "hit": false,
      "t": 36249.963749999944,
      "d": 138.88874999999825,
      "v": 127
    },
    {
      "midi": 70,
      "hit": false,
      "t": 36388.85249999981,
      "d": 277.7774999999965,
      "v": 127
    },
    {
      "midi": 56,
      "hit": false,
      "t": 36388.85249999994,
      "d": 138.88874999999825,
      "v": 127
    },
    {
      "midi": 58,
      "hit": false,
      "t": 36527.74124999994,
      "d": 138.88874999999825,
      "v": 127
    },
    {
      "midi": 63,
      "hit": false,
      "t": 36666.62999999981,
      "d": 277.7774999999965,
      "v": 127
    },
    {
      "midi": 55,
      "hit": false,
      "t": 36666.62999999994,
      "d": 138.88874999999825,
      "v": 127
    },
    {
      "midi": 56,
      "hit": false,
      "t": 36805.51874999994,
      "d": 138.88874999999825,
      "v": 127
    },
    {
      "midi": 67,
      "hit": false,
      "t": 36944.407499999805,
      "d": 138.88874999999825,
      "v": 127
    },
    {
      "midi": 53,
      "hit": false,
      "t": 36944.407499999936,
      "d": 138.88874999999825,
      "v": 127
    },
    {
      "midi": 65,
      "hit": false,
      "t": 37083.2962499998,
      "d": 138.88874999999825,
      "v": 127
    },
    {
      "midi": 55,
      "hit": false,
      "t": 37083.296249999934,
      "d": 138.88874999999825,
      "v": 127
    },
    {
      "midi": 67,
      "hit": false,
      "t": 37222.1849999998,
      "d": 277.7774999999965,
      "v": 127
    },
    {
      "midi": 51,
      "hit": false,
      "t": 37222.18499999993,
      "d": 138.88874999999825,
      "v": 127
    },
    {
      "midi": 53,
      "hit": false,
      "t": 37361.07374999993,
      "d": 138.88874999999825,
      "v": 127
    },
    {
      "midi": 70,
      "hit": false,
      "t": 37499.9624999998,
      "d": 277.7774999999965,
      "v": 127
    },
    {
      "midi": 49,
      "hit": false,
      "t": 37499.96249999993,
      "d": 138.88874999999825,
      "v": 127
    },
    {
      "midi": 51,
      "hit": false,
      "t": 37638.85124999993,
      "d": 138.88874999999825,
      "v": 127
    },
    {
      "midi": 63,
      "hit": false,
      "t": 37777.739999999794,
      "d": 277.7774999999965,
      "v": 127
    },
    {
      "midi": 48,
      "hit": false,
      "t": 37777.739999999925,
      "d": 138.88874999999825,
      "v": 127
    },
    {
      "midi": 49,
      "hit": false,
      "t": 37916.62874999992,
      "d": 138.88874999999825,
      "v": 127
    },
    {
      "midi": 67,
      "hit": false,
      "t": 38055.51749999979,
      "d": 277.7774999999965,
      "v": 127
    },
    {
      "midi": 46,
      "hit": false,
      "t": 38055.51749999992,
      "d": 138.88874999999825,
      "v": 127
    },
    {
      "midi": 48,
      "hit": false,
      "t": 38194.40624999992,
      "d": 138.88874999999825,
      "v": 127
    },
    {
      "midi": 60,
      "hit": false,
      "t": 38333.29499999979,
      "d": 555.5550000000003,
      "v": 127
    },
    {
      "midi": 44,
      "hit": false,
      "t": 38333.29499999992,
      "d": 277.7774999999965,
      "v": 127
    },
    {
      "midi": 63,
      "hit": false,
      "t": 38611.072499999915,
      "d": 138.88874999999825,
      "v": 127
    },
    {
      "midi": 61,
      "hit": false,
      "t": 38749.96124999991,
      "d": 138.88874999999825,
      "v": 127
    },
    {
      "midi": 63,
      "hit": false,
      "t": 38888.84999999991,
      "d": 277.7774999999965,
      "v": 127
    },
    {
      "midi": 78,
      "hit": false,
      "t": 39166.627499999784,
      "d": 138.88874999999825,
      "v": 127
    },
    {
      "midi": 68,
      "hit": false,
      "t": 39166.62749999991,
      "d": 277.7774999999965,
      "v": 127
    },
    {
      "midi": 77,
      "hit": false,
      "t": 39305.51624999978,
      "d": 138.88874999999825,
      "v": 127
    },
    {
      "midi": 75,
      "hit": false,
      "t": 39444.40499999978,
      "d": 138.88874999999825,
      "v": 127
    },
    {
      "midi": 60,
      "hit": false,
      "t": 39444.404999999904,
      "d": 277.7774999999965,
      "v": 127
    },
    {
      "midi": 77,
      "hit": false,
      "t": 39583.29374999978,
      "d": 138.88874999999825,
      "v": 127
    },
    {
      "midi": 73,
      "hit": false,
      "t": 39722.18249999978,
      "d": 138.88874999999825,
      "v": 127
    },
    {
      "midi": 63,
      "hit": false,
      "t": 39722.1824999999,
      "d": 277.7774999999965,
      "v": 127
    },
    {
      "midi": 75,
      "hit": false,
      "t": 39861.071249999775,
      "d": 138.88874999999825,
      "v": 127
    },
    {
      "midi": 72,
      "hit": false,
      "t": 39999.95999999977,
      "d": 138.88874999999825,
      "v": 127
    },
    {
      "midi": 56,
      "hit": false,
      "t": 39999.9599999999,
      "d": 277.7774999999965,
      "v": 127
    },
    {
      "midi": 73,
      "hit": false,
      "t": 40138.84874999977,
      "d": 138.88874999999825,
      "v": 127
    },
    {
      "midi": 70,
      "hit": false,
      "t": 40277.73749999977,
      "d": 138.88874999999825,
      "v": 127
    },
    {
      "midi": 60,
      "hit": false,
      "t": 40277.737499999894,
      "d": 138.88874999999825,
      "v": 127
    },
    {
      "midi": 72,
      "hit": false,
      "t": 40416.62624999977,
      "d": 138.88874999999825,
      "v": 127
    },
    {
      "midi": 58,
      "hit": false,
      "t": 40416.62624999989,
      "d": 138.88874999999825,
      "v": 127
    },
    {
      "midi": 68,
      "hit": false,
      "t": 40555.51499999977,
      "d": 138.88874999999825,
      "v": 127
    },
    {
      "midi": 60,
      "hit": false,
      "t": 40555.51499999989,
      "d": 277.7774999999965,
      "v": 127
    },
    {
      "midi": 70,
      "hit": false,
      "t": 40694.403749999765,
      "d": 138.88874999999825,
      "v": 127
    },
    {
      "midi": 66,
      "hit": false,
      "t": 40833.29249999976,
      "d": 138.88874999999825,
      "v": 127
    },
    {
      "midi": 63,
      "hit": false,
      "t": 40833.29249999989,
      "d": 277.7774999999965,
      "v": 127
    },
    {
      "midi": 68,
      "hit": false,
      "t": 40972.18124999976,
      "d": 138.88874999999825,
      "v": 127
    },
    {
      "midi": 65,
      "hit": false,
      "t": 41111.06999999976,
      "d": 138.88874999999825,
      "v": 127
    },
    {
      "midi": 56,
      "hit": false,
      "t": 41111.06999999988,
      "d": 277.7774999999965,
      "v": 127
    },
    {
      "midi": 66,
      "hit": false,
      "t": 41249.95874999976,
      "d": 138.88874999999825,
      "v": 127
    },
    {
      "midi": 63,
      "hit": false,
      "t": 41388.847499999756,
      "d": 138.88874999999825,
      "v": 127
    },
    {
      "midi": 60,
      "hit": false,
      "t": 41388.84749999988,
      "d": 277.7774999999965,
      "v": 127
    },
    {
      "midi": 65,
      "hit": false,
      "t": 41527.736249999754,
      "d": 138.88874999999825,
      "v": 127
    },
    {
      "midi": 61,
      "hit": false,
      "t": 41666.62499999975,
      "d": 277.7774999999965,
      "v": 127
    },
    {
      "midi": 53,
      "hit": false,
      "t": 41666.624999999876,
      "d": 555.5550000000003,
      "v": 127
    },
    {
      "midi": 73,
      "hit": false,
      "t": 41944.40249999975,
      "d": 138.88874999999825,
      "v": 127
    },
    {
      "midi": 72,
      "hit": false,
      "t": 42083.29124999975,
      "d": 138.88874999999825,
      "v": 127
    },
    {
      "midi": 73,
      "hit": false,
      "t": 42222.179999999746,
      "d": 277.7774999999965,
      "v": 127
    },
    {
      "midi": 56,
      "hit": false,
      "t": 42361.068749999875,
      "d": 138.88874999999825,
      "v": 127
    },
    {
      "midi": 77,
      "hit": false,
      "t": 42499.95749999974,
      "d": 277.7774999999965,
      "v": 127
    },
    {
      "midi": 58,
      "hit": false,
      "t": 42499.95749999987,
      "d": 138.88874999999825,
      "v": 127
    },
    {
      "midi": 60,
      "hit": false,
      "t": 42638.84624999987,
      "d": 138.88874999999825,
      "v": 127
    },
    {
      "midi": 70,
      "hit": false,
      "t": 42777.73499999974,
      "d": 277.7774999999965,
      "v": 127
    },
    {
      "midi": 61,
      "hit": false,
      "t": 42777.73499999987,
      "d": 138.88874999999825,
      "v": 127
    },
    {
      "midi": 58,
      "hit": false,
      "t": 42916.62374999987,
      "d": 138.88874999999825,
      "v": 127
    },
    {
      "midi": 73,
      "hit": false,
      "t": 43055.512499999735,
      "d": 277.7774999999965,
      "v": 127
    },
    {
      "midi": 55,
      "hit": false,
      "t": 43055.512499999866,
      "d": 138.88874999999825,
      "v": 127
    },
    {
      "midi": 58,
      "hit": false,
      "t": 43194.401249999864,
      "d": 138.88874999999825,
      "v": 127
    },
    {
      "midi": 67,
      "hit": false,
      "t": 43333.28999999973,
      "d": 277.7774999999965,
      "v": 127
    },
    {
      "midi": 51,
      "hit": false,
      "t": 43333.28999999986,
      "d": 555.5550000000003,
      "v": 127
    },
    {
      "midi": 72,
      "hit": false,
      "t": 43611.06749999973,
      "d": 138.88874999999825,
      "v": 127
    },
    {
      "midi": 70,
      "hit": false,
      "t": 43749.95624999973,
      "d": 138.88874999999825,
      "v": 127
    },
    {
      "midi": 72,
      "hit": false,
      "t": 43888.844999999725,
      "d": 277.7774999999965,
      "v": 127
    },
    {
      "midi": 55,
      "hit": false,
      "t": 44027.73374999986,
      "d": 138.88874999999825,
      "v": 127
    },
    {
      "midi": 75,
      "hit": false,
      "t": 44166.62249999972,
      "d": 277.7774999999965,
      "v": 127
    },
    {
      "midi": 56,
      "hit": false,
      "t": 44166.62249999986,
      "d": 138.88874999999825,
      "v": 127
    },
    {
      "midi": 58,
      "hit": false,
      "t": 44305.51124999986,
      "d": 138.88874999999825,
      "v": 127
    },
    {
      "midi": 68,
      "hit": false,
      "t": 44444.39999999972,
      "d": 277.7774999999965,
      "v": 127
    },
    {
      "midi": 60,
      "hit": false,
      "t": 44444.399999999856,
      "d": 138.88874999999825,
      "v": 127
    },
    {
      "midi": 56,
      "hit": false,
      "t": 44583.288749999854,
      "d": 138.88874999999825,
      "v": 127
    },
    {
      "midi": 72,
      "hit": false,
      "t": 44722.177499999714,
      "d": 277.7774999999965,
      "v": 127
    },
    {
      "midi": 53,
      "hit": false,
      "t": 44722.17749999985,
      "d": 138.88874999999825,
      "v": 127
    },
    {
      "midi": 56,
      "hit": false,
      "t": 44861.06624999985,
      "d": 138.88874999999825,
      "v": 127
    },
    {
      "midi": 65,
      "hit": false,
      "t": 44999.95499999971,
      "d": 277.7774999999965,
      "v": 127
    },
    {
      "midi": 49,
      "hit": false,
      "t": 44999.95499999985,
      "d": 138.88874999999825,
      "v": 127
    },
    {
      "midi": 51,
      "hit": false,
      "t": 45138.84374999985,
      "d": 138.88874999999825,
      "v": 127
    },
    {
      "midi": 70,
      "hit": false,
      "t": 45277.73249999971,
      "d": 138.88874999999825,
      "v": 127
    },
    {
      "midi": 48,
      "hit": false,
      "t": 45277.732499999845,
      "d": 138.88874999999825,
      "v": 127
    },
    {
      "midi": 68,
      "hit": false,
      "t": 45416.621249999705,
      "d": 138.88874999999825,
      "v": 127
    },
    {
      "midi": 51,
      "hit": false,
      "t": 45416.621249999844,
      "d": 138.88874999999825,
      "v": 127
    },
    {
      "midi": 70,
      "hit": false,
      "t": 45555.509999999704,
      "d": 277.7774999999965,
      "v": 127
    },
    {
      "midi": 49,
      "hit": false,
      "t": 45555.50999999984,
      "d": 138.88874999999825,
      "v": 127
    },
    {
      "midi": 53,
      "hit": false,
      "t": 45694.39874999984,
      "d": 138.88874999999825,
      "v": 127
    },
    {
      "midi": 73,
      "hit": false,
      "t": 45833.2874999997,
      "d": 277.7774999999965,
      "v": 127
    },
    {
      "midi": 55,
      "hit": false,
      "t": 45833.28749999984,
      "d": 138.88874999999825,
      "v": 127
    },
    {
      "midi": 56,
      "hit": false,
      "t": 45972.17624999984,
      "d": 138.88874999999825,
      "v": 127
    },
    {
      "midi": 67,
      "hit": false,
      "t": 46111.0649999997,
      "d": 277.7774999999965,
      "v": 127
    },
    {
      "midi": 58,
      "hit": false,
      "t": 46111.064999999835,
      "d": 138.88874999999825,
      "v": 127
    },
    {
      "midi": 55,
      "hit": false,
      "t": 46249.95374999983,
      "d": 138.88874999999825,
      "v": 127
    },
    {
      "midi": 70,
      "hit": false,
      "t": 46388.84249999969,
      "d": 277.7774999999965,
      "v": 127
    },
    {
      "midi": 51,
      "hit": false,
      "t": 46388.84249999983,
      "d": 138.88874999999825,
      "v": 127
    },
    {
      "midi": 55,
      "hit": false,
      "t": 46527.73124999983,
      "d": 138.88874999999825,
      "v": 127
    },
    {
      "midi": 63,
      "hit": false,
      "t": 46666.61999999969,
      "d": 277.7774999999965,
      "v": 127
    },
    {
      "midi": 48,
      "hit": false,
      "t": 46666.61999999983,
      "d": 138.88874999999825,
      "v": 127
    },
    {
      "midi": 49,
      "hit": false,
      "t": 46805.508749999826,
      "d": 138.88874999999825,
      "v": 127
    },
    {
      "midi": 68,
      "hit": false,
      "t": 46944.397499999686,
      "d": 138.88874999999825,
      "v": 127
    },
    {
      "midi": 46,
      "hit": false,
      "t": 46944.397499999825,
      "d": 138.88874999999825,
      "v": 127
    },
    {
      "midi": 67,
      "hit": false,
      "t": 47083.286249999685,
      "d": 138.88874999999825,
      "v": 127
    },
    {
      "midi": 49,
      "hit": false,
      "t": 47083.28624999982,
      "d": 138.88874999999825,
      "v": 127
    },
    {
      "midi": 68,
      "hit": false,
      "t": 47222.17499999968,
      "d": 277.7774999999965,
      "v": 127
    },
    {
      "midi": 48,
      "hit": false,
      "t": 47222.17499999982,
      "d": 138.88874999999825,
      "v": 127
    },
    {
      "midi": 51,
      "hit": false,
      "t": 47361.06374999982,
      "d": 138.88874999999825,
      "v": 127
    },
    {
      "midi": 72,
      "hit": false,
      "t": 47499.95249999968,
      "d": 277.7774999999965,
      "v": 127
    },
    {
      "midi": 53,
      "hit": false,
      "t": 47499.95249999982,
      "d": 138.88874999999825,
      "v": 127
    },
    {
      "midi": 55,
      "hit": false,
      "t": 47638.841249999816,
      "d": 138.88874999999825,
      "v": 127
    },
    {
      "midi": 65,
      "hit": false,
      "t": 47777.729999999676,
      "d": 277.7774999999965,
      "v": 127
    },
    {
      "midi": 56,
      "hit": false,
      "t": 47777.729999999814,
      "d": 138.88874999999825,
      "v": 127
    },
    {
      "midi": 53,
      "hit": false,
      "t": 47916.61874999981,
      "d": 138.88874999999825,
      "v": 127
    },
    {
      "midi": 68,
      "hit": false,
      "t": 48055.50749999967,
      "d": 277.7774999999965,
      "v": 127
    },
    {
      "midi": 49,
      "hit": false,
      "t": 48055.50749999981,
      "d": 138.88874999999825,
      "v": 127
    },
    {
      "midi": 53,
      "hit": false,
      "t": 48194.39624999981,
      "d": 138.88874999999825,
      "v": 127
    },
    {
      "midi": 61,
      "hit": false,
      "t": 48333.28499999967,
      "d": 277.7774999999965,
      "v": 127
    },
    {
      "midi": 46,
      "hit": false,
      "t": 48333.28499999981,
      "d": 138.88874999999825,
      "v": 127
    },
    {
      "midi": 56,
      "hit": false,
      "t": 48472.173749999805,
      "d": 138.88874999999825,
      "v": 127
    },
    {
      "midi": 70,
      "hit": false,
      "t": 48611.062499999665,
      "d": 138.88874999999825,
      "v": 127
    },
    {
      "midi": 55,
      "hit": false,
      "t": 48611.0624999998,
      "d": 138.88874999999825,
      "v": 127
    },
    {
      "midi": 68,
      "hit": false,
      "t": 48749.95124999966,
      "d": 138.88874999999825,
      "v": 127
    },
    {
      "midi": 56,
      "hit": false,
      "t": 48749.9512499998,
      "d": 138.88874999999825,
      "v": 127
    },
    {
      "midi": 70,
      "hit": false,
      "t": 48888.83999999966,
      "d": 277.7774999999965,
      "v": 127
    },
    {
      "midi": 49,
      "hit": false,
      "t": 48888.8399999998,
      "d": 138.88874999999825,
      "v": 127
    },
    {
      "midi": 56,
      "hit": false,
      "t": 49027.7287499998,
      "d": 138.88874999999825,
      "v": 127
    },
    {
      "midi": 73,
      "hit": false,
      "t": 49166.61749999966,
      "d": 277.7774999999965,
      "v": 127
    },
    {
      "midi": 55,
      "hit": false,
      "t": 49166.6174999998,
      "d": 138.88874999999825,
      "v": 127
    },
    {
      "midi": 56,
      "hit": false,
      "t": 49305.506249999795,
      "d": 138.88874999999825,
      "v": 127
    },
    {
      "midi": 67,
      "hit": false,
      "t": 49444.394999999655,
      "d": 277.7774999999965,
      "v": 127
    },
    {
      "midi": 46,
      "hit": false,
      "t": 49444.39499999979,
      "d": 138.88874999999825,
      "v": 127
    },
    {
      "midi": 56,
      "hit": false,
      "t": 49583.28374999979,
      "d": 138.88874999999825,
      "v": 127
    },
    {
      "midi": 70,
      "hit": false,
      "t": 49722.17249999965,
      "d": 277.7774999999965,
      "v": 127
    },
    {
      "midi": 55,
      "hit": false,
      "t": 49722.17249999979,
      "d": 138.88874999999825,
      "v": 127
    },
    {
      "midi": 56,
      "hit": false,
      "t": 49861.06124999979,
      "d": 138.88874999999825,
      "v": 127
    },
    {
      "midi": 63,
      "hit": false,
      "t": 49999.94999999965,
      "d": 277.7774999999965,
      "v": 127
    },
    {
      "midi": 48,
      "hit": false,
      "t": 49999.949999999786,
      "d": 138.88874999999825,
      "v": 127
    },
    {
      "midi": 56,
      "hit": false,
      "t": 50138.838749999784,
      "d": 138.88874999999825,
      "v": 127
    },
    {
      "midi": 72,
      "hit": false,
      "t": 50277.727499999644,
      "d": 138.88874999999825,
      "v": 127
    },
    {
      "midi": 55,
      "hit": false,
      "t": 50277.72749999978,
      "d": 138.88874999999825,
      "v": 127
    },
    {
      "midi": 70,
      "hit": false,
      "t": 50416.61624999964,
      "d": 138.88874999999825,
      "v": 127
    },
    {
      "midi": 56,
      "hit": false,
      "t": 50416.61624999978,
      "d": 138.88874999999825,
      "v": 127
    },
    {
      "midi": 72,
      "hit": false,
      "t": 50555.50499999964,
      "d": 277.7774999999965,
      "v": 127
    },
    {
      "midi": 51,
      "hit": false,
      "t": 50555.50499999978,
      "d": 138.88874999999825,
      "v": 127
    },
    {
      "midi": 56,
      "hit": false,
      "t": 50694.39374999978,
      "d": 138.88874999999825,
      "v": 127
    },
    {
      "midi": 75,
      "hit": false,
      "t": 50833.28249999964,
      "d": 277.7774999999965,
      "v": 127
    },
    {
      "midi": 55,
      "hit": false,
      "t": 50833.282499999776,
      "d": 138.88874999999825,
      "v": 127
    },
    {
      "midi": 56,
      "hit": false,
      "t": 50972.171249999774,
      "d": 138.88874999999825,
      "v": 127
    },
    {
      "midi": 68,
      "hit": false,
      "t": 51111.059999999634,
      "d": 277.7774999999965,
      "v": 127
    },
    {
      "midi": 48,
      "hit": false,
      "t": 51111.05999999977,
      "d": 138.88874999999825,
      "v": 127
    },
    {
      "midi": 56,
      "hit": false,
      "t": 51249.94874999977,
      "d": 138.88874999999825,
      "v": 127
    },
    {
      "midi": 72,
      "hit": false,
      "t": 51388.83749999963,
      "d": 277.7774999999965,
      "v": 127
    },
    {
      "midi": 55,
      "hit": false,
      "t": 51388.83749999977,
      "d": 138.88874999999825,
      "v": 127
    },
    {
      "midi": 56,
      "hit": false,
      "t": 51527.72624999977,
      "d": 138.88874999999825,
      "v": 127
    },
    {
      "midi": 65,
      "hit": false,
      "t": 51666.61499999963,
      "d": 277.7774999999965,
      "v": 127
    },
    {
      "midi": 49,
      "hit": false,
      "t": 51666.614999999765,
      "d": 138.88874999999825,
      "v": 127
    },
    {
      "midi": 56,
      "hit": false,
      "t": 51805.50374999976,
      "d": 138.88874999999825,
      "v": 127
    },
    {
      "midi": 73,
      "hit": false,
      "t": 51944.39249999962,
      "d": 138.88874999999825,
      "v": 127
    },
    {
      "midi": 54,
      "hit": false,
      "t": 51944.39249999976,
      "d": 138.88874999999825,
      "v": 127
    },
    {
      "midi": 72,
      "hit": false,
      "t": 52083.28124999962,
      "d": 138.88874999999825,
      "v": 127
    },
    {
      "midi": 56,
      "hit": false,
      "t": 52083.28124999976,
      "d": 138.88874999999825,
      "v": 127
    },
    {
      "midi": 73,
      "hit": false,
      "t": 52222.16999999962,
      "d": 277.7774999999965,
      "v": 127
    },
    {
      "midi": 53,
      "hit": false,
      "t": 52222.16999999976,
      "d": 138.88874999999825,
      "v": 127
    },
    {
      "midi": 56,
      "hit": false,
      "t": 52361.05874999976,
      "d": 138.88874999999825,
      "v": 127
    },
    {
      "midi": 77,
      "hit": false,
      "t": 52499.94749999962,
      "d": 277.7774999999965,
      "v": 127
    },
    {
      "midi": 51,
      "hit": false,
      "t": 52499.947499999755,
      "d": 138.88874999999825,
      "v": 127
    },
    {
      "midi": 56,
      "hit": false,
      "t": 52638.83624999975,
      "d": 138.88874999999825,
      "v": 127
    },
    {
      "midi": 70,
      "hit": false,
      "t": 52777.72499999961,
      "d": 277.7774999999965,
      "v": 127
    },
    {
      "midi": 49,
      "hit": false,
      "t": 52777.72499999975,
      "d": 138.88874999999825,
      "v": 127
    },
    {
      "midi": 56,
      "hit": false,
      "t": 52916.61374999975,
      "d": 138.88874999999825,
      "v": 127
    },
    {
      "midi": 73,
      "hit": false,
      "t": 53055.50249999961,
      "d": 277.7774999999965,
      "v": 127
    },
    {
      "midi": 48,
      "hit": false,
      "t": 53055.50249999975,
      "d": 138.88874999999825,
      "v": 127
    },
    {
      "midi": 56,
      "hit": false,
      "t": 53194.391249999746,
      "d": 138.88874999999825,
      "v": 127
    },
    {
      "midi": 67,
      "hit": false,
      "t": 53333.279999999606,
      "d": 277.7774999999965,
      "v": 127
    },
    {
      "midi": 46,
      "hit": false,
      "t": 53333.279999999744,
      "d": 138.88874999999825,
      "v": 127
    },
    {
      "midi": 49,
      "hit": false,
      "t": 53472.16874999974,
      "d": 138.88874999999825,
      "v": 127
    },
    {
      "midi": 70,
      "hit": false,
      "t": 53611.0574999996,
      "d": 277.7774999999965,
      "v": 127
    },
    {
      "midi": 48,
      "hit": false,
      "t": 53611.05749999974,
      "d": 138.88874999999825,
      "v": 127
    },
    {
      "midi": 51,
      "hit": false,
      "t": 53749.94624999974,
      "d": 138.88874999999825,
      "v": 127
    },
    {
      "midi": 63,
      "hit": false,
      "t": 53888.8349999996,
      "d": 277.7774999999965,
      "v": 127
    },
    {
      "midi": 49,
      "hit": false,
      "t": 53888.83499999974,
      "d": 138.88874999999825,
      "v": 127
    },
    {
      "midi": 53,
      "hit": false,
      "t": 54027.723749999735,
      "d": 138.88874999999825,
      "v": 127
    },
    {
      "midi": 67,
      "hit": false,
      "t": 54166.612499999595,
      "d": 277.7774999999965,
      "v": 127
    },
    {
      "midi": 51,
      "hit": false,
      "t": 54166.612499999734,
      "d": 138.88874999999825,
      "v": 127
    },
    {
      "midi": 49,
      "hit": false,
      "t": 54305.50124999973,
      "d": 138.88874999999825,
      "v": 127
    },
    {
      "midi": 68,
      "hit": false,
      "t": 54444.38999999959,
      "d": 555.5550000000003,
      "v": 127
    },
    {
      "midi": 48,
      "hit": false,
      "t": 54444.38999999973,
      "d": 138.88874999999825,
      "v": 127
    },
    {
      "midi": 51,
      "hit": false,
      "t": 54583.27874999973,
      "d": 138.88874999999825,
      "v": 127
    },
    {
      "midi": 49,
      "hit": false,
      "t": 54722.16749999973,
      "d": 138.88874999999825,
      "v": 127
    },
    {
      "midi": 53,
      "hit": false,
      "t": 54861.056249999725,
      "d": 138.88874999999825,
      "v": 127
    },
    {
      "midi": 51,
      "hit": false,
      "t": 54999.94499999972,
      "d": 277.7774999999965,
      "v": 127
    },
    {
      "midi": 67,
      "hit": false,
      "t": 55138.83374999959,
      "d": 138.88874999999825,
      "v": 127
    },
    {
      "midi": 68,
      "hit": false,
      "t": 55277.72249999959,
      "d": 138.88874999999825,
      "v": 127
    },
    {
      "midi": 53,
      "hit": false,
      "t": 55277.72249999972,
      "d": 138.88874999999825,
      "v": 127
    },
    {
      "midi": 70,
      "hit": false,
      "t": 55416.61124999959,
      "d": 138.88874999999825,
      "v": 127
    },
    {
      "midi": 49,
      "hit": false,
      "t": 55416.61124999972,
      "d": 138.88874999999825,
      "v": 127
    },
    {
      "midi": 70,
      "hit": false,
      "t": 55555.499999999585,
      "d": 833.3324999999968,
      "v": 127
    },
    {
      "midi": 51,
      "hit": false,
      "t": 55555.499999999716,
      "d": 277.7774999999965,
      "v": 127
    },
    {
      "midi": 49,
      "hit": false,
      "t": 55833.27749999971,
      "d": 277.7774999999965,
      "v": 127
    },
    {
      "midi": 51,
      "hit": false,
      "t": 56111.05499999971,
      "d": 277.7774999999965,
      "v": 127
    },
    {
      "midi": 68,
      "hit": false,
      "t": 56388.83249999958,
      "d": 277.7774999999965,
      "v": 127
    },
    {
      "midi": 39,
      "hit": false,
      "t": 56388.832499999706,
      "d": 277.7774999999965,
      "v": 127
    },
    {
      "midi": 68,
      "hit": false,
      "t": 56666.60999999958,
      "d": 277.7774999999965,
      "v": 127
    },
    {
      "midi": 44,
      "hit": false,
      "t": 56666.6099999997,
      "d": 555.5550000000003,
      "v": 127
    },
    {
      "midi": 75,
      "hit": false,
      "t": 56944.387499999575,
      "d": 138.88874999999825,
      "v": 127
    },
    {
      "midi": 73,
      "hit": false,
      "t": 57083.27624999957,
      "d": 138.88874999999825,
      "v": 127
    },
    {
      "midi": 75,
      "hit": false,
      "t": 57222.16499999957,
      "d": 277.7774999999965,
      "v": 127
    },
    {
      "midi": 56,
      "hit": false,
      "t": 57222.1649999997,
      "d": 555.5550000000003,
      "v": 127
    },
    {
      "midi": 72,
      "hit": false,
      "t": 57499.94249999957,
      "d": 277.7774999999965,
      "v": 127
    },
    {
      "midi": 67,
      "hit": false,
      "t": 57777.719999999565,
      "d": 277.7774999999965,
      "v": 127
    },
    {
      "midi": 70,
      "hit": false,
      "t": 58055.49749999956,
      "d": 277.7774999999965,
      "v": 127
    },
    {
      "midi": 65,
      "hit": false,
      "t": 58333.27499999956,
      "d": 555.5550000000003,
      "v": 127
    },
    {
      "midi": 68,
      "hit": false,
      "t": 58333.27499999956,
      "d": 555.5550000000003,
      "v": 127
    },
    {
      "midi": 53,
      "hit": false,
      "t": 58611.0524999997,
      "d": 138.88874999999825,
      "v": 127
    },
    {
      "midi": 51,
      "hit": false,
      "t": 58749.9412499997,
      "d": 138.88874999999825,
      "v": 127
    },
    {
      "midi": 75,
      "hit": false,
      "t": 58888.82999999956,
      "d": 555.5550000000003,
      "v": 127
    },
    {
      "midi": 53,
      "hit": false,
      "t": 58888.829999999696,
      "d": 277.7774999999965,
      "v": 127
    },
    {
      "midi": 56,
      "hit": false,
      "t": 59166.60749999969,
      "d": 277.7774999999965,
      "v": 127
    },
    {
      "midi": 49,
      "hit": false,
      "t": 59444.38499999969,
      "d": 277.7774999999965,
      "v": 127
    },
    {
      "midi": 66,
      "hit": false,
      "t": 59583.27374999956,
      "d": 138.88874999999825,
      "v": 127
    },
    {
      "midi": 65,
      "hit": false,
      "t": 59722.162499999555,
      "d": 138.88874999999825,
      "v": 127
    },
    {
      "midi": 53,
      "hit": false,
      "t": 59722.162499999686,
      "d": 277.7774999999965,
      "v": 127
    },
    {
      "midi": 63,
      "hit": false,
      "t": 59861.05124999955,
      "d": 138.88874999999825,
      "v": 127
    },
    {
      "midi": 61,
      "hit": false,
      "t": 59999.93999999955,
      "d": 277.7774999999965,
      "v": 127
    },
    {
      "midi": 46,
      "hit": false,
      "t": 59999.93999999968,
      "d": 555.5550000000003,
      "v": 127
    },
    {
      "midi": 73,
      "hit": false,
      "t": 60277.71749999955,
      "d": 138.88874999999825,
      "v": 127
    },
    {
      "midi": 72,
      "hit": false,
      "t": 60416.606249999546,
      "d": 138.88874999999825,
      "v": 127
    },
    {
      "midi": 73,
      "hit": false,
      "t": 60555.494999999544,
      "d": 277.7774999999965,
      "v": 127
    },
    {
      "midi": 56,
      "hit": false,
      "t": 60555.49499999968,
      "d": 555.5550000000003,
      "v": 127
    },
    {
      "midi": 70,
      "hit": false,
      "t": 60833.27249999954,
      "d": 277.7774999999965,
      "v": 127
    },
    {
      "midi": 65,
      "hit": false,
      "t": 61111.04999999954,
      "d": 555.5550000000003,
      "v": 127
    },
    {
      "midi": 63,
      "hit": false,
      "t": 61666.60499999954,
      "d": 555.5550000000003,
      "v": 127
    },
    {
      "midi": 67,
      "hit": false,
      "t": 61666.60499999954,
      "d": 555.5550000000003,
      "v": 127
    },
    {
      "midi": 51,
      "hit": false,
      "t": 61944.38249999968,
      "d": 138.88874999999825,
      "v": 127
    },
    {
      "midi": 49,
      "hit": false,
      "t": 62083.27124999968,
      "d": 138.88874999999825,
      "v": 127
    },
    {
      "midi": 73,
      "hit": false,
      "t": 62222.15999999954,
      "d": 555.5550000000003,
      "v": 127
    },
    {
      "midi": 51,
      "hit": false,
      "t": 62222.159999999676,
      "d": 277.7774999999965,
      "v": 127
    },
    {
      "midi": 55,
      "hit": false,
      "t": 62499.93749999967,
      "d": 277.7774999999965,
      "v": 127
    },
    {
      "midi": 48,
      "hit": false,
      "t": 62777.71499999967,
      "d": 277.7774999999965,
      "v": 127
    },
    {
      "midi": 65,
      "hit": false,
      "t": 62916.60374999954,
      "d": 138.88874999999825,
      "v": 127
    },
    {
      "midi": 63,
      "hit": false,
      "t": 63055.492499999535,
      "d": 138.88874999999825,
      "v": 127
    },
    {
      "midi": 51,
      "hit": false,
      "t": 63055.492499999666,
      "d": 277.7774999999965,
      "v": 127
    },
    {
      "midi": 61,
      "hit": false,
      "t": 63194.38124999953,
      "d": 138.88874999999825,
      "v": 127
    },
    {
      "midi": 60,
      "hit": false,
      "t": 63333.26999999953,
      "d": 138.88874999999825,
      "v": 127
    },
    {
      "midi": 44,
      "hit": false,
      "t": 63333.26999999966,
      "d": 138.88874999999825,
      "v": 127
    },
    {
      "midi": 72,
      "hit": false,
      "t": 63472.15874999953,
      "d": 138.88874999999825,
      "v": 127
    },
    {
      "midi": 56,
      "hit": false,
      "t": 63472.15874999966,
      "d": 138.88874999999825,
      "v": 127
    },
    {
      "midi": 70,
      "hit": false,
      "t": 63611.04749999953,
      "d": 138.88874999999825,
      "v": 127
    },
    {
      "midi": 55,
      "hit": false,
      "t": 63611.04749999966,
      "d": 138.88874999999825,
      "v": 127
    },
    {
      "midi": 72,
      "hit": false,
      "t": 63749.936249999526,
      "d": 138.88874999999825,
      "v": 127
    },
    {
      "midi": 56,
      "hit": false,
      "t": 63749.93624999966,
      "d": 138.88874999999825,
      "v": 127
    },
    {
      "midi": 68,
      "hit": false,
      "t": 63888.824999999524,
      "d": 138.88874999999825,
      "v": 127
    },
    {
      "midi": 53,
      "hit": false,
      "t": 63888.824999999655,
      "d": 138.88874999999825,
      "v": 127
    },
    {
      "midi": 72,
      "hit": false,
      "t": 64027.71374999952,
      "d": 138.88874999999825,
      "v": 127
    },
    {
      "midi": 56,
      "hit": false,
      "t": 64027.71374999965,
      "d": 138.88874999999825,
      "v": 127
    },
    {
      "midi": 67,
      "hit": false,
      "t": 64166.60249999952,
      "d": 138.88874999999825,
      "v": 127
    },
    {
      "midi": 51,
      "hit": false,
      "t": 64166.60249999965,
      "d": 138.88874999999825,
      "v": 127
    },
    {
      "midi": 72,
      "hit": false,
      "t": 64305.49124999952,
      "d": 138.88874999999825,
      "v": 127
    },
    {
      "midi": 56,
      "hit": false,
      "t": 64305.49124999965,
      "d": 138.88874999999825,
      "v": 127
    },
    {
      "midi": 65,
      "hit": false,
      "t": 64444.37999999952,
      "d": 138.88874999999825,
      "v": 127
    },
    {
      "midi": 49,
      "hit": false,
      "t": 64444.37999999965,
      "d": 138.88874999999825,
      "v": 127
    },
    {
      "midi": 72,
      "hit": false,
      "t": 64583.268749999515,
      "d": 138.88874999999825,
      "v": 127
    },
    {
      "midi": 56,
      "hit": false,
      "t": 64583.26874999965,
      "d": 138.88874999999825,
      "v": 127
    },
    {
      "midi": 63,
      "hit": false,
      "t": 64722.157499999514,
      "d": 138.88874999999825,
      "v": 127
    },
    {
      "midi": 48,
      "hit": false,
      "t": 64722.157499999645,
      "d": 138.88874999999825,
      "v": 127
    },
    {
      "midi": 72,
      "hit": false,
      "t": 64861.04624999951,
      "d": 138.88874999999825,
      "v": 127
    },
    {
      "midi": 56,
      "hit": false,
      "t": 64861.04624999964,
      "d": 138.88874999999825,
      "v": 127
    },
    {
      "midi": 61,
      "hit": false,
      "t": 64999.93499999951,
      "d": 138.88874999999825,
      "v": 127
    },
    {
      "midi": 46,
      "hit": false,
      "t": 64999.93499999964,
      "d": 138.88874999999825,
      "v": 127
    },
    {
      "midi": 73,
      "hit": false,
      "t": 65138.82374999951,
      "d": 138.88874999999825,
      "v": 127
    },
    {
      "midi": 58,
      "hit": false,
      "t": 65138.82374999964,
      "d": 138.88874999999825,
      "v": 127
    },
    {
      "midi": 72,
      "hit": false,
      "t": 65277.71249999951,
      "d": 138.88874999999825,
      "v": 127
    },
    {
      "midi": 56,
      "hit": false,
      "t": 65277.71249999964,
      "d": 138.88874999999825,
      "v": 127
    },
    {
      "midi": 73,
      "hit": false,
      "t": 65416.601249999505,
      "d": 138.88875000000553,
      "v": 127
    },
    {
      "midi": 58,
      "hit": false,
      "t": 65416.601249999636,
      "d": 138.88875000000553,
      "v": 127
    },
    {
      "midi": 70,
      "hit": false,
      "t": 65555.48999999951,
      "d": 138.88874999999825,
      "v": 127
    },
    {
      "midi": 55,
      "hit": false,
      "t": 65555.48999999964,
      "d": 138.88874999999825,
      "v": 127
    },
    {
      "midi": 73,
      "hit": false,
      "t": 65694.37874999951,
      "d": 138.88874999999825,
      "v": 127
    },
    {
      "midi": 58,
      "hit": false,
      "t": 65694.37874999964,
      "d": 138.88874999999825,
      "v": 127
    },
    {
      "midi": 68,
      "hit": false,
      "t": 65833.2674999995,
      "d": 138.88874999999825,
      "v": 127
    },
    {
      "midi": 53,
      "hit": false,
      "t": 65833.26749999964,
      "d": 138.88874999999825,
      "v": 127
    },
    {
      "midi": 73,
      "hit": false,
      "t": 65972.1562499995,
      "d": 138.88874999999825,
      "v": 127
    },
    {
      "midi": 58,
      "hit": false,
      "t": 65972.15624999964,
      "d": 138.88874999999825,
      "v": 127
    },
    {
      "midi": 67,
      "hit": false,
      "t": 66111.0449999995,
      "d": 138.88874999999825,
      "v": 127
    },
    {
      "midi": 51,
      "hit": false,
      "t": 66111.04499999963,
      "d": 138.88874999999825,
      "v": 127
    },
    {
      "midi": 73,
      "hit": false,
      "t": 66249.9337499995,
      "d": 138.88874999999825,
      "v": 127
    },
    {
      "midi": 58,
      "hit": false,
      "t": 66249.93374999963,
      "d": 138.88874999999825,
      "v": 127
    },
    {
      "midi": 65,
      "hit": false,
      "t": 66388.8224999995,
      "d": 138.88874999999825,
      "v": 127
    },
    {
      "midi": 49,
      "hit": false,
      "t": 66388.82249999963,
      "d": 138.88874999999825,
      "v": 127
    },
    {
      "midi": 73,
      "hit": false,
      "t": 66527.7112499995,
      "d": 138.88874999999825,
      "v": 127
    },
    {
      "midi": 58,
      "hit": false,
      "t": 66527.71124999963,
      "d": 138.88874999999825,
      "v": 127
    },
    {
      "midi": 63,
      "hit": false,
      "t": 66666.5999999995,
      "d": 277.7774999999965,
      "v": 127
    },
    {
      "midi": 48,
      "hit": false,
      "t": 66666.59999999963,
      "d": 277.7774999999965,
      "v": 127
    },
    {
      "midi": 68,
      "hit": false,
      "t": 66944.3774999995,
      "d": 138.88874999999825,
      "v": 127
    },
    {
      "midi": 60,
      "hit": false,
      "t": 66944.37749999962,
      "d": 277.7774999999965,
      "v": 127
    },
    {
      "midi": 67,
      "hit": false,
      "t": 67083.26624999949,
      "d": 138.88874999999825,
      "v": 127
    },
    {
      "midi": 68,
      "hit": false,
      "t": 67222.15499999949,
      "d": 277.7774999999965,
      "v": 127
    },
    {
      "midi": 72,
      "hit": false,
      "t": 67499.93249999949,
      "d": 277.7774999999965,
      "v": 127
    },
    {
      "midi": 53,
      "hit": false,
      "t": 67499.93249999962,
      "d": 138.88874999999825,
      "v": 127
    },
    {
      "midi": 55,
      "hit": false,
      "t": 67638.82124999962,
      "d": 138.88874999999825,
      "v": 127
    },
    {
      "midi": 65,
      "hit": false,
      "t": 67777.70999999948,
      "d": 277.7774999999965,
      "v": 127
    },
    {
      "midi": 56,
      "hit": false,
      "t": 67777.70999999961,
      "d": 138.88874999999825,
      "v": 127
    },
    {
      "midi": 55,
      "hit": false,
      "t": 67916.59874999961,
      "d": 138.88874999999825,
      "v": 127
    },
    {
      "midi": 68,
      "hit": false,
      "t": 68055.48749999948,
      "d": 277.7774999999965,
      "v": 127
    },
    {
      "midi": 56,
      "hit": false,
      "t": 68055.48749999961,
      "d": 138.88874999999825,
      "v": 127
    },
    {
      "midi": 53,
      "hit": false,
      "t": 68194.37624999961,
      "d": 138.88874999999825,
      "v": 127
    },
    {
      "midi": 73,
      "hit": false,
      "t": 68333.26499999948,
      "d": 277.7774999999965,
      "v": 127
    },
    {
      "midi": 58,
      "hit": false,
      "t": 68333.2649999996,
      "d": 277.7774999999965,
      "v": 127
    },
    {
      "midi": 67,
      "hit": false,
      "t": 68611.04249999947,
      "d": 138.88874999999825,
      "v": 127
    },
    {
      "midi": 46,
      "hit": false,
      "t": 68611.0424999996,
      "d": 277.7774999999965,
      "v": 127
    },
    {
      "midi": 65,
      "hit": false,
      "t": 68749.93124999947,
      "d": 138.88874999999825,
      "v": 127
    },
    {
      "midi": 67,
      "hit": false,
      "t": 68888.81999999947,
      "d": 277.7774999999965,
      "v": 127
    },
    {
      "midi": 70,
      "hit": false,
      "t": 69166.59749999947,
      "d": 277.7774999999965,
      "v": 127
    },
    {
      "midi": 51,
      "hit": false,
      "t": 69166.5974999996,
      "d": 138.88874999999825,
      "v": 127
    },
    {
      "midi": 53,
      "hit": false,
      "t": 69305.4862499996,
      "d": 138.88874999999825,
      "v": 127
    },
    {
      "midi": 63,
      "hit": false,
      "t": 69444.37499999946,
      "d": 277.7774999999965,
      "v": 127
    },
    {
      "midi": 55,
      "hit": false,
      "t": 69444.37499999959,
      "d": 138.88874999999825,
      "v": 127
    },
    {
      "midi": 53,
      "hit": false,
      "t": 69583.26374999959,
      "d": 138.88874999999825,
      "v": 127
    },
    {
      "midi": 67,
      "hit": false,
      "t": 69722.15249999946,
      "d": 277.7774999999965,
      "v": 127
    },
    {
      "midi": 55,
      "hit": false,
      "t": 69722.15249999959,
      "d": 138.88874999999825,
      "v": 127
    },
    {
      "midi": 51,
      "hit": false,
      "t": 69861.04124999959,
      "d": 138.88874999999825,
      "v": 127
    },
    {
      "midi": 72,
      "hit": false,
      "t": 69999.92999999945,
      "d": 277.7774999999965,
      "v": 127
    },
    {
      "midi": 56,
      "hit": false,
      "t": 69999.92999999959,
      "d": 277.7774999999965,
      "v": 127
    },
    {
      "midi": 61,
      "hit": false,
      "t": 70277.70749999945,
      "d": 277.7774999999965,
      "v": 127
    },
    {
      "midi": 65,
      "hit": false,
      "t": 70277.70749999945,
      "d": 277.7774999999965,
      "v": 127
    },
    {
      "midi": 68,
      "hit": false,
      "t": 70277.70749999945,
      "d": 277.7774999999965,
      "v": 127
    },
    {
      "midi": 49,
      "hit": false,
      "t": 70277.70749999958,
      "d": 277.7774999999965,
      "v": 127
    },
    {
      "midi": 68,
      "hit": false,
      "t": 70555.48499999945,
      "d": 555.554999999993,
      "v": 127
    },
    {
      "midi": 51,
      "hit": false,
      "t": 70555.48499999958,
      "d": 277.7774999999965,
      "v": 127
    },
    {
      "midi": 49,
      "hit": false,
      "t": 70833.26249999958,
      "d": 277.7774999999965,
      "v": 127
    },
    {
      "midi": 67,
      "hit": false,
      "t": 71111.03999999944,
      "d": 555.554999999993,
      "v": 127
    },
    {
      "midi": 51,
      "hit": false,
      "t": 71111.03999999957,
      "d": 277.7774999999965,
      "v": 127
    },
    {
      "midi": 39,
      "hit": false,
      "t": 71388.81749999957,
      "d": 277.7774999999965,
      "v": 127
    },
    {
      "midi": 60,
      "hit": false,
      "t": 71666.59499999943,
      "d": 1666.6649999999936,
      "v": 127
    },
    {
      "midi": 63,
      "hit": false,
      "t": 71666.59499999943,
      "d": 1666.6649999999936,
      "v": 127
    },
    {
      "midi": 68,
      "hit": false,
      "t": 71666.59499999943,
      "d": 1666.6649999999936,
      "v": 127
    },
    {
      "midi": 44,
      "hit": false,
      "t": 71666.59499999956,
      "d": 1666.6649999999936,
      "v": 127
    }
  ]
}