{
  "jsonPath": "Classical/Classical/Johann Sebastian Bach/das-wohltemperierte-clavier-i-fuga-iii.json",
  "path": "Classical\\Classical\\Johann Sebastian Bach\\Das Wohltemperierte Clavier I, Fuga III.mid",
  "name": "Das Wohltemperierte Clavier I, Fuga III",
  "difficulty": "Advanced",
  "bpm": 96,
  "notes": [
    {
      "midi": 68,
      "hit": false,
      "t": 937.5,
      "d": 312.5,
      "v": 127
    },
    {
      "midi": 70,
      "hit": false,
      "t": 1250,
      "d": 156.25,
      "v": 127
    },
    {
      "midi": 68,
      "hit": false,
      "t": 1406.25,
      "d": 156.25,
      "v": 127
    },
    {
      "midi": 66,
      "hit": false,
      "t": 1562.5,
      "d": 156.25,
      "v": 127
    },
    {
      "midi": 68,
      "hit": false,
      "t": 1718.75,
      "d": 156.25,
      "v": 127
    },
    {
      "midi": 77,
      "hit": false,
      "t": 1875,
      "d": 312.5,
      "v": 127
    },
    {
      "midi": 73,
      "hit": false,
      "t": 2187.5,
      "d": 312.5,
      "v": 127
    },
    {
      "midi": 68,
      "hit": false,
      "t": 2500,
      "d": 312.5,
      "v": 127
    },
    {
      "midi": 66,
      "hit": false,
      "t": 2812.5,
      "d": 156.25,
      "v": 127
    },
    {
      "midi": 65,
      "hit": false,
      "t": 2968.75,
      "d": 156.25,
      "v": 127
    },
    {
      "midi": 66,
      "hit": false,
      "t": 3125,
      "d": 312.5,
      "v": 127
    },
    {
      "midi": 75,
      "hit": false,
      "t": 3437.5,
      "d": 312.5,
      "v": 127
    },
    {
      "midi": 65,
      "hit": false,
      "t": 3750,
      "d": 312.5,
      "v": 127
    },
    {
      "midi": 73,
      "hit": false,
      "t": 4062.5,
      "d": 312.5,
      "v": 127
    },
    {
      "midi": 63,
      "hit": false,
      "t": 4375,
      "d": 312.5,
      "v": 127
    },
    {
      "midi": 72,
      "hit": false,
      "t": 4687.5,
      "d": 312.5,
      "v": 127
    },
    {
      "midi": 61,
      "hit": false,
      "t": 5000,
      "d": 312.5,
      "v": 127
    },
    {
      "midi": 73,
      "hit": false,
      "t": 5312.5,
      "d": 156.25,
      "v": 127
    },
    {
      "midi": 72,
      "hit": false,
      "t": 5468.75,
      "d": 156.25,
      "v": 127
    },
    {
      "midi": 73,
      "hit": false,
      "t": 5625,
      "d": 156.25,
      "v": 127
    },
    {
      "midi": 75,
      "hit": false,
      "t": 5781.25,
      "d": 156.25,
      "v": 127
    },
    {
      "midi": 77,
      "hit": false,
      "t": 5937.5,
      "d": 156.25,
      "v": 127
    },
    {
      "midi": 78,
      "hit": false,
      "t": 6093.75,
      "d": 156.25,
      "v": 127
    },
    {
      "midi": 65,
      "hit": false,
      "t": 6250,
      "d": 156.25,
      "v": 127
    },
    {
      "midi": 80,
      "hit": false,
      "t": 6250,
      "d": 156.25,
      "v": 127
    },
    {
      "midi": 63,
      "hit": false,
      "t": 6406.25,
      "d": 156.25,
      "v": 127
    },
    {
      "midi": 79,
      "hit": false,
      "t": 6406.25,
      "d": 156.25,
      "v": 127
    },
    {
      "midi": 61,
      "hit": false,
      "t": 6562.5,
      "d": 156.25,
      "v": 127
    },
    {
      "midi": 77,
      "hit": false,
      "t": 6562.5,
      "d": 156.25,
      "v": 127
    },
    {
      "midi": 63,
      "hit": false,
      "t": 6718.75,
      "d": 156.25,
      "v": 127
    },
    {
      "midi": 79,
      "hit": false,
      "t": 6718.75,
      "d": 156.25,
      "v": 127
    },
    {
      "midi": 80,
      "hit": false,
      "t": 6875,
      "d": 156.25,
      "v": 127
    },
    {
      "midi": 78,
      "hit": false,
      "t": 7031.25,
      "d": 156.25,
      "v": 127
    },
    {
      "midi": 77,
      "hit": false,
      "t": 7187.5,
      "d": 156.25,
      "v": 127
    },
    {
      "midi": 75,
      "hit": false,
      "t": 7343.75,
      "d": 156.25,
      "v": 127
    },
    {
      "midi": 77,
      "hit": false,
      "t": 7500,
      "d": 312.5,
      "v": 127
    },
    {
      "midi": 61,
      "hit": false,
      "t": 7812.5,
      "d": 156.25,
      "v": 127
    },
    {
      "midi": 60,
      "hit": false,
      "t": 7968.75,
      "d": 156.25,
      "v": 127
    },
    {
      "midi": 61,
      "hit": false,
      "t": 8125,
      "d": 156.25,
      "v": 127
    },
    {
      "midi": 75,
      "hit": false,
      "t": 8281.25,
      "d": 156.25,
      "v": 127
    },
    {
      "midi": 73,
      "hit": false,
      "t": 8437.5,
      "d": 156.25,
      "v": 127
    },
    {
      "midi": 77,
      "hit": false,
      "t": 8593.75,
      "d": 156.25,
      "v": 127
    },
    {
      "midi": 75,
      "hit": false,
      "t": 8750,
      "d": 156.25,
      "v": 127
    },
    {
      "midi": 60,
      "hit": false,
      "t": 8750,
      "d": 625,
      "v": 127
    },
    {
      "midi": 73,
      "hit": false,
      "t": 8906.25,
      "d": 156.25,
      "v": 127
    },
    {
      "midi": 72,
      "hit": false,
      "t": 9062.5,
      "d": 156.25,
      "v": 127
    },
    {
      "midi": 75,
      "hit": false,
      "t": 9218.75,
      "d": 156.25,
      "v": 127
    },
    {
      "midi": 73,
      "hit": false,
      "t": 9375,
      "d": 156.25,
      "v": 127
    },
    {
      "midi": 58,
      "hit": false,
      "t": 9375,
      "d": 625,
      "v": 127
    },
    {
      "midi": 72,
      "hit": false,
      "t": 9531.25,
      "d": 156.25,
      "v": 127
    },
    {
      "midi": 73,
      "hit": false,
      "t": 9687.5,
      "d": 156.25,
      "v": 127
    },
    {
      "midi": 70,
      "hit": false,
      "t": 9843.75,
      "d": 156.25,
      "v": 127
    },
    {
      "midi": 72,
      "hit": false,
      "t": 10000,
      "d": 312.5,
      "v": 127
    },
    {
      "midi": 56,
      "hit": false,
      "t": 10000,
      "d": 625,
      "v": 127
    },
    {
      "midi": 75,
      "hit": false,
      "t": 10312.5,
      "d": 156.25,
      "v": 127
    },
    {
      "midi": 67,
      "hit": false,
      "t": 10468.75,
      "d": 156.25,
      "v": 127
    },
    {
      "midi": 78,
      "hit": false,
      "t": 10625,
      "d": 156.25,
      "v": 127
    },
    {
      "midi": 70,
      "hit": false,
      "t": 10781.25,
      "d": 156.25,
      "v": 127
    },
    {
      "midi": 72,
      "hit": false,
      "t": 10937.5,
      "d": 156.25,
      "v": 127
    },
    {
      "midi": 56,
      "hit": false,
      "t": 10937.5,
      "d": 312.5,
      "v": 127
    },
    {
      "midi": 68,
      "hit": false,
      "t": 11093.75,
      "d": 156.25,
      "v": 127
    },
    {
      "midi": 73,
      "hit": false,
      "t": 11250,
      "d": 156.25,
      "v": 127
    },
    {
      "midi": 58,
      "hit": false,
      "t": 11250,
      "d": 156.25,
      "v": 127
    },
    {
      "midi": 72,
      "hit": false,
      "t": 11406.25,
      "d": 156.25,
      "v": 127
    },
    {
      "midi": 56,
      "hit": false,
      "t": 11406.25,
      "d": 156.25,
      "v": 127
    },
    {
      "midi": 70,
      "hit": false,
      "t": 11562.5,
      "d": 156.25,
      "v": 127
    },
    {
      "midi": 54,
      "hit": false,
      "t": 11562.5,
      "d": 156.25,
      "v": 127
    },
    {
      "midi": 72,
      "hit": false,
      "t": 11718.75,
      "d": 156.25,
      "v": 127
    },
    {
      "midi": 56,
      "hit": false,
      "t": 11718.75,
      "d": 156.25,
      "v": 127
    },
    {
      "midi": 77,
      "hit": false,
      "t": 11875,
      "d": 156.25,
      "v": 127
    },
    {
      "midi": 65,
      "hit": false,
      "t": 11875,
      "d": 312.5,
      "v": 127
    },
    {
      "midi": 72,
      "hit": false,
      "t": 12031.25,
      "d": 156.25,
      "v": 127
    },
    {
      "midi": 70,
      "hit": false,
      "t": 12187.5,
      "d": 156.25,
      "v": 127
    },
    {
      "midi": 61,
      "hit": false,
      "t": 12187.5,
      "d": 312.5,
      "v": 127
    },
    {
      "midi": 68,
      "hit": false,
      "t": 12343.75,
      "d": 156.25,
      "v": 127
    },
    {
      "midi": 70,
      "hit": false,
      "t": 12500,
      "d": 625,
      "v": 127
    },
    {
      "midi": 56,
      "hit": false,
      "t": 12500,
      "d": 312.5,
      "v": 127
    },
    {
      "midi": 54,
      "hit": false,
      "t": 12812.5,
      "d": 156.25,
      "v": 127
    },
    {
      "midi": 53,
      "hit": false,
      "t": 12968.75,
      "d": 156.25,
      "v": 127
    },
    {
      "midi": 75,
      "hit": false,
      "t": 13125,
      "d": 156.25,
      "v": 127
    },
    {
      "midi": 54,
      "hit": false,
      "t": 13125,
      "d": 312.5,
      "v": 127
    },
    {
      "midi": 68,
      "hit": false,
      "t": 13281.25,
      "d": 156.25,
      "v": 127
    },
    {
      "midi": 66,
      "hit": false,
      "t": 13437.5,
      "d": 156.25,
      "v": 127
    },
    {
      "midi": 63,
      "hit": false,
      "t": 13437.5,
      "d": 312.5,
      "v": 127
    },
    {
      "midi": 70,
      "hit": false,
      "t": 13593.75,
      "d": 156.25,
      "v": 127
    },
    {
      "midi": 68,
      "hit": false,
      "t": 13750,
      "d": 156.25,
      "v": 127
    },
    {
      "midi": 53,
      "hit": false,
      "t": 13750,
      "d": 312.5,
      "v": 127
    },
    {
      "midi": 66,
      "hit": false,
      "t": 13906.25,
      "d": 156.25,
      "v": 127
    },
    {
      "midi": 73,
      "hit": false,
      "t": 14062.5,
      "d": 156.25,
      "v": 127
    },
    {
      "midi": 61,
      "hit": false,
      "t": 14062.5,
      "d": 312.5,
      "v": 127
    },
    {
      "midi": 68,
      "hit": false,
      "t": 14218.75,
      "d": 156.25,
      "v": 127
    },
    {
      "midi": 72,
      "hit": false,
      "t": 14375,
      "d": 156.25,
      "v": 127
    },
    {
      "midi": 51,
      "hit": false,
      "t": 14375,
      "d": 312.5,
      "v": 127
    },
    {
      "midi": 65,
      "hit": false,
      "t": 14531.25,
      "d": 156.25,
      "v": 127
    },
    {
      "midi": 75,
      "hit": false,
      "t": 14687.5,
      "d": 156.25,
      "v": 127
    },
    {
      "midi": 60,
      "hit": false,
      "t": 14687.5,
      "d": 312.5,
      "v": 127
    },
    {
      "midi": 63,
      "hit": false,
      "t": 14843.75,
      "d": 156.25,
      "v": 127
    },
    {
      "midi": 65,
      "hit": false,
      "t": 15000,
      "d": 312.5,
      "v": 127
    },
    {
      "midi": 49,
      "hit": false,
      "t": 15000,
      "d": 312.5,
      "v": 127
    },
    {
      "midi": 68,
      "hit": false,
      "t": 15312.5,
      "d": 312.5,
      "v": 127
    },
    {
      "midi": 61,
      "hit": false,
      "t": 15312.5,
      "d": 156.25,
      "v": 127
    },
    {
      "midi": 60,
      "hit": false,
      "t": 15468.75,
      "d": 156.25,
      "v": 127
    },
    {
      "midi": 77,
      "hit": false,
      "t": 15625,
      "d": 312.5,
      "v": 127
    },
    {
      "midi": 61,
      "hit": false,
      "t": 15625,
      "d": 156.25,
      "v": 127
    },
    {
      "midi": 63,
      "hit": false,
      "t": 15781.25,
      "d": 156.25,
      "v": 127
    },
    {
      "midi": 68,
      "hit": false,
      "t": 15937.5,
      "d": 312.5,
      "v": 127
    },
    {
      "midi": 65,
      "hit": false,
      "t": 15937.5,
      "d": 156.25,
      "v": 127
    },
    {
      "midi": 61,
      "hit": false,
      "t": 16093.75,
      "d": 156.25,
      "v": 127
    },
    {
      "midi": 73,
      "hit": false,
      "t": 16250,
      "d": 312.5,
      "v": 127
    },
    {
      "midi": 58,
      "hit": false,
      "t": 16250,
      "d": 156.25,
      "v": 127
    },
    {
      "midi": 60,
      "hit": false,
      "t": 16406.25,
      "d": 156.25,
      "v": 127
    },
    {
      "midi": 77,
      "hit": false,
      "t": 16562.5,
      "d": 312.5,
      "v": 127
    },
    {
      "midi": 61,
      "hit": false,
      "t": 16562.5,
      "d": 156.25,
      "v": 127
    },
    {
      "midi": 58,
      "hit": false,
      "t": 16718.75,
      "d": 156.25,
      "v": 127
    },
    {
      "midi": 70,
      "hit": false,
      "t": 16875,
      "d": 312.5,
      "v": 127
    },
    {
      "midi": 55,
      "hit": false,
      "t": 16875,
      "d": 156.25,
      "v": 127
    },
    {
      "midi": 56,
      "hit": false,
      "t": 17031.25,
      "d": 156.25,
      "v": 127
    },
    {
      "midi": 73,
      "hit": false,
      "t": 17187.5,
      "d": 312.5,
      "v": 127
    },
    {
      "midi": 58,
      "hit": false,
      "t": 17187.5,
      "d": 156.25,
      "v": 127
    },
    {
      "midi": 55,
      "hit": false,
      "t": 17343.75,
      "d": 156.25,
      "v": 127
    },
    {
      "midi": 63,
      "hit": false,
      "t": 17500,
      "d": 312.5,
      "v": 127
    },
    {
      "midi": 48,
      "hit": false,
      "t": 17500,
      "d": 312.5,
      "v": 127
    },
    {
      "midi": 70,
      "hit": false,
      "t": 17812.5,
      "d": 312.5,
      "v": 127
    },
    {
      "midi": 60,
      "hit": false,
      "t": 17812.5,
      "d": 156.25,
      "v": 127
    },
    {
      "midi": 58,
      "hit": false,
      "t": 17968.75,
      "d": 156.25,
      "v": 127
    },
    {
      "midi": 75,
      "hit": false,
      "t": 18125,
      "d": 312.5,
      "v": 127
    },
    {
      "midi": 60,
      "hit": false,
      "t": 18125,
      "d": 156.25,
      "v": 127
    },
    {
      "midi": 61,
      "hit": false,
      "t": 18281.25,
      "d": 156.25,
      "v": 127
    },
    {
      "midi": 67,
      "hit": false,
      "t": 18437.5,
      "d": 312.5,
      "v": 127
    },
    {
      "midi": 63,
      "hit": false,
      "t": 18437.5,
      "d": 156.25,
      "v": 127
    },
    {
      "midi": 60,
      "hit": false,
      "t": 18593.75,
      "d": 156.25,
      "v": 127
    },
    {
      "midi": 72,
      "hit": false,
      "t": 18750,
      "d": 312.5,
      "v": 127
    },
    {
      "midi": 56,
      "hit": false,
      "t": 18750,
      "d": 156.25,
      "v": 127
    },
    {
      "midi": 58,
      "hit": false,
      "t": 18906.25,
      "d": 156.25,
      "v": 127
    },
    {
      "midi": 75,
      "hit": false,
      "t": 19062.5,
      "d": 312.5,
      "v": 127
    },
    {
      "midi": 60,
      "hit": false,
      "t": 19062.5,
      "d": 156.25,
      "v": 127
    },
    {
      "midi": 56,
      "hit": false,
      "t": 19218.75,
      "d": 156.25,
      "v": 127
    },
    {
      "midi": 68,
      "hit": false,
      "t": 19375,
      "d": 312.5,
      "v": 127
    },
    {
      "midi": 53,
      "hit": false,
      "t": 19375,
      "d": 156.25,
      "v": 127
    },
    {
      "midi": 55,
      "hit": false,
      "t": 19531.25,
      "d": 156.25,
      "v": 127
    },
    {
      "midi": 72,
      "hit": false,
      "t": 19687.5,
      "d": 312.5,
      "v": 127
    },
    {
      "midi": 56,
      "hit": false,
      "t": 19687.5,
      "d": 156.25,
      "v": 127
    },
    {
      "midi": 53,
      "hit": false,
      "t": 19843.75,
      "d": 156.25,
      "v": 127
    },
    {
      "midi": 61,
      "hit": false,
      "t": 20000,
      "d": 312.5,
      "v": 127
    },
    {
      "midi": 46,
      "hit": false,
      "t": 20000,
      "d": 312.5,
      "v": 127
    },
    {
      "midi": 68,
      "hit": false,
      "t": 20312.5,
      "d": 312.5,
      "v": 127
    },
    {
      "midi": 58,
      "hit": false,
      "t": 20312.5,
      "d": 156.25,
      "v": 127
    },
    {
      "midi": 56,
      "hit": false,
      "t": 20468.75,
      "d": 156.25,
      "v": 127
    },
    {
      "midi": 73,
      "hit": false,
      "t": 20625,
      "d": 312.5,
      "v": 127
    },
    {
      "midi": 58,
      "hit": false,
      "t": 20625,
      "d": 156.25,
      "v": 127
    },
    {
      "midi": 60,
      "hit": false,
      "t": 20781.25,
      "d": 156.25,
      "v": 127
    },
    {
      "midi": 65,
      "hit": false,
      "t": 20937.5,
      "d": 312.5,
      "v": 127
    },
    {
      "midi": 61,
      "hit": false,
      "t": 20937.5,
      "d": 156.25,
      "v": 127
    },
    {
      "midi": 58,
      "hit": false,
      "t": 21093.75,
      "d": 156.25,
      "v": 127
    },
    {
      "midi": 70,
      "hit": false,
      "t": 21250,
      "d": 156.25,
      "v": 127
    },
    {
      "midi": 55,
      "hit": false,
      "t": 21250,
      "d": 156.25,
      "v": 127
    },
    {
      "midi": 72,
      "hit": false,
      "t": 21406.25,
      "d": 156.25,
      "v": 127
    },
    {
      "midi": 56,
      "hit": false,
      "t": 21406.25,
      "d": 156.25,
      "v": 127
    },
    {
      "midi": 73,
      "hit": false,
      "t": 21562.5,
      "d": 312.5,
      "v": 127
    },
    {
      "midi": 58,
      "hit": false,
      "t": 21562.5,
      "d": 156.25,
      "v": 127
    },
    {
      "midi": 55,
      "hit": false,
      "t": 21718.75,
      "d": 156.25,
      "v": 127
    },
    {
      "midi": 82,
      "hit": false,
      "t": 21875,
      "d": 156.25,
      "v": 127
    },
    {
      "midi": 51,
      "hit": false,
      "t": 21875,
      "d": 156.25,
      "v": 127
    },
    {
      "midi": 73,
      "hit": false,
      "t": 22031.25,
      "d": 156.25,
      "v": 127
    },
    {
      "midi": 53,
      "hit": false,
      "t": 22031.25,
      "d": 156.25,
      "v": 127
    },
    {
      "midi": 75,
      "hit": false,
      "t": 22187.5,
      "d": 156.25,
      "v": 127
    },
    {
      "midi": 55,
      "hit": false,
      "t": 22187.5,
      "d": 156.25,
      "v": 127
    },
    {
      "midi": 70,
      "hit": false,
      "t": 22343.75,
      "d": 156.25,
      "v": 127
    },
    {
      "midi": 51,
      "hit": false,
      "t": 22343.75,
      "d": 156.25,
      "v": 127
    },
    {
      "midi": 72,
      "hit": false,
      "t": 22500,
      "d": 156.25,
      "v": 127
    },
    {
      "midi": 44,
      "hit": false,
      "t": 22500,
      "d": 312.5,
      "v": 127
    },
    {
      "midi": 80,
      "hit": false,
      "t": 22656.25,
      "d": 156.25,
      "v": 127
    },
    {
      "midi": 79,
      "hit": false,
      "t": 22812.5,
      "d": 156.25,
      "v": 127
    },
    {
      "midi": 56,
      "hit": false,
      "t": 22812.5,
      "d": 156.25,
      "v": 127
    },
    {
      "midi": 82,
      "hit": false,
      "t": 22968.75,
      "d": 156.25,
      "v": 127
    },
    {
      "midi": 58,
      "hit": false,
      "t": 22968.75,
      "d": 156.25,
      "v": 127
    },
    {
      "midi": 80,
      "hit": false,
      "t": 23125,
      "d": 156.25,
      "v": 127
    },
    {
      "midi": 60,
      "hit": false,
      "t": 23125,
      "d": 312.5,
      "v": 127
    },
    {
      "midi": 75,
      "hit": false,
      "t": 23281.25,
      "d": 156.25,
      "v": 127
    },
    {
      "midi": 77,
      "hit": false,
      "t": 23437.5,
      "d": 156.25,
      "v": 127
    },
    {
      "midi": 56,
      "hit": false,
      "t": 23437.5,
      "d": 312.5,
      "v": 127
    },
    {
      "midi": 78,
      "hit": false,
      "t": 23593.75,
      "d": 156.25,
      "v": 127
    },
    {
      "midi": 77,
      "hit": false,
      "t": 23750,
      "d": 156.25,
      "v": 127
    },
    {
      "midi": 61,
      "hit": false,
      "t": 23750,
      "d": 625,
      "v": 127
    },
    {
      "midi": 67,
      "hit": false,
      "t": 23906.25,
      "d": 156.25,
      "v": 127
    },
    {
      "midi": 75,
      "hit": false,
      "t": 23906.25,
      "d": 156.25,
      "v": 127
    },
    {
      "midi": 65,
      "hit": false,
      "t": 24062.5,
      "d": 156.25,
      "v": 127
    },
    {
      "midi": 73,
      "hit": false,
      "t": 24062.5,
      "d": 156.25,
      "v": 127
    },
    {
      "midi": 67,
      "hit": false,
      "t": 24218.75,
      "d": 156.25,
      "v": 127
    },
    {
      "midi": 75,
      "hit": false,
      "t": 24218.75,
      "d": 156.25,
      "v": 127
    },
    {
      "midi": 84,
      "hit": false,
      "t": 24375,
      "d": 156.25,
      "v": 127
    },
    {
      "midi": 60,
      "hit": false,
      "t": 24375,
      "d": 625,
      "v": 127
    },
    {
      "midi": 66,
      "hit": false,
      "t": 24531.25,
      "d": 156.25,
      "v": 127
    },
    {
      "midi": 80,
      "hit": false,
      "t": 24687.5,
      "d": 156.25,
      "v": 127
    },
    {
      "midi": 63,
      "hit": false,
      "t": 24843.75,
      "d": 156.25,
      "v": 127
    },
    {
      "midi": 75,
      "hit": false,
      "t": 25000,
      "d": 312.5,
      "v": 127
    },
    {
      "midi": 58,
      "hit": false,
      "t": 25000,
      "d": 312.5,
      "v": 127
    },
    {
      "midi": 73,
      "hit": false,
      "t": 25312.5,
      "d": 156.25,
      "v": 127
    },
    {
      "midi": 56,
      "hit": false,
      "t": 25312.5,
      "d": 312.5,
      "v": 127
    },
    {
      "midi": 72,
      "hit": false,
      "t": 25468.75,
      "d": 156.25,
      "v": 127
    },
    {
      "midi": 73,
      "hit": false,
      "t": 25625,
      "d": 156.25,
      "v": 127
    },
    {
      "midi": 55,
      "hit": false,
      "t": 25625,
      "d": 625,
      "v": 127
    },
    {
      "midi": 63,
      "hit": false,
      "t": 25781.25,
      "d": 156.25,
      "v": 127
    },
    {
      "midi": 82,
      "hit": false,
      "t": 25937.5,
      "d": 156.25,
      "v": 127
    },
    {
      "midi": 65,
      "hit": false,
      "t": 26093.75,
      "d": 156.25,
      "v": 127
    },
    {
      "midi": 72,
      "hit": false,
      "t": 26250,
      "d": 156.25,
      "v": 127
    },
    {
      "midi": 56,
      "hit": false,
      "t": 26250,
      "d": 625,
      "v": 127
    },
    {
      "midi": 61,
      "hit": false,
      "t": 26406.25,
      "d": 156.25,
      "v": 127
    },
    {
      "midi": 80,
      "hit": false,
      "t": 26562.5,
      "d": 156.25,
      "v": 127
    },
    {
      "midi": 63,
      "hit": false,
      "t": 26718.75,
      "d": 156.25,
      "v": 127
    },
    {
      "midi": 70,
      "hit": false,
      "t": 26875,
      "d": 156.25,
      "v": 127
    },
    {
      "midi": 51,
      "hit": false,
      "t": 26875,
      "d": 468.75,
      "v": 127
    },
    {
      "midi": 60,
      "hit": false,
      "t": 27031.25,
      "d": 156.25,
      "v": 127
    },
    {
      "midi": 61,
      "hit": false,
      "t": 27187.5,
      "d": 312.5,
      "v": 127
    },
    {
      "midi": 79,
      "hit": false,
      "t": 27187.5,
      "d": 312.5,
      "v": 127
    },
    {
      "midi": 58,
      "hit": false,
      "t": 27343.75,
      "d": 156.25,
      "v": 127
    },
    {
      "midi": 68,
      "hit": false,
      "t": 27500,
      "d": 156.25,
      "v": 127
    },
    {
      "midi": 56,
      "hit": false,
      "t": 27500,
      "d": 625,
      "v": 127
    },
    {
      "midi": 60,
      "hit": false,
      "t": 27500,
      "d": 625,
      "v": 127
    },
    {
      "midi": 70,
      "hit": false,
      "t": 27656.25,
      "d": 156.25,
      "v": 127
    },
    {
      "midi": 72,
      "hit": false,
      "t": 27812.5,
      "d": 156.25,
      "v": 127
    },
    {
      "midi": 73,
      "hit": false,
      "t": 27968.75,
      "d": 156.25,
      "v": 127
    },
    {
      "midi": 72,
      "hit": false,
      "t": 28125,
      "d": 156.25,
      "v": 127
    },
    {
      "midi": 70,
      "hit": false,
      "t": 28281.25,
      "d": 156.25,
      "v": 127
    },
    {
      "midi": 63,
      "hit": false,
      "t": 28437.5,
      "d": 156.25,
      "v": 127
    },
    {
      "midi": 72,
      "hit": false,
      "t": 28593.75,
      "d": 156.25,
      "v": 127
    },
    {
      "midi": 60,
      "hit": false,
      "t": 28593.75,
      "d": 156.25,
      "v": 127
    },
    {
      "midi": 77,
      "hit": false,
      "t": 28750,
      "d": 156.25,
      "v": 127
    },
    {
      "midi": 56,
      "hit": false,
      "t": 28750,
      "d": 312.5,
      "v": 127
    },
    {
      "midi": 75,
      "hit": false,
      "t": 28906.25,
      "d": 156.25,
      "v": 127
    },
    {
      "midi": 74,
      "hit": false,
      "t": 29062.5,
      "d": 156.25,
      "v": 127
    },
    {
      "midi": 59,
      "hit": false,
      "t": 29062.5,
      "d": 312.5,
      "v": 127
    },
    {
      "midi": 77,
      "hit": false,
      "t": 29218.75,
      "d": 156.25,
      "v": 127
    },
    {
      "midi": 80,
      "hit": false,
      "t": 29375,
      "d": 156.25,
      "v": 127
    },
    {
      "midi": 53,
      "hit": false,
      "t": 29375,
      "d": 312.5,
      "v": 127
    },
    {
      "midi": 78,
      "hit": false,
      "t": 29531.25,
      "d": 156.25,
      "v": 127
    },
    {
      "midi": 77,
      "hit": false,
      "t": 29687.5,
      "d": 156.25,
      "v": 127
    },
    {
      "midi": 56,
      "hit": false,
      "t": 29687.5,
      "d": 312.5,
      "v": 127
    },
    {
      "midi": 80,
      "hit": false,
      "t": 29843.75,
      "d": 156.25,
      "v": 127
    },
    {
      "midi": 82,
      "hit": false,
      "t": 30000,
      "d": 312.5,
      "v": 127
    },
    {
      "midi": 83,
      "hit": false,
      "t": 30000,
      "d": 312.5,
      "v": 127
    },
    {
      "midi": 50,
      "hit": false,
      "t": 30000,
      "d": 312.5,
      "v": 127
    },
    {
      "midi": 82,
      "hit": false,
      "t": 30312.5,
      "d": 156.25,
      "v": 127
    },
    {
      "midi": 53,
      "hit": false,
      "t": 30312.5,
      "d": 156.25,
      "v": 127
    },
    {
      "midi": 80,
      "hit": false,
      "t": 30468.75,
      "d": 156.25,
      "v": 127
    },
    {
      "midi": 56,
      "hit": false,
      "t": 30468.75,
      "d": 156.25,
      "v": 127
    },
    {
      "midi": 78,
      "hit": false,
      "t": 30625,
      "d": 156.25,
      "v": 127
    },
    {
      "midi": 59,
      "hit": false,
      "t": 30625,
      "d": 312.5,
      "v": 127
    },
    {
      "midi": 77,
      "hit": false,
      "t": 30781.25,
      "d": 156.25,
      "v": 127
    },
    {
      "midi": 75,
      "hit": false,
      "t": 30937.5,
      "d": 156.25,
      "v": 127
    },
    {
      "midi": 53,
      "hit": false,
      "t": 30937.5,
      "d": 312.5,
      "v": 127
    },
    {
      "midi": 74,
      "hit": false,
      "t": 31093.75,
      "d": 156.25,
      "v": 127
    },
    {
      "midi": 75,
      "hit": false,
      "t": 31250,
      "d": 156.25,
      "v": 127
    },
    {
      "midi": 54,
      "hit": false,
      "t": 31250,
      "d": 312.5,
      "v": 127
    },
    {
      "midi": 58,
      "hit": false,
      "t": 31250,
      "d": 312.5,
      "v": 127
    },
    {
      "midi": 78,
      "hit": false,
      "t": 31406.25,
      "d": 156.25,
      "v": 127
    },
    {
      "midi": 77,
      "hit": false,
      "t": 31562.5,
      "d": 156.25,
      "v": 127
    },
    {
      "midi": 56,
      "hit": false,
      "t": 31562.5,
      "d": 312.5,
      "v": 127
    },
    {
      "midi": 59,
      "hit": false,
      "t": 31562.5,
      "d": 312.5,
      "v": 127
    },
    {
      "midi": 75,
      "hit": false,
      "t": 31718.75,
      "d": 156.25,
      "v": 127
    },
    {
      "midi": 74,
      "hit": false,
      "t": 31875,
      "d": 156.25,
      "v": 127
    },
    {
      "midi": 58,
      "hit": false,
      "t": 31875,
      "d": 312.5,
      "v": 127
    },
    {
      "midi": 77,
      "hit": false,
      "t": 32031.25,
      "d": 156.25,
      "v": 127
    },
    {
      "midi": 70,
      "hit": false,
      "t": 32187.5,
      "d": 156.25,
      "v": 127
    },
    {
      "midi": 46,
      "hit": false,
      "t": 32187.5,
      "d": 312.5,
      "v": 127
    },
    {
      "midi": 50,
      "hit": false,
      "t": 32187.5,
      "d": 312.5,
      "v": 127
    },
    {
      "midi": 68,
      "hit": false,
      "t": 32343.75,
      "d": 156.25,
      "v": 127
    },
    {
      "midi": 66,
      "hit": false,
      "t": 32500,
      "d": 156.25,
      "v": 127
    },
    {
      "midi": 39,
      "hit": false,
      "t": 32500,
      "d": 625,
      "v": 127
    },
    {
      "midi": 51,
      "hit": false,
      "t": 32500,
      "d": 625,
      "v": 127
    },
    {
      "midi": 65,
      "hit": false,
      "t": 32656.25,
      "d": 156.25,
      "v": 127
    },
    {
      "midi": 63,
      "hit": false,
      "t": 32812.5,
      "d": 156.25,
      "v": 127
    },
    {
      "midi": 62,
      "hit": false,
      "t": 32968.75,
      "d": 156.25,
      "v": 127
    },
    {
      "midi": 63,
      "hit": false,
      "t": 33125,
      "d": 156.25,
      "v": 127
    },
    {
      "midi": 65,
      "hit": false,
      "t": 33281.25,
      "d": 156.25,
      "v": 127
    },
    {
      "midi": 66,
      "hit": false,
      "t": 33437.5,
      "d": 156.25,
      "v": 127
    },
    {
      "midi": 51,
      "hit": false,
      "t": 33437.5,
      "d": 312.5,
      "v": 127
    },
    {
      "midi": 68,
      "hit": false,
      "t": 33593.75,
      "d": 156.25,
      "v": 127
    },
    {
      "midi": 70,
      "hit": false,
      "t": 33750,
      "d": 156.25,
      "v": 127
    },
    {
      "midi": 54,
      "hit": false,
      "t": 33750,
      "d": 156.25,
      "v": 127
    },
    {
      "midi": 68,
      "hit": false,
      "t": 33906.25,
      "d": 156.25,
      "v": 127
    },
    {
      "midi": 53,
      "hit": false,
      "t": 33906.25,
      "d": 156.25,
      "v": 127
    },
    {
      "midi": 66,
      "hit": false,
      "t": 34062.5,
      "d": 156.25,
      "v": 127
    },
    {
      "midi": 51,
      "hit": false,
      "t": 34062.5,
      "d": 156.25,
      "v": 127
    },
    {
      "midi": 68,
      "hit": false,
      "t": 34218.75,
      "d": 156.25,
      "v": 127
    },
    {
      "midi": 53,
      "hit": false,
      "t": 34218.75,
      "d": 156.25,
      "v": 127
    },
    {
      "midi": 70,
      "hit": false,
      "t": 34375,
      "d": 156.25,
      "v": 127
    },
    {
      "midi": 61,
      "hit": false,
      "t": 34375,
      "d": 312.5,
      "v": 127
    },
    {
      "midi": 68,
      "hit": false,
      "t": 34531.25,
      "d": 156.25,
      "v": 127
    },
    {
      "midi": 66,
      "hit": false,
      "t": 34687.5,
      "d": 156.25,
      "v": 127
    },
    {
      "midi": 58,
      "hit": false,
      "t": 34687.5,
      "d": 312.5,
      "v": 127
    },
    {
      "midi": 65,
      "hit": false,
      "t": 34843.75,
      "d": 156.25,
      "v": 127
    },
    {
      "midi": 66,
      "hit": false,
      "t": 35000,
      "d": 625,
      "v": 127
    },
    {
      "midi": 53,
      "hit": false,
      "t": 35000,
      "d": 312.5,
      "v": 127
    },
    {
      "midi": 51,
      "hit": false,
      "t": 35312.5,
      "d": 156.25,
      "v": 127
    },
    {
      "midi": 49,
      "hit": false,
      "t": 35468.75,
      "d": 156.25,
      "v": 127
    },
    {
      "midi": 51,
      "hit": false,
      "t": 35625,
      "d": 312.5,
      "v": 127
    },
    {
      "midi": 65,
      "hit": false,
      "t": 35781.25,
      "d": 156.25,
      "v": 127
    },
    {
      "midi": 63,
      "hit": false,
      "t": 35937.5,
      "d": 156.25,
      "v": 127
    },
    {
      "midi": 60,
      "hit": false,
      "t": 35937.5,
      "d": 312.5,
      "v": 127
    },
    {
      "midi": 66,
      "hit": false,
      "t": 36093.75,
      "d": 156.25,
      "v": 127
    },
    {
      "midi": 65,
      "hit": false,
      "t": 36250,
      "d": 156.25,
      "v": 127
    },
    {
      "midi": 49,
      "hit": false,
      "t": 36250,
      "d": 312.5,
      "v": 127
    },
    {
      "midi": 63,
      "hit": false,
      "t": 36406.25,
      "d": 156.25,
      "v": 127
    },
    {
      "midi": 61,
      "hit": false,
      "t": 36562.5,
      "d": 156.25,
      "v": 127
    },
    {
      "midi": 58,
      "hit": false,
      "t": 36562.5,
      "d": 312.5,
      "v": 127
    },
    {
      "midi": 65,
      "hit": false,
      "t": 36718.75,
      "d": 156.25,
      "v": 127
    },
    {
      "midi": 63,
      "hit": false,
      "t": 36875,
      "d": 156.25,
      "v": 127
    },
    {
      "midi": 48,
      "hit": false,
      "t": 36875,
      "d": 312.5,
      "v": 127
    },
    {
      "midi": 61,
      "hit": false,
      "t": 37031.25,
      "d": 156.25,
      "v": 127
    },
    {
      "midi": 63,
      "hit": false,
      "t": 37187.5,
      "d": 156.25,
      "v": 127
    },
    {
      "midi": 57,
      "hit": false,
      "t": 37187.5,
      "d": 312.5,
      "v": 127
    },
    {
      "midi": 60,
      "hit": false,
      "t": 37343.75,
      "d": 156.25,
      "v": 127
    },
    {
      "midi": 61,
      "hit": false,
      "t": 37500,
      "d": 156.25,
      "v": 127
    },
    {
      "midi": 46,
      "hit": false,
      "t": 37500,
      "d": 312.5,
      "v": 127
    },
    {
      "midi": 65,
      "hit": false,
      "t": 37656.25,
      "d": 156.25,
      "v": 127
    },
    {
      "midi": 66,
      "hit": false,
      "t": 37812.5,
      "d": 156.25,
      "v": 127
    },
    {
      "midi": 58,
      "hit": false,
      "t": 37812.5,
      "d": 156.25,
      "v": 127
    },
    {
      "midi": 65,
      "hit": false,
      "t": 37968.75,
      "d": 156.25,
      "v": 127
    },
    {
      "midi": 57,
      "hit": false,
      "t": 37968.75,
      "d": 156.25,
      "v": 127
    },
    {
      "midi": 73,
      "hit": false,
      "t": 38125,
      "d": 312.5,
      "v": 127
    },
    {
      "midi": 58,
      "hit": false,
      "t": 38125,
      "d": 156.25,
      "v": 127
    },
    {
      "midi": 60,
      "hit": false,
      "t": 38281.25,
      "d": 156.25,
      "v": 127
    },
    {
      "midi": 65,
      "hit": false,
      "t": 38437.5,
      "d": 312.5,
      "v": 127
    },
    {
      "midi": 61,
      "hit": false,
      "t": 38437.5,
      "d": 156.25,
      "v": 127
    },
    {
      "midi": 58,
      "hit": false,
      "t": 38593.75,
      "d": 156.25,
      "v": 127
    },
    {
      "midi": 70,
      "hit": false,
      "t": 38750,
      "d": 156.25,
      "v": 127
    },
    {
      "midi": 55,
      "hit": false,
      "t": 38750,
      "d": 156.25,
      "v": 127
    },
    {
      "midi": 72,
      "hit": false,
      "t": 38906.25,
      "d": 156.25,
      "v": 127
    },
    {
      "midi": 56,
      "hit": false,
      "t": 38906.25,
      "d": 156.25,
      "v": 127
    },
    {
      "midi": 73,
      "hit": false,
      "t": 39062.5,
      "d": 312.5,
      "v": 127
    },
    {
      "midi": 58,
      "hit": false,
      "t": 39062.5,
      "d": 156.25,
      "v": 127
    },
    {
      "midi": 55,
      "hit": false,
      "t": 39218.75,
      "d": 156.25,
      "v": 127
    },
    {
      "midi": 82,
      "hit": false,
      "t": 39375,
      "d": 156.25,
      "v": 127
    },
    {
      "midi": 51,
      "hit": false,
      "t": 39375,
      "d": 156.25,
      "v": 127
    },
    {
      "midi": 73,
      "hit": false,
      "t": 39531.25,
      "d": 156.25,
      "v": 127
    },
    {
      "midi": 53,
      "hit": false,
      "t": 39531.25,
      "d": 156.25,
      "v": 127
    },
    {
      "midi": 75,
      "hit": false,
      "t": 39687.5,
      "d": 156.25,
      "v": 127
    },
    {
      "midi": 55,
      "hit": false,
      "t": 39687.5,
      "d": 156.25,
      "v": 127
    },
    {
      "midi": 70,
      "hit": false,
      "t": 39843.75,
      "d": 156.25,
      "v": 127
    },
    {
      "midi": 51,
      "hit": false,
      "t": 39843.75,
      "d": 156.25,
      "v": 127
    },
    {
      "midi": 72,
      "hit": false,
      "t": 40000,
      "d": 156.25,
      "v": 127
    },
    {
      "midi": 44,
      "hit": false,
      "t": 40000,
      "d": 312.5,
      "v": 127
    },
    {
      "midi": 63,
      "hit": false,
      "t": 40156.25,
      "d": 156.25,
      "v": 127
    },
    {
      "midi": 65,
      "hit": false,
      "t": 40312.5,
      "d": 156.25,
      "v": 127
    },
    {
      "midi": 56,
      "hit": false,
      "t": 40312.5,
      "d": 156.25,
      "v": 127
    },
    {
      "midi": 63,
      "hit": false,
      "t": 40468.75,
      "d": 156.25,
      "v": 127
    },
    {
      "midi": 55,
      "hit": false,
      "t": 40468.75,
      "d": 156.25,
      "v": 127
    },
    {
      "midi": 72,
      "hit": false,
      "t": 40625,
      "d": 312.5,
      "v": 127
    },
    {
      "midi": 56,
      "hit": false,
      "t": 40625,
      "d": 156.25,
      "v": 127
    },
    {
      "midi": 58,
      "hit": false,
      "t": 40781.25,
      "d": 156.25,
      "v": 127
    },
    {
      "midi": 63,
      "hit": false,
      "t": 40937.5,
      "d": 312.5,
      "v": 127
    },
    {
      "midi": 60,
      "hit": false,
      "t": 40937.5,
      "d": 156.25,
      "v": 127
    },
    {
      "midi": 56,
      "hit": false,
      "t": 41093.75,
      "d": 156.25,
      "v": 127
    },
    {
      "midi": 68,
      "hit": false,
      "t": 41250,
      "d": 156.25,
      "v": 127
    },
    {
      "midi": 53,
      "hit": false,
      "t": 41250,
      "d": 156.25,
      "v": 127
    },
    {
      "midi": 70,
      "hit": false,
      "t": 41406.25,
      "d": 156.25,
      "v": 127
    },
    {
      "midi": 55,
      "hit": false,
      "t": 41406.25,
      "d": 156.25,
      "v": 127
    },
    {
      "midi": 72,
      "hit": false,
      "t": 41562.5,
      "d": 312.5,
      "v": 127
    },
    {
      "midi": 56,
      "hit": false,
      "t": 41562.5,
      "d": 156.25,
      "v": 127
    },
    {
      "midi": 53,
      "hit": false,
      "t": 41718.75,
      "d": 156.25,
      "v": 127
    },
    {
      "midi": 80,
      "hit": false,
      "t": 41875,
      "d": 156.25,
      "v": 127
    },
    {
      "midi": 49,
      "hit": false,
      "t": 41875,
      "d": 156.25,
      "v": 127
    },
    {
      "midi": 72,
      "hit": false,
      "t": 42031.25,
      "d": 156.25,
      "v": 127
    },
    {
      "midi": 51,
      "hit": false,
      "t": 42031.25,
      "d": 156.25,
      "v": 127
    },
    {
      "midi": 73,
      "hit": false,
      "t": 42187.5,
      "d": 156.25,
      "v": 127
    },
    {
      "midi": 53,
      "hit": false,
      "t": 42187.5,
      "d": 156.25,
      "v": 127
    },
    {
      "midi": 68,
      "hit": false,
      "t": 42343.75,
      "d": 156.25,
      "v": 127
    },
    {
      "midi": 49,
      "hit": false,
      "t": 42343.75,
      "d": 156.25,
      "v": 127
    },
    {
      "midi": 70,
      "hit": false,
      "t": 42500,
      "d": 156.25,
      "v": 127
    },
    {
      "midi": 43,
      "hit": false,
      "t": 42500,
      "d": 312.5,
      "v": 127
    },
    {
      "midi": 61,
      "hit": false,
      "t": 42656.25,
      "d": 156.25,
      "v": 127
    },
    {
      "midi": 63,
      "hit": false,
      "t": 42812.5,
      "d": 156.25,
      "v": 127
    },
    {
      "midi": 55,
      "hit": false,
      "t": 42812.5,
      "d": 156.25,
      "v": 127
    },
    {
      "midi": 61,
      "hit": false,
      "t": 42968.75,
      "d": 156.25,
      "v": 127
    },
    {
      "midi": 53,
      "hit": false,
      "t": 42968.75,
      "d": 156.25,
      "v": 127
    },
    {
      "midi": 70,
      "hit": false,
      "t": 43125,
      "d": 312.5,
      "v": 127
    },
    {
      "midi": 55,
      "hit": false,
      "t": 43125,
      "d": 156.25,
      "v": 127
    },
    {
      "midi": 56,
      "hit": false,
      "t": 43281.25,
      "d": 156.25,
      "v": 127
    },
    {
      "midi": 61,
      "hit": false,
      "t": 43437.5,
      "d": 312.5,
      "v": 127
    },
    {
      "midi": 58,
      "hit": false,
      "t": 43437.5,
      "d": 156.25,
      "v": 127
    },
    {
      "midi": 55,
      "hit": false,
      "t": 43593.75,
      "d": 156.25,
      "v": 127
    },
    {
      "midi": 67,
      "hit": false,
      "t": 43750,
      "d": 156.25,
      "v": 127
    },
    {
      "midi": 52,
      "hit": false,
      "t": 43750,
      "d": 156.25,
      "v": 127
    },
    {
      "midi": 68,
      "hit": false,
      "t": 43906.25,
      "d": 156.25,
      "v": 127
    },
    {
      "midi": 53,
      "hit": false,
      "t": 43906.25,
      "d": 156.25,
      "v": 127
    },
    {
      "midi": 70,
      "hit": false,
      "t": 44062.5,
      "d": 312.5,
      "v": 127
    },
    {
      "midi": 55,
      "hit": false,
      "t": 44062.5,
      "d": 156.25,
      "v": 127
    },
    {
      "midi": 52,
      "hit": false,
      "t": 44218.75,
      "d": 156.25,
      "v": 127
    },
    {
      "midi": 79,
      "hit": false,
      "t": 44375,
      "d": 156.25,
      "v": 127
    },
    {
      "midi": 48,
      "hit": false,
      "t": 44375,
      "d": 156.25,
      "v": 127
    },
    {
      "midi": 70,
      "hit": false,
      "t": 44531.25,
      "d": 156.25,
      "v": 127
    },
    {
      "midi": 50,
      "hit": false,
      "t": 44531.25,
      "d": 156.25,
      "v": 127
    },
    {
      "midi": 72,
      "hit": false,
      "t": 44687.5,
      "d": 156.25,
      "v": 127
    },
    {
      "midi": 52,
      "hit": false,
      "t": 44687.5,
      "d": 156.25,
      "v": 127
    },
    {
      "midi": 67,
      "hit": false,
      "t": 44843.75,
      "d": 156.25,
      "v": 127
    },
    {
      "midi": 48,
      "hit": false,
      "t": 44843.75,
      "d": 156.25,
      "v": 127
    },
    {
      "midi": 68,
      "hit": false,
      "t": 45000,
      "d": 156.25,
      "v": 127
    },
    {
      "midi": 41,
      "hit": false,
      "t": 45000,
      "d": 156.25,
      "v": 127
    },
    {
      "midi": 76,
      "hit": false,
      "t": 45156.25,
      "d": 156.25,
      "v": 127
    },
    {
      "midi": 43,
      "hit": false,
      "t": 45156.25,
      "d": 156.25,
      "v": 127
    },
    {
      "midi": 77,
      "hit": false,
      "t": 45312.5,
      "d": 156.25,
      "v": 127
    },
    {
      "midi": 44,
      "hit": false,
      "t": 45312.5,
      "d": 156.25,
      "v": 127
    },
    {
      "midi": 73,
      "hit": false,
      "t": 45468.75,
      "d": 156.25,
      "v": 127
    },
    {
      "midi": 46,
      "hit": false,
      "t": 45468.75,
      "d": 156.25,
      "v": 127
    },
    {
      "midi": 70,
      "hit": false,
      "t": 45625,
      "d": 312.5,
      "v": 127
    },
    {
      "midi": 48,
      "hit": false,
      "t": 45625,
      "d": 156.25,
      "v": 127
    },
    {
      "midi": 50,
      "hit": false,
      "t": 45781.25,
      "d": 156.25,
      "v": 127
    },
    {
      "midi": 60,
      "hit": false,
      "t": 45937.5,
      "d": 312.5,
      "v": 127
    },
    {
      "midi": 52,
      "hit": false,
      "t": 45937.5,
      "d": 156.25,
      "v": 127
    },
    {
      "midi": 48,
      "hit": false,
      "t": 46093.75,
      "d": 156.25,
      "v": 127
    },
    {
      "midi": 61,
      "hit": false,
      "t": 46250,
      "d": 156.25,
      "v": 127
    },
    {
      "midi": 53,
      "hit": false,
      "t": 46250,
      "d": 156.25,
      "v": 127
    },
    {
      "midi": 60,
      "hit": false,
      "t": 46406.25,
      "d": 156.25,
      "v": 127
    },
    {
      "midi": 51,
      "hit": false,
      "t": 46406.25,
      "d": 156.25,
      "v": 127
    },
    {
      "midi": 58,
      "hit": false,
      "t": 46562.5,
      "d": 156.25,
      "v": 127
    },
    {
      "midi": 49,
      "hit": false,
      "t": 46562.5,
      "d": 156.25,
      "v": 127
    },
    {
      "midi": 60,
      "hit": false,
      "t": 46718.75,
      "d": 156.25,
      "v": 127
    },
    {
      "midi": 51,
      "hit": false,
      "t": 46718.75,
      "d": 156.25,
      "v": 127
    },
    {
      "midi": 68,
      "hit": false,
      "t": 46875,
      "d": 312.5,
      "v": 127
    },
    {
      "midi": 53,
      "hit": false,
      "t": 46875,
      "d": 156.25,
      "v": 127
    },
    {
      "midi": 51,
      "hit": false,
      "t": 47031.25,
      "d": 156.25,
      "v": 127
    },
    {
      "midi": 65,
      "hit": false,
      "t": 47187.5,
      "d": 312.5,
      "v": 127
    },
    {
      "midi": 49,
      "hit": false,
      "t": 47187.5,
      "d": 156.25,
      "v": 127
    },
    {
      "midi": 48,
      "hit": false,
      "t": 47343.75,
      "d": 156.25,
      "v": 127
    },
    {
      "midi": 60,
      "hit": false,
      "t": 47500,
      "d": 625,
      "v": 127
    },
    {
      "midi": 49,
      "hit": false,
      "t": 47500,
      "d": 312.5,
      "v": 127
    },
    {
      "midi": 58,
      "hit": false,
      "t": 47812.5,
      "d": 156.25,
      "v": 127
    },
    {
      "midi": 56,
      "hit": false,
      "t": 47968.75,
      "d": 156.25,
      "v": 127
    },
    {
      "midi": 67,
      "hit": false,
      "t": 48125,
      "d": 937.5,
      "v": 127
    },
    {
      "midi": 58,
      "hit": false,
      "t": 48125,
      "d": 156.25,
      "v": 127
    },
    {
      "midi": 48,
      "hit": false,
      "t": 48281.25,
      "d": 156.25,
      "v": 127
    },
    {
      "midi": 46,
      "hit": false,
      "t": 48437.5,
      "d": 156.25,
      "v": 127
    },
    {
      "midi": 49,
      "hit": false,
      "t": 48593.75,
      "d": 156.25,
      "v": 127
    },
    {
      "midi": 56,
      "hit": false,
      "t": 48750,
      "d": 156.25,
      "v": 127
    },
    {
      "midi": 46,
      "hit": false,
      "t": 48906.25,
      "d": 156.25,
      "v": 127
    },
    {
      "midi": 65,
      "hit": false,
      "t": 49062.5,
      "d": 312.5,
      "v": 127
    },
    {
      "midi": 44,
      "hit": false,
      "t": 49062.5,
      "d": 156.25,
      "v": 127
    },
    {
      "midi": 48,
      "hit": false,
      "t": 49218.75,
      "d": 156.25,
      "v": 127
    },
    {
      "midi": 64,
      "hit": false,
      "t": 49375,
      "d": 312.5,
      "v": 127
    },
    {
      "midi": 55,
      "hit": false,
      "t": 49375,
      "d": 156.25,
      "v": 127
    },
    {
      "midi": 44,
      "hit": false,
      "t": 49531.25,
      "d": 156.25,
      "v": 127
    },
    {
      "midi": 64,
      "hit": false,
      "t": 49687.5,
      "d": 312.5,
      "v": 127
    },
    {
      "midi": 67,
      "hit": false,
      "t": 49687.5,
      "d": 312.5,
      "v": 127
    },
    {
      "midi": 46,
      "hit": false,
      "t": 49687.5,
      "d": 156.25,
      "v": 127
    },
    {
      "midi": 43,
      "hit": false,
      "t": 49843.75,
      "d": 156.25,
      "v": 127
    },
    {
      "midi": 72,
      "hit": false,
      "t": 50000,
      "d": 156.25,
      "v": 127
    },
    {
      "midi": 53,
      "hit": false,
      "t": 50000,
      "d": 312.5,
      "v": 127
    },
    {
      "midi": 70,
      "hit": false,
      "t": 50156.25,
      "d": 156.25,
      "v": 127
    },
    {
      "midi": 68,
      "hit": false,
      "t": 50312.5,
      "d": 156.25,
      "v": 127
    },
    {
      "midi": 49,
      "hit": false,
      "t": 50312.5,
      "d": 312.5,
      "v": 127
    },
    {
      "midi": 72,
      "hit": false,
      "t": 50468.75,
      "d": 156.25,
      "v": 127
    },
    {
      "midi": 70,
      "hit": false,
      "t": 50625,
      "d": 156.25,
      "v": 127
    },
    {
      "midi": 43,
      "hit": false,
      "t": 50625,
      "d": 312.5,
      "v": 127
    },
    {
      "midi": 68,
      "hit": false,
      "t": 50781.25,
      "d": 156.25,
      "v": 127
    },
    {
      "midi": 67,
      "hit": false,
      "t": 50937.5,
      "d": 156.25,
      "v": 127
    },
    {
      "midi": 48,
      "hit": false,
      "t": 50937.5,
      "d": 312.5,
      "v": 127
    },
    {
      "midi": 52,
      "hit": false,
      "t": 50937.5,
      "d": 312.5,
      "v": 127
    },
    {
      "midi": 70,
      "hit": false,
      "t": 51093.75,
      "d": 156.25,
      "v": 127
    },
    {
      "midi": 68,
      "hit": false,
      "t": 51250,
      "d": 156.25,
      "v": 127
    },
    {
      "midi": 41,
      "hit": false,
      "t": 51250,
      "d": 312.5,
      "v": 127
    },
    {
      "midi": 53,
      "hit": false,
      "t": 51250,
      "d": 312.5,
      "v": 127
    },
    {
      "midi": 65,
      "hit": false,
      "t": 51406.25,
      "d": 156.25,
      "v": 127
    },
    {
      "midi": 73,
      "hit": false,
      "t": 51562.5,
      "d": 156.25,
      "v": 127
    },
    {
      "midi": 46,
      "hit": false,
      "t": 51562.5,
      "d": 312.5,
      "v": 127
    },
    {
      "midi": 52,
      "hit": false,
      "t": 51562.5,
      "d": 312.5,
      "v": 127
    },
    {
      "midi": 70,
      "hit": false,
      "t": 51718.75,
      "d": 156.25,
      "v": 127
    },
    {
      "midi": 72,
      "hit": false,
      "t": 51875,
      "d": 156.25,
      "v": 127
    },
    {
      "midi": 44,
      "hit": false,
      "t": 51875,
      "d": 312.5,
      "v": 127
    },
    {
      "midi": 53,
      "hit": false,
      "t": 51875,
      "d": 312.5,
      "v": 127
    },
    {
      "midi": 68,
      "hit": false,
      "t": 52031.25,
      "d": 156.25,
      "v": 127
    },
    {
      "midi": 78,
      "hit": false,
      "t": 52187.5,
      "d": 156.25,
      "v": 127
    },
    {
      "midi": 49,
      "hit": false,
      "t": 52187.5,
      "d": 312.5,
      "v": 127
    },
    {
      "midi": 58,
      "hit": false,
      "t": 52187.5,
      "d": 312.5,
      "v": 127
    },
    {
      "midi": 76,
      "hit": false,
      "t": 52343.75,
      "d": 156.25,
      "v": 127
    },
    {
      "midi": 76,
      "hit": false,
      "t": 52500,
      "d": 156.25,
      "v": 127
    },
    {
      "midi": 56,
      "hit": false,
      "t": 52500,
      "d": 312.5,
      "v": 127
    },
    {
      "midi": 77,
      "hit": false,
      "t": 52656.25,
      "d": 156.25,
      "v": 127
    },
    {
      "midi": 83,
      "hit": false,
      "t": 52812.5,
      "d": 156.25,
      "v": 127
    },
    {
      "midi": 55,
      "hit": false,
      "t": 52812.5,
      "d": 156.25,
      "v": 127
    },
    {
      "midi": 84,
      "hit": false,
      "t": 52968.75,
      "d": 156.25,
      "v": 127
    },
    {
      "midi": 53,
      "hit": false,
      "t": 52968.75,
      "d": 156.25,
      "v": 127
    },
    {
      "midi": 76,
      "hit": false,
      "t": 53125,
      "d": 468.75,
      "v": 127
    },
    {
      "midi": 55,
      "hit": false,
      "t": 53125,
      "d": 312.5,
      "v": 127
    },
    {
      "midi": 58,
      "hit": false,
      "t": 53437.5,
      "d": 312.5,
      "v": 127
    },
    {
      "midi": 77,
      "hit": false,
      "t": 53593.75,
      "d": 156.25,
      "v": 127
    },
    {
      "midi": 77,
      "hit": false,
      "t": 53750,
      "d": 625,
      "v": 127
    },
    {
      "midi": 56,
      "hit": false,
      "t": 53750,
      "d": 156.25,
      "v": 127
    },
    {
      "midi": 58,
      "hit": false,
      "t": 53906.25,
      "d": 156.25,
      "v": 127
    },
    {
      "midi": 60,
      "hit": false,
      "t": 54062.5,
      "d": 156.25,
      "v": 127
    },
    {
      "midi": 56,
      "hit": false,
      "t": 54218.75,
      "d": 156.25,
      "v": 127
    },
    {
      "midi": 53,
      "hit": false,
      "t": 54375,
      "d": 156.25,
      "v": 127
    },
    {
      "midi": 54,
      "hit": false,
      "t": 54531.25,
      "d": 156.25,
      "v": 127
    },
    {
      "midi": 77,
      "hit": false,
      "t": 54687.5,
      "d": 312.5,
      "v": 127
    },
    {
      "midi": 56,
      "hit": false,
      "t": 54687.5,
      "d": 156.25,
      "v": 127
    },
    {
      "midi": 53,
      "hit": false,
      "t": 54843.75,
      "d": 156.25,
      "v": 127
    },
    {
      "midi": 71,
      "hit": false,
      "t": 55000,
      "d": 156.25,
      "v": 127
    },
    {
      "midi": 50,
      "hit": false,
      "t": 55000,
      "d": 156.25,
      "v": 127
    },
    {
      "midi": 70,
      "hit": false,
      "t": 55156.25,
      "d": 156.25,
      "v": 127
    },
    {
      "midi": 51,
      "hit": false,
      "t": 55156.25,
      "d": 156.25,
      "v": 127
    },
    {
      "midi": 68,
      "hit": false,
      "t": 55312.5,
      "d": 156.25,
      "v": 127
    },
    {
      "midi": 53,
      "hit": false,
      "t": 55312.5,
      "d": 156.25,
      "v": 127
    },
    {
      "midi": 70,
      "hit": false,
      "t": 55468.75,
      "d": 156.25,
      "v": 127
    },
    {
      "midi": 50,
      "hit": false,
      "t": 55468.75,
      "d": 156.25,
      "v": 127
    },
    {
      "midi": 77,
      "hit": false,
      "t": 55625,
      "d": 312.5,
      "v": 127
    },
    {
      "midi": 46,
      "hit": false,
      "t": 55625,
      "d": 156.25,
      "v": 127
    },
    {
      "midi": 50,
      "hit": false,
      "t": 55781.25,
      "d": 156.25,
      "v": 127
    },
    {
      "midi": 74,
      "hit": false,
      "t": 55937.5,
      "d": 312.5,
      "v": 127
    },
    {
      "midi": 53,
      "hit": false,
      "t": 55937.5,
      "d": 156.25,
      "v": 127
    },
    {
      "midi": 58,
      "hit": false,
      "t": 56093.75,
      "d": 156.25,
      "v": 127
    },
    {
      "midi": 68,
      "hit": false,
      "t": 56250,
      "d": 312.5,
      "v": 127
    },
    {
      "midi": 51,
      "hit": false,
      "t": 56250,
      "d": 156.25,
      "v": 127
    },
    {
      "midi": 54,
      "hit": false,
      "t": 56406.25,
      "d": 156.25,
      "v": 127
    },
    {
      "midi": 66,
      "hit": false,
      "t": 56562.5,
      "d": 156.25,
      "v": 127
    },
    {
      "midi": 58,
      "hit": false,
      "t": 56562.5,
      "d": 156.25,
      "v": 127
    },
    {
      "midi": 65,
      "hit": false,
      "t": 56718.75,
      "d": 156.25,
      "v": 127
    },
    {
      "midi": 62,
      "hit": false,
      "t": 56718.75,
      "d": 156.25,
      "v": 127
    },
    {
      "midi": 66,
      "hit": false,
      "t": 56875,
      "d": 156.25,
      "v": 127
    },
    {
      "midi": 65,
      "hit": false,
      "t": 57031.25,
      "d": 156.25,
      "v": 127
    },
    {
      "midi": 75,
      "hit": false,
      "t": 57187.5,
      "d": 156.25,
      "v": 127
    },
    {
      "midi": 63,
      "hit": false,
      "t": 57343.75,
      "d": 156.25,
      "v": 127
    },
    {
      "midi": 69,
      "hit": false,
      "t": 57500,
      "d": 156.25,
      "v": 127
    },
    {
      "midi": 60,
      "hit": false,
      "t": 57500,
      "d": 156.25,
      "v": 127
    },
    {
      "midi": 68,
      "hit": false,
      "t": 57656.25,
      "d": 156.25,
      "v": 127
    },
    {
      "midi": 61,
      "hit": false,
      "t": 57656.25,
      "d": 156.25,
      "v": 127
    },
    {
      "midi": 66,
      "hit": false,
      "t": 57812.5,
      "d": 156.25,
      "v": 127
    },
    {
      "midi": 63,
      "hit": false,
      "t": 57812.5,
      "d": 156.25,
      "v": 127
    },
    {
      "midi": 68,
      "hit": false,
      "t": 57968.75,
      "d": 156.25,
      "v": 127
    },
    {
      "midi": 60,
      "hit": false,
      "t": 57968.75,
      "d": 156.25,
      "v": 127
    },
    {
      "midi": 75,
      "hit": false,
      "t": 58125,
      "d": 312.5,
      "v": 127
    },
    {
      "midi": 56,
      "hit": false,
      "t": 58125,
      "d": 156.25,
      "v": 127
    },
    {
      "midi": 44,
      "hit": false,
      "t": 58281.25,
      "d": 156.25,
      "v": 127
    },
    {
      "midi": 72,
      "hit": false,
      "t": 58437.5,
      "d": 312.5,
      "v": 127
    },
    {
      "midi": 46,
      "hit": false,
      "t": 58437.5,
      "d": 156.25,
      "v": 127
    },
    {
      "midi": 48,
      "hit": false,
      "t": 58593.75,
      "d": 156.25,
      "v": 127
    },
    {
      "midi": 66,
      "hit": false,
      "t": 58750,
      "d": 312.5,
      "v": 127
    },
    {
      "midi": 49,
      "hit": false,
      "t": 58750,
      "d": 156.25,
      "v": 127
    },
    {
      "midi": 56,
      "hit": false,
      "t": 58906.25,
      "d": 156.25,
      "v": 127
    },
    {
      "midi": 65,
      "hit": false,
      "t": 59062.5,
      "d": 156.25,
      "v": 127
    },
    {
      "midi": 58,
      "hit": false,
      "t": 59062.5,
      "d": 156.25,
      "v": 127
    },
    {
      "midi": 63,
      "hit": false,
      "t": 59218.75,
      "d": 156.25,
      "v": 127
    },
    {
      "midi": 60,
      "hit": false,
      "t": 59218.75,
      "d": 156.25,
      "v": 127
    },
    {
      "midi": 65,
      "hit": false,
      "t": 59375,
      "d": 156.25,
      "v": 127
    },
    {
      "midi": 61,
      "hit": false,
      "t": 59375,
      "d": 156.25,
      "v": 127
    },
    {
      "midi": 68,
      "hit": false,
      "t": 59531.25,
      "d": 156.25,
      "v": 127
    },
    {
      "midi": 51,
      "hit": false,
      "t": 59531.25,
      "d": 156.25,
      "v": 127
    },
    {
      "midi": 73,
      "hit": false,
      "t": 59687.5,
      "d": 156.25,
      "v": 127
    },
    {
      "midi": 53,
      "hit": false,
      "t": 59687.5,
      "d": 156.25,
      "v": 127
    },
    {
      "midi": 75,
      "hit": false,
      "t": 59843.75,
      "d": 156.25,
      "v": 127
    },
    {
      "midi": 55,
      "hit": false,
      "t": 59843.75,
      "d": 156.25,
      "v": 127
    },
    {
      "midi": 77,
      "hit": false,
      "t": 60000,
      "d": 156.25,
      "v": 127
    },
    {
      "midi": 56,
      "hit": false,
      "t": 60000,
      "d": 156.25,
      "v": 127
    },
    {
      "midi": 75,
      "hit": false,
      "t": 60156.25,
      "d": 156.25,
      "v": 127
    },
    {
      "midi": 55,
      "hit": false,
      "t": 60156.25,
      "d": 156.25,
      "v": 127
    },
    {
      "midi": 73,
      "hit": false,
      "t": 60312.5,
      "d": 156.25,
      "v": 127
    },
    {
      "midi": 53,
      "hit": false,
      "t": 60312.5,
      "d": 156.25,
      "v": 127
    },
    {
      "midi": 75,
      "hit": false,
      "t": 60468.75,
      "d": 156.25,
      "v": 127
    },
    {
      "midi": 55,
      "hit": false,
      "t": 60468.75,
      "d": 156.25,
      "v": 127
    },
    {
      "midi": 84,
      "hit": false,
      "t": 60625,
      "d": 312.5,
      "v": 127
    },
    {
      "midi": 56,
      "hit": false,
      "t": 60625,
      "d": 156.25,
      "v": 127
    },
    {
      "midi": 55,
      "hit": false,
      "t": 60781.25,
      "d": 156.25,
      "v": 127
    },
    {
      "midi": 80,
      "hit": false,
      "t": 60937.5,
      "d": 312.5,
      "v": 127
    },
    {
      "midi": 53,
      "hit": false,
      "t": 60937.5,
      "d": 156.25,
      "v": 127
    },
    {
      "midi": 51,
      "hit": false,
      "t": 61093.75,
      "d": 156.25,
      "v": 127
    },
    {
      "midi": 75,
      "hit": false,
      "t": 61250,
      "d": 312.5,
      "v": 127
    },
    {
      "midi": 53,
      "hit": false,
      "t": 61250,
      "d": 625,
      "v": 127
    },
    {
      "midi": 73,
      "hit": false,
      "t": 61562.5,
      "d": 312.5,
      "v": 127
    },
    {
      "midi": 73,
      "hit": false,
      "t": 61875,
      "d": 312.5,
      "v": 127
    },
    {
      "midi": 51,
      "hit": false,
      "t": 62031.25,
      "d": 156.25,
      "v": 127
    },
    {
      "midi": 82,
      "hit": false,
      "t": 62187.5,
      "d": 312.5,
      "v": 127
    },
    {
      "midi": 49,
      "hit": false,
      "t": 62187.5,
      "d": 156.25,
      "v": 127
    },
    {
      "midi": 53,
      "hit": false,
      "t": 62343.75,
      "d": 156.25,
      "v": 127
    },
    {
      "midi": 72,
      "hit": false,
      "t": 62500,
      "d": 312.5,
      "v": 127
    },
    {
      "midi": 51,
      "hit": false,
      "t": 62500,
      "d": 156.25,
      "v": 127
    },
    {
      "midi": 49,
      "hit": false,
      "t": 62656.25,
      "d": 156.25,
      "v": 127
    },
    {
      "midi": 68,
      "hit": false,
      "t": 62812.5,
      "d": 312.5,
      "v": 127
    },
    {
      "midi": 80,
      "hit": false,
      "t": 62812.5,
      "d": 312.5,
      "v": 127
    },
    {
      "midi": 48,
      "hit": false,
      "t": 62812.5,
      "d": 156.25,
      "v": 127
    },
    {
      "midi": 51,
      "hit": false,
      "t": 62968.75,
      "d": 156.25,
      "v": 127
    },
    {
      "midi": 67,
      "hit": false,
      "t": 63125,
      "d": 312.5,
      "v": 127
    },
    {
      "midi": 70,
      "hit": false,
      "t": 63125,
      "d": 312.5,
      "v": 127
    },
    {
      "midi": 49,
      "hit": false,
      "t": 63125,
      "d": 156.25,
      "v": 127
    },
    {
      "midi": 48,
      "hit": false,
      "t": 63281.25,
      "d": 156.25,
      "v": 127
    },
    {
      "midi": 70,
      "hit": false,
      "t": 63437.5,
      "d": 312.5,
      "v": 127
    },
    {
      "midi": 79,
      "hit": false,
      "t": 63437.5,
      "d": 312.5,
      "v": 127
    },
    {
      "midi": 46,
      "hit": false,
      "t": 63437.5,
      "d": 156.25,
      "v": 127
    },
    {
      "midi": 49,
      "hit": false,
      "t": 63593.75,
      "d": 156.25,
      "v": 127
    },
    {
      "midi": 63,
      "hit": false,
      "t": 63750,
      "d": 156.25,
      "v": 127
    },
    {
      "midi": 68,
      "hit": false,
      "t": 63750,
      "d": 156.25,
      "v": 127
    },
    {
      "midi": 48,
      "hit": false,
      "t": 63750,
      "d": 312.5,
      "v": 127
    },
    {
      "midi": 63,
      "hit": false,
      "t": 63906.25,
      "d": 156.25,
      "v": 127
    },
    {
      "midi": 65,
      "hit": false,
      "t": 64062.5,
      "d": 156.25,
      "v": 127
    },
    {
      "midi": 51,
      "hit": false,
      "t": 64062.5,
      "d": 312.5,
      "v": 127
    },
    {
      "midi": 67,
      "hit": false,
      "t": 64218.75,
      "d": 156.25,
      "v": 127
    },
    {
      "midi": 68,
      "hit": false,
      "t": 64375,
      "d": 156.25,
      "v": 127
    },
    {
      "midi": 54,
      "hit": false,
      "t": 64375,
      "d": 312.5,
      "v": 127
    },
    {
      "midi": 70,
      "hit": false,
      "t": 64531.25,
      "d": 156.25,
      "v": 127
    },
    {
      "midi": 72,
      "hit": false,
      "t": 64687.5,
      "d": 156.25,
      "v": 127
    },
    {
      "midi": 56,
      "hit": false,
      "t": 64687.5,
      "d": 312.5,
      "v": 127
    },
    {
      "midi": 68,
      "hit": false,
      "t": 64843.75,
      "d": 156.25,
      "v": 127
    },
    {
      "midi": 73,
      "hit": false,
      "t": 65000,
      "d": 156.25,
      "v": 127
    },
    {
      "midi": 58,
      "hit": false,
      "t": 65000,
      "d": 156.25,
      "v": 127
    },
    {
      "midi": 72,
      "hit": false,
      "t": 65156.25,
      "d": 156.25,
      "v": 127
    },
    {
      "midi": 56,
      "hit": false,
      "t": 65156.25,
      "d": 156.25,
      "v": 127
    },
    {
      "midi": 70,
      "hit": false,
      "t": 65312.5,
      "d": 156.25,
      "v": 127
    },
    {
      "midi": 72,
      "hit": false,
      "t": 65468.75,
      "d": 156.25,
      "v": 127
    },
    {
      "midi": 56,
      "hit": false,
      "t": 65468.75,
      "d": 156.25,
      "v": 127
    },
    {
      "midi": 73,
      "hit": false,
      "t": 65625,
      "d": 156.25,
      "v": 127
    },
    {
      "midi": 53,
      "hit": false,
      "t": 65625,
      "d": 625,
      "v": 127
    },
    {
      "midi": 72,
      "hit": false,
      "t": 65781.25,
      "d": 156.25,
      "v": 127
    },
    {
      "midi": 70,
      "hit": false,
      "t": 65937.5,
      "d": 156.25,
      "v": 127
    },
    {
      "midi": 68,
      "hit": false,
      "t": 66093.75,
      "d": 156.25,
      "v": 127
    },
    {
      "midi": 70,
      "hit": false,
      "t": 66250,
      "d": 625,
      "v": 127
    },
    {
      "midi": 56,
      "hit": false,
      "t": 66250,
      "d": 312.5,
      "v": 127
    },
    {
      "midi": 54,
      "hit": false,
      "t": 66562.5,
      "d": 312.5,
      "v": 127
    },
    {
      "midi": 51,
      "hit": false,
      "t": 66875,
      "d": 625,
      "v": 127
    },
    {
      "midi": 54,
      "hit": false,
      "t": 66875,
      "d": 625,
      "v": 127
    },
    {
      "midi": 68,
      "hit": false,
      "t": 67031.25,
      "d": 156.25,
      "v": 127
    },
    {
      "midi": 66,
      "hit": false,
      "t": 67187.5,
      "d": 156.25,
      "v": 127
    },
    {
      "midi": 70,
      "hit": false,
      "t": 67343.75,
      "d": 156.25,
      "v": 127
    },
    {
      "midi": 68,
      "hit": false,
      "t": 67500,
      "d": 156.25,
      "v": 127
    },
    {
      "midi": 53,
      "hit": false,
      "t": 67500,
      "d": 312.5,
      "v": 127
    },
    {
      "midi": 66,
      "hit": false,
      "t": 67656.25,
      "d": 156.25,
      "v": 127
    },
    {
      "midi": 65,
      "hit": false,
      "t": 67812.5,
      "d": 156.25,
      "v": 127
    },
    {
      "midi": 49,
      "hit": false,
      "t": 67812.5,
      "d": 312.5,
      "v": 127
    },
    {
      "midi": 68,
      "hit": false,
      "t": 67968.75,
      "d": 156.25,
      "v": 127
    },
    {
      "midi": 66,
      "hit": false,
      "t": 68125,
      "d": 156.25,
      "v": 127
    },
    {
      "midi": 51,
      "hit": false,
      "t": 68125,
      "d": 312.5,
      "v": 127
    },
    {
      "midi": 65,
      "hit": false,
      "t": 68281.25,
      "d": 156.25,
      "v": 127
    },
    {
      "midi": 63,
      "hit": false,
      "t": 68437.5,
      "d": 156.25,
      "v": 127
    },
    {
      "midi": 44,
      "hit": false,
      "t": 68437.5,
      "d": 312.5,
      "v": 127
    },
    {
      "midi": 66,
      "hit": false,
      "t": 68593.75,
      "d": 156.25,
      "v": 127
    },
    {
      "midi": 65,
      "hit": false,
      "t": 68750,
      "d": 312.5,
      "v": 127
    },
    {
      "midi": 49,
      "hit": false,
      "t": 68750,
      "d": 156.25,
      "v": 127
    },
    {
      "midi": 51,
      "hit": false,
      "t": 68906.25,
      "d": 156.25,
      "v": 127
    },
    {
      "midi": 68,
      "hit": false,
      "t": 69062.5,
      "d": 312.5,
      "v": 127
    },
    {
      "midi": 53,
      "hit": false,
      "t": 69062.5,
      "d": 156.25,
      "v": 127
    },
    {
      "midi": 54,
      "hit": false,
      "t": 69218.75,
      "d": 156.25,
      "v": 127
    },
    {
      "midi": 73,
      "hit": false,
      "t": 69375,
      "d": 312.5,
      "v": 127
    },
    {
      "midi": 53,
      "hit": false,
      "t": 69375,
      "d": 156.25,
      "v": 127
    },
    {
      "midi": 51,
      "hit": false,
      "t": 69531.25,
      "d": 156.25,
      "v": 127
    },
    {
      "midi": 80,
      "hit": false,
      "t": 69687.5,
      "d": 156.25,
      "v": 127
    },
    {
      "midi": 49,
      "hit": false,
      "t": 69687.5,
      "d": 156.25,
      "v": 127
    },
    {
      "midi": 77,
      "hit": false,
      "t": 69843.75,
      "d": 156.25,
      "v": 127
    },
    {
      "midi": 53,
      "hit": false,
      "t": 69843.75,
      "d": 156.25,
      "v": 127
    },
    {
      "midi": 73,
      "hit": false,
      "t": 70000,
      "d": 312.5,
      "v": 127
    },
    {
      "midi": 58,
      "hit": false,
      "t": 70000,
      "d": 156.25,
      "v": 127
    },
    {
      "midi": 56,
      "hit": false,
      "t": 70156.25,
      "d": 156.25,
      "v": 127
    },
    {
      "midi": 76,
      "hit": false,
      "t": 70312.5,
      "d": 312.5,
      "v": 127
    },
    {
      "midi": 55,
      "hit": false,
      "t": 70312.5,
      "d": 156.25,
      "v": 127
    },
    {
      "midi": 58,
      "hit": false,
      "t": 70468.75,
      "d": 156.25,
      "v": 127
    },
    {
      "midi": 70,
      "hit": false,
      "t": 70625,
      "d": 312.5,
      "v": 127
    },
    {
      "midi": 61,
      "hit": false,
      "t": 70625,
      "d": 156.25,
      "v": 127
    },
    {
      "midi": 59,
      "hit": false,
      "t": 70781.25,
      "d": 156.25,
      "v": 127
    },
    {
      "midi": 73,
      "hit": false,
      "t": 70937.5,
      "d": 312.5,
      "v": 127
    },
    {
      "midi": 58,
      "hit": false,
      "t": 70937.5,
      "d": 156.25,
      "v": 127
    },
    {
      "midi": 61,
      "hit": false,
      "t": 71093.75,
      "d": 156.25,
      "v": 127
    },
    {
      "midi": 67,
      "hit": false,
      "t": 71250,
      "d": 312.5,
      "v": 127
    },
    {
      "midi": 64,
      "hit": false,
      "t": 71250,
      "d": 312.5,
      "v": 127
    },
    {
      "midi": 70,
      "hit": false,
      "t": 71562.5,
      "d": 156.25,
      "v": 127
    },
    {
      "midi": 63,
      "hit": false,
      "t": 71562.5,
      "d": 156.25,
      "v": 127
    },
    {
      "midi": 73,
      "hit": false,
      "t": 71718.75,
      "d": 156.25,
      "v": 127
    },
    {
      "midi": 61,
      "hit": false,
      "t": 71718.75,
      "d": 156.25,
      "v": 127
    },
    {
      "midi": 76,
      "hit": false,
      "t": 71875,
      "d": 312.5,
      "v": 127
    },
    {
      "midi": 59,
      "hit": false,
      "t": 71875,
      "d": 156.25,
      "v": 127
    },
    {
      "midi": 58,
      "hit": false,
      "t": 72031.25,
      "d": 156.25,
      "v": 127
    },
    {
      "midi": 73,
      "hit": false,
      "t": 72187.5,
      "d": 312.5,
      "v": 127
    },
    {
      "midi": 56,
      "hit": false,
      "t": 72187.5,
      "d": 156.25,
      "v": 127
    },
    {
      "midi": 55,
      "hit": false,
      "t": 72343.75,
      "d": 156.25,
      "v": 127
    },
    {
      "midi": 75,
      "hit": false,
      "t": 72500,
      "d": 312.5,
      "v": 127
    },
    {
      "midi": 56,
      "hit": false,
      "t": 72500,
      "d": 156.25,
      "v": 127
    },
    {
      "midi": 59,
      "hit": false,
      "t": 72656.25,
      "d": 156.25,
      "v": 127
    },
    {
      "midi": 80,
      "hit": false,
      "t": 72812.5,
      "d": 312.5,
      "v": 127
    },
    {
      "midi": 58,
      "hit": false,
      "t": 72812.5,
      "d": 156.25,
      "v": 127
    },
    {
      "midi": 56,
      "hit": false,
      "t": 72968.75,
      "d": 156.25,
      "v": 127
    },
    {
      "midi": 73,
      "hit": false,
      "t": 73125,
      "d": 312.5,
      "v": 127
    },
    {
      "midi": 55,
      "hit": false,
      "t": 73125,
      "d": 156.25,
      "v": 127
    },
    {
      "midi": 53,
      "hit": false,
      "t": 73281.25,
      "d": 156.25,
      "v": 127
    },
    {
      "midi": 79,
      "hit": false,
      "t": 73437.5,
      "d": 312.5,
      "v": 127
    },
    {
      "midi": 51,
      "hit": false,
      "t": 73437.5,
      "d": 156.25,
      "v": 127
    },
    {
      "midi": 49,
      "hit": false,
      "t": 73593.75,
      "d": 156.25,
      "v": 127
    },
    {
      "midi": 68,
      "hit": false,
      "t": 73750,
      "d": 312.5,
      "v": 127
    },
    {
      "midi": 47,
      "hit": false,
      "t": 73750,
      "d": 156.25,
      "v": 127
    },
    {
      "midi": 49,
      "hit": false,
      "t": 73906.25,
      "d": 156.25,
      "v": 127
    },
    {
      "midi": 80,
      "hit": false,
      "t": 74062.5,
      "d": 156.25,
      "v": 127
    },
    {
      "midi": 51,
      "hit": false,
      "t": 74062.5,
      "d": 156.25,
      "v": 127
    },
    {
      "midi": 79,
      "hit": false,
      "t": 74218.75,
      "d": 156.25,
      "v": 127
    },
    {
      "midi": 47,
      "hit": false,
      "t": 74218.75,
      "d": 156.25,
      "v": 127
    },
    {
      "midi": 80,
      "hit": false,
      "t": 74375,
      "d": 156.25,
      "v": 127
    },
    {
      "midi": 44,
      "hit": false,
      "t": 74375,
      "d": 312.5,
      "v": 127
    },
    {
      "midi": 82,
      "hit": false,
      "t": 74531.25,
      "d": 156.25,
      "v": 127
    },
    {
      "midi": 83,
      "hit": false,
      "t": 74687.5,
      "d": 156.25,
      "v": 127
    },
    {
      "midi": 56,
      "hit": false,
      "t": 74687.5,
      "d": 156.25,
      "v": 127
    },
    {
      "midi": 80,
      "hit": false,
      "t": 74843.75,
      "d": 156.25,
      "v": 127
    },
    {
      "midi": 53,
      "hit": false,
      "t": 74843.75,
      "d": 156.25,
      "v": 127
    },
    {
      "midi": 77,
      "hit": false,
      "t": 75000,
      "d": 156.25,
      "v": 127
    },
    {
      "midi": 49,
      "hit": false,
      "t": 75000,
      "d": 312.5,
      "v": 127
    },
    {
      "midi": 78,
      "hit": false,
      "t": 75156.25,
      "d": 156.25,
      "v": 127
    },
    {
      "midi": 80,
      "hit": false,
      "t": 75312.5,
      "d": 156.25,
      "v": 127
    },
    {
      "midi": 59,
      "hit": false,
      "t": 75312.5,
      "d": 156.25,
      "v": 127
    },
    {
      "midi": 77,
      "hit": false,
      "t": 75468.75,
      "d": 156.25,
      "v": 127
    },
    {
      "midi": 56,
      "hit": false,
      "t": 75468.75,
      "d": 156.25,
      "v": 127
    },
    {
      "midi": 73,
      "hit": false,
      "t": 75625,
      "d": 156.25,
      "v": 127
    },
    {
      "midi": 53,
      "hit": false,
      "t": 75625,
      "d": 312.5,
      "v": 127
    },
    {
      "midi": 75,
      "hit": false,
      "t": 75781.25,
      "d": 156.25,
      "v": 127
    },
    {
      "midi": 77,
      "hit": false,
      "t": 75937.5,
      "d": 156.25,
      "v": 127
    },
    {
      "midi": 49,
      "hit": false,
      "t": 75937.5,
      "d": 156.25,
      "v": 127
    },
    {
      "midi": 73,
      "hit": false,
      "t": 76093.75,
      "d": 156.25,
      "v": 127
    },
    {
      "midi": 46,
      "hit": false,
      "t": 76093.75,
      "d": 156.25,
      "v": 127
    },
    {
      "midi": 70,
      "hit": false,
      "t": 76250,
      "d": 156.25,
      "v": 127
    },
    {
      "midi": 42,
      "hit": false,
      "t": 76250,
      "d": 312.5,
      "v": 127
    },
    {
      "midi": 72,
      "hit": false,
      "t": 76406.25,
      "d": 156.25,
      "v": 127
    },
    {
      "midi": 73,
      "hit": false,
      "t": 76562.5,
      "d": 156.25,
      "v": 127
    },
    {
      "midi": 58,
      "hit": false,
      "t": 76562.5,
      "d": 156.25,
      "v": 127
    },
    {
      "midi": 70,
      "hit": false,
      "t": 76718.75,
      "d": 156.25,
      "v": 127
    },
    {
      "midi": 54,
      "hit": false,
      "t": 76718.75,
      "d": 156.25,
      "v": 127
    },
    {
      "midi": 78,
      "hit": false,
      "t": 76875,
      "d": 156.25,
      "v": 127
    },
    {
      "midi": 51,
      "hit": false,
      "t": 76875,
      "d": 312.5,
      "v": 127
    },
    {
      "midi": 80,
      "hit": false,
      "t": 77031.25,
      "d": 156.25,
      "v": 127
    },
    {
      "midi": 82,
      "hit": false,
      "t": 77187.5,
      "d": 156.25,
      "v": 127
    },
    {
      "midi": 54,
      "hit": false,
      "t": 77187.5,
      "d": 156.25,
      "v": 127
    },
    {
      "midi": 78,
      "hit": false,
      "t": 77343.75,
      "d": 156.25,
      "v": 127
    },
    {
      "midi": 51,
      "hit": false,
      "t": 77343.75,
      "d": 156.25,
      "v": 127
    },
    {
      "midi": 75,
      "hit": false,
      "t": 77500,
      "d": 156.25,
      "v": 127
    },
    {
      "midi": 48,
      "hit": false,
      "t": 77500,
      "d": 312.5,
      "v": 127
    },
    {
      "midi": 77,
      "hit": false,
      "t": 77656.25,
      "d": 156.25,
      "v": 127
    },
    {
      "midi": 78,
      "hit": false,
      "t": 77812.5,
      "d": 156.25,
      "v": 127
    },
    {
      "midi": 58,
      "hit": false,
      "t": 77812.5,
      "d": 156.25,
      "v": 127
    },
    {
      "midi": 75,
      "hit": false,
      "t": 77968.75,
      "d": 156.25,
      "v": 127
    },
    {
      "midi": 54,
      "hit": false,
      "t": 77968.75,
      "d": 156.25,
      "v": 127
    },
    {
      "midi": 72,
      "hit": false,
      "t": 78125,
      "d": 156.25,
      "v": 127
    },
    {
      "midi": 51,
      "hit": false,
      "t": 78125,
      "d": 312.5,
      "v": 127
    },
    {
      "midi": 73,
      "hit": false,
      "t": 78281.25,
      "d": 156.25,
      "v": 127
    },
    {
      "midi": 75,
      "hit": false,
      "t": 78437.5,
      "d": 156.25,
      "v": 127
    },
    {
      "midi": 48,
      "hit": false,
      "t": 78437.5,
      "d": 156.25,
      "v": 127
    },
    {
      "midi": 72,
      "hit": false,
      "t": 78593.75,
      "d": 156.25,
      "v": 127
    },
    {
      "midi": 44,
      "hit": false,
      "t": 78593.75,
      "d": 156.25,
      "v": 127
    },
    {
      "midi": 68,
      "hit": false,
      "t": 78750,
      "d": 156.25,
      "v": 127
    },
    {
      "midi": 41,
      "hit": false,
      "t": 78750,
      "d": 312.5,
      "v": 127
    },
    {
      "midi": 70,
      "hit": false,
      "t": 78906.25,
      "d": 156.25,
      "v": 127
    },
    {
      "midi": 72,
      "hit": false,
      "t": 79062.5,
      "d": 156.25,
      "v": 127
    },
    {
      "midi": 56,
      "hit": false,
      "t": 79062.5,
      "d": 156.25,
      "v": 127
    },
    {
      "midi": 68,
      "hit": false,
      "t": 79218.75,
      "d": 156.25,
      "v": 127
    },
    {
      "midi": 53,
      "hit": false,
      "t": 79218.75,
      "d": 156.25,
      "v": 127
    },
    {
      "midi": 77,
      "hit": false,
      "t": 79375,
      "d": 156.25,
      "v": 127
    },
    {
      "midi": 50,
      "hit": false,
      "t": 79375,
      "d": 312.5,
      "v": 127
    },
    {
      "midi": 78,
      "hit": false,
      "t": 79531.25,
      "d": 156.25,
      "v": 127
    },
    {
      "midi": 80,
      "hit": false,
      "t": 79687.5,
      "d": 156.25,
      "v": 127
    },
    {
      "midi": 53,
      "hit": false,
      "t": 79687.5,
      "d": 156.25,
      "v": 127
    },
    {
      "midi": 77,
      "hit": false,
      "t": 79843.75,
      "d": 156.25,
      "v": 127
    },
    {
      "midi": 50,
      "hit": false,
      "t": 79843.75,
      "d": 156.25,
      "v": 127
    },
    {
      "midi": 74,
      "hit": false,
      "t": 80000,
      "d": 156.25,
      "v": 127
    },
    {
      "midi": 46,
      "hit": false,
      "t": 80000,
      "d": 312.5,
      "v": 127
    },
    {
      "midi": 75,
      "hit": false,
      "t": 80156.25,
      "d": 156.25,
      "v": 127
    },
    {
      "midi": 77,
      "hit": false,
      "t": 80312.5,
      "d": 156.25,
      "v": 127
    },
    {
      "midi": 56,
      "hit": false,
      "t": 80312.5,
      "d": 156.25,
      "v": 127
    },
    {
      "midi": 74,
      "hit": false,
      "t": 80468.75,
      "d": 156.25,
      "v": 127
    },
    {
      "midi": 53,
      "hit": false,
      "t": 80468.75,
      "d": 156.25,
      "v": 127
    },
    {
      "midi": 70,
      "hit": false,
      "t": 80625,
      "d": 156.25,
      "v": 127
    },
    {
      "midi": 50,
      "hit": false,
      "t": 80625,
      "d": 312.5,
      "v": 127
    },
    {
      "midi": 72,
      "hit": false,
      "t": 80781.25,
      "d": 156.25,
      "v": 127
    },
    {
      "midi": 74,
      "hit": false,
      "t": 80937.5,
      "d": 156.25,
      "v": 127
    },
    {
      "midi": 46,
      "hit": false,
      "t": 80937.5,
      "d": 156.25,
      "v": 127
    },
    {
      "midi": 70,
      "hit": false,
      "t": 81093.75,
      "d": 156.25,
      "v": 127
    },
    {
      "midi": 42,
      "hit": false,
      "t": 81093.75,
      "d": 156.25,
      "v": 127
    },
    {
      "midi": 66,
      "hit": false,
      "t": 81250,
      "d": 156.25,
      "v": 127
    },
    {
      "midi": 39,
      "hit": false,
      "t": 81250,
      "d": 312.5,
      "v": 127
    },
    {
      "midi": 68,
      "hit": false,
      "t": 81406.25,
      "d": 156.25,
      "v": 127
    },
    {
      "midi": 70,
      "hit": false,
      "t": 81562.5,
      "d": 156.25,
      "v": 127
    },
    {
      "midi": 54,
      "hit": false,
      "t": 81562.5,
      "d": 156.25,
      "v": 127
    },
    {
      "midi": 66,
      "hit": false,
      "t": 81718.75,
      "d": 156.25,
      "v": 127
    },
    {
      "midi": 51,
      "hit": false,
      "t": 81718.75,
      "d": 156.25,
      "v": 127
    },
    {
      "midi": 75,
      "hit": false,
      "t": 81875,
      "d": 156.25,
      "v": 127
    },
    {
      "midi": 48,
      "hit": false,
      "t": 81875,
      "d": 312.5,
      "v": 127
    },
    {
      "midi": 77,
      "hit": false,
      "t": 82031.25,
      "d": 156.25,
      "v": 127
    },
    {
      "midi": 78,
      "hit": false,
      "t": 82187.5,
      "d": 156.25,
      "v": 127
    },
    {
      "midi": 51,
      "hit": false,
      "t": 82187.5,
      "d": 156.25,
      "v": 127
    },
    {
      "midi": 75,
      "hit": false,
      "t": 82343.75,
      "d": 156.25,
      "v": 127
    },
    {
      "midi": 48,
      "hit": false,
      "t": 82343.75,
      "d": 156.25,
      "v": 127
    },
    {
      "midi": 72,
      "hit": false,
      "t": 82500,
      "d": 156.25,
      "v": 127
    },
    {
      "midi": 44,
      "hit": false,
      "t": 82500,
      "d": 312.5,
      "v": 127
    },
    {
      "midi": 73,
      "hit": false,
      "t": 82656.25,
      "d": 156.25,
      "v": 127
    },
    {
      "midi": 75,
      "hit": false,
      "t": 82812.5,
      "d": 156.25,
      "v": 127
    },
    {
      "midi": 54,
      "hit": false,
      "t": 82812.5,
      "d": 156.25,
      "v": 127
    },
    {
      "midi": 72,
      "hit": false,
      "t": 82968.75,
      "d": 156.25,
      "v": 127
    },
    {
      "midi": 51,
      "hit": false,
      "t": 82968.75,
      "d": 156.25,
      "v": 127
    },
    {
      "midi": 68,
      "hit": false,
      "t": 83125,
      "d": 156.25,
      "v": 127
    },
    {
      "midi": 48,
      "hit": false,
      "t": 83125,
      "d": 312.5,
      "v": 127
    },
    {
      "midi": 70,
      "hit": false,
      "t": 83281.25,
      "d": 156.25,
      "v": 127
    },
    {
      "midi": 72,
      "hit": false,
      "t": 83437.5,
      "d": 156.25,
      "v": 127
    },
    {
      "midi": 44,
      "hit": false,
      "t": 83437.5,
      "d": 156.25,
      "v": 127
    },
    {
      "midi": 68,
      "hit": false,
      "t": 83593.75,
      "d": 156.25,
      "v": 127
    },
    {
      "midi": 41,
      "hit": false,
      "t": 83593.75,
      "d": 156.25,
      "v": 127
    },
    {
      "midi": 65,
      "hit": false,
      "t": 83750,
      "d": 156.25,
      "v": 127
    },
    {
      "midi": 37,
      "hit": false,
      "t": 83750,
      "d": 625,
      "v": 127
    },
    {
      "midi": 66,
      "hit": false,
      "t": 83906.25,
      "d": 156.25,
      "v": 127
    },
    {
      "midi": 68,
      "hit": false,
      "t": 84062.5,
      "d": 156.25,
      "v": 127
    },
    {
      "midi": 65,
      "hit": false,
      "t": 84218.75,
      "d": 156.25,
      "v": 127
    },
    {
      "midi": 61,
      "hit": false,
      "t": 84375,
      "d": 156.25,
      "v": 127
    },
    {
      "midi": 65,
      "hit": false,
      "t": 84531.25,
      "d": 156.25,
      "v": 127
    },
    {
      "midi": 68,
      "hit": false,
      "t": 84687.5,
      "d": 156.25,
      "v": 127
    },
    {
      "midi": 70,
      "hit": false,
      "t": 84843.75,
      "d": 156.25,
      "v": 127
    },
    {
      "midi": 71,
      "hit": false,
      "t": 85000,
      "d": 156.25,
      "v": 127
    },
    {
      "midi": 70,
      "hit": false,
      "t": 85156.25,
      "d": 156.25,
      "v": 127
    },
    {
      "midi": 68,
      "hit": false,
      "t": 85312.5,
      "d": 156.25,
      "v": 127
    },
    {
      "midi": 59,
      "hit": false,
      "t": 85312.5,
      "d": 156.25,
      "v": 127
    },
    {
      "midi": 70,
      "hit": false,
      "t": 85468.75,
      "d": 156.25,
      "v": 127
    },
    {
      "midi": 49,
      "hit": false,
      "t": 85468.75,
      "d": 156.25,
      "v": 127
    },
    {
      "midi": 78,
      "hit": false,
      "t": 85625,
      "d": 312.5,
      "v": 127
    },
    {
      "midi": 58,
      "hit": false,
      "t": 85625,
      "d": 156.25,
      "v": 127
    },
    {
      "midi": 49,
      "hit": false,
      "t": 85781.25,
      "d": 156.25,
      "v": 127
    },
    {
      "midi": 73,
      "hit": false,
      "t": 85937.5,
      "d": 312.5,
      "v": 127
    },
    {
      "midi": 56,
      "hit": false,
      "t": 85937.5,
      "d": 156.25,
      "v": 127
    },
    {
      "midi": 49,
      "hit": false,
      "t": 86093.75,
      "d": 156.25,
      "v": 127
    },
    {
      "midi": 70,
      "hit": false,
      "t": 86250,
      "d": 312.5,
      "v": 127
    },
    {
      "midi": 54,
      "hit": false,
      "t": 86250,
      "d": 156.25,
      "v": 127
    },
    {
      "midi": 49,
      "hit": false,
      "t": 86406.25,
      "d": 156.25,
      "v": 127
    },
    {
      "midi": 68,
      "hit": false,
      "t": 86562.5,
      "d": 156.25,
      "v": 127
    },
    {
      "midi": 53,
      "hit": false,
      "t": 86562.5,
      "d": 156.25,
      "v": 127
    },
    {
      "midi": 66,
      "hit": false,
      "t": 86718.75,
      "d": 156.25,
      "v": 127
    },
    {
      "midi": 51,
      "hit": false,
      "t": 86718.75,
      "d": 156.25,
      "v": 127
    },
    {
      "midi": 68,
      "hit": false,
      "t": 86875,
      "d": 156.25,
      "v": 127
    },
    {
      "midi": 53,
      "hit": false,
      "t": 86875,
      "d": 312.5,
      "v": 127
    },
    {
      "midi": 61,
      "hit": false,
      "t": 87031.25,
      "d": 156.25,
      "v": 127
    },
    {
      "midi": 65,
      "hit": false,
      "t": 87187.5,
      "d": 156.25,
      "v": 127
    },
    {
      "midi": 44,
      "hit": false,
      "t": 87187.5,
      "d": 312.5,
      "v": 127
    },
    {
      "midi": 68,
      "hit": false,
      "t": 87343.75,
      "d": 156.25,
      "v": 127
    },
    {
      "midi": 70,
      "hit": false,
      "t": 87500,
      "d": 156.25,
      "v": 127
    },
    {
      "midi": 68,
      "hit": false,
      "t": 87656.25,
      "d": 156.25,
      "v": 127
    },
    {
      "midi": 66,
      "hit": false,
      "t": 87812.5,
      "d": 156.25,
      "v": 127
    },
    {
      "midi": 58,
      "hit": false,
      "t": 87812.5,
      "d": 156.25,
      "v": 127
    },
    {
      "midi": 68,
      "hit": false,
      "t": 87968.75,
      "d": 156.25,
      "v": 127
    },
    {
      "midi": 49,
      "hit": false,
      "t": 87968.75,
      "d": 156.25,
      "v": 127
    },
    {
      "midi": 77,
      "hit": false,
      "t": 88125,
      "d": 312.5,
      "v": 127
    },
    {
      "midi": 56,
      "hit": false,
      "t": 88125,
      "d": 156.25,
      "v": 127
    },
    {
      "midi": 49,
      "hit": false,
      "t": 88281.25,
      "d": 156.25,
      "v": 127
    },
    {
      "midi": 73,
      "hit": false,
      "t": 88437.5,
      "d": 312.5,
      "v": 127
    },
    {
      "midi": 54,
      "hit": false,
      "t": 88437.5,
      "d": 156.25,
      "v": 127
    },
    {
      "midi": 49,
      "hit": false,
      "t": 88593.75,
      "d": 156.25,
      "v": 127
    },
    {
      "midi": 68,
      "hit": false,
      "t": 88750,
      "d": 312.5,
      "v": 127
    },
    {
      "midi": 53,
      "hit": false,
      "t": 88750,
      "d": 156.25,
      "v": 127
    },
    {
      "midi": 49,
      "hit": false,
      "t": 88906.25,
      "d": 156.25,
      "v": 127
    },
    {
      "midi": 66,
      "hit": false,
      "t": 89062.5,
      "d": 156.25,
      "v": 127
    },
    {
      "midi": 51,
      "hit": false,
      "t": 89062.5,
      "d": 156.25,
      "v": 127
    },
    {
      "midi": 65,
      "hit": false,
      "t": 89218.75,
      "d": 156.25,
      "v": 127
    },
    {
      "midi": 49,
      "hit": false,
      "t": 89218.75,
      "d": 156.25,
      "v": 127
    },
    {
      "midi": 66,
      "hit": false,
      "t": 89375,
      "d": 156.25,
      "v": 127
    },
    {
      "midi": 51,
      "hit": false,
      "t": 89375,
      "d": 312.5,
      "v": 127
    },
    {
      "midi": 60,
      "hit": false,
      "t": 89531.25,
      "d": 156.25,
      "v": 127
    },
    {
      "midi": 63,
      "hit": false,
      "t": 89687.5,
      "d": 156.25,
      "v": 127
    },
    {
      "midi": 44,
      "hit": false,
      "t": 89687.5,
      "d": 312.5,
      "v": 127
    },
    {
      "midi": 66,
      "hit": false,
      "t": 89843.75,
      "d": 156.25,
      "v": 127
    },
    {
      "midi": 68,
      "hit": false,
      "t": 90000,
      "d": 156.25,
      "v": 127
    },
    {
      "midi": 66,
      "hit": false,
      "t": 90156.25,
      "d": 156.25,
      "v": 127
    },
    {
      "midi": 65,
      "hit": false,
      "t": 90312.5,
      "d": 156.25,
      "v": 127
    },
    {
      "midi": 56,
      "hit": false,
      "t": 90312.5,
      "d": 156.25,
      "v": 127
    },
    {
      "midi": 66,
      "hit": false,
      "t": 90468.75,
      "d": 156.25,
      "v": 127
    },
    {
      "midi": 44,
      "hit": false,
      "t": 90468.75,
      "d": 156.25,
      "v": 127
    },
    {
      "midi": 75,
      "hit": false,
      "t": 90625,
      "d": 312.5,
      "v": 127
    },
    {
      "midi": 54,
      "hit": false,
      "t": 90625,
      "d": 156.25,
      "v": 127
    },
    {
      "midi": 44,
      "hit": false,
      "t": 90781.25,
      "d": 156.25,
      "v": 127
    },
    {
      "midi": 72,
      "hit": false,
      "t": 90937.5,
      "d": 312.5,
      "v": 127
    },
    {
      "midi": 53,
      "hit": false,
      "t": 90937.5,
      "d": 156.25,
      "v": 127
    },
    {
      "midi": 44,
      "hit": false,
      "t": 91093.75,
      "d": 156.25,
      "v": 127
    },
    {
      "midi": 66,
      "hit": false,
      "t": 91250,
      "d": 312.5,
      "v": 127
    },
    {
      "midi": 51,
      "hit": false,
      "t": 91250,
      "d": 156.25,
      "v": 127
    },
    {
      "midi": 44,
      "hit": false,
      "t": 91406.25,
      "d": 156.25,
      "v": 127
    },
    {
      "midi": 65,
      "hit": false,
      "t": 91562.5,
      "d": 156.25,
      "v": 127
    },
    {
      "midi": 49,
      "hit": false,
      "t": 91562.5,
      "d": 156.25,
      "v": 127
    },
    {
      "midi": 63,
      "hit": false,
      "t": 91718.75,
      "d": 156.25,
      "v": 127
    },
    {
      "midi": 48,
      "hit": false,
      "t": 91718.75,
      "d": 156.25,
      "v": 127
    },
    {
      "midi": 65,
      "hit": false,
      "t": 91875,
      "d": 156.25,
      "v": 127
    },
    {
      "midi": 49,
      "hit": false,
      "t": 91875,
      "d": 156.25,
      "v": 127
    },
    {
      "midi": 68,
      "hit": false,
      "t": 92031.25,
      "d": 156.25,
      "v": 127
    },
    {
      "midi": 44,
      "hit": false,
      "t": 92031.25,
      "d": 156.25,
      "v": 127
    },
    {
      "midi": 70,
      "hit": false,
      "t": 92187.5,
      "d": 156.25,
      "v": 127
    },
    {
      "midi": 53,
      "hit": false,
      "t": 92187.5,
      "d": 156.25,
      "v": 127
    },
    {
      "midi": 72,
      "hit": false,
      "t": 92343.75,
      "d": 156.25,
      "v": 127
    },
    {
      "midi": 51,
      "hit": false,
      "t": 92343.75,
      "d": 156.25,
      "v": 127
    },
    {
      "midi": 73,
      "hit": false,
      "t": 92500,
      "d": 156.25,
      "v": 127
    },
    {
      "midi": 53,
      "hit": false,
      "t": 92500,
      "d": 156.25,
      "v": 127
    },
    {
      "midi": 75,
      "hit": false,
      "t": 92656.25,
      "d": 156.25,
      "v": 127
    },
    {
      "midi": 44,
      "hit": false,
      "t": 92656.25,
      "d": 156.25,
      "v": 127
    },
    {
      "midi": 77,
      "hit": false,
      "t": 92812.5,
      "d": 156.25,
      "v": 127
    },
    {
      "midi": 56,
      "hit": false,
      "t": 92812.5,
      "d": 156.25,
      "v": 127
    },
    {
      "midi": 75,
      "hit": false,
      "t": 92968.75,
      "d": 156.25,
      "v": 127
    },
    {
      "midi": 54,
      "hit": false,
      "t": 92968.75,
      "d": 156.25,
      "v": 127
    },
    {
      "midi": 78,
      "hit": false,
      "t": 93125,
      "d": 156.25,
      "v": 127
    },
    {
      "midi": 56,
      "hit": false,
      "t": 93125,
      "d": 156.25,
      "v": 127
    },
    {
      "midi": 77,
      "hit": false,
      "t": 93281.25,
      "d": 156.25,
      "v": 127
    },
    {
      "midi": 44,
      "hit": false,
      "t": 93281.25,
      "d": 156.25,
      "v": 127
    },
    {
      "midi": 75,
      "hit": false,
      "t": 93437.5,
      "d": 156.25,
      "v": 127
    },
    {
      "midi": 58,
      "hit": false,
      "t": 93437.5,
      "d": 156.25,
      "v": 127
    },
    {
      "midi": 73,
      "hit": false,
      "t": 93593.75,
      "d": 156.25,
      "v": 127
    },
    {
      "midi": 44,
      "hit": false,
      "t": 93593.75,
      "d": 156.25,
      "v": 127
    },
    {
      "midi": 80,
      "hit": false,
      "t": 93750,
      "d": 937.5,
      "v": 127
    },
    {
      "midi": 60,
      "hit": false,
      "t": 93750,
      "d": 156.25,
      "v": 127
    },
    {
      "midi": 61,
      "hit": false,
      "t": 93906.25,
      "d": 156.25,
      "v": 127
    },
    {
      "midi": 63,
      "hit": false,
      "t": 94062.5,
      "d": 156.25,
      "v": 127
    },
    {
      "midi": 60,
      "hit": false,
      "t": 94218.75,
      "d": 156.25,
      "v": 127
    },
    {
      "midi": 56,
      "hit": false,
      "t": 94375,
      "d": 156.25,
      "v": 127
    },
    {
      "midi": 60,
      "hit": false,
      "t": 94531.25,
      "d": 156.25,
      "v": 127
    },
    {
      "midi": 63,
      "hit": false,
      "t": 94687.5,
      "d": 156.25,
      "v": 127
    },
    {
      "midi": 65,
      "hit": false,
      "t": 94843.75,
      "d": 156.25,
      "v": 127
    },
    {
      "midi": 66,
      "hit": false,
      "t": 95000,
      "d": 156.25,
      "v": 127
    },
    {
      "midi": 65,
      "hit": false,
      "t": 95156.25,
      "d": 156.25,
      "v": 127
    },
    {
      "midi": 80,
      "hit": false,
      "t": 95156.25,
      "d": 156.25,
      "v": 127
    },
    {
      "midi": 63,
      "hit": false,
      "t": 95312.5,
      "d": 156.25,
      "v": 127
    },
    {
      "midi": 78,
      "hit": false,
      "t": 95312.5,
      "d": 156.25,
      "v": 127
    },
    {
      "midi": 65,
      "hit": false,
      "t": 95468.75,
      "d": 156.25,
      "v": 127
    },
    {
      "midi": 80,
      "hit": false,
      "t": 95468.75,
      "d": 156.25,
      "v": 127
    },
    {
      "midi": 77,
      "hit": false,
      "t": 95625,
      "d": 156.25,
      "v": 127
    },
    {
      "midi": 80,
      "hit": false,
      "t": 95781.25,
      "d": 156.25,
      "v": 127
    },
    {
      "midi": 75,
      "hit": false,
      "t": 95937.5,
      "d": 156.25,
      "v": 127
    },
    {
      "midi": 80,
      "hit": false,
      "t": 96093.75,
      "d": 156.25,
      "v": 127
    },
    {
      "midi": 73,
      "hit": false,
      "t": 96250,
      "d": 156.25,
      "v": 127
    },
    {
      "midi": 80,
      "hit": false,
      "t": 96406.25,
      "d": 156.25,
      "v": 127
    },
    {
      "midi": 63,
      "hit": false,
      "t": 96562.5,
      "d": 156.25,
      "v": 127
    },
    {
      "midi": 72,
      "hit": false,
      "t": 96562.5,
      "d": 156.25,
      "v": 127
    },
    {
      "midi": 61,
      "hit": false,
      "t": 96718.75,
      "d": 156.25,
      "v": 127
    },
    {
      "midi": 70,
      "hit": false,
      "t": 96718.75,
      "d": 156.25,
      "v": 127
    },
    {
      "midi": 63,
      "hit": false,
      "t": 96875,
      "d": 156.25,
      "v": 127
    },
    {
      "midi": 72,
      "hit": false,
      "t": 96875,
      "d": 156.25,
      "v": 127
    },
    {
      "midi": 75,
      "hit": false,
      "t": 97031.25,
      "d": 156.25,
      "v": 127
    },
    {
      "midi": 56,
      "hit": false,
      "t": 97031.25,
      "d": 156.25,
      "v": 127
    },
    {
      "midi": 61,
      "hit": false,
      "t": 97187.5,
      "d": 156.25,
      "v": 127
    },
    {
      "midi": 77,
      "hit": false,
      "t": 97187.5,
      "d": 156.25,
      "v": 127
    },
    {
      "midi": 63,
      "hit": false,
      "t": 97343.75,
      "d": 156.25,
      "v": 127
    },
    {
      "midi": 78,
      "hit": false,
      "t": 97343.75,
      "d": 156.25,
      "v": 127
    },
    {
      "midi": 65,
      "hit": false,
      "t": 97500,
      "d": 156.25,
      "v": 127
    },
    {
      "midi": 80,
      "hit": false,
      "t": 97500,
      "d": 156.25,
      "v": 127
    },
    {
      "midi": 63,
      "hit": false,
      "t": 97656.25,
      "d": 156.25,
      "v": 127
    },
    {
      "midi": 78,
      "hit": false,
      "t": 97656.25,
      "d": 156.25,
      "v": 127
    },
    {
      "midi": 61,
      "hit": false,
      "t": 97812.5,
      "d": 156.25,
      "v": 127
    },
    {
      "midi": 77,
      "hit": false,
      "t": 97812.5,
      "d": 156.25,
      "v": 127
    },
    {
      "midi": 63,
      "hit": false,
      "t": 97968.75,
      "d": 156.25,
      "v": 127
    },
    {
      "midi": 80,
      "hit": false,
      "t": 97968.75,
      "d": 156.25,
      "v": 127
    },
    {
      "midi": 75,
      "hit": false,
      "t": 98125,
      "d": 156.25,
      "v": 127
    },
    {
      "midi": 80,
      "hit": false,
      "t": 98281.25,
      "d": 156.25,
      "v": 127
    },
    {
      "midi": 73,
      "hit": false,
      "t": 98437.5,
      "d": 156.25,
      "v": 127
    },
    {
      "midi": 80,
      "hit": false,
      "t": 98593.75,
      "d": 156.25,
      "v": 127
    },
    {
      "midi": 72,
      "hit": false,
      "t": 98750,
      "d": 156.25,
      "v": 127
    },
    {
      "midi": 80,
      "hit": false,
      "t": 98906.25,
      "d": 156.25,
      "v": 127
    },
    {
      "midi": 61,
      "hit": false,
      "t": 99062.5,
      "d": 156.25,
      "v": 127
    },
    {
      "midi": 70,
      "hit": false,
      "t": 99062.5,
      "d": 156.25,
      "v": 127
    },
    {
      "midi": 60,
      "hit": false,
      "t": 99218.75,
      "d": 156.25,
      "v": 127
    },
    {
      "midi": 68,
      "hit": false,
      "t": 99218.75,
      "d": 156.25,
      "v": 127
    },
    {
      "midi": 61,
      "hit": false,
      "t": 99375,
      "d": 156.25,
      "v": 127
    },
    {
      "midi": 70,
      "hit": false,
      "t": 99375,
      "d": 156.25,
      "v": 127
    },
    {
      "midi": 73,
      "hit": false,
      "t": 99531.25,
      "d": 156.25,
      "v": 127
    },
    {
      "midi": 56,
      "hit": false,
      "t": 99531.25,
      "d": 156.25,
      "v": 127
    },
    {
      "midi": 60,
      "hit": false,
      "t": 99687.5,
      "d": 156.25,
      "v": 127
    },
    {
      "midi": 75,
      "hit": false,
      "t": 99687.5,
      "d": 156.25,
      "v": 127
    },
    {
      "midi": 61,
      "hit": false,
      "t": 99843.75,
      "d": 156.25,
      "v": 127
    },
    {
      "midi": 77,
      "hit": false,
      "t": 99843.75,
      "d": 156.25,
      "v": 127
    },
    {
      "midi": 63,
      "hit": false,
      "t": 100000,
      "d": 156.25,
      "v": 127
    },
    {
      "midi": 78,
      "hit": false,
      "t": 100000,
      "d": 156.25,
      "v": 127
    },
    {
      "midi": 61,
      "hit": false,
      "t": 100156.25,
      "d": 156.25,
      "v": 127
    },
    {
      "midi": 77,
      "hit": false,
      "t": 100156.25,
      "d": 156.25,
      "v": 127
    },
    {
      "midi": 60,
      "hit": false,
      "t": 100312.5,
      "d": 156.25,
      "v": 127
    },
    {
      "midi": 75,
      "hit": false,
      "t": 100312.5,
      "d": 156.25,
      "v": 127
    },
    {
      "midi": 61,
      "hit": false,
      "t": 100468.75,
      "d": 156.25,
      "v": 127
    },
    {
      "midi": 77,
      "hit": false,
      "t": 100468.75,
      "d": 156.25,
      "v": 127
    },
    {
      "midi": 73,
      "hit": false,
      "t": 100625,
      "d": 156.25,
      "v": 127
    },
    {
      "midi": 75,
      "hit": false,
      "t": 100781.25,
      "d": 156.25,
      "v": 127
    },
    {
      "midi": 72,
      "hit": false,
      "t": 100937.5,
      "d": 156.25,
      "v": 127
    },
    {
      "midi": 75,
      "hit": false,
      "t": 101093.75,
      "d": 156.25,
      "v": 127
    },
    {
      "midi": 70,
      "hit": false,
      "t": 101250,
      "d": 156.25,
      "v": 127
    },
    {
      "midi": 61,
      "hit": false,
      "t": 101250,
      "d": 312.5,
      "v": 127
    },
    {
      "midi": 75,
      "hit": false,
      "t": 101406.25,
      "d": 156.25,
      "v": 127
    },
    {
      "midi": 68,
      "hit": false,
      "t": 101562.5,
      "d": 156.25,
      "v": 127
    },
    {
      "midi": 60,
      "hit": false,
      "t": 101562.5,
      "d": 156.25,
      "v": 127
    },
    {
      "midi": 67,
      "hit": false,
      "t": 101718.75,
      "d": 156.25,
      "v": 127
    },
    {
      "midi": 58,
      "hit": false,
      "t": 101718.75,
      "d": 156.25,
      "v": 127
    },
    {
      "midi": 68,
      "hit": false,
      "t": 101875,
      "d": 156.25,
      "v": 127
    },
    {
      "midi": 60,
      "hit": false,
      "t": 101875,
      "d": 156.25,
      "v": 127
    },
    {
      "midi": 72,
      "hit": false,
      "t": 102031.25,
      "d": 156.25,
      "v": 127
    },
    {
      "midi": 56,
      "hit": false,
      "t": 102031.25,
      "d": 156.25,
      "v": 127
    },
    {
      "midi": 73,
      "hit": false,
      "t": 102187.5,
      "d": 156.25,
      "v": 127
    },
    {
      "midi": 58,
      "hit": false,
      "t": 102187.5,
      "d": 156.25,
      "v": 127
    },
    {
      "midi": 75,
      "hit": false,
      "t": 102343.75,
      "d": 156.25,
      "v": 127
    },
    {
      "midi": 60,
      "hit": false,
      "t": 102343.75,
      "d": 156.25,
      "v": 127
    },
    {
      "midi": 77,
      "hit": false,
      "t": 102500,
      "d": 156.25,
      "v": 127
    },
    {
      "midi": 61,
      "hit": false,
      "t": 102500,
      "d": 156.25,
      "v": 127
    },
    {
      "midi": 78,
      "hit": false,
      "t": 102656.25,
      "d": 156.25,
      "v": 127
    },
    {
      "midi": 63,
      "hit": false,
      "t": 102656.25,
      "d": 156.25,
      "v": 127
    },
    {
      "midi": 80,
      "hit": false,
      "t": 102812.5,
      "d": 156.25,
      "v": 127
    },
    {
      "midi": 65,
      "hit": false,
      "t": 102812.5,
      "d": 156.25,
      "v": 127
    },
    {
      "midi": 82,
      "hit": false,
      "t": 102968.75,
      "d": 156.25,
      "v": 127
    },
    {
      "midi": 63,
      "hit": false,
      "t": 102968.75,
      "d": 156.25,
      "v": 127
    },
    {
      "midi": 72,
      "hit": false,
      "t": 103125,
      "d": 312.5,
      "v": 127
    },
    {
      "midi": 66,
      "hit": false,
      "t": 103125,
      "d": 156.25,
      "v": 127
    },
    {
      "midi": 65,
      "hit": false,
      "t": 103281.25,
      "d": 156.25,
      "v": 127
    },
    {
      "midi": 68,
      "hit": false,
      "t": 103437.5,
      "d": 312.5,
      "v": 127
    },
    {
      "midi": 63,
      "hit": false,
      "t": 103437.5,
      "d": 156.25,
      "v": 127
    },
    {
      "midi": 61,
      "hit": false,
      "t": 103593.75,
      "d": 156.25,
      "v": 127
    },
    {
      "midi": 70,
      "hit": false,
      "t": 103750,
      "d": 156.25,
      "v": 127
    },
    {
      "midi": 66,
      "hit": false,
      "t": 103750,
      "d": 312.5,
      "v": 127
    },
    {
      "midi": 68,
      "hit": false,
      "t": 103906.25,
      "d": 156.25,
      "v": 127
    },
    {
      "midi": 66,
      "hit": false,
      "t": 104062.5,
      "d": 156.25,
      "v": 127
    },
    {
      "midi": 58,
      "hit": false,
      "t": 104062.5,
      "d": 156.25,
      "v": 127
    },
    {
      "midi": 68,
      "hit": false,
      "t": 104218.75,
      "d": 156.25,
      "v": 127
    },
    {
      "midi": 60,
      "hit": false,
      "t": 104218.75,
      "d": 156.25,
      "v": 127
    },
    {
      "midi": 77,
      "hit": false,
      "t": 104375,
      "d": 312.5,
      "v": 127
    },
    {
      "midi": 61,
      "hit": false,
      "t": 104375,
      "d": 156.25,
      "v": 127
    },
    {
      "midi": 60,
      "hit": false,
      "t": 104531.25,
      "d": 156.25,
      "v": 127
    },
    {
      "midi": 73,
      "hit": false,
      "t": 104687.5,
      "d": 312.5,
      "v": 127
    },
    {
      "midi": 58,
      "hit": false,
      "t": 104687.5,
      "d": 156.25,
      "v": 127
    },
    {
      "midi": 56,
      "hit": false,
      "t": 104843.75,
      "d": 156.25,
      "v": 127
    },
    {
      "midi": 68,
      "hit": false,
      "t": 105000,
      "d": 312.5,
      "v": 127
    },
    {
      "midi": 58,
      "hit": false,
      "t": 105000,
      "d": 625,
      "v": 127
    },
    {
      "midi": 66,
      "hit": false,
      "t": 105312.5,
      "d": 156.25,
      "v": 127
    },
    {
      "midi": 65,
      "hit": false,
      "t": 105468.75,
      "d": 156.25,
      "v": 127
    },
    {
      "midi": 66,
      "hit": false,
      "t": 105625,
      "d": 312.5,
      "v": 127
    },
    {
      "midi": 56,
      "hit": false,
      "t": 105781.25,
      "d": 156.25,
      "v": 127
    },
    {
      "midi": 75,
      "hit": false,
      "t": 105937.5,
      "d": 312.5,
      "v": 127
    },
    {
      "midi": 54,
      "hit": false,
      "t": 105937.5,
      "d": 156.25,
      "v": 127
    },
    {
      "midi": 58,
      "hit": false,
      "t": 106093.75,
      "d": 156.25,
      "v": 127
    },
    {
      "midi": 65,
      "hit": false,
      "t": 106250,
      "d": 312.5,
      "v": 127
    },
    {
      "midi": 56,
      "hit": false,
      "t": 106250,
      "d": 156.25,
      "v": 127
    },
    {
      "midi": 54,
      "hit": false,
      "t": 106406.25,
      "d": 156.25,
      "v": 127
    },
    {
      "midi": 73,
      "hit": false,
      "t": 106562.5,
      "d": 312.5,
      "v": 127
    },
    {
      "midi": 53,
      "hit": false,
      "t": 106562.5,
      "d": 156.25,
      "v": 127
    },
    {
      "midi": 56,
      "hit": false,
      "t": 106718.75,
      "d": 156.25,
      "v": 127
    },
    {
      "midi": 63,
      "hit": false,
      "t": 106875,
      "d": 312.5,
      "v": 127
    },
    {
      "midi": 54,
      "hit": false,
      "t": 106875,
      "d": 156.25,
      "v": 127
    },
    {
      "midi": 53,
      "hit": false,
      "t": 107031.25,
      "d": 156.25,
      "v": 127
    },
    {
      "midi": 72,
      "hit": false,
      "t": 107187.5,
      "d": 312.5,
      "v": 127
    },
    {
      "midi": 54,
      "hit": false,
      "t": 107187.5,
      "d": 156.25,
      "v": 127
    },
    {
      "midi": 51,
      "hit": false,
      "t": 107343.75,
      "d": 156.25,
      "v": 127
    },
    {
      "midi": 61,
      "hit": false,
      "t": 107500,
      "d": 312.5,
      "v": 127
    },
    {
      "midi": 53,
      "hit": false,
      "t": 107500,
      "d": 468.75,
      "v": 127
    },
    {
      "midi": 73,
      "hit": false,
      "t": 107812.5,
      "d": 156.25,
      "v": 127
    },
    {
      "midi": 72,
      "hit": false,
      "t": 107968.75,
      "d": 156.25,
      "v": 127
    },
    {
      "midi": 56,
      "hit": false,
      "t": 107968.75,
      "d": 156.25,
      "v": 127
    },
    {
      "midi": 73,
      "hit": false,
      "t": 108125,
      "d": 156.25,
      "v": 127
    },
    {
      "midi": 58,
      "hit": false,
      "t": 108125,
      "d": 156.25,
      "v": 127
    },
    {
      "midi": 75,
      "hit": false,
      "t": 108281.25,
      "d": 156.25,
      "v": 127
    },
    {
      "midi": 60,
      "hit": false,
      "t": 108281.25,
      "d": 156.25,
      "v": 127
    },
    {
      "midi": 61,
      "hit": false,
      "t": 108437.5,
      "d": 156.25,
      "v": 127
    },
    {
      "midi": 77,
      "hit": false,
      "t": 108437.5,
      "d": 156.25,
      "v": 127
    },
    {
      "midi": 61,
      "hit": false,
      "t": 108437.5,
      "d": 937.5,
      "v": 127
    },
    {
      "midi": 63,
      "hit": false,
      "t": 108593.75,
      "d": 156.25,
      "v": 127
    },
    {
      "midi": 78,
      "hit": false,
      "t": 108593.75,
      "d": 156.25,
      "v": 127
    },
    {
      "midi": 65,
      "hit": false,
      "t": 108750,
      "d": 156.25,
      "v": 127
    },
    {
      "midi": 80,
      "hit": false,
      "t": 108750,
      "d": 156.25,
      "v": 127
    },
    {
      "midi": 63,
      "hit": false,
      "t": 108906.25,
      "d": 156.25,
      "v": 127
    },
    {
      "midi": 78,
      "hit": false,
      "t": 108906.25,
      "d": 156.25,
      "v": 127
    },
    {
      "midi": 61,
      "hit": false,
      "t": 109062.5,
      "d": 156.25,
      "v": 127
    },
    {
      "midi": 77,
      "hit": false,
      "t": 109062.5,
      "d": 156.25,
      "v": 127
    },
    {
      "midi": 63,
      "hit": false,
      "t": 109218.75,
      "d": 156.25,
      "v": 127
    },
    {
      "midi": 78,
      "hit": false,
      "t": 109218.75,
      "d": 156.25,
      "v": 127
    },
    {
      "midi": 80,
      "hit": false,
      "t": 109375,
      "d": 156.25,
      "v": 127
    },
    {
      "midi": 60,
      "hit": false,
      "t": 109375,
      "d": 1250,
      "v": 127
    },
    {
      "midi": 78,
      "hit": false,
      "t": 109531.25,
      "d": 156.25,
      "v": 127
    },
    {
      "midi": 77,
      "hit": false,
      "t": 109687.5,
      "d": 156.25,
      "v": 127
    },
    {
      "midi": 75,
      "hit": false,
      "t": 109843.75,
      "d": 156.25,
      "v": 127
    },
    {
      "midi": 77,
      "hit": false,
      "t": 110000,
      "d": 312.5,
      "v": 127
    },
    {
      "midi": 61,
      "hit": false,
      "t": 110312.5,
      "d": 156.25,
      "v": 127
    },
    {
      "midi": 60,
      "hit": false,
      "t": 110468.75,
      "d": 156.25,
      "v": 127
    },
    {
      "midi": 61,
      "hit": false,
      "t": 110625,
      "d": 156.25,
      "v": 127
    },
    {
      "midi": 58,
      "hit": false,
      "t": 110625,
      "d": 625,
      "v": 127
    },
    {
      "midi": 75,
      "hit": false,
      "t": 110781.25,
      "d": 156.25,
      "v": 127
    },
    {
      "midi": 73,
      "hit": false,
      "t": 110937.5,
      "d": 156.25,
      "v": 127
    },
    {
      "midi": 77,
      "hit": false,
      "t": 111093.75,
      "d": 156.25,
      "v": 127
    },
    {
      "midi": 75,
      "hit": false,
      "t": 111250,
      "d": 156.25,
      "v": 127
    },
    {
      "midi": 60,
      "hit": false,
      "t": 111250,
      "d": 312.5,
      "v": 127
    },
    {
      "midi": 73,
      "hit": false,
      "t": 111406.25,
      "d": 156.25,
      "v": 127
    },
    {
      "midi": 72,
      "hit": false,
      "t": 111562.5,
      "d": 156.25,
      "v": 127
    },
    {
      "midi": 56,
      "hit": false,
      "t": 111562.5,
      "d": 312.5,
      "v": 127
    },
    {
      "midi": 75,
      "hit": false,
      "t": 111718.75,
      "d": 156.25,
      "v": 127
    },
    {
      "midi": 73,
      "hit": false,
      "t": 111875,
      "d": 156.25,
      "v": 127
    },
    {
      "midi": 58,
      "hit": false,
      "t": 111875,
      "d": 312.5,
      "v": 127
    },
    {
      "midi": 72,
      "hit": false,
      "t": 112031.25,
      "d": 156.25,
      "v": 127
    },
    {
      "midi": 73,
      "hit": false,
      "t": 112187.5,
      "d": 156.25,
      "v": 127
    },
    {
      "midi": 51,
      "hit": false,
      "t": 112187.5,
      "d": 312.5,
      "v": 127
    },
    {
      "midi": 70,
      "hit": false,
      "t": 112343.75,
      "d": 156.25,
      "v": 127
    },
    {
      "midi": 72,
      "hit": false,
      "t": 112500,
      "d": 312.5,
      "v": 127
    },
    {
      "midi": 56,
      "hit": false,
      "t": 112500,
      "d": 625,
      "v": 127
    },
    {
      "midi": 75,
      "hit": false,
      "t": 112812.5,
      "d": 156.25,
      "v": 127
    },
    {
      "midi": 66,
      "hit": false,
      "t": 112968.75,
      "d": 156.25,
      "v": 127
    },
    {
      "midi": 78,
      "hit": false,
      "t": 113125,
      "d": 156.25,
      "v": 127
    },
    {
      "midi": 70,
      "hit": false,
      "t": 113281.25,
      "d": 156.25,
      "v": 127
    },
    {
      "midi": 72,
      "hit": false,
      "t": 113437.5,
      "d": 156.25,
      "v": 127
    },
    {
      "midi": 56,
      "hit": false,
      "t": 113437.5,
      "d": 312.5,
      "v": 127
    },
    {
      "midi": 68,
      "hit": false,
      "t": 113593.75,
      "d": 156.25,
      "v": 127
    },
    {
      "midi": 73,
      "hit": false,
      "t": 113750,
      "d": 156.25,
      "v": 127
    },
    {
      "midi": 58,
      "hit": false,
      "t": 113750,
      "d": 156.25,
      "v": 127
    },
    {
      "midi": 72,
      "hit": false,
      "t": 113906.25,
      "d": 156.25,
      "v": 127
    },
    {
      "midi": 56,
      "hit": false,
      "t": 113906.25,
      "d": 156.25,
      "v": 127
    },
    {
      "midi": 70,
      "hit": false,
      "t": 114062.5,
      "d": 156.25,
      "v": 127
    },
    {
      "midi": 54,
      "hit": false,
      "t": 114062.5,
      "d": 156.25,
      "v": 127
    },
    {
      "midi": 72,
      "hit": false,
      "t": 114218.75,
      "d": 156.25,
      "v": 127
    },
    {
      "midi": 56,
      "hit": false,
      "t": 114218.75,
      "d": 156.25,
      "v": 127
    },
    {
      "midi": 77,
      "hit": false,
      "t": 114375,
      "d": 156.25,
      "v": 127
    },
    {
      "midi": 65,
      "hit": false,
      "t": 114375,
      "d": 312.5,
      "v": 127
    },
    {
      "midi": 72,
      "hit": false,
      "t": 114531.25,
      "d": 156.25,
      "v": 127
    },
    {
      "midi": 70,
      "hit": false,
      "t": 114687.5,
      "d": 156.25,
      "v": 127
    },
    {
      "midi": 61,
      "hit": false,
      "t": 114687.5,
      "d": 312.5,
      "v": 127
    },
    {
      "midi": 68,
      "hit": false,
      "t": 114843.75,
      "d": 156.25,
      "v": 127
    },
    {
      "midi": 70,
      "hit": false,
      "t": 115000,
      "d": 625,
      "v": 127
    },
    {
      "midi": 56,
      "hit": false,
      "t": 115000,
      "d": 312.5,
      "v": 127
    },
    {
      "midi": 54,
      "hit": false,
      "t": 115312.5,
      "d": 156.25,
      "v": 127
    },
    {
      "midi": 53,
      "hit": false,
      "t": 115468.75,
      "d": 156.25,
      "v": 127
    },
    {
      "midi": 75,
      "hit": false,
      "t": 115625,
      "d": 156.25,
      "v": 127
    },
    {
      "midi": 54,
      "hit": false,
      "t": 115625,
      "d": 312.5,
      "v": 127
    },
    {
      "midi": 68,
      "hit": false,
      "t": 115781.25,
      "d": 156.25,
      "v": 127
    },
    {
      "midi": 66,
      "hit": false,
      "t": 115937.5,
      "d": 156.25,
      "v": 127
    },
    {
      "midi": 63,
      "hit": false,
      "t": 115937.5,
      "d": 312.5,
      "v": 127
    },
    {
      "midi": 70,
      "hit": false,
      "t": 116093.75,
      "d": 156.25,
      "v": 127
    },
    {
      "midi": 68,
      "hit": false,
      "t": 116250,
      "d": 156.25,
      "v": 127
    },
    {
      "midi": 53,
      "hit": false,
      "t": 116250,
      "d": 312.5,
      "v": 127
    },
    {
      "midi": 66,
      "hit": false,
      "t": 116406.25,
      "d": 156.25,
      "v": 127
    },
    {
      "midi": 73,
      "hit": false,
      "t": 116562.5,
      "d": 156.25,
      "v": 127
    },
    {
      "midi": 61,
      "hit": false,
      "t": 116562.5,
      "d": 312.5,
      "v": 127
    },
    {
      "midi": 68,
      "hit": false,
      "t": 116718.75,
      "d": 156.25,
      "v": 127
    },
    {
      "midi": 72,
      "hit": false,
      "t": 116875,
      "d": 156.25,
      "v": 127
    },
    {
      "midi": 51,
      "hit": false,
      "t": 116875,
      "d": 312.5,
      "v": 127
    },
    {
      "midi": 65,
      "hit": false,
      "t": 117031.25,
      "d": 156.25,
      "v": 127
    },
    {
      "midi": 75,
      "hit": false,
      "t": 117187.5,
      "d": 156.25,
      "v": 127
    },
    {
      "midi": 60,
      "hit": false,
      "t": 117187.5,
      "d": 312.5,
      "v": 127
    },
    {
      "midi": 63,
      "hit": false,
      "t": 117343.75,
      "d": 156.25,
      "v": 127
    },
    {
      "midi": 65,
      "hit": false,
      "t": 117500,
      "d": 312.5,
      "v": 127
    },
    {
      "midi": 49,
      "hit": false,
      "t": 117500,
      "d": 156.25,
      "v": 127
    },
    {
      "midi": 44,
      "hit": false,
      "t": 117656.25,
      "d": 156.25,
      "v": 127
    },
    {
      "midi": 68,
      "hit": false,
      "t": 117812.5,
      "d": 312.5,
      "v": 127
    },
    {
      "midi": 49,
      "hit": false,
      "t": 117812.5,
      "d": 156.25,
      "v": 127
    },
    {
      "midi": 51,
      "hit": false,
      "t": 117968.75,
      "d": 156.25,
      "v": 127
    },
    {
      "midi": 73,
      "hit": false,
      "t": 118125,
      "d": 312.5,
      "v": 127
    },
    {
      "midi": 53,
      "hit": false,
      "t": 118125,
      "d": 156.25,
      "v": 127
    },
    {
      "midi": 54,
      "hit": false,
      "t": 118281.25,
      "d": 156.25,
      "v": 127
    },
    {
      "midi": 71,
      "hit": false,
      "t": 118437.5,
      "d": 312.5,
      "v": 127
    },
    {
      "midi": 56,
      "hit": false,
      "t": 118437.5,
      "d": 156.25,
      "v": 127
    },
    {
      "midi": 53,
      "hit": false,
      "t": 118593.75,
      "d": 156.25,
      "v": 127
    },
    {
      "midi": 70,
      "hit": false,
      "t": 118750,
      "d": 312.5,
      "v": 127
    },
    {
      "midi": 54,
      "hit": false,
      "t": 118750,
      "d": 156.25,
      "v": 127
    },
    {
      "midi": 42,
      "hit": false,
      "t": 118906.25,
      "d": 156.25,
      "v": 127
    },
    {
      "midi": 61,
      "hit": false,
      "t": 119062.5,
      "d": 312.5,
      "v": 127
    },
    {
      "midi": 54,
      "hit": false,
      "t": 119062.5,
      "d": 156.25,
      "v": 127
    },
    {
      "midi": 53,
      "hit": false,
      "t": 119218.75,
      "d": 156.25,
      "v": 127
    },
    {
      "midi": 66,
      "hit": false,
      "t": 119375,
      "d": 312.5,
      "v": 127
    },
    {
      "midi": 54,
      "hit": false,
      "t": 119375,
      "d": 156.25,
      "v": 127
    },
    {
      "midi": 56,
      "hit": false,
      "t": 119531.25,
      "d": 156.25,
      "v": 127
    },
    {
      "midi": 65,
      "hit": false,
      "t": 119687.5,
      "d": 312.5,
      "v": 127
    },
    {
      "midi": 58,
      "hit": false,
      "t": 119687.5,
      "d": 156.25,
      "v": 127
    },
    {
      "midi": 54,
      "hit": false,
      "t": 119843.75,
      "d": 156.25,
      "v": 127
    },
    {
      "midi": 66,
      "hit": false,
      "t": 120000,
      "d": 312.5,
      "v": 127
    },
    {
      "midi": 51,
      "hit": false,
      "t": 120000,
      "d": 156.25,
      "v": 127
    },
    {
      "midi": 53,
      "hit": false,
      "t": 120156.25,
      "d": 156.25,
      "v": 127
    },
    {
      "midi": 70,
      "hit": false,
      "t": 120312.5,
      "d": 312.5,
      "v": 127
    },
    {
      "midi": 54,
      "hit": false,
      "t": 120312.5,
      "d": 156.25,
      "v": 127
    },
    {
      "midi": 51,
      "hit": false,
      "t": 120468.75,
      "d": 156.25,
      "v": 127
    },
    {
      "midi": 63,
      "hit": false,
      "t": 120625,
      "d": 312.5,
      "v": 127
    },
    {
      "midi": 48,
      "hit": false,
      "t": 120625,
      "d": 156.25,
      "v": 127
    },
    {
      "midi": 49,
      "hit": false,
      "t": 120781.25,
      "d": 156.25,
      "v": 127
    },
    {
      "midi": 66,
      "hit": false,
      "t": 120937.5,
      "d": 312.5,
      "v": 127
    },
    {
      "midi": 51,
      "hit": false,
      "t": 120937.5,
      "d": 156.25,
      "v": 127
    },
    {
      "midi": 48,
      "hit": false,
      "t": 121093.75,
      "d": 156.25,
      "v": 127
    },
    {
      "midi": 56,
      "hit": false,
      "t": 121250,
      "d": 312.5,
      "v": 127
    },
    {
      "midi": 63,
      "hit": false,
      "t": 121562.5,
      "d": 312.5,
      "v": 127
    },
    {
      "midi": 53,
      "hit": false,
      "t": 121562.5,
      "d": 156.25,
      "v": 127
    },
    {
      "midi": 51,
      "hit": false,
      "t": 121718.75,
      "d": 156.25,
      "v": 127
    },
    {
      "midi": 68,
      "hit": false,
      "t": 121875,
      "d": 625,
      "v": 127
    },
    {
      "midi": 53,
      "hit": false,
      "t": 121875,
      "d": 156.25,
      "v": 127
    },
    {
      "midi": 54,
      "hit": false,
      "t": 122031.25,
      "d": 156.25,
      "v": 127
    },
    {
      "midi": 60,
      "hit": false,
      "t": 122187.5,
      "d": 156.25,
      "v": 127
    },
    {
      "midi": 53,
      "hit": false,
      "t": 122343.75,
      "d": 156.25,
      "v": 127
    },
    {
      "midi": 65,
      "hit": false,
      "t": 122500,
      "d": 312.5,
      "v": 127
    },
    {
      "midi": 50,
      "hit": false,
      "t": 122500,
      "d": 156.25,
      "v": 127
    },
    {
      "midi": 51,
      "hit": false,
      "t": 122656.25,
      "d": 156.25,
      "v": 127
    },
    {
      "midi": 68,
      "hit": false,
      "t": 122812.5,
      "d": 312.5,
      "v": 127
    },
    {
      "midi": 53,
      "hit": false,
      "t": 122812.5,
      "d": 156.25,
      "v": 127
    },
    {
      "midi": 50,
      "hit": false,
      "t": 122968.75,
      "d": 156.25,
      "v": 127
    },
    {
      "midi": 62,
      "hit": false,
      "t": 123125,
      "d": 312.5,
      "v": 127
    },
    {
      "midi": 46,
      "hit": false,
      "t": 123125,
      "d": 156.25,
      "v": 127
    },
    {
      "midi": 48,
      "hit": false,
      "t": 123281.25,
      "d": 156.25,
      "v": 127
    },
    {
      "midi": 65,
      "hit": false,
      "t": 123437.5,
      "d": 312.5,
      "v": 127
    },
    {
      "midi": 50,
      "hit": false,
      "t": 123437.5,
      "d": 156.25,
      "v": 127
    },
    {
      "midi": 46,
      "hit": false,
      "t": 123593.75,
      "d": 156.25,
      "v": 127
    },
    {
      "midi": 54,
      "hit": false,
      "t": 123750,
      "d": 312.5,
      "v": 127
    },
    {
      "midi": 58,
      "hit": false,
      "t": 124062.5,
      "d": 312.5,
      "v": 127
    },
    {
      "midi": 51,
      "hit": false,
      "t": 124062.5,
      "d": 156.25,
      "v": 127
    },
    {
      "midi": 50,
      "hit": false,
      "t": 124218.75,
      "d": 156.25,
      "v": 127
    },
    {
      "midi": 66,
      "hit": false,
      "t": 124375,
      "d": 625,
      "v": 127
    },
    {
      "midi": 51,
      "hit": false,
      "t": 124375,
      "d": 156.25,
      "v": 127
    },
    {
      "midi": 53,
      "hit": false,
      "t": 124531.25,
      "d": 156.25,
      "v": 127
    },
    {
      "midi": 58,
      "hit": false,
      "t": 124687.5,
      "d": 156.25,
      "v": 127
    },
    {
      "midi": 51,
      "hit": false,
      "t": 124843.75,
      "d": 156.25,
      "v": 127
    },
    {
      "midi": 63,
      "hit": false,
      "t": 125000,
      "d": 156.25,
      "v": 127
    },
    {
      "midi": 48,
      "hit": false,
      "t": 125000,
      "d": 156.25,
      "v": 127
    },
    {
      "midi": 65,
      "hit": false,
      "t": 125156.25,
      "d": 156.25,
      "v": 127
    },
    {
      "midi": 49,
      "hit": false,
      "t": 125156.25,
      "d": 156.25,
      "v": 127
    },
    {
      "midi": 66,
      "hit": false,
      "t": 125312.5,
      "d": 312.5,
      "v": 127
    },
    {
      "midi": 51,
      "hit": false,
      "t": 125312.5,
      "d": 156.25,
      "v": 127
    },
    {
      "midi": 48,
      "hit": false,
      "t": 125468.75,
      "d": 156.25,
      "v": 127
    },
    {
      "midi": 75,
      "hit": false,
      "t": 125625,
      "d": 156.25,
      "v": 127
    },
    {
      "midi": 44,
      "hit": false,
      "t": 125625,
      "d": 156.25,
      "v": 127
    },
    {
      "midi": 66,
      "hit": false,
      "t": 125781.25,
      "d": 156.25,
      "v": 127
    },
    {
      "midi": 46,
      "hit": false,
      "t": 125781.25,
      "d": 156.25,
      "v": 127
    },
    {
      "midi": 68,
      "hit": false,
      "t": 125937.5,
      "d": 156.25,
      "v": 127
    },
    {
      "midi": 48,
      "hit": false,
      "t": 125937.5,
      "d": 156.25,
      "v": 127
    },
    {
      "midi": 63,
      "hit": false,
      "t": 126093.75,
      "d": 156.25,
      "v": 127
    },
    {
      "midi": 44,
      "hit": false,
      "t": 126093.75,
      "d": 156.25,
      "v": 127
    },
    {
      "midi": 65,
      "hit": false,
      "t": 126250,
      "d": 156.25,
      "v": 127
    },
    {
      "midi": 37,
      "hit": false,
      "t": 126250,
      "d": 312.5,
      "v": 127
    },
    {
      "midi": 73,
      "hit": false,
      "t": 126406.25,
      "d": 156.25,
      "v": 127
    },
    {
      "midi": 72,
      "hit": false,
      "t": 126562.5,
      "d": 156.25,
      "v": 127
    },
    {
      "midi": 49,
      "hit": false,
      "t": 126562.5,
      "d": 156.25,
      "v": 127
    },
    {
      "midi": 75,
      "hit": false,
      "t": 126718.75,
      "d": 156.25,
      "v": 127
    },
    {
      "midi": 51,
      "hit": false,
      "t": 126718.75,
      "d": 156.25,
      "v": 127
    },
    {
      "midi": 73,
      "hit": false,
      "t": 126875,
      "d": 156.25,
      "v": 127
    },
    {
      "midi": 53,
      "hit": false,
      "t": 126875,
      "d": 312.5,
      "v": 127
    },
    {
      "midi": 68,
      "hit": false,
      "t": 127031.25,
      "d": 156.25,
      "v": 127
    },
    {
      "midi": 70,
      "hit": false,
      "t": 127187.5,
      "d": 156.25,
      "v": 127
    },
    {
      "midi": 49,
      "hit": false,
      "t": 127187.5,
      "d": 312.5,
      "v": 127
    },
    {
      "midi": 61,
      "hit": false,
      "t": 127187.5,
      "d": 312.5,
      "v": 127
    },
    {
      "midi": 71,
      "hit": false,
      "t": 127343.75,
      "d": 156.25,
      "v": 127
    },
    {
      "midi": 70,
      "hit": false,
      "t": 127500,
      "d": 156.25,
      "v": 127
    },
    {
      "midi": 54,
      "hit": false,
      "t": 127500,
      "d": 156.25,
      "v": 127
    },
    {
      "midi": 68,
      "hit": false,
      "t": 127656.25,
      "d": 156.25,
      "v": 127
    },
    {
      "midi": 60,
      "hit": false,
      "t": 127656.25,
      "d": 156.25,
      "v": 127
    },
    {
      "midi": 66,
      "hit": false,
      "t": 127812.5,
      "d": 156.25,
      "v": 127
    },
    {
      "midi": 58,
      "hit": false,
      "t": 127812.5,
      "d": 156.25,
      "v": 127
    },
    {
      "midi": 68,
      "hit": false,
      "t": 127968.75,
      "d": 156.25,
      "v": 127
    },
    {
      "midi": 60,
      "hit": false,
      "t": 127968.75,
      "d": 156.25,
      "v": 127
    },
    {
      "midi": 77,
      "hit": false,
      "t": 128125,
      "d": 312.5,
      "v": 127
    },
    {
      "midi": 61,
      "hit": false,
      "t": 128125,
      "d": 156.25,
      "v": 127
    },
    {
      "midi": 60,
      "hit": false,
      "t": 128281.25,
      "d": 156.25,
      "v": 127
    },
    {
      "midi": 73,
      "hit": false,
      "t": 128437.5,
      "d": 312.5,
      "v": 127
    },
    {
      "midi": 58,
      "hit": false,
      "t": 128437.5,
      "d": 156.25,
      "v": 127
    },
    {
      "midi": 56,
      "hit": false,
      "t": 128593.75,
      "d": 156.25,
      "v": 127
    },
    {
      "midi": 68,
      "hit": false,
      "t": 128750,
      "d": 312.5,
      "v": 127
    },
    {
      "midi": 58,
      "hit": false,
      "t": 128750,
      "d": 312.5,
      "v": 127
    },
    {
      "midi": 66,
      "hit": false,
      "t": 129062.5,
      "d": 156.25,
      "v": 127
    },
    {
      "midi": 49,
      "hit": false,
      "t": 129062.5,
      "d": 312.5,
      "v": 127
    },
    {
      "midi": 65,
      "hit": false,
      "t": 129218.75,
      "d": 156.25,
      "v": 127
    },
    {
      "midi": 66,
      "hit": false,
      "t": 129375,
      "d": 312.5,
      "v": 127
    },
    {
      "midi": 48,
      "hit": false,
      "t": 129375,
      "d": 156.25,
      "v": 127
    },
    {
      "midi": 56,
      "hit": false,
      "t": 129531.25,
      "d": 156.25,
      "v": 127
    },
    {
      "midi": 75,
      "hit": false,
      "t": 129687.5,
      "d": 312.5,
      "v": 127
    },
    {
      "midi": 54,
      "hit": false,
      "t": 129687.5,
      "d": 156.25,
      "v": 127
    },
    {
      "midi": 58,
      "hit": false,
      "t": 129843.75,
      "d": 156.25,
      "v": 127
    },
    {
      "midi": 65,
      "hit": false,
      "t": 130000,
      "d": 312.5,
      "v": 127
    },
    {
      "midi": 56,
      "hit": false,
      "t": 130000,
      "d": 156.25,
      "v": 127
    },
    {
      "midi": 54,
      "hit": false,
      "t": 130156.25,
      "d": 156.25,
      "v": 127
    },
    {
      "midi": 73,
      "hit": false,
      "t": 130312.5,
      "d": 312.5,
      "v": 127
    },
    {
      "midi": 53,
      "hit": false,
      "t": 130312.5,
      "d": 156.25,
      "v": 127
    },
    {
      "midi": 56,
      "hit": false,
      "t": 130468.75,
      "d": 156.25,
      "v": 127
    },
    {
      "midi": 63,
      "hit": false,
      "t": 130625,
      "d": 312.5,
      "v": 127
    },
    {
      "midi": 54,
      "hit": false,
      "t": 130625,
      "d": 156.25,
      "v": 127
    },
    {
      "midi": 53,
      "hit": false,
      "t": 130781.25,
      "d": 156.25,
      "v": 127
    },
    {
      "midi": 72,
      "hit": false,
      "t": 130937.5,
      "d": 312.5,
      "v": 127
    },
    {
      "midi": 51,
      "hit": false,
      "t": 130937.5,
      "d": 156.25,
      "v": 127
    },
    {
      "midi": 54,
      "hit": false,
      "t": 131093.75,
      "d": 156.25,
      "v": 127
    },
    {
      "midi": 61,
      "hit": false,
      "t": 131250,
      "d": 156.25,
      "v": 127
    },
    {
      "midi": 53,
      "hit": false,
      "t": 131250,
      "d": 156.25,
      "v": 127
    },
    {
      "midi": 65,
      "hit": false,
      "t": 131406.25,
      "d": 156.25,
      "v": 127
    },
    {
      "midi": 56,
      "hit": false,
      "t": 131406.25,
      "d": 156.25,
      "v": 127
    },
    {
      "midi": 66,
      "hit": false,
      "t": 131562.5,
      "d": 156.25,
      "v": 127
    },
    {
      "midi": 58,
      "hit": false,
      "t": 131562.5,
      "d": 156.25,
      "v": 127
    },
    {
      "midi": 68,
      "hit": false,
      "t": 131718.75,
      "d": 156.25,
      "v": 127
    },
    {
      "midi": 60,
      "hit": false,
      "t": 131718.75,
      "d": 156.25,
      "v": 127
    },
    {
      "midi": 70,
      "hit": false,
      "t": 131875,
      "d": 156.25,
      "v": 127
    },
    {
      "midi": 61,
      "hit": false,
      "t": 131875,
      "d": 156.25,
      "v": 127
    },
    {
      "midi": 72,
      "hit": false,
      "t": 132031.25,
      "d": 156.25,
      "v": 127
    },
    {
      "midi": 60,
      "hit": false,
      "t": 132031.25,
      "d": 156.25,
      "v": 127
    },
    {
      "midi": 73,
      "hit": false,
      "t": 132187.5,
      "d": 156.25,
      "v": 127
    },
    {
      "midi": 58,
      "hit": false,
      "t": 132187.5,
      "d": 156.25,
      "v": 127
    },
    {
      "midi": 75,
      "hit": false,
      "t": 132343.75,
      "d": 156.25,
      "v": 127
    },
    {
      "midi": 56,
      "hit": false,
      "t": 132343.75,
      "d": 156.25,
      "v": 127
    },
    {
      "midi": 76,
      "hit": false,
      "t": 132500,
      "d": 156.25,
      "v": 127
    },
    {
      "midi": 55,
      "hit": false,
      "t": 132500,
      "d": 156.25,
      "v": 127
    },
    {
      "midi": 75,
      "hit": false,
      "t": 132656.25,
      "d": 156.25,
      "v": 127
    },
    {
      "midi": 56,
      "hit": false,
      "t": 132656.25,
      "d": 156.25,
      "v": 127
    },
    {
      "midi": 73,
      "hit": false,
      "t": 132812.5,
      "d": 156.25,
      "v": 127
    },
    {
      "midi": 58,
      "hit": false,
      "t": 132812.5,
      "d": 156.25,
      "v": 127
    },
    {
      "midi": 75,
      "hit": false,
      "t": 132968.75,
      "d": 156.25,
      "v": 127
    },
    {
      "midi": 54,
      "hit": false,
      "t": 132968.75,
      "d": 156.25,
      "v": 127
    },
    {
      "midi": 76,
      "hit": false,
      "t": 133125,
      "d": 156.25,
      "v": 127
    },
    {
      "midi": 51,
      "hit": false,
      "t": 133125,
      "d": 156.25,
      "v": 127
    },
    {
      "midi": 79,
      "hit": false,
      "t": 133281.25,
      "d": 156.25,
      "v": 127
    },
    {
      "midi": 49,
      "hit": false,
      "t": 133281.25,
      "d": 156.25,
      "v": 127
    },
    {
      "midi": 80,
      "hit": false,
      "t": 133437.5,
      "d": 156.25,
      "v": 127
    },
    {
      "midi": 48,
      "hit": false,
      "t": 133437.5,
      "d": 156.25,
      "v": 127
    },
    {
      "midi": 82,
      "hit": false,
      "t": 133593.75,
      "d": 156.25,
      "v": 127
    },
    {
      "midi": 46,
      "hit": false,
      "t": 133593.75,
      "d": 156.25,
      "v": 127
    },
    {
      "midi": 73,
      "hit": false,
      "t": 133750,
      "d": 156.25,
      "v": 127
    },
    {
      "midi": 44,
      "hit": false,
      "t": 133750,
      "d": 156.25,
      "v": 127
    },
    {
      "midi": 72,
      "hit": false,
      "t": 133906.25,
      "d": 156.25,
      "v": 127
    },
    {
      "midi": 51,
      "hit": false,
      "t": 133906.25,
      "d": 156.25,
      "v": 127
    },
    {
      "midi": 70,
      "hit": false,
      "t": 134062.5,
      "d": 156.25,
      "v": 127
    },
    {
      "midi": 53,
      "hit": false,
      "t": 134062.5,
      "d": 156.25,
      "v": 127
    },
    {
      "midi": 68,
      "hit": false,
      "t": 134218.75,
      "d": 156.25,
      "v": 127
    },
    {
      "midi": 54,
      "hit": false,
      "t": 134218.75,
      "d": 156.25,
      "v": 127
    },
    {
      "midi": 75,
      "hit": false,
      "t": 134375,
      "d": 312.5,
      "v": 127
    },
    {
      "midi": 56,
      "hit": false,
      "t": 134375,
      "d": 156.25,
      "v": 127
    },
    {
      "midi": 58,
      "hit": false,
      "t": 134531.25,
      "d": 156.25,
      "v": 127
    },
    {
      "midi": 66,
      "hit": false,
      "t": 134687.5,
      "d": 312.5,
      "v": 127
    },
    {
      "midi": 60,
      "hit": false,
      "t": 134687.5,
      "d": 156.25,
      "v": 127
    },
    {
      "midi": 56,
      "hit": false,
      "t": 134843.75,
      "d": 156.25,
      "v": 127
    },
    {
      "midi": 65,
      "hit": false,
      "t": 135000,
      "d": 312.5,
      "v": 127
    },
    {
      "midi": 68,
      "hit": false,
      "t": 135312.5,
      "d": 312.5,
      "v": 127
    },
    {
      "midi": 73,
      "hit": false,
      "t": 135312.5,
      "d": 312.5,
      "v": 127
    },
    {
      "midi": 41,
      "hit": false,
      "t": 135312.5,
      "d": 312.5,
      "v": 127
    },
    {
      "midi": 63,
      "hit": false,
      "t": 135625,
      "d": 312.5,
      "v": 127
    },
    {
      "midi": 66,
      "hit": false,
      "t": 135625,
      "d": 312.5,
      "v": 127
    },
    {
      "midi": 70,
      "hit": false,
      "t": 135625,
      "d": 312.5,
      "v": 127
    },
    {
      "midi": 42,
      "hit": false,
      "t": 135625,
      "d": 312.5,
      "v": 127
    },
    {
      "midi": 66,
      "hit": false,
      "t": 135937.5,
      "d": 312.5,
      "v": 127
    },
    {
      "midi": 68,
      "hit": false,
      "t": 135937.5,
      "d": 312.5,
      "v": 127
    },
    {
      "midi": 72,
      "hit": false,
      "t": 135937.5,
      "d": 312.5,
      "v": 127
    },
    {
      "midi": 44,
      "hit": false,
      "t": 135937.5,
      "d": 312.5,
      "v": 127
    },
    {
      "midi": 61,
      "hit": false,
      "t": 136250,
      "d": 1250,
      "v": 127
    },
    {
      "midi": 65,
      "hit": false,
      "t": 136250,
      "d": 1250,
      "v": 127
    },
    {
      "midi": 68,
      "hit": false,
      "t": 136250,
      "d": 1250,
      "v": 127
    },
    {
      "midi": 73,
      "hit": false,
      "t": 136250,
      "d": 1250,
      "v": 127
    },
    {
      "midi": 37,
      "hit": false,
      "t": 136250,
      "d": 1250,
      "v": 127
    }
  ]
}