{
  "jsonPath": "Classical/Classical/Johann Sebastian Bach/die-kunst-der-fuge.json",
  "path": "Classical\\Classical\\Johann Sebastian Bach\\Die Kunst der Fuge.mid",
  "name": "Die Kunst der Fuge",
  "difficulty": "Advanced",
  "bpm": 150,
  "notes": [
    {
      "midi": 50,
      "hit": false,
      "t": 0,
      "d": 100,
      "v": 127
    },
    {
      "midi": 52,
      "hit": false,
      "t": 100,
      "d": 100,
      "v": 127
    },
    {
      "midi": 50,
      "hit": false,
      "t": 300,
      "d": 100,
      "v": 127
    },
    {
      "midi": 49,
      "hit": false,
      "t": 400,
      "d": 100,
      "v": 127
    },
    {
      "midi": 50,
      "hit": false,
      "t": 500,
      "d": 100,
      "v": 127
    },
    {
      "midi": 52,
      "hit": false,
      "t": 700,
      "d": 100,
      "v": 127
    },
    {
      "midi": 53,
      "hit": false,
      "t": 800,
      "d": 100,
      "v": 127
    },
    {
      "midi": 55,
      "hit": false,
      "t": 900,
      "d": 100,
      "v": 127
    },
    {
      "midi": 53,
      "hit": false,
      "t": 1100,
      "d": 100,
      "v": 127
    },
    {
      "midi": 52,
      "hit": false,
      "t": 1200,
      "d": 100,
      "v": 127
    },
    {
      "midi": 53,
      "hit": false,
      "t": 1300,
      "d": 100,
      "v": 127
    },
    {
      "midi": 55,
      "hit": false,
      "t": 1500,
      "d": 100,
      "v": 127
    },
    {
      "midi": 57,
      "hit": false,
      "t": 1600,
      "d": 800,
      "v": 127
    },
    {
      "midi": 55,
      "hit": false,
      "t": 2600,
      "d": 200,
      "v": 127
    },
    {
      "midi": 53,
      "hit": false,
      "t": 2800,
      "d": 200,
      "v": 127
    },
    {
      "midi": 52,
      "hit": false,
      "t": 3000,
      "d": 200,
      "v": 127
    },
    {
      "midi": 53,
      "hit": false,
      "t": 3200,
      "d": 800,
      "v": 127
    },
    {
      "midi": 52,
      "hit": false,
      "t": 4200,
      "d": 200,
      "v": 127
    },
    {
      "midi": 50,
      "hit": false,
      "t": 4400,
      "d": 200,
      "v": 127
    },
    {
      "midi": 49,
      "hit": false,
      "t": 4600,
      "d": 200,
      "v": 127
    },
    {
      "midi": 50,
      "hit": false,
      "t": 4800,
      "d": 400,
      "v": 127
    },
    {
      "midi": 52,
      "hit": false,
      "t": 5200,
      "d": 200,
      "v": 127
    },
    {
      "midi": 53,
      "hit": false,
      "t": 5400,
      "d": 200,
      "v": 127
    },
    {
      "midi": 55,
      "hit": false,
      "t": 5600,
      "d": 200,
      "v": 127
    },
    {
      "midi": 57,
      "hit": false,
      "t": 5800,
      "d": 200,
      "v": 127
    },
    {
      "midi": 58,
      "hit": false,
      "t": 6000,
      "d": 400,
      "v": 127
    },
    {
      "midi": 58,
      "hit": false,
      "t": 6400,
      "d": 400,
      "v": 127
    },
    {
      "midi": 49,
      "hit": false,
      "t": 6800,
      "d": 600,
      "v": 127
    },
    {
      "midi": 45,
      "hit": false,
      "t": 7400,
      "d": 200,
      "v": 127
    },
    {
      "midi": 47,
      "hit": false,
      "t": 7600,
      "d": 200,
      "v": 127
    },
    {
      "midi": 49,
      "hit": false,
      "t": 7800,
      "d": 200,
      "v": 127
    },
    {
      "midi": 50,
      "hit": false,
      "t": 8000,
      "d": 200,
      "v": 127
    },
    {
      "midi": 49,
      "hit": false,
      "t": 8200,
      "d": 200,
      "v": 127
    },
    {
      "midi": 47,
      "hit": false,
      "t": 8400,
      "d": 200,
      "v": 127
    },
    {
      "midi": 45,
      "hit": false,
      "t": 8600,
      "d": 200,
      "v": 127
    },
    {
      "midi": 52,
      "hit": false,
      "t": 8800,
      "d": 200,
      "v": 127
    },
    {
      "midi": 49,
      "hit": false,
      "t": 9000,
      "d": 200,
      "v": 127
    },
    {
      "midi": 47,
      "hit": false,
      "t": 9200,
      "d": 200,
      "v": 127
    },
    {
      "midi": 45,
      "hit": false,
      "t": 9400,
      "d": 200,
      "v": 127
    },
    {
      "midi": 53,
      "hit": false,
      "t": 9600,
      "d": 200,
      "v": 127
    },
    {
      "midi": 52,
      "hit": false,
      "t": 9800,
      "d": 200,
      "v": 127
    },
    {
      "midi": 50,
      "hit": false,
      "t": 10000,
      "d": 600,
      "v": 127
    },
    {
      "midi": 58,
      "hit": false,
      "t": 10600,
      "d": 200,
      "v": 127
    },
    {
      "midi": 57,
      "hit": false,
      "t": 10800,
      "d": 200,
      "v": 127
    },
    {
      "midi": 56,
      "hit": false,
      "t": 11000,
      "d": 200,
      "v": 127
    },
    {
      "midi": 57,
      "hit": false,
      "t": 11200,
      "d": 200,
      "v": 127
    },
    {
      "midi": 53,
      "hit": false,
      "t": 11400,
      "d": 200,
      "v": 127
    },
    {
      "midi": 52,
      "hit": false,
      "t": 11600,
      "d": 200,
      "v": 127
    },
    {
      "midi": 50,
      "hit": false,
      "t": 11800,
      "d": 200,
      "v": 127
    },
    {
      "midi": 53,
      "hit": false,
      "t": 12000,
      "d": 200,
      "v": 127
    },
    {
      "midi": 52,
      "hit": false,
      "t": 12200,
      "d": 200,
      "v": 127
    },
    {
      "midi": 50,
      "hit": false,
      "t": 12400,
      "d": 200,
      "v": 127
    },
    {
      "midi": 49,
      "hit": false,
      "t": 12600,
      "d": 200,
      "v": 127
    },
    {
      "midi": 69,
      "hit": false,
      "t": 12800,
      "d": 100,
      "v": 127
    },
    {
      "midi": 50,
      "hit": false,
      "t": 12800,
      "d": 800,
      "v": 127
    },
    {
      "midi": 71,
      "hit": false,
      "t": 12900,
      "d": 100,
      "v": 127
    },
    {
      "midi": 69,
      "hit": false,
      "t": 13100,
      "d": 100,
      "v": 127
    },
    {
      "midi": 68,
      "hit": false,
      "t": 13200,
      "d": 100,
      "v": 127
    },
    {
      "midi": 69,
      "hit": false,
      "t": 13300,
      "d": 100,
      "v": 127
    },
    {
      "midi": 71,
      "hit": false,
      "t": 13500,
      "d": 100,
      "v": 127
    },
    {
      "midi": 72,
      "hit": false,
      "t": 13600,
      "d": 100,
      "v": 127
    },
    {
      "midi": 45,
      "hit": false,
      "t": 13600,
      "d": 100,
      "v": 127
    },
    {
      "midi": 74,
      "hit": false,
      "t": 13700,
      "d": 100,
      "v": 127
    },
    {
      "midi": 47,
      "hit": false,
      "t": 13700,
      "d": 100,
      "v": 127
    },
    {
      "midi": 72,
      "hit": false,
      "t": 13900,
      "d": 100,
      "v": 127
    },
    {
      "midi": 45,
      "hit": false,
      "t": 13900,
      "d": 100,
      "v": 127
    },
    {
      "midi": 71,
      "hit": false,
      "t": 14000,
      "d": 100,
      "v": 127
    },
    {
      "midi": 44,
      "hit": false,
      "t": 14000,
      "d": 100,
      "v": 127
    },
    {
      "midi": 72,
      "hit": false,
      "t": 14100,
      "d": 100,
      "v": 127
    },
    {
      "midi": 45,
      "hit": false,
      "t": 14100,
      "d": 100,
      "v": 127
    },
    {
      "midi": 74,
      "hit": false,
      "t": 14300,
      "d": 100,
      "v": 127
    },
    {
      "midi": 47,
      "hit": false,
      "t": 14300,
      "d": 100,
      "v": 127
    },
    {
      "midi": 76,
      "hit": false,
      "t": 14400,
      "d": 800,
      "v": 127
    },
    {
      "midi": 48,
      "hit": false,
      "t": 14400,
      "d": 200,
      "v": 127
    },
    {
      "midi": 45,
      "hit": false,
      "t": 14600,
      "d": 200,
      "v": 127
    },
    {
      "midi": 47,
      "hit": false,
      "t": 14800,
      "d": 200,
      "v": 127
    },
    {
      "midi": 48,
      "hit": false,
      "t": 15000,
      "d": 200,
      "v": 127
    },
    {
      "midi": 50,
      "hit": false,
      "t": 15200,
      "d": 200,
      "v": 127
    },
    {
      "midi": 74,
      "hit": false,
      "t": 15400,
      "d": 200,
      "v": 127
    },
    {
      "midi": 52,
      "hit": false,
      "t": 15400,
      "d": 200,
      "v": 127
    },
    {
      "midi": 72,
      "hit": false,
      "t": 15600,
      "d": 200,
      "v": 127
    },
    {
      "midi": 54,
      "hit": false,
      "t": 15600,
      "d": 200,
      "v": 127
    },
    {
      "midi": 71,
      "hit": false,
      "t": 15800,
      "d": 200,
      "v": 127
    },
    {
      "midi": 56,
      "hit": false,
      "t": 15800,
      "d": 200,
      "v": 127
    },
    {
      "midi": 72,
      "hit": false,
      "t": 16000,
      "d": 800,
      "v": 127
    },
    {
      "midi": 57,
      "hit": false,
      "t": 16000,
      "d": 200,
      "v": 127
    },
    {
      "midi": 55,
      "hit": false,
      "t": 16200,
      "d": 200,
      "v": 127
    },
    {
      "midi": 53,
      "hit": false,
      "t": 16400,
      "d": 200,
      "v": 127
    },
    {
      "midi": 52,
      "hit": false,
      "t": 16600,
      "d": 200,
      "v": 127
    },
    {
      "midi": 50,
      "hit": false,
      "t": 16800,
      "d": 600,
      "v": 127
    },
    {
      "midi": 71,
      "hit": false,
      "t": 17000,
      "d": 200,
      "v": 127
    },
    {
      "midi": 69,
      "hit": false,
      "t": 17200,
      "d": 200,
      "v": 127
    },
    {
      "midi": 68,
      "hit": false,
      "t": 17400,
      "d": 200,
      "v": 127
    },
    {
      "midi": 52,
      "hit": false,
      "t": 17400,
      "d": 200,
      "v": 127
    },
    {
      "midi": 69,
      "hit": false,
      "t": 17600,
      "d": 400,
      "v": 127
    },
    {
      "midi": 53,
      "hit": false,
      "t": 17600,
      "d": 200,
      "v": 127
    },
    {
      "midi": 52,
      "hit": false,
      "t": 17800,
      "d": 200,
      "v": 127
    },
    {
      "midi": 71,
      "hit": false,
      "t": 18000,
      "d": 200,
      "v": 127
    },
    {
      "midi": 50,
      "hit": false,
      "t": 18000,
      "d": 200,
      "v": 127
    },
    {
      "midi": 72,
      "hit": false,
      "t": 18200,
      "d": 200,
      "v": 127
    },
    {
      "midi": 48,
      "hit": false,
      "t": 18200,
      "d": 200,
      "v": 127
    },
    {
      "midi": 74,
      "hit": false,
      "t": 18400,
      "d": 200,
      "v": 127
    },
    {
      "midi": 47,
      "hit": false,
      "t": 18400,
      "d": 200,
      "v": 127
    },
    {
      "midi": 76,
      "hit": false,
      "t": 18600,
      "d": 200,
      "v": 127
    },
    {
      "midi": 48,
      "hit": false,
      "t": 18600,
      "d": 200,
      "v": 127
    },
    {
      "midi": 77,
      "hit": false,
      "t": 18800,
      "d": 400,
      "v": 127
    },
    {
      "midi": 50,
      "hit": false,
      "t": 18800,
      "d": 200,
      "v": 127
    },
    {
      "midi": 47,
      "hit": false,
      "t": 19000,
      "d": 200,
      "v": 127
    },
    {
      "midi": 77,
      "hit": false,
      "t": 19200,
      "d": 400,
      "v": 127
    },
    {
      "midi": 44,
      "hit": false,
      "t": 19200,
      "d": 200,
      "v": 127
    },
    {
      "midi": 45,
      "hit": false,
      "t": 19400,
      "d": 200,
      "v": 127
    },
    {
      "midi": 68,
      "hit": false,
      "t": 19600,
      "d": 600,
      "v": 127
    },
    {
      "midi": 47,
      "hit": false,
      "t": 19600,
      "d": 200,
      "v": 127
    },
    {
      "midi": 40,
      "hit": false,
      "t": 19800,
      "d": 200,
      "v": 127
    },
    {
      "midi": 52,
      "hit": false,
      "t": 20000,
      "d": 200,
      "v": 127
    },
    {
      "midi": 64,
      "hit": false,
      "t": 20200,
      "d": 200,
      "v": 127
    },
    {
      "midi": 48,
      "hit": false,
      "t": 20200,
      "d": 200,
      "v": 127
    },
    {
      "midi": 66,
      "hit": false,
      "t": 20400,
      "d": 200,
      "v": 127
    },
    {
      "midi": 50,
      "hit": false,
      "t": 20400,
      "d": 200,
      "v": 127
    },
    {
      "midi": 68,
      "hit": false,
      "t": 20600,
      "d": 200,
      "v": 127
    },
    {
      "midi": 52,
      "hit": false,
      "t": 20600,
      "d": 200,
      "v": 127
    },
    {
      "midi": 69,
      "hit": false,
      "t": 20800,
      "d": 200,
      "v": 127
    },
    {
      "midi": 42,
      "hit": false,
      "t": 20800,
      "d": 200,
      "v": 127
    },
    {
      "midi": 68,
      "hit": false,
      "t": 21000,
      "d": 200,
      "v": 127
    },
    {
      "midi": 45,
      "hit": false,
      "t": 21000,
      "d": 200,
      "v": 127
    },
    {
      "midi": 66,
      "hit": false,
      "t": 21200,
      "d": 200,
      "v": 127
    },
    {
      "midi": 50,
      "hit": false,
      "t": 21200,
      "d": 400,
      "v": 127
    },
    {
      "midi": 64,
      "hit": false,
      "t": 21400,
      "d": 200,
      "v": 127
    },
    {
      "midi": 71,
      "hit": false,
      "t": 21600,
      "d": 200,
      "v": 127
    },
    {
      "midi": 44,
      "hit": false,
      "t": 21600,
      "d": 200,
      "v": 127
    },
    {
      "midi": 68,
      "hit": false,
      "t": 21800,
      "d": 200,
      "v": 127
    },
    {
      "midi": 47,
      "hit": false,
      "t": 21800,
      "d": 200,
      "v": 127
    },
    {
      "midi": 66,
      "hit": false,
      "t": 22000,
      "d": 200,
      "v": 127
    },
    {
      "midi": 52,
      "hit": false,
      "t": 22000,
      "d": 400,
      "v": 127
    },
    {
      "midi": 64,
      "hit": false,
      "t": 22200,
      "d": 200,
      "v": 127
    },
    {
      "midi": 72,
      "hit": false,
      "t": 22400,
      "d": 200,
      "v": 127
    },
    {
      "midi": 45,
      "hit": false,
      "t": 22400,
      "d": 200,
      "v": 127
    },
    {
      "midi": 71,
      "hit": false,
      "t": 22600,
      "d": 200,
      "v": 127
    },
    {
      "midi": 48,
      "hit": false,
      "t": 22600,
      "d": 200,
      "v": 127
    },
    {
      "midi": 69,
      "hit": false,
      "t": 22800,
      "d": 600,
      "v": 127
    },
    {
      "midi": 50,
      "hit": false,
      "t": 22800,
      "d": 200,
      "v": 127
    },
    {
      "midi": 52,
      "hit": false,
      "t": 23000,
      "d": 200,
      "v": 127
    },
    {
      "midi": 53,
      "hit": false,
      "t": 23200,
      "d": 200,
      "v": 127
    },
    {
      "midi": 77,
      "hit": false,
      "t": 23400,
      "d": 200,
      "v": 127
    },
    {
      "midi": 50,
      "hit": false,
      "t": 23400,
      "d": 200,
      "v": 127
    },
    {
      "midi": 76,
      "hit": false,
      "t": 23600,
      "d": 200,
      "v": 127
    },
    {
      "midi": 48,
      "hit": false,
      "t": 23600,
      "d": 200,
      "v": 127
    },
    {
      "midi": 75,
      "hit": false,
      "t": 23800,
      "d": 200,
      "v": 127
    },
    {
      "midi": 47,
      "hit": false,
      "t": 23800,
      "d": 200,
      "v": 127
    },
    {
      "midi": 76,
      "hit": false,
      "t": 24000,
      "d": 200,
      "v": 127
    },
    {
      "midi": 48,
      "hit": false,
      "t": 24000,
      "d": 400,
      "v": 127
    },
    {
      "midi": 72,
      "hit": false,
      "t": 24200,
      "d": 200,
      "v": 127
    },
    {
      "midi": 71,
      "hit": false,
      "t": 24400,
      "d": 200,
      "v": 127
    },
    {
      "midi": 53,
      "hit": false,
      "t": 24400,
      "d": 400,
      "v": 127
    },
    {
      "midi": 69,
      "hit": false,
      "t": 24600,
      "d": 200,
      "v": 127
    },
    {
      "midi": 72,
      "hit": false,
      "t": 24800,
      "d": 200,
      "v": 127
    },
    {
      "midi": 50,
      "hit": false,
      "t": 24800,
      "d": 400,
      "v": 127
    },
    {
      "midi": 71,
      "hit": false,
      "t": 25000,
      "d": 200,
      "v": 127
    },
    {
      "midi": 69,
      "hit": false,
      "t": 25200,
      "d": 200,
      "v": 127
    },
    {
      "midi": 52,
      "hit": false,
      "t": 25200,
      "d": 400,
      "v": 127
    },
    {
      "midi": 68,
      "hit": false,
      "t": 25400,
      "d": 200,
      "v": 127
    },
    {
      "midi": 69,
      "hit": false,
      "t": 25600,
      "d": 800,
      "v": 127
    },
    {
      "midi": 53,
      "hit": false,
      "t": 25600,
      "d": 100,
      "v": 127
    },
    {
      "midi": 55,
      "hit": false,
      "t": 25700,
      "d": 100,
      "v": 127
    },
    {
      "midi": 53,
      "hit": false,
      "t": 25900,
      "d": 100,
      "v": 127
    },
    {
      "midi": 52,
      "hit": false,
      "t": 26000,
      "d": 100,
      "v": 127
    },
    {
      "midi": 53,
      "hit": false,
      "t": 26100,
      "d": 100,
      "v": 127
    },
    {
      "midi": 55,
      "hit": false,
      "t": 26300,
      "d": 100,
      "v": 127
    },
    {
      "midi": 64,
      "hit": false,
      "t": 26400,
      "d": 100,
      "v": 127
    },
    {
      "midi": 57,
      "hit": false,
      "t": 26400,
      "d": 600,
      "v": 127
    },
    {
      "midi": 65,
      "hit": false,
      "t": 26500,
      "d": 100,
      "v": 127
    },
    {
      "midi": 64,
      "hit": false,
      "t": 26700,
      "d": 100,
      "v": 127
    },
    {
      "midi": 62,
      "hit": false,
      "t": 26800,
      "d": 100,
      "v": 127
    },
    {
      "midi": 64,
      "hit": false,
      "t": 26900,
      "d": 100,
      "v": 127
    },
    {
      "midi": 55,
      "hit": false,
      "t": 27000,
      "d": 100,
      "v": 127
    },
    {
      "midi": 65,
      "hit": false,
      "t": 27100,
      "d": 100,
      "v": 127
    },
    {
      "midi": 53,
      "hit": false,
      "t": 27100,
      "d": 100,
      "v": 127
    },
    {
      "midi": 67,
      "hit": false,
      "t": 27200,
      "d": 200,
      "v": 127
    },
    {
      "midi": 52,
      "hit": false,
      "t": 27200,
      "d": 200,
      "v": 127
    },
    {
      "midi": 64,
      "hit": false,
      "t": 27400,
      "d": 200,
      "v": 127
    },
    {
      "midi": 48,
      "hit": false,
      "t": 27400,
      "d": 200,
      "v": 127
    },
    {
      "midi": 65,
      "hit": false,
      "t": 27600,
      "d": 200,
      "v": 127
    },
    {
      "midi": 50,
      "hit": false,
      "t": 27600,
      "d": 200,
      "v": 127
    },
    {
      "midi": 67,
      "hit": false,
      "t": 27800,
      "d": 200,
      "v": 127
    },
    {
      "midi": 52,
      "hit": false,
      "t": 27800,
      "d": 200,
      "v": 127
    },
    {
      "midi": 69,
      "hit": false,
      "t": 28000,
      "d": 200,
      "v": 127
    },
    {
      "midi": 53,
      "hit": false,
      "t": 28000,
      "d": 600,
      "v": 127
    },
    {
      "midi": 71,
      "hit": false,
      "t": 28200,
      "d": 200,
      "v": 127
    },
    {
      "midi": 73,
      "hit": false,
      "t": 28400,
      "d": 200,
      "v": 127
    },
    {
      "midi": 74,
      "hit": false,
      "t": 28600,
      "d": 200,
      "v": 127
    },
    {
      "midi": 52,
      "hit": false,
      "t": 28600,
      "d": 100,
      "v": 127
    },
    {
      "midi": 50,
      "hit": false,
      "t": 28700,
      "d": 100,
      "v": 127
    },
    {
      "midi": 76,
      "hit": false,
      "t": 28800,
      "d": 200,
      "v": 127
    },
    {
      "midi": 49,
      "hit": false,
      "t": 28800,
      "d": 400,
      "v": 127
    },
    {
      "midi": 74,
      "hit": false,
      "t": 29000,
      "d": 200,
      "v": 127
    },
    {
      "midi": 73,
      "hit": false,
      "t": 29200,
      "d": 200,
      "v": 127
    },
    {
      "midi": 45,
      "hit": false,
      "t": 29200,
      "d": 600,
      "v": 127
    },
    {
      "midi": 71,
      "hit": false,
      "t": 29400,
      "d": 200,
      "v": 127
    },
    {
      "midi": 69,
      "hit": false,
      "t": 29600,
      "d": 600,
      "v": 127
    },
    {
      "midi": 50,
      "hit": false,
      "t": 29800,
      "d": 200,
      "v": 127
    },
    {
      "midi": 48,
      "hit": false,
      "t": 30000,
      "d": 200,
      "v": 127
    },
    {
      "midi": 70,
      "hit": false,
      "t": 30200,
      "d": 200,
      "v": 127
    },
    {
      "midi": 46,
      "hit": false,
      "t": 30200,
      "d": 200,
      "v": 127
    },
    {
      "midi": 72,
      "hit": false,
      "t": 30400,
      "d": 200,
      "v": 127
    },
    {
      "midi": 45,
      "hit": false,
      "t": 30400,
      "d": 400,
      "v": 127
    },
    {
      "midi": 70,
      "hit": false,
      "t": 30600,
      "d": 200,
      "v": 127
    },
    {
      "midi": 69,
      "hit": false,
      "t": 30800,
      "d": 200,
      "v": 127
    },
    {
      "midi": 41,
      "hit": false,
      "t": 30800,
      "d": 200,
      "v": 127
    },
    {
      "midi": 67,
      "hit": false,
      "t": 31000,
      "d": 200,
      "v": 127
    },
    {
      "midi": 45,
      "hit": false,
      "t": 31000,
      "d": 200,
      "v": 127
    },
    {
      "midi": 65,
      "hit": false,
      "t": 31200,
      "d": 200,
      "v": 127
    },
    {
      "midi": 50,
      "hit": false,
      "t": 31200,
      "d": 400,
      "v": 127
    },
    {
      "midi": 67,
      "hit": false,
      "t": 31400,
      "d": 200,
      "v": 127
    },
    {
      "midi": 69,
      "hit": false,
      "t": 31600,
      "d": 200,
      "v": 127
    },
    {
      "midi": 41,
      "hit": false,
      "t": 31600,
      "d": 400,
      "v": 127
    },
    {
      "midi": 65,
      "hit": false,
      "t": 31800,
      "d": 200,
      "v": 127
    },
    {
      "midi": 62,
      "hit": false,
      "t": 32000,
      "d": 200,
      "v": 127
    },
    {
      "midi": 43,
      "hit": false,
      "t": 32000,
      "d": 400,
      "v": 127
    },
    {
      "midi": 64,
      "hit": false,
      "t": 32200,
      "d": 200,
      "v": 127
    },
    {
      "midi": 65,
      "hit": false,
      "t": 32400,
      "d": 200,
      "v": 127
    },
    {
      "midi": 38,
      "hit": false,
      "t": 32400,
      "d": 600,
      "v": 127
    },
    {
      "midi": 58,
      "hit": false,
      "t": 32600,
      "d": 200,
      "v": 127
    },
    {
      "midi": 70,
      "hit": false,
      "t": 32800,
      "d": 200,
      "v": 127
    },
    {
      "midi": 67,
      "hit": false,
      "t": 33000,
      "d": 200,
      "v": 127
    },
    {
      "midi": 40,
      "hit": false,
      "t": 33000,
      "d": 200,
      "v": 127
    },
    {
      "midi": 69,
      "hit": false,
      "t": 33200,
      "d": 200,
      "v": 127
    },
    {
      "midi": 41,
      "hit": false,
      "t": 33200,
      "d": 200,
      "v": 127
    },
    {
      "midi": 70,
      "hit": false,
      "t": 33400,
      "d": 200,
      "v": 127
    },
    {
      "midi": 43,
      "hit": false,
      "t": 33400,
      "d": 200,
      "v": 127
    },
    {
      "midi": 60,
      "hit": false,
      "t": 33600,
      "d": 200,
      "v": 127
    },
    {
      "midi": 45,
      "hit": false,
      "t": 33600,
      "d": 200,
      "v": 127
    },
    {
      "midi": 64,
      "hit": false,
      "t": 33800,
      "d": 200,
      "v": 127
    },
    {
      "midi": 43,
      "hit": false,
      "t": 33800,
      "d": 200,
      "v": 127
    },
    {
      "midi": 69,
      "hit": false,
      "t": 34000,
      "d": 400,
      "v": 127
    },
    {
      "midi": 41,
      "hit": false,
      "t": 34000,
      "d": 200,
      "v": 127
    },
    {
      "midi": 45,
      "hit": false,
      "t": 34200,
      "d": 200,
      "v": 127
    },
    {
      "midi": 62,
      "hit": false,
      "t": 34400,
      "d": 200,
      "v": 127
    },
    {
      "midi": 46,
      "hit": false,
      "t": 34400,
      "d": 200,
      "v": 127
    },
    {
      "midi": 65,
      "hit": false,
      "t": 34600,
      "d": 200,
      "v": 127
    },
    {
      "midi": 45,
      "hit": false,
      "t": 34600,
      "d": 200,
      "v": 127
    },
    {
      "midi": 70,
      "hit": false,
      "t": 34800,
      "d": 400,
      "v": 127
    },
    {
      "midi": 43,
      "hit": false,
      "t": 34800,
      "d": 200,
      "v": 127
    },
    {
      "midi": 46,
      "hit": false,
      "t": 35000,
      "d": 200,
      "v": 127
    },
    {
      "midi": 64,
      "hit": false,
      "t": 35200,
      "d": 200,
      "v": 127
    },
    {
      "midi": 48,
      "hit": false,
      "t": 35200,
      "d": 200,
      "v": 127
    },
    {
      "midi": 67,
      "hit": false,
      "t": 35400,
      "d": 200,
      "v": 127
    },
    {
      "midi": 46,
      "hit": false,
      "t": 35400,
      "d": 200,
      "v": 127
    },
    {
      "midi": 69,
      "hit": false,
      "t": 35600,
      "d": 200,
      "v": 127
    },
    {
      "midi": 45,
      "hit": false,
      "t": 35600,
      "d": 200,
      "v": 127
    },
    {
      "midi": 70,
      "hit": false,
      "t": 35800,
      "d": 200,
      "v": 127
    },
    {
      "midi": 43,
      "hit": false,
      "t": 35800,
      "d": 200,
      "v": 127
    },
    {
      "midi": 72,
      "hit": false,
      "t": 36000,
      "d": 200,
      "v": 127
    },
    {
      "midi": 45,
      "hit": false,
      "t": 36000,
      "d": 200,
      "v": 127
    },
    {
      "midi": 69,
      "hit": false,
      "t": 36200,
      "d": 200,
      "v": 127
    },
    {
      "midi": 53,
      "hit": false,
      "t": 36200,
      "d": 200,
      "v": 127
    },
    {
      "midi": 67,
      "hit": false,
      "t": 36400,
      "d": 200,
      "v": 127
    },
    {
      "midi": 52,
      "hit": false,
      "t": 36400,
      "d": 200,
      "v": 127
    },
    {
      "midi": 65,
      "hit": false,
      "t": 36600,
      "d": 200,
      "v": 127
    },
    {
      "midi": 50,
      "hit": false,
      "t": 36600,
      "d": 200,
      "v": 127
    },
    {
      "midi": 67,
      "hit": false,
      "t": 36800,
      "d": 400,
      "v": 127
    },
    {
      "midi": 52,
      "hit": false,
      "t": 36800,
      "d": 200,
      "v": 127
    },
    {
      "midi": 48,
      "hit": false,
      "t": 37000,
      "d": 200,
      "v": 127
    },
    {
      "midi": 72,
      "hit": false,
      "t": 37200,
      "d": 400,
      "v": 127
    },
    {
      "midi": 45,
      "hit": false,
      "t": 37200,
      "d": 200,
      "v": 127
    },
    {
      "midi": 48,
      "hit": false,
      "t": 37400,
      "d": 200,
      "v": 127
    },
    {
      "midi": 69,
      "hit": false,
      "t": 37600,
      "d": 400,
      "v": 127
    },
    {
      "midi": 42,
      "hit": false,
      "t": 37600,
      "d": 200,
      "v": 127
    },
    {
      "midi": 45,
      "hit": false,
      "t": 37800,
      "d": 200,
      "v": 127
    },
    {
      "midi": 71,
      "hit": false,
      "t": 38000,
      "d": 400,
      "v": 127
    },
    {
      "midi": 44,
      "hit": false,
      "t": 38000,
      "d": 200,
      "v": 127
    },
    {
      "midi": 47,
      "hit": false,
      "t": 38200,
      "d": 200,
      "v": 127
    },
    {
      "midi": 72,
      "hit": false,
      "t": 38400,
      "d": 100,
      "v": 127
    },
    {
      "midi": 45,
      "hit": false,
      "t": 38400,
      "d": 800,
      "v": 127
    },
    {
      "midi": 74,
      "hit": false,
      "t": 38500,
      "d": 100,
      "v": 127
    },
    {
      "midi": 72,
      "hit": false,
      "t": 38700,
      "d": 100,
      "v": 127
    },
    {
      "midi": 71,
      "hit": false,
      "t": 38800,
      "d": 100,
      "v": 127
    },
    {
      "midi": 72,
      "hit": false,
      "t": 38900,
      "d": 100,
      "v": 127
    },
    {
      "midi": 74,
      "hit": false,
      "t": 39100,
      "d": 100,
      "v": 127
    },
    {
      "midi": 76,
      "hit": false,
      "t": 39200,
      "d": 600,
      "v": 127
    },
    {
      "midi": 52,
      "hit": false,
      "t": 39200,
      "d": 100,
      "v": 127
    },
    {
      "midi": 53,
      "hit": false,
      "t": 39300,
      "d": 100,
      "v": 127
    },
    {
      "midi": 52,
      "hit": false,
      "t": 39500,
      "d": 100,
      "v": 127
    },
    {
      "midi": 50,
      "hit": false,
      "t": 39600,
      "d": 100,
      "v": 127
    },
    {
      "midi": 52,
      "hit": false,
      "t": 39700,
      "d": 100,
      "v": 127
    },
    {
      "midi": 74,
      "hit": false,
      "t": 39800,
      "d": 100,
      "v": 127
    },
    {
      "midi": 72,
      "hit": false,
      "t": 39900,
      "d": 100,
      "v": 127
    },
    {
      "midi": 53,
      "hit": false,
      "t": 39900,
      "d": 100,
      "v": 127
    },
    {
      "midi": 71,
      "hit": false,
      "t": 40000,
      "d": 200,
      "v": 127
    },
    {
      "midi": 55,
      "hit": false,
      "t": 40000,
      "d": 400,
      "v": 127
    },
    {
      "midi": 67,
      "hit": false,
      "t": 40200,
      "d": 200,
      "v": 127
    },
    {
      "midi": 69,
      "hit": false,
      "t": 40400,
      "d": 200,
      "v": 127
    },
    {
      "midi": 53,
      "hit": false,
      "t": 40500,
      "d": 100,
      "v": 127
    },
    {
      "midi": 71,
      "hit": false,
      "t": 40600,
      "d": 200,
      "v": 127
    },
    {
      "midi": 52,
      "hit": false,
      "t": 40600,
      "d": 100,
      "v": 127
    },
    {
      "midi": 50,
      "hit": false,
      "t": 40700,
      "d": 100,
      "v": 127
    },
    {
      "midi": 72,
      "hit": false,
      "t": 40800,
      "d": 600,
      "v": 127
    },
    {
      "midi": 48,
      "hit": false,
      "t": 40800,
      "d": 100,
      "v": 127
    },
    {
      "midi": 50,
      "hit": false,
      "t": 40900,
      "d": 100,
      "v": 127
    },
    {
      "midi": 48,
      "hit": false,
      "t": 41100,
      "d": 100,
      "v": 127
    },
    {
      "midi": 47,
      "hit": false,
      "t": 41200,
      "d": 100,
      "v": 127
    },
    {
      "midi": 48,
      "hit": false,
      "t": 41300,
      "d": 100,
      "v": 127
    },
    {
      "midi": 71,
      "hit": false,
      "t": 41400,
      "d": 100,
      "v": 127
    },
    {
      "midi": 69,
      "hit": false,
      "t": 41500,
      "d": 100,
      "v": 127
    },
    {
      "midi": 50,
      "hit": false,
      "t": 41500,
      "d": 100,
      "v": 127
    },
    {
      "midi": 68,
      "hit": false,
      "t": 41600,
      "d": 400,
      "v": 127
    },
    {
      "midi": 52,
      "hit": false,
      "t": 41600,
      "d": 200,
      "v": 127
    },
    {
      "midi": 50,
      "hit": false,
      "t": 41800,
      "d": 200,
      "v": 127
    },
    {
      "midi": 64,
      "hit": false,
      "t": 42000,
      "d": 600,
      "v": 127
    },
    {
      "midi": 48,
      "hit": false,
      "t": 42000,
      "d": 200,
      "v": 127
    },
    {
      "midi": 47,
      "hit": false,
      "t": 42200,
      "d": 200,
      "v": 127
    },
    {
      "midi": 45,
      "hit": false,
      "t": 42400,
      "d": 600,
      "v": 127
    },
    {
      "midi": 69,
      "hit": false,
      "t": 42600,
      "d": 200,
      "v": 127
    },
    {
      "midi": 67,
      "hit": false,
      "t": 42800,
      "d": 200,
      "v": 127
    },
    {
      "midi": 65,
      "hit": false,
      "t": 43000,
      "d": 200,
      "v": 127
    },
    {
      "midi": 47,
      "hit": false,
      "t": 43000,
      "d": 200,
      "v": 127
    },
    {
      "midi": 64,
      "hit": false,
      "t": 43200,
      "d": 400,
      "v": 127
    },
    {
      "midi": 48,
      "hit": false,
      "t": 43200,
      "d": 200,
      "v": 127
    },
    {
      "midi": 46,
      "hit": false,
      "t": 43400,
      "d": 200,
      "v": 127
    },
    {
      "midi": 60,
      "hit": false,
      "t": 43600,
      "d": 200,
      "v": 127
    },
    {
      "midi": 45,
      "hit": false,
      "t": 43600,
      "d": 200,
      "v": 127
    },
    {
      "midi": 64,
      "hit": false,
      "t": 43800,
      "d": 200,
      "v": 127
    },
    {
      "midi": 43,
      "hit": false,
      "t": 43800,
      "d": 200,
      "v": 127
    },
    {
      "midi": 69,
      "hit": false,
      "t": 44000,
      "d": 400,
      "v": 127
    },
    {
      "midi": 41,
      "hit": false,
      "t": 44000,
      "d": 200,
      "v": 127
    },
    {
      "midi": 43,
      "hit": false,
      "t": 44200,
      "d": 200,
      "v": 127
    },
    {
      "midi": 61,
      "hit": false,
      "t": 44400,
      "d": 400,
      "v": 127
    },
    {
      "midi": 45,
      "hit": false,
      "t": 44400,
      "d": 200,
      "v": 127
    },
    {
      "midi": 41,
      "hit": false,
      "t": 44600,
      "d": 200,
      "v": 127
    },
    {
      "midi": 62,
      "hit": false,
      "t": 44800,
      "d": 400,
      "v": 127
    },
    {
      "midi": 46,
      "hit": false,
      "t": 44800,
      "d": 200,
      "v": 127
    },
    {
      "midi": 43,
      "hit": false,
      "t": 45000,
      "d": 200,
      "v": 127
    },
    {
      "midi": 57,
      "hit": false,
      "t": 45200,
      "d": 600,
      "v": 127
    },
    {
      "midi": 41,
      "hit": false,
      "t": 45200,
      "d": 200,
      "v": 127
    },
    {
      "midi": 40,
      "hit": false,
      "t": 45400,
      "d": 200,
      "v": 127
    },
    {
      "midi": 38,
      "hit": false,
      "t": 45600,
      "d": 800,
      "v": 127
    },
    {
      "midi": 59,
      "hit": false,
      "t": 45800,
      "d": 200,
      "v": 127
    },
    {
      "midi": 61,
      "hit": false,
      "t": 46000,
      "d": 200,
      "v": 127
    },
    {
      "midi": 62,
      "hit": false,
      "t": 46200,
      "d": 200,
      "v": 127
    },
    {
      "midi": 64,
      "hit": false,
      "t": 46400,
      "d": 200,
      "v": 127
    },
    {
      "midi": 62,
      "hit": false,
      "t": 46600,
      "d": 200,
      "v": 127
    },
    {
      "midi": 61,
      "hit": false,
      "t": 46800,
      "d": 200,
      "v": 127
    },
    {
      "midi": 45,
      "hit": false,
      "t": 46800,
      "d": 400,
      "v": 127
    },
    {
      "midi": 64,
      "hit": false,
      "t": 47000,
      "d": 200,
      "v": 127
    },
    {
      "midi": 65,
      "hit": false,
      "t": 47200,
      "d": 200,
      "v": 127
    },
    {
      "midi": 38,
      "hit": false,
      "t": 47200,
      "d": 200,
      "v": 127
    },
    {
      "midi": 64,
      "hit": false,
      "t": 47400,
      "d": 200,
      "v": 127
    },
    {
      "midi": 41,
      "hit": false,
      "t": 47400,
      "d": 200,
      "v": 127
    },
    {
      "midi": 62,
      "hit": false,
      "t": 47600,
      "d": 200,
      "v": 127
    },
    {
      "midi": 46,
      "hit": false,
      "t": 47600,
      "d": 400,
      "v": 127
    },
    {
      "midi": 65,
      "hit": false,
      "t": 47800,
      "d": 200,
      "v": 127
    },
    {
      "midi": 67,
      "hit": false,
      "t": 48000,
      "d": 200,
      "v": 127
    },
    {
      "midi": 40,
      "hit": false,
      "t": 48000,
      "d": 200,
      "v": 127
    },
    {
      "midi": 65,
      "hit": false,
      "t": 48200,
      "d": 200,
      "v": 127
    },
    {
      "midi": 43,
      "hit": false,
      "t": 48200,
      "d": 200,
      "v": 127
    },
    {
      "midi": 64,
      "hit": false,
      "t": 48400,
      "d": 200,
      "v": 127
    },
    {
      "midi": 48,
      "hit": false,
      "t": 48400,
      "d": 600,
      "v": 127
    },
    {
      "midi": 62,
      "hit": false,
      "t": 48600,
      "d": 200,
      "v": 127
    },
    {
      "midi": 64,
      "hit": false,
      "t": 48800,
      "d": 200,
      "v": 127
    },
    {
      "midi": 72,
      "hit": false,
      "t": 49000,
      "d": 200,
      "v": 127
    },
    {
      "midi": 45,
      "hit": false,
      "t": 49000,
      "d": 200,
      "v": 127
    },
    {
      "midi": 70,
      "hit": false,
      "t": 49200,
      "d": 200,
      "v": 127
    },
    {
      "midi": 43,
      "hit": false,
      "t": 49200,
      "d": 200,
      "v": 127
    },
    {
      "midi": 69,
      "hit": false,
      "t": 49400,
      "d": 200,
      "v": 127
    },
    {
      "midi": 42,
      "hit": false,
      "t": 49400,
      "d": 200,
      "v": 127
    },
    {
      "midi": 70,
      "hit": false,
      "t": 49600,
      "d": 200,
      "v": 127
    },
    {
      "midi": 43,
      "hit": false,
      "t": 49600,
      "d": 400,
      "v": 127
    },
    {
      "midi": 67,
      "hit": false,
      "t": 49800,
      "d": 200,
      "v": 127
    },
    {
      "midi": 64,
      "hit": false,
      "t": 50000,
      "d": 200,
      "v": 127
    },
    {
      "midi": 45,
      "hit": false,
      "t": 50000,
      "d": 800,
      "v": 127
    },
    {
      "midi": 67,
      "hit": false,
      "t": 50200,
      "d": 200,
      "v": 127
    },
    {
      "midi": 61,
      "hit": false,
      "t": 50400,
      "d": 200,
      "v": 127
    },
    {
      "midi": 64,
      "hit": false,
      "t": 50600,
      "d": 200,
      "v": 127
    },
    {
      "midi": 62,
      "hit": false,
      "t": 50800,
      "d": 200,
      "v": 127
    },
    {
      "midi": 46,
      "hit": false,
      "t": 50800,
      "d": 400,
      "v": 127
    },
    {
      "midi": 65,
      "hit": false,
      "t": 51000,
      "d": 200,
      "v": 127
    },
    {
      "midi": 64,
      "hit": false,
      "t": 51200,
      "d": 800,
      "v": 127
    },
    {
      "midi": 37,
      "hit": false,
      "t": 51200,
      "d": 200,
      "v": 127
    },
    {
      "midi": 38,
      "hit": false,
      "t": 51400,
      "d": 200,
      "v": 127
    },
    {
      "midi": 40,
      "hit": false,
      "t": 51600,
      "d": 200,
      "v": 127
    },
    {
      "midi": 41,
      "hit": false,
      "t": 51800,
      "d": 200,
      "v": 127
    },
    {
      "midi": 71,
      "hit": false,
      "t": 52000,
      "d": 100,
      "v": 127
    },
    {
      "midi": 43,
      "hit": false,
      "t": 52000,
      "d": 100,
      "v": 127
    },
    {
      "midi": 72,
      "hit": false,
      "t": 52100,
      "d": 100,
      "v": 127
    },
    {
      "midi": 45,
      "hit": false,
      "t": 52100,
      "d": 100,
      "v": 127
    },
    {
      "midi": 71,
      "hit": false,
      "t": 52300,
      "d": 100,
      "v": 127
    },
    {
      "midi": 43,
      "hit": false,
      "t": 52300,
      "d": 100,
      "v": 127
    },
    {
      "midi": 69,
      "hit": false,
      "t": 52400,
      "d": 100,
      "v": 127
    },
    {
      "midi": 41,
      "hit": false,
      "t": 52400,
      "d": 100,
      "v": 127
    },
    {
      "midi": 71,
      "hit": false,
      "t": 52500,
      "d": 100,
      "v": 127
    },
    {
      "midi": 43,
      "hit": false,
      "t": 52500,
      "d": 100,
      "v": 127
    },
    {
      "midi": 73,
      "hit": false,
      "t": 52700,
      "d": 100,
      "v": 127
    },
    {
      "midi": 45,
      "hit": false,
      "t": 52700,
      "d": 100,
      "v": 127
    },
    {
      "midi": 74,
      "hit": false,
      "t": 52800,
      "d": 100,
      "v": 127
    },
    {
      "midi": 46,
      "hit": false,
      "t": 52800,
      "d": 400,
      "v": 127
    },
    {
      "midi": 76,
      "hit": false,
      "t": 52900,
      "d": 100,
      "v": 127
    },
    {
      "midi": 74,
      "hit": false,
      "t": 53100,
      "d": 100,
      "v": 127
    },
    {
      "midi": 73,
      "hit": false,
      "t": 53200,
      "d": 100,
      "v": 127
    },
    {
      "midi": 43,
      "hit": false,
      "t": 53200,
      "d": 400,
      "v": 127
    },
    {
      "midi": 74,
      "hit": false,
      "t": 53300,
      "d": 100,
      "v": 127
    },
    {
      "midi": 76,
      "hit": false,
      "t": 53500,
      "d": 100,
      "v": 127
    },
    {
      "midi": 77,
      "hit": false,
      "t": 53600,
      "d": 100,
      "v": 127
    },
    {
      "midi": 50,
      "hit": false,
      "t": 53600,
      "d": 100,
      "v": 127
    },
    {
      "midi": 79,
      "hit": false,
      "t": 53700,
      "d": 100,
      "v": 127
    },
    {
      "midi": 52,
      "hit": false,
      "t": 53700,
      "d": 100,
      "v": 127
    },
    {
      "midi": 77,
      "hit": false,
      "t": 53900,
      "d": 100,
      "v": 127
    },
    {
      "midi": 50,
      "hit": false,
      "t": 53900,
      "d": 100,
      "v": 127
    },
    {
      "midi": 76,
      "hit": false,
      "t": 54000,
      "d": 100,
      "v": 127
    },
    {
      "midi": 49,
      "hit": false,
      "t": 54000,
      "d": 100,
      "v": 127
    },
    {
      "midi": 77,
      "hit": false,
      "t": 54100,
      "d": 100,
      "v": 127
    },
    {
      "midi": 50,
      "hit": false,
      "t": 54100,
      "d": 100,
      "v": 127
    },
    {
      "midi": 79,
      "hit": false,
      "t": 54300,
      "d": 100,
      "v": 127
    },
    {
      "midi": 52,
      "hit": false,
      "t": 54300,
      "d": 100,
      "v": 127
    },
    {
      "midi": 81,
      "hit": false,
      "t": 54400,
      "d": 800,
      "v": 127
    },
    {
      "midi": 53,
      "hit": false,
      "t": 54400,
      "d": 100,
      "v": 127
    },
    {
      "midi": 55,
      "hit": false,
      "t": 54500,
      "d": 100,
      "v": 127
    },
    {
      "midi": 53,
      "hit": false,
      "t": 54700,
      "d": 100,
      "v": 127
    },
    {
      "midi": 52,
      "hit": false,
      "t": 54800,
      "d": 100,
      "v": 127
    },
    {
      "midi": 53,
      "hit": false,
      "t": 54900,
      "d": 100,
      "v": 127
    },
    {
      "midi": 55,
      "hit": false,
      "t": 55100,
      "d": 100,
      "v": 127
    },
    {
      "midi": 57,
      "hit": false,
      "t": 55200,
      "d": 200,
      "v": 127
    },
    {
      "midi": 79,
      "hit": false,
      "t": 55400,
      "d": 200,
      "v": 127
    },
    {
      "midi": 50,
      "hit": false,
      "t": 55400,
      "d": 200,
      "v": 127
    },
    {
      "midi": 77,
      "hit": false,
      "t": 55600,
      "d": 200,
      "v": 127
    },
    {
      "midi": 62,
      "hit": false,
      "t": 55600,
      "d": 400,
      "v": 127
    },
    {
      "midi": 76,
      "hit": false,
      "t": 55800,
      "d": 200,
      "v": 127
    },
    {
      "midi": 77,
      "hit": false,
      "t": 56000,
      "d": 800,
      "v": 127
    },
    {
      "midi": 60,
      "hit": false,
      "t": 56200,
      "d": 200,
      "v": 127
    },
    {
      "midi": 58,
      "hit": false,
      "t": 56400,
      "d": 200,
      "v": 127
    },
    {
      "midi": 57,
      "hit": false,
      "t": 56600,
      "d": 200,
      "v": 127
    },
    {
      "midi": 58,
      "hit": false,
      "t": 56800,
      "d": 800,
      "v": 127
    },
    {
      "midi": 76,
      "hit": false,
      "t": 57000,
      "d": 200,
      "v": 127
    },
    {
      "midi": 74,
      "hit": false,
      "t": 57200,
      "d": 200,
      "v": 127
    },
    {
      "midi": 73,
      "hit": false,
      "t": 57400,
      "d": 200,
      "v": 127
    },
    {
      "midi": 74,
      "hit": false,
      "t": 57600,
      "d": 400,
      "v": 127
    },
    {
      "midi": 57,
      "hit": false,
      "t": 57800,
      "d": 200,
      "v": 127
    },
    {
      "midi": 76,
      "hit": false,
      "t": 58000,
      "d": 200,
      "v": 127
    },
    {
      "midi": 55,
      "hit": false,
      "t": 58000,
      "d": 200,
      "v": 127
    },
    {
      "midi": 77,
      "hit": false,
      "t": 58200,
      "d": 200,
      "v": 127
    },
    {
      "midi": 53,
      "hit": false,
      "t": 58200,
      "d": 200,
      "v": 127
    },
    {
      "midi": 79,
      "hit": false,
      "t": 58400,
      "d": 200,
      "v": 127
    },
    {
      "midi": 52,
      "hit": false,
      "t": 58400,
      "d": 200,
      "v": 127
    },
    {
      "midi": 81,
      "hit": false,
      "t": 58600,
      "d": 200,
      "v": 127
    },
    {
      "midi": 53,
      "hit": false,
      "t": 58600,
      "d": 200,
      "v": 127
    },
    {
      "midi": 82,
      "hit": false,
      "t": 58800,
      "d": 400,
      "v": 127
    },
    {
      "midi": 55,
      "hit": false,
      "t": 58800,
      "d": 200,
      "v": 127
    },
    {
      "midi": 52,
      "hit": false,
      "t": 59000,
      "d": 200,
      "v": 127
    },
    {
      "midi": 82,
      "hit": false,
      "t": 59200,
      "d": 400,
      "v": 127
    },
    {
      "midi": 49,
      "hit": false,
      "t": 59200,
      "d": 200,
      "v": 127
    },
    {
      "midi": 50,
      "hit": false,
      "t": 59400,
      "d": 200,
      "v": 127
    },
    {
      "midi": 73,
      "hit": false,
      "t": 59600,
      "d": 600,
      "v": 127
    },
    {
      "midi": 52,
      "hit": false,
      "t": 59600,
      "d": 200,
      "v": 127
    },
    {
      "midi": 45,
      "hit": false,
      "t": 59800,
      "d": 200,
      "v": 127
    },
    {
      "midi": 57,
      "hit": false,
      "t": 60000,
      "d": 200,
      "v": 127
    },
    {
      "midi": 69,
      "hit": false,
      "t": 60200,
      "d": 200,
      "v": 127
    },
    {
      "midi": 53,
      "hit": false,
      "t": 60200,
      "d": 200,
      "v": 127
    },
    {
      "midi": 71,
      "hit": false,
      "t": 60400,
      "d": 200,
      "v": 127
    },
    {
      "midi": 55,
      "hit": false,
      "t": 60400,
      "d": 200,
      "v": 127
    },
    {
      "midi": 73,
      "hit": false,
      "t": 60600,
      "d": 200,
      "v": 127
    },
    {
      "midi": 57,
      "hit": false,
      "t": 60600,
      "d": 200,
      "v": 127
    },
    {
      "midi": 74,
      "hit": false,
      "t": 60800,
      "d": 200,
      "v": 127
    },
    {
      "midi": 47,
      "hit": false,
      "t": 60800,
      "d": 200,
      "v": 127
    },
    {
      "midi": 73,
      "hit": false,
      "t": 61000,
      "d": 200,
      "v": 127
    },
    {
      "midi": 50,
      "hit": false,
      "t": 61000,
      "d": 200,
      "v": 127
    },
    {
      "midi": 71,
      "hit": false,
      "t": 61200,
      "d": 200,
      "v": 127
    },
    {
      "midi": 55,
      "hit": false,
      "t": 61200,
      "d": 400,
      "v": 127
    },
    {
      "midi": 69,
      "hit": false,
      "t": 61400,
      "d": 200,
      "v": 127
    },
    {
      "midi": 76,
      "hit": false,
      "t": 61600,
      "d": 200,
      "v": 127
    },
    {
      "midi": 49,
      "hit": false,
      "t": 61600,
      "d": 200,
      "v": 127
    },
    {
      "midi": 73,
      "hit": false,
      "t": 61800,
      "d": 200,
      "v": 127
    },
    {
      "midi": 52,
      "hit": false,
      "t": 61800,
      "d": 200,
      "v": 127
    },
    {
      "midi": 71,
      "hit": false,
      "t": 62000,
      "d": 200,
      "v": 127
    },
    {
      "midi": 57,
      "hit": false,
      "t": 62000,
      "d": 400,
      "v": 127
    },
    {
      "midi": 69,
      "hit": false,
      "t": 62200,
      "d": 200,
      "v": 127
    },
    {
      "midi": 77,
      "hit": false,
      "t": 62400,
      "d": 200,
      "v": 127
    },
    {
      "midi": 50,
      "hit": false,
      "t": 62400,
      "d": 200,
      "v": 127
    },
    {
      "midi": 76,
      "hit": false,
      "t": 62600,
      "d": 200,
      "v": 127
    },
    {
      "midi": 53,
      "hit": false,
      "t": 62600,
      "d": 200,
      "v": 127
    },
    {
      "midi": 74,
      "hit": false,
      "t": 62800,
      "d": 600,
      "v": 127
    },
    {
      "midi": 55,
      "hit": false,
      "t": 62800,
      "d": 200,
      "v": 127
    },
    {
      "midi": 57,
      "hit": false,
      "t": 63000,
      "d": 200,
      "v": 127
    },
    {
      "midi": 58,
      "hit": false,
      "t": 63200,
      "d": 200,
      "v": 127
    },
    {
      "midi": 82,
      "hit": false,
      "t": 63400,
      "d": 200,
      "v": 127
    },
    {
      "midi": 55,
      "hit": false,
      "t": 63400,
      "d": 200,
      "v": 127
    },
    {
      "midi": 81,
      "hit": false,
      "t": 63600,
      "d": 200,
      "v": 127
    },
    {
      "midi": 53,
      "hit": false,
      "t": 63600,
      "d": 200,
      "v": 127
    },
    {
      "midi": 80,
      "hit": false,
      "t": 63800,
      "d": 200,
      "v": 127
    },
    {
      "midi": 52,
      "hit": false,
      "t": 63800,
      "d": 200,
      "v": 127
    },
    {
      "midi": 81,
      "hit": false,
      "t": 64000,
      "d": 200,
      "v": 127
    },
    {
      "midi": 53,
      "hit": false,
      "t": 64000,
      "d": 400,
      "v": 127
    },
    {
      "midi": 77,
      "hit": false,
      "t": 64200,
      "d": 200,
      "v": 127
    },
    {
      "midi": 76,
      "hit": false,
      "t": 64400,
      "d": 200,
      "v": 127
    },
    {
      "midi": 58,
      "hit": false,
      "t": 64400,
      "d": 400,
      "v": 127
    },
    {
      "midi": 74,
      "hit": false,
      "t": 64600,
      "d": 200,
      "v": 127
    },
    {
      "midi": 77,
      "hit": false,
      "t": 64800,
      "d": 200,
      "v": 127
    },
    {
      "midi": 55,
      "hit": false,
      "t": 64800,
      "d": 400,
      "v": 127
    },
    {
      "midi": 76,
      "hit": false,
      "t": 65000,
      "d": 200,
      "v": 127
    },
    {
      "midi": 74,
      "hit": false,
      "t": 65200,
      "d": 200,
      "v": 127
    },
    {
      "midi": 57,
      "hit": false,
      "t": 65200,
      "d": 400,
      "v": 127
    },
    {
      "midi": 73,
      "hit": false,
      "t": 65400,
      "d": 200,
      "v": 127
    },
    {
      "midi": 74,
      "hit": false,
      "t": 65600,
      "d": 800,
      "v": 127
    },
    {
      "midi": 50,
      "hit": false,
      "t": 65600,
      "d": 100,
      "v": 127
    },
    {
      "midi": 52,
      "hit": false,
      "t": 65700,
      "d": 100,
      "v": 127
    },
    {
      "midi": 50,
      "hit": false,
      "t": 65900,
      "d": 100,
      "v": 127
    },
    {
      "midi": 49,
      "hit": false,
      "t": 66000,
      "d": 100,
      "v": 127
    },
    {
      "midi": 50,
      "hit": false,
      "t": 66100,
      "d": 100,
      "v": 127
    },
    {
      "midi": 52,
      "hit": false,
      "t": 66300,
      "d": 100,
      "v": 127
    },
    {
      "midi": 69,
      "hit": false,
      "t": 66400,
      "d": 100,
      "v": 127
    },
    {
      "midi": 53,
      "hit": false,
      "t": 66400,
      "d": 100,
      "v": 127
    },
    {
      "midi": 71,
      "hit": false,
      "t": 66500,
      "d": 100,
      "v": 127
    },
    {
      "midi": 55,
      "hit": false,
      "t": 66500,
      "d": 100,
      "v": 127
    },
    {
      "midi": 69,
      "hit": false,
      "t": 66700,
      "d": 100,
      "v": 127
    },
    {
      "midi": 53,
      "hit": false,
      "t": 66700,
      "d": 100,
      "v": 127
    },
    {
      "midi": 68,
      "hit": false,
      "t": 66800,
      "d": 100,
      "v": 127
    },
    {
      "midi": 52,
      "hit": false,
      "t": 66800,
      "d": 100,
      "v": 127
    },
    {
      "midi": 69,
      "hit": false,
      "t": 66900,
      "d": 100,
      "v": 127
    },
    {
      "midi": 53,
      "hit": false,
      "t": 66900,
      "d": 100,
      "v": 127
    },
    {
      "midi": 71,
      "hit": false,
      "t": 67100,
      "d": 100,
      "v": 127
    },
    {
      "midi": 55,
      "hit": false,
      "t": 67100,
      "d": 100,
      "v": 127
    },
    {
      "midi": 73,
      "hit": false,
      "t": 67200,
      "d": 200,
      "v": 127
    },
    {
      "midi": 57,
      "hit": false,
      "t": 67200,
      "d": 800,
      "v": 127
    },
    {
      "midi": 69,
      "hit": false,
      "t": 67400,
      "d": 200,
      "v": 127
    },
    {
      "midi": 71,
      "hit": false,
      "t": 67600,
      "d": 200,
      "v": 127
    },
    {
      "midi": 73,
      "hit": false,
      "t": 67800,
      "d": 200,
      "v": 127
    },
    {
      "midi": 74,
      "hit": false,
      "t": 68000,
      "d": 200,
      "v": 127
    },
    {
      "midi": 76,
      "hit": false,
      "t": 68200,
      "d": 200,
      "v": 127
    },
    {
      "midi": 55,
      "hit": false,
      "t": 68200,
      "d": 200,
      "v": 127
    },
    {
      "midi": 77,
      "hit": false,
      "t": 68400,
      "d": 200,
      "v": 127
    },
    {
      "midi": 53,
      "hit": false,
      "t": 68400,
      "d": 200,
      "v": 127
    },
    {
      "midi": 79,
      "hit": false,
      "t": 68600,
      "d": 200,
      "v": 127
    },
    {
      "midi": 52,
      "hit": false,
      "t": 68600,
      "d": 200,
      "v": 127
    },
    {
      "midi": 81,
      "hit": false,
      "t": 68800,
      "d": 200,
      "v": 127
    },
    {
      "midi": 53,
      "hit": false,
      "t": 68800,
      "d": 800,
      "v": 127
    },
    {
      "midi": 79,
      "hit": false,
      "t": 69000,
      "d": 200,
      "v": 127
    },
    {
      "midi": 77,
      "hit": false,
      "t": 69200,
      "d": 200,
      "v": 127
    },
    {
      "midi": 76,
      "hit": false,
      "t": 69400,
      "d": 200,
      "v": 127
    },
    {
      "midi": 74,
      "hit": false,
      "t": 69600,
      "d": 600,
      "v": 127
    },
    {
      "midi": 52,
      "hit": false,
      "t": 69800,
      "d": 200,
      "v": 127
    },
    {
      "midi": 50,
      "hit": false,
      "t": 70000,
      "d": 200,
      "v": 127
    },
    {
      "midi": 76,
      "hit": false,
      "t": 70200,
      "d": 200,
      "v": 127
    },
    {
      "midi": 49,
      "hit": false,
      "t": 70200,
      "d": 200,
      "v": 127
    },
    {
      "midi": 77,
      "hit": false,
      "t": 70400,
      "d": 200,
      "v": 127
    },
    {
      "midi": 50,
      "hit": false,
      "t": 70400,
      "d": 400,
      "v": 127
    },
    {
      "midi": 76,
      "hit": false,
      "t": 70600,
      "d": 200,
      "v": 127
    },
    {
      "midi": 74,
      "hit": false,
      "t": 70800,
      "d": 200,
      "v": 127
    },
    {
      "midi": 52,
      "hit": false,
      "t": 70800,
      "d": 200,
      "v": 127
    },
    {
      "midi": 72,
      "hit": false,
      "t": 71000,
      "d": 200,
      "v": 127
    },
    {
      "midi": 53,
      "hit": false,
      "t": 71000,
      "d": 200,
      "v": 127
    },
    {
      "midi": 70,
      "hit": false,
      "t": 71200,
      "d": 200,
      "v": 127
    },
    {
      "midi": 55,
      "hit": false,
      "t": 71200,
      "d": 200,
      "v": 127
    },
    {
      "midi": 72,
      "hit": false,
      "t": 71400,
      "d": 200,
      "v": 127
    },
    {
      "midi": 57,
      "hit": false,
      "t": 71400,
      "d": 200,
      "v": 127
    },
    {
      "midi": 74,
      "hit": false,
      "t": 71600,
      "d": 200,
      "v": 127
    },
    {
      "midi": 58,
      "hit": false,
      "t": 71600,
      "d": 400,
      "v": 127
    },
    {
      "midi": 70,
      "hit": false,
      "t": 71800,
      "d": 200,
      "v": 127
    },
    {
      "midi": 67,
      "hit": false,
      "t": 72000,
      "d": 200,
      "v": 127
    },
    {
      "midi": 58,
      "hit": false,
      "t": 72000,
      "d": 400,
      "v": 127
    },
    {
      "midi": 69,
      "hit": false,
      "t": 72200,
      "d": 200,
      "v": 127
    },
    {
      "midi": 70,
      "hit": false,
      "t": 72400,
      "d": 200,
      "v": 127
    },
    {
      "midi": 49,
      "hit": false,
      "t": 72400,
      "d": 600,
      "v": 127
    },
    {
      "midi": 64,
      "hit": false,
      "t": 72600,
      "d": 200,
      "v": 127
    },
    {
      "midi": 76,
      "hit": false,
      "t": 72800,
      "d": 200,
      "v": 127
    },
    {
      "midi": 73,
      "hit": false,
      "t": 73000,
      "d": 200,
      "v": 127
    },
    {
      "midi": 45,
      "hit": false,
      "t": 73000,
      "d": 200,
      "v": 127
    },
    {
      "midi": 74,
      "hit": false,
      "t": 73200,
      "d": 200,
      "v": 127
    },
    {
      "midi": 47,
      "hit": false,
      "t": 73200,
      "d": 200,
      "v": 127
    },
    {
      "midi": 76,
      "hit": false,
      "t": 73400,
      "d": 200,
      "v": 127
    },
    {
      "midi": 49,
      "hit": false,
      "t": 73400,
      "d": 200,
      "v": 127
    },
    {
      "midi": 65,
      "hit": false,
      "t": 73600,
      "d": 200,
      "v": 127
    },
    {
      "midi": 50,
      "hit": false,
      "t": 73600,
      "d": 200,
      "v": 127
    },
    {
      "midi": 69,
      "hit": false,
      "t": 73800,
      "d": 200,
      "v": 127
    },
    {
      "midi": 49,
      "hit": false,
      "t": 73800,
      "d": 200,
      "v": 127
    },
    {
      "midi": 74,
      "hit": false,
      "t": 74000,
      "d": 400,
      "v": 127
    },
    {
      "midi": 47,
      "hit": false,
      "t": 74000,
      "d": 200,
      "v": 127
    },
    {
      "midi": 45,
      "hit": false,
      "t": 74200,
      "d": 200,
      "v": 127
    },
    {
      "midi": 67,
      "hit": false,
      "t": 74400,
      "d": 200,
      "v": 127
    },
    {
      "midi": 52,
      "hit": false,
      "t": 74400,
      "d": 200,
      "v": 127
    },
    {
      "midi": 70,
      "hit": false,
      "t": 74600,
      "d": 200,
      "v": 127
    },
    {
      "midi": 49,
      "hit": false,
      "t": 74600,
      "d": 200,
      "v": 127
    },
    {
      "midi": 76,
      "hit": false,
      "t": 74800,
      "d": 400,
      "v": 127
    },
    {
      "midi": 47,
      "hit": false,
      "t": 74800,
      "d": 200,
      "v": 127
    },
    {
      "midi": 45,
      "hit": false,
      "t": 75000,
      "d": 200,
      "v": 127
    },
    {
      "midi": 69,
      "hit": false,
      "t": 75200,
      "d": 200,
      "v": 127
    },
    {
      "midi": 53,
      "hit": false,
      "t": 75200,
      "d": 200,
      "v": 127
    },
    {
      "midi": 73,
      "hit": false,
      "t": 75400,
      "d": 200,
      "v": 127
    },
    {
      "midi": 52,
      "hit": false,
      "t": 75400,
      "d": 200,
      "v": 127
    },
    {
      "midi": 74,
      "hit": false,
      "t": 75600,
      "d": 200,
      "v": 127
    },
    {
      "midi": 50,
      "hit": false,
      "t": 75600,
      "d": 600,
      "v": 127
    },
    {
      "midi": 76,
      "hit": false,
      "t": 75800,
      "d": 200,
      "v": 127
    },
    {
      "midi": 77,
      "hit": false,
      "t": 76000,
      "d": 200,
      "v": 127
    },
    {
      "midi": 74,
      "hit": false,
      "t": 76200,
      "d": 200,
      "v": 127
    },
    {
      "midi": 58,
      "hit": false,
      "t": 76200,
      "d": 200,
      "v": 127
    },
    {
      "midi": 73,
      "hit": false,
      "t": 76400,
      "d": 200,
      "v": 127
    },
    {
      "midi": 57,
      "hit": false,
      "t": 76400,
      "d": 200,
      "v": 127
    },
    {
      "midi": 71,
      "hit": false,
      "t": 76600,
      "d": 200,
      "v": 127
    },
    {
      "midi": 56,
      "hit": false,
      "t": 76600,
      "d": 200,
      "v": 127
    },
    {
      "midi": 73,
      "hit": false,
      "t": 76800,
      "d": 400,
      "v": 127
    },
    {
      "midi": 57,
      "hit": false,
      "t": 76800,
      "d": 200,
      "v": 127
    },
    {
      "midi": 53,
      "hit": false,
      "t": 77000,
      "d": 200,
      "v": 127
    },
    {
      "midi": 77,
      "hit": false,
      "t": 77200,
      "d": 400,
      "v": 127
    },
    {
      "midi": 52,
      "hit": false,
      "t": 77200,
      "d": 200,
      "v": 127
    },
    {
      "midi": 50,
      "hit": false,
      "t": 77400,
      "d": 200,
      "v": 127
    },
    {
      "midi": 74,
      "hit": false,
      "t": 77600,
      "d": 400,
      "v": 127
    },
    {
      "midi": 53,
      "hit": false,
      "t": 77600,
      "d": 200,
      "v": 127
    },
    {
      "midi": 52,
      "hit": false,
      "t": 77800,
      "d": 200,
      "v": 127
    },
    {
      "midi": 76,
      "hit": false,
      "t": 78000,
      "d": 400,
      "v": 127
    },
    {
      "midi": 50,
      "hit": false,
      "t": 78000,
      "d": 200,
      "v": 127
    },
    {
      "midi": 49,
      "hit": false,
      "t": 78200,
      "d": 200,
      "v": 127
    },
    {
      "midi": 77,
      "hit": false,
      "t": 78400,
      "d": 100,
      "v": 127
    },
    {
      "midi": 50,
      "hit": false,
      "t": 78400,
      "d": 800,
      "v": 127
    },
    {
      "midi": 79,
      "hit": false,
      "t": 78500,
      "d": 100,
      "v": 127
    },
    {
      "midi": 77,
      "hit": false,
      "t": 78700,
      "d": 100,
      "v": 127
    },
    {
      "midi": 76,
      "hit": false,
      "t": 78800,
      "d": 100,
      "v": 127
    },
    {
      "midi": 77,
      "hit": false,
      "t": 78900,
      "d": 100,
      "v": 127
    },
    {
      "midi": 79,
      "hit": false,
      "t": 79100,
      "d": 100,
      "v": 127
    },
    {
      "midi": 81,
      "hit": false,
      "t": 79200,
      "d": 600,
      "v": 127
    },
    {
      "midi": 45,
      "hit": false,
      "t": 79200,
      "d": 100,
      "v": 127
    },
    {
      "midi": 46,
      "hit": false,
      "t": 79300,
      "d": 100,
      "v": 127
    },
    {
      "midi": 45,
      "hit": false,
      "t": 79500,
      "d": 100,
      "v": 127
    },
    {
      "midi": 43,
      "hit": false,
      "t": 79600,
      "d": 100,
      "v": 127
    },
    {
      "midi": 45,
      "hit": false,
      "t": 79700,
      "d": 100,
      "v": 127
    },
    {
      "midi": 79,
      "hit": false,
      "t": 79800,
      "d": 100,
      "v": 127
    },
    {
      "midi": 77,
      "hit": false,
      "t": 79900,
      "d": 100,
      "v": 127
    },
    {
      "midi": 47,
      "hit": false,
      "t": 79900,
      "d": 100,
      "v": 127
    },
    {
      "midi": 76,
      "hit": false,
      "t": 80000,
      "d": 200,
      "v": 127
    },
    {
      "midi": 49,
      "hit": false,
      "t": 80000,
      "d": 200,
      "v": 127
    },
    {
      "midi": 73,
      "hit": false,
      "t": 80200,
      "d": 200,
      "v": 127
    },
    {
      "midi": 45,
      "hit": false,
      "t": 80200,
      "d": 200,
      "v": 127
    },
    {
      "midi": 74,
      "hit": false,
      "t": 80400,
      "d": 200,
      "v": 127
    },
    {
      "midi": 47,
      "hit": false,
      "t": 80400,
      "d": 200,
      "v": 127
    },
    {
      "midi": 76,
      "hit": false,
      "t": 80600,
      "d": 200,
      "v": 127
    },
    {
      "midi": 49,
      "hit": false,
      "t": 80600,
      "d": 200,
      "v": 127
    },
    {
      "midi": 77,
      "hit": false,
      "t": 80800,
      "d": 600,
      "v": 127
    },
    {
      "midi": 50,
      "hit": false,
      "t": 80800,
      "d": 200,
      "v": 127
    },
    {
      "midi": 52,
      "hit": false,
      "t": 81000,
      "d": 200,
      "v": 127
    },
    {
      "midi": 53,
      "hit": false,
      "t": 81200,
      "d": 200,
      "v": 127
    },
    {
      "midi": 76,
      "hit": false,
      "t": 81400,
      "d": 100,
      "v": 127
    },
    {
      "midi": 55,
      "hit": false,
      "t": 81400,
      "d": 200,
      "v": 127
    },
    {
      "midi": 74,
      "hit": false,
      "t": 81500,
      "d": 100,
      "v": 127
    },
    {
      "midi": 73,
      "hit": false,
      "t": 81600,
      "d": 400,
      "v": 127
    },
    {
      "midi": 57,
      "hit": false,
      "t": 81600,
      "d": 200,
      "v": 127
    },
    {
      "midi": 55,
      "hit": false,
      "t": 81800,
      "d": 200,
      "v": 127
    },
    {
      "midi": 69,
      "hit": false,
      "t": 82000,
      "d": 600,
      "v": 127
    },
    {
      "midi": 53,
      "hit": false,
      "t": 82000,
      "d": 200,
      "v": 127
    },
    {
      "midi": 52,
      "hit": false,
      "t": 82200,
      "d": 200,
      "v": 127
    },
    {
      "midi": 50,
      "hit": false,
      "t": 82400,
      "d": 600,
      "v": 127
    },
    {
      "midi": 74,
      "hit": false,
      "t": 82600,
      "d": 200,
      "v": 127
    },
    {
      "midi": 72,
      "hit": false,
      "t": 82800,
      "d": 200,
      "v": 127
    },
    {
      "midi": 70,
      "hit": false,
      "t": 83000,
      "d": 200,
      "v": 127
    },
    {
      "midi": 52,
      "hit": false,
      "t": 83000,
      "d": 200,
      "v": 127
    },
    {
      "midi": 69,
      "hit": false,
      "t": 83200,
      "d": 400,
      "v": 127
    },
    {
      "midi": 53,
      "hit": false,
      "t": 83200,
      "d": 200,
      "v": 127
    },
    {
      "midi": 52,
      "hit": false,
      "t": 83400,
      "d": 200,
      "v": 127
    },
    {
      "midi": 65,
      "hit": false,
      "t": 83600,
      "d": 200,
      "v": 127
    },
    {
      "midi": 50,
      "hit": false,
      "t": 83600,
      "d": 200,
      "v": 127
    },
    {
      "midi": 69,
      "hit": false,
      "t": 83800,
      "d": 200,
      "v": 127
    },
    {
      "midi": 48,
      "hit": false,
      "t": 83800,
      "d": 200,
      "v": 127
    },
    {
      "midi": 74,
      "hit": false,
      "t": 84000,
      "d": 400,
      "v": 127
    },
    {
      "midi": 46,
      "hit": false,
      "t": 84000,
      "d": 200,
      "v": 127
    },
    {
      "midi": 48,
      "hit": false,
      "t": 84200,
      "d": 200,
      "v": 127
    },
    {
      "midi": 66,
      "hit": false,
      "t": 84400,
      "d": 400,
      "v": 127
    },
    {
      "midi": 50,
      "hit": false,
      "t": 84400,
      "d": 200,
      "v": 127
    },
    {
      "midi": 46,
      "hit": false,
      "t": 84600,
      "d": 200,
      "v": 127
    },
    {
      "midi": 67,
      "hit": false,
      "t": 84800,
      "d": 400,
      "v": 127
    },
    {
      "midi": 43,
      "hit": false,
      "t": 84800,
      "d": 200,
      "v": 127
    },
    {
      "midi": 45,
      "hit": false,
      "t": 85000,
      "d": 200,
      "v": 127
    },
    {
      "midi": 62,
      "hit": false,
      "t": 85200,
      "d": 600,
      "v": 127
    },
    {
      "midi": 46,
      "hit": false,
      "t": 85200,
      "d": 200,
      "v": 127
    },
    {
      "midi": 40,
      "hit": false,
      "t": 85400,
      "d": 200,
      "v": 127
    },
    {
      "midi": 52,
      "hit": false,
      "t": 85600,
      "d": 200,
      "v": 127
    },
    {
      "midi": 64,
      "hit": false,
      "t": 85800,
      "d": 200,
      "v": 127
    },
    {
      "midi": 49,
      "hit": false,
      "t": 85800,
      "d": 200,
      "v": 127
    },
    {
      "midi": 65,
      "hit": false,
      "t": 86000,
      "d": 200,
      "v": 127
    },
    {
      "midi": 50,
      "hit": false,
      "t": 86000,
      "d": 200,
      "v": 127
    },
    {
      "midi": 67,
      "hit": false,
      "t": 86200,
      "d": 200,
      "v": 127
    },
    {
      "midi": 52,
      "hit": false,
      "t": 86200,
      "d": 200,
      "v": 127
    },
    {
      "midi": 69,
      "hit": false,
      "t": 86400,
      "d": 200,
      "v": 127
    },
    {
      "midi": 41,
      "hit": false,
      "t": 86400,
      "d": 200,
      "v": 127
    },
    {
      "midi": 67,
      "hit": false,
      "t": 86600,
      "d": 200,
      "v": 127
    },
    {
      "midi": 45,
      "hit": false,
      "t": 86600,
      "d": 200,
      "v": 127
    },
    {
      "midi": 65,
      "hit": false,
      "t": 86800,
      "d": 200,
      "v": 127
    },
    {
      "midi": 50,
      "hit": false,
      "t": 86800,
      "d": 400,
      "v": 127
    },
    {
      "midi": 69,
      "hit": false,
      "t": 87000,
      "d": 200,
      "v": 127
    },
    {
      "midi": 70,
      "hit": false,
      "t": 87200,
      "d": 200,
      "v": 127
    },
    {
      "midi": 43,
      "hit": false,
      "t": 87200,
      "d": 200,
      "v": 127
    },
    {
      "midi": 69,
      "hit": false,
      "t": 87400,
      "d": 200,
      "v": 127
    },
    {
      "midi": 46,
      "hit": false,
      "t": 87400,
      "d": 200,
      "v": 127
    },
    {
      "midi": 67,
      "hit": false,
      "t": 87600,
      "d": 200,
      "v": 127
    },
    {
      "midi": 52,
      "hit": false,
      "t": 87600,
      "d": 400,
      "v": 127
    },
    {
      "midi": 70,
      "hit": false,
      "t": 87800,
      "d": 200,
      "v": 127
    },
    {
      "midi": 72,
      "hit": false,
      "t": 88000,
      "d": 200,
      "v": 127
    },
    {
      "midi": 45,
      "hit": false,
      "t": 88000,
      "d": 200,
      "v": 127
    },
    {
      "midi": 70,
      "hit": false,
      "t": 88200,
      "d": 200,
      "v": 127
    },
    {
      "midi": 48,
      "hit": false,
      "t": 88200,
      "d": 200,
      "v": 127
    },
    {
      "midi": 69,
      "hit": false,
      "t": 88400,
      "d": 200,
      "v": 127
    },
    {
      "midi": 50,
      "hit": false,
      "t": 88400,
      "d": 200,
      "v": 127
    },
    {
      "midi": 67,
      "hit": false,
      "t": 88600,
      "d": 200,
      "v": 127
    },
    {
      "midi": 52,
      "hit": false,
      "t": 88600,
      "d": 200,
      "v": 127
    },
    {
      "midi": 69,
      "hit": false,
      "t": 88800,
      "d": 200,
      "v": 127
    },
    {
      "midi": 53,
      "hit": false,
      "t": 88800,
      "d": 200,
      "v": 127
    },
    {
      "midi": 77,
      "hit": false,
      "t": 89000,
      "d": 200,
      "v": 127
    },
    {
      "midi": 50,
      "hit": false,
      "t": 89000,
      "d": 200,
      "v": 127
    },
    {
      "midi": 76,
      "hit": false,
      "t": 89200,
      "d": 200,
      "v": 127
    },
    {
      "midi": 48,
      "hit": false,
      "t": 89200,
      "d": 200,
      "v": 127
    },
    {
      "midi": 74,
      "hit": false,
      "t": 89400,
      "d": 200,
      "v": 127
    },
    {
      "midi": 47,
      "hit": false,
      "t": 89400,
      "d": 200,
      "v": 127
    },
    {
      "midi": 76,
      "hit": false,
      "t": 89600,
      "d": 200,
      "v": 127
    },
    {
      "midi": 48,
      "hit": false,
      "t": 89600,
      "d": 400,
      "v": 127
    },
    {
      "midi": 72,
      "hit": false,
      "t": 89800,
      "d": 200,
      "v": 127
    },
    {
      "midi": 69,
      "hit": false,
      "t": 90000,
      "d": 200,
      "v": 127
    },
    {
      "midi": 53,
      "hit": false,
      "t": 90000,
      "d": 400,
      "v": 127
    },
    {
      "midi": 72,
      "hit": false,
      "t": 90200,
      "d": 200,
      "v": 127
    },
    {
      "midi": 65,
      "hit": false,
      "t": 90400,
      "d": 200,
      "v": 127
    },
    {
      "midi": 50,
      "hit": false,
      "t": 90400,
      "d": 400,
      "v": 127
    },
    {
      "midi": 69,
      "hit": false,
      "t": 90600,
      "d": 200,
      "v": 127
    },
    {
      "midi": 67,
      "hit": false,
      "t": 90800,
      "d": 200,
      "v": 127
    },
    {
      "midi": 52,
      "hit": false,
      "t": 90800,
      "d": 400,
      "v": 127
    },
    {
      "midi": 70,
      "hit": false,
      "t": 91000,
      "d": 200,
      "v": 127
    },
    {
      "midi": 69,
      "hit": false,
      "t": 91200,
      "d": 800,
      "v": 127
    },
    {
      "midi": 53,
      "hit": false,
      "t": 91200,
      "d": 100,
      "v": 127
    },
    {
      "midi": 55,
      "hit": false,
      "t": 91300,
      "d": 100,
      "v": 127
    },
    {
      "midi": 53,
      "hit": false,
      "t": 91500,
      "d": 100,
      "v": 127
    },
    {
      "midi": 52,
      "hit": false,
      "t": 91600,
      "d": 100,
      "v": 127
    },
    {
      "midi": 53,
      "hit": false,
      "t": 91700,
      "d": 100,
      "v": 127
    },
    {
      "midi": 55,
      "hit": false,
      "t": 91900,
      "d": 100,
      "v": 127
    },
    {
      "midi": 76,
      "hit": false,
      "t": 92000,
      "d": 100,
      "v": 127
    },
    {
      "midi": 57,
      "hit": false,
      "t": 92000,
      "d": 600,
      "v": 127
    },
    {
      "midi": 77,
      "hit": false,
      "t": 92100,
      "d": 100,
      "v": 127
    },
    {
      "midi": 76,
      "hit": false,
      "t": 92300,
      "d": 100,
      "v": 127
    },
    {
      "midi": 74,
      "hit": false,
      "t": 92400,
      "d": 100,
      "v": 127
    },
    {
      "midi": 76,
      "hit": false,
      "t": 92500,
      "d": 100,
      "v": 127
    },
    {
      "midi": 55,
      "hit": false,
      "t": 92600,
      "d": 100,
      "v": 127
    },
    {
      "midi": 77,
      "hit": false,
      "t": 92700,
      "d": 100,
      "v": 127
    },
    {
      "midi": 53,
      "hit": false,
      "t": 92700,
      "d": 100,
      "v": 127
    },
    {
      "midi": 79,
      "hit": false,
      "t": 92800,
      "d": 400,
      "v": 127
    },
    {
      "midi": 52,
      "hit": false,
      "t": 92800,
      "d": 200,
      "v": 127
    },
    {
      "midi": 48,
      "hit": false,
      "t": 93000,
      "d": 200,
      "v": 127
    },
    {
      "midi": 50,
      "hit": false,
      "t": 93200,
      "d": 200,
      "v": 127
    },
    {
      "midi": 77,
      "hit": false,
      "t": 93300,
      "d": 100,
      "v": 127
    },
    {
      "midi": 76,
      "hit": false,
      "t": 93400,
      "d": 100,
      "v": 127
    },
    {
      "midi": 52,
      "hit": false,
      "t": 93400,
      "d": 200,
      "v": 127
    },
    {
      "midi": 74,
      "hit": false,
      "t": 93500,
      "d": 100,
      "v": 127
    },
    {
      "midi": 72,
      "hit": false,
      "t": 93600,
      "d": 100,
      "v": 127
    },
    {
      "midi": 53,
      "hit": false,
      "t": 93600,
      "d": 600,
      "v": 127
    },
    {
      "midi": 74,
      "hit": false,
      "t": 93700,
      "d": 100,
      "v": 127
    },
    {
      "midi": 72,
      "hit": false,
      "t": 93900,
      "d": 100,
      "v": 127
    },
    {
      "midi": 71,
      "hit": false,
      "t": 94000,
      "d": 100,
      "v": 127
    },
    {
      "midi": 72,
      "hit": false,
      "t": 94100,
      "d": 100,
      "v": 127
    },
    {
      "midi": 52,
      "hit": false,
      "t": 94200,
      "d": 100,
      "v": 127
    },
    {
      "midi": 74,
      "hit": false,
      "t": 94300,
      "d": 100,
      "v": 127
    },
    {
      "midi": 50,
      "hit": false,
      "t": 94300,
      "d": 100,
      "v": 127
    },
    {
      "midi": 76,
      "hit": false,
      "t": 94400,
      "d": 200,
      "v": 127
    },
    {
      "midi": 49,
      "hit": false,
      "t": 94400,
      "d": 400,
      "v": 127
    },
    {
      "midi": 74,
      "hit": false,
      "t": 94600,
      "d": 200,
      "v": 127
    },
    {
      "midi": 73,
      "hit": false,
      "t": 94800,
      "d": 200,
      "v": 127
    },
    {
      "midi": 45,
      "hit": false,
      "t": 94800,
      "d": 600,
      "v": 127
    },
    {
      "midi": 71,
      "hit": false,
      "t": 95000,
      "d": 200,
      "v": 127
    },
    {
      "midi": 69,
      "hit": false,
      "t": 95200,
      "d": 600,
      "v": 127
    },
    {
      "midi": 50,
      "hit": false,
      "t": 95400,
      "d": 200,
      "v": 127
    },
    {
      "midi": 48,
      "hit": false,
      "t": 95600,
      "d": 200,
      "v": 127
    },
    {
      "midi": 70,
      "hit": false,
      "t": 95800,
      "d": 200,
      "v": 127
    },
    {
      "midi": 46,
      "hit": false,
      "t": 95800,
      "d": 200,
      "v": 127
    },
    {
      "midi": 72,
      "hit": false,
      "t": 96000,
      "d": 200,
      "v": 127
    },
    {
      "midi": 45,
      "hit": false,
      "t": 96000,
      "d": 400,
      "v": 127
    },
    {
      "midi": 70,
      "hit": false,
      "t": 96200,
      "d": 200,
      "v": 127
    },
    {
      "midi": 69,
      "hit": false,
      "t": 96400,
      "d": 200,
      "v": 127
    },
    {
      "midi": 41,
      "hit": false,
      "t": 96400,
      "d": 200,
      "v": 127
    },
    {
      "midi": 67,
      "hit": false,
      "t": 96600,
      "d": 200,
      "v": 127
    },
    {
      "midi": 45,
      "hit": false,
      "t": 96600,
      "d": 200,
      "v": 127
    },
    {
      "midi": 65,
      "hit": false,
      "t": 96800,
      "d": 200,
      "v": 127
    },
    {
      "midi": 50,
      "hit": false,
      "t": 96800,
      "d": 400,
      "v": 127
    },
    {
      "midi": 67,
      "hit": false,
      "t": 97000,
      "d": 200,
      "v": 127
    },
    {
      "midi": 69,
      "hit": false,
      "t": 97200,
      "d": 200,
      "v": 127
    },
    {
      "midi": 41,
      "hit": false,
      "t": 97200,
      "d": 400,
      "v": 127
    },
    {
      "midi": 65,
      "hit": false,
      "t": 97400,
      "d": 200,
      "v": 127
    },
    {
      "midi": 70,
      "hit": false,
      "t": 97600,
      "d": 200,
      "v": 127
    },
    {
      "midi": 43,
      "hit": false,
      "t": 97600,
      "d": 400,
      "v": 127
    },
    {
      "midi": 67,
      "hit": false,
      "t": 97800,
      "d": 200,
      "v": 127
    },
    {
      "midi": 65,
      "hit": false,
      "t": 98000,
      "d": 200,
      "v": 127
    },
    {
      "midi": 38,
      "hit": false,
      "t": 98000,
      "d": 600,
      "v": 127
    },
    {
      "midi": 64,
      "hit": false,
      "t": 98200,
      "d": 200,
      "v": 127
    },
    {
      "midi": 62,
      "hit": false,
      "t": 98400,
      "d": 800,
      "v": 127
    },
    {
      "midi": 40,
      "hit": false,
      "t": 98600,
      "d": 200,
      "v": 127
    },
    {
      "midi": 41,
      "hit": false,
      "t": 98800,
      "d": 200,
      "v": 127
    },
    {
      "midi": 43,
      "hit": false,
      "t": 99000,
      "d": 200,
      "v": 127
    },
    {
      "midi": 45,
      "hit": false,
      "t": 99200,
      "d": 200,
      "v": 127
    },
    {
      "midi": 43,
      "hit": false,
      "t": 99400,
      "d": 200,
      "v": 127
    },
    {
      "midi": 69,
      "hit": false,
      "t": 99600,
      "d": 400,
      "v": 127
    },
    {
      "midi": 41,
      "hit": false,
      "t": 99600,
      "d": 200,
      "v": 127
    },
    {
      "midi": 45,
      "hit": false,
      "t": 99800,
      "d": 200,
      "v": 127
    },
    {
      "midi": 62,
      "hit": false,
      "t": 100000,
      "d": 200,
      "v": 127
    },
    {
      "midi": 46,
      "hit": false,
      "t": 100000,
      "d": 200,
      "v": 127
    },
    {
      "midi": 65,
      "hit": false,
      "t": 100200,
      "d": 200,
      "v": 127
    },
    {
      "midi": 45,
      "hit": false,
      "t": 100200,
      "d": 200,
      "v": 127
    },
    {
      "midi": 70,
      "hit": false,
      "t": 100400,
      "d": 400,
      "v": 127
    },
    {
      "midi": 43,
      "hit": false,
      "t": 100400,
      "d": 200,
      "v": 127
    },
    {
      "midi": 46,
      "hit": false,
      "t": 100600,
      "d": 200,
      "v": 127
    },
    {
      "midi": 64,
      "hit": false,
      "t": 100800,
      "d": 200,
      "v": 127
    },
    {
      "midi": 48,
      "hit": false,
      "t": 100800,
      "d": 200,
      "v": 127
    },
    {
      "midi": 67,
      "hit": false,
      "t": 101000,
      "d": 200,
      "v": 127
    },
    {
      "midi": 46,
      "hit": false,
      "t": 101000,
      "d": 200,
      "v": 127
    },
    {
      "midi": 72,
      "hit": false,
      "t": 101200,
      "d": 600,
      "v": 127
    },
    {
      "midi": 45,
      "hit": false,
      "t": 101200,
      "d": 200,
      "v": 127
    },
    {
      "midi": 43,
      "hit": false,
      "t": 101400,
      "d": 200,
      "v": 127
    },
    {
      "midi": 45,
      "hit": false,
      "t": 101600,
      "d": 200,
      "v": 127
    },
    {
      "midi": 69,
      "hit": false,
      "t": 101800,
      "d": 200,
      "v": 127
    },
    {
      "midi": 53,
      "hit": false,
      "t": 101800,
      "d": 200,
      "v": 127
    },
    {
      "midi": 67,
      "hit": false,
      "t": 102000,
      "d": 200,
      "v": 127
    },
    {
      "midi": 51,
      "hit": false,
      "t": 102000,
      "d": 200,
      "v": 127
    },
    {
      "midi": 66,
      "hit": false,
      "t": 102200,
      "d": 200,
      "v": 127
    },
    {
      "midi": 50,
      "hit": false,
      "t": 102200,
      "d": 200,
      "v": 127
    },
    {
      "midi": 67,
      "hit": false,
      "t": 102400,
      "d": 400,
      "v": 127
    },
    {
      "midi": 51,
      "hit": false,
      "t": 102400,
      "d": 200,
      "v": 127
    },
    {
      "midi": 48,
      "hit": false,
      "t": 102600,
      "d": 200,
      "v": 127
    },
    {
      "midi": 69,
      "hit": false,
      "t": 102800,
      "d": 800,
      "v": 127
    },
    {
      "midi": 45,
      "hit": false,
      "t": 102800,
      "d": 200,
      "v": 127
    },
    {
      "midi": 48,
      "hit": false,
      "t": 103000,
      "d": 200,
      "v": 127
    },
    {
      "midi": 42,
      "hit": false,
      "t": 103200,
      "d": 200,
      "v": 127
    },
    {
      "midi": 45,
      "hit": false,
      "t": 103400,
      "d": 200,
      "v": 127
    },
    {
      "midi": 70,
      "hit": false,
      "t": 103600,
      "d": 400,
      "v": 127
    },
    {
      "midi": 43,
      "hit": false,
      "t": 103600,
      "d": 200,
      "v": 127
    },
    {
      "midi": 46,
      "hit": false,
      "t": 103800,
      "d": 200,
      "v": 127
    },
    {
      "midi": 61,
      "hit": false,
      "t": 104000,
      "d": 200,
      "v": 127
    },
    {
      "midi": 45,
      "hit": false,
      "t": 104000,
      "d": 800,
      "v": 127
    },
    {
      "midi": 62,
      "hit": false,
      "t": 104200,
      "d": 200,
      "v": 127
    },
    {
      "midi": 64,
      "hit": false,
      "t": 104400,
      "d": 200,
      "v": 127
    },
    {
      "midi": 65,
      "hit": false,
      "t": 104600,
      "d": 200,
      "v": 127
    },
    {
      "midi": 67,
      "hit": false,
      "t": 104800,
      "d": 100,
      "v": 127
    },
    {
      "midi": 52,
      "hit": false,
      "t": 104800,
      "d": 100,
      "v": 127
    },
    {
      "midi": 69,
      "hit": false,
      "t": 104900,
      "d": 100,
      "v": 127
    },
    {
      "midi": 53,
      "hit": false,
      "t": 104900,
      "d": 100,
      "v": 127
    },
    {
      "midi": 67,
      "hit": false,
      "t": 105100,
      "d": 100,
      "v": 127
    },
    {
      "midi": 52,
      "hit": false,
      "t": 105100,
      "d": 100,
      "v": 127
    },
    {
      "midi": 65,
      "hit": false,
      "t": 105200,
      "d": 100,
      "v": 127
    },
    {
      "midi": 50,
      "hit": false,
      "t": 105200,
      "d": 100,
      "v": 127
    },
    {
      "midi": 67,
      "hit": false,
      "t": 105300,
      "d": 100,
      "v": 127
    },
    {
      "midi": 52,
      "hit": false,
      "t": 105300,
      "d": 100,
      "v": 127
    },
    {
      "midi": 69,
      "hit": false,
      "t": 105500,
      "d": 100,
      "v": 127
    },
    {
      "midi": 53,
      "hit": false,
      "t": 105500,
      "d": 100,
      "v": 127
    },
    {
      "midi": 70,
      "hit": false,
      "t": 105600,
      "d": 400,
      "v": 127
    },
    {
      "midi": 55,
      "hit": false,
      "t": 105600,
      "d": 100,
      "v": 127
    },
    {
      "midi": 57,
      "hit": false,
      "t": 105700,
      "d": 100,
      "v": 127
    },
    {
      "midi": 55,
      "hit": false,
      "t": 105900,
      "d": 100,
      "v": 127
    },
    {
      "midi": 67,
      "hit": false,
      "t": 106000,
      "d": 400,
      "v": 127
    },
    {
      "midi": 53,
      "hit": false,
      "t": 106000,
      "d": 100,
      "v": 127
    },
    {
      "midi": 55,
      "hit": false,
      "t": 106100,
      "d": 100,
      "v": 127
    },
    {
      "midi": 57,
      "hit": false,
      "t": 106300,
      "d": 100,
      "v": 127
    },
    {
      "midi": 74,
      "hit": false,
      "t": 106400,
      "d": 100,
      "v": 127
    },
    {
      "midi": 58,
      "hit": false,
      "t": 106400,
      "d": 400,
      "v": 127
    },
    {
      "midi": 76,
      "hit": false,
      "t": 106500,
      "d": 100,
      "v": 127
    },
    {
      "midi": 74,
      "hit": false,
      "t": 106700,
      "d": 100,
      "v": 127
    },
    {
      "midi": 73,
      "hit": false,
      "t": 106800,
      "d": 100,
      "v": 127
    },
    {
      "midi": 55,
      "hit": false,
      "t": 106800,
      "d": 400,
      "v": 127
    },
    {
      "midi": 74,
      "hit": false,
      "t": 106900,
      "d": 100,
      "v": 127
    },
    {
      "midi": 76,
      "hit": false,
      "t": 107100,
      "d": 100,
      "v": 127
    },
    {
      "midi": 77,
      "hit": false,
      "t": 107200,
      "d": 400,
      "v": 127
    },
    {
      "midi": 50,
      "hit": false,
      "t": 107200,
      "d": 100,
      "v": 127
    },
    {
      "midi": 52,
      "hit": false,
      "t": 107300,
      "d": 100,
      "v": 127
    },
    {
      "midi": 50,
      "hit": false,
      "t": 107500,
      "d": 100,
      "v": 127
    },
    {
      "midi": 74,
      "hit": false,
      "t": 107600,
      "d": 400,
      "v": 127
    },
    {
      "midi": 49,
      "hit": false,
      "t": 107600,
      "d": 100,
      "v": 127
    },
    {
      "midi": 50,
      "hit": false,
      "t": 107700,
      "d": 100,
      "v": 127
    },
    {
      "midi": 52,
      "hit": false,
      "t": 107900,
      "d": 100,
      "v": 127
    },
    {
      "midi": 69,
      "hit": false,
      "t": 108000,
      "d": 100,
      "v": 127
    },
    {
      "midi": 53,
      "hit": false,
      "t": 108000,
      "d": 100,
      "v": 127
    },
    {
      "midi": 71,
      "hit": false,
      "t": 108100,
      "d": 100,
      "v": 127
    },
    {
      "midi": 55,
      "hit": false,
      "t": 108100,
      "d": 100,
      "v": 127
    },
    {
      "midi": 69,
      "hit": false,
      "t": 108300,
      "d": 100,
      "v": 127
    },
    {
      "midi": 53,
      "hit": false,
      "t": 108300,
      "d": 100,
      "v": 127
    },
    {
      "midi": 68,
      "hit": false,
      "t": 108400,
      "d": 100,
      "v": 127
    },
    {
      "midi": 52,
      "hit": false,
      "t": 108400,
      "d": 100,
      "v": 127
    },
    {
      "midi": 69,
      "hit": false,
      "t": 108500,
      "d": 100,
      "v": 127
    },
    {
      "midi": 53,
      "hit": false,
      "t": 108500,
      "d": 100,
      "v": 127
    },
    {
      "midi": 71,
      "hit": false,
      "t": 108700,
      "d": 100,
      "v": 127
    },
    {
      "midi": 55,
      "hit": false,
      "t": 108700,
      "d": 100,
      "v": 127
    },
    {
      "midi": 73,
      "hit": false,
      "t": 108800,
      "d": 100,
      "v": 127
    },
    {
      "midi": 57,
      "hit": false,
      "t": 108800,
      "d": 800,
      "v": 127
    },
    {
      "midi": 74,
      "hit": false,
      "t": 108900,
      "d": 100,
      "v": 127
    },
    {
      "midi": 73,
      "hit": false,
      "t": 109100,
      "d": 100,
      "v": 127
    },
    {
      "midi": 71,
      "hit": false,
      "t": 109200,
      "d": 100,
      "v": 127
    },
    {
      "midi": 73,
      "hit": false,
      "t": 109300,
      "d": 100,
      "v": 127
    },
    {
      "midi": 74,
      "hit": false,
      "t": 109500,
      "d": 100,
      "v": 127
    },
    {
      "midi": 76,
      "hit": false,
      "t": 109600,
      "d": 200,
      "v": 127
    },
    {
      "midi": 69,
      "hit": false,
      "t": 109800,
      "d": 200,
      "v": 127
    },
    {
      "midi": 55,
      "hit": false,
      "t": 109800,
      "d": 200,
      "v": 127
    },
    {
      "midi": 81,
      "hit": false,
      "t": 110000,
      "d": 400,
      "v": 127
    },
    {
      "midi": 53,
      "hit": false,
      "t": 110000,
      "d": 200,
      "v": 127
    },
    {
      "midi": 52,
      "hit": false,
      "t": 110200,
      "d": 200,
      "v": 127
    },
    {
      "midi": 53,
      "hit": false,
      "t": 110400,
      "d": 800,
      "v": 127
    },
    {
      "midi": 79,
      "hit": false,
      "t": 110600,
      "d": 200,
      "v": 127
    },
    {
      "midi": 77,
      "hit": false,
      "t": 110800,
      "d": 200,
      "v": 127
    },
    {
      "midi": 76,
      "hit": false,
      "t": 111000,
      "d": 200,
      "v": 127
    },
    {
      "midi": 77,
      "hit": false,
      "t": 111200,
      "d": 800,
      "v": 127
    },
    {
      "midi": 52,
      "hit": false,
      "t": 111400,
      "d": 200,
      "v": 127
    },
    {
      "midi": 50,
      "hit": false,
      "t": 111600,
      "d": 200,
      "v": 127
    },
    {
      "midi": 49,
      "hit": false,
      "t": 111800,
      "d": 200,
      "v": 127
    },
    {
      "midi": 50,
      "hit": false,
      "t": 112000,
      "d": 400,
      "v": 127
    },
    {
      "midi": 76,
      "hit": false,
      "t": 112200,
      "d": 200,
      "v": 127
    },
    {
      "midi": 74,
      "hit": false,
      "t": 112400,
      "d": 200,
      "v": 127
    },
    {
      "midi": 52,
      "hit": false,
      "t": 112400,
      "d": 200,
      "v": 127
    },
    {
      "midi": 72,
      "hit": false,
      "t": 112600,
      "d": 200,
      "v": 127
    },
    {
      "midi": 53,
      "hit": false,
      "t": 112600,
      "d": 200,
      "v": 127
    },
    {
      "midi": 70,
      "hit": false,
      "t": 112800,
      "d": 200,
      "v": 127
    },
    {
      "midi": 55,
      "hit": false,
      "t": 112800,
      "d": 200,
      "v": 127
    },
    {
      "midi": 72,
      "hit": false,
      "t": 113000,
      "d": 200,
      "v": 127
    },
    {
      "midi": 57,
      "hit": false,
      "t": 113000,
      "d": 200,
      "v": 127
    },
    {
      "midi": 74,
      "hit": false,
      "t": 113200,
      "d": 200,
      "v": 127
    },
    {
      "midi": 58,
      "hit": false,
      "t": 113200,
      "d": 400,
      "v": 127
    },
    {
      "midi": 70,
      "hit": false,
      "t": 113400,
      "d": 200,
      "v": 127
    },
    {
      "midi": 67,
      "hit": false,
      "t": 113600,
      "d": 200,
      "v": 127
    },
    {
      "midi": 58,
      "hit": false,
      "t": 113600,
      "d": 400,
      "v": 127
    },
    {
      "midi": 69,
      "hit": false,
      "t": 113800,
      "d": 200,
      "v": 127
    },
    {
      "midi": 70,
      "hit": false,
      "t": 114000,
      "d": 200,
      "v": 127
    },
    {
      "midi": 49,
      "hit": false,
      "t": 114000,
      "d": 600,
      "v": 127
    },
    {
      "midi": 64,
      "hit": false,
      "t": 114200,
      "d": 200,
      "v": 127
    },
    {
      "midi": 76,
      "hit": false,
      "t": 114400,
      "d": 200,
      "v": 127
    },
    {
      "midi": 73,
      "hit": false,
      "t": 114600,
      "d": 200,
      "v": 127
    },
    {
      "midi": 45,
      "hit": false,
      "t": 114600,
      "d": 200,
      "v": 127
    },
    {
      "midi": 74,
      "hit": false,
      "t": 114800,
      "d": 200,
      "v": 127
    },
    {
      "midi": 47,
      "hit": false,
      "t": 114800,
      "d": 200,
      "v": 127
    },
    {
      "midi": 76,
      "hit": false,
      "t": 115000,
      "d": 200,
      "v": 127
    },
    {
      "midi": 49,
      "hit": false,
      "t": 115000,
      "d": 200,
      "v": 127
    },
    {
      "midi": 65,
      "hit": false,
      "t": 115200,
      "d": 200,
      "v": 127
    },
    {
      "midi": 50,
      "hit": false,
      "t": 115200,
      "d": 200,
      "v": 127
    },
    {
      "midi": 69,
      "hit": false,
      "t": 115400,
      "d": 200,
      "v": 127
    },
    {
      "midi": 49,
      "hit": false,
      "t": 115400,
      "d": 200,
      "v": 127
    },
    {
      "midi": 74,
      "hit": false,
      "t": 115600,
      "d": 400,
      "v": 127
    },
    {
      "midi": 47,
      "hit": false,
      "t": 115600,
      "d": 200,
      "v": 127
    },
    {
      "midi": 45,
      "hit": false,
      "t": 115800,
      "d": 200,
      "v": 127
    },
    {
      "midi": 67,
      "hit": false,
      "t": 116000,
      "d": 200,
      "v": 127
    },
    {
      "midi": 52,
      "hit": false,
      "t": 116000,
      "d": 200,
      "v": 127
    },
    {
      "midi": 70,
      "hit": false,
      "t": 116200,
      "d": 200,
      "v": 127
    },
    {
      "midi": 49,
      "hit": false,
      "t": 116200,
      "d": 200,
      "v": 127
    },
    {
      "midi": 76,
      "hit": false,
      "t": 116400,
      "d": 400,
      "v": 127
    },
    {
      "midi": 47,
      "hit": false,
      "t": 116400,
      "d": 200,
      "v": 127
    },
    {
      "midi": 45,
      "hit": false,
      "t": 116600,
      "d": 200,
      "v": 127
    },
    {
      "midi": 69,
      "hit": false,
      "t": 116800,
      "d": 200,
      "v": 127
    },
    {
      "midi": 53,
      "hit": false,
      "t": 116800,
      "d": 200,
      "v": 127
    },
    {
      "midi": 73,
      "hit": false,
      "t": 117000,
      "d": 200,
      "v": 127
    },
    {
      "midi": 52,
      "hit": false,
      "t": 117000,
      "d": 200,
      "v": 127
    },
    {
      "midi": 74,
      "hit": false,
      "t": 117200,
      "d": 200,
      "v": 127
    },
    {
      "midi": 50,
      "hit": false,
      "t": 117200,
      "d": 600,
      "v": 127
    },
    {
      "midi": 76,
      "hit": false,
      "t": 117400,
      "d": 200,
      "v": 127
    },
    {
      "midi": 77,
      "hit": false,
      "t": 117600,
      "d": 200,
      "v": 127
    },
    {
      "midi": 74,
      "hit": false,
      "t": 117800,
      "d": 200,
      "v": 127
    },
    {
      "midi": 58,
      "hit": false,
      "t": 117800,
      "d": 200,
      "v": 127
    },
    {
      "midi": 73,
      "hit": false,
      "t": 118000,
      "d": 200,
      "v": 127
    },
    {
      "midi": 57,
      "hit": false,
      "t": 118000,
      "d": 200,
      "v": 127
    },
    {
      "midi": 71,
      "hit": false,
      "t": 118200,
      "d": 200,
      "v": 127
    },
    {
      "midi": 56,
      "hit": false,
      "t": 118200,
      "d": 200,
      "v": 127
    },
    {
      "midi": 73,
      "hit": false,
      "t": 118400,
      "d": 400,
      "v": 127
    },
    {
      "midi": 57,
      "hit": false,
      "t": 118400,
      "d": 200,
      "v": 127
    },
    {
      "midi": 53,
      "hit": false,
      "t": 118600,
      "d": 200,
      "v": 127
    },
    {
      "midi": 77,
      "hit": false,
      "t": 118800,
      "d": 400,
      "v": 127
    },
    {
      "midi": 52,
      "hit": false,
      "t": 118800,
      "d": 200,
      "v": 127
    },
    {
      "midi": 50,
      "hit": false,
      "t": 119000,
      "d": 200,
      "v": 127
    },
    {
      "midi": 74,
      "hit": false,
      "t": 119200,
      "d": 400,
      "v": 127
    },
    {
      "midi": 53,
      "hit": false,
      "t": 119200,
      "d": 200,
      "v": 127
    },
    {
      "midi": 52,
      "hit": false,
      "t": 119400,
      "d": 200,
      "v": 127
    },
    {
      "midi": 76,
      "hit": false,
      "t": 119600,
      "d": 400,
      "v": 127
    },
    {
      "midi": 50,
      "hit": false,
      "t": 119600,
      "d": 200,
      "v": 127
    },
    {
      "midi": 49,
      "hit": false,
      "t": 119800,
      "d": 200,
      "v": 127
    },
    {
      "midi": 69,
      "hit": false,
      "t": 120000,
      "d": 100,
      "v": 127
    },
    {
      "midi": 50,
      "hit": false,
      "t": 120000,
      "d": 800,
      "v": 127
    },
    {
      "midi": 71,
      "hit": false,
      "t": 120100,
      "d": 100,
      "v": 127
    },
    {
      "midi": 69,
      "hit": false,
      "t": 120300,
      "d": 100,
      "v": 127
    },
    {
      "midi": 68,
      "hit": false,
      "t": 120400,
      "d": 100,
      "v": 127
    },
    {
      "midi": 69,
      "hit": false,
      "t": 120500,
      "d": 100,
      "v": 127
    },
    {
      "midi": 71,
      "hit": false,
      "t": 120700,
      "d": 100,
      "v": 127
    },
    {
      "midi": 72,
      "hit": false,
      "t": 120800,
      "d": 100,
      "v": 127
    },
    {
      "midi": 45,
      "hit": false,
      "t": 120800,
      "d": 100,
      "v": 127
    },
    {
      "midi": 74,
      "hit": false,
      "t": 120900,
      "d": 100,
      "v": 127
    },
    {
      "midi": 47,
      "hit": false,
      "t": 120900,
      "d": 100,
      "v": 127
    },
    {
      "midi": 72,
      "hit": false,
      "t": 121100,
      "d": 100,
      "v": 127
    },
    {
      "midi": 45,
      "hit": false,
      "t": 121100,
      "d": 100,
      "v": 127
    },
    {
      "midi": 71,
      "hit": false,
      "t": 121200,
      "d": 100,
      "v": 127
    },
    {
      "midi": 44,
      "hit": false,
      "t": 121200,
      "d": 100,
      "v": 127
    },
    {
      "midi": 72,
      "hit": false,
      "t": 121300,
      "d": 100,
      "v": 127
    },
    {
      "midi": 45,
      "hit": false,
      "t": 121300,
      "d": 100,
      "v": 127
    },
    {
      "midi": 74,
      "hit": false,
      "t": 121500,
      "d": 100,
      "v": 127
    },
    {
      "midi": 47,
      "hit": false,
      "t": 121500,
      "d": 100,
      "v": 127
    },
    {
      "midi": 76,
      "hit": false,
      "t": 121600,
      "d": 800,
      "v": 127
    },
    {
      "midi": 48,
      "hit": false,
      "t": 121600,
      "d": 200,
      "v": 127
    },
    {
      "midi": 45,
      "hit": false,
      "t": 121800,
      "d": 200,
      "v": 127
    },
    {
      "midi": 47,
      "hit": false,
      "t": 122000,
      "d": 200,
      "v": 127
    },
    {
      "midi": 48,
      "hit": false,
      "t": 122200,
      "d": 200,
      "v": 127
    },
    {
      "midi": 50,
      "hit": false,
      "t": 122400,
      "d": 200,
      "v": 127
    },
    {
      "midi": 74,
      "hit": false,
      "t": 122600,
      "d": 200,
      "v": 127
    },
    {
      "midi": 52,
      "hit": false,
      "t": 122600,
      "d": 200,
      "v": 127
    },
    {
      "midi": 72,
      "hit": false,
      "t": 122800,
      "d": 200,
      "v": 127
    },
    {
      "midi": 54,
      "hit": false,
      "t": 122800,
      "d": 200,
      "v": 127
    },
    {
      "midi": 71,
      "hit": false,
      "t": 123000,
      "d": 200,
      "v": 127
    },
    {
      "midi": 56,
      "hit": false,
      "t": 123000,
      "d": 200,
      "v": 127
    },
    {
      "midi": 72,
      "hit": false,
      "t": 123200,
      "d": 800,
      "v": 127
    },
    {
      "midi": 57,
      "hit": false,
      "t": 123200,
      "d": 200,
      "v": 127
    },
    {
      "midi": 55,
      "hit": false,
      "t": 123400,
      "d": 200,
      "v": 127
    },
    {
      "midi": 53,
      "hit": false,
      "t": 123600,
      "d": 200,
      "v": 127
    },
    {
      "midi": 52,
      "hit": false,
      "t": 123800,
      "d": 200,
      "v": 127
    },
    {
      "midi": 50,
      "hit": false,
      "t": 124000,
      "d": 600,
      "v": 127
    },
    {
      "midi": 71,
      "hit": false,
      "t": 124200,
      "d": 200,
      "v": 127
    },
    {
      "midi": 69,
      "hit": false,
      "t": 124400,
      "d": 200,
      "v": 127
    },
    {
      "midi": 68,
      "hit": false,
      "t": 124600,
      "d": 200,
      "v": 127
    },
    {
      "midi": 52,
      "hit": false,
      "t": 124600,
      "d": 200,
      "v": 127
    },
    {
      "midi": 69,
      "hit": false,
      "t": 124800,
      "d": 400,
      "v": 127
    },
    {
      "midi": 53,
      "hit": false,
      "t": 124800,
      "d": 200,
      "v": 127
    },
    {
      "midi": 52,
      "hit": false,
      "t": 125000,
      "d": 200,
      "v": 127
    },
    {
      "midi": 71,
      "hit": false,
      "t": 125200,
      "d": 200,
      "v": 127
    },
    {
      "midi": 50,
      "hit": false,
      "t": 125200,
      "d": 200,
      "v": 127
    },
    {
      "midi": 72,
      "hit": false,
      "t": 125400,
      "d": 200,
      "v": 127
    },
    {
      "midi": 48,
      "hit": false,
      "t": 125400,
      "d": 200,
      "v": 127
    },
    {
      "midi": 74,
      "hit": false,
      "t": 125600,
      "d": 200,
      "v": 127
    },
    {
      "midi": 47,
      "hit": false,
      "t": 125600,
      "d": 200,
      "v": 127
    },
    {
      "midi": 76,
      "hit": false,
      "t": 125800,
      "d": 200,
      "v": 127
    },
    {
      "midi": 48,
      "hit": false,
      "t": 125800,
      "d": 200,
      "v": 127
    },
    {
      "midi": 77,
      "hit": false,
      "t": 126000,
      "d": 400,
      "v": 127
    },
    {
      "midi": 50,
      "hit": false,
      "t": 126000,
      "d": 200,
      "v": 127
    },
    {
      "midi": 47,
      "hit": false,
      "t": 126200,
      "d": 200,
      "v": 127
    },
    {
      "midi": 77,
      "hit": false,
      "t": 126400,
      "d": 400,
      "v": 127
    },
    {
      "midi": 44,
      "hit": false,
      "t": 126400,
      "d": 200,
      "v": 127
    },
    {
      "midi": 45,
      "hit": false,
      "t": 126600,
      "d": 200,
      "v": 127
    },
    {
      "midi": 68,
      "hit": false,
      "t": 126800,
      "d": 600,
      "v": 127
    },
    {
      "midi": 47,
      "hit": false,
      "t": 126800,
      "d": 200,
      "v": 127
    },
    {
      "midi": 40,
      "hit": false,
      "t": 127000,
      "d": 200,
      "v": 127
    },
    {
      "midi": 52,
      "hit": false,
      "t": 127200,
      "d": 200,
      "v": 127
    },
    {
      "midi": 64,
      "hit": false,
      "t": 127400,
      "d": 200,
      "v": 127
    },
    {
      "midi": 48,
      "hit": false,
      "t": 127400,
      "d": 200,
      "v": 127
    },
    {
      "midi": 66,
      "hit": false,
      "t": 127600,
      "d": 200,
      "v": 127
    },
    {
      "midi": 50,
      "hit": false,
      "t": 127600,
      "d": 200,
      "v": 127
    },
    {
      "midi": 68,
      "hit": false,
      "t": 127800,
      "d": 200,
      "v": 127
    },
    {
      "midi": 52,
      "hit": false,
      "t": 127800,
      "d": 200,
      "v": 127
    },
    {
      "midi": 69,
      "hit": false,
      "t": 128000,
      "d": 200,
      "v": 127
    },
    {
      "midi": 42,
      "hit": false,
      "t": 128000,
      "d": 200,
      "v": 127
    },
    {
      "midi": 68,
      "hit": false,
      "t": 128200,
      "d": 200,
      "v": 127
    },
    {
      "midi": 45,
      "hit": false,
      "t": 128200,
      "d": 200,
      "v": 127
    },
    {
      "midi": 66,
      "hit": false,
      "t": 128400,
      "d": 200,
      "v": 127
    },
    {
      "midi": 50,
      "hit": false,
      "t": 128400,
      "d": 400,
      "v": 127
    },
    {
      "midi": 64,
      "hit": false,
      "t": 128600,
      "d": 200,
      "v": 127
    },
    {
      "midi": 71,
      "hit": false,
      "t": 128800,
      "d": 200,
      "v": 127
    },
    {
      "midi": 44,
      "hit": false,
      "t": 128800,
      "d": 200,
      "v": 127
    },
    {
      "midi": 68,
      "hit": false,
      "t": 129000,
      "d": 200,
      "v": 127
    },
    {
      "midi": 47,
      "hit": false,
      "t": 129000,
      "d": 200,
      "v": 127
    },
    {
      "midi": 66,
      "hit": false,
      "t": 129200,
      "d": 200,
      "v": 127
    },
    {
      "midi": 52,
      "hit": false,
      "t": 129200,
      "d": 400,
      "v": 127
    },
    {
      "midi": 64,
      "hit": false,
      "t": 129400,
      "d": 200,
      "v": 127
    },
    {
      "midi": 72,
      "hit": false,
      "t": 129600,
      "d": 200,
      "v": 127
    },
    {
      "midi": 45,
      "hit": false,
      "t": 129600,
      "d": 200,
      "v": 127
    },
    {
      "midi": 71,
      "hit": false,
      "t": 129800,
      "d": 200,
      "v": 127
    },
    {
      "midi": 48,
      "hit": false,
      "t": 129800,
      "d": 200,
      "v": 127
    },
    {
      "midi": 69,
      "hit": false,
      "t": 130000,
      "d": 600,
      "v": 127
    },
    {
      "midi": 50,
      "hit": false,
      "t": 130000,
      "d": 200,
      "v": 127
    },
    {
      "midi": 52,
      "hit": false,
      "t": 130200,
      "d": 200,
      "v": 127
    },
    {
      "midi": 53,
      "hit": false,
      "t": 130400,
      "d": 200,
      "v": 127
    },
    {
      "midi": 77,
      "hit": false,
      "t": 130600,
      "d": 200,
      "v": 127
    },
    {
      "midi": 50,
      "hit": false,
      "t": 130600,
      "d": 200,
      "v": 127
    },
    {
      "midi": 76,
      "hit": false,
      "t": 130800,
      "d": 200,
      "v": 127
    },
    {
      "midi": 48,
      "hit": false,
      "t": 130800,
      "d": 200,
      "v": 127
    },
    {
      "midi": 75,
      "hit": false,
      "t": 131000,
      "d": 200,
      "v": 127
    },
    {
      "midi": 47,
      "hit": false,
      "t": 131000,
      "d": 200,
      "v": 127
    },
    {
      "midi": 76,
      "hit": false,
      "t": 131200,
      "d": 200,
      "v": 127
    },
    {
      "midi": 48,
      "hit": false,
      "t": 131200,
      "d": 400,
      "v": 127
    },
    {
      "midi": 72,
      "hit": false,
      "t": 131400,
      "d": 200,
      "v": 127
    },
    {
      "midi": 71,
      "hit": false,
      "t": 131600,
      "d": 200,
      "v": 127
    },
    {
      "midi": 53,
      "hit": false,
      "t": 131600,
      "d": 400,
      "v": 127
    },
    {
      "midi": 69,
      "hit": false,
      "t": 131800,
      "d": 200,
      "v": 127
    },
    {
      "midi": 72,
      "hit": false,
      "t": 132000,
      "d": 200,
      "v": 127
    },
    {
      "midi": 50,
      "hit": false,
      "t": 132000,
      "d": 400,
      "v": 127
    },
    {
      "midi": 71,
      "hit": false,
      "t": 132200,
      "d": 200,
      "v": 127
    },
    {
      "midi": 69,
      "hit": false,
      "t": 132400,
      "d": 200,
      "v": 127
    },
    {
      "midi": 52,
      "hit": false,
      "t": 132400,
      "d": 400,
      "v": 127
    },
    {
      "midi": 68,
      "hit": false,
      "t": 132600,
      "d": 200,
      "v": 127
    },
    {
      "midi": 69,
      "hit": false,
      "t": 132800,
      "d": 800,
      "v": 127
    },
    {
      "midi": 53,
      "hit": false,
      "t": 132800,
      "d": 100,
      "v": 127
    },
    {
      "midi": 55,
      "hit": false,
      "t": 132900,
      "d": 100,
      "v": 127
    },
    {
      "midi": 53,
      "hit": false,
      "t": 133100,
      "d": 100,
      "v": 127
    },
    {
      "midi": 52,
      "hit": false,
      "t": 133200,
      "d": 100,
      "v": 127
    },
    {
      "midi": 53,
      "hit": false,
      "t": 133300,
      "d": 100,
      "v": 127
    },
    {
      "midi": 55,
      "hit": false,
      "t": 133500,
      "d": 100,
      "v": 127
    },
    {
      "midi": 64,
      "hit": false,
      "t": 133600,
      "d": 100,
      "v": 127
    },
    {
      "midi": 57,
      "hit": false,
      "t": 133600,
      "d": 600,
      "v": 127
    },
    {
      "midi": 65,
      "hit": false,
      "t": 133700,
      "d": 100,
      "v": 127
    },
    {
      "midi": 64,
      "hit": false,
      "t": 133900,
      "d": 100,
      "v": 127
    },
    {
      "midi": 62,
      "hit": false,
      "t": 134000,
      "d": 100,
      "v": 127
    },
    {
      "midi": 64,
      "hit": false,
      "t": 134100,
      "d": 100,
      "v": 127
    },
    {
      "midi": 55,
      "hit": false,
      "t": 134200,
      "d": 100,
      "v": 127
    },
    {
      "midi": 65,
      "hit": false,
      "t": 134300,
      "d": 100,
      "v": 127
    },
    {
      "midi": 53,
      "hit": false,
      "t": 134300,
      "d": 100,
      "v": 127
    },
    {
      "midi": 67,
      "hit": false,
      "t": 134400,
      "d": 200,
      "v": 127
    },
    {
      "midi": 52,
      "hit": false,
      "t": 134400,
      "d": 200,
      "v": 127
    },
    {
      "midi": 64,
      "hit": false,
      "t": 134600,
      "d": 200,
      "v": 127
    },
    {
      "midi": 48,
      "hit": false,
      "t": 134600,
      "d": 200,
      "v": 127
    },
    {
      "midi": 65,
      "hit": false,
      "t": 134800,
      "d": 200,
      "v": 127
    },
    {
      "midi": 50,
      "hit": false,
      "t": 134800,
      "d": 200,
      "v": 127
    },
    {
      "midi": 67,
      "hit": false,
      "t": 135000,
      "d": 200,
      "v": 127
    },
    {
      "midi": 52,
      "hit": false,
      "t": 135000,
      "d": 200,
      "v": 127
    },
    {
      "midi": 69,
      "hit": false,
      "t": 135200,
      "d": 200,
      "v": 127
    },
    {
      "midi": 53,
      "hit": false,
      "t": 135200,
      "d": 600,
      "v": 127
    },
    {
      "midi": 71,
      "hit": false,
      "t": 135400,
      "d": 200,
      "v": 127
    },
    {
      "midi": 73,
      "hit": false,
      "t": 135600,
      "d": 200,
      "v": 127
    },
    {
      "midi": 74,
      "hit": false,
      "t": 135800,
      "d": 200,
      "v": 127
    },
    {
      "midi": 52,
      "hit": false,
      "t": 135800,
      "d": 100,
      "v": 127
    },
    {
      "midi": 50,
      "hit": false,
      "t": 135900,
      "d": 100,
      "v": 127
    },
    {
      "midi": 76,
      "hit": false,
      "t": 136000,
      "d": 200,
      "v": 127
    },
    {
      "midi": 49,
      "hit": false,
      "t": 136000,
      "d": 400,
      "v": 127
    },
    {
      "midi": 74,
      "hit": false,
      "t": 136200,
      "d": 200,
      "v": 127
    },
    {
      "midi": 73,
      "hit": false,
      "t": 136400,
      "d": 200,
      "v": 127
    },
    {
      "midi": 45,
      "hit": false,
      "t": 136400,
      "d": 600,
      "v": 127
    },
    {
      "midi": 71,
      "hit": false,
      "t": 136600,
      "d": 200,
      "v": 127
    },
    {
      "midi": 69,
      "hit": false,
      "t": 136800,
      "d": 600,
      "v": 127
    },
    {
      "midi": 50,
      "hit": false,
      "t": 137000,
      "d": 200,
      "v": 127
    },
    {
      "midi": 48,
      "hit": false,
      "t": 137200,
      "d": 200,
      "v": 127
    },
    {
      "midi": 70,
      "hit": false,
      "t": 137400,
      "d": 200,
      "v": 127
    },
    {
      "midi": 46,
      "hit": false,
      "t": 137400,
      "d": 200,
      "v": 127
    },
    {
      "midi": 72,
      "hit": false,
      "t": 137600,
      "d": 200,
      "v": 127
    },
    {
      "midi": 45,
      "hit": false,
      "t": 137600,
      "d": 400,
      "v": 127
    },
    {
      "midi": 70,
      "hit": false,
      "t": 137800,
      "d": 200,
      "v": 127
    },
    {
      "midi": 69,
      "hit": false,
      "t": 138000,
      "d": 200,
      "v": 127
    },
    {
      "midi": 41,
      "hit": false,
      "t": 138000,
      "d": 200,
      "v": 127
    },
    {
      "midi": 67,
      "hit": false,
      "t": 138200,
      "d": 200,
      "v": 127
    },
    {
      "midi": 45,
      "hit": false,
      "t": 138200,
      "d": 200,
      "v": 127
    },
    {
      "midi": 65,
      "hit": false,
      "t": 138400,
      "d": 200,
      "v": 127
    },
    {
      "midi": 50,
      "hit": false,
      "t": 138400,
      "d": 400,
      "v": 127
    },
    {
      "midi": 67,
      "hit": false,
      "t": 138600,
      "d": 200,
      "v": 127
    },
    {
      "midi": 69,
      "hit": false,
      "t": 138800,
      "d": 200,
      "v": 127
    },
    {
      "midi": 41,
      "hit": false,
      "t": 138800,
      "d": 400,
      "v": 127
    },
    {
      "midi": 65,
      "hit": false,
      "t": 139000,
      "d": 200,
      "v": 127
    },
    {
      "midi": 62,
      "hit": false,
      "t": 139200,
      "d": 200,
      "v": 127
    },
    {
      "midi": 43,
      "hit": false,
      "t": 139200,
      "d": 400,
      "v": 127
    },
    {
      "midi": 64,
      "hit": false,
      "t": 139400,
      "d": 200,
      "v": 127
    },
    {
      "midi": 65,
      "hit": false,
      "t": 139600,
      "d": 200,
      "v": 127
    },
    {
      "midi": 38,
      "hit": false,
      "t": 139600,
      "d": 600,
      "v": 127
    },
    {
      "midi": 58,
      "hit": false,
      "t": 139800,
      "d": 200,
      "v": 127
    },
    {
      "midi": 70,
      "hit": false,
      "t": 140000,
      "d": 200,
      "v": 127
    },
    {
      "midi": 67,
      "hit": false,
      "t": 140200,
      "d": 200,
      "v": 127
    },
    {
      "midi": 40,
      "hit": false,
      "t": 140200,
      "d": 200,
      "v": 127
    },
    {
      "midi": 69,
      "hit": false,
      "t": 140400,
      "d": 200,
      "v": 127
    },
    {
      "midi": 41,
      "hit": false,
      "t": 140400,
      "d": 200,
      "v": 127
    },
    {
      "midi": 70,
      "hit": false,
      "t": 140600,
      "d": 200,
      "v": 127
    },
    {
      "midi": 43,
      "hit": false,
      "t": 140600,
      "d": 200,
      "v": 127
    },
    {
      "midi": 60,
      "hit": false,
      "t": 140800,
      "d": 200,
      "v": 127
    },
    {
      "midi": 45,
      "hit": false,
      "t": 140800,
      "d": 200,
      "v": 127
    },
    {
      "midi": 64,
      "hit": false,
      "t": 141000,
      "d": 200,
      "v": 127
    },
    {
      "midi": 43,
      "hit": false,
      "t": 141000,
      "d": 200,
      "v": 127
    },
    {
      "midi": 69,
      "hit": false,
      "t": 141200,
      "d": 400,
      "v": 127
    },
    {
      "midi": 41,
      "hit": false,
      "t": 141200,
      "d": 200,
      "v": 127
    },
    {
      "midi": 45,
      "hit": false,
      "t": 141400,
      "d": 200,
      "v": 127
    },
    {
      "midi": 62,
      "hit": false,
      "t": 141600,
      "d": 200,
      "v": 127
    },
    {
      "midi": 46,
      "hit": false,
      "t": 141600,
      "d": 200,
      "v": 127
    },
    {
      "midi": 65,
      "hit": false,
      "t": 141800,
      "d": 200,
      "v": 127
    },
    {
      "midi": 45,
      "hit": false,
      "t": 141800,
      "d": 200,
      "v": 127
    },
    {
      "midi": 70,
      "hit": false,
      "t": 142000,
      "d": 400,
      "v": 127
    },
    {
      "midi": 43,
      "hit": false,
      "t": 142000,
      "d": 200,
      "v": 127
    },
    {
      "midi": 46,
      "hit": false,
      "t": 142200,
      "d": 200,
      "v": 127
    },
    {
      "midi": 64,
      "hit": false,
      "t": 142400,
      "d": 200,
      "v": 127
    },
    {
      "midi": 48,
      "hit": false,
      "t": 142400,
      "d": 200,
      "v": 127
    },
    {
      "midi": 67,
      "hit": false,
      "t": 142600,
      "d": 200,
      "v": 127
    },
    {
      "midi": 46,
      "hit": false,
      "t": 142600,
      "d": 200,
      "v": 127
    },
    {
      "midi": 69,
      "hit": false,
      "t": 142800,
      "d": 200,
      "v": 127
    },
    {
      "midi": 45,
      "hit": false,
      "t": 142800,
      "d": 200,
      "v": 127
    },
    {
      "midi": 70,
      "hit": false,
      "t": 143000,
      "d": 200,
      "v": 127
    },
    {
      "midi": 43,
      "hit": false,
      "t": 143000,
      "d": 200,
      "v": 127
    },
    {
      "midi": 72,
      "hit": false,
      "t": 143200,
      "d": 200,
      "v": 127
    },
    {
      "midi": 45,
      "hit": false,
      "t": 143200,
      "d": 200,
      "v": 127
    },
    {
      "midi": 69,
      "hit": false,
      "t": 143400,
      "d": 200,
      "v": 127
    },
    {
      "midi": 53,
      "hit": false,
      "t": 143400,
      "d": 200,
      "v": 127
    },
    {
      "midi": 67,
      "hit": false,
      "t": 143600,
      "d": 200,
      "v": 127
    },
    {
      "midi": 52,
      "hit": false,
      "t": 143600,
      "d": 200,
      "v": 127
    },
    {
      "midi": 65,
      "hit": false,
      "t": 143800,
      "d": 200,
      "v": 127
    },
    {
      "midi": 50,
      "hit": false,
      "t": 143800,
      "d": 200,
      "v": 127
    },
    {
      "midi": 67,
      "hit": false,
      "t": 144000,
      "d": 400,
      "v": 127
    },
    {
      "midi": 52,
      "hit": false,
      "t": 144000,
      "d": 200,
      "v": 127
    },
    {
      "midi": 48,
      "hit": false,
      "t": 144200,
      "d": 200,
      "v": 127
    },
    {
      "midi": 72,
      "hit": false,
      "t": 144400,
      "d": 400,
      "v": 127
    },
    {
      "midi": 45,
      "hit": false,
      "t": 144400,
      "d": 200,
      "v": 127
    },
    {
      "midi": 48,
      "hit": false,
      "t": 144600,
      "d": 200,
      "v": 127
    },
    {
      "midi": 69,
      "hit": false,
      "t": 144800,
      "d": 400,
      "v": 127
    },
    {
      "midi": 42,
      "hit": false,
      "t": 144800,
      "d": 200,
      "v": 127
    },
    {
      "midi": 45,
      "hit": false,
      "t": 145000,
      "d": 200,
      "v": 127
    },
    {
      "midi": 71,
      "hit": false,
      "t": 145200,
      "d": 400,
      "v": 127
    },
    {
      "midi": 44,
      "hit": false,
      "t": 145200,
      "d": 200,
      "v": 127
    },
    {
      "midi": 47,
      "hit": false,
      "t": 145400,
      "d": 200,
      "v": 127
    },
    {
      "midi": 72,
      "hit": false,
      "t": 145600,
      "d": 100,
      "v": 127
    },
    {
      "midi": 45,
      "hit": false,
      "t": 145600,
      "d": 800,
      "v": 127
    },
    {
      "midi": 74,
      "hit": false,
      "t": 145700,
      "d": 100,
      "v": 127
    },
    {
      "midi": 72,
      "hit": false,
      "t": 145900,
      "d": 100,
      "v": 127
    },
    {
      "midi": 71,
      "hit": false,
      "t": 146000,
      "d": 100,
      "v": 127
    },
    {
      "midi": 72,
      "hit": false,
      "t": 146100,
      "d": 100,
      "v": 127
    },
    {
      "midi": 74,
      "hit": false,
      "t": 146300,
      "d": 100,
      "v": 127
    },
    {
      "midi": 76,
      "hit": false,
      "t": 146400,
      "d": 600,
      "v": 127
    },
    {
      "midi": 52,
      "hit": false,
      "t": 146400,
      "d": 100,
      "v": 127
    },
    {
      "midi": 53,
      "hit": false,
      "t": 146500,
      "d": 100,
      "v": 127
    },
    {
      "midi": 52,
      "hit": false,
      "t": 146700,
      "d": 100,
      "v": 127
    },
    {
      "midi": 50,
      "hit": false,
      "t": 146800,
      "d": 100,
      "v": 127
    },
    {
      "midi": 52,
      "hit": false,
      "t": 146900,
      "d": 100,
      "v": 127
    },
    {
      "midi": 74,
      "hit": false,
      "t": 147000,
      "d": 100,
      "v": 127
    },
    {
      "midi": 72,
      "hit": false,
      "t": 147100,
      "d": 100,
      "v": 127
    },
    {
      "midi": 53,
      "hit": false,
      "t": 147100,
      "d": 100,
      "v": 127
    },
    {
      "midi": 71,
      "hit": false,
      "t": 147200,
      "d": 200,
      "v": 127
    },
    {
      "midi": 55,
      "hit": false,
      "t": 147200,
      "d": 400,
      "v": 127
    },
    {
      "midi": 67,
      "hit": false,
      "t": 147400,
      "d": 200,
      "v": 127
    },
    {
      "midi": 69,
      "hit": false,
      "t": 147600,
      "d": 200,
      "v": 127
    },
    {
      "midi": 53,
      "hit": false,
      "t": 147700,
      "d": 100,
      "v": 127
    },
    {
      "midi": 71,
      "hit": false,
      "t": 147800,
      "d": 200,
      "v": 127
    },
    {
      "midi": 52,
      "hit": false,
      "t": 147800,
      "d": 100,
      "v": 127
    },
    {
      "midi": 50,
      "hit": false,
      "t": 147900,
      "d": 100,
      "v": 127
    },
    {
      "midi": 72,
      "hit": false,
      "t": 148000,
      "d": 600,
      "v": 127
    },
    {
      "midi": 48,
      "hit": false,
      "t": 148000,
      "d": 100,
      "v": 127
    },
    {
      "midi": 50,
      "hit": false,
      "t": 148100,
      "d": 100,
      "v": 127
    },
    {
      "midi": 48,
      "hit": false,
      "t": 148300,
      "d": 100,
      "v": 127
    },
    {
      "midi": 47,
      "hit": false,
      "t": 148400,
      "d": 100,
      "v": 127
    },
    {
      "midi": 48,
      "hit": false,
      "t": 148500,
      "d": 100,
      "v": 127
    },
    {
      "midi": 71,
      "hit": false,
      "t": 148600,
      "d": 100,
      "v": 127
    },
    {
      "midi": 69,
      "hit": false,
      "t": 148700,
      "d": 100,
      "v": 127
    },
    {
      "midi": 50,
      "hit": false,
      "t": 148700,
      "d": 100,
      "v": 127
    },
    {
      "midi": 68,
      "hit": false,
      "t": 148800,
      "d": 400,
      "v": 127
    },
    {
      "midi": 52,
      "hit": false,
      "t": 148800,
      "d": 200,
      "v": 127
    },
    {
      "midi": 50,
      "hit": false,
      "t": 149000,
      "d": 200,
      "v": 127
    },
    {
      "midi": 64,
      "hit": false,
      "t": 149200,
      "d": 600,
      "v": 127
    },
    {
      "midi": 48,
      "hit": false,
      "t": 149200,
      "d": 200,
      "v": 127
    },
    {
      "midi": 47,
      "hit": false,
      "t": 149400,
      "d": 200,
      "v": 127
    },
    {
      "midi": 45,
      "hit": false,
      "t": 149600,
      "d": 600,
      "v": 127
    },
    {
      "midi": 69,
      "hit": false,
      "t": 149800,
      "d": 200,
      "v": 127
    },
    {
      "midi": 67,
      "hit": false,
      "t": 150000,
      "d": 200,
      "v": 127
    },
    {
      "midi": 65,
      "hit": false,
      "t": 150200,
      "d": 200,
      "v": 127
    },
    {
      "midi": 47,
      "hit": false,
      "t": 150200,
      "d": 200,
      "v": 127
    },
    {
      "midi": 64,
      "hit": false,
      "t": 150400,
      "d": 400,
      "v": 127
    },
    {
      "midi": 48,
      "hit": false,
      "t": 150400,
      "d": 200,
      "v": 127
    },
    {
      "midi": 46,
      "hit": false,
      "t": 150600,
      "d": 200,
      "v": 127
    },
    {
      "midi": 60,
      "hit": false,
      "t": 150800,
      "d": 200,
      "v": 127
    },
    {
      "midi": 45,
      "hit": false,
      "t": 150800,
      "d": 200,
      "v": 127
    },
    {
      "midi": 64,
      "hit": false,
      "t": 151000,
      "d": 200,
      "v": 127
    },
    {
      "midi": 43,
      "hit": false,
      "t": 151000,
      "d": 200,
      "v": 127
    },
    {
      "midi": 69,
      "hit": false,
      "t": 151200,
      "d": 400,
      "v": 127
    },
    {
      "midi": 41,
      "hit": false,
      "t": 151200,
      "d": 200,
      "v": 127
    },
    {
      "midi": 43,
      "hit": false,
      "t": 151400,
      "d": 200,
      "v": 127
    },
    {
      "midi": 61,
      "hit": false,
      "t": 151600,
      "d": 400,
      "v": 127
    },
    {
      "midi": 45,
      "hit": false,
      "t": 151600,
      "d": 200,
      "v": 127
    },
    {
      "midi": 41,
      "hit": false,
      "t": 151800,
      "d": 200,
      "v": 127
    },
    {
      "midi": 62,
      "hit": false,
      "t": 152000,
      "d": 400,
      "v": 127
    },
    {
      "midi": 46,
      "hit": false,
      "t": 152000,
      "d": 200,
      "v": 127
    },
    {
      "midi": 43,
      "hit": false,
      "t": 152200,
      "d": 200,
      "v": 127
    },
    {
      "midi": 57,
      "hit": false,
      "t": 152400,
      "d": 600,
      "v": 127
    },
    {
      "midi": 41,
      "hit": false,
      "t": 152400,
      "d": 200,
      "v": 127
    },
    {
      "midi": 40,
      "hit": false,
      "t": 152600,
      "d": 200,
      "v": 127
    },
    {
      "midi": 38,
      "hit": false,
      "t": 152800,
      "d": 800,
      "v": 127
    },
    {
      "midi": 59,
      "hit": false,
      "t": 153000,
      "d": 200,
      "v": 127
    },
    {
      "midi": 61,
      "hit": false,
      "t": 153200,
      "d": 200,
      "v": 127
    },
    {
      "midi": 62,
      "hit": false,
      "t": 153400,
      "d": 200,
      "v": 127
    },
    {
      "midi": 64,
      "hit": false,
      "t": 153600,
      "d": 200,
      "v": 127
    },
    {
      "midi": 62,
      "hit": false,
      "t": 153800,
      "d": 200,
      "v": 127
    },
    {
      "midi": 61,
      "hit": false,
      "t": 154000,
      "d": 200,
      "v": 127
    },
    {
      "midi": 45,
      "hit": false,
      "t": 154000,
      "d": 400,
      "v": 127
    },
    {
      "midi": 64,
      "hit": false,
      "t": 154200,
      "d": 200,
      "v": 127
    },
    {
      "midi": 65,
      "hit": false,
      "t": 154400,
      "d": 200,
      "v": 127
    },
    {
      "midi": 38,
      "hit": false,
      "t": 154400,
      "d": 200,
      "v": 127
    },
    {
      "midi": 64,
      "hit": false,
      "t": 154600,
      "d": 200,
      "v": 127
    },
    {
      "midi": 41,
      "hit": false,
      "t": 154600,
      "d": 200,
      "v": 127
    },
    {
      "midi": 62,
      "hit": false,
      "t": 154800,
      "d": 200,
      "v": 127
    },
    {
      "midi": 46,
      "hit": false,
      "t": 154800,
      "d": 400,
      "v": 127
    },
    {
      "midi": 65,
      "hit": false,
      "t": 155000,
      "d": 200,
      "v": 127
    },
    {
      "midi": 67,
      "hit": false,
      "t": 155200,
      "d": 200,
      "v": 127
    },
    {
      "midi": 40,
      "hit": false,
      "t": 155200,
      "d": 200,
      "v": 127
    },
    {
      "midi": 65,
      "hit": false,
      "t": 155400,
      "d": 200,
      "v": 127
    },
    {
      "midi": 43,
      "hit": false,
      "t": 155400,
      "d": 200,
      "v": 127
    },
    {
      "midi": 64,
      "hit": false,
      "t": 155600,
      "d": 200,
      "v": 127
    },
    {
      "midi": 48,
      "hit": false,
      "t": 155600,
      "d": 600,
      "v": 127
    },
    {
      "midi": 62,
      "hit": false,
      "t": 155800,
      "d": 200,
      "v": 127
    },
    {
      "midi": 64,
      "hit": false,
      "t": 156000,
      "d": 200,
      "v": 127
    },
    {
      "midi": 72,
      "hit": false,
      "t": 156200,
      "d": 200,
      "v": 127
    },
    {
      "midi": 45,
      "hit": false,
      "t": 156200,
      "d": 200,
      "v": 127
    },
    {
      "midi": 70,
      "hit": false,
      "t": 156400,
      "d": 200,
      "v": 127
    },
    {
      "midi": 43,
      "hit": false,
      "t": 156400,
      "d": 200,
      "v": 127
    },
    {
      "midi": 69,
      "hit": false,
      "t": 156600,
      "d": 200,
      "v": 127
    },
    {
      "midi": 42,
      "hit": false,
      "t": 156600,
      "d": 200,
      "v": 127
    },
    {
      "midi": 70,
      "hit": false,
      "t": 156800,
      "d": 200,
      "v": 127
    },
    {
      "midi": 43,
      "hit": false,
      "t": 156800,
      "d": 400,
      "v": 127
    },
    {
      "midi": 67,
      "hit": false,
      "t": 157000,
      "d": 200,
      "v": 127
    },
    {
      "midi": 64,
      "hit": false,
      "t": 157200,
      "d": 200,
      "v": 127
    },
    {
      "midi": 45,
      "hit": false,
      "t": 157200,
      "d": 800,
      "v": 127
    },
    {
      "midi": 67,
      "hit": false,
      "t": 157400,
      "d": 200,
      "v": 127
    },
    {
      "midi": 61,
      "hit": false,
      "t": 157600,
      "d": 200,
      "v": 127
    },
    {
      "midi": 64,
      "hit": false,
      "t": 157800,
      "d": 200,
      "v": 127
    },
    {
      "midi": 62,
      "hit": false,
      "t": 158000,
      "d": 200,
      "v": 127
    },
    {
      "midi": 46,
      "hit": false,
      "t": 158000,
      "d": 400,
      "v": 127
    },
    {
      "midi": 65,
      "hit": false,
      "t": 158200,
      "d": 200,
      "v": 127
    },
    {
      "midi": 64,
      "hit": false,
      "t": 158400,
      "d": 800,
      "v": 127
    },
    {
      "midi": 37,
      "hit": false,
      "t": 158400,
      "d": 200,
      "v": 127
    },
    {
      "midi": 38,
      "hit": false,
      "t": 158600,
      "d": 200,
      "v": 127
    },
    {
      "midi": 40,
      "hit": false,
      "t": 158800,
      "d": 200,
      "v": 127
    },
    {
      "midi": 41,
      "hit": false,
      "t": 159000,
      "d": 200,
      "v": 127
    },
    {
      "midi": 71,
      "hit": false,
      "t": 159200,
      "d": 100,
      "v": 127
    },
    {
      "midi": 43,
      "hit": false,
      "t": 159200,
      "d": 100,
      "v": 127
    },
    {
      "midi": 72,
      "hit": false,
      "t": 159300,
      "d": 100,
      "v": 127
    },
    {
      "midi": 45,
      "hit": false,
      "t": 159300,
      "d": 100,
      "v": 127
    },
    {
      "midi": 71,
      "hit": false,
      "t": 159500,
      "d": 100,
      "v": 127
    },
    {
      "midi": 43,
      "hit": false,
      "t": 159500,
      "d": 100,
      "v": 127
    },
    {
      "midi": 69,
      "hit": false,
      "t": 159600,
      "d": 100,
      "v": 127
    },
    {
      "midi": 41,
      "hit": false,
      "t": 159600,
      "d": 100,
      "v": 127
    },
    {
      "midi": 71,
      "hit": false,
      "t": 159700,
      "d": 100,
      "v": 127
    },
    {
      "midi": 43,
      "hit": false,
      "t": 159700,
      "d": 100,
      "v": 127
    },
    {
      "midi": 73,
      "hit": false,
      "t": 159900,
      "d": 100,
      "v": 127
    },
    {
      "midi": 45,
      "hit": false,
      "t": 159900,
      "d": 100,
      "v": 127
    },
    {
      "midi": 74,
      "hit": false,
      "t": 160000,
      "d": 100,
      "v": 127
    },
    {
      "midi": 46,
      "hit": false,
      "t": 160000,
      "d": 400,
      "v": 127
    },
    {
      "midi": 76,
      "hit": false,
      "t": 160100,
      "d": 100,
      "v": 127
    },
    {
      "midi": 74,
      "hit": false,
      "t": 160300,
      "d": 100,
      "v": 127
    },
    {
      "midi": 73,
      "hit": false,
      "t": 160400,
      "d": 100,
      "v": 127
    },
    {
      "midi": 43,
      "hit": false,
      "t": 160400,
      "d": 400,
      "v": 127
    },
    {
      "midi": 74,
      "hit": false,
      "t": 160500,
      "d": 100,
      "v": 127
    },
    {
      "midi": 76,
      "hit": false,
      "t": 160700,
      "d": 100,
      "v": 127
    },
    {
      "midi": 77,
      "hit": false,
      "t": 160800,
      "d": 100,
      "v": 127
    },
    {
      "midi": 50,
      "hit": false,
      "t": 160800,
      "d": 100,
      "v": 127
    },
    {
      "midi": 79,
      "hit": false,
      "t": 160900,
      "d": 100,
      "v": 127
    },
    {
      "midi": 52,
      "hit": false,
      "t": 160900,
      "d": 100,
      "v": 127
    },
    {
      "midi": 77,
      "hit": false,
      "t": 161100,
      "d": 100,
      "v": 127
    },
    {
      "midi": 50,
      "hit": false,
      "t": 161100,
      "d": 100,
      "v": 127
    },
    {
      "midi": 76,
      "hit": false,
      "t": 161200,
      "d": 100,
      "v": 127
    },
    {
      "midi": 49,
      "hit": false,
      "t": 161200,
      "d": 100,
      "v": 127
    },
    {
      "midi": 77,
      "hit": false,
      "t": 161300,
      "d": 100,
      "v": 127
    },
    {
      "midi": 50,
      "hit": false,
      "t": 161300,
      "d": 100,
      "v": 127
    },
    {
      "midi": 79,
      "hit": false,
      "t": 161500,
      "d": 100,
      "v": 127
    },
    {
      "midi": 52,
      "hit": false,
      "t": 161500,
      "d": 100,
      "v": 127
    },
    {
      "midi": 81,
      "hit": false,
      "t": 161600,
      "d": 800,
      "v": 127
    },
    {
      "midi": 53,
      "hit": false,
      "t": 161600,
      "d": 100,
      "v": 127
    },
    {
      "midi": 55,
      "hit": false,
      "t": 161700,
      "d": 100,
      "v": 127
    },
    {
      "midi": 53,
      "hit": false,
      "t": 161900,
      "d": 100,
      "v": 127
    },
    {
      "midi": 52,
      "hit": false,
      "t": 162000,
      "d": 100,
      "v": 127
    },
    {
      "midi": 53,
      "hit": false,
      "t": 162100,
      "d": 100,
      "v": 127
    },
    {
      "midi": 55,
      "hit": false,
      "t": 162300,
      "d": 100,
      "v": 127
    },
    {
      "midi": 57,
      "hit": false,
      "t": 162400,
      "d": 200,
      "v": 127
    },
    {
      "midi": 79,
      "hit": false,
      "t": 162600,
      "d": 200,
      "v": 127
    },
    {
      "midi": 50,
      "hit": false,
      "t": 162600,
      "d": 200,
      "v": 127
    },
    {
      "midi": 77,
      "hit": false,
      "t": 162800,
      "d": 200,
      "v": 127
    },
    {
      "midi": 62,
      "hit": false,
      "t": 162800,
      "d": 400,
      "v": 127
    },
    {
      "midi": 76,
      "hit": false,
      "t": 163000,
      "d": 200,
      "v": 127
    },
    {
      "midi": 77,
      "hit": false,
      "t": 163200,
      "d": 800,
      "v": 127
    },
    {
      "midi": 60,
      "hit": false,
      "t": 163400,
      "d": 200,
      "v": 127
    },
    {
      "midi": 58,
      "hit": false,
      "t": 163600,
      "d": 200,
      "v": 127
    },
    {
      "midi": 57,
      "hit": false,
      "t": 163800,
      "d": 200,
      "v": 127
    },
    {
      "midi": 58,
      "hit": false,
      "t": 164000,
      "d": 800,
      "v": 127
    },
    {
      "midi": 76,
      "hit": false,
      "t": 164200,
      "d": 200,
      "v": 127
    },
    {
      "midi": 74,
      "hit": false,
      "t": 164400,
      "d": 200,
      "v": 127
    },
    {
      "midi": 73,
      "hit": false,
      "t": 164600,
      "d": 200,
      "v": 127
    },
    {
      "midi": 74,
      "hit": false,
      "t": 164800,
      "d": 400,
      "v": 127
    },
    {
      "midi": 57,
      "hit": false,
      "t": 165000,
      "d": 200,
      "v": 127
    },
    {
      "midi": 76,
      "hit": false,
      "t": 165200,
      "d": 200,
      "v": 127
    },
    {
      "midi": 55,
      "hit": false,
      "t": 165200,
      "d": 200,
      "v": 127
    },
    {
      "midi": 77,
      "hit": false,
      "t": 165400,
      "d": 200,
      "v": 127
    },
    {
      "midi": 53,
      "hit": false,
      "t": 165400,
      "d": 200,
      "v": 127
    },
    {
      "midi": 79,
      "hit": false,
      "t": 165600,
      "d": 200,
      "v": 127
    },
    {
      "midi": 52,
      "hit": false,
      "t": 165600,
      "d": 200,
      "v": 127
    },
    {
      "midi": 81,
      "hit": false,
      "t": 165800,
      "d": 200,
      "v": 127
    },
    {
      "midi": 53,
      "hit": false,
      "t": 165800,
      "d": 200,
      "v": 127
    },
    {
      "midi": 82,
      "hit": false,
      "t": 166000,
      "d": 400,
      "v": 127
    },
    {
      "midi": 55,
      "hit": false,
      "t": 166000,
      "d": 200,
      "v": 127
    },
    {
      "midi": 52,
      "hit": false,
      "t": 166200,
      "d": 200,
      "v": 127
    },
    {
      "midi": 82,
      "hit": false,
      "t": 166400,
      "d": 400,
      "v": 127
    },
    {
      "midi": 49,
      "hit": false,
      "t": 166400,
      "d": 200,
      "v": 127
    },
    {
      "midi": 50,
      "hit": false,
      "t": 166600,
      "d": 200,
      "v": 127
    },
    {
      "midi": 73,
      "hit": false,
      "t": 166800,
      "d": 600,
      "v": 127
    },
    {
      "midi": 52,
      "hit": false,
      "t": 166800,
      "d": 200,
      "v": 127
    },
    {
      "midi": 45,
      "hit": false,
      "t": 167000,
      "d": 200,
      "v": 127
    },
    {
      "midi": 57,
      "hit": false,
      "t": 167200,
      "d": 200,
      "v": 127
    },
    {
      "midi": 69,
      "hit": false,
      "t": 167400,
      "d": 200,
      "v": 127
    },
    {
      "midi": 53,
      "hit": false,
      "t": 167400,
      "d": 200,
      "v": 127
    },
    {
      "midi": 71,
      "hit": false,
      "t": 167600,
      "d": 200,
      "v": 127
    },
    {
      "midi": 55,
      "hit": false,
      "t": 167600,
      "d": 200,
      "v": 127
    },
    {
      "midi": 73,
      "hit": false,
      "t": 167800,
      "d": 200,
      "v": 127
    },
    {
      "midi": 57,
      "hit": false,
      "t": 167800,
      "d": 200,
      "v": 127
    },
    {
      "midi": 74,
      "hit": false,
      "t": 168000,
      "d": 200,
      "v": 127
    },
    {
      "midi": 47,
      "hit": false,
      "t": 168000,
      "d": 200,
      "v": 127
    },
    {
      "midi": 73,
      "hit": false,
      "t": 168200,
      "d": 200,
      "v": 127
    },
    {
      "midi": 50,
      "hit": false,
      "t": 168200,
      "d": 200,
      "v": 127
    },
    {
      "midi": 71,
      "hit": false,
      "t": 168400,
      "d": 200,
      "v": 127
    },
    {
      "midi": 55,
      "hit": false,
      "t": 168400,
      "d": 400,
      "v": 127
    },
    {
      "midi": 69,
      "hit": false,
      "t": 168600,
      "d": 200,
      "v": 127
    },
    {
      "midi": 76,
      "hit": false,
      "t": 168800,
      "d": 200,
      "v": 127
    },
    {
      "midi": 49,
      "hit": false,
      "t": 168800,
      "d": 200,
      "v": 127
    },
    {
      "midi": 73,
      "hit": false,
      "t": 169000,
      "d": 200,
      "v": 127
    },
    {
      "midi": 52,
      "hit": false,
      "t": 169000,
      "d": 200,
      "v": 127
    },
    {
      "midi": 71,
      "hit": false,
      "t": 169200,
      "d": 200,
      "v": 127
    },
    {
      "midi": 57,
      "hit": false,
      "t": 169200,
      "d": 400,
      "v": 127
    },
    {
      "midi": 69,
      "hit": false,
      "t": 169400,
      "d": 200,
      "v": 127
    },
    {
      "midi": 77,
      "hit": false,
      "t": 169600,
      "d": 200,
      "v": 127
    },
    {
      "midi": 50,
      "hit": false,
      "t": 169600,
      "d": 200,
      "v": 127
    },
    {
      "midi": 76,
      "hit": false,
      "t": 169800,
      "d": 200,
      "v": 127
    },
    {
      "midi": 53,
      "hit": false,
      "t": 169800,
      "d": 200,
      "v": 127
    },
    {
      "midi": 74,
      "hit": false,
      "t": 170000,
      "d": 600,
      "v": 127
    },
    {
      "midi": 55,
      "hit": false,
      "t": 170000,
      "d": 200,
      "v": 127
    },
    {
      "midi": 57,
      "hit": false,
      "t": 170200,
      "d": 200,
      "v": 127
    },
    {
      "midi": 58,
      "hit": false,
      "t": 170400,
      "d": 200,
      "v": 127
    },
    {
      "midi": 82,
      "hit": false,
      "t": 170600,
      "d": 200,
      "v": 127
    },
    {
      "midi": 55,
      "hit": false,
      "t": 170600,
      "d": 200,
      "v": 127
    },
    {
      "midi": 81,
      "hit": false,
      "t": 170800,
      "d": 200,
      "v": 127
    },
    {
      "midi": 53,
      "hit": false,
      "t": 170800,
      "d": 200,
      "v": 127
    },
    {
      "midi": 80,
      "hit": false,
      "t": 171000,
      "d": 200,
      "v": 127
    },
    {
      "midi": 52,
      "hit": false,
      "t": 171000,
      "d": 200,
      "v": 127
    },
    {
      "midi": 81,
      "hit": false,
      "t": 171200,
      "d": 200,
      "v": 127
    },
    {
      "midi": 53,
      "hit": false,
      "t": 171200,
      "d": 400,
      "v": 127
    },
    {
      "midi": 77,
      "hit": false,
      "t": 171400,
      "d": 200,
      "v": 127
    },
    {
      "midi": 76,
      "hit": false,
      "t": 171600,
      "d": 200,
      "v": 127
    },
    {
      "midi": 58,
      "hit": false,
      "t": 171600,
      "d": 400,
      "v": 127
    },
    {
      "midi": 74,
      "hit": false,
      "t": 171800,
      "d": 200,
      "v": 127
    },
    {
      "midi": 77,
      "hit": false,
      "t": 172000,
      "d": 200,
      "v": 127
    },
    {
      "midi": 55,
      "hit": false,
      "t": 172000,
      "d": 400,
      "v": 127
    },
    {
      "midi": 76,
      "hit": false,
      "t": 172200,
      "d": 200,
      "v": 127
    },
    {
      "midi": 74,
      "hit": false,
      "t": 172400,
      "d": 200,
      "v": 127
    },
    {
      "midi": 57,
      "hit": false,
      "t": 172400,
      "d": 400,
      "v": 127
    },
    {
      "midi": 73,
      "hit": false,
      "t": 172600,
      "d": 200,
      "v": 127
    },
    {
      "midi": 74,
      "hit": false,
      "t": 172800,
      "d": 800,
      "v": 127
    },
    {
      "midi": 50,
      "hit": false,
      "t": 172800,
      "d": 100,
      "v": 127
    },
    {
      "midi": 52,
      "hit": false,
      "t": 172900,
      "d": 100,
      "v": 127
    },
    {
      "midi": 50,
      "hit": false,
      "t": 173100,
      "d": 100,
      "v": 127
    },
    {
      "midi": 49,
      "hit": false,
      "t": 173200,
      "d": 100,
      "v": 127
    },
    {
      "midi": 50,
      "hit": false,
      "t": 173300,
      "d": 100,
      "v": 127
    },
    {
      "midi": 52,
      "hit": false,
      "t": 173500,
      "d": 100,
      "v": 127
    },
    {
      "midi": 69,
      "hit": false,
      "t": 173600,
      "d": 100,
      "v": 127
    },
    {
      "midi": 53,
      "hit": false,
      "t": 173600,
      "d": 100,
      "v": 127
    },
    {
      "midi": 71,
      "hit": false,
      "t": 173700,
      "d": 100,
      "v": 127
    },
    {
      "midi": 55,
      "hit": false,
      "t": 173700,
      "d": 100,
      "v": 127
    },
    {
      "midi": 69,
      "hit": false,
      "t": 173900,
      "d": 100,
      "v": 127
    },
    {
      "midi": 53,
      "hit": false,
      "t": 173900,
      "d": 100,
      "v": 127
    },
    {
      "midi": 68,
      "hit": false,
      "t": 174000,
      "d": 100,
      "v": 127
    },
    {
      "midi": 52,
      "hit": false,
      "t": 174000,
      "d": 100,
      "v": 127
    },
    {
      "midi": 69,
      "hit": false,
      "t": 174100,
      "d": 100,
      "v": 127
    },
    {
      "midi": 53,
      "hit": false,
      "t": 174100,
      "d": 100,
      "v": 127
    },
    {
      "midi": 71,
      "hit": false,
      "t": 174300,
      "d": 100,
      "v": 127
    },
    {
      "midi": 55,
      "hit": false,
      "t": 174300,
      "d": 100,
      "v": 127
    },
    {
      "midi": 73,
      "hit": false,
      "t": 174400,
      "d": 200,
      "v": 127
    },
    {
      "midi": 57,
      "hit": false,
      "t": 174400,
      "d": 800,
      "v": 127
    },
    {
      "midi": 69,
      "hit": false,
      "t": 174600,
      "d": 200,
      "v": 127
    },
    {
      "midi": 71,
      "hit": false,
      "t": 174800,
      "d": 200,
      "v": 127
    },
    {
      "midi": 73,
      "hit": false,
      "t": 175000,
      "d": 200,
      "v": 127
    },
    {
      "midi": 74,
      "hit": false,
      "t": 175200,
      "d": 200,
      "v": 127
    },
    {
      "midi": 76,
      "hit": false,
      "t": 175400,
      "d": 200,
      "v": 127
    },
    {
      "midi": 55,
      "hit": false,
      "t": 175400,
      "d": 200,
      "v": 127
    },
    {
      "midi": 77,
      "hit": false,
      "t": 175600,
      "d": 200,
      "v": 127
    },
    {
      "midi": 53,
      "hit": false,
      "t": 175600,
      "d": 200,
      "v": 127
    },
    {
      "midi": 79,
      "hit": false,
      "t": 175800,
      "d": 200,
      "v": 127
    },
    {
      "midi": 52,
      "hit": false,
      "t": 175800,
      "d": 200,
      "v": 127
    },
    {
      "midi": 81,
      "hit": false,
      "t": 176000,
      "d": 200,
      "v": 127
    },
    {
      "midi": 53,
      "hit": false,
      "t": 176000,
      "d": 800,
      "v": 127
    },
    {
      "midi": 79,
      "hit": false,
      "t": 176200,
      "d": 200,
      "v": 127
    },
    {
      "midi": 77,
      "hit": false,
      "t": 176400,
      "d": 200,
      "v": 127
    },
    {
      "midi": 76,
      "hit": false,
      "t": 176600,
      "d": 200,
      "v": 127
    },
    {
      "midi": 74,
      "hit": false,
      "t": 176800,
      "d": 600,
      "v": 127
    },
    {
      "midi": 52,
      "hit": false,
      "t": 177000,
      "d": 200,
      "v": 127
    },
    {
      "midi": 50,
      "hit": false,
      "t": 177200,
      "d": 200,
      "v": 127
    },
    {
      "midi": 76,
      "hit": false,
      "t": 177400,
      "d": 200,
      "v": 127
    },
    {
      "midi": 49,
      "hit": false,
      "t": 177400,
      "d": 200,
      "v": 127
    },
    {
      "midi": 77,
      "hit": false,
      "t": 177600,
      "d": 200,
      "v": 127
    },
    {
      "midi": 50,
      "hit": false,
      "t": 177600,
      "d": 400,
      "v": 127
    },
    {
      "midi": 76,
      "hit": false,
      "t": 177800,
      "d": 200,
      "v": 127
    },
    {
      "midi": 74,
      "hit": false,
      "t": 178000,
      "d": 200,
      "v": 127
    },
    {
      "midi": 52,
      "hit": false,
      "t": 178000,
      "d": 200,
      "v": 127
    },
    {
      "midi": 72,
      "hit": false,
      "t": 178200,
      "d": 200,
      "v": 127
    },
    {
      "midi": 53,
      "hit": false,
      "t": 178200,
      "d": 200,
      "v": 127
    },
    {
      "midi": 70,
      "hit": false,
      "t": 178400,
      "d": 200,
      "v": 127
    },
    {
      "midi": 55,
      "hit": false,
      "t": 178400,
      "d": 200,
      "v": 127
    },
    {
      "midi": 72,
      "hit": false,
      "t": 178600,
      "d": 200,
      "v": 127
    },
    {
      "midi": 57,
      "hit": false,
      "t": 178600,
      "d": 200,
      "v": 127
    },
    {
      "midi": 74,
      "hit": false,
      "t": 178800,
      "d": 200,
      "v": 127
    },
    {
      "midi": 58,
      "hit": false,
      "t": 178800,
      "d": 400,
      "v": 127
    },
    {
      "midi": 70,
      "hit": false,
      "t": 179000,
      "d": 200,
      "v": 127
    },
    {
      "midi": 67,
      "hit": false,
      "t": 179200,
      "d": 200,
      "v": 127
    },
    {
      "midi": 58,
      "hit": false,
      "t": 179200,
      "d": 400,
      "v": 127
    },
    {
      "midi": 69,
      "hit": false,
      "t": 179400,
      "d": 200,
      "v": 127
    },
    {
      "midi": 70,
      "hit": false,
      "t": 179600,
      "d": 200,
      "v": 127
    },
    {
      "midi": 49,
      "hit": false,
      "t": 179600,
      "d": 600,
      "v": 127
    },
    {
      "midi": 64,
      "hit": false,
      "t": 179800,
      "d": 200,
      "v": 127
    },
    {
      "midi": 76,
      "hit": false,
      "t": 180000,
      "d": 200,
      "v": 127
    },
    {
      "midi": 73,
      "hit": false,
      "t": 180200,
      "d": 200,
      "v": 127
    },
    {
      "midi": 45,
      "hit": false,
      "t": 180200,
      "d": 200,
      "v": 127
    },
    {
      "midi": 74,
      "hit": false,
      "t": 180400,
      "d": 200,
      "v": 127
    },
    {
      "midi": 47,
      "hit": false,
      "t": 180400,
      "d": 200,
      "v": 127
    },
    {
      "midi": 76,
      "hit": false,
      "t": 180600,
      "d": 200,
      "v": 127
    },
    {
      "midi": 49,
      "hit": false,
      "t": 180600,
      "d": 200,
      "v": 127
    },
    {
      "midi": 65,
      "hit": false,
      "t": 180800,
      "d": 200,
      "v": 127
    },
    {
      "midi": 50,
      "hit": false,
      "t": 180800,
      "d": 200,
      "v": 127
    },
    {
      "midi": 69,
      "hit": false,
      "t": 181000,
      "d": 200,
      "v": 127
    },
    {
      "midi": 49,
      "hit": false,
      "t": 181000,
      "d": 200,
      "v": 127
    },
    {
      "midi": 74,
      "hit": false,
      "t": 181200,
      "d": 400,
      "v": 127
    },
    {
      "midi": 47,
      "hit": false,
      "t": 181200,
      "d": 200,
      "v": 127
    },
    {
      "midi": 45,
      "hit": false,
      "t": 181400,
      "d": 200,
      "v": 127
    },
    {
      "midi": 67,
      "hit": false,
      "t": 181600,
      "d": 200,
      "v": 127
    },
    {
      "midi": 52,
      "hit": false,
      "t": 181600,
      "d": 200,
      "v": 127
    },
    {
      "midi": 70,
      "hit": false,
      "t": 181800,
      "d": 200,
      "v": 127
    },
    {
      "midi": 49,
      "hit": false,
      "t": 181800,
      "d": 200,
      "v": 127
    },
    {
      "midi": 76,
      "hit": false,
      "t": 182000,
      "d": 400,
      "v": 127
    },
    {
      "midi": 47,
      "hit": false,
      "t": 182000,
      "d": 200,
      "v": 127
    },
    {
      "midi": 45,
      "hit": false,
      "t": 182200,
      "d": 200,
      "v": 127
    },
    {
      "midi": 69,
      "hit": false,
      "t": 182400,
      "d": 200,
      "v": 127
    },
    {
      "midi": 53,
      "hit": false,
      "t": 182400,
      "d": 200,
      "v": 127
    },
    {
      "midi": 73,
      "hit": false,
      "t": 182600,
      "d": 200,
      "v": 127
    },
    {
      "midi": 52,
      "hit": false,
      "t": 182600,
      "d": 200,
      "v": 127
    },
    {
      "midi": 74,
      "hit": false,
      "t": 182800,
      "d": 200,
      "v": 127
    },
    {
      "midi": 50,
      "hit": false,
      "t": 182800,
      "d": 600,
      "v": 127
    },
    {
      "midi": 76,
      "hit": false,
      "t": 183000,
      "d": 200,
      "v": 127
    },
    {
      "midi": 77,
      "hit": false,
      "t": 183200,
      "d": 200,
      "v": 127
    },
    {
      "midi": 74,
      "hit": false,
      "t": 183400,
      "d": 200,
      "v": 127
    },
    {
      "midi": 58,
      "hit": false,
      "t": 183400,
      "d": 200,
      "v": 127
    },
    {
      "midi": 73,
      "hit": false,
      "t": 183600,
      "d": 200,
      "v": 127
    },
    {
      "midi": 57,
      "hit": false,
      "t": 183600,
      "d": 200,
      "v": 127
    },
    {
      "midi": 71,
      "hit": false,
      "t": 183800,
      "d": 200,
      "v": 127
    },
    {
      "midi": 56,
      "hit": false,
      "t": 183800,
      "d": 200,
      "v": 127
    },
    {
      "midi": 73,
      "hit": false,
      "t": 184000,
      "d": 400,
      "v": 127
    },
    {
      "midi": 57,
      "hit": false,
      "t": 184000,
      "d": 200,
      "v": 127
    },
    {
      "midi": 53,
      "hit": false,
      "t": 184200,
      "d": 200,
      "v": 127
    },
    {
      "midi": 77,
      "hit": false,
      "t": 184400,
      "d": 400,
      "v": 127
    },
    {
      "midi": 52,
      "hit": false,
      "t": 184400,
      "d": 200,
      "v": 127
    },
    {
      "midi": 50,
      "hit": false,
      "t": 184600,
      "d": 200,
      "v": 127
    },
    {
      "midi": 74,
      "hit": false,
      "t": 184800,
      "d": 400,
      "v": 127
    },
    {
      "midi": 53,
      "hit": false,
      "t": 184800,
      "d": 200,
      "v": 127
    },
    {
      "midi": 52,
      "hit": false,
      "t": 185000,
      "d": 200,
      "v": 127
    },
    {
      "midi": 76,
      "hit": false,
      "t": 185200,
      "d": 400,
      "v": 127
    },
    {
      "midi": 50,
      "hit": false,
      "t": 185200,
      "d": 200,
      "v": 127
    },
    {
      "midi": 49,
      "hit": false,
      "t": 185400,
      "d": 200,
      "v": 127
    },
    {
      "midi": 77,
      "hit": false,
      "t": 185600,
      "d": 100,
      "v": 127
    },
    {
      "midi": 50,
      "hit": false,
      "t": 185600,
      "d": 800,
      "v": 127
    },
    {
      "midi": 79,
      "hit": false,
      "t": 185700,
      "d": 100,
      "v": 127
    },
    {
      "midi": 77,
      "hit": false,
      "t": 185900,
      "d": 100,
      "v": 127
    },
    {
      "midi": 76,
      "hit": false,
      "t": 186000,
      "d": 100,
      "v": 127
    },
    {
      "midi": 77,
      "hit": false,
      "t": 186100,
      "d": 100,
      "v": 127
    },
    {
      "midi": 79,
      "hit": false,
      "t": 186300,
      "d": 100,
      "v": 127
    },
    {
      "midi": 81,
      "hit": false,
      "t": 186400,
      "d": 600,
      "v": 127
    },
    {
      "midi": 45,
      "hit": false,
      "t": 186400,
      "d": 100,
      "v": 127
    },
    {
      "midi": 46,
      "hit": false,
      "t": 186500,
      "d": 100,
      "v": 127
    },
    {
      "midi": 45,
      "hit": false,
      "t": 186700,
      "d": 100,
      "v": 127
    },
    {
      "midi": 43,
      "hit": false,
      "t": 186800,
      "d": 100,
      "v": 127
    },
    {
      "midi": 45,
      "hit": false,
      "t": 186900,
      "d": 100,
      "v": 127
    },
    {
      "midi": 79,
      "hit": false,
      "t": 187000,
      "d": 100,
      "v": 127
    },
    {
      "midi": 77,
      "hit": false,
      "t": 187100,
      "d": 100,
      "v": 127
    },
    {
      "midi": 47,
      "hit": false,
      "t": 187100,
      "d": 100,
      "v": 127
    },
    {
      "midi": 76,
      "hit": false,
      "t": 187200,
      "d": 200,
      "v": 127
    },
    {
      "midi": 49,
      "hit": false,
      "t": 187200,
      "d": 200,
      "v": 127
    },
    {
      "midi": 73,
      "hit": false,
      "t": 187400,
      "d": 200,
      "v": 127
    },
    {
      "midi": 45,
      "hit": false,
      "t": 187400,
      "d": 200,
      "v": 127
    },
    {
      "midi": 74,
      "hit": false,
      "t": 187600,
      "d": 200,
      "v": 127
    },
    {
      "midi": 47,
      "hit": false,
      "t": 187600,
      "d": 200,
      "v": 127
    },
    {
      "midi": 76,
      "hit": false,
      "t": 187800,
      "d": 200,
      "v": 127
    },
    {
      "midi": 49,
      "hit": false,
      "t": 187800,
      "d": 200,
      "v": 127
    },
    {
      "midi": 77,
      "hit": false,
      "t": 188000,
      "d": 600,
      "v": 127
    },
    {
      "midi": 50,
      "hit": false,
      "t": 188000,
      "d": 200,
      "v": 127
    },
    {
      "midi": 52,
      "hit": false,
      "t": 188200,
      "d": 200,
      "v": 127
    },
    {
      "midi": 53,
      "hit": false,
      "t": 188400,
      "d": 200,
      "v": 127
    },
    {
      "midi": 76,
      "hit": false,
      "t": 188600,
      "d": 100,
      "v": 127
    },
    {
      "midi": 55,
      "hit": false,
      "t": 188600,
      "d": 200,
      "v": 127
    },
    {
      "midi": 74,
      "hit": false,
      "t": 188700,
      "d": 100,
      "v": 127
    },
    {
      "midi": 73,
      "hit": false,
      "t": 188800,
      "d": 400,
      "v": 127
    },
    {
      "midi": 57,
      "hit": false,
      "t": 188800,
      "d": 200,
      "v": 127
    },
    {
      "midi": 55,
      "hit": false,
      "t": 189000,
      "d": 200,
      "v": 127
    },
    {
      "midi": 69,
      "hit": false,
      "t": 189200,
      "d": 600,
      "v": 127
    },
    {
      "midi": 53,
      "hit": false,
      "t": 189200,
      "d": 200,
      "v": 127
    },
    {
      "midi": 52,
      "hit": false,
      "t": 189400,
      "d": 200,
      "v": 127
    },
    {
      "midi": 50,
      "hit": false,
      "t": 189600,
      "d": 600,
      "v": 127
    },
    {
      "midi": 74,
      "hit": false,
      "t": 189800,
      "d": 200,
      "v": 127
    },
    {
      "midi": 72,
      "hit": false,
      "t": 190000,
      "d": 200,
      "v": 127
    },
    {
      "midi": 70,
      "hit": false,
      "t": 190200,
      "d": 200,
      "v": 127
    },
    {
      "midi": 52,
      "hit": false,
      "t": 190200,
      "d": 200,
      "v": 127
    },
    {
      "midi": 69,
      "hit": false,
      "t": 190400,
      "d": 400,
      "v": 127
    },
    {
      "midi": 53,
      "hit": false,
      "t": 190400,
      "d": 200,
      "v": 127
    },
    {
      "midi": 52,
      "hit": false,
      "t": 190600,
      "d": 200,
      "v": 127
    },
    {
      "midi": 65,
      "hit": false,
      "t": 190800,
      "d": 200,
      "v": 127
    },
    {
      "midi": 50,
      "hit": false,
      "t": 190800,
      "d": 200,
      "v": 127
    },
    {
      "midi": 69,
      "hit": false,
      "t": 191000,
      "d": 200,
      "v": 127
    },
    {
      "midi": 48,
      "hit": false,
      "t": 191000,
      "d": 200,
      "v": 127
    },
    {
      "midi": 74,
      "hit": false,
      "t": 191200,
      "d": 400,
      "v": 127
    },
    {
      "midi": 46,
      "hit": false,
      "t": 191200,
      "d": 200,
      "v": 127
    },
    {
      "midi": 48,
      "hit": false,
      "t": 191400,
      "d": 200,
      "v": 127
    },
    {
      "midi": 66,
      "hit": false,
      "t": 191600,
      "d": 400,
      "v": 127
    },
    {
      "midi": 50,
      "hit": false,
      "t": 191600,
      "d": 200,
      "v": 127
    },
    {
      "midi": 46,
      "hit": false,
      "t": 191800,
      "d": 200,
      "v": 127
    },
    {
      "midi": 67,
      "hit": false,
      "t": 192000,
      "d": 400,
      "v": 127
    },
    {
      "midi": 43,
      "hit": false,
      "t": 192000,
      "d": 200,
      "v": 127
    },
    {
      "midi": 45,
      "hit": false,
      "t": 192200,
      "d": 200,
      "v": 127
    },
    {
      "midi": 62,
      "hit": false,
      "t": 192400,
      "d": 600,
      "v": 127
    },
    {
      "midi": 46,
      "hit": false,
      "t": 192400,
      "d": 200,
      "v": 127
    },
    {
      "midi": 40,
      "hit": false,
      "t": 192600,
      "d": 200,
      "v": 127
    },
    {
      "midi": 52,
      "hit": false,
      "t": 192800,
      "d": 200,
      "v": 127
    },
    {
      "midi": 64,
      "hit": false,
      "t": 193000,
      "d": 200,
      "v": 127
    },
    {
      "midi": 49,
      "hit": false,
      "t": 193000,
      "d": 200,
      "v": 127
    },
    {
      "midi": 65,
      "hit": false,
      "t": 193200,
      "d": 200,
      "v": 127
    },
    {
      "midi": 50,
      "hit": false,
      "t": 193200,
      "d": 200,
      "v": 127
    },
    {
      "midi": 67,
      "hit": false,
      "t": 193400,
      "d": 200,
      "v": 127
    },
    {
      "midi": 52,
      "hit": false,
      "t": 193400,
      "d": 200,
      "v": 127
    },
    {
      "midi": 69,
      "hit": false,
      "t": 193600,
      "d": 200,
      "v": 127
    },
    {
      "midi": 41,
      "hit": false,
      "t": 193600,
      "d": 200,
      "v": 127
    },
    {
      "midi": 67,
      "hit": false,
      "t": 193800,
      "d": 200,
      "v": 127
    },
    {
      "midi": 45,
      "hit": false,
      "t": 193800,
      "d": 200,
      "v": 127
    },
    {
      "midi": 65,
      "hit": false,
      "t": 194000,
      "d": 200,
      "v": 127
    },
    {
      "midi": 50,
      "hit": false,
      "t": 194000,
      "d": 400,
      "v": 127
    },
    {
      "midi": 69,
      "hit": false,
      "t": 194200,
      "d": 200,
      "v": 127
    },
    {
      "midi": 70,
      "hit": false,
      "t": 194400,
      "d": 200,
      "v": 127
    },
    {
      "midi": 43,
      "hit": false,
      "t": 194400,
      "d": 200,
      "v": 127
    },
    {
      "midi": 69,
      "hit": false,
      "t": 194600,
      "d": 200,
      "v": 127
    },
    {
      "midi": 46,
      "hit": false,
      "t": 194600,
      "d": 200,
      "v": 127
    },
    {
      "midi": 67,
      "hit": false,
      "t": 194800,
      "d": 200,
      "v": 127
    },
    {
      "midi": 52,
      "hit": false,
      "t": 194800,
      "d": 400,
      "v": 127
    },
    {
      "midi": 70,
      "hit": false,
      "t": 195000,
      "d": 200,
      "v": 127
    },
    {
      "midi": 72,
      "hit": false,
      "t": 195200,
      "d": 200,
      "v": 127
    },
    {
      "midi": 45,
      "hit": false,
      "t": 195200,
      "d": 200,
      "v": 127
    },
    {
      "midi": 70,
      "hit": false,
      "t": 195400,
      "d": 200,
      "v": 127
    },
    {
      "midi": 48,
      "hit": false,
      "t": 195400,
      "d": 200,
      "v": 127
    },
    {
      "midi": 69,
      "hit": false,
      "t": 195600,
      "d": 200,
      "v": 127
    },
    {
      "midi": 50,
      "hit": false,
      "t": 195600,
      "d": 200,
      "v": 127
    },
    {
      "midi": 67,
      "hit": false,
      "t": 195800,
      "d": 200,
      "v": 127
    },
    {
      "midi": 52,
      "hit": false,
      "t": 195800,
      "d": 200,
      "v": 127
    },
    {
      "midi": 69,
      "hit": false,
      "t": 196000,
      "d": 200,
      "v": 127
    },
    {
      "midi": 53,
      "hit": false,
      "t": 196000,
      "d": 200,
      "v": 127
    },
    {
      "midi": 77,
      "hit": false,
      "t": 196200,
      "d": 200,
      "v": 127
    },
    {
      "midi": 50,
      "hit": false,
      "t": 196200,
      "d": 200,
      "v": 127
    },
    {
      "midi": 76,
      "hit": false,
      "t": 196400,
      "d": 200,
      "v": 127
    },
    {
      "midi": 48,
      "hit": false,
      "t": 196400,
      "d": 200,
      "v": 127
    },
    {
      "midi": 74,
      "hit": false,
      "t": 196600,
      "d": 200,
      "v": 127
    },
    {
      "midi": 47,
      "hit": false,
      "t": 196600,
      "d": 200,
      "v": 127
    },
    {
      "midi": 76,
      "hit": false,
      "t": 196800,
      "d": 200,
      "v": 127
    },
    {
      "midi": 48,
      "hit": false,
      "t": 196800,
      "d": 400,
      "v": 127
    },
    {
      "midi": 72,
      "hit": false,
      "t": 197000,
      "d": 200,
      "v": 127
    },
    {
      "midi": 69,
      "hit": false,
      "t": 197200,
      "d": 200,
      "v": 127
    },
    {
      "midi": 53,
      "hit": false,
      "t": 197200,
      "d": 400,
      "v": 127
    },
    {
      "midi": 72,
      "hit": false,
      "t": 197400,
      "d": 200,
      "v": 127
    },
    {
      "midi": 65,
      "hit": false,
      "t": 197600,
      "d": 200,
      "v": 127
    },
    {
      "midi": 50,
      "hit": false,
      "t": 197600,
      "d": 400,
      "v": 127
    },
    {
      "midi": 69,
      "hit": false,
      "t": 197800,
      "d": 200,
      "v": 127
    },
    {
      "midi": 67,
      "hit": false,
      "t": 198000,
      "d": 200,
      "v": 127
    },
    {
      "midi": 52,
      "hit": false,
      "t": 198000,
      "d": 400,
      "v": 127
    },
    {
      "midi": 70,
      "hit": false,
      "t": 198200,
      "d": 200,
      "v": 127
    },
    {
      "midi": 69,
      "hit": false,
      "t": 198400,
      "d": 800,
      "v": 127
    },
    {
      "midi": 53,
      "hit": false,
      "t": 198400,
      "d": 100,
      "v": 127
    },
    {
      "midi": 55,
      "hit": false,
      "t": 198500,
      "d": 100,
      "v": 127
    },
    {
      "midi": 53,
      "hit": false,
      "t": 198700,
      "d": 100,
      "v": 127
    },
    {
      "midi": 52,
      "hit": false,
      "t": 198800,
      "d": 100,
      "v": 127
    },
    {
      "midi": 53,
      "hit": false,
      "t": 198900,
      "d": 100,
      "v": 127
    },
    {
      "midi": 55,
      "hit": false,
      "t": 199100,
      "d": 100,
      "v": 127
    },
    {
      "midi": 76,
      "hit": false,
      "t": 199200,
      "d": 100,
      "v": 127
    },
    {
      "midi": 57,
      "hit": false,
      "t": 199200,
      "d": 600,
      "v": 127
    },
    {
      "midi": 77,
      "hit": false,
      "t": 199300,
      "d": 100,
      "v": 127
    },
    {
      "midi": 76,
      "hit": false,
      "t": 199500,
      "d": 100,
      "v": 127
    },
    {
      "midi": 74,
      "hit": false,
      "t": 199600,
      "d": 100,
      "v": 127
    },
    {
      "midi": 76,
      "hit": false,
      "t": 199700,
      "d": 100,
      "v": 127
    },
    {
      "midi": 55,
      "hit": false,
      "t": 199800,
      "d": 100,
      "v": 127
    },
    {
      "midi": 77,
      "hit": false,
      "t": 199900,
      "d": 100,
      "v": 127
    },
    {
      "midi": 53,
      "hit": false,
      "t": 199900,
      "d": 100,
      "v": 127
    },
    {
      "midi": 79,
      "hit": false,
      "t": 200000,
      "d": 400,
      "v": 127
    },
    {
      "midi": 52,
      "hit": false,
      "t": 200000,
      "d": 200,
      "v": 127
    },
    {
      "midi": 48,
      "hit": false,
      "t": 200200,
      "d": 200,
      "v": 127
    },
    {
      "midi": 50,
      "hit": false,
      "t": 200400,
      "d": 200,
      "v": 127
    },
    {
      "midi": 77,
      "hit": false,
      "t": 200500,
      "d": 100,
      "v": 127
    },
    {
      "midi": 76,
      "hit": false,
      "t": 200600,
      "d": 100,
      "v": 127
    },
    {
      "midi": 52,
      "hit": false,
      "t": 200600,
      "d": 200,
      "v": 127
    },
    {
      "midi": 74,
      "hit": false,
      "t": 200700,
      "d": 100,
      "v": 127
    },
    {
      "midi": 72,
      "hit": false,
      "t": 200800,
      "d": 100,
      "v": 127
    },
    {
      "midi": 53,
      "hit": false,
      "t": 200800,
      "d": 600,
      "v": 127
    },
    {
      "midi": 74,
      "hit": false,
      "t": 200900,
      "d": 100,
      "v": 127
    },
    {
      "midi": 72,
      "hit": false,
      "t": 201100,
      "d": 100,
      "v": 127
    },
    {
      "midi": 71,
      "hit": false,
      "t": 201200,
      "d": 100,
      "v": 127
    },
    {
      "midi": 72,
      "hit": false,
      "t": 201300,
      "d": 100,
      "v": 127
    },
    {
      "midi": 52,
      "hit": false,
      "t": 201400,
      "d": 100,
      "v": 127
    },
    {
      "midi": 74,
      "hit": false,
      "t": 201500,
      "d": 100,
      "v": 127
    },
    {
      "midi": 50,
      "hit": false,
      "t": 201500,
      "d": 100,
      "v": 127
    },
    {
      "midi": 76,
      "hit": false,
      "t": 201600,
      "d": 200,
      "v": 127
    },
    {
      "midi": 49,
      "hit": false,
      "t": 201600,
      "d": 400,
      "v": 127
    },
    {
      "midi": 74,
      "hit": false,
      "t": 201800,
      "d": 200,
      "v": 127
    },
    {
      "midi": 73,
      "hit": false,
      "t": 202000,
      "d": 200,
      "v": 127
    },
    {
      "midi": 45,
      "hit": false,
      "t": 202000,
      "d": 600,
      "v": 127
    },
    {
      "midi": 71,
      "hit": false,
      "t": 202200,
      "d": 200,
      "v": 127
    },
    {
      "midi": 69,
      "hit": false,
      "t": 202400,
      "d": 600,
      "v": 127
    },
    {
      "midi": 50,
      "hit": false,
      "t": 202600,
      "d": 200,
      "v": 127
    },
    {
      "midi": 48,
      "hit": false,
      "t": 202800,
      "d": 200,
      "v": 127
    },
    {
      "midi": 70,
      "hit": false,
      "t": 203000,
      "d": 200,
      "v": 127
    },
    {
      "midi": 46,
      "hit": false,
      "t": 203000,
      "d": 200,
      "v": 127
    },
    {
      "midi": 72,
      "hit": false,
      "t": 203200,
      "d": 200,
      "v": 127
    },
    {
      "midi": 45,
      "hit": false,
      "t": 203200,
      "d": 400,
      "v": 127
    },
    {
      "midi": 70,
      "hit": false,
      "t": 203400,
      "d": 200,
      "v": 127
    },
    {
      "midi": 69,
      "hit": false,
      "t": 203600,
      "d": 200,
      "v": 127
    },
    {
      "midi": 41,
      "hit": false,
      "t": 203600,
      "d": 200,
      "v": 127
    },
    {
      "midi": 67,
      "hit": false,
      "t": 203800,
      "d": 200,
      "v": 127
    },
    {
      "midi": 45,
      "hit": false,
      "t": 203800,
      "d": 200,
      "v": 127
    },
    {
      "midi": 65,
      "hit": false,
      "t": 204000,
      "d": 200,
      "v": 127
    },
    {
      "midi": 50,
      "hit": false,
      "t": 204000,
      "d": 400,
      "v": 127
    },
    {
      "midi": 67,
      "hit": false,
      "t": 204200,
      "d": 200,
      "v": 127
    },
    {
      "midi": 69,
      "hit": false,
      "t": 204400,
      "d": 200,
      "v": 127
    },
    {
      "midi": 41,
      "hit": false,
      "t": 204400,
      "d": 400,
      "v": 127
    },
    {
      "midi": 65,
      "hit": false,
      "t": 204600,
      "d": 200,
      "v": 127
    },
    {
      "midi": 70,
      "hit": false,
      "t": 204800,
      "d": 200,
      "v": 127
    },
    {
      "midi": 43,
      "hit": false,
      "t": 204800,
      "d": 400,
      "v": 127
    },
    {
      "midi": 67,
      "hit": false,
      "t": 205000,
      "d": 200,
      "v": 127
    },
    {
      "midi": 65,
      "hit": false,
      "t": 205200,
      "d": 200,
      "v": 127
    },
    {
      "midi": 38,
      "hit": false,
      "t": 205200,
      "d": 600,
      "v": 127
    },
    {
      "midi": 64,
      "hit": false,
      "t": 205400,
      "d": 200,
      "v": 127
    },
    {
      "midi": 62,
      "hit": false,
      "t": 205600,
      "d": 800,
      "v": 127
    },
    {
      "midi": 40,
      "hit": false,
      "t": 205800,
      "d": 200,
      "v": 127
    },
    {
      "midi": 41,
      "hit": false,
      "t": 206000,
      "d": 200,
      "v": 127
    },
    {
      "midi": 43,
      "hit": false,
      "t": 206200,
      "d": 200,
      "v": 127
    },
    {
      "midi": 45,
      "hit": false,
      "t": 206400,
      "d": 200,
      "v": 127
    },
    {
      "midi": 43,
      "hit": false,
      "t": 206600,
      "d": 200,
      "v": 127
    },
    {
      "midi": 69,
      "hit": false,
      "t": 206800,
      "d": 400,
      "v": 127
    },
    {
      "midi": 41,
      "hit": false,
      "t": 206800,
      "d": 200,
      "v": 127
    },
    {
      "midi": 45,
      "hit": false,
      "t": 207000,
      "d": 200,
      "v": 127
    },
    {
      "midi": 62,
      "hit": false,
      "t": 207200,
      "d": 200,
      "v": 127
    },
    {
      "midi": 46,
      "hit": false,
      "t": 207200,
      "d": 200,
      "v": 127
    },
    {
      "midi": 65,
      "hit": false,
      "t": 207400,
      "d": 200,
      "v": 127
    },
    {
      "midi": 45,
      "hit": false,
      "t": 207400,
      "d": 200,
      "v": 127
    },
    {
      "midi": 70,
      "hit": false,
      "t": 207600,
      "d": 400,
      "v": 127
    },
    {
      "midi": 43,
      "hit": false,
      "t": 207600,
      "d": 200,
      "v": 127
    },
    {
      "midi": 46,
      "hit": false,
      "t": 207800,
      "d": 200,
      "v": 127
    },
    {
      "midi": 64,
      "hit": false,
      "t": 208000,
      "d": 200,
      "v": 127
    },
    {
      "midi": 48,
      "hit": false,
      "t": 208000,
      "d": 200,
      "v": 127
    },
    {
      "midi": 67,
      "hit": false,
      "t": 208200,
      "d": 200,
      "v": 127
    },
    {
      "midi": 46,
      "hit": false,
      "t": 208200,
      "d": 200,
      "v": 127
    },
    {
      "midi": 72,
      "hit": false,
      "t": 208400,
      "d": 600,
      "v": 127
    },
    {
      "midi": 45,
      "hit": false,
      "t": 208400,
      "d": 200,
      "v": 127
    },
    {
      "midi": 43,
      "hit": false,
      "t": 208600,
      "d": 200,
      "v": 127
    },
    {
      "midi": 45,
      "hit": false,
      "t": 208800,
      "d": 200,
      "v": 127
    },
    {
      "midi": 69,
      "hit": false,
      "t": 209000,
      "d": 200,
      "v": 127
    },
    {
      "midi": 53,
      "hit": false,
      "t": 209000,
      "d": 200,
      "v": 127
    },
    {
      "midi": 67,
      "hit": false,
      "t": 209200,
      "d": 200,
      "v": 127
    },
    {
      "midi": 51,
      "hit": false,
      "t": 209200,
      "d": 200,
      "v": 127
    },
    {
      "midi": 66,
      "hit": false,
      "t": 209400,
      "d": 200,
      "v": 127
    },
    {
      "midi": 50,
      "hit": false,
      "t": 209400,
      "d": 200,
      "v": 127
    },
    {
      "midi": 67,
      "hit": false,
      "t": 209600,
      "d": 400,
      "v": 127
    },
    {
      "midi": 51,
      "hit": false,
      "t": 209600,
      "d": 200,
      "v": 127
    },
    {
      "midi": 48,
      "hit": false,
      "t": 209800,
      "d": 200,
      "v": 127
    },
    {
      "midi": 69,
      "hit": false,
      "t": 210000,
      "d": 800,
      "v": 127
    },
    {
      "midi": 45,
      "hit": false,
      "t": 210000,
      "d": 200,
      "v": 127
    },
    {
      "midi": 48,
      "hit": false,
      "t": 210200,
      "d": 200,
      "v": 127
    },
    {
      "midi": 42,
      "hit": false,
      "t": 210400,
      "d": 200,
      "v": 127
    },
    {
      "midi": 45,
      "hit": false,
      "t": 210600,
      "d": 200,
      "v": 127
    },
    {
      "midi": 70,
      "hit": false,
      "t": 210800,
      "d": 400,
      "v": 127
    },
    {
      "midi": 43,
      "hit": false,
      "t": 210800,
      "d": 200,
      "v": 127
    },
    {
      "midi": 46,
      "hit": false,
      "t": 211000,
      "d": 200,
      "v": 127
    },
    {
      "midi": 61,
      "hit": false,
      "t": 211200,
      "d": 200,
      "v": 127
    },
    {
      "midi": 45,
      "hit": false,
      "t": 211200,
      "d": 800,
      "v": 127
    },
    {
      "midi": 62,
      "hit": false,
      "t": 211400,
      "d": 200,
      "v": 127
    },
    {
      "midi": 64,
      "hit": false,
      "t": 211600,
      "d": 200,
      "v": 127
    },
    {
      "midi": 65,
      "hit": false,
      "t": 211800,
      "d": 200,
      "v": 127
    },
    {
      "midi": 67,
      "hit": false,
      "t": 212000,
      "d": 100,
      "v": 127
    },
    {
      "midi": 52,
      "hit": false,
      "t": 212000,
      "d": 100,
      "v": 127
    },
    {
      "midi": 69,
      "hit": false,
      "t": 212100,
      "d": 100,
      "v": 127
    },
    {
      "midi": 53,
      "hit": false,
      "t": 212100,
      "d": 100,
      "v": 127
    },
    {
      "midi": 67,
      "hit": false,
      "t": 212300,
      "d": 100,
      "v": 127
    },
    {
      "midi": 52,
      "hit": false,
      "t": 212300,
      "d": 100,
      "v": 127
    },
    {
      "midi": 65,
      "hit": false,
      "t": 212400,
      "d": 100,
      "v": 127
    },
    {
      "midi": 50,
      "hit": false,
      "t": 212400,
      "d": 100,
      "v": 127
    },
    {
      "midi": 67,
      "hit": false,
      "t": 212500,
      "d": 100,
      "v": 127
    },
    {
      "midi": 52,
      "hit": false,
      "t": 212500,
      "d": 100,
      "v": 127
    },
    {
      "midi": 69,
      "hit": false,
      "t": 212700,
      "d": 100,
      "v": 127
    },
    {
      "midi": 53,
      "hit": false,
      "t": 212700,
      "d": 100,
      "v": 127
    },
    {
      "midi": 70,
      "hit": false,
      "t": 212800,
      "d": 400,
      "v": 127
    },
    {
      "midi": 55,
      "hit": false,
      "t": 212800,
      "d": 100,
      "v": 127
    },
    {
      "midi": 57,
      "hit": false,
      "t": 212900,
      "d": 100,
      "v": 127
    },
    {
      "midi": 55,
      "hit": false,
      "t": 213100,
      "d": 100,
      "v": 127
    },
    {
      "midi": 67,
      "hit": false,
      "t": 213200,
      "d": 400,
      "v": 127
    },
    {
      "midi": 53,
      "hit": false,
      "t": 213200,
      "d": 100,
      "v": 127
    },
    {
      "midi": 55,
      "hit": false,
      "t": 213300,
      "d": 100,
      "v": 127
    },
    {
      "midi": 57,
      "hit": false,
      "t": 213500,
      "d": 100,
      "v": 127
    },
    {
      "midi": 74,
      "hit": false,
      "t": 213600,
      "d": 100,
      "v": 127
    },
    {
      "midi": 58,
      "hit": false,
      "t": 213600,
      "d": 400,
      "v": 127
    },
    {
      "midi": 76,
      "hit": false,
      "t": 213700,
      "d": 100,
      "v": 127
    },
    {
      "midi": 74,
      "hit": false,
      "t": 213900,
      "d": 100,
      "v": 127
    },
    {
      "midi": 73,
      "hit": false,
      "t": 214000,
      "d": 100,
      "v": 127
    },
    {
      "midi": 55,
      "hit": false,
      "t": 214000,
      "d": 400,
      "v": 127
    },
    {
      "midi": 74,
      "hit": false,
      "t": 214100,
      "d": 100,
      "v": 127
    },
    {
      "midi": 76,
      "hit": false,
      "t": 214300,
      "d": 100,
      "v": 127
    },
    {
      "midi": 77,
      "hit": false,
      "t": 214400,
      "d": 400,
      "v": 127
    },
    {
      "midi": 50,
      "hit": false,
      "t": 214400,
      "d": 100,
      "v": 127
    },
    {
      "midi": 52,
      "hit": false,
      "t": 214500,
      "d": 100,
      "v": 127
    },
    {
      "midi": 50,
      "hit": false,
      "t": 214700,
      "d": 100,
      "v": 127
    },
    {
      "midi": 74,
      "hit": false,
      "t": 214800,
      "d": 400,
      "v": 127
    },
    {
      "midi": 49,
      "hit": false,
      "t": 214800,
      "d": 100,
      "v": 127
    },
    {
      "midi": 50,
      "hit": false,
      "t": 214900,
      "d": 100,
      "v": 127
    },
    {
      "midi": 52,
      "hit": false,
      "t": 215100,
      "d": 100,
      "v": 127
    },
    {
      "midi": 69,
      "hit": false,
      "t": 215200,
      "d": 100,
      "v": 127
    },
    {
      "midi": 53,
      "hit": false,
      "t": 215200,
      "d": 100,
      "v": 127
    },
    {
      "midi": 71,
      "hit": false,
      "t": 215300,
      "d": 100,
      "v": 127
    },
    {
      "midi": 55,
      "hit": false,
      "t": 215300,
      "d": 100,
      "v": 127
    },
    {
      "midi": 69,
      "hit": false,
      "t": 215500,
      "d": 100,
      "v": 127
    },
    {
      "midi": 53,
      "hit": false,
      "t": 215500,
      "d": 100,
      "v": 127
    },
    {
      "midi": 68,
      "hit": false,
      "t": 215600,
      "d": 100,
      "v": 127
    },
    {
      "midi": 52,
      "hit": false,
      "t": 215600,
      "d": 100,
      "v": 127
    },
    {
      "midi": 69,
      "hit": false,
      "t": 215700,
      "d": 100,
      "v": 127
    },
    {
      "midi": 53,
      "hit": false,
      "t": 215700,
      "d": 100,
      "v": 127
    },
    {
      "midi": 71,
      "hit": false,
      "t": 215900,
      "d": 100,
      "v": 127
    },
    {
      "midi": 55,
      "hit": false,
      "t": 215900,
      "d": 100,
      "v": 127
    },
    {
      "midi": 73,
      "hit": false,
      "t": 216000,
      "d": 100,
      "v": 127
    },
    {
      "midi": 57,
      "hit": false,
      "t": 216000,
      "d": 800,
      "v": 127
    },
    {
      "midi": 74,
      "hit": false,
      "t": 216100,
      "d": 100,
      "v": 127
    },
    {
      "midi": 73,
      "hit": false,
      "t": 216300,
      "d": 100,
      "v": 127
    },
    {
      "midi": 71,
      "hit": false,
      "t": 216400,
      "d": 100,
      "v": 127
    },
    {
      "midi": 73,
      "hit": false,
      "t": 216500,
      "d": 100,
      "v": 127
    },
    {
      "midi": 74,
      "hit": false,
      "t": 216700,
      "d": 100,
      "v": 127
    },
    {
      "midi": 76,
      "hit": false,
      "t": 216800,
      "d": 200,
      "v": 127
    },
    {
      "midi": 69,
      "hit": false,
      "t": 217000,
      "d": 200,
      "v": 127
    },
    {
      "midi": 55,
      "hit": false,
      "t": 217000,
      "d": 200,
      "v": 127
    },
    {
      "midi": 81,
      "hit": false,
      "t": 217200,
      "d": 400,
      "v": 127
    },
    {
      "midi": 53,
      "hit": false,
      "t": 217200,
      "d": 200,
      "v": 127
    },
    {
      "midi": 52,
      "hit": false,
      "t": 217400,
      "d": 200,
      "v": 127
    },
    {
      "midi": 53,
      "hit": false,
      "t": 217600,
      "d": 800,
      "v": 127
    },
    {
      "midi": 79,
      "hit": false,
      "t": 217800,
      "d": 200,
      "v": 127
    },
    {
      "midi": 77,
      "hit": false,
      "t": 218000,
      "d": 200,
      "v": 127
    },
    {
      "midi": 76,
      "hit": false,
      "t": 218200,
      "d": 200,
      "v": 127
    },
    {
      "midi": 77,
      "hit": false,
      "t": 218400,
      "d": 800,
      "v": 127
    },
    {
      "midi": 52,
      "hit": false,
      "t": 218600,
      "d": 200,
      "v": 127
    },
    {
      "midi": 50,
      "hit": false,
      "t": 218800,
      "d": 200,
      "v": 127
    },
    {
      "midi": 49,
      "hit": false,
      "t": 219000,
      "d": 200,
      "v": 127
    },
    {
      "midi": 50,
      "hit": false,
      "t": 219200,
      "d": 400,
      "v": 127
    },
    {
      "midi": 76,
      "hit": false,
      "t": 219400,
      "d": 200,
      "v": 127
    },
    {
      "midi": 74,
      "hit": false,
      "t": 219600,
      "d": 200,
      "v": 127
    },
    {
      "midi": 52,
      "hit": false,
      "t": 219600,
      "d": 200,
      "v": 127
    },
    {
      "midi": 72,
      "hit": false,
      "t": 219800,
      "d": 200,
      "v": 127
    },
    {
      "midi": 53,
      "hit": false,
      "t": 219800,
      "d": 200,
      "v": 127
    },
    {
      "midi": 70,
      "hit": false,
      "t": 220000,
      "d": 200,
      "v": 127
    },
    {
      "midi": 55,
      "hit": false,
      "t": 220000,
      "d": 200,
      "v": 127
    },
    {
      "midi": 72,
      "hit": false,
      "t": 220200,
      "d": 200,
      "v": 127
    },
    {
      "midi": 57,
      "hit": false,
      "t": 220200,
      "d": 200,
      "v": 127
    },
    {
      "midi": 74,
      "hit": false,
      "t": 220400,
      "d": 200,
      "v": 127
    },
    {
      "midi": 58,
      "hit": false,
      "t": 220400,
      "d": 400,
      "v": 127
    },
    {
      "midi": 70,
      "hit": false,
      "t": 220600,
      "d": 200,
      "v": 127
    },
    {
      "midi": 67,
      "hit": false,
      "t": 220800,
      "d": 200,
      "v": 127
    },
    {
      "midi": 58,
      "hit": false,
      "t": 220800,
      "d": 400,
      "v": 127
    },
    {
      "midi": 69,
      "hit": false,
      "t": 221000,
      "d": 200,
      "v": 127
    },
    {
      "midi": 70,
      "hit": false,
      "t": 221200,
      "d": 200,
      "v": 127
    },
    {
      "midi": 49,
      "hit": false,
      "t": 221200,
      "d": 600,
      "v": 127
    },
    {
      "midi": 64,
      "hit": false,
      "t": 221400,
      "d": 200,
      "v": 127
    },
    {
      "midi": 76,
      "hit": false,
      "t": 221600,
      "d": 200,
      "v": 127
    },
    {
      "midi": 73,
      "hit": false,
      "t": 221800,
      "d": 200,
      "v": 127
    },
    {
      "midi": 45,
      "hit": false,
      "t": 221800,
      "d": 200,
      "v": 127
    },
    {
      "midi": 74,
      "hit": false,
      "t": 222000,
      "d": 200,
      "v": 127
    },
    {
      "midi": 47,
      "hit": false,
      "t": 222000,
      "d": 200,
      "v": 127
    },
    {
      "midi": 76,
      "hit": false,
      "t": 222200,
      "d": 200,
      "v": 127
    },
    {
      "midi": 49,
      "hit": false,
      "t": 222200,
      "d": 200,
      "v": 127
    },
    {
      "midi": 65,
      "hit": false,
      "t": 222400,
      "d": 200,
      "v": 127
    },
    {
      "midi": 50,
      "hit": false,
      "t": 222400,
      "d": 200,
      "v": 127
    },
    {
      "midi": 69,
      "hit": false,
      "t": 222600,
      "d": 200,
      "v": 127
    },
    {
      "midi": 49,
      "hit": false,
      "t": 222600,
      "d": 200,
      "v": 127
    },
    {
      "midi": 74,
      "hit": false,
      "t": 222800,
      "d": 400,
      "v": 127
    },
    {
      "midi": 47,
      "hit": false,
      "t": 222800,
      "d": 200,
      "v": 127
    },
    {
      "midi": 45,
      "hit": false,
      "t": 223000,
      "d": 200,
      "v": 127
    },
    {
      "midi": 67,
      "hit": false,
      "t": 223200,
      "d": 200,
      "v": 127
    },
    {
      "midi": 52,
      "hit": false,
      "t": 223200,
      "d": 200,
      "v": 127
    },
    {
      "midi": 70,
      "hit": false,
      "t": 223400,
      "d": 200,
      "v": 127
    },
    {
      "midi": 49,
      "hit": false,
      "t": 223400,
      "d": 200,
      "v": 127
    },
    {
      "midi": 76,
      "hit": false,
      "t": 223600,
      "d": 400,
      "v": 127
    },
    {
      "midi": 47,
      "hit": false,
      "t": 223600,
      "d": 200,
      "v": 127
    },
    {
      "midi": 45,
      "hit": false,
      "t": 223800,
      "d": 200,
      "v": 127
    },
    {
      "midi": 69,
      "hit": false,
      "t": 224000,
      "d": 200,
      "v": 127
    },
    {
      "midi": 53,
      "hit": false,
      "t": 224000,
      "d": 200,
      "v": 127
    },
    {
      "midi": 73,
      "hit": false,
      "t": 224200,
      "d": 200,
      "v": 127
    },
    {
      "midi": 52,
      "hit": false,
      "t": 224200,
      "d": 200,
      "v": 127
    },
    {
      "midi": 74,
      "hit": false,
      "t": 224400,
      "d": 200,
      "v": 127
    },
    {
      "midi": 50,
      "hit": false,
      "t": 224400,
      "d": 600,
      "v": 127
    },
    {
      "midi": 76,
      "hit": false,
      "t": 224600,
      "d": 200,
      "v": 127
    },
    {
      "midi": 77,
      "hit": false,
      "t": 224800,
      "d": 200,
      "v": 127
    },
    {
      "midi": 74,
      "hit": false,
      "t": 225000,
      "d": 200,
      "v": 127
    },
    {
      "midi": 58,
      "hit": false,
      "t": 225000,
      "d": 200,
      "v": 127
    },
    {
      "midi": 73,
      "hit": false,
      "t": 225200,
      "d": 200,
      "v": 127
    },
    {
      "midi": 57,
      "hit": false,
      "t": 225200,
      "d": 200,
      "v": 127
    },
    {
      "midi": 71,
      "hit": false,
      "t": 225400,
      "d": 200,
      "v": 127
    },
    {
      "midi": 56,
      "hit": false,
      "t": 225400,
      "d": 200,
      "v": 127
    },
    {
      "midi": 73,
      "hit": false,
      "t": 225600,
      "d": 400,
      "v": 127
    },
    {
      "midi": 57,
      "hit": false,
      "t": 225600,
      "d": 200,
      "v": 127
    },
    {
      "midi": 53,
      "hit": false,
      "t": 225800,
      "d": 200,
      "v": 127
    },
    {
      "midi": 77,
      "hit": false,
      "t": 226000,
      "d": 400,
      "v": 127
    },
    {
      "midi": 52,
      "hit": false,
      "t": 226000,
      "d": 200,
      "v": 127
    },
    {
      "midi": 50,
      "hit": false,
      "t": 226200,
      "d": 200,
      "v": 127
    },
    {
      "midi": 74,
      "hit": false,
      "t": 226400,
      "d": 400,
      "v": 127
    },
    {
      "midi": 53,
      "hit": false,
      "t": 226400,
      "d": 200,
      "v": 127
    },
    {
      "midi": 52,
      "hit": false,
      "t": 226600,
      "d": 200,
      "v": 127
    },
    {
      "midi": 76,
      "hit": false,
      "t": 226800,
      "d": 400,
      "v": 127
    },
    {
      "midi": 50,
      "hit": false,
      "t": 226800,
      "d": 200,
      "v": 127
    },
    {
      "midi": 49,
      "hit": false,
      "t": 227000,
      "d": 200,
      "v": 127
    },
    {
      "midi": 77,
      "hit": false,
      "t": 227200,
      "d": 200,
      "v": 127
    },
    {
      "midi": 50,
      "hit": false,
      "t": 227200,
      "d": 200,
      "v": 127
    },
    {
      "midi": 76,
      "hit": false,
      "t": 227400,
      "d": 200,
      "v": 127
    },
    {
      "midi": 41,
      "hit": false,
      "t": 227400,
      "d": 200,
      "v": 127
    },
    {
      "midi": 74,
      "hit": false,
      "t": 227600,
      "d": 600,
      "v": 127
    },
    {
      "midi": 43,
      "hit": false,
      "t": 227600,
      "d": 200,
      "v": 127
    },
    {
      "midi": 45,
      "hit": false,
      "t": 227800,
      "d": 200,
      "v": 127
    },
    {
      "midi": 46,
      "hit": false,
      "t": 228000,
      "d": 200,
      "v": 127
    },
    {
      "midi": 82,
      "hit": false,
      "t": 228200,
      "d": 200,
      "v": 127
    },
    {
      "midi": 43,
      "hit": false,
      "t": 228200,
      "d": 200,
      "v": 127
    },
    {
      "midi": 81,
      "hit": false,
      "t": 228400,
      "d": 200,
      "v": 127
    },
    {
      "midi": 41,
      "hit": false,
      "t": 228400,
      "d": 200,
      "v": 127
    },
    {
      "midi": 80,
      "hit": false,
      "t": 228600,
      "d": 200,
      "v": 127
    },
    {
      "midi": 40,
      "hit": false,
      "t": 228600,
      "d": 200,
      "v": 127
    },
    {
      "midi": 81,
      "hit": false,
      "t": 228800,
      "d": 200,
      "v": 127
    },
    {
      "midi": 41,
      "hit": false,
      "t": 228800,
      "d": 400,
      "v": 127
    },
    {
      "midi": 77,
      "hit": false,
      "t": 229000,
      "d": 200,
      "v": 127
    },
    {
      "midi": 76,
      "hit": false,
      "t": 229200,
      "d": 200,
      "v": 127
    },
    {
      "midi": 46,
      "hit": false,
      "t": 229200,
      "d": 400,
      "v": 127
    },
    {
      "midi": 74,
      "hit": false,
      "t": 229400,
      "d": 200,
      "v": 127
    },
    {
      "midi": 77,
      "hit": false,
      "t": 229600,
      "d": 200,
      "v": 127
    },
    {
      "midi": 43,
      "hit": false,
      "t": 229600,
      "d": 400,
      "v": 127
    },
    {
      "midi": 76,
      "hit": false,
      "t": 229800,
      "d": 200,
      "v": 127
    },
    {
      "midi": 74,
      "hit": false,
      "t": 230000,
      "d": 200,
      "v": 127
    },
    {
      "midi": 45,
      "hit": false,
      "t": 230000,
      "d": 400,
      "v": 127
    },
    {
      "midi": 73,
      "hit": false,
      "t": 230200,
      "d": 200,
      "v": 127
    },
    {
      "midi": 74,
      "hit": false,
      "t": 230400,
      "d": 1600,
      "v": 127
    },
    {
      "midi": 38,
      "hit": false,
      "t": 230400,
      "d": 1600,
      "v": 127
    }
  ]
}