{
  "jsonPath": "Classical/Classical/Johann Sebastian Bach/english-suite-3-gavotte.json",
  "path": "Classical\\Classical\\Johann Sebastian Bach\\English Suite 3 Gavotte.mid",
  "name": "English Suite 3 Gavotte",
  "difficulty": "Advanced",
  "bpm": 160,
  "notes": [
    {
      "midi": 79,
      "hit": false,
      "t": 0,
      "d": 375,
      "v": 90
    },
    {
      "midi": 43,
      "hit": false,
      "t": 0,
      "d": 375,
      "v": 84
    },
    {
      "midi": 82,
      "hit": false,
      "t": 375,
      "d": 187.5,
      "v": 104
    },
    {
      "midi": 50,
      "hit": false,
      "t": 375,
      "d": 375,
      "v": 107
    },
    {
      "midi": 81,
      "hit": false,
      "t": 562.5,
      "d": 187.5,
      "v": 92
    },
    {
      "midi": 82,
      "hit": false,
      "t": 750,
      "d": 375,
      "v": 99
    },
    {
      "midi": 55,
      "hit": false,
      "t": 750,
      "d": 375,
      "v": 104
    },
    {
      "midi": 79,
      "hit": false,
      "t": 1125,
      "d": 187.5,
      "v": 91
    },
    {
      "midi": 58,
      "hit": false,
      "t": 1125,
      "d": 375,
      "v": 98
    },
    {
      "midi": 74,
      "hit": false,
      "t": 1312.5,
      "d": 187.5,
      "v": 82
    },
    {
      "midi": 81,
      "hit": false,
      "t": 1500,
      "d": 375,
      "v": 112
    },
    {
      "midi": 60,
      "hit": false,
      "t": 1500,
      "d": 375,
      "v": 105
    },
    {
      "midi": 78,
      "hit": false,
      "t": 1875,
      "d": 187.5,
      "v": 93
    },
    {
      "midi": 62,
      "hit": false,
      "t": 1875,
      "d": 375,
      "v": 106
    },
    {
      "midi": 74,
      "hit": false,
      "t": 2062.5,
      "d": 187.5,
      "v": 83
    },
    {
      "midi": 79,
      "hit": false,
      "t": 2250,
      "d": 750,
      "v": 110
    },
    {
      "midi": 63,
      "hit": false,
      "t": 2250,
      "d": 187.5,
      "v": 104
    },
    {
      "midi": 65,
      "hit": false,
      "t": 2437.5,
      "d": 187.5,
      "v": 102
    },
    {
      "midi": 63,
      "hit": false,
      "t": 2625,
      "d": 187.5,
      "v": 91
    },
    {
      "midi": 62,
      "hit": false,
      "t": 2812.5,
      "d": 187.5,
      "v": 88
    },
    {
      "midi": 75,
      "hit": false,
      "t": 3000,
      "d": 375,
      "v": 75
    },
    {
      "midi": 60,
      "hit": false,
      "t": 3000,
      "d": 187.5,
      "v": 76
    },
    {
      "midi": 58,
      "hit": false,
      "t": 3187.5,
      "d": 187.5,
      "v": 84
    },
    {
      "midi": 72,
      "hit": false,
      "t": 3375,
      "d": 187.5,
      "v": 77
    },
    {
      "midi": 57,
      "hit": false,
      "t": 3375,
      "d": 187.5,
      "v": 79
    },
    {
      "midi": 69,
      "hit": false,
      "t": 3562.5,
      "d": 187.5,
      "v": 69
    },
    {
      "midi": 60,
      "hit": false,
      "t": 3562.5,
      "d": 187.5,
      "v": 88
    },
    {
      "midi": 74,
      "hit": false,
      "t": 3750,
      "d": 375,
      "v": 94
    },
    {
      "midi": 58,
      "hit": false,
      "t": 3750,
      "d": 187.5,
      "v": 77
    },
    {
      "midi": 57,
      "hit": false,
      "t": 3937.5,
      "d": 187.5,
      "v": 82
    },
    {
      "midi": 70,
      "hit": false,
      "t": 4125,
      "d": 187.5,
      "v": 76
    },
    {
      "midi": 55,
      "hit": false,
      "t": 4125,
      "d": 187.5,
      "v": 81
    },
    {
      "midi": 67,
      "hit": false,
      "t": 4312.5,
      "d": 187.5,
      "v": 76
    },
    {
      "midi": 58,
      "hit": false,
      "t": 4312.5,
      "d": 187.5,
      "v": 85
    },
    {
      "midi": 72,
      "hit": false,
      "t": 4500,
      "d": 187.5,
      "v": 93
    },
    {
      "midi": 57,
      "hit": false,
      "t": 4500,
      "d": 187.5,
      "v": 79
    },
    {
      "midi": 69,
      "hit": false,
      "t": 4687.5,
      "d": 187.5,
      "v": 78
    },
    {
      "midi": 55,
      "hit": false,
      "t": 4687.5,
      "d": 187.5,
      "v": 78
    },
    {
      "midi": 74,
      "hit": false,
      "t": 4875,
      "d": 375,
      "v": 94
    },
    {
      "midi": 54,
      "hit": false,
      "t": 4875,
      "d": 187.5,
      "v": 80
    },
    {
      "midi": 50,
      "hit": false,
      "t": 5062.5,
      "d": 187.5,
      "v": 77
    },
    {
      "midi": 70,
      "hit": false,
      "t": 5250,
      "d": 375,
      "v": 78
    },
    {
      "midi": 55,
      "hit": false,
      "t": 5250,
      "d": 375,
      "v": 90
    },
    {
      "midi": 69,
      "hit": false,
      "t": 5625,
      "d": 187.5,
      "v": 76
    },
    {
      "midi": 50,
      "hit": false,
      "t": 5625,
      "d": 375,
      "v": 80
    },
    {
      "midi": 67,
      "hit": false,
      "t": 5812.5,
      "d": 187.5,
      "v": 75
    },
    {
      "midi": 79,
      "hit": false,
      "t": 6000,
      "d": 375,
      "v": 123
    },
    {
      "midi": 46,
      "hit": false,
      "t": 6000,
      "d": 375,
      "v": 91
    },
    {
      "midi": 82,
      "hit": false,
      "t": 6375,
      "d": 187.5,
      "v": 107
    },
    {
      "midi": 50,
      "hit": false,
      "t": 6375,
      "d": 375,
      "v": 100
    },
    {
      "midi": 81,
      "hit": false,
      "t": 6562.5,
      "d": 187.5,
      "v": 97
    },
    {
      "midi": 82,
      "hit": false,
      "t": 6750,
      "d": 375,
      "v": 104
    },
    {
      "midi": 55,
      "hit": false,
      "t": 6750,
      "d": 375,
      "v": 104
    },
    {
      "midi": 79,
      "hit": false,
      "t": 7125,
      "d": 187.5,
      "v": 90
    },
    {
      "midi": 58,
      "hit": false,
      "t": 7125,
      "d": 375,
      "v": 103
    },
    {
      "midi": 74,
      "hit": false,
      "t": 7312.5,
      "d": 187.5,
      "v": 84
    },
    {
      "midi": 81,
      "hit": false,
      "t": 7500,
      "d": 375,
      "v": 116
    },
    {
      "midi": 60,
      "hit": false,
      "t": 7500,
      "d": 375,
      "v": 105
    },
    {
      "midi": 78,
      "hit": false,
      "t": 7875,
      "d": 187.5,
      "v": 95
    },
    {
      "midi": 62,
      "hit": false,
      "t": 7875,
      "d": 375,
      "v": 102
    },
    {
      "midi": 74,
      "hit": false,
      "t": 8062.5,
      "d": 187.5,
      "v": 83
    },
    {
      "midi": 79,
      "hit": false,
      "t": 8250,
      "d": 562.5,
      "v": 110
    },
    {
      "midi": 63,
      "hit": false,
      "t": 8250,
      "d": 187.5,
      "v": 107
    },
    {
      "midi": 65,
      "hit": false,
      "t": 8437.5,
      "d": 187.5,
      "v": 103
    },
    {
      "midi": 63,
      "hit": false,
      "t": 8625,
      "d": 187.5,
      "v": 94
    },
    {
      "midi": 77,
      "hit": false,
      "t": 8812.5,
      "d": 187.5,
      "v": 94
    },
    {
      "midi": 62,
      "hit": false,
      "t": 8812.5,
      "d": 187.5,
      "v": 95
    },
    {
      "midi": 75,
      "hit": false,
      "t": 9000,
      "d": 187.5,
      "v": 97
    },
    {
      "midi": 60,
      "hit": false,
      "t": 9000,
      "d": 187.5,
      "v": 97
    },
    {
      "midi": 74,
      "hit": false,
      "t": 9187.5,
      "d": 187.5,
      "v": 95
    },
    {
      "midi": 58,
      "hit": false,
      "t": 9187.5,
      "d": 187.5,
      "v": 95
    },
    {
      "midi": 72,
      "hit": false,
      "t": 9375,
      "d": 187.5,
      "v": 92
    },
    {
      "midi": 57,
      "hit": false,
      "t": 9375,
      "d": 187.5,
      "v": 92
    },
    {
      "midi": 70,
      "hit": false,
      "t": 9562.5,
      "d": 187.5,
      "v": 90
    },
    {
      "midi": 55,
      "hit": false,
      "t": 9562.5,
      "d": 187.5,
      "v": 90
    },
    {
      "midi": 81,
      "hit": false,
      "t": 9750,
      "d": 187.5,
      "v": 87
    },
    {
      "midi": 53,
      "hit": false,
      "t": 9750,
      "d": 375,
      "v": 87
    },
    {
      "midi": 82,
      "hit": false,
      "t": 9937.5,
      "d": 187.5,
      "v": 85
    },
    {
      "midi": 74,
      "hit": false,
      "t": 10125,
      "d": 187.5,
      "v": 82
    },
    {
      "midi": 55,
      "hit": false,
      "t": 10125,
      "d": 375,
      "v": 82
    },
    {
      "midi": 75,
      "hit": false,
      "t": 10312.5,
      "d": 187.5,
      "v": 80
    },
    {
      "midi": 77,
      "hit": false,
      "t": 10500,
      "d": 187.5,
      "v": 77
    },
    {
      "midi": 51,
      "hit": false,
      "t": 10500,
      "d": 375,
      "v": 77
    },
    {
      "midi": 72,
      "hit": false,
      "t": 10687.5,
      "d": 187.5,
      "v": 74
    },
    {
      "midi": 74,
      "hit": false,
      "t": 10875,
      "d": 375,
      "v": 72
    },
    {
      "midi": 53,
      "hit": false,
      "t": 10875,
      "d": 375,
      "v": 72
    },
    {
      "midi": 72,
      "hit": false,
      "t": 11250,
      "d": 46.875,
      "v": 66
    },
    {
      "midi": 46,
      "hit": false,
      "t": 11250,
      "d": 187.5,
      "v": 64
    },
    {
      "midi": 70,
      "hit": false,
      "t": 11296.875,
      "d": 750,
      "v": 68
    },
    {
      "midi": 48,
      "hit": false,
      "t": 11437.5,
      "d": 187.5,
      "v": 75
    },
    {
      "midi": 46,
      "hit": false,
      "t": 11625,
      "d": 187.5,
      "v": 68
    },
    {
      "midi": 45,
      "hit": false,
      "t": 11812.5,
      "d": 187.5,
      "v": 72
    },
    {
      "midi": 79,
      "hit": false,
      "t": 12000,
      "d": 375,
      "v": 117
    },
    {
      "midi": 43,
      "hit": false,
      "t": 12000,
      "d": 375,
      "v": 95
    },
    {
      "midi": 82,
      "hit": false,
      "t": 12375,
      "d": 187.5,
      "v": 108
    },
    {
      "midi": 50,
      "hit": false,
      "t": 12375,
      "d": 375,
      "v": 108
    },
    {
      "midi": 81,
      "hit": false,
      "t": 12562.5,
      "d": 187.5,
      "v": 95
    },
    {
      "midi": 82,
      "hit": false,
      "t": 12750,
      "d": 375,
      "v": 103
    },
    {
      "midi": 55,
      "hit": false,
      "t": 12750,
      "d": 375,
      "v": 107
    },
    {
      "midi": 79,
      "hit": false,
      "t": 13125,
      "d": 187.5,
      "v": 91
    },
    {
      "midi": 58,
      "hit": false,
      "t": 13125,
      "d": 375,
      "v": 102
    },
    {
      "midi": 74,
      "hit": false,
      "t": 13312.5,
      "d": 187.5,
      "v": 86
    },
    {
      "midi": 81,
      "hit": false,
      "t": 13500,
      "d": 375,
      "v": 115
    },
    {
      "midi": 60,
      "hit": false,
      "t": 13500,
      "d": 375,
      "v": 107
    },
    {
      "midi": 78,
      "hit": false,
      "t": 13875,
      "d": 187.5,
      "v": 91
    },
    {
      "midi": 62,
      "hit": false,
      "t": 13875,
      "d": 375,
      "v": 101
    },
    {
      "midi": 74,
      "hit": false,
      "t": 14062.5,
      "d": 187.5,
      "v": 87
    },
    {
      "midi": 79,
      "hit": false,
      "t": 14250,
      "d": 750,
      "v": 109
    },
    {
      "midi": 63,
      "hit": false,
      "t": 14250,
      "d": 187.5,
      "v": 102
    },
    {
      "midi": 65,
      "hit": false,
      "t": 14437.5,
      "d": 187.5,
      "v": 103
    },
    {
      "midi": 63,
      "hit": false,
      "t": 14625,
      "d": 187.5,
      "v": 91
    },
    {
      "midi": 62,
      "hit": false,
      "t": 14812.5,
      "d": 187.5,
      "v": 87
    },
    {
      "midi": 75,
      "hit": false,
      "t": 15000,
      "d": 375,
      "v": 77
    },
    {
      "midi": 60,
      "hit": false,
      "t": 15000,
      "d": 187.5,
      "v": 76
    },
    {
      "midi": 58,
      "hit": false,
      "t": 15187.5,
      "d": 187.5,
      "v": 79
    },
    {
      "midi": 72,
      "hit": false,
      "t": 15375,
      "d": 187.5,
      "v": 75
    },
    {
      "midi": 57,
      "hit": false,
      "t": 15375,
      "d": 187.5,
      "v": 81
    },
    {
      "midi": 69,
      "hit": false,
      "t": 15562.5,
      "d": 187.5,
      "v": 73
    },
    {
      "midi": 60,
      "hit": false,
      "t": 15562.5,
      "d": 187.5,
      "v": 94
    },
    {
      "midi": 74,
      "hit": false,
      "t": 15750,
      "d": 375,
      "v": 94
    },
    {
      "midi": 58,
      "hit": false,
      "t": 15750,
      "d": 187.5,
      "v": 81
    },
    {
      "midi": 57,
      "hit": false,
      "t": 15937.5,
      "d": 187.5,
      "v": 81
    },
    {
      "midi": 70,
      "hit": false,
      "t": 16125,
      "d": 187.5,
      "v": 72
    },
    {
      "midi": 55,
      "hit": false,
      "t": 16125,
      "d": 187.5,
      "v": 81
    },
    {
      "midi": 67,
      "hit": false,
      "t": 16312.5,
      "d": 187.5,
      "v": 74
    },
    {
      "midi": 58,
      "hit": false,
      "t": 16312.5,
      "d": 187.5,
      "v": 87
    },
    {
      "midi": 72,
      "hit": false,
      "t": 16500,
      "d": 187.5,
      "v": 91
    },
    {
      "midi": 57,
      "hit": false,
      "t": 16500,
      "d": 187.5,
      "v": 79
    },
    {
      "midi": 69,
      "hit": false,
      "t": 16687.5,
      "d": 187.5,
      "v": 78
    },
    {
      "midi": 55,
      "hit": false,
      "t": 16687.5,
      "d": 187.5,
      "v": 79
    },
    {
      "midi": 74,
      "hit": false,
      "t": 16875,
      "d": 375,
      "v": 93
    },
    {
      "midi": 54,
      "hit": false,
      "t": 16875,
      "d": 187.5,
      "v": 75
    },
    {
      "midi": 50,
      "hit": false,
      "t": 17062.5,
      "d": 187.5,
      "v": 77
    },
    {
      "midi": 70,
      "hit": false,
      "t": 17250,
      "d": 375,
      "v": 78
    },
    {
      "midi": 55,
      "hit": false,
      "t": 17250,
      "d": 375,
      "v": 89
    },
    {
      "midi": 69,
      "hit": false,
      "t": 17625,
      "d": 187.5,
      "v": 78
    },
    {
      "midi": 50,
      "hit": false,
      "t": 17625,
      "d": 375,
      "v": 82
    },
    {
      "midi": 67,
      "hit": false,
      "t": 17812.5,
      "d": 187.5,
      "v": 74
    },
    {
      "midi": 79,
      "hit": false,
      "t": 18000,
      "d": 375,
      "v": 124
    },
    {
      "midi": 46,
      "hit": false,
      "t": 18000,
      "d": 375,
      "v": 93
    },
    {
      "midi": 82,
      "hit": false,
      "t": 18375,
      "d": 187.5,
      "v": 113
    },
    {
      "midi": 50,
      "hit": false,
      "t": 18375,
      "d": 375,
      "v": 104
    },
    {
      "midi": 81,
      "hit": false,
      "t": 18562.5,
      "d": 187.5,
      "v": 92
    },
    {
      "midi": 82,
      "hit": false,
      "t": 18750,
      "d": 375,
      "v": 103
    },
    {
      "midi": 55,
      "hit": false,
      "t": 18750,
      "d": 375,
      "v": 105
    },
    {
      "midi": 79,
      "hit": false,
      "t": 19125,
      "d": 187.5,
      "v": 89
    },
    {
      "midi": 58,
      "hit": false,
      "t": 19125,
      "d": 375,
      "v": 102
    },
    {
      "midi": 74,
      "hit": false,
      "t": 19312.5,
      "d": 187.5,
      "v": 82
    },
    {
      "midi": 81,
      "hit": false,
      "t": 19500,
      "d": 375,
      "v": 113
    },
    {
      "midi": 60,
      "hit": false,
      "t": 19500,
      "d": 375,
      "v": 107
    },
    {
      "midi": 78,
      "hit": false,
      "t": 19875,
      "d": 187.5,
      "v": 91
    },
    {
      "midi": 62,
      "hit": false,
      "t": 19875,
      "d": 375,
      "v": 105
    },
    {
      "midi": 74,
      "hit": false,
      "t": 20062.5,
      "d": 187.5,
      "v": 90
    },
    {
      "midi": 79,
      "hit": false,
      "t": 20250,
      "d": 562.5,
      "v": 106
    },
    {
      "midi": 63,
      "hit": false,
      "t": 20250,
      "d": 187.5,
      "v": 99
    },
    {
      "midi": 65,
      "hit": false,
      "t": 20437.5,
      "d": 187.5,
      "v": 103
    },
    {
      "midi": 63,
      "hit": false,
      "t": 20625,
      "d": 187.5,
      "v": 92
    },
    {
      "midi": 77,
      "hit": false,
      "t": 20812.5,
      "d": 187.5,
      "v": 89
    },
    {
      "midi": 62,
      "hit": false,
      "t": 20812.5,
      "d": 187.5,
      "v": 94
    },
    {
      "midi": 75,
      "hit": false,
      "t": 21000,
      "d": 187.5,
      "v": 97
    },
    {
      "midi": 60,
      "hit": false,
      "t": 21000,
      "d": 187.5,
      "v": 97
    },
    {
      "midi": 74,
      "hit": false,
      "t": 21187.5,
      "d": 187.5,
      "v": 95
    },
    {
      "midi": 58,
      "hit": false,
      "t": 21187.5,
      "d": 187.5,
      "v": 95
    },
    {
      "midi": 72,
      "hit": false,
      "t": 21375,
      "d": 187.5,
      "v": 92
    },
    {
      "midi": 57,
      "hit": false,
      "t": 21375,
      "d": 187.5,
      "v": 92
    },
    {
      "midi": 70,
      "hit": false,
      "t": 21562.5,
      "d": 187.5,
      "v": 90
    },
    {
      "midi": 55,
      "hit": false,
      "t": 21562.5,
      "d": 187.5,
      "v": 90
    },
    {
      "midi": 81,
      "hit": false,
      "t": 21750,
      "d": 187.5,
      "v": 87
    },
    {
      "midi": 53,
      "hit": false,
      "t": 21750,
      "d": 375,
      "v": 87
    },
    {
      "midi": 82,
      "hit": false,
      "t": 21937.5,
      "d": 187.5,
      "v": 85
    },
    {
      "midi": 74,
      "hit": false,
      "t": 22125,
      "d": 187.5,
      "v": 82
    },
    {
      "midi": 55,
      "hit": false,
      "t": 22125,
      "d": 375,
      "v": 82
    },
    {
      "midi": 75,
      "hit": false,
      "t": 22312.5,
      "d": 187.5,
      "v": 80
    },
    {
      "midi": 77,
      "hit": false,
      "t": 22500,
      "d": 187.5,
      "v": 77
    },
    {
      "midi": 51,
      "hit": false,
      "t": 22500,
      "d": 375,
      "v": 77
    },
    {
      "midi": 72,
      "hit": false,
      "t": 22687.5,
      "d": 187.5,
      "v": 74
    },
    {
      "midi": 74,
      "hit": false,
      "t": 22875,
      "d": 375,
      "v": 72
    },
    {
      "midi": 53,
      "hit": false,
      "t": 22875,
      "d": 375,
      "v": 72
    },
    {
      "midi": 72,
      "hit": false,
      "t": 23250,
      "d": 46.875,
      "v": 62
    },
    {
      "midi": 46,
      "hit": false,
      "t": 23250,
      "d": 187.5,
      "v": 63
    },
    {
      "midi": 70,
      "hit": false,
      "t": 23296.875,
      "d": 750,
      "v": 66
    },
    {
      "midi": 53,
      "hit": false,
      "t": 23437.5,
      "d": 187.5,
      "v": 78
    },
    {
      "midi": 55,
      "hit": false,
      "t": 23625,
      "d": 187.5,
      "v": 75
    },
    {
      "midi": 57,
      "hit": false,
      "t": 23812.5,
      "d": 187.5,
      "v": 74
    },
    {
      "midi": 74,
      "hit": false,
      "t": 24000,
      "d": 375,
      "v": 98
    },
    {
      "midi": 58,
      "hit": false,
      "t": 24000,
      "d": 375,
      "v": 86
    },
    {
      "midi": 77,
      "hit": false,
      "t": 24375,
      "d": 187.5,
      "v": 91
    },
    {
      "midi": 60,
      "hit": false,
      "t": 24375,
      "d": 375,
      "v": 87
    },
    {
      "midi": 75,
      "hit": false,
      "t": 24562.5,
      "d": 187.5,
      "v": 77
    },
    {
      "midi": 77,
      "hit": false,
      "t": 24750,
      "d": 375,
      "v": 83
    },
    {
      "midi": 62,
      "hit": false,
      "t": 24750,
      "d": 375,
      "v": 90
    },
    {
      "midi": 74,
      "hit": false,
      "t": 25125,
      "d": 187.5,
      "v": 79
    },
    {
      "midi": 58,
      "hit": false,
      "t": 25125,
      "d": 375,
      "v": 83
    },
    {
      "midi": 70,
      "hit": false,
      "t": 25312.5,
      "d": 187.5,
      "v": 76
    },
    {
      "midi": 79,
      "hit": false,
      "t": 25500,
      "d": 375,
      "v": 100
    },
    {
      "midi": 63,
      "hit": false,
      "t": 25500,
      "d": 375,
      "v": 95
    },
    {
      "midi": 75,
      "hit": false,
      "t": 25875,
      "d": 187.5,
      "v": 77
    },
    {
      "midi": 60,
      "hit": false,
      "t": 25875,
      "d": 375,
      "v": 82
    },
    {
      "midi": 70,
      "hit": false,
      "t": 26062.5,
      "d": 187.5,
      "v": 69
    },
    {
      "midi": 77,
      "hit": false,
      "t": 26250,
      "d": 750,
      "v": 91
    },
    {
      "midi": 62,
      "hit": false,
      "t": 26250,
      "d": 187.5,
      "v": 86
    },
    {
      "midi": 60,
      "hit": false,
      "t": 26437.5,
      "d": 187.5,
      "v": 82
    },
    {
      "midi": 58,
      "hit": false,
      "t": 26625,
      "d": 187.5,
      "v": 83
    },
    {
      "midi": 57,
      "hit": false,
      "t": 26812.5,
      "d": 187.5,
      "v": 81
    },
    {
      "midi": 82,
      "hit": false,
      "t": 27000,
      "d": 187.5,
      "v": 83
    },
    {
      "midi": 55,
      "hit": false,
      "t": 27000,
      "d": 375,
      "v": 83
    },
    {
      "midi": 81,
      "hit": false,
      "t": 27187.5,
      "d": 187.5,
      "v": 85
    },
    {
      "midi": 79,
      "hit": false,
      "t": 27375,
      "d": 187.5,
      "v": 88
    },
    {
      "midi": 53,
      "hit": false,
      "t": 27375,
      "d": 375,
      "v": 88
    },
    {
      "midi": 81,
      "hit": false,
      "t": 27562.5,
      "d": 187.5,
      "v": 90
    },
    {
      "midi": 82,
      "hit": false,
      "t": 27750,
      "d": 187.5,
      "v": 92
    },
    {
      "midi": 52,
      "hit": false,
      "t": 27750,
      "d": 375,
      "v": 92
    },
    {
      "midi": 79,
      "hit": false,
      "t": 27937.5,
      "d": 187.5,
      "v": 94
    },
    {
      "midi": 76,
      "hit": false,
      "t": 28125,
      "d": 187.5,
      "v": 96
    },
    {
      "midi": 48,
      "hit": false,
      "t": 28125,
      "d": 375,
      "v": 96
    },
    {
      "midi": 72,
      "hit": false,
      "t": 28312.5,
      "d": 187.5,
      "v": 98
    },
    {
      "midi": 82,
      "hit": false,
      "t": 28500,
      "d": 187.5,
      "v": 100
    },
    {
      "midi": 50,
      "hit": false,
      "t": 28500,
      "d": 375,
      "v": 100
    },
    {
      "midi": 81,
      "hit": false,
      "t": 28687.5,
      "d": 187.5,
      "v": 102
    },
    {
      "midi": 79,
      "hit": false,
      "t": 28875,
      "d": 187.5,
      "v": 104
    },
    {
      "midi": 52,
      "hit": false,
      "t": 28875,
      "d": 375,
      "v": 104
    },
    {
      "midi": 81,
      "hit": false,
      "t": 29062.5,
      "d": 187.5,
      "v": 107
    },
    {
      "midi": 82,
      "hit": false,
      "t": 29250,
      "d": 187.5,
      "v": 109
    },
    {
      "midi": 53,
      "hit": false,
      "t": 29250,
      "d": 375,
      "v": 109
    },
    {
      "midi": 81,
      "hit": false,
      "t": 29437.5,
      "d": 187.5,
      "v": 109
    },
    {
      "midi": 79,
      "hit": false,
      "t": 29625,
      "d": 187.5,
      "v": 96
    },
    {
      "midi": 55,
      "hit": false,
      "t": 29625,
      "d": 187.5,
      "v": 109
    },
    {
      "midi": 77,
      "hit": false,
      "t": 29812.5,
      "d": 187.5,
      "v": 83
    },
    {
      "midi": 57,
      "hit": false,
      "t": 29812.5,
      "d": 187.5,
      "v": 84
    },
    {
      "midi": 79,
      "hit": false,
      "t": 30000,
      "d": 187.5,
      "v": 65
    },
    {
      "midi": 58,
      "hit": false,
      "t": 30000,
      "d": 375,
      "v": 65
    },
    {
      "midi": 77,
      "hit": false,
      "t": 30187.5,
      "d": 187.5,
      "v": 58
    },
    {
      "midi": 76,
      "hit": false,
      "t": 30375,
      "d": 187.5,
      "v": 55
    },
    {
      "midi": 55,
      "hit": false,
      "t": 30375,
      "d": 375,
      "v": 56
    },
    {
      "midi": 77,
      "hit": false,
      "t": 30562.5,
      "d": 187.5,
      "v": 60
    },
    {
      "midi": 79,
      "hit": false,
      "t": 30750,
      "d": 187.5,
      "v": 64
    },
    {
      "midi": 52,
      "hit": false,
      "t": 30750,
      "d": 375,
      "v": 56
    },
    {
      "midi": 76,
      "hit": false,
      "t": 30937.5,
      "d": 187.5,
      "v": 57
    },
    {
      "midi": 73,
      "hit": false,
      "t": 31125,
      "d": 187.5,
      "v": 53
    },
    {
      "midi": 45,
      "hit": false,
      "t": 31125,
      "d": 375,
      "v": 59
    },
    {
      "midi": 69,
      "hit": false,
      "t": 31312.5,
      "d": 187.5,
      "v": 53
    },
    {
      "midi": 79,
      "hit": false,
      "t": 31500,
      "d": 187.5,
      "v": 72
    },
    {
      "midi": 47,
      "hit": false,
      "t": 31500,
      "d": 375,
      "v": 61
    },
    {
      "midi": 77,
      "hit": false,
      "t": 31687.5,
      "d": 187.5,
      "v": 57
    },
    {
      "midi": 76,
      "hit": false,
      "t": 31875,
      "d": 187.5,
      "v": 60
    },
    {
      "midi": 49,
      "hit": false,
      "t": 31875,
      "d": 375,
      "v": 62
    },
    {
      "midi": 77,
      "hit": false,
      "t": 32062.5,
      "d": 187.5,
      "v": 64
    },
    {
      "midi": 79,
      "hit": false,
      "t": 32250,
      "d": 187.5,
      "v": 63
    },
    {
      "midi": 50,
      "hit": false,
      "t": 32250,
      "d": 375,
      "v": 61
    },
    {
      "midi": 77,
      "hit": false,
      "t": 32437.5,
      "d": 187.5,
      "v": 56
    },
    {
      "midi": 76,
      "hit": false,
      "t": 32625,
      "d": 187.5,
      "v": 60
    },
    {
      "midi": 38,
      "hit": false,
      "t": 32625,
      "d": 375,
      "v": 53
    },
    {
      "midi": 74,
      "hit": false,
      "t": 32812.5,
      "d": 187.5,
      "v": 64
    },
    {
      "midi": 81,
      "hit": false,
      "t": 33000,
      "d": 375,
      "v": 113
    },
    {
      "midi": 62,
      "hit": false,
      "t": 33000,
      "d": 375,
      "v": 118
    },
    {
      "midi": 81,
      "hit": false,
      "t": 33375,
      "d": 375,
      "v": 103
    },
    {
      "midi": 65,
      "hit": false,
      "t": 33375,
      "d": 187.5,
      "v": 112
    },
    {
      "midi": 64,
      "hit": false,
      "t": 33562.5,
      "d": 187.5,
      "v": 92
    },
    {
      "midi": 82,
      "hit": false,
      "t": 33750,
      "d": 46.875,
      "v": 88
    },
    {
      "midi": 65,
      "hit": false,
      "t": 33750,
      "d": 375,
      "v": 101
    },
    {
      "midi": 81,
      "hit": false,
      "t": 33796.875,
      "d": 93.75,
      "v": 91
    },
    {
      "midi": 82,
      "hit": false,
      "t": 33890.625,
      "d": 46.875,
      "v": 101
    },
    {
      "midi": 81,
      "hit": false,
      "t": 33937.5,
      "d": 46.875,
      "v": 94
    },
    {
      "midi": 82,
      "hit": false,
      "t": 33984.375,
      "d": 93.75,
      "v": 102
    },
    {
      "midi": 81,
      "hit": false,
      "t": 34078.125,
      "d": 46.875,
      "v": 95
    },
    {
      "midi": 82,
      "hit": false,
      "t": 34125,
      "d": 46.875,
      "v": 98
    },
    {
      "midi": 62,
      "hit": false,
      "t": 34125,
      "d": 187.5,
      "v": 86
    },
    {
      "midi": 81,
      "hit": false,
      "t": 34171.875,
      "d": 93.75,
      "v": 93
    },
    {
      "midi": 82,
      "hit": false,
      "t": 34265.625,
      "d": 46.875,
      "v": 104
    },
    {
      "midi": 81,
      "hit": false,
      "t": 34312.5,
      "d": 46.875,
      "v": 93
    },
    {
      "midi": 57,
      "hit": false,
      "t": 34312.5,
      "d": 187.5,
      "v": 88
    },
    {
      "midi": 82,
      "hit": false,
      "t": 34359.375,
      "d": 93.75,
      "v": 103
    },
    {
      "midi": 81,
      "hit": false,
      "t": 34453.125,
      "d": 46.875,
      "v": 91
    },
    {
      "midi": 82,
      "hit": false,
      "t": 34500,
      "d": 46.875,
      "v": 107
    },
    {
      "midi": 64,
      "hit": false,
      "t": 34500,
      "d": 375,
      "v": 97
    },
    {
      "midi": 81,
      "hit": false,
      "t": 34546.875,
      "d": 93.75,
      "v": 93
    },
    {
      "midi": 82,
      "hit": false,
      "t": 34640.625,
      "d": 46.875,
      "v": 99
    },
    {
      "midi": 81,
      "hit": false,
      "t": 34687.5,
      "d": 46.875,
      "v": 93
    },
    {
      "midi": 82,
      "hit": false,
      "t": 34734.375,
      "d": 93.75,
      "v": 104
    },
    {
      "midi": 81,
      "hit": false,
      "t": 34828.125,
      "d": 46.875,
      "v": 88
    },
    {
      "midi": 82,
      "hit": false,
      "t": 34875,
      "d": 93.75,
      "v": 100
    },
    {
      "midi": 61,
      "hit": false,
      "t": 34875,
      "d": 187.5,
      "v": 100
    },
    {
      "midi": 81,
      "hit": false,
      "t": 34968.75,
      "d": 46.875,
      "v": 96
    },
    {
      "midi": 82,
      "hit": false,
      "t": 35015.625,
      "d": 93.75,
      "v": 102
    },
    {
      "midi": 57,
      "hit": false,
      "t": 35062.5,
      "d": 187.5,
      "v": 102
    },
    {
      "midi": 81,
      "hit": false,
      "t": 35109.375,
      "d": 46.875,
      "v": 89
    },
    {
      "midi": 82,
      "hit": false,
      "t": 35156.25,
      "d": 93.75,
      "v": 103
    },
    {
      "midi": 81,
      "hit": false,
      "t": 35250,
      "d": 187.5,
      "v": 104
    },
    {
      "midi": 62,
      "hit": false,
      "t": 35250,
      "d": 750,
      "v": 104
    },
    {
      "midi": 77,
      "hit": false,
      "t": 35437.5,
      "d": 187.5,
      "v": 105
    },
    {
      "midi": 79,
      "hit": false,
      "t": 35625,
      "d": 187.5,
      "v": 107
    },
    {
      "midi": 81,
      "hit": false,
      "t": 35812.5,
      "d": 187.5,
      "v": 108
    },
    {
      "midi": 82,
      "hit": false,
      "t": 36000,
      "d": 187.5,
      "v": 110
    },
    {
      "midi": 55,
      "hit": false,
      "t": 36000,
      "d": 375,
      "v": 110
    },
    {
      "midi": 81,
      "hit": false,
      "t": 36187.5,
      "d": 187.5,
      "v": 106
    },
    {
      "midi": 79,
      "hit": false,
      "t": 36375,
      "d": 187.5,
      "v": 100
    },
    {
      "midi": 57,
      "hit": false,
      "t": 36375,
      "d": 375,
      "v": 113
    },
    {
      "midi": 77,
      "hit": false,
      "t": 36562.5,
      "d": 187.5,
      "v": 103
    },
    {
      "midi": 76,
      "hit": false,
      "t": 36750,
      "d": 187.5,
      "v": 109
    },
    {
      "midi": 58,
      "hit": false,
      "t": 36750,
      "d": 375,
      "v": 112
    },
    {
      "midi": 74,
      "hit": false,
      "t": 36937.5,
      "d": 187.5,
      "v": 103
    },
    {
      "midi": 73,
      "hit": false,
      "t": 37125,
      "d": 187.5,
      "v": 104
    },
    {
      "midi": 55,
      "hit": false,
      "t": 37125,
      "d": 375,
      "v": 101
    },
    {
      "midi": 74,
      "hit": false,
      "t": 37312.5,
      "d": 187.5,
      "v": 112
    },
    {
      "midi": 79,
      "hit": false,
      "t": 37500,
      "d": 187.5,
      "v": 110
    },
    {
      "midi": 57,
      "hit": false,
      "t": 37500,
      "d": 375,
      "v": 113
    },
    {
      "midi": 77,
      "hit": false,
      "t": 37687.5,
      "d": 187.5,
      "v": 104
    },
    {
      "midi": 76,
      "hit": false,
      "t": 37875,
      "d": 187.5,
      "v": 97
    },
    {
      "midi": 45,
      "hit": false,
      "t": 37875,
      "d": 375,
      "v": 97
    },
    {
      "midi": 77,
      "hit": false,
      "t": 38062.5,
      "d": 187.5,
      "v": 91
    },
    {
      "midi": 74,
      "hit": false,
      "t": 38250,
      "d": 750,
      "v": 85
    },
    {
      "midi": 38,
      "hit": false,
      "t": 38250,
      "d": 187.5,
      "v": 110
    },
    {
      "midi": 50,
      "hit": false,
      "t": 38437.5,
      "d": 187.5,
      "v": 104
    },
    {
      "midi": 51,
      "hit": false,
      "t": 38625,
      "d": 187.5,
      "v": 97
    },
    {
      "midi": 53,
      "hit": false,
      "t": 38812.5,
      "d": 187.5,
      "v": 91
    },
    {
      "midi": 74,
      "hit": false,
      "t": 39000,
      "d": 375,
      "v": 84
    },
    {
      "midi": 55,
      "hit": false,
      "t": 39000,
      "d": 375,
      "v": 85
    },
    {
      "midi": 77,
      "hit": false,
      "t": 39375,
      "d": 187.5,
      "v": 86
    },
    {
      "midi": 55,
      "hit": false,
      "t": 39375,
      "d": 375,
      "v": 84
    },
    {
      "midi": 75,
      "hit": false,
      "t": 39562.5,
      "d": 187.5,
      "v": 80
    },
    {
      "midi": 77,
      "hit": false,
      "t": 39750,
      "d": 375,
      "v": 88
    },
    {
      "midi": 56,
      "hit": false,
      "t": 39750,
      "d": 46.875,
      "v": 75
    },
    {
      "midi": 55,
      "hit": false,
      "t": 39796.875,
      "d": 93.75,
      "v": 83
    },
    {
      "midi": 56,
      "hit": false,
      "t": 39890.625,
      "d": 46.875,
      "v": 86
    },
    {
      "midi": 55,
      "hit": false,
      "t": 39937.5,
      "d": 46.875,
      "v": 81
    },
    {
      "midi": 56,
      "hit": false,
      "t": 39984.375,
      "d": 93.75,
      "v": 82
    },
    {
      "midi": 55,
      "hit": false,
      "t": 40078.125,
      "d": 46.875,
      "v": 79
    },
    {
      "midi": 74,
      "hit": false,
      "t": 40125,
      "d": 187.5,
      "v": 73
    },
    {
      "midi": 56,
      "hit": false,
      "t": 40125,
      "d": 46.875,
      "v": 85
    },
    {
      "midi": 55,
      "hit": false,
      "t": 40171.875,
      "d": 93.75,
      "v": 82
    },
    {
      "midi": 56,
      "hit": false,
      "t": 40265.625,
      "d": 46.875,
      "v": 91
    },
    {
      "midi": 71,
      "hit": false,
      "t": 40312.5,
      "d": 187.5,
      "v": 75
    },
    {
      "midi": 55,
      "hit": false,
      "t": 40312.5,
      "d": 46.875,
      "v": 81
    },
    {
      "midi": 56,
      "hit": false,
      "t": 40359.375,
      "d": 93.75,
      "v": 80
    },
    {
      "midi": 55,
      "hit": false,
      "t": 40453.125,
      "d": 46.875,
      "v": 83
    },
    {
      "midi": 80,
      "hit": false,
      "t": 40500,
      "d": 375,
      "v": 104
    },
    {
      "midi": 56,
      "hit": false,
      "t": 40500,
      "d": 46.875,
      "v": 84
    },
    {
      "midi": 55,
      "hit": false,
      "t": 40546.875,
      "d": 93.75,
      "v": 81
    },
    {
      "midi": 56,
      "hit": false,
      "t": 40640.625,
      "d": 46.875,
      "v": 81
    },
    {
      "midi": 55,
      "hit": false,
      "t": 40687.5,
      "d": 46.875,
      "v": 81
    },
    {
      "midi": 56,
      "hit": false,
      "t": 40734.375,
      "d": 93.75,
      "v": 85
    },
    {
      "midi": 55,
      "hit": false,
      "t": 40828.125,
      "d": 46.875,
      "v": 82
    },
    {
      "midi": 77,
      "hit": false,
      "t": 40875,
      "d": 187.5,
      "v": 76
    },
    {
      "midi": 56,
      "hit": false,
      "t": 40875,
      "d": 46.875,
      "v": 85
    },
    {
      "midi": 55,
      "hit": false,
      "t": 40921.875,
      "d": 93.75,
      "v": 78
    },
    {
      "midi": 56,
      "hit": false,
      "t": 41015.625,
      "d": 46.875,
      "v": 88
    },
    {
      "midi": 74,
      "hit": false,
      "t": 41062.5,
      "d": 187.5,
      "v": 71
    },
    {
      "midi": 55,
      "hit": false,
      "t": 41062.5,
      "d": 46.875,
      "v": 79
    },
    {
      "midi": 56,
      "hit": false,
      "t": 41109.375,
      "d": 93.75,
      "v": 86
    },
    {
      "midi": 55,
      "hit": false,
      "t": 41203.125,
      "d": 46.875,
      "v": 81
    },
    {
      "midi": 75,
      "hit": false,
      "t": 41250,
      "d": 375,
      "v": 87
    },
    {
      "midi": 56,
      "hit": false,
      "t": 41250,
      "d": 46.875,
      "v": 85
    },
    {
      "midi": 55,
      "hit": false,
      "t": 41296.875,
      "d": 93.75,
      "v": 81
    },
    {
      "midi": 56,
      "hit": false,
      "t": 41390.625,
      "d": 46.875,
      "v": 83
    },
    {
      "midi": 55,
      "hit": false,
      "t": 41437.5,
      "d": 46.875,
      "v": 82
    },
    {
      "midi": 56,
      "hit": false,
      "t": 41484.375,
      "d": 93.75,
      "v": 80
    },
    {
      "midi": 55,
      "hit": false,
      "t": 41578.125,
      "d": 46.875,
      "v": 83
    },
    {
      "midi": 72,
      "hit": false,
      "t": 41625,
      "d": 187.5,
      "v": 77
    },
    {
      "midi": 56,
      "hit": false,
      "t": 41625,
      "d": 93.75,
      "v": 87
    },
    {
      "midi": 55,
      "hit": false,
      "t": 41718.75,
      "d": 46.875,
      "v": 79
    },
    {
      "midi": 56,
      "hit": false,
      "t": 41765.625,
      "d": 93.75,
      "v": 83
    },
    {
      "midi": 67,
      "hit": false,
      "t": 41812.5,
      "d": 187.5,
      "v": 67
    },
    {
      "midi": 55,
      "hit": false,
      "t": 41859.375,
      "d": 140.625,
      "v": 82
    },
    {
      "midi": 79,
      "hit": false,
      "t": 42000,
      "d": 375,
      "v": 105
    },
    {
      "midi": 55,
      "hit": false,
      "t": 42000,
      "d": 375,
      "v": 81
    },
    {
      "midi": 75,
      "hit": false,
      "t": 42375,
      "d": 187.5,
      "v": 74
    },
    {
      "midi": 55,
      "hit": false,
      "t": 42375,
      "d": 375,
      "v": 82
    },
    {
      "midi": 72,
      "hit": false,
      "t": 42562.5,
      "d": 187.5,
      "v": 73
    },
    {
      "midi": 74,
      "hit": false,
      "t": 42750,
      "d": 375,
      "v": 90
    },
    {
      "midi": 55,
      "hit": false,
      "t": 42750,
      "d": 750,
      "v": 80
    },
    {
      "midi": 70,
      "hit": false,
      "t": 43125,
      "d": 187.5,
      "v": 77
    },
    {
      "midi": 67,
      "hit": false,
      "t": 43312.5,
      "d": 187.5,
      "v": 74
    },
    {
      "midi": 79,
      "hit": false,
      "t": 43500,
      "d": 375,
      "v": 105
    },
    {
      "midi": 55,
      "hit": false,
      "t": 43500,
      "d": 375,
      "v": 83
    },
    {
      "midi": 74,
      "hit": false,
      "t": 43875,
      "d": 187.5,
      "v": 74
    },
    {
      "midi": 55,
      "hit": false,
      "t": 43875,
      "d": 375,
      "v": 85
    },
    {
      "midi": 70,
      "hit": false,
      "t": 44062.5,
      "d": 187.5,
      "v": 72
    },
    {
      "midi": 72,
      "hit": false,
      "t": 44250,
      "d": 375,
      "v": 82
    },
    {
      "midi": 55,
      "hit": false,
      "t": 44250,
      "d": 750,
      "v": 81
    },
    {
      "midi": 69,
      "hit": false,
      "t": 44625,
      "d": 187.5,
      "v": 74
    },
    {
      "midi": 66,
      "hit": false,
      "t": 44812.5,
      "d": 187.5,
      "v": 76
    },
    {
      "midi": 75,
      "hit": false,
      "t": 45000,
      "d": 375,
      "v": 83
    },
    {
      "midi": 55,
      "hit": false,
      "t": 45000,
      "d": 187.5,
      "v": 85
    },
    {
      "midi": 55,
      "hit": false,
      "t": 45187.5,
      "d": 187.5,
      "v": 82
    },
    {
      "midi": 72,
      "hit": false,
      "t": 45375,
      "d": 187.5,
      "v": 79
    },
    {
      "midi": 55,
      "hit": false,
      "t": 45375,
      "d": 187.5,
      "v": 80
    },
    {
      "midi": 69,
      "hit": false,
      "t": 45562.5,
      "d": 187.5,
      "v": 76
    },
    {
      "midi": 55,
      "hit": false,
      "t": 45562.5,
      "d": 187.5,
      "v": 78
    },
    {
      "midi": 74,
      "hit": false,
      "t": 45750,
      "d": 375,
      "v": 74
    },
    {
      "midi": 55,
      "hit": false,
      "t": 45750,
      "d": 187.5,
      "v": 75
    },
    {
      "midi": 55,
      "hit": false,
      "t": 45937.5,
      "d": 187.5,
      "v": 73
    },
    {
      "midi": 70,
      "hit": false,
      "t": 46125,
      "d": 187.5,
      "v": 69
    },
    {
      "midi": 55,
      "hit": false,
      "t": 46125,
      "d": 187.5,
      "v": 71
    },
    {
      "midi": 67,
      "hit": false,
      "t": 46312.5,
      "d": 187.5,
      "v": 67
    },
    {
      "midi": 55,
      "hit": false,
      "t": 46312.5,
      "d": 187.5,
      "v": 68
    },
    {
      "midi": 72,
      "hit": false,
      "t": 46500,
      "d": 187.5,
      "v": 65
    },
    {
      "midi": 55,
      "hit": false,
      "t": 46500,
      "d": 187.5,
      "v": 66
    },
    {
      "midi": 69,
      "hit": false,
      "t": 46687.5,
      "d": 187.5,
      "v": 63
    },
    {
      "midi": 54,
      "hit": false,
      "t": 46687.5,
      "d": 187.5,
      "v": 64
    },
    {
      "midi": 70,
      "hit": false,
      "t": 46875,
      "d": 187.5,
      "v": 60
    },
    {
      "midi": 55,
      "hit": false,
      "t": 46875,
      "d": 375,
      "v": 62
    },
    {
      "midi": 67,
      "hit": false,
      "t": 47062.5,
      "d": 187.5,
      "v": 58
    },
    {
      "midi": 69,
      "hit": false,
      "t": 47250,
      "d": 187.5,
      "v": 61
    },
    {
      "midi": 50,
      "hit": false,
      "t": 47250,
      "d": 375,
      "v": 57
    },
    {
      "midi": 62,
      "hit": false,
      "t": 47437.5,
      "d": 187.5,
      "v": 47
    },
    {
      "midi": 64,
      "hit": false,
      "t": 47625,
      "d": 187.5,
      "v": 59
    },
    {
      "midi": 48,
      "hit": false,
      "t": 47625,
      "d": 375,
      "v": 60
    },
    {
      "midi": 66,
      "hit": false,
      "t": 47812.5,
      "d": 187.5,
      "v": 69
    },
    {
      "midi": 67,
      "hit": false,
      "t": 48000,
      "d": 187.5,
      "v": 62
    },
    {
      "midi": 46,
      "hit": false,
      "t": 48000,
      "d": 375,
      "v": 54
    },
    {
      "midi": 69,
      "hit": false,
      "t": 48187.5,
      "d": 187.5,
      "v": 61
    },
    {
      "midi": 70,
      "hit": false,
      "t": 48375,
      "d": 187.5,
      "v": 65
    },
    {
      "midi": 50,
      "hit": false,
      "t": 48375,
      "d": 375,
      "v": 64
    },
    {
      "midi": 67,
      "hit": false,
      "t": 48562.5,
      "d": 187.5,
      "v": 52
    },
    {
      "midi": 75,
      "hit": false,
      "t": 48750,
      "d": 187.5,
      "v": 72
    },
    {
      "midi": 42,
      "hit": false,
      "t": 48750,
      "d": 375,
      "v": 59
    },
    {
      "midi": 72,
      "hit": false,
      "t": 48937.5,
      "d": 187.5,
      "v": 62
    },
    {
      "midi": 74,
      "hit": false,
      "t": 49125,
      "d": 187.5,
      "v": 64
    },
    {
      "midi": 50,
      "hit": false,
      "t": 49125,
      "d": 375,
      "v": 64
    },
    {
      "midi": 70,
      "hit": false,
      "t": 49312.5,
      "d": 187.5,
      "v": 55
    },
    {
      "midi": 72,
      "hit": false,
      "t": 49500,
      "d": 187.5,
      "v": 60
    },
    {
      "midi": 43,
      "hit": false,
      "t": 49500,
      "d": 375,
      "v": 55
    },
    {
      "midi": 69,
      "hit": false,
      "t": 49687.5,
      "d": 187.5,
      "v": 57
    },
    {
      "midi": 70,
      "hit": false,
      "t": 49875,
      "d": 187.5,
      "v": 64
    },
    {
      "midi": 50,
      "hit": false,
      "t": 49875,
      "d": 375,
      "v": 66
    },
    {
      "midi": 67,
      "hit": false,
      "t": 50062.5,
      "d": 187.5,
      "v": 56
    },
    {
      "midi": 69,
      "hit": false,
      "t": 50250,
      "d": 375,
      "v": 64
    },
    {
      "midi": 38,
      "hit": false,
      "t": 50250,
      "d": 375,
      "v": 51
    },
    {
      "midi": 62,
      "hit": false,
      "t": 50625,
      "d": 375,
      "v": 48
    },
    {
      "midi": 50,
      "hit": false,
      "t": 50625,
      "d": 187.5,
      "v": 77
    },
    {
      "midi": 48,
      "hit": false,
      "t": 50812.5,
      "d": 187.5,
      "v": 63
    },
    {
      "midi": 67,
      "hit": false,
      "t": 51000,
      "d": 375,
      "v": 60
    },
    {
      "midi": 46,
      "hit": false,
      "t": 51000,
      "d": 375,
      "v": 60
    },
    {
      "midi": 70,
      "hit": false,
      "t": 51375,
      "d": 187.5,
      "v": 62
    },
    {
      "midi": 45,
      "hit": false,
      "t": 51375,
      "d": 375,
      "v": 62
    },
    {
      "midi": 69,
      "hit": false,
      "t": 51562.5,
      "d": 187.5,
      "v": 63
    },
    {
      "midi": 70,
      "hit": false,
      "t": 51750,
      "d": 187.5,
      "v": 64
    },
    {
      "midi": 43,
      "hit": false,
      "t": 51750,
      "d": 750,
      "v": 64
    },
    {
      "midi": 66,
      "hit": false,
      "t": 51937.5,
      "d": 187.5,
      "v": 65
    },
    {
      "midi": 67,
      "hit": false,
      "t": 52125,
      "d": 187.5,
      "v": 66
    },
    {
      "midi": 62,
      "hit": false,
      "t": 52312.5,
      "d": 187.5,
      "v": 67
    },
    {
      "midi": 71,
      "hit": false,
      "t": 52500,
      "d": 187.5,
      "v": 68
    },
    {
      "midi": 41,
      "hit": false,
      "t": 52500,
      "d": 750,
      "v": 68
    },
    {
      "midi": 65,
      "hit": false,
      "t": 52687.5,
      "d": 187.5,
      "v": 69
    },
    {
      "midi": 67,
      "hit": false,
      "t": 52875,
      "d": 187.5,
      "v": 70
    },
    {
      "midi": 62,
      "hit": false,
      "t": 53062.5,
      "d": 187.5,
      "v": 70
    },
    {
      "midi": 72,
      "hit": false,
      "t": 53250,
      "d": 187.5,
      "v": 71
    },
    {
      "midi": 39,
      "hit": false,
      "t": 53250,
      "d": 375,
      "v": 71
    },
    {
      "midi": 62,
      "hit": false,
      "t": 53437.5,
      "d": 187.5,
      "v": 72
    },
    {
      "midi": 63,
      "hit": false,
      "t": 53625,
      "d": 187.5,
      "v": 73
    },
    {
      "midi": 55,
      "hit": false,
      "t": 53625,
      "d": 187.5,
      "v": 73
    },
    {
      "midi": 67,
      "hit": false,
      "t": 53812.5,
      "d": 187.5,
      "v": 74
    },
    {
      "midi": 53,
      "hit": false,
      "t": 53812.5,
      "d": 187.5,
      "v": 74
    },
    {
      "midi": 72,
      "hit": false,
      "t": 54000,
      "d": 187.5,
      "v": 75
    },
    {
      "midi": 51,
      "hit": false,
      "t": 54000,
      "d": 375,
      "v": 75
    },
    {
      "midi": 67,
      "hit": false,
      "t": 54187.5,
      "d": 187.5,
      "v": 76
    },
    {
      "midi": 74,
      "hit": false,
      "t": 54375,
      "d": 187.5,
      "v": 77
    },
    {
      "midi": 50,
      "hit": false,
      "t": 54375,
      "d": 375,
      "v": 77
    },
    {
      "midi": 67,
      "hit": false,
      "t": 54562.5,
      "d": 187.5,
      "v": 78
    },
    {
      "midi": 75,
      "hit": false,
      "t": 54750,
      "d": 187.5,
      "v": 79
    },
    {
      "midi": 48,
      "hit": false,
      "t": 54750,
      "d": 750,
      "v": 79
    },
    {
      "midi": 71,
      "hit": false,
      "t": 54937.5,
      "d": 187.5,
      "v": 80
    },
    {
      "midi": 72,
      "hit": false,
      "t": 55125,
      "d": 187.5,
      "v": 80
    },
    {
      "midi": 67,
      "hit": false,
      "t": 55312.5,
      "d": 187.5,
      "v": 81
    },
    {
      "midi": 76,
      "hit": false,
      "t": 55500,
      "d": 187.5,
      "v": 82
    },
    {
      "midi": 46,
      "hit": false,
      "t": 55500,
      "d": 750,
      "v": 82
    },
    {
      "midi": 70,
      "hit": false,
      "t": 55687.5,
      "d": 187.5,
      "v": 83
    },
    {
      "midi": 72,
      "hit": false,
      "t": 55875,
      "d": 187.5,
      "v": 84
    },
    {
      "midi": 67,
      "hit": false,
      "t": 56062.5,
      "d": 187.5,
      "v": 85
    },
    {
      "midi": 77,
      "hit": false,
      "t": 56250,
      "d": 187.5,
      "v": 86
    },
    {
      "midi": 45,
      "hit": false,
      "t": 56250,
      "d": 375,
      "v": 86
    },
    {
      "midi": 67,
      "hit": false,
      "t": 56437.5,
      "d": 187.5,
      "v": 69
    },
    {
      "midi": 69,
      "hit": false,
      "t": 56625,
      "d": 187.5,
      "v": 90
    },
    {
      "midi": 60,
      "hit": false,
      "t": 56625,
      "d": 187.5,
      "v": 109
    },
    {
      "midi": 72,
      "hit": false,
      "t": 56812.5,
      "d": 187.5,
      "v": 86
    },
    {
      "midi": 58,
      "hit": false,
      "t": 56812.5,
      "d": 187.5,
      "v": 86
    },
    {
      "midi": 78,
      "hit": false,
      "t": 57000,
      "d": 187.5,
      "v": 100
    },
    {
      "midi": 57,
      "hit": false,
      "t": 57000,
      "d": 375,
      "v": 88
    },
    {
      "midi": 72,
      "hit": false,
      "t": 57187.5,
      "d": 187.5,
      "v": 79
    },
    {
      "midi": 79,
      "hit": false,
      "t": 57375,
      "d": 187.5,
      "v": 102
    },
    {
      "midi": 55,
      "hit": false,
      "t": 57375,
      "d": 375,
      "v": 82
    },
    {
      "midi": 72,
      "hit": false,
      "t": 57562.5,
      "d": 187.5,
      "v": 71
    },
    {
      "midi": 81,
      "hit": false,
      "t": 57750,
      "d": 187.5,
      "v": 102
    },
    {
      "midi": 54,
      "hit": false,
      "t": 57750,
      "d": 750,
      "v": 83
    },
    {
      "midi": 76,
      "hit": false,
      "t": 57937.5,
      "d": 187.5,
      "v": 77
    },
    {
      "midi": 78,
      "hit": false,
      "t": 58125,
      "d": 187.5,
      "v": 96
    },
    {
      "midi": 74,
      "hit": false,
      "t": 58312.5,
      "d": 187.5,
      "v": 74
    },
    {
      "midi": 82,
      "hit": false,
      "t": 58500,
      "d": 187.5,
      "v": 98
    },
    {
      "midi": 52,
      "hit": false,
      "t": 58500,
      "d": 750,
      "v": 82
    },
    {
      "midi": 78,
      "hit": false,
      "t": 58687.5,
      "d": 187.5,
      "v": 83
    },
    {
      "midi": 79,
      "hit": false,
      "t": 58875,
      "d": 187.5,
      "v": 84
    },
    {
      "midi": 74,
      "hit": false,
      "t": 59062.5,
      "d": 187.5,
      "v": 75
    },
    {
      "midi": 84,
      "hit": false,
      "t": 59250,
      "d": 187.5,
      "v": 107
    },
    {
      "midi": 50,
      "hit": false,
      "t": 59250,
      "d": 375,
      "v": 76
    },
    {
      "midi": 81,
      "hit": false,
      "t": 59437.5,
      "d": 187.5,
      "v": 84
    },
    {
      "midi": 74,
      "hit": false,
      "t": 59625,
      "d": 187.5,
      "v": 70
    },
    {
      "midi": 54,
      "hit": false,
      "t": 59625,
      "d": 375,
      "v": 85
    },
    {
      "midi": 84,
      "hit": false,
      "t": 59812.5,
      "d": 187.5,
      "v": 101
    },
    {
      "midi": 82,
      "hit": false,
      "t": 60000,
      "d": 187.5,
      "v": 78
    },
    {
      "midi": 55,
      "hit": false,
      "t": 60000,
      "d": 375,
      "v": 86
    },
    {
      "midi": 81,
      "hit": false,
      "t": 60187.5,
      "d": 187.5,
      "v": 84
    },
    {
      "midi": 79,
      "hit": false,
      "t": 60375,
      "d": 187.5,
      "v": 80
    },
    {
      "midi": 57,
      "hit": false,
      "t": 60375,
      "d": 375,
      "v": 93
    },
    {
      "midi": 78,
      "hit": false,
      "t": 60562.5,
      "d": 187.5,
      "v": 81
    },
    {
      "midi": 79,
      "hit": false,
      "t": 60750,
      "d": 187.5,
      "v": 84
    },
    {
      "midi": 58,
      "hit": false,
      "t": 60750,
      "d": 375,
      "v": 88
    },
    {
      "midi": 74,
      "hit": false,
      "t": 60937.5,
      "d": 187.5,
      "v": 72
    },
    {
      "midi": 75,
      "hit": false,
      "t": 61125,
      "d": 187.5,
      "v": 88
    },
    {
      "midi": 60,
      "hit": false,
      "t": 61125,
      "d": 375,
      "v": 86
    },
    {
      "midi": 72,
      "hit": false,
      "t": 61312.5,
      "d": 187.5,
      "v": 72
    },
    {
      "midi": 70,
      "hit": false,
      "t": 61500,
      "d": 46.875,
      "v": 76
    },
    {
      "midi": 62,
      "hit": false,
      "t": 61500,
      "d": 375,
      "v": 95
    },
    {
      "midi": 72,
      "hit": false,
      "t": 61546.875,
      "d": 46.875,
      "v": 92
    },
    {
      "midi": 70,
      "hit": false,
      "t": 61593.75,
      "d": 281.25,
      "v": 81
    },
    {
      "midi": 69,
      "hit": false,
      "t": 61875,
      "d": 187.5,
      "v": 81
    },
    {
      "midi": 50,
      "hit": false,
      "t": 61875,
      "d": 375,
      "v": 75
    },
    {
      "midi": 67,
      "hit": false,
      "t": 62062.5,
      "d": 187.5,
      "v": 76
    },
    {
      "midi": 67,
      "hit": false,
      "t": 62250,
      "d": 750,
      "v": 89
    },
    {
      "midi": 43,
      "hit": false,
      "t": 62250,
      "d": 750,
      "v": 78
    },
    {
      "midi": 74,
      "hit": false,
      "t": 63000,
      "d": 375,
      "v": 96
    },
    {
      "midi": 58,
      "hit": false,
      "t": 63000,
      "d": 375,
      "v": 91
    },
    {
      "midi": 77,
      "hit": false,
      "t": 63375,
      "d": 187.5,
      "v": 91
    },
    {
      "midi": 60,
      "hit": false,
      "t": 63375,
      "d": 375,
      "v": 94
    },
    {
      "midi": 75,
      "hit": false,
      "t": 63562.5,
      "d": 187.5,
      "v": 74
    },
    {
      "midi": 77,
      "hit": false,
      "t": 63750,
      "d": 375,
      "v": 84
    },
    {
      "midi": 62,
      "hit": false,
      "t": 63750,
      "d": 375,
      "v": 93
    },
    {
      "midi": 74,
      "hit": false,
      "t": 64125,
      "d": 187.5,
      "v": 74
    },
    {
      "midi": 58,
      "hit": false,
      "t": 64125,
      "d": 375,
      "v": 79
    },
    {
      "midi": 70,
      "hit": false,
      "t": 64312.5,
      "d": 187.5,
      "v": 68
    },
    {
      "midi": 79,
      "hit": false,
      "t": 64500,
      "d": 375,
      "v": 101
    },
    {
      "midi": 63,
      "hit": false,
      "t": 64500,
      "d": 375,
      "v": 94
    },
    {
      "midi": 75,
      "hit": false,
      "t": 64875,
      "d": 187.5,
      "v": 78
    },
    {
      "midi": 60,
      "hit": false,
      "t": 64875,
      "d": 375,
      "v": 77
    },
    {
      "midi": 70,
      "hit": false,
      "t": 65062.5,
      "d": 187.5,
      "v": 70
    },
    {
      "midi": 77,
      "hit": false,
      "t": 65250,
      "d": 750,
      "v": 94
    },
    {
      "midi": 62,
      "hit": false,
      "t": 65250,
      "d": 187.5,
      "v": 87
    },
    {
      "midi": 60,
      "hit": false,
      "t": 65437.5,
      "d": 187.5,
      "v": 77
    },
    {
      "midi": 58,
      "hit": false,
      "t": 65625,
      "d": 187.5,
      "v": 79
    },
    {
      "midi": 57,
      "hit": false,
      "t": 65812.5,
      "d": 187.5,
      "v": 82
    },
    {
      "midi": 82,
      "hit": false,
      "t": 66000,
      "d": 187.5,
      "v": 83
    },
    {
      "midi": 55,
      "hit": false,
      "t": 66000,
      "d": 375,
      "v": 83
    },
    {
      "midi": 81,
      "hit": false,
      "t": 66187.5,
      "d": 187.5,
      "v": 85
    },
    {
      "midi": 79,
      "hit": false,
      "t": 66375,
      "d": 187.5,
      "v": 88
    },
    {
      "midi": 53,
      "hit": false,
      "t": 66375,
      "d": 375,
      "v": 88
    },
    {
      "midi": 81,
      "hit": false,
      "t": 66562.5,
      "d": 187.5,
      "v": 90
    },
    {
      "midi": 82,
      "hit": false,
      "t": 66750,
      "d": 187.5,
      "v": 92
    },
    {
      "midi": 52,
      "hit": false,
      "t": 66750,
      "d": 375,
      "v": 92
    },
    {
      "midi": 79,
      "hit": false,
      "t": 66937.5,
      "d": 187.5,
      "v": 94
    },
    {
      "midi": 76,
      "hit": false,
      "t": 67125,
      "d": 187.5,
      "v": 96
    },
    {
      "midi": 48,
      "hit": false,
      "t": 67125,
      "d": 375,
      "v": 96
    },
    {
      "midi": 72,
      "hit": false,
      "t": 67312.5,
      "d": 187.5,
      "v": 98
    },
    {
      "midi": 82,
      "hit": false,
      "t": 67500,
      "d": 187.5,
      "v": 100
    },
    {
      "midi": 50,
      "hit": false,
      "t": 67500,
      "d": 375,
      "v": 100
    },
    {
      "midi": 81,
      "hit": false,
      "t": 67687.5,
      "d": 187.5,
      "v": 102
    },
    {
      "midi": 79,
      "hit": false,
      "t": 67875,
      "d": 187.5,
      "v": 104
    },
    {
      "midi": 52,
      "hit": false,
      "t": 67875,
      "d": 375,
      "v": 104
    },
    {
      "midi": 81,
      "hit": false,
      "t": 68062.5,
      "d": 187.5,
      "v": 107
    },
    {
      "midi": 82,
      "hit": false,
      "t": 68250,
      "d": 187.5,
      "v": 109
    },
    {
      "midi": 53,
      "hit": false,
      "t": 68250,
      "d": 375,
      "v": 109
    },
    {
      "midi": 81,
      "hit": false,
      "t": 68437.5,
      "d": 187.5,
      "v": 109
    },
    {
      "midi": 79,
      "hit": false,
      "t": 68625,
      "d": 187.5,
      "v": 96
    },
    {
      "midi": 55,
      "hit": false,
      "t": 68625,
      "d": 187.5,
      "v": 109
    },
    {
      "midi": 77,
      "hit": false,
      "t": 68812.5,
      "d": 187.5,
      "v": 83
    },
    {
      "midi": 57,
      "hit": false,
      "t": 68812.5,
      "d": 187.5,
      "v": 84
    },
    {
      "midi": 79,
      "hit": false,
      "t": 69000,
      "d": 187.5,
      "v": 66
    },
    {
      "midi": 58,
      "hit": false,
      "t": 69000,
      "d": 375,
      "v": 66
    },
    {
      "midi": 77,
      "hit": false,
      "t": 69187.5,
      "d": 187.5,
      "v": 54
    },
    {
      "midi": 76,
      "hit": false,
      "t": 69375,
      "d": 187.5,
      "v": 61
    },
    {
      "midi": 55,
      "hit": false,
      "t": 69375,
      "d": 375,
      "v": 55
    },
    {
      "midi": 77,
      "hit": false,
      "t": 69562.5,
      "d": 187.5,
      "v": 64
    },
    {
      "midi": 79,
      "hit": false,
      "t": 69750,
      "d": 187.5,
      "v": 65
    },
    {
      "midi": 52,
      "hit": false,
      "t": 69750,
      "d": 375,
      "v": 63
    },
    {
      "midi": 76,
      "hit": false,
      "t": 69937.5,
      "d": 187.5,
      "v": 56
    },
    {
      "midi": 73,
      "hit": false,
      "t": 70125,
      "d": 187.5,
      "v": 56
    },
    {
      "midi": 45,
      "hit": false,
      "t": 70125,
      "d": 375,
      "v": 51
    },
    {
      "midi": 69,
      "hit": false,
      "t": 70312.5,
      "d": 187.5,
      "v": 53
    },
    {
      "midi": 79,
      "hit": false,
      "t": 70500,
      "d": 187.5,
      "v": 72
    },
    {
      "midi": 47,
      "hit": false,
      "t": 70500,
      "d": 375,
      "v": 61
    },
    {
      "midi": 77,
      "hit": false,
      "t": 70687.5,
      "d": 187.5,
      "v": 56
    },
    {
      "midi": 76,
      "hit": false,
      "t": 70875,
      "d": 187.5,
      "v": 55
    },
    {
      "midi": 49,
      "hit": false,
      "t": 70875,
      "d": 375,
      "v": 59
    },
    {
      "midi": 77,
      "hit": false,
      "t": 71062.5,
      "d": 187.5,
      "v": 65
    },
    {
      "midi": 79,
      "hit": false,
      "t": 71250,
      "d": 187.5,
      "v": 63
    },
    {
      "midi": 50,
      "hit": false,
      "t": 71250,
      "d": 375,
      "v": 64
    },
    {
      "midi": 77,
      "hit": false,
      "t": 71437.5,
      "d": 187.5,
      "v": 53
    },
    {
      "midi": 76,
      "hit": false,
      "t": 71625,
      "d": 187.5,
      "v": 58
    },
    {
      "midi": 38,
      "hit": false,
      "t": 71625,
      "d": 375,
      "v": 52
    },
    {
      "midi": 74,
      "hit": false,
      "t": 71812.5,
      "d": 187.5,
      "v": 53
    },
    {
      "midi": 81,
      "hit": false,
      "t": 72000,
      "d": 375,
      "v": 117
    },
    {
      "midi": 62,
      "hit": false,
      "t": 72000,
      "d": 375,
      "v": 123
    },
    {
      "midi": 81,
      "hit": false,
      "t": 72375,
      "d": 375,
      "v": 103
    },
    {
      "midi": 65,
      "hit": false,
      "t": 72375,
      "d": 187.5,
      "v": 113
    },
    {
      "midi": 64,
      "hit": false,
      "t": 72562.5,
      "d": 187.5,
      "v": 91
    },
    {
      "midi": 82,
      "hit": false,
      "t": 72750,
      "d": 46.875,
      "v": 89
    },
    {
      "midi": 65,
      "hit": false,
      "t": 72750,
      "d": 375,
      "v": 100
    },
    {
      "midi": 81,
      "hit": false,
      "t": 72796.875,
      "d": 93.75,
      "v": 91
    },
    {
      "midi": 82,
      "hit": false,
      "t": 72890.625,
      "d": 46.875,
      "v": 99
    },
    {
      "midi": 81,
      "hit": false,
      "t": 72937.5,
      "d": 46.875,
      "v": 90
    },
    {
      "midi": 82,
      "hit": false,
      "t": 72984.375,
      "d": 93.75,
      "v": 101
    },
    {
      "midi": 81,
      "hit": false,
      "t": 73078.125,
      "d": 46.875,
      "v": 93
    },
    {
      "midi": 82,
      "hit": false,
      "t": 73125,
      "d": 46.875,
      "v": 99
    },
    {
      "midi": 62,
      "hit": false,
      "t": 73125,
      "d": 187.5,
      "v": 88
    },
    {
      "midi": 81,
      "hit": false,
      "t": 73171.875,
      "d": 93.75,
      "v": 93
    },
    {
      "midi": 82,
      "hit": false,
      "t": 73265.625,
      "d": 46.875,
      "v": 101
    },
    {
      "midi": 81,
      "hit": false,
      "t": 73312.5,
      "d": 46.875,
      "v": 91
    },
    {
      "midi": 57,
      "hit": false,
      "t": 73312.5,
      "d": 187.5,
      "v": 92
    },
    {
      "midi": 82,
      "hit": false,
      "t": 73359.375,
      "d": 93.75,
      "v": 105
    },
    {
      "midi": 81,
      "hit": false,
      "t": 73453.125,
      "d": 46.875,
      "v": 92
    },
    {
      "midi": 82,
      "hit": false,
      "t": 73500,
      "d": 46.875,
      "v": 103
    },
    {
      "midi": 64,
      "hit": false,
      "t": 73500,
      "d": 375,
      "v": 97
    },
    {
      "midi": 81,
      "hit": false,
      "t": 73546.875,
      "d": 93.75,
      "v": 89
    },
    {
      "midi": 82,
      "hit": false,
      "t": 73640.625,
      "d": 46.875,
      "v": 99
    },
    {
      "midi": 81,
      "hit": false,
      "t": 73687.5,
      "d": 46.875,
      "v": 95
    },
    {
      "midi": 82,
      "hit": false,
      "t": 73734.375,
      "d": 93.75,
      "v": 104
    },
    {
      "midi": 81,
      "hit": false,
      "t": 73828.125,
      "d": 46.875,
      "v": 89
    },
    {
      "midi": 82,
      "hit": false,
      "t": 73875,
      "d": 93.75,
      "v": 104
    },
    {
      "midi": 61,
      "hit": false,
      "t": 73875,
      "d": 187.5,
      "v": 100
    },
    {
      "midi": 81,
      "hit": false,
      "t": 73968.75,
      "d": 46.875,
      "v": 93
    },
    {
      "midi": 82,
      "hit": false,
      "t": 74015.625,
      "d": 93.75,
      "v": 95
    },
    {
      "midi": 57,
      "hit": false,
      "t": 74062.5,
      "d": 187.5,
      "v": 102
    },
    {
      "midi": 81,
      "hit": false,
      "t": 74109.375,
      "d": 46.875,
      "v": 96
    },
    {
      "midi": 82,
      "hit": false,
      "t": 74156.25,
      "d": 93.75,
      "v": 99
    },
    {
      "midi": 81,
      "hit": false,
      "t": 74250,
      "d": 187.5,
      "v": 104
    },
    {
      "midi": 62,
      "hit": false,
      "t": 74250,
      "d": 750,
      "v": 104
    },
    {
      "midi": 77,
      "hit": false,
      "t": 74437.5,
      "d": 187.5,
      "v": 105
    },
    {
      "midi": 79,
      "hit": false,
      "t": 74625,
      "d": 187.5,
      "v": 107
    },
    {
      "midi": 81,
      "hit": false,
      "t": 74812.5,
      "d": 187.5,
      "v": 108
    },
    {
      "midi": 82,
      "hit": false,
      "t": 75000,
      "d": 187.5,
      "v": 110
    },
    {
      "midi": 55,
      "hit": false,
      "t": 75000,
      "d": 375,
      "v": 110
    },
    {
      "midi": 81,
      "hit": false,
      "t": 75187.5,
      "d": 187.5,
      "v": 104
    },
    {
      "midi": 79,
      "hit": false,
      "t": 75375,
      "d": 187.5,
      "v": 100
    },
    {
      "midi": 57,
      "hit": false,
      "t": 75375,
      "d": 375,
      "v": 113
    },
    {
      "midi": 77,
      "hit": false,
      "t": 75562.5,
      "d": 187.5,
      "v": 101
    },
    {
      "midi": 76,
      "hit": false,
      "t": 75750,
      "d": 187.5,
      "v": 106
    },
    {
      "midi": 58,
      "hit": false,
      "t": 75750,
      "d": 375,
      "v": 115
    },
    {
      "midi": 74,
      "hit": false,
      "t": 75937.5,
      "d": 187.5,
      "v": 97
    },
    {
      "midi": 73,
      "hit": false,
      "t": 76125,
      "d": 187.5,
      "v": 101
    },
    {
      "midi": 55,
      "hit": false,
      "t": 76125,
      "d": 375,
      "v": 108
    },
    {
      "midi": 74,
      "hit": false,
      "t": 76312.5,
      "d": 187.5,
      "v": 115
    },
    {
      "midi": 79,
      "hit": false,
      "t": 76500,
      "d": 187.5,
      "v": 110
    },
    {
      "midi": 57,
      "hit": false,
      "t": 76500,
      "d": 375,
      "v": 110
    },
    {
      "midi": 77,
      "hit": false,
      "t": 76687.5,
      "d": 187.5,
      "v": 104
    },
    {
      "midi": 76,
      "hit": false,
      "t": 76875,
      "d": 187.5,
      "v": 97
    },
    {
      "midi": 45,
      "hit": false,
      "t": 76875,
      "d": 375,
      "v": 98
    },
    {
      "midi": 77,
      "hit": false,
      "t": 77062.5,
      "d": 187.5,
      "v": 91
    },
    {
      "midi": 74,
      "hit": false,
      "t": 77250,
      "d": 750,
      "v": 85
    },
    {
      "midi": 38,
      "hit": false,
      "t": 77250,
      "d": 187.5,
      "v": 110
    },
    {
      "midi": 50,
      "hit": false,
      "t": 77437.5,
      "d": 187.5,
      "v": 104
    },
    {
      "midi": 51,
      "hit": false,
      "t": 77625,
      "d": 187.5,
      "v": 97
    },
    {
      "midi": 53,
      "hit": false,
      "t": 77812.5,
      "d": 187.5,
      "v": 91
    },
    {
      "midi": 74,
      "hit": false,
      "t": 78000,
      "d": 375,
      "v": 82
    },
    {
      "midi": 55,
      "hit": false,
      "t": 78000,
      "d": 375,
      "v": 85
    },
    {
      "midi": 77,
      "hit": false,
      "t": 78375,
      "d": 187.5,
      "v": 90
    },
    {
      "midi": 55,
      "hit": false,
      "t": 78375,
      "d": 375,
      "v": 84
    },
    {
      "midi": 75,
      "hit": false,
      "t": 78562.5,
      "d": 187.5,
      "v": 82
    },
    {
      "midi": 77,
      "hit": false,
      "t": 78750,
      "d": 375,
      "v": 88
    },
    {
      "midi": 56,
      "hit": false,
      "t": 78750,
      "d": 46.875,
      "v": 77
    },
    {
      "midi": 55,
      "hit": false,
      "t": 78796.875,
      "d": 93.75,
      "v": 78
    },
    {
      "midi": 56,
      "hit": false,
      "t": 78890.625,
      "d": 46.875,
      "v": 85
    },
    {
      "midi": 55,
      "hit": false,
      "t": 78937.5,
      "d": 46.875,
      "v": 81
    },
    {
      "midi": 56,
      "hit": false,
      "t": 78984.375,
      "d": 93.75,
      "v": 89
    },
    {
      "midi": 55,
      "hit": false,
      "t": 79078.125,
      "d": 46.875,
      "v": 83
    },
    {
      "midi": 74,
      "hit": false,
      "t": 79125,
      "d": 187.5,
      "v": 79
    },
    {
      "midi": 56,
      "hit": false,
      "t": 79125,
      "d": 46.875,
      "v": 86
    },
    {
      "midi": 55,
      "hit": false,
      "t": 79171.875,
      "d": 93.75,
      "v": 79
    },
    {
      "midi": 56,
      "hit": false,
      "t": 79265.625,
      "d": 46.875,
      "v": 82
    },
    {
      "midi": 71,
      "hit": false,
      "t": 79312.5,
      "d": 187.5,
      "v": 77
    },
    {
      "midi": 55,
      "hit": false,
      "t": 79312.5,
      "d": 46.875,
      "v": 81
    },
    {
      "midi": 56,
      "hit": false,
      "t": 79359.375,
      "d": 93.75,
      "v": 81
    },
    {
      "midi": 55,
      "hit": false,
      "t": 79453.125,
      "d": 46.875,
      "v": 81
    },
    {
      "midi": 80,
      "hit": false,
      "t": 79500,
      "d": 375,
      "v": 100
    },
    {
      "midi": 56,
      "hit": false,
      "t": 79500,
      "d": 46.875,
      "v": 85
    },
    {
      "midi": 55,
      "hit": false,
      "t": 79546.875,
      "d": 93.75,
      "v": 83
    },
    {
      "midi": 56,
      "hit": false,
      "t": 79640.625,
      "d": 46.875,
      "v": 88
    },
    {
      "midi": 55,
      "hit": false,
      "t": 79687.5,
      "d": 46.875,
      "v": 78
    },
    {
      "midi": 56,
      "hit": false,
      "t": 79734.375,
      "d": 93.75,
      "v": 83
    },
    {
      "midi": 55,
      "hit": false,
      "t": 79828.125,
      "d": 46.875,
      "v": 80
    },
    {
      "midi": 77,
      "hit": false,
      "t": 79875,
      "d": 187.5,
      "v": 76
    },
    {
      "midi": 56,
      "hit": false,
      "t": 79875,
      "d": 46.875,
      "v": 86
    },
    {
      "midi": 55,
      "hit": false,
      "t": 79921.875,
      "d": 93.75,
      "v": 82
    },
    {
      "midi": 56,
      "hit": false,
      "t": 80015.625,
      "d": 46.875,
      "v": 81
    },
    {
      "midi": 74,
      "hit": false,
      "t": 80062.5,
      "d": 187.5,
      "v": 76
    },
    {
      "midi": 55,
      "hit": false,
      "t": 80062.5,
      "d": 46.875,
      "v": 86
    },
    {
      "midi": 56,
      "hit": false,
      "t": 80109.375,
      "d": 93.75,
      "v": 84
    },
    {
      "midi": 55,
      "hit": false,
      "t": 80203.125,
      "d": 46.875,
      "v": 82
    },
    {
      "midi": 75,
      "hit": false,
      "t": 80250,
      "d": 375,
      "v": 87
    },
    {
      "midi": 56,
      "hit": false,
      "t": 80250,
      "d": 46.875,
      "v": 88
    },
    {
      "midi": 55,
      "hit": false,
      "t": 80296.875,
      "d": 93.75,
      "v": 81
    },
    {
      "midi": 56,
      "hit": false,
      "t": 80390.625,
      "d": 46.875,
      "v": 81
    },
    {
      "midi": 55,
      "hit": false,
      "t": 80437.5,
      "d": 46.875,
      "v": 85
    },
    {
      "midi": 56,
      "hit": false,
      "t": 80484.375,
      "d": 93.75,
      "v": 86
    },
    {
      "midi": 55,
      "hit": false,
      "t": 80578.125,
      "d": 46.875,
      "v": 82
    },
    {
      "midi": 72,
      "hit": false,
      "t": 80625,
      "d": 187.5,
      "v": 75
    },
    {
      "midi": 56,
      "hit": false,
      "t": 80625,
      "d": 93.75,
      "v": 85
    },
    {
      "midi": 55,
      "hit": false,
      "t": 80718.75,
      "d": 46.875,
      "v": 79
    },
    {
      "midi": 56,
      "hit": false,
      "t": 80765.625,
      "d": 93.75,
      "v": 85
    },
    {
      "midi": 67,
      "hit": false,
      "t": 80812.5,
      "d": 187.5,
      "v": 66
    },
    {
      "midi": 55,
      "hit": false,
      "t": 80859.375,
      "d": 140.625,
      "v": 83
    },
    {
      "midi": 79,
      "hit": false,
      "t": 81000,
      "d": 375,
      "v": 100
    },
    {
      "midi": 55,
      "hit": false,
      "t": 81000,
      "d": 375,
      "v": 82
    },
    {
      "midi": 75,
      "hit": false,
      "t": 81375,
      "d": 187.5,
      "v": 76
    },
    {
      "midi": 55,
      "hit": false,
      "t": 81375,
      "d": 375,
      "v": 85
    },
    {
      "midi": 72,
      "hit": false,
      "t": 81562.5,
      "d": 187.5,
      "v": 81
    },
    {
      "midi": 74,
      "hit": false,
      "t": 81750,
      "d": 375,
      "v": 86
    },
    {
      "midi": 55,
      "hit": false,
      "t": 81750,
      "d": 750,
      "v": 85
    },
    {
      "midi": 70,
      "hit": false,
      "t": 82125,
      "d": 187.5,
      "v": 74
    },
    {
      "midi": 67,
      "hit": false,
      "t": 82312.5,
      "d": 187.5,
      "v": 75
    },
    {
      "midi": 79,
      "hit": false,
      "t": 82500,
      "d": 375,
      "v": 106
    },
    {
      "midi": 55,
      "hit": false,
      "t": 82500,
      "d": 375,
      "v": 82
    },
    {
      "midi": 74,
      "hit": false,
      "t": 82875,
      "d": 187.5,
      "v": 71
    },
    {
      "midi": 55,
      "hit": false,
      "t": 82875,
      "d": 375,
      "v": 82
    },
    {
      "midi": 70,
      "hit": false,
      "t": 83062.5,
      "d": 187.5,
      "v": 74
    },
    {
      "midi": 72,
      "hit": false,
      "t": 83250,
      "d": 375,
      "v": 87
    },
    {
      "midi": 55,
      "hit": false,
      "t": 83250,
      "d": 750,
      "v": 83
    },
    {
      "midi": 69,
      "hit": false,
      "t": 83625,
      "d": 187.5,
      "v": 76
    },
    {
      "midi": 66,
      "hit": false,
      "t": 83812.5,
      "d": 187.5,
      "v": 80
    },
    {
      "midi": 75,
      "hit": false,
      "t": 84000,
      "d": 375,
      "v": 83
    },
    {
      "midi": 55,
      "hit": false,
      "t": 84000,
      "d": 187.5,
      "v": 85
    },
    {
      "midi": 55,
      "hit": false,
      "t": 84187.5,
      "d": 187.5,
      "v": 82
    },
    {
      "midi": 72,
      "hit": false,
      "t": 84375,
      "d": 187.5,
      "v": 79
    },
    {
      "midi": 55,
      "hit": false,
      "t": 84375,
      "d": 187.5,
      "v": 80
    },
    {
      "midi": 69,
      "hit": false,
      "t": 84562.5,
      "d": 187.5,
      "v": 76
    },
    {
      "midi": 55,
      "hit": false,
      "t": 84562.5,
      "d": 187.5,
      "v": 78
    },
    {
      "midi": 74,
      "hit": false,
      "t": 84750,
      "d": 375,
      "v": 74
    },
    {
      "midi": 55,
      "hit": false,
      "t": 84750,
      "d": 187.5,
      "v": 75
    },
    {
      "midi": 55,
      "hit": false,
      "t": 84937.5,
      "d": 187.5,
      "v": 73
    },
    {
      "midi": 70,
      "hit": false,
      "t": 85125,
      "d": 187.5,
      "v": 69
    },
    {
      "midi": 55,
      "hit": false,
      "t": 85125,
      "d": 187.5,
      "v": 71
    },
    {
      "midi": 67,
      "hit": false,
      "t": 85312.5,
      "d": 187.5,
      "v": 67
    },
    {
      "midi": 55,
      "hit": false,
      "t": 85312.5,
      "d": 187.5,
      "v": 68
    },
    {
      "midi": 72,
      "hit": false,
      "t": 85500,
      "d": 187.5,
      "v": 65
    },
    {
      "midi": 55,
      "hit": false,
      "t": 85500,
      "d": 187.5,
      "v": 66
    },
    {
      "midi": 69,
      "hit": false,
      "t": 85687.5,
      "d": 187.5,
      "v": 63
    },
    {
      "midi": 54,
      "hit": false,
      "t": 85687.5,
      "d": 187.5,
      "v": 64
    },
    {
      "midi": 70,
      "hit": false,
      "t": 85875,
      "d": 187.5,
      "v": 60
    },
    {
      "midi": 55,
      "hit": false,
      "t": 85875,
      "d": 375,
      "v": 62
    },
    {
      "midi": 67,
      "hit": false,
      "t": 86062.5,
      "d": 187.5,
      "v": 58
    },
    {
      "midi": 69,
      "hit": false,
      "t": 86250,
      "d": 187.5,
      "v": 62
    },
    {
      "midi": 50,
      "hit": false,
      "t": 86250,
      "d": 375,
      "v": 58
    },
    {
      "midi": 62,
      "hit": false,
      "t": 86437.5,
      "d": 187.5,
      "v": 53
    },
    {
      "midi": 64,
      "hit": false,
      "t": 86625,
      "d": 187.5,
      "v": 65
    },
    {
      "midi": 48,
      "hit": false,
      "t": 86625,
      "d": 375,
      "v": 60
    },
    {
      "midi": 66,
      "hit": false,
      "t": 86812.5,
      "d": 187.5,
      "v": 65
    },
    {
      "midi": 67,
      "hit": false,
      "t": 87000,
      "d": 187.5,
      "v": 63
    },
    {
      "midi": 46,
      "hit": false,
      "t": 87000,
      "d": 375,
      "v": 61
    },
    {
      "midi": 69,
      "hit": false,
      "t": 87187.5,
      "d": 187.5,
      "v": 67
    },
    {
      "midi": 70,
      "hit": false,
      "t": 87375,
      "d": 187.5,
      "v": 65
    },
    {
      "midi": 50,
      "hit": false,
      "t": 87375,
      "d": 375,
      "v": 63
    },
    {
      "midi": 67,
      "hit": false,
      "t": 87562.5,
      "d": 187.5,
      "v": 58
    },
    {
      "midi": 75,
      "hit": false,
      "t": 87750,
      "d": 187.5,
      "v": 66
    },
    {
      "midi": 42,
      "hit": false,
      "t": 87750,
      "d": 375,
      "v": 57
    },
    {
      "midi": 72,
      "hit": false,
      "t": 87937.5,
      "d": 187.5,
      "v": 59
    },
    {
      "midi": 74,
      "hit": false,
      "t": 88125,
      "d": 187.5,
      "v": 60
    },
    {
      "midi": 50,
      "hit": false,
      "t": 88125,
      "d": 375,
      "v": 66
    },
    {
      "midi": 70,
      "hit": false,
      "t": 88312.5,
      "d": 187.5,
      "v": 54
    },
    {
      "midi": 67,
      "hit": false,
      "t": 88500,
      "d": 375,
      "v": 60
    },
    {
      "midi": 46,
      "hit": false,
      "t": 88500,
      "d": 375,
      "v": 60
    },
    {
      "midi": 70,
      "hit": false,
      "t": 88875,
      "d": 187.5,
      "v": 62
    },
    {
      "midi": 45,
      "hit": false,
      "t": 88875,
      "d": 375,
      "v": 62
    },
    {
      "midi": 69,
      "hit": false,
      "t": 89062.5,
      "d": 187.5,
      "v": 63
    },
    {
      "midi": 70,
      "hit": false,
      "t": 89250,
      "d": 187.5,
      "v": 64
    },
    {
      "midi": 43,
      "hit": false,
      "t": 89250,
      "d": 750,
      "v": 64
    },
    {
      "midi": 66,
      "hit": false,
      "t": 89437.5,
      "d": 187.5,
      "v": 65
    },
    {
      "midi": 67,
      "hit": false,
      "t": 89625,
      "d": 187.5,
      "v": 66
    },
    {
      "midi": 62,
      "hit": false,
      "t": 89812.5,
      "d": 187.5,
      "v": 67
    },
    {
      "midi": 71,
      "hit": false,
      "t": 90000,
      "d": 187.5,
      "v": 68
    },
    {
      "midi": 41,
      "hit": false,
      "t": 90000,
      "d": 750,
      "v": 68
    },
    {
      "midi": 65,
      "hit": false,
      "t": 90187.5,
      "d": 187.5,
      "v": 69
    },
    {
      "midi": 67,
      "hit": false,
      "t": 90375,
      "d": 187.5,
      "v": 70
    },
    {
      "midi": 62,
      "hit": false,
      "t": 90562.5,
      "d": 187.5,
      "v": 70
    },
    {
      "midi": 72,
      "hit": false,
      "t": 90750,
      "d": 187.5,
      "v": 71
    },
    {
      "midi": 39,
      "hit": false,
      "t": 90750,
      "d": 375,
      "v": 71
    },
    {
      "midi": 62,
      "hit": false,
      "t": 90937.5,
      "d": 187.5,
      "v": 72
    },
    {
      "midi": 63,
      "hit": false,
      "t": 91125,
      "d": 187.5,
      "v": 73
    },
    {
      "midi": 55,
      "hit": false,
      "t": 91125,
      "d": 187.5,
      "v": 73
    },
    {
      "midi": 67,
      "hit": false,
      "t": 91312.5,
      "d": 187.5,
      "v": 74
    },
    {
      "midi": 53,
      "hit": false,
      "t": 91312.5,
      "d": 187.5,
      "v": 74
    },
    {
      "midi": 72,
      "hit": false,
      "t": 91500,
      "d": 187.5,
      "v": 75
    },
    {
      "midi": 51,
      "hit": false,
      "t": 91500,
      "d": 375,
      "v": 75
    },
    {
      "midi": 67,
      "hit": false,
      "t": 91687.5,
      "d": 187.5,
      "v": 76
    },
    {
      "midi": 74,
      "hit": false,
      "t": 91875,
      "d": 187.5,
      "v": 77
    },
    {
      "midi": 50,
      "hit": false,
      "t": 91875,
      "d": 375,
      "v": 77
    },
    {
      "midi": 67,
      "hit": false,
      "t": 92062.5,
      "d": 187.5,
      "v": 78
    },
    {
      "midi": 75,
      "hit": false,
      "t": 92250,
      "d": 187.5,
      "v": 79
    },
    {
      "midi": 48,
      "hit": false,
      "t": 92250,
      "d": 750,
      "v": 79
    },
    {
      "midi": 71,
      "hit": false,
      "t": 92437.5,
      "d": 187.5,
      "v": 80
    },
    {
      "midi": 72,
      "hit": false,
      "t": 92625,
      "d": 187.5,
      "v": 80
    },
    {
      "midi": 67,
      "hit": false,
      "t": 92812.5,
      "d": 187.5,
      "v": 81
    },
    {
      "midi": 76,
      "hit": false,
      "t": 93000,
      "d": 187.5,
      "v": 82
    },
    {
      "midi": 46,
      "hit": false,
      "t": 93000,
      "d": 750,
      "v": 82
    },
    {
      "midi": 70,
      "hit": false,
      "t": 93187.5,
      "d": 187.5,
      "v": 83
    },
    {
      "midi": 72,
      "hit": false,
      "t": 93375,
      "d": 187.5,
      "v": 84
    },
    {
      "midi": 67,
      "hit": false,
      "t": 93562.5,
      "d": 187.5,
      "v": 85
    },
    {
      "midi": 77,
      "hit": false,
      "t": 93750,
      "d": 187.5,
      "v": 86
    },
    {
      "midi": 45,
      "hit": false,
      "t": 93750,
      "d": 375,
      "v": 86
    },
    {
      "midi": 67,
      "hit": false,
      "t": 93937.5,
      "d": 187.5,
      "v": 67
    },
    {
      "midi": 69,
      "hit": false,
      "t": 94125,
      "d": 187.5,
      "v": 92
    },
    {
      "midi": 60,
      "hit": false,
      "t": 94125,
      "d": 187.5,
      "v": 107
    },
    {
      "midi": 72,
      "hit": false,
      "t": 94312.5,
      "d": 187.5,
      "v": 93
    },
    {
      "midi": 58,
      "hit": false,
      "t": 94312.5,
      "d": 187.5,
      "v": 88
    },
    {
      "midi": 78,
      "hit": false,
      "t": 94500,
      "d": 187.5,
      "v": 99
    },
    {
      "midi": 57,
      "hit": false,
      "t": 94500,
      "d": 375,
      "v": 85
    },
    {
      "midi": 72,
      "hit": false,
      "t": 94687.5,
      "d": 187.5,
      "v": 69
    },
    {
      "midi": 79,
      "hit": false,
      "t": 94875,
      "d": 187.5,
      "v": 99
    },
    {
      "midi": 55,
      "hit": false,
      "t": 94875,
      "d": 375,
      "v": 84
    },
    {
      "midi": 72,
      "hit": false,
      "t": 95062.5,
      "d": 187.5,
      "v": 77
    },
    {
      "midi": 81,
      "hit": false,
      "t": 95250,
      "d": 187.5,
      "v": 105
    },
    {
      "midi": 54,
      "hit": false,
      "t": 95250,
      "d": 750,
      "v": 79
    },
    {
      "midi": 76,
      "hit": false,
      "t": 95437.5,
      "d": 187.5,
      "v": 77
    },
    {
      "midi": 78,
      "hit": false,
      "t": 95625,
      "d": 187.5,
      "v": 89
    },
    {
      "midi": 74,
      "hit": false,
      "t": 95812.5,
      "d": 187.5,
      "v": 77
    },
    {
      "midi": 82,
      "hit": false,
      "t": 96000,
      "d": 187.5,
      "v": 101
    },
    {
      "midi": 52,
      "hit": false,
      "t": 96000,
      "d": 750,
      "v": 80
    },
    {
      "midi": 78,
      "hit": false,
      "t": 96187.5,
      "d": 187.5,
      "v": 76
    },
    {
      "midi": 79,
      "hit": false,
      "t": 96375,
      "d": 187.5,
      "v": 86
    },
    {
      "midi": 74,
      "hit": false,
      "t": 96562.5,
      "d": 187.5,
      "v": 75
    },
    {
      "midi": 84,
      "hit": false,
      "t": 96750,
      "d": 187.5,
      "v": 105
    },
    {
      "midi": 50,
      "hit": false,
      "t": 96750,
      "d": 375,
      "v": 76
    },
    {
      "midi": 81,
      "hit": false,
      "t": 96937.5,
      "d": 187.5,
      "v": 83
    },
    {
      "midi": 74,
      "hit": false,
      "t": 97125,
      "d": 187.5,
      "v": 70
    },
    {
      "midi": 54,
      "hit": false,
      "t": 97125,
      "d": 375,
      "v": 94
    },
    {
      "midi": 84,
      "hit": false,
      "t": 97312.5,
      "d": 187.5,
      "v": 104
    },
    {
      "midi": 82,
      "hit": false,
      "t": 97500,
      "d": 187.5,
      "v": 87
    },
    {
      "midi": 55,
      "hit": false,
      "t": 97500,
      "d": 375,
      "v": 89
    },
    {
      "midi": 81,
      "hit": false,
      "t": 97687.5,
      "d": 187.5,
      "v": 81
    },
    {
      "midi": 79,
      "hit": false,
      "t": 97875,
      "d": 187.5,
      "v": 76
    },
    {
      "midi": 57,
      "hit": false,
      "t": 97875,
      "d": 375,
      "v": 86
    },
    {
      "midi": 78,
      "hit": false,
      "t": 98062.5,
      "d": 187.5,
      "v": 81
    },
    {
      "midi": 79,
      "hit": false,
      "t": 98250,
      "d": 187.5,
      "v": 91
    },
    {
      "midi": 58,
      "hit": false,
      "t": 98250,
      "d": 375,
      "v": 89
    },
    {
      "midi": 74,
      "hit": false,
      "t": 98437.5,
      "d": 187.5,
      "v": 76
    },
    {
      "midi": 75,
      "hit": false,
      "t": 98625,
      "d": 187.5,
      "v": 91
    },
    {
      "midi": 60,
      "hit": false,
      "t": 98625,
      "d": 375,
      "v": 91
    },
    {
      "midi": 72,
      "hit": false,
      "t": 98812.5,
      "d": 187.5,
      "v": 75
    },
    {
      "midi": 70,
      "hit": false,
      "t": 99000,
      "d": 46.875,
      "v": 75
    },
    {
      "midi": 62,
      "hit": false,
      "t": 99000,
      "d": 375,
      "v": 89
    },
    {
      "midi": 72,
      "hit": false,
      "t": 99046.875,
      "d": 46.875,
      "v": 87
    },
    {
      "midi": 70,
      "hit": false,
      "t": 99093.75,
      "d": 281.25,
      "v": 80
    },
    {
      "midi": 69,
      "hit": false,
      "t": 99375,
      "d": 187.5,
      "v": 77
    },
    {
      "midi": 50,
      "hit": false,
      "t": 99375,
      "d": 375,
      "v": 76
    },
    {
      "midi": 67,
      "hit": false,
      "t": 99562.5,
      "d": 187.5,
      "v": 75
    },
    {
      "midi": 67,
      "hit": false,
      "t": 99750,
      "d": 750,
      "v": 89
    },
    {
      "midi": 43,
      "hit": false,
      "t": 99750,
      "d": 750,
      "v": 78
    }
  ]
}