{
  "jsonPath": "Classical/Classical/Johann Sebastian Bach/english-suite-i-bourree-i.json",
  "path": "Classical\\Classical\\Johann Sebastian Bach\\English Suite I Bourree I.mid",
  "name": "English Suite I Bourree I",
  "difficulty": "Advanced",
  "bpm": 184.00053973491654,
  "notes": [
    {
      "midi": 64,
      "hit": false,
      "t": 0,
      "d": 326.086,
      "v": 90
    },
    {
      "midi": 69,
      "hit": false,
      "t": 326.086,
      "d": 163.043,
      "v": 90
    },
    {
      "midi": 68,
      "hit": false,
      "t": 489.129,
      "d": 163.043,
      "v": 90
    },
    {
      "midi": 71,
      "hit": false,
      "t": 652.172,
      "d": 163.043,
      "v": 90
    },
    {
      "midi": 69,
      "hit": false,
      "t": 815.215,
      "d": 163.043,
      "v": 90
    },
    {
      "midi": 73,
      "hit": false,
      "t": 978.258,
      "d": 163.0429999999999,
      "v": 90
    },
    {
      "midi": 71,
      "hit": false,
      "t": 1141.301,
      "d": 163.04300000000012,
      "v": 90
    },
    {
      "midi": 69,
      "hit": false,
      "t": 1304.344,
      "d": 163.04300000000012,
      "v": 90
    },
    {
      "midi": 68,
      "hit": false,
      "t": 1467.3870000000002,
      "d": 163.04300000000012,
      "v": 90
    },
    {
      "midi": 69,
      "hit": false,
      "t": 1630.4300000000003,
      "d": 326.086,
      "v": 90
    },
    {
      "midi": 64,
      "hit": false,
      "t": 1956.5160000000003,
      "d": 326.086,
      "v": 90
    },
    {
      "midi": 61,
      "hit": false,
      "t": 2282.6020000000003,
      "d": 163.04300000000012,
      "v": 90
    },
    {
      "midi": 64,
      "hit": false,
      "t": 2445.6450000000004,
      "d": 163.04300000000012,
      "v": 90
    },
    {
      "midi": 52,
      "hit": false,
      "t": 2608.688,
      "d": 326.08600000000024,
      "v": 90
    },
    {
      "midi": 69,
      "hit": false,
      "t": 2608.6880000000006,
      "d": 163.04300000000012,
      "v": 90
    },
    {
      "midi": 71,
      "hit": false,
      "t": 2771.7310000000007,
      "d": 163.04300000000012,
      "v": 90
    },
    {
      "midi": 57,
      "hit": false,
      "t": 2934.7740000000003,
      "d": 163.04300000000012,
      "v": 90
    },
    {
      "midi": 73,
      "hit": false,
      "t": 2934.774000000001,
      "d": 163.04300000000012,
      "v": 90
    },
    {
      "midi": 56,
      "hit": false,
      "t": 3097.8170000000005,
      "d": 163.04300000000012,
      "v": 90
    },
    {
      "midi": 71,
      "hit": false,
      "t": 3097.817000000001,
      "d": 163.04300000000012,
      "v": 90
    },
    {
      "midi": 59,
      "hit": false,
      "t": 3260.8600000000006,
      "d": 163.04300000000012,
      "v": 90
    },
    {
      "midi": 74,
      "hit": false,
      "t": 3260.860000000001,
      "d": 163.04300000000012,
      "v": 90
    },
    {
      "midi": 57,
      "hit": false,
      "t": 3423.9030000000007,
      "d": 163.04300000000012,
      "v": 90
    },
    {
      "midi": 73,
      "hit": false,
      "t": 3423.903000000001,
      "d": 163.04300000000012,
      "v": 90
    },
    {
      "midi": 61,
      "hit": false,
      "t": 3586.946000000001,
      "d": 163.04300000000012,
      "v": 90
    },
    {
      "midi": 76,
      "hit": false,
      "t": 3586.9460000000013,
      "d": 163.04300000000012,
      "v": 90
    },
    {
      "midi": 59,
      "hit": false,
      "t": 3749.989000000001,
      "d": 163.04300000000012,
      "v": 90
    },
    {
      "midi": 74,
      "hit": false,
      "t": 3749.9890000000014,
      "d": 163.04300000000012,
      "v": 90
    },
    {
      "midi": 57,
      "hit": false,
      "t": 3913.032000000001,
      "d": 163.04300000000012,
      "v": 90
    },
    {
      "midi": 73,
      "hit": false,
      "t": 3913.0320000000015,
      "d": 163.04300000000012,
      "v": 90
    },
    {
      "midi": 56,
      "hit": false,
      "t": 4076.075000000001,
      "d": 163.04300000000012,
      "v": 90
    },
    {
      "midi": 71,
      "hit": false,
      "t": 4076.0750000000016,
      "d": 163.04299999999967,
      "v": 90
    },
    {
      "midi": 74,
      "hit": false,
      "t": 4239.118000000001,
      "d": 163.04299999999967,
      "v": 90
    },
    {
      "midi": 57,
      "hit": false,
      "t": 4239.118000000001,
      "d": 326.08600000000024,
      "v": 90
    },
    {
      "midi": 73,
      "hit": false,
      "t": 4402.161000000001,
      "d": 163.04299999999967,
      "v": 90
    },
    {
      "midi": 71,
      "hit": false,
      "t": 4565.204000000001,
      "d": 163.04299999999967,
      "v": 90
    },
    {
      "midi": 52,
      "hit": false,
      "t": 4565.2040000000015,
      "d": 326.08600000000024,
      "v": 90
    },
    {
      "midi": 73,
      "hit": false,
      "t": 4728.247,
      "d": 163.04299999999967,
      "v": 90
    },
    {
      "midi": 69,
      "hit": false,
      "t": 4891.29,
      "d": 163.04299999999967,
      "v": 90
    },
    {
      "midi": 49,
      "hit": false,
      "t": 4891.290000000002,
      "d": 163.04299999999967,
      "v": 90
    },
    {
      "midi": 71,
      "hit": false,
      "t": 5054.333,
      "d": 163.04299999999967,
      "v": 90
    },
    {
      "midi": 52,
      "hit": false,
      "t": 5054.333000000001,
      "d": 163.04299999999967,
      "v": 90
    },
    {
      "midi": 73,
      "hit": false,
      "t": 5217.375999999999,
      "d": 163.04299999999967,
      "v": 90
    },
    {
      "midi": 57,
      "hit": false,
      "t": 5217.376000000001,
      "d": 163.04299999999967,
      "v": 90
    },
    {
      "midi": 74,
      "hit": false,
      "t": 5380.418999999999,
      "d": 163.04299999999967,
      "v": 90
    },
    {
      "midi": 59,
      "hit": false,
      "t": 5380.419000000001,
      "d": 163.04299999999967,
      "v": 90
    },
    {
      "midi": 76,
      "hit": false,
      "t": 5543.461999999999,
      "d": 326.08600000000024,
      "v": 90
    },
    {
      "midi": 61,
      "hit": false,
      "t": 5543.462,
      "d": 163.04299999999967,
      "v": 90
    },
    {
      "midi": 59,
      "hit": false,
      "t": 5706.505,
      "d": 163.04299999999967,
      "v": 90
    },
    {
      "midi": 78,
      "hit": false,
      "t": 5869.547999999999,
      "d": 326.08600000000024,
      "v": 90
    },
    {
      "midi": 79,
      "hit": false,
      "t": 5869.547999999999,
      "d": 326.08600000000024,
      "v": 90
    },
    {
      "midi": 62,
      "hit": false,
      "t": 5869.548,
      "d": 163.04299999999967,
      "v": 90
    },
    {
      "midi": 61,
      "hit": false,
      "t": 6032.590999999999,
      "d": 163.04299999999967,
      "v": 90
    },
    {
      "midi": 79,
      "hit": false,
      "t": 6195.633999999999,
      "d": 326.08600000000024,
      "v": 90
    },
    {
      "midi": 64,
      "hit": false,
      "t": 6195.633999999999,
      "d": 163.04299999999967,
      "v": 90
    },
    {
      "midi": 62,
      "hit": false,
      "t": 6358.676999999999,
      "d": 163.04299999999967,
      "v": 90
    },
    {
      "midi": 61,
      "hit": false,
      "t": 6521.719999999998,
      "d": 163.04299999999967,
      "v": 90
    },
    {
      "midi": 57,
      "hit": false,
      "t": 6684.762999999998,
      "d": 163.04299999999967,
      "v": 90
    },
    {
      "midi": 81,
      "hit": false,
      "t": 6684.762999999999,
      "d": 163.04299999999967,
      "v": 90
    },
    {
      "midi": 62,
      "hit": false,
      "t": 6847.805999999998,
      "d": 163.04299999999967,
      "v": 90
    },
    {
      "midi": 78,
      "hit": false,
      "t": 6847.805999999999,
      "d": 326.08600000000024,
      "v": 90
    },
    {
      "midi": 61,
      "hit": false,
      "t": 7010.848999999997,
      "d": 163.04299999999967,
      "v": 90
    },
    {
      "midi": 64,
      "hit": false,
      "t": 7173.891999999997,
      "d": 163.04299999999967,
      "v": 90
    },
    {
      "midi": 80,
      "hit": false,
      "t": 7173.891999999999,
      "d": 326.08600000000024,
      "v": 90
    },
    {
      "midi": 81,
      "hit": false,
      "t": 7173.891999999999,
      "d": 326.08600000000024,
      "v": 90
    },
    {
      "midi": 62,
      "hit": false,
      "t": 7336.934999999997,
      "d": 163.04299999999967,
      "v": 90
    },
    {
      "midi": 66,
      "hit": false,
      "t": 7499.977999999996,
      "d": 163.04299999999967,
      "v": 90
    },
    {
      "midi": 81,
      "hit": false,
      "t": 7499.977999999999,
      "d": 326.08600000000024,
      "v": 90
    },
    {
      "midi": 64,
      "hit": false,
      "t": 7663.020999999996,
      "d": 163.04299999999967,
      "v": 90
    },
    {
      "midi": 63,
      "hit": false,
      "t": 7826.063999999996,
      "d": 163.04299999999967,
      "v": 90
    },
    {
      "midi": 59,
      "hit": false,
      "t": 7989.106999999995,
      "d": 163.04299999999967,
      "v": 90
    },
    {
      "midi": 83,
      "hit": false,
      "t": 7989.106999999999,
      "d": 163.04299999999967,
      "v": 90
    },
    {
      "midi": 64,
      "hit": false,
      "t": 8152.149999999995,
      "d": 163.04300000000057,
      "v": 90
    },
    {
      "midi": 80,
      "hit": false,
      "t": 8152.149999999999,
      "d": 163.04300000000057,
      "v": 90
    },
    {
      "midi": 66,
      "hit": false,
      "t": 8315.192999999996,
      "d": 163.04299999999967,
      "v": 90
    },
    {
      "midi": 81,
      "hit": false,
      "t": 8315.193,
      "d": 163.04299999999967,
      "v": 90
    },
    {
      "midi": 64,
      "hit": false,
      "t": 8478.235999999995,
      "d": 163.04299999999967,
      "v": 90
    },
    {
      "midi": 80,
      "hit": false,
      "t": 8478.235999999999,
      "d": 163.04299999999967,
      "v": 90
    },
    {
      "midi": 62,
      "hit": false,
      "t": 8641.278999999995,
      "d": 163.04299999999967,
      "v": 90
    },
    {
      "midi": 81,
      "hit": false,
      "t": 8641.278999999999,
      "d": 163.04299999999967,
      "v": 90
    },
    {
      "midi": 61,
      "hit": false,
      "t": 8804.321999999995,
      "d": 163.04299999999967,
      "v": 90
    },
    {
      "midi": 81,
      "hit": false,
      "t": 8804.321999999998,
      "d": 326.08599999999933,
      "v": 90
    },
    {
      "midi": 59,
      "hit": false,
      "t": 8967.364999999994,
      "d": 163.04299999999967,
      "v": 90
    },
    {
      "midi": 61,
      "hit": false,
      "t": 9130.407999999994,
      "d": 163.04299999999967,
      "v": 90
    },
    {
      "midi": 57,
      "hit": false,
      "t": 9293.450999999994,
      "d": 163.04299999999967,
      "v": 90
    },
    {
      "midi": 80,
      "hit": false,
      "t": 9293.450999999997,
      "d": 81.52150000000074,
      "v": 90
    },
    {
      "midi": 81,
      "hit": false,
      "t": 9374.972499999998,
      "d": 81.52150000000074,
      "v": 90
    },
    {
      "midi": 64,
      "hit": false,
      "t": 9456.493999999993,
      "d": 163.04299999999967,
      "v": 90
    },
    {
      "midi": 83,
      "hit": false,
      "t": 9456.493999999999,
      "d": 652.1720000000005,
      "v": 90
    },
    {
      "midi": 63,
      "hit": false,
      "t": 9619.536999999993,
      "d": 163.04299999999967,
      "v": 90
    },
    {
      "midi": 66,
      "hit": false,
      "t": 9782.579999999993,
      "d": 163.04299999999967,
      "v": 90
    },
    {
      "midi": 64,
      "hit": false,
      "t": 9945.622999999992,
      "d": 163.04299999999967,
      "v": 90
    },
    {
      "midi": 68,
      "hit": false,
      "t": 10108.665999999992,
      "d": 163.04299999999967,
      "v": 90
    },
    {
      "midi": 66,
      "hit": false,
      "t": 10271.708999999992,
      "d": 163.04299999999967,
      "v": 90
    },
    {
      "midi": 64,
      "hit": false,
      "t": 10434.751999999991,
      "d": 163.04299999999967,
      "v": 90
    },
    {
      "midi": 64,
      "hit": false,
      "t": 10434.751999999999,
      "d": 326.08599999999933,
      "v": 90
    },
    {
      "midi": 62,
      "hit": false,
      "t": 10597.794999999991,
      "d": 163.04299999999967,
      "v": 90
    },
    {
      "midi": 61,
      "hit": false,
      "t": 10760.83799999999,
      "d": 163.04299999999967,
      "v": 90
    },
    {
      "midi": 69,
      "hit": false,
      "t": 10760.837999999998,
      "d": 163.04299999999967,
      "v": 90
    },
    {
      "midi": 59,
      "hit": false,
      "t": 10923.88099999999,
      "d": 163.04299999999967,
      "v": 90
    },
    {
      "midi": 68,
      "hit": false,
      "t": 10923.880999999998,
      "d": 163.04299999999967,
      "v": 90
    },
    {
      "midi": 62,
      "hit": false,
      "t": 11086.92399999999,
      "d": 163.04299999999967,
      "v": 90
    },
    {
      "midi": 71,
      "hit": false,
      "t": 11086.923999999997,
      "d": 163.04299999999967,
      "v": 90
    },
    {
      "midi": 61,
      "hit": false,
      "t": 11249.96699999999,
      "d": 163.04299999999967,
      "v": 90
    },
    {
      "midi": 69,
      "hit": false,
      "t": 11249.966999999997,
      "d": 163.04299999999967,
      "v": 90
    },
    {
      "midi": 64,
      "hit": false,
      "t": 11413.00999999999,
      "d": 163.04299999999967,
      "v": 90
    },
    {
      "midi": 73,
      "hit": false,
      "t": 11413.009999999997,
      "d": 163.04299999999967,
      "v": 90
    },
    {
      "midi": 62,
      "hit": false,
      "t": 11576.052999999989,
      "d": 163.04299999999967,
      "v": 90
    },
    {
      "midi": 71,
      "hit": false,
      "t": 11576.052999999996,
      "d": 163.04299999999967,
      "v": 90
    },
    {
      "midi": 61,
      "hit": false,
      "t": 11739.095999999989,
      "d": 163.04299999999967,
      "v": 90
    },
    {
      "midi": 69,
      "hit": false,
      "t": 11739.095999999996,
      "d": 163.04299999999967,
      "v": 90
    },
    {
      "midi": 59,
      "hit": false,
      "t": 11902.138999999988,
      "d": 163.04299999999967,
      "v": 90
    },
    {
      "midi": 68,
      "hit": false,
      "t": 11902.138999999996,
      "d": 163.04299999999967,
      "v": 90
    },
    {
      "midi": 61,
      "hit": false,
      "t": 12065.181999999988,
      "d": 163.04299999999967,
      "v": 90
    },
    {
      "midi": 69,
      "hit": false,
      "t": 12065.181999999995,
      "d": 326.08599999999933,
      "v": 90
    },
    {
      "midi": 62,
      "hit": false,
      "t": 12228.224999999988,
      "d": 163.04299999999967,
      "v": 90
    },
    {
      "midi": 61,
      "hit": false,
      "t": 12391.267999999987,
      "d": 163.04299999999967,
      "v": 90
    },
    {
      "midi": 64,
      "hit": false,
      "t": 12391.267999999995,
      "d": 326.08599999999933,
      "v": 90
    },
    {
      "midi": 59,
      "hit": false,
      "t": 12554.310999999987,
      "d": 163.04299999999967,
      "v": 90
    },
    {
      "midi": 57,
      "hit": false,
      "t": 12717.353999999987,
      "d": 326.08599999999933,
      "v": 90
    },
    {
      "midi": 61,
      "hit": false,
      "t": 12717.353999999994,
      "d": 163.04299999999967,
      "v": 90
    },
    {
      "midi": 64,
      "hit": false,
      "t": 12880.396999999994,
      "d": 163.04299999999967,
      "v": 90
    },
    {
      "midi": 52,
      "hit": false,
      "t": 13043.439999999986,
      "d": 326.08599999999933,
      "v": 90
    },
    {
      "midi": 69,
      "hit": false,
      "t": 13043.439999999993,
      "d": 163.04299999999967,
      "v": 90
    },
    {
      "midi": 71,
      "hit": false,
      "t": 13206.482999999993,
      "d": 163.04299999999967,
      "v": 90
    },
    {
      "midi": 57,
      "hit": false,
      "t": 13369.525999999985,
      "d": 163.04299999999967,
      "v": 90
    },
    {
      "midi": 73,
      "hit": false,
      "t": 13369.525999999993,
      "d": 163.04299999999967,
      "v": 90
    },
    {
      "midi": 56,
      "hit": false,
      "t": 13532.568999999985,
      "d": 163.04299999999967,
      "v": 90
    },
    {
      "midi": 71,
      "hit": false,
      "t": 13532.568999999992,
      "d": 163.04299999999967,
      "v": 90
    },
    {
      "midi": 59,
      "hit": false,
      "t": 13695.611999999985,
      "d": 163.04299999999967,
      "v": 90
    },
    {
      "midi": 74,
      "hit": false,
      "t": 13695.611999999992,
      "d": 163.04299999999967,
      "v": 90
    },
    {
      "midi": 57,
      "hit": false,
      "t": 13858.654999999984,
      "d": 163.04299999999967,
      "v": 90
    },
    {
      "midi": 73,
      "hit": false,
      "t": 13858.654999999992,
      "d": 163.04299999999967,
      "v": 90
    },
    {
      "midi": 61,
      "hit": false,
      "t": 14021.697999999984,
      "d": 163.04299999999967,
      "v": 90
    },
    {
      "midi": 76,
      "hit": false,
      "t": 14021.697999999991,
      "d": 163.04299999999967,
      "v": 90
    },
    {
      "midi": 59,
      "hit": false,
      "t": 14184.740999999984,
      "d": 163.04299999999967,
      "v": 90
    },
    {
      "midi": 74,
      "hit": false,
      "t": 14184.74099999999,
      "d": 163.04299999999967,
      "v": 90
    },
    {
      "midi": 57,
      "hit": false,
      "t": 14347.783999999983,
      "d": 163.04299999999967,
      "v": 90
    },
    {
      "midi": 73,
      "hit": false,
      "t": 14347.78399999999,
      "d": 163.04299999999967,
      "v": 90
    },
    {
      "midi": 56,
      "hit": false,
      "t": 14510.826999999983,
      "d": 163.04299999999967,
      "v": 90
    },
    {
      "midi": 71,
      "hit": false,
      "t": 14510.82699999999,
      "d": 163.04299999999967,
      "v": 90
    },
    {
      "midi": 57,
      "hit": false,
      "t": 14673.869999999983,
      "d": 326.08599999999933,
      "v": 90
    },
    {
      "midi": 74,
      "hit": false,
      "t": 14673.86999999999,
      "d": 163.04299999999967,
      "v": 90
    },
    {
      "midi": 73,
      "hit": false,
      "t": 14836.91299999999,
      "d": 163.04299999999967,
      "v": 90
    },
    {
      "midi": 52,
      "hit": false,
      "t": 14999.955999999982,
      "d": 326.08599999999933,
      "v": 90
    },
    {
      "midi": 71,
      "hit": false,
      "t": 14999.95599999999,
      "d": 163.04299999999967,
      "v": 90
    },
    {
      "midi": 73,
      "hit": false,
      "t": 15162.998999999989,
      "d": 163.04299999999967,
      "v": 90
    },
    {
      "midi": 49,
      "hit": false,
      "t": 15326.041999999981,
      "d": 326.08599999999933,
      "v": 90
    },
    {
      "midi": 69,
      "hit": false,
      "t": 15326.041999999989,
      "d": 163.04299999999967,
      "v": 90
    },
    {
      "midi": 68,
      "hit": false,
      "t": 15489.084999999988,
      "d": 163.04299999999967,
      "v": 90
    },
    {
      "midi": 52,
      "hit": false,
      "t": 15652.12799999998,
      "d": 326.08599999999933,
      "v": 90
    },
    {
      "midi": 71,
      "hit": false,
      "t": 15652.127999999988,
      "d": 163.04299999999967,
      "v": 90
    },
    {
      "midi": 69,
      "hit": false,
      "t": 15815.170999999988,
      "d": 163.04299999999967,
      "v": 90
    },
    {
      "midi": 45,
      "hit": false,
      "t": 15978.21399999998,
      "d": 326.08599999999933,
      "v": 90
    },
    {
      "midi": 73,
      "hit": false,
      "t": 15978.213999999987,
      "d": 163.04299999999967,
      "v": 90
    },
    {
      "midi": 71,
      "hit": false,
      "t": 16141.256999999987,
      "d": 163.04299999999967,
      "v": 90
    },
    {
      "midi": 52,
      "hit": false,
      "t": 16304.29999999998,
      "d": 326.08600000000115,
      "v": 90
    },
    {
      "midi": 69,
      "hit": false,
      "t": 16304.299999999987,
      "d": 163.04299999999967,
      "v": 90
    },
    {
      "midi": 68,
      "hit": false,
      "t": 16467.342999999986,
      "d": 163.04300000000148,
      "v": 90
    },
    {
      "midi": 57,
      "hit": false,
      "t": 16630.38599999998,
      "d": 163.04300000000148,
      "v": 90
    },
    {
      "midi": 66,
      "hit": false,
      "t": 16630.385999999988,
      "d": 163.04300000000148,
      "v": 90
    },
    {
      "midi": 56,
      "hit": false,
      "t": 16793.428999999982,
      "d": 163.04300000000148,
      "v": 90
    },
    {
      "midi": 64,
      "hit": false,
      "t": 16793.42899999999,
      "d": 163.04300000000148,
      "v": 90
    },
    {
      "midi": 59,
      "hit": false,
      "t": 16956.471999999983,
      "d": 163.04300000000148,
      "v": 90
    },
    {
      "midi": 68,
      "hit": false,
      "t": 16956.47199999999,
      "d": 163.04300000000148,
      "v": 90
    },
    {
      "midi": 57,
      "hit": false,
      "t": 17119.514999999985,
      "d": 163.04300000000148,
      "v": 90
    },
    {
      "midi": 66,
      "hit": false,
      "t": 17119.514999999992,
      "d": 163.04300000000148,
      "v": 90
    },
    {
      "midi": 61,
      "hit": false,
      "t": 17282.557999999986,
      "d": 163.04300000000148,
      "v": 90
    },
    {
      "midi": 69,
      "hit": false,
      "t": 17282.557999999994,
      "d": 163.04300000000148,
      "v": 90
    },
    {
      "midi": 59,
      "hit": false,
      "t": 17445.600999999988,
      "d": 163.04300000000148,
      "v": 90
    },
    {
      "midi": 68,
      "hit": false,
      "t": 17445.600999999995,
      "d": 163.04300000000148,
      "v": 90
    },
    {
      "midi": 57,
      "hit": false,
      "t": 17608.64399999999,
      "d": 163.04300000000148,
      "v": 90
    },
    {
      "midi": 66,
      "hit": false,
      "t": 17608.643999999997,
      "d": 163.04300000000148,
      "v": 90
    },
    {
      "midi": 56,
      "hit": false,
      "t": 17771.68699999999,
      "d": 163.04300000000148,
      "v": 90
    },
    {
      "midi": 64,
      "hit": false,
      "t": 17771.686999999998,
      "d": 163.04300000000148,
      "v": 90
    },
    {
      "midi": 54,
      "hit": false,
      "t": 17934.729999999992,
      "d": 163.04300000000148,
      "v": 90
    },
    {
      "midi": 63,
      "hit": false,
      "t": 17934.73,
      "d": 163.04300000000148,
      "v": 90
    },
    {
      "midi": 52,
      "hit": false,
      "t": 18097.772999999994,
      "d": 163.04300000000148,
      "v": 90
    },
    {
      "midi": 61,
      "hit": false,
      "t": 18097.773,
      "d": 163.04300000000148,
      "v": 90
    },
    {
      "midi": 56,
      "hit": false,
      "t": 18260.815999999995,
      "d": 163.04300000000148,
      "v": 90
    },
    {
      "midi": 64,
      "hit": false,
      "t": 18260.816000000003,
      "d": 163.04300000000148,
      "v": 90
    },
    {
      "midi": 54,
      "hit": false,
      "t": 18423.858999999997,
      "d": 163.04300000000148,
      "v": 90
    },
    {
      "midi": 63,
      "hit": false,
      "t": 18423.859000000004,
      "d": 163.04300000000148,
      "v": 90
    },
    {
      "midi": 57,
      "hit": false,
      "t": 18586.902,
      "d": 163.04300000000148,
      "v": 90
    },
    {
      "midi": 66,
      "hit": false,
      "t": 18586.902000000006,
      "d": 163.04300000000148,
      "v": 90
    },
    {
      "midi": 56,
      "hit": false,
      "t": 18749.945,
      "d": 163.04300000000148,
      "v": 90
    },
    {
      "midi": 59,
      "hit": false,
      "t": 18749.945000000007,
      "d": 163.04300000000148,
      "v": 90
    },
    {
      "midi": 54,
      "hit": false,
      "t": 18912.988,
      "d": 163.04300000000148,
      "v": 90
    },
    {
      "midi": 71,
      "hit": false,
      "t": 18912.98800000001,
      "d": 326.08599999999933,
      "v": 90
    },
    {
      "midi": 52,
      "hit": false,
      "t": 19076.031000000003,
      "d": 163.04300000000148,
      "v": 90
    },
    {
      "midi": 59,
      "hit": false,
      "t": 19239.074000000004,
      "d": 326.08599999999933,
      "v": 90
    },
    {
      "midi": 68,
      "hit": false,
      "t": 19239.074000000008,
      "d": 326.08599999999933,
      "v": 90
    },
    {
      "midi": 47,
      "hit": false,
      "t": 19565.160000000003,
      "d": 326.08599999999933,
      "v": 90
    },
    {
      "midi": 66,
      "hit": false,
      "t": 19565.160000000007,
      "d": 163.04300000000148,
      "v": 90
    },
    {
      "midi": 64,
      "hit": false,
      "t": 19728.20300000001,
      "d": 163.04300000000148,
      "v": 90
    },
    {
      "midi": 52,
      "hit": false,
      "t": 19891.246000000003,
      "d": 163.04300000000148,
      "v": 90
    },
    {
      "midi": 64,
      "hit": false,
      "t": 19891.24600000001,
      "d": 978.2580000000016,
      "v": 90
    },
    {
      "midi": 51,
      "hit": false,
      "t": 20054.289000000004,
      "d": 163.04300000000148,
      "v": 90
    },
    {
      "midi": 54,
      "hit": false,
      "t": 20217.332000000006,
      "d": 163.04300000000148,
      "v": 90
    },
    {
      "midi": 52,
      "hit": false,
      "t": 20380.375000000007,
      "d": 163.04300000000148,
      "v": 90
    },
    {
      "midi": 56,
      "hit": false,
      "t": 20543.41800000001,
      "d": 163.04300000000148,
      "v": 90
    },
    {
      "midi": 54,
      "hit": false,
      "t": 20706.46100000001,
      "d": 163.04300000000148,
      "v": 90
    },
    {
      "midi": 64,
      "hit": false,
      "t": 20869.50400000001,
      "d": 326.08599999999933,
      "v": 90
    },
    {
      "midi": 52,
      "hit": false,
      "t": 20869.50400000001,
      "d": 163.04300000000148,
      "v": 90
    },
    {
      "midi": 50,
      "hit": false,
      "t": 21032.547000000013,
      "d": 163.04300000000148,
      "v": 90
    },
    {
      "midi": 69,
      "hit": false,
      "t": 21195.59000000001,
      "d": 163.04300000000148,
      "v": 90
    },
    {
      "midi": 49,
      "hit": false,
      "t": 21195.590000000015,
      "d": 326.08599999999933,
      "v": 90
    },
    {
      "midi": 68,
      "hit": false,
      "t": 21358.633000000013,
      "d": 163.04300000000148,
      "v": 90
    },
    {
      "midi": 71,
      "hit": false,
      "t": 21521.676000000014,
      "d": 163.04300000000148,
      "v": 90
    },
    {
      "midi": 47,
      "hit": false,
      "t": 21521.676000000014,
      "d": 163.04300000000148,
      "v": 90
    },
    {
      "midi": 69,
      "hit": false,
      "t": 21684.719000000016,
      "d": 163.04300000000148,
      "v": 90
    },
    {
      "midi": 49,
      "hit": false,
      "t": 21684.719000000016,
      "d": 163.04300000000148,
      "v": 90
    },
    {
      "midi": 73,
      "hit": false,
      "t": 21847.762000000017,
      "d": 163.04300000000148,
      "v": 90
    },
    {
      "midi": 45,
      "hit": false,
      "t": 21847.762000000017,
      "d": 326.08599999999933,
      "v": 90
    },
    {
      "midi": 71,
      "hit": false,
      "t": 22010.80500000002,
      "d": 163.04300000000148,
      "v": 90
    },
    {
      "midi": 69,
      "hit": false,
      "t": 22173.84800000002,
      "d": 163.04300000000148,
      "v": 90
    },
    {
      "midi": 68,
      "hit": false,
      "t": 22336.89100000002,
      "d": 163.04300000000148,
      "v": 90
    },
    {
      "midi": 52,
      "hit": false,
      "t": 22499.934000000016,
      "d": 326.08599999999933,
      "v": 90
    },
    {
      "midi": 64,
      "hit": false,
      "t": 22499.934000000023,
      "d": 978.2580000000016,
      "v": 90
    },
    {
      "midi": 47,
      "hit": false,
      "t": 22826.020000000015,
      "d": 326.08599999999933,
      "v": 90
    },
    {
      "midi": 40,
      "hit": false,
      "t": 23152.106000000014,
      "d": 326.08599999999933,
      "v": 90
    },
    {
      "midi": 64,
      "hit": false,
      "t": 23478.192000000025,
      "d": 326.08599999999933,
      "v": 90
    },
    {
      "midi": 71,
      "hit": false,
      "t": 23804.278000000024,
      "d": 163.04300000000148,
      "v": 90
    },
    {
      "midi": 69,
      "hit": false,
      "t": 23967.321000000025,
      "d": 163.04300000000148,
      "v": 90
    },
    {
      "midi": 73,
      "hit": false,
      "t": 24130.364000000027,
      "d": 163.04300000000148,
      "v": 90
    },
    {
      "midi": 71,
      "hit": false,
      "t": 24293.40700000003,
      "d": 163.04300000000148,
      "v": 90
    },
    {
      "midi": 74,
      "hit": false,
      "t": 24456.45000000003,
      "d": 163.04300000000148,
      "v": 90
    },
    {
      "midi": 73,
      "hit": false,
      "t": 24619.49300000003,
      "d": 163.04300000000148,
      "v": 90
    },
    {
      "midi": 52,
      "hit": false,
      "t": 24782.536000000015,
      "d": 326.08599999999933,
      "v": 90
    },
    {
      "midi": 76,
      "hit": false,
      "t": 24782.536000000033,
      "d": 326.08599999999933,
      "v": 90
    },
    {
      "midi": 57,
      "hit": false,
      "t": 25108.622000000014,
      "d": 163.04300000000148,
      "v": 90
    },
    {
      "midi": 73,
      "hit": false,
      "t": 25108.622000000032,
      "d": 326.08599999999933,
      "v": 90
    },
    {
      "midi": 56,
      "hit": false,
      "t": 25271.665000000015,
      "d": 163.04300000000148,
      "v": 90
    },
    {
      "midi": 59,
      "hit": false,
      "t": 25434.708000000017,
      "d": 163.04300000000148,
      "v": 90
    },
    {
      "midi": 71,
      "hit": false,
      "t": 25434.70800000003,
      "d": 163.04300000000148,
      "v": 90
    },
    {
      "midi": 57,
      "hit": false,
      "t": 25597.75100000002,
      "d": 163.04300000000148,
      "v": 90
    },
    {
      "midi": 73,
      "hit": false,
      "t": 25597.751000000033,
      "d": 163.04300000000148,
      "v": 90
    },
    {
      "midi": 61,
      "hit": false,
      "t": 25760.79400000002,
      "d": 163.04300000000148,
      "v": 90
    },
    {
      "midi": 69,
      "hit": false,
      "t": 25760.794000000034,
      "d": 163.04300000000148,
      "v": 90
    },
    {
      "midi": 59,
      "hit": false,
      "t": 25923.83700000002,
      "d": 163.04300000000148,
      "v": 90
    },
    {
      "midi": 71,
      "hit": false,
      "t": 25923.837000000036,
      "d": 163.04300000000148,
      "v": 90
    },
    {
      "midi": 64,
      "hit": false,
      "t": 26086.880000000023,
      "d": 326.08599999999933,
      "v": 90
    },
    {
      "midi": 73,
      "hit": false,
      "t": 26086.880000000037,
      "d": 163.04300000000148,
      "v": 90
    },
    {
      "midi": 74,
      "hit": false,
      "t": 26249.92300000004,
      "d": 163.04300000000148,
      "v": 90
    },
    {
      "midi": 61,
      "hit": false,
      "t": 26412.966000000022,
      "d": 326.08599999999933,
      "v": 90
    },
    {
      "midi": 76,
      "hit": false,
      "t": 26412.96600000004,
      "d": 163.04300000000148,
      "v": 90
    },
    {
      "midi": 74,
      "hit": false,
      "t": 26576.009000000042,
      "d": 163.04300000000148,
      "v": 90
    },
    {
      "midi": 59,
      "hit": false,
      "t": 26739.05200000002,
      "d": 163.04300000000148,
      "v": 90
    },
    {
      "midi": 78,
      "hit": false,
      "t": 26739.052000000043,
      "d": 163.04300000000148,
      "v": 90
    },
    {
      "midi": 61,
      "hit": false,
      "t": 26902.095000000023,
      "d": 163.04300000000148,
      "v": 90
    },
    {
      "midi": 76,
      "hit": false,
      "t": 26902.095000000045,
      "d": 163.04300000000148,
      "v": 90
    },
    {
      "midi": 57,
      "hit": false,
      "t": 27065.138000000024,
      "d": 326.08599999999933,
      "v": 90
    },
    {
      "midi": 79,
      "hit": false,
      "t": 27065.138000000046,
      "d": 163.04300000000148,
      "v": 90
    },
    {
      "midi": 78,
      "hit": false,
      "t": 27228.181000000048,
      "d": 163.04300000000148,
      "v": 90
    },
    {
      "midi": 45,
      "hit": false,
      "t": 27391.224000000024,
      "d": 326.08599999999933,
      "v": 90
    },
    {
      "midi": 81,
      "hit": false,
      "t": 27391.22400000005,
      "d": 326.08599999999933,
      "v": 90
    },
    {
      "midi": 50,
      "hit": false,
      "t": 27717.310000000023,
      "d": 163.04300000000148,
      "v": 90
    },
    {
      "midi": 78,
      "hit": false,
      "t": 27717.31000000005,
      "d": 326.08599999999933,
      "v": 90
    },
    {
      "midi": 49,
      "hit": false,
      "t": 27880.353000000025,
      "d": 163.04300000000148,
      "v": 90
    },
    {
      "midi": 52,
      "hit": false,
      "t": 28043.396000000026,
      "d": 163.04300000000148,
      "v": 90
    },
    {
      "midi": 76,
      "hit": false,
      "t": 28043.396000000048,
      "d": 163.04300000000148,
      "v": 90
    },
    {
      "midi": 50,
      "hit": false,
      "t": 28206.439000000028,
      "d": 163.04300000000148,
      "v": 90
    },
    {
      "midi": 78,
      "hit": false,
      "t": 28206.43900000005,
      "d": 163.04300000000148,
      "v": 90
    },
    {
      "midi": 54,
      "hit": false,
      "t": 28369.48200000003,
      "d": 163.04300000000148,
      "v": 90
    },
    {
      "midi": 74,
      "hit": false,
      "t": 28369.48200000005,
      "d": 326.08599999999933,
      "v": 90
    },
    {
      "midi": 50,
      "hit": false,
      "t": 28532.52500000003,
      "d": 163.04300000000148,
      "v": 90
    },
    {
      "midi": 62,
      "hit": false,
      "t": 28695.568000000032,
      "d": 326.08599999999933,
      "v": 90
    },
    {
      "midi": 78,
      "hit": false,
      "t": 28695.56800000005,
      "d": 326.08599999999933,
      "v": 90
    },
    {
      "midi": 43,
      "hit": false,
      "t": 29021.65400000003,
      "d": 652.1719999999987,
      "v": 90
    },
    {
      "midi": 78,
      "hit": false,
      "t": 29021.65400000005,
      "d": 163.04300000000148,
      "v": 90
    },
    {
      "midi": 74,
      "hit": false,
      "t": 29184.69700000005,
      "d": 163.04300000000148,
      "v": 90
    },
    {
      "midi": 73,
      "hit": false,
      "t": 29347.740000000053,
      "d": 163.04300000000148,
      "v": 90
    },
    {
      "midi": 71,
      "hit": false,
      "t": 29510.783000000054,
      "d": 163.04300000000148,
      "v": 90
    },
    {
      "midi": 74,
      "hit": false,
      "t": 29673.826000000056,
      "d": 163.04300000000148,
      "v": 90
    },
    {
      "midi": 73,
      "hit": false,
      "t": 29836.869000000057,
      "d": 163.04300000000148,
      "v": 90
    },
    {
      "midi": 61,
      "hit": false,
      "t": 29999.91200000003,
      "d": 326.08599999999933,
      "v": 90
    },
    {
      "midi": 76,
      "hit": false,
      "t": 29999.91200000006,
      "d": 163.04300000000148,
      "v": 90
    },
    {
      "midi": 74,
      "hit": false,
      "t": 30162.95500000006,
      "d": 163.04300000000148,
      "v": 90
    },
    {
      "midi": 42,
      "hit": false,
      "t": 30325.99800000003,
      "d": 652.1719999999987,
      "v": 90
    },
    {
      "midi": 76,
      "hit": false,
      "t": 30325.99800000006,
      "d": 163.04300000000148,
      "v": 90
    },
    {
      "midi": 73,
      "hit": false,
      "t": 30489.041000000063,
      "d": 163.04300000000148,
      "v": 90
    },
    {
      "midi": 71,
      "hit": false,
      "t": 30652.084000000064,
      "d": 163.04300000000148,
      "v": 90
    },
    {
      "midi": 70,
      "hit": false,
      "t": 30815.127000000066,
      "d": 163.04300000000148,
      "v": 90
    },
    {
      "midi": 73,
      "hit": false,
      "t": 30978.170000000067,
      "d": 163.04300000000148,
      "v": 90
    },
    {
      "midi": 71,
      "hit": false,
      "t": 31141.21300000007,
      "d": 163.04300000000148,
      "v": 90
    },
    {
      "midi": 59,
      "hit": false,
      "t": 31304.256000000027,
      "d": 326.08599999999933,
      "v": 90
    },
    {
      "midi": 74,
      "hit": false,
      "t": 31304.25600000007,
      "d": 163.04300000000148,
      "v": 90
    },
    {
      "midi": 73,
      "hit": false,
      "t": 31467.299000000072,
      "d": 163.04300000000148,
      "v": 90
    },
    {
      "midi": 55,
      "hit": false,
      "t": 31630.342000000026,
      "d": 326.08599999999933,
      "v": 90
    },
    {
      "midi": 76,
      "hit": false,
      "t": 31630.342000000073,
      "d": 163.04300000000148,
      "v": 90
    },
    {
      "midi": 74,
      "hit": false,
      "t": 31793.385000000075,
      "d": 163.04300000000148,
      "v": 90
    },
    {
      "midi": 50,
      "hit": false,
      "t": 31956.428000000025,
      "d": 326.08599999999933,
      "v": 90
    },
    {
      "midi": 73,
      "hit": false,
      "t": 31956.428000000076,
      "d": 163.04300000000148,
      "v": 90
    },
    {
      "midi": 71,
      "hit": false,
      "t": 32119.471000000078,
      "d": 163.04300000000148,
      "v": 90
    },
    {
      "midi": 52,
      "hit": false,
      "t": 32282.514000000025,
      "d": 326.08599999999933,
      "v": 90
    },
    {
      "midi": 74,
      "hit": false,
      "t": 32282.51400000008,
      "d": 163.04300000000148,
      "v": 90
    },
    {
      "midi": 73,
      "hit": false,
      "t": 32445.55700000008,
      "d": 163.04300000000148,
      "v": 90
    },
    {
      "midi": 54,
      "hit": false,
      "t": 32608.600000000024,
      "d": 326.08599999999933,
      "v": 90
    },
    {
      "midi": 71,
      "hit": false,
      "t": 32608.600000000082,
      "d": 163.04300000000148,
      "v": 90
    },
    {
      "midi": 70,
      "hit": false,
      "t": 32771.643000000084,
      "d": 163.04299999999785,
      "v": 90
    },
    {
      "midi": 47,
      "hit": false,
      "t": 32934.68600000002,
      "d": 163.04299999999785,
      "v": 90
    },
    {
      "midi": 71,
      "hit": false,
      "t": 32934.68600000008,
      "d": 978.2580000000016,
      "v": 90
    },
    {
      "midi": 46,
      "hit": false,
      "t": 33097.72900000002,
      "d": 163.04299999999785,
      "v": 90
    },
    {
      "midi": 49,
      "hit": false,
      "t": 33260.77200000002,
      "d": 163.04299999999785,
      "v": 90
    },
    {
      "midi": 47,
      "hit": false,
      "t": 33423.81500000002,
      "d": 163.04299999999785,
      "v": 90
    },
    {
      "midi": 50,
      "hit": false,
      "t": 33586.858000000015,
      "d": 163.04299999999785,
      "v": 90
    },
    {
      "midi": 49,
      "hit": false,
      "t": 33749.90100000001,
      "d": 163.04299999999785,
      "v": 90
    },
    {
      "midi": 52,
      "hit": false,
      "t": 33912.94400000001,
      "d": 326.08600000000297,
      "v": 90
    },
    {
      "midi": 71,
      "hit": false,
      "t": 33912.94400000008,
      "d": 326.08600000000297,
      "v": 90
    },
    {
      "midi": 51,
      "hit": false,
      "t": 34239.03000000001,
      "d": 652.1719999999987,
      "v": 90
    },
    {
      "midi": 78,
      "hit": false,
      "t": 34239.030000000086,
      "d": 163.04299999999785,
      "v": 90
    },
    {
      "midi": 76,
      "hit": false,
      "t": 34402.073000000084,
      "d": 163.04299999999785,
      "v": 90
    },
    {
      "midi": 80,
      "hit": false,
      "t": 34565.11600000008,
      "d": 163.04299999999785,
      "v": 90
    },
    {
      "midi": 78,
      "hit": false,
      "t": 34728.15900000008,
      "d": 163.04299999999785,
      "v": 90
    },
    {
      "midi": 81,
      "hit": false,
      "t": 34891.20200000008,
      "d": 163.04299999999785,
      "v": 90
    },
    {
      "midi": 80,
      "hit": false,
      "t": 35054.245000000075,
      "d": 163.04299999999785,
      "v": 90
    },
    {
      "midi": 47,
      "hit": false,
      "t": 35217.288000000015,
      "d": 326.08600000000297,
      "v": 90
    },
    {
      "midi": 83,
      "hit": false,
      "t": 35217.28800000007,
      "d": 326.08600000000297,
      "v": 90
    },
    {
      "midi": 52,
      "hit": false,
      "t": 35543.37400000002,
      "d": 163.04299999999785,
      "v": 90
    },
    {
      "midi": 80,
      "hit": false,
      "t": 35543.374000000076,
      "d": 326.08600000000297,
      "v": 90
    },
    {
      "midi": 51,
      "hit": false,
      "t": 35706.417000000016,
      "d": 163.04299999999785,
      "v": 90
    },
    {
      "midi": 54,
      "hit": false,
      "t": 35869.460000000014,
      "d": 163.04299999999785,
      "v": 90
    },
    {
      "midi": 78,
      "hit": false,
      "t": 35869.46000000008,
      "d": 163.04299999999785,
      "v": 90
    },
    {
      "midi": 52,
      "hit": false,
      "t": 36032.50300000001,
      "d": 163.04299999999785,
      "v": 90
    },
    {
      "midi": 80,
      "hit": false,
      "t": 36032.50300000008,
      "d": 163.04299999999785,
      "v": 90
    },
    {
      "midi": 56,
      "hit": false,
      "t": 36195.54600000001,
      "d": 163.04299999999785,
      "v": 90
    },
    {
      "midi": 76,
      "hit": false,
      "t": 36195.546000000075,
      "d": 326.08600000000297,
      "v": 90
    },
    {
      "midi": 54,
      "hit": false,
      "t": 36358.58900000001,
      "d": 163.04299999999785,
      "v": 90
    },
    {
      "midi": 57,
      "hit": false,
      "t": 36521.632000000005,
      "d": 326.08600000000297,
      "v": 90
    },
    {
      "midi": 64,
      "hit": false,
      "t": 36521.63200000008,
      "d": 326.08600000000297,
      "v": 90
    },
    {
      "midi": 56,
      "hit": false,
      "t": 36847.71800000001,
      "d": 652.1719999999987,
      "v": 90
    },
    {
      "midi": 71,
      "hit": false,
      "t": 36847.71800000008,
      "d": 163.04299999999785,
      "v": 90
    },
    {
      "midi": 69,
      "hit": false,
      "t": 37010.76100000008,
      "d": 163.04299999999785,
      "v": 90
    },
    {
      "midi": 73,
      "hit": false,
      "t": 37173.80400000008,
      "d": 163.04299999999785,
      "v": 90
    },
    {
      "midi": 71,
      "hit": false,
      "t": 37336.847000000074,
      "d": 163.04299999999785,
      "v": 90
    },
    {
      "midi": 74,
      "hit": false,
      "t": 37499.89000000007,
      "d": 163.04299999999785,
      "v": 90
    },
    {
      "midi": 73,
      "hit": false,
      "t": 37662.93300000007,
      "d": 163.04299999999785,
      "v": 90
    },
    {
      "midi": 52,
      "hit": false,
      "t": 37825.97600000001,
      "d": 326.08600000000297,
      "v": 90
    },
    {
      "midi": 76,
      "hit": false,
      "t": 37825.97600000007,
      "d": 326.08600000000297,
      "v": 90
    },
    {
      "midi": 57,
      "hit": false,
      "t": 38152.06200000001,
      "d": 163.04299999999785,
      "v": 90
    },
    {
      "midi": 73,
      "hit": false,
      "t": 38152.06200000007,
      "d": 326.08600000000297,
      "v": 90
    },
    {
      "midi": 56,
      "hit": false,
      "t": 38315.10500000001,
      "d": 163.04299999999785,
      "v": 90
    },
    {
      "midi": 59,
      "hit": false,
      "t": 38478.14800000001,
      "d": 163.04299999999785,
      "v": 90
    },
    {
      "midi": 71,
      "hit": false,
      "t": 38478.148000000074,
      "d": 163.04299999999785,
      "v": 90
    },
    {
      "midi": 57,
      "hit": false,
      "t": 38641.191000000006,
      "d": 163.04299999999785,
      "v": 90
    },
    {
      "midi": 73,
      "hit": false,
      "t": 38641.19100000007,
      "d": 163.04299999999785,
      "v": 90
    },
    {
      "midi": 61,
      "hit": false,
      "t": 38804.234000000004,
      "d": 163.04299999999785,
      "v": 90
    },
    {
      "midi": 69,
      "hit": false,
      "t": 38804.23400000007,
      "d": 163.04299999999785,
      "v": 90
    },
    {
      "midi": 59,
      "hit": false,
      "t": 38967.277,
      "d": 163.04299999999785,
      "v": 90
    },
    {
      "midi": 71,
      "hit": false,
      "t": 38967.27700000007,
      "d": 163.04299999999785,
      "v": 90
    },
    {
      "midi": 64,
      "hit": false,
      "t": 39130.32,
      "d": 326.08600000000297,
      "v": 90
    },
    {
      "midi": 73,
      "hit": false,
      "t": 39130.320000000065,
      "d": 163.04299999999785,
      "v": 90
    },
    {
      "midi": 74,
      "hit": false,
      "t": 39293.36300000006,
      "d": 163.04299999999785,
      "v": 90
    },
    {
      "midi": 61,
      "hit": false,
      "t": 39456.406,
      "d": 326.08600000000297,
      "v": 90
    },
    {
      "midi": 76,
      "hit": false,
      "t": 39456.40600000006,
      "d": 163.04299999999785,
      "v": 90
    },
    {
      "midi": 73,
      "hit": false,
      "t": 39619.44900000006,
      "d": 163.04299999999785,
      "v": 90
    },
    {
      "midi": 62,
      "hit": false,
      "t": 39782.492000000006,
      "d": 326.08600000000297,
      "v": 90
    },
    {
      "midi": 71,
      "hit": false,
      "t": 39782.49200000006,
      "d": 163.04299999999785,
      "v": 90
    },
    {
      "midi": 69,
      "hit": false,
      "t": 39945.535000000054,
      "d": 163.04299999999785,
      "v": 90
    },
    {
      "midi": 61,
      "hit": false,
      "t": 40108.57800000001,
      "d": 326.08600000000297,
      "v": 90
    },
    {
      "midi": 76,
      "hit": false,
      "t": 40108.57800000005,
      "d": 163.04299999999785,
      "v": 90
    },
    {
      "midi": 74,
      "hit": false,
      "t": 40271.62100000005,
      "d": 163.04299999999785,
      "v": 90
    },
    {
      "midi": 59,
      "hit": false,
      "t": 40434.66400000001,
      "d": 326.08600000000297,
      "v": 90
    },
    {
      "midi": 78,
      "hit": false,
      "t": 40434.66400000005,
      "d": 163.04299999999785,
      "v": 90
    },
    {
      "midi": 76,
      "hit": false,
      "t": 40597.707000000046,
      "d": 163.04299999999785,
      "v": 90
    },
    {
      "midi": 57,
      "hit": false,
      "t": 40760.750000000015,
      "d": 326.08600000000297,
      "v": 90
    },
    {
      "midi": 79,
      "hit": false,
      "t": 40760.750000000044,
      "d": 163.04299999999785,
      "v": 90
    },
    {
      "midi": 73,
      "hit": false,
      "t": 40923.79300000004,
      "d": 163.04299999999785,
      "v": 90
    },
    {
      "midi": 57,
      "hit": false,
      "t": 41086.83600000002,
      "d": 326.08600000000297,
      "v": 90
    },
    {
      "midi": 71,
      "hit": false,
      "t": 41086.83600000004,
      "d": 163.04299999999785,
      "v": 90
    },
    {
      "midi": 69,
      "hit": false,
      "t": 41249.87900000004,
      "d": 163.04299999999785,
      "v": 90
    },
    {
      "midi": 57,
      "hit": false,
      "t": 41412.92200000002,
      "d": 326.08600000000297,
      "v": 90
    },
    {
      "midi": 74,
      "hit": false,
      "t": 41412.922000000035,
      "d": 163.04299999999785,
      "v": 90
    },
    {
      "midi": 73,
      "hit": false,
      "t": 41575.96500000003,
      "d": 163.04299999999785,
      "v": 90
    },
    {
      "midi": 57,
      "hit": false,
      "t": 41739.00800000002,
      "d": 326.08600000000297,
      "v": 90
    },
    {
      "midi": 76,
      "hit": false,
      "t": 41739.00800000003,
      "d": 163.04299999999785,
      "v": 90
    },
    {
      "midi": 74,
      "hit": false,
      "t": 41902.05100000003,
      "d": 163.04299999999785,
      "v": 90
    },
    {
      "midi": 78,
      "hit": false,
      "t": 42065.09400000003,
      "d": 163.04299999999785,
      "v": 90
    },
    {
      "midi": 57,
      "hit": false,
      "t": 42065.09400000003,
      "d": 326.08600000000297,
      "v": 90
    },
    {
      "midi": 73,
      "hit": false,
      "t": 42228.137000000024,
      "d": 163.04299999999785,
      "v": 90
    },
    {
      "midi": 71,
      "hit": false,
      "t": 42391.18000000002,
      "d": 163.04299999999785,
      "v": 90
    },
    {
      "midi": 57,
      "hit": false,
      "t": 42391.18000000003,
      "d": 326.08600000000297,
      "v": 90
    },
    {
      "midi": 69,
      "hit": false,
      "t": 42554.22300000002,
      "d": 163.04299999999785,
      "v": 90
    },
    {
      "midi": 76,
      "hit": false,
      "t": 42717.26600000002,
      "d": 163.04299999999785,
      "v": 90
    },
    {
      "midi": 57,
      "hit": false,
      "t": 42717.26600000003,
      "d": 326.08600000000297,
      "v": 90
    },
    {
      "midi": 74,
      "hit": false,
      "t": 42880.309000000016,
      "d": 163.04299999999785,
      "v": 90
    },
    {
      "midi": 78,
      "hit": false,
      "t": 43043.35200000001,
      "d": 163.04299999999785,
      "v": 90
    },
    {
      "midi": 57,
      "hit": false,
      "t": 43043.352000000035,
      "d": 326.08600000000297,
      "v": 90
    },
    {
      "midi": 76,
      "hit": false,
      "t": 43206.39500000001,
      "d": 163.04299999999785,
      "v": 90
    },
    {
      "midi": 79,
      "hit": false,
      "t": 43369.43800000001,
      "d": 163.04299999999785,
      "v": 90
    },
    {
      "midi": 57,
      "hit": false,
      "t": 43369.43800000004,
      "d": 326.08600000000297,
      "v": 90
    },
    {
      "midi": 73,
      "hit": false,
      "t": 43532.48100000001,
      "d": 163.04299999999785,
      "v": 90
    },
    {
      "midi": 71,
      "hit": false,
      "t": 43695.524000000005,
      "d": 163.04299999999785,
      "v": 90
    },
    {
      "midi": 55,
      "hit": false,
      "t": 43695.52400000004,
      "d": 326.08600000000297,
      "v": 90
    },
    {
      "midi": 69,
      "hit": false,
      "t": 43858.567,
      "d": 163.04299999999785,
      "v": 90
    },
    {
      "midi": 74,
      "hit": false,
      "t": 44021.61,
      "d": 163.04299999999785,
      "v": 90
    },
    {
      "midi": 54,
      "hit": false,
      "t": 44021.610000000044,
      "d": 326.08600000000297,
      "v": 90
    },
    {
      "midi": 73,
      "hit": false,
      "t": 44184.653,
      "d": 163.04299999999785,
      "v": 90
    },
    {
      "midi": 76,
      "hit": false,
      "t": 44347.695999999996,
      "d": 163.04299999999785,
      "v": 90
    },
    {
      "midi": 52,
      "hit": false,
      "t": 44347.69600000005,
      "d": 326.08600000000297,
      "v": 90
    },
    {
      "midi": 74,
      "hit": false,
      "t": 44510.738999999994,
      "d": 163.04299999999785,
      "v": 90
    },
    {
      "midi": 78,
      "hit": false,
      "t": 44673.78199999999,
      "d": 163.04299999999785,
      "v": 90
    },
    {
      "midi": 50,
      "hit": false,
      "t": 44673.78200000005,
      "d": 326.08600000000297,
      "v": 90
    },
    {
      "midi": 74,
      "hit": false,
      "t": 44836.82499999999,
      "d": 163.04299999999785,
      "v": 90
    },
    {
      "midi": 73,
      "hit": false,
      "t": 44999.86799999999,
      "d": 163.04299999999785,
      "v": 90
    },
    {
      "midi": 52,
      "hit": false,
      "t": 44999.86800000005,
      "d": 326.08600000000297,
      "v": 90
    },
    {
      "midi": 71,
      "hit": false,
      "t": 45162.910999999986,
      "d": 163.04299999999785,
      "v": 90
    },
    {
      "midi": 78,
      "hit": false,
      "t": 45325.95399999998,
      "d": 163.04299999999785,
      "v": 90
    },
    {
      "midi": 50,
      "hit": false,
      "t": 45325.954000000056,
      "d": 326.08600000000297,
      "v": 90
    },
    {
      "midi": 76,
      "hit": false,
      "t": 45488.99699999998,
      "d": 163.04299999999785,
      "v": 90
    },
    {
      "midi": 80,
      "hit": false,
      "t": 45652.03999999998,
      "d": 163.04299999999785,
      "v": 90
    },
    {
      "midi": 49,
      "hit": false,
      "t": 45652.04000000006,
      "d": 326.08600000000297,
      "v": 90
    },
    {
      "midi": 78,
      "hit": false,
      "t": 45815.08299999998,
      "d": 163.04299999999785,
      "v": 90
    },
    {
      "midi": 81,
      "hit": false,
      "t": 45978.125999999975,
      "d": 163.04299999999785,
      "v": 90
    },
    {
      "midi": 47,
      "hit": false,
      "t": 45978.12600000006,
      "d": 326.08600000000297,
      "v": 90
    },
    {
      "midi": 75,
      "hit": false,
      "t": 46141.16899999997,
      "d": 163.04299999999785,
      "v": 90
    },
    {
      "midi": 73,
      "hit": false,
      "t": 46304.21199999997,
      "d": 163.04299999999785,
      "v": 90
    },
    {
      "midi": 47,
      "hit": false,
      "t": 46304.212000000065,
      "d": 326.08600000000297,
      "v": 90
    },
    {
      "midi": 71,
      "hit": false,
      "t": 46467.25499999997,
      "d": 163.04299999999785,
      "v": 90
    },
    {
      "midi": 76,
      "hit": false,
      "t": 46630.297999999966,
      "d": 163.04299999999785,
      "v": 90
    },
    {
      "midi": 47,
      "hit": false,
      "t": 46630.29800000007,
      "d": 326.08600000000297,
      "v": 90
    },
    {
      "midi": 75,
      "hit": false,
      "t": 46793.340999999964,
      "d": 163.04299999999785,
      "v": 90
    },
    {
      "midi": 78,
      "hit": false,
      "t": 46956.38399999996,
      "d": 163.04299999999785,
      "v": 90
    },
    {
      "midi": 47,
      "hit": false,
      "t": 46956.38400000007,
      "d": 326.08600000000297,
      "v": 90
    },
    {
      "midi": 76,
      "hit": false,
      "t": 47119.42699999996,
      "d": 163.04299999999785,
      "v": 90
    },
    {
      "midi": 80,
      "hit": false,
      "t": 47282.46999999996,
      "d": 163.04299999999785,
      "v": 90
    },
    {
      "midi": 47,
      "hit": false,
      "t": 47282.470000000074,
      "d": 326.08600000000297,
      "v": 90
    },
    {
      "midi": 75,
      "hit": false,
      "t": 47445.512999999955,
      "d": 163.04299999999785,
      "v": 90
    },
    {
      "midi": 73,
      "hit": false,
      "t": 47608.55599999995,
      "d": 163.04299999999785,
      "v": 90
    },
    {
      "midi": 47,
      "hit": false,
      "t": 47608.55600000008,
      "d": 326.08600000000297,
      "v": 90
    },
    {
      "midi": 71,
      "hit": false,
      "t": 47771.59899999995,
      "d": 163.04299999999785,
      "v": 90
    },
    {
      "midi": 78,
      "hit": false,
      "t": 47934.64199999995,
      "d": 163.04299999999785,
      "v": 90
    },
    {
      "midi": 47,
      "hit": false,
      "t": 47934.64200000008,
      "d": 326.08600000000297,
      "v": 90
    },
    {
      "midi": 76,
      "hit": false,
      "t": 48097.68499999995,
      "d": 163.04299999999785,
      "v": 90
    },
    {
      "midi": 80,
      "hit": false,
      "t": 48260.727999999945,
      "d": 163.04299999999785,
      "v": 90
    },
    {
      "midi": 47,
      "hit": false,
      "t": 48260.72800000008,
      "d": 326.08600000000297,
      "v": 90
    },
    {
      "midi": 78,
      "hit": false,
      "t": 48423.77099999994,
      "d": 163.04299999999785,
      "v": 90
    },
    {
      "midi": 81,
      "hit": false,
      "t": 48586.81399999994,
      "d": 163.04299999999785,
      "v": 90
    },
    {
      "midi": 47,
      "hit": false,
      "t": 48586.814000000086,
      "d": 326.08600000000297,
      "v": 90
    },
    {
      "midi": 75,
      "hit": false,
      "t": 48749.85699999994,
      "d": 163.04299999999785,
      "v": 90
    },
    {
      "midi": 73,
      "hit": false,
      "t": 48912.899999999936,
      "d": 163.04299999999785,
      "v": 90
    },
    {
      "midi": 45,
      "hit": false,
      "t": 48912.90000000009,
      "d": 326.08600000000297,
      "v": 90
    },
    {
      "midi": 71,
      "hit": false,
      "t": 49075.942999999934,
      "d": 163.04299999999785,
      "v": 90
    },
    {
      "midi": 76,
      "hit": false,
      "t": 49238.98599999993,
      "d": 163.04299999999785,
      "v": 90
    },
    {
      "midi": 44,
      "hit": false,
      "t": 49238.98600000009,
      "d": 326.08600000000297,
      "v": 90
    },
    {
      "midi": 75,
      "hit": false,
      "t": 49402.02899999993,
      "d": 163.04299999999785,
      "v": 90
    },
    {
      "midi": 78,
      "hit": false,
      "t": 49565.07199999993,
      "d": 163.04299999999785,
      "v": 90
    },
    {
      "midi": 42,
      "hit": false,
      "t": 49565.072000000095,
      "d": 326.08600000000297,
      "v": 90
    },
    {
      "midi": 76,
      "hit": false,
      "t": 49728.114999999925,
      "d": 163.04299999999785,
      "v": 90
    },
    {
      "midi": 80,
      "hit": false,
      "t": 49891.15799999992,
      "d": 163.04299999999785,
      "v": 90
    },
    {
      "midi": 40,
      "hit": false,
      "t": 49891.1580000001,
      "d": 326.08600000000297,
      "v": 90
    },
    {
      "midi": 78,
      "hit": false,
      "t": 50054.20099999992,
      "d": 163.04299999999785,
      "v": 90
    },
    {
      "midi": 76,
      "hit": false,
      "t": 50217.24399999992,
      "d": 163.04299999999785,
      "v": 90
    },
    {
      "midi": 40,
      "hit": false,
      "t": 50217.2440000001,
      "d": 326.08600000000297,
      "v": 90
    },
    {
      "midi": 78,
      "hit": false,
      "t": 50380.28699999992,
      "d": 163.04299999999785,
      "v": 90
    },
    {
      "midi": 80,
      "hit": false,
      "t": 50543.329999999914,
      "d": 163.04299999999785,
      "v": 90
    },
    {
      "midi": 40,
      "hit": false,
      "t": 50543.3300000001,
      "d": 326.08600000000297,
      "v": 90
    },
    {
      "midi": 78,
      "hit": false,
      "t": 50706.37299999991,
      "d": 163.04299999999785,
      "v": 90
    },
    {
      "midi": 81,
      "hit": false,
      "t": 50869.41599999991,
      "d": 163.04299999999785,
      "v": 90
    },
    {
      "midi": 40,
      "hit": false,
      "t": 50869.41600000011,
      "d": 326.08600000000297,
      "v": 90
    },
    {
      "midi": 80,
      "hit": false,
      "t": 51032.45899999991,
      "d": 163.04299999999785,
      "v": 90
    },
    {
      "midi": 83,
      "hit": false,
      "t": 51195.501999999906,
      "d": 163.04299999999785,
      "v": 90
    },
    {
      "midi": 38,
      "hit": false,
      "t": 51195.50200000011,
      "d": 326.08600000000297,
      "v": 90
    },
    {
      "midi": 81,
      "hit": false,
      "t": 51358.544999999904,
      "d": 163.04299999999785,
      "v": 90
    },
    {
      "midi": 80,
      "hit": false,
      "t": 51521.5879999999,
      "d": 163.04299999999785,
      "v": 90
    },
    {
      "midi": 38,
      "hit": false,
      "t": 51521.58800000011,
      "d": 326.08600000000297,
      "v": 90
    },
    {
      "midi": 78,
      "hit": false,
      "t": 51684.6309999999,
      "d": 163.04299999999785,
      "v": 90
    },
    {
      "midi": 81,
      "hit": false,
      "t": 51847.6739999999,
      "d": 163.04299999999785,
      "v": 90
    },
    {
      "midi": 38,
      "hit": false,
      "t": 51847.674000000115,
      "d": 326.08600000000297,
      "v": 90
    },
    {
      "midi": 80,
      "hit": false,
      "t": 52010.716999999895,
      "d": 163.04299999999785,
      "v": 90
    },
    {
      "midi": 78,
      "hit": false,
      "t": 52173.75999999989,
      "d": 163.04299999999785,
      "v": 90
    },
    {
      "midi": 50,
      "hit": false,
      "t": 52173.76000000012,
      "d": 326.08600000000297,
      "v": 90
    },
    {
      "midi": 76,
      "hit": false,
      "t": 52336.80299999989,
      "d": 163.04299999999785,
      "v": 90
    },
    {
      "midi": 81,
      "hit": false,
      "t": 52499.84599999989,
      "d": 489.1290000000008,
      "v": 90
    },
    {
      "midi": 49,
      "hit": false,
      "t": 52499.84600000012,
      "d": 326.08600000000297,
      "v": 90
    },
    {
      "midi": 50,
      "hit": false,
      "t": 52825.932000000124,
      "d": 326.08600000000297,
      "v": 90
    },
    {
      "midi": 83,
      "hit": false,
      "t": 52988.97499999989,
      "d": 163.04299999999785,
      "v": 90
    },
    {
      "midi": 80,
      "hit": false,
      "t": 53152.01799999989,
      "d": 326.08600000000297,
      "v": 90
    },
    {
      "midi": 52,
      "hit": false,
      "t": 53152.01800000013,
      "d": 326.08600000000297,
      "v": 90
    },
    {
      "midi": 40,
      "hit": false,
      "t": 53478.10400000013,
      "d": 326.08600000000297,
      "v": 90
    },
    {
      "midi": 81,
      "hit": false,
      "t": 53641.14699999989,
      "d": 163.04299999999785,
      "v": 90
    },
    {
      "midi": 81,
      "hit": false,
      "t": 53804.189999999886,
      "d": 978.2580000000016,
      "v": 90
    },
    {
      "midi": 45,
      "hit": false,
      "t": 53804.19000000013,
      "d": 163.04299999999785,
      "v": 90
    },
    {
      "midi": 52,
      "hit": false,
      "t": 53967.23300000013,
      "d": 163.04299999999785,
      "v": 90
    },
    {
      "midi": 54,
      "hit": false,
      "t": 54130.27600000013,
      "d": 163.04299999999785,
      "v": 90
    },
    {
      "midi": 56,
      "hit": false,
      "t": 54293.31900000013,
      "d": 163.04299999999785,
      "v": 90
    },
    {
      "midi": 57,
      "hit": false,
      "t": 54456.362000000125,
      "d": 163.04299999999785,
      "v": 90
    },
    {
      "midi": 59,
      "hit": false,
      "t": 54619.40500000012,
      "d": 163.04299999999785,
      "v": 90
    },
    {
      "midi": 76,
      "hit": false,
      "t": 54782.44799999989,
      "d": 326.08600000000297,
      "v": 90
    },
    {
      "midi": 61,
      "hit": false,
      "t": 54782.44800000012,
      "d": 326.08600000000297,
      "v": 90
    },
    {
      "midi": 76,
      "hit": false,
      "t": 55108.53399999989,
      "d": 163.04299999999785,
      "v": 90
    },
    {
      "midi": 42,
      "hit": false,
      "t": 55108.53400000012,
      "d": 652.1719999999987,
      "v": 90
    },
    {
      "midi": 73,
      "hit": false,
      "t": 55271.57699999989,
      "d": 163.04299999999785,
      "v": 90
    },
    {
      "midi": 71,
      "hit": false,
      "t": 55434.619999999886,
      "d": 163.04299999999785,
      "v": 90
    },
    {
      "midi": 69,
      "hit": false,
      "t": 55597.662999999884,
      "d": 163.04299999999785,
      "v": 90
    },
    {
      "midi": 73,
      "hit": false,
      "t": 55760.70599999988,
      "d": 163.04299999999785,
      "v": 90
    },
    {
      "midi": 71,
      "hit": false,
      "t": 55923.74899999988,
      "d": 163.04299999999785,
      "v": 90
    },
    {
      "midi": 74,
      "hit": false,
      "t": 56086.79199999988,
      "d": 163.04299999999785,
      "v": 90
    },
    {
      "midi": 59,
      "hit": false,
      "t": 56086.792000000125,
      "d": 326.08600000000297,
      "v": 90
    },
    {
      "midi": 73,
      "hit": false,
      "t": 56249.834999999875,
      "d": 163.04299999999785,
      "v": 90
    },
    {
      "midi": 74,
      "hit": false,
      "t": 56412.87799999987,
      "d": 163.04299999999785,
      "v": 90
    },
    {
      "midi": 40,
      "hit": false,
      "t": 56412.87800000013,
      "d": 652.1719999999987,
      "v": 90
    },
    {
      "midi": 71,
      "hit": false,
      "t": 56575.92099999987,
      "d": 163.04299999999785,
      "v": 90
    },
    {
      "midi": 69,
      "hit": false,
      "t": 56738.96399999987,
      "d": 163.04299999999785,
      "v": 90
    },
    {
      "midi": 68,
      "hit": false,
      "t": 56902.00699999987,
      "d": 163.04299999999785,
      "v": 90
    },
    {
      "midi": 71,
      "hit": false,
      "t": 57065.049999999865,
      "d": 163.04299999999785,
      "v": 90
    },
    {
      "midi": 69,
      "hit": false,
      "t": 57228.09299999986,
      "d": 163.04299999999785,
      "v": 90
    },
    {
      "midi": 73,
      "hit": false,
      "t": 57391.13599999986,
      "d": 163.04299999999785,
      "v": 90
    },
    {
      "midi": 57,
      "hit": false,
      "t": 57391.13600000013,
      "d": 326.08600000000297,
      "v": 90
    },
    {
      "midi": 71,
      "hit": false,
      "t": 57554.17899999986,
      "d": 163.04299999999785,
      "v": 90
    },
    {
      "midi": 74,
      "hit": false,
      "t": 57717.221999999856,
      "d": 163.04299999999785,
      "v": 90
    },
    {
      "midi": 54,
      "hit": false,
      "t": 57717.22200000013,
      "d": 326.08600000000297,
      "v": 90
    },
    {
      "midi": 73,
      "hit": false,
      "t": 57880.264999999854,
      "d": 163.04299999999785,
      "v": 90
    },
    {
      "midi": 71,
      "hit": false,
      "t": 58043.30799999985,
      "d": 163.04299999999785,
      "v": 90
    },
    {
      "midi": 49,
      "hit": false,
      "t": 58043.308000000136,
      "d": 326.08600000000297,
      "v": 90
    },
    {
      "midi": 69,
      "hit": false,
      "t": 58206.35099999985,
      "d": 163.04299999999785,
      "v": 90
    },
    {
      "midi": 73,
      "hit": false,
      "t": 58369.39399999985,
      "d": 163.04299999999785,
      "v": 90
    },
    {
      "midi": 50,
      "hit": false,
      "t": 58369.39400000014,
      "d": 326.08600000000297,
      "v": 90
    },
    {
      "midi": 71,
      "hit": false,
      "t": 58532.436999999845,
      "d": 163.04299999999785,
      "v": 90
    },
    {
      "midi": 69,
      "hit": false,
      "t": 58695.47999999984,
      "d": 163.04299999999785,
      "v": 90
    },
    {
      "midi": 52,
      "hit": false,
      "t": 58695.48000000014,
      "d": 326.08600000000297,
      "v": 90
    },
    {
      "midi": 68,
      "hit": false,
      "t": 58858.52299999984,
      "d": 163.04299999999785,
      "v": 90
    },
    {
      "midi": 69,
      "hit": false,
      "t": 59021.56599999984,
      "d": 163.04299999999785,
      "v": 90
    },
    {
      "midi": 45,
      "hit": false,
      "t": 59021.566000000144,
      "d": 163.04299999999785,
      "v": 90
    },
    {
      "midi": 64,
      "hit": false,
      "t": 59184.60899999984,
      "d": 163.04299999999785,
      "v": 90
    },
    {
      "midi": 44,
      "hit": false,
      "t": 59184.60900000014,
      "d": 163.04299999999785,
      "v": 90
    },
    {
      "midi": 66,
      "hit": false,
      "t": 59347.651999999835,
      "d": 163.04299999999785,
      "v": 90
    },
    {
      "midi": 45,
      "hit": false,
      "t": 59347.65200000014,
      "d": 163.04299999999785,
      "v": 90
    },
    {
      "midi": 68,
      "hit": false,
      "t": 59510.69499999983,
      "d": 163.04299999999785,
      "v": 90
    },
    {
      "midi": 47,
      "hit": false,
      "t": 59510.69500000014,
      "d": 163.04299999999785,
      "v": 90
    },
    {
      "midi": 69,
      "hit": false,
      "t": 59673.73799999983,
      "d": 163.04299999999785,
      "v": 90
    },
    {
      "midi": 49,
      "hit": false,
      "t": 59673.738000000136,
      "d": 163.04299999999785,
      "v": 90
    },
    {
      "midi": 71,
      "hit": false,
      "t": 59836.78099999983,
      "d": 163.04299999999785,
      "v": 90
    },
    {
      "midi": 50,
      "hit": false,
      "t": 59836.781000000134,
      "d": 163.04299999999785,
      "v": 90
    },
    {
      "midi": 73,
      "hit": false,
      "t": 59999.823999999826,
      "d": 163.04299999999785,
      "v": 90
    },
    {
      "midi": 52,
      "hit": false,
      "t": 59999.82400000013,
      "d": 163.04299999999785,
      "v": 90
    },
    {
      "midi": 74,
      "hit": false,
      "t": 60162.866999999824,
      "d": 163.04299999999785,
      "v": 90
    },
    {
      "midi": 49,
      "hit": false,
      "t": 60162.86700000013,
      "d": 163.04299999999785,
      "v": 90
    },
    {
      "midi": 76,
      "hit": false,
      "t": 60325.90999999982,
      "d": 163.04299999999785,
      "v": 90
    },
    {
      "midi": 54,
      "hit": false,
      "t": 60325.91000000013,
      "d": 652.1719999999987,
      "v": 90
    },
    {
      "midi": 73,
      "hit": false,
      "t": 60488.95299999982,
      "d": 163.04299999999785,
      "v": 90
    },
    {
      "midi": 71,
      "hit": false,
      "t": 60651.99599999982,
      "d": 163.04299999999785,
      "v": 90
    },
    {
      "midi": 69,
      "hit": false,
      "t": 60815.038999999815,
      "d": 163.04299999999785,
      "v": 90
    },
    {
      "midi": 73,
      "hit": false,
      "t": 60978.08199999981,
      "d": 163.04299999999785,
      "v": 90
    },
    {
      "midi": 71,
      "hit": false,
      "t": 61141.12499999981,
      "d": 163.04299999999785,
      "v": 90
    },
    {
      "midi": 74,
      "hit": false,
      "t": 61304.16799999981,
      "d": 163.04299999999785,
      "v": 90
    },
    {
      "midi": 47,
      "hit": false,
      "t": 61304.16800000013,
      "d": 326.08600000000297,
      "v": 90
    },
    {
      "midi": 73,
      "hit": false,
      "t": 61467.21099999981,
      "d": 163.04299999999785,
      "v": 90
    },
    {
      "midi": 74,
      "hit": false,
      "t": 61630.253999999804,
      "d": 163.04299999999785,
      "v": 90
    },
    {
      "midi": 52,
      "hit": false,
      "t": 61630.25400000013,
      "d": 652.1719999999987,
      "v": 90
    },
    {
      "midi": 71,
      "hit": false,
      "t": 61793.2969999998,
      "d": 163.04299999999785,
      "v": 90
    },
    {
      "midi": 69,
      "hit": false,
      "t": 61956.3399999998,
      "d": 163.04299999999785,
      "v": 90
    },
    {
      "midi": 68,
      "hit": false,
      "t": 62119.3829999998,
      "d": 163.04299999999785,
      "v": 90
    },
    {
      "midi": 71,
      "hit": false,
      "t": 62282.425999999796,
      "d": 163.04299999999785,
      "v": 90
    },
    {
      "midi": 69,
      "hit": false,
      "t": 62445.46899999979,
      "d": 163.04299999999785,
      "v": 90
    },
    {
      "midi": 73,
      "hit": false,
      "t": 62608.51199999979,
      "d": 163.04299999999785,
      "v": 90
    },
    {
      "midi": 45,
      "hit": false,
      "t": 62608.51200000013,
      "d": 326.08600000000297,
      "v": 90
    },
    {
      "midi": 71,
      "hit": false,
      "t": 62771.55499999979,
      "d": 163.04299999999785,
      "v": 90
    },
    {
      "midi": 74,
      "hit": false,
      "t": 62934.59799999979,
      "d": 163.04299999999785,
      "v": 90
    },
    {
      "midi": 42,
      "hit": false,
      "t": 62934.59800000014,
      "d": 326.08600000000297,
      "v": 90
    },
    {
      "midi": 73,
      "hit": false,
      "t": 63097.640999999785,
      "d": 163.04299999999785,
      "v": 90
    },
    {
      "midi": 71,
      "hit": false,
      "t": 63260.68399999978,
      "d": 163.04299999999785,
      "v": 90
    },
    {
      "midi": 37,
      "hit": false,
      "t": 63260.68400000014,
      "d": 326.08600000000297,
      "v": 90
    },
    {
      "midi": 69,
      "hit": false,
      "t": 63423.72699999978,
      "d": 163.04299999999785,
      "v": 90
    },
    {
      "midi": 73,
      "hit": false,
      "t": 63586.76999999978,
      "d": 163.04299999999785,
      "v": 90
    },
    {
      "midi": 38,
      "hit": false,
      "t": 63586.77000000014,
      "d": 326.08600000000297,
      "v": 90
    },
    {
      "midi": 71,
      "hit": false,
      "t": 63749.81299999978,
      "d": 163.04299999999785,
      "v": 90
    },
    {
      "midi": 69,
      "hit": false,
      "t": 63912.855999999774,
      "d": 163.04299999999785,
      "v": 90
    },
    {
      "midi": 40,
      "hit": false,
      "t": 63912.856000000145,
      "d": 326.08600000000297,
      "v": 90
    },
    {
      "midi": 68,
      "hit": false,
      "t": 64075.89899999977,
      "d": 163.04299999999785,
      "v": 90
    },
    {
      "midi": 69,
      "hit": false,
      "t": 64238.94199999977,
      "d": 978.2580000000016,
      "v": 90
    },
    {
      "midi": 33,
      "hit": false,
      "t": 64238.94200000015,
      "d": 326.08600000000297,
      "v": 90
    },
    {
      "midi": 40,
      "hit": false,
      "t": 64565.02800000015,
      "d": 326.08600000000297,
      "v": 90
    },
    {
      "midi": 45,
      "hit": false,
      "t": 64891.114000000154,
      "d": 326.08600000000297,
      "v": 90
    }
  ]
}