{
  "jsonPath": "Classical/Classical/Johann Sebastian Bach/invention-6.json",
  "path": "Classical\\Classical\\Johann Sebastian Bach\\Invention 6.mid",
  "name": "Invention 6",
  "difficulty": "Advanced",
  "bpm": 80,
  "notes": [
    {
      "midi": 52,
      "hit": false,
      "t": 0,
      "d": 375,
      "v": 127
    },
    {
      "midi": 76,
      "hit": false,
      "t": 187.5,
      "d": 375,
      "v": 127
    },
    {
      "midi": 54,
      "hit": false,
      "t": 375,
      "d": 375,
      "v": 127
    },
    {
      "midi": 75,
      "hit": false,
      "t": 562.5,
      "d": 375,
      "v": 127
    },
    {
      "midi": 56,
      "hit": false,
      "t": 750,
      "d": 375,
      "v": 127
    },
    {
      "midi": 74,
      "hit": false,
      "t": 937.5,
      "d": 375,
      "v": 127
    },
    {
      "midi": 57,
      "hit": false,
      "t": 1125,
      "d": 375,
      "v": 127
    },
    {
      "midi": 73,
      "hit": false,
      "t": 1312.5,
      "d": 375,
      "v": 127
    },
    {
      "midi": 59,
      "hit": false,
      "t": 1500,
      "d": 375,
      "v": 127
    },
    {
      "midi": 71,
      "hit": false,
      "t": 1687.5,
      "d": 375,
      "v": 127
    },
    {
      "midi": 61,
      "hit": false,
      "t": 1875,
      "d": 375,
      "v": 127
    },
    {
      "midi": 69,
      "hit": false,
      "t": 2062.5,
      "d": 375,
      "v": 127
    },
    {
      "midi": 63,
      "hit": false,
      "t": 2250,
      "d": 375,
      "v": 127
    },
    {
      "midi": 68,
      "hit": false,
      "t": 2437.5,
      "d": 375,
      "v": 127
    },
    {
      "midi": 64,
      "hit": false,
      "t": 2625,
      "d": 187.5,
      "v": 127
    },
    {
      "midi": 66,
      "hit": false,
      "t": 2812.5,
      "d": 187.5,
      "v": 127
    },
    {
      "midi": 63,
      "hit": false,
      "t": 2812.5,
      "d": 187.5,
      "v": 127
    },
    {
      "midi": 61,
      "hit": false,
      "t": 3000,
      "d": 187.5,
      "v": 127
    },
    {
      "midi": 68,
      "hit": false,
      "t": 3187.5,
      "d": 93.75,
      "v": 127
    },
    {
      "midi": 59,
      "hit": false,
      "t": 3187.5,
      "d": 187.5,
      "v": 127
    },
    {
      "midi": 69,
      "hit": false,
      "t": 3281.25,
      "d": 93.75,
      "v": 127
    },
    {
      "midi": 68,
      "hit": false,
      "t": 3375,
      "d": 187.5,
      "v": 127
    },
    {
      "midi": 64,
      "hit": false,
      "t": 3375,
      "d": 375,
      "v": 127
    },
    {
      "midi": 71,
      "hit": false,
      "t": 3562.5,
      "d": 93.75,
      "v": 127
    },
    {
      "midi": 69,
      "hit": false,
      "t": 3656.25,
      "d": 93.75,
      "v": 127
    },
    {
      "midi": 71,
      "hit": false,
      "t": 3750,
      "d": 187.5,
      "v": 127
    },
    {
      "midi": 52,
      "hit": false,
      "t": 3750,
      "d": 375,
      "v": 127
    },
    {
      "midi": 68,
      "hit": false,
      "t": 3937.5,
      "d": 93.75,
      "v": 127
    },
    {
      "midi": 66,
      "hit": false,
      "t": 4031.25,
      "d": 93.75,
      "v": 127
    },
    {
      "midi": 68,
      "hit": false,
      "t": 4125,
      "d": 187.5,
      "v": 127
    },
    {
      "midi": 64,
      "hit": false,
      "t": 4312.5,
      "d": 93.75,
      "v": 127
    },
    {
      "midi": 63,
      "hit": false,
      "t": 4406.25,
      "d": 93.75,
      "v": 127
    },
    {
      "midi": 64,
      "hit": false,
      "t": 4500,
      "d": 375,
      "v": 127
    },
    {
      "midi": 52,
      "hit": false,
      "t": 4687.5,
      "d": 375,
      "v": 127
    },
    {
      "midi": 66,
      "hit": false,
      "t": 4875,
      "d": 375,
      "v": 127
    },
    {
      "midi": 51,
      "hit": false,
      "t": 5062.5,
      "d": 375,
      "v": 127
    },
    {
      "midi": 68,
      "hit": false,
      "t": 5250,
      "d": 375,
      "v": 127
    },
    {
      "midi": 50,
      "hit": false,
      "t": 5437.5,
      "d": 375,
      "v": 127
    },
    {
      "midi": 69,
      "hit": false,
      "t": 5625,
      "d": 375,
      "v": 127
    },
    {
      "midi": 49,
      "hit": false,
      "t": 5812.5,
      "d": 187.5,
      "v": 127
    },
    {
      "midi": 71,
      "hit": false,
      "t": 6000,
      "d": 375,
      "v": 127
    },
    {
      "midi": 47,
      "hit": false,
      "t": 6187.5,
      "d": 375,
      "v": 127
    },
    {
      "midi": 73,
      "hit": false,
      "t": 6375,
      "d": 375,
      "v": 127
    },
    {
      "midi": 45,
      "hit": false,
      "t": 6562.5,
      "d": 375,
      "v": 127
    },
    {
      "midi": 75,
      "hit": false,
      "t": 6750,
      "d": 375,
      "v": 127
    },
    {
      "midi": 44,
      "hit": false,
      "t": 6937.5,
      "d": 375,
      "v": 127
    },
    {
      "midi": 76,
      "hit": false,
      "t": 7125,
      "d": 187.5,
      "v": 127
    },
    {
      "midi": 75,
      "hit": false,
      "t": 7312.5,
      "d": 187.5,
      "v": 127
    },
    {
      "midi": 42,
      "hit": false,
      "t": 7312.5,
      "d": 375,
      "v": 127
    },
    {
      "midi": 73,
      "hit": false,
      "t": 7500,
      "d": 187.5,
      "v": 127
    },
    {
      "midi": 71,
      "hit": false,
      "t": 7687.5,
      "d": 187.5,
      "v": 127
    },
    {
      "midi": 44,
      "hit": false,
      "t": 7687.5,
      "d": 93.75,
      "v": 127
    },
    {
      "midi": 45,
      "hit": false,
      "t": 7781.25,
      "d": 93.75,
      "v": 127
    },
    {
      "midi": 76,
      "hit": false,
      "t": 7875,
      "d": 375,
      "v": 127
    },
    {
      "midi": 44,
      "hit": false,
      "t": 7875,
      "d": 187.5,
      "v": 127
    },
    {
      "midi": 47,
      "hit": false,
      "t": 8062.5,
      "d": 93.75,
      "v": 127
    },
    {
      "midi": 45,
      "hit": false,
      "t": 8156.25,
      "d": 93.75,
      "v": 127
    },
    {
      "midi": 64,
      "hit": false,
      "t": 8250,
      "d": 375,
      "v": 127
    },
    {
      "midi": 47,
      "hit": false,
      "t": 8250,
      "d": 187.5,
      "v": 127
    },
    {
      "midi": 44,
      "hit": false,
      "t": 8437.5,
      "d": 93.75,
      "v": 127
    },
    {
      "midi": 42,
      "hit": false,
      "t": 8531.25,
      "d": 93.75,
      "v": 127
    },
    {
      "midi": 44,
      "hit": false,
      "t": 8625,
      "d": 187.5,
      "v": 127
    },
    {
      "midi": 40,
      "hit": false,
      "t": 8812.5,
      "d": 93.75,
      "v": 127
    },
    {
      "midi": 39,
      "hit": false,
      "t": 8906.25,
      "d": 93.75,
      "v": 127
    },
    {
      "midi": 40,
      "hit": false,
      "t": 9000,
      "d": 375,
      "v": 127
    },
    {
      "midi": 80,
      "hit": false,
      "t": 9187.5,
      "d": 375,
      "v": 127
    },
    {
      "midi": 49,
      "hit": false,
      "t": 9375,
      "d": 375,
      "v": 127
    },
    {
      "midi": 76,
      "hit": false,
      "t": 9562.5,
      "d": 375,
      "v": 127
    },
    {
      "midi": 52,
      "hit": false,
      "t": 9750,
      "d": 375,
      "v": 127
    },
    {
      "midi": 73,
      "hit": false,
      "t": 9937.5,
      "d": 375,
      "v": 127
    },
    {
      "midi": 54,
      "hit": false,
      "t": 10125,
      "d": 375,
      "v": 127
    },
    {
      "midi": 76,
      "hit": false,
      "t": 10312.5,
      "d": 93.75,
      "v": 127
    },
    {
      "midi": 75,
      "hit": false,
      "t": 10406.25,
      "d": 93.75,
      "v": 127
    },
    {
      "midi": 76,
      "hit": false,
      "t": 10500,
      "d": 187.5,
      "v": 127
    },
    {
      "midi": 58,
      "hit": false,
      "t": 10500,
      "d": 375,
      "v": 127
    },
    {
      "midi": 73,
      "hit": false,
      "t": 10687.5,
      "d": 187.5,
      "v": 127
    },
    {
      "midi": 70,
      "hit": false,
      "t": 10875,
      "d": 187.5,
      "v": 127
    },
    {
      "midi": 61,
      "hit": false,
      "t": 10875,
      "d": 375,
      "v": 127
    },
    {
      "midi": 66,
      "hit": false,
      "t": 11062.5,
      "d": 375,
      "v": 127
    },
    {
      "midi": 39,
      "hit": false,
      "t": 11250,
      "d": 375,
      "v": 127
    },
    {
      "midi": 78,
      "hit": false,
      "t": 11437.5,
      "d": 375,
      "v": 127
    },
    {
      "midi": 47,
      "hit": false,
      "t": 11625,
      "d": 375,
      "v": 127
    },
    {
      "midi": 75,
      "hit": false,
      "t": 11812.5,
      "d": 187.5,
      "v": 127
    },
    {
      "midi": 51,
      "hit": false,
      "t": 12000,
      "d": 375,
      "v": 127
    },
    {
      "midi": 71,
      "hit": false,
      "t": 12187.5,
      "d": 375,
      "v": 127
    },
    {
      "midi": 52,
      "hit": false,
      "t": 12375,
      "d": 375,
      "v": 127
    },
    {
      "midi": 75,
      "hit": false,
      "t": 12562.5,
      "d": 93.75,
      "v": 127
    },
    {
      "midi": 73,
      "hit": false,
      "t": 12656.25,
      "d": 93.75,
      "v": 127
    },
    {
      "midi": 75,
      "hit": false,
      "t": 12750,
      "d": 187.5,
      "v": 127
    },
    {
      "midi": 56,
      "hit": false,
      "t": 12750,
      "d": 375,
      "v": 127
    },
    {
      "midi": 71,
      "hit": false,
      "t": 12937.5,
      "d": 187.5,
      "v": 127
    },
    {
      "midi": 68,
      "hit": false,
      "t": 13125,
      "d": 187.5,
      "v": 127
    },
    {
      "midi": 59,
      "hit": false,
      "t": 13125,
      "d": 375,
      "v": 127
    },
    {
      "midi": 64,
      "hit": false,
      "t": 13312.5,
      "d": 375,
      "v": 127
    },
    {
      "midi": 37,
      "hit": false,
      "t": 13500,
      "d": 375,
      "v": 127
    },
    {
      "midi": 76,
      "hit": false,
      "t": 13687.5,
      "d": 375,
      "v": 127
    },
    {
      "midi": 49,
      "hit": false,
      "t": 13875,
      "d": 375,
      "v": 127
    },
    {
      "midi": 73,
      "hit": false,
      "t": 14062.5,
      "d": 375,
      "v": 127
    },
    {
      "midi": 52,
      "hit": false,
      "t": 14250,
      "d": 375,
      "v": 127
    },
    {
      "midi": 70,
      "hit": false,
      "t": 14437.5,
      "d": 375,
      "v": 127
    },
    {
      "midi": 54,
      "hit": false,
      "t": 14625,
      "d": 375,
      "v": 127
    },
    {
      "midi": 80,
      "hit": false,
      "t": 14812.5,
      "d": 187.5,
      "v": 127
    },
    {
      "midi": 56,
      "hit": false,
      "t": 15000,
      "d": 375,
      "v": 127
    },
    {
      "midi": 78,
      "hit": false,
      "t": 15187.5,
      "d": 375,
      "v": 127
    },
    {
      "midi": 58,
      "hit": false,
      "t": 15375,
      "d": 375,
      "v": 127
    },
    {
      "midi": 76,
      "hit": false,
      "t": 15562.5,
      "d": 375,
      "v": 127
    },
    {
      "midi": 59,
      "hit": false,
      "t": 15750,
      "d": 375,
      "v": 127
    },
    {
      "midi": 75,
      "hit": false,
      "t": 15937.5,
      "d": 375,
      "v": 127
    },
    {
      "midi": 52,
      "hit": false,
      "t": 16125,
      "d": 375,
      "v": 127
    },
    {
      "midi": 73,
      "hit": false,
      "t": 16312.5,
      "d": 375,
      "v": 127
    },
    {
      "midi": 56,
      "hit": false,
      "t": 16500,
      "d": 375,
      "v": 127
    },
    {
      "midi": 71,
      "hit": false,
      "t": 16687.5,
      "d": 187.5,
      "v": 127
    },
    {
      "midi": 70,
      "hit": false,
      "t": 16875,
      "d": 187.5,
      "v": 127
    },
    {
      "midi": 54,
      "hit": false,
      "t": 16875,
      "d": 187.5,
      "v": 127
    },
    {
      "midi": 64,
      "hit": false,
      "t": 17062.5,
      "d": 93.75,
      "v": 127
    },
    {
      "midi": 61,
      "hit": false,
      "t": 17062.5,
      "d": 187.5,
      "v": 127
    },
    {
      "midi": 63,
      "hit": false,
      "t": 17156.25,
      "d": 93.75,
      "v": 127
    },
    {
      "midi": 64,
      "hit": false,
      "t": 17250,
      "d": 187.5,
      "v": 127
    },
    {
      "midi": 58,
      "hit": false,
      "t": 17250,
      "d": 187.5,
      "v": 127
    },
    {
      "midi": 70,
      "hit": false,
      "t": 17437.5,
      "d": 93.75,
      "v": 127
    },
    {
      "midi": 61,
      "hit": false,
      "t": 17437.5,
      "d": 187.5,
      "v": 127
    },
    {
      "midi": 68,
      "hit": false,
      "t": 17531.25,
      "d": 93.75,
      "v": 127
    },
    {
      "midi": 70,
      "hit": false,
      "t": 17625,
      "d": 187.5,
      "v": 127
    },
    {
      "midi": 52,
      "hit": false,
      "t": 17625,
      "d": 187.5,
      "v": 127
    },
    {
      "midi": 71,
      "hit": false,
      "t": 17812.5,
      "d": 93.75,
      "v": 127
    },
    {
      "midi": 61,
      "hit": false,
      "t": 17812.5,
      "d": 187.5,
      "v": 127
    },
    {
      "midi": 70,
      "hit": false,
      "t": 17906.25,
      "d": 93.75,
      "v": 127
    },
    {
      "midi": 71,
      "hit": false,
      "t": 18000,
      "d": 187.5,
      "v": 127
    },
    {
      "midi": 51,
      "hit": false,
      "t": 18000,
      "d": 375,
      "v": 127
    },
    {
      "midi": 63,
      "hit": false,
      "t": 18187.5,
      "d": 187.5,
      "v": 127
    },
    {
      "midi": 61,
      "hit": false,
      "t": 18375,
      "d": 187.5,
      "v": 127
    },
    {
      "midi": 52,
      "hit": false,
      "t": 18375,
      "d": 375,
      "v": 127
    },
    {
      "midi": 75,
      "hit": false,
      "t": 18562.5,
      "d": 187.5,
      "v": 127
    },
    {
      "midi": 61,
      "hit": false,
      "t": 18750,
      "d": 187.5,
      "v": 127
    },
    {
      "midi": 54,
      "hit": false,
      "t": 18750,
      "d": 375,
      "v": 127
    },
    {
      "midi": 70,
      "hit": false,
      "t": 18937.5,
      "d": 187.5,
      "v": 127
    },
    {
      "midi": 71,
      "hit": false,
      "t": 19125,
      "d": 375,
      "v": 127
    },
    {
      "midi": 47,
      "hit": false,
      "t": 19125,
      "d": 187.5,
      "v": 127
    },
    {
      "midi": 59,
      "hit": false,
      "t": 19312.5,
      "d": 93.75,
      "v": 127
    },
    {
      "midi": 58,
      "hit": false,
      "t": 19406.25,
      "d": 93.75,
      "v": 127
    },
    {
      "midi": 59,
      "hit": false,
      "t": 19500,
      "d": 187.5,
      "v": 127
    },
    {
      "midi": 71,
      "hit": false,
      "t": 19687.5,
      "d": 187.5,
      "v": 127
    },
    {
      "midi": 54,
      "hit": false,
      "t": 19687.5,
      "d": 93.75,
      "v": 127
    },
    {
      "midi": 52,
      "hit": false,
      "t": 19781.25,
      "d": 93.75,
      "v": 127
    },
    {
      "midi": 75,
      "hit": false,
      "t": 19875,
      "d": 187.5,
      "v": 127
    },
    {
      "midi": 54,
      "hit": false,
      "t": 19875,
      "d": 187.5,
      "v": 127
    },
    {
      "midi": 78,
      "hit": false,
      "t": 20062.5,
      "d": 187.5,
      "v": 127
    },
    {
      "midi": 51,
      "hit": false,
      "t": 20062.5,
      "d": 93.75,
      "v": 127
    },
    {
      "midi": 49,
      "hit": false,
      "t": 20156.25,
      "d": 93.75,
      "v": 127
    },
    {
      "midi": 83,
      "hit": false,
      "t": 20250,
      "d": 375,
      "v": 127
    },
    {
      "midi": 51,
      "hit": false,
      "t": 20250,
      "d": 187.5,
      "v": 127
    },
    {
      "midi": 54,
      "hit": false,
      "t": 20437.5,
      "d": 93.75,
      "v": 127
    },
    {
      "midi": 52,
      "hit": false,
      "t": 20531.25,
      "d": 93.75,
      "v": 127
    },
    {
      "midi": 54,
      "hit": false,
      "t": 20625,
      "d": 187.5,
      "v": 127
    },
    {
      "midi": 83,
      "hit": false,
      "t": 20812.5,
      "d": 187.5,
      "v": 127
    },
    {
      "midi": 51,
      "hit": false,
      "t": 20812.5,
      "d": 93.75,
      "v": 127
    },
    {
      "midi": 49,
      "hit": false,
      "t": 20906.25,
      "d": 93.75,
      "v": 127
    },
    {
      "midi": 78,
      "hit": false,
      "t": 21000,
      "d": 187.5,
      "v": 127
    },
    {
      "midi": 51,
      "hit": false,
      "t": 21000,
      "d": 187.5,
      "v": 127
    },
    {
      "midi": 75,
      "hit": false,
      "t": 21187.5,
      "d": 187.5,
      "v": 127
    },
    {
      "midi": 47,
      "hit": false,
      "t": 21187.5,
      "d": 93.75,
      "v": 127
    },
    {
      "midi": 46,
      "hit": false,
      "t": 21281.25,
      "d": 93.75,
      "v": 127
    },
    {
      "midi": 71,
      "hit": false,
      "t": 21375,
      "d": 187.5,
      "v": 127
    },
    {
      "midi": 47,
      "hit": false,
      "t": 21375,
      "d": 750,
      "v": 127
    },
    {
      "midi": 66,
      "hit": false,
      "t": 21562.5,
      "d": 187.5,
      "v": 127
    },
    {
      "midi": 63,
      "hit": false,
      "t": 21750,
      "d": 187.5,
      "v": 127
    },
    {
      "midi": 59,
      "hit": false,
      "t": 21937.5,
      "d": 187.5,
      "v": 127
    },
    {
      "midi": 35,
      "hit": false,
      "t": 22125,
      "d": 375,
      "v": 127
    },
    {
      "midi": 59,
      "hit": false,
      "t": 22500,
      "d": 375,
      "v": 127
    },
    {
      "midi": 59,
      "hit": false,
      "t": 22687.5,
      "d": 375,
      "v": 127
    },
    {
      "midi": 61,
      "hit": false,
      "t": 22875,
      "d": 375,
      "v": 127
    },
    {
      "midi": 58,
      "hit": false,
      "t": 23062.5,
      "d": 375,
      "v": 127
    },
    {
      "midi": 63,
      "hit": false,
      "t": 23250,
      "d": 375,
      "v": 127
    },
    {
      "midi": 57,
      "hit": false,
      "t": 23437.5,
      "d": 375,
      "v": 127
    },
    {
      "midi": 64,
      "hit": false,
      "t": 23625,
      "d": 375,
      "v": 127
    },
    {
      "midi": 56,
      "hit": false,
      "t": 23812.5,
      "d": 187.5,
      "v": 127
    },
    {
      "midi": 66,
      "hit": false,
      "t": 24000,
      "d": 375,
      "v": 127
    },
    {
      "midi": 54,
      "hit": false,
      "t": 24187.5,
      "d": 375,
      "v": 127
    },
    {
      "midi": 68,
      "hit": false,
      "t": 24375,
      "d": 375,
      "v": 127
    },
    {
      "midi": 52,
      "hit": false,
      "t": 24562.5,
      "d": 375,
      "v": 127
    },
    {
      "midi": 70,
      "hit": false,
      "t": 24750,
      "d": 375,
      "v": 127
    },
    {
      "midi": 51,
      "hit": false,
      "t": 24937.5,
      "d": 375,
      "v": 127
    },
    {
      "midi": 71,
      "hit": false,
      "t": 25125,
      "d": 187.5,
      "v": 127
    },
    {
      "midi": 70,
      "hit": false,
      "t": 25312.5,
      "d": 187.5,
      "v": 127
    },
    {
      "midi": 49,
      "hit": false,
      "t": 25312.5,
      "d": 375,
      "v": 127
    },
    {
      "midi": 68,
      "hit": false,
      "t": 25500,
      "d": 187.5,
      "v": 127
    },
    {
      "midi": 66,
      "hit": false,
      "t": 25687.5,
      "d": 187.5,
      "v": 127
    },
    {
      "midi": 51,
      "hit": false,
      "t": 25687.5,
      "d": 93.75,
      "v": 127
    },
    {
      "midi": 52,
      "hit": false,
      "t": 25781.25,
      "d": 93.75,
      "v": 127
    },
    {
      "midi": 71,
      "hit": false,
      "t": 25875,
      "d": 375,
      "v": 127
    },
    {
      "midi": 51,
      "hit": false,
      "t": 25875,
      "d": 187.5,
      "v": 127
    },
    {
      "midi": 54,
      "hit": false,
      "t": 26062.5,
      "d": 93.75,
      "v": 127
    },
    {
      "midi": 52,
      "hit": false,
      "t": 26156.25,
      "d": 93.75,
      "v": 127
    },
    {
      "midi": 59,
      "hit": false,
      "t": 26250,
      "d": 375,
      "v": 127
    },
    {
      "midi": 54,
      "hit": false,
      "t": 26250,
      "d": 187.5,
      "v": 127
    },
    {
      "midi": 51,
      "hit": false,
      "t": 26437.5,
      "d": 93.75,
      "v": 127
    },
    {
      "midi": 49,
      "hit": false,
      "t": 26531.25,
      "d": 93.75,
      "v": 127
    },
    {
      "midi": 51,
      "hit": false,
      "t": 26625,
      "d": 187.5,
      "v": 127
    },
    {
      "midi": 47,
      "hit": false,
      "t": 26812.5,
      "d": 93.75,
      "v": 127
    },
    {
      "midi": 46,
      "hit": false,
      "t": 26906.25,
      "d": 93.75,
      "v": 127
    },
    {
      "midi": 47,
      "hit": false,
      "t": 27000,
      "d": 375,
      "v": 127
    },
    {
      "midi": 83,
      "hit": false,
      "t": 27187.5,
      "d": 375,
      "v": 127
    },
    {
      "midi": 49,
      "hit": false,
      "t": 27375,
      "d": 375,
      "v": 127
    },
    {
      "midi": 82,
      "hit": false,
      "t": 27562.5,
      "d": 375,
      "v": 127
    },
    {
      "midi": 51,
      "hit": false,
      "t": 27750,
      "d": 375,
      "v": 127
    },
    {
      "midi": 81,
      "hit": false,
      "t": 27937.5,
      "d": 375,
      "v": 127
    },
    {
      "midi": 52,
      "hit": false,
      "t": 28125,
      "d": 375,
      "v": 127
    },
    {
      "midi": 80,
      "hit": false,
      "t": 28312.5,
      "d": 375,
      "v": 127
    },
    {
      "midi": 54,
      "hit": false,
      "t": 28500,
      "d": 375,
      "v": 127
    },
    {
      "midi": 78,
      "hit": false,
      "t": 28687.5,
      "d": 375,
      "v": 127
    },
    {
      "midi": 56,
      "hit": false,
      "t": 28875,
      "d": 375,
      "v": 127
    },
    {
      "midi": 76,
      "hit": false,
      "t": 29062.5,
      "d": 375,
      "v": 127
    },
    {
      "midi": 58,
      "hit": false,
      "t": 29250,
      "d": 375,
      "v": 127
    },
    {
      "midi": 75,
      "hit": false,
      "t": 29437.5,
      "d": 375,
      "v": 127
    },
    {
      "midi": 59,
      "hit": false,
      "t": 29625,
      "d": 187.5,
      "v": 127
    },
    {
      "midi": 73,
      "hit": false,
      "t": 29812.5,
      "d": 187.5,
      "v": 127
    },
    {
      "midi": 58,
      "hit": false,
      "t": 29812.5,
      "d": 187.5,
      "v": 127
    },
    {
      "midi": 56,
      "hit": false,
      "t": 30000,
      "d": 187.5,
      "v": 127
    },
    {
      "midi": 75,
      "hit": false,
      "t": 30187.5,
      "d": 93.75,
      "v": 127
    },
    {
      "midi": 54,
      "hit": false,
      "t": 30187.5,
      "d": 187.5,
      "v": 127
    },
    {
      "midi": 76,
      "hit": false,
      "t": 30281.25,
      "d": 93.75,
      "v": 127
    },
    {
      "midi": 75,
      "hit": false,
      "t": 30375,
      "d": 187.5,
      "v": 127
    },
    {
      "midi": 59,
      "hit": false,
      "t": 30375,
      "d": 375,
      "v": 127
    },
    {
      "midi": 78,
      "hit": false,
      "t": 30562.5,
      "d": 93.75,
      "v": 127
    },
    {
      "midi": 76,
      "hit": false,
      "t": 30656.25,
      "d": 93.75,
      "v": 127
    },
    {
      "midi": 78,
      "hit": false,
      "t": 30750,
      "d": 187.5,
      "v": 127
    },
    {
      "midi": 47,
      "hit": false,
      "t": 30750,
      "d": 375,
      "v": 127
    },
    {
      "midi": 75,
      "hit": false,
      "t": 30937.5,
      "d": 93.75,
      "v": 127
    },
    {
      "midi": 73,
      "hit": false,
      "t": 31031.25,
      "d": 93.75,
      "v": 127
    },
    {
      "midi": 75,
      "hit": false,
      "t": 31125,
      "d": 187.5,
      "v": 127
    },
    {
      "midi": 71,
      "hit": false,
      "t": 31312.5,
      "d": 93.75,
      "v": 127
    },
    {
      "midi": 70,
      "hit": false,
      "t": 31406.25,
      "d": 93.75,
      "v": 127
    },
    {
      "midi": 71,
      "hit": false,
      "t": 31500,
      "d": 187.5,
      "v": 127
    },
    {
      "midi": 56,
      "hit": false,
      "t": 31500,
      "d": 375,
      "v": 127
    },
    {
      "midi": 75,
      "hit": false,
      "t": 31687.5,
      "d": 93.75,
      "v": 127
    },
    {
      "midi": 73,
      "hit": false,
      "t": 31781.25,
      "d": 93.75,
      "v": 127
    },
    {
      "midi": 75,
      "hit": false,
      "t": 31875,
      "d": 187.5,
      "v": 127
    },
    {
      "midi": 59,
      "hit": false,
      "t": 31875,
      "d": 375,
      "v": 127
    },
    {
      "midi": 80,
      "hit": false,
      "t": 32062.5,
      "d": 93.75,
      "v": 127
    },
    {
      "midi": 79,
      "hit": false,
      "t": 32156.25,
      "d": 93.75,
      "v": 127
    },
    {
      "midi": 80,
      "hit": false,
      "t": 32250,
      "d": 187.5,
      "v": 127
    },
    {
      "midi": 63,
      "hit": false,
      "t": 32250,
      "d": 375,
      "v": 127
    },
    {
      "midi": 73,
      "hit": false,
      "t": 32437.5,
      "d": 93.75,
      "v": 127
    },
    {
      "midi": 71,
      "hit": false,
      "t": 32531.25,
      "d": 93.75,
      "v": 127
    },
    {
      "midi": 73,
      "hit": false,
      "t": 32625,
      "d": 187.5,
      "v": 127
    },
    {
      "midi": 55,
      "hit": false,
      "t": 32625,
      "d": 375,
      "v": 127
    },
    {
      "midi": 76,
      "hit": false,
      "t": 32812.5,
      "d": 93.75,
      "v": 127
    },
    {
      "midi": 75,
      "hit": false,
      "t": 32906.25,
      "d": 93.75,
      "v": 127
    },
    {
      "midi": 76,
      "hit": false,
      "t": 33000,
      "d": 187.5,
      "v": 127
    },
    {
      "midi": 58,
      "hit": false,
      "t": 33000,
      "d": 375,
      "v": 127
    },
    {
      "midi": 82,
      "hit": false,
      "t": 33187.5,
      "d": 93.75,
      "v": 127
    },
    {
      "midi": 80,
      "hit": false,
      "t": 33281.25,
      "d": 93.75,
      "v": 127
    },
    {
      "midi": 82,
      "hit": false,
      "t": 33375,
      "d": 187.5,
      "v": 127
    },
    {
      "midi": 63,
      "hit": false,
      "t": 33375,
      "d": 375,
      "v": 127
    },
    {
      "midi": 75,
      "hit": false,
      "t": 33562.5,
      "d": 93.75,
      "v": 127
    },
    {
      "midi": 73,
      "hit": false,
      "t": 33656.25,
      "d": 93.75,
      "v": 127
    },
    {
      "midi": 75,
      "hit": false,
      "t": 33750,
      "d": 187.5,
      "v": 127
    },
    {
      "midi": 56,
      "hit": false,
      "t": 33750,
      "d": 375,
      "v": 127
    },
    {
      "midi": 80,
      "hit": false,
      "t": 33937.5,
      "d": 93.75,
      "v": 127
    },
    {
      "midi": 79,
      "hit": false,
      "t": 34031.25,
      "d": 93.75,
      "v": 127
    },
    {
      "midi": 80,
      "hit": false,
      "t": 34125,
      "d": 187.5,
      "v": 127
    },
    {
      "midi": 59,
      "hit": false,
      "t": 34125,
      "d": 375,
      "v": 127
    },
    {
      "midi": 83,
      "hit": false,
      "t": 34312.5,
      "d": 93.75,
      "v": 127
    },
    {
      "midi": 82,
      "hit": false,
      "t": 34406.25,
      "d": 93.75,
      "v": 127
    },
    {
      "midi": 83,
      "hit": false,
      "t": 34500,
      "d": 187.5,
      "v": 127
    },
    {
      "midi": 63,
      "hit": false,
      "t": 34500,
      "d": 375,
      "v": 127
    },
    {
      "midi": 75,
      "hit": false,
      "t": 34687.5,
      "d": 93.75,
      "v": 127
    },
    {
      "midi": 74,
      "hit": false,
      "t": 34781.25,
      "d": 93.75,
      "v": 127
    },
    {
      "midi": 75,
      "hit": false,
      "t": 34875,
      "d": 187.5,
      "v": 127
    },
    {
      "midi": 51,
      "hit": false,
      "t": 34875,
      "d": 375,
      "v": 127
    },
    {
      "midi": 82,
      "hit": false,
      "t": 35062.5,
      "d": 93.75,
      "v": 127
    },
    {
      "midi": 80,
      "hit": false,
      "t": 35156.25,
      "d": 93.75,
      "v": 127
    },
    {
      "midi": 82,
      "hit": false,
      "t": 35250,
      "d": 187.5,
      "v": 127
    },
    {
      "midi": 63,
      "hit": false,
      "t": 35250,
      "d": 375,
      "v": 127
    },
    {
      "midi": 79,
      "hit": false,
      "t": 35437.5,
      "d": 93.75,
      "v": 127
    },
    {
      "midi": 77,
      "hit": false,
      "t": 35531.25,
      "d": 93.75,
      "v": 127
    },
    {
      "midi": 79,
      "hit": false,
      "t": 35625,
      "d": 187.5,
      "v": 127
    },
    {
      "midi": 61,
      "hit": false,
      "t": 35625,
      "d": 375,
      "v": 127
    },
    {
      "midi": 75,
      "hit": false,
      "t": 35812.5,
      "d": 93.75,
      "v": 127
    },
    {
      "midi": 74,
      "hit": false,
      "t": 35906.25,
      "d": 93.75,
      "v": 127
    },
    {
      "midi": 75,
      "hit": false,
      "t": 36000,
      "d": 187.5,
      "v": 127
    },
    {
      "midi": 60,
      "hit": false,
      "t": 36000,
      "d": 375,
      "v": 127
    },
    {
      "midi": 81,
      "hit": false,
      "t": 36187.5,
      "d": 375,
      "v": 127
    },
    {
      "midi": 61,
      "hit": false,
      "t": 36375,
      "d": 375,
      "v": 127
    },
    {
      "midi": 80,
      "hit": false,
      "t": 36562.5,
      "d": 375,
      "v": 127
    },
    {
      "midi": 63,
      "hit": false,
      "t": 36750,
      "d": 375,
      "v": 127
    },
    {
      "midi": 78,
      "hit": false,
      "t": 36937.5,
      "d": 375,
      "v": 127
    },
    {
      "midi": 56,
      "hit": false,
      "t": 37125,
      "d": 375,
      "v": 127
    },
    {
      "midi": 76,
      "hit": false,
      "t": 37312.5,
      "d": 93.75,
      "v": 127
    },
    {
      "midi": 75,
      "hit": false,
      "t": 37406.25,
      "d": 93.75,
      "v": 127
    },
    {
      "midi": 76,
      "hit": false,
      "t": 37500,
      "d": 187.5,
      "v": 127
    },
    {
      "midi": 61,
      "hit": false,
      "t": 37500,
      "d": 375,
      "v": 127
    },
    {
      "midi": 73,
      "hit": false,
      "t": 37687.5,
      "d": 93.75,
      "v": 127
    },
    {
      "midi": 72,
      "hit": false,
      "t": 37781.25,
      "d": 93.75,
      "v": 127
    },
    {
      "midi": 73,
      "hit": false,
      "t": 37875,
      "d": 187.5,
      "v": 127
    },
    {
      "midi": 59,
      "hit": false,
      "t": 37875,
      "d": 375,
      "v": 127
    },
    {
      "midi": 76,
      "hit": false,
      "t": 38062.5,
      "d": 93.75,
      "v": 127
    },
    {
      "midi": 75,
      "hit": false,
      "t": 38156.25,
      "d": 93.75,
      "v": 127
    },
    {
      "midi": 76,
      "hit": false,
      "t": 38250,
      "d": 187.5,
      "v": 127
    },
    {
      "midi": 58,
      "hit": false,
      "t": 38250,
      "d": 375,
      "v": 127
    },
    {
      "midi": 80,
      "hit": false,
      "t": 38437.5,
      "d": 375,
      "v": 127
    },
    {
      "midi": 59,
      "hit": false,
      "t": 38625,
      "d": 375,
      "v": 127
    },
    {
      "midi": 78,
      "hit": false,
      "t": 38812.5,
      "d": 187.5,
      "v": 127
    },
    {
      "midi": 61,
      "hit": false,
      "t": 39000,
      "d": 375,
      "v": 127
    },
    {
      "midi": 76,
      "hit": false,
      "t": 39187.5,
      "d": 375,
      "v": 127
    },
    {
      "midi": 54,
      "hit": false,
      "t": 39375,
      "d": 375,
      "v": 127
    },
    {
      "midi": 75,
      "hit": false,
      "t": 39562.5,
      "d": 93.75,
      "v": 127
    },
    {
      "midi": 73,
      "hit": false,
      "t": 39656.25,
      "d": 93.75,
      "v": 127
    },
    {
      "midi": 75,
      "hit": false,
      "t": 39750,
      "d": 187.5,
      "v": 127
    },
    {
      "midi": 59,
      "hit": false,
      "t": 39750,
      "d": 375,
      "v": 127
    },
    {
      "midi": 71,
      "hit": false,
      "t": 39937.5,
      "d": 93.75,
      "v": 127
    },
    {
      "midi": 70,
      "hit": false,
      "t": 40031.25,
      "d": 93.75,
      "v": 127
    },
    {
      "midi": 71,
      "hit": false,
      "t": 40125,
      "d": 187.5,
      "v": 127
    },
    {
      "midi": 63,
      "hit": false,
      "t": 40125,
      "d": 375,
      "v": 127
    },
    {
      "midi": 73,
      "hit": false,
      "t": 40312.5,
      "d": 93.75,
      "v": 127
    },
    {
      "midi": 71,
      "hit": false,
      "t": 40406.25,
      "d": 93.75,
      "v": 127
    },
    {
      "midi": 73,
      "hit": false,
      "t": 40500,
      "d": 187.5,
      "v": 127
    },
    {
      "midi": 55,
      "hit": false,
      "t": 40500,
      "d": 375,
      "v": 127
    },
    {
      "midi": 76,
      "hit": false,
      "t": 40687.5,
      "d": 375,
      "v": 127
    },
    {
      "midi": 56,
      "hit": false,
      "t": 40875,
      "d": 375,
      "v": 127
    },
    {
      "midi": 75,
      "hit": false,
      "t": 41062.5,
      "d": 375,
      "v": 127
    },
    {
      "midi": 58,
      "hit": false,
      "t": 41250,
      "d": 375,
      "v": 127
    },
    {
      "midi": 73,
      "hit": false,
      "t": 41437.5,
      "d": 375,
      "v": 127
    },
    {
      "midi": 51,
      "hit": false,
      "t": 41625,
      "d": 375,
      "v": 127
    },
    {
      "midi": 71,
      "hit": false,
      "t": 41812.5,
      "d": 93.75,
      "v": 127
    },
    {
      "midi": 70,
      "hit": false,
      "t": 41906.25,
      "d": 93.75,
      "v": 127
    },
    {
      "midi": 71,
      "hit": false,
      "t": 42000,
      "d": 187.5,
      "v": 127
    },
    {
      "midi": 56,
      "hit": false,
      "t": 42000,
      "d": 375,
      "v": 127
    },
    {
      "midi": 68,
      "hit": false,
      "t": 42187.5,
      "d": 93.75,
      "v": 127
    },
    {
      "midi": 67,
      "hit": false,
      "t": 42281.25,
      "d": 93.75,
      "v": 127
    },
    {
      "midi": 68,
      "hit": false,
      "t": 42375,
      "d": 187.5,
      "v": 127
    },
    {
      "midi": 59,
      "hit": false,
      "t": 42375,
      "d": 375,
      "v": 127
    },
    {
      "midi": 69,
      "hit": false,
      "t": 42562.5,
      "d": 93.75,
      "v": 127
    },
    {
      "midi": 68,
      "hit": false,
      "t": 42656.25,
      "d": 93.75,
      "v": 127
    },
    {
      "midi": 69,
      "hit": false,
      "t": 42750,
      "d": 187.5,
      "v": 127
    },
    {
      "midi": 49,
      "hit": false,
      "t": 42750,
      "d": 375,
      "v": 127
    },
    {
      "midi": 73,
      "hit": false,
      "t": 42937.5,
      "d": 93.75,
      "v": 127
    },
    {
      "midi": 71,
      "hit": false,
      "t": 43031.25,
      "d": 93.75,
      "v": 127
    },
    {
      "midi": 73,
      "hit": false,
      "t": 43125,
      "d": 187.5,
      "v": 127
    },
    {
      "midi": 69,
      "hit": false,
      "t": 43312.5,
      "d": 93.75,
      "v": 127
    },
    {
      "midi": 68,
      "hit": false,
      "t": 43406.25,
      "d": 93.75,
      "v": 127
    },
    {
      "midi": 69,
      "hit": false,
      "t": 43500,
      "d": 187.5,
      "v": 127
    },
    {
      "midi": 61,
      "hit": false,
      "t": 43500,
      "d": 750,
      "v": 127
    },
    {
      "midi": 76,
      "hit": false,
      "t": 43687.5,
      "d": 93.75,
      "v": 127
    },
    {
      "midi": 75,
      "hit": false,
      "t": 43781.25,
      "d": 93.75,
      "v": 127
    },
    {
      "midi": 76,
      "hit": false,
      "t": 43875,
      "d": 187.5,
      "v": 127
    },
    {
      "midi": 67,
      "hit": false,
      "t": 44062.5,
      "d": 93.75,
      "v": 127
    },
    {
      "midi": 65,
      "hit": false,
      "t": 44156.25,
      "d": 93.75,
      "v": 127
    },
    {
      "midi": 67,
      "hit": false,
      "t": 44250,
      "d": 187.5,
      "v": 127
    },
    {
      "midi": 58,
      "hit": false,
      "t": 44250,
      "d": 375,
      "v": 127
    },
    {
      "midi": 70,
      "hit": false,
      "t": 44437.5,
      "d": 93.75,
      "v": 127
    },
    {
      "midi": 68,
      "hit": false,
      "t": 44531.25,
      "d": 93.75,
      "v": 127
    },
    {
      "midi": 70,
      "hit": false,
      "t": 44625,
      "d": 187.5,
      "v": 127
    },
    {
      "midi": 55,
      "hit": false,
      "t": 44625,
      "d": 375,
      "v": 127
    },
    {
      "midi": 59,
      "hit": false,
      "t": 44812.5,
      "d": 93.75,
      "v": 127
    },
    {
      "midi": 58,
      "hit": false,
      "t": 44906.25,
      "d": 93.75,
      "v": 127
    },
    {
      "midi": 59,
      "hit": false,
      "t": 45000,
      "d": 187.5,
      "v": 127
    },
    {
      "midi": 56,
      "hit": false,
      "t": 45000,
      "d": 375,
      "v": 127
    },
    {
      "midi": 68,
      "hit": false,
      "t": 45187.5,
      "d": 187.5,
      "v": 127
    },
    {
      "midi": 64,
      "hit": false,
      "t": 45375,
      "d": 187.5,
      "v": 127
    },
    {
      "midi": 49,
      "hit": false,
      "t": 45375,
      "d": 375,
      "v": 127
    },
    {
      "midi": 61,
      "hit": false,
      "t": 45562.5,
      "d": 187.5,
      "v": 127
    },
    {
      "midi": 58,
      "hit": false,
      "t": 45750,
      "d": 187.5,
      "v": 127
    },
    {
      "midi": 51,
      "hit": false,
      "t": 45750,
      "d": 375,
      "v": 127
    },
    {
      "midi": 67,
      "hit": false,
      "t": 45937.5,
      "d": 187.5,
      "v": 127
    },
    {
      "midi": 68,
      "hit": false,
      "t": 46125,
      "d": 187.5,
      "v": 127
    },
    {
      "midi": 44,
      "hit": false,
      "t": 46125,
      "d": 375,
      "v": 127
    },
    {
      "midi": 63,
      "hit": false,
      "t": 46312.5,
      "d": 187.5,
      "v": 127
    },
    {
      "midi": 59,
      "hit": false,
      "t": 46500,
      "d": 187.5,
      "v": 127
    },
    {
      "midi": 56,
      "hit": false,
      "t": 46687.5,
      "d": 187.5,
      "v": 127
    },
    {
      "midi": 44,
      "hit": false,
      "t": 46687.5,
      "d": 187.5,
      "v": 127
    },
    {
      "midi": 56,
      "hit": false,
      "t": 46875,
      "d": 187.5,
      "v": 127
    },
    {
      "midi": 54,
      "hit": false,
      "t": 47062.5,
      "d": 375,
      "v": 127
    },
    {
      "midi": 64,
      "hit": false,
      "t": 47250,
      "d": 375,
      "v": 127
    },
    {
      "midi": 52,
      "hit": false,
      "t": 47437.5,
      "d": 375,
      "v": 127
    },
    {
      "midi": 66,
      "hit": false,
      "t": 47625,
      "d": 375,
      "v": 127
    },
    {
      "midi": 51,
      "hit": false,
      "t": 47812.5,
      "d": 187.5,
      "v": 127
    },
    {
      "midi": 68,
      "hit": false,
      "t": 48000,
      "d": 375,
      "v": 127
    },
    {
      "midi": 50,
      "hit": false,
      "t": 48187.5,
      "d": 375,
      "v": 127
    },
    {
      "midi": 69,
      "hit": false,
      "t": 48375,
      "d": 375,
      "v": 127
    },
    {
      "midi": 49,
      "hit": false,
      "t": 48562.5,
      "d": 375,
      "v": 127
    },
    {
      "midi": 71,
      "hit": false,
      "t": 48750,
      "d": 375,
      "v": 127
    },
    {
      "midi": 47,
      "hit": false,
      "t": 48937.5,
      "d": 375,
      "v": 127
    },
    {
      "midi": 73,
      "hit": false,
      "t": 49125,
      "d": 375,
      "v": 127
    },
    {
      "midi": 45,
      "hit": false,
      "t": 49312.5,
      "d": 375,
      "v": 127
    },
    {
      "midi": 75,
      "hit": false,
      "t": 49500,
      "d": 375,
      "v": 127
    },
    {
      "midi": 44,
      "hit": false,
      "t": 49687.5,
      "d": 375,
      "v": 127
    },
    {
      "midi": 76,
      "hit": false,
      "t": 49875,
      "d": 187.5,
      "v": 127
    },
    {
      "midi": 75,
      "hit": false,
      "t": 50062.5,
      "d": 187.5,
      "v": 127
    },
    {
      "midi": 42,
      "hit": false,
      "t": 50062.5,
      "d": 375,
      "v": 127
    },
    {
      "midi": 73,
      "hit": false,
      "t": 50250,
      "d": 187.5,
      "v": 127
    },
    {
      "midi": 71,
      "hit": false,
      "t": 50437.5,
      "d": 187.5,
      "v": 127
    },
    {
      "midi": 44,
      "hit": false,
      "t": 50437.5,
      "d": 93.75,
      "v": 127
    },
    {
      "midi": 45,
      "hit": false,
      "t": 50531.25,
      "d": 93.75,
      "v": 127
    },
    {
      "midi": 76,
      "hit": false,
      "t": 50625,
      "d": 375,
      "v": 127
    },
    {
      "midi": 44,
      "hit": false,
      "t": 50625,
      "d": 187.5,
      "v": 127
    },
    {
      "midi": 47,
      "hit": false,
      "t": 50812.5,
      "d": 93.75,
      "v": 127
    },
    {
      "midi": 45,
      "hit": false,
      "t": 50906.25,
      "d": 93.75,
      "v": 127
    },
    {
      "midi": 47,
      "hit": false,
      "t": 51000,
      "d": 187.5,
      "v": 127
    },
    {
      "midi": 71,
      "hit": false,
      "t": 51187.5,
      "d": 93.75,
      "v": 127
    },
    {
      "midi": 44,
      "hit": false,
      "t": 51187.5,
      "d": 93.75,
      "v": 127
    },
    {
      "midi": 69,
      "hit": false,
      "t": 51281.25,
      "d": 93.75,
      "v": 127
    },
    {
      "midi": 42,
      "hit": false,
      "t": 51281.25,
      "d": 93.75,
      "v": 127
    },
    {
      "midi": 71,
      "hit": false,
      "t": 51375,
      "d": 187.5,
      "v": 127
    },
    {
      "midi": 44,
      "hit": false,
      "t": 51375,
      "d": 187.5,
      "v": 127
    },
    {
      "midi": 68,
      "hit": false,
      "t": 51562.5,
      "d": 93.75,
      "v": 127
    },
    {
      "midi": 40,
      "hit": false,
      "t": 51562.5,
      "d": 93.75,
      "v": 127
    },
    {
      "midi": 66,
      "hit": false,
      "t": 51656.25,
      "d": 93.75,
      "v": 127
    },
    {
      "midi": 39,
      "hit": false,
      "t": 51656.25,
      "d": 93.75,
      "v": 127
    },
    {
      "midi": 68,
      "hit": false,
      "t": 51750,
      "d": 187.5,
      "v": 127
    },
    {
      "midi": 40,
      "hit": false,
      "t": 51750,
      "d": 375,
      "v": 127
    },
    {
      "midi": 76,
      "hit": false,
      "t": 51937.5,
      "d": 375,
      "v": 127
    },
    {
      "midi": 42,
      "hit": false,
      "t": 52125,
      "d": 375,
      "v": 127
    },
    {
      "midi": 75,
      "hit": false,
      "t": 52312.5,
      "d": 375,
      "v": 127
    },
    {
      "midi": 44,
      "hit": false,
      "t": 52500,
      "d": 375,
      "v": 127
    },
    {
      "midi": 74,
      "hit": false,
      "t": 52687.5,
      "d": 375,
      "v": 127
    },
    {
      "midi": 45,
      "hit": false,
      "t": 52875,
      "d": 375,
      "v": 127
    },
    {
      "midi": 73,
      "hit": false,
      "t": 53062.5,
      "d": 375,
      "v": 127
    },
    {
      "midi": 47,
      "hit": false,
      "t": 53250,
      "d": 375,
      "v": 127
    },
    {
      "midi": 71,
      "hit": false,
      "t": 53437.5,
      "d": 375,
      "v": 127
    },
    {
      "midi": 49,
      "hit": false,
      "t": 53625,
      "d": 375,
      "v": 127
    },
    {
      "midi": 69,
      "hit": false,
      "t": 53812.5,
      "d": 187.5,
      "v": 127
    },
    {
      "midi": 51,
      "hit": false,
      "t": 54000,
      "d": 375,
      "v": 127
    },
    {
      "midi": 68,
      "hit": false,
      "t": 54187.5,
      "d": 375,
      "v": 127
    },
    {
      "midi": 52,
      "hit": false,
      "t": 54375,
      "d": 187.5,
      "v": 127
    },
    {
      "midi": 66,
      "hit": false,
      "t": 54562.5,
      "d": 375,
      "v": 127
    },
    {
      "midi": 51,
      "hit": false,
      "t": 54562.5,
      "d": 187.5,
      "v": 127
    },
    {
      "midi": 49,
      "hit": false,
      "t": 54750,
      "d": 187.5,
      "v": 127
    },
    {
      "midi": 68,
      "hit": false,
      "t": 54937.5,
      "d": 93.75,
      "v": 127
    },
    {
      "midi": 47,
      "hit": false,
      "t": 54937.5,
      "d": 187.5,
      "v": 127
    },
    {
      "midi": 69,
      "hit": false,
      "t": 55031.25,
      "d": 93.75,
      "v": 127
    },
    {
      "midi": 68,
      "hit": false,
      "t": 55125,
      "d": 187.5,
      "v": 127
    },
    {
      "midi": 52,
      "hit": false,
      "t": 55125,
      "d": 562.5,
      "v": 127
    },
    {
      "midi": 71,
      "hit": false,
      "t": 55312.5,
      "d": 93.75,
      "v": 127
    },
    {
      "midi": 69,
      "hit": false,
      "t": 55406.25,
      "d": 93.75,
      "v": 127
    },
    {
      "midi": 71,
      "hit": false,
      "t": 55500,
      "d": 187.5,
      "v": 127
    },
    {
      "midi": 68,
      "hit": false,
      "t": 55687.5,
      "d": 93.75,
      "v": 127
    },
    {
      "midi": 59,
      "hit": false,
      "t": 55687.5,
      "d": 93.75,
      "v": 127
    },
    {
      "midi": 66,
      "hit": false,
      "t": 55781.25,
      "d": 93.75,
      "v": 127
    },
    {
      "midi": 57,
      "hit": false,
      "t": 55781.25,
      "d": 93.75,
      "v": 127
    },
    {
      "midi": 68,
      "hit": false,
      "t": 55875,
      "d": 187.5,
      "v": 127
    },
    {
      "midi": 59,
      "hit": false,
      "t": 55875,
      "d": 187.5,
      "v": 127
    },
    {
      "midi": 64,
      "hit": false,
      "t": 56062.5,
      "d": 93.75,
      "v": 127
    },
    {
      "midi": 56,
      "hit": false,
      "t": 56062.5,
      "d": 93.75,
      "v": 127
    },
    {
      "midi": 63,
      "hit": false,
      "t": 56156.25,
      "d": 93.75,
      "v": 127
    },
    {
      "midi": 54,
      "hit": false,
      "t": 56156.25,
      "d": 93.75,
      "v": 127
    },
    {
      "midi": 64,
      "hit": false,
      "t": 56250,
      "d": 375,
      "v": 127
    },
    {
      "midi": 56,
      "hit": false,
      "t": 56250,
      "d": 187.5,
      "v": 127
    },
    {
      "midi": 61,
      "hit": false,
      "t": 56437.5,
      "d": 375,
      "v": 127
    },
    {
      "midi": 66,
      "hit": false,
      "t": 56625,
      "d": 375,
      "v": 127
    },
    {
      "midi": 57,
      "hit": false,
      "t": 56812.5,
      "d": 187.5,
      "v": 127
    },
    {
      "midi": 69,
      "hit": false,
      "t": 57000,
      "d": 375,
      "v": 127
    },
    {
      "midi": 54,
      "hit": false,
      "t": 57187.5,
      "d": 375,
      "v": 127
    },
    {
      "midi": 71,
      "hit": false,
      "t": 57375,
      "d": 375,
      "v": 127
    },
    {
      "midi": 57,
      "hit": false,
      "t": 57562.5,
      "d": 93.75,
      "v": 127
    },
    {
      "midi": 56,
      "hit": false,
      "t": 57656.25,
      "d": 93.75,
      "v": 127
    },
    {
      "midi": 75,
      "hit": false,
      "t": 57750,
      "d": 375,
      "v": 127
    },
    {
      "midi": 57,
      "hit": false,
      "t": 57750,
      "d": 187.5,
      "v": 127
    },
    {
      "midi": 54,
      "hit": false,
      "t": 57937.5,
      "d": 187.5,
      "v": 127
    },
    {
      "midi": 78,
      "hit": false,
      "t": 58125,
      "d": 375,
      "v": 127
    },
    {
      "midi": 51,
      "hit": false,
      "t": 58125,
      "d": 187.5,
      "v": 127
    },
    {
      "midi": 47,
      "hit": false,
      "t": 58312.5,
      "d": 375,
      "v": 127
    },
    {
      "midi": 63,
      "hit": false,
      "t": 58500,
      "d": 375,
      "v": 127
    },
    {
      "midi": 59,
      "hit": false,
      "t": 58687.5,
      "d": 375,
      "v": 127
    },
    {
      "midi": 64,
      "hit": false,
      "t": 58875,
      "d": 375,
      "v": 127
    },
    {
      "midi": 56,
      "hit": false,
      "t": 59062.5,
      "d": 375,
      "v": 127
    },
    {
      "midi": 68,
      "hit": false,
      "t": 59250,
      "d": 375,
      "v": 127
    },
    {
      "midi": 52,
      "hit": false,
      "t": 59437.5,
      "d": 375,
      "v": 127
    },
    {
      "midi": 69,
      "hit": false,
      "t": 59625,
      "d": 375,
      "v": 127
    },
    {
      "midi": 56,
      "hit": false,
      "t": 59812.5,
      "d": 93.75,
      "v": 127
    },
    {
      "midi": 54,
      "hit": false,
      "t": 59906.25,
      "d": 93.75,
      "v": 127
    },
    {
      "midi": 73,
      "hit": false,
      "t": 60000,
      "d": 375,
      "v": 127
    },
    {
      "midi": 56,
      "hit": false,
      "t": 60000,
      "d": 187.5,
      "v": 127
    },
    {
      "midi": 52,
      "hit": false,
      "t": 60187.5,
      "d": 187.5,
      "v": 127
    },
    {
      "midi": 76,
      "hit": false,
      "t": 60375,
      "d": 375,
      "v": 127
    },
    {
      "midi": 49,
      "hit": false,
      "t": 60375,
      "d": 187.5,
      "v": 127
    },
    {
      "midi": 45,
      "hit": false,
      "t": 60562.5,
      "d": 375,
      "v": 127
    },
    {
      "midi": 61,
      "hit": false,
      "t": 60750,
      "d": 375,
      "v": 127
    },
    {
      "midi": 57,
      "hit": false,
      "t": 60937.5,
      "d": 375,
      "v": 127
    },
    {
      "midi": 66,
      "hit": false,
      "t": 61125,
      "d": 375,
      "v": 127
    },
    {
      "midi": 54,
      "hit": false,
      "t": 61312.5,
      "d": 375,
      "v": 127
    },
    {
      "midi": 69,
      "hit": false,
      "t": 61500,
      "d": 375,
      "v": 127
    },
    {
      "midi": 51,
      "hit": false,
      "t": 61687.5,
      "d": 375,
      "v": 127
    },
    {
      "midi": 71,
      "hit": false,
      "t": 61875,
      "d": 375,
      "v": 127
    },
    {
      "midi": 61,
      "hit": false,
      "t": 62062.5,
      "d": 375,
      "v": 127
    },
    {
      "midi": 73,
      "hit": false,
      "t": 62250,
      "d": 375,
      "v": 127
    },
    {
      "midi": 59,
      "hit": false,
      "t": 62437.5,
      "d": 375,
      "v": 127
    },
    {
      "midi": 75,
      "hit": false,
      "t": 62625,
      "d": 375,
      "v": 127
    },
    {
      "midi": 57,
      "hit": false,
      "t": 62812.5,
      "d": 187.5,
      "v": 127
    },
    {
      "midi": 76,
      "hit": false,
      "t": 63000,
      "d": 375,
      "v": 127
    },
    {
      "midi": 56,
      "hit": false,
      "t": 63187.5,
      "d": 375,
      "v": 127
    },
    {
      "midi": 73,
      "hit": false,
      "t": 63375,
      "d": 375,
      "v": 127
    },
    {
      "midi": 54,
      "hit": false,
      "t": 63562.5,
      "d": 375,
      "v": 127
    },
    {
      "midi": 69,
      "hit": false,
      "t": 63750,
      "d": 375,
      "v": 127
    },
    {
      "midi": 52,
      "hit": false,
      "t": 63937.5,
      "d": 187.5,
      "v": 127
    },
    {
      "midi": 78,
      "hit": false,
      "t": 64125,
      "d": 1125,
      "v": 127
    },
    {
      "midi": 51,
      "hit": false,
      "t": 64125,
      "d": 187.5,
      "v": 127
    },
    {
      "midi": 57,
      "hit": false,
      "t": 64312.5,
      "d": 93.75,
      "v": 127
    },
    {
      "midi": 56,
      "hit": false,
      "t": 64406.25,
      "d": 93.75,
      "v": 127
    },
    {
      "midi": 57,
      "hit": false,
      "t": 64500,
      "d": 187.5,
      "v": 127
    },
    {
      "midi": 51,
      "hit": false,
      "t": 64687.5,
      "d": 93.75,
      "v": 127
    },
    {
      "midi": 49,
      "hit": false,
      "t": 64781.25,
      "d": 93.75,
      "v": 127
    },
    {
      "midi": 51,
      "hit": false,
      "t": 64875,
      "d": 187.5,
      "v": 127
    },
    {
      "midi": 56,
      "hit": false,
      "t": 65062.5,
      "d": 93.75,
      "v": 127
    },
    {
      "midi": 54,
      "hit": false,
      "t": 65156.25,
      "d": 93.75,
      "v": 127
    },
    {
      "midi": 56,
      "hit": false,
      "t": 65250,
      "d": 375,
      "v": 127
    },
    {
      "midi": 76,
      "hit": false,
      "t": 65437.5,
      "d": 187.5,
      "v": 127
    },
    {
      "midi": 75,
      "hit": false,
      "t": 65625,
      "d": 187.5,
      "v": 127
    },
    {
      "midi": 57,
      "hit": false,
      "t": 65625,
      "d": 375,
      "v": 127
    },
    {
      "midi": 73,
      "hit": false,
      "t": 65812.5,
      "d": 187.5,
      "v": 127
    },
    {
      "midi": 71,
      "hit": false,
      "t": 66000,
      "d": 187.5,
      "v": 127
    },
    {
      "midi": 59,
      "hit": false,
      "t": 66000,
      "d": 375,
      "v": 127
    },
    {
      "midi": 69,
      "hit": false,
      "t": 66187.5,
      "d": 187.5,
      "v": 127
    },
    {
      "midi": 68,
      "hit": false,
      "t": 66375,
      "d": 187.5,
      "v": 127
    },
    {
      "midi": 52,
      "hit": false,
      "t": 66375,
      "d": 375,
      "v": 127
    },
    {
      "midi": 64,
      "hit": false,
      "t": 66562.5,
      "d": 93.75,
      "v": 127
    },
    {
      "midi": 63,
      "hit": false,
      "t": 66656.25,
      "d": 93.75,
      "v": 127
    },
    {
      "midi": 64,
      "hit": false,
      "t": 66750,
      "d": 187.5,
      "v": 127
    },
    {
      "midi": 68,
      "hit": false,
      "t": 66937.5,
      "d": 93.75,
      "v": 127
    },
    {
      "midi": 64,
      "hit": false,
      "t": 66937.5,
      "d": 187.5,
      "v": 127
    },
    {
      "midi": 66,
      "hit": false,
      "t": 67031.25,
      "d": 93.75,
      "v": 127
    },
    {
      "midi": 68,
      "hit": false,
      "t": 67125,
      "d": 187.5,
      "v": 127
    },
    {
      "midi": 59,
      "hit": false,
      "t": 67125,
      "d": 187.5,
      "v": 127
    },
    {
      "midi": 71,
      "hit": false,
      "t": 67312.5,
      "d": 93.75,
      "v": 127
    },
    {
      "midi": 56,
      "hit": false,
      "t": 67312.5,
      "d": 187.5,
      "v": 127
    },
    {
      "midi": 69,
      "hit": false,
      "t": 67406.25,
      "d": 93.75,
      "v": 127
    },
    {
      "midi": 71,
      "hit": false,
      "t": 67500,
      "d": 187.5,
      "v": 127
    },
    {
      "midi": 52,
      "hit": false,
      "t": 67500,
      "d": 187.5,
      "v": 127
    },
    {
      "midi": 68,
      "hit": false,
      "t": 67687.5,
      "d": 93.75,
      "v": 127
    },
    {
      "midi": 59,
      "hit": false,
      "t": 67687.5,
      "d": 187.5,
      "v": 127
    },
    {
      "midi": 66,
      "hit": false,
      "t": 67781.25,
      "d": 93.75,
      "v": 127
    },
    {
      "midi": 68,
      "hit": false,
      "t": 67875,
      "d": 187.5,
      "v": 127
    },
    {
      "midi": 56,
      "hit": false,
      "t": 67875,
      "d": 187.5,
      "v": 127
    },
    {
      "midi": 71,
      "hit": false,
      "t": 68062.5,
      "d": 93.75,
      "v": 127
    },
    {
      "midi": 52,
      "hit": false,
      "t": 68062.5,
      "d": 187.5,
      "v": 127
    },
    {
      "midi": 69,
      "hit": false,
      "t": 68156.25,
      "d": 93.75,
      "v": 127
    },
    {
      "midi": 71,
      "hit": false,
      "t": 68250,
      "d": 187.5,
      "v": 127
    },
    {
      "midi": 47,
      "hit": false,
      "t": 68250,
      "d": 187.5,
      "v": 127
    },
    {
      "midi": 76,
      "hit": false,
      "t": 68437.5,
      "d": 93.75,
      "v": 127
    },
    {
      "midi": 44,
      "hit": false,
      "t": 68437.5,
      "d": 187.5,
      "v": 127
    },
    {
      "midi": 75,
      "hit": false,
      "t": 68531.25,
      "d": 93.75,
      "v": 127
    },
    {
      "midi": 76,
      "hit": false,
      "t": 68625,
      "d": 187.5,
      "v": 127
    },
    {
      "midi": 40,
      "hit": false,
      "t": 68625,
      "d": 375,
      "v": 127
    },
    {
      "midi": 71,
      "hit": false,
      "t": 68812.5,
      "d": 187.5,
      "v": 127
    },
    {
      "midi": 68,
      "hit": false,
      "t": 69000,
      "d": 187.5,
      "v": 127
    },
    {
      "midi": 64,
      "hit": false,
      "t": 69187.5,
      "d": 187.5,
      "v": 127
    },
    {
      "midi": 52,
      "hit": false,
      "t": 69375,
      "d": 375,
      "v": 127
    }
  ]
}