{
  "jsonPath": "Classical/Classical/Johann Sebastian Bach/invention-8.json",
  "path": "Classical\\Classical\\Johann Sebastian Bach\\Invention 8.mid",
  "name": "Invention 8",
  "difficulty": "Advanced",
  "bpm": 90.00009000009,
  "notes": [
    {
      "midi": 65,
      "hit": false,
      "t": 333.33299999999997,
      "d": 333.33299999999997,
      "v": 127
    },
    {
      "midi": 69,
      "hit": false,
      "t": 666.6659999999999,
      "d": 333.33299999999997,
      "v": 127
    },
    {
      "midi": 65,
      "hit": false,
      "t": 999.9989999999999,
      "d": 333.33299999999997,
      "v": 127
    },
    {
      "midi": 72,
      "hit": false,
      "t": 1333.3319999999999,
      "d": 333.3330000000001,
      "v": 127
    },
    {
      "midi": 65,
      "hit": false,
      "t": 1666.665,
      "d": 333.3330000000001,
      "v": 127
    },
    {
      "midi": 77,
      "hit": false,
      "t": 1999.998,
      "d": 333.3330000000001,
      "v": 127
    },
    {
      "midi": 76,
      "hit": false,
      "t": 2333.331,
      "d": 166.66649999999981,
      "v": 127
    },
    {
      "midi": 53,
      "hit": false,
      "t": 2333.331,
      "d": 333.3330000000001,
      "v": 127
    },
    {
      "midi": 74,
      "hit": false,
      "t": 2499.9975,
      "d": 166.66649999999981,
      "v": 127
    },
    {
      "midi": 72,
      "hit": false,
      "t": 2666.6639999999998,
      "d": 166.66649999999981,
      "v": 127
    },
    {
      "midi": 57,
      "hit": false,
      "t": 2666.664,
      "d": 333.3330000000001,
      "v": 127
    },
    {
      "midi": 74,
      "hit": false,
      "t": 2833.3304999999996,
      "d": 166.66649999999981,
      "v": 127
    },
    {
      "midi": 72,
      "hit": false,
      "t": 2999.9969999999994,
      "d": 166.66649999999981,
      "v": 127
    },
    {
      "midi": 53,
      "hit": false,
      "t": 2999.9970000000003,
      "d": 333.3330000000001,
      "v": 127
    },
    {
      "midi": 70,
      "hit": false,
      "t": 3166.663499999999,
      "d": 166.66649999999981,
      "v": 127
    },
    {
      "midi": 69,
      "hit": false,
      "t": 3333.329999999999,
      "d": 166.66649999999981,
      "v": 127
    },
    {
      "midi": 60,
      "hit": false,
      "t": 3333.3300000000004,
      "d": 333.3330000000001,
      "v": 127
    },
    {
      "midi": 70,
      "hit": false,
      "t": 3499.996499999999,
      "d": 166.66649999999981,
      "v": 127
    },
    {
      "midi": 69,
      "hit": false,
      "t": 3666.6629999999986,
      "d": 166.66649999999981,
      "v": 127
    },
    {
      "midi": 53,
      "hit": false,
      "t": 3666.6630000000005,
      "d": 333.3330000000001,
      "v": 127
    },
    {
      "midi": 67,
      "hit": false,
      "t": 3833.3294999999985,
      "d": 166.66649999999981,
      "v": 127
    },
    {
      "midi": 65,
      "hit": false,
      "t": 3999.9959999999983,
      "d": 333.33299999999963,
      "v": 127
    },
    {
      "midi": 65,
      "hit": false,
      "t": 3999.9960000000005,
      "d": 333.3330000000001,
      "v": 127
    },
    {
      "midi": 69,
      "hit": false,
      "t": 4333.328999999998,
      "d": 333.33299999999963,
      "v": 127
    },
    {
      "midi": 64,
      "hit": false,
      "t": 4333.329000000001,
      "d": 166.66650000000027,
      "v": 127
    },
    {
      "midi": 62,
      "hit": false,
      "t": 4499.995500000001,
      "d": 166.66650000000027,
      "v": 127
    },
    {
      "midi": 72,
      "hit": false,
      "t": 4666.6619999999975,
      "d": 333.33299999999963,
      "v": 127
    },
    {
      "midi": 60,
      "hit": false,
      "t": 4666.662000000001,
      "d": 166.66650000000027,
      "v": 127
    },
    {
      "midi": 62,
      "hit": false,
      "t": 4833.328500000001,
      "d": 166.66650000000027,
      "v": 127
    },
    {
      "midi": 69,
      "hit": false,
      "t": 4999.994999999997,
      "d": 333.33299999999963,
      "v": 127
    },
    {
      "midi": 60,
      "hit": false,
      "t": 4999.995000000002,
      "d": 166.66650000000027,
      "v": 127
    },
    {
      "midi": 58,
      "hit": false,
      "t": 5166.661500000002,
      "d": 166.66650000000027,
      "v": 127
    },
    {
      "midi": 77,
      "hit": false,
      "t": 5333.327999999997,
      "d": 333.33299999999963,
      "v": 127
    },
    {
      "midi": 57,
      "hit": false,
      "t": 5333.328000000002,
      "d": 166.66650000000027,
      "v": 127
    },
    {
      "midi": 58,
      "hit": false,
      "t": 5499.9945000000025,
      "d": 166.66650000000027,
      "v": 127
    },
    {
      "midi": 72,
      "hit": false,
      "t": 5666.660999999996,
      "d": 333.33299999999963,
      "v": 127
    },
    {
      "midi": 57,
      "hit": false,
      "t": 5666.661000000003,
      "d": 166.66650000000027,
      "v": 127
    },
    {
      "midi": 55,
      "hit": false,
      "t": 5833.327500000003,
      "d": 166.66650000000027,
      "v": 127
    },
    {
      "midi": 81,
      "hit": false,
      "t": 5999.993999999996,
      "d": 166.66650000000027,
      "v": 127
    },
    {
      "midi": 53,
      "hit": false,
      "t": 5999.994000000003,
      "d": 333.33299999999963,
      "v": 127
    },
    {
      "midi": 84,
      "hit": false,
      "t": 6166.660499999996,
      "d": 166.66650000000027,
      "v": 127
    },
    {
      "midi": 82,
      "hit": false,
      "t": 6333.326999999997,
      "d": 166.66650000000027,
      "v": 127
    },
    {
      "midi": 57,
      "hit": false,
      "t": 6333.327000000003,
      "d": 333.33299999999963,
      "v": 127
    },
    {
      "midi": 84,
      "hit": false,
      "t": 6499.993499999997,
      "d": 166.66650000000027,
      "v": 127
    },
    {
      "midi": 81,
      "hit": false,
      "t": 6666.659999999997,
      "d": 166.66650000000027,
      "v": 127
    },
    {
      "midi": 60,
      "hit": false,
      "t": 6666.660000000003,
      "d": 333.33299999999963,
      "v": 127
    },
    {
      "midi": 84,
      "hit": false,
      "t": 6833.326499999997,
      "d": 166.66650000000027,
      "v": 127
    },
    {
      "midi": 82,
      "hit": false,
      "t": 6999.992999999998,
      "d": 166.66650000000027,
      "v": 127
    },
    {
      "midi": 57,
      "hit": false,
      "t": 6999.993000000002,
      "d": 333.33299999999963,
      "v": 127
    },
    {
      "midi": 84,
      "hit": false,
      "t": 7166.659499999998,
      "d": 166.66650000000027,
      "v": 127
    },
    {
      "midi": 81,
      "hit": false,
      "t": 7333.325999999998,
      "d": 166.66650000000027,
      "v": 127
    },
    {
      "midi": 65,
      "hit": false,
      "t": 7333.326000000002,
      "d": 333.33299999999963,
      "v": 127
    },
    {
      "midi": 84,
      "hit": false,
      "t": 7499.9924999999985,
      "d": 166.66650000000027,
      "v": 127
    },
    {
      "midi": 82,
      "hit": false,
      "t": 7666.658999999999,
      "d": 166.66650000000027,
      "v": 127
    },
    {
      "midi": 60,
      "hit": false,
      "t": 7666.6590000000015,
      "d": 333.33299999999963,
      "v": 127
    },
    {
      "midi": 84,
      "hit": false,
      "t": 7833.325499999999,
      "d": 166.66650000000027,
      "v": 127
    },
    {
      "midi": 77,
      "hit": false,
      "t": 7999.991999999999,
      "d": 166.66650000000027,
      "v": 127
    },
    {
      "midi": 69,
      "hit": false,
      "t": 7999.992000000001,
      "d": 166.66650000000027,
      "v": 127
    },
    {
      "midi": 81,
      "hit": false,
      "t": 8166.6585,
      "d": 166.66649999999936,
      "v": 127
    },
    {
      "midi": 72,
      "hit": false,
      "t": 8166.658500000001,
      "d": 166.66649999999936,
      "v": 127
    },
    {
      "midi": 79,
      "hit": false,
      "t": 8333.324999999999,
      "d": 166.66649999999936,
      "v": 127
    },
    {
      "midi": 70,
      "hit": false,
      "t": 8333.325,
      "d": 166.66649999999936,
      "v": 127
    },
    {
      "midi": 81,
      "hit": false,
      "t": 8499.991499999998,
      "d": 166.66649999999936,
      "v": 127
    },
    {
      "midi": 72,
      "hit": false,
      "t": 8499.9915,
      "d": 166.66649999999936,
      "v": 127
    },
    {
      "midi": 77,
      "hit": false,
      "t": 8666.657999999998,
      "d": 166.66649999999936,
      "v": 127
    },
    {
      "midi": 69,
      "hit": false,
      "t": 8666.658,
      "d": 166.66649999999936,
      "v": 127
    },
    {
      "midi": 81,
      "hit": false,
      "t": 8833.324499999997,
      "d": 166.66649999999936,
      "v": 127
    },
    {
      "midi": 72,
      "hit": false,
      "t": 8833.324499999999,
      "d": 166.66649999999936,
      "v": 127
    },
    {
      "midi": 79,
      "hit": false,
      "t": 8999.990999999996,
      "d": 166.66649999999936,
      "v": 127
    },
    {
      "midi": 70,
      "hit": false,
      "t": 8999.990999999998,
      "d": 166.66649999999936,
      "v": 127
    },
    {
      "midi": 81,
      "hit": false,
      "t": 9166.657499999996,
      "d": 166.66649999999936,
      "v": 127
    },
    {
      "midi": 72,
      "hit": false,
      "t": 9166.657499999998,
      "d": 166.66649999999936,
      "v": 127
    },
    {
      "midi": 77,
      "hit": false,
      "t": 9333.323999999995,
      "d": 166.66649999999936,
      "v": 127
    },
    {
      "midi": 69,
      "hit": false,
      "t": 9333.323999999997,
      "d": 166.66649999999936,
      "v": 127
    },
    {
      "midi": 81,
      "hit": false,
      "t": 9499.990499999994,
      "d": 166.66649999999936,
      "v": 127
    },
    {
      "midi": 72,
      "hit": false,
      "t": 9499.990499999996,
      "d": 166.66649999999936,
      "v": 127
    },
    {
      "midi": 79,
      "hit": false,
      "t": 9666.656999999994,
      "d": 166.66649999999936,
      "v": 127
    },
    {
      "midi": 70,
      "hit": false,
      "t": 9666.656999999996,
      "d": 166.66649999999936,
      "v": 127
    },
    {
      "midi": 81,
      "hit": false,
      "t": 9833.323499999993,
      "d": 166.66649999999936,
      "v": 127
    },
    {
      "midi": 72,
      "hit": false,
      "t": 9833.323499999995,
      "d": 166.66649999999936,
      "v": 127
    },
    {
      "midi": 74,
      "hit": false,
      "t": 9999.989999999993,
      "d": 166.66649999999936,
      "v": 127
    },
    {
      "midi": 65,
      "hit": false,
      "t": 9999.989999999994,
      "d": 166.66649999999936,
      "v": 127
    },
    {
      "midi": 77,
      "hit": false,
      "t": 10166.656499999992,
      "d": 166.66649999999936,
      "v": 127
    },
    {
      "midi": 69,
      "hit": false,
      "t": 10166.656499999994,
      "d": 166.66649999999936,
      "v": 127
    },
    {
      "midi": 76,
      "hit": false,
      "t": 10333.322999999991,
      "d": 166.66649999999936,
      "v": 127
    },
    {
      "midi": 67,
      "hit": false,
      "t": 10333.322999999993,
      "d": 166.66649999999936,
      "v": 127
    },
    {
      "midi": 77,
      "hit": false,
      "t": 10499.98949999999,
      "d": 166.66649999999936,
      "v": 127
    },
    {
      "midi": 69,
      "hit": false,
      "t": 10499.989499999992,
      "d": 166.66649999999936,
      "v": 127
    },
    {
      "midi": 74,
      "hit": false,
      "t": 10666.65599999999,
      "d": 166.66649999999936,
      "v": 127
    },
    {
      "midi": 65,
      "hit": false,
      "t": 10666.655999999992,
      "d": 166.66649999999936,
      "v": 127
    },
    {
      "midi": 77,
      "hit": false,
      "t": 10833.32249999999,
      "d": 166.66649999999936,
      "v": 127
    },
    {
      "midi": 69,
      "hit": false,
      "t": 10833.322499999991,
      "d": 166.66649999999936,
      "v": 127
    },
    {
      "midi": 76,
      "hit": false,
      "t": 10999.988999999989,
      "d": 166.66649999999936,
      "v": 127
    },
    {
      "midi": 67,
      "hit": false,
      "t": 10999.98899999999,
      "d": 166.66649999999936,
      "v": 127
    },
    {
      "midi": 77,
      "hit": false,
      "t": 11166.655499999988,
      "d": 166.66649999999936,
      "v": 127
    },
    {
      "midi": 69,
      "hit": false,
      "t": 11166.65549999999,
      "d": 166.66649999999936,
      "v": 127
    },
    {
      "midi": 74,
      "hit": false,
      "t": 11333.321999999987,
      "d": 166.66649999999936,
      "v": 127
    },
    {
      "midi": 65,
      "hit": false,
      "t": 11333.32199999999,
      "d": 166.66649999999936,
      "v": 127
    },
    {
      "midi": 77,
      "hit": false,
      "t": 11499.988499999987,
      "d": 166.66649999999936,
      "v": 127
    },
    {
      "midi": 69,
      "hit": false,
      "t": 11499.988499999989,
      "d": 166.66649999999936,
      "v": 127
    },
    {
      "midi": 76,
      "hit": false,
      "t": 11666.654999999986,
      "d": 166.66649999999936,
      "v": 127
    },
    {
      "midi": 67,
      "hit": false,
      "t": 11666.654999999988,
      "d": 166.66649999999936,
      "v": 127
    },
    {
      "midi": 77,
      "hit": false,
      "t": 11833.321499999985,
      "d": 166.66649999999936,
      "v": 127
    },
    {
      "midi": 69,
      "hit": false,
      "t": 11833.321499999987,
      "d": 166.66649999999936,
      "v": 127
    },
    {
      "midi": 71,
      "hit": false,
      "t": 11999.987999999985,
      "d": 333.33300000000054,
      "v": 127
    },
    {
      "midi": 62,
      "hit": false,
      "t": 11999.987999999987,
      "d": 166.66649999999936,
      "v": 127
    },
    {
      "midi": 65,
      "hit": false,
      "t": 12166.654499999986,
      "d": 166.66649999999936,
      "v": 127
    },
    {
      "midi": 67,
      "hit": false,
      "t": 12333.320999999985,
      "d": 333.33300000000054,
      "v": 127
    },
    {
      "midi": 64,
      "hit": false,
      "t": 12333.320999999985,
      "d": 166.66649999999936,
      "v": 127
    },
    {
      "midi": 65,
      "hit": false,
      "t": 12499.987499999985,
      "d": 166.66649999999936,
      "v": 127
    },
    {
      "midi": 62,
      "hit": false,
      "t": 12666.653999999984,
      "d": 166.66649999999936,
      "v": 127
    },
    {
      "midi": 74,
      "hit": false,
      "t": 12666.653999999986,
      "d": 333.33300000000054,
      "v": 127
    },
    {
      "midi": 65,
      "hit": false,
      "t": 12833.320499999983,
      "d": 166.66649999999936,
      "v": 127
    },
    {
      "midi": 64,
      "hit": false,
      "t": 12999.986999999983,
      "d": 166.66649999999936,
      "v": 127
    },
    {
      "midi": 71,
      "hit": false,
      "t": 12999.986999999986,
      "d": 333.33300000000054,
      "v": 127
    },
    {
      "midi": 65,
      "hit": false,
      "t": 13166.653499999982,
      "d": 166.66649999999936,
      "v": 127
    },
    {
      "midi": 62,
      "hit": false,
      "t": 13333.319999999982,
      "d": 166.66649999999936,
      "v": 127
    },
    {
      "midi": 77,
      "hit": false,
      "t": 13333.319999999987,
      "d": 333.33300000000054,
      "v": 127
    },
    {
      "midi": 65,
      "hit": false,
      "t": 13499.98649999998,
      "d": 166.66649999999936,
      "v": 127
    },
    {
      "midi": 64,
      "hit": false,
      "t": 13666.65299999998,
      "d": 166.66649999999936,
      "v": 127
    },
    {
      "midi": 74,
      "hit": false,
      "t": 13666.652999999988,
      "d": 333.33300000000054,
      "v": 127
    },
    {
      "midi": 65,
      "hit": false,
      "t": 13833.31949999998,
      "d": 166.66649999999936,
      "v": 127
    },
    {
      "midi": 59,
      "hit": false,
      "t": 13999.985999999979,
      "d": 333.33300000000054,
      "v": 127
    },
    {
      "midi": 79,
      "hit": false,
      "t": 13999.985999999988,
      "d": 166.66649999999936,
      "v": 127
    },
    {
      "midi": 81,
      "hit": false,
      "t": 14166.652499999987,
      "d": 166.66649999999936,
      "v": 127
    },
    {
      "midi": 55,
      "hit": false,
      "t": 14333.31899999998,
      "d": 333.33300000000054,
      "v": 127
    },
    {
      "midi": 79,
      "hit": false,
      "t": 14333.318999999987,
      "d": 166.66649999999936,
      "v": 127
    },
    {
      "midi": 77,
      "hit": false,
      "t": 14499.985499999986,
      "d": 166.66649999999936,
      "v": 127
    },
    {
      "midi": 60,
      "hit": false,
      "t": 14666.65199999998,
      "d": 333.33300000000054,
      "v": 127
    },
    {
      "midi": 76,
      "hit": false,
      "t": 14666.651999999985,
      "d": 166.66649999999936,
      "v": 127
    },
    {
      "midi": 77,
      "hit": false,
      "t": 14833.318499999985,
      "d": 166.66649999999936,
      "v": 127
    },
    {
      "midi": 55,
      "hit": false,
      "t": 14999.98499999998,
      "d": 333.33300000000054,
      "v": 127
    },
    {
      "midi": 76,
      "hit": false,
      "t": 14999.984999999984,
      "d": 166.66649999999936,
      "v": 127
    },
    {
      "midi": 74,
      "hit": false,
      "t": 15166.651499999984,
      "d": 166.66649999999936,
      "v": 127
    },
    {
      "midi": 64,
      "hit": false,
      "t": 15333.317999999981,
      "d": 333.33300000000054,
      "v": 127
    },
    {
      "midi": 72,
      "hit": false,
      "t": 15333.317999999983,
      "d": 166.66649999999936,
      "v": 127
    },
    {
      "midi": 74,
      "hit": false,
      "t": 15499.984499999982,
      "d": 166.66649999999936,
      "v": 127
    },
    {
      "midi": 72,
      "hit": false,
      "t": 15666.650999999982,
      "d": 166.66649999999936,
      "v": 127
    },
    {
      "midi": 60,
      "hit": false,
      "t": 15666.650999999982,
      "d": 333.33300000000054,
      "v": 127
    },
    {
      "midi": 70,
      "hit": false,
      "t": 15833.317499999981,
      "d": 166.66649999999936,
      "v": 127
    },
    {
      "midi": 69,
      "hit": false,
      "t": 15999.98399999998,
      "d": 333.33300000000054,
      "v": 127
    },
    {
      "midi": 65,
      "hit": false,
      "t": 15999.983999999982,
      "d": 166.66649999999936,
      "v": 127
    },
    {
      "midi": 67,
      "hit": false,
      "t": 16166.650499999982,
      "d": 166.66649999999936,
      "v": 127
    },
    {
      "midi": 74,
      "hit": false,
      "t": 16333.31699999998,
      "d": 166.66649999999936,
      "v": 127
    },
    {
      "midi": 65,
      "hit": false,
      "t": 16333.31699999998,
      "d": 166.66649999999936,
      "v": 127
    },
    {
      "midi": 72,
      "hit": false,
      "t": 16499.98349999998,
      "d": 166.66649999999936,
      "v": 127
    },
    {
      "midi": 64,
      "hit": false,
      "t": 16499.98349999998,
      "d": 166.66649999999936,
      "v": 127
    },
    {
      "midi": 71,
      "hit": false,
      "t": 16666.64999999998,
      "d": 166.66649999999936,
      "v": 127
    },
    {
      "midi": 62,
      "hit": false,
      "t": 16666.64999999998,
      "d": 166.66649999999936,
      "v": 127
    },
    {
      "midi": 72,
      "hit": false,
      "t": 16833.31649999998,
      "d": 166.66649999999936,
      "v": 127
    },
    {
      "midi": 64,
      "hit": false,
      "t": 16833.31649999998,
      "d": 166.66649999999936,
      "v": 127
    },
    {
      "midi": 71,
      "hit": false,
      "t": 16999.98299999998,
      "d": 166.66649999999936,
      "v": 127
    },
    {
      "midi": 62,
      "hit": false,
      "t": 16999.98299999998,
      "d": 166.66649999999936,
      "v": 127
    },
    {
      "midi": 69,
      "hit": false,
      "t": 17166.649499999978,
      "d": 166.66649999999936,
      "v": 127
    },
    {
      "midi": 60,
      "hit": false,
      "t": 17166.649499999978,
      "d": 166.66649999999936,
      "v": 127
    },
    {
      "midi": 67,
      "hit": false,
      "t": 17333.315999999977,
      "d": 166.66649999999936,
      "v": 127
    },
    {
      "midi": 59,
      "hit": false,
      "t": 17333.315999999977,
      "d": 166.66649999999936,
      "v": 127
    },
    {
      "midi": 69,
      "hit": false,
      "t": 17499.982499999976,
      "d": 166.66649999999936,
      "v": 127
    },
    {
      "midi": 60,
      "hit": false,
      "t": 17499.982499999976,
      "d": 166.66649999999936,
      "v": 127
    },
    {
      "midi": 67,
      "hit": false,
      "t": 17666.648999999976,
      "d": 166.66649999999936,
      "v": 127
    },
    {
      "midi": 59,
      "hit": false,
      "t": 17666.648999999976,
      "d": 166.66649999999936,
      "v": 127
    },
    {
      "midi": 65,
      "hit": false,
      "t": 17833.315499999975,
      "d": 166.66649999999936,
      "v": 127
    },
    {
      "midi": 57,
      "hit": false,
      "t": 17833.315499999975,
      "d": 166.66649999999936,
      "v": 127
    },
    {
      "midi": 64,
      "hit": false,
      "t": 17999.981999999975,
      "d": 166.66649999999936,
      "v": 127
    },
    {
      "midi": 55,
      "hit": false,
      "t": 17999.981999999975,
      "d": 333.3329999999987,
      "v": 127
    },
    {
      "midi": 65,
      "hit": false,
      "t": 18166.648499999974,
      "d": 166.66649999999936,
      "v": 127
    },
    {
      "midi": 64,
      "hit": false,
      "t": 18333.314999999973,
      "d": 166.66649999999936,
      "v": 127
    },
    {
      "midi": 60,
      "hit": false,
      "t": 18333.314999999973,
      "d": 166.66649999999936,
      "v": 127
    },
    {
      "midi": 62,
      "hit": false,
      "t": 18499.981499999973,
      "d": 166.66649999999936,
      "v": 127
    },
    {
      "midi": 59,
      "hit": false,
      "t": 18499.981499999973,
      "d": 166.66649999999936,
      "v": 127
    },
    {
      "midi": 60,
      "hit": false,
      "t": 18666.647999999972,
      "d": 333.3329999999987,
      "v": 127
    },
    {
      "midi": 57,
      "hit": false,
      "t": 18666.647999999972,
      "d": 166.66649999999936,
      "v": 127
    },
    {
      "midi": 59,
      "hit": false,
      "t": 18833.31449999997,
      "d": 166.66649999999936,
      "v": 127
    },
    {
      "midi": 72,
      "hit": false,
      "t": 18999.98099999997,
      "d": 166.66649999999936,
      "v": 127
    },
    {
      "midi": 57,
      "hit": false,
      "t": 18999.98099999997,
      "d": 166.66649999999936,
      "v": 127
    },
    {
      "midi": 71,
      "hit": false,
      "t": 19166.64749999997,
      "d": 166.66649999999936,
      "v": 127
    },
    {
      "midi": 55,
      "hit": false,
      "t": 19166.64749999997,
      "d": 166.66649999999936,
      "v": 127
    },
    {
      "midi": 72,
      "hit": false,
      "t": 19333.31399999997,
      "d": 333.3329999999987,
      "v": 127
    },
    {
      "midi": 53,
      "hit": false,
      "t": 19333.31399999997,
      "d": 166.66649999999936,
      "v": 127
    },
    {
      "midi": 55,
      "hit": false,
      "t": 19499.98049999997,
      "d": 166.66649999999936,
      "v": 127
    },
    {
      "midi": 64,
      "hit": false,
      "t": 19666.646999999968,
      "d": 333.3329999999987,
      "v": 127
    },
    {
      "midi": 53,
      "hit": false,
      "t": 19666.646999999968,
      "d": 166.66649999999936,
      "v": 127
    },
    {
      "midi": 52,
      "hit": false,
      "t": 19833.313499999967,
      "d": 166.66649999999936,
      "v": 127
    },
    {
      "midi": 65,
      "hit": false,
      "t": 19999.979999999967,
      "d": 333.3329999999987,
      "v": 127
    },
    {
      "midi": 50,
      "hit": false,
      "t": 19999.979999999967,
      "d": 166.66649999999936,
      "v": 127
    },
    {
      "midi": 52,
      "hit": false,
      "t": 20166.646499999966,
      "d": 166.66649999999936,
      "v": 127
    },
    {
      "midi": 72,
      "hit": false,
      "t": 20333.312999999966,
      "d": 333.3329999999987,
      "v": 127
    },
    {
      "midi": 50,
      "hit": false,
      "t": 20333.312999999966,
      "d": 166.66649999999936,
      "v": 127
    },
    {
      "midi": 48,
      "hit": false,
      "t": 20499.979499999965,
      "d": 166.66649999999936,
      "v": 127
    },
    {
      "midi": 64,
      "hit": false,
      "t": 20666.645999999964,
      "d": 333.3329999999987,
      "v": 127
    },
    {
      "midi": 55,
      "hit": false,
      "t": 20666.645999999964,
      "d": 166.66649999999936,
      "v": 127
    },
    {
      "midi": 53,
      "hit": false,
      "t": 20833.312499999964,
      "d": 166.66649999999936,
      "v": 127
    },
    {
      "midi": 72,
      "hit": false,
      "t": 20999.978999999963,
      "d": 333.3329999999987,
      "v": 127
    },
    {
      "midi": 52,
      "hit": false,
      "t": 20999.978999999963,
      "d": 166.66649999999936,
      "v": 127
    },
    {
      "midi": 53,
      "hit": false,
      "t": 21166.645499999962,
      "d": 166.66649999999936,
      "v": 127
    },
    {
      "midi": 62,
      "hit": false,
      "t": 21333.31199999996,
      "d": 333.3329999999987,
      "v": 127
    },
    {
      "midi": 55,
      "hit": false,
      "t": 21333.31199999996,
      "d": 333.3329999999987,
      "v": 127
    },
    {
      "midi": 71,
      "hit": false,
      "t": 21666.64499999996,
      "d": 333.3329999999987,
      "v": 127
    },
    {
      "midi": 43,
      "hit": false,
      "t": 21666.64499999996,
      "d": 333.3329999999987,
      "v": 127
    },
    {
      "midi": 72,
      "hit": false,
      "t": 21999.97799999996,
      "d": 666.6660000000011,
      "v": 127
    },
    {
      "midi": 48,
      "hit": false,
      "t": 22333.310999999958,
      "d": 333.3329999999987,
      "v": 127
    },
    {
      "midi": 52,
      "hit": false,
      "t": 22666.643999999957,
      "d": 333.3329999999987,
      "v": 127
    },
    {
      "midi": 48,
      "hit": false,
      "t": 22999.976999999955,
      "d": 333.3329999999987,
      "v": 127
    },
    {
      "midi": 55,
      "hit": false,
      "t": 23333.309999999954,
      "d": 333.3329999999987,
      "v": 127
    },
    {
      "midi": 48,
      "hit": false,
      "t": 23666.642999999953,
      "d": 333.3329999999987,
      "v": 127
    },
    {
      "midi": 60,
      "hit": false,
      "t": 23999.97599999995,
      "d": 333.3329999999987,
      "v": 127
    },
    {
      "midi": 59,
      "hit": false,
      "t": 24333.30899999995,
      "d": 166.66649999999936,
      "v": 127
    },
    {
      "midi": 72,
      "hit": false,
      "t": 24333.30899999996,
      "d": 333.3329999999987,
      "v": 127
    },
    {
      "midi": 57,
      "hit": false,
      "t": 24499.97549999995,
      "d": 166.66649999999936,
      "v": 127
    },
    {
      "midi": 55,
      "hit": false,
      "t": 24666.64199999995,
      "d": 166.66649999999936,
      "v": 127
    },
    {
      "midi": 76,
      "hit": false,
      "t": 24666.64199999996,
      "d": 333.3329999999987,
      "v": 127
    },
    {
      "midi": 57,
      "hit": false,
      "t": 24833.30849999995,
      "d": 166.66649999999936,
      "v": 127
    },
    {
      "midi": 55,
      "hit": false,
      "t": 24999.974999999948,
      "d": 166.66649999999936,
      "v": 127
    },
    {
      "midi": 72,
      "hit": false,
      "t": 24999.97499999996,
      "d": 333.3329999999987,
      "v": 127
    },
    {
      "midi": 53,
      "hit": false,
      "t": 25166.641499999947,
      "d": 166.66649999999936,
      "v": 127
    },
    {
      "midi": 52,
      "hit": false,
      "t": 25333.307999999946,
      "d": 166.66649999999936,
      "v": 127
    },
    {
      "midi": 79,
      "hit": false,
      "t": 25333.307999999957,
      "d": 333.3329999999987,
      "v": 127
    },
    {
      "midi": 53,
      "hit": false,
      "t": 25499.974499999946,
      "d": 166.66649999999936,
      "v": 127
    },
    {
      "midi": 52,
      "hit": false,
      "t": 25666.640999999945,
      "d": 166.66649999999936,
      "v": 127
    },
    {
      "midi": 72,
      "hit": false,
      "t": 25666.640999999956,
      "d": 333.3329999999987,
      "v": 127
    },
    {
      "midi": 50,
      "hit": false,
      "t": 25833.307499999944,
      "d": 166.66649999999936,
      "v": 127
    },
    {
      "midi": 48,
      "hit": false,
      "t": 25999.973999999944,
      "d": 333.3329999999987,
      "v": 127
    },
    {
      "midi": 84,
      "hit": false,
      "t": 25999.973999999955,
      "d": 333.3329999999987,
      "v": 127
    },
    {
      "midi": 52,
      "hit": false,
      "t": 26333.306999999942,
      "d": 333.3329999999987,
      "v": 127
    },
    {
      "midi": 83,
      "hit": false,
      "t": 26333.306999999953,
      "d": 166.66649999999936,
      "v": 127
    },
    {
      "midi": 81,
      "hit": false,
      "t": 26499.973499999953,
      "d": 166.66649999999936,
      "v": 127
    },
    {
      "midi": 55,
      "hit": false,
      "t": 26666.63999999994,
      "d": 333.3329999999987,
      "v": 127
    },
    {
      "midi": 79,
      "hit": false,
      "t": 26666.639999999952,
      "d": 166.66649999999936,
      "v": 127
    },
    {
      "midi": 81,
      "hit": false,
      "t": 26833.30649999995,
      "d": 166.66649999999936,
      "v": 127
    },
    {
      "midi": 52,
      "hit": false,
      "t": 26999.97299999994,
      "d": 333.3329999999987,
      "v": 127
    },
    {
      "midi": 79,
      "hit": false,
      "t": 26999.97299999995,
      "d": 166.66649999999936,
      "v": 127
    },
    {
      "midi": 77,
      "hit": false,
      "t": 27166.63949999995,
      "d": 166.66649999999936,
      "v": 127
    },
    {
      "midi": 60,
      "hit": false,
      "t": 27333.30599999994,
      "d": 333.3329999999987,
      "v": 127
    },
    {
      "midi": 76,
      "hit": false,
      "t": 27333.30599999995,
      "d": 166.66649999999936,
      "v": 127
    },
    {
      "midi": 77,
      "hit": false,
      "t": 27499.97249999995,
      "d": 166.66649999999936,
      "v": 127
    },
    {
      "midi": 55,
      "hit": false,
      "t": 27666.638999999937,
      "d": 333.3329999999987,
      "v": 127
    },
    {
      "midi": 76,
      "hit": false,
      "t": 27666.63899999995,
      "d": 166.66649999999936,
      "v": 127
    },
    {
      "midi": 74,
      "hit": false,
      "t": 27833.305499999948,
      "d": 166.66649999999936,
      "v": 127
    },
    {
      "midi": 63,
      "hit": false,
      "t": 27999.971999999936,
      "d": 333.3329999999987,
      "v": 127
    },
    {
      "midi": 72,
      "hit": false,
      "t": 27999.971999999947,
      "d": 166.66649999999936,
      "v": 127
    },
    {
      "midi": 70,
      "hit": false,
      "t": 28166.638499999946,
      "d": 166.66649999999936,
      "v": 127
    },
    {
      "midi": 54,
      "hit": false,
      "t": 28333.304999999935,
      "d": 333.3329999999987,
      "v": 127
    },
    {
      "midi": 72,
      "hit": false,
      "t": 28333.304999999946,
      "d": 166.66649999999936,
      "v": 127
    },
    {
      "midi": 81,
      "hit": false,
      "t": 28499.971499999945,
      "d": 166.66649999999936,
      "v": 127
    },
    {
      "midi": 63,
      "hit": false,
      "t": 28666.637999999934,
      "d": 333.3329999999987,
      "v": 127
    },
    {
      "midi": 72,
      "hit": false,
      "t": 28666.637999999944,
      "d": 166.66649999999936,
      "v": 127
    },
    {
      "midi": 81,
      "hit": false,
      "t": 28833.304499999944,
      "d": 166.66649999999936,
      "v": 127
    },
    {
      "midi": 54,
      "hit": false,
      "t": 28999.970999999932,
      "d": 333.3329999999987,
      "v": 127
    },
    {
      "midi": 70,
      "hit": false,
      "t": 28999.970999999943,
      "d": 166.66649999999936,
      "v": 127
    },
    {
      "midi": 81,
      "hit": false,
      "t": 29166.637499999943,
      "d": 166.66649999999936,
      "v": 127
    },
    {
      "midi": 63,
      "hit": false,
      "t": 29333.30399999993,
      "d": 333.3329999999987,
      "v": 127
    },
    {
      "midi": 72,
      "hit": false,
      "t": 29333.303999999942,
      "d": 166.66649999999936,
      "v": 127
    },
    {
      "midi": 81,
      "hit": false,
      "t": 29499.97049999994,
      "d": 166.66649999999936,
      "v": 127
    },
    {
      "midi": 54,
      "hit": false,
      "t": 29666.63699999993,
      "d": 333.3329999999987,
      "v": 127
    },
    {
      "midi": 69,
      "hit": false,
      "t": 29666.63699999994,
      "d": 166.66649999999936,
      "v": 127
    },
    {
      "midi": 81,
      "hit": false,
      "t": 29833.30349999994,
      "d": 166.66649999999936,
      "v": 127
    },
    {
      "midi": 55,
      "hit": false,
      "t": 29999.96999999993,
      "d": 333.3329999999987,
      "v": 127
    },
    {
      "midi": 70,
      "hit": false,
      "t": 29999.96999999994,
      "d": 333.3329999999987,
      "v": 127
    },
    {
      "midi": 53,
      "hit": false,
      "t": 30333.302999999927,
      "d": 166.66649999999936,
      "v": 127
    },
    {
      "midi": 67,
      "hit": false,
      "t": 30333.302999999938,
      "d": 333.3329999999987,
      "v": 127
    },
    {
      "midi": 51,
      "hit": false,
      "t": 30499.969499999926,
      "d": 166.66649999999936,
      "v": 127
    },
    {
      "midi": 50,
      "hit": false,
      "t": 30666.635999999926,
      "d": 166.66649999999936,
      "v": 127
    },
    {
      "midi": 70,
      "hit": false,
      "t": 30666.635999999937,
      "d": 333.3329999999987,
      "v": 127
    },
    {
      "midi": 51,
      "hit": false,
      "t": 30833.302499999925,
      "d": 166.66649999999936,
      "v": 127
    },
    {
      "midi": 50,
      "hit": false,
      "t": 30999.968999999925,
      "d": 166.66649999999936,
      "v": 127
    },
    {
      "midi": 67,
      "hit": false,
      "t": 30999.968999999935,
      "d": 333.3329999999987,
      "v": 127
    },
    {
      "midi": 48,
      "hit": false,
      "t": 31166.635499999924,
      "d": 166.66649999999936,
      "v": 127
    },
    {
      "midi": 46,
      "hit": false,
      "t": 31333.301999999923,
      "d": 166.66649999999936,
      "v": 127
    },
    {
      "midi": 74,
      "hit": false,
      "t": 31333.301999999934,
      "d": 333.3329999999987,
      "v": 127
    },
    {
      "midi": 48,
      "hit": false,
      "t": 31499.968499999923,
      "d": 166.66649999999936,
      "v": 127
    },
    {
      "midi": 46,
      "hit": false,
      "t": 31666.634999999922,
      "d": 166.66649999999936,
      "v": 127
    },
    {
      "midi": 67,
      "hit": false,
      "t": 31666.634999999933,
      "d": 333.3329999999987,
      "v": 127
    },
    {
      "midi": 45,
      "hit": false,
      "t": 31833.30149999992,
      "d": 166.66649999999936,
      "v": 127
    },
    {
      "midi": 43,
      "hit": false,
      "t": 31999.96799999992,
      "d": 333.3329999999987,
      "v": 127
    },
    {
      "midi": 79,
      "hit": false,
      "t": 31999.96799999993,
      "d": 333.3329999999987,
      "v": 127
    },
    {
      "midi": 55,
      "hit": false,
      "t": 32333.30099999992,
      "d": 333.3329999999987,
      "v": 127
    },
    {
      "midi": 77,
      "hit": false,
      "t": 32333.30099999993,
      "d": 166.66649999999936,
      "v": 127
    },
    {
      "midi": 75,
      "hit": false,
      "t": 32499.96749999993,
      "d": 166.66649999999936,
      "v": 127
    },
    {
      "midi": 58,
      "hit": false,
      "t": 32666.633999999918,
      "d": 333.3329999999987,
      "v": 127
    },
    {
      "midi": 74,
      "hit": false,
      "t": 32666.63399999993,
      "d": 166.666500000003,
      "v": 127
    },
    {
      "midi": 75,
      "hit": false,
      "t": 32833.30049999993,
      "d": 166.66649999999936,
      "v": 127
    },
    {
      "midi": 55,
      "hit": false,
      "t": 32999.96699999992,
      "d": 333.3329999999987,
      "v": 127
    },
    {
      "midi": 74,
      "hit": false,
      "t": 32999.96699999993,
      "d": 166.66649999999936,
      "v": 127
    },
    {
      "midi": 72,
      "hit": false,
      "t": 33166.63349999993,
      "d": 166.66649999999936,
      "v": 127
    },
    {
      "midi": 62,
      "hit": false,
      "t": 33333.299999999916,
      "d": 333.3329999999987,
      "v": 127
    },
    {
      "midi": 70,
      "hit": false,
      "t": 33333.29999999993,
      "d": 166.66649999999936,
      "v": 127
    },
    {
      "midi": 72,
      "hit": false,
      "t": 33499.96649999993,
      "d": 166.66649999999936,
      "v": 127
    },
    {
      "midi": 55,
      "hit": false,
      "t": 33666.632999999914,
      "d": 333.3329999999987,
      "v": 127
    },
    {
      "midi": 70,
      "hit": false,
      "t": 33666.63299999993,
      "d": 166.66649999999936,
      "v": 127
    },
    {
      "midi": 69,
      "hit": false,
      "t": 33833.29949999993,
      "d": 166.66649999999936,
      "v": 127
    },
    {
      "midi": 67,
      "hit": false,
      "t": 33999.96599999991,
      "d": 333.3329999999987,
      "v": 127
    },
    {
      "midi": 67,
      "hit": false,
      "t": 33999.96599999993,
      "d": 333.3329999999987,
      "v": 127
    },
    {
      "midi": 65,
      "hit": false,
      "t": 34333.29899999991,
      "d": 166.66649999999936,
      "v": 127
    },
    {
      "midi": 70,
      "hit": false,
      "t": 34333.298999999926,
      "d": 333.3329999999987,
      "v": 127
    },
    {
      "midi": 63,
      "hit": false,
      "t": 34499.96549999991,
      "d": 166.66649999999936,
      "v": 127
    },
    {
      "midi": 62,
      "hit": false,
      "t": 34666.63199999991,
      "d": 166.66649999999936,
      "v": 127
    },
    {
      "midi": 74,
      "hit": false,
      "t": 34666.631999999925,
      "d": 333.3329999999987,
      "v": 127
    },
    {
      "midi": 63,
      "hit": false,
      "t": 34833.29849999991,
      "d": 166.66649999999936,
      "v": 127
    },
    {
      "midi": 62,
      "hit": false,
      "t": 34999.96499999991,
      "d": 166.66649999999936,
      "v": 127
    },
    {
      "midi": 70,
      "hit": false,
      "t": 34999.964999999924,
      "d": 333.3329999999987,
      "v": 127
    },
    {
      "midi": 60,
      "hit": false,
      "t": 35166.63149999991,
      "d": 166.66649999999936,
      "v": 127
    },
    {
      "midi": 58,
      "hit": false,
      "t": 35333.29799999991,
      "d": 166.66649999999936,
      "v": 127
    },
    {
      "midi": 79,
      "hit": false,
      "t": 35333.29799999992,
      "d": 333.3329999999987,
      "v": 127
    },
    {
      "midi": 60,
      "hit": false,
      "t": 35499.96449999991,
      "d": 166.66649999999936,
      "v": 127
    },
    {
      "midi": 58,
      "hit": false,
      "t": 35666.63099999991,
      "d": 166.66649999999936,
      "v": 127
    },
    {
      "midi": 74,
      "hit": false,
      "t": 35666.63099999992,
      "d": 333.3329999999987,
      "v": 127
    },
    {
      "midi": 57,
      "hit": false,
      "t": 35833.297499999906,
      "d": 166.66649999999936,
      "v": 127
    },
    {
      "midi": 55,
      "hit": false,
      "t": 35999.963999999905,
      "d": 166.66649999999936,
      "v": 127
    },
    {
      "midi": 82,
      "hit": false,
      "t": 35999.96399999992,
      "d": 333.3329999999987,
      "v": 127
    },
    {
      "midi": 53,
      "hit": false,
      "t": 36166.630499999905,
      "d": 166.66649999999936,
      "v": 127
    },
    {
      "midi": 55,
      "hit": false,
      "t": 36333.296999999904,
      "d": 166.66649999999936,
      "v": 127
    },
    {
      "midi": 73,
      "hit": false,
      "t": 36333.29699999992,
      "d": 333.3329999999987,
      "v": 127
    },
    {
      "midi": 64,
      "hit": false,
      "t": 36499.9634999999,
      "d": 166.66649999999936,
      "v": 127
    },
    {
      "midi": 55,
      "hit": false,
      "t": 36666.6299999999,
      "d": 166.66649999999936,
      "v": 127
    },
    {
      "midi": 82,
      "hit": false,
      "t": 36666.62999999992,
      "d": 333.3329999999987,
      "v": 127
    },
    {
      "midi": 64,
      "hit": false,
      "t": 36833.2964999999,
      "d": 166.66649999999936,
      "v": 127
    },
    {
      "midi": 53,
      "hit": false,
      "t": 36999.9629999999,
      "d": 166.66649999999936,
      "v": 127
    },
    {
      "midi": 73,
      "hit": false,
      "t": 36999.962999999916,
      "d": 333.3329999999987,
      "v": 127
    },
    {
      "midi": 64,
      "hit": false,
      "t": 37166.6294999999,
      "d": 166.66649999999936,
      "v": 127
    },
    {
      "midi": 55,
      "hit": false,
      "t": 37333.2959999999,
      "d": 166.66649999999936,
      "v": 127
    },
    {
      "midi": 82,
      "hit": false,
      "t": 37333.295999999915,
      "d": 333.3329999999987,
      "v": 127
    },
    {
      "midi": 64,
      "hit": false,
      "t": 37499.9624999999,
      "d": 166.66649999999936,
      "v": 127
    },
    {
      "midi": 52,
      "hit": false,
      "t": 37666.6289999999,
      "d": 166.66649999999936,
      "v": 127
    },
    {
      "midi": 73,
      "hit": false,
      "t": 37666.62899999991,
      "d": 333.3329999999987,
      "v": 127
    },
    {
      "midi": 64,
      "hit": false,
      "t": 37833.2954999999,
      "d": 166.66649999999936,
      "v": 127
    },
    {
      "midi": 53,
      "hit": false,
      "t": 37999.9619999999,
      "d": 166.66649999999936,
      "v": 127
    },
    {
      "midi": 74,
      "hit": false,
      "t": 37999.96199999991,
      "d": 333.3329999999987,
      "v": 127
    },
    {
      "midi": 52,
      "hit": false,
      "t": 38166.6284999999,
      "d": 166.66649999999936,
      "v": 127
    },
    {
      "midi": 53,
      "hit": false,
      "t": 38333.2949999999,
      "d": 166.66649999999936,
      "v": 127
    },
    {
      "midi": 69,
      "hit": false,
      "t": 38333.29499999991,
      "d": 333.3329999999987,
      "v": 127
    },
    {
      "midi": 62,
      "hit": false,
      "t": 38499.961499999896,
      "d": 166.66649999999936,
      "v": 127
    },
    {
      "midi": 53,
      "hit": false,
      "t": 38666.627999999895,
      "d": 166.66649999999936,
      "v": 127
    },
    {
      "midi": 77,
      "hit": false,
      "t": 38666.62799999991,
      "d": 333.3329999999987,
      "v": 127
    },
    {
      "midi": 62,
      "hit": false,
      "t": 38833.294499999894,
      "d": 166.66649999999936,
      "v": 127
    },
    {
      "midi": 52,
      "hit": false,
      "t": 38999.960999999894,
      "d": 166.66649999999936,
      "v": 127
    },
    {
      "midi": 74,
      "hit": false,
      "t": 38999.96099999991,
      "d": 333.3329999999987,
      "v": 127
    },
    {
      "midi": 62,
      "hit": false,
      "t": 39166.62749999989,
      "d": 166.66649999999936,
      "v": 127
    },
    {
      "midi": 53,
      "hit": false,
      "t": 39333.29399999989,
      "d": 166.66649999999936,
      "v": 127
    },
    {
      "midi": 81,
      "hit": false,
      "t": 39333.29399999991,
      "d": 333.3329999999987,
      "v": 127
    },
    {
      "midi": 62,
      "hit": false,
      "t": 39499.96049999989,
      "d": 166.66649999999936,
      "v": 127
    },
    {
      "midi": 50,
      "hit": false,
      "t": 39666.62699999989,
      "d": 166.66649999999936,
      "v": 127
    },
    {
      "midi": 77,
      "hit": false,
      "t": 39666.626999999906,
      "d": 333.3329999999987,
      "v": 127
    },
    {
      "midi": 62,
      "hit": false,
      "t": 39833.29349999989,
      "d": 166.66649999999936,
      "v": 127
    },
    {
      "midi": 58,
      "hit": false,
      "t": 39999.95999999989,
      "d": 333.3329999999987,
      "v": 127
    },
    {
      "midi": 79,
      "hit": false,
      "t": 39999.959999999905,
      "d": 166.66649999999936,
      "v": 127
    },
    {
      "midi": 77,
      "hit": false,
      "t": 40166.626499999904,
      "d": 166.66649999999936,
      "v": 127
    },
    {
      "midi": 55,
      "hit": false,
      "t": 40333.29299999989,
      "d": 333.3329999999987,
      "v": 127
    },
    {
      "midi": 79,
      "hit": false,
      "t": 40333.2929999999,
      "d": 166.66649999999936,
      "v": 127
    },
    {
      "midi": 82,
      "hit": false,
      "t": 40499.9594999999,
      "d": 166.66649999999936,
      "v": 127
    },
    {
      "midi": 52,
      "hit": false,
      "t": 40666.62599999989,
      "d": 333.3329999999987,
      "v": 127
    },
    {
      "midi": 72,
      "hit": false,
      "t": 40666.6259999999,
      "d": 166.66649999999936,
      "v": 127
    },
    {
      "midi": 82,
      "hit": false,
      "t": 40833.2924999999,
      "d": 166.66649999999936,
      "v": 127
    },
    {
      "midi": 55,
      "hit": false,
      "t": 40999.958999999886,
      "d": 333.3329999999987,
      "v": 127
    },
    {
      "midi": 74,
      "hit": false,
      "t": 40999.9589999999,
      "d": 166.66649999999936,
      "v": 127
    },
    {
      "midi": 82,
      "hit": false,
      "t": 41166.6254999999,
      "d": 166.66649999999936,
      "v": 127
    },
    {
      "midi": 48,
      "hit": false,
      "t": 41333.291999999885,
      "d": 333.3329999999987,
      "v": 127
    },
    {
      "midi": 76,
      "hit": false,
      "t": 41333.2919999999,
      "d": 166.66649999999936,
      "v": 127
    },
    {
      "midi": 82,
      "hit": false,
      "t": 41499.9584999999,
      "d": 166.66649999999936,
      "v": 127
    },
    {
      "midi": 52,
      "hit": false,
      "t": 41666.62499999988,
      "d": 333.3329999999987,
      "v": 127
    },
    {
      "midi": 72,
      "hit": false,
      "t": 41666.6249999999,
      "d": 166.66649999999936,
      "v": 127
    },
    {
      "midi": 82,
      "hit": false,
      "t": 41833.2914999999,
      "d": 166.66649999999936,
      "v": 127
    },
    {
      "midi": 57,
      "hit": false,
      "t": 41999.95799999988,
      "d": 333.3329999999987,
      "v": 127
    },
    {
      "midi": 77,
      "hit": false,
      "t": 41999.9579999999,
      "d": 166.66649999999936,
      "v": 127
    },
    {
      "midi": 76,
      "hit": false,
      "t": 42166.624499999896,
      "d": 166.66649999999936,
      "v": 127
    },
    {
      "midi": 53,
      "hit": false,
      "t": 42333.29099999988,
      "d": 333.3329999999987,
      "v": 127
    },
    {
      "midi": 77,
      "hit": false,
      "t": 42333.290999999896,
      "d": 166.66649999999936,
      "v": 127
    },
    {
      "midi": 81,
      "hit": false,
      "t": 42499.957499999895,
      "d": 166.66649999999936,
      "v": 127
    },
    {
      "midi": 50,
      "hit": false,
      "t": 42666.62399999988,
      "d": 333.3329999999987,
      "v": 127
    },
    {
      "midi": 71,
      "hit": false,
      "t": 42666.623999999894,
      "d": 166.66649999999936,
      "v": 127
    },
    {
      "midi": 81,
      "hit": false,
      "t": 42833.290499999894,
      "d": 166.66649999999936,
      "v": 127
    },
    {
      "midi": 53,
      "hit": false,
      "t": 42999.95699999988,
      "d": 333.3329999999987,
      "v": 127
    },
    {
      "midi": 73,
      "hit": false,
      "t": 42999.95699999989,
      "d": 166.66649999999936,
      "v": 127
    },
    {
      "midi": 81,
      "hit": false,
      "t": 43166.62349999989,
      "d": 166.66649999999936,
      "v": 127
    },
    {
      "midi": 47,
      "hit": false,
      "t": 43333.28999999988,
      "d": 333.3329999999987,
      "v": 127
    },
    {
      "midi": 74,
      "hit": false,
      "t": 43333.28999999989,
      "d": 166.66649999999936,
      "v": 127
    },
    {
      "midi": 81,
      "hit": false,
      "t": 43499.95649999989,
      "d": 166.66649999999936,
      "v": 127
    },
    {
      "midi": 50,
      "hit": false,
      "t": 43666.622999999876,
      "d": 333.3329999999987,
      "v": 127
    },
    {
      "midi": 71,
      "hit": false,
      "t": 43666.62299999989,
      "d": 166.66649999999936,
      "v": 127
    },
    {
      "midi": 81,
      "hit": false,
      "t": 43833.28949999989,
      "d": 166.66649999999936,
      "v": 127
    },
    {
      "midi": 55,
      "hit": false,
      "t": 43999.955999999875,
      "d": 333.3329999999987,
      "v": 127
    },
    {
      "midi": 76,
      "hit": false,
      "t": 43999.95599999989,
      "d": 166.66649999999936,
      "v": 127
    },
    {
      "midi": 74,
      "hit": false,
      "t": 44166.62249999989,
      "d": 166.66649999999936,
      "v": 127
    },
    {
      "midi": 52,
      "hit": false,
      "t": 44333.28899999987,
      "d": 333.3329999999987,
      "v": 127
    },
    {
      "midi": 76,
      "hit": false,
      "t": 44333.28899999989,
      "d": 166.66649999999936,
      "v": 127
    },
    {
      "midi": 79,
      "hit": false,
      "t": 44499.95549999989,
      "d": 166.66649999999936,
      "v": 127
    },
    {
      "midi": 49,
      "hit": false,
      "t": 44666.62199999987,
      "d": 333.3329999999987,
      "v": 127
    },
    {
      "midi": 69,
      "hit": false,
      "t": 44666.62199999989,
      "d": 166.66649999999936,
      "v": 127
    },
    {
      "midi": 79,
      "hit": false,
      "t": 44833.288499999886,
      "d": 166.66649999999936,
      "v": 127
    },
    {
      "midi": 52,
      "hit": false,
      "t": 44999.95499999987,
      "d": 333.3329999999987,
      "v": 127
    },
    {
      "midi": 71,
      "hit": false,
      "t": 44999.954999999885,
      "d": 166.66649999999936,
      "v": 127
    },
    {
      "midi": 79,
      "hit": false,
      "t": 45166.621499999885,
      "d": 166.66649999999936,
      "v": 127
    },
    {
      "midi": 45,
      "hit": false,
      "t": 45333.28799999987,
      "d": 333.3329999999987,
      "v": 127
    },
    {
      "midi": 73,
      "hit": false,
      "t": 45333.287999999884,
      "d": 166.66649999999936,
      "v": 127
    },
    {
      "midi": 79,
      "hit": false,
      "t": 45499.95449999988,
      "d": 166.66649999999936,
      "v": 127
    },
    {
      "midi": 49,
      "hit": false,
      "t": 45666.62099999987,
      "d": 333.3329999999987,
      "v": 127
    },
    {
      "midi": 69,
      "hit": false,
      "t": 45666.62099999988,
      "d": 166.66649999999936,
      "v": 127
    },
    {
      "midi": 79,
      "hit": false,
      "t": 45833.28749999988,
      "d": 166.66649999999936,
      "v": 127
    },
    {
      "midi": 38,
      "hit": false,
      "t": 45999.95399999987,
      "d": 166.66649999999936,
      "v": 127
    },
    {
      "midi": 77,
      "hit": false,
      "t": 45999.95399999988,
      "d": 333.3329999999987,
      "v": 127
    },
    {
      "midi": 50,
      "hit": false,
      "t": 46166.620499999866,
      "d": 166.66649999999936,
      "v": 127
    },
    {
      "midi": 48,
      "hit": false,
      "t": 46333.286999999866,
      "d": 166.66649999999936,
      "v": 127
    },
    {
      "midi": 74,
      "hit": false,
      "t": 46333.28699999988,
      "d": 333.3329999999987,
      "v": 127
    },
    {
      "midi": 50,
      "hit": false,
      "t": 46499.953499999865,
      "d": 166.66649999999936,
      "v": 127
    },
    {
      "midi": 43,
      "hit": false,
      "t": 46666.619999999864,
      "d": 166.66649999999936,
      "v": 127
    },
    {
      "midi": 70,
      "hit": false,
      "t": 46666.61999999988,
      "d": 333.3329999999987,
      "v": 127
    },
    {
      "midi": 50,
      "hit": false,
      "t": 46833.286499999864,
      "d": 166.66649999999936,
      "v": 127
    },
    {
      "midi": 45,
      "hit": false,
      "t": 46999.95299999986,
      "d": 166.66649999999936,
      "v": 127
    },
    {
      "midi": 74,
      "hit": false,
      "t": 46999.95299999988,
      "d": 333.3329999999987,
      "v": 127
    },
    {
      "midi": 50,
      "hit": false,
      "t": 47166.61949999986,
      "d": 166.66649999999936,
      "v": 127
    },
    {
      "midi": 46,
      "hit": false,
      "t": 47333.28599999986,
      "d": 166.66649999999936,
      "v": 127
    },
    {
      "midi": 67,
      "hit": false,
      "t": 47333.28599999988,
      "d": 333.3329999999987,
      "v": 127
    },
    {
      "midi": 50,
      "hit": false,
      "t": 47499.95249999986,
      "d": 166.66649999999936,
      "v": 127
    },
    {
      "midi": 43,
      "hit": false,
      "t": 47666.61899999986,
      "d": 166.66649999999936,
      "v": 127
    },
    {
      "midi": 77,
      "hit": false,
      "t": 47666.618999999875,
      "d": 333.3329999999987,
      "v": 127
    },
    {
      "midi": 50,
      "hit": false,
      "t": 47833.28549999986,
      "d": 166.66649999999936,
      "v": 127
    },
    {
      "midi": 36,
      "hit": false,
      "t": 47999.95199999986,
      "d": 166.66649999999936,
      "v": 127
    },
    {
      "midi": 76,
      "hit": false,
      "t": 47999.951999999874,
      "d": 333.3329999999987,
      "v": 127
    },
    {
      "midi": 48,
      "hit": false,
      "t": 48166.61849999986,
      "d": 166.66649999999936,
      "v": 127
    },
    {
      "midi": 46,
      "hit": false,
      "t": 48333.28499999986,
      "d": 166.66649999999936,
      "v": 127
    },
    {
      "midi": 72,
      "hit": false,
      "t": 48333.28499999987,
      "d": 333.3329999999987,
      "v": 127
    },
    {
      "midi": 48,
      "hit": false,
      "t": 48499.95149999986,
      "d": 166.66649999999936,
      "v": 127
    },
    {
      "midi": 41,
      "hit": false,
      "t": 48666.61799999986,
      "d": 166.66649999999936,
      "v": 127
    },
    {
      "midi": 69,
      "hit": false,
      "t": 48666.61799999987,
      "d": 333.3329999999987,
      "v": 127
    },
    {
      "midi": 48,
      "hit": false,
      "t": 48833.284499999856,
      "d": 166.66649999999936,
      "v": 127
    },
    {
      "midi": 43,
      "hit": false,
      "t": 48999.950999999855,
      "d": 166.66649999999936,
      "v": 127
    },
    {
      "midi": 72,
      "hit": false,
      "t": 48999.95099999987,
      "d": 333.3329999999987,
      "v": 127
    },
    {
      "midi": 48,
      "hit": false,
      "t": 49166.617499999855,
      "d": 166.66649999999936,
      "v": 127
    },
    {
      "midi": 45,
      "hit": false,
      "t": 49333.283999999854,
      "d": 166.66649999999936,
      "v": 127
    },
    {
      "midi": 65,
      "hit": false,
      "t": 49333.28399999987,
      "d": 333.3329999999987,
      "v": 127
    },
    {
      "midi": 48,
      "hit": false,
      "t": 49499.95049999985,
      "d": 166.66649999999936,
      "v": 127
    },
    {
      "midi": 41,
      "hit": false,
      "t": 49666.61699999985,
      "d": 166.66649999999936,
      "v": 127
    },
    {
      "midi": 75,
      "hit": false,
      "t": 49666.61699999987,
      "d": 333.3329999999987,
      "v": 127
    },
    {
      "midi": 48,
      "hit": false,
      "t": 49833.28349999985,
      "d": 166.66649999999936,
      "v": 127
    },
    {
      "midi": 46,
      "hit": false,
      "t": 49999.94999999985,
      "d": 333.3329999999987,
      "v": 127
    },
    {
      "midi": 74,
      "hit": false,
      "t": 49999.949999999866,
      "d": 166.66649999999936,
      "v": 127
    },
    {
      "midi": 77,
      "hit": false,
      "t": 50166.616499999865,
      "d": 166.66649999999936,
      "v": 127
    },
    {
      "midi": 50,
      "hit": false,
      "t": 50333.28299999985,
      "d": 333.3329999999987,
      "v": 127
    },
    {
      "midi": 75,
      "hit": false,
      "t": 50333.282999999865,
      "d": 166.66649999999936,
      "v": 127
    },
    {
      "midi": 77,
      "hit": false,
      "t": 50499.949499999864,
      "d": 166.66649999999936,
      "v": 127
    },
    {
      "midi": 53,
      "hit": false,
      "t": 50666.61599999985,
      "d": 333.3329999999987,
      "v": 127
    },
    {
      "midi": 74,
      "hit": false,
      "t": 50666.61599999986,
      "d": 166.66649999999936,
      "v": 127
    },
    {
      "midi": 77,
      "hit": false,
      "t": 50833.28249999986,
      "d": 166.66649999999936,
      "v": 127
    },
    {
      "midi": 50,
      "hit": false,
      "t": 50999.94899999985,
      "d": 333.3329999999987,
      "v": 127
    },
    {
      "midi": 75,
      "hit": false,
      "t": 50999.94899999986,
      "d": 166.66649999999936,
      "v": 127
    },
    {
      "midi": 77,
      "hit": false,
      "t": 51166.61549999986,
      "d": 166.66649999999936,
      "v": 127
    },
    {
      "midi": 58,
      "hit": false,
      "t": 51333.28199999985,
      "d": 333.3329999999987,
      "v": 127
    },
    {
      "midi": 74,
      "hit": false,
      "t": 51333.28199999986,
      "d": 166.66649999999936,
      "v": 127
    },
    {
      "midi": 77,
      "hit": false,
      "t": 51499.94849999986,
      "d": 166.66649999999936,
      "v": 127
    },
    {
      "midi": 53,
      "hit": false,
      "t": 51666.614999999845,
      "d": 333.3329999999987,
      "v": 127
    },
    {
      "midi": 75,
      "hit": false,
      "t": 51666.61499999986,
      "d": 166.66649999999936,
      "v": 127
    },
    {
      "midi": 77,
      "hit": false,
      "t": 51833.28149999986,
      "d": 166.66649999999936,
      "v": 127
    },
    {
      "midi": 62,
      "hit": false,
      "t": 51999.947999999844,
      "d": 166.66649999999936,
      "v": 127
    },
    {
      "midi": 70,
      "hit": false,
      "t": 51999.94799999986,
      "d": 166.66649999999936,
      "v": 127
    },
    {
      "midi": 65,
      "hit": false,
      "t": 52166.61449999984,
      "d": 166.66649999999936,
      "v": 127
    },
    {
      "midi": 74,
      "hit": false,
      "t": 52166.61449999986,
      "d": 166.66649999999936,
      "v": 127
    },
    {
      "midi": 63,
      "hit": false,
      "t": 52333.28099999984,
      "d": 166.66649999999936,
      "v": 127
    },
    {
      "midi": 72,
      "hit": false,
      "t": 52333.28099999986,
      "d": 166.66649999999936,
      "v": 127
    },
    {
      "midi": 65,
      "hit": false,
      "t": 52499.94749999984,
      "d": 166.66649999999936,
      "v": 127
    },
    {
      "midi": 74,
      "hit": false,
      "t": 52499.94749999986,
      "d": 166.66649999999936,
      "v": 127
    },
    {
      "midi": 62,
      "hit": false,
      "t": 52666.61399999984,
      "d": 166.66649999999936,
      "v": 127
    },
    {
      "midi": 70,
      "hit": false,
      "t": 52666.613999999856,
      "d": 166.66649999999936,
      "v": 127
    },
    {
      "midi": 65,
      "hit": false,
      "t": 52833.28049999984,
      "d": 166.66649999999936,
      "v": 127
    },
    {
      "midi": 74,
      "hit": false,
      "t": 52833.280499999855,
      "d": 166.66649999999936,
      "v": 127
    },
    {
      "midi": 63,
      "hit": false,
      "t": 52999.94699999984,
      "d": 166.66649999999936,
      "v": 127
    },
    {
      "midi": 72,
      "hit": false,
      "t": 52999.946999999855,
      "d": 166.66649999999936,
      "v": 127
    },
    {
      "midi": 65,
      "hit": false,
      "t": 53166.61349999984,
      "d": 166.66649999999936,
      "v": 127
    },
    {
      "midi": 74,
      "hit": false,
      "t": 53166.613499999854,
      "d": 166.66649999999936,
      "v": 127
    },
    {
      "midi": 62,
      "hit": false,
      "t": 53333.27999999984,
      "d": 166.66649999999936,
      "v": 127
    },
    {
      "midi": 70,
      "hit": false,
      "t": 53333.27999999985,
      "d": 166.66649999999936,
      "v": 127
    },
    {
      "midi": 65,
      "hit": false,
      "t": 53499.94649999984,
      "d": 166.66649999999936,
      "v": 127
    },
    {
      "midi": 74,
      "hit": false,
      "t": 53499.94649999985,
      "d": 166.66649999999936,
      "v": 127
    },
    {
      "midi": 63,
      "hit": false,
      "t": 53666.61299999984,
      "d": 166.66649999999936,
      "v": 127
    },
    {
      "midi": 72,
      "hit": false,
      "t": 53666.61299999985,
      "d": 166.66649999999936,
      "v": 127
    },
    {
      "midi": 65,
      "hit": false,
      "t": 53833.27949999984,
      "d": 166.66649999999936,
      "v": 127
    },
    {
      "midi": 74,
      "hit": false,
      "t": 53833.27949999985,
      "d": 166.66649999999936,
      "v": 127
    },
    {
      "midi": 58,
      "hit": false,
      "t": 53999.945999999836,
      "d": 166.66649999999936,
      "v": 127
    },
    {
      "midi": 67,
      "hit": false,
      "t": 53999.94599999985,
      "d": 166.66649999999936,
      "v": 127
    },
    {
      "midi": 62,
      "hit": false,
      "t": 54166.612499999836,
      "d": 166.66649999999936,
      "v": 127
    },
    {
      "midi": 70,
      "hit": false,
      "t": 54166.61249999985,
      "d": 166.66649999999936,
      "v": 127
    },
    {
      "midi": 60,
      "hit": false,
      "t": 54333.278999999835,
      "d": 166.66649999999936,
      "v": 127
    },
    {
      "midi": 69,
      "hit": false,
      "t": 54333.27899999985,
      "d": 166.66649999999936,
      "v": 127
    },
    {
      "midi": 62,
      "hit": false,
      "t": 54499.945499999834,
      "d": 166.66649999999936,
      "v": 127
    },
    {
      "midi": 70,
      "hit": false,
      "t": 54499.94549999985,
      "d": 166.66649999999936,
      "v": 127
    },
    {
      "midi": 58,
      "hit": false,
      "t": 54666.611999999834,
      "d": 166.66649999999936,
      "v": 127
    },
    {
      "midi": 67,
      "hit": false,
      "t": 54666.61199999985,
      "d": 166.66649999999936,
      "v": 127
    },
    {
      "midi": 62,
      "hit": false,
      "t": 54833.27849999983,
      "d": 166.66649999999936,
      "v": 127
    },
    {
      "midi": 70,
      "hit": false,
      "t": 54833.27849999985,
      "d": 166.66649999999936,
      "v": 127
    },
    {
      "midi": 60,
      "hit": false,
      "t": 54999.94499999983,
      "d": 166.66649999999936,
      "v": 127
    },
    {
      "midi": 69,
      "hit": false,
      "t": 54999.94499999985,
      "d": 166.66649999999936,
      "v": 127
    },
    {
      "midi": 62,
      "hit": false,
      "t": 55166.61149999983,
      "d": 166.66649999999936,
      "v": 127
    },
    {
      "midi": 70,
      "hit": false,
      "t": 55166.611499999846,
      "d": 166.66649999999936,
      "v": 127
    },
    {
      "midi": 58,
      "hit": false,
      "t": 55333.27799999983,
      "d": 166.66649999999936,
      "v": 127
    },
    {
      "midi": 67,
      "hit": false,
      "t": 55333.277999999846,
      "d": 166.66649999999936,
      "v": 127
    },
    {
      "midi": 62,
      "hit": false,
      "t": 55499.94449999983,
      "d": 166.66649999999936,
      "v": 127
    },
    {
      "midi": 70,
      "hit": false,
      "t": 55499.944499999845,
      "d": 166.66649999999936,
      "v": 127
    },
    {
      "midi": 60,
      "hit": false,
      "t": 55666.61099999983,
      "d": 166.66649999999936,
      "v": 127
    },
    {
      "midi": 69,
      "hit": false,
      "t": 55666.610999999844,
      "d": 166.66649999999936,
      "v": 127
    },
    {
      "midi": 62,
      "hit": false,
      "t": 55833.27749999983,
      "d": 166.66649999999936,
      "v": 127
    },
    {
      "midi": 70,
      "hit": false,
      "t": 55833.277499999844,
      "d": 166.66649999999936,
      "v": 127
    },
    {
      "midi": 55,
      "hit": false,
      "t": 55999.94399999983,
      "d": 166.66649999999936,
      "v": 127
    },
    {
      "midi": 64,
      "hit": false,
      "t": 55999.94399999984,
      "d": 333.3329999999987,
      "v": 127
    },
    {
      "midi": 58,
      "hit": false,
      "t": 56166.61049999983,
      "d": 166.66649999999936,
      "v": 127
    },
    {
      "midi": 57,
      "hit": false,
      "t": 56333.27699999983,
      "d": 166.66649999999936,
      "v": 127
    },
    {
      "midi": 60,
      "hit": false,
      "t": 56333.27699999984,
      "d": 333.3329999999987,
      "v": 127
    },
    {
      "midi": 58,
      "hit": false,
      "t": 56499.94349999983,
      "d": 166.66649999999936,
      "v": 127
    },
    {
      "midi": 55,
      "hit": false,
      "t": 56666.609999999826,
      "d": 166.66649999999936,
      "v": 127
    },
    {
      "midi": 67,
      "hit": false,
      "t": 56666.60999999984,
      "d": 333.3329999999987,
      "v": 127
    },
    {
      "midi": 58,
      "hit": false,
      "t": 56833.276499999825,
      "d": 166.66649999999936,
      "v": 127
    },
    {
      "midi": 57,
      "hit": false,
      "t": 56999.942999999825,
      "d": 166.66649999999936,
      "v": 127
    },
    {
      "midi": 64,
      "hit": false,
      "t": 56999.94299999984,
      "d": 333.3329999999987,
      "v": 127
    },
    {
      "midi": 58,
      "hit": false,
      "t": 57166.609499999824,
      "d": 166.66649999999936,
      "v": 127
    },
    {
      "midi": 55,
      "hit": false,
      "t": 57333.27599999982,
      "d": 166.66649999999936,
      "v": 127
    },
    {
      "midi": 70,
      "hit": false,
      "t": 57333.27599999984,
      "d": 333.3329999999987,
      "v": 127
    },
    {
      "midi": 58,
      "hit": false,
      "t": 57499.94249999982,
      "d": 166.66649999999936,
      "v": 127
    },
    {
      "midi": 57,
      "hit": false,
      "t": 57666.60899999982,
      "d": 166.66649999999936,
      "v": 127
    },
    {
      "midi": 67,
      "hit": false,
      "t": 57666.60899999984,
      "d": 333.3329999999987,
      "v": 127
    },
    {
      "midi": 58,
      "hit": false,
      "t": 57833.27549999982,
      "d": 166.66649999999936,
      "v": 127
    },
    {
      "midi": 52,
      "hit": false,
      "t": 57999.94199999982,
      "d": 333.3329999999987,
      "v": 127
    },
    {
      "midi": 72,
      "hit": false,
      "t": 57999.941999999835,
      "d": 166.66649999999936,
      "v": 127
    },
    {
      "midi": 74,
      "hit": false,
      "t": 58166.608499999835,
      "d": 166.66649999999936,
      "v": 127
    },
    {
      "midi": 48,
      "hit": false,
      "t": 58333.27499999982,
      "d": 333.3329999999987,
      "v": 127
    },
    {
      "midi": 72,
      "hit": false,
      "t": 58333.274999999834,
      "d": 166.66649999999936,
      "v": 127
    },
    {
      "midi": 70,
      "hit": false,
      "t": 58499.94149999983,
      "d": 166.66649999999936,
      "v": 127
    },
    {
      "midi": 53,
      "hit": false,
      "t": 58666.60799999982,
      "d": 333.3329999999987,
      "v": 127
    },
    {
      "midi": 69,
      "hit": false,
      "t": 58666.60799999983,
      "d": 166.66649999999936,
      "v": 127
    },
    {
      "midi": 70,
      "hit": false,
      "t": 58833.27449999983,
      "d": 166.66649999999936,
      "v": 127
    },
    {
      "midi": 48,
      "hit": false,
      "t": 58999.94099999982,
      "d": 333.3329999999987,
      "v": 127
    },
    {
      "midi": 69,
      "hit": false,
      "t": 58999.94099999983,
      "d": 166.66649999999936,
      "v": 127
    },
    {
      "midi": 67,
      "hit": false,
      "t": 59166.60749999983,
      "d": 166.66649999999936,
      "v": 127
    },
    {
      "midi": 57,
      "hit": false,
      "t": 59333.273999999816,
      "d": 333.3329999999987,
      "v": 127
    },
    {
      "midi": 65,
      "hit": false,
      "t": 59333.27399999983,
      "d": 166.66649999999936,
      "v": 127
    },
    {
      "midi": 67,
      "hit": false,
      "t": 59499.94049999983,
      "d": 166.66649999999936,
      "v": 127
    },
    {
      "midi": 53,
      "hit": false,
      "t": 59666.606999999814,
      "d": 333.3329999999987,
      "v": 127
    },
    {
      "midi": 65,
      "hit": false,
      "t": 59666.60699999983,
      "d": 166.66649999999936,
      "v": 127
    },
    {
      "midi": 63,
      "hit": false,
      "t": 59833.27349999983,
      "d": 166.66649999999936,
      "v": 127
    },
    {
      "midi": 58,
      "hit": false,
      "t": 59999.93999999981,
      "d": 166.66649999999936,
      "v": 127
    },
    {
      "midi": 62,
      "hit": false,
      "t": 59999.93999999983,
      "d": 333.3329999999987,
      "v": 127
    },
    {
      "midi": 60,
      "hit": false,
      "t": 60166.60649999981,
      "d": 166.66649999999936,
      "v": 127
    },
    {
      "midi": 58,
      "hit": false,
      "t": 60333.27299999981,
      "d": 166.66649999999936,
      "v": 127
    },
    {
      "midi": 67,
      "hit": false,
      "t": 60333.27299999983,
      "d": 166.66649999999936,
      "v": 127
    },
    {
      "midi": 57,
      "hit": false,
      "t": 60499.93949999981,
      "d": 166.66649999999936,
      "v": 127
    },
    {
      "midi": 65,
      "hit": false,
      "t": 60499.939499999826,
      "d": 166.66649999999936,
      "v": 127
    },
    {
      "midi": 55,
      "hit": false,
      "t": 60666.60599999981,
      "d": 166.66649999999936,
      "v": 127
    },
    {
      "midi": 64,
      "hit": false,
      "t": 60666.605999999825,
      "d": 166.66649999999936,
      "v": 127
    },
    {
      "midi": 57,
      "hit": false,
      "t": 60833.27249999981,
      "d": 166.66649999999936,
      "v": 127
    },
    {
      "midi": 65,
      "hit": false,
      "t": 60833.272499999825,
      "d": 166.66649999999936,
      "v": 127
    },
    {
      "midi": 55,
      "hit": false,
      "t": 60999.93899999981,
      "d": 166.66649999999936,
      "v": 127
    },
    {
      "midi": 64,
      "hit": false,
      "t": 60999.938999999824,
      "d": 166.66649999999936,
      "v": 127
    },
    {
      "midi": 53,
      "hit": false,
      "t": 61166.60549999981,
      "d": 166.66649999999936,
      "v": 127
    },
    {
      "midi": 62,
      "hit": false,
      "t": 61166.60549999982,
      "d": 166.66649999999936,
      "v": 127
    },
    {
      "midi": 52,
      "hit": false,
      "t": 61333.27199999981,
      "d": 166.66649999999936,
      "v": 127
    },
    {
      "midi": 60,
      "hit": false,
      "t": 61333.27199999982,
      "d": 166.66649999999936,
      "v": 127
    },
    {
      "midi": 53,
      "hit": false,
      "t": 61499.93849999981,
      "d": 166.66649999999936,
      "v": 127
    },
    {
      "midi": 62,
      "hit": false,
      "t": 61499.93849999982,
      "d": 166.66649999999936,
      "v": 127
    },
    {
      "midi": 52,
      "hit": false,
      "t": 61666.60499999981,
      "d": 166.66649999999936,
      "v": 127
    },
    {
      "midi": 60,
      "hit": false,
      "t": 61666.60499999982,
      "d": 166.66649999999936,
      "v": 127
    },
    {
      "midi": 50,
      "hit": false,
      "t": 61833.271499999806,
      "d": 166.66649999999936,
      "v": 127
    },
    {
      "midi": 58,
      "hit": false,
      "t": 61833.27149999982,
      "d": 166.66649999999936,
      "v": 127
    },
    {
      "midi": 48,
      "hit": false,
      "t": 61999.937999999805,
      "d": 333.3329999999987,
      "v": 127
    },
    {
      "midi": 57,
      "hit": false,
      "t": 61999.93799999982,
      "d": 166.66649999999936,
      "v": 127
    },
    {
      "midi": 58,
      "hit": false,
      "t": 62166.60449999982,
      "d": 166.66649999999936,
      "v": 127
    },
    {
      "midi": 53,
      "hit": false,
      "t": 62333.270999999804,
      "d": 166.66649999999936,
      "v": 127
    },
    {
      "midi": 57,
      "hit": false,
      "t": 62333.27099999982,
      "d": 166.66649999999936,
      "v": 127
    },
    {
      "midi": 52,
      "hit": false,
      "t": 62499.9374999998,
      "d": 166.66649999999936,
      "v": 127
    },
    {
      "midi": 55,
      "hit": false,
      "t": 62499.93749999982,
      "d": 166.66649999999936,
      "v": 127
    },
    {
      "midi": 50,
      "hit": false,
      "t": 62666.6039999998,
      "d": 166.66649999999936,
      "v": 127
    },
    {
      "midi": 53,
      "hit": false,
      "t": 62666.60399999982,
      "d": 333.3329999999987,
      "v": 127
    },
    {
      "midi": 52,
      "hit": false,
      "t": 62833.2704999998,
      "d": 166.66649999999936,
      "v": 127
    },
    {
      "midi": 50,
      "hit": false,
      "t": 62999.9369999998,
      "d": 166.66649999999936,
      "v": 127
    },
    {
      "midi": 65,
      "hit": false,
      "t": 62999.936999999816,
      "d": 166.66649999999936,
      "v": 127
    },
    {
      "midi": 48,
      "hit": false,
      "t": 63166.6034999998,
      "d": 166.66649999999936,
      "v": 127
    },
    {
      "midi": 64,
      "hit": false,
      "t": 63166.603499999816,
      "d": 166.66649999999936,
      "v": 127
    },
    {
      "midi": 46,
      "hit": false,
      "t": 63333.2699999998,
      "d": 166.66649999999936,
      "v": 127
    },
    {
      "midi": 65,
      "hit": false,
      "t": 63333.269999999815,
      "d": 333.3329999999987,
      "v": 127
    },
    {
      "midi": 48,
      "hit": false,
      "t": 63499.9364999998,
      "d": 166.66649999999936,
      "v": 127
    },
    {
      "midi": 46,
      "hit": false,
      "t": 63666.6029999998,
      "d": 166.66649999999936,
      "v": 127
    },
    {
      "midi": 57,
      "hit": false,
      "t": 63666.60299999981,
      "d": 333.3329999999987,
      "v": 127
    },
    {
      "midi": 45,
      "hit": false,
      "t": 63833.2694999998,
      "d": 166.66649999999936,
      "v": 127
    },
    {
      "midi": 43,
      "hit": false,
      "t": 63999.9359999998,
      "d": 166.66649999999936,
      "v": 127
    },
    {
      "midi": 58,
      "hit": false,
      "t": 63999.93599999981,
      "d": 333.3329999999987,
      "v": 127
    },
    {
      "midi": 45,
      "hit": false,
      "t": 64166.6024999998,
      "d": 166.66649999999936,
      "v": 127
    },
    {
      "midi": 43,
      "hit": false,
      "t": 64333.2689999998,
      "d": 166.66649999999936,
      "v": 127
    },
    {
      "midi": 65,
      "hit": false,
      "t": 64333.26899999981,
      "d": 333.3329999999987,
      "v": 127
    },
    {
      "midi": 41,
      "hit": false,
      "t": 64499.935499999796,
      "d": 166.66649999999936,
      "v": 127
    },
    {
      "midi": 48,
      "hit": false,
      "t": 64666.601999999795,
      "d": 166.66649999999936,
      "v": 127
    },
    {
      "midi": 57,
      "hit": false,
      "t": 64666.60199999981,
      "d": 333.3329999999987,
      "v": 127
    },
    {
      "midi": 46,
      "hit": false,
      "t": 64833.268499999795,
      "d": 166.66649999999936,
      "v": 127
    },
    {
      "midi": 45,
      "hit": false,
      "t": 64999.934999999794,
      "d": 166.66649999999936,
      "v": 127
    },
    {
      "midi": 65,
      "hit": false,
      "t": 64999.93499999981,
      "d": 333.3329999999987,
      "v": 127
    },
    {
      "midi": 46,
      "hit": false,
      "t": 65166.60149999979,
      "d": 166.66649999999936,
      "v": 127
    },
    {
      "midi": 48,
      "hit": false,
      "t": 65333.26799999979,
      "d": 333.3329999999987,
      "v": 127
    },
    {
      "midi": 55,
      "hit": false,
      "t": 65333.26799999981,
      "d": 333.3329999999987,
      "v": 127
    },
    {
      "midi": 36,
      "hit": false,
      "t": 65666.60099999979,
      "d": 333.3329999999987,
      "v": 127
    },
    {
      "midi": 64,
      "hit": false,
      "t": 65666.6009999998,
      "d": 333.3329999999987,
      "v": 127
    },
    {
      "midi": 41,
      "hit": false,
      "t": 65999.93399999979,
      "d": 666.6659999999974,
      "v": 127
    },
    {
      "midi": 57,
      "hit": false,
      "t": 65999.9339999998,
      "d": 666.6659999999974,
      "v": 127
    },
    {
      "midi": 60,
      "hit": false,
      "t": 65999.9339999998,
      "d": 666.6659999999974,
      "v": 127
    },
    {
      "midi": 65,
      "hit": false,
      "t": 65999.9339999998,
      "d": 666.6659999999974,
      "v": 127
    }
  ]
}