{
  "jsonPath": "Classical/Classical/Johann Sebastian Bach/invention-11.json",
  "path": "Classical\\Classical\\Johann Sebastian Bach\\Invention 11.mid",
  "name": "Invention 11",
  "difficulty": "Advanced",
  "bpm": 85.00004250002125,
  "notes": [
    {
      "midi": 43,
      "hit": false,
      "t": 0,
      "d": 705.8820000000001,
      "v": 127
    },
    {
      "midi": 62,
      "hit": false,
      "t": 176.47050000000002,
      "d": 176.47050000000002,
      "v": 127
    },
    {
      "midi": 64,
      "hit": false,
      "t": 352.94100000000003,
      "d": 176.47050000000002,
      "v": 127
    },
    {
      "midi": 66,
      "hit": false,
      "t": 529.4115,
      "d": 176.47050000000002,
      "v": 127
    },
    {
      "midi": 67,
      "hit": false,
      "t": 705.8820000000001,
      "d": 176.47050000000002,
      "v": 127
    },
    {
      "midi": 69,
      "hit": false,
      "t": 882.3525000000001,
      "d": 176.47050000000002,
      "v": 127
    },
    {
      "midi": 70,
      "hit": false,
      "t": 1058.823,
      "d": 176.47050000000013,
      "v": 127
    },
    {
      "midi": 55,
      "hit": false,
      "t": 1058.823,
      "d": 352.94100000000003,
      "v": 127
    },
    {
      "midi": 67,
      "hit": false,
      "t": 1235.2935000000002,
      "d": 176.4704999999999,
      "v": 127
    },
    {
      "midi": 69,
      "hit": false,
      "t": 1411.7640000000001,
      "d": 176.4704999999999,
      "v": 127
    },
    {
      "midi": 54,
      "hit": false,
      "t": 1411.7640000000001,
      "d": 176.4704999999999,
      "v": 127
    },
    {
      "midi": 67,
      "hit": false,
      "t": 1588.2345,
      "d": 176.4704999999999,
      "v": 127
    },
    {
      "midi": 55,
      "hit": false,
      "t": 1588.2345,
      "d": 176.4704999999999,
      "v": 127
    },
    {
      "midi": 66,
      "hit": false,
      "t": 1764.705,
      "d": 176.4704999999999,
      "v": 127
    },
    {
      "midi": 57,
      "hit": false,
      "t": 1764.705,
      "d": 176.4704999999999,
      "v": 127
    },
    {
      "midi": 64,
      "hit": false,
      "t": 1941.1754999999998,
      "d": 176.4704999999999,
      "v": 127
    },
    {
      "midi": 55,
      "hit": false,
      "t": 1941.1754999999998,
      "d": 176.4704999999999,
      "v": 127
    },
    {
      "midi": 62,
      "hit": false,
      "t": 2117.6459999999997,
      "d": 176.4704999999999,
      "v": 127
    },
    {
      "midi": 54,
      "hit": false,
      "t": 2117.6459999999997,
      "d": 352.9409999999998,
      "v": 127
    },
    {
      "midi": 72,
      "hit": false,
      "t": 2294.1164999999996,
      "d": 176.4704999999999,
      "v": 127
    },
    {
      "midi": 70,
      "hit": false,
      "t": 2470.5869999999995,
      "d": 176.4704999999999,
      "v": 127
    },
    {
      "midi": 53,
      "hit": false,
      "t": 2470.5869999999995,
      "d": 352.9409999999998,
      "v": 127
    },
    {
      "midi": 69,
      "hit": false,
      "t": 2647.0574999999994,
      "d": 176.4704999999999,
      "v": 127
    },
    {
      "midi": 67,
      "hit": false,
      "t": 2823.5279999999993,
      "d": 176.4704999999999,
      "v": 127
    },
    {
      "midi": 52,
      "hit": false,
      "t": 2823.5279999999993,
      "d": 176.4704999999999,
      "v": 127
    },
    {
      "midi": 65,
      "hit": false,
      "t": 2999.9984999999992,
      "d": 176.4704999999999,
      "v": 127
    },
    {
      "midi": 53,
      "hit": false,
      "t": 2999.9984999999992,
      "d": 176.4704999999999,
      "v": 127
    },
    {
      "midi": 64,
      "hit": false,
      "t": 3176.468999999999,
      "d": 176.4704999999999,
      "v": 127
    },
    {
      "midi": 55,
      "hit": false,
      "t": 3176.468999999999,
      "d": 176.4704999999999,
      "v": 127
    },
    {
      "midi": 62,
      "hit": false,
      "t": 3352.939499999999,
      "d": 176.4704999999999,
      "v": 127
    },
    {
      "midi": 53,
      "hit": false,
      "t": 3352.939499999999,
      "d": 176.4704999999999,
      "v": 127
    },
    {
      "midi": 60,
      "hit": false,
      "t": 3529.409999999999,
      "d": 176.4704999999999,
      "v": 127
    },
    {
      "midi": 52,
      "hit": false,
      "t": 3529.409999999999,
      "d": 352.9409999999998,
      "v": 127
    },
    {
      "midi": 70,
      "hit": false,
      "t": 3705.880499999999,
      "d": 176.4704999999999,
      "v": 127
    },
    {
      "midi": 69,
      "hit": false,
      "t": 3882.3509999999987,
      "d": 176.4704999999999,
      "v": 127
    },
    {
      "midi": 51,
      "hit": false,
      "t": 3882.3509999999987,
      "d": 352.9409999999998,
      "v": 127
    },
    {
      "midi": 67,
      "hit": false,
      "t": 4058.8214999999987,
      "d": 176.4704999999999,
      "v": 127
    },
    {
      "midi": 74,
      "hit": false,
      "t": 4235.291999999999,
      "d": 176.47050000000036,
      "v": 127
    },
    {
      "midi": 50,
      "hit": false,
      "t": 4235.291999999999,
      "d": 352.9409999999998,
      "v": 127
    },
    {
      "midi": 72,
      "hit": false,
      "t": 4411.762499999999,
      "d": 176.47050000000036,
      "v": 127
    },
    {
      "midi": 55,
      "hit": false,
      "t": 4588.232999999998,
      "d": 705.8819999999996,
      "v": 127
    },
    {
      "midi": 70,
      "hit": false,
      "t": 4588.232999999999,
      "d": 176.47050000000036,
      "v": 127
    },
    {
      "midi": 74,
      "hit": false,
      "t": 4764.7035,
      "d": 176.47050000000036,
      "v": 127
    },
    {
      "midi": 72,
      "hit": false,
      "t": 4941.174,
      "d": 176.47050000000036,
      "v": 127
    },
    {
      "midi": 70,
      "hit": false,
      "t": 5117.6445,
      "d": 176.47050000000036,
      "v": 127
    },
    {
      "midi": 54,
      "hit": false,
      "t": 5294.114999999998,
      "d": 352.9409999999998,
      "v": 127
    },
    {
      "midi": 69,
      "hit": false,
      "t": 5294.115000000001,
      "d": 176.47050000000036,
      "v": 127
    },
    {
      "midi": 72,
      "hit": false,
      "t": 5470.585500000001,
      "d": 176.47050000000036,
      "v": 127
    },
    {
      "midi": 55,
      "hit": false,
      "t": 5647.055999999998,
      "d": 176.47050000000036,
      "v": 127
    },
    {
      "midi": 70,
      "hit": false,
      "t": 5647.056000000001,
      "d": 176.47050000000036,
      "v": 127
    },
    {
      "midi": 50,
      "hit": false,
      "t": 5823.526499999998,
      "d": 176.47050000000036,
      "v": 127
    },
    {
      "midi": 69,
      "hit": false,
      "t": 5823.526500000002,
      "d": 176.47050000000036,
      "v": 127
    },
    {
      "midi": 52,
      "hit": false,
      "t": 5999.9969999999985,
      "d": 176.47050000000036,
      "v": 127
    },
    {
      "midi": 67,
      "hit": false,
      "t": 5999.997000000002,
      "d": 176.47050000000036,
      "v": 127
    },
    {
      "midi": 54,
      "hit": false,
      "t": 6176.467499999999,
      "d": 176.47050000000036,
      "v": 127
    },
    {
      "midi": 69,
      "hit": false,
      "t": 6176.4675000000025,
      "d": 176.47050000000036,
      "v": 127
    },
    {
      "midi": 55,
      "hit": false,
      "t": 6352.937999999999,
      "d": 176.47050000000036,
      "v": 127
    },
    {
      "midi": 70,
      "hit": false,
      "t": 6352.938000000003,
      "d": 176.47050000000036,
      "v": 127
    },
    {
      "midi": 57,
      "hit": false,
      "t": 6529.4085,
      "d": 176.47050000000036,
      "v": 127
    },
    {
      "midi": 72,
      "hit": false,
      "t": 6529.408500000003,
      "d": 176.47050000000036,
      "v": 127
    },
    {
      "midi": 58,
      "hit": false,
      "t": 6705.879,
      "d": 176.47050000000036,
      "v": 127
    },
    {
      "midi": 74,
      "hit": false,
      "t": 6705.8790000000035,
      "d": 176.47050000000036,
      "v": 127
    },
    {
      "midi": 55,
      "hit": false,
      "t": 6882.3495,
      "d": 176.47050000000036,
      "v": 127
    },
    {
      "midi": 76,
      "hit": false,
      "t": 6882.349500000004,
      "d": 176.47050000000036,
      "v": 127
    },
    {
      "midi": 57,
      "hit": false,
      "t": 7058.820000000001,
      "d": 176.47050000000036,
      "v": 127
    },
    {
      "midi": 77,
      "hit": false,
      "t": 7058.820000000004,
      "d": 352.9409999999998,
      "v": 127
    },
    {
      "midi": 55,
      "hit": false,
      "t": 7235.290500000001,
      "d": 176.47050000000036,
      "v": 127
    },
    {
      "midi": 53,
      "hit": false,
      "t": 7411.761000000001,
      "d": 176.47050000000036,
      "v": 127
    },
    {
      "midi": 74,
      "hit": false,
      "t": 7411.761000000004,
      "d": 352.9409999999998,
      "v": 127
    },
    {
      "midi": 52,
      "hit": false,
      "t": 7588.231500000002,
      "d": 176.47050000000036,
      "v": 127
    },
    {
      "midi": 50,
      "hit": false,
      "t": 7764.702000000002,
      "d": 176.47050000000036,
      "v": 127
    },
    {
      "midi": 60,
      "hit": false,
      "t": 7941.172500000002,
      "d": 176.47050000000036,
      "v": 127
    },
    {
      "midi": 58,
      "hit": false,
      "t": 8117.643000000003,
      "d": 176.47050000000036,
      "v": 127
    },
    {
      "midi": 74,
      "hit": false,
      "t": 8117.643000000004,
      "d": 352.9410000000007,
      "v": 127
    },
    {
      "midi": 57,
      "hit": false,
      "t": 8294.113500000003,
      "d": 176.47049999999945,
      "v": 127
    },
    {
      "midi": 55,
      "hit": false,
      "t": 8470.584000000003,
      "d": 176.47049999999945,
      "v": 127
    },
    {
      "midi": 75,
      "hit": false,
      "t": 8470.584000000004,
      "d": 176.47049999999945,
      "v": 127
    },
    {
      "midi": 53,
      "hit": false,
      "t": 8647.054500000002,
      "d": 176.47049999999945,
      "v": 127
    },
    {
      "midi": 74,
      "hit": false,
      "t": 8647.054500000004,
      "d": 176.47049999999945,
      "v": 127
    },
    {
      "midi": 51,
      "hit": false,
      "t": 8823.525000000001,
      "d": 176.47049999999945,
      "v": 127
    },
    {
      "midi": 72,
      "hit": false,
      "t": 8823.525000000003,
      "d": 176.47049999999945,
      "v": 127
    },
    {
      "midi": 50,
      "hit": false,
      "t": 8999.9955,
      "d": 176.47049999999945,
      "v": 127
    },
    {
      "midi": 74,
      "hit": false,
      "t": 8999.995500000003,
      "d": 176.47049999999945,
      "v": 127
    },
    {
      "midi": 48,
      "hit": false,
      "t": 9176.466,
      "d": 176.47049999999945,
      "v": 127
    },
    {
      "midi": 75,
      "hit": false,
      "t": 9176.466000000002,
      "d": 352.9410000000007,
      "v": 127
    },
    {
      "midi": 58,
      "hit": false,
      "t": 9352.9365,
      "d": 176.47049999999945,
      "v": 127
    },
    {
      "midi": 57,
      "hit": false,
      "t": 9529.407,
      "d": 176.47049999999945,
      "v": 127
    },
    {
      "midi": 76,
      "hit": false,
      "t": 9529.407000000003,
      "d": 352.9410000000007,
      "v": 127
    },
    {
      "midi": 55,
      "hit": false,
      "t": 9705.877499999999,
      "d": 176.47049999999945,
      "v": 127
    },
    {
      "midi": 62,
      "hit": false,
      "t": 9882.347999999998,
      "d": 176.47049999999945,
      "v": 127
    },
    {
      "midi": 77,
      "hit": false,
      "t": 9882.348000000004,
      "d": 176.47049999999945,
      "v": 127
    },
    {
      "midi": 60,
      "hit": false,
      "t": 10058.818499999998,
      "d": 176.47049999999945,
      "v": 127
    },
    {
      "midi": 76,
      "hit": false,
      "t": 10058.818500000003,
      "d": 176.47049999999945,
      "v": 127
    },
    {
      "midi": 58,
      "hit": false,
      "t": 10235.288999999997,
      "d": 176.47049999999945,
      "v": 127
    },
    {
      "midi": 74,
      "hit": false,
      "t": 10235.289000000002,
      "d": 176.47049999999945,
      "v": 127
    },
    {
      "midi": 62,
      "hit": false,
      "t": 10411.759499999996,
      "d": 176.47049999999945,
      "v": 127
    },
    {
      "midi": 76,
      "hit": false,
      "t": 10411.759500000002,
      "d": 176.47049999999945,
      "v": 127
    },
    {
      "midi": 60,
      "hit": false,
      "t": 10588.229999999996,
      "d": 176.47049999999945,
      "v": 127
    },
    {
      "midi": 77,
      "hit": false,
      "t": 10588.230000000001,
      "d": 352.9410000000007,
      "v": 127
    },
    {
      "midi": 58,
      "hit": false,
      "t": 10764.700499999995,
      "d": 176.47049999999945,
      "v": 127
    },
    {
      "midi": 57,
      "hit": false,
      "t": 10941.170999999995,
      "d": 176.47049999999945,
      "v": 127
    },
    {
      "midi": 78,
      "hit": false,
      "t": 10941.171000000002,
      "d": 352.9410000000007,
      "v": 127
    },
    {
      "midi": 60,
      "hit": false,
      "t": 11117.641499999994,
      "d": 176.47049999999945,
      "v": 127
    },
    {
      "midi": 58,
      "hit": false,
      "t": 11294.111999999994,
      "d": 176.47049999999945,
      "v": 127
    },
    {
      "midi": 79,
      "hit": false,
      "t": 11294.112000000003,
      "d": 352.9410000000007,
      "v": 127
    },
    {
      "midi": 57,
      "hit": false,
      "t": 11470.582499999993,
      "d": 176.47049999999945,
      "v": 127
    },
    {
      "midi": 55,
      "hit": false,
      "t": 11647.052999999993,
      "d": 176.47049999999945,
      "v": 127
    },
    {
      "midi": 74,
      "hit": false,
      "t": 11647.053000000004,
      "d": 176.47049999999945,
      "v": 127
    },
    {
      "midi": 57,
      "hit": false,
      "t": 11823.523499999992,
      "d": 176.47049999999945,
      "v": 127
    },
    {
      "midi": 72,
      "hit": false,
      "t": 11823.523500000003,
      "d": 176.47049999999945,
      "v": 127
    },
    {
      "midi": 58,
      "hit": false,
      "t": 11999.993999999992,
      "d": 176.47049999999945,
      "v": 127
    },
    {
      "midi": 74,
      "hit": false,
      "t": 11999.994000000002,
      "d": 176.47049999999945,
      "v": 127
    },
    {
      "midi": 60,
      "hit": false,
      "t": 12176.464499999991,
      "d": 176.47049999999945,
      "v": 127
    },
    {
      "midi": 75,
      "hit": false,
      "t": 12176.464500000002,
      "d": 176.47049999999945,
      "v": 127
    },
    {
      "midi": 62,
      "hit": false,
      "t": 12352.93499999999,
      "d": 176.47049999999945,
      "v": 127
    },
    {
      "midi": 77,
      "hit": false,
      "t": 12352.935000000001,
      "d": 176.47049999999945,
      "v": 127
    },
    {
      "midi": 58,
      "hit": false,
      "t": 12529.40549999999,
      "d": 176.47049999999945,
      "v": 127
    },
    {
      "midi": 74,
      "hit": false,
      "t": 12529.4055,
      "d": 176.47049999999945,
      "v": 127
    },
    {
      "midi": 60,
      "hit": false,
      "t": 12705.87599999999,
      "d": 352.9410000000007,
      "v": 127
    },
    {
      "midi": 75,
      "hit": false,
      "t": 12705.876,
      "d": 176.47049999999945,
      "v": 127
    },
    {
      "midi": 74,
      "hit": false,
      "t": 12882.3465,
      "d": 176.47049999999945,
      "v": 127
    },
    {
      "midi": 51,
      "hit": false,
      "t": 13058.81699999999,
      "d": 352.9410000000007,
      "v": 127
    },
    {
      "midi": 72,
      "hit": false,
      "t": 13058.817,
      "d": 176.47049999999945,
      "v": 127
    },
    {
      "midi": 70,
      "hit": false,
      "t": 13235.287499999999,
      "d": 176.47049999999945,
      "v": 127
    },
    {
      "midi": 53,
      "hit": false,
      "t": 13411.75799999999,
      "d": 352.9410000000007,
      "v": 127
    },
    {
      "midi": 69,
      "hit": false,
      "t": 13411.757999999998,
      "d": 176.47049999999945,
      "v": 127
    },
    {
      "midi": 79,
      "hit": false,
      "t": 13588.228499999997,
      "d": 176.47049999999945,
      "v": 127
    },
    {
      "midi": 41,
      "hit": false,
      "t": 13764.698999999991,
      "d": 352.9410000000007,
      "v": 127
    },
    {
      "midi": 77,
      "hit": false,
      "t": 13764.698999999997,
      "d": 176.47049999999945,
      "v": 127
    },
    {
      "midi": 75,
      "hit": false,
      "t": 13941.169499999996,
      "d": 176.47049999999945,
      "v": 127
    },
    {
      "midi": 46,
      "hit": false,
      "t": 14117.639999999992,
      "d": 352.9410000000007,
      "v": 127
    },
    {
      "midi": 74,
      "hit": false,
      "t": 14117.639999999996,
      "d": 176.47049999999945,
      "v": 127
    },
    {
      "midi": 72,
      "hit": false,
      "t": 14294.110499999995,
      "d": 176.47049999999945,
      "v": 127
    },
    {
      "midi": 58,
      "hit": false,
      "t": 14470.580999999993,
      "d": 352.9410000000007,
      "v": 127
    },
    {
      "midi": 74,
      "hit": false,
      "t": 14470.580999999995,
      "d": 176.47049999999945,
      "v": 127
    },
    {
      "midi": 76,
      "hit": false,
      "t": 14647.051499999994,
      "d": 176.47049999999945,
      "v": 127
    },
    {
      "midi": 77,
      "hit": false,
      "t": 14823.521999999994,
      "d": 176.47049999999945,
      "v": 127
    },
    {
      "midi": 57,
      "hit": false,
      "t": 14823.521999999994,
      "d": 352.9410000000007,
      "v": 127
    },
    {
      "midi": 79,
      "hit": false,
      "t": 14999.992499999993,
      "d": 176.47049999999945,
      "v": 127
    },
    {
      "midi": 81,
      "hit": false,
      "t": 15176.462999999992,
      "d": 176.47049999999945,
      "v": 127
    },
    {
      "midi": 62,
      "hit": false,
      "t": 15176.462999999994,
      "d": 352.9410000000007,
      "v": 127
    },
    {
      "midi": 77,
      "hit": false,
      "t": 15352.933499999992,
      "d": 176.47049999999945,
      "v": 127
    },
    {
      "midi": 79,
      "hit": false,
      "t": 15529.403999999991,
      "d": 176.47049999999945,
      "v": 127
    },
    {
      "midi": 58,
      "hit": false,
      "t": 15529.403999999995,
      "d": 352.9410000000007,
      "v": 127
    },
    {
      "midi": 77,
      "hit": false,
      "t": 15705.87449999999,
      "d": 176.47049999999945,
      "v": 127
    },
    {
      "midi": 76,
      "hit": false,
      "t": 15882.34499999999,
      "d": 176.47049999999945,
      "v": 127
    },
    {
      "midi": 55,
      "hit": false,
      "t": 15882.344999999996,
      "d": 352.9410000000007,
      "v": 127
    },
    {
      "midi": 74,
      "hit": false,
      "t": 16058.81549999999,
      "d": 176.47049999999945,
      "v": 127
    },
    {
      "midi": 73,
      "hit": false,
      "t": 16235.28599999999,
      "d": 176.47049999999945,
      "v": 127
    },
    {
      "midi": 57,
      "hit": false,
      "t": 16235.285999999996,
      "d": 352.9409999999989,
      "v": 127
    },
    {
      "midi": 82,
      "hit": false,
      "t": 16411.75649999999,
      "d": 176.47049999999945,
      "v": 127
    },
    {
      "midi": 81,
      "hit": false,
      "t": 16588.226999999988,
      "d": 176.47049999999945,
      "v": 127
    },
    {
      "midi": 45,
      "hit": false,
      "t": 16588.226999999995,
      "d": 352.9409999999989,
      "v": 127
    },
    {
      "midi": 79,
      "hit": false,
      "t": 16764.697499999987,
      "d": 176.47049999999945,
      "v": 127
    },
    {
      "midi": 77,
      "hit": false,
      "t": 16941.167999999987,
      "d": 705.8820000000014,
      "v": 127
    },
    {
      "midi": 38,
      "hit": false,
      "t": 16941.167999999994,
      "d": 176.47049999999945,
      "v": 127
    },
    {
      "midi": 45,
      "hit": false,
      "t": 17117.638499999994,
      "d": 176.47049999999945,
      "v": 127
    },
    {
      "midi": 47,
      "hit": false,
      "t": 17294.108999999993,
      "d": 176.47049999999945,
      "v": 127
    },
    {
      "midi": 49,
      "hit": false,
      "t": 17470.579499999993,
      "d": 176.47049999999945,
      "v": 127
    },
    {
      "midi": 50,
      "hit": false,
      "t": 17647.049999999992,
      "d": 176.47049999999945,
      "v": 127
    },
    {
      "midi": 79,
      "hit": false,
      "t": 17823.520499999988,
      "d": 176.47049999999945,
      "v": 127
    },
    {
      "midi": 52,
      "hit": false,
      "t": 17823.52049999999,
      "d": 176.47049999999945,
      "v": 127
    },
    {
      "midi": 81,
      "hit": false,
      "t": 17999.990999999987,
      "d": 176.47049999999945,
      "v": 127
    },
    {
      "midi": 53,
      "hit": false,
      "t": 17999.99099999999,
      "d": 176.47049999999945,
      "v": 127
    },
    {
      "midi": 82,
      "hit": false,
      "t": 18176.461499999987,
      "d": 176.47049999999945,
      "v": 127
    },
    {
      "midi": 50,
      "hit": false,
      "t": 18176.46149999999,
      "d": 176.47049999999945,
      "v": 127
    },
    {
      "midi": 73,
      "hit": false,
      "t": 18352.931999999986,
      "d": 176.47049999999945,
      "v": 127
    },
    {
      "midi": 52,
      "hit": false,
      "t": 18352.93199999999,
      "d": 176.47049999999945,
      "v": 127
    },
    {
      "midi": 74,
      "hit": false,
      "t": 18529.402499999986,
      "d": 176.47049999999945,
      "v": 127
    },
    {
      "midi": 50,
      "hit": false,
      "t": 18529.40249999999,
      "d": 176.47049999999945,
      "v": 127
    },
    {
      "midi": 76,
      "hit": false,
      "t": 18705.872999999985,
      "d": 176.47049999999945,
      "v": 127
    },
    {
      "midi": 49,
      "hit": false,
      "t": 18705.87299999999,
      "d": 176.47049999999945,
      "v": 127
    },
    {
      "midi": 74,
      "hit": false,
      "t": 18882.343499999984,
      "d": 176.47049999999945,
      "v": 127
    },
    {
      "midi": 47,
      "hit": false,
      "t": 18882.343499999988,
      "d": 176.47049999999945,
      "v": 127
    },
    {
      "midi": 73,
      "hit": false,
      "t": 19058.813999999984,
      "d": 352.9409999999989,
      "v": 127
    },
    {
      "midi": 45,
      "hit": false,
      "t": 19058.813999999988,
      "d": 176.47049999999945,
      "v": 127
    },
    {
      "midi": 55,
      "hit": false,
      "t": 19235.284499999987,
      "d": 176.47049999999945,
      "v": 127
    },
    {
      "midi": 72,
      "hit": false,
      "t": 19411.754999999983,
      "d": 352.9409999999989,
      "v": 127
    },
    {
      "midi": 53,
      "hit": false,
      "t": 19411.754999999986,
      "d": 176.47049999999945,
      "v": 127
    },
    {
      "midi": 52,
      "hit": false,
      "t": 19588.225499999986,
      "d": 176.47049999999945,
      "v": 127
    },
    {
      "midi": 71,
      "hit": false,
      "t": 19764.69599999998,
      "d": 176.47049999999945,
      "v": 127
    },
    {
      "midi": 50,
      "hit": false,
      "t": 19764.695999999985,
      "d": 176.47049999999945,
      "v": 127
    },
    {
      "midi": 72,
      "hit": false,
      "t": 19941.16649999998,
      "d": 176.47049999999945,
      "v": 127
    },
    {
      "midi": 48,
      "hit": false,
      "t": 19941.166499999985,
      "d": 176.47049999999945,
      "v": 127
    },
    {
      "midi": 74,
      "hit": false,
      "t": 20117.63699999998,
      "d": 176.47049999999945,
      "v": 127
    },
    {
      "midi": 47,
      "hit": false,
      "t": 20117.636999999984,
      "d": 176.47049999999945,
      "v": 127
    },
    {
      "midi": 72,
      "hit": false,
      "t": 20294.10749999998,
      "d": 176.47049999999945,
      "v": 127
    },
    {
      "midi": 45,
      "hit": false,
      "t": 20294.107499999984,
      "d": 176.47049999999945,
      "v": 127
    },
    {
      "midi": 71,
      "hit": false,
      "t": 20470.57799999998,
      "d": 352.9409999999989,
      "v": 127
    },
    {
      "midi": 43,
      "hit": false,
      "t": 20470.577999999983,
      "d": 176.47049999999945,
      "v": 127
    },
    {
      "midi": 53,
      "hit": false,
      "t": 20647.048499999983,
      "d": 176.47049999999945,
      "v": 127
    },
    {
      "midi": 70,
      "hit": false,
      "t": 20823.51899999998,
      "d": 352.9409999999989,
      "v": 127
    },
    {
      "midi": 52,
      "hit": false,
      "t": 20823.518999999982,
      "d": 176.47049999999945,
      "v": 127
    },
    {
      "midi": 50,
      "hit": false,
      "t": 20999.98949999998,
      "d": 176.47049999999945,
      "v": 127
    },
    {
      "midi": 69,
      "hit": false,
      "t": 21176.459999999977,
      "d": 352.9409999999989,
      "v": 127
    },
    {
      "midi": 57,
      "hit": false,
      "t": 21176.45999999998,
      "d": 176.47049999999945,
      "v": 127
    },
    {
      "midi": 55,
      "hit": false,
      "t": 21352.93049999998,
      "d": 176.47049999999945,
      "v": 127
    },
    {
      "midi": 74,
      "hit": false,
      "t": 21529.400999999976,
      "d": 705.8820000000014,
      "v": 127
    },
    {
      "midi": 53,
      "hit": false,
      "t": 21529.40099999998,
      "d": 176.47049999999945,
      "v": 127
    },
    {
      "midi": 57,
      "hit": false,
      "t": 21705.87149999998,
      "d": 176.47049999999945,
      "v": 127
    },
    {
      "midi": 55,
      "hit": false,
      "t": 21882.34199999998,
      "d": 176.47049999999945,
      "v": 127
    },
    {
      "midi": 53,
      "hit": false,
      "t": 22058.812499999978,
      "d": 176.47049999999945,
      "v": 127
    },
    {
      "midi": 73,
      "hit": false,
      "t": 22235.282999999978,
      "d": 352.9409999999989,
      "v": 127
    },
    {
      "midi": 52,
      "hit": false,
      "t": 22235.282999999978,
      "d": 176.47049999999945,
      "v": 127
    },
    {
      "midi": 55,
      "hit": false,
      "t": 22411.753499999977,
      "d": 176.47049999999945,
      "v": 127
    },
    {
      "midi": 69,
      "hit": false,
      "t": 22588.223999999977,
      "d": 352.9409999999989,
      "v": 127
    },
    {
      "midi": 53,
      "hit": false,
      "t": 22588.223999999977,
      "d": 176.47049999999945,
      "v": 127
    },
    {
      "midi": 52,
      "hit": false,
      "t": 22764.694499999976,
      "d": 176.47049999999945,
      "v": 127
    },
    {
      "midi": 77,
      "hit": false,
      "t": 22941.164999999975,
      "d": 705.8820000000014,
      "v": 127
    },
    {
      "midi": 50,
      "hit": false,
      "t": 22941.164999999975,
      "d": 176.47049999999945,
      "v": 127
    },
    {
      "midi": 53,
      "hit": false,
      "t": 23117.635499999975,
      "d": 176.47049999999945,
      "v": 127
    },
    {
      "midi": 52,
      "hit": false,
      "t": 23294.105999999974,
      "d": 176.47049999999945,
      "v": 127
    },
    {
      "midi": 50,
      "hit": false,
      "t": 23470.576499999974,
      "d": 176.47049999999945,
      "v": 127
    },
    {
      "midi": 49,
      "hit": false,
      "t": 23647.046999999973,
      "d": 176.47049999999945,
      "v": 127
    },
    {
      "midi": 76,
      "hit": false,
      "t": 23647.046999999977,
      "d": 352.9409999999989,
      "v": 127
    },
    {
      "midi": 52,
      "hit": false,
      "t": 23823.517499999973,
      "d": 176.47049999999945,
      "v": 127
    },
    {
      "midi": 50,
      "hit": false,
      "t": 23999.987999999972,
      "d": 176.47049999999945,
      "v": 127
    },
    {
      "midi": 69,
      "hit": false,
      "t": 23999.987999999976,
      "d": 352.9409999999989,
      "v": 127
    },
    {
      "midi": 52,
      "hit": false,
      "t": 24176.45849999997,
      "d": 176.47049999999945,
      "v": 127
    },
    {
      "midi": 53,
      "hit": false,
      "t": 24352.92899999997,
      "d": 176.47049999999945,
      "v": 127
    },
    {
      "midi": 81,
      "hit": false,
      "t": 24352.928999999975,
      "d": 705.8820000000014,
      "v": 127
    },
    {
      "midi": 50,
      "hit": false,
      "t": 24529.39949999997,
      "d": 176.47049999999945,
      "v": 127
    },
    {
      "midi": 55,
      "hit": false,
      "t": 24705.86999999997,
      "d": 176.47049999999945,
      "v": 127
    },
    {
      "midi": 57,
      "hit": false,
      "t": 24882.34049999997,
      "d": 176.47049999999945,
      "v": 127
    },
    {
      "midi": 58,
      "hit": false,
      "t": 25058.81099999997,
      "d": 176.47049999999945,
      "v": 127
    },
    {
      "midi": 79,
      "hit": false,
      "t": 25058.810999999976,
      "d": 705.8820000000014,
      "v": 127
    },
    {
      "midi": 55,
      "hit": false,
      "t": 25235.28149999997,
      "d": 176.47049999999945,
      "v": 127
    },
    {
      "midi": 61,
      "hit": false,
      "t": 25411.751999999968,
      "d": 176.47049999999945,
      "v": 127
    },
    {
      "midi": 57,
      "hit": false,
      "t": 25588.222499999967,
      "d": 176.47049999999945,
      "v": 127
    },
    {
      "midi": 59,
      "hit": false,
      "t": 25764.692999999967,
      "d": 176.47049999999945,
      "v": 127
    },
    {
      "midi": 77,
      "hit": false,
      "t": 25764.692999999977,
      "d": 176.47049999999945,
      "v": 127
    },
    {
      "midi": 61,
      "hit": false,
      "t": 25941.163499999966,
      "d": 176.47049999999945,
      "v": 127
    },
    {
      "midi": 76,
      "hit": false,
      "t": 25941.163499999977,
      "d": 176.47049999999945,
      "v": 127
    },
    {
      "midi": 62,
      "hit": false,
      "t": 26117.633999999965,
      "d": 176.47049999999945,
      "v": 127
    },
    {
      "midi": 77,
      "hit": false,
      "t": 26117.633999999976,
      "d": 176.47049999999945,
      "v": 127
    },
    {
      "midi": 53,
      "hit": false,
      "t": 26294.104499999965,
      "d": 176.47049999999945,
      "v": 127
    },
    {
      "midi": 74,
      "hit": false,
      "t": 26294.104499999976,
      "d": 176.47049999999945,
      "v": 127
    },
    {
      "midi": 55,
      "hit": false,
      "t": 26470.574999999964,
      "d": 176.47049999999945,
      "v": 127
    },
    {
      "midi": 76,
      "hit": false,
      "t": 26470.574999999975,
      "d": 176.47049999999945,
      "v": 127
    },
    {
      "midi": 57,
      "hit": false,
      "t": 26647.045499999964,
      "d": 176.47049999999945,
      "v": 127
    },
    {
      "midi": 73,
      "hit": false,
      "t": 26647.045499999975,
      "d": 176.47049999999945,
      "v": 127
    },
    {
      "midi": 58,
      "hit": false,
      "t": 26823.515999999963,
      "d": 176.47049999999945,
      "v": 127
    },
    {
      "midi": 74,
      "hit": false,
      "t": 26823.515999999974,
      "d": 529.4114999999983,
      "v": 127
    },
    {
      "midi": 52,
      "hit": false,
      "t": 26999.986499999963,
      "d": 176.47049999999945,
      "v": 127
    },
    {
      "midi": 53,
      "hit": false,
      "t": 27176.456999999962,
      "d": 176.47049999999945,
      "v": 127
    },
    {
      "midi": 55,
      "hit": false,
      "t": 27352.92749999996,
      "d": 176.47049999999945,
      "v": 127
    },
    {
      "midi": 76,
      "hit": false,
      "t": 27352.927499999972,
      "d": 176.47049999999945,
      "v": 127
    },
    {
      "midi": 57,
      "hit": false,
      "t": 27529.39799999996,
      "d": 352.9409999999989,
      "v": 127
    },
    {
      "midi": 76,
      "hit": false,
      "t": 27529.397999999972,
      "d": 529.4114999999983,
      "v": 127
    },
    {
      "midi": 45,
      "hit": false,
      "t": 27882.33899999996,
      "d": 352.9409999999989,
      "v": 127
    },
    {
      "midi": 74,
      "hit": false,
      "t": 28058.80949999997,
      "d": 176.47049999999945,
      "v": 127
    },
    {
      "midi": 50,
      "hit": false,
      "t": 28235.27999999996,
      "d": 705.8820000000014,
      "v": 127
    },
    {
      "midi": 74,
      "hit": false,
      "t": 28235.27999999997,
      "d": 352.9409999999989,
      "v": 127
    },
    {
      "midi": 72,
      "hit": false,
      "t": 28588.22099999997,
      "d": 176.47049999999945,
      "v": 127
    },
    {
      "midi": 70,
      "hit": false,
      "t": 28764.691499999968,
      "d": 176.47049999999945,
      "v": 127
    },
    {
      "midi": 69,
      "hit": false,
      "t": 28941.161999999968,
      "d": 176.47049999999945,
      "v": 127
    },
    {
      "midi": 50,
      "hit": false,
      "t": 29117.63249999996,
      "d": 176.47049999999945,
      "v": 127
    },
    {
      "midi": 70,
      "hit": false,
      "t": 29117.632499999967,
      "d": 176.47049999999945,
      "v": 127
    },
    {
      "midi": 52,
      "hit": false,
      "t": 29294.10299999996,
      "d": 176.47049999999945,
      "v": 127
    },
    {
      "midi": 72,
      "hit": false,
      "t": 29294.102999999966,
      "d": 176.47049999999945,
      "v": 127
    },
    {
      "midi": 53,
      "hit": false,
      "t": 29470.57349999996,
      "d": 176.47049999999945,
      "v": 127
    },
    {
      "midi": 69,
      "hit": false,
      "t": 29470.573499999966,
      "d": 176.47049999999945,
      "v": 127
    },
    {
      "midi": 55,
      "hit": false,
      "t": 29647.043999999958,
      "d": 176.47049999999945,
      "v": 127
    },
    {
      "midi": 70,
      "hit": false,
      "t": 29647.043999999965,
      "d": 176.47049999999945,
      "v": 127
    },
    {
      "midi": 57,
      "hit": false,
      "t": 29823.514499999957,
      "d": 176.47049999999945,
      "v": 127
    },
    {
      "midi": 69,
      "hit": false,
      "t": 29823.514499999965,
      "d": 176.47049999999945,
      "v": 127
    },
    {
      "midi": 58,
      "hit": false,
      "t": 29999.984999999957,
      "d": 176.47049999999945,
      "v": 127
    },
    {
      "midi": 67,
      "hit": false,
      "t": 29999.984999999964,
      "d": 176.47049999999945,
      "v": 127
    },
    {
      "midi": 55,
      "hit": false,
      "t": 30176.455499999956,
      "d": 176.47049999999945,
      "v": 127
    },
    {
      "midi": 65,
      "hit": false,
      "t": 30176.455499999964,
      "d": 176.47049999999945,
      "v": 127
    },
    {
      "midi": 60,
      "hit": false,
      "t": 30352.925999999956,
      "d": 352.9409999999989,
      "v": 127
    },
    {
      "midi": 64,
      "hit": false,
      "t": 30352.925999999963,
      "d": 176.47049999999945,
      "v": 127
    },
    {
      "midi": 74,
      "hit": false,
      "t": 30529.396499999963,
      "d": 176.47049999999945,
      "v": 127
    },
    {
      "midi": 48,
      "hit": false,
      "t": 30705.866999999955,
      "d": 352.9409999999989,
      "v": 127
    },
    {
      "midi": 72,
      "hit": false,
      "t": 30705.866999999962,
      "d": 176.47049999999945,
      "v": 127
    },
    {
      "midi": 70,
      "hit": false,
      "t": 30882.33749999996,
      "d": 176.47049999999945,
      "v": 127
    },
    {
      "midi": 53,
      "hit": false,
      "t": 31058.807999999954,
      "d": 352.9409999999989,
      "v": 127
    },
    {
      "midi": 69,
      "hit": false,
      "t": 31058.80799999996,
      "d": 176.47049999999945,
      "v": 127
    },
    {
      "midi": 67,
      "hit": false,
      "t": 31235.27849999996,
      "d": 176.47049999999945,
      "v": 127
    },
    {
      "midi": 51,
      "hit": false,
      "t": 31411.748999999953,
      "d": 176.47049999999945,
      "v": 127
    },
    {
      "midi": 69,
      "hit": false,
      "t": 31411.74899999996,
      "d": 176.47049999999945,
      "v": 127
    },
    {
      "midi": 50,
      "hit": false,
      "t": 31588.219499999952,
      "d": 176.47049999999945,
      "v": 127
    },
    {
      "midi": 71,
      "hit": false,
      "t": 31588.21949999996,
      "d": 176.47049999999945,
      "v": 127
    },
    {
      "midi": 51,
      "hit": false,
      "t": 31764.68999999995,
      "d": 176.47049999999945,
      "v": 127
    },
    {
      "midi": 72,
      "hit": false,
      "t": 31764.68999999996,
      "d": 705.8820000000014,
      "v": 127
    },
    {
      "midi": 53,
      "hit": false,
      "t": 31941.16049999995,
      "d": 176.47049999999945,
      "v": 127
    },
    {
      "midi": 55,
      "hit": false,
      "t": 32117.63099999995,
      "d": 176.47049999999945,
      "v": 127
    },
    {
      "midi": 51,
      "hit": false,
      "t": 32294.10149999995,
      "d": 176.47049999999945,
      "v": 127
    },
    {
      "midi": 53,
      "hit": false,
      "t": 32470.57199999995,
      "d": 176.47049999999945,
      "v": 127
    },
    {
      "midi": 51,
      "hit": false,
      "t": 32647.04249999995,
      "d": 176.47049999999945,
      "v": 127
    },
    {
      "midi": 69,
      "hit": false,
      "t": 32647.04249999996,
      "d": 176.47050000000309,
      "v": 127
    },
    {
      "midi": 50,
      "hit": false,
      "t": 32823.51299999995,
      "d": 176.47050000000309,
      "v": 127
    },
    {
      "midi": 71,
      "hit": false,
      "t": 32823.51299999996,
      "d": 176.47050000000309,
      "v": 127
    },
    {
      "midi": 48,
      "hit": false,
      "t": 32999.98349999995,
      "d": 176.47050000000309,
      "v": 127
    },
    {
      "midi": 72,
      "hit": false,
      "t": 32999.983499999966,
      "d": 176.47050000000309,
      "v": 127
    },
    {
      "midi": 47,
      "hit": false,
      "t": 33176.453999999954,
      "d": 176.47050000000309,
      "v": 127
    },
    {
      "midi": 74,
      "hit": false,
      "t": 33176.45399999997,
      "d": 705.8819999999978,
      "v": 127
    },
    {
      "midi": 56,
      "hit": false,
      "t": 33352.92449999996,
      "d": 176.47050000000309,
      "v": 127
    },
    {
      "midi": 55,
      "hit": false,
      "t": 33529.39499999996,
      "d": 176.47050000000309,
      "v": 127
    },
    {
      "midi": 53,
      "hit": false,
      "t": 33705.86549999996,
      "d": 176.47050000000309,
      "v": 127
    },
    {
      "midi": 51,
      "hit": false,
      "t": 33882.33599999997,
      "d": 176.47050000000309,
      "v": 127
    },
    {
      "midi": 67,
      "hit": false,
      "t": 34058.80649999997,
      "d": 176.47050000000309,
      "v": 127
    },
    {
      "midi": 50,
      "hit": false,
      "t": 34058.80649999997,
      "d": 176.47050000000309,
      "v": 127
    },
    {
      "midi": 69,
      "hit": false,
      "t": 34235.27699999997,
      "d": 176.47050000000309,
      "v": 127
    },
    {
      "midi": 48,
      "hit": false,
      "t": 34235.27699999997,
      "d": 176.47050000000309,
      "v": 127
    },
    {
      "midi": 71,
      "hit": false,
      "t": 34411.747499999976,
      "d": 176.47050000000309,
      "v": 127
    },
    {
      "midi": 50,
      "hit": false,
      "t": 34411.747499999976,
      "d": 176.47050000000309,
      "v": 127
    },
    {
      "midi": 72,
      "hit": false,
      "t": 34588.21799999998,
      "d": 176.47050000000309,
      "v": 127
    },
    {
      "midi": 51,
      "hit": false,
      "t": 34588.21799999998,
      "d": 176.47050000000309,
      "v": 127
    },
    {
      "midi": 74,
      "hit": false,
      "t": 34764.68849999998,
      "d": 176.47050000000309,
      "v": 127
    },
    {
      "midi": 53,
      "hit": false,
      "t": 34764.68849999998,
      "d": 176.47050000000309,
      "v": 127
    },
    {
      "midi": 75,
      "hit": false,
      "t": 34941.158999999985,
      "d": 176.47050000000309,
      "v": 127
    },
    {
      "midi": 55,
      "hit": false,
      "t": 34941.158999999985,
      "d": 176.47050000000309,
      "v": 127
    },
    {
      "midi": 72,
      "hit": false,
      "t": 35117.62949999999,
      "d": 176.47050000000309,
      "v": 127
    },
    {
      "midi": 56,
      "hit": false,
      "t": 35117.62949999999,
      "d": 176.47050000000309,
      "v": 127
    },
    {
      "midi": 74,
      "hit": false,
      "t": 35294.09999999999,
      "d": 176.47050000000309,
      "v": 127
    },
    {
      "midi": 47,
      "hit": false,
      "t": 35294.09999999999,
      "d": 352.9409999999989,
      "v": 127
    },
    {
      "midi": 72,
      "hit": false,
      "t": 35470.570499999994,
      "d": 176.47050000000309,
      "v": 127
    },
    {
      "midi": 43,
      "hit": false,
      "t": 35647.04099999999,
      "d": 352.9409999999989,
      "v": 127
    },
    {
      "midi": 71,
      "hit": false,
      "t": 35647.041,
      "d": 176.47050000000309,
      "v": 127
    },
    {
      "midi": 69,
      "hit": false,
      "t": 35823.5115,
      "d": 176.47050000000309,
      "v": 127
    },
    {
      "midi": 67,
      "hit": false,
      "t": 35999.982,
      "d": 176.47050000000309,
      "v": 127
    },
    {
      "midi": 77,
      "hit": false,
      "t": 36176.45250000001,
      "d": 176.47050000000309,
      "v": 127
    },
    {
      "midi": 43,
      "hit": false,
      "t": 36352.92299999999,
      "d": 352.9409999999989,
      "v": 127
    },
    {
      "midi": 75,
      "hit": false,
      "t": 36352.92300000001,
      "d": 176.47050000000309,
      "v": 127
    },
    {
      "midi": 74,
      "hit": false,
      "t": 36529.39350000001,
      "d": 176.47050000000309,
      "v": 127
    },
    {
      "midi": 44,
      "hit": false,
      "t": 36705.86399999999,
      "d": 176.47050000000309,
      "v": 127
    },
    {
      "midi": 72,
      "hit": false,
      "t": 36705.864000000016,
      "d": 176.47050000000309,
      "v": 127
    },
    {
      "midi": 43,
      "hit": false,
      "t": 36882.33449999999,
      "d": 176.47050000000309,
      "v": 127
    },
    {
      "midi": 70,
      "hit": false,
      "t": 36882.33450000002,
      "d": 176.47050000000309,
      "v": 127
    },
    {
      "midi": 41,
      "hit": false,
      "t": 37058.80499999999,
      "d": 176.47050000000309,
      "v": 127
    },
    {
      "midi": 68,
      "hit": false,
      "t": 37058.80500000002,
      "d": 176.47050000000309,
      "v": 127
    },
    {
      "midi": 43,
      "hit": false,
      "t": 37235.275499999996,
      "d": 176.47050000000309,
      "v": 127
    },
    {
      "midi": 67,
      "hit": false,
      "t": 37235.275500000025,
      "d": 176.47050000000309,
      "v": 127
    },
    {
      "midi": 44,
      "hit": false,
      "t": 37411.746,
      "d": 352.9409999999989,
      "v": 127
    },
    {
      "midi": 65,
      "hit": false,
      "t": 37411.74600000003,
      "d": 176.47050000000309,
      "v": 127
    },
    {
      "midi": 75,
      "hit": false,
      "t": 37588.21650000003,
      "d": 176.47050000000309,
      "v": 127
    },
    {
      "midi": 45,
      "hit": false,
      "t": 37764.687,
      "d": 352.9409999999989,
      "v": 127
    },
    {
      "midi": 74,
      "hit": false,
      "t": 37764.687000000034,
      "d": 176.47050000000309,
      "v": 127
    },
    {
      "midi": 72,
      "hit": false,
      "t": 37941.15750000004,
      "d": 176.47050000000309,
      "v": 127
    },
    {
      "midi": 46,
      "hit": false,
      "t": 38117.628,
      "d": 176.47050000000309,
      "v": 127
    },
    {
      "midi": 79,
      "hit": false,
      "t": 38117.62800000004,
      "d": 176.47050000000309,
      "v": 127
    },
    {
      "midi": 45,
      "hit": false,
      "t": 38294.0985,
      "d": 176.47050000000309,
      "v": 127
    },
    {
      "midi": 77,
      "hit": false,
      "t": 38294.098500000044,
      "d": 176.47050000000309,
      "v": 127
    },
    {
      "midi": 43,
      "hit": false,
      "t": 38470.569,
      "d": 176.47050000000309,
      "v": 127
    },
    {
      "midi": 75,
      "hit": false,
      "t": 38470.56900000005,
      "d": 176.47050000000309,
      "v": 127
    },
    {
      "midi": 45,
      "hit": false,
      "t": 38647.039500000006,
      "d": 176.47050000000309,
      "v": 127
    },
    {
      "midi": 79,
      "hit": false,
      "t": 38647.03950000005,
      "d": 176.47050000000309,
      "v": 127
    },
    {
      "midi": 46,
      "hit": false,
      "t": 38823.51000000001,
      "d": 352.9409999999989,
      "v": 127
    },
    {
      "midi": 77,
      "hit": false,
      "t": 38823.51000000005,
      "d": 176.47050000000309,
      "v": 127
    },
    {
      "midi": 75,
      "hit": false,
      "t": 38999.980500000056,
      "d": 176.47050000000309,
      "v": 127
    },
    {
      "midi": 47,
      "hit": false,
      "t": 39176.45100000001,
      "d": 352.9409999999989,
      "v": 127
    },
    {
      "midi": 74,
      "hit": false,
      "t": 39176.45100000006,
      "d": 176.47050000000309,
      "v": 127
    },
    {
      "midi": 77,
      "hit": false,
      "t": 39352.92150000006,
      "d": 176.47050000000309,
      "v": 127
    },
    {
      "midi": 48,
      "hit": false,
      "t": 39529.39200000001,
      "d": 176.47050000000309,
      "v": 127
    },
    {
      "midi": 75,
      "hit": false,
      "t": 39529.392000000065,
      "d": 176.47050000000309,
      "v": 127
    },
    {
      "midi": 43,
      "hit": false,
      "t": 39705.86250000001,
      "d": 176.47050000000309,
      "v": 127
    },
    {
      "midi": 74,
      "hit": false,
      "t": 39705.86250000007,
      "d": 176.47050000000309,
      "v": 127
    },
    {
      "midi": 45,
      "hit": false,
      "t": 39882.33300000001,
      "d": 176.47050000000309,
      "v": 127
    },
    {
      "midi": 72,
      "hit": false,
      "t": 39882.33300000007,
      "d": 176.47050000000309,
      "v": 127
    },
    {
      "midi": 47,
      "hit": false,
      "t": 40058.803500000016,
      "d": 176.47050000000309,
      "v": 127
    },
    {
      "midi": 74,
      "hit": false,
      "t": 40058.803500000075,
      "d": 176.47050000000309,
      "v": 127
    },
    {
      "midi": 48,
      "hit": false,
      "t": 40235.27400000002,
      "d": 176.47050000000309,
      "v": 127
    },
    {
      "midi": 75,
      "hit": false,
      "t": 40235.27400000008,
      "d": 176.47050000000309,
      "v": 127
    },
    {
      "midi": 50,
      "hit": false,
      "t": 40411.74450000002,
      "d": 176.47050000000309,
      "v": 127
    },
    {
      "midi": 77,
      "hit": false,
      "t": 40411.74450000008,
      "d": 176.47050000000309,
      "v": 127
    },
    {
      "midi": 51,
      "hit": false,
      "t": 40588.215000000026,
      "d": 176.47050000000309,
      "v": 127
    },
    {
      "midi": 79,
      "hit": false,
      "t": 40588.215000000084,
      "d": 176.47050000000309,
      "v": 127
    },
    {
      "midi": 48,
      "hit": false,
      "t": 40764.68550000003,
      "d": 176.47050000000309,
      "v": 127
    },
    {
      "midi": 80,
      "hit": false,
      "t": 40764.68550000009,
      "d": 176.47050000000309,
      "v": 127
    },
    {
      "midi": 50,
      "hit": false,
      "t": 40941.15600000003,
      "d": 176.47050000000309,
      "v": 127
    },
    {
      "midi": 71,
      "hit": false,
      "t": 40941.15600000009,
      "d": 352.9409999999989,
      "v": 127
    },
    {
      "midi": 48,
      "hit": false,
      "t": 41117.626500000035,
      "d": 176.47050000000309,
      "v": 127
    },
    {
      "midi": 47,
      "hit": false,
      "t": 41294.09700000004,
      "d": 176.47050000000309,
      "v": 127
    },
    {
      "midi": 74,
      "hit": false,
      "t": 41294.09700000009,
      "d": 352.9409999999989,
      "v": 127
    },
    {
      "midi": 45,
      "hit": false,
      "t": 41470.56750000004,
      "d": 176.47050000000309,
      "v": 127
    },
    {
      "midi": 43,
      "hit": false,
      "t": 41647.038000000044,
      "d": 176.47050000000309,
      "v": 127
    },
    {
      "midi": 53,
      "hit": false,
      "t": 41823.50850000005,
      "d": 176.47050000000309,
      "v": 127
    },
    {
      "midi": 51,
      "hit": false,
      "t": 41999.97900000005,
      "d": 176.47050000000309,
      "v": 127
    },
    {
      "midi": 65,
      "hit": false,
      "t": 41999.97900000009,
      "d": 352.9409999999989,
      "v": 127
    },
    {
      "midi": 50,
      "hit": false,
      "t": 42176.44950000005,
      "d": 176.47050000000309,
      "v": 127
    },
    {
      "midi": 48,
      "hit": false,
      "t": 42352.92000000006,
      "d": 176.47050000000309,
      "v": 127
    },
    {
      "midi": 63,
      "hit": false,
      "t": 42352.920000000086,
      "d": 352.9409999999989,
      "v": 127
    },
    {
      "midi": 46,
      "hit": false,
      "t": 42529.39050000006,
      "d": 176.47050000000309,
      "v": 127
    },
    {
      "midi": 44,
      "hit": false,
      "t": 42705.86100000006,
      "d": 176.47050000000309,
      "v": 127
    },
    {
      "midi": 72,
      "hit": false,
      "t": 42705.861000000084,
      "d": 352.9409999999989,
      "v": 127
    },
    {
      "midi": 43,
      "hit": false,
      "t": 42882.331500000066,
      "d": 176.47050000000309,
      "v": 127
    },
    {
      "midi": 41,
      "hit": false,
      "t": 43058.80200000007,
      "d": 176.47050000000309,
      "v": 127
    },
    {
      "midi": 62,
      "hit": false,
      "t": 43058.80200000008,
      "d": 352.9409999999989,
      "v": 127
    },
    {
      "midi": 39,
      "hit": false,
      "t": 43235.27250000007,
      "d": 176.47050000000309,
      "v": 127
    },
    {
      "midi": 41,
      "hit": false,
      "t": 43411.743000000075,
      "d": 176.47050000000309,
      "v": 127
    },
    {
      "midi": 71,
      "hit": false,
      "t": 43411.74300000008,
      "d": 352.9409999999989,
      "v": 127
    },
    {
      "midi": 43,
      "hit": false,
      "t": 43588.21350000008,
      "d": 176.47050000000309,
      "v": 127
    },
    {
      "midi": 72,
      "hit": false,
      "t": 43764.68400000008,
      "d": 176.47050000000309,
      "v": 127
    },
    {
      "midi": 36,
      "hit": false,
      "t": 43764.68400000008,
      "d": 176.47050000000309,
      "v": 127
    },
    {
      "midi": 67,
      "hit": false,
      "t": 43941.154500000084,
      "d": 176.47050000000309,
      "v": 127
    },
    {
      "midi": 50,
      "hit": false,
      "t": 43941.154500000084,
      "d": 176.47050000000309,
      "v": 127
    },
    {
      "midi": 72,
      "hit": false,
      "t": 44117.62500000009,
      "d": 176.47050000000309,
      "v": 127
    },
    {
      "midi": 51,
      "hit": false,
      "t": 44117.62500000009,
      "d": 176.47050000000309,
      "v": 127
    },
    {
      "midi": 74,
      "hit": false,
      "t": 44294.09550000009,
      "d": 176.47050000000309,
      "v": 127
    },
    {
      "midi": 53,
      "hit": false,
      "t": 44294.09550000009,
      "d": 176.47050000000309,
      "v": 127
    },
    {
      "midi": 75,
      "hit": false,
      "t": 44470.56600000009,
      "d": 705.8819999999978,
      "v": 127
    },
    {
      "midi": 55,
      "hit": false,
      "t": 44470.56600000009,
      "d": 176.47050000000309,
      "v": 127
    },
    {
      "midi": 56,
      "hit": false,
      "t": 44647.0365000001,
      "d": 176.47050000000309,
      "v": 127
    },
    {
      "midi": 58,
      "hit": false,
      "t": 44823.5070000001,
      "d": 176.47050000000309,
      "v": 127
    },
    {
      "midi": 55,
      "hit": false,
      "t": 44999.9775000001,
      "d": 176.47050000000309,
      "v": 127
    },
    {
      "midi": 56,
      "hit": false,
      "t": 45176.448000000106,
      "d": 176.47050000000309,
      "v": 127
    },
    {
      "midi": 72,
      "hit": false,
      "t": 45352.918500000094,
      "d": 176.47050000000309,
      "v": 127
    },
    {
      "midi": 55,
      "hit": false,
      "t": 45352.91850000011,
      "d": 176.47050000000309,
      "v": 127
    },
    {
      "midi": 74,
      "hit": false,
      "t": 45529.3890000001,
      "d": 176.47050000000309,
      "v": 127
    },
    {
      "midi": 53,
      "hit": false,
      "t": 45529.38900000011,
      "d": 176.47050000000309,
      "v": 127
    },
    {
      "midi": 75,
      "hit": false,
      "t": 45705.8595000001,
      "d": 176.47050000000309,
      "v": 127
    },
    {
      "midi": 51,
      "hit": false,
      "t": 45705.859500000115,
      "d": 176.47050000000309,
      "v": 127
    },
    {
      "midi": 77,
      "hit": false,
      "t": 45882.3300000001,
      "d": 1058.8229999999967,
      "v": 127
    },
    {
      "midi": 50,
      "hit": false,
      "t": 45882.33000000012,
      "d": 176.47050000000309,
      "v": 127
    },
    {
      "midi": 60,
      "hit": false,
      "t": 46058.80050000012,
      "d": 176.47050000000309,
      "v": 127
    },
    {
      "midi": 58,
      "hit": false,
      "t": 46235.271000000124,
      "d": 176.47050000000309,
      "v": 127
    },
    {
      "midi": 56,
      "hit": false,
      "t": 46411.74150000013,
      "d": 176.47050000000309,
      "v": 127
    },
    {
      "midi": 55,
      "hit": false,
      "t": 46588.21200000013,
      "d": 176.47050000000309,
      "v": 127
    },
    {
      "midi": 53,
      "hit": false,
      "t": 46764.68250000013,
      "d": 176.47050000000309,
      "v": 127
    },
    {
      "midi": 75,
      "hit": false,
      "t": 46941.1530000001,
      "d": 176.47050000000309,
      "v": 127
    },
    {
      "midi": 55,
      "hit": false,
      "t": 46941.15300000014,
      "d": 176.47050000000309,
      "v": 127
    },
    {
      "midi": 74,
      "hit": false,
      "t": 47117.6235000001,
      "d": 176.47050000000309,
      "v": 127
    },
    {
      "midi": 57,
      "hit": false,
      "t": 47117.62350000014,
      "d": 176.47050000000309,
      "v": 127
    },
    {
      "midi": 79,
      "hit": false,
      "t": 47294.09400000011,
      "d": 529.411500000002,
      "v": 127
    },
    {
      "midi": 58,
      "hit": false,
      "t": 47294.09400000014,
      "d": 176.47050000000309,
      "v": 127
    },
    {
      "midi": 60,
      "hit": false,
      "t": 47470.564500000146,
      "d": 176.47050000000309,
      "v": 127
    },
    {
      "midi": 62,
      "hit": false,
      "t": 47647.03500000015,
      "d": 176.47050000000309,
      "v": 127
    },
    {
      "midi": 77,
      "hit": false,
      "t": 47823.50550000011,
      "d": 176.47050000000309,
      "v": 127
    },
    {
      "midi": 58,
      "hit": false,
      "t": 47823.50550000015,
      "d": 176.47050000000309,
      "v": 127
    },
    {
      "midi": 75,
      "hit": false,
      "t": 47999.97600000011,
      "d": 176.47050000000309,
      "v": 127
    },
    {
      "midi": 60,
      "hit": false,
      "t": 47999.976000000155,
      "d": 176.47050000000309,
      "v": 127
    },
    {
      "midi": 74,
      "hit": false,
      "t": 48176.446500000115,
      "d": 176.47050000000309,
      "v": 127
    },
    {
      "midi": 58,
      "hit": false,
      "t": 48176.44650000016,
      "d": 176.47050000000309,
      "v": 127
    },
    {
      "midi": 72,
      "hit": false,
      "t": 48352.91700000012,
      "d": 176.47050000000309,
      "v": 127
    },
    {
      "midi": 57,
      "hit": false,
      "t": 48352.91700000016,
      "d": 176.47050000000309,
      "v": 127
    },
    {
      "midi": 70,
      "hit": false,
      "t": 48529.38750000012,
      "d": 176.47050000000309,
      "v": 127
    },
    {
      "midi": 55,
      "hit": false,
      "t": 48529.387500000164,
      "d": 176.47050000000309,
      "v": 127
    },
    {
      "midi": 69,
      "hit": false,
      "t": 48705.858000000124,
      "d": 176.47050000000309,
      "v": 127
    },
    {
      "midi": 54,
      "hit": false,
      "t": 48705.85800000017,
      "d": 176.47050000000309,
      "v": 127
    },
    {
      "midi": 67,
      "hit": false,
      "t": 48882.32850000013,
      "d": 176.47050000000309,
      "v": 127
    },
    {
      "midi": 63,
      "hit": false,
      "t": 48882.32850000017,
      "d": 176.47050000000309,
      "v": 127
    },
    {
      "midi": 66,
      "hit": false,
      "t": 49058.79900000013,
      "d": 176.47050000000309,
      "v": 127
    },
    {
      "midi": 62,
      "hit": false,
      "t": 49058.799000000174,
      "d": 176.47050000000309,
      "v": 127
    },
    {
      "midi": 69,
      "hit": false,
      "t": 49235.26950000013,
      "d": 176.47050000000309,
      "v": 127
    },
    {
      "midi": 60,
      "hit": false,
      "t": 49235.26950000018,
      "d": 176.47050000000309,
      "v": 127
    },
    {
      "midi": 63,
      "hit": false,
      "t": 49411.740000000136,
      "d": 176.47050000000309,
      "v": 127
    },
    {
      "midi": 58,
      "hit": false,
      "t": 49411.74000000018,
      "d": 705.8819999999978,
      "v": 127
    },
    {
      "midi": 62,
      "hit": false,
      "t": 49588.21050000014,
      "d": 176.47050000000309,
      "v": 127
    },
    {
      "midi": 64,
      "hit": false,
      "t": 49764.68100000014,
      "d": 176.47050000000309,
      "v": 127
    },
    {
      "midi": 66,
      "hit": false,
      "t": 49941.151500000145,
      "d": 176.47050000000309,
      "v": 127
    },
    {
      "midi": 67,
      "hit": false,
      "t": 50117.62200000015,
      "d": 176.47050000000309,
      "v": 127
    },
    {
      "midi": 69,
      "hit": false,
      "t": 50294.09250000015,
      "d": 176.47050000000309,
      "v": 127
    },
    {
      "midi": 60,
      "hit": false,
      "t": 50294.09250000018,
      "d": 176.47050000000309,
      "v": 127
    },
    {
      "midi": 70,
      "hit": false,
      "t": 50470.563000000155,
      "d": 176.47050000000309,
      "v": 127
    },
    {
      "midi": 62,
      "hit": false,
      "t": 50470.563000000184,
      "d": 176.47050000000309,
      "v": 127
    },
    {
      "midi": 67,
      "hit": false,
      "t": 50647.03350000016,
      "d": 176.47050000000309,
      "v": 127
    },
    {
      "midi": 63,
      "hit": false,
      "t": 50647.03350000019,
      "d": 176.47050000000309,
      "v": 127
    },
    {
      "midi": 69,
      "hit": false,
      "t": 50823.50400000016,
      "d": 176.47050000000309,
      "v": 127
    },
    {
      "midi": 54,
      "hit": false,
      "t": 50823.50400000019,
      "d": 176.47050000000309,
      "v": 127
    },
    {
      "midi": 67,
      "hit": false,
      "t": 50999.974500000164,
      "d": 176.47050000000309,
      "v": 127
    },
    {
      "midi": 55,
      "hit": false,
      "t": 50999.97450000019,
      "d": 176.47050000000309,
      "v": 127
    },
    {
      "midi": 66,
      "hit": false,
      "t": 51176.44500000017,
      "d": 176.47050000000309,
      "v": 127
    },
    {
      "midi": 57,
      "hit": false,
      "t": 51176.445000000196,
      "d": 176.47050000000309,
      "v": 127
    },
    {
      "midi": 64,
      "hit": false,
      "t": 51352.91550000017,
      "d": 176.47050000000309,
      "v": 127
    },
    {
      "midi": 55,
      "hit": false,
      "t": 51352.9155000002,
      "d": 176.47050000000309,
      "v": 127
    },
    {
      "midi": 62,
      "hit": false,
      "t": 51529.38600000017,
      "d": 176.47050000000309,
      "v": 127
    },
    {
      "midi": 54,
      "hit": false,
      "t": 51529.3860000002,
      "d": 352.9409999999989,
      "v": 127
    },
    {
      "midi": 72,
      "hit": false,
      "t": 51705.856500000176,
      "d": 176.47050000000309,
      "v": 127
    },
    {
      "midi": 70,
      "hit": false,
      "t": 51882.32700000018,
      "d": 176.47050000000309,
      "v": 127
    },
    {
      "midi": 53,
      "hit": false,
      "t": 51882.3270000002,
      "d": 352.9409999999989,
      "v": 127
    },
    {
      "midi": 69,
      "hit": false,
      "t": 52058.79750000018,
      "d": 176.47050000000309,
      "v": 127
    },
    {
      "midi": 67,
      "hit": false,
      "t": 52235.268000000186,
      "d": 176.47050000000309,
      "v": 127
    },
    {
      "midi": 52,
      "hit": false,
      "t": 52235.2680000002,
      "d": 176.47050000000309,
      "v": 127
    },
    {
      "midi": 65,
      "hit": false,
      "t": 52411.73850000019,
      "d": 176.47050000000309,
      "v": 127
    },
    {
      "midi": 53,
      "hit": false,
      "t": 52411.7385000002,
      "d": 176.47050000000309,
      "v": 127
    },
    {
      "midi": 64,
      "hit": false,
      "t": 52588.20900000019,
      "d": 176.47050000000309,
      "v": 127
    },
    {
      "midi": 55,
      "hit": false,
      "t": 52588.209000000206,
      "d": 176.47050000000309,
      "v": 127
    },
    {
      "midi": 62,
      "hit": false,
      "t": 52764.679500000195,
      "d": 176.47050000000309,
      "v": 127
    },
    {
      "midi": 53,
      "hit": false,
      "t": 52764.67950000021,
      "d": 176.47050000000309,
      "v": 127
    },
    {
      "midi": 60,
      "hit": false,
      "t": 52941.1500000002,
      "d": 176.47050000000309,
      "v": 127
    },
    {
      "midi": 52,
      "hit": false,
      "t": 52941.15000000021,
      "d": 352.9409999999989,
      "v": 127
    },
    {
      "midi": 70,
      "hit": false,
      "t": 53117.6205000002,
      "d": 176.47050000000309,
      "v": 127
    },
    {
      "midi": 69,
      "hit": false,
      "t": 53294.091000000204,
      "d": 176.47050000000309,
      "v": 127
    },
    {
      "midi": 51,
      "hit": false,
      "t": 53294.09100000021,
      "d": 352.9409999999989,
      "v": 127
    },
    {
      "midi": 67,
      "hit": false,
      "t": 53470.56150000021,
      "d": 176.47050000000309,
      "v": 127
    },
    {
      "midi": 74,
      "hit": false,
      "t": 53647.03200000021,
      "d": 176.47050000000309,
      "v": 127
    },
    {
      "midi": 50,
      "hit": false,
      "t": 53647.03200000021,
      "d": 352.9409999999989,
      "v": 127
    },
    {
      "midi": 72,
      "hit": false,
      "t": 53823.50250000021,
      "d": 176.47050000000309,
      "v": 127
    },
    {
      "midi": 55,
      "hit": false,
      "t": 53999.97300000021,
      "d": 705.8819999999978,
      "v": 127
    },
    {
      "midi": 70,
      "hit": false,
      "t": 53999.97300000022,
      "d": 176.47050000000309,
      "v": 127
    },
    {
      "midi": 74,
      "hit": false,
      "t": 54176.44350000022,
      "d": 176.47050000000309,
      "v": 127
    },
    {
      "midi": 72,
      "hit": false,
      "t": 54352.91400000022,
      "d": 176.47050000000309,
      "v": 127
    },
    {
      "midi": 70,
      "hit": false,
      "t": 54529.384500000226,
      "d": 176.47050000000309,
      "v": 127
    },
    {
      "midi": 54,
      "hit": false,
      "t": 54705.85500000021,
      "d": 352.9409999999989,
      "v": 127
    },
    {
      "midi": 69,
      "hit": false,
      "t": 54705.85500000023,
      "d": 176.47050000000309,
      "v": 127
    },
    {
      "midi": 72,
      "hit": false,
      "t": 54882.32550000023,
      "d": 176.47050000000309,
      "v": 127
    },
    {
      "midi": 50,
      "hit": false,
      "t": 55058.796000000206,
      "d": 352.9409999999989,
      "v": 127
    },
    {
      "midi": 70,
      "hit": false,
      "t": 55058.796000000235,
      "d": 176.47050000000309,
      "v": 127
    },
    {
      "midi": 69,
      "hit": false,
      "t": 55235.26650000024,
      "d": 176.47050000000309,
      "v": 127
    },
    {
      "midi": 58,
      "hit": false,
      "t": 55411.737000000205,
      "d": 705.8819999999978,
      "v": 127
    },
    {
      "midi": 67,
      "hit": false,
      "t": 55411.73700000024,
      "d": 176.47050000000309,
      "v": 127
    },
    {
      "midi": 70,
      "hit": false,
      "t": 55588.207500000244,
      "d": 176.47050000000309,
      "v": 127
    },
    {
      "midi": 69,
      "hit": false,
      "t": 55764.67800000025,
      "d": 176.47050000000309,
      "v": 127
    },
    {
      "midi": 67,
      "hit": false,
      "t": 55941.14850000025,
      "d": 176.47050000000309,
      "v": 127
    },
    {
      "midi": 57,
      "hit": false,
      "t": 56117.6190000002,
      "d": 352.9409999999989,
      "v": 127
    },
    {
      "midi": 66,
      "hit": false,
      "t": 56117.61900000025,
      "d": 176.47050000000309,
      "v": 127
    },
    {
      "midi": 69,
      "hit": false,
      "t": 56294.08950000026,
      "d": 176.47050000000309,
      "v": 127
    },
    {
      "midi": 50,
      "hit": false,
      "t": 56470.5600000002,
      "d": 352.9409999999989,
      "v": 127
    },
    {
      "midi": 67,
      "hit": false,
      "t": 56470.56000000026,
      "d": 176.47050000000309,
      "v": 127
    },
    {
      "midi": 69,
      "hit": false,
      "t": 56647.03050000026,
      "d": 176.47050000000309,
      "v": 127
    },
    {
      "midi": 62,
      "hit": false,
      "t": 56823.5010000002,
      "d": 705.8819999999978,
      "v": 127
    },
    {
      "midi": 70,
      "hit": false,
      "t": 56823.501000000266,
      "d": 176.47050000000309,
      "v": 127
    },
    {
      "midi": 72,
      "hit": false,
      "t": 56999.97150000027,
      "d": 176.47050000000309,
      "v": 127
    },
    {
      "midi": 74,
      "hit": false,
      "t": 57176.44200000027,
      "d": 176.47050000000309,
      "v": 127
    },
    {
      "midi": 76,
      "hit": false,
      "t": 57352.912500000275,
      "d": 176.47050000000309,
      "v": 127
    },
    {
      "midi": 60,
      "hit": false,
      "t": 57529.3830000002,
      "d": 529.411500000002,
      "v": 127
    },
    {
      "midi": 78,
      "hit": false,
      "t": 57529.38300000028,
      "d": 176.47050000000309,
      "v": 127
    },
    {
      "midi": 79,
      "hit": false,
      "t": 57705.85350000028,
      "d": 176.47050000000309,
      "v": 127
    },
    {
      "midi": 81,
      "hit": false,
      "t": 57882.324000000284,
      "d": 176.47050000000309,
      "v": 127
    },
    {
      "midi": 63,
      "hit": false,
      "t": 58058.7945000002,
      "d": 176.47050000000309,
      "v": 127
    },
    {
      "midi": 78,
      "hit": false,
      "t": 58058.79450000029,
      "d": 176.47050000000309,
      "v": 127
    },
    {
      "midi": 62,
      "hit": false,
      "t": 58235.2650000002,
      "d": 176.47050000000309,
      "v": 127
    },
    {
      "midi": 79,
      "hit": false,
      "t": 58235.26500000029,
      "d": 176.47050000000309,
      "v": 127
    },
    {
      "midi": 60,
      "hit": false,
      "t": 58411.735500000206,
      "d": 176.47050000000309,
      "v": 127
    },
    {
      "midi": 81,
      "hit": false,
      "t": 58411.73550000029,
      "d": 176.47050000000309,
      "v": 127
    },
    {
      "midi": 58,
      "hit": false,
      "t": 58588.20600000021,
      "d": 176.47050000000309,
      "v": 127
    },
    {
      "midi": 74,
      "hit": false,
      "t": 58588.2060000003,
      "d": 705.8819999999978,
      "v": 127
    },
    {
      "midi": 57,
      "hit": false,
      "t": 58764.67650000021,
      "d": 176.47050000000309,
      "v": 127
    },
    {
      "midi": 55,
      "hit": false,
      "t": 58941.147000000215,
      "d": 176.47050000000309,
      "v": 127
    },
    {
      "midi": 58,
      "hit": false,
      "t": 59117.61750000022,
      "d": 176.47050000000309,
      "v": 127
    },
    {
      "midi": 51,
      "hit": false,
      "t": 59294.08800000022,
      "d": 705.8819999999978,
      "v": 127
    },
    {
      "midi": 72,
      "hit": false,
      "t": 59470.5585000003,
      "d": 176.47050000000309,
      "v": 127
    },
    {
      "midi": 75,
      "hit": false,
      "t": 59647.0290000003,
      "d": 176.47050000000309,
      "v": 127
    },
    {
      "midi": 74,
      "hit": false,
      "t": 59823.499500000304,
      "d": 176.47050000000309,
      "v": 127
    },
    {
      "midi": 72,
      "hit": false,
      "t": 59999.97000000031,
      "d": 176.47050000000309,
      "v": 127
    },
    {
      "midi": 50,
      "hit": false,
      "t": 60176.44050000022,
      "d": 176.47050000000309,
      "v": 127
    },
    {
      "midi": 70,
      "hit": false,
      "t": 60176.44050000031,
      "d": 176.47050000000309,
      "v": 127
    },
    {
      "midi": 48,
      "hit": false,
      "t": 60352.911000000226,
      "d": 176.47050000000309,
      "v": 127
    },
    {
      "midi": 69,
      "hit": false,
      "t": 60352.91100000031,
      "d": 176.47050000000309,
      "v": 127
    },
    {
      "midi": 51,
      "hit": false,
      "t": 60529.38150000023,
      "d": 176.47050000000309,
      "v": 127
    },
    {
      "midi": 72,
      "hit": false,
      "t": 60529.381500000316,
      "d": 176.47050000000309,
      "v": 127
    },
    {
      "midi": 45,
      "hit": false,
      "t": 60705.85200000023,
      "d": 352.9409999999989,
      "v": 127
    },
    {
      "midi": 66,
      "hit": false,
      "t": 60705.85200000032,
      "d": 176.47050000000309,
      "v": 127
    },
    {
      "midi": 69,
      "hit": false,
      "t": 60882.32250000032,
      "d": 176.47050000000309,
      "v": 127
    },
    {
      "midi": 50,
      "hit": false,
      "t": 61058.79300000023,
      "d": 705.8819999999978,
      "v": 127
    },
    {
      "midi": 70,
      "hit": false,
      "t": 61058.793000000325,
      "d": 176.47050000000309,
      "v": 127
    },
    {
      "midi": 69,
      "hit": false,
      "t": 61235.26350000033,
      "d": 176.47050000000309,
      "v": 127
    },
    {
      "midi": 67,
      "hit": false,
      "t": 61411.73400000033,
      "d": 176.47050000000309,
      "v": 127
    },
    {
      "midi": 65,
      "hit": false,
      "t": 61588.204500000335,
      "d": 176.47050000000309,
      "v": 127
    },
    {
      "midi": 48,
      "hit": false,
      "t": 61764.67500000023,
      "d": 352.9409999999989,
      "v": 127
    },
    {
      "midi": 63,
      "hit": false,
      "t": 61764.67500000034,
      "d": 176.47050000000309,
      "v": 127
    },
    {
      "midi": 67,
      "hit": false,
      "t": 61941.14550000034,
      "d": 176.47050000000309,
      "v": 127
    },
    {
      "midi": 46,
      "hit": false,
      "t": 62117.61600000023,
      "d": 352.9409999999989,
      "v": 127
    },
    {
      "midi": 61,
      "hit": false,
      "t": 62117.616000000344,
      "d": 176.47050000000309,
      "v": 127
    },
    {
      "midi": 67,
      "hit": false,
      "t": 62294.08650000035,
      "d": 176.47050000000309,
      "v": 127
    },
    {
      "midi": 45,
      "hit": false,
      "t": 62470.557000000226,
      "d": 176.47050000000309,
      "v": 127
    },
    {
      "midi": 69,
      "hit": false,
      "t": 62470.55700000035,
      "d": 176.47050000000309,
      "v": 127
    },
    {
      "midi": 43,
      "hit": false,
      "t": 62647.02750000023,
      "d": 176.47050000000309,
      "v": 127
    },
    {
      "midi": 70,
      "hit": false,
      "t": 62647.02750000035,
      "d": 176.47050000000309,
      "v": 127
    },
    {
      "midi": 50,
      "hit": false,
      "t": 62823.49800000023,
      "d": 352.9409999999989,
      "v": 127
    },
    {
      "midi": 62,
      "hit": false,
      "t": 62823.498000000356,
      "d": 176.47050000000309,
      "v": 127
    },
    {
      "midi": 69,
      "hit": false,
      "t": 62999.96850000036,
      "d": 176.47050000000309,
      "v": 127
    },
    {
      "midi": 38,
      "hit": false,
      "t": 63176.43900000023,
      "d": 352.9409999999989,
      "v": 127
    },
    {
      "midi": 67,
      "hit": false,
      "t": 63176.43900000036,
      "d": 176.47050000000309,
      "v": 127
    },
    {
      "midi": 66,
      "hit": false,
      "t": 63352.909500000365,
      "d": 176.47050000000309,
      "v": 127
    },
    {
      "midi": 43,
      "hit": false,
      "t": 63529.38000000023,
      "d": 1411.7640000000029,
      "v": 127
    },
    {
      "midi": 67,
      "hit": false,
      "t": 63529.38000000037,
      "d": 1411.7640000000029,
      "v": 127
    }
  ]
}