{
  "jsonPath": "Classical/Classical/Johann Sebastian Bach/invention-7.json",
  "path": "Classical\\Classical\\Johann Sebastian Bach\\Invention 7.mid",
  "name": "Invention 7",
  "difficulty": "Advanced",
  "bpm": 90.00009000009,
  "notes": [
    {
      "midi": 52,
      "hit": false,
      "t": 0,
      "d": 333.33299999999997,
      "v": 127
    },
    {
      "midi": 71,
      "hit": false,
      "t": 333.33299999999997,
      "d": 166.66649999999998,
      "v": 127
    },
    {
      "midi": 40,
      "hit": false,
      "t": 333.33299999999997,
      "d": 333.33299999999997,
      "v": 127
    },
    {
      "midi": 69,
      "hit": false,
      "t": 499.99949999999995,
      "d": 166.66649999999998,
      "v": 127
    },
    {
      "midi": 67,
      "hit": false,
      "t": 666.6659999999999,
      "d": 166.66650000000004,
      "v": 127
    },
    {
      "midi": 66,
      "hit": false,
      "t": 833.3325,
      "d": 166.66650000000004,
      "v": 127
    },
    {
      "midi": 67,
      "hit": false,
      "t": 999.999,
      "d": 166.66650000000004,
      "v": 127
    },
    {
      "midi": 64,
      "hit": false,
      "t": 1166.6655,
      "d": 166.66650000000004,
      "v": 127
    },
    {
      "midi": 71,
      "hit": false,
      "t": 1333.332,
      "d": 333.33299999999986,
      "v": 127
    },
    {
      "midi": 71,
      "hit": false,
      "t": 1666.665,
      "d": 333.3330000000001,
      "v": 127
    },
    {
      "midi": 59,
      "hit": false,
      "t": 1666.665,
      "d": 166.66650000000004,
      "v": 127
    },
    {
      "midi": 57,
      "hit": false,
      "t": 1833.3315,
      "d": 166.66650000000004,
      "v": 127
    },
    {
      "midi": 76,
      "hit": false,
      "t": 1999.998,
      "d": 499.9994999999999,
      "v": 127
    },
    {
      "midi": 55,
      "hit": false,
      "t": 1999.998,
      "d": 166.66649999999981,
      "v": 127
    },
    {
      "midi": 54,
      "hit": false,
      "t": 2166.6645,
      "d": 166.66649999999981,
      "v": 127
    },
    {
      "midi": 55,
      "hit": false,
      "t": 2333.3309999999997,
      "d": 166.66649999999981,
      "v": 127
    },
    {
      "midi": 52,
      "hit": false,
      "t": 2499.9974999999995,
      "d": 166.66649999999981,
      "v": 127
    },
    {
      "midi": 78,
      "hit": false,
      "t": 2499.9975,
      "d": 166.66649999999981,
      "v": 127
    },
    {
      "midi": 59,
      "hit": false,
      "t": 2666.6639999999993,
      "d": 333.3330000000001,
      "v": 127
    },
    {
      "midi": 75,
      "hit": false,
      "t": 2666.6639999999998,
      "d": 333.3330000000001,
      "v": 127
    },
    {
      "midi": 47,
      "hit": false,
      "t": 2999.9969999999994,
      "d": 333.3330000000001,
      "v": 127
    },
    {
      "midi": 78,
      "hit": false,
      "t": 2999.997,
      "d": 166.66649999999981,
      "v": 127
    },
    {
      "midi": 76,
      "hit": false,
      "t": 3166.6634999999997,
      "d": 166.66649999999981,
      "v": 127
    },
    {
      "midi": 75,
      "hit": false,
      "t": 3333.3299999999995,
      "d": 166.66649999999981,
      "v": 127
    },
    {
      "midi": 73,
      "hit": false,
      "t": 3499.9964999999993,
      "d": 166.66649999999981,
      "v": 127
    },
    {
      "midi": 75,
      "hit": false,
      "t": 3666.662999999999,
      "d": 166.66649999999981,
      "v": 127
    },
    {
      "midi": 71,
      "hit": false,
      "t": 3833.329499999999,
      "d": 166.66649999999981,
      "v": 127
    },
    {
      "midi": 83,
      "hit": false,
      "t": 3999.9959999999987,
      "d": 333.3330000000001,
      "v": 127
    },
    {
      "midi": 81,
      "hit": false,
      "t": 4333.328999999999,
      "d": 166.66650000000027,
      "v": 127
    },
    {
      "midi": 66,
      "hit": false,
      "t": 4333.329,
      "d": 166.66650000000027,
      "v": 127
    },
    {
      "midi": 79,
      "hit": false,
      "t": 4499.995499999999,
      "d": 166.66650000000027,
      "v": 127
    },
    {
      "midi": 64,
      "hit": false,
      "t": 4499.9955,
      "d": 166.66650000000027,
      "v": 127
    },
    {
      "midi": 78,
      "hit": false,
      "t": 4666.661999999999,
      "d": 499.9994999999999,
      "v": 127
    },
    {
      "midi": 63,
      "hit": false,
      "t": 4666.662,
      "d": 166.66650000000027,
      "v": 127
    },
    {
      "midi": 61,
      "hit": false,
      "t": 4833.3285000000005,
      "d": 166.66650000000027,
      "v": 127
    },
    {
      "midi": 63,
      "hit": false,
      "t": 4999.995000000001,
      "d": 166.66650000000027,
      "v": 127
    },
    {
      "midi": 76,
      "hit": false,
      "t": 5166.661499999999,
      "d": 166.66650000000027,
      "v": 127
    },
    {
      "midi": 78,
      "hit": false,
      "t": 5166.661499999999,
      "d": 166.66650000000027,
      "v": 127
    },
    {
      "midi": 59,
      "hit": false,
      "t": 5166.661500000001,
      "d": 166.66650000000027,
      "v": 127
    },
    {
      "midi": 79,
      "hit": false,
      "t": 5333.3279999999995,
      "d": 333.33299999999963,
      "v": 127
    },
    {
      "midi": 64,
      "hit": false,
      "t": 5333.328000000001,
      "d": 333.33299999999963,
      "v": 127
    },
    {
      "midi": 83,
      "hit": false,
      "t": 5666.660999999999,
      "d": 166.66650000000027,
      "v": 127
    },
    {
      "midi": 52,
      "hit": false,
      "t": 5666.661000000001,
      "d": 333.33299999999963,
      "v": 127
    },
    {
      "midi": 81,
      "hit": false,
      "t": 5833.327499999999,
      "d": 166.66650000000027,
      "v": 127
    },
    {
      "midi": 79,
      "hit": false,
      "t": 5999.994,
      "d": 166.66650000000027,
      "v": 127
    },
    {
      "midi": 78,
      "hit": false,
      "t": 6166.6605,
      "d": 166.66650000000027,
      "v": 127
    },
    {
      "midi": 79,
      "hit": false,
      "t": 6333.327,
      "d": 166.66650000000027,
      "v": 127
    },
    {
      "midi": 76,
      "hit": false,
      "t": 6499.9935000000005,
      "d": 166.66650000000027,
      "v": 127
    },
    {
      "midi": 84,
      "hit": false,
      "t": 6666.660000000001,
      "d": 499.9994999999999,
      "v": 127
    },
    {
      "midi": 64,
      "hit": false,
      "t": 6999.993,
      "d": 166.66650000000027,
      "v": 127
    },
    {
      "midi": 83,
      "hit": false,
      "t": 7166.659500000001,
      "d": 166.66650000000027,
      "v": 127
    },
    {
      "midi": 62,
      "hit": false,
      "t": 7166.659500000001,
      "d": 166.66650000000027,
      "v": 127
    },
    {
      "midi": 81,
      "hit": false,
      "t": 7333.326000000001,
      "d": 166.66650000000027,
      "v": 127
    },
    {
      "midi": 60,
      "hit": false,
      "t": 7333.326000000001,
      "d": 166.66650000000027,
      "v": 127
    },
    {
      "midi": 79,
      "hit": false,
      "t": 7499.992500000001,
      "d": 166.66650000000027,
      "v": 127
    },
    {
      "midi": 59,
      "hit": false,
      "t": 7499.992500000001,
      "d": 166.66650000000027,
      "v": 127
    },
    {
      "midi": 78,
      "hit": false,
      "t": 7666.6590000000015,
      "d": 166.66650000000027,
      "v": 127
    },
    {
      "midi": 60,
      "hit": false,
      "t": 7666.6590000000015,
      "d": 166.66650000000027,
      "v": 127
    },
    {
      "midi": 76,
      "hit": false,
      "t": 7833.325500000002,
      "d": 166.66650000000027,
      "v": 127
    },
    {
      "midi": 57,
      "hit": false,
      "t": 7833.325500000002,
      "d": 166.66650000000027,
      "v": 127
    },
    {
      "midi": 78,
      "hit": false,
      "t": 7999.992000000002,
      "d": 333.33300000000054,
      "v": 127
    },
    {
      "midi": 62,
      "hit": false,
      "t": 7999.992000000002,
      "d": 333.33300000000054,
      "v": 127
    },
    {
      "midi": 81,
      "hit": false,
      "t": 8333.325000000003,
      "d": 166.66649999999936,
      "v": 127
    },
    {
      "midi": 50,
      "hit": false,
      "t": 8333.325000000003,
      "d": 333.33300000000054,
      "v": 127
    },
    {
      "midi": 79,
      "hit": false,
      "t": 8499.991500000002,
      "d": 166.66649999999936,
      "v": 127
    },
    {
      "midi": 78,
      "hit": false,
      "t": 8666.658000000001,
      "d": 166.66649999999936,
      "v": 127
    },
    {
      "midi": 76,
      "hit": false,
      "t": 8833.3245,
      "d": 166.66649999999936,
      "v": 127
    },
    {
      "midi": 78,
      "hit": false,
      "t": 8999.991,
      "d": 166.66649999999936,
      "v": 127
    },
    {
      "midi": 74,
      "hit": false,
      "t": 9166.6575,
      "d": 166.66649999999936,
      "v": 127
    },
    {
      "midi": 83,
      "hit": false,
      "t": 9333.323999999999,
      "d": 499.9994999999999,
      "v": 127
    },
    {
      "midi": 62,
      "hit": false,
      "t": 9666.657000000003,
      "d": 166.66649999999936,
      "v": 127
    },
    {
      "midi": 81,
      "hit": false,
      "t": 9833.323499999999,
      "d": 166.66649999999936,
      "v": 127
    },
    {
      "midi": 60,
      "hit": false,
      "t": 9833.323500000002,
      "d": 166.66649999999936,
      "v": 127
    },
    {
      "midi": 79,
      "hit": false,
      "t": 9999.989999999998,
      "d": 166.66649999999936,
      "v": 127
    },
    {
      "midi": 59,
      "hit": false,
      "t": 9999.990000000002,
      "d": 166.66649999999936,
      "v": 127
    },
    {
      "midi": 78,
      "hit": false,
      "t": 10166.656499999997,
      "d": 166.66649999999936,
      "v": 127
    },
    {
      "midi": 57,
      "hit": false,
      "t": 10166.656500000001,
      "d": 166.66649999999936,
      "v": 127
    },
    {
      "midi": 76,
      "hit": false,
      "t": 10333.322999999997,
      "d": 166.66649999999936,
      "v": 127
    },
    {
      "midi": 59,
      "hit": false,
      "t": 10333.323,
      "d": 166.66649999999936,
      "v": 127
    },
    {
      "midi": 74,
      "hit": false,
      "t": 10499.989499999996,
      "d": 166.66649999999936,
      "v": 127
    },
    {
      "midi": 55,
      "hit": false,
      "t": 10499.9895,
      "d": 166.66649999999936,
      "v": 127
    },
    {
      "midi": 76,
      "hit": false,
      "t": 10666.655999999995,
      "d": 166.66649999999936,
      "v": 127
    },
    {
      "midi": 60,
      "hit": false,
      "t": 10666.655999999999,
      "d": 499.9994999999999,
      "v": 127
    },
    {
      "midi": 78,
      "hit": false,
      "t": 10833.322499999995,
      "d": 166.66649999999936,
      "v": 127
    },
    {
      "midi": 76,
      "hit": false,
      "t": 10999.988999999994,
      "d": 166.66649999999936,
      "v": 127
    },
    {
      "midi": 74,
      "hit": false,
      "t": 11166.655499999993,
      "d": 166.66649999999936,
      "v": 127
    },
    {
      "midi": 59,
      "hit": false,
      "t": 11166.655499999999,
      "d": 166.66649999999936,
      "v": 127
    },
    {
      "midi": 72,
      "hit": false,
      "t": 11333.321999999993,
      "d": 166.66649999999936,
      "v": 127
    },
    {
      "midi": 57,
      "hit": false,
      "t": 11333.321999999998,
      "d": 166.66649999999936,
      "v": 127
    },
    {
      "midi": 71,
      "hit": false,
      "t": 11499.988499999992,
      "d": 166.66649999999936,
      "v": 127
    },
    {
      "midi": 55,
      "hit": false,
      "t": 11499.988499999998,
      "d": 166.66649999999936,
      "v": 127
    },
    {
      "midi": 69,
      "hit": false,
      "t": 11666.654999999992,
      "d": 166.66649999999936,
      "v": 127
    },
    {
      "midi": 54,
      "hit": false,
      "t": 11666.654999999997,
      "d": 166.66649999999936,
      "v": 127
    },
    {
      "midi": 67,
      "hit": false,
      "t": 11833.321499999991,
      "d": 166.66649999999936,
      "v": 127
    },
    {
      "midi": 52,
      "hit": false,
      "t": 11833.321499999996,
      "d": 166.66649999999936,
      "v": 127
    },
    {
      "midi": 72,
      "hit": false,
      "t": 11999.98799999999,
      "d": 166.66649999999936,
      "v": 127
    },
    {
      "midi": 57,
      "hit": false,
      "t": 11999.987999999996,
      "d": 499.9994999999999,
      "v": 127
    },
    {
      "midi": 71,
      "hit": false,
      "t": 12166.65449999999,
      "d": 166.66649999999936,
      "v": 127
    },
    {
      "midi": 69,
      "hit": false,
      "t": 12333.320999999989,
      "d": 166.66649999999936,
      "v": 127
    },
    {
      "midi": 71,
      "hit": false,
      "t": 12499.987499999988,
      "d": 166.66649999999936,
      "v": 127
    },
    {
      "midi": 55,
      "hit": false,
      "t": 12499.987499999996,
      "d": 166.66649999999936,
      "v": 127
    },
    {
      "midi": 72,
      "hit": false,
      "t": 12666.653999999988,
      "d": 166.66649999999936,
      "v": 127
    },
    {
      "midi": 54,
      "hit": false,
      "t": 12666.653999999995,
      "d": 166.66649999999936,
      "v": 127
    },
    {
      "midi": 74,
      "hit": false,
      "t": 12833.320499999987,
      "d": 166.66649999999936,
      "v": 127
    },
    {
      "midi": 52,
      "hit": false,
      "t": 12833.320499999994,
      "d": 166.66649999999936,
      "v": 127
    },
    {
      "midi": 76,
      "hit": false,
      "t": 12999.986999999986,
      "d": 166.66649999999936,
      "v": 127
    },
    {
      "midi": 50,
      "hit": false,
      "t": 12999.986999999994,
      "d": 166.66649999999936,
      "v": 127
    },
    {
      "midi": 78,
      "hit": false,
      "t": 13166.653499999986,
      "d": 166.66649999999936,
      "v": 127
    },
    {
      "midi": 48,
      "hit": false,
      "t": 13166.653499999993,
      "d": 166.66649999999936,
      "v": 127
    },
    {
      "midi": 79,
      "hit": false,
      "t": 13333.319999999985,
      "d": 166.66649999999936,
      "v": 127
    },
    {
      "midi": 47,
      "hit": false,
      "t": 13333.319999999992,
      "d": 499.9994999999999,
      "v": 127
    },
    {
      "midi": 78,
      "hit": false,
      "t": 13499.986499999985,
      "d": 166.66649999999936,
      "v": 127
    },
    {
      "midi": 76,
      "hit": false,
      "t": 13666.652999999984,
      "d": 166.66649999999936,
      "v": 127
    },
    {
      "midi": 74,
      "hit": false,
      "t": 13833.319499999983,
      "d": 166.66649999999936,
      "v": 127
    },
    {
      "midi": 48,
      "hit": false,
      "t": 13833.319499999992,
      "d": 166.66649999999936,
      "v": 127
    },
    {
      "midi": 79,
      "hit": false,
      "t": 13999.985999999983,
      "d": 499.9994999999999,
      "v": 127
    },
    {
      "midi": 47,
      "hit": false,
      "t": 13999.985999999992,
      "d": 166.66649999999936,
      "v": 127
    },
    {
      "midi": 45,
      "hit": false,
      "t": 14166.652499999991,
      "d": 166.66649999999936,
      "v": 127
    },
    {
      "midi": 43,
      "hit": false,
      "t": 14333.31899999999,
      "d": 166.66649999999936,
      "v": 127
    },
    {
      "midi": 79,
      "hit": false,
      "t": 14499.985499999982,
      "d": 166.66649999999936,
      "v": 127
    },
    {
      "midi": 42,
      "hit": false,
      "t": 14499.98549999999,
      "d": 166.66649999999936,
      "v": 127
    },
    {
      "midi": 79,
      "hit": false,
      "t": 14666.651999999982,
      "d": 166.66649999999936,
      "v": 127
    },
    {
      "midi": 40,
      "hit": false,
      "t": 14666.65199999999,
      "d": 333.33300000000054,
      "v": 127
    },
    {
      "midi": 78,
      "hit": false,
      "t": 14833.318499999981,
      "d": 166.66649999999936,
      "v": 127
    },
    {
      "midi": 76,
      "hit": false,
      "t": 14999.98499999998,
      "d": 166.66649999999936,
      "v": 127
    },
    {
      "midi": 48,
      "hit": false,
      "t": 14999.98499999999,
      "d": 333.33300000000054,
      "v": 127
    },
    {
      "midi": 78,
      "hit": false,
      "t": 15166.65149999998,
      "d": 166.66649999999936,
      "v": 127
    },
    {
      "midi": 78,
      "hit": false,
      "t": 15333.31799999998,
      "d": 499.9994999999999,
      "v": 127
    },
    {
      "midi": 50,
      "hit": false,
      "t": 15333.31799999999,
      "d": 333.33300000000054,
      "v": 127
    },
    {
      "midi": 38,
      "hit": false,
      "t": 15666.65099999999,
      "d": 333.33300000000054,
      "v": 127
    },
    {
      "midi": 79,
      "hit": false,
      "t": 15833.31749999998,
      "d": 166.66649999999936,
      "v": 127
    },
    {
      "midi": 79,
      "hit": false,
      "t": 15999.983999999979,
      "d": 333.33300000000054,
      "v": 127
    },
    {
      "midi": 43,
      "hit": false,
      "t": 15999.983999999991,
      "d": 666.6659999999993,
      "v": 127
    },
    {
      "midi": 74,
      "hit": false,
      "t": 16333.316999999979,
      "d": 166.66650000000118,
      "v": 127
    },
    {
      "midi": 72,
      "hit": false,
      "t": 16499.98349999998,
      "d": 166.66649999999936,
      "v": 127
    },
    {
      "midi": 71,
      "hit": false,
      "t": 16666.64999999998,
      "d": 166.66649999999936,
      "v": 127
    },
    {
      "midi": 69,
      "hit": false,
      "t": 16833.31649999998,
      "d": 166.66649999999936,
      "v": 127
    },
    {
      "midi": 71,
      "hit": false,
      "t": 16999.98299999998,
      "d": 166.66649999999936,
      "v": 127
    },
    {
      "midi": 67,
      "hit": false,
      "t": 17166.649499999978,
      "d": 166.66649999999936,
      "v": 127
    },
    {
      "midi": 74,
      "hit": false,
      "t": 17333.315999999977,
      "d": 3999.995999999999,
      "v": 127
    },
    {
      "midi": 43,
      "hit": false,
      "t": 17666.64899999999,
      "d": 166.66649999999936,
      "v": 127
    },
    {
      "midi": 45,
      "hit": false,
      "t": 17833.31549999999,
      "d": 166.66649999999936,
      "v": 127
    },
    {
      "midi": 47,
      "hit": false,
      "t": 17999.98199999999,
      "d": 166.66649999999936,
      "v": 127
    },
    {
      "midi": 45,
      "hit": false,
      "t": 18166.64849999999,
      "d": 166.66649999999936,
      "v": 127
    },
    {
      "midi": 47,
      "hit": false,
      "t": 18333.314999999988,
      "d": 166.66649999999936,
      "v": 127
    },
    {
      "midi": 43,
      "hit": false,
      "t": 18499.981499999987,
      "d": 166.66649999999936,
      "v": 127
    },
    {
      "midi": 50,
      "hit": false,
      "t": 18666.647999999986,
      "d": 166.66649999999936,
      "v": 127
    },
    {
      "midi": 49,
      "hit": false,
      "t": 18833.314499999986,
      "d": 166.66649999999936,
      "v": 127
    },
    {
      "midi": 50,
      "hit": false,
      "t": 18999.980999999985,
      "d": 166.66649999999936,
      "v": 127
    },
    {
      "midi": 52,
      "hit": false,
      "t": 19166.647499999985,
      "d": 166.66649999999936,
      "v": 127
    },
    {
      "midi": 54,
      "hit": false,
      "t": 19333.313999999984,
      "d": 166.66649999999936,
      "v": 127
    },
    {
      "midi": 52,
      "hit": false,
      "t": 19499.980499999983,
      "d": 166.66649999999936,
      "v": 127
    },
    {
      "midi": 54,
      "hit": false,
      "t": 19666.646999999983,
      "d": 166.66649999999936,
      "v": 127
    },
    {
      "midi": 50,
      "hit": false,
      "t": 19833.313499999982,
      "d": 166.66649999999936,
      "v": 127
    },
    {
      "midi": 55,
      "hit": false,
      "t": 19999.97999999998,
      "d": 166.66649999999936,
      "v": 127
    },
    {
      "midi": 54,
      "hit": false,
      "t": 20166.64649999998,
      "d": 166.66649999999936,
      "v": 127
    },
    {
      "midi": 55,
      "hit": false,
      "t": 20333.31299999998,
      "d": 166.66649999999936,
      "v": 127
    },
    {
      "midi": 57,
      "hit": false,
      "t": 20499.97949999998,
      "d": 166.66649999999936,
      "v": 127
    },
    {
      "midi": 59,
      "hit": false,
      "t": 20666.64599999998,
      "d": 166.66649999999936,
      "v": 127
    },
    {
      "midi": 57,
      "hit": false,
      "t": 20833.312499999978,
      "d": 166.66649999999936,
      "v": 127
    },
    {
      "midi": 59,
      "hit": false,
      "t": 20999.978999999978,
      "d": 166.66649999999936,
      "v": 127
    },
    {
      "midi": 54,
      "hit": false,
      "t": 21166.645499999977,
      "d": 166.66649999999936,
      "v": 127
    },
    {
      "midi": 55,
      "hit": false,
      "t": 21333.311999999976,
      "d": 166.66649999999936,
      "v": 127
    },
    {
      "midi": 54,
      "hit": false,
      "t": 21499.978499999976,
      "d": 166.66649999999936,
      "v": 127
    },
    {
      "midi": 55,
      "hit": false,
      "t": 21666.644999999975,
      "d": 166.66649999999936,
      "v": 127
    },
    {
      "midi": 52,
      "hit": false,
      "t": 21833.311499999974,
      "d": 166.66649999999936,
      "v": 127
    },
    {
      "midi": 76,
      "hit": false,
      "t": 21833.311499999978,
      "d": 166.66649999999936,
      "v": 127
    },
    {
      "midi": 57,
      "hit": false,
      "t": 21999.977999999974,
      "d": 333.3329999999987,
      "v": 127
    },
    {
      "midi": 73,
      "hit": false,
      "t": 21999.977999999977,
      "d": 499.9995000000017,
      "v": 127
    },
    {
      "midi": 45,
      "hit": false,
      "t": 22333.310999999972,
      "d": 333.3329999999987,
      "v": 127
    },
    {
      "midi": 74,
      "hit": false,
      "t": 22499.97749999998,
      "d": 166.66649999999936,
      "v": 127
    },
    {
      "midi": 50,
      "hit": false,
      "t": 22666.64399999997,
      "d": 333.3329999999987,
      "v": 127
    },
    {
      "midi": 74,
      "hit": false,
      "t": 22666.64399999998,
      "d": 333.3329999999987,
      "v": 127
    },
    {
      "midi": 38,
      "hit": false,
      "t": 22999.97699999997,
      "d": 333.3329999999987,
      "v": 127
    },
    {
      "midi": 69,
      "hit": false,
      "t": 22999.976999999977,
      "d": 166.66649999999936,
      "v": 127
    },
    {
      "midi": 67,
      "hit": false,
      "t": 23166.643499999976,
      "d": 166.66649999999936,
      "v": 127
    },
    {
      "midi": 66,
      "hit": false,
      "t": 23333.309999999976,
      "d": 166.66649999999936,
      "v": 127
    },
    {
      "midi": 64,
      "hit": false,
      "t": 23499.976499999975,
      "d": 166.66649999999936,
      "v": 127
    },
    {
      "midi": 66,
      "hit": false,
      "t": 23666.642999999975,
      "d": 166.66649999999936,
      "v": 127
    },
    {
      "midi": 62,
      "hit": false,
      "t": 23833.309499999974,
      "d": 166.66649999999936,
      "v": 127
    },
    {
      "midi": 72,
      "hit": false,
      "t": 23999.975999999973,
      "d": 499.9995000000017,
      "v": 127
    },
    {
      "midi": 57,
      "hit": false,
      "t": 24333.30899999997,
      "d": 166.66649999999936,
      "v": 127
    },
    {
      "midi": 55,
      "hit": false,
      "t": 24499.975499999968,
      "d": 166.66649999999936,
      "v": 127
    },
    {
      "midi": 71,
      "hit": false,
      "t": 24499.975499999975,
      "d": 166.66649999999936,
      "v": 127
    },
    {
      "midi": 54,
      "hit": false,
      "t": 24666.641999999967,
      "d": 166.66649999999936,
      "v": 127
    },
    {
      "midi": 72,
      "hit": false,
      "t": 24666.641999999974,
      "d": 499.9995000000017,
      "v": 127
    },
    {
      "midi": 52,
      "hit": false,
      "t": 24833.308499999966,
      "d": 166.66649999999936,
      "v": 127
    },
    {
      "midi": 54,
      "hit": false,
      "t": 24999.974999999966,
      "d": 166.66649999999936,
      "v": 127
    },
    {
      "midi": 50,
      "hit": false,
      "t": 25166.641499999965,
      "d": 166.66649999999936,
      "v": 127
    },
    {
      "midi": 74,
      "hit": false,
      "t": 25166.641499999976,
      "d": 166.66649999999936,
      "v": 127
    },
    {
      "midi": 55,
      "hit": false,
      "t": 25333.307999999965,
      "d": 166.66649999999936,
      "v": 127
    },
    {
      "midi": 71,
      "hit": false,
      "t": 25333.307999999975,
      "d": 333.3329999999987,
      "v": 127
    },
    {
      "midi": 57,
      "hit": false,
      "t": 25499.974499999964,
      "d": 166.66649999999936,
      "v": 127
    },
    {
      "midi": 55,
      "hit": false,
      "t": 25666.640999999963,
      "d": 166.66649999999936,
      "v": 127
    },
    {
      "midi": 71,
      "hit": false,
      "t": 25666.640999999974,
      "d": 333.3329999999987,
      "v": 127
    },
    {
      "midi": 54,
      "hit": false,
      "t": 25833.307499999963,
      "d": 166.66649999999936,
      "v": 127
    },
    {
      "midi": 52,
      "hit": false,
      "t": 25999.973999999962,
      "d": 166.66649999999936,
      "v": 127
    },
    {
      "midi": 76,
      "hit": false,
      "t": 25999.973999999973,
      "d": 499.9995000000017,
      "v": 127
    },
    {
      "midi": 50,
      "hit": false,
      "t": 26166.64049999996,
      "d": 166.66649999999936,
      "v": 127
    },
    {
      "midi": 52,
      "hit": false,
      "t": 26333.30699999996,
      "d": 166.66649999999936,
      "v": 127
    },
    {
      "midi": 49,
      "hit": false,
      "t": 26499.97349999996,
      "d": 166.66649999999936,
      "v": 127
    },
    {
      "midi": 76,
      "hit": false,
      "t": 26499.973499999975,
      "d": 166.66649999999936,
      "v": 127
    },
    {
      "midi": 54,
      "hit": false,
      "t": 26666.63999999996,
      "d": 333.3329999999987,
      "v": 127
    },
    {
      "midi": 76,
      "hit": false,
      "t": 26666.639999999974,
      "d": 166.66649999999936,
      "v": 127
    },
    {
      "midi": 79,
      "hit": false,
      "t": 26833.306499999973,
      "d": 166.66649999999936,
      "v": 127
    },
    {
      "midi": 46,
      "hit": false,
      "t": 26999.972999999958,
      "d": 333.3329999999987,
      "v": 127
    },
    {
      "midi": 78,
      "hit": false,
      "t": 26999.972999999973,
      "d": 166.66649999999936,
      "v": 127
    },
    {
      "midi": 76,
      "hit": false,
      "t": 27166.639499999972,
      "d": 166.66649999999936,
      "v": 127
    },
    {
      "midi": 47,
      "hit": false,
      "t": 27333.305999999957,
      "d": 333.3329999999987,
      "v": 127
    },
    {
      "midi": 74,
      "hit": false,
      "t": 27333.30599999997,
      "d": 166.66649999999936,
      "v": 127
    },
    {
      "midi": 73,
      "hit": false,
      "t": 27499.97249999997,
      "d": 166.66649999999936,
      "v": 127
    },
    {
      "midi": 43,
      "hit": false,
      "t": 27666.638999999956,
      "d": 333.3329999999987,
      "v": 127
    },
    {
      "midi": 74,
      "hit": false,
      "t": 27666.63899999997,
      "d": 166.66649999999936,
      "v": 127
    },
    {
      "midi": 71,
      "hit": false,
      "t": 27833.30549999997,
      "d": 166.66649999999936,
      "v": 127
    },
    {
      "midi": 42,
      "hit": false,
      "t": 27999.971999999954,
      "d": 666.6660000000011,
      "v": 127
    },
    {
      "midi": 70,
      "hit": false,
      "t": 27999.97199999997,
      "d": 333.3329999999987,
      "v": 127
    },
    {
      "midi": 78,
      "hit": false,
      "t": 28333.304999999968,
      "d": 166.66649999999936,
      "v": 127
    },
    {
      "midi": 76,
      "hit": false,
      "t": 28499.971499999967,
      "d": 166.66649999999936,
      "v": 127
    },
    {
      "midi": 74,
      "hit": false,
      "t": 28666.637999999966,
      "d": 166.66649999999936,
      "v": 127
    },
    {
      "midi": 73,
      "hit": false,
      "t": 28833.304499999966,
      "d": 166.66649999999936,
      "v": 127
    },
    {
      "midi": 59,
      "hit": false,
      "t": 28999.970999999954,
      "d": 166.66649999999936,
      "v": 127
    },
    {
      "midi": 74,
      "hit": false,
      "t": 28999.970999999965,
      "d": 166.66649999999936,
      "v": 127
    },
    {
      "midi": 57,
      "hit": false,
      "t": 29166.637499999953,
      "d": 166.66649999999936,
      "v": 127
    },
    {
      "midi": 71,
      "hit": false,
      "t": 29166.637499999964,
      "d": 166.66649999999936,
      "v": 127
    },
    {
      "midi": 55,
      "hit": false,
      "t": 29333.303999999953,
      "d": 166.66649999999936,
      "v": 127
    },
    {
      "midi": 76,
      "hit": false,
      "t": 29333.303999999964,
      "d": 333.3329999999987,
      "v": 127
    },
    {
      "midi": 54,
      "hit": false,
      "t": 29499.970499999952,
      "d": 166.66649999999936,
      "v": 127
    },
    {
      "midi": 55,
      "hit": false,
      "t": 29666.63699999995,
      "d": 166.66649999999936,
      "v": 127
    },
    {
      "midi": 83,
      "hit": false,
      "t": 29666.636999999962,
      "d": 166.66649999999936,
      "v": 127
    },
    {
      "midi": 52,
      "hit": false,
      "t": 29833.30349999995,
      "d": 166.66649999999936,
      "v": 127
    },
    {
      "midi": 81,
      "hit": false,
      "t": 29833.30349999996,
      "d": 166.66649999999936,
      "v": 127
    },
    {
      "midi": 62,
      "hit": false,
      "t": 29999.96999999995,
      "d": 499.9995000000017,
      "v": 127
    },
    {
      "midi": 79,
      "hit": false,
      "t": 29999.96999999996,
      "d": 166.66649999999936,
      "v": 127
    },
    {
      "midi": 78,
      "hit": false,
      "t": 30166.63649999996,
      "d": 166.66649999999936,
      "v": 127
    },
    {
      "midi": 79,
      "hit": false,
      "t": 30333.30299999996,
      "d": 166.66649999999936,
      "v": 127
    },
    {
      "midi": 64,
      "hit": false,
      "t": 30499.969499999952,
      "d": 166.66649999999936,
      "v": 127
    },
    {
      "midi": 76,
      "hit": false,
      "t": 30499.96949999996,
      "d": 166.66649999999936,
      "v": 127
    },
    {
      "midi": 61,
      "hit": false,
      "t": 30666.63599999995,
      "d": 333.3329999999987,
      "v": 127
    },
    {
      "midi": 82,
      "hit": false,
      "t": 30666.63599999996,
      "d": 333.3329999999987,
      "v": 127
    },
    {
      "midi": 67,
      "hit": false,
      "t": 30999.96899999995,
      "d": 166.66649999999936,
      "v": 127
    },
    {
      "midi": 73,
      "hit": false,
      "t": 30999.968999999957,
      "d": 333.3329999999987,
      "v": 127
    },
    {
      "midi": 66,
      "hit": false,
      "t": 31166.63549999995,
      "d": 166.66649999999936,
      "v": 127
    },
    {
      "midi": 64,
      "hit": false,
      "t": 31333.30199999995,
      "d": 166.66649999999936,
      "v": 127
    },
    {
      "midi": 78,
      "hit": false,
      "t": 31333.301999999956,
      "d": 333.3329999999987,
      "v": 127
    },
    {
      "midi": 62,
      "hit": false,
      "t": 31499.968499999948,
      "d": 166.66649999999936,
      "v": 127
    },
    {
      "midi": 64,
      "hit": false,
      "t": 31666.634999999947,
      "d": 166.66649999999936,
      "v": 127
    },
    {
      "midi": 70,
      "hit": false,
      "t": 31666.634999999955,
      "d": 333.3329999999987,
      "v": 127
    },
    {
      "midi": 61,
      "hit": false,
      "t": 31833.301499999947,
      "d": 166.66649999999936,
      "v": 127
    },
    {
      "midi": 62,
      "hit": false,
      "t": 31999.967999999946,
      "d": 166.66649999999936,
      "v": 127
    },
    {
      "midi": 71,
      "hit": false,
      "t": 31999.967999999953,
      "d": 499.9995000000017,
      "v": 127
    },
    {
      "midi": 61,
      "hit": false,
      "t": 32166.634499999946,
      "d": 166.66649999999936,
      "v": 127
    },
    {
      "midi": 62,
      "hit": false,
      "t": 32333.300999999945,
      "d": 166.66649999999936,
      "v": 127
    },
    {
      "midi": 59,
      "hit": false,
      "t": 32499.967499999944,
      "d": 166.66649999999936,
      "v": 127
    },
    {
      "midi": 73,
      "hit": false,
      "t": 32499.967499999955,
      "d": 166.66649999999936,
      "v": 127
    },
    {
      "midi": 66,
      "hit": false,
      "t": 32666.633999999944,
      "d": 333.33300000000236,
      "v": 127
    },
    {
      "midi": 73,
      "hit": false,
      "t": 32666.633999999955,
      "d": 499.9994999999981,
      "v": 127
    },
    {
      "midi": 54,
      "hit": false,
      "t": 32999.966999999946,
      "d": 333.3329999999987,
      "v": 127
    },
    {
      "midi": 71,
      "hit": false,
      "t": 33166.63349999995,
      "d": 166.66649999999936,
      "v": 127
    },
    {
      "midi": 59,
      "hit": false,
      "t": 33333.299999999945,
      "d": 166.66649999999936,
      "v": 127
    },
    {
      "midi": 71,
      "hit": false,
      "t": 33333.29999999995,
      "d": 333.3329999999987,
      "v": 127
    },
    {
      "midi": 60,
      "hit": false,
      "t": 33499.966499999944,
      "d": 166.66649999999936,
      "v": 127
    },
    {
      "midi": 59,
      "hit": false,
      "t": 33666.63299999994,
      "d": 166.66649999999936,
      "v": 127
    },
    {
      "midi": 74,
      "hit": false,
      "t": 33666.63299999995,
      "d": 333.3329999999987,
      "v": 127
    },
    {
      "midi": 57,
      "hit": false,
      "t": 33833.29949999994,
      "d": 166.66649999999936,
      "v": 127
    },
    {
      "midi": 56,
      "hit": false,
      "t": 33999.96599999994,
      "d": 166.66649999999936,
      "v": 127
    },
    {
      "midi": 64,
      "hit": false,
      "t": 33999.96599999995,
      "d": 333.3329999999987,
      "v": 127
    },
    {
      "midi": 54,
      "hit": false,
      "t": 34166.63249999994,
      "d": 166.66649999999936,
      "v": 127
    },
    {
      "midi": 56,
      "hit": false,
      "t": 34333.29899999994,
      "d": 166.66649999999936,
      "v": 127
    },
    {
      "midi": 74,
      "hit": false,
      "t": 34333.29899999995,
      "d": 333.3329999999987,
      "v": 127
    },
    {
      "midi": 52,
      "hit": false,
      "t": 34499.96549999994,
      "d": 166.66649999999936,
      "v": 127
    },
    {
      "midi": 57,
      "hit": false,
      "t": 34666.63199999994,
      "d": 166.66649999999936,
      "v": 127
    },
    {
      "midi": 72,
      "hit": false,
      "t": 34666.63199999995,
      "d": 333.3329999999987,
      "v": 127
    },
    {
      "midi": 59,
      "hit": false,
      "t": 34833.29849999994,
      "d": 166.66649999999936,
      "v": 127
    },
    {
      "midi": 57,
      "hit": false,
      "t": 34999.96499999994,
      "d": 166.66649999999936,
      "v": 127
    },
    {
      "midi": 69,
      "hit": false,
      "t": 34999.964999999946,
      "d": 333.3329999999987,
      "v": 127
    },
    {
      "midi": 55,
      "hit": false,
      "t": 35166.63149999994,
      "d": 166.66649999999936,
      "v": 127
    },
    {
      "midi": 54,
      "hit": false,
      "t": 35333.29799999994,
      "d": 166.66649999999936,
      "v": 127
    },
    {
      "midi": 62,
      "hit": false,
      "t": 35333.297999999944,
      "d": 333.3329999999987,
      "v": 127
    },
    {
      "midi": 52,
      "hit": false,
      "t": 35499.96449999994,
      "d": 166.66649999999936,
      "v": 127
    },
    {
      "midi": 54,
      "hit": false,
      "t": 35666.630999999936,
      "d": 166.66649999999936,
      "v": 127
    },
    {
      "midi": 72,
      "hit": false,
      "t": 35666.63099999994,
      "d": 333.3329999999987,
      "v": 127
    },
    {
      "midi": 50,
      "hit": false,
      "t": 35833.297499999935,
      "d": 166.66649999999936,
      "v": 127
    },
    {
      "midi": 55,
      "hit": false,
      "t": 35999.963999999934,
      "d": 166.66649999999936,
      "v": 127
    },
    {
      "midi": 71,
      "hit": false,
      "t": 35999.96399999994,
      "d": 333.3329999999987,
      "v": 127
    },
    {
      "midi": 57,
      "hit": false,
      "t": 36166.630499999934,
      "d": 166.66649999999936,
      "v": 127
    },
    {
      "midi": 55,
      "hit": false,
      "t": 36333.29699999993,
      "d": 166.66649999999936,
      "v": 127
    },
    {
      "midi": 74,
      "hit": false,
      "t": 36333.29699999994,
      "d": 333.3329999999987,
      "v": 127
    },
    {
      "midi": 54,
      "hit": false,
      "t": 36499.96349999993,
      "d": 166.66649999999936,
      "v": 127
    },
    {
      "midi": 52,
      "hit": false,
      "t": 36666.62999999993,
      "d": 166.66649999999936,
      "v": 127
    },
    {
      "midi": 79,
      "hit": false,
      "t": 36666.62999999994,
      "d": 333.3329999999987,
      "v": 127
    },
    {
      "midi": 50,
      "hit": false,
      "t": 36833.29649999993,
      "d": 166.66649999999936,
      "v": 127
    },
    {
      "midi": 52,
      "hit": false,
      "t": 36999.96299999993,
      "d": 166.66649999999936,
      "v": 127
    },
    {
      "midi": 71,
      "hit": false,
      "t": 36999.96299999994,
      "d": 333.3329999999987,
      "v": 127
    },
    {
      "midi": 49,
      "hit": false,
      "t": 37166.62949999993,
      "d": 166.66649999999936,
      "v": 127
    },
    {
      "midi": 51,
      "hit": false,
      "t": 37333.29599999993,
      "d": 166.66649999999936,
      "v": 127
    },
    {
      "midi": 69,
      "hit": false,
      "t": 37333.29599999994,
      "d": 333.3329999999987,
      "v": 127
    },
    {
      "midi": 49,
      "hit": false,
      "t": 37499.96249999993,
      "d": 166.66649999999936,
      "v": 127
    },
    {
      "midi": 51,
      "hit": false,
      "t": 37666.62899999993,
      "d": 166.66649999999936,
      "v": 127
    },
    {
      "midi": 78,
      "hit": false,
      "t": 37666.628999999935,
      "d": 333.3329999999987,
      "v": 127
    },
    {
      "midi": 47,
      "hit": false,
      "t": 37833.29549999993,
      "d": 166.66649999999936,
      "v": 127
    },
    {
      "midi": 52,
      "hit": false,
      "t": 37999.96199999993,
      "d": 166.66649999999936,
      "v": 127
    },
    {
      "midi": 67,
      "hit": false,
      "t": 37999.961999999934,
      "d": 333.3329999999987,
      "v": 127
    },
    {
      "midi": 51,
      "hit": false,
      "t": 38166.628499999926,
      "d": 166.66649999999936,
      "v": 127
    },
    {
      "midi": 52,
      "hit": false,
      "t": 38333.294999999925,
      "d": 166.66649999999936,
      "v": 127
    },
    {
      "midi": 76,
      "hit": false,
      "t": 38333.29499999993,
      "d": 333.3329999999987,
      "v": 127
    },
    {
      "midi": 40,
      "hit": false,
      "t": 38499.961499999925,
      "d": 166.66649999999936,
      "v": 127
    },
    {
      "midi": 47,
      "hit": false,
      "t": 38666.627999999924,
      "d": 5333.328000000001,
      "v": 127
    },
    {
      "midi": 75,
      "hit": false,
      "t": 38666.62799999993,
      "d": 333.3329999999987,
      "v": 127
    },
    {
      "midi": 78,
      "hit": false,
      "t": 38999.96099999993,
      "d": 166.66649999999936,
      "v": 127
    },
    {
      "midi": 76,
      "hit": false,
      "t": 39166.62749999993,
      "d": 166.66649999999936,
      "v": 127
    },
    {
      "midi": 75,
      "hit": false,
      "t": 39333.29399999993,
      "d": 166.66649999999936,
      "v": 127
    },
    {
      "midi": 73,
      "hit": false,
      "t": 39499.96049999993,
      "d": 166.66649999999936,
      "v": 127
    },
    {
      "midi": 71,
      "hit": false,
      "t": 39666.62699999993,
      "d": 166.66649999999936,
      "v": 127
    },
    {
      "midi": 69,
      "hit": false,
      "t": 39833.29349999993,
      "d": 166.66649999999936,
      "v": 127
    },
    {
      "midi": 67,
      "hit": false,
      "t": 39999.95999999993,
      "d": 166.66649999999936,
      "v": 127
    },
    {
      "midi": 66,
      "hit": false,
      "t": 40166.626499999926,
      "d": 166.66649999999936,
      "v": 127
    },
    {
      "midi": 67,
      "hit": false,
      "t": 40333.292999999925,
      "d": 166.66649999999936,
      "v": 127
    },
    {
      "midi": 71,
      "hit": false,
      "t": 40499.959499999924,
      "d": 166.66649999999936,
      "v": 127
    },
    {
      "midi": 76,
      "hit": false,
      "t": 40666.625999999924,
      "d": 166.66649999999936,
      "v": 127
    },
    {
      "midi": 71,
      "hit": false,
      "t": 40833.29249999992,
      "d": 166.66649999999936,
      "v": 127
    },
    {
      "midi": 69,
      "hit": false,
      "t": 40999.95899999992,
      "d": 166.66649999999936,
      "v": 127
    },
    {
      "midi": 67,
      "hit": false,
      "t": 41166.62549999992,
      "d": 166.66649999999936,
      "v": 127
    },
    {
      "midi": 66,
      "hit": false,
      "t": 41333.29199999992,
      "d": 166.66649999999936,
      "v": 127
    },
    {
      "midi": 64,
      "hit": false,
      "t": 41499.95849999992,
      "d": 166.66649999999936,
      "v": 127
    },
    {
      "midi": 66,
      "hit": false,
      "t": 41666.62499999992,
      "d": 166.66649999999936,
      "v": 127
    },
    {
      "midi": 69,
      "hit": false,
      "t": 41833.29149999992,
      "d": 166.66649999999936,
      "v": 127
    },
    {
      "midi": 74,
      "hit": false,
      "t": 41999.95799999992,
      "d": 166.66649999999936,
      "v": 127
    },
    {
      "midi": 69,
      "hit": false,
      "t": 42166.62449999992,
      "d": 166.66649999999936,
      "v": 127
    },
    {
      "midi": 67,
      "hit": false,
      "t": 42333.29099999992,
      "d": 166.66649999999936,
      "v": 127
    },
    {
      "midi": 66,
      "hit": false,
      "t": 42499.95749999992,
      "d": 166.66649999999936,
      "v": 127
    },
    {
      "midi": 64,
      "hit": false,
      "t": 42666.623999999916,
      "d": 166.66649999999936,
      "v": 127
    },
    {
      "midi": 63,
      "hit": false,
      "t": 42833.290499999915,
      "d": 166.66649999999936,
      "v": 127
    },
    {
      "midi": 64,
      "hit": false,
      "t": 42999.956999999915,
      "d": 166.66649999999936,
      "v": 127
    },
    {
      "midi": 67,
      "hit": false,
      "t": 43166.623499999914,
      "d": 166.66649999999936,
      "v": 127
    },
    {
      "midi": 72,
      "hit": false,
      "t": 43333.28999999991,
      "d": 166.66649999999936,
      "v": 127
    },
    {
      "midi": 67,
      "hit": false,
      "t": 43499.95649999991,
      "d": 166.66649999999936,
      "v": 127
    },
    {
      "midi": 66,
      "hit": false,
      "t": 43666.62299999991,
      "d": 166.66649999999936,
      "v": 127
    },
    {
      "midi": 64,
      "hit": false,
      "t": 43833.28949999991,
      "d": 166.66649999999936,
      "v": 127
    },
    {
      "midi": 63,
      "hit": false,
      "t": 43999.95599999991,
      "d": 166.66649999999936,
      "v": 127
    },
    {
      "midi": 61,
      "hit": false,
      "t": 44166.62249999991,
      "d": 166.66649999999936,
      "v": 127
    },
    {
      "midi": 63,
      "hit": false,
      "t": 44333.28899999991,
      "d": 166.66649999999936,
      "v": 127
    },
    {
      "midi": 66,
      "hit": false,
      "t": 44499.95549999991,
      "d": 166.66649999999936,
      "v": 127
    },
    {
      "midi": 71,
      "hit": false,
      "t": 44666.62199999991,
      "d": 333.3329999999987,
      "v": 127
    },
    {
      "midi": 60,
      "hit": false,
      "t": 44833.28849999992,
      "d": 166.66649999999936,
      "v": 127
    },
    {
      "midi": 71,
      "hit": false,
      "t": 44999.95499999991,
      "d": 333.3329999999987,
      "v": 127
    },
    {
      "midi": 59,
      "hit": false,
      "t": 44999.95499999992,
      "d": 166.66649999999936,
      "v": 127
    },
    {
      "midi": 57,
      "hit": false,
      "t": 45166.62149999992,
      "d": 166.66649999999936,
      "v": 127
    },
    {
      "midi": 71,
      "hit": false,
      "t": 45333.287999999906,
      "d": 666.6659999999974,
      "v": 127
    },
    {
      "midi": 55,
      "hit": false,
      "t": 45333.28799999992,
      "d": 166.66649999999936,
      "v": 127
    },
    {
      "midi": 54,
      "hit": false,
      "t": 45499.95449999992,
      "d": 166.66649999999936,
      "v": 127
    },
    {
      "midi": 55,
      "hit": false,
      "t": 45666.62099999992,
      "d": 166.66649999999936,
      "v": 127
    },
    {
      "midi": 59,
      "hit": false,
      "t": 45833.28749999992,
      "d": 166.66649999999936,
      "v": 127
    },
    {
      "midi": 64,
      "hit": false,
      "t": 45999.95399999992,
      "d": 166.66649999999936,
      "v": 127
    },
    {
      "midi": 75,
      "hit": false,
      "t": 46166.6204999999,
      "d": 166.66649999999936,
      "v": 127
    },
    {
      "midi": 59,
      "hit": false,
      "t": 46166.62049999992,
      "d": 166.66649999999936,
      "v": 127
    },
    {
      "midi": 76,
      "hit": false,
      "t": 46333.2869999999,
      "d": 166.66649999999936,
      "v": 127
    },
    {
      "midi": 57,
      "hit": false,
      "t": 46333.28699999992,
      "d": 166.66649999999936,
      "v": 127
    },
    {
      "midi": 79,
      "hit": false,
      "t": 46499.9534999999,
      "d": 166.66649999999936,
      "v": 127
    },
    {
      "midi": 55,
      "hit": false,
      "t": 46499.953499999916,
      "d": 166.66649999999936,
      "v": 127
    },
    {
      "midi": 69,
      "hit": false,
      "t": 46666.6199999999,
      "d": 666.6659999999974,
      "v": 127
    },
    {
      "midi": 54,
      "hit": false,
      "t": 46666.619999999915,
      "d": 166.66649999999936,
      "v": 127
    },
    {
      "midi": 52,
      "hit": false,
      "t": 46833.286499999915,
      "d": 166.66649999999936,
      "v": 127
    },
    {
      "midi": 54,
      "hit": false,
      "t": 46999.952999999914,
      "d": 166.66649999999936,
      "v": 127
    },
    {
      "midi": 57,
      "hit": false,
      "t": 47166.61949999991,
      "d": 166.66649999999936,
      "v": 127
    },
    {
      "midi": 63,
      "hit": false,
      "t": 47333.28599999991,
      "d": 166.66649999999936,
      "v": 127
    },
    {
      "midi": 73,
      "hit": false,
      "t": 47499.9524999999,
      "d": 166.66649999999936,
      "v": 127
    },
    {
      "midi": 57,
      "hit": false,
      "t": 47499.95249999991,
      "d": 166.66649999999936,
      "v": 127
    },
    {
      "midi": 75,
      "hit": false,
      "t": 47666.6189999999,
      "d": 166.66649999999936,
      "v": 127
    },
    {
      "midi": 55,
      "hit": false,
      "t": 47666.61899999991,
      "d": 166.66649999999936,
      "v": 127
    },
    {
      "midi": 78,
      "hit": false,
      "t": 47833.285499999896,
      "d": 166.66649999999936,
      "v": 127
    },
    {
      "midi": 54,
      "hit": false,
      "t": 47833.28549999991,
      "d": 166.66649999999936,
      "v": 127
    },
    {
      "midi": 67,
      "hit": false,
      "t": 47999.951999999896,
      "d": 666.6659999999974,
      "v": 127
    },
    {
      "midi": 52,
      "hit": false,
      "t": 47999.95199999991,
      "d": 166.66649999999936,
      "v": 127
    },
    {
      "midi": 51,
      "hit": false,
      "t": 48166.61849999991,
      "d": 166.66649999999936,
      "v": 127
    },
    {
      "midi": 52,
      "hit": false,
      "t": 48333.28499999991,
      "d": 166.66649999999936,
      "v": 127
    },
    {
      "midi": 55,
      "hit": false,
      "t": 48499.95149999991,
      "d": 166.66649999999936,
      "v": 127
    },
    {
      "midi": 60,
      "hit": false,
      "t": 48666.61799999991,
      "d": 166.66649999999936,
      "v": 127
    },
    {
      "midi": 71,
      "hit": false,
      "t": 48833.28449999989,
      "d": 166.66649999999936,
      "v": 127
    },
    {
      "midi": 55,
      "hit": false,
      "t": 48833.28449999991,
      "d": 166.66649999999936,
      "v": 127
    },
    {
      "midi": 75,
      "hit": false,
      "t": 48999.95099999989,
      "d": 166.66649999999936,
      "v": 127
    },
    {
      "midi": 54,
      "hit": false,
      "t": 48999.950999999906,
      "d": 166.66649999999936,
      "v": 127
    },
    {
      "midi": 76,
      "hit": false,
      "t": 49166.61749999989,
      "d": 166.66649999999936,
      "v": 127
    },
    {
      "midi": 52,
      "hit": false,
      "t": 49166.617499999906,
      "d": 166.66649999999936,
      "v": 127
    },
    {
      "midi": 66,
      "hit": false,
      "t": 49333.28399999989,
      "d": 166.66649999999936,
      "v": 127
    },
    {
      "midi": 51,
      "hit": false,
      "t": 49333.283999999905,
      "d": 333.3329999999987,
      "v": 127
    },
    {
      "midi": 69,
      "hit": false,
      "t": 49499.95049999989,
      "d": 166.66649999999936,
      "v": 127
    },
    {
      "midi": 71,
      "hit": false,
      "t": 49666.61699999989,
      "d": 166.66649999999936,
      "v": 127
    },
    {
      "midi": 47,
      "hit": false,
      "t": 49666.616999999904,
      "d": 333.3329999999987,
      "v": 127
    },
    {
      "midi": 72,
      "hit": false,
      "t": 49833.28349999989,
      "d": 166.66649999999936,
      "v": 127
    },
    {
      "midi": 63,
      "hit": false,
      "t": 49999.94999999989,
      "d": 166.66649999999936,
      "v": 127
    },
    {
      "midi": 66,
      "hit": false,
      "t": 50166.61649999989,
      "d": 166.66649999999936,
      "v": 127
    },
    {
      "midi": 67,
      "hit": false,
      "t": 50333.28299999989,
      "d": 166.66649999999936,
      "v": 127
    },
    {
      "midi": 69,
      "hit": false,
      "t": 50499.949499999886,
      "d": 166.66649999999936,
      "v": 127
    },
    {
      "midi": 59,
      "hit": false,
      "t": 50666.615999999885,
      "d": 333.3329999999987,
      "v": 127
    },
    {
      "midi": 55,
      "hit": false,
      "t": 50833.2824999999,
      "d": 166.66649999999936,
      "v": 127
    },
    {
      "midi": 69,
      "hit": false,
      "t": 50999.948999999884,
      "d": 499.9994999999981,
      "v": 127
    },
    {
      "midi": 54,
      "hit": false,
      "t": 50999.9489999999,
      "d": 166.66649999999936,
      "v": 127
    },
    {
      "midi": 52,
      "hit": false,
      "t": 51166.6154999999,
      "d": 166.66649999999936,
      "v": 127
    },
    {
      "midi": 51,
      "hit": false,
      "t": 51333.2819999999,
      "d": 166.66649999999936,
      "v": 127
    },
    {
      "midi": 66,
      "hit": false,
      "t": 51499.94849999988,
      "d": 166.66649999999936,
      "v": 127
    },
    {
      "midi": 49,
      "hit": false,
      "t": 51499.9484999999,
      "d": 166.66649999999936,
      "v": 127
    },
    {
      "midi": 71,
      "hit": false,
      "t": 51666.61499999988,
      "d": 166.66649999999936,
      "v": 127
    },
    {
      "midi": 51,
      "hit": false,
      "t": 51666.614999999896,
      "d": 166.66649999999936,
      "v": 127
    },
    {
      "midi": 66,
      "hit": false,
      "t": 51833.28149999988,
      "d": 166.66649999999936,
      "v": 127
    },
    {
      "midi": 47,
      "hit": false,
      "t": 51833.281499999895,
      "d": 166.66649999999936,
      "v": 127
    },
    {
      "midi": 67,
      "hit": false,
      "t": 51999.94799999988,
      "d": 333.3329999999987,
      "v": 127
    },
    {
      "midi": 52,
      "hit": false,
      "t": 51999.947999999895,
      "d": 166.66649999999936,
      "v": 127
    },
    {
      "midi": 50,
      "hit": false,
      "t": 52166.614499999894,
      "d": 166.66649999999936,
      "v": 127
    },
    {
      "midi": 64,
      "hit": false,
      "t": 52333.28099999988,
      "d": 333.3329999999987,
      "v": 127
    },
    {
      "midi": 48,
      "hit": false,
      "t": 52333.28099999989,
      "d": 166.66649999999936,
      "v": 127
    },
    {
      "midi": 47,
      "hit": false,
      "t": 52499.94749999989,
      "d": 166.66649999999936,
      "v": 127
    },
    {
      "midi": 72,
      "hit": false,
      "t": 52666.61399999988,
      "d": 499.9994999999981,
      "v": 127
    },
    {
      "midi": 45,
      "hit": false,
      "t": 52666.61399999989,
      "d": 166.66649999999936,
      "v": 127
    },
    {
      "midi": 43,
      "hit": false,
      "t": 52833.28049999989,
      "d": 166.66649999999936,
      "v": 127
    },
    {
      "midi": 45,
      "hit": false,
      "t": 52999.94699999989,
      "d": 166.66649999999936,
      "v": 127
    },
    {
      "midi": 72,
      "hit": false,
      "t": 53166.613499999876,
      "d": 166.66649999999936,
      "v": 127
    },
    {
      "midi": 42,
      "hit": false,
      "t": 53166.61349999989,
      "d": 166.66649999999936,
      "v": 127
    },
    {
      "midi": 72,
      "hit": false,
      "t": 53333.279999999875,
      "d": 333.3329999999987,
      "v": 127
    },
    {
      "midi": 43,
      "hit": false,
      "t": 53333.27999999989,
      "d": 166.66649999999936,
      "v": 127
    },
    {
      "midi": 45,
      "hit": false,
      "t": 53499.94649999989,
      "d": 166.66649999999936,
      "v": 127
    },
    {
      "midi": 71,
      "hit": false,
      "t": 53666.612999999874,
      "d": 333.3329999999987,
      "v": 127
    },
    {
      "midi": 43,
      "hit": false,
      "t": 53666.61299999989,
      "d": 166.66649999999936,
      "v": 127
    },
    {
      "midi": 42,
      "hit": false,
      "t": 53833.27949999989,
      "d": 166.66649999999936,
      "v": 127
    },
    {
      "midi": 79,
      "hit": false,
      "t": 53999.94599999987,
      "d": 499.9994999999981,
      "v": 127
    },
    {
      "midi": 40,
      "hit": false,
      "t": 53999.94599999989,
      "d": 166.66649999999936,
      "v": 127
    },
    {
      "midi": 38,
      "hit": false,
      "t": 54166.61249999989,
      "d": 166.66649999999936,
      "v": 127
    },
    {
      "midi": 40,
      "hit": false,
      "t": 54333.278999999886,
      "d": 166.66649999999936,
      "v": 127
    },
    {
      "midi": 79,
      "hit": false,
      "t": 54499.94549999987,
      "d": 166.66649999999936,
      "v": 127
    },
    {
      "midi": 36,
      "hit": false,
      "t": 54499.945499999885,
      "d": 166.66649999999936,
      "v": 127
    },
    {
      "midi": 79,
      "hit": false,
      "t": 54666.61199999987,
      "d": 166.66649999999936,
      "v": 127
    },
    {
      "midi": 45,
      "hit": false,
      "t": 54666.611999999885,
      "d": 166.66649999999936,
      "v": 127
    },
    {
      "midi": 81,
      "hit": false,
      "t": 54833.27849999987,
      "d": 166.66649999999936,
      "v": 127
    },
    {
      "midi": 43,
      "hit": false,
      "t": 54833.278499999884,
      "d": 166.66649999999936,
      "v": 127
    },
    {
      "midi": 79,
      "hit": false,
      "t": 54999.94499999987,
      "d": 166.66649999999936,
      "v": 127
    },
    {
      "midi": 45,
      "hit": false,
      "t": 54999.94499999988,
      "d": 166.66649999999936,
      "v": 127
    },
    {
      "midi": 78,
      "hit": false,
      "t": 55166.61149999987,
      "d": 166.66649999999936,
      "v": 127
    },
    {
      "midi": 42,
      "hit": false,
      "t": 55166.61149999988,
      "d": 166.66649999999936,
      "v": 127
    },
    {
      "midi": 78,
      "hit": false,
      "t": 55333.27799999987,
      "d": 499.9994999999981,
      "v": 127
    },
    {
      "midi": 47,
      "hit": false,
      "t": 55333.27799999988,
      "d": 166.66649999999936,
      "v": 127
    },
    {
      "midi": 45,
      "hit": false,
      "t": 55499.94449999988,
      "d": 166.66649999999936,
      "v": 127
    },
    {
      "midi": 47,
      "hit": false,
      "t": 55666.61099999988,
      "d": 166.66649999999936,
      "v": 127
    },
    {
      "midi": 76,
      "hit": false,
      "t": 55833.277499999866,
      "d": 166.66649999999936,
      "v": 127
    },
    {
      "midi": 43,
      "hit": false,
      "t": 55833.27749999988,
      "d": 166.66649999999936,
      "v": 127
    },
    {
      "midi": 76,
      "hit": false,
      "t": 55999.943999999865,
      "d": 166.66649999999936,
      "v": 127
    },
    {
      "midi": 48,
      "hit": false,
      "t": 55999.94399999988,
      "d": 1333.3320000000022,
      "v": 127
    },
    {
      "midi": 74,
      "hit": false,
      "t": 56166.610499999864,
      "d": 166.66649999999936,
      "v": 127
    },
    {
      "midi": 72,
      "hit": false,
      "t": 56333.27699999986,
      "d": 166.66649999999936,
      "v": 127
    },
    {
      "midi": 71,
      "hit": false,
      "t": 56499.94349999986,
      "d": 166.66649999999936,
      "v": 127
    },
    {
      "midi": 69,
      "hit": false,
      "t": 56666.60999999986,
      "d": 166.66649999999936,
      "v": 127
    },
    {
      "midi": 67,
      "hit": false,
      "t": 56833.27649999986,
      "d": 166.66649999999936,
      "v": 127
    },
    {
      "midi": 69,
      "hit": false,
      "t": 56999.94299999986,
      "d": 166.66649999999936,
      "v": 127
    },
    {
      "midi": 66,
      "hit": false,
      "t": 57166.60949999986,
      "d": 166.66649999999936,
      "v": 127
    },
    {
      "midi": 75,
      "hit": false,
      "t": 57333.27599999986,
      "d": 333.3329999999987,
      "v": 127
    },
    {
      "midi": 60,
      "hit": false,
      "t": 57499.94249999988,
      "d": 166.66649999999936,
      "v": 127
    },
    {
      "midi": 66,
      "hit": false,
      "t": 57666.60899999986,
      "d": 333.3329999999987,
      "v": 127
    },
    {
      "midi": 59,
      "hit": false,
      "t": 57666.60899999988,
      "d": 166.66649999999936,
      "v": 127
    },
    {
      "midi": 57,
      "hit": false,
      "t": 57833.27549999988,
      "d": 166.66649999999936,
      "v": 127
    },
    {
      "midi": 71,
      "hit": false,
      "t": 57999.94199999986,
      "d": 499.9994999999981,
      "v": 127
    },
    {
      "midi": 55,
      "hit": false,
      "t": 57999.94199999988,
      "d": 166.66649999999936,
      "v": 127
    },
    {
      "midi": 54,
      "hit": false,
      "t": 58166.60849999988,
      "d": 166.66649999999936,
      "v": 127
    },
    {
      "midi": 55,
      "hit": false,
      "t": 58333.27499999988,
      "d": 166.66649999999936,
      "v": 127
    },
    {
      "midi": 72,
      "hit": false,
      "t": 58499.941499999855,
      "d": 166.66649999999936,
      "v": 127
    },
    {
      "midi": 52,
      "hit": false,
      "t": 58499.94149999988,
      "d": 166.66649999999936,
      "v": 127
    },
    {
      "midi": 69,
      "hit": false,
      "t": 58666.607999999855,
      "d": 499.9994999999981,
      "v": 127
    },
    {
      "midi": 51,
      "hit": false,
      "t": 58666.60799999988,
      "d": 333.3329999999987,
      "v": 127
    },
    {
      "midi": 52,
      "hit": false,
      "t": 58999.940999999875,
      "d": 333.3329999999987,
      "v": 127
    },
    {
      "midi": 67,
      "hit": false,
      "t": 59166.60749999985,
      "d": 166.66649999999936,
      "v": 127
    },
    {
      "midi": 66,
      "hit": false,
      "t": 59333.27399999985,
      "d": 499.9994999999981,
      "v": 127
    },
    {
      "midi": 59,
      "hit": false,
      "t": 59333.273999999874,
      "d": 333.3329999999987,
      "v": 127
    },
    {
      "midi": 47,
      "hit": false,
      "t": 59666.60699999987,
      "d": 333.3329999999987,
      "v": 127
    },
    {
      "midi": 64,
      "hit": false,
      "t": 59833.27349999985,
      "d": 166.66649999999936,
      "v": 127
    },
    {
      "midi": 64,
      "hit": false,
      "t": 59999.93999999985,
      "d": 1333.3320000000022,
      "v": 127
    },
    {
      "midi": 40,
      "hit": false,
      "t": 59999.93999999987,
      "d": 1333.3320000000022,
      "v": 127
    }
  ]
}