{
  "jsonPath": "Classical/Classical/Johann Sebastian Bach/invention-14-bwv-785.json",
  "path": "Classical\\Classical\\Johann Sebastian Bach\\Invention 14, BWV 785.mid",
  "name": "Invention 14, BWV 785",
  "difficulty": "Advanced",
  "bpm": 65.000065000065,
  "notes": [
    {
      "midi": 58,
      "hit": false,
      "t": 0,
      "d": 461.53799999999995,
      "v": 127
    },
    {
      "midi": 70,
      "hit": false,
      "t": 230.76899999999998,
      "d": 230.76899999999998,
      "v": 127
    },
    {
      "midi": 72,
      "hit": false,
      "t": 230.76899999999998,
      "d": 230.76899999999998,
      "v": 127
    },
    {
      "midi": 72,
      "hit": false,
      "t": 461.53799999999995,
      "d": 230.76899999999995,
      "v": 127
    },
    {
      "midi": 74,
      "hit": false,
      "t": 461.53799999999995,
      "d": 230.76899999999995,
      "v": 127
    },
    {
      "midi": 46,
      "hit": false,
      "t": 461.53799999999995,
      "d": 461.53799999999995,
      "v": 127
    },
    {
      "midi": 70,
      "hit": false,
      "t": 692.3069999999999,
      "d": 230.769,
      "v": 127
    },
    {
      "midi": 77,
      "hit": false,
      "t": 923.0759999999999,
      "d": 230.7689999999999,
      "v": 127
    },
    {
      "midi": 50,
      "hit": false,
      "t": 923.0759999999999,
      "d": 461.5379999999999,
      "v": 127
    },
    {
      "midi": 74,
      "hit": false,
      "t": 1153.8449999999998,
      "d": 230.769,
      "v": 127
    },
    {
      "midi": 82,
      "hit": false,
      "t": 1384.6139999999998,
      "d": 230.769,
      "v": 127
    },
    {
      "midi": 53,
      "hit": false,
      "t": 1384.6139999999998,
      "d": 461.538,
      "v": 127
    },
    {
      "midi": 77,
      "hit": false,
      "t": 1615.3829999999998,
      "d": 230.769,
      "v": 127
    },
    {
      "midi": 74,
      "hit": false,
      "t": 1846.1519999999998,
      "d": 230.769,
      "v": 127
    },
    {
      "midi": 58,
      "hit": false,
      "t": 1846.1519999999998,
      "d": 923.0759999999998,
      "v": 127
    },
    {
      "midi": 75,
      "hit": false,
      "t": 2076.921,
      "d": 230.76899999999978,
      "v": 127
    },
    {
      "midi": 77,
      "hit": false,
      "t": 2076.921,
      "d": 230.76899999999978,
      "v": 127
    },
    {
      "midi": 74,
      "hit": false,
      "t": 2307.6899999999996,
      "d": 230.76899999999978,
      "v": 127
    },
    {
      "midi": 75,
      "hit": false,
      "t": 2307.6899999999996,
      "d": 230.76899999999978,
      "v": 127
    },
    {
      "midi": 77,
      "hit": false,
      "t": 2538.4589999999994,
      "d": 230.76899999999978,
      "v": 127
    },
    {
      "midi": 70,
      "hit": false,
      "t": 2769.227999999999,
      "d": 230.76899999999978,
      "v": 127
    },
    {
      "midi": 74,
      "hit": false,
      "t": 2999.996999999999,
      "d": 230.76899999999978,
      "v": 127
    },
    {
      "midi": 65,
      "hit": false,
      "t": 3230.7659999999987,
      "d": 230.76899999999978,
      "v": 127
    },
    {
      "midi": 68,
      "hit": false,
      "t": 3461.5349999999985,
      "d": 230.76899999999978,
      "v": 127
    },
    {
      "midi": 67,
      "hit": false,
      "t": 3692.3039999999983,
      "d": 230.76899999999978,
      "v": 127
    },
    {
      "midi": 63,
      "hit": false,
      "t": 3923.072999999998,
      "d": 230.76899999999978,
      "v": 127
    },
    {
      "midi": 65,
      "hit": false,
      "t": 3923.072999999998,
      "d": 230.76899999999978,
      "v": 127
    },
    {
      "midi": 65,
      "hit": false,
      "t": 4153.841999999998,
      "d": 230.76900000000023,
      "v": 127
    },
    {
      "midi": 67,
      "hit": false,
      "t": 4153.841999999998,
      "d": 230.76900000000023,
      "v": 127
    },
    {
      "midi": 46,
      "hit": false,
      "t": 4153.842,
      "d": 461.53799999999956,
      "v": 127
    },
    {
      "midi": 63,
      "hit": false,
      "t": 4384.610999999998,
      "d": 230.76900000000023,
      "v": 127
    },
    {
      "midi": 70,
      "hit": false,
      "t": 4615.379999999998,
      "d": 230.76900000000023,
      "v": 127
    },
    {
      "midi": 51,
      "hit": false,
      "t": 4615.379999999999,
      "d": 461.53799999999956,
      "v": 127
    },
    {
      "midi": 67,
      "hit": false,
      "t": 4846.1489999999985,
      "d": 230.76900000000023,
      "v": 127
    },
    {
      "midi": 75,
      "hit": false,
      "t": 5076.917999999999,
      "d": 230.76900000000023,
      "v": 127
    },
    {
      "midi": 55,
      "hit": false,
      "t": 5076.917999999999,
      "d": 461.53799999999956,
      "v": 127
    },
    {
      "midi": 70,
      "hit": false,
      "t": 5307.686999999999,
      "d": 230.76900000000023,
      "v": 127
    },
    {
      "midi": 58,
      "hit": false,
      "t": 5538.455999999998,
      "d": 923.076,
      "v": 127
    },
    {
      "midi": 67,
      "hit": false,
      "t": 5538.455999999999,
      "d": 230.76900000000023,
      "v": 127
    },
    {
      "midi": 68,
      "hit": false,
      "t": 5769.224999999999,
      "d": 230.76900000000023,
      "v": 127
    },
    {
      "midi": 70,
      "hit": false,
      "t": 5769.224999999999,
      "d": 230.76900000000023,
      "v": 127
    },
    {
      "midi": 67,
      "hit": false,
      "t": 5999.994,
      "d": 230.76900000000023,
      "v": 127
    },
    {
      "midi": 68,
      "hit": false,
      "t": 5999.994,
      "d": 230.76900000000023,
      "v": 127
    },
    {
      "midi": 70,
      "hit": false,
      "t": 6230.763,
      "d": 230.76900000000023,
      "v": 127
    },
    {
      "midi": 63,
      "hit": false,
      "t": 6461.532,
      "d": 230.76900000000023,
      "v": 127
    },
    {
      "midi": 67,
      "hit": false,
      "t": 6692.301,
      "d": 230.76900000000023,
      "v": 127
    },
    {
      "midi": 60,
      "hit": false,
      "t": 6923.070000000001,
      "d": 230.76900000000023,
      "v": 127
    },
    {
      "midi": 63,
      "hit": false,
      "t": 7153.839000000001,
      "d": 230.76900000000023,
      "v": 127
    },
    {
      "midi": 57,
      "hit": false,
      "t": 7384.608000000001,
      "d": 230.76900000000023,
      "v": 127
    },
    {
      "midi": 60,
      "hit": false,
      "t": 7615.377000000001,
      "d": 230.76900000000023,
      "v": 127
    },
    {
      "midi": 62,
      "hit": false,
      "t": 7615.377000000001,
      "d": 230.76900000000023,
      "v": 127
    },
    {
      "midi": 46,
      "hit": false,
      "t": 7846.145999999998,
      "d": 461.53799999999956,
      "v": 127
    },
    {
      "midi": 62,
      "hit": false,
      "t": 7846.146000000002,
      "d": 230.76900000000023,
      "v": 127
    },
    {
      "midi": 63,
      "hit": false,
      "t": 7846.146000000002,
      "d": 230.76900000000023,
      "v": 127
    },
    {
      "midi": 60,
      "hit": false,
      "t": 8076.915000000002,
      "d": 230.76899999999932,
      "v": 127
    },
    {
      "midi": 48,
      "hit": false,
      "t": 8307.683999999997,
      "d": 461.53800000000047,
      "v": 127
    },
    {
      "midi": 69,
      "hit": false,
      "t": 8307.684000000001,
      "d": 230.76900000000023,
      "v": 127
    },
    {
      "midi": 65,
      "hit": false,
      "t": 8538.453000000001,
      "d": 230.76900000000023,
      "v": 127
    },
    {
      "midi": 51,
      "hit": false,
      "t": 8769.221999999998,
      "d": 461.53800000000047,
      "v": 127
    },
    {
      "midi": 72,
      "hit": false,
      "t": 8769.222000000002,
      "d": 230.76900000000023,
      "v": 127
    },
    {
      "midi": 69,
      "hit": false,
      "t": 8999.991000000002,
      "d": 230.76900000000023,
      "v": 127
    },
    {
      "midi": 57,
      "hit": false,
      "t": 9230.759999999998,
      "d": 923.0759999999991,
      "v": 127
    },
    {
      "midi": 75,
      "hit": false,
      "t": 9230.760000000002,
      "d": 230.76900000000023,
      "v": 127
    },
    {
      "midi": 65,
      "hit": false,
      "t": 9461.529000000002,
      "d": 230.76900000000023,
      "v": 127
    },
    {
      "midi": 67,
      "hit": false,
      "t": 9461.529000000002,
      "d": 230.76900000000023,
      "v": 127
    },
    {
      "midi": 67,
      "hit": false,
      "t": 9692.298000000003,
      "d": 230.76900000000023,
      "v": 127
    },
    {
      "midi": 69,
      "hit": false,
      "t": 9692.298000000003,
      "d": 230.76900000000023,
      "v": 127
    },
    {
      "midi": 65,
      "hit": false,
      "t": 9923.067000000003,
      "d": 230.76900000000023,
      "v": 127
    },
    {
      "midi": 72,
      "hit": false,
      "t": 10153.836000000003,
      "d": 230.76900000000023,
      "v": 127
    },
    {
      "midi": 69,
      "hit": false,
      "t": 10384.605000000003,
      "d": 230.76900000000023,
      "v": 127
    },
    {
      "midi": 77,
      "hit": false,
      "t": 10615.374000000003,
      "d": 230.76900000000023,
      "v": 127
    },
    {
      "midi": 72,
      "hit": false,
      "t": 10846.143000000004,
      "d": 230.76900000000023,
      "v": 127
    },
    {
      "midi": 74,
      "hit": false,
      "t": 11076.912000000004,
      "d": 923.0759999999991,
      "v": 127
    },
    {
      "midi": 58,
      "hit": false,
      "t": 11307.680999999997,
      "d": 230.76900000000023,
      "v": 127
    },
    {
      "midi": 60,
      "hit": false,
      "t": 11307.680999999997,
      "d": 230.76900000000023,
      "v": 127
    },
    {
      "midi": 60,
      "hit": false,
      "t": 11538.449999999997,
      "d": 230.76900000000023,
      "v": 127
    },
    {
      "midi": 62,
      "hit": false,
      "t": 11538.449999999997,
      "d": 230.76900000000023,
      "v": 127
    },
    {
      "midi": 58,
      "hit": false,
      "t": 11769.218999999997,
      "d": 230.76900000000023,
      "v": 127
    },
    {
      "midi": 63,
      "hit": false,
      "t": 11999.987999999998,
      "d": 923.0759999999991,
      "v": 127
    },
    {
      "midi": 77,
      "hit": false,
      "t": 12230.757000000003,
      "d": 230.76900000000023,
      "v": 127
    },
    {
      "midi": 79,
      "hit": false,
      "t": 12230.757000000003,
      "d": 230.76900000000023,
      "v": 127
    },
    {
      "midi": 75,
      "hit": false,
      "t": 12461.526000000003,
      "d": 230.76900000000023,
      "v": 127
    },
    {
      "midi": 77,
      "hit": false,
      "t": 12461.526000000003,
      "d": 230.76900000000023,
      "v": 127
    },
    {
      "midi": 79,
      "hit": false,
      "t": 12692.295000000004,
      "d": 230.76900000000023,
      "v": 127
    },
    {
      "midi": 72,
      "hit": false,
      "t": 12923.064000000004,
      "d": 923.0759999999991,
      "v": 127
    },
    {
      "midi": 57,
      "hit": false,
      "t": 13153.832999999997,
      "d": 230.76900000000023,
      "v": 127
    },
    {
      "midi": 58,
      "hit": false,
      "t": 13153.832999999997,
      "d": 230.76900000000023,
      "v": 127
    },
    {
      "midi": 58,
      "hit": false,
      "t": 13384.601999999997,
      "d": 230.76900000000023,
      "v": 127
    },
    {
      "midi": 60,
      "hit": false,
      "t": 13384.601999999997,
      "d": 230.76900000000023,
      "v": 127
    },
    {
      "midi": 57,
      "hit": false,
      "t": 13615.370999999997,
      "d": 230.76900000000023,
      "v": 127
    },
    {
      "midi": 62,
      "hit": false,
      "t": 13846.139999999998,
      "d": 923.0759999999991,
      "v": 127
    },
    {
      "midi": 75,
      "hit": false,
      "t": 14076.909000000003,
      "d": 230.76900000000023,
      "v": 127
    },
    {
      "midi": 77,
      "hit": false,
      "t": 14076.909000000003,
      "d": 230.76900000000023,
      "v": 127
    },
    {
      "midi": 74,
      "hit": false,
      "t": 14307.678000000004,
      "d": 230.76900000000023,
      "v": 127
    },
    {
      "midi": 75,
      "hit": false,
      "t": 14307.678000000004,
      "d": 230.76900000000023,
      "v": 127
    },
    {
      "midi": 77,
      "hit": false,
      "t": 14538.447000000004,
      "d": 230.76900000000023,
      "v": 127
    },
    {
      "midi": 70,
      "hit": false,
      "t": 14769.216000000004,
      "d": 923.0759999999991,
      "v": 127
    },
    {
      "midi": 55,
      "hit": false,
      "t": 14999.984999999997,
      "d": 230.76900000000023,
      "v": 127
    },
    {
      "midi": 57,
      "hit": false,
      "t": 14999.984999999997,
      "d": 230.76900000000023,
      "v": 127
    },
    {
      "midi": 57,
      "hit": false,
      "t": 15230.753999999997,
      "d": 230.76900000000023,
      "v": 127
    },
    {
      "midi": 58,
      "hit": false,
      "t": 15230.753999999997,
      "d": 230.76900000000023,
      "v": 127
    },
    {
      "midi": 55,
      "hit": false,
      "t": 15461.522999999997,
      "d": 230.76900000000023,
      "v": 127
    },
    {
      "midi": 60,
      "hit": false,
      "t": 15692.291999999998,
      "d": 230.76900000000023,
      "v": 127
    },
    {
      "midi": 48,
      "hit": false,
      "t": 15923.060999999998,
      "d": 230.76900000000023,
      "v": 127
    },
    {
      "midi": 50,
      "hit": false,
      "t": 15923.060999999998,
      "d": 230.76900000000023,
      "v": 127
    },
    {
      "midi": 74,
      "hit": false,
      "t": 15923.061000000003,
      "d": 230.76900000000023,
      "v": 127
    },
    {
      "midi": 75,
      "hit": false,
      "t": 15923.061000000003,
      "d": 230.76900000000023,
      "v": 127
    },
    {
      "midi": 50,
      "hit": false,
      "t": 16153.829999999998,
      "d": 230.76900000000023,
      "v": 127
    },
    {
      "midi": 51,
      "hit": false,
      "t": 16153.829999999998,
      "d": 230.76900000000023,
      "v": 127
    },
    {
      "midi": 72,
      "hit": false,
      "t": 16153.830000000004,
      "d": 230.7689999999984,
      "v": 127
    },
    {
      "midi": 74,
      "hit": false,
      "t": 16153.830000000004,
      "d": 230.7689999999984,
      "v": 127
    },
    {
      "midi": 48,
      "hit": false,
      "t": 16384.599,
      "d": 230.76900000000023,
      "v": 127
    },
    {
      "midi": 75,
      "hit": false,
      "t": 16384.599000000002,
      "d": 230.76900000000023,
      "v": 127
    },
    {
      "midi": 53,
      "hit": false,
      "t": 16615.368,
      "d": 461.53800000000047,
      "v": 127
    },
    {
      "midi": 69,
      "hit": false,
      "t": 16615.368000000002,
      "d": 230.76900000000023,
      "v": 127
    },
    {
      "midi": 70,
      "hit": false,
      "t": 16846.137000000002,
      "d": 230.76900000000023,
      "v": 127
    },
    {
      "midi": 72,
      "hit": false,
      "t": 16846.137000000002,
      "d": 230.76900000000023,
      "v": 127
    },
    {
      "midi": 41,
      "hit": false,
      "t": 17076.906,
      "d": 692.3070000000007,
      "v": 127
    },
    {
      "midi": 69,
      "hit": false,
      "t": 17076.906000000003,
      "d": 230.76900000000023,
      "v": 127
    },
    {
      "midi": 70,
      "hit": false,
      "t": 17076.906000000003,
      "d": 230.76900000000023,
      "v": 127
    },
    {
      "midi": 72,
      "hit": false,
      "t": 17307.675000000003,
      "d": 230.76900000000023,
      "v": 127
    },
    {
      "midi": 65,
      "hit": false,
      "t": 17538.444000000003,
      "d": 923.0760000000009,
      "v": 127
    },
    {
      "midi": 60,
      "hit": false,
      "t": 17769.213,
      "d": 230.76900000000023,
      "v": 127
    },
    {
      "midi": 57,
      "hit": false,
      "t": 17999.982,
      "d": 230.76900000000023,
      "v": 127
    },
    {
      "midi": 53,
      "hit": false,
      "t": 18230.751,
      "d": 230.76900000000023,
      "v": 127
    },
    {
      "midi": 77,
      "hit": false,
      "t": 18461.520000000004,
      "d": 461.53800000000047,
      "v": 127
    },
    {
      "midi": 53,
      "hit": false,
      "t": 18692.289,
      "d": 230.76900000000023,
      "v": 127
    },
    {
      "midi": 55,
      "hit": false,
      "t": 18692.289,
      "d": 230.76900000000023,
      "v": 127
    },
    {
      "midi": 55,
      "hit": false,
      "t": 18923.058,
      "d": 230.76900000000023,
      "v": 127
    },
    {
      "midi": 57,
      "hit": false,
      "t": 18923.058,
      "d": 230.76900000000023,
      "v": 127
    },
    {
      "midi": 65,
      "hit": false,
      "t": 18923.058000000005,
      "d": 461.53800000000047,
      "v": 127
    },
    {
      "midi": 53,
      "hit": false,
      "t": 19153.827,
      "d": 230.76900000000023,
      "v": 127
    },
    {
      "midi": 60,
      "hit": false,
      "t": 19384.596,
      "d": 230.76900000000023,
      "v": 127
    },
    {
      "midi": 69,
      "hit": false,
      "t": 19384.596000000005,
      "d": 461.53800000000047,
      "v": 127
    },
    {
      "midi": 57,
      "hit": false,
      "t": 19615.365,
      "d": 230.76900000000023,
      "v": 127
    },
    {
      "midi": 65,
      "hit": false,
      "t": 19846.134000000002,
      "d": 230.76900000000023,
      "v": 127
    },
    {
      "midi": 72,
      "hit": false,
      "t": 19846.134000000005,
      "d": 461.53800000000047,
      "v": 127
    },
    {
      "midi": 60,
      "hit": false,
      "t": 20076.903000000002,
      "d": 230.76900000000023,
      "v": 127
    },
    {
      "midi": 57,
      "hit": false,
      "t": 20307.672000000002,
      "d": 230.76900000000023,
      "v": 127
    },
    {
      "midi": 77,
      "hit": false,
      "t": 20307.672000000006,
      "d": 923.0760000000009,
      "v": 127
    },
    {
      "midi": 58,
      "hit": false,
      "t": 20538.441000000003,
      "d": 230.76900000000023,
      "v": 127
    },
    {
      "midi": 60,
      "hit": false,
      "t": 20538.441000000003,
      "d": 230.76900000000023,
      "v": 127
    },
    {
      "midi": 57,
      "hit": false,
      "t": 20769.210000000003,
      "d": 230.76900000000023,
      "v": 127
    },
    {
      "midi": 58,
      "hit": false,
      "t": 20769.210000000003,
      "d": 230.76900000000023,
      "v": 127
    },
    {
      "midi": 60,
      "hit": false,
      "t": 20999.979000000003,
      "d": 230.76900000000023,
      "v": 127
    },
    {
      "midi": 53,
      "hit": false,
      "t": 21230.748000000003,
      "d": 230.76900000000023,
      "v": 127
    },
    {
      "midi": 57,
      "hit": false,
      "t": 21461.517000000003,
      "d": 230.76900000000023,
      "v": 127
    },
    {
      "midi": 48,
      "hit": false,
      "t": 21692.286000000004,
      "d": 230.76900000000023,
      "v": 127
    },
    {
      "midi": 51,
      "hit": false,
      "t": 21923.055000000004,
      "d": 230.76900000000023,
      "v": 127
    },
    {
      "midi": 50,
      "hit": false,
      "t": 22153.824000000004,
      "d": 230.76900000000023,
      "v": 127
    },
    {
      "midi": 46,
      "hit": false,
      "t": 22384.593000000004,
      "d": 230.76900000000023,
      "v": 127
    },
    {
      "midi": 48,
      "hit": false,
      "t": 22384.593000000004,
      "d": 230.76900000000023,
      "v": 127
    },
    {
      "midi": 48,
      "hit": false,
      "t": 22615.362000000005,
      "d": 230.76900000000023,
      "v": 127
    },
    {
      "midi": 50,
      "hit": false,
      "t": 22615.362000000005,
      "d": 230.76900000000023,
      "v": 127
    },
    {
      "midi": 65,
      "hit": false,
      "t": 22615.36200000001,
      "d": 461.53800000000047,
      "v": 127
    },
    {
      "midi": 46,
      "hit": false,
      "t": 22846.131000000005,
      "d": 230.76900000000023,
      "v": 127
    },
    {
      "midi": 53,
      "hit": false,
      "t": 23076.900000000005,
      "d": 230.76900000000023,
      "v": 127
    },
    {
      "midi": 70,
      "hit": false,
      "t": 23076.90000000001,
      "d": 461.53800000000047,
      "v": 127
    },
    {
      "midi": 50,
      "hit": false,
      "t": 23307.669000000005,
      "d": 230.76900000000023,
      "v": 127
    },
    {
      "midi": 58,
      "hit": false,
      "t": 23538.438000000006,
      "d": 230.76900000000023,
      "v": 127
    },
    {
      "midi": 74,
      "hit": false,
      "t": 23538.43800000001,
      "d": 461.53800000000047,
      "v": 127
    },
    {
      "midi": 53,
      "hit": false,
      "t": 23769.207000000006,
      "d": 230.76900000000023,
      "v": 127
    },
    {
      "midi": 50,
      "hit": false,
      "t": 23999.976000000006,
      "d": 230.76900000000023,
      "v": 127
    },
    {
      "midi": 77,
      "hit": false,
      "t": 23999.97600000001,
      "d": 923.0760000000009,
      "v": 127
    },
    {
      "midi": 51,
      "hit": false,
      "t": 24230.745000000006,
      "d": 230.76900000000023,
      "v": 127
    },
    {
      "midi": 53,
      "hit": false,
      "t": 24230.745000000006,
      "d": 230.76900000000023,
      "v": 127
    },
    {
      "midi": 50,
      "hit": false,
      "t": 24461.514000000006,
      "d": 230.76900000000023,
      "v": 127
    },
    {
      "midi": 51,
      "hit": false,
      "t": 24461.514000000006,
      "d": 230.76900000000023,
      "v": 127
    },
    {
      "midi": 53,
      "hit": false,
      "t": 24692.283000000007,
      "d": 230.76900000000023,
      "v": 127
    },
    {
      "midi": 46,
      "hit": false,
      "t": 24923.052000000007,
      "d": 230.76900000000023,
      "v": 127
    },
    {
      "midi": 50,
      "hit": false,
      "t": 25153.821000000007,
      "d": 230.76900000000023,
      "v": 127
    },
    {
      "midi": 43,
      "hit": false,
      "t": 25384.590000000007,
      "d": 230.76900000000023,
      "v": 127
    },
    {
      "midi": 46,
      "hit": false,
      "t": 25615.359000000008,
      "d": 230.76900000000023,
      "v": 127
    },
    {
      "midi": 40,
      "hit": false,
      "t": 25846.128000000008,
      "d": 230.76900000000023,
      "v": 127
    },
    {
      "midi": 43,
      "hit": false,
      "t": 26076.897000000008,
      "d": 230.76900000000023,
      "v": 127
    },
    {
      "midi": 45,
      "hit": false,
      "t": 26076.897000000008,
      "d": 230.76900000000023,
      "v": 127
    },
    {
      "midi": 45,
      "hit": false,
      "t": 26307.66600000001,
      "d": 230.76900000000023,
      "v": 127
    },
    {
      "midi": 46,
      "hit": false,
      "t": 26307.66600000001,
      "d": 230.76900000000023,
      "v": 127
    },
    {
      "midi": 67,
      "hit": false,
      "t": 26307.666000000012,
      "d": 461.53800000000047,
      "v": 127
    },
    {
      "midi": 43,
      "hit": false,
      "t": 26538.43500000001,
      "d": 230.76900000000023,
      "v": 127
    },
    {
      "midi": 52,
      "hit": false,
      "t": 26769.20400000001,
      "d": 230.76900000000023,
      "v": 127
    },
    {
      "midi": 70,
      "hit": false,
      "t": 26769.204000000012,
      "d": 461.53800000000047,
      "v": 127
    },
    {
      "midi": 48,
      "hit": false,
      "t": 26999.97300000001,
      "d": 230.76900000000023,
      "v": 127
    },
    {
      "midi": 55,
      "hit": false,
      "t": 27230.74200000001,
      "d": 230.76900000000023,
      "v": 127
    },
    {
      "midi": 72,
      "hit": false,
      "t": 27230.742000000013,
      "d": 461.53800000000047,
      "v": 127
    },
    {
      "midi": 52,
      "hit": false,
      "t": 27461.51100000001,
      "d": 230.76900000000023,
      "v": 127
    },
    {
      "midi": 58,
      "hit": false,
      "t": 27692.28000000001,
      "d": 230.76900000000023,
      "v": 127
    },
    {
      "midi": 76,
      "hit": false,
      "t": 27692.280000000013,
      "d": 923.0760000000009,
      "v": 127
    },
    {
      "midi": 48,
      "hit": false,
      "t": 27923.04900000001,
      "d": 230.76900000000023,
      "v": 127
    },
    {
      "midi": 50,
      "hit": false,
      "t": 27923.04900000001,
      "d": 230.76900000000023,
      "v": 127
    },
    {
      "midi": 50,
      "hit": false,
      "t": 28153.81800000001,
      "d": 230.76900000000023,
      "v": 127
    },
    {
      "midi": 52,
      "hit": false,
      "t": 28153.81800000001,
      "d": 230.76900000000023,
      "v": 127
    },
    {
      "midi": 48,
      "hit": false,
      "t": 28384.58700000001,
      "d": 230.76900000000023,
      "v": 127
    },
    {
      "midi": 55,
      "hit": false,
      "t": 28615.35600000001,
      "d": 230.76900000000023,
      "v": 127
    },
    {
      "midi": 52,
      "hit": false,
      "t": 28846.12500000001,
      "d": 230.76900000000023,
      "v": 127
    },
    {
      "midi": 60,
      "hit": false,
      "t": 29076.89400000001,
      "d": 230.76900000000023,
      "v": 127
    },
    {
      "midi": 55,
      "hit": false,
      "t": 29307.66300000001,
      "d": 230.76900000000023,
      "v": 127
    },
    {
      "midi": 57,
      "hit": false,
      "t": 29538.43200000001,
      "d": 461.53800000000047,
      "v": 127
    },
    {
      "midi": 65,
      "hit": false,
      "t": 29769.201000000015,
      "d": 230.76900000000023,
      "v": 127
    },
    {
      "midi": 67,
      "hit": false,
      "t": 29769.201000000015,
      "d": 230.76900000000023,
      "v": 127
    },
    {
      "midi": 60,
      "hit": false,
      "t": 29999.970000000012,
      "d": 461.53800000000047,
      "v": 127
    },
    {
      "midi": 67,
      "hit": false,
      "t": 29999.970000000016,
      "d": 230.76900000000023,
      "v": 127
    },
    {
      "midi": 69,
      "hit": false,
      "t": 29999.970000000016,
      "d": 230.76900000000023,
      "v": 127
    },
    {
      "midi": 65,
      "hit": false,
      "t": 30230.739000000016,
      "d": 230.76900000000023,
      "v": 127
    },
    {
      "midi": 57,
      "hit": false,
      "t": 30461.508000000013,
      "d": 461.53800000000047,
      "v": 127
    },
    {
      "midi": 72,
      "hit": false,
      "t": 30461.508000000016,
      "d": 230.76900000000023,
      "v": 127
    },
    {
      "midi": 69,
      "hit": false,
      "t": 30692.277000000016,
      "d": 230.76900000000023,
      "v": 127
    },
    {
      "midi": 53,
      "hit": false,
      "t": 30923.046000000013,
      "d": 461.53800000000047,
      "v": 127
    },
    {
      "midi": 77,
      "hit": false,
      "t": 30923.046000000017,
      "d": 230.76900000000023,
      "v": 127
    },
    {
      "midi": 72,
      "hit": false,
      "t": 31153.815000000017,
      "d": 230.76900000000023,
      "v": 127
    },
    {
      "midi": 54,
      "hit": false,
      "t": 31384.584000000013,
      "d": 461.53800000000047,
      "v": 127
    },
    {
      "midi": 81,
      "hit": false,
      "t": 31384.584000000017,
      "d": 230.76900000000023,
      "v": 127
    },
    {
      "midi": 74,
      "hit": false,
      "t": 31615.353000000017,
      "d": 230.76900000000023,
      "v": 127
    },
    {
      "midi": 75,
      "hit": false,
      "t": 31615.353000000017,
      "d": 230.76900000000023,
      "v": 127
    },
    {
      "midi": 57,
      "hit": false,
      "t": 31846.122000000014,
      "d": 461.53800000000047,
      "v": 127
    },
    {
      "midi": 72,
      "hit": false,
      "t": 31846.122000000018,
      "d": 230.76900000000023,
      "v": 127
    },
    {
      "midi": 74,
      "hit": false,
      "t": 31846.122000000018,
      "d": 230.76900000000023,
      "v": 127
    },
    {
      "midi": 75,
      "hit": false,
      "t": 32076.891000000018,
      "d": 230.76900000000023,
      "v": 127
    },
    {
      "midi": 54,
      "hit": false,
      "t": 32307.660000000014,
      "d": 461.5379999999968,
      "v": 127
    },
    {
      "midi": 69,
      "hit": false,
      "t": 32307.660000000018,
      "d": 230.76900000000023,
      "v": 127
    },
    {
      "midi": 72,
      "hit": false,
      "t": 32538.42900000002,
      "d": 230.76900000000023,
      "v": 127
    },
    {
      "midi": 50,
      "hit": false,
      "t": 32769.19800000001,
      "d": 461.53800000000047,
      "v": 127
    },
    {
      "midi": 66,
      "hit": false,
      "t": 32769.19800000002,
      "d": 230.76900000000023,
      "v": 127
    },
    {
      "midi": 69,
      "hit": false,
      "t": 32999.96700000002,
      "d": 230.76900000000023,
      "v": 127
    },
    {
      "midi": 55,
      "hit": false,
      "t": 33230.73600000001,
      "d": 230.76900000000023,
      "v": 127
    },
    {
      "midi": 70,
      "hit": false,
      "t": 33230.73600000002,
      "d": 461.53800000000047,
      "v": 127
    },
    {
      "midi": 43,
      "hit": false,
      "t": 33461.50500000001,
      "d": 230.76900000000023,
      "v": 127
    },
    {
      "midi": 45,
      "hit": false,
      "t": 33461.50500000001,
      "d": 230.76900000000023,
      "v": 127
    },
    {
      "midi": 45,
      "hit": false,
      "t": 33692.27400000001,
      "d": 230.76900000000023,
      "v": 127
    },
    {
      "midi": 46,
      "hit": false,
      "t": 33692.27400000001,
      "d": 230.76900000000023,
      "v": 127
    },
    {
      "midi": 74,
      "hit": false,
      "t": 33692.27400000002,
      "d": 461.53800000000047,
      "v": 127
    },
    {
      "midi": 43,
      "hit": false,
      "t": 33923.04300000001,
      "d": 230.76900000000023,
      "v": 127
    },
    {
      "midi": 50,
      "hit": false,
      "t": 34153.81200000001,
      "d": 230.76900000000023,
      "v": 127
    },
    {
      "midi": 70,
      "hit": false,
      "t": 34153.81200000002,
      "d": 461.53800000000047,
      "v": 127
    },
    {
      "midi": 46,
      "hit": false,
      "t": 34384.58100000001,
      "d": 230.76900000000023,
      "v": 127
    },
    {
      "midi": 55,
      "hit": false,
      "t": 34615.35000000001,
      "d": 230.76900000000023,
      "v": 127
    },
    {
      "midi": 67,
      "hit": false,
      "t": 34615.35000000002,
      "d": 461.53800000000047,
      "v": 127
    },
    {
      "midi": 50,
      "hit": false,
      "t": 34846.11900000001,
      "d": 230.76900000000023,
      "v": 127
    },
    {
      "midi": 58,
      "hit": false,
      "t": 35076.88800000001,
      "d": 230.76900000000023,
      "v": 127
    },
    {
      "midi": 68,
      "hit": false,
      "t": 35076.88800000002,
      "d": 461.53800000000047,
      "v": 127
    },
    {
      "midi": 55,
      "hit": false,
      "t": 35307.657000000014,
      "d": 230.76900000000023,
      "v": 127
    },
    {
      "midi": 56,
      "hit": false,
      "t": 35307.657000000014,
      "d": 230.76900000000023,
      "v": 127
    },
    {
      "midi": 53,
      "hit": false,
      "t": 35538.426000000014,
      "d": 230.76900000000023,
      "v": 127
    },
    {
      "midi": 55,
      "hit": false,
      "t": 35538.426000000014,
      "d": 230.76900000000023,
      "v": 127
    },
    {
      "midi": 77,
      "hit": false,
      "t": 35538.42600000002,
      "d": 461.53800000000047,
      "v": 127
    },
    {
      "midi": 56,
      "hit": false,
      "t": 35769.195000000014,
      "d": 230.76900000000023,
      "v": 127
    },
    {
      "midi": 50,
      "hit": false,
      "t": 35999.964000000014,
      "d": 230.76900000000023,
      "v": 127
    },
    {
      "midi": 68,
      "hit": false,
      "t": 35999.96400000002,
      "d": 461.53800000000047,
      "v": 127
    },
    {
      "midi": 53,
      "hit": false,
      "t": 36230.733000000015,
      "d": 230.76900000000023,
      "v": 127
    },
    {
      "midi": 46,
      "hit": false,
      "t": 36461.502000000015,
      "d": 230.76900000000023,
      "v": 127
    },
    {
      "midi": 65,
      "hit": false,
      "t": 36461.50200000002,
      "d": 461.53800000000047,
      "v": 127
    },
    {
      "midi": 50,
      "hit": false,
      "t": 36692.271000000015,
      "d": 230.76900000000023,
      "v": 127
    },
    {
      "midi": 51,
      "hit": false,
      "t": 36923.040000000015,
      "d": 461.53800000000047,
      "v": 127
    },
    {
      "midi": 67,
      "hit": false,
      "t": 36923.04000000002,
      "d": 230.76900000000023,
      "v": 127
    },
    {
      "midi": 60,
      "hit": false,
      "t": 37153.80900000002,
      "d": 230.76900000000023,
      "v": 127
    },
    {
      "midi": 62,
      "hit": false,
      "t": 37153.80900000002,
      "d": 230.76900000000023,
      "v": 127
    },
    {
      "midi": 55,
      "hit": false,
      "t": 37384.578000000016,
      "d": 461.53800000000047,
      "v": 127
    },
    {
      "midi": 62,
      "hit": false,
      "t": 37384.57800000002,
      "d": 230.76900000000023,
      "v": 127
    },
    {
      "midi": 63,
      "hit": false,
      "t": 37384.57800000002,
      "d": 230.76900000000023,
      "v": 127
    },
    {
      "midi": 60,
      "hit": false,
      "t": 37615.34700000002,
      "d": 230.76900000000023,
      "v": 127
    },
    {
      "midi": 51,
      "hit": false,
      "t": 37846.116000000016,
      "d": 461.53800000000047,
      "v": 127
    },
    {
      "midi": 67,
      "hit": false,
      "t": 37846.11600000002,
      "d": 230.76900000000023,
      "v": 127
    },
    {
      "midi": 63,
      "hit": false,
      "t": 38076.885000000024,
      "d": 230.76900000000023,
      "v": 127
    },
    {
      "midi": 48,
      "hit": false,
      "t": 38307.65400000002,
      "d": 461.53800000000047,
      "v": 127
    },
    {
      "midi": 72,
      "hit": false,
      "t": 38307.654000000024,
      "d": 230.76900000000023,
      "v": 127
    },
    {
      "midi": 67,
      "hit": false,
      "t": 38538.423000000024,
      "d": 230.76900000000023,
      "v": 127
    },
    {
      "midi": 47,
      "hit": false,
      "t": 38769.19200000002,
      "d": 461.53800000000047,
      "v": 127
    },
    {
      "midi": 74,
      "hit": false,
      "t": 38769.192000000025,
      "d": 230.76900000000023,
      "v": 127
    },
    {
      "midi": 67,
      "hit": false,
      "t": 38999.961000000025,
      "d": 230.76900000000023,
      "v": 127
    },
    {
      "midi": 68,
      "hit": false,
      "t": 38999.961000000025,
      "d": 230.76900000000023,
      "v": 127
    },
    {
      "midi": 50,
      "hit": false,
      "t": 39230.73000000002,
      "d": 461.53800000000047,
      "v": 127
    },
    {
      "midi": 65,
      "hit": false,
      "t": 39230.730000000025,
      "d": 230.76900000000023,
      "v": 127
    },
    {
      "midi": 67,
      "hit": false,
      "t": 39230.730000000025,
      "d": 230.76900000000023,
      "v": 127
    },
    {
      "midi": 68,
      "hit": false,
      "t": 39461.499000000025,
      "d": 230.76900000000023,
      "v": 127
    },
    {
      "midi": 47,
      "hit": false,
      "t": 39692.26800000002,
      "d": 461.53800000000047,
      "v": 127
    },
    {
      "midi": 62,
      "hit": false,
      "t": 39692.268000000025,
      "d": 230.76900000000023,
      "v": 127
    },
    {
      "midi": 65,
      "hit": false,
      "t": 39923.037000000026,
      "d": 230.76900000000023,
      "v": 127
    },
    {
      "midi": 43,
      "hit": false,
      "t": 40153.80600000002,
      "d": 461.53800000000047,
      "v": 127
    },
    {
      "midi": 59,
      "hit": false,
      "t": 40153.806000000026,
      "d": 230.76900000000023,
      "v": 127
    },
    {
      "midi": 67,
      "hit": false,
      "t": 40384.575000000026,
      "d": 230.76900000000023,
      "v": 127
    },
    {
      "midi": 48,
      "hit": false,
      "t": 40615.34400000002,
      "d": 230.76900000000023,
      "v": 127
    },
    {
      "midi": 63,
      "hit": false,
      "t": 40615.34400000003,
      "d": 923.0760000000009,
      "v": 127
    },
    {
      "midi": 36,
      "hit": false,
      "t": 40846.11300000002,
      "d": 230.76900000000023,
      "v": 127
    },
    {
      "midi": 38,
      "hit": false,
      "t": 40846.11300000002,
      "d": 230.76900000000023,
      "v": 127
    },
    {
      "midi": 38,
      "hit": false,
      "t": 41076.88200000002,
      "d": 230.76900000000023,
      "v": 127
    },
    {
      "midi": 39,
      "hit": false,
      "t": 41076.88200000002,
      "d": 230.76900000000023,
      "v": 127
    },
    {
      "midi": 36,
      "hit": false,
      "t": 41307.65100000002,
      "d": 230.76900000000023,
      "v": 127
    },
    {
      "midi": 48,
      "hit": false,
      "t": 41538.42000000002,
      "d": 692.3070000000007,
      "v": 127
    },
    {
      "midi": 60,
      "hit": false,
      "t": 41769.18900000003,
      "d": 230.76900000000023,
      "v": 127
    },
    {
      "midi": 62,
      "hit": false,
      "t": 41769.18900000003,
      "d": 230.76900000000023,
      "v": 127
    },
    {
      "midi": 62,
      "hit": false,
      "t": 41999.95800000003,
      "d": 230.76900000000023,
      "v": 127
    },
    {
      "midi": 63,
      "hit": false,
      "t": 41999.95800000003,
      "d": 230.76900000000023,
      "v": 127
    },
    {
      "midi": 46,
      "hit": false,
      "t": 42230.72700000002,
      "d": 230.76900000000023,
      "v": 127
    },
    {
      "midi": 60,
      "hit": false,
      "t": 42230.72700000003,
      "d": 230.76900000000023,
      "v": 127
    },
    {
      "midi": 45,
      "hit": false,
      "t": 42461.49600000002,
      "d": 230.76900000000023,
      "v": 127
    },
    {
      "midi": 72,
      "hit": false,
      "t": 42461.49600000003,
      "d": 692.3070000000007,
      "v": 127
    },
    {
      "midi": 41,
      "hit": false,
      "t": 42692.26500000002,
      "d": 230.76900000000023,
      "v": 127
    },
    {
      "midi": 43,
      "hit": false,
      "t": 42692.26500000002,
      "d": 230.76900000000023,
      "v": 127
    },
    {
      "midi": 43,
      "hit": false,
      "t": 42923.03400000002,
      "d": 230.76900000000023,
      "v": 127
    },
    {
      "midi": 45,
      "hit": false,
      "t": 42923.03400000002,
      "d": 230.76900000000023,
      "v": 127
    },
    {
      "midi": 41,
      "hit": false,
      "t": 43153.80300000002,
      "d": 230.76900000000023,
      "v": 127
    },
    {
      "midi": 70,
      "hit": false,
      "t": 43153.80300000003,
      "d": 230.76900000000023,
      "v": 127
    },
    {
      "midi": 53,
      "hit": false,
      "t": 43384.57200000002,
      "d": 692.3070000000007,
      "v": 127
    },
    {
      "midi": 69,
      "hit": false,
      "t": 43384.57200000003,
      "d": 230.76900000000023,
      "v": 127
    },
    {
      "midi": 65,
      "hit": false,
      "t": 43615.34100000003,
      "d": 230.76900000000023,
      "v": 127
    },
    {
      "midi": 67,
      "hit": false,
      "t": 43615.34100000003,
      "d": 230.76900000000023,
      "v": 127
    },
    {
      "midi": 67,
      "hit": false,
      "t": 43846.11000000003,
      "d": 230.76900000000023,
      "v": 127
    },
    {
      "midi": 69,
      "hit": false,
      "t": 43846.11000000003,
      "d": 230.76900000000023,
      "v": 127
    },
    {
      "midi": 51,
      "hit": false,
      "t": 44076.87900000002,
      "d": 230.76900000000023,
      "v": 127
    },
    {
      "midi": 65,
      "hit": false,
      "t": 44076.87900000003,
      "d": 230.76900000000023,
      "v": 127
    },
    {
      "midi": 50,
      "hit": false,
      "t": 44307.64800000002,
      "d": 230.76900000000023,
      "v": 127
    },
    {
      "midi": 77,
      "hit": false,
      "t": 44307.64800000003,
      "d": 692.3070000000007,
      "v": 127
    },
    {
      "midi": 46,
      "hit": false,
      "t": 44538.41700000002,
      "d": 230.76900000000023,
      "v": 127
    },
    {
      "midi": 48,
      "hit": false,
      "t": 44538.41700000002,
      "d": 230.76900000000023,
      "v": 127
    },
    {
      "midi": 48,
      "hit": false,
      "t": 44769.18600000002,
      "d": 230.76900000000023,
      "v": 127
    },
    {
      "midi": 50,
      "hit": false,
      "t": 44769.18600000002,
      "d": 230.76900000000023,
      "v": 127
    },
    {
      "midi": 46,
      "hit": false,
      "t": 44999.95500000002,
      "d": 230.76900000000023,
      "v": 127
    },
    {
      "midi": 75,
      "hit": false,
      "t": 44999.95500000003,
      "d": 230.76900000000023,
      "v": 127
    },
    {
      "midi": 58,
      "hit": false,
      "t": 45230.724000000024,
      "d": 692.3070000000007,
      "v": 127
    },
    {
      "midi": 74,
      "hit": false,
      "t": 45230.72400000003,
      "d": 230.76900000000023,
      "v": 127
    },
    {
      "midi": 70,
      "hit": false,
      "t": 45461.49300000003,
      "d": 230.76900000000023,
      "v": 127
    },
    {
      "midi": 72,
      "hit": false,
      "t": 45461.49300000003,
      "d": 230.76900000000023,
      "v": 127
    },
    {
      "midi": 72,
      "hit": false,
      "t": 45692.26200000003,
      "d": 230.76900000000023,
      "v": 127
    },
    {
      "midi": 74,
      "hit": false,
      "t": 45692.26200000003,
      "d": 230.76900000000023,
      "v": 127
    },
    {
      "midi": 56,
      "hit": false,
      "t": 45923.031000000025,
      "d": 230.76900000000023,
      "v": 127
    },
    {
      "midi": 70,
      "hit": false,
      "t": 45923.03100000003,
      "d": 230.76900000000023,
      "v": 127
    },
    {
      "midi": 55,
      "hit": false,
      "t": 46153.800000000025,
      "d": 230.76900000000023,
      "v": 127
    },
    {
      "midi": 82,
      "hit": false,
      "t": 46153.80000000003,
      "d": 692.3070000000007,
      "v": 127
    },
    {
      "midi": 51,
      "hit": false,
      "t": 46384.569000000025,
      "d": 230.76900000000023,
      "v": 127
    },
    {
      "midi": 53,
      "hit": false,
      "t": 46384.569000000025,
      "d": 230.76900000000023,
      "v": 127
    },
    {
      "midi": 53,
      "hit": false,
      "t": 46615.338000000025,
      "d": 230.76900000000023,
      "v": 127
    },
    {
      "midi": 55,
      "hit": false,
      "t": 46615.338000000025,
      "d": 230.76900000000023,
      "v": 127
    },
    {
      "midi": 51,
      "hit": false,
      "t": 46846.107000000025,
      "d": 230.76900000000023,
      "v": 127
    },
    {
      "midi": 80,
      "hit": false,
      "t": 46846.10700000003,
      "d": 230.76900000000023,
      "v": 127
    },
    {
      "midi": 63,
      "hit": false,
      "t": 47076.876000000026,
      "d": 692.3070000000007,
      "v": 127
    },
    {
      "midi": 79,
      "hit": false,
      "t": 47076.87600000003,
      "d": 230.76900000000023,
      "v": 127
    },
    {
      "midi": 80,
      "hit": false,
      "t": 47307.64500000003,
      "d": 230.76900000000023,
      "v": 127
    },
    {
      "midi": 82,
      "hit": false,
      "t": 47307.64500000003,
      "d": 230.76900000000023,
      "v": 127
    },
    {
      "midi": 79,
      "hit": false,
      "t": 47538.41400000003,
      "d": 230.76900000000023,
      "v": 127
    },
    {
      "midi": 80,
      "hit": false,
      "t": 47538.41400000003,
      "d": 230.76900000000023,
      "v": 127
    },
    {
      "midi": 62,
      "hit": false,
      "t": 47769.18300000003,
      "d": 230.76900000000023,
      "v": 127
    },
    {
      "midi": 82,
      "hit": false,
      "t": 47769.183000000034,
      "d": 230.76900000000023,
      "v": 127
    },
    {
      "midi": 60,
      "hit": false,
      "t": 47999.95200000003,
      "d": 230.76900000000023,
      "v": 127
    },
    {
      "midi": 75,
      "hit": false,
      "t": 47999.952000000034,
      "d": 230.76900000000023,
      "v": 127
    },
    {
      "midi": 62,
      "hit": false,
      "t": 48230.72100000003,
      "d": 230.76900000000023,
      "v": 127
    },
    {
      "midi": 63,
      "hit": false,
      "t": 48230.72100000003,
      "d": 230.76900000000023,
      "v": 127
    },
    {
      "midi": 77,
      "hit": false,
      "t": 48230.721000000034,
      "d": 230.76900000000023,
      "v": 127
    },
    {
      "midi": 79,
      "hit": false,
      "t": 48230.721000000034,
      "d": 230.76900000000023,
      "v": 127
    },
    {
      "midi": 60,
      "hit": false,
      "t": 48461.49000000003,
      "d": 230.76900000000023,
      "v": 127
    },
    {
      "midi": 62,
      "hit": false,
      "t": 48461.49000000003,
      "d": 230.76900000000023,
      "v": 127
    },
    {
      "midi": 75,
      "hit": false,
      "t": 48461.490000000034,
      "d": 230.76900000000023,
      "v": 127
    },
    {
      "midi": 77,
      "hit": false,
      "t": 48461.490000000034,
      "d": 230.76900000000023,
      "v": 127
    },
    {
      "midi": 63,
      "hit": false,
      "t": 48692.25900000003,
      "d": 230.76900000000023,
      "v": 127
    },
    {
      "midi": 79,
      "hit": false,
      "t": 48692.259000000035,
      "d": 230.76900000000023,
      "v": 127
    },
    {
      "midi": 57,
      "hit": false,
      "t": 48923.02800000003,
      "d": 230.76900000000023,
      "v": 127
    },
    {
      "midi": 72,
      "hit": false,
      "t": 48923.028000000035,
      "d": 230.76900000000023,
      "v": 127
    },
    {
      "midi": 58,
      "hit": false,
      "t": 49153.79700000003,
      "d": 230.76900000000023,
      "v": 127
    },
    {
      "midi": 60,
      "hit": false,
      "t": 49153.79700000003,
      "d": 230.76900000000023,
      "v": 127
    },
    {
      "midi": 74,
      "hit": false,
      "t": 49153.797000000035,
      "d": 230.76900000000023,
      "v": 127
    },
    {
      "midi": 75,
      "hit": false,
      "t": 49153.797000000035,
      "d": 230.76900000000023,
      "v": 127
    },
    {
      "midi": 57,
      "hit": false,
      "t": 49384.56600000003,
      "d": 230.76900000000023,
      "v": 127
    },
    {
      "midi": 58,
      "hit": false,
      "t": 49384.56600000003,
      "d": 230.76900000000023,
      "v": 127
    },
    {
      "midi": 72,
      "hit": false,
      "t": 49384.566000000035,
      "d": 230.76900000000023,
      "v": 127
    },
    {
      "midi": 74,
      "hit": false,
      "t": 49384.566000000035,
      "d": 230.76900000000023,
      "v": 127
    },
    {
      "midi": 60,
      "hit": false,
      "t": 49615.33500000003,
      "d": 230.76900000000023,
      "v": 127
    },
    {
      "midi": 75,
      "hit": false,
      "t": 49615.335000000036,
      "d": 230.76900000000023,
      "v": 127
    },
    {
      "midi": 53,
      "hit": false,
      "t": 49846.10400000003,
      "d": 230.76900000000023,
      "v": 127
    },
    {
      "midi": 69,
      "hit": false,
      "t": 49846.104000000036,
      "d": 230.76900000000023,
      "v": 127
    },
    {
      "midi": 57,
      "hit": false,
      "t": 50076.87300000003,
      "d": 230.76900000000023,
      "v": 127
    },
    {
      "midi": 58,
      "hit": false,
      "t": 50076.87300000003,
      "d": 230.76900000000023,
      "v": 127
    },
    {
      "midi": 72,
      "hit": false,
      "t": 50076.873000000036,
      "d": 230.76900000000023,
      "v": 127
    },
    {
      "midi": 74,
      "hit": false,
      "t": 50076.873000000036,
      "d": 230.76900000000023,
      "v": 127
    },
    {
      "midi": 58,
      "hit": false,
      "t": 50307.64200000003,
      "d": 230.76900000000023,
      "v": 127
    },
    {
      "midi": 60,
      "hit": false,
      "t": 50307.64200000003,
      "d": 230.76900000000023,
      "v": 127
    },
    {
      "midi": 74,
      "hit": false,
      "t": 50307.642000000036,
      "d": 230.76900000000023,
      "v": 127
    },
    {
      "midi": 75,
      "hit": false,
      "t": 50307.642000000036,
      "d": 230.76900000000023,
      "v": 127
    },
    {
      "midi": 57,
      "hit": false,
      "t": 50538.41100000003,
      "d": 230.76900000000023,
      "v": 127
    },
    {
      "midi": 72,
      "hit": false,
      "t": 50538.41100000004,
      "d": 230.76900000000023,
      "v": 127
    },
    {
      "midi": 62,
      "hit": false,
      "t": 50769.18000000003,
      "d": 230.76900000000023,
      "v": 127
    },
    {
      "midi": 77,
      "hit": false,
      "t": 50769.18000000004,
      "d": 230.76900000000023,
      "v": 127
    },
    {
      "midi": 51,
      "hit": false,
      "t": 50999.94900000003,
      "d": 230.76900000000023,
      "v": 127
    },
    {
      "midi": 53,
      "hit": false,
      "t": 50999.94900000003,
      "d": 230.76900000000023,
      "v": 127
    },
    {
      "midi": 67,
      "hit": false,
      "t": 50999.94900000004,
      "d": 230.76900000000023,
      "v": 127
    },
    {
      "midi": 68,
      "hit": false,
      "t": 50999.94900000004,
      "d": 230.76900000000023,
      "v": 127
    },
    {
      "midi": 50,
      "hit": false,
      "t": 51230.71800000003,
      "d": 230.76900000000023,
      "v": 127
    },
    {
      "midi": 51,
      "hit": false,
      "t": 51230.71800000003,
      "d": 230.76900000000023,
      "v": 127
    },
    {
      "midi": 65,
      "hit": false,
      "t": 51230.71800000004,
      "d": 230.76900000000023,
      "v": 127
    },
    {
      "midi": 67,
      "hit": false,
      "t": 51230.71800000004,
      "d": 230.76900000000023,
      "v": 127
    },
    {
      "midi": 53,
      "hit": false,
      "t": 51461.48700000003,
      "d": 230.76900000000023,
      "v": 127
    },
    {
      "midi": 68,
      "hit": false,
      "t": 51461.48700000004,
      "d": 230.76900000000023,
      "v": 127
    },
    {
      "midi": 51,
      "hit": false,
      "t": 51692.25600000003,
      "d": 230.76900000000023,
      "v": 127
    },
    {
      "midi": 67,
      "hit": false,
      "t": 51692.25600000004,
      "d": 230.76900000000023,
      "v": 127
    },
    {
      "midi": 55,
      "hit": false,
      "t": 51923.02500000003,
      "d": 230.76900000000023,
      "v": 127
    },
    {
      "midi": 57,
      "hit": false,
      "t": 51923.02500000003,
      "d": 230.76900000000023,
      "v": 127
    },
    {
      "midi": 70,
      "hit": false,
      "t": 51923.02500000004,
      "d": 230.76900000000023,
      "v": 127
    },
    {
      "midi": 72,
      "hit": false,
      "t": 51923.02500000004,
      "d": 230.76900000000023,
      "v": 127
    },
    {
      "midi": 57,
      "hit": false,
      "t": 52153.79400000003,
      "d": 230.76900000000023,
      "v": 127
    },
    {
      "midi": 58,
      "hit": false,
      "t": 52153.79400000003,
      "d": 230.76900000000023,
      "v": 127
    },
    {
      "midi": 72,
      "hit": false,
      "t": 52153.79400000004,
      "d": 230.76900000000023,
      "v": 127
    },
    {
      "midi": 74,
      "hit": false,
      "t": 52153.79400000004,
      "d": 230.76900000000023,
      "v": 127
    },
    {
      "midi": 55,
      "hit": false,
      "t": 52384.56300000003,
      "d": 230.76900000000023,
      "v": 127
    },
    {
      "midi": 70,
      "hit": false,
      "t": 52384.56300000004,
      "d": 230.76900000000023,
      "v": 127
    },
    {
      "midi": 60,
      "hit": false,
      "t": 52615.33200000003,
      "d": 230.76900000000023,
      "v": 127
    },
    {
      "midi": 75,
      "hit": false,
      "t": 52615.33200000004,
      "d": 230.76900000000023,
      "v": 127
    },
    {
      "midi": 50,
      "hit": false,
      "t": 52846.10100000003,
      "d": 230.76900000000023,
      "v": 127
    },
    {
      "midi": 51,
      "hit": false,
      "t": 52846.10100000003,
      "d": 230.76900000000023,
      "v": 127
    },
    {
      "midi": 65,
      "hit": false,
      "t": 52846.10100000004,
      "d": 230.76900000000023,
      "v": 127
    },
    {
      "midi": 67,
      "hit": false,
      "t": 52846.10100000004,
      "d": 230.76900000000023,
      "v": 127
    },
    {
      "midi": 48,
      "hit": false,
      "t": 53076.87000000003,
      "d": 230.76900000000023,
      "v": 127
    },
    {
      "midi": 50,
      "hit": false,
      "t": 53076.87000000003,
      "d": 230.76900000000023,
      "v": 127
    },
    {
      "midi": 63,
      "hit": false,
      "t": 53076.87000000004,
      "d": 230.76900000000023,
      "v": 127
    },
    {
      "midi": 65,
      "hit": false,
      "t": 53076.87000000004,
      "d": 230.76900000000023,
      "v": 127
    },
    {
      "midi": 51,
      "hit": false,
      "t": 53307.63900000003,
      "d": 230.76900000000023,
      "v": 127
    },
    {
      "midi": 67,
      "hit": false,
      "t": 53307.63900000004,
      "d": 230.76900000000023,
      "v": 127
    },
    {
      "midi": 50,
      "hit": false,
      "t": 53538.40800000003,
      "d": 230.76900000000023,
      "v": 127
    },
    {
      "midi": 65,
      "hit": false,
      "t": 53538.40800000004,
      "d": 230.76900000000023,
      "v": 127
    },
    {
      "midi": 53,
      "hit": false,
      "t": 53769.17700000003,
      "d": 230.76900000000023,
      "v": 127
    },
    {
      "midi": 55,
      "hit": false,
      "t": 53769.17700000003,
      "d": 230.76900000000023,
      "v": 127
    },
    {
      "midi": 69,
      "hit": false,
      "t": 53769.17700000004,
      "d": 230.76900000000023,
      "v": 127
    },
    {
      "midi": 70,
      "hit": false,
      "t": 53769.17700000004,
      "d": 230.76900000000023,
      "v": 127
    },
    {
      "midi": 55,
      "hit": false,
      "t": 53999.94600000003,
      "d": 230.76900000000023,
      "v": 127
    },
    {
      "midi": 57,
      "hit": false,
      "t": 53999.94600000003,
      "d": 230.76900000000023,
      "v": 127
    },
    {
      "midi": 70,
      "hit": false,
      "t": 53999.94600000004,
      "d": 230.76900000000023,
      "v": 127
    },
    {
      "midi": 72,
      "hit": false,
      "t": 53999.94600000004,
      "d": 230.76900000000023,
      "v": 127
    },
    {
      "midi": 53,
      "hit": false,
      "t": 54230.71500000003,
      "d": 230.76900000000023,
      "v": 127
    },
    {
      "midi": 69,
      "hit": false,
      "t": 54230.71500000004,
      "d": 230.76900000000023,
      "v": 127
    },
    {
      "midi": 58,
      "hit": false,
      "t": 54461.48400000003,
      "d": 230.76900000000023,
      "v": 127
    },
    {
      "midi": 74,
      "hit": false,
      "t": 54461.48400000004,
      "d": 230.76900000000023,
      "v": 127
    },
    {
      "midi": 48,
      "hit": false,
      "t": 54692.25300000003,
      "d": 230.76900000000023,
      "v": 127
    },
    {
      "midi": 50,
      "hit": false,
      "t": 54692.25300000003,
      "d": 230.76900000000023,
      "v": 127
    },
    {
      "midi": 63,
      "hit": false,
      "t": 54692.25300000004,
      "d": 230.76900000000023,
      "v": 127
    },
    {
      "midi": 65,
      "hit": false,
      "t": 54692.25300000004,
      "d": 230.76900000000023,
      "v": 127
    },
    {
      "midi": 46,
      "hit": false,
      "t": 54923.02200000003,
      "d": 230.76900000000023,
      "v": 127
    },
    {
      "midi": 48,
      "hit": false,
      "t": 54923.02200000003,
      "d": 230.76900000000023,
      "v": 127
    },
    {
      "midi": 62,
      "hit": false,
      "t": 54923.02200000004,
      "d": 230.76900000000023,
      "v": 127
    },
    {
      "midi": 63,
      "hit": false,
      "t": 54923.02200000004,
      "d": 230.76900000000023,
      "v": 127
    },
    {
      "midi": 50,
      "hit": false,
      "t": 55153.791000000034,
      "d": 230.76900000000023,
      "v": 127
    },
    {
      "midi": 65,
      "hit": false,
      "t": 55153.79100000004,
      "d": 230.76900000000023,
      "v": 127
    },
    {
      "midi": 48,
      "hit": false,
      "t": 55384.560000000034,
      "d": 230.76900000000023,
      "v": 127
    },
    {
      "midi": 63,
      "hit": false,
      "t": 55384.56000000004,
      "d": 230.76900000000023,
      "v": 127
    },
    {
      "midi": 51,
      "hit": false,
      "t": 55615.329000000034,
      "d": 230.76900000000023,
      "v": 127
    },
    {
      "midi": 53,
      "hit": false,
      "t": 55615.329000000034,
      "d": 230.76900000000023,
      "v": 127
    },
    {
      "midi": 67,
      "hit": false,
      "t": 55615.32900000004,
      "d": 230.76900000000023,
      "v": 127
    },
    {
      "midi": 69,
      "hit": false,
      "t": 55615.32900000004,
      "d": 230.76900000000023,
      "v": 127
    },
    {
      "midi": 53,
      "hit": false,
      "t": 55846.098000000035,
      "d": 230.76900000000023,
      "v": 127
    },
    {
      "midi": 55,
      "hit": false,
      "t": 55846.098000000035,
      "d": 230.76900000000023,
      "v": 127
    },
    {
      "midi": 69,
      "hit": false,
      "t": 55846.09800000004,
      "d": 230.76900000000023,
      "v": 127
    },
    {
      "midi": 70,
      "hit": false,
      "t": 55846.09800000004,
      "d": 230.76900000000023,
      "v": 127
    },
    {
      "midi": 51,
      "hit": false,
      "t": 56076.867000000035,
      "d": 230.76900000000023,
      "v": 127
    },
    {
      "midi": 67,
      "hit": false,
      "t": 56076.86700000004,
      "d": 230.76900000000023,
      "v": 127
    },
    {
      "midi": 57,
      "hit": false,
      "t": 56307.636000000035,
      "d": 230.76900000000023,
      "v": 127
    },
    {
      "midi": 72,
      "hit": false,
      "t": 56307.63600000004,
      "d": 230.76900000000023,
      "v": 127
    },
    {
      "midi": 46,
      "hit": false,
      "t": 56538.405000000035,
      "d": 230.76900000000023,
      "v": 127
    },
    {
      "midi": 48,
      "hit": false,
      "t": 56538.405000000035,
      "d": 230.76900000000023,
      "v": 127
    },
    {
      "midi": 62,
      "hit": false,
      "t": 56538.40500000004,
      "d": 230.76900000000023,
      "v": 127
    },
    {
      "midi": 63,
      "hit": false,
      "t": 56538.40500000004,
      "d": 230.76900000000023,
      "v": 127
    },
    {
      "midi": 45,
      "hit": false,
      "t": 56769.174000000035,
      "d": 230.76900000000023,
      "v": 127
    },
    {
      "midi": 46,
      "hit": false,
      "t": 56769.174000000035,
      "d": 230.76900000000023,
      "v": 127
    },
    {
      "midi": 60,
      "hit": false,
      "t": 56769.17400000004,
      "d": 230.76900000000023,
      "v": 127
    },
    {
      "midi": 62,
      "hit": false,
      "t": 56769.17400000004,
      "d": 230.76900000000023,
      "v": 127
    },
    {
      "midi": 48,
      "hit": false,
      "t": 56999.943000000036,
      "d": 230.76900000000023,
      "v": 127
    },
    {
      "midi": 63,
      "hit": false,
      "t": 56999.94300000004,
      "d": 230.76900000000023,
      "v": 127
    },
    {
      "midi": 46,
      "hit": false,
      "t": 57230.712000000036,
      "d": 230.76900000000023,
      "v": 127
    },
    {
      "midi": 62,
      "hit": false,
      "t": 57230.71200000004,
      "d": 923.0760000000009,
      "v": 127
    },
    {
      "midi": 58,
      "hit": false,
      "t": 57461.481000000036,
      "d": 230.76900000000023,
      "v": 127
    },
    {
      "midi": 60,
      "hit": false,
      "t": 57461.481000000036,
      "d": 230.76900000000023,
      "v": 127
    },
    {
      "midi": 60,
      "hit": false,
      "t": 57692.25000000004,
      "d": 230.76900000000023,
      "v": 127
    },
    {
      "midi": 62,
      "hit": false,
      "t": 57692.25000000004,
      "d": 230.76900000000023,
      "v": 127
    },
    {
      "midi": 58,
      "hit": false,
      "t": 57923.01900000004,
      "d": 230.76900000000023,
      "v": 127
    },
    {
      "midi": 65,
      "hit": false,
      "t": 58153.78800000004,
      "d": 230.76900000000023,
      "v": 127
    },
    {
      "midi": 62,
      "hit": false,
      "t": 58384.55700000004,
      "d": 230.76900000000023,
      "v": 127
    },
    {
      "midi": 70,
      "hit": false,
      "t": 58384.557000000044,
      "d": 230.76900000000023,
      "v": 127
    },
    {
      "midi": 72,
      "hit": false,
      "t": 58384.557000000044,
      "d": 230.76900000000023,
      "v": 127
    },
    {
      "midi": 70,
      "hit": false,
      "t": 58615.32600000004,
      "d": 230.76900000000023,
      "v": 127
    },
    {
      "midi": 72,
      "hit": false,
      "t": 58615.326000000045,
      "d": 230.76900000000023,
      "v": 127
    },
    {
      "midi": 74,
      "hit": false,
      "t": 58615.326000000045,
      "d": 230.76900000000023,
      "v": 127
    },
    {
      "midi": 65,
      "hit": false,
      "t": 58846.09500000004,
      "d": 230.76900000000023,
      "v": 127
    },
    {
      "midi": 70,
      "hit": false,
      "t": 58846.095000000045,
      "d": 230.76900000000023,
      "v": 127
    },
    {
      "midi": 62,
      "hit": false,
      "t": 59076.86400000004,
      "d": 230.76900000000023,
      "v": 127
    },
    {
      "midi": 77,
      "hit": false,
      "t": 59076.864000000045,
      "d": 230.76900000000023,
      "v": 127
    },
    {
      "midi": 63,
      "hit": false,
      "t": 59307.63300000004,
      "d": 230.76900000000023,
      "v": 127
    },
    {
      "midi": 65,
      "hit": false,
      "t": 59307.63300000004,
      "d": 230.76900000000023,
      "v": 127
    },
    {
      "midi": 74,
      "hit": false,
      "t": 59307.633000000045,
      "d": 230.76900000000023,
      "v": 127
    },
    {
      "midi": 62,
      "hit": false,
      "t": 59538.40200000004,
      "d": 230.76900000000023,
      "v": 127
    },
    {
      "midi": 63,
      "hit": false,
      "t": 59538.40200000004,
      "d": 230.76900000000023,
      "v": 127
    },
    {
      "midi": 82,
      "hit": false,
      "t": 59538.402000000046,
      "d": 230.76900000000023,
      "v": 127
    },
    {
      "midi": 65,
      "hit": false,
      "t": 59769.17100000004,
      "d": 230.76900000000023,
      "v": 127
    },
    {
      "midi": 77,
      "hit": false,
      "t": 59769.171000000046,
      "d": 230.76900000000023,
      "v": 127
    },
    {
      "midi": 58,
      "hit": false,
      "t": 59999.94000000004,
      "d": 230.76900000000023,
      "v": 127
    },
    {
      "midi": 74,
      "hit": false,
      "t": 59999.940000000046,
      "d": 230.76900000000023,
      "v": 127
    },
    {
      "midi": 62,
      "hit": false,
      "t": 60230.70900000004,
      "d": 230.76900000000023,
      "v": 127
    },
    {
      "midi": 75,
      "hit": false,
      "t": 60230.709000000046,
      "d": 230.76900000000023,
      "v": 127
    },
    {
      "midi": 77,
      "hit": false,
      "t": 60230.709000000046,
      "d": 230.76900000000023,
      "v": 127
    },
    {
      "midi": 53,
      "hit": false,
      "t": 60461.47800000004,
      "d": 230.76900000000023,
      "v": 127
    },
    {
      "midi": 74,
      "hit": false,
      "t": 60461.47800000005,
      "d": 230.76900000000023,
      "v": 127
    },
    {
      "midi": 75,
      "hit": false,
      "t": 60461.47800000005,
      "d": 230.76900000000023,
      "v": 127
    },
    {
      "midi": 56,
      "hit": false,
      "t": 60692.24700000004,
      "d": 230.76900000000023,
      "v": 127
    },
    {
      "midi": 77,
      "hit": false,
      "t": 60692.24700000005,
      "d": 230.76900000000023,
      "v": 127
    },
    {
      "midi": 55,
      "hit": false,
      "t": 60923.01600000004,
      "d": 230.76900000000023,
      "v": 127
    },
    {
      "midi": 70,
      "hit": false,
      "t": 60923.01600000005,
      "d": 230.76900000000023,
      "v": 127
    },
    {
      "midi": 51,
      "hit": false,
      "t": 61153.78500000004,
      "d": 230.76900000000023,
      "v": 127
    },
    {
      "midi": 53,
      "hit": false,
      "t": 61153.78500000004,
      "d": 230.76900000000023,
      "v": 127
    },
    {
      "midi": 75,
      "hit": false,
      "t": 61153.78500000005,
      "d": 230.76900000000023,
      "v": 127
    },
    {
      "midi": 53,
      "hit": false,
      "t": 61384.55400000004,
      "d": 230.76900000000023,
      "v": 127
    },
    {
      "midi": 55,
      "hit": false,
      "t": 61384.55400000004,
      "d": 230.76900000000023,
      "v": 127
    },
    {
      "midi": 70,
      "hit": false,
      "t": 61384.55400000005,
      "d": 230.76900000000023,
      "v": 127
    },
    {
      "midi": 51,
      "hit": false,
      "t": 61615.32300000004,
      "d": 230.76900000000023,
      "v": 127
    },
    {
      "midi": 75,
      "hit": false,
      "t": 61615.32300000005,
      "d": 230.76900000000023,
      "v": 127
    },
    {
      "midi": 58,
      "hit": false,
      "t": 61846.09200000004,
      "d": 230.76900000000023,
      "v": 127
    },
    {
      "midi": 67,
      "hit": false,
      "t": 61846.09200000005,
      "d": 230.76900000000023,
      "v": 127
    },
    {
      "midi": 55,
      "hit": false,
      "t": 62076.86100000004,
      "d": 230.76900000000023,
      "v": 127
    },
    {
      "midi": 63,
      "hit": false,
      "t": 62076.86100000005,
      "d": 230.76900000000023,
      "v": 127
    },
    {
      "midi": 65,
      "hit": false,
      "t": 62076.86100000005,
      "d": 230.76900000000023,
      "v": 127
    },
    {
      "midi": 63,
      "hit": false,
      "t": 62307.63000000004,
      "d": 230.76900000000023,
      "v": 127
    },
    {
      "midi": 65,
      "hit": false,
      "t": 62307.63000000005,
      "d": 230.76900000000023,
      "v": 127
    },
    {
      "midi": 67,
      "hit": false,
      "t": 62307.63000000005,
      "d": 230.76900000000023,
      "v": 127
    },
    {
      "midi": 58,
      "hit": false,
      "t": 62538.39900000004,
      "d": 230.76900000000023,
      "v": 127
    },
    {
      "midi": 63,
      "hit": false,
      "t": 62538.39900000005,
      "d": 230.76900000000023,
      "v": 127
    },
    {
      "midi": 55,
      "hit": false,
      "t": 62769.16800000004,
      "d": 230.76900000000023,
      "v": 127
    },
    {
      "midi": 70,
      "hit": false,
      "t": 62769.16800000005,
      "d": 230.76900000000023,
      "v": 127
    },
    {
      "midi": 56,
      "hit": false,
      "t": 62999.93700000004,
      "d": 230.76900000000023,
      "v": 127
    },
    {
      "midi": 58,
      "hit": false,
      "t": 62999.93700000004,
      "d": 230.76900000000023,
      "v": 127
    },
    {
      "midi": 67,
      "hit": false,
      "t": 62999.93700000005,
      "d": 230.76900000000023,
      "v": 127
    },
    {
      "midi": 55,
      "hit": false,
      "t": 63230.70600000004,
      "d": 230.76900000000023,
      "v": 127
    },
    {
      "midi": 56,
      "hit": false,
      "t": 63230.70600000004,
      "d": 230.76900000000023,
      "v": 127
    },
    {
      "midi": 75,
      "hit": false,
      "t": 63230.70600000005,
      "d": 230.76900000000023,
      "v": 127
    },
    {
      "midi": 58,
      "hit": false,
      "t": 63461.47500000004,
      "d": 230.76900000000023,
      "v": 127
    },
    {
      "midi": 70,
      "hit": false,
      "t": 63461.47500000005,
      "d": 230.76900000000023,
      "v": 127
    },
    {
      "midi": 51,
      "hit": false,
      "t": 63692.24400000004,
      "d": 230.76900000000023,
      "v": 127
    },
    {
      "midi": 67,
      "hit": false,
      "t": 63692.24400000005,
      "d": 230.76900000000023,
      "v": 127
    },
    {
      "midi": 55,
      "hit": false,
      "t": 63923.01300000004,
      "d": 230.76900000000023,
      "v": 127
    },
    {
      "midi": 68,
      "hit": false,
      "t": 63923.01300000005,
      "d": 230.76900000000023,
      "v": 127
    },
    {
      "midi": 70,
      "hit": false,
      "t": 63923.01300000005,
      "d": 230.76900000000023,
      "v": 127
    },
    {
      "midi": 46,
      "hit": false,
      "t": 64153.78200000004,
      "d": 230.76900000000023,
      "v": 127
    },
    {
      "midi": 67,
      "hit": false,
      "t": 64153.78200000005,
      "d": 230.76900000000023,
      "v": 127
    },
    {
      "midi": 68,
      "hit": false,
      "t": 64153.78200000005,
      "d": 230.76900000000023,
      "v": 127
    },
    {
      "midi": 50,
      "hit": false,
      "t": 64384.55100000004,
      "d": 230.76900000000023,
      "v": 127
    },
    {
      "midi": 70,
      "hit": false,
      "t": 64384.55100000005,
      "d": 230.76900000000023,
      "v": 127
    },
    {
      "midi": 48,
      "hit": false,
      "t": 64615.32000000004,
      "d": 230.76900000000023,
      "v": 127
    },
    {
      "midi": 63,
      "hit": false,
      "t": 64615.32000000005,
      "d": 461.53800000000047,
      "v": 127
    },
    {
      "midi": 41,
      "hit": false,
      "t": 64846.08900000004,
      "d": 230.76900000000023,
      "v": 127
    },
    {
      "midi": 43,
      "hit": false,
      "t": 64846.08900000004,
      "d": 230.76900000000023,
      "v": 127
    },
    {
      "midi": 43,
      "hit": false,
      "t": 65076.858000000044,
      "d": 230.76900000000023,
      "v": 127
    },
    {
      "midi": 45,
      "hit": false,
      "t": 65076.858000000044,
      "d": 230.76900000000023,
      "v": 127
    },
    {
      "midi": 75,
      "hit": false,
      "t": 65076.85800000005,
      "d": 692.3070000000007,
      "v": 127
    },
    {
      "midi": 41,
      "hit": false,
      "t": 65307.627000000044,
      "d": 230.76899999999296,
      "v": 127
    },
    {
      "midi": 48,
      "hit": false,
      "t": 65538.39600000004,
      "d": 230.76900000000023,
      "v": 127
    },
    {
      "midi": 45,
      "hit": false,
      "t": 65769.16500000004,
      "d": 230.76900000000023,
      "v": 127
    },
    {
      "midi": 74,
      "hit": false,
      "t": 65769.16500000005,
      "d": 230.76900000000023,
      "v": 127
    },
    {
      "midi": 75,
      "hit": false,
      "t": 65769.16500000005,
      "d": 230.76900000000023,
      "v": 127
    },
    {
      "midi": 51,
      "hit": false,
      "t": 65999.93400000004,
      "d": 230.76900000000023,
      "v": 127
    },
    {
      "midi": 72,
      "hit": false,
      "t": 65999.93400000005,
      "d": 230.76900000000023,
      "v": 127
    },
    {
      "midi": 74,
      "hit": false,
      "t": 65999.93400000005,
      "d": 230.76900000000023,
      "v": 127
    },
    {
      "midi": 48,
      "hit": false,
      "t": 66230.70300000004,
      "d": 230.76900000000023,
      "v": 127
    },
    {
      "midi": 75,
      "hit": false,
      "t": 66230.70300000005,
      "d": 230.76900000000023,
      "v": 127
    },
    {
      "midi": 45,
      "hit": false,
      "t": 66461.47200000004,
      "d": 230.76900000000023,
      "v": 127
    },
    {
      "midi": 65,
      "hit": false,
      "t": 66461.47200000005,
      "d": 461.53800000000047,
      "v": 127
    },
    {
      "midi": 46,
      "hit": false,
      "t": 66692.24100000004,
      "d": 230.76900000000023,
      "v": 127
    },
    {
      "midi": 48,
      "hit": false,
      "t": 66692.24100000004,
      "d": 230.76900000000023,
      "v": 127
    },
    {
      "midi": 45,
      "hit": false,
      "t": 66923.01000000004,
      "d": 230.76900000000023,
      "v": 127
    },
    {
      "midi": 46,
      "hit": false,
      "t": 66923.01000000004,
      "d": 230.76900000000023,
      "v": 127
    },
    {
      "midi": 75,
      "hit": false,
      "t": 66923.01000000005,
      "d": 692.3070000000007,
      "v": 127
    },
    {
      "midi": 48,
      "hit": false,
      "t": 67153.77900000004,
      "d": 230.76900000000023,
      "v": 127
    },
    {
      "midi": 41,
      "hit": false,
      "t": 67384.54800000004,
      "d": 230.76900000000023,
      "v": 127
    },
    {
      "midi": 45,
      "hit": false,
      "t": 67615.31700000004,
      "d": 230.76900000000023,
      "v": 127
    },
    {
      "midi": 72,
      "hit": false,
      "t": 67615.31700000005,
      "d": 230.76900000000023,
      "v": 127
    },
    {
      "midi": 74,
      "hit": false,
      "t": 67615.31700000005,
      "d": 230.76900000000023,
      "v": 127
    },
    {
      "midi": 36,
      "hit": false,
      "t": 67846.08600000004,
      "d": 230.76900000000023,
      "v": 127
    },
    {
      "midi": 74,
      "hit": false,
      "t": 67846.08600000005,
      "d": 230.76900000000023,
      "v": 127
    },
    {
      "midi": 75,
      "hit": false,
      "t": 67846.08600000005,
      "d": 230.76900000000023,
      "v": 127
    },
    {
      "midi": 39,
      "hit": false,
      "t": 68076.85500000004,
      "d": 230.76900000000023,
      "v": 127
    },
    {
      "midi": 72,
      "hit": false,
      "t": 68076.85500000005,
      "d": 230.76900000000023,
      "v": 127
    },
    {
      "midi": 38,
      "hit": false,
      "t": 68307.62400000004,
      "d": 230.76900000000023,
      "v": 127
    },
    {
      "midi": 77,
      "hit": false,
      "t": 68307.62400000005,
      "d": 230.76900000000023,
      "v": 127
    },
    {
      "midi": 46,
      "hit": false,
      "t": 68538.39300000004,
      "d": 230.76900000000023,
      "v": 127
    },
    {
      "midi": 48,
      "hit": false,
      "t": 68538.39300000004,
      "d": 230.76900000000023,
      "v": 127
    },
    {
      "midi": 72,
      "hit": false,
      "t": 68538.39300000005,
      "d": 230.76900000000023,
      "v": 127
    },
    {
      "midi": 74,
      "hit": false,
      "t": 68538.39300000005,
      "d": 230.76900000000023,
      "v": 127
    },
    {
      "midi": 48,
      "hit": false,
      "t": 68769.16200000004,
      "d": 230.76900000000023,
      "v": 127
    },
    {
      "midi": 50,
      "hit": false,
      "t": 68769.16200000004,
      "d": 230.76900000000023,
      "v": 127
    },
    {
      "midi": 70,
      "hit": false,
      "t": 68769.16200000005,
      "d": 230.76900000000023,
      "v": 127
    },
    {
      "midi": 72,
      "hit": false,
      "t": 68769.16200000005,
      "d": 230.76900000000023,
      "v": 127
    },
    {
      "midi": 46,
      "hit": false,
      "t": 68999.93100000004,
      "d": 230.76900000000023,
      "v": 127
    },
    {
      "midi": 74,
      "hit": false,
      "t": 68999.93100000006,
      "d": 230.76900000000023,
      "v": 127
    },
    {
      "midi": 53,
      "hit": false,
      "t": 69230.70000000004,
      "d": 461.53800000000047,
      "v": 127
    },
    {
      "midi": 65,
      "hit": false,
      "t": 69230.70000000006,
      "d": 230.76900000000023,
      "v": 127
    },
    {
      "midi": 70,
      "hit": false,
      "t": 69461.46900000006,
      "d": 230.76900000000023,
      "v": 127
    },
    {
      "midi": 41,
      "hit": false,
      "t": 69692.23800000004,
      "d": 461.53800000000047,
      "v": 127
    },
    {
      "midi": 72,
      "hit": false,
      "t": 69692.23800000006,
      "d": 230.76900000000023,
      "v": 127
    },
    {
      "midi": 69,
      "hit": false,
      "t": 69923.00700000006,
      "d": 230.76900000000023,
      "v": 127
    },
    {
      "midi": 46,
      "hit": false,
      "t": 70153.77600000004,
      "d": 3692.3040000000037,
      "v": 127
    },
    {
      "midi": 70,
      "hit": false,
      "t": 70153.77600000006,
      "d": 3692.3040000000037,
      "v": 127
    }
  ]
}