{
  "jsonPath": "Classical/Classical/Johann Sebastian Bach/italian-concerto-1.json",
  "path": "Classical\\Classical\\Johann Sebastian Bach\\Italian Concerto 1.mid",
  "name": "Italian Concerto 1",
  "difficulty": "Advanced",
  "bpm": 40,
  "notes": [
    {
      "midi": 62,
      "hit": false,
      "t": 0,
      "d": 750,
      "v": 90
    },
    {
      "midi": 65,
      "hit": false,
      "t": 0,
      "d": 750,
      "v": 90
    },
    {
      "midi": 50,
      "hit": false,
      "t": 750,
      "d": 750,
      "v": 90
    },
    {
      "midi": 50,
      "hit": false,
      "t": 1500,
      "d": 750,
      "v": 90
    },
    {
      "midi": 62,
      "hit": false,
      "t": 2250,
      "d": 750,
      "v": 90
    },
    {
      "midi": 65,
      "hit": false,
      "t": 2250,
      "d": 750,
      "v": 90
    },
    {
      "midi": 64,
      "hit": false,
      "t": 3000,
      "d": 750,
      "v": 90
    },
    {
      "midi": 67,
      "hit": false,
      "t": 3000,
      "d": 750,
      "v": 90
    },
    {
      "midi": 65,
      "hit": false,
      "t": 3750,
      "d": 750,
      "v": 90
    },
    {
      "midi": 69,
      "hit": false,
      "t": 3750,
      "d": 750,
      "v": 90
    },
    {
      "midi": 67,
      "hit": false,
      "t": 4500,
      "d": 750,
      "v": 90
    },
    {
      "midi": 70,
      "hit": false,
      "t": 4500,
      "d": 750,
      "v": 90
    },
    {
      "midi": 50,
      "hit": false,
      "t": 5250,
      "d": 750,
      "v": 90
    },
    {
      "midi": 50,
      "hit": false,
      "t": 6000,
      "d": 750,
      "v": 90
    },
    {
      "midi": 65,
      "hit": false,
      "t": 6750,
      "d": 750,
      "v": 90
    },
    {
      "midi": 69,
      "hit": false,
      "t": 6750,
      "d": 750,
      "v": 90
    },
    {
      "midi": 64,
      "hit": false,
      "t": 7500,
      "d": 750,
      "v": 90
    },
    {
      "midi": 67,
      "hit": false,
      "t": 7500,
      "d": 750,
      "v": 90
    },
    {
      "midi": 62,
      "hit": false,
      "t": 8250,
      "d": 750,
      "v": 90
    },
    {
      "midi": 65,
      "hit": false,
      "t": 8250,
      "d": 750,
      "v": 90
    },
    {
      "midi": 61,
      "hit": false,
      "t": 9000,
      "d": 750,
      "v": 90
    },
    {
      "midi": 64,
      "hit": false,
      "t": 9000,
      "d": 750,
      "v": 90
    },
    {
      "midi": 50,
      "hit": false,
      "t": 9750,
      "d": 750,
      "v": 90
    },
    {
      "midi": 50,
      "hit": false,
      "t": 10500,
      "d": 750,
      "v": 90
    },
    {
      "midi": 64,
      "hit": false,
      "t": 11250,
      "d": 750,
      "v": 90
    },
    {
      "midi": 67,
      "hit": false,
      "t": 11250,
      "d": 750,
      "v": 90
    },
    {
      "midi": 62,
      "hit": false,
      "t": 12000,
      "d": 750,
      "v": 90
    },
    {
      "midi": 65,
      "hit": false,
      "t": 12000,
      "d": 750,
      "v": 90
    },
    {
      "midi": 61,
      "hit": false,
      "t": 12750,
      "d": 750,
      "v": 90
    },
    {
      "midi": 64,
      "hit": false,
      "t": 12750,
      "d": 750,
      "v": 90
    },
    {
      "midi": 81,
      "hit": false,
      "t": 13500,
      "d": 1500,
      "v": 90
    },
    {
      "midi": 62,
      "hit": false,
      "t": 13500,
      "d": 750,
      "v": 90
    },
    {
      "midi": 65,
      "hit": false,
      "t": 13500,
      "d": 750,
      "v": 90
    },
    {
      "midi": 50,
      "hit": false,
      "t": 14250,
      "d": 750,
      "v": 90
    },
    {
      "midi": 50,
      "hit": false,
      "t": 15000,
      "d": 750,
      "v": 90
    },
    {
      "midi": 79,
      "hit": false,
      "t": 15375,
      "d": 375,
      "v": 90
    },
    {
      "midi": 77,
      "hit": false,
      "t": 15750,
      "d": 375,
      "v": 90
    },
    {
      "midi": 62,
      "hit": false,
      "t": 15750,
      "d": 750,
      "v": 90
    },
    {
      "midi": 65,
      "hit": false,
      "t": 15750,
      "d": 750,
      "v": 90
    },
    {
      "midi": 76,
      "hit": false,
      "t": 16125,
      "d": 375,
      "v": 90
    },
    {
      "midi": 74,
      "hit": false,
      "t": 16500,
      "d": 375,
      "v": 90
    },
    {
      "midi": 64,
      "hit": false,
      "t": 16500,
      "d": 750,
      "v": 90
    },
    {
      "midi": 67,
      "hit": false,
      "t": 16500,
      "d": 750,
      "v": 90
    },
    {
      "midi": 73,
      "hit": false,
      "t": 16875,
      "d": 375,
      "v": 90
    },
    {
      "midi": 74,
      "hit": false,
      "t": 17250,
      "d": 375,
      "v": 90
    },
    {
      "midi": 65,
      "hit": false,
      "t": 17250,
      "d": 750,
      "v": 90
    },
    {
      "midi": 69,
      "hit": false,
      "t": 17250,
      "d": 750,
      "v": 90
    },
    {
      "midi": 77,
      "hit": false,
      "t": 17625,
      "d": 375,
      "v": 90
    },
    {
      "midi": 76,
      "hit": false,
      "t": 18000,
      "d": 375,
      "v": 90
    },
    {
      "midi": 67,
      "hit": false,
      "t": 18000,
      "d": 750,
      "v": 90
    },
    {
      "midi": 70,
      "hit": false,
      "t": 18000,
      "d": 750,
      "v": 90
    },
    {
      "midi": 74,
      "hit": false,
      "t": 18375,
      "d": 375,
      "v": 90
    },
    {
      "midi": 76,
      "hit": false,
      "t": 18750,
      "d": 1125,
      "v": 90
    },
    {
      "midi": 50,
      "hit": false,
      "t": 18750,
      "d": 750,
      "v": 90
    },
    {
      "midi": 50,
      "hit": false,
      "t": 19500,
      "d": 750,
      "v": 90
    },
    {
      "midi": 79,
      "hit": false,
      "t": 19875,
      "d": 375,
      "v": 90
    },
    {
      "midi": 81,
      "hit": false,
      "t": 20250,
      "d": 375,
      "v": 90
    },
    {
      "midi": 65,
      "hit": false,
      "t": 20250,
      "d": 750,
      "v": 90
    },
    {
      "midi": 69,
      "hit": false,
      "t": 20250,
      "d": 750,
      "v": 90
    },
    {
      "midi": 82,
      "hit": false,
      "t": 20625,
      "d": 750,
      "v": 90
    },
    {
      "midi": 64,
      "hit": false,
      "t": 21000,
      "d": 750,
      "v": 90
    },
    {
      "midi": 67,
      "hit": false,
      "t": 21000,
      "d": 750,
      "v": 90
    },
    {
      "midi": 73,
      "hit": false,
      "t": 21375,
      "d": 375,
      "v": 90
    },
    {
      "midi": 74,
      "hit": false,
      "t": 21750,
      "d": 375,
      "v": 90
    },
    {
      "midi": 62,
      "hit": false,
      "t": 21750,
      "d": 750,
      "v": 90
    },
    {
      "midi": 65,
      "hit": false,
      "t": 21750,
      "d": 750,
      "v": 90
    },
    {
      "midi": 76,
      "hit": false,
      "t": 22125,
      "d": 375,
      "v": 90
    },
    {
      "midi": 67,
      "hit": false,
      "t": 22500,
      "d": 375,
      "v": 90
    },
    {
      "midi": 69,
      "hit": false,
      "t": 22500,
      "d": 375,
      "v": 90
    },
    {
      "midi": 61,
      "hit": false,
      "t": 22500,
      "d": 750,
      "v": 90
    },
    {
      "midi": 64,
      "hit": false,
      "t": 22500,
      "d": 750,
      "v": 90
    },
    {
      "midi": 65,
      "hit": false,
      "t": 22875,
      "d": 375,
      "v": 90
    },
    {
      "midi": 67,
      "hit": false,
      "t": 23250,
      "d": 1125,
      "v": 90
    },
    {
      "midi": 50,
      "hit": false,
      "t": 23250,
      "d": 750,
      "v": 90
    },
    {
      "midi": 50,
      "hit": false,
      "t": 24000,
      "d": 750,
      "v": 90
    },
    {
      "midi": 69,
      "hit": false,
      "t": 24375,
      "d": 375,
      "v": 90
    },
    {
      "midi": 70,
      "hit": false,
      "t": 24750,
      "d": 375,
      "v": 90
    },
    {
      "midi": 64,
      "hit": false,
      "t": 24750,
      "d": 750,
      "v": 90
    },
    {
      "midi": 67,
      "hit": false,
      "t": 24750,
      "d": 750,
      "v": 90
    },
    {
      "midi": 73,
      "hit": false,
      "t": 25125,
      "d": 750,
      "v": 90
    },
    {
      "midi": 62,
      "hit": false,
      "t": 25500,
      "d": 750,
      "v": 90
    },
    {
      "midi": 65,
      "hit": false,
      "t": 25500,
      "d": 750,
      "v": 90
    },
    {
      "midi": 74,
      "hit": false,
      "t": 25875,
      "d": 750,
      "v": 90
    },
    {
      "midi": 60,
      "hit": false,
      "t": 26250,
      "d": 750,
      "v": 90
    },
    {
      "midi": 64,
      "hit": false,
      "t": 26250,
      "d": 750,
      "v": 90
    },
    {
      "midi": 76,
      "hit": false,
      "t": 26625,
      "d": 375,
      "v": 90
    },
    {
      "midi": 62,
      "hit": false,
      "t": 27000,
      "d": 750,
      "v": 90
    },
    {
      "midi": 65,
      "hit": false,
      "t": 27000,
      "d": 750,
      "v": 90
    },
    {
      "midi": 67,
      "hit": false,
      "t": 27375,
      "d": 375,
      "v": 90
    },
    {
      "midi": 65,
      "hit": false,
      "t": 27750,
      "d": 375,
      "v": 90
    },
    {
      "midi": 50,
      "hit": false,
      "t": 27750,
      "d": 750,
      "v": 90
    },
    {
      "midi": 64,
      "hit": false,
      "t": 28125,
      "d": 375,
      "v": 90
    },
    {
      "midi": 65,
      "hit": false,
      "t": 28500,
      "d": 375,
      "v": 90
    },
    {
      "midi": 50,
      "hit": false,
      "t": 28500,
      "d": 750,
      "v": 90
    },
    {
      "midi": 70,
      "hit": false,
      "t": 28875,
      "d": 375,
      "v": 90
    },
    {
      "midi": 69,
      "hit": false,
      "t": 29250,
      "d": 375,
      "v": 90
    },
    {
      "midi": 55,
      "hit": false,
      "t": 29250,
      "d": 750,
      "v": 90
    },
    {
      "midi": 64,
      "hit": false,
      "t": 29250,
      "d": 750,
      "v": 90
    },
    {
      "midi": 67,
      "hit": false,
      "t": 29625,
      "d": 375,
      "v": 90
    },
    {
      "midi": 69,
      "hit": false,
      "t": 30000,
      "d": 375,
      "v": 90
    },
    {
      "midi": 53,
      "hit": false,
      "t": 30000,
      "d": 750,
      "v": 90
    },
    {
      "midi": 62,
      "hit": false,
      "t": 30000,
      "d": 750,
      "v": 90
    },
    {
      "midi": 71,
      "hit": false,
      "t": 30375,
      "d": 375,
      "v": 90
    },
    {
      "midi": 73,
      "hit": false,
      "t": 30375,
      "d": 375,
      "v": 90
    },
    {
      "midi": 74,
      "hit": false,
      "t": 30750,
      "d": 375,
      "v": 90
    },
    {
      "midi": 76,
      "hit": false,
      "t": 30750,
      "d": 375,
      "v": 90
    },
    {
      "midi": 52,
      "hit": false,
      "t": 30750,
      "d": 750,
      "v": 90
    },
    {
      "midi": 61,
      "hit": false,
      "t": 30750,
      "d": 750,
      "v": 90
    },
    {
      "midi": 77,
      "hit": false,
      "t": 31125,
      "d": 375,
      "v": 90
    },
    {
      "midi": 79,
      "hit": false,
      "t": 31125,
      "d": 375,
      "v": 90
    },
    {
      "midi": 76,
      "hit": false,
      "t": 31500,
      "d": 375,
      "v": 90
    },
    {
      "midi": 77,
      "hit": false,
      "t": 31500,
      "d": 375,
      "v": 90
    },
    {
      "midi": 50,
      "hit": false,
      "t": 31500,
      "d": 750,
      "v": 90
    },
    {
      "midi": 62,
      "hit": false,
      "t": 31500,
      "d": 750,
      "v": 90
    },
    {
      "midi": 74,
      "hit": false,
      "t": 31875,
      "d": 375,
      "v": 90
    },
    {
      "midi": 76,
      "hit": false,
      "t": 31875,
      "d": 375,
      "v": 90
    },
    {
      "midi": 77,
      "hit": false,
      "t": 32250,
      "d": 375,
      "v": 90
    },
    {
      "midi": 38,
      "hit": false,
      "t": 32250,
      "d": 750,
      "v": 90
    },
    {
      "midi": 74,
      "hit": false,
      "t": 32625,
      "d": 375,
      "v": 90
    },
    {
      "midi": 70,
      "hit": false,
      "t": 33000,
      "d": 3000,
      "v": 90
    },
    {
      "midi": 72,
      "hit": false,
      "t": 33000,
      "d": 3000,
      "v": 90
    },
    {
      "midi": 38,
      "hit": false,
      "t": 33000,
      "d": 750,
      "v": 90
    },
    {
      "midi": 62,
      "hit": false,
      "t": 33750,
      "d": 750,
      "v": 90
    },
    {
      "midi": 65,
      "hit": false,
      "t": 33750,
      "d": 750,
      "v": 90
    },
    {
      "midi": 60,
      "hit": false,
      "t": 34500,
      "d": 750,
      "v": 90
    },
    {
      "midi": 64,
      "hit": false,
      "t": 34500,
      "d": 750,
      "v": 90
    },
    {
      "midi": 58,
      "hit": false,
      "t": 35250,
      "d": 750,
      "v": 90
    },
    {
      "midi": 62,
      "hit": false,
      "t": 35250,
      "d": 750,
      "v": 90
    },
    {
      "midi": 60,
      "hit": false,
      "t": 36000,
      "d": 750,
      "v": 90
    },
    {
      "midi": 64,
      "hit": false,
      "t": 36000,
      "d": 750,
      "v": 90
    },
    {
      "midi": 67,
      "hit": false,
      "t": 36375,
      "d": 375,
      "v": 90
    },
    {
      "midi": 69,
      "hit": false,
      "t": 36375,
      "d": 375,
      "v": 90
    },
    {
      "midi": 65,
      "hit": false,
      "t": 36750,
      "d": 375,
      "v": 90
    },
    {
      "midi": 67,
      "hit": false,
      "t": 36750,
      "d": 375,
      "v": 90
    },
    {
      "midi": 52,
      "hit": false,
      "t": 36750,
      "d": 750,
      "v": 90
    },
    {
      "midi": 64,
      "hit": false,
      "t": 37125,
      "d": 375,
      "v": 90
    },
    {
      "midi": 64,
      "hit": false,
      "t": 37500,
      "d": 3000,
      "v": 90
    },
    {
      "midi": 69,
      "hit": false,
      "t": 37500,
      "d": 3000,
      "v": 90
    },
    {
      "midi": 52,
      "hit": false,
      "t": 37500,
      "d": 750,
      "v": 90
    },
    {
      "midi": 60,
      "hit": false,
      "t": 38250,
      "d": 750,
      "v": 90
    },
    {
      "midi": 64,
      "hit": false,
      "t": 38250,
      "d": 750,
      "v": 90
    },
    {
      "midi": 58,
      "hit": false,
      "t": 39000,
      "d": 750,
      "v": 90
    },
    {
      "midi": 62,
      "hit": false,
      "t": 39000,
      "d": 750,
      "v": 90
    },
    {
      "midi": 57,
      "hit": false,
      "t": 39750,
      "d": 750,
      "v": 90
    },
    {
      "midi": 61,
      "hit": false,
      "t": 39750,
      "d": 750,
      "v": 90
    },
    {
      "midi": 58,
      "hit": false,
      "t": 40500,
      "d": 750,
      "v": 90
    },
    {
      "midi": 62,
      "hit": false,
      "t": 40500,
      "d": 750,
      "v": 90
    },
    {
      "midi": 71,
      "hit": false,
      "t": 40875,
      "d": 375,
      "v": 90
    },
    {
      "midi": 73,
      "hit": false,
      "t": 40875,
      "d": 375,
      "v": 90
    },
    {
      "midi": 73,
      "hit": false,
      "t": 41250,
      "d": 375,
      "v": 90
    },
    {
      "midi": 74,
      "hit": false,
      "t": 41250,
      "d": 375,
      "v": 90
    },
    {
      "midi": 46,
      "hit": false,
      "t": 41250,
      "d": 750,
      "v": 90
    },
    {
      "midi": 69,
      "hit": false,
      "t": 41625,
      "d": 375,
      "v": 90
    },
    {
      "midi": 71,
      "hit": false,
      "t": 41625,
      "d": 375,
      "v": 90
    },
    {
      "midi": 74,
      "hit": false,
      "t": 42000,
      "d": 375,
      "v": 90
    },
    {
      "midi": 46,
      "hit": false,
      "t": 42000,
      "d": 750,
      "v": 90
    },
    {
      "midi": 70,
      "hit": false,
      "t": 42375,
      "d": 375,
      "v": 90
    },
    {
      "midi": 69,
      "hit": false,
      "t": 42750,
      "d": 375,
      "v": 90
    },
    {
      "midi": 58,
      "hit": false,
      "t": 42750,
      "d": 750,
      "v": 90
    },
    {
      "midi": 62,
      "hit": false,
      "t": 42750,
      "d": 750,
      "v": 90
    },
    {
      "midi": 67,
      "hit": false,
      "t": 43125,
      "d": 375,
      "v": 90
    },
    {
      "midi": 69,
      "hit": false,
      "t": 43500,
      "d": 375,
      "v": 90
    },
    {
      "midi": 57,
      "hit": false,
      "t": 43500,
      "d": 750,
      "v": 90
    },
    {
      "midi": 61,
      "hit": false,
      "t": 43500,
      "d": 750,
      "v": 90
    },
    {
      "midi": 66,
      "hit": false,
      "t": 43875,
      "d": 375,
      "v": 90
    },
    {
      "midi": 67,
      "hit": false,
      "t": 43875,
      "d": 375,
      "v": 90
    },
    {
      "midi": 67,
      "hit": false,
      "t": 44250,
      "d": 375,
      "v": 90
    },
    {
      "midi": 55,
      "hit": false,
      "t": 44250,
      "d": 750,
      "v": 90
    },
    {
      "midi": 59,
      "hit": false,
      "t": 44250,
      "d": 750,
      "v": 90
    },
    {
      "midi": 67,
      "hit": false,
      "t": 44625,
      "d": 375,
      "v": 90
    },
    {
      "midi": 67,
      "hit": false,
      "t": 45000,
      "d": 375,
      "v": 90
    },
    {
      "midi": 57,
      "hit": false,
      "t": 45000,
      "d": 750,
      "v": 90
    },
    {
      "midi": 61,
      "hit": false,
      "t": 45000,
      "d": 750,
      "v": 90
    },
    {
      "midi": 76,
      "hit": false,
      "t": 45375,
      "d": 1125,
      "v": 90
    },
    {
      "midi": 45,
      "hit": false,
      "t": 45750,
      "d": 750,
      "v": 90
    },
    {
      "midi": 74,
      "hit": false,
      "t": 46500,
      "d": 375,
      "v": 90
    },
    {
      "midi": 45,
      "hit": false,
      "t": 46500,
      "d": 750,
      "v": 90
    },
    {
      "midi": 73,
      "hit": false,
      "t": 46875,
      "d": 375,
      "v": 90
    },
    {
      "midi": 74,
      "hit": false,
      "t": 46875,
      "d": 375,
      "v": 90
    },
    {
      "midi": 74,
      "hit": false,
      "t": 47250,
      "d": 375,
      "v": 90
    },
    {
      "midi": 76,
      "hit": false,
      "t": 47250,
      "d": 375,
      "v": 90
    },
    {
      "midi": 57,
      "hit": false,
      "t": 47250,
      "d": 750,
      "v": 90
    },
    {
      "midi": 61,
      "hit": false,
      "t": 47250,
      "d": 750,
      "v": 90
    },
    {
      "midi": 71,
      "hit": false,
      "t": 47625,
      "d": 375,
      "v": 90
    },
    {
      "midi": 73,
      "hit": false,
      "t": 47625,
      "d": 375,
      "v": 90
    },
    {
      "midi": 69,
      "hit": false,
      "t": 48000,
      "d": 375,
      "v": 90
    },
    {
      "midi": 59,
      "hit": false,
      "t": 48000,
      "d": 750,
      "v": 90
    },
    {
      "midi": 62,
      "hit": false,
      "t": 48000,
      "d": 750,
      "v": 90
    },
    {
      "midi": 67,
      "hit": false,
      "t": 48375,
      "d": 375,
      "v": 90
    },
    {
      "midi": 70,
      "hit": false,
      "t": 48750,
      "d": 375,
      "v": 90
    },
    {
      "midi": 61,
      "hit": false,
      "t": 48750,
      "d": 750,
      "v": 90
    },
    {
      "midi": 64,
      "hit": false,
      "t": 48750,
      "d": 750,
      "v": 90
    },
    {
      "midi": 67,
      "hit": false,
      "t": 49125,
      "d": 375,
      "v": 90
    },
    {
      "midi": 69,
      "hit": false,
      "t": 49125,
      "d": 375,
      "v": 90
    },
    {
      "midi": 65,
      "hit": false,
      "t": 49500,
      "d": 375,
      "v": 90
    },
    {
      "midi": 67,
      "hit": false,
      "t": 49500,
      "d": 375,
      "v": 90
    },
    {
      "midi": 62,
      "hit": false,
      "t": 49500,
      "d": 750,
      "v": 90
    },
    {
      "midi": 65,
      "hit": false,
      "t": 49500,
      "d": 750,
      "v": 90
    },
    {
      "midi": 64,
      "hit": false,
      "t": 49875,
      "d": 375,
      "v": 90
    },
    {
      "midi": 65,
      "hit": false,
      "t": 49875,
      "d": 375,
      "v": 90
    },
    {
      "midi": 65,
      "hit": false,
      "t": 50250,
      "d": 375,
      "v": 90
    },
    {
      "midi": 69,
      "hit": false,
      "t": 50250,
      "d": 375,
      "v": 90
    },
    {
      "midi": 50,
      "hit": false,
      "t": 50250,
      "d": 750,
      "v": 90
    },
    {
      "midi": 61,
      "hit": false,
      "t": 50625,
      "d": 375,
      "v": 90
    },
    {
      "midi": 61,
      "hit": false,
      "t": 51000,
      "d": 375,
      "v": 90
    },
    {
      "midi": 50,
      "hit": false,
      "t": 51000,
      "d": 750,
      "v": 90
    },
    {
      "midi": 62,
      "hit": false,
      "t": 51375,
      "d": 375,
      "v": 90
    },
    {
      "midi": 62,
      "hit": false,
      "t": 51750,
      "d": 750,
      "v": 90
    },
    {
      "midi": 65,
      "hit": false,
      "t": 51750,
      "d": 750,
      "v": 90
    },
    {
      "midi": 64,
      "hit": false,
      "t": 52500,
      "d": 750,
      "v": 90
    },
    {
      "midi": 67,
      "hit": false,
      "t": 52500,
      "d": 750,
      "v": 90
    },
    {
      "midi": 74,
      "hit": false,
      "t": 53250,
      "d": 750,
      "v": 90
    },
    {
      "midi": 65,
      "hit": false,
      "t": 53250,
      "d": 750,
      "v": 90
    },
    {
      "midi": 69,
      "hit": false,
      "t": 53250,
      "d": 750,
      "v": 90
    },
    {
      "midi": 67,
      "hit": false,
      "t": 54000,
      "d": 750,
      "v": 90
    },
    {
      "midi": 70,
      "hit": false,
      "t": 54000,
      "d": 750,
      "v": 90
    },
    {
      "midi": 72,
      "hit": false,
      "t": 54375,
      "d": 375,
      "v": 90
    },
    {
      "midi": 70,
      "hit": false,
      "t": 54750,
      "d": 375,
      "v": 90
    },
    {
      "midi": 55,
      "hit": false,
      "t": 54750,
      "d": 750,
      "v": 90
    },
    {
      "midi": 69,
      "hit": false,
      "t": 55125,
      "d": 375,
      "v": 90
    },
    {
      "midi": 70,
      "hit": false,
      "t": 55500,
      "d": 375,
      "v": 90
    },
    {
      "midi": 55,
      "hit": false,
      "t": 55500,
      "d": 750,
      "v": 90
    },
    {
      "midi": 67,
      "hit": false,
      "t": 55875,
      "d": 375,
      "v": 90
    },
    {
      "midi": 70,
      "hit": false,
      "t": 56250,
      "d": 375,
      "v": 90
    },
    {
      "midi": 65,
      "hit": false,
      "t": 56250,
      "d": 750,
      "v": 90
    },
    {
      "midi": 69,
      "hit": false,
      "t": 56250,
      "d": 750,
      "v": 90
    },
    {
      "midi": 74,
      "hit": false,
      "t": 56625,
      "d": 375,
      "v": 90
    },
    {
      "midi": 79,
      "hit": false,
      "t": 57000,
      "d": 375,
      "v": 90
    },
    {
      "midi": 64,
      "hit": false,
      "t": 57000,
      "d": 750,
      "v": 90
    },
    {
      "midi": 67,
      "hit": false,
      "t": 57000,
      "d": 750,
      "v": 90
    },
    {
      "midi": 74,
      "hit": false,
      "t": 57375,
      "d": 375,
      "v": 90
    },
    {
      "midi": 82,
      "hit": false,
      "t": 57750,
      "d": 750,
      "v": 90
    },
    {
      "midi": 62,
      "hit": false,
      "t": 57750,
      "d": 750,
      "v": 90
    },
    {
      "midi": 65,
      "hit": false,
      "t": 57750,
      "d": 750,
      "v": 90
    },
    {
      "midi": 84,
      "hit": false,
      "t": 58500,
      "d": 375,
      "v": 90
    },
    {
      "midi": 60,
      "hit": false,
      "t": 58500,
      "d": 750,
      "v": 90
    },
    {
      "midi": 64,
      "hit": false,
      "t": 58500,
      "d": 750,
      "v": 90
    },
    {
      "midi": 81,
      "hit": false,
      "t": 58875,
      "d": 375,
      "v": 90
    },
    {
      "midi": 82,
      "hit": false,
      "t": 58875,
      "d": 375,
      "v": 90
    },
    {
      "midi": 79,
      "hit": false,
      "t": 59250,
      "d": 375,
      "v": 90
    },
    {
      "midi": 82,
      "hit": false,
      "t": 59250,
      "d": 375,
      "v": 90
    },
    {
      "midi": 48,
      "hit": false,
      "t": 59250,
      "d": 750,
      "v": 90
    },
    {
      "midi": 81,
      "hit": false,
      "t": 59625,
      "d": 375,
      "v": 90
    },
    {
      "midi": 82,
      "hit": false,
      "t": 59625,
      "d": 375,
      "v": 90
    },
    {
      "midi": 77,
      "hit": false,
      "t": 60000,
      "d": 375,
      "v": 90
    },
    {
      "midi": 48,
      "hit": false,
      "t": 60000,
      "d": 750,
      "v": 90
    },
    {
      "midi": 76,
      "hit": false,
      "t": 60375,
      "d": 375,
      "v": 90
    },
    {
      "midi": 60,
      "hit": false,
      "t": 60750,
      "d": 750,
      "v": 90
    },
    {
      "midi": 64,
      "hit": false,
      "t": 60750,
      "d": 750,
      "v": 90
    },
    {
      "midi": 62,
      "hit": false,
      "t": 61500,
      "d": 750,
      "v": 90
    },
    {
      "midi": 65,
      "hit": false,
      "t": 61500,
      "d": 750,
      "v": 90
    },
    {
      "midi": 72,
      "hit": false,
      "t": 62250,
      "d": 375,
      "v": 90
    },
    {
      "midi": 74,
      "hit": false,
      "t": 62250,
      "d": 375,
      "v": 90
    },
    {
      "midi": 64,
      "hit": false,
      "t": 62250,
      "d": 750,
      "v": 90
    },
    {
      "midi": 67,
      "hit": false,
      "t": 62250,
      "d": 750,
      "v": 90
    },
    {
      "midi": 76,
      "hit": false,
      "t": 62625,
      "d": 375,
      "v": 90
    },
    {
      "midi": 70,
      "hit": false,
      "t": 63000,
      "d": 375,
      "v": 90
    },
    {
      "midi": 65,
      "hit": false,
      "t": 63000,
      "d": 750,
      "v": 90
    },
    {
      "midi": 69,
      "hit": false,
      "t": 63000,
      "d": 750,
      "v": 90
    },
    {
      "midi": 72,
      "hit": false,
      "t": 63375,
      "d": 375,
      "v": 90
    },
    {
      "midi": 74,
      "hit": false,
      "t": 63375,
      "d": 375,
      "v": 90
    },
    {
      "midi": 70,
      "hit": false,
      "t": 63750,
      "d": 375,
      "v": 90
    },
    {
      "midi": 72,
      "hit": false,
      "t": 63750,
      "d": 375,
      "v": 90
    },
    {
      "midi": 53,
      "hit": false,
      "t": 63750,
      "d": 750,
      "v": 90
    },
    {
      "midi": 67,
      "hit": false,
      "t": 64125,
      "d": 375,
      "v": 90
    },
    {
      "midi": 69,
      "hit": false,
      "t": 64125,
      "d": 375,
      "v": 90
    },
    {
      "midi": 65,
      "hit": false,
      "t": 64500,
      "d": 375,
      "v": 90
    },
    {
      "midi": 69,
      "hit": false,
      "t": 64500,
      "d": 375,
      "v": 90
    },
    {
      "midi": 53,
      "hit": false,
      "t": 64500,
      "d": 750,
      "v": 90
    },
    {
      "midi": 67,
      "hit": false,
      "t": 64875,
      "d": 375,
      "v": 90
    },
    {
      "midi": 69,
      "hit": false,
      "t": 64875,
      "d": 375,
      "v": 90
    },
    {
      "midi": 70,
      "hit": false,
      "t": 65250,
      "d": 375,
      "v": 90
    },
    {
      "midi": 72,
      "hit": false,
      "t": 65250,
      "d": 375,
      "v": 90
    },
    {
      "midi": 64,
      "hit": false,
      "t": 65250,
      "d": 750,
      "v": 90
    },
    {
      "midi": 67,
      "hit": false,
      "t": 65250,
      "d": 750,
      "v": 90
    },
    {
      "midi": 74,
      "hit": false,
      "t": 65625,
      "d": 375,
      "v": 90
    },
    {
      "midi": 76,
      "hit": false,
      "t": 65625,
      "d": 375,
      "v": 90
    },
    {
      "midi": 76,
      "hit": false,
      "t": 66000,
      "d": 375,
      "v": 90
    },
    {
      "midi": 77,
      "hit": false,
      "t": 66000,
      "d": 375,
      "v": 90
    },
    {
      "midi": 62,
      "hit": false,
      "t": 66000,
      "d": 750,
      "v": 90
    },
    {
      "midi": 65,
      "hit": false,
      "t": 66000,
      "d": 750,
      "v": 90
    },
    {
      "midi": 72,
      "hit": false,
      "t": 66375,
      "d": 375,
      "v": 90
    },
    {
      "midi": 74,
      "hit": false,
      "t": 66375,
      "d": 375,
      "v": 90
    },
    {
      "midi": 81,
      "hit": false,
      "t": 66750,
      "d": 750,
      "v": 90
    },
    {
      "midi": 60,
      "hit": false,
      "t": 66750,
      "d": 750,
      "v": 90
    },
    {
      "midi": 63,
      "hit": false,
      "t": 66750,
      "d": 750,
      "v": 90
    },
    {
      "midi": 58,
      "hit": false,
      "t": 67500,
      "d": 750,
      "v": 90
    },
    {
      "midi": 62,
      "hit": false,
      "t": 67500,
      "d": 750,
      "v": 90
    },
    {
      "midi": 74,
      "hit": false,
      "t": 67875,
      "d": 375,
      "v": 90
    },
    {
      "midi": 72,
      "hit": false,
      "t": 68250,
      "d": 375,
      "v": 90
    },
    {
      "midi": 74,
      "hit": false,
      "t": 68250,
      "d": 375,
      "v": 90
    },
    {
      "midi": 46,
      "hit": false,
      "t": 68250,
      "d": 750,
      "v": 90
    },
    {
      "midi": 74,
      "hit": false,
      "t": 68625,
      "d": 375,
      "v": 90
    },
    {
      "midi": 74,
      "hit": false,
      "t": 69000,
      "d": 375,
      "v": 90
    },
    {
      "midi": 46,
      "hit": false,
      "t": 69000,
      "d": 750,
      "v": 90
    },
    {
      "midi": 79,
      "hit": false,
      "t": 69375,
      "d": 2250,
      "v": 90
    },
    {
      "midi": 58,
      "hit": false,
      "t": 69750,
      "d": 750,
      "v": 90
    },
    {
      "midi": 62,
      "hit": false,
      "t": 69750,
      "d": 750,
      "v": 90
    },
    {
      "midi": 57,
      "hit": false,
      "t": 70500,
      "d": 750,
      "v": 90
    },
    {
      "midi": 60,
      "hit": false,
      "t": 70500,
      "d": 750,
      "v": 90
    },
    {
      "midi": 55,
      "hit": false,
      "t": 71250,
      "d": 750,
      "v": 90
    },
    {
      "midi": 58,
      "hit": false,
      "t": 71250,
      "d": 750,
      "v": 90
    },
    {
      "midi": 82,
      "hit": false,
      "t": 72000,
      "d": 375,
      "v": 90
    },
    {
      "midi": 57,
      "hit": false,
      "t": 72000,
      "d": 750,
      "v": 90
    },
    {
      "midi": 60,
      "hit": false,
      "t": 72000,
      "d": 750,
      "v": 90
    },
    {
      "midi": 79,
      "hit": false,
      "t": 72375,
      "d": 375,
      "v": 90
    },
    {
      "midi": 81,
      "hit": false,
      "t": 72375,
      "d": 375,
      "v": 90
    },
    {
      "midi": 76,
      "hit": false,
      "t": 72750,
      "d": 375,
      "v": 90
    },
    {
      "midi": 77,
      "hit": false,
      "t": 72750,
      "d": 375,
      "v": 90
    },
    {
      "midi": 45,
      "hit": false,
      "t": 72750,
      "d": 750,
      "v": 90
    },
    {
      "midi": 72,
      "hit": false,
      "t": 73125,
      "d": 375,
      "v": 90
    },
    {
      "midi": 74,
      "hit": false,
      "t": 73125,
      "d": 375,
      "v": 90
    },
    {
      "midi": 72,
      "hit": false,
      "t": 73500,
      "d": 375,
      "v": 90
    },
    {
      "midi": 45,
      "hit": false,
      "t": 73500,
      "d": 750,
      "v": 90
    },
    {
      "midi": 77,
      "hit": false,
      "t": 73875,
      "d": 2250,
      "v": 90
    },
    {
      "midi": 57,
      "hit": false,
      "t": 74250,
      "d": 750,
      "v": 90
    },
    {
      "midi": 60,
      "hit": false,
      "t": 74250,
      "d": 750,
      "v": 90
    },
    {
      "midi": 55,
      "hit": false,
      "t": 75000,
      "d": 750,
      "v": 90
    },
    {
      "midi": 58,
      "hit": false,
      "t": 75000,
      "d": 750,
      "v": 90
    },
    {
      "midi": 53,
      "hit": false,
      "t": 75750,
      "d": 750,
      "v": 90
    },
    {
      "midi": 57,
      "hit": false,
      "t": 75750,
      "d": 750,
      "v": 90
    },
    {
      "midi": 76,
      "hit": false,
      "t": 76500,
      "d": 375,
      "v": 90
    },
    {
      "midi": 55,
      "hit": false,
      "t": 76500,
      "d": 750,
      "v": 90
    },
    {
      "midi": 58,
      "hit": false,
      "t": 76500,
      "d": 750,
      "v": 90
    },
    {
      "midi": 74,
      "hit": false,
      "t": 76875,
      "d": 375,
      "v": 90
    },
    {
      "midi": 76,
      "hit": false,
      "t": 76875,
      "d": 375,
      "v": 90
    },
    {
      "midi": 77,
      "hit": false,
      "t": 77250,
      "d": 375,
      "v": 90
    },
    {
      "midi": 43,
      "hit": false,
      "t": 77250,
      "d": 750,
      "v": 90
    },
    {
      "midi": 74,
      "hit": false,
      "t": 77625,
      "d": 375,
      "v": 90
    },
    {
      "midi": 70,
      "hit": false,
      "t": 78000,
      "d": 375,
      "v": 90
    },
    {
      "midi": 72,
      "hit": false,
      "t": 78000,
      "d": 375,
      "v": 90
    },
    {
      "midi": 43,
      "hit": false,
      "t": 78000,
      "d": 750,
      "v": 90
    },
    {
      "midi": 69,
      "hit": false,
      "t": 78375,
      "d": 375,
      "v": 90
    },
    {
      "midi": 70,
      "hit": false,
      "t": 78750,
      "d": 750,
      "v": 90
    },
    {
      "midi": 53,
      "hit": false,
      "t": 78750,
      "d": 750,
      "v": 90
    },
    {
      "midi": 57,
      "hit": false,
      "t": 78750,
      "d": 750,
      "v": 90
    },
    {
      "midi": 72,
      "hit": false,
      "t": 79500,
      "d": 375,
      "v": 90
    },
    {
      "midi": 52,
      "hit": false,
      "t": 79500,
      "d": 750,
      "v": 90
    },
    {
      "midi": 55,
      "hit": false,
      "t": 79500,
      "d": 750,
      "v": 90
    },
    {
      "midi": 69,
      "hit": false,
      "t": 79875,
      "d": 375,
      "v": 90
    },
    {
      "midi": 70,
      "hit": false,
      "t": 79875,
      "d": 375,
      "v": 90
    },
    {
      "midi": 70,
      "hit": false,
      "t": 80250,
      "d": 375,
      "v": 90
    },
    {
      "midi": 50,
      "hit": false,
      "t": 80250,
      "d": 750,
      "v": 90
    },
    {
      "midi": 53,
      "hit": false,
      "t": 80250,
      "d": 750,
      "v": 90
    },
    {
      "midi": 70,
      "hit": false,
      "t": 80625,
      "d": 375,
      "v": 90
    },
    {
      "midi": 70,
      "hit": false,
      "t": 81000,
      "d": 375,
      "v": 90
    },
    {
      "midi": 48,
      "hit": false,
      "t": 81000,
      "d": 750,
      "v": 90
    },
    {
      "midi": 52,
      "hit": false,
      "t": 81000,
      "d": 750,
      "v": 90
    },
    {
      "midi": 79,
      "hit": false,
      "t": 81375,
      "d": 1125,
      "v": 90
    },
    {
      "midi": 36,
      "hit": false,
      "t": 81750,
      "d": 750,
      "v": 90
    },
    {
      "midi": 77,
      "hit": false,
      "t": 82500,
      "d": 375,
      "v": 90
    },
    {
      "midi": 36,
      "hit": false,
      "t": 82500,
      "d": 750,
      "v": 90
    },
    {
      "midi": 76,
      "hit": false,
      "t": 82875,
      "d": 375,
      "v": 90
    },
    {
      "midi": 77,
      "hit": false,
      "t": 82875,
      "d": 375,
      "v": 90
    },
    {
      "midi": 77,
      "hit": false,
      "t": 83250,
      "d": 375,
      "v": 90
    },
    {
      "midi": 79,
      "hit": false,
      "t": 83250,
      "d": 375,
      "v": 90
    },
    {
      "midi": 48,
      "hit": false,
      "t": 83250,
      "d": 750,
      "v": 90
    },
    {
      "midi": 52,
      "hit": false,
      "t": 83250,
      "d": 750,
      "v": 90
    },
    {
      "midi": 74,
      "hit": false,
      "t": 83625,
      "d": 375,
      "v": 90
    },
    {
      "midi": 76,
      "hit": false,
      "t": 83625,
      "d": 375,
      "v": 90
    },
    {
      "midi": 72,
      "hit": false,
      "t": 84000,
      "d": 375,
      "v": 90
    },
    {
      "midi": 50,
      "hit": false,
      "t": 84000,
      "d": 750,
      "v": 90
    },
    {
      "midi": 53,
      "hit": false,
      "t": 84000,
      "d": 750,
      "v": 90
    },
    {
      "midi": 69,
      "hit": false,
      "t": 84375,
      "d": 375,
      "v": 90
    },
    {
      "midi": 70,
      "hit": false,
      "t": 84375,
      "d": 375,
      "v": 90
    },
    {
      "midi": 70,
      "hit": false,
      "t": 84750,
      "d": 375,
      "v": 90
    },
    {
      "midi": 52,
      "hit": false,
      "t": 84750,
      "d": 750,
      "v": 90
    },
    {
      "midi": 55,
      "hit": false,
      "t": 84750,
      "d": 750,
      "v": 90
    },
    {
      "midi": 79,
      "hit": false,
      "t": 85125,
      "d": 375,
      "v": 90
    },
    {
      "midi": 70,
      "hit": false,
      "t": 85500,
      "d": 375,
      "v": 90
    },
    {
      "midi": 53,
      "hit": false,
      "t": 85500,
      "d": 750,
      "v": 90
    },
    {
      "midi": 57,
      "hit": false,
      "t": 85500,
      "d": 750,
      "v": 90
    },
    {
      "midi": 72,
      "hit": false,
      "t": 85875,
      "d": 375,
      "v": 90
    },
    {
      "midi": 81,
      "hit": false,
      "t": 86250,
      "d": 750,
      "v": 90
    },
    {
      "midi": 36,
      "hit": false,
      "t": 86250,
      "d": 750,
      "v": 90
    },
    {
      "midi": 79,
      "hit": false,
      "t": 87000,
      "d": 375,
      "v": 90
    },
    {
      "midi": 36,
      "hit": false,
      "t": 87000,
      "d": 750,
      "v": 90
    },
    {
      "midi": 77,
      "hit": false,
      "t": 87375,
      "d": 375,
      "v": 90
    },
    {
      "midi": 79,
      "hit": false,
      "t": 87375,
      "d": 375,
      "v": 90
    },
    {
      "midi": 79,
      "hit": false,
      "t": 87750,
      "d": 375,
      "v": 90
    },
    {
      "midi": 81,
      "hit": false,
      "t": 87750,
      "d": 375,
      "v": 90
    },
    {
      "midi": 50,
      "hit": false,
      "t": 87750,
      "d": 750,
      "v": 90
    },
    {
      "midi": 53,
      "hit": false,
      "t": 87750,
      "d": 750,
      "v": 90
    },
    {
      "midi": 76,
      "hit": false,
      "t": 88125,
      "d": 375,
      "v": 90
    },
    {
      "midi": 77,
      "hit": false,
      "t": 88125,
      "d": 375,
      "v": 90
    },
    {
      "midi": 72,
      "hit": false,
      "t": 88500,
      "d": 375,
      "v": 90
    },
    {
      "midi": 74,
      "hit": false,
      "t": 88500,
      "d": 375,
      "v": 90
    },
    {
      "midi": 52,
      "hit": false,
      "t": 88500,
      "d": 750,
      "v": 90
    },
    {
      "midi": 55,
      "hit": false,
      "t": 88500,
      "d": 750,
      "v": 90
    },
    {
      "midi": 69,
      "hit": false,
      "t": 88875,
      "d": 375,
      "v": 90
    },
    {
      "midi": 70,
      "hit": false,
      "t": 88875,
      "d": 375,
      "v": 90
    },
    {
      "midi": 65,
      "hit": false,
      "t": 89250,
      "d": 375,
      "v": 90
    },
    {
      "midi": 67,
      "hit": false,
      "t": 89250,
      "d": 375,
      "v": 90
    },
    {
      "midi": 53,
      "hit": false,
      "t": 89250,
      "d": 750,
      "v": 90
    },
    {
      "midi": 57,
      "hit": false,
      "t": 89250,
      "d": 750,
      "v": 90
    },
    {
      "midi": 64,
      "hit": false,
      "t": 89625,
      "d": 375,
      "v": 90
    },
    {
      "midi": 65,
      "hit": false,
      "t": 89625,
      "d": 375,
      "v": 90
    },
    {
      "midi": 65,
      "hit": false,
      "t": 90000,
      "d": 375,
      "v": 90
    },
    {
      "midi": 55,
      "hit": false,
      "t": 90000,
      "d": 750,
      "v": 90
    },
    {
      "midi": 58,
      "hit": false,
      "t": 90000,
      "d": 750,
      "v": 90
    },
    {
      "midi": 64,
      "hit": false,
      "t": 90375,
      "d": 375,
      "v": 90
    },
    {
      "midi": 67,
      "hit": false,
      "t": 90750,
      "d": 375,
      "v": 90
    },
    {
      "midi": 36,
      "hit": false,
      "t": 90750,
      "d": 750,
      "v": 90
    },
    {
      "midi": 64,
      "hit": false,
      "t": 91125,
      "d": 375,
      "v": 90
    },
    {
      "midi": 65,
      "hit": false,
      "t": 91125,
      "d": 375,
      "v": 90
    },
    {
      "midi": 70,
      "hit": false,
      "t": 91500,
      "d": 375,
      "v": 90
    },
    {
      "midi": 72,
      "hit": false,
      "t": 91500,
      "d": 375,
      "v": 90
    },
    {
      "midi": 36,
      "hit": false,
      "t": 91500,
      "d": 750,
      "v": 90
    },
    {
      "midi": 69,
      "hit": false,
      "t": 91875,
      "d": 375,
      "v": 90
    },
    {
      "midi": 70,
      "hit": false,
      "t": 91875,
      "d": 375,
      "v": 90
    },
    {
      "midi": 70,
      "hit": false,
      "t": 92250,
      "d": 375,
      "v": 90
    },
    {
      "midi": 52,
      "hit": false,
      "t": 92250,
      "d": 750,
      "v": 90
    },
    {
      "midi": 55,
      "hit": false,
      "t": 92250,
      "d": 750,
      "v": 90
    },
    {
      "midi": 72,
      "hit": false,
      "t": 92625,
      "d": 750,
      "v": 90
    },
    {
      "midi": 53,
      "hit": false,
      "t": 93000,
      "d": 750,
      "v": 90
    },
    {
      "midi": 57,
      "hit": false,
      "t": 93000,
      "d": 750,
      "v": 90
    },
    {
      "midi": 74,
      "hit": false,
      "t": 93375,
      "d": 750,
      "v": 90
    },
    {
      "midi": 55,
      "hit": false,
      "t": 93750,
      "d": 750,
      "v": 90
    },
    {
      "midi": 58,
      "hit": false,
      "t": 93750,
      "d": 750,
      "v": 90
    },
    {
      "midi": 76,
      "hit": false,
      "t": 94125,
      "d": 375,
      "v": 90
    },
    {
      "midi": 79,
      "hit": false,
      "t": 94500,
      "d": 375,
      "v": 90
    },
    {
      "midi": 57,
      "hit": false,
      "t": 94500,
      "d": 750,
      "v": 90
    },
    {
      "midi": 60,
      "hit": false,
      "t": 94500,
      "d": 750,
      "v": 90
    },
    {
      "midi": 76,
      "hit": false,
      "t": 94875,
      "d": 375,
      "v": 90
    },
    {
      "midi": 77,
      "hit": false,
      "t": 94875,
      "d": 375,
      "v": 90
    },
    {
      "midi": 72,
      "hit": false,
      "t": 95250,
      "d": 375,
      "v": 90
    },
    {
      "midi": 77,
      "hit": false,
      "t": 95250,
      "d": 375,
      "v": 90
    },
    {
      "midi": 36,
      "hit": false,
      "t": 95250,
      "d": 750,
      "v": 90
    },
    {
      "midi": 74,
      "hit": false,
      "t": 95625,
      "d": 375,
      "v": 90
    },
    {
      "midi": 76,
      "hit": false,
      "t": 95625,
      "d": 375,
      "v": 90
    },
    {
      "midi": 76,
      "hit": false,
      "t": 96000,
      "d": 375,
      "v": 90
    },
    {
      "midi": 77,
      "hit": false,
      "t": 96000,
      "d": 375,
      "v": 90
    },
    {
      "midi": 36,
      "hit": false,
      "t": 96000,
      "d": 750,
      "v": 90
    },
    {
      "midi": 77,
      "hit": false,
      "t": 96375,
      "d": 375,
      "v": 90
    },
    {
      "midi": 79,
      "hit": false,
      "t": 96375,
      "d": 375,
      "v": 90
    },
    {
      "midi": 77,
      "hit": false,
      "t": 96750,
      "d": 375,
      "v": 90
    },
    {
      "midi": 79,
      "hit": false,
      "t": 96750,
      "d": 375,
      "v": 90
    },
    {
      "midi": 57,
      "hit": false,
      "t": 96750,
      "d": 750,
      "v": 90
    },
    {
      "midi": 60,
      "hit": false,
      "t": 96750,
      "d": 750,
      "v": 90
    },
    {
      "midi": 79,
      "hit": false,
      "t": 97125,
      "d": 375,
      "v": 90
    },
    {
      "midi": 81,
      "hit": false,
      "t": 97125,
      "d": 375,
      "v": 90
    },
    {
      "midi": 81,
      "hit": false,
      "t": 97500,
      "d": 375,
      "v": 90
    },
    {
      "midi": 82,
      "hit": false,
      "t": 97500,
      "d": 375,
      "v": 90
    },
    {
      "midi": 55,
      "hit": false,
      "t": 97500,
      "d": 750,
      "v": 90
    },
    {
      "midi": 58,
      "hit": false,
      "t": 97500,
      "d": 750,
      "v": 90
    },
    {
      "midi": 81,
      "hit": false,
      "t": 97875,
      "d": 375,
      "v": 90
    },
    {
      "midi": 82,
      "hit": false,
      "t": 97875,
      "d": 375,
      "v": 90
    },
    {
      "midi": 81,
      "hit": false,
      "t": 98250,
      "d": 375,
      "v": 90
    },
    {
      "midi": 84,
      "hit": false,
      "t": 98250,
      "d": 375,
      "v": 90
    },
    {
      "midi": 53,
      "hit": false,
      "t": 98250,
      "d": 750,
      "v": 90
    },
    {
      "midi": 57,
      "hit": false,
      "t": 98250,
      "d": 750,
      "v": 90
    },
    {
      "midi": 82,
      "hit": false,
      "t": 98625,
      "d": 375,
      "v": 90
    },
    {
      "midi": 84,
      "hit": false,
      "t": 98625,
      "d": 375,
      "v": 90
    },
    {
      "midi": 84,
      "hit": false,
      "t": 99000,
      "d": 375,
      "v": 90
    },
    {
      "midi": 55,
      "hit": false,
      "t": 99000,
      "d": 750,
      "v": 90
    },
    {
      "midi": 58,
      "hit": false,
      "t": 99000,
      "d": 750,
      "v": 90
    },
    {
      "midi": 77,
      "hit": false,
      "t": 99375,
      "d": 750,
      "v": 90
    },
    {
      "midi": 36,
      "hit": false,
      "t": 99750,
      "d": 750,
      "v": 90
    },
    {
      "midi": 76,
      "hit": false,
      "t": 100125,
      "d": 375,
      "v": 90
    },
    {
      "midi": 74,
      "hit": false,
      "t": 100500,
      "d": 375,
      "v": 90
    },
    {
      "midi": 36,
      "hit": false,
      "t": 100500,
      "d": 750,
      "v": 90
    },
    {
      "midi": 76,
      "hit": false,
      "t": 100875,
      "d": 375,
      "v": 90
    },
    {
      "midi": 77,
      "hit": false,
      "t": 100875,
      "d": 375,
      "v": 90
    },
    {
      "midi": 76,
      "hit": false,
      "t": 101250,
      "d": 375,
      "v": 90
    },
    {
      "midi": 79,
      "hit": false,
      "t": 101250,
      "d": 375,
      "v": 90
    },
    {
      "midi": 55,
      "hit": false,
      "t": 101250,
      "d": 750,
      "v": 90
    },
    {
      "midi": 58,
      "hit": false,
      "t": 101250,
      "d": 750,
      "v": 90
    },
    {
      "midi": 76,
      "hit": false,
      "t": 101625,
      "d": 375,
      "v": 90
    },
    {
      "midi": 77,
      "hit": false,
      "t": 101625,
      "d": 375,
      "v": 90
    },
    {
      "midi": 72,
      "hit": false,
      "t": 102000,
      "d": 375,
      "v": 90
    },
    {
      "midi": 74,
      "hit": false,
      "t": 102000,
      "d": 375,
      "v": 90
    },
    {
      "midi": 53,
      "hit": false,
      "t": 102000,
      "d": 750,
      "v": 90
    },
    {
      "midi": 57,
      "hit": false,
      "t": 102000,
      "d": 750,
      "v": 90
    },
    {
      "midi": 69,
      "hit": false,
      "t": 102375,
      "d": 375,
      "v": 90
    },
    {
      "midi": 70,
      "hit": false,
      "t": 102375,
      "d": 375,
      "v": 90
    },
    {
      "midi": 70,
      "hit": false,
      "t": 102750,
      "d": 375,
      "v": 90
    },
    {
      "midi": 52,
      "hit": false,
      "t": 102750,
      "d": 750,
      "v": 90
    },
    {
      "midi": 55,
      "hit": false,
      "t": 102750,
      "d": 750,
      "v": 90
    },
    {
      "midi": 79,
      "hit": false,
      "t": 103125,
      "d": 375,
      "v": 90
    },
    {
      "midi": 77,
      "hit": false,
      "t": 103500,
      "d": 375,
      "v": 90
    },
    {
      "midi": 79,
      "hit": false,
      "t": 103500,
      "d": 375,
      "v": 90
    },
    {
      "midi": 53,
      "hit": false,
      "t": 103500,
      "d": 750,
      "v": 90
    },
    {
      "midi": 57,
      "hit": false,
      "t": 103500,
      "d": 750,
      "v": 90
    },
    {
      "midi": 76,
      "hit": false,
      "t": 103875,
      "d": 375,
      "v": 90
    },
    {
      "midi": 79,
      "hit": false,
      "t": 103875,
      "d": 375,
      "v": 90
    },
    {
      "midi": 76,
      "hit": false,
      "t": 104250,
      "d": 375,
      "v": 90
    },
    {
      "midi": 77,
      "hit": false,
      "t": 104250,
      "d": 375,
      "v": 90
    },
    {
      "midi": 36,
      "hit": false,
      "t": 104250,
      "d": 750,
      "v": 90
    },
    {
      "midi": 74,
      "hit": false,
      "t": 104625,
      "d": 375,
      "v": 90
    },
    {
      "midi": 77,
      "hit": false,
      "t": 104625,
      "d": 375,
      "v": 90
    },
    {
      "midi": 74,
      "hit": false,
      "t": 105000,
      "d": 375,
      "v": 90
    },
    {
      "midi": 76,
      "hit": false,
      "t": 105000,
      "d": 375,
      "v": 90
    },
    {
      "midi": 36,
      "hit": false,
      "t": 105000,
      "d": 750,
      "v": 90
    },
    {
      "midi": 72,
      "hit": false,
      "t": 105375,
      "d": 375,
      "v": 90
    },
    {
      "midi": 76,
      "hit": false,
      "t": 105375,
      "d": 375,
      "v": 90
    },
    {
      "midi": 72,
      "hit": false,
      "t": 105750,
      "d": 375,
      "v": 90
    },
    {
      "midi": 74,
      "hit": false,
      "t": 105750,
      "d": 375,
      "v": 90
    },
    {
      "midi": 53,
      "hit": false,
      "t": 105750,
      "d": 750,
      "v": 90
    },
    {
      "midi": 57,
      "hit": false,
      "t": 105750,
      "d": 750,
      "v": 90
    },
    {
      "midi": 70,
      "hit": false,
      "t": 106125,
      "d": 375,
      "v": 90
    },
    {
      "midi": 74,
      "hit": false,
      "t": 106125,
      "d": 375,
      "v": 90
    },
    {
      "midi": 70,
      "hit": false,
      "t": 106500,
      "d": 375,
      "v": 90
    },
    {
      "midi": 72,
      "hit": false,
      "t": 106500,
      "d": 375,
      "v": 90
    },
    {
      "midi": 52,
      "hit": false,
      "t": 106500,
      "d": 750,
      "v": 90
    },
    {
      "midi": 55,
      "hit": false,
      "t": 106500,
      "d": 750,
      "v": 90
    },
    {
      "midi": 69,
      "hit": false,
      "t": 106875,
      "d": 375,
      "v": 90
    },
    {
      "midi": 72,
      "hit": false,
      "t": 106875,
      "d": 375,
      "v": 90
    },
    {
      "midi": 69,
      "hit": false,
      "t": 107250,
      "d": 375,
      "v": 90
    },
    {
      "midi": 70,
      "hit": false,
      "t": 107250,
      "d": 375,
      "v": 90
    },
    {
      "midi": 50,
      "hit": false,
      "t": 107250,
      "d": 750,
      "v": 90
    },
    {
      "midi": 53,
      "hit": false,
      "t": 107250,
      "d": 750,
      "v": 90
    },
    {
      "midi": 67,
      "hit": false,
      "t": 107625,
      "d": 375,
      "v": 90
    },
    {
      "midi": 70,
      "hit": false,
      "t": 107625,
      "d": 375,
      "v": 90
    },
    {
      "midi": 70,
      "hit": false,
      "t": 108000,
      "d": 375,
      "v": 90
    },
    {
      "midi": 52,
      "hit": false,
      "t": 108000,
      "d": 750,
      "v": 90
    },
    {
      "midi": 55,
      "hit": false,
      "t": 108000,
      "d": 750,
      "v": 90
    },
    {
      "midi": 60,
      "hit": false,
      "t": 108375,
      "d": 750,
      "v": 90
    },
    {
      "midi": 36,
      "hit": false,
      "t": 108750,
      "d": 750,
      "v": 90
    },
    {
      "midi": 64,
      "hit": false,
      "t": 109125,
      "d": 375,
      "v": 90
    },
    {
      "midi": 67,
      "hit": false,
      "t": 109500,
      "d": 375,
      "v": 90
    },
    {
      "midi": 36,
      "hit": false,
      "t": 109500,
      "d": 750,
      "v": 90
    },
    {
      "midi": 70,
      "hit": false,
      "t": 109875,
      "d": 375,
      "v": 90
    },
    {
      "midi": 74,
      "hit": false,
      "t": 110250,
      "d": 375,
      "v": 90
    },
    {
      "midi": 52,
      "hit": false,
      "t": 110250,
      "d": 750,
      "v": 90
    },
    {
      "midi": 55,
      "hit": false,
      "t": 110250,
      "d": 750,
      "v": 90
    },
    {
      "midi": 72,
      "hit": false,
      "t": 110625,
      "d": 375,
      "v": 90
    },
    {
      "midi": 70,
      "hit": false,
      "t": 111000,
      "d": 375,
      "v": 90
    },
    {
      "midi": 53,
      "hit": false,
      "t": 111000,
      "d": 750,
      "v": 90
    },
    {
      "midi": 57,
      "hit": false,
      "t": 111000,
      "d": 750,
      "v": 90
    },
    {
      "midi": 67,
      "hit": false,
      "t": 111375,
      "d": 375,
      "v": 90
    },
    {
      "midi": 69,
      "hit": false,
      "t": 111375,
      "d": 375,
      "v": 90
    },
    {
      "midi": 69,
      "hit": false,
      "t": 111750,
      "d": 375,
      "v": 90
    },
    {
      "midi": 48,
      "hit": false,
      "t": 111750,
      "d": 750,
      "v": 90
    },
    {
      "midi": 52,
      "hit": false,
      "t": 111750,
      "d": 750,
      "v": 90
    },
    {
      "midi": 72,
      "hit": false,
      "t": 112125,
      "d": 375,
      "v": 90
    },
    {
      "midi": 67,
      "hit": false,
      "t": 112500,
      "d": 375,
      "v": 90
    },
    {
      "midi": 53,
      "hit": false,
      "t": 112500,
      "d": 750,
      "v": 90
    },
    {
      "midi": 64,
      "hit": false,
      "t": 112875,
      "d": 375,
      "v": 90
    },
    {
      "midi": 65,
      "hit": false,
      "t": 112875,
      "d": 375,
      "v": 90
    },
    {
      "midi": 65,
      "hit": false,
      "t": 113250,
      "d": 375,
      "v": 90
    },
    {
      "midi": 46,
      "hit": false,
      "t": 113250,
      "d": 750,
      "v": 90
    },
    {
      "midi": 74,
      "hit": false,
      "t": 113625,
      "d": 375,
      "v": 90
    },
    {
      "midi": 69,
      "hit": false,
      "t": 114000,
      "d": 375,
      "v": 90
    },
    {
      "midi": 70,
      "hit": false,
      "t": 114000,
      "d": 375,
      "v": 90
    },
    {
      "midi": 48,
      "hit": false,
      "t": 114000,
      "d": 750,
      "v": 90
    },
    {
      "midi": 67,
      "hit": false,
      "t": 114375,
      "d": 375,
      "v": 90
    },
    {
      "midi": 69,
      "hit": false,
      "t": 114375,
      "d": 375,
      "v": 90
    },
    {
      "midi": 67,
      "hit": false,
      "t": 114750,
      "d": 375,
      "v": 90
    },
    {
      "midi": 69,
      "hit": false,
      "t": 114750,
      "d": 375,
      "v": 90
    },
    {
      "midi": 52,
      "hit": false,
      "t": 114750,
      "d": 375,
      "v": 90
    },
    {
      "midi": 65,
      "hit": false,
      "t": 115125,
      "d": 375,
      "v": 90
    },
    {
      "midi": 67,
      "hit": false,
      "t": 115125,
      "d": 375,
      "v": 90
    },
    {
      "midi": 50,
      "hit": false,
      "t": 115125,
      "d": 375,
      "v": 90
    },
    {
      "midi": 67,
      "hit": false,
      "t": 115500,
      "d": 1125,
      "v": 90
    },
    {
      "midi": 52,
      "hit": false,
      "t": 115500,
      "d": 750,
      "v": 90
    },
    {
      "midi": 58,
      "hit": false,
      "t": 116250,
      "d": 750,
      "v": 90
    },
    {
      "midi": 62,
      "hit": false,
      "t": 116625,
      "d": 375,
      "v": 90
    },
    {
      "midi": 67,
      "hit": false,
      "t": 116625,
      "d": 375,
      "v": 90
    },
    {
      "midi": 65,
      "hit": false,
      "t": 117000,
      "d": 1500,
      "v": 90
    },
    {
      "midi": 53,
      "hit": false,
      "t": 117000,
      "d": 750,
      "v": 90
    },
    {
      "midi": 57,
      "hit": false,
      "t": 117000,
      "d": 750,
      "v": 90
    },
    {
      "midi": 41,
      "hit": false,
      "t": 117750,
      "d": 750,
      "v": 90
    },
    {
      "midi": 41,
      "hit": false,
      "t": 118500,
      "d": 750,
      "v": 90
    },
    {
      "midi": 55,
      "hit": false,
      "t": 119250,
      "d": 750,
      "v": 90
    },
    {
      "midi": 57,
      "hit": false,
      "t": 119250,
      "d": 750,
      "v": 90
    },
    {
      "midi": 53,
      "hit": false,
      "t": 120000,
      "d": 750,
      "v": 90
    },
    {
      "midi": 59,
      "hit": false,
      "t": 120000,
      "d": 750,
      "v": 90
    },
    {
      "midi": 52,
      "hit": false,
      "t": 120750,
      "d": 750,
      "v": 90
    },
    {
      "midi": 61,
      "hit": false,
      "t": 120750,
      "d": 750,
      "v": 90
    },
    {
      "midi": 50,
      "hit": false,
      "t": 121500,
      "d": 750,
      "v": 90
    },
    {
      "midi": 62,
      "hit": false,
      "t": 121500,
      "d": 750,
      "v": 90
    },
    {
      "midi": 38,
      "hit": false,
      "t": 122250,
      "d": 750,
      "v": 90
    },
    {
      "midi": 77,
      "hit": false,
      "t": 123000,
      "d": 3000,
      "v": 90
    },
    {
      "midi": 38,
      "hit": false,
      "t": 123000,
      "d": 750,
      "v": 90
    },
    {
      "midi": 62,
      "hit": false,
      "t": 123750,
      "d": 750,
      "v": 90
    },
    {
      "midi": 65,
      "hit": false,
      "t": 123750,
      "d": 750,
      "v": 90
    },
    {
      "midi": 64,
      "hit": false,
      "t": 124500,
      "d": 750,
      "v": 90
    },
    {
      "midi": 67,
      "hit": false,
      "t": 124500,
      "d": 750,
      "v": 90
    },
    {
      "midi": 65,
      "hit": false,
      "t": 125250,
      "d": 750,
      "v": 90
    },
    {
      "midi": 69,
      "hit": false,
      "t": 125250,
      "d": 750,
      "v": 90
    },
    {
      "midi": 67,
      "hit": false,
      "t": 126000,
      "d": 750,
      "v": 90
    },
    {
      "midi": 70,
      "hit": false,
      "t": 126000,
      "d": 750,
      "v": 90
    },
    {
      "midi": 74,
      "hit": false,
      "t": 126375,
      "d": 375,
      "v": 90
    },
    {
      "midi": 76,
      "hit": false,
      "t": 126375,
      "d": 375,
      "v": 90
    },
    {
      "midi": 73,
      "hit": false,
      "t": 126750,
      "d": 375,
      "v": 90
    },
    {
      "midi": 50,
      "hit": false,
      "t": 126750,
      "d": 750,
      "v": 90
    },
    {
      "midi": 74,
      "hit": false,
      "t": 127125,
      "d": 375,
      "v": 90
    },
    {
      "midi": 67,
      "hit": false,
      "t": 127500,
      "d": 375,
      "v": 90
    },
    {
      "midi": 69,
      "hit": false,
      "t": 127500,
      "d": 375,
      "v": 90
    },
    {
      "midi": 50,
      "hit": false,
      "t": 127500,
      "d": 750,
      "v": 90
    },
    {
      "midi": 70,
      "hit": false,
      "t": 127875,
      "d": 750,
      "v": 90
    },
    {
      "midi": 65,
      "hit": false,
      "t": 128250,
      "d": 750,
      "v": 90
    },
    {
      "midi": 69,
      "hit": false,
      "t": 128250,
      "d": 750,
      "v": 90
    },
    {
      "midi": 70,
      "hit": false,
      "t": 128625,
      "d": 375,
      "v": 90
    },
    {
      "midi": 72,
      "hit": false,
      "t": 129000,
      "d": 375,
      "v": 90
    },
    {
      "midi": 64,
      "hit": false,
      "t": 129000,
      "d": 750,
      "v": 90
    },
    {
      "midi": 67,
      "hit": false,
      "t": 129000,
      "d": 750,
      "v": 90
    },
    {
      "midi": 69,
      "hit": false,
      "t": 129375,
      "d": 375,
      "v": 90
    },
    {
      "midi": 70,
      "hit": false,
      "t": 129375,
      "d": 375,
      "v": 90
    },
    {
      "midi": 70,
      "hit": false,
      "t": 129750,
      "d": 375,
      "v": 90
    },
    {
      "midi": 72,
      "hit": false,
      "t": 129750,
      "d": 375,
      "v": 90
    },
    {
      "midi": 62,
      "hit": false,
      "t": 129750,
      "d": 750,
      "v": 90
    },
    {
      "midi": 65,
      "hit": false,
      "t": 129750,
      "d": 750,
      "v": 90
    },
    {
      "midi": 69,
      "hit": false,
      "t": 130125,
      "d": 375,
      "v": 90
    },
    {
      "midi": 70,
      "hit": false,
      "t": 130125,
      "d": 375,
      "v": 90
    },
    {
      "midi": 70,
      "hit": false,
      "t": 130500,
      "d": 375,
      "v": 90
    },
    {
      "midi": 61,
      "hit": false,
      "t": 130500,
      "d": 750,
      "v": 90
    },
    {
      "midi": 64,
      "hit": false,
      "t": 130500,
      "d": 750,
      "v": 90
    },
    {
      "midi": 79,
      "hit": false,
      "t": 130875,
      "d": 750,
      "v": 90
    },
    {
      "midi": 50,
      "hit": false,
      "t": 131250,
      "d": 750,
      "v": 90
    },
    {
      "midi": 73,
      "hit": false,
      "t": 131625,
      "d": 750,
      "v": 90
    },
    {
      "midi": 50,
      "hit": false,
      "t": 132000,
      "d": 750,
      "v": 90
    },
    {
      "midi": 76,
      "hit": false,
      "t": 132375,
      "d": 750,
      "v": 90
    },
    {
      "midi": 64,
      "hit": false,
      "t": 132750,
      "d": 750,
      "v": 90
    },
    {
      "midi": 67,
      "hit": false,
      "t": 132750,
      "d": 750,
      "v": 90
    },
    {
      "midi": 79,
      "hit": false,
      "t": 133125,
      "d": 750,
      "v": 90
    },
    {
      "midi": 62,
      "hit": false,
      "t": 133500,
      "d": 750,
      "v": 90
    },
    {
      "midi": 65,
      "hit": false,
      "t": 133500,
      "d": 750,
      "v": 90
    },
    {
      "midi": 82,
      "hit": false,
      "t": 133875,
      "d": 750,
      "v": 90
    },
    {
      "midi": 60,
      "hit": false,
      "t": 134250,
      "d": 750,
      "v": 90
    },
    {
      "midi": 64,
      "hit": false,
      "t": 134250,
      "d": 750,
      "v": 90
    },
    {
      "midi": 81,
      "hit": false,
      "t": 134625,
      "d": 375,
      "v": 90
    },
    {
      "midi": 79,
      "hit": false,
      "t": 135000,
      "d": 375,
      "v": 90
    },
    {
      "midi": 62,
      "hit": false,
      "t": 135000,
      "d": 750,
      "v": 90
    },
    {
      "midi": 65,
      "hit": false,
      "t": 135000,
      "d": 750,
      "v": 90
    },
    {
      "midi": 76,
      "hit": false,
      "t": 135375,
      "d": 375,
      "v": 90
    },
    {
      "midi": 77,
      "hit": false,
      "t": 135375,
      "d": 375,
      "v": 90
    },
    {
      "midi": 77,
      "hit": false,
      "t": 135750,
      "d": 375,
      "v": 90
    },
    {
      "midi": 50,
      "hit": false,
      "t": 135750,
      "d": 750,
      "v": 90
    },
    {
      "midi": 74,
      "hit": false,
      "t": 136125,
      "d": 375,
      "v": 90
    },
    {
      "midi": 73,
      "hit": false,
      "t": 136500,
      "d": 375,
      "v": 90
    },
    {
      "midi": 50,
      "hit": false,
      "t": 136500,
      "d": 750,
      "v": 90
    },
    {
      "midi": 74,
      "hit": false,
      "t": 136875,
      "d": 375,
      "v": 90
    },
    {
      "midi": 76,
      "hit": false,
      "t": 136875,
      "d": 375,
      "v": 90
    },
    {
      "midi": 73,
      "hit": false,
      "t": 137250,
      "d": 375,
      "v": 90
    },
    {
      "midi": 74,
      "hit": false,
      "t": 137250,
      "d": 375,
      "v": 90
    },
    {
      "midi": 62,
      "hit": false,
      "t": 137250,
      "d": 750,
      "v": 90
    },
    {
      "midi": 65,
      "hit": false,
      "t": 137250,
      "d": 750,
      "v": 90
    },
    {
      "midi": 69,
      "hit": false,
      "t": 137625,
      "d": 562.5,
      "v": 90
    },
    {
      "midi": 71,
      "hit": false,
      "t": 137625,
      "d": 562.5,
      "v": 90
    },
    {
      "midi": 64,
      "hit": false,
      "t": 138000,
      "d": 750,
      "v": 90
    },
    {
      "midi": 67,
      "hit": false,
      "t": 138000,
      "d": 750,
      "v": 90
    },
    {
      "midi": 74,
      "hit": false,
      "t": 138375,
      "d": 750,
      "v": 90
    },
    {
      "midi": 65,
      "hit": false,
      "t": 138750,
      "d": 750,
      "v": 90
    },
    {
      "midi": 69,
      "hit": false,
      "t": 138750,
      "d": 750,
      "v": 90
    },
    {
      "midi": 77,
      "hit": false,
      "t": 139125,
      "d": 375,
      "v": 90
    },
    {
      "midi": 79,
      "hit": false,
      "t": 139500,
      "d": 375,
      "v": 90
    },
    {
      "midi": 67,
      "hit": false,
      "t": 139500,
      "d": 750,
      "v": 90
    },
    {
      "midi": 70,
      "hit": false,
      "t": 139500,
      "d": 750,
      "v": 90
    },
    {
      "midi": 76,
      "hit": false,
      "t": 139875,
      "d": 375,
      "v": 90
    },
    {
      "midi": 77,
      "hit": false,
      "t": 139875,
      "d": 375,
      "v": 90
    },
    {
      "midi": 77,
      "hit": false,
      "t": 140250,
      "d": 375,
      "v": 90
    },
    {
      "midi": 43,
      "hit": false,
      "t": 140250,
      "d": 750,
      "v": 90
    },
    {
      "midi": 82,
      "hit": false,
      "t": 140625,
      "d": 750,
      "v": 90
    },
    {
      "midi": 43,
      "hit": false,
      "t": 141000,
      "d": 750,
      "v": 90
    },
    {
      "midi": 81,
      "hit": false,
      "t": 141375,
      "d": 750,
      "v": 90
    },
    {
      "midi": 55,
      "hit": false,
      "t": 141750,
      "d": 750,
      "v": 90
    },
    {
      "midi": 58,
      "hit": false,
      "t": 141750,
      "d": 750,
      "v": 90
    },
    {
      "midi": 79,
      "hit": false,
      "t": 142125,
      "d": 375,
      "v": 90
    },
    {
      "midi": 79,
      "hit": false,
      "t": 142500,
      "d": 375,
      "v": 90
    },
    {
      "midi": 57,
      "hit": false,
      "t": 142500,
      "d": 750,
      "v": 90
    },
    {
      "midi": 60,
      "hit": false,
      "t": 142500,
      "d": 750,
      "v": 90
    },
    {
      "midi": 76,
      "hit": false,
      "t": 142875,
      "d": 375,
      "v": 90
    },
    {
      "midi": 77,
      "hit": false,
      "t": 142875,
      "d": 375,
      "v": 90
    },
    {
      "midi": 72,
      "hit": false,
      "t": 143250,
      "d": 375,
      "v": 90
    },
    {
      "midi": 74,
      "hit": false,
      "t": 143250,
      "d": 375,
      "v": 90
    },
    {
      "midi": 58,
      "hit": false,
      "t": 143250,
      "d": 750,
      "v": 90
    },
    {
      "midi": 62,
      "hit": false,
      "t": 143250,
      "d": 750,
      "v": 90
    },
    {
      "midi": 69,
      "hit": false,
      "t": 143625,
      "d": 375,
      "v": 90
    },
    {
      "midi": 70,
      "hit": false,
      "t": 143625,
      "d": 375,
      "v": 90
    },
    {
      "midi": 67,
      "hit": false,
      "t": 144000,
      "d": 375,
      "v": 90
    },
    {
      "midi": 71,
      "hit": false,
      "t": 144000,
      "d": 375,
      "v": 90
    },
    {
      "midi": 60,
      "hit": false,
      "t": 144000,
      "d": 750,
      "v": 90
    },
    {
      "midi": 64,
      "hit": false,
      "t": 144000,
      "d": 750,
      "v": 90
    },
    {
      "midi": 74,
      "hit": false,
      "t": 144375,
      "d": 562.5,
      "v": 90
    },
    {
      "midi": 77,
      "hit": false,
      "t": 144375,
      "d": 562.5,
      "v": 90
    },
    {
      "midi": 48,
      "hit": false,
      "t": 144750,
      "d": 750,
      "v": 90
    },
    {
      "midi": 76,
      "hit": false,
      "t": 145125,
      "d": 375,
      "v": 90
    },
    {
      "midi": 74,
      "hit": false,
      "t": 145500,
      "d": 375,
      "v": 90
    },
    {
      "midi": 48,
      "hit": false,
      "t": 145500,
      "d": 750,
      "v": 90
    },
    {
      "midi": 71,
      "hit": false,
      "t": 145875,
      "d": 375,
      "v": 90
    },
    {
      "midi": 72,
      "hit": false,
      "t": 145875,
      "d": 375,
      "v": 90
    },
    {
      "midi": 72,
      "hit": false,
      "t": 146250,
      "d": 375,
      "v": 90
    },
    {
      "midi": 60,
      "hit": false,
      "t": 146250,
      "d": 750,
      "v": 90
    },
    {
      "midi": 64,
      "hit": false,
      "t": 146250,
      "d": 750,
      "v": 90
    },
    {
      "midi": 67,
      "hit": false,
      "t": 146625,
      "d": 750,
      "v": 90
    },
    {
      "midi": 62,
      "hit": false,
      "t": 147000,
      "d": 750,
      "v": 90
    },
    {
      "midi": 65,
      "hit": false,
      "t": 147000,
      "d": 750,
      "v": 90
    },
    {
      "midi": 72,
      "hit": false,
      "t": 147375,
      "d": 750,
      "v": 90
    },
    {
      "midi": 64,
      "hit": false,
      "t": 147750,
      "d": 750,
      "v": 90
    },
    {
      "midi": 67,
      "hit": false,
      "t": 147750,
      "d": 750,
      "v": 90
    },
    {
      "midi": 76,
      "hit": false,
      "t": 148125,
      "d": 375,
      "v": 90
    },
    {
      "midi": 77,
      "hit": false,
      "t": 148500,
      "d": 375,
      "v": 90
    },
    {
      "midi": 65,
      "hit": false,
      "t": 148500,
      "d": 750,
      "v": 90
    },
    {
      "midi": 69,
      "hit": false,
      "t": 148500,
      "d": 750,
      "v": 90
    },
    {
      "midi": 74,
      "hit": false,
      "t": 148875,
      "d": 375,
      "v": 90
    },
    {
      "midi": 75,
      "hit": false,
      "t": 148875,
      "d": 375,
      "v": 90
    },
    {
      "midi": 75,
      "hit": false,
      "t": 149250,
      "d": 375,
      "v": 90
    },
    {
      "midi": 41,
      "hit": false,
      "t": 149250,
      "d": 750,
      "v": 90
    },
    {
      "midi": 84,
      "hit": false,
      "t": 149625,
      "d": 375,
      "v": 90
    },
    {
      "midi": 82,
      "hit": false,
      "t": 150000,
      "d": 375,
      "v": 90
    },
    {
      "midi": 41,
      "hit": false,
      "t": 150000,
      "d": 750,
      "v": 90
    },
    {
      "midi": 81,
      "hit": false,
      "t": 150375,
      "d": 375,
      "v": 90
    },
    {
      "midi": 79,
      "hit": false,
      "t": 150750,
      "d": 375,
      "v": 90
    },
    {
      "midi": 53,
      "hit": false,
      "t": 150750,
      "d": 750,
      "v": 90
    },
    {
      "midi": 57,
      "hit": false,
      "t": 150750,
      "d": 750,
      "v": 90
    },
    {
      "midi": 77,
      "hit": false,
      "t": 151125,
      "d": 375,
      "v": 90
    },
    {
      "midi": 76,
      "hit": false,
      "t": 151500,
      "d": 375,
      "v": 90
    },
    {
      "midi": 55,
      "hit": false,
      "t": 151500,
      "d": 750,
      "v": 90
    },
    {
      "midi": 58,
      "hit": false,
      "t": 151500,
      "d": 750,
      "v": 90
    },
    {
      "midi": 74,
      "hit": false,
      "t": 151875,
      "d": 375,
      "v": 90
    },
    {
      "midi": 76,
      "hit": false,
      "t": 151875,
      "d": 375,
      "v": 90
    },
    {
      "midi": 76,
      "hit": false,
      "t": 152250,
      "d": 375,
      "v": 90
    },
    {
      "midi": 77,
      "hit": false,
      "t": 152250,
      "d": 375,
      "v": 90
    },
    {
      "midi": 57,
      "hit": false,
      "t": 152250,
      "d": 750,
      "v": 90
    },
    {
      "midi": 60,
      "hit": false,
      "t": 152250,
      "d": 750,
      "v": 90
    },
    {
      "midi": 74,
      "hit": false,
      "t": 152625,
      "d": 375,
      "v": 90
    },
    {
      "midi": 76,
      "hit": false,
      "t": 152625,
      "d": 375,
      "v": 90
    },
    {
      "midi": 65,
      "hit": false,
      "t": 153000,
      "d": 375,
      "v": 90
    },
    {
      "midi": 69,
      "hit": false,
      "t": 153000,
      "d": 375,
      "v": 90
    },
    {
      "midi": 58,
      "hit": false,
      "t": 153000,
      "d": 750,
      "v": 90
    },
    {
      "midi": 62,
      "hit": false,
      "t": 153000,
      "d": 750,
      "v": 90
    },
    {
      "midi": 65,
      "hit": false,
      "t": 153375,
      "d": 375,
      "v": 90
    },
    {
      "midi": 67,
      "hit": false,
      "t": 153375,
      "d": 375,
      "v": 90
    },
    {
      "midi": 70,
      "hit": false,
      "t": 153750,
      "d": 375,
      "v": 90
    },
    {
      "midi": 72,
      "hit": false,
      "t": 153750,
      "d": 375,
      "v": 90
    },
    {
      "midi": 46,
      "hit": false,
      "t": 153750,
      "d": 750,
      "v": 90
    },
    {
      "midi": 69,
      "hit": false,
      "t": 154125,
      "d": 375,
      "v": 90
    },
    {
      "midi": 75,
      "hit": false,
      "t": 154125,
      "d": 375,
      "v": 90
    },
    {
      "midi": 73,
      "hit": false,
      "t": 154500,
      "d": 375,
      "v": 90
    },
    {
      "midi": 74,
      "hit": false,
      "t": 154500,
      "d": 375,
      "v": 90
    },
    {
      "midi": 46,
      "hit": false,
      "t": 154500,
      "d": 750,
      "v": 90
    },
    {
      "midi": 74,
      "hit": false,
      "t": 154875,
      "d": 1125,
      "v": 90
    },
    {
      "midi": 57,
      "hit": false,
      "t": 155250,
      "d": 750,
      "v": 90
    },
    {
      "midi": 60,
      "hit": false,
      "t": 155250,
      "d": 750,
      "v": 90
    },
    {
      "midi": 62,
      "hit": false,
      "t": 156000,
      "d": 375,
      "v": 90
    },
    {
      "midi": 55,
      "hit": false,
      "t": 156000,
      "d": 750,
      "v": 90
    },
    {
      "midi": 58,
      "hit": false,
      "t": 156000,
      "d": 750,
      "v": 90
    },
    {
      "midi": 61,
      "hit": false,
      "t": 156375,
      "d": 375,
      "v": 90
    },
    {
      "midi": 62,
      "hit": false,
      "t": 156375,
      "d": 375,
      "v": 90
    },
    {
      "midi": 64,
      "hit": false,
      "t": 156750,
      "d": 375,
      "v": 90
    },
    {
      "midi": 65,
      "hit": false,
      "t": 156750,
      "d": 375,
      "v": 90
    },
    {
      "midi": 53,
      "hit": false,
      "t": 156750,
      "d": 750,
      "v": 90
    },
    {
      "midi": 57,
      "hit": false,
      "t": 156750,
      "d": 750,
      "v": 90
    },
    {
      "midi": 67,
      "hit": false,
      "t": 157125,
      "d": 375,
      "v": 90
    },
    {
      "midi": 69,
      "hit": false,
      "t": 157125,
      "d": 375,
      "v": 90
    },
    {
      "midi": 70,
      "hit": false,
      "t": 157500,
      "d": 375,
      "v": 90
    },
    {
      "midi": 74,
      "hit": false,
      "t": 157500,
      "d": 375,
      "v": 90
    },
    {
      "midi": 52,
      "hit": false,
      "t": 157500,
      "d": 750,
      "v": 90
    },
    {
      "midi": 55,
      "hit": false,
      "t": 157500,
      "d": 750,
      "v": 90
    },
    {
      "midi": 69,
      "hit": false,
      "t": 157875,
      "d": 375,
      "v": 90
    },
    {
      "midi": 70,
      "hit": false,
      "t": 157875,
      "d": 375,
      "v": 90
    },
    {
      "midi": 70,
      "hit": false,
      "t": 158250,
      "d": 375,
      "v": 90
    },
    {
      "midi": 74,
      "hit": false,
      "t": 158250,
      "d": 375,
      "v": 90
    },
    {
      "midi": 40,
      "hit": false,
      "t": 158250,
      "d": 750,
      "v": 90
    },
    {
      "midi": 69,
      "hit": false,
      "t": 158625,
      "d": 375,
      "v": 90
    },
    {
      "midi": 70,
      "hit": false,
      "t": 158625,
      "d": 375,
      "v": 90
    },
    {
      "midi": 66,
      "hit": false,
      "t": 159000,
      "d": 375,
      "v": 90
    },
    {
      "midi": 67,
      "hit": false,
      "t": 159000,
      "d": 375,
      "v": 90
    },
    {
      "midi": 40,
      "hit": false,
      "t": 159000,
      "d": 750,
      "v": 90
    },
    {
      "midi": 67,
      "hit": false,
      "t": 159375,
      "d": 1125,
      "v": 90
    },
    {
      "midi": 50,
      "hit": false,
      "t": 159750,
      "d": 750,
      "v": 90
    },
    {
      "midi": 53,
      "hit": false,
      "t": 159750,
      "d": 750,
      "v": 90
    },
    {
      "midi": 70,
      "hit": false,
      "t": 160500,
      "d": 375,
      "v": 90
    },
    {
      "midi": 49,
      "hit": false,
      "t": 160500,
      "d": 750,
      "v": 90
    },
    {
      "midi": 52,
      "hit": false,
      "t": 160500,
      "d": 750,
      "v": 90
    },
    {
      "midi": 65,
      "hit": false,
      "t": 160875,
      "d": 375,
      "v": 90
    },
    {
      "midi": 67,
      "hit": false,
      "t": 160875,
      "d": 375,
      "v": 90
    },
    {
      "midi": 67,
      "hit": false,
      "t": 161250,
      "d": 375,
      "v": 90
    },
    {
      "midi": 76,
      "hit": false,
      "t": 161250,
      "d": 375,
      "v": 90
    },
    {
      "midi": 47,
      "hit": false,
      "t": 161250,
      "d": 750,
      "v": 90
    },
    {
      "midi": 50,
      "hit": false,
      "t": 161250,
      "d": 750,
      "v": 90
    },
    {
      "midi": 65,
      "hit": false,
      "t": 161625,
      "d": 375,
      "v": 90
    },
    {
      "midi": 67,
      "hit": false,
      "t": 161625,
      "d": 375,
      "v": 90
    },
    {
      "midi": 67,
      "hit": false,
      "t": 162000,
      "d": 375,
      "v": 90
    },
    {
      "midi": 45,
      "hit": false,
      "t": 162000,
      "d": 750,
      "v": 90
    },
    {
      "midi": 49,
      "hit": false,
      "t": 162000,
      "d": 750,
      "v": 90
    },
    {
      "midi": 70,
      "hit": false,
      "t": 162375,
      "d": 375,
      "v": 90
    },
    {
      "midi": 73,
      "hit": false,
      "t": 162750,
      "d": 375,
      "v": 90
    },
    {
      "midi": 33,
      "hit": false,
      "t": 162750,
      "d": 750,
      "v": 90
    },
    {
      "midi": 76,
      "hit": false,
      "t": 163125,
      "d": 375,
      "v": 90
    },
    {
      "midi": 74,
      "hit": false,
      "t": 163500,
      "d": 375,
      "v": 90
    },
    {
      "midi": 33,
      "hit": false,
      "t": 163500,
      "d": 750,
      "v": 90
    },
    {
      "midi": 72,
      "hit": false,
      "t": 163875,
      "d": 375,
      "v": 90
    },
    {
      "midi": 74,
      "hit": false,
      "t": 163875,
      "d": 375,
      "v": 90
    },
    {
      "midi": 74,
      "hit": false,
      "t": 164250,
      "d": 375,
      "v": 90
    },
    {
      "midi": 76,
      "hit": false,
      "t": 164250,
      "d": 375,
      "v": 90
    },
    {
      "midi": 45,
      "hit": false,
      "t": 164250,
      "d": 750,
      "v": 90
    },
    {
      "midi": 49,
      "hit": false,
      "t": 164250,
      "d": 750,
      "v": 90
    },
    {
      "midi": 71,
      "hit": false,
      "t": 164625,
      "d": 375,
      "v": 90
    },
    {
      "midi": 72,
      "hit": false,
      "t": 164625,
      "d": 375,
      "v": 90
    },
    {
      "midi": 69,
      "hit": false,
      "t": 165000,
      "d": 375,
      "v": 90
    },
    {
      "midi": 47,
      "hit": false,
      "t": 165000,
      "d": 750,
      "v": 90
    },
    {
      "midi": 50,
      "hit": false,
      "t": 165000,
      "d": 750,
      "v": 90
    },
    {
      "midi": 65,
      "hit": false,
      "t": 165375,
      "d": 375,
      "v": 90
    },
    {
      "midi": 67,
      "hit": false,
      "t": 165375,
      "d": 375,
      "v": 90
    },
    {
      "midi": 67,
      "hit": false,
      "t": 165750,
      "d": 375,
      "v": 90
    },
    {
      "midi": 49,
      "hit": false,
      "t": 165750,
      "d": 750,
      "v": 90
    },
    {
      "midi": 52,
      "hit": false,
      "t": 165750,
      "d": 750,
      "v": 90
    },
    {
      "midi": 76,
      "hit": false,
      "t": 166125,
      "d": 375,
      "v": 90
    },
    {
      "midi": 67,
      "hit": false,
      "t": 166500,
      "d": 375,
      "v": 90
    },
    {
      "midi": 50,
      "hit": false,
      "t": 166500,
      "d": 750,
      "v": 90
    },
    {
      "midi": 53,
      "hit": false,
      "t": 166500,
      "d": 750,
      "v": 90
    },
    {
      "midi": 65,
      "hit": false,
      "t": 166875,
      "d": 375,
      "v": 90
    },
    {
      "midi": 77,
      "hit": false,
      "t": 167250,
      "d": 750,
      "v": 90
    },
    {
      "midi": 33,
      "hit": false,
      "t": 167250,
      "d": 750,
      "v": 90
    },
    {
      "midi": 76,
      "hit": false,
      "t": 168000,
      "d": 375,
      "v": 90
    },
    {
      "midi": 33,
      "hit": false,
      "t": 168000,
      "d": 750,
      "v": 90
    },
    {
      "midi": 74,
      "hit": false,
      "t": 168375,
      "d": 375,
      "v": 90
    },
    {
      "midi": 76,
      "hit": false,
      "t": 168375,
      "d": 375,
      "v": 90
    },
    {
      "midi": 76,
      "hit": false,
      "t": 168750,
      "d": 375,
      "v": 90
    },
    {
      "midi": 77,
      "hit": false,
      "t": 168750,
      "d": 375,
      "v": 90
    },
    {
      "midi": 47,
      "hit": false,
      "t": 168750,
      "d": 750,
      "v": 90
    },
    {
      "midi": 50,
      "hit": false,
      "t": 168750,
      "d": 750,
      "v": 90
    },
    {
      "midi": 72,
      "hit": false,
      "t": 169125,
      "d": 375,
      "v": 90
    },
    {
      "midi": 74,
      "hit": false,
      "t": 169125,
      "d": 375,
      "v": 90
    },
    {
      "midi": 70,
      "hit": false,
      "t": 169500,
      "d": 375,
      "v": 90
    },
    {
      "midi": 49,
      "hit": false,
      "t": 169500,
      "d": 750,
      "v": 90
    },
    {
      "midi": 52,
      "hit": false,
      "t": 169500,
      "d": 750,
      "v": 90
    },
    {
      "midi": 67,
      "hit": false,
      "t": 169875,
      "d": 375,
      "v": 90
    },
    {
      "midi": 69,
      "hit": false,
      "t": 169875,
      "d": 375,
      "v": 90
    },
    {
      "midi": 69,
      "hit": false,
      "t": 170250,
      "d": 375,
      "v": 90
    },
    {
      "midi": 50,
      "hit": false,
      "t": 170250,
      "d": 750,
      "v": 90
    },
    {
      "midi": 53,
      "hit": false,
      "t": 170250,
      "d": 750,
      "v": 90
    },
    {
      "midi": 77,
      "hit": false,
      "t": 170625,
      "d": 375,
      "v": 90
    },
    {
      "midi": 69,
      "hit": false,
      "t": 171000,
      "d": 375,
      "v": 90
    },
    {
      "midi": 52,
      "hit": false,
      "t": 171000,
      "d": 750,
      "v": 90
    },
    {
      "midi": 55,
      "hit": false,
      "t": 171000,
      "d": 750,
      "v": 90
    },
    {
      "midi": 67,
      "hit": false,
      "t": 171375,
      "d": 375,
      "v": 90
    },
    {
      "midi": 79,
      "hit": false,
      "t": 171750,
      "d": 750,
      "v": 90
    },
    {
      "midi": 33,
      "hit": false,
      "t": 171750,
      "d": 750,
      "v": 90
    },
    {
      "midi": 77,
      "hit": false,
      "t": 172500,
      "d": 375,
      "v": 90
    },
    {
      "midi": 33,
      "hit": false,
      "t": 172500,
      "d": 750,
      "v": 90
    },
    {
      "midi": 76,
      "hit": false,
      "t": 172875,
      "d": 375,
      "v": 90
    },
    {
      "midi": 77,
      "hit": false,
      "t": 172875,
      "d": 375,
      "v": 90
    },
    {
      "midi": 77,
      "hit": false,
      "t": 173250,
      "d": 375,
      "v": 90
    },
    {
      "midi": 79,
      "hit": false,
      "t": 173250,
      "d": 375,
      "v": 90
    },
    {
      "midi": 49,
      "hit": false,
      "t": 173250,
      "d": 750,
      "v": 90
    },
    {
      "midi": 52,
      "hit": false,
      "t": 173250,
      "d": 750,
      "v": 90
    },
    {
      "midi": 74,
      "hit": false,
      "t": 173625,
      "d": 375,
      "v": 90
    },
    {
      "midi": 76,
      "hit": false,
      "t": 173625,
      "d": 375,
      "v": 90
    },
    {
      "midi": 73,
      "hit": false,
      "t": 174000,
      "d": 375,
      "v": 90
    },
    {
      "midi": 50,
      "hit": false,
      "t": 174000,
      "d": 750,
      "v": 90
    },
    {
      "midi": 53,
      "hit": false,
      "t": 174000,
      "d": 750,
      "v": 90
    },
    {
      "midi": 69,
      "hit": false,
      "t": 174375,
      "d": 375,
      "v": 90
    },
    {
      "midi": 70,
      "hit": false,
      "t": 174375,
      "d": 375,
      "v": 90
    },
    {
      "midi": 70,
      "hit": false,
      "t": 174750,
      "d": 375,
      "v": 90
    },
    {
      "midi": 52,
      "hit": false,
      "t": 174750,
      "d": 750,
      "v": 90
    },
    {
      "midi": 55,
      "hit": false,
      "t": 174750,
      "d": 750,
      "v": 90
    },
    {
      "midi": 79,
      "hit": false,
      "t": 175125,
      "d": 375,
      "v": 90
    },
    {
      "midi": 70,
      "hit": false,
      "t": 175500,
      "d": 375,
      "v": 90
    },
    {
      "midi": 53,
      "hit": false,
      "t": 175500,
      "d": 750,
      "v": 90
    },
    {
      "midi": 57,
      "hit": false,
      "t": 175500,
      "d": 750,
      "v": 90
    },
    {
      "midi": 69,
      "hit": false,
      "t": 175875,
      "d": 750,
      "v": 90
    },
    {
      "midi": 33,
      "hit": false,
      "t": 176250,
      "d": 750,
      "v": 90
    },
    {
      "midi": 73,
      "hit": false,
      "t": 176625,
      "d": 750,
      "v": 90
    },
    {
      "midi": 33,
      "hit": false,
      "t": 177000,
      "d": 750,
      "v": 90
    },
    {
      "midi": 74,
      "hit": false,
      "t": 177375,
      "d": 750,
      "v": 90
    },
    {
      "midi": 53,
      "hit": false,
      "t": 177750,
      "d": 750,
      "v": 90
    },
    {
      "midi": 57,
      "hit": false,
      "t": 177750,
      "d": 750,
      "v": 90
    },
    {
      "midi": 76,
      "hit": false,
      "t": 178125,
      "d": 375,
      "v": 90
    },
    {
      "midi": 77,
      "hit": false,
      "t": 178125,
      "d": 375,
      "v": 90
    },
    {
      "midi": 79,
      "hit": false,
      "t": 178500,
      "d": 375,
      "v": 90
    },
    {
      "midi": 81,
      "hit": false,
      "t": 178500,
      "d": 375,
      "v": 90
    },
    {
      "midi": 52,
      "hit": false,
      "t": 178500,
      "d": 750,
      "v": 90
    },
    {
      "midi": 55,
      "hit": false,
      "t": 178500,
      "d": 750,
      "v": 90
    },
    {
      "midi": 81,
      "hit": false,
      "t": 178875,
      "d": 375,
      "v": 90
    },
    {
      "midi": 82,
      "hit": false,
      "t": 178875,
      "d": 375,
      "v": 90
    },
    {
      "midi": 82,
      "hit": false,
      "t": 179250,
      "d": 375,
      "v": 90
    },
    {
      "midi": 50,
      "hit": false,
      "t": 179250,
      "d": 750,
      "v": 90
    },
    {
      "midi": 53,
      "hit": false,
      "t": 179250,
      "d": 750,
      "v": 90
    },
    {
      "midi": 82,
      "hit": false,
      "t": 179625,
      "d": 375,
      "v": 90
    },
    {
      "midi": 82,
      "hit": false,
      "t": 180000,
      "d": 375,
      "v": 90
    },
    {
      "midi": 52,
      "hit": false,
      "t": 180000,
      "d": 750,
      "v": 90
    },
    {
      "midi": 55,
      "hit": false,
      "t": 180000,
      "d": 750,
      "v": 90
    },
    {
      "midi": 73,
      "hit": false,
      "t": 180375,
      "d": 750,
      "v": 90
    },
    {
      "midi": 33,
      "hit": false,
      "t": 180750,
      "d": 750,
      "v": 90
    },
    {
      "midi": 74,
      "hit": false,
      "t": 181125,
      "d": 375,
      "v": 90
    },
    {
      "midi": 76,
      "hit": false,
      "t": 181125,
      "d": 375,
      "v": 90
    },
    {
      "midi": 76,
      "hit": false,
      "t": 181500,
      "d": 375,
      "v": 90
    },
    {
      "midi": 33,
      "hit": false,
      "t": 181500,
      "d": 750,
      "v": 90
    },
    {
      "midi": 67,
      "hit": false,
      "t": 181875,
      "d": 750,
      "v": 90
    },
    {
      "midi": 52,
      "hit": false,
      "t": 182250,
      "d": 750,
      "v": 90
    },
    {
      "midi": 55,
      "hit": false,
      "t": 182250,
      "d": 750,
      "v": 90
    },
    {
      "midi": 69,
      "hit": false,
      "t": 182625,
      "d": 375,
      "v": 90
    },
    {
      "midi": 70,
      "hit": false,
      "t": 182625,
      "d": 375,
      "v": 90
    },
    {
      "midi": 70,
      "hit": false,
      "t": 183000,
      "d": 375,
      "v": 90
    },
    {
      "midi": 76,
      "hit": false,
      "t": 183000,
      "d": 375,
      "v": 90
    },
    {
      "midi": 50,
      "hit": false,
      "t": 183000,
      "d": 750,
      "v": 90
    },
    {
      "midi": 53,
      "hit": false,
      "t": 183000,
      "d": 750,
      "v": 90
    },
    {
      "midi": 77,
      "hit": false,
      "t": 183375,
      "d": 562.5,
      "v": 90
    },
    {
      "midi": 79,
      "hit": false,
      "t": 183375,
      "d": 562.5,
      "v": 90
    },
    {
      "midi": 49,
      "hit": false,
      "t": 183750,
      "d": 750,
      "v": 90
    },
    {
      "midi": 52,
      "hit": false,
      "t": 183750,
      "d": 750,
      "v": 90
    },
    {
      "midi": 70,
      "hit": false,
      "t": 184125,
      "d": 375,
      "v": 90
    },
    {
      "midi": 69,
      "hit": false,
      "t": 184500,
      "d": 375,
      "v": 90
    },
    {
      "midi": 74,
      "hit": false,
      "t": 184500,
      "d": 375,
      "v": 90
    },
    {
      "midi": 50,
      "hit": false,
      "t": 184500,
      "d": 750,
      "v": 90
    },
    {
      "midi": 53,
      "hit": false,
      "t": 184500,
      "d": 750,
      "v": 90
    },
    {
      "midi": 76,
      "hit": false,
      "t": 184875,
      "d": 562.5,
      "v": 90
    },
    {
      "midi": 77,
      "hit": false,
      "t": 184875,
      "d": 562.5,
      "v": 90
    },
    {
      "midi": 33,
      "hit": false,
      "t": 185250,
      "d": 750,
      "v": 90
    },
    {
      "midi": 68,
      "hit": false,
      "t": 185625,
      "d": 375,
      "v": 90
    },
    {
      "midi": 71,
      "hit": false,
      "t": 186000,
      "d": 375,
      "v": 90
    },
    {
      "midi": 33,
      "hit": false,
      "t": 186000,
      "d": 750,
      "v": 90
    },
    {
      "midi": 68,
      "hit": false,
      "t": 186375,
      "d": 375,
      "v": 90
    },
    {
      "midi": 69,
      "hit": false,
      "t": 186375,
      "d": 375,
      "v": 90
    },
    {
      "midi": 69,
      "hit": false,
      "t": 186750,
      "d": 375,
      "v": 90
    },
    {
      "midi": 71,
      "hit": false,
      "t": 186750,
      "d": 375,
      "v": 90
    },
    {
      "midi": 50,
      "hit": false,
      "t": 186750,
      "d": 750,
      "v": 90
    },
    {
      "midi": 53,
      "hit": false,
      "t": 186750,
      "d": 750,
      "v": 90
    },
    {
      "midi": 73,
      "hit": false,
      "t": 187125,
      "d": 375,
      "v": 90
    },
    {
      "midi": 74,
      "hit": false,
      "t": 187125,
      "d": 375,
      "v": 90
    },
    {
      "midi": 70,
      "hit": false,
      "t": 187500,
      "d": 375,
      "v": 90
    },
    {
      "midi": 76,
      "hit": false,
      "t": 187500,
      "d": 375,
      "v": 90
    },
    {
      "midi": 49,
      "hit": false,
      "t": 187500,
      "d": 750,
      "v": 90
    },
    {
      "midi": 52,
      "hit": false,
      "t": 187500,
      "d": 750,
      "v": 90
    },
    {
      "midi": 68,
      "hit": false,
      "t": 187875,
      "d": 375,
      "v": 90
    },
    {
      "midi": 69,
      "hit": false,
      "t": 187875,
      "d": 375,
      "v": 90
    },
    {
      "midi": 67,
      "hit": false,
      "t": 188250,
      "d": 375,
      "v": 90
    },
    {
      "midi": 69,
      "hit": false,
      "t": 188250,
      "d": 375,
      "v": 90
    },
    {
      "midi": 47,
      "hit": false,
      "t": 188250,
      "d": 750,
      "v": 90
    },
    {
      "midi": 50,
      "hit": false,
      "t": 188250,
      "d": 750,
      "v": 90
    },
    {
      "midi": 66,
      "hit": false,
      "t": 188625,
      "d": 375,
      "v": 90
    },
    {
      "midi": 67,
      "hit": false,
      "t": 188625,
      "d": 375,
      "v": 90
    },
    {
      "midi": 67,
      "hit": false,
      "t": 189000,
      "d": 1500,
      "v": 90
    },
    {
      "midi": 49,
      "hit": false,
      "t": 189000,
      "d": 750,
      "v": 90
    },
    {
      "midi": 52,
      "hit": false,
      "t": 189000,
      "d": 750,
      "v": 90
    },
    {
      "midi": 33,
      "hit": false,
      "t": 189750,
      "d": 750,
      "v": 90
    },
    {
      "midi": 69,
      "hit": false,
      "t": 190500,
      "d": 375,
      "v": 90
    },
    {
      "midi": 33,
      "hit": false,
      "t": 190500,
      "d": 750,
      "v": 90
    },
    {
      "midi": 73,
      "hit": false,
      "t": 190875,
      "d": 375,
      "v": 90
    },
    {
      "midi": 76,
      "hit": false,
      "t": 190875,
      "d": 375,
      "v": 90
    },
    {
      "midi": 79,
      "hit": false,
      "t": 191250,
      "d": 375,
      "v": 90
    },
    {
      "midi": 82,
      "hit": false,
      "t": 191250,
      "d": 375,
      "v": 90
    },
    {
      "midi": 49,
      "hit": false,
      "t": 191250,
      "d": 750,
      "v": 90
    },
    {
      "midi": 52,
      "hit": false,
      "t": 191250,
      "d": 750,
      "v": 90
    },
    {
      "midi": 81,
      "hit": false,
      "t": 191625,
      "d": 375,
      "v": 90
    },
    {
      "midi": 79,
      "hit": false,
      "t": 192000,
      "d": 375,
      "v": 90
    },
    {
      "midi": 50,
      "hit": false,
      "t": 192000,
      "d": 750,
      "v": 90
    },
    {
      "midi": 53,
      "hit": false,
      "t": 192000,
      "d": 750,
      "v": 90
    },
    {
      "midi": 76,
      "hit": false,
      "t": 192375,
      "d": 375,
      "v": 90
    },
    {
      "midi": 77,
      "hit": false,
      "t": 192375,
      "d": 375,
      "v": 90
    },
    {
      "midi": 77,
      "hit": false,
      "t": 192750,
      "d": 375,
      "v": 90
    },
    {
      "midi": 45,
      "hit": false,
      "t": 192750,
      "d": 750,
      "v": 90
    },
    {
      "midi": 49,
      "hit": false,
      "t": 192750,
      "d": 750,
      "v": 90
    },
    {
      "midi": 81,
      "hit": false,
      "t": 193125,
      "d": 375,
      "v": 90
    },
    {
      "midi": 76,
      "hit": false,
      "t": 193500,
      "d": 375,
      "v": 90
    },
    {
      "midi": 50,
      "hit": false,
      "t": 193500,
      "d": 750,
      "v": 90
    },
    {
      "midi": 73,
      "hit": false,
      "t": 193875,
      "d": 375,
      "v": 90
    },
    {
      "midi": 74,
      "hit": false,
      "t": 193875,
      "d": 375,
      "v": 90
    },
    {
      "midi": 74,
      "hit": false,
      "t": 194250,
      "d": 375,
      "v": 90
    },
    {
      "midi": 43,
      "hit": false,
      "t": 194250,
      "d": 750,
      "v": 90
    },
    {
      "midi": 82,
      "hit": false,
      "t": 194625,
      "d": 375,
      "v": 90
    },
    {
      "midi": 77,
      "hit": false,
      "t": 195000,
      "d": 375,
      "v": 90
    },
    {
      "midi": 79,
      "hit": false,
      "t": 195000,
      "d": 375,
      "v": 90
    },
    {
      "midi": 45,
      "hit": false,
      "t": 195000,
      "d": 750,
      "v": 90
    },
    {
      "midi": 76,
      "hit": false,
      "t": 195375,
      "d": 375,
      "v": 90
    },
    {
      "midi": 77,
      "hit": false,
      "t": 195375,
      "d": 375,
      "v": 90
    },
    {
      "midi": 76,
      "hit": false,
      "t": 195750,
      "d": 375,
      "v": 90
    },
    {
      "midi": 77,
      "hit": false,
      "t": 195750,
      "d": 375,
      "v": 90
    },
    {
      "midi": 49,
      "hit": false,
      "t": 195750,
      "d": 375,
      "v": 90
    },
    {
      "midi": 74,
      "hit": false,
      "t": 196125,
      "d": 375,
      "v": 90
    },
    {
      "midi": 76,
      "hit": false,
      "t": 196125,
      "d": 375,
      "v": 90
    },
    {
      "midi": 47,
      "hit": false,
      "t": 196125,
      "d": 375,
      "v": 90
    },
    {
      "midi": 76,
      "hit": false,
      "t": 196500,
      "d": 1125,
      "v": 90
    },
    {
      "midi": 49,
      "hit": false,
      "t": 196500,
      "d": 750,
      "v": 90
    },
    {
      "midi": 55,
      "hit": false,
      "t": 197250,
      "d": 750,
      "v": 90
    },
    {
      "midi": 74,
      "hit": false,
      "t": 197625,
      "d": 375,
      "v": 90
    },
    {
      "midi": 76,
      "hit": false,
      "t": 197625,
      "d": 375,
      "v": 90
    },
    {
      "midi": 74,
      "hit": false,
      "t": 198000,
      "d": 750,
      "v": 90
    },
    {
      "midi": 50,
      "hit": false,
      "t": 198000,
      "d": 750,
      "v": 90
    },
    {
      "midi": 54,
      "hit": false,
      "t": 198000,
      "d": 750,
      "v": 90
    },
    {
      "midi": 72,
      "hit": false,
      "t": 198750,
      "d": 375,
      "v": 90
    },
    {
      "midi": 74,
      "hit": false,
      "t": 198750,
      "d": 375,
      "v": 90
    },
    {
      "midi": 38,
      "hit": false,
      "t": 198750,
      "d": 750,
      "v": 90
    },
    {
      "midi": 75,
      "hit": false,
      "t": 199125,
      "d": 375,
      "v": 90
    },
    {
      "midi": 74,
      "hit": false,
      "t": 199500,
      "d": 375,
      "v": 90
    },
    {
      "midi": 38,
      "hit": false,
      "t": 199500,
      "d": 750,
      "v": 90
    },
    {
      "midi": 72,
      "hit": false,
      "t": 199875,
      "d": 375,
      "v": 90
    },
    {
      "midi": 70,
      "hit": false,
      "t": 200250,
      "d": 375,
      "v": 90
    },
    {
      "midi": 50,
      "hit": false,
      "t": 200250,
      "d": 750,
      "v": 90
    },
    {
      "midi": 54,
      "hit": false,
      "t": 200250,
      "d": 750,
      "v": 90
    },
    {
      "midi": 69,
      "hit": false,
      "t": 200625,
      "d": 375,
      "v": 90
    },
    {
      "midi": 67,
      "hit": false,
      "t": 201000,
      "d": 375,
      "v": 90
    },
    {
      "midi": 52,
      "hit": false,
      "t": 201000,
      "d": 750,
      "v": 90
    },
    {
      "midi": 55,
      "hit": false,
      "t": 201000,
      "d": 750,
      "v": 90
    },
    {
      "midi": 64,
      "hit": false,
      "t": 201375,
      "d": 375,
      "v": 90
    },
    {
      "midi": 66,
      "hit": false,
      "t": 201375,
      "d": 375,
      "v": 90
    },
    {
      "midi": 61,
      "hit": false,
      "t": 201750,
      "d": 375,
      "v": 90
    },
    {
      "midi": 62,
      "hit": false,
      "t": 201750,
      "d": 375,
      "v": 90
    },
    {
      "midi": 54,
      "hit": false,
      "t": 201750,
      "d": 750,
      "v": 90
    },
    {
      "midi": 57,
      "hit": false,
      "t": 201750,
      "d": 750,
      "v": 90
    },
    {
      "midi": 62,
      "hit": false,
      "t": 202125,
      "d": 375,
      "v": 90
    },
    {
      "midi": 55,
      "hit": false,
      "t": 202500,
      "d": 750,
      "v": 90
    },
    {
      "midi": 58,
      "hit": false,
      "t": 202500,
      "d": 750,
      "v": 90
    },
    {
      "midi": 64,
      "hit": false,
      "t": 202875,
      "d": 375,
      "v": 90
    },
    {
      "midi": 66,
      "hit": false,
      "t": 202875,
      "d": 375,
      "v": 90
    },
    {
      "midi": 65,
      "hit": false,
      "t": 203250,
      "d": 375,
      "v": 90
    },
    {
      "midi": 67,
      "hit": false,
      "t": 203250,
      "d": 375,
      "v": 90
    },
    {
      "midi": 38,
      "hit": false,
      "t": 203250,
      "d": 750,
      "v": 90
    },
    {
      "midi": 67,
      "hit": false,
      "t": 203625,
      "d": 375,
      "v": 90
    },
    {
      "midi": 69,
      "hit": false,
      "t": 203625,
      "d": 375,
      "v": 90
    },
    {
      "midi": 67,
      "hit": false,
      "t": 204000,
      "d": 375,
      "v": 90
    },
    {
      "midi": 70,
      "hit": false,
      "t": 204000,
      "d": 375,
      "v": 90
    },
    {
      "midi": 38,
      "hit": false,
      "t": 204000,
      "d": 750,
      "v": 90
    },
    {
      "midi": 70,
      "hit": false,
      "t": 204375,
      "d": 375,
      "v": 90
    },
    {
      "midi": 72,
      "hit": false,
      "t": 204375,
      "d": 375,
      "v": 90
    },
    {
      "midi": 69,
      "hit": false,
      "t": 204750,
      "d": 375,
      "v": 90
    },
    {
      "midi": 74,
      "hit": false,
      "t": 204750,
      "d": 375,
      "v": 90
    },
    {
      "midi": 53,
      "hit": false,
      "t": 204750,
      "d": 750,
      "v": 90
    },
    {
      "midi": 57,
      "hit": false,
      "t": 204750,
      "d": 750,
      "v": 90
    },
    {
      "midi": 73,
      "hit": false,
      "t": 205125,
      "d": 375,
      "v": 90
    },
    {
      "midi": 74,
      "hit": false,
      "t": 205125,
      "d": 375,
      "v": 90
    },
    {
      "midi": 76,
      "hit": false,
      "t": 205500,
      "d": 375,
      "v": 90
    },
    {
      "midi": 77,
      "hit": false,
      "t": 205500,
      "d": 375,
      "v": 90
    },
    {
      "midi": 52,
      "hit": false,
      "t": 205500,
      "d": 750,
      "v": 90
    },
    {
      "midi": 55,
      "hit": false,
      "t": 205500,
      "d": 750,
      "v": 90
    },
    {
      "midi": 79,
      "hit": false,
      "t": 205875,
      "d": 375,
      "v": 90
    },
    {
      "midi": 81,
      "hit": false,
      "t": 205875,
      "d": 375,
      "v": 90
    },
    {
      "midi": 74,
      "hit": false,
      "t": 206250,
      "d": 375,
      "v": 90
    },
    {
      "midi": 82,
      "hit": false,
      "t": 206250,
      "d": 375,
      "v": 90
    },
    {
      "midi": 50,
      "hit": false,
      "t": 206250,
      "d": 750,
      "v": 90
    },
    {
      "midi": 53,
      "hit": false,
      "t": 206250,
      "d": 750,
      "v": 90
    },
    {
      "midi": 73,
      "hit": false,
      "t": 206625,
      "d": 375,
      "v": 90
    },
    {
      "midi": 74,
      "hit": false,
      "t": 206625,
      "d": 375,
      "v": 90
    },
    {
      "midi": 74,
      "hit": false,
      "t": 207000,
      "d": 375,
      "v": 90
    },
    {
      "midi": 52,
      "hit": false,
      "t": 207000,
      "d": 750,
      "v": 90
    },
    {
      "midi": 55,
      "hit": false,
      "t": 207000,
      "d": 750,
      "v": 90
    },
    {
      "midi": 67,
      "hit": false,
      "t": 207375,
      "d": 375,
      "v": 90
    },
    {
      "midi": 69,
      "hit": false,
      "t": 207750,
      "d": 375,
      "v": 90
    },
    {
      "midi": 38,
      "hit": false,
      "t": 207750,
      "d": 750,
      "v": 90
    },
    {
      "midi": 65,
      "hit": false,
      "t": 208125,
      "d": 375,
      "v": 90
    },
    {
      "midi": 67,
      "hit": false,
      "t": 208125,
      "d": 375,
      "v": 90
    },
    {
      "midi": 67,
      "hit": false,
      "t": 208500,
      "d": 375,
      "v": 90
    },
    {
      "midi": 38,
      "hit": false,
      "t": 208500,
      "d": 750,
      "v": 90
    },
    {
      "midi": 73,
      "hit": false,
      "t": 208875,
      "d": 375,
      "v": 90
    },
    {
      "midi": 74,
      "hit": false,
      "t": 208875,
      "d": 375,
      "v": 90
    },
    {
      "midi": 76,
      "hit": false,
      "t": 209250,
      "d": 375,
      "v": 90
    },
    {
      "midi": 49,
      "hit": false,
      "t": 209250,
      "d": 750,
      "v": 90
    },
    {
      "midi": 52,
      "hit": false,
      "t": 209250,
      "d": 750,
      "v": 90
    },
    {
      "midi": 67,
      "hit": false,
      "t": 209625,
      "d": 375,
      "v": 90
    },
    {
      "midi": 65,
      "hit": false,
      "t": 210000,
      "d": 375,
      "v": 90
    },
    {
      "midi": 69,
      "hit": false,
      "t": 210000,
      "d": 375,
      "v": 90
    },
    {
      "midi": 50,
      "hit": false,
      "t": 210000,
      "d": 750,
      "v": 90
    },
    {
      "midi": 53,
      "hit": false,
      "t": 210000,
      "d": 750,
      "v": 90
    },
    {
      "midi": 71,
      "hit": false,
      "t": 210375,
      "d": 375,
      "v": 90
    },
    {
      "midi": 73,
      "hit": false,
      "t": 210375,
      "d": 375,
      "v": 90
    },
    {
      "midi": 74,
      "hit": false,
      "t": 210750,
      "d": 375,
      "v": 90
    },
    {
      "midi": 53,
      "hit": false,
      "t": 210750,
      "d": 750,
      "v": 90
    },
    {
      "midi": 57,
      "hit": false,
      "t": 210750,
      "d": 750,
      "v": 90
    },
    {
      "midi": 70,
      "hit": false,
      "t": 211125,
      "d": 375,
      "v": 90
    },
    {
      "midi": 73,
      "hit": false,
      "t": 211500,
      "d": 375,
      "v": 90
    },
    {
      "midi": 50,
      "hit": false,
      "t": 211500,
      "d": 750,
      "v": 90
    },
    {
      "midi": 69,
      "hit": false,
      "t": 211875,
      "d": 750,
      "v": 90
    },
    {
      "midi": 46,
      "hit": false,
      "t": 212250,
      "d": 750,
      "v": 90
    },
    {
      "midi": 62,
      "hit": false,
      "t": 212625,
      "d": 375,
      "v": 90
    },
    {
      "midi": 67,
      "hit": false,
      "t": 212625,
      "d": 375,
      "v": 90
    },
    {
      "midi": 65,
      "hit": false,
      "t": 213000,
      "d": 375,
      "v": 90
    },
    {
      "midi": 45,
      "hit": false,
      "t": 213000,
      "d": 750,
      "v": 90
    },
    {
      "midi": 65,
      "hit": false,
      "t": 213375,
      "d": 375,
      "v": 90
    },
    {
      "midi": 67,
      "hit": false,
      "t": 213375,
      "d": 375,
      "v": 90
    },
    {
      "midi": 62,
      "hit": false,
      "t": 213750,
      "d": 375,
      "v": 90
    },
    {
      "midi": 64,
      "hit": false,
      "t": 213750,
      "d": 375,
      "v": 90
    },
    {
      "midi": 65,
      "hit": false,
      "t": 213750,
      "d": 375,
      "v": 90
    },
    {
      "midi": 44,
      "hit": false,
      "t": 213750,
      "d": 750,
      "v": 90
    },
    {
      "midi": 61,
      "hit": false,
      "t": 214125,
      "d": 375,
      "v": 90
    },
    {
      "midi": 62,
      "hit": false,
      "t": 214125,
      "d": 375,
      "v": 90
    },
    {
      "midi": 64,
      "hit": false,
      "t": 214125,
      "d": 375,
      "v": 90
    },
    {
      "midi": 64,
      "hit": false,
      "t": 214500,
      "d": 1125,
      "v": 90
    },
    {
      "midi": 45,
      "hit": false,
      "t": 214500,
      "d": 375,
      "v": 90
    },
    {
      "midi": 49,
      "hit": false,
      "t": 214875,
      "d": 375,
      "v": 90
    },
    {
      "midi": 55,
      "hit": false,
      "t": 215250,
      "d": 750,
      "v": 90
    },
    {
      "midi": 62,
      "hit": false,
      "t": 215625,
      "d": 375,
      "v": 90
    },
    {
      "midi": 64,
      "hit": false,
      "t": 215625,
      "d": 375,
      "v": 90
    },
    {
      "midi": 62,
      "hit": false,
      "t": 216000,
      "d": 1500,
      "v": 90
    },
    {
      "midi": 50,
      "hit": false,
      "t": 216000,
      "d": 750,
      "v": 90
    },
    {
      "midi": 53,
      "hit": false,
      "t": 216750,
      "d": 750,
      "v": 90
    }
  ]
}