{
  "jsonPath": "Classical/Classical/Johann Sebastian Bach/matthaus-passion.json",
  "path": "Classical\\Classical\\Johann Sebastian Bach\\Matthäus Passion.mid",
  "name": "Matthäus Passion",
  "difficulty": "Advanced",
  "bpm": 60,
  "notes": [
    {
      "midi": 65,
      "hit": false,
      "t": 0,
      "d": 1000,
      "v": 127
    },
    {
      "midi": 69,
      "hit": false,
      "t": 0,
      "d": 1000,
      "v": 127
    },
    {
      "midi": 62,
      "hit": false,
      "t": 0,
      "d": 500,
      "v": 127
    },
    {
      "midi": 60,
      "hit": false,
      "t": 500,
      "d": 500,
      "v": 127
    },
    {
      "midi": 74,
      "hit": false,
      "t": 1000,
      "d": 500,
      "v": 127
    },
    {
      "midi": 62,
      "hit": false,
      "t": 1000,
      "d": 500,
      "v": 127
    },
    {
      "midi": 67,
      "hit": false,
      "t": 1500,
      "d": 500,
      "v": 127
    },
    {
      "midi": 64,
      "hit": false,
      "t": 1500,
      "d": 500,
      "v": 127
    },
    {
      "midi": 69,
      "hit": false,
      "t": 2000,
      "d": 1000,
      "v": 127
    },
    {
      "midi": 72,
      "hit": false,
      "t": 2000,
      "d": 1000,
      "v": 127
    },
    {
      "midi": 57,
      "hit": false,
      "t": 2000,
      "d": 1000,
      "v": 127
    },
    {
      "midi": 65,
      "hit": false,
      "t": 2000,
      "d": 1000,
      "v": 127
    },
    {
      "midi": 70,
      "hit": false,
      "t": 3000,
      "d": 500,
      "v": 127
    },
    {
      "midi": 55,
      "hit": false,
      "t": 3000,
      "d": 1000,
      "v": 127
    },
    {
      "midi": 67,
      "hit": false,
      "t": 3000,
      "d": 1000,
      "v": 127
    },
    {
      "midi": 64,
      "hit": false,
      "t": 3500,
      "d": 500,
      "v": 127
    },
    {
      "midi": 65,
      "hit": false,
      "t": 4000,
      "d": 1000,
      "v": 127
    },
    {
      "midi": 69,
      "hit": false,
      "t": 4000,
      "d": 1000,
      "v": 127
    },
    {
      "midi": 53,
      "hit": false,
      "t": 4000,
      "d": 1000,
      "v": 127
    },
    {
      "midi": 60,
      "hit": false,
      "t": 4000,
      "d": 1000,
      "v": 127
    },
    {
      "midi": 67,
      "hit": false,
      "t": 5000,
      "d": 1000,
      "v": 127
    },
    {
      "midi": 46,
      "hit": false,
      "t": 5000,
      "d": 1000,
      "v": 127
    },
    {
      "midi": 62,
      "hit": false,
      "t": 5000,
      "d": 1000,
      "v": 127
    },
    {
      "midi": 64,
      "hit": false,
      "t": 6000,
      "d": 1000,
      "v": 127
    },
    {
      "midi": 48,
      "hit": false,
      "t": 6000,
      "d": 1000,
      "v": 127
    },
    {
      "midi": 60,
      "hit": false,
      "t": 6000,
      "d": 1000,
      "v": 127
    },
    {
      "midi": 65,
      "hit": false,
      "t": 7000,
      "d": 1000,
      "v": 127
    },
    {
      "midi": 69,
      "hit": false,
      "t": 7000,
      "d": 1000,
      "v": 127
    },
    {
      "midi": 53,
      "hit": false,
      "t": 7000,
      "d": 1000,
      "v": 127
    },
    {
      "midi": 60,
      "hit": false,
      "t": 7000,
      "d": 1000,
      "v": 127
    },
    {
      "midi": 69,
      "hit": false,
      "t": 8000,
      "d": 1000,
      "v": 127
    },
    {
      "midi": 76,
      "hit": false,
      "t": 8000,
      "d": 1000,
      "v": 127
    },
    {
      "midi": 49,
      "hit": false,
      "t": 8000,
      "d": 1000,
      "v": 127
    },
    {
      "midi": 64,
      "hit": false,
      "t": 8000,
      "d": 1000,
      "v": 127
    },
    {
      "midi": 69,
      "hit": false,
      "t": 9000,
      "d": 1000,
      "v": 127
    },
    {
      "midi": 77,
      "hit": false,
      "t": 9000,
      "d": 1000,
      "v": 127
    },
    {
      "midi": 64,
      "hit": false,
      "t": 9000,
      "d": 500,
      "v": 127
    },
    {
      "midi": 52,
      "hit": false,
      "t": 9500,
      "d": 500,
      "v": 127
    },
    {
      "midi": 69,
      "hit": false,
      "t": 10000,
      "d": 1000,
      "v": 127
    },
    {
      "midi": 77,
      "hit": false,
      "t": 10000,
      "d": 1000,
      "v": 127
    },
    {
      "midi": 62,
      "hit": false,
      "t": 10000,
      "d": 500,
      "v": 127
    },
    {
      "midi": 55,
      "hit": false,
      "t": 10500,
      "d": 500,
      "v": 127
    },
    {
      "midi": 76,
      "hit": false,
      "t": 11000,
      "d": 500,
      "v": 127
    },
    {
      "midi": 57,
      "hit": false,
      "t": 11000,
      "d": 1000,
      "v": 127
    },
    {
      "midi": 62,
      "hit": false,
      "t": 11000,
      "d": 1000,
      "v": 127
    },
    {
      "midi": 74,
      "hit": false,
      "t": 11500,
      "d": 500,
      "v": 127
    },
    {
      "midi": 76,
      "hit": false,
      "t": 12000,
      "d": 500,
      "v": 127
    },
    {
      "midi": 45,
      "hit": false,
      "t": 12000,
      "d": 1000,
      "v": 127
    },
    {
      "midi": 61,
      "hit": false,
      "t": 12000,
      "d": 1000,
      "v": 127
    },
    {
      "midi": 67,
      "hit": false,
      "t": 12500,
      "d": 500,
      "v": 127
    },
    {
      "midi": 65,
      "hit": false,
      "t": 13000,
      "d": 3000,
      "v": 127
    },
    {
      "midi": 74,
      "hit": false,
      "t": 13000,
      "d": 3000,
      "v": 127
    },
    {
      "midi": 50,
      "hit": false,
      "t": 13000,
      "d": 3000,
      "v": 127
    },
    {
      "midi": 57,
      "hit": false,
      "t": 13000,
      "d": 3000,
      "v": 127
    },
    {
      "midi": 65,
      "hit": false,
      "t": 16000,
      "d": 1000,
      "v": 127
    },
    {
      "midi": 69,
      "hit": false,
      "t": 16000,
      "d": 1000,
      "v": 127
    },
    {
      "midi": 62,
      "hit": false,
      "t": 16000,
      "d": 500,
      "v": 127
    },
    {
      "midi": 60,
      "hit": false,
      "t": 16500,
      "d": 500,
      "v": 127
    },
    {
      "midi": 74,
      "hit": false,
      "t": 17000,
      "d": 500,
      "v": 127
    },
    {
      "midi": 62,
      "hit": false,
      "t": 17000,
      "d": 500,
      "v": 127
    },
    {
      "midi": 67,
      "hit": false,
      "t": 17500,
      "d": 500,
      "v": 127
    },
    {
      "midi": 64,
      "hit": false,
      "t": 17500,
      "d": 500,
      "v": 127
    },
    {
      "midi": 69,
      "hit": false,
      "t": 18000,
      "d": 1000,
      "v": 127
    },
    {
      "midi": 72,
      "hit": false,
      "t": 18000,
      "d": 1000,
      "v": 127
    },
    {
      "midi": 57,
      "hit": false,
      "t": 18000,
      "d": 1000,
      "v": 127
    },
    {
      "midi": 65,
      "hit": false,
      "t": 18000,
      "d": 1000,
      "v": 127
    },
    {
      "midi": 70,
      "hit": false,
      "t": 19000,
      "d": 500,
      "v": 127
    },
    {
      "midi": 55,
      "hit": false,
      "t": 19000,
      "d": 1000,
      "v": 127
    },
    {
      "midi": 67,
      "hit": false,
      "t": 19000,
      "d": 1000,
      "v": 127
    },
    {
      "midi": 64,
      "hit": false,
      "t": 19500,
      "d": 500,
      "v": 127
    },
    {
      "midi": 65,
      "hit": false,
      "t": 20000,
      "d": 1000,
      "v": 127
    },
    {
      "midi": 69,
      "hit": false,
      "t": 20000,
      "d": 1000,
      "v": 127
    },
    {
      "midi": 53,
      "hit": false,
      "t": 20000,
      "d": 1000,
      "v": 127
    },
    {
      "midi": 60,
      "hit": false,
      "t": 20000,
      "d": 1000,
      "v": 127
    },
    {
      "midi": 67,
      "hit": false,
      "t": 21000,
      "d": 1000,
      "v": 127
    },
    {
      "midi": 46,
      "hit": false,
      "t": 21000,
      "d": 1000,
      "v": 127
    },
    {
      "midi": 62,
      "hit": false,
      "t": 21000,
      "d": 1000,
      "v": 127
    },
    {
      "midi": 64,
      "hit": false,
      "t": 22000,
      "d": 1000,
      "v": 127
    },
    {
      "midi": 48,
      "hit": false,
      "t": 22000,
      "d": 1000,
      "v": 127
    },
    {
      "midi": 60,
      "hit": false,
      "t": 22000,
      "d": 1000,
      "v": 127
    },
    {
      "midi": 65,
      "hit": false,
      "t": 23000,
      "d": 1000,
      "v": 127
    },
    {
      "midi": 69,
      "hit": false,
      "t": 23000,
      "d": 1000,
      "v": 127
    },
    {
      "midi": 53,
      "hit": false,
      "t": 23000,
      "d": 1000,
      "v": 127
    },
    {
      "midi": 60,
      "hit": false,
      "t": 23000,
      "d": 1000,
      "v": 127
    },
    {
      "midi": 69,
      "hit": false,
      "t": 24000,
      "d": 1000,
      "v": 127
    },
    {
      "midi": 76,
      "hit": false,
      "t": 24000,
      "d": 1000,
      "v": 127
    },
    {
      "midi": 49,
      "hit": false,
      "t": 24000,
      "d": 1000,
      "v": 127
    },
    {
      "midi": 64,
      "hit": false,
      "t": 24000,
      "d": 1000,
      "v": 127
    },
    {
      "midi": 69,
      "hit": false,
      "t": 25000,
      "d": 1000,
      "v": 127
    },
    {
      "midi": 77,
      "hit": false,
      "t": 25000,
      "d": 1000,
      "v": 127
    },
    {
      "midi": 64,
      "hit": false,
      "t": 25000,
      "d": 500,
      "v": 127
    },
    {
      "midi": 52,
      "hit": false,
      "t": 25500,
      "d": 500,
      "v": 127
    },
    {
      "midi": 69,
      "hit": false,
      "t": 26000,
      "d": 1000,
      "v": 127
    },
    {
      "midi": 77,
      "hit": false,
      "t": 26000,
      "d": 1000,
      "v": 127
    },
    {
      "midi": 62,
      "hit": false,
      "t": 26000,
      "d": 500,
      "v": 127
    },
    {
      "midi": 55,
      "hit": false,
      "t": 26500,
      "d": 500,
      "v": 127
    },
    {
      "midi": 76,
      "hit": false,
      "t": 27000,
      "d": 500,
      "v": 127
    },
    {
      "midi": 57,
      "hit": false,
      "t": 27000,
      "d": 1000,
      "v": 127
    },
    {
      "midi": 62,
      "hit": false,
      "t": 27000,
      "d": 1000,
      "v": 127
    },
    {
      "midi": 74,
      "hit": false,
      "t": 27500,
      "d": 500,
      "v": 127
    },
    {
      "midi": 76,
      "hit": false,
      "t": 28000,
      "d": 500,
      "v": 127
    },
    {
      "midi": 45,
      "hit": false,
      "t": 28000,
      "d": 1000,
      "v": 127
    },
    {
      "midi": 61,
      "hit": false,
      "t": 28000,
      "d": 1000,
      "v": 127
    },
    {
      "midi": 67,
      "hit": false,
      "t": 28500,
      "d": 500,
      "v": 127
    },
    {
      "midi": 65,
      "hit": false,
      "t": 29000,
      "d": 3000,
      "v": 127
    },
    {
      "midi": 74,
      "hit": false,
      "t": 29000,
      "d": 3000,
      "v": 127
    },
    {
      "midi": 50,
      "hit": false,
      "t": 29000,
      "d": 3000,
      "v": 127
    },
    {
      "midi": 57,
      "hit": false,
      "t": 29000,
      "d": 3000,
      "v": 127
    },
    {
      "midi": 69,
      "hit": false,
      "t": 32000,
      "d": 1000,
      "v": 127
    },
    {
      "midi": 77,
      "hit": false,
      "t": 32000,
      "d": 1000,
      "v": 127
    },
    {
      "midi": 62,
      "hit": false,
      "t": 32000,
      "d": 500,
      "v": 127
    },
    {
      "midi": 60,
      "hit": false,
      "t": 32500,
      "d": 500,
      "v": 127
    },
    {
      "midi": 76,
      "hit": false,
      "t": 33000,
      "d": 500,
      "v": 127
    },
    {
      "midi": 55,
      "hit": false,
      "t": 33000,
      "d": 1000,
      "v": 127
    },
    {
      "midi": 58,
      "hit": false,
      "t": 33000,
      "d": 1000,
      "v": 127
    },
    {
      "midi": 74,
      "hit": false,
      "t": 33500,
      "d": 500,
      "v": 127
    },
    {
      "midi": 72,
      "hit": false,
      "t": 34000,
      "d": 500,
      "v": 127
    },
    {
      "midi": 57,
      "hit": false,
      "t": 34000,
      "d": 1000,
      "v": 127
    },
    {
      "midi": 60,
      "hit": false,
      "t": 34000,
      "d": 1000,
      "v": 127
    },
    {
      "midi": 65,
      "hit": false,
      "t": 34500,
      "d": 500,
      "v": 127
    },
    {
      "midi": 65,
      "hit": false,
      "t": 35000,
      "d": 1000,
      "v": 127
    },
    {
      "midi": 74,
      "hit": false,
      "t": 35000,
      "d": 1000,
      "v": 127
    },
    {
      "midi": 60,
      "hit": false,
      "t": 35000,
      "d": 500,
      "v": 127
    },
    {
      "midi": 57,
      "hit": false,
      "t": 35500,
      "d": 500,
      "v": 127
    },
    {
      "midi": 70,
      "hit": false,
      "t": 36000,
      "d": 1000,
      "v": 127
    },
    {
      "midi": 76,
      "hit": false,
      "t": 36000,
      "d": 1000,
      "v": 127
    },
    {
      "midi": 58,
      "hit": false,
      "t": 36000,
      "d": 500,
      "v": 127
    },
    {
      "midi": 60,
      "hit": false,
      "t": 36500,
      "d": 500,
      "v": 127
    },
    {
      "midi": 77,
      "hit": false,
      "t": 37000,
      "d": 1000,
      "v": 127
    },
    {
      "midi": 62,
      "hit": false,
      "t": 37000,
      "d": 1000,
      "v": 127
    },
    {
      "midi": 69,
      "hit": false,
      "t": 38000,
      "d": 500,
      "v": 127
    },
    {
      "midi": 60,
      "hit": false,
      "t": 38000,
      "d": 500,
      "v": 127
    },
    {
      "midi": 67,
      "hit": false,
      "t": 38500,
      "d": 500,
      "v": 127
    },
    {
      "midi": 58,
      "hit": false,
      "t": 38500,
      "d": 500,
      "v": 127
    },
    {
      "midi": 69,
      "hit": false,
      "t": 39000,
      "d": 1000,
      "v": 127
    },
    {
      "midi": 77,
      "hit": false,
      "t": 39000,
      "d": 1000,
      "v": 127
    },
    {
      "midi": 53,
      "hit": false,
      "t": 39000,
      "d": 1000,
      "v": 127
    },
    {
      "midi": 60,
      "hit": false,
      "t": 39000,
      "d": 1000,
      "v": 127
    },
    {
      "midi": 69,
      "hit": false,
      "t": 40000,
      "d": 1000,
      "v": 127
    },
    {
      "midi": 72,
      "hit": false,
      "t": 40000,
      "d": 1000,
      "v": 127
    },
    {
      "midi": 65,
      "hit": false,
      "t": 40000,
      "d": 500,
      "v": 127
    },
    {
      "midi": 63,
      "hit": false,
      "t": 40500,
      "d": 500,
      "v": 127
    },
    {
      "midi": 74,
      "hit": false,
      "t": 41000,
      "d": 500,
      "v": 127
    },
    {
      "midi": 58,
      "hit": false,
      "t": 41000,
      "d": 1000,
      "v": 127
    },
    {
      "midi": 62,
      "hit": false,
      "t": 41000,
      "d": 1000,
      "v": 127
    },
    {
      "midi": 67,
      "hit": false,
      "t": 41500,
      "d": 500,
      "v": 127
    },
    {
      "midi": 69,
      "hit": false,
      "t": 42000,
      "d": 1000,
      "v": 127
    },
    {
      "midi": 72,
      "hit": false,
      "t": 42000,
      "d": 1000,
      "v": 127
    },
    {
      "midi": 54,
      "hit": false,
      "t": 42000,
      "d": 1000,
      "v": 127
    },
    {
      "midi": 62,
      "hit": false,
      "t": 42000,
      "d": 1000,
      "v": 127
    },
    {
      "midi": 67,
      "hit": false,
      "t": 43000,
      "d": 500,
      "v": 127
    },
    {
      "midi": 70,
      "hit": false,
      "t": 43000,
      "d": 500,
      "v": 127
    },
    {
      "midi": 55,
      "hit": false,
      "t": 43000,
      "d": 1000,
      "v": 127
    },
    {
      "midi": 62,
      "hit": false,
      "t": 43000,
      "d": 1000,
      "v": 127
    },
    {
      "midi": 66,
      "hit": false,
      "t": 43500,
      "d": 500,
      "v": 127
    },
    {
      "midi": 69,
      "hit": false,
      "t": 43500,
      "d": 500,
      "v": 127
    },
    {
      "midi": 67,
      "hit": false,
      "t": 44000,
      "d": 1000,
      "v": 127
    },
    {
      "midi": 70,
      "hit": false,
      "t": 44000,
      "d": 1000,
      "v": 127
    },
    {
      "midi": 43,
      "hit": false,
      "t": 44000,
      "d": 1000,
      "v": 127
    },
    {
      "midi": 62,
      "hit": false,
      "t": 44000,
      "d": 1000,
      "v": 127
    },
    {
      "midi": 66,
      "hit": false,
      "t": 45000,
      "d": 3000,
      "v": 127
    },
    {
      "midi": 69,
      "hit": false,
      "t": 45000,
      "d": 3000,
      "v": 127
    },
    {
      "midi": 50,
      "hit": false,
      "t": 45000,
      "d": 3000,
      "v": 127
    },
    {
      "midi": 62,
      "hit": false,
      "t": 45000,
      "d": 3000,
      "v": 127
    },
    {
      "midi": 67,
      "hit": false,
      "t": 48000,
      "d": 1000,
      "v": 127
    },
    {
      "midi": 77,
      "hit": false,
      "t": 48000,
      "d": 1000,
      "v": 127
    },
    {
      "midi": 47,
      "hit": false,
      "t": 48000,
      "d": 1000,
      "v": 127
    },
    {
      "midi": 62,
      "hit": false,
      "t": 48000,
      "d": 1000,
      "v": 127
    },
    {
      "midi": 76,
      "hit": false,
      "t": 49000,
      "d": 500,
      "v": 127
    },
    {
      "midi": 60,
      "hit": false,
      "t": 49000,
      "d": 500,
      "v": 127
    },
    {
      "midi": 77,
      "hit": false,
      "t": 49500,
      "d": 500,
      "v": 127
    },
    {
      "midi": 62,
      "hit": false,
      "t": 49500,
      "d": 500,
      "v": 127
    },
    {
      "midi": 72,
      "hit": false,
      "t": 50000,
      "d": 1000,
      "v": 127
    },
    {
      "midi": 79,
      "hit": false,
      "t": 50000,
      "d": 1000,
      "v": 127
    },
    {
      "midi": 64,
      "hit": false,
      "t": 50000,
      "d": 500,
      "v": 127
    },
    {
      "midi": 59,
      "hit": false,
      "t": 50500,
      "d": 500,
      "v": 127
    },
    {
      "midi": 72,
      "hit": false,
      "t": 51000,
      "d": 1000,
      "v": 127
    },
    {
      "midi": 77,
      "hit": false,
      "t": 51000,
      "d": 1000,
      "v": 127
    },
    {
      "midi": 57,
      "hit": false,
      "t": 51000,
      "d": 1000,
      "v": 127
    },
    {
      "midi": 65,
      "hit": false,
      "t": 51000,
      "d": 1000,
      "v": 127
    },
    {
      "midi": 72,
      "hit": false,
      "t": 52000,
      "d": 1000,
      "v": 127
    },
    {
      "midi": 76,
      "hit": false,
      "t": 52000,
      "d": 1000,
      "v": 127
    },
    {
      "midi": 55,
      "hit": false,
      "t": 52000,
      "d": 1000,
      "v": 127
    },
    {
      "midi": 67,
      "hit": false,
      "t": 52000,
      "d": 1000,
      "v": 127
    },
    {
      "midi": 74,
      "hit": false,
      "t": 53000,
      "d": 1000,
      "v": 127
    },
    {
      "midi": 53,
      "hit": false,
      "t": 53000,
      "d": 1000,
      "v": 127
    },
    {
      "midi": 69,
      "hit": false,
      "t": 53000,
      "d": 1000,
      "v": 127
    },
    {
      "midi": 71,
      "hit": false,
      "t": 54000,
      "d": 1000,
      "v": 127
    },
    {
      "midi": 55,
      "hit": false,
      "t": 54000,
      "d": 1000,
      "v": 127
    },
    {
      "midi": 67,
      "hit": false,
      "t": 54000,
      "d": 1000,
      "v": 127
    },
    {
      "midi": 72,
      "hit": false,
      "t": 55000,
      "d": 1000,
      "v": 127
    },
    {
      "midi": 76,
      "hit": false,
      "t": 55000,
      "d": 1000,
      "v": 127
    },
    {
      "midi": 48,
      "hit": false,
      "t": 55000,
      "d": 1000,
      "v": 127
    },
    {
      "midi": 67,
      "hit": false,
      "t": 55000,
      "d": 1000,
      "v": 127
    },
    {
      "midi": 69,
      "hit": false,
      "t": 56000,
      "d": 500,
      "v": 127
    },
    {
      "midi": 53,
      "hit": false,
      "t": 56000,
      "d": 1000,
      "v": 127
    },
    {
      "midi": 60,
      "hit": false,
      "t": 56000,
      "d": 1000,
      "v": 127
    },
    {
      "midi": 64,
      "hit": false,
      "t": 56500,
      "d": 500,
      "v": 127
    },
    {
      "midi": 70,
      "hit": false,
      "t": 57000,
      "d": 500,
      "v": 127
    },
    {
      "midi": 55,
      "hit": false,
      "t": 57000,
      "d": 1000,
      "v": 127
    },
    {
      "midi": 58,
      "hit": false,
      "t": 57000,
      "d": 1000,
      "v": 127
    },
    {
      "midi": 64,
      "hit": false,
      "t": 57500,
      "d": 500,
      "v": 127
    },
    {
      "midi": 65,
      "hit": false,
      "t": 58000,
      "d": 1000,
      "v": 127
    },
    {
      "midi": 69,
      "hit": false,
      "t": 58000,
      "d": 1000,
      "v": 127
    },
    {
      "midi": 60,
      "hit": false,
      "t": 58000,
      "d": 500,
      "v": 127
    },
    {
      "midi": 58,
      "hit": false,
      "t": 58500,
      "d": 500,
      "v": 127
    },
    {
      "midi": 65,
      "hit": false,
      "t": 59000,
      "d": 1000,
      "v": 127
    },
    {
      "midi": 67,
      "hit": false,
      "t": 59000,
      "d": 1000,
      "v": 127
    },
    {
      "midi": 60,
      "hit": false,
      "t": 59000,
      "d": 500,
      "v": 127
    },
    {
      "midi": 58,
      "hit": false,
      "t": 59500,
      "d": 250,
      "v": 127
    },
    {
      "midi": 57,
      "hit": false,
      "t": 59750,
      "d": 250,
      "v": 127
    },
    {
      "midi": 64,
      "hit": false,
      "t": 60000,
      "d": 1000,
      "v": 127
    },
    {
      "midi": 72,
      "hit": false,
      "t": 60000,
      "d": 1000,
      "v": 127
    },
    {
      "midi": 55,
      "hit": false,
      "t": 60000,
      "d": 500,
      "v": 127
    },
    {
      "midi": 60,
      "hit": false,
      "t": 60500,
      "d": 500,
      "v": 127
    },
    {
      "midi": 65,
      "hit": false,
      "t": 61000,
      "d": 3000,
      "v": 127
    },
    {
      "midi": 69,
      "hit": false,
      "t": 61000,
      "d": 3000,
      "v": 127
    },
    {
      "midi": 53,
      "hit": false,
      "t": 61000,
      "d": 3000,
      "v": 127
    },
    {
      "midi": 60,
      "hit": false,
      "t": 61000,
      "d": 3000,
      "v": 127
    }
  ]
}