{
  "jsonPath": "Classical/Classical/Johann Sebastian Bach/partita-bwv-1004.json",
  "path": "Classical\\Classical\\Johann Sebastian Bach\\Partita BWV 1004.mid",
  "name": "Partita BWV 1004",
  "difficulty": "Advanced",
  "bpm": 120,
  "notes": [
    {
      "midi": 64,
      "hit": false,
      "t": 0,
      "d": 1500,
      "v": 80
    },
    {
      "midi": 60,
      "hit": false,
      "t": 0,
      "d": 1500,
      "v": 80
    },
    {
      "midi": 65,
      "hit": false,
      "t": 1500,
      "d": 500,
      "v": 80
    },
    {
      "midi": 62,
      "hit": false,
      "t": 2000,
      "d": 1000,
      "v": 80
    },
    {
      "midi": 59,
      "hit": false,
      "t": 2000,
      "d": 1000,
      "v": 80
    },
    {
      "midi": 64,
      "hit": false,
      "t": 3000,
      "d": 1500,
      "v": 80
    },
    {
      "midi": 55,
      "hit": false,
      "t": 3000,
      "d": 1500,
      "v": 80
    },
    {
      "midi": 65,
      "hit": false,
      "t": 4500,
      "d": 250,
      "v": 80
    },
    {
      "midi": 57,
      "hit": false,
      "t": 4500,
      "d": 1000,
      "v": 80
    },
    {
      "midi": 67,
      "hit": false,
      "t": 4750,
      "d": 250,
      "v": 80
    },
    {
      "midi": 60,
      "hit": false,
      "t": 5000,
      "d": 1000,
      "v": 80
    },
    {
      "midi": 62,
      "hit": false,
      "t": 6000,
      "d": 1500,
      "v": 80
    },
    {
      "midi": 53,
      "hit": false,
      "t": 6000,
      "d": 1500,
      "v": 80
    },
    {
      "midi": 64,
      "hit": false,
      "t": 7500,
      "d": 250,
      "v": 80
    },
    {
      "midi": 65,
      "hit": false,
      "t": 7750,
      "d": 250,
      "v": 80
    },
    {
      "midi": 64,
      "hit": false,
      "t": 8000,
      "d": 500,
      "v": 80
    },
    {
      "midi": 55,
      "hit": false,
      "t": 8000,
      "d": 1000,
      "v": 80
    },
    {
      "midi": 62,
      "hit": false,
      "t": 8500,
      "d": 500,
      "v": 80
    },
    {
      "midi": 62,
      "hit": false,
      "t": 9000,
      "d": 1500,
      "v": 80
    },
    {
      "midi": 59,
      "hit": false,
      "t": 9000,
      "d": 1000,
      "v": 80
    },
    {
      "midi": 55,
      "hit": false,
      "t": 10000,
      "d": 1000,
      "v": 80
    },
    {
      "midi": 67,
      "hit": false,
      "t": 10500,
      "d": 500,
      "v": 80
    },
    {
      "midi": 64,
      "hit": false,
      "t": 11000,
      "d": 1000,
      "v": 80
    },
    {
      "midi": 60,
      "hit": false,
      "t": 11000,
      "d": 1000,
      "v": 80
    },
    {
      "midi": 64,
      "hit": false,
      "t": 12000,
      "d": 500,
      "v": 80
    },
    {
      "midi": 69,
      "hit": false,
      "t": 12000,
      "d": 500,
      "v": 80
    },
    {
      "midi": 60,
      "hit": false,
      "t": 12000,
      "d": 500,
      "v": 80
    },
    {
      "midi": 67,
      "hit": false,
      "t": 12500,
      "d": 500,
      "v": 80
    },
    {
      "midi": 65,
      "hit": false,
      "t": 13000,
      "d": 500,
      "v": 80
    },
    {
      "midi": 64,
      "hit": false,
      "t": 13500,
      "d": 500,
      "v": 80
    },
    {
      "midi": 60,
      "hit": false,
      "t": 13500,
      "d": 500,
      "v": 80
    },
    {
      "midi": 62,
      "hit": false,
      "t": 14000,
      "d": 500,
      "v": 80
    },
    {
      "midi": 59,
      "hit": false,
      "t": 14000,
      "d": 500,
      "v": 80
    },
    {
      "midi": 57,
      "hit": false,
      "t": 14500,
      "d": 500,
      "v": 80
    },
    {
      "midi": 64,
      "hit": false,
      "t": 15000,
      "d": 250,
      "v": 80
    },
    {
      "midi": 55,
      "hit": false,
      "t": 15000,
      "d": 1000,
      "v": 80
    },
    {
      "midi": 65,
      "hit": false,
      "t": 15250,
      "d": 250,
      "v": 80
    },
    {
      "midi": 67,
      "hit": false,
      "t": 15500,
      "d": 250,
      "v": 80
    },
    {
      "midi": 65,
      "hit": false,
      "t": 15750,
      "d": 250,
      "v": 80
    },
    {
      "midi": 64,
      "hit": false,
      "t": 16000,
      "d": 500,
      "v": 80
    },
    {
      "midi": 62,
      "hit": false,
      "t": 16500,
      "d": 500,
      "v": 80
    },
    {
      "midi": 55,
      "hit": false,
      "t": 16500,
      "d": 500,
      "v": 80
    },
    {
      "midi": 60,
      "hit": false,
      "t": 17000,
      "d": 1000,
      "v": 80
    },
    {
      "midi": 57,
      "hit": false,
      "t": 17000,
      "d": 500,
      "v": 80
    },
    {
      "midi": 55,
      "hit": false,
      "t": 17500,
      "d": 500,
      "v": 80
    },
    {
      "midi": 62,
      "hit": false,
      "t": 18000,
      "d": 500,
      "v": 80
    },
    {
      "midi": 53,
      "hit": false,
      "t": 18000,
      "d": 1000,
      "v": 80
    },
    {
      "midi": 65,
      "hit": false,
      "t": 18500,
      "d": 250,
      "v": 80
    },
    {
      "midi": 64,
      "hit": false,
      "t": 18750,
      "d": 250,
      "v": 80
    },
    {
      "midi": 62,
      "hit": false,
      "t": 19000,
      "d": 500,
      "v": 80
    },
    {
      "midi": 53,
      "hit": false,
      "t": 19500,
      "d": 500,
      "v": 80
    },
    {
      "midi": 60,
      "hit": false,
      "t": 19500,
      "d": 500,
      "v": 80
    },
    {
      "midi": 65,
      "hit": false,
      "t": 20000,
      "d": 500,
      "v": 80
    },
    {
      "midi": 71,
      "hit": false,
      "t": 20000,
      "d": 500,
      "v": 80
    },
    {
      "midi": 55,
      "hit": false,
      "t": 20000,
      "d": 500,
      "v": 80
    },
    {
      "midi": 64,
      "hit": false,
      "t": 20500,
      "d": 500,
      "v": 80
    },
    {
      "midi": 72,
      "hit": false,
      "t": 20500,
      "d": 500,
      "v": 80
    },
    {
      "midi": 55,
      "hit": false,
      "t": 21000,
      "d": 1500,
      "v": 80
    },
    {
      "midi": 62,
      "hit": false,
      "t": 21000,
      "d": 1500,
      "v": 80
    },
    {
      "midi": 67,
      "hit": false,
      "t": 22500,
      "d": 500,
      "v": 80
    },
    {
      "midi": 60,
      "hit": false,
      "t": 23000,
      "d": 500,
      "v": 80
    },
    {
      "midi": 64,
      "hit": false,
      "t": 23000,
      "d": 500,
      "v": 80
    },
    {
      "midi": 62,
      "hit": false,
      "t": 23500,
      "d": 500,
      "v": 80
    },
    {
      "midi": 60,
      "hit": false,
      "t": 24000,
      "d": 500,
      "v": 80
    },
    {
      "midi": 62,
      "hit": false,
      "t": 24500,
      "d": 500,
      "v": 80
    },
    {
      "midi": 64,
      "hit": false,
      "t": 25000,
      "d": 500,
      "v": 80
    },
    {
      "midi": 66,
      "hit": false,
      "t": 25500,
      "d": 500,
      "v": 80
    },
    {
      "midi": 60,
      "hit": false,
      "t": 25500,
      "d": 500,
      "v": 80
    },
    {
      "midi": 67,
      "hit": false,
      "t": 26000,
      "d": 500,
      "v": 80
    },
    {
      "midi": 59,
      "hit": false,
      "t": 26000,
      "d": 500,
      "v": 80
    },
    {
      "midi": 62,
      "hit": false,
      "t": 26000,
      "d": 500,
      "v": 80
    },
    {
      "midi": 69,
      "hit": false,
      "t": 26500,
      "d": 500,
      "v": 80
    },
    {
      "midi": 71,
      "hit": false,
      "t": 27000,
      "d": 500,
      "v": 80
    },
    {
      "midi": 55,
      "hit": false,
      "t": 27000,
      "d": 500,
      "v": 80
    },
    {
      "midi": 62,
      "hit": false,
      "t": 27000,
      "d": 500,
      "v": 80
    },
    {
      "midi": 72,
      "hit": false,
      "t": 27500,
      "d": 500,
      "v": 80
    },
    {
      "midi": 69,
      "hit": false,
      "t": 28000,
      "d": 500,
      "v": 80
    },
    {
      "midi": 71,
      "hit": false,
      "t": 28500,
      "d": 500,
      "v": 80
    },
    {
      "midi": 55,
      "hit": false,
      "t": 28500,
      "d": 500,
      "v": 80
    },
    {
      "midi": 65,
      "hit": false,
      "t": 28500,
      "d": 500,
      "v": 80
    },
    {
      "midi": 72,
      "hit": false,
      "t": 29000,
      "d": 500,
      "v": 80
    },
    {
      "midi": 57,
      "hit": false,
      "t": 29000,
      "d": 500,
      "v": 80
    },
    {
      "midi": 64,
      "hit": false,
      "t": 29000,
      "d": 500,
      "v": 80
    },
    {
      "midi": 76,
      "hit": false,
      "t": 29500,
      "d": 500,
      "v": 80
    },
    {
      "midi": 65,
      "hit": false,
      "t": 30000,
      "d": 500,
      "v": 80
    },
    {
      "midi": 69,
      "hit": false,
      "t": 30000,
      "d": 500,
      "v": 80
    },
    {
      "midi": 74,
      "hit": false,
      "t": 30000,
      "d": 500,
      "v": 80
    },
    {
      "midi": 53,
      "hit": false,
      "t": 30000,
      "d": 500,
      "v": 80
    },
    {
      "midi": 72,
      "hit": false,
      "t": 30500,
      "d": 500,
      "v": 80
    },
    {
      "midi": 71,
      "hit": false,
      "t": 31000,
      "d": 500,
      "v": 80
    },
    {
      "midi": 65,
      "hit": false,
      "t": 31500,
      "d": 500,
      "v": 80
    },
    {
      "midi": 69,
      "hit": false,
      "t": 31500,
      "d": 500,
      "v": 80
    },
    {
      "midi": 53,
      "hit": false,
      "t": 31500,
      "d": 500,
      "v": 80
    },
    {
      "midi": 64,
      "hit": false,
      "t": 32000,
      "d": 500,
      "v": 80
    },
    {
      "midi": 67,
      "hit": false,
      "t": 32000,
      "d": 500,
      "v": 80
    },
    {
      "midi": 55,
      "hit": false,
      "t": 32000,
      "d": 500,
      "v": 80
    },
    {
      "midi": 69,
      "hit": false,
      "t": 32500,
      "d": 500,
      "v": 80
    },
    {
      "midi": 60,
      "hit": false,
      "t": 32500,
      "d": 500,
      "v": 80
    },
    {
      "midi": 71,
      "hit": false,
      "t": 33000,
      "d": 500,
      "v": 80
    },
    {
      "midi": 55,
      "hit": false,
      "t": 33000,
      "d": 500,
      "v": 80
    },
    {
      "midi": 62,
      "hit": false,
      "t": 33000,
      "d": 500,
      "v": 80
    },
    {
      "midi": 72,
      "hit": false,
      "t": 33500,
      "d": 500,
      "v": 80
    },
    {
      "midi": 64,
      "hit": false,
      "t": 33500,
      "d": 500,
      "v": 80
    },
    {
      "midi": 74,
      "hit": false,
      "t": 34000,
      "d": 500,
      "v": 80
    },
    {
      "midi": 65,
      "hit": false,
      "t": 34000,
      "d": 500,
      "v": 80
    },
    {
      "midi": 71,
      "hit": false,
      "t": 34500,
      "d": 500,
      "v": 80
    },
    {
      "midi": 55,
      "hit": false,
      "t": 34500,
      "d": 500,
      "v": 80
    },
    {
      "midi": 62,
      "hit": false,
      "t": 34500,
      "d": 500,
      "v": 80
    },
    {
      "midi": 72,
      "hit": false,
      "t": 35000,
      "d": 500,
      "v": 80
    },
    {
      "midi": 60,
      "hit": false,
      "t": 35000,
      "d": 500,
      "v": 80
    },
    {
      "midi": 64,
      "hit": false,
      "t": 35000,
      "d": 500,
      "v": 80
    },
    {
      "midi": 62,
      "hit": false,
      "t": 35500,
      "d": 500,
      "v": 80
    },
    {
      "midi": 72,
      "hit": false,
      "t": 36000,
      "d": 500,
      "v": 80
    },
    {
      "midi": 76,
      "hit": false,
      "t": 36000,
      "d": 500,
      "v": 80
    },
    {
      "midi": 60,
      "hit": false,
      "t": 36000,
      "d": 500,
      "v": 80
    },
    {
      "midi": 62,
      "hit": false,
      "t": 36500,
      "d": 500,
      "v": 80
    },
    {
      "midi": 64,
      "hit": false,
      "t": 37000,
      "d": 500,
      "v": 80
    },
    {
      "midi": 72,
      "hit": false,
      "t": 37500,
      "d": 500,
      "v": 80
    },
    {
      "midi": 76,
      "hit": false,
      "t": 37500,
      "d": 500,
      "v": 80
    },
    {
      "midi": 65,
      "hit": false,
      "t": 37500,
      "d": 500,
      "v": 80
    },
    {
      "midi": 71,
      "hit": false,
      "t": 38000,
      "d": 500,
      "v": 80
    },
    {
      "midi": 74,
      "hit": false,
      "t": 38000,
      "d": 500,
      "v": 80
    },
    {
      "midi": 67,
      "hit": false,
      "t": 38000,
      "d": 500,
      "v": 80
    },
    {
      "midi": 69,
      "hit": false,
      "t": 38500,
      "d": 500,
      "v": 80
    },
    {
      "midi": 79,
      "hit": false,
      "t": 39000,
      "d": 500,
      "v": 80
    },
    {
      "midi": 71,
      "hit": false,
      "t": 39000,
      "d": 500,
      "v": 80
    },
    {
      "midi": 67,
      "hit": false,
      "t": 39500,
      "d": 500,
      "v": 80
    },
    {
      "midi": 69,
      "hit": false,
      "t": 40000,
      "d": 500,
      "v": 80
    },
    {
      "midi": 77,
      "hit": false,
      "t": 40500,
      "d": 500,
      "v": 80
    },
    {
      "midi": 71,
      "hit": false,
      "t": 40500,
      "d": 500,
      "v": 80
    },
    {
      "midi": 76,
      "hit": false,
      "t": 41000,
      "d": 500,
      "v": 80
    },
    {
      "midi": 72,
      "hit": false,
      "t": 41000,
      "d": 500,
      "v": 80
    },
    {
      "midi": 74,
      "hit": false,
      "t": 41500,
      "d": 500,
      "v": 80
    },
    {
      "midi": 71,
      "hit": false,
      "t": 41500,
      "d": 500,
      "v": 80
    },
    {
      "midi": 77,
      "hit": false,
      "t": 42000,
      "d": 500,
      "v": 80
    },
    {
      "midi": 69,
      "hit": false,
      "t": 42000,
      "d": 500,
      "v": 80
    },
    {
      "midi": 76,
      "hit": false,
      "t": 42500,
      "d": 500,
      "v": 80
    },
    {
      "midi": 67,
      "hit": false,
      "t": 42500,
      "d": 500,
      "v": 80
    },
    {
      "midi": 72,
      "hit": false,
      "t": 43000,
      "d": 500,
      "v": 80
    },
    {
      "midi": 81,
      "hit": false,
      "t": 43000,
      "d": 500,
      "v": 80
    },
    {
      "midi": 65,
      "hit": false,
      "t": 43000,
      "d": 500,
      "v": 80
    },
    {
      "midi": 69,
      "hit": false,
      "t": 43500,
      "d": 500,
      "v": 80
    },
    {
      "midi": 79,
      "hit": false,
      "t": 43500,
      "d": 500,
      "v": 80
    },
    {
      "midi": 64,
      "hit": false,
      "t": 43500,
      "d": 500,
      "v": 80
    },
    {
      "midi": 71,
      "hit": false,
      "t": 44000,
      "d": 500,
      "v": 80
    },
    {
      "midi": 77,
      "hit": false,
      "t": 44000,
      "d": 500,
      "v": 80
    },
    {
      "midi": 62,
      "hit": false,
      "t": 44000,
      "d": 500,
      "v": 80
    },
    {
      "midi": 72,
      "hit": false,
      "t": 44500,
      "d": 500,
      "v": 80
    },
    {
      "midi": 76,
      "hit": false,
      "t": 44500,
      "d": 500,
      "v": 80
    },
    {
      "midi": 60,
      "hit": false,
      "t": 44500,
      "d": 500,
      "v": 80
    },
    {
      "midi": 67,
      "hit": false,
      "t": 45000,
      "d": 1000,
      "v": 80
    },
    {
      "midi": 72,
      "hit": false,
      "t": 45000,
      "d": 1000,
      "v": 80
    },
    {
      "midi": 74,
      "hit": false,
      "t": 45000,
      "d": 1000,
      "v": 80
    },
    {
      "midi": 67,
      "hit": false,
      "t": 46000,
      "d": 1000,
      "v": 80
    },
    {
      "midi": 71,
      "hit": false,
      "t": 46000,
      "d": 1000,
      "v": 80
    },
    {
      "midi": 74,
      "hit": false,
      "t": 46000,
      "d": 1000,
      "v": 80
    },
    {
      "midi": 72,
      "hit": false,
      "t": 47000,
      "d": 250,
      "v": 80
    },
    {
      "midi": 60,
      "hit": false,
      "t": 47000,
      "d": 250,
      "v": 80
    },
    {
      "midi": 71,
      "hit": false,
      "t": 47250,
      "d": 250,
      "v": 80
    },
    {
      "midi": 69,
      "hit": false,
      "t": 47500,
      "d": 250,
      "v": 80
    },
    {
      "midi": 67,
      "hit": false,
      "t": 47750,
      "d": 250,
      "v": 80
    },
    {
      "midi": 66,
      "hit": false,
      "t": 48000,
      "d": 250,
      "v": 80
    },
    {
      "midi": 69,
      "hit": false,
      "t": 48250,
      "d": 250,
      "v": 80
    },
    {
      "midi": 72,
      "hit": false,
      "t": 48500,
      "d": 250,
      "v": 80
    },
    {
      "midi": 76,
      "hit": false,
      "t": 48750,
      "d": 250,
      "v": 80
    },
    {
      "midi": 74,
      "hit": false,
      "t": 49000,
      "d": 500,
      "v": 80
    },
    {
      "midi": 66,
      "hit": false,
      "t": 49500,
      "d": 500,
      "v": 80
    },
    {
      "midi": 69,
      "hit": false,
      "t": 49500,
      "d": 500,
      "v": 80
    },
    {
      "midi": 74,
      "hit": false,
      "t": 49500,
      "d": 500,
      "v": 80
    },
    {
      "midi": 60,
      "hit": false,
      "t": 49500,
      "d": 500,
      "v": 80
    },
    {
      "midi": 67,
      "hit": false,
      "t": 50000,
      "d": 500,
      "v": 80
    },
    {
      "midi": 71,
      "hit": false,
      "t": 50000,
      "d": 500,
      "v": 80
    },
    {
      "midi": 74,
      "hit": false,
      "t": 50000,
      "d": 500,
      "v": 80
    },
    {
      "midi": 59,
      "hit": false,
      "t": 50000,
      "d": 250,
      "v": 80
    },
    {
      "midi": 60,
      "hit": false,
      "t": 50250,
      "d": 250,
      "v": 80
    },
    {
      "midi": 59,
      "hit": false,
      "t": 50500,
      "d": 250,
      "v": 80
    },
    {
      "midi": 57,
      "hit": false,
      "t": 50750,
      "d": 250,
      "v": 80
    },
    {
      "midi": 55,
      "hit": false,
      "t": 51000,
      "d": 250,
      "v": 80
    },
    {
      "midi": 59,
      "hit": false,
      "t": 51250,
      "d": 250,
      "v": 80
    },
    {
      "midi": 62,
      "hit": false,
      "t": 51500,
      "d": 250,
      "v": 80
    },
    {
      "midi": 65,
      "hit": false,
      "t": 51750,
      "d": 250,
      "v": 80
    },
    {
      "midi": 64,
      "hit": false,
      "t": 52000,
      "d": 500,
      "v": 80
    },
    {
      "midi": 64,
      "hit": false,
      "t": 52500,
      "d": 500,
      "v": 80
    },
    {
      "midi": 71,
      "hit": false,
      "t": 52500,
      "d": 500,
      "v": 80
    },
    {
      "midi": 74,
      "hit": false,
      "t": 52500,
      "d": 500,
      "v": 80
    },
    {
      "midi": 56,
      "hit": false,
      "t": 52500,
      "d": 500,
      "v": 80
    },
    {
      "midi": 64,
      "hit": false,
      "t": 53000,
      "d": 500,
      "v": 80
    },
    {
      "midi": 72,
      "hit": false,
      "t": 53000,
      "d": 500,
      "v": 80
    },
    {
      "midi": 57,
      "hit": false,
      "t": 53000,
      "d": 250,
      "v": 80
    },
    {
      "midi": 59,
      "hit": false,
      "t": 53250,
      "d": 250,
      "v": 80
    },
    {
      "midi": 60,
      "hit": false,
      "t": 53500,
      "d": 250,
      "v": 80
    },
    {
      "midi": 57,
      "hit": false,
      "t": 53750,
      "d": 250,
      "v": 80
    },
    {
      "midi": 53,
      "hit": false,
      "t": 54000,
      "d": 250,
      "v": 80
    },
    {
      "midi": 57,
      "hit": false,
      "t": 54250,
      "d": 250,
      "v": 80
    },
    {
      "midi": 60,
      "hit": false,
      "t": 54500,
      "d": 250,
      "v": 80
    },
    {
      "midi": 64,
      "hit": false,
      "t": 54750,
      "d": 250,
      "v": 80
    },
    {
      "midi": 62,
      "hit": false,
      "t": 55000,
      "d": 500,
      "v": 80
    },
    {
      "midi": 72,
      "hit": false,
      "t": 55500,
      "d": 500,
      "v": 80
    },
    {
      "midi": 54,
      "hit": false,
      "t": 55500,
      "d": 500,
      "v": 80
    },
    {
      "midi": 62,
      "hit": false,
      "t": 55500,
      "d": 500,
      "v": 80
    },
    {
      "midi": 71,
      "hit": false,
      "t": 56000,
      "d": 250,
      "v": 80
    },
    {
      "midi": 55,
      "hit": false,
      "t": 56000,
      "d": 250,
      "v": 80
    },
    {
      "midi": 62,
      "hit": false,
      "t": 56000,
      "d": 250,
      "v": 80
    },
    {
      "midi": 69,
      "hit": false,
      "t": 56250,
      "d": 250,
      "v": 80
    },
    {
      "midi": 67,
      "hit": false,
      "t": 56500,
      "d": 250,
      "v": 80
    },
    {
      "midi": 69,
      "hit": false,
      "t": 56750,
      "d": 250,
      "v": 80
    },
    {
      "midi": 71,
      "hit": false,
      "t": 57000,
      "d": 250,
      "v": 80
    },
    {
      "midi": 74,
      "hit": false,
      "t": 57250,
      "d": 250,
      "v": 80
    },
    {
      "midi": 77,
      "hit": false,
      "t": 57500,
      "d": 250,
      "v": 80
    },
    {
      "midi": 81,
      "hit": false,
      "t": 57750,
      "d": 250,
      "v": 80
    },
    {
      "midi": 79,
      "hit": false,
      "t": 58000,
      "d": 250,
      "v": 80
    },
    {
      "midi": 77,
      "hit": false,
      "t": 58250,
      "d": 250,
      "v": 80
    },
    {
      "midi": 76,
      "hit": false,
      "t": 58500,
      "d": 250,
      "v": 80
    },
    {
      "midi": 74,
      "hit": false,
      "t": 58750,
      "d": 250,
      "v": 80
    },
    {
      "midi": 76,
      "hit": false,
      "t": 59000,
      "d": 250,
      "v": 80
    },
    {
      "midi": 79,
      "hit": false,
      "t": 59250,
      "d": 250,
      "v": 80
    },
    {
      "midi": 76,
      "hit": false,
      "t": 59500,
      "d": 250,
      "v": 80
    },
    {
      "midi": 72,
      "hit": false,
      "t": 59750,
      "d": 250,
      "v": 80
    },
    {
      "midi": 67,
      "hit": false,
      "t": 60000,
      "d": 250,
      "v": 80
    },
    {
      "midi": 72,
      "hit": false,
      "t": 60250,
      "d": 250,
      "v": 80
    },
    {
      "midi": 67,
      "hit": false,
      "t": 60500,
      "d": 500,
      "v": 80
    },
    {
      "midi": 64,
      "hit": false,
      "t": 60750,
      "d": 250,
      "v": 80
    },
    {
      "midi": 60,
      "hit": false,
      "t": 61000,
      "d": 250,
      "v": 80
    },
    {
      "midi": 64,
      "hit": false,
      "t": 61250,
      "d": 250,
      "v": 80
    },
    {
      "midi": 62,
      "hit": false,
      "t": 61500,
      "d": 250,
      "v": 80
    },
    {
      "midi": 60,
      "hit": false,
      "t": 61750,
      "d": 250,
      "v": 80
    },
    {
      "midi": 59,
      "hit": false,
      "t": 62000,
      "d": 250,
      "v": 80
    },
    {
      "midi": 79,
      "hit": false,
      "t": 62250,
      "d": 250,
      "v": 80
    },
    {
      "midi": 74,
      "hit": false,
      "t": 62500,
      "d": 250,
      "v": 80
    },
    {
      "midi": 71,
      "hit": false,
      "t": 62750,
      "d": 250,
      "v": 80
    },
    {
      "midi": 67,
      "hit": false,
      "t": 63000,
      "d": 250,
      "v": 80
    },
    {
      "midi": 71,
      "hit": false,
      "t": 63250,
      "d": 250,
      "v": 80
    },
    {
      "midi": 67,
      "hit": false,
      "t": 63500,
      "d": 500,
      "v": 80
    },
    {
      "midi": 62,
      "hit": false,
      "t": 63750,
      "d": 250,
      "v": 80
    },
    {
      "midi": 59,
      "hit": false,
      "t": 64000,
      "d": 250,
      "v": 80
    },
    {
      "midi": 62,
      "hit": false,
      "t": 64250,
      "d": 250,
      "v": 80
    },
    {
      "midi": 60,
      "hit": false,
      "t": 64500,
      "d": 250,
      "v": 80
    },
    {
      "midi": 59,
      "hit": false,
      "t": 64750,
      "d": 250,
      "v": 80
    },
    {
      "midi": 57,
      "hit": false,
      "t": 65000,
      "d": 250,
      "v": 80
    },
    {
      "midi": 78,
      "hit": false,
      "t": 65250,
      "d": 250,
      "v": 80
    },
    {
      "midi": 72,
      "hit": false,
      "t": 65500,
      "d": 250,
      "v": 80
    },
    {
      "midi": 69,
      "hit": false,
      "t": 65750,
      "d": 250,
      "v": 80
    },
    {
      "midi": 66,
      "hit": false,
      "t": 66000,
      "d": 250,
      "v": 80
    },
    {
      "midi": 69,
      "hit": false,
      "t": 66250,
      "d": 250,
      "v": 80
    },
    {
      "midi": 66,
      "hit": false,
      "t": 66500,
      "d": 500,
      "v": 80
    },
    {
      "midi": 62,
      "hit": false,
      "t": 66750,
      "d": 250,
      "v": 80
    },
    {
      "midi": 57,
      "hit": false,
      "t": 67000,
      "d": 250,
      "v": 80
    },
    {
      "midi": 60,
      "hit": false,
      "t": 67250,
      "d": 250,
      "v": 80
    },
    {
      "midi": 64,
      "hit": false,
      "t": 67500,
      "d": 250,
      "v": 80
    },
    {
      "midi": 60,
      "hit": false,
      "t": 67750,
      "d": 250,
      "v": 80
    },
    {
      "midi": 67,
      "hit": false,
      "t": 68000,
      "d": 250,
      "v": 80
    },
    {
      "midi": 64,
      "hit": false,
      "t": 68250,
      "d": 250,
      "v": 80
    },
    {
      "midi": 72,
      "hit": false,
      "t": 68500,
      "d": 250,
      "v": 80
    },
    {
      "midi": 67,
      "hit": false,
      "t": 68750,
      "d": 250,
      "v": 80
    },
    {
      "midi": 76,
      "hit": false,
      "t": 69000,
      "d": 250,
      "v": 80
    },
    {
      "midi": 72,
      "hit": false,
      "t": 69250,
      "d": 250,
      "v": 80
    },
    {
      "midi": 79,
      "hit": false,
      "t": 69500,
      "d": 250,
      "v": 80
    },
    {
      "midi": 74,
      "hit": false,
      "t": 69750,
      "d": 250,
      "v": 80
    },
    {
      "midi": 71,
      "hit": false,
      "t": 70000,
      "d": 250,
      "v": 80
    },
    {
      "midi": 74,
      "hit": false,
      "t": 70250,
      "d": 250,
      "v": 80
    },
    {
      "midi": 79,
      "hit": false,
      "t": 70500,
      "d": 250,
      "v": 80
    },
    {
      "midi": 74,
      "hit": false,
      "t": 70750,
      "d": 250,
      "v": 80
    },
    {
      "midi": 83,
      "hit": false,
      "t": 71000,
      "d": 250,
      "v": 80
    },
    {
      "midi": 79,
      "hit": false,
      "t": 71250,
      "d": 250,
      "v": 80
    },
    {
      "midi": 86,
      "hit": false,
      "t": 71500,
      "d": 250,
      "v": 80
    },
    {
      "midi": 83,
      "hit": false,
      "t": 71750,
      "d": 250,
      "v": 80
    },
    {
      "midi": 88,
      "hit": false,
      "t": 72000,
      "d": 250,
      "v": 80
    },
    {
      "midi": 83,
      "hit": false,
      "t": 72250,
      "d": 250,
      "v": 80
    },
    {
      "midi": 84,
      "hit": false,
      "t": 72500,
      "d": 250,
      "v": 80
    },
    {
      "midi": 88,
      "hit": false,
      "t": 72750,
      "d": 250,
      "v": 80
    },
    {
      "midi": 84,
      "hit": false,
      "t": 73000,
      "d": 250,
      "v": 80
    },
    {
      "midi": 81,
      "hit": false,
      "t": 73250,
      "d": 250,
      "v": 80
    },
    {
      "midi": 76,
      "hit": false,
      "t": 73500,
      "d": 250,
      "v": 80
    },
    {
      "midi": 81,
      "hit": false,
      "t": 73750,
      "d": 250,
      "v": 80
    },
    {
      "midi": 72,
      "hit": false,
      "t": 74000,
      "d": 250,
      "v": 80
    },
    {
      "midi": 76,
      "hit": false,
      "t": 74250,
      "d": 250,
      "v": 80
    },
    {
      "midi": 69,
      "hit": false,
      "t": 74500,
      "d": 250,
      "v": 80
    },
    {
      "midi": 72,
      "hit": false,
      "t": 74750,
      "d": 250,
      "v": 80
    },
    {
      "midi": 71,
      "hit": false,
      "t": 75000,
      "d": 250,
      "v": 80
    },
    {
      "midi": 69,
      "hit": false,
      "t": 75250,
      "d": 250,
      "v": 80
    },
    {
      "midi": 71,
      "hit": false,
      "t": 75500,
      "d": 250,
      "v": 80
    },
    {
      "midi": 74,
      "hit": false,
      "t": 75750,
      "d": 250,
      "v": 80
    },
    {
      "midi": 71,
      "hit": false,
      "t": 76000,
      "d": 250,
      "v": 80
    },
    {
      "midi": 67,
      "hit": false,
      "t": 76250,
      "d": 250,
      "v": 80
    },
    {
      "midi": 62,
      "hit": false,
      "t": 76500,
      "d": 250,
      "v": 80
    },
    {
      "midi": 67,
      "hit": false,
      "t": 76750,
      "d": 250,
      "v": 80
    },
    {
      "midi": 59,
      "hit": false,
      "t": 77000,
      "d": 250,
      "v": 80
    },
    {
      "midi": 62,
      "hit": false,
      "t": 77250,
      "d": 250,
      "v": 80
    },
    {
      "midi": 55,
      "hit": false,
      "t": 77500,
      "d": 250,
      "v": 80
    },
    {
      "midi": 59,
      "hit": false,
      "t": 77750,
      "d": 250,
      "v": 80
    },
    {
      "midi": 62,
      "hit": false,
      "t": 78000,
      "d": 250,
      "v": 80
    },
    {
      "midi": 65,
      "hit": false,
      "t": 78250,
      "d": 250,
      "v": 80
    },
    {
      "midi": 64,
      "hit": false,
      "t": 78500,
      "d": 250,
      "v": 80
    },
    {
      "midi": 60,
      "hit": false,
      "t": 78750,
      "d": 250,
      "v": 80
    },
    {
      "midi": 79,
      "hit": false,
      "t": 79000,
      "d": 250,
      "v": 80
    },
    {
      "midi": 79,
      "hit": false,
      "t": 79250,
      "d": 250,
      "v": 80
    },
    {
      "midi": 79,
      "hit": false,
      "t": 79500,
      "d": 250,
      "v": 80
    },
    {
      "midi": 76,
      "hit": false,
      "t": 79750,
      "d": 250,
      "v": 80
    },
    {
      "midi": 72,
      "hit": false,
      "t": 80000,
      "d": 250,
      "v": 80
    },
    {
      "midi": 67,
      "hit": false,
      "t": 80250,
      "d": 250,
      "v": 80
    },
    {
      "midi": 64,
      "hit": false,
      "t": 80500,
      "d": 250,
      "v": 80
    },
    {
      "midi": 60,
      "hit": false,
      "t": 80750,
      "d": 250,
      "v": 80
    },
    {
      "midi": 55,
      "hit": false,
      "t": 81000,
      "d": 250,
      "v": 80
    },
    {
      "midi": 60,
      "hit": false,
      "t": 81250,
      "d": 250,
      "v": 80
    },
    {
      "midi": 62,
      "hit": false,
      "t": 81500,
      "d": 250,
      "v": 80
    },
    {
      "midi": 60,
      "hit": false,
      "t": 81750,
      "d": 250,
      "v": 80
    },
    {
      "midi": 79,
      "hit": false,
      "t": 82000,
      "d": 250,
      "v": 80
    },
    {
      "midi": 79,
      "hit": false,
      "t": 82250,
      "d": 250,
      "v": 80
    },
    {
      "midi": 79,
      "hit": false,
      "t": 82500,
      "d": 250,
      "v": 80
    },
    {
      "midi": 74,
      "hit": false,
      "t": 82750,
      "d": 250,
      "v": 80
    },
    {
      "midi": 71,
      "hit": false,
      "t": 83000,
      "d": 250,
      "v": 80
    },
    {
      "midi": 67,
      "hit": false,
      "t": 83250,
      "d": 250,
      "v": 80
    },
    {
      "midi": 62,
      "hit": false,
      "t": 83500,
      "d": 250,
      "v": 80
    },
    {
      "midi": 59,
      "hit": false,
      "t": 83750,
      "d": 250,
      "v": 80
    },
    {
      "midi": 55,
      "hit": false,
      "t": 84000,
      "d": 250,
      "v": 80
    },
    {
      "midi": 59,
      "hit": false,
      "t": 84250,
      "d": 250,
      "v": 80
    },
    {
      "midi": 60,
      "hit": false,
      "t": 84500,
      "d": 250,
      "v": 80
    },
    {
      "midi": 57,
      "hit": false,
      "t": 84750,
      "d": 250,
      "v": 80
    },
    {
      "midi": 79,
      "hit": false,
      "t": 85000,
      "d": 250,
      "v": 80
    },
    {
      "midi": 79,
      "hit": false,
      "t": 85250,
      "d": 250,
      "v": 80
    },
    {
      "midi": 79,
      "hit": false,
      "t": 85500,
      "d": 250,
      "v": 80
    },
    {
      "midi": 76,
      "hit": false,
      "t": 85750,
      "d": 250,
      "v": 80
    },
    {
      "midi": 72,
      "hit": false,
      "t": 86000,
      "d": 250,
      "v": 80
    },
    {
      "midi": 69,
      "hit": false,
      "t": 86250,
      "d": 250,
      "v": 80
    },
    {
      "midi": 72,
      "hit": false,
      "t": 86500,
      "d": 250,
      "v": 80
    },
    {
      "midi": 78,
      "hit": false,
      "t": 86750,
      "d": 250,
      "v": 80
    },
    {
      "midi": 81,
      "hit": false,
      "t": 87000,
      "d": 250,
      "v": 80
    },
    {
      "midi": 78,
      "hit": false,
      "t": 87250,
      "d": 250,
      "v": 80
    },
    {
      "midi": 79,
      "hit": false,
      "t": 87500,
      "d": 250,
      "v": 80
    },
    {
      "midi": 74,
      "hit": false,
      "t": 87750,
      "d": 250,
      "v": 80
    },
    {
      "midi": 79,
      "hit": false,
      "t": 88000,
      "d": 250,
      "v": 80
    },
    {
      "midi": 79,
      "hit": false,
      "t": 88250,
      "d": 250,
      "v": 80
    },
    {
      "midi": 79,
      "hit": false,
      "t": 88500,
      "d": 250,
      "v": 80
    },
    {
      "midi": 71,
      "hit": false,
      "t": 88750,
      "d": 250,
      "v": 80
    },
    {
      "midi": 74,
      "hit": false,
      "t": 89000,
      "d": 250,
      "v": 80
    },
    {
      "midi": 74,
      "hit": false,
      "t": 89250,
      "d": 250,
      "v": 80
    },
    {
      "midi": 74,
      "hit": false,
      "t": 89500,
      "d": 250,
      "v": 80
    },
    {
      "midi": 67,
      "hit": false,
      "t": 89750,
      "d": 250,
      "v": 80
    },
    {
      "midi": 71,
      "hit": false,
      "t": 90000,
      "d": 250,
      "v": 80
    },
    {
      "midi": 65,
      "hit": false,
      "t": 90250,
      "d": 250,
      "v": 80
    },
    {
      "midi": 64,
      "hit": false,
      "t": 90500,
      "d": 250,
      "v": 80
    },
    {
      "midi": 60,
      "hit": false,
      "t": 90750,
      "d": 250,
      "v": 80
    },
    {
      "midi": 67,
      "hit": false,
      "t": 91000,
      "d": 250,
      "v": 80
    },
    {
      "midi": 67,
      "hit": false,
      "t": 91250,
      "d": 250,
      "v": 80
    },
    {
      "midi": 67,
      "hit": false,
      "t": 91500,
      "d": 500,
      "v": 80
    },
    {
      "midi": 64,
      "hit": false,
      "t": 91750,
      "d": 250,
      "v": 80
    },
    {
      "midi": 60,
      "hit": false,
      "t": 92000,
      "d": 250,
      "v": 80
    },
    {
      "midi": 64,
      "hit": false,
      "t": 92250,
      "d": 250,
      "v": 80
    },
    {
      "midi": 67,
      "hit": false,
      "t": 92500,
      "d": 250,
      "v": 80
    },
    {
      "midi": 72,
      "hit": false,
      "t": 92750,
      "d": 250,
      "v": 80
    },
    {
      "midi": 76,
      "hit": false,
      "t": 93000,
      "d": 500,
      "v": 80
    },
    {
      "midi": 57,
      "hit": false,
      "t": 93250,
      "d": 250,
      "v": 80
    },
    {
      "midi": 59,
      "hit": false,
      "t": 93500,
      "d": 250,
      "v": 80
    },
    {
      "midi": 62,
      "hit": false,
      "t": 93750,
      "d": 250,
      "v": 80
    },
    {
      "midi": 67,
      "hit": false,
      "t": 94000,
      "d": 250,
      "v": 80
    },
    {
      "midi": 67,
      "hit": false,
      "t": 94250,
      "d": 250,
      "v": 80
    },
    {
      "midi": 67,
      "hit": false,
      "t": 94500,
      "d": 500,
      "v": 80
    },
    {
      "midi": 62,
      "hit": false,
      "t": 94750,
      "d": 250,
      "v": 80
    },
    {
      "midi": 59,
      "hit": false,
      "t": 95000,
      "d": 250,
      "v": 80
    },
    {
      "midi": 62,
      "hit": false,
      "t": 95250,
      "d": 250,
      "v": 80
    },
    {
      "midi": 67,
      "hit": false,
      "t": 95500,
      "d": 250,
      "v": 80
    },
    {
      "midi": 71,
      "hit": false,
      "t": 95750,
      "d": 250,
      "v": 80
    },
    {
      "midi": 74,
      "hit": false,
      "t": 96000,
      "d": 500,
      "v": 80
    },
    {
      "midi": 55,
      "hit": false,
      "t": 96250,
      "d": 250,
      "v": 80
    },
    {
      "midi": 57,
      "hit": false,
      "t": 96500,
      "d": 250,
      "v": 80
    },
    {
      "midi": 60,
      "hit": false,
      "t": 96750,
      "d": 250,
      "v": 80
    },
    {
      "midi": 67,
      "hit": false,
      "t": 97000,
      "d": 250,
      "v": 80
    },
    {
      "midi": 67,
      "hit": false,
      "t": 97250,
      "d": 250,
      "v": 80
    },
    {
      "midi": 67,
      "hit": false,
      "t": 97500,
      "d": 500,
      "v": 80
    },
    {
      "midi": 60,
      "hit": false,
      "t": 97750,
      "d": 250,
      "v": 80
    },
    {
      "midi": 57,
      "hit": false,
      "t": 98000,
      "d": 250,
      "v": 80
    },
    {
      "midi": 60,
      "hit": false,
      "t": 98250,
      "d": 250,
      "v": 80
    },
    {
      "midi": 66,
      "hit": false,
      "t": 98500,
      "d": 250,
      "v": 80
    },
    {
      "midi": 69,
      "hit": false,
      "t": 98750,
      "d": 250,
      "v": 80
    },
    {
      "midi": 72,
      "hit": false,
      "t": 99000,
      "d": 500,
      "v": 80
    },
    {
      "midi": 62,
      "hit": false,
      "t": 99250,
      "d": 250,
      "v": 80
    },
    {
      "midi": 55,
      "hit": false,
      "t": 99500,
      "d": 250,
      "v": 80
    },
    {
      "midi": 62,
      "hit": false,
      "t": 99750,
      "d": 250,
      "v": 80
    },
    {
      "midi": 67,
      "hit": false,
      "t": 100000,
      "d": 250,
      "v": 80
    },
    {
      "midi": 67,
      "hit": false,
      "t": 100250,
      "d": 250,
      "v": 80
    },
    {
      "midi": 67,
      "hit": false,
      "t": 100500,
      "d": 250,
      "v": 80
    },
    {
      "midi": 62,
      "hit": false,
      "t": 100750,
      "d": 250,
      "v": 80
    },
    {
      "midi": 67,
      "hit": false,
      "t": 101000,
      "d": 250,
      "v": 80
    },
    {
      "midi": 71,
      "hit": false,
      "t": 101250,
      "d": 250,
      "v": 80
    },
    {
      "midi": 74,
      "hit": false,
      "t": 101500,
      "d": 250,
      "v": 80
    },
    {
      "midi": 71,
      "hit": false,
      "t": 101750,
      "d": 250,
      "v": 80
    },
    {
      "midi": 67,
      "hit": false,
      "t": 102000,
      "d": 250,
      "v": 80
    },
    {
      "midi": 65,
      "hit": false,
      "t": 102250,
      "d": 250,
      "v": 80
    },
    {
      "midi": 64,
      "hit": false,
      "t": 102500,
      "d": 500,
      "v": 80
    },
    {
      "midi": 57,
      "hit": false,
      "t": 102750,
      "d": 250,
      "v": 80
    },
    {
      "midi": 57,
      "hit": false,
      "t": 103000,
      "d": 250,
      "v": 80
    },
    {
      "midi": 57,
      "hit": false,
      "t": 103250,
      "d": 250,
      "v": 80
    },
    {
      "midi": 57,
      "hit": false,
      "t": 103500,
      "d": 250,
      "v": 80
    },
    {
      "midi": 79,
      "hit": false,
      "t": 103750,
      "d": 250,
      "v": 80
    },
    {
      "midi": 79,
      "hit": false,
      "t": 104000,
      "d": 250,
      "v": 80
    },
    {
      "midi": 72,
      "hit": false,
      "t": 104250,
      "d": 250,
      "v": 80
    },
    {
      "midi": 76,
      "hit": false,
      "t": 104250,
      "d": 250,
      "v": 80
    },
    {
      "midi": 72,
      "hit": false,
      "t": 104500,
      "d": 250,
      "v": 80
    },
    {
      "midi": 76,
      "hit": false,
      "t": 104500,
      "d": 250,
      "v": 80
    },
    {
      "midi": 67,
      "hit": false,
      "t": 104750,
      "d": 250,
      "v": 80
    },
    {
      "midi": 72,
      "hit": false,
      "t": 104750,
      "d": 250,
      "v": 80
    },
    {
      "midi": 67,
      "hit": false,
      "t": 105000,
      "d": 250,
      "v": 80
    },
    {
      "midi": 72,
      "hit": false,
      "t": 105000,
      "d": 250,
      "v": 80
    },
    {
      "midi": 72,
      "hit": false,
      "t": 105250,
      "d": 250,
      "v": 80
    },
    {
      "midi": 76,
      "hit": false,
      "t": 105250,
      "d": 250,
      "v": 80
    },
    {
      "midi": 71,
      "hit": false,
      "t": 105500,
      "d": 500,
      "v": 80
    },
    {
      "midi": 74,
      "hit": false,
      "t": 105500,
      "d": 500,
      "v": 80
    },
    {
      "midi": 57,
      "hit": false,
      "t": 105750,
      "d": 250,
      "v": 80
    },
    {
      "midi": 57,
      "hit": false,
      "t": 106000,
      "d": 250,
      "v": 80
    },
    {
      "midi": 57,
      "hit": false,
      "t": 106250,
      "d": 250,
      "v": 80
    },
    {
      "midi": 57,
      "hit": false,
      "t": 106500,
      "d": 250,
      "v": 80
    },
    {
      "midi": 79,
      "hit": false,
      "t": 106750,
      "d": 250,
      "v": 80
    },
    {
      "midi": 79,
      "hit": false,
      "t": 107000,
      "d": 250,
      "v": 80
    },
    {
      "midi": 71,
      "hit": false,
      "t": 107250,
      "d": 250,
      "v": 80
    },
    {
      "midi": 74,
      "hit": false,
      "t": 107250,
      "d": 250,
      "v": 80
    },
    {
      "midi": 71,
      "hit": false,
      "t": 107500,
      "d": 250,
      "v": 80
    },
    {
      "midi": 74,
      "hit": false,
      "t": 107500,
      "d": 250,
      "v": 80
    },
    {
      "midi": 67,
      "hit": false,
      "t": 107750,
      "d": 250,
      "v": 80
    },
    {
      "midi": 71,
      "hit": false,
      "t": 107750,
      "d": 250,
      "v": 80
    },
    {
      "midi": 67,
      "hit": false,
      "t": 108000,
      "d": 250,
      "v": 80
    },
    {
      "midi": 71,
      "hit": false,
      "t": 108000,
      "d": 250,
      "v": 80
    },
    {
      "midi": 71,
      "hit": false,
      "t": 108250,
      "d": 250,
      "v": 80
    },
    {
      "midi": 74,
      "hit": false,
      "t": 108250,
      "d": 250,
      "v": 80
    },
    {
      "midi": 66,
      "hit": false,
      "t": 108500,
      "d": 500,
      "v": 80
    },
    {
      "midi": 72,
      "hit": false,
      "t": 108500,
      "d": 500,
      "v": 80
    },
    {
      "midi": 57,
      "hit": false,
      "t": 108750,
      "d": 250,
      "v": 80
    },
    {
      "midi": 57,
      "hit": false,
      "t": 109000,
      "d": 250,
      "v": 80
    },
    {
      "midi": 57,
      "hit": false,
      "t": 109250,
      "d": 250,
      "v": 80
    },
    {
      "midi": 57,
      "hit": false,
      "t": 109500,
      "d": 250,
      "v": 80
    },
    {
      "midi": 81,
      "hit": false,
      "t": 109750,
      "d": 250,
      "v": 80
    },
    {
      "midi": 81,
      "hit": false,
      "t": 110000,
      "d": 250,
      "v": 80
    },
    {
      "midi": 69,
      "hit": false,
      "t": 110250,
      "d": 250,
      "v": 80
    },
    {
      "midi": 78,
      "hit": false,
      "t": 110250,
      "d": 250,
      "v": 80
    },
    {
      "midi": 69,
      "hit": false,
      "t": 110500,
      "d": 250,
      "v": 80
    },
    {
      "midi": 78,
      "hit": false,
      "t": 110500,
      "d": 250,
      "v": 80
    },
    {
      "midi": 72,
      "hit": false,
      "t": 110750,
      "d": 250,
      "v": 80
    },
    {
      "midi": 74,
      "hit": false,
      "t": 110750,
      "d": 250,
      "v": 80
    },
    {
      "midi": 72,
      "hit": false,
      "t": 111000,
      "d": 250,
      "v": 80
    },
    {
      "midi": 74,
      "hit": false,
      "t": 111000,
      "d": 250,
      "v": 80
    },
    {
      "midi": 72,
      "hit": false,
      "t": 111250,
      "d": 250,
      "v": 80
    },
    {
      "midi": 78,
      "hit": false,
      "t": 111250,
      "d": 250,
      "v": 80
    },
    {
      "midi": 71,
      "hit": false,
      "t": 111500,
      "d": 500,
      "v": 80
    },
    {
      "midi": 79,
      "hit": false,
      "t": 111500,
      "d": 500,
      "v": 80
    },
    {
      "midi": 57,
      "hit": false,
      "t": 111750,
      "d": 250,
      "v": 80
    },
    {
      "midi": 57,
      "hit": false,
      "t": 112000,
      "d": 250,
      "v": 80
    },
    {
      "midi": 57,
      "hit": false,
      "t": 112250,
      "d": 250,
      "v": 80
    },
    {
      "midi": 57,
      "hit": false,
      "t": 112500,
      "d": 250,
      "v": 80
    },
    {
      "midi": 67,
      "hit": false,
      "t": 112750,
      "d": 250,
      "v": 80
    },
    {
      "midi": 79,
      "hit": false,
      "t": 112750,
      "d": 250,
      "v": 80
    },
    {
      "midi": 67,
      "hit": false,
      "t": 113000,
      "d": 250,
      "v": 80
    },
    {
      "midi": 79,
      "hit": false,
      "t": 113000,
      "d": 250,
      "v": 80
    },
    {
      "midi": 67,
      "hit": false,
      "t": 113250,
      "d": 250,
      "v": 80
    },
    {
      "midi": 79,
      "hit": false,
      "t": 113250,
      "d": 250,
      "v": 80
    },
    {
      "midi": 69,
      "hit": false,
      "t": 113500,
      "d": 250,
      "v": 80
    },
    {
      "midi": 79,
      "hit": false,
      "t": 113500,
      "d": 250,
      "v": 80
    },
    {
      "midi": 69,
      "hit": false,
      "t": 113750,
      "d": 250,
      "v": 80
    },
    {
      "midi": 77,
      "hit": false,
      "t": 113750,
      "d": 250,
      "v": 80
    },
    {
      "midi": 71,
      "hit": false,
      "t": 114000,
      "d": 250,
      "v": 80
    },
    {
      "midi": 77,
      "hit": false,
      "t": 114000,
      "d": 250,
      "v": 80
    },
    {
      "midi": 71,
      "hit": false,
      "t": 114250,
      "d": 250,
      "v": 80
    },
    {
      "midi": 77,
      "hit": false,
      "t": 114250,
      "d": 250,
      "v": 80
    },
    {
      "midi": 72,
      "hit": false,
      "t": 114500,
      "d": 500,
      "v": 80
    },
    {
      "midi": 76,
      "hit": false,
      "t": 114500,
      "d": 500,
      "v": 80
    },
    {
      "midi": 60,
      "hit": false,
      "t": 114750,
      "d": 250,
      "v": 80
    },
    {
      "midi": 60,
      "hit": false,
      "t": 115000,
      "d": 250,
      "v": 80
    },
    {
      "midi": 60,
      "hit": false,
      "t": 115250,
      "d": 250,
      "v": 80
    },
    {
      "midi": 60,
      "hit": false,
      "t": 115500,
      "d": 250,
      "v": 80
    },
    {
      "midi": 67,
      "hit": false,
      "t": 115750,
      "d": 250,
      "v": 80
    },
    {
      "midi": 67,
      "hit": false,
      "t": 116000,
      "d": 250,
      "v": 80
    },
    {
      "midi": 67,
      "hit": false,
      "t": 116250,
      "d": 250,
      "v": 80
    },
    {
      "midi": 67,
      "hit": false,
      "t": 116500,
      "d": 250,
      "v": 80
    },
    {
      "midi": 69,
      "hit": false,
      "t": 116500,
      "d": 250,
      "v": 80
    },
    {
      "midi": 65,
      "hit": false,
      "t": 116750,
      "d": 250,
      "v": 80
    },
    {
      "midi": 69,
      "hit": false,
      "t": 116750,
      "d": 250,
      "v": 80
    },
    {
      "midi": 65,
      "hit": false,
      "t": 117000,
      "d": 250,
      "v": 80
    },
    {
      "midi": 71,
      "hit": false,
      "t": 117000,
      "d": 250,
      "v": 80
    },
    {
      "midi": 65,
      "hit": false,
      "t": 117250,
      "d": 250,
      "v": 80
    },
    {
      "midi": 71,
      "hit": false,
      "t": 117250,
      "d": 250,
      "v": 80
    },
    {
      "midi": 64,
      "hit": false,
      "t": 117500,
      "d": 500,
      "v": 80
    },
    {
      "midi": 72,
      "hit": false,
      "t": 117500,
      "d": 500,
      "v": 80
    },
    {
      "midi": 60,
      "hit": false,
      "t": 117750,
      "d": 250,
      "v": 80
    },
    {
      "midi": 60,
      "hit": false,
      "t": 118000,
      "d": 250,
      "v": 80
    },
    {
      "midi": 60,
      "hit": false,
      "t": 118250,
      "d": 250,
      "v": 80
    },
    {
      "midi": 60,
      "hit": false,
      "t": 118500,
      "d": 250,
      "v": 80
    },
    {
      "midi": 72,
      "hit": false,
      "t": 118750,
      "d": 250,
      "v": 80
    },
    {
      "midi": 84,
      "hit": false,
      "t": 118750,
      "d": 250,
      "v": 80
    },
    {
      "midi": 72,
      "hit": false,
      "t": 119000,
      "d": 250,
      "v": 80
    },
    {
      "midi": 84,
      "hit": false,
      "t": 119000,
      "d": 250,
      "v": 80
    },
    {
      "midi": 72,
      "hit": false,
      "t": 119250,
      "d": 250,
      "v": 80
    },
    {
      "midi": 84,
      "hit": false,
      "t": 119250,
      "d": 250,
      "v": 80
    },
    {
      "midi": 74,
      "hit": false,
      "t": 119500,
      "d": 250,
      "v": 80
    },
    {
      "midi": 84,
      "hit": false,
      "t": 119500,
      "d": 250,
      "v": 80
    },
    {
      "midi": 74,
      "hit": false,
      "t": 119750,
      "d": 250,
      "v": 80
    },
    {
      "midi": 82,
      "hit": false,
      "t": 119750,
      "d": 250,
      "v": 80
    },
    {
      "midi": 76,
      "hit": false,
      "t": 120000,
      "d": 250,
      "v": 80
    },
    {
      "midi": 82,
      "hit": false,
      "t": 120000,
      "d": 250,
      "v": 80
    },
    {
      "midi": 76,
      "hit": false,
      "t": 120250,
      "d": 250,
      "v": 80
    },
    {
      "midi": 82,
      "hit": false,
      "t": 120250,
      "d": 250,
      "v": 80
    },
    {
      "midi": 77,
      "hit": false,
      "t": 120500,
      "d": 500,
      "v": 80
    },
    {
      "midi": 81,
      "hit": false,
      "t": 120500,
      "d": 500,
      "v": 80
    },
    {
      "midi": 60,
      "hit": false,
      "t": 120750,
      "d": 250,
      "v": 80
    },
    {
      "midi": 60,
      "hit": false,
      "t": 121000,
      "d": 250,
      "v": 80
    },
    {
      "midi": 60,
      "hit": false,
      "t": 121250,
      "d": 250,
      "v": 80
    },
    {
      "midi": 60,
      "hit": false,
      "t": 121500,
      "d": 250,
      "v": 80
    },
    {
      "midi": 77,
      "hit": false,
      "t": 121750,
      "d": 250,
      "v": 80
    },
    {
      "midi": 81,
      "hit": false,
      "t": 121750,
      "d": 250,
      "v": 80
    },
    {
      "midi": 77,
      "hit": false,
      "t": 122000,
      "d": 250,
      "v": 80
    },
    {
      "midi": 81,
      "hit": false,
      "t": 122000,
      "d": 250,
      "v": 80
    },
    {
      "midi": 77,
      "hit": false,
      "t": 122250,
      "d": 250,
      "v": 80
    },
    {
      "midi": 81,
      "hit": false,
      "t": 122250,
      "d": 250,
      "v": 80
    },
    {
      "midi": 77,
      "hit": false,
      "t": 122500,
      "d": 250,
      "v": 80
    },
    {
      "midi": 83,
      "hit": false,
      "t": 122500,
      "d": 250,
      "v": 80
    },
    {
      "midi": 76,
      "hit": false,
      "t": 122750,
      "d": 250,
      "v": 80
    },
    {
      "midi": 84,
      "hit": false,
      "t": 122750,
      "d": 250,
      "v": 80
    },
    {
      "midi": 76,
      "hit": false,
      "t": 123000,
      "d": 250,
      "v": 80
    },
    {
      "midi": 84,
      "hit": false,
      "t": 123000,
      "d": 250,
      "v": 80
    },
    {
      "midi": 76,
      "hit": false,
      "t": 123250,
      "d": 250,
      "v": 80
    },
    {
      "midi": 84,
      "hit": false,
      "t": 123250,
      "d": 250,
      "v": 80
    },
    {
      "midi": 76,
      "hit": false,
      "t": 123500,
      "d": 250,
      "v": 80
    },
    {
      "midi": 77,
      "hit": false,
      "t": 123500,
      "d": 250,
      "v": 80
    },
    {
      "midi": 74,
      "hit": false,
      "t": 123750,
      "d": 250,
      "v": 80
    },
    {
      "midi": 77,
      "hit": false,
      "t": 123750,
      "d": 250,
      "v": 80
    },
    {
      "midi": 74,
      "hit": false,
      "t": 124000,
      "d": 250,
      "v": 80
    },
    {
      "midi": 77,
      "hit": false,
      "t": 124000,
      "d": 250,
      "v": 80
    },
    {
      "midi": 74,
      "hit": false,
      "t": 124250,
      "d": 250,
      "v": 80
    },
    {
      "midi": 77,
      "hit": false,
      "t": 124250,
      "d": 250,
      "v": 80
    },
    {
      "midi": 74,
      "hit": false,
      "t": 124500,
      "d": 250,
      "v": 80
    },
    {
      "midi": 76,
      "hit": false,
      "t": 124500,
      "d": 250,
      "v": 80
    },
    {
      "midi": 72,
      "hit": false,
      "t": 124750,
      "d": 250,
      "v": 80
    },
    {
      "midi": 76,
      "hit": false,
      "t": 124750,
      "d": 250,
      "v": 80
    },
    {
      "midi": 64,
      "hit": false,
      "t": 124750,
      "d": 250,
      "v": 80
    },
    {
      "midi": 72,
      "hit": false,
      "t": 125000,
      "d": 250,
      "v": 80
    },
    {
      "midi": 76,
      "hit": false,
      "t": 125000,
      "d": 250,
      "v": 80
    },
    {
      "midi": 64,
      "hit": false,
      "t": 125000,
      "d": 250,
      "v": 80
    },
    {
      "midi": 72,
      "hit": false,
      "t": 125250,
      "d": 250,
      "v": 80
    },
    {
      "midi": 76,
      "hit": false,
      "t": 125250,
      "d": 250,
      "v": 80
    },
    {
      "midi": 64,
      "hit": false,
      "t": 125250,
      "d": 250,
      "v": 80
    },
    {
      "midi": 72,
      "hit": false,
      "t": 125500,
      "d": 250,
      "v": 80
    },
    {
      "midi": 74,
      "hit": false,
      "t": 125500,
      "d": 250,
      "v": 80
    },
    {
      "midi": 65,
      "hit": false,
      "t": 125500,
      "d": 250,
      "v": 80
    },
    {
      "midi": 67,
      "hit": false,
      "t": 125750,
      "d": 250,
      "v": 80
    },
    {
      "midi": 71,
      "hit": false,
      "t": 125750,
      "d": 250,
      "v": 80
    },
    {
      "midi": 74,
      "hit": false,
      "t": 125750,
      "d": 250,
      "v": 80
    },
    {
      "midi": 67,
      "hit": false,
      "t": 126000,
      "d": 250,
      "v": 80
    },
    {
      "midi": 71,
      "hit": false,
      "t": 126000,
      "d": 250,
      "v": 80
    },
    {
      "midi": 74,
      "hit": false,
      "t": 126000,
      "d": 250,
      "v": 80
    },
    {
      "midi": 67,
      "hit": false,
      "t": 126250,
      "d": 250,
      "v": 80
    },
    {
      "midi": 71,
      "hit": false,
      "t": 126250,
      "d": 250,
      "v": 80
    },
    {
      "midi": 74,
      "hit": false,
      "t": 126250,
      "d": 250,
      "v": 80
    },
    {
      "midi": 72,
      "hit": false,
      "t": 126500,
      "d": 1000,
      "v": 80
    },
    {
      "midi": 76,
      "hit": false,
      "t": 126500,
      "d": 1000,
      "v": 80
    },
    {
      "midi": 64,
      "hit": false,
      "t": 126500,
      "d": 1000,
      "v": 80
    },
    {
      "midi": 72,
      "hit": false,
      "t": 127500,
      "d": 1500,
      "v": 80
    },
    {
      "midi": 76,
      "hit": false,
      "t": 127500,
      "d": 1500,
      "v": 80
    },
    {
      "midi": 72,
      "hit": false,
      "t": 129000,
      "d": 500,
      "v": 80
    },
    {
      "midi": 76,
      "hit": false,
      "t": 129000,
      "d": 500,
      "v": 80
    },
    {
      "midi": 72,
      "hit": false,
      "t": 129500,
      "d": 500,
      "v": 80
    },
    {
      "midi": 76,
      "hit": false,
      "t": 129500,
      "d": 500,
      "v": 80
    },
    {
      "midi": 74,
      "hit": false,
      "t": 130000,
      "d": 500,
      "v": 80
    },
    {
      "midi": 72,
      "hit": false,
      "t": 130500,
      "d": 500,
      "v": 80
    },
    {
      "midi": 74,
      "hit": false,
      "t": 130500,
      "d": 500,
      "v": 80
    },
    {
      "midi": 71,
      "hit": false,
      "t": 131000,
      "d": 500,
      "v": 80
    },
    {
      "midi": 69,
      "hit": false,
      "t": 131500,
      "d": 500,
      "v": 80
    },
    {
      "midi": 68,
      "hit": false,
      "t": 132000,
      "d": 500,
      "v": 80
    },
    {
      "midi": 74,
      "hit": false,
      "t": 132000,
      "d": 500,
      "v": 80
    },
    {
      "midi": 69,
      "hit": false,
      "t": 132500,
      "d": 500,
      "v": 80
    },
    {
      "midi": 74,
      "hit": false,
      "t": 132500,
      "d": 500,
      "v": 80
    },
    {
      "midi": 72,
      "hit": false,
      "t": 133000,
      "d": 500,
      "v": 80
    },
    {
      "midi": 69,
      "hit": false,
      "t": 133500,
      "d": 500,
      "v": 80
    },
    {
      "midi": 70,
      "hit": false,
      "t": 133500,
      "d": 500,
      "v": 80
    },
    {
      "midi": 67,
      "hit": false,
      "t": 134000,
      "d": 500,
      "v": 80
    },
    {
      "midi": 65,
      "hit": false,
      "t": 134500,
      "d": 500,
      "v": 80
    },
    {
      "midi": 64,
      "hit": false,
      "t": 135000,
      "d": 500,
      "v": 80
    },
    {
      "midi": 70,
      "hit": false,
      "t": 135000,
      "d": 500,
      "v": 80
    },
    {
      "midi": 65,
      "hit": false,
      "t": 135500,
      "d": 500,
      "v": 80
    },
    {
      "midi": 70,
      "hit": false,
      "t": 135500,
      "d": 500,
      "v": 80
    },
    {
      "midi": 69,
      "hit": false,
      "t": 136000,
      "d": 500,
      "v": 80
    },
    {
      "midi": 71,
      "hit": false,
      "t": 136500,
      "d": 500,
      "v": 80
    },
    {
      "midi": 81,
      "hit": false,
      "t": 137000,
      "d": 500,
      "v": 80
    },
    {
      "midi": 65,
      "hit": false,
      "t": 137000,
      "d": 500,
      "v": 80
    },
    {
      "midi": 67,
      "hit": false,
      "t": 137000,
      "d": 500,
      "v": 80
    },
    {
      "midi": 79,
      "hit": false,
      "t": 137500,
      "d": 500,
      "v": 80
    },
    {
      "midi": 64,
      "hit": false,
      "t": 137500,
      "d": 500,
      "v": 80
    },
    {
      "midi": 69,
      "hit": false,
      "t": 137500,
      "d": 500,
      "v": 80
    },
    {
      "midi": 77,
      "hit": false,
      "t": 138000,
      "d": 500,
      "v": 80
    },
    {
      "midi": 62,
      "hit": false,
      "t": 138000,
      "d": 500,
      "v": 80
    },
    {
      "midi": 71,
      "hit": false,
      "t": 138000,
      "d": 500,
      "v": 80
    },
    {
      "midi": 76,
      "hit": false,
      "t": 138500,
      "d": 500,
      "v": 80
    },
    {
      "midi": 60,
      "hit": false,
      "t": 138500,
      "d": 500,
      "v": 80
    },
    {
      "midi": 64,
      "hit": false,
      "t": 139000,
      "d": 500,
      "v": 80
    },
    {
      "midi": 69,
      "hit": false,
      "t": 139500,
      "d": 500,
      "v": 80
    },
    {
      "midi": 72,
      "hit": false,
      "t": 139500,
      "d": 500,
      "v": 80
    },
    {
      "midi": 76,
      "hit": false,
      "t": 139500,
      "d": 500,
      "v": 80
    },
    {
      "midi": 67,
      "hit": false,
      "t": 140000,
      "d": 500,
      "v": 80
    },
    {
      "midi": 65,
      "hit": false,
      "t": 140500,
      "d": 500,
      "v": 80
    },
    {
      "midi": 72,
      "hit": false,
      "t": 141000,
      "d": 500,
      "v": 80
    },
    {
      "midi": 76,
      "hit": false,
      "t": 141000,
      "d": 500,
      "v": 80
    },
    {
      "midi": 64,
      "hit": false,
      "t": 141000,
      "d": 500,
      "v": 80
    },
    {
      "midi": 72,
      "hit": false,
      "t": 141500,
      "d": 500,
      "v": 80
    },
    {
      "midi": 74,
      "hit": false,
      "t": 141500,
      "d": 500,
      "v": 80
    },
    {
      "midi": 65,
      "hit": false,
      "t": 141500,
      "d": 500,
      "v": 80
    },
    {
      "midi": 62,
      "hit": false,
      "t": 142000,
      "d": 500,
      "v": 80
    },
    {
      "midi": 67,
      "hit": false,
      "t": 142500,
      "d": 500,
      "v": 80
    },
    {
      "midi": 71,
      "hit": false,
      "t": 142500,
      "d": 500,
      "v": 80
    },
    {
      "midi": 74,
      "hit": false,
      "t": 142500,
      "d": 500,
      "v": 80
    },
    {
      "midi": 65,
      "hit": false,
      "t": 143000,
      "d": 500,
      "v": 80
    },
    {
      "midi": 64,
      "hit": false,
      "t": 143500,
      "d": 500,
      "v": 80
    },
    {
      "midi": 71,
      "hit": false,
      "t": 144000,
      "d": 500,
      "v": 80
    },
    {
      "midi": 74,
      "hit": false,
      "t": 144000,
      "d": 500,
      "v": 80
    },
    {
      "midi": 62,
      "hit": false,
      "t": 144000,
      "d": 500,
      "v": 80
    },
    {
      "midi": 70,
      "hit": false,
      "t": 144500,
      "d": 500,
      "v": 80
    },
    {
      "midi": 79,
      "hit": false,
      "t": 144500,
      "d": 500,
      "v": 80
    },
    {
      "midi": 64,
      "hit": false,
      "t": 144500,
      "d": 500,
      "v": 80
    },
    {
      "midi": 72,
      "hit": false,
      "t": 145000,
      "d": 500,
      "v": 80
    },
    {
      "midi": 76,
      "hit": false,
      "t": 145000,
      "d": 500,
      "v": 80
    },
    {
      "midi": 60,
      "hit": false,
      "t": 145000,
      "d": 500,
      "v": 80
    },
    {
      "midi": 72,
      "hit": false,
      "t": 145500,
      "d": 500,
      "v": 80
    },
    {
      "midi": 81,
      "hit": false,
      "t": 145500,
      "d": 500,
      "v": 80
    },
    {
      "midi": 53,
      "hit": false,
      "t": 145500,
      "d": 500,
      "v": 80
    },
    {
      "midi": 65,
      "hit": false,
      "t": 145500,
      "d": 500,
      "v": 80
    },
    {
      "midi": 70,
      "hit": false,
      "t": 146000,
      "d": 500,
      "v": 80
    },
    {
      "midi": 79,
      "hit": false,
      "t": 146000,
      "d": 500,
      "v": 80
    },
    {
      "midi": 69,
      "hit": false,
      "t": 146500,
      "d": 500,
      "v": 80
    },
    {
      "midi": 77,
      "hit": false,
      "t": 146500,
      "d": 500,
      "v": 80
    },
    {
      "midi": 67,
      "hit": false,
      "t": 147000,
      "d": 500,
      "v": 80
    },
    {
      "midi": 76,
      "hit": false,
      "t": 147000,
      "d": 500,
      "v": 80
    },
    {
      "midi": 65,
      "hit": false,
      "t": 147500,
      "d": 500,
      "v": 80
    },
    {
      "midi": 74,
      "hit": false,
      "t": 147500,
      "d": 500,
      "v": 80
    },
    {
      "midi": 64,
      "hit": false,
      "t": 148000,
      "d": 500,
      "v": 80
    },
    {
      "midi": 72,
      "hit": false,
      "t": 148000,
      "d": 500,
      "v": 80
    },
    {
      "midi": 71,
      "hit": false,
      "t": 148500,
      "d": 250,
      "v": 80
    },
    {
      "midi": 55,
      "hit": false,
      "t": 148500,
      "d": 2500,
      "v": 80
    },
    {
      "midi": 62,
      "hit": false,
      "t": 148500,
      "d": 2500,
      "v": 80
    },
    {
      "midi": 72,
      "hit": false,
      "t": 148750,
      "d": 250,
      "v": 80
    },
    {
      "midi": 71,
      "hit": false,
      "t": 149000,
      "d": 250,
      "v": 80
    },
    {
      "midi": 72,
      "hit": false,
      "t": 149250,
      "d": 250,
      "v": 80
    },
    {
      "midi": 71,
      "hit": false,
      "t": 149500,
      "d": 1500,
      "v": 80
    },
    {
      "midi": 72,
      "hit": false,
      "t": 151000,
      "d": 500,
      "v": 80
    },
    {
      "midi": 72,
      "hit": false,
      "t": 151500,
      "d": 1500,
      "v": 80
    },
    {
      "midi": 60,
      "hit": false,
      "t": 151500,
      "d": 1500,
      "v": 80
    }
  ]
}