{
  "jsonPath": "Classical/Classical/Johann Sebastian Bach/polonaise-in-f-major.json",
  "path": "Classical\\Classical\\Johann Sebastian Bach\\Polonaise in F major.mid",
  "name": "Polonaise in F major",
  "difficulty": "Advanced",
  "bpm": 60,
  "notes": [
    {
      "midi": 77,
      "hit": false,
      "t": 0,
      "d": 500,
      "v": 127
    },
    {
      "midi": 57,
      "hit": false,
      "t": 0,
      "d": 500,
      "v": 127
    },
    {
      "midi": 53,
      "hit": false,
      "t": 0,
      "d": 1000,
      "v": 127
    },
    {
      "midi": 77,
      "hit": false,
      "t": 500,
      "d": 250,
      "v": 127
    },
    {
      "midi": 58,
      "hit": false,
      "t": 500,
      "d": 500,
      "v": 127
    },
    {
      "midi": 79,
      "hit": false,
      "t": 750,
      "d": 250,
      "v": 127
    },
    {
      "midi": 79,
      "hit": false,
      "t": 1000,
      "d": 500,
      "v": 127
    },
    {
      "midi": 81,
      "hit": false,
      "t": 1000,
      "d": 500,
      "v": 127
    },
    {
      "midi": 53,
      "hit": false,
      "t": 1000,
      "d": 1000,
      "v": 127
    },
    {
      "midi": 60,
      "hit": false,
      "t": 1000,
      "d": 1000,
      "v": 127
    },
    {
      "midi": 79,
      "hit": false,
      "t": 1500,
      "d": 250,
      "v": 127
    },
    {
      "midi": 81,
      "hit": false,
      "t": 1750,
      "d": 250,
      "v": 127
    },
    {
      "midi": 82,
      "hit": false,
      "t": 2000,
      "d": 250,
      "v": 127
    },
    {
      "midi": 53,
      "hit": false,
      "t": 2000,
      "d": 1000,
      "v": 127
    },
    {
      "midi": 60,
      "hit": false,
      "t": 2000,
      "d": 1000,
      "v": 127
    },
    {
      "midi": 81,
      "hit": false,
      "t": 2250,
      "d": 250,
      "v": 127
    },
    {
      "midi": 79,
      "hit": false,
      "t": 2500,
      "d": 250,
      "v": 127
    },
    {
      "midi": 77,
      "hit": false,
      "t": 2750,
      "d": 250,
      "v": 127
    },
    {
      "midi": 79,
      "hit": false,
      "t": 3000,
      "d": 500,
      "v": 127
    },
    {
      "midi": 52,
      "hit": false,
      "t": 3000,
      "d": 1000,
      "v": 127
    },
    {
      "midi": 60,
      "hit": false,
      "t": 3000,
      "d": 1000,
      "v": 127
    },
    {
      "midi": 79,
      "hit": false,
      "t": 3500,
      "d": 250,
      "v": 127
    },
    {
      "midi": 81,
      "hit": false,
      "t": 3750,
      "d": 250,
      "v": 127
    },
    {
      "midi": 77,
      "hit": false,
      "t": 4000,
      "d": 500,
      "v": 127
    },
    {
      "midi": 79,
      "hit": false,
      "t": 4000,
      "d": 500,
      "v": 127
    },
    {
      "midi": 50,
      "hit": false,
      "t": 4000,
      "d": 1000,
      "v": 127
    },
    {
      "midi": 59,
      "hit": false,
      "t": 4000,
      "d": 1000,
      "v": 127
    },
    {
      "midi": 76,
      "hit": false,
      "t": 4500,
      "d": 250,
      "v": 127
    },
    {
      "midi": 74,
      "hit": false,
      "t": 4750,
      "d": 250,
      "v": 127
    },
    {
      "midi": 76,
      "hit": false,
      "t": 5000,
      "d": 500,
      "v": 127
    },
    {
      "midi": 48,
      "hit": false,
      "t": 5000,
      "d": 1000,
      "v": 127
    },
    {
      "midi": 60,
      "hit": false,
      "t": 5000,
      "d": 1000,
      "v": 127
    },
    {
      "midi": 72,
      "hit": false,
      "t": 5500,
      "d": 500,
      "v": 127
    },
    {
      "midi": 65,
      "hit": false,
      "t": 6000,
      "d": 1000,
      "v": 127
    },
    {
      "midi": 69,
      "hit": false,
      "t": 6000,
      "d": 1000,
      "v": 127
    },
    {
      "midi": 70,
      "hit": false,
      "t": 6000,
      "d": 1000,
      "v": 127
    },
    {
      "midi": 50,
      "hit": false,
      "t": 6000,
      "d": 250,
      "v": 127
    },
    {
      "midi": 51,
      "hit": false,
      "t": 6250,
      "d": 250,
      "v": 127
    },
    {
      "midi": 50,
      "hit": false,
      "t": 6500,
      "d": 250,
      "v": 127
    },
    {
      "midi": 48,
      "hit": false,
      "t": 6750,
      "d": 250,
      "v": 127
    },
    {
      "midi": 65,
      "hit": false,
      "t": 7000,
      "d": 1000,
      "v": 127
    },
    {
      "midi": 74,
      "hit": false,
      "t": 7000,
      "d": 1000,
      "v": 127
    },
    {
      "midi": 46,
      "hit": false,
      "t": 7000,
      "d": 500,
      "v": 127
    },
    {
      "midi": 58,
      "hit": false,
      "t": 7500,
      "d": 500,
      "v": 127
    },
    {
      "midi": 65,
      "hit": false,
      "t": 8000,
      "d": 1000,
      "v": 127
    },
    {
      "midi": 72,
      "hit": false,
      "t": 8000,
      "d": 1000,
      "v": 127
    },
    {
      "midi": 57,
      "hit": false,
      "t": 8000,
      "d": 500,
      "v": 127
    },
    {
      "midi": 45,
      "hit": false,
      "t": 8500,
      "d": 500,
      "v": 127
    },
    {
      "midi": 70,
      "hit": false,
      "t": 9000,
      "d": 500,
      "v": 127
    },
    {
      "midi": 43,
      "hit": false,
      "t": 9000,
      "d": 500,
      "v": 127
    },
    {
      "midi": 72,
      "hit": false,
      "t": 9500,
      "d": 250,
      "v": 127
    },
    {
      "midi": 53,
      "hit": false,
      "t": 9500,
      "d": 500,
      "v": 127
    },
    {
      "midi": 74,
      "hit": false,
      "t": 9750,
      "d": 250,
      "v": 127
    },
    {
      "midi": 70,
      "hit": false,
      "t": 10000,
      "d": 500,
      "v": 127
    },
    {
      "midi": 72,
      "hit": false,
      "t": 10000,
      "d": 500,
      "v": 127
    },
    {
      "midi": 52,
      "hit": false,
      "t": 10000,
      "d": 500,
      "v": 127
    },
    {
      "midi": 69,
      "hit": false,
      "t": 10500,
      "d": 250,
      "v": 127
    },
    {
      "midi": 48,
      "hit": false,
      "t": 10500,
      "d": 500,
      "v": 127
    },
    {
      "midi": 67,
      "hit": false,
      "t": 10750,
      "d": 250,
      "v": 127
    },
    {
      "midi": 69,
      "hit": false,
      "t": 11000,
      "d": 500,
      "v": 127
    },
    {
      "midi": 53,
      "hit": false,
      "t": 11000,
      "d": 250,
      "v": 127
    },
    {
      "midi": 48,
      "hit": false,
      "t": 11250,
      "d": 250,
      "v": 127
    },
    {
      "midi": 65,
      "hit": false,
      "t": 11500,
      "d": 500,
      "v": 127
    },
    {
      "midi": 46,
      "hit": false,
      "t": 11500,
      "d": 250,
      "v": 127
    },
    {
      "midi": 48,
      "hit": false,
      "t": 11750,
      "d": 250,
      "v": 127
    },
    {
      "midi": 69,
      "hit": false,
      "t": 12000,
      "d": 500,
      "v": 127
    },
    {
      "midi": 41,
      "hit": false,
      "t": 12000,
      "d": 1000,
      "v": 127
    },
    {
      "midi": 53,
      "hit": false,
      "t": 12000,
      "d": 1000,
      "v": 127
    },
    {
      "midi": 70,
      "hit": false,
      "t": 12500,
      "d": 250,
      "v": 127
    },
    {
      "midi": 72,
      "hit": false,
      "t": 12750,
      "d": 250,
      "v": 127
    },
    {
      "midi": 74,
      "hit": false,
      "t": 13000,
      "d": 500,
      "v": 127
    },
    {
      "midi": 46,
      "hit": false,
      "t": 13000,
      "d": 1000,
      "v": 127
    },
    {
      "midi": 53,
      "hit": false,
      "t": 13000,
      "d": 1000,
      "v": 127
    },
    {
      "midi": 74,
      "hit": false,
      "t": 13500,
      "d": 250,
      "v": 127
    },
    {
      "midi": 76,
      "hit": false,
      "t": 13750,
      "d": 250,
      "v": 127
    },
    {
      "midi": 72,
      "hit": false,
      "t": 14000,
      "d": 1000,
      "v": 127
    },
    {
      "midi": 74,
      "hit": false,
      "t": 14000,
      "d": 1000,
      "v": 127
    },
    {
      "midi": 45,
      "hit": false,
      "t": 14000,
      "d": 1000,
      "v": 127
    },
    {
      "midi": 53,
      "hit": false,
      "t": 14000,
      "d": 1000,
      "v": 127
    },
    {
      "midi": 70,
      "hit": false,
      "t": 15000,
      "d": 500,
      "v": 127
    },
    {
      "midi": 72,
      "hit": false,
      "t": 15000,
      "d": 500,
      "v": 127
    },
    {
      "midi": 50,
      "hit": false,
      "t": 15000,
      "d": 1000,
      "v": 127
    },
    {
      "midi": 53,
      "hit": false,
      "t": 15000,
      "d": 1000,
      "v": 127
    },
    {
      "midi": 72,
      "hit": false,
      "t": 15500,
      "d": 250,
      "v": 127
    },
    {
      "midi": 74,
      "hit": false,
      "t": 15750,
      "d": 250,
      "v": 127
    },
    {
      "midi": 70,
      "hit": false,
      "t": 16000,
      "d": 500,
      "v": 127
    },
    {
      "midi": 72,
      "hit": false,
      "t": 16000,
      "d": 500,
      "v": 127
    },
    {
      "midi": 52,
      "hit": false,
      "t": 16000,
      "d": 1000,
      "v": 127
    },
    {
      "midi": 55,
      "hit": false,
      "t": 16000,
      "d": 1000,
      "v": 127
    },
    {
      "midi": 69,
      "hit": false,
      "t": 16500,
      "d": 250,
      "v": 127
    },
    {
      "midi": 67,
      "hit": false,
      "t": 16750,
      "d": 250,
      "v": 127
    },
    {
      "midi": 69,
      "hit": false,
      "t": 17000,
      "d": 500,
      "v": 127
    },
    {
      "midi": 53,
      "hit": false,
      "t": 17000,
      "d": 250,
      "v": 127
    },
    {
      "midi": 52,
      "hit": false,
      "t": 17250,
      "d": 250,
      "v": 127
    },
    {
      "midi": 65,
      "hit": false,
      "t": 17500,
      "d": 500,
      "v": 127
    },
    {
      "midi": 53,
      "hit": false,
      "t": 17500,
      "d": 250,
      "v": 127
    },
    {
      "midi": 55,
      "hit": false,
      "t": 17750,
      "d": 250,
      "v": 127
    },
    {
      "midi": 77,
      "hit": false,
      "t": 18000,
      "d": 500,
      "v": 127
    },
    {
      "midi": 57,
      "hit": false,
      "t": 18000,
      "d": 500,
      "v": 127
    },
    {
      "midi": 77,
      "hit": false,
      "t": 18500,
      "d": 250,
      "v": 127
    },
    {
      "midi": 53,
      "hit": false,
      "t": 18500,
      "d": 500,
      "v": 127
    },
    {
      "midi": 76,
      "hit": false,
      "t": 18750,
      "d": 250,
      "v": 127
    },
    {
      "midi": 74,
      "hit": false,
      "t": 19000,
      "d": 500,
      "v": 127
    },
    {
      "midi": 58,
      "hit": false,
      "t": 19000,
      "d": 500,
      "v": 127
    },
    {
      "midi": 72,
      "hit": false,
      "t": 19500,
      "d": 500,
      "v": 127
    },
    {
      "midi": 60,
      "hit": false,
      "t": 19500,
      "d": 500,
      "v": 127
    },
    {
      "midi": 70,
      "hit": false,
      "t": 20000,
      "d": 500,
      "v": 127
    },
    {
      "midi": 62,
      "hit": false,
      "t": 20000,
      "d": 500,
      "v": 127
    },
    {
      "midi": 69,
      "hit": false,
      "t": 20500,
      "d": 500,
      "v": 127
    },
    {
      "midi": 58,
      "hit": false,
      "t": 20500,
      "d": 500,
      "v": 127
    },
    {
      "midi": 67,
      "hit": false,
      "t": 21000,
      "d": 250,
      "v": 127
    },
    {
      "midi": 60,
      "hit": false,
      "t": 21000,
      "d": 500,
      "v": 127
    },
    {
      "midi": 70,
      "hit": false,
      "t": 21250,
      "d": 250,
      "v": 127
    },
    {
      "midi": 69,
      "hit": false,
      "t": 21500,
      "d": 250,
      "v": 127
    },
    {
      "midi": 48,
      "hit": false,
      "t": 21500,
      "d": 500,
      "v": 127
    },
    {
      "midi": 67,
      "hit": false,
      "t": 21750,
      "d": 250,
      "v": 127
    },
    {
      "midi": 65,
      "hit": false,
      "t": 22000,
      "d": 2000,
      "v": 127
    },
    {
      "midi": 67,
      "hit": false,
      "t": 22000,
      "d": 2000,
      "v": 127
    },
    {
      "midi": 53,
      "hit": false,
      "t": 22000,
      "d": 500,
      "v": 127
    },
    {
      "midi": 48,
      "hit": false,
      "t": 22500,
      "d": 250,
      "v": 127
    },
    {
      "midi": 45,
      "hit": false,
      "t": 22750,
      "d": 250,
      "v": 127
    },
    {
      "midi": 41,
      "hit": false,
      "t": 23000,
      "d": 1000,
      "v": 127
    },
    {
      "midi": 81,
      "hit": false,
      "t": 24000,
      "d": 500,
      "v": 127
    },
    {
      "midi": 53,
      "hit": false,
      "t": 24000,
      "d": 1000,
      "v": 127
    },
    {
      "midi": 60,
      "hit": false,
      "t": 24000,
      "d": 1000,
      "v": 127
    },
    {
      "midi": 81,
      "hit": false,
      "t": 24500,
      "d": 250,
      "v": 127
    },
    {
      "midi": 79,
      "hit": false,
      "t": 24750,
      "d": 250,
      "v": 127
    },
    {
      "midi": 79,
      "hit": false,
      "t": 25000,
      "d": 500,
      "v": 127
    },
    {
      "midi": 81,
      "hit": false,
      "t": 25000,
      "d": 500,
      "v": 127
    },
    {
      "midi": 53,
      "hit": false,
      "t": 25000,
      "d": 1000,
      "v": 127
    },
    {
      "midi": 60,
      "hit": false,
      "t": 25000,
      "d": 1000,
      "v": 127
    },
    {
      "midi": 79,
      "hit": false,
      "t": 25500,
      "d": 250,
      "v": 127
    },
    {
      "midi": 81,
      "hit": false,
      "t": 25750,
      "d": 250,
      "v": 127
    },
    {
      "midi": 82,
      "hit": false,
      "t": 26000,
      "d": 250,
      "v": 127
    },
    {
      "midi": 53,
      "hit": false,
      "t": 26000,
      "d": 1000,
      "v": 127
    },
    {
      "midi": 60,
      "hit": false,
      "t": 26000,
      "d": 1000,
      "v": 127
    },
    {
      "midi": 81,
      "hit": false,
      "t": 26250,
      "d": 250,
      "v": 127
    },
    {
      "midi": 79,
      "hit": false,
      "t": 26500,
      "d": 250,
      "v": 127
    },
    {
      "midi": 77,
      "hit": false,
      "t": 26750,
      "d": 250,
      "v": 127
    },
    {
      "midi": 79,
      "hit": false,
      "t": 27000,
      "d": 500,
      "v": 127
    },
    {
      "midi": 52,
      "hit": false,
      "t": 27000,
      "d": 1000,
      "v": 127
    },
    {
      "midi": 60,
      "hit": false,
      "t": 27000,
      "d": 1000,
      "v": 127
    },
    {
      "midi": 79,
      "hit": false,
      "t": 27500,
      "d": 250,
      "v": 127
    },
    {
      "midi": 77,
      "hit": false,
      "t": 27750,
      "d": 250,
      "v": 127
    },
    {
      "midi": 77,
      "hit": false,
      "t": 28000,
      "d": 500,
      "v": 127
    },
    {
      "midi": 79,
      "hit": false,
      "t": 28000,
      "d": 500,
      "v": 127
    },
    {
      "midi": 48,
      "hit": false,
      "t": 28000,
      "d": 1000,
      "v": 127
    },
    {
      "midi": 52,
      "hit": false,
      "t": 28000,
      "d": 1000,
      "v": 127
    },
    {
      "midi": 55,
      "hit": false,
      "t": 28000,
      "d": 1000,
      "v": 127
    },
    {
      "midi": 60,
      "hit": false,
      "t": 28000,
      "d": 1000,
      "v": 127
    },
    {
      "midi": 77,
      "hit": false,
      "t": 28500,
      "d": 250,
      "v": 127
    },
    {
      "midi": 79,
      "hit": false,
      "t": 28750,
      "d": 250,
      "v": 127
    },
    {
      "midi": 81,
      "hit": false,
      "t": 29000,
      "d": 250,
      "v": 127
    },
    {
      "midi": 52,
      "hit": false,
      "t": 29000,
      "d": 1000,
      "v": 127
    },
    {
      "midi": 60,
      "hit": false,
      "t": 29000,
      "d": 1000,
      "v": 127
    },
    {
      "midi": 79,
      "hit": false,
      "t": 29250,
      "d": 250,
      "v": 127
    },
    {
      "midi": 77,
      "hit": false,
      "t": 29500,
      "d": 250,
      "v": 127
    },
    {
      "midi": 76,
      "hit": false,
      "t": 29750,
      "d": 250,
      "v": 127
    },
    {
      "midi": 81,
      "hit": false,
      "t": 30000,
      "d": 500,
      "v": 127
    },
    {
      "midi": 53,
      "hit": false,
      "t": 30000,
      "d": 1000,
      "v": 127
    },
    {
      "midi": 60,
      "hit": false,
      "t": 30000,
      "d": 1000,
      "v": 127
    },
    {
      "midi": 81,
      "hit": false,
      "t": 30500,
      "d": 250,
      "v": 127
    },
    {
      "midi": 79,
      "hit": false,
      "t": 30750,
      "d": 250,
      "v": 127
    },
    {
      "midi": 77,
      "hit": false,
      "t": 31000,
      "d": 500,
      "v": 127
    },
    {
      "midi": 57,
      "hit": false,
      "t": 31000,
      "d": 1000,
      "v": 127
    },
    {
      "midi": 60,
      "hit": false,
      "t": 31000,
      "d": 1000,
      "v": 127
    },
    {
      "midi": 76,
      "hit": false,
      "t": 31500,
      "d": 500,
      "v": 127
    },
    {
      "midi": 74,
      "hit": false,
      "t": 32000,
      "d": 500,
      "v": 127
    },
    {
      "midi": 53,
      "hit": false,
      "t": 32000,
      "d": 1000,
      "v": 127
    },
    {
      "midi": 57,
      "hit": false,
      "t": 32000,
      "d": 1000,
      "v": 127
    },
    {
      "midi": 72,
      "hit": false,
      "t": 32500,
      "d": 500,
      "v": 127
    },
    {
      "midi": 71,
      "hit": false,
      "t": 33000,
      "d": 250,
      "v": 127
    },
    {
      "midi": 55,
      "hit": false,
      "t": 33000,
      "d": 500,
      "v": 127
    },
    {
      "midi": 72,
      "hit": false,
      "t": 33250,
      "d": 250,
      "v": 127
    },
    {
      "midi": 74,
      "hit": false,
      "t": 33500,
      "d": 250,
      "v": 127
    },
    {
      "midi": 43,
      "hit": false,
      "t": 33500,
      "d": 500,
      "v": 127
    },
    {
      "midi": 71,
      "hit": false,
      "t": 33750,
      "d": 250,
      "v": 127
    },
    {
      "midi": 72,
      "hit": false,
      "t": 34000,
      "d": 1000,
      "v": 127
    },
    {
      "midi": 48,
      "hit": false,
      "t": 34000,
      "d": 500,
      "v": 127
    },
    {
      "midi": 36,
      "hit": false,
      "t": 34500,
      "d": 500,
      "v": 127
    },
    {
      "midi": 70,
      "hit": false,
      "t": 35000,
      "d": 1000,
      "v": 127
    },
    {
      "midi": 38,
      "hit": false,
      "t": 35000,
      "d": 500,
      "v": 127
    },
    {
      "midi": 40,
      "hit": false,
      "t": 35500,
      "d": 500,
      "v": 127
    },
    {
      "midi": 69,
      "hit": false,
      "t": 36000,
      "d": 500,
      "v": 127
    },
    {
      "midi": 41,
      "hit": false,
      "t": 36000,
      "d": 500,
      "v": 127
    },
    {
      "midi": 72,
      "hit": false,
      "t": 36500,
      "d": 500,
      "v": 127
    },
    {
      "midi": 53,
      "hit": false,
      "t": 36500,
      "d": 250,
      "v": 127
    },
    {
      "midi": 55,
      "hit": false,
      "t": 36750,
      "d": 250,
      "v": 127
    },
    {
      "midi": 72,
      "hit": false,
      "t": 37000,
      "d": 500,
      "v": 127
    },
    {
      "midi": 57,
      "hit": false,
      "t": 37000,
      "d": 500,
      "v": 127
    },
    {
      "midi": 70,
      "hit": false,
      "t": 37500,
      "d": 250,
      "v": 127
    },
    {
      "midi": 53,
      "hit": false,
      "t": 37500,
      "d": 500,
      "v": 127
    },
    {
      "midi": 72,
      "hit": false,
      "t": 37750,
      "d": 250,
      "v": 127
    },
    {
      "midi": 72,
      "hit": false,
      "t": 38000,
      "d": 1000,
      "v": 127
    },
    {
      "midi": 74,
      "hit": false,
      "t": 38000,
      "d": 1000,
      "v": 127
    },
    {
      "midi": 58,
      "hit": false,
      "t": 38000,
      "d": 500,
      "v": 127
    },
    {
      "midi": 46,
      "hit": false,
      "t": 38500,
      "d": 500,
      "v": 127
    },
    {
      "midi": 67,
      "hit": false,
      "t": 39000,
      "d": 500,
      "v": 127
    },
    {
      "midi": 48,
      "hit": false,
      "t": 39000,
      "d": 500,
      "v": 127
    },
    {
      "midi": 70,
      "hit": false,
      "t": 39500,
      "d": 500,
      "v": 127
    },
    {
      "midi": 50,
      "hit": false,
      "t": 39500,
      "d": 500,
      "v": 127
    },
    {
      "midi": 70,
      "hit": false,
      "t": 40000,
      "d": 500,
      "v": 127
    },
    {
      "midi": 48,
      "hit": false,
      "t": 40000,
      "d": 500,
      "v": 127
    },
    {
      "midi": 69,
      "hit": false,
      "t": 40500,
      "d": 250,
      "v": 127
    },
    {
      "midi": 46,
      "hit": false,
      "t": 40500,
      "d": 500,
      "v": 127
    },
    {
      "midi": 70,
      "hit": false,
      "t": 40750,
      "d": 250,
      "v": 127
    },
    {
      "midi": 70,
      "hit": false,
      "t": 41000,
      "d": 1000,
      "v": 127
    },
    {
      "midi": 72,
      "hit": false,
      "t": 41000,
      "d": 1000,
      "v": 127
    },
    {
      "midi": 45,
      "hit": false,
      "t": 41000,
      "d": 500,
      "v": 127
    },
    {
      "midi": 43,
      "hit": false,
      "t": 41500,
      "d": 500,
      "v": 127
    },
    {
      "midi": 77,
      "hit": false,
      "t": 42000,
      "d": 500,
      "v": 127
    },
    {
      "midi": 45,
      "hit": false,
      "t": 42000,
      "d": 500,
      "v": 127
    },
    {
      "midi": 77,
      "hit": false,
      "t": 42500,
      "d": 250,
      "v": 127
    },
    {
      "midi": 41,
      "hit": false,
      "t": 42500,
      "d": 500,
      "v": 127
    },
    {
      "midi": 76,
      "hit": false,
      "t": 42750,
      "d": 250,
      "v": 127
    },
    {
      "midi": 74,
      "hit": false,
      "t": 43000,
      "d": 500,
      "v": 127
    },
    {
      "midi": 46,
      "hit": false,
      "t": 43000,
      "d": 500,
      "v": 127
    },
    {
      "midi": 72,
      "hit": false,
      "t": 43500,
      "d": 500,
      "v": 127
    },
    {
      "midi": 48,
      "hit": false,
      "t": 43500,
      "d": 500,
      "v": 127
    },
    {
      "midi": 70,
      "hit": false,
      "t": 44000,
      "d": 500,
      "v": 127
    },
    {
      "midi": 50,
      "hit": false,
      "t": 44000,
      "d": 500,
      "v": 127
    },
    {
      "midi": 69,
      "hit": false,
      "t": 44500,
      "d": 500,
      "v": 127
    },
    {
      "midi": 46,
      "hit": false,
      "t": 44500,
      "d": 500,
      "v": 127
    },
    {
      "midi": 67,
      "hit": false,
      "t": 45000,
      "d": 250,
      "v": 127
    },
    {
      "midi": 48,
      "hit": false,
      "t": 45000,
      "d": 500,
      "v": 127
    },
    {
      "midi": 70,
      "hit": false,
      "t": 45250,
      "d": 250,
      "v": 127
    },
    {
      "midi": 69,
      "hit": false,
      "t": 45500,
      "d": 250,
      "v": 127
    },
    {
      "midi": 36,
      "hit": false,
      "t": 45500,
      "d": 500,
      "v": 127
    },
    {
      "midi": 67,
      "hit": false,
      "t": 45750,
      "d": 250,
      "v": 127
    },
    {
      "midi": 65,
      "hit": false,
      "t": 46000,
      "d": 2000,
      "v": 127
    },
    {
      "midi": 67,
      "hit": false,
      "t": 46000,
      "d": 2000,
      "v": 127
    },
    {
      "midi": 41,
      "hit": false,
      "t": 46000,
      "d": 500,
      "v": 127
    },
    {
      "midi": 45,
      "hit": false,
      "t": 46500,
      "d": 250,
      "v": 127
    },
    {
      "midi": 48,
      "hit": false,
      "t": 46750,
      "d": 250,
      "v": 127
    },
    {
      "midi": 53,
      "hit": false,
      "t": 47000,
      "d": 1000,
      "v": 127
    }
  ]
}