{
  "jsonPath": "Classical/Classical/Johann Sebastian Bach/prelude-and-fugue-in-c-minor.json",
  "path": "Classical\\Classical\\Johann Sebastian Bach\\Prelude and Fugue in C minor.mid",
  "name": "Prelude and Fugue in C minor",
  "difficulty": "Advanced",
  "bpm": 125,
  "notes": [
    {
      "midi": 72,
      "hit": false,
      "t": 0,
      "d": 120,
      "v": 96
    },
    {
      "midi": 48,
      "hit": false,
      "t": 0,
      "d": 120,
      "v": 88
    },
    {
      "midi": 63,
      "hit": false,
      "t": 120,
      "d": 120,
      "v": 80
    },
    {
      "midi": 55,
      "hit": false,
      "t": 120,
      "d": 120,
      "v": 73
    },
    {
      "midi": 62,
      "hit": false,
      "t": 240,
      "d": 120,
      "v": 77
    },
    {
      "midi": 53,
      "hit": false,
      "t": 240,
      "d": 120,
      "v": 72
    },
    {
      "midi": 63,
      "hit": false,
      "t": 360,
      "d": 120,
      "v": 77
    },
    {
      "midi": 55,
      "hit": false,
      "t": 360,
      "d": 120,
      "v": 72
    },
    {
      "midi": 60,
      "hit": false,
      "t": 480,
      "d": 120,
      "v": 80
    },
    {
      "midi": 51,
      "hit": false,
      "t": 480,
      "d": 120,
      "v": 80
    },
    {
      "midi": 63,
      "hit": false,
      "t": 600,
      "d": 120,
      "v": 76
    },
    {
      "midi": 55,
      "hit": false,
      "t": 600,
      "d": 120,
      "v": 72
    },
    {
      "midi": 62,
      "hit": false,
      "t": 720,
      "d": 120,
      "v": 76
    },
    {
      "midi": 53,
      "hit": false,
      "t": 720,
      "d": 120,
      "v": 73
    },
    {
      "midi": 63,
      "hit": false,
      "t": 840,
      "d": 120,
      "v": 76
    },
    {
      "midi": 55,
      "hit": false,
      "t": 840,
      "d": 120,
      "v": 73
    },
    {
      "midi": 72,
      "hit": false,
      "t": 960,
      "d": 120,
      "v": 96
    },
    {
      "midi": 48,
      "hit": false,
      "t": 960,
      "d": 120,
      "v": 88
    },
    {
      "midi": 63,
      "hit": false,
      "t": 1080,
      "d": 120,
      "v": 80
    },
    {
      "midi": 55,
      "hit": false,
      "t": 1080,
      "d": 120,
      "v": 74
    },
    {
      "midi": 62,
      "hit": false,
      "t": 1200,
      "d": 120,
      "v": 78
    },
    {
      "midi": 53,
      "hit": false,
      "t": 1200,
      "d": 120,
      "v": 74
    },
    {
      "midi": 63,
      "hit": false,
      "t": 1320,
      "d": 120,
      "v": 78
    },
    {
      "midi": 55,
      "hit": false,
      "t": 1320,
      "d": 120,
      "v": 72
    },
    {
      "midi": 60,
      "hit": false,
      "t": 1440,
      "d": 120,
      "v": 80
    },
    {
      "midi": 51,
      "hit": false,
      "t": 1440,
      "d": 120,
      "v": 80
    },
    {
      "midi": 63,
      "hit": false,
      "t": 1560,
      "d": 120,
      "v": 78
    },
    {
      "midi": 55,
      "hit": false,
      "t": 1560,
      "d": 120,
      "v": 73
    },
    {
      "midi": 62,
      "hit": false,
      "t": 1680,
      "d": 120,
      "v": 77
    },
    {
      "midi": 53,
      "hit": false,
      "t": 1680,
      "d": 120,
      "v": 73
    },
    {
      "midi": 63,
      "hit": false,
      "t": 1800,
      "d": 120,
      "v": 77
    },
    {
      "midi": 55,
      "hit": false,
      "t": 1800,
      "d": 120,
      "v": 73
    },
    {
      "midi": 68,
      "hit": false,
      "t": 1920,
      "d": 120,
      "v": 96
    },
    {
      "midi": 48,
      "hit": false,
      "t": 1920,
      "d": 120,
      "v": 88
    },
    {
      "midi": 65,
      "hit": false,
      "t": 2040,
      "d": 120,
      "v": 80
    },
    {
      "midi": 56,
      "hit": false,
      "t": 2040,
      "d": 120,
      "v": 73
    },
    {
      "midi": 64,
      "hit": false,
      "t": 2160,
      "d": 120,
      "v": 76
    },
    {
      "midi": 55,
      "hit": false,
      "t": 2160,
      "d": 120,
      "v": 73
    },
    {
      "midi": 65,
      "hit": false,
      "t": 2280,
      "d": 120,
      "v": 76
    },
    {
      "midi": 56,
      "hit": false,
      "t": 2280,
      "d": 120,
      "v": 73
    },
    {
      "midi": 60,
      "hit": false,
      "t": 2400,
      "d": 120,
      "v": 80
    },
    {
      "midi": 53,
      "hit": false,
      "t": 2400,
      "d": 120,
      "v": 80
    },
    {
      "midi": 65,
      "hit": false,
      "t": 2520,
      "d": 120,
      "v": 76
    },
    {
      "midi": 56,
      "hit": false,
      "t": 2520,
      "d": 120,
      "v": 73
    },
    {
      "midi": 64,
      "hit": false,
      "t": 2640,
      "d": 120,
      "v": 76
    },
    {
      "midi": 55,
      "hit": false,
      "t": 2640,
      "d": 120,
      "v": 73
    },
    {
      "midi": 65,
      "hit": false,
      "t": 2760,
      "d": 120,
      "v": 76
    },
    {
      "midi": 56,
      "hit": false,
      "t": 2760,
      "d": 120,
      "v": 73
    },
    {
      "midi": 68,
      "hit": false,
      "t": 2880,
      "d": 120,
      "v": 96
    },
    {
      "midi": 48,
      "hit": false,
      "t": 2880,
      "d": 120,
      "v": 88
    },
    {
      "midi": 65,
      "hit": false,
      "t": 3000,
      "d": 120,
      "v": 80
    },
    {
      "midi": 56,
      "hit": false,
      "t": 3000,
      "d": 120,
      "v": 74
    },
    {
      "midi": 64,
      "hit": false,
      "t": 3120,
      "d": 120,
      "v": 77
    },
    {
      "midi": 55,
      "hit": false,
      "t": 3120,
      "d": 120,
      "v": 72
    },
    {
      "midi": 65,
      "hit": false,
      "t": 3240,
      "d": 120,
      "v": 77
    },
    {
      "midi": 56,
      "hit": false,
      "t": 3240,
      "d": 120,
      "v": 72
    },
    {
      "midi": 60,
      "hit": false,
      "t": 3360,
      "d": 120,
      "v": 80
    },
    {
      "midi": 53,
      "hit": false,
      "t": 3360,
      "d": 120,
      "v": 80
    },
    {
      "midi": 65,
      "hit": false,
      "t": 3480,
      "d": 120,
      "v": 76
    },
    {
      "midi": 56,
      "hit": false,
      "t": 3480,
      "d": 120,
      "v": 74
    },
    {
      "midi": 64,
      "hit": false,
      "t": 3600,
      "d": 120,
      "v": 76
    },
    {
      "midi": 55,
      "hit": false,
      "t": 3600,
      "d": 120,
      "v": 74
    },
    {
      "midi": 65,
      "hit": false,
      "t": 3720,
      "d": 120,
      "v": 76
    },
    {
      "midi": 56,
      "hit": false,
      "t": 3720,
      "d": 120,
      "v": 74
    },
    {
      "midi": 71,
      "hit": false,
      "t": 3840,
      "d": 120,
      "v": 96
    },
    {
      "midi": 48,
      "hit": false,
      "t": 3840,
      "d": 120,
      "v": 88
    },
    {
      "midi": 65,
      "hit": false,
      "t": 3960,
      "d": 120,
      "v": 80
    },
    {
      "midi": 56,
      "hit": false,
      "t": 3960,
      "d": 120,
      "v": 74
    },
    {
      "midi": 63,
      "hit": false,
      "t": 4080,
      "d": 120,
      "v": 76
    },
    {
      "midi": 55,
      "hit": false,
      "t": 4080,
      "d": 120,
      "v": 74
    },
    {
      "midi": 65,
      "hit": false,
      "t": 4200,
      "d": 120,
      "v": 75
    },
    {
      "midi": 56,
      "hit": false,
      "t": 4200,
      "d": 120,
      "v": 74
    },
    {
      "midi": 62,
      "hit": false,
      "t": 4320,
      "d": 120,
      "v": 80
    },
    {
      "midi": 53,
      "hit": false,
      "t": 4320,
      "d": 120,
      "v": 80
    },
    {
      "midi": 65,
      "hit": false,
      "t": 4440,
      "d": 120,
      "v": 76
    },
    {
      "midi": 56,
      "hit": false,
      "t": 4440,
      "d": 120,
      "v": 74
    },
    {
      "midi": 63,
      "hit": false,
      "t": 4560,
      "d": 120,
      "v": 76
    },
    {
      "midi": 55,
      "hit": false,
      "t": 4560,
      "d": 120,
      "v": 74
    },
    {
      "midi": 65,
      "hit": false,
      "t": 4680,
      "d": 120,
      "v": 76
    },
    {
      "midi": 56,
      "hit": false,
      "t": 4680,
      "d": 120,
      "v": 73
    },
    {
      "midi": 71,
      "hit": false,
      "t": 4800,
      "d": 120,
      "v": 96
    },
    {
      "midi": 48,
      "hit": false,
      "t": 4800,
      "d": 120,
      "v": 88
    },
    {
      "midi": 65,
      "hit": false,
      "t": 4920,
      "d": 120,
      "v": 80
    },
    {
      "midi": 56,
      "hit": false,
      "t": 4920,
      "d": 120,
      "v": 75
    },
    {
      "midi": 63,
      "hit": false,
      "t": 5040,
      "d": 120,
      "v": 76
    },
    {
      "midi": 55,
      "hit": false,
      "t": 5040,
      "d": 120,
      "v": 75
    },
    {
      "midi": 65,
      "hit": false,
      "t": 5160,
      "d": 120,
      "v": 80
    },
    {
      "midi": 56,
      "hit": false,
      "t": 5160,
      "d": 120,
      "v": 75
    },
    {
      "midi": 62,
      "hit": false,
      "t": 5280,
      "d": 120,
      "v": 80
    },
    {
      "midi": 53,
      "hit": false,
      "t": 5280,
      "d": 120,
      "v": 80
    },
    {
      "midi": 65,
      "hit": false,
      "t": 5400,
      "d": 120,
      "v": 77
    },
    {
      "midi": 56,
      "hit": false,
      "t": 5400,
      "d": 120,
      "v": 74
    },
    {
      "midi": 63,
      "hit": false,
      "t": 5520,
      "d": 120,
      "v": 77
    },
    {
      "midi": 55,
      "hit": false,
      "t": 5520,
      "d": 120,
      "v": 74
    },
    {
      "midi": 65,
      "hit": false,
      "t": 5640,
      "d": 120,
      "v": 77
    },
    {
      "midi": 56,
      "hit": false,
      "t": 5640,
      "d": 120,
      "v": 74
    },
    {
      "midi": 72,
      "hit": false,
      "t": 5760,
      "d": 120,
      "v": 96
    },
    {
      "midi": 48,
      "hit": false,
      "t": 5760,
      "d": 120,
      "v": 88
    },
    {
      "midi": 67,
      "hit": false,
      "t": 5880,
      "d": 120,
      "v": 80
    },
    {
      "midi": 51,
      "hit": false,
      "t": 5880,
      "d": 120,
      "v": 75
    },
    {
      "midi": 65,
      "hit": false,
      "t": 6000,
      "d": 120,
      "v": 75
    },
    {
      "midi": 50,
      "hit": false,
      "t": 6000,
      "d": 120,
      "v": 75
    },
    {
      "midi": 67,
      "hit": false,
      "t": 6120,
      "d": 120,
      "v": 75
    },
    {
      "midi": 51,
      "hit": false,
      "t": 6120,
      "d": 120,
      "v": 75
    },
    {
      "midi": 63,
      "hit": false,
      "t": 6240,
      "d": 120,
      "v": 80
    },
    {
      "midi": 55,
      "hit": false,
      "t": 6240,
      "d": 120,
      "v": 80
    },
    {
      "midi": 67,
      "hit": false,
      "t": 6360,
      "d": 120,
      "v": 76
    },
    {
      "midi": 51,
      "hit": false,
      "t": 6360,
      "d": 120,
      "v": 75
    },
    {
      "midi": 65,
      "hit": false,
      "t": 6480,
      "d": 120,
      "v": 76
    },
    {
      "midi": 50,
      "hit": false,
      "t": 6480,
      "d": 120,
      "v": 75
    },
    {
      "midi": 67,
      "hit": false,
      "t": 6600,
      "d": 120,
      "v": 76
    },
    {
      "midi": 51,
      "hit": false,
      "t": 6600,
      "d": 120,
      "v": 75
    },
    {
      "midi": 72,
      "hit": false,
      "t": 6720,
      "d": 120,
      "v": 96
    },
    {
      "midi": 48,
      "hit": false,
      "t": 6720,
      "d": 120,
      "v": 88
    },
    {
      "midi": 67,
      "hit": false,
      "t": 6840,
      "d": 120,
      "v": 80
    },
    {
      "midi": 51,
      "hit": false,
      "t": 6840,
      "d": 120,
      "v": 75
    },
    {
      "midi": 65,
      "hit": false,
      "t": 6960,
      "d": 120,
      "v": 75
    },
    {
      "midi": 50,
      "hit": false,
      "t": 6960,
      "d": 120,
      "v": 75
    },
    {
      "midi": 67,
      "hit": false,
      "t": 7080,
      "d": 120,
      "v": 75
    },
    {
      "midi": 51,
      "hit": false,
      "t": 7080,
      "d": 120,
      "v": 75
    },
    {
      "midi": 63,
      "hit": false,
      "t": 7200,
      "d": 120,
      "v": 80
    },
    {
      "midi": 55,
      "hit": false,
      "t": 7200,
      "d": 120,
      "v": 80
    },
    {
      "midi": 67,
      "hit": false,
      "t": 7320,
      "d": 120,
      "v": 76
    },
    {
      "midi": 51,
      "hit": false,
      "t": 7320,
      "d": 120,
      "v": 75
    },
    {
      "midi": 65,
      "hit": false,
      "t": 7440,
      "d": 120,
      "v": 76
    },
    {
      "midi": 50,
      "hit": false,
      "t": 7440,
      "d": 120,
      "v": 75
    },
    {
      "midi": 67,
      "hit": false,
      "t": 7560,
      "d": 120,
      "v": 76
    },
    {
      "midi": 51,
      "hit": false,
      "t": 7560,
      "d": 120,
      "v": 75
    },
    {
      "midi": 75,
      "hit": false,
      "t": 7680,
      "d": 120,
      "v": 96
    },
    {
      "midi": 48,
      "hit": false,
      "t": 7680,
      "d": 120,
      "v": 88
    },
    {
      "midi": 68,
      "hit": false,
      "t": 7800,
      "d": 120,
      "v": 80
    },
    {
      "midi": 60,
      "hit": false,
      "t": 7800,
      "d": 120,
      "v": 75
    },
    {
      "midi": 67,
      "hit": false,
      "t": 7920,
      "d": 120,
      "v": 76
    },
    {
      "midi": 58,
      "hit": false,
      "t": 7920,
      "d": 120,
      "v": 75
    },
    {
      "midi": 68,
      "hit": false,
      "t": 8040,
      "d": 120,
      "v": 76
    },
    {
      "midi": 60,
      "hit": false,
      "t": 8040,
      "d": 120,
      "v": 75
    },
    {
      "midi": 63,
      "hit": false,
      "t": 8160,
      "d": 120,
      "v": 80
    },
    {
      "midi": 56,
      "hit": false,
      "t": 8160,
      "d": 120,
      "v": 80
    },
    {
      "midi": 68,
      "hit": false,
      "t": 8280,
      "d": 120,
      "v": 75
    },
    {
      "midi": 60,
      "hit": false,
      "t": 8280,
      "d": 120,
      "v": 75
    },
    {
      "midi": 67,
      "hit": false,
      "t": 8400,
      "d": 120,
      "v": 75
    },
    {
      "midi": 58,
      "hit": false,
      "t": 8400,
      "d": 120,
      "v": 75
    },
    {
      "midi": 68,
      "hit": false,
      "t": 8520,
      "d": 120,
      "v": 76
    },
    {
      "midi": 60,
      "hit": false,
      "t": 8520,
      "d": 120,
      "v": 74
    },
    {
      "midi": 75,
      "hit": false,
      "t": 8640,
      "d": 120,
      "v": 96
    },
    {
      "midi": 48,
      "hit": false,
      "t": 8640,
      "d": 120,
      "v": 88
    },
    {
      "midi": 68,
      "hit": false,
      "t": 8760,
      "d": 120,
      "v": 80
    },
    {
      "midi": 60,
      "hit": false,
      "t": 8760,
      "d": 120,
      "v": 76
    },
    {
      "midi": 67,
      "hit": false,
      "t": 8880,
      "d": 120,
      "v": 75
    },
    {
      "midi": 58,
      "hit": false,
      "t": 8880,
      "d": 120,
      "v": 76
    },
    {
      "midi": 68,
      "hit": false,
      "t": 9000,
      "d": 120,
      "v": 75
    },
    {
      "midi": 60,
      "hit": false,
      "t": 9000,
      "d": 120,
      "v": 76
    },
    {
      "midi": 63,
      "hit": false,
      "t": 9120,
      "d": 120,
      "v": 80
    },
    {
      "midi": 56,
      "hit": false,
      "t": 9120,
      "d": 120,
      "v": 80
    },
    {
      "midi": 68,
      "hit": false,
      "t": 9240,
      "d": 120,
      "v": 75
    },
    {
      "midi": 60,
      "hit": false,
      "t": 9240,
      "d": 120,
      "v": 75
    },
    {
      "midi": 67,
      "hit": false,
      "t": 9360,
      "d": 120,
      "v": 76
    },
    {
      "midi": 58,
      "hit": false,
      "t": 9360,
      "d": 120,
      "v": 75
    },
    {
      "midi": 68,
      "hit": false,
      "t": 9480,
      "d": 120,
      "v": 76
    },
    {
      "midi": 60,
      "hit": false,
      "t": 9480,
      "d": 120,
      "v": 75
    },
    {
      "midi": 74,
      "hit": false,
      "t": 9600,
      "d": 120,
      "v": 96
    },
    {
      "midi": 48,
      "hit": false,
      "t": 9600,
      "d": 120,
      "v": 88
    },
    {
      "midi": 66,
      "hit": false,
      "t": 9720,
      "d": 120,
      "v": 80
    },
    {
      "midi": 57,
      "hit": false,
      "t": 9720,
      "d": 120,
      "v": 76
    },
    {
      "midi": 64,
      "hit": false,
      "t": 9840,
      "d": 120,
      "v": 76
    },
    {
      "midi": 55,
      "hit": false,
      "t": 9840,
      "d": 120,
      "v": 76
    },
    {
      "midi": 66,
      "hit": false,
      "t": 9960,
      "d": 120,
      "v": 76
    },
    {
      "midi": 57,
      "hit": false,
      "t": 9960,
      "d": 120,
      "v": 76
    },
    {
      "midi": 62,
      "hit": false,
      "t": 10080,
      "d": 120,
      "v": 80
    },
    {
      "midi": 54,
      "hit": false,
      "t": 10080,
      "d": 120,
      "v": 80
    },
    {
      "midi": 66,
      "hit": false,
      "t": 10200,
      "d": 120,
      "v": 76
    },
    {
      "midi": 57,
      "hit": false,
      "t": 10200,
      "d": 120,
      "v": 75
    },
    {
      "midi": 64,
      "hit": false,
      "t": 10320,
      "d": 120,
      "v": 76
    },
    {
      "midi": 55,
      "hit": false,
      "t": 10320,
      "d": 120,
      "v": 75
    },
    {
      "midi": 66,
      "hit": false,
      "t": 10440,
      "d": 120,
      "v": 76
    },
    {
      "midi": 57,
      "hit": false,
      "t": 10440,
      "d": 120,
      "v": 75
    },
    {
      "midi": 74,
      "hit": false,
      "t": 10560,
      "d": 120,
      "v": 96
    },
    {
      "midi": 48,
      "hit": false,
      "t": 10560,
      "d": 120,
      "v": 88
    },
    {
      "midi": 66,
      "hit": false,
      "t": 10680,
      "d": 120,
      "v": 80
    },
    {
      "midi": 57,
      "hit": false,
      "t": 10680,
      "d": 120,
      "v": 75
    },
    {
      "midi": 64,
      "hit": false,
      "t": 10800,
      "d": 120,
      "v": 75
    },
    {
      "midi": 55,
      "hit": false,
      "t": 10800,
      "d": 120,
      "v": 75
    },
    {
      "midi": 66,
      "hit": false,
      "t": 10920,
      "d": 120,
      "v": 75
    },
    {
      "midi": 57,
      "hit": false,
      "t": 10920,
      "d": 120,
      "v": 75
    },
    {
      "midi": 62,
      "hit": false,
      "t": 11040,
      "d": 120,
      "v": 80
    },
    {
      "midi": 54,
      "hit": false,
      "t": 11040,
      "d": 120,
      "v": 80
    },
    {
      "midi": 66,
      "hit": false,
      "t": 11160,
      "d": 120,
      "v": 76
    },
    {
      "midi": 57,
      "hit": false,
      "t": 11160,
      "d": 120,
      "v": 74
    },
    {
      "midi": 64,
      "hit": false,
      "t": 11280,
      "d": 120,
      "v": 77
    },
    {
      "midi": 55,
      "hit": false,
      "t": 11280,
      "d": 120,
      "v": 74
    },
    {
      "midi": 66,
      "hit": false,
      "t": 11400,
      "d": 120,
      "v": 77
    },
    {
      "midi": 57,
      "hit": false,
      "t": 11400,
      "d": 120,
      "v": 74
    },
    {
      "midi": 74,
      "hit": false,
      "t": 11520,
      "d": 120,
      "v": 96
    },
    {
      "midi": 46,
      "hit": false,
      "t": 11520,
      "d": 120,
      "v": 88
    },
    {
      "midi": 67,
      "hit": false,
      "t": 11640,
      "d": 120,
      "v": 80
    },
    {
      "midi": 58,
      "hit": false,
      "t": 11640,
      "d": 120,
      "v": 75
    },
    {
      "midi": 66,
      "hit": false,
      "t": 11760,
      "d": 120,
      "v": 75
    },
    {
      "midi": 57,
      "hit": false,
      "t": 11760,
      "d": 120,
      "v": 75
    },
    {
      "midi": 67,
      "hit": false,
      "t": 11880,
      "d": 120,
      "v": 75
    },
    {
      "midi": 58,
      "hit": false,
      "t": 11880,
      "d": 120,
      "v": 75
    },
    {
      "midi": 62,
      "hit": false,
      "t": 12000,
      "d": 120,
      "v": 80
    },
    {
      "midi": 55,
      "hit": false,
      "t": 12000,
      "d": 120,
      "v": 80
    },
    {
      "midi": 67,
      "hit": false,
      "t": 12120,
      "d": 120,
      "v": 75
    },
    {
      "midi": 58,
      "hit": false,
      "t": 12120,
      "d": 120,
      "v": 74
    },
    {
      "midi": 66,
      "hit": false,
      "t": 12240,
      "d": 120,
      "v": 75
    },
    {
      "midi": 57,
      "hit": false,
      "t": 12240,
      "d": 120,
      "v": 74
    },
    {
      "midi": 67,
      "hit": false,
      "t": 12360,
      "d": 120,
      "v": 75
    },
    {
      "midi": 58,
      "hit": false,
      "t": 12360,
      "d": 120,
      "v": 74
    },
    {
      "midi": 74,
      "hit": false,
      "t": 12480,
      "d": 120,
      "v": 96
    },
    {
      "midi": 46,
      "hit": false,
      "t": 12480,
      "d": 120,
      "v": 88
    },
    {
      "midi": 67,
      "hit": false,
      "t": 12600,
      "d": 120,
      "v": 80
    },
    {
      "midi": 58,
      "hit": false,
      "t": 12600,
      "d": 120,
      "v": 74
    },
    {
      "midi": 66,
      "hit": false,
      "t": 12720,
      "d": 120,
      "v": 76
    },
    {
      "midi": 57,
      "hit": false,
      "t": 12720,
      "d": 120,
      "v": 74
    },
    {
      "midi": 67,
      "hit": false,
      "t": 12840,
      "d": 120,
      "v": 77
    },
    {
      "midi": 58,
      "hit": false,
      "t": 12840,
      "d": 120,
      "v": 74
    },
    {
      "midi": 62,
      "hit": false,
      "t": 12960,
      "d": 120,
      "v": 80
    },
    {
      "midi": 55,
      "hit": false,
      "t": 12960,
      "d": 120,
      "v": 80
    },
    {
      "midi": 67,
      "hit": false,
      "t": 13080,
      "d": 120,
      "v": 75
    },
    {
      "midi": 58,
      "hit": false,
      "t": 13080,
      "d": 120,
      "v": 74
    },
    {
      "midi": 66,
      "hit": false,
      "t": 13200,
      "d": 120,
      "v": 75
    },
    {
      "midi": 57,
      "hit": false,
      "t": 13200,
      "d": 120,
      "v": 74
    },
    {
      "midi": 67,
      "hit": false,
      "t": 13320,
      "d": 120,
      "v": 74
    },
    {
      "midi": 58,
      "hit": false,
      "t": 13320,
      "d": 120,
      "v": 74
    },
    {
      "midi": 72,
      "hit": false,
      "t": 13440,
      "d": 120,
      "v": 96
    },
    {
      "midi": 46,
      "hit": false,
      "t": 13440,
      "d": 120,
      "v": 88
    },
    {
      "midi": 64,
      "hit": false,
      "t": 13560,
      "d": 120,
      "v": 80
    },
    {
      "midi": 55,
      "hit": false,
      "t": 13560,
      "d": 120,
      "v": 75
    },
    {
      "midi": 62,
      "hit": false,
      "t": 13680,
      "d": 120,
      "v": 76
    },
    {
      "midi": 53,
      "hit": false,
      "t": 13680,
      "d": 120,
      "v": 75
    },
    {
      "midi": 64,
      "hit": false,
      "t": 13800,
      "d": 120,
      "v": 76
    },
    {
      "midi": 55,
      "hit": false,
      "t": 13800,
      "d": 120,
      "v": 75
    },
    {
      "midi": 60,
      "hit": false,
      "t": 13920,
      "d": 120,
      "v": 80
    },
    {
      "midi": 52,
      "hit": false,
      "t": 13920,
      "d": 120,
      "v": 80
    },
    {
      "midi": 64,
      "hit": false,
      "t": 14040,
      "d": 120,
      "v": 76
    },
    {
      "midi": 55,
      "hit": false,
      "t": 14040,
      "d": 120,
      "v": 74
    },
    {
      "midi": 62,
      "hit": false,
      "t": 14160,
      "d": 120,
      "v": 76
    },
    {
      "midi": 53,
      "hit": false,
      "t": 14160,
      "d": 120,
      "v": 74
    },
    {
      "midi": 64,
      "hit": false,
      "t": 14280,
      "d": 120,
      "v": 75
    },
    {
      "midi": 55,
      "hit": false,
      "t": 14280,
      "d": 120,
      "v": 74
    },
    {
      "midi": 72,
      "hit": false,
      "t": 14400,
      "d": 120,
      "v": 96
    },
    {
      "midi": 46,
      "hit": false,
      "t": 14400,
      "d": 120,
      "v": 88
    },
    {
      "midi": 64,
      "hit": false,
      "t": 14520,
      "d": 120,
      "v": 80
    },
    {
      "midi": 55,
      "hit": false,
      "t": 14520,
      "d": 120,
      "v": 73
    },
    {
      "midi": 62,
      "hit": false,
      "t": 14640,
      "d": 120,
      "v": 76
    },
    {
      "midi": 53,
      "hit": false,
      "t": 14640,
      "d": 120,
      "v": 73
    },
    {
      "midi": 64,
      "hit": false,
      "t": 14760,
      "d": 120,
      "v": 76
    },
    {
      "midi": 55,
      "hit": false,
      "t": 14760,
      "d": 120,
      "v": 73
    },
    {
      "midi": 60,
      "hit": false,
      "t": 14880,
      "d": 120,
      "v": 80
    },
    {
      "midi": 52,
      "hit": false,
      "t": 14880,
      "d": 120,
      "v": 80
    },
    {
      "midi": 64,
      "hit": false,
      "t": 15000,
      "d": 120,
      "v": 75
    },
    {
      "midi": 55,
      "hit": false,
      "t": 15000,
      "d": 120,
      "v": 73
    },
    {
      "midi": 62,
      "hit": false,
      "t": 15120,
      "d": 120,
      "v": 75
    },
    {
      "midi": 53,
      "hit": false,
      "t": 15120,
      "d": 120,
      "v": 73
    },
    {
      "midi": 64,
      "hit": false,
      "t": 15240,
      "d": 120,
      "v": 75
    },
    {
      "midi": 55,
      "hit": false,
      "t": 15240,
      "d": 120,
      "v": 73
    },
    {
      "midi": 72,
      "hit": false,
      "t": 15360,
      "d": 120,
      "v": 96
    },
    {
      "midi": 44,
      "hit": false,
      "t": 15360,
      "d": 120,
      "v": 88
    },
    {
      "midi": 65,
      "hit": false,
      "t": 15480,
      "d": 120,
      "v": 80
    },
    {
      "midi": 56,
      "hit": false,
      "t": 15480,
      "d": 120,
      "v": 73
    },
    {
      "midi": 64,
      "hit": false,
      "t": 15600,
      "d": 120,
      "v": 76
    },
    {
      "midi": 55,
      "hit": false,
      "t": 15600,
      "d": 120,
      "v": 73
    },
    {
      "midi": 65,
      "hit": false,
      "t": 15720,
      "d": 120,
      "v": 76
    },
    {
      "midi": 56,
      "hit": false,
      "t": 15720,
      "d": 120,
      "v": 73
    },
    {
      "midi": 60,
      "hit": false,
      "t": 15840,
      "d": 120,
      "v": 80
    },
    {
      "midi": 53,
      "hit": false,
      "t": 15840,
      "d": 120,
      "v": 80
    },
    {
      "midi": 65,
      "hit": false,
      "t": 15960,
      "d": 120,
      "v": 74
    },
    {
      "midi": 56,
      "hit": false,
      "t": 15960,
      "d": 120,
      "v": 73
    },
    {
      "midi": 64,
      "hit": false,
      "t": 16080,
      "d": 120,
      "v": 74
    },
    {
      "midi": 55,
      "hit": false,
      "t": 16080,
      "d": 120,
      "v": 73
    },
    {
      "midi": 65,
      "hit": false,
      "t": 16200,
      "d": 120,
      "v": 74
    },
    {
      "midi": 56,
      "hit": false,
      "t": 16200,
      "d": 120,
      "v": 74
    },
    {
      "midi": 72,
      "hit": false,
      "t": 16320,
      "d": 120,
      "v": 96
    },
    {
      "midi": 44,
      "hit": false,
      "t": 16320,
      "d": 120,
      "v": 88
    },
    {
      "midi": 65,
      "hit": false,
      "t": 16440,
      "d": 120,
      "v": 80
    },
    {
      "midi": 56,
      "hit": false,
      "t": 16440,
      "d": 120,
      "v": 75
    },
    {
      "midi": 64,
      "hit": false,
      "t": 16560,
      "d": 120,
      "v": 75
    },
    {
      "midi": 55,
      "hit": false,
      "t": 16560,
      "d": 120,
      "v": 76
    },
    {
      "midi": 65,
      "hit": false,
      "t": 16680,
      "d": 120,
      "v": 75
    },
    {
      "midi": 56,
      "hit": false,
      "t": 16680,
      "d": 120,
      "v": 74
    },
    {
      "midi": 60,
      "hit": false,
      "t": 16800,
      "d": 120,
      "v": 80
    },
    {
      "midi": 53,
      "hit": false,
      "t": 16800,
      "d": 120,
      "v": 80
    },
    {
      "midi": 65,
      "hit": false,
      "t": 16920,
      "d": 120,
      "v": 75
    },
    {
      "midi": 56,
      "hit": false,
      "t": 16920,
      "d": 120,
      "v": 74
    },
    {
      "midi": 64,
      "hit": false,
      "t": 17040,
      "d": 120,
      "v": 75
    },
    {
      "midi": 55,
      "hit": false,
      "t": 17040,
      "d": 120,
      "v": 74
    },
    {
      "midi": 65,
      "hit": false,
      "t": 17160,
      "d": 120,
      "v": 75
    },
    {
      "midi": 56,
      "hit": false,
      "t": 17160,
      "d": 120,
      "v": 74
    },
    {
      "midi": 70,
      "hit": false,
      "t": 17280,
      "d": 120,
      "v": 96
    },
    {
      "midi": 44,
      "hit": false,
      "t": 17280,
      "d": 120,
      "v": 88
    },
    {
      "midi": 65,
      "hit": false,
      "t": 17400,
      "d": 120,
      "v": 80
    },
    {
      "midi": 50,
      "hit": false,
      "t": 17400,
      "d": 120,
      "v": 75
    },
    {
      "midi": 63,
      "hit": false,
      "t": 17520,
      "d": 120,
      "v": 76
    },
    {
      "midi": 48,
      "hit": false,
      "t": 17520,
      "d": 120,
      "v": 75
    },
    {
      "midi": 65,
      "hit": false,
      "t": 17640,
      "d": 120,
      "v": 76
    },
    {
      "midi": 50,
      "hit": false,
      "t": 17640,
      "d": 120,
      "v": 75
    },
    {
      "midi": 62,
      "hit": false,
      "t": 17760,
      "d": 120,
      "v": 79
    },
    {
      "midi": 53,
      "hit": false,
      "t": 17760,
      "d": 120,
      "v": 79
    },
    {
      "midi": 65,
      "hit": false,
      "t": 17880,
      "d": 120,
      "v": 75
    },
    {
      "midi": 50,
      "hit": false,
      "t": 17880,
      "d": 120,
      "v": 74
    },
    {
      "midi": 63,
      "hit": false,
      "t": 18000,
      "d": 120,
      "v": 74
    },
    {
      "midi": 48,
      "hit": false,
      "t": 18000,
      "d": 120,
      "v": 74
    },
    {
      "midi": 65,
      "hit": false,
      "t": 18120,
      "d": 120,
      "v": 74
    },
    {
      "midi": 50,
      "hit": false,
      "t": 18120,
      "d": 120,
      "v": 74
    },
    {
      "midi": 70,
      "hit": false,
      "t": 18240,
      "d": 120,
      "v": 94
    },
    {
      "midi": 44,
      "hit": false,
      "t": 18240,
      "d": 120,
      "v": 86
    },
    {
      "midi": 65,
      "hit": false,
      "t": 18360,
      "d": 120,
      "v": 78
    },
    {
      "midi": 50,
      "hit": false,
      "t": 18360,
      "d": 120,
      "v": 73
    },
    {
      "midi": 63,
      "hit": false,
      "t": 18480,
      "d": 120,
      "v": 74
    },
    {
      "midi": 48,
      "hit": false,
      "t": 18480,
      "d": 120,
      "v": 72
    },
    {
      "midi": 65,
      "hit": false,
      "t": 18600,
      "d": 120,
      "v": 74
    },
    {
      "midi": 50,
      "hit": false,
      "t": 18600,
      "d": 120,
      "v": 77
    },
    {
      "midi": 62,
      "hit": false,
      "t": 18720,
      "d": 120,
      "v": 77
    },
    {
      "midi": 53,
      "hit": false,
      "t": 18720,
      "d": 120,
      "v": 77
    },
    {
      "midi": 65,
      "hit": false,
      "t": 18840,
      "d": 120,
      "v": 76
    },
    {
      "midi": 50,
      "hit": false,
      "t": 18840,
      "d": 120,
      "v": 72
    },
    {
      "midi": 63,
      "hit": false,
      "t": 18960,
      "d": 120,
      "v": 73
    },
    {
      "midi": 48,
      "hit": false,
      "t": 18960,
      "d": 120,
      "v": 72
    },
    {
      "midi": 65,
      "hit": false,
      "t": 19080,
      "d": 120,
      "v": 72
    },
    {
      "midi": 50,
      "hit": false,
      "t": 19080,
      "d": 120,
      "v": 72
    },
    {
      "midi": 70,
      "hit": false,
      "t": 19200,
      "d": 120,
      "v": 91
    },
    {
      "midi": 43,
      "hit": false,
      "t": 19200,
      "d": 120,
      "v": 83
    },
    {
      "midi": 67,
      "hit": false,
      "t": 19320,
      "d": 120,
      "v": 76
    },
    {
      "midi": 51,
      "hit": false,
      "t": 19320,
      "d": 120,
      "v": 72
    },
    {
      "midi": 65,
      "hit": false,
      "t": 19440,
      "d": 120,
      "v": 72
    },
    {
      "midi": 50,
      "hit": false,
      "t": 19440,
      "d": 120,
      "v": 72
    },
    {
      "midi": 67,
      "hit": false,
      "t": 19560,
      "d": 120,
      "v": 72
    },
    {
      "midi": 51,
      "hit": false,
      "t": 19560,
      "d": 120,
      "v": 72
    },
    {
      "midi": 63,
      "hit": false,
      "t": 19680,
      "d": 120,
      "v": 75
    },
    {
      "midi": 55,
      "hit": false,
      "t": 19680,
      "d": 120,
      "v": 75
    },
    {
      "midi": 67,
      "hit": false,
      "t": 19800,
      "d": 120,
      "v": 72
    },
    {
      "midi": 51,
      "hit": false,
      "t": 19800,
      "d": 120,
      "v": 70
    },
    {
      "midi": 65,
      "hit": false,
      "t": 19920,
      "d": 120,
      "v": 72
    },
    {
      "midi": 50,
      "hit": false,
      "t": 19920,
      "d": 120,
      "v": 70
    },
    {
      "midi": 67,
      "hit": false,
      "t": 20040,
      "d": 120,
      "v": 71
    },
    {
      "midi": 51,
      "hit": false,
      "t": 20040,
      "d": 120,
      "v": 70
    },
    {
      "midi": 70,
      "hit": false,
      "t": 20160,
      "d": 120,
      "v": 89
    },
    {
      "midi": 43,
      "hit": false,
      "t": 20160,
      "d": 120,
      "v": 81
    },
    {
      "midi": 67,
      "hit": false,
      "t": 20280,
      "d": 120,
      "v": 74
    },
    {
      "midi": 51,
      "hit": false,
      "t": 20280,
      "d": 120,
      "v": 69
    },
    {
      "midi": 65,
      "hit": false,
      "t": 20400,
      "d": 120,
      "v": 69
    },
    {
      "midi": 50,
      "hit": false,
      "t": 20400,
      "d": 120,
      "v": 69
    },
    {
      "midi": 67,
      "hit": false,
      "t": 20520,
      "d": 120,
      "v": 69
    },
    {
      "midi": 51,
      "hit": false,
      "t": 20520,
      "d": 120,
      "v": 69
    },
    {
      "midi": 63,
      "hit": false,
      "t": 20640,
      "d": 120,
      "v": 73
    },
    {
      "midi": 55,
      "hit": false,
      "t": 20640,
      "d": 120,
      "v": 73
    },
    {
      "midi": 67,
      "hit": false,
      "t": 20760,
      "d": 120,
      "v": 68
    },
    {
      "midi": 51,
      "hit": false,
      "t": 20760,
      "d": 120,
      "v": 67
    },
    {
      "midi": 65,
      "hit": false,
      "t": 20880,
      "d": 120,
      "v": 68
    },
    {
      "midi": 50,
      "hit": false,
      "t": 20880,
      "d": 120,
      "v": 66
    },
    {
      "midi": 67,
      "hit": false,
      "t": 21000,
      "d": 120,
      "v": 68
    },
    {
      "midi": 51,
      "hit": false,
      "t": 21000,
      "d": 120,
      "v": 66
    },
    {
      "midi": 68,
      "hit": false,
      "t": 21120,
      "d": 120,
      "v": 86
    },
    {
      "midi": 48,
      "hit": false,
      "t": 21120,
      "d": 120,
      "v": 79
    },
    {
      "midi": 67,
      "hit": false,
      "t": 21240,
      "d": 120,
      "v": 72
    },
    {
      "midi": 51,
      "hit": false,
      "t": 21240,
      "d": 120,
      "v": 69
    },
    {
      "midi": 65,
      "hit": false,
      "t": 21360,
      "d": 120,
      "v": 68
    },
    {
      "midi": 50,
      "hit": false,
      "t": 21360,
      "d": 120,
      "v": 69
    },
    {
      "midi": 67,
      "hit": false,
      "t": 21480,
      "d": 120,
      "v": 68
    },
    {
      "midi": 51,
      "hit": false,
      "t": 21480,
      "d": 120,
      "v": 65
    },
    {
      "midi": 63,
      "hit": false,
      "t": 21600,
      "d": 120,
      "v": 71
    },
    {
      "midi": 56,
      "hit": false,
      "t": 21600,
      "d": 120,
      "v": 71
    },
    {
      "midi": 67,
      "hit": false,
      "t": 21720,
      "d": 120,
      "v": 67
    },
    {
      "midi": 51,
      "hit": false,
      "t": 21720,
      "d": 120,
      "v": 65
    },
    {
      "midi": 65,
      "hit": false,
      "t": 21840,
      "d": 120,
      "v": 67
    },
    {
      "midi": 50,
      "hit": false,
      "t": 21840,
      "d": 120,
      "v": 63
    },
    {
      "midi": 67,
      "hit": false,
      "t": 21960,
      "d": 120,
      "v": 66
    },
    {
      "midi": 51,
      "hit": false,
      "t": 21960,
      "d": 120,
      "v": 63
    },
    {
      "midi": 68,
      "hit": false,
      "t": 22080,
      "d": 120,
      "v": 84
    },
    {
      "midi": 48,
      "hit": false,
      "t": 22080,
      "d": 120,
      "v": 77
    },
    {
      "midi": 67,
      "hit": false,
      "t": 22200,
      "d": 120,
      "v": 70
    },
    {
      "midi": 51,
      "hit": false,
      "t": 22200,
      "d": 120,
      "v": 64
    },
    {
      "midi": 65,
      "hit": false,
      "t": 22320,
      "d": 120,
      "v": 65
    },
    {
      "midi": 50,
      "hit": false,
      "t": 22320,
      "d": 120,
      "v": 64
    },
    {
      "midi": 67,
      "hit": false,
      "t": 22440,
      "d": 120,
      "v": 65
    },
    {
      "midi": 51,
      "hit": false,
      "t": 22440,
      "d": 120,
      "v": 64
    },
    {
      "midi": 63,
      "hit": false,
      "t": 22560,
      "d": 120,
      "v": 69
    },
    {
      "midi": 56,
      "hit": false,
      "t": 22560,
      "d": 120,
      "v": 69
    },
    {
      "midi": 67,
      "hit": false,
      "t": 22680,
      "d": 120,
      "v": 63
    },
    {
      "midi": 51,
      "hit": false,
      "t": 22680,
      "d": 120,
      "v": 61
    },
    {
      "midi": 65,
      "hit": false,
      "t": 22800,
      "d": 120,
      "v": 63
    },
    {
      "midi": 50,
      "hit": false,
      "t": 22800,
      "d": 120,
      "v": 61
    },
    {
      "midi": 67,
      "hit": false,
      "t": 22920,
      "d": 120,
      "v": 63
    },
    {
      "midi": 51,
      "hit": false,
      "t": 22920,
      "d": 120,
      "v": 61
    },
    {
      "midi": 68,
      "hit": false,
      "t": 23040,
      "d": 120,
      "v": 81
    },
    {
      "midi": 50,
      "hit": false,
      "t": 23040,
      "d": 120,
      "v": 74
    },
    {
      "midi": 62,
      "hit": false,
      "t": 23160,
      "d": 120,
      "v": 68
    },
    {
      "midi": 53,
      "hit": false,
      "t": 23160,
      "d": 120,
      "v": 59
    },
    {
      "midi": 60,
      "hit": false,
      "t": 23280,
      "d": 120,
      "v": 64
    },
    {
      "midi": 51,
      "hit": false,
      "t": 23280,
      "d": 120,
      "v": 60
    },
    {
      "midi": 62,
      "hit": false,
      "t": 23400,
      "d": 120,
      "v": 64
    },
    {
      "midi": 53,
      "hit": false,
      "t": 23400,
      "d": 120,
      "v": 59
    },
    {
      "midi": 58,
      "hit": false,
      "t": 23520,
      "d": 120,
      "v": 67
    },
    {
      "midi": 56,
      "hit": false,
      "t": 23520,
      "d": 120,
      "v": 66
    },
    {
      "midi": 62,
      "hit": false,
      "t": 23640,
      "d": 120,
      "v": 61
    },
    {
      "midi": 53,
      "hit": false,
      "t": 23640,
      "d": 120,
      "v": 59
    },
    {
      "midi": 60,
      "hit": false,
      "t": 23760,
      "d": 120,
      "v": 61
    },
    {
      "midi": 51,
      "hit": false,
      "t": 23760,
      "d": 120,
      "v": 59
    },
    {
      "midi": 62,
      "hit": false,
      "t": 23880,
      "d": 120,
      "v": 61
    },
    {
      "midi": 53,
      "hit": false,
      "t": 23880,
      "d": 120,
      "v": 59
    },
    {
      "midi": 68,
      "hit": false,
      "t": 24000,
      "d": 120,
      "v": 79
    },
    {
      "midi": 50,
      "hit": false,
      "t": 24000,
      "d": 120,
      "v": 73
    },
    {
      "midi": 62,
      "hit": false,
      "t": 24120,
      "d": 120,
      "v": 60
    },
    {
      "midi": 53,
      "hit": false,
      "t": 24120,
      "d": 120,
      "v": 56
    },
    {
      "midi": 60,
      "hit": false,
      "t": 24240,
      "d": 120,
      "v": 57
    },
    {
      "midi": 51,
      "hit": false,
      "t": 24240,
      "d": 120,
      "v": 55
    },
    {
      "midi": 62,
      "hit": false,
      "t": 24360,
      "d": 120,
      "v": 57
    },
    {
      "midi": 53,
      "hit": false,
      "t": 24360,
      "d": 120,
      "v": 55
    },
    {
      "midi": 58,
      "hit": false,
      "t": 24480,
      "d": 120,
      "v": 60
    },
    {
      "midi": 56,
      "hit": false,
      "t": 24480,
      "d": 120,
      "v": 61
    },
    {
      "midi": 62,
      "hit": false,
      "t": 24600,
      "d": 120,
      "v": 54
    },
    {
      "midi": 53,
      "hit": false,
      "t": 24600,
      "d": 120,
      "v": 56
    },
    {
      "midi": 60,
      "hit": false,
      "t": 24720,
      "d": 120,
      "v": 54
    },
    {
      "midi": 51,
      "hit": false,
      "t": 24720,
      "d": 120,
      "v": 56
    },
    {
      "midi": 62,
      "hit": false,
      "t": 24840,
      "d": 120,
      "v": 55
    },
    {
      "midi": 53,
      "hit": false,
      "t": 24840,
      "d": 120,
      "v": 56
    },
    {
      "midi": 67,
      "hit": false,
      "t": 24960,
      "d": 120,
      "v": 76
    },
    {
      "midi": 51,
      "hit": false,
      "t": 24960,
      "d": 120,
      "v": 70
    },
    {
      "midi": 58,
      "hit": false,
      "t": 25080,
      "d": 120,
      "v": 58
    },
    {
      "midi": 55,
      "hit": false,
      "t": 25080,
      "d": 120,
      "v": 53
    },
    {
      "midi": 56,
      "hit": false,
      "t": 25200,
      "d": 120,
      "v": 54
    },
    {
      "midi": 53,
      "hit": false,
      "t": 25200,
      "d": 120,
      "v": 53
    },
    {
      "midi": 58,
      "hit": false,
      "t": 25320,
      "d": 120,
      "v": 54
    },
    {
      "midi": 55,
      "hit": false,
      "t": 25320,
      "d": 120,
      "v": 53
    },
    {
      "midi": 63,
      "hit": false,
      "t": 25440,
      "d": 120,
      "v": 64
    },
    {
      "midi": 56,
      "hit": false,
      "t": 25440,
      "d": 120,
      "v": 57
    },
    {
      "midi": 58,
      "hit": false,
      "t": 25560,
      "d": 120,
      "v": 54
    },
    {
      "midi": 55,
      "hit": false,
      "t": 25560,
      "d": 120,
      "v": 53
    },
    {
      "midi": 56,
      "hit": false,
      "t": 25680,
      "d": 120,
      "v": 54
    },
    {
      "midi": 53,
      "hit": false,
      "t": 25680,
      "d": 120,
      "v": 53
    },
    {
      "midi": 58,
      "hit": false,
      "t": 25800,
      "d": 120,
      "v": 54
    },
    {
      "midi": 55,
      "hit": false,
      "t": 25800,
      "d": 120,
      "v": 53
    },
    {
      "midi": 67,
      "hit": false,
      "t": 25920,
      "d": 120,
      "v": 76
    },
    {
      "midi": 51,
      "hit": false,
      "t": 25920,
      "d": 120,
      "v": 70
    },
    {
      "midi": 58,
      "hit": false,
      "t": 26040,
      "d": 120,
      "v": 57
    },
    {
      "midi": 55,
      "hit": false,
      "t": 26040,
      "d": 120,
      "v": 53
    },
    {
      "midi": 56,
      "hit": false,
      "t": 26160,
      "d": 120,
      "v": 53
    },
    {
      "midi": 53,
      "hit": false,
      "t": 26160,
      "d": 120,
      "v": 53
    },
    {
      "midi": 58,
      "hit": false,
      "t": 26280,
      "d": 120,
      "v": 53
    },
    {
      "midi": 55,
      "hit": false,
      "t": 26280,
      "d": 120,
      "v": 53
    },
    {
      "midi": 63,
      "hit": false,
      "t": 26400,
      "d": 120,
      "v": 57
    },
    {
      "midi": 56,
      "hit": false,
      "t": 26400,
      "d": 120,
      "v": 56
    },
    {
      "midi": 58,
      "hit": false,
      "t": 26520,
      "d": 120,
      "v": 53
    },
    {
      "midi": 55,
      "hit": false,
      "t": 26520,
      "d": 120,
      "v": 52
    },
    {
      "midi": 56,
      "hit": false,
      "t": 26640,
      "d": 120,
      "v": 53
    },
    {
      "midi": 53,
      "hit": false,
      "t": 26640,
      "d": 120,
      "v": 52
    },
    {
      "midi": 58,
      "hit": false,
      "t": 26760,
      "d": 120,
      "v": 53
    },
    {
      "midi": 55,
      "hit": false,
      "t": 26760,
      "d": 120,
      "v": 52
    },
    {
      "midi": 65,
      "hit": false,
      "t": 26880,
      "d": 120,
      "v": 76
    },
    {
      "midi": 51,
      "hit": false,
      "t": 26880,
      "d": 120,
      "v": 70
    },
    {
      "midi": 60,
      "hit": false,
      "t": 27000,
      "d": 120,
      "v": 58
    },
    {
      "midi": 57,
      "hit": false,
      "t": 27000,
      "d": 120,
      "v": 52
    },
    {
      "midi": 58,
      "hit": false,
      "t": 27120,
      "d": 120,
      "v": 53
    },
    {
      "midi": 55,
      "hit": false,
      "t": 27120,
      "d": 120,
      "v": 52
    },
    {
      "midi": 60,
      "hit": false,
      "t": 27240,
      "d": 120,
      "v": 53
    },
    {
      "midi": 57,
      "hit": false,
      "t": 27240,
      "d": 120,
      "v": 52
    },
    {
      "midi": 57,
      "hit": false,
      "t": 27360,
      "d": 120,
      "v": 58
    },
    {
      "midi": 53,
      "hit": false,
      "t": 27360,
      "d": 120,
      "v": 55
    },
    {
      "midi": 60,
      "hit": false,
      "t": 27480,
      "d": 120,
      "v": 53
    },
    {
      "midi": 57,
      "hit": false,
      "t": 27480,
      "d": 120,
      "v": 52
    },
    {
      "midi": 58,
      "hit": false,
      "t": 27600,
      "d": 120,
      "v": 53
    },
    {
      "midi": 55,
      "hit": false,
      "t": 27600,
      "d": 120,
      "v": 52
    },
    {
      "midi": 60,
      "hit": false,
      "t": 27720,
      "d": 120,
      "v": 53
    },
    {
      "midi": 57,
      "hit": false,
      "t": 27720,
      "d": 120,
      "v": 52
    },
    {
      "midi": 65,
      "hit": false,
      "t": 27840,
      "d": 120,
      "v": 76
    },
    {
      "midi": 51,
      "hit": false,
      "t": 27840,
      "d": 120,
      "v": 70
    },
    {
      "midi": 60,
      "hit": false,
      "t": 27960,
      "d": 120,
      "v": 59
    },
    {
      "midi": 57,
      "hit": false,
      "t": 27960,
      "d": 120,
      "v": 51
    },
    {
      "midi": 58,
      "hit": false,
      "t": 28080,
      "d": 120,
      "v": 54
    },
    {
      "midi": 55,
      "hit": false,
      "t": 28080,
      "d": 120,
      "v": 51
    },
    {
      "midi": 60,
      "hit": false,
      "t": 28200,
      "d": 120,
      "v": 54
    },
    {
      "midi": 57,
      "hit": false,
      "t": 28200,
      "d": 120,
      "v": 51
    },
    {
      "midi": 57,
      "hit": false,
      "t": 28320,
      "d": 120,
      "v": 59
    },
    {
      "midi": 53,
      "hit": false,
      "t": 28320,
      "d": 120,
      "v": 56
    },
    {
      "midi": 60,
      "hit": false,
      "t": 28440,
      "d": 120,
      "v": 54
    },
    {
      "midi": 57,
      "hit": false,
      "t": 28440,
      "d": 120,
      "v": 51
    },
    {
      "midi": 58,
      "hit": false,
      "t": 28560,
      "d": 120,
      "v": 54
    },
    {
      "midi": 55,
      "hit": false,
      "t": 28560,
      "d": 120,
      "v": 51
    },
    {
      "midi": 60,
      "hit": false,
      "t": 28680,
      "d": 120,
      "v": 53
    },
    {
      "midi": 57,
      "hit": false,
      "t": 28680,
      "d": 120,
      "v": 51
    },
    {
      "midi": 65,
      "hit": false,
      "t": 28800,
      "d": 120,
      "v": 76
    },
    {
      "midi": 50,
      "hit": false,
      "t": 28800,
      "d": 120,
      "v": 70
    },
    {
      "midi": 62,
      "hit": false,
      "t": 28920,
      "d": 120,
      "v": 60
    },
    {
      "midi": 53,
      "hit": false,
      "t": 28920,
      "d": 120,
      "v": 52
    },
    {
      "midi": 60,
      "hit": false,
      "t": 29040,
      "d": 120,
      "v": 55
    },
    {
      "midi": 51,
      "hit": false,
      "t": 29040,
      "d": 120,
      "v": 52
    },
    {
      "midi": 62,
      "hit": false,
      "t": 29160,
      "d": 120,
      "v": 55
    },
    {
      "midi": 53,
      "hit": false,
      "t": 29160,
      "d": 120,
      "v": 52
    },
    {
      "midi": 59,
      "hit": false,
      "t": 29280,
      "d": 120,
      "v": 60
    },
    {
      "midi": 56,
      "hit": false,
      "t": 29280,
      "d": 120,
      "v": 58
    },
    {
      "midi": 62,
      "hit": false,
      "t": 29400,
      "d": 120,
      "v": 55
    },
    {
      "midi": 53,
      "hit": false,
      "t": 29400,
      "d": 120,
      "v": 52
    },
    {
      "midi": 60,
      "hit": false,
      "t": 29520,
      "d": 120,
      "v": 55
    },
    {
      "midi": 51,
      "hit": false,
      "t": 29520,
      "d": 120,
      "v": 52
    },
    {
      "midi": 62,
      "hit": false,
      "t": 29640,
      "d": 120,
      "v": 55
    },
    {
      "midi": 53,
      "hit": false,
      "t": 29640,
      "d": 120,
      "v": 52
    },
    {
      "midi": 65,
      "hit": false,
      "t": 29760,
      "d": 120,
      "v": 76
    },
    {
      "midi": 50,
      "hit": false,
      "t": 29760,
      "d": 120,
      "v": 70
    },
    {
      "midi": 62,
      "hit": false,
      "t": 29880,
      "d": 120,
      "v": 60
    },
    {
      "midi": 53,
      "hit": false,
      "t": 29880,
      "d": 120,
      "v": 54
    },
    {
      "midi": 60,
      "hit": false,
      "t": 30000,
      "d": 120,
      "v": 56
    },
    {
      "midi": 51,
      "hit": false,
      "t": 30000,
      "d": 120,
      "v": 54
    },
    {
      "midi": 62,
      "hit": false,
      "t": 30120,
      "d": 120,
      "v": 56
    },
    {
      "midi": 53,
      "hit": false,
      "t": 30120,
      "d": 120,
      "v": 54
    },
    {
      "midi": 59,
      "hit": false,
      "t": 30240,
      "d": 120,
      "v": 60
    },
    {
      "midi": 56,
      "hit": false,
      "t": 30240,
      "d": 120,
      "v": 60
    },
    {
      "midi": 62,
      "hit": false,
      "t": 30360,
      "d": 120,
      "v": 55
    },
    {
      "midi": 53,
      "hit": false,
      "t": 30360,
      "d": 120,
      "v": 53
    },
    {
      "midi": 60,
      "hit": false,
      "t": 30480,
      "d": 120,
      "v": 55
    },
    {
      "midi": 51,
      "hit": false,
      "t": 30480,
      "d": 120,
      "v": 54
    },
    {
      "midi": 62,
      "hit": false,
      "t": 30600,
      "d": 120,
      "v": 55
    },
    {
      "midi": 53,
      "hit": false,
      "t": 30600,
      "d": 120,
      "v": 54
    },
    {
      "midi": 65,
      "hit": false,
      "t": 30720,
      "d": 120,
      "v": 76
    },
    {
      "midi": 48,
      "hit": false,
      "t": 30720,
      "d": 120,
      "v": 70
    },
    {
      "midi": 62,
      "hit": false,
      "t": 30840,
      "d": 120,
      "v": 61
    },
    {
      "midi": 53,
      "hit": false,
      "t": 30840,
      "d": 120,
      "v": 52
    },
    {
      "midi": 60,
      "hit": false,
      "t": 30960,
      "d": 120,
      "v": 52
    },
    {
      "midi": 52,
      "hit": false,
      "t": 30960,
      "d": 120,
      "v": 52
    },
    {
      "midi": 62,
      "hit": false,
      "t": 31080,
      "d": 120,
      "v": 54
    },
    {
      "midi": 53,
      "hit": false,
      "t": 31080,
      "d": 120,
      "v": 52
    },
    {
      "midi": 59,
      "hit": false,
      "t": 31200,
      "d": 120,
      "v": 61
    },
    {
      "midi": 56,
      "hit": false,
      "t": 31200,
      "d": 120,
      "v": 60
    },
    {
      "midi": 62,
      "hit": false,
      "t": 31320,
      "d": 120,
      "v": 55
    },
    {
      "midi": 53,
      "hit": false,
      "t": 31320,
      "d": 120,
      "v": 53
    },
    {
      "midi": 60,
      "hit": false,
      "t": 31440,
      "d": 120,
      "v": 55
    },
    {
      "midi": 52,
      "hit": false,
      "t": 31440,
      "d": 120,
      "v": 53
    },
    {
      "midi": 62,
      "hit": false,
      "t": 31560,
      "d": 120,
      "v": 55
    },
    {
      "midi": 53,
      "hit": false,
      "t": 31560,
      "d": 120,
      "v": 53
    },
    {
      "midi": 65,
      "hit": false,
      "t": 31680,
      "d": 120,
      "v": 76
    },
    {
      "midi": 48,
      "hit": false,
      "t": 31680,
      "d": 120,
      "v": 70
    },
    {
      "midi": 62,
      "hit": false,
      "t": 31800,
      "d": 120,
      "v": 61
    },
    {
      "midi": 53,
      "hit": false,
      "t": 31800,
      "d": 120,
      "v": 53
    },
    {
      "midi": 60,
      "hit": false,
      "t": 31920,
      "d": 120,
      "v": 55
    },
    {
      "midi": 52,
      "hit": false,
      "t": 31920,
      "d": 120,
      "v": 53
    },
    {
      "midi": 62,
      "hit": false,
      "t": 32040,
      "d": 120,
      "v": 55
    },
    {
      "midi": 53,
      "hit": false,
      "t": 32040,
      "d": 120,
      "v": 53
    },
    {
      "midi": 59,
      "hit": false,
      "t": 32160,
      "d": 120,
      "v": 61
    },
    {
      "midi": 56,
      "hit": false,
      "t": 32160,
      "d": 120,
      "v": 60
    },
    {
      "midi": 62,
      "hit": false,
      "t": 32280,
      "d": 120,
      "v": 54
    },
    {
      "midi": 53,
      "hit": false,
      "t": 32280,
      "d": 120,
      "v": 53
    },
    {
      "midi": 60,
      "hit": false,
      "t": 32400,
      "d": 120,
      "v": 54
    },
    {
      "midi": 52,
      "hit": false,
      "t": 32400,
      "d": 120,
      "v": 53
    },
    {
      "midi": 62,
      "hit": false,
      "t": 32520,
      "d": 120,
      "v": 54
    },
    {
      "midi": 53,
      "hit": false,
      "t": 32520,
      "d": 120,
      "v": 53
    },
    {
      "midi": 63,
      "hit": false,
      "t": 32640,
      "d": 120,
      "v": 76
    },
    {
      "midi": 48,
      "hit": false,
      "t": 32640,
      "d": 120,
      "v": 70
    },
    {
      "midi": 60,
      "hit": false,
      "t": 32760,
      "d": 120,
      "v": 61
    },
    {
      "midi": 51,
      "hit": false,
      "t": 32760,
      "d": 120,
      "v": 54
    },
    {
      "midi": 59,
      "hit": false,
      "t": 32880,
      "d": 120,
      "v": 61
    },
    {
      "midi": 50,
      "hit": false,
      "t": 32880,
      "d": 120,
      "v": 54
    },
    {
      "midi": 60,
      "hit": false,
      "t": 33000,
      "d": 120,
      "v": 55
    },
    {
      "midi": 51,
      "hit": false,
      "t": 33000,
      "d": 120,
      "v": 54
    },
    {
      "midi": 55,
      "hit": false,
      "t": 33120,
      "d": 120,
      "v": 61
    },
    {
      "midi": 53,
      "hit": false,
      "t": 33120,
      "d": 120,
      "v": 60
    },
    {
      "midi": 60,
      "hit": false,
      "t": 33240,
      "d": 120,
      "v": 55
    },
    {
      "midi": 51,
      "hit": false,
      "t": 33240,
      "d": 120,
      "v": 54
    },
    {
      "midi": 59,
      "hit": false,
      "t": 33360,
      "d": 120,
      "v": 55
    },
    {
      "midi": 50,
      "hit": false,
      "t": 33360,
      "d": 120,
      "v": 54
    },
    {
      "midi": 60,
      "hit": false,
      "t": 33480,
      "d": 120,
      "v": 55
    },
    {
      "midi": 51,
      "hit": false,
      "t": 33480,
      "d": 120,
      "v": 54
    },
    {
      "midi": 63,
      "hit": false,
      "t": 33600,
      "d": 120,
      "v": 76
    },
    {
      "midi": 46,
      "hit": false,
      "t": 33600,
      "d": 120,
      "v": 70
    },
    {
      "midi": 60,
      "hit": false,
      "t": 33720,
      "d": 120,
      "v": 61
    },
    {
      "midi": 51,
      "hit": false,
      "t": 33720,
      "d": 120,
      "v": 54
    },
    {
      "midi": 59,
      "hit": false,
      "t": 33840,
      "d": 120,
      "v": 55
    },
    {
      "midi": 50,
      "hit": false,
      "t": 33840,
      "d": 120,
      "v": 54
    },
    {
      "midi": 60,
      "hit": false,
      "t": 33960,
      "d": 120,
      "v": 55
    },
    {
      "midi": 51,
      "hit": false,
      "t": 33960,
      "d": 120,
      "v": 54
    },
    {
      "midi": 55,
      "hit": false,
      "t": 34080,
      "d": 120,
      "v": 61
    },
    {
      "midi": 53,
      "hit": false,
      "t": 34080,
      "d": 120,
      "v": 61
    },
    {
      "midi": 60,
      "hit": false,
      "t": 34200,
      "d": 120,
      "v": 55
    },
    {
      "midi": 51,
      "hit": false,
      "t": 34200,
      "d": 120,
      "v": 53
    },
    {
      "midi": 59,
      "hit": false,
      "t": 34320,
      "d": 120,
      "v": 55
    },
    {
      "midi": 50,
      "hit": false,
      "t": 34320,
      "d": 120,
      "v": 53
    },
    {
      "midi": 60,
      "hit": false,
      "t": 34440,
      "d": 120,
      "v": 56
    },
    {
      "midi": 51,
      "hit": false,
      "t": 34440,
      "d": 120,
      "v": 53
    },
    {
      "midi": 53,
      "hit": false,
      "t": 34560,
      "d": 120,
      "v": 76
    },
    {
      "midi": 44,
      "hit": false,
      "t": 34560,
      "d": 120,
      "v": 70
    },
    {
      "midi": 63,
      "hit": false,
      "t": 34680,
      "d": 120,
      "v": 64
    },
    {
      "midi": 48,
      "hit": false,
      "t": 34680,
      "d": 120,
      "v": 54
    },
    {
      "midi": 62,
      "hit": false,
      "t": 34800,
      "d": 120,
      "v": 57
    },
    {
      "midi": 47,
      "hit": false,
      "t": 34800,
      "d": 120,
      "v": 53
    },
    {
      "midi": 63,
      "hit": false,
      "t": 34920,
      "d": 120,
      "v": 57
    },
    {
      "midi": 48,
      "hit": false,
      "t": 34920,
      "d": 120,
      "v": 53
    },
    {
      "midi": 65,
      "hit": false,
      "t": 35040,
      "d": 120,
      "v": 64
    },
    {
      "midi": 50,
      "hit": false,
      "t": 35040,
      "d": 120,
      "v": 64
    },
    {
      "midi": 63,
      "hit": false,
      "t": 35160,
      "d": 120,
      "v": 58
    },
    {
      "midi": 48,
      "hit": false,
      "t": 35160,
      "d": 120,
      "v": 54
    },
    {
      "midi": 62,
      "hit": false,
      "t": 35280,
      "d": 120,
      "v": 58
    },
    {
      "midi": 47,
      "hit": false,
      "t": 35280,
      "d": 120,
      "v": 54
    },
    {
      "midi": 63,
      "hit": false,
      "t": 35400,
      "d": 120,
      "v": 58
    },
    {
      "midi": 48,
      "hit": false,
      "t": 35400,
      "d": 120,
      "v": 54
    },
    {
      "midi": 53,
      "hit": false,
      "t": 35520,
      "d": 120,
      "v": 76
    },
    {
      "midi": 44,
      "hit": false,
      "t": 35520,
      "d": 120,
      "v": 70
    },
    {
      "midi": 63,
      "hit": false,
      "t": 35640,
      "d": 120,
      "v": 64
    },
    {
      "midi": 48,
      "hit": false,
      "t": 35640,
      "d": 120,
      "v": 55
    },
    {
      "midi": 62,
      "hit": false,
      "t": 35760,
      "d": 120,
      "v": 57
    },
    {
      "midi": 47,
      "hit": false,
      "t": 35760,
      "d": 120,
      "v": 55
    },
    {
      "midi": 63,
      "hit": false,
      "t": 35880,
      "d": 120,
      "v": 59
    },
    {
      "midi": 48,
      "hit": false,
      "t": 35880,
      "d": 120,
      "v": 55
    },
    {
      "midi": 65,
      "hit": false,
      "t": 36000,
      "d": 120,
      "v": 64
    },
    {
      "midi": 50,
      "hit": false,
      "t": 36000,
      "d": 120,
      "v": 64
    },
    {
      "midi": 63,
      "hit": false,
      "t": 36120,
      "d": 120,
      "v": 57
    },
    {
      "midi": 48,
      "hit": false,
      "t": 36120,
      "d": 120,
      "v": 56
    },
    {
      "midi": 62,
      "hit": false,
      "t": 36240,
      "d": 120,
      "v": 57
    },
    {
      "midi": 47,
      "hit": false,
      "t": 36240,
      "d": 120,
      "v": 56
    },
    {
      "midi": 63,
      "hit": false,
      "t": 36360,
      "d": 120,
      "v": 57
    },
    {
      "midi": 48,
      "hit": false,
      "t": 36360,
      "d": 120,
      "v": 56
    },
    {
      "midi": 54,
      "hit": false,
      "t": 36480,
      "d": 120,
      "v": 76
    },
    {
      "midi": 45,
      "hit": false,
      "t": 36480,
      "d": 120,
      "v": 70
    },
    {
      "midi": 60,
      "hit": false,
      "t": 36600,
      "d": 120,
      "v": 64
    },
    {
      "midi": 51,
      "hit": false,
      "t": 36600,
      "d": 120,
      "v": 56
    },
    {
      "midi": 59,
      "hit": false,
      "t": 36720,
      "d": 120,
      "v": 57
    },
    {
      "midi": 50,
      "hit": false,
      "t": 36720,
      "d": 120,
      "v": 56
    },
    {
      "midi": 60,
      "hit": false,
      "t": 36840,
      "d": 120,
      "v": 58
    },
    {
      "midi": 51,
      "hit": false,
      "t": 36840,
      "d": 120,
      "v": 56
    },
    {
      "midi": 63,
      "hit": false,
      "t": 36960,
      "d": 120,
      "v": 64
    },
    {
      "midi": 48,
      "hit": false,
      "t": 36960,
      "d": 120,
      "v": 64
    },
    {
      "midi": 60,
      "hit": false,
      "t": 37080,
      "d": 120,
      "v": 58
    },
    {
      "midi": 51,
      "hit": false,
      "t": 37080,
      "d": 120,
      "v": 56
    },
    {
      "midi": 59,
      "hit": false,
      "t": 37200,
      "d": 120,
      "v": 58
    },
    {
      "midi": 50,
      "hit": false,
      "t": 37200,
      "d": 120,
      "v": 56
    },
    {
      "midi": 60,
      "hit": false,
      "t": 37320,
      "d": 120,
      "v": 58
    },
    {
      "midi": 51,
      "hit": false,
      "t": 37320,
      "d": 120,
      "v": 56
    },
    {
      "midi": 54,
      "hit": false,
      "t": 37440,
      "d": 120,
      "v": 76
    },
    {
      "midi": 45,
      "hit": false,
      "t": 37440,
      "d": 120,
      "v": 70
    },
    {
      "midi": 60,
      "hit": false,
      "t": 37560,
      "d": 120,
      "v": 64
    },
    {
      "midi": 51,
      "hit": false,
      "t": 37560,
      "d": 120,
      "v": 57
    },
    {
      "midi": 59,
      "hit": false,
      "t": 37680,
      "d": 120,
      "v": 58
    },
    {
      "midi": 50,
      "hit": false,
      "t": 37680,
      "d": 120,
      "v": 58
    },
    {
      "midi": 60,
      "hit": false,
      "t": 37800,
      "d": 120,
      "v": 58
    },
    {
      "midi": 51,
      "hit": false,
      "t": 37800,
      "d": 120,
      "v": 58
    },
    {
      "midi": 63,
      "hit": false,
      "t": 37920,
      "d": 120,
      "v": 64
    },
    {
      "midi": 48,
      "hit": false,
      "t": 37920,
      "d": 120,
      "v": 64
    },
    {
      "midi": 60,
      "hit": false,
      "t": 38040,
      "d": 120,
      "v": 58
    },
    {
      "midi": 51,
      "hit": false,
      "t": 38040,
      "d": 120,
      "v": 56
    },
    {
      "midi": 59,
      "hit": false,
      "t": 38160,
      "d": 120,
      "v": 58
    },
    {
      "midi": 50,
      "hit": false,
      "t": 38160,
      "d": 120,
      "v": 56
    },
    {
      "midi": 60,
      "hit": false,
      "t": 38280,
      "d": 120,
      "v": 58
    },
    {
      "midi": 51,
      "hit": false,
      "t": 38280,
      "d": 120,
      "v": 56
    },
    {
      "midi": 63,
      "hit": false,
      "t": 38400,
      "d": 120,
      "v": 76
    },
    {
      "midi": 43,
      "hit": false,
      "t": 38400,
      "d": 120,
      "v": 70
    },
    {
      "midi": 60,
      "hit": false,
      "t": 38520,
      "d": 120,
      "v": 64
    },
    {
      "midi": 51,
      "hit": false,
      "t": 38520,
      "d": 120,
      "v": 56
    },
    {
      "midi": 59,
      "hit": false,
      "t": 38640,
      "d": 120,
      "v": 58
    },
    {
      "midi": 50,
      "hit": false,
      "t": 38640,
      "d": 120,
      "v": 56
    },
    {
      "midi": 60,
      "hit": false,
      "t": 38760,
      "d": 120,
      "v": 58
    },
    {
      "midi": 51,
      "hit": false,
      "t": 38760,
      "d": 120,
      "v": 56
    },
    {
      "midi": 55,
      "hit": false,
      "t": 38880,
      "d": 120,
      "v": 63
    },
    {
      "midi": 53,
      "hit": false,
      "t": 38880,
      "d": 120,
      "v": 64
    },
    {
      "midi": 60,
      "hit": false,
      "t": 39000,
      "d": 120,
      "v": 57
    },
    {
      "midi": 51,
      "hit": false,
      "t": 39000,
      "d": 120,
      "v": 56
    },
    {
      "midi": 59,
      "hit": false,
      "t": 39120,
      "d": 120,
      "v": 57
    },
    {
      "midi": 50,
      "hit": false,
      "t": 39120,
      "d": 120,
      "v": 56
    },
    {
      "midi": 60,
      "hit": false,
      "t": 39240,
      "d": 120,
      "v": 57
    },
    {
      "midi": 51,
      "hit": false,
      "t": 39240,
      "d": 120,
      "v": 56
    },
    {
      "midi": 63,
      "hit": false,
      "t": 39360,
      "d": 120,
      "v": 76
    },
    {
      "midi": 43,
      "hit": false,
      "t": 39360,
      "d": 120,
      "v": 70
    },
    {
      "midi": 60,
      "hit": false,
      "t": 39480,
      "d": 120,
      "v": 58
    },
    {
      "midi": 51,
      "hit": false,
      "t": 39480,
      "d": 120,
      "v": 57
    },
    {
      "midi": 59,
      "hit": false,
      "t": 39600,
      "d": 120,
      "v": 58
    },
    {
      "midi": 50,
      "hit": false,
      "t": 39600,
      "d": 120,
      "v": 57
    },
    {
      "midi": 60,
      "hit": false,
      "t": 39720,
      "d": 120,
      "v": 58
    },
    {
      "midi": 51,
      "hit": false,
      "t": 39720,
      "d": 120,
      "v": 57
    },
    {
      "midi": 55,
      "hit": false,
      "t": 39840,
      "d": 120,
      "v": 63
    },
    {
      "midi": 53,
      "hit": false,
      "t": 39840,
      "d": 120,
      "v": 64
    },
    {
      "midi": 60,
      "hit": false,
      "t": 39960,
      "d": 120,
      "v": 57
    },
    {
      "midi": 51,
      "hit": false,
      "t": 39960,
      "d": 120,
      "v": 57
    },
    {
      "midi": 59,
      "hit": false,
      "t": 40080,
      "d": 120,
      "v": 58
    },
    {
      "midi": 50,
      "hit": false,
      "t": 40080,
      "d": 120,
      "v": 57
    },
    {
      "midi": 60,
      "hit": false,
      "t": 40200,
      "d": 120,
      "v": 58
    },
    {
      "midi": 51,
      "hit": false,
      "t": 40200,
      "d": 120,
      "v": 57
    },
    {
      "midi": 66,
      "hit": false,
      "t": 40320,
      "d": 120,
      "v": 76
    },
    {
      "midi": 43,
      "hit": false,
      "t": 40320,
      "d": 120,
      "v": 70
    },
    {
      "midi": 60,
      "hit": false,
      "t": 40440,
      "d": 120,
      "v": 64
    },
    {
      "midi": 51,
      "hit": false,
      "t": 40440,
      "d": 120,
      "v": 56
    },
    {
      "midi": 59,
      "hit": false,
      "t": 40560,
      "d": 120,
      "v": 57
    },
    {
      "midi": 50,
      "hit": false,
      "t": 40560,
      "d": 120,
      "v": 56
    },
    {
      "midi": 60,
      "hit": false,
      "t": 40680,
      "d": 120,
      "v": 58
    },
    {
      "midi": 51,
      "hit": false,
      "t": 40680,
      "d": 120,
      "v": 56
    },
    {
      "midi": 57,
      "hit": false,
      "t": 40800,
      "d": 120,
      "v": 63
    },
    {
      "midi": 48,
      "hit": false,
      "t": 40800,
      "d": 120,
      "v": 64
    },
    {
      "midi": 60,
      "hit": false,
      "t": 40920,
      "d": 120,
      "v": 57
    },
    {
      "midi": 51,
      "hit": false,
      "t": 40920,
      "d": 120,
      "v": 56
    },
    {
      "midi": 59,
      "hit": false,
      "t": 41040,
      "d": 120,
      "v": 57
    },
    {
      "midi": 50,
      "hit": false,
      "t": 41040,
      "d": 120,
      "v": 56
    },
    {
      "midi": 60,
      "hit": false,
      "t": 41160,
      "d": 120,
      "v": 57
    },
    {
      "midi": 51,
      "hit": false,
      "t": 41160,
      "d": 120,
      "v": 56
    },
    {
      "midi": 66,
      "hit": false,
      "t": 41280,
      "d": 120,
      "v": 76
    },
    {
      "midi": 43,
      "hit": false,
      "t": 41280,
      "d": 120,
      "v": 71
    },
    {
      "midi": 60,
      "hit": false,
      "t": 41400,
      "d": 120,
      "v": 64
    },
    {
      "midi": 51,
      "hit": false,
      "t": 41400,
      "d": 120,
      "v": 56
    },
    {
      "midi": 59,
      "hit": false,
      "t": 41520,
      "d": 120,
      "v": 57
    },
    {
      "midi": 50,
      "hit": false,
      "t": 41520,
      "d": 120,
      "v": 56
    },
    {
      "midi": 60,
      "hit": false,
      "t": 41640,
      "d": 120,
      "v": 57
    },
    {
      "midi": 51,
      "hit": false,
      "t": 41640,
      "d": 120,
      "v": 56
    },
    {
      "midi": 57,
      "hit": false,
      "t": 41760,
      "d": 120,
      "v": 64
    },
    {
      "midi": 48,
      "hit": false,
      "t": 41760,
      "d": 120,
      "v": 65
    },
    {
      "midi": 60,
      "hit": false,
      "t": 41880,
      "d": 120,
      "v": 58
    },
    {
      "midi": 51,
      "hit": false,
      "t": 41880,
      "d": 120,
      "v": 56
    },
    {
      "midi": 59,
      "hit": false,
      "t": 42000,
      "d": 120,
      "v": 58
    },
    {
      "midi": 50,
      "hit": false,
      "t": 42000,
      "d": 120,
      "v": 57
    },
    {
      "midi": 60,
      "hit": false,
      "t": 42120,
      "d": 120,
      "v": 58
    },
    {
      "midi": 51,
      "hit": false,
      "t": 42120,
      "d": 120,
      "v": 57
    },
    {
      "midi": 67,
      "hit": false,
      "t": 42240,
      "d": 120,
      "v": 79
    },
    {
      "midi": 43,
      "hit": false,
      "t": 42240,
      "d": 120,
      "v": 73
    },
    {
      "midi": 60,
      "hit": false,
      "t": 42360,
      "d": 120,
      "v": 65
    },
    {
      "midi": 51,
      "hit": false,
      "t": 42360,
      "d": 120,
      "v": 58
    },
    {
      "midi": 59,
      "hit": false,
      "t": 42480,
      "d": 120,
      "v": 57
    },
    {
      "midi": 50,
      "hit": false,
      "t": 42480,
      "d": 120,
      "v": 58
    },
    {
      "midi": 60,
      "hit": false,
      "t": 42600,
      "d": 120,
      "v": 58
    },
    {
      "midi": 51,
      "hit": false,
      "t": 42600,
      "d": 120,
      "v": 58
    },
    {
      "midi": 62,
      "hit": false,
      "t": 42720,
      "d": 120,
      "v": 66
    },
    {
      "midi": 53,
      "hit": false,
      "t": 42720,
      "d": 120,
      "v": 66
    },
    {
      "midi": 60,
      "hit": false,
      "t": 42840,
      "d": 120,
      "v": 58
    },
    {
      "midi": 51,
      "hit": false,
      "t": 42840,
      "d": 120,
      "v": 58
    },
    {
      "midi": 59,
      "hit": false,
      "t": 42960,
      "d": 120,
      "v": 58
    },
    {
      "midi": 50,
      "hit": false,
      "t": 42960,
      "d": 120,
      "v": 58
    },
    {
      "midi": 60,
      "hit": false,
      "t": 43080,
      "d": 120,
      "v": 58
    },
    {
      "midi": 51,
      "hit": false,
      "t": 43080,
      "d": 120,
      "v": 58
    },
    {
      "midi": 67,
      "hit": false,
      "t": 43200,
      "d": 120,
      "v": 79
    },
    {
      "midi": 43,
      "hit": false,
      "t": 43200,
      "d": 120,
      "v": 73
    },
    {
      "midi": 60,
      "hit": false,
      "t": 43320,
      "d": 120,
      "v": 67
    },
    {
      "midi": 51,
      "hit": false,
      "t": 43320,
      "d": 120,
      "v": 58
    },
    {
      "midi": 59,
      "hit": false,
      "t": 43440,
      "d": 120,
      "v": 58
    },
    {
      "midi": 50,
      "hit": false,
      "t": 43440,
      "d": 120,
      "v": 58
    },
    {
      "midi": 60,
      "hit": false,
      "t": 43560,
      "d": 120,
      "v": 58
    },
    {
      "midi": 51,
      "hit": false,
      "t": 43560,
      "d": 120,
      "v": 58
    },
    {
      "midi": 62,
      "hit": false,
      "t": 43680,
      "d": 120,
      "v": 67
    },
    {
      "midi": 53,
      "hit": false,
      "t": 43680,
      "d": 120,
      "v": 67
    },
    {
      "midi": 60,
      "hit": false,
      "t": 43800,
      "d": 120,
      "v": 59
    },
    {
      "midi": 51,
      "hit": false,
      "t": 43800,
      "d": 120,
      "v": 58
    },
    {
      "midi": 59,
      "hit": false,
      "t": 43920,
      "d": 120,
      "v": 59
    },
    {
      "midi": 50,
      "hit": false,
      "t": 43920,
      "d": 120,
      "v": 58
    },
    {
      "midi": 60,
      "hit": false,
      "t": 44040,
      "d": 120,
      "v": 59
    },
    {
      "midi": 51,
      "hit": false,
      "t": 44040,
      "d": 120,
      "v": 58
    },
    {
      "midi": 68,
      "hit": false,
      "t": 44160,
      "d": 120,
      "v": 80
    },
    {
      "midi": 43,
      "hit": false,
      "t": 44160,
      "d": 120,
      "v": 75
    },
    {
      "midi": 60,
      "hit": false,
      "t": 44280,
      "d": 120,
      "v": 67
    },
    {
      "midi": 51,
      "hit": false,
      "t": 44280,
      "d": 120,
      "v": 59
    },
    {
      "midi": 59,
      "hit": false,
      "t": 44400,
      "d": 120,
      "v": 61
    },
    {
      "midi": 50,
      "hit": false,
      "t": 44400,
      "d": 120,
      "v": 59
    },
    {
      "midi": 60,
      "hit": false,
      "t": 44520,
      "d": 120,
      "v": 61
    },
    {
      "midi": 51,
      "hit": false,
      "t": 44520,
      "d": 120,
      "v": 59
    },
    {
      "midi": 62,
      "hit": false,
      "t": 44640,
      "d": 120,
      "v": 68
    },
    {
      "midi": 53,
      "hit": false,
      "t": 44640,
      "d": 120,
      "v": 68
    },
    {
      "midi": 60,
      "hit": false,
      "t": 44760,
      "d": 120,
      "v": 60
    },
    {
      "midi": 51,
      "hit": false,
      "t": 44760,
      "d": 120,
      "v": 58
    },
    {
      "midi": 59,
      "hit": false,
      "t": 44880,
      "d": 120,
      "v": 60
    },
    {
      "midi": 50,
      "hit": false,
      "t": 44880,
      "d": 120,
      "v": 58
    },
    {
      "midi": 60,
      "hit": false,
      "t": 45000,
      "d": 120,
      "v": 60
    },
    {
      "midi": 51,
      "hit": false,
      "t": 45000,
      "d": 120,
      "v": 59
    },
    {
      "midi": 68,
      "hit": false,
      "t": 45120,
      "d": 120,
      "v": 83
    },
    {
      "midi": 43,
      "hit": false,
      "t": 45120,
      "d": 120,
      "v": 75
    },
    {
      "midi": 60,
      "hit": false,
      "t": 45240,
      "d": 120,
      "v": 69
    },
    {
      "midi": 51,
      "hit": false,
      "t": 45240,
      "d": 120,
      "v": 60
    },
    {
      "midi": 59,
      "hit": false,
      "t": 45360,
      "d": 120,
      "v": 62
    },
    {
      "midi": 50,
      "hit": false,
      "t": 45360,
      "d": 120,
      "v": 60
    },
    {
      "midi": 60,
      "hit": false,
      "t": 45480,
      "d": 120,
      "v": 62
    },
    {
      "midi": 51,
      "hit": false,
      "t": 45480,
      "d": 120,
      "v": 60
    },
    {
      "midi": 62,
      "hit": false,
      "t": 45600,
      "d": 120,
      "v": 69
    },
    {
      "midi": 53,
      "hit": false,
      "t": 45600,
      "d": 120,
      "v": 69
    },
    {
      "midi": 60,
      "hit": false,
      "t": 45720,
      "d": 120,
      "v": 61
    },
    {
      "midi": 51,
      "hit": false,
      "t": 45720,
      "d": 120,
      "v": 61
    },
    {
      "midi": 59,
      "hit": false,
      "t": 45840,
      "d": 120,
      "v": 61
    },
    {
      "midi": 50,
      "hit": false,
      "t": 45840,
      "d": 120,
      "v": 61
    },
    {
      "midi": 60,
      "hit": false,
      "t": 45960,
      "d": 120,
      "v": 61
    },
    {
      "midi": 51,
      "hit": false,
      "t": 45960,
      "d": 120,
      "v": 61
    },
    {
      "midi": 43,
      "hit": false,
      "t": 46080,
      "d": 120,
      "v": 65
    },
    {
      "midi": 47,
      "hit": false,
      "t": 46200,
      "d": 120,
      "v": 68
    },
    {
      "midi": 50,
      "hit": false,
      "t": 46320,
      "d": 120,
      "v": 71
    },
    {
      "midi": 53,
      "hit": false,
      "t": 46440,
      "d": 120,
      "v": 74
    },
    {
      "midi": 56,
      "hit": false,
      "t": 46560,
      "d": 120,
      "v": 74
    },
    {
      "midi": 53,
      "hit": false,
      "t": 46680,
      "d": 120,
      "v": 70
    },
    {
      "midi": 52,
      "hit": false,
      "t": 46800,
      "d": 120,
      "v": 70
    },
    {
      "midi": 53,
      "hit": false,
      "t": 46920,
      "d": 120,
      "v": 70
    },
    {
      "midi": 59,
      "hit": false,
      "t": 47040,
      "d": 120,
      "v": 74
    },
    {
      "midi": 53,
      "hit": false,
      "t": 47160,
      "d": 120,
      "v": 70
    },
    {
      "midi": 62,
      "hit": false,
      "t": 47280,
      "d": 120,
      "v": 74
    },
    {
      "midi": 59,
      "hit": false,
      "t": 47400,
      "d": 120,
      "v": 70
    },
    {
      "midi": 56,
      "hit": false,
      "t": 47520,
      "d": 120,
      "v": 72
    },
    {
      "midi": 53,
      "hit": false,
      "t": 47640,
      "d": 120,
      "v": 71
    },
    {
      "midi": 52,
      "hit": false,
      "t": 47760,
      "d": 120,
      "v": 70
    },
    {
      "midi": 53,
      "hit": false,
      "t": 47880,
      "d": 120,
      "v": 69
    },
    {
      "midi": 43,
      "hit": false,
      "t": 48000,
      "d": 120,
      "v": 64
    },
    {
      "midi": 48,
      "hit": false,
      "t": 48120,
      "d": 120,
      "v": 66
    },
    {
      "midi": 51,
      "hit": false,
      "t": 48240,
      "d": 120,
      "v": 68
    },
    {
      "midi": 55,
      "hit": false,
      "t": 48360,
      "d": 120,
      "v": 72
    },
    {
      "midi": 60,
      "hit": false,
      "t": 48480,
      "d": 120,
      "v": 75
    },
    {
      "midi": 55,
      "hit": false,
      "t": 48600,
      "d": 120,
      "v": 70
    },
    {
      "midi": 54,
      "hit": false,
      "t": 48720,
      "d": 120,
      "v": 70
    },
    {
      "midi": 55,
      "hit": false,
      "t": 48840,
      "d": 120,
      "v": 70
    },
    {
      "midi": 63,
      "hit": false,
      "t": 48960,
      "d": 120,
      "v": 74
    },
    {
      "midi": 60,
      "hit": false,
      "t": 49080,
      "d": 120,
      "v": 70
    },
    {
      "midi": 67,
      "hit": false,
      "t": 49200,
      "d": 120,
      "v": 74
    },
    {
      "midi": 63,
      "hit": false,
      "t": 49320,
      "d": 120,
      "v": 70
    },
    {
      "midi": 60,
      "hit": false,
      "t": 49440,
      "d": 120,
      "v": 74
    },
    {
      "midi": 56,
      "hit": false,
      "t": 49560,
      "d": 120,
      "v": 70
    },
    {
      "midi": 55,
      "hit": false,
      "t": 49680,
      "d": 120,
      "v": 72
    },
    {
      "midi": 56,
      "hit": false,
      "t": 49800,
      "d": 120,
      "v": 70
    },
    {
      "midi": 43,
      "hit": false,
      "t": 49920,
      "d": 120,
      "v": 67
    },
    {
      "midi": 45,
      "hit": false,
      "t": 50040,
      "d": 120,
      "v": 70
    },
    {
      "midi": 54,
      "hit": false,
      "t": 50160,
      "d": 120,
      "v": 70
    },
    {
      "midi": 60,
      "hit": false,
      "t": 50280,
      "d": 120,
      "v": 71
    },
    {
      "midi": 63,
      "hit": false,
      "t": 50400,
      "d": 120,
      "v": 75
    },
    {
      "midi": 60,
      "hit": false,
      "t": 50520,
      "d": 120,
      "v": 70
    },
    {
      "midi": 59,
      "hit": false,
      "t": 50640,
      "d": 120,
      "v": 70
    },
    {
      "midi": 60,
      "hit": false,
      "t": 50760,
      "d": 120,
      "v": 70
    },
    {
      "midi": 66,
      "hit": false,
      "t": 50880,
      "d": 120,
      "v": 74
    },
    {
      "midi": 60,
      "hit": false,
      "t": 51000,
      "d": 120,
      "v": 70
    },
    {
      "midi": 69,
      "hit": false,
      "t": 51120,
      "d": 120,
      "v": 74
    },
    {
      "midi": 66,
      "hit": false,
      "t": 51240,
      "d": 120,
      "v": 70
    },
    {
      "midi": 63,
      "hit": false,
      "t": 51360,
      "d": 120,
      "v": 73
    },
    {
      "midi": 60,
      "hit": false,
      "t": 51480,
      "d": 120,
      "v": 70
    },
    {
      "midi": 59,
      "hit": false,
      "t": 51600,
      "d": 120,
      "v": 70
    },
    {
      "midi": 60,
      "hit": false,
      "t": 51720,
      "d": 120,
      "v": 70
    },
    {
      "midi": 43,
      "hit": false,
      "t": 51840,
      "d": 1920,
      "v": 67
    },
    {
      "midi": 74,
      "hit": false,
      "t": 51960,
      "d": 120,
      "v": 67
    },
    {
      "midi": 72,
      "hit": false,
      "t": 52080,
      "d": 120,
      "v": 65
    },
    {
      "midi": 74,
      "hit": false,
      "t": 52200,
      "d": 120,
      "v": 65
    },
    {
      "midi": 75,
      "hit": false,
      "t": 52320,
      "d": 120,
      "v": 72
    },
    {
      "midi": 72,
      "hit": false,
      "t": 52440,
      "d": 120,
      "v": 67
    },
    {
      "midi": 71,
      "hit": false,
      "t": 52560,
      "d": 120,
      "v": 63
    },
    {
      "midi": 72,
      "hit": false,
      "t": 52680,
      "d": 120,
      "v": 63
    },
    {
      "midi": 69,
      "hit": false,
      "t": 52800,
      "d": 120,
      "v": 73
    },
    {
      "midi": 72,
      "hit": false,
      "t": 52920,
      "d": 120,
      "v": 67
    },
    {
      "midi": 71,
      "hit": false,
      "t": 53040,
      "d": 120,
      "v": 64
    },
    {
      "midi": 72,
      "hit": false,
      "t": 53160,
      "d": 120,
      "v": 64
    },
    {
      "midi": 74,
      "hit": false,
      "t": 53280,
      "d": 120,
      "v": 67
    },
    {
      "midi": 71,
      "hit": false,
      "t": 53400,
      "d": 120,
      "v": 64
    },
    {
      "midi": 69,
      "hit": false,
      "t": 53520,
      "d": 120,
      "v": 64
    },
    {
      "midi": 71,
      "hit": false,
      "t": 53640,
      "d": 120,
      "v": 64
    },
    {
      "midi": 67,
      "hit": false,
      "t": 53760,
      "d": 120,
      "v": 75
    },
    {
      "midi": 71,
      "hit": false,
      "t": 53880,
      "d": 120,
      "v": 67
    },
    {
      "midi": 62,
      "hit": false,
      "t": 53880,
      "d": 120,
      "v": 60
    },
    {
      "midi": 69,
      "hit": false,
      "t": 54000,
      "d": 120,
      "v": 64
    },
    {
      "midi": 60,
      "hit": false,
      "t": 54000,
      "d": 120,
      "v": 60
    },
    {
      "midi": 71,
      "hit": false,
      "t": 54120,
      "d": 120,
      "v": 64
    },
    {
      "midi": 62,
      "hit": false,
      "t": 54120,
      "d": 120,
      "v": 61
    },
    {
      "midi": 72,
      "hit": false,
      "t": 54240,
      "d": 120,
      "v": 70
    },
    {
      "midi": 63,
      "hit": false,
      "t": 54240,
      "d": 120,
      "v": 70
    },
    {
      "midi": 69,
      "hit": false,
      "t": 54360,
      "d": 120,
      "v": 64
    },
    {
      "midi": 60,
      "hit": false,
      "t": 54360,
      "d": 120,
      "v": 67
    },
    {
      "midi": 67,
      "hit": false,
      "t": 54480,
      "d": 120,
      "v": 64
    },
    {
      "midi": 59,
      "hit": false,
      "t": 54480,
      "d": 120,
      "v": 60
    },
    {
      "midi": 69,
      "hit": false,
      "t": 54600,
      "d": 120,
      "v": 65
    },
    {
      "midi": 60,
      "hit": false,
      "t": 54600,
      "d": 120,
      "v": 60
    },
    {
      "midi": 66,
      "hit": false,
      "t": 54720,
      "d": 120,
      "v": 75
    },
    {
      "midi": 57,
      "hit": false,
      "t": 54720,
      "d": 120,
      "v": 75
    },
    {
      "midi": 69,
      "hit": false,
      "t": 54840,
      "d": 120,
      "v": 67
    },
    {
      "midi": 60,
      "hit": false,
      "t": 54840,
      "d": 120,
      "v": 61
    },
    {
      "midi": 67,
      "hit": false,
      "t": 54960,
      "d": 120,
      "v": 64
    },
    {
      "midi": 59,
      "hit": false,
      "t": 54960,
      "d": 120,
      "v": 61
    },
    {
      "midi": 69,
      "hit": false,
      "t": 55080,
      "d": 120,
      "v": 64
    },
    {
      "midi": 60,
      "hit": false,
      "t": 55080,
      "d": 120,
      "v": 61
    },
    {
      "midi": 71,
      "hit": false,
      "t": 55200,
      "d": 120,
      "v": 70
    },
    {
      "midi": 62,
      "hit": false,
      "t": 55200,
      "d": 120,
      "v": 70
    },
    {
      "midi": 67,
      "hit": false,
      "t": 55320,
      "d": 120,
      "v": 65
    },
    {
      "midi": 59,
      "hit": false,
      "t": 55320,
      "d": 120,
      "v": 61
    },
    {
      "midi": 66,
      "hit": false,
      "t": 55440,
      "d": 120,
      "v": 65
    },
    {
      "midi": 57,
      "hit": false,
      "t": 55440,
      "d": 120,
      "v": 61
    },
    {
      "midi": 67,
      "hit": false,
      "t": 55560,
      "d": 120,
      "v": 65
    },
    {
      "midi": 59,
      "hit": false,
      "t": 55560,
      "d": 120,
      "v": 61
    },
    {
      "midi": 62,
      "hit": false,
      "t": 55680,
      "d": 120,
      "v": 75
    },
    {
      "midi": 55,
      "hit": false,
      "t": 55680,
      "d": 120,
      "v": 74
    },
    {
      "midi": 79,
      "hit": false,
      "t": 55800,
      "d": 120,
      "v": 70
    },
    {
      "midi": 59,
      "hit": false,
      "t": 55800,
      "d": 120,
      "v": 61
    },
    {
      "midi": 77,
      "hit": false,
      "t": 55920,
      "d": 120,
      "v": 67
    },
    {
      "midi": 57,
      "hit": false,
      "t": 55920,
      "d": 120,
      "v": 61
    },
    {
      "midi": 79,
      "hit": false,
      "t": 56040,
      "d": 120,
      "v": 67
    },
    {
      "midi": 59,
      "hit": false,
      "t": 56040,
      "d": 120,
      "v": 61
    },
    {
      "midi": 80,
      "hit": false,
      "t": 56160,
      "d": 120,
      "v": 73
    },
    {
      "midi": 60,
      "hit": false,
      "t": 56160,
      "d": 120,
      "v": 71
    },
    {
      "midi": 77,
      "hit": false,
      "t": 56280,
      "d": 120,
      "v": 68
    },
    {
      "midi": 56,
      "hit": false,
      "t": 56280,
      "d": 120,
      "v": 61
    },
    {
      "midi": 75,
      "hit": false,
      "t": 56400,
      "d": 120,
      "v": 68
    },
    {
      "midi": 55,
      "hit": false,
      "t": 56400,
      "d": 120,
      "v": 61
    },
    {
      "midi": 77,
      "hit": false,
      "t": 56520,
      "d": 120,
      "v": 68
    },
    {
      "midi": 56,
      "hit": false,
      "t": 56520,
      "d": 120,
      "v": 61
    },
    {
      "midi": 74,
      "hit": false,
      "t": 56640,
      "d": 120,
      "v": 77
    },
    {
      "midi": 53,
      "hit": false,
      "t": 56640,
      "d": 120,
      "v": 74
    },
    {
      "midi": 77,
      "hit": false,
      "t": 56760,
      "d": 120,
      "v": 70
    },
    {
      "midi": 57,
      "hit": false,
      "t": 56760,
      "d": 120,
      "v": 63
    },
    {
      "midi": 75,
      "hit": false,
      "t": 56880,
      "d": 120,
      "v": 66
    },
    {
      "midi": 55,
      "hit": false,
      "t": 56880,
      "d": 120,
      "v": 63
    },
    {
      "midi": 77,
      "hit": false,
      "t": 57000,
      "d": 120,
      "v": 66
    },
    {
      "midi": 57,
      "hit": false,
      "t": 57000,
      "d": 120,
      "v": 63
    },
    {
      "midi": 79,
      "hit": false,
      "t": 57120,
      "d": 120,
      "v": 73
    },
    {
      "midi": 59,
      "hit": false,
      "t": 57120,
      "d": 120,
      "v": 71
    },
    {
      "midi": 75,
      "hit": false,
      "t": 57240,
      "d": 120,
      "v": 67
    },
    {
      "midi": 55,
      "hit": false,
      "t": 57240,
      "d": 120,
      "v": 62
    },
    {
      "midi": 74,
      "hit": false,
      "t": 57360,
      "d": 120,
      "v": 67
    },
    {
      "midi": 53,
      "hit": false,
      "t": 57360,
      "d": 120,
      "v": 62
    },
    {
      "midi": 75,
      "hit": false,
      "t": 57480,
      "d": 120,
      "v": 68
    },
    {
      "midi": 55,
      "hit": false,
      "t": 57480,
      "d": 120,
      "v": 62
    },
    {
      "midi": 72,
      "hit": false,
      "t": 57600,
      "d": 120,
      "v": 75
    },
    {
      "midi": 51,
      "hit": false,
      "t": 57600,
      "d": 120,
      "v": 76
    },
    {
      "midi": 75,
      "hit": false,
      "t": 57720,
      "d": 120,
      "v": 67
    },
    {
      "midi": 67,
      "hit": false,
      "t": 57720,
      "d": 120,
      "v": 63
    },
    {
      "midi": 74,
      "hit": false,
      "t": 57840,
      "d": 120,
      "v": 65
    },
    {
      "midi": 65,
      "hit": false,
      "t": 57840,
      "d": 120,
      "v": 63
    },
    {
      "midi": 75,
      "hit": false,
      "t": 57960,
      "d": 120,
      "v": 67
    },
    {
      "midi": 67,
      "hit": false,
      "t": 57960,
      "d": 120,
      "v": 63
    },
    {
      "midi": 77,
      "hit": false,
      "t": 58080,
      "d": 120,
      "v": 71
    },
    {
      "midi": 68,
      "hit": false,
      "t": 58080,
      "d": 120,
      "v": 71
    },
    {
      "midi": 74,
      "hit": false,
      "t": 58200,
      "d": 120,
      "v": 65
    },
    {
      "midi": 65,
      "hit": false,
      "t": 58200,
      "d": 120,
      "v": 63
    },
    {
      "midi": 72,
      "hit": false,
      "t": 58320,
      "d": 120,
      "v": 65
    },
    {
      "midi": 63,
      "hit": false,
      "t": 58320,
      "d": 120,
      "v": 63
    },
    {
      "midi": 74,
      "hit": false,
      "t": 58440,
      "d": 120,
      "v": 65
    },
    {
      "midi": 65,
      "hit": false,
      "t": 58440,
      "d": 120,
      "v": 63
    },
    {
      "midi": 71,
      "hit": false,
      "t": 58560,
      "d": 120,
      "v": 75
    },
    {
      "midi": 62,
      "hit": false,
      "t": 58560,
      "d": 120,
      "v": 76
    },
    {
      "midi": 74,
      "hit": false,
      "t": 58680,
      "d": 120,
      "v": 67
    },
    {
      "midi": 65,
      "hit": false,
      "t": 58680,
      "d": 120,
      "v": 64
    },
    {
      "midi": 72,
      "hit": false,
      "t": 58800,
      "d": 120,
      "v": 65
    },
    {
      "midi": 63,
      "hit": false,
      "t": 58800,
      "d": 120,
      "v": 65
    },
    {
      "midi": 74,
      "hit": false,
      "t": 58920,
      "d": 120,
      "v": 67
    },
    {
      "midi": 65,
      "hit": false,
      "t": 58920,
      "d": 120,
      "v": 63
    },
    {
      "midi": 75,
      "hit": false,
      "t": 59040,
      "d": 120,
      "v": 71
    },
    {
      "midi": 67,
      "hit": false,
      "t": 59040,
      "d": 120,
      "v": 71
    },
    {
      "midi": 72,
      "hit": false,
      "t": 59160,
      "d": 120,
      "v": 65
    },
    {
      "midi": 63,
      "hit": false,
      "t": 59160,
      "d": 120,
      "v": 63
    },
    {
      "midi": 71,
      "hit": false,
      "t": 59280,
      "d": 120,
      "v": 65
    },
    {
      "midi": 62,
      "hit": false,
      "t": 59280,
      "d": 120,
      "v": 62
    },
    {
      "midi": 72,
      "hit": false,
      "t": 59400,
      "d": 120,
      "v": 65
    },
    {
      "midi": 63,
      "hit": false,
      "t": 59400,
      "d": 120,
      "v": 62
    },
    {
      "midi": 67,
      "hit": false,
      "t": 59520,
      "d": 120,
      "v": 75
    },
    {
      "midi": 60,
      "hit": false,
      "t": 59520,
      "d": 120,
      "v": 74
    },
    {
      "midi": 72,
      "hit": false,
      "t": 59640,
      "d": 120,
      "v": 67
    },
    {
      "midi": 63,
      "hit": false,
      "t": 59640,
      "d": 120,
      "v": 63
    },
    {
      "midi": 71,
      "hit": false,
      "t": 59760,
      "d": 120,
      "v": 64
    },
    {
      "midi": 62,
      "hit": false,
      "t": 59760,
      "d": 120,
      "v": 63
    },
    {
      "midi": 72,
      "hit": false,
      "t": 59880,
      "d": 120,
      "v": 65
    },
    {
      "midi": 63,
      "hit": false,
      "t": 59880,
      "d": 120,
      "v": 63
    },
    {
      "midi": 68,
      "hit": false,
      "t": 60000,
      "d": 120,
      "v": 80
    },
    {
      "midi": 65,
      "hit": false,
      "t": 60000,
      "d": 120,
      "v": 77
    },
    {
      "midi": 77,
      "hit": false,
      "t": 60120,
      "d": 120,
      "v": 65
    },
    {
      "midi": 62,
      "hit": false,
      "t": 60120,
      "d": 120,
      "v": 60
    },
    {
      "midi": 75,
      "hit": false,
      "t": 60240,
      "d": 120,
      "v": 65
    },
    {
      "midi": 60,
      "hit": false,
      "t": 60240,
      "d": 120,
      "v": 60
    },
    {
      "midi": 77,
      "hit": false,
      "t": 60360,
      "d": 120,
      "v": 64
    },
    {
      "midi": 62,
      "hit": false,
      "t": 60360,
      "d": 120,
      "v": 61
    },
    {
      "midi": 67,
      "hit": false,
      "t": 60480,
      "d": 120,
      "v": 80
    },
    {
      "midi": 63,
      "hit": false,
      "t": 60480,
      "d": 120,
      "v": 77
    },
    {
      "midi": 75,
      "hit": false,
      "t": 60600,
      "d": 120,
      "v": 67
    },
    {
      "midi": 60,
      "hit": false,
      "t": 60600,
      "d": 120,
      "v": 62
    },
    {
      "midi": 74,
      "hit": false,
      "t": 60720,
      "d": 120,
      "v": 65
    },
    {
      "midi": 59,
      "hit": false,
      "t": 60720,
      "d": 120,
      "v": 63
    },
    {
      "midi": 75,
      "hit": false,
      "t": 60840,
      "d": 120,
      "v": 67
    },
    {
      "midi": 60,
      "hit": false,
      "t": 60840,
      "d": 120,
      "v": 63
    },
    {
      "midi": 65,
      "hit": false,
      "t": 60960,
      "d": 120,
      "v": 81
    },
    {
      "midi": 62,
      "hit": false,
      "t": 60960,
      "d": 120,
      "v": 77
    },
    {
      "midi": 74,
      "hit": false,
      "t": 61080,
      "d": 120,
      "v": 65
    },
    {
      "midi": 59,
      "hit": false,
      "t": 61080,
      "d": 120,
      "v": 63
    },
    {
      "midi": 72,
      "hit": false,
      "t": 61200,
      "d": 120,
      "v": 65
    },
    {
      "midi": 57,
      "hit": false,
      "t": 61200,
      "d": 120,
      "v": 63
    },
    {
      "midi": 74,
      "hit": false,
      "t": 61320,
      "d": 120,
      "v": 65
    },
    {
      "midi": 59,
      "hit": false,
      "t": 61320,
      "d": 120,
      "v": 62
    },
    {
      "midi": 63,
      "hit": false,
      "t": 61440,
      "d": 120,
      "v": 81
    },
    {
      "midi": 60,
      "hit": false,
      "t": 61440,
      "d": 120,
      "v": 77
    },
    {
      "midi": 72,
      "hit": false,
      "t": 61560,
      "d": 120,
      "v": 67
    },
    {
      "midi": 63,
      "hit": false,
      "t": 61560,
      "d": 120,
      "v": 60
    },
    {
      "midi": 71,
      "hit": false,
      "t": 61680,
      "d": 120,
      "v": 65
    },
    {
      "midi": 62,
      "hit": false,
      "t": 61680,
      "d": 120,
      "v": 60
    },
    {
      "midi": 72,
      "hit": false,
      "t": 61800,
      "d": 120,
      "v": 67
    },
    {
      "midi": 63,
      "hit": false,
      "t": 61800,
      "d": 120,
      "v": 61
    },
    {
      "midi": 68,
      "hit": false,
      "t": 61920,
      "d": 120,
      "v": 81
    },
    {
      "midi": 53,
      "hit": false,
      "t": 61920,
      "d": 120,
      "v": 77
    },
    {
      "midi": 65,
      "hit": false,
      "t": 62040,
      "d": 120,
      "v": 66
    },
    {
      "midi": 62,
      "hit": false,
      "t": 62040,
      "d": 120,
      "v": 62
    },
    {
      "midi": 63,
      "hit": false,
      "t": 62160,
      "d": 120,
      "v": 66
    },
    {
      "midi": 60,
      "hit": false,
      "t": 62160,
      "d": 120,
      "v": 62
    },
    {
      "midi": 65,
      "hit": false,
      "t": 62280,
      "d": 120,
      "v": 66
    },
    {
      "midi": 62,
      "hit": false,
      "t": 62280,
      "d": 120,
      "v": 62
    },
    {
      "midi": 67,
      "hit": false,
      "t": 62400,
      "d": 120,
      "v": 81
    },
    {
      "midi": 51,
      "hit": false,
      "t": 62400,
      "d": 120,
      "v": 77
    },
    {
      "midi": 63,
      "hit": false,
      "t": 62520,
      "d": 120,
      "v": 67
    },
    {
      "midi": 60,
      "hit": false,
      "t": 62520,
      "d": 120,
      "v": 62
    },
    {
      "midi": 62,
      "hit": false,
      "t": 62640,
      "d": 120,
      "v": 65
    },
    {
      "midi": 59,
      "hit": false,
      "t": 62640,
      "d": 120,
      "v": 62
    },
    {
      "midi": 63,
      "hit": false,
      "t": 62760,
      "d": 120,
      "v": 65
    },
    {
      "midi": 60,
      "hit": false,
      "t": 62760,
      "d": 120,
      "v": 62
    },
    {
      "midi": 65,
      "hit": false,
      "t": 62880,
      "d": 120,
      "v": 81
    },
    {
      "midi": 50,
      "hit": false,
      "t": 62880,
      "d": 120,
      "v": 77
    },
    {
      "midi": 62,
      "hit": false,
      "t": 63000,
      "d": 120,
      "v": 66
    },
    {
      "midi": 59,
      "hit": false,
      "t": 63000,
      "d": 120,
      "v": 61
    },
    {
      "midi": 60,
      "hit": false,
      "t": 63120,
      "d": 120,
      "v": 66
    },
    {
      "midi": 57,
      "hit": false,
      "t": 63120,
      "d": 120,
      "v": 61
    },
    {
      "midi": 62,
      "hit": false,
      "t": 63240,
      "d": 120,
      "v": 67
    },
    {
      "midi": 59,
      "hit": false,
      "t": 63240,
      "d": 120,
      "v": 61
    },
    {
      "midi": 48,
      "hit": false,
      "t": 63360,
      "d": 480,
      "v": 67
    },
    {
      "midi": 55,
      "hit": false,
      "t": 63360,
      "d": 480,
      "v": 67
    },
    {
      "midi": 64,
      "hit": false,
      "t": 63420,
      "d": 240,
      "v": 67
    },
    {
      "midi": 58,
      "hit": false,
      "t": 63420,
      "d": 360,
      "v": 67
    },
    {
      "midi": 60,
      "hit": false,
      "t": 63660,
      "d": 60,
      "v": 58
    },
    {
      "midi": 62,
      "hit": false,
      "t": 63720,
      "d": 60,
      "v": 60
    },
    {
      "midi": 64,
      "hit": false,
      "t": 63780,
      "d": 60,
      "v": 63
    },
    {
      "midi": 65,
      "hit": false,
      "t": 63840,
      "d": 60,
      "v": 66
    },
    {
      "midi": 67,
      "hit": false,
      "t": 63900,
      "d": 60,
      "v": 67
    },
    {
      "midi": 68,
      "hit": false,
      "t": 63900,
      "d": 60,
      "v": 68
    },
    {
      "midi": 70,
      "hit": false,
      "t": 63960,
      "d": 60,
      "v": 68
    },
    {
      "midi": 72,
      "hit": false,
      "t": 63960,
      "d": 60,
      "v": 66
    },
    {
      "midi": 68,
      "hit": false,
      "t": 64020,
      "d": 60,
      "v": 64
    },
    {
      "midi": 70,
      "hit": false,
      "t": 64020,
      "d": 60,
      "v": 65
    },
    {
      "midi": 67,
      "hit": false,
      "t": 64080,
      "d": 60,
      "v": 63
    },
    {
      "midi": 65,
      "hit": false,
      "t": 64080,
      "d": 120,
      "v": 62
    },
    {
      "midi": 67,
      "hit": false,
      "t": 64200,
      "d": 60,
      "v": 67
    },
    {
      "midi": 64,
      "hit": false,
      "t": 64260,
      "d": 60,
      "v": 67
    },
    {
      "midi": 48,
      "hit": false,
      "t": 64320,
      "d": 480,
      "v": 67
    },
    {
      "midi": 53,
      "hit": false,
      "t": 64320,
      "d": 480,
      "v": 67
    },
    {
      "midi": 64,
      "hit": false,
      "t": 64380,
      "d": 60,
      "v": 70
    },
    {
      "midi": 65,
      "hit": false,
      "t": 64380,
      "d": 60,
      "v": 80
    },
    {
      "midi": 60,
      "hit": false,
      "t": 64380,
      "d": 360,
      "v": 67
    },
    {
      "midi": 56,
      "hit": false,
      "t": 64380,
      "d": 360,
      "v": 67
    },
    {
      "midi": 65,
      "hit": false,
      "t": 64440,
      "d": 180,
      "v": 78
    },
    {
      "midi": 67,
      "hit": false,
      "t": 64620,
      "d": 60,
      "v": 67
    },
    {
      "midi": 65,
      "hit": false,
      "t": 64680,
      "d": 60,
      "v": 64
    },
    {
      "midi": 64,
      "hit": false,
      "t": 64740,
      "d": 60,
      "v": 64
    },
    {
      "midi": 65,
      "hit": false,
      "t": 64800,
      "d": 60,
      "v": 65
    },
    {
      "midi": 67,
      "hit": false,
      "t": 64860,
      "d": 60,
      "v": 65
    },
    {
      "midi": 68,
      "hit": false,
      "t": 64920,
      "d": 60,
      "v": 67
    },
    {
      "midi": 67,
      "hit": false,
      "t": 64980,
      "d": 60,
      "v": 67
    },
    {
      "midi": 65,
      "hit": false,
      "t": 65040,
      "d": 60,
      "v": 66
    },
    {
      "midi": 62,
      "hit": false,
      "t": 65100,
      "d": 60,
      "v": 64
    },
    {
      "midi": 63,
      "hit": false,
      "t": 65100,
      "d": 60,
      "v": 65
    },
    {
      "midi": 63,
      "hit": false,
      "t": 65160,
      "d": 60,
      "v": 65
    },
    {
      "midi": 65,
      "hit": false,
      "t": 65160,
      "d": 60,
      "v": 68
    },
    {
      "midi": 62,
      "hit": false,
      "t": 65220,
      "d": 60,
      "v": 63
    },
    {
      "midi": 63,
      "hit": false,
      "t": 65220,
      "d": 60,
      "v": 65
    },
    {
      "midi": 65,
      "hit": false,
      "t": 65280,
      "d": 60,
      "v": 67
    },
    {
      "midi": 59,
      "hit": false,
      "t": 65280,
      "d": 360,
      "v": 67
    },
    {
      "midi": 36,
      "hit": false,
      "t": 65400,
      "d": 120,
      "v": 60
    },
    {
      "midi": 47,
      "hit": false,
      "t": 65520,
      "d": 1440,
      "v": 65
    },
    {
      "midi": 50,
      "hit": false,
      "t": 65640,
      "d": 120,
      "v": 69
    },
    {
      "midi": 53,
      "hit": false,
      "t": 65760,
      "d": 120,
      "v": 69
    },
    {
      "midi": 56,
      "hit": false,
      "t": 65880,
      "d": 120,
      "v": 72
    },
    {
      "midi": 55,
      "hit": false,
      "t": 66000,
      "d": 120,
      "v": 71
    },
    {
      "midi": 53,
      "hit": false,
      "t": 66120,
      "d": 120,
      "v": 69
    },
    {
      "midi": 59,
      "hit": false,
      "t": 66240,
      "d": 120,
      "v": 72
    },
    {
      "midi": 53,
      "hit": false,
      "t": 66360,
      "d": 120,
      "v": 67
    },
    {
      "midi": 62,
      "hit": false,
      "t": 66480,
      "d": 120,
      "v": 74
    },
    {
      "midi": 53,
      "hit": false,
      "t": 66600,
      "d": 120,
      "v": 67
    },
    {
      "midi": 59,
      "hit": false,
      "t": 66720,
      "d": 120,
      "v": 70
    },
    {
      "midi": 56,
      "hit": false,
      "t": 66840,
      "d": 120,
      "v": 69
    },
    {
      "midi": 55,
      "hit": false,
      "t": 66960,
      "d": 120,
      "v": 68
    },
    {
      "midi": 53,
      "hit": false,
      "t": 67080,
      "d": 120,
      "v": 67
    },
    {
      "midi": 52,
      "hit": false,
      "t": 67200,
      "d": 120,
      "v": 72
    },
    {
      "midi": 61,
      "hit": false,
      "t": 67320,
      "d": 120,
      "v": 67
    },
    {
      "midi": 58,
      "hit": false,
      "t": 67440,
      "d": 120,
      "v": 67
    },
    {
      "midi": 55,
      "hit": false,
      "t": 67560,
      "d": 120,
      "v": 67
    },
    {
      "midi": 60,
      "hit": false,
      "t": 67680,
      "d": 120,
      "v": 72
    },
    {
      "midi": 56,
      "hit": false,
      "t": 67800,
      "d": 120,
      "v": 67
    },
    {
      "midi": 53,
      "hit": false,
      "t": 67920,
      "d": 120,
      "v": 67
    },
    {
      "midi": 56,
      "hit": false,
      "t": 68040,
      "d": 120,
      "v": 67
    },
    {
      "midi": 55,
      "hit": false,
      "t": 68160,
      "d": 120,
      "v": 72
    },
    {
      "midi": 58,
      "hit": false,
      "t": 68280,
      "d": 120,
      "v": 67
    },
    {
      "midi": 55,
      "hit": false,
      "t": 68400,
      "d": 120,
      "v": 67
    },
    {
      "midi": 52,
      "hit": false,
      "t": 68520,
      "d": 120,
      "v": 67
    },
    {
      "midi": 56,
      "hit": false,
      "t": 68640,
      "d": 120,
      "v": 72
    },
    {
      "midi": 53,
      "hit": false,
      "t": 68760,
      "d": 120,
      "v": 67
    },
    {
      "midi": 50,
      "hit": false,
      "t": 68880,
      "d": 120,
      "v": 67
    },
    {
      "midi": 53,
      "hit": false,
      "t": 69000,
      "d": 120,
      "v": 67
    },
    {
      "midi": 52,
      "hit": false,
      "t": 69120,
      "d": 120,
      "v": 71
    },
    {
      "midi": 55,
      "hit": false,
      "t": 69240,
      "d": 120,
      "v": 67
    },
    {
      "midi": 52,
      "hit": false,
      "t": 69360,
      "d": 120,
      "v": 67
    },
    {
      "midi": 48,
      "hit": false,
      "t": 69480,
      "d": 120,
      "v": 67
    },
    {
      "midi": 53,
      "hit": false,
      "t": 69600,
      "d": 120,
      "v": 73
    },
    {
      "midi": 50,
      "hit": false,
      "t": 69720,
      "d": 120,
      "v": 67
    },
    {
      "midi": 47,
      "hit": false,
      "t": 69840,
      "d": 120,
      "v": 67
    },
    {
      "midi": 50,
      "hit": false,
      "t": 69960,
      "d": 120,
      "v": 67
    },
    {
      "midi": 36,
      "hit": false,
      "t": 70080,
      "d": 2880,
      "v": 72
    },
    {
      "midi": 43,
      "hit": false,
      "t": 70200,
      "d": 120,
      "v": 67
    },
    {
      "midi": 48,
      "hit": false,
      "t": 70320,
      "d": 2880,
      "v": 67
    },
    {
      "midi": 50,
      "hit": false,
      "t": 70440,
      "d": 120,
      "v": 67
    },
    {
      "midi": 52,
      "hit": false,
      "t": 70560,
      "d": 120,
      "v": 68
    },
    {
      "midi": 55,
      "hit": false,
      "t": 70680,
      "d": 120,
      "v": 67
    },
    {
      "midi": 58,
      "hit": false,
      "t": 70800,
      "d": 120,
      "v": 71
    },
    {
      "midi": 55,
      "hit": false,
      "t": 70920,
      "d": 120,
      "v": 67
    },
    {
      "midi": 56,
      "hit": false,
      "t": 71040,
      "d": 120,
      "v": 68
    },
    {
      "midi": 60,
      "hit": false,
      "t": 71160,
      "d": 120,
      "v": 65
    },
    {
      "midi": 65,
      "hit": false,
      "t": 71280,
      "d": 120,
      "v": 68
    },
    {
      "midi": 62,
      "hit": false,
      "t": 71400,
      "d": 120,
      "v": 67
    },
    {
      "midi": 65,
      "hit": false,
      "t": 71520,
      "d": 120,
      "v": 64
    },
    {
      "midi": 68,
      "hit": false,
      "t": 71640,
      "d": 120,
      "v": 59
    },
    {
      "midi": 72,
      "hit": false,
      "t": 71760,
      "d": 120,
      "v": 62
    },
    {
      "midi": 71,
      "hit": false,
      "t": 71880,
      "d": 120,
      "v": 57
    },
    {
      "midi": 72,
      "hit": false,
      "t": 72000,
      "d": 120,
      "v": 59
    },
    {
      "midi": 67,
      "hit": false,
      "t": 72120,
      "d": 120,
      "v": 54
    },
    {
      "midi": 65,
      "hit": false,
      "t": 72240,
      "d": 120,
      "v": 52
    },
    {
      "midi": 62,
      "hit": false,
      "t": 72360,
      "d": 120,
      "v": 49
    },
    {
      "midi": 64,
      "hit": false,
      "t": 72480,
      "d": 480,
      "v": 42
    }
  ]
}