{
  "jsonPath": "Classical/Classical/Johann Sebastian Bach/toccata-and-fugue-in-d-minor.json",
  "path": "Classical\\Classical\\Johann Sebastian Bach\\Toccata and Fugue in D Minor.mid",
  "name": "Toccata and Fugue in D Minor",
  "difficulty": "Advanced",
  "bpm": 60,
  "notes": [
    {
      "midi": 69,
      "hit": false,
      "t": 0,
      "d": 500,
      "v": 90
    },
    {
      "midi": 81,
      "hit": false,
      "t": 0,
      "d": 500,
      "v": 90
    },
    {
      "midi": 67,
      "hit": false,
      "t": 500,
      "d": 250,
      "v": 90
    },
    {
      "midi": 79,
      "hit": false,
      "t": 500,
      "d": 250,
      "v": 90
    },
    {
      "midi": 61,
      "hit": false,
      "t": 750,
      "d": 250,
      "v": 90
    },
    {
      "midi": 62,
      "hit": false,
      "t": 750,
      "d": 250,
      "v": 90
    },
    {
      "midi": 64,
      "hit": false,
      "t": 750,
      "d": 250,
      "v": 90
    },
    {
      "midi": 65,
      "hit": false,
      "t": 750,
      "d": 250,
      "v": 90
    },
    {
      "midi": 73,
      "hit": false,
      "t": 750,
      "d": 250,
      "v": 90
    },
    {
      "midi": 74,
      "hit": false,
      "t": 750,
      "d": 250,
      "v": 90
    },
    {
      "midi": 76,
      "hit": false,
      "t": 750,
      "d": 250,
      "v": 90
    },
    {
      "midi": 77,
      "hit": false,
      "t": 750,
      "d": 250,
      "v": 90
    },
    {
      "midi": 62,
      "hit": false,
      "t": 1000,
      "d": 1000,
      "v": 90
    },
    {
      "midi": 74,
      "hit": false,
      "t": 1000,
      "d": 1000,
      "v": 90
    },
    {
      "midi": 69,
      "hit": false,
      "t": 2000,
      "d": 500,
      "v": 90
    },
    {
      "midi": 57,
      "hit": false,
      "t": 2000,
      "d": 500,
      "v": 90
    },
    {
      "midi": 64,
      "hit": false,
      "t": 2500,
      "d": 250,
      "v": 90
    },
    {
      "midi": 52,
      "hit": false,
      "t": 2500,
      "d": 250,
      "v": 90
    },
    {
      "midi": 61,
      "hit": false,
      "t": 2750,
      "d": 250,
      "v": 90
    },
    {
      "midi": 65,
      "hit": false,
      "t": 2750,
      "d": 250,
      "v": 90
    },
    {
      "midi": 49,
      "hit": false,
      "t": 2750,
      "d": 250,
      "v": 90
    },
    {
      "midi": 53,
      "hit": false,
      "t": 2750,
      "d": 250,
      "v": 90
    },
    {
      "midi": 62,
      "hit": false,
      "t": 3000,
      "d": 1000,
      "v": 90
    },
    {
      "midi": 50,
      "hit": false,
      "t": 3000,
      "d": 1000,
      "v": 90
    },
    {
      "midi": 45,
      "hit": false,
      "t": 4000,
      "d": 500,
      "v": 90
    },
    {
      "midi": 57,
      "hit": false,
      "t": 4000,
      "d": 500,
      "v": 90
    },
    {
      "midi": 43,
      "hit": false,
      "t": 4500,
      "d": 250,
      "v": 90
    },
    {
      "midi": 55,
      "hit": false,
      "t": 4500,
      "d": 250,
      "v": 90
    },
    {
      "midi": 37,
      "hit": false,
      "t": 4750,
      "d": 250,
      "v": 90
    },
    {
      "midi": 38,
      "hit": false,
      "t": 4750,
      "d": 250,
      "v": 90
    },
    {
      "midi": 40,
      "hit": false,
      "t": 4750,
      "d": 250,
      "v": 90
    },
    {
      "midi": 41,
      "hit": false,
      "t": 4750,
      "d": 250,
      "v": 90
    },
    {
      "midi": 49,
      "hit": false,
      "t": 4750,
      "d": 250,
      "v": 90
    },
    {
      "midi": 50,
      "hit": false,
      "t": 4750,
      "d": 250,
      "v": 90
    },
    {
      "midi": 52,
      "hit": false,
      "t": 4750,
      "d": 250,
      "v": 90
    },
    {
      "midi": 53,
      "hit": false,
      "t": 4750,
      "d": 250,
      "v": 90
    },
    {
      "midi": 38,
      "hit": false,
      "t": 5000,
      "d": 1000,
      "v": 90
    },
    {
      "midi": 50,
      "hit": false,
      "t": 5000,
      "d": 1000,
      "v": 90
    },
    {
      "midi": 58,
      "hit": false,
      "t": 7000,
      "d": 2000,
      "v": 90
    },
    {
      "midi": 61,
      "hit": false,
      "t": 7000,
      "d": 2000,
      "v": 90
    },
    {
      "midi": 64,
      "hit": false,
      "t": 7000,
      "d": 2000,
      "v": 90
    },
    {
      "midi": 49,
      "hit": false,
      "t": 7000,
      "d": 2000,
      "v": 90
    },
    {
      "midi": 52,
      "hit": false,
      "t": 7000,
      "d": 2000,
      "v": 90
    },
    {
      "midi": 55,
      "hit": false,
      "t": 7000,
      "d": 2000,
      "v": 90
    },
    {
      "midi": 57,
      "hit": false,
      "t": 9000,
      "d": 1000,
      "v": 90
    },
    {
      "midi": 62,
      "hit": false,
      "t": 9000,
      "d": 1000,
      "v": 90
    },
    {
      "midi": 50,
      "hit": false,
      "t": 9000,
      "d": 250,
      "v": 90
    },
    {
      "midi": 52,
      "hit": false,
      "t": 9250,
      "d": 250,
      "v": 90
    },
    {
      "midi": 54,
      "hit": false,
      "t": 9500,
      "d": 500,
      "v": 90
    },
    {
      "midi": 61,
      "hit": false,
      "t": 11750,
      "d": 250,
      "v": 90
    },
    {
      "midi": 49,
      "hit": false,
      "t": 11750,
      "d": 250,
      "v": 90
    },
    {
      "midi": 62,
      "hit": false,
      "t": 12000,
      "d": 166.66666666666606,
      "v": 90
    },
    {
      "midi": 50,
      "hit": false,
      "t": 12000,
      "d": 166.66666666666606,
      "v": 90
    },
    {
      "midi": 64,
      "hit": false,
      "t": 12166.666666666666,
      "d": 166.66666666666606,
      "v": 90
    },
    {
      "midi": 52,
      "hit": false,
      "t": 12166.666666666666,
      "d": 166.66666666666606,
      "v": 90
    },
    {
      "midi": 61,
      "hit": false,
      "t": 12333.333333333332,
      "d": 166.66666666666606,
      "v": 90
    },
    {
      "midi": 49,
      "hit": false,
      "t": 12333.333333333332,
      "d": 166.66666666666606,
      "v": 90
    },
    {
      "midi": 62,
      "hit": false,
      "t": 12499.999999999998,
      "d": 166.66666666666606,
      "v": 90
    },
    {
      "midi": 50,
      "hit": false,
      "t": 12499.999999999998,
      "d": 166.66666666666606,
      "v": 90
    },
    {
      "midi": 64,
      "hit": false,
      "t": 12666.666666666664,
      "d": 166.66666666666606,
      "v": 90
    },
    {
      "midi": 52,
      "hit": false,
      "t": 12666.666666666664,
      "d": 166.66666666666606,
      "v": 90
    },
    {
      "midi": 61,
      "hit": false,
      "t": 12833.33333333333,
      "d": 166.66666666666606,
      "v": 90
    },
    {
      "midi": 49,
      "hit": false,
      "t": 12833.33333333333,
      "d": 166.66666666666606,
      "v": 90
    },
    {
      "midi": 62,
      "hit": false,
      "t": 12999.999999999996,
      "d": 166.66666666666606,
      "v": 90
    },
    {
      "midi": 50,
      "hit": false,
      "t": 12999.999999999996,
      "d": 166.66666666666606,
      "v": 90
    },
    {
      "midi": 64,
      "hit": false,
      "t": 13166.666666666662,
      "d": 166.66666666666606,
      "v": 90
    },
    {
      "midi": 52,
      "hit": false,
      "t": 13166.666666666662,
      "d": 166.66666666666606,
      "v": 90
    },
    {
      "midi": 61,
      "hit": false,
      "t": 13333.333333333328,
      "d": 166.66666666666606,
      "v": 90
    },
    {
      "midi": 49,
      "hit": false,
      "t": 13333.333333333328,
      "d": 166.66666666666606,
      "v": 90
    },
    {
      "midi": 62,
      "hit": false,
      "t": 13499.999999999995,
      "d": 250,
      "v": 90
    },
    {
      "midi": 50,
      "hit": false,
      "t": 13499.999999999995,
      "d": 250,
      "v": 90
    },
    {
      "midi": 64,
      "hit": false,
      "t": 13749.999999999995,
      "d": 250,
      "v": 90
    },
    {
      "midi": 52,
      "hit": false,
      "t": 13749.999999999995,
      "d": 250,
      "v": 90
    },
    {
      "midi": 65,
      "hit": false,
      "t": 13999.999999999995,
      "d": 166.66666666666606,
      "v": 90
    },
    {
      "midi": 53,
      "hit": false,
      "t": 13999.999999999995,
      "d": 166.66666666666606,
      "v": 90
    },
    {
      "midi": 67,
      "hit": false,
      "t": 14166.66666666666,
      "d": 166.66666666666606,
      "v": 90
    },
    {
      "midi": 55,
      "hit": false,
      "t": 14166.66666666666,
      "d": 166.66666666666606,
      "v": 90
    },
    {
      "midi": 64,
      "hit": false,
      "t": 14333.333333333327,
      "d": 166.66666666666606,
      "v": 90
    },
    {
      "midi": 52,
      "hit": false,
      "t": 14333.333333333327,
      "d": 166.66666666666606,
      "v": 90
    },
    {
      "midi": 65,
      "hit": false,
      "t": 14499.999999999993,
      "d": 166.66666666666606,
      "v": 90
    },
    {
      "midi": 53,
      "hit": false,
      "t": 14499.999999999993,
      "d": 166.66666666666606,
      "v": 90
    },
    {
      "midi": 67,
      "hit": false,
      "t": 14666.666666666659,
      "d": 166.66666666666606,
      "v": 90
    },
    {
      "midi": 55,
      "hit": false,
      "t": 14666.666666666659,
      "d": 166.66666666666606,
      "v": 90
    },
    {
      "midi": 64,
      "hit": false,
      "t": 14833.333333333325,
      "d": 166.66666666666606,
      "v": 90
    },
    {
      "midi": 52,
      "hit": false,
      "t": 14833.333333333325,
      "d": 166.66666666666606,
      "v": 90
    },
    {
      "midi": 65,
      "hit": false,
      "t": 14999.99999999999,
      "d": 166.66666666666606,
      "v": 90
    },
    {
      "midi": 53,
      "hit": false,
      "t": 14999.99999999999,
      "d": 166.66666666666606,
      "v": 90
    },
    {
      "midi": 67,
      "hit": false,
      "t": 15166.666666666657,
      "d": 166.66666666666606,
      "v": 90
    },
    {
      "midi": 55,
      "hit": false,
      "t": 15166.666666666657,
      "d": 166.66666666666606,
      "v": 90
    },
    {
      "midi": 64,
      "hit": false,
      "t": 15333.333333333323,
      "d": 166.66666666666606,
      "v": 90
    },
    {
      "midi": 52,
      "hit": false,
      "t": 15333.333333333323,
      "d": 166.66666666666606,
      "v": 90
    },
    {
      "midi": 65,
      "hit": false,
      "t": 15499.999999999989,
      "d": 250,
      "v": 90
    },
    {
      "midi": 53,
      "hit": false,
      "t": 15499.999999999989,
      "d": 250,
      "v": 90
    },
    {
      "midi": 67,
      "hit": false,
      "t": 15749.999999999989,
      "d": 250,
      "v": 90
    },
    {
      "midi": 55,
      "hit": false,
      "t": 15749.999999999989,
      "d": 250,
      "v": 90
    },
    {
      "midi": 69,
      "hit": false,
      "t": 15999.999999999989,
      "d": 166.66666666666606,
      "v": 90
    },
    {
      "midi": 57,
      "hit": false,
      "t": 15999.999999999989,
      "d": 166.66666666666606,
      "v": 90
    },
    {
      "midi": 70,
      "hit": false,
      "t": 16166.666666666655,
      "d": 166.66666666666606,
      "v": 90
    },
    {
      "midi": 58,
      "hit": false,
      "t": 16166.666666666655,
      "d": 166.66666666666606,
      "v": 90
    },
    {
      "midi": 67,
      "hit": false,
      "t": 16333.333333333321,
      "d": 166.66666666666788,
      "v": 90
    },
    {
      "midi": 55,
      "hit": false,
      "t": 16333.333333333321,
      "d": 166.66666666666788,
      "v": 90
    },
    {
      "midi": 69,
      "hit": false,
      "t": 16499.99999999999,
      "d": 166.66666666666788,
      "v": 90
    },
    {
      "midi": 57,
      "hit": false,
      "t": 16499.99999999999,
      "d": 166.66666666666788,
      "v": 90
    },
    {
      "midi": 70,
      "hit": false,
      "t": 16666.666666666657,
      "d": 166.66666666666788,
      "v": 90
    },
    {
      "midi": 58,
      "hit": false,
      "t": 16666.666666666657,
      "d": 166.66666666666788,
      "v": 90
    },
    {
      "midi": 67,
      "hit": false,
      "t": 16833.333333333325,
      "d": 166.66666666666788,
      "v": 90
    },
    {
      "midi": 55,
      "hit": false,
      "t": 16833.333333333325,
      "d": 166.66666666666788,
      "v": 90
    },
    {
      "midi": 69,
      "hit": false,
      "t": 16999.999999999993,
      "d": 166.66666666666788,
      "v": 90
    },
    {
      "midi": 57,
      "hit": false,
      "t": 16999.999999999993,
      "d": 166.66666666666788,
      "v": 90
    },
    {
      "midi": 70,
      "hit": false,
      "t": 17166.66666666666,
      "d": 166.66666666666788,
      "v": 90
    },
    {
      "midi": 58,
      "hit": false,
      "t": 17166.66666666666,
      "d": 166.66666666666788,
      "v": 90
    },
    {
      "midi": 67,
      "hit": false,
      "t": 17333.33333333333,
      "d": 166.66666666666788,
      "v": 90
    },
    {
      "midi": 55,
      "hit": false,
      "t": 17333.33333333333,
      "d": 166.66666666666788,
      "v": 90
    },
    {
      "midi": 69,
      "hit": false,
      "t": 17499.999999999996,
      "d": 500,
      "v": 90
    },
    {
      "midi": 57,
      "hit": false,
      "t": 17499.999999999996,
      "d": 500,
      "v": 90
    },
    {
      "midi": 73,
      "hit": false,
      "t": 19749.999999999996,
      "d": 250,
      "v": 90
    },
    {
      "midi": 61,
      "hit": false,
      "t": 19749.999999999996,
      "d": 250,
      "v": 90
    },
    {
      "midi": 74,
      "hit": false,
      "t": 19999.999999999996,
      "d": 166.66666666666788,
      "v": 90
    },
    {
      "midi": 62,
      "hit": false,
      "t": 19999.999999999996,
      "d": 166.66666666666788,
      "v": 90
    },
    {
      "midi": 76,
      "hit": false,
      "t": 20166.666666666664,
      "d": 166.66666666666788,
      "v": 90
    },
    {
      "midi": 64,
      "hit": false,
      "t": 20166.666666666664,
      "d": 166.66666666666788,
      "v": 90
    },
    {
      "midi": 73,
      "hit": false,
      "t": 20333.333333333332,
      "d": 166.66666666666788,
      "v": 90
    },
    {
      "midi": 61,
      "hit": false,
      "t": 20333.333333333332,
      "d": 166.66666666666788,
      "v": 90
    },
    {
      "midi": 74,
      "hit": false,
      "t": 20500,
      "d": 166.66666666666788,
      "v": 90
    },
    {
      "midi": 62,
      "hit": false,
      "t": 20500,
      "d": 166.66666666666788,
      "v": 90
    },
    {
      "midi": 76,
      "hit": false,
      "t": 20666.666666666668,
      "d": 166.66666666666788,
      "v": 90
    },
    {
      "midi": 64,
      "hit": false,
      "t": 20666.666666666668,
      "d": 166.66666666666788,
      "v": 90
    },
    {
      "midi": 73,
      "hit": false,
      "t": 20833.333333333336,
      "d": 166.66666666666788,
      "v": 90
    },
    {
      "midi": 61,
      "hit": false,
      "t": 20833.333333333336,
      "d": 166.66666666666788,
      "v": 90
    },
    {
      "midi": 74,
      "hit": false,
      "t": 21000.000000000004,
      "d": 166.66666666666788,
      "v": 90
    },
    {
      "midi": 62,
      "hit": false,
      "t": 21000.000000000004,
      "d": 166.66666666666788,
      "v": 90
    },
    {
      "midi": 76,
      "hit": false,
      "t": 21166.66666666667,
      "d": 166.66666666666788,
      "v": 90
    },
    {
      "midi": 64,
      "hit": false,
      "t": 21166.66666666667,
      "d": 166.66666666666788,
      "v": 90
    },
    {
      "midi": 73,
      "hit": false,
      "t": 21333.33333333334,
      "d": 166.66666666666788,
      "v": 90
    },
    {
      "midi": 61,
      "hit": false,
      "t": 21333.33333333334,
      "d": 166.66666666666788,
      "v": 90
    },
    {
      "midi": 74,
      "hit": false,
      "t": 21500.000000000007,
      "d": 250,
      "v": 90
    },
    {
      "midi": 62,
      "hit": false,
      "t": 21500.000000000007,
      "d": 250,
      "v": 90
    },
    {
      "midi": 76,
      "hit": false,
      "t": 21750.000000000007,
      "d": 250,
      "v": 90
    },
    {
      "midi": 64,
      "hit": false,
      "t": 21750.000000000007,
      "d": 250,
      "v": 90
    },
    {
      "midi": 77,
      "hit": false,
      "t": 22000.000000000007,
      "d": 166.66666666666788,
      "v": 90
    },
    {
      "midi": 65,
      "hit": false,
      "t": 22000.000000000007,
      "d": 166.66666666666788,
      "v": 90
    },
    {
      "midi": 79,
      "hit": false,
      "t": 22166.666666666675,
      "d": 166.66666666666788,
      "v": 90
    },
    {
      "midi": 67,
      "hit": false,
      "t": 22166.666666666675,
      "d": 166.66666666666788,
      "v": 90
    },
    {
      "midi": 76,
      "hit": false,
      "t": 22333.333333333343,
      "d": 166.66666666666788,
      "v": 90
    },
    {
      "midi": 64,
      "hit": false,
      "t": 22333.333333333343,
      "d": 166.66666666666788,
      "v": 90
    },
    {
      "midi": 77,
      "hit": false,
      "t": 22500.00000000001,
      "d": 166.66666666666788,
      "v": 90
    },
    {
      "midi": 65,
      "hit": false,
      "t": 22500.00000000001,
      "d": 166.66666666666788,
      "v": 90
    },
    {
      "midi": 79,
      "hit": false,
      "t": 22666.66666666668,
      "d": 166.66666666666788,
      "v": 90
    },
    {
      "midi": 67,
      "hit": false,
      "t": 22666.66666666668,
      "d": 166.66666666666788,
      "v": 90
    },
    {
      "midi": 76,
      "hit": false,
      "t": 22833.333333333347,
      "d": 166.66666666666788,
      "v": 90
    },
    {
      "midi": 64,
      "hit": false,
      "t": 22833.333333333347,
      "d": 166.66666666666788,
      "v": 90
    },
    {
      "midi": 77,
      "hit": false,
      "t": 23000.000000000015,
      "d": 166.66666666666788,
      "v": 90
    },
    {
      "midi": 65,
      "hit": false,
      "t": 23000.000000000015,
      "d": 166.66666666666788,
      "v": 90
    },
    {
      "midi": 79,
      "hit": false,
      "t": 23166.666666666682,
      "d": 166.66666666666788,
      "v": 90
    },
    {
      "midi": 67,
      "hit": false,
      "t": 23166.666666666682,
      "d": 166.66666666666788,
      "v": 90
    },
    {
      "midi": 76,
      "hit": false,
      "t": 23333.33333333335,
      "d": 166.66666666666788,
      "v": 90
    },
    {
      "midi": 64,
      "hit": false,
      "t": 23333.33333333335,
      "d": 166.66666666666788,
      "v": 90
    },
    {
      "midi": 77,
      "hit": false,
      "t": 23500.00000000002,
      "d": 250,
      "v": 90
    },
    {
      "midi": 65,
      "hit": false,
      "t": 23500.00000000002,
      "d": 250,
      "v": 90
    },
    {
      "midi": 79,
      "hit": false,
      "t": 23750.00000000002,
      "d": 250,
      "v": 90
    },
    {
      "midi": 67,
      "hit": false,
      "t": 23750.00000000002,
      "d": 250,
      "v": 90
    },
    {
      "midi": 81,
      "hit": false,
      "t": 24000.00000000002,
      "d": 166.66666666666788,
      "v": 90
    },
    {
      "midi": 69,
      "hit": false,
      "t": 24000.00000000002,
      "d": 166.66666666666788,
      "v": 90
    },
    {
      "midi": 82,
      "hit": false,
      "t": 24166.666666666686,
      "d": 166.66666666666788,
      "v": 90
    },
    {
      "midi": 70,
      "hit": false,
      "t": 24166.666666666686,
      "d": 166.66666666666788,
      "v": 90
    },
    {
      "midi": 79,
      "hit": false,
      "t": 24333.333333333354,
      "d": 166.66666666666788,
      "v": 90
    },
    {
      "midi": 67,
      "hit": false,
      "t": 24333.333333333354,
      "d": 166.66666666666788,
      "v": 90
    },
    {
      "midi": 81,
      "hit": false,
      "t": 24500.000000000022,
      "d": 166.66666666666788,
      "v": 90
    },
    {
      "midi": 69,
      "hit": false,
      "t": 24500.000000000022,
      "d": 166.66666666666788,
      "v": 90
    },
    {
      "midi": 82,
      "hit": false,
      "t": 24666.66666666669,
      "d": 166.66666666666788,
      "v": 90
    },
    {
      "midi": 70,
      "hit": false,
      "t": 24666.66666666669,
      "d": 166.66666666666788,
      "v": 90
    },
    {
      "midi": 79,
      "hit": false,
      "t": 24833.333333333358,
      "d": 166.66666666666788,
      "v": 90
    },
    {
      "midi": 67,
      "hit": false,
      "t": 24833.333333333358,
      "d": 166.66666666666788,
      "v": 90
    },
    {
      "midi": 81,
      "hit": false,
      "t": 25000.000000000025,
      "d": 166.66666666666788,
      "v": 90
    },
    {
      "midi": 69,
      "hit": false,
      "t": 25000.000000000025,
      "d": 166.66666666666788,
      "v": 90
    },
    {
      "midi": 82,
      "hit": false,
      "t": 25166.666666666693,
      "d": 166.66666666666788,
      "v": 90
    },
    {
      "midi": 70,
      "hit": false,
      "t": 25166.666666666693,
      "d": 166.66666666666788,
      "v": 90
    },
    {
      "midi": 79,
      "hit": false,
      "t": 25333.33333333336,
      "d": 166.66666666666788,
      "v": 90
    },
    {
      "midi": 67,
      "hit": false,
      "t": 25333.33333333336,
      "d": 166.66666666666788,
      "v": 90
    },
    {
      "midi": 81,
      "hit": false,
      "t": 25500.00000000003,
      "d": 500,
      "v": 90
    },
    {
      "midi": 69,
      "hit": false,
      "t": 25500.00000000003,
      "d": 500,
      "v": 90
    },
    {
      "midi": 81,
      "hit": false,
      "t": 27750.00000000003,
      "d": 250,
      "v": 90
    },
    {
      "midi": 69,
      "hit": false,
      "t": 27750.00000000003,
      "d": 250,
      "v": 90
    },
    {
      "midi": 79,
      "hit": false,
      "t": 28000.00000000003,
      "d": 166.66666666666788,
      "v": 90
    },
    {
      "midi": 67,
      "hit": false,
      "t": 28000.00000000003,
      "d": 166.66666666666788,
      "v": 90
    },
    {
      "midi": 82,
      "hit": false,
      "t": 28166.666666666697,
      "d": 166.66666666666788,
      "v": 90
    },
    {
      "midi": 70,
      "hit": false,
      "t": 28166.666666666697,
      "d": 166.66666666666788,
      "v": 90
    },
    {
      "midi": 76,
      "hit": false,
      "t": 28333.333333333365,
      "d": 166.66666666666788,
      "v": 90
    },
    {
      "midi": 64,
      "hit": false,
      "t": 28333.333333333365,
      "d": 166.66666666666788,
      "v": 90
    },
    {
      "midi": 79,
      "hit": false,
      "t": 28500.000000000033,
      "d": 166.66666666666788,
      "v": 90
    },
    {
      "midi": 67,
      "hit": false,
      "t": 28500.000000000033,
      "d": 166.66666666666788,
      "v": 90
    },
    {
      "midi": 82,
      "hit": false,
      "t": 28666.6666666667,
      "d": 166.66666666666788,
      "v": 90
    },
    {
      "midi": 70,
      "hit": false,
      "t": 28666.6666666667,
      "d": 166.66666666666788,
      "v": 90
    },
    {
      "midi": 76,
      "hit": false,
      "t": 28833.33333333337,
      "d": 166.66666666666788,
      "v": 90
    },
    {
      "midi": 64,
      "hit": false,
      "t": 28833.33333333337,
      "d": 166.66666666666788,
      "v": 90
    },
    {
      "midi": 77,
      "hit": false,
      "t": 29000.000000000036,
      "d": 166.66666666666788,
      "v": 90
    },
    {
      "midi": 65,
      "hit": false,
      "t": 29000.000000000036,
      "d": 166.66666666666788,
      "v": 90
    },
    {
      "midi": 81,
      "hit": false,
      "t": 29166.666666666704,
      "d": 166.66666666666788,
      "v": 90
    },
    {
      "midi": 69,
      "hit": false,
      "t": 29166.666666666704,
      "d": 166.66666666666788,
      "v": 90
    },
    {
      "midi": 74,
      "hit": false,
      "t": 29333.333333333372,
      "d": 166.66666666666788,
      "v": 90
    },
    {
      "midi": 62,
      "hit": false,
      "t": 29333.333333333372,
      "d": 166.66666666666788,
      "v": 90
    },
    {
      "midi": 77,
      "hit": false,
      "t": 29500.00000000004,
      "d": 166.66666666666788,
      "v": 90
    },
    {
      "midi": 65,
      "hit": false,
      "t": 29500.00000000004,
      "d": 166.66666666666788,
      "v": 90
    },
    {
      "midi": 81,
      "hit": false,
      "t": 29666.666666666708,
      "d": 166.66666666666788,
      "v": 90
    },
    {
      "midi": 69,
      "hit": false,
      "t": 29666.666666666708,
      "d": 166.66666666666788,
      "v": 90
    },
    {
      "midi": 74,
      "hit": false,
      "t": 29833.333333333376,
      "d": 166.66666666666788,
      "v": 90
    },
    {
      "midi": 62,
      "hit": false,
      "t": 29833.333333333376,
      "d": 166.66666666666788,
      "v": 90
    },
    {
      "midi": 76,
      "hit": false,
      "t": 30000.000000000044,
      "d": 166.66666666666788,
      "v": 90
    },
    {
      "midi": 64,
      "hit": false,
      "t": 30000.000000000044,
      "d": 166.66666666666788,
      "v": 90
    },
    {
      "midi": 79,
      "hit": false,
      "t": 30166.66666666671,
      "d": 166.66666666666788,
      "v": 90
    },
    {
      "midi": 67,
      "hit": false,
      "t": 30166.66666666671,
      "d": 166.66666666666788,
      "v": 90
    },
    {
      "midi": 72,
      "hit": false,
      "t": 30333.33333333338,
      "d": 166.66666666666788,
      "v": 90
    },
    {
      "midi": 60,
      "hit": false,
      "t": 30333.33333333338,
      "d": 166.66666666666788,
      "v": 90
    },
    {
      "midi": 76,
      "hit": false,
      "t": 30500.000000000047,
      "d": 166.66666666666788,
      "v": 90
    },
    {
      "midi": 64,
      "hit": false,
      "t": 30500.000000000047,
      "d": 166.66666666666788,
      "v": 90
    },
    {
      "midi": 79,
      "hit": false,
      "t": 30666.666666666715,
      "d": 166.66666666666788,
      "v": 90
    },
    {
      "midi": 67,
      "hit": false,
      "t": 30666.666666666715,
      "d": 166.66666666666788,
      "v": 90
    },
    {
      "midi": 72,
      "hit": false,
      "t": 30833.333333333383,
      "d": 166.66666666666788,
      "v": 90
    },
    {
      "midi": 60,
      "hit": false,
      "t": 30833.333333333383,
      "d": 166.66666666666788,
      "v": 90
    },
    {
      "midi": 74,
      "hit": false,
      "t": 31000.00000000005,
      "d": 166.66666666666788,
      "v": 90
    },
    {
      "midi": 62,
      "hit": false,
      "t": 31000.00000000005,
      "d": 166.66666666666788,
      "v": 90
    },
    {
      "midi": 77,
      "hit": false,
      "t": 31166.66666666672,
      "d": 166.66666666666788,
      "v": 90
    },
    {
      "midi": 65,
      "hit": false,
      "t": 31166.66666666672,
      "d": 166.66666666666788,
      "v": 90
    },
    {
      "midi": 70,
      "hit": false,
      "t": 31333.333333333387,
      "d": 166.66666666666788,
      "v": 90
    },
    {
      "midi": 58,
      "hit": false,
      "t": 31333.333333333387,
      "d": 166.66666666666788,
      "v": 90
    },
    {
      "midi": 74,
      "hit": false,
      "t": 31500.000000000055,
      "d": 166.66666666666788,
      "v": 90
    },
    {
      "midi": 62,
      "hit": false,
      "t": 31500.000000000055,
      "d": 166.66666666666788,
      "v": 90
    },
    {
      "midi": 77,
      "hit": false,
      "t": 31666.666666666722,
      "d": 166.66666666666788,
      "v": 90
    },
    {
      "midi": 65,
      "hit": false,
      "t": 31666.666666666722,
      "d": 166.66666666666788,
      "v": 90
    },
    {
      "midi": 70,
      "hit": false,
      "t": 31833.33333333339,
      "d": 166.66666666666788,
      "v": 90
    },
    {
      "midi": 58,
      "hit": false,
      "t": 31833.33333333339,
      "d": 166.66666666666788,
      "v": 90
    },
    {
      "midi": 72,
      "hit": false,
      "t": 32000.00000000006,
      "d": 166.66666666666788,
      "v": 90
    },
    {
      "midi": 60,
      "hit": false,
      "t": 32000.00000000006,
      "d": 166.66666666666788,
      "v": 90
    },
    {
      "midi": 76,
      "hit": false,
      "t": 32166.666666666726,
      "d": 166.66666666666788,
      "v": 90
    },
    {
      "midi": 64,
      "hit": false,
      "t": 32166.666666666726,
      "d": 166.66666666666788,
      "v": 90
    },
    {
      "midi": 69,
      "hit": false,
      "t": 32333.333333333394,
      "d": 166.66666666666788,
      "v": 90
    },
    {
      "midi": 57,
      "hit": false,
      "t": 32333.333333333394,
      "d": 166.66666666666788,
      "v": 90
    },
    {
      "midi": 72,
      "hit": false,
      "t": 32500.000000000062,
      "d": 166.66666666666788,
      "v": 90
    },
    {
      "midi": 60,
      "hit": false,
      "t": 32500.000000000062,
      "d": 166.66666666666788,
      "v": 90
    },
    {
      "midi": 76,
      "hit": false,
      "t": 32666.66666666673,
      "d": 166.66666666666424,
      "v": 90
    },
    {
      "midi": 64,
      "hit": false,
      "t": 32666.66666666673,
      "d": 166.66666666666424,
      "v": 90
    },
    {
      "midi": 69,
      "hit": false,
      "t": 32833.333333333394,
      "d": 166.66666666666424,
      "v": 90
    },
    {
      "midi": 57,
      "hit": false,
      "t": 32833.333333333394,
      "d": 166.66666666666424,
      "v": 90
    },
    {
      "midi": 70,
      "hit": false,
      "t": 33000.00000000006,
      "d": 166.66666666666424,
      "v": 90
    },
    {
      "midi": 58,
      "hit": false,
      "t": 33000.00000000006,
      "d": 166.66666666666424,
      "v": 90
    },
    {
      "midi": 74,
      "hit": false,
      "t": 33166.66666666672,
      "d": 166.66666666666424,
      "v": 90
    },
    {
      "midi": 62,
      "hit": false,
      "t": 33166.66666666672,
      "d": 166.66666666666424,
      "v": 90
    },
    {
      "midi": 67,
      "hit": false,
      "t": 33333.33333333339,
      "d": 166.66666666666424,
      "v": 90
    },
    {
      "midi": 55,
      "hit": false,
      "t": 33333.33333333339,
      "d": 166.66666666666424,
      "v": 90
    },
    {
      "midi": 70,
      "hit": false,
      "t": 33500.00000000005,
      "d": 166.66666666666424,
      "v": 90
    },
    {
      "midi": 58,
      "hit": false,
      "t": 33500.00000000005,
      "d": 166.66666666666424,
      "v": 90
    },
    {
      "midi": 74,
      "hit": false,
      "t": 33666.666666666715,
      "d": 166.66666666666424,
      "v": 90
    },
    {
      "midi": 62,
      "hit": false,
      "t": 33666.666666666715,
      "d": 166.66666666666424,
      "v": 90
    },
    {
      "midi": 67,
      "hit": false,
      "t": 33833.33333333338,
      "d": 166.66666666666424,
      "v": 90
    },
    {
      "midi": 55,
      "hit": false,
      "t": 33833.33333333338,
      "d": 166.66666666666424,
      "v": 90
    },
    {
      "midi": 69,
      "hit": false,
      "t": 34000.000000000044,
      "d": 166.66666666666424,
      "v": 90
    },
    {
      "midi": 57,
      "hit": false,
      "t": 34000.000000000044,
      "d": 166.66666666666424,
      "v": 90
    },
    {
      "midi": 72,
      "hit": false,
      "t": 34166.66666666671,
      "d": 166.66666666666424,
      "v": 90
    },
    {
      "midi": 60,
      "hit": false,
      "t": 34166.66666666671,
      "d": 166.66666666666424,
      "v": 90
    },
    {
      "midi": 65,
      "hit": false,
      "t": 34333.33333333337,
      "d": 166.66666666666424,
      "v": 90
    },
    {
      "midi": 53,
      "hit": false,
      "t": 34333.33333333337,
      "d": 166.66666666666424,
      "v": 90
    },
    {
      "midi": 69,
      "hit": false,
      "t": 34500.00000000004,
      "d": 166.66666666666424,
      "v": 90
    },
    {
      "midi": 57,
      "hit": false,
      "t": 34500.00000000004,
      "d": 166.66666666666424,
      "v": 90
    },
    {
      "midi": 72,
      "hit": false,
      "t": 34666.6666666667,
      "d": 166.66666666666424,
      "v": 90
    },
    {
      "midi": 60,
      "hit": false,
      "t": 34666.6666666667,
      "d": 166.66666666666424,
      "v": 90
    },
    {
      "midi": 65,
      "hit": false,
      "t": 34833.333333333365,
      "d": 166.66666666666424,
      "v": 90
    },
    {
      "midi": 53,
      "hit": false,
      "t": 34833.333333333365,
      "d": 166.66666666666424,
      "v": 90
    },
    {
      "midi": 67,
      "hit": false,
      "t": 35000.00000000003,
      "d": 166.66666666666424,
      "v": 90
    },
    {
      "midi": 55,
      "hit": false,
      "t": 35000.00000000003,
      "d": 166.66666666666424,
      "v": 90
    },
    {
      "midi": 70,
      "hit": false,
      "t": 35166.66666666669,
      "d": 166.66666666666424,
      "v": 90
    },
    {
      "midi": 58,
      "hit": false,
      "t": 35166.66666666669,
      "d": 166.66666666666424,
      "v": 90
    },
    {
      "midi": 64,
      "hit": false,
      "t": 35333.33333333336,
      "d": 166.66666666666424,
      "v": 90
    },
    {
      "midi": 52,
      "hit": false,
      "t": 35333.33333333336,
      "d": 166.66666666666424,
      "v": 90
    },
    {
      "midi": 67,
      "hit": false,
      "t": 35500.00000000002,
      "d": 166.66666666666424,
      "v": 90
    },
    {
      "midi": 55,
      "hit": false,
      "t": 35500.00000000002,
      "d": 166.66666666666424,
      "v": 90
    },
    {
      "midi": 70,
      "hit": false,
      "t": 35666.666666666686,
      "d": 166.66666666666424,
      "v": 90
    },
    {
      "midi": 58,
      "hit": false,
      "t": 35666.666666666686,
      "d": 166.66666666666424,
      "v": 90
    },
    {
      "midi": 64,
      "hit": false,
      "t": 35833.33333333335,
      "d": 166.66666666666424,
      "v": 90
    },
    {
      "midi": 52,
      "hit": false,
      "t": 35833.33333333335,
      "d": 166.66666666666424,
      "v": 90
    },
    {
      "midi": 65,
      "hit": false,
      "t": 36000.000000000015,
      "d": 166.66666666666424,
      "v": 90
    },
    {
      "midi": 53,
      "hit": false,
      "t": 36000.000000000015,
      "d": 166.66666666666424,
      "v": 90
    },
    {
      "midi": 69,
      "hit": false,
      "t": 36166.66666666668,
      "d": 166.66666666666424,
      "v": 90
    },
    {
      "midi": 57,
      "hit": false,
      "t": 36166.66666666668,
      "d": 166.66666666666424,
      "v": 90
    },
    {
      "midi": 62,
      "hit": false,
      "t": 36333.33333333334,
      "d": 166.66666666666424,
      "v": 90
    },
    {
      "midi": 50,
      "hit": false,
      "t": 36333.33333333334,
      "d": 166.66666666666424,
      "v": 90
    },
    {
      "midi": 65,
      "hit": false,
      "t": 36500.00000000001,
      "d": 166.66666666666424,
      "v": 90
    },
    {
      "midi": 53,
      "hit": false,
      "t": 36500.00000000001,
      "d": 166.66666666666424,
      "v": 90
    },
    {
      "midi": 69,
      "hit": false,
      "t": 36666.66666666667,
      "d": 166.66666666666424,
      "v": 90
    },
    {
      "midi": 57,
      "hit": false,
      "t": 36666.66666666667,
      "d": 166.66666666666424,
      "v": 90
    },
    {
      "midi": 62,
      "hit": false,
      "t": 36833.333333333336,
      "d": 166.66666666666424,
      "v": 90
    },
    {
      "midi": 50,
      "hit": false,
      "t": 36833.333333333336,
      "d": 166.66666666666424,
      "v": 90
    },
    {
      "midi": 64,
      "hit": false,
      "t": 37000,
      "d": 166.66666666666424,
      "v": 90
    },
    {
      "midi": 52,
      "hit": false,
      "t": 37000,
      "d": 166.66666666666424,
      "v": 90
    },
    {
      "midi": 67,
      "hit": false,
      "t": 37166.666666666664,
      "d": 166.66666666666424,
      "v": 90
    },
    {
      "midi": 55,
      "hit": false,
      "t": 37166.666666666664,
      "d": 166.66666666666424,
      "v": 90
    },
    {
      "midi": 61,
      "hit": false,
      "t": 37333.33333333333,
      "d": 166.66666666666424,
      "v": 90
    },
    {
      "midi": 49,
      "hit": false,
      "t": 37333.33333333333,
      "d": 166.66666666666424,
      "v": 90
    },
    {
      "midi": 64,
      "hit": false,
      "t": 37499.99999999999,
      "d": 166.66666666666424,
      "v": 90
    },
    {
      "midi": 52,
      "hit": false,
      "t": 37499.99999999999,
      "d": 166.66666666666424,
      "v": 90
    },
    {
      "midi": 67,
      "hit": false,
      "t": 37666.66666666666,
      "d": 166.66666666666424,
      "v": 90
    },
    {
      "midi": 55,
      "hit": false,
      "t": 37666.66666666666,
      "d": 166.66666666666424,
      "v": 90
    },
    {
      "midi": 61,
      "hit": false,
      "t": 37833.33333333332,
      "d": 166.66666666666424,
      "v": 90
    },
    {
      "midi": 49,
      "hit": false,
      "t": 37833.33333333332,
      "d": 166.66666666666424,
      "v": 90
    },
    {
      "midi": 61,
      "hit": false,
      "t": 38999.999999999985,
      "d": 2000,
      "v": 90
    },
    {
      "midi": 64,
      "hit": false,
      "t": 38999.999999999985,
      "d": 2000,
      "v": 90
    },
    {
      "midi": 67,
      "hit": false,
      "t": 38999.999999999985,
      "d": 2000,
      "v": 90
    },
    {
      "midi": 70,
      "hit": false,
      "t": 38999.999999999985,
      "d": 2000,
      "v": 90
    },
    {
      "midi": 49,
      "hit": false,
      "t": 38999.999999999985,
      "d": 2000,
      "v": 90
    },
    {
      "midi": 52,
      "hit": false,
      "t": 38999.999999999985,
      "d": 2000,
      "v": 90
    },
    {
      "midi": 55,
      "hit": false,
      "t": 38999.999999999985,
      "d": 2000,
      "v": 90
    },
    {
      "midi": 58,
      "hit": false,
      "t": 38999.999999999985,
      "d": 2000,
      "v": 90
    },
    {
      "midi": 69,
      "hit": false,
      "t": 40999.999999999985,
      "d": 250,
      "v": 90
    },
    {
      "midi": 65,
      "hit": false,
      "t": 41249.999999999985,
      "d": 250,
      "v": 90
    },
    {
      "midi": 67,
      "hit": false,
      "t": 41249.999999999985,
      "d": 250,
      "v": 90
    },
    {
      "midi": 62,
      "hit": false,
      "t": 41499.999999999985,
      "d": 250,
      "v": 90
    },
    {
      "midi": 64,
      "hit": false,
      "t": 41499.999999999985,
      "d": 250,
      "v": 90
    },
    {
      "midi": 59,
      "hit": false,
      "t": 41749.999999999985,
      "d": 250,
      "v": 90
    },
    {
      "midi": 61,
      "hit": false,
      "t": 41749.999999999985,
      "d": 250,
      "v": 90
    },
    {
      "midi": 61,
      "hit": false,
      "t": 41999.999999999985,
      "d": 250,
      "v": 90
    },
    {
      "midi": 57,
      "hit": false,
      "t": 42249.999999999985,
      "d": 250,
      "v": 90
    },
    {
      "midi": 61,
      "hit": false,
      "t": 42499.999999999985,
      "d": 250,
      "v": 90
    },
    {
      "midi": 64,
      "hit": false,
      "t": 42749.999999999985,
      "d": 250,
      "v": 90
    },
    {
      "midi": 67,
      "hit": false,
      "t": 42749.999999999985,
      "d": 250,
      "v": 90
    },
    {
      "midi": 65,
      "hit": false,
      "t": 42999.999999999985,
      "d": 750,
      "v": 90
    },
    {
      "midi": 64,
      "hit": false,
      "t": 43749.999999999985,
      "d": 250,
      "v": 90
    },
    {
      "midi": 62,
      "hit": false,
      "t": 43999.999999999985,
      "d": 1000,
      "v": 90
    },
    {
      "midi": 65,
      "hit": false,
      "t": 43999.999999999985,
      "d": 1000,
      "v": 90
    },
    {
      "midi": 50,
      "hit": false,
      "t": 43999.999999999985,
      "d": 1000,
      "v": 90
    },
    {
      "midi": 69,
      "hit": false,
      "t": 45749.999999999985,
      "d": 250,
      "v": 90
    },
    {
      "midi": 74,
      "hit": false,
      "t": 45999.999999999985,
      "d": 250,
      "v": 90
    },
    {
      "midi": 69,
      "hit": false,
      "t": 45999.999999999985,
      "d": 250,
      "v": 90
    },
    {
      "midi": 76,
      "hit": false,
      "t": 46249.999999999985,
      "d": 250,
      "v": 90
    },
    {
      "midi": 69,
      "hit": false,
      "t": 46249.999999999985,
      "d": 250,
      "v": 90
    },
    {
      "midi": 77,
      "hit": false,
      "t": 46499.999999999985,
      "d": 250,
      "v": 90
    },
    {
      "midi": 69,
      "hit": false,
      "t": 46499.999999999985,
      "d": 250,
      "v": 90
    },
    {
      "midi": 74,
      "hit": false,
      "t": 46749.999999999985,
      "d": 250,
      "v": 90
    },
    {
      "midi": 69,
      "hit": false,
      "t": 46749.999999999985,
      "d": 250,
      "v": 90
    },
    {
      "midi": 76,
      "hit": false,
      "t": 46999.999999999985,
      "d": 250,
      "v": 90
    },
    {
      "midi": 69,
      "hit": false,
      "t": 46999.999999999985,
      "d": 250,
      "v": 90
    },
    {
      "midi": 77,
      "hit": false,
      "t": 47249.999999999985,
      "d": 250,
      "v": 90
    },
    {
      "midi": 69,
      "hit": false,
      "t": 47249.999999999985,
      "d": 250,
      "v": 90
    },
    {
      "midi": 79,
      "hit": false,
      "t": 47499.999999999985,
      "d": 250,
      "v": 90
    },
    {
      "midi": 69,
      "hit": false,
      "t": 47499.999999999985,
      "d": 250,
      "v": 90
    },
    {
      "midi": 76,
      "hit": false,
      "t": 47749.999999999985,
      "d": 250,
      "v": 90
    },
    {
      "midi": 69,
      "hit": false,
      "t": 47749.999999999985,
      "d": 250,
      "v": 90
    },
    {
      "midi": 77,
      "hit": false,
      "t": 47999.999999999985,
      "d": 250,
      "v": 90
    },
    {
      "midi": 69,
      "hit": false,
      "t": 47999.999999999985,
      "d": 250,
      "v": 90
    },
    {
      "midi": 79,
      "hit": false,
      "t": 48249.999999999985,
      "d": 250,
      "v": 90
    },
    {
      "midi": 69,
      "hit": false,
      "t": 48249.999999999985,
      "d": 250,
      "v": 90
    },
    {
      "midi": 81,
      "hit": false,
      "t": 48499.999999999985,
      "d": 250,
      "v": 90
    },
    {
      "midi": 69,
      "hit": false,
      "t": 48499.999999999985,
      "d": 250,
      "v": 90
    },
    {
      "midi": 77,
      "hit": false,
      "t": 48749.999999999985,
      "d": 250,
      "v": 90
    },
    {
      "midi": 69,
      "hit": false,
      "t": 48749.999999999985,
      "d": 250,
      "v": 90
    },
    {
      "midi": 79,
      "hit": false,
      "t": 48999.999999999985,
      "d": 250,
      "v": 90
    },
    {
      "midi": 69,
      "hit": false,
      "t": 48999.999999999985,
      "d": 250,
      "v": 90
    },
    {
      "midi": 81,
      "hit": false,
      "t": 49249.999999999985,
      "d": 250,
      "v": 90
    },
    {
      "midi": 69,
      "hit": false,
      "t": 49249.999999999985,
      "d": 250,
      "v": 90
    },
    {
      "midi": 82,
      "hit": false,
      "t": 49499.999999999985,
      "d": 250,
      "v": 90
    },
    {
      "midi": 69,
      "hit": false,
      "t": 49499.999999999985,
      "d": 250,
      "v": 90
    },
    {
      "midi": 79,
      "hit": false,
      "t": 49749.999999999985,
      "d": 250,
      "v": 90
    },
    {
      "midi": 69,
      "hit": false,
      "t": 49749.999999999985,
      "d": 250,
      "v": 90
    },
    {
      "midi": 81,
      "hit": false,
      "t": 49999.999999999985,
      "d": 250,
      "v": 90
    },
    {
      "midi": 69,
      "hit": false,
      "t": 49999.999999999985,
      "d": 250,
      "v": 90
    },
    {
      "midi": 77,
      "hit": false,
      "t": 50249.999999999985,
      "d": 250,
      "v": 90
    },
    {
      "midi": 69,
      "hit": false,
      "t": 50249.999999999985,
      "d": 250,
      "v": 90
    },
    {
      "midi": 79,
      "hit": false,
      "t": 50499.999999999985,
      "d": 250,
      "v": 90
    },
    {
      "midi": 69,
      "hit": false,
      "t": 50499.999999999985,
      "d": 250,
      "v": 90
    },
    {
      "midi": 76,
      "hit": false,
      "t": 50749.999999999985,
      "d": 250,
      "v": 90
    },
    {
      "midi": 69,
      "hit": false,
      "t": 50749.999999999985,
      "d": 250,
      "v": 90
    },
    {
      "midi": 77,
      "hit": false,
      "t": 50999.999999999985,
      "d": 250,
      "v": 90
    },
    {
      "midi": 69,
      "hit": false,
      "t": 50999.999999999985,
      "d": 250,
      "v": 90
    },
    {
      "midi": 74,
      "hit": false,
      "t": 51249.999999999985,
      "d": 250,
      "v": 90
    },
    {
      "midi": 69,
      "hit": false,
      "t": 51249.999999999985,
      "d": 250,
      "v": 90
    },
    {
      "midi": 76,
      "hit": false,
      "t": 51499.999999999985,
      "d": 250,
      "v": 90
    },
    {
      "midi": 69,
      "hit": false,
      "t": 51499.999999999985,
      "d": 250,
      "v": 90
    },
    {
      "midi": 73,
      "hit": false,
      "t": 51749.999999999985,
      "d": 250,
      "v": 90
    },
    {
      "midi": 69,
      "hit": false,
      "t": 51749.999999999985,
      "d": 250,
      "v": 90
    },
    {
      "midi": 74,
      "hit": false,
      "t": 51999.999999999985,
      "d": 250,
      "v": 90
    },
    {
      "midi": 69,
      "hit": false,
      "t": 51999.999999999985,
      "d": 250,
      "v": 90
    },
    {
      "midi": 69,
      "hit": false,
      "t": 52249.999999999985,
      "d": 250,
      "v": 90
    },
    {
      "midi": 69,
      "hit": false,
      "t": 52249.999999999985,
      "d": 250,
      "v": 90
    },
    {
      "midi": 70,
      "hit": false,
      "t": 52499.999999999985,
      "d": 250,
      "v": 90
    },
    {
      "midi": 69,
      "hit": false,
      "t": 52499.999999999985,
      "d": 250,
      "v": 90
    },
    {
      "midi": 67,
      "hit": false,
      "t": 52749.999999999985,
      "d": 250,
      "v": 90
    },
    {
      "midi": 69,
      "hit": false,
      "t": 52749.999999999985,
      "d": 250,
      "v": 90
    },
    {
      "midi": 69,
      "hit": false,
      "t": 52999.999999999985,
      "d": 250,
      "v": 90
    },
    {
      "midi": 69,
      "hit": false,
      "t": 52999.999999999985,
      "d": 250,
      "v": 90
    },
    {
      "midi": 65,
      "hit": false,
      "t": 53249.999999999985,
      "d": 250,
      "v": 90
    },
    {
      "midi": 69,
      "hit": false,
      "t": 53249.999999999985,
      "d": 250,
      "v": 90
    },
    {
      "midi": 67,
      "hit": false,
      "t": 53499.999999999985,
      "d": 250,
      "v": 90
    },
    {
      "midi": 69,
      "hit": false,
      "t": 53499.999999999985,
      "d": 250,
      "v": 90
    },
    {
      "midi": 64,
      "hit": false,
      "t": 53749.999999999985,
      "d": 250,
      "v": 90
    },
    {
      "midi": 69,
      "hit": false,
      "t": 53749.999999999985,
      "d": 250,
      "v": 90
    },
    {
      "midi": 65,
      "hit": false,
      "t": 53999.999999999985,
      "d": 250,
      "v": 90
    },
    {
      "midi": 69,
      "hit": false,
      "t": 53999.999999999985,
      "d": 250,
      "v": 90
    },
    {
      "midi": 62,
      "hit": false,
      "t": 54249.999999999985,
      "d": 250,
      "v": 90
    },
    {
      "midi": 69,
      "hit": false,
      "t": 54249.999999999985,
      "d": 250,
      "v": 90
    },
    {
      "midi": 67,
      "hit": false,
      "t": 54499.999999999985,
      "d": 250,
      "v": 90
    },
    {
      "midi": 69,
      "hit": false,
      "t": 54499.999999999985,
      "d": 250,
      "v": 90
    },
    {
      "midi": 64,
      "hit": false,
      "t": 54749.999999999985,
      "d": 250,
      "v": 90
    },
    {
      "midi": 69,
      "hit": false,
      "t": 54749.999999999985,
      "d": 250,
      "v": 90
    },
    {
      "midi": 65,
      "hit": false,
      "t": 54999.999999999985,
      "d": 250,
      "v": 90
    },
    {
      "midi": 69,
      "hit": false,
      "t": 54999.999999999985,
      "d": 250,
      "v": 90
    },
    {
      "midi": 62,
      "hit": false,
      "t": 55249.999999999985,
      "d": 250,
      "v": 90
    },
    {
      "midi": 69,
      "hit": false,
      "t": 55249.999999999985,
      "d": 250,
      "v": 90
    },
    {
      "midi": 64,
      "hit": false,
      "t": 55499.999999999985,
      "d": 250,
      "v": 90
    },
    {
      "midi": 69,
      "hit": false,
      "t": 55499.999999999985,
      "d": 250,
      "v": 90
    },
    {
      "midi": 61,
      "hit": false,
      "t": 55749.999999999985,
      "d": 250,
      "v": 90
    },
    {
      "midi": 69,
      "hit": false,
      "t": 55749.999999999985,
      "d": 250,
      "v": 90
    },
    {
      "midi": 62,
      "hit": false,
      "t": 55999.999999999985,
      "d": 250,
      "v": 90
    },
    {
      "midi": 69,
      "hit": false,
      "t": 55999.999999999985,
      "d": 250,
      "v": 90
    },
    {
      "midi": 57,
      "hit": false,
      "t": 56249.999999999985,
      "d": 250,
      "v": 90
    },
    {
      "midi": 69,
      "hit": false,
      "t": 56249.999999999985,
      "d": 250,
      "v": 90
    },
    {
      "midi": 58,
      "hit": false,
      "t": 56499.999999999985,
      "d": 250,
      "v": 90
    },
    {
      "midi": 69,
      "hit": false,
      "t": 56499.999999999985,
      "d": 250,
      "v": 90
    },
    {
      "midi": 55,
      "hit": false,
      "t": 56749.999999999985,
      "d": 250,
      "v": 90
    },
    {
      "midi": 69,
      "hit": false,
      "t": 56749.999999999985,
      "d": 250,
      "v": 90
    },
    {
      "midi": 57,
      "hit": false,
      "t": 56999.999999999985,
      "d": 250,
      "v": 90
    },
    {
      "midi": 69,
      "hit": false,
      "t": 56999.999999999985,
      "d": 250,
      "v": 90
    },
    {
      "midi": 53,
      "hit": false,
      "t": 57249.999999999985,
      "d": 250,
      "v": 90
    },
    {
      "midi": 69,
      "hit": false,
      "t": 57249.999999999985,
      "d": 250,
      "v": 90
    },
    {
      "midi": 55,
      "hit": false,
      "t": 57499.999999999985,
      "d": 250,
      "v": 90
    },
    {
      "midi": 69,
      "hit": false,
      "t": 57499.999999999985,
      "d": 250,
      "v": 90
    },
    {
      "midi": 52,
      "hit": false,
      "t": 57749.999999999985,
      "d": 250,
      "v": 90
    },
    {
      "midi": 69,
      "hit": false,
      "t": 57749.999999999985,
      "d": 250,
      "v": 90
    },
    {
      "midi": 53,
      "hit": false,
      "t": 57999.999999999985,
      "d": 250,
      "v": 90
    },
    {
      "midi": 69,
      "hit": false,
      "t": 57999.999999999985,
      "d": 250,
      "v": 90
    },
    {
      "midi": 50,
      "hit": false,
      "t": 58249.999999999985,
      "d": 250,
      "v": 90
    },
    {
      "midi": 69,
      "hit": false,
      "t": 58249.999999999985,
      "d": 250,
      "v": 90
    },
    {
      "midi": 55,
      "hit": false,
      "t": 58499.999999999985,
      "d": 250,
      "v": 90
    },
    {
      "midi": 69,
      "hit": false,
      "t": 58499.999999999985,
      "d": 250,
      "v": 90
    },
    {
      "midi": 52,
      "hit": false,
      "t": 58749.999999999985,
      "d": 250,
      "v": 90
    },
    {
      "midi": 69,
      "hit": false,
      "t": 58749.999999999985,
      "d": 250,
      "v": 90
    },
    {
      "midi": 53,
      "hit": false,
      "t": 58999.999999999985,
      "d": 250,
      "v": 90
    },
    {
      "midi": 69,
      "hit": false,
      "t": 58999.999999999985,
      "d": 250,
      "v": 90
    },
    {
      "midi": 50,
      "hit": false,
      "t": 59249.999999999985,
      "d": 250,
      "v": 90
    },
    {
      "midi": 69,
      "hit": false,
      "t": 59249.999999999985,
      "d": 250,
      "v": 90
    },
    {
      "midi": 52,
      "hit": false,
      "t": 59499.999999999985,
      "d": 250,
      "v": 90
    },
    {
      "midi": 69,
      "hit": false,
      "t": 59499.999999999985,
      "d": 250,
      "v": 90
    },
    {
      "midi": 49,
      "hit": false,
      "t": 59749.999999999985,
      "d": 250,
      "v": 90
    },
    {
      "midi": 69,
      "hit": false,
      "t": 59749.999999999985,
      "d": 250,
      "v": 90
    },
    {
      "midi": 50,
      "hit": false,
      "t": 59999.999999999985,
      "d": 500,
      "v": 90
    },
    {
      "midi": 62,
      "hit": false,
      "t": 60499.999999999985,
      "d": 250,
      "v": 90
    },
    {
      "midi": 65,
      "hit": false,
      "t": 60499.999999999985,
      "d": 250,
      "v": 90
    },
    {
      "midi": 65,
      "hit": false,
      "t": 60749.999999999985,
      "d": 250,
      "v": 90
    },
    {
      "midi": 70,
      "hit": false,
      "t": 60749.999999999985,
      "d": 250,
      "v": 90
    },
    {
      "midi": 60,
      "hit": false,
      "t": 60999.999999999985,
      "d": 250,
      "v": 90
    },
    {
      "midi": 64,
      "hit": false,
      "t": 60999.999999999985,
      "d": 250,
      "v": 90
    },
    {
      "midi": 64,
      "hit": false,
      "t": 61249.999999999985,
      "d": 250,
      "v": 90
    },
    {
      "midi": 69,
      "hit": false,
      "t": 61249.999999999985,
      "d": 250,
      "v": 90
    },
    {
      "midi": 62,
      "hit": false,
      "t": 61499.999999999985,
      "d": 250,
      "v": 90
    },
    {
      "midi": 58,
      "hit": false,
      "t": 61499.999999999985,
      "d": 500,
      "v": 90
    },
    {
      "midi": 62,
      "hit": false,
      "t": 61749.999999999985,
      "d": 250,
      "v": 90
    },
    {
      "midi": 67,
      "hit": false,
      "t": 61749.999999999985,
      "d": 250,
      "v": 90
    },
    {
      "midi": 61,
      "hit": false,
      "t": 61999.999999999985,
      "d": 250,
      "v": 90
    },
    {
      "midi": 57,
      "hit": false,
      "t": 61999.999999999985,
      "d": 1000,
      "v": 90
    },
    {
      "midi": 64,
      "hit": false,
      "t": 62249.999999999985,
      "d": 250,
      "v": 90
    },
    {
      "midi": 69,
      "hit": false,
      "t": 62249.999999999985,
      "d": 250,
      "v": 90
    },
    {
      "midi": 62,
      "hit": false,
      "t": 62499.999999999985,
      "d": 250,
      "v": 90
    },
    {
      "midi": 65,
      "hit": false,
      "t": 62749.999999999985,
      "d": 250,
      "v": 90
    },
    {
      "midi": 70,
      "hit": false,
      "t": 62749.999999999985,
      "d": 250,
      "v": 90
    },
    {
      "midi": 57,
      "hit": false,
      "t": 62999.999999999985,
      "d": 500,
      "v": 90
    },
    {
      "midi": 64,
      "hit": false,
      "t": 63249.999999999985,
      "d": 250,
      "v": 90
    },
    {
      "midi": 69,
      "hit": false,
      "t": 63249.999999999985,
      "d": 250,
      "v": 90
    },
    {
      "midi": 58,
      "hit": false,
      "t": 63499.999999999985,
      "d": 500,
      "v": 90
    },
    {
      "midi": 62,
      "hit": false,
      "t": 63749.999999999985,
      "d": 250,
      "v": 90
    },
    {
      "midi": 67,
      "hit": false,
      "t": 63749.999999999985,
      "d": 250,
      "v": 90
    },
    {
      "midi": 61,
      "hit": false,
      "t": 63999.999999999985,
      "d": 500,
      "v": 90
    },
    {
      "midi": 64,
      "hit": false,
      "t": 63999.999999999985,
      "d": 500,
      "v": 90
    },
    {
      "midi": 69,
      "hit": false,
      "t": 63999.999999999985,
      "d": 500,
      "v": 90
    },
    {
      "midi": 52,
      "hit": false,
      "t": 63999.999999999985,
      "d": 1000,
      "v": 90
    },
    {
      "midi": 62,
      "hit": false,
      "t": 64499.999999999985,
      "d": 250,
      "v": 90
    },
    {
      "midi": 65,
      "hit": false,
      "t": 64499.999999999985,
      "d": 250,
      "v": 90
    },
    {
      "midi": 65,
      "hit": false,
      "t": 64749.999999999985,
      "d": 250,
      "v": 90
    },
    {
      "midi": 70,
      "hit": false,
      "t": 64749.999999999985,
      "d": 250,
      "v": 90
    },
    {
      "midi": 60,
      "hit": false,
      "t": 64999.999999999985,
      "d": 250,
      "v": 90
    },
    {
      "midi": 64,
      "hit": false,
      "t": 64999.999999999985,
      "d": 250,
      "v": 90
    },
    {
      "midi": 64,
      "hit": false,
      "t": 65249.999999999985,
      "d": 250,
      "v": 90
    },
    {
      "midi": 69,
      "hit": false,
      "t": 65249.999999999985,
      "d": 250,
      "v": 90
    },
    {
      "midi": 62,
      "hit": false,
      "t": 65499.999999999985,
      "d": 250,
      "v": 90
    },
    {
      "midi": 58,
      "hit": false,
      "t": 65499.999999999985,
      "d": 500,
      "v": 90
    },
    {
      "midi": 62,
      "hit": false,
      "t": 65749.99999999999,
      "d": 250,
      "v": 90
    },
    {
      "midi": 67,
      "hit": false,
      "t": 65749.99999999999,
      "d": 250,
      "v": 90
    },
    {
      "midi": 61,
      "hit": false,
      "t": 65999.99999999999,
      "d": 250,
      "v": 90
    },
    {
      "midi": 57,
      "hit": false,
      "t": 65999.99999999999,
      "d": 1000,
      "v": 90
    },
    {
      "midi": 64,
      "hit": false,
      "t": 66249.99999999999,
      "d": 250,
      "v": 90
    },
    {
      "midi": 69,
      "hit": false,
      "t": 66249.99999999999,
      "d": 250,
      "v": 90
    },
    {
      "midi": 62,
      "hit": false,
      "t": 66499.99999999999,
      "d": 250,
      "v": 90
    },
    {
      "midi": 65,
      "hit": false,
      "t": 66749.99999999999,
      "d": 250,
      "v": 90
    },
    {
      "midi": 70,
      "hit": false,
      "t": 66749.99999999999,
      "d": 250,
      "v": 90
    },
    {
      "midi": 57,
      "hit": false,
      "t": 66999.99999999999,
      "d": 500,
      "v": 90
    },
    {
      "midi": 64,
      "hit": false,
      "t": 67249.99999999999,
      "d": 250,
      "v": 90
    },
    {
      "midi": 69,
      "hit": false,
      "t": 67249.99999999999,
      "d": 250,
      "v": 90
    },
    {
      "midi": 58,
      "hit": false,
      "t": 67499.99999999999,
      "d": 500,
      "v": 90
    },
    {
      "midi": 62,
      "hit": false,
      "t": 67749.99999999999,
      "d": 250,
      "v": 90
    },
    {
      "midi": 67,
      "hit": false,
      "t": 67749.99999999999,
      "d": 250,
      "v": 90
    },
    {
      "midi": 61,
      "hit": false,
      "t": 67999.99999999999,
      "d": 1000,
      "v": 90
    },
    {
      "midi": 64,
      "hit": false,
      "t": 67999.99999999999,
      "d": 1000,
      "v": 90
    },
    {
      "midi": 69,
      "hit": false,
      "t": 67999.99999999999,
      "d": 1000,
      "v": 90
    },
    {
      "midi": 52,
      "hit": false,
      "t": 67999.99999999999,
      "d": 1000,
      "v": 90
    },
    {
      "midi": 67,
      "hit": false,
      "t": 68999.99999999999,
      "d": 250,
      "v": 90
    },
    {
      "midi": 64,
      "hit": false,
      "t": 69249.99999999999,
      "d": 250,
      "v": 90
    },
    {
      "midi": 65,
      "hit": false,
      "t": 69249.99999999999,
      "d": 250,
      "v": 90
    },
    {
      "midi": 61,
      "hit": false,
      "t": 69499.99999999999,
      "d": 250,
      "v": 90
    },
    {
      "midi": 62,
      "hit": false,
      "t": 69499.99999999999,
      "d": 250,
      "v": 90
    },
    {
      "midi": 59,
      "hit": false,
      "t": 69749.99999999999,
      "d": 250,
      "v": 90
    },
    {
      "midi": 61,
      "hit": false,
      "t": 69749.99999999999,
      "d": 250,
      "v": 90
    },
    {
      "midi": 57,
      "hit": false,
      "t": 69999.99999999999,
      "d": 250,
      "v": 90
    },
    {
      "midi": 59,
      "hit": false,
      "t": 69999.99999999999,
      "d": 250,
      "v": 90
    },
    {
      "midi": 61,
      "hit": false,
      "t": 70249.99999999999,
      "d": 250,
      "v": 90
    },
    {
      "midi": 62,
      "hit": false,
      "t": 70249.99999999999,
      "d": 250,
      "v": 90
    },
    {
      "midi": 64,
      "hit": false,
      "t": 70499.99999999999,
      "d": 250,
      "v": 90
    },
    {
      "midi": 65,
      "hit": false,
      "t": 70499.99999999999,
      "d": 250,
      "v": 90
    },
    {
      "midi": 67,
      "hit": false,
      "t": 70749.99999999999,
      "d": 250,
      "v": 90
    },
    {
      "midi": 69,
      "hit": false,
      "t": 70749.99999999999,
      "d": 250,
      "v": 90
    },
    {
      "midi": 65,
      "hit": false,
      "t": 70999.99999999999,
      "d": 250,
      "v": 90
    },
    {
      "midi": 67,
      "hit": false,
      "t": 70999.99999999999,
      "d": 250,
      "v": 90
    },
    {
      "midi": 64,
      "hit": false,
      "t": 71249.99999999999,
      "d": 250,
      "v": 90
    },
    {
      "midi": 65,
      "hit": false,
      "t": 71249.99999999999,
      "d": 250,
      "v": 90
    },
    {
      "midi": 62,
      "hit": false,
      "t": 71499.99999999999,
      "d": 250,
      "v": 90
    },
    {
      "midi": 65,
      "hit": false,
      "t": 71499.99999999999,
      "d": 250,
      "v": 90
    },
    {
      "midi": 69,
      "hit": false,
      "t": 71749.99999999999,
      "d": 250,
      "v": 90
    },
    {
      "midi": 73,
      "hit": false,
      "t": 71749.99999999999,
      "d": 250,
      "v": 90
    },
    {
      "midi": 69,
      "hit": false,
      "t": 71999.99999999999,
      "d": 250,
      "v": 90
    },
    {
      "midi": 74,
      "hit": false,
      "t": 71999.99999999999,
      "d": 250,
      "v": 90
    },
    {
      "midi": 71,
      "hit": false,
      "t": 72249.99999999999,
      "d": 250,
      "v": 90
    },
    {
      "midi": 73,
      "hit": false,
      "t": 72249.99999999999,
      "d": 250,
      "v": 90
    },
    {
      "midi": 74,
      "hit": false,
      "t": 72499.99999999999,
      "d": 250,
      "v": 90
    },
    {
      "midi": 76,
      "hit": false,
      "t": 72499.99999999999,
      "d": 250,
      "v": 90
    },
    {
      "midi": 77,
      "hit": false,
      "t": 72749.99999999999,
      "d": 250,
      "v": 90
    },
    {
      "midi": 79,
      "hit": false,
      "t": 72749.99999999999,
      "d": 250,
      "v": 90
    },
    {
      "midi": 81,
      "hit": false,
      "t": 72749.99999999999,
      "d": 250,
      "v": 90
    },
    {
      "midi": 82,
      "hit": false,
      "t": 72999.99999999999,
      "d": 500,
      "v": 90
    },
    {
      "midi": 74,
      "hit": false,
      "t": 73499.99999999999,
      "d": 250,
      "v": 90
    },
    {
      "midi": 77,
      "hit": false,
      "t": 73749.99999999999,
      "d": 250,
      "v": 90
    },
    {
      "midi": 82,
      "hit": false,
      "t": 73749.99999999999,
      "d": 250,
      "v": 90
    },
    {
      "midi": 69,
      "hit": false,
      "t": 73999.99999999999,
      "d": 250,
      "v": 90
    },
    {
      "midi": 76,
      "hit": false,
      "t": 74249.99999999999,
      "d": 250,
      "v": 90
    },
    {
      "midi": 81,
      "hit": false,
      "t": 74249.99999999999,
      "d": 250,
      "v": 90
    },
    {
      "midi": 70,
      "hit": false,
      "t": 74499.99999999999,
      "d": 250,
      "v": 90
    },
    {
      "midi": 74,
      "hit": false,
      "t": 74749.99999999999,
      "d": 250,
      "v": 90
    },
    {
      "midi": 79,
      "hit": false,
      "t": 74749.99999999999,
      "d": 250,
      "v": 90
    },
    {
      "midi": 64,
      "hit": false,
      "t": 74999.99999999999,
      "d": 500,
      "v": 90
    },
    {
      "midi": 73,
      "hit": false,
      "t": 74999.99999999999,
      "d": 500,
      "v": 90
    },
    {
      "midi": 76,
      "hit": false,
      "t": 74999.99999999999,
      "d": 500,
      "v": 90
    },
    {
      "midi": 81,
      "hit": false,
      "t": 74999.99999999999,
      "d": 500,
      "v": 90
    },
    {
      "midi": 74,
      "hit": false,
      "t": 75499.99999999999,
      "d": 250,
      "v": 90
    },
    {
      "midi": 77,
      "hit": false,
      "t": 75499.99999999999,
      "d": 250,
      "v": 90
    },
    {
      "midi": 77,
      "hit": false,
      "t": 75749.99999999999,
      "d": 250,
      "v": 90
    },
    {
      "midi": 82,
      "hit": false,
      "t": 75749.99999999999,
      "d": 250,
      "v": 90
    },
    {
      "midi": 72,
      "hit": false,
      "t": 75999.99999999999,
      "d": 250,
      "v": 90
    },
    {
      "midi": 76,
      "hit": false,
      "t": 75999.99999999999,
      "d": 250,
      "v": 90
    },
    {
      "midi": 76,
      "hit": false,
      "t": 76249.99999999999,
      "d": 250,
      "v": 90
    },
    {
      "midi": 81,
      "hit": false,
      "t": 76249.99999999999,
      "d": 250,
      "v": 90
    },
    {
      "midi": 70,
      "hit": false,
      "t": 76499.99999999999,
      "d": 250,
      "v": 90
    },
    {
      "midi": 74,
      "hit": false,
      "t": 76499.99999999999,
      "d": 250,
      "v": 90
    },
    {
      "midi": 74,
      "hit": false,
      "t": 76749.99999999999,
      "d": 250,
      "v": 90
    },
    {
      "midi": 79,
      "hit": false,
      "t": 76749.99999999999,
      "d": 250,
      "v": 90
    },
    {
      "midi": 69,
      "hit": false,
      "t": 76999.99999999999,
      "d": 250,
      "v": 90
    },
    {
      "midi": 73,
      "hit": false,
      "t": 76999.99999999999,
      "d": 250,
      "v": 90
    },
    {
      "midi": 76,
      "hit": false,
      "t": 77249.99999999999,
      "d": 250,
      "v": 90
    },
    {
      "midi": 81,
      "hit": false,
      "t": 77249.99999999999,
      "d": 250,
      "v": 90
    },
    {
      "midi": 74,
      "hit": false,
      "t": 77499.99999999999,
      "d": 250,
      "v": 90
    },
    {
      "midi": 77,
      "hit": false,
      "t": 77749.99999999999,
      "d": 250,
      "v": 90
    },
    {
      "midi": 82,
      "hit": false,
      "t": 77749.99999999999,
      "d": 250,
      "v": 90
    },
    {
      "midi": 69,
      "hit": false,
      "t": 77999.99999999999,
      "d": 250,
      "v": 90
    },
    {
      "midi": 76,
      "hit": false,
      "t": 78249.99999999999,
      "d": 250,
      "v": 90
    },
    {
      "midi": 81,
      "hit": false,
      "t": 78249.99999999999,
      "d": 250,
      "v": 90
    },
    {
      "midi": 70,
      "hit": false,
      "t": 78499.99999999999,
      "d": 250,
      "v": 90
    },
    {
      "midi": 74,
      "hit": false,
      "t": 78749.99999999999,
      "d": 250,
      "v": 90
    },
    {
      "midi": 79,
      "hit": false,
      "t": 78749.99999999999,
      "d": 250,
      "v": 90
    },
    {
      "midi": 64,
      "hit": false,
      "t": 78999.99999999999,
      "d": 500,
      "v": 90
    },
    {
      "midi": 73,
      "hit": false,
      "t": 78999.99999999999,
      "d": 500,
      "v": 90
    },
    {
      "midi": 76,
      "hit": false,
      "t": 78999.99999999999,
      "d": 500,
      "v": 90
    },
    {
      "midi": 81,
      "hit": false,
      "t": 78999.99999999999,
      "d": 500,
      "v": 90
    },
    {
      "midi": 65,
      "hit": false,
      "t": 79499.99999999999,
      "d": 500,
      "v": 90
    },
    {
      "midi": 71,
      "hit": false,
      "t": 79499.99999999999,
      "d": 500,
      "v": 90
    },
    {
      "midi": 59,
      "hit": false,
      "t": 79499.99999999999,
      "d": 500,
      "v": 90
    },
    {
      "midi": 62,
      "hit": false,
      "t": 79499.99999999999,
      "d": 500,
      "v": 90
    },
    {
      "midi": 73,
      "hit": false,
      "t": 79999.99999999999,
      "d": 750,
      "v": 90
    },
    {
      "midi": 69,
      "hit": false,
      "t": 79999.99999999999,
      "d": 1000,
      "v": 90
    },
    {
      "midi": 57,
      "hit": false,
      "t": 79999.99999999999,
      "d": 1000,
      "v": 90
    },
    {
      "midi": 64,
      "hit": false,
      "t": 79999.99999999999,
      "d": 1000,
      "v": 90
    },
    {
      "midi": 71,
      "hit": false,
      "t": 80749.99999999999,
      "d": 250,
      "v": 90
    },
    {
      "midi": 69,
      "hit": false,
      "t": 80999.99999999999,
      "d": 250,
      "v": 90
    },
    {
      "midi": 73,
      "hit": false,
      "t": 81249.99999999999,
      "d": 250,
      "v": 90
    },
    {
      "midi": 76,
      "hit": false,
      "t": 81499.99999999999,
      "d": 250,
      "v": 90
    },
    {
      "midi": 79,
      "hit": false,
      "t": 81499.99999999999,
      "d": 250,
      "v": 90
    },
    {
      "midi": 82,
      "hit": false,
      "t": 81749.99999999999,
      "d": 250,
      "v": 90
    },
    {
      "midi": 79,
      "hit": false,
      "t": 81999.99999999999,
      "d": 250,
      "v": 90
    },
    {
      "midi": 81,
      "hit": false,
      "t": 81999.99999999999,
      "d": 250,
      "v": 90
    },
    {
      "midi": 76,
      "hit": false,
      "t": 82249.99999999999,
      "d": 250,
      "v": 90
    },
    {
      "midi": 77,
      "hit": false,
      "t": 82249.99999999999,
      "d": 250,
      "v": 90
    },
    {
      "midi": 76,
      "hit": false,
      "t": 82499.99999999999,
      "d": 250,
      "v": 90
    },
    {
      "midi": 77,
      "hit": false,
      "t": 82499.99999999999,
      "d": 250,
      "v": 90
    },
    {
      "midi": 73,
      "hit": false,
      "t": 82749.99999999999,
      "d": 250,
      "v": 90
    },
    {
      "midi": 74,
      "hit": false,
      "t": 82749.99999999999,
      "d": 250,
      "v": 90
    },
    {
      "midi": 72,
      "hit": false,
      "t": 82999.99999999999,
      "d": 250,
      "v": 90
    },
    {
      "midi": 74,
      "hit": false,
      "t": 82999.99999999999,
      "d": 250,
      "v": 90
    },
    {
      "midi": 69,
      "hit": false,
      "t": 83249.99999999999,
      "d": 250,
      "v": 90
    },
    {
      "midi": 70,
      "hit": false,
      "t": 83249.99999999999,
      "d": 250,
      "v": 90
    },
    {
      "midi": 65,
      "hit": false,
      "t": 83499.99999999999,
      "d": 250,
      "v": 90
    },
    {
      "midi": 67,
      "hit": false,
      "t": 83499.99999999999,
      "d": 250,
      "v": 90
    },
    {
      "midi": 62,
      "hit": false,
      "t": 83749.99999999999,
      "d": 250,
      "v": 90
    },
    {
      "midi": 64,
      "hit": false,
      "t": 83749.99999999999,
      "d": 250,
      "v": 90
    },
    {
      "midi": 70,
      "hit": false,
      "t": 83999.99999999999,
      "d": 2000,
      "v": 90
    },
    {
      "midi": 73,
      "hit": false,
      "t": 83999.99999999999,
      "d": 2000,
      "v": 90
    },
    {
      "midi": 76,
      "hit": false,
      "t": 83999.99999999999,
      "d": 2000,
      "v": 90
    },
    {
      "midi": 61,
      "hit": false,
      "t": 83999.99999999999,
      "d": 2000,
      "v": 90
    },
    {
      "midi": 64,
      "hit": false,
      "t": 83999.99999999999,
      "d": 2000,
      "v": 90
    },
    {
      "midi": 67,
      "hit": false,
      "t": 83999.99999999999,
      "d": 2000,
      "v": 90
    },
    {
      "midi": 76,
      "hit": false,
      "t": 86166.66666666666,
      "d": 166.66666666667152,
      "v": 90
    },
    {
      "midi": 67,
      "hit": false,
      "t": 86166.66666666666,
      "d": 166.66666666667152,
      "v": 90
    },
    {
      "midi": 73,
      "hit": false,
      "t": 86333.33333333333,
      "d": 166.66666666667152,
      "v": 90
    },
    {
      "midi": 64,
      "hit": false,
      "t": 86333.33333333333,
      "d": 166.66666666667152,
      "v": 90
    },
    {
      "midi": 70,
      "hit": false,
      "t": 86500,
      "d": 166.66666666667152,
      "v": 90
    },
    {
      "midi": 61,
      "hit": false,
      "t": 86500,
      "d": 166.66666666667152,
      "v": 90
    },
    {
      "midi": 73,
      "hit": false,
      "t": 86666.66666666667,
      "d": 166.66666666667152,
      "v": 90
    },
    {
      "midi": 64,
      "hit": false,
      "t": 86666.66666666667,
      "d": 166.66666666667152,
      "v": 90
    },
    {
      "midi": 70,
      "hit": false,
      "t": 86833.33333333334,
      "d": 166.66666666667152,
      "v": 90
    },
    {
      "midi": 61,
      "hit": false,
      "t": 86833.33333333334,
      "d": 166.66666666667152,
      "v": 90
    },
    {
      "midi": 73,
      "hit": false,
      "t": 87000.00000000001,
      "d": 166.66666666667152,
      "v": 90
    },
    {
      "midi": 64,
      "hit": false,
      "t": 87000.00000000001,
      "d": 166.66666666667152,
      "v": 90
    },
    {
      "midi": 76,
      "hit": false,
      "t": 87166.66666666669,
      "d": 166.66666666667152,
      "v": 90
    },
    {
      "midi": 67,
      "hit": false,
      "t": 87166.66666666669,
      "d": 166.66666666667152,
      "v": 90
    },
    {
      "midi": 73,
      "hit": false,
      "t": 87333.33333333336,
      "d": 166.66666666667152,
      "v": 90
    },
    {
      "midi": 64,
      "hit": false,
      "t": 87333.33333333336,
      "d": 166.66666666667152,
      "v": 90
    },
    {
      "midi": 70,
      "hit": false,
      "t": 87500.00000000003,
      "d": 166.66666666667152,
      "v": 90
    },
    {
      "midi": 61,
      "hit": false,
      "t": 87500.00000000003,
      "d": 166.66666666667152,
      "v": 90
    },
    {
      "midi": 73,
      "hit": false,
      "t": 87666.6666666667,
      "d": 166.66666666667152,
      "v": 90
    },
    {
      "midi": 64,
      "hit": false,
      "t": 87666.6666666667,
      "d": 166.66666666667152,
      "v": 90
    },
    {
      "midi": 70,
      "hit": false,
      "t": 87833.33333333337,
      "d": 166.66666666667152,
      "v": 90
    },
    {
      "midi": 61,
      "hit": false,
      "t": 87833.33333333337,
      "d": 166.66666666667152,
      "v": 90
    },
    {
      "midi": 73,
      "hit": false,
      "t": 88000.00000000004,
      "d": 166.66666666667152,
      "v": 90
    },
    {
      "midi": 64,
      "hit": false,
      "t": 88000.00000000004,
      "d": 166.66666666667152,
      "v": 90
    },
    {
      "midi": 76,
      "hit": false,
      "t": 88166.66666666672,
      "d": 166.66666666667152,
      "v": 90
    },
    {
      "midi": 67,
      "hit": false,
      "t": 88166.66666666672,
      "d": 166.66666666667152,
      "v": 90
    },
    {
      "midi": 73,
      "hit": false,
      "t": 88333.33333333339,
      "d": 166.66666666667152,
      "v": 90
    },
    {
      "midi": 64,
      "hit": false,
      "t": 88333.33333333339,
      "d": 166.66666666667152,
      "v": 90
    },
    {
      "midi": 70,
      "hit": false,
      "t": 88500.00000000006,
      "d": 166.66666666667152,
      "v": 90
    },
    {
      "midi": 61,
      "hit": false,
      "t": 88500.00000000006,
      "d": 166.66666666667152,
      "v": 90
    },
    {
      "midi": 73,
      "hit": false,
      "t": 88666.66666666673,
      "d": 166.66666666667152,
      "v": 90
    },
    {
      "midi": 64,
      "hit": false,
      "t": 88666.66666666673,
      "d": 166.66666666667152,
      "v": 90
    },
    {
      "midi": 70,
      "hit": false,
      "t": 88833.3333333334,
      "d": 166.66666666667152,
      "v": 90
    },
    {
      "midi": 61,
      "hit": false,
      "t": 88833.3333333334,
      "d": 166.66666666667152,
      "v": 90
    },
    {
      "midi": 73,
      "hit": false,
      "t": 89000.00000000007,
      "d": 166.66666666667152,
      "v": 90
    },
    {
      "midi": 64,
      "hit": false,
      "t": 89000.00000000007,
      "d": 166.66666666667152,
      "v": 90
    },
    {
      "midi": 76,
      "hit": false,
      "t": 89166.66666666674,
      "d": 166.66666666667152,
      "v": 90
    },
    {
      "midi": 67,
      "hit": false,
      "t": 89166.66666666674,
      "d": 166.66666666667152,
      "v": 90
    },
    {
      "midi": 73,
      "hit": false,
      "t": 89333.33333333342,
      "d": 166.66666666667152,
      "v": 90
    },
    {
      "midi": 64,
      "hit": false,
      "t": 89333.33333333342,
      "d": 166.66666666667152,
      "v": 90
    },
    {
      "midi": 70,
      "hit": false,
      "t": 89500.00000000009,
      "d": 166.66666666667152,
      "v": 90
    },
    {
      "midi": 61,
      "hit": false,
      "t": 89500.00000000009,
      "d": 166.66666666667152,
      "v": 90
    },
    {
      "midi": 73,
      "hit": false,
      "t": 89666.66666666676,
      "d": 166.66666666667152,
      "v": 90
    },
    {
      "midi": 64,
      "hit": false,
      "t": 89666.66666666676,
      "d": 166.66666666667152,
      "v": 90
    },
    {
      "midi": 70,
      "hit": false,
      "t": 89833.33333333343,
      "d": 166.66666666667152,
      "v": 90
    },
    {
      "midi": 61,
      "hit": false,
      "t": 89833.33333333343,
      "d": 166.66666666667152,
      "v": 90
    },
    {
      "midi": 67,
      "hit": false,
      "t": 90000.0000000001,
      "d": 166.66666666667152,
      "v": 90
    },
    {
      "midi": 58,
      "hit": false,
      "t": 90000.0000000001,
      "d": 166.66666666667152,
      "v": 90
    },
    {
      "midi": 70,
      "hit": false,
      "t": 90166.66666666677,
      "d": 166.66666666667152,
      "v": 90
    },
    {
      "midi": 61,
      "hit": false,
      "t": 90166.66666666677,
      "d": 166.66666666667152,
      "v": 90
    },
    {
      "midi": 67,
      "hit": false,
      "t": 90333.33333333344,
      "d": 166.66666666667152,
      "v": 90
    },
    {
      "midi": 58,
      "hit": false,
      "t": 90333.33333333344,
      "d": 166.66666666667152,
      "v": 90
    },
    {
      "midi": 64,
      "hit": false,
      "t": 90500.00000000012,
      "d": 166.66666666667152,
      "v": 90
    },
    {
      "midi": 55,
      "hit": false,
      "t": 90500.00000000012,
      "d": 166.66666666667152,
      "v": 90
    },
    {
      "midi": 67,
      "hit": false,
      "t": 90666.66666666679,
      "d": 166.66666666667152,
      "v": 90
    },
    {
      "midi": 58,
      "hit": false,
      "t": 90666.66666666679,
      "d": 166.66666666667152,
      "v": 90
    },
    {
      "midi": 64,
      "hit": false,
      "t": 90833.33333333346,
      "d": 166.66666666667152,
      "v": 90
    },
    {
      "midi": 55,
      "hit": false,
      "t": 90833.33333333346,
      "d": 166.66666666667152,
      "v": 90
    },
    {
      "midi": 67,
      "hit": false,
      "t": 91000.00000000013,
      "d": 166.66666666667152,
      "v": 90
    },
    {
      "midi": 58,
      "hit": false,
      "t": 91000.00000000013,
      "d": 166.66666666667152,
      "v": 90
    },
    {
      "midi": 70,
      "hit": false,
      "t": 91166.6666666668,
      "d": 166.66666666667152,
      "v": 90
    },
    {
      "midi": 61,
      "hit": false,
      "t": 91166.6666666668,
      "d": 166.66666666667152,
      "v": 90
    },
    {
      "midi": 67,
      "hit": false,
      "t": 91333.33333333347,
      "d": 166.66666666667152,
      "v": 90
    },
    {
      "midi": 58,
      "hit": false,
      "t": 91333.33333333347,
      "d": 166.66666666667152,
      "v": 90
    },
    {
      "midi": 64,
      "hit": false,
      "t": 91500.00000000015,
      "d": 166.66666666667152,
      "v": 90
    },
    {
      "midi": 55,
      "hit": false,
      "t": 91500.00000000015,
      "d": 166.66666666667152,
      "v": 90
    },
    {
      "midi": 67,
      "hit": false,
      "t": 91666.66666666682,
      "d": 166.66666666667152,
      "v": 90
    },
    {
      "midi": 58,
      "hit": false,
      "t": 91666.66666666682,
      "d": 166.66666666667152,
      "v": 90
    },
    {
      "midi": 70,
      "hit": false,
      "t": 91833.33333333349,
      "d": 166.66666666667152,
      "v": 90
    },
    {
      "midi": 55,
      "hit": false,
      "t": 91833.33333333349,
      "d": 166.66666666667152,
      "v": 90
    },
    {
      "midi": 67,
      "hit": false,
      "t": 92000.00000000016,
      "d": 166.66666666667152,
      "v": 90
    },
    {
      "midi": 58,
      "hit": false,
      "t": 92000.00000000016,
      "d": 166.66666666667152,
      "v": 90
    },
    {
      "midi": 70,
      "hit": false,
      "t": 92166.66666666683,
      "d": 166.66666666667152,
      "v": 90
    },
    {
      "midi": 61,
      "hit": false,
      "t": 92166.66666666683,
      "d": 166.66666666667152,
      "v": 90
    },
    {
      "midi": 67,
      "hit": false,
      "t": 92333.3333333335,
      "d": 166.66666666667152,
      "v": 90
    },
    {
      "midi": 58,
      "hit": false,
      "t": 92333.3333333335,
      "d": 166.66666666667152,
      "v": 90
    },
    {
      "midi": 64,
      "hit": false,
      "t": 92500.00000000017,
      "d": 166.66666666667152,
      "v": 90
    },
    {
      "midi": 55,
      "hit": false,
      "t": 92500.00000000017,
      "d": 166.66666666667152,
      "v": 90
    },
    {
      "midi": 67,
      "hit": false,
      "t": 92666.66666666685,
      "d": 166.66666666667152,
      "v": 90
    },
    {
      "midi": 58,
      "hit": false,
      "t": 92666.66666666685,
      "d": 166.66666666667152,
      "v": 90
    },
    {
      "midi": 64,
      "hit": false,
      "t": 92833.33333333352,
      "d": 166.66666666667152,
      "v": 90
    },
    {
      "midi": 55,
      "hit": false,
      "t": 92833.33333333352,
      "d": 166.66666666667152,
      "v": 90
    },
    {
      "midi": 67,
      "hit": false,
      "t": 93000.00000000019,
      "d": 166.66666666667152,
      "v": 90
    },
    {
      "midi": 58,
      "hit": false,
      "t": 93000.00000000019,
      "d": 166.66666666667152,
      "v": 90
    },
    {
      "midi": 70,
      "hit": false,
      "t": 93166.66666666686,
      "d": 166.66666666667152,
      "v": 90
    },
    {
      "midi": 61,
      "hit": false,
      "t": 93166.66666666686,
      "d": 166.66666666667152,
      "v": 90
    },
    {
      "midi": 67,
      "hit": false,
      "t": 93333.33333333353,
      "d": 166.66666666667152,
      "v": 90
    },
    {
      "midi": 58,
      "hit": false,
      "t": 93333.33333333353,
      "d": 166.66666666667152,
      "v": 90
    },
    {
      "midi": 64,
      "hit": false,
      "t": 93500.0000000002,
      "d": 166.66666666667152,
      "v": 90
    },
    {
      "midi": 55,
      "hit": false,
      "t": 93500.0000000002,
      "d": 166.66666666667152,
      "v": 90
    },
    {
      "midi": 67,
      "hit": false,
      "t": 93666.66666666688,
      "d": 166.66666666667152,
      "v": 90
    },
    {
      "midi": 58,
      "hit": false,
      "t": 93666.66666666688,
      "d": 166.66666666667152,
      "v": 90
    },
    {
      "midi": 64,
      "hit": false,
      "t": 93833.33333333355,
      "d": 166.66666666667152,
      "v": 90
    },
    {
      "midi": 55,
      "hit": false,
      "t": 93833.33333333355,
      "d": 166.66666666667152,
      "v": 90
    },
    {
      "midi": 61,
      "hit": false,
      "t": 94000.00000000022,
      "d": 166.66666666667152,
      "v": 90
    },
    {
      "midi": 52,
      "hit": false,
      "t": 94000.00000000022,
      "d": 166.66666666667152,
      "v": 90
    },
    {
      "midi": 64,
      "hit": false,
      "t": 94166.66666666689,
      "d": 166.66666666667152,
      "v": 90
    },
    {
      "midi": 55,
      "hit": false,
      "t": 94166.66666666689,
      "d": 166.66666666667152,
      "v": 90
    },
    {
      "midi": 61,
      "hit": false,
      "t": 94333.33333333356,
      "d": 166.66666666667152,
      "v": 90
    },
    {
      "midi": 52,
      "hit": false,
      "t": 94333.33333333356,
      "d": 166.66666666667152,
      "v": 90
    },
    {
      "midi": 58,
      "hit": false,
      "t": 94500.00000000023,
      "d": 166.66666666667152,
      "v": 90
    },
    {
      "midi": 49,
      "hit": false,
      "t": 94500.00000000023,
      "d": 166.66666666667152,
      "v": 90
    },
    {
      "midi": 61,
      "hit": false,
      "t": 94666.6666666669,
      "d": 166.66666666667152,
      "v": 90
    },
    {
      "midi": 52,
      "hit": false,
      "t": 94666.6666666669,
      "d": 166.66666666667152,
      "v": 90
    },
    {
      "midi": 58,
      "hit": false,
      "t": 94833.33333333358,
      "d": 166.66666666667152,
      "v": 90
    },
    {
      "midi": 49,
      "hit": false,
      "t": 94833.33333333358,
      "d": 166.66666666667152,
      "v": 90
    },
    {
      "midi": 61,
      "hit": false,
      "t": 95000.00000000025,
      "d": 166.66666666667152,
      "v": 90
    },
    {
      "midi": 52,
      "hit": false,
      "t": 95000.00000000025,
      "d": 166.66666666667152,
      "v": 90
    },
    {
      "midi": 64,
      "hit": false,
      "t": 95166.66666666692,
      "d": 166.66666666667152,
      "v": 90
    },
    {
      "midi": 55,
      "hit": false,
      "t": 95166.66666666692,
      "d": 166.66666666667152,
      "v": 90
    },
    {
      "midi": 61,
      "hit": false,
      "t": 95333.33333333359,
      "d": 166.66666666667152,
      "v": 90
    },
    {
      "midi": 52,
      "hit": false,
      "t": 95333.33333333359,
      "d": 166.66666666667152,
      "v": 90
    },
    {
      "midi": 58,
      "hit": false,
      "t": 95500.00000000026,
      "d": 166.66666666667152,
      "v": 90
    },
    {
      "midi": 49,
      "hit": false,
      "t": 95500.00000000026,
      "d": 166.66666666667152,
      "v": 90
    },
    {
      "midi": 61,
      "hit": false,
      "t": 95666.66666666693,
      "d": 166.66666666667152,
      "v": 90
    },
    {
      "midi": 52,
      "hit": false,
      "t": 95666.66666666693,
      "d": 166.66666666667152,
      "v": 90
    },
    {
      "midi": 58,
      "hit": false,
      "t": 95833.3333333336,
      "d": 166.66666666667152,
      "v": 90
    },
    {
      "midi": 49,
      "hit": false,
      "t": 95833.3333333336,
      "d": 166.66666666667152,
      "v": 90
    },
    {
      "midi": 61,
      "hit": false,
      "t": 96000.00000000028,
      "d": 166.66666666667152,
      "v": 90
    },
    {
      "midi": 52,
      "hit": false,
      "t": 96000.00000000028,
      "d": 166.66666666667152,
      "v": 90
    },
    {
      "midi": 64,
      "hit": false,
      "t": 96166.66666666695,
      "d": 166.66666666667152,
      "v": 90
    },
    {
      "midi": 55,
      "hit": false,
      "t": 96166.66666666695,
      "d": 166.66666666667152,
      "v": 90
    },
    {
      "midi": 61,
      "hit": false,
      "t": 96333.33333333362,
      "d": 166.66666666667152,
      "v": 90
    },
    {
      "midi": 52,
      "hit": false,
      "t": 96333.33333333362,
      "d": 166.66666666667152,
      "v": 90
    },
    {
      "midi": 58,
      "hit": false,
      "t": 96500.00000000029,
      "d": 166.66666666667152,
      "v": 90
    },
    {
      "midi": 49,
      "hit": false,
      "t": 96500.00000000029,
      "d": 166.66666666667152,
      "v": 90
    },
    {
      "midi": 61,
      "hit": false,
      "t": 96666.66666666696,
      "d": 166.66666666667152,
      "v": 90
    },
    {
      "midi": 52,
      "hit": false,
      "t": 96666.66666666696,
      "d": 166.66666666667152,
      "v": 90
    },
    {
      "midi": 58,
      "hit": false,
      "t": 96833.33333333363,
      "d": 166.66666666667152,
      "v": 90
    },
    {
      "midi": 49,
      "hit": false,
      "t": 96833.33333333363,
      "d": 166.66666666667152,
      "v": 90
    },
    {
      "midi": 61,
      "hit": false,
      "t": 97000.0000000003,
      "d": 166.66666666667152,
      "v": 90
    },
    {
      "midi": 52,
      "hit": false,
      "t": 97000.0000000003,
      "d": 166.66666666667152,
      "v": 90
    },
    {
      "midi": 64,
      "hit": false,
      "t": 97166.66666666698,
      "d": 166.66666666667152,
      "v": 90
    },
    {
      "midi": 55,
      "hit": false,
      "t": 97166.66666666698,
      "d": 166.66666666667152,
      "v": 90
    },
    {
      "midi": 61,
      "hit": false,
      "t": 97333.33333333365,
      "d": 166.66666666667152,
      "v": 90
    },
    {
      "midi": 52,
      "hit": false,
      "t": 97333.33333333365,
      "d": 166.66666666667152,
      "v": 90
    },
    {
      "midi": 58,
      "hit": false,
      "t": 97500.00000000032,
      "d": 166.66666666667152,
      "v": 90
    },
    {
      "midi": 49,
      "hit": false,
      "t": 97500.00000000032,
      "d": 166.66666666667152,
      "v": 90
    },
    {
      "midi": 61,
      "hit": false,
      "t": 97666.66666666699,
      "d": 166.66666666667152,
      "v": 90
    },
    {
      "midi": 52,
      "hit": false,
      "t": 97666.66666666699,
      "d": 166.66666666667152,
      "v": 90
    },
    {
      "midi": 58,
      "hit": false,
      "t": 97833.33333333366,
      "d": 166.66666666667152,
      "v": 90
    },
    {
      "midi": 49,
      "hit": false,
      "t": 97833.33333333366,
      "d": 166.66666666667152,
      "v": 90
    },
    {
      "midi": 61,
      "hit": false,
      "t": 98000.00000000033,
      "d": 166.66666666667152,
      "v": 90
    },
    {
      "midi": 52,
      "hit": false,
      "t": 98000.00000000033,
      "d": 166.66666666667152,
      "v": 90
    },
    {
      "midi": 64,
      "hit": false,
      "t": 98166.666666667,
      "d": 166.66666666667152,
      "v": 90
    },
    {
      "midi": 55,
      "hit": false,
      "t": 98166.666666667,
      "d": 166.66666666667152,
      "v": 90
    },
    {
      "midi": 61,
      "hit": false,
      "t": 98333.33333333368,
      "d": 166.66666666667152,
      "v": 90
    },
    {
      "midi": 52,
      "hit": false,
      "t": 98333.33333333368,
      "d": 166.66666666667152,
      "v": 90
    },
    {
      "midi": 64,
      "hit": false,
      "t": 98500.00000000035,
      "d": 166.66666666667152,
      "v": 90
    },
    {
      "midi": 55,
      "hit": false,
      "t": 98500.00000000035,
      "d": 166.66666666667152,
      "v": 90
    },
    {
      "midi": 67,
      "hit": false,
      "t": 98666.66666666702,
      "d": 166.66666666667152,
      "v": 90
    },
    {
      "midi": 58,
      "hit": false,
      "t": 98666.66666666702,
      "d": 166.66666666667152,
      "v": 90
    },
    {
      "midi": 64,
      "hit": false,
      "t": 98833.33333333369,
      "d": 166.66666666667152,
      "v": 90
    },
    {
      "midi": 55,
      "hit": false,
      "t": 98833.33333333369,
      "d": 166.66666666667152,
      "v": 90
    },
    {
      "midi": 61,
      "hit": false,
      "t": 99000.00000000036,
      "d": 166.66666666667152,
      "v": 90
    },
    {
      "midi": 52,
      "hit": false,
      "t": 99000.00000000036,
      "d": 166.66666666667152,
      "v": 90
    },
    {
      "midi": 64,
      "hit": false,
      "t": 99166.66666666704,
      "d": 166.66666666667152,
      "v": 90
    },
    {
      "midi": 55,
      "hit": false,
      "t": 99166.66666666704,
      "d": 166.66666666667152,
      "v": 90
    },
    {
      "midi": 61,
      "hit": false,
      "t": 99333.3333333337,
      "d": 166.66666666667152,
      "v": 90
    },
    {
      "midi": 52,
      "hit": false,
      "t": 99333.3333333337,
      "d": 166.66666666667152,
      "v": 90
    },
    {
      "midi": 64,
      "hit": false,
      "t": 99500.00000000038,
      "d": 166.66666666667152,
      "v": 90
    },
    {
      "midi": 55,
      "hit": false,
      "t": 99500.00000000038,
      "d": 166.66666666667152,
      "v": 90
    },
    {
      "midi": 67,
      "hit": false,
      "t": 99666.66666666705,
      "d": 166.66666666667152,
      "v": 90
    },
    {
      "midi": 58,
      "hit": false,
      "t": 99666.66666666705,
      "d": 166.66666666667152,
      "v": 90
    },
    {
      "midi": 64,
      "hit": false,
      "t": 99833.33333333372,
      "d": 166.66666666667152,
      "v": 90
    },
    {
      "midi": 55,
      "hit": false,
      "t": 99833.33333333372,
      "d": 166.66666666667152,
      "v": 90
    },
    {
      "midi": 61,
      "hit": false,
      "t": 100000.0000000004,
      "d": 166.66666666667152,
      "v": 90
    },
    {
      "midi": 52,
      "hit": false,
      "t": 100000.0000000004,
      "d": 166.66666666667152,
      "v": 90
    },
    {
      "midi": 64,
      "hit": false,
      "t": 100166.66666666706,
      "d": 166.66666666667152,
      "v": 90
    },
    {
      "midi": 55,
      "hit": false,
      "t": 100166.66666666706,
      "d": 166.66666666667152,
      "v": 90
    },
    {
      "midi": 61,
      "hit": false,
      "t": 100333.33333333374,
      "d": 166.66666666667152,
      "v": 90
    },
    {
      "midi": 52,
      "hit": false,
      "t": 100333.33333333374,
      "d": 166.66666666667152,
      "v": 90
    },
    {
      "midi": 64,
      "hit": false,
      "t": 100500.00000000041,
      "d": 166.66666666667152,
      "v": 90
    },
    {
      "midi": 55,
      "hit": false,
      "t": 100500.00000000041,
      "d": 166.66666666667152,
      "v": 90
    },
    {
      "midi": 67,
      "hit": false,
      "t": 100666.66666666708,
      "d": 166.66666666667152,
      "v": 90
    },
    {
      "midi": 58,
      "hit": false,
      "t": 100666.66666666708,
      "d": 166.66666666667152,
      "v": 90
    },
    {
      "midi": 64,
      "hit": false,
      "t": 100833.33333333375,
      "d": 166.66666666667152,
      "v": 90
    },
    {
      "midi": 55,
      "hit": false,
      "t": 100833.33333333375,
      "d": 166.66666666667152,
      "v": 90
    },
    {
      "midi": 61,
      "hit": false,
      "t": 101000.00000000042,
      "d": 166.66666666667152,
      "v": 90
    },
    {
      "midi": 52,
      "hit": false,
      "t": 101000.00000000042,
      "d": 166.66666666667152,
      "v": 90
    },
    {
      "midi": 64,
      "hit": false,
      "t": 101166.6666666671,
      "d": 166.66666666667152,
      "v": 90
    },
    {
      "midi": 55,
      "hit": false,
      "t": 101166.6666666671,
      "d": 166.66666666667152,
      "v": 90
    },
    {
      "midi": 61,
      "hit": false,
      "t": 101333.33333333377,
      "d": 166.66666666667152,
      "v": 90
    },
    {
      "midi": 52,
      "hit": false,
      "t": 101333.33333333377,
      "d": 166.66666666667152,
      "v": 90
    },
    {
      "midi": 64,
      "hit": false,
      "t": 101500.00000000044,
      "d": 166.66666666667152,
      "v": 90
    },
    {
      "midi": 55,
      "hit": false,
      "t": 101500.00000000044,
      "d": 166.66666666667152,
      "v": 90
    },
    {
      "midi": 67,
      "hit": false,
      "t": 101666.66666666711,
      "d": 166.66666666667152,
      "v": 90
    },
    {
      "midi": 58,
      "hit": false,
      "t": 101666.66666666711,
      "d": 166.66666666667152,
      "v": 90
    },
    {
      "midi": 64,
      "hit": false,
      "t": 101833.33333333378,
      "d": 166.66666666667152,
      "v": 90
    },
    {
      "midi": 55,
      "hit": false,
      "t": 101833.33333333378,
      "d": 166.66666666667152,
      "v": 90
    },
    {
      "midi": 67,
      "hit": false,
      "t": 102000.00000000045,
      "d": 166.66666666667152,
      "v": 90
    },
    {
      "midi": 52,
      "hit": false,
      "t": 102000.00000000045,
      "d": 166.66666666667152,
      "v": 90
    },
    {
      "midi": 70,
      "hit": false,
      "t": 102166.66666666712,
      "d": 166.66666666667152,
      "v": 90
    },
    {
      "midi": 55,
      "hit": false,
      "t": 102166.66666666712,
      "d": 166.66666666667152,
      "v": 90
    },
    {
      "midi": 67,
      "hit": false,
      "t": 102333.3333333338,
      "d": 166.66666666667152,
      "v": 90
    },
    {
      "midi": 52,
      "hit": false,
      "t": 102333.3333333338,
      "d": 166.66666666667152,
      "v": 90
    },
    {
      "midi": 70,
      "hit": false,
      "t": 102500.00000000047,
      "d": 166.66666666667152,
      "v": 90
    },
    {
      "midi": 55,
      "hit": false,
      "t": 102500.00000000047,
      "d": 166.66666666667152,
      "v": 90
    },
    {
      "midi": 67,
      "hit": false,
      "t": 102666.66666666714,
      "d": 166.66666666667152,
      "v": 90
    },
    {
      "midi": 52,
      "hit": false,
      "t": 102666.66666666714,
      "d": 166.66666666667152,
      "v": 90
    },
    {
      "midi": 70,
      "hit": false,
      "t": 102833.33333333381,
      "d": 166.66666666667152,
      "v": 90
    },
    {
      "midi": 55,
      "hit": false,
      "t": 102833.33333333381,
      "d": 166.66666666667152,
      "v": 90
    },
    {
      "midi": 67,
      "hit": false,
      "t": 103000.00000000048,
      "d": 166.66666666667152,
      "v": 90
    },
    {
      "midi": 58,
      "hit": false,
      "t": 103000.00000000048,
      "d": 166.66666666667152,
      "v": 90
    },
    {
      "midi": 70,
      "hit": false,
      "t": 103166.66666666715,
      "d": 166.66666666667152,
      "v": 90
    },
    {
      "midi": 61,
      "hit": false,
      "t": 103166.66666666715,
      "d": 166.66666666667152,
      "v": 90
    },
    {
      "midi": 67,
      "hit": false,
      "t": 103333.33333333382,
      "d": 166.66666666667152,
      "v": 90
    },
    {
      "midi": 58,
      "hit": false,
      "t": 103333.33333333382,
      "d": 166.66666666667152,
      "v": 90
    },
    {
      "midi": 70,
      "hit": false,
      "t": 103500.0000000005,
      "d": 166.66666666667152,
      "v": 90
    },
    {
      "midi": 61,
      "hit": false,
      "t": 103500.0000000005,
      "d": 166.66666666667152,
      "v": 90
    },
    {
      "midi": 67,
      "hit": false,
      "t": 103666.66666666717,
      "d": 166.66666666667152,
      "v": 90
    },
    {
      "midi": 58,
      "hit": false,
      "t": 103666.66666666717,
      "d": 166.66666666667152,
      "v": 90
    },
    {
      "midi": 70,
      "hit": false,
      "t": 103833.33333333384,
      "d": 166.66666666667152,
      "v": 90
    },
    {
      "midi": 61,
      "hit": false,
      "t": 103833.33333333384,
      "d": 166.66666666667152,
      "v": 90
    },
    {
      "midi": 73,
      "hit": false,
      "t": 104000.00000000051,
      "d": 166.66666666667152,
      "v": 90
    },
    {
      "midi": 64,
      "hit": false,
      "t": 104000.00000000051,
      "d": 166.66666666667152,
      "v": 90
    },
    {
      "midi": 70,
      "hit": false,
      "t": 104166.66666666718,
      "d": 166.66666666667152,
      "v": 90
    },
    {
      "midi": 61,
      "hit": false,
      "t": 104166.66666666718,
      "d": 166.66666666667152,
      "v": 90
    },
    {
      "midi": 73,
      "hit": false,
      "t": 104333.33333333385,
      "d": 166.66666666667152,
      "v": 90
    },
    {
      "midi": 64,
      "hit": false,
      "t": 104333.33333333385,
      "d": 166.66666666667152,
      "v": 90
    },
    {
      "midi": 76,
      "hit": false,
      "t": 104500.00000000052,
      "d": 166.66666666667152,
      "v": 90
    },
    {
      "midi": 61,
      "hit": false,
      "t": 104500.00000000052,
      "d": 166.66666666667152,
      "v": 90
    },
    {
      "midi": 73,
      "hit": false,
      "t": 104666.6666666672,
      "d": 166.66666666667152,
      "v": 90
    },
    {
      "midi": 64,
      "hit": false,
      "t": 104666.6666666672,
      "d": 166.66666666667152,
      "v": 90
    },
    {
      "midi": 76,
      "hit": false,
      "t": 104833.33333333387,
      "d": 166.66666666667152,
      "v": 90
    },
    {
      "midi": 61,
      "hit": false,
      "t": 104833.33333333387,
      "d": 166.66666666667152,
      "v": 90
    },
    {
      "midi": 73,
      "hit": false,
      "t": 105000.00000000054,
      "d": 166.66666666667152,
      "v": 90
    },
    {
      "midi": 64,
      "hit": false,
      "t": 105000.00000000054,
      "d": 166.66666666667152,
      "v": 90
    },
    {
      "midi": 76,
      "hit": false,
      "t": 105166.66666666721,
      "d": 166.66666666667152,
      "v": 90
    },
    {
      "midi": 61,
      "hit": false,
      "t": 105166.66666666721,
      "d": 166.66666666667152,
      "v": 90
    },
    {
      "midi": 73,
      "hit": false,
      "t": 105333.33333333388,
      "d": 166.66666666667152,
      "v": 90
    },
    {
      "midi": 64,
      "hit": false,
      "t": 105333.33333333388,
      "d": 166.66666666667152,
      "v": 90
    },
    {
      "midi": 76,
      "hit": false,
      "t": 105500.00000000055,
      "d": 166.66666666667152,
      "v": 90
    },
    {
      "midi": 61,
      "hit": false,
      "t": 105500.00000000055,
      "d": 166.66666666667152,
      "v": 90
    },
    {
      "midi": 73,
      "hit": false,
      "t": 105666.66666666722,
      "d": 166.66666666667152,
      "v": 90
    },
    {
      "midi": 64,
      "hit": false,
      "t": 105666.66666666722,
      "d": 166.66666666667152,
      "v": 90
    },
    {
      "midi": 76,
      "hit": false,
      "t": 105833.3333333339,
      "d": 166.66666666667152,
      "v": 90
    },
    {
      "midi": 61,
      "hit": false,
      "t": 105833.3333333339,
      "d": 166.66666666667152,
      "v": 90
    },
    {
      "midi": 61,
      "hit": false,
      "t": 106000.00000000057,
      "d": 1000,
      "v": 90
    },
    {
      "midi": 64,
      "hit": false,
      "t": 106000.00000000057,
      "d": 1000,
      "v": 90
    },
    {
      "midi": 69,
      "hit": false,
      "t": 106000.00000000057,
      "d": 1000,
      "v": 90
    },
    {
      "midi": 73,
      "hit": false,
      "t": 106000.00000000057,
      "d": 1000,
      "v": 90
    },
    {
      "midi": 76,
      "hit": false,
      "t": 106000.00000000057,
      "d": 1000,
      "v": 90
    },
    {
      "midi": 81,
      "hit": false,
      "t": 106000.00000000057,
      "d": 1000,
      "v": 90
    },
    {
      "midi": 57,
      "hit": false,
      "t": 106000.00000000057,
      "d": 1000,
      "v": 90
    },
    {
      "midi": 62,
      "hit": false,
      "t": 107000.00000000057,
      "d": 1000,
      "v": 90
    },
    {
      "midi": 65,
      "hit": false,
      "t": 107000.00000000057,
      "d": 1000,
      "v": 90
    },
    {
      "midi": 69,
      "hit": false,
      "t": 107000.00000000057,
      "d": 1000,
      "v": 90
    },
    {
      "midi": 74,
      "hit": false,
      "t": 107000.00000000057,
      "d": 1000,
      "v": 90
    },
    {
      "midi": 77,
      "hit": false,
      "t": 107000.00000000057,
      "d": 1000,
      "v": 90
    },
    {
      "midi": 81,
      "hit": false,
      "t": 107000.00000000057,
      "d": 1000,
      "v": 90
    },
    {
      "midi": 57,
      "hit": false,
      "t": 107000.00000000057,
      "d": 1000,
      "v": 90
    },
    {
      "midi": 62,
      "hit": false,
      "t": 108000.00000000057,
      "d": 1000,
      "v": 90
    },
    {
      "midi": 67,
      "hit": false,
      "t": 108000.00000000057,
      "d": 1000,
      "v": 90
    },
    {
      "midi": 70,
      "hit": false,
      "t": 108000.00000000057,
      "d": 1000,
      "v": 90
    },
    {
      "midi": 74,
      "hit": false,
      "t": 108000.00000000057,
      "d": 1000,
      "v": 90
    },
    {
      "midi": 79,
      "hit": false,
      "t": 108000.00000000057,
      "d": 1000,
      "v": 90
    },
    {
      "midi": 61,
      "hit": false,
      "t": 110000.00000000057,
      "d": 1000,
      "v": 90
    },
    {
      "midi": 64,
      "hit": false,
      "t": 110000.00000000057,
      "d": 1000,
      "v": 90
    },
    {
      "midi": 69,
      "hit": false,
      "t": 110000.00000000057,
      "d": 1000,
      "v": 90
    },
    {
      "midi": 73,
      "hit": false,
      "t": 110000.00000000057,
      "d": 1000,
      "v": 90
    },
    {
      "midi": 76,
      "hit": false,
      "t": 110000.00000000057,
      "d": 1000,
      "v": 90
    },
    {
      "midi": 79,
      "hit": false,
      "t": 110000.00000000057,
      "d": 1000,
      "v": 90
    },
    {
      "midi": 64,
      "hit": false,
      "t": 113750.00000000057,
      "d": 250,
      "v": 90
    },
    {
      "midi": 69,
      "hit": false,
      "t": 113750.00000000057,
      "d": 250,
      "v": 90
    },
    {
      "midi": 73,
      "hit": false,
      "t": 113750.00000000057,
      "d": 250,
      "v": 90
    },
    {
      "midi": 57,
      "hit": false,
      "t": 113750.00000000057,
      "d": 250,
      "v": 90
    },
    {
      "midi": 62,
      "hit": false,
      "t": 114000.00000000057,
      "d": 500,
      "v": 90
    },
    {
      "midi": 65,
      "hit": false,
      "t": 114000.00000000057,
      "d": 500,
      "v": 90
    },
    {
      "midi": 69,
      "hit": false,
      "t": 114000.00000000057,
      "d": 500,
      "v": 90
    },
    {
      "midi": 74,
      "hit": false,
      "t": 114000.00000000057,
      "d": 500,
      "v": 90
    },
    {
      "midi": 57,
      "hit": false,
      "t": 114000.00000000057,
      "d": 500,
      "v": 90
    },
    {
      "midi": 65,
      "hit": false,
      "t": 114500.00000000057,
      "d": 500,
      "v": 90
    },
    {
      "midi": 62,
      "hit": false,
      "t": 114500.00000000057,
      "d": 1000,
      "v": 90
    },
    {
      "midi": 57,
      "hit": false,
      "t": 114500.00000000057,
      "d": 1000,
      "v": 90
    },
    {
      "midi": 64,
      "hit": false,
      "t": 115000.00000000057,
      "d": 500,
      "v": 90
    },
    {
      "midi": 61,
      "hit": false,
      "t": 115500.00000000057,
      "d": 500,
      "v": 90
    },
    {
      "midi": 55,
      "hit": false,
      "t": 115750.00000000057,
      "d": 250,
      "v": 90
    },
    {
      "midi": 62,
      "hit": false,
      "t": 116000.00000000057,
      "d": 2000,
      "v": 90
    },
    {
      "midi": 57,
      "hit": false,
      "t": 116000.00000000057,
      "d": 500,
      "v": 90
    },
    {
      "midi": 50,
      "hit": false,
      "t": 116000.00000000057,
      "d": 2000,
      "v": 90
    },
    {
      "midi": 53,
      "hit": false,
      "t": 116500.00000000057,
      "d": 250,
      "v": 90
    },
    {
      "midi": 52,
      "hit": false,
      "t": 116750.00000000057,
      "d": 250,
      "v": 90
    },
    {
      "midi": 53,
      "hit": false,
      "t": 117000.00000000057,
      "d": 1000,
      "v": 90
    },
    {
      "midi": 69,
      "hit": false,
      "t": 118250.00000000057,
      "d": 250,
      "v": 90
    },
    {
      "midi": 67,
      "hit": false,
      "t": 118500.00000000057,
      "d": 250,
      "v": 90
    },
    {
      "midi": 69,
      "hit": false,
      "t": 118750.00000000057,
      "d": 250,
      "v": 90
    },
    {
      "midi": 65,
      "hit": false,
      "t": 119000.00000000057,
      "d": 250,
      "v": 90
    },
    {
      "midi": 69,
      "hit": false,
      "t": 119250.00000000057,
      "d": 250,
      "v": 90
    },
    {
      "midi": 64,
      "hit": false,
      "t": 119500.00000000057,
      "d": 250,
      "v": 90
    },
    {
      "midi": 69,
      "hit": false,
      "t": 119750.00000000057,
      "d": 250,
      "v": 90
    },
    {
      "midi": 62,
      "hit": false,
      "t": 120000.00000000057,
      "d": 250,
      "v": 90
    },
    {
      "midi": 69,
      "hit": false,
      "t": 120250.00000000057,
      "d": 250,
      "v": 90
    },
    {
      "midi": 61,
      "hit": false,
      "t": 120500.00000000057,
      "d": 250,
      "v": 90
    },
    {
      "midi": 69,
      "hit": false,
      "t": 120750.00000000057,
      "d": 250,
      "v": 90
    },
    {
      "midi": 62,
      "hit": false,
      "t": 121000.00000000057,
      "d": 250,
      "v": 90
    },
    {
      "midi": 69,
      "hit": false,
      "t": 121250.00000000057,
      "d": 250,
      "v": 90
    },
    {
      "midi": 64,
      "hit": false,
      "t": 121500.00000000057,
      "d": 250,
      "v": 90
    },
    {
      "midi": 69,
      "hit": false,
      "t": 121750.00000000057,
      "d": 250,
      "v": 90
    },
    {
      "midi": 65,
      "hit": false,
      "t": 122000.00000000057,
      "d": 250,
      "v": 90
    },
    {
      "midi": 69,
      "hit": false,
      "t": 122250.00000000057,
      "d": 250,
      "v": 90
    },
    {
      "midi": 57,
      "hit": false,
      "t": 122500.00000000057,
      "d": 250,
      "v": 90
    },
    {
      "midi": 69,
      "hit": false,
      "t": 122750.00000000057,
      "d": 250,
      "v": 90
    },
    {
      "midi": 59,
      "hit": false,
      "t": 123000.00000000057,
      "d": 250,
      "v": 90
    },
    {
      "midi": 69,
      "hit": false,
      "t": 123250.00000000057,
      "d": 250,
      "v": 90
    },
    {
      "midi": 61,
      "hit": false,
      "t": 123500.00000000057,
      "d": 250,
      "v": 90
    },
    {
      "midi": 69,
      "hit": false,
      "t": 123750.00000000057,
      "d": 250,
      "v": 90
    },
    {
      "midi": 62,
      "hit": false,
      "t": 124000.00000000057,
      "d": 250,
      "v": 90
    },
    {
      "midi": 69,
      "hit": false,
      "t": 124250.00000000057,
      "d": 250,
      "v": 90
    },
    {
      "midi": 61,
      "hit": false,
      "t": 124500.00000000057,
      "d": 250,
      "v": 90
    },
    {
      "midi": 69,
      "hit": false,
      "t": 124750.00000000057,
      "d": 250,
      "v": 90
    },
    {
      "midi": 62,
      "hit": false,
      "t": 125000.00000000057,
      "d": 250,
      "v": 90
    },
    {
      "midi": 69,
      "hit": false,
      "t": 125250.00000000057,
      "d": 250,
      "v": 90
    },
    {
      "midi": 64,
      "hit": false,
      "t": 125500.00000000057,
      "d": 250,
      "v": 90
    },
    {
      "midi": 69,
      "hit": false,
      "t": 125750.00000000057,
      "d": 250,
      "v": 90
    },
    {
      "midi": 65,
      "hit": false,
      "t": 126000.00000000057,
      "d": 500,
      "v": 90
    },
    {
      "midi": 74,
      "hit": false,
      "t": 126250.00000000057,
      "d": 250,
      "v": 90
    },
    {
      "midi": 72,
      "hit": false,
      "t": 126500.00000000057,
      "d": 250,
      "v": 90
    },
    {
      "midi": 66,
      "hit": false,
      "t": 126500.00000000057,
      "d": 500,
      "v": 90
    },
    {
      "midi": 74,
      "hit": false,
      "t": 126750.00000000057,
      "d": 250,
      "v": 90
    },
    {
      "midi": 70,
      "hit": false,
      "t": 127000.00000000057,
      "d": 250,
      "v": 90
    },
    {
      "midi": 67,
      "hit": false,
      "t": 127000.00000000057,
      "d": 500,
      "v": 90
    },
    {
      "midi": 74,
      "hit": false,
      "t": 127250.00000000057,
      "d": 250,
      "v": 90
    },
    {
      "midi": 69,
      "hit": false,
      "t": 127500.00000000057,
      "d": 250,
      "v": 90
    },
    {
      "midi": 60,
      "hit": false,
      "t": 127500.00000000057,
      "d": 500,
      "v": 90
    },
    {
      "midi": 74,
      "hit": false,
      "t": 127750.00000000057,
      "d": 250,
      "v": 90
    },
    {
      "midi": 67,
      "hit": false,
      "t": 128000.00000000057,
      "d": 250,
      "v": 90
    },
    {
      "midi": 58,
      "hit": false,
      "t": 128000.00000000057,
      "d": 500,
      "v": 90
    },
    {
      "midi": 74,
      "hit": false,
      "t": 128250.00000000057,
      "d": 250,
      "v": 90
    },
    {
      "midi": 66,
      "hit": false,
      "t": 128500.00000000057,
      "d": 250,
      "v": 90
    },
    {
      "midi": 57,
      "hit": false,
      "t": 128500.00000000057,
      "d": 500,
      "v": 90
    },
    {
      "midi": 74,
      "hit": false,
      "t": 128750.00000000057,
      "d": 250,
      "v": 90
    },
    {
      "midi": 67,
      "hit": false,
      "t": 129000.00000000057,
      "d": 250,
      "v": 90
    },
    {
      "midi": 58,
      "hit": false,
      "t": 129000.00000000057,
      "d": 500,
      "v": 90
    },
    {
      "midi": 74,
      "hit": false,
      "t": 129250.00000000057,
      "d": 250,
      "v": 90
    },
    {
      "midi": 69,
      "hit": false,
      "t": 129500.00000000057,
      "d": 250,
      "v": 90
    },
    {
      "midi": 60,
      "hit": false,
      "t": 129500.00000000057,
      "d": 500,
      "v": 90
    },
    {
      "midi": 74,
      "hit": false,
      "t": 129750.00000000057,
      "d": 250,
      "v": 90
    },
    {
      "midi": 70,
      "hit": false,
      "t": 130000.00000000057,
      "d": 250,
      "v": 90
    },
    {
      "midi": 62,
      "hit": false,
      "t": 130000.00000000057,
      "d": 500,
      "v": 90
    },
    {
      "midi": 74,
      "hit": false,
      "t": 130250.00000000057,
      "d": 250,
      "v": 90
    },
    {
      "midi": 62,
      "hit": false,
      "t": 130500.00000000057,
      "d": 250,
      "v": 90
    },
    {
      "midi": 54,
      "hit": false,
      "t": 130500.00000000057,
      "d": 500,
      "v": 90
    },
    {
      "midi": 74,
      "hit": false,
      "t": 130750.00000000057,
      "d": 250,
      "v": 90
    },
    {
      "midi": 64,
      "hit": false,
      "t": 131000.00000000057,
      "d": 250.00000000001455,
      "v": 90
    },
    {
      "midi": 55,
      "hit": false,
      "t": 131000.00000000057,
      "d": 500.00000000001455,
      "v": 90
    },
    {
      "midi": 74,
      "hit": false,
      "t": 131250.00000000058,
      "d": 250,
      "v": 90
    },
    {
      "midi": 66,
      "hit": false,
      "t": 131500.00000000058,
      "d": 250,
      "v": 90
    },
    {
      "midi": 57,
      "hit": false,
      "t": 131500.00000000058,
      "d": 500,
      "v": 90
    },
    {
      "midi": 74,
      "hit": false,
      "t": 131750.00000000058,
      "d": 250,
      "v": 90
    },
    {
      "midi": 67,
      "hit": false,
      "t": 132000.00000000058,
      "d": 250,
      "v": 90
    },
    {
      "midi": 58,
      "hit": false,
      "t": 132000.00000000058,
      "d": 500,
      "v": 90
    },
    {
      "midi": 74,
      "hit": false,
      "t": 132250.00000000058,
      "d": 250,
      "v": 90
    },
    {
      "midi": 66,
      "hit": false,
      "t": 132500.00000000058,
      "d": 250,
      "v": 90
    },
    {
      "midi": 57,
      "hit": false,
      "t": 132500.00000000058,
      "d": 500,
      "v": 90
    },
    {
      "midi": 74,
      "hit": false,
      "t": 132750.00000000058,
      "d": 250,
      "v": 90
    },
    {
      "midi": 67,
      "hit": false,
      "t": 133000.00000000058,
      "d": 250,
      "v": 90
    },
    {
      "midi": 58,
      "hit": false,
      "t": 133000.00000000058,
      "d": 500,
      "v": 90
    },
    {
      "midi": 74,
      "hit": false,
      "t": 133250.00000000058,
      "d": 250,
      "v": 90
    },
    {
      "midi": 69,
      "hit": false,
      "t": 133500.00000000058,
      "d": 250,
      "v": 90
    },
    {
      "midi": 54,
      "hit": false,
      "t": 133500.00000000058,
      "d": 500,
      "v": 90
    },
    {
      "midi": 74,
      "hit": false,
      "t": 133750.00000000058,
      "d": 250,
      "v": 90
    },
    {
      "midi": 70,
      "hit": false,
      "t": 134000.00000000058,
      "d": 500,
      "v": 90
    },
    {
      "midi": 55,
      "hit": false,
      "t": 134000.00000000058,
      "d": 250,
      "v": 90
    },
    {
      "midi": 67,
      "hit": false,
      "t": 134250.00000000058,
      "d": 250,
      "v": 90
    },
    {
      "midi": 74,
      "hit": false,
      "t": 134500.00000000058,
      "d": 500,
      "v": 90
    },
    {
      "midi": 55,
      "hit": false,
      "t": 134500.00000000058,
      "d": 250,
      "v": 90
    },
    {
      "midi": 67,
      "hit": false,
      "t": 134750.00000000058,
      "d": 250,
      "v": 90
    },
    {
      "midi": 70,
      "hit": false,
      "t": 135000.00000000058,
      "d": 500,
      "v": 90
    },
    {
      "midi": 62,
      "hit": false,
      "t": 135000.00000000058,
      "d": 250,
      "v": 90
    },
    {
      "midi": 67,
      "hit": false,
      "t": 135250.00000000058,
      "d": 250,
      "v": 90
    },
    {
      "midi": 74,
      "hit": false,
      "t": 135500.00000000058,
      "d": 500,
      "v": 90
    },
    {
      "midi": 62,
      "hit": false,
      "t": 135500.00000000058,
      "d": 250,
      "v": 90
    },
    {
      "midi": 67,
      "hit": false,
      "t": 135750.00000000058,
      "d": 250,
      "v": 90
    },
    {
      "midi": 75,
      "hit": false,
      "t": 136000.00000000058,
      "d": 500,
      "v": 90
    },
    {
      "midi": 60,
      "hit": false,
      "t": 136000.00000000058,
      "d": 250,
      "v": 90
    },
    {
      "midi": 63,
      "hit": false,
      "t": 136250.00000000058,
      "d": 250,
      "v": 90
    },
    {
      "midi": 67,
      "hit": false,
      "t": 136500.00000000058,
      "d": 500,
      "v": 90
    },
    {
      "midi": 60,
      "hit": false,
      "t": 136500.00000000058,
      "d": 250,
      "v": 90
    },
    {
      "midi": 63,
      "hit": false,
      "t": 136750.00000000058,
      "d": 250,
      "v": 90
    },
    {
      "midi": 75,
      "hit": false,
      "t": 137000.00000000058,
      "d": 500,
      "v": 90
    },
    {
      "midi": 60,
      "hit": false,
      "t": 137000.00000000058,
      "d": 250,
      "v": 90
    },
    {
      "midi": 63,
      "hit": false,
      "t": 137250.00000000058,
      "d": 250,
      "v": 90
    },
    {
      "midi": 67,
      "hit": false,
      "t": 137500.00000000058,
      "d": 500,
      "v": 90
    },
    {
      "midi": 60,
      "hit": false,
      "t": 137500.00000000058,
      "d": 250,
      "v": 90
    },
    {
      "midi": 63,
      "hit": false,
      "t": 137750.00000000058,
      "d": 250,
      "v": 90
    },
    {
      "midi": 72,
      "hit": false,
      "t": 138000.00000000058,
      "d": 500,
      "v": 90
    },
    {
      "midi": 60,
      "hit": false,
      "t": 138000.00000000058,
      "d": 250,
      "v": 90
    },
    {
      "midi": 65,
      "hit": false,
      "t": 138250.00000000058,
      "d": 250,
      "v": 90
    },
    {
      "midi": 69,
      "hit": false,
      "t": 138500.00000000058,
      "d": 500,
      "v": 90
    },
    {
      "midi": 60,
      "hit": false,
      "t": 138500.00000000058,
      "d": 250,
      "v": 90
    },
    {
      "midi": 65,
      "hit": false,
      "t": 138750.00000000058,
      "d": 250,
      "v": 90
    },
    {
      "midi": 72,
      "hit": false,
      "t": 139000.00000000058,
      "d": 500,
      "v": 90
    },
    {
      "midi": 60,
      "hit": false,
      "t": 139000.00000000058,
      "d": 250,
      "v": 90
    },
    {
      "midi": 65,
      "hit": false,
      "t": 139250.00000000058,
      "d": 250,
      "v": 90
    },
    {
      "midi": 69,
      "hit": false,
      "t": 139500.00000000058,
      "d": 500,
      "v": 90
    },
    {
      "midi": 60,
      "hit": false,
      "t": 139500.00000000058,
      "d": 250,
      "v": 90
    },
    {
      "midi": 65,
      "hit": false,
      "t": 139750.00000000058,
      "d": 250,
      "v": 90
    },
    {
      "midi": 74,
      "hit": false,
      "t": 140000.00000000058,
      "d": 500,
      "v": 90
    },
    {
      "midi": 58,
      "hit": false,
      "t": 140000.00000000058,
      "d": 250,
      "v": 90
    },
    {
      "midi": 62,
      "hit": false,
      "t": 140250.00000000058,
      "d": 250,
      "v": 90
    },
    {
      "midi": 65,
      "hit": false,
      "t": 140500.00000000058,
      "d": 500,
      "v": 90
    },
    {
      "midi": 58,
      "hit": false,
      "t": 140500.00000000058,
      "d": 250,
      "v": 90
    },
    {
      "midi": 62,
      "hit": false,
      "t": 140750.00000000058,
      "d": 250,
      "v": 90
    },
    {
      "midi": 74,
      "hit": false,
      "t": 141000.00000000058,
      "d": 500,
      "v": 90
    },
    {
      "midi": 58,
      "hit": false,
      "t": 141000.00000000058,
      "d": 250,
      "v": 90
    },
    {
      "midi": 62,
      "hit": false,
      "t": 141250.00000000058,
      "d": 250,
      "v": 90
    },
    {
      "midi": 65,
      "hit": false,
      "t": 141500.00000000058,
      "d": 500,
      "v": 90
    },
    {
      "midi": 58,
      "hit": false,
      "t": 141500.00000000058,
      "d": 250,
      "v": 90
    },
    {
      "midi": 62,
      "hit": false,
      "t": 141750.00000000058,
      "d": 250,
      "v": 90
    },
    {
      "midi": 70,
      "hit": false,
      "t": 142000.00000000058,
      "d": 500,
      "v": 90
    },
    {
      "midi": 58,
      "hit": false,
      "t": 142000.00000000058,
      "d": 250,
      "v": 90
    },
    {
      "midi": 64,
      "hit": false,
      "t": 142250.00000000058,
      "d": 250,
      "v": 90
    },
    {
      "midi": 67,
      "hit": false,
      "t": 142500.00000000058,
      "d": 500,
      "v": 90
    },
    {
      "midi": 58,
      "hit": false,
      "t": 142500.00000000058,
      "d": 250,
      "v": 90
    },
    {
      "midi": 64,
      "hit": false,
      "t": 142750.00000000058,
      "d": 250,
      "v": 90
    },
    {
      "midi": 70,
      "hit": false,
      "t": 143000.00000000058,
      "d": 500,
      "v": 90
    },
    {
      "midi": 58,
      "hit": false,
      "t": 143000.00000000058,
      "d": 250,
      "v": 90
    },
    {
      "midi": 64,
      "hit": false,
      "t": 143250.00000000058,
      "d": 250,
      "v": 90
    },
    {
      "midi": 67,
      "hit": false,
      "t": 143500.00000000058,
      "d": 500,
      "v": 90
    },
    {
      "midi": 58,
      "hit": false,
      "t": 143500.00000000058,
      "d": 250,
      "v": 90
    },
    {
      "midi": 64,
      "hit": false,
      "t": 143750.00000000058,
      "d": 250,
      "v": 90
    },
    {
      "midi": 73,
      "hit": false,
      "t": 144000.00000000058,
      "d": 500,
      "v": 90
    },
    {
      "midi": 57,
      "hit": false,
      "t": 144000.00000000058,
      "d": 250,
      "v": 90
    },
    {
      "midi": 61,
      "hit": false,
      "t": 144250.00000000058,
      "d": 250,
      "v": 90
    },
    {
      "midi": 64,
      "hit": false,
      "t": 144500.00000000058,
      "d": 500,
      "v": 90
    },
    {
      "midi": 57,
      "hit": false,
      "t": 144500.00000000058,
      "d": 250,
      "v": 90
    },
    {
      "midi": 61,
      "hit": false,
      "t": 144750.00000000058,
      "d": 250,
      "v": 90
    },
    {
      "midi": 73,
      "hit": false,
      "t": 145000.00000000058,
      "d": 500,
      "v": 90
    },
    {
      "midi": 57,
      "hit": false,
      "t": 145000.00000000058,
      "d": 250,
      "v": 90
    },
    {
      "midi": 61,
      "hit": false,
      "t": 145250.00000000058,
      "d": 250,
      "v": 90
    },
    {
      "midi": 64,
      "hit": false,
      "t": 145500.00000000058,
      "d": 500,
      "v": 90
    },
    {
      "midi": 57,
      "hit": false,
      "t": 145500.00000000058,
      "d": 250,
      "v": 90
    },
    {
      "midi": 61,
      "hit": false,
      "t": 145750.00000000058,
      "d": 250,
      "v": 90
    },
    {
      "midi": 69,
      "hit": false,
      "t": 146000.00000000058,
      "d": 500,
      "v": 90
    },
    {
      "midi": 53,
      "hit": false,
      "t": 146000.00000000058,
      "d": 250,
      "v": 90
    },
    {
      "midi": 62,
      "hit": false,
      "t": 146250.00000000058,
      "d": 250,
      "v": 90
    },
    {
      "midi": 65,
      "hit": false,
      "t": 146500.00000000058,
      "d": 500,
      "v": 90
    },
    {
      "midi": 53,
      "hit": false,
      "t": 146500.00000000058,
      "d": 250,
      "v": 90
    },
    {
      "midi": 62,
      "hit": false,
      "t": 146750.00000000058,
      "d": 250,
      "v": 90
    },
    {
      "midi": 69,
      "hit": false,
      "t": 147000.00000000058,
      "d": 500,
      "v": 90
    },
    {
      "midi": 53,
      "hit": false,
      "t": 147000.00000000058,
      "d": 250,
      "v": 90
    },
    {
      "midi": 62,
      "hit": false,
      "t": 147250.00000000058,
      "d": 250,
      "v": 90
    },
    {
      "midi": 65,
      "hit": false,
      "t": 147500.00000000058,
      "d": 500,
      "v": 90
    },
    {
      "midi": 53,
      "hit": false,
      "t": 147500.00000000058,
      "d": 250,
      "v": 90
    },
    {
      "midi": 62,
      "hit": false,
      "t": 147750.00000000058,
      "d": 250,
      "v": 90
    },
    {
      "midi": 67,
      "hit": false,
      "t": 148000.00000000058,
      "d": 500,
      "v": 90
    },
    {
      "midi": 52,
      "hit": false,
      "t": 148000.00000000058,
      "d": 250,
      "v": 90
    },
    {
      "midi": 58,
      "hit": false,
      "t": 148250.00000000058,
      "d": 250,
      "v": 90
    },
    {
      "midi": 61,
      "hit": false,
      "t": 148500.00000000058,
      "d": 500,
      "v": 90
    },
    {
      "midi": 52,
      "hit": false,
      "t": 148500.00000000058,
      "d": 250,
      "v": 90
    },
    {
      "midi": 58,
      "hit": false,
      "t": 148750.00000000058,
      "d": 250,
      "v": 90
    },
    {
      "midi": 67,
      "hit": false,
      "t": 149000.00000000058,
      "d": 500,
      "v": 90
    },
    {
      "midi": 52,
      "hit": false,
      "t": 149000.00000000058,
      "d": 250,
      "v": 90
    },
    {
      "midi": 58,
      "hit": false,
      "t": 149250.00000000058,
      "d": 250,
      "v": 90
    },
    {
      "midi": 61,
      "hit": false,
      "t": 149500.00000000058,
      "d": 500,
      "v": 90
    },
    {
      "midi": 52,
      "hit": false,
      "t": 149500.00000000058,
      "d": 250,
      "v": 90
    },
    {
      "midi": 58,
      "hit": false,
      "t": 149750.00000000058,
      "d": 250,
      "v": 90
    },
    {
      "midi": 65,
      "hit": false,
      "t": 150000.00000000058,
      "d": 500,
      "v": 90
    },
    {
      "midi": 50,
      "hit": false,
      "t": 150000.00000000058,
      "d": 250,
      "v": 90
    },
    {
      "midi": 57,
      "hit": false,
      "t": 150250.00000000058,
      "d": 250,
      "v": 90
    },
    {
      "midi": 62,
      "hit": false,
      "t": 150500.00000000058,
      "d": 500,
      "v": 90
    },
    {
      "midi": 50,
      "hit": false,
      "t": 150500.00000000058,
      "d": 250,
      "v": 90
    },
    {
      "midi": 57,
      "hit": false,
      "t": 150750.00000000058,
      "d": 250,
      "v": 90
    },
    {
      "midi": 65,
      "hit": false,
      "t": 151000.00000000058,
      "d": 500,
      "v": 90
    },
    {
      "midi": 50,
      "hit": false,
      "t": 151000.00000000058,
      "d": 250,
      "v": 90
    },
    {
      "midi": 57,
      "hit": false,
      "t": 151250.00000000058,
      "d": 250,
      "v": 90
    },
    {
      "midi": 62,
      "hit": false,
      "t": 151500.00000000058,
      "d": 500,
      "v": 90
    },
    {
      "midi": 50,
      "hit": false,
      "t": 151500.00000000058,
      "d": 250,
      "v": 90
    },
    {
      "midi": 57,
      "hit": false,
      "t": 151750.00000000058,
      "d": 250,
      "v": 90
    },
    {
      "midi": 64,
      "hit": false,
      "t": 152000.00000000058,
      "d": 500,
      "v": 90
    },
    {
      "midi": 52,
      "hit": false,
      "t": 152000.00000000058,
      "d": 250,
      "v": 90
    },
    {
      "midi": 55,
      "hit": false,
      "t": 152250.00000000058,
      "d": 250,
      "v": 90
    },
    {
      "midi": 58,
      "hit": false,
      "t": 152500.00000000058,
      "d": 500,
      "v": 90
    },
    {
      "midi": 52,
      "hit": false,
      "t": 152500.00000000058,
      "d": 250,
      "v": 90
    },
    {
      "midi": 55,
      "hit": false,
      "t": 152750.00000000058,
      "d": 250,
      "v": 90
    },
    {
      "midi": 64,
      "hit": false,
      "t": 153000.00000000058,
      "d": 500,
      "v": 90
    },
    {
      "midi": 52,
      "hit": false,
      "t": 153000.00000000058,
      "d": 250,
      "v": 90
    },
    {
      "midi": 55,
      "hit": false,
      "t": 153250.00000000058,
      "d": 250,
      "v": 90
    },
    {
      "midi": 58,
      "hit": false,
      "t": 153500.00000000058,
      "d": 750,
      "v": 90
    },
    {
      "midi": 52,
      "hit": false,
      "t": 153500.00000000058,
      "d": 250,
      "v": 90
    },
    {
      "midi": 55,
      "hit": false,
      "t": 153750.00000000058,
      "d": 250,
      "v": 90
    },
    {
      "midi": 53,
      "hit": false,
      "t": 154000.00000000058,
      "d": 500,
      "v": 90
    },
    {
      "midi": 57,
      "hit": false,
      "t": 154000.00000000058,
      "d": 500,
      "v": 90
    },
    {
      "midi": 81,
      "hit": false,
      "t": 154250.00000000058,
      "d": 250,
      "v": 90
    },
    {
      "midi": 79,
      "hit": false,
      "t": 154500.00000000058,
      "d": 250,
      "v": 90
    },
    {
      "midi": 52,
      "hit": false,
      "t": 154500.00000000058,
      "d": 500,
      "v": 90
    },
    {
      "midi": 57,
      "hit": false,
      "t": 154500.00000000058,
      "d": 500,
      "v": 90
    },
    {
      "midi": 81,
      "hit": false,
      "t": 154750.00000000058,
      "d": 250,
      "v": 90
    },
    {
      "midi": 77,
      "hit": false,
      "t": 155000.00000000058,
      "d": 250,
      "v": 90
    },
    {
      "midi": 50,
      "hit": false,
      "t": 155000.00000000058,
      "d": 500,
      "v": 90
    },
    {
      "midi": 57,
      "hit": false,
      "t": 155000.00000000058,
      "d": 500,
      "v": 90
    },
    {
      "midi": 81,
      "hit": false,
      "t": 155250.00000000058,
      "d": 250,
      "v": 90
    },
    {
      "midi": 76,
      "hit": false,
      "t": 155500.00000000058,
      "d": 250,
      "v": 90
    },
    {
      "midi": 55,
      "hit": false,
      "t": 155500.00000000058,
      "d": 500,
      "v": 90
    },
    {
      "midi": 57,
      "hit": false,
      "t": 155500.00000000058,
      "d": 500,
      "v": 90
    },
    {
      "midi": 81,
      "hit": false,
      "t": 155750.00000000058,
      "d": 250,
      "v": 90
    },
    {
      "midi": 74,
      "hit": false,
      "t": 156000.00000000058,
      "d": 250,
      "v": 90
    },
    {
      "midi": 53,
      "hit": false,
      "t": 156000.00000000058,
      "d": 500,
      "v": 90
    },
    {
      "midi": 57,
      "hit": false,
      "t": 156000.00000000058,
      "d": 500,
      "v": 90
    },
    {
      "midi": 81,
      "hit": false,
      "t": 156250.00000000058,
      "d": 250,
      "v": 90
    },
    {
      "midi": 73,
      "hit": false,
      "t": 156500.00000000058,
      "d": 250,
      "v": 90
    },
    {
      "midi": 52,
      "hit": false,
      "t": 156500.00000000058,
      "d": 500,
      "v": 90
    },
    {
      "midi": 57,
      "hit": false,
      "t": 156500.00000000058,
      "d": 500,
      "v": 90
    },
    {
      "midi": 81,
      "hit": false,
      "t": 156750.00000000058,
      "d": 250,
      "v": 90
    },
    {
      "midi": 74,
      "hit": false,
      "t": 157000.00000000058,
      "d": 250,
      "v": 90
    },
    {
      "midi": 53,
      "hit": false,
      "t": 157000.00000000058,
      "d": 500,
      "v": 90
    },
    {
      "midi": 57,
      "hit": false,
      "t": 157000.00000000058,
      "d": 500,
      "v": 90
    },
    {
      "midi": 81,
      "hit": false,
      "t": 157250.00000000058,
      "d": 250,
      "v": 90
    },
    {
      "midi": 76,
      "hit": false,
      "t": 157500.00000000058,
      "d": 250,
      "v": 90
    },
    {
      "midi": 49,
      "hit": false,
      "t": 157500.00000000058,
      "d": 500,
      "v": 90
    },
    {
      "midi": 57,
      "hit": false,
      "t": 157500.00000000058,
      "d": 500,
      "v": 90
    },
    {
      "midi": 81,
      "hit": false,
      "t": 157750.00000000058,
      "d": 250,
      "v": 90
    },
    {
      "midi": 77,
      "hit": false,
      "t": 158000.00000000058,
      "d": 250,
      "v": 90
    },
    {
      "midi": 50,
      "hit": false,
      "t": 158000.00000000058,
      "d": 500,
      "v": 90
    },
    {
      "midi": 57,
      "hit": false,
      "t": 158000.00000000058,
      "d": 500,
      "v": 90
    },
    {
      "midi": 81,
      "hit": false,
      "t": 158250.00000000058,
      "d": 250,
      "v": 90
    },
    {
      "midi": 69,
      "hit": false,
      "t": 158500.00000000058,
      "d": 250,
      "v": 90
    },
    {
      "midi": 49,
      "hit": false,
      "t": 158500.00000000058,
      "d": 500,
      "v": 90
    },
    {
      "midi": 57,
      "hit": false,
      "t": 158500.00000000058,
      "d": 500,
      "v": 90
    },
    {
      "midi": 81,
      "hit": false,
      "t": 158750.00000000058,
      "d": 250,
      "v": 90
    },
    {
      "midi": 71,
      "hit": false,
      "t": 159000.00000000058,
      "d": 250,
      "v": 90
    },
    {
      "midi": 50,
      "hit": false,
      "t": 159000.00000000058,
      "d": 500,
      "v": 90
    },
    {
      "midi": 57,
      "hit": false,
      "t": 159000.00000000058,
      "d": 500,
      "v": 90
    },
    {
      "midi": 81,
      "hit": false,
      "t": 159250.00000000058,
      "d": 250,
      "v": 90
    },
    {
      "midi": 73,
      "hit": false,
      "t": 159500.00000000058,
      "d": 250,
      "v": 90
    },
    {
      "midi": 52,
      "hit": false,
      "t": 159500.00000000058,
      "d": 500,
      "v": 90
    },
    {
      "midi": 57,
      "hit": false,
      "t": 159500.00000000058,
      "d": 500,
      "v": 90
    },
    {
      "midi": 81,
      "hit": false,
      "t": 159750.00000000058,
      "d": 250,
      "v": 90
    },
    {
      "midi": 74,
      "hit": false,
      "t": 160000.00000000058,
      "d": 250,
      "v": 90
    },
    {
      "midi": 53,
      "hit": false,
      "t": 160000.00000000058,
      "d": 500,
      "v": 90
    },
    {
      "midi": 57,
      "hit": false,
      "t": 160000.00000000058,
      "d": 500,
      "v": 90
    },
    {
      "midi": 81,
      "hit": false,
      "t": 160250.00000000058,
      "d": 250,
      "v": 90
    },
    {
      "midi": 73,
      "hit": false,
      "t": 160500.00000000058,
      "d": 250,
      "v": 90
    },
    {
      "midi": 52,
      "hit": false,
      "t": 160500.00000000058,
      "d": 500,
      "v": 90
    },
    {
      "midi": 57,
      "hit": false,
      "t": 160500.00000000058,
      "d": 500,
      "v": 90
    },
    {
      "midi": 81,
      "hit": false,
      "t": 160750.00000000058,
      "d": 250,
      "v": 90
    },
    {
      "midi": 74,
      "hit": false,
      "t": 161000.00000000058,
      "d": 250,
      "v": 90
    },
    {
      "midi": 53,
      "hit": false,
      "t": 161000.00000000058,
      "d": 500,
      "v": 90
    },
    {
      "midi": 57,
      "hit": false,
      "t": 161000.00000000058,
      "d": 500,
      "v": 90
    },
    {
      "midi": 81,
      "hit": false,
      "t": 161250.00000000058,
      "d": 250,
      "v": 90
    },
    {
      "midi": 76,
      "hit": false,
      "t": 161500.00000000058,
      "d": 250,
      "v": 90
    },
    {
      "midi": 49,
      "hit": false,
      "t": 161500.00000000058,
      "d": 500,
      "v": 90
    },
    {
      "midi": 57,
      "hit": false,
      "t": 161500.00000000058,
      "d": 500,
      "v": 90
    },
    {
      "midi": 81,
      "hit": false,
      "t": 161750.00000000058,
      "d": 250,
      "v": 90
    },
    {
      "midi": 77,
      "hit": false,
      "t": 162000.00000000058,
      "d": 250,
      "v": 90
    },
    {
      "midi": 50,
      "hit": false,
      "t": 162000.00000000058,
      "d": 1000,
      "v": 90
    },
    {
      "midi": 57,
      "hit": false,
      "t": 162000.00000000058,
      "d": 1000,
      "v": 90
    },
    {
      "midi": 81,
      "hit": false,
      "t": 162250.00000000058,
      "d": 250,
      "v": 90
    },
    {
      "midi": 76,
      "hit": false,
      "t": 162500.00000000058,
      "d": 250,
      "v": 90
    },
    {
      "midi": 81,
      "hit": false,
      "t": 162750.00000000058,
      "d": 250,
      "v": 90
    },
    {
      "midi": 74,
      "hit": false,
      "t": 163000.00000000058,
      "d": 250,
      "v": 90
    },
    {
      "midi": 53,
      "hit": false,
      "t": 163000.00000000058,
      "d": 1000,
      "v": 90
    },
    {
      "midi": 62,
      "hit": false,
      "t": 163000.00000000058,
      "d": 1000,
      "v": 90
    },
    {
      "midi": 81,
      "hit": false,
      "t": 163250.00000000058,
      "d": 250,
      "v": 90
    },
    {
      "midi": 72,
      "hit": false,
      "t": 163500.00000000058,
      "d": 250,
      "v": 90
    },
    {
      "midi": 81,
      "hit": false,
      "t": 163750.00000000058,
      "d": 250,
      "v": 90
    },
    {
      "midi": 70,
      "hit": false,
      "t": 164000.00000000058,
      "d": 250,
      "v": 90
    },
    {
      "midi": 55,
      "hit": false,
      "t": 164000.00000000058,
      "d": 1000,
      "v": 90
    },
    {
      "midi": 62,
      "hit": false,
      "t": 164000.00000000058,
      "d": 1000,
      "v": 90
    },
    {
      "midi": 81,
      "hit": false,
      "t": 164250.00000000058,
      "d": 250,
      "v": 90
    },
    {
      "midi": 72,
      "hit": false,
      "t": 164500.00000000058,
      "d": 250,
      "v": 90
    },
    {
      "midi": 81,
      "hit": false,
      "t": 164750.00000000058,
      "d": 250,
      "v": 90
    },
    {
      "midi": 74,
      "hit": false,
      "t": 165000.00000000058,
      "d": 250,
      "v": 90
    },
    {
      "midi": 79,
      "hit": false,
      "t": 165250.00000000058,
      "d": 250,
      "v": 90
    },
    {
      "midi": 70,
      "hit": false,
      "t": 165500.00000000058,
      "d": 250,
      "v": 90
    },
    {
      "midi": 79,
      "hit": false,
      "t": 165750.00000000058,
      "d": 250,
      "v": 90
    },
    {
      "midi": 76,
      "hit": false,
      "t": 166000.00000000058,
      "d": 250,
      "v": 90
    },
    {
      "midi": 48,
      "hit": false,
      "t": 166000.00000000058,
      "d": 1000,
      "v": 90
    },
    {
      "midi": 60,
      "hit": false,
      "t": 166000.00000000058,
      "d": 1000,
      "v": 90
    },
    {
      "midi": 79,
      "hit": false,
      "t": 166250.00000000058,
      "d": 250,
      "v": 90
    },
    {
      "midi": 74,
      "hit": false,
      "t": 166500.00000000058,
      "d": 250,
      "v": 90
    },
    {
      "midi": 79,
      "hit": false,
      "t": 166750.00000000058,
      "d": 250,
      "v": 90
    },
    {
      "midi": 72,
      "hit": false,
      "t": 167000.00000000058,
      "d": 250,
      "v": 90
    },
    {
      "midi": 52,
      "hit": false,
      "t": 167000.00000000058,
      "d": 1000,
      "v": 90
    },
    {
      "midi": 60,
      "hit": false,
      "t": 167000.00000000058,
      "d": 1000,
      "v": 90
    },
    {
      "midi": 79,
      "hit": false,
      "t": 167250.00000000058,
      "d": 250,
      "v": 90
    },
    {
      "midi": 70,
      "hit": false,
      "t": 167500.00000000058,
      "d": 250,
      "v": 90
    },
    {
      "midi": 79,
      "hit": false,
      "t": 167750.00000000058,
      "d": 250,
      "v": 90
    },
    {
      "midi": 69,
      "hit": false,
      "t": 168000.00000000058,
      "d": 250,
      "v": 90
    },
    {
      "midi": 53,
      "hit": false,
      "t": 168000.00000000058,
      "d": 1000,
      "v": 90
    },
    {
      "midi": 60,
      "hit": false,
      "t": 168000.00000000058,
      "d": 1000,
      "v": 90
    },
    {
      "midi": 79,
      "hit": false,
      "t": 168250.00000000058,
      "d": 250,
      "v": 90
    },
    {
      "midi": 70,
      "hit": false,
      "t": 168500.00000000058,
      "d": 250,
      "v": 90
    },
    {
      "midi": 79,
      "hit": false,
      "t": 168750.00000000058,
      "d": 250,
      "v": 90
    },
    {
      "midi": 72,
      "hit": false,
      "t": 169000.00000000058,
      "d": 250,
      "v": 90
    },
    {
      "midi": 77,
      "hit": false,
      "t": 169250.00000000058,
      "d": 250,
      "v": 90
    },
    {
      "midi": 69,
      "hit": false,
      "t": 169500.00000000058,
      "d": 250,
      "v": 90
    },
    {
      "midi": 77,
      "hit": false,
      "t": 169750.00000000058,
      "d": 250,
      "v": 90
    },
    {
      "midi": 74,
      "hit": false,
      "t": 170000.00000000058,
      "d": 250,
      "v": 90
    },
    {
      "midi": 46,
      "hit": false,
      "t": 170000.00000000058,
      "d": 1000,
      "v": 90
    },
    {
      "midi": 58,
      "hit": false,
      "t": 170000.00000000058,
      "d": 1000,
      "v": 90
    },
    {
      "midi": 77,
      "hit": false,
      "t": 170250.00000000058,
      "d": 250,
      "v": 90
    },
    {
      "midi": 72,
      "hit": false,
      "t": 170500.00000000058,
      "d": 250,
      "v": 90
    },
    {
      "midi": 77,
      "hit": false,
      "t": 170750.00000000058,
      "d": 250,
      "v": 90
    },
    {
      "midi": 70,
      "hit": false,
      "t": 171000.00000000058,
      "d": 250,
      "v": 90
    },
    {
      "midi": 50,
      "hit": false,
      "t": 171000.00000000058,
      "d": 1000,
      "v": 90
    },
    {
      "midi": 58,
      "hit": false,
      "t": 171000.00000000058,
      "d": 1000,
      "v": 90
    },
    {
      "midi": 77,
      "hit": false,
      "t": 171250.00000000058,
      "d": 250,
      "v": 90
    },
    {
      "midi": 69,
      "hit": false,
      "t": 171500.00000000058,
      "d": 250,
      "v": 90
    },
    {
      "midi": 77,
      "hit": false,
      "t": 171750.00000000058,
      "d": 250,
      "v": 90
    },
    {
      "midi": 67,
      "hit": false,
      "t": 172000.00000000058,
      "d": 250,
      "v": 90
    },
    {
      "midi": 52,
      "hit": false,
      "t": 172000.00000000058,
      "d": 1000,
      "v": 90
    },
    {
      "midi": 58,
      "hit": false,
      "t": 172000.00000000058,
      "d": 1000,
      "v": 90
    },
    {
      "midi": 77,
      "hit": false,
      "t": 172250.00000000058,
      "d": 250,
      "v": 90
    },
    {
      "midi": 69,
      "hit": false,
      "t": 172500.00000000058,
      "d": 250,
      "v": 90
    },
    {
      "midi": 77,
      "hit": false,
      "t": 172750.00000000058,
      "d": 250,
      "v": 90
    },
    {
      "midi": 70,
      "hit": false,
      "t": 173000.00000000058,
      "d": 250,
      "v": 90
    },
    {
      "midi": 76,
      "hit": false,
      "t": 173250.00000000058,
      "d": 250,
      "v": 90
    },
    {
      "midi": 67,
      "hit": false,
      "t": 173500.00000000058,
      "d": 250,
      "v": 90
    },
    {
      "midi": 76,
      "hit": false,
      "t": 173750.00000000058,
      "d": 250,
      "v": 90
    },
    {
      "midi": 73,
      "hit": false,
      "t": 174000.00000000058,
      "d": 250,
      "v": 90
    },
    {
      "midi": 45,
      "hit": false,
      "t": 174000.00000000058,
      "d": 1000,
      "v": 90
    },
    {
      "midi": 57,
      "hit": false,
      "t": 174000.00000000058,
      "d": 1000,
      "v": 90
    },
    {
      "midi": 76,
      "hit": false,
      "t": 174250.00000000058,
      "d": 250,
      "v": 90
    },
    {
      "midi": 70,
      "hit": false,
      "t": 174500.00000000058,
      "d": 250,
      "v": 90
    },
    {
      "midi": 76,
      "hit": false,
      "t": 174750.00000000058,
      "d": 250,
      "v": 90
    },
    {
      "midi": 69,
      "hit": false,
      "t": 175000.00000000058,
      "d": 250,
      "v": 90
    },
    {
      "midi": 49,
      "hit": false,
      "t": 175000.00000000058,
      "d": 1000,
      "v": 90
    },
    {
      "midi": 57,
      "hit": false,
      "t": 175000.00000000058,
      "d": 1000,
      "v": 90
    },
    {
      "midi": 76,
      "hit": false,
      "t": 175250.00000000058,
      "d": 250,
      "v": 90
    },
    {
      "midi": 67,
      "hit": false,
      "t": 175500.00000000058,
      "d": 250,
      "v": 90
    },
    {
      "midi": 76,
      "hit": false,
      "t": 175750.00000000058,
      "d": 250,
      "v": 90
    },
    {
      "midi": 65,
      "hit": false,
      "t": 176000.00000000058,
      "d": 250,
      "v": 90
    },
    {
      "midi": 50,
      "hit": false,
      "t": 176000.00000000058,
      "d": 1000,
      "v": 90
    },
    {
      "midi": 57,
      "hit": false,
      "t": 176000.00000000058,
      "d": 1000,
      "v": 90
    },
    {
      "midi": 76,
      "hit": false,
      "t": 176250.00000000058,
      "d": 250,
      "v": 90
    },
    {
      "midi": 67,
      "hit": false,
      "t": 176500.00000000058,
      "d": 250,
      "v": 90
    },
    {
      "midi": 76,
      "hit": false,
      "t": 176750.00000000058,
      "d": 250,
      "v": 90
    },
    {
      "midi": 69,
      "hit": false,
      "t": 177000.00000000058,
      "d": 250,
      "v": 90
    },
    {
      "midi": 74,
      "hit": false,
      "t": 177250.00000000058,
      "d": 250,
      "v": 90
    },
    {
      "midi": 65,
      "hit": false,
      "t": 177500.00000000058,
      "d": 250,
      "v": 90
    },
    {
      "midi": 53,
      "hit": false,
      "t": 177500.00000000058,
      "d": 500,
      "v": 90
    },
    {
      "midi": 62,
      "hit": false,
      "t": 177500.00000000058,
      "d": 500,
      "v": 90
    },
    {
      "midi": 74,
      "hit": false,
      "t": 177750.00000000058,
      "d": 250,
      "v": 90
    },
    {
      "midi": 64,
      "hit": false,
      "t": 178000.00000000058,
      "d": 250,
      "v": 90
    },
    {
      "midi": 58,
      "hit": false,
      "t": 178000.00000000058,
      "d": 500,
      "v": 90
    },
    {
      "midi": 61,
      "hit": false,
      "t": 178000.00000000058,
      "d": 500,
      "v": 90
    },
    {
      "midi": 76,
      "hit": false,
      "t": 178250.00000000058,
      "d": 250,
      "v": 90
    },
    {
      "midi": 64,
      "hit": false,
      "t": 178500.00000000058,
      "d": 250,
      "v": 90
    },
    {
      "midi": 58,
      "hit": false,
      "t": 178500.00000000058,
      "d": 500,
      "v": 90
    },
    {
      "midi": 61,
      "hit": false,
      "t": 178500.00000000058,
      "d": 500,
      "v": 90
    },
    {
      "midi": 76,
      "hit": false,
      "t": 178750.00000000058,
      "d": 250,
      "v": 90
    },
    {
      "midi": 65,
      "hit": false,
      "t": 179000.00000000058,
      "d": 250,
      "v": 90
    },
    {
      "midi": 57,
      "hit": false,
      "t": 179000.00000000058,
      "d": 500,
      "v": 90
    },
    {
      "midi": 62,
      "hit": false,
      "t": 179000.00000000058,
      "d": 500,
      "v": 90
    },
    {
      "midi": 74,
      "hit": false,
      "t": 179250.00000000058,
      "d": 250,
      "v": 90
    },
    {
      "midi": 65,
      "hit": false,
      "t": 179500.00000000058,
      "d": 250,
      "v": 90
    },
    {
      "midi": 57,
      "hit": false,
      "t": 179500.00000000058,
      "d": 500,
      "v": 90
    },
    {
      "midi": 62,
      "hit": false,
      "t": 179500.00000000058,
      "d": 500,
      "v": 90
    },
    {
      "midi": 74,
      "hit": false,
      "t": 179750.00000000058,
      "d": 250,
      "v": 90
    },
    {
      "midi": 70,
      "hit": false,
      "t": 180000.00000000058,
      "d": 250,
      "v": 90
    },
    {
      "midi": 55,
      "hit": false,
      "t": 180000.00000000058,
      "d": 1000,
      "v": 90
    },
    {
      "midi": 64,
      "hit": false,
      "t": 180000.00000000058,
      "d": 1000,
      "v": 90
    },
    {
      "midi": 73,
      "hit": false,
      "t": 180250.00000000058,
      "d": 250,
      "v": 90
    },
    {
      "midi": 70,
      "hit": false,
      "t": 180500.00000000058,
      "d": 250,
      "v": 90
    },
    {
      "midi": 73,
      "hit": false,
      "t": 180750.00000000058,
      "d": 250,
      "v": 90
    },
    {
      "midi": 69,
      "hit": false,
      "t": 181000.00000000058,
      "d": 250,
      "v": 90
    },
    {
      "midi": 74,
      "hit": false,
      "t": 181250.00000000058,
      "d": 250,
      "v": 90
    },
    {
      "midi": 65,
      "hit": false,
      "t": 181500.00000000058,
      "d": 250,
      "v": 90
    },
    {
      "midi": 57,
      "hit": false,
      "t": 181500.00000000058,
      "d": 500,
      "v": 90
    },
    {
      "midi": 62,
      "hit": false,
      "t": 181500.00000000058,
      "d": 500,
      "v": 90
    },
    {
      "midi": 74,
      "hit": false,
      "t": 181750.00000000058,
      "d": 250,
      "v": 90
    },
    {
      "midi": 64,
      "hit": false,
      "t": 182000.00000000058,
      "d": 250,
      "v": 90
    },
    {
      "midi": 58,
      "hit": false,
      "t": 182000.00000000058,
      "d": 500,
      "v": 90
    },
    {
      "midi": 61,
      "hit": false,
      "t": 182000.00000000058,
      "d": 500,
      "v": 90
    },
    {
      "midi": 76,
      "hit": false,
      "t": 182250.00000000058,
      "d": 250,
      "v": 90
    },
    {
      "midi": 64,
      "hit": false,
      "t": 182500.00000000058,
      "d": 250,
      "v": 90
    },
    {
      "midi": 58,
      "hit": false,
      "t": 182500.00000000058,
      "d": 500,
      "v": 90
    },
    {
      "midi": 61,
      "hit": false,
      "t": 182500.00000000058,
      "d": 500,
      "v": 90
    },
    {
      "midi": 76,
      "hit": false,
      "t": 182750.00000000058,
      "d": 250,
      "v": 90
    },
    {
      "midi": 65,
      "hit": false,
      "t": 183000.00000000058,
      "d": 250,
      "v": 90
    },
    {
      "midi": 57,
      "hit": false,
      "t": 183000.00000000058,
      "d": 500,
      "v": 90
    },
    {
      "midi": 62,
      "hit": false,
      "t": 183000.00000000058,
      "d": 500,
      "v": 90
    },
    {
      "midi": 74,
      "hit": false,
      "t": 183250.00000000058,
      "d": 250,
      "v": 90
    },
    {
      "midi": 65,
      "hit": false,
      "t": 183500.00000000058,
      "d": 250,
      "v": 90
    },
    {
      "midi": 57,
      "hit": false,
      "t": 183500.00000000058,
      "d": 500,
      "v": 90
    },
    {
      "midi": 62,
      "hit": false,
      "t": 183500.00000000058,
      "d": 500,
      "v": 90
    },
    {
      "midi": 74,
      "hit": false,
      "t": 183750.00000000058,
      "d": 250,
      "v": 90
    },
    {
      "midi": 56,
      "hit": false,
      "t": 184000.00000000058,
      "d": 1000,
      "v": 90
    },
    {
      "midi": 64,
      "hit": false,
      "t": 184000.00000000058,
      "d": 1000,
      "v": 90
    },
    {
      "midi": 74,
      "hit": false,
      "t": 184250.00000000058,
      "d": 250,
      "v": 90
    },
    {
      "midi": 73,
      "hit": false,
      "t": 184500.00000000058,
      "d": 250,
      "v": 90
    },
    {
      "midi": 74,
      "hit": false,
      "t": 184750.00000000058,
      "d": 250,
      "v": 90
    },
    {
      "midi": 71,
      "hit": false,
      "t": 185000.00000000058,
      "d": 250,
      "v": 90
    },
    {
      "midi": 74,
      "hit": false,
      "t": 185250.00000000058,
      "d": 250,
      "v": 90
    },
    {
      "midi": 73,
      "hit": false,
      "t": 185500.00000000058,
      "d": 250,
      "v": 90
    },
    {
      "midi": 71,
      "hit": false,
      "t": 185750.00000000058,
      "d": 250,
      "v": 90
    },
    {
      "midi": 73,
      "hit": false,
      "t": 186000.00000000058,
      "d": 250,
      "v": 90
    },
    {
      "midi": 69,
      "hit": false,
      "t": 186250.00000000058,
      "d": 250,
      "v": 90
    },
    {
      "midi": 67,
      "hit": false,
      "t": 186500.00000000058,
      "d": 250,
      "v": 90
    },
    {
      "midi": 69,
      "hit": false,
      "t": 186750.00000000058,
      "d": 250,
      "v": 90
    },
    {
      "midi": 64,
      "hit": false,
      "t": 187000.00000000058,
      "d": 250,
      "v": 90
    },
    {
      "midi": 67,
      "hit": false,
      "t": 187250.00000000058,
      "d": 250,
      "v": 90
    },
    {
      "midi": 65,
      "hit": false,
      "t": 187500.00000000058,
      "d": 250,
      "v": 90
    },
    {
      "midi": 64,
      "hit": false,
      "t": 187750.00000000058,
      "d": 250,
      "v": 90
    },
    {
      "midi": 65,
      "hit": false,
      "t": 188000.00000000058,
      "d": 250,
      "v": 90
    },
    {
      "midi": 74,
      "hit": false,
      "t": 188250.00000000058,
      "d": 250,
      "v": 90
    },
    {
      "midi": 73,
      "hit": false,
      "t": 188500.00000000058,
      "d": 250,
      "v": 90
    },
    {
      "midi": 74,
      "hit": false,
      "t": 188750.00000000058,
      "d": 250,
      "v": 90
    },
    {
      "midi": 77,
      "hit": false,
      "t": 189000.00000000058,
      "d": 250,
      "v": 90
    },
    {
      "midi": 62,
      "hit": false,
      "t": 189000.00000000058,
      "d": 1000,
      "v": 90
    },
    {
      "midi": 74,
      "hit": false,
      "t": 189250.00000000058,
      "d": 250,
      "v": 90
    },
    {
      "midi": 73,
      "hit": false,
      "t": 189500.00000000058,
      "d": 250,
      "v": 90
    },
    {
      "midi": 71,
      "hit": false,
      "t": 189750.00000000058,
      "d": 250,
      "v": 90
    },
    {
      "midi": 73,
      "hit": false,
      "t": 190000.00000000058,
      "d": 250,
      "v": 90
    },
    {
      "midi": 57,
      "hit": false,
      "t": 190000.00000000058,
      "d": 1000,
      "v": 90
    },
    {
      "midi": 69,
      "hit": false,
      "t": 190250.00000000058,
      "d": 250,
      "v": 90
    },
    {
      "midi": 67,
      "hit": false,
      "t": 190500.00000000058,
      "d": 250,
      "v": 90
    },
    {
      "midi": 69,
      "hit": false,
      "t": 190750.00000000058,
      "d": 250,
      "v": 90
    },
    {
      "midi": 76,
      "hit": false,
      "t": 191000.00000000058,
      "d": 250,
      "v": 90
    },
    {
      "midi": 61,
      "hit": false,
      "t": 191000.00000000058,
      "d": 1500,
      "v": 90
    },
    {
      "midi": 67,
      "hit": false,
      "t": 191250.00000000058,
      "d": 250,
      "v": 90
    },
    {
      "midi": 65,
      "hit": false,
      "t": 191500.00000000058,
      "d": 250,
      "v": 90
    },
    {
      "midi": 64,
      "hit": false,
      "t": 191750.00000000058,
      "d": 250,
      "v": 90
    },
    {
      "midi": 65,
      "hit": false,
      "t": 192000.00000000058,
      "d": 500,
      "v": 90
    },
    {
      "midi": 62,
      "hit": false,
      "t": 192250.00000000058,
      "d": 250,
      "v": 90
    },
    {
      "midi": 74,
      "hit": false,
      "t": 192500.00000000058,
      "d": 500,
      "v": 90
    },
    {
      "midi": 61,
      "hit": false,
      "t": 192500.00000000058,
      "d": 250,
      "v": 90
    },
    {
      "midi": 62,
      "hit": false,
      "t": 192750.00000000058,
      "d": 250,
      "v": 90
    },
    {
      "midi": 64,
      "hit": false,
      "t": 193000.00000000058,
      "d": 500,
      "v": 90
    },
    {
      "midi": 57,
      "hit": false,
      "t": 193000.00000000058,
      "d": 250,
      "v": 90
    },
    {
      "midi": 57,
      "hit": false,
      "t": 193250.00000000058,
      "d": 250,
      "v": 90
    },
    {
      "midi": 73,
      "hit": false,
      "t": 193500.00000000058,
      "d": 500,
      "v": 90
    },
    {
      "midi": 55,
      "hit": false,
      "t": 193500.00000000058,
      "d": 250,
      "v": 90
    },
    {
      "midi": 57,
      "hit": false,
      "t": 193750.00000000058,
      "d": 250,
      "v": 90
    },
    {
      "midi": 72,
      "hit": false,
      "t": 194000.00000000058,
      "d": 500,
      "v": 90
    },
    {
      "midi": 62,
      "hit": false,
      "t": 194000.00000000058,
      "d": 1000,
      "v": 90
    },
    {
      "midi": 54,
      "hit": false,
      "t": 194000.00000000058,
      "d": 250,
      "v": 90
    },
    {
      "midi": 62,
      "hit": false,
      "t": 194250.00000000058,
      "d": 250,
      "v": 90
    },
    {
      "midi": 69,
      "hit": false,
      "t": 194500.00000000058,
      "d": 500,
      "v": 90
    },
    {
      "midi": 61,
      "hit": false,
      "t": 194500.00000000058,
      "d": 250,
      "v": 90
    },
    {
      "midi": 62,
      "hit": false,
      "t": 194750.00000000058,
      "d": 250,
      "v": 90
    },
    {
      "midi": 70,
      "hit": false,
      "t": 195000.00000000058,
      "d": 500,
      "v": 90
    },
    {
      "midi": 55,
      "hit": false,
      "t": 195000.00000000058,
      "d": 250,
      "v": 90
    },
    {
      "midi": 65,
      "hit": false,
      "t": 195250.00000000058,
      "d": 250,
      "v": 90
    },
    {
      "midi": 67,
      "hit": false,
      "t": 195500.00000000058,
      "d": 500,
      "v": 90
    },
    {
      "midi": 63,
      "hit": false,
      "t": 195500.00000000058,
      "d": 250,
      "v": 90
    },
    {
      "midi": 62,
      "hit": false,
      "t": 195750.00000000058,
      "d": 250,
      "v": 90
    },
    {
      "midi": 69,
      "hit": false,
      "t": 196000.00000000058,
      "d": 1000,
      "v": 90
    },
    {
      "midi": 61,
      "hit": false,
      "t": 196000.00000000058,
      "d": 250,
      "v": 90
    },
    {
      "midi": 64,
      "hit": false,
      "t": 196250.00000000058,
      "d": 250,
      "v": 90
    },
    {
      "midi": 57,
      "hit": false,
      "t": 196500.00000000058,
      "d": 250,
      "v": 90
    },
    {
      "midi": 61,
      "hit": false,
      "t": 196750.00000000058,
      "d": 250,
      "v": 90
    },
    {
      "midi": 66,
      "hit": false,
      "t": 197000.00000000058,
      "d": 1000,
      "v": 90
    },
    {
      "midi": 69,
      "hit": false,
      "t": 197000.00000000058,
      "d": 1000,
      "v": 90
    },
    {
      "midi": 50,
      "hit": false,
      "t": 197000.00000000058,
      "d": 250,
      "v": 90
    },
    {
      "midi": 63,
      "hit": false,
      "t": 197250.00000000058,
      "d": 250,
      "v": 90
    },
    {
      "midi": 62,
      "hit": false,
      "t": 197500.00000000058,
      "d": 250,
      "v": 90
    },
    {
      "midi": 60,
      "hit": false,
      "t": 197750.00000000058,
      "d": 250,
      "v": 90
    },
    {
      "midi": 65,
      "hit": false,
      "t": 198000.00000000058,
      "d": 1000,
      "v": 90
    },
    {
      "midi": 67,
      "hit": false,
      "t": 198000.00000000058,
      "d": 1000,
      "v": 90
    },
    {
      "midi": 59,
      "hit": false,
      "t": 198000.00000000058,
      "d": 250,
      "v": 90
    },
    {
      "midi": 62,
      "hit": false,
      "t": 198250.00000000058,
      "d": 250,
      "v": 90
    },
    {
      "midi": 55,
      "hit": false,
      "t": 198500.00000000058,
      "d": 250,
      "v": 90
    },
    {
      "midi": 59,
      "hit": false,
      "t": 198750.00000000058,
      "d": 250,
      "v": 90
    },
    {
      "midi": 63,
      "hit": false,
      "t": 199000.00000000058,
      "d": 1000,
      "v": 90
    },
    {
      "midi": 67,
      "hit": false,
      "t": 199000.00000000058,
      "d": 1000,
      "v": 90
    },
    {
      "midi": 48,
      "hit": false,
      "t": 199000.00000000058,
      "d": 250,
      "v": 90
    },
    {
      "midi": 62,
      "hit": false,
      "t": 199250.00000000058,
      "d": 250,
      "v": 90
    },
    {
      "midi": 60,
      "hit": false,
      "t": 199500.00000000058,
      "d": 250,
      "v": 90
    },
    {
      "midi": 58,
      "hit": false,
      "t": 199750.00000000058,
      "d": 250,
      "v": 90
    },
    {
      "midi": 66,
      "hit": false,
      "t": 200000.00000000058,
      "d": 500,
      "v": 90
    },
    {
      "midi": 57,
      "hit": false,
      "t": 200000.00000000058,
      "d": 250,
      "v": 90
    },
    {
      "midi": 60,
      "hit": false,
      "t": 200250.00000000058,
      "d": 250,
      "v": 90
    },
    {
      "midi": 69,
      "hit": false,
      "t": 200500.00000000058,
      "d": 500,
      "v": 90
    },
    {
      "midi": 62,
      "hit": false,
      "t": 200500.00000000058,
      "d": 1000,
      "v": 90
    },
    {
      "midi": 54,
      "hit": false,
      "t": 200500.00000000058,
      "d": 250,
      "v": 90
    },
    {
      "midi": 57,
      "hit": false,
      "t": 200750.00000000058,
      "d": 250,
      "v": 90
    },
    {
      "midi": 66,
      "hit": false,
      "t": 201000.00000000058,
      "d": 500,
      "v": 90
    },
    {
      "midi": 50,
      "hit": false,
      "t": 201000.00000000058,
      "d": 250,
      "v": 90
    },
    {
      "midi": 60,
      "hit": false,
      "t": 201250.00000000058,
      "d": 250,
      "v": 90
    },
    {
      "midi": 75,
      "hit": false,
      "t": 201500.00000000058,
      "d": 500,
      "v": 90
    },
    {
      "midi": 72,
      "hit": false,
      "t": 201500.00000000058,
      "d": 1000,
      "v": 90
    },
    {
      "midi": 58,
      "hit": false,
      "t": 201500.00000000058,
      "d": 250,
      "v": 90
    },
    {
      "midi": 57,
      "hit": false,
      "t": 201750.00000000058,
      "d": 250,
      "v": 90
    },
    {
      "midi": 74,
      "hit": false,
      "t": 202000.00000000058,
      "d": 500,
      "v": 90
    },
    {
      "midi": 58,
      "hit": false,
      "t": 202000.00000000058,
      "d": 250,
      "v": 90
    },
    {
      "midi": 69,
      "hit": false,
      "t": 202250.00000000058,
      "d": 250,
      "v": 90
    },
    {
      "midi": 70,
      "hit": false,
      "t": 202500.00000000058,
      "d": 250,
      "v": 90
    },
    {
      "midi": 67,
      "hit": false,
      "t": 202500.00000000058,
      "d": 250,
      "v": 90
    },
    {
      "midi": 69,
      "hit": false,
      "t": 202750.00000000058,
      "d": 250,
      "v": 90
    },
    {
      "midi": 66,
      "hit": false,
      "t": 202750.00000000058,
      "d": 250,
      "v": 90
    },
    {
      "midi": 70,
      "hit": false,
      "t": 203000.00000000058,
      "d": 500,
      "v": 90
    },
    {
      "midi": 67,
      "hit": false,
      "t": 203000.00000000058,
      "d": 250,
      "v": 90
    },
    {
      "midi": 58,
      "hit": false,
      "t": 203250.00000000058,
      "d": 250,
      "v": 90
    },
    {
      "midi": 79,
      "hit": false,
      "t": 203500.00000000058,
      "d": 500,
      "v": 90
    },
    {
      "midi": 70,
      "hit": false,
      "t": 203500.00000000058,
      "d": 1000,
      "v": 90
    },
    {
      "midi": 57,
      "hit": false,
      "t": 203500.00000000058,
      "d": 250,
      "v": 90
    },
    {
      "midi": 55,
      "hit": false,
      "t": 203750.00000000058,
      "d": 250,
      "v": 90
    },
    {
      "midi": 69,
      "hit": false,
      "t": 204000.00000000058,
      "d": 500,
      "v": 90
    },
    {
      "midi": 62,
      "hit": false,
      "t": 204000.00000000058,
      "d": 1000,
      "v": 90
    },
    {
      "midi": 78,
      "hit": false,
      "t": 204500.00000000058,
      "d": 500,
      "v": 90
    },
    {
      "midi": 79,
      "hit": false,
      "t": 205000.00000000058,
      "d": 500,
      "v": 90
    },
    {
      "midi": 74,
      "hit": false,
      "t": 205000.00000000058,
      "d": 1000,
      "v": 90
    },
    {
      "midi": 72,
      "hit": false,
      "t": 205500.00000000058,
      "d": 500,
      "v": 90
    },
    {
      "midi": 62,
      "hit": false,
      "t": 205500.00000000058,
      "d": 500,
      "v": 90
    },
    {
      "midi": 70,
      "hit": false,
      "t": 206000.00000000058,
      "d": 500,
      "v": 90
    },
    {
      "midi": 62,
      "hit": false,
      "t": 206000.00000000058,
      "d": 500,
      "v": 90
    },
    {
      "midi": 69,
      "hit": false,
      "t": 206500.00000000058,
      "d": 500,
      "v": 90
    },
    {
      "midi": 74,
      "hit": false,
      "t": 206500.00000000058,
      "d": 500,
      "v": 90
    },
    {
      "midi": 62,
      "hit": false,
      "t": 206500.00000000058,
      "d": 500,
      "v": 90
    },
    {
      "midi": 70,
      "hit": false,
      "t": 207000.00000000058,
      "d": 500,
      "v": 90
    },
    {
      "midi": 74,
      "hit": false,
      "t": 207000.00000000058,
      "d": 500,
      "v": 90
    },
    {
      "midi": 62,
      "hit": false,
      "t": 207000.00000000058,
      "d": 500,
      "v": 90
    },
    {
      "midi": 66,
      "hit": false,
      "t": 207500.00000000058,
      "d": 500,
      "v": 90
    },
    {
      "midi": 74,
      "hit": false,
      "t": 207500.00000000058,
      "d": 500,
      "v": 90
    },
    {
      "midi": 60,
      "hit": false,
      "t": 207500.00000000058,
      "d": 500,
      "v": 90
    },
    {
      "midi": 67,
      "hit": false,
      "t": 208000.00000000058,
      "d": 500,
      "v": 90
    },
    {
      "midi": 74,
      "hit": false,
      "t": 208000.00000000058,
      "d": 500,
      "v": 90
    },
    {
      "midi": 58,
      "hit": false,
      "t": 208000.00000000058,
      "d": 500,
      "v": 90
    },
    {
      "midi": 66,
      "hit": false,
      "t": 208500.00000000058,
      "d": 500,
      "v": 90
    },
    {
      "midi": 74,
      "hit": false,
      "t": 208500.00000000058,
      "d": 500,
      "v": 90
    },
    {
      "midi": 62,
      "hit": false,
      "t": 208500.00000000058,
      "d": 500,
      "v": 90
    },
    {
      "midi": 67,
      "hit": false,
      "t": 209000.00000000058,
      "d": 500,
      "v": 90
    },
    {
      "midi": 74,
      "hit": false,
      "t": 209000.00000000058,
      "d": 500,
      "v": 90
    },
    {
      "midi": 62,
      "hit": false,
      "t": 209000.00000000058,
      "d": 500,
      "v": 90
    },
    {
      "midi": 69,
      "hit": false,
      "t": 209500.00000000058,
      "d": 500,
      "v": 90
    },
    {
      "midi": 74,
      "hit": false,
      "t": 209500.00000000058,
      "d": 500,
      "v": 90
    },
    {
      "midi": 60,
      "hit": false,
      "t": 209500.00000000058,
      "d": 500,
      "v": 90
    },
    {
      "midi": 70,
      "hit": false,
      "t": 210000.00000000058,
      "d": 500,
      "v": 90
    },
    {
      "midi": 74,
      "hit": false,
      "t": 210000.00000000058,
      "d": 500,
      "v": 90
    },
    {
      "midi": 58,
      "hit": false,
      "t": 210000.00000000058,
      "d": 500,
      "v": 90
    },
    {
      "midi": 69,
      "hit": false,
      "t": 210500.00000000058,
      "d": 500,
      "v": 90
    },
    {
      "midi": 74,
      "hit": false,
      "t": 210500.00000000058,
      "d": 500,
      "v": 90
    },
    {
      "midi": 62,
      "hit": false,
      "t": 210500.00000000058,
      "d": 500,
      "v": 90
    },
    {
      "midi": 70,
      "hit": false,
      "t": 211000.00000000058,
      "d": 500,
      "v": 90
    },
    {
      "midi": 74,
      "hit": false,
      "t": 211000.00000000058,
      "d": 500,
      "v": 90
    },
    {
      "midi": 62,
      "hit": false,
      "t": 211000.00000000058,
      "d": 500,
      "v": 90
    },
    {
      "midi": 66,
      "hit": false,
      "t": 211500.00000000058,
      "d": 500,
      "v": 90
    },
    {
      "midi": 74,
      "hit": false,
      "t": 211500.00000000058,
      "d": 500,
      "v": 90
    },
    {
      "midi": 60,
      "hit": false,
      "t": 211500.00000000058,
      "d": 500,
      "v": 90
    },
    {
      "midi": 67,
      "hit": false,
      "t": 212000.00000000058,
      "d": 250,
      "v": 90
    },
    {
      "midi": 74,
      "hit": false,
      "t": 212000.00000000058,
      "d": 250,
      "v": 90
    },
    {
      "midi": 58,
      "hit": false,
      "t": 212000.00000000058,
      "d": 1000,
      "v": 90
    },
    {
      "midi": 70,
      "hit": false,
      "t": 212250.00000000058,
      "d": 250,
      "v": 90
    },
    {
      "midi": 79,
      "hit": false,
      "t": 212250.00000000058,
      "d": 250,
      "v": 90
    },
    {
      "midi": 69,
      "hit": false,
      "t": 212500.00000000058,
      "d": 250,
      "v": 90
    },
    {
      "midi": 77,
      "hit": false,
      "t": 212500.00000000058,
      "d": 250,
      "v": 90
    },
    {
      "midi": 70,
      "hit": false,
      "t": 212750.00000000058,
      "d": 250,
      "v": 90
    },
    {
      "midi": 79,
      "hit": false,
      "t": 212750.00000000058,
      "d": 250,
      "v": 90
    },
    {
      "midi": 67,
      "hit": false,
      "t": 213000.00000000058,
      "d": 250,
      "v": 90
    },
    {
      "midi": 76,
      "hit": false,
      "t": 213000.00000000058,
      "d": 250,
      "v": 90
    },
    {
      "midi": 69,
      "hit": false,
      "t": 213250.00000000058,
      "d": 250,
      "v": 90
    },
    {
      "midi": 77,
      "hit": false,
      "t": 213250.00000000058,
      "d": 250,
      "v": 90
    },
    {
      "midi": 65,
      "hit": false,
      "t": 213500.00000000058,
      "d": 250,
      "v": 90
    },
    {
      "midi": 74,
      "hit": false,
      "t": 213500.00000000058,
      "d": 250,
      "v": 90
    },
    {
      "midi": 67,
      "hit": false,
      "t": 213750.00000000058,
      "d": 250,
      "v": 90
    },
    {
      "midi": 76,
      "hit": false,
      "t": 213750.00000000058,
      "d": 250,
      "v": 90
    },
    {
      "midi": 64,
      "hit": false,
      "t": 214000.00000000058,
      "d": 250,
      "v": 90
    },
    {
      "midi": 72,
      "hit": false,
      "t": 214000.00000000058,
      "d": 250,
      "v": 90
    },
    {
      "midi": 72,
      "hit": false,
      "t": 214250.00000000058,
      "d": 250,
      "v": 90
    },
    {
      "midi": 81,
      "hit": false,
      "t": 214250.00000000058,
      "d": 250,
      "v": 90
    },
    {
      "midi": 70,
      "hit": false,
      "t": 214500.00000000058,
      "d": 250,
      "v": 90
    },
    {
      "midi": 79,
      "hit": false,
      "t": 214500.00000000058,
      "d": 250,
      "v": 90
    },
    {
      "midi": 72,
      "hit": false,
      "t": 214750.00000000058,
      "d": 250,
      "v": 90
    },
    {
      "midi": 81,
      "hit": false,
      "t": 214750.00000000058,
      "d": 250,
      "v": 90
    },
    {
      "midi": 69,
      "hit": false,
      "t": 215000.00000000058,
      "d": 250,
      "v": 90
    },
    {
      "midi": 77,
      "hit": false,
      "t": 215000.00000000058,
      "d": 250,
      "v": 90
    },
    {
      "midi": 70,
      "hit": false,
      "t": 215250.00000000058,
      "d": 250,
      "v": 90
    },
    {
      "midi": 79,
      "hit": false,
      "t": 215250.00000000058,
      "d": 250,
      "v": 90
    },
    {
      "midi": 67,
      "hit": false,
      "t": 215500.00000000058,
      "d": 250,
      "v": 90
    },
    {
      "midi": 76,
      "hit": false,
      "t": 215500.00000000058,
      "d": 250,
      "v": 90
    },
    {
      "midi": 69,
      "hit": false,
      "t": 215750.00000000058,
      "d": 250,
      "v": 90
    },
    {
      "midi": 77,
      "hit": false,
      "t": 215750.00000000058,
      "d": 250,
      "v": 90
    },
    {
      "midi": 65,
      "hit": false,
      "t": 216000.00000000058,
      "d": 250,
      "v": 90
    },
    {
      "midi": 74,
      "hit": false,
      "t": 216000.00000000058,
      "d": 250,
      "v": 90
    },
    {
      "midi": 74,
      "hit": false,
      "t": 216250.00000000058,
      "d": 250,
      "v": 90
    },
    {
      "midi": 82,
      "hit": false,
      "t": 216250.00000000058,
      "d": 250,
      "v": 90
    },
    {
      "midi": 72,
      "hit": false,
      "t": 216500.00000000058,
      "d": 250,
      "v": 90
    },
    {
      "midi": 81,
      "hit": false,
      "t": 216500.00000000058,
      "d": 250,
      "v": 90
    },
    {
      "midi": 74,
      "hit": false,
      "t": 216750.00000000058,
      "d": 250,
      "v": 90
    },
    {
      "midi": 82,
      "hit": false,
      "t": 216750.00000000058,
      "d": 250,
      "v": 90
    },
    {
      "midi": 70,
      "hit": false,
      "t": 217000.00000000058,
      "d": 250,
      "v": 90
    },
    {
      "midi": 79,
      "hit": false,
      "t": 217000.00000000058,
      "d": 250,
      "v": 90
    },
    {
      "midi": 72,
      "hit": false,
      "t": 217250.00000000058,
      "d": 250,
      "v": 90
    },
    {
      "midi": 81,
      "hit": false,
      "t": 217250.00000000058,
      "d": 250,
      "v": 90
    },
    {
      "midi": 69,
      "hit": false,
      "t": 217500.00000000058,
      "d": 250,
      "v": 90
    },
    {
      "midi": 77,
      "hit": false,
      "t": 217500.00000000058,
      "d": 250,
      "v": 90
    },
    {
      "midi": 70,
      "hit": false,
      "t": 217750.00000000058,
      "d": 250,
      "v": 90
    },
    {
      "midi": 79,
      "hit": false,
      "t": 217750.00000000058,
      "d": 250,
      "v": 90
    },
    {
      "midi": 67,
      "hit": false,
      "t": 218000.00000000058,
      "d": 250,
      "v": 90
    },
    {
      "midi": 76,
      "hit": false,
      "t": 218000.00000000058,
      "d": 250,
      "v": 90
    },
    {
      "midi": 76,
      "hit": false,
      "t": 218250.00000000058,
      "d": 250,
      "v": 90
    },
    {
      "midi": 84,
      "hit": false,
      "t": 218250.00000000058,
      "d": 250,
      "v": 90
    },
    {
      "midi": 74,
      "hit": false,
      "t": 218500.00000000058,
      "d": 250,
      "v": 90
    },
    {
      "midi": 82,
      "hit": false,
      "t": 218500.00000000058,
      "d": 250,
      "v": 90
    },
    {
      "midi": 76,
      "hit": false,
      "t": 218750.00000000058,
      "d": 250,
      "v": 90
    },
    {
      "midi": 84,
      "hit": false,
      "t": 218750.00000000058,
      "d": 250,
      "v": 90
    },
    {
      "midi": 72,
      "hit": false,
      "t": 219000.00000000058,
      "d": 250,
      "v": 90
    },
    {
      "midi": 81,
      "hit": false,
      "t": 219000.00000000058,
      "d": 250,
      "v": 90
    },
    {
      "midi": 74,
      "hit": false,
      "t": 219250.00000000058,
      "d": 250,
      "v": 90
    },
    {
      "midi": 82,
      "hit": false,
      "t": 219250.00000000058,
      "d": 250,
      "v": 90
    },
    {
      "midi": 70,
      "hit": false,
      "t": 219500.00000000058,
      "d": 250,
      "v": 90
    },
    {
      "midi": 79,
      "hit": false,
      "t": 219500.00000000058,
      "d": 250,
      "v": 90
    },
    {
      "midi": 72,
      "hit": false,
      "t": 219750.00000000058,
      "d": 250,
      "v": 90
    },
    {
      "midi": 81,
      "hit": false,
      "t": 219750.00000000058,
      "d": 250,
      "v": 90
    },
    {
      "midi": 77,
      "hit": false,
      "t": 220000.00000000058,
      "d": 250,
      "v": 90
    },
    {
      "midi": 69,
      "hit": false,
      "t": 220000.00000000058,
      "d": 500,
      "v": 90
    },
    {
      "midi": 75,
      "hit": false,
      "t": 220250.00000000058,
      "d": 250,
      "v": 90
    },
    {
      "midi": 74,
      "hit": false,
      "t": 220500.00000000058,
      "d": 250,
      "v": 90
    },
    {
      "midi": 65,
      "hit": false,
      "t": 220500.00000000058,
      "d": 500,
      "v": 90
    },
    {
      "midi": 72,
      "hit": false,
      "t": 220750.00000000058,
      "d": 250,
      "v": 90
    },
    {
      "midi": 70,
      "hit": false,
      "t": 221000.00000000058,
      "d": 250,
      "v": 90
    },
    {
      "midi": 74,
      "hit": false,
      "t": 221000.00000000058,
      "d": 250,
      "v": 90
    },
    {
      "midi": 69,
      "hit": false,
      "t": 221250.00000000058,
      "d": 250,
      "v": 90
    },
    {
      "midi": 72,
      "hit": false,
      "t": 221250.00000000058,
      "d": 250,
      "v": 90
    },
    {
      "midi": 67,
      "hit": false,
      "t": 221500.00000000058,
      "d": 250,
      "v": 90
    },
    {
      "midi": 70,
      "hit": false,
      "t": 221500.00000000058,
      "d": 250,
      "v": 90
    },
    {
      "midi": 65,
      "hit": false,
      "t": 221750.00000000058,
      "d": 250,
      "v": 90
    },
    {
      "midi": 69,
      "hit": false,
      "t": 221750.00000000058,
      "d": 250,
      "v": 90
    },
    {
      "midi": 67,
      "hit": false,
      "t": 222000.00000000058,
      "d": 250,
      "v": 90
    },
    {
      "midi": 70,
      "hit": false,
      "t": 222000.00000000058,
      "d": 250,
      "v": 90
    },
    {
      "midi": 70,
      "hit": false,
      "t": 222250.00000000058,
      "d": 250,
      "v": 90
    },
    {
      "midi": 74,
      "hit": false,
      "t": 222250.00000000058,
      "d": 250,
      "v": 90
    },
    {
      "midi": 67,
      "hit": false,
      "t": 222500.00000000058,
      "d": 250,
      "v": 90
    },
    {
      "midi": 70,
      "hit": false,
      "t": 222500.00000000058,
      "d": 250,
      "v": 90
    },
    {
      "midi": 65,
      "hit": false,
      "t": 222750.00000000058,
      "d": 250,
      "v": 90
    },
    {
      "midi": 69,
      "hit": false,
      "t": 222750.00000000058,
      "d": 250,
      "v": 90
    },
    {
      "midi": 64,
      "hit": false,
      "t": 223000.00000000058,
      "d": 250,
      "v": 90
    },
    {
      "midi": 67,
      "hit": false,
      "t": 223000.00000000058,
      "d": 250,
      "v": 90
    },
    {
      "midi": 67,
      "hit": false,
      "t": 223250.00000000058,
      "d": 250,
      "v": 90
    },
    {
      "midi": 70,
      "hit": false,
      "t": 223250.00000000058,
      "d": 250,
      "v": 90
    },
    {
      "midi": 64,
      "hit": false,
      "t": 223500.00000000058,
      "d": 250,
      "v": 90
    },
    {
      "midi": 67,
      "hit": false,
      "t": 223500.00000000058,
      "d": 250,
      "v": 90
    },
    {
      "midi": 62,
      "hit": false,
      "t": 223750.00000000058,
      "d": 250,
      "v": 90
    },
    {
      "midi": 65,
      "hit": false,
      "t": 223750.00000000058,
      "d": 250,
      "v": 90
    },
    {
      "midi": 60,
      "hit": false,
      "t": 224000.00000000058,
      "d": 250,
      "v": 90
    },
    {
      "midi": 64,
      "hit": false,
      "t": 224000.00000000058,
      "d": 250,
      "v": 90
    },
    {
      "midi": 62,
      "hit": false,
      "t": 224250.00000000058,
      "d": 250,
      "v": 90
    },
    {
      "midi": 65,
      "hit": false,
      "t": 224250.00000000058,
      "d": 250,
      "v": 90
    },
    {
      "midi": 64,
      "hit": false,
      "t": 224500.00000000058,
      "d": 250,
      "v": 90
    },
    {
      "midi": 67,
      "hit": false,
      "t": 224500.00000000058,
      "d": 250,
      "v": 90
    },
    {
      "midi": 65,
      "hit": false,
      "t": 224750.00000000058,
      "d": 250,
      "v": 90
    },
    {
      "midi": 69,
      "hit": false,
      "t": 224750.00000000058,
      "d": 250,
      "v": 90
    },
    {
      "midi": 70,
      "hit": false,
      "t": 225000.00000000058,
      "d": 250,
      "v": 90
    },
    {
      "midi": 67,
      "hit": false,
      "t": 225000.00000000058,
      "d": 500,
      "v": 90
    },
    {
      "midi": 74,
      "hit": false,
      "t": 225250.00000000058,
      "d": 250,
      "v": 90
    },
    {
      "midi": 72,
      "hit": false,
      "t": 225500.00000000058,
      "d": 250,
      "v": 90
    },
    {
      "midi": 64,
      "hit": false,
      "t": 225500.00000000058,
      "d": 500,
      "v": 90
    },
    {
      "midi": 70,
      "hit": false,
      "t": 225750.00000000058,
      "d": 250,
      "v": 90
    },
    {
      "midi": 65,
      "hit": false,
      "t": 226000.00000000058,
      "d": 1000,
      "v": 90
    },
    {
      "midi": 69,
      "hit": false,
      "t": 226000.00000000058,
      "d": 1000,
      "v": 90
    },
    {
      "midi": 60,
      "hit": false,
      "t": 226250.00000000058,
      "d": 250,
      "v": 90
    },
    {
      "midi": 58,
      "hit": false,
      "t": 226500.00000000058,
      "d": 250,
      "v": 90
    },
    {
      "midi": 60,
      "hit": false,
      "t": 226750.00000000058,
      "d": 250,
      "v": 90
    },
    {
      "midi": 72,
      "hit": false,
      "t": 227000.00000000058,
      "d": 500,
      "v": 90
    },
    {
      "midi": 57,
      "hit": false,
      "t": 227000.00000000058,
      "d": 250,
      "v": 90
    },
    {
      "midi": 60,
      "hit": false,
      "t": 227250.00000000058,
      "d": 250,
      "v": 90
    },
    {
      "midi": 70,
      "hit": false,
      "t": 227500.00000000058,
      "d": 500,
      "v": 90
    },
    {
      "midi": 55,
      "hit": false,
      "t": 227500.00000000058,
      "d": 250,
      "v": 90
    },
    {
      "midi": 60,
      "hit": false,
      "t": 227750.00000000058,
      "d": 250,
      "v": 90
    },
    {
      "midi": 69,
      "hit": false,
      "t": 228000.00000000058,
      "d": 500,
      "v": 90
    },
    {
      "midi": 53,
      "hit": false,
      "t": 228000.00000000058,
      "d": 250,
      "v": 90
    },
    {
      "midi": 60,
      "hit": false,
      "t": 228250.00000000058,
      "d": 250,
      "v": 90
    },
    {
      "midi": 67,
      "hit": false,
      "t": 228500.00000000058,
      "d": 500,
      "v": 90
    },
    {
      "midi": 52,
      "hit": false,
      "t": 228500.00000000058,
      "d": 250,
      "v": 90
    },
    {
      "midi": 60,
      "hit": false,
      "t": 228750.00000000058,
      "d": 250,
      "v": 90
    },
    {
      "midi": 69,
      "hit": false,
      "t": 229000.00000000058,
      "d": 500,
      "v": 90
    },
    {
      "midi": 53,
      "hit": false,
      "t": 229000.00000000058,
      "d": 250,
      "v": 90
    },
    {
      "midi": 60,
      "hit": false,
      "t": 229250.00000000058,
      "d": 250,
      "v": 90
    },
    {
      "midi": 70,
      "hit": false,
      "t": 229500.00000000058,
      "d": 500,
      "v": 90
    },
    {
      "midi": 55,
      "hit": false,
      "t": 229500.00000000058,
      "d": 250,
      "v": 90
    },
    {
      "midi": 60,
      "hit": false,
      "t": 229750.00000000058,
      "d": 250,
      "v": 90
    },
    {
      "midi": 72,
      "hit": false,
      "t": 230000.00000000058,
      "d": 500,
      "v": 90
    },
    {
      "midi": 57,
      "hit": false,
      "t": 230000.00000000058,
      "d": 250,
      "v": 90
    },
    {
      "midi": 60,
      "hit": false,
      "t": 230250.00000000058,
      "d": 250,
      "v": 90
    },
    {
      "midi": 64,
      "hit": false,
      "t": 230500.00000000058,
      "d": 500,
      "v": 90
    },
    {
      "midi": 48,
      "hit": false,
      "t": 230500.00000000058,
      "d": 250,
      "v": 90
    },
    {
      "midi": 60,
      "hit": false,
      "t": 230750.00000000058,
      "d": 250,
      "v": 90
    },
    {
      "midi": 65,
      "hit": false,
      "t": 231000.00000000058,
      "d": 500,
      "v": 90
    },
    {
      "midi": 50,
      "hit": false,
      "t": 231000.00000000058,
      "d": 250,
      "v": 90
    },
    {
      "midi": 60,
      "hit": false,
      "t": 231250.00000000058,
      "d": 250,
      "v": 90
    },
    {
      "midi": 67,
      "hit": false,
      "t": 231500.00000000058,
      "d": 500,
      "v": 90
    },
    {
      "midi": 52,
      "hit": false,
      "t": 231500.00000000058,
      "d": 250,
      "v": 90
    },
    {
      "midi": 60,
      "hit": false,
      "t": 231750.00000000058,
      "d": 250,
      "v": 90
    },
    {
      "midi": 69,
      "hit": false,
      "t": 232000.00000000058,
      "d": 500,
      "v": 90
    },
    {
      "midi": 53,
      "hit": false,
      "t": 232000.00000000058,
      "d": 250,
      "v": 90
    },
    {
      "midi": 60,
      "hit": false,
      "t": 232250.00000000058,
      "d": 250,
      "v": 90
    },
    {
      "midi": 67,
      "hit": false,
      "t": 232500.00000000058,
      "d": 500,
      "v": 90
    },
    {
      "midi": 52,
      "hit": false,
      "t": 232500.00000000058,
      "d": 250,
      "v": 90
    },
    {
      "midi": 60,
      "hit": false,
      "t": 232750.00000000058,
      "d": 250,
      "v": 90
    },
    {
      "midi": 69,
      "hit": false,
      "t": 233000.00000000058,
      "d": 500,
      "v": 90
    },
    {
      "midi": 53,
      "hit": false,
      "t": 233000.00000000058,
      "d": 250,
      "v": 90
    },
    {
      "midi": 60,
      "hit": false,
      "t": 233250.00000000058,
      "d": 250,
      "v": 90
    },
    {
      "midi": 70,
      "hit": false,
      "t": 233500.00000000058,
      "d": 500,
      "v": 90
    },
    {
      "midi": 55,
      "hit": false,
      "t": 233500.00000000058,
      "d": 250,
      "v": 90
    },
    {
      "midi": 60,
      "hit": false,
      "t": 233750.00000000058,
      "d": 250,
      "v": 90
    },
    {
      "midi": 72,
      "hit": false,
      "t": 234000.00000000058,
      "d": 250,
      "v": 90
    },
    {
      "midi": 57,
      "hit": false,
      "t": 234000.00000000058,
      "d": 1000,
      "v": 90
    },
    {
      "midi": 70,
      "hit": false,
      "t": 234250.00000000058,
      "d": 250,
      "v": 90
    },
    {
      "midi": 69,
      "hit": false,
      "t": 234500.00000000058,
      "d": 250,
      "v": 90
    },
    {
      "midi": 67,
      "hit": false,
      "t": 234750.00000000058,
      "d": 250,
      "v": 90
    },
    {
      "midi": 65,
      "hit": false,
      "t": 235000.00000000058,
      "d": 250,
      "v": 90
    },
    {
      "midi": 63,
      "hit": false,
      "t": 235250.00000000058,
      "d": 250,
      "v": 90
    },
    {
      "midi": 62,
      "hit": false,
      "t": 235500.00000000058,
      "d": 250,
      "v": 90
    },
    {
      "midi": 60,
      "hit": false,
      "t": 235750.00000000058,
      "d": 250,
      "v": 90
    },
    {
      "midi": 74,
      "hit": false,
      "t": 236000.00000000058,
      "d": 250,
      "v": 90
    },
    {
      "midi": 58,
      "hit": false,
      "t": 236000.00000000058,
      "d": 500,
      "v": 90
    },
    {
      "midi": 72,
      "hit": false,
      "t": 236250.00000000058,
      "d": 250,
      "v": 90
    },
    {
      "midi": 70,
      "hit": false,
      "t": 236500.00000000058,
      "d": 250,
      "v": 90
    },
    {
      "midi": 69,
      "hit": false,
      "t": 236750.00000000058,
      "d": 250,
      "v": 90
    },
    {
      "midi": 67,
      "hit": false,
      "t": 237000.00000000058,
      "d": 250,
      "v": 90
    },
    {
      "midi": 65,
      "hit": false,
      "t": 237250.00000000058,
      "d": 250,
      "v": 90
    },
    {
      "midi": 64,
      "hit": false,
      "t": 237500.00000000058,
      "d": 250,
      "v": 90
    },
    {
      "midi": 62,
      "hit": false,
      "t": 237750.00000000058,
      "d": 250,
      "v": 90
    },
    {
      "midi": 76,
      "hit": false,
      "t": 238000.00000000058,
      "d": 250,
      "v": 90
    },
    {
      "midi": 60,
      "hit": false,
      "t": 238000.00000000058,
      "d": 500,
      "v": 90
    },
    {
      "midi": 74,
      "hit": false,
      "t": 238250.00000000058,
      "d": 250,
      "v": 90
    },
    {
      "midi": 72,
      "hit": false,
      "t": 238500.00000000058,
      "d": 250,
      "v": 90
    },
    {
      "midi": 70,
      "hit": false,
      "t": 238750.00000000058,
      "d": 250,
      "v": 90
    },
    {
      "midi": 69,
      "hit": false,
      "t": 239000.00000000058,
      "d": 250,
      "v": 90
    },
    {
      "midi": 67,
      "hit": false,
      "t": 239250.00000000058,
      "d": 250,
      "v": 90
    },
    {
      "midi": 65,
      "hit": false,
      "t": 239500.00000000058,
      "d": 250,
      "v": 90
    },
    {
      "midi": 64,
      "hit": false,
      "t": 239750.00000000058,
      "d": 250,
      "v": 90
    },
    {
      "midi": 77,
      "hit": false,
      "t": 240000.00000000058,
      "d": 250,
      "v": 90
    },
    {
      "midi": 62,
      "hit": false,
      "t": 240000.00000000058,
      "d": 500,
      "v": 90
    },
    {
      "midi": 76,
      "hit": false,
      "t": 240250.00000000058,
      "d": 250,
      "v": 90
    },
    {
      "midi": 74,
      "hit": false,
      "t": 240500.00000000058,
      "d": 250,
      "v": 90
    },
    {
      "midi": 72,
      "hit": false,
      "t": 240750.00000000058,
      "d": 250,
      "v": 90
    },
    {
      "midi": 70,
      "hit": false,
      "t": 241000.00000000058,
      "d": 250,
      "v": 90
    },
    {
      "midi": 69,
      "hit": false,
      "t": 241250.00000000058,
      "d": 250,
      "v": 90
    },
    {
      "midi": 67,
      "hit": false,
      "t": 241500.00000000058,
      "d": 250,
      "v": 90
    },
    {
      "midi": 65,
      "hit": false,
      "t": 241750.00000000058,
      "d": 250,
      "v": 90
    },
    {
      "midi": 79,
      "hit": false,
      "t": 242000.00000000058,
      "d": 250,
      "v": 90
    },
    {
      "midi": 64,
      "hit": false,
      "t": 242000.00000000058,
      "d": 500,
      "v": 90
    },
    {
      "midi": 77,
      "hit": false,
      "t": 242250.00000000058,
      "d": 250,
      "v": 90
    },
    {
      "midi": 76,
      "hit": false,
      "t": 242500.00000000058,
      "d": 250,
      "v": 90
    },
    {
      "midi": 74,
      "hit": false,
      "t": 242750.00000000058,
      "d": 250,
      "v": 90
    },
    {
      "midi": 72,
      "hit": false,
      "t": 243000.00000000058,
      "d": 250,
      "v": 90
    },
    {
      "midi": 70,
      "hit": false,
      "t": 243250.00000000058,
      "d": 250,
      "v": 90
    },
    {
      "midi": 69,
      "hit": false,
      "t": 243500.00000000058,
      "d": 250,
      "v": 90
    },
    {
      "midi": 67,
      "hit": false,
      "t": 243750.00000000058,
      "d": 250,
      "v": 90
    },
    {
      "midi": 81,
      "hit": false,
      "t": 244000.00000000058,
      "d": 250,
      "v": 90
    },
    {
      "midi": 65,
      "hit": false,
      "t": 244000.00000000058,
      "d": 500,
      "v": 90
    },
    {
      "midi": 77,
      "hit": false,
      "t": 244250.00000000058,
      "d": 250,
      "v": 90
    },
    {
      "midi": 76,
      "hit": false,
      "t": 244500.00000000058,
      "d": 250,
      "v": 90
    },
    {
      "midi": 77,
      "hit": false,
      "t": 244750.00000000058,
      "d": 250,
      "v": 90
    },
    {
      "midi": 72,
      "hit": false,
      "t": 245000.00000000058,
      "d": 250,
      "v": 90
    },
    {
      "midi": 77,
      "hit": false,
      "t": 245250.00000000058,
      "d": 250,
      "v": 90
    },
    {
      "midi": 76,
      "hit": false,
      "t": 245500.00000000058,
      "d": 250,
      "v": 90
    },
    {
      "midi": 77,
      "hit": false,
      "t": 245750.00000000058,
      "d": 250,
      "v": 90
    },
    {
      "midi": 81,
      "hit": false,
      "t": 246000.00000000058,
      "d": 250,
      "v": 90
    },
    {
      "midi": 65,
      "hit": false,
      "t": 246000.00000000058,
      "d": 500,
      "v": 90
    },
    {
      "midi": 77,
      "hit": false,
      "t": 246250.00000000058,
      "d": 250,
      "v": 90
    },
    {
      "midi": 76,
      "hit": false,
      "t": 246500.00000000058,
      "d": 250,
      "v": 90
    },
    {
      "midi": 77,
      "hit": false,
      "t": 246750.00000000058,
      "d": 250,
      "v": 90
    },
    {
      "midi": 72,
      "hit": false,
      "t": 247000.00000000058,
      "d": 250,
      "v": 90
    },
    {
      "midi": 77,
      "hit": false,
      "t": 247250.00000000058,
      "d": 250,
      "v": 90
    },
    {
      "midi": 76,
      "hit": false,
      "t": 247500.00000000058,
      "d": 250,
      "v": 90
    },
    {
      "midi": 77,
      "hit": false,
      "t": 247750.00000000058,
      "d": 250,
      "v": 90
    },
    {
      "midi": 79,
      "hit": false,
      "t": 248000.00000000058,
      "d": 250,
      "v": 90
    },
    {
      "midi": 64,
      "hit": false,
      "t": 248000.00000000058,
      "d": 500,
      "v": 90
    },
    {
      "midi": 76,
      "hit": false,
      "t": 248250.00000000058,
      "d": 250,
      "v": 90
    },
    {
      "midi": 74,
      "hit": false,
      "t": 248500.00000000058,
      "d": 250,
      "v": 90
    },
    {
      "midi": 76,
      "hit": false,
      "t": 248750.00000000058,
      "d": 250,
      "v": 90
    },
    {
      "midi": 72,
      "hit": false,
      "t": 249000.00000000058,
      "d": 250,
      "v": 90
    },
    {
      "midi": 76,
      "hit": false,
      "t": 249250.00000000058,
      "d": 250,
      "v": 90
    },
    {
      "midi": 74,
      "hit": false,
      "t": 249500.00000000058,
      "d": 250,
      "v": 90
    },
    {
      "midi": 76,
      "hit": false,
      "t": 249750.00000000058,
      "d": 250,
      "v": 90
    },
    {
      "midi": 79,
      "hit": false,
      "t": 250000.00000000058,
      "d": 250,
      "v": 90
    },
    {
      "midi": 64,
      "hit": false,
      "t": 250000.00000000058,
      "d": 500,
      "v": 90
    },
    {
      "midi": 76,
      "hit": false,
      "t": 250250.00000000058,
      "d": 250,
      "v": 90
    },
    {
      "midi": 74,
      "hit": false,
      "t": 250500.00000000058,
      "d": 250,
      "v": 90
    },
    {
      "midi": 76,
      "hit": false,
      "t": 250750.00000000058,
      "d": 250,
      "v": 90
    },
    {
      "midi": 72,
      "hit": false,
      "t": 251000.00000000058,
      "d": 250,
      "v": 90
    },
    {
      "midi": 76,
      "hit": false,
      "t": 251250.00000000058,
      "d": 250,
      "v": 90
    },
    {
      "midi": 74,
      "hit": false,
      "t": 251500.00000000058,
      "d": 250,
      "v": 90
    },
    {
      "midi": 76,
      "hit": false,
      "t": 251750.00000000058,
      "d": 250,
      "v": 90
    },
    {
      "midi": 81,
      "hit": false,
      "t": 252000.00000000058,
      "d": 250,
      "v": 90
    },
    {
      "midi": 65,
      "hit": false,
      "t": 252000.00000000058,
      "d": 500,
      "v": 90
    },
    {
      "midi": 77,
      "hit": false,
      "t": 252250.00000000058,
      "d": 250,
      "v": 90
    },
    {
      "midi": 76,
      "hit": false,
      "t": 252500.00000000058,
      "d": 250,
      "v": 90
    },
    {
      "midi": 77,
      "hit": false,
      "t": 252750.00000000058,
      "d": 250,
      "v": 90
    },
    {
      "midi": 72,
      "hit": false,
      "t": 253000.00000000058,
      "d": 250,
      "v": 90
    },
    {
      "midi": 77,
      "hit": false,
      "t": 253250.00000000058,
      "d": 250,
      "v": 90
    },
    {
      "midi": 76,
      "hit": false,
      "t": 253500.00000000058,
      "d": 250,
      "v": 90
    },
    {
      "midi": 77,
      "hit": false,
      "t": 253750.00000000058,
      "d": 250,
      "v": 90
    },
    {
      "midi": 81,
      "hit": false,
      "t": 254000.00000000058,
      "d": 250,
      "v": 90
    },
    {
      "midi": 65,
      "hit": false,
      "t": 254000.00000000058,
      "d": 500,
      "v": 90
    },
    {
      "midi": 77,
      "hit": false,
      "t": 254250.00000000058,
      "d": 250,
      "v": 90
    },
    {
      "midi": 76,
      "hit": false,
      "t": 254500.00000000058,
      "d": 250,
      "v": 90
    },
    {
      "midi": 77,
      "hit": false,
      "t": 254750.00000000058,
      "d": 250,
      "v": 90
    },
    {
      "midi": 72,
      "hit": false,
      "t": 255000.00000000058,
      "d": 250,
      "v": 90
    },
    {
      "midi": 77,
      "hit": false,
      "t": 255250.00000000058,
      "d": 250,
      "v": 90
    },
    {
      "midi": 76,
      "hit": false,
      "t": 255500.00000000058,
      "d": 250,
      "v": 90
    },
    {
      "midi": 77,
      "hit": false,
      "t": 255750.00000000058,
      "d": 250,
      "v": 90
    },
    {
      "midi": 79,
      "hit": false,
      "t": 256000.00000000058,
      "d": 250,
      "v": 90
    },
    {
      "midi": 64,
      "hit": false,
      "t": 256000.00000000058,
      "d": 500,
      "v": 90
    },
    {
      "midi": 76,
      "hit": false,
      "t": 256250.00000000058,
      "d": 250,
      "v": 90
    },
    {
      "midi": 74,
      "hit": false,
      "t": 256500.00000000058,
      "d": 250,
      "v": 90
    },
    {
      "midi": 76,
      "hit": false,
      "t": 256750.00000000058,
      "d": 250,
      "v": 90
    },
    {
      "midi": 72,
      "hit": false,
      "t": 257000.00000000058,
      "d": 250,
      "v": 90
    },
    {
      "midi": 76,
      "hit": false,
      "t": 257250.00000000058,
      "d": 250,
      "v": 90
    },
    {
      "midi": 74,
      "hit": false,
      "t": 257500.00000000058,
      "d": 250,
      "v": 90
    },
    {
      "midi": 76,
      "hit": false,
      "t": 257750.00000000058,
      "d": 250,
      "v": 90
    },
    {
      "midi": 79,
      "hit": false,
      "t": 258000.00000000058,
      "d": 250,
      "v": 90
    },
    {
      "midi": 64,
      "hit": false,
      "t": 258000.00000000058,
      "d": 500,
      "v": 90
    },
    {
      "midi": 76,
      "hit": false,
      "t": 258250.00000000058,
      "d": 250,
      "v": 90
    },
    {
      "midi": 74,
      "hit": false,
      "t": 258500.00000000058,
      "d": 250,
      "v": 90
    },
    {
      "midi": 76,
      "hit": false,
      "t": 258750.00000000058,
      "d": 250,
      "v": 90
    },
    {
      "midi": 72,
      "hit": false,
      "t": 259000.00000000058,
      "d": 250,
      "v": 90
    },
    {
      "midi": 76,
      "hit": false,
      "t": 259250.00000000058,
      "d": 250,
      "v": 90
    },
    {
      "midi": 74,
      "hit": false,
      "t": 259500.00000000058,
      "d": 250,
      "v": 90
    },
    {
      "midi": 76,
      "hit": false,
      "t": 259750.00000000058,
      "d": 250,
      "v": 90
    },
    {
      "midi": 77,
      "hit": false,
      "t": 260000.00000000058,
      "d": 250,
      "v": 90
    },
    {
      "midi": 62,
      "hit": false,
      "t": 260000.00000000058,
      "d": 500,
      "v": 90
    },
    {
      "midi": 79,
      "hit": false,
      "t": 260250.00000000058,
      "d": 250,
      "v": 90
    },
    {
      "midi": 77,
      "hit": false,
      "t": 260500.00000000058,
      "d": 250,
      "v": 90
    },
    {
      "midi": 76,
      "hit": false,
      "t": 260750.00000000058,
      "d": 250,
      "v": 90
    },
    {
      "midi": 74,
      "hit": false,
      "t": 261000.00000000058,
      "d": 250,
      "v": 90
    },
    {
      "midi": 72,
      "hit": false,
      "t": 261250.00000000058,
      "d": 250,
      "v": 90
    },
    {
      "midi": 71,
      "hit": false,
      "t": 261500.00000000058,
      "d": 250,
      "v": 90
    },
    {
      "midi": 69,
      "hit": false,
      "t": 261750.00000000058,
      "d": 250,
      "v": 90
    },
    {
      "midi": 71,
      "hit": false,
      "t": 262000.00000000058,
      "d": 250,
      "v": 90
    },
    {
      "midi": 67,
      "hit": false,
      "t": 262250.0000000006,
      "d": 250,
      "v": 90
    },
    {
      "midi": 71,
      "hit": false,
      "t": 262500.0000000006,
      "d": 250,
      "v": 90
    },
    {
      "midi": 74,
      "hit": false,
      "t": 262750.0000000006,
      "d": 250,
      "v": 90
    },
    {
      "midi": 77,
      "hit": false,
      "t": 263000.0000000006,
      "d": 250,
      "v": 90
    },
    {
      "midi": 81,
      "hit": false,
      "t": 263250.0000000006,
      "d": 250,
      "v": 90
    },
    {
      "midi": 77,
      "hit": false,
      "t": 263500.0000000006,
      "d": 250,
      "v": 90
    },
    {
      "midi": 74,
      "hit": false,
      "t": 263750.0000000006,
      "d": 250,
      "v": 90
    },
    {
      "midi": 71,
      "hit": false,
      "t": 264000.0000000006,
      "d": 250,
      "v": 90
    },
    {
      "midi": 67,
      "hit": false,
      "t": 264250.0000000006,
      "d": 250,
      "v": 90
    },
    {
      "midi": 71,
      "hit": false,
      "t": 264500.0000000006,
      "d": 250,
      "v": 90
    },
    {
      "midi": 74,
      "hit": false,
      "t": 264750.0000000006,
      "d": 250,
      "v": 90
    },
    {
      "midi": 77,
      "hit": false,
      "t": 265000.0000000006,
      "d": 250,
      "v": 90
    },
    {
      "midi": 81,
      "hit": false,
      "t": 265250.0000000006,
      "d": 250,
      "v": 90
    },
    {
      "midi": 77,
      "hit": false,
      "t": 265500.0000000006,
      "d": 250,
      "v": 90
    },
    {
      "midi": 74,
      "hit": false,
      "t": 265750.0000000006,
      "d": 250,
      "v": 90
    },
    {
      "midi": 70,
      "hit": false,
      "t": 266000.0000000006,
      "d": 250,
      "v": 90
    },
    {
      "midi": 67,
      "hit": false,
      "t": 266250.0000000006,
      "d": 250,
      "v": 90
    },
    {
      "midi": 70,
      "hit": false,
      "t": 266500.0000000006,
      "d": 250,
      "v": 90
    },
    {
      "midi": 72,
      "hit": false,
      "t": 266750.0000000006,
      "d": 250,
      "v": 90
    },
    {
      "midi": 76,
      "hit": false,
      "t": 267000.0000000006,
      "d": 250,
      "v": 90
    },
    {
      "midi": 79,
      "hit": false,
      "t": 267250.0000000006,
      "d": 250,
      "v": 90
    },
    {
      "midi": 76,
      "hit": false,
      "t": 267500.0000000006,
      "d": 250,
      "v": 90
    },
    {
      "midi": 72,
      "hit": false,
      "t": 267750.0000000006,
      "d": 250,
      "v": 90
    },
    {
      "midi": 70,
      "hit": false,
      "t": 268000.0000000006,
      "d": 250,
      "v": 90
    },
    {
      "midi": 67,
      "hit": false,
      "t": 268250.0000000006,
      "d": 250,
      "v": 90
    },
    {
      "midi": 70,
      "hit": false,
      "t": 268500.0000000006,
      "d": 250,
      "v": 90
    },
    {
      "midi": 72,
      "hit": false,
      "t": 268750.0000000006,
      "d": 250,
      "v": 90
    },
    {
      "midi": 76,
      "hit": false,
      "t": 269000.0000000006,
      "d": 250,
      "v": 90
    },
    {
      "midi": 79,
      "hit": false,
      "t": 269250.0000000006,
      "d": 250,
      "v": 90
    },
    {
      "midi": 76,
      "hit": false,
      "t": 269500.0000000006,
      "d": 250,
      "v": 90
    },
    {
      "midi": 72,
      "hit": false,
      "t": 269750.0000000006,
      "d": 250,
      "v": 90
    },
    {
      "midi": 69,
      "hit": false,
      "t": 270000.0000000006,
      "d": 250,
      "v": 90
    },
    {
      "midi": 65,
      "hit": false,
      "t": 270250.0000000006,
      "d": 250,
      "v": 90
    },
    {
      "midi": 69,
      "hit": false,
      "t": 270500.0000000006,
      "d": 250,
      "v": 90
    },
    {
      "midi": 72,
      "hit": false,
      "t": 270750.0000000006,
      "d": 250,
      "v": 90
    },
    {
      "midi": 74,
      "hit": false,
      "t": 271000.0000000006,
      "d": 250,
      "v": 90
    },
    {
      "midi": 77,
      "hit": false,
      "t": 271250.0000000006,
      "d": 250,
      "v": 90
    },
    {
      "midi": 74,
      "hit": false,
      "t": 271500.0000000006,
      "d": 250,
      "v": 90
    },
    {
      "midi": 70,
      "hit": false,
      "t": 271750.0000000006,
      "d": 250,
      "v": 90
    },
    {
      "midi": 69,
      "hit": false,
      "t": 272000.0000000006,
      "d": 250,
      "v": 90
    },
    {
      "midi": 65,
      "hit": false,
      "t": 272250.0000000006,
      "d": 250,
      "v": 90
    },
    {
      "midi": 69,
      "hit": false,
      "t": 272500.0000000006,
      "d": 250,
      "v": 90
    },
    {
      "midi": 72,
      "hit": false,
      "t": 272750.0000000006,
      "d": 250,
      "v": 90
    },
    {
      "midi": 74,
      "hit": false,
      "t": 273000.0000000006,
      "d": 250,
      "v": 90
    },
    {
      "midi": 77,
      "hit": false,
      "t": 273250.0000000006,
      "d": 250,
      "v": 90
    },
    {
      "midi": 74,
      "hit": false,
      "t": 273500.0000000006,
      "d": 250,
      "v": 90
    },
    {
      "midi": 70,
      "hit": false,
      "t": 273750.0000000006,
      "d": 250,
      "v": 90
    },
    {
      "midi": 67,
      "hit": false,
      "t": 274000.0000000006,
      "d": 250,
      "v": 90
    },
    {
      "midi": 64,
      "hit": false,
      "t": 274250.0000000006,
      "d": 250,
      "v": 90
    },
    {
      "midi": 67,
      "hit": false,
      "t": 274500.0000000006,
      "d": 250,
      "v": 90
    },
    {
      "midi": 70,
      "hit": false,
      "t": 274750.0000000006,
      "d": 250,
      "v": 90
    },
    {
      "midi": 73,
      "hit": false,
      "t": 275000.0000000006,
      "d": 250,
      "v": 90
    },
    {
      "midi": 76,
      "hit": false,
      "t": 275250.0000000006,
      "d": 250,
      "v": 90
    },
    {
      "midi": 73,
      "hit": false,
      "t": 275500.0000000006,
      "d": 250,
      "v": 90
    },
    {
      "midi": 70,
      "hit": false,
      "t": 275750.0000000006,
      "d": 250,
      "v": 90
    },
    {
      "midi": 67,
      "hit": false,
      "t": 276000.0000000006,
      "d": 250,
      "v": 90
    },
    {
      "midi": 64,
      "hit": false,
      "t": 276250.0000000006,
      "d": 250,
      "v": 90
    },
    {
      "midi": 67,
      "hit": false,
      "t": 276500.0000000006,
      "d": 250,
      "v": 90
    },
    {
      "midi": 70,
      "hit": false,
      "t": 276750.0000000006,
      "d": 250,
      "v": 90
    },
    {
      "midi": 73,
      "hit": false,
      "t": 277000.0000000006,
      "d": 250,
      "v": 90
    },
    {
      "midi": 76,
      "hit": false,
      "t": 277250.0000000006,
      "d": 250,
      "v": 90
    },
    {
      "midi": 73,
      "hit": false,
      "t": 277500.0000000006,
      "d": 250,
      "v": 90
    },
    {
      "midi": 70,
      "hit": false,
      "t": 277750.0000000006,
      "d": 250,
      "v": 90
    },
    {
      "midi": 69,
      "hit": false,
      "t": 278000.0000000006,
      "d": 500,
      "v": 90
    },
    {
      "midi": 81,
      "hit": false,
      "t": 278250.0000000006,
      "d": 250,
      "v": 90
    },
    {
      "midi": 79,
      "hit": false,
      "t": 278500.0000000006,
      "d": 250,
      "v": 90
    },
    {
      "midi": 73,
      "hit": false,
      "t": 278500.0000000006,
      "d": 500,
      "v": 90
    },
    {
      "midi": 81,
      "hit": false,
      "t": 278750.0000000006,
      "d": 250,
      "v": 90
    },
    {
      "midi": 77,
      "hit": false,
      "t": 279000.0000000006,
      "d": 250,
      "v": 90
    },
    {
      "midi": 74,
      "hit": false,
      "t": 279000.0000000006,
      "d": 500,
      "v": 90
    },
    {
      "midi": 81,
      "hit": false,
      "t": 279250.0000000006,
      "d": 250,
      "v": 90
    },
    {
      "midi": 76,
      "hit": false,
      "t": 279500.0000000006,
      "d": 250,
      "v": 90
    },
    {
      "midi": 67,
      "hit": false,
      "t": 279500.0000000006,
      "d": 500,
      "v": 90
    },
    {
      "midi": 81,
      "hit": false,
      "t": 279750.0000000006,
      "d": 250,
      "v": 90
    },
    {
      "midi": 74,
      "hit": false,
      "t": 280000.0000000006,
      "d": 250,
      "v": 90
    },
    {
      "midi": 65,
      "hit": false,
      "t": 280000.0000000006,
      "d": 500,
      "v": 90
    },
    {
      "midi": 81,
      "hit": false,
      "t": 280250.0000000006,
      "d": 250,
      "v": 90
    },
    {
      "midi": 73,
      "hit": false,
      "t": 280500.0000000006,
      "d": 250,
      "v": 90
    },
    {
      "midi": 69,
      "hit": false,
      "t": 280500.0000000006,
      "d": 500,
      "v": 90
    },
    {
      "midi": 81,
      "hit": false,
      "t": 280750.0000000006,
      "d": 250,
      "v": 90
    },
    {
      "midi": 74,
      "hit": false,
      "t": 281000.0000000006,
      "d": 250,
      "v": 90
    },
    {
      "midi": 71,
      "hit": false,
      "t": 281000.0000000006,
      "d": 500,
      "v": 90
    },
    {
      "midi": 81,
      "hit": false,
      "t": 281250.0000000006,
      "d": 250,
      "v": 90
    },
    {
      "midi": 76,
      "hit": false,
      "t": 281500.0000000006,
      "d": 250,
      "v": 90
    },
    {
      "midi": 73,
      "hit": false,
      "t": 281500.0000000006,
      "d": 500,
      "v": 90
    },
    {
      "midi": 81,
      "hit": false,
      "t": 281750.0000000006,
      "d": 250,
      "v": 90
    },
    {
      "midi": 77,
      "hit": false,
      "t": 282000.0000000006,
      "d": 250,
      "v": 90
    },
    {
      "midi": 74,
      "hit": false,
      "t": 282000.0000000006,
      "d": 500,
      "v": 90
    },
    {
      "midi": 81,
      "hit": false,
      "t": 282250.0000000006,
      "d": 250,
      "v": 90
    },
    {
      "midi": 69,
      "hit": false,
      "t": 282500.0000000006,
      "d": 250,
      "v": 90
    },
    {
      "midi": 73,
      "hit": false,
      "t": 282500.0000000006,
      "d": 500,
      "v": 90
    },
    {
      "midi": 81,
      "hit": false,
      "t": 282750.0000000006,
      "d": 250,
      "v": 90
    },
    {
      "midi": 71,
      "hit": false,
      "t": 283000.0000000006,
      "d": 250,
      "v": 90
    },
    {
      "midi": 74,
      "hit": false,
      "t": 283000.0000000006,
      "d": 500,
      "v": 90
    },
    {
      "midi": 81,
      "hit": false,
      "t": 283250.0000000006,
      "d": 250,
      "v": 90
    },
    {
      "midi": 73,
      "hit": false,
      "t": 283500.0000000006,
      "d": 250,
      "v": 90
    },
    {
      "midi": 76,
      "hit": false,
      "t": 283500.0000000006,
      "d": 500,
      "v": 90
    },
    {
      "midi": 81,
      "hit": false,
      "t": 283750.0000000006,
      "d": 250,
      "v": 90
    },
    {
      "midi": 74,
      "hit": false,
      "t": 284000.0000000006,
      "d": 250,
      "v": 90
    },
    {
      "midi": 77,
      "hit": false,
      "t": 284000.0000000006,
      "d": 500,
      "v": 90
    },
    {
      "midi": 81,
      "hit": false,
      "t": 284250.0000000006,
      "d": 250,
      "v": 90
    },
    {
      "midi": 73,
      "hit": false,
      "t": 284500.0000000006,
      "d": 250,
      "v": 90
    },
    {
      "midi": 76,
      "hit": false,
      "t": 284500.0000000006,
      "d": 500,
      "v": 90
    },
    {
      "midi": 81,
      "hit": false,
      "t": 284750.0000000006,
      "d": 250,
      "v": 90
    },
    {
      "midi": 74,
      "hit": false,
      "t": 285000.0000000006,
      "d": 500,
      "v": 90
    },
    {
      "midi": 77,
      "hit": false,
      "t": 285000.0000000006,
      "d": 250,
      "v": 90
    },
    {
      "midi": 69,
      "hit": false,
      "t": 285250.0000000006,
      "d": 250,
      "v": 90
    },
    {
      "midi": 76,
      "hit": false,
      "t": 285500.0000000006,
      "d": 500,
      "v": 90
    },
    {
      "midi": 73,
      "hit": false,
      "t": 285500.0000000006,
      "d": 250,
      "v": 90
    },
    {
      "midi": 67,
      "hit": false,
      "t": 285500.0000000006,
      "d": 500,
      "v": 90
    },
    {
      "midi": 69,
      "hit": false,
      "t": 285750.0000000006,
      "d": 250,
      "v": 90
    },
    {
      "midi": 74,
      "hit": false,
      "t": 286000.0000000006,
      "d": 500,
      "v": 90
    },
    {
      "midi": 66,
      "hit": false,
      "t": 286250.0000000006,
      "d": 250,
      "v": 90
    },
    {
      "midi": 69,
      "hit": false,
      "t": 286500.0000000006,
      "d": 500,
      "v": 90
    },
    {
      "midi": 72,
      "hit": false,
      "t": 286500.0000000006,
      "d": 500,
      "v": 90
    },
    {
      "midi": 64,
      "hit": false,
      "t": 286500.0000000006,
      "d": 250,
      "v": 90
    },
    {
      "midi": 66,
      "hit": false,
      "t": 286750.0000000006,
      "d": 250,
      "v": 90
    },
    {
      "midi": 67,
      "hit": false,
      "t": 287000.0000000006,
      "d": 500,
      "v": 90
    },
    {
      "midi": 70,
      "hit": false,
      "t": 287000.0000000006,
      "d": 500,
      "v": 90
    },
    {
      "midi": 62,
      "hit": false,
      "t": 287250.0000000006,
      "d": 250,
      "v": 90
    },
    {
      "midi": 66,
      "hit": false,
      "t": 287500.0000000006,
      "d": 500,
      "v": 90
    },
    {
      "midi": 69,
      "hit": false,
      "t": 287500.0000000006,
      "d": 500,
      "v": 90
    },
    {
      "midi": 60,
      "hit": false,
      "t": 287500.0000000006,
      "d": 250,
      "v": 90
    },
    {
      "midi": 62,
      "hit": false,
      "t": 287750.0000000006,
      "d": 250,
      "v": 90
    },
    {
      "midi": 70,
      "hit": false,
      "t": 288000.0000000006,
      "d": 250,
      "v": 90
    },
    {
      "midi": 67,
      "hit": false,
      "t": 288000.0000000006,
      "d": 500,
      "v": 90
    },
    {
      "midi": 58,
      "hit": false,
      "t": 288000.0000000006,
      "d": 250,
      "v": 90
    },
    {
      "midi": 69,
      "hit": false,
      "t": 288250.0000000006,
      "d": 250,
      "v": 90
    },
    {
      "midi": 60,
      "hit": false,
      "t": 288250.0000000006,
      "d": 250,
      "v": 90
    },
    {
      "midi": 67,
      "hit": false,
      "t": 288500.0000000006,
      "d": 250,
      "v": 90
    },
    {
      "midi": 58,
      "hit": false,
      "t": 288500.0000000006,
      "d": 250,
      "v": 90
    },
    {
      "midi": 65,
      "hit": false,
      "t": 288750.0000000006,
      "d": 250,
      "v": 90
    },
    {
      "midi": 57,
      "hit": false,
      "t": 288750.0000000006,
      "d": 250,
      "v": 90
    },
    {
      "midi": 64,
      "hit": false,
      "t": 289000.0000000006,
      "d": 250,
      "v": 90
    },
    {
      "midi": 55,
      "hit": false,
      "t": 289000.0000000006,
      "d": 250,
      "v": 90
    },
    {
      "midi": 62,
      "hit": false,
      "t": 289250.0000000006,
      "d": 250,
      "v": 90
    },
    {
      "midi": 53,
      "hit": false,
      "t": 289250.0000000006,
      "d": 250,
      "v": 90
    },
    {
      "midi": 61,
      "hit": false,
      "t": 289500.0000000006,
      "d": 250,
      "v": 90
    },
    {
      "midi": 52,
      "hit": false,
      "t": 289500.0000000006,
      "d": 250,
      "v": 90
    },
    {
      "midi": 59,
      "hit": false,
      "t": 289750.0000000006,
      "d": 250,
      "v": 90
    },
    {
      "midi": 50,
      "hit": false,
      "t": 289750.0000000006,
      "d": 250,
      "v": 90
    },
    {
      "midi": 49,
      "hit": false,
      "t": 290000.0000000006,
      "d": 250,
      "v": 90
    },
    {
      "midi": 45,
      "hit": false,
      "t": 290250.0000000006,
      "d": 250,
      "v": 90
    },
    {
      "midi": 49,
      "hit": false,
      "t": 290500.0000000006,
      "d": 250,
      "v": 90
    },
    {
      "midi": 52,
      "hit": false,
      "t": 290750.0000000006,
      "d": 250,
      "v": 90
    },
    {
      "midi": 55,
      "hit": false,
      "t": 291000.0000000006,
      "d": 250,
      "v": 90
    },
    {
      "midi": 58,
      "hit": false,
      "t": 291250.0000000006,
      "d": 250,
      "v": 90
    },
    {
      "midi": 55,
      "hit": false,
      "t": 291500.0000000006,
      "d": 250,
      "v": 90
    },
    {
      "midi": 52,
      "hit": false,
      "t": 291750.0000000006,
      "d": 250,
      "v": 90
    },
    {
      "midi": 49,
      "hit": false,
      "t": 292000.0000000006,
      "d": 250,
      "v": 90
    },
    {
      "midi": 45,
      "hit": false,
      "t": 292250.0000000006,
      "d": 250,
      "v": 90
    },
    {
      "midi": 49,
      "hit": false,
      "t": 292500.0000000006,
      "d": 250,
      "v": 90
    },
    {
      "midi": 52,
      "hit": false,
      "t": 292750.0000000006,
      "d": 250,
      "v": 90
    },
    {
      "midi": 55,
      "hit": false,
      "t": 293000.0000000006,
      "d": 250,
      "v": 90
    },
    {
      "midi": 58,
      "hit": false,
      "t": 293250.0000000006,
      "d": 250,
      "v": 90
    },
    {
      "midi": 55,
      "hit": false,
      "t": 293500.0000000006,
      "d": 250,
      "v": 90
    },
    {
      "midi": 52,
      "hit": false,
      "t": 293750.0000000006,
      "d": 250,
      "v": 90
    },
    {
      "midi": 50,
      "hit": false,
      "t": 294000.0000000006,
      "d": 250,
      "v": 90
    },
    {
      "midi": 45,
      "hit": false,
      "t": 294250.0000000006,
      "d": 250,
      "v": 90
    },
    {
      "midi": 50,
      "hit": false,
      "t": 294500.0000000006,
      "d": 250,
      "v": 90
    },
    {
      "midi": 53,
      "hit": false,
      "t": 294750.0000000006,
      "d": 250,
      "v": 90
    },
    {
      "midi": 57,
      "hit": false,
      "t": 295000.0000000006,
      "d": 250,
      "v": 90
    },
    {
      "midi": 62,
      "hit": false,
      "t": 295250.0000000006,
      "d": 250,
      "v": 90
    },
    {
      "midi": 57,
      "hit": false,
      "t": 295500.0000000006,
      "d": 250,
      "v": 90
    },
    {
      "midi": 53,
      "hit": false,
      "t": 295750.0000000006,
      "d": 250,
      "v": 90
    },
    {
      "midi": 50,
      "hit": false,
      "t": 296000.0000000006,
      "d": 250,
      "v": 90
    },
    {
      "midi": 45,
      "hit": false,
      "t": 296250.0000000006,
      "d": 250,
      "v": 90
    },
    {
      "midi": 50,
      "hit": false,
      "t": 296500.0000000006,
      "d": 250,
      "v": 90
    },
    {
      "midi": 53,
      "hit": false,
      "t": 296750.0000000006,
      "d": 250,
      "v": 90
    },
    {
      "midi": 57,
      "hit": false,
      "t": 297000.0000000006,
      "d": 250,
      "v": 90
    },
    {
      "midi": 62,
      "hit": false,
      "t": 297250.0000000006,
      "d": 250,
      "v": 90
    },
    {
      "midi": 57,
      "hit": false,
      "t": 297500.0000000006,
      "d": 250,
      "v": 90
    },
    {
      "midi": 53,
      "hit": false,
      "t": 297750.0000000006,
      "d": 250,
      "v": 90
    },
    {
      "midi": 49,
      "hit": false,
      "t": 298000.0000000006,
      "d": 250,
      "v": 90
    },
    {
      "midi": 45,
      "hit": false,
      "t": 298250.0000000006,
      "d": 250,
      "v": 90
    },
    {
      "midi": 49,
      "hit": false,
      "t": 298500.0000000006,
      "d": 250,
      "v": 90
    },
    {
      "midi": 52,
      "hit": false,
      "t": 298750.0000000006,
      "d": 250,
      "v": 90
    },
    {
      "midi": 55,
      "hit": false,
      "t": 299000.0000000006,
      "d": 250,
      "v": 90
    },
    {
      "midi": 58,
      "hit": false,
      "t": 299250.0000000006,
      "d": 250,
      "v": 90
    },
    {
      "midi": 55,
      "hit": false,
      "t": 299500.0000000006,
      "d": 250,
      "v": 90
    },
    {
      "midi": 52,
      "hit": false,
      "t": 299750.0000000006,
      "d": 250,
      "v": 90
    },
    {
      "midi": 49,
      "hit": false,
      "t": 300000.0000000006,
      "d": 250,
      "v": 90
    },
    {
      "midi": 45,
      "hit": false,
      "t": 300250.0000000006,
      "d": 250,
      "v": 90
    },
    {
      "midi": 49,
      "hit": false,
      "t": 300500.0000000006,
      "d": 250,
      "v": 90
    },
    {
      "midi": 52,
      "hit": false,
      "t": 300750.0000000006,
      "d": 250,
      "v": 90
    },
    {
      "midi": 55,
      "hit": false,
      "t": 301000.0000000006,
      "d": 250,
      "v": 90
    },
    {
      "midi": 58,
      "hit": false,
      "t": 301250.0000000006,
      "d": 250,
      "v": 90
    },
    {
      "midi": 55,
      "hit": false,
      "t": 301500.0000000006,
      "d": 250,
      "v": 90
    },
    {
      "midi": 52,
      "hit": false,
      "t": 301750.0000000006,
      "d": 250,
      "v": 90
    },
    {
      "midi": 50,
      "hit": false,
      "t": 302000.0000000006,
      "d": 250,
      "v": 90
    },
    {
      "midi": 45,
      "hit": false,
      "t": 302250.0000000006,
      "d": 250,
      "v": 90
    },
    {
      "midi": 50,
      "hit": false,
      "t": 302500.0000000006,
      "d": 250,
      "v": 90
    },
    {
      "midi": 53,
      "hit": false,
      "t": 302750.0000000006,
      "d": 250,
      "v": 90
    },
    {
      "midi": 57,
      "hit": false,
      "t": 303000.0000000006,
      "d": 250,
      "v": 90
    },
    {
      "midi": 62,
      "hit": false,
      "t": 303250.0000000006,
      "d": 250,
      "v": 90
    },
    {
      "midi": 57,
      "hit": false,
      "t": 303500.0000000006,
      "d": 250,
      "v": 90
    },
    {
      "midi": 53,
      "hit": false,
      "t": 303750.0000000006,
      "d": 250,
      "v": 90
    },
    {
      "midi": 50,
      "hit": false,
      "t": 304000.0000000006,
      "d": 250,
      "v": 90
    },
    {
      "midi": 45,
      "hit": false,
      "t": 304250.0000000006,
      "d": 250,
      "v": 90
    },
    {
      "midi": 50,
      "hit": false,
      "t": 304500.0000000006,
      "d": 250,
      "v": 90
    },
    {
      "midi": 53,
      "hit": false,
      "t": 304750.0000000006,
      "d": 250,
      "v": 90
    },
    {
      "midi": 57,
      "hit": false,
      "t": 305000.0000000006,
      "d": 250,
      "v": 90
    },
    {
      "midi": 62,
      "hit": false,
      "t": 305250.0000000006,
      "d": 250,
      "v": 90
    },
    {
      "midi": 57,
      "hit": false,
      "t": 305500.0000000006,
      "d": 250,
      "v": 90
    },
    {
      "midi": 53,
      "hit": false,
      "t": 305750.0000000006,
      "d": 250,
      "v": 90
    },
    {
      "midi": 52,
      "hit": false,
      "t": 306000.0000000006,
      "d": 250,
      "v": 90
    },
    {
      "midi": 49,
      "hit": false,
      "t": 306250.0000000006,
      "d": 250,
      "v": 90
    },
    {
      "midi": 52,
      "hit": false,
      "t": 306500.0000000006,
      "d": 250,
      "v": 90
    },
    {
      "midi": 55,
      "hit": false,
      "t": 306750.0000000006,
      "d": 250,
      "v": 90
    },
    {
      "midi": 58,
      "hit": false,
      "t": 307000.0000000006,
      "d": 250,
      "v": 90
    },
    {
      "midi": 61,
      "hit": false,
      "t": 307250.0000000006,
      "d": 250,
      "v": 90
    },
    {
      "midi": 58,
      "hit": false,
      "t": 307500.0000000006,
      "d": 250,
      "v": 90
    },
    {
      "midi": 55,
      "hit": false,
      "t": 307750.0000000006,
      "d": 250,
      "v": 90
    },
    {
      "midi": 52,
      "hit": false,
      "t": 308000.0000000006,
      "d": 250,
      "v": 90
    },
    {
      "midi": 49,
      "hit": false,
      "t": 308250.0000000006,
      "d": 250,
      "v": 90
    },
    {
      "midi": 52,
      "hit": false,
      "t": 308500.0000000006,
      "d": 250,
      "v": 90
    },
    {
      "midi": 55,
      "hit": false,
      "t": 308750.0000000006,
      "d": 250,
      "v": 90
    },
    {
      "midi": 58,
      "hit": false,
      "t": 309000.0000000006,
      "d": 250,
      "v": 90
    },
    {
      "midi": 61,
      "hit": false,
      "t": 309250.0000000006,
      "d": 250,
      "v": 90
    },
    {
      "midi": 58,
      "hit": false,
      "t": 309500.0000000006,
      "d": 250,
      "v": 90
    },
    {
      "midi": 55,
      "hit": false,
      "t": 309750.0000000006,
      "d": 250,
      "v": 90
    },
    {
      "midi": 53,
      "hit": false,
      "t": 310000.0000000006,
      "d": 250,
      "v": 90
    },
    {
      "midi": 50,
      "hit": false,
      "t": 310250.0000000006,
      "d": 250,
      "v": 90
    },
    {
      "midi": 53,
      "hit": false,
      "t": 310500.0000000006,
      "d": 250,
      "v": 90
    },
    {
      "midi": 57,
      "hit": false,
      "t": 310750.0000000006,
      "d": 250,
      "v": 90
    },
    {
      "midi": 62,
      "hit": false,
      "t": 311000.0000000006,
      "d": 250,
      "v": 90
    },
    {
      "midi": 65,
      "hit": false,
      "t": 311250.0000000006,
      "d": 250,
      "v": 90
    },
    {
      "midi": 62,
      "hit": false,
      "t": 311500.0000000006,
      "d": 500,
      "v": 90
    },
    {
      "midi": 57,
      "hit": false,
      "t": 311750.0000000006,
      "d": 250,
      "v": 90
    },
    {
      "midi": 53,
      "hit": false,
      "t": 312000.0000000006,
      "d": 250,
      "v": 90
    },
    {
      "midi": 50,
      "hit": false,
      "t": 312250.0000000006,
      "d": 250,
      "v": 90
    },
    {
      "midi": 53,
      "hit": false,
      "t": 312500.0000000006,
      "d": 250,
      "v": 90
    },
    {
      "midi": 57,
      "hit": false,
      "t": 312750.0000000006,
      "d": 250,
      "v": 90
    },
    {
      "midi": 62,
      "hit": false,
      "t": 313000.0000000006,
      "d": 250,
      "v": 90
    },
    {
      "midi": 65,
      "hit": false,
      "t": 313250.0000000006,
      "d": 250,
      "v": 90
    },
    {
      "midi": 62,
      "hit": false,
      "t": 313500.0000000006,
      "d": 500,
      "v": 90
    },
    {
      "midi": 57,
      "hit": false,
      "t": 313750.0000000006,
      "d": 250,
      "v": 90
    },
    {
      "midi": 52,
      "hit": false,
      "t": 314000.0000000006,
      "d": 250,
      "v": 90
    },
    {
      "midi": 49,
      "hit": false,
      "t": 314250.0000000006,
      "d": 250,
      "v": 90
    },
    {
      "midi": 52,
      "hit": false,
      "t": 314500.0000000006,
      "d": 250,
      "v": 90
    },
    {
      "midi": 55,
      "hit": false,
      "t": 314750.0000000006,
      "d": 250,
      "v": 90
    },
    {
      "midi": 58,
      "hit": false,
      "t": 315000.0000000006,
      "d": 250,
      "v": 90
    },
    {
      "midi": 61,
      "hit": false,
      "t": 315250.0000000006,
      "d": 250,
      "v": 90
    },
    {
      "midi": 58,
      "hit": false,
      "t": 315500.0000000006,
      "d": 250,
      "v": 90
    },
    {
      "midi": 55,
      "hit": false,
      "t": 315750.0000000006,
      "d": 250,
      "v": 90
    },
    {
      "midi": 52,
      "hit": false,
      "t": 316000.0000000006,
      "d": 250,
      "v": 90
    },
    {
      "midi": 49,
      "hit": false,
      "t": 316250.0000000006,
      "d": 250,
      "v": 90
    },
    {
      "midi": 52,
      "hit": false,
      "t": 316500.0000000006,
      "d": 250,
      "v": 90
    },
    {
      "midi": 55,
      "hit": false,
      "t": 316750.0000000006,
      "d": 250,
      "v": 90
    },
    {
      "midi": 58,
      "hit": false,
      "t": 317000.0000000006,
      "d": 250,
      "v": 90
    },
    {
      "midi": 61,
      "hit": false,
      "t": 317250.0000000006,
      "d": 250,
      "v": 90
    },
    {
      "midi": 58,
      "hit": false,
      "t": 317500.0000000006,
      "d": 250,
      "v": 90
    },
    {
      "midi": 55,
      "hit": false,
      "t": 317750.0000000006,
      "d": 250,
      "v": 90
    },
    {
      "midi": 53,
      "hit": false,
      "t": 318000.0000000006,
      "d": 250,
      "v": 90
    },
    {
      "midi": 50,
      "hit": false,
      "t": 318250.0000000006,
      "d": 250,
      "v": 90
    },
    {
      "midi": 53,
      "hit": false,
      "t": 318500.0000000006,
      "d": 250,
      "v": 90
    },
    {
      "midi": 57,
      "hit": false,
      "t": 318750.0000000006,
      "d": 250,
      "v": 90
    },
    {
      "midi": 62,
      "hit": false,
      "t": 319000.0000000006,
      "d": 250,
      "v": 90
    },
    {
      "midi": 65,
      "hit": false,
      "t": 319250.0000000006,
      "d": 250,
      "v": 90
    },
    {
      "midi": 62,
      "hit": false,
      "t": 319500.0000000006,
      "d": 500,
      "v": 90
    },
    {
      "midi": 57,
      "hit": false,
      "t": 319750.0000000006,
      "d": 250,
      "v": 90
    },
    {
      "midi": 53,
      "hit": false,
      "t": 320000.0000000006,
      "d": 250,
      "v": 90
    },
    {
      "midi": 50,
      "hit": false,
      "t": 320250.0000000006,
      "d": 250,
      "v": 90
    },
    {
      "midi": 53,
      "hit": false,
      "t": 320500.0000000006,
      "d": 250,
      "v": 90
    },
    {
      "midi": 57,
      "hit": false,
      "t": 320750.0000000006,
      "d": 250,
      "v": 90
    },
    {
      "midi": 62,
      "hit": false,
      "t": 321000.0000000006,
      "d": 250,
      "v": 90
    },
    {
      "midi": 65,
      "hit": false,
      "t": 321250.0000000006,
      "d": 250,
      "v": 90
    },
    {
      "midi": 62,
      "hit": false,
      "t": 321500.0000000006,
      "d": 500,
      "v": 90
    },
    {
      "midi": 57,
      "hit": false,
      "t": 321750.0000000006,
      "d": 250,
      "v": 90
    },
    {
      "midi": 55,
      "hit": false,
      "t": 322000.0000000006,
      "d": 250,
      "v": 90
    },
    {
      "midi": 52,
      "hit": false,
      "t": 322250.0000000006,
      "d": 250,
      "v": 90
    },
    {
      "midi": 55,
      "hit": false,
      "t": 322500.0000000006,
      "d": 250,
      "v": 90
    },
    {
      "midi": 58,
      "hit": false,
      "t": 322750.0000000006,
      "d": 250,
      "v": 90
    },
    {
      "midi": 61,
      "hit": false,
      "t": 323000.0000000006,
      "d": 250,
      "v": 90
    },
    {
      "midi": 64,
      "hit": false,
      "t": 323250.0000000006,
      "d": 250,
      "v": 90
    },
    {
      "midi": 61,
      "hit": false,
      "t": 323500.0000000006,
      "d": 250,
      "v": 90
    },
    {
      "midi": 58,
      "hit": false,
      "t": 323750.0000000006,
      "d": 250,
      "v": 90
    },
    {
      "midi": 55,
      "hit": false,
      "t": 324000.0000000006,
      "d": 250,
      "v": 90
    },
    {
      "midi": 52,
      "hit": false,
      "t": 324250.0000000006,
      "d": 250,
      "v": 90
    },
    {
      "midi": 55,
      "hit": false,
      "t": 324500.0000000006,
      "d": 250,
      "v": 90
    },
    {
      "midi": 58,
      "hit": false,
      "t": 324750.0000000006,
      "d": 250,
      "v": 90
    },
    {
      "midi": 61,
      "hit": false,
      "t": 325000.0000000006,
      "d": 250,
      "v": 90
    },
    {
      "midi": 64,
      "hit": false,
      "t": 325250.0000000006,
      "d": 250,
      "v": 90
    },
    {
      "midi": 61,
      "hit": false,
      "t": 325500.0000000006,
      "d": 250,
      "v": 90
    },
    {
      "midi": 58,
      "hit": false,
      "t": 325750.0000000006,
      "d": 250,
      "v": 90
    },
    {
      "midi": 57,
      "hit": false,
      "t": 326000.0000000006,
      "d": 250,
      "v": 90
    },
    {
      "midi": 53,
      "hit": false,
      "t": 326250.0000000006,
      "d": 250,
      "v": 90
    },
    {
      "midi": 57,
      "hit": false,
      "t": 326500.0000000006,
      "d": 250,
      "v": 90
    },
    {
      "midi": 61,
      "hit": false,
      "t": 326750.0000000006,
      "d": 250,
      "v": 90
    },
    {
      "midi": 62,
      "hit": false,
      "t": 327000.0000000006,
      "d": 250,
      "v": 90
    },
    {
      "midi": 65,
      "hit": false,
      "t": 327250.0000000006,
      "d": 250,
      "v": 90
    },
    {
      "midi": 62,
      "hit": false,
      "t": 327500.0000000006,
      "d": 500,
      "v": 90
    },
    {
      "midi": 57,
      "hit": false,
      "t": 327750.0000000006,
      "d": 250,
      "v": 90
    },
    {
      "midi": 58,
      "hit": false,
      "t": 328000.0000000006,
      "d": 750,
      "v": 90
    },
    {
      "midi": 62,
      "hit": false,
      "t": 328250.0000000006,
      "d": 250,
      "v": 90
    },
    {
      "midi": 58,
      "hit": false,
      "t": 328500.0000000006,
      "d": 500,
      "v": 90
    },
    {
      "midi": 55,
      "hit": false,
      "t": 328750.0000000006,
      "d": 250,
      "v": 90
    },
    {
      "midi": 53,
      "hit": false,
      "t": 329000.0000000006,
      "d": 250,
      "v": 90
    },
    {
      "midi": 57,
      "hit": false,
      "t": 329250.0000000006,
      "d": 250,
      "v": 90
    },
    {
      "midi": 53,
      "hit": false,
      "t": 329500.0000000006,
      "d": 250,
      "v": 90
    },
    {
      "midi": 50,
      "hit": false,
      "t": 329750.0000000006,
      "d": 250,
      "v": 90
    },
    {
      "midi": 45,
      "hit": false,
      "t": 330000.0000000006,
      "d": 250,
      "v": 90
    },
    {
      "midi": 50,
      "hit": false,
      "t": 330250.0000000006,
      "d": 250,
      "v": 90
    },
    {
      "midi": 45,
      "hit": false,
      "t": 330500.0000000006,
      "d": 250,
      "v": 90
    },
    {
      "midi": 41,
      "hit": false,
      "t": 330750.0000000006,
      "d": 250,
      "v": 90
    },
    {
      "midi": 38,
      "hit": false,
      "t": 331000.0000000006,
      "d": 250,
      "v": 90
    },
    {
      "midi": 50,
      "hit": false,
      "t": 331250.0000000006,
      "d": 250,
      "v": 90
    },
    {
      "midi": 49,
      "hit": false,
      "t": 331500.0000000006,
      "d": 250,
      "v": 90
    },
    {
      "midi": 47,
      "hit": false,
      "t": 331750.0000000006,
      "d": 250,
      "v": 90
    },
    {
      "midi": 49,
      "hit": false,
      "t": 332000.0000000006,
      "d": 250,
      "v": 90
    },
    {
      "midi": 58,
      "hit": false,
      "t": 332250.0000000006,
      "d": 250,
      "v": 90
    },
    {
      "midi": 57,
      "hit": false,
      "t": 332500.0000000006,
      "d": 250,
      "v": 90
    },
    {
      "midi": 55,
      "hit": false,
      "t": 332750.0000000006,
      "d": 250,
      "v": 90
    },
    {
      "midi": 53,
      "hit": false,
      "t": 333000.0000000006,
      "d": 250,
      "v": 90
    },
    {
      "midi": 55,
      "hit": false,
      "t": 333250.0000000006,
      "d": 250,
      "v": 90
    },
    {
      "midi": 53,
      "hit": false,
      "t": 333500.0000000006,
      "d": 250,
      "v": 90
    },
    {
      "midi": 52,
      "hit": false,
      "t": 333750.0000000006,
      "d": 250,
      "v": 90
    },
    {
      "midi": 50,
      "hit": false,
      "t": 334000.0000000006,
      "d": 250,
      "v": 90
    },
    {
      "midi": 58,
      "hit": false,
      "t": 334250.0000000006,
      "d": 250,
      "v": 90
    },
    {
      "midi": 57,
      "hit": false,
      "t": 334500.0000000006,
      "d": 250,
      "v": 90
    },
    {
      "midi": 55,
      "hit": false,
      "t": 334750.0000000006,
      "d": 250,
      "v": 90
    },
    {
      "midi": 53,
      "hit": false,
      "t": 335000.0000000006,
      "d": 250,
      "v": 90
    },
    {
      "midi": 55,
      "hit": false,
      "t": 335250.0000000006,
      "d": 250,
      "v": 90
    },
    {
      "midi": 53,
      "hit": false,
      "t": 335500.0000000006,
      "d": 250,
      "v": 90
    },
    {
      "midi": 52,
      "hit": false,
      "t": 335750.0000000006,
      "d": 250,
      "v": 90
    },
    {
      "midi": 50,
      "hit": false,
      "t": 336000.0000000006,
      "d": 250,
      "v": 90
    },
    {
      "midi": 52,
      "hit": false,
      "t": 336250.0000000006,
      "d": 250,
      "v": 90
    },
    {
      "midi": 53,
      "hit": false,
      "t": 336250.0000000006,
      "d": 250,
      "v": 90
    },
    {
      "midi": 55,
      "hit": false,
      "t": 336500.0000000006,
      "d": 250,
      "v": 90
    },
    {
      "midi": 57,
      "hit": false,
      "t": 336500.0000000006,
      "d": 250,
      "v": 90
    },
    {
      "midi": 59,
      "hit": false,
      "t": 336750.0000000006,
      "d": 250,
      "v": 90
    },
    {
      "midi": 61,
      "hit": false,
      "t": 336750.0000000006,
      "d": 250,
      "v": 90
    },
    {
      "midi": 62,
      "hit": false,
      "t": 337000.0000000006,
      "d": 1000,
      "v": 90
    },
    {
      "midi": 65,
      "hit": false,
      "t": 337250.0000000006,
      "d": 250,
      "v": 90
    },
    {
      "midi": 64,
      "hit": false,
      "t": 337500.0000000006,
      "d": 250,
      "v": 90
    },
    {
      "midi": 62,
      "hit": false,
      "t": 337750.0000000006,
      "d": 250,
      "v": 90
    },
    {
      "midi": 69,
      "hit": false,
      "t": 338000.0000000006,
      "d": 1000,
      "v": 90
    },
    {
      "midi": 57,
      "hit": false,
      "t": 338000.0000000006,
      "d": 250,
      "v": 90
    },
    {
      "midi": 59,
      "hit": false,
      "t": 338250.0000000006,
      "d": 250,
      "v": 90
    },
    {
      "midi": 61,
      "hit": false,
      "t": 338250.0000000006,
      "d": 250,
      "v": 90
    },
    {
      "midi": 62,
      "hit": false,
      "t": 338500.0000000006,
      "d": 250,
      "v": 90
    },
    {
      "midi": 64,
      "hit": false,
      "t": 338500.0000000006,
      "d": 250,
      "v": 90
    },
    {
      "midi": 65,
      "hit": false,
      "t": 338750.0000000006,
      "d": 250,
      "v": 90
    },
    {
      "midi": 67,
      "hit": false,
      "t": 338750.0000000006,
      "d": 250,
      "v": 90
    },
    {
      "midi": 69,
      "hit": false,
      "t": 339000.0000000006,
      "d": 250,
      "v": 90
    },
    {
      "midi": 76,
      "hit": false,
      "t": 339250.0000000006,
      "d": 250,
      "v": 90
    },
    {
      "midi": 67,
      "hit": false,
      "t": 339250.0000000006,
      "d": 250,
      "v": 90
    },
    {
      "midi": 74,
      "hit": false,
      "t": 339500.0000000006,
      "d": 250,
      "v": 90
    },
    {
      "midi": 65,
      "hit": false,
      "t": 339500.0000000006,
      "d": 250,
      "v": 90
    },
    {
      "midi": 73,
      "hit": false,
      "t": 339750.0000000006,
      "d": 250,
      "v": 90
    },
    {
      "midi": 64,
      "hit": false,
      "t": 339750.0000000006,
      "d": 250,
      "v": 90
    },
    {
      "midi": 74,
      "hit": false,
      "t": 340000.0000000006,
      "d": 250,
      "v": 90
    },
    {
      "midi": 65,
      "hit": false,
      "t": 340000.0000000006,
      "d": 1000,
      "v": 90
    },
    {
      "midi": 74,
      "hit": false,
      "t": 340250.0000000006,
      "d": 250,
      "v": 90
    },
    {
      "midi": 75,
      "hit": false,
      "t": 340250.0000000006,
      "d": 250,
      "v": 90
    },
    {
      "midi": 70,
      "hit": false,
      "t": 340500.0000000006,
      "d": 250,
      "v": 90
    },
    {
      "midi": 72,
      "hit": false,
      "t": 340500.0000000006,
      "d": 250,
      "v": 90
    },
    {
      "midi": 67,
      "hit": false,
      "t": 340750.0000000006,
      "d": 250,
      "v": 90
    },
    {
      "midi": 69,
      "hit": false,
      "t": 340750.0000000006,
      "d": 250,
      "v": 90
    },
    {
      "midi": 66,
      "hit": false,
      "t": 341000.0000000006,
      "d": 500,
      "v": 90
    },
    {
      "midi": 63,
      "hit": false,
      "t": 341250.0000000006,
      "d": 250,
      "v": 90
    },
    {
      "midi": 69,
      "hit": false,
      "t": 341500.0000000006,
      "d": 1000,
      "v": 90
    },
    {
      "midi": 62,
      "hit": false,
      "t": 341500.0000000006,
      "d": 250,
      "v": 90
    },
    {
      "midi": 60,
      "hit": false,
      "t": 341750.0000000006,
      "d": 250,
      "v": 90
    },
    {
      "midi": 58,
      "hit": false,
      "t": 342000.0000000006,
      "d": 500,
      "v": 90
    },
    {
      "midi": 67,
      "hit": false,
      "t": 342500.0000000006,
      "d": 500,
      "v": 90
    },
    {
      "midi": 59,
      "hit": false,
      "t": 342500.0000000006,
      "d": 500,
      "v": 90
    },
    {
      "midi": 72,
      "hit": false,
      "t": 343000.0000000006,
      "d": 500,
      "v": 90
    },
    {
      "midi": 60,
      "hit": false,
      "t": 343000.0000000006,
      "d": 500,
      "v": 90
    },
    {
      "midi": 71,
      "hit": false,
      "t": 343500.0000000006,
      "d": 500,
      "v": 90
    },
    {
      "midi": 67,
      "hit": false,
      "t": 343500.0000000006,
      "d": 500,
      "v": 90
    },
    {
      "midi": 75,
      "hit": false,
      "t": 344000.0000000006,
      "d": 500,
      "v": 90
    },
    {
      "midi": 67,
      "hit": false,
      "t": 344000.0000000006,
      "d": 6000,
      "v": 90
    },
    {
      "midi": 74,
      "hit": false,
      "t": 344500.0000000006,
      "d": 500,
      "v": 90
    },
    {
      "midi": 75,
      "hit": false,
      "t": 345000.0000000006,
      "d": 500,
      "v": 90
    },
    {
      "midi": 71,
      "hit": false,
      "t": 345500.0000000006,
      "d": 500,
      "v": 90
    },
    {
      "midi": 72,
      "hit": false,
      "t": 346000.0000000006,
      "d": 500,
      "v": 90
    },
    {
      "midi": 71,
      "hit": false,
      "t": 346500.0000000006,
      "d": 500,
      "v": 90
    },
    {
      "midi": 72,
      "hit": false,
      "t": 347000.0000000006,
      "d": 500,
      "v": 90
    },
    {
      "midi": 74,
      "hit": false,
      "t": 347500.0000000006,
      "d": 500,
      "v": 90
    },
    {
      "midi": 75,
      "hit": false,
      "t": 348000.0000000006,
      "d": 500,
      "v": 90
    },
    {
      "midi": 74,
      "hit": false,
      "t": 348500.0000000006,
      "d": 500,
      "v": 90
    },
    {
      "midi": 75,
      "hit": false,
      "t": 349000.0000000006,
      "d": 500,
      "v": 90
    },
    {
      "midi": 77,
      "hit": false,
      "t": 349500.0000000006,
      "d": 500,
      "v": 90
    },
    {
      "midi": 79,
      "hit": false,
      "t": 350000.0000000006,
      "d": 8000,
      "v": 90
    },
    {
      "midi": 67,
      "hit": false,
      "t": 350250.0000000006,
      "d": 250,
      "v": 90
    },
    {
      "midi": 65,
      "hit": false,
      "t": 350500.0000000006,
      "d": 250,
      "v": 90
    },
    {
      "midi": 67,
      "hit": false,
      "t": 350750.0000000006,
      "d": 250,
      "v": 90
    },
    {
      "midi": 63,
      "hit": false,
      "t": 351000.0000000006,
      "d": 250,
      "v": 90
    },
    {
      "midi": 67,
      "hit": false,
      "t": 351250.0000000006,
      "d": 250,
      "v": 90
    },
    {
      "midi": 62,
      "hit": false,
      "t": 351500.0000000006,
      "d": 250,
      "v": 90
    },
    {
      "midi": 67,
      "hit": false,
      "t": 351750.0000000006,
      "d": 250,
      "v": 90
    },
    {
      "midi": 60,
      "hit": false,
      "t": 352000.0000000006,
      "d": 250,
      "v": 90
    },
    {
      "midi": 67,
      "hit": false,
      "t": 352250.0000000006,
      "d": 250,
      "v": 90
    },
    {
      "midi": 59,
      "hit": false,
      "t": 352500.0000000006,
      "d": 250,
      "v": 90
    },
    {
      "midi": 67,
      "hit": false,
      "t": 352750.0000000006,
      "d": 250,
      "v": 90
    },
    {
      "midi": 60,
      "hit": false,
      "t": 353000.0000000006,
      "d": 250,
      "v": 90
    },
    {
      "midi": 67,
      "hit": false,
      "t": 353250.0000000006,
      "d": 250,
      "v": 90
    },
    {
      "midi": 62,
      "hit": false,
      "t": 353500.0000000006,
      "d": 250,
      "v": 90
    },
    {
      "midi": 67,
      "hit": false,
      "t": 353750.0000000006,
      "d": 250,
      "v": 90
    },
    {
      "midi": 63,
      "hit": false,
      "t": 354000.0000000006,
      "d": 250,
      "v": 90
    },
    {
      "midi": 67,
      "hit": false,
      "t": 354250.0000000006,
      "d": 250,
      "v": 90
    },
    {
      "midi": 55,
      "hit": false,
      "t": 354500.0000000006,
      "d": 250,
      "v": 90
    },
    {
      "midi": 67,
      "hit": false,
      "t": 354750.0000000006,
      "d": 250,
      "v": 90
    },
    {
      "midi": 57,
      "hit": false,
      "t": 355000.0000000006,
      "d": 250,
      "v": 90
    },
    {
      "midi": 67,
      "hit": false,
      "t": 355250.0000000006,
      "d": 250,
      "v": 90
    },
    {
      "midi": 59,
      "hit": false,
      "t": 355500.0000000006,
      "d": 250,
      "v": 90
    },
    {
      "midi": 67,
      "hit": false,
      "t": 355750.0000000006,
      "d": 250,
      "v": 90
    },
    {
      "midi": 60,
      "hit": false,
      "t": 356000.0000000006,
      "d": 250,
      "v": 90
    },
    {
      "midi": 67,
      "hit": false,
      "t": 356250.0000000006,
      "d": 250,
      "v": 90
    },
    {
      "midi": 59,
      "hit": false,
      "t": 356500.0000000006,
      "d": 250,
      "v": 90
    },
    {
      "midi": 67,
      "hit": false,
      "t": 356750.0000000006,
      "d": 250,
      "v": 90
    },
    {
      "midi": 60,
      "hit": false,
      "t": 357000.0000000006,
      "d": 250,
      "v": 90
    },
    {
      "midi": 67,
      "hit": false,
      "t": 357250.0000000006,
      "d": 250,
      "v": 90
    },
    {
      "midi": 62,
      "hit": false,
      "t": 357500.0000000006,
      "d": 250,
      "v": 90
    },
    {
      "midi": 62,
      "hit": false,
      "t": 357750.0000000006,
      "d": 250,
      "v": 90
    },
    {
      "midi": 63,
      "hit": false,
      "t": 358000.0000000006,
      "d": 500,
      "v": 90
    },
    {
      "midi": 79,
      "hit": false,
      "t": 358250.0000000006,
      "d": 250,
      "v": 90
    },
    {
      "midi": 77,
      "hit": false,
      "t": 358500.0000000006,
      "d": 250,
      "v": 90
    },
    {
      "midi": 62,
      "hit": false,
      "t": 358500.0000000006,
      "d": 500,
      "v": 90
    },
    {
      "midi": 79,
      "hit": false,
      "t": 358750.0000000006,
      "d": 250,
      "v": 90
    },
    {
      "midi": 75,
      "hit": false,
      "t": 359000.0000000006,
      "d": 250,
      "v": 90
    },
    {
      "midi": 67,
      "hit": false,
      "t": 359000.0000000006,
      "d": 250,
      "v": 90
    },
    {
      "midi": 77,
      "hit": false,
      "t": 359250.0000000006,
      "d": 250,
      "v": 90
    },
    {
      "midi": 68,
      "hit": false,
      "t": 359250.0000000006,
      "d": 250,
      "v": 90
    },
    {
      "midi": 74,
      "hit": false,
      "t": 359500.0000000006,
      "d": 250,
      "v": 90
    },
    {
      "midi": 65,
      "hit": false,
      "t": 359500.0000000006,
      "d": 250,
      "v": 90
    },
    {
      "midi": 75,
      "hit": false,
      "t": 359750.0000000006,
      "d": 250,
      "v": 90
    },
    {
      "midi": 67,
      "hit": false,
      "t": 359750.0000000006,
      "d": 250,
      "v": 90
    },
    {
      "midi": 72,
      "hit": false,
      "t": 360000.0000000006,
      "d": 250,
      "v": 90
    },
    {
      "midi": 63,
      "hit": false,
      "t": 360000.0000000006,
      "d": 500,
      "v": 90
    },
    {
      "midi": 77,
      "hit": false,
      "t": 360250.0000000006,
      "d": 250,
      "v": 90
    },
    {
      "midi": 75,
      "hit": false,
      "t": 360500.0000000006,
      "d": 250,
      "v": 90
    },
    {
      "midi": 60,
      "hit": false,
      "t": 360500.0000000006,
      "d": 500,
      "v": 90
    },
    {
      "midi": 77,
      "hit": false,
      "t": 360750.0000000006,
      "d": 250,
      "v": 90
    },
    {
      "midi": 74,
      "hit": false,
      "t": 361000.0000000006,
      "d": 250,
      "v": 90
    },
    {
      "midi": 65,
      "hit": false,
      "t": 361000.0000000006,
      "d": 250,
      "v": 90
    },
    {
      "midi": 75,
      "hit": false,
      "t": 361250.0000000006,
      "d": 250,
      "v": 90
    },
    {
      "midi": 67,
      "hit": false,
      "t": 361250.0000000006,
      "d": 250,
      "v": 90
    },
    {
      "midi": 72,
      "hit": false,
      "t": 361500.0000000006,
      "d": 250,
      "v": 90
    },
    {
      "midi": 63,
      "hit": false,
      "t": 361500.0000000006,
      "d": 250,
      "v": 90
    },
    {
      "midi": 74,
      "hit": false,
      "t": 361750.0000000006,
      "d": 250,
      "v": 90
    },
    {
      "midi": 65,
      "hit": false,
      "t": 361750.0000000006,
      "d": 250,
      "v": 90
    },
    {
      "midi": 70,
      "hit": false,
      "t": 362000.0000000006,
      "d": 250,
      "v": 90
    },
    {
      "midi": 62,
      "hit": false,
      "t": 362000.0000000006,
      "d": 500,
      "v": 90
    },
    {
      "midi": 75,
      "hit": false,
      "t": 362250.0000000006,
      "d": 250,
      "v": 90
    },
    {
      "midi": 74,
      "hit": false,
      "t": 362500.0000000006,
      "d": 250,
      "v": 90
    },
    {
      "midi": 58,
      "hit": false,
      "t": 362500.0000000006,
      "d": 500,
      "v": 90
    },
    {
      "midi": 75,
      "hit": false,
      "t": 362750.0000000006,
      "d": 250,
      "v": 90
    },
    {
      "midi": 72,
      "hit": false,
      "t": 363000.0000000006,
      "d": 250,
      "v": 90
    },
    {
      "midi": 63,
      "hit": false,
      "t": 363000.0000000006,
      "d": 250,
      "v": 90
    },
    {
      "midi": 74,
      "hit": false,
      "t": 363250.0000000006,
      "d": 250,
      "v": 90
    },
    {
      "midi": 65,
      "hit": false,
      "t": 363250.0000000006,
      "d": 250,
      "v": 90
    },
    {
      "midi": 70,
      "hit": false,
      "t": 363500.0000000006,
      "d": 250,
      "v": 90
    },
    {
      "midi": 62,
      "hit": false,
      "t": 363500.0000000006,
      "d": 250,
      "v": 90
    },
    {
      "midi": 72,
      "hit": false,
      "t": 363750.0000000006,
      "d": 250,
      "v": 90
    },
    {
      "midi": 63,
      "hit": false,
      "t": 363750.0000000006,
      "d": 250,
      "v": 90
    },
    {
      "midi": 69,
      "hit": false,
      "t": 364000.0000000006,
      "d": 250,
      "v": 90
    },
    {
      "midi": 60,
      "hit": false,
      "t": 364000.0000000006,
      "d": 500,
      "v": 90
    },
    {
      "midi": 74,
      "hit": false,
      "t": 364250.0000000006,
      "d": 250,
      "v": 90
    },
    {
      "midi": 72,
      "hit": false,
      "t": 364500.0000000006,
      "d": 250,
      "v": 90
    },
    {
      "midi": 66,
      "hit": false,
      "t": 364500.0000000006,
      "d": 500,
      "v": 90
    },
    {
      "midi": 74,
      "hit": false,
      "t": 364750.0000000006,
      "d": 250,
      "v": 90
    },
    {
      "midi": 70,
      "hit": false,
      "t": 365000.0000000006,
      "d": 250,
      "v": 90
    },
    {
      "midi": 67,
      "hit": false,
      "t": 365000.0000000006,
      "d": 250,
      "v": 90
    },
    {
      "midi": 72,
      "hit": false,
      "t": 365250.0000000006,
      "d": 250,
      "v": 90
    },
    {
      "midi": 69,
      "hit": false,
      "t": 365250.0000000006,
      "d": 250,
      "v": 90
    },
    {
      "midi": 69,
      "hit": false,
      "t": 365500.0000000006,
      "d": 250,
      "v": 90
    },
    {
      "midi": 65,
      "hit": false,
      "t": 365500.0000000006,
      "d": 250,
      "v": 90
    },
    {
      "midi": 70,
      "hit": false,
      "t": 365750.0000000006,
      "d": 250,
      "v": 90
    },
    {
      "midi": 67,
      "hit": false,
      "t": 365750.0000000006,
      "d": 250,
      "v": 90
    },
    {
      "midi": 67,
      "hit": false,
      "t": 366000.0000000006,
      "d": 250,
      "v": 90
    },
    {
      "midi": 63,
      "hit": false,
      "t": 366000.0000000006,
      "d": 250,
      "v": 90
    },
    {
      "midi": 70,
      "hit": false,
      "t": 366250.0000000006,
      "d": 250,
      "v": 90
    },
    {
      "midi": 67,
      "hit": false,
      "t": 366250.0000000006,
      "d": 250,
      "v": 90
    },
    {
      "midi": 69,
      "hit": false,
      "t": 366500.0000000006,
      "d": 250,
      "v": 90
    },
    {
      "midi": 66,
      "hit": false,
      "t": 366500.0000000006,
      "d": 250,
      "v": 90
    },
    {
      "midi": 70,
      "hit": false,
      "t": 366750.0000000006,
      "d": 250,
      "v": 90
    },
    {
      "midi": 67,
      "hit": false,
      "t": 366750.0000000006,
      "d": 250,
      "v": 90
    },
    {
      "midi": 72,
      "hit": false,
      "t": 367000.0000000006,
      "d": 250,
      "v": 90
    },
    {
      "midi": 69,
      "hit": false,
      "t": 367000.0000000006,
      "d": 250,
      "v": 90
    },
    {
      "midi": 70,
      "hit": false,
      "t": 367250.0000000006,
      "d": 250,
      "v": 90
    },
    {
      "midi": 67,
      "hit": false,
      "t": 367250.0000000006,
      "d": 250,
      "v": 90
    },
    {
      "midi": 69,
      "hit": false,
      "t": 367500.0000000006,
      "d": 250,
      "v": 90
    },
    {
      "midi": 66,
      "hit": false,
      "t": 367500.0000000006,
      "d": 250,
      "v": 90
    },
    {
      "midi": 67,
      "hit": false,
      "t": 367750.0000000006,
      "d": 250,
      "v": 90
    },
    {
      "midi": 64,
      "hit": false,
      "t": 367750.0000000006,
      "d": 250,
      "v": 90
    },
    {
      "midi": 66,
      "hit": false,
      "t": 368000.0000000006,
      "d": 500,
      "v": 90
    },
    {
      "midi": 62,
      "hit": false,
      "t": 368250.0000000006,
      "d": 250,
      "v": 90
    },
    {
      "midi": 69,
      "hit": false,
      "t": 368500.0000000006,
      "d": 500,
      "v": 90
    },
    {
      "midi": 60,
      "hit": false,
      "t": 368500.0000000006,
      "d": 250,
      "v": 90
    },
    {
      "midi": 62,
      "hit": false,
      "t": 368750.0000000006,
      "d": 250,
      "v": 90
    },
    {
      "midi": 74,
      "hit": false,
      "t": 369000.0000000006,
      "d": 250,
      "v": 90
    },
    {
      "midi": 58,
      "hit": false,
      "t": 369000.0000000006,
      "d": 250,
      "v": 90
    },
    {
      "midi": 67,
      "hit": false,
      "t": 369250.0000000006,
      "d": 250,
      "v": 90
    },
    {
      "midi": 62,
      "hit": false,
      "t": 369250.0000000006,
      "d": 250,
      "v": 90
    },
    {
      "midi": 72,
      "hit": false,
      "t": 369500.0000000006,
      "d": 250,
      "v": 90
    },
    {
      "midi": 57,
      "hit": false,
      "t": 369500.0000000006,
      "d": 250,
      "v": 90
    },
    {
      "midi": 66,
      "hit": false,
      "t": 369750.0000000006,
      "d": 250,
      "v": 90
    },
    {
      "midi": 62,
      "hit": false,
      "t": 369750.0000000006,
      "d": 250,
      "v": 90
    },
    {
      "midi": 70,
      "hit": false,
      "t": 370000.0000000006,
      "d": 250,
      "v": 90
    },
    {
      "midi": 55,
      "hit": false,
      "t": 370000.0000000006,
      "d": 250,
      "v": 90
    },
    {
      "midi": 67,
      "hit": false,
      "t": 370250.0000000006,
      "d": 250,
      "v": 90
    },
    {
      "midi": 62,
      "hit": false,
      "t": 370250.0000000006,
      "d": 250,
      "v": 90
    },
    {
      "midi": 74,
      "hit": false,
      "t": 370500.0000000006,
      "d": 250,
      "v": 90
    },
    {
      "midi": 54,
      "hit": false,
      "t": 370500.0000000006,
      "d": 250,
      "v": 90
    },
    {
      "midi": 69,
      "hit": false,
      "t": 370750.0000000006,
      "d": 250,
      "v": 90
    },
    {
      "midi": 62,
      "hit": false,
      "t": 370750.0000000006,
      "d": 250,
      "v": 90
    },
    {
      "midi": 70,
      "hit": false,
      "t": 371000.0000000006,
      "d": 250,
      "v": 90
    },
    {
      "midi": 55,
      "hit": false,
      "t": 371000.0000000006,
      "d": 250,
      "v": 90
    },
    {
      "midi": 67,
      "hit": false,
      "t": 371250.0000000006,
      "d": 250,
      "v": 90
    },
    {
      "midi": 62,
      "hit": false,
      "t": 371250.0000000006,
      "d": 250,
      "v": 90
    },
    {
      "midi": 69,
      "hit": false,
      "t": 371500.0000000006,
      "d": 250,
      "v": 90
    },
    {
      "midi": 57,
      "hit": false,
      "t": 371500.0000000006,
      "d": 250,
      "v": 90
    },
    {
      "midi": 66,
      "hit": false,
      "t": 371750.0000000006,
      "d": 250,
      "v": 90
    },
    {
      "midi": 62,
      "hit": false,
      "t": 371750.0000000006,
      "d": 250,
      "v": 90
    },
    {
      "midi": 67,
      "hit": false,
      "t": 372000.0000000006,
      "d": 250,
      "v": 90
    },
    {
      "midi": 58,
      "hit": false,
      "t": 372000.0000000006,
      "d": 250,
      "v": 90
    },
    {
      "midi": 74,
      "hit": false,
      "t": 372250.0000000006,
      "d": 250,
      "v": 90
    },
    {
      "midi": 62,
      "hit": false,
      "t": 372250.0000000006,
      "d": 250,
      "v": 90
    },
    {
      "midi": 66,
      "hit": false,
      "t": 372500.0000000006,
      "d": 250,
      "v": 90
    },
    {
      "midi": 50,
      "hit": false,
      "t": 372500.0000000006,
      "d": 250,
      "v": 90
    },
    {
      "midi": 74,
      "hit": false,
      "t": 372750.0000000006,
      "d": 250,
      "v": 90
    },
    {
      "midi": 62,
      "hit": false,
      "t": 372750.0000000006,
      "d": 250,
      "v": 90
    },
    {
      "midi": 67,
      "hit": false,
      "t": 373000.0000000006,
      "d": 250,
      "v": 90
    },
    {
      "midi": 52,
      "hit": false,
      "t": 373000.0000000006,
      "d": 250,
      "v": 90
    },
    {
      "midi": 74,
      "hit": false,
      "t": 373250.0000000006,
      "d": 250,
      "v": 90
    },
    {
      "midi": 62,
      "hit": false,
      "t": 373250.0000000006,
      "d": 250,
      "v": 90
    },
    {
      "midi": 69,
      "hit": false,
      "t": 373500.0000000006,
      "d": 250,
      "v": 90
    },
    {
      "midi": 54,
      "hit": false,
      "t": 373500.0000000006,
      "d": 250,
      "v": 90
    },
    {
      "midi": 74,
      "hit": false,
      "t": 373750.0000000006,
      "d": 250,
      "v": 90
    },
    {
      "midi": 62,
      "hit": false,
      "t": 373750.0000000006,
      "d": 250,
      "v": 90
    },
    {
      "midi": 70,
      "hit": false,
      "t": 374000.0000000006,
      "d": 250,
      "v": 90
    },
    {
      "midi": 55,
      "hit": false,
      "t": 374000.0000000006,
      "d": 250,
      "v": 90
    },
    {
      "midi": 67,
      "hit": false,
      "t": 374250.0000000006,
      "d": 250,
      "v": 90
    },
    {
      "midi": 62,
      "hit": false,
      "t": 374250.0000000006,
      "d": 250,
      "v": 90
    },
    {
      "midi": 74,
      "hit": false,
      "t": 374500.0000000006,
      "d": 250,
      "v": 90
    },
    {
      "midi": 54,
      "hit": false,
      "t": 374500.0000000006,
      "d": 250,
      "v": 90
    },
    {
      "midi": 69,
      "hit": false,
      "t": 374750.0000000006,
      "d": 250,
      "v": 90
    },
    {
      "midi": 62,
      "hit": false,
      "t": 374750.0000000006,
      "d": 250,
      "v": 90
    },
    {
      "midi": 70,
      "hit": false,
      "t": 375000.0000000006,
      "d": 250,
      "v": 90
    },
    {
      "midi": 55,
      "hit": false,
      "t": 375000.0000000006,
      "d": 250,
      "v": 90
    },
    {
      "midi": 67,
      "hit": false,
      "t": 375250.0000000006,
      "d": 250,
      "v": 90
    },
    {
      "midi": 62,
      "hit": false,
      "t": 375250.0000000006,
      "d": 250,
      "v": 90
    },
    {
      "midi": 72,
      "hit": false,
      "t": 375500.0000000006,
      "d": 250,
      "v": 90
    },
    {
      "midi": 57,
      "hit": false,
      "t": 375500.0000000006,
      "d": 250,
      "v": 90
    },
    {
      "midi": 69,
      "hit": false,
      "t": 375750.0000000006,
      "d": 250,
      "v": 90
    },
    {
      "midi": 62,
      "hit": false,
      "t": 375750.0000000006,
      "d": 250,
      "v": 90
    },
    {
      "midi": 74,
      "hit": false,
      "t": 376000.0000000006,
      "d": 250,
      "v": 90
    },
    {
      "midi": 58,
      "hit": false,
      "t": 376000.0000000006,
      "d": 500,
      "v": 90
    },
    {
      "midi": 72,
      "hit": false,
      "t": 376250.0000000006,
      "d": 250,
      "v": 90
    },
    {
      "midi": 70,
      "hit": false,
      "t": 376500.0000000006,
      "d": 250,
      "v": 90
    },
    {
      "midi": 57,
      "hit": false,
      "t": 376500.0000000006,
      "d": 500,
      "v": 90
    },
    {
      "midi": 69,
      "hit": false,
      "t": 376750.0000000006,
      "d": 250,
      "v": 90
    },
    {
      "midi": 70,
      "hit": false,
      "t": 377000.0000000006,
      "d": 250,
      "v": 90
    },
    {
      "midi": 55,
      "hit": false,
      "t": 377000.0000000006,
      "d": 2000,
      "v": 90
    },
    {
      "midi": 69,
      "hit": false,
      "t": 377250.0000000006,
      "d": 250,
      "v": 90
    },
    {
      "midi": 70,
      "hit": false,
      "t": 377500.0000000006,
      "d": 250,
      "v": 90
    },
    {
      "midi": 67,
      "hit": false,
      "t": 377750.0000000006,
      "d": 250,
      "v": 90
    },
    {
      "midi": 69,
      "hit": false,
      "t": 378000.0000000006,
      "d": 250,
      "v": 90
    },
    {
      "midi": 70,
      "hit": false,
      "t": 378250.0000000006,
      "d": 250,
      "v": 90
    },
    {
      "midi": 72,
      "hit": false,
      "t": 378500.0000000006,
      "d": 250,
      "v": 90
    },
    {
      "midi": 74,
      "hit": false,
      "t": 378750.0000000006,
      "d": 250,
      "v": 90
    },
    {
      "midi": 75,
      "hit": false,
      "t": 379000.0000000006,
      "d": 250,
      "v": 90
    },
    {
      "midi": 54,
      "hit": false,
      "t": 379000.0000000006,
      "d": 1000,
      "v": 90
    },
    {
      "midi": 74,
      "hit": false,
      "t": 379250.0000000006,
      "d": 250,
      "v": 90
    },
    {
      "midi": 72,
      "hit": false,
      "t": 379500.0000000006,
      "d": 250,
      "v": 90
    },
    {
      "midi": 74,
      "hit": false,
      "t": 379750.0000000006,
      "d": 250,
      "v": 90
    },
    {
      "midi": 70,
      "hit": false,
      "t": 380000.0000000006,
      "d": 250,
      "v": 90
    },
    {
      "midi": 55,
      "hit": false,
      "t": 380000.0000000006,
      "d": 500,
      "v": 90
    },
    {
      "midi": 72,
      "hit": false,
      "t": 380250.0000000006,
      "d": 250,
      "v": 90
    },
    {
      "midi": 69,
      "hit": false,
      "t": 380500.0000000006,
      "d": 250,
      "v": 90
    },
    {
      "midi": 57,
      "hit": false,
      "t": 380500.0000000006,
      "d": 500,
      "v": 90
    },
    {
      "midi": 70,
      "hit": false,
      "t": 380750.0000000006,
      "d": 250,
      "v": 90
    },
    {
      "midi": 67,
      "hit": false,
      "t": 381000.0000000006,
      "d": 500,
      "v": 90
    },
    {
      "midi": 58,
      "hit": false,
      "t": 381000.0000000006,
      "d": 250,
      "v": 90
    },
    {
      "midi": 57,
      "hit": false,
      "t": 381250.0000000006,
      "d": 250,
      "v": 90
    },
    {
      "midi": 71,
      "hit": false,
      "t": 381500.0000000006,
      "d": 500,
      "v": 90
    },
    {
      "midi": 55,
      "hit": false,
      "t": 381500.0000000006,
      "d": 250,
      "v": 90
    },
    {
      "midi": 53,
      "hit": false,
      "t": 381750.0000000006,
      "d": 250,
      "v": 90
    },
    {
      "midi": 72,
      "hit": false,
      "t": 382000.0000000006,
      "d": 250,
      "v": 90
    },
    {
      "midi": 51,
      "hit": false,
      "t": 382000.0000000006,
      "d": 500,
      "v": 90
    },
    {
      "midi": 75,
      "hit": false,
      "t": 382250.0000000006,
      "d": 250,
      "v": 90
    },
    {
      "midi": 77,
      "hit": false,
      "t": 382500.0000000006,
      "d": 250,
      "v": 90
    },
    {
      "midi": 63,
      "hit": false,
      "t": 382500.0000000006,
      "d": 500,
      "v": 90
    },
    {
      "midi": 79,
      "hit": false,
      "t": 382750.0000000006,
      "d": 250,
      "v": 90
    },
    {
      "midi": 80,
      "hit": false,
      "t": 383000.0000000006,
      "d": 250,
      "v": 90
    },
    {
      "midi": 62,
      "hit": false,
      "t": 383000.0000000006,
      "d": 1000,
      "v": 90
    },
    {
      "midi": 79,
      "hit": false,
      "t": 383250.0000000006,
      "d": 250,
      "v": 90
    },
    {
      "midi": 77,
      "hit": false,
      "t": 383500.0000000006,
      "d": 250,
      "v": 90
    },
    {
      "midi": 79,
      "hit": false,
      "t": 383750.0000000006,
      "d": 250,
      "v": 90
    },
    {
      "midi": 75,
      "hit": false,
      "t": 384000.0000000006,
      "d": 250,
      "v": 90
    },
    {
      "midi": 60,
      "hit": false,
      "t": 384000.0000000006,
      "d": 500,
      "v": 90
    },
    {
      "midi": 77,
      "hit": false,
      "t": 384250.0000000006,
      "d": 250,
      "v": 90
    },
    {
      "midi": 74,
      "hit": false,
      "t": 384500.0000000006,
      "d": 250,
      "v": 90
    },
    {
      "midi": 62,
      "hit": false,
      "t": 384500.0000000006,
      "d": 500,
      "v": 90
    },
    {
      "midi": 75,
      "hit": false,
      "t": 384750.0000000006,
      "d": 250,
      "v": 90
    },
    {
      "midi": 72,
      "hit": false,
      "t": 385000.0000000006,
      "d": 500,
      "v": 90
    },
    {
      "midi": 63,
      "hit": false,
      "t": 385000.0000000006,
      "d": 250,
      "v": 90
    },
    {
      "midi": 65,
      "hit": false,
      "t": 385250.0000000006,
      "d": 250,
      "v": 90
    },
    {
      "midi": 70,
      "hit": false,
      "t": 385500.0000000006,
      "d": 500,
      "v": 90
    },
    {
      "midi": 62,
      "hit": false,
      "t": 385500.0000000006,
      "d": 250,
      "v": 90
    },
    {
      "midi": 63,
      "hit": false,
      "t": 385750.0000000006,
      "d": 250,
      "v": 90
    },
    {
      "midi": 69,
      "hit": false,
      "t": 386000.0000000006,
      "d": 500,
      "v": 90
    },
    {
      "midi": 60,
      "hit": false,
      "t": 386000.0000000006,
      "d": 250,
      "v": 90
    },
    {
      "midi": 63,
      "hit": false,
      "t": 386250.0000000006,
      "d": 250,
      "v": 90
    },
    {
      "midi": 70,
      "hit": false,
      "t": 386500.0000000006,
      "d": 1000,
      "v": 90
    },
    {
      "midi": 62,
      "hit": false,
      "t": 386500.0000000006,
      "d": 250,
      "v": 90
    },
    {
      "midi": 65,
      "hit": false,
      "t": 386750.0000000006,
      "d": 250,
      "v": 90
    },
    {
      "midi": 67,
      "hit": false,
      "t": 387000.0000000006,
      "d": 250,
      "v": 90
    },
    {
      "midi": 65,
      "hit": false,
      "t": 387250.0000000006,
      "d": 250,
      "v": 90
    },
    {
      "midi": 69,
      "hit": false,
      "t": 387500.0000000006,
      "d": 1000,
      "v": 90
    },
    {
      "midi": 63,
      "hit": false,
      "t": 387500.0000000006,
      "d": 250,
      "v": 90
    },
    {
      "midi": 65,
      "hit": false,
      "t": 387750.0000000006,
      "d": 250,
      "v": 90
    },
    {
      "midi": 62,
      "hit": false,
      "t": 388000.0000000006,
      "d": 250,
      "v": 90
    },
    {
      "midi": 58,
      "hit": false,
      "t": 388250.0000000006,
      "d": 250,
      "v": 90
    },
    {
      "midi": 67,
      "hit": false,
      "t": 388500.0000000006,
      "d": 1000,
      "v": 90
    },
    {
      "midi": 63,
      "hit": false,
      "t": 388500.0000000006,
      "d": 250,
      "v": 90
    },
    {
      "midi": 62,
      "hit": false,
      "t": 388750.0000000006,
      "d": 250,
      "v": 90
    },
    {
      "midi": 61,
      "hit": false,
      "t": 389000.0000000006,
      "d": 250,
      "v": 90
    },
    {
      "midi": 57,
      "hit": false,
      "t": 389250.0000000006,
      "d": 250,
      "v": 90
    },
    {
      "midi": 66,
      "hit": false,
      "t": 389500.0000000006,
      "d": 500,
      "v": 90
    },
    {
      "midi": 62,
      "hit": false,
      "t": 389500.0000000006,
      "d": 250,
      "v": 90
    },
    {
      "midi": 60,
      "hit": false,
      "t": 389750.0000000006,
      "d": 250,
      "v": 90
    },
    {
      "midi": 65,
      "hit": false,
      "t": 390000.0000000006,
      "d": 500,
      "v": 90
    },
    {
      "midi": 59,
      "hit": false,
      "t": 390000.0000000006,
      "d": 250,
      "v": 90
    },
    {
      "midi": 55,
      "hit": false,
      "t": 390250.0000000006,
      "d": 250,
      "v": 90
    },
    {
      "midi": 63,
      "hit": false,
      "t": 390500.0000000006,
      "d": 1000,
      "v": 90
    },
    {
      "midi": 60,
      "hit": false,
      "t": 390500.0000000006,
      "d": 250,
      "v": 90
    },
    {
      "midi": 58,
      "hit": false,
      "t": 390750.0000000006,
      "d": 250,
      "v": 90
    },
    {
      "midi": 57,
      "hit": false,
      "t": 391000.0000000006,
      "d": 250,
      "v": 90
    },
    {
      "midi": 53,
      "hit": false,
      "t": 391250.0000000006,
      "d": 250,
      "v": 90
    },
    {
      "midi": 62,
      "hit": false,
      "t": 391500.0000000006,
      "d": 250,
      "v": 90
    },
    {
      "midi": 58,
      "hit": false,
      "t": 391500.0000000006,
      "d": 250,
      "v": 90
    },
    {
      "midi": 70,
      "hit": false,
      "t": 391750.0000000006,
      "d": 250,
      "v": 90
    },
    {
      "midi": 62,
      "hit": false,
      "t": 391750.0000000006,
      "d": 250,
      "v": 90
    },
    {
      "midi": 69,
      "hit": false,
      "t": 392000.0000000006,
      "d": 250,
      "v": 90
    },
    {
      "midi": 60,
      "hit": false,
      "t": 392000.0000000006,
      "d": 250,
      "v": 90
    },
    {
      "midi": 70,
      "hit": false,
      "t": 392250.0000000006,
      "d": 250,
      "v": 90
    },
    {
      "midi": 62,
      "hit": false,
      "t": 392250.0000000006,
      "d": 250,
      "v": 90
    },
    {
      "midi": 69,
      "hit": false,
      "t": 392500.0000000006,
      "d": 250,
      "v": 90
    },
    {
      "midi": 60,
      "hit": false,
      "t": 392500.0000000006,
      "d": 250,
      "v": 90
    },
    {
      "midi": 67,
      "hit": false,
      "t": 392750.0000000006,
      "d": 250,
      "v": 90
    },
    {
      "midi": 58,
      "hit": false,
      "t": 392750.0000000006,
      "d": 250,
      "v": 90
    },
    {
      "midi": 66,
      "hit": false,
      "t": 393000.0000000006,
      "d": 250,
      "v": 90
    },
    {
      "midi": 57,
      "hit": false,
      "t": 393000.0000000006,
      "d": 250,
      "v": 90
    },
    {
      "midi": 75,
      "hit": false,
      "t": 393250.0000000006,
      "d": 250,
      "v": 90
    },
    {
      "midi": 60,
      "hit": false,
      "t": 393250.0000000006,
      "d": 250,
      "v": 90
    },
    {
      "midi": 74,
      "hit": false,
      "t": 393500.0000000006,
      "d": 250,
      "v": 90
    },
    {
      "midi": 58,
      "hit": false,
      "t": 393500.0000000006,
      "d": 250,
      "v": 90
    },
    {
      "midi": 72,
      "hit": false,
      "t": 393750.0000000006,
      "d": 250,
      "v": 90
    },
    {
      "midi": 57,
      "hit": false,
      "t": 393750.0000000006,
      "d": 250,
      "v": 90
    },
    {
      "midi": 70,
      "hit": false,
      "t": 394000.0000000006,
      "d": 250,
      "v": 90
    },
    {
      "midi": 55,
      "hit": false,
      "t": 394000.0000000006,
      "d": 250,
      "v": 90
    },
    {
      "midi": 81,
      "hit": false,
      "t": 394250.0000000006,
      "d": 250,
      "v": 90
    },
    {
      "midi": 60,
      "hit": false,
      "t": 394250.0000000006,
      "d": 250,
      "v": 90
    },
    {
      "midi": 79,
      "hit": false,
      "t": 394500.0000000006,
      "d": 250,
      "v": 90
    },
    {
      "midi": 58,
      "hit": false,
      "t": 394500.0000000006,
      "d": 250,
      "v": 90
    },
    {
      "midi": 78,
      "hit": false,
      "t": 394750.0000000006,
      "d": 250,
      "v": 90
    },
    {
      "midi": 57,
      "hit": false,
      "t": 394750.0000000006,
      "d": 250,
      "v": 90
    },
    {
      "midi": 79,
      "hit": false,
      "t": 395000.0000000006,
      "d": 750,
      "v": 90
    },
    {
      "midi": 58,
      "hit": false,
      "t": 395000.0000000006,
      "d": 250,
      "v": 90
    },
    {
      "midi": 60,
      "hit": false,
      "t": 395250.0000000006,
      "d": 250,
      "v": 90
    },
    {
      "midi": 58,
      "hit": false,
      "t": 395500.0000000006,
      "d": 250,
      "v": 90
    },
    {
      "midi": 77,
      "hit": false,
      "t": 395750.0000000006,
      "d": 250,
      "v": 90
    },
    {
      "midi": 57,
      "hit": false,
      "t": 395750.0000000006,
      "d": 250,
      "v": 90
    },
    {
      "midi": 75,
      "hit": false,
      "t": 396000.0000000006,
      "d": 250,
      "v": 90
    },
    {
      "midi": 55,
      "hit": false,
      "t": 396000.0000000006,
      "d": 250,
      "v": 90
    },
    {
      "midi": 77,
      "hit": false,
      "t": 396250.0000000006,
      "d": 250,
      "v": 90
    },
    {
      "midi": 57,
      "hit": false,
      "t": 396250.0000000006,
      "d": 250,
      "v": 90
    },
    {
      "midi": 74,
      "hit": false,
      "t": 396500.0000000006,
      "d": 250,
      "v": 90
    },
    {
      "midi": 53,
      "hit": false,
      "t": 396500.0000000006,
      "d": 250,
      "v": 90
    },
    {
      "midi": 75,
      "hit": false,
      "t": 396750.0000000006,
      "d": 250,
      "v": 90
    },
    {
      "midi": 55,
      "hit": false,
      "t": 396750.0000000006,
      "d": 250,
      "v": 90
    },
    {
      "midi": 73,
      "hit": false,
      "t": 397000.0000000006,
      "d": 250,
      "v": 90
    },
    {
      "midi": 52,
      "hit": false,
      "t": 397000.0000000006,
      "d": 1000,
      "v": 90
    },
    {
      "midi": 70,
      "hit": false,
      "t": 397250.0000000006,
      "d": 250,
      "v": 90
    },
    {
      "midi": 69,
      "hit": false,
      "t": 397500.0000000006,
      "d": 250,
      "v": 90
    },
    {
      "midi": 67,
      "hit": false,
      "t": 397750.0000000006,
      "d": 250,
      "v": 90
    },
    {
      "midi": 69,
      "hit": false,
      "t": 398000.0000000006,
      "d": 1000,
      "v": 90
    },
    {
      "midi": 74,
      "hit": false,
      "t": 398000.0000000006,
      "d": 1000,
      "v": 90
    },
    {
      "midi": 54,
      "hit": false,
      "t": 398000.0000000006,
      "d": 250,
      "v": 90
    },
    {
      "midi": 63,
      "hit": false,
      "t": 398250.0000000006,
      "d": 250,
      "v": 90
    },
    {
      "midi": 62,
      "hit": false,
      "t": 398500.0000000006,
      "d": 250,
      "v": 90
    },
    {
      "midi": 60,
      "hit": false,
      "t": 398750.0000000006,
      "d": 250,
      "v": 90
    },
    {
      "midi": 66,
      "hit": false,
      "t": 399000.0000000006,
      "d": 1000,
      "v": 90
    },
    {
      "midi": 72,
      "hit": false,
      "t": 399000.0000000006,
      "d": 1000,
      "v": 90
    },
    {
      "midi": 62,
      "hit": false,
      "t": 399000.0000000006,
      "d": 250,
      "v": 90
    },
    {
      "midi": 50,
      "hit": false,
      "t": 399000.0000000006,
      "d": 1000,
      "v": 90
    },
    {
      "midi": 60,
      "hit": false,
      "t": 399250.0000000006,
      "d": 250,
      "v": 90
    },
    {
      "midi": 58,
      "hit": false,
      "t": 399500.0000000006,
      "d": 250,
      "v": 90
    },
    {
      "midi": 57,
      "hit": false,
      "t": 399750.0000000006,
      "d": 250,
      "v": 90
    },
    {
      "midi": 70,
      "hit": false,
      "t": 400000.0000000006,
      "d": 250,
      "v": 90
    },
    {
      "midi": 67,
      "hit": false,
      "t": 400000.0000000006,
      "d": 1000,
      "v": 90
    },
    {
      "midi": 55,
      "hit": false,
      "t": 400000.0000000006,
      "d": 1000,
      "v": 90
    },
    {
      "midi": 65,
      "hit": false,
      "t": 400250.0000000006,
      "d": 250,
      "v": 90
    },
    {
      "midi": 63,
      "hit": false,
      "t": 400500.0000000006,
      "d": 250,
      "v": 90
    },
    {
      "midi": 62,
      "hit": false,
      "t": 400750.0000000006,
      "d": 250,
      "v": 90
    },
    {
      "midi": 61,
      "hit": false,
      "t": 401000.0000000006,
      "d": 500,
      "v": 90
    },
    {
      "midi": 69,
      "hit": false,
      "t": 401000.0000000006,
      "d": 500,
      "v": 90
    },
    {
      "midi": 57,
      "hit": false,
      "t": 401000.0000000006,
      "d": 250,
      "v": 90
    },
    {
      "midi": 58,
      "hit": false,
      "t": 401250.0000000006,
      "d": 250,
      "v": 90
    },
    {
      "midi": 64,
      "hit": false,
      "t": 401500.0000000006,
      "d": 500,
      "v": 90
    },
    {
      "midi": 73,
      "hit": false,
      "t": 401500.0000000006,
      "d": 500,
      "v": 90
    },
    {
      "midi": 57,
      "hit": false,
      "t": 401500.0000000006,
      "d": 250,
      "v": 90
    },
    {
      "midi": 55,
      "hit": false,
      "t": 401750.0000000006,
      "d": 250,
      "v": 90
    },
    {
      "midi": 65,
      "hit": false,
      "t": 402000.0000000006,
      "d": 500,
      "v": 90
    },
    {
      "midi": 74,
      "hit": false,
      "t": 402000.0000000006,
      "d": 500,
      "v": 90
    },
    {
      "midi": 53,
      "hit": false,
      "t": 402000.0000000006,
      "d": 250,
      "v": 90
    },
    {
      "midi": 55,
      "hit": false,
      "t": 402250.0000000006,
      "d": 250,
      "v": 90
    },
    {
      "midi": 67,
      "hit": false,
      "t": 402500.0000000006,
      "d": 500,
      "v": 90
    },
    {
      "midi": 76,
      "hit": false,
      "t": 402500.0000000006,
      "d": 500,
      "v": 90
    },
    {
      "midi": 52,
      "hit": false,
      "t": 402500.0000000006,
      "d": 250,
      "v": 90
    },
    {
      "midi": 57,
      "hit": false,
      "t": 402750.0000000006,
      "d": 250,
      "v": 90
    },
    {
      "midi": 77,
      "hit": false,
      "t": 403000.0000000006,
      "d": 250,
      "v": 90
    },
    {
      "midi": 69,
      "hit": false,
      "t": 403000.0000000006,
      "d": 500,
      "v": 90
    },
    {
      "midi": 50,
      "hit": false,
      "t": 403000.0000000006,
      "d": 1000,
      "v": 90
    },
    {
      "midi": 67,
      "hit": false,
      "t": 403250.0000000006,
      "d": 250,
      "v": 90
    },
    {
      "midi": 74,
      "hit": false,
      "t": 403500.0000000006,
      "d": 250,
      "v": 90
    },
    {
      "midi": 69,
      "hit": false,
      "t": 403500.0000000006,
      "d": 1500,
      "v": 90
    },
    {
      "midi": 65,
      "hit": false,
      "t": 403750.0000000006,
      "d": 250,
      "v": 90
    },
    {
      "midi": 76,
      "hit": false,
      "t": 404000.0000000006,
      "d": 1000,
      "v": 90
    },
    {
      "midi": 67,
      "hit": false,
      "t": 404000.0000000006,
      "d": 250,
      "v": 90
    },
    {
      "midi": 69,
      "hit": false,
      "t": 404250.0000000006,
      "d": 250,
      "v": 90
    },
    {
      "midi": 67,
      "hit": false,
      "t": 404500.0000000006,
      "d": 250,
      "v": 90
    },
    {
      "midi": 69,
      "hit": false,
      "t": 404750.0000000006,
      "d": 250,
      "v": 90
    },
    {
      "midi": 73,
      "hit": false,
      "t": 405000.0000000006,
      "d": 1000,
      "v": 90
    },
    {
      "midi": 70,
      "hit": false,
      "t": 405000.0000000006,
      "d": 250,
      "v": 90
    },
    {
      "midi": 69,
      "hit": false,
      "t": 405250.0000000006,
      "d": 250,
      "v": 90
    },
    {
      "midi": 67,
      "hit": false,
      "t": 405500.0000000006,
      "d": 250,
      "v": 90
    },
    {
      "midi": 69,
      "hit": false,
      "t": 405750.0000000006,
      "d": 250,
      "v": 90
    },
    {
      "midi": 74,
      "hit": false,
      "t": 406000.0000000006,
      "d": 250,
      "v": 90
    },
    {
      "midi": 69,
      "hit": false,
      "t": 406000.0000000006,
      "d": 750,
      "v": 90
    },
    {
      "midi": 65,
      "hit": false,
      "t": 406000.0000000006,
      "d": 250,
      "v": 90
    },
    {
      "midi": 70,
      "hit": false,
      "t": 406250.0000000006,
      "d": 250,
      "v": 90
    },
    {
      "midi": 67,
      "hit": false,
      "t": 406250.0000000006,
      "d": 250,
      "v": 90
    },
    {
      "midi": 67,
      "hit": false,
      "t": 406500.0000000006,
      "d": 250,
      "v": 90
    },
    {
      "midi": 64,
      "hit": false,
      "t": 406500.0000000006,
      "d": 250,
      "v": 90
    },
    {
      "midi": 69,
      "hit": false,
      "t": 406750.0000000006,
      "d": 250,
      "v": 90
    },
    {
      "midi": 65,
      "hit": false,
      "t": 406750.0000000006,
      "d": 250,
      "v": 90
    },
    {
      "midi": 65,
      "hit": false,
      "t": 407000.0000000006,
      "d": 500,
      "v": 90
    },
    {
      "midi": 62,
      "hit": false,
      "t": 407000.0000000006,
      "d": 250,
      "v": 90
    },
    {
      "midi": 60,
      "hit": false,
      "t": 407250.0000000006,
      "d": 250,
      "v": 90
    },
    {
      "midi": 69,
      "hit": false,
      "t": 407500.0000000006,
      "d": 500,
      "v": 90
    },
    {
      "midi": 77,
      "hit": false,
      "t": 407500.0000000006,
      "d": 500,
      "v": 90
    },
    {
      "midi": 58,
      "hit": false,
      "t": 407500.0000000006,
      "d": 250,
      "v": 90
    },
    {
      "midi": 57,
      "hit": false,
      "t": 407750.0000000006,
      "d": 250,
      "v": 90
    },
    {
      "midi": 67,
      "hit": false,
      "t": 408000.0000000006,
      "d": 500,
      "v": 90
    },
    {
      "midi": 79,
      "hit": false,
      "t": 408000.0000000006,
      "d": 500,
      "v": 90
    },
    {
      "midi": 58,
      "hit": false,
      "t": 408000.0000000006,
      "d": 250,
      "v": 90
    },
    {
      "midi": 57,
      "hit": false,
      "t": 408250.0000000006,
      "d": 250,
      "v": 90
    },
    {
      "midi": 69,
      "hit": false,
      "t": 408500.0000000006,
      "d": 500,
      "v": 90
    },
    {
      "midi": 74,
      "hit": false,
      "t": 408500.0000000006,
      "d": 500,
      "v": 90
    },
    {
      "midi": 55,
      "hit": false,
      "t": 408500.0000000006,
      "d": 250,
      "v": 90
    },
    {
      "midi": 53,
      "hit": false,
      "t": 408750.0000000006,
      "d": 250,
      "v": 90
    },
    {
      "midi": 67,
      "hit": false,
      "t": 409000.0000000006,
      "d": 500,
      "v": 90
    },
    {
      "midi": 73,
      "hit": false,
      "t": 409000.0000000006,
      "d": 500,
      "v": 90
    },
    {
      "midi": 52,
      "hit": false,
      "t": 409000.0000000006,
      "d": 250,
      "v": 90
    },
    {
      "midi": 53,
      "hit": false,
      "t": 409250.0000000006,
      "d": 250,
      "v": 90
    },
    {
      "midi": 65,
      "hit": false,
      "t": 409500.0000000006,
      "d": 500,
      "v": 90
    },
    {
      "midi": 74,
      "hit": false,
      "t": 409500.0000000006,
      "d": 500,
      "v": 90
    },
    {
      "midi": 52,
      "hit": false,
      "t": 409500.0000000006,
      "d": 250,
      "v": 90
    },
    {
      "midi": 50,
      "hit": false,
      "t": 409750.0000000006,
      "d": 250,
      "v": 90
    },
    {
      "midi": 67,
      "hit": false,
      "t": 410000.0000000006,
      "d": 500,
      "v": 90
    },
    {
      "midi": 76,
      "hit": false,
      "t": 410000.0000000006,
      "d": 500,
      "v": 90
    },
    {
      "midi": 49,
      "hit": false,
      "t": 410000.0000000006,
      "d": 250,
      "v": 90
    },
    {
      "midi": 45,
      "hit": false,
      "t": 410250.0000000006,
      "d": 250,
      "v": 90
    },
    {
      "midi": 65,
      "hit": false,
      "t": 410500.0000000006,
      "d": 500,
      "v": 90
    },
    {
      "midi": 74,
      "hit": false,
      "t": 410500.0000000006,
      "d": 500,
      "v": 90
    },
    {
      "midi": 50,
      "hit": false,
      "t": 410500.0000000006,
      "d": 250,
      "v": 90
    },
    {
      "midi": 45,
      "hit": false,
      "t": 410750.0000000006,
      "d": 250,
      "v": 90
    },
    {
      "midi": 64,
      "hit": false,
      "t": 411000.0000000006,
      "d": 500,
      "v": 90
    },
    {
      "midi": 73,
      "hit": false,
      "t": 411000.0000000006,
      "d": 500,
      "v": 90
    },
    {
      "midi": 52,
      "hit": false,
      "t": 411000.0000000006,
      "d": 250,
      "v": 90
    },
    {
      "midi": 45,
      "hit": false,
      "t": 411250.0000000006,
      "d": 250,
      "v": 90
    },
    {
      "midi": 69,
      "hit": false,
      "t": 411500.0000000006,
      "d": 500,
      "v": 90
    },
    {
      "midi": 74,
      "hit": false,
      "t": 411500.0000000006,
      "d": 500,
      "v": 90
    },
    {
      "midi": 53,
      "hit": false,
      "t": 411500.0000000006,
      "d": 250,
      "v": 90
    },
    {
      "midi": 45,
      "hit": false,
      "t": 411750.0000000006,
      "d": 250,
      "v": 90
    },
    {
      "midi": 70,
      "hit": false,
      "t": 412000.0000000006,
      "d": 500,
      "v": 90
    },
    {
      "midi": 76,
      "hit": false,
      "t": 412000.0000000006,
      "d": 500,
      "v": 90
    },
    {
      "midi": 55,
      "hit": false,
      "t": 412000.0000000006,
      "d": 250,
      "v": 90
    },
    {
      "midi": 45,
      "hit": false,
      "t": 412250.0000000006,
      "d": 250,
      "v": 90
    },
    {
      "midi": 69,
      "hit": false,
      "t": 412500.0000000006,
      "d": 500,
      "v": 90
    },
    {
      "midi": 74,
      "hit": false,
      "t": 412500.0000000006,
      "d": 500,
      "v": 90
    },
    {
      "midi": 53,
      "hit": false,
      "t": 412500.0000000006,
      "d": 250,
      "v": 90
    },
    {
      "midi": 45,
      "hit": false,
      "t": 412750.0000000006,
      "d": 250,
      "v": 90
    },
    {
      "midi": 67,
      "hit": false,
      "t": 413000.0000000006,
      "d": 500,
      "v": 90
    },
    {
      "midi": 73,
      "hit": false,
      "t": 413000.0000000006,
      "d": 500,
      "v": 90
    },
    {
      "midi": 52,
      "hit": false,
      "t": 413000.0000000006,
      "d": 250,
      "v": 90
    },
    {
      "midi": 45,
      "hit": false,
      "t": 413250.0000000006,
      "d": 250,
      "v": 90
    },
    {
      "midi": 65,
      "hit": false,
      "t": 413500.0000000006,
      "d": 500,
      "v": 90
    },
    {
      "midi": 74,
      "hit": false,
      "t": 413500.0000000006,
      "d": 500,
      "v": 90
    },
    {
      "midi": 50,
      "hit": false,
      "t": 413500.0000000006,
      "d": 250,
      "v": 90
    },
    {
      "midi": 45,
      "hit": false,
      "t": 413750.0000000006,
      "d": 250,
      "v": 90
    },
    {
      "midi": 69,
      "hit": false,
      "t": 414000.0000000006,
      "d": 500,
      "v": 90
    },
    {
      "midi": 76,
      "hit": false,
      "t": 414000.0000000006,
      "d": 500,
      "v": 90
    },
    {
      "midi": 49,
      "hit": false,
      "t": 414000.0000000006,
      "d": 250,
      "v": 90
    },
    {
      "midi": 57,
      "hit": false,
      "t": 414250.0000000006,
      "d": 250,
      "v": 90
    },
    {
      "midi": 76,
      "hit": false,
      "t": 414500.0000000006,
      "d": 500,
      "v": 90
    },
    {
      "midi": 79,
      "hit": false,
      "t": 414500.0000000006,
      "d": 500,
      "v": 90
    },
    {
      "midi": 45,
      "hit": false,
      "t": 414500.0000000006,
      "d": 250,
      "v": 90
    },
    {
      "midi": 57,
      "hit": false,
      "t": 414750.0000000006,
      "d": 250,
      "v": 90
    },
    {
      "midi": 74,
      "hit": false,
      "t": 415000.0000000006,
      "d": 500,
      "v": 90
    },
    {
      "midi": 77,
      "hit": false,
      "t": 415000.0000000006,
      "d": 500,
      "v": 90
    },
    {
      "midi": 50,
      "hit": false,
      "t": 415000.0000000006,
      "d": 250,
      "v": 90
    },
    {
      "midi": 57,
      "hit": false,
      "t": 415250.0000000006,
      "d": 250,
      "v": 90
    },
    {
      "midi": 69,
      "hit": false,
      "t": 415500.0000000006,
      "d": 500,
      "v": 90
    },
    {
      "midi": 74,
      "hit": false,
      "t": 415500.0000000006,
      "d": 500,
      "v": 90
    },
    {
      "midi": 53,
      "hit": false,
      "t": 415500.0000000006,
      "d": 250,
      "v": 90
    },
    {
      "midi": 62,
      "hit": false,
      "t": 415750.0000000006,
      "d": 250,
      "v": 90
    },
    {
      "midi": 67,
      "hit": false,
      "t": 416000.0000000006,
      "d": 500,
      "v": 90
    },
    {
      "midi": 70,
      "hit": false,
      "t": 416000.0000000006,
      "d": 500,
      "v": 90
    },
    {
      "midi": 53,
      "hit": false,
      "t": 416000.0000000006,
      "d": 250,
      "v": 90
    },
    {
      "midi": 62,
      "hit": false,
      "t": 416250.0000000006,
      "d": 250,
      "v": 90
    },
    {
      "midi": 67,
      "hit": false,
      "t": 416500.0000000006,
      "d": 500,
      "v": 90
    },
    {
      "midi": 76,
      "hit": false,
      "t": 416500.0000000006,
      "d": 500,
      "v": 90
    },
    {
      "midi": 52,
      "hit": false,
      "t": 416500.0000000006,
      "d": 250,
      "v": 90
    },
    {
      "midi": 61,
      "hit": false,
      "t": 416750.0000000006,
      "d": 250,
      "v": 90
    },
    {
      "midi": 69,
      "hit": false,
      "t": 417000.0000000006,
      "d": 500,
      "v": 90
    },
    {
      "midi": 74,
      "hit": false,
      "t": 417000.0000000006,
      "d": 500,
      "v": 90
    },
    {
      "midi": 53,
      "hit": false,
      "t": 417000.0000000006,
      "d": 250,
      "v": 90
    },
    {
      "midi": 62,
      "hit": false,
      "t": 417250.0000000006,
      "d": 250,
      "v": 90
    },
    {
      "midi": 65,
      "hit": false,
      "t": 417500.0000000006,
      "d": 500,
      "v": 90
    },
    {
      "midi": 74,
      "hit": false,
      "t": 417500.0000000006,
      "d": 500,
      "v": 90
    },
    {
      "midi": 50,
      "hit": false,
      "t": 417500.0000000006,
      "d": 250,
      "v": 90
    },
    {
      "midi": 62,
      "hit": false,
      "t": 417750.0000000006,
      "d": 250,
      "v": 90
    },
    {
      "midi": 73,
      "hit": false,
      "t": 418000.0000000006,
      "d": 1000,
      "v": 90
    },
    {
      "midi": 64,
      "hit": false,
      "t": 418000.0000000006,
      "d": 250,
      "v": 90
    },
    {
      "midi": 57,
      "hit": false,
      "t": 418000.0000000006,
      "d": 4000,
      "v": 90
    },
    {
      "midi": 69,
      "hit": false,
      "t": 418250.0000000006,
      "d": 250,
      "v": 90
    },
    {
      "midi": 67,
      "hit": false,
      "t": 418500.0000000006,
      "d": 250,
      "v": 90
    },
    {
      "midi": 69,
      "hit": false,
      "t": 418750.0000000006,
      "d": 250,
      "v": 90
    },
    {
      "midi": 74,
      "hit": false,
      "t": 419000.0000000006,
      "d": 500,
      "v": 90
    },
    {
      "midi": 65,
      "hit": false,
      "t": 419000.0000000006,
      "d": 250,
      "v": 90
    },
    {
      "midi": 69,
      "hit": false,
      "t": 419250.0000000006,
      "d": 250,
      "v": 90
    },
    {
      "midi": 76,
      "hit": false,
      "t": 419500.0000000006,
      "d": 500,
      "v": 90
    },
    {
      "midi": 64,
      "hit": false,
      "t": 419500.0000000006,
      "d": 250,
      "v": 90
    },
    {
      "midi": 69,
      "hit": false,
      "t": 419750.0000000006,
      "d": 250,
      "v": 90
    },
    {
      "midi": 77,
      "hit": false,
      "t": 420000.0000000006,
      "d": 500,
      "v": 90
    },
    {
      "midi": 62,
      "hit": false,
      "t": 420000.0000000006,
      "d": 250,
      "v": 90
    },
    {
      "midi": 69,
      "hit": false,
      "t": 420250.0000000006,
      "d": 250,
      "v": 90
    },
    {
      "midi": 76,
      "hit": false,
      "t": 420500.0000000006,
      "d": 500,
      "v": 90
    },
    {
      "midi": 61,
      "hit": false,
      "t": 420500.0000000006,
      "d": 250,
      "v": 90
    },
    {
      "midi": 69,
      "hit": false,
      "t": 420750.0000000006,
      "d": 250,
      "v": 90
    },
    {
      "midi": 77,
      "hit": false,
      "t": 421000.0000000006,
      "d": 500,
      "v": 90
    },
    {
      "midi": 62,
      "hit": false,
      "t": 421000.0000000006,
      "d": 250,
      "v": 90
    },
    {
      "midi": 69,
      "hit": false,
      "t": 421250.0000000006,
      "d": 250,
      "v": 90
    },
    {
      "midi": 73,
      "hit": false,
      "t": 421500.0000000006,
      "d": 500,
      "v": 90
    },
    {
      "midi": 64,
      "hit": false,
      "t": 421500.0000000006,
      "d": 250,
      "v": 90
    },
    {
      "midi": 69,
      "hit": false,
      "t": 421750.0000000006,
      "d": 250,
      "v": 90
    },
    {
      "midi": 74,
      "hit": false,
      "t": 422000.0000000006,
      "d": 500,
      "v": 90
    },
    {
      "midi": 65,
      "hit": false,
      "t": 422000.0000000006,
      "d": 250,
      "v": 90
    },
    {
      "midi": 69,
      "hit": false,
      "t": 422250.0000000006,
      "d": 250,
      "v": 90
    },
    {
      "midi": 73,
      "hit": false,
      "t": 422500.0000000006,
      "d": 500,
      "v": 90
    },
    {
      "midi": 57,
      "hit": false,
      "t": 422500.0000000006,
      "d": 250,
      "v": 90
    },
    {
      "midi": 69,
      "hit": false,
      "t": 422750.0000000006,
      "d": 250,
      "v": 90
    },
    {
      "midi": 74,
      "hit": false,
      "t": 423000.0000000006,
      "d": 500,
      "v": 90
    },
    {
      "midi": 59,
      "hit": false,
      "t": 423000.0000000006,
      "d": 250,
      "v": 90
    },
    {
      "midi": 69,
      "hit": false,
      "t": 423250.0000000006,
      "d": 250,
      "v": 90
    },
    {
      "midi": 76,
      "hit": false,
      "t": 423500.0000000006,
      "d": 500,
      "v": 90
    },
    {
      "midi": 61,
      "hit": false,
      "t": 423500.0000000006,
      "d": 250,
      "v": 90
    },
    {
      "midi": 69,
      "hit": false,
      "t": 423750.0000000006,
      "d": 250,
      "v": 90
    },
    {
      "midi": 77,
      "hit": false,
      "t": 424000.0000000006,
      "d": 500,
      "v": 90
    },
    {
      "midi": 62,
      "hit": false,
      "t": 424000.0000000006,
      "d": 250,
      "v": 90
    },
    {
      "midi": 69,
      "hit": false,
      "t": 424250.0000000006,
      "d": 250,
      "v": 90
    },
    {
      "midi": 76,
      "hit": false,
      "t": 424500.0000000006,
      "d": 500,
      "v": 90
    },
    {
      "midi": 61,
      "hit": false,
      "t": 424500.0000000006,
      "d": 250,
      "v": 90
    },
    {
      "midi": 69,
      "hit": false,
      "t": 424750.0000000006,
      "d": 250,
      "v": 90
    },
    {
      "midi": 77,
      "hit": false,
      "t": 425000.0000000006,
      "d": 500,
      "v": 90
    },
    {
      "midi": 62,
      "hit": false,
      "t": 425000.0000000006,
      "d": 250,
      "v": 90
    },
    {
      "midi": 69,
      "hit": false,
      "t": 425250.0000000006,
      "d": 250,
      "v": 90
    },
    {
      "midi": 79,
      "hit": false,
      "t": 425500.0000000006,
      "d": 500,
      "v": 90
    },
    {
      "midi": 64,
      "hit": false,
      "t": 425500.0000000006,
      "d": 250,
      "v": 90
    },
    {
      "midi": 69,
      "hit": false,
      "t": 425750.0000000006,
      "d": 250,
      "v": 90
    },
    {
      "midi": 81,
      "hit": false,
      "t": 426000.0000000006,
      "d": 250,
      "v": 90
    },
    {
      "midi": 65,
      "hit": false,
      "t": 426000.0000000006,
      "d": 500,
      "v": 90
    },
    {
      "midi": 82,
      "hit": false,
      "t": 426250.0000000006,
      "d": 250,
      "v": 90
    },
    {
      "midi": 79,
      "hit": false,
      "t": 426500.0000000006,
      "d": 250,
      "v": 90
    },
    {
      "midi": 64,
      "hit": false,
      "t": 426500.0000000006,
      "d": 500,
      "v": 90
    },
    {
      "midi": 81,
      "hit": false,
      "t": 426750.0000000006,
      "d": 250,
      "v": 90
    },
    {
      "midi": 77,
      "hit": false,
      "t": 427000.0000000006,
      "d": 250,
      "v": 90
    },
    {
      "midi": 62,
      "hit": false,
      "t": 427000.0000000006,
      "d": 500,
      "v": 90
    },
    {
      "midi": 79,
      "hit": false,
      "t": 427250.0000000006,
      "d": 250,
      "v": 90
    },
    {
      "midi": 76,
      "hit": false,
      "t": 427500.0000000006,
      "d": 250,
      "v": 90
    },
    {
      "midi": 67,
      "hit": false,
      "t": 427500.0000000006,
      "d": 500,
      "v": 90
    },
    {
      "midi": 77,
      "hit": false,
      "t": 427750.0000000006,
      "d": 250,
      "v": 90
    },
    {
      "midi": 74,
      "hit": false,
      "t": 428000.0000000006,
      "d": 250,
      "v": 90
    },
    {
      "midi": 65,
      "hit": false,
      "t": 428000.0000000006,
      "d": 500,
      "v": 90
    },
    {
      "midi": 69,
      "hit": false,
      "t": 428250.0000000006,
      "d": 250,
      "v": 90
    },
    {
      "midi": 73,
      "hit": false,
      "t": 428500.0000000006,
      "d": 250,
      "v": 90
    },
    {
      "midi": 64,
      "hit": false,
      "t": 428500.0000000006,
      "d": 500,
      "v": 90
    },
    {
      "midi": 69,
      "hit": false,
      "t": 428750.0000000006,
      "d": 250,
      "v": 90
    },
    {
      "midi": 74,
      "hit": false,
      "t": 429000.0000000006,
      "d": 250,
      "v": 90
    },
    {
      "midi": 65,
      "hit": false,
      "t": 429000.0000000006,
      "d": 500,
      "v": 90
    },
    {
      "midi": 69,
      "hit": false,
      "t": 429250.0000000006,
      "d": 250,
      "v": 90
    },
    {
      "midi": 76,
      "hit": false,
      "t": 429500.0000000006,
      "d": 250,
      "v": 90
    },
    {
      "midi": 61,
      "hit": false,
      "t": 429500.0000000006,
      "d": 500,
      "v": 90
    },
    {
      "midi": 69,
      "hit": false,
      "t": 429750.0000000006,
      "d": 250,
      "v": 90
    },
    {
      "midi": 77,
      "hit": false,
      "t": 430000.0000000006,
      "d": 250,
      "v": 90
    },
    {
      "midi": 62,
      "hit": false,
      "t": 430000.0000000006,
      "d": 500,
      "v": 90
    },
    {
      "midi": 69,
      "hit": false,
      "t": 430250.0000000006,
      "d": 250,
      "v": 90
    },
    {
      "midi": 76,
      "hit": false,
      "t": 430500.0000000006,
      "d": 250,
      "v": 90
    },
    {
      "midi": 61,
      "hit": false,
      "t": 430500.0000000006,
      "d": 500,
      "v": 90
    },
    {
      "midi": 69,
      "hit": false,
      "t": 430750.0000000006,
      "d": 250,
      "v": 90
    },
    {
      "midi": 77,
      "hit": false,
      "t": 431000.0000000006,
      "d": 250,
      "v": 90
    },
    {
      "midi": 62,
      "hit": false,
      "t": 431000.0000000006,
      "d": 500,
      "v": 90
    },
    {
      "midi": 69,
      "hit": false,
      "t": 431250.0000000006,
      "d": 250,
      "v": 90
    },
    {
      "midi": 79,
      "hit": false,
      "t": 431500.0000000006,
      "d": 250,
      "v": 90
    },
    {
      "midi": 59,
      "hit": false,
      "t": 431500.0000000006,
      "d": 500,
      "v": 90
    },
    {
      "midi": 69,
      "hit": false,
      "t": 431750.0000000006,
      "d": 250,
      "v": 90
    },
    {
      "midi": 81,
      "hit": false,
      "t": 432000.0000000006,
      "d": 250,
      "v": 90
    },
    {
      "midi": 61,
      "hit": false,
      "t": 432000.0000000006,
      "d": 500,
      "v": 90
    },
    {
      "midi": 69,
      "hit": false,
      "t": 432250.0000000006,
      "d": 250,
      "v": 90
    },
    {
      "midi": 76,
      "hit": false,
      "t": 432500.0000000006,
      "d": 250,
      "v": 90
    },
    {
      "midi": 67,
      "hit": false,
      "t": 432500.0000000006,
      "d": 500,
      "v": 90
    },
    {
      "midi": 69,
      "hit": false,
      "t": 432750.0000000006,
      "d": 250,
      "v": 90
    },
    {
      "midi": 77,
      "hit": false,
      "t": 433000.0000000006,
      "d": 250,
      "v": 90
    },
    {
      "midi": 65,
      "hit": false,
      "t": 433000.0000000006,
      "d": 500,
      "v": 90
    },
    {
      "midi": 69,
      "hit": false,
      "t": 433250.0000000006,
      "d": 250,
      "v": 90
    },
    {
      "midi": 79,
      "hit": false,
      "t": 433500.0000000006,
      "d": 250,
      "v": 90
    },
    {
      "midi": 62,
      "hit": false,
      "t": 433500.0000000006,
      "d": 500,
      "v": 90
    },
    {
      "midi": 69,
      "hit": false,
      "t": 433750.0000000006,
      "d": 250,
      "v": 90
    },
    {
      "midi": 81,
      "hit": false,
      "t": 434000.0000000006,
      "d": 1000,
      "v": 90
    },
    {
      "midi": 61,
      "hit": false,
      "t": 434000.0000000006,
      "d": 1000,
      "v": 90
    },
    {
      "midi": 76,
      "hit": false,
      "t": 442250.0000000006,
      "d": 250,
      "v": 90
    },
    {
      "midi": 67,
      "hit": false,
      "t": 442250.0000000006,
      "d": 250,
      "v": 90
    },
    {
      "midi": 74,
      "hit": false,
      "t": 442500.0000000006,
      "d": 250,
      "v": 90
    },
    {
      "midi": 65,
      "hit": false,
      "t": 442500.0000000006,
      "d": 250,
      "v": 90
    },
    {
      "midi": 73,
      "hit": false,
      "t": 442750.0000000006,
      "d": 250,
      "v": 90
    },
    {
      "midi": 64,
      "hit": false,
      "t": 442750.0000000006,
      "d": 250,
      "v": 90
    },
    {
      "midi": 74,
      "hit": false,
      "t": 443000.0000000006,
      "d": 750,
      "v": 90
    },
    {
      "midi": 65,
      "hit": false,
      "t": 443000.0000000006,
      "d": 250,
      "v": 90
    },
    {
      "midi": 61,
      "hit": false,
      "t": 443250.0000000006,
      "d": 250,
      "v": 90
    },
    {
      "midi": 62,
      "hit": false,
      "t": 443500.0000000006,
      "d": 1500,
      "v": 90
    },
    {
      "midi": 77,
      "hit": false,
      "t": 443750.0000000006,
      "d": 250,
      "v": 90
    },
    {
      "midi": 76,
      "hit": false,
      "t": 444000.0000000006,
      "d": 250,
      "v": 90
    },
    {
      "midi": 77,
      "hit": false,
      "t": 444250.0000000006,
      "d": 250,
      "v": 90
    },
    {
      "midi": 79,
      "hit": false,
      "t": 444500.0000000006,
      "d": 250,
      "v": 90
    },
    {
      "midi": 81,
      "hit": false,
      "t": 444750.0000000006,
      "d": 250,
      "v": 90
    },
    {
      "midi": 82,
      "hit": false,
      "t": 445000.0000000006,
      "d": 250,
      "v": 90
    },
    {
      "midi": 61,
      "hit": false,
      "t": 445000.0000000006,
      "d": 1000,
      "v": 90
    },
    {
      "midi": 81,
      "hit": false,
      "t": 445250.0000000006,
      "d": 250,
      "v": 90
    },
    {
      "midi": 79,
      "hit": false,
      "t": 445500.0000000006,
      "d": 250,
      "v": 90
    },
    {
      "midi": 81,
      "hit": false,
      "t": 445750.0000000006,
      "d": 250,
      "v": 90
    },
    {
      "midi": 77,
      "hit": false,
      "t": 446000.0000000006,
      "d": 500,
      "v": 90
    },
    {
      "midi": 62,
      "hit": false,
      "t": 446000.0000000006,
      "d": 250,
      "v": 90
    },
    {
      "midi": 69,
      "hit": false,
      "t": 446250.0000000006,
      "d": 250,
      "v": 90
    },
    {
      "midi": 76,
      "hit": false,
      "t": 446500.0000000006,
      "d": 500,
      "v": 90
    },
    {
      "midi": 71,
      "hit": false,
      "t": 446500.0000000006,
      "d": 250,
      "v": 90
    },
    {
      "midi": 73,
      "hit": false,
      "t": 446750.0000000006,
      "d": 250,
      "v": 90
    },
    {
      "midi": 74,
      "hit": false,
      "t": 447000.0000000006,
      "d": 250,
      "v": 90
    },
    {
      "midi": 74,
      "hit": false,
      "t": 447000.0000000006,
      "d": 500,
      "v": 90
    },
    {
      "midi": 76,
      "hit": false,
      "t": 447250.0000000006,
      "d": 250,
      "v": 90
    },
    {
      "midi": 77,
      "hit": false,
      "t": 447500.0000000006,
      "d": 250,
      "v": 90
    },
    {
      "midi": 72,
      "hit": false,
      "t": 447500.0000000006,
      "d": 500,
      "v": 90
    },
    {
      "midi": 75,
      "hit": false,
      "t": 447750.0000000006,
      "d": 250,
      "v": 90
    },
    {
      "midi": 74,
      "hit": false,
      "t": 448000.0000000006,
      "d": 250,
      "v": 90
    },
    {
      "midi": 65,
      "hit": false,
      "t": 448000.0000000006,
      "d": 1500,
      "v": 90
    },
    {
      "midi": 72,
      "hit": false,
      "t": 448250.0000000006,
      "d": 250,
      "v": 90
    },
    {
      "midi": 70,
      "hit": false,
      "t": 448500.0000000006,
      "d": 250,
      "v": 90
    },
    {
      "midi": 69,
      "hit": false,
      "t": 448750.0000000006,
      "d": 250,
      "v": 90
    },
    {
      "midi": 67,
      "hit": false,
      "t": 449000.0000000006,
      "d": 250,
      "v": 90
    },
    {
      "midi": 69,
      "hit": false,
      "t": 449250.0000000006,
      "d": 250,
      "v": 90
    },
    {
      "midi": 70,
      "hit": false,
      "t": 449500.0000000006,
      "d": 250,
      "v": 90
    },
    {
      "midi": 63,
      "hit": false,
      "t": 449500.0000000006,
      "d": 750,
      "v": 90
    },
    {
      "midi": 72,
      "hit": false,
      "t": 449750.0000000006,
      "d": 250,
      "v": 90
    },
    {
      "midi": 69,
      "hit": false,
      "t": 450000.0000000006,
      "d": 1000,
      "v": 90
    },
    {
      "midi": 60,
      "hit": false,
      "t": 450250.0000000006,
      "d": 250,
      "v": 90
    },
    {
      "midi": 57,
      "hit": false,
      "t": 450500.0000000006,
      "d": 250,
      "v": 90
    },
    {
      "midi": 53,
      "hit": false,
      "t": 450750.0000000006,
      "d": 250,
      "v": 90
    },
    {
      "midi": 57,
      "hit": false,
      "t": 451000.0000000006,
      "d": 250,
      "v": 90
    },
    {
      "midi": 60,
      "hit": false,
      "t": 451250.0000000006,
      "d": 250,
      "v": 90
    },
    {
      "midi": 72,
      "hit": false,
      "t": 451500.0000000006,
      "d": 1000,
      "v": 90
    },
    {
      "midi": 63,
      "hit": false,
      "t": 451500.0000000006,
      "d": 250,
      "v": 90
    },
    {
      "midi": 60,
      "hit": false,
      "t": 451750.0000000006,
      "d": 250,
      "v": 90
    },
    {
      "midi": 62,
      "hit": false,
      "t": 452000.0000000006,
      "d": 250,
      "v": 90
    },
    {
      "midi": 58,
      "hit": false,
      "t": 452250.0000000006,
      "d": 250,
      "v": 90
    },
    {
      "midi": 70,
      "hit": false,
      "t": 452500.0000000006,
      "d": 500,
      "v": 90
    },
    {
      "midi": 55,
      "hit": false,
      "t": 452500.0000000006,
      "d": 250,
      "v": 90
    },
    {
      "midi": 50,
      "hit": false,
      "t": 452750.0000000006,
      "d": 250,
      "v": 90
    },
    {
      "midi": 55,
      "hit": false,
      "t": 453000.0000000006,
      "d": 250,
      "v": 90
    },
    {
      "midi": 58,
      "hit": false,
      "t": 453250.0000000006,
      "d": 250,
      "v": 90
    },
    {
      "midi": 79,
      "hit": false,
      "t": 453500.0000000006,
      "d": 500,
      "v": 90
    },
    {
      "midi": 62,
      "hit": false,
      "t": 453500.0000000006,
      "d": 250,
      "v": 90
    },
    {
      "midi": 67,
      "hit": false,
      "t": 453750.0000000006,
      "d": 250,
      "v": 90
    },
    {
      "midi": 75,
      "hit": false,
      "t": 454000.0000000006,
      "d": 250,
      "v": 90
    },
    {
      "midi": 60,
      "hit": false,
      "t": 454000.0000000006,
      "d": 250,
      "v": 90
    },
    {
      "midi": 77,
      "hit": false,
      "t": 454250.0000000006,
      "d": 250,
      "v": 90
    },
    {
      "midi": 62,
      "hit": false,
      "t": 454250.0000000006,
      "d": 250,
      "v": 90
    },
    {
      "midi": 74,
      "hit": false,
      "t": 454500.0000000006,
      "d": 250,
      "v": 90
    },
    {
      "midi": 58,
      "hit": false,
      "t": 454500.0000000006,
      "d": 250,
      "v": 90
    },
    {
      "midi": 75,
      "hit": false,
      "t": 454750.0000000006,
      "d": 250,
      "v": 90
    },
    {
      "midi": 60,
      "hit": false,
      "t": 454750.0000000006,
      "d": 250,
      "v": 90
    },
    {
      "midi": 72,
      "hit": false,
      "t": 455000.0000000006,
      "d": 250,
      "v": 90
    },
    {
      "midi": 57,
      "hit": false,
      "t": 455000.0000000006,
      "d": 250,
      "v": 90
    },
    {
      "midi": 70,
      "hit": false,
      "t": 455250.0000000006,
      "d": 250,
      "v": 90
    },
    {
      "midi": 55,
      "hit": false,
      "t": 455250.0000000006,
      "d": 250,
      "v": 90
    },
    {
      "midi": 69,
      "hit": false,
      "t": 455500.0000000006,
      "d": 250,
      "v": 90
    },
    {
      "midi": 54,
      "hit": false,
      "t": 455500.0000000006,
      "d": 250,
      "v": 90
    },
    {
      "midi": 67,
      "hit": false,
      "t": 455750.0000000006,
      "d": 250,
      "v": 90
    },
    {
      "midi": 52,
      "hit": false,
      "t": 455750.0000000006,
      "d": 250,
      "v": 90
    },
    {
      "midi": 69,
      "hit": false,
      "t": 456000.0000000006,
      "d": 1000,
      "v": 90
    },
    {
      "midi": 54,
      "hit": false,
      "t": 456000.0000000006,
      "d": 250,
      "v": 90
    },
    {
      "midi": 50,
      "hit": false,
      "t": 456250.0000000006,
      "d": 250,
      "v": 90
    },
    {
      "midi": 54,
      "hit": false,
      "t": 456500.0000000006,
      "d": 250,
      "v": 90
    },
    {
      "midi": 55,
      "hit": false,
      "t": 456750.0000000006,
      "d": 250,
      "v": 90
    },
    {
      "midi": 57,
      "hit": false,
      "t": 457000.0000000006,
      "d": 250,
      "v": 90
    },
    {
      "midi": 62,
      "hit": false,
      "t": 457250.0000000006,
      "d": 250,
      "v": 90
    },
    {
      "midi": 57,
      "hit": false,
      "t": 457500.0000000006,
      "d": 250,
      "v": 90
    },
    {
      "midi": 55,
      "hit": false,
      "t": 457750.0000000006,
      "d": 250,
      "v": 90
    },
    {
      "midi": 54,
      "hit": false,
      "t": 458000.0000000006,
      "d": 250,
      "v": 90
    },
    {
      "midi": 50,
      "hit": false,
      "t": 458250.0000000006,
      "d": 250,
      "v": 90
    },
    {
      "midi": 54,
      "hit": false,
      "t": 458500.0000000006,
      "d": 250,
      "v": 90
    },
    {
      "midi": 55,
      "hit": false,
      "t": 458750.0000000006,
      "d": 250,
      "v": 90
    },
    {
      "midi": 57,
      "hit": false,
      "t": 459000.0000000006,
      "d": 250,
      "v": 90
    },
    {
      "midi": 62,
      "hit": false,
      "t": 459250.0000000006,
      "d": 250,
      "v": 90
    },
    {
      "midi": 57,
      "hit": false,
      "t": 459500.0000000006,
      "d": 250,
      "v": 90
    },
    {
      "midi": 54,
      "hit": false,
      "t": 459750.0000000006,
      "d": 250,
      "v": 90
    },
    {
      "midi": 55,
      "hit": false,
      "t": 460000.0000000006,
      "d": 250,
      "v": 90
    },
    {
      "midi": 50,
      "hit": false,
      "t": 460250.0000000006,
      "d": 250,
      "v": 90
    },
    {
      "midi": 55,
      "hit": false,
      "t": 460500.0000000006,
      "d": 250,
      "v": 90
    },
    {
      "midi": 57,
      "hit": false,
      "t": 460750.0000000006,
      "d": 250,
      "v": 90
    },
    {
      "midi": 58,
      "hit": false,
      "t": 461000.0000000006,
      "d": 250,
      "v": 90
    },
    {
      "midi": 62,
      "hit": false,
      "t": 461250.0000000006,
      "d": 250,
      "v": 90
    },
    {
      "midi": 58,
      "hit": false,
      "t": 461500.0000000006,
      "d": 250,
      "v": 90
    },
    {
      "midi": 57,
      "hit": false,
      "t": 461750.0000000006,
      "d": 250,
      "v": 90
    },
    {
      "midi": 55,
      "hit": false,
      "t": 462000.0000000006,
      "d": 250,
      "v": 90
    },
    {
      "midi": 50,
      "hit": false,
      "t": 462250.0000000006,
      "d": 250,
      "v": 90
    },
    {
      "midi": 55,
      "hit": false,
      "t": 462500.0000000006,
      "d": 250,
      "v": 90
    },
    {
      "midi": 57,
      "hit": false,
      "t": 462750.0000000006,
      "d": 250,
      "v": 90
    },
    {
      "midi": 58,
      "hit": false,
      "t": 463000.0000000006,
      "d": 250,
      "v": 90
    },
    {
      "midi": 62,
      "hit": false,
      "t": 463250.0000000006,
      "d": 250,
      "v": 90
    },
    {
      "midi": 60,
      "hit": false,
      "t": 463500.0000000006,
      "d": 250,
      "v": 90
    },
    {
      "midi": 58,
      "hit": false,
      "t": 463750.0000000006,
      "d": 250,
      "v": 90
    },
    {
      "midi": 57,
      "hit": false,
      "t": 464000.0000000006,
      "d": 250,
      "v": 90
    },
    {
      "midi": 54,
      "hit": false,
      "t": 464250.0000000006,
      "d": 250,
      "v": 90
    },
    {
      "midi": 57,
      "hit": false,
      "t": 464500.0000000006,
      "d": 250,
      "v": 90
    },
    {
      "midi": 58,
      "hit": false,
      "t": 464750.0000000006,
      "d": 250,
      "v": 90
    },
    {
      "midi": 60,
      "hit": false,
      "t": 465000.0000000006,
      "d": 250,
      "v": 90
    },
    {
      "midi": 63,
      "hit": false,
      "t": 465250.0000000006,
      "d": 250,
      "v": 90
    },
    {
      "midi": 60,
      "hit": false,
      "t": 465500.0000000006,
      "d": 250,
      "v": 90
    },
    {
      "midi": 58,
      "hit": false,
      "t": 465750.0000000006,
      "d": 250,
      "v": 90
    },
    {
      "midi": 57,
      "hit": false,
      "t": 466000.0000000006,
      "d": 250,
      "v": 90
    },
    {
      "midi": 54,
      "hit": false,
      "t": 466250.0000000006,
      "d": 250,
      "v": 90
    },
    {
      "midi": 57,
      "hit": false,
      "t": 466500.0000000006,
      "d": 250,
      "v": 90
    },
    {
      "midi": 58,
      "hit": false,
      "t": 466750.0000000006,
      "d": 250,
      "v": 90
    },
    {
      "midi": 60,
      "hit": false,
      "t": 467000.0000000006,
      "d": 250,
      "v": 90
    },
    {
      "midi": 63,
      "hit": false,
      "t": 467250.0000000006,
      "d": 250,
      "v": 90
    },
    {
      "midi": 60,
      "hit": false,
      "t": 467500.0000000006,
      "d": 250,
      "v": 90
    },
    {
      "midi": 58,
      "hit": false,
      "t": 467750.0000000006,
      "d": 250,
      "v": 90
    },
    {
      "midi": 57,
      "hit": false,
      "t": 468000.0000000006,
      "d": 250,
      "v": 90
    },
    {
      "midi": 58,
      "hit": false,
      "t": 468250.0000000006,
      "d": 250,
      "v": 90
    },
    {
      "midi": 62,
      "hit": false,
      "t": 468500.0000000006,
      "d": 250,
      "v": 90
    },
    {
      "midi": 66,
      "hit": false,
      "t": 468750.0000000006,
      "d": 250,
      "v": 90
    },
    {
      "midi": 67,
      "hit": false,
      "t": 469000.0000000006,
      "d": 250,
      "v": 90
    },
    {
      "midi": 70,
      "hit": false,
      "t": 469250.0000000006,
      "d": 250,
      "v": 90
    },
    {
      "midi": 67,
      "hit": false,
      "t": 469500.0000000006,
      "d": 250,
      "v": 90
    },
    {
      "midi": 62,
      "hit": false,
      "t": 469750.0000000006,
      "d": 250,
      "v": 90
    },
    {
      "midi": 58,
      "hit": false,
      "t": 470000.0000000006,
      "d": 250,
      "v": 90
    },
    {
      "midi": 55,
      "hit": false,
      "t": 470250.0000000006,
      "d": 250,
      "v": 90
    },
    {
      "midi": 58,
      "hit": false,
      "t": 470500.0000000006,
      "d": 250,
      "v": 90
    },
    {
      "midi": 62,
      "hit": false,
      "t": 470750.0000000006,
      "d": 250,
      "v": 90
    },
    {
      "midi": 67,
      "hit": false,
      "t": 471000.0000000006,
      "d": 250,
      "v": 90
    },
    {
      "midi": 70,
      "hit": false,
      "t": 471250.0000000006,
      "d": 250,
      "v": 90
    },
    {
      "midi": 67,
      "hit": false,
      "t": 471500.0000000006,
      "d": 250,
      "v": 90
    },
    {
      "midi": 62,
      "hit": false,
      "t": 471750.0000000006,
      "d": 250,
      "v": 90
    },
    {
      "midi": 60,
      "hit": false,
      "t": 472000.0000000006,
      "d": 250,
      "v": 90
    },
    {
      "midi": 57,
      "hit": false,
      "t": 472250.0000000006,
      "d": 250,
      "v": 90
    },
    {
      "midi": 60,
      "hit": false,
      "t": 472500.0000000006,
      "d": 250,
      "v": 90
    },
    {
      "midi": 63,
      "hit": false,
      "t": 472750.0000000006,
      "d": 250,
      "v": 90
    },
    {
      "midi": 66,
      "hit": false,
      "t": 473000.0000000006,
      "d": 250,
      "v": 90
    },
    {
      "midi": 69,
      "hit": false,
      "t": 473250.0000000006,
      "d": 250,
      "v": 90
    },
    {
      "midi": 66,
      "hit": false,
      "t": 473500.0000000006,
      "d": 250,
      "v": 90
    },
    {
      "midi": 63,
      "hit": false,
      "t": 473750.0000000006,
      "d": 250,
      "v": 90
    },
    {
      "midi": 60,
      "hit": false,
      "t": 474000.0000000006,
      "d": 250,
      "v": 90
    },
    {
      "midi": 57,
      "hit": false,
      "t": 474250.0000000006,
      "d": 250,
      "v": 90
    },
    {
      "midi": 60,
      "hit": false,
      "t": 474500.0000000006,
      "d": 250,
      "v": 90
    },
    {
      "midi": 63,
      "hit": false,
      "t": 474750.0000000006,
      "d": 250,
      "v": 90
    },
    {
      "midi": 66,
      "hit": false,
      "t": 475000.0000000006,
      "d": 250,
      "v": 90
    },
    {
      "midi": 69,
      "hit": false,
      "t": 475250.0000000006,
      "d": 250,
      "v": 90
    },
    {
      "midi": 66,
      "hit": false,
      "t": 475500.0000000006,
      "d": 250,
      "v": 90
    },
    {
      "midi": 63,
      "hit": false,
      "t": 475750.0000000006,
      "d": 250,
      "v": 90
    },
    {
      "midi": 62,
      "hit": false,
      "t": 476000.0000000006,
      "d": 1000,
      "v": 90
    },
    {
      "midi": 54,
      "hit": false,
      "t": 476000.0000000006,
      "d": 1000,
      "v": 90
    },
    {
      "midi": 67,
      "hit": false,
      "t": 477000.0000000006,
      "d": 500,
      "v": 90
    },
    {
      "midi": 74,
      "hit": false,
      "t": 477000.0000000006,
      "d": 500,
      "v": 90
    },
    {
      "midi": 55,
      "hit": false,
      "t": 477000.0000000006,
      "d": 500,
      "v": 90
    },
    {
      "midi": 66,
      "hit": false,
      "t": 477500.0000000006,
      "d": 500,
      "v": 90
    },
    {
      "midi": 72,
      "hit": false,
      "t": 477500.0000000006,
      "d": 500,
      "v": 90
    },
    {
      "midi": 57,
      "hit": false,
      "t": 477500.0000000006,
      "d": 500,
      "v": 90
    },
    {
      "midi": 67,
      "hit": false,
      "t": 478000.0000000006,
      "d": 1000,
      "v": 90
    },
    {
      "midi": 70,
      "hit": false,
      "t": 478000.0000000006,
      "d": 1000,
      "v": 90
    },
    {
      "midi": 58,
      "hit": false,
      "t": 478000.0000000006,
      "d": 1000,
      "v": 90
    },
    {
      "midi": 67,
      "hit": false,
      "t": 479000.0000000006,
      "d": 500,
      "v": 90
    },
    {
      "midi": 72,
      "hit": false,
      "t": 479000.0000000006,
      "d": 500,
      "v": 90
    },
    {
      "midi": 63,
      "hit": false,
      "t": 479000.0000000006,
      "d": 500,
      "v": 90
    },
    {
      "midi": 71,
      "hit": false,
      "t": 479500.0000000006,
      "d": 500,
      "v": 90
    },
    {
      "midi": 74,
      "hit": false,
      "t": 479500.0000000006,
      "d": 500,
      "v": 90
    },
    {
      "midi": 59,
      "hit": false,
      "t": 479500.0000000006,
      "d": 500,
      "v": 90
    },
    {
      "midi": 72,
      "hit": false,
      "t": 480000.0000000006,
      "d": 1000,
      "v": 90
    },
    {
      "midi": 75,
      "hit": false,
      "t": 480000.0000000006,
      "d": 1000,
      "v": 90
    },
    {
      "midi": 55,
      "hit": false,
      "t": 480000.0000000006,
      "d": 1000,
      "v": 90
    },
    {
      "midi": 72,
      "hit": false,
      "t": 481000.0000000006,
      "d": 500,
      "v": 90
    },
    {
      "midi": 77,
      "hit": false,
      "t": 481000.0000000006,
      "d": 500,
      "v": 90
    },
    {
      "midi": 60,
      "hit": false,
      "t": 481000.0000000006,
      "d": 500,
      "v": 90
    },
    {
      "midi": 76,
      "hit": false,
      "t": 481500.0000000006,
      "d": 500,
      "v": 90
    },
    {
      "midi": 79,
      "hit": false,
      "t": 481500.0000000006,
      "d": 500,
      "v": 90
    },
    {
      "midi": 58,
      "hit": false,
      "t": 481500.0000000006,
      "d": 500,
      "v": 90
    },
    {
      "midi": 77,
      "hit": false,
      "t": 482000.0000000006,
      "d": 1000,
      "v": 90
    },
    {
      "midi": 81,
      "hit": false,
      "t": 482000.0000000006,
      "d": 1000,
      "v": 90
    },
    {
      "midi": 57,
      "hit": false,
      "t": 482000.0000000006,
      "d": 1000,
      "v": 90
    },
    {
      "midi": 70,
      "hit": false,
      "t": 483000.0000000006,
      "d": 500,
      "v": 90
    },
    {
      "midi": 77,
      "hit": false,
      "t": 483000.0000000006,
      "d": 500,
      "v": 90
    },
    {
      "midi": 58,
      "hit": false,
      "t": 483000.0000000006,
      "d": 500,
      "v": 90
    },
    {
      "midi": 69,
      "hit": false,
      "t": 483500.0000000006,
      "d": 500,
      "v": 90
    },
    {
      "midi": 75,
      "hit": false,
      "t": 483500.0000000006,
      "d": 500,
      "v": 90
    },
    {
      "midi": 60,
      "hit": false,
      "t": 483500.0000000006,
      "d": 500,
      "v": 90
    },
    {
      "midi": 74,
      "hit": false,
      "t": 484000.0000000006,
      "d": 250,
      "v": 90
    },
    {
      "midi": 70,
      "hit": false,
      "t": 484000.0000000006,
      "d": 500,
      "v": 90
    },
    {
      "midi": 62,
      "hit": false,
      "t": 484000.0000000006,
      "d": 250,
      "v": 90
    },
    {
      "midi": 75,
      "hit": false,
      "t": 484250.0000000006,
      "d": 250,
      "v": 90
    },
    {
      "midi": 67,
      "hit": false,
      "t": 484250.0000000006,
      "d": 250,
      "v": 90
    },
    {
      "midi": 74,
      "hit": false,
      "t": 484500.0000000006,
      "d": 250,
      "v": 90
    },
    {
      "midi": 65,
      "hit": false,
      "t": 484500.0000000006,
      "d": 250,
      "v": 90
    },
    {
      "midi": 72,
      "hit": false,
      "t": 484750.0000000006,
      "d": 250,
      "v": 90
    },
    {
      "midi": 63,
      "hit": false,
      "t": 484750.0000000006,
      "d": 250,
      "v": 90
    },
    {
      "midi": 70,
      "hit": false,
      "t": 485000.0000000006,
      "d": 250,
      "v": 90
    },
    {
      "midi": 62,
      "hit": false,
      "t": 485000.0000000006,
      "d": 250,
      "v": 90
    },
    {
      "midi": 72,
      "hit": false,
      "t": 485250.0000000006,
      "d": 250,
      "v": 90
    },
    {
      "midi": 63,
      "hit": false,
      "t": 485250.0000000006,
      "d": 250,
      "v": 90
    },
    {
      "midi": 70,
      "hit": false,
      "t": 485500.0000000006,
      "d": 250,
      "v": 90
    },
    {
      "midi": 62,
      "hit": false,
      "t": 485500.0000000006,
      "d": 250,
      "v": 90
    },
    {
      "midi": 69,
      "hit": false,
      "t": 485750.0000000006,
      "d": 250,
      "v": 90
    },
    {
      "midi": 60,
      "hit": false,
      "t": 485750.0000000006,
      "d": 250,
      "v": 90
    },
    {
      "midi": 67,
      "hit": false,
      "t": 486000.0000000006,
      "d": 250,
      "v": 90
    },
    {
      "midi": 58,
      "hit": false,
      "t": 486000.0000000006,
      "d": 250,
      "v": 90
    },
    {
      "midi": 72,
      "hit": false,
      "t": 486250.0000000006,
      "d": 250,
      "v": 90
    },
    {
      "midi": 63,
      "hit": false,
      "t": 486250.0000000006,
      "d": 250,
      "v": 90
    },
    {
      "midi": 70,
      "hit": false,
      "t": 486500.0000000006,
      "d": 250,
      "v": 90
    },
    {
      "midi": 62,
      "hit": false,
      "t": 486500.0000000006,
      "d": 250,
      "v": 90
    },
    {
      "midi": 69,
      "hit": false,
      "t": 486750.0000000006,
      "d": 250,
      "v": 90
    },
    {
      "midi": 60,
      "hit": false,
      "t": 486750.0000000006,
      "d": 250,
      "v": 90
    },
    {
      "midi": 67,
      "hit": false,
      "t": 487000.0000000006,
      "d": 250,
      "v": 90
    },
    {
      "midi": 58,
      "hit": false,
      "t": 487000.0000000006,
      "d": 250,
      "v": 90
    },
    {
      "midi": 69,
      "hit": false,
      "t": 487250.0000000006,
      "d": 250,
      "v": 90
    },
    {
      "midi": 60,
      "hit": false,
      "t": 487250.0000000006,
      "d": 250,
      "v": 90
    },
    {
      "midi": 67,
      "hit": false,
      "t": 487500.0000000006,
      "d": 250,
      "v": 90
    },
    {
      "midi": 58,
      "hit": false,
      "t": 487500.0000000006,
      "d": 250,
      "v": 90
    },
    {
      "midi": 66,
      "hit": false,
      "t": 487750.0000000006,
      "d": 250,
      "v": 90
    },
    {
      "midi": 57,
      "hit": false,
      "t": 487750.0000000006,
      "d": 250,
      "v": 90
    },
    {
      "midi": 67,
      "hit": false,
      "t": 488000.0000000006,
      "d": 250,
      "v": 90
    },
    {
      "midi": 58,
      "hit": false,
      "t": 488000.0000000006,
      "d": 250,
      "v": 90
    },
    {
      "midi": 65,
      "hit": false,
      "t": 488250.0000000006,
      "d": 250,
      "v": 90
    },
    {
      "midi": 57,
      "hit": false,
      "t": 488250.0000000006,
      "d": 250,
      "v": 90
    },
    {
      "midi": 64,
      "hit": false,
      "t": 488500.0000000006,
      "d": 250,
      "v": 90
    },
    {
      "midi": 55,
      "hit": false,
      "t": 488500.0000000006,
      "d": 250,
      "v": 90
    },
    {
      "midi": 62,
      "hit": false,
      "t": 488750.0000000006,
      "d": 250,
      "v": 90
    },
    {
      "midi": 53,
      "hit": false,
      "t": 488750.0000000006,
      "d": 250,
      "v": 90
    },
    {
      "midi": 61,
      "hit": false,
      "t": 489000.0000000006,
      "d": 500,
      "v": 90
    },
    {
      "midi": 52,
      "hit": false,
      "t": 489000.0000000006,
      "d": 500,
      "v": 90
    },
    {
      "midi": 64,
      "hit": false,
      "t": 489500.0000000006,
      "d": 500,
      "v": 90
    },
    {
      "midi": 55,
      "hit": false,
      "t": 489500.0000000006,
      "d": 500,
      "v": 90
    },
    {
      "midi": 65,
      "hit": false,
      "t": 490000.0000000006,
      "d": 250,
      "v": 90
    },
    {
      "midi": 57,
      "hit": false,
      "t": 490000.0000000006,
      "d": 250,
      "v": 90
    },
    {
      "midi": 67,
      "hit": false,
      "t": 490250.0000000006,
      "d": 250,
      "v": 90
    },
    {
      "midi": 59,
      "hit": false,
      "t": 490250.0000000006,
      "d": 250,
      "v": 90
    },
    {
      "midi": 69,
      "hit": false,
      "t": 490500.0000000006,
      "d": 250,
      "v": 90
    },
    {
      "midi": 61,
      "hit": false,
      "t": 490500.0000000006,
      "d": 250,
      "v": 90
    },
    {
      "midi": 71,
      "hit": false,
      "t": 490750.0000000006,
      "d": 250,
      "v": 90
    },
    {
      "midi": 62,
      "hit": false,
      "t": 490750.0000000006,
      "d": 250,
      "v": 90
    },
    {
      "midi": 73,
      "hit": false,
      "t": 491000.0000000006,
      "d": 250,
      "v": 90
    },
    {
      "midi": 64,
      "hit": false,
      "t": 491000.0000000006,
      "d": 250,
      "v": 90
    },
    {
      "midi": 74,
      "hit": false,
      "t": 491250.0000000006,
      "d": 250,
      "v": 90
    },
    {
      "midi": 65,
      "hit": false,
      "t": 491250.0000000006,
      "d": 250,
      "v": 90
    },
    {
      "midi": 76,
      "hit": false,
      "t": 491500.0000000006,
      "d": 250,
      "v": 90
    },
    {
      "midi": 67,
      "hit": false,
      "t": 491500.0000000006,
      "d": 250,
      "v": 90
    },
    {
      "midi": 77,
      "hit": false,
      "t": 491750.0000000006,
      "d": 250,
      "v": 90
    },
    {
      "midi": 69,
      "hit": false,
      "t": 491750.0000000006,
      "d": 250,
      "v": 90
    },
    {
      "midi": 79,
      "hit": false,
      "t": 492000.0000000006,
      "d": 500,
      "v": 90
    },
    {
      "midi": 70,
      "hit": false,
      "t": 492000.0000000006,
      "d": 500,
      "v": 90
    },
    {
      "midi": 77,
      "hit": false,
      "t": 492500.0000000006,
      "d": 250,
      "v": 90
    },
    {
      "midi": 69,
      "hit": false,
      "t": 492500.0000000006,
      "d": 250,
      "v": 90
    },
    {
      "midi": 76,
      "hit": false,
      "t": 492750.0000000006,
      "d": 250,
      "v": 90
    },
    {
      "midi": 67,
      "hit": false,
      "t": 492750.0000000006,
      "d": 250,
      "v": 90
    },
    {
      "midi": 74,
      "hit": false,
      "t": 493000.0000000006,
      "d": 500,
      "v": 90
    },
    {
      "midi": 65,
      "hit": false,
      "t": 493000.0000000006,
      "d": 250,
      "v": 90
    },
    {
      "midi": 69,
      "hit": false,
      "t": 493250.0000000006,
      "d": 250,
      "v": 90
    },
    {
      "midi": 73,
      "hit": false,
      "t": 493500.0000000006,
      "d": 500,
      "v": 90
    },
    {
      "midi": 64,
      "hit": false,
      "t": 493500.0000000006,
      "d": 250,
      "v": 90
    },
    {
      "midi": 69,
      "hit": false,
      "t": 493750.0000000006,
      "d": 250,
      "v": 90
    },
    {
      "midi": 74,
      "hit": false,
      "t": 494000.0000000006,
      "d": 500,
      "v": 90
    },
    {
      "midi": 62,
      "hit": false,
      "t": 494000.0000000006,
      "d": 250,
      "v": 90
    },
    {
      "midi": 69,
      "hit": false,
      "t": 494250.0000000006,
      "d": 250,
      "v": 90
    },
    {
      "midi": 76,
      "hit": false,
      "t": 494500.0000000006,
      "d": 500,
      "v": 90
    },
    {
      "midi": 61,
      "hit": false,
      "t": 494500.0000000006,
      "d": 250,
      "v": 90
    },
    {
      "midi": 69,
      "hit": false,
      "t": 494750.0000000006,
      "d": 250,
      "v": 90
    },
    {
      "midi": 77,
      "hit": false,
      "t": 495000.0000000006,
      "d": 500,
      "v": 90
    },
    {
      "midi": 62,
      "hit": false,
      "t": 495000.0000000006,
      "d": 250,
      "v": 90
    },
    {
      "midi": 69,
      "hit": false,
      "t": 495250.0000000006,
      "d": 250,
      "v": 90
    },
    {
      "midi": 79,
      "hit": false,
      "t": 495500.0000000006,
      "d": 500,
      "v": 90
    },
    {
      "midi": 64,
      "hit": false,
      "t": 495500.0000000006,
      "d": 250,
      "v": 90
    },
    {
      "midi": 69,
      "hit": false,
      "t": 495750.0000000006,
      "d": 250,
      "v": 90
    },
    {
      "midi": 81,
      "hit": false,
      "t": 496000.0000000006,
      "d": 500,
      "v": 90
    },
    {
      "midi": 65,
      "hit": false,
      "t": 496000.0000000006,
      "d": 250,
      "v": 90
    },
    {
      "midi": 69,
      "hit": false,
      "t": 496250.0000000006,
      "d": 250,
      "v": 90
    },
    {
      "midi": 73,
      "hit": false,
      "t": 496500.0000000006,
      "d": 500,
      "v": 90
    },
    {
      "midi": 57,
      "hit": false,
      "t": 496500.0000000006,
      "d": 250,
      "v": 90
    },
    {
      "midi": 69,
      "hit": false,
      "t": 496750.0000000006,
      "d": 250,
      "v": 90
    },
    {
      "midi": 74,
      "hit": false,
      "t": 497000.0000000006,
      "d": 500,
      "v": 90
    },
    {
      "midi": 59,
      "hit": false,
      "t": 497000.0000000006,
      "d": 250,
      "v": 90
    },
    {
      "midi": 69,
      "hit": false,
      "t": 497250.0000000006,
      "d": 250,
      "v": 90
    },
    {
      "midi": 76,
      "hit": false,
      "t": 497500.0000000006,
      "d": 500,
      "v": 90
    },
    {
      "midi": 61,
      "hit": false,
      "t": 497500.0000000006,
      "d": 250,
      "v": 90
    },
    {
      "midi": 69,
      "hit": false,
      "t": 497750.0000000006,
      "d": 250,
      "v": 90
    },
    {
      "midi": 77,
      "hit": false,
      "t": 498000.0000000006,
      "d": 500,
      "v": 90
    },
    {
      "midi": 62,
      "hit": false,
      "t": 498000.0000000006,
      "d": 250,
      "v": 90
    },
    {
      "midi": 69,
      "hit": false,
      "t": 498250.0000000006,
      "d": 250,
      "v": 90
    },
    {
      "midi": 76,
      "hit": false,
      "t": 498500.0000000006,
      "d": 500,
      "v": 90
    },
    {
      "midi": 61,
      "hit": false,
      "t": 498500.0000000006,
      "d": 250,
      "v": 90
    },
    {
      "midi": 69,
      "hit": false,
      "t": 498750.0000000006,
      "d": 250,
      "v": 90
    },
    {
      "midi": 77,
      "hit": false,
      "t": 499000.0000000006,
      "d": 500,
      "v": 90
    },
    {
      "midi": 62,
      "hit": false,
      "t": 499000.0000000006,
      "d": 250,
      "v": 90
    },
    {
      "midi": 69,
      "hit": false,
      "t": 499250.0000000006,
      "d": 250,
      "v": 90
    },
    {
      "midi": 74,
      "hit": false,
      "t": 499500.0000000006,
      "d": 500,
      "v": 90
    },
    {
      "midi": 59,
      "hit": false,
      "t": 499500.0000000006,
      "d": 250,
      "v": 90
    },
    {
      "midi": 69,
      "hit": false,
      "t": 499750.0000000006,
      "d": 250,
      "v": 90
    },
    {
      "midi": 76,
      "hit": false,
      "t": 500000.0000000006,
      "d": 500,
      "v": 90
    },
    {
      "midi": 61,
      "hit": false,
      "t": 500000.0000000006,
      "d": 500,
      "v": 90
    },
    {
      "midi": 69,
      "hit": false,
      "t": 500500.0000000006,
      "d": 500,
      "v": 90
    },
    {
      "midi": 74,
      "hit": false,
      "t": 500500.0000000006,
      "d": 500,
      "v": 90
    },
    {
      "midi": 62,
      "hit": false,
      "t": 500500.0000000006,
      "d": 500,
      "v": 90
    },
    {
      "midi": 70,
      "hit": false,
      "t": 501000.0000000006,
      "d": 500,
      "v": 90
    },
    {
      "midi": 74,
      "hit": false,
      "t": 501000.0000000006,
      "d": 500,
      "v": 90
    },
    {
      "midi": 67,
      "hit": false,
      "t": 501000.0000000006,
      "d": 500,
      "v": 90
    },
    {
      "midi": 69,
      "hit": false,
      "t": 501500.0000000006,
      "d": 500,
      "v": 90
    },
    {
      "midi": 73,
      "hit": false,
      "t": 501500.0000000006,
      "d": 500,
      "v": 90
    },
    {
      "midi": 64,
      "hit": false,
      "t": 501500.0000000006,
      "d": 500,
      "v": 90
    },
    {
      "midi": 69,
      "hit": false,
      "t": 502000.0000000006,
      "d": 500,
      "v": 90
    },
    {
      "midi": 74,
      "hit": false,
      "t": 502000.0000000006,
      "d": 500,
      "v": 90
    },
    {
      "midi": 65,
      "hit": false,
      "t": 502000.0000000006,
      "d": 500,
      "v": 90
    },
    {
      "midi": 74,
      "hit": false,
      "t": 502500.0000000006,
      "d": 500,
      "v": 90
    },
    {
      "midi": 77,
      "hit": false,
      "t": 502500.0000000006,
      "d": 500,
      "v": 90
    },
    {
      "midi": 69,
      "hit": false,
      "t": 502500.0000000006,
      "d": 500,
      "v": 90
    },
    {
      "midi": 76,
      "hit": false,
      "t": 503000.0000000006,
      "d": 500,
      "v": 90
    },
    {
      "midi": 74,
      "hit": false,
      "t": 503000.0000000006,
      "d": 1000,
      "v": 90
    },
    {
      "midi": 70,
      "hit": false,
      "t": 503000.0000000006,
      "d": 500,
      "v": 90
    },
    {
      "midi": 72,
      "hit": false,
      "t": 503500.0000000006,
      "d": 500,
      "v": 90
    },
    {
      "midi": 69,
      "hit": false,
      "t": 503500.0000000006,
      "d": 500,
      "v": 90
    },
    {
      "midi": 65,
      "hit": false,
      "t": 504000.0000000006,
      "d": 2000,
      "v": 90
    },
    {
      "midi": 70,
      "hit": false,
      "t": 504000.0000000006,
      "d": 2000,
      "v": 90
    },
    {
      "midi": 74,
      "hit": false,
      "t": 504000.0000000006,
      "d": 2000,
      "v": 90
    },
    {
      "midi": 53,
      "hit": false,
      "t": 504000.0000000006,
      "d": 2000,
      "v": 90
    },
    {
      "midi": 58,
      "hit": false,
      "t": 504000.0000000006,
      "d": 2000,
      "v": 90
    },
    {
      "midi": 62,
      "hit": false,
      "t": 504000.0000000006,
      "d": 2000,
      "v": 90
    },
    {
      "midi": 77,
      "hit": false,
      "t": 506000.0000000006,
      "d": 250,
      "v": 90
    },
    {
      "midi": 79,
      "hit": false,
      "t": 506250.0000000006,
      "d": 250,
      "v": 90
    },
    {
      "midi": 81,
      "hit": false,
      "t": 506250.0000000006,
      "d": 250,
      "v": 90
    },
    {
      "midi": 69,
      "hit": false,
      "t": 506500.0000000006,
      "d": 250,
      "v": 90
    },
    {
      "midi": 82,
      "hit": false,
      "t": 506500.0000000006,
      "d": 250,
      "v": 90
    },
    {
      "midi": 70,
      "hit": false,
      "t": 506750.0000000006,
      "d": 250,
      "v": 90
    },
    {
      "midi": 72,
      "hit": false,
      "t": 506750.0000000006,
      "d": 250,
      "v": 90
    },
    {
      "midi": 72,
      "hit": false,
      "t": 507000.0000000006,
      "d": 250,
      "v": 90
    },
    {
      "midi": 74,
      "hit": false,
      "t": 507000.0000000006,
      "d": 250,
      "v": 90
    },
    {
      "midi": 74,
      "hit": false,
      "t": 507250.0000000006,
      "d": 250,
      "v": 90
    },
    {
      "midi": 75,
      "hit": false,
      "t": 507250.0000000006,
      "d": 250,
      "v": 90
    },
    {
      "midi": 65,
      "hit": false,
      "t": 507500.0000000006,
      "d": 250,
      "v": 90
    },
    {
      "midi": 77,
      "hit": false,
      "t": 507500.0000000006,
      "d": 250,
      "v": 90
    },
    {
      "midi": 67,
      "hit": false,
      "t": 507750.0000000006,
      "d": 250,
      "v": 90
    },
    {
      "midi": 69,
      "hit": false,
      "t": 507750.0000000006,
      "d": 250,
      "v": 90
    },
    {
      "midi": 69,
      "hit": false,
      "t": 508000.0000000006,
      "d": 250,
      "v": 90
    },
    {
      "midi": 70,
      "hit": false,
      "t": 508000.0000000006,
      "d": 250,
      "v": 90
    },
    {
      "midi": 70,
      "hit": false,
      "t": 508250.0000000006,
      "d": 250,
      "v": 90
    },
    {
      "midi": 72,
      "hit": false,
      "t": 508250.0000000006,
      "d": 250,
      "v": 90
    },
    {
      "midi": 69,
      "hit": false,
      "t": 508500.0000000006,
      "d": 250,
      "v": 90
    },
    {
      "midi": 74,
      "hit": false,
      "t": 508500.0000000006,
      "d": 250,
      "v": 90
    },
    {
      "midi": 65,
      "hit": false,
      "t": 508750.0000000006,
      "d": 250,
      "v": 90
    },
    {
      "midi": 67,
      "hit": false,
      "t": 508750.0000000006,
      "d": 250,
      "v": 90
    },
    {
      "midi": 63,
      "hit": false,
      "t": 509000.0000000006,
      "d": 250,
      "v": 90
    },
    {
      "midi": 67,
      "hit": false,
      "t": 509000.0000000006,
      "d": 250,
      "v": 90
    },
    {
      "midi": 69,
      "hit": false,
      "t": 509250.0000000006,
      "d": 250,
      "v": 90
    },
    {
      "midi": 70,
      "hit": false,
      "t": 509250.0000000006,
      "d": 250,
      "v": 90
    },
    {
      "midi": 67,
      "hit": false,
      "t": 509500.0000000006,
      "d": 250,
      "v": 90
    },
    {
      "midi": 72,
      "hit": false,
      "t": 509500.0000000006,
      "d": 250,
      "v": 90
    },
    {
      "midi": 63,
      "hit": false,
      "t": 509750.0000000006,
      "d": 250,
      "v": 90
    },
    {
      "midi": 65,
      "hit": false,
      "t": 509750.0000000006,
      "d": 250,
      "v": 90
    },
    {
      "midi": 62,
      "hit": false,
      "t": 510000.0000000006,
      "d": 250,
      "v": 90
    },
    {
      "midi": 65,
      "hit": false,
      "t": 510000.0000000006,
      "d": 250,
      "v": 90
    },
    {
      "midi": 67,
      "hit": false,
      "t": 510250.0000000006,
      "d": 250,
      "v": 90
    },
    {
      "midi": 69,
      "hit": false,
      "t": 510250.0000000006,
      "d": 250,
      "v": 90
    },
    {
      "midi": 70,
      "hit": false,
      "t": 510500.0000000006,
      "d": 500,
      "v": 90
    },
    {
      "midi": 57,
      "hit": false,
      "t": 510500.0000000006,
      "d": 250,
      "v": 90
    },
    {
      "midi": 58,
      "hit": false,
      "t": 510750.0000000006,
      "d": 250,
      "v": 90
    },
    {
      "midi": 60,
      "hit": false,
      "t": 510750.0000000006,
      "d": 250,
      "v": 90
    },
    {
      "midi": 60,
      "hit": false,
      "t": 511000.0000000006,
      "d": 250,
      "v": 90
    },
    {
      "midi": 62,
      "hit": false,
      "t": 511000.0000000006,
      "d": 500,
      "v": 90
    },
    {
      "midi": 62,
      "hit": false,
      "t": 511250.0000000006,
      "d": 250,
      "v": 90
    },
    {
      "midi": 63,
      "hit": false,
      "t": 511250.0000000006,
      "d": 250,
      "v": 90
    },
    {
      "midi": 65,
      "hit": false,
      "t": 511500.0000000006,
      "d": 500,
      "v": 90
    },
    {
      "midi": 53,
      "hit": false,
      "t": 511500.0000000006,
      "d": 250,
      "v": 90
    },
    {
      "midi": 55,
      "hit": false,
      "t": 511750.0000000006,
      "d": 250,
      "v": 90
    },
    {
      "midi": 57,
      "hit": false,
      "t": 511750.0000000006,
      "d": 250,
      "v": 90
    },
    {
      "midi": 57,
      "hit": false,
      "t": 512000.0000000006,
      "d": 250,
      "v": 90
    },
    {
      "midi": 58,
      "hit": false,
      "t": 512000.0000000006,
      "d": 250,
      "v": 90
    },
    {
      "midi": 58,
      "hit": false,
      "t": 512250.0000000006,
      "d": 250,
      "v": 90
    },
    {
      "midi": 60,
      "hit": false,
      "t": 512250.0000000006,
      "d": 250,
      "v": 90
    },
    {
      "midi": 60,
      "hit": false,
      "t": 512500.0000000006,
      "d": 250,
      "v": 90
    },
    {
      "midi": 62,
      "hit": false,
      "t": 512500.0000000006,
      "d": 250,
      "v": 90
    },
    {
      "midi": 57,
      "hit": false,
      "t": 512750.0000000006,
      "d": 250,
      "v": 90
    },
    {
      "midi": 58,
      "hit": false,
      "t": 512750.0000000006,
      "d": 250,
      "v": 90
    },
    {
      "midi": 58,
      "hit": false,
      "t": 513000.0000000006,
      "d": 250,
      "v": 90
    },
    {
      "midi": 55,
      "hit": false,
      "t": 513000.0000000006,
      "d": 500,
      "v": 90
    },
    {
      "midi": 60,
      "hit": false,
      "t": 513250.0000000006,
      "d": 250,
      "v": 90
    },
    {
      "midi": 62,
      "hit": false,
      "t": 513250.0000000006,
      "d": 250,
      "v": 90
    },
    {
      "midi": 63,
      "hit": false,
      "t": 513500.0000000006,
      "d": 500,
      "v": 90
    },
    {
      "midi": 62,
      "hit": false,
      "t": 513500.0000000006,
      "d": 250,
      "v": 90
    },
    {
      "midi": 58,
      "hit": false,
      "t": 513750.0000000006,
      "d": 250,
      "v": 90
    },
    {
      "midi": 60,
      "hit": false,
      "t": 513750.0000000006,
      "d": 250,
      "v": 90
    },
    {
      "midi": 60,
      "hit": false,
      "t": 514000.0000000006,
      "d": 250,
      "v": 90
    },
    {
      "midi": 57,
      "hit": false,
      "t": 514000.0000000006,
      "d": 1000,
      "v": 90
    },
    {
      "midi": 62,
      "hit": false,
      "t": 514250.0000000006,
      "d": 250,
      "v": 90
    },
    {
      "midi": 64,
      "hit": false,
      "t": 514250.0000000006,
      "d": 250,
      "v": 90
    },
    {
      "midi": 63,
      "hit": false,
      "t": 514500.0000000006,
      "d": 250,
      "v": 90
    },
    {
      "midi": 66,
      "hit": false,
      "t": 514500.0000000006,
      "d": 250,
      "v": 90
    },
    {
      "midi": 60,
      "hit": false,
      "t": 514750.0000000006,
      "d": 250,
      "v": 90
    },
    {
      "midi": 62,
      "hit": false,
      "t": 514750.0000000006,
      "d": 250,
      "v": 90
    },
    {
      "midi": 58,
      "hit": false,
      "t": 515000.0000000006,
      "d": 250,
      "v": 90
    },
    {
      "midi": 66,
      "hit": false,
      "t": 515000.0000000006,
      "d": 250,
      "v": 90
    },
    {
      "midi": 67,
      "hit": false,
      "t": 515250.0000000006,
      "d": 250,
      "v": 90
    },
    {
      "midi": 69,
      "hit": false,
      "t": 515250.0000000006,
      "d": 250,
      "v": 90
    },
    {
      "midi": 72,
      "hit": false,
      "t": 515500.0000000006,
      "d": 250,
      "v": 90
    },
    {
      "midi": 70,
      "hit": false,
      "t": 515500.0000000006,
      "d": 500,
      "v": 90
    },
    {
      "midi": 67,
      "hit": false,
      "t": 515750.0000000006,
      "d": 250,
      "v": 90
    },
    {
      "midi": 74,
      "hit": false,
      "t": 515750.0000000006,
      "d": 250,
      "v": 90
    },
    {
      "midi": 64,
      "hit": false,
      "t": 516000.0000000006,
      "d": 3000,
      "v": 90
    },
    {
      "midi": 67,
      "hit": false,
      "t": 516000.0000000006,
      "d": 3000,
      "v": 90
    },
    {
      "midi": 70,
      "hit": false,
      "t": 516000.0000000006,
      "d": 3000,
      "v": 90
    },
    {
      "midi": 76,
      "hit": false,
      "t": 516000.0000000006,
      "d": 3000,
      "v": 90
    },
    {
      "midi": 61,
      "hit": false,
      "t": 516000.0000000006,
      "d": 3000,
      "v": 90
    },
    {
      "midi": 65,
      "hit": false,
      "t": 519000.0000000006,
      "d": 1000,
      "v": 90
    },
    {
      "midi": 74,
      "hit": false,
      "t": 519000.0000000006,
      "d": 1000,
      "v": 90
    },
    {
      "midi": 69,
      "hit": false,
      "t": 519000.0000000006,
      "d": 3000,
      "v": 90
    },
    {
      "midi": 62,
      "hit": false,
      "t": 519000.0000000006,
      "d": 1000,
      "v": 90
    },
    {
      "midi": 62,
      "hit": false,
      "t": 520000.0000000006,
      "d": 2000,
      "v": 90
    },
    {
      "midi": 65,
      "hit": false,
      "t": 520000.0000000006,
      "d": 2000,
      "v": 90
    },
    {
      "midi": 71,
      "hit": false,
      "t": 520000.0000000006,
      "d": 2000,
      "v": 90
    },
    {
      "midi": 59,
      "hit": false,
      "t": 520000.0000000006,
      "d": 2000,
      "v": 90
    },
    {
      "midi": 64,
      "hit": false,
      "t": 525500.0000000006,
      "d": 500,
      "v": 90
    },
    {
      "midi": 68,
      "hit": false,
      "t": 525500.0000000006,
      "d": 500,
      "v": 90
    },
    {
      "midi": 71,
      "hit": false,
      "t": 525500.0000000006,
      "d": 500,
      "v": 90
    },
    {
      "midi": 74,
      "hit": false,
      "t": 525500.0000000006,
      "d": 500,
      "v": 90
    },
    {
      "midi": 52,
      "hit": false,
      "t": 525500.0000000006,
      "d": 500,
      "v": 90
    },
    {
      "midi": 56,
      "hit": false,
      "t": 525500.0000000006,
      "d": 500,
      "v": 90
    },
    {
      "midi": 59,
      "hit": false,
      "t": 525500.0000000006,
      "d": 500,
      "v": 90
    },
    {
      "midi": 72,
      "hit": false,
      "t": 526000.0000000006,
      "d": 1500,
      "v": 90
    },
    {
      "midi": 64,
      "hit": false,
      "t": 526000.0000000006,
      "d": 4000,
      "v": 90
    },
    {
      "midi": 69,
      "hit": false,
      "t": 526000.0000000006,
      "d": 4000,
      "v": 90
    },
    {
      "midi": 60,
      "hit": false,
      "t": 526000.0000000006,
      "d": 2000,
      "v": 90
    },
    {
      "midi": 52,
      "hit": false,
      "t": 526000.0000000006,
      "d": 4000,
      "v": 90
    },
    {
      "midi": 57,
      "hit": false,
      "t": 526000.0000000006,
      "d": 4000,
      "v": 90
    },
    {
      "midi": 67,
      "hit": false,
      "t": 527500.0000000006,
      "d": 250,
      "v": 90
    },
    {
      "midi": 65,
      "hit": false,
      "t": 527750.0000000006,
      "d": 250,
      "v": 90
    },
    {
      "midi": 72,
      "hit": false,
      "t": 528000.0000000006,
      "d": 2000,
      "v": 90
    },
    {
      "midi": 55,
      "hit": false,
      "t": 528000.0000000006,
      "d": 2000,
      "v": 90
    },
    {
      "midi": 67,
      "hit": false,
      "t": 530000.0000000006,
      "d": 250,
      "v": 90
    },
    {
      "midi": 65,
      "hit": false,
      "t": 530250.0000000006,
      "d": 250,
      "v": 90
    },
    {
      "midi": 67,
      "hit": false,
      "t": 530250.0000000006,
      "d": 250,
      "v": 90
    },
    {
      "midi": 64,
      "hit": false,
      "t": 530500.0000000006,
      "d": 250,
      "v": 90
    },
    {
      "midi": 62,
      "hit": false,
      "t": 530750.0000000006,
      "d": 250,
      "v": 90
    },
    {
      "midi": 64,
      "hit": false,
      "t": 530750.0000000006,
      "d": 250,
      "v": 90
    },
    {
      "midi": 60,
      "hit": false,
      "t": 531000.0000000006,
      "d": 250,
      "v": 90
    },
    {
      "midi": 69,
      "hit": false,
      "t": 531000.0000000006,
      "d": 250,
      "v": 90
    },
    {
      "midi": 67,
      "hit": false,
      "t": 531250.0000000006,
      "d": 250,
      "v": 90
    },
    {
      "midi": 69,
      "hit": false,
      "t": 531250.0000000006,
      "d": 250,
      "v": 90
    },
    {
      "midi": 65,
      "hit": false,
      "t": 531500.0000000006,
      "d": 250,
      "v": 90
    },
    {
      "midi": 64,
      "hit": false,
      "t": 531750.0000000006,
      "d": 250,
      "v": 90
    },
    {
      "midi": 65,
      "hit": false,
      "t": 531750.0000000006,
      "d": 250,
      "v": 90
    },
    {
      "midi": 62,
      "hit": false,
      "t": 532000.0000000006,
      "d": 250,
      "v": 90
    },
    {
      "midi": 71,
      "hit": false,
      "t": 532000.0000000006,
      "d": 250,
      "v": 90
    },
    {
      "midi": 69,
      "hit": false,
      "t": 532250.0000000006,
      "d": 250,
      "v": 90
    },
    {
      "midi": 71,
      "hit": false,
      "t": 532250.0000000006,
      "d": 250,
      "v": 90
    },
    {
      "midi": 67,
      "hit": false,
      "t": 532500.0000000006,
      "d": 250,
      "v": 90
    },
    {
      "midi": 65,
      "hit": false,
      "t": 532750.0000000006,
      "d": 250,
      "v": 90
    },
    {
      "midi": 67,
      "hit": false,
      "t": 532750.0000000006,
      "d": 250,
      "v": 90
    },
    {
      "midi": 64,
      "hit": false,
      "t": 533000.0000000006,
      "d": 250,
      "v": 90
    },
    {
      "midi": 72,
      "hit": false,
      "t": 533000.0000000006,
      "d": 250,
      "v": 90
    },
    {
      "midi": 71,
      "hit": false,
      "t": 533250.0000000006,
      "d": 250,
      "v": 90
    },
    {
      "midi": 72,
      "hit": false,
      "t": 533250.0000000006,
      "d": 250,
      "v": 90
    },
    {
      "midi": 69,
      "hit": false,
      "t": 533500.0000000006,
      "d": 250,
      "v": 90
    },
    {
      "midi": 74,
      "hit": false,
      "t": 533500.0000000006,
      "d": 250,
      "v": 90
    },
    {
      "midi": 72,
      "hit": false,
      "t": 533750.0000000006,
      "d": 250,
      "v": 90
    },
    {
      "midi": 74,
      "hit": false,
      "t": 533750.0000000006,
      "d": 250,
      "v": 90
    },
    {
      "midi": 71,
      "hit": false,
      "t": 534000.0000000006,
      "d": 250,
      "v": 90
    },
    {
      "midi": 76,
      "hit": false,
      "t": 534000.0000000006,
      "d": 250,
      "v": 90
    },
    {
      "midi": 74,
      "hit": false,
      "t": 534250.0000000006,
      "d": 250,
      "v": 90
    },
    {
      "midi": 76,
      "hit": false,
      "t": 534250.0000000006,
      "d": 250,
      "v": 90
    },
    {
      "midi": 72,
      "hit": false,
      "t": 534500.0000000006,
      "d": 250,
      "v": 90
    },
    {
      "midi": 77,
      "hit": false,
      "t": 534500.0000000006,
      "d": 250,
      "v": 90
    },
    {
      "midi": 76,
      "hit": false,
      "t": 534750.0000000006,
      "d": 250,
      "v": 90
    },
    {
      "midi": 77,
      "hit": false,
      "t": 534750.0000000006,
      "d": 250,
      "v": 90
    },
    {
      "midi": 74,
      "hit": false,
      "t": 535000.0000000006,
      "d": 250,
      "v": 90
    },
    {
      "midi": 79,
      "hit": false,
      "t": 535000.0000000006,
      "d": 250,
      "v": 90
    },
    {
      "midi": 77,
      "hit": false,
      "t": 535250.0000000006,
      "d": 250,
      "v": 90
    },
    {
      "midi": 79,
      "hit": false,
      "t": 535250.0000000006,
      "d": 250,
      "v": 90
    },
    {
      "midi": 72,
      "hit": false,
      "t": 535500.0000000006,
      "d": 250,
      "v": 90
    },
    {
      "midi": 76,
      "hit": false,
      "t": 535500.0000000006,
      "d": 250,
      "v": 90
    },
    {
      "midi": 71,
      "hit": false,
      "t": 535750.0000000006,
      "d": 250,
      "v": 90
    },
    {
      "midi": 72,
      "hit": false,
      "t": 535750.0000000006,
      "d": 250,
      "v": 90
    },
    {
      "midi": 69,
      "hit": false,
      "t": 536000.0000000006,
      "d": 250,
      "v": 90
    },
    {
      "midi": 74,
      "hit": false,
      "t": 536000.0000000006,
      "d": 250,
      "v": 90
    },
    {
      "midi": 72,
      "hit": false,
      "t": 536250.0000000006,
      "d": 250,
      "v": 90
    },
    {
      "midi": 74,
      "hit": false,
      "t": 536250.0000000006,
      "d": 250,
      "v": 90
    },
    {
      "midi": 68,
      "hit": false,
      "t": 536500.0000000006,
      "d": 250,
      "v": 90
    },
    {
      "midi": 71,
      "hit": false,
      "t": 536500.0000000006,
      "d": 250,
      "v": 90
    },
    {
      "midi": 66,
      "hit": false,
      "t": 536750.0000000006,
      "d": 250,
      "v": 90
    },
    {
      "midi": 68,
      "hit": false,
      "t": 536750.0000000006,
      "d": 250,
      "v": 90
    },
    {
      "midi": 64,
      "hit": false,
      "t": 537000.0000000006,
      "d": 250,
      "v": 90
    },
    {
      "midi": 72,
      "hit": false,
      "t": 537000.0000000006,
      "d": 250,
      "v": 90
    },
    {
      "midi": 71,
      "hit": false,
      "t": 537250.0000000006,
      "d": 250,
      "v": 90
    },
    {
      "midi": 72,
      "hit": false,
      "t": 537250.0000000006,
      "d": 250,
      "v": 90
    },
    {
      "midi": 65,
      "hit": false,
      "t": 537500.0000000006,
      "d": 250,
      "v": 90
    },
    {
      "midi": 69,
      "hit": false,
      "t": 537500.0000000006,
      "d": 250,
      "v": 90
    },
    {
      "midi": 64,
      "hit": false,
      "t": 537750.0000000006,
      "d": 250,
      "v": 90
    },
    {
      "midi": 65,
      "hit": false,
      "t": 537750.0000000006,
      "d": 250,
      "v": 90
    },
    {
      "midi": 62,
      "hit": false,
      "t": 538000.0000000006,
      "d": 250,
      "v": 90
    },
    {
      "midi": 71,
      "hit": false,
      "t": 538000.0000000006,
      "d": 250,
      "v": 90
    },
    {
      "midi": 69,
      "hit": false,
      "t": 538250.0000000006,
      "d": 250,
      "v": 90
    },
    {
      "midi": 71,
      "hit": false,
      "t": 538250.0000000006,
      "d": 250,
      "v": 90
    },
    {
      "midi": 60,
      "hit": false,
      "t": 538500.0000000006,
      "d": 250,
      "v": 90
    },
    {
      "midi": 69,
      "hit": false,
      "t": 538500.0000000006,
      "d": 250,
      "v": 90
    },
    {
      "midi": 67,
      "hit": false,
      "t": 538750.0000000006,
      "d": 250,
      "v": 90
    },
    {
      "midi": 69,
      "hit": false,
      "t": 538750.0000000006,
      "d": 250,
      "v": 90
    },
    {
      "midi": 59,
      "hit": false,
      "t": 539000.0000000006,
      "d": 250,
      "v": 90
    },
    {
      "midi": 68,
      "hit": false,
      "t": 539000.0000000006,
      "d": 250,
      "v": 90
    },
    {
      "midi": 66,
      "hit": false,
      "t": 539250.0000000006,
      "d": 250,
      "v": 90
    },
    {
      "midi": 68,
      "hit": false,
      "t": 539250.0000000006,
      "d": 250,
      "v": 90
    },
    {
      "midi": 64,
      "hit": false,
      "t": 539500.0000000006,
      "d": 500,
      "v": 90
    },
    {
      "midi": 60,
      "hit": false,
      "t": 539500.0000000006,
      "d": 250,
      "v": 90
    },
    {
      "midi": 57,
      "hit": false,
      "t": 539750.0000000006,
      "d": 250,
      "v": 90
    },
    {
      "midi": 59,
      "hit": false,
      "t": 539750.0000000006,
      "d": 250,
      "v": 90
    },
    {
      "midi": 62,
      "hit": false,
      "t": 540000.0000000006,
      "d": 250,
      "v": 90
    },
    {
      "midi": 56,
      "hit": false,
      "t": 540000.0000000006,
      "d": 500,
      "v": 90
    },
    {
      "midi": 59,
      "hit": false,
      "t": 540250.0000000006,
      "d": 250,
      "v": 90
    },
    {
      "midi": 60,
      "hit": false,
      "t": 540250.0000000006,
      "d": 250,
      "v": 90
    },
    {
      "midi": 64,
      "hit": false,
      "t": 540500.0000000006,
      "d": 250,
      "v": 90
    },
    {
      "midi": 57,
      "hit": false,
      "t": 540500.0000000006,
      "d": 500,
      "v": 90
    },
    {
      "midi": 60,
      "hit": false,
      "t": 540750.0000000006,
      "d": 250,
      "v": 90
    },
    {
      "midi": 62,
      "hit": false,
      "t": 540750.0000000006,
      "d": 250,
      "v": 90
    },
    {
      "midi": 65,
      "hit": false,
      "t": 541000.0000000006,
      "d": 250,
      "v": 90
    },
    {
      "midi": 59,
      "hit": false,
      "t": 541000.0000000006,
      "d": 500,
      "v": 90
    },
    {
      "midi": 62,
      "hit": false,
      "t": 541250.0000000006,
      "d": 250,
      "v": 90
    },
    {
      "midi": 64,
      "hit": false,
      "t": 541250.0000000006,
      "d": 250,
      "v": 90
    },
    {
      "midi": 67,
      "hit": false,
      "t": 541500.0000000006,
      "d": 250,
      "v": 90
    },
    {
      "midi": 60,
      "hit": false,
      "t": 541500.0000000006,
      "d": 500,
      "v": 90
    },
    {
      "midi": 64,
      "hit": false,
      "t": 541750.0000000006,
      "d": 250,
      "v": 90
    },
    {
      "midi": 65,
      "hit": false,
      "t": 541750.0000000006,
      "d": 250,
      "v": 90
    },
    {
      "midi": 62,
      "hit": false,
      "t": 542000.0000000006,
      "d": 250,
      "v": 90
    },
    {
      "midi": 69,
      "hit": false,
      "t": 542000.0000000006,
      "d": 250,
      "v": 90
    },
    {
      "midi": 65,
      "hit": false,
      "t": 542250.0000000006,
      "d": 250,
      "v": 90
    },
    {
      "midi": 67,
      "hit": false,
      "t": 542250.0000000006,
      "d": 250,
      "v": 90
    },
    {
      "midi": 64,
      "hit": false,
      "t": 542500.0000000006,
      "d": 250,
      "v": 90
    },
    {
      "midi": 67,
      "hit": false,
      "t": 542500.0000000006,
      "d": 250,
      "v": 90
    },
    {
      "midi": 69,
      "hit": false,
      "t": 542750.0000000006,
      "d": 250,
      "v": 90
    },
    {
      "midi": 71,
      "hit": false,
      "t": 542750.0000000006,
      "d": 250,
      "v": 90
    },
    {
      "midi": 72,
      "hit": false,
      "t": 543000.0000000006,
      "d": 500,
      "v": 90
    },
    {
      "midi": 60,
      "hit": false,
      "t": 543500.0000000006,
      "d": 500,
      "v": 90
    },
    {
      "midi": 64,
      "hit": false,
      "t": 543500.0000000006,
      "d": 500,
      "v": 90
    },
    {
      "midi": 67,
      "hit": false,
      "t": 543500.0000000006,
      "d": 500,
      "v": 90
    },
    {
      "midi": 55,
      "hit": false,
      "t": 543500.0000000006,
      "d": 500,
      "v": 90
    },
    {
      "midi": 64,
      "hit": false,
      "t": 544000.0000000006,
      "d": 500,
      "v": 90
    },
    {
      "midi": 69,
      "hit": false,
      "t": 544000.0000000006,
      "d": 500,
      "v": 90
    },
    {
      "midi": 73,
      "hit": false,
      "t": 544000.0000000006,
      "d": 500,
      "v": 90
    },
    {
      "midi": 57,
      "hit": false,
      "t": 544000.0000000006,
      "d": 500,
      "v": 90
    },
    {
      "midi": 61,
      "hit": false,
      "t": 544500.0000000006,
      "d": 250,
      "v": 90
    },
    {
      "midi": 57,
      "hit": false,
      "t": 544500.0000000006,
      "d": 500,
      "v": 90
    },
    {
      "midi": 64,
      "hit": false,
      "t": 544750.0000000006,
      "d": 250,
      "v": 90
    },
    {
      "midi": 69,
      "hit": false,
      "t": 544750.0000000006,
      "d": 250,
      "v": 90
    },
    {
      "midi": 73,
      "hit": false,
      "t": 545000.0000000006,
      "d": 500,
      "v": 90
    },
    {
      "midi": 64,
      "hit": false,
      "t": 545500.0000000006,
      "d": 500,
      "v": 90
    },
    {
      "midi": 69,
      "hit": false,
      "t": 545500.0000000006,
      "d": 500,
      "v": 90
    },
    {
      "midi": 73,
      "hit": false,
      "t": 545500.0000000006,
      "d": 500,
      "v": 90
    },
    {
      "midi": 57,
      "hit": false,
      "t": 545500.0000000006,
      "d": 500,
      "v": 90
    },
    {
      "midi": 65,
      "hit": false,
      "t": 546000.0000000006,
      "d": 500,
      "v": 90
    },
    {
      "midi": 69,
      "hit": false,
      "t": 546000.0000000006,
      "d": 500,
      "v": 90
    },
    {
      "midi": 74,
      "hit": false,
      "t": 546000.0000000006,
      "d": 500,
      "v": 90
    },
    {
      "midi": 57,
      "hit": false,
      "t": 546000.0000000006,
      "d": 500,
      "v": 90
    },
    {
      "midi": 62,
      "hit": false,
      "t": 546500.0000000006,
      "d": 250,
      "v": 90
    },
    {
      "midi": 57,
      "hit": false,
      "t": 546500.0000000006,
      "d": 500,
      "v": 90
    },
    {
      "midi": 65,
      "hit": false,
      "t": 546750.0000000006,
      "d": 250,
      "v": 90
    },
    {
      "midi": 69,
      "hit": false,
      "t": 546750.0000000006,
      "d": 250,
      "v": 90
    },
    {
      "midi": 74,
      "hit": false,
      "t": 547000.0000000006,
      "d": 500,
      "v": 90
    },
    {
      "midi": 65,
      "hit": false,
      "t": 547500.0000000006,
      "d": 500,
      "v": 90
    },
    {
      "midi": 69,
      "hit": false,
      "t": 547500.0000000006,
      "d": 500,
      "v": 90
    },
    {
      "midi": 74,
      "hit": false,
      "t": 547500.0000000006,
      "d": 500,
      "v": 90
    },
    {
      "midi": 57,
      "hit": false,
      "t": 547500.0000000006,
      "d": 500,
      "v": 90
    },
    {
      "midi": 62,
      "hit": false,
      "t": 548000.0000000006,
      "d": 750,
      "v": 90
    },
    {
      "midi": 67,
      "hit": false,
      "t": 548000.0000000006,
      "d": 750,
      "v": 90
    },
    {
      "midi": 71,
      "hit": false,
      "t": 548000.0000000006,
      "d": 750,
      "v": 90
    },
    {
      "midi": 59,
      "hit": false,
      "t": 548000.0000000006,
      "d": 500,
      "v": 90
    },
    {
      "midi": 55,
      "hit": false,
      "t": 548500.0000000006,
      "d": 500,
      "v": 90
    },
    {
      "midi": 59,
      "hit": false,
      "t": 548500.0000000006,
      "d": 500,
      "v": 90
    },
    {
      "midi": 62,
      "hit": false,
      "t": 548750.0000000006,
      "d": 250,
      "v": 90
    },
    {
      "midi": 67,
      "hit": false,
      "t": 548750.0000000006,
      "d": 250,
      "v": 90
    },
    {
      "midi": 71,
      "hit": false,
      "t": 549000.0000000006,
      "d": 500,
      "v": 90
    },
    {
      "midi": 62,
      "hit": false,
      "t": 549500.0000000006,
      "d": 500,
      "v": 90
    },
    {
      "midi": 67,
      "hit": false,
      "t": 549500.0000000006,
      "d": 500,
      "v": 90
    },
    {
      "midi": 71,
      "hit": false,
      "t": 549500.0000000006,
      "d": 500,
      "v": 90
    },
    {
      "midi": 55,
      "hit": false,
      "t": 549500.0000000006,
      "d": 500,
      "v": 90
    },
    {
      "midi": 64,
      "hit": false,
      "t": 550000.0000000006,
      "d": 500,
      "v": 90
    },
    {
      "midi": 67,
      "hit": false,
      "t": 550000.0000000006,
      "d": 500,
      "v": 90
    },
    {
      "midi": 72,
      "hit": false,
      "t": 550000.0000000006,
      "d": 500,
      "v": 90
    },
    {
      "midi": 55,
      "hit": false,
      "t": 550000.0000000006,
      "d": 500,
      "v": 90
    },
    {
      "midi": 60,
      "hit": false,
      "t": 550500.0000000006,
      "d": 250,
      "v": 90
    },
    {
      "midi": 55,
      "hit": false,
      "t": 550500.0000000006,
      "d": 500,
      "v": 90
    },
    {
      "midi": 64,
      "hit": false,
      "t": 550750.0000000006,
      "d": 250,
      "v": 90
    },
    {
      "midi": 67,
      "hit": false,
      "t": 550750.0000000006,
      "d": 250,
      "v": 90
    },
    {
      "midi": 72,
      "hit": false,
      "t": 551000.0000000006,
      "d": 500,
      "v": 90
    },
    {
      "midi": 64,
      "hit": false,
      "t": 551500.0000000006,
      "d": 500,
      "v": 90
    },
    {
      "midi": 67,
      "hit": false,
      "t": 551500.0000000006,
      "d": 500,
      "v": 90
    },
    {
      "midi": 72,
      "hit": false,
      "t": 551500.0000000006,
      "d": 500,
      "v": 90
    },
    {
      "midi": 55,
      "hit": false,
      "t": 551500.0000000006,
      "d": 500,
      "v": 90
    },
    {
      "midi": 60,
      "hit": false,
      "t": 552000.0000000006,
      "d": 750,
      "v": 90
    },
    {
      "midi": 65,
      "hit": false,
      "t": 552000.0000000006,
      "d": 750,
      "v": 90
    },
    {
      "midi": 69,
      "hit": false,
      "t": 552000.0000000006,
      "d": 750,
      "v": 90
    },
    {
      "midi": 57,
      "hit": false,
      "t": 552000.0000000006,
      "d": 500,
      "v": 90
    },
    {
      "midi": 53,
      "hit": false,
      "t": 552500.0000000006,
      "d": 500,
      "v": 90
    },
    {
      "midi": 57,
      "hit": false,
      "t": 552500.0000000006,
      "d": 500,
      "v": 90
    },
    {
      "midi": 60,
      "hit": false,
      "t": 552750.0000000006,
      "d": 250,
      "v": 90
    },
    {
      "midi": 65,
      "hit": false,
      "t": 552750.0000000006,
      "d": 250,
      "v": 90
    },
    {
      "midi": 69,
      "hit": false,
      "t": 553000.0000000006,
      "d": 500,
      "v": 90
    },
    {
      "midi": 60,
      "hit": false,
      "t": 553500.0000000006,
      "d": 500,
      "v": 90
    },
    {
      "midi": 65,
      "hit": false,
      "t": 553500.0000000006,
      "d": 500,
      "v": 90
    },
    {
      "midi": 69,
      "hit": false,
      "t": 553500.0000000006,
      "d": 500,
      "v": 90
    },
    {
      "midi": 53,
      "hit": false,
      "t": 553500.0000000006,
      "d": 500,
      "v": 90
    },
    {
      "midi": 62,
      "hit": false,
      "t": 554000.0000000006,
      "d": 750,
      "v": 90
    },
    {
      "midi": 65,
      "hit": false,
      "t": 554000.0000000006,
      "d": 750,
      "v": 90
    },
    {
      "midi": 70,
      "hit": false,
      "t": 554000.0000000006,
      "d": 750,
      "v": 90
    },
    {
      "midi": 53,
      "hit": false,
      "t": 554000.0000000006,
      "d": 500,
      "v": 90
    },
    {
      "midi": 53,
      "hit": false,
      "t": 554500.0000000006,
      "d": 500,
      "v": 90
    },
    {
      "midi": 58,
      "hit": false,
      "t": 554500.0000000006,
      "d": 500,
      "v": 90
    },
    {
      "midi": 62,
      "hit": false,
      "t": 554750.0000000006,
      "d": 250,
      "v": 90
    },
    {
      "midi": 65,
      "hit": false,
      "t": 554750.0000000006,
      "d": 250,
      "v": 90
    },
    {
      "midi": 70,
      "hit": false,
      "t": 555000.0000000006,
      "d": 500,
      "v": 90
    },
    {
      "midi": 62,
      "hit": false,
      "t": 555500.0000000006,
      "d": 500,
      "v": 90
    },
    {
      "midi": 65,
      "hit": false,
      "t": 555500.0000000006,
      "d": 500,
      "v": 90
    },
    {
      "midi": 70,
      "hit": false,
      "t": 555500.0000000006,
      "d": 500,
      "v": 90
    },
    {
      "midi": 53,
      "hit": false,
      "t": 555500.0000000006,
      "d": 500,
      "v": 90
    },
    {
      "midi": 64,
      "hit": false,
      "t": 556000.0000000006,
      "d": 750,
      "v": 90
    },
    {
      "midi": 67,
      "hit": false,
      "t": 556000.0000000006,
      "d": 750,
      "v": 90
    },
    {
      "midi": 70,
      "hit": false,
      "t": 556000.0000000006,
      "d": 750,
      "v": 90
    },
    {
      "midi": 52,
      "hit": false,
      "t": 556000.0000000006,
      "d": 500,
      "v": 90
    },
    {
      "midi": 52,
      "hit": false,
      "t": 556500.0000000006,
      "d": 250,
      "v": 90
    },
    {
      "midi": 55,
      "hit": false,
      "t": 556500.0000000006,
      "d": 250,
      "v": 90
    },
    {
      "midi": 61,
      "hit": false,
      "t": 556750.0000000006,
      "d": 250,
      "v": 90
    },
    {
      "midi": 58,
      "hit": false,
      "t": 556750.0000000006,
      "d": 250,
      "v": 90
    },
    {
      "midi": 70,
      "hit": false,
      "t": 557000.0000000006,
      "d": 500,
      "v": 90
    },
    {
      "midi": 61,
      "hit": false,
      "t": 557500.0000000006,
      "d": 500,
      "v": 90
    },
    {
      "midi": 64,
      "hit": false,
      "t": 557500.0000000006,
      "d": 500,
      "v": 90
    },
    {
      "midi": 67,
      "hit": false,
      "t": 557500.0000000006,
      "d": 500,
      "v": 90
    },
    {
      "midi": 70,
      "hit": false,
      "t": 557500.0000000006,
      "d": 500,
      "v": 90
    },
    {
      "midi": 52,
      "hit": false,
      "t": 557500.0000000006,
      "d": 500,
      "v": 90
    },
    {
      "midi": 62,
      "hit": false,
      "t": 558000.0000000006,
      "d": 750,
      "v": 90
    },
    {
      "midi": 66,
      "hit": false,
      "t": 558000.0000000006,
      "d": 750,
      "v": 90
    },
    {
      "midi": 69,
      "hit": false,
      "t": 558000.0000000006,
      "d": 750,
      "v": 90
    },
    {
      "midi": 54,
      "hit": false,
      "t": 558000.0000000006,
      "d": 500,
      "v": 90
    },
    {
      "midi": 50,
      "hit": false,
      "t": 558500.0000000006,
      "d": 500,
      "v": 90
    },
    {
      "midi": 57,
      "hit": false,
      "t": 558500.0000000006,
      "d": 500,
      "v": 90
    },
    {
      "midi": 62,
      "hit": false,
      "t": 558750.0000000006,
      "d": 250,
      "v": 90
    },
    {
      "midi": 66,
      "hit": false,
      "t": 558750.0000000006,
      "d": 250,
      "v": 90
    },
    {
      "midi": 69,
      "hit": false,
      "t": 559000.0000000006,
      "d": 500,
      "v": 90
    },
    {
      "midi": 62,
      "hit": false,
      "t": 559500.0000000006,
      "d": 500,
      "v": 90
    },
    {
      "midi": 69,
      "hit": false,
      "t": 559500.0000000006,
      "d": 500,
      "v": 90
    },
    {
      "midi": 66,
      "hit": false,
      "t": 559500.0000000006,
      "d": 1500,
      "v": 90
    },
    {
      "midi": 54,
      "hit": false,
      "t": 559500.0000000006,
      "d": 500,
      "v": 90
    },
    {
      "midi": 62,
      "hit": false,
      "t": 560000.0000000006,
      "d": 1000,
      "v": 90
    },
    {
      "midi": 58,
      "hit": false,
      "t": 560000.0000000006,
      "d": 2000,
      "v": 90
    },
    {
      "midi": 55,
      "hit": false,
      "t": 560000.0000000006,
      "d": 2000,
      "v": 90
    },
    {
      "midi": 67,
      "hit": false,
      "t": 561000.0000000006,
      "d": 1000,
      "v": 90
    },
    {
      "midi": 61,
      "hit": false,
      "t": 562000.0000000006,
      "d": 1000,
      "v": 90
    },
    {
      "midi": 64,
      "hit": false,
      "t": 562000.0000000006,
      "d": 1000,
      "v": 90
    },
    {
      "midi": 58,
      "hit": false,
      "t": 562000.0000000006,
      "d": 1000,
      "v": 90
    },
    {
      "midi": 65,
      "hit": false,
      "t": 563000.0000000006,
      "d": 1000,
      "v": 90
    },
    {
      "midi": 62,
      "hit": false,
      "t": 563000.0000000006,
      "d": 2000,
      "v": 90
    },
    {
      "midi": 57,
      "hit": false,
      "t": 563000.0000000006,
      "d": 1000,
      "v": 90
    },
    {
      "midi": 64,
      "hit": false,
      "t": 564000.0000000006,
      "d": 1000,
      "v": 90
    },
    {
      "midi": 57,
      "hit": false,
      "t": 564000.0000000006,
      "d": 2000,
      "v": 90
    },
    {
      "midi": 60,
      "hit": false,
      "t": 565000.0000000006,
      "d": 1000,
      "v": 90
    },
    {
      "midi": 62,
      "hit": false,
      "t": 566000.0000000006,
      "d": 1000,
      "v": 90
    },
    {
      "midi": 53,
      "hit": false,
      "t": 566000.0000000006,
      "d": 1000,
      "v": 90
    },
    {
      "midi": 58,
      "hit": false,
      "t": 567000.0000000006,
      "d": 1000,
      "v": 90
    },
    {
      "midi": 55,
      "hit": false,
      "t": 567000.0000000006,
      "d": 1000,
      "v": 90
    },
    {
      "midi": 57,
      "hit": false,
      "t": 568000.0000000006,
      "d": 4000,
      "v": 90
    },
    {
      "midi": 53,
      "hit": false,
      "t": 568000.0000000006,
      "d": 4000,
      "v": 90
    }
  ]
}