{
  "jsonPath": "Rock/J-Poprock/Base Ball Bear/doppelganger-graduation.json",
  "path": "Rock\\J-Poprock\\Base Ball Bear\\Doppelganger Graduation.mid",
  "name": "Doppelganger Graduation",
  "difficulty": "Advanced",
  "bpm": 69.99998833333528,
  "notes": [
    {
      "midi": 55,
      "hit": false,
      "t": 19180,
      "d": 1160,
      "v": 92
    },
    {
      "midi": 59,
      "hit": false,
      "t": 19180,
      "d": 2360,
      "v": 96
    },
    {
      "midi": 62,
      "hit": false,
      "t": 19180,
      "d": 2360,
      "v": 101
    },
    {
      "midi": 55,
      "hit": false,
      "t": 20380,
      "d": 2380,
      "v": 85
    },
    {
      "midi": 59,
      "hit": false,
      "t": 21580,
      "d": 2380,
      "v": 99
    },
    {
      "midi": 62,
      "hit": false,
      "t": 21580,
      "d": 2380,
      "v": 101
    },
    {
      "midi": 67,
      "hit": false,
      "t": 21580,
      "d": 2380,
      "v": 92
    },
    {
      "midi": 55,
      "hit": false,
      "t": 22780,
      "d": 2380,
      "v": 87
    },
    {
      "midi": 59,
      "hit": false,
      "t": 23980,
      "d": 2380,
      "v": 100
    },
    {
      "midi": 62,
      "hit": false,
      "t": 23980,
      "d": 2380,
      "v": 103
    },
    {
      "midi": 67,
      "hit": false,
      "t": 23980,
      "d": 4780,
      "v": 96
    },
    {
      "midi": 55,
      "hit": false,
      "t": 25180,
      "d": 1180,
      "v": 83
    },
    {
      "midi": 55,
      "hit": false,
      "t": 26380,
      "d": 580,
      "v": 92
    },
    {
      "midi": 59,
      "hit": false,
      "t": 26380,
      "d": 1180,
      "v": 89
    },
    {
      "midi": 62,
      "hit": false,
      "t": 26380,
      "d": 1780,
      "v": 96
    },
    {
      "midi": 55,
      "hit": false,
      "t": 26980,
      "d": 4180,
      "v": 77
    },
    {
      "midi": 59,
      "hit": false,
      "t": 27580,
      "d": 1180,
      "v": 81
    },
    {
      "midi": 62,
      "hit": false,
      "t": 28180,
      "d": 580,
      "v": 87
    },
    {
      "midi": 59,
      "hit": false,
      "t": 28780,
      "d": 1180,
      "v": 91
    },
    {
      "midi": 62,
      "hit": false,
      "t": 28780,
      "d": 2380,
      "v": 101
    },
    {
      "midi": 67,
      "hit": false,
      "t": 28780,
      "d": 2380,
      "v": 95
    },
    {
      "midi": 82,
      "hit": false,
      "t": 29380,
      "d": 20,
      "v": 30
    },
    {
      "midi": 82,
      "hit": false,
      "t": 29980,
      "d": 20,
      "v": 30
    },
    {
      "midi": 59,
      "hit": false,
      "t": 29980,
      "d": 2380,
      "v": 85
    },
    {
      "midi": 82,
      "hit": false,
      "t": 30580,
      "d": 20,
      "v": 30
    },
    {
      "midi": 67,
      "hit": false,
      "t": 31180,
      "d": 2380,
      "v": 102
    },
    {
      "midi": 71,
      "hit": false,
      "t": 31180,
      "d": 2380,
      "v": 89
    },
    {
      "midi": 62,
      "hit": false,
      "t": 31180,
      "d": 3580,
      "v": 97
    },
    {
      "midi": 59,
      "hit": false,
      "t": 32380,
      "d": 1780,
      "v": 82
    },
    {
      "midi": 67,
      "hit": false,
      "t": 33580,
      "d": 1780,
      "v": 103
    },
    {
      "midi": 71,
      "hit": false,
      "t": 33580,
      "d": 2380,
      "v": 92
    },
    {
      "midi": 74,
      "hit": false,
      "t": 33580,
      "d": 3580,
      "v": 97
    },
    {
      "midi": 59,
      "hit": false,
      "t": 34180,
      "d": 4180,
      "v": 79
    },
    {
      "midi": 62,
      "hit": false,
      "t": 34780,
      "d": 1780,
      "v": 82
    },
    {
      "midi": 67,
      "hit": false,
      "t": 35380,
      "d": 1780,
      "v": 84
    },
    {
      "midi": 71,
      "hit": false,
      "t": 35980,
      "d": 1780,
      "v": 89
    },
    {
      "midi": 62,
      "hit": false,
      "t": 36580,
      "d": 1780,
      "v": 84
    },
    {
      "midi": 67,
      "hit": false,
      "t": 37180,
      "d": 1180,
      "v": 89
    },
    {
      "midi": 71,
      "hit": false,
      "t": 37780,
      "d": 580,
      "v": 93
    },
    {
      "midi": 55,
      "hit": false,
      "t": 38380,
      "d": 2360,
      "v": 101
    },
    {
      "midi": 59,
      "hit": false,
      "t": 38380,
      "d": 2360,
      "v": 97
    },
    {
      "midi": 50,
      "hit": false,
      "t": 38380,
      "d": 5960,
      "v": 91
    },
    {
      "midi": 55,
      "hit": false,
      "t": 40780,
      "d": 4780,
      "v": 96
    },
    {
      "midi": 59,
      "hit": false,
      "t": 40780,
      "d": 5980,
      "v": 91
    },
    {
      "midi": 62,
      "hit": false,
      "t": 40780,
      "d": 7180,
      "v": 102
    },
    {
      "midi": 50,
      "hit": false,
      "t": 44380,
      "d": 3580,
      "v": 88
    },
    {
      "midi": 55,
      "hit": false,
      "t": 45580,
      "d": 2380,
      "v": 93
    },
    {
      "midi": 59,
      "hit": false,
      "t": 46780,
      "d": 1180,
      "v": 100
    },
    {
      "midi": 57,
      "hit": false,
      "t": 47980,
      "d": 7180,
      "v": 95
    },
    {
      "midi": 62,
      "hit": false,
      "t": 47980,
      "d": 9520,
      "v": 90
    },
    {
      "midi": 66,
      "hit": false,
      "t": 47980,
      "d": 9520,
      "v": 103
    },
    {
      "midi": 57,
      "hit": false,
      "t": 55180,
      "d": 2320,
      "v": 96
    },
    {
      "midi": 54,
      "hit": false,
      "t": 55780,
      "d": 20,
      "v": 42
    },
    {
      "midi": 54,
      "hit": false,
      "t": 56380,
      "d": 20,
      "v": 25
    },
    {
      "midi": 54,
      "hit": false,
      "t": 56380,
      "d": 1120,
      "v": 88
    },
    {
      "midi": 54,
      "hit": false,
      "t": 56980,
      "d": 20,
      "v": 21
    },
    {
      "midi": 55,
      "hit": false,
      "t": 57580,
      "d": 2380,
      "v": 95
    },
    {
      "midi": 59,
      "hit": false,
      "t": 57580,
      "d": 2380,
      "v": 92
    },
    {
      "midi": 64,
      "hit": false,
      "t": 57580,
      "d": 2380,
      "v": 103
    },
    {
      "midi": 55,
      "hit": false,
      "t": 59980,
      "d": 4780,
      "v": 96
    },
    {
      "midi": 59,
      "hit": false,
      "t": 59980,
      "d": 5980,
      "v": 89
    },
    {
      "midi": 64,
      "hit": false,
      "t": 59980,
      "d": 7180,
      "v": 102
    },
    {
      "midi": 82,
      "hit": false,
      "t": 60580,
      "d": 20,
      "v": 30
    },
    {
      "midi": 82,
      "hit": false,
      "t": 61180,
      "d": 20,
      "v": 30
    },
    {
      "midi": 82,
      "hit": false,
      "t": 61780,
      "d": 20,
      "v": 30
    },
    {
      "midi": 52,
      "hit": false,
      "t": 63580,
      "d": 13160,
      "v": 86
    },
    {
      "midi": 55,
      "hit": false,
      "t": 64780,
      "d": 2380,
      "v": 93
    },
    {
      "midi": 59,
      "hit": false,
      "t": 65980,
      "d": 1160,
      "v": 104
    },
    {
      "midi": 60,
      "hit": false,
      "t": 67180,
      "d": 2380,
      "v": 105
    },
    {
      "midi": 64,
      "hit": false,
      "t": 67180,
      "d": 2380,
      "v": 89
    },
    {
      "midi": 55,
      "hit": false,
      "t": 67180,
      "d": 5980,
      "v": 94
    },
    {
      "midi": 60,
      "hit": false,
      "t": 69580,
      "d": 4780,
      "v": 91
    },
    {
      "midi": 64,
      "hit": false,
      "t": 69580,
      "d": 5980,
      "v": 95
    },
    {
      "midi": 67,
      "hit": false,
      "t": 69580,
      "d": 7180,
      "v": 103
    },
    {
      "midi": 55,
      "hit": false,
      "t": 73180,
      "d": 3580,
      "v": 83
    },
    {
      "midi": 60,
      "hit": false,
      "t": 74380,
      "d": 2360,
      "v": 90
    },
    {
      "midi": 54,
      "hit": false,
      "t": 74980,
      "d": 20,
      "v": 28
    },
    {
      "midi": 54,
      "hit": false,
      "t": 75580,
      "d": 20,
      "v": 18
    },
    {
      "midi": 64,
      "hit": false,
      "t": 75580,
      "d": 1160,
      "v": 97
    },
    {
      "midi": 54,
      "hit": false,
      "t": 76180,
      "d": 20,
      "v": 11
    },
    {
      "midi": 55,
      "hit": false,
      "t": 76780,
      "d": 2380,
      "v": 87
    },
    {
      "midi": 59,
      "hit": false,
      "t": 76780,
      "d": 2380,
      "v": 102
    },
    {
      "midi": 62,
      "hit": false,
      "t": 76780,
      "d": 9500,
      "v": 92
    },
    {
      "midi": 50,
      "hit": false,
      "t": 79180,
      "d": 3580,
      "v": 102
    },
    {
      "midi": 55,
      "hit": false,
      "t": 79180,
      "d": 4780,
      "v": 99
    },
    {
      "midi": 59,
      "hit": false,
      "t": 79180,
      "d": 7100,
      "v": 91
    },
    {
      "midi": 82,
      "hit": false,
      "t": 80380,
      "d": 20,
      "v": 30
    },
    {
      "midi": 82,
      "hit": false,
      "t": 80980,
      "d": 20,
      "v": 30
    },
    {
      "midi": 50,
      "hit": false,
      "t": 82780,
      "d": 3500,
      "v": 97
    },
    {
      "midi": 55,
      "hit": false,
      "t": 83980,
      "d": 2300,
      "v": 94
    },
    {
      "midi": 57,
      "hit": false,
      "t": 86380,
      "d": 2380,
      "v": 88
    },
    {
      "midi": 62,
      "hit": false,
      "t": 86380,
      "d": 2380,
      "v": 95
    },
    {
      "midi": 66,
      "hit": false,
      "t": 86380,
      "d": 2380,
      "v": 103
    },
    {
      "midi": 57,
      "hit": false,
      "t": 88780,
      "d": 3580,
      "v": 87
    },
    {
      "midi": 66,
      "hit": false,
      "t": 88780,
      "d": 5980,
      "v": 101
    },
    {
      "midi": 62,
      "hit": false,
      "t": 88780,
      "d": 7080,
      "v": 95
    },
    {
      "midi": 57,
      "hit": false,
      "t": 92380,
      "d": 3480,
      "v": 100
    },
    {
      "midi": 69,
      "hit": false,
      "t": 93580,
      "d": 2280,
      "v": 105
    },
    {
      "midi": 66,
      "hit": false,
      "t": 94780,
      "d": 1080,
      "v": 95
    },
    {
      "midi": 55,
      "hit": false,
      "t": 95980,
      "d": 2380,
      "v": 89
    },
    {
      "midi": 59,
      "hit": false,
      "t": 95980,
      "d": 2380,
      "v": 98
    },
    {
      "midi": 52,
      "hit": false,
      "t": 95980,
      "d": 5980,
      "v": 97
    },
    {
      "midi": 55,
      "hit": false,
      "t": 98380,
      "d": 4780,
      "v": 86
    },
    {
      "midi": 59,
      "hit": false,
      "t": 98380,
      "d": 5980,
      "v": 97
    },
    {
      "midi": 64,
      "hit": false,
      "t": 98380,
      "d": 7180,
      "v": 90
    },
    {
      "midi": 52,
      "hit": false,
      "t": 101980,
      "d": 3580,
      "v": 83
    },
    {
      "midi": 55,
      "hit": false,
      "t": 103180,
      "d": 2380,
      "v": 77
    },
    {
      "midi": 59,
      "hit": false,
      "t": 104380,
      "d": 1160,
      "v": 88
    },
    {
      "midi": 60,
      "hit": false,
      "t": 105520,
      "d": 20,
      "v": 88
    },
    {
      "midi": 60,
      "hit": false,
      "t": 105580,
      "d": 2380,
      "v": 98
    },
    {
      "midi": 64,
      "hit": false,
      "t": 105580,
      "d": 2380,
      "v": 95
    },
    {
      "midi": 55,
      "hit": false,
      "t": 105580,
      "d": 5380,
      "v": 84
    },
    {
      "midi": 60,
      "hit": false,
      "t": 107980,
      "d": 3580,
      "v": 85
    },
    {
      "midi": 67,
      "hit": false,
      "t": 107980,
      "d": 4180,
      "v": 96
    },
    {
      "midi": 64,
      "hit": false,
      "t": 107980,
      "d": 5380,
      "v": 81
    },
    {
      "midi": 55,
      "hit": false,
      "t": 110980,
      "d": 3580,
      "v": 89
    },
    {
      "midi": 60,
      "hit": false,
      "t": 111580,
      "d": 2380,
      "v": 93
    },
    {
      "midi": 67,
      "hit": false,
      "t": 112180,
      "d": 2980,
      "v": 100
    },
    {
      "midi": 54,
      "hit": false,
      "t": 113380,
      "d": 20,
      "v": 42
    },
    {
      "midi": 64,
      "hit": false,
      "t": 113380,
      "d": 1780,
      "v": 92
    },
    {
      "midi": 54,
      "hit": false,
      "t": 113980,
      "d": 20,
      "v": 25
    },
    {
      "midi": 60,
      "hit": false,
      "t": 113980,
      "d": 1180,
      "v": 88
    },
    {
      "midi": 54,
      "hit": false,
      "t": 114580,
      "d": 20,
      "v": 21
    },
    {
      "midi": 55,
      "hit": false,
      "t": 114580,
      "d": 580,
      "v": 83
    },
    {
      "midi": 58,
      "hit": false,
      "t": 115200,
      "d": 2180,
      "v": 101
    },
    {
      "midi": 62,
      "hit": false,
      "t": 115200,
      "d": 2180,
      "v": 97
    },
    {
      "midi": 53,
      "hit": false,
      "t": 115200,
      "d": 5780,
      "v": 91
    },
    {
      "midi": 58,
      "hit": false,
      "t": 117580,
      "d": 4780,
      "v": 96
    },
    {
      "midi": 62,
      "hit": false,
      "t": 117580,
      "d": 5980,
      "v": 91
    },
    {
      "midi": 65,
      "hit": false,
      "t": 117580,
      "d": 7180,
      "v": 102
    },
    {
      "midi": 53,
      "hit": false,
      "t": 121180,
      "d": 11980,
      "v": 88
    },
    {
      "midi": 58,
      "hit": false,
      "t": 122380,
      "d": 2380,
      "v": 93
    },
    {
      "midi": 62,
      "hit": false,
      "t": 123580,
      "d": 1180,
      "v": 100
    },
    {
      "midi": 65,
      "hit": false,
      "t": 124780,
      "d": 9580,
      "v": 103
    },
    {
      "midi": 57,
      "hit": false,
      "t": 124800,
      "d": 7080,
      "v": 95
    },
    {
      "midi": 60,
      "hit": false,
      "t": 124800,
      "d": 9480,
      "v": 90
    },
    {
      "midi": 57,
      "hit": false,
      "t": 131980,
      "d": 2380,
      "v": 96
    },
    {
      "midi": 54,
      "hit": false,
      "t": 132580,
      "d": 20,
      "v": 42
    },
    {
      "midi": 54,
      "hit": false,
      "t": 133180,
      "d": 20,
      "v": 25
    },
    {
      "midi": 53,
      "hit": false,
      "t": 133180,
      "d": 7180,
      "v": 88
    },
    {
      "midi": 54,
      "hit": false,
      "t": 133780,
      "d": 20,
      "v": 21
    },
    {
      "midi": 65,
      "hit": false,
      "t": 134380,
      "d": 2380,
      "v": 103
    },
    {
      "midi": 58,
      "hit": false,
      "t": 134400,
      "d": 2360,
      "v": 95
    },
    {
      "midi": 62,
      "hit": false,
      "t": 134400,
      "d": 2360,
      "v": 92
    },
    {
      "midi": 58,
      "hit": false,
      "t": 136780,
      "d": 4780,
      "v": 96
    },
    {
      "midi": 62,
      "hit": false,
      "t": 136780,
      "d": 5980,
      "v": 89
    },
    {
      "midi": 65,
      "hit": false,
      "t": 136780,
      "d": 7180,
      "v": 102
    },
    {
      "midi": 82,
      "hit": false,
      "t": 137380,
      "d": 20,
      "v": 30
    },
    {
      "midi": 82,
      "hit": false,
      "t": 137980,
      "d": 20,
      "v": 30
    },
    {
      "midi": 82,
      "hit": false,
      "t": 138580,
      "d": 20,
      "v": 30
    },
    {
      "midi": 53,
      "hit": false,
      "t": 140380,
      "d": 3600,
      "v": 86
    },
    {
      "midi": 58,
      "hit": false,
      "t": 141580,
      "d": 2380,
      "v": 93
    },
    {
      "midi": 62,
      "hit": false,
      "t": 142780,
      "d": 1180,
      "v": 104
    },
    {
      "midi": 58,
      "hit": false,
      "t": 143980,
      "d": 2380,
      "v": 105
    },
    {
      "midi": 63,
      "hit": false,
      "t": 143980,
      "d": 2380,
      "v": 89
    },
    {
      "midi": 51,
      "hit": false,
      "t": 143980,
      "d": 4820,
      "v": 86
    },
    {
      "midi": 55,
      "hit": false,
      "t": 143980,
      "d": 4820,
      "v": 94
    },
    {
      "midi": 58,
      "hit": false,
      "t": 146380,
      "d": 2420,
      "v": 91
    },
    {
      "midi": 63,
      "hit": false,
      "t": 146380,
      "d": 2420,
      "v": 95
    },
    {
      "midi": 67,
      "hit": false,
      "t": 146380,
      "d": 2420,
      "v": 103
    },
    {
      "midi": 63,
      "hit": false,
      "t": 150620,
      "d": 520,
      "v": 80
    },
    {
      "midi": 67,
      "hit": false,
      "t": 150620,
      "d": 520,
      "v": 75
    },
    {
      "midi": 70,
      "hit": false,
      "t": 150620,
      "d": 520,
      "v": 68
    },
    {
      "midi": 63,
      "hit": false,
      "t": 151180,
      "d": 1180,
      "v": 104
    },
    {
      "midi": 67,
      "hit": false,
      "t": 151180,
      "d": 1180,
      "v": 95
    },
    {
      "midi": 70,
      "hit": false,
      "t": 151180,
      "d": 1180,
      "v": 89
    },
    {
      "midi": 82,
      "hit": false,
      "t": 151780,
      "d": 20,
      "v": 30
    },
    {
      "midi": 82,
      "hit": false,
      "t": 152380,
      "d": 20,
      "v": 37
    },
    {
      "midi": 70,
      "hit": false,
      "t": 152380,
      "d": 1160,
      "v": 78
    },
    {
      "midi": 75,
      "hit": false,
      "t": 152380,
      "d": 1160,
      "v": 89
    },
    {
      "midi": 67,
      "hit": false,
      "t": 152380,
      "d": 1180,
      "v": 83
    },
    {
      "midi": 82,
      "hit": false,
      "t": 152980,
      "d": 20,
      "v": 30
    },
    {
      "midi": 72,
      "hit": false,
      "t": 153520,
      "d": 20,
      "v": 78
    },
    {
      "midi": 76,
      "hit": false,
      "t": 153520,
      "d": 20,
      "v": 89
    },
    {
      "midi": 82,
      "hit": false,
      "t": 153580,
      "d": 20,
      "v": 36
    },
    {
      "midi": 55,
      "hit": false,
      "t": 153580,
      "d": 1160,
      "v": 95
    },
    {
      "midi": 60,
      "hit": false,
      "t": 153580,
      "d": 2360,
      "v": 91
    },
    {
      "midi": 64,
      "hit": false,
      "t": 153580,
      "d": 2360,
      "v": 102
    },
    {
      "midi": 82,
      "hit": false,
      "t": 154180,
      "d": 20,
      "v": 30
    },
    {
      "midi": 82,
      "hit": false,
      "t": 154780,
      "d": 20,
      "v": 67
    },
    {
      "midi": 55,
      "hit": false,
      "t": 154780,
      "d": 2380,
      "v": 83
    },
    {
      "midi": 82,
      "hit": false,
      "t": 155380,
      "d": 20,
      "v": 30
    },
    {
      "midi": 82,
      "hit": false,
      "t": 155980,
      "d": 20,
      "v": 36
    },
    {
      "midi": 60,
      "hit": false,
      "t": 155980,
      "d": 2380,
      "v": 93
    },
    {
      "midi": 64,
      "hit": false,
      "t": 155980,
      "d": 2380,
      "v": 101
    },
    {
      "midi": 67,
      "hit": false,
      "t": 155980,
      "d": 4780,
      "v": 88
    },
    {
      "midi": 82,
      "hit": false,
      "t": 156580,
      "d": 20,
      "v": 30
    },
    {
      "midi": 82,
      "hit": false,
      "t": 157180,
      "d": 20,
      "v": 67
    },
    {
      "midi": 55,
      "hit": false,
      "t": 157180,
      "d": 1180,
      "v": 85
    },
    {
      "midi": 82,
      "hit": false,
      "t": 157780,
      "d": 20,
      "v": 30
    },
    {
      "midi": 82,
      "hit": false,
      "t": 158380,
      "d": 20,
      "v": 36
    },
    {
      "midi": 55,
      "hit": false,
      "t": 158380,
      "d": 1180,
      "v": 91
    },
    {
      "midi": 60,
      "hit": false,
      "t": 158380,
      "d": 2380,
      "v": 78
    },
    {
      "midi": 64,
      "hit": false,
      "t": 158380,
      "d": 2380,
      "v": 99
    },
    {
      "midi": 82,
      "hit": false,
      "t": 158980,
      "d": 20,
      "v": 30
    },
    {
      "midi": 82,
      "hit": false,
      "t": 159580,
      "d": 20,
      "v": 67
    },
    {
      "midi": 55,
      "hit": false,
      "t": 159580,
      "d": 1180,
      "v": 77
    },
    {
      "midi": 82,
      "hit": false,
      "t": 160180,
      "d": 20,
      "v": 30
    },
    {
      "midi": 54,
      "hit": false,
      "t": 160780,
      "d": 20,
      "v": 108
    },
    {
      "midi": 82,
      "hit": false,
      "t": 160780,
      "d": 20,
      "v": 36
    },
    {
      "midi": 60,
      "hit": false,
      "t": 160780,
      "d": 2260,
      "v": 94
    },
    {
      "midi": 64,
      "hit": false,
      "t": 160780,
      "d": 2260,
      "v": 101
    },
    {
      "midi": 67,
      "hit": false,
      "t": 160780,
      "d": 2380,
      "v": 93
    },
    {
      "midi": 82,
      "hit": false,
      "t": 161380,
      "d": 20,
      "v": 30
    },
    {
      "midi": 82,
      "hit": false,
      "t": 161980,
      "d": 20,
      "v": 67
    },
    {
      "midi": 55,
      "hit": false,
      "t": 161980,
      "d": 1180,
      "v": 83
    },
    {
      "midi": 82,
      "hit": false,
      "t": 162580,
      "d": 20,
      "v": 30
    },
    {
      "midi": 82,
      "hit": false,
      "t": 163180,
      "d": 20,
      "v": 36
    },
    {
      "midi": 67,
      "hit": false,
      "t": 163180,
      "d": 1180,
      "v": 89
    },
    {
      "midi": 59,
      "hit": false,
      "t": 163180,
      "d": 2380,
      "v": 94
    },
    {
      "midi": 62,
      "hit": false,
      "t": 163180,
      "d": 2380,
      "v": 102
    },
    {
      "midi": 82,
      "hit": false,
      "t": 163780,
      "d": 20,
      "v": 30
    },
    {
      "midi": 82,
      "hit": false,
      "t": 164380,
      "d": 20,
      "v": 67
    },
    {
      "midi": 55,
      "hit": false,
      "t": 164380,
      "d": 2380,
      "v": 81
    },
    {
      "midi": 82,
      "hit": false,
      "t": 164980,
      "d": 20,
      "v": 30
    },
    {
      "midi": 82,
      "hit": false,
      "t": 165580,
      "d": 20,
      "v": 36
    },
    {
      "midi": 59,
      "hit": false,
      "t": 165580,
      "d": 2380,
      "v": 88
    },
    {
      "midi": 62,
      "hit": false,
      "t": 165580,
      "d": 2380,
      "v": 99
    },
    {
      "midi": 67,
      "hit": false,
      "t": 165580,
      "d": 4780,
      "v": 94
    },
    {
      "midi": 82,
      "hit": false,
      "t": 166180,
      "d": 20,
      "v": 30
    },
    {
      "midi": 82,
      "hit": false,
      "t": 166780,
      "d": 20,
      "v": 67
    },
    {
      "midi": 55,
      "hit": false,
      "t": 166780,
      "d": 1180,
      "v": 79
    },
    {
      "midi": 82,
      "hit": false,
      "t": 167380,
      "d": 20,
      "v": 30
    },
    {
      "midi": 82,
      "hit": false,
      "t": 167980,
      "d": 20,
      "v": 36
    },
    {
      "midi": 55,
      "hit": false,
      "t": 167980,
      "d": 2380,
      "v": 95
    },
    {
      "midi": 59,
      "hit": false,
      "t": 167980,
      "d": 2380,
      "v": 90
    },
    {
      "midi": 62,
      "hit": false,
      "t": 167980,
      "d": 2380,
      "v": 101
    },
    {
      "midi": 82,
      "hit": false,
      "t": 168580,
      "d": 20,
      "v": 30
    },
    {
      "midi": 82,
      "hit": false,
      "t": 169180,
      "d": 20,
      "v": 67
    },
    {
      "midi": 50,
      "hit": false,
      "t": 169180,
      "d": 1180,
      "v": 89
    },
    {
      "midi": 82,
      "hit": false,
      "t": 169780,
      "d": 20,
      "v": 30
    },
    {
      "midi": 82,
      "hit": false,
      "t": 170380,
      "d": 20,
      "v": 36
    },
    {
      "midi": 59,
      "hit": false,
      "t": 170380,
      "d": 2180,
      "v": 94
    },
    {
      "midi": 62,
      "hit": false,
      "t": 170380,
      "d": 2180,
      "v": 102
    },
    {
      "midi": 67,
      "hit": false,
      "t": 170380,
      "d": 2180,
      "v": 91
    },
    {
      "midi": 82,
      "hit": false,
      "t": 170980,
      "d": 20,
      "v": 30
    },
    {
      "midi": 82,
      "hit": false,
      "t": 171580,
      "d": 20,
      "v": 67
    },
    {
      "midi": 55,
      "hit": false,
      "t": 171580,
      "d": 980,
      "v": 89
    },
    {
      "midi": 82,
      "hit": false,
      "t": 172180,
      "d": 20,
      "v": 30
    },
    {
      "midi": 82,
      "hit": false,
      "t": 172780,
      "d": 20,
      "v": 36
    },
    {
      "midi": 60,
      "hit": false,
      "t": 172780,
      "d": 2380,
      "v": 92
    },
    {
      "midi": 64,
      "hit": false,
      "t": 172780,
      "d": 2380,
      "v": 100
    },
    {
      "midi": 69,
      "hit": false,
      "t": 172780,
      "d": 2380,
      "v": 89
    },
    {
      "midi": 82,
      "hit": false,
      "t": 173380,
      "d": 20,
      "v": 30
    },
    {
      "midi": 82,
      "hit": false,
      "t": 173980,
      "d": 20,
      "v": 67
    },
    {
      "midi": 57,
      "hit": false,
      "t": 173980,
      "d": 3580,
      "v": 88
    },
    {
      "midi": 82,
      "hit": false,
      "t": 174580,
      "d": 20,
      "v": 30
    },
    {
      "midi": 82,
      "hit": false,
      "t": 175180,
      "d": 20,
      "v": 36
    },
    {
      "midi": 60,
      "hit": false,
      "t": 175180,
      "d": 1180,
      "v": 94
    },
    {
      "midi": 64,
      "hit": false,
      "t": 175180,
      "d": 2380,
      "v": 101
    },
    {
      "midi": 69,
      "hit": false,
      "t": 175180,
      "d": 2380,
      "v": 92
    },
    {
      "midi": 82,
      "hit": false,
      "t": 175780,
      "d": 20,
      "v": 30
    },
    {
      "midi": 82,
      "hit": false,
      "t": 176380,
      "d": 20,
      "v": 30
    },
    {
      "midi": 60,
      "hit": false,
      "t": 176380,
      "d": 1180,
      "v": 87
    },
    {
      "midi": 82,
      "hit": false,
      "t": 176980,
      "d": 20,
      "v": 30
    },
    {
      "midi": 82,
      "hit": false,
      "t": 177580,
      "d": 20,
      "v": 36
    },
    {
      "midi": 64,
      "hit": false,
      "t": 177580,
      "d": 2380,
      "v": 95
    },
    {
      "midi": 69,
      "hit": false,
      "t": 177580,
      "d": 2380,
      "v": 100
    },
    {
      "midi": 72,
      "hit": false,
      "t": 177580,
      "d": 2380,
      "v": 98
    },
    {
      "midi": 82,
      "hit": false,
      "t": 178180,
      "d": 20,
      "v": 30
    },
    {
      "midi": 82,
      "hit": false,
      "t": 178780,
      "d": 20,
      "v": 67
    },
    {
      "midi": 60,
      "hit": false,
      "t": 178780,
      "d": 1180,
      "v": 82
    },
    {
      "midi": 82,
      "hit": false,
      "t": 179380,
      "d": 20,
      "v": 30
    },
    {
      "midi": 54,
      "hit": false,
      "t": 179980,
      "d": 20,
      "v": 108
    },
    {
      "midi": 82,
      "hit": false,
      "t": 179980,
      "d": 20,
      "v": 36
    },
    {
      "midi": 64,
      "hit": false,
      "t": 179980,
      "d": 2280,
      "v": 92
    },
    {
      "midi": 60,
      "hit": false,
      "t": 179980,
      "d": 2380,
      "v": 89
    },
    {
      "midi": 69,
      "hit": false,
      "t": 179980,
      "d": 2380,
      "v": 94
    },
    {
      "midi": 82,
      "hit": false,
      "t": 180580,
      "d": 20,
      "v": 30
    },
    {
      "midi": 82,
      "hit": false,
      "t": 181180,
      "d": 20,
      "v": 67
    },
    {
      "midi": 57,
      "hit": false,
      "t": 181180,
      "d": 2380,
      "v": 84
    },
    {
      "midi": 82,
      "hit": false,
      "t": 181780,
      "d": 20,
      "v": 30
    },
    {
      "midi": 82,
      "hit": false,
      "t": 182380,
      "d": 20,
      "v": 36
    },
    {
      "midi": 60,
      "hit": false,
      "t": 182380,
      "d": 2380,
      "v": 96
    },
    {
      "midi": 65,
      "hit": false,
      "t": 182380,
      "d": 2380,
      "v": 100
    },
    {
      "midi": 69,
      "hit": false,
      "t": 182380,
      "d": 2380,
      "v": 87
    },
    {
      "midi": 82,
      "hit": false,
      "t": 182980,
      "d": 20,
      "v": 30
    },
    {
      "midi": 82,
      "hit": false,
      "t": 183580,
      "d": 20,
      "v": 67
    },
    {
      "midi": 57,
      "hit": false,
      "t": 183580,
      "d": 2380,
      "v": 83
    },
    {
      "midi": 82,
      "hit": false,
      "t": 184180,
      "d": 20,
      "v": 30
    },
    {
      "midi": 82,
      "hit": false,
      "t": 184780,
      "d": 20,
      "v": 36
    },
    {
      "midi": 60,
      "hit": false,
      "t": 184780,
      "d": 2380,
      "v": 94
    },
    {
      "midi": 65,
      "hit": false,
      "t": 184780,
      "d": 2380,
      "v": 96
    },
    {
      "midi": 69,
      "hit": false,
      "t": 184780,
      "d": 2380,
      "v": 79
    },
    {
      "midi": 82,
      "hit": false,
      "t": 185380,
      "d": 20,
      "v": 30
    },
    {
      "midi": 82,
      "hit": false,
      "t": 185980,
      "d": 20,
      "v": 67
    },
    {
      "midi": 57,
      "hit": false,
      "t": 185980,
      "d": 3580,
      "v": 86
    },
    {
      "midi": 82,
      "hit": false,
      "t": 186580,
      "d": 20,
      "v": 30
    },
    {
      "midi": 82,
      "hit": false,
      "t": 187180,
      "d": 20,
      "v": 36
    },
    {
      "midi": 60,
      "hit": false,
      "t": 187180,
      "d": 1180,
      "v": 94
    },
    {
      "midi": 65,
      "hit": false,
      "t": 187180,
      "d": 2380,
      "v": 96
    },
    {
      "midi": 69,
      "hit": false,
      "t": 187180,
      "d": 2380,
      "v": 81
    },
    {
      "midi": 82,
      "hit": false,
      "t": 187780,
      "d": 20,
      "v": 30
    },
    {
      "midi": 82,
      "hit": false,
      "t": 188380,
      "d": 20,
      "v": 67
    },
    {
      "midi": 60,
      "hit": false,
      "t": 188380,
      "d": 1180,
      "v": 80
    },
    {
      "midi": 82,
      "hit": false,
      "t": 188980,
      "d": 20,
      "v": 30
    },
    {
      "midi": 82,
      "hit": false,
      "t": 189580,
      "d": 20,
      "v": 36
    },
    {
      "midi": 65,
      "hit": false,
      "t": 189580,
      "d": 2380,
      "v": 95
    },
    {
      "midi": 69,
      "hit": false,
      "t": 189580,
      "d": 2380,
      "v": 84
    },
    {
      "midi": 72,
      "hit": false,
      "t": 189580,
      "d": 7180,
      "v": 99
    },
    {
      "midi": 54,
      "hit": false,
      "t": 190180,
      "d": 20,
      "v": 28
    },
    {
      "midi": 82,
      "hit": false,
      "t": 190180,
      "d": 20,
      "v": 30
    },
    {
      "midi": 54,
      "hit": false,
      "t": 190780,
      "d": 20,
      "v": 18
    },
    {
      "midi": 82,
      "hit": false,
      "t": 190780,
      "d": 20,
      "v": 67
    },
    {
      "midi": 60,
      "hit": false,
      "t": 190780,
      "d": 1180,
      "v": 83
    },
    {
      "midi": 54,
      "hit": false,
      "t": 191380,
      "d": 20,
      "v": 11
    },
    {
      "midi": 82,
      "hit": false,
      "t": 191380,
      "d": 20,
      "v": 30
    },
    {
      "midi": 82,
      "hit": false,
      "t": 191980,
      "d": 20,
      "v": 36
    },
    {
      "midi": 60,
      "hit": false,
      "t": 191980,
      "d": 2380,
      "v": 94
    },
    {
      "midi": 64,
      "hit": false,
      "t": 191980,
      "d": 2380,
      "v": 97
    },
    {
      "midi": 67,
      "hit": false,
      "t": 191980,
      "d": 2380,
      "v": 82
    },
    {
      "midi": 82,
      "hit": false,
      "t": 192580,
      "d": 20,
      "v": 30
    },
    {
      "midi": 82,
      "hit": false,
      "t": 193180,
      "d": 20,
      "v": 67
    },
    {
      "midi": 55,
      "hit": false,
      "t": 193180,
      "d": 2380,
      "v": 84
    },
    {
      "midi": 82,
      "hit": false,
      "t": 193780,
      "d": 20,
      "v": 30
    },
    {
      "midi": 82,
      "hit": false,
      "t": 194380,
      "d": 20,
      "v": 36
    },
    {
      "midi": 67,
      "hit": false,
      "t": 194380,
      "d": 1180,
      "v": 79
    },
    {
      "midi": 60,
      "hit": false,
      "t": 194380,
      "d": 2380,
      "v": 97
    },
    {
      "midi": 64,
      "hit": false,
      "t": 194380,
      "d": 2380,
      "v": 92
    },
    {
      "midi": 82,
      "hit": false,
      "t": 194980,
      "d": 20,
      "v": 30
    },
    {
      "midi": 82,
      "hit": false,
      "t": 195580,
      "d": 20,
      "v": 30
    },
    {
      "midi": 55,
      "hit": false,
      "t": 195580,
      "d": 7180,
      "v": 82
    },
    {
      "midi": 82,
      "hit": false,
      "t": 196180,
      "d": 20,
      "v": 30
    },
    {
      "midi": 82,
      "hit": false,
      "t": 196780,
      "d": 20,
      "v": 36
    },
    {
      "midi": 60,
      "hit": false,
      "t": 196780,
      "d": 1180,
      "v": 87
    },
    {
      "midi": 64,
      "hit": false,
      "t": 196780,
      "d": 2380,
      "v": 87
    },
    {
      "midi": 67,
      "hit": false,
      "t": 196780,
      "d": 2380,
      "v": 73
    },
    {
      "midi": 82,
      "hit": false,
      "t": 197380,
      "d": 20,
      "v": 30
    },
    {
      "midi": 82,
      "hit": false,
      "t": 197980,
      "d": 20,
      "v": 67
    },
    {
      "midi": 60,
      "hit": false,
      "t": 197980,
      "d": 1180,
      "v": 82
    },
    {
      "midi": 82,
      "hit": false,
      "t": 198580,
      "d": 20,
      "v": 30
    },
    {
      "midi": 54,
      "hit": false,
      "t": 199180,
      "d": 20,
      "v": 108
    },
    {
      "midi": 82,
      "hit": false,
      "t": 199180,
      "d": 20,
      "v": 36
    },
    {
      "midi": 64,
      "hit": false,
      "t": 199180,
      "d": 2300,
      "v": 97
    },
    {
      "midi": 72,
      "hit": false,
      "t": 199180,
      "d": 2300,
      "v": 99
    },
    {
      "midi": 67,
      "hit": false,
      "t": 199180,
      "d": 2380,
      "v": 82
    },
    {
      "midi": 82,
      "hit": false,
      "t": 199780,
      "d": 20,
      "v": 30
    },
    {
      "midi": 82,
      "hit": false,
      "t": 200380,
      "d": 20,
      "v": 67
    },
    {
      "midi": 60,
      "hit": false,
      "t": 200380,
      "d": 1100,
      "v": 82
    },
    {
      "midi": 82,
      "hit": false,
      "t": 200980,
      "d": 20,
      "v": 30
    },
    {
      "midi": 82,
      "hit": false,
      "t": 201580,
      "d": 20,
      "v": 36
    },
    {
      "midi": 59,
      "hit": false,
      "t": 201580,
      "d": 2380,
      "v": 91
    },
    {
      "midi": 62,
      "hit": false,
      "t": 201580,
      "d": 2380,
      "v": 95
    },
    {
      "midi": 67,
      "hit": false,
      "t": 201580,
      "d": 2380,
      "v": 78
    },
    {
      "midi": 82,
      "hit": false,
      "t": 202180,
      "d": 20,
      "v": 30
    },
    {
      "midi": 82,
      "hit": false,
      "t": 202780,
      "d": 20,
      "v": 67
    },
    {
      "midi": 55,
      "hit": false,
      "t": 202780,
      "d": 1180,
      "v": 80
    },
    {
      "midi": 82,
      "hit": false,
      "t": 203380,
      "d": 20,
      "v": 30
    },
    {
      "midi": 82,
      "hit": false,
      "t": 203980,
      "d": 20,
      "v": 36
    },
    {
      "midi": 67,
      "hit": false,
      "t": 203980,
      "d": 1180,
      "v": 81
    },
    {
      "midi": 59,
      "hit": false,
      "t": 203980,
      "d": 2380,
      "v": 92
    },
    {
      "midi": 62,
      "hit": false,
      "t": 203980,
      "d": 2380,
      "v": 96
    },
    {
      "midi": 82,
      "hit": false,
      "t": 204580,
      "d": 20,
      "v": 30
    },
    {
      "midi": 82,
      "hit": false,
      "t": 205180,
      "d": 20,
      "v": 67
    },
    {
      "midi": 55,
      "hit": false,
      "t": 205180,
      "d": 1180,
      "v": 82
    },
    {
      "midi": 82,
      "hit": false,
      "t": 205780,
      "d": 20,
      "v": 30
    },
    {
      "midi": 82,
      "hit": false,
      "t": 206380,
      "d": 20,
      "v": 36
    },
    {
      "midi": 55,
      "hit": false,
      "t": 206380,
      "d": 2380,
      "v": 93
    },
    {
      "midi": 59,
      "hit": false,
      "t": 206380,
      "d": 2380,
      "v": 97
    },
    {
      "midi": 62,
      "hit": false,
      "t": 206380,
      "d": 2380,
      "v": 96
    },
    {
      "midi": 82,
      "hit": false,
      "t": 206980,
      "d": 20,
      "v": 30
    },
    {
      "midi": 82,
      "hit": false,
      "t": 207580,
      "d": 20,
      "v": 67
    },
    {
      "midi": 50,
      "hit": false,
      "t": 207580,
      "d": 1180,
      "v": 84
    },
    {
      "midi": 82,
      "hit": false,
      "t": 208180,
      "d": 20,
      "v": 30
    },
    {
      "midi": 82,
      "hit": false,
      "t": 208780,
      "d": 20,
      "v": 36
    },
    {
      "midi": 55,
      "hit": false,
      "t": 208780,
      "d": 2180,
      "v": 97
    },
    {
      "midi": 59,
      "hit": false,
      "t": 208780,
      "d": 2180,
      "v": 99
    },
    {
      "midi": 62,
      "hit": false,
      "t": 208780,
      "d": 2180,
      "v": 99
    },
    {
      "midi": 82,
      "hit": false,
      "t": 209380,
      "d": 20,
      "v": 30
    },
    {
      "midi": 82,
      "hit": false,
      "t": 209980,
      "d": 20,
      "v": 67
    },
    {
      "midi": 50,
      "hit": false,
      "t": 209980,
      "d": 980,
      "v": 84
    },
    {
      "midi": 82,
      "hit": false,
      "t": 210580,
      "d": 20,
      "v": 30
    },
    {
      "midi": 82,
      "hit": false,
      "t": 211180,
      "d": 20,
      "v": 36
    },
    {
      "midi": 60,
      "hit": false,
      "t": 211180,
      "d": 2380,
      "v": 95
    },
    {
      "midi": 64,
      "hit": false,
      "t": 211180,
      "d": 2380,
      "v": 94
    },
    {
      "midi": 69,
      "hit": false,
      "t": 211180,
      "d": 2380,
      "v": 80
    },
    {
      "midi": 82,
      "hit": false,
      "t": 211780,
      "d": 20,
      "v": 30
    },
    {
      "midi": 82,
      "hit": false,
      "t": 212380,
      "d": 20,
      "v": 67
    },
    {
      "midi": 57,
      "hit": false,
      "t": 212380,
      "d": 2380,
      "v": 80
    },
    {
      "midi": 82,
      "hit": false,
      "t": 212980,
      "d": 20,
      "v": 30
    },
    {
      "midi": 82,
      "hit": false,
      "t": 213580,
      "d": 20,
      "v": 36
    },
    {
      "midi": 60,
      "hit": false,
      "t": 213580,
      "d": 2380,
      "v": 96
    },
    {
      "midi": 64,
      "hit": false,
      "t": 213580,
      "d": 2380,
      "v": 99
    },
    {
      "midi": 69,
      "hit": false,
      "t": 213580,
      "d": 4780,
      "v": 80
    },
    {
      "midi": 82,
      "hit": false,
      "t": 214180,
      "d": 20,
      "v": 30
    },
    {
      "midi": 82,
      "hit": false,
      "t": 214780,
      "d": 20,
      "v": 67
    },
    {
      "midi": 57,
      "hit": false,
      "t": 214780,
      "d": 1180,
      "v": 85
    },
    {
      "midi": 82,
      "hit": false,
      "t": 215380,
      "d": 20,
      "v": 30
    },
    {
      "midi": 82,
      "hit": false,
      "t": 215980,
      "d": 20,
      "v": 36
    },
    {
      "midi": 57,
      "hit": false,
      "t": 215980,
      "d": 1180,
      "v": 93
    },
    {
      "midi": 60,
      "hit": false,
      "t": 215980,
      "d": 2380,
      "v": 97
    },
    {
      "midi": 64,
      "hit": false,
      "t": 215980,
      "d": 2380,
      "v": 101
    },
    {
      "midi": 82,
      "hit": false,
      "t": 216580,
      "d": 20,
      "v": 30
    },
    {
      "midi": 82,
      "hit": false,
      "t": 217180,
      "d": 20,
      "v": 67
    },
    {
      "midi": 57,
      "hit": false,
      "t": 217180,
      "d": 7180,
      "v": 82
    },
    {
      "midi": 82,
      "hit": false,
      "t": 217780,
      "d": 20,
      "v": 30
    },
    {
      "midi": 54,
      "hit": false,
      "t": 218380,
      "d": 20,
      "v": 108
    },
    {
      "midi": 82,
      "hit": false,
      "t": 218380,
      "d": 20,
      "v": 36
    },
    {
      "midi": 60,
      "hit": false,
      "t": 218380,
      "d": 1180,
      "v": 95
    },
    {
      "midi": 64,
      "hit": false,
      "t": 218380,
      "d": 2320,
      "v": 101
    },
    {
      "midi": 69,
      "hit": false,
      "t": 218380,
      "d": 2380,
      "v": 79
    },
    {
      "midi": 82,
      "hit": false,
      "t": 218980,
      "d": 20,
      "v": 30
    },
    {
      "midi": 82,
      "hit": false,
      "t": 219580,
      "d": 20,
      "v": 67
    },
    {
      "midi": 60,
      "hit": false,
      "t": 219580,
      "d": 2380,
      "v": 84
    },
    {
      "midi": 82,
      "hit": false,
      "t": 220180,
      "d": 20,
      "v": 30
    },
    {
      "midi": 82,
      "hit": false,
      "t": 220780,
      "d": 20,
      "v": 36
    },
    {
      "midi": 65,
      "hit": false,
      "t": 220780,
      "d": 2380,
      "v": 99
    },
    {
      "midi": 69,
      "hit": false,
      "t": 220780,
      "d": 2380,
      "v": 86
    },
    {
      "midi": 72,
      "hit": false,
      "t": 220780,
      "d": 8380,
      "v": 98
    },
    {
      "midi": 82,
      "hit": false,
      "t": 221380,
      "d": 20,
      "v": 30
    },
    {
      "midi": 82,
      "hit": false,
      "t": 221980,
      "d": 20,
      "v": 67
    },
    {
      "midi": 60,
      "hit": false,
      "t": 221980,
      "d": 1180,
      "v": 82
    },
    {
      "midi": 82,
      "hit": false,
      "t": 222580,
      "d": 20,
      "v": 30
    },
    {
      "midi": 82,
      "hit": false,
      "t": 223180,
      "d": 20,
      "v": 36
    },
    {
      "midi": 60,
      "hit": false,
      "t": 223180,
      "d": 2380,
      "v": 92
    },
    {
      "midi": 65,
      "hit": false,
      "t": 223180,
      "d": 2380,
      "v": 95
    },
    {
      "midi": 69,
      "hit": false,
      "t": 223180,
      "d": 4780,
      "v": 78
    },
    {
      "midi": 82,
      "hit": false,
      "t": 223780,
      "d": 20,
      "v": 30
    },
    {
      "midi": 82,
      "hit": false,
      "t": 224380,
      "d": 20,
      "v": 67
    },
    {
      "midi": 57,
      "hit": false,
      "t": 224380,
      "d": 2380,
      "v": 85
    },
    {
      "midi": 82,
      "hit": false,
      "t": 224980,
      "d": 20,
      "v": 30
    },
    {
      "midi": 82,
      "hit": false,
      "t": 225580,
      "d": 20,
      "v": 36
    },
    {
      "midi": 60,
      "hit": false,
      "t": 225580,
      "d": 2380,
      "v": 96
    },
    {
      "midi": 65,
      "hit": false,
      "t": 225580,
      "d": 2380,
      "v": 102
    },
    {
      "midi": 82,
      "hit": false,
      "t": 226180,
      "d": 20,
      "v": 30
    },
    {
      "midi": 82,
      "hit": false,
      "t": 226780,
      "d": 20,
      "v": 67
    },
    {
      "midi": 57,
      "hit": false,
      "t": 226780,
      "d": 1180,
      "v": 84
    },
    {
      "midi": 82,
      "hit": false,
      "t": 227380,
      "d": 20,
      "v": 30
    },
    {
      "midi": 82,
      "hit": false,
      "t": 227980,
      "d": 20,
      "v": 36
    },
    {
      "midi": 65,
      "hit": false,
      "t": 227980,
      "d": 1180,
      "v": 98
    },
    {
      "midi": 69,
      "hit": false,
      "t": 227980,
      "d": 1180,
      "v": 80
    },
    {
      "midi": 60,
      "hit": false,
      "t": 227980,
      "d": 2320,
      "v": 98
    },
    {
      "midi": 54,
      "hit": false,
      "t": 228580,
      "d": 20,
      "v": 42
    },
    {
      "midi": 82,
      "hit": false,
      "t": 228580,
      "d": 20,
      "v": 30
    },
    {
      "midi": 54,
      "hit": false,
      "t": 229180,
      "d": 20,
      "v": 25
    },
    {
      "midi": 82,
      "hit": false,
      "t": 229180,
      "d": 20,
      "v": 67
    },
    {
      "midi": 65,
      "hit": false,
      "t": 229180,
      "d": 1120,
      "v": 88
    },
    {
      "midi": 69,
      "hit": false,
      "t": 229180,
      "d": 1120,
      "v": 81
    },
    {
      "midi": 72,
      "hit": false,
      "t": 229180,
      "d": 1120,
      "v": 95
    },
    {
      "midi": 54,
      "hit": false,
      "t": 229780,
      "d": 20,
      "v": 21
    },
    {
      "midi": 82,
      "hit": false,
      "t": 229780,
      "d": 20,
      "v": 30
    },
    {
      "midi": 82,
      "hit": false,
      "t": 230380,
      "d": 20,
      "v": 36
    },
    {
      "midi": 55,
      "hit": false,
      "t": 230380,
      "d": 1160,
      "v": 95
    },
    {
      "midi": 58,
      "hit": false,
      "t": 230380,
      "d": 2360,
      "v": 91
    },
    {
      "midi": 63,
      "hit": false,
      "t": 230380,
      "d": 2360,
      "v": 102
    },
    {
      "midi": 82,
      "hit": false,
      "t": 230980,
      "d": 20,
      "v": 30
    },
    {
      "midi": 82,
      "hit": false,
      "t": 231580,
      "d": 20,
      "v": 67
    },
    {
      "midi": 55,
      "hit": false,
      "t": 231580,
      "d": 2380,
      "v": 83
    },
    {
      "midi": 82,
      "hit": false,
      "t": 232180,
      "d": 20,
      "v": 30
    },
    {
      "midi": 82,
      "hit": false,
      "t": 232780,
      "d": 20,
      "v": 36
    },
    {
      "midi": 58,
      "hit": false,
      "t": 232780,
      "d": 2380,
      "v": 93
    },
    {
      "midi": 63,
      "hit": false,
      "t": 232780,
      "d": 2380,
      "v": 101
    },
    {
      "midi": 67,
      "hit": false,
      "t": 232780,
      "d": 4780,
      "v": 88
    },
    {
      "midi": 82,
      "hit": false,
      "t": 233380,
      "d": 20,
      "v": 30
    },
    {
      "midi": 82,
      "hit": false,
      "t": 233980,
      "d": 20,
      "v": 67
    },
    {
      "midi": 55,
      "hit": false,
      "t": 233980,
      "d": 1180,
      "v": 85
    },
    {
      "midi": 82,
      "hit": false,
      "t": 234580,
      "d": 20,
      "v": 30
    },
    {
      "midi": 82,
      "hit": false,
      "t": 235180,
      "d": 20,
      "v": 36
    },
    {
      "midi": 55,
      "hit": false,
      "t": 235180,
      "d": 1180,
      "v": 91
    },
    {
      "midi": 58,
      "hit": false,
      "t": 235180,
      "d": 2380,
      "v": 78
    },
    {
      "midi": 63,
      "hit": false,
      "t": 235180,
      "d": 2380,
      "v": 99
    },
    {
      "midi": 82,
      "hit": false,
      "t": 235780,
      "d": 20,
      "v": 30
    },
    {
      "midi": 82,
      "hit": false,
      "t": 236380,
      "d": 20,
      "v": 67
    },
    {
      "midi": 55,
      "hit": false,
      "t": 236380,
      "d": 1180,
      "v": 77
    },
    {
      "midi": 82,
      "hit": false,
      "t": 236980,
      "d": 20,
      "v": 30
    },
    {
      "midi": 54,
      "hit": false,
      "t": 237580,
      "d": 20,
      "v": 108
    },
    {
      "midi": 82,
      "hit": false,
      "t": 237580,
      "d": 20,
      "v": 36
    },
    {
      "midi": 58,
      "hit": false,
      "t": 237580,
      "d": 2220,
      "v": 94
    },
    {
      "midi": 63,
      "hit": false,
      "t": 237580,
      "d": 2220,
      "v": 101
    },
    {
      "midi": 67,
      "hit": false,
      "t": 237580,
      "d": 2220,
      "v": 93
    },
    {
      "midi": 82,
      "hit": false,
      "t": 238180,
      "d": 20,
      "v": 30
    },
    {
      "midi": 82,
      "hit": false,
      "t": 238780,
      "d": 20,
      "v": 67
    },
    {
      "midi": 55,
      "hit": false,
      "t": 238780,
      "d": 1020,
      "v": 83
    },
    {
      "midi": 82,
      "hit": false,
      "t": 239380,
      "d": 20,
      "v": 30
    },
    {
      "midi": 82,
      "hit": false,
      "t": 239980,
      "d": 20,
      "v": 36
    },
    {
      "midi": 69,
      "hit": false,
      "t": 239980,
      "d": 1180,
      "v": 89
    },
    {
      "midi": 60,
      "hit": false,
      "t": 239980,
      "d": 2380,
      "v": 94
    },
    {
      "midi": 65,
      "hit": false,
      "t": 239980,
      "d": 2380,
      "v": 102
    },
    {
      "midi": 82,
      "hit": false,
      "t": 240580,
      "d": 20,
      "v": 30
    },
    {
      "midi": 82,
      "hit": false,
      "t": 241180,
      "d": 20,
      "v": 67
    },
    {
      "midi": 57,
      "hit": false,
      "t": 241180,
      "d": 2380,
      "v": 81
    },
    {
      "midi": 82,
      "hit": false,
      "t": 241780,
      "d": 20,
      "v": 30
    },
    {
      "midi": 82,
      "hit": false,
      "t": 242380,
      "d": 20,
      "v": 36
    },
    {
      "midi": 60,
      "hit": false,
      "t": 242380,
      "d": 2380,
      "v": 88
    },
    {
      "midi": 65,
      "hit": false,
      "t": 242380,
      "d": 2380,
      "v": 99
    },
    {
      "midi": 69,
      "hit": false,
      "t": 242380,
      "d": 2380,
      "v": 94
    },
    {
      "midi": 82,
      "hit": false,
      "t": 242980,
      "d": 20,
      "v": 30
    },
    {
      "midi": 82,
      "hit": false,
      "t": 243580,
      "d": 20,
      "v": 67
    },
    {
      "midi": 57,
      "hit": false,
      "t": 243580,
      "d": 1180,
      "v": 79
    },
    {
      "midi": 82,
      "hit": false,
      "t": 244180,
      "d": 20,
      "v": 30
    },
    {
      "midi": 74,
      "hit": false,
      "t": 249520,
      "d": 20,
      "v": 80
    },
    {
      "midi": 79,
      "hit": false,
      "t": 249520,
      "d": 20,
      "v": 82
    },
    {
      "midi": 83,
      "hit": false,
      "t": 249520,
      "d": 20,
      "v": 86
    },
    {
      "midi": 55,
      "hit": false,
      "t": 249580,
      "d": 1160,
      "v": 92
    },
    {
      "midi": 59,
      "hit": false,
      "t": 249580,
      "d": 2360,
      "v": 96
    },
    {
      "midi": 62,
      "hit": false,
      "t": 249580,
      "d": 2360,
      "v": 101
    },
    {
      "midi": 55,
      "hit": false,
      "t": 250780,
      "d": 2380,
      "v": 85
    },
    {
      "midi": 59,
      "hit": false,
      "t": 251980,
      "d": 2380,
      "v": 99
    },
    {
      "midi": 62,
      "hit": false,
      "t": 251980,
      "d": 2380,
      "v": 101
    },
    {
      "midi": 67,
      "hit": false,
      "t": 251980,
      "d": 2380,
      "v": 92
    },
    {
      "midi": 55,
      "hit": false,
      "t": 253180,
      "d": 2380,
      "v": 87
    },
    {
      "midi": 59,
      "hit": false,
      "t": 254380,
      "d": 2380,
      "v": 100
    },
    {
      "midi": 62,
      "hit": false,
      "t": 254380,
      "d": 2380,
      "v": 103
    },
    {
      "midi": 67,
      "hit": false,
      "t": 254380,
      "d": 4780,
      "v": 96
    },
    {
      "midi": 55,
      "hit": false,
      "t": 255580,
      "d": 1180,
      "v": 83
    },
    {
      "midi": 55,
      "hit": false,
      "t": 256780,
      "d": 580,
      "v": 92
    },
    {
      "midi": 59,
      "hit": false,
      "t": 256780,
      "d": 1180,
      "v": 89
    },
    {
      "midi": 62,
      "hit": false,
      "t": 256780,
      "d": 1780,
      "v": 96
    },
    {
      "midi": 55,
      "hit": false,
      "t": 257380,
      "d": 4180,
      "v": 77
    },
    {
      "midi": 59,
      "hit": false,
      "t": 257980,
      "d": 1180,
      "v": 81
    },
    {
      "midi": 62,
      "hit": false,
      "t": 258580,
      "d": 580,
      "v": 87
    },
    {
      "midi": 59,
      "hit": false,
      "t": 259180,
      "d": 1180,
      "v": 91
    },
    {
      "midi": 62,
      "hit": false,
      "t": 259180,
      "d": 2380,
      "v": 101
    },
    {
      "midi": 67,
      "hit": false,
      "t": 259180,
      "d": 2380,
      "v": 95
    },
    {
      "midi": 82,
      "hit": false,
      "t": 259780,
      "d": 20,
      "v": 30
    },
    {
      "midi": 82,
      "hit": false,
      "t": 260380,
      "d": 20,
      "v": 30
    },
    {
      "midi": 59,
      "hit": false,
      "t": 260380,
      "d": 2380,
      "v": 85
    },
    {
      "midi": 82,
      "hit": false,
      "t": 260980,
      "d": 20,
      "v": 30
    },
    {
      "midi": 67,
      "hit": false,
      "t": 261580,
      "d": 2380,
      "v": 102
    },
    {
      "midi": 71,
      "hit": false,
      "t": 261580,
      "d": 2380,
      "v": 89
    },
    {
      "midi": 62,
      "hit": false,
      "t": 261580,
      "d": 3580,
      "v": 97
    },
    {
      "midi": 59,
      "hit": false,
      "t": 262780,
      "d": 1780,
      "v": 82
    },
    {
      "midi": 67,
      "hit": false,
      "t": 263980,
      "d": 1780,
      "v": 103
    },
    {
      "midi": 71,
      "hit": false,
      "t": 263980,
      "d": 2380,
      "v": 92
    },
    {
      "midi": 74,
      "hit": false,
      "t": 263980,
      "d": 3580,
      "v": 97
    },
    {
      "midi": 59,
      "hit": false,
      "t": 264580,
      "d": 4180,
      "v": 79
    },
    {
      "midi": 62,
      "hit": false,
      "t": 265180,
      "d": 1780,
      "v": 82
    },
    {
      "midi": 67,
      "hit": false,
      "t": 265780,
      "d": 1780,
      "v": 84
    },
    {
      "midi": 71,
      "hit": false,
      "t": 266380,
      "d": 1780,
      "v": 89
    },
    {
      "midi": 62,
      "hit": false,
      "t": 266980,
      "d": 1780,
      "v": 84
    },
    {
      "midi": 67,
      "hit": false,
      "t": 267580,
      "d": 1180,
      "v": 89
    },
    {
      "midi": 71,
      "hit": false,
      "t": 268180,
      "d": 580,
      "v": 93
    },
    {
      "midi": 55,
      "hit": false,
      "t": 268800,
      "d": 2360,
      "v": 101
    },
    {
      "midi": 59,
      "hit": false,
      "t": 268800,
      "d": 2360,
      "v": 97
    },
    {
      "midi": 50,
      "hit": false,
      "t": 268800,
      "d": 5960,
      "v": 91
    },
    {
      "midi": 55,
      "hit": false,
      "t": 271200,
      "d": 4780,
      "v": 96
    },
    {
      "midi": 59,
      "hit": false,
      "t": 271200,
      "d": 5980,
      "v": 91
    },
    {
      "midi": 62,
      "hit": false,
      "t": 271200,
      "d": 7180,
      "v": 102
    },
    {
      "midi": 50,
      "hit": false,
      "t": 274800,
      "d": 3580,
      "v": 88
    },
    {
      "midi": 55,
      "hit": false,
      "t": 276000,
      "d": 2380,
      "v": 93
    },
    {
      "midi": 59,
      "hit": false,
      "t": 277200,
      "d": 1180,
      "v": 100
    },
    {
      "midi": 57,
      "hit": false,
      "t": 278400,
      "d": 7180,
      "v": 95
    },
    {
      "midi": 54,
      "hit": false,
      "t": 278400,
      "d": 8400,
      "v": 88
    },
    {
      "midi": 62,
      "hit": false,
      "t": 278400,
      "d": 9520,
      "v": 90
    },
    {
      "midi": 66,
      "hit": false,
      "t": 278400,
      "d": 9520,
      "v": 103
    },
    {
      "midi": 57,
      "hit": false,
      "t": 285600,
      "d": 2320,
      "v": 96
    },
    {
      "midi": 54,
      "hit": false,
      "t": 286180,
      "d": 20,
      "v": 42
    },
    {
      "midi": 54,
      "hit": false,
      "t": 286780,
      "d": 20,
      "v": 25
    },
    {
      "midi": 54,
      "hit": false,
      "t": 286800,
      "d": 1120,
      "v": 88
    },
    {
      "midi": 54,
      "hit": false,
      "t": 287380,
      "d": 20,
      "v": 21
    },
    {
      "midi": 55,
      "hit": false,
      "t": 288000,
      "d": 2380,
      "v": 95
    },
    {
      "midi": 59,
      "hit": false,
      "t": 288000,
      "d": 2380,
      "v": 92
    },
    {
      "midi": 64,
      "hit": false,
      "t": 288000,
      "d": 2380,
      "v": 103
    },
    {
      "midi": 52,
      "hit": false,
      "t": 288000,
      "d": 6000,
      "v": 88
    },
    {
      "midi": 55,
      "hit": false,
      "t": 290400,
      "d": 4780,
      "v": 96
    },
    {
      "midi": 59,
      "hit": false,
      "t": 290400,
      "d": 5980,
      "v": 89
    },
    {
      "midi": 64,
      "hit": false,
      "t": 290400,
      "d": 7180,
      "v": 102
    },
    {
      "midi": 82,
      "hit": false,
      "t": 290980,
      "d": 20,
      "v": 30
    },
    {
      "midi": 82,
      "hit": false,
      "t": 291580,
      "d": 20,
      "v": 30
    },
    {
      "midi": 82,
      "hit": false,
      "t": 292180,
      "d": 20,
      "v": 30
    },
    {
      "midi": 52,
      "hit": false,
      "t": 294000,
      "d": 13160,
      "v": 86
    },
    {
      "midi": 55,
      "hit": false,
      "t": 295200,
      "d": 2380,
      "v": 93
    },
    {
      "midi": 59,
      "hit": false,
      "t": 296400,
      "d": 1160,
      "v": 104
    },
    {
      "midi": 60,
      "hit": false,
      "t": 297600,
      "d": 2380,
      "v": 105
    },
    {
      "midi": 64,
      "hit": false,
      "t": 297600,
      "d": 2380,
      "v": 89
    },
    {
      "midi": 55,
      "hit": false,
      "t": 297600,
      "d": 5980,
      "v": 94
    },
    {
      "midi": 60,
      "hit": false,
      "t": 300000,
      "d": 4780,
      "v": 91
    },
    {
      "midi": 64,
      "hit": false,
      "t": 300000,
      "d": 5980,
      "v": 95
    },
    {
      "midi": 67,
      "hit": false,
      "t": 300000,
      "d": 7180,
      "v": 103
    },
    {
      "midi": 55,
      "hit": false,
      "t": 303600,
      "d": 3580,
      "v": 83
    },
    {
      "midi": 60,
      "hit": false,
      "t": 304800,
      "d": 2360,
      "v": 90
    },
    {
      "midi": 54,
      "hit": false,
      "t": 305380,
      "d": 20,
      "v": 28
    },
    {
      "midi": 54,
      "hit": false,
      "t": 305980,
      "d": 20,
      "v": 18
    },
    {
      "midi": 64,
      "hit": false,
      "t": 306000,
      "d": 1160,
      "v": 97
    },
    {
      "midi": 54,
      "hit": false,
      "t": 306580,
      "d": 20,
      "v": 11
    },
    {
      "midi": 50,
      "hit": false,
      "t": 307160,
      "d": 2420,
      "v": 86
    },
    {
      "midi": 55,
      "hit": false,
      "t": 307200,
      "d": 2380,
      "v": 87
    },
    {
      "midi": 59,
      "hit": false,
      "t": 307200,
      "d": 2380,
      "v": 102
    },
    {
      "midi": 62,
      "hit": false,
      "t": 307200,
      "d": 9500,
      "v": 92
    },
    {
      "midi": 50,
      "hit": false,
      "t": 309600,
      "d": 3580,
      "v": 102
    },
    {
      "midi": 55,
      "hit": false,
      "t": 309600,
      "d": 4780,
      "v": 99
    },
    {
      "midi": 59,
      "hit": false,
      "t": 309600,
      "d": 7100,
      "v": 91
    },
    {
      "midi": 82,
      "hit": false,
      "t": 310780,
      "d": 20,
      "v": 30
    },
    {
      "midi": 82,
      "hit": false,
      "t": 311380,
      "d": 20,
      "v": 30
    },
    {
      "midi": 50,
      "hit": false,
      "t": 313200,
      "d": 3500,
      "v": 97
    },
    {
      "midi": 55,
      "hit": false,
      "t": 314400,
      "d": 2300,
      "v": 94
    },
    {
      "midi": 57,
      "hit": false,
      "t": 316800,
      "d": 2380,
      "v": 88
    },
    {
      "midi": 62,
      "hit": false,
      "t": 316800,
      "d": 2380,
      "v": 95
    },
    {
      "midi": 66,
      "hit": false,
      "t": 316800,
      "d": 2380,
      "v": 103
    },
    {
      "midi": 54,
      "hit": false,
      "t": 316800,
      "d": 9580,
      "v": 97
    },
    {
      "midi": 57,
      "hit": false,
      "t": 319200,
      "d": 3580,
      "v": 87
    },
    {
      "midi": 66,
      "hit": false,
      "t": 319200,
      "d": 5980,
      "v": 101
    },
    {
      "midi": 62,
      "hit": false,
      "t": 319200,
      "d": 7080,
      "v": 95
    },
    {
      "midi": 57,
      "hit": false,
      "t": 322800,
      "d": 3480,
      "v": 100
    },
    {
      "midi": 69,
      "hit": false,
      "t": 324000,
      "d": 2280,
      "v": 105
    },
    {
      "midi": 66,
      "hit": false,
      "t": 325200,
      "d": 1080,
      "v": 95
    },
    {
      "midi": 55,
      "hit": false,
      "t": 326400,
      "d": 2380,
      "v": 89
    },
    {
      "midi": 59,
      "hit": false,
      "t": 326400,
      "d": 2380,
      "v": 98
    },
    {
      "midi": 52,
      "hit": false,
      "t": 326400,
      "d": 5980,
      "v": 97
    },
    {
      "midi": 67,
      "hit": false,
      "t": 326400,
      "d": 7300,
      "v": 105
    },
    {
      "midi": 55,
      "hit": false,
      "t": 328800,
      "d": 4780,
      "v": 86
    },
    {
      "midi": 59,
      "hit": false,
      "t": 328800,
      "d": 5980,
      "v": 97
    },
    {
      "midi": 64,
      "hit": false,
      "t": 328800,
      "d": 7180,
      "v": 90
    },
    {
      "midi": 52,
      "hit": false,
      "t": 332400,
      "d": 3580,
      "v": 83
    },
    {
      "midi": 55,
      "hit": false,
      "t": 333600,
      "d": 2380,
      "v": 77
    },
    {
      "midi": 59,
      "hit": false,
      "t": 334800,
      "d": 1160,
      "v": 88
    },
    {
      "midi": 60,
      "hit": false,
      "t": 335960,
      "d": 20,
      "v": 88
    },
    {
      "midi": 60,
      "hit": false,
      "t": 336000,
      "d": 2380,
      "v": 98
    },
    {
      "midi": 64,
      "hit": false,
      "t": 336000,
      "d": 2380,
      "v": 95
    },
    {
      "midi": 55,
      "hit": false,
      "t": 336000,
      "d": 5380,
      "v": 84
    },
    {
      "midi": 60,
      "hit": false,
      "t": 338400,
      "d": 3580,
      "v": 85
    },
    {
      "midi": 67,
      "hit": false,
      "t": 338400,
      "d": 4180,
      "v": 96
    },
    {
      "midi": 64,
      "hit": false,
      "t": 338400,
      "d": 5380,
      "v": 81
    },
    {
      "midi": 55,
      "hit": false,
      "t": 341400,
      "d": 3580,
      "v": 89
    },
    {
      "midi": 60,
      "hit": false,
      "t": 342000,
      "d": 2380,
      "v": 93
    },
    {
      "midi": 67,
      "hit": false,
      "t": 342600,
      "d": 2980,
      "v": 100
    },
    {
      "midi": 54,
      "hit": false,
      "t": 343780,
      "d": 20,
      "v": 42
    },
    {
      "midi": 64,
      "hit": false,
      "t": 343800,
      "d": 1780,
      "v": 92
    },
    {
      "midi": 54,
      "hit": false,
      "t": 344380,
      "d": 20,
      "v": 25
    },
    {
      "midi": 60,
      "hit": false,
      "t": 344400,
      "d": 1180,
      "v": 88
    },
    {
      "midi": 54,
      "hit": false,
      "t": 344980,
      "d": 20,
      "v": 21
    },
    {
      "midi": 55,
      "hit": false,
      "t": 345000,
      "d": 580,
      "v": 83
    },
    {
      "midi": 58,
      "hit": false,
      "t": 345600,
      "d": 2180,
      "v": 101
    },
    {
      "midi": 62,
      "hit": false,
      "t": 345600,
      "d": 2180,
      "v": 97
    },
    {
      "midi": 53,
      "hit": false,
      "t": 345600,
      "d": 5780,
      "v": 91
    },
    {
      "midi": 58,
      "hit": false,
      "t": 348000,
      "d": 4780,
      "v": 96
    },
    {
      "midi": 62,
      "hit": false,
      "t": 348000,
      "d": 5980,
      "v": 91
    },
    {
      "midi": 65,
      "hit": false,
      "t": 348000,
      "d": 7180,
      "v": 102
    },
    {
      "midi": 53,
      "hit": false,
      "t": 351600,
      "d": 11980,
      "v": 88
    },
    {
      "midi": 58,
      "hit": false,
      "t": 352800,
      "d": 2380,
      "v": 93
    },
    {
      "midi": 62,
      "hit": false,
      "t": 354000,
      "d": 1180,
      "v": 100
    },
    {
      "midi": 57,
      "hit": false,
      "t": 355200,
      "d": 7080,
      "v": 95
    },
    {
      "midi": 60,
      "hit": false,
      "t": 355200,
      "d": 9480,
      "v": 90
    },
    {
      "midi": 65,
      "hit": false,
      "t": 355200,
      "d": 9580,
      "v": 103
    },
    {
      "midi": 57,
      "hit": false,
      "t": 362400,
      "d": 2380,
      "v": 96
    },
    {
      "midi": 54,
      "hit": false,
      "t": 362980,
      "d": 20,
      "v": 42
    },
    {
      "midi": 54,
      "hit": false,
      "t": 363580,
      "d": 20,
      "v": 25
    },
    {
      "midi": 53,
      "hit": false,
      "t": 363600,
      "d": 7180,
      "v": 88
    },
    {
      "midi": 54,
      "hit": false,
      "t": 364180,
      "d": 20,
      "v": 21
    },
    {
      "midi": 65,
      "hit": false,
      "t": 364800,
      "d": 2380,
      "v": 103
    },
    {
      "midi": 58,
      "hit": false,
      "t": 364840,
      "d": 2360,
      "v": 95
    },
    {
      "midi": 62,
      "hit": false,
      "t": 364840,
      "d": 2360,
      "v": 92
    },
    {
      "midi": 58,
      "hit": false,
      "t": 367200,
      "d": 4780,
      "v": 96
    },
    {
      "midi": 62,
      "hit": false,
      "t": 367200,
      "d": 5980,
      "v": 89
    },
    {
      "midi": 65,
      "hit": false,
      "t": 367200,
      "d": 7180,
      "v": 102
    },
    {
      "midi": 82,
      "hit": false,
      "t": 367780,
      "d": 20,
      "v": 30
    },
    {
      "midi": 82,
      "hit": false,
      "t": 368380,
      "d": 20,
      "v": 30
    },
    {
      "midi": 82,
      "hit": false,
      "t": 368980,
      "d": 20,
      "v": 30
    },
    {
      "midi": 53,
      "hit": false,
      "t": 370800,
      "d": 3600,
      "v": 86
    },
    {
      "midi": 58,
      "hit": false,
      "t": 372000,
      "d": 2380,
      "v": 93
    },
    {
      "midi": 62,
      "hit": false,
      "t": 373200,
      "d": 1180,
      "v": 104
    },
    {
      "midi": 58,
      "hit": false,
      "t": 374400,
      "d": 2380,
      "v": 105
    },
    {
      "midi": 63,
      "hit": false,
      "t": 374400,
      "d": 2380,
      "v": 89
    },
    {
      "midi": 51,
      "hit": false,
      "t": 374400,
      "d": 4820,
      "v": 86
    },
    {
      "midi": 55,
      "hit": false,
      "t": 374400,
      "d": 4820,
      "v": 94
    },
    {
      "midi": 58,
      "hit": false,
      "t": 376800,
      "d": 2420,
      "v": 91
    },
    {
      "midi": 63,
      "hit": false,
      "t": 376800,
      "d": 2420,
      "v": 95
    },
    {
      "midi": 67,
      "hit": false,
      "t": 376800,
      "d": 2420,
      "v": 103
    },
    {
      "midi": 63,
      "hit": false,
      "t": 381060,
      "d": 520,
      "v": 80
    },
    {
      "midi": 67,
      "hit": false,
      "t": 381060,
      "d": 520,
      "v": 75
    },
    {
      "midi": 70,
      "hit": false,
      "t": 381060,
      "d": 520,
      "v": 68
    },
    {
      "midi": 63,
      "hit": false,
      "t": 381600,
      "d": 1180,
      "v": 104
    },
    {
      "midi": 67,
      "hit": false,
      "t": 381600,
      "d": 1180,
      "v": 95
    },
    {
      "midi": 70,
      "hit": false,
      "t": 381600,
      "d": 1180,
      "v": 89
    },
    {
      "midi": 82,
      "hit": false,
      "t": 382180,
      "d": 20,
      "v": 30
    },
    {
      "midi": 82,
      "hit": false,
      "t": 382780,
      "d": 20,
      "v": 37
    },
    {
      "midi": 70,
      "hit": false,
      "t": 382800,
      "d": 1160,
      "v": 78
    },
    {
      "midi": 75,
      "hit": false,
      "t": 382800,
      "d": 1160,
      "v": 89
    },
    {
      "midi": 67,
      "hit": false,
      "t": 382800,
      "d": 1180,
      "v": 83
    },
    {
      "midi": 82,
      "hit": false,
      "t": 383380,
      "d": 20,
      "v": 30
    },
    {
      "midi": 72,
      "hit": false,
      "t": 383960,
      "d": 20,
      "v": 78
    },
    {
      "midi": 76,
      "hit": false,
      "t": 383960,
      "d": 20,
      "v": 89
    },
    {
      "midi": 82,
      "hit": false,
      "t": 383980,
      "d": 20,
      "v": 36
    },
    {
      "midi": 55,
      "hit": false,
      "t": 384000,
      "d": 1160,
      "v": 95
    },
    {
      "midi": 60,
      "hit": false,
      "t": 384000,
      "d": 2360,
      "v": 91
    },
    {
      "midi": 64,
      "hit": false,
      "t": 384000,
      "d": 2360,
      "v": 102
    },
    {
      "midi": 82,
      "hit": false,
      "t": 384580,
      "d": 20,
      "v": 30
    },
    {
      "midi": 82,
      "hit": false,
      "t": 385180,
      "d": 20,
      "v": 67
    },
    {
      "midi": 55,
      "hit": false,
      "t": 385200,
      "d": 2380,
      "v": 83
    },
    {
      "midi": 82,
      "hit": false,
      "t": 385780,
      "d": 20,
      "v": 30
    },
    {
      "midi": 82,
      "hit": false,
      "t": 386380,
      "d": 20,
      "v": 36
    },
    {
      "midi": 60,
      "hit": false,
      "t": 386400,
      "d": 2380,
      "v": 93
    },
    {
      "midi": 64,
      "hit": false,
      "t": 386400,
      "d": 2380,
      "v": 101
    },
    {
      "midi": 67,
      "hit": false,
      "t": 386400,
      "d": 4780,
      "v": 88
    },
    {
      "midi": 82,
      "hit": false,
      "t": 386980,
      "d": 20,
      "v": 30
    },
    {
      "midi": 82,
      "hit": false,
      "t": 387580,
      "d": 20,
      "v": 67
    },
    {
      "midi": 55,
      "hit": false,
      "t": 387600,
      "d": 1180,
      "v": 85
    },
    {
      "midi": 82,
      "hit": false,
      "t": 388180,
      "d": 20,
      "v": 30
    },
    {
      "midi": 82,
      "hit": false,
      "t": 388780,
      "d": 20,
      "v": 36
    },
    {
      "midi": 55,
      "hit": false,
      "t": 388800,
      "d": 1180,
      "v": 91
    },
    {
      "midi": 60,
      "hit": false,
      "t": 388800,
      "d": 2380,
      "v": 78
    },
    {
      "midi": 64,
      "hit": false,
      "t": 388800,
      "d": 2380,
      "v": 99
    },
    {
      "midi": 82,
      "hit": false,
      "t": 389380,
      "d": 20,
      "v": 30
    },
    {
      "midi": 82,
      "hit": false,
      "t": 389980,
      "d": 20,
      "v": 67
    },
    {
      "midi": 55,
      "hit": false,
      "t": 390000,
      "d": 1180,
      "v": 77
    },
    {
      "midi": 82,
      "hit": false,
      "t": 390580,
      "d": 20,
      "v": 30
    },
    {
      "midi": 54,
      "hit": false,
      "t": 391180,
      "d": 20,
      "v": 108
    },
    {
      "midi": 82,
      "hit": false,
      "t": 391180,
      "d": 20,
      "v": 36
    },
    {
      "midi": 60,
      "hit": false,
      "t": 391200,
      "d": 2260,
      "v": 94
    },
    {
      "midi": 64,
      "hit": false,
      "t": 391200,
      "d": 2260,
      "v": 101
    },
    {
      "midi": 67,
      "hit": false,
      "t": 391200,
      "d": 2380,
      "v": 93
    },
    {
      "midi": 82,
      "hit": false,
      "t": 391780,
      "d": 20,
      "v": 30
    },
    {
      "midi": 82,
      "hit": false,
      "t": 392380,
      "d": 20,
      "v": 67
    },
    {
      "midi": 55,
      "hit": false,
      "t": 392400,
      "d": 1180,
      "v": 83
    },
    {
      "midi": 82,
      "hit": false,
      "t": 392980,
      "d": 20,
      "v": 30
    },
    {
      "midi": 82,
      "hit": false,
      "t": 393580,
      "d": 20,
      "v": 36
    },
    {
      "midi": 67,
      "hit": false,
      "t": 393600,
      "d": 1180,
      "v": 89
    },
    {
      "midi": 59,
      "hit": false,
      "t": 393600,
      "d": 2380,
      "v": 94
    },
    {
      "midi": 62,
      "hit": false,
      "t": 393600,
      "d": 2380,
      "v": 102
    },
    {
      "midi": 82,
      "hit": false,
      "t": 394180,
      "d": 20,
      "v": 30
    },
    {
      "midi": 82,
      "hit": false,
      "t": 394780,
      "d": 20,
      "v": 67
    },
    {
      "midi": 55,
      "hit": false,
      "t": 394800,
      "d": 2380,
      "v": 81
    },
    {
      "midi": 82,
      "hit": false,
      "t": 395380,
      "d": 20,
      "v": 30
    },
    {
      "midi": 82,
      "hit": false,
      "t": 395980,
      "d": 20,
      "v": 36
    },
    {
      "midi": 59,
      "hit": false,
      "t": 396000,
      "d": 2380,
      "v": 88
    },
    {
      "midi": 62,
      "hit": false,
      "t": 396000,
      "d": 2380,
      "v": 99
    },
    {
      "midi": 67,
      "hit": false,
      "t": 396000,
      "d": 4780,
      "v": 94
    },
    {
      "midi": 82,
      "hit": false,
      "t": 396580,
      "d": 20,
      "v": 30
    },
    {
      "midi": 82,
      "hit": false,
      "t": 397180,
      "d": 20,
      "v": 67
    },
    {
      "midi": 55,
      "hit": false,
      "t": 397200,
      "d": 1180,
      "v": 79
    },
    {
      "midi": 82,
      "hit": false,
      "t": 397780,
      "d": 20,
      "v": 30
    },
    {
      "midi": 82,
      "hit": false,
      "t": 398380,
      "d": 20,
      "v": 36
    },
    {
      "midi": 55,
      "hit": false,
      "t": 398400,
      "d": 2380,
      "v": 95
    },
    {
      "midi": 59,
      "hit": false,
      "t": 398400,
      "d": 2380,
      "v": 90
    },
    {
      "midi": 62,
      "hit": false,
      "t": 398400,
      "d": 2380,
      "v": 101
    },
    {
      "midi": 82,
      "hit": false,
      "t": 398980,
      "d": 20,
      "v": 30
    },
    {
      "midi": 82,
      "hit": false,
      "t": 399580,
      "d": 20,
      "v": 67
    },
    {
      "midi": 50,
      "hit": false,
      "t": 399600,
      "d": 1180,
      "v": 89
    },
    {
      "midi": 82,
      "hit": false,
      "t": 400180,
      "d": 20,
      "v": 30
    },
    {
      "midi": 82,
      "hit": false,
      "t": 400780,
      "d": 20,
      "v": 36
    },
    {
      "midi": 59,
      "hit": false,
      "t": 400800,
      "d": 2180,
      "v": 94
    },
    {
      "midi": 62,
      "hit": false,
      "t": 400800,
      "d": 2180,
      "v": 102
    },
    {
      "midi": 67,
      "hit": false,
      "t": 400800,
      "d": 2180,
      "v": 91
    },
    {
      "midi": 82,
      "hit": false,
      "t": 401380,
      "d": 20,
      "v": 30
    },
    {
      "midi": 82,
      "hit": false,
      "t": 401980,
      "d": 20,
      "v": 67
    },
    {
      "midi": 55,
      "hit": false,
      "t": 402000,
      "d": 980,
      "v": 89
    },
    {
      "midi": 82,
      "hit": false,
      "t": 402580,
      "d": 20,
      "v": 30
    },
    {
      "midi": 82,
      "hit": false,
      "t": 403180,
      "d": 20,
      "v": 36
    },
    {
      "midi": 60,
      "hit": false,
      "t": 403200,
      "d": 2380,
      "v": 92
    },
    {
      "midi": 64,
      "hit": false,
      "t": 403200,
      "d": 2380,
      "v": 100
    },
    {
      "midi": 69,
      "hit": false,
      "t": 403200,
      "d": 2380,
      "v": 89
    },
    {
      "midi": 82,
      "hit": false,
      "t": 403780,
      "d": 20,
      "v": 30
    },
    {
      "midi": 82,
      "hit": false,
      "t": 404380,
      "d": 20,
      "v": 67
    },
    {
      "midi": 57,
      "hit": false,
      "t": 404400,
      "d": 3580,
      "v": 88
    },
    {
      "midi": 82,
      "hit": false,
      "t": 404980,
      "d": 20,
      "v": 30
    },
    {
      "midi": 82,
      "hit": false,
      "t": 405580,
      "d": 20,
      "v": 36
    },
    {
      "midi": 60,
      "hit": false,
      "t": 405600,
      "d": 1180,
      "v": 94
    },
    {
      "midi": 64,
      "hit": false,
      "t": 405600,
      "d": 2380,
      "v": 101
    },
    {
      "midi": 69,
      "hit": false,
      "t": 405600,
      "d": 2380,
      "v": 92
    },
    {
      "midi": 82,
      "hit": false,
      "t": 406180,
      "d": 20,
      "v": 30
    },
    {
      "midi": 82,
      "hit": false,
      "t": 406780,
      "d": 20,
      "v": 30
    },
    {
      "midi": 60,
      "hit": false,
      "t": 406800,
      "d": 1180,
      "v": 87
    },
    {
      "midi": 82,
      "hit": false,
      "t": 407380,
      "d": 20,
      "v": 30
    },
    {
      "midi": 82,
      "hit": false,
      "t": 407980,
      "d": 20,
      "v": 36
    },
    {
      "midi": 64,
      "hit": false,
      "t": 408000,
      "d": 2380,
      "v": 95
    },
    {
      "midi": 69,
      "hit": false,
      "t": 408000,
      "d": 2380,
      "v": 100
    },
    {
      "midi": 72,
      "hit": false,
      "t": 408000,
      "d": 2380,
      "v": 98
    },
    {
      "midi": 82,
      "hit": false,
      "t": 408580,
      "d": 20,
      "v": 30
    },
    {
      "midi": 82,
      "hit": false,
      "t": 409180,
      "d": 20,
      "v": 67
    },
    {
      "midi": 60,
      "hit": false,
      "t": 409200,
      "d": 1180,
      "v": 82
    },
    {
      "midi": 82,
      "hit": false,
      "t": 409780,
      "d": 20,
      "v": 30
    },
    {
      "midi": 54,
      "hit": false,
      "t": 410380,
      "d": 20,
      "v": 108
    },
    {
      "midi": 82,
      "hit": false,
      "t": 410380,
      "d": 20,
      "v": 36
    },
    {
      "midi": 64,
      "hit": false,
      "t": 410400,
      "d": 2280,
      "v": 92
    },
    {
      "midi": 60,
      "hit": false,
      "t": 410400,
      "d": 2380,
      "v": 89
    },
    {
      "midi": 69,
      "hit": false,
      "t": 410400,
      "d": 2380,
      "v": 94
    },
    {
      "midi": 82,
      "hit": false,
      "t": 410980,
      "d": 20,
      "v": 30
    },
    {
      "midi": 82,
      "hit": false,
      "t": 411580,
      "d": 20,
      "v": 67
    },
    {
      "midi": 57,
      "hit": false,
      "t": 411600,
      "d": 2380,
      "v": 84
    },
    {
      "midi": 82,
      "hit": false,
      "t": 412180,
      "d": 20,
      "v": 30
    },
    {
      "midi": 82,
      "hit": false,
      "t": 412780,
      "d": 20,
      "v": 36
    },
    {
      "midi": 60,
      "hit": false,
      "t": 412800,
      "d": 2380,
      "v": 96
    },
    {
      "midi": 65,
      "hit": false,
      "t": 412800,
      "d": 2380,
      "v": 100
    },
    {
      "midi": 69,
      "hit": false,
      "t": 412800,
      "d": 2380,
      "v": 87
    },
    {
      "midi": 82,
      "hit": false,
      "t": 413380,
      "d": 20,
      "v": 30
    },
    {
      "midi": 82,
      "hit": false,
      "t": 413980,
      "d": 20,
      "v": 67
    },
    {
      "midi": 57,
      "hit": false,
      "t": 414000,
      "d": 2380,
      "v": 83
    },
    {
      "midi": 82,
      "hit": false,
      "t": 414580,
      "d": 20,
      "v": 30
    },
    {
      "midi": 82,
      "hit": false,
      "t": 415180,
      "d": 20,
      "v": 36
    },
    {
      "midi": 60,
      "hit": false,
      "t": 415200,
      "d": 2380,
      "v": 94
    },
    {
      "midi": 65,
      "hit": false,
      "t": 415200,
      "d": 2380,
      "v": 96
    },
    {
      "midi": 69,
      "hit": false,
      "t": 415200,
      "d": 2380,
      "v": 79
    },
    {
      "midi": 82,
      "hit": false,
      "t": 415780,
      "d": 20,
      "v": 30
    },
    {
      "midi": 82,
      "hit": false,
      "t": 416380,
      "d": 20,
      "v": 67
    },
    {
      "midi": 57,
      "hit": false,
      "t": 416400,
      "d": 3580,
      "v": 86
    },
    {
      "midi": 82,
      "hit": false,
      "t": 416980,
      "d": 20,
      "v": 30
    },
    {
      "midi": 82,
      "hit": false,
      "t": 417580,
      "d": 20,
      "v": 36
    },
    {
      "midi": 60,
      "hit": false,
      "t": 417600,
      "d": 1180,
      "v": 94
    },
    {
      "midi": 65,
      "hit": false,
      "t": 417600,
      "d": 2380,
      "v": 96
    },
    {
      "midi": 69,
      "hit": false,
      "t": 417600,
      "d": 2380,
      "v": 81
    },
    {
      "midi": 82,
      "hit": false,
      "t": 418180,
      "d": 20,
      "v": 30
    },
    {
      "midi": 82,
      "hit": false,
      "t": 418780,
      "d": 20,
      "v": 67
    },
    {
      "midi": 60,
      "hit": false,
      "t": 418800,
      "d": 1180,
      "v": 80
    },
    {
      "midi": 82,
      "hit": false,
      "t": 419380,
      "d": 20,
      "v": 30
    },
    {
      "midi": 82,
      "hit": false,
      "t": 419980,
      "d": 20,
      "v": 36
    },
    {
      "midi": 65,
      "hit": false,
      "t": 420000,
      "d": 2380,
      "v": 95
    },
    {
      "midi": 69,
      "hit": false,
      "t": 420000,
      "d": 2380,
      "v": 84
    },
    {
      "midi": 72,
      "hit": false,
      "t": 420000,
      "d": 7180,
      "v": 99
    },
    {
      "midi": 54,
      "hit": false,
      "t": 420580,
      "d": 20,
      "v": 28
    },
    {
      "midi": 82,
      "hit": false,
      "t": 420580,
      "d": 20,
      "v": 30
    },
    {
      "midi": 54,
      "hit": false,
      "t": 421180,
      "d": 20,
      "v": 18
    },
    {
      "midi": 82,
      "hit": false,
      "t": 421180,
      "d": 20,
      "v": 67
    },
    {
      "midi": 60,
      "hit": false,
      "t": 421200,
      "d": 1180,
      "v": 83
    },
    {
      "midi": 54,
      "hit": false,
      "t": 421780,
      "d": 20,
      "v": 11
    },
    {
      "midi": 82,
      "hit": false,
      "t": 421780,
      "d": 20,
      "v": 30
    },
    {
      "midi": 82,
      "hit": false,
      "t": 422380,
      "d": 20,
      "v": 36
    },
    {
      "midi": 60,
      "hit": false,
      "t": 422400,
      "d": 2380,
      "v": 94
    },
    {
      "midi": 64,
      "hit": false,
      "t": 422400,
      "d": 2380,
      "v": 97
    },
    {
      "midi": 67,
      "hit": false,
      "t": 422400,
      "d": 2380,
      "v": 82
    },
    {
      "midi": 82,
      "hit": false,
      "t": 422980,
      "d": 20,
      "v": 30
    },
    {
      "midi": 82,
      "hit": false,
      "t": 423580,
      "d": 20,
      "v": 67
    },
    {
      "midi": 55,
      "hit": false,
      "t": 423600,
      "d": 2380,
      "v": 84
    },
    {
      "midi": 82,
      "hit": false,
      "t": 424180,
      "d": 20,
      "v": 30
    },
    {
      "midi": 82,
      "hit": false,
      "t": 424780,
      "d": 20,
      "v": 36
    },
    {
      "midi": 67,
      "hit": false,
      "t": 424800,
      "d": 1180,
      "v": 79
    },
    {
      "midi": 60,
      "hit": false,
      "t": 424800,
      "d": 2380,
      "v": 97
    },
    {
      "midi": 64,
      "hit": false,
      "t": 424800,
      "d": 2380,
      "v": 92
    },
    {
      "midi": 82,
      "hit": false,
      "t": 425380,
      "d": 20,
      "v": 30
    },
    {
      "midi": 82,
      "hit": false,
      "t": 425980,
      "d": 20,
      "v": 30
    },
    {
      "midi": 55,
      "hit": false,
      "t": 426000,
      "d": 7180,
      "v": 82
    },
    {
      "midi": 82,
      "hit": false,
      "t": 426580,
      "d": 20,
      "v": 30
    },
    {
      "midi": 82,
      "hit": false,
      "t": 427180,
      "d": 20,
      "v": 36
    },
    {
      "midi": 60,
      "hit": false,
      "t": 427200,
      "d": 1180,
      "v": 87
    },
    {
      "midi": 64,
      "hit": false,
      "t": 427200,
      "d": 2380,
      "v": 87
    },
    {
      "midi": 67,
      "hit": false,
      "t": 427200,
      "d": 2380,
      "v": 73
    },
    {
      "midi": 82,
      "hit": false,
      "t": 427780,
      "d": 20,
      "v": 30
    },
    {
      "midi": 82,
      "hit": false,
      "t": 428380,
      "d": 20,
      "v": 67
    },
    {
      "midi": 60,
      "hit": false,
      "t": 428400,
      "d": 1180,
      "v": 82
    },
    {
      "midi": 82,
      "hit": false,
      "t": 428980,
      "d": 20,
      "v": 30
    },
    {
      "midi": 54,
      "hit": false,
      "t": 429580,
      "d": 20,
      "v": 108
    },
    {
      "midi": 82,
      "hit": false,
      "t": 429580,
      "d": 20,
      "v": 36
    },
    {
      "midi": 64,
      "hit": false,
      "t": 429600,
      "d": 2300,
      "v": 97
    },
    {
      "midi": 72,
      "hit": false,
      "t": 429600,
      "d": 2300,
      "v": 99
    },
    {
      "midi": 67,
      "hit": false,
      "t": 429600,
      "d": 2380,
      "v": 82
    },
    {
      "midi": 82,
      "hit": false,
      "t": 430180,
      "d": 20,
      "v": 30
    },
    {
      "midi": 82,
      "hit": false,
      "t": 430780,
      "d": 20,
      "v": 67
    },
    {
      "midi": 60,
      "hit": false,
      "t": 430800,
      "d": 1100,
      "v": 82
    },
    {
      "midi": 82,
      "hit": false,
      "t": 431380,
      "d": 20,
      "v": 30
    },
    {
      "midi": 82,
      "hit": false,
      "t": 431980,
      "d": 20,
      "v": 36
    },
    {
      "midi": 59,
      "hit": false,
      "t": 432000,
      "d": 2380,
      "v": 91
    },
    {
      "midi": 62,
      "hit": false,
      "t": 432000,
      "d": 2380,
      "v": 95
    },
    {
      "midi": 67,
      "hit": false,
      "t": 432000,
      "d": 2380,
      "v": 78
    },
    {
      "midi": 71,
      "hit": false,
      "t": 432000,
      "d": 7280,
      "v": 99
    },
    {
      "midi": 82,
      "hit": false,
      "t": 432580,
      "d": 20,
      "v": 30
    },
    {
      "midi": 82,
      "hit": false,
      "t": 433180,
      "d": 20,
      "v": 67
    },
    {
      "midi": 55,
      "hit": false,
      "t": 433200,
      "d": 1180,
      "v": 80
    },
    {
      "midi": 82,
      "hit": false,
      "t": 433780,
      "d": 20,
      "v": 30
    },
    {
      "midi": 82,
      "hit": false,
      "t": 434380,
      "d": 20,
      "v": 36
    },
    {
      "midi": 67,
      "hit": false,
      "t": 434400,
      "d": 1180,
      "v": 81
    },
    {
      "midi": 59,
      "hit": false,
      "t": 434400,
      "d": 2380,
      "v": 92
    },
    {
      "midi": 62,
      "hit": false,
      "t": 434400,
      "d": 2380,
      "v": 96
    },
    {
      "midi": 82,
      "hit": false,
      "t": 434980,
      "d": 20,
      "v": 30
    },
    {
      "midi": 82,
      "hit": false,
      "t": 435580,
      "d": 20,
      "v": 67
    },
    {
      "midi": 55,
      "hit": false,
      "t": 435600,
      "d": 1180,
      "v": 82
    },
    {
      "midi": 82,
      "hit": false,
      "t": 436180,
      "d": 20,
      "v": 30
    },
    {
      "midi": 82,
      "hit": false,
      "t": 436780,
      "d": 20,
      "v": 36
    },
    {
      "midi": 55,
      "hit": false,
      "t": 436800,
      "d": 2380,
      "v": 93
    },
    {
      "midi": 59,
      "hit": false,
      "t": 436800,
      "d": 2380,
      "v": 97
    },
    {
      "midi": 62,
      "hit": false,
      "t": 436800,
      "d": 2380,
      "v": 96
    },
    {
      "midi": 82,
      "hit": false,
      "t": 437380,
      "d": 20,
      "v": 30
    },
    {
      "midi": 82,
      "hit": false,
      "t": 437980,
      "d": 20,
      "v": 67
    },
    {
      "midi": 50,
      "hit": false,
      "t": 438000,
      "d": 1180,
      "v": 84
    },
    {
      "midi": 82,
      "hit": false,
      "t": 438580,
      "d": 20,
      "v": 30
    },
    {
      "midi": 82,
      "hit": false,
      "t": 439180,
      "d": 20,
      "v": 36
    },
    {
      "midi": 55,
      "hit": false,
      "t": 439200,
      "d": 2180,
      "v": 97
    },
    {
      "midi": 59,
      "hit": false,
      "t": 439200,
      "d": 2180,
      "v": 99
    },
    {
      "midi": 62,
      "hit": false,
      "t": 439200,
      "d": 2180,
      "v": 99
    },
    {
      "midi": 82,
      "hit": false,
      "t": 439780,
      "d": 20,
      "v": 30
    },
    {
      "midi": 82,
      "hit": false,
      "t": 440380,
      "d": 20,
      "v": 67
    },
    {
      "midi": 50,
      "hit": false,
      "t": 440400,
      "d": 980,
      "v": 84
    },
    {
      "midi": 82,
      "hit": false,
      "t": 440980,
      "d": 20,
      "v": 30
    },
    {
      "midi": 82,
      "hit": false,
      "t": 441580,
      "d": 20,
      "v": 36
    },
    {
      "midi": 60,
      "hit": false,
      "t": 441600,
      "d": 2380,
      "v": 95
    },
    {
      "midi": 64,
      "hit": false,
      "t": 441600,
      "d": 2380,
      "v": 94
    },
    {
      "midi": 69,
      "hit": false,
      "t": 441600,
      "d": 2380,
      "v": 80
    },
    {
      "midi": 82,
      "hit": false,
      "t": 442180,
      "d": 20,
      "v": 30
    },
    {
      "midi": 82,
      "hit": false,
      "t": 442780,
      "d": 20,
      "v": 67
    },
    {
      "midi": 57,
      "hit": false,
      "t": 442800,
      "d": 2380,
      "v": 80
    },
    {
      "midi": 82,
      "hit": false,
      "t": 443380,
      "d": 20,
      "v": 30
    },
    {
      "midi": 82,
      "hit": false,
      "t": 443980,
      "d": 20,
      "v": 36
    },
    {
      "midi": 60,
      "hit": false,
      "t": 444000,
      "d": 2380,
      "v": 96
    },
    {
      "midi": 64,
      "hit": false,
      "t": 444000,
      "d": 2380,
      "v": 99
    },
    {
      "midi": 69,
      "hit": false,
      "t": 444000,
      "d": 4780,
      "v": 80
    },
    {
      "midi": 82,
      "hit": false,
      "t": 444580,
      "d": 20,
      "v": 30
    },
    {
      "midi": 82,
      "hit": false,
      "t": 445180,
      "d": 20,
      "v": 67
    },
    {
      "midi": 57,
      "hit": false,
      "t": 445200,
      "d": 1180,
      "v": 85
    },
    {
      "midi": 82,
      "hit": false,
      "t": 445780,
      "d": 20,
      "v": 30
    },
    {
      "midi": 82,
      "hit": false,
      "t": 446380,
      "d": 20,
      "v": 36
    },
    {
      "midi": 57,
      "hit": false,
      "t": 446400,
      "d": 1180,
      "v": 93
    },
    {
      "midi": 60,
      "hit": false,
      "t": 446400,
      "d": 2380,
      "v": 97
    },
    {
      "midi": 64,
      "hit": false,
      "t": 446400,
      "d": 2380,
      "v": 101
    },
    {
      "midi": 82,
      "hit": false,
      "t": 446980,
      "d": 20,
      "v": 30
    },
    {
      "midi": 82,
      "hit": false,
      "t": 447580,
      "d": 20,
      "v": 67
    },
    {
      "midi": 57,
      "hit": false,
      "t": 447600,
      "d": 7180,
      "v": 82
    },
    {
      "midi": 82,
      "hit": false,
      "t": 448180,
      "d": 20,
      "v": 30
    },
    {
      "midi": 54,
      "hit": false,
      "t": 448780,
      "d": 20,
      "v": 108
    },
    {
      "midi": 82,
      "hit": false,
      "t": 448780,
      "d": 20,
      "v": 36
    },
    {
      "midi": 60,
      "hit": false,
      "t": 448800,
      "d": 1180,
      "v": 95
    },
    {
      "midi": 64,
      "hit": false,
      "t": 448800,
      "d": 2320,
      "v": 101
    },
    {
      "midi": 69,
      "hit": false,
      "t": 448800,
      "d": 2380,
      "v": 79
    },
    {
      "midi": 82,
      "hit": false,
      "t": 449380,
      "d": 20,
      "v": 30
    },
    {
      "midi": 82,
      "hit": false,
      "t": 449980,
      "d": 20,
      "v": 67
    },
    {
      "midi": 60,
      "hit": false,
      "t": 450000,
      "d": 2380,
      "v": 84
    },
    {
      "midi": 82,
      "hit": false,
      "t": 450580,
      "d": 20,
      "v": 30
    },
    {
      "midi": 82,
      "hit": false,
      "t": 451180,
      "d": 20,
      "v": 36
    },
    {
      "midi": 65,
      "hit": false,
      "t": 451200,
      "d": 2380,
      "v": 99
    },
    {
      "midi": 69,
      "hit": false,
      "t": 451200,
      "d": 2380,
      "v": 86
    },
    {
      "midi": 72,
      "hit": false,
      "t": 451200,
      "d": 8380,
      "v": 98
    },
    {
      "midi": 82,
      "hit": false,
      "t": 451780,
      "d": 20,
      "v": 30
    },
    {
      "midi": 82,
      "hit": false,
      "t": 452380,
      "d": 20,
      "v": 67
    },
    {
      "midi": 60,
      "hit": false,
      "t": 452400,
      "d": 1180,
      "v": 82
    },
    {
      "midi": 82,
      "hit": false,
      "t": 452980,
      "d": 20,
      "v": 30
    },
    {
      "midi": 82,
      "hit": false,
      "t": 453580,
      "d": 20,
      "v": 36
    },
    {
      "midi": 60,
      "hit": false,
      "t": 453600,
      "d": 2380,
      "v": 92
    },
    {
      "midi": 65,
      "hit": false,
      "t": 453600,
      "d": 2380,
      "v": 95
    },
    {
      "midi": 69,
      "hit": false,
      "t": 453600,
      "d": 4780,
      "v": 78
    },
    {
      "midi": 82,
      "hit": false,
      "t": 454180,
      "d": 20,
      "v": 30
    },
    {
      "midi": 82,
      "hit": false,
      "t": 454780,
      "d": 20,
      "v": 67
    },
    {
      "midi": 57,
      "hit": false,
      "t": 454800,
      "d": 2380,
      "v": 85
    },
    {
      "midi": 82,
      "hit": false,
      "t": 455380,
      "d": 20,
      "v": 30
    },
    {
      "midi": 82,
      "hit": false,
      "t": 455980,
      "d": 20,
      "v": 36
    },
    {
      "midi": 60,
      "hit": false,
      "t": 456000,
      "d": 2380,
      "v": 96
    },
    {
      "midi": 65,
      "hit": false,
      "t": 456000,
      "d": 2380,
      "v": 102
    },
    {
      "midi": 82,
      "hit": false,
      "t": 456580,
      "d": 20,
      "v": 30
    },
    {
      "midi": 82,
      "hit": false,
      "t": 457180,
      "d": 20,
      "v": 67
    },
    {
      "midi": 57,
      "hit": false,
      "t": 457200,
      "d": 1180,
      "v": 84
    },
    {
      "midi": 82,
      "hit": false,
      "t": 457780,
      "d": 20,
      "v": 30
    },
    {
      "midi": 82,
      "hit": false,
      "t": 458380,
      "d": 20,
      "v": 36
    },
    {
      "midi": 65,
      "hit": false,
      "t": 458400,
      "d": 1180,
      "v": 98
    },
    {
      "midi": 69,
      "hit": false,
      "t": 458400,
      "d": 1180,
      "v": 80
    },
    {
      "midi": 60,
      "hit": false,
      "t": 458400,
      "d": 2320,
      "v": 98
    },
    {
      "midi": 54,
      "hit": false,
      "t": 458980,
      "d": 20,
      "v": 42
    },
    {
      "midi": 82,
      "hit": false,
      "t": 458980,
      "d": 20,
      "v": 30
    },
    {
      "midi": 54,
      "hit": false,
      "t": 459580,
      "d": 20,
      "v": 25
    },
    {
      "midi": 82,
      "hit": false,
      "t": 459580,
      "d": 20,
      "v": 67
    },
    {
      "midi": 65,
      "hit": false,
      "t": 459600,
      "d": 1120,
      "v": 88
    },
    {
      "midi": 69,
      "hit": false,
      "t": 459600,
      "d": 1120,
      "v": 81
    },
    {
      "midi": 72,
      "hit": false,
      "t": 459600,
      "d": 1120,
      "v": 95
    },
    {
      "midi": 54,
      "hit": false,
      "t": 460180,
      "d": 20,
      "v": 21
    },
    {
      "midi": 82,
      "hit": false,
      "t": 460180,
      "d": 20,
      "v": 30
    },
    {
      "midi": 82,
      "hit": false,
      "t": 460780,
      "d": 20,
      "v": 36
    },
    {
      "midi": 55,
      "hit": false,
      "t": 460800,
      "d": 1160,
      "v": 95
    },
    {
      "midi": 58,
      "hit": false,
      "t": 460800,
      "d": 2360,
      "v": 91
    },
    {
      "midi": 63,
      "hit": false,
      "t": 460800,
      "d": 2360,
      "v": 102
    },
    {
      "midi": 82,
      "hit": false,
      "t": 461380,
      "d": 20,
      "v": 30
    },
    {
      "midi": 82,
      "hit": false,
      "t": 461980,
      "d": 20,
      "v": 67
    },
    {
      "midi": 55,
      "hit": false,
      "t": 462000,
      "d": 2380,
      "v": 83
    },
    {
      "midi": 82,
      "hit": false,
      "t": 462580,
      "d": 20,
      "v": 30
    },
    {
      "midi": 82,
      "hit": false,
      "t": 463180,
      "d": 20,
      "v": 36
    },
    {
      "midi": 58,
      "hit": false,
      "t": 463200,
      "d": 2380,
      "v": 93
    },
    {
      "midi": 63,
      "hit": false,
      "t": 463200,
      "d": 2380,
      "v": 101
    },
    {
      "midi": 67,
      "hit": false,
      "t": 463200,
      "d": 4780,
      "v": 88
    },
    {
      "midi": 82,
      "hit": false,
      "t": 463780,
      "d": 20,
      "v": 30
    },
    {
      "midi": 82,
      "hit": false,
      "t": 464380,
      "d": 20,
      "v": 67
    },
    {
      "midi": 55,
      "hit": false,
      "t": 464400,
      "d": 1180,
      "v": 85
    },
    {
      "midi": 82,
      "hit": false,
      "t": 464980,
      "d": 20,
      "v": 30
    },
    {
      "midi": 82,
      "hit": false,
      "t": 465580,
      "d": 20,
      "v": 36
    },
    {
      "midi": 55,
      "hit": false,
      "t": 465600,
      "d": 1180,
      "v": 91
    },
    {
      "midi": 58,
      "hit": false,
      "t": 465600,
      "d": 2380,
      "v": 78
    },
    {
      "midi": 63,
      "hit": false,
      "t": 465600,
      "d": 2380,
      "v": 99
    },
    {
      "midi": 82,
      "hit": false,
      "t": 466180,
      "d": 20,
      "v": 30
    },
    {
      "midi": 82,
      "hit": false,
      "t": 466780,
      "d": 20,
      "v": 67
    },
    {
      "midi": 55,
      "hit": false,
      "t": 466800,
      "d": 1180,
      "v": 77
    },
    {
      "midi": 82,
      "hit": false,
      "t": 467380,
      "d": 20,
      "v": 30
    },
    {
      "midi": 54,
      "hit": false,
      "t": 467980,
      "d": 20,
      "v": 108
    },
    {
      "midi": 82,
      "hit": false,
      "t": 467980,
      "d": 20,
      "v": 36
    },
    {
      "midi": 58,
      "hit": false,
      "t": 468000,
      "d": 2220,
      "v": 94
    },
    {
      "midi": 63,
      "hit": false,
      "t": 468000,
      "d": 2220,
      "v": 101
    },
    {
      "midi": 67,
      "hit": false,
      "t": 468000,
      "d": 2220,
      "v": 93
    },
    {
      "midi": 82,
      "hit": false,
      "t": 468580,
      "d": 20,
      "v": 30
    },
    {
      "midi": 82,
      "hit": false,
      "t": 469180,
      "d": 20,
      "v": 67
    },
    {
      "midi": 55,
      "hit": false,
      "t": 469200,
      "d": 1020,
      "v": 83
    },
    {
      "midi": 82,
      "hit": false,
      "t": 469780,
      "d": 20,
      "v": 30
    },
    {
      "midi": 82,
      "hit": false,
      "t": 470380,
      "d": 20,
      "v": 36
    },
    {
      "midi": 69,
      "hit": false,
      "t": 470400,
      "d": 1180,
      "v": 89
    },
    {
      "midi": 60,
      "hit": false,
      "t": 470400,
      "d": 2380,
      "v": 94
    },
    {
      "midi": 65,
      "hit": false,
      "t": 470400,
      "d": 2380,
      "v": 102
    },
    {
      "midi": 82,
      "hit": false,
      "t": 470980,
      "d": 20,
      "v": 30
    },
    {
      "midi": 82,
      "hit": false,
      "t": 471580,
      "d": 20,
      "v": 67
    },
    {
      "midi": 57,
      "hit": false,
      "t": 471600,
      "d": 2380,
      "v": 81
    },
    {
      "midi": 82,
      "hit": false,
      "t": 472180,
      "d": 20,
      "v": 30
    },
    {
      "midi": 82,
      "hit": false,
      "t": 472780,
      "d": 20,
      "v": 36
    },
    {
      "midi": 60,
      "hit": false,
      "t": 472800,
      "d": 2380,
      "v": 88
    },
    {
      "midi": 65,
      "hit": false,
      "t": 472800,
      "d": 2380,
      "v": 99
    },
    {
      "midi": 69,
      "hit": false,
      "t": 472800,
      "d": 2380,
      "v": 94
    },
    {
      "midi": 82,
      "hit": false,
      "t": 473380,
      "d": 20,
      "v": 30
    },
    {
      "midi": 82,
      "hit": false,
      "t": 473980,
      "d": 20,
      "v": 67
    },
    {
      "midi": 57,
      "hit": false,
      "t": 474000,
      "d": 1180,
      "v": 79
    },
    {
      "midi": 82,
      "hit": false,
      "t": 474580,
      "d": 20,
      "v": 30
    },
    {
      "midi": 74,
      "hit": false,
      "t": 479960,
      "d": 20,
      "v": 80
    },
    {
      "midi": 79,
      "hit": false,
      "t": 479960,
      "d": 20,
      "v": 82
    },
    {
      "midi": 83,
      "hit": false,
      "t": 479960,
      "d": 20,
      "v": 86
    },
    {
      "midi": 82,
      "hit": false,
      "t": 480580,
      "d": 20,
      "v": 30
    },
    {
      "midi": 82,
      "hit": false,
      "t": 481180,
      "d": 20,
      "v": 30
    },
    {
      "midi": 59,
      "hit": false,
      "t": 481200,
      "d": 2380,
      "v": 85
    },
    {
      "midi": 82,
      "hit": false,
      "t": 481780,
      "d": 20,
      "v": 30
    },
    {
      "midi": 67,
      "hit": false,
      "t": 482400,
      "d": 2380,
      "v": 102
    },
    {
      "midi": 71,
      "hit": false,
      "t": 482400,
      "d": 2380,
      "v": 89
    },
    {
      "midi": 62,
      "hit": false,
      "t": 482400,
      "d": 3580,
      "v": 97
    },
    {
      "midi": 59,
      "hit": false,
      "t": 483600,
      "d": 1780,
      "v": 82
    },
    {
      "midi": 67,
      "hit": false,
      "t": 484800,
      "d": 1780,
      "v": 103
    },
    {
      "midi": 71,
      "hit": false,
      "t": 484800,
      "d": 2380,
      "v": 92
    },
    {
      "midi": 74,
      "hit": false,
      "t": 484800,
      "d": 3580,
      "v": 97
    },
    {
      "midi": 45,
      "hit": false,
      "t": 485400,
      "d": 300,
      "v": 84
    },
    {
      "midi": 59,
      "hit": false,
      "t": 485400,
      "d": 4180,
      "v": 79
    },
    {
      "midi": 62,
      "hit": false,
      "t": 486000,
      "d": 1780,
      "v": 82
    },
    {
      "midi": 67,
      "hit": false,
      "t": 486600,
      "d": 1780,
      "v": 84
    },
    {
      "midi": 71,
      "hit": false,
      "t": 487200,
      "d": 1780,
      "v": 89
    },
    {
      "midi": 62,
      "hit": false,
      "t": 487800,
      "d": 1780,
      "v": 84
    },
    {
      "midi": 67,
      "hit": false,
      "t": 488400,
      "d": 1180,
      "v": 89
    },
    {
      "midi": 71,
      "hit": false,
      "t": 489000,
      "d": 580,
      "v": 93
    },
    {
      "midi": 82,
      "hit": false,
      "t": 489580,
      "d": 20,
      "v": 36
    },
    {
      "midi": 58,
      "hit": false,
      "t": 489580,
      "d": 1160,
      "v": 95
    },
    {
      "midi": 62,
      "hit": false,
      "t": 489580,
      "d": 2360,
      "v": 91
    },
    {
      "midi": 65,
      "hit": false,
      "t": 489580,
      "d": 2360,
      "v": 102
    },
    {
      "midi": 82,
      "hit": false,
      "t": 490180,
      "d": 20,
      "v": 30
    },
    {
      "midi": 82,
      "hit": false,
      "t": 490780,
      "d": 20,
      "v": 67
    },
    {
      "midi": 58,
      "hit": false,
      "t": 490780,
      "d": 2380,
      "v": 83
    },
    {
      "midi": 82,
      "hit": false,
      "t": 491380,
      "d": 20,
      "v": 30
    },
    {
      "midi": 82,
      "hit": false,
      "t": 491980,
      "d": 20,
      "v": 36
    },
    {
      "midi": 62,
      "hit": false,
      "t": 491980,
      "d": 2380,
      "v": 93
    },
    {
      "midi": 65,
      "hit": false,
      "t": 491980,
      "d": 2380,
      "v": 101
    },
    {
      "midi": 70,
      "hit": false,
      "t": 491980,
      "d": 2400,
      "v": 88
    },
    {
      "midi": 82,
      "hit": false,
      "t": 492580,
      "d": 20,
      "v": 30
    },
    {
      "midi": 82,
      "hit": false,
      "t": 493180,
      "d": 20,
      "v": 67
    },
    {
      "midi": 58,
      "hit": false,
      "t": 493180,
      "d": 1180,
      "v": 85
    },
    {
      "midi": 82,
      "hit": false,
      "t": 493780,
      "d": 20,
      "v": 30
    },
    {
      "midi": 82,
      "hit": false,
      "t": 494380,
      "d": 20,
      "v": 36
    },
    {
      "midi": 60,
      "hit": false,
      "t": 494380,
      "d": 1180,
      "v": 91
    },
    {
      "midi": 64,
      "hit": false,
      "t": 494380,
      "d": 2380,
      "v": 78
    },
    {
      "midi": 67,
      "hit": false,
      "t": 494380,
      "d": 2380,
      "v": 99
    },
    {
      "midi": 82,
      "hit": false,
      "t": 494980,
      "d": 20,
      "v": 30
    },
    {
      "midi": 82,
      "hit": false,
      "t": 495580,
      "d": 20,
      "v": 67
    },
    {
      "midi": 60,
      "hit": false,
      "t": 495580,
      "d": 1180,
      "v": 77
    },
    {
      "midi": 82,
      "hit": false,
      "t": 496180,
      "d": 20,
      "v": 30
    },
    {
      "midi": 54,
      "hit": false,
      "t": 496780,
      "d": 20,
      "v": 108
    },
    {
      "midi": 82,
      "hit": false,
      "t": 496780,
      "d": 20,
      "v": 36
    },
    {
      "midi": 64,
      "hit": false,
      "t": 496780,
      "d": 2380,
      "v": 94
    },
    {
      "midi": 67,
      "hit": false,
      "t": 496780,
      "d": 2380,
      "v": 101
    },
    {
      "midi": 72,
      "hit": false,
      "t": 496780,
      "d": 2380,
      "v": 93
    },
    {
      "midi": 82,
      "hit": false,
      "t": 497380,
      "d": 20,
      "v": 30
    },
    {
      "midi": 82,
      "hit": false,
      "t": 497980,
      "d": 20,
      "v": 67
    },
    {
      "midi": 60,
      "hit": false,
      "t": 497980,
      "d": 1180,
      "v": 83
    },
    {
      "midi": 82,
      "hit": false,
      "t": 498580,
      "d": 20,
      "v": 30
    },
    {
      "midi": 82,
      "hit": false,
      "t": 499180,
      "d": 20,
      "v": 36
    },
    {
      "midi": 59,
      "hit": false,
      "t": 499200,
      "d": 2380,
      "v": 92
    },
    {
      "midi": 62,
      "hit": false,
      "t": 499200,
      "d": 2380,
      "v": 100
    },
    {
      "midi": 67,
      "hit": false,
      "t": 499200,
      "d": 2380,
      "v": 89
    },
    {
      "midi": 82,
      "hit": false,
      "t": 499780,
      "d": 20,
      "v": 30
    },
    {
      "midi": 82,
      "hit": false,
      "t": 500380,
      "d": 20,
      "v": 67
    },
    {
      "midi": 55,
      "hit": false,
      "t": 500380,
      "d": 3580,
      "v": 88
    },
    {
      "midi": 82,
      "hit": false,
      "t": 500980,
      "d": 20,
      "v": 30
    },
    {
      "midi": 82,
      "hit": false,
      "t": 501580,
      "d": 20,
      "v": 36
    },
    {
      "midi": 59,
      "hit": false,
      "t": 501580,
      "d": 1180,
      "v": 94
    },
    {
      "midi": 62,
      "hit": false,
      "t": 501580,
      "d": 2380,
      "v": 101
    },
    {
      "midi": 67,
      "hit": false,
      "t": 501580,
      "d": 2380,
      "v": 92
    },
    {
      "midi": 82,
      "hit": false,
      "t": 502180,
      "d": 20,
      "v": 30
    },
    {
      "midi": 82,
      "hit": false,
      "t": 502780,
      "d": 20,
      "v": 30
    },
    {
      "midi": 59,
      "hit": false,
      "t": 502780,
      "d": 1180,
      "v": 87
    },
    {
      "midi": 82,
      "hit": false,
      "t": 503380,
      "d": 20,
      "v": 30
    },
    {
      "midi": 82,
      "hit": false,
      "t": 503980,
      "d": 20,
      "v": 36
    },
    {
      "midi": 62,
      "hit": false,
      "t": 503980,
      "d": 2380,
      "v": 95
    },
    {
      "midi": 67,
      "hit": false,
      "t": 503980,
      "d": 2380,
      "v": 100
    },
    {
      "midi": 71,
      "hit": false,
      "t": 503980,
      "d": 2380,
      "v": 98
    },
    {
      "midi": 82,
      "hit": false,
      "t": 504580,
      "d": 20,
      "v": 30
    },
    {
      "midi": 82,
      "hit": false,
      "t": 505180,
      "d": 20,
      "v": 67
    },
    {
      "midi": 59,
      "hit": false,
      "t": 505180,
      "d": 1180,
      "v": 82
    },
    {
      "midi": 82,
      "hit": false,
      "t": 505780,
      "d": 20,
      "v": 30
    },
    {
      "midi": 54,
      "hit": false,
      "t": 506380,
      "d": 20,
      "v": 108
    },
    {
      "midi": 82,
      "hit": false,
      "t": 506380,
      "d": 20,
      "v": 36
    },
    {
      "midi": 59,
      "hit": false,
      "t": 506380,
      "d": 2360,
      "v": 89
    },
    {
      "midi": 62,
      "hit": false,
      "t": 506380,
      "d": 2360,
      "v": 92
    },
    {
      "midi": 67,
      "hit": false,
      "t": 506380,
      "d": 2360,
      "v": 94
    },
    {
      "midi": 82,
      "hit": false,
      "t": 506980,
      "d": 20,
      "v": 30
    },
    {
      "midi": 82,
      "hit": false,
      "t": 507580,
      "d": 20,
      "v": 67
    },
    {
      "midi": 55,
      "hit": false,
      "t": 507580,
      "d": 1160,
      "v": 84
    },
    {
      "midi": 82,
      "hit": false,
      "t": 508180,
      "d": 20,
      "v": 30
    },
    {
      "midi": 82,
      "hit": false,
      "t": 508780,
      "d": 20,
      "v": 36
    },
    {
      "midi": 62,
      "hit": false,
      "t": 508780,
      "d": 2360,
      "v": 97
    },
    {
      "midi": 65,
      "hit": false,
      "t": 508780,
      "d": 2360,
      "v": 100
    },
    {
      "midi": 70,
      "hit": false,
      "t": 508780,
      "d": 2360,
      "v": 90
    },
    {
      "midi": 82,
      "hit": false,
      "t": 509380,
      "d": 20,
      "v": 30
    },
    {
      "midi": 82,
      "hit": false,
      "t": 509980,
      "d": 20,
      "v": 67
    },
    {
      "midi": 58,
      "hit": false,
      "t": 509980,
      "d": 1180,
      "v": 88
    },
    {
      "midi": 82,
      "hit": false,
      "t": 510580,
      "d": 20,
      "v": 30
    },
    {
      "midi": 54,
      "hit": false,
      "t": 511180,
      "d": 20,
      "v": 111
    },
    {
      "midi": 82,
      "hit": false,
      "t": 511180,
      "d": 20,
      "v": 36
    },
    {
      "midi": 65,
      "hit": false,
      "t": 511180,
      "d": 2380,
      "v": 95
    },
    {
      "midi": 70,
      "hit": false,
      "t": 511180,
      "d": 2380,
      "v": 94
    },
    {
      "midi": 74,
      "hit": false,
      "t": 511180,
      "d": 2380,
      "v": 100
    },
    {
      "midi": 82,
      "hit": false,
      "t": 511780,
      "d": 20,
      "v": 30
    },
    {
      "midi": 82,
      "hit": false,
      "t": 512380,
      "d": 20,
      "v": 67
    },
    {
      "midi": 62,
      "hit": false,
      "t": 512380,
      "d": 1180,
      "v": 88
    },
    {
      "midi": 82,
      "hit": false,
      "t": 512980,
      "d": 20,
      "v": 30
    },
    {
      "midi": 82,
      "hit": false,
      "t": 513580,
      "d": 20,
      "v": 36
    },
    {
      "midi": 69,
      "hit": false,
      "t": 513580,
      "d": 1780,
      "v": 93
    },
    {
      "midi": 72,
      "hit": false,
      "t": 513580,
      "d": 1780,
      "v": 102
    },
    {
      "midi": 65,
      "hit": false,
      "t": 513580,
      "d": 2380,
      "v": 95
    },
    {
      "midi": 82,
      "hit": false,
      "t": 514180,
      "d": 20,
      "v": 30
    },
    {
      "midi": 82,
      "hit": false,
      "t": 514780,
      "d": 20,
      "v": 67
    },
    {
      "midi": 82,
      "hit": false,
      "t": 515380,
      "d": 20,
      "v": 30
    },
    {
      "midi": 69,
      "hit": false,
      "t": 515380,
      "d": 580,
      "v": 73
    },
    {
      "midi": 72,
      "hit": false,
      "t": 515380,
      "d": 580,
      "v": 80
    },
    {
      "midi": 77,
      "hit": false,
      "t": 515380,
      "d": 580,
      "v": 86
    },
    {
      "midi": 82,
      "hit": false,
      "t": 515980,
      "d": 20,
      "v": 36
    },
    {
      "midi": 69,
      "hit": false,
      "t": 515980,
      "d": 1180,
      "v": 90
    },
    {
      "midi": 72,
      "hit": false,
      "t": 515980,
      "d": 1180,
      "v": 98
    },
    {
      "midi": 77,
      "hit": false,
      "t": 516000,
      "d": 1180,
      "v": 102
    },
    {
      "midi": 82,
      "hit": false,
      "t": 516580,
      "d": 20,
      "v": 30
    },
    {
      "midi": 67,
      "hit": false,
      "t": 517180,
      "d": 2400,
      "v": 93
    },
    {
      "midi": 79,
      "hit": false,
      "t": 517180,
      "d": 2400,
      "v": 98
    },
    {
      "midi": 72,
      "hit": false,
      "t": 517200,
      "d": 2400,
      "v": 93
    },
    {
      "midi": 79,
      "hit": false,
      "t": 519600,
      "d": 1180,
      "v": 98
    },
    {
      "midi": 55,
      "hit": false,
      "t": 519600,
      "d": 1200,
      "v": 95
    },
    {
      "midi": 60,
      "hit": false,
      "t": 519600,
      "d": 1200,
      "v": 91
    },
    {
      "midi": 64,
      "hit": false,
      "t": 519600,
      "d": 1200,
      "v": 102
    },
    {
      "midi": 67,
      "hit": false,
      "t": 519600,
      "d": 1200,
      "v": 98
    },
    {
      "midi": 72,
      "hit": false,
      "t": 519600,
      "d": 1200,
      "v": 98
    },
    {
      "midi": 55,
      "hit": false,
      "t": 520800,
      "d": 600,
      "v": 83
    },
    {
      "midi": 60,
      "hit": false,
      "t": 520800,
      "d": 600,
      "v": 93
    },
    {
      "midi": 64,
      "hit": false,
      "t": 520800,
      "d": 600,
      "v": 101
    },
    {
      "midi": 67,
      "hit": false,
      "t": 520800,
      "d": 600,
      "v": 88
    },
    {
      "midi": 72,
      "hit": false,
      "t": 520800,
      "d": 600,
      "v": 98
    },
    {
      "midi": 79,
      "hit": false,
      "t": 520800,
      "d": 600,
      "v": 98
    },
    {
      "midi": 54,
      "hit": false,
      "t": 525580,
      "d": 20,
      "v": 108
    },
    {
      "midi": 57,
      "hit": false,
      "t": 525580,
      "d": 2320,
      "v": 94
    },
    {
      "midi": 60,
      "hit": false,
      "t": 525580,
      "d": 2320,
      "v": 101
    },
    {
      "midi": 65,
      "hit": false,
      "t": 525580,
      "d": 2380,
      "v": 93
    },
    {
      "midi": 55,
      "hit": false,
      "t": 526780,
      "d": 1180,
      "v": 83
    },
    {
      "midi": 82,
      "hit": false,
      "t": 527380,
      "d": 20,
      "v": 30
    },
    {
      "midi": 82,
      "hit": false,
      "t": 527980,
      "d": 20,
      "v": 36
    },
    {
      "midi": 59,
      "hit": false,
      "t": 527980,
      "d": 2380,
      "v": 94
    },
    {
      "midi": 62,
      "hit": false,
      "t": 527980,
      "d": 2380,
      "v": 102
    },
    {
      "midi": 67,
      "hit": false,
      "t": 528000,
      "d": 1180,
      "v": 89
    },
    {
      "midi": 82,
      "hit": false,
      "t": 528580,
      "d": 20,
      "v": 30
    },
    {
      "midi": 82,
      "hit": false,
      "t": 529180,
      "d": 20,
      "v": 67
    },
    {
      "midi": 55,
      "hit": false,
      "t": 529180,
      "d": 2380,
      "v": 81
    },
    {
      "midi": 82,
      "hit": false,
      "t": 529780,
      "d": 20,
      "v": 30
    },
    {
      "midi": 82,
      "hit": false,
      "t": 530380,
      "d": 20,
      "v": 36
    },
    {
      "midi": 59,
      "hit": false,
      "t": 530380,
      "d": 2380,
      "v": 88
    },
    {
      "midi": 62,
      "hit": false,
      "t": 530380,
      "d": 2380,
      "v": 99
    },
    {
      "midi": 67,
      "hit": false,
      "t": 530380,
      "d": 4780,
      "v": 94
    },
    {
      "midi": 82,
      "hit": false,
      "t": 530980,
      "d": 20,
      "v": 30
    },
    {
      "midi": 82,
      "hit": false,
      "t": 531580,
      "d": 20,
      "v": 67
    },
    {
      "midi": 55,
      "hit": false,
      "t": 531580,
      "d": 1180,
      "v": 79
    },
    {
      "midi": 82,
      "hit": false,
      "t": 532180,
      "d": 20,
      "v": 30
    },
    {
      "midi": 82,
      "hit": false,
      "t": 532780,
      "d": 20,
      "v": 36
    },
    {
      "midi": 55,
      "hit": false,
      "t": 532780,
      "d": 2380,
      "v": 95
    },
    {
      "midi": 59,
      "hit": false,
      "t": 532780,
      "d": 2380,
      "v": 90
    },
    {
      "midi": 62,
      "hit": false,
      "t": 532780,
      "d": 2380,
      "v": 101
    },
    {
      "midi": 82,
      "hit": false,
      "t": 533380,
      "d": 20,
      "v": 30
    },
    {
      "midi": 82,
      "hit": false,
      "t": 533980,
      "d": 20,
      "v": 67
    },
    {
      "midi": 50,
      "hit": false,
      "t": 533980,
      "d": 1180,
      "v": 89
    },
    {
      "midi": 82,
      "hit": false,
      "t": 534580,
      "d": 20,
      "v": 30
    },
    {
      "midi": 82,
      "hit": false,
      "t": 535180,
      "d": 20,
      "v": 36
    },
    {
      "midi": 59,
      "hit": false,
      "t": 535180,
      "d": 2380,
      "v": 94
    },
    {
      "midi": 62,
      "hit": false,
      "t": 535180,
      "d": 2380,
      "v": 102
    },
    {
      "midi": 67,
      "hit": false,
      "t": 535180,
      "d": 2380,
      "v": 91
    },
    {
      "midi": 82,
      "hit": false,
      "t": 535780,
      "d": 20,
      "v": 30
    },
    {
      "midi": 82,
      "hit": false,
      "t": 536380,
      "d": 20,
      "v": 67
    },
    {
      "midi": 55,
      "hit": false,
      "t": 536380,
      "d": 1180,
      "v": 89
    },
    {
      "midi": 82,
      "hit": false,
      "t": 536980,
      "d": 20,
      "v": 30
    },
    {
      "midi": 82,
      "hit": false,
      "t": 537580,
      "d": 20,
      "v": 36
    },
    {
      "midi": 60,
      "hit": false,
      "t": 537600,
      "d": 2360,
      "v": 92
    },
    {
      "midi": 64,
      "hit": false,
      "t": 537600,
      "d": 2360,
      "v": 100
    },
    {
      "midi": 69,
      "hit": false,
      "t": 537600,
      "d": 2360,
      "v": 89
    },
    {
      "midi": 82,
      "hit": false,
      "t": 538180,
      "d": 20,
      "v": 30
    },
    {
      "midi": 82,
      "hit": false,
      "t": 538780,
      "d": 20,
      "v": 67
    },
    {
      "midi": 57,
      "hit": false,
      "t": 538780,
      "d": 3580,
      "v": 88
    },
    {
      "midi": 82,
      "hit": false,
      "t": 539380,
      "d": 20,
      "v": 30
    },
    {
      "midi": 82,
      "hit": false,
      "t": 539980,
      "d": 20,
      "v": 36
    },
    {
      "midi": 60,
      "hit": false,
      "t": 539980,
      "d": 1180,
      "v": 94
    },
    {
      "midi": 64,
      "hit": false,
      "t": 539980,
      "d": 2380,
      "v": 101
    },
    {
      "midi": 69,
      "hit": false,
      "t": 539980,
      "d": 2380,
      "v": 92
    },
    {
      "midi": 82,
      "hit": false,
      "t": 540580,
      "d": 20,
      "v": 30
    },
    {
      "midi": 82,
      "hit": false,
      "t": 541180,
      "d": 20,
      "v": 30
    },
    {
      "midi": 60,
      "hit": false,
      "t": 541180,
      "d": 1180,
      "v": 87
    },
    {
      "midi": 82,
      "hit": false,
      "t": 541780,
      "d": 20,
      "v": 30
    },
    {
      "midi": 82,
      "hit": false,
      "t": 542380,
      "d": 20,
      "v": 36
    },
    {
      "midi": 64,
      "hit": false,
      "t": 542380,
      "d": 2380,
      "v": 95
    },
    {
      "midi": 69,
      "hit": false,
      "t": 542380,
      "d": 2380,
      "v": 100
    },
    {
      "midi": 72,
      "hit": false,
      "t": 542380,
      "d": 2380,
      "v": 98
    },
    {
      "midi": 82,
      "hit": false,
      "t": 542980,
      "d": 20,
      "v": 30
    },
    {
      "midi": 82,
      "hit": false,
      "t": 543580,
      "d": 20,
      "v": 67
    },
    {
      "midi": 60,
      "hit": false,
      "t": 543580,
      "d": 1180,
      "v": 82
    },
    {
      "midi": 82,
      "hit": false,
      "t": 544180,
      "d": 20,
      "v": 30
    },
    {
      "midi": 54,
      "hit": false,
      "t": 544780,
      "d": 20,
      "v": 108
    },
    {
      "midi": 82,
      "hit": false,
      "t": 544780,
      "d": 20,
      "v": 36
    },
    {
      "midi": 60,
      "hit": false,
      "t": 544780,
      "d": 2380,
      "v": 89
    },
    {
      "midi": 64,
      "hit": false,
      "t": 544780,
      "d": 2380,
      "v": 92
    },
    {
      "midi": 69,
      "hit": false,
      "t": 544780,
      "d": 2380,
      "v": 94
    },
    {
      "midi": 82,
      "hit": false,
      "t": 545380,
      "d": 20,
      "v": 30
    },
    {
      "midi": 82,
      "hit": false,
      "t": 545980,
      "d": 20,
      "v": 67
    },
    {
      "midi": 57,
      "hit": false,
      "t": 545980,
      "d": 2380,
      "v": 84
    },
    {
      "midi": 82,
      "hit": false,
      "t": 546580,
      "d": 20,
      "v": 30
    },
    {
      "midi": 82,
      "hit": false,
      "t": 547180,
      "d": 20,
      "v": 36
    },
    {
      "midi": 60,
      "hit": false,
      "t": 547180,
      "d": 2380,
      "v": 96
    },
    {
      "midi": 69,
      "hit": false,
      "t": 547180,
      "d": 2380,
      "v": 87
    },
    {
      "midi": 65,
      "hit": false,
      "t": 547220,
      "d": 2320,
      "v": 100
    },
    {
      "midi": 82,
      "hit": false,
      "t": 547780,
      "d": 20,
      "v": 30
    },
    {
      "midi": 82,
      "hit": false,
      "t": 548380,
      "d": 20,
      "v": 67
    },
    {
      "midi": 57,
      "hit": false,
      "t": 548380,
      "d": 2380,
      "v": 83
    },
    {
      "midi": 82,
      "hit": false,
      "t": 548980,
      "d": 20,
      "v": 30
    },
    {
      "midi": 82,
      "hit": false,
      "t": 549580,
      "d": 20,
      "v": 36
    },
    {
      "midi": 60,
      "hit": false,
      "t": 549580,
      "d": 2380,
      "v": 94
    },
    {
      "midi": 65,
      "hit": false,
      "t": 549580,
      "d": 2380,
      "v": 96
    },
    {
      "midi": 69,
      "hit": false,
      "t": 549580,
      "d": 2380,
      "v": 79
    },
    {
      "midi": 82,
      "hit": false,
      "t": 550180,
      "d": 20,
      "v": 30
    },
    {
      "midi": 82,
      "hit": false,
      "t": 550780,
      "d": 20,
      "v": 67
    },
    {
      "midi": 57,
      "hit": false,
      "t": 550780,
      "d": 3580,
      "v": 86
    },
    {
      "midi": 82,
      "hit": false,
      "t": 551380,
      "d": 20,
      "v": 30
    },
    {
      "midi": 82,
      "hit": false,
      "t": 551980,
      "d": 20,
      "v": 36
    },
    {
      "midi": 60,
      "hit": false,
      "t": 551980,
      "d": 1180,
      "v": 94
    },
    {
      "midi": 65,
      "hit": false,
      "t": 551980,
      "d": 2380,
      "v": 96
    },
    {
      "midi": 69,
      "hit": false,
      "t": 551980,
      "d": 2380,
      "v": 81
    },
    {
      "midi": 82,
      "hit": false,
      "t": 552580,
      "d": 20,
      "v": 30
    },
    {
      "midi": 82,
      "hit": false,
      "t": 553180,
      "d": 20,
      "v": 67
    },
    {
      "midi": 60,
      "hit": false,
      "t": 553180,
      "d": 1180,
      "v": 80
    },
    {
      "midi": 82,
      "hit": false,
      "t": 553780,
      "d": 20,
      "v": 30
    },
    {
      "midi": 82,
      "hit": false,
      "t": 554380,
      "d": 20,
      "v": 36
    },
    {
      "midi": 65,
      "hit": false,
      "t": 554380,
      "d": 2380,
      "v": 95
    },
    {
      "midi": 69,
      "hit": false,
      "t": 554380,
      "d": 2380,
      "v": 84
    },
    {
      "midi": 72,
      "hit": false,
      "t": 554380,
      "d": 7180,
      "v": 99
    },
    {
      "midi": 54,
      "hit": false,
      "t": 554980,
      "d": 20,
      "v": 28
    },
    {
      "midi": 82,
      "hit": false,
      "t": 554980,
      "d": 20,
      "v": 30
    },
    {
      "midi": 54,
      "hit": false,
      "t": 555580,
      "d": 20,
      "v": 18
    },
    {
      "midi": 82,
      "hit": false,
      "t": 555580,
      "d": 20,
      "v": 67
    },
    {
      "midi": 60,
      "hit": false,
      "t": 555580,
      "d": 1180,
      "v": 83
    },
    {
      "midi": 54,
      "hit": false,
      "t": 556180,
      "d": 20,
      "v": 11
    },
    {
      "midi": 82,
      "hit": false,
      "t": 556180,
      "d": 20,
      "v": 30
    },
    {
      "midi": 82,
      "hit": false,
      "t": 556780,
      "d": 20,
      "v": 36
    },
    {
      "midi": 60,
      "hit": false,
      "t": 556780,
      "d": 2380,
      "v": 94
    },
    {
      "midi": 64,
      "hit": false,
      "t": 556880,
      "d": 2280,
      "v": 97
    },
    {
      "midi": 67,
      "hit": false,
      "t": 556880,
      "d": 2280,
      "v": 82
    },
    {
      "midi": 82,
      "hit": false,
      "t": 557380,
      "d": 20,
      "v": 30
    },
    {
      "midi": 82,
      "hit": false,
      "t": 557980,
      "d": 20,
      "v": 67
    },
    {
      "midi": 55,
      "hit": false,
      "t": 557980,
      "d": 2380,
      "v": 84
    },
    {
      "midi": 82,
      "hit": false,
      "t": 558580,
      "d": 20,
      "v": 30
    },
    {
      "midi": 82,
      "hit": false,
      "t": 559180,
      "d": 20,
      "v": 36
    },
    {
      "midi": 67,
      "hit": false,
      "t": 559180,
      "d": 1180,
      "v": 79
    },
    {
      "midi": 60,
      "hit": false,
      "t": 559180,
      "d": 2380,
      "v": 97
    },
    {
      "midi": 64,
      "hit": false,
      "t": 559180,
      "d": 2380,
      "v": 92
    },
    {
      "midi": 82,
      "hit": false,
      "t": 559780,
      "d": 20,
      "v": 30
    },
    {
      "midi": 82,
      "hit": false,
      "t": 560380,
      "d": 20,
      "v": 30
    },
    {
      "midi": 55,
      "hit": false,
      "t": 560380,
      "d": 7180,
      "v": 82
    },
    {
      "midi": 82,
      "hit": false,
      "t": 560980,
      "d": 20,
      "v": 30
    },
    {
      "midi": 82,
      "hit": false,
      "t": 561580,
      "d": 20,
      "v": 36
    },
    {
      "midi": 60,
      "hit": false,
      "t": 561580,
      "d": 1180,
      "v": 87
    },
    {
      "midi": 64,
      "hit": false,
      "t": 561580,
      "d": 2380,
      "v": 87
    },
    {
      "midi": 67,
      "hit": false,
      "t": 561580,
      "d": 2380,
      "v": 73
    },
    {
      "midi": 82,
      "hit": false,
      "t": 562180,
      "d": 20,
      "v": 30
    },
    {
      "midi": 82,
      "hit": false,
      "t": 562780,
      "d": 20,
      "v": 67
    },
    {
      "midi": 60,
      "hit": false,
      "t": 562780,
      "d": 1180,
      "v": 82
    },
    {
      "midi": 82,
      "hit": false,
      "t": 563380,
      "d": 20,
      "v": 30
    },
    {
      "midi": 54,
      "hit": false,
      "t": 563980,
      "d": 20,
      "v": 108
    },
    {
      "midi": 82,
      "hit": false,
      "t": 563980,
      "d": 20,
      "v": 36
    },
    {
      "midi": 64,
      "hit": false,
      "t": 563980,
      "d": 2380,
      "v": 97
    },
    {
      "midi": 67,
      "hit": false,
      "t": 563980,
      "d": 2380,
      "v": 82
    },
    {
      "midi": 72,
      "hit": false,
      "t": 563980,
      "d": 2400,
      "v": 99
    },
    {
      "midi": 82,
      "hit": false,
      "t": 564580,
      "d": 20,
      "v": 30
    },
    {
      "midi": 82,
      "hit": false,
      "t": 565180,
      "d": 20,
      "v": 67
    },
    {
      "midi": 60,
      "hit": false,
      "t": 565180,
      "d": 1180,
      "v": 82
    },
    {
      "midi": 82,
      "hit": false,
      "t": 565780,
      "d": 20,
      "v": 30
    },
    {
      "midi": 82,
      "hit": false,
      "t": 566380,
      "d": 20,
      "v": 36
    },
    {
      "midi": 59,
      "hit": false,
      "t": 566380,
      "d": 2380,
      "v": 91
    },
    {
      "midi": 62,
      "hit": false,
      "t": 566380,
      "d": 2380,
      "v": 95
    },
    {
      "midi": 67,
      "hit": false,
      "t": 566380,
      "d": 2380,
      "v": 78
    },
    {
      "midi": 71,
      "hit": false,
      "t": 566380,
      "d": 7180,
      "v": 99
    },
    {
      "midi": 82,
      "hit": false,
      "t": 566980,
      "d": 20,
      "v": 30
    },
    {
      "midi": 82,
      "hit": false,
      "t": 567580,
      "d": 20,
      "v": 67
    },
    {
      "midi": 55,
      "hit": false,
      "t": 567580,
      "d": 1180,
      "v": 80
    },
    {
      "midi": 82,
      "hit": false,
      "t": 568180,
      "d": 20,
      "v": 30
    },
    {
      "midi": 82,
      "hit": false,
      "t": 568780,
      "d": 20,
      "v": 36
    },
    {
      "midi": 67,
      "hit": false,
      "t": 568780,
      "d": 1180,
      "v": 81
    },
    {
      "midi": 59,
      "hit": false,
      "t": 568780,
      "d": 2380,
      "v": 92
    },
    {
      "midi": 62,
      "hit": false,
      "t": 568780,
      "d": 2380,
      "v": 96
    },
    {
      "midi": 82,
      "hit": false,
      "t": 569380,
      "d": 20,
      "v": 30
    },
    {
      "midi": 82,
      "hit": false,
      "t": 569980,
      "d": 20,
      "v": 67
    },
    {
      "midi": 55,
      "hit": false,
      "t": 569980,
      "d": 1180,
      "v": 82
    },
    {
      "midi": 82,
      "hit": false,
      "t": 570580,
      "d": 20,
      "v": 30
    },
    {
      "midi": 82,
      "hit": false,
      "t": 571180,
      "d": 20,
      "v": 36
    },
    {
      "midi": 55,
      "hit": false,
      "t": 571180,
      "d": 2380,
      "v": 93
    },
    {
      "midi": 59,
      "hit": false,
      "t": 571180,
      "d": 2380,
      "v": 97
    },
    {
      "midi": 62,
      "hit": false,
      "t": 571180,
      "d": 2380,
      "v": 96
    },
    {
      "midi": 82,
      "hit": false,
      "t": 571780,
      "d": 20,
      "v": 30
    },
    {
      "midi": 82,
      "hit": false,
      "t": 572380,
      "d": 20,
      "v": 67
    },
    {
      "midi": 50,
      "hit": false,
      "t": 572380,
      "d": 1180,
      "v": 84
    },
    {
      "midi": 82,
      "hit": false,
      "t": 572980,
      "d": 20,
      "v": 30
    },
    {
      "midi": 82,
      "hit": false,
      "t": 573580,
      "d": 20,
      "v": 36
    },
    {
      "midi": 55,
      "hit": false,
      "t": 573580,
      "d": 2360,
      "v": 97
    },
    {
      "midi": 59,
      "hit": false,
      "t": 573580,
      "d": 2360,
      "v": 99
    },
    {
      "midi": 62,
      "hit": false,
      "t": 573580,
      "d": 2360,
      "v": 99
    },
    {
      "midi": 82,
      "hit": false,
      "t": 574180,
      "d": 20,
      "v": 30
    },
    {
      "midi": 82,
      "hit": false,
      "t": 574780,
      "d": 20,
      "v": 67
    },
    {
      "midi": 50,
      "hit": false,
      "t": 574780,
      "d": 1160,
      "v": 84
    },
    {
      "midi": 82,
      "hit": false,
      "t": 575380,
      "d": 20,
      "v": 30
    },
    {
      "midi": 82,
      "hit": false,
      "t": 575980,
      "d": 20,
      "v": 36
    },
    {
      "midi": 60,
      "hit": false,
      "t": 575980,
      "d": 2380,
      "v": 95
    },
    {
      "midi": 64,
      "hit": false,
      "t": 575980,
      "d": 2380,
      "v": 94
    },
    {
      "midi": 69,
      "hit": false,
      "t": 575980,
      "d": 2380,
      "v": 80
    },
    {
      "midi": 57,
      "hit": false,
      "t": 576000,
      "d": 1200,
      "v": 97
    },
    {
      "midi": 82,
      "hit": false,
      "t": 576580,
      "d": 20,
      "v": 30
    },
    {
      "midi": 82,
      "hit": false,
      "t": 577180,
      "d": 20,
      "v": 67
    },
    {
      "midi": 57,
      "hit": false,
      "t": 577200,
      "d": 2380,
      "v": 80
    },
    {
      "midi": 82,
      "hit": false,
      "t": 577780,
      "d": 20,
      "v": 30
    },
    {
      "midi": 82,
      "hit": false,
      "t": 578380,
      "d": 20,
      "v": 36
    },
    {
      "midi": 60,
      "hit": false,
      "t": 578380,
      "d": 2380,
      "v": 96
    },
    {
      "midi": 64,
      "hit": false,
      "t": 578380,
      "d": 2380,
      "v": 99
    },
    {
      "midi": 69,
      "hit": false,
      "t": 578380,
      "d": 4780,
      "v": 80
    },
    {
      "midi": 82,
      "hit": false,
      "t": 578980,
      "d": 20,
      "v": 30
    },
    {
      "midi": 82,
      "hit": false,
      "t": 579580,
      "d": 20,
      "v": 67
    },
    {
      "midi": 57,
      "hit": false,
      "t": 579580,
      "d": 1180,
      "v": 85
    },
    {
      "midi": 82,
      "hit": false,
      "t": 580180,
      "d": 20,
      "v": 30
    },
    {
      "midi": 82,
      "hit": false,
      "t": 580780,
      "d": 20,
      "v": 36
    },
    {
      "midi": 57,
      "hit": false,
      "t": 580780,
      "d": 1180,
      "v": 93
    },
    {
      "midi": 60,
      "hit": false,
      "t": 580780,
      "d": 2380,
      "v": 97
    },
    {
      "midi": 64,
      "hit": false,
      "t": 580780,
      "d": 2380,
      "v": 101
    },
    {
      "midi": 82,
      "hit": false,
      "t": 581380,
      "d": 20,
      "v": 30
    },
    {
      "midi": 82,
      "hit": false,
      "t": 581980,
      "d": 20,
      "v": 67
    },
    {
      "midi": 57,
      "hit": false,
      "t": 581980,
      "d": 7180,
      "v": 82
    },
    {
      "midi": 82,
      "hit": false,
      "t": 582580,
      "d": 20,
      "v": 30
    },
    {
      "midi": 54,
      "hit": false,
      "t": 583180,
      "d": 20,
      "v": 108
    },
    {
      "midi": 82,
      "hit": false,
      "t": 583180,
      "d": 20,
      "v": 36
    },
    {
      "midi": 60,
      "hit": false,
      "t": 583180,
      "d": 1180,
      "v": 95
    },
    {
      "midi": 64,
      "hit": false,
      "t": 583180,
      "d": 2380,
      "v": 101
    },
    {
      "midi": 69,
      "hit": false,
      "t": 583180,
      "d": 2380,
      "v": 79
    },
    {
      "midi": 82,
      "hit": false,
      "t": 583780,
      "d": 20,
      "v": 30
    },
    {
      "midi": 82,
      "hit": false,
      "t": 584380,
      "d": 20,
      "v": 67
    },
    {
      "midi": 60,
      "hit": false,
      "t": 584380,
      "d": 2380,
      "v": 84
    },
    {
      "midi": 82,
      "hit": false,
      "t": 584980,
      "d": 20,
      "v": 30
    },
    {
      "midi": 82,
      "hit": false,
      "t": 585580,
      "d": 20,
      "v": 36
    },
    {
      "midi": 65,
      "hit": false,
      "t": 585580,
      "d": 2380,
      "v": 99
    },
    {
      "midi": 69,
      "hit": false,
      "t": 585580,
      "d": 2380,
      "v": 86
    },
    {
      "midi": 72,
      "hit": false,
      "t": 585580,
      "d": 8380,
      "v": 98
    },
    {
      "midi": 82,
      "hit": false,
      "t": 586180,
      "d": 20,
      "v": 30
    },
    {
      "midi": 82,
      "hit": false,
      "t": 586780,
      "d": 20,
      "v": 67
    },
    {
      "midi": 60,
      "hit": false,
      "t": 586780,
      "d": 1180,
      "v": 82
    },
    {
      "midi": 82,
      "hit": false,
      "t": 587380,
      "d": 20,
      "v": 30
    },
    {
      "midi": 82,
      "hit": false,
      "t": 587980,
      "d": 20,
      "v": 36
    },
    {
      "midi": 60,
      "hit": false,
      "t": 587980,
      "d": 2380,
      "v": 92
    },
    {
      "midi": 65,
      "hit": false,
      "t": 587980,
      "d": 2380,
      "v": 95
    },
    {
      "midi": 69,
      "hit": false,
      "t": 587980,
      "d": 4780,
      "v": 78
    },
    {
      "midi": 82,
      "hit": false,
      "t": 588580,
      "d": 20,
      "v": 30
    },
    {
      "midi": 82,
      "hit": false,
      "t": 589180,
      "d": 20,
      "v": 67
    },
    {
      "midi": 57,
      "hit": false,
      "t": 589180,
      "d": 2380,
      "v": 85
    },
    {
      "midi": 82,
      "hit": false,
      "t": 589780,
      "d": 20,
      "v": 30
    },
    {
      "midi": 82,
      "hit": false,
      "t": 590380,
      "d": 20,
      "v": 36
    },
    {
      "midi": 60,
      "hit": false,
      "t": 590380,
      "d": 2380,
      "v": 96
    },
    {
      "midi": 65,
      "hit": false,
      "t": 590380,
      "d": 2380,
      "v": 102
    },
    {
      "midi": 82,
      "hit": false,
      "t": 590980,
      "d": 20,
      "v": 30
    },
    {
      "midi": 82,
      "hit": false,
      "t": 591580,
      "d": 20,
      "v": 67
    },
    {
      "midi": 57,
      "hit": false,
      "t": 591580,
      "d": 1180,
      "v": 84
    },
    {
      "midi": 82,
      "hit": false,
      "t": 592180,
      "d": 20,
      "v": 30
    },
    {
      "midi": 82,
      "hit": false,
      "t": 592780,
      "d": 20,
      "v": 36
    },
    {
      "midi": 65,
      "hit": false,
      "t": 592780,
      "d": 1180,
      "v": 98
    },
    {
      "midi": 69,
      "hit": false,
      "t": 592780,
      "d": 1180,
      "v": 80
    },
    {
      "midi": 60,
      "hit": false,
      "t": 592780,
      "d": 2260,
      "v": 98
    },
    {
      "midi": 54,
      "hit": false,
      "t": 593380,
      "d": 20,
      "v": 42
    },
    {
      "midi": 82,
      "hit": false,
      "t": 593380,
      "d": 20,
      "v": 30
    },
    {
      "midi": 54,
      "hit": false,
      "t": 593980,
      "d": 20,
      "v": 25
    },
    {
      "midi": 82,
      "hit": false,
      "t": 593980,
      "d": 20,
      "v": 67
    },
    {
      "midi": 65,
      "hit": false,
      "t": 593980,
      "d": 1060,
      "v": 88
    },
    {
      "midi": 69,
      "hit": false,
      "t": 593980,
      "d": 1060,
      "v": 81
    },
    {
      "midi": 72,
      "hit": false,
      "t": 593980,
      "d": 1060,
      "v": 95
    },
    {
      "midi": 54,
      "hit": false,
      "t": 594580,
      "d": 20,
      "v": 21
    },
    {
      "midi": 82,
      "hit": false,
      "t": 594580,
      "d": 20,
      "v": 30
    },
    {
      "midi": 82,
      "hit": false,
      "t": 595180,
      "d": 20,
      "v": 36
    },
    {
      "midi": 55,
      "hit": false,
      "t": 595180,
      "d": 1160,
      "v": 95
    },
    {
      "midi": 58,
      "hit": false,
      "t": 595180,
      "d": 2360,
      "v": 91
    },
    {
      "midi": 63,
      "hit": false,
      "t": 595180,
      "d": 2360,
      "v": 102
    },
    {
      "midi": 82,
      "hit": false,
      "t": 595780,
      "d": 20,
      "v": 30
    },
    {
      "midi": 82,
      "hit": false,
      "t": 596380,
      "d": 20,
      "v": 67
    },
    {
      "midi": 55,
      "hit": false,
      "t": 596380,
      "d": 2380,
      "v": 83
    },
    {
      "midi": 82,
      "hit": false,
      "t": 596980,
      "d": 20,
      "v": 30
    },
    {
      "midi": 82,
      "hit": false,
      "t": 597580,
      "d": 20,
      "v": 36
    },
    {
      "midi": 58,
      "hit": false,
      "t": 597580,
      "d": 2380,
      "v": 93
    },
    {
      "midi": 63,
      "hit": false,
      "t": 597580,
      "d": 2380,
      "v": 101
    },
    {
      "midi": 67,
      "hit": false,
      "t": 597580,
      "d": 4780,
      "v": 88
    },
    {
      "midi": 82,
      "hit": false,
      "t": 598180,
      "d": 20,
      "v": 30
    },
    {
      "midi": 82,
      "hit": false,
      "t": 598780,
      "d": 20,
      "v": 67
    },
    {
      "midi": 55,
      "hit": false,
      "t": 598780,
      "d": 1180,
      "v": 85
    },
    {
      "midi": 82,
      "hit": false,
      "t": 599380,
      "d": 20,
      "v": 30
    },
    {
      "midi": 82,
      "hit": false,
      "t": 599980,
      "d": 20,
      "v": 36
    },
    {
      "midi": 55,
      "hit": false,
      "t": 599980,
      "d": 1180,
      "v": 91
    },
    {
      "midi": 58,
      "hit": false,
      "t": 599980,
      "d": 2380,
      "v": 78
    },
    {
      "midi": 63,
      "hit": false,
      "t": 599980,
      "d": 2380,
      "v": 99
    },
    {
      "midi": 82,
      "hit": false,
      "t": 600580,
      "d": 20,
      "v": 30
    },
    {
      "midi": 82,
      "hit": false,
      "t": 601180,
      "d": 20,
      "v": 67
    },
    {
      "midi": 55,
      "hit": false,
      "t": 601180,
      "d": 1180,
      "v": 77
    },
    {
      "midi": 82,
      "hit": false,
      "t": 601780,
      "d": 20,
      "v": 30
    },
    {
      "midi": 54,
      "hit": false,
      "t": 602380,
      "d": 20,
      "v": 108
    },
    {
      "midi": 82,
      "hit": false,
      "t": 602380,
      "d": 20,
      "v": 36
    },
    {
      "midi": 58,
      "hit": false,
      "t": 602380,
      "d": 2360,
      "v": 94
    },
    {
      "midi": 63,
      "hit": false,
      "t": 602380,
      "d": 2360,
      "v": 101
    },
    {
      "midi": 67,
      "hit": false,
      "t": 602380,
      "d": 2360,
      "v": 93
    },
    {
      "midi": 82,
      "hit": false,
      "t": 602980,
      "d": 20,
      "v": 30
    },
    {
      "midi": 82,
      "hit": false,
      "t": 603580,
      "d": 20,
      "v": 67
    },
    {
      "midi": 55,
      "hit": false,
      "t": 603580,
      "d": 1160,
      "v": 83
    },
    {
      "midi": 82,
      "hit": false,
      "t": 604180,
      "d": 20,
      "v": 30
    },
    {
      "midi": 82,
      "hit": false,
      "t": 604780,
      "d": 20,
      "v": 36
    },
    {
      "midi": 69,
      "hit": false,
      "t": 604780,
      "d": 1180,
      "v": 89
    },
    {
      "midi": 60,
      "hit": false,
      "t": 604780,
      "d": 2380,
      "v": 94
    },
    {
      "midi": 65,
      "hit": false,
      "t": 604780,
      "d": 2380,
      "v": 102
    },
    {
      "midi": 82,
      "hit": false,
      "t": 605380,
      "d": 20,
      "v": 30
    },
    {
      "midi": 82,
      "hit": false,
      "t": 605980,
      "d": 20,
      "v": 67
    },
    {
      "midi": 57,
      "hit": false,
      "t": 605980,
      "d": 2380,
      "v": 81
    },
    {
      "midi": 82,
      "hit": false,
      "t": 606580,
      "d": 20,
      "v": 30
    },
    {
      "midi": 82,
      "hit": false,
      "t": 607180,
      "d": 20,
      "v": 36
    },
    {
      "midi": 60,
      "hit": false,
      "t": 607180,
      "d": 2380,
      "v": 88
    },
    {
      "midi": 65,
      "hit": false,
      "t": 607180,
      "d": 2380,
      "v": 99
    },
    {
      "midi": 69,
      "hit": false,
      "t": 607180,
      "d": 4780,
      "v": 94
    },
    {
      "midi": 82,
      "hit": false,
      "t": 607780,
      "d": 20,
      "v": 30
    },
    {
      "midi": 82,
      "hit": false,
      "t": 608380,
      "d": 20,
      "v": 67
    },
    {
      "midi": 57,
      "hit": false,
      "t": 608380,
      "d": 1180,
      "v": 79
    },
    {
      "midi": 82,
      "hit": false,
      "t": 608980,
      "d": 20,
      "v": 30
    },
    {
      "midi": 82,
      "hit": false,
      "t": 609580,
      "d": 20,
      "v": 36
    },
    {
      "midi": 57,
      "hit": false,
      "t": 609580,
      "d": 2380,
      "v": 95
    },
    {
      "midi": 60,
      "hit": false,
      "t": 609580,
      "d": 2380,
      "v": 90
    },
    {
      "midi": 65,
      "hit": false,
      "t": 609580,
      "d": 2380,
      "v": 101
    },
    {
      "midi": 82,
      "hit": false,
      "t": 610180,
      "d": 20,
      "v": 30
    },
    {
      "midi": 82,
      "hit": false,
      "t": 610780,
      "d": 20,
      "v": 67
    },
    {
      "midi": 53,
      "hit": false,
      "t": 610780,
      "d": 1180,
      "v": 89
    },
    {
      "midi": 82,
      "hit": false,
      "t": 611380,
      "d": 20,
      "v": 30
    },
    {
      "midi": 82,
      "hit": false,
      "t": 611980,
      "d": 20,
      "v": 36
    },
    {
      "midi": 60,
      "hit": false,
      "t": 611980,
      "d": 2380,
      "v": 94
    },
    {
      "midi": 65,
      "hit": false,
      "t": 611980,
      "d": 2380,
      "v": 102
    },
    {
      "midi": 69,
      "hit": false,
      "t": 611980,
      "d": 2380,
      "v": 91
    },
    {
      "midi": 82,
      "hit": false,
      "t": 612580,
      "d": 20,
      "v": 30
    },
    {
      "midi": 82,
      "hit": false,
      "t": 613180,
      "d": 20,
      "v": 67
    },
    {
      "midi": 57,
      "hit": false,
      "t": 613180,
      "d": 1180,
      "v": 89
    },
    {
      "midi": 82,
      "hit": false,
      "t": 613780,
      "d": 20,
      "v": 30
    },
    {
      "midi": 82,
      "hit": false,
      "t": 614380,
      "d": 20,
      "v": 36
    },
    {
      "midi": 58,
      "hit": false,
      "t": 614440,
      "d": 2300,
      "v": 92
    },
    {
      "midi": 63,
      "hit": false,
      "t": 614440,
      "d": 2300,
      "v": 100
    },
    {
      "midi": 67,
      "hit": false,
      "t": 614440,
      "d": 2300,
      "v": 89
    },
    {
      "midi": 82,
      "hit": false,
      "t": 614980,
      "d": 20,
      "v": 30
    },
    {
      "midi": 82,
      "hit": false,
      "t": 615580,
      "d": 20,
      "v": 67
    },
    {
      "midi": 55,
      "hit": false,
      "t": 615580,
      "d": 3580,
      "v": 88
    },
    {
      "midi": 82,
      "hit": false,
      "t": 616180,
      "d": 20,
      "v": 30
    },
    {
      "midi": 82,
      "hit": false,
      "t": 616780,
      "d": 20,
      "v": 36
    },
    {
      "midi": 58,
      "hit": false,
      "t": 616780,
      "d": 1180,
      "v": 94
    },
    {
      "midi": 63,
      "hit": false,
      "t": 616780,
      "d": 2380,
      "v": 101
    },
    {
      "midi": 67,
      "hit": false,
      "t": 616780,
      "d": 2380,
      "v": 92
    },
    {
      "midi": 82,
      "hit": false,
      "t": 617380,
      "d": 20,
      "v": 30
    },
    {
      "midi": 82,
      "hit": false,
      "t": 617980,
      "d": 20,
      "v": 30
    },
    {
      "midi": 58,
      "hit": false,
      "t": 617980,
      "d": 1180,
      "v": 87
    },
    {
      "midi": 82,
      "hit": false,
      "t": 618580,
      "d": 20,
      "v": 30
    },
    {
      "midi": 82,
      "hit": false,
      "t": 619180,
      "d": 20,
      "v": 36
    },
    {
      "midi": 63,
      "hit": false,
      "t": 619180,
      "d": 2380,
      "v": 95
    },
    {
      "midi": 67,
      "hit": false,
      "t": 619180,
      "d": 2380,
      "v": 100
    },
    {
      "midi": 70,
      "hit": false,
      "t": 619180,
      "d": 2380,
      "v": 98
    },
    {
      "midi": 82,
      "hit": false,
      "t": 619780,
      "d": 20,
      "v": 30
    },
    {
      "midi": 82,
      "hit": false,
      "t": 620380,
      "d": 20,
      "v": 67
    },
    {
      "midi": 58,
      "hit": false,
      "t": 620380,
      "d": 1180,
      "v": 82
    },
    {
      "midi": 82,
      "hit": false,
      "t": 620980,
      "d": 20,
      "v": 30
    },
    {
      "midi": 54,
      "hit": false,
      "t": 621580,
      "d": 20,
      "v": 108
    },
    {
      "midi": 82,
      "hit": false,
      "t": 621580,
      "d": 20,
      "v": 36
    },
    {
      "midi": 58,
      "hit": false,
      "t": 621580,
      "d": 2260,
      "v": 89
    },
    {
      "midi": 63,
      "hit": false,
      "t": 621580,
      "d": 2260,
      "v": 92
    },
    {
      "midi": 67,
      "hit": false,
      "t": 621580,
      "d": 2260,
      "v": 94
    },
    {
      "midi": 82,
      "hit": false,
      "t": 622180,
      "d": 20,
      "v": 30
    },
    {
      "midi": 82,
      "hit": false,
      "t": 622780,
      "d": 20,
      "v": 67
    },
    {
      "midi": 55,
      "hit": false,
      "t": 622780,
      "d": 1060,
      "v": 84
    },
    {
      "midi": 82,
      "hit": false,
      "t": 623380,
      "d": 20,
      "v": 30
    },
    {
      "midi": 82,
      "hit": false,
      "t": 623980,
      "d": 20,
      "v": 36
    },
    {
      "midi": 60,
      "hit": false,
      "t": 623980,
      "d": 2380,
      "v": 96
    },
    {
      "midi": 65,
      "hit": false,
      "t": 623980,
      "d": 2380,
      "v": 100
    },
    {
      "midi": 69,
      "hit": false,
      "t": 623980,
      "d": 2380,
      "v": 87
    },
    {
      "midi": 82,
      "hit": false,
      "t": 624580,
      "d": 20,
      "v": 30
    },
    {
      "midi": 82,
      "hit": false,
      "t": 625180,
      "d": 20,
      "v": 67
    },
    {
      "midi": 57,
      "hit": false,
      "t": 625180,
      "d": 8400,
      "v": 83
    },
    {
      "midi": 82,
      "hit": false,
      "t": 625780,
      "d": 20,
      "v": 30
    },
    {
      "midi": 82,
      "hit": false,
      "t": 626380,
      "d": 20,
      "v": 36
    },
    {
      "midi": 60,
      "hit": false,
      "t": 626380,
      "d": 7200,
      "v": 94
    },
    {
      "midi": 65,
      "hit": false,
      "t": 626380,
      "d": 7200,
      "v": 96
    },
    {
      "midi": 69,
      "hit": false,
      "t": 626380,
      "d": 7200,
      "v": 79
    },
    {
      "midi": 54,
      "hit": false,
      "t": 631780,
      "d": 20,
      "v": 28
    },
    {
      "midi": 54,
      "hit": false,
      "t": 632380,
      "d": 20,
      "v": 18
    },
    {
      "midi": 54,
      "hit": false,
      "t": 632980,
      "d": 20,
      "v": 11
    },
    {
      "midi": 82,
      "hit": false,
      "t": 633580,
      "d": 20,
      "v": 36
    },
    {
      "midi": 55,
      "hit": false,
      "t": 633580,
      "d": 4760,
      "v": 67
    },
    {
      "midi": 82,
      "hit": false,
      "t": 634180,
      "d": 20,
      "v": 30
    },
    {
      "midi": 62,
      "hit": false,
      "t": 634180,
      "d": 2380,
      "v": 82
    },
    {
      "midi": 82,
      "hit": false,
      "t": 634780,
      "d": 20,
      "v": 67
    },
    {
      "midi": 67,
      "hit": false,
      "t": 634780,
      "d": 3580,
      "v": 94
    },
    {
      "midi": 82,
      "hit": false,
      "t": 635380,
      "d": 20,
      "v": 30
    },
    {
      "midi": 69,
      "hit": false,
      "t": 635380,
      "d": 1180,
      "v": 97
    },
    {
      "midi": 82,
      "hit": false,
      "t": 635980,
      "d": 20,
      "v": 36
    },
    {
      "midi": 82,
      "hit": false,
      "t": 636580,
      "d": 20,
      "v": 30
    },
    {
      "midi": 62,
      "hit": false,
      "t": 636580,
      "d": 1180,
      "v": 78
    },
    {
      "midi": 82,
      "hit": false,
      "t": 637180,
      "d": 20,
      "v": 67
    },
    {
      "midi": 71,
      "hit": false,
      "t": 637180,
      "d": 1180,
      "v": 99
    },
    {
      "midi": 82,
      "hit": false,
      "t": 637780,
      "d": 20,
      "v": 30
    },
    {
      "midi": 62,
      "hit": false,
      "t": 637780,
      "d": 580,
      "v": 74
    },
    {
      "midi": 82,
      "hit": false,
      "t": 638380,
      "d": 20,
      "v": 36
    },
    {
      "midi": 64,
      "hit": false,
      "t": 638380,
      "d": 1780,
      "v": 88
    },
    {
      "midi": 55,
      "hit": false,
      "t": 638380,
      "d": 2380,
      "v": 100
    },
    {
      "midi": 72,
      "hit": false,
      "t": 638380,
      "d": 3580,
      "v": 100
    },
    {
      "midi": 82,
      "hit": false,
      "t": 638980,
      "d": 20,
      "v": 30
    },
    {
      "midi": 82,
      "hit": false,
      "t": 639580,
      "d": 20,
      "v": 67
    },
    {
      "midi": 82,
      "hit": false,
      "t": 640180,
      "d": 20,
      "v": 30
    },
    {
      "midi": 69,
      "hit": false,
      "t": 640180,
      "d": 1780,
      "v": 85
    },
    {
      "midi": 60,
      "hit": false,
      "t": 640180,
      "d": 2980,
      "v": 102
    },
    {
      "midi": 54,
      "hit": false,
      "t": 640780,
      "d": 20,
      "v": 108
    },
    {
      "midi": 82,
      "hit": false,
      "t": 641380,
      "d": 20,
      "v": 30
    },
    {
      "midi": 82,
      "hit": false,
      "t": 641980,
      "d": 20,
      "v": 67
    },
    {
      "midi": 64,
      "hit": false,
      "t": 641980,
      "d": 1180,
      "v": 85
    },
    {
      "midi": 72,
      "hit": false,
      "t": 641980,
      "d": 1180,
      "v": 95
    },
    {
      "midi": 82,
      "hit": false,
      "t": 642580,
      "d": 20,
      "v": 30
    },
    {
      "midi": 82,
      "hit": false,
      "t": 643180,
      "d": 20,
      "v": 36
    },
    {
      "midi": 55,
      "hit": false,
      "t": 643180,
      "d": 4780,
      "v": 67
    },
    {
      "midi": 82,
      "hit": false,
      "t": 643780,
      "d": 20,
      "v": 30
    },
    {
      "midi": 62,
      "hit": false,
      "t": 643780,
      "d": 2380,
      "v": 82
    },
    {
      "midi": 82,
      "hit": false,
      "t": 644380,
      "d": 20,
      "v": 67
    },
    {
      "midi": 67,
      "hit": false,
      "t": 644380,
      "d": 3580,
      "v": 94
    },
    {
      "midi": 82,
      "hit": false,
      "t": 644980,
      "d": 20,
      "v": 30
    },
    {
      "midi": 69,
      "hit": false,
      "t": 644980,
      "d": 1180,
      "v": 97
    },
    {
      "midi": 82,
      "hit": false,
      "t": 645580,
      "d": 20,
      "v": 36
    },
    {
      "midi": 82,
      "hit": false,
      "t": 646180,
      "d": 20,
      "v": 30
    },
    {
      "midi": 62,
      "hit": false,
      "t": 646180,
      "d": 1180,
      "v": 78
    },
    {
      "midi": 82,
      "hit": false,
      "t": 646780,
      "d": 20,
      "v": 67
    },
    {
      "midi": 71,
      "hit": false,
      "t": 646780,
      "d": 1180,
      "v": 99
    },
    {
      "midi": 82,
      "hit": false,
      "t": 647380,
      "d": 20,
      "v": 30
    },
    {
      "midi": 62,
      "hit": false,
      "t": 647380,
      "d": 580,
      "v": 74
    },
    {
      "midi": 82,
      "hit": false,
      "t": 647980,
      "d": 20,
      "v": 35
    },
    {
      "midi": 64,
      "hit": false,
      "t": 647980,
      "d": 3580,
      "v": 88
    },
    {
      "midi": 72,
      "hit": false,
      "t": 647980,
      "d": 3580,
      "v": 100
    },
    {
      "midi": 55,
      "hit": false,
      "t": 647980,
      "d": 4600,
      "v": 100
    },
    {
      "midi": 69,
      "hit": false,
      "t": 649780,
      "d": 1780,
      "v": 85
    },
    {
      "midi": 60,
      "hit": false,
      "t": 649780,
      "d": 2980,
      "v": 102
    },
    {
      "midi": 67,
      "hit": false,
      "t": 651580,
      "d": 1180,
      "v": 81
    },
    {
      "midi": 72,
      "hit": false,
      "t": 651580,
      "d": 1180,
      "v": 81
    },
    {
      "midi": 76,
      "hit": false,
      "t": 651580,
      "d": 1180,
      "v": 81
    },
    {
      "midi": 55,
      "hit": false,
      "t": 652600,
      "d": 9760,
      "v": 80
    },
    {
      "midi": 71,
      "hit": false,
      "t": 652740,
      "d": 9600,
      "v": 100
    },
    {
      "midi": 43,
      "hit": false,
      "t": 652780,
      "d": 9580,
      "v": 75
    },
    {
      "midi": 74,
      "hit": false,
      "t": 652840,
      "d": 9500,
      "v": 98
    },
    {
      "midi": 79,
      "hit": false,
      "t": 652920,
      "d": 9420,
      "v": 102
    }
  ]
}