{
  "jsonPath": "Unknown/Unknown/Carl Sturken/a-little-more-time-on-you.json",
  "path": "Unknown\\Unknown\\Carl Sturken\\A Little More Time on You.mid",
  "name": "A Little More Time on You",
  "difficulty": "Advanced",
  "bpm": 150,
  "notes": [
    {
      "midi": 65,
      "hit": false,
      "t": 0,
      "d": 400,
      "v": 100
    },
    {
      "midi": 70,
      "hit": false,
      "t": 0,
      "d": 400,
      "v": 100
    },
    {
      "midi": 50,
      "hit": false,
      "t": 0,
      "d": 1200,
      "v": 100
    },
    {
      "midi": 72,
      "hit": false,
      "t": 400,
      "d": 400,
      "v": 100
    },
    {
      "midi": 74,
      "hit": false,
      "t": 800,
      "d": 400,
      "v": 100
    },
    {
      "midi": 67,
      "hit": false,
      "t": 1200,
      "d": 800,
      "v": 100
    },
    {
      "midi": 70,
      "hit": false,
      "t": 1200,
      "d": 800,
      "v": 100
    },
    {
      "midi": 51,
      "hit": false,
      "t": 1200,
      "d": 1200,
      "v": 100
    },
    {
      "midi": 65,
      "hit": false,
      "t": 2000,
      "d": 400,
      "v": 100
    },
    {
      "midi": 67,
      "hit": false,
      "t": 2400,
      "d": 800,
      "v": 100
    },
    {
      "midi": 51,
      "hit": false,
      "t": 2400,
      "d": 800,
      "v": 100
    },
    {
      "midi": 65,
      "hit": false,
      "t": 3200,
      "d": 800,
      "v": 100
    },
    {
      "midi": 69,
      "hit": false,
      "t": 3200,
      "d": 800,
      "v": 100
    },
    {
      "midi": 53,
      "hit": false,
      "t": 3200,
      "d": 1200,
      "v": 100
    },
    {
      "midi": 70,
      "hit": false,
      "t": 4000,
      "d": 400,
      "v": 100
    },
    {
      "midi": 65,
      "hit": false,
      "t": 4400,
      "d": 2000,
      "v": 100
    },
    {
      "midi": 70,
      "hit": false,
      "t": 4400,
      "d": 2000,
      "v": 100
    },
    {
      "midi": 55,
      "hit": false,
      "t": 4400,
      "d": 1200,
      "v": 100
    },
    {
      "midi": 43,
      "hit": false,
      "t": 5600,
      "d": 800,
      "v": 100
    },
    {
      "midi": 65,
      "hit": false,
      "t": 6400,
      "d": 400,
      "v": 100
    },
    {
      "midi": 53,
      "hit": false,
      "t": 6400,
      "d": 1600,
      "v": 100
    },
    {
      "midi": 57,
      "hit": false,
      "t": 6400,
      "d": 1600,
      "v": 100
    },
    {
      "midi": 67,
      "hit": false,
      "t": 6800,
      "d": 400,
      "v": 100
    },
    {
      "midi": 69,
      "hit": false,
      "t": 7200,
      "d": 400,
      "v": 100
    },
    {
      "midi": 69,
      "hit": false,
      "t": 7600,
      "d": 1200,
      "v": 100
    },
    {
      "midi": 72,
      "hit": false,
      "t": 7600,
      "d": 1200,
      "v": 100
    },
    {
      "midi": 53,
      "hit": false,
      "t": 8000,
      "d": 800,
      "v": 100
    },
    {
      "midi": 57,
      "hit": false,
      "t": 8000,
      "d": 800,
      "v": 100
    },
    {
      "midi": 69,
      "hit": false,
      "t": 8800,
      "d": 400,
      "v": 100
    },
    {
      "midi": 53,
      "hit": false,
      "t": 8800,
      "d": 400,
      "v": 100
    },
    {
      "midi": 57,
      "hit": false,
      "t": 8800,
      "d": 400,
      "v": 100
    },
    {
      "midi": 67,
      "hit": false,
      "t": 9200,
      "d": 400,
      "v": 100
    },
    {
      "midi": 52,
      "hit": false,
      "t": 9200,
      "d": 400,
      "v": 100
    },
    {
      "midi": 65,
      "hit": false,
      "t": 9600,
      "d": 400,
      "v": 100
    },
    {
      "midi": 50,
      "hit": false,
      "t": 9600,
      "d": 1600,
      "v": 100
    },
    {
      "midi": 60,
      "hit": false,
      "t": 9600,
      "d": 1600,
      "v": 100
    },
    {
      "midi": 67,
      "hit": false,
      "t": 10000,
      "d": 400,
      "v": 100
    },
    {
      "midi": 69,
      "hit": false,
      "t": 10400,
      "d": 400,
      "v": 100
    },
    {
      "midi": 74,
      "hit": false,
      "t": 10800,
      "d": 400,
      "v": 100
    },
    {
      "midi": 69,
      "hit": false,
      "t": 11200,
      "d": 1200,
      "v": 100
    },
    {
      "midi": 72,
      "hit": false,
      "t": 11200,
      "d": 1200,
      "v": 100
    },
    {
      "midi": 50,
      "hit": false,
      "t": 11200,
      "d": 800,
      "v": 100
    },
    {
      "midi": 60,
      "hit": false,
      "t": 11200,
      "d": 800,
      "v": 100
    },
    {
      "midi": 50,
      "hit": false,
      "t": 12000,
      "d": 800,
      "v": 100
    },
    {
      "midi": 60,
      "hit": false,
      "t": 12000,
      "d": 800,
      "v": 100
    },
    {
      "midi": 67,
      "hit": false,
      "t": 12400,
      "d": 200,
      "v": 100
    },
    {
      "midi": 69,
      "hit": false,
      "t": 12600,
      "d": 200,
      "v": 100
    },
    {
      "midi": 70,
      "hit": false,
      "t": 12800,
      "d": 400,
      "v": 100
    },
    {
      "midi": 67,
      "hit": false,
      "t": 12800,
      "d": 2400,
      "v": 100
    },
    {
      "midi": 51,
      "hit": false,
      "t": 12800,
      "d": 800,
      "v": 100
    },
    {
      "midi": 70,
      "hit": false,
      "t": 13200,
      "d": 400,
      "v": 100
    },
    {
      "midi": 70,
      "hit": false,
      "t": 13600,
      "d": 400,
      "v": 100
    },
    {
      "midi": 51,
      "hit": false,
      "t": 13600,
      "d": 800,
      "v": 100
    },
    {
      "midi": 70,
      "hit": false,
      "t": 14000,
      "d": 800,
      "v": 100
    },
    {
      "midi": 50,
      "hit": false,
      "t": 14400,
      "d": 800,
      "v": 100
    },
    {
      "midi": 70,
      "hit": false,
      "t": 14800,
      "d": 400,
      "v": 100
    },
    {
      "midi": 70,
      "hit": false,
      "t": 15200,
      "d": 400,
      "v": 100
    },
    {
      "midi": 48,
      "hit": false,
      "t": 15200,
      "d": 400,
      "v": 100
    },
    {
      "midi": 62,
      "hit": false,
      "t": 15600,
      "d": 800,
      "v": 100
    },
    {
      "midi": 70,
      "hit": false,
      "t": 15600,
      "d": 800,
      "v": 100
    },
    {
      "midi": 46,
      "hit": false,
      "t": 15600,
      "d": 1600,
      "v": 100
    },
    {
      "midi": 69,
      "hit": false,
      "t": 16400,
      "d": 400,
      "v": 100
    },
    {
      "midi": 67,
      "hit": false,
      "t": 16800,
      "d": 400,
      "v": 100
    },
    {
      "midi": 62,
      "hit": false,
      "t": 17200,
      "d": 1600,
      "v": 100
    },
    {
      "midi": 65,
      "hit": false,
      "t": 17200,
      "d": 1600,
      "v": 100
    },
    {
      "midi": 46,
      "hit": false,
      "t": 17200,
      "d": 1200,
      "v": 100
    },
    {
      "midi": 46,
      "hit": false,
      "t": 18400,
      "d": 800,
      "v": 100
    },
    {
      "midi": 65,
      "hit": false,
      "t": 18800,
      "d": 400,
      "v": 100
    },
    {
      "midi": 65,
      "hit": false,
      "t": 19200,
      "d": 400,
      "v": 100
    },
    {
      "midi": 53,
      "hit": false,
      "t": 19200,
      "d": 1600,
      "v": 100
    },
    {
      "midi": 57,
      "hit": false,
      "t": 19200,
      "d": 1600,
      "v": 100
    },
    {
      "midi": 67,
      "hit": false,
      "t": 19600,
      "d": 400,
      "v": 100
    },
    {
      "midi": 69,
      "hit": false,
      "t": 20000,
      "d": 400,
      "v": 100
    },
    {
      "midi": 69,
      "hit": false,
      "t": 20400,
      "d": 1600,
      "v": 100
    },
    {
      "midi": 72,
      "hit": false,
      "t": 20400,
      "d": 1600,
      "v": 100
    },
    {
      "midi": 53,
      "hit": false,
      "t": 20800,
      "d": 800,
      "v": 100
    },
    {
      "midi": 57,
      "hit": false,
      "t": 20800,
      "d": 800,
      "v": 100
    },
    {
      "midi": 53,
      "hit": false,
      "t": 21600,
      "d": 400,
      "v": 100
    },
    {
      "midi": 57,
      "hit": false,
      "t": 21600,
      "d": 400,
      "v": 100
    },
    {
      "midi": 65,
      "hit": false,
      "t": 22000,
      "d": 400,
      "v": 100
    },
    {
      "midi": 52,
      "hit": false,
      "t": 22000,
      "d": 400,
      "v": 100
    },
    {
      "midi": 65,
      "hit": false,
      "t": 22400,
      "d": 400,
      "v": 100
    },
    {
      "midi": 50,
      "hit": false,
      "t": 22400,
      "d": 1600,
      "v": 100
    },
    {
      "midi": 60,
      "hit": false,
      "t": 22400,
      "d": 1600,
      "v": 100
    },
    {
      "midi": 67,
      "hit": false,
      "t": 22800,
      "d": 400,
      "v": 100
    },
    {
      "midi": 69,
      "hit": false,
      "t": 23200,
      "d": 400,
      "v": 100
    },
    {
      "midi": 74,
      "hit": false,
      "t": 23600,
      "d": 400,
      "v": 100
    },
    {
      "midi": 69,
      "hit": false,
      "t": 24000,
      "d": 1200,
      "v": 100
    },
    {
      "midi": 72,
      "hit": false,
      "t": 24000,
      "d": 1200,
      "v": 100
    },
    {
      "midi": 50,
      "hit": false,
      "t": 24000,
      "d": 800,
      "v": 100
    },
    {
      "midi": 60,
      "hit": false,
      "t": 24000,
      "d": 800,
      "v": 100
    },
    {
      "midi": 50,
      "hit": false,
      "t": 24800,
      "d": 800,
      "v": 100
    },
    {
      "midi": 60,
      "hit": false,
      "t": 24800,
      "d": 800,
      "v": 100
    },
    {
      "midi": 67,
      "hit": false,
      "t": 25200,
      "d": 200,
      "v": 100
    },
    {
      "midi": 69,
      "hit": false,
      "t": 25400,
      "d": 200,
      "v": 100
    },
    {
      "midi": 70,
      "hit": false,
      "t": 25600,
      "d": 400,
      "v": 100
    },
    {
      "midi": 67,
      "hit": false,
      "t": 25600,
      "d": 2400,
      "v": 100
    },
    {
      "midi": 51,
      "hit": false,
      "t": 25600,
      "d": 800,
      "v": 100
    },
    {
      "midi": 70,
      "hit": false,
      "t": 26000,
      "d": 400,
      "v": 100
    },
    {
      "midi": 70,
      "hit": false,
      "t": 26400,
      "d": 400,
      "v": 100
    },
    {
      "midi": 51,
      "hit": false,
      "t": 26400,
      "d": 800,
      "v": 100
    },
    {
      "midi": 70,
      "hit": false,
      "t": 26800,
      "d": 800,
      "v": 100
    },
    {
      "midi": 50,
      "hit": false,
      "t": 27200,
      "d": 800,
      "v": 100
    },
    {
      "midi": 70,
      "hit": false,
      "t": 27600,
      "d": 400,
      "v": 100
    },
    {
      "midi": 70,
      "hit": false,
      "t": 28000,
      "d": 400,
      "v": 100
    },
    {
      "midi": 48,
      "hit": false,
      "t": 28000,
      "d": 400,
      "v": 100
    },
    {
      "midi": 62,
      "hit": false,
      "t": 28400,
      "d": 800,
      "v": 100
    },
    {
      "midi": 70,
      "hit": false,
      "t": 28400,
      "d": 800,
      "v": 100
    },
    {
      "midi": 46,
      "hit": false,
      "t": 28400,
      "d": 1600,
      "v": 100
    },
    {
      "midi": 69,
      "hit": false,
      "t": 29200,
      "d": 400,
      "v": 100
    },
    {
      "midi": 67,
      "hit": false,
      "t": 29600,
      "d": 400,
      "v": 100
    },
    {
      "midi": 62,
      "hit": false,
      "t": 30000,
      "d": 1600,
      "v": 100
    },
    {
      "midi": 65,
      "hit": false,
      "t": 30000,
      "d": 1600,
      "v": 100
    },
    {
      "midi": 46,
      "hit": false,
      "t": 30000,
      "d": 1200,
      "v": 100
    },
    {
      "midi": 46,
      "hit": false,
      "t": 31200,
      "d": 800,
      "v": 100
    },
    {
      "midi": 63,
      "hit": false,
      "t": 31600,
      "d": 200,
      "v": 100
    },
    {
      "midi": 65,
      "hit": false,
      "t": 31800,
      "d": 200,
      "v": 100
    },
    {
      "midi": 67,
      "hit": false,
      "t": 32000,
      "d": 400,
      "v": 100
    },
    {
      "midi": 63,
      "hit": false,
      "t": 32000,
      "d": 2400,
      "v": 100
    },
    {
      "midi": 39,
      "hit": false,
      "t": 32000,
      "d": 800,
      "v": 100
    },
    {
      "midi": 67,
      "hit": false,
      "t": 32400,
      "d": 400,
      "v": 100
    },
    {
      "midi": 67,
      "hit": false,
      "t": 32800,
      "d": 400,
      "v": 100
    },
    {
      "midi": 51,
      "hit": false,
      "t": 32800,
      "d": 800,
      "v": 100
    },
    {
      "midi": 67,
      "hit": false,
      "t": 33200,
      "d": 400,
      "v": 100
    },
    {
      "midi": 67,
      "hit": false,
      "t": 33600,
      "d": 400,
      "v": 100
    },
    {
      "midi": 39,
      "hit": false,
      "t": 33600,
      "d": 800,
      "v": 100
    },
    {
      "midi": 65,
      "hit": false,
      "t": 34000,
      "d": 400,
      "v": 100
    },
    {
      "midi": 63,
      "hit": false,
      "t": 34400,
      "d": 800,
      "v": 100
    },
    {
      "midi": 67,
      "hit": false,
      "t": 34400,
      "d": 800,
      "v": 100
    },
    {
      "midi": 51,
      "hit": false,
      "t": 34400,
      "d": 800,
      "v": 100
    },
    {
      "midi": 62,
      "hit": false,
      "t": 35200,
      "d": 2800,
      "v": 100
    },
    {
      "midi": 65,
      "hit": false,
      "t": 35200,
      "d": 2800,
      "v": 100
    },
    {
      "midi": 46,
      "hit": false,
      "t": 35200,
      "d": 800,
      "v": 100
    },
    {
      "midi": 58,
      "hit": false,
      "t": 36000,
      "d": 400,
      "v": 100
    },
    {
      "midi": 46,
      "hit": false,
      "t": 36400,
      "d": 400,
      "v": 100
    },
    {
      "midi": 46,
      "hit": false,
      "t": 36800,
      "d": 800,
      "v": 100
    },
    {
      "midi": 58,
      "hit": false,
      "t": 37600,
      "d": 800,
      "v": 100
    },
    {
      "midi": 63,
      "hit": false,
      "t": 38000,
      "d": 200,
      "v": 100
    },
    {
      "midi": 65,
      "hit": false,
      "t": 38200,
      "d": 200,
      "v": 100
    },
    {
      "midi": 67,
      "hit": false,
      "t": 38400,
      "d": 400,
      "v": 100
    },
    {
      "midi": 63,
      "hit": false,
      "t": 38400,
      "d": 1600,
      "v": 100
    },
    {
      "midi": 39,
      "hit": false,
      "t": 38400,
      "d": 800,
      "v": 100
    },
    {
      "midi": 67,
      "hit": false,
      "t": 38800,
      "d": 400,
      "v": 100
    },
    {
      "midi": 67,
      "hit": false,
      "t": 39200,
      "d": 400,
      "v": 100
    },
    {
      "midi": 51,
      "hit": false,
      "t": 39200,
      "d": 800,
      "v": 100
    },
    {
      "midi": 67,
      "hit": false,
      "t": 39600,
      "d": 400,
      "v": 100
    },
    {
      "midi": 74,
      "hit": false,
      "t": 40000,
      "d": 400,
      "v": 100
    },
    {
      "midi": 39,
      "hit": false,
      "t": 40000,
      "d": 800,
      "v": 100
    },
    {
      "midi": 72,
      "hit": false,
      "t": 40400,
      "d": 400,
      "v": 100
    },
    {
      "midi": 69,
      "hit": false,
      "t": 40800,
      "d": 400,
      "v": 100
    },
    {
      "midi": 51,
      "hit": false,
      "t": 40800,
      "d": 800,
      "v": 100
    },
    {
      "midi": 69,
      "hit": false,
      "t": 41200,
      "d": 200,
      "v": 100
    },
    {
      "midi": 67,
      "hit": false,
      "t": 41400,
      "d": 200,
      "v": 100
    },
    {
      "midi": 62,
      "hit": false,
      "t": 41600,
      "d": 3200,
      "v": 100
    },
    {
      "midi": 65,
      "hit": false,
      "t": 41600,
      "d": 3200,
      "v": 100
    },
    {
      "midi": 46,
      "hit": false,
      "t": 41600,
      "d": 800,
      "v": 100
    },
    {
      "midi": 58,
      "hit": false,
      "t": 42400,
      "d": 400,
      "v": 100
    },
    {
      "midi": 46,
      "hit": false,
      "t": 42800,
      "d": 400,
      "v": 100
    },
    {
      "midi": 46,
      "hit": false,
      "t": 43200,
      "d": 800,
      "v": 100
    },
    {
      "midi": 58,
      "hit": false,
      "t": 44000,
      "d": 800,
      "v": 100
    },
    {
      "midi": 63,
      "hit": false,
      "t": 44800,
      "d": 400,
      "v": 100
    },
    {
      "midi": 67,
      "hit": false,
      "t": 44800,
      "d": 400,
      "v": 100
    },
    {
      "midi": 39,
      "hit": false,
      "t": 44800,
      "d": 800,
      "v": 100
    },
    {
      "midi": 63,
      "hit": false,
      "t": 45200,
      "d": 400,
      "v": 100
    },
    {
      "midi": 67,
      "hit": false,
      "t": 45200,
      "d": 400,
      "v": 100
    },
    {
      "midi": 63,
      "hit": false,
      "t": 45600,
      "d": 400,
      "v": 100
    },
    {
      "midi": 67,
      "hit": false,
      "t": 45600,
      "d": 400,
      "v": 100
    },
    {
      "midi": 51,
      "hit": false,
      "t": 45600,
      "d": 800,
      "v": 100
    },
    {
      "midi": 63,
      "hit": false,
      "t": 46000,
      "d": 1600,
      "v": 100
    },
    {
      "midi": 67,
      "hit": false,
      "t": 46000,
      "d": 1600,
      "v": 100
    },
    {
      "midi": 39,
      "hit": false,
      "t": 46400,
      "d": 800,
      "v": 100
    },
    {
      "midi": 51,
      "hit": false,
      "t": 47200,
      "d": 800,
      "v": 100
    },
    {
      "midi": 63,
      "hit": false,
      "t": 47600,
      "d": 400,
      "v": 100
    },
    {
      "midi": 67,
      "hit": false,
      "t": 47600,
      "d": 400,
      "v": 100
    },
    {
      "midi": 62,
      "hit": false,
      "t": 48000,
      "d": 400,
      "v": 100
    },
    {
      "midi": 66,
      "hit": false,
      "t": 48000,
      "d": 400,
      "v": 100
    },
    {
      "midi": 38,
      "hit": false,
      "t": 48000,
      "d": 800,
      "v": 100
    },
    {
      "midi": 62,
      "hit": false,
      "t": 48400,
      "d": 400,
      "v": 100
    },
    {
      "midi": 66,
      "hit": false,
      "t": 48400,
      "d": 400,
      "v": 100
    },
    {
      "midi": 62,
      "hit": false,
      "t": 48800,
      "d": 400,
      "v": 100
    },
    {
      "midi": 66,
      "hit": false,
      "t": 48800,
      "d": 400,
      "v": 100
    },
    {
      "midi": 50,
      "hit": false,
      "t": 48800,
      "d": 800,
      "v": 100
    },
    {
      "midi": 67,
      "hit": false,
      "t": 49200,
      "d": 1200,
      "v": 100
    },
    {
      "midi": 38,
      "hit": false,
      "t": 49600,
      "d": 800,
      "v": 100
    },
    {
      "midi": 69,
      "hit": false,
      "t": 50400,
      "d": 600,
      "v": 100
    },
    {
      "midi": 50,
      "hit": false,
      "t": 50400,
      "d": 800,
      "v": 100
    },
    {
      "midi": 70,
      "hit": false,
      "t": 51000,
      "d": 200,
      "v": 100
    },
    {
      "midi": 72,
      "hit": false,
      "t": 51200,
      "d": 400,
      "v": 100
    },
    {
      "midi": 39,
      "hit": false,
      "t": 51200,
      "d": 800,
      "v": 100
    },
    {
      "midi": 67,
      "hit": false,
      "t": 51600,
      "d": 400,
      "v": 100
    },
    {
      "midi": 70,
      "hit": false,
      "t": 51600,
      "d": 400,
      "v": 100
    },
    {
      "midi": 67,
      "hit": false,
      "t": 52000,
      "d": 2000,
      "v": 100
    },
    {
      "midi": 70,
      "hit": false,
      "t": 52000,
      "d": 2000,
      "v": 100
    },
    {
      "midi": 51,
      "hit": false,
      "t": 52000,
      "d": 800,
      "v": 100
    },
    {
      "midi": 39,
      "hit": false,
      "t": 52800,
      "d": 800,
      "v": 100
    },
    {
      "midi": 51,
      "hit": false,
      "t": 53600,
      "d": 800,
      "v": 100
    },
    {
      "midi": 70,
      "hit": false,
      "t": 54000,
      "d": 200,
      "v": 100
    },
    {
      "midi": 72,
      "hit": false,
      "t": 54200,
      "d": 200,
      "v": 100
    },
    {
      "midi": 74,
      "hit": false,
      "t": 54400,
      "d": 400,
      "v": 100
    },
    {
      "midi": 70,
      "hit": false,
      "t": 54400,
      "d": 1600,
      "v": 100
    },
    {
      "midi": 41,
      "hit": false,
      "t": 54400,
      "d": 800,
      "v": 100
    },
    {
      "midi": 53,
      "hit": false,
      "t": 54400,
      "d": 800,
      "v": 100
    },
    {
      "midi": 72,
      "hit": false,
      "t": 54800,
      "d": 400,
      "v": 100
    },
    {
      "midi": 74,
      "hit": false,
      "t": 55200,
      "d": 800,
      "v": 100
    },
    {
      "midi": 41,
      "hit": false,
      "t": 55200,
      "d": 800,
      "v": 100
    },
    {
      "midi": 53,
      "hit": false,
      "t": 55200,
      "d": 800,
      "v": 100
    },
    {
      "midi": 69,
      "hit": false,
      "t": 56000,
      "d": 1200,
      "v": 100
    },
    {
      "midi": 72,
      "hit": false,
      "t": 56000,
      "d": 1200,
      "v": 100
    },
    {
      "midi": 41,
      "hit": false,
      "t": 56000,
      "d": 800,
      "v": 100
    },
    {
      "midi": 53,
      "hit": false,
      "t": 56000,
      "d": 800,
      "v": 100
    },
    {
      "midi": 41,
      "hit": false,
      "t": 56800,
      "d": 800,
      "v": 100
    },
    {
      "midi": 53,
      "hit": false,
      "t": 56800,
      "d": 800,
      "v": 100
    },
    {
      "midi": 65,
      "hit": false,
      "t": 57200,
      "d": 400,
      "v": 100
    },
    {
      "midi": 65,
      "hit": false,
      "t": 57600,
      "d": 400,
      "v": 100
    },
    {
      "midi": 62,
      "hit": false,
      "t": 57600,
      "d": 1600,
      "v": 100
    },
    {
      "midi": 46,
      "hit": false,
      "t": 57600,
      "d": 1200,
      "v": 100
    },
    {
      "midi": 65,
      "hit": false,
      "t": 58000,
      "d": 400,
      "v": 100
    },
    {
      "midi": 65,
      "hit": false,
      "t": 58400,
      "d": 400,
      "v": 100
    },
    {
      "midi": 65,
      "hit": false,
      "t": 58800,
      "d": 400,
      "v": 100
    },
    {
      "midi": 46,
      "hit": false,
      "t": 58800,
      "d": 400,
      "v": 100
    },
    {
      "midi": 67,
      "hit": false,
      "t": 59200,
      "d": 400,
      "v": 100
    },
    {
      "midi": 63,
      "hit": false,
      "t": 59200,
      "d": 1600,
      "v": 100
    },
    {
      "midi": 39,
      "hit": false,
      "t": 59200,
      "d": 1200,
      "v": 100
    },
    {
      "midi": 70,
      "hit": false,
      "t": 59600,
      "d": 1200,
      "v": 100
    },
    {
      "midi": 39,
      "hit": false,
      "t": 60400,
      "d": 400,
      "v": 100
    },
    {
      "midi": 67,
      "hit": false,
      "t": 60800,
      "d": 400,
      "v": 100
    },
    {
      "midi": 57,
      "hit": false,
      "t": 60800,
      "d": 1600,
      "v": 100
    },
    {
      "midi": 41,
      "hit": false,
      "t": 60800,
      "d": 1200,
      "v": 100
    },
    {
      "midi": 65,
      "hit": false,
      "t": 61200,
      "d": 400,
      "v": 100
    },
    {
      "midi": 67,
      "hit": false,
      "t": 61600,
      "d": 800,
      "v": 100
    },
    {
      "midi": 41,
      "hit": false,
      "t": 62000,
      "d": 400,
      "v": 100
    },
    {
      "midi": 65,
      "hit": false,
      "t": 62400,
      "d": 1200,
      "v": 100
    },
    {
      "midi": 58,
      "hit": false,
      "t": 62400,
      "d": 1600,
      "v": 100
    },
    {
      "midi": 62,
      "hit": false,
      "t": 62400,
      "d": 1600,
      "v": 100
    },
    {
      "midi": 43,
      "hit": false,
      "t": 62400,
      "d": 800,
      "v": 100
    },
    {
      "midi": 43,
      "hit": false,
      "t": 63200,
      "d": 800,
      "v": 100
    },
    {
      "midi": 65,
      "hit": false,
      "t": 63600,
      "d": 400,
      "v": 100
    },
    {
      "midi": 65,
      "hit": false,
      "t": 64000,
      "d": 400,
      "v": 100
    },
    {
      "midi": 62,
      "hit": false,
      "t": 64000,
      "d": 1600,
      "v": 100
    },
    {
      "midi": 46,
      "hit": false,
      "t": 64000,
      "d": 1200,
      "v": 100
    },
    {
      "midi": 65,
      "hit": false,
      "t": 64400,
      "d": 400,
      "v": 100
    },
    {
      "midi": 65,
      "hit": false,
      "t": 64800,
      "d": 400,
      "v": 100
    },
    {
      "midi": 65,
      "hit": false,
      "t": 65200,
      "d": 400,
      "v": 100
    },
    {
      "midi": 46,
      "hit": false,
      "t": 65200,
      "d": 400,
      "v": 100
    },
    {
      "midi": 67,
      "hit": false,
      "t": 65600,
      "d": 400,
      "v": 100
    },
    {
      "midi": 63,
      "hit": false,
      "t": 65600,
      "d": 1600,
      "v": 100
    },
    {
      "midi": 39,
      "hit": false,
      "t": 65600,
      "d": 1200,
      "v": 100
    },
    {
      "midi": 70,
      "hit": false,
      "t": 66000,
      "d": 400,
      "v": 100
    },
    {
      "midi": 70,
      "hit": false,
      "t": 66400,
      "d": 400,
      "v": 100
    },
    {
      "midi": 65,
      "hit": false,
      "t": 66800,
      "d": 400,
      "v": 100
    },
    {
      "midi": 39,
      "hit": false,
      "t": 66800,
      "d": 400,
      "v": 100
    },
    {
      "midi": 72,
      "hit": false,
      "t": 67200,
      "d": 400,
      "v": 100
    },
    {
      "midi": 69,
      "hit": false,
      "t": 67200,
      "d": 1600,
      "v": 100
    },
    {
      "midi": 41,
      "hit": false,
      "t": 67200,
      "d": 1200,
      "v": 100
    },
    {
      "midi": 72,
      "hit": false,
      "t": 67600,
      "d": 400,
      "v": 100
    },
    {
      "midi": 74,
      "hit": false,
      "t": 68000,
      "d": 800,
      "v": 100
    },
    {
      "midi": 41,
      "hit": false,
      "t": 68400,
      "d": 400,
      "v": 100
    },
    {
      "midi": 74,
      "hit": false,
      "t": 68800,
      "d": 200,
      "v": 100
    },
    {
      "midi": 65,
      "hit": false,
      "t": 68800,
      "d": 1600,
      "v": 100
    },
    {
      "midi": 46,
      "hit": false,
      "t": 68800,
      "d": 800,
      "v": 100
    },
    {
      "midi": 72,
      "hit": false,
      "t": 69000,
      "d": 200,
      "v": 100
    },
    {
      "midi": 70,
      "hit": false,
      "t": 69200,
      "d": 1200,
      "v": 100
    },
    {
      "midi": 46,
      "hit": false,
      "t": 69600,
      "d": 800,
      "v": 100
    },
    {
      "midi": 46,
      "hit": false,
      "t": 70400,
      "d": 1200,
      "v": 100
    },
    {
      "midi": 74,
      "hit": false,
      "t": 70800,
      "d": 200,
      "v": 100
    },
    {
      "midi": 74,
      "hit": false,
      "t": 71000,
      "d": 200,
      "v": 100
    },
    {
      "midi": 74,
      "hit": false,
      "t": 71200,
      "d": 400,
      "v": 100
    },
    {
      "midi": 77,
      "hit": false,
      "t": 71600,
      "d": 400,
      "v": 100
    },
    {
      "midi": 46,
      "hit": false,
      "t": 71600,
      "d": 400,
      "v": 100
    },
    {
      "midi": 75,
      "hit": false,
      "t": 72000,
      "d": 400,
      "v": 100
    },
    {
      "midi": 67,
      "hit": false,
      "t": 72000,
      "d": 1600,
      "v": 100
    },
    {
      "midi": 39,
      "hit": false,
      "t": 72000,
      "d": 1200,
      "v": 100
    },
    {
      "midi": 74,
      "hit": false,
      "t": 72400,
      "d": 400,
      "v": 100
    },
    {
      "midi": 72,
      "hit": false,
      "t": 72800,
      "d": 400,
      "v": 100
    },
    {
      "midi": 70,
      "hit": false,
      "t": 73200,
      "d": 400,
      "v": 100
    },
    {
      "midi": 39,
      "hit": false,
      "t": 73200,
      "d": 400,
      "v": 100
    },
    {
      "midi": 77,
      "hit": false,
      "t": 73600,
      "d": 400,
      "v": 100
    },
    {
      "midi": 69,
      "hit": false,
      "t": 73600,
      "d": 1600,
      "v": 100
    },
    {
      "midi": 41,
      "hit": false,
      "t": 73600,
      "d": 1200,
      "v": 100
    },
    {
      "midi": 77,
      "hit": false,
      "t": 74000,
      "d": 400,
      "v": 100
    },
    {
      "midi": 77,
      "hit": false,
      "t": 74400,
      "d": 800,
      "v": 100
    },
    {
      "midi": 41,
      "hit": false,
      "t": 74800,
      "d": 400,
      "v": 100
    },
    {
      "midi": 74,
      "hit": false,
      "t": 75200,
      "d": 200,
      "v": 100
    },
    {
      "midi": 43,
      "hit": false,
      "t": 75200,
      "d": 800,
      "v": 100
    },
    {
      "midi": 72,
      "hit": false,
      "t": 75400,
      "d": 200,
      "v": 100
    },
    {
      "midi": 67,
      "hit": false,
      "t": 75600,
      "d": 1200,
      "v": 100
    },
    {
      "midi": 70,
      "hit": false,
      "t": 75600,
      "d": 1200,
      "v": 100
    },
    {
      "midi": 43,
      "hit": false,
      "t": 76000,
      "d": 800,
      "v": 100
    },
    {
      "midi": 72,
      "hit": false,
      "t": 76800,
      "d": 400,
      "v": 100
    },
    {
      "midi": 75,
      "hit": false,
      "t": 76800,
      "d": 400,
      "v": 100
    },
    {
      "midi": 45,
      "hit": false,
      "t": 76800,
      "d": 1200,
      "v": 100
    },
    {
      "midi": 72,
      "hit": false,
      "t": 77200,
      "d": 400,
      "v": 100
    },
    {
      "midi": 75,
      "hit": false,
      "t": 77200,
      "d": 400,
      "v": 100
    },
    {
      "midi": 72,
      "hit": false,
      "t": 77600,
      "d": 800,
      "v": 100
    },
    {
      "midi": 75,
      "hit": false,
      "t": 77600,
      "d": 800,
      "v": 100
    },
    {
      "midi": 45,
      "hit": false,
      "t": 78000,
      "d": 400,
      "v": 100
    },
    {
      "midi": 74,
      "hit": false,
      "t": 78400,
      "d": 200,
      "v": 100
    },
    {
      "midi": 43,
      "hit": false,
      "t": 78400,
      "d": 800,
      "v": 100
    },
    {
      "midi": 72,
      "hit": false,
      "t": 78600,
      "d": 200,
      "v": 100
    },
    {
      "midi": 67,
      "hit": false,
      "t": 78800,
      "d": 800,
      "v": 100
    },
    {
      "midi": 70,
      "hit": false,
      "t": 78800,
      "d": 800,
      "v": 100
    },
    {
      "midi": 43,
      "hit": false,
      "t": 79200,
      "d": 800,
      "v": 100
    },
    {
      "midi": 65,
      "hit": false,
      "t": 79600,
      "d": 400,
      "v": 100
    },
    {
      "midi": 70,
      "hit": false,
      "t": 80000,
      "d": 400,
      "v": 100
    },
    {
      "midi": 38,
      "hit": false,
      "t": 80000,
      "d": 800,
      "v": 100
    },
    {
      "midi": 72,
      "hit": false,
      "t": 80400,
      "d": 400,
      "v": 100
    },
    {
      "midi": 74,
      "hit": false,
      "t": 80800,
      "d": 400,
      "v": 100
    },
    {
      "midi": 39,
      "hit": false,
      "t": 80800,
      "d": 400,
      "v": 100
    },
    {
      "midi": 69,
      "hit": false,
      "t": 81200,
      "d": 1200,
      "v": 100
    },
    {
      "midi": 72,
      "hit": false,
      "t": 81200,
      "d": 1200,
      "v": 100
    },
    {
      "midi": 41,
      "hit": false,
      "t": 81200,
      "d": 2000,
      "v": 100
    },
    {
      "midi": 65,
      "hit": false,
      "t": 82400,
      "d": 400,
      "v": 100
    },
    {
      "midi": 72,
      "hit": false,
      "t": 82800,
      "d": 400,
      "v": 100
    },
    {
      "midi": 65,
      "hit": false,
      "t": 83200,
      "d": 400,
      "v": 100
    },
    {
      "midi": 70,
      "hit": false,
      "t": 83200,
      "d": 400,
      "v": 100
    },
    {
      "midi": 50,
      "hit": false,
      "t": 83200,
      "d": 1200,
      "v": 100
    },
    {
      "midi": 72,
      "hit": false,
      "t": 83600,
      "d": 400,
      "v": 100
    },
    {
      "midi": 74,
      "hit": false,
      "t": 84000,
      "d": 400,
      "v": 100
    },
    {
      "midi": 67,
      "hit": false,
      "t": 84400,
      "d": 800,
      "v": 100
    },
    {
      "midi": 70,
      "hit": false,
      "t": 84400,
      "d": 800,
      "v": 100
    },
    {
      "midi": 51,
      "hit": false,
      "t": 84400,
      "d": 1200,
      "v": 100
    },
    {
      "midi": 65,
      "hit": false,
      "t": 85200,
      "d": 400,
      "v": 100
    },
    {
      "midi": 67,
      "hit": false,
      "t": 85600,
      "d": 800,
      "v": 100
    },
    {
      "midi": 51,
      "hit": false,
      "t": 85600,
      "d": 800,
      "v": 100
    },
    {
      "midi": 65,
      "hit": false,
      "t": 86400,
      "d": 800,
      "v": 100
    },
    {
      "midi": 69,
      "hit": false,
      "t": 86400,
      "d": 800,
      "v": 100
    },
    {
      "midi": 53,
      "hit": false,
      "t": 86400,
      "d": 1200,
      "v": 100
    },
    {
      "midi": 70,
      "hit": false,
      "t": 87200,
      "d": 400,
      "v": 100
    },
    {
      "midi": 65,
      "hit": false,
      "t": 87600,
      "d": 2000,
      "v": 100
    },
    {
      "midi": 70,
      "hit": false,
      "t": 87600,
      "d": 2000,
      "v": 100
    },
    {
      "midi": 55,
      "hit": false,
      "t": 87600,
      "d": 1200,
      "v": 100
    },
    {
      "midi": 43,
      "hit": false,
      "t": 88800,
      "d": 800,
      "v": 100
    },
    {
      "midi": 65,
      "hit": false,
      "t": 89600,
      "d": 400,
      "v": 100
    },
    {
      "midi": 70,
      "hit": false,
      "t": 89600,
      "d": 400,
      "v": 100
    },
    {
      "midi": 50,
      "hit": false,
      "t": 89600,
      "d": 1200,
      "v": 100
    },
    {
      "midi": 72,
      "hit": false,
      "t": 90000,
      "d": 400,
      "v": 100
    },
    {
      "midi": 74,
      "hit": false,
      "t": 90400,
      "d": 400,
      "v": 100
    },
    {
      "midi": 67,
      "hit": false,
      "t": 90800,
      "d": 800,
      "v": 100
    },
    {
      "midi": 70,
      "hit": false,
      "t": 90800,
      "d": 800,
      "v": 100
    },
    {
      "midi": 51,
      "hit": false,
      "t": 90800,
      "d": 1200,
      "v": 100
    },
    {
      "midi": 65,
      "hit": false,
      "t": 91600,
      "d": 400,
      "v": 100
    },
    {
      "midi": 67,
      "hit": false,
      "t": 92000,
      "d": 800,
      "v": 100
    },
    {
      "midi": 51,
      "hit": false,
      "t": 92000,
      "d": 800,
      "v": 100
    },
    {
      "midi": 65,
      "hit": false,
      "t": 92800,
      "d": 800,
      "v": 100
    },
    {
      "midi": 69,
      "hit": false,
      "t": 92800,
      "d": 800,
      "v": 100
    },
    {
      "midi": 53,
      "hit": false,
      "t": 92800,
      "d": 1200,
      "v": 100
    },
    {
      "midi": 70,
      "hit": false,
      "t": 93600,
      "d": 400,
      "v": 100
    },
    {
      "midi": 65,
      "hit": false,
      "t": 94000,
      "d": 1600,
      "v": 100
    },
    {
      "midi": 70,
      "hit": false,
      "t": 94000,
      "d": 1600,
      "v": 100
    },
    {
      "midi": 55,
      "hit": false,
      "t": 94000,
      "d": 1200,
      "v": 100
    },
    {
      "midi": 43,
      "hit": false,
      "t": 95200,
      "d": 800,
      "v": 100
    },
    {
      "midi": 65,
      "hit": false,
      "t": 95600,
      "d": 400,
      "v": 100
    },
    {
      "midi": 50,
      "hit": false,
      "t": 96000,
      "d": 800,
      "v": 100
    },
    {
      "midi": 58,
      "hit": false,
      "t": 96000,
      "d": 800,
      "v": 100
    },
    {
      "midi": 77,
      "hit": false,
      "t": 96400,
      "d": 400,
      "v": 100
    },
    {
      "midi": 77,
      "hit": false,
      "t": 96800,
      "d": 400,
      "v": 100
    },
    {
      "midi": 50,
      "hit": false,
      "t": 96800,
      "d": 800,
      "v": 100
    },
    {
      "midi": 58,
      "hit": false,
      "t": 96800,
      "d": 800,
      "v": 100
    },
    {
      "midi": 72,
      "hit": false,
      "t": 97200,
      "d": 400,
      "v": 100
    },
    {
      "midi": 72,
      "hit": false,
      "t": 97600,
      "d": 400,
      "v": 100
    },
    {
      "midi": 51,
      "hit": false,
      "t": 97600,
      "d": 800,
      "v": 100
    },
    {
      "midi": 55,
      "hit": false,
      "t": 97600,
      "d": 800,
      "v": 100
    },
    {
      "midi": 74,
      "hit": false,
      "t": 98000,
      "d": 400,
      "v": 100
    },
    {
      "midi": 74,
      "hit": false,
      "t": 98400,
      "d": 200,
      "v": 100
    },
    {
      "midi": 51,
      "hit": false,
      "t": 98400,
      "d": 800,
      "v": 100
    },
    {
      "midi": 55,
      "hit": false,
      "t": 98400,
      "d": 800,
      "v": 100
    },
    {
      "midi": 72,
      "hit": false,
      "t": 98600,
      "d": 200,
      "v": 100
    },
    {
      "midi": 70,
      "hit": false,
      "t": 98800,
      "d": 400,
      "v": 100
    },
    {
      "midi": 67,
      "hit": false,
      "t": 99200,
      "d": 800,
      "v": 100
    },
    {
      "midi": 53,
      "hit": false,
      "t": 99200,
      "d": 800,
      "v": 100
    },
    {
      "midi": 57,
      "hit": false,
      "t": 99200,
      "d": 800,
      "v": 100
    },
    {
      "midi": 65,
      "hit": false,
      "t": 100000,
      "d": 400,
      "v": 100
    },
    {
      "midi": 53,
      "hit": false,
      "t": 100000,
      "d": 800,
      "v": 100
    },
    {
      "midi": 57,
      "hit": false,
      "t": 100000,
      "d": 800,
      "v": 100
    },
    {
      "midi": 67,
      "hit": false,
      "t": 100400,
      "d": 400,
      "v": 100
    },
    {
      "midi": 65,
      "hit": false,
      "t": 100800,
      "d": 200,
      "v": 100
    },
    {
      "midi": 55,
      "hit": false,
      "t": 100800,
      "d": 800,
      "v": 100
    },
    {
      "midi": 58,
      "hit": false,
      "t": 100800,
      "d": 800,
      "v": 100
    },
    {
      "midi": 63,
      "hit": false,
      "t": 101000,
      "d": 200,
      "v": 100
    },
    {
      "midi": 62,
      "hit": false,
      "t": 101200,
      "d": 1200,
      "v": 100
    },
    {
      "midi": 55,
      "hit": false,
      "t": 101600,
      "d": 800,
      "v": 100
    },
    {
      "midi": 58,
      "hit": false,
      "t": 101600,
      "d": 800,
      "v": 100
    },
    {
      "midi": 50,
      "hit": false,
      "t": 102400,
      "d": 800,
      "v": 100
    },
    {
      "midi": 58,
      "hit": false,
      "t": 102400,
      "d": 800,
      "v": 100
    },
    {
      "midi": 77,
      "hit": false,
      "t": 102800,
      "d": 400,
      "v": 100
    },
    {
      "midi": 77,
      "hit": false,
      "t": 103200,
      "d": 400,
      "v": 100
    },
    {
      "midi": 50,
      "hit": false,
      "t": 103200,
      "d": 800,
      "v": 100
    },
    {
      "midi": 58,
      "hit": false,
      "t": 103200,
      "d": 800,
      "v": 100
    },
    {
      "midi": 72,
      "hit": false,
      "t": 103600,
      "d": 400,
      "v": 100
    },
    {
      "midi": 72,
      "hit": false,
      "t": 104000,
      "d": 400,
      "v": 100
    },
    {
      "midi": 51,
      "hit": false,
      "t": 104000,
      "d": 800,
      "v": 100
    },
    {
      "midi": 55,
      "hit": false,
      "t": 104000,
      "d": 800,
      "v": 100
    },
    {
      "midi": 74,
      "hit": false,
      "t": 104400,
      "d": 400,
      "v": 100
    },
    {
      "midi": 74,
      "hit": false,
      "t": 104800,
      "d": 200,
      "v": 100
    },
    {
      "midi": 51,
      "hit": false,
      "t": 104800,
      "d": 800,
      "v": 100
    },
    {
      "midi": 55,
      "hit": false,
      "t": 104800,
      "d": 800,
      "v": 100
    },
    {
      "midi": 72,
      "hit": false,
      "t": 105000,
      "d": 200,
      "v": 100
    },
    {
      "midi": 70,
      "hit": false,
      "t": 105200,
      "d": 400,
      "v": 100
    },
    {
      "midi": 72,
      "hit": false,
      "t": 105600,
      "d": 800,
      "v": 100
    },
    {
      "midi": 53,
      "hit": false,
      "t": 105600,
      "d": 800,
      "v": 100
    },
    {
      "midi": 57,
      "hit": false,
      "t": 105600,
      "d": 800,
      "v": 100
    },
    {
      "midi": 70,
      "hit": false,
      "t": 106400,
      "d": 200,
      "v": 100
    },
    {
      "midi": 53,
      "hit": false,
      "t": 106400,
      "d": 800,
      "v": 100
    },
    {
      "midi": 57,
      "hit": false,
      "t": 106400,
      "d": 800,
      "v": 100
    },
    {
      "midi": 72,
      "hit": false,
      "t": 106600,
      "d": 200,
      "v": 100
    },
    {
      "midi": 70,
      "hit": false,
      "t": 106800,
      "d": 2000,
      "v": 100
    },
    {
      "midi": 50,
      "hit": false,
      "t": 107200,
      "d": 800,
      "v": 100
    },
    {
      "midi": 58,
      "hit": false,
      "t": 107200,
      "d": 800,
      "v": 100
    },
    {
      "midi": 50,
      "hit": false,
      "t": 108000,
      "d": 800,
      "v": 100
    },
    {
      "midi": 58,
      "hit": false,
      "t": 108000,
      "d": 800,
      "v": 100
    },
    {
      "midi": 50,
      "hit": false,
      "t": 108800,
      "d": 800,
      "v": 100
    },
    {
      "midi": 58,
      "hit": false,
      "t": 108800,
      "d": 800,
      "v": 100
    },
    {
      "midi": 77,
      "hit": false,
      "t": 109200,
      "d": 400,
      "v": 100
    },
    {
      "midi": 77,
      "hit": false,
      "t": 109600,
      "d": 400,
      "v": 100
    },
    {
      "midi": 50,
      "hit": false,
      "t": 109600,
      "d": 800,
      "v": 100
    },
    {
      "midi": 58,
      "hit": false,
      "t": 109600,
      "d": 800,
      "v": 100
    },
    {
      "midi": 72,
      "hit": false,
      "t": 110000,
      "d": 400,
      "v": 100
    },
    {
      "midi": 72,
      "hit": false,
      "t": 110400,
      "d": 400,
      "v": 100
    },
    {
      "midi": 51,
      "hit": false,
      "t": 110400,
      "d": 800,
      "v": 100
    },
    {
      "midi": 55,
      "hit": false,
      "t": 110400,
      "d": 800,
      "v": 100
    },
    {
      "midi": 74,
      "hit": false,
      "t": 110800,
      "d": 400,
      "v": 100
    },
    {
      "midi": 74,
      "hit": false,
      "t": 111200,
      "d": 200,
      "v": 100
    },
    {
      "midi": 51,
      "hit": false,
      "t": 111200,
      "d": 800,
      "v": 100
    },
    {
      "midi": 55,
      "hit": false,
      "t": 111200,
      "d": 800,
      "v": 100
    },
    {
      "midi": 72,
      "hit": false,
      "t": 111400,
      "d": 200,
      "v": 100
    },
    {
      "midi": 70,
      "hit": false,
      "t": 111600,
      "d": 400,
      "v": 100
    },
    {
      "midi": 67,
      "hit": false,
      "t": 112000,
      "d": 800,
      "v": 100
    },
    {
      "midi": 53,
      "hit": false,
      "t": 112000,
      "d": 800,
      "v": 100
    },
    {
      "midi": 57,
      "hit": false,
      "t": 112000,
      "d": 800,
      "v": 100
    },
    {
      "midi": 65,
      "hit": false,
      "t": 112800,
      "d": 400,
      "v": 100
    },
    {
      "midi": 53,
      "hit": false,
      "t": 112800,
      "d": 800,
      "v": 100
    },
    {
      "midi": 57,
      "hit": false,
      "t": 112800,
      "d": 800,
      "v": 100
    },
    {
      "midi": 67,
      "hit": false,
      "t": 113200,
      "d": 400,
      "v": 100
    },
    {
      "midi": 65,
      "hit": false,
      "t": 113600,
      "d": 200,
      "v": 100
    },
    {
      "midi": 55,
      "hit": false,
      "t": 113600,
      "d": 800,
      "v": 100
    },
    {
      "midi": 58,
      "hit": false,
      "t": 113600,
      "d": 800,
      "v": 100
    },
    {
      "midi": 63,
      "hit": false,
      "t": 113800,
      "d": 200,
      "v": 100
    },
    {
      "midi": 62,
      "hit": false,
      "t": 114000,
      "d": 1200,
      "v": 100
    },
    {
      "midi": 55,
      "hit": false,
      "t": 114400,
      "d": 800,
      "v": 100
    },
    {
      "midi": 58,
      "hit": false,
      "t": 114400,
      "d": 800,
      "v": 100
    },
    {
      "midi": 50,
      "hit": false,
      "t": 115200,
      "d": 800,
      "v": 100
    },
    {
      "midi": 58,
      "hit": false,
      "t": 115200,
      "d": 800,
      "v": 100
    },
    {
      "midi": 77,
      "hit": false,
      "t": 115600,
      "d": 400,
      "v": 100
    },
    {
      "midi": 77,
      "hit": false,
      "t": 116000,
      "d": 400,
      "v": 100
    },
    {
      "midi": 50,
      "hit": false,
      "t": 116000,
      "d": 800,
      "v": 100
    },
    {
      "midi": 58,
      "hit": false,
      "t": 116000,
      "d": 800,
      "v": 100
    },
    {
      "midi": 72,
      "hit": false,
      "t": 116400,
      "d": 400,
      "v": 100
    },
    {
      "midi": 72,
      "hit": false,
      "t": 116800,
      "d": 400,
      "v": 100
    },
    {
      "midi": 51,
      "hit": false,
      "t": 116800,
      "d": 800,
      "v": 100
    },
    {
      "midi": 55,
      "hit": false,
      "t": 116800,
      "d": 800,
      "v": 100
    },
    {
      "midi": 74,
      "hit": false,
      "t": 117200,
      "d": 400,
      "v": 100
    },
    {
      "midi": 74,
      "hit": false,
      "t": 117600,
      "d": 200,
      "v": 100
    },
    {
      "midi": 51,
      "hit": false,
      "t": 117600,
      "d": 800,
      "v": 100
    },
    {
      "midi": 55,
      "hit": false,
      "t": 117600,
      "d": 800,
      "v": 100
    },
    {
      "midi": 72,
      "hit": false,
      "t": 117800,
      "d": 200,
      "v": 100
    },
    {
      "midi": 70,
      "hit": false,
      "t": 118000,
      "d": 400,
      "v": 100
    },
    {
      "midi": 72,
      "hit": false,
      "t": 118400,
      "d": 800,
      "v": 100
    },
    {
      "midi": 53,
      "hit": false,
      "t": 118400,
      "d": 800,
      "v": 100
    },
    {
      "midi": 57,
      "hit": false,
      "t": 118400,
      "d": 800,
      "v": 100
    },
    {
      "midi": 70,
      "hit": false,
      "t": 119200,
      "d": 200,
      "v": 100
    },
    {
      "midi": 53,
      "hit": false,
      "t": 119200,
      "d": 800,
      "v": 100
    },
    {
      "midi": 57,
      "hit": false,
      "t": 119200,
      "d": 800,
      "v": 100
    },
    {
      "midi": 72,
      "hit": false,
      "t": 119400,
      "d": 200,
      "v": 100
    },
    {
      "midi": 70,
      "hit": false,
      "t": 119600,
      "d": 1600,
      "v": 100
    },
    {
      "midi": 50,
      "hit": false,
      "t": 120000,
      "d": 800,
      "v": 100
    },
    {
      "midi": 58,
      "hit": false,
      "t": 120000,
      "d": 800,
      "v": 100
    },
    {
      "midi": 50,
      "hit": false,
      "t": 120800,
      "d": 800,
      "v": 100
    },
    {
      "midi": 58,
      "hit": false,
      "t": 120800,
      "d": 800,
      "v": 100
    },
    {
      "midi": 63,
      "hit": false,
      "t": 121200,
      "d": 200,
      "v": 100
    },
    {
      "midi": 65,
      "hit": false,
      "t": 121400,
      "d": 200,
      "v": 100
    },
    {
      "midi": 67,
      "hit": false,
      "t": 121600,
      "d": 400,
      "v": 100
    },
    {
      "midi": 63,
      "hit": false,
      "t": 121600,
      "d": 2400,
      "v": 100
    },
    {
      "midi": 39,
      "hit": false,
      "t": 121600,
      "d": 800,
      "v": 100
    },
    {
      "midi": 67,
      "hit": false,
      "t": 122000,
      "d": 400,
      "v": 100
    },
    {
      "midi": 67,
      "hit": false,
      "t": 122400,
      "d": 400,
      "v": 100
    },
    {
      "midi": 51,
      "hit": false,
      "t": 122400,
      "d": 800,
      "v": 100
    },
    {
      "midi": 67,
      "hit": false,
      "t": 122800,
      "d": 400,
      "v": 100
    },
    {
      "midi": 67,
      "hit": false,
      "t": 123200,
      "d": 400,
      "v": 100
    },
    {
      "midi": 39,
      "hit": false,
      "t": 123200,
      "d": 800,
      "v": 100
    },
    {
      "midi": 65,
      "hit": false,
      "t": 123600,
      "d": 400,
      "v": 100
    },
    {
      "midi": 63,
      "hit": false,
      "t": 124000,
      "d": 800,
      "v": 100
    },
    {
      "midi": 67,
      "hit": false,
      "t": 124000,
      "d": 800,
      "v": 100
    },
    {
      "midi": 51,
      "hit": false,
      "t": 124000,
      "d": 800,
      "v": 100
    },
    {
      "midi": 62,
      "hit": false,
      "t": 124800,
      "d": 2800,
      "v": 100
    },
    {
      "midi": 65,
      "hit": false,
      "t": 124800,
      "d": 2800,
      "v": 100
    },
    {
      "midi": 46,
      "hit": false,
      "t": 124800,
      "d": 800,
      "v": 100
    },
    {
      "midi": 58,
      "hit": false,
      "t": 125600,
      "d": 400,
      "v": 100
    },
    {
      "midi": 46,
      "hit": false,
      "t": 126000,
      "d": 400,
      "v": 100
    },
    {
      "midi": 46,
      "hit": false,
      "t": 126400,
      "d": 800,
      "v": 100
    },
    {
      "midi": 58,
      "hit": false,
      "t": 127200,
      "d": 800,
      "v": 100
    },
    {
      "midi": 63,
      "hit": false,
      "t": 127600,
      "d": 200,
      "v": 100
    },
    {
      "midi": 65,
      "hit": false,
      "t": 127800,
      "d": 200,
      "v": 100
    },
    {
      "midi": 67,
      "hit": false,
      "t": 128000,
      "d": 400,
      "v": 100
    },
    {
      "midi": 63,
      "hit": false,
      "t": 128000,
      "d": 1600,
      "v": 100
    },
    {
      "midi": 39,
      "hit": false,
      "t": 128000,
      "d": 800,
      "v": 100
    },
    {
      "midi": 67,
      "hit": false,
      "t": 128400,
      "d": 400,
      "v": 100
    },
    {
      "midi": 67,
      "hit": false,
      "t": 128800,
      "d": 400,
      "v": 100
    },
    {
      "midi": 51,
      "hit": false,
      "t": 128800,
      "d": 800,
      "v": 100
    },
    {
      "midi": 67,
      "hit": false,
      "t": 129200,
      "d": 400,
      "v": 100
    },
    {
      "midi": 74,
      "hit": false,
      "t": 129600,
      "d": 400,
      "v": 100
    },
    {
      "midi": 39,
      "hit": false,
      "t": 129600,
      "d": 800,
      "v": 100
    },
    {
      "midi": 72,
      "hit": false,
      "t": 130000,
      "d": 400,
      "v": 100
    },
    {
      "midi": 69,
      "hit": false,
      "t": 130400,
      "d": 400,
      "v": 100
    },
    {
      "midi": 51,
      "hit": false,
      "t": 130400,
      "d": 800,
      "v": 100
    },
    {
      "midi": 69,
      "hit": false,
      "t": 130800,
      "d": 200,
      "v": 100
    },
    {
      "midi": 67,
      "hit": false,
      "t": 131000,
      "d": 200,
      "v": 100
    },
    {
      "midi": 62,
      "hit": false,
      "t": 131200,
      "d": 3200,
      "v": 100
    },
    {
      "midi": 65,
      "hit": false,
      "t": 131200,
      "d": 3200,
      "v": 100
    },
    {
      "midi": 46,
      "hit": false,
      "t": 131200,
      "d": 800,
      "v": 100
    },
    {
      "midi": 58,
      "hit": false,
      "t": 132000,
      "d": 400,
      "v": 100
    },
    {
      "midi": 46,
      "hit": false,
      "t": 132400,
      "d": 400,
      "v": 100
    },
    {
      "midi": 46,
      "hit": false,
      "t": 132800,
      "d": 800,
      "v": 100
    },
    {
      "midi": 58,
      "hit": false,
      "t": 133600,
      "d": 800,
      "v": 100
    },
    {
      "midi": 63,
      "hit": false,
      "t": 134400,
      "d": 400,
      "v": 100
    },
    {
      "midi": 67,
      "hit": false,
      "t": 134400,
      "d": 400,
      "v": 100
    },
    {
      "midi": 39,
      "hit": false,
      "t": 134400,
      "d": 800,
      "v": 100
    },
    {
      "midi": 63,
      "hit": false,
      "t": 134800,
      "d": 400,
      "v": 100
    },
    {
      "midi": 67,
      "hit": false,
      "t": 134800,
      "d": 400,
      "v": 100
    },
    {
      "midi": 63,
      "hit": false,
      "t": 135200,
      "d": 400,
      "v": 100
    },
    {
      "midi": 67,
      "hit": false,
      "t": 135200,
      "d": 400,
      "v": 100
    },
    {
      "midi": 51,
      "hit": false,
      "t": 135200,
      "d": 800,
      "v": 100
    },
    {
      "midi": 63,
      "hit": false,
      "t": 135600,
      "d": 1600,
      "v": 100
    },
    {
      "midi": 67,
      "hit": false,
      "t": 135600,
      "d": 1600,
      "v": 100
    },
    {
      "midi": 39,
      "hit": false,
      "t": 136000,
      "d": 800,
      "v": 100
    },
    {
      "midi": 51,
      "hit": false,
      "t": 136800,
      "d": 800,
      "v": 100
    },
    {
      "midi": 63,
      "hit": false,
      "t": 137200,
      "d": 400,
      "v": 100
    },
    {
      "midi": 67,
      "hit": false,
      "t": 137200,
      "d": 400,
      "v": 100
    },
    {
      "midi": 62,
      "hit": false,
      "t": 137600,
      "d": 400,
      "v": 100
    },
    {
      "midi": 66,
      "hit": false,
      "t": 137600,
      "d": 400,
      "v": 100
    },
    {
      "midi": 38,
      "hit": false,
      "t": 137600,
      "d": 800,
      "v": 100
    },
    {
      "midi": 62,
      "hit": false,
      "t": 138000,
      "d": 400,
      "v": 100
    },
    {
      "midi": 66,
      "hit": false,
      "t": 138000,
      "d": 400,
      "v": 100
    },
    {
      "midi": 62,
      "hit": false,
      "t": 138400,
      "d": 400,
      "v": 100
    },
    {
      "midi": 66,
      "hit": false,
      "t": 138400,
      "d": 400,
      "v": 100
    },
    {
      "midi": 50,
      "hit": false,
      "t": 138400,
      "d": 800,
      "v": 100
    },
    {
      "midi": 67,
      "hit": false,
      "t": 138800,
      "d": 1200,
      "v": 100
    },
    {
      "midi": 38,
      "hit": false,
      "t": 139200,
      "d": 800,
      "v": 100
    },
    {
      "midi": 69,
      "hit": false,
      "t": 140000,
      "d": 600,
      "v": 100
    },
    {
      "midi": 50,
      "hit": false,
      "t": 140000,
      "d": 800,
      "v": 100
    },
    {
      "midi": 70,
      "hit": false,
      "t": 140600,
      "d": 200,
      "v": 100
    },
    {
      "midi": 72,
      "hit": false,
      "t": 140800,
      "d": 400,
      "v": 100
    },
    {
      "midi": 39,
      "hit": false,
      "t": 140800,
      "d": 800,
      "v": 100
    },
    {
      "midi": 67,
      "hit": false,
      "t": 141200,
      "d": 400,
      "v": 100
    },
    {
      "midi": 70,
      "hit": false,
      "t": 141200,
      "d": 400,
      "v": 100
    },
    {
      "midi": 67,
      "hit": false,
      "t": 141600,
      "d": 2000,
      "v": 100
    },
    {
      "midi": 70,
      "hit": false,
      "t": 141600,
      "d": 2000,
      "v": 100
    },
    {
      "midi": 51,
      "hit": false,
      "t": 141600,
      "d": 800,
      "v": 100
    },
    {
      "midi": 39,
      "hit": false,
      "t": 142400,
      "d": 800,
      "v": 100
    },
    {
      "midi": 51,
      "hit": false,
      "t": 143200,
      "d": 800,
      "v": 100
    },
    {
      "midi": 70,
      "hit": false,
      "t": 143600,
      "d": 200,
      "v": 100
    },
    {
      "midi": 72,
      "hit": false,
      "t": 143800,
      "d": 200,
      "v": 100
    },
    {
      "midi": 74,
      "hit": false,
      "t": 144000,
      "d": 400,
      "v": 100
    },
    {
      "midi": 70,
      "hit": false,
      "t": 144000,
      "d": 1600,
      "v": 100
    },
    {
      "midi": 41,
      "hit": false,
      "t": 144000,
      "d": 800,
      "v": 100
    },
    {
      "midi": 53,
      "hit": false,
      "t": 144000,
      "d": 800,
      "v": 100
    },
    {
      "midi": 72,
      "hit": false,
      "t": 144400,
      "d": 400,
      "v": 100
    },
    {
      "midi": 74,
      "hit": false,
      "t": 144800,
      "d": 800,
      "v": 100
    },
    {
      "midi": 41,
      "hit": false,
      "t": 144800,
      "d": 800,
      "v": 100
    },
    {
      "midi": 53,
      "hit": false,
      "t": 144800,
      "d": 800,
      "v": 100
    },
    {
      "midi": 69,
      "hit": false,
      "t": 145600,
      "d": 1200,
      "v": 100
    },
    {
      "midi": 72,
      "hit": false,
      "t": 145600,
      "d": 1200,
      "v": 100
    },
    {
      "midi": 41,
      "hit": false,
      "t": 145600,
      "d": 800,
      "v": 100
    },
    {
      "midi": 53,
      "hit": false,
      "t": 145600,
      "d": 800,
      "v": 100
    },
    {
      "midi": 41,
      "hit": false,
      "t": 146400,
      "d": 800,
      "v": 100
    },
    {
      "midi": 53,
      "hit": false,
      "t": 146400,
      "d": 800,
      "v": 100
    },
    {
      "midi": 65,
      "hit": false,
      "t": 146800,
      "d": 400,
      "v": 100
    },
    {
      "midi": 65,
      "hit": false,
      "t": 147200,
      "d": 400,
      "v": 100
    },
    {
      "midi": 62,
      "hit": false,
      "t": 147200,
      "d": 1600,
      "v": 100
    },
    {
      "midi": 46,
      "hit": false,
      "t": 147200,
      "d": 1200,
      "v": 100
    },
    {
      "midi": 65,
      "hit": false,
      "t": 147600,
      "d": 400,
      "v": 100
    },
    {
      "midi": 65,
      "hit": false,
      "t": 148000,
      "d": 400,
      "v": 100
    },
    {
      "midi": 65,
      "hit": false,
      "t": 148400,
      "d": 400,
      "v": 100
    },
    {
      "midi": 46,
      "hit": false,
      "t": 148400,
      "d": 400,
      "v": 100
    },
    {
      "midi": 67,
      "hit": false,
      "t": 148800,
      "d": 400,
      "v": 100
    },
    {
      "midi": 63,
      "hit": false,
      "t": 148800,
      "d": 1600,
      "v": 100
    },
    {
      "midi": 39,
      "hit": false,
      "t": 148800,
      "d": 1200,
      "v": 100
    },
    {
      "midi": 70,
      "hit": false,
      "t": 149200,
      "d": 1200,
      "v": 100
    },
    {
      "midi": 39,
      "hit": false,
      "t": 150000,
      "d": 400,
      "v": 100
    },
    {
      "midi": 67,
      "hit": false,
      "t": 150400,
      "d": 400,
      "v": 100
    },
    {
      "midi": 57,
      "hit": false,
      "t": 150400,
      "d": 1600,
      "v": 100
    },
    {
      "midi": 41,
      "hit": false,
      "t": 150400,
      "d": 1200,
      "v": 100
    },
    {
      "midi": 65,
      "hit": false,
      "t": 150800,
      "d": 400,
      "v": 100
    },
    {
      "midi": 67,
      "hit": false,
      "t": 151200,
      "d": 800,
      "v": 100
    },
    {
      "midi": 41,
      "hit": false,
      "t": 151600,
      "d": 400,
      "v": 100
    },
    {
      "midi": 65,
      "hit": false,
      "t": 152000,
      "d": 1200,
      "v": 100
    },
    {
      "midi": 58,
      "hit": false,
      "t": 152000,
      "d": 1600,
      "v": 100
    },
    {
      "midi": 62,
      "hit": false,
      "t": 152000,
      "d": 1600,
      "v": 100
    },
    {
      "midi": 43,
      "hit": false,
      "t": 152000,
      "d": 800,
      "v": 100
    },
    {
      "midi": 43,
      "hit": false,
      "t": 152800,
      "d": 800,
      "v": 100
    },
    {
      "midi": 65,
      "hit": false,
      "t": 153200,
      "d": 400,
      "v": 100
    },
    {
      "midi": 65,
      "hit": false,
      "t": 153600,
      "d": 400,
      "v": 100
    },
    {
      "midi": 62,
      "hit": false,
      "t": 153600,
      "d": 1600,
      "v": 100
    },
    {
      "midi": 46,
      "hit": false,
      "t": 153600,
      "d": 1200,
      "v": 100
    },
    {
      "midi": 65,
      "hit": false,
      "t": 154000,
      "d": 400,
      "v": 100
    },
    {
      "midi": 65,
      "hit": false,
      "t": 154400,
      "d": 400,
      "v": 100
    },
    {
      "midi": 65,
      "hit": false,
      "t": 154800,
      "d": 400,
      "v": 100
    },
    {
      "midi": 46,
      "hit": false,
      "t": 154800,
      "d": 400,
      "v": 100
    },
    {
      "midi": 67,
      "hit": false,
      "t": 155200,
      "d": 400,
      "v": 100
    },
    {
      "midi": 63,
      "hit": false,
      "t": 155200,
      "d": 1600,
      "v": 100
    },
    {
      "midi": 39,
      "hit": false,
      "t": 155200,
      "d": 1200,
      "v": 100
    },
    {
      "midi": 70,
      "hit": false,
      "t": 155600,
      "d": 400,
      "v": 100
    },
    {
      "midi": 70,
      "hit": false,
      "t": 156000,
      "d": 400,
      "v": 100
    },
    {
      "midi": 65,
      "hit": false,
      "t": 156400,
      "d": 400,
      "v": 100
    },
    {
      "midi": 39,
      "hit": false,
      "t": 156400,
      "d": 400,
      "v": 100
    },
    {
      "midi": 72,
      "hit": false,
      "t": 156800,
      "d": 400,
      "v": 100
    },
    {
      "midi": 69,
      "hit": false,
      "t": 156800,
      "d": 1600,
      "v": 100
    },
    {
      "midi": 41,
      "hit": false,
      "t": 156800,
      "d": 1200,
      "v": 100
    },
    {
      "midi": 72,
      "hit": false,
      "t": 157200,
      "d": 400,
      "v": 100
    },
    {
      "midi": 74,
      "hit": false,
      "t": 157600,
      "d": 800,
      "v": 100
    },
    {
      "midi": 41,
      "hit": false,
      "t": 158000,
      "d": 400,
      "v": 100
    },
    {
      "midi": 74,
      "hit": false,
      "t": 158400,
      "d": 200,
      "v": 100
    },
    {
      "midi": 65,
      "hit": false,
      "t": 158400,
      "d": 1600,
      "v": 100
    },
    {
      "midi": 46,
      "hit": false,
      "t": 158400,
      "d": 800,
      "v": 100
    },
    {
      "midi": 72,
      "hit": false,
      "t": 158600,
      "d": 200,
      "v": 100
    },
    {
      "midi": 70,
      "hit": false,
      "t": 158800,
      "d": 1200,
      "v": 100
    },
    {
      "midi": 46,
      "hit": false,
      "t": 159200,
      "d": 800,
      "v": 100
    },
    {
      "midi": 46,
      "hit": false,
      "t": 160000,
      "d": 1200,
      "v": 100
    },
    {
      "midi": 74,
      "hit": false,
      "t": 160400,
      "d": 200,
      "v": 100
    },
    {
      "midi": 74,
      "hit": false,
      "t": 160600,
      "d": 200,
      "v": 100
    },
    {
      "midi": 74,
      "hit": false,
      "t": 160800,
      "d": 400,
      "v": 100
    },
    {
      "midi": 77,
      "hit": false,
      "t": 161200,
      "d": 400,
      "v": 100
    },
    {
      "midi": 46,
      "hit": false,
      "t": 161200,
      "d": 400,
      "v": 100
    },
    {
      "midi": 75,
      "hit": false,
      "t": 161600,
      "d": 400,
      "v": 100
    },
    {
      "midi": 67,
      "hit": false,
      "t": 161600,
      "d": 1600,
      "v": 100
    },
    {
      "midi": 39,
      "hit": false,
      "t": 161600,
      "d": 1200,
      "v": 100
    },
    {
      "midi": 74,
      "hit": false,
      "t": 162000,
      "d": 400,
      "v": 100
    },
    {
      "midi": 72,
      "hit": false,
      "t": 162400,
      "d": 400,
      "v": 100
    },
    {
      "midi": 70,
      "hit": false,
      "t": 162800,
      "d": 400,
      "v": 100
    },
    {
      "midi": 39,
      "hit": false,
      "t": 162800,
      "d": 400,
      "v": 100
    },
    {
      "midi": 77,
      "hit": false,
      "t": 163200,
      "d": 400,
      "v": 100
    },
    {
      "midi": 69,
      "hit": false,
      "t": 163200,
      "d": 1600,
      "v": 100
    },
    {
      "midi": 41,
      "hit": false,
      "t": 163200,
      "d": 1200,
      "v": 100
    },
    {
      "midi": 77,
      "hit": false,
      "t": 163600,
      "d": 400,
      "v": 100
    },
    {
      "midi": 77,
      "hit": false,
      "t": 164000,
      "d": 800,
      "v": 100
    },
    {
      "midi": 41,
      "hit": false,
      "t": 164400,
      "d": 400,
      "v": 100
    },
    {
      "midi": 74,
      "hit": false,
      "t": 164800,
      "d": 200,
      "v": 100
    },
    {
      "midi": 43,
      "hit": false,
      "t": 164800,
      "d": 800,
      "v": 100
    },
    {
      "midi": 72,
      "hit": false,
      "t": 165000,
      "d": 200,
      "v": 100
    },
    {
      "midi": 67,
      "hit": false,
      "t": 165200,
      "d": 1200,
      "v": 100
    },
    {
      "midi": 70,
      "hit": false,
      "t": 165200,
      "d": 1200,
      "v": 100
    },
    {
      "midi": 43,
      "hit": false,
      "t": 165600,
      "d": 800,
      "v": 100
    },
    {
      "midi": 72,
      "hit": false,
      "t": 166400,
      "d": 400,
      "v": 100
    },
    {
      "midi": 75,
      "hit": false,
      "t": 166400,
      "d": 400,
      "v": 100
    },
    {
      "midi": 45,
      "hit": false,
      "t": 166400,
      "d": 1200,
      "v": 100
    },
    {
      "midi": 72,
      "hit": false,
      "t": 166800,
      "d": 400,
      "v": 100
    },
    {
      "midi": 75,
      "hit": false,
      "t": 166800,
      "d": 400,
      "v": 100
    },
    {
      "midi": 72,
      "hit": false,
      "t": 167200,
      "d": 800,
      "v": 100
    },
    {
      "midi": 75,
      "hit": false,
      "t": 167200,
      "d": 800,
      "v": 100
    },
    {
      "midi": 45,
      "hit": false,
      "t": 167600,
      "d": 400,
      "v": 100
    },
    {
      "midi": 74,
      "hit": false,
      "t": 168000,
      "d": 200,
      "v": 100
    },
    {
      "midi": 43,
      "hit": false,
      "t": 168000,
      "d": 800,
      "v": 100
    },
    {
      "midi": 72,
      "hit": false,
      "t": 168200,
      "d": 200,
      "v": 100
    },
    {
      "midi": 67,
      "hit": false,
      "t": 168400,
      "d": 800,
      "v": 100
    },
    {
      "midi": 70,
      "hit": false,
      "t": 168400,
      "d": 800,
      "v": 100
    },
    {
      "midi": 43,
      "hit": false,
      "t": 168800,
      "d": 800,
      "v": 100
    },
    {
      "midi": 65,
      "hit": false,
      "t": 169200,
      "d": 400,
      "v": 100
    },
    {
      "midi": 70,
      "hit": false,
      "t": 169600,
      "d": 400,
      "v": 100
    },
    {
      "midi": 38,
      "hit": false,
      "t": 169600,
      "d": 800,
      "v": 100
    },
    {
      "midi": 72,
      "hit": false,
      "t": 170000,
      "d": 400,
      "v": 100
    },
    {
      "midi": 74,
      "hit": false,
      "t": 170400,
      "d": 400,
      "v": 100
    },
    {
      "midi": 39,
      "hit": false,
      "t": 170400,
      "d": 400,
      "v": 100
    },
    {
      "midi": 69,
      "hit": false,
      "t": 170800,
      "d": 1200,
      "v": 100
    },
    {
      "midi": 72,
      "hit": false,
      "t": 170800,
      "d": 1200,
      "v": 100
    },
    {
      "midi": 41,
      "hit": false,
      "t": 170800,
      "d": 2000,
      "v": 100
    },
    {
      "midi": 65,
      "hit": false,
      "t": 172000,
      "d": 400,
      "v": 100
    },
    {
      "midi": 72,
      "hit": false,
      "t": 172400,
      "d": 400,
      "v": 100
    },
    {
      "midi": 65,
      "hit": false,
      "t": 172800,
      "d": 400,
      "v": 100
    },
    {
      "midi": 70,
      "hit": false,
      "t": 172800,
      "d": 400,
      "v": 100
    },
    {
      "midi": 50,
      "hit": false,
      "t": 172800,
      "d": 1200,
      "v": 100
    },
    {
      "midi": 72,
      "hit": false,
      "t": 173200,
      "d": 400,
      "v": 100
    },
    {
      "midi": 74,
      "hit": false,
      "t": 173600,
      "d": 400,
      "v": 100
    },
    {
      "midi": 67,
      "hit": false,
      "t": 174000,
      "d": 800,
      "v": 100
    },
    {
      "midi": 70,
      "hit": false,
      "t": 174000,
      "d": 800,
      "v": 100
    },
    {
      "midi": 51,
      "hit": false,
      "t": 174000,
      "d": 1200,
      "v": 100
    },
    {
      "midi": 65,
      "hit": false,
      "t": 174800,
      "d": 400,
      "v": 100
    },
    {
      "midi": 67,
      "hit": false,
      "t": 175200,
      "d": 800,
      "v": 100
    },
    {
      "midi": 51,
      "hit": false,
      "t": 175200,
      "d": 800,
      "v": 100
    },
    {
      "midi": 65,
      "hit": false,
      "t": 176000,
      "d": 800,
      "v": 100
    },
    {
      "midi": 69,
      "hit": false,
      "t": 176000,
      "d": 800,
      "v": 100
    },
    {
      "midi": 53,
      "hit": false,
      "t": 176000,
      "d": 1200,
      "v": 100
    },
    {
      "midi": 70,
      "hit": false,
      "t": 176800,
      "d": 400,
      "v": 100
    },
    {
      "midi": 65,
      "hit": false,
      "t": 177200,
      "d": 2000,
      "v": 100
    },
    {
      "midi": 70,
      "hit": false,
      "t": 177200,
      "d": 2000,
      "v": 100
    },
    {
      "midi": 55,
      "hit": false,
      "t": 177200,
      "d": 1200,
      "v": 100
    },
    {
      "midi": 43,
      "hit": false,
      "t": 178400,
      "d": 800,
      "v": 100
    },
    {
      "midi": 65,
      "hit": false,
      "t": 179200,
      "d": 400,
      "v": 100
    },
    {
      "midi": 70,
      "hit": false,
      "t": 179200,
      "d": 400,
      "v": 100
    },
    {
      "midi": 50,
      "hit": false,
      "t": 179200,
      "d": 1200,
      "v": 100
    },
    {
      "midi": 72,
      "hit": false,
      "t": 179600,
      "d": 400,
      "v": 100
    },
    {
      "midi": 74,
      "hit": false,
      "t": 180000,
      "d": 400,
      "v": 100
    },
    {
      "midi": 67,
      "hit": false,
      "t": 180400,
      "d": 800,
      "v": 100
    },
    {
      "midi": 70,
      "hit": false,
      "t": 180400,
      "d": 800,
      "v": 100
    },
    {
      "midi": 51,
      "hit": false,
      "t": 180400,
      "d": 1200,
      "v": 100
    },
    {
      "midi": 65,
      "hit": false,
      "t": 181200,
      "d": 400,
      "v": 100
    },
    {
      "midi": 67,
      "hit": false,
      "t": 181600,
      "d": 800,
      "v": 100
    },
    {
      "midi": 51,
      "hit": false,
      "t": 181600,
      "d": 800,
      "v": 100
    },
    {
      "midi": 65,
      "hit": false,
      "t": 182400,
      "d": 800,
      "v": 100
    },
    {
      "midi": 69,
      "hit": false,
      "t": 182400,
      "d": 800,
      "v": 100
    },
    {
      "midi": 53,
      "hit": false,
      "t": 182400,
      "d": 1200,
      "v": 100
    },
    {
      "midi": 70,
      "hit": false,
      "t": 183200,
      "d": 400,
      "v": 100
    },
    {
      "midi": 65,
      "hit": false,
      "t": 183600,
      "d": 1600,
      "v": 100
    },
    {
      "midi": 70,
      "hit": false,
      "t": 183600,
      "d": 1600,
      "v": 100
    },
    {
      "midi": 55,
      "hit": false,
      "t": 183600,
      "d": 1200,
      "v": 100
    },
    {
      "midi": 43,
      "hit": false,
      "t": 184800,
      "d": 800,
      "v": 100
    },
    {
      "midi": 65,
      "hit": false,
      "t": 185200,
      "d": 400,
      "v": 100
    },
    {
      "midi": 50,
      "hit": false,
      "t": 185600,
      "d": 800,
      "v": 100
    },
    {
      "midi": 58,
      "hit": false,
      "t": 185600,
      "d": 800,
      "v": 100
    },
    {
      "midi": 77,
      "hit": false,
      "t": 186000,
      "d": 400,
      "v": 100
    },
    {
      "midi": 77,
      "hit": false,
      "t": 186400,
      "d": 400,
      "v": 100
    },
    {
      "midi": 50,
      "hit": false,
      "t": 186400,
      "d": 800,
      "v": 100
    },
    {
      "midi": 58,
      "hit": false,
      "t": 186400,
      "d": 800,
      "v": 100
    },
    {
      "midi": 72,
      "hit": false,
      "t": 186800,
      "d": 400,
      "v": 100
    },
    {
      "midi": 72,
      "hit": false,
      "t": 187200,
      "d": 400,
      "v": 100
    },
    {
      "midi": 51,
      "hit": false,
      "t": 187200,
      "d": 800,
      "v": 100
    },
    {
      "midi": 55,
      "hit": false,
      "t": 187200,
      "d": 800,
      "v": 100
    },
    {
      "midi": 74,
      "hit": false,
      "t": 187600,
      "d": 400,
      "v": 100
    },
    {
      "midi": 74,
      "hit": false,
      "t": 188000,
      "d": 200,
      "v": 100
    },
    {
      "midi": 51,
      "hit": false,
      "t": 188000,
      "d": 800,
      "v": 100
    },
    {
      "midi": 55,
      "hit": false,
      "t": 188000,
      "d": 800,
      "v": 100
    },
    {
      "midi": 72,
      "hit": false,
      "t": 188200,
      "d": 200,
      "v": 100
    },
    {
      "midi": 70,
      "hit": false,
      "t": 188400,
      "d": 400,
      "v": 100
    },
    {
      "midi": 67,
      "hit": false,
      "t": 188800,
      "d": 800,
      "v": 100
    },
    {
      "midi": 53,
      "hit": false,
      "t": 188800,
      "d": 800,
      "v": 100
    },
    {
      "midi": 57,
      "hit": false,
      "t": 188800,
      "d": 800,
      "v": 100
    },
    {
      "midi": 65,
      "hit": false,
      "t": 189600,
      "d": 400,
      "v": 100
    },
    {
      "midi": 53,
      "hit": false,
      "t": 189600,
      "d": 800,
      "v": 100
    },
    {
      "midi": 57,
      "hit": false,
      "t": 189600,
      "d": 800,
      "v": 100
    },
    {
      "midi": 67,
      "hit": false,
      "t": 190000,
      "d": 400,
      "v": 100
    },
    {
      "midi": 65,
      "hit": false,
      "t": 190400,
      "d": 200,
      "v": 100
    },
    {
      "midi": 55,
      "hit": false,
      "t": 190400,
      "d": 800,
      "v": 100
    },
    {
      "midi": 58,
      "hit": false,
      "t": 190400,
      "d": 800,
      "v": 100
    },
    {
      "midi": 63,
      "hit": false,
      "t": 190600,
      "d": 200,
      "v": 100
    },
    {
      "midi": 62,
      "hit": false,
      "t": 190800,
      "d": 1200,
      "v": 100
    },
    {
      "midi": 55,
      "hit": false,
      "t": 191200,
      "d": 800,
      "v": 100
    },
    {
      "midi": 58,
      "hit": false,
      "t": 191200,
      "d": 800,
      "v": 100
    },
    {
      "midi": 72,
      "hit": false,
      "t": 192000,
      "d": 400,
      "v": 100
    },
    {
      "midi": 75,
      "hit": false,
      "t": 192000,
      "d": 400,
      "v": 100
    },
    {
      "midi": 44,
      "hit": false,
      "t": 192000,
      "d": 1200,
      "v": 100
    },
    {
      "midi": 72,
      "hit": false,
      "t": 192400,
      "d": 400,
      "v": 100
    },
    {
      "midi": 75,
      "hit": false,
      "t": 192400,
      "d": 400,
      "v": 100
    },
    {
      "midi": 72,
      "hit": false,
      "t": 192800,
      "d": 800,
      "v": 100
    },
    {
      "midi": 75,
      "hit": false,
      "t": 192800,
      "d": 800,
      "v": 100
    },
    {
      "midi": 44,
      "hit": false,
      "t": 193200,
      "d": 400,
      "v": 100
    },
    {
      "midi": 74,
      "hit": false,
      "t": 193600,
      "d": 200,
      "v": 100
    },
    {
      "midi": 43,
      "hit": false,
      "t": 193600,
      "d": 800,
      "v": 100
    },
    {
      "midi": 72,
      "hit": false,
      "t": 193800,
      "d": 200,
      "v": 100
    },
    {
      "midi": 67,
      "hit": false,
      "t": 194000,
      "d": 800,
      "v": 100
    },
    {
      "midi": 70,
      "hit": false,
      "t": 194000,
      "d": 800,
      "v": 100
    },
    {
      "midi": 43,
      "hit": false,
      "t": 194400,
      "d": 800,
      "v": 100
    },
    {
      "midi": 65,
      "hit": false,
      "t": 194800,
      "d": 400,
      "v": 100
    },
    {
      "midi": 70,
      "hit": false,
      "t": 195200,
      "d": 400,
      "v": 100
    },
    {
      "midi": 38,
      "hit": false,
      "t": 195200,
      "d": 800,
      "v": 100
    },
    {
      "midi": 72,
      "hit": false,
      "t": 195600,
      "d": 400,
      "v": 100
    },
    {
      "midi": 74,
      "hit": false,
      "t": 196000,
      "d": 400,
      "v": 100
    },
    {
      "midi": 39,
      "hit": false,
      "t": 196000,
      "d": 400,
      "v": 100
    },
    {
      "midi": 69,
      "hit": false,
      "t": 196400,
      "d": 1200,
      "v": 100
    },
    {
      "midi": 72,
      "hit": false,
      "t": 196400,
      "d": 1200,
      "v": 100
    },
    {
      "midi": 41,
      "hit": false,
      "t": 196400,
      "d": 2000,
      "v": 100
    },
    {
      "midi": 65,
      "hit": false,
      "t": 197600,
      "d": 400,
      "v": 100
    },
    {
      "midi": 72,
      "hit": false,
      "t": 198000,
      "d": 400,
      "v": 100
    },
    {
      "midi": 63,
      "hit": false,
      "t": 198400,
      "d": 1200,
      "v": 100
    },
    {
      "midi": 65,
      "hit": false,
      "t": 198400,
      "d": 1200,
      "v": 100
    },
    {
      "midi": 70,
      "hit": false,
      "t": 198400,
      "d": 1200,
      "v": 100
    },
    {
      "midi": 39,
      "hit": false,
      "t": 198400,
      "d": 1200,
      "v": 100
    },
    {
      "midi": 63,
      "hit": false,
      "t": 199600,
      "d": 2000,
      "v": 100
    },
    {
      "midi": 65,
      "hit": false,
      "t": 199600,
      "d": 2000,
      "v": 100
    },
    {
      "midi": 70,
      "hit": false,
      "t": 199600,
      "d": 2000,
      "v": 100
    },
    {
      "midi": 39,
      "hit": false,
      "t": 199600,
      "d": 2000,
      "v": 100
    },
    {
      "midi": 65,
      "hit": false,
      "t": 201600,
      "d": 1200,
      "v": 100
    },
    {
      "midi": 70,
      "hit": false,
      "t": 201600,
      "d": 1200,
      "v": 100
    },
    {
      "midi": 41,
      "hit": false,
      "t": 201600,
      "d": 1200,
      "v": 100
    },
    {
      "midi": 65,
      "hit": false,
      "t": 202800,
      "d": 1200,
      "v": 100
    },
    {
      "midi": 69,
      "hit": false,
      "t": 202800,
      "d": 1200,
      "v": 100
    },
    {
      "midi": 41,
      "hit": false,
      "t": 202800,
      "d": 2000,
      "v": 100
    },
    {
      "midi": 67,
      "hit": false,
      "t": 204000,
      "d": 800,
      "v": 100
    },
    {
      "midi": 63,
      "hit": false,
      "t": 204800,
      "d": 3200,
      "v": 100
    },
    {
      "midi": 65,
      "hit": false,
      "t": 204800,
      "d": 3200,
      "v": 100
    },
    {
      "midi": 70,
      "hit": false,
      "t": 204800,
      "d": 3200,
      "v": 100
    },
    {
      "midi": 39,
      "hit": false,
      "t": 204800,
      "d": 1200,
      "v": 100
    },
    {
      "midi": 39,
      "hit": false,
      "t": 206000,
      "d": 2000,
      "v": 100
    },
    {
      "midi": 65,
      "hit": false,
      "t": 208000,
      "d": 400,
      "v": 100
    },
    {
      "midi": 67,
      "hit": false,
      "t": 208000,
      "d": 400,
      "v": 100
    },
    {
      "midi": 70,
      "hit": false,
      "t": 208000,
      "d": 400,
      "v": 100
    },
    {
      "midi": 41,
      "hit": false,
      "t": 208000,
      "d": 1600,
      "v": 100
    },
    {
      "midi": 70,
      "hit": false,
      "t": 208400,
      "d": 400,
      "v": 100
    },
    {
      "midi": 70,
      "hit": false,
      "t": 208800,
      "d": 200,
      "v": 100
    },
    {
      "midi": 72,
      "hit": false,
      "t": 209000,
      "d": 200,
      "v": 100
    },
    {
      "midi": 74,
      "hit": false,
      "t": 209200,
      "d": 400,
      "v": 100
    },
    {
      "midi": 65,
      "hit": false,
      "t": 209600,
      "d": 400,
      "v": 100
    },
    {
      "midi": 69,
      "hit": false,
      "t": 209600,
      "d": 400,
      "v": 100
    },
    {
      "midi": 72,
      "hit": false,
      "t": 209600,
      "d": 400,
      "v": 100
    },
    {
      "midi": 41,
      "hit": false,
      "t": 209600,
      "d": 1600,
      "v": 100
    },
    {
      "midi": 69,
      "hit": false,
      "t": 210000,
      "d": 200,
      "v": 100
    },
    {
      "midi": 67,
      "hit": false,
      "t": 210200,
      "d": 200,
      "v": 100
    },
    {
      "midi": 65,
      "hit": false,
      "t": 210400,
      "d": 400,
      "v": 100
    },
    {
      "midi": 65,
      "hit": false,
      "t": 210800,
      "d": 400,
      "v": 100
    },
    {
      "midi": 62,
      "hit": false,
      "t": 211200,
      "d": 400,
      "v": 100
    },
    {
      "midi": 72,
      "hit": false,
      "t": 211200,
      "d": 400,
      "v": 100
    },
    {
      "midi": 46,
      "hit": false,
      "t": 211200,
      "d": 3200,
      "v": 100
    },
    {
      "midi": 53,
      "hit": false,
      "t": 211200,
      "d": 3200,
      "v": 100
    },
    {
      "midi": 62,
      "hit": false,
      "t": 211600,
      "d": 2800,
      "v": 100
    },
    {
      "midi": 70,
      "hit": false,
      "t": 211600,
      "d": 2800,
      "v": 100
    }
  ]
}